<?xml version="1.0" encoding="utf-8"?>
<!-- Generator: Adobe Illustrator 27.4.1, SVG Export Plug-In . SVG Version: 6.00 Build 0)  -->
<svg version="1.1" id="Слой_1" xmlns="http://www.w3.org/2000/svg" xmlns:xlink="http://www.w3.org/1999/xlink" x="0px" y="0px"
	 viewBox="0 0 1280 1280" style="enable-background:new 0 0 1280 1280;" xml:space="preserve">
<style type="text/css">
	.st0{fill:#DDEBF8;}
	.st1{fill:#454347;}
	.st2{fill:none;stroke:#454347;}
	.st3{fill:none;stroke:#454347;stroke-miterlimit:10;}
</style>
<rect x="293.7" y="323.8" class="st0" width="672.4" height="520.3"/>
<rect x="291" y="874.8" class="st1" width="91.2" height="9.6"/>
<rect x="291" y="874.8" class="st2" width="91.2" height="9.6"/>
<rect x="355.4" y="874.8" class="st2" width="139.5" height="9.6"/>
<rect x="291" y="845.1" class="st1" width="82.9" height="31.4"/>
<rect x="550.7" y="874.8" class="st1" width="102" height="9.6"/>
<rect x="550.7" y="874.8" class="st2" width="102" height="9.6"/>
<rect x="559.1" y="845.1" class="st1" width="93.6" height="31.4"/>
<rect x="559.1" y="845.1" class="st2" width="93.6" height="31.4"/>
<rect x="355.4" y="845.1" class="st2" width="131.2" height="29.7"/>
<path class="st2" d="M487.3,874c0,0,3.3-13.9,6.8-23.4c3.5-9.5,7.8-14.7,7.8-14.7l62.1,35.8l-1.9,3l-62.4-35.1"/>
<rect x="632" y="874.8" class="st1" width="102" height="9.6"/>
<rect x="632" y="874.8" class="st2" width="102" height="9.6"/>
<rect x="677" y="874.8" class="st2" width="139.5" height="9.6"/>
<rect x="632" y="845.1" class="st1" width="93.6" height="31.4"/>
<rect x="632" y="845.1" class="st2" width="93.6" height="31.4"/>
<rect x="872.3" y="874.8" class="st1" width="102" height="9.6"/>
<rect x="872.3" y="874.8" class="st2" width="102" height="9.6"/>
<rect x="880.7" y="845.1" class="st1" width="93.6" height="31.4"/>
<rect x="880.7" y="845.1" class="st2" width="93.6" height="31.4"/>
<rect x="677" y="845.1" class="st2" width="131.2" height="29.7"/>
<path class="st2" d="M808.9,874c0,0,3.3-13.9,6.8-23.4c3.5-9.5,7.8-14.7,7.8-14.7l62.1,35.8l-1.9,3l-62.4-35.1"/>
<path class="st2" d="M799.6,462c0,0-4.5-0.4-17.1,4c-10.5,3.7-20.3,11.1-20.3,11.1l30,51.7l2.5-1.6l-30-51.8"/>
<path class="st2" d="M683.1,313.3c0,0,0,12.1,5.3,27.2c4.5,12.6,13.4,24.4,13.4,24.4l90.8-52.2l-1.9-3l-91,52.2"/>
<rect x="283.7" y="309.6" class="st1" width="15.3" height="671.7"/>
<rect x="283.7" y="309.6" class="st2" width="15.3" height="671.7"/>
<rect x="284" y="299" class="st1" width="398.9" height="23.8"/>
<rect x="283.7" y="306.4" class="st1" width="344.7" height="16.4"/>
<rect x="283.7" y="306.4" class="st2" width="344.7" height="16.4"/>
<rect x="767.4" y="299" class="st1" width="36.1" height="23.8"/>
<rect x="767.4" y="299" class="st2" width="212.6" height="23.8"/>
<rect x="883.4" y="299" class="st1" width="96.6" height="23.8"/>
<rect x="782.3" y="311.9" class="st1" width="113.1" height="10.9"/>
<rect x="782.3" y="311.9" class="st2" width="113.1" height="10.9"/>
<rect x="620.4" y="299" class="st1" width="18" height="288.3"/>
<rect x="620.4" y="299" class="st2" width="18" height="288.3"/>
<rect x="620.4" y="736" class="st1" width="18" height="128.5"/>
<rect x="620.4" y="736" class="st2" width="18" height="128.5"/>
<rect x="620.4" y="947" class="st1" width="18" height="85"/>
<rect x="620.4" y="947" class="st2" width="18" height="85"/>
<rect x="962.3" y="299" class="st1" width="18" height="733"/>
<rect x="962.3" y="299" class="st2" width="18" height="733"/>
<path class="st2" d="M696.7,524.2c0,0-0.5,5.4,4.8,20.5c4.5,12.6,13.4,24.4,13.4,24.4l62-36l-1.9-3l-62.2,36"/>
<rect x="626" y="524.2" class="st1" width="71.3" height="10.4"/>
<rect x="626" y="524.2" class="st2" width="71.3" height="10.4"/>
<rect x="771.2" y="524.2" class="st1" width="196.7" height="10.4"/>
<rect x="771.2" y="524.2" class="st2" width="196.7" height="10.4"/>
<rect x="789" y="320.3" class="st1" width="10.4" height="143.3"/>
<rect x="789" y="320.3" class="st2" width="10.4" height="143.3"/>
<rect x="633.1" y="1015.8" class="st2" width="337.2" height="9.6"/>
<polygon class="st2" points="624.5,1025.4 624.5,1015.8 294.7,967.4 294.7,977.1 "/>
<rect x="783.9" y="536.7" class="st2" width="81.5" height="27.3"/>
<line class="st2" x1="784.1" y1="541" x2="865.9" y2="541"/>
<polyline class="st2" points="788.2,541 790,560.7 841.5,560.7 843.8,541 847.2,541 849.4,560.9 861,560.9 863.5,541 "/>
<rect x="866.6" y="536.7" class="st2" width="81.5" height="27.3"/>
<line class="st2" x1="866.8" y1="541" x2="948.5" y2="541"/>
<polyline class="st2" points="870.8,541 872.6,560.7 924.2,560.7 926.4,541 929.8,541 932.1,560.9 943.6,560.9 946.1,541 "/>
<g>
	<path class="st1" d="M859.7,442.2c0.4,0.7,1,1.3,1.8,1.6c0.7,0.4,1.5,0.6,2.4,0.6c0.8,0,1.4-0.1,2-0.3c0.6-0.2,1.1-0.5,1.6-0.8
		s0.9-0.7,1.2-1v4.2c-0.6,0.5-1.4,0.9-2.1,1.2c-0.8,0.3-1.7,0.4-2.9,0.4c-1.3,0-2.5-0.2-3.6-0.6c-1.1-0.4-2-1-2.8-1.7
		c-0.8-0.8-1.4-1.6-1.8-2.7s-0.6-2.2-0.6-3.4s0.2-2.4,0.6-3.4s1-1.9,1.8-2.7c0.8-0.8,1.7-1.3,2.8-1.7c1.1-0.4,2.3-0.6,3.6-0.6
		c1.2,0,2.2,0.1,2.9,0.4s1.5,0.7,2.1,1.2v4.2c-0.4-0.4-0.8-0.7-1.2-1s-1-0.6-1.6-0.8c-0.6-0.2-1.3-0.3-2-0.3c-0.9,0-1.7,0.2-2.4,0.6
		c-0.7,0.4-1.3,0.9-1.8,1.6s-0.7,1.6-0.7,2.6C859,440.6,859.3,441.4,859.7,442.2z"/>
	<path class="st1" d="M883.5,431.6l-9.8,19.6h-3.5l10-19.6H883.5z"/>
	<path class="st1" d="M889.1,452.7h-3.5l2.6-5.9l-4.6-9.7h3.8l3.4,8.5l-1.8,0l3.4-8.5h3.6L889.1,452.7z"/>
</g>
<g>
	<path class="st1" d="M862,475.2c-0.8-0.3-1.4-0.7-1.9-1.2s-0.9-1.1-1.2-1.8s-0.4-1.3-0.4-2h3.8c0,0.5,0.1,1,0.3,1.3
		c0.2,0.4,0.5,0.6,0.9,0.8s0.8,0.3,1.2,0.3c0.5,0,0.9-0.1,1.2-0.2c0.3-0.1,0.6-0.4,0.8-0.7c0.2-0.3,0.3-0.7,0.3-1.1
		c0-0.3-0.1-0.6-0.2-0.9c-0.1-0.3-0.3-0.5-0.6-0.7c-0.3-0.2-0.6-0.4-1.1-0.5s-0.9-0.2-1.5-0.2v-2c1.1,0,2,0.1,2.9,0.3
		c0.9,0.2,1.7,0.5,2.3,0.8c0.7,0.4,1.2,0.9,1.5,1.4c0.4,0.6,0.5,1.3,0.5,2.1c0,0.9-0.3,1.8-0.8,2.5s-1.2,1.3-2.2,1.7
		c-0.9,0.4-2.1,0.6-3.4,0.6C863.6,475.7,862.8,475.5,862,475.2z M863.6,465.8c0.4,0,0.8-0.1,1.2-0.2c0.4-0.1,0.7-0.3,0.9-0.5
		s0.5-0.4,0.6-0.7c0.1-0.3,0.2-0.5,0.2-0.8c0-0.3-0.1-0.6-0.2-0.8c-0.1-0.2-0.3-0.4-0.6-0.6s-0.6-0.2-1-0.2c-0.6,0-1.1,0.2-1.5,0.5
		s-0.6,0.8-0.6,1.4h-3.6c0-1,0.2-1.8,0.7-2.6c0.5-0.8,1.1-1.4,2-1.8s1.9-0.7,3-0.7c1.2,0,2.2,0.2,3.1,0.6c0.8,0.4,1.5,0.9,1.9,1.6
		s0.7,1.4,0.7,2.3c0,0.9-0.3,1.7-0.9,2.3c-0.6,0.6-1.4,1.1-2.5,1.4c-1,0.3-2.2,0.5-3.5,0.5V465.8z"/>
	<path class="st1" d="M873.4,472.2c0.4-0.4,0.9-0.6,1.5-0.6c0.6,0,1.2,0.2,1.6,0.6c0.4,0.4,0.6,0.9,0.6,1.5c0,0.6-0.2,1.1-0.6,1.5
		c-0.4,0.4-0.9,0.6-1.6,0.6c-0.6,0-1.1-0.2-1.5-0.6c-0.4-0.4-0.6-0.9-0.6-1.5C872.8,473.2,873,472.7,873.4,472.2z"/>
	<path class="st1" d="M879.4,459.2h13.1l-7.8,16.1h-4.2l6.3-12.5h-7.4V459.2z"/>
</g>
<path class="st1" d="M960.8,642.6h-49.7v-50.3h49.7V642.6z M961.9,591.2H910v52.5h51.9V591.2z"/>
<path class="st2" d="M960.8,642.6h-49.7v-50.3h49.7V642.6z M961.9,591.2H910v52.5h51.9V591.2z"/>
<path class="st1" d="M915.6,599.8c0-1.2,1-2.3,2.2-2.3h26.1c1.2,0,2.2,1,2.2,2.3v35.2c0,1.2-1,2.2-2.2,2.2h-26.1
	c-1.2,0-2.2-1-2.2-2.2V599.8z M947.3,635.1v-35.2c0-1.9-1.5-3.4-3.3-3.4h-26.1c-1.8,0-3.3,1.5-3.3,3.4v35.2c0,1.9,1.5,3.4,3.3,3.4
	h26.1C945.8,638.4,947.3,636.9,947.3,635.1"/>
<path class="st2" d="M915.6,599.8c0-1.2,1-2.3,2.2-2.3h26.1c1.2,0,2.2,1,2.2,2.3v35.2c0,1.2-1,2.2-2.2,2.2h-26.1
	c-1.2,0-2.2-1-2.2-2.2V599.8z M947.3,635.1v-35.2c0-1.9-1.5-3.4-3.3-3.4h-26.1c-1.8,0-3.3,1.5-3.3,3.4v35.2c0,1.9,1.5,3.4,3.3,3.4
	h26.1C945.8,638.4,947.3,636.9,947.3,635.1z"/>
<path class="st1" d="M942.3,633.4h-22.8v-31.9h22.8V633.4z M943.4,600.4h-25v34.1h25V600.4z"/>
<path class="st2" d="M942.3,633.4h-22.8v-31.9h22.8V633.4z M943.4,600.4h-25v34.1h25V600.4z"/>
<path class="st1" d="M926.5,617.5c0-1.6,1.3-2.9,2.9-2.9c1.6,0,2.9,1.3,2.9,2.9c0,1.6-1.3,2.9-2.9,2.9
	C927.8,620.3,926.5,619,926.5,617.5 M933.3,617.5c0-2.2-1.8-4-3.9-4c-2.2,0-3.9,1.8-3.9,4c0,2.2,1.8,4,3.9,4
	C931.5,621.4,933.3,619.7,933.3,617.5"/>
<path class="st2" d="M926.5,617.5c0-1.6,1.3-2.9,2.9-2.9c1.6,0,2.9,1.3,2.9,2.9c0,1.6-1.3,2.9-2.9,2.9
	C927.8,620.3,926.5,619,926.5,617.5z M933.3,617.5c0-2.2-1.8-4-3.9-4c-2.2,0-3.9,1.8-3.9,4c0,2.2,1.8,4,3.9,4
	C931.5,621.4,933.3,619.7,933.3,617.5z"/>
<path class="st1" d="M923.6,412.2c0-9.3,7.6-16.9,16.9-16.9h18c1.4,0,2.6,1.2,2.6,2.6v38.2c0,1.4-1.2,2.6-2.6,2.6h-18
	c-9.3,0-16.9-7.6-16.9-16.9V412.2z M961.9,436.1v-38.2c0-1.9-1.6-3.5-3.5-3.5h-18c-9.9,0-17.9,8-17.9,17.9v9.5
	c0,9.9,8,17.9,17.9,17.9h18C960.4,439.6,961.9,438.1,961.9,436.1"/>
<path class="st2" d="M923.6,412.2c0-9.3,7.6-16.9,16.9-16.9h18c1.4,0,2.6,1.2,2.6,2.6v38.2c0,1.4-1.2,2.6-2.6,2.6h-18
	c-9.3,0-16.9-7.6-16.9-16.9V412.2z M961.9,436.1v-38.2c0-1.9-1.6-3.5-3.5-3.5h-18c-9.9,0-17.9,8-17.9,17.9v9.5
	c0,9.9,8,17.9,17.9,17.9h18C960.4,439.6,961.9,438.1,961.9,436.1z"/>
<path class="st1" d="M927.8,412.2c0-7,5.7-12.7,12.7-12.7H951c1.2,0,2.2,1,2.2,2.2v30.5c0,1.2-1,2.2-2.2,2.2h-10.5
	c-7,0-12.7-5.7-12.7-12.7V412.2z M954.1,432.2v-30.5c0-1.7-1.4-3.2-3.2-3.2h-10.5c-7.5,0-13.6,6.1-13.6,13.6v9.5
	c0,7.5,6.1,13.6,13.6,13.6H951C952.7,435.4,954.1,434,954.1,432.2"/>
<path class="st2" d="M927.8,412.2c0-7,5.7-12.7,12.7-12.7H951c1.2,0,2.2,1,2.2,2.2v30.5c0,1.2-1,2.2-2.2,2.2h-10.5
	c-7,0-12.7-5.7-12.7-12.7V412.2z M954.1,432.2v-30.5c0-1.7-1.4-3.2-3.2-3.2h-10.5c-7.5,0-13.6,6.1-13.6,13.6v9.5
	c0,7.5,6.1,13.6,13.6,13.6H951C952.7,435.4,954.1,434,954.1,432.2z"/>
<path class="st1" d="M936.7,417c0-1.2,1-2.1,2.1-2.1c1.2,0,2.1,0.9,2.1,2.1c0,1.2-0.9,2.1-2.1,2.1
	C937.6,419.1,936.7,418.2,936.7,417 M941.9,417c0-1.7-1.4-3.1-3.1-3.1c-1.7,0-3.1,1.4-3.1,3.1c0,1.7,1.4,3.1,3.1,3.1
	C940.5,420.1,941.9,418.7,941.9,417"/>
<path class="st2" d="M936.7,417c0-1.2,1-2.1,2.1-2.1c1.2,0,2.1,0.9,2.1,2.1c0,1.2-0.9,2.1-2.1,2.1
	C937.6,419.1,936.7,418.2,936.7,417z M941.9,417c0-1.7-1.4-3.1-3.1-3.1c-1.7,0-3.1,1.4-3.1,3.1c0,1.7,1.4,3.1,3.1,3.1
	C940.5,420.1,941.9,418.7,941.9,417z"/>
<rect x="801.4" y="394.1" class="st2" width="39" height="58.6"/>
<line class="st2" x1="839.8" y1="393.8" x2="801.5" y2="452.5"/>
<line class="st2" x1="801.1" y1="393.8" x2="839.3" y2="452.5"/>
<path class="st2" d="M931.2,358c0,1.4-1.1,2.5-2.5,2.5c-1.4,0-2.5-1.1-2.5-2.5c0-1.4,1.1-2.5,2.5-2.5
	C930.1,355.4,931.2,356.6,931.2,358z"/>
<path class="st2" d="M807.1,346.3c0-9.3,7.5-16.8,16.8-16.8h114.8c9.3,0,16.9,7.5,16.9,16.8v23.4c0,9.3-7.5,16.8-16.9,16.8H823.9
	c-9.3,0-16.8-7.5-16.8-16.8V346.3z"/>
<path class="st2" d="M817.4,351.6c0-9.3,7.5-16.8,16.8-16.8h94.2c9.3,0,16.8,7.5,16.8,16.8v12.7c0,9.3-7.5,16.8-16.8,16.8h-94.2
	c-9.3,0-16.8-7.5-16.8-16.8V351.6z"/>
<path class="st2" d="M829.9,348.3c0-4.7,3.8-8.4,8.4-8.4h92.9c4.7,0,8.4,3.8,8.4,8.4v19.3c0,4.7-3.8,8.4-8.4,8.4h-92.9
	c-4.7,0-8.4-3.8-8.4-8.4V348.3z"/>
<polygon class="st2" points="961.4,391.3 961.4,391.3 801.3,391.3 801.3,324.7 961.4,324.7 "/>
<path class="st1" d="M893.5,490c0,10.2,8.3,18.5,18.5,18.5h26.8c1.8,0,3.2-1.4,3.2-3.2v-30.6c0-1.8-1.4-3.2-3.2-3.2H912
	C901.8,471.5,893.5,479.8,893.5,490 M943.3,474.7v30.6c0,2.5-2,4.5-4.5,4.5H912c-10.9,0-19.8-8.9-19.8-19.8
	c0-10.9,8.9-19.8,19.8-19.8h26.8C941.3,470.2,943.3,472.3,943.3,474.7"/>
<path class="st2" d="M893.5,490c0,10.2,8.3,18.5,18.5,18.5h26.8c1.8,0,3.2-1.4,3.2-3.2v-30.6c0-1.8-1.4-3.2-3.2-3.2H912
	C901.8,471.5,893.5,479.8,893.5,490z M943.3,474.7v30.6c0,2.5-2,4.5-4.5,4.5H912c-10.9,0-19.8-8.9-19.8-19.8
	c0-10.9,8.9-19.8,19.8-19.8h26.8C941.3,470.2,943.3,472.3,943.3,474.7z"/>
<path class="st2" d="M933.1,503.3v-26.6c0-0.2-0.2-0.3-0.3-0.3h-20.2c-7.5,0-13.6,6.1-13.6,13.6c0,7.5,6.1,13.6,13.6,13.6h20.2
	C932.9,503.6,933.1,503.5,933.1,503.3z"/>
<path class="st1" d="M932.4,503v-25.9h-19.9c-7.1,0-13,5.8-13,13c0,7.1,5.8,13,13,13H932.4z M933.7,476.8v26.6c0,0.5-0.4,1-1,1
	h-20.2c-7.8,0-14.2-6.4-14.2-14.2c0-7.8,6.4-14.2,14.2-14.2h20.2C933.3,475.8,933.7,476.2,933.7,476.8"/>
<path class="st2" d="M932.4,503v-25.9h-19.9c-7.1,0-13,5.8-13,13c0,7.1,5.8,13,13,13H932.4z M933.7,476.8v26.6c0,0.5-0.4,1-1,1
	h-20.2c-7.8,0-14.2-6.4-14.2-14.2c0-7.8,6.4-14.2,14.2-14.2h20.2C933.3,475.8,933.7,476.2,933.7,476.8z"/>
<path class="st1" d="M912.5,490c0,1.9,1.6,3.5,3.5,3.5c1.9,0,3.5-1.6,3.5-3.5c0-1.9-1.6-3.5-3.5-3.5
	C914.1,486.5,912.5,488.1,912.5,490 M920.8,490c0,2.6-2.1,4.8-4.8,4.8c-2.6,0-4.8-2.1-4.8-4.8c0-2.6,2.1-4.8,4.8-4.8
	C918.6,485.3,920.8,487.4,920.8,490"/>
<path class="st2" d="M912.5,490c0,1.9,1.6,3.5,3.5,3.5c1.9,0,3.5-1.6,3.5-3.5c0-1.9-1.6-3.5-3.5-3.5
	C914.1,486.5,912.5,488.1,912.5,490z M920.8,490c0,2.6-2.1,4.8-4.8,4.8c-2.6,0-4.8-2.1-4.8-4.8c0-2.6,2.1-4.8,4.8-4.8
	C918.6,485.3,920.8,487.4,920.8,490z"/>
<rect x="925.2" y="492.4" transform="matrix(0.5982 -0.8014 0.8014 0.5982 -26.8067 941.9683)" class="st1" width="1.3" height="10.6"/>
<rect x="925.2" y="492.4" transform="matrix(0.5982 -0.8014 0.8014 0.5982 -26.8067 941.9683)" class="st2" width="1.3" height="10.6"/>
<polygon class="st1" points="930.5,479.9 922,486.3 921.2,485.2 929.7,478.9 "/>
<polygon class="st2" points="930.5,479.9 922,486.3 921.2,485.2 929.7,478.9 "/>
<path class="st1" d="M943.3,502.8c0,2.8,2.3,5.1,5.1,5.1h7c2.8,0,5.1-2.3,5.1-5.1v-25.6c0-2.8-2.3-5.1-5.1-5.1h-7
	c-2.8,0-5.1,2.3-5.1,5.1V502.8z M961.9,477.3v25.6c0,3.5-2.9,6.4-6.4,6.4h-7c-3.5,0-6.4-2.9-6.4-6.4v-25.6c0-3.5,2.9-6.4,6.4-6.4h7
	C959,470.9,961.9,473.7,961.9,477.3"/>
<path class="st2" d="M943.3,502.8c0,2.8,2.3,5.1,5.1,5.1h7c2.8,0,5.1-2.3,5.1-5.1v-25.6c0-2.8-2.3-5.1-5.1-5.1h-7
	c-2.8,0-5.1,2.3-5.1,5.1V502.8z M961.9,477.3v25.6c0,3.5-2.9,6.4-6.4,6.4h-7c-3.5,0-6.4-2.9-6.4-6.4v-25.6c0-3.5,2.9-6.4,6.4-6.4h7
	C959,470.9,961.9,473.7,961.9,477.3z"/>
<path class="st1" d="M950,490c0,1.1,0.9,2,2,2s2-0.9,2-2c0-1.1-0.9-2-2-2S950,488.9,950,490 M955.2,490c0,1.8-1.5,3.3-3.3,3.3
	c-1.8,0-3.3-1.5-3.3-3.3c0-1.8,1.5-3.3,3.3-3.3C953.8,486.8,955.2,488.2,955.2,490"/>
<path class="st2" d="M950,490c0,1.1,0.9,2,2,2s2-0.9,2-2c0-1.1-0.9-2-2-2S950,488.9,950,490z M955.2,490c0,1.8-1.5,3.3-3.3,3.3
	c-1.8,0-3.3-1.5-3.3-3.3c0-1.8,1.5-3.3,3.3-3.3C953.8,486.8,955.2,488.2,955.2,490z"/>
<g>
	<path class="st1" d="M746.4,968.5l7.1-7.9l1.1-0.5c-0.6,0.6-1.1,0.9-1.7,1.1c-0.5,0.2-1.2,0.3-2,0.3c-0.8,0-1.6-0.2-2.4-0.5
		s-1.5-0.8-2.2-1.4s-1.2-1.4-1.6-2.2c-0.4-0.9-0.6-1.9-0.6-3c0-1.8,0.4-3.3,1.2-4.5c0.8-1.2,1.9-2.1,3.2-2.7
		c1.3-0.6,2.8-0.9,4.5-0.9c1.6,0,3.1,0.3,4.4,0.9c1.3,0.6,2.4,1.5,3.2,2.7c0.8,1.2,1.2,2.7,1.2,4.5c0,1.2-0.2,2.2-0.7,3.2
		s-1.1,1.9-1.8,2.8l-6.3,8H746.4z M756.2,952.5c-0.3-0.5-0.8-1-1.3-1.3c-0.5-0.3-1.2-0.5-1.9-0.5c-0.7,0-1.3,0.2-1.9,0.5
		s-1,0.7-1.3,1.3c-0.3,0.5-0.5,1.2-0.5,1.9c0,0.7,0.2,1.4,0.5,1.9c0.3,0.6,0.8,1,1.3,1.3c0.5,0.3,1.2,0.5,1.9,0.5
		c0.7,0,1.3-0.2,1.9-0.5c0.5-0.3,1-0.7,1.3-1.3c0.3-0.6,0.5-1.2,0.5-1.9C756.6,953.7,756.5,953.1,756.2,952.5z"/>
	<path class="st1" d="M764.2,964.5c0.6-0.6,1.3-0.8,2.1-0.8c0.9,0,1.6,0.3,2.1,0.8s0.8,1.2,0.8,2c0,0.8-0.3,1.5-0.8,2
		c-0.5,0.6-1.2,0.8-2.1,0.8c-0.8,0-1.5-0.3-2.1-0.8c-0.6-0.6-0.8-1.2-0.8-2C763.3,965.7,763.6,965,764.2,964.5z"/>
	<path class="st1" d="M784.3,946.8h3.9v21.8h-5.5v-5.5l0.6-0.3v-8.3l-4.7,6.5h8l0.5-0.7h4.4v4.5h-20L784.3,946.8z"/>
	<path class="st1" d="M812.5,944.3c-1.1,2.3-1.9,4.8-2.5,7.4c-0.6,2.6-0.9,5.2-0.9,7.9c0,2.6,0.3,5.2,0.9,7.8
		c0.6,2.6,1.4,5.1,2.5,7.4h-4.3c-1.2-2.3-2.2-4.8-2.8-7.4c-0.6-2.6-0.9-5.2-0.9-7.8c0-2.7,0.3-5.3,0.9-7.9c0.6-2.6,1.6-5,2.8-7.4
		H812.5z"/>
	<path class="st1" d="M826,946.8h3.9v21.8h-5.5v-5.5l0.6-0.3v-8.3l-4.7,6.5h8l0.5-0.7h4.4v4.5h-20L826,946.8z"/>
	<path class="st1" d="M837.5,964.5c0.6-0.6,1.3-0.8,2.1-0.8c0.9,0,1.6,0.3,2.1,0.8s0.8,1.2,0.8,2c0,0.8-0.3,1.5-0.8,2
		c-0.5,0.6-1.2,0.8-2.1,0.8c-0.8,0-1.5-0.3-2.1-0.8c-0.6-0.6-0.8-1.2-0.8-2C836.7,965.7,837,965,837.5,964.5z"/>
	<path class="st1" d="M845.6,946.8h17.8l-10.5,21.8h-5.7l8.5-16.9h-10V946.8z"/>
	<path class="st1" d="M863.8,974.8c1.1-2.3,1.9-4.8,2.5-7.4c0.6-2.6,0.9-5.2,0.9-7.8c0-2.7-0.3-5.3-0.9-7.9c-0.6-2.6-1.4-5-2.5-7.4
		h4.3c1.2,2.3,2.2,4.8,2.8,7.4s0.9,5.2,0.9,7.9c0,2.6-0.3,5.2-0.9,7.8s-1.6,5.1-2.8,7.4H863.8z"/>
</g>
<g>
	<path class="st1" d="M718.7,696.2v21.8h-5.4v-21.8H718.7z M732.3,696.2l-8.8,10.2l9.3,11.6h-6.4l-9.2-11.4l8.9-10.4H732.3z"/>
	<path class="st1" d="M738.3,724.8h-4.7l3.5-8l-6.2-13.2h5.2l4.6,11.5l-2.4,0l4.6-11.4h4.8L738.3,724.8z"/>
	<path class="st1" d="M764.5,703.6l-5.5,7l5.8,7.3h-5.2l-3-4.2l-2.9,4.2h-5.4l5.9-7.3l-5.6-7h5.4l2.6,3.8l2.7-3.8H764.5z"/>
	<path class="st1" d="M771.2,703.6v14.3h-4.5v-14.3H771.2z M768.1,708.6h11.6v3.5h-11.6V708.6z M782.1,703.6v14.3h-4.5v-14.3H782.1z
		"/>
	<path class="st1" d="M785.2,717.9l4.3-6.5h4.4l-3.9,6.5H785.2z M796.6,712.8h-4.4c-1,0-1.9-0.2-2.8-0.5c-0.9-0.3-1.6-0.8-2.2-1.5
		c-0.5-0.7-0.8-1.6-0.8-2.7c0-1.1,0.3-2,0.8-2.6c0.5-0.6,1.3-1.1,2.2-1.4s1.8-0.5,2.8-0.5h4.4v3.7h-3.8c-0.4,0-0.7,0-1,0.1
		c-0.3,0.1-0.5,0.2-0.6,0.4c-0.1,0.2-0.2,0.4-0.2,0.7c0,0.3,0.1,0.5,0.2,0.7c0.1,0.2,0.4,0.3,0.6,0.4c0.3,0.1,0.6,0.1,1,0.1h3.8
		V712.8z M795,717.9v-14.3h4.7v14.3H795z"/>
	<path class="st1" d="M801.1,708.5h6.6v4.1h-6.6V708.5z"/>
	<path class="st1" d="M814.2,703.6v14.3h-4.5v-14.3H814.2z M811.1,708.6h11.6v3.5h-11.6V708.6z M825.1,703.6v14.3h-4.5v-14.3H825.1z
		"/>
	<path class="st1" d="M828.9,719l0.2-5.1l14.4-11.4l-0.2,5.1L828.9,719z M833.4,714.6l-4.5,4.4v-15.4h4.5V714.6z M843.4,717.9h-4.5
		v-11l4.5-4.4V717.9z"/>
	<path class="st1" d="M865,714v-10.4h4.5v14.3h-22.3v-14.3h4.5V714h4.4v-10.4h4.5V714H865z"/>
	<path class="st1" d="M877.2,714.5c0.2,0.2,0.4,0.4,0.7,0.5c0.3,0.1,0.7,0.2,1,0.2c0.6,0,1.1-0.1,1.6-0.3s0.9-0.5,1.2-0.9
		c0.3-0.4,0.4-1,0.4-1.8l0.5,1.7c0,0.9-0.2,1.7-0.7,2.3c-0.5,0.7-1.1,1.2-1.9,1.5c-0.8,0.3-1.7,0.5-2.7,0.5s-1.9-0.2-2.7-0.5
		s-1.4-0.8-1.9-1.5c-0.4-0.7-0.7-1.4-0.7-2.4c0-1,0.3-1.8,0.8-2.5c0.5-0.7,1.2-1.2,2.2-1.6s2-0.6,3.3-0.6c0.7,0,1.4,0.1,2.1,0.2
		c0.7,0.2,1.2,0.4,1.7,0.6c0.5,0.2,0.8,0.5,1,0.7v2.2c-0.5-0.4-1.1-0.7-1.7-0.9c-0.6-0.2-1.3-0.3-2.1-0.3c-0.5,0-1,0.1-1.4,0.2
		c-0.4,0.2-0.7,0.4-0.9,0.6c-0.2,0.3-0.3,0.6-0.3,1C876.9,714,877,714.3,877.2,714.5z M873.5,704.9c0.8-0.4,1.8-0.8,2.9-1.1
		c1.1-0.4,2.3-0.5,3.6-0.5c1.3,0,2.4,0.2,3.4,0.5c1,0.4,1.8,0.9,2.4,1.6c0.6,0.7,0.9,1.5,0.9,2.5v10.1h-4.5v-9.1
		c0-0.6-0.2-1.1-0.7-1.4c-0.4-0.4-1.1-0.5-1.9-0.5c-0.7,0-1.3,0.1-1.9,0.2c-0.6,0.1-1.1,0.3-1.6,0.5s-0.8,0.4-1,0.5L873.5,704.9z"/>
</g>
<g>
	<path class="st1" d="M769.2,735.2l10.5-2.1v22.2h-5.1v-16.8l-5.4,1.3V735.2z"/>
	<path class="st1" d="M785.3,738.3c0.8-1.7,1.8-3,3.2-3.9c1.4-0.9,2.9-1.4,4.7-1.4c1.8,0,3.4,0.5,4.8,1.4c1.4,0.9,2.4,2.2,3.1,3.9
		c0.7,1.7,1.1,3.7,1.1,6.1c0,2.4-0.4,4.4-1.1,6.1c-0.7,1.7-1.8,3-3.1,3.9c-1.4,0.9-3,1.4-4.8,1.4c-1.8,0-3.4-0.5-4.7-1.4
		c-1.4-0.9-2.4-2.2-3.2-3.9c-0.8-1.7-1.1-3.7-1.1-6.1C784.1,742,784.5,740,785.3,738.3z M789.5,747.1c0.2,0.8,0.5,1.6,0.8,2.1
		s0.8,1,1.3,1.4c0.5,0.3,1,0.5,1.6,0.5c0.6,0,1.1-0.2,1.6-0.5c0.5-0.3,0.9-0.8,1.3-1.4c0.4-0.6,0.6-1.3,0.8-2.1
		c0.2-0.8,0.3-1.8,0.3-2.8c0-1-0.1-1.9-0.3-2.8c-0.2-0.8-0.5-1.6-0.8-2.1c-0.4-0.6-0.8-1-1.3-1.4c-0.5-0.3-1-0.5-1.6-0.5
		c-0.6,0-1.1,0.2-1.6,0.5c-0.5,0.3-0.9,0.8-1.3,1.4s-0.6,1.3-0.8,2.1s-0.3,1.8-0.3,2.8C789.2,745.4,789.3,746.3,789.5,747.1z"/>
	<path class="st1" d="M806.4,751.1c0.6-0.6,1.3-0.8,2.1-0.8c0.9,0,1.6,0.3,2.1,0.8s0.8,1.2,0.8,2c0,0.8-0.3,1.5-0.8,2
		c-0.5,0.6-1.2,0.8-2.1,0.8c-0.8,0-1.5-0.3-2.1-0.8c-0.6-0.6-0.8-1.2-0.8-2C805.6,752.3,805.8,751.7,806.4,751.1z"/>
	<path class="st1" d="M814.4,733.5h17.8l-10.5,21.8H816l8.5-16.9h-10V733.5z"/>
</g>
<g>
	<path class="st1" d="M356.8,650.6l-9.5,11.5h-6.2l9.5-11.6l-9-10.2h6.2L356.8,650.6z M360.9,640.3v21.8h-5.4v-21.8H360.9z
		 M374.5,640.3l-9.1,10.2l9.5,11.6h-6.4l-9.1-11.5l8.6-10.3H374.5z"/>
	<path class="st1" d="M376.9,663.2l0.2-5.1l14.4-11.4l-0.2,5.1L376.9,663.2z M381.4,658.8l-4.5,4.4v-15.4h4.5V658.8z M391.5,662.1
		H387v-11l4.5-4.4V662.1z"/>
	<path class="st1" d="M410.3,662.1h-4.5v-10h-5.3v5.1c0,1.1-0.2,2-0.6,2.8c-0.4,0.7-1.1,1.3-2.1,1.6c-1,0.4-2.3,0.5-4.1,0.5v-4.2
		c0.6,0,1.2-0.1,1.6-0.4c0.4-0.2,0.7-0.8,0.7-1.6v-8.2h14.3V662.1z"/>
	<path class="st1" d="M418.5,658.6c0.2,0.2,0.4,0.4,0.7,0.5c0.3,0.1,0.7,0.2,1,0.2c0.6,0,1.1-0.1,1.6-0.3c0.5-0.2,0.9-0.5,1.2-0.9
		c0.3-0.4,0.4-1,0.4-1.8l0.5,1.7c0,0.9-0.2,1.7-0.7,2.3c-0.5,0.7-1.1,1.2-1.9,1.5c-0.8,0.3-1.7,0.5-2.7,0.5s-1.9-0.2-2.7-0.5
		c-0.8-0.3-1.4-0.8-1.9-1.5s-0.7-1.4-0.7-2.4c0-1,0.3-1.8,0.8-2.5c0.5-0.7,1.2-1.2,2.2-1.6s2-0.6,3.3-0.6c0.7,0,1.4,0.1,2.1,0.2
		c0.7,0.2,1.2,0.4,1.7,0.6c0.5,0.2,0.8,0.5,1,0.7v2.2c-0.5-0.4-1.1-0.7-1.7-0.9s-1.3-0.3-2.1-0.3c-0.5,0-1,0.1-1.4,0.2
		c-0.4,0.2-0.7,0.4-0.9,0.6c-0.2,0.3-0.3,0.6-0.3,1C418.2,658.1,418.3,658.4,418.5,658.6z M414.8,649c0.8-0.4,1.8-0.8,2.9-1.1
		c1.1-0.4,2.3-0.5,3.6-0.5s2.4,0.2,3.4,0.5c1,0.4,1.8,0.9,2.4,1.6c0.6,0.7,0.9,1.5,0.9,2.5v10.1h-4.5v-9.1c0-0.6-0.2-1.1-0.7-1.4
		c-0.4-0.4-1.1-0.5-1.9-0.5c-0.7,0-1.3,0.1-1.9,0.2c-0.6,0.1-1.1,0.3-1.6,0.5s-0.8,0.4-1,0.5L414.8,649z"/>
	<path class="st1" d="M431,662.1l4.3-6.5h4.4l-3.9,6.5H431z M442.3,656.9h-4.4c-1,0-1.9-0.2-2.8-0.5c-0.9-0.3-1.6-0.8-2.2-1.5
		c-0.5-0.7-0.8-1.6-0.8-2.7c0-1.1,0.3-2,0.8-2.6s1.3-1.1,2.2-1.4s1.8-0.5,2.8-0.5h4.4v3.7h-3.8c-0.4,0-0.7,0-1,0.1
		c-0.3,0.1-0.5,0.2-0.6,0.4c-0.1,0.2-0.2,0.4-0.2,0.7c0,0.3,0.1,0.5,0.2,0.7c0.1,0.2,0.4,0.3,0.6,0.4c0.3,0.1,0.6,0.1,1,0.1h3.8
		V656.9z M440.7,662.1v-14.3h4.7v14.3H440.7z"/>
	<path class="st1" d="M462.3,647.8v14.3h-4.5v-14.3H462.3z M473.1,647.8l-6.1,5.9l6.7,8.4h-5.5l-6.8-8.4l6.1-5.9H473.1z"/>
	<path class="st1" d="M475.5,651c0.7-1.1,1.7-2,2.9-2.6c1.2-0.6,2.6-0.9,4.2-0.9s2.9,0.3,4.2,0.9c1.2,0.6,2.2,1.5,2.9,2.6
		c0.7,1.1,1.1,2.4,1.1,4c0,1.5-0.4,2.8-1.1,3.9c-0.7,1.1-1.7,2-2.9,2.6c-1.2,0.6-2.6,0.9-4.2,0.9s-3-0.3-4.2-0.9
		c-1.2-0.6-2.2-1.5-2.9-2.6c-0.7-1.1-1.1-2.4-1.1-3.9C474.4,653.4,474.8,652.1,475.5,651z M479.7,656.8c0.3,0.5,0.7,0.9,1.2,1.2
		s1.1,0.4,1.7,0.4c0.6,0,1.2-0.1,1.7-0.4c0.5-0.3,0.9-0.7,1.2-1.2c0.3-0.5,0.5-1.2,0.5-1.9s-0.2-1.4-0.5-1.9c-0.3-0.5-0.7-1-1.2-1.2
		c-0.5-0.3-1.1-0.4-1.7-0.4c-0.6,0-1.2,0.1-1.7,0.4c-0.5,0.3-0.9,0.7-1.2,1.2c-0.3,0.5-0.5,1.2-0.5,1.9S479.4,656.3,479.7,656.8z"/>
	<path class="st1" d="M496.2,646.7l2.4,5.6l-2,9.8h-4.7L496.2,646.7z M495.9,653l0.3-6.3l6.6,11.3l-0.9,5L495.9,653z M507.7,646.7
		l0.3,6.3l-6.1,10l-0.9-5L507.7,646.7z M505.4,652.3l2.4-5.6l4.3,15.4h-4.7L505.4,652.3z"/>
	<path class="st1" d="M518.6,647.8v14.3H514v-14.3H518.6z M515.5,652.8h11.6v3.5h-11.6V652.8z M529.5,647.8v14.3H525v-14.3H529.5z"
		/>
	<path class="st1" d="M537.1,658.6c0.2,0.2,0.4,0.4,0.7,0.5c0.3,0.1,0.7,0.2,1,0.2c0.6,0,1.1-0.1,1.6-0.3c0.5-0.2,0.9-0.5,1.2-0.9
		c0.3-0.4,0.4-1,0.4-1.8l0.5,1.7c0,0.9-0.2,1.7-0.7,2.3c-0.5,0.7-1.1,1.2-1.9,1.5c-0.8,0.3-1.7,0.5-2.7,0.5s-1.9-0.2-2.7-0.5
		c-0.8-0.3-1.4-0.8-1.9-1.5s-0.7-1.4-0.7-2.4c0-1,0.3-1.8,0.8-2.5c0.5-0.7,1.2-1.2,2.2-1.6s2-0.6,3.3-0.6c0.7,0,1.4,0.1,2.1,0.2
		c0.7,0.2,1.2,0.4,1.7,0.6c0.5,0.2,0.8,0.5,1,0.7v2.2c-0.5-0.4-1.1-0.7-1.7-0.9s-1.3-0.3-2.1-0.3c-0.5,0-1,0.1-1.4,0.2
		c-0.4,0.2-0.7,0.4-0.9,0.6c-0.2,0.3-0.3,0.6-0.3,1C536.8,658.1,536.9,658.4,537.1,658.6z M533.4,649c0.8-0.4,1.8-0.8,2.9-1.1
		c1.1-0.4,2.3-0.5,3.6-0.5s2.4,0.2,3.4,0.5c1,0.4,1.8,0.9,2.4,1.6c0.6,0.7,0.9,1.5,0.9,2.5v10.1h-4.5v-9.1c0-0.6-0.2-1.1-0.7-1.4
		c-0.4-0.4-1.1-0.5-1.9-0.5c-0.7,0-1.3,0.1-1.9,0.2c-0.6,0.1-1.1,0.3-1.6,0.5s-0.8,0.4-1,0.5L533.4,649z"/>
	<path class="st1" d="M558.4,647.8v3.9h-10v-3.9H558.4z M555.7,648.4v13.7h-4.5v-13.7H555.7z"/>
	<path class="st1" d="M564.4,658.6c0.2,0.2,0.4,0.4,0.7,0.5c0.3,0.1,0.7,0.2,1,0.2c0.6,0,1.1-0.1,1.6-0.3c0.5-0.2,0.9-0.5,1.2-0.9
		c0.3-0.4,0.4-1,0.4-1.8l0.5,1.7c0,0.9-0.2,1.7-0.7,2.3c-0.5,0.7-1.1,1.2-1.9,1.5c-0.8,0.3-1.7,0.5-2.7,0.5s-1.9-0.2-2.7-0.5
		c-0.8-0.3-1.4-0.8-1.9-1.5s-0.7-1.4-0.7-2.4c0-1,0.3-1.8,0.8-2.5c0.5-0.7,1.2-1.2,2.2-1.6s2-0.6,3.3-0.6c0.7,0,1.4,0.1,2.1,0.2
		c0.7,0.2,1.2,0.4,1.7,0.6c0.5,0.2,0.8,0.5,1,0.7v2.2c-0.5-0.4-1.1-0.7-1.7-0.9s-1.3-0.3-2.1-0.3c-0.5,0-1,0.1-1.4,0.2
		c-0.4,0.2-0.7,0.4-0.9,0.6c-0.2,0.3-0.3,0.6-0.3,1C564.1,658.1,564.2,658.4,564.4,658.6z M560.7,649c0.8-0.4,1.8-0.8,2.9-1.1
		c1.1-0.4,2.3-0.5,3.6-0.5s2.4,0.2,3.4,0.5c1,0.4,1.8,0.9,2.4,1.6c0.6,0.7,0.9,1.5,0.9,2.5v10.1h-4.5v-9.1c0-0.6-0.2-1.1-0.7-1.4
		c-0.4-0.4-1.1-0.5-1.9-0.5c-0.7,0-1.3,0.1-1.9,0.2c-0.6,0.1-1.1,0.3-1.6,0.5s-0.8,0.4-1,0.5L560.7,649z"/>
</g>
<g>
	<path class="st1" d="M427.9,679.3l10.5-2.1v22.2h-5.1v-16.8l-5.4,1.3V679.3z"/>
	<path class="st1" d="M445.5,699.3l7.1-7.9l1.1-0.5c-0.6,0.6-1.1,0.9-1.7,1.1s-1.2,0.3-2,0.3c-0.8,0-1.6-0.2-2.4-0.5
		c-0.8-0.3-1.5-0.8-2.2-1.4c-0.6-0.6-1.2-1.4-1.6-2.2c-0.4-0.9-0.6-1.9-0.6-3c0-1.8,0.4-3.3,1.2-4.5c0.8-1.2,1.9-2.1,3.2-2.7
		c1.3-0.6,2.8-0.9,4.5-0.9c1.6,0,3.1,0.3,4.4,0.9c1.3,0.6,2.4,1.5,3.2,2.7c0.8,1.2,1.2,2.7,1.2,4.5c0,1.2-0.2,2.2-0.7,3.2
		c-0.5,1-1.1,1.9-1.8,2.8l-6.3,8H445.5z M455.2,683.3c-0.3-0.5-0.8-1-1.3-1.3c-0.5-0.3-1.2-0.5-1.9-0.5c-0.7,0-1.3,0.2-1.9,0.5
		c-0.5,0.3-1,0.7-1.3,1.3c-0.3,0.5-0.5,1.2-0.5,1.9c0,0.7,0.2,1.4,0.5,1.9c0.3,0.6,0.8,1,1.3,1.3c0.5,0.3,1.2,0.5,1.9,0.5
		c0.7,0,1.3-0.2,1.9-0.5c0.5-0.3,1-0.7,1.3-1.3c0.3-0.6,0.5-1.2,0.5-1.9C455.7,684.5,455.6,683.9,455.2,683.3z"/>
	<path class="st1" d="M463.2,695.2c0.6-0.6,1.3-0.8,2.1-0.8c0.9,0,1.6,0.3,2.1,0.8s0.8,1.2,0.8,2c0,0.8-0.3,1.5-0.8,2
		c-0.5,0.6-1.2,0.8-2.1,0.8c-0.8,0-1.5-0.3-2.1-0.8c-0.6-0.6-0.8-1.2-0.8-2C462.4,696.5,462.7,695.8,463.2,695.2z"/>
	<path class="st1" d="M472.7,682.4c0.8-1.7,1.8-3,3.2-3.9c1.4-0.9,2.9-1.4,4.7-1.4c1.8,0,3.4,0.5,4.8,1.4c1.4,0.9,2.4,2.2,3.1,3.9
		c0.7,1.7,1.1,3.7,1.1,6.1c0,2.4-0.4,4.4-1.1,6.1c-0.7,1.7-1.8,3-3.1,3.9c-1.4,0.9-3,1.4-4.8,1.4c-1.8,0-3.4-0.5-4.7-1.4
		c-1.4-0.9-2.4-2.2-3.2-3.9c-0.8-1.7-1.1-3.7-1.1-6.1C471.6,686.1,472,684.1,472.7,682.4z M476.9,691.3c0.2,0.8,0.5,1.6,0.8,2.1
		c0.4,0.6,0.8,1,1.3,1.4c0.5,0.3,1,0.5,1.6,0.5c0.6,0,1.1-0.2,1.6-0.5c0.5-0.3,0.9-0.8,1.3-1.4s0.6-1.3,0.8-2.1s0.3-1.8,0.3-2.8
		c0-1-0.1-1.9-0.3-2.8s-0.5-1.6-0.8-2.1s-0.8-1-1.3-1.4s-1-0.5-1.6-0.5c-0.6,0-1.1,0.2-1.6,0.5s-0.9,0.8-1.3,1.4
		c-0.4,0.6-0.6,1.3-0.8,2.1c-0.2,0.8-0.3,1.8-0.3,2.8C476.7,689.5,476.7,690.4,476.9,691.3z"/>
</g>
<g>
	<path class="st1" d="M414.6,572h8.3v46h-11.6v-11.6l1.2-0.7v-17.6l-9.9,13.7h16.9l1.1-1.4h9.4v9.5h-42.2L414.6,572z"/>
	<path class="st1" d="M437.3,575.6l22.1-4.5V618h-10.7v-35.5l-11.4,2.8V575.6z"/>
	<path class="st1" d="M472.4,609.3c1.2-1.2,2.6-1.8,4.4-1.8c1.8,0,3.3,0.6,4.5,1.8c1.1,1.2,1.7,2.6,1.7,4.3c0,1.7-0.6,3.1-1.7,4.3
		c-1.1,1.2-2.6,1.8-4.5,1.8c-1.8,0-3.2-0.6-4.4-1.8c-1.2-1.2-1.8-2.6-1.8-4.3C470.7,611.9,471.2,610.4,472.4,609.3z"/>
	<path class="st1" d="M525.5,610.3c-1.1,2-2.5,3.6-4.3,4.9c-1.8,1.3-3.8,2.2-6,2.8c-2.2,0.6-4.4,0.9-6.6,0.9c-2.8,0-5.3-0.3-7.6-0.8
		c-2.3-0.5-4.3-1.3-6-2.2c-1.8-0.9-3.3-1.9-4.8-3l4.3-9.1c1.3,1.1,2.6,1.9,3.9,2.7c1.3,0.7,2.7,1.3,4,1.7c1.4,0.4,2.6,0.6,3.7,0.6
		c1.9,0,3.5-0.2,4.8-0.7c1.3-0.5,2.3-1.2,3-2.2c0.7-1,1.1-2.2,1.1-3.7c0-1.5-0.4-2.8-1.3-3.7c-0.9-0.9-1.9-1.6-3.3-2.1
		c-1.3-0.4-2.8-0.7-4.3-0.7c-1.2,0-2.5,0.1-3.9,0.2c-1.4,0.2-2.9,0.4-4.4,0.9c-1.5,0.4-3.1,1-4.6,1.8l6.4-26.5h26.5v9.6h-18.4
		l-2.6,8.2c1.2-0.6,2.5-1,3.8-1.2c1.3-0.2,2.7-0.4,4.2-0.4c2.5,0,4.7,0.6,6.9,1.8c2.1,1.2,3.8,2.9,5.2,5.1c1.3,2.2,2,4.9,2,8.1
		C527.1,606,526.6,608.3,525.5,610.3z"/>
</g>
<ellipse transform="matrix(0.9732 -0.2298 0.2298 0.9732 -100.8661 118.4869)" class="st2" cx="458.4" cy="492.4" rx="53.8" ry="53.8"/>
<g>
	<path class="st1" d="M426.8,475.3l19.7-4v41.9H437v-31.8l-10.2,2.5V475.3z"/>
	<path class="st1" d="M467.3,499.1c1.1,1.8,2.6,3.2,4.5,4.1c1.9,0.9,3.9,1.4,6.1,1.4c2,0,3.7-0.3,5.2-0.8c1.5-0.5,2.8-1.2,4-2
		c1.2-0.8,2.2-1.7,3.1-2.6V510c-1.6,1.3-3.4,2.3-5.4,3.1c-2,0.7-4.4,1.1-7.5,1.1c-3.3,0-6.3-0.5-9.1-1.5c-2.8-1-5.2-2.5-7.2-4.4
		c-2-1.9-3.5-4.2-4.6-6.8c-1.1-2.6-1.6-5.5-1.6-8.8c0-3.2,0.5-6.1,1.6-8.8c1.1-2.6,2.6-4.9,4.6-6.8c2-1.9,4.4-3.4,7.2-4.4
		c2.8-1,5.8-1.5,9.1-1.5c3,0,5.5,0.4,7.5,1.1c2,0.7,3.8,1.8,5.4,3.1V486c-0.9-0.9-1.9-1.8-3.1-2.7c-1.2-0.8-2.5-1.5-4-2
		c-1.5-0.5-3.2-0.7-5.2-0.7c-2.2,0-4.3,0.5-6.1,1.4c-1.9,0.9-3.4,2.3-4.5,4.1c-1.1,1.8-1.7,4-1.7,6.5
		C465.5,495.1,466.1,497.3,467.3,499.1z"/>
</g>
<g>
	<path class="st1" d="M661,420.3v12.6h-4v-16.1h14.1v16.1h-4v-12.6H661z"/>
	<path class="st1" d="M674.2,438v-15.7h3.5V438H674.2z M685.7,430.7c-0.5,0.8-1.1,1.5-1.9,1.9s-1.6,0.6-2.5,0.6
		c-0.9,0-1.7-0.2-2.4-0.7s-1.2-1.1-1.5-2c-0.4-0.9-0.5-1.8-0.5-3c0-1.2,0.2-2.1,0.5-3c0.4-0.8,0.9-1.5,1.5-2s1.5-0.7,2.4-0.7
		c0.9,0,1.7,0.2,2.5,0.6s1.4,1.1,1.9,1.9s0.7,1.9,0.7,3.1C686.4,428.9,686.1,429.9,685.7,430.7z M682.4,426.2
		c-0.2-0.4-0.5-0.7-0.9-0.9c-0.4-0.2-0.8-0.3-1.3-0.3c-0.4,0-0.8,0.1-1.2,0.3c-0.4,0.2-0.7,0.5-0.9,0.9c-0.2,0.4-0.4,0.9-0.4,1.4
		c0,0.6,0.1,1,0.4,1.4c0.2,0.4,0.6,0.7,0.9,0.9c0.4,0.2,0.8,0.3,1.2,0.3c0.5,0,0.9-0.1,1.3-0.3c0.4-0.2,0.7-0.5,0.9-0.9
		c0.2-0.4,0.3-0.9,0.3-1.4S682.6,426.6,682.4,426.2z"/>
	<path class="st1" d="M688.5,433.7l0.1-3.8l10.7-8.4l-0.1,3.8L688.5,433.7z M691.9,430.5l-3.4,3.2v-11.4h3.4V430.5z M699.3,432.9
		H696v-8.2l3.3-3.2V432.9z"/>
	<path class="st1" d="M712.8,422.3l-4.1,5.2l4.3,5.4h-3.9l-2.2-3.1l-2.2,3.1h-4l4.4-5.4l-4.1-5.2h4l1.9,2.8l2-2.8H712.8z"/>
	<path class="st1" d="M714.2,424.7c0.5-0.8,1.2-1.5,2.2-1.9s2-0.7,3.1-0.7s2.2,0.2,3.1,0.7c0.9,0.5,1.6,1.1,2.2,1.9
		c0.5,0.8,0.8,1.8,0.8,2.9c0,1.1-0.3,2.1-0.8,2.9c-0.5,0.8-1.3,1.5-2.2,1.9c-0.9,0.5-1.9,0.7-3.1,0.7s-2.2-0.2-3.1-0.7
		s-1.6-1.1-2.2-1.9c-0.5-0.8-0.8-1.8-0.8-2.9C713.4,426.5,713.7,425.5,714.2,424.7z M717.3,429.1c0.2,0.4,0.5,0.7,0.9,0.9
		c0.4,0.2,0.8,0.3,1.2,0.3c0.4,0,0.9-0.1,1.2-0.3c0.4-0.2,0.7-0.5,0.9-0.9c0.2-0.4,0.3-0.9,0.3-1.4s-0.1-1-0.3-1.4
		c-0.2-0.4-0.5-0.7-0.9-0.9c-0.4-0.2-0.8-0.3-1.2-0.3c-0.5,0-0.9,0.1-1.2,0.3s-0.7,0.5-0.9,0.9c-0.2,0.4-0.3,0.9-0.3,1.4
		S717.1,428.7,717.3,429.1z"/>
	<path class="st1" d="M735,426.7l-5.1,6.2h-4l5-6.1l-4.6-4.5h4L735,426.7z M737.7,432.9h-3.3v-10.6h3.3V432.9z M745.7,422.3
		l-4.6,4.5l5,6.1h-4l-5.1-6.2l4.6-4.4H745.7z"/>
	<path class="st1" d="M750.4,430.4c0.1,0.2,0.3,0.3,0.6,0.4c0.2,0.1,0.5,0.1,0.8,0.1c0.4,0,0.8-0.1,1.2-0.2c0.4-0.1,0.6-0.4,0.9-0.7
		c0.2-0.3,0.3-0.8,0.3-1.3l0.4,1.3c0,0.7-0.2,1.3-0.5,1.7c-0.3,0.5-0.8,0.9-1.4,1.1c-0.6,0.3-1.3,0.4-2,0.4c-0.7,0-1.4-0.1-2-0.4
		c-0.6-0.3-1-0.6-1.4-1.1c-0.3-0.5-0.5-1.1-0.5-1.8c0-0.7,0.2-1.3,0.6-1.8c0.4-0.5,0.9-0.9,1.6-1.2c0.7-0.3,1.5-0.4,2.4-0.4
		c0.5,0,1,0.1,1.5,0.2c0.5,0.1,0.9,0.3,1.3,0.4c0.4,0.2,0.6,0.3,0.8,0.5v1.6c-0.4-0.3-0.8-0.5-1.2-0.7c-0.4-0.1-0.9-0.2-1.5-0.2
		c-0.4,0-0.7,0.1-1,0.2s-0.5,0.3-0.6,0.5c-0.1,0.2-0.2,0.4-0.2,0.7C750.2,430,750.3,430.2,750.4,430.4z M747.7,423.3
		c0.6-0.3,1.3-0.6,2.2-0.8s1.7-0.4,2.7-0.4s1.8,0.1,2.5,0.4c0.7,0.3,1.3,0.7,1.8,1.2c0.4,0.5,0.6,1.1,0.6,1.9v7.5h-3.3v-6.8
		c0-0.4-0.2-0.8-0.5-1.1s-0.8-0.4-1.4-0.4c-0.5,0-1,0.1-1.4,0.2c-0.5,0.1-0.8,0.2-1.2,0.4s-0.6,0.3-0.8,0.4L747.7,423.3z"/>
	<path class="st1" d="M759.7,432.9l3.2-4.8h3.3l-2.9,4.8H759.7z M768,429.1h-3.3c-0.7,0-1.4-0.1-2.1-0.4s-1.2-0.6-1.6-1.1
		c-0.4-0.5-0.6-1.2-0.6-2c0-0.8,0.2-1.5,0.6-1.9c0.4-0.5,0.9-0.8,1.6-1s1.4-0.3,2.1-0.3h3.3v2.8h-2.8c-0.3,0-0.5,0-0.7,0.1
		c-0.2,0.1-0.4,0.1-0.5,0.3c-0.1,0.1-0.2,0.3-0.2,0.5c0,0.2,0.1,0.4,0.2,0.5c0.1,0.1,0.3,0.2,0.5,0.3c0.2,0.1,0.5,0.1,0.7,0.1h2.8
		V429.1z M766.8,432.9v-10.6h3.5v10.6H766.8z"/>
</g>
<g>
	<path class="st1" d="M699.2,460.5c-0.8-0.3-1.4-0.7-1.9-1.2s-0.9-1.1-1.2-1.8s-0.4-1.3-0.4-2h3.8c0,0.5,0.1,1,0.3,1.3
		c0.2,0.4,0.5,0.6,0.9,0.8s0.8,0.3,1.2,0.3c0.5,0,0.9-0.1,1.2-0.2c0.3-0.1,0.6-0.4,0.8-0.7c0.2-0.3,0.3-0.7,0.3-1.1
		c0-0.3-0.1-0.6-0.2-0.9c-0.1-0.3-0.3-0.5-0.6-0.7c-0.3-0.2-0.6-0.4-1.1-0.5s-0.9-0.2-1.5-0.2v-2c1.1,0,2,0.1,2.9,0.3
		c0.9,0.2,1.7,0.5,2.3,0.8c0.7,0.4,1.2,0.9,1.5,1.4c0.4,0.6,0.5,1.3,0.5,2.1c0,0.9-0.3,1.8-0.8,2.5s-1.2,1.3-2.2,1.7
		c-0.9,0.4-2.1,0.6-3.4,0.6C700.8,460.9,699.9,460.8,699.2,460.5z M700.8,451c0.4,0,0.8-0.1,1.2-0.2c0.4-0.1,0.7-0.3,0.9-0.5
		s0.5-0.4,0.6-0.7c0.1-0.3,0.2-0.5,0.2-0.8c0-0.3-0.1-0.6-0.2-0.8c-0.1-0.2-0.3-0.4-0.6-0.6s-0.6-0.2-1-0.2c-0.6,0-1.1,0.2-1.5,0.5
		s-0.6,0.8-0.6,1.4h-3.6c0-1,0.2-1.8,0.7-2.6c0.5-0.8,1.1-1.4,2-1.8s1.9-0.7,3-0.7c1.2,0,2.2,0.2,3.1,0.6c0.8,0.4,1.5,0.9,1.9,1.6
		s0.7,1.4,0.7,2.3c0,0.9-0.3,1.7-0.9,2.3c-0.6,0.6-1.4,1.1-2.5,1.4c-1,0.3-2.2,0.5-3.5,0.5V451z"/>
	<path class="st1" d="M710.6,457.5c0.4-0.4,0.9-0.6,1.5-0.6c0.6,0,1.2,0.2,1.6,0.6c0.4,0.4,0.6,0.9,0.6,1.5c0,0.6-0.2,1.1-0.6,1.5
		c-0.4,0.4-0.9,0.6-1.6,0.6c-0.6,0-1.1-0.2-1.5-0.6c-0.4-0.4-0.6-0.9-0.6-1.5C710,458.4,710.2,457.9,710.6,457.5z"/>
	<path class="st1" d="M725.5,444.4h2.9v16.1h-4.1v-4.1l0.4-0.3v-6.2l-3.5,4.8h5.9l0.4-0.5h3.3v3.3h-14.8L725.5,444.4z"/>
</g>
<rect x="949.3" y="552.7" class="st1" width="15.8" height="11.5"/>
<rect x="949.3" y="552.7" class="st3" width="15.8" height="11.5"/>
</svg>
