<svg xmlns="http://www.w3.org/2000/svg" xmlns:xlink="http://www.w3.org/1999/xlink" xml:space="preserve" id="Слой_1" x="0" y="0" style="enable-background:new 0 0 443.6 602.2" version="1.1" viewBox="0 0 443.6 602.2"><style>.st1{fill:#1b1c20}.st4{clip-path:url(#SVGID_6_)}.st5{clip-path:url(#SVGID_8_)}.st9{clip-path:url(#SVGID_14_)}</style><path d="M48.2 403.6H36.4v-11.5h11.8v11.5zm362-77.5v-80.9h-72.3V92.3H34.6v243.6H56v22.2H34.6v199.4h135.2V326.1h240.4z" style="fill:#d6e7b3"/><path d="M57.7 359.4h1.4v20.1h-1.4zm109-87.9L134 251.1l1.3-2.1 32.7 20.4-1.3 2.1zm-31.6-20.7 31.5 19.7.6-.9-31.6-19.6-.5.8zm-1.5 49.9-14.5-24.1 2.1-1.3 14.5 24.1-2.1 1.3zm-13.5-23.8 13.7 22.9.9-.5-13.7-23-.9.6zm1.1 92.6-2.1-1.3 15.7-26.1 2.1 1.3-15.7 26.1zm-1.1-1.5.9.5 14.9-24.8-.9-.5-14.9 24.8zm19 39.1-1.3-2.1 32.7-20.4 1.3 2.1-32.7 20.4zm-.3-1.9.6.9 31.5-19.7-.6-.9-31.5 19.7z" class="st1"/><defs><path id="SVGID_1_" d="M14.3 13.8h417.9v567.5H14.3z"/></defs><clipPath id="SVGID_2_"><use xlink:href="#SVGID_1_" style="overflow:visible"/></clipPath><path d="m430.1 309.3-.2-.3-21.8-36.2 2.1-1.3.2.3 21.8 36.2-2.1 1.3zm-21-36.3 21.2 35.3.9-.5-21.2-35.3-.9.5z" class="st1" style="clip-path:url(#SVGID_2_)"/><path d="m124.2 97.9-1.3-2.1.3-.2 32.4-20.2 1.3 2.1-32.7 20.4zm-.4-1.9.6.9 31.5-19.7-.6-.9L123.8 96zm148 1.9-1.3-2.1.3-.2 32.4-20.2 1.3 2.1-32.7 20.4zm-.3-1.9.6.9 31.5-19.7-.6-.9L271.5 96zm-69.7 175.5-1.3-2.1.3-.2 32.4-20.2 1.3 2.1-32.7 20.4zm-.4-1.9.6.9 31.4-19.7-.6-.9-31.4 19.7zM306.6 20.1h-267v-6.4h267v6.4zm-266.2-.7h265.5v-4.9H40.4v4.9zm75.7 72.9H64V66.7h52.1v25.6zm-51.4-.7h50.6V67.5H64.7v24.1z" class="st1"/><path d="M116.1 81.2H64v-3.9h52.1v3.9zm-51.4-.7h50.6v-2.4H64.7v2.4z" class="st1"/><defs><path id="SVGID_3_" d="M14.3 13.8h417.9v567.5H14.3z"/></defs><clipPath id="SVGID_4_"><use xlink:href="#SVGID_3_" style="overflow:visible"/></clipPath><path d="M159.4 581.2H82.5v-24.4h76.8v24.4zm-76.1-.7h75.4v-23H83.3v23z" class="st1" style="clip-path:url(#SVGID_4_)"/><path d="M159.4 570.7H82.5V567h76.8v3.7zm-76.1-.8h75.4v-2.3H83.3v2.3zM265.1 92.3h-47.7V66.7h47.7v25.6zm-47-.7h46.3V67.5h-46.3v24.1z" class="st1"/><path d="M265.1 81.2h-47.7v-3.9h47.7v3.9zm-47-.7h46.3v-2.4h-46.3v2.4zM65.6 260.7h.7v72.6h-.7zm-31-.4h.7v73h-.7z" class="st1"/><defs><path id="SVGID_5_" d="M14.3 13.8h417.9v567.5H14.3z"/></defs><clipPath id="SVGID_6_"><use xlink:href="#SVGID_5_" style="overflow:visible"/></clipPath><g class="st4"><path d="M59.3 327.5h-18c-2.2 0-4-2.1-4-4.6v-52.2c0-2.5 1.8-4.6 4-4.6h18c2.2 0 4 2.1 4 4.6v52.2c0 2.5-1.8 4.6-4 4.6zm-18-60.6c-1.8 0-3.3 1.7-3.3 3.9V323c0 2.1 1.5 3.8 3.3 3.8h18c1.8 0 3.3-1.7 3.3-3.8v-52.2c0-2.1-1.5-3.9-3.3-3.9h-18zm13.3 55.3H46c-2.6 0-4.6-2.1-4.6-4.7V281c0-2.6 2.1-4.7 4.6-4.7h8.6c2.6 0 4.6 2.1 4.6 4.7v36.4c0 2.7-2 4.8-4.6 4.8zM45.9 277c-2.2 0-3.9 1.8-3.9 4v36.4c0 2.2 1.8 4 3.9 4h8.6c2.2 0 3.9-1.8 3.9-4V281c0-2.2-1.8-4-3.9-4h-8.6z" class="st1"/></g><g class="st4"><path d="M50.3 319.5c-.7 0-1.3-.6-1.3-1.3 0-.7.6-1.3 1.3-1.3.7 0 1.3.6 1.3 1.3 0 .7-.6 1.3-1.3 1.3zm0-1.8c-.3 0-.6.2-.6.6 0 .3.2.6.6.6s.6-.2.6-.6c0-.4-.3-.6-.6-.6z" class="st1"/></g><path d="M180 337.4h.7V410h-.7z" class="st1"/><defs><path id="SVGID_7_" d="M14.3 13.8h417.9v567.5H14.3z"/></defs><clipPath id="SVGID_8_"><use xlink:href="#SVGID_7_" style="overflow:visible"/></clipPath><g class="st5"><path d="M67.6 366.5h-5c-1.4 0-1.8-1.2-1.8-1.8v-13.3c0-1.4 1.2-1.8 1.8-1.8h5c1.4 0 1.8 1.2 1.8 1.8v13.3c0 1.5-1.2 1.8-1.8 1.8zm-5.1-16.1c-.2 0-1.1.1-1.1 1.1v13.3c0 .2.1 1.1 1.1 1.1h5c.2 0 1.1-.1 1.1-1.1v-13.3c0-.2-.1-1.1-1.1-1.1h-5z" class="st1"/></g><g class="st5"><path d="M80.6 364.5c-3.6 0-6.6-2.7-6.6-6.1 0-3.4 2.9-6.1 6.6-6.1 3.6 0 6.6 2.7 6.6 6.1 0 3.4-2.9 6.1-6.6 6.1zm0-11.5c-3.2 0-5.8 2.4-5.8 5.4 0 3 2.6 5.4 5.8 5.4 3.2 0 5.8-2.4 5.8-5.4.1-3-2.5-5.4-5.8-5.4z" class="st1"/></g><g class="st5"><path d="M80.6 365.9c-.5 0-1 0-1.4-.1h-.3l-10.3-1.6v-12.3l10.4-1.2c.5-.1 1.1-.2 1.6-.2 4.5 0 8.2 3.5 8.2 7.7 0 4.3-3.7 7.7-8.2 7.7zm-2-.9.4.1c4.8 1 9.1-2.5 9.1-6.8 0-3.9-3.4-7-7.5-7-.5 0-1 .1-1.5.1l-9.8 1.1v11.1l9.3 1.4z" class="st1"/></g><g class="st5"><path d="M63.8 359.2c-.6 0-1.1-.5-1.1-1.1 0-.6.5-1.1 1.1-1.1.6 0 1.1.5 1.1 1.1-.1.6-.5 1.1-1.1 1.1zm0-1.5c-.2 0-.4.2-.4.4s.2.4.4.4.4-.2.4-.4c-.1-.2-.2-.4-.4-.4z" class="st1"/></g><g class="st5"><path d="M77.6 360c-.9 0-1.6-.7-1.6-1.6 0-.9.7-1.6 1.6-1.6.9 0 1.6.7 1.6 1.6 0 .9-.7 1.6-1.6 1.6zm0-2.5c-.5 0-.9.4-.9.9s.4.9.9.9.9-.4.9-.9-.4-.9-.9-.9z" class="st1"/></g><path d="M64.5 355.7h-1.4c-.2 0-.4-.2-.4-.4s.2-.4.4-.4h1.4c.2 0 .4.2.4.4s-.2.4-.4.4z" class="st1"/><path d="M63.8 356.4c-.2 0-.4-.2-.4-.4v-1.4c0-.2.2-.4.4-.4s.4.2.4.4v1.4c-.1.2-.2.4-.4.4zm.7 4.8h-1.4c-.2 0-.4-.2-.4-.4s.2-.4.4-.4h1.4c.2 0 .4.2.4.4-.1.3-.2.4-.4.4z" class="st1"/><path d="M63.8 361.9c-.2 0-.4-.2-.4-.4v-1.4c0-.2.2-.4.4-.4s.4.2.4.4v1.4c-.1.3-.2.4-.4.4zm8.5.6h-1.4c-.2 0-.4-.2-.4-.4s.2-.4.4-.4h1.4c.2 0 .4.2.4.4-.1.2-.2.4-.4.4z" class="st1"/><path d="M71.6 363.2c-.2 0-.4-.2-.4-.4v-1.4c0-.2.2-.4.4-.4s.4.2.4.4v1.4c-.1.2-.2.4-.4.4zm.7-8.8h-1.4c-.2 0-.4-.2-.4-.4s.2-.4.4-.4h1.4c.2 0 .4.2.4.4s-.2.4-.4.4z" class="st1"/><path d="M71.6 355.1c-.2 0-.4-.2-.4-.4v-1.4c0-.2.2-.4.4-.4s.4.2.4.4v1.4c-.1.3-.2.4-.4.4z" class="st1"/><defs><path id="SVGID_9_" d="M14.3 13.8h417.9v567.5H14.3z"/></defs><clipPath id="SVGID_10_"><use xlink:href="#SVGID_9_" style="overflow:visible"/></clipPath><path d="M89.5 333.3H69v-9.7c0-3.5 4.6-6.4 10.3-6.4 5.7 0 10.3 2.9 10.3 6.4v9.7zm-19.8-.7h19.1v-9c0-3.1-4.3-5.7-9.5-5.7-5.3 0-9.5 2.5-9.5 5.7v9zm9.5-3.6c-4.4 0-8-2.2-8-5s3.6-5 8-5 8 2.2 8 5-3.6 5-8 5zm0-9.2c-4 0-7.2 1.9-7.2 4.3s3.3 4.3 7.2 4.3c4 0 7.2-1.9 7.2-4.3s-3.2-4.3-7.2-4.3zm-.2 7.8c-.9 0-1.7-.8-1.7-1.7 0-.9.8-1.7 1.7-1.7.9 0 1.7.8 1.7 1.7-.1.9-.8 1.7-1.7 1.7zm0-2.7c-.5 0-1 .4-1 1 0 .5.4 1 1 1 .5 0 1-.4 1-1-.1-.5-.5-1-1-1z" class="st1" style="clip-path:url(#SVGID_10_)"/><path d="M115.9 331.9H92.1v-25.6H116v25.6zm-22.6-.8h21.4L104 319.6l-10.7 11.5zm11.2-12 10.7 11.5v-23l-10.7 11.5zm-11.7-11.6v23l10.7-11.5-10.7-11.5zm.5-.5 10.7 11.5 10.7-11.5H93.3z" class="st1"/><defs><path id="SVGID_11_" d="M14.3 13.8h417.9v567.5H14.3z"/></defs><clipPath id="SVGID_12_"><use xlink:href="#SVGID_11_" style="overflow:visible"/></clipPath><path d="M76.2 414.2H50.6v-24.4h25.6v24.4zm-24.9-.7h24.1v-22.9H51.3v22.9zm19.8-1.6H55.7c-1.6 0-2.9-1.3-2.9-2.9v-10.4c0-1.6 1.3-2.9 2.9-2.9h15.4c1.6 0 2.9 1.3 2.9 2.9V409c0 1.6-1.3 2.9-2.9 2.9zm-15.4-15.5c-1.2 0-2.2 1-2.2 2.2V409c0 1.2 1 2.2 2.2 2.2h15.4c1.2 0 2.2-1 2.2-2.2v-10.4c0-1.2-1-2.2-2.2-2.2H55.7zm7.8 4.9c-.8 0-1.4-.7-1.4-1.5s.6-1.5 1.4-1.5c.8 0 1.4.7 1.4 1.5 0 .9-.6 1.5-1.4 1.5zm0-2.2c-.4 0-.7.3-.7.7 0 .4.3.7.7.7.4 0 .7-.3.7-.7 0-.3-.3-.7-.7-.7zm0-4.8c-.8 0-1.4-.7-1.4-1.5s.6-1.5 1.4-1.5c.8 0 1.4.7 1.4 1.5s-.6 1.5-1.4 1.5zm0-2.2c-.4 0-.7.3-.7.7 0 .4.3.7.7.7.4 0 .7-.3.7-.7 0-.3-.3-.7-.7-.7z" class="st1" style="clip-path:url(#SVGID_12_)"/><path d="M404.8 316.8v9.7H169.6v231H151v23h29.8v-244H415l-.1-19.7h-10.1zM151 67.4v24.2h18.6v38.5h6.2v87.3h-6.2v49.4l-3.9-.1v4.9h36.8v-4.9l-21.8-.2V91.6h39.4V67.4H151zM40.1 395.9h5.5v5.5h-5.5v-5.5zm8-47.1h5.3v5.9h-5.3v-5.9zm-13.3-10.3h8.1v16.1h-8.1v-16.1zm13.3 0h5.3v5.9h-5.3v-5.9zm-33-324.1v5L15 580.5h72.5v-23H34.7V406.3h15.7v-17h81.3v-4.9H124v-17.3h-5v10H34.7v-17.3h23.7v-21.6h65.5v-31.6H119v26.7H34.7v-71.2H119v15.5h4.9v-5.9h3.9v-5h-3.9V251H34.7V91.6h33.5V67.4H21.8V19.5h27.5v-5H15.1zm310.1 0h-26.9v5h26.9v47.9H300v24.2h38v175.1h-98v4.9l104.1-.2v-26.7h60.6v28.6h10l.1-35.6h-71.3V14.4h-18.3z" style="fill:#39363a"/><defs><path id="SVGID_13_" d="M14.3 13.8h417.9v567.5H14.3z"/></defs><clipPath id="SVGID_14_"><use xlink:href="#SVGID_13_" style="overflow:visible"/></clipPath><g class="st9"><path d="M181.4 581.2h-31.1v-24.4h18.6v-231h235.2v-9.7h11.4l.1 21.1H181.4v244zm-29.7-1.4h28.4v-244h234.2l-.1-18.4h-8.7v9.7H170.2v231h-18.6v21.7zm-63.6 1.4H14.3v-.7l.1-566.8h35.5v6.4H22.4v46.6h46.4v25.6H35.3v158h89.2V266h3.9v6.4h-3.9v5.9h-6.2v-15.5h-83v69.8h83v-26.7h6.2v33H59.1v21.6H35.3v16h83v-10h6.2v17.2h7.7v6.2H51v17H35.3v149.9h52.8v24.4zm-72.5-1.4h71.1v-21.7H34V405.6h15.7v-17H131V385h-7.7v-17.2h-3.5v10H34v-18.7h23.7v-21.6h65.5v-30.3h-3.5V334H34v-72.5h85.7V277h3.5v-5.9h3.9v-3.7h-3.9v-15.7H34V91h33.5V68.1H21.1V18.8h27.5v-3.7H15.7v4.4l-.1 560.3zm30.7-177.7h-6.9v-6.9h6.9v6.9zm-5.5-1.4H45v-4.2h-4.2v4.2zm13.3-45.3h-6.7v-7.2h6.7v7.2zm-5.3-1.4h4v-4.5h-4v4.5zm-5.2 1.3h-9.4v-17.4h9.4v17.4zm-8.1-1.4h6.7v-14.7h-6.7v14.7zm18.6-8.9h-6.7v-7.2h6.7v7.2zm-5.3-1.3h4v-4.5h-4v4.5zM415.5 274h-11.4v-28.6h-59.3v26.7h-.7l-104.8.2v-6.2h97.9V92.3h-38V66.7h25.2V20.1h-26.9v-6.4h46.7V237h71.3v37zm-10.1-1.4h8.7l.1-34.2h-71.3V15.1h-44v3.7h26.9v49.3h-25.2V91h38v176.5h-97.9v3.5l102.8-.2V244h62v28.6zm-202.3-.3H165v-6.2l3.9.1v-49.4h6.2v-86h-6.2V92.3h-18.6V66.7h70.5v25.6h-39.4v173.6l21.8.2v6.2zm-36.7-1.3h35.4v-3.5l-21.8-.2V91h39.4V68.1h-67.7V91h18.6v38.5h6.2v88.7h-6.2v49.4l-3.9-.1v3.5z" class="st1"/></g><g class="st9"><path d="m115.4 182.9.1-2h-6.2l-.3 4.5c0 .5.3.8.8.9l1.5.2c1.3.1 1.8.3 1.8 1.2-.1.8-.3 1.1-1.7 1.1-.7 0-1.6 0-2.6-.1l-.2 2c1.3.2 2.5.3 3.5.3 2.8 0 3.6-1.5 3.6-3.2 0-1.6-.6-3-2.9-3.3l-1.7-.2.1-1.4h4.2zm-9.3 5.5c-.7 0-.9.2-.9.9v.6c0 .7.2.9.9.9h.6c.7 0 .9-.2.9-.9v-.6c0-.7-.2-.9-.9-.9h-.6zm-9-5.6h2.8c1 0 1.3.1 1.3.9 0 .7-.1 1.1-1.2 1.1h-1.9v1.7h1.9c1.1 0 1.3.3 1.3 1.2 0 1-.4 1.2-1.6 1.2-.9 0-1.5 0-2.8-.1l-.1 1.9c1.1.2 2.4.3 3.6.3 2.6 0 3.6-.9 3.6-3 0-1.5-.4-2.3-1.8-2.5v-.1c1.3-.2 1.6-1.1 1.6-2.5 0-1.8-.9-2.3-3.4-2.3-1.1 0-2.2.1-3.3.3v1.9zm-1.9 8v-9.9h-2.7l-2.5 1 .3 1.7 2.3-.5c-.1.4-.1.8-.1 1.2v6.6h2.7z" class="st1"/></g><g class="st9"><path d="M154.1 167.4c0-.3.2-.5.6-.6h1.5v.9c-.5.3-1 .5-1.4.5-.5 0-.7-.2-.7-.6v-.2zm-1.9-2.8c1.2-.1 2.3-.1 3.1-.1.8 0 1 .2 1 .8v.2h-2.4c-1.4 0-2.3.7-2.3 1.8v.7c0 1.3 1.1 2 2.4 2 1.2 0 2.1-.6 2.5-1.2l.2 1h2.1v-4.6c0-2.1-1.1-2.8-3-2.8-1.1 0-2.9.2-3.9.4l.3 1.8zm-1.2.1v-2h-7.1v2h2.3v5.2h2.6v-5.2h2.2zm-12.8 2.7c0-.3.2-.5.6-.6h1.5v.9c-.5.3-1 .5-1.4.5-.5 0-.7-.2-.7-.6v-.2zm-1.9-2.8c1.2-.1 2.3-.1 3.1-.1.7 0 1 .2 1 .8v.2H138c-1.4 0-2.3.7-2.3 1.8v.7c0 1.3 1.1 2 2.4 2 1.2 0 2.1-.6 2.6-1.2l.2 1h2.1v-4.6c0-2.1-1.1-2.8-3-2.8-1.1 0-2.9.2-3.9.4l.2 1.8zm-1.8-1.8h-2.6v2.5h-2.2v-2.5h-2.6v7.2h2.6v-3h2.2v2.9h2.6v-7.1zm-12.1 0c-.5 0-.9.3-1 .8l-.6 2.7c-.1.4-.1.7-.1 1.1h-.1c0-.4-.1-.7-.1-1.1l-.6-2.7c-.1-.5-.4-.8-1-.8h-2.2c-.6 0-.9.3-.9.9l-.2 6.3h2.4l.1-5.3h.2l.9 3.5c.1.5.4.8 1 .8h1.2c.6 0 .9-.3 1-.8l.9-3.5h.2l.2 5.3h2.4l-.2-6.3c0-.6-.3-.9-.9-.9h-2.6zm-11.9 1.6c.9 0 1.1.4 1.1 1.9 0 1.6-.2 1.9-1.1 1.9-.9 0-1.1-.3-1.1-1.9-.1-1.5.2-1.9 1.1-1.9m0-1.8c-2.8 0-3.9 1-3.9 3.8 0 2.7 1 3.7 3.9 3.7 2.8 0 3.8-1 3.8-3.7 0-2.8-1-3.8-3.8-3.8m-7.2 3.6c1.7-.2 1.6-.4 2.5-3.4h-2.6c-.6 2.4-.7 2.6-1.7 2.6h-.3c.1-.3.1-.6.1-.9v-1.7h-2.6v7.2h2.6v-2.3c0-.2 0-.4-.1-.6h.6c.8 0 .8.2 1.6 2.8h2.7c-1.1-3.4-1.1-3.4-2.8-3.7zm-11.8-.2h-1c-.7 0-.8-.2-.8-.9 0-.5.1-.7.8-.7h1v1.6zm-2.8.9c-.4 0-1.2.2-1.4.8l-.6 2.3h2.7l.4-1.9c.1-.3.2-.4.7-.4h.9v2.3H94v-7.2c-.9-.1-1.7-.1-3.6-.1-2.6 0-3.3.5-3.3 2.3 0 .8.3 1.6 1.6 1.9zm-7.7.5c0-.3.2-.5.6-.6h1.5v.9c-.5.3-1 .5-1.4.5-.5 0-.7-.2-.7-.6v-.2zm-1.9-2.8c1.2-.1 2.3-.1 3.1-.1.8 0 1 .2 1 .8v.2h-2.4c-1.4 0-2.3.7-2.3 1.8v.7c0 1.3 1.1 2 2.4 2 1.2 0 2.1-.6 2.6-1.2l.2 1h2.1v-4.6c0-2.1-1.1-2.8-3-2.8-1.1 0-2.9.2-3.9.4l.2 1.8zm-1.8-1.8H73c-1.2 0-1.9.6-2 1.8-.1 1.3-.2 2.3-.4 2.8-.2.6-.6.6-1.2.7l.3 1.9c1.6.3 3-.1 3.3-1.9.1-.7.3-1.9.4-3 0-.4.2-.6.7-.6h.6v5.4h2.6v-7.1zm-8.8 7.1v-7.2h-2.3l-2.3 3.4c-.2.3-.4.6-.5 1.1h-.1c.1-.4.1-.7.1-1.1v-3.4h-2.3v7.2h2.3l2.2-3.3c.2-.3.4-.8.6-1.2h.1c-.1.5-.1.8-.1 1.3v3.2h2.3zm-11.6-5.2c1.9-.3 2-1.2 3-4.7h-2.7c-.9 3-1.1 3.9-2 3.9h-.5c.1-.4.1-.8.1-1.2V160h-2.6v2.6c0 .4 0 .8.1 1.2h-.5c-1 0-1.1-.9-2-3.9h-2.7c1.1 3.6 1.1 4.4 3 4.7v.1c-2 .3-2.1 1.1-3.3 5.1h2.8c1.1-3.6 1.2-4.2 2.2-4.2h.5c-.1.3-.1.6-.1.9v3.3h2.6v-3.3c0-.3 0-.6-.1-.9h.5c1 0 1.1.6 2.2 4.2h2.8c-1.2-4-1.3-4.7-3.3-5.1z" class="st1"/></g><g class="st9"><path d="M108.8 494.6c1.4-.1 2.1-.1 3.1-.1.8 0 1.1 0 1.1.5 0 .6-.6 1.5-1.8 2.6l-2.2 2.3c-.3.3-.4.6-.4 1.1v1.4h7.4V500h-2.9c-.5 0-.9 0-1.4.1l2.4-2.4c1.3-1.4 1.6-2 1.6-3.1 0-1.9-1.4-2.4-3.5-2.4-1.1 0-2.1 0-3.6.3l.2 2.1zm-2.9 5.3c-.7 0-.9.2-.9.9v.6c0 .7.2.9.9.9h.6c.7 0 .9-.2.9-.9v-.6c0-.7-.2-.9-.9-.9h-.6zm-9-5.5h2.8c1 0 1.3.1 1.3.9 0 .7-.1 1.1-1.2 1.1h-1.9v1.7h1.9c1.1 0 1.3.3 1.3 1.2 0 1-.4 1.2-1.6 1.2-.9 0-1.5 0-2.8-.1l-.1 1.9c1.1.2 2.4.3 3.6.3 2.6 0 3.6-.9 3.6-3 0-1.5-.4-2.3-1.8-2.5v-.1c1.3-.2 1.6-1.1 1.6-2.5 0-1.8-.9-2.3-3.4-2.3-1.1 0-2.2.1-3.3.3v1.9zm-1.9 8v-9.9h-2.7l-2.5 1 .3 1.7 2.3-.5c-.1.4-.1.8-.1 1.2v6.6H95z" class="st1"/></g><g class="st9"><path d="M121.5 477.5h-1c-.7 0-.8-.2-.8-.9 0-.5.1-.7.8-.7h1v1.6zm-2.8.9c-.4 0-1.2.2-1.4.8l-.6 2.3h2.7l.4-1.9c.1-.3.2-.4.7-.4h.9v2.3h2.5v-7.2c-.9-.1-1.7-.1-3.6-.1-2.6 0-3.3.5-3.3 2.3.1.8.5 1.6 1.7 1.9zm-3-4.1h-2.6v2.5H111v-2.5h-2.6v7.2h2.6v-2.9h2.2v2.9h2.6v-7.2zm-10.8 7.2h2.6l-2.1-3.7 2-3.5h-2.6l-1.4 2.7-1.4-2.7h-2.6l2 3.5-2.1 3.7h2.6l1.6-2.9 1.4 2.9zm-5.8-7.2h-2.8l-1 4.3c-.1.3-.2.8-.3 1.2h-.1c-.1-.4-.1-.8-.2-1.2l-1.1-4.3h-2.8l2.2 6.5c.1.4.4.6.8.6h.5c-.2.4-.5.7-.7.8-.5.3-1.1.3-2 .3l-.2 1.7c1 .2 2.1.2 3-.1 1.1-.4 1.9-1.1 2.4-2.8l2.3-7zm-11.8 1.9c2-.3 2-1.2 3.1-4.7h-2.8c-.8 3-1 3.9-2.4 3.9h-.5c.1-.4.1-.8.1-1.2v-2.6h-2.7v9.9H85v-3.3c0-.3 0-.6-.1-.9h.5c1.4 0 1.5.6 2.5 4.2h2.8c-1.2-4.1-1.3-4.9-3.4-5.3z" class="st1"/></g><g class="st9"><path d="m276.4 308.2.1-2h-6.2l-.3 4.5c0 .5.3.8.8.9l1.5.2c1.3.1 1.8.3 1.8 1.2-.1.8-.3 1.1-1.7 1.1-.7 0-1.6 0-2.6-.1l-.2 2c1.3.2 2.5.3 3.5.3 2.8 0 3.6-1.5 3.6-3.2 0-1.6-.6-3-2.9-3.3l-1.7-.2.1-1.4h4.2zm-9.3 5.5c-.7 0-.9.2-.9.9v.6c0 .7.2.9.9.9h.6c.7 0 .9-.2.9-.9v-.6c0-.7-.2-.9-.9-.9h-.6zm-2.7 2.5v-9.9h-2.7l-2.5 1 .3 1.7 2.3-.5c-.1.4-.1.8-.1 1.2v6.6h2.7zm-6.4 0v-9.9h-2.7l-2.5 1 .3 1.7 2.3-.5c-.1.4-.1.8-.1 1.2v6.6h2.7z" class="st1"/></g><g class="st9"><path d="M290.9 290.4c.5-.3.8-.4 1.3-.4.7 0 .9.3.9 1.9 0 1.6-.3 1.9-1 1.9-.5 0-.9-.1-1.3-.2v-3.2zm-.5-2.2h-2.1v9.8h2.6v-3.2c.6.5 1.4.6 2.3.6 1.8 0 2.7-.8 2.7-3.7 0-2.4-.7-3.8-2.5-3.8-1.1 0-2.2.5-2.7 1.2l-.3-.9zm-7.2 1.6c.9 0 1.1.4 1.1 1.9 0 1.6-.2 1.9-1.1 1.9-.9 0-1.1-.3-1.1-1.9 0-1.5.2-1.9 1.1-1.9m0-1.8c-2.8 0-3.9 1-3.9 3.8 0 2.7 1 3.7 3.9 3.7 2.8 0 3.8-1 3.8-3.7 0-2.8-1-3.8-3.8-3.8m-8.2 5.6h-2.1c.4-.8.6-1.8.8-3.2 0-.4.3-.6.6-.6h.6v3.8zm3.6 0h-1.2v-5.4h-3.9c-1.3 0-1.9.6-2.1 1.7-.2 1.2-.4 2.4-.8 3.7h-.9v3.7h1.7l.2-2h5.1l.2 2h1.7v-3.7zm-9.9 1.7v-7.2h-2.3l-2.3 3.4c-.2.3-.4.6-.5 1.1h-.1c.1-.4.1-.7.1-1.1v-3.4h-2.3v7.2h2.3l2.2-3.3c.2-.3.4-.8.6-1.2h.1c-.1.5-.1.8-.1 1.3v3.2h2.3zm-13.6-4.9c.5-.3.8-.4 1.3-.4.7 0 .9.3.9 1.9 0 1.6-.3 1.9-1 1.9-.5 0-.9-.1-1.3-.2v-3.2zm-.5-2.2h-2.1v9.8h2.6v-3.2c.6.5 1.4.6 2.3.6 1.8 0 2.7-.8 2.7-3.7 0-2.4-.7-3.8-2.5-3.8-1.1 0-2.2.5-2.7 1.2l-.3-.9zm-7.2 1.6c.9 0 1.1.4 1.1 1.9 0 1.6-.2 1.9-1.1 1.9-.9 0-1.1-.3-1.1-1.9-.1-1.5.2-1.9 1.1-1.9m0-1.8c-2.8 0-3.9 1-3.9 3.8 0 2.7 1 3.7 3.9 3.7 2.8 0 3.8-1 3.8-3.7 0-2.8-1-3.8-3.8-3.8m-7.8 2.1c2-.3 2-1.2 3.1-4.7H240c-.8 3-1 3.9-2.4 3.9h-.5c.1-.4.1-.8.1-1.2v-2.6h-2.7v9.9h2.7V292c0-.3 0-.6-.1-.9h.5c1.4 0 1.5.6 2.5 4.2h2.8c-1.1-4.1-1.3-4.8-3.3-5.2z" class="st1"/></g><g class="st9"><path d="M262.6 144h2.8c1 0 1.3.1 1.3.9 0 .7-.1 1.1-1.2 1.1h-1.9v1.7h1.9c1.1 0 1.3.3 1.3 1.2 0 1-.4 1.2-1.6 1.2-.9 0-1.5 0-2.8-.1l-.1 1.9c1.1.2 2.4.3 3.6.3 2.6 0 3.6-.9 3.6-3 0-1.5-.4-2.3-1.8-2.5v-.1c1.3-.2 1.6-1.1 1.6-2.5 0-1.8-.9-2.3-3.4-2.3-1.1 0-2.2.1-3.3.3v1.9zm-2.9 5.6c-.7 0-.9.2-.9.9v.6c0 .7.2.9.9.9h.6c.7 0 .9-.2.9-.9v-.6c0-.7-.2-.9-.9-.9h-.6zm-5.7.6c-1.2 0-1.3-.4-1.3-2.6.5-.3.8-.4 1.3-.4 1 0 1.2.2 1.2 1.3-.1 1.3-.1 1.7-1.2 1.7m3-8c-1-.3-2-.3-2.6-.3-2.9 0-4.3.7-4.3 5.2 0 4 .9 5 3.9 5s3.7-1.2 3.7-3.6c0-2.2-.6-3.1-2.9-3.1-.9 0-1.5.1-2 .6.1-1.9.4-2.2 1.7-2.2h2.4l.1-1.6zm-8.7 9.8v-9.9h-2.7l-2.5 1 .3 1.7 2.3-.5c-.1.4-.1.8-.1 1.2v6.6h2.7z" class="st1"/></g><g class="st9"><path d="M307.6 128.7c0-.3.2-.5.6-.6h1.5v.9c-.5.3-1 .5-1.4.5-.5 0-.7-.2-.7-.6v-.2zm-2-2.9c1.2-.1 2.3-.1 3.1-.1.8 0 1 .2 1 .8v.2h-2.4c-1.4 0-2.3.7-2.3 1.8v.7c0 1.3 1.1 2 2.4 2 1.2 0 2.1-.6 2.5-1.2l.2 1h2.1v-4.6c0-2.1-1.1-2.8-3-2.8-1.1 0-2.9.2-3.9.4l.3 1.8zm-1.2.2v-2h-7.1v2h2.3v5.2h2.6V126h2.2zm-12.7 2.7c0-.3.2-.5.6-.6h1.5v.9c-.5.3-1 .5-1.4.5-.5 0-.7-.2-.7-.6v-.2zm-2-2.9c1.2-.1 2.3-.1 3.1-.1.7 0 1 .2 1 .8v.2h-2.4c-1.4 0-2.3.7-2.3 1.8v.7c0 1.3 1.1 2 2.4 2 1.2 0 2.1-.6 2.6-1.2l.2 1h2.1v-4.6c0-2.1-1.1-2.8-3-2.8-1.1 0-2.9.2-3.9.4l.2 1.8zm-1.8-1.8h-2.6v2.5h-2.2V124h-2.6v7.2h2.6v-2.9h2.2v2.9h2.6V124zm-12.1 0c-.5 0-.9.3-1 .8l-.6 2.7c-.1.4-.1.7-.1 1.1h-.1c0-.4-.1-.7-.1-1.1l-.6-2.7c-.1-.5-.4-.8-1-.8H270c-.6 0-.9.3-.9.9l-.2 6.3h2.4l.1-5.3h.2l.9 3.5c.1.5.4.8 1 .8h1.2c.6 0 .9-.3 1-.8l.9-3.5h.2l.2 5.3h2.4l-.2-6.3c0-.6-.3-.9-.9-.9h-2.5zm-11.9 1.6c.9 0 1.1.4 1.1 1.9 0 1.6-.2 1.9-1.1 1.9-.9 0-1.1-.3-1.1-1.9 0-1.5.2-1.9 1.1-1.9m0-1.8c-2.8 0-3.9 1-3.9 3.8 0 2.7 1 3.7 3.9 3.7 2.8 0 3.8-1 3.8-3.7 0-2.8-1-3.8-3.8-3.8m-7.2 3.6c1.7-.2 1.6-.4 2.5-3.4h-2.6c-.6 2.4-.7 2.6-1.7 2.6h-.3c.1-.3.1-.6.1-.9V124h-2.6v7.2h2.6v-2.3c0-.2 0-.4-.1-.6h.6c.8 0 .8.2 1.6 2.8h2.7c-1-3.3-1.1-3.4-2.8-3.7zm-11.8-.2h-1c-.7 0-.8-.2-.8-.9 0-.5.1-.7.8-.7h1v1.6zm-2.8.9c-.4 0-1.2.2-1.4.8l-.6 2.3h2.7l.4-1.9c.1-.3.2-.4.7-.4h.9v2.3h2.5V124c-.9-.1-1.7-.1-3.6-.1-2.6 0-3.3.5-3.3 2.3.1.8.5 1.6 1.7 1.9zm-7.6.6c0-.3.2-.5.6-.6h1.5v.9c-.5.3-1 .5-1.4.5-.5 0-.7-.2-.7-.6v-.2zm-2-2.9c1.2-.1 2.3-.1 3.1-.1.8 0 1 .2 1 .8v.2h-2.4c-1.4 0-2.3.7-2.3 1.8v.7c0 1.3 1.1 2 2.4 2 1.2 0 2.1-.6 2.6-1.2l.2 1h2.1v-4.6c0-2.1-1.1-2.8-3-2.8-1.1 0-2.9.2-3.9.4l.2 1.8zm-1.8-1.8h-4.3c-1.2 0-1.9.6-2 1.8-.1 1.3-.2 2.3-.4 2.8-.2.6-.6.6-1.2.7l.3 1.9c1.6.3 3-.1 3.3-1.9.1-.7.3-1.9.4-3 0-.4.2-.6.7-.6h.6v5.4h2.6V124zm-8.7 7.2V124h-2.3l-2.3 3.4c-.2.3-.4.6-.5 1.1h-.1c.1-.4.1-.7.1-1.1V124h-2.3v7.2h2.3l2.2-3.3c.2-.3.4-.8.6-1.2h.1c-.1.5-.1.8-.1 1.3v3.2h2.3zm-11.7-5.3c1.9-.3 2-1.2 3-4.7h-2.7c-.9 3-1.1 3.9-2 3.9h-.5c.1-.4.1-.8.1-1.2v-2.6h-2.6v2.6c0 .4 0 .8.1 1.2h-.5c-1 0-1.1-.9-2-3.9h-2.7c1.1 3.6 1.1 4.4 3 4.7v.1c-2 .3-2.1 1.1-3.3 5.1h2.8c1.1-3.6 1.2-4.2 2.2-4.2h.5c-.1.3-.1.6-.1.9v3.3h2.6v-3.3c0-.3 0-.6-.1-.9h.5c1 0 1.1.6 2.2 4.2h2.8c-1.1-4-1.3-4.8-3.3-5.2z" class="st1"/></g><g class="st9"><path d="m187 47.6.1 2.2h4.3c-.2.3-.4.7-.5 1.1l-2.4 6.7h2.6l3-8.6c.2-.7-.2-1.3-1-1.3H187zm-2 7.5c-.7 0-.9.2-.9.9v.6c0 .7.2.9.9.9h.6c.7 0 .9-.2.9-.9V56c0-.7-.2-.9-.9-.9h-.6zm-6-1.9c1.1 0 1.3.2 1.3 1.3 0 1-.2 1.2-1.3 1.2s-1.4-.2-1.4-1.2.2-1.3 1.4-1.3m0-4c1 0 1.2.2 1.2 1.2 0 .9-.2 1.1-1.2 1.1s-1.3-.2-1.3-1.1c0-1 .3-1.2 1.3-1.2m-2.2 3.2c-1.4.1-1.8 1.3-1.8 2.6 0 1.9.8 2.7 3.9 2.7 3.2 0 3.9-.7 3.9-2.7 0-1.3-.3-2.5-1.8-2.6v-.1c1.1-.1 1.5-1.2 1.5-2.3 0-1.9-.6-2.7-3.7-2.7-3 0-3.6.8-3.6 2.7.1 1.1.6 2.2 1.6 2.4z" class="st1"/></g><g class="st9"><path d="M209.7 32.7h-1c-.7 0-.8-.2-.8-.9 0-.5.1-.7.8-.7h1v1.6zm-2.8.9c-.4 0-1.2.2-1.4.8l-.6 2.3h2.7l.4-1.9c.1-.3.2-.4.7-.4h.9v2.3h2.5v-7.2c-.9-.1-1.7-.1-3.6-.1-2.6 0-3.3.5-3.3 2.3.2.8.5 1.6 1.7 1.9zm-2.9 3.1v-7.2h-2.3l-2.3 3.4c-.2.3-.4.6-.5 1.1h-.1c.1-.4.1-.7.1-1.1v-3.4h-2.3v7.2h2.3l2.2-3.3c.2-.3.4-.8.6-1.2h.1c-.1.5-.1.9-.1 1.3v3.2h2.3zm-11.2-3.8c1.7-.2 1.6-.4 2.5-3.4h-2.6c-.7 2.3-.8 2.6-1.6 2.6h-.4c.1-.3.1-.6.1-.9v-1.7h-2.3v1.7c0 .3 0 .6.1.9h-.5c-.7 0-.8-.2-1.6-2.6h-2.6c1 3 .9 3.2 2.5 3.4v.1c-1.7.2-1.8.4-2.8 3.7h2.6c.9-2.7 1-2.9 1.6-2.9h.6c-.1.2-.1.4-.1.6v2.3h2.3v-2.3c0-.2 0-.4-.1-.6h.5c.6 0 .7.2 1.6 2.9h2.6c-.6-3.4-.6-3.5-2.4-3.8zm-13 2h-2.1c.4-.8.6-1.8.8-3.2 0-.4.3-.6.6-.6h.6v3.8zm3.7 0h-1.2v-5.4h-3.9c-1.3 0-1.9.6-2.1 1.7-.2 1.2-.4 2.4-.8 3.7h-.9v3.7h1.7l.2-2h5.1l.2 2h1.7v-3.7zm-13.3-3.8c.9 0 1.1.4 1.1 1.9 0 1.6-.2 1.9-1.1 1.9-.9 0-1.1-.3-1.1-1.9-.1-1.5.2-1.9 1.1-1.9m0-1.8c-2.8 0-3.9 1-3.9 3.8 0 2.7 1 3.7 3.9 3.7 2.8 0 3.8-1 3.8-3.7 0-2.8-1-3.8-3.8-3.8m-5.3-2.6h-4.5c-1.5 0-2.4.8-2.5 2.3-.2 2.3-.3 3.7-.7 4.6-.2.7-.7.9-1.4 1l.2 2.1c1.8.3 3.1-.3 3.7-2.3.4-1.2.6-3 .8-5.1 0-.5.3-.7.8-.7h.9v8.1h2.7v-10z" class="st1"/></g><g class="st9"><path d="M104.2 295.1h-.8v-2.9H102l-.3 1.1v1.8h-1.4c-.2 0-.3-.1-.2-.3l1.5-3.9h-1.8l-1.7 4.4c-.2.5.2 1.1.7 1.1h2.8v1.5h1.7v-1.5l.8-.2v-1.1zm-7.8 1c-.5 0-.6.2-.6.6v.4c0 .5.2.6.6.6h.4c.5 0 .6-.2.6-.6v-.4c0-.5-.2-.6-.6-.6h-.4zm-6.3-3.9H92c.7 0 .9.1.9.7 0 .5-.1.8-.8.8h-1.3v1.2h1.3c.7 0 .9.2.9.8 0 .7-.3.8-1.1.8-.6 0-1 0-1.9-.1l-.1 1.4c.8.1 1.7.2 2.5.2 1.8 0 2.5-.6 2.5-2.1 0-1.1-.3-1.6-1.3-1.7.9-.1 1.1-.8 1.1-1.8 0-1.2-.6-1.6-2.3-1.6-.8 0-1.5.1-2.3.2v1.2z" class="st1"/></g><g class="st9"><path d="M113 280.4h-.7c-.5 0-.6-.1-.6-.6 0-.4.1-.5.6-.5h.7v1.1zm-2 .7c-.3 0-.8.1-1 .5l-.4 1.6h1.9l.3-1.3c0-.2.1-.3.5-.3h.7v1.6h1.8v-5c-.6-.1-1.2-.1-2.5-.1-1.8 0-2.3.4-2.3 1.6-.1.6.2 1.2 1 1.4zm-5.3.4c0-.2.1-.4.4-.4h1v.6c-.3.2-.7.3-1 .3-.3 0-.5-.1-.5-.4v-.1zm-1.4-2c.8-.1 1.6-.1 2.1-.1s.7.2.7.6v.1h-1.7c-1 0-1.6.5-1.6 1.3v.5c0 .9.8 1.4 1.7 1.4.9 0 1.4-.4 1.8-.9l.2.7h1.5V280c0-1.5-.7-2-2.1-2-.7 0-2 .1-2.7.3l.1 1.2zm-1.3-1.3h-1.8v1.8h-1.5v-1.8h-1.8v5h1.8v-2h1.5v2h1.8v-5zm-6.2 0H95v1.8h-1.5v-1.8h-1.8v5h1.8v-2H95v2h1.8v-5zm-9.4 3.3c0-.2.1-.4.4-.4h1v.6c-.3.2-.7.3-1 .3-.3 0-.5-.1-.5-.4v-.1zm-1.4-2c.8-.1 1.6-.1 2.1-.1s.7.2.7.6v.1h-1.7c-1 0-1.6.5-1.6 1.3v.5c0 .9.8 1.4 1.7 1.4.9 0 1.4-.4 1.8-.9l.2.7h1.5V280c0-1.5-.7-2-2.1-2-.7 0-2 .1-2.7.3l.1 1.2zm-4.8 2.4v-1.8h1c.7 0 .9.2.9.9s-.2.9-.9.9h-1zm0-2.9v-1.5h.9c.7 0 .8.1.8.7s-.2.8-.8.8h-.9zm2.3.6c.9-.1 1.2-.6 1.2-1.6 0-1.4-.7-1.8-2.5-1.8-1.3 0-2 0-2.8.1v7c.9.1 1.7.1 3.2.1 1.7 0 2.4-.4 2.4-1.8-.1-1.3-.5-1.9-1.5-2z" class="st1"/></g><g class="st9"><path d="M105.1 363.1h1.9c.7 0 .9.1.9.7 0 .5-.1.8-.8.8h-1.3v1.2h1.3c.7 0 .9.2.9.8 0 .7-.3.8-1.1.8-.6 0-1 0-1.9-.1l-.1 1.4c.8.1 1.7.2 2.5.2 1.8 0 2.5-.6 2.5-2.1 0-1.1-.3-1.6-1.3-1.7.9-.1 1.1-.8 1.1-1.8 0-1.2-.6-1.6-2.3-1.6-.8 0-1.5.1-2.3.2v1.2zm-2 3.9c-.5 0-.6.1-.6.6v.4c0 .5.2.6.6.6h.4c.5 0 .6-.2.6-.6v-.4c0-.5-.2-.6-.6-.6h-.4zm-1.9 1.7v-7h-1.9l-1.8.7.2 1.2 1.6-.4c-.1.3-.1.6-.1.8v4.6h2z" class="st1"/></g><g class="st9"><path d="M112.7 349h-2l-.7 3c-.1.2-.1.6-.2.9h-.1c0-.3-.1-.6-.1-.9l-.8-3h-1.9l1.6 4.6c.1.3.3.4.6.4h.3c-.1.3-.3.5-.5.6-.3.2-.8.2-1.4.2l-.2 1.2c.7.1 1.5.1 2.1-.1.8-.3 1.3-.8 1.7-1.9l1.6-5zm-9.9 5.8 4-7.7h-1.5l-4 7.7h1.5zm-2-2.3c-.6.1-1.2.1-2.2.1-.8 0-1.1-.4-1.1-2s.2-2 1.1-2h2.1l.1-1.4c-.7-.2-1.2-.3-2.2-.3-2.2 0-3 .9-3 3.6s.8 3.6 3 3.6c1 0 1.7-.1 2.3-.3l-.1-1.3z" class="st1"/></g><g class="st9"><path d="M256.5 200.2c-11.5 0-20.8-9.3-20.8-20.8s9.3-20.8 20.8-20.8 20.8 9.3 20.8 20.8c.1 11.5-9.3 20.8-20.8 20.8zm0-40.4c-10.8 0-19.5 8.8-19.5 19.5 0 10.8 8.8 19.5 19.5 19.5 10.8 0 19.5-8.8 19.5-19.5.1-10.7-8.7-19.5-19.5-19.5z" class="st1"/></g><g class="st9"><path d="M248.6 173.2c3.1-.2 4.7-.2 7-.2 1.7 0 2.5.1 2.5 1 0 1.3-1.5 3.3-4 5.8l-5 5.2c-.7.7-.8 1.5-.8 2.4v3.2H265v-5.3h-6.5c-1.1 0-2.1 0-3.1.3l5.5-5.4c3-3.1 3.5-4.5 3.5-7 0-4.4-3.1-5.4-7.9-5.4-2.4 0-4.7.1-8 .7l.1 4.7z" class="st1"/></g><g class="st9"><path d="M280 223.8c-2.6 0-2.9-.8-2.9-5.8 1.1-.6 1.8-.8 2.9-.8 2.1 0 2.6.6 2.6 3 0 2.6-.1 3.6-2.6 3.6m6.8-18.1c-2.3-.6-4.6-.6-5.8-.6-6.5 0-9.8 1.6-9.8 11.8 0 9.1 2 11.4 8.7 11.4 6.9 0 8.3-2.6 8.3-8.2 0-4.9-1.5-6.9-6.6-6.9-2 0-3.3.3-4.6 1.3.2-4.2 1-4.9 3.9-4.9h5.5l.4-3.9zm-21.7 16.6c-1.6 0-2 .5-2 2v1.4c0 1.6.5 2 2 2h1.4c1.6 0 2-.5 2-2v-1.4c0-1.6-.5-2-2-2h-1.4zm-20.2-12.5c1.7 0 3.9-.1 6.2-.1 2.3 0 2.9.3 2.9 2.1 0 1.5-.2 2.4-2.6 2.4h-4.3v3.9h4.3c2.4 0 2.9.7 2.9 2.6 0 2.3-.8 2.7-3.7 2.7-1.9 0-3.4 0-6.2-.2l-.2 4.4c2.5.4 5.4.6 8.1.6 5.9 0 8.1-1.9 8.1-6.7 0-3.4-1-5.1-4.2-5.6v-.1c2.9-.5 3.6-2.4 3.6-5.6 0-4-2.1-5.2-7.6-5.2-2.5 0-5 .2-7.5.6l.2 4.2zm-11.1 14c-2.6 0-2.9-.8-2.9-5.8 1.1-.6 1.8-.8 2.9-.8 2.1 0 2.6.6 2.6 3 0 2.6-.1 3.6-2.6 3.6m6.8-18.1c-2.3-.6-4.6-.6-5.8-.6-6.5 0-9.8 1.6-9.8 11.8 0 9.1 2 11.4 8.7 11.4 6.8 0 8.3-2.6 8.3-8.2 0-4.9-1.5-6.9-6.6-6.9-2 0-3.3.3-4.6 1.3.2-4.2 1-4.9 3.9-4.9h5.5l.4-3.9z" class="st1"/></g></svg>