<svg xmlns="http://www.w3.org/2000/svg" xmlns:xlink="http://www.w3.org/1999/xlink" xml:space="preserve" id="Слой_1" x="0" y="0" style="enable-background:new 0 0 359.3 700" version="1.1" viewBox="0 0 359.3 700"><style>.st1{fill:#1b1c20}.st2{clip-path:url(#SVGID_2_)}.st4{clip-path:url(#SVGID_6_)}.st5{clip-path:url(#SVGID_8_)}.st7{clip-path:url(#SVGID_12_)}</style><path d="m347.4 306.2-2.2-195.8h-329v558.3l164.4-.1.1-261h162.5l-.3-61.6z" style="fill:#f9c7c7"/><path d="m141.7 434.1-1.5-2.4 36.2-21.8 1.5 2.4-36.2 21.8zm-.3-2.1.6 1 34.8-20.9-.6-1-34.8 20.9zm-22-46.8-2.4-1.5.2-.3 17.1-28.5 2.4 1.5-.2.3-17.1 28.5zm-1.3-1.7 1 .6 16.5-27.4-1-.6-16.5 27.4zm16.2-75.7L117 279l2.4-1.5 17.3 28.8-2.4 1.5zm-16.2-28.5 16.5 27.4 1-.6-16.5-27.4-1 .6zm64.1 26.9-1.5-2.4 37.4-22.5 1.5 2.4-37.4 22.5zm-.4-2.2.6 1 36-21.7-.6-1-36 21.7zm98.9-188.9-1.5-2.4 32.4-19.5 1.5 2.4-32.4 19.5zm-.4-2.2.6 1 31-18.6-.6-1-31 18.6zm66.2 283.6L322.2 356l2.4-1.5 24.3 40.5-2.4 1.5zm-23.2-40.2 23.5 39.1 1-.6-23.5-39.1-1 .6zM113.1 115.1l-1.5-2.4L144 93.2l1.5 2.4-32.4 19.5zm-.4-2.2.6 1 31-18.6-.6-1-31 18.6zm63.9 164.7-37-23.1 1.5-2.4 37 23.1-1.5 2.4zm-35.9-23.4 35.7 22.3.6-1-35.7-22.3-.6 1zM110.4 96.5H23.2v-5.3h87.1v5.3zm-86.3-.8h85.5V92H24.1v3.7zm.2 14.7h82.9v.8H24.3z" class="st1"/><path d="M106.4 95.8h.8v15.4h-.8zm171.6.7h-87.1v-5.3H278v5.3zm-86.3-.8h85.5V92h-85.5v3.7z" class="st1"/><defs><path id="SVGID_1_" d="M7.8 17.2h344.6v671.4H7.8z"/></defs><clipPath id="SVGID_2_"><use xlink:href="#SVGID_1_" style="overflow:visible"/></clipPath><g class="st2"><path d="M333 22.5H179.1v-5.3H333v5.3zm-153.1-.8h152.2V18H179.9v3.7z" class="st1"/></g><g class="st2"><path d="m8.6 49.7-.8-5.3.4-.1 171.1-27.2.8 5.3-.4.1L8.6 49.7zm.1-4.6.5 3.6 169.9-27-.5-3.6-169.9 27z" class="st1"/></g><path d="M191.9 110.4h82.9v.8h-82.9z" class="st1"/><path d="M274 95.8h.8v15.4h-.8z" class="st1"/><defs><path id="SVGID_3_" d="M7.8 17.2h344.6v671.4H7.8z"/></defs><clipPath id="SVGID_4_"><use xlink:href="#SVGID_3_" style="overflow:visible"/></clipPath><path d="M65.9 343.3c-6.4 0-11.6-3.2-11.6-7.2V325h23.2v11c0 4-5.2 7.3-11.6 7.3zm-10.8-17.4v10.2c0 3.5 4.9 6.4 10.8 6.4 6 0 10.8-2.9 10.8-6.4v-10.2H55.1zm10.8 15.3c-5 0-9-2.5-9-5.7 0-3.1 4.1-5.7 9-5.7 5 0 9 2.5 9 5.7s-4 5.7-9 5.7zm0-10.5c-4.5 0-8.2 2.2-8.2 4.8 0 2.7 3.7 4.8 8.2 4.8 4.5 0 8.2-2.2 8.2-4.8 0-2.6-3.7-4.8-8.2-4.8zm-.3 4.6c-1.1 0-1.9-.9-1.9-1.9 0-1.1.9-1.9 1.9-1.9 1.1 0 1.9.9 1.9 1.9 0 1.1-.8 1.9-1.9 1.9zm0-3c-.6 0-1.1.5-1.1 1.1 0 .6.5 1.1 1.1 1.1.6 0 1.1-.5 1.1-1.1 0-.6-.5-1.1-1.1-1.1z" class="st1" style="clip-path:url(#SVGID_4_)"/><path d="M81.9 405.1H54.3V376h27.6v29.1zm-26.2-.9h24.8l-12.4-13.1-12.4 13.1zm13-13.7L81 403.6v-26.1l-12.3 13zm-13.6-13v26.1l12.4-13.1-12.4-13zm.6-.7 12.4 13.1 12.4-13.1H55.7z" class="st1"/><defs><path id="SVGID_5_" d="M7.8 17.2h344.6v671.4H7.8z"/></defs><clipPath id="SVGID_6_"><use xlink:href="#SVGID_5_" style="overflow:visible"/></clipPath><g class="st4"><path d="M109.6 632.6c1.2 0 1.5.3 1.5 1.5 0 1.1-.3 1.4-1.5 1.4-1.3 0-1.6-.3-1.6-1.4.1-1.2.3-1.5 1.6-1.5m0-4.5c1.1 0 1.4.2 1.4 1.4 0 1-.2 1.2-1.4 1.2s-1.4-.2-1.4-1.2c0-1.2.3-1.4 1.4-1.4m-2.4 3.6c-1.6.1-2 1.5-2 3 0 2.2.9 3.1 4.4 3 3.6 0 4.4-.8 4.4-3 0-1.5-.4-2.9-2-3v-.1c1.2-.1 1.7-1.4 1.7-2.6 0-2.1-.7-3-4.1-3-3.4 0-4.1.9-4.1 3 0 1.2.5 2.5 1.7 2.7zm-5.1 3c-.8 0-1 .2-1 1v.7c0 .8.2 1 1 1h.7c.8 0 1-.2 1-1v-.7c0-.8-.2-1-1-1h-.7zm-10.6-6c1.6-.1 2.4-.1 3.5-.1.9 0 1.2 0 1.2.5 0 .6-.7 1.7-2 2.9l-2.5 2.6c-.3.4-.4.7-.4 1.2v1.6h8.4v-2.6h-3.2c-.5 0-1.1 0-1.6.1l2.8-2.7c1.5-1.6 1.8-2.3 1.8-3.5 0-2.2-1.6-2.7-4-2.7-1.2 0-2.4 0-4 .4v2.3zm-2.1 8.8v-11.3h-3l-2.9 1.1.4 1.9 2.6-.6c-.1.5-.1.9-.1 1.3v7.5h3z" class="st1"/></g><g class="st4"><path d="M156.9 611c0-.4.2-.6.7-.6h1.7v1c-.5.3-1.1.6-1.6.6s-.8-.2-.8-.7v-.3zm-2.2-3.2c1.4-.1 2.7-.1 3.5-.1.8 0 1.1.2 1.1.9v.2h-2.7c-1.6 0-2.6.8-2.6 2.1v.8c0 1.5 1.2 2.3 2.7 2.3 1.4 0 2.3-.7 2.9-1.4l.3 1.2h2.4v-5.2c0-2.4-1.2-3.2-3.4-3.2-1.2 0-3.2.2-4.4.4l.2 2zm-1.3.1v-2.2h-8.1v2.2h2.6v5.9h3v-5.9h2.5zm-14.5 3.1c0-.4.2-.6.7-.6h1.7v1c-.5.3-1.1.6-1.6.6s-.8-.2-.8-.7v-.3zm-2.2-3.2c1.4-.1 2.7-.1 3.5-.1.9 0 1.1.2 1.1.9v.2h-2.7c-1.6 0-2.6.8-2.6 2.1v.8c0 1.5 1.2 2.3 2.7 2.3 1.4 0 2.3-.7 2.9-1.4l.3 1.2h2.4v-5.2c0-2.4-1.2-3.2-3.4-3.2-1.2 0-3.2.2-4.4.4l.2 2zm-2.1-2.1h-2.9v2.9h-2.5v-2.9h-2.9v8.1h2.9v-3.3h2.5v3.3h2.9v-8.1zm-13.7 0c-.6 0-1 .3-1.1.9l-.7 3c-.1.4-.1.8-.2 1.2h-.1c0-.4-.1-.8-.2-1.2l-.7-3c-.1-.6-.5-.9-1.1-.9h-2.5c-.7 0-1 .3-1 1l-.2 7.1h2.7l.2-6h.2l1 3.9c.1.6.5.9 1.1.9h1.3c.6 0 1-.3 1.1-.9l1-3.9h.2l.2 6h2.7l-.2-7.1c0-.7-.3-1-1-1h-2.7zm-13.5 1.9c1 0 1.3.4 1.3 2.2 0 1.8-.3 2.2-1.3 2.2s-1.3-.4-1.3-2.2c0-1.8.3-2.2 1.3-2.2m0-2.1c-3.2 0-4.4 1.2-4.4 4.3 0 3.1 1.2 4.2 4.4 4.2s4.4-1.1 4.4-4.2c0-3.2-1.2-4.3-4.4-4.3m-8.1 4c1.9-.3 1.8-.4 2.8-3.9h-3c-.7 2.7-.7 2.9-1.9 2.9h-.4c.1-.3.1-.7.1-1v-1.9h-3v8.1h3v-2.6c0-.2 0-.4-.1-.7h.7c.9 0 .9.2 1.8 3.2h3.1c-1.2-3.6-1.2-3.7-3.1-4.1zm-13.4-.1h-1.2c-.8 0-.9-.2-.9-1 0-.6.1-.8.9-.8h1.2v1.8zm-3.2 1c-.5 0-1.3.2-1.6.9l-.6 2.6h3l.5-2.2c.1-.4.2-.5.8-.5h1.1v2.6h2.9v-8.2c-1-.1-1.9-.1-4.1-.1-3 0-3.7.6-3.7 2.6-.1 1 .3 1.9 1.7 2.3zm-8.6.6c0-.4.2-.6.7-.6h1.7v1c-.5.3-1.1.6-1.6.6s-.8-.2-.8-.7v-.3zm-2.3-3.2c1.4-.1 2.7-.1 3.5-.1.8 0 1.1.2 1.1.9v.2h-2.7c-1.6 0-2.6.8-2.6 2.1v.8c0 1.5 1.2 2.3 2.7 2.3 1.4 0 2.3-.7 2.9-1.4l.3 1.2h2.4v-5.2c0-2.4-1.2-3.2-3.4-3.2-1.2 0-3.2.2-4.4.4l.2 2zm-2-2.1h-4.9c-1.4 0-2.1.7-2.2 2.1-.1 1.5-.3 2.6-.4 3.2-.2.7-.7.6-1.4.8l.3 2.2c1.8.3 3.4-.1 3.7-2.1.2-.8.3-2.2.5-3.4 0-.5.3-.7.8-.7h.7v6.1h3v-8.2zm-9.9 8.1v-8.1h-2.6l-2.6 3.9c-.2.4-.5.7-.6 1.2H54c.1-.5.1-.8.1-1.3v-3.8h-2.6v8.1h2.6l2.5-3.7c.2-.4.5-.9.7-1.4h.1c-.1.5-.1 1-.1 1.4v3.6h2.6zm-13.2-5.9c2.2-.3 2.2-1.3 3.4-5.3H47c-1 3.4-1.2 4.4-2.3 4.4h-.5c.1-.5.1-.9.1-1.4v-3h-2.9v3c0 .5 0 .9.1 1.4H41c-1.1 0-1.3-1-2.3-4.4h-3.1c1.2 4 1.2 5 3.4 5.3v.1c-2.3.3-2.4 1.2-3.7 5.8h3.2c1.3-4.1 1.4-4.8 2.5-4.8h.6c-.1.4-.1.7-.1 1v3.8h2.9V610c0-.3 0-.7-.1-1h.5c1.1 0 1.3.7 2.5 4.8h3.2c-1.4-4.6-1.5-5.5-3.8-5.9z" class="st1"/></g><g class="st4"><path d="M269.7 212.8c1.6-.1 2.4-.1 3.5-.1.9 0 1.2 0 1.2.5 0 .6-.7 1.7-2 2.9l-2.5 2.6c-.3.4-.4.7-.4 1.2v1.6h8.4V219h-3.2c-.5 0-1.1 0-1.6.1l2.8-2.7c1.5-1.6 1.8-2.3 1.8-3.5 0-2.2-1.6-2.7-4-2.7-1.2 0-2.4 0-4 .4v2.2zm-3.2 6.1c-.8 0-1 .2-1 1v.7c0 .8.2 1 1 1h.7c.8 0 1-.2 1-1v-.7c0-.8-.2-1-1-1h-.7zm-2.1-1.7H263v-4.7h-2.3l-.5 1.8v2.9H258c-.3 0-.4-.2-.3-.5l2.5-6.4h-2.9l-2.8 7.1c-.4.9.2 1.7 1.2 1.7h4.5v2.4h2.8v-2.4l1.3-.3v-1.6zm-11.5 4.4v-11.3h-3l-2.9 1.1.4 1.9 2.6-.6c-.1.5-.1.9-.1 1.3v7.5h3z" class="st1"/></g><g class="st4"><path d="M320.5 195.2c0-.4.2-.6.7-.6h1.7v1c-.5.3-1.1.6-1.6.6s-.8-.2-.8-.7v-.3zm-2.2-3.2c1.4-.1 2.7-.1 3.5-.1.8 0 1.1.2 1.1.9v.2h-2.7c-1.6 0-2.6.8-2.6 2.1v.8c0 1.5 1.2 2.3 2.7 2.3 1.4 0 2.3-.7 2.9-1.4l.3 1.2h2.4v-5.2c0-2.4-1.2-3.2-3.4-3.2-1.2 0-3.2.2-4.4.4l.2 2zm-1.3.1v-2.2h-8.1v2.2h2.6v5.9h3v-5.9h2.5zm-14.5 3.1c0-.4.2-.6.7-.6h1.7v1c-.5.3-1.1.6-1.6.6s-.8-.2-.8-.7v-.3zm-2.2-3.2c1.4-.1 2.7-.1 3.5-.1.9 0 1.1.2 1.1.9v.2h-2.7c-1.6 0-2.6.8-2.6 2.1v.8c0 1.5 1.2 2.3 2.7 2.3 1.4 0 2.3-.7 2.9-1.4l.3 1.2h2.4v-5.2c0-2.4-1.2-3.2-3.4-3.2-1.2 0-3.2.2-4.4.4l.2 2zm-2.1-2.2h-2.9v2.9h-2.5v-2.9h-2.9v8.1h2.9v-3.3h2.5v3.3h2.9v-8.1zm-13.7 0c-.6 0-1 .3-1.1.9l-.7 3c-.1.4-.1.8-.2 1.2h-.1c0-.4-.1-.8-.2-1.2l-.7-3c-.1-.6-.5-.9-1.1-.9h-2.5c-.7 0-1 .3-1 1l-.2 7.1h2.7l.2-6h.2l1 3.9c.1.6.5.9 1.1.9h1.3c.6 0 1-.3 1.1-.9l1-3.9h.2l.2 6h2.7l-.2-7.1c0-.7-.3-1-1-1h-2.7zm-13.5 1.9c1 0 1.3.4 1.3 2.2 0 1.8-.3 2.2-1.3 2.2s-1.3-.4-1.3-2.2c.1-1.8.3-2.2 1.3-2.2m0-2.1c-3.2 0-4.4 1.2-4.4 4.3 0 3.1 1.2 4.2 4.4 4.2s4.4-1.1 4.4-4.2-1.2-4.3-4.4-4.3m-8.1 4.1c1.9-.3 1.8-.4 2.8-3.9h-3c-.7 2.7-.7 2.9-1.9 2.9h-.4c.1-.3.1-.7.1-1v-1.9h-3v8.1h3v-2.6c0-.2 0-.4-.1-.7h.7c.9 0 .9.2 1.8 3.2h3.1c-1.1-3.7-1.2-3.7-3.1-4.1zm-13.4-.2h-1.2c-.8 0-.9-.2-.9-1 0-.6.1-.8.9-.8h1.2v1.8zm-3.2 1c-.5 0-1.3.2-1.6.9l-.6 2.6h3l.5-2.2c.1-.4.2-.5.8-.5h1.1v2.6h2.9v-8.2c-1-.1-1.9-.1-4.1-.1-3 0-3.7.6-3.7 2.6 0 1 .4 2 1.7 2.3zm-8.6.7c0-.4.2-.6.7-.6h1.7v1c-.5.3-1.1.6-1.6.6s-.8-.2-.8-.7v-.3zm-2.2-3.2c1.4-.1 2.7-.1 3.5-.1.8 0 1.1.2 1.1.9v.2h-2.7c-1.6 0-2.6.8-2.6 2.1v.8c0 1.5 1.2 2.3 2.7 2.3 1.4 0 2.3-.7 2.9-1.4l.3 1.2h2.4v-5.2c0-2.4-1.2-3.2-3.4-3.2-1.2 0-3.2.2-4.4.4l.2 2zm-2.1-2.2h-4.9c-1.4 0-2.1.7-2.2 2.1-.1 1.5-.3 2.6-.4 3.2-.2.7-.7.6-1.4.8l.3 2.2c1.8.3 3.4-.1 3.7-2.1.2-.8.3-2.2.5-3.4 0-.5.3-.7.8-.7h.7v6.1h3v-8.2zm-9.9 8.2v-8.1h-2.6l-2.6 3.9c-.2.4-.5.7-.6 1.2h-.1c.1-.5.1-.8.1-1.3v-3.8h-2.6v8.1h2.6l2.5-3.7c.2-.4.5-.9.7-1.4h.1c-.1.5-.1 1-.1 1.4v3.6h2.6zm-13.2-6c2.2-.3 2.2-1.3 3.4-5.3h-3.1c-1 3.4-1.2 4.4-2.3 4.4h-.5c.1-.5.1-.9.1-1.4v-3H205v3c0 .5 0 .9.1 1.4h-.6c-1.1 0-1.3-1-2.3-4.4h-3.1c1.2 4 1.2 5 3.4 5.3v.1c-2.3.3-2.4 1.2-3.7 5.8h3.2c1.3-4.1 1.4-4.8 2.5-4.8h.6c-.1.4-.1.7-.1 1v3.8h2.9v-3.8c0-.3 0-.7-.1-1h.5c1.1 0 1.3.7 2.5 4.8h3.2c-1.3-4.6-1.4-5.4-3.7-5.9z" class="st1"/></g><g class="st4"><path d="M103.4 478.6c0-1.3.1-1.9 1.3-1.9 1.3 0 1.4.4 1.4 2.9-.5.3-.9.4-1.4.4-1 0-1.3-.3-1.3-1.4m-2.4 7.2c1.3.3 2.5.3 3.1.3 3.6 0 4.9-.8 4.9-5.9 0-4.6-.8-5.7-4.3-5.7-3.3 0-4.2 1.2-4.2 4.1 0 2.1.7 3.5 3.2 3.5 1 0 1.7-.2 2.3-.7-.1 1.9-.5 2.5-2 2.5h-3v1.9zm-3.4-2.6c-.8 0-1 .2-1 1v.7c0 .8.2 1 1 1h.7c.8 0 1-.2 1-1v-.7c0-.8-.2-1-1-1h-.7zm-2.7-6.3.1-2.3h-7l-.3 5.1c0 .5.3.9.9 1l1.7.2c1.5.1 2.1.3 2 1.4-.1.9-.4 1.3-1.9 1.3-.8 0-1.8 0-2.9-.1l-.3 2.3c1.4.2 2.9.3 4 .3 3.2 0 4.1-1.6 4.1-3.7 0-1.8-.7-3.4-3.3-3.7l-1.9-.2.1-1.6h4.7z" class="st1"/></g><g class="st4"><path d="M141.8 459.5c0-.4.2-.6.7-.6h1.7v1c-.5.3-1.1.6-1.6.6s-.8-.2-.8-.7v-.3zm-2.2-3.2c1.4-.1 2.7-.1 3.5-.1.9 0 1.1.2 1.1.9v.2h-2.7c-1.6 0-2.6.8-2.6 2.1v.8c0 1.5 1.2 2.3 2.7 2.3 1.4 0 2.3-.7 2.9-1.4l.3 1.2h2.4v-5.2c0-2.4-1.2-3.2-3.4-3.2-1.2 0-3.2.2-4.4.4l.2 2zm-2.1-2.1h-2.9v6.1h-1.9v-6.1h-2.6v6.1h-1.9v-6.1h-2.9v8.1h12.2v-8.1zm-13.9 8.1v-8.1H121l-2.6 3.9c-.2.4-.5.7-.6 1.2h-.1c.1-.5.1-.8.1-1.3v-3.8h-2.6v8.1h2.6l2.5-3.7c.2-.4.5-.9.7-1.4h.1c-.1.5-.1 1-.1 1.4v3.6h2.6zm-10.2-8.1h-2.9v2.9H108v-2.9h-2.9v8.1h2.9V459h2.5v3.3h2.9v-8.1zm-10 3h-4.8v1.8h4.8v-1.8zm-9.4.6h-1.2c-.8 0-.9-.2-.9-1 0-.6.1-.8.9-.8H94v1.8zm-3.1 1c-.5 0-1.3.2-1.6.9l-.6 2.6h3l.5-2.2c.1-.4.2-.5.8-.5h1v2.6h2.9V454c-1-.1-1.9-.1-4.1-.1-3 0-3.7.6-3.7 2.6 0 1.1.4 2 1.8 2.3zm-3.4-4.6h-2.9v2.9h-2.5v-2.9h-2.9v8.1h2.9V459h2.5v3.3h2.9v-8.1zm-12.2 8.1h3l-2.4-4.1 2.2-4h-3l-1.6 3-1.6-3h-3l2.2 4-2.4 4.1h3l1.8-3.3 1.8 3.3zm-6.6-8.1h-3.2l-1.2 4.8c-.1.4-.2.9-.3 1.4h-.2c-.1-.5-.1-.9-.2-1.4l-1.2-4.8h-3.2l2.5 7.4c.1.4.5.7.9.7h.5c-.2.4-.5.8-.8 1-.5.3-1.2.4-2.3.3l-.2 1.9c1.2.2 2.4.2 3.3-.2 1.3-.5 2.2-1.3 2.8-3.2l2.8-7.9zm-13.4 2.2c2.2-.3 2.3-1.3 3.5-5.3h-3.1c-.9 3.4-1.1 4.4-2.7 4.4h-.5c.1-.5.1-.9.1-1.4v-3h-3v11.3h3v-3.8c0-.3 0-.7-.1-1h.6c1.6 0 1.7.7 2.9 4.8h3.2c-1.4-4.7-1.5-5.6-3.9-6z" class="st1"/></g><g class="st4"><path d="M111.4 221.6v-11.3h-3.1l-2.9 1.1.4 1.9 2.6-.6c-.1.5-.1.9-.1 1.3v7.5h3.1zm-7.8-2.7c-.8 0-1 .2-1 1v.7c0 .8.2 1 1 1h.7c.8 0 1-.2 1-1v-.7c0-.8-.2-1-1-1h-.7zm-10.5-6.1c1.6-.1 2.4-.1 3.5-.1.9 0 1.2 0 1.2.5 0 .6-.7 1.7-2 2.9l-2.5 2.6c-.3.4-.4.7-.4 1.2v1.6h8.4V219h-3.2c-.5 0-1.1 0-1.6.1l2.8-2.7c1.5-1.6 1.8-2.3 1.8-3.5 0-2.2-1.6-2.7-4-2.7-1.2 0-2.4 0-4 .4v2.2zm-2.1 8.8v-11.3h-3l-2.9 1.1.4 1.9 2.6-.6c-.1.5-.1.9-.1 1.3v7.5h3z" class="st1"/></g><g class="st4"><path d="M156.7 195.2c0-.4.2-.6.7-.6h1.7v1c-.5.3-1.1.6-1.6.6s-.8-.2-.8-.7v-.3zm-2.2-3.2c1.4-.1 2.7-.1 3.5-.1.8 0 1.1.2 1.1.9v.2h-2.7c-1.6 0-2.6.8-2.6 2.1v.8c0 1.5 1.2 2.3 2.7 2.3 1.4 0 2.3-.7 2.9-1.4l.3 1.2h2.4v-5.2c0-2.4-1.2-3.2-3.4-3.2-1.2 0-3.2.2-4.4.4l.2 2zm-1.4.1v-2.2H145v2.2h2.6v5.9h3v-5.9h2.5zm-14.5 3.1c0-.4.2-.6.7-.6h1.7v1c-.5.3-1.1.6-1.6.6s-.8-.2-.8-.7v-.3zm-2.2-3.2c1.4-.1 2.7-.1 3.5-.1.9 0 1.1.2 1.1.9v.2h-2.7c-1.6 0-2.6.8-2.6 2.1v.8c0 1.5 1.2 2.3 2.7 2.3 1.4 0 2.3-.7 2.9-1.4l.3 1.2h2.4v-5.2c0-2.4-1.2-3.2-3.4-3.2-1.2 0-3.2.2-4.4.4l.2 2zm-2-2.2h-2.9v2.9H129v-2.9h-2.9v8.1h2.9v-3.3h2.5v3.3h2.9v-8.1zm-13.7 0c-.6 0-1 .3-1.1.9l-.7 3c-.1.4-.1.8-.2 1.2h-.1c0-.4-.1-.8-.2-1.2l-.7-3c-.1-.6-.5-.9-1.1-.9h-2.5c-.7 0-1 .3-1 1l-.2 7.1h2.7l.2-6h.2l1 3.9c.1.6.5.9 1.1.9h1.3c.6 0 1-.3 1.1-.9l1-3.9h.2l.2 6h2.7l-.2-7.1c0-.7-.3-1-1-1h-2.7zm-13.5 1.9c1 0 1.3.4 1.3 2.2 0 1.8-.3 2.2-1.3 2.2s-1.3-.4-1.3-2.2c0-1.8.3-2.2 1.3-2.2m0-2.1c-3.2 0-4.4 1.2-4.4 4.3 0 3.1 1.2 4.2 4.4 4.2s4.4-1.1 4.4-4.2c-.1-3.1-1.2-4.3-4.4-4.3m-8.2 4.1c1.9-.3 1.8-.4 2.8-3.9h-3c-.7 2.7-.7 2.9-1.9 2.9h-.4c.1-.3.1-.7.1-1v-1.9h-3v8.1h3v-2.6c0-.2 0-.4-.1-.7h.7c.9 0 .9.2 1.8 3.2h3.1c-1.1-3.7-1.1-3.7-3.1-4.1zm-13.4-.2h-1.2c-.8 0-.9-.2-.9-1 0-.6.1-.8.9-.8h1.2v1.8zm-3.1 1c-.5 0-1.3.2-1.6.9l-.6 2.6h3l.5-2.2c.1-.4.2-.5.8-.5h1.1v2.6h2.9v-8.2c-1-.1-1.9-.1-4.1-.1-3 0-3.7.6-3.7 2.6-.1 1 .3 2 1.7 2.3zm-8.7.7c0-.4.2-.6.7-.6h1.7v1c-.5.3-1.1.6-1.6.6s-.8-.2-.8-.7v-.3zm-2.2-3.2c1.4-.1 2.7-.1 3.5-.1.8 0 1.1.2 1.1.9v.2h-2.7c-1.6 0-2.6.8-2.6 2.1v.8c0 1.5 1.2 2.3 2.7 2.3 1.4 0 2.3-.7 2.9-1.4l.3 1.2h2.4v-5.2c0-2.4-1.2-3.2-3.4-3.2-1.2 0-3.2.2-4.4.4l.2 2zm-2-2.2h-4.9c-1.4 0-2.1.7-2.2 2.1-.1 1.5-.3 2.6-.4 3.2-.2.7-.7.6-1.4.8l.3 2.2c1.8.3 3.4-.1 3.7-2.1.2-.8.3-2.2.5-3.4 0-.5.3-.7.8-.7h.7v6.1h3v-8.2zm-10 8.2v-8.1H57l-2.6 3.9c-.2.4-.5.7-.6 1.2h-.1c.1-.5.1-.8.1-1.3v-3.8h-2.6v8.1h2.6l2.5-3.7c.2-.4.5-.9.7-1.4h.1c-.1.5-.1 1-.1 1.4v3.6h2.6zm-13.2-6c2.2-.3 2.2-1.3 3.4-5.3h-3.1c-1 3.4-1.2 4.4-2.3 4.4h-.5c.1-.5.1-.9.1-1.4v-3h-2.9v3c0 .5 0 .9.1 1.4h-.6c-1.1 0-1.3-1-2.3-4.4h-3.1c1.2 4 1.2 5 3.4 5.3v.1c-2.3.3-2.4 1.2-3.7 5.8h3.2c1.3-4.1 1.4-4.8 2.5-4.8h.6c-.1.4-.1.7-.1 1v3.8H44v-3.8c0-.3 0-.7-.1-1h.5c1.1 0 1.3.7 2.5 4.8h3.2c-1.2-4.6-1.4-5.4-3.7-5.9z" class="st1"/></g><g class="st4"><path d="M98.1 305.6c-.9 0-1-.3-1-2 .4-.2.6-.3 1-.3.8 0 .9.2.9 1 .1 1 0 1.3-.9 1.3m2.4-6.3c-.8-.2-1.6-.2-2-.2-2.3 0-3.4.6-3.4 4.2 0 3.2.7 4 3.1 4 2.4 0 2.9-.9 2.9-2.9 0-1.7-.5-2.4-2.3-2.4-.7 0-1.2.1-1.6.5.1-1.5.3-1.7 1.4-1.7h1.9v-1.5zm-7.6 5.8c-.5 0-.7.2-.7.7v.5c0 .5.2.7.7.7h.5c.5 0 .7-.2.7-.7v-.5c0-.5-.2-.7-.7-.7h-.5zm-2.1 1.9v-7.9h-2.1l-2 .8.3 1.4 1.8-.4c-.1.3-.1.6-.1.9v5.2h2.1z" class="st1"/></g><g class="st4"><path d="M103.9 290.5h-2.2l-.8 3.4c-.1.3-.1.6-.2 1h-.1c0-.3-.1-.7-.2-1l-.9-3.4h-2.2l1.8 5.2c.1.3.3.5.7.5h.4c-.1.3-.4.5-.6.7-.4.2-.9.3-1.6.2l-.2 1.3c.8.1 1.7.2 2.3-.1.9-.3 1.5-.9 1.9-2.2l1.9-5.6zm-11.2 6.6 4.5-8.8h-1.6l-4.5 8.8h1.6zm-2.3-2.7c-.7.1-1.4.1-2.5.1-.9 0-1.2-.5-1.2-2.3S87 290 88 290h2.3l.2-1.6c-.8-.2-1.3-.3-2.5-.3-2.5 0-3.5 1.1-3.5 4.1 0 3 .9 4.1 3.5 4.1 1.2 0 1.9-.1 2.7-.4l-.3-1.5z" class="st1"/></g><g class="st4"><path d="m91.7 360.9.1 1.7h3.4c-.2.3-.3.6-.4.8l-1.9 5.3H95l2.4-6.8c.2-.6-.2-1-.8-1h-4.9zm-1.6 5.9c-.5 0-.7.2-.7.7v.5c0 .5.2.7.7.7h.5c.5 0 .7-.2.7-.7v-.5c0-.5-.2-.7-.7-.7h-.5zm-7.1-4.4h2.2c.8 0 1 .1 1 .7 0 .5-.1.9-.9.9h-1.5v1.4h1.5c.8 0 1 .3 1 .9 0 .8-.3.9-1.3.9-.7 0-1.2 0-2.2-.1l-.1 1.5c.9.1 1.9.2 2.8.2 2.1 0 2.9-.7 2.8-2.4 0-1.2-.4-1.8-1.5-2 1-.2 1.3-.9 1.3-2 0-1.4-.7-1.8-2.7-1.8-.9 0-1.7.1-2.6.2l.2 1.6z" class="st1"/></g><g class="st4"><path d="M108.1 354.8h-.8c-.5 0-.6-.1-.6-.7 0-.4.1-.5.6-.5h.8v1.2zm-2.2.7c-.3 0-.9.1-1.1.6l-.4 1.8h2.1l.4-1.5c0-.3.2-.3.5-.3h.8v1.9h2v-5.7c-.7-.1-1.3-.1-2.9-.1-2.1 0-2.6.4-2.6 1.8-.1.6.2 1.2 1.2 1.5zm-6.1.4c0-.3.1-.4.5-.4h1.2v.7c-.4.2-.8.4-1.1.4-.4 0-.6-.2-.6-.5v-.2zm-1.5-2.2c.9-.1 1.9-.1 2.4-.1.6 0 .8.2.8.7v.1h-1.9c-1.1 0-1.8.5-1.8 1.4v.6c0 1.1.9 1.6 1.9 1.6 1 0 1.6-.5 2-1l.2.8h1.7v-3.6c0-1.7-.8-2.2-2.4-2.2-.8 0-2.3.1-3.1.3l.2 1.4zm-1.5-1.5h-2v2h-1.7v-2h-2v5.7h2v-2.3h1.7v2.3h2v-5.7zm-7 0h-2v2H86v-2h-2v5.7h2v-2.3h1.7v2.3h2v-5.7zm-10.7 3.7c0-.3.1-.4.5-.4h1.2v.7c-.4.2-.8.4-1.1.4-.4 0-.6-.2-.6-.5v-.2zm-1.6-2.2c.9-.1 1.9-.1 2.4-.1.6 0 .8.2.8.7v.1h-1.9c-1.1 0-1.8.5-1.8 1.4v.6c0 1.1.9 1.6 1.9 1.6 1 0 1.6-.5 2-1l.2.8h1.7v-3.6c0-1.7-.8-2.2-2.4-2.2-.8 0-2.3.1-3.1.3l.2 1.4zm-5.5 2.8v-2h1.1c.8 0 1 .2 1 1s-.2 1-1 1H72zm0-3.4v-1.7h1c.7 0 .9.2.9.8 0 .7-.2.9-.9.9h-1zm2.6.7c1-.1 1.4-.7 1.4-1.8 0-1.6-.8-2.1-2.9-2.1-1.4 0-2.3 0-3.2.1v7.9c1.1.1 2 .1 3.6.1 1.9 0 2.8-.4 2.8-2.1 0-1.2-.4-2-1.7-2.1z" class="st1"/></g><g class="st4"><path d="M167.6 361h3.1c1.1 0 1.5.1 1.5 1.1 0 .8-.1 1.2-1.3 1.2h-2.2v2h2.2c1.2 0 1.5.4 1.5 1.3 0 1.1-.4 1.4-1.9 1.4-1 0-1.7 0-3.1-.1l-.1 2.2c1.3.2 2.7.3 4 .3 3 0 4.1-1 4-3.4 0-1.7-.5-2.6-2.1-2.8v-.2c1.5-.2 1.8-1.2 1.8-2.8 0-2-1-2.6-3.8-2.6-1.2 0-2.5.1-3.8.3l.2 2.1zm-3.3 6.3c-.8 0-1 .2-1 1v.7c0 .8.2 1 1 1h.7c.8 0 1-.2 1-1v-.7c0-.8-.2-1-1-1h-.7zm-10.2-6.3h3.1c1.1 0 1.5.1 1.5 1.1 0 .8-.1 1.2-1.3 1.2h-2.2v2h2.2c1.2 0 1.5.4 1.5 1.3 0 1.1-.4 1.4-1.9 1.4-1 0-1.7 0-3.1-.1l-.1 2.2c1.3.2 2.7.3 4 .3 3 0 4.1-1 4-3.4 0-1.7-.5-2.6-2.1-2.8v-.2c1.5-.2 1.8-1.2 1.8-2.8 0-2-1-2.6-3.8-2.6-1.2 0-2.5.1-3.8.3l.2 2.1z" class="st1"/></g><g class="st4"><path d="M194 340.8c.5-.3.9-.5 1.5-.5.8 0 1.1.3 1.1 2.2 0 1.9-.3 2.1-1.2 2.1-.6 0-1-.1-1.4-.3v-3.5zm-.6-2.5H191v11.1h3v-3.6c.7.5 1.6.7 2.6.7 2 0 3.1-.9 3.1-4.2 0-2.8-.8-4.3-2.9-4.3-1.3 0-2.5.6-3.1 1.3l-.3-1zm-8.1 1.8c1 0 1.3.4 1.3 2.2 0 1.8-.3 2.2-1.3 2.2s-1.3-.4-1.3-2.2c0-1.8.3-2.2 1.3-2.2m0-2c-3.2 0-4.4 1.2-4.4 4.3 0 3.1 1.2 4.2 4.4 4.2s4.4-1.1 4.4-4.2c-.1-3.2-1.2-4.3-4.4-4.3m-9.3 6.3h-2.4c.4-.9.7-2.1.9-3.6 0-.5.3-.7.7-.7h.7v4.3zm4.1 0h-1.4v-6.1h-4.5c-1.5 0-2.2.7-2.4 2-.2 1.4-.5 2.8-1 4.1h-1v4.2h2l.2-2.3h5.8l.2 2.3h2v-4.2zm-11.3 2v-8.1h-2.6l-2.6 3.9c-.2.4-.5.7-.6 1.2.1-.5.1-.8.1-1.3v-3.8h-2.6v8.1h2.6l2.5-3.7c.2-.4.5-.9.7-1.4h.1c-.1.5-.1 1-.1 1.4v3.6h2.5zm-15.4-5.6c.5-.3.9-.5 1.5-.5.8 0 1.1.3 1.1 2.2 0 1.9-.3 2.1-1.2 2.1-.6 0-1-.1-1.4-.3v-3.5zm-.6-2.5h-2.4v11.1h3v-3.6c.7.5 1.6.7 2.6.7 2 0 3.1-.9 3.1-4.2 0-2.8-.8-4.3-2.9-4.3-1.3 0-2.5.6-3.1 1.3l-.3-1zm-8.1 1.8c1 0 1.3.4 1.3 2.2 0 1.8-.3 2.2-1.3 2.2s-1.3-.4-1.3-2.2c0-1.8.3-2.2 1.3-2.2m0-2c-3.2 0-4.4 1.2-4.4 4.3 0 3.1 1.2 4.2 4.4 4.2s4.4-1.1 4.4-4.2c-.1-3.2-1.3-4.3-4.4-4.3m-8.9 2.4c2.2-.3 2.3-1.3 3.5-5.3h-3.1c-.9 3.4-1.1 4.4-2.7 4.4h-.5c.1-.5.1-.9.1-1.4v-3h-3v11.3h3v-3.8c0-.3 0-.7-.1-1h.6c1.6 0 1.7.7 2.9 4.8h3.2c-1.4-4.7-1.5-5.6-3.9-6z" class="st1"/></g><g class="st4"><path d="M269 373.2h3.1c1.1 0 1.5.1 1.5 1.1 0 .8-.1 1.2-1.3 1.2h-2.2v2h2.2c1.2 0 1.5.4 1.5 1.3 0 1.1-.4 1.4-1.9 1.4-1 0-1.7 0-3.1-.1l-.1 2.2c1.3.2 2.7.3 4 .3 3 0 4.1-1 4-3.4 0-1.7-.5-2.6-2.1-2.8v-.1c1.5-.2 1.8-1.2 1.8-2.8 0-2-1-2.6-3.8-2.6-1.2 0-2.5.1-3.8.3l.2 2zm-3.3 6.2c-.8 0-1 .2-1 1v.7c0 .8.2 1 1 1h.7c.8 0 1-.2 1-1v-.7c0-.8-.2-1-1-1h-.7zm-9.5-8.4.1 2.5h4.9c-.3.4-.4.8-.6 1.2l-2.7 7.6h3l3.4-9.8c.3-.8-.3-1.5-1.1-1.5h-7z" class="st1"/></g><g class="st4"><path d="M304.6 354.1h-1.2c-.8 0-.9-.2-.9-1 0-.6.1-.8.9-.8h1.2v1.8zm-3.2 1c-.5 0-1.3.2-1.6.9l-.6 2.6h3l.5-2.2c.1-.4.2-.5.8-.5h1.1v2.6h2.9v-8.2c-1-.1-1.9-.1-4.1-.1-3 0-3.7.6-3.7 2.6 0 1 .4 2 1.7 2.3zm-8.6.6c0-.4.2-.6.7-.6h1.7v1c-.5.3-1.1.6-1.6.6s-.8-.2-.8-.7v-.3zm-2.2-3.2c1.4-.1 2.7-.1 3.5-.1.8 0 1.1.2 1.1.9v.2h-2.7c-1.6 0-2.6.8-2.6 2.1v.8c0 1.5 1.2 2.3 2.7 2.3 1.4 0 2.3-.7 2.9-1.4l.3 1.2h2.4v-5.2c0-2.4-1.2-3.2-3.4-3.2-1.2 0-3.2.2-4.4.4l.2 2zm-4.5 1.8c1.9-.2 1.8-.5 2.9-3.8h-3c-.8 2.7-.9 3-1.8 3h-.5c.1-.3.1-.7.1-1v-1.9h-2.6v1.9c0 .3 0 .7.1 1h-.5c-.8 0-.9-.3-1.8-3h-2.9c1.1 3.3 1 3.6 2.9 3.8v.1c-2 .3-2 .4-3.2 4.2h3c1-3.1 1.1-3.2 1.8-3.3h.7c-.1.2-.1.5-.1.7v2.6h2.6V356c0-.2 0-.4-.1-.7h.6c.7 0 .8.2 1.8 3.3h3c-1.1-3.8-1.1-4-3-4.3zm-15.2-2c1 0 1.3.4 1.3 2.2 0 1.8-.3 2.2-1.3 2.2s-1.3-.4-1.3-2.2c0-1.8.3-2.2 1.3-2.2m0-2.1c-3.2 0-4.4 1.2-4.4 4.3 0 3.1 1.2 4.2 4.4 4.2s4.4-1.1 4.4-4.2c-.1-3.1-1.2-4.3-4.4-4.3m-7.7 8.3h3l-2.4-4.1 2.2-4h-3l-1.6 3-1.6-3h-3l2.2 4-2.4 4.1h3l1.8-3.3 1.8 3.3zm-7.5.1v-8.1h-2.6l-2.6 3.9c-.2.4-.5.7-.6 1.2h-.1c.1-.5.1-.8.1-1.3v-3.8h-2.6v8.1h2.6l2.5-3.7c.2-.4.5-.9.7-1.4h.1c-.1.5-.1 1-.1 1.4v3.6h2.6zm-15.4-5.7c.5-.3.9-.5 1.5-.5.8 0 1.1.3 1.1 2.2 0 1.9-.3 2.1-1.2 2.1-.6 0-1-.1-1.4-.3v-3.5zm-.6-2.5h-2.4v11.1h3v-1.8c0-.6 0-1.2-.1-1.8.7.5 1.6.7 2.6.7 2 0 3.1-.9 3.1-4.2 0-2.8-.8-4.3-2.9-4.3-1.3 0-2.5.6-3.1 1.3l-.2-1zm-4.3-3.1H226v11.3h3.1v-9.2h3.3v9.2h3.1v-11.3z" class="st1"/></g><g class="st4"><path d="M94.5 79.3c1.2 0 1.5.3 1.5 1.5 0 1.1-.3 1.4-1.5 1.4-1.3 0-1.6-.3-1.6-1.4 0-1.2.3-1.5 1.6-1.5m-.1-4.6c1.1 0 1.4.2 1.4 1.4 0 1-.2 1.2-1.4 1.2s-1.4-.2-1.4-1.2c0-1.2.3-1.4 1.4-1.4M92 78.3c-1.6.1-2 1.5-2 3 0 2.2.9 3.1 4.4 3 3.6 0 4.4-.8 4.4-3 0-1.5-.4-2.9-2-3v-.1c1.2-.1 1.7-1.4 1.7-2.6 0-2.1-.7-3-4.1-3-3.4 0-4.1.9-4.1 3 0 1.3.5 2.5 1.7 2.7zm-5.1 3c-.8 0-1 .2-1 1v.8c0 .6.3.9.9.9 0 .7-.1 1.5-.3 2.2l1.1.4c.6-.9 1-1.7 1-3.2v-1c0-.8-.3-1-1-1h-.7zm-6.8-2c1.2 0 1.5.3 1.5 1.5 0 1.1-.3 1.4-1.5 1.4-1.3 0-1.6-.3-1.6-1.4 0-1.2.3-1.5 1.6-1.5m0-4.6c1.1 0 1.4.2 1.4 1.4 0 1-.2 1.2-1.4 1.2s-1.4-.2-1.4-1.2c0-1.2.3-1.4 1.4-1.4m-2.4 3.6c-1.6.1-2 1.5-2 3 0 2.2.9 3.1 4.4 3 3.6 0 4.4-.8 4.4-3 0-1.5-.4-2.9-2-3v-.1c1.2-.1 1.7-1.4 1.7-2.6 0-2.1-.7-3-4.1-3-3.4 0-4.1.9-4.1 3 0 1.3.4 2.5 1.7 2.7z" class="st1"/></g><g class="st4"><path d="M116 56h-1.2c-.8 0-.9-.2-.9-1 0-.6.1-.8.9-.8h1.2V56zm-3.2 1c-.5 0-1.3.2-1.6.9l-.6 2.6h3l.5-2.2c.1-.4.2-.5.8-.5h1.1v2.6h2.9v-8.2c-1-.1-1.9-.1-4.1-.1-3 0-3.7.6-3.7 2.6-.1 1 .3 2 1.7 2.3zm-3.4 3.5v-8.1h-2.6l-2.6 3.9c-.2.4-.5.7-.6 1.2h-.1c.1-.5.1-.8.1-1.3v-3.8H101v8.1h2.6l2.5-3.7c.2-.4.5-.9.7-1.4h.1c-.1.5-.1 1-.1 1.4v3.6h2.6zm-12.6-4.3c1.9-.2 1.8-.5 2.9-3.8h-2.9c-.9 2.7-.9 3-1.8 3h-.5c.1-.3.1-.7.1-1v-1.9H92v1.9c0 .3 0 .7.1 1h-.5c-.8 0-.9-.3-1.8-3h-2.9c1.1 3.3 1 3.6 2.9 3.8v.1c-2 .3-2 .4-3.2 4.2h3c1-3.1 1.1-3.2 1.8-3.3h.7c-.1.2-.1.5-.1.7v2.6h2.6v-2.6c0-.2 0-.4-.1-.7h.6c.7 0 .8.2 1.8 3.3h3c-1.1-3.8-1.2-4-3.1-4.3zM82 58.5h-2.4c.4-.9.7-2.1.9-3.6.1-.5.3-.7.7-.7h.8v4.3zm4.2 0h-1.4v-6.1h-4.5c-1.5 0-2.2.7-2.4 2-.2 1.4-.5 2.8-1 4.1h-1v4.2h2l.2-2.3H84l.2 2.3h2v-4.2zm-15.1-4.3c1 0 1.3.4 1.3 2.2 0 1.8-.3 2.2-1.3 2.2s-1.3-.4-1.3-2.2c0-1.8.3-2.2 1.3-2.2m0-2.1c-3.2 0-4.4 1.2-4.4 4.3 0 3.1 1.2 4.2 4.4 4.2s4.4-1.1 4.4-4.2c-.1-3.1-1.2-4.3-4.4-4.3m-6-2.9H60c-1.7 0-2.7.9-2.8 2.7-.2 2.6-.4 4.2-.8 5.2-.3.8-.8 1-1.6 1.1l.2 2.4c2 .3 3.5-.3 4.2-2.6.5-1.4.7-3.4.9-5.8 0-.6.3-.8.9-.8h1v9.2h3.1V49.2z" class="st1"/></g><g class="st4"><path d="M100.9 554.2c-13 0-23.6-10.6-23.6-23.6 0-13 10.6-23.6 23.6-23.6s23.6 10.6 23.6 23.6c0 13-10.6 23.6-23.6 23.6zm0-45.8c-12.2 0-22.2 9.9-22.2 22.2 0 12.2 9.9 22.2 22.2 22.2s22.2-9.9 22.2-22.2c-.1-12.2-10-22.2-22.2-22.2z" class="st1"/></g><g class="st4"><path d="M92.3 523c1.9 0 4.5-.1 7.1-.1 2.6 0 3.3.3 3.3 2.4 0 1.7-.2 2.8-3 2.8h-4.9v4.4h4.9c2.7 0 3.3.8 3.3 3 0 2.6-1 3.1-4.2 3.1-2.2 0-3.8 0-7-.2l-.2 5c2.9.4 6.1.7 9.1.7 6.7 0 9.2-2.2 9.1-7.6 0-3.9-1.1-5.8-4.7-6.4v-.1c3.3-.5 4-2.8 4-6.4 0-4.5-2.4-5.9-8.6-5.9-2.8 0-5.6.2-8.5.7l.3 4.6z" class="st1"/></g><g class="st4"><path d="M118.3 565c1.9 0 4.5-.1 7.1-.1 2.6 0 3.3.3 3.3 2.4 0 1.7-.2 2.8-3 2.8h-4.9v4.4h4.9c2.7 0 3.3.8 3.3 3 0 2.6-1 3.1-4.2 3.1-2.2 0-3.8 0-7-.2l-.2 5c2.9.4 6.1.7 9.1.7 6.7 0 9.2-2.2 9.1-7.6 0-3.9-1.1-5.8-4.7-6.4v-.1c3.3-.5 4-2.8 4-6.4 0-4.5-2.4-5.9-8.6-5.9-2.8 0-5.6.2-8.5.7l.3 4.6zm-7.4 14.2c-1.8 0-2.3.6-2.3 2.3v1.6c0 1.8.6 2.3 2.3 2.3h1.6c1.8 0 2.3-.6 2.3-2.3v-1.6c0-1.8-.6-2.3-2.3-2.3h-1.6zm-6.1-14 .3-5.1h-16l-.7 11.4c-.1 1.2.8 2.1 2 2.3l3.9.5c3.4.3 4.7.8 4.6 3.2-.1 2.1-.9 2.9-4.2 2.9-1.8 0-4.2-.1-6.6-.3l-.6 5.2c3.2.5 6.5.7 9 .7 7.2 0 9.2-3.7 9.2-8.3 0-4.1-1.5-7.7-7.4-8.4l-4.2-.6.3-3.5h10.4zm-29 15.7c-2.9 0-3.2-.9-3.3-6.6 1.2-.7 2-1 3.2-1 2.4 0 3 .6 3 3.3 0 3.2-.1 4.3-2.9 4.3m7.7-20.5c-2.6-.7-5.2-.7-6.6-.7-7.4 0-11.1 1.8-11.1 13.4 0 10.3 2.3 12.9 9.9 12.9 7.8 0 9.5-3 9.5-9.3 0-5.6-1.7-7.9-7.4-7.9-2.2 0-3.8.4-5.2 1.5.2-4.7 1.1-5.6 4.4-5.6h6.3l.2-4.3z" class="st1"/></g><g class="st4"><path d="M36 687h120v.8H36z" class="st1"/></g><path d="M36 682.3h120v.8H36zm0-14.4h120v.8H36zm-2.2-347.7H18.5v-40.8h15.3v40.8zm-14.5-.8H33v-39.1H19.3v39.1z" class="st1"/><path d="M20.6 280h.8v40.2h-.8z" class="st1"/><path d="m21 290-.1-.8 9.7-1.1v-4.5l-9.7-1.1.1-.9 10.4 1.2v6zm.1 28.6-.1-.9 9.6-.8v-24.3l-9.6-.9.1-.8 10.3 1v25.7zM33.3 457H18v-40.8h15.3V457zm-14.5-.8h13.7v-39.1H18.8v39.1z" class="st1"/><path d="M20 416.2h.8v40.2H20z" class="st1"/><path d="m20.5 454.8-.1-.8 9.7-1.1v-4.5l-9.7-1.1.1-.8 10.4 1.2v5.9zm.1-9.3-.1-.8 9.6-.8v-24.3l-9.6-.9.1-.8 10.3.9v25.8z" class="st1"/><defs><path id="SVGID_7_" d="M7.8 17.2h344.6v671.4H7.8z"/></defs><clipPath id="SVGID_8_"><use xlink:href="#SVGID_7_" style="overflow:visible"/></clipPath><g class="st5"><path d="M45.1 309.1h-5.9c-1.6 0-2-1.3-2-2V292c0-1.6 1.3-2 2-2h5.9c1.6 0 2 1.3 2 2v15.2c0 1.5-1.3 1.9-2 1.9zm-5.8-18.3c-.2 0-1.2.1-1.2 1.2v15.2c0 .2.1 1.2 1.2 1.2h5.9c.2 0 1.2-.1 1.2-1.2V292c0-.2-.1-1.2-1.2-1.2h-5.9z" class="st1"/></g><g class="st5"><path d="M59.9 306.8c-4.1 0-7.4-3.1-7.4-6.9 0-3.8 3.3-6.9 7.4-6.9s7.4 3.1 7.4 6.9c0 3.8-3.3 6.9-7.4 6.9zm0-13c-3.6 0-6.6 2.7-6.6 6.1 0 3.4 3 6.1 6.6 6.1 3.6 0 6.6-2.7 6.6-6.1 0-3.4-3-6.1-6.6-6.1z" class="st1"/></g><g class="st5"><path d="M59.8 308.4c-.5 0-1.1 0-1.7-.1h-.3l-11.7-1.8v-14l11.8-1.4c.6-.1 1.2-.2 1.9-.2 5.1 0 9.3 3.9 9.3 8.8s-4.1 8.7-9.3 8.7zm-2.2-1 .5.1c.6.1 1.2.2 1.8.2 4.7 0 8.5-3.6 8.5-7.9s-3.8-7.9-8.5-7.9c-.6 0-1.2.1-1.7.2L47 293.2v12.5l10.6 1.7z" class="st1"/></g><g class="st5"><path d="M40.7 300.8c-.7 0-1.2-.5-1.2-1.2s.5-1.2 1.2-1.2 1.2.5 1.2 1.2c.1.6-.5 1.2-1.2 1.2zm0-1.6c-.2 0-.4.2-.4.4s.2.4.4.4.4-.2.4-.4c0-.3-.1-.4-.4-.4z" class="st1"/></g><g class="st5"><path d="M56.4 301.7c-1 0-1.9-.8-1.9-1.9 0-1 .8-1.8 1.9-1.8 1 0 1.9.8 1.9 1.8 0 1.1-.9 1.9-1.9 1.9zm0-2.8c-.6 0-1 .5-1 1 0 .6.5 1 1 1 .6 0 1-.5 1-1 .1-.6-.4-1-1-1z" class="st1"/></g><path d="M41.5 296.8h-1.6c-.2 0-.4-.2-.4-.4s.2-.4.4-.4h1.6c.2 0 .4.2.4.4.1.2-.1.4-.4.4z" class="st1"/><path d="M40.7 297.6c-.2 0-.4-.2-.4-.4v-1.6c0-.2.2-.4.4-.4s.4.2.4.4v1.6c0 .2-.1.4-.4.4zm.8 5.5h-1.6c-.2 0-.4-.2-.4-.4s.2-.4.4-.4h1.6c.2 0 .4.2.4.4s-.1.4-.4.4z" class="st1"/><path d="M40.7 303.9c-.2 0-.4-.2-.4-.4v-1.6c0-.2.2-.4.4-.4s.4.2.4.4v1.6c0 .2-.1.4-.4.4zm9.7.6h-1.6c-.2 0-.4-.2-.4-.4s.2-.4.4-.4h1.6c.2 0 .4.2.4.4s-.2.4-.4.4z" class="st1"/><path d="M49.6 305.3c-.2 0-.4-.2-.4-.4v-1.6c0-.2.2-.4.4-.4s.4.2.4.4v1.6c0 .3-.2.4-.4.4zm.8-9.9h-1.6c-.2 0-.4-.2-.4-.4s.2-.4.4-.4h1.6c.2 0 .4.2.4.4s-.2.4-.4.4z" class="st1"/><path d="M49.6 296.2c-.2 0-.4-.2-.4-.4v-1.6c0-.2.2-.4.4-.4s.4.2.4.4v1.6c0 .2-.2.4-.4.4z" class="st1"/><defs><path id="SVGID_9_" d="M7.8 17.2h344.6v671.4H7.8z"/></defs><clipPath id="SVGID_10_"><use xlink:href="#SVGID_9_" style="overflow:visible"/></clipPath><path d="M63.8 443.9h-29v-27.6h29v27.6zm-28.1-.9H63v-25.9H35.7V443zm22.3-1.7H40.6c-1.8 0-3.3-1.5-3.3-3.3v-11.8c0-1.8 1.5-3.3 3.3-3.3H58c1.8 0 3.3 1.5 3.3 3.3V438c.1 1.8-1.4 3.3-3.3 3.3zm-17.4-17.7c-1.4 0-2.5 1.1-2.5 2.5V438c0 1.4 1.1 2.5 2.5 2.5H58c1.4 0 2.5-1.1 2.5-2.5v-11.8c0-1.4-1.1-2.5-2.5-2.5H40.6zm8.8 5.6c-.9 0-1.6-.7-1.6-1.6 0-.9.7-1.6 1.6-1.6.9 0 1.6.7 1.6 1.6.1.9-.7 1.6-1.6 1.6zm0-2.4c-.4 0-.8.4-.8.8s.4.8.8.8.8-.4.8-.8-.3-.8-.8-.8zm0-5.5c-.9 0-1.6-.7-1.6-1.6 0-.9.7-1.6 1.6-1.6.9 0 1.6.7 1.6 1.6.1.9-.7 1.6-1.6 1.6zm0-2.5c-.4 0-.8.4-.8.8s.4.8.8.8.8-.4.8-.8-.3-.8-.8-.8z" class="st1" style="clip-path:url(#SVGID_10_)"/><path d="M16.2 324.9h.8v82.3h-.8zm35.2 0h.8v82.7h-.8z" class="st1"/><defs><path id="SVGID_11_" d="M7.8 17.2h344.6v671.4H7.8z"/></defs><clipPath id="SVGID_12_"><use xlink:href="#SVGID_11_" style="overflow:visible"/></clipPath><g class="st7"><path d="M44.6 401H24.2c-2.5 0-4.5-2.3-4.5-5.2v-59.1c0-2.9 2-5.2 4.5-5.2h20.4c2.5 0 4.5 2.3 4.5 5.2v59.1c.1 2.9-2 5.2-4.5 5.2zm-20.4-68.7c-2 0-3.7 2-3.7 4.4v59.1c0 2.4 1.7 4.4 3.7 4.4h20.4c2 0 3.7-2 3.7-4.4v-59.1c0-2.4-1.7-4.4-3.7-4.4H24.2zm15.2 57.2h-9.8c-2.9 0-5.3-2.4-5.3-5.4v-41.3c0-3 2.4-5.4 5.3-5.4h9.8c2.9 0 5.3 2.4 5.3 5.4v41.3c-.1 3-2.4 5.4-5.3 5.4zm-9.8-51.2c-2.4 0-4.4 2-4.4 4.5v41.3c0 2.5 2 4.5 4.4 4.5h9.8c2.4 0 4.4-2 4.4-4.5v-41.3c0-2.5-2-4.5-4.4-4.5h-9.8z" class="st1"/></g><g class="st7"><path d="M34.4 343.4c-.8 0-1.4-.6-1.4-1.4 0-.8.6-1.4 1.4-1.4s1.4.6 1.4 1.4c.1.7-.6 1.4-1.4 1.4zm0-2.1c-.3 0-.6.3-.6.6s.3.6.6.6.6-.3.6-.6-.2-.6-.6-.6z" class="st1"/></g><path d="M181.4 498.1h-.3v-1.5h.3v1.5zm-.7 0h-.3v-1.5h.3v1.5zm-.8 0h-.3v-1.5h.3v1.5zm-.8 0h-.3v-1.5h.3v1.5zm-.8 0h-.3v-1.5h.3v1.5zm-.7 0h-.3v-1.5h.3v1.5zm-.8 0h-.3v-1.5h.3v1.5zm-.8 0h-.3v-1.5h.3v1.5zm-.7 0h-.3v-1.5h.3v1.5zm-.8 0h-.3v-1.5h.3v1.5zm-.8 0h-.3v-1.5h.3v1.5zm-.7 0h-.3v-1.5h.3v1.5zm-.8 0h-.3v-1.5h.3v1.5zm-.8 0h-.3v-1.5h.3v1.5zm-.7 0h-.3v-1.5h.3v1.5zm-.8 0h-.3v-1.5h.3v1.5zm-.8 0h-.3v-1.5h.3v1.5zm-.7 0h-.3v-1.5h.3v1.5zm-.8 0h-.3v-1.5h.3v1.5zm-.8 0h-.3v-1.5h.3v1.5zm-.7 0h-.3v-1.5h.3v1.5zm-.8 0h-.3v-1.5h.3v1.5zm-.8 0h-.3v-1.5h.3v1.5zm-.7 0h-.3v-1.5h.3v1.5zm-.8 0h-.3v-1.5h.3v1.5zm-.8 0h-.2v-1.5h.3v1.5zm-.7 0h-.3v-1.5h.3v1.5zm-.8 0h-.3v-1.5h.3v1.5zm-.8 0h-.3v-1.5h.3v1.5zm-.7 0h-.3v-1.5h.3v1.5zm-.8 0h-.3v-1.5h.3v1.5zm-.8 0h-.3v-1.5h.3v1.5zm-.7 0h-.3v-1.5h.3v1.5zm-.8 0h-.3v-1.5h.3v1.5zm-.8 0h-.3v-1.5h.3v1.5zm-.7 0h-.3v-1.5h.3v1.5zm-.8 0h-.3v-1.5h.3v1.5zm-.8 0h-.3v-1.5h.3v1.5zm-.7 0h-.3v-1.5h.3v1.5zm-.8 0h-.3v-1.5h.3v1.5zm-.8 0h-.3v-1.5h.3v1.5zm-.7 0h-.3v-1.5h.3v1.5zm-.8 0h-.3v-1.5h.3v1.5zm-.8 0h-.3v-1.5h.3v1.5zm-.7 0h-.3v-1.5h.3v1.5zm-.8 0h-.3v-1.5h.3v1.5zm-.8 0h-.3v-1.5h.3v1.5zm-.7 0h-.3v-1.5h.3v1.5zm-.8 0h-.3v-1.5h.3v1.5zm-.8 0h-.3v-1.5h.3v1.5zm-.7 0h-.3v-1.5h.3v1.5zm-.8 0h-.3v-1.5h.3v1.5zm-.8 0h-.3v-1.5h.3v1.5zm-.7 0h-.3v-1.5h.3v1.5zm-.8 0h-.3v-1.5h.3v1.5zm-.8 0h-.2v-1.5h.3v1.5zm-.7 0h-.3v-1.5h.3v1.5zm-.8 0h-.3v-1.5h.3v1.5zm-.8 0h-.3v-1.5h.3v1.5zm-.7 0h-.3v-1.5h.3v1.5zm-.8 0h-.3v-1.5h.3v1.5zm-.8 0h-.3v-1.5h.3v1.5zm-.7 0h-.3v-1.5h.3v1.5zm-.8 0h-.3v-1.5h.3v1.5zm-.8 0h-.3v-1.5h.3v1.5zm-.7 0h-.3v-1.5h.3v1.5zm-.8 0h-.3v-1.5h.3v1.5zm-.8 0h-.3v-1.5h.3v1.5zm-.7 0h-.3v-1.5h.3v1.5zm-.8 0h-.3v-1.5h.3v1.5zm-.8 0h-.3v-1.5h.3v1.5zm-.7 0h-.3v-1.5h.3v1.5zm-.8 0h-.3v-1.5h.3v1.5zm-.8 0h-.3v-1.5h.3v1.5zm-.7 0h-.3v-1.5h.3v1.5zm-.8 0h-.3v-1.5h.3v1.5zm-.8 0h-.3v-1.5h.3v1.5zm-.7 0h-.3v-1.5h.3v1.5zm-.8 0h-.3v-1.5h.3v1.5zm-.8 0h-.3v-1.5h.3v1.5zm-.7 0h-.3v-1.5h.3v1.5zm-.8 0h-.3v-1.5h.3v1.5zm-.8 0h-.3v-1.5h.3v1.5zm-.7 0h-.3v-1.5h.3v1.5zm-.8 0h-.3v-1.5h.3v1.5zm-.8 0h-.3v-1.5h.3v1.5zm-.7 0h-.3v-1.5h.3v1.5zm-.8 0h-.3v-1.5h.3v1.5zm-.8 0h-.3v-1.5h.3v1.5zm-.7 0h-.3v-1.5h.3v1.5zm-.8 0h-.3v-1.5h.3v1.5zm-.8 0h-.3v-1.5h.3v1.5zm-.7 0h-.3v-1.5h.3v1.5zm-.8 0h-.3v-1.5h.3v1.5zm-.8 0h-.3v-1.5h.3v1.5zm-.7 0h-.3v-1.5h.3v1.5zm-.8 0h-.3v-1.5h.3v1.5zm-.8 0h-.3v-1.5h.3v1.5zm-.7 0h-.3v-1.5h.3v1.5zm-.8 0h-.3v-1.5h.3v1.5zm-.8 0h-.3v-1.5h.3v1.5zm-.7 0h-.3v-1.5h.3v1.5zm-.8 0h-.3v-1.5h.3v1.5zm-.8 0h-.3v-1.5h.3v1.5zm-.7 0h-.3v-1.5h.3v1.5zm-.8 0h-.3v-1.5h.3v1.5zm-.8 0h-.3v-1.5h.3v1.5zm-.7 0h-.3v-1.5h.3v1.5zm-.8 0h-.3v-1.5h.3v1.5zm-.8 0h-.3v-1.5h.3v1.5zm-.7 0h-.3v-1.5h.3v1.5zm-.8 0H96v-1.5h.3v1.5zm-.8 0h-.3v-1.5h.3v1.5zm-.7 0h-.3v-1.5h.3v1.5zm-.8 0h-.3v-1.5h.3v1.5zm-.8 0h-.3v-1.5h.3v1.5zm-.7 0h-.3v-1.5h.3v1.5zm-.8 0h-.3v-1.5h.3v1.5zm-.8 0h-.3v-1.5h.3v1.5zm-.7 0h-.3v-1.5h.3v1.5zm-.8 0h-.3v-1.5h.3v1.5zm-.8 0h-.3v-1.5h.3v1.5zm-.7 0h-.3v-1.5h.3v1.5zm-.8 0h-.3v-1.5h.3v1.5zm-.8 0H86v-1.5h.3v1.5zm-.7 0h-.3v-1.5h.3v1.5zm-.8 0h-.3v-1.5h.3v1.5zm-.8 0h-.3v-1.5h.3v1.5zm-.7 0H83v-1.5h.3v1.5zm-.8 0h-.3v-1.5h.3v1.5zm-.8 0h-.3v-1.5h.3v1.5zm-.7 0h-.3v-1.5h.3v1.5zm-.8 0h-.3v-1.5h.3v1.5zm-.8 0h-.3v-1.5h.3v1.5zm-.7 0h-.3v-1.5h.3v1.5zm-.8 0h-.3v-1.5h.3v1.5zm-.8 0h-.3v-1.5h.3v1.5zm-.7 0h-.3v-1.5h.3v1.5zm-.8 0h-.3v-1.5h.3v1.5zm-.8 0h-.3v-1.5h.3v1.5zm-.7 0h-.3v-1.5h.3v1.5zm-.8 0H73v-1.5h.3v1.5zm-.8 0h-.3v-1.5h.3v1.5zm-.8 0h-.3v-1.5h.3v1.5zm-.7 0h-.3v-1.5h.3v1.5zm-.8 0h-.3v-1.5h.3v1.5zm-.8 0h-.3v-1.5h.3v1.5zm-.7 0h-.3v-1.5h.3v1.5zm-.8 0h-.3v-1.5h.3v1.5zm-.8 0h-.3v-1.5h.3v1.5zm-.7 0h-.3v-1.5h.3v1.5zm-.8 0h-.3v-1.5h.3v1.5zm-.8 0h-.3v-1.5h.3v1.5zm-.7 0h-.3v-1.5h.3v1.5zm-.8 0H63v-1.5h.3v1.5zm-.8 0h-.3v-1.5h.3v1.5zm-.7 0h-.3v-1.5h.3v1.5zm-.8 0h-.3v-1.5h.3v1.5zm-.8 0H60v-1.5h.3v1.5zm-.7 0h-.3v-1.5h.3v1.5zm-.8 0h-.3v-1.5h.3v1.5zm-.8 0h-.3v-1.5h.3v1.5zm-.7 0h-.3v-1.5h.3v1.5zm-.8 0h-.3v-1.5h.3v1.5zm-.8 0h-.3v-1.5h.3v1.5zm-.7 0h-.3v-1.5h.3v1.5zm-.8 0h-.3v-1.5h.3v1.5zm-.8 0H53v-1.5h.3v1.5zm-.7 0h-.3v-1.5h.3v1.5zm-.8 0h-.3v-1.5h.3v1.5zm-.8 0h-.3v-1.5h.3v1.5zm-.7 0H50v-1.5h.3v1.5zm-.8 0h-.3v-1.5h.3v1.5zm-.8 0h-.3v-1.5h.3v1.5zm-.7 0h-.3v-1.5h.3v1.5zm-.8 0h-.3v-1.5h.3v1.5zm-.8 0h-.3v-1.5h.3v1.5zm-.7 0h-.3v-1.5h.3v1.5zm-.8 0h-.3v-1.5h.3v1.5zm-.8 0h-.3v-1.5h.3v1.5zm-.7 0h-.3v-1.5h.3v1.5zm-.8 0h-.3v-1.5h.3v1.5zm-.8 0h-.3v-1.5h.3v1.5zm-.7 0h-.3v-1.5h.3v1.5zm-.8 0H40v-1.5h.3v1.5zm-.8 0h-.3v-1.5h.3v1.5zm-.7 0h-.3v-1.5h.3v1.5zm-.8 0h-.3v-1.5h.3v1.5zm-.8 0H37v-1.5h.3v1.5zm-.7 0h-.3v-1.5h.3v1.5zm-.8 0h-.3v-1.5h.3v1.5zm-.8 0h-.3v-1.5h.3v1.5zm-.7 0h-.3v-1.5h.3v1.5zm-.8 0h-.3v-1.5h.3v1.5zm-.8 0h-.3v-1.5h.3v1.5zm-.7 0h-.3v-1.5h.3v1.5zm-.8 0h-.3v-1.5h.3v1.5zm-.8 0H30v-1.5h.3v1.5zm-.7 0h-.3v-1.5h.3v1.5zm-.8 0h-.3v-1.5h.3v1.5zm-.8 0h-.3v-1.5h.3v1.5zm-.7 0H27v-1.5h.3v1.5zm-.8 0h-.3v-1.5h.3v1.5zm-.8 0h-.3v-1.5h.3v1.5zm-.7 0h-.3v-1.5h.3v1.5zm-.8 0h-.3v-1.5h.3v1.5zm-.8 0h-.3v-1.5h.3v1.5zm-.7 0h-.3v-1.5h.3v1.5zm-.8 0h-.3v-1.5h.3v1.5zm-.8 0h-.3v-1.5h.3v1.5zm-.7 0h-.3v-1.5h.3v1.5zm-.8 0h-.3v-1.5h.3v1.5zm-.8 0h-.3v-1.5h.3v1.5zm-.7 0h-.3v-1.5h.3v1.5zm-.8 0H17v-1.5h.3v1.5zm-.8 0h-.3v-1.5h.3v1.5z" class="st1"/><path d="M175.6 378.3v290.4h-29v14.8H142v3.7h33.6v.7h8.4V416.2h.8v-.3h157.5v.3h9.2v-.3h.2v-9.2h-.2v-13.1h-9.2v13.1H184.7v-28.5h-9.1zm13.5-286.4h-50v3.7h4.6v14.8h31.9v218.1h9.2V110.3H217V95.5h4.6v-3.7h-32.5zM8.9 44.7v642.5h42.2v-3.7h-4.6v-14.8H18.1V415.9h115.1v-9.2h-12.3v-23.6h-3.4v23.6H18.1v-82.3h99.4v27.8h3.4v-40.9h-3.4v9.7H18.1v-42.4h115.7V273H18.1V110.3h31.5V95.5h4.6v-3.7H18.1V44.7H8.9zm166.7 13.7h9.2V22h-9.2v36.4zm147.5-40.5v74.2l-19.3-.3v3.7h4.6v14.8h33.8v188.5H225.9v9.2h116.3v39.6h9.2V308h.2v-9.2l-.2.3V17.9h-28.3z" style="fill:#39363a"/><defs><path id="SVGID_13_" d="M7.8 17.2h344.6v671.4H7.8z"/></defs><clipPath id="SVGID_14_"><use xlink:href="#SVGID_13_" style="overflow:visible"/></clipPath><path d="M184.7 688.6h-9.9v-.7h-33.6v-5.2h4.6V668h29V377.6h10.7V406h156v-13h10.7v13h.2v10.7h-.2v.3h-10.7v-.3h-156v.3h-.8v271.6zm-8.4-1.5h6.8V415.5h.8v-.3h159v.3h7.6v-.3h.2v-7.6h-.2v-13.1H343v13.1H184v-28.5h-7.6v290.4h-29v14.7h-4.6v2.1h33.6v.8zm-124.5.8H8.2v-644h10.7v47.2H55v5.2h-4.6v14.8H18.9v161.2h115.7v7.2H18.8v40.9h97.9v-9.7h4.9V353h-4.9v-27.8H18.8V406h97.9v-23.6h4.9V406h12.3v10.7H18.8V668h28.4v14.7h4.6v5.2zm-42.1-1.5h40.6v-2.1h-4.6v-14.7H17.3V415.2h115.1v-7.6h-12.3V384h-1.9v23.6H17.3v-83.8h100.9v27.8h1.9v-39.4h-1.9v9.7H17.3V278H133v-4.2H17.3V109.5h31.5V94.8h4.6v-2.1H17.3V45.5H9.7v640.9zm342.5-338.1h-10.7v-39.6H225.1V298h116.3V111h-33.8V96.3H303v-5.2l19.3.3V17.2h29.8V297l.2-.3v12h-.2v39.6zm-9.2-1.5h7.6v-39.6h.2v-6.4l-.2.3V18.7h-26.7v74.2l-19.3-.3v2.1h4.6v14.8H343v190H226.7v7.6H343v39.7zm-157.5-17.7h-10.7V111H143V96.3h-4.6v-5.2h83.9v5.2h-4.6v14.8h-32.1v218zm-9.2-1.5h7.6V109.5H216V94.8h4.6v-2.1h-80.9v2.1h4.6v14.8h31.8v218zm9.2-268.4h-10.7V21.3h10.7v37.9zm-9.2-1.6h7.6V22.8h-7.6v34.8z" class="st1" style="clip-path:url(#SVGID_14_)"/></svg>