<svg xmlns="http://www.w3.org/2000/svg" xmlns:xlink="http://www.w3.org/1999/xlink" xml:space="preserve" id="Слой_1" x="0" y="0" style="enable-background:new 0 0 574.7 699.3" version="1.1" viewBox="0 0 574.7 699.3"><style>.st1{fill:#1b1c20}.st3{clip-path:url(#SVGID_4_)}.st5{clip-path:url(#SVGID_8_)}.st6{clip-path:url(#SVGID_10_)}</style><path d="M554 365.8h-2.3v-252H33.1v548.4h165.8V431.8H554z" style="fill:#f9c7c7"/><path d="m199.3 290.5-.4-.2-38.1-22.9 1.5-2.6.4.2 38.1 22.9-1.5 2.6zm-37.2-23.4 36.9 22.2.7-1.1-37-22.2-.6 1.1zm.3 190-1.5-2.6 38.4-23.1 1.5 2.6-38.4 23.1zm-.3-2.2.7 1.1 36.9-22.2-.7-1.1-36.9 22.2zm-7.3-132-17.5-29.2 2.6-1.5 17.5 29.2-2.6 1.5zM138.5 294l16.7 27.7 1.1-.7-16.7-27.7-1.1.7zm147.6 61-1.5-2.6 29.2-17.5 1.5 2.6-29.2 17.5zm-.4-2.3.7 1.1 27.7-16.7-.7-1.1-27.7 16.7zM351 355l-29.2-17.5 1.5-2.6 29.2 17.5-1.5 2.6zm-28-17.9 27.7 16.7.7-1.1-27.8-16.7-.6 1.1zm54.5-11.3-1.5-2.6 45.6-27.4 1.5 2.6-45.6 27.4zm-.4-2.2.7 1.1 44.1-26.5-.7-1.1-44.1 26.5zm179.4 96.7-27.4-45.6 2.6-1.5 27.4 45.6-2.6 1.5zM530.3 375l26.5 44.1 1.1-.7-26.5-44.1-1.1.7zm-216-256.4-1.5-2.6 34.3-20.6 1.5 2.6-34.3 20.6zm-.4-2.3.7 1.1 32.9-19.7-.7-1.1-32.9 19.7zM203.2 45.1l-.7-5.2L379.7 15l.7 5.2-177.2 24.9zm.2-4.5.5 3.5 175.6-24.7-.5-3.4-175.6 24.6z" class="st1"/><path d="M542.2 20.2H379V15h163.2v5.2zm-162.3-.8h161.5v-3.5H379.9v3.5zM487 118.6l-1.5-2.6 34.3-20.6 1.5 2.6-34.3 20.6zm-.3-2.3.7 1.1 32.9-19.7-.7-1.1-32.9 19.7zM139.8 404.1l-2.6-1.5.2-.4 17.3-28.8 2.6 1.5-.2.4-17.3 28.8zm-1.3-1.9 1.1.7 16.7-27.7-1.1-.7-16.7 27.7zM160 99.1H67.6v-5.6H160v5.6zm-91.6-.9h90.7v-3.9H68.4v3.9zm1.4 15.6h88v.9h-88zm241.8-14.7h-92.4v-5.6h92.4v5.6zm-91.6-.9h90.7v-3.9H220v3.9zm.3 15.6h88v.9h-88z" class="st1"/><path d="M307.4 98.3h.9v16.3h-.9zm176.3.8h-92.4v-5.6h92.4v5.6zm-91.6-.9h90.7v-3.9h-90.7v3.9zm.3 15.6h88v.9h-88z" class="st1"/><path d="M479.5 98.3h.9v16.3h-.9z" class="st1"/><defs><path id="SVGID_1_" d="M12.1 14.2h550v669.2h-550z"/></defs><clipPath id="SVGID_2_"><use xlink:href="#SVGID_1_" style="overflow:visible"/></clipPath><path d="M52.6 682.5h120.3v.9H52.6z" class="st1" style="clip-path:url(#SVGID_2_)"/><path d="M52.6 677.7h120.3v.9H52.6zm-21.1-15.5H198v.9H31.5zm17.9-324.6H33.1v-43.3h16.2v43.3zm-15.4-.9h14.5v-41.5H34v41.5z" class="st1"/><path d="M35.3 295h.9v42.6h-.9z" class="st1"/><path d="m35.8 305.5-.1-.8 10.3-1.2v-4.8l-10.3-1.2.1-.8 11 1.3v6.2zm.1 30.3-.1-.8 10.2-.9v-25.8l-10.2-.9.1-.9 10.9 1v27.3z" class="st1"/><defs><path id="SVGID_3_" d="M12.1 14.2h550v669.2h-550z"/></defs><clipPath id="SVGID_4_"><use xlink:href="#SVGID_3_" style="overflow:visible"/></clipPath><g class="st3"><path d="M61.4 325.8h-6.2c-1.7 0-2.1-1.4-2.1-2.1v-16.1c0-1.7 1.4-2.1 2.1-2.1h6.2c1.7 0 2.1 1.4 2.1 2.1v16.1c0 1.7-1.4 2.1-2.1 2.1zm-6.3-19.4c-.2 0-1.2.1-1.2 1.2v16.1c0 .2.1 1.2 1.2 1.2h6.2c.2 0 1.2-.1 1.2-1.2v-16.1c0-.2-.1-1.2-1.2-1.2h-6.2z" class="st1"/></g><g class="st3"><path d="M77 323.4c-4.3 0-7.9-3.3-7.9-7.3s3.5-7.3 7.9-7.3 7.9 3.3 7.9 7.3-3.6 7.3-7.9 7.3zm0-13.8c-3.9 0-7 2.9-7 6.5s3.1 6.5 7 6.5 7-2.9 7-6.5-3.1-6.5-7-6.5z" class="st1"/></g><g class="st3"><path d="M77 325.1c-.6 0-1.2-.1-1.8-.2h-.3l-12.4-2v-14.8l12.5-1.4c.6-.1 1.3-.2 2-.2 5.4 0 9.9 4.2 9.9 9.3-.1 5.1-4.5 9.3-9.9 9.3zm-2.4-1.1.5.1c.7.1 1.3.2 1.9.2 5 0 9-3.8 9-8.4 0-4.6-4-8.4-9-8.4-.6 0-1.2.1-1.8.2l-11.7 1.4v13.3l11.1 1.6z" class="st1"/></g><g class="st3"><path d="M56.7 317c-.7 0-1.3-.6-1.3-1.3s.6-1.3 1.3-1.3c.7 0 1.3.6 1.3 1.3s-.6 1.3-1.3 1.3zm0-1.8c-.2 0-.4.2-.4.4s.2.4.4.4.4-.2.4-.4-.2-.4-.4-.4z" class="st1"/></g><g class="st3"><path d="M73.3 318c-1.1 0-2-.9-2-2s.9-2 2-2 2 .9 2 2-.9 2-2 2zm0-3.1c-.6 0-1.1.5-1.1 1.1 0 .6.5 1.1 1.1 1.1s1.1-.5 1.1-1.1c0-.6-.5-1.1-1.1-1.1z" class="st1"/></g><path d="M57.6 312.8h-1.7c-.2 0-.4-.2-.4-.4s.2-.4.4-.4h1.7c.2 0 .4.2.4.4s-.2.4-.4.4z" class="st1"/><path d="M56.7 313.6c-.2 0-.4-.2-.4-.4v-1.7c0-.2.2-.4.4-.4s.4.2.4.4v1.7c0 .2-.2.4-.4.4zm.9 5.8h-1.7c-.2 0-.4-.2-.4-.4s.2-.4.4-.4h1.7c.2 0 .4.2.4.4 0 .3-.2.4-.4.4z" class="st1"/><path d="M56.7 320.3c-.2 0-.4-.2-.4-.4v-1.7c0-.2.2-.4.4-.4s.4.2.4.4v1.7c0 .2-.2.4-.4.4zm10.2.7h-1.7c-.2 0-.4-.2-.4-.4s.2-.4.4-.4h1.7c.2 0 .4.2.4.4.1.2-.1.4-.4.4z" class="st1"/><path d="M66.1 321.8c-.2 0-.4-.2-.4-.4v-1.7c0-.2.2-.4.4-.4s.4.2.4.4v1.7c0 .2-.2.4-.4.4zm.8-10.5h-1.7c-.2 0-.4-.2-.4-.4s.2-.4.4-.4h1.7c.2 0 .4.2.4.4.1.2-.1.4-.4.4z" class="st1"/><path d="M66.1 312.1c-.2 0-.4-.2-.4-.4V310c0-.2.2-.4.4-.4s.4.2.4.4v1.7c0 .2-.2.4-.4.4zm466.9 4.3h-44.8v-16.2H533v16.2zm-43.9-.9h43.1V301h-43.1v14.5z" class="st1"/><path d="M488.9 313.4h44.2v.9h-44.2z" class="st1"/><path d="m498.9 313.9-1.2-10.3h-5l-1.2 10.3-.9-.1 1.4-11.1h6.5l1.3 11.1zm31.4-.1-.9-10.2h-26.8l-.9 10.2-.9-.1 1.1-11h28.3l1 11z" class="st1"/><defs><path id="SVGID_5_" d="M12.1 14.2h550v669.2h-550z"/></defs><clipPath id="SVGID_6_"><use xlink:href="#SVGID_5_" style="overflow:visible"/></clipPath><path d="M84.9 362.3c-6.8 0-12.3-3.4-12.3-7.7V343h24.7v11.6c-.1 4.3-5.6 7.7-12.4 7.7zm-11.5-18.4v10.8c0 3.8 5.1 6.8 11.5 6.8 6.3 0 11.5-3.1 11.5-6.8v-10.8h-23zm11.5 16.2c-5.3 0-9.6-2.7-9.6-6s4.3-6 9.6-6 9.6 2.7 9.6 6-4.3 6-9.6 6zm0-11.1c-4.8 0-8.7 2.3-8.7 5.1s3.9 5.1 8.7 5.1c4.8 0 8.7-2.3 8.7-5.1s-3.9-5.1-8.7-5.1zm-.3 4.9c-1.1 0-2-.9-2-2s.9-2 2-2 2 .9 2 2-.9 2-2 2zm0-3.2c-.6 0-1.2.5-1.2 1.2 0 .6.5 1.2 1.2 1.2.6 0 1.2-.5 1.2-1.2-.1-.7-.6-1.2-1.2-1.2z" class="st1" style="clip-path:url(#SVGID_6_)"/><path d="M35.3 341.9h.9v87.3h-.9zm37.2 0h.9v87.7h-.9z" class="st1"/><defs><path id="SVGID_7_" d="M12.1 14.2h550v669.2h-550z"/></defs><clipPath id="SVGID_8_"><use xlink:href="#SVGID_7_" style="overflow:visible"/></clipPath><g class="st5"><path d="M65.4 422.7H43.7c-2.7 0-4.8-2.5-4.8-5.5v-62.7c0-3 2.2-5.5 4.8-5.5h21.7c2.7 0 4.8 2.5 4.8 5.5v62.7c0 3-2.1 5.5-4.8 5.5zm-21.7-72.9c-2.2 0-3.9 2.1-3.9 4.6v62.7c0 2.6 1.8 4.6 3.9 4.6h21.7c2.2 0 3.9-2.1 3.9-4.6v-62.7c0-2.6-1.8-4.6-3.9-4.6H43.7zm16.1 60.6H49.4c-3.1 0-5.6-2.6-5.6-5.7V361c0-3.1 2.5-5.7 5.6-5.7h10.4c3.1 0 5.6 2.6 5.6 5.7v43.8c0 3.1-2.5 5.6-5.6 5.6zm-10.4-54.3c-2.6 0-4.7 2.2-4.7 4.8v43.8c0 2.7 2.1 4.8 4.7 4.8h10.4c2.6 0 4.7-2.2 4.7-4.8V361c0-2.7-2.1-4.8-4.7-4.8H49.4z" class="st1"/></g><g class="st5"><path d="M54.6 361.5c-.8 0-1.5-.7-1.5-1.5s.7-1.5 1.5-1.5 1.5.7 1.5 1.5-.7 1.5-1.5 1.5zm0-2.2c-.4 0-.7.3-.7.7 0 .4.3.7.7.7s.7-.3.7-.7c-.1-.4-.4-.7-.7-.7z" class="st1"/></g><path d="M105.7 427.2h-31v-30.8h31v30.8zm-29.5-.9h27.9l-14-13.9-13.9 13.9zm-.6-28.4v27.8l14-13.9-14-13.9zm15.2 13.9 14 13.9v-27.8l-14 13.9zm-14.6-14.6 14 13.9 14-13.9h-28z" class="st1"/><defs><path id="SVGID_9_" d="M12.1 14.2h550v669.2h-550z"/></defs><clipPath id="SVGID_10_"><use xlink:href="#SVGID_9_" style="overflow:visible"/></clipPath><g class="st6"><path d="M551.7 300.2h-29.3v-30.8h29.3v30.8zm-28.4-.9h27.5v-29h-27.5v29zm17.9-1.7h-12.5c-2 0-3.5-1.6-3.5-3.5v-18.5c0-1.9 1.6-3.5 3.5-3.5h12.5c2 0 3.5 1.6 3.5 3.5v18.5c0 1.9-1.6 3.5-3.5 3.5zm-12.6-24.7c-1.5 0-2.7 1.2-2.7 2.6V294c0 1.5 1.2 2.6 2.7 2.6h12.5c1.5 0 2.7-1.2 2.7-2.6v-18.5c0-1.5-1.2-2.6-2.7-2.6h-12.5zm19.4 13.5c-1 0-1.8-.8-1.8-1.7 0-1 .8-1.7 1.8-1.7s1.7.8 1.7 1.7c.1.9-.7 1.7-1.7 1.7zm0-2.6c-.5 0-.9.4-.9.8 0 .5.4.9.9.9s.9-.4.9-.9c0-.4-.4-.8-.9-.8zm-8.4 2.6c-1 0-1.7-.8-1.7-1.7 0-1 .8-1.7 1.7-1.7 1 0 1.7.8 1.7 1.7.1.9-.7 1.7-1.7 1.7zm0-2.6c-.5 0-.9.4-.9.8 0 .5.4.9.9.9s.9-.4.9-.9c0-.4-.4-.8-.9-.8z" class="st1"/></g><g class="st6"><path d="M123.3 204.3c0-1.4.1-2 1.4-2 1.4 0 1.5.5 1.5 3.1-.6.3-1 .5-1.5.5-1.1 0-1.4-.3-1.4-1.6m-2.6 7.7c1.4.3 2.7.3 3.3.3 3.8 0 5.2-.9 5.2-6.3 0-4.8-.8-6.1-4.6-6.1-3.5 0-4.5 1.3-4.4 4.4 0 2.2.8 3.7 3.4 3.7 1.1 0 1.8-.2 2.5-.7-.1 2-.5 2.6-2.1 2.6h-3.2l-.1 2.1zm-3.6-2.8c-.8 0-1.1.3-1.1 1.1v.8c0 .8.3 1.1 1.1 1.1h.7c.8 0 1.1-.3 1.1-1.1v-.8c0-.8-.3-1.1-1.1-1.1h-.7zm-3.2 3v-11.9h-3.2l-3 1.2.4 2.1 2.8-.6c-.1.5-.1 1-.1 1.4v7.9h3.1zm-7.8 0v-11.9h-3.2l-3 1.2.4 2.1 2.8-.6c-.1.5-.1 1-.1 1.4v7.9h3.1z" class="st1"/></g><g class="st6"><path d="M176.3 184.1c0-.4.2-.7.7-.7h1.8v1.1c-.6.4-1.2.6-1.7.6-.6 0-.8-.2-.8-.7v-.3zm-2.4-3.4c1.4-.1 2.8-.1 3.7-.1.9 0 1.2.3 1.2 1v.2h-2.9c-1.7 0-2.8.8-2.8 2.2v.9c0 1.6 1.3 2.5 2.9 2.5 1.5 0 2.5-.8 3.1-1.5l.3 1.3h2.5v-5.5c0-2.6-1.3-3.4-3.6-3.4-1.3 0-3.4.2-4.7.4l.3 2zm-1.4.1v-2.4h-8.6v2.4h2.7v6.2h3.1v-6.2h2.8zm-15.4 3.3c0-.4.2-.7.7-.7h1.8v1.1c-.6.4-1.2.6-1.7.6-.6 0-.9-.2-.9-.7v-.3zm-2.3-3.4c1.4-.1 2.8-.1 3.7-.1.9 0 1.2.3 1.2 1v.2h-2.9c-1.7 0-2.8.8-2.8 2.2v.9c0 1.6 1.3 2.5 2.9 2.5 1.5 0 2.5-.8 3.1-1.5l.3 1.3h2.5v-5.5c0-2.6-1.3-3.4-3.6-3.4-1.3 0-3.4.2-4.7.4l.3 2zm-2.2-2.2h-3.1v3h-2.6v-3h-3.1v8.6h3.1v-3.5h2.6v3.5h3.1v-8.6zm-14.6 0c-.7 0-1.1.3-1.2 1l-.7 3.2c-.1.4-.1.9-.2 1.3h-.1c-.1-.4-.1-.8-.2-1.3l-.8-3.2c-.1-.6-.5-1-1.2-1H131c-.7 0-1.1.4-1.1 1.1l-.2 7.5h2.8l.2-6.3h.2l1 4.2c.1.6.5 1 1.2 1h1.4c.7 0 1.1-.3 1.2-1l1-4.2h.2l.2 6.3h2.8l-.2-7.5c0-.7-.4-1.1-1.1-1.1H138zm-14.3 1.9c1.1 0 1.3.4 1.3 2.3s-.3 2.3-1.3 2.3c-1.1 0-1.4-.4-1.4-2.3.1-1.8.4-2.3 1.4-2.3m0-2.2c-3.4 0-4.6 1.2-4.6 4.6 0 3.3 1.2 4.5 4.6 4.5 3.4 0 4.6-1.2 4.6-4.5.1-3.3-1.2-4.6-4.6-4.6m-8.6 4.4c2-.3 1.9-.5 3-4.1h-3.2c-.7 2.9-.8 3.1-2 3.1h-.4c.1-.4.1-.7.1-1.1v-2h-3.1v8.6h3.1v-2.7c0-.2 0-.5-.1-.7h.7c.9 0 1 .2 1.9 3.4h3.3c-1.2-4.1-1.2-4.2-3.3-4.5zm-14.2-.2h-1.2c-.8 0-1-.2-1-1.1 0-.6.2-.8 1-.8h1.2v1.9zm-3.4 1c-.5.1-1.4.2-1.6.9l-.7 2.7h3.2l.5-2.3c.1-.4.3-.5.8-.5h1.1v2.8h3v-8.7c-1.1-.1-2-.1-4.3-.1-3.2 0-3.9.6-3.9 2.8.1 1.1.5 2.1 1.9 2.4zm-9.1.7c0-.4.2-.7.7-.7h1.8v1.1c-.6.4-1.2.6-1.7.6-.6 0-.8-.2-.8-.7v-.3zm-2.4-3.4c1.4-.1 2.8-.1 3.7-.1.9 0 1.2.3 1.2 1v.2H88c-1.7 0-2.8.8-2.8 2.2v.9c0 1.6 1.3 2.5 2.9 2.5 1.5 0 2.5-.8 3.1-1.5l.3 1.3H94v-5.5c0-2.6-1.3-3.4-3.6-3.4-1.3 0-3.4.2-4.7.4l.3 2zm-2.2-2.2h-5.2c-1.5 0-2.3.8-2.4 2.2-.1 1.6-.3 2.8-.5 3.4-.2.7-.7.7-1.5.8l.3 2.3c1.9.3 3.6-.1 3.9-2.3.2-.8.4-2.3.5-3.6.1-.5.3-.7.8-.7h.7v6.5h3.1v-8.6zm-10.5 8.6v-8.6h-2.7l-2.7 4.1c-.3.4-.5.8-.7 1.3h-.1c.1-.5.1-.9.1-1.3v-4.1h-2.8v8.6h2.7l2.7-3.9.7-1.4h.1c-.1.6-.1 1-.1 1.5v3.9h2.8zm-14-6.3c2.3-.3 2.4-1.4 3.6-5.7h-3.3c-1.1 3.6-1.3 4.7-2.4 4.7h-.6c.1-.5.1-1 .1-1.5v-3.2h-3.1v3.2c0 .5.1 1 .2 1.5h-.6c-1.1 0-1.4-1.1-2.4-4.7h-3.3c1.3 4.3 1.3 5.4 3.6 5.7v.1c-2.4.3-2.6 1.3-4 6.2h3.4c1.3-4.3 1.5-5.1 2.6-5.1h.6c-.1.4-.1.8-.1 1.1v4h3.1v-4c0-.3-.1-.7-.1-1.1h.6c1.2 0 1.3.8 2.6 5.1h3.4c-1.4-4.9-1.6-5.8-4-6.2v-.1z" class="st1"/></g><g class="st6"><path d="m121.3 552.5.1 2.6h5.2c-.3.4-.4.8-.6 1.3l-2.9 8.1h3.2l3.6-10.4c.3-.9-.3-1.6-1.2-1.6h-7.4zm-2.4 9c-.8 0-1.1.3-1.1 1.1v.8c0 .8.3 1.1 1.1 1.1h.7c.8 0 1.1-.3 1.1-1.1v-.8c0-.8-.3-1.1-1.1-1.1h-.7zm-2.9-6.6.1-2.4h-7.5l-.3 5.4c0 .6.4 1 .9 1.1l1.9.2c1.6.1 2.2.4 2.1 1.5-.1 1-.4 1.4-2 1.4-.8 0-2-.1-3.1-.1l-.3 2.4c1.5.2 3.1.3 4.2.3 3.4 0 4.3-1.7 4.3-3.9 0-1.9-.7-3.6-3.5-3.9l-2-.3.1-1.7h5.1zm-10 9.6v-11.9h-3.2l-3 1.2.4 2.1 2.8-.6c-.1.5-.1 1-.1 1.4v7.9h3.1z" class="st1"/></g><g class="st6"><path d="M176.3 536.4c0-.4.2-.7.7-.7h1.8v1.1c-.6.4-1.2.6-1.7.6-.6 0-.8-.2-.8-.7v-.3zm-2.4-3.4c1.4-.1 2.8-.1 3.7-.1.9 0 1.2.3 1.2 1v.2h-2.9c-1.7 0-2.8.8-2.8 2.2v.9c0 1.6 1.3 2.5 2.9 2.5 1.5 0 2.5-.8 3.1-1.5l.3 1.3h2.5V534c0-2.6-1.3-3.4-3.6-3.4-1.3 0-3.4.2-4.7.4l.3 2zm-1.4.1v-2.4h-8.6v2.4h2.7v6.2h3.1v-6.2h2.8zm-15.4 3.3c0-.4.2-.7.7-.7h1.8v1.1c-.6.4-1.2.6-1.7.6-.6 0-.9-.2-.9-.7v-.3zm-2.3-3.4c1.4-.1 2.8-.1 3.7-.1.9 0 1.2.3 1.2 1v.2h-2.9c-1.7 0-2.8.8-2.8 2.2v.9c0 1.6 1.3 2.5 2.9 2.5 1.5 0 2.5-.8 3.1-1.5l.3 1.3h2.5V534c0-2.6-1.3-3.4-3.6-3.4-1.3 0-3.4.2-4.7.4l.3 2zm-2.2-2.2h-3.1v3h-2.6v-3h-3.1v8.6h3.1v-3.5h2.6v3.5h3.1v-8.6zm-14.6 0c-.7 0-1.1.3-1.2 1l-.7 3.2c-.1.4-.1.9-.2 1.3h-.1c-.1-.4-.1-.8-.2-1.3l-.8-3.2c-.1-.6-.5-1-1.2-1H131c-.7 0-1.1.4-1.1 1.1l-.2 7.5h2.8l.2-6.3h.2l1 4.2c.1.6.5 1 1.2 1h1.4c.7 0 1.1-.3 1.2-1l1-4.2h.2l.2 6.3h2.8l-.2-7.5c0-.7-.4-1.1-1.1-1.1H138zm-14.3 1.9c1.1 0 1.3.4 1.3 2.3s-.3 2.3-1.3 2.3c-1.1 0-1.4-.4-1.4-2.3.1-1.8.4-2.3 1.4-2.3m0-2.2c-3.4 0-4.6 1.2-4.6 4.6 0 3.3 1.2 4.5 4.6 4.5 3.4 0 4.6-1.2 4.6-4.5.1-3.3-1.2-4.6-4.6-4.6m-8.6 4.4c2-.3 1.9-.5 3-4.1h-3.2c-.7 2.9-.8 3.1-2 3.1h-.4c.1-.4.1-.7.1-1.1v-2h-3.1v8.6h3.1v-2.7c0-.2 0-.5-.1-.7h.7c.9 0 1 .2 1.9 3.4h3.3c-1.2-4.1-1.2-4.2-3.3-4.5zm-14.2-.2h-1.2c-.8 0-1-.2-1-1.1 0-.6.2-.8 1-.8h1.2v1.9zm-3.4 1c-.5.1-1.4.2-1.6.9l-.7 2.7h3.2l.5-2.3c.1-.4.3-.5.8-.5h1.1v2.8h3v-8.7c-1.1-.1-2-.1-4.3-.1-3.2 0-3.9.6-3.9 2.8.1 1.1.5 2.1 1.9 2.4zm-9.1.7c0-.4.2-.7.7-.7h1.8v1.1c-.6.4-1.2.6-1.7.6-.6 0-.8-.2-.8-.7v-.3zM86 533c1.4-.1 2.8-.1 3.7-.1.9 0 1.2.3 1.2 1v.2H88c-1.7 0-2.8.8-2.8 2.2v.9c0 1.6 1.3 2.5 2.9 2.5 1.5 0 2.5-.8 3.1-1.5l.3 1.3H94V534c0-2.6-1.3-3.4-3.6-3.4-1.3 0-3.4.2-4.7.4l.3 2zm-2.2-2.2h-5.2c-1.5 0-2.3.8-2.4 2.2-.1 1.6-.3 2.8-.5 3.4-.2.7-.7.7-1.5.8l.3 2.3c1.9.3 3.6-.1 3.9-2.3.2-.8.4-2.3.5-3.6.1-.5.3-.7.8-.7h.7v6.5h3.1v-8.6zm-10.5 8.6v-8.6h-2.7l-2.7 4.1c-.3.4-.5.8-.7 1.3h-.1c.1-.5.1-.9.1-1.3v-4.1h-2.8v8.6h2.7l2.7-3.9.7-1.4h.1c-.1.6-.1 1-.1 1.5v3.9h2.8zm-14-6.3c2.3-.3 2.4-1.4 3.6-5.7h-3.3c-1.1 3.6-1.3 4.7-2.4 4.7h-.6c.1-.5.1-1 .1-1.5v-3.2h-3.1v3.2c0 .5.1 1 .2 1.5h-.6c-1.1 0-1.4-1.1-2.4-4.7h-3.3c1.3 4.3 1.3 5.4 3.6 5.7v.1c-2.4.3-2.6 1.3-4 6.2h3.4c1.3-4.3 1.5-5.1 2.6-5.1h.6c-.1.4-.1.8-.1 1.1v4h3.1v-4c0-.3-.1-.7-.1-1.1h.6c1.2 0 1.3.8 2.6 5.1h3.4c-1.4-4.9-1.6-5.8-4-6.2v-.1z" class="st1"/></g><g class="st6"><path d="M301.7 401h3.3c1.2 0 1.6.2 1.6 1.1 0 .8-.1 1.3-1.4 1.3h-2.3v2.1h2.3c1.3 0 1.6.4 1.6 1.4 0 1.2-.4 1.4-2 1.4-1 0-1.8 0-3.3-.1l-.1 2.3c1.4.2 2.9.3 4.3.3 3.2 0 4.3-1 4.3-3.6 0-1.8-.5-2.7-2.2-3v-.1c1.5-.2 1.9-1.3 1.9-3 0-2.1-1.1-2.8-4-2.8-1.3 0-2.6.1-4 .3v2.4zm-3.5 6.6c-.8 0-1.1.3-1.1 1.1v.8c0 .8.3 1.1 1.1 1.1h.7c.8 0 1.1-.3 1.1-1.1v-.8c0-.8-.3-1.1-1.1-1.1h-.7zm-7.2-2.2c1.3 0 1.6.3 1.6 1.6 0 1.2-.3 1.5-1.6 1.5-1.4 0-1.7-.3-1.7-1.5 0-1.3.3-1.6 1.7-1.6m0-4.8c1.2 0 1.5.3 1.5 1.4 0 1.1-.2 1.3-1.4 1.3s-1.5-.2-1.5-1.3c-.1-1.2.2-1.4 1.4-1.4m-2.6 3.8c-1.7.2-2.1 1.6-2.1 3.2 0 2.3 1 3.2 4.7 3.2 3.8 0 4.7-.9 4.7-3.2 0-1.6-.4-3-2.1-3.2v-.1c1.3-.1 1.8-1.5 1.8-2.7 0-2.2-.8-3.2-4.4-3.2-3.6 0-4.4 1-4.4 3.2 0 1.3.5 2.6 1.8 2.8z" class="st1"/></g><g class="st6"><path d="M329.2 379.5c.6-.3 1-.5 1.6-.5.8 0 1.1.3 1.1 2.3 0 2-.3 2.3-1.2 2.3-.6 0-1-.2-1.5-.3v-3.8zm-.6-2.6h-2.5v11.8h3.1v-1.9c0-.6 0-1.3-.1-1.9.7.6 1.7.8 2.8.8 2.1 0 3.3-1 3.3-4.4 0-2.9-.9-4.6-3-4.6-1.4 0-2.7.6-3.3 1.4l-.3-1.2zm-8.6 1.9c1.1 0 1.3.4 1.3 2.3s-.3 2.3-1.3 2.3c-1.1 0-1.4-.4-1.4-2.3 0-1.8.3-2.3 1.4-2.3m0-2.2c-3.4 0-4.6 1.2-4.6 4.6 0 3.3 1.2 4.5 4.6 4.5 3.4 0 4.6-1.2 4.6-4.5 0-3.4-1.2-4.6-4.6-4.6m-9.9 6.8h-2.5c.4-1 .7-2.2 1-3.8.1-.5.3-.7.8-.7h.8v4.5zm4.4 0H313v-6.5h-4.7c-1.5 0-2.3.7-2.5 2.1-.2 1.5-.5 2.9-1 4.4h-1.1v4.5h2.1l.2-2.4h6.2l.2 2.4h2.1v-4.5zm-12 2.1v-8.6h-2.7l-2.7 4.1c-.3.4-.5.8-.7 1.3h-.1c.1-.5.1-.9.1-1.3v-4.1h-2.8v8.6h2.7l2.7-3.9.7-1.4h.1c-.1.6-.1 1-.1 1.5v3.9h2.8zm-16.3-6c.6-.3 1-.5 1.6-.5.8 0 1.1.3 1.1 2.3 0 2-.3 2.3-1.2 2.3-.6 0-1-.2-1.5-.3v-3.8zm-.6-2.6H283v11.8h3.1v-1.9c0-.6 0-1.3-.1-1.9.7.6 1.7.8 2.8.8 2.1 0 3.3-1 3.3-4.4 0-2.9-.9-4.6-3-4.6-1.4 0-2.7.6-3.3 1.4l-.2-1.2zm-8.7 1.9c1.1 0 1.3.4 1.3 2.3s-.3 2.3-1.3 2.3c-1.1 0-1.4-.4-1.4-2.3 0-1.8.3-2.3 1.4-2.3m0-2.2c-3.4 0-4.6 1.2-4.6 4.6 0 3.3 1.2 4.5 4.6 4.5 3.4 0 4.6-1.2 4.6-4.5 0-3.4-1.2-4.6-4.6-4.6m-9.4 2.6c2.4-.3 2.4-1.4 3.8-5.7H268c-.9 3.6-1.2 4.7-2.8 4.7h-.6c.1-.5.1-1 .1-1.5v-3.2h-3.2v11.9h3.2v-4c0-.3-.1-.7-.1-1.1h.6c1.7 0 1.8.8 3 5.1h3.4c-1.5-4.9-1.6-5.8-4.1-6.2z" class="st1"/></g><g class="st6"><path d="m113.9 317.5.1-1.7h-5.2l-.2 3.8c0 .4.3.7.7.8l1.3.2c1.1.1 1.5.3 1.5 1s-.3.9-1.4.9c-.6 0-1.4 0-2.2-.1l-.2 1.7c1.1.2 2.1.2 3 .2 2.4 0 3-1.2 3-2.7 0-1.3-.5-2.5-2.4-2.8l-1.4-.2.1-1.2h3.3zm-7.8 4.6c-.6 0-.8.2-.8.8v.5c0 .6.2.8.8.8h.5c.6 0 .8-.2.8-.8v-.5c0-.6-.2-.8-.8-.8h-.5zm-2.3 2.1v-8.4h-2.3l-2.1.8.3 1.4 1.9-.4c-.1.3-.1.7-.1 1v5.5h2.3z" class="st1"/></g><g class="st6"><path d="M117.5 306.6h-2.4l-.9 3.6c-.1.3-.2.7-.3 1h-.1c0-.4-.1-.7-.2-1l-.9-3.6h-2.3l1.9 5.5c.1.3.4.5.7.5h.4c-.2.3-.4.6-.6.7-.4.2-.9.3-1.7.3l-.1 1.4c.9.2 1.8.2 2.5-.1.9-.3 1.6-.9 2.1-2.3l1.9-6zm-11.8 7 4.8-9.3h-1.7l-4.8 9.3h1.7zm-2.5-2.8c-.8.1-1.5.1-2.6.1-1 0-1.3-.5-1.3-2.4s.3-2.4 1.3-2.4h2.5l.2-1.7c-.8-.2-1.4-.3-2.6-.3-2.7 0-3.7 1.1-3.7 4.3s1 4.3 3.7 4.3c1.3 0 2-.1 2.8-.4l-.3-1.5z" class="st1"/></g><g class="st6"><path d="m114.7 384.4.1-1.7h-5.2l-.2 3.8c0 .4.3.7.7.8l1.3.2c1.1.1 1.5.3 1.5 1s-.3.9-1.4.9c-.6 0-1.4 0-2.2-.1l-.2 1.7c1.1.2 2.1.2 3 .2 2.4 0 3-1.2 3-2.7 0-1.3-.5-2.5-2.4-2.8l-1.4-.2.1-1.2h3.3zm-7.9 4.6c-.6 0-.8.2-.8.8v.5c0 .6.2.8.8.8h.5c.6 0 .8-.2.8-.8v-.5c0-.6-.2-.8-.8-.8h-.5zm-7.5-4.7h2.3c.8 0 1.1.1 1.1.8 0 .6-.1.9-1 .9h-1.6v1.5h1.6c.9 0 1.1.3 1.1 1 0 .8-.3 1-1.4 1-.7 0-1.3 0-2.3-.1L99 391c.9.1 2 .2 3 .2 2.2 0 3-.7 3-2.5 0-1.3-.4-1.9-1.6-2.1 1.1-.2 1.3-.9 1.3-2.1 0-1.5-.8-2-2.8-2-.9 0-1.9.1-2.8.2l.2 1.6z" class="st1"/></g><g class="st6"><path d="M126.2 376.2h-.9c-.6 0-.7-.1-.7-.8 0-.4.1-.6.7-.6h.9v1.4zm-2.3.8c-.4 0-1 .1-1.2.7l-.5 1.9h2.3l.4-1.6c0-.3.2-.4.6-.4h.8v2h2.1v-6.1c-.8-.1-1.4-.1-3-.1-2.2 0-2.8.4-2.8 1.9 0 .7.3 1.4 1.3 1.7zm-6.4.4c0-.3.1-.5.5-.5h1.3v.8c-.4.3-.8.4-1.2.4-.4 0-.6-.2-.6-.5v-.2zm-1.7-2.3c1-.1 2-.1 2.6-.1.6 0 .8.2.8.7v.1h-2c-1.2 0-1.9.6-1.9 1.5v.6c0 1.1.9 1.7 2 1.7 1 0 1.7-.5 2.1-1l.2.9h1.8v-3.8c0-1.8-.9-2.4-2.5-2.4-.9 0-2.4.1-3.3.3l.2 1.5zm-1.5-1.6h-2.2v2.1h-1.8v-2.1h-2.2v6h2.2v-2.4h1.8v2.4h2.2v-6zm-7.5 0h-2.2v2.1h-1.8v-2.1h-2.2v6h2.2v-2.4h1.8v2.4h2.2v-6zm-11.4 3.9c0-.3.1-.5.5-.5h1.3v.8c-.4.3-.8.4-1.2.4-.4 0-.6-.2-.6-.5v-.2zm-1.6-2.3c1-.1 2-.1 2.6-.1.6 0 .8.2.8.7v.1h-2c-1.2 0-1.9.6-1.9 1.5v.6c0 1.1.9 1.7 2 1.7 1 0 1.7-.5 2.1-1l.2.9h1.8v-3.8c0-1.8-.9-2.4-2.5-2.4-.9 0-2.4.1-3.3.3l.2 1.5zM88 378v-2.1h1.2c.9 0 1.1.2 1.1 1.1 0 .8-.2 1-1.1 1H88zm0-3.5v-1.8h1c.8 0 1 .2 1 .9 0 .8-.2.9-.9.9H88zm2.7.7c1.1-.1 1.5-.7 1.5-1.9 0-1.7-.8-2.2-3.1-2.2-1.5 0-2.4 0-3.4.1v8.4c1.1.1 2.1.1 3.8.1 2 0 2.9-.5 2.9-2.2.1-1.4-.4-2.2-1.7-2.3z" class="st1"/></g><g class="st6"><path d="M463.7 385.6h3.3c1.2 0 1.6.2 1.6 1.1 0 .8-.1 1.3-1.4 1.3h-2.3v2.1h2.3c1.3 0 1.6.4 1.6 1.4 0 1.2-.5 1.4-2 1.4-1 0-1.8 0-3.3-.1l-.1 2.3c1.4.2 2.9.3 4.3.3 3.2 0 4.3-1 4.3-3.6 0-1.8-.5-2.7-2.2-3v-.1c1.5-.2 1.9-1.3 1.9-3 0-2.1-1.1-2.8-4-2.8-1.3 0-2.6.1-4 .3v2.4zm-3.5 6.7c-.8 0-1.1.3-1.1 1.1v.8c0 .8.3 1.1 1.1 1.1h.7c.8 0 1.1-.3 1.1-1.1v-.8c0-.8-.3-1.1-1.1-1.1h-.7zm-10-9 .1 2.6h5.2c-.3.4-.4.8-.6 1.3l-2.9 8.1h3.2l3.6-10.4c.3-.9-.3-1.6-1.2-1.6h-7.4z" class="st1"/></g><g class="st6"><path d="M501.5 365.4h-1.2c-.8 0-1-.2-1-1.1 0-.6.2-.8 1-.8h1.2v1.9zm-3.4 1.1c-.5.1-1.4.2-1.6.9l-.7 2.7h3.2l.5-2.3c.1-.4.3-.5.8-.5h1.1v2.8h3v-8.7c-1.1-.1-2-.1-4.3-.1-3.2 0-3.9.6-3.9 2.8.1 1 .5 2 1.9 2.4zm-9.1.7c0-.4.2-.7.7-.7h1.8v1.1c-.6.4-1.2.6-1.7.6-.6 0-.8-.2-.8-.7v-.3zm-2.4-3.4c1.4-.1 2.8-.1 3.7-.1.9 0 1.2.3 1.2 1v.2h-2.9c-1.7 0-2.8.8-2.8 2.2v.9c0 1.6 1.3 2.5 2.9 2.5 1.5 0 2.5-.8 3.1-1.5l.3 1.3h2.5v-5.5c0-2.6-1.3-3.4-3.6-3.4-1.3 0-3.4.2-4.7.4l.3 2zm-4.8 1.8c2-.3 1.9-.5 3.1-4.1h-3.1c-.9 2.8-1 3.1-1.9 3.1h-.5c.1-.4.1-.7.1-1.1v-2.1h-2.7v2.1c0 .3 0 .7.1 1.1h-.6c-.9 0-1-.3-1.9-3.1h-3.1c1.1 3.5 1.1 3.8 3.1 4.1v.1c-2.1.3-2.1.5-3.3 4.5h3.2c1.1-3.3 1.2-3.4 1.9-3.5h.7c-.1.3-.1.5-.1.7v2.7h2.8v-2.7c0-.2 0-.5-.1-.7h.6c.8 0 .8.2 1.9 3.5h3.2c-1.3-4.1-1.3-4.2-3.4-4.6zm-16.1-2.1c1.1 0 1.3.4 1.3 2.3s-.3 2.3-1.3 2.3c-1.1 0-1.4-.4-1.4-2.3.1-1.9.4-2.3 1.4-2.3m0-2.2c-3.4 0-4.6 1.2-4.6 4.6 0 3.3 1.2 4.5 4.6 4.5 3.4 0 4.6-1.2 4.6-4.5.1-3.4-1.2-4.6-4.6-4.6m-8.1 8.8h3.2l-2.6-4.4 2.4-4.2h-3.1l-1.7 3.2-1.7-3.2H451l2.4 4.2-2.6 4.4h3.2l1.9-3.5 1.7 3.5zm-7.9 0v-8.6H447l-2.7 4.1c-.3.4-.5.8-.7 1.3h-.1c.1-.5.1-.9.1-1.3v-4.1h-2.8v8.6h2.7l2.7-3.9.7-1.4h.1c-.1.6-.1 1-.1 1.5v3.9h2.8zm-16.4-5.9c.6-.3 1-.5 1.6-.5.8 0 1.1.3 1.1 2.3 0 2-.3 2.3-1.2 2.3-.6 0-1-.2-1.5-.3v-3.8zm-.6-2.7h-2.5v11.8h3.1v-1.9c0-.6 0-1.3-.1-1.9.7.6 1.7.8 2.8.8 2.1 0 3.3-1 3.3-4.4 0-2.9-.9-4.6-3-4.6-1.4 0-2.7.6-3.3 1.4l-.3-1.2zm-4.6-3.3h-10v11.9h3.2v-9.7h3.5v9.7h3.3v-11.9z" class="st1"/></g><g class="st6"><path d="m297.9 170.2.1 2.6h5.2c-.3.4-.4.8-.6 1.3l-2.9 8.1h3.2l3.6-10.4c.3-.9-.3-1.6-1.2-1.6h-7.4zm-2.3 9c-.8 0-1.1.3-1.1 1.1v.8c0 .8.3 1.1 1.1 1.1h.7c.8 0 1.1-.3 1.1-1.1v-.8c0-.8-.3-1.1-1.1-1.1h-.7zm-6.9.8c-1.4 0-1.5-.4-1.5-3.1.6-.3 1-.5 1.5-.5 1.1 0 1.4.3 1.4 1.6 0 1.5 0 2-1.4 2m3.7-9.6c-1.2-.3-2.5-.3-3.1-.3-3.5 0-5.2.8-5.2 6.3 0 4.8 1.1 6.1 4.6 6.1 3.7 0 4.4-1.4 4.4-4.4 0-2.6-.8-3.7-3.5-3.7-1.1 0-1.8.2-2.4.7.1-2.2.5-2.6 2.1-2.6h2.9l.2-2.1zM282 182.2v-11.9h-3.2l-3 1.2.4 2.1 2.8-.6c-.1.5-.1 1-.1 1.4v7.9h3.1z" class="st1"/></g><g class="st6"><path d="M352.6 154.1c0-.4.2-.7.7-.7h1.8v1.1c-.6.4-1.2.6-1.7.6-.6 0-.8-.2-.8-.7v-.3zm-2.4-3.4c1.4-.1 2.8-.1 3.7-.1.9 0 1.2.3 1.2 1v.2h-2.9c-1.7 0-2.8.8-2.8 2.2v.9c0 1.6 1.3 2.5 2.9 2.5 1.5 0 2.5-.8 3.1-1.5l.3 1.3h2.5v-5.5c0-2.6-1.3-3.4-3.6-3.4-1.3 0-3.4.2-4.7.4l.3 2zm-1.4.1v-2.4h-8.6v2.4h2.7v6.2h3.1v-6.2h2.8zm-15.3 3.3c0-.4.2-.7.7-.7h1.8v1.1c-.6.4-1.2.6-1.7.6-.6 0-.9-.2-.9-.7v-.3zm-2.4-3.4c1.4-.1 2.8-.1 3.7-.1.9 0 1.2.3 1.2 1v.2h-2.9c-1.7 0-2.8.8-2.8 2.2v.9c0 1.6 1.3 2.5 2.9 2.5 1.5 0 2.5-.8 3.1-1.5l.3 1.3h2.5v-5.5c0-2.6-1.3-3.4-3.6-3.4-1.3 0-3.4.2-4.7.4l.3 2zm-2.2-2.2h-3.1v3h-2.6v-3h-3.1v8.6h3.1v-3.5h2.6v3.5h3.1v-8.6zm-14.5 0c-.7 0-1.1.3-1.2 1l-.7 3.2c-.1.4-.1.9-.2 1.3h-.1c-.1-.4-.1-.8-.2-1.3l-.8-3.2c-.1-.6-.5-1-1.2-1h-2.7c-.7 0-1.1.4-1.1 1.1l-.2 7.5h2.8l.2-6.3h.2l1 4.2c.1.6.5 1 1.2 1h1.4c.7 0 1.1-.3 1.2-1l1-4.2h.2l.2 6.3h2.8l-.2-7.5c0-.7-.4-1.1-1.1-1.1h-2.5zm-14.3 1.9c1.1 0 1.3.4 1.3 2.3s-.3 2.3-1.3 2.3c-1.1 0-1.4-.4-1.4-2.3 0-1.8.3-2.3 1.4-2.3m0-2.2c-3.4 0-4.6 1.2-4.6 4.6 0 3.3 1.2 4.5 4.6 4.5 3.4 0 4.6-1.2 4.6-4.5 0-3.4-1.3-4.6-4.6-4.6m-8.7 4.3c2-.3 1.9-.5 3-4.1h-3.2c-.7 2.9-.8 3.1-2 3.1h-.4c.1-.4.1-.7.1-1.1v-2h-3.1v8.6h3.1v-2.7c0-.2 0-.5-.1-.7h.7c.9 0 1 .2 1.9 3.4h3.3c-1.2-4-1.2-4.1-3.3-4.5zm-14.2-.2H276c-.8 0-1-.2-1-1.1 0-.6.2-.8 1-.8h1.2v1.9zm-3.3 1.1c-.5.1-1.4.2-1.6.9l-.7 2.7h3.2l.5-2.3c.1-.4.3-.5.8-.5h1.1v2.8h3v-8.7c-1.1-.1-2-.1-4.3-.1-3.2 0-3.9.6-3.9 2.8 0 1.1.4 2.1 1.9 2.4zm-9.2.7c0-.4.2-.7.7-.7h1.8v1.1c-.6.4-1.2.6-1.7.6-.6 0-.8-.2-.8-.7v-.3zm-2.4-3.4c1.4-.1 2.8-.1 3.7-.1.9 0 1.2.3 1.2 1v.2h-2.9c-1.7 0-2.8.8-2.8 2.2v.9c0 1.6 1.3 2.5 2.9 2.5 1.5 0 2.5-.8 3.1-1.5l.3 1.3h2.5v-5.5c0-2.6-1.3-3.4-3.6-3.4-1.3 0-3.4.2-4.7.4l.3 2zm-2.1-2.2H255c-1.5 0-2.3.8-2.4 2.2-.1 1.6-.3 2.8-.5 3.4-.2.7-.7.7-1.5.8l.3 2.3c1.9.3 3.6-.1 3.9-2.3.2-.8.4-2.3.5-3.6.1-.5.3-.7.8-.7h.7v6.5h3.1v-8.6zm-10.6 8.6v-8.6h-2.7l-2.7 4.1c-.3.4-.5.8-.7 1.3h-.1c.1-.5.1-.9.1-1.3v-4.1h-2.8v8.6h2.7l2.7-3.9.7-1.4h.1c-.1.6-.1 1-.1 1.5v3.9h2.8zm-13.9-6.3c2.3-.3 2.4-1.4 3.6-5.7H236c-1.1 3.6-1.3 4.7-2.4 4.7h-.6c.1-.5.1-1 .1-1.5v-3.2H230v3.2c0 .5.1 1 .2 1.5h-.6c-1.1 0-1.4-1.1-2.4-4.7h-3.3c1.3 4.3 1.3 5.4 3.6 5.7v.1c-2.4.3-2.6 1.3-4 6.2h3.4c1.3-4.3 1.5-5.1 2.6-5.1h.6c-.1.4-.1.8-.1 1.1v4h3.1v-4c0-.3-.1-.7-.1-1.1h.6c1.2 0 1.3.8 2.6 5.1h3.4c-1.4-4.9-1.6-5.8-4-6.2v-.1z" class="st1"/></g><g class="st6"><path d="M480.2 207c1.3 0 1.6.3 1.6 1.6 0 1.2-.3 1.5-1.6 1.5-1.4 0-1.7-.3-1.7-1.5s.3-1.6 1.7-1.6m0-4.8c1.2 0 1.5.3 1.5 1.4 0 1.1-.2 1.3-1.4 1.3s-1.5-.2-1.5-1.3c-.1-1.1.2-1.4 1.4-1.4m-2.6 3.8c-1.7.2-2.1 1.6-2.1 3.2 0 2.3 1 3.2 4.7 3.2 3.8 0 4.7-.9 4.7-3.2 0-1.6-.4-3-2.1-3.2 1.3-.1 1.8-1.5 1.8-2.7 0-2.2-.8-3.2-4.4-3.2-3.6 0-4.4 1-4.4 3.2 0 1.2.5 2.5 1.8 2.7zm-5.5 3.2c-.8 0-1.1.3-1.1 1.1v.8c0 .8.3 1.1 1.1 1.1h.7c.8 0 1.1-.3 1.1-1.1v-.8c0-.8-.3-1.1-1.1-1.1h-.7zm-10.7-6.6h3.3c1.2 0 1.6.2 1.6 1.1 0 .8-.1 1.3-1.4 1.3h-2.3v2.1h2.3c1.3 0 1.6.4 1.6 1.4 0 1.2-.5 1.4-2 1.4-1 0-1.8 0-3.3-.1l-.1 2.3c1.3.2 2.9.3 4.3.3 3.2 0 4.3-1 4.3-3.6 0-1.8-.5-2.7-2.2-3v-.1c1.5-.2 1.9-1.3 1.9-3 0-2.1-1.1-2.8-4-2.8-1.3 0-2.6.1-4 .3v2.4zm-2.4 9.6v-11.9h-3.2l-3 1.2.4 2.1 2.8-.6c-.1.5-.1 1-.1 1.4v7.9h3.1z" class="st1"/></g><g class="st6"><path d="M491.2 182.4H490c-.8 0-1-.2-1-1.1 0-.6.2-.8 1-.8h1.2v1.9zm-3.3 1c-.5.1-1.4.2-1.6.9l-.7 2.7h3.2l.5-2.3c.1-.4.3-.5.8-.5h1.1v2.8h3v-8.7c-1.1-.1-2-.1-4.3-.1-3.2 0-3.9.6-3.9 2.8 0 1.1.4 2.1 1.9 2.4zm-3.6-4.9h-3.1v3h-2.6v-3h-3.1v8.6h3.1v-3.5h2.6v3.5h3.1v-8.6zm-13 8.6h3.2l-2.6-4.4 2.4-4.2h-3.1l-1.7 3.2-1.7-3.2h-3.1l2.4 4.2-2.6 4.4h3.2l1.9-3.5 1.7 3.5zm-7-8.6H461l-1.3 5.1c-.1.4-.2 1-.4 1.5h-.2c-.1-.5-.2-1-.2-1.5l-1.3-5.1h-3.3l2.7 7.9c.1.5.5.7 1 .7h.6c-.2.4-.6.8-.9 1-.6.3-1.3.4-2.4.4l-.3 2c1.2.2 2.5.2 3.5-.2 1.3-.5 2.3-1.3 2.9-3.3l2.9-8.5zm-14.1 2.3c2.4-.3 2.4-1.4 3.8-5.7h-3.3c-.9 3.6-1.2 4.7-2.8 4.7h-.6c.1-.5.1-1 .1-1.5v-3.2h-3.2V187h3.2v-4c0-.3-.1-.7-.1-1.1h.6c1.7 0 1.8.8 3 5.1h3.4c-1.5-4.9-1.6-5.8-4.1-6.2z" class="st1"/></g><g class="st6"><path d="M284.9 78.8c1.3 0 1.6.3 1.6 1.6 0 1.2-.3 1.5-1.6 1.5-1.4 0-1.7-.3-1.7-1.5s.3-1.6 1.7-1.6m0-4.8c1.2 0 1.5.3 1.5 1.4 0 1.1-.2 1.3-1.4 1.3s-1.5-.2-1.5-1.3c-.1-1.1.2-1.4 1.4-1.4m-2.6 3.8c-1.7.2-2.1 1.6-2.1 3.2 0 2.3 1 3.2 4.7 3.2 3.8 0 4.7-.9 4.7-3.2 0-1.6-.4-3-2.1-3.2v-.1c1.3-.1 1.8-1.5 1.8-2.7 0-2.2-.8-3.2-4.4-3.2-3.6 0-4.4 1-4.4 3.2 0 1.3.5 2.6 1.8 2.8zm-5.4 3.3c-.8 0-1.1.3-1.1 1.1v.9c0 .6.3 1 .9 1 0 .8-.1 1.5-.3 2.3l1.2.4c.7-1 1-1.9 1-3.4v-1.1c0-.8-.3-1.1-1.1-1.1h-.6zm-7.2-2.3c1.3 0 1.6.3 1.6 1.6 0 1.2-.3 1.5-1.6 1.5-1.4 0-1.7-.3-1.7-1.5s.3-1.6 1.7-1.6m0-4.8c1.2 0 1.5.3 1.5 1.4 0 1.1-.2 1.3-1.4 1.3s-1.5-.2-1.5-1.3c-.1-1.1.2-1.4 1.4-1.4m-2.6 3.8c-1.7.2-2.1 1.6-2.1 3.2 0 2.3 1 3.2 4.7 3.2 3.8 0 4.7-.9 4.7-3.2 0-1.6-.4-3-2.1-3.2v-.1c1.3-.1 1.8-1.5 1.8-2.7 0-2.2-.8-3.2-4.4-3.2-3.6 0-4.4 1-4.4 3.2 0 1.3.5 2.6 1.8 2.8z" class="st1"/></g><g class="st6"><path d="M307.7 54.2h-1.2c-.8 0-1-.2-1-1.1 0-.6.2-.8 1-.8h1.2v1.9zm-3.4 1c-.5.1-1.4.2-1.6.9l-.7 2.7h3.2l.5-2.3c.1-.4.3-.5.8-.5h1.1v2.8h3v-8.7c-1.1-.1-2-.1-4.3-.1-3.2 0-3.9.6-3.9 2.8.1 1.1.5 2.1 1.9 2.4zm-3.5 3.7v-8.6H298l-2.7 4.1c-.3.4-.5.8-.7 1.3h-.1c.1-.5.1-.9.1-1.3v-4.1h-2.8v8.6h2.7l2.7-3.9.7-1.4h.1c-.1.6-.1 1-.1 1.5V59h2.9zm-13.4-4.5c2-.3 1.9-.5 3.1-4.1h-3.1c-.9 2.8-1 3.1-1.9 3.1h-.5c.1-.4.1-.7.1-1.1v-2.1h-2.7v2.1c0 .3 0 .7.1 1.1h-.6c-.9 0-1-.3-1.9-3.1h-3.1c1.1 3.5 1.1 3.8 3.1 4.1v.1c-2.1.3-2.1.5-3.3 4.5h3.2c1.1-3.3 1.2-3.4 1.9-3.5h.7c-.1.3-.1.5-.1.7v2.7h2.8v-2.7c0-.2 0-.5-.1-.7h.6c.8 0 .8.2 1.9 3.5h3.2c-1.3-4.1-1.4-4.3-3.4-4.6zm-15.7 2.4h-2.5c.4-1 .7-2.2 1-3.8.1-.5.3-.7.8-.7h.8v4.5zm4.4 0h-1.4v-6.5H270c-1.5 0-2.3.7-2.5 2.1-.2 1.5-.5 2.9-1 4.4h-1.1v4.5h2.1l.2-2.4h6.2l.2 2.4h2.1v-4.5zm-16-4.5c1.1 0 1.3.4 1.3 2.3s-.3 2.3-1.3 2.3c-1.1 0-1.4-.4-1.4-2.3s.3-2.3 1.4-2.3m0-2.2c-3.4 0-4.6 1.2-4.6 4.6 0 3.3 1.2 4.5 4.6 4.5 3.4 0 4.6-1.2 4.6-4.5 0-3.4-1.2-4.6-4.6-4.6m-6.3-3.1h-5.4c-1.9 0-2.9 1-3 2.8-.2 2.8-.4 4.4-.8 5.5-.3.8-.9 1-1.7 1.1l.2 2.5c2.1.3 3.7-.3 4.5-2.8.5-1.4.7-3.7.9-6.2 0-.6.4-.9 1-.9h1.1v9.7h3.3V47z" class="st1"/></g><g class="st6"><path d="M291.2 245.4c-13.8 0-25-11.2-25-25s11.2-25 25-25 25 11.2 25 25c.1 13.7-11.2 25-25 25zm0-48.6c-13 0-23.5 10.5-23.5 23.5s10.5 23.5 23.5 23.5 23.5-10.5 23.5-23.5c0-12.9-10.5-23.5-23.5-23.5z" class="st1"/></g><g class="st6"><path d="M282.2 212.3c2 0 4.7-.1 7.5-.1 2.7 0 3.5.4 3.5 2.5 0 1.8-.2 2.9-3.2 2.9h-5.2v4.7h5.2c2.9 0 3.5.9 3.5 3.2 0 2.7-1 3.2-4.5 3.2-2.3 0-4.1 0-7.5-.2l-.2 5.3c3 .4 6.4.7 9.7.7 7.1 0 9.8-2.3 9.7-8 0-4.1-1.2-6.2-5-6.8v-.2c3.5-.5 4.3-2.9 4.3-6.8 0-4.8-2.5-6.3-9.1-6.3-3 0-6 .2-9 .7l.3 5.2z" class="st1"/></g><g class="st6"><path d="M324.4 278.6v-26.9h-7.3l-6.8 2.7.9 4.6 6.2-1.4c-.2 1.1-.3 2.1-.3 3.2v17.8h7.3zm-18.5-6.7c-1.9 0-2.5.6-2.5 2.5v1.7c0 1.9.6 2.5 2.5 2.5h1.7c1.9 0 2.5-.6 2.5-2.5v-1.7c0-1.9-.6-2.5-2.5-2.5h-1.7zm-24.3-15c2 0 4.7-.1 7.5-.1 2.7 0 3.5.4 3.5 2.5 0 1.8-.2 2.9-3.2 2.9h-5.2v4.7h5.2c2.9 0 3.5.9 3.5 3.2 0 2.7-1 3.2-4.5 3.2-2.3 0-4.1 0-7.5-.2l-.2 5.3c3 .4 6.4.7 9.7.7 7.1 0 9.8-2.3 9.7-8 0-4.1-1.2-6.2-5-6.8v-.2c3.5-.5 4.3-2.9 4.3-6.8 0-4.8-2.5-6.3-9.1-6.3-3 0-6 .2-9 .7l.3 5.2zm-14.3 10c3 0 3.6.7 3.6 3.5 0 2.7-.6 3.4-3.6 3.4s-3.7-.7-3.7-3.4c-.1-2.7.5-3.5 3.7-3.5m-.1-10.9c2.7 0 3.3.6 3.3 3.2 0 2.4-.5 3-3.2 3-2.8 0-3.4-.5-3.4-3 0-2.6.6-3.2 3.3-3.2m-5.8 8.7c-3.9.4-4.8 3.6-4.8 7.2 0 5.2 2.2 7.3 10.6 7.3 8.5-.1 10.6-2 10.6-7.3 0-3.6-.9-6.8-4.8-7.2v-.2c2.9-.3 4.1-3.3 4.1-6.2 0-5-1.7-7.2-9.9-7.2-8.1 0-9.9 2.2-9.9 7.2 0 2.9 1.2 5.9 4.1 6.2v.2z" class="st1"/></g><path d="M198.5 410.2V663h-36.2v15.6h-4.9v3.9h20.2v-.1h31.2V435.9H561V416h-7.9v12H208.9v-17.8h-10.4zM12.9 94.2v588.4H72v-3.9h-4.9V663H32.5V436.5h121.2v-7h-12.6V403h-3.9v26.5H32.5v-87.2h104.7V367h3.9v-39h-3.9v10.4H32.5v-44.9h121.2v-7H32.5V113.8H77V98.1h4.9v-3.9h-69zm327.7 0v3.9h4.9v15.6h29.7v238.2h-23.9v7.6h34.3V113.8h33.7V98.1h4.9v-3.9h-83.6zM198.5 41.1v53.1h-49.7v3.9h4.9v15.6h44.8v253.1h10.3v-7.4H287v-7.6h-78.2v-238h30.1V98.1h4.9v-3.9h-35V41.1h-10.3zm176.7 18.7h10.3V20.6h-10.3v39.2zM532.9 15v79.2h-20.5v3.9h4.9v15.6h34.4v202.6H429.5v7.6h122.1v41.7h9.7V15h-28.4z" style="fill:#39363a"/><defs><path id="SVGID_11_" d="M12.1 14.2h550v669.2h-550z"/></defs><clipPath id="SVGID_12_"><use xlink:href="#SVGID_11_" style="overflow:visible"/></clipPath><path d="M177.7 683.4h-21.1v-5.5h4.9v-15.6h36.2V409.4h12v17.8h342.7v-12h9.5v21.5H209.7v246.6l-32 .1zm-19.5-1.7 49.8-.1V435.1h352.2v-18.2H554v12H208V411h-8.7v252.8h-36.2v15.6h-4.9v2.3zm-85.4 1.7H12.1v-590h70.6v5.5h-4.9v15.6H33.3v171.2h121.2v8.6H33.3v43.3h103.1v-10.4h5.5v40.7h-5.5v-24.7H33.3v85.6h103.1v-26.5h5.5v26.5h12.6v8.6H33.3v224.9H68v15.6h4.9v5.5zm-59.1-1.7h57.5v-2.3h-4.9v-15.6H31.6V435.7h121.2v-5.3h-12.6v-26.5H138v26.5H31.6v-88.8H138v24.7h2.3v-37.4H138v10.4H31.6v-46.5h121.2v-5.3H31.6V113h44.5V97.3H81V95H13.7v586.7zm196-314h-12V114.6h-44.8V98.9H148v-5.5h49.7V40.3h12v53.1h35v5.5h-4.9v15.6h-30.1V351h78.2v9.2h-78.2v7.5zm-10.4-1.7h8.7v-7.4h78.2v-6H208V113h30.1V97.3h4.9V95h-35V42h-8.7v53h-49.7v2.3h4.9V113h44.8v253zm362.8.4h-11.3v-41.7H428.7v-9.2h122.1V114.6h-34.4V98.9h-4.9v-5.5h20.6V14.2h30v352.2zm-9.7-1.6h8v-349h-26.8V95H513v2.3h4.9V113h34.4v204.2h-122v6h122.1v41.6zm-166-4.5h-35.9v-9.2h23.9V114.6h-29.8V98.9h-4.9v-5.5H425v5.5h-4.9v15.6h-33.7v245.8zm-34.3-1.6h32.6V113h33.7V97.3h4.9V95h-82v2.3h4.9V113H376v239.8h-23.9v5.9zm34.3-298h-12V19.8h12v40.9zM376 59h8.7V21.4H376V59z" class="st1" style="clip-path:url(#SVGID_12_)"/></svg>