<svg xmlns="http://www.w3.org/2000/svg" xmlns:xlink="http://www.w3.org/1999/xlink" xml:space="preserve" id="Слой_1" x="0" y="0" style="enable-background:new 0 0 247 258" version="1.1" viewBox="0 0 247 258"><style>.st1{fill:#f9cfd1}.st2{fill:#3c3c3b}.st3{stroke:#3c3c3b;stroke-width:.75}.st3,.st5,.st6{fill:none}.st6{stroke:#3c3c3b;stroke-width:.6}.st7{clip-path:url(#SVGID_4_);fill:#3c3c3b}.st15,.st20,.st9{fill:none;stroke:#3c3c3b}.st9{stroke-width:.7}.st15{stroke-width:.25}.st20{clip-path:url(#SVGID_18_);stroke-width:.7}.st21,.st22{clip-path:url(#SVGID_20_);fill:#3c3c3b}.st22{fill:none;stroke:#3c3c3b;stroke-width:.25}</style><path d="M.1.5h247v258H.1z" style="fill:#fff"/><path d="M25.2 24.8h197.1v153.9H25.2z" class="st1"/><path d="M25.2 73h95.5v153.9H25.2z" class="st1"/><path d="M109.8 17.7h119.6v7.1H109.8zm-91.9 0h62.9v7.1H17.9z" class="st2"/><path d="M222.3 17.7h7.1v209.1h-7.1z" class="st2"/><path d="M208 178.7h19.5v7.4H208zm-102.4 0h34.9v7.4h-34.9z" class="st2"/><path d="M120.6 66.8h7.4v171.5h-7.4zM17.9 17.7h7.4v220.5h-7.4zm102.7 1.5h7.4V41h-7.4z" class="st2"/><path d="M21.5 178.1h17.8v8.8H21.5zm97.1 55.3h11.3v7.9h-11.3zm-100.7 0h9.4v7.9h-9.4zM21 106.9h57.1v4.4H21zm88.1-10.4h15.7v4.4h-15.7zm-33.1 0h10.3v4.4H76z" class="st2"/><path d="M73.7 92h4.4v19.3h-4.4zm-1.6-45.6h4.4v26.2h-4.4z" class="st2"/><path d="M23.8 46.4h52.7v4.4H23.8z" class="st2"/><path d="M161.2 183.5H224v2.1h-62.8zm0-4.4h65.6v4.4h-65.6zM24.3 231.6H122v2.1H24.3z" class="st3"/><defs><path id="SVGID_1_" d="M17.9 17.7h211.5v223.7H17.9z"/></defs><clipPath id="SVGID_2_"><use xlink:href="#SVGID_1_" style="overflow:visible"/></clipPath><path d="M24.3 227.2H122V241H24.3z" style="clip-path:url(#SVGID_2_);fill:none;stroke:#3c3c3b;stroke-width:.75"/><path d="m126.836 231.898 98.277-15.558.328 2.074-98.276 15.559z" class="st3"/><path d="m125.928 227.072 98.277-15.558 2.157 13.63-98.276 15.558z" class="st3"/><path d="M184.8 133.9h-.8v-3h-1.5l-.3 1.1v1.8h-1.4c-.2 0-.3-.1-.2-.3l1.6-4.1h-1.8l-1.8 4.6c-.2.6.2 1.1.8 1.1h2.9v1.5h1.8v-1.5l.8-.2v-1zm-8 1c-.5 0-.7.2-.7.7v.5c0 .5.2.7.7.7h.4c.5 0 .7-.2.7-.7v-.5c0-.5-.2-.7-.7-.7h-.4zm-4.4-1.3c.8 0 1 .2 1 .9s-.2.9-1 .9-1-.2-1-.9.2-.9 1-.9m0-2.9c.7 0 .9.2.9.9 0 .6-.1.8-.9.8-.7 0-.9-.1-.9-.8 0-.8.2-.9.9-.9m-1.5 2.3c-1 .1-1.3 1-1.3 1.9 0 1.4.6 1.9 2.8 1.9 2.3 0 2.8-.5 2.8-1.9 0-1-.2-1.8-1.3-1.9.8-.1 1.1-.9 1.1-1.6 0-1.3-.5-1.9-2.6-1.9-2.2 0-2.6.6-2.6 1.9 0 .7.3 1.5 1.1 1.6zm-2.6 3.7v-7.2h-1.9l-1.8.7.2 1.2 1.7-.4c-.1.3-.1.6-.1.9v4.8h1.9zm43.3-12.3c0-.2.1-.4.4-.4h1.1v.6c-.3.2-.7.4-1 .4-.3 0-.5-.1-.5-.4v-.2zm-1.4-2c.9-.1 1.7-.1 2.2-.1.5 0 .7.2.7.6v.1h-1.7c-1 0-1.7.5-1.7 1.3v.5c0 1 .8 1.5 1.7 1.5.9 0 1.5-.5 1.8-.9l.2.8h1.5v-3.3c0-1.5-.8-2-2.2-2-.8 0-2.1.1-2.8.3l.3 1.2zm-.8 0V121h-5.2v1.4h1.6v3.7h1.9v-3.7h1.7zm-9.3 2c0-.2.1-.4.4-.4h1.1v.6c-.3.2-.7.4-1 .4-.3 0-.5-.1-.5-.4v-.2zm-1.4-2c.9-.1 1.7-.1 2.2-.1.5 0 .7.2.7.6v.1h-1.7c-1 0-1.7.5-1.7 1.3v.5c0 1 .8 1.5 1.7 1.5.9 0 1.5-.5 1.8-.9l.2.8h1.5v-3.3c0-1.5-.8-2-2.2-2-.8 0-2.1.1-2.8.3l.3 1.2zm-1.3-1.4h-1.9v1.8H194V121h-1.9v5.2h1.9v-2.1h1.6v2.1h1.9V121zm-8.7 0c-.4 0-.6.2-.7.6l-.4 1.9c-.1.3-.1.5-.1.8h-.1c0-.3 0-.5-.1-.8l-.5-1.9c-.1-.4-.3-.6-.7-.6h-1.6c-.4 0-.6.2-.7.6l-.1 4.5h1.7l.1-3.8h.1l.6 2.5c.1.4.3.6.7.6h.8c.4 0 .6-.2.7-.6l.6-2.5h.1l.1 3.8h1.7l-.1-4.5c0-.4-.2-.6-.6-.6h-1.5zm-8.6 1.2c.6 0 .8.3.8 1.4 0 1.1-.2 1.4-.8 1.4-.6 0-.8-.3-.8-1.4 0-1.1.1-1.4.8-1.4m0-1.3c-2 0-2.8.7-2.8 2.7s.7 2.7 2.8 2.7c2 0 2.8-.7 2.8-2.7s-.8-2.7-2.8-2.7m-5.2 2.6c1.2-.2 1.1-.3 1.8-2.5h-1.9c-.4 1.7-.5 1.9-1.2 1.9h-.2c0-.2.1-.4.1-.7V121h-1.9v5.2h1.9v-1.6c0-.1 0-.3-.1-.4h.4c.6 0 .6.1 1.1 2.1h2c-.8-2.5-.8-2.6-2-2.8zm-8.6-.1h-.7c-.5 0-.6-.1-.6-.6 0-.4.1-.5.6-.5h.7v1.1zm-2 .6c-.3 0-.9.1-1 .6l-.4 1.6h1.9l.3-1.4c0-.2.2-.3.5-.3h.7v1.7h1.8V121c-.6-.1-1.2-.1-2.6-.1-1.9 0-2.4.4-2.4 1.7.1.6.3 1.2 1.2 1.4zm-5.5.4c0-.2.1-.4.4-.4h1.1v.6c-.3.2-.7.4-1 .4-.3 0-.5-.1-.5-.4v-.2zm-1.4-2c.9-.1 1.7-.1 2.2-.1.5 0 .7.2.7.6v.1h-1.7c-1 0-1.7.5-1.7 1.3v.5c0 1 .8 1.5 1.7 1.5.9 0 1.5-.5 1.8-.9l.2.8h1.5v-3.3c0-1.5-.8-2-2.2-2-.8 0-2.1.1-2.8.3l.3 1.2zm-1.3-1.4H153c-.9 0-1.4.5-1.4 1.3-.1.9-.2 1.7-.3 2-.1.4-.4.4-.9.5l.2 1.4c1.1.2 2.2-.1 2.4-1.4.1-.5.2-1.4.3-2.2 0-.3.2-.4.5-.4h.4v3.9h1.9V121zm-6.3 5.2V121h-1.6l-1.6 2.5c-.2.2-.3.5-.4.8 0-.3.1-.5.1-.8V121h-1.7v5.2h1.6l1.6-2.4c.1-.2.3-.6.4-.9 0 .3-.1.6-.1.9v2.3h1.7zm-8.4-3.8c1.4-.2 1.4-.8 2.2-3.4h-2c-.6 2.2-.8 2.8-1.5 2.8h-.3c.1-.3.1-.6.1-.9V119H138v1.9c0 .3 0 .6.1.9h-.4c-.7 0-.8-.6-1.5-2.8h-2c.8 2.6.8 3.2 2.2 3.4v.1c-1.4.2-1.5.8-2.4 3.7h2c.8-2.6.9-3.1 1.6-3.1h.4c-.1.2-.1.5-.1.7v2.4h1.9v-2.4c0-.2 0-.4-.1-.7h.3c.7 0 .8.5 1.6 3.1h2.1c-.8-2.9-.9-3.5-2.3-3.8zM77 158.1c0-.9.1-1.2.8-1.2.8 0 .9.3.9 1.9-.3.2-.6.3-.9.3-.7 0-.8-.2-.8-1m-1.6 4.7c.8.2 1.6.2 2 .2 2.3 0 3.1-.5 3.1-3.8 0-2.9-.5-3.6-2.7-3.6-2.1 0-2.7.8-2.7 2.6 0 1.3.5 2.2 2.1 2.2.6 0 1.1-.1 1.5-.4-.1 1.2-.3 1.6-1.3 1.6h-1.9l-.1 1.2zm-2.1-1.7c-.5 0-.7.2-.7.7v.5c0 .5.2.7.7.7h.4c.5 0 .7-.2.7-.7v-.5c0-.5-.2-.7-.7-.7h-.4zm-6.5-4h2c.7 0 .9.1.9.7 0 .5-.1.8-.8.8h-1.4v1.3h1.4c.8 0 .9.2.9.8 0 .7-.3.9-1.2.9-.6 0-1.1 0-2-.1l-.1 1.4c.8.1 1.7.2 2.6.2 1.9 0 2.6-.6 2.6-2.1 0-1.1-.3-1.6-1.3-1.8.9-.1 1.1-.8 1.1-1.8 0-1.3-.7-1.7-2.4-1.7-.8 0-1.6.1-2.4.2l.1 1.2zm-1.4 5.7v-7.2h-1.9l-1.8.7.2 1.2 1.7-.4c-.1.3-.1.6-.1.9v4.8h1.9zm19.2-15.3h-.7c-.5 0-.6-.1-.6-.6 0-.4.1-.5.6-.5h.7v1.1zm-2 .7c-.3 0-.9.1-1 .6l-.4 1.6h1.9l.3-1.4c0-.2.2-.3.5-.3h.7v1.7h1.8v-5.2c-.6-.1-1.2-.1-2.6-.1-1.9 0-2.4.4-2.4 1.7 0 .6.3 1.1 1.2 1.4zm-2.2-3h-1.9v1.8H77v-1.8h-1.9v5.2H77v-2.1h1.6v2.1h1.9v-5.2zm-7.8 5.2h1.9l-1.5-2.6 1.4-2.5h-1.9l-1 1.9-1-1.9h-1.9l1.4 2.5-1.5 2.6h1.9l1.1-2.1 1.1 2.1zm-4.2-5.2h-2l-.8 3.1c-.1.2-.1.6-.2.9h-.1c0-.3-.1-.6-.1-.9l-.8-3.1h-2l1.6 4.7c.1.3.3.4.6.4h.3c-.1.3-.3.5-.5.6-.3.2-.8.2-1.4.2l-.2 1.2c.7.1 1.5.1 2.1-.1.8-.3 1.4-.8 1.8-2l1.7-5zm-8.5 1.4c1.4-.2 1.5-.8 2.3-3.4h-2c-.6 2.2-.7 2.8-1.7 2.8h-.3c.1-.3.1-.6.1-.9v-1.9h-1.9v7.2h1.9V148c0-.2 0-.4-.1-.7h.4c1 0 1.1.5 1.8 3.1h2c-.9-3-1-3.5-2.5-3.8zm119.5 59.7c.8 0 1 .3 1 2.2 0 1.9-.2 2.2-1 2.2s-1-.3-1-2.2c0-1.9.3-2.2 1-2.2m0-1.5c-2.2 0-2.9.9-2.9 3.7 0 2.8.7 3.7 2.9 3.7s2.9-.9 2.9-3.7c.1-2.8-.7-3.7-2.9-3.7m-4.8 5.5c-.5 0-.7.2-.7.7v.5c0 .5.2.7.7.7h.4c.5 0 .7-.2.7-.7v-.5c0-.5-.2-.7-.7-.7h-.4zm-1.4-1h-.9v-3h-1.5l-.3 1.1v1.8h-1.4c-.2 0-.3-.1-.2-.3l1.6-4.1h-1.8l-1.8 4.6c-.2.6.2 1.1.8 1.1h2.9v1.5h1.8v-1.5l.8-.2v-1zm19.9-12.5h-.7c-.5 0-.6-.1-.6-.6 0-.4.1-.5.6-.5h.7v1.1zm-2.1.6c-.3 0-.9.1-1 .6l-.4 1.6h1.9l.3-1.4c0-.2.2-.3.5-.3h.7v1.7h1.8v-5.2c-.6-.1-1.2-.1-2.6-.1-1.9 0-2.4.4-2.4 1.7.1.6.4 1.2 1.2 1.4zm-2.1 2.2v-5.2h-1.6l-1.6 2.5c-.2.2-.3.5-.4.8 0-.3.1-.5.1-.8v-2.4h-1.7v5.2h1.6l1.6-2.4c.1-.2.3-.6.4-.9 0 .3-.1.6-.1.9v2.3h1.7zm-8.1-2.7c1.2-.2 1.2-.3 1.8-2.4h-1.9c-.5 1.7-.6 1.9-1.1 1.9h-.3c0-.2.1-.4.1-.6v-1.2h-1.6v1.2c0 .2 0 .4.1.6h-.3c-.5 0-.6-.2-1.1-1.9h-1.9c.7 2.1.6 2.3 1.8 2.4v.1c-1.3.2-1.3.3-2 2.7h1.9c.7-2 .7-2.1 1.1-2.1h.4c0 .2-.1.3-.1.4v1.6h1.7V198c0-.1 0-.3-.1-.4h.4c.5 0 .5.1 1.2 2.1h1.9c-.7-2.5-.7-2.6-2-2.8zm-9.4 1.4h-1.5c.3-.6.4-1.3.6-2.3 0-.3.2-.4.5-.4h.5v2.7zm2.7 0h-.9v-3.9h-2.8c-.9 0-1.4.4-1.5 1.3-.1.9-.3 1.8-.6 2.6h-.6v2.7h1.2l.1-1.4h3.7l.1 1.4h1.3v-2.7zm-9.7-2.7c.6 0 .8.3.8 1.4 0 1.1-.2 1.4-.8 1.4-.6 0-.8-.3-.8-1.4 0-1.1.2-1.4.8-1.4m0-1.3c-2 0-2.8.7-2.8 2.7s.7 2.7 2.8 2.7c2 0 2.8-.7 2.8-2.7s-.7-2.7-2.8-2.7m-3.8-1.9h-3.3c-1.1 0-1.7.6-1.8 1.7-.1 1.7-.3 2.7-.5 3.3-.2.5-.5.6-1 .7l.1 1.5c1.3.2 2.2-.2 2.7-1.7.3-.9.4-2.2.6-3.7 0-.4.2-.5.6-.5h.7v5.9h2v-7.2z" class="st2"/><path d="M17.9 17.7h211.5v223.7H17.9z" class="st5"/><path d="M114.1 91.5h5.6v4.1h-5.6z" class="st6"/><defs><path id="SVGID_3_" d="M17.9 17.7h211.5v223.7H17.9z"/></defs><clipPath id="SVGID_4_"><use xlink:href="#SVGID_3_" style="overflow:visible"/></clipPath><path d="M60.6 92.1H60v-1.8h-.9l-.1.7v1.1h-.8c-.2 0-.2-.1-.2-.2l.9-2.4h-1.1l-1.1 2.7c-.1.3.1.7.5.7H59v.9h1v-.9l.5-.1v-.7zm-4.9.6c-.3 0-.4.1-.4.4v.3c0 .3.1.4.4.4h.3c.3 0 .4-.1.4-.4v-.3c0-.3-.1-.4-.4-.4h-.3zm-3.9-2.4H53c.4 0 .6.1.6.4 0 .3 0 .5-.5.5h-.8v.8h.8c.5 0 .6.1.6.5s-.2.5-.7.5h-1.2v.8c.5.1 1 .1 1.5.1 1.1 0 1.6-.4 1.5-1.3 0-.7-.2-1-.8-1.1.6-.1.7-.5.7-1.1 0-.8-.4-1-1.5-1-.5 0-1 0-1.4.1v.8zm9.7-7.2h-1.2l-.5 1.9c0 .1-.1.3-.1.5h-.1c0-.2-.1-.4-.1-.5l-.5-1.8h-1.2l1 2.8c0 .2.2.3.4.3h.2c-.1.2-.2.3-.3.4-.2.1-.5.1-.9.1l-.1.7c.4.1.9.1 1.3-.1.5-.2.8-.5 1.1-1.2l1-3.1zm-6.1 3.6 2.5-4.8H57l-2.5 4.8h.9zm-1.2-1.4c-.4 0-.8.1-1.4.1-.5 0-.7-.3-.7-1.2 0-1 .1-1.2.7-1.2h1.3l.1-.9c-.4-.1-.7-.2-1.4-.2-1.4 0-1.9.6-1.9 2.2s.5 2.2 1.9 2.2c.6 0 1 0 1.5-.2l-.1-.8zm50.4-21.4h-.5v-1.8h-.9l-.2.7v1.1h-.8c-.1 0-.2-.1-.1-.2l.9-2.4h-1.1l-1.1 2.7c-.1.3.1.7.5.7h1.7v.9h1.1v-.9l.5-.1v-.7zm-4.8.7c-.3 0-.4.1-.4.4v.3c0 .3.1.4.4.4h.3c.3 0 .4-.1.4-.4V65c0-.3-.1-.4-.4-.4h-.3zm-1-2.4v-.9h-2.7l-.1 2c0 .2.1.4.3.4l.7.1c.6 0 .8.1.8.5s-.2.5-.7.5c-.3 0-.7 0-1.1-.1l-.1.9c.5.1 1.1.1 1.5.1 1.2 0 1.6-.6 1.6-1.4 0-.7-.3-1.3-1.3-1.4l-.7-.1v-.6h1.8zm15.9-5.8h-.4c-.3 0-.3-.1-.3-.4 0-.2.1-.3.3-.3h.4v.7zm-1.2.4c-.2 0-.5.1-.6.3l-.2 1h1.2l.2-.8c0-.1.1-.2.3-.2h.4v1h1.1V55c-.4 0-.7-.1-1.6-.1-1.1 0-1.4.2-1.4 1-.1.4.1.8.6.9zm-3.3.3c0-.1.1-.2.3-.2h.7v.4c-.2.1-.4.2-.6.2-.2 0-.3-.1-.3-.3v-.1zm-.8-1.3h1.3c.3 0 .4.1.4.4v.1h-1c-.6 0-1 .3-1 .8v.3c0 .6.5.9 1 .9s.9-.3 1.1-.5l.1.5h.9v-2c0-.9-.5-1.2-1.3-1.2-.5 0-1.2.1-1.7.2l.2.5zm-1.8.7c.7-.1.7-.2 1.1-1.5h-1.1c-.3 1-.4 1.1-.7 1.1h-.2V55h-1v1.1h-.2c-.3 0-.3-.1-.7-1.1h-1.1c.4 1.3.4 1.4 1.1 1.5-.8.1-.8.2-1.2 1.6h1.1c.4-1.2.4-1.2.7-1.3h.2v1.3h1v-1.3h.2c.3 0 .3.1.7 1.3h1.1c-.2-1.4-.2-1.5-1-1.6zm-5.8-.8c.4 0 .5.2.5.8 0 .7-.1.8-.5.8s-.5-.1-.5-.8c0-.6.1-.8.5-.8m0-.8c-1.2 0-1.7.4-1.7 1.6 0 1.2.5 1.6 1.7 1.6s1.7-.4 1.7-1.6c0-1.1-.5-1.6-1.7-1.6m-2.9 3.2h1.1l-.9-1.6.8-1.5h-1.1l-.6 1.2-.6-1.2h-1.1l.8 1.5-.9 1.6h1.1l.7-1.2.7 1.2zm-2.9 0V55h-1l-1 1.5c-.1.1-.2.3-.2.5v-2h-1v3.1h1l1-1.4c.1-.1.2-.4.3-.5v2h.9zM90.1 56c.2-.1.3-.2.6-.2s.4.1.4.8c0 .7-.1.8-.4.8-.2 0-.4-.1-.5-.1V56zm-.2-1H89v4.3h1.1v-1.4c.3.2.6.3 1 .3.8 0 1.2-.3 1.2-1.6 0-1.1-.3-1.7-1.1-1.7-.5 0-1 .2-1.2.5l-.1-.4zm-1.6-1.2h-3.6v4.3h1.2v-3.5h1.3v3.5h1.2v-4.3zm108 59.1V96.5h-4.4l-4.2 1.6.5 2.8 3.8-.9c-.1.7-.2 1.3-.2 2v10.9h4.5zm-11.3-4c-1.1 0-1.5.4-1.5 1.5v1c0 1.1.4 1.5 1.5 1.5h1c1.1 0 1.5-.4 1.5-1.5v-1c0-1.1-.4-1.5-1.5-1.5h-1zm-14.8-9.2h4.6c1.7 0 2.1.2 2.1 1.5 0 1.1-.1 1.8-1.9 1.8h-3.1v2.9h3.1c1.8 0 2.1.5 2.1 1.9 0 1.7-.6 2-2.7 2-1.4 0-2.5 0-4.5-.1l-.1 3.2c1.9.3 3.9.5 5.9.5 4.4 0 5.9-1.4 5.9-4.9 0-2.5-.7-3.8-3-4.1v-.1c2.1-.3 2.6-1.8 2.6-4.1 0-2.9-1.5-3.8-5.5-3.8-1.8 0-3.6.1-5.5.5v2.8zm-1.8 6.8h-2v-6.8H163l-.7 2.6v4.2h-3.2c-.4 0-.6-.2-.4-.7l3.6-9.3h-4.2l-4.1 10.4c-.5 1.3.4 2.5 1.7 2.5h6.6v3.4h4.1v-3.4l1.9-.4v-2.5z" class="st7"/><circle cx="175.9" cy="78" r="14.6" style="clip-path:url(#SVGID_4_);fill:none;stroke:#3c3c3b" transform="rotate(-13.286 175.812 77.997)"/><path d="M181.4 77.8c2.5-.3 2.5-1.4 3.9-5.9h-3.4c-1 3.7-1.2 4.8-3 4.8h-.6c.1-.5.1-1 .1-1.5v-3.3H175v12.4h3.4v-4.2c0-.3-.1-.8-.1-1.2h.6c1.7 0 1.9.8 3.2 5.3h3.5c-1.5-5.1-1.7-6.1-4.3-6.4zm-8.9 6.5V71.9h-3.4l-3.2 1.2.4 2.1 2.9-.6c-.1.5-.1 1-.1 1.5v8.2h3.4z" class="st7"/><path d="m137.3 63.3 1.3-.8-14.1-23.3-1.3.7z" class="st9"/><defs><path id="SVGID_5_" d="M17.9 17.7h211.5v223.7H17.9z"/></defs><clipPath id="SVGID_6_"><use xlink:href="#SVGID_5_" style="overflow:visible"/></clipPath><path d="M138.9 62.4s-3.1 2.1-7.6 3.3c-4.6 1.2-7.1 1.4-7.1 1.4" style="clip-path:url(#SVGID_6_);fill:none;stroke:#3c3c3b;stroke-width:.7"/><path d="m106.3 35-.7 1.3-26.8-16.1.8-1.3z" class="st9"/><defs><path id="SVGID_7_" d="M17.9 17.7h211.5v223.7H17.9z"/></defs><clipPath id="SVGID_8_"><use xlink:href="#SVGID_7_" style="overflow:visible"/></clipPath><path d="M105.5 36.6s2.1-3.1 3.3-7.6c1.2-4.6 1.4-7.1 1.4-7.1" style="clip-path:url(#SVGID_8_);fill:none;stroke:#3c3c3b;stroke-width:.7"/><path d="m90 109.9.7 1.3 20.1-12.1-.7-1.3z" class="st9"/><defs><path id="SVGID_9_" d="M17.9 17.7h211.5v223.7H17.9z"/></defs><clipPath id="SVGID_10_"><use xlink:href="#SVGID_9_" style="overflow:visible"/></clipPath><path d="M90.8 111.6s-2.1-3.1-3.3-7.6c-1.2-4.6-1.4-7.1-1.4-7.1" style="clip-path:url(#SVGID_10_);fill:none;stroke:#3c3c3b;stroke-width:.7"/><path d="m84.6 75.2 1.2.8-10 16.5-1.3-.7z" class="st9"/><defs><path id="SVGID_11_" d="M17.9 17.7h211.5v223.7H17.9z"/></defs><clipPath id="SVGID_12_"><use xlink:href="#SVGID_11_" style="overflow:visible"/></clipPath><path d="M86.2 76.1s-3.1-2.1-7.6-3.3c-1.4-.4-2.6-.7-3.6-.9" style="clip-path:url(#SVGID_12_);fill:none;stroke:#3c3c3b;stroke-width:.7"/><path d="m157.8 174.5-.8-1.3-17.3 10.5.7 1.3z" class="st9"/><defs><path id="SVGID_13_" d="M17.9 17.7h211.5v223.7H17.9z"/></defs><clipPath id="SVGID_14_"><use xlink:href="#SVGID_13_" style="overflow:visible"/></clipPath><path d="M156.9 172.9s2.1 3.1 3.3 7.6c.6 2.4 1 4.3 1.2 5.5" style="clip-path:url(#SVGID_14_);fill:none;stroke:#3c3c3b;stroke-width:.7"/><path d="M26.2 41.4h5.6v4.1h-5.6zM33 22v25.4m80 28.8v21.3m11.3-21h-11.6" class="st6"/><path d="M25 127.4h15.5v-14.8H25v14.8zm-.4-15.2h16.1v15.5H24.6v-15.5z" class="st2"/><path d="M25 127.4h15.5v-14.8H25v14.8zm-.4-15.2h16.1v15.5H24.6v-15.5z" class="st15"/><defs><path id="SVGID_15_" d="M17.9 17.7h211.5v223.7H17.9z"/></defs><clipPath id="SVGID_16_"><use xlink:href="#SVGID_15_" style="overflow:visible"/></clipPath><path d="M39 114.7c0-.4-.3-.7-.7-.7h-8.1c-.4 0-.7.3-.7.7v10.4c0 .4.3.7.7.7h8.1c.4 0 .7-.3.7-.7v-10.4zm-9.8 10.4v-10.4c0-.5.5-1 1-1h8.1c.6 0 1 .4 1 1v10.4c0 .5-.5 1-1 1h-8.1c-.5 0-1-.4-1-1" style="clip-path:url(#SVGID_16_);fill:#3c3c3b"/><path d="M39 114.7c0-.4-.3-.7-.7-.7h-8.1c-.4 0-.7.3-.7.7v10.4c0 .4.3.7.7.7h8.1c.4 0 .7-.3.7-.7v-10.4zm-9.8 10.4v-10.4c0-.5.5-1 1-1h8.1c.6 0 1 .4 1 1v10.4c0 .5-.5 1-1 1h-8.1c-.5 0-1-.4-1-1z" style="clip-path:url(#SVGID_16_);fill:none;stroke:#3c3c3b;stroke-width:.25"/><path d="M30.7 124.6h7.1v-9.4h-7.1v9.4zm-.3-9.7h7.8V125h-7.8v-10.1z" class="st2"/><path d="M30.7 124.6h7.1v-9.4h-7.1v9.4zm-.3-9.7h7.8V125h-7.8v-10.1z" class="st15"/><defs><path id="SVGID_17_" d="M17.9 17.7h211.5v223.7H17.9z"/></defs><clipPath id="SVGID_18_"><use xlink:href="#SVGID_17_" style="overflow:visible"/></clipPath><path d="M35.7 119.9c0-.5-.4-.9-.9-.9s-.9.4-.9.9.4.9.9.9.9-.4.9-.9m-2.2 0c0-.6.6-1.2 1.2-1.2s1.2.5 1.2 1.2-.6 1.2-1.2 1.2-1.2-.5-1.2-1.2" style="clip-path:url(#SVGID_18_);fill:#3c3c3b"/><path d="M35.7 119.9c0-.5-.4-.9-.9-.9s-.9.4-.9.9.4.9.9.9.9-.4.9-.9zm-2.2 0c0-.6.6-1.2 1.2-1.2s1.2.5 1.2 1.2-.6 1.2-1.2 1.2-1.2-.5-1.2-1.2z" style="clip-path:url(#SVGID_18_);fill:none;stroke:#3c3c3b;stroke-width:.25"/><path d="M71 58.2s0-5.7-5.7-5.7H32.2s-5.7 0-5.7 5.7v6.3s0 5.7 5.7 5.7h33.2s5.7 0 5.7-5.7v-6.3z" class="st20"/><path d="M67.9 59.8s0-5.7-5.7-5.7h-27s-5.7 0-5.7 5.7v3s0 5.7 5.7 5.7h27s5.7 0 5.7-5.7v-3z" class="st20"/><path d="M64.2 58.6s0-2.8-2.8-2.8H34.1s-2.8 0-2.8 2.8v5.5s0 2.8 2.8 2.8h27.2s2.8 0 2.8-2.8v-5.5z" class="st20"/><path d="M34.6 61.4c0 .4.4.8.8.8.5 0 .8-.3.8-.8 0-.4-.4-.8-.8-.8s-.8.3-.8.8z" class="st20"/><path d="M74 71.2H23.5" class="st9"/><defs><path id="SVGID_19_" d="M17.9 17.7h211.5v223.7H17.9z"/></defs><clipPath id="SVGID_20_"><use xlink:href="#SVGID_19_" style="overflow:visible"/></clipPath><path d="M37.7 81.9c0 3-2.4 5.4-5.4 5.4h-5.8c-.5 0-.8-.4-.8-.8V74.2c0-.5.4-.8.8-.8h5.8c3 0 5.4 2.4 5.4 5.4v3.1zm-12.3-7.7v12.3c0 .6.5 1.1 1.1 1.1h5.8c3.2 0 5.7-2.6 5.7-5.7v-3.1c0-3.2-2.6-5.7-5.7-5.7h-5.8c-.6 0-1.1.5-1.1 1.1" class="st21"/><path d="M37.7 81.9c0 3-2.4 5.4-5.4 5.4h-5.8c-.5 0-.8-.4-.8-.8V74.2c0-.5.4-.8.8-.8h5.8c3 0 5.4 2.4 5.4 5.4v3.1zm-12.3-7.7v12.3c0 .6.5 1.1 1.1 1.1h5.8c3.2 0 5.7-2.6 5.7-5.7v-3.1c0-3.2-2.6-5.7-5.7-5.7h-5.8c-.6 0-1.1.5-1.1 1.1z" class="st22"/><path d="M36.3 81.9c0 2.2-1.8 4.1-4.1 4.1h-3.4c-.4 0-.7-.3-.7-.7v-9.8c0-.4.3-.7.7-.7h3.4c2.2 0 4.1 1.8 4.1 4.1v3zm-8.4-6.4v9.8c0 .6.5 1 1 1h3.4c2.4 0 4.4-2 4.4-4.4v-3.1c0-2.4-2-4.4-4.4-4.4h-3.4c-.6.1-1 .5-1 1.1" class="st21"/><path d="M36.3 81.9c0 2.2-1.8 4.1-4.1 4.1h-3.4c-.4 0-.7-.3-.7-.7v-9.8c0-.4.3-.7.7-.7h3.4c2.2 0 4.1 1.8 4.1 4.1v3zm-8.4-6.4v9.8c0 .6.5 1 1 1h3.4c2.4 0 4.4-2 4.4-4.4v-3.1c0-2.4-2-4.4-4.4-4.4h-3.4c-.6.1-1 .5-1 1.1z" class="st22"/><path d="M33.5 80.4c0 .4-.3.7-.7.7-.4 0-.7-.3-.7-.7 0-.4.3-.7.7-.7.4 0 .7.3.7.7m-1.7 0c0 .5.4 1 1 1 .5 0 1-.4 1-1 0-.5-.4-1-1-1s-1 .4-1 1" class="st21"/><path d="M33.5 80.4c0 .4-.3.7-.7.7-.4 0-.7-.3-.7-.7 0-.4.3-.7.7-.7.4 0 .7.3.7.7zm-1.7 0c0 .5.4 1 1 1 .5 0 1-.4 1-1 0-.5-.4-1-1-1s-1 .4-1 1z" class="st22"/><path d="M44.2 95.3c0 2.8-2.3 5.1-5.1 5.1h-7.4c-.5 0-.9-.4-.9-.9V91c0-.5.4-.9.9-.9h7.4c2.8.1 5.1 2.3 5.1 5.2M30.5 91v8.5c0 .7.6 1.2 1.2 1.2h7.4c3 0 5.5-2.5 5.5-5.5s-2.5-5.5-5.5-5.5h-7.4c-.7.1-1.2.7-1.2 1.3" class="st21"/><path d="M44.2 95.3c0 2.8-2.3 5.1-5.1 5.1h-7.4c-.5 0-.9-.4-.9-.9V91c0-.5.4-.9.9-.9h7.4c2.8.1 5.1 2.3 5.1 5.2zM30.5 91v8.5c0 .7.6 1.2 1.2 1.2h7.4c3 0 5.5-2.5 5.5-5.5s-2.5-5.5-5.5-5.5h-7.4c-.7.1-1.2.7-1.2 1.3z" class="st22"/><path d="M33.3 98.9v-7.3s0-.1.1-.1H39c2.1 0 3.8 1.7 3.8 3.8 0 2.1-1.7 3.8-3.8 3.8l-5.7-.2c.1.1 0 .1 0 0z" class="st22"/><path d="M33.5 98.8v-7.2H39c2 0 3.6 1.6 3.6 3.6S41 98.8 39 98.8h-5.5zm-.4-7.2v7.3c0 .1.1.3.3.3H39c2.2 0 3.9-1.8 3.9-3.9 0-2.2-1.8-3.9-3.9-3.9h-5.6c-.1-.1-.3.1-.3.2" class="st21"/><path d="M33.5 98.8v-7.2H39c2 0 3.6 1.6 3.6 3.6S41 98.8 39 98.8h-5.5zm-.4-7.2v7.3c0 .1.1.3.3.3H39c2.2 0 3.9-1.8 3.9-3.9 0-2.2-1.8-3.9-3.9-3.9h-5.6c-.1-.1-.3.1-.3.2z" class="st22"/><path d="M39 95.3c0 .5-.4 1-1 1-.5 0-1-.4-1-1 0-.5.4-1 1-1s1 .4 1 1m-2.3 0c0 .7.6 1.3 1.3 1.3.7 0 1.3-.6 1.3-1.3 0-.7-.6-1.3-1.3-1.3-.7 0-1.3.5-1.3 1.3" class="st21"/><path d="M39 95.3c0 .5-.4 1-1 1-.5 0-1-.4-1-1 0-.5.4-1 1-1s1 .4 1 1zm-2.3 0c0 .7.6 1.3 1.3 1.3.7 0 1.3-.6 1.3-1.3 0-.7-.6-1.3-1.3-1.3-.7 0-1.3.5-1.3 1.3z" class="st22"/><path d="m33.982 98.136 2.323-1.736.24.32-2.323 1.736z" class="st2"/><path d="m33.982 98.136 2.323-1.736.24.32-2.323 1.736z" class="st15"/><path d="m34 92.5 2.4 1.7.2-.3-2.4-1.7z" class="st2"/><path d="m34 92.5 2.4 1.7.2-.3-2.4-1.7z" class="st15"/><path d="M30.5 98.8c0 .8-.6 1.4-1.4 1.4h-1.9c-.8 0-1.4-.6-1.4-1.4v-7.1c0-.8.6-1.4 1.4-1.4h1.9c.8 0 1.4.6 1.4 1.4v7.1zm-5.1-7.1v7.1c0 1 .8 1.8 1.8 1.8h1.9c1 0 1.8-.8 1.8-1.8v-7.1c0-1-.8-1.8-1.8-1.8h-1.9c-1.1.1-1.8.9-1.8 1.8" class="st2"/><path d="M30.5 98.8c0 .8-.6 1.4-1.4 1.4h-1.9c-.8 0-1.4-.6-1.4-1.4v-7.1c0-.8.6-1.4 1.4-1.4h1.9c.8 0 1.4.6 1.4 1.4v7.1zm-5.1-7.1v7.1c0 1 .8 1.8 1.8 1.8h1.9c1 0 1.8-.8 1.8-1.8v-7.1c0-1-.8-1.8-1.8-1.8h-1.9c-1.1.1-1.8.9-1.8 1.8z" class="st15"/><path d="M28.6 95.3c0 .3-.2.5-.5.5s-.5-.2-.5-.5.2-.5.5-.5c.3-.1.5.2.5.5m-1.4 0c0 .5.4.9.9.9s.9-.4.9-.9-.4-.9-.9-.9-.9.4-.9.9" class="st2"/><path d="M28.6 95.3c0 .3-.2.5-.5.5s-.5-.2-.5-.5.2-.5.5-.5c.3-.1.5.2.5.5zm-1.4 0c0 .5.4.9.9.9s.9-.4.9-.9-.4-.9-.9-.9-.9.4-.9.9z" class="st15"/><path d="M17.9 17.7h211.5v223.7H17.9z" class="st5"/></svg>