<?xml version="1.0" encoding="UTF-8"?>
<svg id="_Слой_1" data-name="Слой_1" xmlns="http://www.w3.org/2000/svg" version="1.1" viewBox="0 0 1280 1024">
  <!-- Generator: Adobe Illustrator 29.4.0, SVG Export Plug-In . SVG Version: 2.1.0 Build 152)  -->
  <defs>
    <style>
      .st0 {
        fill: none;
        stroke: #3c3c3b;
      }

      .st1 {
        fill: #3c3c3b;
      }

      .st2 {
        fill: #b1dcde;
      }
    </style>
  </defs>
  <rect class="st1" x="258.17" y="753.88" width="24.08" height="196.53"/>
  <rect class="st0" x="258.17" y="753.88" width="24.08" height="196.53"/>
  <rect class="st1" x="260.62" y="89.26" width="15.35" height="643.16"/>
  <rect class="st0" x="260.62" y="89.26" width="15.35" height="643.16"/>
  <rect class="st1" x="464.64" y="89.26" width="37.36" height="26.18"/>
  <rect class="st0" x="464.64" y="89.26" width="37.36" height="26.18"/>
  <rect class="st1" x="257.48" y="89.26" width="243.69" height="26.18"/>
  <rect class="st0" x="257.48" y="89.26" width="243.69" height="26.18"/>
  <rect class="st2" x="281.52" y="122.09" width="772.55" height="607.26"/>
  <rect class="st0" x="269.85" y="939.89" width="395.3" height="11.27"/>
  <rect class="st0" x="452.86" y="765.56" width="163.2" height="11.27"/>
  <rect class="st0" x="462.62" y="730.84" width="153.44" height="34.71"/>
  <path class="st0" d="M461.83,764.6s-3.83-16.24-7.95-27.35c-4.12-11.11-9.12-17.22-9.12-17.22l-72.6,41.85,2.18,3.49,73-41.08"/>
  <rect class="st1" x="550.61" y="765.56" width="119.25" height="11.27"/>
  <rect class="st0" x="550.61" y="765.56" width="119.25" height="11.27"/>
  <rect class="st1" x="560.37" y="730.84" width="109.48" height="36.77"/>
  <rect class="st0" x="560.37" y="730.84" width="109.48" height="36.77"/>
  <rect class="st1" x="269.53" y="765.56" width="119.25" height="11.27"/>
  <rect class="st0" x="269.53" y="765.56" width="119.25" height="11.27"/>
  <rect class="st1" x="269.53" y="730.84" width="109.48" height="36.77"/>
  <rect class="st0" x="269.53" y="730.84" width="109.48" height="36.77"/>
  <rect class="st0" x="824.31" y="765.56" width="163.2" height="11.27"/>
  <rect class="st0" x="834.08" y="730.84" width="153.44" height="34.71"/>
  <path class="st0" d="M833.29,764.6s-3.83-16.24-7.95-27.35c-4.12-11.11-9.12-17.22-9.12-17.22l-72.6,41.85,2.18,3.49,73-41.08"/>
  <rect class="st1" x="976.17" y="765.56" width="87.93" height="11.27"/>
  <rect class="st0" x="976.17" y="765.56" width="87.93" height="11.27"/>
  <rect class="st1" x="983.37" y="730.84" width="80.73" height="36.77"/>
  <rect class="st0" x="983.37" y="730.84" width="80.73" height="36.77"/>
  <rect class="st1" x="640.99" y="765.56" width="119.25" height="11.27"/>
  <rect class="st0" x="640.99" y="765.56" width="119.25" height="11.27"/>
  <rect class="st1" x="640.99" y="730.84" width="109.48" height="36.77"/>
  <rect class="st0" x="640.99" y="730.84" width="109.48" height="36.77"/>
  <path class="st0" d="M656.2,289.36s14.16,0,31.8-6.24c14.75-5.22,28.54-15.63,28.54-15.63l-49.53-86.94-3.49,2.18,49.54,87.14"/>
  <path class="st0" d="M613.92,106.63s0,14.16-6.24,31.8c-5.22,14.75-15.63,28.54-15.63,28.54l-106.25-61.07,2.18-3.49,106.45,61.08"/>
  <polyline class="st1" points="1055.15 92.18 1055.15 894.72 1073.05 894.72 1073.05 92.18"/>
  <polyline class="st0" points="1055.15 92.18 1055.15 894.72 1073.05 894.72 1073.05 92.18"/>
  <rect class="st1" x="613.66" y="92.18" width="457.69" height="27.85"/>
  <rect class="st0" x="613.66" y="92.18" width="457.69" height="27.85"/>
  <rect class="st1" x="465.69" y="92.18" width="35.48" height="27.85"/>
  <rect class="st0" x="465.69" y="92.18" width="35.48" height="27.85"/>
  <rect class="st1" x="255.92" y="92.18" width="239.86" height="27.85"/>
  <rect class="st0" x="255.92" y="92.18" width="239.86" height="27.85"/>
  <rect class="st1" x="348.66" y="107.25" width="132.28" height="12.78"/>
  <rect class="st0" x="348.66" y="107.25" width="132.28" height="12.78"/>
  <rect class="st1" x="257.5" y="617.27" width="21.1" height="332.11"/>
  <rect class="st0" x="257.5" y="617.27" width="21.1" height="332.11"/>
  <rect class="st1" x="257.5" y="612.97" width="21.1" height="338.83"/>
  <rect class="st0" x="257.5" y="612.97" width="21.1" height="338.83"/>
  <rect class="st1" x="257.5" y="107.27" width="21.1" height="526.17"/>
  <rect class="st0" x="257.5" y="107.27" width="21.1" height="526.17"/>
  <rect class="st1" x="657.35" y="95.38" width="17.91" height="97.56"/>
  <rect class="st0" x="657.35" y="95.38" width="17.91" height="97.56"/>
  <rect class="st1" x="657.35" y="288.75" width="17.91" height="485.1"/>
  <rect class="st0" x="657.35" y="288.75" width="17.91" height="485.1"/>
  <rect class="st1" x="657.35" y="851.67" width="17.91" height="99.49"/>
  <rect class="st0" x="657.35" y="851.67" width="17.91" height="99.49"/>
  <rect class="st1" x="657.34" y="102.12" width="403.71" height="17.91"/>
  <rect class="st0" x="657.34" y="102.12" width="403.71" height="17.91"/>
  <polygon class="st0" points="672.31 948.28 672.31 937.01 1058.05 880.45 1058.05 891.72 672.31 948.28"/>
  <rect class="st0" x="281.08" y="121.81" width="31.9" height="98.63"/>
  <line class="st0" x1="307.98" y1="122.09" x2="307.98" y2="220.94"/>
  <polyline class="st0" points="307.98 126.92 284.97 129.11 284.97 191.51 307.98 194.25 307.98 198.36 284.72 201.1 284.72 215.05 307.98 218.06"/>
  <rect class="st0" x="624.9" y="324.29" width="31.9" height="93.83"/>
  <line class="st0" x1="651.8" y1="324.5" x2="651.8" y2="418.66"/>
  <polyline class="st0" points="651.8 329.17 628.79 331.25 628.79 390.61 651.8 393.21 651.8 397.11 628.54 399.72 628.54 413 651.8 415.86"/>
  <path class="st1" d="M480.37,615.82c0-1.32.25-2.25.74-2.78.49-.54,1.18-.81,2.06-.81s1.56.27,2.04.8c.49.53.73,1.46.73,2.8v1.75c0,2.21-.92,3.31-2.77,3.31s-2.8-1.1-2.8-3.31v-1.75ZM480.37,628.92c0-2.37.93-3.55,2.8-3.55s2.77,1.18,2.77,3.55v2.91c-.01,1.32-.26,2.23-.75,2.76-.48.52-1.16.79-2.02.79s-1.57-.27-2.06-.8c-.49-.53-.74-1.45-.74-2.75v-2.91ZM477.44,637.8c1.33,1.37,3.24,2.06,5.73,2.06s4.4-.69,5.72-2.06c1.32-1.37,1.98-3.32,1.98-5.83v-2.48c0-3.21-1.02-5.4-3.05-6.55,2.03-1.14,3.05-3.24,3.05-6.31v-1.01c0-2.51-.66-4.46-1.98-5.83-1.32-1.37-3.23-2.06-5.72-2.06s-4.4.69-5.73,2.06c-1.33,1.37-2,3.32-2,5.83v1.01c0,3.1,1.02,5.2,3.06,6.31-2.04,1.15-3.06,3.34-3.06,6.55v2.48c0,2.51.67,4.45,2,5.83M472.68,634.97h-4.93v4.53h4.93v-4.53ZM454.27,615.82c0-1.32.25-2.25.74-2.78.49-.54,1.18-.81,2.06-.81s1.57.27,2.05.8c.48.53.73,1.46.73,2.8v1.75c0,2.21-.93,3.31-2.78,3.31s-2.79-1.1-2.79-3.31v-1.75ZM454.27,628.92c0-2.37.93-3.55,2.79-3.55s2.78,1.18,2.78,3.55v2.91c-.02,1.32-.27,2.23-.75,2.76-.49.52-1.16.79-2.03.79s-1.57-.27-2.06-.8c-.49-.53-.74-1.45-.74-2.75v-2.91ZM451.34,637.8c1.33,1.37,3.24,2.06,5.73,2.06s4.4-.69,5.72-2.06c1.32-1.37,1.98-3.32,1.98-5.83v-2.48c0-3.21-1.02-5.4-3.05-6.55,2.04-1.14,3.05-3.24,3.05-6.31v-1.01c0-2.51-.66-4.46-1.98-5.83-1.32-1.37-3.23-2.06-5.72-2.06s-4.4.69-5.73,2.06c-1.33,1.37-2,3.32-2,5.83v1.01c0,3.1,1.02,5.2,3.05,6.31-2.03,1.15-3.05,3.34-3.05,6.55v2.48c0,2.51.66,4.45,2,5.83"/>
  <path class="st1" d="M505.17,561.95c0-1.13.2-1.95.6-2.46.4-.52,1.04-.78,1.92-.78h2.36v9.66h-1.92c-.98,0-1.72-.25-2.22-.75-.49-.5-.74-1.36-.74-2.58v-3.09ZM504.67,585.64c.12-.36.2-.64.24-.82.04-.18.09-.53.14-1.05.05-.52.08-1.18.08-1.98v-4.93c0-1.44.25-2.47.77-3.09.51-.61,1.33-.92,2.45-.92h1.71v12.8h4.93v-31.43h-7.45c-2.53,0-4.38.59-5.55,1.77-1.17,1.18-1.76,3-1.76,5.46v2.48c0,3.24,1.07,5.37,3.22,6.37-1.18.5-2.02,1.3-2.52,2.41-.49,1.11-.74,2.54-.74,4.28v4.84c0,1.69-.15,2.97-.46,3.81h4.93ZM486.32,585.64v-13.46h5.61v13.46h4.93v-31.43h-4.93v13.48h-5.61v-13.48h-4.93v31.43h4.93ZM465.92,585.64l3.84-11.69,3.79,11.69h4.93l-5.49-16.01,5.16-15.42h-4.33l-3.8,11.65-3.74-11.65h-4.93l5.17,15.23-5.52,16.2h4.93ZM449.22,578.4l-.04.28c-.19,1.08-.63,1.79-1.32,2.14-.69.35-1.7.48-3.05.39v4.47c1.33.09,2.49.04,3.48-.14.99-.18,1.83-.47,2.52-.87.69-.4,1.27-.95,1.76-1.67.48-.71.88-1.49,1.18-2.34.3-.84.57-1.87.82-3.08l5.28-23.38h-4.93l-2.26,10.78-1.15,7.28-1.53-7.35-2.67-10.71h-4.93l6.85,24.18ZM430.18,585.64v-9.64l1.54-2.87,4.8,12.51h5.06l-6.86-17.42,6.86-14h-4.93l-6.46,13.7v-13.7h-4.93v31.43h4.93Z"/>
  <path class="st1" d="M885.96,549.99c0-2.06.86-3.09,2.58-3.09s2.55,1.03,2.55,3.09v16.96c0,2.08-.85,3.11-2.55,3.11s-2.58-1.04-2.58-3.11v-16.96ZM882.97,572.47c1.29,1.37,3.15,2.06,5.57,2.06s4.26-.69,5.55-2.06c1.29-1.37,1.93-3.32,1.93-5.83v-16.35c0-2.51-.64-4.46-1.93-5.83-1.29-1.37-3.14-2.06-5.55-2.06s-4.27.69-5.57,2.06c-1.29,1.37-1.94,3.32-1.94,5.83v16.35c0,2.51.65,4.45,1.94,5.83M878.05,569.64h-4.93v4.53h4.93v-4.53ZM859.77,549.99c0-2.03.85-3.05,2.55-3.05s2.58,1.02,2.58,3.05v5.66c0,2.06-.86,3.09-2.58,3.09s-2.55-1.03-2.55-3.09v-5.66ZM856.22,561.38c.92,1.23,2.28,1.84,4.09,1.84,2.18,0,3.72-.93,4.6-2.78v5.74c0,1.43-.23,2.44-.68,3.01-.46.58-1.15.87-2.07.87-1.72,0-2.58-1.04-2.58-3.11v-1.12h-4.64v.81c0,2.53.63,4.47,1.88,5.84,1.25,1.37,3.08,2.05,5.47,2.05,5.03,0,7.55-2.72,7.55-8.15v-16.09c0-2.51-.65-4.46-1.94-5.83-1.29-1.37-3.15-2.06-5.56-2.06s-4.27.69-5.56,2.06c-1.29,1.37-1.93,3.32-1.93,5.83v5.76c0,2.32.46,4.1,1.37,5.33M844.43,550.21v23.98h4.93v-31.43h-3.33c-.19.51-.36.93-.5,1.24-.15.32-.36.66-.65,1.05-.28.38-.6.69-.95.9s-.81.4-1.38.55c-.57.15-1.22.23-1.95.23v3.49h3.84Z"/>
  <path class="st1" d="M978.6,494.53l2.39,15.82h-4.76l2.37-15.82ZM974.74,520.32l.85-5.7h6.05l.86,5.7h4.93l-5-31.43h-7.62l-5,31.43h4.93ZM958.84,493.39v26.93h4.93v-26.93h5.17v-4.49h-15.28v4.49h5.17ZM944.37,494.53l2.39,15.82h-4.76l2.37-15.82ZM940.5,520.32l.85-5.7h6.05l.86,5.7h4.93l-5-31.43h-7.61l-5,31.43h4.93ZM922.64,520.32v-13.46h5.61v13.46h4.93v-31.43h-4.93v13.48h-5.61v-13.48h-4.93v31.43h4.93ZM897.7,520.32v-22.17l3.68,22.17h4.68l3.41-22.53v22.53h4.93v-31.43h-7.11l-3.39,22.38-3.65-22.38h-6.85v31.43h4.3ZM880.19,496.12c0-2.06.86-3.09,2.58-3.09s2.55,1.03,2.55,3.09v16.96c0,2.08-.85,3.11-2.55,3.11s-2.58-1.04-2.58-3.11v-16.96ZM877.2,518.61c1.29,1.37,3.15,2.06,5.57,2.06s4.26-.69,5.55-2.06c1.29-1.37,1.93-3.32,1.93-5.83v-16.35c0-2.51-.64-4.46-1.93-5.83-1.29-1.37-3.14-2.06-5.55-2.06s-4.27.69-5.57,2.06c-1.29,1.37-1.94,3.32-1.94,5.83v16.35c0,2.51.65,4.45,1.94,5.83M862.04,520.32v-9.64l1.54-2.87,4.8,12.51h5.06l-6.86-17.42,6.86-14h-4.93l-6.47,13.7v-13.7h-4.93v31.43h4.93ZM836.75,496.63c0-1.12.2-1.95.6-2.46.4-.52,1.04-.78,1.92-.78h2.37v9.66h-1.93c-.98,0-1.72-.25-2.21-.75-.5-.5-.74-1.36-.74-2.58v-3.09ZM836.24,520.32c.12-.36.2-.64.24-.82.05-.18.09-.53.14-1.05.05-.52.08-1.18.08-1.98v-4.93c0-1.44.26-2.47.77-3.09.51-.61,1.33-.92,2.46-.92h1.71v12.8h4.93v-31.43h-7.45c-2.53,0-4.37.59-5.55,1.77-1.17,1.18-1.75,3-1.75,5.46v2.48c0,3.24,1.07,5.37,3.22,6.37-1.18.5-2.02,1.3-2.52,2.41-.5,1.11-.75,2.54-.75,4.28v4.84c0,1.69-.15,2.97-.46,3.81h4.93ZM821.37,494.53l2.39,15.82h-4.76l2.37-15.82ZM817.51,520.32l.85-5.7h6.05l.86,5.7h4.93l-5-31.43h-7.62l-5,31.43h4.93ZM793.09,520.36c2.47,0,4.26-.61,5.38-1.84,1.12-1.23,1.72-3.27,1.81-6.13l.55-19h4.27v26.93h4.93v-31.43h-14.14l-.55,23.76c-.03.73-.09,1.31-.19,1.73-.1.42-.28.75-.54.98-.26.22-.55.37-.88.43-.33.05-.8.08-1.4.08v4.49h.77ZM779.59,520.32l4.16-14.4,2-7.69v22.09h4.93v-31.43h-5.92l-4.03,12.97-1.8,6.93v-19.9h-4.4v31.43h5.06ZM750.92,520.32l4.5-14.01,1.21,2.44v11.57h4.93v-11.51l1.23-2.39,4.49,13.9h4.93l-6.05-18.61,6.05-12.82h-4.81l-5.85,12.71v-12.71h-4.93v12.71l-5.85-12.71h-4.81l6.13,12.89-6.13,18.54h4.93Z"/>
  <path class="st0" d="M866.6,371.07c34.73,0,62.88-28.15,62.88-62.88s-28.16-62.88-62.88-62.88-62.88,28.15-62.88,62.88,28.16,62.88,62.88,62.88Z"/>
  <path class="st1" d="M877.56,337.32v-16.69l2.65-4.97,8.31,21.66h8.76l-11.87-30.15,11.87-24.24h-8.53l-11.19,23.71v-23.71h-8.54v54.39h8.54ZM850.14,295.82v41.49h8.53v-54.39h-5.76c-.33.89-.62,1.6-.88,2.14-.25.55-.63,1.15-1.12,1.82-.49.67-1.04,1.19-1.65,1.56-.61.37-1.4.68-2.39.95-.99.27-2.11.4-3.38.4v6.03h6.64Z"/>
  <path class="st0" d="M526.76,422.68s0,11.64,5.14,26.14c4.3,12.13,12.88,23.46,12.88,23.46l71.63-40.72-1.8-2.86-71.8,40.72"/>
  <path class="st0" d="M474.21,314.63s10.13,0,22.75,4.48c10.55,3.75,20.42,11.23,20.42,11.23l-35.43,62.43-2.5-1.57,35.44-62.59"/>
  <rect class="st1" x="475.88" y="221.42" width="12.2" height="93.14"/>
  <rect class="st0" x="475.88" y="221.42" width="12.2" height="93.14"/>
  <rect class="st1" x="475.88" y="379.29" width="12.2" height="80.33"/>
  <rect class="st0" x="475.88" y="379.29" width="12.2" height="80.33"/>
  <rect class="st1" x="483.12" y="420.61" width="44.55" height="12.2"/>
  <rect class="st0" x="483.12" y="420.61" width="44.55" height="12.2"/>
  <rect class="st1" x="614.89" y="420.61" width="46.53" height="12.2"/>
  <rect class="st0" x="614.89" y="420.61" width="46.53" height="12.2"/>
  <rect class="st1" x="280.89" y="221.42" width="207.18" height="12.2"/>
  <rect class="st0" x="280.89" y="221.42" width="207.18" height="12.2"/>
  <rect class="st1" x="280.89" y="447.43" width="207.18" height="12.2"/>
  <rect class="st0" x="280.89" y="447.43" width="207.18" height="12.2"/>
  <g>
    <path class="st0" d="M317.05,275.39c0-1.67,1.39-3.02,3.11-3.02s3.11,1.35,3.11,3.02-1.39,3.02-3.11,3.02-3.11-1.35-3.11-3.02Z"/>
    <rect class="st0" x="287.47" y="241.49" width="180.04" height="67.81" rx="20.03" ry="20.03"/>
    <path class="st0" d="M455.01,282.93c0,11.06-8.97,20.03-20.03,20.03h-114.98c-11.06,0-20.03-8.96-20.03-20.03v-15.08c0-11.06,8.97-20.03,20.03-20.03h114.98c11.06,0,20.03,8.96,20.03,20.03v15.08Z"/>
    <path class="st0" d="M439.92,286.86c0,5.53-4.48,10.01-10.01,10.01h-113.02c-5.53,0-10.02-4.48-10.02-10.01v-22.93c0-5.53,4.48-10.01,10.02-10.01h113.02c5.53,0,10.01,4.48,10.01,10.01v22.93Z"/>
  </g>
  <polygon class="st0" points="280.42 235.83 280.42 235.83 474.57 235.83 474.57 314.96 280.42 314.96 280.42 235.83"/>
  <path class="st1" d="M368.34,402.19c0,11.94-9.71,21.65-21.66,21.65h-31.36c-2.06,0-3.74-1.68-3.74-3.74v-35.84c0-2.06,1.68-3.74,3.74-3.74h31.36c11.95,0,21.66,9.72,21.66,21.66M310.09,384.27v35.84c0,2.88,2.34,5.22,5.22,5.22h31.36c12.76,0,23.15-10.38,23.15-23.14s-10.39-23.14-23.15-23.14h-31.36c-2.88,0-5.22,2.34-5.22,5.22"/>
  <path class="st0" d="M368.34,402.19c0,11.94-9.71,21.65-21.66,21.65h-31.36c-2.06,0-3.74-1.68-3.74-3.74v-35.84c0-2.06,1.68-3.74,3.74-3.74h31.36c11.95,0,21.66,9.72,21.66,21.66ZM310.09,384.27v35.84c0,2.88,2.34,5.22,5.22,5.22h31.36c12.76,0,23.15-10.38,23.15-23.14s-10.39-23.14-23.15-23.14h-31.36c-2.88,0-5.22,2.34-5.22,5.22Z"/>
  <path class="st0" d="M322.04,417.72v-31.05c0-.2.18-.38.37-.38h23.64c8.74,0,15.9,7.16,15.9,15.9s-7.17,15.9-15.9,15.9h-23.64c-.19,0-.37-.17-.37-.37Z"/>
  <path class="st1" d="M322.79,417.34v-30.31h23.27c8.36,0,15.16,6.8,15.16,15.16s-6.8,15.16-15.16,15.16h-23.27ZM321.3,386.67v31.05c0,.6.51,1.11,1.12,1.11h23.64c9.18,0,16.65-7.47,16.65-16.64s-7.47-16.65-16.65-16.65h-23.64c-.6,0-1.12.52-1.12,1.13"/>
  <path class="st0" d="M322.79,417.34v-30.31h23.27c8.36,0,15.16,6.8,15.16,15.16s-6.8,15.16-15.16,15.16h-23.27ZM321.3,386.67v31.05c0,.6.51,1.11,1.12,1.11h23.64c9.18,0,16.65-7.47,16.65-16.64s-7.47-16.65-16.65-16.65h-23.64c-.6,0-1.12.52-1.12,1.13Z"/>
  <path class="st1" d="M346.09,402.19c0,2.25-1.83,4.09-4.09,4.09s-4.09-1.84-4.09-4.09,1.84-4.09,4.09-4.09,4.09,1.84,4.09,4.09M336.42,402.19c0,3.08,2.5,5.58,5.58,5.58s5.58-2.5,5.58-5.58-2.5-5.58-5.58-5.58-5.58,2.5-5.58,5.58"/>
  <path class="st0" d="M346.09,402.19c0,2.25-1.83,4.09-4.09,4.09s-4.09-1.84-4.09-4.09,1.84-4.09,4.09-4.09,4.09,1.84,4.09,4.09ZM336.42,402.19c0,3.08,2.5,5.58,5.58,5.58s5.58-2.5,5.58-5.58-2.5-5.58-5.58-5.58-5.58,2.5-5.58,5.58Z"/>
  <rect class="st1" x="324.25" y="410.42" width="12.41" height="1.49" transform="translate(-180.37 279.59) rotate(-36.77)"/>
  <rect class="st0" x="324.25" y="410.42" width="12.41" height="1.49" transform="translate(-180.37 279.59) rotate(-36.77)"/>
  <polygon class="st1" points="325.04 390.33 334.98 397.77 335.88 396.58 325.94 389.14 325.04 390.33"/>
  <polygon class="st0" points="325.04 390.33 334.98 397.77 335.88 396.58 325.94 389.14 325.04 390.33"/>
  <path class="st1" d="M310.02,417.13c0,3.31-2.69,6-6,6h-8.16c-3.31,0-6-2.69-6-6v-29.9c0-3.31,2.69-6,6-6h8.16c3.31,0,6,2.69,6,6v29.9ZM288.37,387.24v29.9c0,4.13,3.36,7.49,7.49,7.49h8.16c4.13,0,7.49-3.36,7.49-7.49v-29.9c0-4.13-3.36-7.49-7.49-7.49h-8.16c-4.13,0-7.49,3.36-7.49,7.49"/>
  <path class="st0" d="M310.02,417.13c0,3.31-2.69,6-6,6h-8.16c-3.31,0-6-2.69-6-6v-29.9c0-3.31,2.69-6,6-6h8.16c3.31,0,6,2.69,6,6v29.9ZM288.37,387.24v29.9c0,4.13,3.36,7.49,7.49,7.49h8.16c4.13,0,7.49-3.36,7.49-7.49v-29.9c0-4.13-3.36-7.49-7.49-7.49h-8.16c-4.13,0-7.49,3.36-7.49,7.49Z"/>
  <path class="st1" d="M302.26,402.19c0,1.28-1.04,2.32-2.32,2.32s-2.32-1.04-2.32-2.32,1.04-2.32,2.32-2.32,2.32,1.04,2.32,2.32M296.13,402.19c0,2.1,1.7,3.81,3.81,3.81s3.81-1.71,3.81-3.81-1.71-3.81-3.81-3.81-3.81,1.71-3.81,3.81"/>
  <path class="st0" d="M302.26,402.19c0,1.28-1.04,2.32-2.32,2.32s-2.32-1.04-2.32-2.32,1.04-2.32,2.32-2.32,2.32,1.04,2.32,2.32ZM296.13,402.19c0,2.1,1.7,3.81,3.81,3.81s3.81-1.71,3.81-3.81-1.71-3.81-3.81-3.81-3.81,1.71-3.81,3.81Z"/>
  <path class="st1" d="M325.06,351.56c0,10.91-8.88,19.78-19.79,19.78h-20.99c-1.66,0-3.01-1.35-3.01-3.01v-44.72c0-1.66,1.35-3,3.01-3h20.99c10.91,0,19.79,8.88,19.79,19.79v11.16ZM280.16,323.61v44.72c0,2.27,1.85,4.12,4.12,4.12h20.99c11.53,0,20.91-9.38,20.91-20.9v-11.16c0-11.53-9.38-20.91-20.91-20.91h-20.99c-2.27,0-4.12,1.85-4.12,4.12"/>
  <path class="st0" d="M325.06,351.56c0,10.91-8.88,19.78-19.79,19.78h-20.99c-1.66,0-3.01-1.35-3.01-3.01v-44.72c0-1.66,1.35-3,3.01-3h20.99c10.91,0,19.79,8.88,19.79,19.79v11.16ZM280.16,323.61v44.72c0,2.27,1.85,4.12,4.12,4.12h20.99c11.53,0,20.91-9.38,20.91-20.9v-11.16c0-11.53-9.38-20.91-20.91-20.91h-20.99c-2.27,0-4.12,1.85-4.12,4.12Z"/>
  <path class="st1" d="M320.11,351.56c0,8.17-6.66,14.82-14.84,14.82h-12.25c-1.43,0-2.59-1.16-2.59-2.58v-35.65c0-1.43,1.16-2.59,2.59-2.59h12.25c8.18,0,14.84,6.65,14.84,14.83v11.17ZM289.31,328.15v35.65c0,2.04,1.66,3.7,3.71,3.7h12.25c8.8,0,15.96-7.15,15.96-15.94v-11.17c0-8.79-7.16-15.94-15.96-15.94h-12.25c-2.04,0-3.71,1.66-3.71,3.7"/>
  <path class="st0" d="M320.11,351.56c0,8.17-6.66,14.82-14.84,14.82h-12.25c-1.43,0-2.59-1.16-2.59-2.58v-35.65c0-1.43,1.16-2.59,2.59-2.59h12.25c8.18,0,14.84,6.65,14.84,14.83v11.17ZM289.31,328.15v35.65c0,2.04,1.66,3.7,3.71,3.7h12.25c8.8,0,15.96-7.15,15.96-15.94v-11.17c0-8.79-7.16-15.94-15.96-15.94h-12.25c-2.04,0-3.71,1.66-3.71,3.7Z"/>
  <path class="st1" d="M309.73,345.97c0,1.37-1.11,2.48-2.48,2.48s-2.47-1.11-2.47-2.48,1.11-2.48,2.47-2.48,2.48,1.11,2.48,2.48M303.65,345.97c0,1.99,1.62,3.6,3.6,3.6s3.6-1.62,3.6-3.6-1.62-3.6-3.6-3.6-3.6,1.62-3.6,3.6"/>
  <path class="st0" d="M309.73,345.97c0,1.37-1.11,2.48-2.48,2.48s-2.47-1.11-2.47-2.48,1.11-2.48,2.47-2.48,2.48,1.11,2.48,2.48ZM303.65,345.97c0,1.99,1.62,3.6,3.6,3.6s3.6-1.62,3.6-3.6-1.62-3.6-3.6-3.6-3.6,1.62-3.6,3.6Z"/>
  <rect class="st0" x="427.76" y="376.48" width="44.66" height="66.3"/>
  <line class="st0" x1="428.41" y1="443.13" x2="472.24" y2="376.59"/>
  <line class="st0" x1="472.76" y1="443.13" x2="428.92" y2="376.59"/>
  <path class="st1" d="M281.52,462.57h58.09v58.81h-58.09v-58.81ZM280.24,522.68h60.66v-61.41h-60.66v61.41Z"/>
  <path class="st0" d="M281.52,462.57h58.09v58.81h-58.09v-58.81ZM280.24,522.68h60.66v-61.41h-60.66v61.41Z"/>
  <g>
    <path class="st1" d="M334.3,512.57c0,1.45-1.16,2.63-2.6,2.63h-30.5c-1.43,0-2.6-1.18-2.6-2.63v-41.18c0-1.45,1.17-2.63,2.6-2.63h30.5c1.43,0,2.6,1.18,2.6,2.63v41.18ZM297.32,471.38v41.18c0,2.17,1.74,3.93,3.89,3.93h30.5c2.14,0,3.88-1.76,3.88-3.93v-41.18c0-2.17-1.74-3.93-3.88-3.93h-30.5c-2.14,0-3.89,1.76-3.89,3.93"/>
    <path class="st0" d="M334.3,512.57c0,1.45-1.16,2.63-2.6,2.63h-30.5c-1.43,0-2.6-1.18-2.6-2.63v-41.18c0-1.45,1.17-2.63,2.6-2.63h30.5c1.43,0,2.6,1.18,2.6,2.63v41.18ZM297.32,471.38v41.18c0,2.17,1.74,3.93,3.89,3.93h30.5c2.14,0,3.88-1.76,3.88-3.93v-41.18c0-2.17-1.74-3.93-3.88-3.93h-30.5c-2.14,0-3.89,1.76-3.89,3.93Z"/>
  </g>
  <path class="st1" d="M303.13,473.33h26.66v37.29h-26.66v-37.29ZM301.85,511.91h29.22v-39.89h-29.22v39.89Z"/>
  <path class="st0" d="M303.13,473.33h26.66v37.29h-26.66v-37.29ZM301.85,511.91h29.22v-39.89h-29.22v39.89Z"/>
  <path class="st1" d="M321.6,491.98c0,1.87-1.5,3.38-3.34,3.38s-3.34-1.52-3.34-3.38,1.5-3.38,3.34-3.38,3.34,1.52,3.34,3.38M313.65,491.98c0,2.58,2.07,4.68,4.61,4.68s4.62-2.1,4.62-4.68-2.07-4.68-4.62-4.68-4.61,2.1-4.61,4.68"/>
  <path class="st0" d="M321.6,491.98c0,1.87-1.5,3.38-3.34,3.38s-3.34-1.52-3.34-3.38,1.5-3.38,3.34-3.38,3.34,1.52,3.34,3.38ZM313.65,491.98c0,2.58,2.07,4.68,4.61,4.68s4.62-2.1,4.62-4.68-2.07-4.68-4.62-4.68-4.61,2.1-4.61,4.68Z"/>
  <path class="st1" d="M586.18,316.98c1.02,1.05,2.45,1.57,4.3,1.57s3.24-.52,4.2-1.57c.95-1.05,1.44-2.54,1.44-4.48v-5.38c0-1.79-.35-3.16-1.05-4.09-.7-.94-1.74-1.4-3.13-1.4-1.49,0-2.59.58-3.29,1.74l.3-5.74h6.57v-3.45h-10.13l-.73,13.98h3.78v-.72c0-1.58.65-2.37,1.94-2.37s1.95.79,1.95,2.37v5.29c0,1.57-.65,2.35-1.95,2.35s-1.94-.78-1.94-2.35v-2.23h-3.78v2c0,1.94.51,3.43,1.52,4.48M582.22,314.81h-3.78v3.48h3.78v-3.48ZM566.18,316.98c1.02,1.05,2.45,1.57,4.29,1.57s3.25-.52,4.2-1.57c.96-1.05,1.44-2.54,1.44-4.48v-5.38c0-1.79-.35-3.16-1.05-4.09-.7-.94-1.74-1.4-3.13-1.4-1.49,0-2.59.58-3.3,1.74l.3-5.74h6.57v-3.45h-10.12l-.73,13.98h3.78v-.72c0-1.58.65-2.37,1.94-2.37s1.95.79,1.95,2.37v5.29c0,1.57-.65,2.35-1.95,2.35s-1.94-.78-1.94-2.35v-2.23h-3.78v2c0,1.94.51,3.43,1.53,4.48"/>
  <path class="st1" d="M631.02,258.84c0-.87.16-1.49.46-1.89.3-.4.8-.6,1.46-.6h1.82v7.41h-1.48c-.75,0-1.31-.2-1.7-.58-.38-.39-.57-1.05-.57-1.98v-2.37ZM630.63,277c.09-.28.15-.49.18-.63.04-.14.07-.41.11-.81.04-.4.06-.91.06-1.52v-3.78c0-1.11.2-1.9.59-2.37.4-.47,1.02-.71,1.88-.71h1.31v9.81h3.78v-24.09h-5.71c-1.94,0-3.35.45-4.25,1.37-.9.91-1.34,2.3-1.34,4.18v1.9c0,2.49.82,4.12,2.47,4.89-.91.38-1.55.99-1.94,1.85-.38.85-.57,1.94-.57,3.27v3.71c0,1.3-.12,2.27-.35,2.92h3.78ZM619.23,257.23l1.83,12.12h-3.64l1.82-12.12ZM616.26,277l.66-4.37h4.63l.66,4.37h3.78l-3.84-24.09h-5.84l-3.84,24.09h3.78ZM595.38,277l3.45-10.74.93,1.87v8.86h3.78v-8.82l.94-1.83,3.44,10.65h3.78l-4.64-14.26,4.64-9.83h-3.68l-4.48,9.75v-9.75h-3.78v9.75l-4.48-9.75h-3.68l4.7,9.88-4.7,14.21h3.78ZM582.55,258.45c0-1.58.66-2.37,1.97-2.37s1.96.79,1.96,2.37v13c0,1.59-.65,2.39-1.96,2.39s-1.97-.8-1.97-2.39v-13ZM580.26,275.69c.99,1.05,2.41,1.58,4.26,1.58s3.27-.52,4.26-1.58c.98-1.06,1.48-2.55,1.48-4.47v-12.53c0-1.93-.49-3.42-1.48-4.47-.99-1.05-2.41-1.58-4.26-1.58s-3.27.53-4.26,1.58c-.99,1.05-1.49,2.54-1.49,4.47v12.53c0,1.92.5,3.41,1.49,4.47M567.23,277l2.94-8.96,2.91,8.96h3.78l-4.21-12.28,3.96-11.82h-3.32l-2.91,8.93-2.87-8.93h-3.78l3.96,11.68-4.23,12.42h3.78ZM553.51,277l3.19-11.03,1.53-5.9v16.93h3.78v-24.09h-4.53l-3.09,9.95-1.38,5.31v-15.26h-3.38v24.09h3.88ZM540.43,256.35h1.8c.63,0,1.09.17,1.39.51s.45.93.45,1.76v3.61c0,.83-.15,1.42-.45,1.77-.3.35-.77.52-1.39.52h-1.8v-8.17ZM540.43,277v-9.06h1.8c1.87,0,3.27-.51,4.21-1.52.94-1.02,1.42-2.49,1.42-4.43v-3.13c0-1.94-.48-3.41-1.42-4.43-.95-1.02-2.35-1.53-4.22-1.53h-5.57v24.09h3.78ZM525.75,277v-20.65h4.3v20.65h3.78v-24.09h-11.86v24.09h3.78Z"/>
  <path class="st1" d="M407.85,362.96v9.34h-3.94l3.94-9.34ZM407.85,375.86v4.5h3.9v-4.5h1.79v-3.56h-1.79v-16.8h-4.26l-7.09,16.8v3.56h7.45ZM398.56,376.77h-3.9v3.59h3.9v-3.59ZM381.97,379.02c1.05,1.08,2.52,1.62,4.43,1.62s3.35-.54,4.34-1.62c.99-1.08,1.49-2.62,1.49-4.62v-1.96c0-2.69-.91-4.43-2.72-5.22,1.81-.75,2.72-2.45,2.72-5.11v-.64c0-2-.5-3.54-1.49-4.62-.98-1.08-2.43-1.62-4.34-1.62s-3.38.54-4.43,1.62c-1.05,1.09-1.58,2.62-1.58,4.62v1.35h3.9v-1.6c0-1.63.67-2.44,2-2.44.67,0,1.17.2,1.51.62.34.41.51,1.15.51,2.22v1.39c0,.95-.19,1.62-.59,2.02-.4.4-.98.59-1.75.59h-1.52v3.56h1.31c.91,0,1.55.24,1.95.73.4.49.59,1.3.59,2.43v1.95c0,1.04-.17,1.77-.51,2.19-.34.41-.84.62-1.51.62-1.34,0-2-.82-2-2.46v-2.3h-3.9v2.06c0,2,.53,3.54,1.58,4.62"/>
  <path class="st1" d="M408.6,344.34l-.04.23c-.15.85-.49,1.42-1.04,1.69s-1.35.38-2.41.31v3.54c1.05.07,1.97.03,2.75-.11.79-.14,1.44-.38,1.99-.69.54-.31,1-.75,1.39-1.31.38-.56.7-1.18.94-1.85.23-.67.45-1.48.64-2.43l4.17-18.49h-3.9l-1.79,8.53-.92,5.76-1.21-5.81-2.1-8.47h-3.9l5.42,19.12ZM392.94,350.07l9.79-24.86h-3.38l-9.79,24.86h3.38ZM378.27,348.73c.99,1.08,2.44,1.62,4.35,1.62s3.39-.54,4.44-1.62c1.05-1.08,1.57-2.62,1.57-4.62v-3.31h-3.9v3.55c0,1.62-.67,2.43-2.02,2.43s-2.03-.81-2.03-2.43v-13.41c0-1.63.68-2.44,2.03-2.44s2.02.82,2.02,2.44v2.67h3.9v-2.42c0-2-.52-3.54-1.57-4.62-1.05-1.08-2.53-1.62-4.44-1.62s-3.36.54-4.35,1.62c-.99,1.09-1.48,2.62-1.48,4.62v12.93c0,2,.49,3.54,1.48,4.62"/>
  <rect class="st1" x="255.92" y="755.26" width="24.08" height="196.53"/>
  <rect class="st0" x="255.92" y="755.26" width="24.08" height="196.53"/>
  <rect class="st1" x="262.2" y="90.64" width="15.35" height="643.16"/>
  <rect class="st0" x="262.2" y="90.64" width="15.35" height="643.16"/>
  <rect class="st1" x="259.58" y="618.65" width="21.1" height="332.11"/>
  <rect class="st0" x="259.58" y="618.65" width="21.1" height="332.11"/>
  <rect class="st1" x="259.58" y="614.35" width="21.1" height="338.83"/>
  <rect class="st0" x="259.58" y="614.35" width="21.1" height="338.83"/>
  <rect class="st1" x="259.58" y="108.65" width="21.1" height="526.17"/>
  <rect class="st0" x="259.58" y="108.65" width="21.1" height="526.17"/>
  <g>
    <path class="st1" d="M792.46,449.93v-11.05l22.06-52.26h13.27v52.26h5.55v11.05h-5.55v14.02h-12.13v-14.02h-23.19ZM803.41,438.87h12.24v-29.07l-12.24,29.07Z"/>
    <path class="st1" d="M846.28,404.95v-8.58c1.8,0,3.39-.19,4.8-.57,1.4-.38,2.53-.83,3.39-1.35.86-.52,1.65-1.26,2.35-2.21.7-.96,1.23-1.82,1.59-2.59.36-.77.77-1.79,1.24-3.05h8.2v77.34h-12.13v-59h-9.44Z"/>
    <path class="st1" d="M882.58,463.95v-11.16h12.13v11.16h-12.13Z"/>
    <path class="st1" d="M903.07,463.95v-9.49c0-3.05.44-5.94,1.33-8.65.89-2.71,2.04-5.09,3.47-7.12,1.43-2.03,3-4.01,4.71-5.93,1.72-1.92,3.43-3.84,5.15-5.75,1.71-1.9,3.28-3.86,4.69-5.88,1.41-2.01,2.56-4.34,3.43-6.98.88-2.64,1.32-5.48,1.32-8.5,0-3.31-.52-5.61-1.56-6.9-1.04-1.3-2.59-1.94-4.67-1.94-4.19,0-6.28,2.53-6.28,7.6v8.3h-11.6v-7.55c0-6.22,1.56-11.01,4.68-14.37,3.12-3.37,7.62-5.05,13.51-5.05s10.36,1.68,13.44,5.05c3.08,3.36,4.62,8.15,4.62,14.37,0,3.31-.45,6.48-1.34,9.52-.89,3.04-2.05,5.73-3.46,8.06s-2.97,4.57-4.67,6.71c-1.7,2.14-3.41,4.14-5.12,5.99-1.72,1.85-3.29,3.62-4.7,5.31-1.41,1.69-2.57,3.43-3.46,5.23-.9,1.8-1.34,3.54-1.34,5.23,0,.75.04,1.31.11,1.67h22.86v11.05h-35.11Z"/>
  </g>
  <g>
    <path class="st1" d="M418.91,861.25v-6.11c0-2.66.68-4.72,2.05-6.18,1.36-1.46,3.33-2.18,5.89-2.18s4.53.73,5.89,2.18c1.37,1.46,2.05,3.51,2.05,6.18v17.04c0,5.76-2.66,8.64-8,8.64-2.54,0-4.47-.73-5.8-2.17-1.33-1.45-1.99-3.51-1.99-6.19v-.86h4.92v1.18c0,2.2.91,3.3,2.73,3.3.98,0,1.71-.31,2.19-.92.48-.61.73-1.68.73-3.19v-6.08c-.93,1.97-2.56,2.95-4.87,2.95-1.91,0-3.36-.65-4.33-1.95-.97-1.3-1.46-3.18-1.46-5.64ZM424.13,860.81c0,2.18.9,3.28,2.71,3.28s2.73-1.09,2.73-3.28v-5.99c0-2.15-.91-3.23-2.73-3.23s-2.71,1.08-2.71,3.23v5.99Z"/>
    <path class="st1" d="M438.28,880.45v-4.81h5.22v4.81h-5.22Z"/>
    <path class="st1" d="M446.66,872.46v-17.32c0-2.66.68-4.72,2.06-6.18s3.34-2.18,5.89-2.18,4.52.73,5.89,2.18,2.05,3.51,2.05,6.18v17.32c0,2.66-.68,4.72-2.05,6.18s-3.32,2.18-5.89,2.18-4.52-.73-5.89-2.18-2.06-3.51-2.06-6.18ZM451.88,872.79c0,2.2.91,3.3,2.73,3.3s2.71-1.1,2.71-3.3v-17.97c0-2.18-.9-3.28-2.71-3.28s-2.73,1.09-2.73,3.28v17.97Z"/>
    <path class="st1" d="M473.62,873.18v-18.74c0-2.65.57-4.53,1.69-5.63,1.13-1.11,3.01-1.66,5.64-1.66h1.6v4.53h-1.29c-.87,0-1.49.21-1.87.62-.37.42-.56,1.19-.56,2.31v18.37c0,1.12.18,1.89.56,2.31.38.41,1,.62,1.87.62h1.29v4.53h-1.6c-2.63,0-4.51-.55-5.64-1.65-1.13-1.1-1.69-2.97-1.69-5.62Z"/>
    <path class="st1" d="M484.09,874.41v-4.76l9.5-22.5h5.71v22.5h2.39v4.76h-2.39v6.04h-5.23v-6.04h-9.99ZM488.8,869.66h5.27v-12.52l-5.27,12.52Z"/>
    <path class="st1" d="M504.06,880.45v-4.81h5.22v4.81h-5.22Z"/>
    <path class="st1" d="M512.65,872.46v-2.76h5.23v3.09c0,2.17.89,3.25,2.68,3.25s2.71-1.09,2.71-3.25v-7.31c0-2.18-.9-3.28-2.71-3.28s-2.68,1.09-2.68,3.28v1h-5.23l1-19.32h14v4.76h-9.08l-.42,7.94c.97-1.61,2.49-2.41,4.56-2.41,1.92,0,3.36.64,4.33,1.94.97,1.29,1.45,3.18,1.45,5.65v7.43c0,2.68-.66,4.74-1.99,6.19s-3.26,2.17-5.81,2.17-4.53-.73-5.93-2.17c-1.41-1.45-2.11-3.51-2.11-6.19Z"/>
    <path class="st1" d="M530.58,880.45v-4.53h1.28c.86,0,1.49-.21,1.87-.62.38-.42.57-1.19.57-2.31v-18.37c0-1.12-.19-1.89-.57-2.31-.38-.41-1-.62-1.87-.62h-1.28v-4.53h1.6c2.63,0,4.51.55,5.64,1.66,1.13,1.11,1.69,2.98,1.69,5.63v18.74c0,2.65-.57,4.52-1.69,5.62-1.13,1.1-3.01,1.65-5.64,1.65h-1.6Z"/>
  </g>
</svg>