<?xml version="1.0" encoding="UTF-8"?>
<svg id="_Слой_1" data-name="Слой_1" xmlns="http://www.w3.org/2000/svg" version="1.1" viewBox="0 0 1280 1024">
  <!-- Generator: Adobe Illustrator 29.4.0, SVG Export Plug-In . SVG Version: 2.1.0 Build 152)  -->
  <defs>
    <style>
      .st0 {
        fill: #fff5a6;
      }

      .st1 {
        fill: none;
        stroke: #3c3c3b;
      }

      .st2 {
        fill: #3c3c3b;
      }
    </style>
  </defs>
  <rect class="st2" x="432.22" y="80.9" width="11.19" height="85.83"/>
  <rect class="st1" x="432.22" y="80.9" width="11.19" height="85.83"/>
  <rect class="st2" x="432.22" y="80.9" width="36.23" height="119.2"/>
  <rect class="st1" x="442.99" y="80.9" width="25.46" height="102.42"/>
  <rect class="st2" x="432.5" y="471.42" width="10.68" height="56.41"/>
  <rect class="st1" x="432.5" y="471.42" width="10.68" height="56.41"/>
  <rect class="st0" x="442.04" y="209.7" width="429.04" height="397.06"/>
  <rect class="st0" x="657.02" y="296.1" width="214.07" height="657.64"/>
  <rect class="st2" x="870.82" y="115.32" width="13.82" height="864.65"/>
  <rect class="st1" x="870.82" y="115.32" width="13.82" height="864.65"/>
  <rect class="st1" x="464.41" y="86" width="192.72" height="6.27"/>
  <polygon class="st1" points="662.49 86 662.49 92.27 877.13 123.74 877.13 117.47 662.49 86"/>
  <rect class="st1" x="749.75" y="184.16" width="90.81" height="6.27"/>
  <rect class="st2" x="823.11" y="184.16" width="58.57" height="6.27"/>
  <rect class="st1" x="823.11" y="184.16" width="58.57" height="6.27"/>
  <rect class="st2" x="828.55" y="189.29" width="53.14" height="20.46"/>
  <rect class="st1" x="828.55" y="189.29" width="53.14" height="20.46"/>
  <rect class="st2" x="647.09" y="184.16" width="66.35" height="6.27"/>
  <rect class="st1" x="647.09" y="184.16" width="66.35" height="6.27"/>
  <rect class="st2" x="647.09" y="189.29" width="60.92" height="20.46"/>
  <rect class="st1" x="647.09" y="189.29" width="60.92" height="20.46"/>
  <rect class="st1" x="755.18" y="190.44" width="85.38" height="19.31"/>
  <path class="st1" d="M754.74,190.97s-2.13,9.03-4.43,15.22c-2.3,6.18-5.07,9.58-5.07,9.58l-40.4-23.28,1.21-1.94,40.62,22.86"/>
  <rect class="st1" x="529.67" y="184.16" width="90.81" height="6.27"/>
  <rect class="st2" x="603.03" y="184.16" width="58.57" height="6.27"/>
  <rect class="st1" x="603.03" y="184.16" width="58.57" height="6.27"/>
  <rect class="st2" x="608.47" y="189.29" width="53.14" height="20.46"/>
  <rect class="st1" x="608.47" y="189.29" width="53.14" height="20.46"/>
  <rect class="st2" x="427.01" y="184.16" width="66.35" height="6.27"/>
  <rect class="st1" x="427.01" y="184.16" width="66.35" height="6.27"/>
  <rect class="st2" x="427.01" y="189.29" width="60.92" height="20.46"/>
  <rect class="st1" x="427.01" y="189.29" width="60.92" height="20.46"/>
  <rect class="st1" x="535.1" y="190.44" width="85.38" height="19.31"/>
  <path class="st1" d="M534.66,190.97s-2.13,9.03-4.43,15.22c-2.3,6.18-5.07,9.58-5.07,9.58l-40.4-23.28,1.21-1.94,40.62,22.86"/>
  <rect class="st2" x="818.59" y="973.71" width="66.35" height="6.27"/>
  <rect class="st1" x="818.59" y="973.71" width="66.35" height="6.27"/>
  <rect class="st1" x="678.19" y="973.71" width="157.84" height="6.27"/>
  <rect class="st2" x="824.02" y="954.39" width="60.92" height="20.46"/>
  <rect class="st1" x="824.02" y="954.39" width="60.92" height="20.46"/>
  <rect class="st2" x="652.32" y="973.71" width="56.6" height="6.27"/>
  <rect class="st1" x="652.32" y="973.71" width="56.6" height="6.27"/>
  <rect class="st2" x="652.32" y="954.39" width="51.96" height="20.46"/>
  <rect class="st1" x="652.32" y="954.39" width="51.96" height="20.46"/>
  <rect class="st1" x="687.58" y="954.39" width="148.45" height="19.31"/>
  <path class="st1" d="M430.8,527.97s7.88,0,17.69,3.47c8.21,2.9,15.88,8.7,15.88,8.7l-27.56,48.37-1.94-1.21,27.57-48.49"/>
  <path class="st1" d="M718.03,435.4s0-7.88-3.47-17.69c-2.9-8.21-8.7-15.88-8.7-15.88l-48.37,27.56,1.21,1.94,48.49-27.57"/>
  <path class="st1" d="M599.95,471.43s0-7.88,3.47-17.69c2.9-8.21,8.7-15.88,8.7-15.88l48.37,27.56-1.21,1.94-48.49-27.57"/>
  <path class="st1" d="M718.34,605.32s0,7.88-3.47,17.69c-2.9,8.21-8.7,15.88-8.7,15.88l-48.37-27.56,1.21-1.94,48.49,27.57"/>
  <rect class="st2" x="652.79" y="195.94" width="9.96" height="297.7"/>
  <rect class="st1" x="652.79" y="195.94" width="9.96" height="297.7"/>
  <rect class="st2" x="652.79" y="564.2" width="9.96" height="410.64"/>
  <rect class="st1" x="652.79" y="564.2" width="9.96" height="410.64"/>
  <rect class="st2" x="652.79" y="80.9" width="9.96" height="59.64"/>
  <rect class="st1" x="652.79" y="80.9" width="9.96" height="59.64"/>
  <rect class="st2" x="429.4" y="463.75" width="171.47" height="9.96"/>
  <rect class="st1" x="429.4" y="463.75" width="171.47" height="9.96"/>
  <rect class="st2" x="425.03" y="80.9" width="16.38" height="446.79"/>
  <rect class="st2" x="426.22" y="586.83" width="15.18" height="27.68"/>
  <rect class="st2" x="718.65" y="424.8" width="165.99" height="9.96"/>
  <rect class="st1" x="718.65" y="424.8" width="165.99" height="9.96"/>
  <rect class="st2" x="718.65" y="604.55" width="165.99" height="9.96"/>
  <rect class="st1" x="718.65" y="604.55" width="165.99" height="9.96"/>
  <rect class="st2" x="431.44" y="604.55" width="224.64" height="9.96"/>
  <rect class="st1" x="431.44" y="604.55" width="224.64" height="9.96"/>
  <g>
    <path class="st2" d="M662.81,552.13c.68.69,1.62,1.04,2.85,1.04s2.16-.35,2.79-1.04c.64-.69.95-1.69.95-2.97v-1.26c0-1.73-.58-2.85-1.75-3.36,1.17-.48,1.75-1.58,1.75-3.29v-.41c0-1.29-.32-2.28-.95-2.97-.64-.69-1.57-1.04-2.79-1.04s-2.17.35-2.85,1.04c-.68.7-1.01,1.69-1.01,2.97v.87h2.51v-1.03c0-1.05.43-1.57,1.29-1.57.43,0,.75.13.97.4.22.27.33.74.33,1.43v.89c0,.61-.13,1.04-.38,1.3-.25.26-.63.38-1.13.38h-.98v2.29h.85c.58,0,1,.16,1.25.47s.39.83.39,1.56v1.26c0,.67-.11,1.14-.33,1.41-.22.27-.54.4-.97.4-.86,0-1.29-.53-1.29-1.58v-1.49h-2.51v1.33c0,1.29.34,2.28,1.01,2.97M660.2,550.69h-2.51v2.31h2.51v-2.31ZM649.53,552.13c.68.69,1.62,1.04,2.85,1.04s2.15-.35,2.79-1.04c.64-.69.95-1.69.95-2.97v-1.26c0-1.73-.58-2.85-1.75-3.36,1.17-.48,1.75-1.58,1.75-3.29v-.41c0-1.29-.32-2.28-.95-2.97-.64-.69-1.57-1.04-2.79-1.04s-2.17.35-2.85,1.04c-.68.7-1.01,1.69-1.01,2.97v.87h2.51v-1.03c0-1.05.43-1.57,1.29-1.57.43,0,.75.13.97.4.22.27.33.74.33,1.43v.89c0,.61-.13,1.04-.38,1.3-.25.26-.63.38-1.13.38h-.98v2.29h.85c.58,0,1,.16,1.26.47s.38.83.38,1.56v1.26c0,.67-.11,1.14-.33,1.41-.22.27-.54.4-.97.4-.86,0-1.29-.53-1.29-1.58v-1.49h-2.51v1.33c0,1.29.34,2.28,1.01,2.97"/>
    <path class="st2" d="M686.54,511.87h1.19c.42,0,.72.12.93.34.2.23.3.61.3,1.17v2.4c0,.55-.1.94-.3,1.17-.2.23-.51.35-.93.35h-1.19v-5.42ZM686.54,525.58v-6.01h1.19c1.24,0,2.17-.34,2.8-1.01.63-.67.94-1.65.94-2.94v-2.07c0-1.29-.31-2.27-.94-2.94-.63-.68-1.56-1.01-2.8-1.01h-3.7v15.99h2.51ZM677.28,513.27c0-1.05.44-1.57,1.31-1.57s1.3.52,1.3,1.57v8.63c0,1.06-.43,1.58-1.3,1.58s-1.31-.53-1.31-1.58v-8.63ZM675.76,524.71c.66.7,1.6,1.05,2.83,1.05s2.17-.35,2.82-1.05c.66-.7.98-1.69.98-2.97v-8.32c0-1.28-.33-2.27-.98-2.97-.65-.7-1.6-1.05-2.82-1.05s-2.17.35-2.83,1.05c-.66.7-.99,1.69-.99,2.97v8.32c0,1.28.33,2.27.99,2.97M667.18,522.54c.11-.31.19-.75.22-1.34l.46-9.32h2.12v11.43h-3.29c.22-.21.39-.46.5-.77M665.75,527.7v-2.12h5.32v2.12h2.51v-4.39h-1.09v-13.72h-7.14l-.46,11.65c-.02.49-.08.89-.17,1.21-.09.32-.25.6-.46.86h-1.02v4.39h2.51ZM656.67,525.58l2.12-7.33,1.02-3.92v11.24h2.51v-15.99h-3.01l-2.05,6.6-.91,3.53v-10.13h-2.24v15.99h2.58ZM647.99,511.87h1.19c.42,0,.73.12.93.34.2.23.3.61.3,1.17v2.4c0,.55-.1.94-.3,1.17-.2.23-.51.35-.93.35h-1.19v-5.42ZM647.99,525.58v-6.01h1.19c1.24,0,2.17-.34,2.8-1.01.63-.67.94-1.65.94-2.94v-2.07c0-1.29-.31-2.27-.94-2.94-.63-.68-1.56-1.01-2.8-1.01h-3.7v15.99h2.51ZM638.73,513.27c0-1.05.44-1.57,1.31-1.57s1.3.52,1.3,1.57v8.63c0,1.06-.43,1.58-1.3,1.58s-1.31-.53-1.31-1.58v-8.63ZM637.21,524.71c.66.7,1.6,1.05,2.83,1.05s2.17-.35,2.83-1.05c.65-.7.98-1.69.98-2.97v-8.32c0-1.28-.33-2.27-.98-2.97-.65-.7-1.6-1.05-2.83-1.05s-2.17.35-2.83,1.05c-.66.7-.99,1.69-.99,2.97v8.32c0,1.28.33,2.27.99,2.97M629.5,525.58v-4.91l.78-1.46,2.44,6.37h2.58l-3.49-8.87,3.49-7.13h-2.51l-3.29,6.97v-6.97h-2.51v15.99h2.51Z"/>
    <path class="st1" d="M743.32,474.45s-2.92.28-11.1-2.62c-6.84-2.42-13.23-7.25-13.23-7.25l19.53-33.62,1.61,1.01-19.54,33.71"/>
    <path class="st1" d="M743.32,529.79s-2.92-.28-11.1,2.62c-6.84,2.42-13.23,7.25-13.23,7.25l19.53,33.62,1.61-1.01-19.54-33.71"/>
  </g>
  <rect class="st2" x="736.16" y="566.33" width="6.57" height="38.24"/>
  <rect class="st1" x="736.16" y="566.33" width="6.57" height="38.24"/>
  <rect class="st2" x="740.09" y="488.63" width="138.51" height="6.57"/>
  <rect class="st1" x="740.09" y="488.63" width="138.51" height="6.57"/>
  <rect class="st2" x="736.16" y="474.74" width="6.57" height="56.39"/>
  <rect class="st1" x="736.16" y="474.74" width="6.57" height="56.39"/>
  <rect class="st1" x="852.08" y="435.14" width="18.26" height="52.11"/>
  <line class="st1" x1="854.94" y1="487.14" x2="854.94" y2="434.84"/>
  <polyline class="st1" points="854.93 484.54 868.12 483.39 868.12 450.42 854.93 448.97 854.93 446.8 868.26 445.36 868.26 437.98 854.93 436.39"/>
  <rect class="st1" x="468.85" y="444.32" width="54.19" height="18.26"/>
  <line class="st1" x1="468.99" y1="447.18" x2="523.31" y2="447.18"/>
  <polyline class="st1" points="471.66 447.17 472.86 460.36 507.14 460.36 508.64 447.17 510.9 447.17 512.4 460.5 520.07 460.5 521.73 447.17"/>
  <g>
    <path class="st2" d="M801.55,460.93c0,6.64,5.4,12.05,12.05,12.05h17.45c1.15,0,2.08-.93,2.08-2.08v-19.94c0-1.15-.93-2.08-2.08-2.08h-17.45c-6.65,0-12.05,5.41-12.05,12.05M833.96,450.96v19.94c0,1.6-1.3,2.9-2.91,2.9h-17.45c-7.1,0-12.88-5.78-12.88-12.88s5.78-12.88,12.88-12.88h17.45c1.6,0,2.91,1.3,2.91,2.91"/>
    <path class="st1" d="M801.55,460.93c0,6.64,5.4,12.05,12.05,12.05h17.45c1.15,0,2.08-.93,2.08-2.08v-19.94c0-1.15-.93-2.08-2.08-2.08h-17.45c-6.65,0-12.05,5.41-12.05,12.05ZM833.96,450.96v19.94c0,1.6-1.3,2.9-2.91,2.9h-17.45c-7.1,0-12.88-5.78-12.88-12.88s5.78-12.88,12.88-12.88h17.45c1.6,0,2.91,1.3,2.91,2.91Z"/>
    <path class="st1" d="M827.31,469.57v-17.28c0-.11-.1-.21-.21-.21h-13.16c-4.86,0-8.85,3.99-8.85,8.85s3.99,8.85,8.85,8.85h13.16c.11,0,.21-.1.21-.2Z"/>
    <path class="st2" d="M826.89,469.37v-16.87h-12.95c-4.65,0-8.44,3.78-8.44,8.43s3.79,8.43,8.44,8.43h12.95ZM827.72,452.3v17.28c0,.34-.28.62-.62.62h-13.15c-5.11,0-9.26-4.15-9.26-9.26s4.15-9.26,9.26-9.26h13.15c.34,0,.62.29.62.63"/>
    <path class="st1" d="M826.89,469.37v-16.87h-12.95c-4.65,0-8.44,3.78-8.44,8.43s3.79,8.43,8.44,8.43h12.95ZM827.72,452.3v17.28c0,.34-.28.62-.62.62h-13.15c-5.11,0-9.26-4.15-9.26-9.26s4.15-9.26,9.26-9.26h13.15c.34,0,.62.29.62.63Z"/>
    <path class="st2" d="M813.93,460.93c0,1.25,1.02,2.28,2.28,2.28s2.28-1.02,2.28-2.28-1.02-2.28-2.28-2.28-2.28,1.02-2.28,2.28M819.31,460.93c0,1.71-1.39,3.1-3.1,3.1s-3.1-1.39-3.1-3.1,1.39-3.11,3.1-3.11,3.1,1.39,3.1,3.11"/>
    <path class="st1" d="M813.93,460.93c0,1.25,1.02,2.28,2.28,2.28s2.28-1.02,2.28-2.28-1.02-2.28-2.28-2.28-2.28,1.02-2.28,2.28ZM819.31,460.93c0,1.71-1.39,3.1-3.1,3.1s-3.1-1.39-3.1-3.1,1.39-3.11,3.1-3.11,3.1,1.39,3.1,3.11Z"/>
  </g>
  <rect class="st2" x="822.21" y="462.47" width=".83" height="6.91" transform="translate(-43.06 845.92) rotate(-53.23)"/>
  <rect class="st1" x="822.21" y="462.47" width=".83" height="6.91" transform="translate(-43.06 845.92) rotate(-53.23)"/>
  <polygon class="st2" points="825.64 454.34 820.11 458.48 819.61 457.81 825.14 453.67 825.64 454.34"/>
  <polygon class="st1" points="825.64 454.34 820.11 458.48 819.61 457.81 825.14 453.67 825.64 454.34"/>
  <g>
    <path class="st2" d="M834,469.25c0,1.84,1.5,3.34,3.34,3.34h4.54c1.84,0,3.34-1.5,3.34-3.34v-16.63c0-1.84-1.5-3.34-3.34-3.34h-4.54c-1.84,0-3.34,1.5-3.34,3.34v16.63ZM846.05,452.62v16.63c0,2.3-1.87,4.17-4.17,4.17h-4.54c-2.3,0-4.17-1.87-4.17-4.17v-16.63c0-2.3,1.87-4.17,4.17-4.17h4.54c2.3,0,4.17,1.87,4.17,4.17"/>
    <path class="st1" d="M834,469.25c0,1.84,1.5,3.34,3.34,3.34h4.54c1.84,0,3.34-1.5,3.34-3.34v-16.63c0-1.84-1.5-3.34-3.34-3.34h-4.54c-1.84,0-3.34,1.5-3.34,3.34v16.63ZM846.05,452.62v16.63c0,2.3-1.87,4.17-4.17,4.17h-4.54c-2.3,0-4.17-1.87-4.17-4.17v-16.63c0-2.3,1.87-4.17,4.17-4.17h4.54c2.3,0,4.17,1.87,4.17,4.17Z"/>
    <path class="st2" d="M838.32,460.93c0,.71.58,1.29,1.29,1.29s1.29-.58,1.29-1.29-.58-1.29-1.29-1.29-1.29.58-1.29,1.29M841.73,460.93c0,1.17-.95,2.12-2.12,2.12s-2.12-.95-2.12-2.12.95-2.12,2.12-2.12,2.12.95,2.12,2.12"/>
    <path class="st1" d="M838.32,460.93c0,.71.58,1.29,1.29,1.29s1.29-.58,1.29-1.29-.58-1.29-1.29-1.29-1.29.58-1.29,1.29ZM841.73,460.93c0,1.17-.95,2.12-2.12,2.12s-2.12-.95-2.12-2.12.95-2.12,2.12-2.12,2.12.95,2.12,2.12Z"/>
    <path class="st2" d="M779.86,474.63c0-.96.4-1.44,1.2-1.44s1.19.48,1.19,1.44v2.65c0,.96-.4,1.43-1.19,1.43s-1.2-.48-1.2-1.43v-2.65ZM778.46,479.85c.6.64,1.47.97,2.6.97s1.99-.32,2.59-.97c.6-.64.9-1.55.9-2.73v-2.68c0-1.1-.21-1.93-.64-2.5-.43-.57-1.07-.86-1.91-.86-1.02,0-1.73.44-2.14,1.3v-2.68c0-.67.11-1.14.31-1.41s.53-.4.97-.4c.8,0,1.2.48,1.2,1.44v.52h2.18v-.38c0-1.18-.29-2.09-.88-2.73s-1.44-.96-2.56-.96c-2.35,0-3.53,1.28-3.53,3.83v7.51c0,1.18.3,2.09.91,2.73M776.1,478.53h-2.31v2.12h2.31v-2.12ZM768.69,469.44v11.22h2.31v-14.7h-1.56c-.09.24-.17.43-.24.58-.07.15-.17.31-.3.49-.14.18-.28.32-.45.42-.16.1-.38.18-.65.26-.27.07-.57.11-.91.11v1.63h1.79Z"/>
    <path class="st2" d="M782.04,452.07l-.02.13c-.09.5-.29.84-.62,1-.32.16-.79.22-1.42.18v2.09c.62.04,1.16.02,1.63-.07.46-.09.85-.22,1.18-.41.32-.18.59-.45.82-.78.23-.33.41-.7.55-1.09.14-.4.27-.87.38-1.44l2.47-10.94h-2.31l-1.06,5.05-.54,3.4-.72-3.44-1.24-5.01h-2.31l3.21,11.31ZM772.78,455.46l5.79-14.7h-2l-5.79,14.7h2ZM764.1,454.66c.58.64,1.44.96,2.58.96s2.01-.32,2.63-.96c.62-.64.93-1.55.93-2.73v-1.96h-2.31v2.1c0,.96-.4,1.43-1.19,1.43s-1.21-.48-1.21-1.43v-7.94c0-.96.4-1.44,1.21-1.44s1.19.48,1.19,1.44v1.58h2.31v-1.43c0-1.18-.31-2.09-.93-2.73-.62-.64-1.5-.96-2.63-.96s-1.99.32-2.58.96c-.58.64-.88,1.55-.88,2.73v7.65c0,1.18.29,2.09.88,2.73"/>
    <path class="st2" d="M795.33,577.47l-3.55,13.21h2.42l3.57-13.3v-2.12h-7.26v2.21h4.81ZM789,588.45h-2.42v2.22h2.42v-2.22ZM778.71,589.85c.65.67,1.57,1.01,2.75,1.01s2.08-.34,2.69-1.01c.61-.67.92-1.63.92-2.86v-1.22c0-1.67-.56-2.75-1.69-3.23,1.12-.47,1.69-1.53,1.69-3.17v-.4c0-1.24-.31-2.2-.92-2.87-.61-.67-1.51-1-2.69-1s-2.1.33-2.75,1c-.65.67-.98,1.63-.98,2.87v.84h2.42v-.99c0-1.01.42-1.52,1.24-1.52.42,0,.73.13.94.39.21.26.31.72.31,1.38v.86c0,.59-.12,1.01-.36,1.25-.25.25-.61.37-1.09.37h-.95v2.2h.82c.56,0,.96.15,1.21.45.25.3.37.81.37,1.51v1.21c0,.64-.1,1.1-.31,1.36-.21.26-.52.38-.94.38-.83,0-1.24-.51-1.24-1.53v-1.43h-2.42v1.28c0,1.24.33,2.19.98,2.86"/>
    <path class="st2" d="M809.29,552.63c0-.55.1-.95.3-1.21s.51-.38.94-.38h1.16v4.74h-.94c-.48,0-.84-.12-1.09-.37-.25-.25-.37-.67-.37-1.26v-1.51ZM809.05,564.26c.06-.18.1-.31.12-.4.02-.09.04-.26.07-.52.02-.25.04-.58.04-.97v-2.42c0-.71.12-1.21.38-1.52.25-.3.65-.45,1.2-.45h.84v6.28h2.42v-15.42h-3.66c-1.24,0-2.15.29-2.72.87-.57.58-.86,1.47-.86,2.68v1.21c0,1.59.53,2.64,1.58,3.13-.58.24-.99.64-1.24,1.18-.24.54-.36,1.25-.36,2.1v2.38c0,.83-.08,1.46-.23,1.87h2.42ZM801.75,551.6l1.17,7.76h-2.33l1.17-7.76ZM799.85,564.26l.42-2.79h2.97l.42,2.79h2.42l-2.46-15.42h-3.74l-2.45,15.42h2.42ZM791.09,564.26v-6.6h2.75v6.6h2.42v-15.42h-2.42v6.61h-2.75v-6.61h-2.42v15.42h2.42ZM781.69,564.26v-6.6h2.75v6.6h2.42v-15.42h-2.42v6.61h-2.75v-6.61h-2.42v15.42h2.42ZM774,551.6l1.17,7.76h-2.33l1.16-7.76ZM772.1,564.26l.42-2.79h2.96l.42,2.79h2.42l-2.46-15.42h-3.74l-2.46,15.42h2.42ZM763.8,551.04h1.18c.43,0,.75.12.94.38.19.26.29.66.29,1.21v.86c0,.59-.12,1.01-.37,1.25-.25.25-.61.37-1.09.37h-.95v-4.07ZM763.8,557.32h1.09c.56,0,.96.13,1.2.41.24.27.36.76.36,1.46v1.34c0,.55-.1.94-.31,1.17-.21.23-.53.35-.95.35h-1.39v-4.73ZM765.19,564.26c1.2,0,2.12-.31,2.74-.93.62-.63.93-1.53.93-2.72v-1.26c0-1.73-.6-2.83-1.81-3.3,1.04-.49,1.57-1.53,1.57-3.11v-.55c0-1.2-.29-2.1-.86-2.68-.58-.58-1.49-.87-2.73-.87h-3.65v15.42h3.8Z"/>
    <path class="st2" d="M804.55,520.77c-6.07,0-11.01-4.94-11.01-11.01v-11.68c0-.92.75-1.67,1.67-1.67h24.88c.92,0,1.67.75,1.67,1.67v11.68c0,6.07-4.94,11.01-11.01,11.01h-6.21ZM820.1,495.79h-24.88c-1.26,0-2.3,1.03-2.3,2.29v11.68c0,6.41,5.22,11.63,11.63,11.63h6.21c6.41,0,11.63-5.22,11.63-11.63v-11.68c0-1.26-1.03-2.29-2.29-2.29"/>
    <path class="st1" d="M804.55,520.77c-6.07,0-11.01-4.94-11.01-11.01v-11.68c0-.92.75-1.67,1.67-1.67h24.88c.92,0,1.67.75,1.67,1.67v11.68c0,6.07-4.94,11.01-11.01,11.01h-6.21ZM820.1,495.79h-24.88c-1.26,0-2.3,1.03-2.3,2.29v11.68c0,6.41,5.22,11.63,11.63,11.63h6.21c6.41,0,11.63-5.22,11.63-11.63v-11.68c0-1.26-1.03-2.29-2.29-2.29Z"/>
    <path class="st2" d="M804.55,518.02c-4.55,0-8.25-3.7-8.25-8.26v-6.82c0-.79.64-1.44,1.44-1.44h19.84c.79,0,1.44.65,1.44,1.44v6.82c0,4.55-3.7,8.26-8.25,8.26h-6.21ZM817.57,500.88h-19.84c-1.13,0-2.06.93-2.06,2.06v6.82c0,4.9,3.98,8.88,8.87,8.88h6.21c4.89,0,8.87-3.98,8.87-8.88v-6.82c0-1.14-.92-2.06-2.06-2.06"/>
    <path class="st1" d="M804.55,518.02c-4.55,0-8.25-3.7-8.25-8.26v-6.82c0-.79.64-1.44,1.44-1.44h19.84c.79,0,1.44.65,1.44,1.44v6.82c0,4.55-3.7,8.26-8.25,8.26h-6.21ZM817.57,500.88h-19.84c-1.13,0-2.06.93-2.06,2.06v6.82c0,4.9,3.98,8.88,8.87,8.88h6.21c4.89,0,8.87-3.98,8.87-8.88v-6.82c0-1.14-.92-2.06-2.06-2.06Z"/>
    <path class="st2" d="M807.66,512.24c-.76,0-1.38-.62-1.38-1.38s.62-1.38,1.38-1.38,1.38.62,1.38,1.38-.62,1.38-1.38,1.38M807.66,508.86c-1.11,0-2.01.9-2.01,2s.9,2.01,2.01,2.01,2.01-.9,2.01-2.01-.9-2-2.01-2"/>
    <path class="st1" d="M807.66,512.24c-.76,0-1.38-.62-1.38-1.38s.62-1.38,1.38-1.38,1.38.62,1.38,1.38-.62,1.38-1.38,1.38ZM807.66,508.86c-1.11,0-2.01.9-2.01,2s.9,2.01,2.01,2.01,2.01-.9,2.01-2.01-.9-2-2.01-2Z"/>
  </g>
  <rect class="st1" x="751.68" y="496.11" width="38.26" height="39.18"/>
  <line class="st1" x1="752.22" y1="535.39" x2="789.81" y2="496.27"/>
  <line class="st1" x1="790.25" y1="535.39" x2="752.65" y2="496.27"/>
  <g>
    <path class="st1" d="M847.57,516.36c.93,0,1.69.77,1.69,1.71s-.76,1.71-1.69,1.71-1.68-.77-1.68-1.71.75-1.71,1.68-1.71Z"/>
    <path class="st1" d="M839.85,500.04h15.44c6.15,0,11.15,4.99,11.15,11.15v77.1c0,6.15-4.99,11.14-11.14,11.14h-15.45c-6.15,0-11.14-4.99-11.14-11.14v-77.1c0-6.15,4.99-11.14,11.14-11.14Z"/>
    <path class="st1" d="M843.38,506.94h8.39c6.15,0,11.15,4.99,11.15,11.15v63.29c0,6.15-4.99,11.15-11.15,11.15h-8.39c-6.15,0-11.14-4.99-11.14-11.14v-63.29c0-6.15,4.99-11.14,11.14-11.14Z"/>
    <path class="st1" d="M841.2,510.75h12.76c3.08,0,5.57,2.5,5.57,5.57v62.29c0,3.08-2.5,5.57-5.57,5.57h-12.76c-3.07,0-5.57-2.5-5.57-5.57v-62.3c0-3.08,2.5-5.57,5.57-5.57Z"/>
  </g>
  <polygon class="st1" points="869.59 496.14 869.59 496.14 869.59 603.32 825.56 603.32 825.56 496.14 869.59 496.14"/>
  <path class="st2" d="M587.39,150.54c1.38,0,2.37-.29,2.96-.87.59-.58.89-1.56.89-2.95v-9.84c0-1.39-.3-2.38-.89-2.96-.6-.58-1.58-.87-2.96-.87h-.84v2.38h.67c.46,0,.78.11.98.33.2.22.3.62.3,1.21v9.65c0,.59-.1.99-.3,1.21-.2.22-.52.33-.98.33h-.67v2.38h.84ZM581.9,138.3v6.57h-2.77l2.77-6.57ZM581.9,147.37v3.17h2.74v-3.17h1.26v-2.5h-1.26v-11.82h-3l-4.99,11.82v2.5h5.24ZM575.36,148.02h-2.74v2.52h2.74v-2.52ZM567.38,138.3v6.57h-2.77l2.77-6.57ZM567.38,147.37v3.17h2.74v-3.17h1.26v-2.5h-1.26v-11.82h-3l-4.99,11.82v2.5h5.24ZM557.52,149.68c.59.58,1.58.87,2.96.87h.84v-2.38h-.68c-.46,0-.78-.11-.98-.33-.2-.22-.29-.62-.29-1.21v-9.65c0-.59.1-.99.29-1.21.2-.22.52-.33.98-.33h.68v-2.38h-.84c-1.38,0-2.37.29-2.96.87-.6.58-.89,1.57-.89,2.96v9.84c0,1.39.3,2.37.89,2.95M545.1,137.36c0-.73.14-1.25.41-1.55.28-.3.66-.45,1.15-.45s.87.15,1.14.44c.27.3.4.81.4,1.56v.97c0,1.23-.51,1.84-1.54,1.84s-1.56-.61-1.56-1.84v-.97ZM545.1,144.65c0-1.32.52-1.98,1.56-1.98s1.54.66,1.54,1.98v1.62c0,.73-.15,1.24-.42,1.54-.27.29-.65.44-1.13.44s-.87-.15-1.15-.44c-.27-.3-.41-.81-.41-1.53v-1.62ZM543.46,149.59c.74.77,1.81,1.15,3.19,1.15s2.45-.38,3.18-1.15c.73-.76,1.1-1.85,1.1-3.24v-1.38c0-1.79-.57-3-1.7-3.65,1.13-.63,1.7-1.8,1.7-3.51v-.56c0-1.4-.37-2.48-1.1-3.24-.74-.77-1.8-1.15-3.18-1.15s-2.45.38-3.19,1.15c-.74.76-1.11,1.85-1.11,3.24v.56c0,1.73.56,2.9,1.7,3.51-1.13.64-1.7,1.86-1.7,3.65v1.38c0,1.4.37,2.48,1.11,3.24M540.82,148.02h-2.74v2.52h2.74v-2.52ZM530.57,137.36c0-.73.14-1.25.41-1.55.27-.3.65-.45,1.14-.45s.87.15,1.14.44c.27.3.4.81.4,1.56v.97c0,1.23-.52,1.84-1.54,1.84s-1.55-.61-1.55-1.84v-.97ZM530.57,144.65c0-1.32.52-1.98,1.55-1.98s1.54.66,1.54,1.98v1.62c0,.73-.15,1.24-.42,1.54-.27.29-.64.44-1.13.44s-.87-.15-1.14-.44c-.27-.3-.41-.81-.41-1.53v-1.62ZM528.94,149.59c.74.77,1.8,1.15,3.19,1.15s2.45-.38,3.18-1.15c.74-.76,1.1-1.85,1.1-3.24v-1.38c0-1.79-.56-3-1.7-3.65,1.13-.63,1.7-1.8,1.7-3.51v-.56c0-1.4-.37-2.48-1.1-3.24-.74-.77-1.8-1.15-3.18-1.15s-2.45.38-3.19,1.15c-.74.76-1.11,1.85-1.11,3.24v.56c0,1.73.57,2.9,1.7,3.51-1.13.64-1.7,1.86-1.7,3.65v1.38c0,1.4.37,2.48,1.11,3.24"/>
  <path class="st2" d="M777.51,853.75c0-1.15.48-1.72,1.43-1.72s1.42.57,1.42,1.72v9.44c0,1.16-.47,1.73-1.42,1.73s-1.43-.58-1.43-1.73v-9.44ZM775.85,866.27c.72.76,1.75,1.15,3.1,1.15s2.37-.38,3.09-1.15c.72-.76,1.08-1.85,1.08-3.24v-9.1c0-1.4-.36-2.48-1.08-3.24-.72-.76-1.75-1.15-3.09-1.15s-2.38.38-3.1,1.15c-.72.76-1.08,1.85-1.08,3.24v9.1c0,1.4.36,2.48,1.08,3.24M773.11,864.69h-2.74v2.52h2.74v-2.52ZM762.94,853.75c0-1.13.47-1.69,1.42-1.69s1.43.56,1.43,1.69v3.15c0,1.15-.48,1.72-1.43,1.72s-1.42-.57-1.42-1.72v-3.15ZM760.96,860.09c.51.68,1.27,1.02,2.27,1.02,1.21,0,2.07-.52,2.56-1.55v3.2c0,.8-.13,1.36-.38,1.68-.25.32-.64.48-1.15.48-.96,0-1.43-.58-1.43-1.73v-.62h-2.58v.45c0,1.41.35,2.49,1.05,3.25.7.76,1.71,1.14,3.04,1.14,2.8,0,4.2-1.51,4.2-4.54v-8.95c0-1.4-.36-2.48-1.08-3.24-.72-.76-1.75-1.15-3.1-1.15s-2.37.38-3.09,1.15c-.72.76-1.07,1.85-1.07,3.24v3.21c0,1.29.25,2.28.76,2.96M754.4,853.88v13.34h2.74v-17.49h-1.85c-.11.28-.2.52-.28.69-.08.18-.2.37-.36.59-.16.21-.33.38-.53.5s-.45.22-.77.31c-.32.08-.68.13-1.09.13v1.94h2.14Z"/>
  <path class="st2" d="M829.06,822.9l1.33,8.8h-2.65l1.32-8.8ZM826.91,837.25l.47-3.17h3.37l.48,3.17h2.74l-2.78-17.49h-4.24l-2.78,17.49h2.74ZM818.06,822.26v14.99h2.74v-14.99h2.88v-2.5h-8.5v2.5h2.88ZM810.01,822.9l1.33,8.8h-2.65l1.32-8.8ZM807.86,837.25l.48-3.17h3.36l.48,3.17h2.74l-2.78-17.49h-4.24l-2.78,17.49h2.74ZM797.92,837.25v-7.49h3.12v7.49h2.74v-17.49h-2.74v7.5h-3.12v-7.5h-2.74v17.49h2.74ZM784.04,837.25v-12.34l2.05,12.34h2.6l1.9-12.54v12.54h2.74v-17.49h-3.95l-1.89,12.45-2.03-12.45h-3.81v17.49h2.39ZM774.3,823.78c0-1.15.48-1.72,1.43-1.72s1.42.57,1.42,1.72v9.44c0,1.16-.47,1.73-1.42,1.73s-1.43-.58-1.43-1.73v-9.44ZM772.63,836.3c.72.77,1.75,1.15,3.1,1.15s2.37-.38,3.09-1.15c.72-.76,1.07-1.85,1.07-3.24v-9.1c0-1.4-.36-2.48-1.07-3.24-.72-.76-1.75-1.15-3.09-1.15s-2.38.38-3.1,1.15c-.72.76-1.08,1.85-1.08,3.24v9.1c0,1.4.36,2.48,1.08,3.24M764.2,837.25v-5.37l.85-1.6,2.67,6.96h2.82l-3.82-9.7,3.82-7.79h-2.74l-3.6,7.62v-7.62h-2.74v17.49h2.74ZM750.13,824.06c0-.62.11-1.08.33-1.37.22-.29.58-.43,1.07-.43h1.32v5.38h-1.07c-.55,0-.96-.14-1.23-.42-.28-.28-.41-.76-.41-1.43v-1.72ZM749.85,837.25c.07-.2.11-.36.13-.46.03-.1.05-.3.08-.59.03-.29.04-.66.04-1.1v-2.74c0-.8.14-1.38.43-1.72.28-.34.74-.51,1.37-.51h.95v7.12h2.74v-17.49h-4.15c-1.41,0-2.43.33-3.09.99-.65.66-.97,1.67-.97,3.04v1.38c0,1.81.6,2.99,1.79,3.55-.66.28-1.13.73-1.4,1.34-.28.62-.42,1.41-.42,2.38v2.7c0,.94-.08,1.65-.25,2.12h2.74ZM741.57,822.9l1.33,8.8h-2.65l1.32-8.8ZM739.42,837.25l.48-3.17h3.36l.48,3.17h2.74l-2.78-17.49h-4.24l-2.78,17.49h2.74ZM725.83,837.27c1.37,0,2.37-.34,2.99-1.02.62-.68.96-1.82,1.01-3.41l.31-10.57h2.38v14.99h2.74v-17.49h-7.87l-.3,13.22c-.02.4-.05.73-.11.96-.06.24-.16.42-.3.54-.14.12-.31.2-.49.24-.19.03-.44.05-.78.05v2.5h.43ZM718.32,837.25l2.31-8.01,1.11-4.28v12.29h2.74v-17.49h-3.29l-2.24,7.22-1,3.85v-11.07h-2.45v17.49h2.82ZM702.37,837.25l2.51-7.79.68,1.36v6.44h2.74v-6.4l.69-1.33,2.5,7.73h2.74l-3.37-10.35,3.37-7.13h-2.67l-3.25,7.07v-7.07h-2.74v7.07l-3.25-7.07h-2.67l3.41,7.17-3.41,10.31h2.74Z"/>
  <path class="st2" d="M780.53,334.89v13.34h2.74v-17.49h-1.85c-.1.28-.2.52-.28.69-.08.18-.2.37-.36.59-.16.21-.33.38-.53.5-.2.12-.45.22-.77.31-.32.08-.68.13-1.09.13v1.94h2.13ZM774.82,345.71h-2.74v2.52h2.74v-2.52ZM770.13,348.23v-2.5h-5.17c-.02-.08-.02-.21-.02-.38,0-.38.1-.78.3-1.18.2-.41.46-.8.78-1.18.32-.38.68-.78,1.06-1.2.39-.42.77-.87,1.16-1.35.39-.48.74-.99,1.06-1.52.32-.53.58-1.14.78-1.82.2-.69.3-1.4.3-2.15,0-1.41-.35-2.49-1.05-3.25-.7-.76-1.71-1.14-3.04-1.14s-2.35.38-3.05,1.14c-.71.76-1.06,1.84-1.06,3.25v1.71h2.62v-1.88c0-1.15.47-1.72,1.42-1.72.47,0,.82.15,1.05.44.24.29.35.81.35,1.56,0,.68-.1,1.32-.3,1.92-.2.6-.46,1.13-.78,1.58-.32.46-.68.9-1.06,1.33-.39.43-.78.86-1.17,1.3-.39.44-.74.88-1.07,1.34-.32.46-.58,1-.78,1.61-.2.61-.3,1.27-.3,1.96v2.15h7.94ZM756.11,334.89v13.34h2.74v-17.49h-1.85c-.11.28-.2.52-.28.69-.08.18-.2.37-.36.59-.16.21-.33.38-.53.5-.2.12-.45.22-.77.31-.32.08-.68.13-1.09.13v1.94h2.14Z"/>
  <path class="st2" d="M826.39,304.92l1.23,8.18h-2.46l1.23-8.18ZM824.39,318.26l.44-2.95h3.13l.44,2.95h2.55l-2.59-16.26h-3.94l-2.59,16.26h2.55ZM816.17,304.33v13.93h2.55v-13.93h2.68v-2.33h-7.9v2.33h2.68ZM808.68,304.92l1.23,8.18h-2.46l1.23-8.18ZM806.68,318.26l.44-2.95h3.13l.44,2.95h2.55l-2.59-16.26h-3.94l-2.59,16.26h2.55ZM797.44,318.26v-6.96h2.9v6.96h2.55v-16.26h-2.55v6.97h-2.9v-6.97h-2.55v16.26h2.55ZM784.54,318.26v-11.47l1.9,11.47h2.42l1.76-11.66v11.66h2.55v-16.26h-3.68l-1.75,11.58-1.89-11.58h-3.54v16.26h2.22ZM775.48,305.75c0-1.07.44-1.6,1.33-1.6s1.32.53,1.32,1.6v8.78c0,1.07-.44,1.61-1.32,1.61s-1.33-.54-1.33-1.61v-8.78ZM773.93,317.38c.67.71,1.63,1.07,2.88,1.07s2.21-.36,2.87-1.07,1-1.72,1-3.02v-8.46c0-1.3-.33-2.3-1-3.02-.67-.71-1.62-1.07-2.87-1.07s-2.21.36-2.88,1.07c-.67.71-1.01,1.72-1.01,3.02v8.46c0,1.3.33,2.3,1.01,3.02M766.09,318.26v-4.99l.8-1.49,2.48,6.48h2.62l-3.55-9.02,3.55-7.25h-2.55l-3.34,7.09v-7.09h-2.55v16.26h2.55ZM753.01,306.01c0-.58.1-1.01.31-1.28.21-.27.54-.4.99-.4h1.23v5h-1c-.51,0-.89-.13-1.15-.39-.26-.26-.38-.7-.38-1.33v-1.6ZM752.75,318.26c.06-.19.1-.33.12-.43.02-.09.05-.28.07-.54.03-.27.04-.61.04-1.03v-2.55c0-.75.13-1.28.4-1.6.27-.32.69-.48,1.27-.48h.89v6.62h2.55v-16.26h-3.86c-1.31,0-2.26.31-2.87.92-.6.61-.91,1.55-.91,2.82v1.28c0,1.68.56,2.78,1.67,3.3-.61.26-1.05.67-1.3,1.25-.26.57-.39,1.31-.39,2.21v2.51c0,.88-.08,1.53-.24,1.97h2.55ZM745.05,304.92l1.24,8.18h-2.46l1.23-8.18ZM743.05,318.26l.44-2.95h3.13l.44,2.95h2.55l-2.59-16.26h-3.94l-2.59,16.26h2.55ZM730.42,318.29c1.28,0,2.21-.32,2.78-.95.58-.64.89-1.69.93-3.18l.28-9.83h2.21v13.93h2.55v-16.26h-7.31l-.28,12.29c-.01.38-.05.68-.1.9-.05.22-.14.39-.28.5-.13.12-.29.19-.46.22s-.41.04-.73.04v2.33h.4ZM723.43,318.26l2.15-7.45,1.03-3.98v11.43h2.55v-16.26h-3.06l-2.09,6.71-.93,3.58v-10.3h-2.28v16.26h2.62ZM708.6,318.26l2.33-7.25.63,1.26v5.98h2.55v-5.96l.64-1.24,2.32,7.19h2.55l-3.13-9.63,3.13-6.63h-2.49l-3.02,6.58v-6.58h-2.55v6.58l-3.02-6.58h-2.49l3.17,6.67-3.17,9.59h2.55Z"/>
  <path class="st2" d="M559.43,335.05c0-.73.14-1.25.41-1.55.27-.3.66-.45,1.15-.45s.87.15,1.14.44c.27.3.4.81.4,1.55v.98c0,1.23-.51,1.84-1.54,1.84s-1.56-.61-1.56-1.84v-.98ZM559.43,342.34c0-1.32.52-1.98,1.56-1.98s1.54.66,1.54,1.98v1.62c0,.73-.15,1.24-.42,1.53-.27.29-.64.44-1.13.44s-.87-.15-1.15-.44c-.27-.3-.41-.81-.41-1.53v-1.62ZM557.8,347.28c.74.77,1.8,1.15,3.19,1.15s2.44-.38,3.18-1.15c.74-.76,1.11-1.85,1.11-3.24v-1.38c0-1.79-.57-3-1.7-3.65,1.13-.63,1.7-1.81,1.7-3.51v-.56c0-1.4-.37-2.48-1.11-3.24-.74-.76-1.8-1.15-3.18-1.15s-2.45.38-3.19,1.15c-.74.76-1.11,1.85-1.11,3.24v.56c0,1.72.57,2.9,1.7,3.51-1.13.64-1.7,1.86-1.7,3.65v1.38c0,1.4.37,2.48,1.11,3.24M555.15,345.71h-2.74v2.52h2.74v-2.52ZM543.48,347.29c.74.76,1.78,1.14,3.11,1.14s2.36-.38,3.05-1.14c.7-.76,1.04-1.84,1.04-3.25v-1.38c0-1.89-.64-3.12-1.91-3.67,1.28-.53,1.91-1.73,1.91-3.6v-.45c0-1.41-.35-2.49-1.04-3.25-.69-.76-1.71-1.14-3.05-1.14s-2.38.38-3.11,1.14c-.74.76-1.11,1.84-1.11,3.25v.95h2.74v-1.12c0-1.15.47-1.72,1.41-1.72.47,0,.82.15,1.06.44.24.29.36.81.36,1.56v.98c0,.67-.14,1.14-.42,1.42-.28.28-.69.42-1.23.42h-1.07v2.5h.93c.63,0,1.09.17,1.37.51.28.34.42.91.42,1.71v1.38c0,.73-.12,1.24-.36,1.53-.24.29-.59.44-1.06.44-.94,0-1.41-.58-1.41-1.73v-1.62h-2.74v1.45c0,1.41.37,2.49,1.11,3.25M536.45,334.89v13.34h2.74v-17.49h-1.85c-.11.28-.2.52-.28.69-.08.18-.2.37-.36.59-.16.21-.33.38-.53.5-.2.12-.45.22-.77.31-.32.08-.68.13-1.09.13v1.94h2.14Z"/>
  <path class="st2" d="M566.92,306.01c0-.58.1-1.01.31-1.28.21-.27.54-.4.99-.4h1.22v5h-1c-.51,0-.89-.13-1.14-.39-.26-.26-.39-.7-.39-1.33v-1.6ZM566.66,318.26c.06-.19.1-.33.12-.43.02-.09.05-.28.07-.54.03-.27.04-.61.04-1.03v-2.55c0-.75.13-1.28.4-1.6.26-.32.69-.48,1.27-.48h.89v6.62h2.55v-16.26h-3.86c-1.31,0-2.26.31-2.87.92-.6.61-.91,1.55-.91,2.82v1.28c0,1.68.56,2.78,1.67,3.3-.61.26-1.05.67-1.3,1.25-.26.57-.39,1.31-.39,2.21v2.51c0,.88-.08,1.53-.24,1.97h2.55ZM557.17,318.26v-6.96h2.9v6.96h2.55v-16.26h-2.55v6.97h-2.9v-6.97h-2.55v16.26h2.55ZM546.61,318.26l1.98-6.05,1.96,6.05h2.55l-2.84-8.28,2.67-7.98h-2.24l-1.97,6.03-1.94-6.03h-2.55l2.67,7.88-2.86,8.38h2.55ZM537.97,314.51l-.02.15c-.1.56-.32.93-.68,1.11-.36.18-.88.25-1.58.2v2.31c.69.04,1.29.02,1.8-.08.51-.09.95-.24,1.3-.45s.66-.49.91-.86c.25-.37.45-.77.61-1.21.16-.44.29-.97.42-1.59l2.73-12.1h-2.55l-1.17,5.58-.6,3.77-.79-3.8-1.38-5.54h-2.55l3.55,12.51ZM528.12,318.26v-4.99l.79-1.49,2.48,6.48h2.62l-3.55-9.02,3.55-7.25h-2.55l-3.34,7.09v-7.09h-2.55v16.26h2.55Z"/>
  <path class="st2" d="M549,562.62c.74.76,1.78,1.14,3.12,1.14s2.36-.38,3.05-1.14c.69-.76,1.04-1.84,1.04-3.25v-1.38c0-1.89-.64-3.12-1.91-3.67,1.28-.53,1.91-1.73,1.91-3.6v-.45c0-1.41-.35-2.49-1.04-3.25-.69-.76-1.71-1.14-3.05-1.14s-2.38.38-3.12,1.14c-.74.76-1.11,1.85-1.11,3.25v.95h2.74v-1.12c0-1.15.47-1.72,1.41-1.72.47,0,.82.15,1.06.44.24.29.36.81.36,1.56v.97c0,.67-.14,1.14-.41,1.42-.28.28-.69.42-1.23.42h-1.07v2.5h.93c.63,0,1.09.17,1.37.51.28.34.42.91.42,1.71v1.38c0,.73-.12,1.24-.36,1.54-.24.29-.59.44-1.06.44-.94,0-1.41-.58-1.41-1.73v-1.62h-2.74v1.45c0,1.41.37,2.49,1.11,3.25M546.15,561.04h-2.74v2.52h2.74v-2.52ZM538.81,548.58l-4.03,14.99h2.74l4.05-15.08v-2.4h-8.23v2.5h5.46Z"/>
  <path class="st2" d="M581.57,520.41c0-.62.11-1.08.33-1.37.22-.29.58-.43,1.07-.43h1.32v5.38h-1.07c-.54,0-.96-.14-1.23-.42-.28-.28-.41-.76-.41-1.43v-1.72ZM581.29,533.59c.07-.2.11-.36.13-.46.03-.1.05-.3.08-.59.03-.29.04-.66.04-1.1v-2.74c0-.8.14-1.38.43-1.72.28-.34.74-.51,1.37-.51h.95v7.12h2.74v-17.49h-4.15c-1.41,0-2.43.33-3.09.99-.65.66-.97,1.67-.97,3.04v1.38c0,1.81.6,2.99,1.79,3.55-.66.28-1.13.73-1.4,1.34-.28.62-.41,1.41-.41,2.38v2.7c0,.94-.09,1.65-.26,2.12h2.74ZM573.01,519.24l1.33,8.8h-2.65l1.32-8.8ZM570.86,533.59l.48-3.17h3.36l.48,3.17h2.74l-2.78-17.49h-4.24l-2.78,17.49h2.74ZM555.7,533.59l2.51-7.79.68,1.36v6.44h2.74v-6.4l.69-1.33,2.5,7.73h2.74l-3.37-10.35,3.37-7.13h-2.67l-3.25,7.07v-7.07h-2.74v7.07l-3.25-7.07h-2.67l3.41,7.17-3.41,10.31h2.74ZM546.39,520.13c0-1.15.48-1.72,1.43-1.72s1.42.57,1.42,1.72v9.44c0,1.16-.47,1.73-1.42,1.73s-1.43-.58-1.43-1.73v-9.44ZM544.72,532.64c.72.77,1.75,1.15,3.1,1.15s2.37-.38,3.09-1.15c.72-.76,1.08-1.85,1.08-3.24v-9.1c0-1.4-.36-2.48-1.08-3.24-.72-.76-1.75-1.15-3.09-1.15s-2.38.38-3.1,1.15c-.72.76-1.08,1.85-1.08,3.24v9.1c0,1.4.36,2.48,1.08,3.24M535.27,533.59l2.13-6.5,2.11,6.5h2.74l-3.06-8.91,2.87-8.58h-2.41l-2.11,6.48-2.08-6.48h-2.74l2.88,8.47-3.07,9.01h2.74ZM525.3,533.59l2.32-8.01,1.11-4.28v12.29h2.74v-17.49h-3.29l-2.25,7.22-1,3.85v-11.07h-2.45v17.49h2.82ZM515.81,518.61h1.3c.46,0,.79.12,1.01.37.22.25.33.67.33,1.27v2.62c0,.6-.11,1.03-.33,1.28-.22.25-.56.38-1.01.38h-1.3v-5.93ZM515.81,533.59v-6.57h1.3c1.36,0,2.37-.37,3.06-1.1.69-.74,1.03-1.81,1.03-3.22v-2.27c0-1.41-.34-2.48-1.03-3.22s-1.71-1.11-3.06-1.11h-4.04v17.49h2.74ZM505.16,533.59v-14.99h3.12v14.99h2.74v-17.49h-8.61v17.49h2.74Z"/>
  <path class="st2" d="M803.77,801.39v-5.72h-11.82c-.04-.19-.06-.47-.06-.86,0-.87.23-1.77.69-2.7.46-.93,1.06-1.83,1.79-2.7.73-.87,1.54-1.79,2.43-2.75.89-.96,1.77-1.99,2.65-3.09.88-1.11,1.68-2.26,2.42-3.47.73-1.21,1.33-2.6,1.79-4.17.46-1.57.69-3.21.69-4.92,0-3.21-.8-5.69-2.39-7.43-1.59-1.74-3.91-2.61-6.95-2.61s-5.37.87-6.98,2.61c-1.61,1.74-2.42,4.21-2.42,7.43v3.9h5.99v-4.29c0-2.62,1.08-3.93,3.25-3.93,1.07,0,1.88.33,2.41,1,.54.67.81,1.86.81,3.57,0,1.56-.23,3.02-.68,4.39-.45,1.37-1.05,2.57-1.78,3.61-.73,1.04-1.54,2.05-2.42,3.04-.89.99-1.77,1.97-2.66,2.97-.89,1-1.7,2.02-2.44,3.07-.74,1.05-1.34,2.28-1.79,3.68-.46,1.4-.69,2.9-.69,4.47v4.91h18.14ZM781.3,795.62h-6.27v5.77h6.27v-5.77ZM754.68,799.23c1.69,1.74,4.06,2.61,7.12,2.61s5.38-.87,6.97-2.61,2.38-4.21,2.38-7.43v-8.92c0-2.97-.58-5.23-1.74-6.79-1.16-1.55-2.89-2.33-5.19-2.33-2.48,0-4.3.97-5.47,2.9l.5-9.53h10.9v-5.71h-16.8l-1.21,23.19h6.27v-1.2c0-2.62,1.07-3.93,3.22-3.93s3.25,1.31,3.25,3.93v8.78c0,2.6-1.08,3.9-3.25,3.9s-3.22-1.3-3.22-3.9v-3.71h-6.27v3.32c0,3.22.84,5.69,2.53,7.43M735.7,785c0-2.62,1.09-3.93,3.26-3.93s3.23,1.31,3.23,3.93v7.19c0,2.6-1.08,3.9-3.23,3.9s-3.26-1.3-3.26-3.9v-7.19ZM731.9,799.22c1.65,1.75,4,2.62,7.06,2.62s5.42-.87,7.05-2.62c1.64-1.75,2.46-4.22,2.46-7.41v-7.3c0-2.97-.58-5.24-1.75-6.8-1.17-1.56-2.9-2.34-5.19-2.34-2.77,0-4.71,1.18-5.83,3.54v-7.3c0-1.82.28-3.09.85-3.82.56-.72,1.44-1.09,2.63-1.09,2.17,0,3.26,1.31,3.26,3.93v1.42h5.91v-1.03c0-3.21-.8-5.69-2.39-7.43-1.59-1.74-3.91-2.61-6.95-2.61-6.39,0-9.59,3.47-9.59,10.4v20.43c0,3.2.82,5.67,2.47,7.41"/>
  <path class="st1" d="M766.74,754.2c19.32,0,34.99-15.66,34.99-34.99s-15.67-34.99-34.99-34.99-34.99,15.66-34.99,34.99,15.67,34.99,34.99,34.99Z"/>
  <path class="st2" d="M772.84,735.42v-9.29l1.48-2.77,4.62,12.05h4.88l-6.61-16.78,6.61-13.49h-4.75l-6.23,13.19v-13.19h-4.75v30.27h4.75ZM764.71,735.42v-4.33h-8.95c-.03-.14-.04-.36-.04-.65,0-.66.18-1.34.53-2.05.35-.7.8-1.38,1.35-2.05.55-.66,1.17-1.36,1.84-2.08.67-.72,1.34-1.5,2.01-2.34.67-.84,1.27-1.71,1.83-2.63.55-.92,1.01-1.97,1.36-3.16.35-1.19.52-2.43.52-3.72,0-2.43-.6-4.31-1.81-5.63-1.21-1.32-2.96-1.97-5.26-1.97s-4.06.66-5.28,1.97c-1.22,1.32-1.83,3.19-1.83,5.63v2.95h4.54v-3.25c0-1.98.82-2.98,2.46-2.98.81,0,1.42.25,1.83.76.41.51.61,1.41.61,2.7,0,1.18-.17,2.29-.52,3.33-.34,1.03-.79,1.94-1.34,2.73-.55.79-1.17,1.55-1.84,2.3-.67.75-1.34,1.49-2.01,2.25-.67.75-1.29,1.53-1.85,2.32-.56.8-1.01,1.73-1.36,2.79-.35,1.06-.52,2.19-.52,3.39v3.71h13.74Z"/>
  <path class="st2" d="M445.79,415.93h32.32v-32.73h-32.32v32.73ZM445.07,382.49h33.75v34.17h-33.75v-34.17Z"/>
  <path class="st1" d="M445.79,415.93h32.32v-32.73h-32.32v32.73ZM445.07,382.49h33.75v34.17h-33.75v-34.17Z"/>
  <g>
    <path class="st2" d="M475.16,388.11c0-.81-.65-1.46-1.45-1.46h-16.97c-.8,0-1.45.66-1.45,1.46v22.91c0,.81.65,1.46,1.45,1.46h16.97c.8,0,1.45-.65,1.45-1.46v-22.91ZM454.58,411.03v-22.91c0-1.21.97-2.19,2.16-2.19h16.97c1.19,0,2.16.98,2.16,2.19v22.91c0,1.21-.97,2.19-2.16,2.19h-16.97c-1.19,0-2.16-.98-2.16-2.19"/>
    <path class="st1" d="M475.16,388.11c0-.81-.65-1.46-1.45-1.46h-16.97c-.8,0-1.45.66-1.45,1.46v22.91c0,.81.65,1.46,1.45,1.46h16.97c.8,0,1.45-.65,1.45-1.46v-22.91ZM454.58,411.03v-22.91c0-1.21.97-2.19,2.16-2.19h16.97c1.19,0,2.16.98,2.16,2.19v22.91c0,1.21-.97,2.19-2.16,2.19h-16.97c-1.19,0-2.16-.98-2.16-2.19Z"/>
  </g>
  <path class="st2" d="M457.81,409.95h14.83v-20.75h-14.83v20.75ZM457.1,388.48h16.26v22.19h-16.26v-22.19Z"/>
  <path class="st1" d="M457.81,409.95h14.83v-20.75h-14.83v20.75ZM457.1,388.48h16.26v22.19h-16.26v-22.19Z"/>
  <g>
    <path class="st2" d="M468.09,399.57c0-1.04-.83-1.88-1.86-1.88s-1.86.85-1.86,1.88.84,1.88,1.86,1.88,1.86-.85,1.86-1.88M463.66,399.57c0-1.44,1.15-2.6,2.57-2.6s2.57,1.17,2.57,2.6-1.15,2.6-2.57,2.6-2.57-1.17-2.57-2.6"/>
    <path class="st1" d="M468.09,399.57c0-1.04-.83-1.88-1.86-1.88s-1.86.85-1.86,1.88.84,1.88,1.86,1.88,1.86-.85,1.86-1.88ZM463.66,399.57c0-1.44,1.15-2.6,2.57-2.6s2.57,1.17,2.57,2.6-1.15,2.6-2.57,2.6-2.57-1.17-2.57-2.6Z"/>
  </g>
  <line class="st1" x1="439.45" y1="444.31" x2="470.98" y2="444.31"/>
</svg>