<?xml version="1.0" encoding="utf-8"?>
<!-- Generator: Adobe Illustrator 26.5.0, SVG Export Plug-In . SVG Version: 6.00 Build 0)  -->
<svg version="1.1" id="Слой_1" xmlns="http://www.w3.org/2000/svg" xmlns:xlink="http://www.w3.org/1999/xlink" x="0px" y="0px"
	 viewBox="0 0 1000 1000" style="enable-background:new 0 0 1000 1000;" xml:space="preserve">
<style type="text/css">
	.st0{fill:#F5C5CD;}
	.st1{fill:#373437;}
	.st2{fill:none;stroke:#373437;}
	.st3{fill:#FFFFFF;}
	.st4{fill:none;stroke:#373437;stroke-dasharray:2.058,2.058;}
	.st5{fill:none;stroke:#373437;stroke-dasharray:1.992,1.992;}
</style>
<rect x="104.9" y="178.9" class="st0" width="809.7" height="552.9"/>
<rect x="587.4" y="322.2" class="st1" width="147" height="54.6"/>
<rect x="587.4" y="322.2" class="st2" width="147" height="54.6"/>
<rect x="677.4" y="363.1" class="st1" width="240.2" height="13.7"/>
<rect x="677.4" y="363.1" class="st2" width="240.2" height="13.7"/>
<path class="st2" d="M399.8,326.6l-86.9,50c0,0-4.5-7.1-8.4-22.4c-3.9-15.3-3.9-25.9-3.9-25.9"/>
<path class="st2" d="M433.8,326.6l86.9,50c0,0,4.5-7.1,8.4-22.4c3.9-15.3,3.9-25.9,3.9-25.9"/>
<path class="st2" d="M619.2,321.7l-40.9-71.4c0,0,5.8-3.7,18.3-6.9c12.5-3.2,21.1-3.2,21.1-3.2"/>
<path class="st2" d="M278.3,152.7l-86.9-50c0,0-4.5,7.1-8.4,22.4c-3.9,15.3-3.9,25.9-3.9,25.9"/>
<rect x="80.1" y="760.9" class="st1" width="120.2" height="21"/>
<rect x="80.1" y="760.9" class="st2" width="120.2" height="21"/>
<rect x="358.5" y="760.9" class="st1" width="226.3" height="21"/>
<rect x="358.5" y="760.9" class="st2" width="226.3" height="21"/>
<rect x="84.7" y="732.8" class="st1" width="110.9" height="27.9"/>
<rect x="84.7" y="732.8" class="st2" width="110.9" height="27.9"/>
<rect x="365.9" y="732.8" class="st1" width="219" height="27.9"/>
<rect x="365.9" y="732.8" class="st2" width="219" height="27.9"/>
<rect x="79.6" y="150.1" class="st1" width="26.1" height="630.3"/>
<rect x="79.6" y="150.1" class="st2" width="26.1" height="589.1"/>
<rect x="80.1" y="150.1" class="st1" width="98.5" height="28.1"/>
<rect x="80.1" y="150.1" class="st2" width="98.5" height="28.1"/>
<rect x="102.3" y="322.2" class="st1" width="199.1" height="13.9"/>
<rect x="102.3" y="322.2" class="st2" width="199.1" height="13.9"/>
<rect x="381.8" y="322.2" class="st1" width="70" height="13.9"/>
<rect x="381.8" y="322.2" class="st2" width="70" height="13.9"/>
<rect x="415.5" y="332.4" class="st1" width="13.9" height="410.1"/>
<rect x="415.5" y="332.4" class="st2" width="13.9" height="410.1"/>
<rect x="532.2" y="322.2" class="st1" width="176.2" height="13.9"/>
<rect x="532.2" y="322.2" class="st2" width="176.2" height="13.9"/>
<rect x="490.9" y="772.4" class="st1" width="101.4" height="25.5"/>
<rect x="490.9" y="772.4" class="st2" width="101.4" height="25.5"/>
<rect x="789.1" y="772.4" class="st1" width="146.1" height="25.5"/>
<rect x="789.1" y="772.4" class="st2" width="146.1" height="25.5"/>
<rect x="794.9" y="732.8" class="st1" width="134.8" height="41.3"/>
<rect x="794.9" y="732.8" class="st2" width="134.8" height="41.3"/>
<rect x="144.6" y="896.7" class="st1" width="66.2" height="13.9"/>
<rect x="144.6" y="896.7" class="st2" width="66.2" height="13.9"/>
<polygon class="st2" points="504.8,910.6 504.8,896.7 504.8,778.4 490.9,778.4 490.9,896.7 207.4,896.7 207.4,910.6 490.9,910.6 "/>
<rect x="144.6" y="772.4" class="st1" width="13.9" height="137.9"/>
<rect x="144.6" y="772.4" class="st2" width="13.9" height="137.9"/>
<rect x="275.9" y="150.1" class="st1" width="59.6" height="28.1"/>
<rect x="275.9" y="150.1" class="st2" width="59.6" height="28.1"/>
<rect x="429.5" y="150.1" class="st1" width="506.5" height="28.1"/>
<rect x="429.5" y="150.1" class="st2" width="506.5" height="28.1"/>
<rect x="308.6" y="177.5" class="st1" width="148.8" height="26.9"/>
<rect x="308.6" y="177.5" class="st2" width="148.8" height="26.9"/>
<rect x="365.7" y="163.1" class="st1" width="13.7" height="20.3"/>
<rect x="365.7" y="163.1" class="st2" width="13.7" height="20.3"/>
<line class="st2" x1="333.1" y1="162.1" x2="444.4" y2="162.1"/>
<line class="st2" x1="333.1" y1="150.1" x2="444.4" y2="150.1"/>
<rect x="606.9" y="169.9" class="st1" width="15.9" height="70.7"/>
<rect x="606.9" y="169.9" class="st2" width="15.9" height="70.7"/>
<rect x="606.9" y="301.7" class="st1" width="15.9" height="28.7"/>
<rect x="606.9" y="301.7" class="st2" width="15.9" height="28.7"/>
<rect x="907.8" y="174.5" class="st1" width="28.2" height="622.8"/>
<rect x="907.8" y="174.5" class="st2" width="28.2" height="622.8"/>
<rect x="654.9" y="338.1" class="st3" width="14.6" height="25.7"/>
<rect x="654.9" y="338.1" class="st2" width="14.6" height="25.7"/>
<rect x="599.6" y="338.1" class="st3" width="39.8" height="25.7"/>
<rect x="599.6" y="338.1" class="st2" width="39.8" height="25.7"/>
<rect x="681.5" y="338.1" class="st3" width="14.6" height="25.7"/>
<rect x="681.5" y="338.1" class="st2" width="14.6" height="25.7"/>
<rect x="709.5" y="338.1" class="st3" width="14.6" height="25.7"/>
<rect x="709.5" y="338.1" class="st2" width="14.6" height="25.7"/>
<rect x="89.8" y="760.9" class="st2" width="192.3" height="21"/>
<rect x="189.9" y="752.3" class="st2" width="92.2" height="29.6"/>
<rect x="189.9" y="732.8" class="st2" width="83.4" height="27.9"/>
<rect x="201" y="752.3" class="st2" width="64.1" height="8.5"/>
<path class="st2" d="M368.1,756.8l-75.3-43c0,0-3.9,6.1-7.3,19.2c-3.4,13.1-3.4,22.2-3.4,22.2"/>
<rect x="358.5" y="752.3" class="st3" width="7.3" height="8.5"/>
<rect x="358.5" y="752.3" class="st2" width="7.3" height="8.5"/>
<rect x="586.8" y="772.4" class="st2" width="237.1" height="25.5"/>
<rect x="580.9" y="732.8" class="st2" width="243.1" height="65"/>
<rect x="580.9" y="762.8" class="st2" width="243.1" height="35.1"/>
<rect x="584.8" y="762.8" class="st3" width="7.4" height="7.6"/>
<rect x="584.8" y="762.8" class="st2" width="7.4" height="7.6"/>
<rect x="789.1" y="762.8" class="st3" width="7.4" height="7.6"/>
<rect x="789.1" y="762.8" class="st2" width="7.4" height="7.6"/>
<line class="st4" x1="587.4" y1="390.2" x2="587.4" y2="501.5"/>
<line class="st5" x1="599.4" y1="509.7" x2="898.8" y2="509.7"/>
<path class="st2" d="M902.8,509.7h4 M587.4,505.6v4.1h4 M587.4,377.8v4.1"/>
<path class="st1" d="M807.4,379.6H868v61.2h-60.5V379.6z M869.3,378.2h-63.2v63.9h63.2V378.2z"/>
<path class="st2" d="M807.4,379.6H868v61.2h-60.5V379.6z M869.3,378.2h-63.2v63.9h63.2V378.2z"/>
<path class="st1" d="M816.5,435.2c-1.5,0-2.7-1.2-2.7-2.7v-32.2c0-1.5,1.2-2.7,2.7-2.7h42.4c1.5,0,2.7,1.2,2.7,2.7v32.2
	c0,1.5-1.2,2.7-2.7,2.7H816.5z M858.9,396.2h-42.4c-2.2,0-4.1,1.8-4.1,4.1v32.2c0,2.3,1.8,4.1,4.1,4.1h42.4c2.2,0,4-1.8,4-4.1v-32.2
	C863,398,861.1,396.2,858.9,396.2"/>
<path class="st2" d="M816.5,435.2c-1.5,0-2.7-1.2-2.7-2.7v-32.2c0-1.5,1.2-2.7,2.7-2.7h42.4c1.5,0,2.7,1.2,2.7,2.7v32.2
	c0,1.5-1.2,2.7-2.7,2.7H816.5z M858.9,396.2h-42.4c-2.2,0-4.1,1.8-4.1,4.1v32.2c0,2.3,1.8,4.1,4.1,4.1h42.4c2.2,0,4-1.8,4-4.1v-32.2
	C863,398,861.1,396.2,858.9,396.2z"/>
<path class="st1" d="M818.5,402.3h38.4v28.2h-38.4V402.3z M858.3,400.9h-41.1v30.9h41.1V400.9z"/>
<path class="st2" d="M818.5,402.3h38.4v28.2h-38.4V402.3z M858.3,400.9h-41.1v30.9h41.1V400.9z"/>
<path class="st1" d="M837.7,421.8c-1.9,0-3.5-1.6-3.5-3.6c0-2,1.6-3.6,3.5-3.6c1.9,0,3.5,1.6,3.5,3.6
	C841.2,420.2,839.6,421.8,837.7,421.8 M837.7,413.3c-2.7,0-4.9,2.2-4.9,4.9c0,2.7,2.2,4.9,4.9,4.9c2.7,0,4.9-2.2,4.9-4.9
	C842.6,415.5,840.4,413.3,837.7,413.3"/>
<path class="st2" d="M837.7,421.8c-1.9,0-3.5-1.6-3.5-3.6c0-2,1.6-3.6,3.5-3.6c1.9,0,3.5,1.6,3.5,3.6
	C841.2,420.2,839.6,421.8,837.7,421.8z M837.7,413.3c-2.7,0-4.9,2.2-4.9,4.9c0,2.7,2.2,4.9,4.9,4.9c2.7,0,4.9-2.2,4.9-4.9
	C842.6,415.5,840.4,413.3,837.7,413.3z"/>
<rect x="766" y="296.5" class="st2" width="63" height="61.1"/>
<line class="st2" x1="829.2" y1="297.3" x2="766.2" y2="357.3"/>
<line class="st2" x1="829.2" y1="358" x2="766.2" y2="298"/>
<path class="st1" d="M693.6,255.1c-10.2,0-18.6-8.3-18.6-18.6v-26.9c0-1.8,1.4-3.2,3.2-3.2H709c1.8,0,3.2,1.4,3.2,3.2v26.9
	C712.2,246.8,703.9,255.1,693.6,255.1 M709,205.1h-30.8c-2.5,0-4.5,2-4.5,4.5v26.9c0,11,8.9,19.9,19.9,19.9c11,0,19.9-8.9,19.9-19.9
	v-26.9C713.5,207.1,711.5,205.1,709,205.1"/>
<path class="st2" d="M693.6,255.1c-10.2,0-18.6-8.3-18.6-18.6v-26.9c0-1.8,1.4-3.2,3.2-3.2H709c1.8,0,3.2,1.4,3.2,3.2v26.9
	C712.2,246.8,703.9,255.1,693.6,255.1z M709,205.1h-30.8c-2.5,0-4.5,2-4.5,4.5v26.9c0,11,8.9,19.9,19.9,19.9
	c11,0,19.9-8.9,19.9-19.9v-26.9C713.5,207.1,711.5,205.1,709,205.1z"/>
<path class="st2" d="M680.3,215.4H707c0.2,0,0.3,0.2,0.3,0.3V236c0,7.5-6.1,13.7-13.7,13.7c-7.5,0-13.6-6.2-13.6-13.7v-20.3
	C680,215.5,680.1,215.4,680.3,215.4z"/>
<path class="st1" d="M680.6,216h26v20c0,7.2-5.8,13-13,13c-7.2,0-13-5.8-13-13V216z M707,214.7h-26.7c-0.5,0-1,0.4-1,1V236
	c0,7.9,6.4,14.3,14.3,14.3c7.9,0,14.3-6.4,14.3-14.3v-20.3C707.9,215.2,707.5,214.7,707,214.7"/>
<path class="st2" d="M680.6,216h26v20c0,7.2-5.8,13-13,13c-7.2,0-13-5.8-13-13V216z M707,214.7h-26.7c-0.5,0-1,0.4-1,1V236
	c0,7.9,6.4,14.3,14.3,14.3c7.9,0,14.3-6.4,14.3-14.3v-20.3C707.9,215.2,707.5,214.7,707,214.7z"/>
<path class="st1" d="M693.6,236c-1.9,0-3.5-1.6-3.5-3.5c0-1.9,1.6-3.5,3.5-3.5c1.9,0,3.5,1.6,3.5,3.5
	C697.2,234.4,695.6,236,693.6,236 M693.6,227.7c-2.6,0-4.8,2.1-4.8,4.8c0,2.6,2.1,4.8,4.8,4.8c2.6,0,4.8-2.1,4.8-4.8
	C698.4,229.8,696.3,227.7,693.6,227.7"/>
<path class="st2" d="M693.6,236c-1.9,0-3.5-1.6-3.5-3.5c0-1.9,1.6-3.5,3.5-3.5c1.9,0,3.5,1.6,3.5,3.5
	C697.2,234.4,695.6,236,693.6,236z M693.6,227.7c-2.6,0-4.8,2.1-4.8,4.8c0,2.6,2.1,4.8,4.8,4.8c2.6,0,4.8-2.1,4.8-4.8
	C698.4,229.8,696.3,227.7,693.6,227.7z"/>
<rect x="685.3" y="217.3" transform="matrix(0.8019 -0.5975 0.5975 0.8019 2.9053 453.9309)" class="st1" width="1.3" height="10.7"/>
<rect x="685.3" y="217.3" transform="matrix(0.8019 -0.5975 0.5975 0.8019 2.9053 453.9309)" class="st2" width="1.3" height="10.7"/>
<polygon class="st1" points="703.8,217.9 697.4,226.5 698.5,227.2 704.8,218.7 "/>
<polygon class="st2" points="703.8,217.9 697.4,226.5 698.5,227.2 704.8,218.7 "/>
<path class="st1" d="M680.8,205c-2.8,0-5.1-2.3-5.1-5.1v-7c0-2.8,2.3-5.2,5.1-5.2h25.7c2.8,0,5.1,2.3,5.1,5.2v7
	c0,2.8-2.3,5.1-5.1,5.1H680.8z M706.5,186.4h-25.7c-3.5,0-6.4,2.9-6.4,6.4v7c0,3.5,2.9,6.4,6.4,6.4h25.7c3.5,0,6.4-2.9,6.4-6.4v-7
	C712.9,189.3,710,186.4,706.5,186.4"/>
<path class="st2" d="M680.8,205c-2.8,0-5.1-2.3-5.1-5.1v-7c0-2.8,2.3-5.2,5.1-5.2h25.7c2.8,0,5.1,2.3,5.1,5.2v7
	c0,2.8-2.3,5.1-5.1,5.1H680.8z M706.5,186.4h-25.7c-3.5,0-6.4,2.9-6.4,6.4v7c0,3.5,2.9,6.4,6.4,6.4h25.7c3.5,0,6.4-2.9,6.4-6.4v-7
	C712.9,189.3,710,186.4,706.5,186.4z"/>
<path class="st1" d="M693.6,198.4c-1.1,0-2-0.9-2-2c0-1.1,0.9-2,2-2c1.1,0,2,0.9,2,2C695.6,197.5,694.7,198.4,693.6,198.4
	 M693.6,193.1c-1.8,0-3.3,1.5-3.3,3.3c0,1.8,1.5,3.3,3.3,3.3c1.8,0,3.3-1.5,3.3-3.3C696.9,194.6,695.4,193.1,693.6,193.1"/>
<path class="st2" d="M693.6,198.4c-1.1,0-2-0.9-2-2c0-1.1,0.9-2,2-2c1.1,0,2,0.9,2,2C695.6,197.5,694.7,198.4,693.6,198.4z
	 M693.6,193.1c-1.8,0-3.3,1.5-3.3,3.3c0,1.8,1.5,3.3,3.3,3.3c1.8,0,3.3-1.5,3.3-3.3C696.9,194.6,695.4,193.1,693.6,193.1z"/>
<path class="st2" d="M872.1,210.7c-1.4,0-2.6,1.1-2.6,2.5c0,1.4,1.1,2.5,2.6,2.5c1.4,0,2.6-1.1,2.6-2.5
	C874.6,211.8,873.5,210.7,872.1,210.7z"/>
<path class="st2" d="M885.5,351.3c9.3,0,16.9-7.6,16.9-16.9V203.7c0-9.3-7.6-16.9-16.9-16.9h-26.8c-9.3,0-16.9,7.6-16.9,16.9v130.6
	c0,9.3,7.6,16.9,16.9,16.9H885.5z"/>
<path class="st2" d="M879.8,339.9c9.3,0,16.9-7.6,16.9-16.9V215.2c0-9.3-7.6-16.9-16.9-16.9h-15.5c-9.3,0-16.9,7.6-16.9,16.9V323
	c0,9.3,7.6,16.9,16.9,16.9H879.8z"/>
<path class="st2" d="M882.8,326.1c4.7,0,8.5-3.8,8.5-8.5V213c0-4.7-3.8-8.5-8.5-8.5h-21.6c-4.7,0-8.5,3.8-8.5,8.5v104.7
	c0,4.7,3.8,8.5,8.5,8.5H882.8z"/>
<polygon class="st2" points="836.7,180.4 836.7,180.4 836.7,357.7 907.5,357.7 907.5,180.4 "/>
<path class="st1" d="M811.6,220.1c9.8,0,17.7-8,17.7-17.7v-18.8c0-1.5-1.2-2.7-2.7-2.7h-40c-1.5,0-2.7,1.2-2.7,2.7v18.8
	c0,9.8,7.9,17.7,17.7,17.7H811.6z M786.6,179.8h40c2,0,3.7,1.7,3.7,3.7v18.8c0,10.3-8.4,18.7-18.7,18.7h-10
	c-10.3,0-18.7-8.4-18.7-18.7v-18.8C782.9,181.5,784.5,179.8,786.6,179.8"/>
<path class="st2" d="M811.6,220.1c9.8,0,17.7-8,17.7-17.7v-18.8c0-1.5-1.2-2.7-2.7-2.7h-40c-1.5,0-2.7,1.2-2.7,2.7v18.8
	c0,9.8,7.9,17.7,17.7,17.7H811.6z M786.6,179.8h40c2,0,3.7,1.7,3.7,3.7v18.8c0,10.3-8.4,18.7-18.7,18.7h-10
	c-10.3,0-18.7-8.4-18.7-18.7v-18.8C782.9,181.5,784.5,179.8,786.6,179.8z"/>
<path class="st1" d="M811.6,215.6c7.3,0,13.3-6,13.3-13.3v-11c0-1.3-1-2.3-2.3-2.3h-31.9c-1.3,0-2.3,1-2.3,2.3v11
	c0,7.3,6,13.3,13.3,13.3H811.6z M790.6,188h31.9c1.8,0,3.3,1.5,3.3,3.3v11c0,7.9-6.4,14.3-14.3,14.3h-10c-7.9,0-14.3-6.4-14.3-14.3
	v-11C787.3,189.5,788.8,188,790.6,188"/>
<path class="st2" d="M811.6,215.6c7.3,0,13.3-6,13.3-13.3v-11c0-1.3-1-2.3-2.3-2.3h-31.9c-1.3,0-2.3,1-2.3,2.3v11
	c0,7.3,6,13.3,13.3,13.3H811.6z M790.6,188h31.9c1.8,0,3.3,1.5,3.3,3.3v11c0,7.9-6.4,14.3-14.3,14.3h-10c-7.9,0-14.3-6.4-14.3-14.3
	v-11C787.3,189.5,788.8,188,790.6,188z"/>
<path class="st1" d="M806.6,206.3c1.2,0,2.2-1,2.2-2.2s-1-2.2-2.2-2.2c-1.2,0-2.2,1-2.2,2.2S805.4,206.3,806.6,206.3 M806.6,200.9
	c1.8,0,3.2,1.5,3.2,3.2c0,1.8-1.5,3.2-3.2,3.2c-1.8,0-3.2-1.5-3.2-3.2C803.3,202.3,804.8,200.9,806.6,200.9"/>
<path class="st2" d="M806.6,206.3c1.2,0,2.2-1,2.2-2.2s-1-2.2-2.2-2.2c-1.2,0-2.2,1-2.2,2.2S805.4,206.3,806.6,206.3z M806.6,200.9
	c1.8,0,3.2,1.5,3.2,3.2c0,1.8-1.5,3.2-3.2,3.2c-1.8,0-3.2-1.5-3.2-3.2C803.3,202.3,804.8,200.9,806.6,200.9z"/>
<line class="st2" x1="333.5" y1="178" x2="365.9" y2="163"/>
<line class="st2" x1="378.2" y1="178" x2="430.3" y2="163.1"/>
<path class="st1" d="M355.1,298.1c1.1,1.2,2.7,1.8,4.8,1.8s3.6-0.6,4.7-1.8c1.1-1.2,1.6-2.8,1.6-5V291c0-2.9-1-4.8-3-5.7
	c2-0.8,3-2.7,3-5.6v-0.7c0-2.2-0.5-3.8-1.6-5c-1.1-1.2-2.6-1.8-4.7-1.8s-3.7,0.6-4.8,1.8c-1.1,1.2-1.7,2.8-1.7,5v1.5h4.2v-1.7
	c0-1.8,0.7-2.6,2.2-2.6c0.7,0,1.3,0.2,1.6,0.7c0.4,0.4,0.5,1.3,0.5,2.4v1.5c0,1-0.2,1.8-0.6,2.2c-0.4,0.4-1.1,0.6-1.9,0.6h-1.7v3.9
	h1.4c1,0,1.7,0.3,2.1,0.8c0.4,0.5,0.6,1.4,0.6,2.6v2.1c0,1.1-0.2,1.9-0.5,2.4c-0.4,0.4-0.9,0.7-1.6,0.7c-1.5,0-2.2-0.9-2.2-2.7v-2.5
	h-4.2v2.2C353.4,295.3,354,296.9,355.1,298.1 M350.7,295.7h-4.2v3.9h4.2V295.7z M335.2,288.5c0-1.8,0.7-2.7,2.2-2.7
	c1.5,0,2.2,0.9,2.2,2.7v4.9c0,1.8-0.7,2.6-2.2,2.6c-1.5,0-2.2-0.9-2.2-2.6V288.5z M332.6,298.1c1.1,1.2,2.7,1.8,4.8,1.8
	c2.1,0,3.7-0.6,4.8-1.8c1.1-1.2,1.7-2.8,1.7-5v-4.9c0-2-0.4-3.5-1.2-4.6c-0.8-1.1-2-1.6-3.5-1.6c-1.9,0-3.2,0.8-3.9,2.4v-4.9
	c0-1.2,0.2-2.1,0.6-2.6c0.4-0.5,1-0.7,1.8-0.7c1.5,0,2.2,0.9,2.2,2.6v1h4v-0.7c0-2.2-0.5-3.8-1.6-5c-1.1-1.2-2.6-1.8-4.7-1.8
	c-4.3,0-6.5,2.3-6.5,7v13.8C331,295.3,331.5,296.9,332.6,298.1"/>
<path class="st1" d="M395.2,238.2h2c0.7,0,1.2,0.2,1.6,0.6c0.3,0.4,0.5,1,0.5,2v4c0,0.9-0.2,1.6-0.5,2c-0.3,0.4-0.9,0.6-1.6,0.6h-2
	V238.2z M395.2,261.4v-10.1h2c2.1,0,3.7-0.6,4.7-1.7c1.1-1.1,1.6-2.8,1.6-5v-3.5c0-2.2-0.5-3.8-1.6-5c-1.1-1.1-2.6-1.7-4.7-1.7h-6.2
	v27H395.2z M379.5,240.6c0-1.8,0.7-2.7,2.2-2.7c1.5,0,2.2,0.9,2.2,2.7v14.6c0,1.8-0.7,2.7-2.2,2.7c-1.5,0-2.2-0.9-2.2-2.7V240.6z
	 M377,259.9c1.1,1.2,2.7,1.8,4.8,1.8c2.1,0,3.7-0.6,4.8-1.8c1.1-1.2,1.7-2.8,1.7-5v-14c0-2.2-0.6-3.8-1.7-5
	c-1.1-1.2-2.7-1.8-4.8-1.8c-2.1,0-3.7,0.6-4.8,1.8c-1.1,1.2-1.7,2.8-1.7,5v14C375.3,257,375.9,258.7,377,259.9 M362.5,256.2
	c0.2-0.5,0.3-1.3,0.4-2.3l0.8-15.7h3.6v19.3h-5.6C362,257.2,362.3,256.7,362.5,256.2 M360.1,264.9v-3.6h9v3.6h4.2v-7.4h-1.8v-23.1
	h-12l-0.8,19.7c0,0.8-0.1,1.5-0.3,2c-0.2,0.5-0.4,1-0.8,1.5h-1.7v7.4H360.1z M344.8,261.4l3.6-12.4l1.7-6.6v19h4.2v-27h-5.1
	l-3.5,11.1l-1.5,5.9v-17.1h-3.8v27H344.8z M330.1,238.2h2c0.7,0,1.2,0.2,1.6,0.6c0.3,0.4,0.5,1,0.5,2v4c0,0.9-0.2,1.6-0.5,2
	c-0.3,0.4-0.9,0.6-1.6,0.6h-2V238.2z M330.1,261.4v-10.1h2c2.1,0,3.7-0.6,4.7-1.7c1.1-1.1,1.6-2.8,1.6-5v-3.5c0-2.2-0.5-3.8-1.6-5
	c-1.1-1.1-2.6-1.7-4.7-1.7h-6.2v27H330.1z M314.5,240.6c0-1.8,0.7-2.7,2.2-2.7c1.5,0,2.2,0.9,2.2,2.7v14.6c0,1.8-0.7,2.7-2.2,2.7
	c-1.5,0-2.2-0.9-2.2-2.7V240.6z M312,259.9c1.1,1.2,2.7,1.8,4.8,1.8c2.1,0,3.7-0.6,4.8-1.8c1.1-1.2,1.7-2.8,1.7-5v-14
	c0-2.2-0.6-3.8-1.7-5c-1.1-1.2-2.7-1.8-4.8-1.8c-2.1,0-3.7,0.6-4.8,1.8c-1.1,1.2-1.7,2.8-1.7,5v14C310.3,257,310.8,258.7,312,259.9
	 M298.9,261.4v-8.3l1.3-2.5l4.1,10.7h4.3l-5.9-15l5.9-12h-4.2l-5.6,11.8v-11.8h-4.2v27H298.9z"/>
<path class="st1" d="M367.5,855.7c2.1,0,3.7-0.4,4.6-1.3c0.9-0.9,1.4-2.4,1.4-4.6v-15.2c0-2.1-0.5-3.7-1.4-4.6
	c-0.9-0.9-2.4-1.3-4.6-1.3h-1.3v3.7h1c0.7,0,1.2,0.2,1.5,0.5c0.3,0.3,0.5,1,0.5,1.9v14.9c0,0.9-0.2,1.5-0.5,1.9
	c-0.3,0.3-0.8,0.5-1.5,0.5h-1v3.7H367.5z M355.8,844.7c0-1.8,0.7-2.6,2.2-2.6c1.5,0,2.2,0.9,2.2,2.6v4.9c0,1.8-0.7,2.6-2.2,2.6
	c-1.5,0-2.2-0.9-2.2-2.6V844.7z M353.2,854.3c1.1,1.2,2.7,1.8,4.8,1.8c2.1,0,3.7-0.6,4.8-1.8c1.1-1.2,1.7-2.8,1.7-5v-4.9
	c0-2-0.4-3.5-1.2-4.6c-0.8-1.1-2-1.6-3.5-1.6c-1.9,0-3.2,0.8-3.9,2.4v-4.9c0-1.2,0.2-2.1,0.6-2.6c0.4-0.5,1-0.7,1.8-0.7
	c1.5,0,2.2,0.9,2.2,2.7v1h4v-0.7c0-2.2-0.5-3.8-1.6-5c-1.1-1.2-2.6-1.8-4.7-1.8c-4.3,0-6.5,2.3-6.5,7v13.8
	C351.6,851.4,352.1,853.1,353.2,854.3 M348.9,851.8h-4.2v3.9h4.2V851.8z M335.3,835.2v20.6h4.2v-27h-2.9c-0.2,0.4-0.3,0.8-0.4,1.1
	c-0.1,0.3-0.3,0.6-0.6,0.9c-0.2,0.3-0.5,0.6-0.8,0.8s-0.7,0.3-1.2,0.5c-0.5,0.1-1,0.2-1.7,0.2v3H335.3z M321.4,854.4
	c0.9,0.9,2.4,1.3,4.6,1.3h1.3v-3.7h-1c-0.7,0-1.2-0.2-1.5-0.5c-0.3-0.3-0.5-1-0.5-1.9v-14.9c0-0.9,0.2-1.5,0.5-1.9
	c0.3-0.3,0.8-0.5,1.5-0.5h1v-3.7H326c-2.1,0-3.7,0.4-4.6,1.3c-0.9,0.9-1.4,2.4-1.4,4.6v15.2C320,852,320.5,853.5,321.4,854.4
	 M304.4,835.2v20.6h4.2v-27h-2.9c-0.2,0.4-0.3,0.8-0.4,1.1c-0.1,0.3-0.3,0.6-0.6,0.9c-0.2,0.3-0.5,0.6-0.8,0.8
	c-0.3,0.2-0.7,0.3-1.2,0.5s-1.1,0.2-1.7,0.2v3H304.4z M295.6,851.8h-4.2v3.9h4.2V851.8z M277.6,854.3c1.1,1.2,2.7,1.8,4.8,1.8
	c2.1,0,3.6-0.6,4.7-1.8c1.1-1.2,1.6-2.8,1.6-5v-2.1c0-2.9-1-4.8-3-5.7c2-0.8,3-2.7,3-5.5v-0.7c0-2.2-0.5-3.8-1.6-5
	c-1.1-1.2-2.6-1.8-4.7-1.8c-2.1,0-3.7,0.6-4.8,1.8c-1.1,1.2-1.7,2.8-1.7,5v1.5h4.2V835c0-1.8,0.7-2.7,2.2-2.7c0.7,0,1.3,0.2,1.6,0.7
	c0.4,0.5,0.6,1.3,0.6,2.4v1.5c0,1-0.2,1.8-0.6,2.2c-0.4,0.4-1.1,0.6-1.9,0.6h-1.7v3.9h1.4c1,0,1.7,0.3,2.1,0.8
	c0.4,0.5,0.6,1.4,0.6,2.6v2.1c0,1.1-0.2,1.9-0.6,2.4c-0.4,0.5-0.9,0.7-1.6,0.7c-1.4,0-2.2-0.9-2.2-2.7V847h-4.2v2.2
	C275.9,851.4,276.5,853.1,277.6,854.3"/>
<path class="st1" d="M276.1,677.2c1.1,1.2,2.7,1.8,4.8,1.8c2.1,0,3.6-0.6,4.7-1.8c1.1-1.2,1.6-2.8,1.6-5V670c0-2.9-1-4.8-3-5.7
	c2-0.8,3-2.7,3-5.6v-0.7c0-2.2-0.5-3.8-1.6-5c-1.1-1.2-2.6-1.8-4.7-1.8c-2.1,0-3.7,0.6-4.8,1.8c-1.1,1.2-1.7,2.8-1.7,5v1.5h4.2v-1.7
	c0-1.8,0.7-2.7,2.2-2.7c0.7,0,1.3,0.2,1.6,0.7c0.4,0.5,0.6,1.3,0.6,2.4v1.5c0,1-0.2,1.8-0.6,2.2c-0.4,0.4-1.1,0.6-1.9,0.6h-1.7v3.9
	h1.4c1,0,1.7,0.3,2.1,0.8c0.4,0.5,0.6,1.4,0.6,2.6v2.1c0,1.1-0.2,1.9-0.6,2.4c-0.4,0.5-0.9,0.7-1.6,0.7c-1.4,0-2.2-0.9-2.2-2.7v-2.5
	h-4.2v2.2C274.4,674.3,274.9,676,276.1,677.2 M271.7,674.7h-4.2v3.9h4.2V674.7z M258.1,658.1v20.6h4.2v-27h-2.9
	c-0.2,0.4-0.3,0.8-0.4,1.1c-0.1,0.3-0.3,0.6-0.6,0.9c-0.2,0.3-0.5,0.6-0.8,0.8c-0.3,0.2-0.7,0.3-1.2,0.5c-0.5,0.1-1.1,0.2-1.7,0.2v3
	H258.1z M242.8,658.1v20.6h4.2v-27h-2.9c-0.2,0.4-0.3,0.8-0.4,1.1c-0.1,0.3-0.3,0.6-0.6,0.9c-0.2,0.3-0.5,0.6-0.8,0.8
	c-0.3,0.2-0.7,0.3-1.2,0.5c-0.5,0.1-1,0.2-1.7,0.2v3H242.8z"/>
<path class="st1" d="M358,610.3l2,13.6H356L358,610.3z M354.7,632.4l0.7-4.9h5.2l0.7,4.9h4.2l-4.3-27h-6.5l-4.3,27H354.7z
	 M341,609.3v23.1h4.2v-23.1h4.4v-3.9h-13.1v3.9H341z M328.6,610.3l2,13.6h-4.1L328.6,610.3z M325.3,632.4l0.7-4.9h5.2l0.7,4.9h4.2
	l-4.3-27h-6.5l-4.3,27H325.3z M310,632.4v-11.6h4.8v11.6h4.2v-27h-4.2V617H310v-11.6h-4.2v27H310z M288.5,632.4v-19l3.2,19h4
	l2.9-19.3v19.3h4.2v-27h-6.1l-2.9,19.2l-3.1-19.2h-5.9v27H288.5z M273.5,611.6c0-1.8,0.7-2.7,2.2-2.7c1.5,0,2.2,0.9,2.2,2.7v14.6
	c0,1.8-0.7,2.7-2.2,2.7c-1.5,0-2.2-0.9-2.2-2.7V611.6z M270.9,630.9c1.1,1.2,2.7,1.8,4.8,1.8c2.1,0,3.7-0.6,4.8-1.8
	c1.1-1.2,1.7-2.8,1.7-5v-14c0-2.2-0.6-3.8-1.7-5c-1.1-1.2-2.7-1.8-4.8-1.8c-2.1,0-3.7,0.6-4.8,1.8s-1.7,2.8-1.7,5v14
	C269.3,628.1,269.8,629.8,270.9,630.9 M257.9,632.4v-8.3l1.3-2.5l4.1,10.7h4.3l-5.9-15l5.9-12h-4.2l-5.6,11.8v-11.8h-4.2v27H257.9z
	 M236.2,612.1c0-1,0.2-1.7,0.5-2.1c0.3-0.4,0.9-0.7,1.6-0.7h2v8.3h-1.7c-0.8,0-1.5-0.2-1.9-0.6c-0.4-0.4-0.6-1.2-0.6-2.2V612.1z
	 M235.8,632.4c0.1-0.3,0.2-0.5,0.2-0.7c0-0.2,0.1-0.5,0.1-0.9c0-0.4,0.1-1,0.1-1.7v-4.2c0-1.2,0.2-2.1,0.7-2.7
	c0.4-0.5,1.1-0.8,2.1-0.8h1.5v11h4.2v-27h-6.4c-2.2,0-3.8,0.5-4.8,1.5c-1,1-1.5,2.6-1.5,4.7v2.1c0,2.8,0.9,4.6,2.8,5.5
	c-1,0.4-1.7,1.1-2.2,2.1c-0.4,1-0.6,2.2-0.6,3.7v4.2c0,1.5-0.1,2.5-0.4,3.3H235.8z M223,610.3l2.1,13.6H221L223,610.3z M219.7,632.4
	l0.7-4.9h5.2l0.7,4.9h4.2l-4.3-27h-6.5l-4.3,27H219.7z M198.7,632.4c2.1,0,3.7-0.5,4.6-1.6c1-1.1,1.5-2.8,1.6-5.3l0.5-16.3h3.7v23.1
	h4.2v-27h-12.1l-0.5,20.4c0,0.6-0.1,1.1-0.2,1.5c-0.1,0.4-0.2,0.6-0.5,0.8c-0.2,0.2-0.5,0.3-0.8,0.4c-0.3,0.1-0.7,0.1-1.2,0.1v3.9
	H198.7z M187.1,632.4l3.6-12.4l1.7-6.6v19h4.2v-27h-5.1l-3.5,11.1l-1.5,5.9v-17.1h-3.8v27H187.1z M162.5,632.4l3.9-12l1,2.1v9.9h4.2
	v-9.9l1.1-2l3.9,11.9h4.2l-5.2-16l5.2-11h-4.1l-5,10.9v-10.9h-4.2v10.9l-5-10.9h-4.1l5.3,11.1l-5.3,15.9H162.5z"/>
<path class="st1" d="M682.7,629.8v10.1h-4.3L682.7,629.8z M682.7,643.8v4.9h4.2v-4.9h1.9v-3.9h-1.9v-18.2h-4.6l-7.7,18.2v3.9H682.7z
	 M672.6,644.8h-4.2v3.9h4.2V644.8z M665.3,648.7v-3.9h-8c0-0.1,0-0.3,0-0.6c0-0.6,0.2-1.2,0.5-1.8c0.3-0.6,0.7-1.2,1.2-1.8
	c0.5-0.6,1-1.2,1.6-1.9c0.6-0.6,1.2-1.3,1.8-2.1c0.6-0.7,1.1-1.5,1.6-2.3c0.5-0.8,0.9-1.8,1.2-2.8c0.3-1.1,0.5-2.2,0.5-3.3
	c0-2.2-0.5-3.8-1.6-5c-1.1-1.2-2.6-1.8-4.7-1.8c-2.1,0-3.6,0.6-4.7,1.8c-1.1,1.2-1.6,2.8-1.6,5v2.6h4v-2.9c0-1.8,0.7-2.7,2.2-2.7
	c0.7,0,1.3,0.2,1.6,0.7c0.4,0.5,0.5,1.3,0.5,2.4c0,1.1-0.2,2-0.5,3c-0.3,0.9-0.7,1.7-1.2,2.4c-0.5,0.7-1,1.4-1.6,2.1s-1.2,1.3-1.8,2
	c-0.6,0.7-1.1,1.4-1.6,2.1c-0.5,0.7-0.9,1.5-1.2,2.5c-0.3,0.9-0.5,2-0.5,3v3.3H665.3z M643.7,628.1v20.6h4.2v-27h-2.9
	c-0.2,0.4-0.3,0.8-0.4,1.1c-0.1,0.3-0.3,0.6-0.6,0.9c-0.2,0.3-0.5,0.6-0.8,0.8c-0.3,0.2-0.7,0.3-1.2,0.5c-0.5,0.1-1,0.2-1.7,0.2v3
	H643.7z"/>
<path class="st1" d="M758.9,580.3l2,13.6h-4.1L758.9,580.3z M755.6,602.4l0.7-4.9h5.2l0.7,4.9h4.2l-4.3-27h-6.5l-4.3,27H755.6z
	 M742,579.3v23.1h4.2v-23.1h4.4v-3.9h-13.1v3.9H742z M729.5,580.3l2,13.6h-4.1L729.5,580.3z M726.2,602.4l0.7-4.9h5.2l0.7,4.9h4.2
	l-4.3-27h-6.5l-4.3,27H726.2z M710.9,602.4v-11.6h4.8v11.6h4.2v-27h-4.2V587h-4.8v-11.6h-4.2v27H710.9z M689.5,602.4v-19l3.2,19h4
	l2.9-19.3v19.3h4.2v-27h-6.1l-2.9,19.2l-3.1-19.2h-5.9v27H689.5z M674.4,581.7c0-1.8,0.7-2.7,2.2-2.7c1.5,0,2.2,0.9,2.2,2.7v14.6
	c0,1.8-0.7,2.7-2.2,2.7c-1.5,0-2.2-0.9-2.2-2.7V581.7z M671.9,601c1.1,1.2,2.7,1.8,4.8,1.8c2.1,0,3.7-0.6,4.8-1.8
	c1.1-1.2,1.7-2.8,1.7-5v-14c0-2.2-0.6-3.8-1.7-5c-1.1-1.2-2.7-1.8-4.8-1.8c-2.1,0-3.7,0.6-4.8,1.8c-1.1,1.2-1.7,2.8-1.7,5v14
	C670.2,598.1,670.7,599.8,671.9,601 M658.8,602.4v-8.3l1.3-2.5l4.1,10.7h4.3l-5.9-15l5.9-12h-4.2l-5.6,11.8v-11.8h-4.2v27H658.8z
	 M637.1,582.1c0-1,0.2-1.7,0.5-2.1c0.3-0.4,0.9-0.7,1.6-0.7h2v8.3h-1.7c-0.8,0-1.5-0.2-1.9-0.6c-0.4-0.4-0.6-1.2-0.6-2.2V582.1z
	 M636.7,602.4c0.1-0.3,0.2-0.5,0.2-0.7c0-0.2,0.1-0.5,0.1-0.9c0-0.4,0.1-1,0.1-1.7v-4.2c0-1.2,0.2-2.1,0.7-2.7
	c0.4-0.5,1.1-0.8,2.1-0.8h1.5v11h4.2v-27h-6.4c-2.2,0-3.8,0.5-4.8,1.5c-1,1-1.5,2.6-1.5,4.7v2.1c0,2.8,0.9,4.6,2.8,5.5
	c-1,0.4-1.7,1.1-2.2,2.1c-0.4,1-0.6,2.2-0.6,3.7v4.2c0,1.5-0.1,2.5-0.4,3.3H636.7z M623.9,580.3l2.1,13.6h-4.1L623.9,580.3z
	 M620.6,602.4l0.7-4.9h5.2l0.7,4.9h4.2l-4.3-27h-6.5l-4.3,27H620.6z M599.7,602.5c2.1,0,3.7-0.5,4.6-1.6c1-1.1,1.5-2.8,1.6-5.3
	l0.5-16.3h3.7v23.1h4.2v-27h-12.1l-0.5,20.4c0,0.6-0.1,1.1-0.2,1.5c-0.1,0.4-0.2,0.6-0.5,0.8c-0.2,0.2-0.5,0.3-0.8,0.4
	c-0.3,0.1-0.7,0.1-1.2,0.1v3.9H599.7z M588.1,602.4l3.6-12.4l1.7-6.6v19h4.2v-27h-5.1l-3.5,11.1l-1.5,5.9v-17.1h-3.8v27H588.1z
	 M563.5,602.4l3.9-12l1,2.1v9.9h4.2v-9.9l1.1-2l3.9,11.9h4.2l-5.2-16l5.2-11h-4.1l-5,10.9v-10.9h-4.2v10.9l-5-10.9h-4.1l5.3,11.1
	l-5.3,15.9H563.5z"/>
<path class="st1" d="M299.7,535.5c0-4,1.7-6,5-6c3.4,0,5.1,2,5.1,6v11.1c0,4-1.7,6.1-5.1,6.1c-3.3,0-5-2-5-6.1V535.5z M292.7,557.9
	c1.8,2.4,4.5,3.6,8,3.6c4.3,0,7.3-1.8,9-5.5v11.3c0,2.8-0.4,4.8-1.3,5.9c-0.9,1.1-2.2,1.7-4.1,1.7c-3.4,0-5-2-5-6.1v-2.2h-9.1v1.6
	c0,5,1.2,8.8,3.7,11.5c2.5,2.7,6,4,10.7,4c9.9,0,14.8-5.3,14.8-16v-31.6c0-4.9-1.3-8.7-3.8-11.4s-6.2-4-10.9-4
	c-4.7,0-8.4,1.4-10.9,4c-2.5,2.7-3.8,6.5-3.8,11.4v11.3C290,552,290.9,555.5,292.7,557.9 M284.3,574.1h-9.7v8.9h9.7V574.1z
	 M248.4,535.5c0-4,1.7-6,5-6c3.4,0,5.1,2,5.1,6v11.1c0,4-1.7,6.1-5.1,6.1c-3.3,0-5-2-5-6.1V535.5z M241.5,557.9
	c1.8,2.4,4.5,3.6,8,3.6c4.3,0,7.3-1.8,9-5.5v11.3c0,2.8-0.4,4.8-1.3,5.9c-0.9,1.1-2.2,1.7-4.1,1.7c-3.4,0-5-2-5-6.1v-2.2h-9.1v1.6
	c0,5,1.2,8.8,3.7,11.5c2.5,2.7,6,4,10.7,4c9.9,0,14.8-5.3,14.8-16v-31.6c0-4.9-1.3-8.7-3.8-11.4c-2.5-2.7-6.2-4-10.9-4
	c-4.7,0-8.4,1.4-10.9,4c-2.5,2.7-3.8,6.5-3.8,11.4v11.3C238.8,552,239.7,555.5,241.5,557.9 M208.3,579.7c2.6,2.7,6.3,4,11,4
	c4.7,0,8.3-1.3,10.8-4c2.4-2.7,3.7-6.5,3.7-11.5v-4.9c0-6.7-2.3-11-6.8-12.9c4.5-1.9,6.8-6.1,6.8-12.7v-1.6c0-5-1.2-8.8-3.7-11.5
	c-2.5-2.7-6-4-10.8-4c-4.7,0-8.4,1.3-11,4c-2.6,2.7-3.9,6.5-3.9,11.5v3.4h9.7v-4c0-4,1.7-6.1,5-6.1c1.7,0,2.9,0.5,3.7,1.5
	c0.8,1,1.3,2.9,1.3,5.5v3.4c0,2.4-0.5,4-1.5,5c-1,1-2.4,1.5-4.3,1.5h-3.8v8.8h3.3c2.2,0,3.8,0.6,4.8,1.8c1,1.2,1.5,3.2,1.5,6v4.9
	c0,2.6-0.4,4.4-1.3,5.4c-0.8,1-2.1,1.5-3.7,1.5c-3.3,0-5-2-5-6.1v-5.7h-9.7v5.1C204.4,573.2,205.7,577,208.3,579.7"/>
<ellipse transform="matrix(0.3827 -0.9239 0.9239 0.3827 -253.5128 519.3086)" class="st2" cx="261.8" cy="449.4" rx="54" ry="54"/>
<path class="st1" d="M264.2,471.8c1.9,2,4.6,3,8.2,3c3.6,0,6.4-1,8.3-3c2-2,3-4.9,3-8.7v-6.2h-7.3v6.7c0,3-1.3,4.6-3.8,4.6
	c-2.5,0-3.8-1.5-3.8-4.6v-25.2c0-3.1,1.3-4.6,3.8-4.6c2.5,0,3.8,1.5,3.8,4.6v5h7.3v-4.6c0-3.8-1-6.6-3-8.7c-2-2-4.8-3-8.3-3
	c-3.6,0-6.3,1-8.2,3c-1.9,2-2.8,4.9-2.8,8.7v24.3C261.4,466.9,262.3,469.8,264.2,471.8 M256.8,474.4v-6.7H243c0-0.2-0.1-0.6-0.1-1
	c0-1,0.3-2.1,0.8-3.2c0.5-1.1,1.2-2.1,2.1-3.2c0.9-1,1.8-2.1,2.8-3.2c1-1.1,2.1-2.3,3.1-3.6c1-1.3,2-2.6,2.8-4.1
	c0.9-1.4,1.6-3,2.1-4.9c0.5-1.8,0.8-3.7,0.8-5.7c0-3.8-0.9-6.6-2.8-8.7c-1.9-2-4.6-3-8.1-3c-3.6,0-6.3,1-8.2,3
	c-1.9,2-2.8,4.9-2.8,8.7v4.6h7v-5c0-3.1,1.3-4.6,3.8-4.6c1.3,0,2.2,0.4,2.8,1.2c0.6,0.8,0.9,2.2,0.9,4.2c0,1.8-0.3,3.5-0.8,5.1
	c-0.5,1.6-1.2,3-2.1,4.2c-0.9,1.2-1.8,2.4-2.8,3.6c-1,1.2-2.1,2.3-3.1,3.5c-1,1.2-2,2.4-2.8,3.6c-0.9,1.2-1.6,2.7-2.1,4.3
	c-0.5,1.6-0.8,3.4-0.8,5.2v5.7H256.8z"/>
<path class="st1" d="M725.2,474c0-1.4,0.6-2.1,1.8-2.1c1.2,0,1.8,0.7,1.8,2.1v11.7c0,1.4-0.6,2.1-1.8,2.1c-1.2,0-1.8-0.7-1.8-2.1
	V474z M723.2,489.4c0.9,0.9,2.2,1.4,3.8,1.4c1.7,0,2.9-0.5,3.8-1.4c0.9-0.9,1.3-2.3,1.3-4v-11.2c0-1.7-0.4-3.1-1.3-4
	c-0.9-0.9-2.2-1.4-3.8-1.4c-1.7,0-2.9,0.5-3.8,1.4c-0.9,0.9-1.3,2.3-1.3,4v11.2C721.9,487.1,722.3,488.5,723.2,489.4 M719.8,487.5
	h-3.4v3.1h3.4V487.5z M709.9,475.5v8.1h-3.4L709.9,475.5z M709.9,486.7v3.9h3.4v-3.9h1.6v-3.1h-1.6V469h-3.7l-6.2,14.6v3.1H709.9z"
	/>
<path class="st1" d="M776.8,435.9l1.6,10.9h-3.3L776.8,435.9z M774.1,453.6l0.6-3.9h4.2l0.6,3.9h3.4l-3.4-21.6h-5.2l-3.4,21.6H774.1
	z M769.2,453.6V432h-3.4v18.5h-2.9V432h-3.4v18.5h-2.9V432h-3.4v21.6H769.2z M743.4,453.6l2.9-9.9l1.4-5.3v15.2h3.4V432H747
	l-2.8,8.9l-1.2,4.8V432h-3v21.6H743.4z M730.2,453.6v-9.2h3.9v9.2h3.4V432h-3.4v9.3h-3.9V432h-3.4v21.6H730.2z M724.5,441.3h-6.2
	v3.1h6.2V441.3z M709.3,437.3c0-0.8,0.1-1.3,0.4-1.7c0.3-0.4,0.7-0.5,1.3-0.5h1.6v6.6h-1.3c-0.7,0-1.2-0.2-1.5-0.5
	c-0.3-0.3-0.5-0.9-0.5-1.8V437.3z M708.9,453.6c0.1-0.3,0.1-0.4,0.2-0.6c0-0.1,0.1-0.4,0.1-0.7c0-0.4,0.1-0.8,0.1-1.4v-3.4
	c0-1,0.2-1.7,0.5-2.1c0.3-0.4,0.9-0.6,1.7-0.6h1.2v8.8h3.4V432h-5.1c-1.7,0-3,0.4-3.8,1.2c-0.8,0.8-1.2,2.1-1.2,3.7v1.7
	c0,2.2,0.7,3.7,2.2,4.4c-0.8,0.3-1.4,0.9-1.7,1.7c-0.3,0.8-0.5,1.7-0.5,2.9v3.3c0,1.2-0.1,2-0.3,2.6H708.9z M696.4,453.6v-9.2h3.9
	v9.2h3.4V432h-3.4v9.3h-3.9V432H693v21.6H696.4z M682.3,453.6l2.6-8l2.6,8h3.4l-3.8-11l3.5-10.6h-3l-2.6,8l-2.6-8h-3.4l3.6,10.5
	l-3.8,11.1H682.3z M670.9,448.6l0,0.2c-0.1,0.7-0.4,1.2-0.9,1.5c-0.5,0.2-1.2,0.3-2.1,0.3v3.1c0.9,0.1,1.7,0,2.4-0.1
	c0.7-0.1,1.3-0.3,1.7-0.6c0.5-0.3,0.9-0.7,1.2-1.1c0.3-0.5,0.6-1,0.8-1.6c0.2-0.6,0.4-1.3,0.6-2.1l3.6-16.1h-3.4l-1.6,7.4l-0.8,5
	l-1-5l-1.8-7.4h-3.4L670.9,448.6z M657.8,453.6V447l1.1-2l3.3,8.6h3.5l-4.7-12l4.7-9.6h-3.4l-4.4,9.4V432h-3.4v21.6H657.8z"/>
<path class="st1" d="M765.9,276.8c0.9,0.9,2.2,1.4,3.8,1.4c1.7,0,2.9-0.5,3.8-1.4c0.9-0.9,1.3-2.3,1.3-4v-1.7c0-2.3-0.8-3.8-2.4-4.5
	c1.6-0.7,2.4-2.1,2.4-4.4v-0.6c0-1.7-0.4-3.1-1.3-4c-0.9-0.9-2.1-1.4-3.8-1.4c-1.7,0-2.9,0.5-3.8,1.4c-0.9,0.9-1.4,2.3-1.4,4v1.2
	h3.4v-1.4c0-1.4,0.6-2.1,1.7-2.1c0.6,0,1,0.2,1.3,0.5c0.3,0.4,0.4,1,0.4,1.9v1.2c0,0.8-0.2,1.4-0.5,1.8c-0.3,0.3-0.8,0.5-1.5,0.5
	h-1.3v3.1h1.1c0.8,0,1.3,0.2,1.7,0.6c0.3,0.4,0.5,1.1,0.5,2.1v1.7c0,0.9-0.1,1.5-0.4,1.9c-0.3,0.4-0.7,0.5-1.3,0.5
	c-1.2,0-1.7-0.7-1.7-2.1v-2h-3.4v1.8C764.6,274.6,765,275.9,765.9,276.8 M762.4,274.9H759v3.1h3.4V274.9z M752.5,262.9v8.1h-3.4
	L752.5,262.9z M752.5,274.1v3.9h3.4v-3.9h1.6V271h-1.6v-14.6h-3.7l-6.2,14.6v3.1H752.5z"/>
<path class="st1" d="M771.1,242.4l0,0.2c-0.1,0.7-0.4,1.2-0.9,1.5s-1.2,0.3-2.1,0.3v3.1c0.9,0.1,1.7,0,2.4-0.1
	c0.7-0.1,1.3-0.3,1.7-0.6c0.5-0.3,0.9-0.7,1.2-1.1c0.3-0.5,0.6-1,0.8-1.6c0.2-0.6,0.4-1.3,0.6-2.1l3.6-16.1H775l-1.5,7.4l-0.8,5
	l-1-5l-1.8-7.4h-3.4L771.1,242.4z M757.5,247.4l8.5-21.6h-2.9l-8.5,21.6H757.5z M744.8,246.3c0.9,0.9,2.1,1.4,3.8,1.4
	c1.7,0,2.9-0.5,3.9-1.4c0.9-0.9,1.4-2.3,1.4-4v-2.9h-3.4v3.1c0,1.4-0.6,2.1-1.8,2.1c-1.2,0-1.8-0.7-1.8-2.1v-11.7
	c0-1.4,0.6-2.1,1.8-2.1c1.2,0,1.8,0.7,1.8,2.1v2.3h3.4V231c0-1.7-0.5-3.1-1.4-4c-0.9-0.9-2.2-1.4-3.9-1.4c-1.7,0-2.9,0.5-3.8,1.4
	c-0.9,0.9-1.3,2.3-1.3,4v11.2C743.5,244,743.9,245.3,744.8,246.3"/>
</svg>
