<svg xmlns="http://www.w3.org/2000/svg" xmlns:xlink="http://www.w3.org/1999/xlink" xml:space="preserve" id="Слой_1" x="0" y="0" style="enable-background:new 0 0 217 369" version="1.1" viewBox="0 0 217 369"><style>.st0{fill:#dfeab4}.st1{fill:none;stroke:#39373a;stroke-width:.6}.st8{fill:#39373a}.st9{fill:none;stroke:#39373a;stroke-width:.212}.st14,.st15,.st19{clip-path:url(#SVGID_18_);fill:#39373a}.st15,.st19{fill:none;stroke:#39373a;stroke-width:.206}.st19{clip-path:url(#SVGID_24_);stroke-width:.525}.st21{fill:#39373a}.st21,.st22{clip-path:url(#SVGID_26_)}.st22,.st23{fill:none;stroke:#39373a;stroke-width:.25}.st24,.st25{clip-path:url(#SVGID_28_);fill:#39373a}.st25{fill:none;stroke:#39373a;stroke-width:.25}</style><switch><g><path d="M27.23 158.53h168.09V343.4H27.23z" class="st0"/><path d="M27.23 55.76h84.59v184.87H27.23z" class="st0"/><path d="M37.17 48.09h41.99v2.74H37.17zm0 2.87h41.99v4.49H37.17zm44.102 9.692 18.804-11.187.476.8-18.804 11.187z" class="st1"/><defs><path id="SVGID_1_" d="M16.46 13.02H201.1v342.85H16.46z"/></defs><clipPath id="SVGID_2_"><use xlink:href="#SVGID_1_" style="overflow:visible"/></clipPath><path d="M81.17 60.53s-1.11-1.5-1.64-4.99c-.54-3.49-.37-5.36-.37-5.36" style="clip-path:url(#SVGID_2_);fill:none;stroke:#39373a;stroke-width:.4"/><path d="m90.092 129.039.476-.8 18.804 11.188-.476.799z" class="st1"/><defs><path id="SVGID_3_" d="M16.46 13.02H201.1v342.85H16.46z"/></defs><clipPath id="SVGID_4_"><use xlink:href="#SVGID_3_" style="overflow:visible"/></clipPath><path d="M89.99 129.16s-1.11 1.5-1.64 4.99c-.54 3.49-.37 5.36-.37 5.36" style="clip-path:url(#SVGID_4_);fill:none;stroke:#39373a;stroke-width:.4"/><path d="m80.596 154.685.8-.475 8.645 14.532-.799.476zm.013 54.069 8.646-14.532.799.475-8.646 14.533z" class="st1"/><defs><path id="SVGID_5_" d="M16.46 13.02H201.1v342.85H16.46z"/></defs><clipPath id="SVGID_6_"><use xlink:href="#SVGID_5_" style="overflow:visible"/></clipPath><path d="M89.14 169.32s-1.5 1.11-4.99 1.64c-3.49.54-5.36.37-5.36.37m10.35 22.79s-1.5-1.11-4.99-1.64c-3.49-.54-5.36-.37-5.36-.37" style="clip-path:url(#SVGID_6_);stroke-width:.4;fill:none;stroke:#39373a"/><path d="m90.387 221.222 18.803-11.188.476.8-18.804 11.187z" class="st1"/><defs><path id="SVGID_7_" d="M16.46 13.02H201.1v342.85H16.46z"/></defs><clipPath id="SVGID_8_"><use xlink:href="#SVGID_7_" style="overflow:visible"/></clipPath><path d="M90.28 221.1s-1.11-1.5-1.64-4.99c-.54-3.49-.37-5.36-.37-5.36" style="clip-path:url(#SVGID_8_);fill:none;stroke:#39373a;stroke-width:.4"/><path d="m126.082 210.813.476-.8 18.804 11.188-.476.799z" class="st1"/><defs><path id="SVGID_9_" d="M16.46 13.02H201.1v342.85H16.46z"/></defs><clipPath id="SVGID_10_"><use xlink:href="#SVGID_9_" style="overflow:visible"/></clipPath><path d="M145.46 221.1s1.11-1.5 1.64-4.99c.54-3.49.37-5.36.37-5.36" style="clip-path:url(#SVGID_10_);fill:none;stroke:#39373a;stroke-width:.4"/><path d="m184.904 186.96.8-.476 13.431 22.576-.799.476z" class="st1"/><defs><path id="SVGID_11_" d="M16.46 13.02H201.1v342.85H16.46z"/></defs><clipPath id="SVGID_12_"><use xlink:href="#SVGID_11_" style="overflow:visible"/></clipPath><path d="M185.83 186.37s1.5-1.11 4.99-1.64c3.49-.54 5.36-.37 5.36-.37" style="clip-path:url(#SVGID_12_);fill:none;stroke:#39373a;stroke-width:.4"/><path d="M62.46 213.52h-13.8v13.81h13.81v-13.81zm-14.11-.31h14.42v14.42H48.35v-14.42z" class="st8"/><path d="M62.46 213.52h-13.8v13.81h13.81v-13.81zm-14.11-.31h14.42v14.42H48.35v-14.42z" class="st9"/><defs><path id="SVGID_13_" d="M16.46 13.02H201.1v342.85H16.46z"/></defs><clipPath id="SVGID_14_"><use xlink:href="#SVGID_13_" style="overflow:visible"/></clipPath><path d="M60.4 226.07c.34 0 .62-.28.62-.62v-7.26c0-.34-.28-.62-.62-.62h-9.67c-.34 0-.62.28-.62.62v7.26c0 .34.28.62.62.62h9.67zm-9.68-8.8h9.67c.51 0 .92.42.92.93v7.26c0 .51-.41.92-.92.92h-9.67c-.51 0-.92-.41-.92-.92v-7.26c0-.52.42-.93.92-.93" style="clip-path:url(#SVGID_14_);fill:#39373a"/><path d="M60.4 226.07c.34 0 .62-.28.62-.62v-7.26c0-.34-.28-.62-.62-.62h-9.67c-.34 0-.62.28-.62.62v7.26c0 .34.28.62.62.62h9.67zm-9.68-8.8h9.67c.51 0 .92.42.92.93v7.26c0 .51-.41.92-.92.92h-9.67c-.51 0-.92-.41-.92-.92v-7.26c0-.52.42-.93.92-.93z" style="clip-path:url(#SVGID_14_);fill:none;stroke:#39373a;stroke-width:.212"/><path d="M59.94 218.65h-8.76V225h8.76v-6.35zm-9.07-.31h9.37v6.96h-9.37v-6.96z" class="st8"/><path d="M59.94 218.65h-8.76V225h8.76v-6.35zm-9.07-.31h9.37v6.96h-9.37v-6.96z" class="st9"/><defs><path id="SVGID_15_" d="M16.46 13.02H201.1v342.85H16.46z"/></defs><clipPath id="SVGID_16_"><use xlink:href="#SVGID_15_" style="overflow:visible"/></clipPath><path d="M55.56 223.05c.44 0 .8-.36.8-.8 0-.44-.36-.8-.8-.8-.44 0-.8.36-.8.8 0 .44.36.8.8.8m0-1.9c.61 0 1.11.5 1.11 1.11s-.5 1.11-1.11 1.11c-.61 0-1.11-.5-1.11-1.11s.5-1.11 1.11-1.11" style="clip-path:url(#SVGID_16_);fill:#39373a"/><path d="M55.56 223.05c.44 0 .8-.36.8-.8 0-.44-.36-.8-.8-.8-.44 0-.8.36-.8.8 0 .44.36.8.8.8zm0-1.9c.61 0 1.11.5 1.11 1.11s-.5 1.11-1.11 1.11c-.61 0-1.11-.5-1.11-1.11s.5-1.11 1.11-1.11z" style="clip-path:url(#SVGID_16_);fill:none;stroke:#39373a;stroke-width:.212"/><path d="M28.52 212.46h7.97v21.78h-7.97z" class="st1"/><path d="M29.55 229.25h5.92V232h-5.92z" class="st1"/><defs><path id="SVGID_17_" d="M16.46 13.02H201.1v342.85H16.46z"/></defs><clipPath id="SVGID_18_"><use xlink:href="#SVGID_17_" style="overflow:visible"/></clipPath><path d="M55.03 173.95c2.47 0 4.47 2.01 4.47 4.47v4.75c0 .37-.31.68-.68.68H48.71c-.38 0-.68-.3-.68-.68v-4.75c0-2.47 2.01-4.47 4.47-4.47h2.53zm-6.32 10.15h10.11c.51 0 .93-.42.93-.93v-4.75a4.73 4.73 0 0 0-4.72-4.73H52.5c-2.61 0-4.73 2.12-4.73 4.73v4.75c0 .51.42.93.94.93" class="st14"/><path d="M55.03 173.95c2.47 0 4.47 2.01 4.47 4.47v4.75c0 .37-.31.68-.68.68H48.71c-.38 0-.68-.3-.68-.68v-4.75c0-2.47 2.01-4.47 4.47-4.47h2.53zm-6.32 10.15h10.11c.51 0 .93-.42.93-.93v-4.75a4.73 4.73 0 0 0-4.72-4.73H52.5c-2.61 0-4.73 2.12-4.73 4.73v4.75c0 .51.42.93.94.93z" class="st15"/><path d="M55.02 175.07c1.85 0 3.35 1.5 3.35 3.35v2.77c0 .32-.26.58-.58.58h-8.06c-.32 0-.59-.26-.59-.58v-2.77c0-1.85 1.5-3.35 3.35-3.35h2.53zm-5.29 6.96h8.06c.46 0 .84-.38.84-.84v-2.77c0-1.99-1.62-3.61-3.6-3.61H52.5c-1.99 0-3.6 1.62-3.6 3.61v2.77c0 .46.37.84.83.84" class="st14"/><path d="M55.02 175.07c1.85 0 3.35 1.5 3.35 3.35v2.77c0 .32-.26.58-.58.58h-8.06c-.32 0-.59-.26-.59-.58v-2.77c0-1.85 1.5-3.35 3.35-3.35h2.53zm-5.29 6.96h8.06c.46 0 .84-.38.84-.84v-2.77c0-1.99-1.62-3.61-3.6-3.61H52.5c-1.99 0-3.6 1.62-3.6 3.61v2.77c0 .46.37.84.83.84z" class="st15"/><path d="M53.76 177.42c.31 0 .55.25.55.55 0 .31-.25.55-.55.55-.31 0-.56-.25-.56-.55.01-.3.26-.55.56-.55m0 1.36c.44 0 .81-.36.81-.81 0-.44-.36-.81-.81-.81-.45 0-.81.36-.81.81 0 .45.37.81.81.81" class="st14"/><path d="M53.76 177.42c.31 0 .55.25.55.55 0 .31-.25.55-.55.55-.31 0-.56-.25-.56-.55.01-.3.26-.55.56-.55zm0 1.36c.44 0 .81-.36.81-.81 0-.44-.36-.81-.81-.81-.45 0-.81.36-.81.81 0 .45.37.81.81.81z" class="st15"/><path d="M126.34 347.65h60.04v2.26h-60.04z" class="st1"/><defs><path id="SVGID_19_" d="M16.46 13.02H201.1v342.85H16.46z"/></defs><clipPath id="SVGID_20_"><use xlink:href="#SVGID_19_" style="overflow:visible"/></clipPath><path d="M126.34 343.7h60.04v11.87h-60.04z" style="clip-path:url(#SVGID_20_);fill:none;stroke:#39373a;stroke-width:.6"/><path d="M35.86 347.65H95.9v2.26H35.86z" class="st1"/><defs><path id="SVGID_21_" d="M16.46 13.02H201.1v342.85H16.46z"/></defs><clipPath id="SVGID_22_"><use xlink:href="#SVGID_21_" style="overflow:visible"/></clipPath><path d="M35.86 343.7H95.9v11.87H35.86z" style="clip-path:url(#SVGID_22_);fill:none;stroke:#39373a;stroke-width:.6"/><path d="M24.84 20.3h85.98v1.76H24.84z" class="st1"/><defs><path id="SVGID_23_" d="M16.46 13.02H201.1v342.85H16.46z"/></defs><clipPath id="SVGID_24_"><use xlink:href="#SVGID_23_" style="overflow:visible"/></clipPath><path d="M24.84 14.06h85.22v11.87H24.84z" style="clip-path:url(#SVGID_24_);fill:none;stroke:#39373a;stroke-width:.6"/><path d="M34.15 143.87s-4.96 0-4.96 4.96v29.63s0 4.96 4.96 4.96h6.65s4.96 0 4.96-4.96v-29.63s0-4.96-4.96-4.96h-6.65z" class="st19"/><path d="M35.7 146.62s-4.96 0-4.96 4.96v24.13s0 4.96 4.96 4.96h3.55s4.96 0 4.96-4.96v-24.13s0-4.96-4.96-4.96H35.7z" class="st19"/><path d="M34.71 149.94s-2.48 0-2.48 2.48v24.25s0 2.48 2.48 2.48h5.53s2.48 0 2.48-2.48v-24.25s0-2.48-2.48-2.48h-5.53z" class="st19"/><path d="M37.48 176.2c.41 0 .74-.33.74-.74s-.33-.74-.74-.74-.74.33-.74.74.33.74.74.74z" class="st19"/><path d="M46.7 142.42v42.67" style="fill:none;stroke:#39373a;stroke-width:.525"/><path d="M47.97 143.15h14.46v14.36H47.97z" class="st1"/><defs><path id="SVGID_25_" d="M16.46 13.02H201.1v342.85H16.46z"/></defs><clipPath id="SVGID_26_"><use xlink:href="#SVGID_25_" style="overflow:visible"/></clipPath><path d="M48.08 196.34c0 2.82-2.29 5.11-5.12 5.11h-7.41c-.49 0-.88-.39-.88-.88v-8.47c0-.49.4-.88.88-.88h7.41c2.83.01 5.12 2.3 5.12 5.12m-13.76-4.23v8.47c0 .68.55 1.23 1.23 1.23h7.41c3.01 0 5.47-2.45 5.47-5.47 0-3.01-2.45-5.47-5.47-5.47h-7.41c-.67.01-1.23.56-1.23 1.24" class="st21"/><path d="M48.08 196.34c0 2.82-2.29 5.11-5.12 5.11h-7.41c-.49 0-.88-.39-.88-.88v-8.47c0-.49.4-.88.88-.88h7.41c2.83.01 5.12 2.3 5.12 5.12zm-13.76-4.23v8.47c0 .68.55 1.23 1.23 1.23h7.41c3.01 0 5.47-2.45 5.47-5.47 0-3.01-2.45-5.47-5.47-5.47h-7.41c-.67.01-1.23.56-1.23 1.24z" class="st22"/><path d="M37.15 200.01v-7.33c0-.05.04-.09.09-.09h5.58c2.06 0 3.76 1.69 3.76 3.76 0 2.06-1.69 3.76-3.76 3.76h-5.58c-.05-.01-.09-.05-.09-.1z" class="st22"/><path d="M37.32 199.92v-7.16h5.5a3.59 3.59 0 0 1 3.58 3.58 3.59 3.59 0 0 1-3.58 3.58h-5.5zm-.35-7.24v7.33c0 .14.12.26.26.26h5.58a3.93 3.93 0 0 0 0-7.86h-5.58c-.14 0-.26.12-.26.27" class="st21"/><path d="M37.32 199.92v-7.16h5.5a3.59 3.59 0 0 1 3.58 3.58 3.59 3.59 0 0 1-3.58 3.58h-5.5zm-.35-7.24v7.33c0 .14.12.26.26.26h5.58a3.93 3.93 0 0 0 0-7.86h-5.58c-.14 0-.26.12-.26.27z" class="st22"/><path d="M42.83 196.34a.97.97 0 0 1-1.94 0 .97.97 0 0 1 1.94 0m-2.29 0c0 .73.59 1.32 1.32 1.32s1.32-.59 1.32-1.32c0-.73-.59-1.32-1.32-1.32s-1.32.6-1.32 1.32" class="st21"/><path d="M42.83 196.34a.97.97 0 0 1-1.94 0 .97.97 0 0 1 1.94 0zm-2.29 0c0 .73.59 1.32 1.32 1.32s1.32-.59 1.32-1.32c0-.73-.59-1.32-1.32-1.32s-1.32.6-1.32 1.32z" class="st22"/><path d="m37.854 199.204 2.347-1.754.21.28-2.347 1.754z" class="st8"/><path d="m37.854 199.204 2.347-1.754.21.28-2.347 1.754z" class="st23"/><path d="m37.86 193.54 2.34 1.76.22-.28-2.35-1.76z" class="st8"/><path d="m37.86 193.54 2.34 1.76.22-.28-2.35-1.76z" class="st23"/><defs><path id="SVGID_27_" d="M16.46 13.02H201.1v342.85H16.46z"/></defs><clipPath id="SVGID_28_"><use xlink:href="#SVGID_27_" style="overflow:visible"/></clipPath><path d="M34.31 199.87c0 .78-.64 1.42-1.42 1.42h-1.93c-.78 0-1.42-.64-1.42-1.42v-7.06c0-.78.64-1.42 1.42-1.42h1.93c.78 0 1.42.64 1.42 1.42v7.06zm-5.12-7.06v7.06c0 .97.79 1.77 1.77 1.77h1.93c.98 0 1.77-.79 1.77-1.77v-7.06c0-.97-.79-1.77-1.77-1.77h-1.93c-.97 0-1.77.8-1.77 1.77" class="st24"/><path d="M34.31 199.87c0 .78-.64 1.42-1.42 1.42h-1.93c-.78 0-1.42-.64-1.42-1.42v-7.06c0-.78.64-1.42 1.42-1.42h1.93c.78 0 1.42.64 1.42 1.42v7.06zm-5.12-7.06v7.06c0 .97.79 1.77 1.77 1.77h1.93c.98 0 1.77-.79 1.77-1.77v-7.06c0-.97-.79-1.77-1.77-1.77h-1.93c-.97 0-1.77.8-1.77 1.77z" class="st25"/><path d="M32.47 196.34c0 .3-.25.55-.55.55-.3 0-.55-.25-.55-.55 0-.3.25-.55.55-.55.31.01.55.25.55.55m-1.44 0c0 .5.4.9.9.9s.9-.4.9-.9-.4-.9-.9-.9-.9.41-.9.9" class="st24"/><path d="M32.47 196.34c0 .3-.25.55-.55.55-.3 0-.55-.25-.55-.55 0-.3.25-.55.55-.55.31.01.55.25.55.55zm-1.44 0c0 .5.4.9.9.9s.9-.4.9-.9-.4-.9-.9-.9-.9.41-.9.9z" class="st25"/><path d="M168.79 274.32c-.02-1.76.15-2.44 1.69-2.44 1.67 0 1.84.58 1.86 3.83-.71.41-1.18.56-1.86.56-1.37 0-1.71-.43-1.69-1.95m-3.17 9.53c1.71.43 3.3.43 4.11.43 4.71 0 6.44-1.11 6.44-7.79 0-5.97-.99-7.49-5.65-7.49-4.3 0-5.53 1.63-5.5 5.42 0 2.7.94 4.58 4.24 4.58 1.33 0 2.23-.21 3.04-.88-.11 2.53-.62 3.26-2.57 3.26-1.9 0-2.61 0-3.92-.02l-.19 2.49zm-4.49-3.47c-1.03 0-1.35.32-1.35 1.35v.94c0 1.03.32 1.35 1.35 1.35h.92c1.03 0 1.35-.32 1.35-1.35v-.94c0-1.03-.32-1.35-1.35-1.35h-.92zm-2.77-2.14h-1.76v-6.1h-3.02l-.64 2.31v3.79h-2.89c-.34 0-.56-.22-.39-.62l3.23-8.37h-3.75l-3.68 9.38c-.47 1.16.32 2.29 1.56 2.29h5.91v3.1h3.66v-3.1h.04l1.71-.39v-2.29zm-19.54 3.12c-1.71 0-1.88-.54-1.91-3.81.71-.41 1.18-.56 1.88-.56 1.41 0 1.73.36 1.73 1.95.01 1.76-.08 2.42-1.7 2.42m4.49-11.95c-1.52-.43-3.04-.43-3.81-.43-4.28 0-6.44 1.05-6.44 7.79 0 5.99 1.33 7.49 5.74 7.49 4.52 0 5.5-1.74 5.5-5.42 0-3.25-.96-4.58-4.32-4.58-1.31 0-2.21.21-3.02.86.11-2.76.64-3.26 2.55-3.26 1.71 0 2.42 0 3.64.02l.16-2.47z" class="st24"/><circle cx="154.97" cy="252.59" r="13.12" style="clip-path:url(#SVGID_28_);fill:none;stroke:#39373a;stroke-width:.9"/><path d="M163.84 255.74c-1.04.11-1.96.13-3.54.13-1.33 0-1.7-.68-1.7-3.19s.37-3.19 1.7-3.19c1.49 0 2.21.02 3.31.05l.23-2.24c-1.07-.29-1.87-.4-3.54-.4-3.58 0-4.9 1.52-4.9 5.79s1.31 5.79 4.9 5.79c1.69 0 2.69-.13 3.78-.5l-.24-2.24zm-17.46-6.47c.83-.02 1.96-.03 3.11-.03 1.13 0 1.46.15 1.46 1.05.02.76-.1 1.22-1.31 1.22h-2.14v1.95l2.14-.02c1.2-.02 1.46.36 1.46 1.31 0 1.14-.42 1.35-1.85 1.35-.97 0-1.69-.02-3.1-.1l-.1 2.19c1.26.18 2.68.31 4.02.31 2.97 0 4.05-.97 4.02-3.34-.02-1.7-.5-2.56-2.07-2.8v-.06c1.44-.23 1.78-1.22 1.78-2.82 0-2-1.04-2.61-3.78-2.61-1.23 0-2.48.1-3.74.31l.1 2.09z" class="st24"/><path d="M16.46 47.79h22.35v7.97H16.46z" class="st8"/><path d="M16.46 17.34h11.76v338.53H16.46zm82.21 30.45H114v7.96H98.67zm7.62-34.77h7.72v7.51h-7.72z" class="st8"/><path d="M16.46 13.02h13.91v7.29H16.46zm178.86 139.75h5.77v31.75h-5.77zm0 54.56h5.77v148.54h-5.77z" class="st8"/><path d="M147.28 207.33h52.83v5.77h-52.83zm-37.7 0h18.14v5.77h-18.14zm-83.89 0h62.77v5.77H25.69zm52.7-36.18h3.54v21.16h-3.54zM21.28 184.2h45.07v3.54H21.28z" class="st8"/><path d="M35.73 184.2H80.8v1.77H35.73zm-14.31-47.12h66.81v5.77H21.42z" class="st8"/><path d="M78.39 137.08h3.54v18.57h-3.54zm29.84-118.53H114v159.69h-5.77zm0 180.28H114v157.04h-5.77z" class="st8"/><path d="M110.28 152.77h89.86v5.76h-89.86zM16.46 350.1h27.72v5.76H16.46zm75.12 0h39.68v5.76H91.58zm86.74 0h22.35v5.76h-22.35z" class="st8"/><path d="M16.46 343.4h25.69v9.16H16.46zm77.18 0h35.56v9.16H93.64zm86.74 0h20.72v6.71h-20.72z" class="st8"/><path d="M28.22 251.48h81.36" style="fill:none;stroke:#39373a;stroke-dasharray:3.874,3.874"/><defs><path id="SVGID_29_" d="M16.46 13.02H201.1v342.85H16.46z"/></defs><clipPath id="SVGID_30_"><use xlink:href="#SVGID_29_" style="overflow:visible"/></clipPath><path d="m76.1 104.97.07-1.44h-4.5l-.19 3.23c-.02.33.22.6.56.65l1.11.13c.97.08 1.32.22 1.29.9-.04.58-.25.81-1.2.81-.51 0-1.18-.03-1.86-.08l-.18 1.47c.92.13 1.83.21 2.55.21 2.04 0 2.61-1.05 2.61-2.34.01-1.16-.43-2.19-2.1-2.37l-1.19-.16.07-1h2.96zm-6.74 3.97c-.5 0-.65.16-.65.65v.46c0 .5.16.65.65.65h.45c.5 0 .66-.16.66-.65v-.46c0-.5-.16-.65-.66-.65h-.45zm-1.94 1.77v-7.18h-1.94l-1.82.71.23 1.24 1.67-.37c-.06.29-.07.57-.07.85v4.76h1.93zm-4.67 0v-7.18H60.8l-1.82.71.23 1.24 1.67-.37c-.06.29-.07.57-.07.85v4.76h1.94zm23.46-14.28c0-.24.12-.4.44-.41h1.08v.65c-.34.22-.71.35-1.01.35-.34 0-.51-.15-.51-.42v-.17zm-1.42-2.04c.86-.05 1.7-.07 2.22-.07.54 0 .71.16.72.59v.12h-1.72c-1.03 0-1.65.5-1.65 1.32v.52c0 .97.78 1.48 1.74 1.48.9 0 1.49-.46 1.84-.89l.18.76h1.51v-3.3c0-1.54-.77-2.02-2.16-2.02-.76 0-2.06.11-2.83.26l.15 1.23zm-.84.08v-1.43h-5.16v1.43h1.65v3.75h1.88v-3.75h1.63zm-9.24 1.96c0-.24.12-.4.44-.41h1.08v.65c-.34.22-.71.35-1.01.35-.34 0-.51-.15-.51-.42v-.17zm-1.42-2.04c.86-.05 1.7-.07 2.22-.07.54 0 .71.16.72.59v.12h-1.72c-1.03 0-1.65.5-1.65 1.32v.52c0 .97.78 1.48 1.74 1.48.9 0 1.49-.46 1.84-.89l.18.76h1.51v-3.3c0-1.54-.77-2.02-2.16-2.02-.76 0-2.06.11-2.83.26l.15 1.23zm-1.3-1.34h-1.85v1.82h-1.58v-1.82H66.7v5.17h1.86v-2.09h1.58v2.09h1.85v-5.17zm-8.75 0c-.4 0-.65.2-.71.58l-.45 1.93c-.05.26-.06.51-.1.77h-.08c-.03-.26-.04-.51-.1-.77l-.46-1.93c-.06-.38-.31-.58-.7-.58h-1.6c-.43 0-.65.22-.66.65l-.12 4.53h1.71l.1-3.8h.12l.62 2.51c.07.38.32.57.72.57h.85c.41 0 .64-.19.71-.57l.61-2.51h.12l.14 3.8h1.71l-.14-4.53c-.01-.43-.22-.65-.65-.65h-1.64zm-8.6 1.18c.64 0 .8.26.8 1.41 0 1.14-.17 1.39-.8 1.39-.65 0-.81-.25-.81-1.39s.16-1.41.81-1.41m0-1.33c-2.04 0-2.79.74-2.79 2.74 0 1.99.75 2.71 2.79 2.71 2.03 0 2.78-.72 2.78-2.71 0-2-.75-2.74-2.78-2.74m-5.19 2.61c1.21-.18 1.12-.28 1.79-2.46h-1.9c-.45 1.73-.48 1.87-1.22 1.87h-.23c.04-.22.07-.45.07-.66v-1.22h-1.88v5.17h1.88v-1.63c0-.12-.02-.27-.06-.42h.42c.55.01.59.15 1.14 2.05h1.97c-.72-2.45-.74-2.49-1.97-2.66v-.04zm33.38-12.62h-.74c-.49 0-.58-.12-.58-.65 0-.39.09-.48.58-.48h.74v1.13zm-2.03.65c-.31.03-.85.11-.99.56l-.41 1.63h1.94l.32-1.39c.04-.24.16-.3.48-.3h.69v1.69h1.83v-5.21c-.64-.07-1.2-.08-2.61-.08-1.9 0-2.37.36-2.37 1.66 0 .62.25 1.22 1.12 1.4v.04zm-5.51.4c0-.24.12-.4.44-.41h1.08v.65c-.34.22-.71.35-1.01.35-.34 0-.51-.15-.51-.42v-.17zm-1.41-2.04c.86-.05 1.7-.07 2.22-.07.54 0 .71.16.72.6v.12H75.1c-1.03 0-1.65.5-1.65 1.32v.52c0 .97.78 1.48 1.74 1.48.9 0 1.49-.46 1.84-.89l.18.76h1.51v-3.3c0-1.54-.77-2.02-2.16-2.02-.76 0-2.06.11-2.83.26l.15 1.22zm-1.3-1.34h-3.12c-.9 0-1.35.46-1.43 1.33-.07.95-.17 1.67-.27 2.03-.11.42-.42.41-.87.48l.19 1.39c1.13.19 2.17-.07 2.37-1.35.1-.5.22-1.38.31-2.18.03-.3.18-.44.49-.44h.45v3.91h1.88v-5.17zm-6.33 5.18v-5.18h-1.64l-1.65 2.48c-.16.24-.29.47-.4.76h-.04c.04-.3.07-.53.07-.8v-2.44h-1.68v5.17h1.64l1.61-2.36c.15-.23.32-.58.42-.86h.04c-.04.34-.07.61-.07.92v2.32h1.7zm-8.41-3.79c1.39-.19 1.43-.83 2.19-3.4h-1.98c-.64 2.15-.77 2.8-1.47 2.8h-.33c.05-.3.08-.6.08-.89v-1.9h-1.86v1.9c0 .29.03.59.09.89h-.36c-.69 0-.82-.64-1.46-2.8h-1.98c.76 2.57.79 3.22 2.19 3.4v.06c-1.45.21-1.54.77-2.38 3.72h2.04c.8-2.6.88-3.07 1.58-3.07h.36c-.05.23-.08.47-.08.67v2.4h1.86v-2.4c0-.2-.03-.44-.08-.67h.34c.73 0 .8.47 1.59 3.07h2.05c-.84-2.95-.94-3.51-2.39-3.72v-.06zM73.42 309.6c-.01-.85.07-1.19.82-1.19.81 0 .9.28.91 1.86-.34.2-.57.27-.91.27-.66.01-.83-.2-.82-.94m-1.54 4.63c.83.21 1.6.21 2 .21 2.29 0 3.13-.54 3.13-3.79 0-2.9-.48-3.64-2.75-3.64-2.09 0-2.69.79-2.67 2.63 0 1.31.46 2.23 2.06 2.23.65 0 1.08-.1 1.48-.43-.05 1.23-.3 1.58-1.25 1.58-.93 0-1.27 0-1.9-.01l-.1 1.22zm-2.18-1.68c-.5 0-.66.16-.66.65v.46c0 .5.16.65.66.65h.45c.5 0 .65-.16.65-.65v-.46c0-.5-.16-.65-.65-.65h-.45zm-6.71-3.85c.99-.05 1.51-.05 2.25-.05.55 0 .79.03.79.33.01.41-.47 1.05-1.28 1.88l-1.61 1.67c-.21.23-.27.47-.27.78v1.02h5.35v-1.68h-2.07c-.34 0-.68.01-1.01.09l1.77-1.74c.95-.99 1.12-1.46 1.12-2.24 0-1.4-1.01-1.74-2.54-1.74-.78 0-1.52.03-2.57.24l.07 1.44zm-1.37 5.62v-7.18h-1.95l-1.82.71.23 1.24 1.67-.37c-.06.29-.07.57-.07.85v4.76h1.94zm24.39-14.28c0-.24.12-.4.44-.41h1.08v.65c-.34.22-.71.35-1.01.35-.34 0-.51-.15-.51-.42v-.17zM84.6 298c.86-.05 1.7-.07 2.22-.07.54 0 .71.16.72.59v.12h-1.72c-1.03 0-1.65.5-1.65 1.32v.52c0 .97.78 1.48 1.74 1.48.9 0 1.49-.46 1.84-.89l.18.76h1.51v-3.3c0-1.54-.77-2.02-2.16-2.02-.76 0-2.06.11-2.83.26l.15 1.23zm-.85.08v-1.43h-5.16v1.43h1.64v3.75h1.88v-3.75h1.64zm-9.24 1.96c0-.24.12-.4.44-.41h1.08v.65c-.34.22-.71.35-1.01.35-.34 0-.51-.15-.51-.42v-.17zM73.1 298c.86-.05 1.7-.07 2.22-.07.54 0 .71.16.72.59v.12h-1.72c-1.03 0-1.65.5-1.65 1.32v.52c0 .97.78 1.48 1.74 1.48.9 0 1.49-.46 1.84-.89l.18.76h1.51v-3.3c0-1.54-.77-2.02-2.16-2.02-.76 0-2.06.11-2.83.26l.15 1.23zm-1.31-1.35h-1.85v1.82h-1.58v-1.82H66.5v5.17h1.86v-2.09h1.58v2.09h1.85v-5.17zm-8.74 0c-.4 0-.65.2-.71.58l-.45 1.93c-.05.26-.06.51-.1.77h-.09c-.03-.26-.04-.51-.1-.77l-.46-1.93c-.06-.38-.31-.58-.7-.58h-1.6c-.43 0-.65.22-.66.65l-.12 4.53h1.71l.1-3.8h.12l.62 2.51c.07.38.32.57.72.57h.85c.41 0 .64-.19.71-.57l.61-2.51h.12l.14 3.8h1.7l-.14-4.53c-.01-.43-.22-.65-.64-.65h-1.63zm-8.61 1.19c.64 0 .8.26.8 1.41 0 1.14-.17 1.39-.8 1.39-.65 0-.81-.25-.81-1.39 0-1.15.17-1.41.81-1.41m0-1.33c-2.04 0-2.79.74-2.79 2.74 0 1.99.75 2.71 2.79 2.71 2.03 0 2.78-.72 2.78-2.71 0-2-.75-2.74-2.78-2.74m-5.18 2.6c1.21-.18 1.12-.28 1.79-2.46h-1.9c-.45 1.73-.48 1.87-1.22 1.87h-.23c.04-.22.07-.45.07-.66v-1.22h-1.88v5.17h1.88v-1.63c0-.12-.02-.27-.06-.42h.42c.55.01.59.15 1.14 2.05h1.97c-.72-2.45-.74-2.49-1.97-2.66v-.04zm33.38-12.61h-.74c-.49 0-.58-.12-.58-.65 0-.39.09-.48.58-.48h.74v1.13zm-2.03.64c-.31.03-.85.11-.99.56l-.41 1.63h1.94l.32-1.39c.04-.24.16-.3.48-.3h.69v1.69h1.83v-5.21c-.64-.07-1.2-.08-2.61-.08-1.9 0-2.37.36-2.37 1.66 0 .62.25 1.22 1.12 1.4v.04zm-5.51.41c0-.24.12-.4.44-.41h1.08v.65c-.34.22-.71.35-1.01.35-.34 0-.51-.15-.51-.42v-.17zm-1.42-2.04c.86-.05 1.7-.07 2.22-.07.54 0 .71.16.72.6v.12H74.9c-1.03 0-1.65.5-1.65 1.32v.52c0 .97.78 1.48 1.74 1.48.9 0 1.49-.46 1.84-.89l.18.76h1.51v-3.3c0-1.54-.77-2.02-2.16-2.02-.76 0-2.06.11-2.83.26l.15 1.22zm-1.3-1.35h-3.12c-.9 0-1.35.46-1.43 1.33-.07.95-.17 1.67-.27 2.03-.11.42-.42.41-.87.48l.19 1.39c1.13.19 2.17-.07 2.37-1.35.1-.5.22-1.38.31-2.18.03-.3.18-.44.49-.44h.45v3.91h1.88v-5.17zm-6.33 5.19v-5.18h-1.64l-1.65 2.48c-.16.24-.29.47-.4.76h-.04c.04-.3.07-.53.07-.8v-2.43h-1.68v5.17h1.64l1.61-2.36c.15-.23.32-.58.42-.86h.04c-.04.34-.07.61-.07.92v2.32h1.7zm-8.41-3.79c1.39-.19 1.43-.83 2.19-3.4h-1.98c-.64 2.15-.77 2.8-1.47 2.8h-.33c.05-.3.08-.6.08-.89v-1.9h-1.86v1.9c0 .29.03.59.09.89H54c-.69 0-.82-.64-1.46-2.8h-1.98c.76 2.57.79 3.22 2.19 3.4v.06c-1.45.21-1.54.77-2.38 3.72h2.04c.8-2.6.88-3.07 1.58-3.07h.36c-.05.23-.08.47-.08.67v2.4h1.86v-2.4c0-.2-.03-.44-.08-.67h.34c.73 0 .8.47 1.59 3.07h2.05c-.84-2.95-.94-3.51-2.39-3.72v-.06zm106.38 31.32h-.77v-2.67h-1.32l-.28 1.01v1.66h-1.27c-.15 0-.24-.09-.17-.27l1.42-3.66h-1.64l-1.61 4.1c-.21.51.14 1 .68 1h2.59v1.36h1.6v-1.36h.02l.75-.17v-1zm-7.24.93c-.45 0-.59.14-.59.59v.41c0 .45.14.59.59.59h.4c.45 0 .59-.14.59-.59v-.41c0-.45-.14-.59-.59-.59h-.4zm-3.91-1.2c.71 0 .86.16.86.84 0 .65-.15.81-.87.81-.73 0-.9-.16-.9-.81 0-.66.16-.84.91-.84m-.01-2.61c.65 0 .8.14.8.78 0 .57-.12.71-.78.71s-.82-.13-.82-.71c-.01-.64.14-.78.8-.78m-1.4 2.07c-.93.08-1.15.86-1.15 1.72 0 1.25.52 1.75 2.54 1.74 2.05-.02 2.54-.49 2.54-1.74 0-.86-.21-1.64-1.14-1.72v-.04c.7-.08.98-.79.98-1.48 0-1.21-.41-1.73-2.38-1.73-1.95 0-2.37.52-2.37 1.73 0 .69.28 1.4.98 1.48v.04zm-2.32 3.33v-6.46h-1.75l-1.64.64.21 1.11 1.5-.34c-.06.26-.07.51-.07.77v4.28h1.75zm22.37-12.85c0-.21.11-.36.39-.36h.98v.58c-.31.2-.64.32-.91.32-.31 0-.46-.13-.46-.38v-.16zm-1.27-1.83c.78-.05 1.53-.07 1.99-.07.49 0 .64.14.65.54v.11h-1.55c-.93 0-1.49.45-1.49 1.19v.47c0 .87.7 1.33 1.56 1.33.81 0 1.34-.41 1.66-.8l.16.68h1.36v-2.97c0-1.39-.69-1.82-1.95-1.82-.68 0-1.85.1-2.55.23l.16 1.11zm-.76.07v-1.28h-4.65v1.28h1.48v3.37H168v-3.37h1.48zm-8.32 1.76c0-.21.11-.36.39-.36h.98v.58c-.31.2-.64.32-.91.32-.31 0-.46-.13-.46-.38v-.16zm-1.27-1.83c.78-.05 1.53-.07 1.99-.07.49 0 .64.14.65.54v.11h-1.55c-.93 0-1.49.45-1.49 1.19v.47c0 .87.7 1.33 1.56 1.33.81 0 1.34-.41 1.66-.8l.16.68h1.36v-2.97c0-1.39-.69-1.82-1.95-1.82-.68 0-1.86.1-2.55.23l.16 1.11zm-1.17-1.21h-1.67v1.64h-1.43v-1.64h-1.68v4.65h1.68v-1.88h1.43v1.88h1.67v-4.65zm-7.88 0c-.36 0-.58.18-.64.52l-.4 1.73c-.05.23-.06.46-.09.69h-.07c-.03-.24-.04-.46-.09-.69l-.41-1.73c-.06-.35-.28-.52-.63-.52h-1.44c-.38 0-.58.2-.59.58l-.11 4.07h1.53l.09-3.42h.11l.55 2.26c.07.35.29.52.65.52h.76c.37 0 .57-.17.64-.52l.55-2.26h.11l.12 3.42h1.53l-.12-4.07c-.01-.38-.2-.58-.58-.58h-1.47zm-7.74 1.06c.57 0 .72.24.72 1.27 0 1.02-.15 1.25-.72 1.25-.58 0-.73-.22-.73-1.25s.15-1.27.73-1.27m0-1.19c-1.84 0-2.51.66-2.51 2.46 0 1.79.67 2.44 2.51 2.44 1.83 0 2.5-.65 2.5-2.44 0-1.8-.67-2.46-2.5-2.46m-4.66 2.34c1.09-.16 1.01-.25 1.61-2.21h-1.71c-.4 1.56-.43 1.69-1.1 1.69h-.21c.04-.2.07-.4.07-.59v-1.1h-1.69v4.65h1.69v-1.47c0-.11-.02-.24-.06-.38h.38c.5.01.53.13 1.02 1.85h1.77c-.65-2.2-.67-2.24-1.77-2.4v-.04zm30.03-11.35h-.67c-.44 0-.52-.11-.52-.58 0-.35.08-.43.52-.43h.67v1.01zm-1.82.58c-.28.03-.77.1-.89.51l-.37 1.47h1.74l.29-1.25c.04-.21.14-.27.43-.27h.62v1.52h1.65v-4.69c-.58-.07-1.08-.08-2.35-.08-1.71 0-2.13.33-2.13 1.5 0 .56.22 1.1 1.01 1.26v.03zm-4.96.36c0-.22.11-.36.39-.37h.98v.58c-.31.2-.64.32-.91.32-.31 0-.46-.13-.46-.38v-.15zm-1.27-1.84c.78-.05 1.53-.07 1.99-.07.49 0 .64.14.65.54v.11h-1.55c-.93 0-1.49.45-1.49 1.19v.47c0 .87.7 1.33 1.56 1.33.81 0 1.34-.41 1.66-.8l.16.68h1.36v-2.97c0-1.39-.69-1.82-1.95-1.82-.68 0-1.85.1-2.55.23l.16 1.11zm-1.17-1.2h-2.81c-.81 0-1.22.41-1.28 1.2-.07.85-.15 1.5-.24 1.83-.1.38-.38.37-.79.43l.17 1.25c1.02.17 1.95-.06 2.14-1.22.09-.45.2-1.24.28-1.96.03-.27.16-.39.44-.39h.4v3.52h1.69v-4.66zm-5.7 4.66v-4.66h-1.48l-1.48 2.23c-.14.21-.26.42-.36.68h-.04c.04-.27.07-.48.07-.72v-2.19h-1.51v4.65h1.48l1.45-2.13c.13-.21.29-.52.38-.78h.04c-.04.31-.07.55-.07.82v2.09h1.52zm-7.57-3.41c1.25-.17 1.28-.75 1.97-3.06h-1.78c-.58 1.94-.69 2.52-1.32 2.52h-.3c.05-.27.08-.54.08-.8v-1.71h-1.68v1.71c0 .26.03.53.08.8h-.33c-.62 0-.74-.58-1.31-2.52h-1.78c.68 2.31.71 2.89 1.97 3.06v.06c-1.3.19-1.39.69-2.15 3.34h1.84c.72-2.34.8-2.76 1.42-2.76h.33c-.05.21-.07.42-.07.6v2.16h1.68v-2.16c0-.18-.03-.39-.08-.6h.31c.66 0 .72.42 1.43 2.76h1.85c-.76-2.65-.84-3.16-2.15-3.34v-.06zM72.3 39.19v-7.18h-1.95l-1.82.71.23 1.24 1.67-.37c-.06.29-.07.57-.07.85v4.76h1.94zm-4.92-1.77c-.5 0-.65.16-.65.65v.46c0 .5.16.65.65.65h.45c.5 0 .66-.16.66-.65v-.46c0-.5-.16-.65-.66-.65h-.45zm-6.48-4.01c.53-.01 1.26-.02 2-.02.73 0 .94.09.94.68.01.49-.06.78-.84.78h-1.37v1.25l1.37-.01c.77-.01.94.23.94.84 0 .73-.27.86-1.19.86-.62 0-1.08-.01-1.99-.06l-.06 1.4c.81.11 1.72.2 2.58.2 1.9 0 2.6-.62 2.58-2.14-.01-1.09-.32-1.64-1.33-1.8v-.04c.93-.15 1.14-.78 1.14-1.81 0-1.28-.67-1.67-2.42-1.67-.79 0-1.59.06-2.4.2l.05 1.34zm99.51 155.03c.8 0 1.02.34 1.02 2.25s-.22 2.25-1.02 2.25c-.77 0-.99-.34-.99-2.25 0-1.9.22-2.25.99-2.25m.01-1.48c-2.18 0-2.92.94-2.92 3.74 0 2.8.75 3.74 2.92 3.74 2.19 0 2.94-.94 2.94-3.74.01-2.81-.75-3.74-2.94-3.74m-4.89 5.56c-.5 0-.65.16-.65.65v.46c0 .5.16.66.65.66h.45c.5 0 .66-.16.66-.66v-.46c0-.5-.16-.65-.66-.65h-.45zm-6.05-5.42.08 1.57h3.12c-.17.25-.26.51-.35.76l-1.73 4.85h1.91l2.16-6.22c.18-.53-.17-.96-.73-.96h-4.46zm31.24-8.15h-.74c-.49 0-.58-.13-.58-.65 0-.38.09-.48.58-.48h.74v1.13zm-2.03.65c-.31.03-.85.11-.99.56l-.41 1.63h1.94l.32-1.39c.04-.24.16-.3.48-.3h.69v1.69h1.83v-5.21c-.65-.07-1.2-.08-2.61-.08-1.9 0-2.37.36-2.37 1.67 0 .62.25 1.22 1.12 1.39v.04zm-5.5.4c0-.24.12-.4.44-.41h1.08v.65c-.34.22-.71.35-1.01.35-.34 0-.51-.15-.51-.42V180zm-1.42-2.04c.86-.05 1.7-.07 2.22-.07.54 0 .71.16.72.6v.12h-1.72c-1.03 0-1.65.5-1.65 1.32v.52c0 .97.78 1.48 1.74 1.48.9 0 1.49-.46 1.84-.89l.18.76h1.51v-3.3c0-1.54-.77-2.02-2.16-2.02-.76 0-2.06.12-2.83.26l.15 1.22zm-2.88 1.11c1.21-.16 1.17-.31 1.84-2.45h-1.86c-.54 1.7-.6 1.88-1.13 1.88h-.32c.04-.22.06-.44.06-.65v-1.24h-1.64v1.24c0 .21.02.43.06.65h-.33c-.52 0-.58-.18-1.13-1.88h-1.85c.69 2.13.64 2.29 1.84 2.45v.05c-1.25.18-1.27.27-2.01 2.68h1.92c.65-1.96.71-2.07 1.14-2.08h.42c-.04.16-.06.31-.06.44v1.65h1.65v-1.65c0-.12-.02-.28-.05-.44h.39c.47.01.51.12 1.16 2.08h1.91c-.74-2.41-.77-2.5-2.01-2.68v-.05zm-9.67-1.26c.64 0 .8.26.8 1.41 0 1.13-.17 1.38-.8 1.38-.65 0-.81-.25-.81-1.38 0-1.15.16-1.41.81-1.41m0-1.33c-2.04 0-2.79.74-2.79 2.74 0 1.99.75 2.71 2.79 2.71 2.03 0 2.78-.72 2.78-2.71 0-2.01-.75-2.74-2.78-2.74m-4.91 5.31h1.9l-1.54-2.64 1.42-2.53h-1.88l-1.02 1.93-1.02-1.93h-1.88l1.41 2.53-1.54 2.64h1.9l1.12-2.08 1.13 2.08zm-4.75.01v-5.18h-1.64l-1.65 2.48c-.16.24-.29.47-.4.76h-.04c.04-.3.07-.53.07-.8v-2.44h-1.68v5.17h1.64l1.61-2.36c.15-.23.32-.58.42-.86h.04c-.04.34-.07.61-.07.92v2.32h1.7zm-9.84-3.58c.33-.2.57-.32.97-.32.48 0 .68.2.68 1.38 0 1.19-.21 1.36-.74 1.36-.38 0-.62-.09-.91-.18v-2.24zm-.36-1.6h-1.52v7.1h1.88v-1.13c.01-.36 0-.76-.03-1.12.45.34 1.03.47 1.66.47 1.29 0 1.97-.57 1.97-2.66 0-1.76-.52-2.77-1.83-2.77-.82 0-1.61.37-1.98.85l-.15-.74zm-2.74-2.01h-6.01v7.18h1.94v-5.85h2.11v5.85h1.96v-7.18zm-34.74 8.28c.8 0 1.02.34 1.02 2.25s-.22 2.25-1.02 2.25c-.77 0-.99-.34-.99-2.25s.22-2.25.99-2.25m.01-1.49c-2.18 0-2.92.94-2.92 3.74 0 2.8.75 3.74 2.92 3.74 2.19 0 2.94-.94 2.94-3.74 0-2.8-.76-3.74-2.94-3.74m-4.9 5.56c-.5 0-.65.16-.65.65v.46c0 .5.16.65.65.65h.45c.5 0 .66-.16.66-.65v-.46c0-.5-.16-.65-.66-.65h-.45zm-6.48-4.01c.53-.01 1.26-.02 2-.02.73 0 .94.09.94.68.01.49-.06.78-.84.78h-1.37v1.25l1.37-.01c.77-.01.94.23.94.84 0 .73-.27.86-1.19.86-.62 0-1.08-.01-1.99-.06l-.06 1.4c.81.11 1.72.2 2.58.2 1.9 0 2.6-.62 2.58-2.14-.01-1.09-.32-1.64-1.33-1.8v-.04c.93-.15 1.14-.78 1.14-1.81 0-1.28-.67-1.67-2.42-1.67-.79 0-1.59.06-2.4.2l.05 1.34zm-17.59-17.66.07-1.43h-4.5l-.19 3.23c-.02.33.22.6.56.65l1.11.14c.97.08 1.32.22 1.29.89-.04.58-.25.81-1.19.81-.51 0-1.18-.03-1.86-.08l-.18 1.47c.92.14 1.83.21 2.55.21 2.04 0 2.61-1.05 2.61-2.34.01-1.16-.43-2.19-2.1-2.37l-1.19-.16.07-1h2.95zm-6.73 3.98c-.5 0-.65.16-.65.65v.46c0 .5.16.65.65.65h.45c.5 0 .66-.16.66-.65v-.46c0-.5-.16-.65-.66-.65h-.45zm-6.49-4.01c.53-.01 1.26-.02 2-.02.73 0 .94.09.94.68.01.49-.06.78-.84.78h-1.37v1.25l1.37-.01c.77-.01.94.23.94.84 0 .73-.27.86-1.19.86-.62 0-1.08-.01-1.99-.06l-.06 1.4c.81.11 1.72.2 2.58.2 1.9 0 2.6-.62 2.58-2.14-.01-1.09-.32-1.64-1.33-1.8v-.04c.93-.15 1.14-.78 1.14-1.81 0-1.28-.67-1.67-2.42-1.67-.79 0-1.59.06-2.4.2l.05 1.34zm3.95 28.66.08 1.57h3.12c-.17.25-.26.51-.35.76l-1.73 4.85h1.92l2.16-6.22c.18-.53-.17-.96-.73-.96h-4.47zm-1.44 5.41c-.5 0-.66.16-.66.65v.46c0 .5.16.65.66.65h.45c.5 0 .65-.16.65-.65v-.46c0-.5-.16-.65-.65-.65h-.45zm-1.94 1.77v-7.18h-1.95l-1.82.71.23 1.24 1.67-.37c-.06.29-.07.57-.07.85v4.76h1.94zm13.88 40.94c.48-.01 1.13-.02 1.8-.02.66 0 .84.09.84.61.01.44-.06.7-.76.7h-1.24v1.13l1.24-.01c.69-.01.84.21.84.76 0 .65-.24.78-1.07.78-.56 0-.97-.01-1.79-.06l-.06 1.26c.73.1 1.55.18 2.32.18 1.71 0 2.34-.56 2.32-1.93-.01-.98-.29-1.48-1.2-1.62v-.04c.83-.13 1.03-.7 1.03-1.63 0-1.15-.6-1.51-2.18-1.51-.71 0-1.43.06-2.16.18l.07 1.22zm-1.89 3.6c-.45 0-.59.14-.59.59v.41c0 .45.14.59.59.59h.4c.45 0 .59-.14.59-.59v-.41c0-.45-.14-.59-.59-.59h-.4zm-1.56-3.58.07-1.29h-4.04l-.17 2.9c-.02.3.2.54.51.58l1 .12c.87.08 1.19.2 1.16.81-.04.52-.22.73-1.08.73-.46 0-1.06-.03-1.68-.08l-.16 1.32c.82.12 1.65.19 2.3.19 1.83 0 2.35-.95 2.35-2.11.01-1.04-.38-1.97-1.89-2.14l-1.07-.14.06-.9h2.64zm26.79-7.68c0-.22.11-.36.39-.37h.97v.58c-.31.2-.64.32-.91.32-.31 0-.46-.13-.46-.38v-.15zm-1.28-1.83c.78-.05 1.53-.07 1.99-.07.49 0 .64.14.65.54v.11H97.3c-.93 0-1.49.45-1.49 1.19v.47c0 .87.7 1.33 1.56 1.33.81 0 1.34-.41 1.66-.81l.16.68h1.36v-2.97c0-1.39-.69-1.82-1.95-1.82-.68 0-1.85.1-2.55.23l.16 1.12zm-1.17-1.21H93.4v3.51h-1.12v-3.51h-1.5v3.51h-1.11v-3.51h-1.64v4.65h7v-4.65zM87.03 236v-4.66h-1.48l-1.48 2.23c-.14.21-.26.42-.36.68h-.04c.04-.27.07-.48.07-.72v-2.19h-1.51v4.65h1.48l1.45-2.13c.13-.21.29-.52.38-.78h.04c-.04.31-.07.55-.07.82v2.1h1.52zm-5.81-4.66h-1.67v1.64h-1.42v-1.64h-1.68v4.65h1.68v-1.88h1.42v1.88h1.67v-4.65zm-5.75 1.74h-2.75v1.03h2.75v-1.03zm-5.37.36h-.67c-.44 0-.53-.11-.53-.58 0-.35.08-.43.53-.43h.67v1.01zm-1.83.58c-.28.03-.77.1-.89.51l-.37 1.47h1.74l.29-1.25c.04-.22.14-.27.43-.27h.62V236h1.65v-4.69c-.58-.07-1.08-.07-2.35-.07-1.71 0-2.13.33-2.13 1.5 0 .56.22 1.1 1.01 1.26v.02zm-1.93-2.68h-1.67v1.64h-1.43v-1.64h-1.67v4.65h1.67v-1.88h1.43v1.88h1.67v-4.65zm-7.02 4.65h1.71l-1.39-2.38 1.27-2.28h-1.69l-.92 1.74-.92-1.74H55.7l1.27 2.28-1.39 2.38h1.71l1.01-1.87 1.02 1.87zm-3.79-4.65h-1.82l-.68 2.77c-.05.22-.12.53-.2.8h-.09c-.04-.27-.08-.53-.13-.8l-.7-2.77H50.1l1.44 4.25c.08.24.28.4.54.4h.31c-.12.23-.3.45-.49.55-.3.17-.71.22-1.3.2l-.14 1.11c.66.12 1.37.13 1.92-.09.72-.26 1.26-.72 1.59-1.81l1.56-4.61zm-7.65 1.25c1.28-.17 1.32-.75 2.03-3.06h-1.79c-.51 1.94-.63 2.52-1.54 2.52h-.31c.05-.26.08-.54.08-.81v-1.71H44.6v6.46h1.75v-2.16c0-.18-.03-.39-.08-.6h.34c.9 0 .98.42 1.64 2.76h1.84c-.8-2.65-.88-3.16-2.21-3.34v-.06z" style="clip-path:url(#SVGID_30_);fill:#39373a"/></g></switch></svg>