<?xml version="1.0" encoding="utf-8"?>
<!-- Generator: Adobe Illustrator 26.5.0, SVG Export Plug-In . SVG Version: 6.00 Build 0)  -->
<svg version="1.1" id="Слой_1" xmlns="http://www.w3.org/2000/svg" xmlns:xlink="http://www.w3.org/1999/xlink" x="0px" y="0px"
	 viewBox="0 0 1000 1000" style="enable-background:new 0 0 1000 1000;" xml:space="preserve">
<style type="text/css">
	.st0{fill:#E3EAB0;}
	.st1{fill:none;}
	.st2{fill:none;stroke:#3C3C3B;stroke-miterlimit:10;}
	.st3{fill:#FFFFFF;}
	.st4{fill:#3C3C3B;}
	.st5{fill:none;stroke:#3C3C3B;}
	.st6{fill:none;stroke:#3C3C3B;stroke-miterlimit:10;stroke-dasharray:2.484,2.484;}
	.st7{fill:none;stroke:#3C3C3B;stroke-miterlimit:10;stroke-dasharray:2.386,2.386;}
	.st8{fill:none;stroke:#3C3C3B;stroke-width:1;stroke-miterlimit:4.0001;}
	.st9{fill:#39373A;stroke:#3C3C3B;stroke-width:0.25;stroke-miterlimit:10;}
	.st10{fill:none;stroke:#3C3C3B;stroke-width:0.25;}
</style>
<rect x="140.3" y="241.6" class="st0" width="649.3" height="177.7"/>
<rect x="197.5" y="316.2" class="st0" width="592" height="298.3"/>
<rect x="688.8" y="367.4" class="st0" width="104" height="215"/>
<rect x="528.3" y="439.3" class="st0" width="270.6" height="215"/>
<rect x="607.1" y="550.9" class="st0" width="191.8" height="199.9"/>
<rect x="683.6" y="577.8" class="st0" width="115.3" height="215"/>
<rect x="106.4" y="439.3" class="st1" width="7" height="184.5"/>
<rect x="106.4" y="439.3" class="st2" width="7" height="184.5"/>
<rect x="106.4" y="297.1" class="st3" width="14.4" height="109.7"/>
<rect x="106.4" y="297.1" class="st2" width="14.4" height="109.7"/>
<rect x="126.5" y="297.1" class="st3" width="13.7" height="109.7"/>
<rect x="126.5" y="297.1" class="st2" width="13.7" height="109.7"/>
<rect x="121" y="301.7" class="st3" width="5.3" height="4.5"/>
<rect x="121" y="301.7" class="st2" width="5.3" height="4.5"/>
<rect x="121" y="391.7" class="st3" width="5.3" height="4.5"/>
<rect x="121" y="391.7" class="st2" width="5.3" height="4.5"/>
<path class="st2" d="M696.3,803.8l48.6,27.9c0,0,3.9-6.1,6-15.3s1.7-16.5,1.7-16.5"/>
<path class="st2" d="M623.5,657l33.1-18.9c0,0,2.6,4.1,4.1,10.4c1.5,6.2,1.2,11.2,1.2,11.2"/>
<rect x="890" y="249.8" class="st1" width="7" height="192.7"/>
<rect x="890" y="249.8" class="st2" width="7" height="192.7"/>
<rect x="181" y="593.4" class="st4" width="26.2" height="34.2"/>
<rect x="181" y="593.4" class="st2" width="26.2" height="34.2"/>
<rect x="106.4" y="620.9" class="st4" width="423.9" height="12.1"/>
<rect x="180.5" y="615.2" class="st4" width="363.3" height="16.6"/>
<rect x="181.8" y="419.7" class="st4" width="25.3" height="29.8"/>
<rect x="181.8" y="419.7" class="st2" width="25.3" height="29.8"/>
<rect x="106.4" y="209.5" class="st4" width="14.4" height="96.7"/>
<rect x="106.4" y="209.5" class="st2" width="14.4" height="96.7"/>
<rect x="111.8" y="230.1" class="st4" width="28.4" height="71.3"/>
<rect x="111.8" y="230.1" class="st2" width="28.4" height="71.3"/>
<rect x="111.8" y="396.9" class="st4" width="28.4" height="48.6"/>
<rect x="111.8" y="396.9" class="st2" width="28.4" height="48.6"/>
<rect x="122.2" y="419.7" class="st4" width="70.7" height="25.8"/>
<rect x="122.2" y="419.7" class="st2" width="70.7" height="25.8"/>
<rect x="106.4" y="391.7" class="st4" width="14.4" height="53.8"/>
<rect x="106.4" y="391.7" class="st2" width="14.4" height="53.8"/>
<rect x="201.8" y="426.9" class="st4" width="285.3" height="7"/>
<rect x="201.8" y="426.9" class="st2" width="285.3" height="7"/>
<rect x="324.8" y="419.7" class="st4" width="56.3" height="14.2"/>
<rect x="324.8" y="419.7" class="st2" width="56.3" height="14.2"/>
<rect x="374.1" y="412" class="st4" width="7" height="14.2"/>
<rect x="374.1" y="412" class="st2" width="7" height="14.2"/>
<rect x="378.3" y="354.5" class="st4" width="20.1" height="7"/>
<rect x="378.3" y="354.5" class="st2" width="20.1" height="7"/>
<rect x="432" y="354.5" class="st4" width="78.7" height="7"/>
<rect x="432" y="354.5" class="st2" width="78.7" height="7"/>
<rect x="487.3" y="236.4" class="st4" width="7" height="120.2"/>
<rect x="487.3" y="236.4" class="st2" width="7" height="120.2"/>
<rect x="544.2" y="354.5" class="st4" width="16.9" height="7"/>
<rect x="544.2" y="354.5" class="st2" width="16.9" height="7"/>
<rect x="559.2" y="419.9" class="st4" width="50.8" height="14"/>
<rect x="559.2" y="419.9" class="st2" width="50.8" height="14"/>
<rect x="554.1" y="236.4" class="st4" width="7" height="197.5"/>
<rect x="554.1" y="236.4" class="st2" width="7" height="197.5"/>
<rect x="374.1" y="217.1" class="st4" width="7" height="148.1"/>
<rect x="374.1" y="217.1" class="st2" width="7" height="148.1"/>
<rect x="181" y="591.5" class="st4" width="11.9" height="38.2"/>
<rect x="181" y="591.5" class="st2" width="11.9" height="38.2"/>
<rect x="181.8" y="419.7" class="st4" width="11.9" height="34.3"/>
<rect x="181.8" y="419.7" class="st2" width="11.9" height="34.3"/>
<rect x="752.2" y="792.5" class="st4" width="48.1" height="14"/>
<rect x="752.2" y="792.5" class="st2" width="48.1" height="14"/>
<rect x="674.9" y="792.5" class="st4" width="24.5" height="14"/>
<rect x="674.9" y="792.5" class="st2" width="24.5" height="14"/>
<rect x="682.9" y="655" class="st4" width="6.6" height="91"/>
<rect x="682.9" y="655" class="st2" width="6.6" height="91"/>
<rect x="661.9" y="655" class="st4" width="24.7" height="7"/>
<rect x="661.9" y="655" class="st2" width="24.7" height="7"/>
<rect x="603.7" y="655" class="st4" width="24.5" height="7"/>
<rect x="603.7" y="655" class="st2" width="24.5" height="7"/>
<rect x="523.1" y="655" class="st4" width="87.2" height="15.3"/>
<rect x="523.1" y="615.1" class="st4" width="21.8" height="49.6"/>
<rect x="523.3" y="492.4" class="st4" width="7.2" height="159.6"/>
<rect x="523.3" y="492.4" class="st2" width="7.2" height="177.7"/>
<rect x="674.9" y="744.1" class="st4" width="14.6" height="62.6"/>
<rect x="674.9" y="744.1" class="st2" width="14.6" height="62.6"/>
<rect x="596.6" y="744.1" class="st4" width="87" height="14"/>
<rect x="618.4" y="744.1" class="st4" width="33.3" height="14"/>
<rect x="794.1" y="413.5" class="st4" width="10.8" height="392.7"/>
<rect x="794.1" y="413.5" class="st2" width="10.8" height="392.7"/>
<rect x="377" y="233.2" class="st4" width="11.2" height="69.4"/>
<rect x="377" y="233.2" class="st2" width="11.2" height="69.4"/>
<rect x="107" y="209.5" class="st4" width="709.2" height="33.4"/>
<rect x="107" y="209.5" class="st2" width="709.2" height="33.4"/>
<rect x="805.1" y="240.4" class="st4" width="11.2" height="65.8"/>
<rect x="805.1" y="240.4" class="st2" width="11.2" height="65.8"/>
<rect x="805.1" y="305.4" class="st2" width="11.2" height="65.8"/>
<rect x="790.8" y="300.6" class="st2" width="8.7" height="66.2"/>
<rect x="799.5" y="303.2" class="st2" width="5.3" height="3.1"/>
<rect x="799.5" y="366.8" class="st2" width="5.3" height="4.3"/>
<rect x="799.5" y="363.1" class="st2" width="5.3" height="3.6"/>
<rect x="805.1" y="413.5" class="st4" width="11.2" height="46.3"/>
<rect x="805.1" y="413.5" class="st2" width="11.2" height="46.3"/>
<rect x="811.3" y="431.1" class="st4" width="85.5" height="22.5"/>
<rect x="890.4" y="431.1" class="st4" width="6.5" height="15.9"/>
<rect x="890.4" y="431.1" class="st2" width="6.5" height="15.9"/>
<rect x="790.8" y="236.8" class="st4" width="16.7" height="65.8"/>
<rect x="790.8" y="236.8" class="st2" width="16.7" height="65.8"/>
<rect x="813" y="209.4" class="st4" width="84" height="7"/>
<rect x="813" y="209.4" class="st2" width="84" height="7"/>
<rect x="890" y="213.6" class="st4" width="7" height="38.5"/>
<rect x="890" y="213.6" class="st2" width="7" height="38.5"/>
<rect x="801.6" y="454.8" class="st4" width="14.6" height="351.9"/>
<rect x="801.6" y="454.8" class="st2" width="14.6" height="276.6"/>
<rect x="479.8" y="492.4" class="st4" width="87.4" height="7"/>
<rect x="479.8" y="492.4" class="st2" width="87.4" height="7"/>
<rect x="479.8" y="481.5" class="st4" width="7.3" height="13.8"/>
<rect x="479.8" y="481.5" class="st2" width="7.3" height="13.8"/>
<rect x="559.9" y="481.5" class="st4" width="7.3" height="13.8"/>
<rect x="559.9" y="481.5" class="st2" width="7.3" height="13.8"/>
<rect x="547.2" y="241.5" class="st4" width="7.3" height="61"/>
<rect x="479.8" y="318.3" class="st4" width="7.3" height="39.7"/>
<rect x="596.5" y="738.4" class="st4" width="50.8" height="19.6"/>
<rect x="596.5" y="666.1" class="st4" width="13.8" height="92"/>
<rect x="596.5" y="666.1" class="st2" width="13.8" height="92"/>
<rect x="602.8" y="744.9" class="st2" width="8.7" height="8.7"/>
<g>
	<path class="st2" d="M563.6,430.8l25.3,44.1c0,0-5.5,3.5-13.9,5.4c-8.3,1.9-15,1.6-15,1.6"/>
	<path class="st2" d="M482.7,430.8l-25.3,44.1c0,0,5.5,3.5,13.9,5.4c8.3,1.9,15,1.6,15,1.6"/>
	<path class="st2" d="M552.5,356.8L517,377c0,0-2.8-4.4-4.4-11.1c-1.6-6.7-1.3-12-1.3-12"/>
	<path class="st2" d="M802.7,416.9l-22.4-39.2c0,0,4.9-3.1,12.3-4.8s13.3-1.4,13.3-1.4"/>
	<path class="st2" d="M390.7,356.8l35.4,20.2c0,0,2.8-4.4,4.4-11.1s1.3-12,1.3-12"/>
	<path class="st2" d="M377,413.7l-24-42.2c0,0,5.2-3.4,13.1-5.2c7.9-1.8,14.2-1.5,14.2-1.5"/>
</g>
<rect x="721" y="562" class="st4" width="90.7" height="7"/>
<rect x="721" y="562" class="st2" width="90.7" height="7"/>
<rect x="648.7" y="584.2" class="st4" width="105" height="7"/>
<rect x="648.7" y="584.2" class="st2" width="105" height="7"/>
<rect x="708.4" y="562" class="st4" width="63.5" height="29.2"/>
<rect x="708.4" y="562" class="st2" width="63.5" height="29.2"/>
<rect x="756.9" y="570.4" class="st3" width="8.2" height="14.9"/>
<rect x="756.9" y="570.4" class="st2" width="8.2" height="14.9"/>
<rect x="715.2" y="570.4" class="st3" width="33.9" height="14.9"/>
<rect x="715.2" y="570.4" class="st2" width="33.9" height="14.9"/>
<rect x="181.8" y="443.1" class="st2" width="15.7" height="106.7"/>
<rect x="194" y="546" class="st2" width="3.4" height="3.8"/>
<rect x="194" y="542.2" class="st2" width="3.4" height="3.8"/>
<rect x="194" y="591.5" class="st2" width="3.4" height="3.8"/>
<rect x="194" y="444.8" class="st2" width="3.4" height="105"/>
<rect x="194" y="450.2" class="st2" width="3.4" height="3.8"/>
<rect x="194" y="494.6" class="st2" width="3.4" height="3.8"/>
<rect x="194" y="498.5" class="st2" width="3.4" height="3.8"/>
<g>
	<path class="st2" d="M197.3,591.6l20.6-36.1c0,0-4.5-2.9-11.3-4.5s-12.2-1.3-12.2-1.3"/>
</g>
<rect x="672.4" y="726" class="st2" width="11.1" height="11.2"/>
<rect x="669.3" y="662.7" class="st2" width="13.3" height="5.9"/>
<polyline class="st2" points="672.6,726.2 680.3,729.3 682.2,737.6 "/>
<polyline class="st2" points="669.3,668.7 671.5,664.6 682.5,662.9 "/>
<rect x="445.3" y="318.8" class="st2" width="32.7" height="32.9"/>
<line class="st2" x1="445.1" y1="318.7" x2="478.2" y2="351.7"/>
<line class="st2" x1="478.2" y1="318.7" x2="445.1" y2="351.7"/>
<rect x="760.4" y="507.6" class="st2" width="32.4" height="32.3"/>
<g>
	<path class="st2" d="M770.7,523.8c0,0.9,0.8,1.7,1.7,1.7s1.7-0.8,1.7-1.7s-0.8-1.7-1.7-1.7C771.4,522.1,770.7,522.8,770.7,523.8z"
		/>
	<path class="st2" d="M783.3,513.3c0-1.3-1-2.3-2.3-2.3h-15c-1.3,0-2.3,1-2.3,2.3v20.9c0,1.3,1,2.3,2.3,2.3h15c1.3,0,2.3-1,2.3-2.3
		V513.3z"/>
	<path class="st2" d="M780.7,515.7c0-1.3-1-2.3-2.3-2.3H768c-1.3,0-2.3,1-2.3,2.3v16.1c0,1.3,1,2.3,2.3,2.3h10.4
		c1.3,0,2.3-1,2.3-2.3V515.7z"/>
</g>
<line class="st2" x1="770.5" y1="591.2" x2="799.5" y2="591.2"/>
<g>
	<path class="st2" d="M629.6,729.4c0,1.7,1.4,3,3,3h14.5c1.7,0,3-1.4,3-3v-3.5c0-1.7-1.4-3-3-3h-14.5c-1.7,0-3,1.4-3,3V729.4z"/>
	<path class="st2" d="M639.9,694.2c-5.7,0-10.3,4.7-10.3,10.4v15.3c0,1.5,1.2,2.7,2.6,2.7h15.3c1.5,0,2.6-1.2,2.6-2.7v-15.3
		C650.2,698.9,645.6,694.2,639.9,694.2z"/>
	<path class="st2" d="M640.1,697.8c-4.1,0-7.4,3.4-7.4,7.6v11.1l0,0h14.8l0,0v-11.1C647.5,701.2,644.2,697.8,640.1,697.8z"/>
	<path class="st2" d="M641,727.7c0-0.6-0.5-1.1-1.1-1.1s-1.1,0.5-1.1,1.1s0.5,1.1,1.1,1.1S641,728.3,641,727.7z"/>
	<path class="st2" d="M642.1,707.2c0-1.1-0.9-2-2-2s-2,0.9-2,2s0.9,2,2,2C641.2,709.2,642.1,708.3,642.1,707.2z"/>
</g>
<line class="st2" x1="634.1" y1="715.1" x2="637.5" y2="710"/>
<line class="st2" x1="646" y1="715.1" x2="642.6" y2="710"/>
<g>
	<path class="st5" d="M392.8,258.9c0-7.3,5.9-13.1,13.1-13.1h65c7.3,0,13.1,5.9,13.1,13.1v12c0,7.3-5.9,13.1-13.1,13.1h-65
		c-7.3,0-13.1-5.9-13.1-13.1V258.9z"/>
	<path class="st5" d="M399.1,262.5c0-7.3,5.9-13.1,13.1-13.1h52.3c7.3,0,13.1,5.9,13.1,13.1v4.8c0,7.3-5.9,13.1-13.1,13.1h-52.3
		c-7.3,0-13.1-5.9-13.1-13.1V262.5z"/>
	<path class="st5" d="M406.8,259.4c0-3.6,2.9-6.6,6.6-6.6h54.2c3.6,0,6.6,2.9,6.6,6.6v11c0,3.6-2.9,6.6-6.6,6.6h-54.2
		c-3.6,0-6.6-2.9-6.6-6.6V259.4z"/>
	<path class="st5" d="M467.3,264.9c0,0.9-0.7,1.6-1.6,1.6s-1.6-0.7-1.6-1.6s0.7-1.6,1.6-1.6C466.6,263.3,467.3,264,467.3,264.9z"/>
</g>
<line class="st2" x1="388.4" y1="286.2" x2="488.5" y2="286.2"/>
<g>
	<path class="st2" d="M483.9,315.7c1,0,1.9-0.8,1.9-1.9v-9.6v-3.6V291c0-1-0.8-1.9-1.9-1.9c0,0-11.8,0-12,0.1
		c-5.3,1.1-9.2,5.8-9.2,11.4v3.6c0,5.6,3.9,10.4,9.2,11.4C472.1,315.8,483.9,315.7,483.9,315.7z"/>
	<path class="st2" d="M480.3,313c0.8,0,1.5-0.7,1.5-1.5v-7.7V301v-7.7c0-0.8-0.7-1.5-1.5-1.5c0,0-7.8,0-8,0.1
		c-4.2,0.8-7.3,4.6-7.3,9.1v2.9c0,4.4,3.1,8.3,7.3,9.1C472.5,313.1,480.3,313,480.3,313z"/>
	<path class="st2" d="M471.4,302.4c0,0.5,0.4,0.9,1,0.9c0.5,0,1-0.4,1-0.9s-0.4-0.9-1-0.9S471.4,301.9,471.4,302.4z"/>
	<path class="st2" d="M679.6,697.5c0.9,0,1.7-0.8,1.7-1.7V687v-3.3v-8.8c0-0.9-0.8-1.7-1.7-1.7c0,0-10.5,0-10.8,0.1
		c-4.7,1-8.2,5.3-8.2,10.4v3.3c0,5.1,3.5,9.4,8.2,10.4C669.1,697.5,679.6,697.5,679.6,697.5z"/>
	<path class="st2" d="M676.4,695c0.7,0,1.3-0.6,1.3-1.4v-7V684v-7c0-0.8-0.6-1.4-1.3-1.4c0,0-7,0-7.2,0.1c-3.8,0.8-6.5,4.2-6.5,8.3
		v2.6c0,4,2.8,7.5,6.5,8.3C669.4,695.1,676.4,695,676.4,695z"/>
	<path class="st2" d="M668.5,685.3c0,0.4,0.4,0.8,0.8,0.8s0.8-0.4,0.8-0.8s-0.4-0.8-0.8-0.8S668.5,684.9,668.5,685.3z"/>
</g>
<line class="st6" x1="784.3" y1="434.6" x2="654.2" y2="434.6"/>
<line class="st7" x1="648.7" y1="442.6" x2="648.7" y2="578.3"/>
<path class="st2" d="M648.7,580.9v2.7 M651.4,434.6h-2.8v2.7 M792.6,434.6h-2.8"/>
<path class="st4" d="M537.1,318h-2.8l-1.1,4.3c-0.1,0.3-0.2,0.8-0.3,1.2h-0.1c-0.1-0.4-0.1-0.8-0.2-1.2l-1.1-4.3h-2.8l2.2,6.6
	c0.1,0.4,0.4,0.6,0.8,0.6h0.5c-0.2,0.4-0.5,0.7-0.8,0.9c-0.5,0.3-1.1,0.3-2,0.3l-0.2,1.7c1,0.2,2.1,0.2,3-0.1c1.1-0.4,2-1.1,2.5-2.8
	L537.1,318z M522.8,326.4l5.7-11.2h-2.1l-5.7,11.2H522.8z M519.9,323c-0.9,0.1-1.8,0.1-3.2,0.1c-1.2,0-1.5-0.6-1.5-2.9
	s0.3-2.9,1.5-2.9c1.3,0,2,0,3,0l0.2-2c-1-0.3-1.7-0.4-3.2-0.4c-3.2,0-4.4,1.4-4.4,5.2c0,3.8,1.2,5.2,4.4,5.2c1.5,0,2.4-0.1,3.4-0.5
	L519.9,323z"/>
<path class="st4" d="M645.8,679.7l0.1,2.2h4.4c-0.2,0.3-0.4,0.7-0.5,1.1l-2.4,6.8h2.7l3-8.7c0.2-0.7-0.2-1.3-1-1.3L645.8,679.7
	L645.8,679.7z M643.8,687.3c-0.7,0-0.9,0.2-0.9,0.9v0.6c0,0.7,0.2,0.9,0.9,0.9h0.6c0.7,0,0.9-0.2,0.9-0.9v-0.6
	c0-0.7-0.2-0.9-0.9-0.9H643.8z M641.1,689.8v-10.1h-2.7l-2.6,1l0.3,1.7l2.3-0.5c-0.1,0.4-0.1,0.8-0.1,1.2v6.7L641.1,689.8
	L641.1,689.8z"/>
<path class="st4" d="M657.1,665h-2.8l-1.1,4.3c-0.1,0.3-0.2,0.8-0.3,1.2h-0.1c-0.1-0.4-0.1-0.8-0.2-1.2l-1.1-4.3h-2.8l2.2,6.6
	c0.1,0.4,0.4,0.6,0.8,0.6h0.5c-0.2,0.4-0.5,0.7-0.8,0.9c-0.5,0.3-1.1,0.3-2,0.3l-0.2,1.7c1,0.2,2.1,0.2,3-0.1c1.1-0.4,2-1.1,2.5-2.8
	L657.1,665z M642.9,673.4l5.7-11.2h-2.1l-5.7,11.2H642.9z M640,670c-0.9,0.1-1.8,0.1-3.2,0.1c-1.2,0-1.5-0.6-1.5-2.9
	c0-2.3,0.3-2.9,1.5-2.9c1.3,0,2,0,3,0l0.2-2c-1-0.3-1.7-0.4-3.2-0.4c-3.2,0-4.4,1.4-4.4,5.2s1.2,5.2,4.4,5.2c1.5,0,2.4-0.1,3.4-0.5
	L640,670z"/>
<path class="st4" d="M439.6,318.6h-1c-0.7,0-0.8-0.2-0.8-0.9c0-0.5,0.1-0.7,0.8-0.7h1V318.6z M436.7,319.5c-0.4,0-1.2,0.2-1.4,0.8
	l-0.6,2.3h2.7l0.5-1.9c0.1-0.3,0.2-0.4,0.7-0.4h1v2.4h2.6v-7.3c-0.9-0.1-1.7-0.1-3.7-0.1c-2.7,0-3.3,0.5-3.3,2.3
	C435.1,318.3,435.5,319.2,436.7,319.5L436.7,319.5z M429,320c0-0.3,0.2-0.6,0.6-0.6h1.5v0.9c-0.5,0.3-1,0.5-1.4,0.5
	c-0.5,0-0.7-0.2-0.7-0.6V320z M427,317.2c1.2-0.1,2.4-0.1,3.1-0.1c0.8,0,1,0.2,1,0.8v0.2h-2.4c-1.4,0-2.3,0.7-2.3,1.9v0.7
	c0,1.4,1.1,2.1,2.4,2.1s2.1-0.6,2.6-1.3l0.2,1.1h2.1V318c0-2.2-1.1-2.8-3-2.8c-1.1,0-2.9,0.2-4,0.4L427,317.2z M425.2,315.3h-2.6
	v2.6h-2.2v-2.6h-2.6v7.2h2.6v-2.9h2.2v2.9h2.6V315.3z M416.2,315.3h-2.6v2.6h-2.2v-2.6h-2.6v7.2h2.6v-2.9h2.2v2.9h2.6V315.3z
	 M402.5,320c0-0.3,0.2-0.6,0.6-0.6h1.5v0.9c-0.5,0.3-1,0.5-1.4,0.5c-0.5,0-0.7-0.2-0.7-0.6V320z M400.5,317.2
	c1.2-0.1,2.4-0.1,3.1-0.1c0.8,0,1,0.2,1,0.8v0.2h-2.4c-1.4,0-2.3,0.7-2.3,1.9v0.7c0,1.4,1.1,2.1,2.4,2.1s2.1-0.6,2.6-1.3l0.2,1.1
	h2.1V318c0-2.2-1.1-2.8-3-2.8c-1.1,0-2.9,0.2-4,0.4L400.5,317.2z M393.5,320.7v-2.6h1.4c1.1,0,1.3,0.3,1.3,1.3s-0.3,1.2-1.3,1.2
	L393.5,320.7z M393.5,316.5v-2.2h1.3c0.9,0,1.2,0.2,1.2,1.1s-0.2,1.1-1.1,1.1H393.5z M396.8,317.3c1.3-0.1,1.8-0.8,1.8-2.3
	c0-2.1-1-2.6-3.7-2.6c-1.8,0-2.9,0-4.1,0.1v10.1c1.4,0.1,2.5,0.1,4.6,0.1c2.5,0,3.5-0.6,3.5-2.6C399,318.4,398.4,317.5,396.8,317.3
	L396.8,317.3z"/>
<path class="st4" d="M748.3,728c-1.2,0-1.3-0.4-1.3-2.6c0.5-0.3,0.8-0.4,1.3-0.4c1,0,1.2,0.2,1.2,1.3
	C749.5,727.6,749.4,728,748.3,728 M751.4,719.9c-1-0.3-2.1-0.3-2.6-0.3c-2.9,0-4.4,0.7-4.4,5.3c0,4.1,0.9,5.1,3.9,5.1
	c3.1,0,3.7-1.2,3.7-3.7c0-2.2-0.7-3.1-2.9-3.1c-0.9,0-1.5,0.1-2.1,0.6c0.1-1.9,0.4-2.2,1.7-2.2c1.2,0,1.6,0,2.5,0L751.4,719.9z
	 M741.6,727.4c-0.7,0-0.9,0.2-0.9,0.9v0.6c0,0.7,0.2,0.9,0.9,0.9h0.6c0.7,0,0.9-0.2,0.9-0.9v-0.6c0-0.7-0.2-0.9-0.9-0.9H741.6z
	 M735.9,728c-1.2,0-1.3-0.4-1.3-2.6c0.5-0.3,0.8-0.4,1.3-0.4c1,0,1.2,0.2,1.2,1.3C737.1,727.6,737,728,735.9,728 M739,719.9
	c-1-0.3-2.1-0.3-2.6-0.3c-2.9,0-4.4,0.7-4.4,5.3c0,4.1,0.9,5.1,3.9,5.1c3.1,0,3.7-1.2,3.7-3.7c0-2.2-0.7-3.1-2.9-3.1
	c-0.9,0-1.5,0.1-2.1,0.6c0.1-1.9,0.4-2.2,1.7-2.2c1.2,0,1.6,0,2.5,0L739,719.9z"/>
<path class="st4" d="M775.8,708.4h-1c-0.7,0-0.8-0.2-0.8-0.9c0-0.5,0.1-0.7,0.8-0.7h1V708.4z M773,709.3c-0.4,0-1.2,0.2-1.4,0.8
	l-0.6,2.3h2.7l0.5-1.9c0.1-0.3,0.2-0.4,0.7-0.4h1v2.4h2.6V705c-0.9-0.1-1.7-0.1-3.7-0.1c-2.7,0-3.3,0.5-3.3,2.3
	C771.4,708.1,771.8,709,773,709.3L773,709.3z M765.3,709.8c0-0.3,0.2-0.6,0.6-0.6h1.5v0.9c-0.5,0.3-1,0.5-1.4,0.5
	c-0.5,0-0.7-0.2-0.7-0.6L765.3,709.8L765.3,709.8z M763.3,707c1.2-0.1,2.4-0.1,3.1-0.1c0.8,0,1,0.2,1,0.8v0.2H765
	c-1.4,0-2.3,0.7-2.3,1.9v0.7c0,1.4,1.1,2.1,2.4,2.1c1.3,0,2.1-0.6,2.6-1.3l0.2,1.1h2.1v-4.6c0-2.2-1.1-2.8-3-2.8
	c-1.1,0-2.9,0.2-4,0.4L763.3,707z M759.3,708.5c1.7-0.2,1.6-0.4,2.6-3.4h-2.6c-0.8,2.4-0.8,2.6-1.6,2.6h-0.5
	c0.1-0.3,0.1-0.6,0.1-0.9v-1.7H755v1.7c0,0.3,0,0.6,0.1,0.9h-0.5c-0.7,0-0.8-0.2-1.6-2.6h-2.6c1,3,0.9,3.2,2.6,3.4v0.1
	c-1.8,0.2-1.8,0.4-2.8,3.7h2.7c0.9-2.7,1-2.9,1.6-2.9h0.6c-0.1,0.2-0.1,0.4-0.1,0.6v2.3h2.3V710c0-0.2,0-0.4-0.1-0.6h0.5h0.1
	c0.7,0,0.7,0.2,1.6,2.9h2.7C761,709,761,708.8,759.3,708.5L759.3,708.5z M745.7,706.8c0.9,0,1.1,0.4,1.1,2s-0.2,1.9-1.1,1.9
	c-0.9,0-1.1-0.4-1.1-1.9C744.6,707.1,744.8,706.8,745.7,706.8 M745.7,704.9c-2.9,0-3.9,1-3.9,3.8s1.1,3.8,3.9,3.8
	c2.8,0,3.9-1,3.9-3.8C749.6,705.9,748.5,704.9,745.7,704.9 M738.8,712.3h2.7l-2.2-3.7l2-3.5h-2.6l-1.4,2.7l-1.4-2.7h-2.6l2,3.5
	l-2.2,3.7h2.7l1.6-2.9L738.8,712.3z M732.2,712.4v-7.3h-2.3l-2.3,3.5c-0.2,0.3-0.4,0.7-0.6,1.1h-0.1c0.1-0.4,0.1-0.7,0.1-1.1v-3.4
	h-2.3v7.2h2.3l2.3-3.3c0.2-0.3,0.5-0.8,0.6-1.2h0.1c-0.1,0.5-0.1,0.9-0.1,1.3v3.3L732.2,712.4L732.2,712.4z M718.4,707.3
	c0.5-0.3,0.8-0.5,1.4-0.5c0.7,0,0.9,0.3,0.9,1.9c0,1.7-0.3,1.9-1,1.9c-0.5,0-0.9-0.1-1.3-0.2L718.4,707.3L718.4,707.3z M717.9,705.1
	h-2.1v9.9h2.6v-1.6c0-0.5,0-1.1,0-1.6c0.6,0.5,1.4,0.7,2.3,0.7c1.8,0,2.8-0.8,2.8-3.7c0-2.5-0.7-3.9-2.6-3.9c-1.2,0-2.3,0.5-2.8,1.2
	L717.9,705.1z M714,702.3h-8.4v10.1h2.7v-8.2h3v8.2h2.7V702.3z"/>
<path class="st4" d="M761.1,487.3c0-0.3,0.2-0.6,0.6-0.6h1.5v0.9c-0.5,0.3-1,0.5-1.4,0.5c-0.5,0-0.7-0.2-0.7-0.6L761.1,487.3
	L761.1,487.3z M759.1,484.4c1.2-0.1,2.4-0.1,3.1-0.1c0.8,0,1,0.2,1,0.8v0.2h-2.4c-1.4,0-2.3,0.7-2.3,1.9v0.7c0,1.4,1.1,2.1,2.4,2.1
	c1.3,0,2.1-0.6,2.6-1.3l0.2,1.1h2.1v-4.6c0-2.2-1.1-2.8-3-2.8c-1.1,0-2.9,0.2-4,0.4L759.1,484.4z M757.3,482.6h-2.6v5.5H753v-5.5
	h-2.3v5.5H749v-5.5h-2.6v7.2h10.9L757.3,482.6L757.3,482.6z M744.8,489.8v-7.3h-2.3l-2.3,3.5c-0.2,0.3-0.4,0.7-0.6,1.1h-0.1
	c0.1-0.4,0.1-0.7,0.1-1.1v-3.4h-2.3v7.2h2.3l2.3-3.3c0.2-0.3,0.5-0.8,0.6-1.2h0.1c-0.1,0.5-0.1,0.9-0.1,1.3v3.3h2.3V489.8z
	 M735.8,482.6h-2.6v2.6H731v-2.6h-2.6v7.2h2.6v-2.9h2.2v2.9h2.6V482.6z M726.8,485.3h-4.3v1.6h4.3V485.3z M718.4,485.8h-1
	c-0.7,0-0.8-0.2-0.8-0.9c0-0.5,0.1-0.7,0.8-0.7h1V485.8z M715.6,486.7c-0.4,0-1.2,0.2-1.4,0.8l-0.6,2.3h2.7l0.5-1.9
	c0.1-0.3,0.2-0.4,0.7-0.4h1v2.4h2.6v-7.3c-0.9-0.1-1.7-0.1-3.7-0.1c-2.7,0-3.3,0.5-3.3,2.3C714,485.6,714.4,486.4,715.6,486.7
	L715.6,486.7z M712.6,482.6H710v2.6h-2.2v-2.6h-2.6v7.2h2.6v-2.9h2.2v2.9h2.6V482.6z M701.7,489.8h2.7l-2.2-3.7l2-3.5h-2.6l-1.4,2.7
	l-1.4-2.7H696l2,3.5l-2.2,3.7h2.7l1.6-2.9L701.7,489.8z M695.8,482.6H693l-1.1,4.3c-0.1,0.3-0.2,0.8-0.3,1.2h-0.1
	c-0.1-0.4-0.1-0.8-0.2-1.2l-1.1-4.3h-2.8l2.2,6.6c0.1,0.4,0.4,0.6,0.8,0.6h0.5c-0.2,0.4-0.5,0.7-0.8,0.9c-0.5,0.3-1.1,0.3-2,0.3
	l-0.2,1.7c1,0.2,2.1,0.2,3-0.1c1.1-0.4,2-1.1,2.5-2.8L695.8,482.6z M683.9,484.5c2-0.3,2.1-1.2,3.2-4.8h-2.8c-0.8,3-1,3.9-2.4,3.9
	h-0.5c0.1-0.4,0.1-0.8,0.1-1.3v-2.7h-2.7v10.1h2.7v-3.4c0-0.3,0-0.6-0.1-0.9h0.5c1.4,0,1.5,0.7,2.6,4.3h2.9
	C686.1,485.7,685.9,484.9,683.9,484.5L683.9,484.5z"/>
<path class="st4" d="M863.4,343.5c1.6,0.7,2.2,2.8,2.2,5.8s-0.6,5.1-2.2,5.8l0.3,1.1c3.1-0.9,4.4-3.1,4.4-7s-1.4-6.1-4.4-7
	L863.4,343.5z M855.6,346c1.4-0.1,2.1-0.1,3.2-0.1c0.8,0,1.1,0,1.1,0.5c0,0.6-0.7,1.5-1.8,2.6l-2.3,2.3c-0.3,0.3-0.4,0.7-0.4,1.1
	v1.4h7.5v-2.4H860c-0.5,0-0.9,0-1.4,0.1l2.5-2.4c1.3-1.4,1.6-2,1.6-3.1c0-2-1.4-2.4-3.6-2.4c-1.1,0-2.1,0-3.6,0.3L855.6,346z
	 M852.7,351.4c-0.7,0-0.9,0.2-0.9,0.9v0.6c0,0.7,0.2,0.9,0.9,0.9h0.6c0.7,0,0.9-0.2,0.9-0.9v-0.6c0-0.7-0.2-0.9-0.9-0.9H852.7z
	 M843.3,346c1.4-0.1,2.1-0.1,3.2-0.1c0.8,0,1.1,0,1.1,0.5c0,0.6-0.7,1.5-1.8,2.6l-2.3,2.3c-0.3,0.3-0.4,0.7-0.4,1.1v1.4h7.5v-2.4
	h-2.9c-0.5,0-0.9,0-1.4,0.1l2.5-2.4c1.3-1.4,1.6-2,1.6-3.1c0-2-1.4-2.4-3.6-2.4c-1.1,0-2.1,0-3.6,0.3L843.3,346z M842.1,342.3
	c-3.1,0.9-4.4,3-4.4,7c0,3.9,1.4,6.1,4.4,7l0.3-1.1c-1.6-0.7-2.2-2.9-2.2-5.8c0-3,0.6-5.1,2.2-5.8L842.1,342.3z"/>
<path class="st4" d="M863.8,332.4h-1.2v-4.2h-2.1l-0.4,1.6v2.6h-2c-0.2,0-0.4-0.1-0.3-0.4l2.2-5.7h-2.6l-2.5,6.4
	c-0.3,0.8,0.2,1.6,1.1,1.6h4v2.1h2.5v-2.1l0,0l1.2-0.3L863.8,332.4L863.8,332.4z M852.6,333.9c-0.7,0-0.9,0.2-0.9,0.9v0.6
	c0,0.7,0.2,0.9,0.9,0.9h0.6c0.7,0,0.9-0.2,0.9-0.9v-0.6c0-0.7-0.2-0.9-0.9-0.9H852.6z M850.7,332.4h-1.2v-4.2h-2.1l-0.4,1.6v2.6h-2
	c-0.2,0-0.4-0.1-0.3-0.4l2.2-5.7h-2.6l-2.5,6.4c-0.3,0.8,0.2,1.6,1.1,1.6h4v2.1h2.5v-2.1l0,0l1.2-0.3L850.7,332.4L850.7,332.4z"/>
<path class="st4" d="M152.9,540.1c1.6,0.7,2.2,2.8,2.2,5.8s-0.6,5.1-2.2,5.8l0.3,1.1c3.1-0.9,4.4-3.1,4.4-7s-1.4-6.1-4.4-7
	L152.9,540.1z M148.8,548.7c-1.2,0-1.3-0.4-1.3-2.6c0.5-0.3,0.8-0.4,1.3-0.4c1,0,1.2,0.2,1.2,1.3
	C149.9,548.2,149.9,548.7,148.8,548.7 M151.8,540.5c-1-0.3-2.1-0.3-2.6-0.3c-2.9,0-4.4,0.7-4.4,5.3c0,4.1,0.9,5.1,3.9,5.1
	c3.1,0,3.7-1.2,3.7-3.7c0-2.2-0.7-3.1-2.9-3.1c-0.9,0-1.5,0.1-2.1,0.6c0.1-1.9,0.4-2.2,1.7-2.2c1.2,0,1.6,0,2.5,0L151.8,540.5z
	 M142.1,548c-0.7,0-0.9,0.2-0.9,0.9v0.6c0,0.7,0.2,0.9,0.9,0.9h0.6c0.7,0,0.9-0.2,0.9-0.9v-0.6c0-0.7-0.2-0.9-0.9-0.9H142.1z
	 M139.3,550.5v-10.1h-2.7l-2.6,1l0.3,1.7l2.3-0.5c-0.1,0.4-0.1,0.8-0.1,1.2v6.7L139.3,550.5L139.3,550.5z M133.7,538.9
	c-3.1,0.9-4.4,3-4.4,7c0,3.9,1.4,6.1,4.4,7l0.3-1.1c-1.6-0.7-2.2-2.9-2.2-5.8c0-3,0.6-5.1,2.2-5.8L133.7,538.9z"/>
<path class="st4" d="M145.9,525.1c1.4-0.1,2.1-0.1,3.2-0.1c0.8,0,1.1,0,1.1,0.5c0,0.6-0.7,1.5-1.8,2.6l-2.3,2.3
	c-0.3,0.3-0.4,0.7-0.4,1.1v1.4h7.5v-2.4h-2.9c-0.5,0-0.9,0-1.4,0.1l2.5-2.4c1.3-1.4,1.6-2,1.6-3.1c0-2-1.4-2.4-3.6-2.4
	c-1.1,0-2.1,0-3.6,0.3L145.9,525.1z M143,530.5c-0.7,0-0.9,0.2-0.9,0.9v0.6c0,0.7,0.2,0.9,0.9,0.9h0.6c0.7,0,0.9-0.2,0.9-0.9v-0.6
	c0-0.7-0.2-0.9-0.9-0.9H143z M133.9,524.9c0.7,0,1.8,0,2.8,0s1.3,0.1,1.3,0.9c0,0.7-0.1,1.1-1.2,1.1h-1.9v1.8h1.9
	c1.1,0,1.3,0.3,1.3,1.2c0,1-0.4,1.2-1.7,1.2c-0.9,0-1.5,0-2.8-0.1l-0.1,2c1.1,0.2,2.4,0.3,3.6,0.3c2.7,0,3.6-0.9,3.6-3
	c0-1.5-0.5-2.3-1.9-2.5v-0.1c1.3-0.2,1.6-1.1,1.6-2.5c0-1.8-0.9-2.3-3.4-2.3c-1.1,0-2.2,0.1-3.4,0.3L133.9,524.9z"/>
<ellipse transform="matrix(0.9239 -0.3827 0.3827 0.9239 -58.8143 283.3502)" class="st8" cx="682.8" cy="289.5" rx="32.1" ry="32.1"/>
<path class="st4" d="M705,297.4c-2.6,0.3-4.9,0.3-8.8,0.3c-3.3,0-4.3-1.7-4.3-8s0.9-8,4.3-8c3.7,0,5.5,0,8.3,0.1l0.6-5.6
	c-2.7-0.7-4.7-1-8.8-1c-9,0-12.3,3.8-12.3,14.5s3.3,14.5,12.3,14.5c4.2,0,6.7-0.3,9.5-1.3L705,297.4z M661.3,281.2
	c2.1,0,4.9-0.1,7.8-0.1c2.8,0,3.7,0.4,3.7,2.6c0,1.9-0.2,3-3.3,3h-5.4v4.9h5.4c3,0,3.7,0.9,3.7,3.3c0,2.8-1.1,3.4-4.6,3.4
	c-2.4,0-4.2,0-7.7-0.2l-0.2,5.5c3.2,0.4,6.7,0.8,10.1,0.8c7.4,0,10.1-2.4,10.1-8.4c0-4.3-1.3-6.4-5.2-7v-0.2c3.6-0.6,4.5-3,4.5-7.1
	c0-5-2.6-6.5-9.5-6.5c-3.1,0-6.2,0.2-9.4,0.8L661.3,281.2z"/>
<path class="st4" d="M756.7,387.6c0-0.5,0.2-0.8,0.9-0.8h2.2v1.3c-0.7,0.4-1.4,0.7-2,0.7c-0.7,0-1-0.3-1-0.8v-0.4H756.7z
	 M753.8,383.6c1.7-0.1,3.4-0.1,4.4-0.1c1.1,0,1.4,0.3,1.4,1.2v0.2h-3.4c-2.1,0-3.3,1-3.3,2.6v1c0,1.9,1.6,3,3.5,3
	c1.8,0,3-0.9,3.7-1.8l0.4,1.5h3v-6.6c0-3.1-1.5-4-4.3-4c-1.5,0-4.1,0.2-5.7,0.5L753.8,383.6z M752.2,383.7v-2.9h-10.3v2.9h3.3v7.5
	h3.8v-7.5H752.2z M733.7,387.6c0-0.5,0.2-0.8,0.9-0.8h2.2v1.3c-0.7,0.4-1.4,0.7-2,0.7c-0.7,0-1-0.3-1-0.8v-0.4H733.7z M730.8,383.6
	c1.7-0.1,3.4-0.1,4.4-0.1c1.1,0,1.4,0.3,1.4,1.2v0.2h-3.4c-2.1,0-3.3,1-3.3,2.6v1c0,1.9,1.6,3,3.5,3c1.8,0,3-0.9,3.7-1.8l0.4,1.5h3
	v-6.6c0-3.1-1.5-4-4.3-4c-1.5,0-4.1,0.2-5.7,0.5L730.8,383.6z M728.2,380.9h-3.7v3.6h-3.2v-3.6h-3.7v10.4h3.7V387h3.2v4.2h3.7V380.9
	z M710.7,380.9c-0.8,0-1.3,0.4-1.4,1.2l-0.9,3.9c-0.1,0.5-0.1,1-0.2,1.5H708c-0.1-0.5-0.1-1-0.2-1.5l-0.9-3.9
	c-0.1-0.8-0.6-1.2-1.4-1.2h-3.2c-0.9,0-1.3,0.4-1.3,1.3l-0.3,9.1h3.4l0.2-7.6h0.3l1.2,5c0.1,0.8,0.6,1.1,1.4,1.1h1.7
	c0.8,0,1.3-0.4,1.4-1.1l1.2-5h0.2l0.3,7.6h3.4l-0.3-9.1c0-0.9-0.4-1.3-1.3-1.3H710.7z M693.5,383.2c1.3,0,1.6,0.5,1.6,2.8
	s-0.3,2.8-1.6,2.8s-1.6-0.5-1.6-2.8C691.9,383.8,692.2,383.2,693.5,383.2 M693.5,380.6c-4.1,0-5.6,1.5-5.6,5.5s1.5,5.4,5.6,5.4
	s5.6-1.4,5.6-5.4S697.6,380.6,693.5,380.6 M683.1,385.8c2.4-0.4,2.2-0.6,3.6-4.9h-3.8c-0.9,3.5-1,3.7-2.4,3.7H680
	c0.1-0.4,0.1-0.9,0.1-1.3v-2.4h-3.8v10.4h3.8V388c0-0.2,0-0.5-0.1-0.8h0.8c1.1,0,1.2,0.3,2.3,4.1h3.9c-1.4-4.9-1.5-5-3.9-5.3V385.8z
	 M666,385.5h-1.5c-1,0-1.2-0.3-1.2-1.3c0-0.8,0.2-1,1.2-1h1.5V385.5z M662,386.8c-0.6,0.1-1.7,0.2-2,1.1l-0.8,3.3h3.9l0.6-2.8
	c0.1-0.5,0.3-0.6,1-0.6h1.4v3.4h3.7v-10.4c-1.3-0.1-2.4-0.2-5.2-0.2c-3.8,0-4.7,0.7-4.7,3.3C659.7,385.2,660.2,386.4,662,386.8
	L662,386.8z M650.9,387.6c0-0.5,0.2-0.8,0.9-0.8h2.2v1.3c-0.7,0.4-1.4,0.7-2,0.7c-0.7,0-1-0.3-1-0.8v-0.4H650.9z M648.1,383.6
	c1.7-0.1,3.4-0.1,4.4-0.1c1.1,0,1.4,0.3,1.4,1.2v0.2h-3.4c-2.1,0-3.3,1-3.3,2.6v1c0,1.9,1.6,3,3.5,3c1.8,0,3-0.9,3.7-1.8l0.4,1.5h3
	v-6.6c0-3.1-1.5-4-4.3-4c-1.5,0-4.1,0.2-5.7,0.5L648.1,383.6z M645.5,380.9h-6.2c-1.8,0-2.7,0.9-2.9,2.7c-0.1,1.9-0.3,3.3-0.5,4.1
	c-0.2,0.8-0.8,0.8-1.8,1l0.4,2.8c2.3,0.4,4.3-0.1,4.8-2.7c0.2-1,0.4-2.8,0.6-4.4c0.1-0.6,0.4-0.9,1-0.9h0.9v7.8h3.8L645.5,380.9
	L645.5,380.9z M632.8,391.2v-10.4h-3.3l-3.3,5c-0.3,0.5-0.6,0.9-0.8,1.5h-0.1c0.1-0.6,0.1-1.1,0.1-1.6v-4.9H622v10.4h3.3l3.2-4.7
	c0.3-0.5,0.6-1.2,0.8-1.7h0.1c-0.1,0.7-0.1,1.2-0.1,1.8v4.6L632.8,391.2L632.8,391.2z M616,383.7c2.8-0.4,2.9-1.7,4.4-6.8h-4
	c-1.3,4.3-1.5,5.6-2.9,5.6h-0.7c0.1-0.6,0.2-1.2,0.2-1.8v-3.8h-3.7v3.8c0,0.6,0.1,1.2,0.2,1.8h-0.7c-1.4,0-1.6-1.3-2.9-5.6h-4
	c1.5,5.1,1.6,6.4,4.4,6.8v0.1c-2.9,0.4-3.1,1.5-4.8,7.4h4.1c1.6-5.2,1.8-6.1,3.2-6.1h0.7c-0.1,0.5-0.2,0.9-0.2,1.3v4.8h3.7v-4.8
	c0-0.4-0.1-0.9-0.2-1.3h0.7c1.5,0,1.6,0.9,3.2,6.1h4.1c-1.7-5.9-1.9-7-4.8-7.4V383.7z"/>
<path class="st4" d="M273.7,354.2H272v-5.9h-3l-0.6,2.2v3.7h-2.8c-0.3,0-0.5-0.2-0.4-0.6l3.2-8.1h-3.7l-3.6,9.1
	c-0.5,1.1,0.3,2.2,1.5,2.2h5.8v3h3.6v-3l0,0l1.7-0.4V354.2z M257.6,356.2c-1,0-1.3,0.3-1.3,1.3v0.9c0,1,0.3,1.3,1.3,1.3h0.9
	c1,0,1.3-0.3,1.3-1.3v-0.9c0-1-0.3-1.3-1.3-1.3H257.6z M244.6,348.2c1.1,0,2.5,0,4,0s1.9,0.2,1.9,1.4c0,1-0.1,1.6-1.7,1.6H246v2.5
	h2.8c1.5,0,1.9,0.5,1.9,1.7c0,1.5-0.5,1.7-2.4,1.7c-1.3,0-2.2,0-4-0.1l-0.1,2.8c1.6,0.2,3.4,0.4,5.2,0.4c3.8,0,5.2-1.2,5.2-4.3
	c0-2.2-0.6-3.3-2.7-3.6v-0.1c1.9-0.3,2.3-1.6,2.3-3.6c0-2.6-1.3-3.4-4.9-3.4c-1.6,0-3.2,0.1-4.8,0.4L244.6,348.2z M241.8,359.8
	v-14.4h-3.9l-3.6,1.4l0.5,2.5l3.3-0.7c-0.1,0.6-0.1,1.1-0.1,1.7v9.5H241.8z"/>
<path class="st4" d="M328,331.2c0-0.5,0.2-0.8,0.9-0.8h2.2v1.3c-0.7,0.4-1.4,0.7-2,0.7c-0.7,0-1-0.3-1-0.8v-0.4H328z M325.1,327.1
	c1.7-0.1,3.4-0.1,4.4-0.1c1.1,0,1.4,0.3,1.4,1.2v0.2h-3.4c-2.1,0-3.3,1-3.3,2.6v1c0,1.9,1.6,3,3.5,3c1.8,0,3-0.9,3.7-1.8l0.4,1.5h3
	v-6.6c0-3.1-1.5-4-4.3-4c-1.5,0-4.1,0.2-5.7,0.5L325.1,327.1z M323.5,327.3v-2.9h-10.3v2.9h3.3v7.5h3.8v-7.5H323.5z M305,331.2
	c0-0.5,0.2-0.8,0.9-0.8h2.2v1.3c-0.7,0.4-1.4,0.7-2,0.7c-0.7,0-1-0.3-1-0.8v-0.4H305z M302.1,327.1c1.7-0.1,3.4-0.1,4.4-0.1
	c1.1,0,1.4,0.3,1.4,1.2v0.2h-3.4c-2.1,0-3.3,1-3.3,2.6v1c0,1.9,1.6,3,3.5,3c1.8,0,3-0.9,3.7-1.8l0.4,1.5h3v-6.6c0-3.1-1.5-4-4.3-4
	c-1.5,0-4.1,0.2-5.7,0.5L302.1,327.1z M299.5,324.4h-3.7v3.6h-3.2v-3.6h-3.7v10.4h3.7v-4.2h3.2v4.2h3.7V324.4z M282,324.4
	c-0.8,0-1.3,0.4-1.4,1.2l-0.9,3.9c-0.1,0.5-0.1,1-0.2,1.5h-0.2c-0.1-0.5-0.1-1-0.2-1.5l-0.9-3.9c-0.1-0.8-0.6-1.2-1.4-1.2h-3.2
	c-0.9,0-1.3,0.4-1.3,1.3l-0.3,9.1h3.4l0.2-7.6h0.3l1.2,5c0.1,0.8,0.6,1.1,1.4,1.1h1.7c0.8,0,1.3-0.4,1.4-1.1l1.2-5h0.2l0.3,7.6h3.4
	l-0.3-9.1c0-0.9-0.4-1.3-1.3-1.3H282z M264.8,326.8c1.3,0,1.6,0.5,1.6,2.8s-0.3,2.8-1.6,2.8c-1.3,0-1.6-0.5-1.6-2.8
	C263.2,327.3,263.5,326.8,264.8,326.8 M264.8,324.1c-4.1,0-5.6,1.5-5.6,5.5s1.5,5.4,5.6,5.4s5.6-1.4,5.6-5.4
	S268.8,324.1,264.8,324.1 M254.4,329.3c2.4-0.4,2.2-0.6,3.6-4.9h-3.8c-0.9,3.5-1,3.7-2.4,3.7h-0.5c0.1-0.4,0.1-0.9,0.1-1.3v-2.4
	h-3.8v10.4h3.8v-3.3c0-0.2,0-0.5-0.1-0.8h0.8c1.1,0,1.2,0.3,2.3,4.1h3.9c-1.4-4.9-1.5-5-3.9-5.3L254.4,329.3L254.4,329.3z
	 M237.3,329.1h-1.5c-1,0-1.2-0.3-1.2-1.3c0-0.8,0.2-1,1.2-1h1.5V329.1z M233.2,330.4c-0.6,0.1-1.7,0.2-2,1.1l-0.8,3.3h3.9l0.6-2.8
	c0.1-0.5,0.3-0.6,1-0.6h1.4v3.4h3.7v-10.4c-1.3-0.1-2.4-0.2-5.2-0.2c-3.8,0-4.7,0.7-4.7,3.3C231,328.8,231.5,330,233.2,330.4
	L233.2,330.4z M222.2,331.2c0-0.5,0.2-0.8,0.9-0.8h2.2v1.3c-0.7,0.4-1.4,0.7-2,0.7c-0.7,0-1-0.3-1-0.8L222.2,331.2L222.2,331.2z
	 M219.4,327.1c1.7-0.1,3.4-0.1,4.4-0.1c1.1,0,1.4,0.3,1.4,1.2v0.2h-3.4c-2.1,0-3.3,1-3.3,2.6v1c0,1.9,1.6,3,3.5,3
	c1.8,0,3-0.9,3.7-1.8l0.4,1.5h3v-6.6c0-3.1-1.5-4-4.3-4c-1.5,0-4.1,0.2-5.7,0.5L219.4,327.1z M216.8,324.4h-6.2
	c-1.8,0-2.7,0.9-2.9,2.7c-0.1,1.9-0.3,3.3-0.5,4.1c-0.2,0.8-0.8,0.8-1.8,1l0.4,2.8c2.3,0.4,4.3-0.1,4.8-2.7c0.2-1,0.4-2.8,0.6-4.4
	c0.1-0.6,0.4-0.9,1-0.9h0.9v7.8h3.8v-10.4H216.8z M204.1,334.8v-10.4h-3.3l-3.3,5c-0.3,0.5-0.6,0.9-0.8,1.5h-0.1
	c0.1-0.6,0.1-1.1,0.1-1.6v-4.9h-3.4v10.4h3.3l3.2-4.7c0.3-0.5,0.6-1.2,0.8-1.7h0.1c-0.1,0.7-0.1,1.2-0.1,1.8v4.6L204.1,334.8
	L204.1,334.8z M187.3,327.2c2.8-0.4,2.9-1.7,4.4-6.8h-4c-1.3,4.3-1.5,5.6-2.9,5.6h-0.7c0.1-0.6,0.2-1.2,0.2-1.8v-3.8h-3.7v3.8
	c0,0.6,0.1,1.2,0.2,1.8H180c-1.4,0-1.6-1.3-2.9-5.6h-4c1.5,5.1,1.6,6.4,4.4,6.8v0.1c-2.9,0.4-3.1,1.5-4.8,7.4h4.1
	c1.6-5.2,1.8-6.1,3.2-6.1h0.7c-0.1,0.5-0.2,0.9-0.2,1.3v4.8h3.7V330c0-0.4-0.1-0.9-0.2-1.3h0.7c1.5,0,1.6,0.9,3.2,6.1h4.1
	c-1.7-5.9-1.9-7-4.8-7.4v-0.2H187.3z"/>
<path class="st4" d="M360.6,540.8c1.1,0,2.5,0,4,0s1.9,0.2,1.9,1.4c0,1-0.1,1.6-1.7,1.6h-2.7v2.5h2.7c1.5,0,1.9,0.5,1.9,1.7
	c0,1.5-0.5,1.7-2.4,1.7c-1.3,0-2.2,0-4-0.1l-0.1,2.8c1.6,0.2,3.4,0.4,5.2,0.4c3.8,0,5.2-1.2,5.2-4.3c0-2.2-0.6-3.3-2.7-3.6v-0.1
	c1.9-0.3,2.3-1.6,2.3-3.6c0-2.6-1.3-3.4-4.9-3.4c-1.6,0-3.2,0.1-4.8,0.4L360.6,540.8z M356.4,548.8c-1,0-1.3,0.3-1.3,1.3v0.9
	c0,1,0.3,1.3,1.3,1.3h0.9c1,0,1.3-0.3,1.3-1.3v-0.9c0-1-0.3-1.3-1.3-1.3H356.4z M344.3,538l0.2,3.1h6.2c-0.3,0.5-0.5,1-0.7,1.5
	l-3.5,9.7h3.8l4.3-12.5c0.4-1.1-0.3-1.9-1.5-1.9h-8.8V538z M342.2,552.4V538h-3.9l-3.6,1.4l0.5,2.5l3.3-0.7
	c-0.1,0.6-0.1,1.1-0.1,1.7v9.5H342.2z"/>
<path class="st4" d="M426.8,523.8c0-0.5,0.2-0.8,0.9-0.8h2.2v1.3c-0.7,0.4-1.4,0.7-2,0.7c-0.7,0-1-0.3-1-0.8v-0.4H426.8z M424,519.7
	c1.7-0.1,3.4-0.1,4.4-0.1c1.1,0,1.4,0.3,1.4,1.2v0.2h-3.4c-2.1,0-3.3,1-3.3,2.6v1c0,1.9,1.6,3,3.5,3c1.8,0,3-0.9,3.7-1.8l0.4,1.5h3
	v-6.6c0-3.1-1.5-4-4.3-4c-1.5,0-4.1,0.2-5.7,0.5L424,519.7z M422.3,519.9V517H412v2.9h3.3v7.5h3.8v-7.5H422.3z M403.8,523.8
	c0-0.5,0.2-0.8,0.9-0.8h2.2v1.3c-0.7,0.4-1.4,0.7-2,0.7c-0.7,0-1-0.3-1-0.8v-0.4H403.8z M401,519.7c1.7-0.1,3.4-0.1,4.4-0.1
	c1.1,0,1.4,0.3,1.4,1.2v0.2h-3.4c-2.1,0-3.3,1-3.3,2.6v1c0,1.9,1.6,3,3.5,3c1.8,0,3-0.9,3.7-1.8l0.4,1.5h3v-6.6c0-3.1-1.5-4-4.3-4
	c-1.5,0-4.1,0.2-5.7,0.5L401,519.7z M398.4,517h-3.7v3.6h-3.2V517h-3.7v10.4h3.7v-4.2h3.2v4.2h3.7V517z M380.9,517
	c-0.8,0-1.3,0.4-1.4,1.2l-0.9,3.9c-0.1,0.5-0.1,1-0.2,1.5h-0.2c-0.1-0.5-0.1-1-0.2-1.5l-0.9-3.9c-0.1-0.8-0.6-1.2-1.4-1.2h-3.2
	c-0.9,0-1.3,0.4-1.3,1.3l-0.3,9.1h3.4l0.2-7.6h0.3l1.2,5c0.1,0.8,0.6,1.1,1.4,1.1h1.7c0.8,0,1.3-0.4,1.4-1.1l1.2-5h0.2l0.3,7.6h3.4
	l-0.3-9.1c0-0.9-0.4-1.3-1.3-1.3H380.9z M363.6,519.4c1.3,0,1.6,0.5,1.6,2.8s-0.3,2.8-1.6,2.8c-1.3,0-1.6-0.5-1.6-2.8
	S362.3,519.4,363.6,519.4 M363.6,516.7c-4.1,0-5.6,1.5-5.6,5.5s1.5,5.4,5.6,5.4s5.6-1.4,5.6-5.4S367.7,516.7,363.6,516.7
	 M353.3,521.9c2.4-0.4,2.2-0.6,3.6-4.9H353c-0.9,3.5-1,3.7-2.4,3.7h-0.5c0.1-0.4,0.1-0.9,0.1-1.3V517h-3.8v10.4h3.8v-3.3
	c0-0.2,0-0.5-0.1-0.8h0.8c1.1,0,1.2,0.3,2.3,4.1h3.9c-1.4-4.9-1.5-5-3.9-5.3v-0.2H353.3z M336.2,521.7h-1.5c-1,0-1.2-0.3-1.2-1.3
	c0-0.8,0.2-1,1.2-1h1.5V521.7z M332.1,523c-0.6,0.1-1.7,0.2-2,1.1l-0.8,3.3h3.9l0.6-2.8c0.1-0.5,0.3-0.6,1-0.6h1.4v3.4h3.7V517
	c-1.3-0.1-2.4-0.2-5.2-0.2c-3.8,0-4.7,0.7-4.7,3.3C329.8,521.3,330.3,522.5,332.1,523L332.1,523z M321.1,523.8
	c0-0.5,0.2-0.8,0.9-0.8h2.2v1.3c-0.7,0.4-1.4,0.7-2,0.7c-0.7,0-1-0.3-1-0.8v-0.4H321.1z M318.2,519.7c1.7-0.1,3.4-0.1,4.4-0.1
	c1.1,0,1.4,0.3,1.4,1.2v0.2h-3.4c-2.1,0-3.3,1-3.3,2.6v1c0,1.9,1.6,3,3.5,3c1.8,0,3-0.9,3.7-1.8l0.4,1.5h3v-6.6c0-3.1-1.5-4-4.3-4
	c-1.5,0-4.1,0.2-5.7,0.5L318.2,519.7z M315.6,517h-6.2c-1.8,0-2.7,0.9-2.9,2.7c-0.1,1.9-0.3,3.3-0.5,4.1s-0.8,0.8-1.8,1l0.4,2.8
	c2.3,0.4,4.3-0.1,4.8-2.7c0.2-1,0.4-2.8,0.6-4.4c0.1-0.6,0.4-0.9,1-0.9h0.9v7.8h3.8L315.6,517L315.6,517z M303,527.4V517h-3.3
	l-3.3,5c-0.3,0.5-0.6,0.9-0.8,1.5h-0.1c0.1-0.6,0.1-1.1,0.1-1.6V517h-3.4v10.4h3.3l3.2-4.7c0.3-0.5,0.6-1.2,0.8-1.7h0.1
	c-0.1,0.7-0.1,1.2-0.1,1.8v4.6L303,527.4L303,527.4z M286.1,519.8c2.8-0.4,2.9-1.7,4.4-6.8h-4c-1.3,4.3-1.5,5.6-2.9,5.6H283
	c0.1-0.6,0.2-1.2,0.2-1.8V513h-3.7v3.8c0,0.6,0.1,1.2,0.2,1.8H279c-1.4,0-1.6-1.3-2.9-5.6h-4c1.5,5.1,1.6,6.4,4.4,6.8v0.1
	c-2.9,0.4-3.1,1.5-4.8,7.4h4.1c1.6-5.2,1.8-6.1,3.2-6.1h0.7c-0.1,0.5-0.2,0.9-0.2,1.3v4.8h3.7v-4.8c0-0.4-0.1-0.9-0.2-1.3h0.7
	c1.5,0,1.6,0.9,3.2,6.1h4.1c-1.7-5.9-1.9-7-4.8-7.4v-0.1H286.1z"/>
<path class="st4" d="M491.3,387.5c0.5-0.3,0.8-0.5,1.4-0.5c0.7,0,0.9,0.3,0.9,1.9c0,1.7-0.3,1.9-1,1.9c-0.5,0-0.9-0.1-1.3-0.2V387.5
	z M490.8,385.2h-2.1v9.9h2.6v-1.6c0-0.5,0-1.1,0-1.6c0.6,0.5,1.4,0.7,2.3,0.7c1.8,0,2.8-0.8,2.8-3.7c0-2.5-0.7-3.9-2.6-3.9
	c-1.2,0-2.3,0.5-2.8,1.2L490.8,385.2z M483.5,386.9c0.9,0,1.1,0.4,1.1,2s-0.2,1.9-1.1,1.9s-1.1-0.4-1.1-1.9
	C482.3,387.2,482.6,386.9,483.5,386.9 M483.5,385c-2.9,0-3.9,1-3.9,3.8s1,3.8,3.9,3.8c2.8,0,3.9-1,3.9-3.8S486.3,385,483.5,385
	 M475.1,390.7H473c0.4-0.8,0.6-1.8,0.8-3.2c0-0.4,0.3-0.6,0.6-0.6h0.7V390.7z M478.8,390.7h-1.2v-5.5h-4c-1.3,0-1.9,0.6-2.1,1.8
	c-0.2,1.3-0.4,2.5-0.9,3.7h-0.9v3.8h1.7l0.2-2h5.2l0.2,2h1.8L478.8,390.7L478.8,390.7z M468.8,392.5v-7.3h-2.3l-2.3,3.5
	c-0.2,0.3-0.4,0.7-0.6,1.1h-0.1c0.1-0.4,0.1-0.7,0.1-1.1v-3.4h-2.3v7.2h2.3l2.3-3.3c0.2-0.3,0.5-0.8,0.6-1.2h0.1
	c-0.1,0.5-0.1,0.9-0.1,1.3v3.3h2.3V392.5z M455,387.5c0.5-0.3,0.8-0.5,1.4-0.5c0.7,0,0.9,0.3,0.9,1.9c0,1.7-0.3,1.9-1,1.9
	c-0.5,0-0.9-0.1-1.3-0.2V387.5z M454.5,385.2h-2.1v9.9h2.6v-1.6c0-0.5,0-1.1,0-1.6c0.6,0.5,1.4,0.7,2.3,0.7c1.8,0,2.8-0.8,2.8-3.7
	c0-2.5-0.7-3.9-2.6-3.9c-1.2,0-2.3,0.5-2.8,1.2L454.5,385.2z M447.2,386.9c0.9,0,1.1,0.4,1.1,2s-0.2,1.9-1.1,1.9s-1.1-0.4-1.1-1.9
	C446.1,387.2,446.3,386.9,447.2,386.9 M447.2,385c-2.9,0-3.9,1-3.9,3.8s1.1,3.8,3.9,3.8s3.9-1,3.9-3.8S450,385,447.2,385
	 M439.3,387.2c2-0.3,2.1-1.2,3.2-4.8h-2.8c-0.8,3-1,3.9-2.4,3.9h-0.5c0.1-0.4,0.1-0.8,0.1-1.3v-2.7h-2.7v10.1h2.7V389
	c0-0.3,0-0.6-0.1-0.9h0.5c1.4,0,1.5,0.7,2.6,4.3h2.9C441.5,388.3,441.4,387.5,439.3,387.2L439.3,387.2z"/>
<g>
	<path class="st4" d="M704.9,503.4c0.3,0,0.7,0,1.3,0c0.5,0,1.1,0.1,1.7,0.3l-0.1,2c-0.3,0-0.6,0-0.9,0c-0.3,0-0.5,0-0.8,0
		s-0.7,0-1.1,0c-0.4,0-0.7,0-0.9,0.1s-0.4,0.2-0.5,0.5c-0.1,0.2-0.2,0.6-0.2,1.1s0,1.1,0,1.8c0,0.7,0,1.2,0,1.6s0.1,0.7,0.1,0.9
		c0.1,0.2,0.2,0.3,0.3,0.4c0.2,0.1,0.4,0.1,0.6,0.1c0.3,0,0.6,0,0.7-0.1c0.1-0.1,0.2-0.3,0.3-0.5c0-0.2,0-0.5,0-1
		c0-0.3,0-0.6-0.1-0.7c-0.1-0.2-0.2-0.3-0.3-0.3c-0.2-0.1-0.4-0.1-0.7-0.1c-0.2,0-0.5,0-0.6,0.1c-0.2,0.1-0.4,0.2-0.7,0.3
		c-0.2,0.1-0.6,0.3-1,0.6l-0.1-1.1c0.4-0.5,0.7-1,1-1.3s0.7-0.5,1-0.6c0.4-0.1,0.8-0.2,1.4-0.2c0.8,0,1.5,0.1,2,0.3
		c0.5,0.2,0.8,0.6,1,1.1s0.3,1.1,0.3,1.9c0,0.7-0.1,1.3-0.2,1.8c-0.1,0.5-0.3,0.9-0.6,1.2s-0.7,0.6-1.3,0.7s-1.3,0.2-2.1,0.2
		s-1.5-0.1-2.1-0.2c-0.6-0.2-1-0.4-1.3-0.8c-0.3-0.4-0.6-1-0.7-1.7c-0.2-0.7-0.2-1.6-0.2-2.7c0-1.2,0.1-2.2,0.3-3
		c0.2-0.7,0.5-1.3,0.9-1.7c0.4-0.4,0.9-0.7,1.5-0.8C703.3,503.4,704.1,503.4,704.9,503.4z"/>
	<path class="st4" d="M711.3,511.4c0.4,0,0.7,0.1,0.9,0.2c0.2,0.2,0.2,0.5,0.2,0.9v0.6c0,0.4-0.1,0.7-0.2,0.9
		c-0.2,0.2-0.5,0.3-0.9,0.3h-0.7c-0.4,0-0.7-0.1-0.9-0.3s-0.2-0.5-0.2-0.9v-0.6c0-0.4,0.1-0.7,0.2-0.9c0.2-0.2,0.5-0.2,0.9-0.2
		H711.3z"/>
	<path class="st4" d="M717.4,503.3c0.9,0,1.7,0.1,2.2,0.2c0.5,0.2,0.9,0.4,1.2,0.8c0.2,0.4,0.4,0.9,0.4,1.5c0,0.5,0,1-0.1,1.4
		s-0.3,0.7-0.5,0.9c-0.3,0.2-0.6,0.4-1.1,0.4v0.1c0.8,0.1,1.3,0.4,1.6,0.8s0.4,1.1,0.5,1.9c0,0.8-0.1,1.4-0.4,1.9
		c-0.3,0.5-0.7,0.8-1.3,1s-1.4,0.3-2.4,0.3c-0.7,0-1.3,0-2-0.1s-1.4-0.1-2-0.2l0.1-2.4c0.5,0,0.9,0,1.2,0s0.6,0,0.9,0
		c0.3,0,0.6,0,0.9,0c0.4,0,0.8,0,1-0.1c0.2,0,0.4-0.1,0.5-0.3c0.1-0.2,0.1-0.4,0.1-0.7c0-0.3,0-0.5-0.1-0.7s-0.2-0.3-0.4-0.3
		c-0.2-0.1-0.4-0.1-0.8-0.1h-2.1v-2.1h2.1c0.3,0,0.5,0,0.6-0.1c0.1,0,0.3-0.1,0.3-0.2c0.1-0.1,0.1-0.2,0.1-0.3c0-0.1,0-0.3,0-0.4
		c0-0.2,0-0.4-0.1-0.5s-0.2-0.2-0.4-0.3c-0.2,0-0.4-0.1-0.7-0.1c-0.6,0-1.1,0-1.7,0c-0.5,0-1,0-1.4,0l-0.1-2.3
		c0.6-0.1,1.3-0.2,1.9-0.2C716.2,503.4,716.8,503.3,717.4,503.3z"/>
</g>
<g>
	<path class="st4" d="M515.3,335.2c0.8,0,1.5,0.1,2.1,0.2s1.1,0.4,1.4,0.8c0.3,0.4,0.5,0.9,0.5,1.7c0,0.4,0,0.7-0.1,1
		s-0.2,0.6-0.5,1c-0.2,0.3-0.6,0.7-1.1,1.2l-2.5,2.4c0.2-0.1,0.5-0.1,0.7-0.1s0.5,0,0.7,0h3v2.8h-8.3v-1.7c0-0.3,0-0.5,0.1-0.7
		s0.2-0.4,0.4-0.6l2.2-2.2c0.6-0.6,1-1.1,1.4-1.6c0.3-0.5,0.5-0.8,0.5-1c0-0.1,0-0.2-0.1-0.2s-0.2-0.1-0.3-0.1s-0.3,0-0.6,0
		c-0.4,0-0.7,0-1.1,0c-0.3,0-0.7,0-1.1,0c-0.4,0-0.8,0-1.3,0l-0.1-2.5c0.5-0.1,1-0.2,1.5-0.2s0.9-0.1,1.3-0.1
		C514.4,335.3,514.9,335.2,515.3,335.2z"/>
	<path class="st4" d="M522.4,343.3c0.4,0,0.7,0.1,0.9,0.2c0.2,0.2,0.2,0.5,0.2,0.9v0.6c0,0.4-0.1,0.7-0.2,0.9
		c-0.2,0.2-0.5,0.2-0.9,0.2h-0.7c-0.4,0-0.7-0.1-0.9-0.2c-0.2-0.2-0.2-0.5-0.2-0.9v-0.6c0-0.4,0.1-0.7,0.2-0.9
		c0.2-0.2,0.5-0.2,0.9-0.2H522.4z"/>
	<path class="st4" d="M529.2,335.2c1.1,0,2.1,0.2,2.7,0.5c0.7,0.3,1.2,0.9,1.4,1.7c0.3,0.8,0.4,1.9,0.4,3.4c0,1.4-0.1,2.5-0.4,3.4
		c-0.3,0.8-0.8,1.4-1.4,1.7c-0.7,0.3-1.6,0.5-2.7,0.5c-1.1,0-2-0.2-2.7-0.5s-1.2-0.9-1.4-1.7c-0.3-0.8-0.4-1.9-0.4-3.4
		c0-1.4,0.1-2.5,0.4-3.4c0.3-0.8,0.8-1.4,1.4-1.7C527.1,335.4,528,335.2,529.2,335.2z M529.1,337.7c-0.3,0-0.5,0-0.6,0.1
		c-0.2,0.1-0.3,0.2-0.4,0.4c-0.1,0.2-0.2,0.5-0.2,0.9s-0.1,1-0.1,1.7s0,1.3,0.1,1.7s0.1,0.7,0.2,0.9c0.1,0.2,0.2,0.3,0.4,0.4
		s0.4,0.1,0.6,0.1c0.3,0,0.5,0,0.6-0.1c0.2-0.1,0.3-0.2,0.4-0.4c0.1-0.2,0.2-0.5,0.2-0.9s0.1-1,0.1-1.7s0-1.2-0.1-1.7
		c0-0.4-0.1-0.7-0.2-0.9c-0.1-0.2-0.2-0.3-0.4-0.4C529.6,337.8,529.4,337.7,529.1,337.7z"/>
</g>
<g>
	<path class="st4" d="M407.3,330.3c0.9,0,1.7,0.1,2.2,0.2c0.5,0.2,0.9,0.4,1.2,0.8c0.2,0.4,0.4,0.9,0.4,1.5c0,0.5,0,1-0.1,1.4
		s-0.3,0.7-0.5,0.9c-0.3,0.2-0.6,0.4-1.1,0.4v0.1c0.8,0.1,1.3,0.4,1.6,0.8c0.3,0.4,0.4,1.1,0.5,1.9c0,0.8-0.1,1.4-0.4,1.9
		s-0.7,0.8-1.3,1c-0.6,0.2-1.4,0.3-2.4,0.3c-0.7,0-1.3,0-2-0.1s-1.4-0.1-2-0.2l0.1-2.4c0.5,0,0.9,0,1.2,0c0.3,0,0.6,0,0.9,0
		s0.6,0,0.9,0c0.4,0,0.8,0,1-0.1c0.2,0,0.4-0.1,0.5-0.3c0.1-0.2,0.1-0.4,0.1-0.7c0-0.3,0-0.5-0.1-0.7s-0.2-0.3-0.4-0.3
		c-0.2-0.1-0.4-0.1-0.8-0.1h-2.1v-2.1h2.1c0.3,0,0.5,0,0.6-0.1c0.1,0,0.3-0.1,0.3-0.2c0.1-0.1,0.1-0.2,0.1-0.3c0-0.1,0-0.3,0-0.4
		c0-0.2,0-0.4-0.1-0.5s-0.2-0.2-0.4-0.3c-0.2,0-0.4-0.1-0.7-0.1c-0.6,0-1.1,0-1.7,0c-0.5,0-1,0-1.4,0l-0.1-2.3
		c0.6-0.1,1.3-0.2,1.9-0.2C406.1,330.3,406.7,330.3,407.3,330.3z"/>
	<path class="st4" d="M414.3,338.4c0.4,0,0.7,0.1,0.9,0.2s0.2,0.5,0.2,0.9v0.6c0,0.4-0.1,0.7-0.2,0.9c-0.2,0.2-0.5,0.2-0.9,0.2h-0.7
		c-0.4,0-0.7-0.1-0.9-0.2c-0.2-0.2-0.2-0.5-0.2-0.9v-0.6c0-0.4,0.1-0.7,0.2-0.9s0.5-0.2,0.9-0.2H414.3z"/>
	<path class="st4" d="M422.6,330.5c0.3,0,0.6,0.1,0.8,0.2c0.2,0.1,0.4,0.3,0.5,0.6c0.1,0.2,0.1,0.5,0,0.8l-3.2,9.2h-3.3l2.5-6.8
		c0.1-0.2,0.2-0.4,0.2-0.6c0.1-0.2,0.2-0.4,0.4-0.6H416l-0.1-2.7h6.7V330.5z"/>
</g>
<g>
	<path class="st4" d="M454.5,402.7l-2.2,6c0,0.1,0,0.2,0,0.3c0.1,0.1,0.1,0.1,0.3,0.1h6v1.8l-1.2,0.3H450c-0.3,0-0.5-0.1-0.8-0.2
		c-0.2-0.1-0.4-0.3-0.4-0.6c-0.1-0.2-0.1-0.5,0-0.8l2.6-7h3.1V402.7z M457.3,404.8v8.6h-3.1v-7l0.5-1.7h2.6V404.8z"/>
	<path class="st4" d="M461.2,410.6c0.4,0,0.7,0.1,0.9,0.2s0.2,0.5,0.2,0.9v0.6c0,0.4-0.1,0.7-0.2,0.9c-0.2,0.2-0.5,0.2-0.9,0.2h-0.7
		c-0.4,0-0.7-0.1-0.9-0.2c-0.2-0.2-0.2-0.5-0.2-0.9v-0.6c0-0.4,0.1-0.7,0.2-0.9s0.5-0.2,0.9-0.2H461.2z"/>
	<path class="st4" d="M469.5,402.7c0.3,0,0.6,0.1,0.8,0.2c0.2,0.1,0.4,0.3,0.5,0.6c0.1,0.2,0.1,0.5,0,0.8l-3.2,9.2h-3.3l2.5-6.8
		c0.1-0.2,0.2-0.4,0.2-0.6c0.1-0.2,0.2-0.4,0.4-0.6h-4.5l-0.1-2.7h6.7V402.7z"/>
</g>
<g>
	<path class="st4" d="M666.1,397.9c1,0,1.9,0.1,2.7,0.3c0.8,0.2,1.4,0.5,1.8,1c0.4,0.5,0.6,1.2,0.6,2.1c0,0.5,0,0.9-0.1,1.3
		s-0.3,0.8-0.6,1.2c-0.3,0.4-0.8,1-1.4,1.6l-3.3,3.1c0.3-0.1,0.6-0.2,0.9-0.2c0.3,0,0.6,0,0.9,0h3.9v3.7h-10.7v-2.2
		c0-0.3,0-0.7,0.1-0.9s0.2-0.5,0.5-0.8l2.9-2.8c0.7-0.7,1.3-1.4,1.8-2c0.4-0.6,0.7-1,0.7-1.3c0-0.1,0-0.2-0.1-0.3
		c-0.1-0.1-0.2-0.1-0.4-0.1s-0.4,0-0.7,0c-0.5,0-1,0-1.4,0s-0.9,0-1.4,0s-1.1,0-1.7,0l-0.1-3.2c0.7-0.1,1.3-0.2,1.9-0.3
		c0.6-0.1,1.1-0.1,1.7-0.1C665.1,397.9,665.6,397.9,666.1,397.9z"/>
	<path class="st4" d="M678.2,397.9c1,0,1.9,0.1,2.7,0.3c0.8,0.2,1.4,0.5,1.8,1c0.4,0.5,0.6,1.2,0.6,2.1c0,0.5,0,0.9-0.1,1.3
		s-0.3,0.8-0.6,1.2c-0.3,0.4-0.8,1-1.4,1.6l-3.3,3.1c0.3-0.1,0.6-0.2,0.9-0.2c0.3,0,0.6,0,0.9,0h3.9v3.7h-10.7v-2.2
		c0-0.3,0-0.7,0.1-0.9s0.2-0.5,0.5-0.8l2.9-2.8c0.7-0.7,1.3-1.4,1.8-2c0.4-0.6,0.7-1,0.7-1.3c0-0.1,0-0.2-0.1-0.3
		c-0.1-0.1-0.2-0.1-0.4-0.1s-0.4,0-0.7,0c-0.5,0-1,0-1.4,0s-0.9,0-1.4,0s-1.1,0-1.7,0l-0.1-3.2c0.7-0.1,1.3-0.2,1.9-0.3
		c0.6-0.1,1.1-0.1,1.7-0.1C677.1,397.9,677.6,397.9,678.2,397.9z"/>
	<path class="st4" d="M687.3,408.2c0.5,0,0.9,0.1,1.1,0.3c0.2,0.2,0.3,0.6,0.3,1.1v0.8c0,0.5-0.1,0.9-0.3,1.1s-0.6,0.3-1.1,0.3h-0.9
		c-0.5,0-0.9-0.1-1.1-0.3c-0.2-0.2-0.3-0.6-0.3-1.1v-0.8c0-0.5,0.1-0.9,0.3-1.1s0.6-0.3,1.1-0.3H687.3z"/>
	<path class="st4" d="M696,397.8c1.5,0,2.6,0.2,3.5,0.7c0.9,0.4,1.5,1.2,1.9,2.2c0.4,1.1,0.6,2.5,0.6,4.3s-0.2,3.3-0.6,4.3
		c-0.4,1.1-1,1.8-1.9,2.2c-0.9,0.4-2,0.7-3.5,0.7s-2.6-0.2-3.5-0.7c-0.9-0.4-1.5-1.2-1.9-2.2s-0.6-2.5-0.6-4.3s0.2-3.3,0.6-4.3
		c0.4-1,1-1.8,1.9-2.2C693.4,398.1,694.6,397.8,696,397.8z M696,401.1c-0.3,0-0.6,0-0.8,0.1s-0.4,0.3-0.5,0.5
		c-0.1,0.3-0.2,0.7-0.2,1.2s-0.1,1.2-0.1,2.1s0,1.6,0.1,2.1c0,0.5,0.1,0.9,0.2,1.2c0.1,0.3,0.3,0.4,0.5,0.5s0.5,0.1,0.8,0.1
		s0.6,0,0.8-0.1s0.4-0.3,0.5-0.5c0.1-0.3,0.2-0.7,0.3-1.2c0-0.5,0.1-1.2,0.1-2.1s0-1.6-0.1-2.1c0-0.5-0.1-0.9-0.3-1.2
		c-0.1-0.3-0.3-0.4-0.5-0.5S696.3,401.1,696,401.1z"/>
</g>
<g>
	<path class="st4" d="M648.5,329.7c3,0,5.4,0.2,7.2,0.6c1.9,0.4,3.3,1,4.3,1.8s1.7,1.8,2.1,3.1c0.4,1.2,0.6,2.7,0.6,4.5
		c0,1.2-0.2,2.5-0.6,3.7c-0.4,1.2-1,2.3-1.8,3.2c-0.8,0.9-2,1.4-3.3,1.5v0.2c1.9,0.1,3.3,0.7,4.2,1.7c1,1,1.6,2.2,2,3.6
		s0.5,3,0.5,4.5c0,2.5-0.4,4.4-1.2,5.9s-2.3,2.5-4.5,3.1s-5.3,0.9-9.4,0.9c-4,0-7.1-0.3-9.3-0.9s-3.7-1.7-4.6-3.1
		c-0.9-1.5-1.3-3.4-1.3-5.9c0-1.6,0.2-3.1,0.5-4.5c0.4-1.4,1-2.7,2-3.6c1-1,2.4-1.5,4.2-1.7v-0.2c-1.4-0.1-2.5-0.6-3.3-1.5
		c-0.9-0.9-1.5-1.9-1.9-3.2c-0.4-1.2-0.6-2.5-0.6-3.7c0-1.7,0.2-3.2,0.6-4.5c0.4-1.2,1.1-2.3,2.1-3.1c1-0.8,2.5-1.4,4.3-1.8
		C643.2,329.9,645.6,329.7,648.5,329.7z M648.6,351.8c-0.9,0-1.6,0.1-2.2,0.2c-0.6,0.1-1,0.3-1.3,0.6c-0.3,0.3-0.5,0.7-0.6,1.3
		c-0.1,0.6-0.2,1.3-0.2,2.2c0,1.1,0.1,1.9,0.3,2.5s0.7,1,1.3,1.2s1.5,0.3,2.7,0.3c1.1,0,2-0.1,2.6-0.3c0.6-0.2,1-0.6,1.2-1.2
		s0.3-1.4,0.3-2.5c0-0.9-0.1-1.6-0.2-2.2c-0.1-0.6-0.3-1-0.6-1.3s-0.7-0.5-1.2-0.6C650.2,351.8,649.5,351.8,648.6,351.8z
		 M648.6,337.2c-1,0-1.8,0.1-2.4,0.3c-0.6,0.2-0.9,0.6-1.1,1.1c-0.2,0.6-0.3,1.4-0.3,2.6c0,1,0.1,1.7,0.3,2.2s0.6,0.8,1.2,1
		c0.6,0.2,1.4,0.3,2.4,0.3s1.8-0.1,2.3-0.3c0.5-0.2,0.9-0.5,1-1c0.2-0.5,0.3-1.2,0.3-2.2c0-1.1-0.1-2-0.3-2.6s-0.6-1-1.1-1.1
		C650.4,337.3,649.6,337.2,648.6,337.2z"/>
	<path class="st4" d="M686.7,330.5v36.9h-11.6v-23.1c0-0.8,0-1.6,0.1-2.4s0.2-1.6,0.3-2.4l-8.5,1.7l-1.3-7.1l9.4-3.6H686.7z"/>
	<path class="st4" d="M698.7,357.5c1.5,0,2.5,0.3,3,0.8c0.6,0.6,0.8,1.6,0.8,3v2.2c0,1.4-0.3,2.4-0.8,3c-0.6,0.6-1.6,0.9-3,0.9h-2.5
		c-1.5,0-2.5-0.3-3-0.9c-0.6-0.6-0.8-1.6-0.8-3v-2.2c0-1.5,0.3-2.5,0.8-3c0.6-0.6,1.6-0.8,3-0.8H698.7z"/>
	<path class="st4" d="M732.2,330.5l-0.4,8.3h-15.2l-0.3,3.9l6.8,0.9c2.1,0.3,3.8,0.8,5.1,1.6c1.3,0.8,2.3,1.8,3.1,3
		c0.7,1.2,1.2,2.4,1.5,3.8c0.3,1.3,0.4,2.7,0.4,4c0,1.7-0.2,3.3-0.7,4.8s-1.2,2.8-2.3,3.9s-2.5,2-4.3,2.6s-4,0.9-6.7,0.9
		c-2,0-4.1-0.1-6.5-0.3c-2.4-0.2-4.8-0.4-7.2-0.7l1-8.6c1.8,0.1,3.6,0.1,5.2,0.2c1.7,0.1,3.1,0.1,4.5,0.1s2.5-0.1,3.3-0.3
		c0.8-0.2,1.3-0.6,1.6-1c0.3-0.5,0.5-1.1,0.6-2c0.1-0.6,0-1.2-0.2-1.6s-0.5-0.8-0.9-1.1c-0.4-0.3-0.9-0.5-1.6-0.6
		c-0.6-0.1-1.4-0.3-2.4-0.3l-6.7-0.9c-1-0.1-1.7-0.6-2.3-1.2c-0.6-0.7-0.9-1.5-0.8-2.4l1-16.9L732.2,330.5L732.2,330.5z"/>
</g>
<path class="st9" d="M522.8,298.7c-5.9,0-10.6-4.8-10.6-10.6v-15.4c0-1,0.8-1.8,1.8-1.8h17.6c1,0,1.8,0.8,1.8,1.8v15.4
	C533.4,293.9,528.6,298.7,522.8,298.7 M531.6,270.1H514c-1.4,0-2.6,1.1-2.6,2.6v15.4c0,6.3,5.1,11.4,11.4,11.4s11.4-5.1,11.4-11.4
	v-15.4C534.1,271.3,533,270.1,531.6,270.1"/>
<path class="st10" d="M522.8,298.7c-5.9,0-10.6-4.8-10.6-10.6v-15.4c0-1,0.8-1.8,1.8-1.8h17.6c1,0,1.8,0.8,1.8,1.8v15.4
	C533.4,293.9,528.6,298.7,522.8,298.7z M531.6,270.1H514c-1.4,0-2.6,1.1-2.6,2.6v15.4c0,6.3,5.1,11.4,11.4,11.4s11.4-5.1,11.4-11.4
	v-15.4C534.1,271.3,533,270.1,531.6,270.1z"/>
<path class="st9" d="M515.3,276.3h15v11.5c0,4.1-3.4,7.5-7.5,7.5s-7.5-3.3-7.5-7.5V276.3z M530.4,275.6h-15.3
	c-0.3,0-0.5,0.3-0.5,0.5v11.6c0,4.5,3.7,8.2,8.2,8.2s8.2-3.7,8.2-8.2v-11.6C531,275.8,530.7,275.6,530.4,275.6"/>
<path class="st10" d="M515.3,276.3h15v11.5c0,4.1-3.4,7.5-7.5,7.5s-7.5-3.3-7.5-7.5V276.3z M530.4,275.6h-15.3
	c-0.3,0-0.5,0.3-0.5,0.5v11.6c0,4.5,3.7,8.2,8.2,8.2s8.2-3.7,8.2-8.2v-11.6C531,275.8,530.7,275.6,530.4,275.6z"/>
<path class="st9" d="M522.8,287.9c-1.1,0-2.1-0.9-2.1-2.1c0-1.1,0.9-2.1,2.1-2.1c1.1,0,2.1,0.9,2.1,2.1
	C524.8,286.9,523.9,287.9,522.8,287.9 M522.8,283c-1.6,0-2.8,1.3-2.8,2.8c0,1.6,1.3,2.8,2.8,2.8c1.6,0,2.8-1.3,2.8-2.8
	C525.6,284.2,524.3,283,522.8,283"/>
<path class="st10" d="M522.8,287.9c-1.1,0-2.1-0.9-2.1-2.1c0-1.1,0.9-2.1,2.1-2.1c1.1,0,2.1,0.9,2.1,2.1
	C524.8,286.9,523.9,287.9,522.8,287.9z M522.8,283c-1.6,0-2.8,1.3-2.8,2.8c0,1.6,1.3,2.8,2.8,2.8c1.6,0,2.8-1.3,2.8-2.8
	C525.6,284.2,524.3,283,522.8,283z"/>
<polygon class="st9" points="516.7,277.4 516.1,277.8 520,283 520.7,282.5 "/>
<polygon class="st10" points="516.7,277.4 516.1,277.8 520,283 520.7,282.5 "/>
<polygon class="st9" points="528.6,277.4 524.7,282.5 525.4,283 529.3,277.8 "/>
<polygon class="st10" points="528.6,277.4 524.7,282.5 525.4,283 529.3,277.8 "/>
<path class="st9" d="M515.4,270.3c-1.6,0-2.9-1.3-2.9-3v-4.1c0-1.6,1.3-3,2.9-3h14.7c1.6,0,3,1.3,3,3v4.1c0,1.6-1.3,3-3,3H515.4z
	 M530.1,259.6h-14.7c-2,0-3.7,1.7-3.7,3.7v4.1c0,2.1,1.7,3.7,3.7,3.7h14.7c2,0,3.7-1.7,3.7-3.7v-4.1
	C533.8,261.2,532.1,259.6,530.1,259.6"/>
<path class="st10" d="M515.4,270.3c-1.6,0-2.9-1.3-2.9-3v-4.1c0-1.6,1.3-3,2.9-3h14.7c1.6,0,3,1.3,3,3v4.1c0,1.6-1.3,3-3,3H515.4z
	 M530.1,259.6h-14.7c-2,0-3.7,1.7-3.7,3.7v4.1c0,2.1,1.7,3.7,3.7,3.7h14.7c2,0,3.7-1.7,3.7-3.7v-4.1
	C533.8,261.2,532.1,259.6,530.1,259.6z"/>
<path class="st9" d="M522.8,266.5c-0.7,0-1.2-0.5-1.2-1.2s0.5-1.2,1.2-1.2s1.2,0.5,1.2,1.2S523.4,266.5,522.8,266.5 M522.8,263.4
	c-1.1,0-2,0.9-2,2s0.9,2,2,2s2-0.9,2-2C524.7,264.2,523.8,263.4,522.8,263.4"/>
<path class="st10" d="M522.8,266.5c-0.7,0-1.2-0.5-1.2-1.2s0.5-1.2,1.2-1.2s1.2,0.5,1.2,1.2S523.4,266.5,522.8,266.5z M522.8,263.4
	c-1.1,0-2,0.9-2,2s0.9,2,2,2s2-0.9,2-2C524.7,264.2,523.8,263.4,522.8,263.4z"/>
</svg>
