<svg xmlns="http://www.w3.org/2000/svg" xmlns:xlink="http://www.w3.org/1999/xlink" xml:space="preserve" id="Слой_1" x="0" y="0" style="enable-background:new 0 0 206 415.3" version="1.1" viewBox="0 0 206 415.3"><style>.st1{fill:#1a1a1a}.st3{stroke:#1a1a1a}.st3,.st8{fill:none}.st13,.st23{fill:none;stroke:#1a1a1a;stroke-width:.6}.st23{clip-path:url(#SVGID_34_)}.st24,.st25{clip-path:url(#SVGID_36_);fill:#1a1a1a}.st25{fill:none;stroke:#1a1a1a;stroke-width:.25}.st26{fill:#1a1a1a}.st26,.st27{clip-path:url(#SVGID_38_)}.st27,.st28{fill:none;stroke:#1a1a1a;stroke-width:.25}.st29,.st30{clip-path:url(#SVGID_40_);fill:#1a1a1a}.st30{fill:none;stroke:#1a1a1a;stroke-width:.25}</style><path d="M199.1 247.6V71.8H5.7v327.1h97.8V247.6z" style="fill:#f3d4e6"/><path d="M3.5 59.9v11.4h22.6v-9.1h2.8v-2.3z" class="st1"/><defs><path id="SVGID_1_" d="M3 6h201v405.3H3z"/></defs><clipPath id="SVGID_2_"><use xlink:href="#SVGID_1_" style="overflow:visible"/></clipPath><path d="M3.5 59.9h25.4v2.3h-2.8v9.1H3.5z" style="clip-path:url(#SVGID_2_);fill:none;stroke:#1a1a1a"/><path d="M103 59.9H77.5v2.3h2.9v9.1H103z" class="st1"/><path d="M103 59.9H77.5v2.3h2.9v9.1H103z" class="st3"/><path d="M102.3 59.9h25.4v2.3h-2.9v9.1h-22.5z" class="st1"/><path d="M102.3 59.9h25.4v2.3h-2.9v9.1h-22.5z" class="st3"/><path d="M200.7 59.9h-25.5v2.3h2.9v9.1h22.6z" class="st1"/><path d="M200.7 59.9h-25.5v2.3h2.9v9.1h22.6z" class="st3"/><path d="M101.8 245.2h101.7v4.7H101.8z" class="st1"/><defs><path id="SVGID_3_" d="M3 6h201v405.3H3z"/></defs><clipPath id="SVGID_4_"><use xlink:href="#SVGID_3_" style="overflow:visible"/></clipPath><path d="M101.8 245.2h101.7v4.7H101.8z" style="clip-path:url(#SVGID_4_);fill:none;stroke:#1a1a1a"/><path d="M101.1 227.5h4.7v183.3h-4.7z" class="st1"/><defs><path id="SVGID_5_" d="M3 6h201v405.3H3z"/></defs><clipPath id="SVGID_6_"><use xlink:href="#SVGID_5_" style="overflow:visible"/></clipPath><path d="M101.1 227.5h4.7v183.3h-4.7z" style="clip-path:url(#SVGID_6_);fill:none;stroke:#1a1a1a"/><path d="M198.9 239h4.7v10.9h-4.7z" class="st1"/><defs><path id="SVGID_7_" d="M3 6h201v405.3H3z"/></defs><clipPath id="SVGID_8_"><use xlink:href="#SVGID_7_" style="overflow:visible"/></clipPath><path d="M198.9 239h4.7v10.9h-4.7z" style="clip-path:url(#SVGID_8_);fill:none;stroke:#1a1a1a"/><path d="M3.5 27.5h4.7v383.3H3.5z" class="st1"/><defs><path id="SVGID_9_" d="M3 6h201v405.3H3z"/></defs><clipPath id="SVGID_10_"><use xlink:href="#SVGID_9_" style="overflow:visible"/></clipPath><path d="M3.5 27.5h4.7v383.3H3.5z" style="clip-path:url(#SVGID_10_);fill:none;stroke:#1a1a1a"/><path d="M101.1 13.4h4.7v27h-4.7z" class="st1"/><path d="M101.1 13.4h4.7v27h-4.7z" class="st3"/><path d="M101.1 59.9h4.7v138.7h-4.7z" class="st1"/><path d="M101.1 59.9h4.7v138.7h-4.7z" class="st3"/><path d="M198.9 11.8h4.7v198.4h-4.7z" class="st1"/><path d="M198.9 11.8h4.7v198.4h-4.7z" class="st3"/><path d="M3 6h201v405.3H3z" class="st8"/><path d="M187.2 11.8h13.5v53.3h-13.5z" class="st1"/><path d="M187.2 11.8h13.5v53.3h-13.5z" class="st3"/><path d="M3 6h201v405.3H3z" class="st8"/><path d="M131 183.3h72.5v4.7H131z" class="st1"/><defs><path id="SVGID_11_" d="M3 6h201v405.3H3z"/></defs><clipPath id="SVGID_12_"><use xlink:href="#SVGID_11_" style="overflow:visible"/></clipPath><path d="M131 183.3h72.5v4.7H131z" style="clip-path:url(#SVGID_12_);fill:none;stroke:#1a1a1a"/><path d="M6.3 165.5H75v4.7H6.3z" class="st1"/><path d="M6.3 165.5H75v4.7H6.3z" class="st3"/><path d="M6.3 245.2H75v4.7H6.3z" class="st1"/><path d="M6.3 245.2H75v4.7H6.3z" class="st3"/><path d="M4.6 217.9h63.5v2.5H4.6z" class="st1"/><defs><path id="SVGID_13_" d="M3 6h201v405.3H3z"/></defs><clipPath id="SVGID_14_"><use xlink:href="#SVGID_13_" style="overflow:visible"/></clipPath><path d="M4.6 217.9h63.5v2.5H4.6z" style="clip-path:url(#SVGID_14_);fill:none;stroke:#1a1a1a"/><path d="M65.6 166.6h2.5v19.5h-2.5z" class="st1"/><path d="M65.6 166.6h2.5v19.5h-2.5z" class="st3"/><path d="M65.6 204h2.5v24.2h-2.5z" class="st1"/><path d="M65.6 204h2.5v24.2h-2.5z" class="st3"/><path d="M3.5 399.4v11.4h24.1v-2.3h-2.9v-9.1z" class="st1"/><defs><path id="SVGID_15_" d="M3 6h201v405.3H3z"/></defs><clipPath id="SVGID_16_"><use xlink:href="#SVGID_15_" style="overflow:visible"/></clipPath><path d="M3.5 410.8h24.1v-2.3h-2.9v-9.1H3.5z" style="clip-path:url(#SVGID_16_);fill:none;stroke:#1a1a1a"/><path d="M83.6 399.4v9.1h-2.9v2.3h24.9v-11.4z" class="st1"/><defs><path id="SVGID_17_" d="M3 6h201v405.3H3z"/></defs><clipPath id="SVGID_18_"><use xlink:href="#SVGID_17_" style="overflow:visible"/></clipPath><path d="M105.6 410.8H80.7v-2.3h2.9v-9.1h22z" style="clip-path:url(#SVGID_18_);fill:none;stroke:#1a1a1a"/><path d="m6.121 29.444 97.085-14.078.387 2.672L6.51 32.116zM104.1 15.3H189V18h-84.9zM63.628 72.628l16.673-9.92.46.774-16.672 9.92zM27.9 59.7h34.9v2.7H27.9z" class="st13"/><path d="M25.4 62.3h34.9v9.2H25.4z" class="st13"/><defs><path id="SVGID_19_" d="M3 6h201v405.3H3z"/></defs><clipPath id="SVGID_20_"><use xlink:href="#SVGID_19_" style="overflow:visible"/></clipPath><path d="M63.5 72.5s-1.1-1.5-1.6-4.9c-.5-3.4-.4-5.2-.4-5.2" style="clip-path:url(#SVGID_20_);fill:none;stroke:#1a1a1a;stroke-width:.4"/><path d="M17.8 408.3h72.3v2.7H17.8z" style="clip-path:url(#SVGID_20_);fill:none;stroke:#1a1a1a;stroke-width:.6"/><path d="M18.8 399.2H89v9.2H18.8zM78 154.6l.6-1.1 23.1 13.8-.6 1.1z" class="st13"/><defs><path id="SVGID_21_" d="M3 6h201v405.3H3z"/></defs><clipPath id="SVGID_22_"><use xlink:href="#SVGID_21_" style="overflow:visible"/></clipPath><path d="M77.9 154.7s-1.3 2.1-2.1 6.8c-.8 4.7-.5 7.2-.5 7.2" style="clip-path:url(#SVGID_22_);fill:none;stroke:#1a1a1a;stroke-width:.4"/><path d="m78 260.9.6 1.1 23.1-13.9-.6-1z" class="st13"/><defs><path id="SVGID_23_" d="M3 6h201v405.3H3z"/></defs><clipPath id="SVGID_24_"><use xlink:href="#SVGID_23_" style="overflow:visible"/></clipPath><path d="M77.9 260.8s-1.3-2.1-2.1-6.8c-.8-4.7-.5-7.2-.5-7.2" style="clip-path:url(#SVGID_24_);fill:none;stroke:#1a1a1a;stroke-width:.4"/><path d="m187 213.5-1.2.7 15.6 26.1 1.2-.7z" class="st13"/><defs><path id="SVGID_25_" d="M3 6h201v405.3H3z"/></defs><clipPath id="SVGID_26_"><use xlink:href="#SVGID_25_" style="overflow:visible"/></clipPath><path d="M187.2 213.4s2.4-1.5 7.6-2.4c5.2-.9 8-.6 8-.6" style="clip-path:url(#SVGID_26_);fill:none;stroke:#1a1a1a;stroke-width:.4"/><path d="m76 230.5.8.5-9.7 16.3-.7-.5z" class="st13"/><defs><path id="SVGID_27_" d="M3 6h201v405.3H3z"/></defs><clipPath id="SVGID_28_"><use xlink:href="#SVGID_27_" style="overflow:visible"/></clipPath><path d="M76 230.4s-1.5-.9-4.8-1.5-5.1-.5-5.1-.5" style="clip-path:url(#SVGID_28_);fill:none;stroke:#1a1a1a;stroke-width:.4"/><path d="m76 188.5.8.4-9.7 16.3-.7-.5z" class="st13"/><defs><path id="SVGID_29_" d="M3 6h201v405.3H3z"/></defs><clipPath id="SVGID_30_"><use xlink:href="#SVGID_29_" style="overflow:visible"/></clipPath><path d="M76 188.3s-1.5-.9-4.8-1.5-5.1-.5-5.1-.5" style="clip-path:url(#SVGID_30_);fill:none;stroke:#1a1a1a;stroke-width:.4"/><path d="m128 172.4-.6-1-23.1 13.8.7 1.1z" class="st13"/><defs><path id="SVGID_31_" d="M3 6h201v405.3H3z"/></defs><clipPath id="SVGID_32_"><use xlink:href="#SVGID_31_" style="overflow:visible"/></clipPath><path d="M128.2 172.6s1.3 2.1 2.1 6.8c.8 4.7.5 7.2.5 7.2" style="clip-path:url(#SVGID_32_);fill:none;stroke:#1a1a1a;stroke-width:.4"/><path d="m161.526 72.618 16.672-9.92.46.774-16.672 9.92zM125.8 59.7h34.9v2.7h-34.9z" class="st13"/><path d="M123.3 62.3h34.9v9.2h-34.9z" class="st13"/><defs><path id="SVGID_33_" d="M3 6h201v405.3H3z"/></defs><clipPath id="SVGID_34_"><use xlink:href="#SVGID_33_" style="overflow:visible"/></clipPath><path d="M161.4 72.5s-1.1-1.5-1.6-4.9c-.5-3.4-.4-5.2-.4-5.2" style="clip-path:url(#SVGID_34_);fill:none;stroke:#1a1a1a;stroke-width:.4"/><path d="M14.5 172S9 172 9 177.5v33s0 5.5 5.5 5.5h7.4s5.5 0 5.5-5.5v-33s0-5.5-5.5-5.5h-7.4z" class="st23"/><path d="M16.2 175.1s-5.5 0-5.5 5.5v26.9s0 5.5 5.5 5.5h4s5.5 0 5.5-5.5v-26.9s0-5.5-5.5-5.5h-4z" class="st23"/><path d="M15.1 178.8s-2.8 0-2.8 2.8v27s0 2.8 2.8 2.8h6.2s2.8 0 2.8-2.8v-27s0-2.8-2.8-2.8h-6.2z" class="st23"/><path d="M18.2 208.1c.5 0 .8-.4.8-.8 0-.5-.4-.8-.8-.8-.5 0-.8.4-.8.8-.1.4.3.8.8.8z" class="st23"/><path d="M28.5 170.4V218" class="st13"/><defs><path id="SVGID_35_" d="M3 6h201v405.3H3z"/></defs><clipPath id="SVGID_36_"><use xlink:href="#SVGID_35_" style="overflow:visible"/></clipPath><path d="M34.9 205.4c-2.9 0-5.3 2.4-5.3 5.3v5.6c0 .4.4.8.8.8h12c.4 0 .8-.4.8-.8v-5.6c0-2.9-2.4-5.3-5.3-5.3h-3zm7.5 12h-12c-.6 0-1.1-.5-1.1-1.1v-5.6c0-3.1 2.5-5.6 5.6-5.6h3c3.1 0 5.6 2.5 5.6 5.6v5.6c0 .6-.5 1.1-1.1 1.1" class="st24"/><path d="M34.9 205.4c-2.9 0-5.3 2.4-5.3 5.3v5.6c0 .4.4.8.8.8h12c.4 0 .8-.4.8-.8v-5.6c0-2.9-2.4-5.3-5.3-5.3h-3zm7.5 12h-12c-.6 0-1.1-.5-1.1-1.1v-5.6c0-3.1 2.5-5.6 5.6-5.6h3c3.1 0 5.6 2.5 5.6 5.6v5.6c0 .6-.5 1.1-1.1 1.1z" class="st25"/><path d="M34.9 206.7c-2.2 0-4 1.8-4 4v3.3c0 .4.3.7.7.7h9.5c.4 0 .7-.3.7-.7v-3.3c0-2.2-1.8-4-4-4h-2.9zm6.3 8.3h-9.5c-.5 0-1-.4-1-1v-3.3c0-2.4 1.9-4.3 4.3-4.3h3c2.4 0 4.3 1.9 4.3 4.3v3.3c-.1.5-.6 1-1.1 1" class="st24"/><path d="M34.9 206.7c-2.2 0-4 1.8-4 4v3.3c0 .4.3.7.7.7h9.5c.4 0 .7-.3.7-.7v-3.3c0-2.2-1.8-4-4-4h-2.9zm6.3 8.3h-9.5c-.5 0-1-.4-1-1v-3.3c0-2.4 1.9-4.3 4.3-4.3h3c2.4 0 4.3 1.9 4.3 4.3v3.3c-.1.5-.6 1-1.1 1z" class="st25"/><path d="M36.4 209.5c-.4 0-.7.3-.7.7 0 .4.3.7.7.7.4 0 .7-.3.7-.7 0-.4-.3-.7-.7-.7m0 1.6c-.5 0-1-.4-1-1 0-.5.4-1 1-1s1 .4 1 1-.5 1-1 1" class="st24"/><path d="M36.4 209.5c-.4 0-.7.3-.7.7 0 .4.3.7.7.7.4 0 .7-.3.7-.7 0-.4-.3-.7-.7-.7zm0 1.6c-.5 0-1-.4-1-1 0-.5.4-1 1-1s1 .4 1 1-.5 1-1 1z" class="st25"/><path d="M29.5 170.7h18v18h-18z" class="st13"/><defs><path id="SVGID_37_" d="M3 6h201v405.3H3z"/></defs><clipPath id="SVGID_38_"><use xlink:href="#SVGID_37_" style="overflow:visible"/></clipPath><path d="M35.9 232.8c0-2.8-2.2-5-5-5h-7.2c-.5 0-.9.4-.9.9v8.3c0 .5.4.9.9.9h7.2c2.7-.1 5-2.3 5-5.1M22.4 237v-8.3c0-.7.5-1.2 1.2-1.2h7.2c2.9 0 5.3 2.4 5.3 5.3s-2.4 5.3-5.3 5.3h-7.2c-.6.1-1.2-.5-1.2-1.1" class="st26"/><path d="M35.9 232.8c0-2.8-2.2-5-5-5h-7.2c-.5 0-.9.4-.9.9v8.3c0 .5.4.9.9.9h7.2c2.7-.1 5-2.3 5-5.1zM22.4 237v-8.3c0-.7.5-1.2 1.2-1.2h7.2c2.9 0 5.3 2.4 5.3 5.3s-2.4 5.3-5.3 5.3h-7.2c-.6.1-1.2-.5-1.2-1.1z" class="st27"/><path d="M25.2 229.3v7.2s0 .1.1.1h5.4c2 0 3.7-1.7 3.7-3.7s-1.7-3.7-3.7-3.7l-5.5.1c0-.1 0-.1 0 0z" class="st27"/><path d="M25.4 229.3v7h5.4c1.9 0 3.5-1.6 3.5-3.5s-1.6-3.5-3.5-3.5h-5.4zm-.4 7.1v-7.2c0-.1.1-.3.3-.3h5.4c2.1 0 3.8 1.7 3.8 3.8 0 2.1-1.7 3.8-3.8 3.8h-5.4c-.2.2-.3.1-.3-.1" class="st26"/><path d="M25.4 229.3v7h5.4c1.9 0 3.5-1.6 3.5-3.5s-1.6-3.5-3.5-3.5h-5.4zm-.4 7.1v-7.2c0-.1.1-.3.3-.3h5.4c2.1 0 3.8 1.7 3.8 3.8 0 2.1-1.7 3.8-3.8 3.8h-5.4c-.2.2-.3.1-.3-.1z" class="st27"/><path d="M30.7 232.8c0-.5-.4-.9-.9-.9s-.9.4-.9.9.4.9.9.9c.5.1.9-.3.9-.9m-2.2 0c0-.7.6-1.3 1.3-1.3.7 0 1.3.6 1.3 1.3s-.6 1.3-1.3 1.3c-.7 0-1.3-.6-1.3-1.3" class="st26"/><path d="M30.7 232.8c0-.5-.4-.9-.9-.9s-.9.4-.9.9.4.9.9.9c.5.1.9-.3.9-.9zm-2.2 0c0-.7.6-1.3 1.3-1.3.7 0 1.3.6 1.3 1.3s-.6 1.3-1.3 1.3c-.7 0-1.3-.6-1.3-1.3z" class="st27"/><path d="m25.876 230 .18-.24 2.322 1.736-.18.24z" class="st1"/><path d="m25.876 230 .18-.24 2.322 1.736-.18.24z" class="st28"/><path d="m25.9 235.6 2.3-1.7.2.2-2.3 1.7z" class="st1"/><path d="m25.9 235.6 2.3-1.7.2.2-2.3 1.7z" class="st28"/><defs><path id="SVGID_39_" d="M3 6h201v405.3H3z"/></defs><clipPath id="SVGID_40_"><use xlink:href="#SVGID_39_" style="overflow:visible"/></clipPath><path d="M22.4 229.4c0-.8-.6-1.4-1.4-1.4h-1.9c-.8 0-1.4.6-1.4 1.4v6.9c0 .8.6 1.4 1.4 1.4H21c.8 0 1.4-.6 1.4-1.4v-6.9zm-5 6.9v-6.9c0-1 .8-1.7 1.7-1.7H21c1 0 1.7.8 1.7 1.7v6.9c0 1-.8 1.7-1.7 1.7h-1.9c-.9 0-1.7-.8-1.7-1.7" class="st29"/><path d="M22.4 229.4c0-.8-.6-1.4-1.4-1.4h-1.9c-.8 0-1.4.6-1.4 1.4v6.9c0 .8.6 1.4 1.4 1.4H21c.8 0 1.4-.6 1.4-1.4v-6.9zm-5 6.9v-6.9c0-1 .8-1.7 1.7-1.7H21c1 0 1.7.8 1.7 1.7v6.9c0 1-.8 1.7-1.7 1.7h-1.9c-.9 0-1.7-.8-1.7-1.7z" class="st30"/><path d="M20.6 232.8c0-.3-.2-.5-.5-.5s-.5.2-.5.5.2.5.5.5c.3.1.5-.2.5-.5m-1.4 0c0-.5.4-.9.9-.9s.9.4.9.9-.4.9-.9.9-.9-.4-.9-.9" class="st29"/><path d="M20.6 232.8c0-.3-.2-.5-.5-.5s-.5.2-.5.5.2.5.5.5c.3.1.5-.2.5-.5zm-1.4 0c0-.5.4-.9.9-.9s.9.4.9.9-.4.9-.9.9-.9-.4-.9-.9z" class="st30"/><path d="M16.1 220.9v23.8m-7.2-22.4h6.2v15.5H8.9zm0 17.3h6.2v4H8.9zm7.2 10.8v23.8m-7.2-22.4h6.2v15.5H8.9zm0 17.3h6.2v4H8.9zm7.5 5H8.6" class="st13"/><path d="M32.2 250.3H16.3v15.9h15.9v-15.9zm-16.2-.4h16.6v16.6H16v-16.6z" class="st1"/><path d="M32.2 250.3H16.3v15.9h15.9v-15.9zm-16.2-.4h16.6v16.6H16v-16.6z" class="st28"/><defs><path id="SVGID_41_" d="M3 6h201v405.3H3z"/></defs><clipPath id="SVGID_42_"><use xlink:href="#SVGID_41_" style="overflow:visible"/></clipPath><path d="M29.8 264.7c.4 0 .7-.3.7-.7v-8.3c0-.4-.3-.7-.7-.7H18.7c-.4 0-.7.3-.7.7v8.3c0 .4.3.7.7.7h11.1zm-11.1-10.1h11.1c.6 0 1.1.5 1.1 1.1v8.3c0 .6-.5 1.1-1.1 1.1H18.7c-.6 0-1.1-.5-1.1-1.1v-8.3c.1-.7.5-1.1 1.1-1.1" style="clip-path:url(#SVGID_42_);fill:#1a1a1a"/><path d="M29.8 264.7c.4 0 .7-.3.7-.7v-8.3c0-.4-.3-.7-.7-.7H18.7c-.4 0-.7.3-.7.7v8.3c0 .4.3.7.7.7h11.1zm-11.1-10.1h11.1c.6 0 1.1.5 1.1 1.1v8.3c0 .6-.5 1.1-1.1 1.1H18.7c-.6 0-1.1-.5-1.1-1.1v-8.3c.1-.7.5-1.1 1.1-1.1z" style="clip-path:url(#SVGID_42_);fill:none;stroke:#1a1a1a;stroke-width:.25"/><path d="M29.3 256.1H19.2v7.3h10.1v-7.3zm-10.4-.3h10.8v8H18.9v-8z" class="st1"/><path d="M29.3 256.1H19.2v7.3h10.1v-7.3zm-10.4-.3h10.8v8H18.9v-8z" class="st28"/><defs><path id="SVGID_43_" d="M3 6h201v405.3H3z"/></defs><clipPath id="SVGID_44_"><use xlink:href="#SVGID_43_" style="overflow:visible"/></clipPath><path d="M24.3 261.2c.5 0 .9-.4.9-.9s-.4-.9-.9-.9-.9.4-.9.9c-.1.5.4.9.9.9m0-2.2c.7 0 1.3.6 1.3 1.3 0 .7-.6 1.3-1.3 1.3-.7 0-1.3-.6-1.3-1.3 0-.7.6-1.3 1.3-1.3" style="clip-path:url(#SVGID_44_);fill:#1a1a1a"/><path d="M24.3 261.2c.5 0 .9-.4.9-.9s-.4-.9-.9-.9-.9.4-.9.9c-.1.5.4.9.9.9zm0-2.2c.7 0 1.3.6 1.3 1.3 0 .7-.6 1.3-1.3 1.3-.7 0-1.3-.6-1.3-1.3 0-.7.6-1.3 1.3-1.3z" style="clip-path:url(#SVGID_44_);fill:none;stroke:#1a1a1a;stroke-width:.25"/><path d="M7.7 298.7h95.8" style="fill:none;stroke:#1a1a1a;stroke-dasharray:3.925,3.925"/><path d="M163.3 151.1h4.5c1.6 0 2.1.2 2.1 1.5 0 1.1-.1 1.7-1.9 1.7h-3.1v2.8h3.1c1.7 0 2.1.5 2.1 1.9 0 1.6-.6 1.9-2.6 1.9-1.4 0-2.4 0-4.4-.1l-.1 3.1c1.8.3 3.8.4 5.8.4 4.2 0 5.8-1.4 5.8-4.8 0-2.4-.7-3.7-3-4v-.1c2.1-.3 2.6-1.7 2.6-4 0-2.9-1.5-3.7-5.4-3.7-1.8 0-3.6.1-5.4.4l-.1 3zm-4.7 9c-1.1 0-1.5.3-1.5 1.5v1c0 1.1.3 1.5 1.5 1.5h1c1.1 0 1.5-.3 1.5-1.5v-1c0-1.1-.3-1.5-1.5-1.5h-1zm-3.9-8.9.2-3.2h-10l-.4 7.2c0 .7.5 1.3 1.3 1.4l2.5.3c2.2.2 2.9.5 2.9 2-.1 1.3-.6 1.8-2.7 1.8-1.1 0-2.6-.1-4.2-.2l-.4 3.3c2 .3 4.1.5 5.7.5 4.6 0 5.8-2.3 5.8-5.2 0-2.6-1-4.9-4.7-5.3l-2.7-.3.2-2.2h6.5zm-18.3 9.9c-1.9 0-2-.6-2.1-4.1.8-.4 1.3-.6 2-.6 1.5 0 1.9.4 1.9 2.1.1 1.9 0 2.6-1.8 2.6m4.9-12.9c-1.6-.5-3.3-.5-4.1-.5-4.6 0-7 1.1-7 8.5 0 6.5 1.4 8.1 6.2 8.1 4.9 0 6-1.9 6-5.9 0-3.5-1-5-4.7-5-1.4 0-2.4.2-3.3.9.1-3 .7-3.5 2.8-3.5h3.9l.2-2.6zM84.8 279.8c0-.2.1-.4.4-.4h1.1v.6c-.3.2-.7.3-1 .3-.3 0-.5-.1-.5-.4v-.1zm-1.4-2c.8-.1 1.7-.1 2.2-.1.5 0 .7.2.7.6v.1h-1.7c-1 0-1.6.5-1.6 1.3v.5c0 .9.8 1.4 1.7 1.4.9 0 1.5-.4 1.8-.9l.2.7h1.5v-3.2c0-1.5-.8-2-2.1-2-.7 0-2 .1-2.8.3l.1 1.3zm-1.3-1.3h-1.8v3.8h-1.2v-3.8h-1.6v3.8h-1.2v-3.8h-1.8v5h7.6v-5zm-8.7 5.1v-5.1h-1.6l-1.6 2.4c-.2.2-.3.5-.4.7 0-.3.1-.5.1-.8v-2.4h-1.6v5h1.6l1.6-2.3.4-.8c0 .3-.1.6-.1.9v2.3h1.6zm-6.2-5.1h-1.8v1.8h-1.5v-1.8H62v5h1.8v-2h1.5v2h1.8v-5zm-6.3 1.9h-3v1.1h3v-1.1zm-5.8.4h-.7c-.5 0-.6-.1-.6-.6 0-.4.1-.5.6-.5h.7v1.1zm-2 .6c-.3 0-.8.1-1 .5l-.4 1.6h1.9l.3-1.4c0-.2.2-.3.5-.3h.7v1.6h1.8v-5.1c-.6-.1-1.2-.1-2.5-.1-1.9 0-2.3.4-2.3 1.6-.1.8.1 1.4 1 1.6zm-2.1-2.9h-1.8v1.8h-1.5v-1.8h-1.8v5h1.8v-2h1.5v2H51v-5zm-7.6 5.1h1.9l-1.5-2.6 1.4-2.5h-1.8l-1 1.9-1-1.9h-1.8L41 279l-1.5 2.6h1.9l1.1-2 .9 2zm-4.1-5.1h-2l-.7 3c-.1.2-.1.6-.2.9h-.1c0-.3-.1-.6-.1-.9l-.8-3h-2l1.6 4.6c.1.3.3.4.6.4h.3c-.1.3-.3.5-.5.6-.3.2-.8.2-1.4.2l-.2 1.2c.7.1 1.5.1 2.1-.1.8-.3 1.4-.8 1.7-2l1.7-4.9zm-8.3 1.4c1.4-.2 1.4-.8 2.2-3.3h-1.9c-.5 2.1-.7 2.7-1.7 2.7h-.3c.1-.3.1-.6.1-.9v-1.9h-1.9v7h1.9v-2.3c0-.2 0-.4-.1-.6h.4c1 0 1.1.5 1.8 3h2c-1-2.9-1.1-3.4-2.5-3.7zm30.4-149.7v-7h-1.9l-1.8.7.2 1.2 1.6-.4c-.1.3-.1.6-.1.8v4.6h2zm-4.8-1.7c-.5 0-.6.2-.6.6v.4c0 .5.2.6.6.6h.4c.5 0 .6-.2.6-.6v-.4c0-.5-.2-.6-.6-.6h-.4zm-6.5-3.7c1-.1 1.5-.1 2.2-.1.5 0 .8 0 .8.3 0 .4-.5 1-1.3 1.8l-1.6 1.6c-.2.2-.3.5-.3.8v1h5.2v-1.6h-2c-.3 0-.7 0-1 .1l1.7-1.7c.9-1 1.1-1.4 1.1-2.2 0-1.4-1-1.7-2.5-1.7-.8 0-1.5 0-2.5.2l.2 1.5zm-1.4 5.4v-7h-1.9l-1.8.7.2 1.2 1.6-.4c-.1.3-.1.6-.1.8v4.6h2zm107.9-22.4c1-.1 1.5-.1 2.2-.1.5 0 .8 0 .8.3 0 .4-.5 1-1.2 1.8l-1.6 1.6c-.2.2-.3.5-.3.8v1h5.2v-1.6h-2c-.3 0-.7 0-1 .1l1.7-1.7c.9-1 1.1-1.4 1.1-2.2 0-1.4-1-1.7-2.5-1.7-.8 0-1.5 0-2.5.2l.1 1.5zm-2 3.7c-.5 0-.6.2-.6.6v.4c0 .5.2.6.6.6h.4c.5 0 .6-.2.6-.6v-.4c0-.5-.2-.6-.6-.6h-.4zm-1.3-1h-.8v-2.9H151l-.3 1.1v1.8h-1.4c-.2 0-.3-.1-.2-.3l1.5-4h-1.8l-1.7 4.4c-.2.5.2 1.1.7 1.1h2.8v1.5h1.7v-1.5l.8-.2v-1zm-7.2 2.8v-7h-1.9l-1.8.7.2 1.2 1.6-.4c-.1.3-.1.6-.1.8v4.6h2zm20.2-76.8h-.7c-.5 0-.6-.1-.6-.6 0-.4.1-.5.6-.5h.7v1.1zm-2 .6c-.3 0-.8.1-1 .5l-.4 1.6h1.9l.3-1.4c0-.2.2-.3.5-.3h.7v1.6h1.8V32c-.6-.1-1.2-.1-2.5-.1-1.9 0-2.3.4-2.3 1.6-.1.8.1 1.4 1 1.6zm-2.1 2.2v-5.1h-1.6l-1.6 2.4c-.2.2-.3.5-.4.7 0-.3.1-.5.1-.8v-2.4H157v5h1.6l1.6-2.3.4-.8c0 .3-.1.6-.1.9v2.3h1.7zm-7.8-2.7c1.2-.2 1.1-.3 1.8-2.4h-1.8c-.5 1.7-.6 1.8-1.1 1.8h-.3c0-.2.1-.4.1-.6v-1.2h-1.6v1.2c0 .2 0 .4.1.6h-.3c-.5 0-.6-.2-1.1-1.8h-1.8c.7 2.1.6 2.2 1.8 2.4v.1c-1.2.2-1.2.3-2 2.6h1.9c.6-1.9.7-2 1.1-2h.4c0 .2-.1.3-.1.4v1.6h1.6v-1.6c0-.1 0-.3-.1-.4h.4c.5 0 .5.1 1.1 2h1.9c-.8-2.4-.8-2.5-2-2.7zm-9.2 1.4h-1.5c.3-.6.4-1.3.6-2.2 0-.3.2-.4.4-.4h.5V36zm2.5 0h-.8v-3.8h-2.8c-.9 0-1.4.4-1.5 1.2-.1.9-.3 1.7-.6 2.6h-.6v2.6h1.2l.1-1.4h3.6l.1 1.4h1.2V36zm-9.4-2.6c.6 0 .8.3.8 1.4 0 1.1-.2 1.4-.8 1.4-.6 0-.8-.2-.8-1.4.1-1.2.2-1.4.8-1.4m0-1.3c-2 0-2.7.7-2.7 2.7 0 1.9.7 2.6 2.7 2.6s2.7-.7 2.7-2.6c.1-2-.7-2.7-2.7-2.7m-3.7-1.9h-3.2c-1.1 0-1.7.6-1.8 1.7-.1 1.6-.2 2.6-.5 3.3-.2.5-.5.6-1 .7l.1 1.5c1.2.2 2.2-.2 2.6-1.6.3-.8.4-2.1.5-3.6 0-.3.2-.5.6-.5h.6v5.7h1.9v-7.2zm18.3 15.1c.8 0 .9.2.9.9s-.2.9-.9.9c-.8 0-1-.2-1-.9s.2-.9 1-.9m0-2.8c.7 0 .9.2.9.8 0 .6-.1.8-.8.8-.7 0-.9-.1-.9-.8-.1-.7.1-.8.8-.8m-1.5 2.2c-1 .1-1.2.9-1.2 1.9 0 1.4.6 1.9 2.8 1.9 2.2 0 2.8-.5 2.8-1.9 0-.9-.2-1.8-1.2-1.9.8-.1 1.1-.9 1.1-1.6 0-1.3-.4-1.9-2.6-1.9-2.1 0-2.6.6-2.6 1.9-.2.7.1 1.5.9 1.6zm-3.2 1.9c-.5 0-.6.2-.6.6v.4c0 .5.2.6.6.6h.4c.5 0 .6-.2.6-.6v-.4c0-.5-.2-.6-.6-.6h-.4zm-4.2-1.3c.8 0 .9.2.9.9s-.2.9-.9.9c-.8 0-1-.2-1-.9s.1-.9 1-.9m-.1-2.8c.7 0 .9.2.9.8 0 .6-.1.8-.8.8-.7 0-.9-.1-.9-.8 0-.7.1-.8.8-.8m-1.5 2.2c-1 .1-1.2.9-1.2 1.9 0 1.4.6 1.9 2.8 1.9 2.2 0 2.8-.5 2.8-1.9 0-.9-.2-1.8-1.2-1.9.8-.1 1.1-.9 1.1-1.6 0-1.3-.4-1.9-2.6-1.9-2.1 0-2.6.6-2.6 1.9-.1.7.2 1.5.9 1.6zm31.2 167h-.7c-.5 0-.6-.1-.6-.6 0-.4.1-.5.6-.5h.7v1.1zm-1.9.7c-.3 0-.8.1-1 .5l-.4 1.6h1.9l.3-1.4c0-.2.2-.3.5-.3h.7v1.6h1.8v-5.1c-.6-.1-1.2-.1-2.5-.1-1.9 0-2.3.4-2.3 1.6-.1.8.1 1.3 1 1.6zm-5.4.3c0-.2.1-.4.4-.4h1.1v.6c-.3.2-.7.3-1 .3-.3 0-.5-.1-.5-.4v-.1zm-1.4-1.9c.8-.1 1.7-.1 2.2-.1.5 0 .7.2.7.6v.1h-1.7c-1 0-1.6.5-1.6 1.3v.5c0 .9.8 1.4 1.7 1.4.9 0 1.5-.4 1.8-.9l.2.7h1.5v-3.2c0-1.5-.8-2-2.1-2-.7 0-2 .1-2.8.3l.1 1.3zm-2.8 1c1.2-.2 1.1-.3 1.8-2.4h-1.8c-.5 1.7-.6 1.8-1.1 1.8h-.3c0-.2.1-.4.1-.6v-1.2h-1.6v1.2c0 .2 0 .4.1.6h-.3c-.5 0-.6-.2-1.1-1.8h-1.8c.7 2.1.6 2.2 1.8 2.4v.1c-1.2.2-1.2.3-2 2.6h1.9c.6-1.9.7-2 1.1-2h.4c0 .2-.1.3-.1.4v1.6h1.6v-1.6c0-.1 0-.3-.1-.4h.4c.5 0 .5.1 1.1 2h1.9c-.8-2.4-.8-2.4-2-2.7zm-9.5-1.2c.6 0 .8.3.8 1.4 0 1.1-.2 1.4-.8 1.4-.6 0-.8-.2-.8-1.4.1-1.1.2-1.4.8-1.4m0-1.3c-2 0-2.7.7-2.7 2.7 0 1.9.7 2.6 2.7 2.6s2.7-.7 2.7-2.6c.1-2-.7-2.7-2.7-2.7m-4.7 5.2h1.9l-1.5-2.6 1.4-2.5h-1.8l-1 1.9-1-1.9h-1.8l1.4 2.5-1.5 2.6h1.9l1.1-2 .9 2zm-4.7 0v-5.1h-1.6l-1.6 2.4c-.2.2-.3.5-.4.7 0-.3.1-.5.1-.8v-2.4H138v5h1.6l1.6-2.3.4-.8c0 .3-.1.6-.1.9v2.3h1.7zm-9.6-3.5c.3-.2.6-.3.9-.3.5 0 .7.2.7 1.3 0 1.2-.2 1.3-.7 1.3-.4 0-.6-.1-.9-.2V211zm-.3-1.6h-1.5v6.9h1.8v-2.2c.4.3 1 .5 1.6.5 1.3 0 1.9-.6 1.9-2.6 0-1.7-.5-2.7-1.8-2.7-.8 0-1.6.4-1.9.8l-.1-.7zm-2.7-1.9h-5.9v7h1.9v-5.7h2.1v5.7h1.9v-7zm20.9 11h2c.7 0 .9.1.9.7 0 .5-.1.8-.8.8h-1.3v1.2h1.3c.8 0 .9.2.9.8 0 .7-.3.8-1.2.8-.6 0-1.1 0-1.9-.1l-.1 1.4c.8.1 1.7.2 2.5.2 1.9 0 2.5-.6 2.5-2.1 0-1.1-.3-1.6-1.3-1.8.9-.1 1.1-.8 1.1-1.8 0-1.2-.6-1.6-2.4-1.6-.8 0-1.6.1-2.3.2l.1 1.3zm-2.1 4c-.5 0-.6.2-.6.6v.4c0 .5.2.6.6.6h.4c.5 0 .6-.2.6-.6v-.4c0-.5-.2-.6-.6-.6h-.4zm-5.9-5.3.1 1.5h3c-.2.2-.3.5-.3.7l-1.7 4.7h1.9l2.1-6.1c.2-.5-.2-.9-.7-.9h-4.4zm-82.6 69.5c0-.8.1-1.2.8-1.2.8 0 .9.3.9 1.8-.3.2-.6.3-.9.3-.6 0-.8-.2-.8-.9m-1.5 4.5c.8.2 1.6.2 1.9.2 2.2 0 3.1-.5 3.1-3.7 0-2.8-.5-3.6-2.7-3.6-2 0-2.6.8-2.6 2.6 0 1.3.4 2.2 2 2.2.6 0 1.1-.1 1.4-.4-.1 1.2-.3 1.5-1.2 1.5h-1.9v1.2zm-2.1-1.7c-.5 0-.6.2-.6.6v.4c0 .5.2.6.6.6h.4c.5 0 .6-.2.6-.6v-.4c0-.5-.2-.6-.6-.6h-.4zm-1.7-3.8.1-1.4h-4.4l-.2 3.1c0 .3.2.6.5.6l1.1.1c.9.1 1.3.2 1.3.9 0 .6-.2.8-1.2.8-.5 0-1.1 0-1.8-.1l-.2 1.4c.9.1 1.8.2 2.5.2 2 0 2.5-1 2.5-2.3 0-1.1-.4-2.1-2.1-2.3l-1.2-.2.1-1h3zm20 65.4c0-.2.1-.4.4-.4h1.1v.6c-.3.2-.7.3-1 .3-.3 0-.5-.1-.5-.4v-.1zm-1.3-2c.8-.1 1.7-.1 2.2-.1.5 0 .7.2.7.6v.1h-1.7c-1 0-1.6.5-1.6 1.3v.5c0 .9.8 1.4 1.7 1.4.9 0 1.5-.4 1.8-.9l.2.7H79v-3.2c0-1.5-.8-2-2.1-2-.7 0-2 .1-2.8.3l.2 1.3zm-.9.1v-1.4h-5v1.4H70v3.7h1.8v-3.7h1.6zm-9 1.9c0-.2.1-.4.4-.4h1.1v.6c-.3.2-.7.3-1 .3-.3 0-.5-.1-.5-.4v-.1zm-1.4-2c.8-.1 1.7-.1 2.2-.1.5 0 .7.2.7.6v.1h-1.7c-1 0-1.6.5-1.6 1.3v.5c0 .9.8 1.4 1.7 1.4.9 0 1.5-.4 1.8-.9l.2.7h1.5v-3.2c0-1.5-.8-2-2.1-2-.7 0-2 .1-2.8.3l.1 1.3zm-1.2-1.3H60v1.8h-1.5v-1.8h-1.8v5h1.8v-2H60v2h1.8v-5zm-8.6 0c-.4 0-.6.2-.7.6l-.4 1.9c-.1.3-.1.5-.1.8h-.1c0-.3 0-.5-.1-.8l-.4-1.9c-.1-.4-.3-.6-.7-.6h-1.6c-.4 0-.6.2-.6.6l-.1 4.4H50l.1-3.7h.1l.6 2.4c.1.4.3.6.7.6h.8c.4 0 .6-.2.7-.6l.6-2.4h.1l.1 3.7h1.7l-.1-4.4c0-.4-.2-.6-.6-.6h-1.6zm-8.4 1.1c.6 0 .8.3.8 1.4 0 1.1-.2 1.4-.8 1.4-.6 0-.8-.2-.8-1.4 0-1.1.2-1.4.8-1.4m0-1.3c-2 0-2.7.7-2.7 2.7 0 1.9.7 2.6 2.7 2.6s2.7-.7 2.7-2.6c0-1.9-.7-2.7-2.7-2.7m-5 2.6c1.2-.2 1.1-.3 1.7-2.4h-1.9c-.4 1.7-.5 1.8-1.2 1.8h-.2c0-.2.1-.4.1-.6v-1.2h-1.8v5h1.8v-1.6c0-.1 0-.3-.1-.4h.4c.5 0 .6.1 1.1 2h1.9c-.6-2.4-.6-2.4-1.8-2.6zm32.5-10.4h-.7c-.5 0-.6-.1-.6-.6 0-.4.1-.5.6-.5h.7v1.1zm-1.9.6c-.3 0-.8.1-1 .5l-.4 1.6h1.9l.3-1.4c0-.2.2-.3.5-.3h.7v1.6h1.8v-5.1c-.6-.1-1.2-.1-2.5-.1-1.9 0-2.3.4-2.3 1.6-.1.8.1 1.4 1 1.6zm-5.4.4c0-.2.1-.4.4-.4h1.1v.6c-.3.2-.7.3-1 .3-.3 0-.5-.1-.5-.4v-.1zm-1.4-2c.8-.1 1.7-.1 2.2-.1.5 0 .7.2.7.6v.1h-1.7c-1 0-1.6.5-1.6 1.3v.5c0 .9.8 1.4 1.7 1.4.9 0 1.5-.4 1.8-.9l.2.7h1.5v-3.2c0-1.5-.8-2-2.1-2-.7 0-2 .1-2.8.3l.1 1.3zm-1.3-1.3h-3c-.9 0-1.3.4-1.4 1.3-.1.9-.2 1.6-.3 2-.1.4-.4.4-.9.5l.2 1.4c1.1.2 2.1-.1 2.3-1.3.1-.5.2-1.3.3-2.1 0-.3.2-.4.5-.4h.4v3.8h1.8v-5.2zm-6.1 5.1v-5.1h-1.6L53 340c-.2.2-.3.5-.4.7 0-.3.1-.5.1-.8v-2.4H51v5h1.6l1.6-2.3.4-.8c0 .3-.1.6-.1.9v2.3h1.7zm-8.2-3.7c1.4-.2 1.4-.8 2.1-3.3h-1.9c-.6 2.1-.8 2.7-1.4 2.7h-.3c.1-.3.1-.6.1-.9v-1.9h-1.8v1.9c0 .3 0 .6.1.9h-.4c-.7 0-.8-.6-1.4-2.7H41c.7 2.5.8 3.1 2.1 3.3v.1c-1.4.2-1.5.8-2.3 3.6h2c.8-2.5.9-3 1.5-3h.4c-.1.2-.1.5-.1.6v2.3h1.8v-2.3c0-.2 0-.4-.1-.6h.3c.7 0 .8.5 1.6 3h2c-.7-2.9-.8-3.4-2.2-3.7zm16.3 22c.8 0 .9.2.9.9s-.2.9-.9.9c-.8 0-1-.2-1-.9s.2-.9 1-.9m0-2.9c.7 0 .9.2.9.8 0 .6-.1.8-.8.8-.7 0-.9-.1-.9-.8-.1-.6.1-.8.8-.8m-1.5 2.3c-1 .1-1.2.9-1.2 1.9 0 1.4.6 1.9 2.8 1.9 2.2 0 2.8-.5 2.8-1.9 0-.9-.2-1.8-1.2-1.9.8-.1 1.1-.9 1.1-1.6 0-1.3-.4-1.9-2.6-1.9-2.1 0-2.6.6-2.6 1.9-.2.7.1 1.4.9 1.6zm-3.2 1.9c-.5 0-.6.2-.6.6v.4c0 .5.2.6.6.6h.4c.5 0 .6-.2.6-.6v-.4c0-.5-.2-.6-.6-.6h-.4zm-6.6-3.8c1-.1 1.5-.1 2.2-.1.5 0 .8 0 .8.3 0 .4-.5 1-1.3 1.8l-1.6 1.6c-.2.2-.3.5-.3.8v1H58v-1.6h-2c-.3 0-.7 0-1 .1l1.7-1.7c.9-1 1.1-1.4 1.1-2.2 0-1.4-1-1.7-2.5-1.7-.8 0-1.5 0-2.5.2l.2 1.5zm-1.3 5.5v-7h-1.9l-1.8.7.2 1.2 1.6-.4c-.1.3-.1.6-.1.8v4.6h2zm46.5-152.3c.2-.1.3-.2.6-.2s.4.1.4.8c0 .7-.1.8-.4.8-.2 0-.4-.1-.5-.1v-1.3zm-.2-.9h-.9v4.2h1.1v-1.4c.3.2.6.3 1 .3.8 0 1.2-.3 1.2-1.6 0-1-.3-1.6-1.1-1.6-.5 0-.9.2-1.2.5l-.1-.4zm-3 .7c.4 0 .5.2.5.8 0 .7-.1.8-.5.8s-.5-.1-.5-.8c0-.7.1-.8.5-.8m0-.8c-1.2 0-1.6.4-1.6 1.6 0 1.2.4 1.6 1.6 1.6 1.2 0 1.6-.4 1.6-1.6 0-1.2-.5-1.6-1.6-1.6m-3.5 2.4h-.9c.2-.3.3-.8.3-1.3 0-.2.1-.2.3-.2h.3v1.5zm1.5 0h-.5v-2.3h-1.7c-.5 0-.8.2-.9.7-.1.5-.2 1-.4 1.5h-.4v1.6h.9l.1-.8h2.2l.1.8h.6V213zm-4.2.7v-3h-1l-1 1.5c-.1.1-.2.3-.2.4v-1.9h-1v3h1l.9-1.4c.1-.1.2-.3.2-.5v1.9h1.1zm-5.7-2.1c.2-.1.3-.2.6-.2s.4.1.4.8c0 .7-.1.8-.4.8-.2 0-.4-.1-.5-.1v-1.3zm-.3-.9h-.9v4.2H83v-1.4c.3.2.6.3 1 .3.8 0 1.2-.3 1.2-1.6 0-1-.3-1.6-1.1-1.6-.5 0-.9.2-1.2.5l-.1-.4zm-3 .7c.4 0 .5.2.5.8 0 .7-.1.8-.5.8s-.5-.1-.5-.8c0-.7.1-.8.5-.8m0-.8c-1.2 0-1.6.4-1.6 1.6 0 1.2.4 1.6 1.6 1.6 1.2 0 1.6-.4 1.6-1.6 0-1.2-.4-1.6-1.6-1.6m-3.3.9c.8-.1.9-.5 1.3-2h-1.2c-.3 1.3-.4 1.6-1 1.6h-.2v-1.6h-1.1v4.2h1.1v-1.8h.2c.6 0 .6.3 1.1 1.8h1.2c-.5-1.7-.5-2-1.4-2.2zm11.9 5.3h1.2c.4 0 .5.1.5.4 0 .3 0 .5-.5.5h-.8v.7h.8c.5 0 .5.1.5.5s-.2.5-.7.5h-1.2v.8c.5.1 1 .1 1.5.1 1.1 0 1.5-.4 1.5-1.3 0-.6-.2-1-.8-1.1.5-.1.7-.5.7-1.1 0-.7-.4-1-1.4-1-.5 0-.9 0-1.4.1l.1.9zm-1.3 2.4c-.3 0-.4.1-.4.4v.3c0 .3.1.4.4.4h.3c.3 0 .4-.1.4-.4v-.3c0-.3-.1-.4-.4-.4h-.3zm-3.8-2.4h1.2c.4 0 .5.1.5.4 0 .3 0 .5-.5.5h-.8v.7h.8c.5 0 .5.1.5.5s-.2.5-.7.5h-1.2v.8c.5.1 1 .1 1.5.1 1.1 0 1.5-.4 1.5-1.3 0-.6-.2-1-.8-1.1.5-.1.7-.5.7-1.1 0-.7-.4-1-1.4-1-.5 0-.9 0-1.4.1l.1.9zm-24-21.5h-.4c-.3 0-.3-.1-.3-.4 0-.2.1-.3.3-.3h.4v.7zm-1.2.4c-.2 0-.5.1-.6.3l-.2 1h1.1l.2-.8c0-.1.1-.2.3-.2h.4v1h1.1v-3.1h-1.5c-1.1 0-1.4.2-1.4 1-.1.3.1.7.6.8zm-3.2.2c0-.1.1-.2.3-.2h.6v.4c-.2.1-.4.2-.6.2-.2 0-.3-.1-.3-.2v-.2zm-.9-1.2h1.3c.3 0 .4.1.4.3v.1h-1c-.6 0-1 .3-1 .8v.3c0 .6.5.9 1 .9s.9-.3 1.1-.5l.2.4h.9v-1.9c0-.9-.5-1.2-1.3-1.2-.4 0-1.2.1-1.7.2l.1.6zm-.7-.7h-1.1v1.1h-.9V194h-1.1v3h1.1v-1.2h.9v1.2h1.1v-3zm-3.8 0h-1.1v1.1h-.9V194h-1.1v3h1.1v-1.2h.9v1.2h1.1v-3zm-5.7 1.9c0-.1.1-.2.3-.2h.6v.4c-.2.1-.4.2-.6.2-.2 0-.3-.1-.3-.2v-.2zm-.8-1.2h1.3c.3 0 .4.1.4.3v.1h-1c-.6 0-1 .3-1 .8v.3c0 .6.5.9 1 .9s.9-.3 1.1-.5l.1.4h.9v-1.9c0-.9-.5-1.2-1.3-1.2-.4 0-1.2.1-1.7.2l.2.6zm-3 1.5v-1.1h.6c.4 0 .5.1.5.6 0 .4-.1.5-.5.5H40zm0-1.7v-.9h.5c.4 0 .5.1.5.5s-.1.5-.5.5H40zm1.4.3c.5 0 .7-.4.7-1 0-.9-.4-1.1-1.5-1.1h-1.7v4.2h1.9c1 0 1.5-.2 1.5-1.1 0-.5-.2-.9-.9-1zm9.1 4.5v.9h1.8c-.1.1-.2.3-.2.4l-1 2.8h1.1l1.3-3.6c.1-.3-.1-.6-.4-.6h-2.6zm-.8 3.2c-.3 0-.4.1-.4.4v.3c0 .3.1.4.4.4h.3c.3 0 .4-.1.4-.4v-.3c0-.3-.1-.4-.4-.4h-.3zm-3.8-2.4h1.2c.4 0 .5.1.5.4 0 .3 0 .5-.5.5h-.8v.7h.8c.5 0 .5.1.5.5s-.2.5-.7.5h-1.2v.8c.5.1 1 .1 1.5.1 1.1 0 1.5-.4 1.5-1.3 0-.6-.2-1-.8-1.1.5-.1.7-.5.7-1.1 0-.7-.4-1-1.4-1-.5 0-.9 0-1.4.1l.1.9zm16.6 28.4h-1.8c-.5 0-.8.3-.8.8 0 .6-.1 1-.2 1.2-.1.2-.2.2-.5.3l.1.8c.7.1 1.3 0 1.4-.8.1-.3.1-.8.2-1.3 0-.2.1-.3.3-.3h.3v2.3h1.1v-3zm-5.6 1.3c0-.5.1-.6.5-.6.3 0 .4.1.4.3 0 .2 0 .3-.3.3h-.6zm1 .5c.8 0 1.1-.3 1.1-.8 0-.7-.4-1.1-1.5-1.1-1.2 0-1.6.4-1.6 1.6 0 1.1.4 1.6 1.7 1.6.5 0 1-.1 1.4-.3l-.1-.7c-.5.1-.9.1-1.2.1-.4 0-.5-.1-.6-.4h.8zm-5.2-1c.3 0 .7-.1 1.1-.1.3 0 .4 0 .4.2s-.1.2-.3.2H53v.7h1c.3 0 .4 0 .4.2s-.1.2-.4.2c-.4 0-.8 0-1.3-.1l-.1.7c.5.1 1 .1 1.4.1 1 0 1.5-.1 1.5-.8 0-.5-.2-.8-.8-.8.5 0 .7-.2.7-.7 0-.7-.4-.8-1.6-.8-.3 0-.7 0-1.1.2v.8zm-.3-.8h-1.2l-.4 1.8c0 .1-.1.3-.1.5h-.1c0-.2-.1-.3-.1-.5l-.5-1.8h-1.2l.9 2.8c0 .2.2.3.4.3h.2c-.1.2-.2.3-.3.4-.2.1-.5.1-.8.1l-.1.7c.4.1.9.1 1.2-.1.5-.2.8-.5 1-1.2l1.1-3zm-3.9 0h-1.1v1.1h-.9v-1.1h-1.1v3h1.1v-1.2h.9v1.2h1.1v-3zm-5.7 2c0-.1.1-.2.3-.2h.6v.4c-.2.1-.4.2-.6.2-.2 0-.3-.1-.3-.2v-.2zm-.9-1.2h1.3c.3 0 .4.1.4.3v.1h-1c-.6 0-1 .3-1 .8v.3c0 .6.5.9 1 .9s.9-.3 1.1-.5l.1.4h.9v-1.9c0-.9-.5-1.2-1.3-1.2-.4 0-1.2.1-1.7.2l.2.6zm-.6 1.3H40c-.5 0-.6-.3-.6-1.2 0-.9.1-1.2.6-1.2h1.2l.1-.8c-.4-.1-.7-.2-1.3-.2-1.3 0-1.8.6-1.8 2.2s.5 2.2 1.8 2.2c.6 0 1 0 1.4-.2l-.1-.8zm11.1 6.7c-.5 0-.5-.2-.5-1.1.2-.1.3-.2.5-.2.4 0 .5.1.5.6s0 .7-.5.7m1.3-3.4c-.4-.1-.9-.1-1.1-.1-1.2 0-1.8.3-1.8 2.2 0 1.7.4 2.1 1.6 2.1 1.3 0 1.6-.5 1.6-1.5 0-.9-.3-1.3-1.2-1.3-.4 0-.6.1-.9.2 0-.8.2-.9.7-.9h1l.1-.7zm-4 3.1c-.3 0-.4.1-.4.4v.3c0 .3.1.4.4.4h.3c.3 0 .4-.1.4-.4v-.3c0-.3-.1-.4-.4-.4h-.3zm-1.2 1.1v-4.2h-1.1l-1.1.4.1.7 1-.2v3.3h1.1z" class="st1"/><circle cx="152.2" cy="129.9" r="14.2" class="st3"/><path d="M146.9 125.3h4.5c1.6 0 2.1.2 2.1 1.5 0 1.1-.1 1.7-1.9 1.7h-3.1v2.8h3.1c1.7 0 2.1.5 2.1 1.9 0 1.6-.6 1.9-2.6 1.9-1.4 0-2.4 0-4.4-.1l-.1 3.1c1.8.3 3.8.4 5.8.4 4.2 0 5.8-1.4 5.8-4.8 0-2.4-.7-3.7-3-4v-.1c2.1-.3 2.6-1.7 2.6-4 0-2.9-1.5-3.7-5.4-3.7-1.8 0-3.6.1-5.4.4l-.1 3z" class="st1"/><path d="M3 6h201v405.3H3z" class="st8"/><path d="M190 97.3c0-.2.1-.4.4-.4h1.1v.6c-.3.2-.7.4-1 .4-.3 0-.5-.1-.5-.4v-.2zm-1.4-2c.9-.1 1.7-.1 2.2-.1.5 0 .7.2.7.6v.1h-1.7c-1 0-1.7.5-1.7 1.3v.5c0 1 .8 1.5 1.7 1.5.9 0 1.5-.5 1.8-.9l.2.8h1.5v-3.3c0-1.5-.8-2-2.2-2-.8 0-2.1.1-2.8.3l.3 1.2zm-.8.1V94h-5.2v1.4h1.6v3.7h1.9v-3.7h1.7zm-9.3 1.9c0-.2.1-.4.4-.4h1.1v.6c-.3.2-.7.4-1 .4-.3 0-.5-.1-.5-.4v-.2zm-1.4-2c.9-.1 1.7-.1 2.2-.1.5 0 .7.2.7.6v.1h-1.7c-1 0-1.7.5-1.7 1.3v.5c0 1 .8 1.5 1.7 1.5.9 0 1.5-.5 1.8-.9l.2.8h1.5v-3.3c0-1.5-.8-2-2.2-2-.8 0-2.1.1-2.8.3l.3 1.2zm-1.3-1.3H174v1.8h-1.6V94h-1.9v5.2h1.9V97h1.6v2.1h1.9V94zm-8.7 0c-.4 0-.6.2-.7.6l-.4 1.9c-.1.3-.1.5-.1.8h-.1c0-.3 0-.5-.1-.8l-.5-1.9c-.1-.4-.3-.6-.7-.6h-1.6c-.4 0-.6.2-.7.6l-.1 4.5h1.7l.1-3.8h.1l.6 2.5c.1.4.3.6.7.6h.8c.4 0 .6-.2.7-.6l.6-2.5h.1l.1 3.8h1.7l-.1-4.5c0-.4-.2-.6-.6-.6h-1.5zm-8.6 1.1c.6 0 .8.3.8 1.4 0 1.1-.2 1.4-.8 1.4-.6 0-.8-.3-.8-1.4-.1-1.1.1-1.4.8-1.4m0-1.3c-2 0-2.8.7-2.8 2.7s.7 2.7 2.8 2.7c2 0 2.8-.7 2.8-2.7-.1-2-.8-2.7-2.8-2.7m-5.2 2.6c1.2-.2 1.1-.3 1.8-2.5h-1.9c-.4 1.7-.5 1.9-1.2 1.9h-.2c0-.2.1-.4.1-.7V94H150v5.2h1.9v-1.6c0-.1 0-.3-.1-.4h.4c.6 0 .6.1 1.1 2.1h2c-.8-2.6-.8-2.7-2-2.9zm-8.6-.1h-.7c-.5 0-.6-.1-.6-.6 0-.4.1-.5.6-.5h.7v1.1zm-2 .6c-.3 0-.9.1-1 .6l-.4 1.6h1.9l.3-1.4c0-.2.2-.3.5-.3h.7v1.7h1.8v-5.2c-.6-.1-1.2-.1-2.6-.1-1.9 0-2.4.4-2.4 1.7.1.6.3 1.2 1.2 1.4zm-5.5.4c0-.2.1-.4.4-.4h1.1v.6c-.3.2-.7.4-1 .4-.3 0-.5-.1-.5-.4v-.2zm-1.4-2c.9-.1 1.7-.1 2.2-.1.5 0 .7.2.7.6v.1H137c-1 0-1.7.5-1.7 1.3v.5c0 1 .8 1.5 1.7 1.5.9 0 1.5-.5 1.8-.9l.2.8h1.5v-3.3c0-1.5-.8-2-2.2-2-.8 0-2.1.1-2.8.3l.3 1.2zm-1.3-1.3h-3.1c-.9 0-1.4.5-1.4 1.3-.1.9-.2 1.7-.3 2-.1.4-.4.4-.9.5l.2 1.4c1.1.2 2.2-.1 2.4-1.4.1-.5.2-1.4.3-2.2 0-.3.2-.4.5-.4h.4v3.9h1.9V94zm-6.4 5.1V94h-1.6l-1.6 2.5c-.2.2-.3.5-.4.8 0-.3.1-.5.1-.8V94h-1.7v5.2h1.6l1.6-2.4c.1-.2.3-.6.4-.9 0 .3-.1.6-.1.9v2.3h1.7zm-8.4-3.7c1.4-.2 1.4-.8 2.2-3.4h-2c-.6 2.2-.8 2.8-1.5 2.8h-.3c.1-.3.1-.6.1-.9V92h-1.9v1.9c0 .3 0 .6.1.9h-.4c-.7 0-.8-.6-1.5-2.8h-2c.8 2.6.8 3.2 2.2 3.4v.1c-1.4.2-1.5.8-2.4 3.7h2c.8-2.6.9-3.1 1.6-3.1h.4c-.1.2-.1.5-.1.7v2.4h1.9v-2.4c0-.2 0-.4-.1-.7h.3c.7 0 .8.5 1.6 3.1h2.1c-.7-3-.8-3.6-2.3-3.8zM92 114.3c0-.2.1-.4.4-.4h1.1v.6c-.3.2-.7.4-1 .4-.3 0-.5-.1-.5-.4v-.2zm-1.4-2c.9-.1 1.7-.1 2.2-.1.5 0 .7.2.7.6v.1h-1.7c-1 0-1.7.5-1.7 1.3v.5c0 1 .8 1.5 1.7 1.5.9 0 1.5-.5 1.8-.9l.2.8h1.5v-3.3c0-1.5-.8-2-2.2-2-.8 0-2.1.1-2.8.3l.3 1.2zm-.8.1V111h-5.2v1.4h1.6v3.7h1.9v-3.7h1.7zm-9.3 1.9c0-.2.1-.4.4-.4H82v.6c-.3.2-.7.4-1 .4-.3 0-.5-.1-.5-.4v-.2zm-1.4-2c.9-.1 1.7-.1 2.2-.1.5 0 .7.2.7.6v.1h-1.7c-1 0-1.7.5-1.7 1.3v.5c0 1 .8 1.5 1.7 1.5.9 0 1.5-.5 1.8-.9l.2.8h1.5v-3.3c0-1.5-.8-2-2.2-2-.8 0-2.1.1-2.8.3l.3 1.2zm-1.3-1.3H76v1.8h-1.6V111h-1.9v5.2h1.9V114H76v2.1h1.9V111zm-8.7 0c-.4 0-.6.2-.7.6l-.4 1.9c-.1.3-.1.5-.1.8h-.1c0-.3 0-.5-.1-.8l-.5-1.9c-.1-.4-.3-.6-.7-.6h-1.6c-.4 0-.6.2-.7.6l-.1 4.5h1.7l.1-3.8h.1l.6 2.5c.1.4.3.6.7.6h.8c.4 0 .6-.2.7-.6l.6-2.5h.1l.1 3.8h1.7l-.1-4.5c0-.4-.2-.6-.6-.6h-1.5zm-8.6 1.1c.6 0 .8.3.8 1.4 0 1.1-.2 1.4-.8 1.4-.6 0-.8-.3-.8-1.4-.1-1.1.1-1.4.8-1.4m0-1.3c-2 0-2.8.7-2.8 2.7s.7 2.7 2.8 2.7c2 0 2.8-.7 2.8-2.7-.1-2-.8-2.7-2.8-2.7m-5.2 2.6c1.2-.2 1.1-.3 1.8-2.5h-1.9c-.4 1.7-.5 1.9-1.2 1.9h-.2c0-.2.1-.4.1-.7V111H52v5.2h1.9v-1.6c0-.1 0-.3-.1-.4h.4c.6 0 .6.1 1.1 2.1h2c-.8-2.6-.8-2.7-2-2.9zm-8.6-.1H46c-.5 0-.6-.1-.6-.6 0-.4.1-.5.6-.5h.7v1.1zm-2 .6c-.3 0-.9.1-1 .6l-.4 1.6h1.9l.3-1.4c0-.2.2-.3.5-.3h.7v1.7h1.8v-5.2c-.6-.1-1.2-.1-2.6-.1-1.9 0-2.4.4-2.4 1.7.1.6.3 1.2 1.2 1.4zm-5.5.4c0-.2.1-.4.4-.4h1.1v.6c-.3.2-.7.4-1 .4-.3 0-.5-.1-.5-.4v-.2zm-1.4-2c.9-.1 1.7-.1 2.2-.1.5 0 .7.2.7.6v.1H39c-1 0-1.7.5-1.7 1.3v.5c0 1 .8 1.5 1.7 1.5.9 0 1.5-.5 1.8-.9l.2.8h1.5v-3.3c0-1.5-.8-2-2.2-2-.8 0-2.1.1-2.8.3l.3 1.2zm-1.3-1.3h-3.1c-.9 0-1.4.5-1.4 1.3-.1.9-.2 1.7-.3 2-.1.4-.4.4-.9.5l.2 1.4c1.1.2 2.2-.1 2.4-1.4.1-.5.2-1.4.3-2.2 0-.3.2-.4.5-.4h.4v3.9h1.9V111zm-6.4 5.1V111h-1.6l-1.6 2.5c-.2.2-.3.5-.4.8 0-.3.1-.5.1-.8V111h-1.7v5.2h1.6l1.6-2.4c.1-.2.3-.6.4-.9 0 .3-.1.6-.1.9v2.3h1.7zm-8.4-3.7c1.4-.2 1.4-.8 2.2-3.4h-2c-.6 2.2-.8 2.8-1.5 2.8h-.3c.1-.3.1-.6.1-.9V109h-1.9v1.9c0 .3 0 .6.1.9H18c-.7 0-.8-.6-1.5-2.8h-2c.8 2.6.8 3.2 2.2 3.4v.1c-1.4.2-1.5.8-2.4 3.7h2c.8-2.6.9-3.1 1.6-3.1h.4c-.1.2-.1.5-.1.7v2.4h1.9v-2.4c0-.2 0-.4-.1-.7h.3c.7 0 .8.5 1.6 3.1H24c-.7-3-.8-3.6-2.3-3.8z" class="st1"/></svg>