<svg xmlns="http://www.w3.org/2000/svg" xmlns:xlink="http://www.w3.org/1999/xlink" xml:space="preserve" id="Слой_1" x="0" y="0" style="enable-background:new 0 0 359 459" version="1.1" viewBox="0 0 359 459"><style>.st1{fill:#f4e0ed}.st2{fill:#3c3c3b}.st3{stroke:#3c3c3b;stroke-width:.75}.st3,.st5,.st7{fill:none}.st13{stroke:#3c3c3b}.st7{stroke-width:.6}.st7,.st9{stroke:#3c3c3b}.st13,.st9{fill:none;stroke-width:.7}.st13{clip-path:url(#SVGID_12_)}.st18{fill:#3c3c3b}.st18,.st19{clip-path:url(#SVGID_18_)}.st19,.st20{fill:none;stroke:#3c3c3b;stroke-width:.25}.st21,.st22{clip-path:url(#SVGID_20_);fill:#3c3c3b}.st22{fill:none;stroke:#3c3c3b;stroke-width:.25}</style><path d="M.1.5h359v459H.1z" style="fill:#fff"/><path d="M107.4 84.8h224.7v179.4H107.4z" class="st1"/><path d="M31.9 84.8h102.6v339.1H31.9z" class="st1"/><path d="M314.6 28.3h23v7.5h-23zm-97.5 48.5h34.2v7.9h-34.2zm11.8-55.7h11.3V29h-11.3zM121.7 35.7h15.1v49h-15.1z" class="st2"/><path d="M129.4 76.8h20.7v7.9h-20.7zm0 177.9h7.9v184.1h-7.9zm101.2-195h7.9v165.6h-7.9zM265 198.9h71.4v7.5H265z" class="st2"/><path d="M230.6 26.2h7.9v93.3h-7.9zm86.2-5.1h22.7v14.7h-22.7z" class="st2"/><path d="M321.4 21.1h18v63.6h-18zm10.7 233.6h7.4v16.2h-7.4z" class="st2"/><path d="M134.5 263.5h204.9v7.4H134.5zm-103.1-.7h71.8v7.4H31.4zm103.1-44.9h45.3v7.4h-45.3zm82 0H238v7.4h-21.5zm-106.1 206H137v7.8h-26.6zm-89.9 0h30.6v8.8H20.5z" class="st2"/><path d="M122.6 430.9h14.7v7.9h-14.7zm-102.1 0h33v7.9h-33z" class="st2"/><path d="M108.7 430.9h25.1v7.9h-25.1zM34.8 210.1h43.9v4.7H34.8z" class="st2"/><path d="M52.9 211.7h43.9v3.1H52.9zm-21-31.3h71.4v7.1H31.9z" class="st2"/><path d="M93 205.3h5v25.1h-5zm0 43.2h5v18.7h-5zM332.1 69.9h7.4v156.5h-7.4z" class="st2"/><path d="M48.5 428.3h65.6v2.1H48.5z" class="st3"/><defs><path id="SVGID_1_" d="M19.8 21.1h319.6v417.7H19.8z"/></defs><clipPath id="SVGID_2_"><use xlink:href="#SVGID_1_" style="overflow:visible"/></clipPath><path d="M47.4 424.3h67.9v14.2H47.4z" style="clip-path:url(#SVGID_2_);fill:none;stroke:#3c3c3b;stroke-width:.75"/><path d="M237.5 28.7h80.9v2.1h-80.9z" class="st3"/><path d="M236.2 21.5h83.6v14h-83.6z" class="st3"/><path d="M19.8 21.1h319.6v417.7H19.8z" class="st5"/><path d="m134.04 44.098 98.276-15.558.328 2.074-98.276 15.559z" class="st3"/><path d="m131.01 37.18 98.276-15.558 2.205 13.926-98.276 15.559z" class="st3"/><path d="M209 56.2h-.7c-.5 0-.6-.1-.6-.6 0-.4.1-.5.6-.5h.7v1.1zm-2.1.6c-.3 0-.9.1-1 .6l-.4 1.6h1.9l.3-1.4c0-.2.2-.3.5-.3h.7V59h1.8v-5.2c-.6-.1-1.2-.1-2.6-.1-1.9 0-2.4.4-2.4 1.7.1.6.4 1.2 1.2 1.4zm-2.1 2.2v-5.2h-1.6l-1.6 2.5c-.2.2-.3.5-.4.8 0-.3.1-.5.1-.8v-2.4h-1.7V59h1.6l1.6-2.4c.1-.2.3-.6.4-.9 0 .3-.1.6-.1.9V59h1.7zm-8-2.7c1.2-.2 1.2-.3 1.8-2.4h-1.9c-.5 1.7-.6 1.9-1.1 1.9h-.3c0-.2.1-.4.1-.6V54h-1.6v1.2c0 .2 0 .4.1.6h-.3c-.5 0-.6-.2-1.1-1.9h-1.9c.7 2.1.6 2.3 1.8 2.4v.1c-1.3.2-1.3.3-2 2.7h1.9c.7-2 .7-2.1 1.1-2.1h.4c0 .2-.1.3-.1.4V59h1.7v-1.6c0-.1 0-.3-.1-.4h.4c.5 0 .5.1 1.2 2.1h1.9c-.8-2.5-.8-2.6-2-2.8zm-9.5 1.4h-1.5c.3-.6.4-1.3.6-2.3 0-.3.2-.4.5-.4h.5v2.7zm2.7 0h-.9v-3.9h-2.8c-.9 0-1.4.4-1.5 1.3-.1.9-.3 1.8-.6 2.6h-.6v2.7h1.2l.1-1.4h3.7l.1 1.4h1.3v-2.7zm-9.7-2.7c.6 0 .8.3.8 1.4 0 1.1-.2 1.4-.8 1.4-.6 0-.8-.3-.8-1.4 0-1.1.2-1.4.8-1.4m0-1.3c-2 0-2.8.7-2.8 2.7s.7 2.7 2.8 2.7c2 0 2.8-.7 2.8-2.7s-.7-2.7-2.8-2.7m-3.8-1.9h-3.3c-1.1 0-1.7.6-1.8 1.7-.1 1.7-.3 2.7-.5 3.3-.2.5-.5.6-1 .7l.1 1.5c1.3.2 2.2-.2 2.7-1.7.3-.9.4-2.2.6-3.7 0-.4.2-.5.6-.5h.7V59h2v-7.2zm122.4 4.4h-.7c-.5 0-.6-.1-.6-.6 0-.4.1-.5.6-.5h.7v1.1zm-2 .6c-.3 0-.9.1-1 .6l-.4 1.6h1.9l.3-1.4c0-.2.2-.3.5-.3h.7V59h1.8v-5.2c-.6-.1-1.2-.1-2.6-.1-1.9 0-2.4.4-2.4 1.7.1.6.3 1.2 1.2 1.4zm-2.2 2.2v-5.2h-1.6l-1.6 2.5c-.2.2-.3.5-.4.8 0-.3.1-.5.1-.8v-2.4h-1.7V59h1.6l1.6-2.4c.1-.2.3-.6.4-.9 0 .3-.1.6-.1.9V59h1.7zm-8-2.7c1.2-.2 1.2-.3 1.8-2.4h-1.9c-.5 1.7-.6 1.9-1.1 1.9h-.3c0-.2.1-.4.1-.6V54h-1.6v1.2c0 .2 0 .4.1.6h-.3c-.5 0-.6-.2-1.1-1.9h-1.9c.7 2.1.6 2.3 1.8 2.4v.1c-1.3.2-1.3.3-2 2.7h1.9c.7-2 .7-2.1 1.1-2.1h.4c0 .2-.1.3-.1.4V59h1.7v-1.6c0-.1 0-.3-.1-.4h.4c.5 0 .5.1 1.2 2.1h1.9c-.7-2.5-.7-2.6-2-2.8zm-9.4 1.4h-1.5c.3-.6.4-1.3.6-2.3 0-.3.2-.4.5-.4h.5v2.7zm2.6 0h-.9v-3.9h-2.8c-.9 0-1.4.4-1.5 1.3-.1.9-.3 1.8-.6 2.6h-.6v2.7h1.2l.1-1.4h3.7l.1 1.4h1.3v-2.7zm-9.6-2.7c.6 0 .8.3.8 1.4 0 1.1-.2 1.4-.8 1.4-.6 0-.8-.3-.8-1.4 0-1.1.2-1.4.8-1.4m0-1.3c-2 0-2.8.7-2.8 2.7s.7 2.7 2.8 2.7c2 0 2.8-.7 2.8-2.7s-.8-2.7-2.8-2.7m-3.8-1.9h-3.3c-1.1 0-1.7.6-1.8 1.7-.1 1.7-.3 2.7-.5 3.3-.2.5-.5.6-1 .7l.1 1.5c1.3.2 2.2-.2 2.7-1.7.3-.9.4-2.2.6-3.7 0-.4.2-.5.6-.5h.7V59h2v-7.2zm-71.2 12c.8 0 1 .3 1 2.2 0 1.9-.2 2.2-1 2.2s-1-.3-1-2.2c.1-1.9.3-2.2 1-2.2m.1-1.5c-2.2 0-2.9.9-2.9 3.7 0 2.8.7 3.7 2.9 3.7s2.9-.9 2.9-3.7c0-2.8-.8-3.7-2.9-3.7m-4.9 5.6c-.5 0-.7.2-.7.7v.4c0 .5.2.7.7.7h.4c.5 0 .7-.2.7-.7v-.5c0-.5-.2-.7-.7-.7h-.4zm-1.4-1.1h-.9v-3h-1.5l-.3 1.1v1.8H185c-.2 0-.3-.1-.2-.3l1.6-4.1h-1.8l-1.8 4.6c-.2.6.2 1.1.8 1.1h2.9v1.5h1.8V68l.8-.2v-1zm93.4-3h2c.7 0 .9.1.9.7 0 .5-.1.8-.8.8h-1.4v1.3h1.4c.8 0 .9.2.9.8 0 .7-.3.9-1.2.9-.6 0-1.1 0-2-.1l-.1 1.4c.8.1 1.7.2 2.6.2 1.9 0 2.6-.6 2.6-2.1 0-1.1-.3-1.6-1.3-1.8.9-.1 1.1-.8 1.1-1.8 0-1.3-.7-1.7-2.4-1.7-.8 0-1.6.1-2.4.2l.1 1.2zm-2.1 4.1c-.5 0-.7.2-.7.7v.4c0 .5.2.7.7.7h.4c.5 0 .7-.2.7-.7v-.5c0-.5-.2-.7-.7-.7h-.4zm-1.3-1.1h-.9v-3h-1.5l-.3 1.1v1.8H275c-.2 0-.3-.1-.2-.3l1.6-4.1h-1.8l-1.8 4.6c-.2.6.2 1.1.8 1.1h2.9v1.5h1.8V68l.8-.2v-1zm-87.6 125v-7.2h-1.9l-1.8.7.2 1.2 1.7-.4c-.1.3-.1.6-.1.9v4.8h1.9zm-4.9-1.7c-.5 0-.7.2-.7.7v.5c0 .5.2.7.7.7h.4c.5 0 .7-.2.7-.7v-.5c0-.5-.2-.7-.7-.7h-.4zm-4.1.4c-.8 0-.9-.3-.9-1.9.3-.2.6-.3.9-.3.7 0 .8.2.8.9 0 1 0 1.3-.8 1.3m2.2-5.8c-.7-.2-1.5-.2-1.9-.2-2.1 0-3.1.5-3.1 3.8 0 2.9.6 3.6 2.8 3.6 2.2 0 2.7-.8 2.7-2.6 0-1.6-.5-2.2-2.1-2.2-.6 0-1.1.1-1.5.4.1-1.3.3-1.6 1.2-1.6h1.8l.1-1.2zm-6.3 7.1v-7.2h-1.9l-1.8.7.2 1.2 1.7-.4c-.1.3-.1.6-.1.9v4.8h1.9zm42-12.3c0-.2.1-.4.4-.4h1.1v.6c-.3.2-.7.4-1 .4-.3 0-.5-.1-.5-.4v-.2zm-1.4-2c.9-.1 1.7-.1 2.2-.1.5 0 .7.2.7.6v.1h-1.7c-1 0-1.7.5-1.7 1.3v.5c0 1 .8 1.5 1.7 1.5.9 0 1.5-.5 1.8-.9l.2.8h1.5V178c0-1.5-.8-2-2.2-2-.8 0-2.1.1-2.8.3l.3 1.2zm-.9.1v-1.4H213v1.4h1.6v3.7h1.9v-3.7h1.6zm-9.2 1.9c0-.2.1-.4.4-.4h1.1v.6c-.3.2-.7.4-1 .4-.3 0-.5-.1-.5-.4v-.2zm-1.4-2c.9-.1 1.7-.1 2.2-.1.5 0 .7.2.7.6v.1h-1.7c-1 0-1.7.5-1.7 1.3v.5c0 1 .8 1.5 1.7 1.5.9 0 1.5-.5 1.8-.9l.2.8h1.5V178c0-1.5-.8-2-2.2-2-.8 0-2.1.1-2.8.3l.3 1.2zm-1.3-1.3h-1.9v1.8h-1.6v-1.8h-1.9v5.2h1.9v-2.1h1.6v2.1h1.9v-5.2zm-8.8 0c-.4 0-.6.2-.7.6l-.4 1.9c-.1.3-.1.5-.1.8h-.1c0-.3 0-.5-.1-.8l-.5-1.9c-.1-.4-.3-.6-.7-.6h-1.6c-.4 0-.6.2-.7.6l-.1 4.5h1.7l.1-3.8h.1l.6 2.5c.1.4.3.6.7.6h.8c.4 0 .6-.2.7-.6l.6-2.5h.1l.1 3.8h1.7l-.1-4.5c0-.4-.2-.6-.6-.6h-1.5zm-8.6 1.2c.6 0 .8.3.8 1.4 0 1.1-.2 1.4-.8 1.4-.6 0-.8-.3-.8-1.4 0-1.2.2-1.4.8-1.4m0-1.4c-2 0-2.8.7-2.8 2.7s.7 2.7 2.8 2.7c2 0 2.8-.7 2.8-2.7 0-1.9-.8-2.7-2.8-2.7m-5.2 2.6c1.2-.2 1.1-.3 1.8-2.5h-1.9c-.4 1.7-.5 1.9-1.2 1.9h-.2c0-.2.1-.4.1-.7v-1.2h-1.9v5.2h1.9v-1.6c0-.1 0-.3-.1-.4h.4c.6 0 .6.1 1.1 2.1h2c-.7-2.5-.8-2.6-2-2.8zm-8.5-.1h-.7c-.5 0-.6-.1-.6-.6 0-.4.1-.5.6-.5h.7v1.1zm-2.1.6c-.3 0-.9.1-1 .6l-.4 1.6h1.9l.3-1.4c0-.2.2-.3.5-.3h.7v1.7h1.8v-5.2c-.6-.1-1.2-.1-2.6-.1-1.9 0-2.4.4-2.4 1.7.1.6.4 1.2 1.2 1.4zm-5.5.4c0-.2.1-.4.4-.4h1.1v.6c-.3.2-.7.4-1 .4-.3 0-.5-.1-.5-.4v-.2zm-1.4-2c.9-.1 1.7-.1 2.2-.1.5 0 .7.2.7.6v.1h-1.7c-1 0-1.7.5-1.7 1.3v.5c0 1 .8 1.5 1.7 1.5.9 0 1.5-.5 1.8-.9l.2.8h1.5V178c0-1.5-.8-2-2.2-2-.8 0-2.1.1-2.8.3l.3 1.2zm-1.3-1.3h-3.1c-.9 0-1.4.5-1.4 1.3-.1.9-.2 1.7-.3 2-.1.4-.4.4-.9.5l.2 1.4c1.1.2 2.2-.1 2.4-1.4.1-.5.2-1.4.3-2.2 0-.3.2-.4.5-.4h.4v3.9h1.9v-5.1zm-6.3 5.1v-5.2h-1.6l-1.6 2.5c-.2.2-.3.5-.4.8 0-.3.1-.5.1-.8v-2.4h-1.7v5.2h1.6l1.6-2.4c.1-.2.3-.6.4-.9 0 .3-.1.6-.1.9v2.3h1.7zm-8.4-3.7c1.4-.2 1.4-.8 2.2-3.4h-2c-.6 2.2-.8 2.8-1.5 2.8h-.3c.1-.3.1-.6.1-.9v-1.9h-1.9v1.9c0 .3 0 .6.1.9h-.4c-.7 0-.8-.6-1.5-2.8h-2c.8 2.6.8 3.2 2.2 3.4v.1c-1.4.2-1.5.8-2.4 3.7h2c.8-2.6.9-3.1 1.6-3.1h.4c-.1.2-.1.5-.1.7v2.4h1.9V179c0-.2 0-.4-.1-.7h.3c.7 0 .8.5 1.6 3.1h2.1c-.8-3-.9-3.6-2.3-3.8zm-31.2-45.1c0-.2.1-.4.4-.4h1.1v.6c-.3.2-.7.4-1 .4-.3 0-.5-.1-.5-.4v-.2zm-1.4-2c.9-.1 1.7-.1 2.2-.1.5 0 .7.2.7.6v.1h-1.7c-1 0-1.7.5-1.7 1.3v.5c0 1 .8 1.5 1.7 1.5.9 0 1.5-.5 1.8-.9l.2.8h1.5V131c0-1.5-.8-2-2.2-2-.8 0-2.1.1-2.8.3l.3 1.2zm-.8.1v-1.4h-5.2v1.4h1.6v3.7h1.9v-3.7h1.7zm-9.3 1.9c0-.2.1-.4.4-.4h1.1v.6c-.3.2-.7.4-1 .4-.3 0-.5-.1-.5-.4v-.2zm-1.4-2c.9-.1 1.7-.1 2.2-.1.5 0 .7.2.7.6v.1h-1.7c-1 0-1.7.5-1.7 1.3v.5c0 1 .8 1.5 1.7 1.5.9 0 1.5-.5 1.8-.9l.2.8h1.5V131c0-1.5-.8-2-2.2-2-.8 0-2.1.1-2.8.3l.3 1.2zm-1.3-1.4h-1.9v1.8h-1.6v-1.8h-1.9v5.2h1.9v-2.1h1.6v2.1h1.9v-5.2zm-8.7 0c-.4 0-.6.2-.7.6l-.4 1.9c-.1.3-.1.5-.1.8h-.1c0-.3 0-.5-.1-.8l-.5-1.9c-.1-.4-.3-.6-.7-.6h-1.6c-.4 0-.6.2-.7.6l-.1 4.5h1.7l.1-3.8h.1l.6 2.5c.1.4.3.6.7.6h.8c.4 0 .6-.2.7-.6l.6-2.5h.1l.1 3.8h1.7l-.1-4.5c0-.4-.2-.6-.6-.6H96zm-8.6 1.2c.6 0 .8.3.8 1.4 0 1.1-.2 1.4-.8 1.4-.6 0-.8-.3-.8-1.4 0-1.1.1-1.4.8-1.4m0-1.3c-2 0-2.8.7-2.8 2.7s.7 2.7 2.8 2.7c2 0 2.8-.7 2.8-2.7s-.8-2.7-2.8-2.7m-5.2 2.6c1.2-.2 1.1-.3 1.8-2.5h-1.9c-.4 1.7-.5 1.9-1.2 1.9h-.2c0-.2.1-.4.1-.7v-1.2h-1.9v5.2h1.9v-1.6c0-.1 0-.3-.1-.4h.4c.6 0 .6.1 1.1 2.1h2c-.8-2.5-.8-2.6-2-2.8zm-8.5-.1H73c-.5 0-.6-.1-.6-.6 0-.4.1-.5.6-.5h.7v1.1zm-2.1.6c-.3 0-.9.1-1 .6l-.4 1.6h1.9l.3-1.4c0-.2.2-.3.5-.3h.7v1.7h1.8v-5.2c-.6-.1-1.2-.1-2.6-.1-1.9 0-2.4.4-2.4 1.7.1.6.3 1.2 1.2 1.4zm-5.5.4c0-.2.1-.4.4-.4h1.1v.6c-.3.2-.7.4-1 .4-.3 0-.5-.1-.5-.4v-.2zm-1.4-2c.9-.1 1.7-.1 2.2-.1.5 0 .7.2.7.6v.1h-1.7c-1 0-1.7.5-1.7 1.3v.5c0 1 .8 1.5 1.7 1.5.9 0 1.5-.5 1.8-.9l.2.8h1.5V131c0-1.5-.8-2-2.2-2-.8 0-2.1.1-2.8.3l.3 1.2zm-1.3-1.4h-3.1c-.9 0-1.4.5-1.4 1.3-.1.9-.2 1.7-.3 2-.1.4-.4.4-.9.5l.2 1.4c1.1.2 2.2-.1 2.4-1.4.1-.5.2-1.4.3-2.2 0-.3.2-.4.5-.4h.4v3.9h1.9v-5.1zm-6.3 5.2v-5.2h-1.6l-1.6 2.5c-.2.2-.3.5-.4.8 0-.3.1-.5.1-.8v-2.4h-1.7v5.2h1.6L55 132c.1-.2.3-.6.4-.9 0 .3-.1.6-.1.9v2.3h1.8zm-8.4-3.8c1.4-.2 1.4-.8 2.2-3.4h-2c-.6 2.2-.8 2.8-1.5 2.8h-.3c.1-.3.1-.6.1-.9v-1.9h-1.9v1.9c0 .3 0 .6.1.9H45c-.7 0-.8-.6-1.5-2.8h-2c.8 2.6.8 3.2 2.2 3.4v.1c-1.4.2-1.5.8-2.4 3.7h2c.8-2.6.9-3.1 1.6-3.1h.4c-.1.2-.1.5-.1.7v2.4h1.9v-2.4c0-.2 0-.4-.1-.7h.3c.7 0 .8.5 1.6 3.1H51c-.8-2.9-.9-3.5-2.3-3.8zm236.7 116.7c0-.9.1-1.2.8-1.2.8 0 .9.3.9 1.9-.3.2-.6.3-.9.3-.6-.1-.8-.3-.8-1m-1.5 4.6c.8.2 1.6.2 2 .2 2.3 0 3.1-.5 3.1-3.8 0-2.9-.5-3.6-2.7-3.6-2.1 0-2.7.8-2.7 2.6 0 1.3.5 2.2 2.1 2.2.6 0 1.1-.1 1.5-.4-.1 1.2-.3 1.6-1.3 1.6H284l-.1 1.2zm-2.2-1.7c-.5 0-.7.2-.7.7v.5c0 .5.2.7.7.7h.4c.5 0 .7-.2.7-.7v-.5c0-.5-.2-.7-.7-.7h-.4zm-4.1.5c-.8 0-.9-.3-.9-1.9.3-.2.6-.3.9-.3.7 0 .8.2.8.9 0 1 0 1.3-.8 1.3m2.2-5.8c-.7-.2-1.5-.2-1.9-.2-2.1 0-3.1.5-3.1 3.8 0 2.9.6 3.6 2.8 3.6 2.2 0 2.7-.8 2.7-2.6 0-1.6-.5-2.2-2.1-2.2-.6 0-1.1.1-1.5.4.1-1.3.3-1.6 1.2-1.6h1.8l.1-1.2zm26.3-6.2h-.7c-.5 0-.6-.1-.6-.6 0-.4.1-.5.6-.5h.7v1.1zm-2 .6c-.3 0-.9.1-1 .6l-.4 1.6h1.9l.3-1.4c0-.2.2-.3.5-.3h.7v1.7h1.8v-5.2c-.6-.1-1.2-.1-2.6-.1-1.9 0-2.4.4-2.4 1.7 0 .6.3 1.2 1.2 1.4zm-5.5.4c0-.2.1-.4.4-.4h1.1v.6c-.3.2-.7.4-1 .4-.3 0-.5-.1-.5-.4v-.2zm-1.5-2c.9-.1 1.7-.1 2.2-.1.5 0 .7.2.7.6v.1h-1.7c-1 0-1.7.5-1.7 1.3v.5c0 1 .8 1.5 1.7 1.5.9 0 1.5-.5 1.8-.9l.2.8h1.5v-3.3c0-1.5-.8-2-2.2-2-.8 0-2.1.1-2.8.3l.3 1.2zm-2.8 1.1c1.2-.2 1.2-.3 1.8-2.4h-1.9c-.5 1.7-.6 1.9-1.1 1.9h-.3c0-.2.1-.4.1-.6v-1.2h-1.6v1.2c0 .2 0 .4.1.6h-.3c-.5 0-.6-.2-1.1-1.9h-2c.7 2.1.6 2.3 1.8 2.4v.1c-1.2.2-1.3.3-2 2.7h1.9c.7-2 .7-2.1 1.1-2.1h.4c0 .2-.1.3-.1.4v1.6h1.7v-1.6c0-.1 0-.3-.1-.4h.4c.5 0 .5.1 1.2 2.1h1.9c-.7-2.5-.7-2.6-1.9-2.8zm-9.7-1.3c.6 0 .8.3.8 1.4 0 1.1-.2 1.4-.8 1.4-.6 0-.8-.3-.8-1.4 0-1.1.1-1.4.8-1.4m0-1.3c-2 0-2.8.7-2.8 2.7s.7 2.7 2.8 2.7c2 0 2.8-.7 2.8-2.7s-.8-2.7-2.8-2.7m-4.9 5.3h1.9l-1.5-2.6 1.4-2.5h-1.9l-1 1.9-1-1.9h-1.9l1.4 2.5-1.5 2.6h1.9l1.1-2.1 1.1 2.1zm-4.8 0v-5.2h-1.6l-1.6 2.5c-.2.2-.3.5-.4.8 0-.3.1-.5.1-.8v-2.4h-1.7v5.2h1.6l1.6-2.4c.1-.2.3-.6.4-.9 0 .3-.1.6-.1.9v2.3h1.7zm-9.8-3.6c.3-.2.6-.3 1-.3.5 0 .7.2.7 1.4s-.2 1.4-.7 1.4c-.4 0-.6-.1-.9-.2v-2.3zm-.4-1.6h-1.5v7.1h1.9v-2.2c.4.3 1 .5 1.7.5 1.3 0 2-.6 2-2.7 0-1.8-.5-2.8-1.8-2.8-.8 0-1.6.4-2 .9l-.3-.8zm-2.7-2h-6v7.2h1.9v-5.9h2.1v5.9h2v-7.2zm-72.7 14.6c.8 0 1 .2 1 .9s-.2.9-1 .9-1-.2-1-.9.2-.9 1-.9m0-2.9c.7 0 .9.2.9.9 0 .6-.1.8-.9.8-.7 0-.9-.1-.9-.8 0-.8.2-.9.9-.9m-1.6 2.3c-1 .1-1.3 1-1.3 1.9 0 1.4.6 1.9 2.8 1.9 2.3 0 2.8-.5 2.8-1.9 0-1-.2-1.8-1.3-1.9.8-.1 1.1-.9 1.1-1.6 0-1.3-.5-1.9-2.6-1.9-2.2 0-2.6.6-2.6 1.9 0 .7.4 1.5 1.1 1.6zm-3.2 1.9c-.5 0-.7.2-.7.7v.5c0 .5.2.7.7.7h.4c.5 0 .7-.2.7-.7v-.5c0-.5-.2-.7-.7-.7h-.4zm-6.1-5.4.1 1.6h3.1c-.2.3-.3.5-.4.8l-1.7 4.9h1.9l2.2-6.2c.2-.5-.2-1-.7-1h-4.5zm25.7-6.9c.3-.2.6-.3 1-.3.5 0 .7.2.7 1.4s-.2 1.4-.7 1.4c-.4 0-.6-.1-.9-.2v-2.3zm-.4-1.6h-1.5v7.1h1.9v-2.2c.4.3 1 .5 1.7.5 1.3 0 2-.6 2-2.7 0-1.8-.5-2.8-1.8-2.8-.8 0-1.6.4-2 .9l-.3-.8zm-5.2 1.2c.6 0 .8.3.8 1.4 0 1.1-.2 1.4-.8 1.4-.6 0-.8-.3-.8-1.4 0-1.1.2-1.4.8-1.4m0-1.3c-2 0-2.8.7-2.8 2.7s.7 2.7 2.8 2.7c2 0 2.8-.7 2.8-2.7s-.7-2.7-2.8-2.7m-5.9 4h-1.5c.3-.6.4-1.3.6-2.3 0-.3.2-.4.5-.4h.5v2.7zm2.6 0h-.9v-3.9h-2.8c-.9 0-1.4.4-1.5 1.3-.1.9-.3 1.8-.6 2.6h-.6v2.7h1.2l.1-1.4h3.7l.1 1.4h1.3v-2.7zm-7.2 1.3v-5.2h-1.6l-1.6 2.5c-.2.2-.3.5-.4.8 0-.3.1-.5.1-.8v-2.4h-1.7v5.2h1.6l1.6-2.4c.1-.2.3-.6.4-.9 0 .3-.1.6-.1.9v2.3h1.7zm-9.8-3.6c.3-.2.6-.3 1-.3.5 0 .7.2.7 1.4s-.2 1.4-.7 1.4c-.4 0-.6-.1-.9-.2v-2.3zm-.4-1.6h-1.5v7.1h1.9v-2.2c.4.3 1 .5 1.7.5 1.3 0 2-.6 2-2.7 0-1.8-.5-2.8-1.8-2.8-.8 0-1.6.4-2 .9l-.3-.8zm-5.2 1.2c.6 0 .8.3.8 1.4 0 1.1-.2 1.4-.8 1.4-.6 0-.8-.3-.8-1.4 0-1.1.2-1.4.8-1.4m0-1.3c-2 0-2.8.7-2.8 2.7s.7 2.7 2.8 2.7c2 0 2.8-.7 2.8-2.7s-.7-2.7-2.8-2.7m-5.6 1.5c1.4-.2 1.5-.8 2.3-3.4h-2c-.6 2.2-.7 2.8-1.7 2.8h-.3c.1-.3.1-.6.1-.9v-1.9h-1.9v7.2h1.9V239c0-.2 0-.4-.1-.7h.4c1 0 1.1.5 1.8 3.1h2c-.9-3-1-3.5-2.5-3.8zm-75.8-94.1h-.9v-3h-1.5l-.3 1.1v1.8h-1.4c-.2 0-.3-.1-.2-.3l1.6-4.1h-1.8l-1.8 4.6c-.2.6.2 1.1.8 1.1h2.9v1.5h1.8v-1.5l.8-.2v-1zm-8.1 1c-.5 0-.7.2-.7.7v.5c0 .5.2.7.7.7h.4c.5 0 .7-.2.7-.7v-.5c0-.5-.2-.7-.7-.7h-.4zm-1.9 1.8v-7.2h-1.9l-1.8.7.2 1.2 1.7-.4c-.1.3-.1.6-.1.9v4.8h1.9zm-4.7 0v-7.2h-1.9l-1.8.7.2 1.2 1.7-.4c-.1.3-.1.6-.1.9v4.8h1.9zm41.7 191.5c0-.2.1-.4.4-.4h1.1v.6c-.3.2-.7.4-1 .4-.3 0-.5-.1-.5-.4v-.2zm-1.4-2c.9-.1 1.7-.1 2.2-.1.5 0 .7.2.7.6v.1H118c-1 0-1.7.5-1.7 1.3v.5c0 1 .8 1.5 1.7 1.5.9 0 1.5-.5 1.8-.9l.2.8h1.5v-3.3c0-1.5-.8-2-2.2-2-.8 0-2.1.1-2.8.3l.3 1.2zm-.8.1v-1.4h-5.2v1.4h1.6v3.7h1.9v-3.7h1.7zm-9.3 1.9c0-.2.1-.4.4-.4h1.1v.6c-.3.2-.7.4-1 .4-.3 0-.5-.1-.5-.4v-.2zm-1.4-2c.9-.1 1.7-.1 2.2-.1.5 0 .7.2.7.6v.1h-1.7c-1 0-1.7.5-1.7 1.3v.5c0 1 .8 1.5 1.7 1.5.9 0 1.5-.5 1.8-.9l.2.8h1.5v-3.3c0-1.5-.8-2-2.2-2-.8 0-2.1.1-2.8.3l.3 1.2zm-1.3-1.4h-1.9v1.8h-1.6v-1.8h-1.9v5.2h1.9v-2.1h1.6v2.1h1.9v-5.2zm-8.7 0c-.4 0-.6.2-.7.6l-.4 1.9c-.1.3-.1.5-.1.8H94c0-.3 0-.5-.1-.8l-.5-1.9c-.1-.4-.3-.6-.7-.6h-1.6c-.4 0-.6.2-.7.6l-.1 4.5H92l.1-3.8h.1l.6 2.5c.1.4.3.6.7.6h.8c.4 0 .6-.2.7-.6l.6-2.5h.1l.1 3.8h1.7l-.1-4.5c0-.4-.2-.6-.6-.6h-1.5zm-8.6 1.2c.6 0 .8.3.8 1.4 0 1.1-.2 1.4-.8 1.4-.6 0-.8-.3-.8-1.4 0-1.1.1-1.4.8-1.4m0-1.3c-2 0-2.8.7-2.8 2.7s.7 2.7 2.8 2.7c2 0 2.8-.7 2.8-2.7s-.8-2.7-2.8-2.7m-5.2 2.6c1.2-.2 1.1-.3 1.8-2.5h-1.9c-.4 1.7-.5 1.9-1.2 1.9H80c0-.2.1-.4.1-.7v-1.2h-1.9v5.2H80V338c0-.1 0-.3-.1-.4h.4c.6 0 .6.1 1.1 2.1h2c-.7-2.5-.7-2.6-1.9-2.8zm-8.6-.1h-.7c-.5 0-.6-.1-.6-.6 0-.4.1-.5.6-.5h.7v1.1zm-2 .6c-.3 0-.9.1-1 .6l-.4 1.6h1.9l.3-1.4c0-.2.2-.3.5-.3h.7v1.7h1.8v-5.2c-.6-.1-1.2-.1-2.6-.1-1.9 0-2.4.4-2.4 1.7.1.6.3 1.2 1.2 1.4zm-5.5.4c0-.2.1-.4.4-.4h1.1v.6c-.3.2-.7.4-1 .4-.3 0-.5-.1-.5-.4v-.2zm-1.4-2c.9-.1 1.7-.1 2.2-.1.5 0 .7.2.7.6v.1h-1.7c-1 0-1.7.5-1.7 1.3v.5c0 1 .8 1.5 1.7 1.5.9 0 1.5-.5 1.8-.9l.2.8h1.5v-3.3c0-1.5-.8-2-2.2-2-.8 0-2.1.1-2.8.3l.3 1.2zm-1.3-1.4h-3.1c-.9 0-1.4.5-1.4 1.3-.1.9-.2 1.7-.3 2-.1.4-.4.4-.9.5l.2 1.4c1.1.2 2.2-.1 2.4-1.4.1-.5.2-1.4.3-2.2 0-.3.2-.4.5-.4h.4v3.9h1.9v-5.1zm-6.3 5.2v-5.2h-1.6l-1.6 2.5c-.2.2-.3.5-.4.8 0-.3.1-.5.1-.8v-2.4H51v5.2h1.6l1.6-2.4c.1-.2.3-.6.4-.9 0 .3-.1.6-.1.9v2.3h1.9zm-8.4-3.8c1.4-.2 1.4-.8 2.2-3.4h-2c-.6 2.2-.8 2.8-1.5 2.8h-.3c.1-.3.1-.6.1-.9v-1.9h-1.9v1.9c0 .3 0 .6.1.9h-.4c-.7 0-.8-.6-1.5-2.8h-2c.8 2.6.8 3.2 2.2 3.4v.1c-1.4.2-1.5.8-2.4 3.7h2c.8-2.6.9-3.1 1.6-3.1h.4c-.1.2-.1.5-.1.7v2.4h1.9v-2.4c0-.2 0-.4-.1-.7h.3c.7 0 .8.5 1.6 3.1h2.1c-.8-2.9-.9-3.5-2.3-3.8zm41.6 15.8v-7.2h-1.9l-1.8.7.2 1.2 1.7-.4c-.1.3-.1.6-.1.9v4.8h1.9zm-5-1.8c-.5 0-.7.2-.7.7v.5c0 .5.2.7.7.7h.4c.5 0 .7-.2.7-.7v-.5c0-.5-.2-.7-.7-.7h-.4zm-4.3-1.3c.8 0 1 .2 1 .9s-.2.9-1 .9-1-.2-1-.9.1-.9 1-.9m0-2.9c.7 0 .9.2.9.9 0 .6-.1.8-.9.8-.7 0-.9-.1-.9-.8 0-.8.1-.9.9-.9m-1.6 2.3c-1 .1-1.3 1-1.3 1.9 0 1.4.6 1.9 2.8 1.9 2.3 0 2.8-.5 2.8-1.9 0-1-.2-1.8-1.3-1.9.8-.1 1.1-.9 1.1-1.6 0-1.3-.5-1.9-2.6-1.9-2.2 0-2.6.6-2.6 1.9 0 .7.3 1.5 1.1 1.6zm-2.6 3.7v-7.2h-1.9l-1.8.7.2 1.2 1.7-.4c-.1.3-.1.6-.1.9v4.8h1.9zm127.6-184v-16.4h-4.4l-4.2 1.6.5 2.8 3.8-.9c-.1.7-.2 1.3-.2 2v10.9h4.5zm-11.3-4.1c-1.1 0-1.5.4-1.5 1.5v1c0 1.1.4 1.5 1.5 1.5h1c1.1 0 1.5-.4 1.5-1.5v-1c0-1.1-.4-1.5-1.5-1.5h-1zm-14.8-9.1h4.6c1.7 0 2.1.2 2.1 1.5 0 1.1-.1 1.8-1.9 1.8h-3.1v2.9h3.1c1.8 0 2.1.5 2.1 1.9 0 1.7-.6 2-2.7 2-1.4 0-2.5 0-4.5-.1l-.1 3.2c1.9.3 3.9.5 5.9.5 4.4 0 5.9-1.4 5.9-4.9 0-2.5-.7-3.8-3-4.1v-.1c2.1-.3 2.6-1.8 2.6-4.1 0-2.9-1.5-3.8-5.5-3.8-1.8 0-3.6.1-5.5.5v2.8zm-8.7 6.1c1.8 0 2.2.4 2.2 2.1 0 1.6-.4 2-2.2 2-1.9 0-2.3-.4-2.3-2 0-1.7.4-2.1 2.3-2.1m0-6.7c1.6 0 2 .4 2 2 0 1.5-.3 1.8-2 1.8s-2.1-.3-2.1-1.8c0-1.6.4-2 2.1-2m-3.6 5.3c-2.4.2-2.9 2.2-2.9 4.4 0 3.2 1.3 4.4 6.4 4.4 5.2 0 6.4-1.2 6.4-4.4 0-2.2-.5-4.2-2.9-4.4v-.1c1.8-.2 2.5-2 2.5-3.8 0-3.1-1-4.4-6-4.4-4.9 0-6 1.3-6 4.4 0 1.8.7 3.6 2.5 3.9z" class="st2"/><circle cx="183.5" cy="132.6" r="14.6" style="fill:none;stroke:#3c3c3b"/><path d="M190.1 132.4c2.5-.3 2.5-1.4 3.9-5.9h-3.4c-1 3.7-1.2 4.8-3 4.8h-.6c.1-.5.1-1 .1-1.5v-3.3h-3.4v12.4h3.4v-4.2c0-.3-.1-.8-.1-1.2h.6c1.7 0 1.9.8 3.2 5.3h3.5c-1.5-5.1-1.7-6.1-4.3-6.4zm-16.7-3.5h3.5c1.3 0 1.6.2 1.6 1.2 0 .8-.1 1.4-1.5 1.4h-2.4v2.2h2.4c1.3 0 1.6.4 1.6 1.5 0 1.3-.5 1.5-2.1 1.5-1.1 0-1.9 0-3.4-.1l-.1 2.4c1.4.2 3 .3 4.5.3 3.3 0 4.5-1.1 4.5-3.7 0-1.9-.6-2.8-2.3-3.1v-.1c1.6-.3 2-1.4 2-3.1 0-2.2-1.2-2.9-4.2-2.9-1.4 0-2.8.1-4.2.3l.1 2.2zm126.7 4.3h-.7c-.5 0-.6-.1-.6-.6 0-.4.1-.5.6-.5h.7v1.1zm-2 .7c-.3 0-.9.1-1 .6l-.4 1.6h1.9l.3-1.4c0-.2.2-.3.5-.3h.7v1.7h1.8v-5.2c-.6-.1-1.2-.1-2.6-.1-1.9 0-2.4.4-2.4 1.7.1.6.3 1.2 1.2 1.4zm-2.2-3H294v1.8h-1.6v-1.8h-1.9v5.2h1.9V134h1.6v2.1h1.9v-5.2zm-7.8 5.2h1.9l-1.5-2.6 1.4-2.5H288l-1 1.9-1-1.9h-1.9l1.4 2.5-1.5 2.6h1.9l1.1-2.1 1.1 2.1zm-4.2-5.2h-2l-.8 3.1c-.1.2-.1.6-.2.9h-.1c0-.3-.1-.6-.1-.9l-.8-3.1h-2l1.6 4.7c.1.3.3.4.6.4h.3c-.1.3-.3.5-.5.6-.3.2-.8.2-1.4.2l-.2 1.2c.7.1 1.5.1 2.1-.1.8-.3 1.4-.8 1.8-2l1.7-5zm-8.5 1.4c1.4-.2 1.5-.8 2.3-3.4h-2c-.6 2.2-.7 2.8-1.7 2.8h-.3c.1-.3.1-.6.1-.9v-1.9h-1.9v7.2h1.9v-2.4c0-.2 0-.4-.1-.7h.4c1 0 1.1.5 1.8 3.1h2c-.9-3-1-3.5-2.5-3.8zm19.7 10.1.1-1.4h-4.5l-.2 3.2c0 .3.2.6.6.6l1.1.1c1 .1 1.3.2 1.3.9 0 .6-.2.8-1.2.8-.5 0-1.2 0-1.9-.1l-.2 1.5c.9.1 1.8.2 2.5.2 2 0 2.6-1.1 2.6-2.3 0-1.2-.4-2.2-2.1-2.4l-1.2-.2.1-1h3zm-6.7 3.9c-.5 0-.7.2-.7.7v.5c0 .5.2.7.7.7h.4c.5 0 .7-.2.7-.7v-.5c0-.5-.2-.7-.7-.7h-.4zm-6.5-4h2c.7 0 .9.1.9.7 0 .5-.1.8-.8.8h-1.4v1.3h1.4c.8 0 .9.2.9.8 0 .7-.3.9-1.2.9-.6 0-1.1 0-2-.1l-.1 1.4c.8.1 1.7.2 2.6.2 1.9 0 2.6-.6 2.6-2.1 0-1.1-.3-1.6-1.3-1.8.9-.1 1.1-.8 1.1-1.8 0-1.3-.7-1.7-2.4-1.7-.8 0-1.6.1-2.4.2l.1 1.2zm-1.4 5.8v-7.2h-1.9l-1.8.7.2 1.2 1.7-.4c-.1.3-.1.6-.1.9v4.8h1.9z" class="st2"/><path d="M19.8 21.1h319.6v417.7H19.8z" class="st5"/><path d="M146 77.2h51.4v2.1H146z" class="st3"/><path d="M146 77.2h51.4v7.2H146zm104.7 0h51.4v2.1h-51.4z" class="st3"/><path d="M250.7 77.2h51.4v7.2h-51.4z" class="st3"/><path d="M58.9 246.1h16.6v17.3H58.9zm-15.8-35.4v-24.4m-6.9 2.9h5.4v4.1h-5.4z" class="st7"/><defs><path id="SVGID_3_" d="M19.8 21.1h319.6v417.7H19.8z"/></defs><clipPath id="SVGID_4_"><use xlink:href="#SVGID_3_" style="overflow:visible"/></clipPath><path d="M87.2 233.3h-.4c-.3 0-.3-.1-.3-.4 0-.2.1-.3.3-.3h.4v.7zm-1.2.4c-.2 0-.5.1-.6.3l-.2 1h1.2l.2-.8c0-.1.1-.2.3-.2h.4v1h1.1v-3.1c-.4 0-.7-.1-1.6-.1-1.1 0-1.4.2-1.4 1-.1.4 0 .7.6.9zm-3.3.2c0-.1.1-.2.3-.2h.7v.4c-.2.1-.4.2-.6.2-.2 0-.3-.1-.3-.3v-.1zm-.9-1.2h1.3c.3 0 .4.1.4.4v.1h-1c-.6 0-1 .3-1 .8v.3c0 .6.5.9 1 .9s.9-.3 1.1-.5l.1.5h.9v-2c0-.9-.5-1.2-1.3-1.2-.5 0-1.2.1-1.7.2l.2.5zm-.8-.8h-1.1v1.1H79v-1.1h-1.1v3.1H79v-1.3h.9v1.3H81v-3.1zm-3.8 0h-1.1v1.1h-1v-1.1H74v3.1h1.1v-1.3h1v1.3h1.1v-3.1zm-5.9 2c0-.1.1-.2.3-.2h.7v.4c-.2.1-.4.2-.6.2-.2 0-.3-.1-.3-.3v-.1zm-.8-1.2h1.3c.3 0 .4.1.4.4v.1h-1c-.6 0-1 .3-1 .8v.3c0 .6.5.9 1 .9s.9-.3 1.1-.5l.1.5h.9v-2c0-.9-.5-1.2-1.3-1.2-.5 0-1.2.1-1.7.2l.2.5zm-3 1.5v-1.1h.6c.4 0 .6.1.6.6 0 .4-.1.5-.5.5h-.7zm0-1.8v-.9h.5c.4 0 .5.1.5.5s-.1.5-.5.5h-.5zm1.4.3c.5 0 .8-.4.8-1 0-.9-.4-1.1-1.6-1.1-.8 0-1.2 0-1.8.1v4.3h2c1.1 0 1.5-.2 1.5-1.1 0-.7-.2-1.1-.9-1.2zm12.3 5.5v-.9h-2.7l-.1 1.9c0 .2.1.4.3.4l.7.1c.6.1.8.1.8.5 0 .3-.2.5-.7.5-.3 0-.7 0-1.1-.1l-.1.9c.5.1 1.1.1 1.5.1 1.2 0 1.6-.6 1.6-1.4 0-.7-.3-1.3-1.3-1.4l-.7-.1v-.6h1.8zm-4 2.4c-.3 0-.4.1-.4.4v.3c0 .3.1.4.4.4h.3c.3 0 .4-.1.4-.4v-.3c0-.3-.1-.4-.4-.4h-.3zm-3.9-2.4h1.2c.4 0 .6.1.6.4 0 .3 0 .5-.5.5h-.8v.8h.8c.5 0 .6.1.6.5s-.2.5-.7.5h-1.2v.8c.5.1 1 .1 1.5.1 1.1 0 1.6-.4 1.5-1.3 0-.7-.2-1-.8-1.1.6-.1.7-.5.7-1.1 0-.8-.4-1-1.5-1-.5 0-1 0-1.4.1v.8zm9.4-43.2h-1.2l-.5 1.8c0 .1-.1.3-.1.5h-.1c0-.2-.1-.4-.1-.5l-.5-1.8H79l1 2.8c.1.2.2.3.4.3h.2c-.1.2-.2.3-.3.4-.2.1-.5.1-.9.1l-.1.7c.4.1.9.1 1.3-.1.5-.2.8-.5 1.1-1.2l1-3zm-6.1 3.6 2.5-4.8h-.9l-2.5 4.8h.9zm-1.3-1.4c-.4 0-.8.1-1.4.1-.5 0-.7-.3-.7-1.2 0-1 .1-1.2.7-1.2h1.3l.1-.9c-.4-.1-.7-.2-1.4-.2-1.4 0-1.9.6-1.9 2.2s.5 2.2 1.9 2.2c.6 0 1 0 1.5-.2l-.1-.8zm4.2 6.8c-.5 0-.5-.2-.6-1.1.2-.1.3-.2.6-.2.4 0 .5.1.5.6s0 .7-.5.7m1.4-3.5c-.4-.1-.9-.1-1.1-.1-1.3 0-1.9.3-1.9 2.3 0 1.7.4 2.2 1.7 2.2 1.3 0 1.6-.5 1.6-1.6 0-.9-.3-1.3-1.3-1.3-.4 0-.6.1-.9.3 0-.8.2-.9.7-.9h1.1l.1-.9zm-4.2 3.2c-.3 0-.4.1-.4.4v.3c0 .3.1.4.4.4h.3c.3 0 .4-.1.4-.4v-.3c0-.3-.1-.4-.4-.4h-.3zm-1.2 1.1v-4.3h-1.2l-1.1.4.1.7 1-.2v3.4h1.2z" style="clip-path:url(#SVGID_4_);fill:#3c3c3b"/><path d="M100.3 69h31.2v7.2h-31.2z" class="st2"/><path d="M102.5 72.6h28.9v12.1h-28.9zM30.8 69H62v7.2H30.8z" class="st2"/><path d="M30.8 72.6h28.9v12.1H30.8z" class="st2"/><path d="M39.8 76.6h65.6v2.6H39.8z" class="st3"/><path d="M37.5 69.4h67.9v15H37.5z" class="st3"/><path d="M19.8 69h15.3v369.8H19.8zm109.5 14.5h6.3v141.7h-6.3z" class="st2"/><path d="M298.6 192.1h4.1v5.4h-4.1z" class="st7"/><path d="M323.2 191h-26.3v9.1" class="st9"/><path d="M333.4 191h-12v9.1m2.7 29-1.3.7 13.4 26.9 1.4-.6z" class="st9"/><defs><path id="SVGID_5_" d="M19.8 21.1h319.6v417.7H19.8z"/></defs><clipPath id="SVGID_6_"><use xlink:href="#SVGID_5_" style="overflow:visible"/></clipPath><path d="M322.4 229.9s3.1-2 7.8-3c4.4-.9 8-1.2 9.2-1.3" style="clip-path:url(#SVGID_6_);fill:none;stroke:#3c3c3b;stroke-width:.7"/><path d="m102.6 204.2 1.3-.6-8.4-17.2-1.3.6z" class="st9"/><defs><path id="SVGID_7_" d="M19.8 21.1h319.6v417.7H19.8z"/></defs><clipPath id="SVGID_8_"><use xlink:href="#SVGID_7_" style="overflow:visible"/></clipPath><path d="M104 203.5s-2 1.2-5 1.8c-2.8.5-5.2.7-5.9.8" style="clip-path:url(#SVGID_8_);fill:none;stroke:#3c3c3b;stroke-width:.7"/><path d="m102.6 231.9 1.3.7-8.4 17.1-1.3-.6z" class="st9"/><defs><path id="SVGID_9_" d="M19.8 21.1h319.6v417.7H19.8z"/></defs><clipPath id="SVGID_10_"><use xlink:href="#SVGID_9_" style="overflow:visible"/></clipPath><path d="M104 232.6s-2-1.2-5-1.8c-2.8-.5-5.2-.7-5.9-.8" style="clip-path:url(#SVGID_10_);fill:none;stroke:#3c3c3b;stroke-width:.7"/><path d="m106.5 172.2.7-1.3 26.9 13.4-.7 1.3z" class="st9"/><defs><path id="SVGID_11_" d="M19.8 21.1h319.6v417.7H19.8z"/></defs><clipPath id="SVGID_12_"><use xlink:href="#SVGID_11_" style="overflow:visible"/></clipPath><path d="M107.3 170.5s-2 3.1-3 7.8c-.9 4.4-1.2 8-1.3 9.2m-61.1 74.9s-5.7 0-5.7-5.7v-33.9s0-5.7 5.7-5.7h7.6s5.7 0 5.7 5.7v33.9s0 5.7-5.7 5.7h-7.6z" class="st13"/><path d="M43.6 259.2s-5.7 0-5.7-5.7V226s0-5.7 5.7-5.7h4.1s5.7 0 5.7 5.7v27.6s0 5.7-5.7 5.7h-4.1z" class="st13"/><path d="M42.5 255.4s-2.8 0-2.8-2.8v-27.7s0-2.8 2.8-2.8h6.3s2.8 0 2.8 2.8v27.7s0 2.8-2.8 2.8h-6.3z" class="st13"/><path d="M45.7 225.4c.5 0 .8.4.8.8 0 .5-.4.8-.8.8-.5 0-.8-.4-.8-.8-.1-.4.3-.8.8-.8z" class="st13"/><path d="M56.2 265.5v-51.4" class="st9"/><defs><path id="SVGID_13_" d="M19.8 21.1h319.6v417.7H19.8z"/></defs><clipPath id="SVGID_14_"><use xlink:href="#SVGID_13_" style="overflow:visible"/></clipPath><path d="M64.4 227.2c-3 0-5.4-2.4-5.4-5.4V216c0-.5.4-.8.8-.8h12.3c.5 0 .8.4.8.8v5.8c0 3-2.4 5.4-5.4 5.4h-3.1zm7.7-12.3H59.8c-.6 0-1.1.5-1.1 1.1v5.8c0 3.2 2.6 5.7 5.7 5.7h3.1c3.2 0 5.7-2.6 5.7-5.7V216c0-.6-.5-1.1-1.1-1.1" style="clip-path:url(#SVGID_14_);fill:#3c3c3b"/><path d="M64.4 227.2c-3 0-5.4-2.4-5.4-5.4V216c0-.5.4-.8.8-.8h12.3c.5 0 .8.4.8.8v5.8c0 3-2.4 5.4-5.4 5.4h-3.1zm7.7-12.3H59.8c-.6 0-1.1.5-1.1 1.1v5.8c0 3.2 2.6 5.7 5.7 5.7h3.1c3.2 0 5.7-2.6 5.7-5.7V216c0-.6-.5-1.1-1.1-1.1z" style="clip-path:url(#SVGID_14_);fill:none;stroke:#3c3c3b;stroke-width:.25"/><path d="m305.9 88.4.8 1.3L324 79.2l-.7-1.3z" class="st9"/><defs><path id="SVGID_15_" d="M19.8 21.1h319.6v417.7H19.8z"/></defs><clipPath id="SVGID_16_"><use xlink:href="#SVGID_15_" style="overflow:visible"/></clipPath><path d="M306.8 90.1s-2.1-3.1-3.3-7.6c-.6-2.4-1-4.3-1.2-5.5" style="clip-path:url(#SVGID_16_);fill:none;stroke:#3c3c3b;stroke-width:.7"/><path d="m201.2 88.4.8 1.3 17.3-10.5-.7-1.3z" class="st9"/><defs><path id="SVGID_17_" d="M19.8 21.1h319.6v417.7H19.8z"/></defs><clipPath id="SVGID_18_"><use xlink:href="#SVGID_17_" style="overflow:visible"/></clipPath><path d="M202.1 90.1s-2.1-3.1-3.3-7.6c-.6-2.4-1-4.3-1.2-5.5" style="clip-path:url(#SVGID_18_);fill:none;stroke:#3c3c3b;stroke-width:.7"/><path d="M64.4 225.9c-2.2 0-4.1-1.8-4.1-4.1v-3.4c0-.4.3-.7.7-.7h9.8c.4 0 .7.3.7.7v3.4c0 2.2-1.8 4.1-4.1 4.1h-3zm6.4-8.5H61c-.6 0-1 .5-1 1v3.4c0 2.4 2 4.4 4.4 4.4h3.1c2.4 0 4.4-2 4.4-4.4v-3.4c-.1-.5-.5-1-1.1-1" class="st18"/><path d="M64.4 225.9c-2.2 0-4.1-1.8-4.1-4.1v-3.4c0-.4.3-.7.7-.7h9.8c.4 0 .7.3.7.7v3.4c0 2.2-1.8 4.1-4.1 4.1h-3zm6.4-8.5H61c-.6 0-1 .5-1 1v3.4c0 2.4 2 4.4 4.4 4.4h3.1c2.4 0 4.4-2 4.4-4.4v-3.4c-.1-.5-.5-1-1.1-1z" class="st19"/><path d="M65.9 223c-.4 0-.7-.3-.7-.7 0-.4.3-.7.7-.7.4 0 .7.3.7.7 0 .4-.3.7-.7.7m0-1.6c-.5 0-1 .4-1 1 0 .5.4 1 1 1 .5 0 1-.4 1-1s-.4-1-1-1" class="st18"/><path d="M65.9 223c-.4 0-.7-.3-.7-.7 0-.4.3-.7.7-.7.4 0 .7.3.7.7 0 .4-.3.7-.7.7zm0-1.6c-.5 0-1 .4-1 1 0 .5.4 1 1 1 .5 0 1-.4 1-1s-.4-1-1-1z" class="st19"/><path d="M64.5 199.2c0 2.8-2.3 5.1-5.1 5.1H52c-.5 0-.9-.4-.9-.9v-8.5c0-.5.4-.9.9-.9h7.4c2.8.1 5.1 2.4 5.1 5.2m-13.7-4.3v8.5c0 .7.6 1.2 1.2 1.2h7.4c3 0 5.5-2.5 5.5-5.5s-2.5-5.5-5.5-5.5H52c-.7.1-1.2.7-1.2 1.3" class="st18"/><path d="M64.5 199.2c0 2.8-2.3 5.1-5.1 5.1H52c-.5 0-.9-.4-.9-.9v-8.5c0-.5.4-.9.9-.9h7.4c2.8.1 5.1 2.4 5.1 5.2zm-13.7-4.3v8.5c0 .7.6 1.2 1.2 1.2h7.4c3 0 5.5-2.5 5.5-5.5s-2.5-5.5-5.5-5.5H52c-.7.1-1.2.7-1.2 1.3z" class="st19"/><path d="M53.6 202.8v-7.3s0-.1.1-.1h5.6c2.1 0 3.8 1.7 3.8 3.8 0 2.1-1.7 3.8-3.8 3.8l-5.7-.2c0 .1 0 .1 0 0z" class="st19"/><path d="M53.8 202.8v-7.2h5.5c2 0 3.6 1.6 3.6 3.6s-1.6 3.6-3.6 3.6h-5.5zm-.4-7.3v7.3c0 .1.1.3.3.3h5.6c2.2 0 3.9-1.8 3.9-3.9 0-2.2-1.8-3.9-3.9-3.9h-5.6c-.2-.1-.3.1-.3.2" class="st18"/><path d="M53.8 202.8v-7.2h5.5c2 0 3.6 1.6 3.6 3.6s-1.6 3.6-3.6 3.6h-5.5zm-.4-7.3v7.3c0 .1.1.3.3.3h5.6c2.2 0 3.9-1.8 3.9-3.9 0-2.2-1.8-3.9-3.9-3.9h-5.6c-.2-.1-.3.1-.3.2z" class="st19"/><path d="M59.3 199.2c0 .5-.4 1-1 1-.5 0-1-.4-1-1 0-.5.4-1 1-1 .5 0 1 .4 1 1m-2.3 0c0 .7.6 1.3 1.3 1.3.7 0 1.3-.6 1.3-1.3 0-.7-.6-1.3-1.3-1.3-.7 0-1.3.6-1.3 1.3" class="st18"/><path d="M59.3 199.2c0 .5-.4 1-1 1-.5 0-1-.4-1-1 0-.5.4-1 1-1 .5 0 1 .4 1 1zm-2.3 0c0 .7.6 1.3 1.3 1.3.7 0 1.3-.6 1.3-1.3 0-.7-.6-1.3-1.3-1.3-.7 0-1.3.6-1.3 1.3z" class="st19"/><path d="m54.268 202.021 2.323-1.736.24.32-2.324 1.737z" class="st2"/><path d="m54.268 202.021 2.323-1.736.24.32-2.324 1.737z" class="st20"/><path d="m54.3 196.4 2.3 1.7.2-.2-2.3-1.8z" class="st2"/><path d="m54.3 196.4 2.3 1.7.2-.2-2.3-1.8z" class="st20"/><defs><path id="SVGID_19_" d="M19.8 21.1h319.6v417.7H19.8z"/></defs><clipPath id="SVGID_20_"><use xlink:href="#SVGID_19_" style="overflow:visible"/></clipPath><path d="M50.7 202.7c0 .8-.6 1.4-1.4 1.4h-1.9c-.8 0-1.4-.6-1.4-1.4v-7.1c0-.8.6-1.4 1.4-1.4h1.9c.8 0 1.4.6 1.4 1.4v7.1zm-5.1-7.1v7.1c0 1 .8 1.8 1.8 1.8h1.9c1 0 1.8-.8 1.8-1.8v-7.1c0-1-.8-1.8-1.8-1.8h-1.9c-1 .1-1.8.9-1.8 1.8" class="st21"/><path d="M50.7 202.7c0 .8-.6 1.4-1.4 1.4h-1.9c-.8 0-1.4-.6-1.4-1.4v-7.1c0-.8.6-1.4 1.4-1.4h1.9c.8 0 1.4.6 1.4 1.4v7.1zm-5.1-7.1v7.1c0 1 .8 1.8 1.8 1.8h1.9c1 0 1.8-.8 1.8-1.8v-7.1c0-1-.8-1.8-1.8-1.8h-1.9c-1 .1-1.8.9-1.8 1.8z" class="st22"/><path d="M48.9 199.2c0 .3-.2.5-.5.5s-.5-.2-.5-.5.2-.5.5-.5c.3-.1.5.2.5.5m-1.4 0c0 .5.4.9.9.9s.9-.4.9-.9-.4-.9-.9-.9-.9.4-.9.9" class="st21"/><path d="M48.9 199.2c0 .3-.2.5-.5.5s-.5-.2-.5-.5.2-.5.5-.5c.3-.1.5.2.5.5zm-1.4 0c0 .5.4.9.9.9s.9-.4.9-.9-.4-.9-.9-.9-.9.4-.9.9z" class="st22"/><path d="m261.9 191.1-.7-1.3-26.9 13.4.7 1.3z" class="st9"/><defs><path id="SVGID_21_" d="M19.8 21.1h319.6v417.7H19.8z"/></defs><clipPath id="SVGID_22_"><use xlink:href="#SVGID_21_" style="overflow:visible"/></clipPath><path d="M261.1 189.4s2 3.1 3 7.8c.9 4.4 1.2 8 1.3 9.2" style="clip-path:url(#SVGID_22_);fill:none;stroke:#3c3c3b;stroke-width:.7"/><path d="m106.5 278.2.7 1.4 26.9-13.5-.7-1.3z" class="st9"/><defs><path id="SVGID_23_" d="M19.8 21.1h319.6v417.7H19.8z"/></defs><clipPath id="SVGID_24_"><use xlink:href="#SVGID_23_" style="overflow:visible"/></clipPath><path d="M107.3 279.9s-2-3.1-3-7.8c-.9-4.4-1.2-8-1.3-9.2" style="clip-path:url(#SVGID_24_);fill:none;stroke:#3c3c3b;stroke-width:.7"/><path d="m197.471 209.609.665-1.117 23.545 14.015-.665 1.117zm-19.673 11.899 14.264-8.492.665 1.117-14.264 8.492z" class="st9"/><defs><path id="SVGID_25_" d="M19.8 21.1h319.6v417.7H19.8z"/></defs><clipPath id="SVGID_26_"><use xlink:href="#SVGID_25_" style="overflow:visible"/></clipPath><path d="M192.8 214.3s.8 1.7 1.1 3.2c.2 1.5.4 4 .4 4s.2-4.7 1.2-7.4 2-4.4 2-4.4" style="clip-path:url(#SVGID_26_);fill:none;stroke:#3c3c3b;stroke-width:.7"/><path d="M331.6 173.9h-15.5v16.2h15.5v-16.2zm.4 16.6h-16.1v-17H332v17z" class="st2"/><path d="M331.6 173.9h-15.5v16.2h15.5v-16.2zm.4 16.6h-16.1v-17H332v17z" class="st20"/><defs><path id="SVGID_27_" d="M19.8 21.1h319.6v417.7H19.8z"/></defs><clipPath id="SVGID_28_"><use xlink:href="#SVGID_27_" style="overflow:visible"/></clipPath><path d="M317.6 187.7c0 .4.3.7.7.7h8.1c.4 0 .7-.3.7-.7v-11.4c0-.4-.3-.7-.7-.7h-8.1c-.4 0-.7.3-.7.7v11.4zm9.8-11.4v11.4c0 .6-.5 1.1-1 1.1h-8.1c-.6 0-1-.5-1-1.1v-11.4c0-.6.5-1.1 1-1.1h8.1c.5.1 1 .5 1 1.1" style="clip-path:url(#SVGID_28_);fill:#3c3c3b"/><path d="M317.6 187.7c0 .4.3.7.7.7h8.1c.4 0 .7-.3.7-.7v-11.4c0-.4-.3-.7-.7-.7h-8.1c-.4 0-.7.3-.7.7v11.4zm9.8-11.4v11.4c0 .6-.5 1.1-1 1.1h-8.1c-.6 0-1-.5-1-1.1v-11.4c0-.6.5-1.1 1-1.1h8.1c.5.1 1 .5 1 1.1z" style="clip-path:url(#SVGID_28_);fill:none;stroke:#3c3c3b;stroke-width:.25"/><path d="M325.9 176.9h-7.1v10.3h7.1v-10.3zm.3 10.6h-7.8v-11h7.8v11z" class="st2"/><path d="M325.9 176.9h-7.1v10.3h7.1v-10.3zm.3 10.6h-7.8v-11h7.8v11z" class="st20"/><path d="M320.9 182c0 .5.4.9.9.9s.9-.4.9-.9-.4-.9-.9-.9-.9.4-.9.9m2.2 0c0 .7-.6 1.3-1.2 1.3-.7 0-1.2-.6-1.2-1.3 0-.7.6-1.3 1.2-1.3s1.2.6 1.2 1.3" class="st2"/><path d="M320.9 182c0 .5.4.9.9.9s.9-.4.9-.9-.4-.9-.9-.9-.9.4-.9.9zm2.2 0c0 .7-.6 1.3-1.2 1.3-.7 0-1.2-.6-1.2-1.3 0-.7.6-1.3 1.2-1.3s1.2.6 1.2 1.3z" class="st20"/><path d="M19.8 21.1h319.6v417.7H19.8z" class="st5"/></svg>