<svg xmlns="http://www.w3.org/2000/svg" xmlns:xlink="http://www.w3.org/1999/xlink" xml:space="preserve" id="Слой_1" x="0" y="0" style="enable-background:new 0 0 322.49 420.49" version="1.1" viewBox="0 0 322.49 420.49"><style>.st2{stroke:#39373a}.st2,.st6,.st9{fill:none;stroke-width:.495}.st6{stroke:#1b1c20}.st9{stroke:#39373a;clip-path:url(#SVGID_10_)}.st14{clip-path:url(#SVGID_14_);fill:#39373a}</style><switch><g><path d="M290.06 230.06v-55.59h-49.68V69.32H31.83V237.4H46.9v14.54h-7.88v18.45h-7.19v3.51h9.9v24.12h-9.9v91.19h92.98V230.06h115.57z" style="fill:#dfeab4"/><path d="M48.13 252.95v13.8" style="fill:none;stroke:#39373a;stroke-width:.928"/><path d="m100.53 178.428.647-1.035 22.045 13.765-.646 1.034zM90.256 196.13l1.046-.628 9.7 16.151-1.046.629zm-.001 62.811 10.509-17.496 1.046.628-10.51 17.496zm12.855 25.433 22.046-13.765.646 1.035-22.046 13.765z" class="st2"/><defs><path id="SVGID_1_" d="M17.83 14.85h288.79v390.67H17.83z"/></defs><clipPath id="SVGID_2_"><use xlink:href="#SVGID_1_" style="overflow:visible"/></clipPath><path d="M297.73 191.13h1.22v28.81h-1.22z" style="clip-path:url(#SVGID_2_);fill:none;stroke:#39373a;stroke-width:.495" transform="rotate(-30.989 298.322 205.518)"/><path d="m92.82 71.771 22.046-13.765.646 1.035-22.046 13.765zm101.551.002 22.046-13.765.646 1.035-22.045 13.765zm-48.203 119.391 22.045-13.765.646 1.034-22.045 13.765z" class="st2"/><defs><path id="SVGID_3_" d="M17.83 14.85h288.79v390.67H17.83z"/></defs><clipPath id="SVGID_4_"><use xlink:href="#SVGID_3_" style="overflow:visible"/></clipPath><path d="M18.08 15.56h213.44v3.88H18.08z" style="clip-path:url(#SVGID_4_);fill:none;stroke:#39373a;stroke-width:.495"/><path d="M54.38 51.99h33.18v17.09H54.38z" class="st2"/><path d="M54.38 59.27h33.18v2.17H54.38z" class="st2"/><defs><path id="SVGID_5_" d="M17.83 14.85h288.79v390.67H17.83z"/></defs><clipPath id="SVGID_6_"><use xlink:href="#SVGID_5_" style="overflow:visible"/></clipPath><path d="M65.01 388.98h52.34v16.29H65.01z" style="clip-path:url(#SVGID_6_);fill:none;stroke:#39373a;stroke-width:.495"/><path d="M65.01 395.94h52.34v2.05H65.01zm92.75-343.95h32.31v17.09h-32.31z" class="st2"/><path d="M157.76 59.27h32.31v2.17h-32.31zM53.38 235.02v-49.91" class="st2"/><path d="M32.08 235.02v-50.17" class="st6"/><defs><path id="SVGID_7_" d="M17.83 14.85h288.79v390.67H17.83z"/></defs><clipPath id="SVGID_8_"><use xlink:href="#SVGID_7_" style="overflow:visible"/></clipPath><path d="M48.8 230.77H36.41c-1.38 0-2.5-1.31-2.5-2.9V192c0-1.6 1.13-2.9 2.5-2.9H48.8c1.38 0 2.5 1.31 2.5 2.9v35.87c.01 1.59-1.12 2.9-2.5 2.9zm-3.25-3.64H39.6c-1.62 0-2.94-1.35-2.94-3V199.1c0-1.65 1.32-3.01 2.94-3.01h5.95c1.62 0 2.94 1.35 2.94 3.01v25.02c0 1.66-1.32 3.01-2.94 3.01z" style="clip-path:url(#SVGID_8_);fill:none;stroke:#39373a;stroke-width:.509;stroke-miterlimit:22.926"/><path d="M42.61 224.04c-.35 0-.63.28-.63.63s.28.63.63.63.63-.28.63-.63-.28-.63-.63-.63z" style="clip-path:url(#SVGID_8_);fill:none;stroke:#39373a;stroke-width:.495"/><path d="M132.04 237.87v49.9" class="st6"/><defs><path id="SVGID_9_" d="M17.83 14.85h288.79v390.67H17.83z"/></defs><clipPath id="SVGID_10_"><use xlink:href="#SVGID_9_" style="overflow:visible"/></clipPath><path d="M52.74 246.52c-1.51 0-2.73 1.22-2.73 2.73v5.65a2.73 2.73 0 1 0 5.46 0v-5.65a2.72 2.72 0 0 0-2.73-2.73zm10.72 9.71c2.35 0 4.26-1.77 4.26-3.95s-1.91-3.94-4.26-3.94c-2.35 0-4.26 1.77-4.26 3.94 0 2.19 1.91 3.95 4.26 3.95z" class="st9"/><path d="M68.84 252.15c0-2.8-2.41-5.06-5.39-5.06-.38 0-.74.04-1.1.11l-6.91.79v8.03l6.88 1.09v-.01c.37.07.74.12 1.13.12 2.98-.01 5.39-2.27 5.39-5.07z" class="st9"/><circle cx="51.87" cy="252.08" r=".49" class="st9"/><circle cx="61.37" cy="252.29" r=".88" class="st9"/><path d="M51.38 250.16h.98m-.49-.49v.98m-.49 3.34h.98m-.49-.49v.98m4.86.37h.97m-.48-.49v.98m-.49-6.04h.97m-.48-.48v.97" style="stroke-linecap:round;stroke:#39373a;fill:none;stroke-width:.495"/><defs><path id="SVGID_11_" d="M17.83 14.85h288.79v390.67H17.83z"/></defs><clipPath id="SVGID_12_"><use xlink:href="#SVGID_11_" style="overflow:visible"/></clipPath><path d="M62.3 230.85c-.5 0-.91-.41-.91-.91s.41-.91.91-.91.91.41.91.91-.41.91-.91.91zm.17.98c-2.89 0-5.23-1.43-5.23-3.18 0-1.76 2.34-3.18 5.23-3.18 2.89 0 5.23 1.42 5.23 3.18 0 1.76-2.34 3.18-5.23 3.18zm-6.79-3.14c-.01-.11-.02-.21-.02-.32 0-2.29 3.05-4.14 6.81-4.14s6.81 1.86 6.81 4.14v6.4h-13.6v-6.08z" style="clip-path:url(#SVGID_12_);fill:none;stroke:#39373a;stroke-width:.495;stroke-miterlimit:22.926"/><path d="M71.57 216.67h15.92v17.12H71.57v-17.12zm15.91 17.13-15.91-17.12m0 17.12 15.91-17.12" style="fill:none;stroke:#39373a;stroke-width:.509;stroke-miterlimit:22.926"/><defs><path id="SVGID_13_" d="M17.83 14.85h288.79v390.67H17.83z"/></defs><clipPath id="SVGID_14_"><use xlink:href="#SVGID_13_" style="overflow:visible"/></clipPath><path d="M44.53 287.07v-7.17c0-.97.79-1.77 1.76-1.77h10.58c.97 0 1.76.8 1.76 1.77v7.17c0 .98-.79 1.77-1.76 1.77H46.3c-.97 0-1.77-.79-1.77-1.77zm6.39-6.28c0-.41.33-.74.74-.74s.74.33.74.74-.33.74-.74.74a.726.726 0 0 1-.74-.74zm0-4.82c0-.41.33-.74.74-.74s.74.33.74.74-.33.74-.74.74a.726.726 0 0 1-.74-.74zm-7.87-1.81h17.08v16.24H43.05v-16.24z" style="clip-path:url(#SVGID_14_);fill:none;stroke:#39373a;stroke-width:.509;stroke-miterlimit:22.926"/><path d="m89.41 131.58.07-1.36H85.2l-.18 3.07c-.02.32.21.58.54.61l1.06.13c.92.08 1.26.21 1.23.85-.04.55-.24.77-1.14.77-.49 0-1.12-.03-1.77-.08l-.17 1.4c.87.13 1.74.2 2.43.2 1.94 0 2.48-1 2.48-2.23.01-1.1-.41-2.08-2-2.26l-1.14-.15.07-.95h2.8zM83 135.37c-.47 0-.62.15-.62.62v.44c0 .48.15.62.62.62h.43c.47 0 .62-.15.62-.62v-.44c0-.48-.15-.62-.62-.62H83zm-6.16-3.82c.5-.01 1.2-.02 1.9-.02.69 0 .89.09.89.64.01.47-.06.74-.8.74h-1.31v1.19l1.31-.01c.73-.01.89.22.89.8 0 .69-.26.82-1.13.82-.59 0-1.03-.01-1.89-.06l-.06 1.35c.77.11 1.63.19 2.45.19 1.81 0 2.47-.59 2.45-2.04-.01-1.04-.31-1.56-1.27-1.71v-.04c.88-.14 1.09-.74 1.09-1.73 0-1.22-.63-1.59-2.31-1.59-.75 0-1.51.06-2.29.19l.08 1.28zm-1.34 5.5v-6.83h-1.85l-1.73.67.22 1.18 1.58-.36c-.06.28-.07.54-.07.81v4.52h1.85zm40.52-16.06c0-.23.12-.38.42-.39h1.03v.61c-.33.21-.67.34-.96.34-.33 0-.49-.14-.49-.4v-.16zm-1.34-1.94c.82-.05 1.61-.07 2.11-.07.51 0 .67.15.68.57v.12h-1.63c-.98 0-1.57.48-1.57 1.26v.49c0 .92.74 1.41 1.65 1.41.85 0 1.42-.43 1.75-.85l.17.72h1.44v-3.14c0-1.47-.73-1.92-2.06-1.92-.72 0-1.96.11-2.69.25l.15 1.16zm-.81.08v-1.36h-4.91v1.36h1.56v3.56h1.79v-3.56h1.56zm-8.79 1.86c0-.23.12-.38.42-.39h1.03v.61c-.33.21-.67.34-.96.34-.33 0-.49-.14-.49-.4v-.16zm-1.34-1.94c.82-.05 1.61-.07 2.11-.07.51 0 .67.15.68.57v.12h-1.64c-.98 0-1.57.48-1.57 1.26v.49c0 .92.74 1.41 1.65 1.41.85 0 1.42-.43 1.75-.85l.17.72h1.43v-3.14c0-1.47-.73-1.92-2.06-1.92-.72 0-1.96.11-2.69.25l.17 1.16zm-1.24-1.28h-1.76v1.73h-1.51v-1.73h-1.77v4.92h1.77v-1.99h1.51v1.99h1.76v-4.92zm-8.32 0c-.38 0-.61.19-.67.55l-.43 1.83c-.05.25-.06.49-.1.73h-.08c-.03-.25-.04-.49-.1-.73l-.44-1.83c-.06-.37-.3-.55-.66-.55h-1.53c-.41 0-.61.21-.62.61l-.12 4.31h1.62l.1-3.61h.12l.58 2.39c.07.37.31.54.68.54h.8c.39 0 .61-.18.67-.54l.58-2.39h.12l.13 3.61h1.62l-.13-4.31c-.01-.4-.21-.61-.61-.61h-1.53zm-8.19 1.13c.61 0 .76.25.76 1.34 0 1.08-.16 1.32-.76 1.32-.61 0-.77-.24-.77-1.32 0-1.09.16-1.34.77-1.34m0-1.27c-1.94 0-2.65.7-2.65 2.6 0 1.89.71 2.57 2.65 2.57 1.93 0 2.64-.68 2.64-2.57.01-1.89-.71-2.6-2.64-2.6m-4.93 2.48c1.15-.17 1.07-.27 1.7-2.34h-1.81c-.43 1.64-.45 1.78-1.16 1.78h-.22c.04-.21.07-.43.07-.62v-1.16h-1.79v4.92h1.79v-1.55c0-.12-.02-.26-.06-.4h.4c.53.01.56.14 1.08 1.95h1.87c-.68-2.33-.7-2.37-1.87-2.53v-.05zm-8.13-.12h-.7c-.47 0-.56-.12-.56-.62 0-.37.09-.46.56-.46h.7v1.08zm-1.93.61c-.3.03-.81.11-.94.54l-.39 1.55h1.84l.31-1.32c.04-.23.15-.29.46-.29h.65v1.6h1.74v-4.96c-.61-.07-1.14-.08-2.48-.08-1.81 0-2.26.35-2.26 1.58 0 .6.24 1.16 1.07 1.33v.05zm-5.24.39c0-.23.12-.38.42-.39h1.03v.61c-.33.21-.67.34-.96.34-.33 0-.49-.14-.49-.4v-.16zm-1.34-1.94c.82-.05 1.61-.07 2.11-.07.52 0 .67.15.68.57v.12h-1.64c-.98 0-1.57.48-1.57 1.26v.49c0 .92.74 1.41 1.65 1.41.85 0 1.42-.43 1.75-.85l.17.72h1.44v-3.14c0-1.47-.73-1.92-2.06-1.92-.72 0-1.96.11-2.69.25l.16 1.16zm-1.24-1.28h-2.97c-.85 0-1.29.43-1.36 1.27-.07.9-.16 1.59-.26 1.93-.11.4-.4.39-.83.46l.18 1.32c1.08.18 2.06-.07 2.26-1.29.1-.48.21-1.31.3-2.07.03-.29.17-.42.47-.42h.43v3.72h1.79v-4.92zm-6.02 4.93v-4.93H55.6l-1.57 2.36c-.15.23-.28.45-.38.72h-.04c.04-.29.07-.51.07-.76v-2.32h-1.59v4.92h1.56l1.54-2.25c.14-.22.31-.55.4-.82h.04c-.04.33-.07.58-.07.87v2.21h1.6zm-8-3.6c1.33-.18 1.36-.79 2.08-3.24h-1.88c-.61 2.05-.73 2.66-1.4 2.66h-.32c.05-.29.08-.57.08-.85v-1.81h-1.77v1.81c0 .28.03.56.09.85h-.34c-.65 0-.78-.61-1.39-2.66h-1.88c.72 2.45.75 3.06 2.08 3.24v.06c-1.38.2-1.47.73-2.27 3.53h1.94c.76-2.48.84-2.92 1.51-2.92h.35c-.05.22-.08.45-.08.63v2.29h1.77v-2.29c0-.19-.03-.42-.08-.63h.33c.69 0 .76.45 1.51 2.92h1.95c-.8-2.8-.89-3.34-2.28-3.53v-.06zm37.28 227.69c-.01-.81.07-1.13.78-1.13.77 0 .85.27.86 1.77-.33.19-.54.26-.86.26-.63 0-.79-.2-.78-.9m-1.46 4.4c.79.2 1.52.2 1.9.2 2.18 0 2.98-.52 2.98-3.6 0-2.76-.45-3.46-2.61-3.46-1.99 0-2.55.75-2.54 2.5 0 1.25.43 2.12 1.96 2.12.61 0 1.03-.1 1.41-.4-.05 1.17-.29 1.51-1.19 1.51-.88 0-1.21 0-1.81-.01l-.1 1.14zm-2.08-1.6c-.47 0-.62.15-.62.62v.44c0 .48.15.62.62.62h.43c.47 0 .62-.15.62-.62v-.44c0-.47-.15-.62-.62-.62h-.43zm-6.38-3.67c.94-.05 1.44-.05 2.14-.05.52 0 .75.03.75.32.01.39-.44 1-1.22 1.78l-1.53 1.58c-.2.22-.26.45-.26.74v.97h5.09v-1.6h-1.97c-.33 0-.64.01-.96.09l1.68-1.65c.9-.94 1.07-1.39 1.07-2.13 0-1.34-.96-1.65-2.42-1.65-.74 0-1.44.03-2.44.23l.07 1.37zm-1.3 5.35v-6.83h-1.85l-1.73.67.22 1.18 1.58-.36c-.06.28-.07.54-.07.81v4.53h1.85zm18.36-17.06h-.7c-.47 0-.56-.12-.56-.62 0-.37.09-.46.56-.46h.7v1.08zm-1.93.61c-.3.03-.81.11-.94.54l-.39 1.55h1.84l.31-1.32c.04-.23.15-.29.45-.29h.65v1.6h1.74v-4.96c-.61-.07-1.14-.08-2.48-.08-1.81 0-2.26.35-2.26 1.58 0 .6.24 1.16 1.07 1.33v.05zm-2.04-2.83h-1.76v1.73h-1.51v-1.73h-1.77v4.92h1.77v-1.99h1.51v1.99h1.76v-4.92zm-7.41 4.92h1.81l-1.47-2.51 1.35-2.4H82.1l-.97 1.84-.97-1.84h-1.79l1.35 2.4-1.47 2.51h1.81l1.07-1.98 1.07 1.98zm-4.01-4.92h-1.92l-.72 2.93c-.05.23-.13.55-.21.84h-.1c-.04-.29-.09-.56-.14-.84l-.74-2.93h-1.91l1.52 4.49c.08.26.3.42.57.42h.33c-.13.25-.32.48-.51.58-.32.18-.75.23-1.38.21l-.15 1.17c.7.13 1.44.14 2.03-.1.76-.28 1.33-.76 1.68-1.91l1.65-4.86zm-8.08 1.33c1.36-.18 1.4-.79 2.15-3.24h-1.89c-.53 2.05-.66 2.66-1.62 2.66h-.33c.05-.28.08-.57.08-.85v-1.81h-1.85v6.83h1.85v-2.29c0-.19-.03-.42-.08-.63h.36c.95 0 1.03.45 1.73 2.92h1.94c-.84-2.8-.93-3.34-2.34-3.53v-.06zM198.08 217.8l.07-1.36h-4.27l-.18 3.07c-.02.32.21.57.54.61l1.06.13c.92.08 1.26.21 1.23.85-.04.55-.24.77-1.14.77-.49 0-1.12-.03-1.77-.08l-.17 1.4c.87.13 1.74.2 2.43.2 1.94 0 2.48-1 2.48-2.23.01-1.1-.41-2.08-2-2.26l-1.14-.15.07-.95h2.79zm-6.41 3.78c-.48 0-.62.15-.62.62v.44c0 .47.15.62.62.62h.43c.47 0 .62-.15.62-.62v-.44c0-.47-.15-.62-.62-.62h-.43zm-1.84 1.68v-6.83h-1.85l-1.73.67.22 1.18 1.58-.36c-.06.28-.07.54-.07.81v4.52h1.85zm-4.44 0v-6.83h-1.85l-1.73.67.22 1.18 1.58-.36c-.06.28-.07.54-.07.81v4.52h1.85zm22.63-17.75c.32-.19.54-.31.92-.31.46 0 .64.19.64 1.31 0 1.13-.2 1.3-.7 1.3-.36 0-.6-.09-.86-.17v-2.13zm-.34-1.52h-1.44v6.75h1.79v-1.08c.01-.35 0-.72-.03-1.07.43.33.98.44 1.57.44 1.23 0 1.87-.54 1.87-2.53 0-1.67-.49-2.63-1.74-2.63-.78 0-1.54.36-1.88.81l-.14-.69zm-4.95 1.12c.6 0 .76.25.76 1.34 0 1.08-.16 1.32-.76 1.32-.61 0-.77-.24-.77-1.32-.01-1.09.15-1.34.77-1.34m0-1.26c-1.94 0-2.65.7-2.65 2.6 0 1.89.71 2.57 2.65 2.57 1.93 0 2.64-.68 2.64-2.57 0-1.9-.71-2.6-2.64-2.6m-5.66 3.85h-1.45c.25-.57.43-1.25.57-2.17.03-.28.19-.4.44-.4h.45v2.57zm2.51 0h-.82v-3.71h-2.7c-.88 0-1.32.4-1.43 1.2-.12.85-.29 1.67-.58 2.52h-.61v2.57h1.19l.12-1.37h3.52l.13 1.37h1.19v-2.58zm-6.83 1.22v-4.93h-1.56l-1.57 2.36c-.15.23-.28.45-.38.72h-.04c.04-.29.07-.51.07-.76v-2.32h-1.59v4.92h1.56l1.54-2.25c.14-.22.31-.56.4-.82h.04c-.04.33-.07.58-.07.87v2.21h1.6zm-9.36-3.41c.32-.19.54-.31.92-.31.46 0 .64.19.64 1.31 0 1.13-.2 1.3-.7 1.3-.36 0-.59-.09-.86-.17v-2.13zm-.35-1.52h-1.44v6.75h1.79v-1.08c.01-.35 0-.72-.03-1.07.43.33.98.44 1.57.44 1.23 0 1.87-.54 1.87-2.53 0-1.67-.49-2.63-1.74-2.63-.78 0-1.54.36-1.88.81l-.14-.69zm-4.95 1.12c.6 0 .76.25.76 1.34 0 1.08-.16 1.32-.76 1.32-.61 0-.77-.24-.77-1.32 0-1.09.16-1.34.77-1.34m0-1.26c-1.94 0-2.65.7-2.65 2.6 0 1.89.71 2.57 2.65 2.57 1.93 0 2.64-.68 2.64-2.57.01-1.9-.7-2.6-2.64-2.6m-5.34 1.46c1.36-.18 1.4-.79 2.15-3.24H173c-.53 2.05-.66 2.66-1.62 2.66h-.33c.05-.28.08-.57.08-.85v-1.81h-1.85v6.83h1.85v-2.29c0-.19-.03-.42-.08-.63h.36c.95 0 1.03.45 1.73 2.92h1.94c-.84-2.8-.93-3.34-2.34-3.53v-.06zm15.8-100.42c.51-.01 1.2-.02 1.9-.02.69 0 .89.09.89.64.01.47-.06.74-.8.74h-1.31v1.19l1.31-.01c.73-.01.89.22.89.8 0 .69-.26.82-1.13.82-.59 0-1.03-.01-1.89-.06l-.06 1.34c.77.11 1.63.19 2.46.19 1.81 0 2.47-.59 2.45-2.04-.01-1.04-.31-1.56-1.27-1.71v-.04c.88-.14 1.09-.74 1.09-1.73 0-1.22-.63-1.59-2.31-1.59-.75 0-1.51.06-2.29.19l.07 1.29zm-2 3.82c-.48 0-.62.15-.62.62v.44c0 .48.15.62.62.62h.43c.47 0 .62-.15.62-.62v-.44c0-.48-.15-.62-.62-.62h-.43zm-3.89.45c-.79 0-.87-.25-.88-1.76.33-.19.54-.26.87-.26.65 0 .8.17.8.9 0 .81-.04 1.12-.79 1.12m2.08-5.52c-.7-.2-1.41-.2-1.76-.2-1.98 0-2.98.48-2.98 3.6 0 2.77.61 3.46 2.65 3.46 2.09 0 2.54-.8 2.54-2.51 0-1.5-.45-2.12-2-2.12-.6 0-1.02.1-1.4.4.05-1.28.3-1.51 1.18-1.51.79 0 1.12 0 1.68.01l.09-1.13zm-5.96 6.75v-6.83h-1.85l-1.73.67.22 1.18 1.58-.36c-.06.28-.07.54-.07.81v4.52h1.85zm40.72-16.06c0-.23.12-.38.42-.39h1.03v.61c-.33.21-.67.34-.96.34-.33 0-.49-.14-.49-.4v-.16zm-1.35-1.94c.82-.05 1.61-.07 2.11-.07.51 0 .67.15.68.57V93h-1.63c-.98 0-1.57.48-1.57 1.26v.49c0 .92.74 1.41 1.65 1.41.85 0 1.42-.43 1.75-.85l.17.72h1.43v-3.14c0-1.47-.73-1.92-2.06-1.92-.72 0-1.96.11-2.69.25l.16 1.17zm-.8.08v-1.36h-4.91v1.36H214v3.56h1.79v-3.56h1.56zm-8.8 1.86c0-.23.12-.38.42-.39H210v.61c-.33.21-.67.34-.96.34-.33 0-.49-.14-.49-.4v-.16zm-1.34-1.94c.82-.05 1.61-.07 2.11-.07.51 0 .67.15.68.57V93h-1.64c-.98 0-1.57.48-1.57 1.26v.49c0 .92.74 1.41 1.65 1.41.85 0 1.42-.43 1.75-.85l.17.72h1.43v-3.14c0-1.47-.73-1.92-2.06-1.92-.72 0-1.96.11-2.69.25l.17 1.17zm-1.24-1.28h-1.76v1.73h-1.51v-1.73h-1.77v4.92h1.77v-1.99h1.51v1.99h1.76v-4.92zm-8.32 0c-.38 0-.62.19-.67.55l-.43 1.83c-.05.25-.06.49-.1.73h-.08c-.03-.25-.04-.49-.1-.73l-.44-1.83c-.06-.37-.3-.55-.66-.55h-1.52c-.41 0-.61.21-.62.61l-.12 4.31h1.62l.1-3.61h.12l.58 2.39c.07.37.31.54.68.54h.8c.39 0 .6-.18.67-.54l.58-2.39h.12l.13 3.61h1.62l-.13-4.31c-.01-.4-.21-.61-.61-.61h-1.54zm-8.18 1.13c.6 0 .76.25.76 1.34 0 1.08-.16 1.32-.76 1.32-.61 0-.77-.24-.77-1.32-.01-1.09.15-1.34.77-1.34m0-1.27c-1.94 0-2.65.7-2.65 2.6 0 1.89.71 2.57 2.65 2.57 1.93 0 2.64-.68 2.64-2.57 0-1.89-.71-2.6-2.64-2.6m-4.93 2.48c1.15-.17 1.07-.27 1.7-2.34h-1.81c-.43 1.64-.46 1.78-1.16 1.78h-.22c.04-.21.07-.43.07-.62v-1.16h-1.79v4.92h1.79v-1.55c0-.12-.02-.26-.06-.4h.4c.52.01.56.14 1.08 1.95h1.87c-.68-2.33-.7-2.37-1.87-2.53v-.05zm-8.13-.12h-.7c-.47 0-.56-.12-.56-.62 0-.37.09-.46.56-.46h.7v1.08zm-1.93.61c-.3.03-.81.11-.94.54l-.39 1.55h1.84l.31-1.32c.04-.23.15-.29.46-.29h.65v1.6h1.74v-4.96c-.61-.07-1.14-.08-2.48-.08-1.81 0-2.26.35-2.26 1.58 0 .6.24 1.16 1.07 1.33v.05zm-5.24.39c0-.23.12-.38.42-.39h1.03v.61c-.33.21-.67.34-.96.34-.33 0-.49-.14-.49-.4v-.16zm-1.35-1.94c.82-.05 1.61-.07 2.11-.07.52 0 .67.15.68.57V93h-1.63c-.98 0-1.57.48-1.57 1.26v.49c0 .92.74 1.41 1.65 1.41.85 0 1.42-.43 1.75-.85l.17.72h1.43v-3.14c0-1.47-.73-1.92-2.06-1.92-.72 0-1.96.11-2.69.25l.16 1.17zm-1.24-1.28h-2.97c-.85 0-1.29.43-1.36 1.27-.07.9-.16 1.59-.26 1.93-.11.4-.4.39-.83.46l.18 1.32c1.08.18 2.06-.07 2.26-1.29.1-.48.21-1.31.3-2.07.03-.29.17-.42.46-.42h.43v3.72h1.79v-4.92zm-6.01 4.93v-4.93h-1.56l-1.57 2.36c-.15.23-.28.45-.38.72h-.04c.04-.29.07-.51.07-.76v-2.32h-1.59v4.92h1.56l1.54-2.25c.14-.22.31-.55.4-.82h.04c-.04.33-.07.58-.07.87v2.21h1.6zm-8-3.6c1.33-.18 1.36-.79 2.08-3.24h-1.88c-.61 2.05-.73 2.66-1.4 2.66h-.32c.05-.29.08-.57.08-.85V89.2h-1.77v1.81c0 .28.03.56.09.85h-.35c-.65 0-.78-.61-1.39-2.66h-1.88c.72 2.45.75 3.06 2.08 3.24v.06c-1.38.2-1.46.73-2.27 3.53h1.94c.76-2.48.84-2.92 1.5-2.92h.35c-.05.22-.08.45-.08.63v2.29h1.77v-2.29c0-.19-.03-.42-.08-.63h.33c.69 0 .76.45 1.51 2.92h1.95c-.8-2.8-.89-3.34-2.28-3.53v-.06zm-16.05-53.87.08 1.49h2.97c-.16.24-.25.48-.34.72l-1.64 4.61h1.82l2.06-5.92c.17-.5-.16-.91-.69-.91h-4.26zm-1.36 5.15c-.47 0-.62.15-.62.62v.43c0 .48.15.62.62.62h.43c.48 0 .62-.15.62-.62v-.43c0-.47-.15-.62-.62-.62h-.43zm-4.14-1.27c.75 0 .91.17.91.89 0 .68-.16.85-.92.85-.77 0-.95-.17-.95-.85 0-.7.17-.89.96-.89m-.01-2.76c.68 0 .84.15.84.82 0 .6-.13.75-.82.75-.7 0-.87-.14-.87-.75 0-.67.16-.82.85-.82m-1.48 2.19c-.98.09-1.22.91-1.22 1.82 0 1.33.55 1.85 2.68 1.84 2.17-.02 2.68-.52 2.68-1.84 0-.91-.23-1.73-1.21-1.82v-.04c.74-.08 1.04-.83 1.04-1.56 0-1.28-.44-1.83-2.51-1.83-2.06 0-2.5.55-2.5 1.83 0 .73.3 1.48 1.04 1.56v.04zm22.63-13.54h-.7c-.47 0-.55-.12-.55-.62 0-.37.09-.46.55-.46h.7v1.08zm-1.93.62c-.3.03-.81.11-.94.54l-.39 1.55h1.84l.31-1.32c.04-.23.15-.29.46-.29h.65v1.6h1.74v-4.96c-.61-.07-1.14-.08-2.49-.08-1.81 0-2.26.35-2.26 1.58 0 .6.24 1.16 1.07 1.33v.05zm-2.04 2.1v-4.93h-1.56l-1.57 2.36c-.15.23-.28.45-.38.72h-.04c.04-.29.07-.51.07-.76v-2.32h-1.59v4.92h1.56l1.54-2.25c.14-.22.31-.55.4-.82h.04c-.04.33-.07.58-.07.87v2.21h1.6zm-7.65-2.61c1.15-.15 1.11-.3 1.75-2.33h-1.77c-.51 1.61-.57 1.79-1.07 1.79h-.31c.04-.21.06-.42.06-.61v-1.18h-1.56v1.18c0 .2.02.41.06.61h-.32c-.49 0-.55-.17-1.08-1.79h-1.76c.65 2.03.6 2.18 1.75 2.33v.05c-1.19.17-1.21.26-1.91 2.54h1.82c.62-1.86.67-1.97 1.09-1.98h.4c-.04.15-.06.3-.06.42v1.56h1.57v-1.56c0-.12-.02-.27-.05-.42h.38c.44.01.49.12 1.1 1.98h1.82c-.7-2.29-.73-2.38-1.91-2.54v-.05zm-8.96 1.39h-1.45c.25-.57.43-1.25.57-2.17.03-.28.19-.4.44-.4h.45v2.57zm2.51 0h-.82v-3.71h-2.7c-.88 0-1.32.4-1.43 1.2-.12.85-.29 1.67-.58 2.52h-.61v2.57h1.19l.12-1.37h3.52l.13 1.37h1.19v-2.58zm-9.15-2.59c.6 0 .76.25.76 1.34 0 1.08-.16 1.32-.76 1.32-.61 0-.77-.24-.77-1.32 0-1.09.15-1.34.77-1.34m0-1.26c-1.94 0-2.65.7-2.65 2.6 0 1.89.71 2.57 2.65 2.57 1.93 0 2.64-.68 2.64-2.57 0-1.9-.71-2.6-2.64-2.6m-3.62-1.77h-3.11c-1.06 0-1.63.54-1.71 1.61-.11 1.57-.24 2.53-.47 3.17-.17.48-.5.58-.97.65l.13 1.44c1.21.19 2.11-.17 2.55-1.58.28-.82.41-2.09.53-3.52.02-.34.21-.51.56-.51h.62v5.56h1.86v-6.82zM79.65 208.75h-.57v-1.98h-.98l-.21.75v1.23h-.94c-.11 0-.18-.07-.12-.2l1.05-2.71h-1.21l-1.19 3.04c-.15.37.1.74.51.74h1.91v1h1.19v-1h.01l.55-.12v-.75zm-5.36.7c-.33 0-.44.1-.44.44v.3c0 .33.1.44.44.44h.3c.33 0 .44-.1.44-.44v-.3c0-.33-.1-.44-.44-.44h-.3zm-4.32-2.67c.35-.01.84-.01 1.33-.01.49 0 .62.06.62.45.01.33-.04.52-.56.52h-.92v.83l.92-.01c.51-.01.62.15.62.56 0 .49-.18.57-.79.57-.42 0-.72-.01-1.32-.04l-.04.93c.54.08 1.14.13 1.72.13 1.27 0 1.73-.41 1.72-1.43-.01-.73-.21-1.09-.89-1.2v-.03c.62-.1.76-.52.76-1.21 0-.85-.44-1.12-1.61-1.12-.53 0-1.06.04-1.6.13l.04.93zm15.73-8.1h-.5c-.33 0-.39-.08-.39-.43 0-.26.06-.32.39-.32h.49v.75zm-1.36.43c-.21.02-.57.08-.66.37l-.27 1.09h1.29l.21-.92c.03-.16.1-.2.32-.2h.46v1.12h1.22v-3.47c-.43-.05-.8-.06-1.74-.06-1.27 0-1.58.24-1.58 1.11 0 .42.17.81.75.93v.03zm-3.66.27c0-.16.08-.26.29-.27h.72v.43c-.23.15-.47.24-.67.24-.23 0-.34-.1-.34-.28v-.12zm-.94-1.36c.57-.04 1.13-.05 1.48-.05.36 0 .47.1.48.39v.08h-1.14c-.69 0-1.1.33-1.1.88v.35c0 .65.52.99 1.16.99.6 0 .99-.31 1.23-.6l.12.51h1v-2.2c0-1.03-.51-1.34-1.44-1.34-.51 0-1.37.08-1.89.17l.1.82zm-.87-.89h-1.23v1.21h-1.06v-1.21h-1.24v3.44h1.24v-1.39h1.06v1.39h1.23v-3.44zm-4.28 0h-1.23v1.21H72.3v-1.21h-1.24v3.44h1.24v-1.39h1.06v1.39h1.23v-3.44zm-6.51 2.25c0-.16.08-.26.29-.27h.72v.43c-.23.15-.47.24-.67.24-.23 0-.34-.1-.34-.28v-.12zm-.94-1.36c.57-.04 1.13-.05 1.48-.05.36 0 .47.1.48.39v.08h-1.14c-.69 0-1.1.33-1.1.88v.35c0 .65.52.99 1.16.99.6 0 .99-.31 1.23-.6l.12.51h1v-2.2c0-1.03-.51-1.34-1.44-1.34-.51 0-1.37.08-1.89.17l.1.82zm-3.32 1.69v-1.21h.66c.5 0 .62.12.62.63 0 .48-.12.59-.61.59l-.67-.01zm0-2.01v-1.05h.61c.45 0 .58.1.58.51 0 .43-.12.53-.54.53h-.65zm1.58.37c.61-.05.85-.4.85-1.09 0-.98-.46-1.25-1.75-1.25-.87 0-1.36.01-1.95.05v4.78c.64.05 1.18.06 2.17.06 1.17 0 1.68-.26 1.68-1.25 0-.76-.26-1.21-1-1.27v-.03zm14.9 57.43c.35-.01.84-.01 1.33-.01.49 0 .62.06.62.45.01.33-.04.52-.56.52h-.92v.83l.92-.01c.51-.01.62.15.62.56 0 .48-.18.57-.79.57-.41 0-.72-.01-1.32-.04l-.04.93c.54.08 1.14.13 1.72.13 1.27 0 1.73-.42 1.72-1.43-.01-.73-.22-1.09-.89-1.2v-.03c.62-.1.76-.52.76-1.21 0-.85-.44-1.12-1.61-1.12-.53 0-1.06.04-1.6.13l.04.93zm-1.4 2.67c-.33 0-.44.1-.44.44v.31c0 .33.1.44.44.44h.3c.33 0 .44-.1.44-.44v-.31c0-.33-.1-.44-.44-.44h-.3zm-1.29 1.18v-4.78h-1.3l-1.21.47.15.82 1.11-.25c-.04.19-.05.38-.05.57v3.17h1.3zm7.87-13.49h-1.34l-.51 2.05c-.03.16-.09.39-.14.59h-.07c-.03-.2-.06-.4-.1-.59l-.52-2.05h-1.34l1.07 3.15c.06.18.21.3.4.3h.23c-.09.17-.22.33-.36.41-.22.12-.53.16-.96.15l-.1.82c.49.09 1.01.1 1.42-.07.53-.19.93-.53 1.18-1.34l1.14-3.42zm-6.79 3.97 2.72-5.31h-1l-2.72 5.31h1zm-1.37-1.61c-.44.05-.84.06-1.51.06-.57 0-.73-.29-.73-1.37 0-1.07.16-1.37.73-1.37.64 0 .94.01 1.41.02l.1-.96c-.46-.12-.8-.17-1.51-.17-1.53 0-2.09.65-2.09 2.47s.56 2.47 2.09 2.47c.72 0 1.15-.06 1.61-.21l-.1-.94z" class="st14"/><path d="M184.41 143.06c7.66 0 13.88-6.21 13.88-13.88 0-7.66-6.21-13.88-13.88-13.88-7.66 0-13.88 6.21-13.88 13.88 0 7.67 6.21 13.88 13.88 13.88z" style="clip-path:url(#SVGID_14_);fill:none;stroke:#39373a;stroke-width:.882"/><path d="M178.96 124.95c2.12-.11 3.24-.11 4.82-.11 1.18 0 1.7.07 1.7.72.02.87-1.01 2.25-2.75 4.02l-3.46 3.57c-.45.49-.58 1.01-.58 1.67V137h11.47v-3.62h-4.44c-.74 0-1.45.02-2.16.2l3.79-3.73c2.03-2.12 2.41-3.12 2.41-4.8 0-3.01-2.16-3.73-5.45-3.73-1.67 0-3.26.07-5.51.51l.16 3.12zm16.16 25.15c1.14-.02 2.7-.04 4.29-.04 1.56 0 2.01.2 2.01 1.45.02 1.05-.13 1.67-1.81 1.67h-2.95v2.68l2.95-.02c1.65-.02 2.01.49 2.01 1.81 0 1.56-.58 1.85-2.54 1.85-1.34 0-2.32-.02-4.26-.13l-.13 3.01c1.74.24 3.68.42 5.54.42 4.09 0 5.58-1.34 5.54-4.6-.02-2.34-.69-3.53-2.86-3.86v-.09c1.99-.31 2.46-1.67 2.46-3.88 0-2.75-1.43-3.59-5.2-3.59-1.7 0-3.41.13-5.16.42l.11 2.9zm-4.51 8.59c-1.07 0-1.41.34-1.41 1.41v.98c0 1.07.33 1.41 1.41 1.41h.96c1.07 0 1.41-.33 1.41-1.41v-.98c0-1.07-.34-1.41-1.41-1.41h-.96zm-13.9-8.59c1.14-.02 2.7-.04 4.29-.04 1.56 0 2.01.2 2.01 1.45.02 1.05-.13 1.67-1.81 1.67h-2.95v2.68l2.95-.02c1.65-.02 2.01.49 2.01 1.81 0 1.56-.58 1.85-2.54 1.85-1.34 0-2.32-.02-4.26-.13l-.13 3.01c1.74.24 3.68.42 5.54.42 4.08 0 5.58-1.34 5.54-4.6-.02-2.34-.69-3.53-2.86-3.86v-.09c1.99-.31 2.46-1.67 2.46-3.88 0-2.75-1.43-3.59-5.2-3.59-1.7 0-3.42.13-5.16.42l.11 2.9zm-7.64 9.62c-1.79 0-1.96-.56-1.99-3.97.74-.42 1.23-.58 1.96-.58 1.47 0 1.81.38 1.81 2.03.01 1.83-.08 2.52-1.78 2.52m4.69-12.45c-1.59-.45-3.17-.45-3.97-.45-4.46 0-6.72 1.09-6.72 8.12 0 6.25 1.38 7.81 5.98 7.81 4.71 0 5.74-1.81 5.74-5.65 0-3.39-1.01-4.78-4.51-4.78-1.36 0-2.3.22-3.15.89.11-2.88.67-3.39 2.66-3.39 1.79 0 2.52 0 3.79.02l.18-2.57z" class="st14"/><path d="M286.33 223.66v6.68H124.61V389.2h-12.78v15.82h20.32V237.16h160.84v-13.5h-6.66zM111.83 52.2v16.65h12.78v26.47h4.29v60.05h-4.29v33.94l-2.67-.04v3.36h25.28v-3.36l-14.96-.12V68.86h27.08V52.2h-47.51zM31.85 285.21h7.77v11.3h-7.77v-11.3zm3.77-7.16h3.8v3.8h-3.8v-3.8zm5.49-32.35h3.65v4.03h-3.65v-4.03zm-7.25-7.09h3.65v22.49h-3.65v-22.49zm7.25 0h3.65v4.03h-3.65v-4.03zM18.38 15.78v3.45l-.08 385.78h49.84V389.2H31.85v-89.11l10.95-.04-.17-26.54H98.5v-3.36h-5.3v-11.84h-3.36v6.85H41.49v-11.91h6.67v-14.83H93.2v-21.75h-3.36v18.39H31.85v-48.94h57.99v10.67h3.36v-4.08h2.67v-3.44H93.2v-10.79H31.85V68.86h25.13V52.2h-34V19.24h18.88v-3.46H18.38zm213.22-.47v.47h-18.5v3.46h18.5V52.2h-17.36v16.65h26.13v120.42h-67.32v3.36h70.3v-.13h.38v-18.39h42.6v19.64h6.66v-26.53h-45.73v-.26h-.68V15.31H231.6z" style="fill:#39373a"/><defs><path id="SVGID_15_" d="M17.83 14.85h288.79v390.67H17.83z"/></defs><clipPath id="SVGID_16_"><use xlink:href="#SVGID_15_" style="overflow:visible"/></clipPath><path d="M41.11 245.7h3.65v4.03h-3.65v-4.03zm3.65-3.06h-3.65v-4.03h3.65v4.03zm-5.14 53.86h-7.77v-11.3h7.77v11.3zm-.2-14.65h-3.8v-3.8h3.8v3.8zm-1.91-20.75h-3.65v-22.49h3.65v22.49zm5.11 12.41H98.5v-3.36h-5.3v-11.84h-3.36v6.85H41.49v-11.91h6.67v-14.83H93.2v-21.75h-3.36v18.38H31.85v-48.94h57.99v10.67h3.36v-4.08h2.67v-3.44H93.2v-10.79H31.85V68.86h25.13V52.2h-34V19.24h18.88v-3.46H18.38v3.45l-.08 385.78h49.84V389.2H31.85v-89.11l10.95-.04-.18-26.54zm89.64-204.65h27.08V52.2h-47.51v16.65h12.78v26.47h4.29v60.05h-4.29v33.94l-2.67-.04v3.36h25.28v-3.36l-14.96-.12V68.86zm154.07 124.91h6.66v-26.54h-45.73v-.26h-.68V15.31H231.6v.46h-18.5v3.46h18.5V52.2h-17.36v16.65h26.13v120.42h-67.32v3.36h70.3v-.13h.38v-18.39h42.6v19.66zm6.66 43.39v-13.5h-6.66v6.68H124.61V389.2h-12.78v15.82h20.32V237.16h160.84z" style="clip-path:url(#SVGID_16_);fill:none;stroke:#39373a;stroke-width:.928"/></g></switch></svg>