<svg xmlns="http://www.w3.org/2000/svg" xml:space="preserve" id="Слой_1" x="0" y="0" style="enable-background:new 0 0 1000 1000" version="1.1" viewBox="0 0 1000 1000"><style>.st1{fill:#373437}.st2,.st4,.st5{fill:none;stroke:#373437;stroke-width:1.079}.st4,.st5{stroke-width:.647}.st5{stroke-miterlimit:4.0001}.st12,.st13{fill:none;stroke:#373437}.st6{stroke-width:.432}.st6,.st8,.st9{fill:none;stroke:#373437}.st8{stroke-width:.711}.st9{stroke-width:.262}.st12{stroke-width:.628}.st13{stroke-width:1.047}</style><path d="M202 244h579.2v453.1H202z" style="fill:#b7e0e6"/><path d="M488 368.7h13.9v364H488z" class="st1"/><path d="M488 368.7h13.9v364H488z" class="st2"/><path d="M488 237h13.9v63.7H488zm0 560.2h13.9v79.9H488z" class="st1"/><path d="M488 797.2h13.9v79.9H488z" class="st2"/><path d="M195.5 238h13.9v594h-13.9zm292.5-7.7h55.5v21.6H488zm130-.6h25.2v13.9H618z" class="st1"/><path d="M618 229.7h25.2v13.9H618z" class="st2"/><path d="M637.6 235h149.6v9.6H637.6zm-442.1-3.8h341.1v20.6H195.5z" class="st1"/><path d="M201.9 237.9h334.7v13.9H201.9z" class="st2"/><path d="M782.7 234.5h11.1v642.6h-11.1z" class="st1"/><path d="M782.7 234.5h11.1v642.6h-11.1z" class="st2"/><path d="M346.5 693.3h8v292.8h-8z" style="fill:none;stroke:#373437;stroke-width:.647;stroke-miterlimit:4.0002" transform="rotate(-81.75 350.483 839.639)"/><path d="M494.6 855.9h294.6v8H494.6zm143.5-626.8h115.6" class="st4"/><path d="M369 592.2c2.2 0 2.8.9 2.8 6.2 0 5.2-.6 6.2-2.8 6.2-2.1 0-2.7-.9-2.7-6.2 0-5.2.6-6.2 2.7-6.2m0-4.1c-6 0-8 2.6-8 10.3s2.1 10.3 8 10.3c6 0 8.1-2.6 8.1-10.3 0-7.7-2.1-10.3-8.1-10.3m-13.4 15.3c-1.4 0-1.8.4-1.8 1.8v1.3c0 1.4.4 1.8 1.8 1.8h1.2c1.4 0 1.8-.4 1.8-1.8v-1.3c0-1.4-.4-1.8-1.8-1.8h-1.2zm-14.2-8.1c0-2.3.2-3.3 2.3-3.3 2.2 0 2.5.8 2.5 5.1-.9.5-1.6.7-2.5.7-1.8.1-2.3-.5-2.3-2.5m-4.2 12.7c2.3.6 4.4.6 5.5.6 6.3 0 8.6-1.5 8.6-10.4 0-8-1.3-10-7.6-10-5.7 0-7.4 2.2-7.4 7.2 0 3.6 1.3 6.1 5.7 6.1 1.8 0 3-.3 4.1-1.2-.1 3.4-.8 4.4-3.4 4.4h-5.2l-.3 3.3zm-4.1.3v-19.7h-5.3l-5 1.9.6 3.4 4.6-1c-.2.8-.2 1.6-.2 2.3v13.1h5.3zm67.8-39.3c0-.7.3-1.1 1.2-1.1h3v1.8c-.9.6-1.9 1-2.8 1s-1.4-.4-1.4-1.1v-.6zm-3.8-5.6c2.4-.1 4.7-.2 6.1-.2 1.5 0 1.9.4 2 1.6v.3h-4.7c-2.8 0-4.5 1.4-4.5 3.6v1.4c0 2.7 2.1 4.1 4.8 4.1 2.5 0 4.1-1.3 5.1-2.5l.5 2.1h4.1v-9.1c0-4.2-2.1-5.6-5.9-5.6-2.1 0-5.7.3-7.8.7l.3 3.6zm-2.4.2v-3.9h-14.2v3.9h4.5v10.3h5.2v-10.3h4.5zm-25.4 5.4c0-.7.3-1.1 1.2-1.1h3v1.8c-.9.6-1.9 1-2.8 1s-1.4-.4-1.4-1.1v-.6zm-3.9-5.6c2.4-.1 4.7-.2 6.1-.2 1.5 0 1.9.4 2 1.6v.3h-4.7c-2.8 0-4.5 1.4-4.5 3.6v1.4c0 2.7 2.1 4.1 4.8 4.1 2.5 0 4.1-1.3 5.1-2.5l.5 2.1h4.1v-9.1c0-4.2-2.1-5.6-5.9-5.6-2.1 0-5.7.3-7.8.7l.3 3.6zm-3.5-3.7h-5.1v5h-4.4v-5h-5.1v14.2h5.1v-5.7h4.4v5.7h5.1v-14.2zm-24.1 0c-1.1 0-1.8.5-1.9 1.6l-1.2 5.3-.3 2.1h-.2c-.1-.7-.1-1.4-.3-2.1l-1.3-5.3c-.2-1.1-.9-1.6-1.9-1.6h-4.4c-1.2 0-1.8.6-1.8 1.8l-.3 12.4h4.7l.3-10.4h.3l1.7 6.9c.2 1.1.9 1.6 2 1.6h2.3c1.1 0 1.7-.5 1.9-1.6l1.7-6.9h.3l.4 10.4h4.7l-.4-12.4c0-1.2-.6-1.8-1.8-1.8h-4.5zm-23.6 3.3c1.7 0 2.2.7 2.2 3.9 0 3.1-.5 3.8-2.2 3.8-1.8 0-2.2-.7-2.2-3.8-.1-3.2.4-3.9 2.2-3.9m0-3.7c-5.6 0-7.7 2-7.7 7.5s2.1 7.4 7.7 7.4 7.6-2 7.6-7.4-2-7.5-7.6-7.5m-14.3 7.2c3.3-.5 3.1-.8 4.9-6.7h-5.2c-1.2 4.7-1.3 5.1-3.3 5.1h-.6c.1-.6.2-1.2.2-1.8v-3.3h-5.2V574h5.2v-4.5c0-.3-.1-.7-.2-1.1h1.1c1.5 0 1.6.4 3.1 5.6h5.4c-2-6.7-2-6.8-5.4-7.3v-.2zm91.8-34.7h-2c-1.3 0-1.6-.3-1.6-1.8 0-1.1.3-1.3 1.6-1.3h2v3.1zm-5.6 1.8c-.9.1-2.3.3-2.7 1.5l-1.1 4.5h5.3l.9-3.8c.1-.7.4-.8 1.3-.8h1.9v4.6h5v-14.3c-1.8-.2-3.3-.2-7.2-.2-5.2 0-6.5 1-6.5 4.6 0 1.7.7 3.3 3.1 3.8v.1zm-15.1 1.1c0-.7.3-1.1 1.2-1.1h3v1.8c-.9.6-1.9 1-2.8 1s-1.4-.4-1.4-1.1v-.6zm-3.9-5.6c2.4-.1 4.7-.2 6.1-.2 1.5 0 1.9.4 2 1.6v.3h-4.7c-2.8 0-4.5 1.4-4.5 3.6v1.4c0 2.7 2.1 4.1 4.8 4.1 2.5 0 4.1-1.3 5.1-2.5l.5 2.1h4.1v-9.1c0-4.2-2.1-5.6-5.9-5.6-2.1 0-5.7.3-7.8.7l.3 3.6zm-3.6-3.7h-8.6c-2.5 0-3.7 1.3-3.9 3.7-.2 2.6-.5 4.6-.7 5.6-.3 1.1-1.1 1.1-2.4 1.3l.5 3.8c3.1.5 5.9-.2 6.5-3.7.3-1.4.6-3.8.9-6 .1-.8.5-1.2 1.3-1.2h1.2v10.8h5.2v-14.3zm-17.4 14.2v-14.2h-4.5l-4.5 6.8c-.4.7-.8 1.3-1.1 2.1h-.1c.1-.8.2-1.5.2-2.2v-6.7h-4.6v14.2h4.5l4.4-6.5c.4-.6.9-1.6 1.1-2.4h.1c-.1.9-.2 1.7-.2 2.5v6.4h4.7zM323 529.2c3.8-.5 3.9-2.3 6-9.4h-5.4c-1.8 5.9-2.1 7.7-4 7.7h-.9c.1-.8.2-1.7.2-2.5v-5.2h-5.1v5.2c0 .8.1 1.6.3 2.5h-1c-1.9 0-2.3-1.8-4-7.7h-5.4c2.1 7.1 2.2 8.8 6 9.4v.2c-4 .6-4.2 2.1-6.6 10.2h5.6c2.2-7.2 2.4-8.4 4.3-8.4h1c-.1.6-.2 1.3-.2 1.8v6.6h5.1V533c0-.5-.1-1.2-.2-1.8h.9c2 0 2.2 1.3 4.4 8.4h5.6c-2.3-8.1-2.6-9.6-6.6-10.2v-.2zm333.2 97.7c2.2 0 2.6.5 2.6 2.6 0 2-.5 2.5-2.7 2.5s-2.7-.5-2.7-2.5.5-2.6 2.8-2.6m0-8c2 0 2.4.4 2.4 2.4 0 1.7-.4 2.2-2.4 2.2s-2.5-.4-2.5-2.2c0-1.9.5-2.4 2.5-2.4m-4.3 6.4c-2.8.3-3.5 2.6-3.5 5.3 0 3.8 1.6 5.3 7.8 5.3 6.3-.1 7.8-1.5 7.8-5.3 0-2.6-.7-5-3.5-5.3v-.1c2.1-.2 3-2.4 3-4.5 0-3.7-1.3-5.3-7.3-5.3-5.9 0-7.2 1.6-7.2 5.3 0 2.1.9 4.3 2.9 4.6zm-9 5.3c-1.4 0-1.8.4-1.8 1.8v1.3c0 1.4.4 1.8 1.8 1.8h1.2c1.4 0 1.8-.4 1.8-1.8v-1.3c0-1.4-.4-1.8-1.8-1.8h-1.2zm-12-3.7c2.2 0 2.6.5 2.6 2.6 0 2-.5 2.5-2.7 2.5s-2.7-.5-2.7-2.5c.1-2 .6-2.6 2.8-2.6m0-8c2 0 2.4.4 2.4 2.4 0 1.7-.4 2.2-2.4 2.2s-2.5-.4-2.5-2.2c.1-1.9.5-2.4 2.5-2.4m-4.2 6.4c-2.8.3-3.5 2.6-3.5 5.3 0 3.8 1.6 5.3 7.8 5.3 6.3-.1 7.8-1.5 7.8-5.3 0-2.6-.7-5-3.5-5.3v-.1c2.1-.2 3-2.4 3-4.5 0-3.7-1.3-5.3-7.3-5.3-5.9 0-7.2 1.6-7.2 5.3 0 2.1.9 4.3 2.9 4.6zm53.4-32h-2c-1.3 0-1.6-.3-1.6-1.8 0-1.1.3-1.3 1.6-1.3h2v3.1zm-5.6 1.8c-.9.1-2.3.3-2.7 1.5l-1.1 4.5h5.3l.9-3.8c.1-.7.4-.8 1.3-.8h1.9v4.6h5v-14.3c-1.8-.2-3.3-.2-7.2-.2-5.2 0-6.5 1-6.5 4.6 0 1.7.7 3.3 3.1 3.8v.1zm-5.9-8.2h-5.1v5h-4.4v-5H654v14.2h5.1v-5.8h4.4v5.8h5.1v-14.2zm-21.4 14.2h5.2l-4.2-7.3 3.9-7h-5.2l-2.8 5.3-2.8-5.3h-5.2l3.9 7-4.2 7.3h5.2l3.1-5.7 3.1 5.7zm-11.6-14.2H630l-2.1 8.5c-.1.7-.4 1.6-.6 2.4h-.3c-.1-.8-.3-1.6-.4-2.4l-2.1-8.5H619l4.4 13c.2.7.9 1.2 1.7 1.2h.9c-.4.7-.9 1.4-1.5 1.7-.9.5-2.2.7-4 .6l-.4 3.4c2 .4 4.2.4 5.9-.3 2.2-.8 3.8-2.2 4.9-5.5l4.7-14.1zm-23.4 3.8c3.9-.5 4-2.3 6.2-9.4H613c-1.5 5.9-1.9 7.7-4.7 7.7h-.9c.1-.8.2-1.7.2-2.5v-5.2h-5.3V601h5.3v-6.6c0-.5-.1-1.2-.2-1.8h1c2.7 0 3 1.3 5 8.4h5.6c-2.4-8.1-2.7-9.6-6.8-10.2v-.1zm-28.3-236.2.2-3.2h-9.9l-.4 7.1c0 .7.5 1.3 1.2 1.4l2.5.3c2.1.2 2.9.5 2.8 2-.1 1.3-.5 1.8-2.6 1.8-1.1 0-2.6-.1-4.1-.2l-.4 3.2c2 .3 4 .5 5.6.5 4.5 0 5.7-2.3 5.7-5.1 0-2.5-.9-4.8-4.6-5.2l-2.6-.3.2-2.2 6.4-.1zm-14.8 8.8c-1.1 0-1.4.3-1.4 1.4v1c0 1.1.3 1.4 1.4 1.4h1c1.1 0 1.4-.3 1.4-1.4v-1c0-1.1-.3-1.4-1.4-1.4h-1zm-3.8-8.8.2-3.2h-9.9l-.4 7.1c0 .7.5 1.3 1.2 1.4l2.4.3c2.1.2 2.9.5 2.8 2-.1 1.3-.5 1.8-2.6 1.8-1.1 0-2.6-.1-4.1-.2l-.4 3.2c2 .3 4 .5 5.6.5 4.5 0 5.7-2.3 5.7-5.1 0-2.5-.9-4.8-4.6-5.2l-2.6-.3.2-2.2 6.5-.1zm57.5-21.1h-1.6c-1.1 0-1.3-.3-1.3-1.4 0-.8.2-1.1 1.3-1.1h1.6v2.5zm-4.5 1.5c-.7.1-1.9.3-2.2 1.2l-.9 3.6h4.3l.7-3c.1-.5.3-.7 1.1-.7h1.5v3.7h4v-11.5c-1.4-.2-2.6-.2-5.7-.2-4.2 0-5.2.8-5.2 3.7-.1 1.4.5 2.7 2.4 3.2zm-12.1.8c0-.5.3-.9 1-.9h2.4v1.4c-.8.5-1.6.8-2.2.8-.8 0-1.1-.3-1.1-.9v-.4h-.1zm-3.1-4.4c1.9-.1 3.7-.2 4.9-.2s1.6.3 1.6 1.3v.3h-3.8c-2.3 0-3.6 1.1-3.6 2.9v1.1c0 2.1 1.7 3.3 3.8 3.3 2 0 3.3-1 4.1-2l.4 1.7h3.3v-7.3c0-3.4-1.7-4.4-4.8-4.4-1.7 0-4.5.3-6.2.6l.3 2.7zm-6.4 2.4c2.7-.3 2.6-.7 4.1-5.4h-4.1c-1.2 3.7-1.3 4.1-2.5 4.1h-.7c.1-.5.1-1 .1-1.4v-2.7H590v2.7c0 .5 0 .9.1 1.4h-.7c-1.1 0-1.3-.4-2.5-4.1h-4.1c1.5 4.7 1.4 5 4.1 5.4v.1c-2.7.4-2.8.6-4.4 5.9h4.2c1.4-4.3 1.6-4.6 2.5-4.6h.9c-.1.3-.1.7-.1 1v3.6h3.6v-3.6c0-.3 0-.6-.1-1h.9c1 0 1.1.3 2.5 4.6h4.2c-1.6-5.3-1.7-5.5-4.4-5.9v-.1zm-21.2-2.8c1.4 0 1.8.6 1.8 3.1s-.4 3-1.8 3-1.8-.6-1.8-3c0-2.5.4-3.1 1.8-3.1m0-2.9c-4.5 0-6.1 1.6-6.1 6s1.6 5.9 6.1 5.9 6.1-1.6 6.1-5.9c0-4.4-1.7-6-6.1-6m-10.8 11.7h4.2l-3.4-5.8 3.1-5.6h-4.1l-2.2 4.3-2.2-4.3H556l3.1 5.6-3.4 5.8h4.2l2.5-4.6 2.3 4.6zm-10.5 0v-11.4h-3.6l-3.6 5.4c-.3.5-.6 1-.9 1.7h-.1c.1-.7.2-1.2.2-1.8v-5.4h-3.7v11.4h3.6l3.5-5.2c.3-.5.7-1.3.9-1.9h.1c-.1.8-.2 1.4-.2 2v5.1l3.8.1zm-21.6-7.9c.7-.4 1.3-.7 2.1-.7 1.1 0 1.5.4 1.5 3s-.5 3-1.6 3c-.8 0-1.4-.2-2-.4v-4.9zm-.8-3.5h-3.3v15.6h4.1v-2.5c0-.8 0-1.7-.1-2.5 1 .8 2.3 1 3.6 1 2.8 0 4.3-1.3 4.3-5.9 0-3.9-1.1-6.1-4-6.1-1.8 0-3.6.8-4.4 1.9l-.2-1.5zm-6-4.4h-13.2v15.8h4.3v-12.9h4.7v12.9h4.3l-.1-15.8zm173.6 458.9c3.1 1.3 4.3 5.5 4.3 11.4s-1.1 10-4.3 11.5l.6 2.2c6-1.7 8.7-6 8.7-13.6 0-7.7-2.7-12-8.7-13.7l-.6 2.2zm-2 4.6.2-3.9h-12.4l-.5 8.9c-.1.9.6 1.7 1.5 1.8l3.1.4c2.7.2 3.6.6 3.5 2.5-.1 1.6-.7 2.2-3.3 2.2-1.4 0-3.2-.1-5.1-.2l-.5 4c2.5.4 5 .6 7 .6 5.6 0 7.2-2.9 7.2-6.4 0-3.2-1.2-6-5.8-6.5l-3.3-.4.2-2.7h8.2v-.3zm-18.5 11c-1.4 0-1.8.4-1.8 1.8v1.3c0 1.4.4 1.8 1.8 1.8h1.2c1.4 0 1.8-.4 1.8-1.8v-1.3c0-1.4-.4-1.8-1.8-1.8h-1.2zm-3.7-2.9h-2.3v-8.2h-4l-.9 3.1v5.1h-3.9c-.5 0-.7-.3-.5-.8l4.3-11.2h-5L658 796c-.6 1.5.4 3.1 2.1 3.1h7.9v4.1h4.9v-4.1h.1l2.3-.5-.1-3.1zm-17.6-14.9c-6 1.7-8.7 6-8.7 13.7 0 7.6 2.7 11.9 8.7 13.6l.6-2.2c-3.1-1.5-4.3-5.6-4.3-11.5 0-6 1.1-10.1 4.3-11.4l-.6-2.2zm-24.9 6.6c2.2 0 2.8.9 2.8 6.2 0 5.2-.6 6.2-2.8 6.2-2.1 0-2.7-.9-2.7-6.2-.1-5.3.5-6.2 2.7-6.2m0-4.1c-6 0-8 2.6-8 10.3s2.1 10.3 8 10.3c6 0 8.1-2.6 8.1-10.3 0-7.7-2.1-10.3-8.1-10.3m-13.5 15.3c-1.4 0-1.8.4-1.8 1.8v1.3c0 1.4.4 1.8 1.8 1.8h1.2c1.4 0 1.8-.4 1.8-1.8v-1.3c0-1.4-.4-1.8-1.8-1.8h-1.2zm-14.1-8.1c0-2.3.2-3.3 2.3-3.3 2.2 0 2.5.8 2.5 5.1-.9.5-1.6.7-2.5.7-1.9.1-2.3-.5-2.3-2.5m-4.2 12.7c2.3.6 4.4.6 5.5.6 6.3 0 8.6-1.5 8.6-10.4 0-8-1.3-10-7.6-10-5.7 0-7.4 2.2-7.3 7.2 0 3.6 1.3 6.1 5.7 6.1 1.8 0 3-.3 4.1-1.2-.1 3.4-.8 4.4-3.4 4.4h-5.2l-.4 3.3zm186-70.2h-84.4V726h8.6v-27.4h75.8z" class="st1"/><path d="M786.9 732.8h-84.4V726h8.6v-27.4h75.8z" class="st2"/><path d="M497.8 732.8h84.5V726h-8.6v-27.4h-75.9z" class="st1"/><path d="M497.8 732.8h84.5V726h-8.6v-27.4h-75.9z" class="st2"/><path d="M504.3 725.4h153.8v8H504.3z" class="st4"/><path d="M505.3 698h146.9v27.5H505.3z" class="st4"/><path stroke-width=".647" d="m660.89 694.768 1.38-2.321 54.843 32.602-1.38 2.32z" class="st5"/><path d="M660.6 695s-3.2 4.4-4.8 14.5c-1.6 10.2-1.1 15.6-1.1 15.6" class="st6"/><path d="M509.7 732.8h-84.4V726h8.6v-27.4h75.8z" class="st1"/><path d="M509.7 732.8h-84.4V726h8.6v-27.4h75.8z" class="st2"/><path d="M202 735h110v-7.6h-11.1V697H202z" class="st1"/><path d="M221 726.4h153.8v8H221zm7.1-28.4H375v27.5H228.1z" class="st4"/><path stroke-width=".647" d="m383.694 694.745 1.38-2.321 54.842 32.602-1.38 2.32z" class="st5"/><path d="M383.4 695s-3.2 4.4-4.8 14.5c-1.6 10.2-1.1 15.6-1.1 15.6" class="st6"/><path stroke-width=".647" d="m454.135 360.332 39.91-67.135 2.32 1.38-39.909 67.134z" class="st5"/><path d="M456.8 362s4.4 3.2 14.5 4.8c10.2 1.6 15.6 1.1 15.6 1.1" class="st6"/><path stroke-width=".647" d="m532.16 473.555 1.38-2.321 67.134 39.909-1.38 2.32z" class="st5"/><path d="M601 510.9s3.2-4.4 4.8-14.5c1.6-10.2 1.7-21 1.7-21" class="st6"/><path stroke-width=".647" d="m550.611 282.641 67.135-39.909 1.38 2.321-67.135 39.91z" class="st5"/><path d="M550.3 282.3s-3.2-4.4-4.8-14.5c-1.6-10.2-1.1-15.6-1.1-15.6" class="st6"/><path d="M379.7 463.1c6.6-.3 10-.3 15-.3 3.7 0 5.3.2 5.3 2.2.1 2.7-3.1 7-8.5 12.5l-10.7 11.1c-1.4 1.5-1.8 3.1-1.8 5.2v6.8h35.6v-11.2h-13.8c-2.3 0-4.5.1-6.7.6l11.8-11.6c6.3-6.6 7.5-9.7 7.5-14.9 0-9.3-6.7-11.6-16.9-11.6-5.2 0-10.1.2-17.1 1.6l.3 9.6zm-13.8 25.7c-3.3 0-4.4 1-4.4 4.4v3c0 3.3 1 4.4 4.4 4.4h3c3.3 0 4.4-1 4.4-4.4v-3c0-3.3-1-4.4-4.4-4.4h-3zM353 500.5v-47.8h-12.9l-12.1 4.7 1.5 8.2 11.1-2.5c-.4 1.9-.5 3.8-.5 5.7v31.6l12.9.1zm-25.9-18.7h-5.7v-19.7h-9.8l-2.1 7.5v12.3h-9.3c-1.1 0-1.8-.7-1.2-2l10.5-27.1h-12.1l-11.9 30.3c-1.5 3.7 1 7.4 5.1 7.4h19.1v10h11.8v-10h.1l5.5-1.2v-7.5z" class="st1"/><path d="M350.4 441.4c23.4 0 42.4-19 42.4-42.4s-19-42.4-42.4-42.4-42.4 19-42.4 42.4 19 42.4 42.4 42.4z" style="fill:none;stroke:#373437;stroke-width:1.078"/><path d="M366.6 398.3c7.2-.9 7.4-4.2 11.4-17.1h-10c-2.8 10.9-3.5 14.1-8.6 14.1h-1.7c.3-1.5.4-3 .4-4.5v-9.6h-9.8v36.2h9.8v-12.1c0-1-.2-2.2-.4-3.4h1.9c5 0 5.5 2.4 9.2 15.5h10.3c-4.5-14.8-4.9-17.7-12.4-18.7l-.1-.4zm-26 19v-36.2h-9.8l-9.2 3.6 1.2 6.2 8.4-1.9c-.3 1.5-.4 2.9-.4 4.3v24h9.8z" class="st1"/><path d="M504.4 395h26.1v73.2h-26.1z" class="st8"/><path d="M526.1 395h4.4v73.2h-4.4zm-.2 4.3-16.8 2v43l16.8 2.4m.2 2.3-17 2.5v9.2l17 2.2m228.6-211.7h26.1v72.2h-26.1z" class="st8"/><path d="M776.4 251.2h4.4v72.2h-4.4zm-.2 4.3-16.8 1.9v42.4l16.8 2.4m.2 2.3-17 2.4v9l17 2.2" class="st8"/><path d="M727 458.1c0-8 6.5-14.5 14.5-14.5h20.9c1.4 0 2.5 1.1 2.5 2.5V470c0 1.4-1.1 2.5-2.5 2.5h-20.9c-8 0-14.5-6.5-14.5-14.4m38.9 11.9v-23.9c0-1.9-1.6-3.5-3.5-3.5h-20.9c-8.5 0-15.5 6.9-15.5 15.5s6.9 15.5 15.5 15.5h20.9c1.9-.1 3.5-1.6 3.5-3.6" class="st1"/><path d="M727 458.1c0-8 6.5-14.5 14.5-14.5h20.9c1.4 0 2.5 1.1 2.5 2.5V470c0 1.4-1.1 2.5-2.5 2.5h-20.9c-8 0-14.5-6.5-14.5-14.4zm38.9 11.9v-23.9c0-1.9-1.6-3.5-3.5-3.5h-20.9c-8.5 0-15.5 6.9-15.5 15.5s6.9 15.5 15.5 15.5h20.9c1.9-.1 3.5-1.6 3.5-3.6z" class="st9"/><path d="M757.9 447.7v20.7c0 .1-.1.3-.2.3h-15.8c-5.8 0-10.6-4.8-10.6-10.6s4.8-10.6 10.6-10.6h15.8c.1 0 .2.1.2.2z" class="st9"/><path d="M757.4 448v20.2h-15.5c-5.6 0-10.1-4.5-10.1-10.1s4.5-10.1 10.1-10.1h15.5zm1 20.4v-20.7c0-.4-.3-.7-.7-.7h-15.8c-6.1 0-11.1 5-11.1 11.1s5 11.1 11.1 11.1h15.8c.3 0 .7-.4.7-.8" class="st1"/><path d="M757.4 448v20.2h-15.5c-5.6 0-10.1-4.5-10.1-10.1s4.5-10.1 10.1-10.1h15.5zm1 20.4v-20.7c0-.4-.3-.7-.7-.7h-15.8c-6.1 0-11.1 5-11.1 11.1s5 11.1 11.1 11.1h15.8c.3 0 .7-.4.7-.8z" class="st9"/><path d="M741.8 458.1c0-1.5 1.2-2.7 2.7-2.7s2.7 1.2 2.7 2.7-1.2 2.7-2.7 2.7c-1.4 0-2.7-1.2-2.7-2.7m6.5 0c0-2.1-1.7-3.7-3.7-3.7-2.1 0-3.7 1.7-3.7 3.7 0 2.1 1.7 3.7 3.7 3.7s3.7-1.7 3.7-3.7" class="st1"/><path d="M741.8 458.1c0-1.5 1.2-2.7 2.7-2.7s2.7 1.2 2.7 2.7-1.2 2.7-2.7 2.7c-1.4 0-2.7-1.2-2.7-2.7zm6.5 0c0-2.1-1.7-3.7-3.7-3.7-2.1 0-3.7 1.7-3.7 3.7 0 2.1 1.7 3.7 3.7 3.7s3.7-1.7 3.7-3.7z" class="st9"/><path d="m748.56 454.173 6.644-4.972.6.8-6.646 4.973z" class="st1"/><path d="M748.1 451.6h8.3v1h-8.3z" style="fill:none;stroke:#373437;stroke-width:.262;stroke-miterlimit:3.9998" transform="rotate(-36.808 752.259 452.143)"/><path d="m748.67 461.891.599-.8 6.644 4.974-.6.8z" class="st1"/><path d="M751.8 459.8h1v8.3h-1z" style="fill:none;stroke:#373437;stroke-width:.262;stroke-miterlimit:3.9999" transform="rotate(-53.18 752.324 463.973)"/><path d="M765.9 448.1c0-2.2 1.8-4 4-4h5.5c2.2 0 4 1.8 4 4v20c0 2.2-1.8 4-4 4h-5.5c-2.2 0-4-1.8-4-4v-20zm14.5 20v-20c0-2.8-2.2-5-5-5h-5.5c-2.8 0-5 2.2-5 5v20c0 2.8 2.2 5 5 5h5.5c2.7 0 5-2.3 5-5" class="st1"/><path d="M765.9 448.1c0-2.2 1.8-4 4-4h5.5c2.2 0 4 1.8 4 4v20c0 2.2-1.8 4-4 4h-5.5c-2.2 0-4-1.8-4-4v-20zm14.5 20v-20c0-2.8-2.2-5-5-5h-5.5c-2.8 0-5 2.2-5 5v20c0 2.8 2.2 5 5 5h5.5c2.7 0 5-2.3 5-5z" class="st9"/><path d="M771.1 458.1c0-.9.7-1.5 1.6-1.5.9 0 1.5.7 1.5 1.5 0 .9-.7 1.6-1.5 1.6-.9-.1-1.6-.8-1.6-1.6m4.1 0c0-1.4-1.1-2.5-2.5-2.5s-2.5 1.1-2.5 2.5 1.1 2.5 2.5 2.5c1.3 0 2.5-1.1 2.5-2.5" class="st1"/><path d="M771.1 458.1c0-.9.7-1.5 1.6-1.5.9 0 1.5.7 1.5 1.5 0 .9-.7 1.6-1.5 1.6-.9-.1-1.6-.8-1.6-1.6zm4.1 0c0-1.4-1.1-2.5-2.5-2.5s-2.5 1.1-2.5 2.5 1.1 2.5 2.5 2.5c1.3 0 2.5-1.1 2.5-2.5z" class="st9"/><path d="M722.7 419.9h-2.3V412h-3.9l-.8 3v4.9h-3.8c-.4 0-.7-.3-.5-.8l4.2-10.9h-4.9l-4.8 12.2c-.6 1.5.4 3 2 3h7.7v4h4.7v-4h.1l2.2-.5.1-3zm-21.4 2.8c-1.3 0-1.7.4-1.7 1.7v1.2c0 1.3.4 1.7 1.7 1.7h1.2c1.3 0 1.7-.4 1.7-1.7v-1.2c0-1.3-.4-1.7-1.7-1.7h-1.2zM684 412c1.4 0 3.4-.1 5.3-.1s2.5.3 2.5 1.8c0 1.3-.2 2.1-2.2 2.1h-3.7v3.3h3.7c2.1 0 2.5.6 2.5 2.2 0 1.9-.7 2.3-3.2 2.3-1.7 0-2.9 0-5.3-.2l-.2 3.7c2.2.3 4.6.5 6.9.5 5.1 0 6.9-1.7 6.9-5.7 0-2.9-.9-4.4-3.6-4.8v-.1c2.5-.4 3.1-2.1 3.1-4.8 0-3.4-1.8-4.5-6.5-4.5-2.1 0-4.2.2-6.4.5l.2 3.8z" class="st1"/><path d="M648.2 350c0-8.9 7.2-16 16-16h95.7c8.9 0 16 7.2 16 16v21.5c0 8.9-7.2 16-16 16h-95.7c-8.9 0-16-7.2-16-16V350z" class="st12"/><path d="M657 355c0-8.9 7.2-16 16-16h78c8.9 0 16 7.2 16 16v11.5c0 8.9-7.2 16-16 16h-77.9c-8.9 0-16-7.2-16-16L657 355z" class="st12"/><path d="M667.8 351.8c0-4.4 3.6-8 8-8h78.3c4.4 0 8 3.6 8 8v17.9c0 4.4-3.6 8-8 8h-78.3c-4.4 0-8-3.6-8-8v-17.9z" class="st12"/><path d="M752.6 360.7c0 1.3-1.1 2.4-2.4 2.4-1.3 0-2.4-1.1-2.4-2.4s1.1-2.4 2.4-2.4c1.3 0 2.4 1.1 2.4 2.4zm-112.9 29.8h141.6" class="st12"/><path d="M745.6 420.3c0 8.5 6.9 15.3 15.3 15.3h16.3c1.3 0 2.3-1 2.3-2.3v-34.7c0-1.3-1-2.3-2.3-2.3h-16.3c-8.5 0-15.3 6.9-15.3 15.3v8.7zm34.8-21.6v34.7c0 1.8-1.4 3.2-3.2 3.2h-16.3c-8.9 0-16.2-7.3-16.2-16.2v-8.7c0-8.9 7.3-16.2 16.2-16.2h16.3c1.7 0 3.2 1.4 3.2 3.2" class="st1"/><path d="M745.6 420.3c0 8.5 6.9 15.3 15.3 15.3h16.3c1.3 0 2.3-1 2.3-2.3v-34.7c0-1.3-1-2.3-2.3-2.3h-16.3c-8.5 0-15.3 6.9-15.3 15.3v8.7zm34.8-21.6v34.7c0 1.8-1.4 3.2-3.2 3.2h-16.3c-8.9 0-16.2-7.3-16.2-16.2v-8.7c0-8.9 7.3-16.2 16.2-16.2h16.3c1.7 0 3.2 1.4 3.2 3.2z" class="st9"/><path d="M749.4 420.3c0 6.3 5.2 11.5 11.5 11.5h9.5c1.1 0 2-.9 2-2v-27.6c0-1.1-.9-2-2-2h-9.5c-6.3 0-11.5 5.2-11.5 11.5v8.6zm23.9-18.1v27.6c0 1.6-1.3 2.9-2.9 2.9h-9.5c-6.8 0-12.3-5.5-12.3-12.3v-8.6c0-6.8 5.5-12.4 12.3-12.4h9.5c1.6-.1 2.9 1.2 2.9 2.8" class="st1"/><path d="M749.4 420.3c0 6.3 5.2 11.5 11.5 11.5h9.5c1.1 0 2-.9 2-2v-27.6c0-1.1-.9-2-2-2h-9.5c-6.3 0-11.5 5.2-11.5 11.5v8.6zm23.9-18.1v27.6c0 1.6-1.3 2.9-2.9 2.9h-9.5c-6.8 0-12.3-5.5-12.3-12.3v-8.6c0-6.8 5.5-12.4 12.3-12.4h9.5c1.6-.1 2.9 1.2 2.9 2.8z" class="st9"/><path d="M757.5 416c0 1 .9 1.9 1.9 1.9s1.9-.9 1.9-1.9-.9-1.9-1.9-1.9-1.9.9-1.9 1.9m4.6 0c0 1.5-1.2 2.8-2.8 2.8-1.5 0-2.8-1.2-2.8-2.8 0-1.5 1.2-2.8 2.8-2.8 1.6 0 2.8 1.3 2.8 2.8" class="st1"/><path d="M757.5 416c0 1 .9 1.9 1.9 1.9s1.9-.9 1.9-1.9-.9-1.9-1.9-1.9-1.9.9-1.9 1.9zm4.6 0c0 1.5-1.2 2.8-2.8 2.8-1.5 0-2.8-1.2-2.8-2.8 0-1.5 1.2-2.8 2.8-2.8 1.6 0 2.8 1.3 2.8 2.8z" class="st9"/><path d="M636.4 325.1h6.6v69.8h-6.6z" class="st1"/><path d="M636.4 325.1h6.6v69.8h-6.6z" class="st13"/><path d="M636.4 440.8h6.6v55.5h-6.6z" class="st1"/><path d="M636.4 440.8h6.6v55.5h-6.6z" class="st13"/><path d="M637.8 325.1h148.6v6.6H637.8z" class="st1"/><path d="M637.8 325.1h148.6v6.6H637.8z" class="st13"/><path d="M637.8 489.7h148.6v6.6H637.8z" class="st1"/><path d="M637.8 489.7h148.6v6.6H637.8z" class="st13"/><path d="M642.4 440.2h43.9v50.7h-43.9z" class="st12"/><path d="M607 469.6h34.6v8.9H607zm-106.9 0h39.6v8.9h-39.6zM780.4 499h-45.9v46h45.9v-46zm1 47h-48v-48h48v48z" class="st1"/><path d="M780.4 499h-45.9v46h45.9v-46zm1 47h-48v-48h48v48z" class="st9"/><path d="M738.7 538.1c0 1.1.9 2.1 2.1 2.1h24.1c1.1 0 2.1-.9 2.1-2.1v-32.2c0-1.1-.9-2.1-2.1-2.1h-24.1c-1.1 0-2.1.9-2.1 2.1v32.2zm29.3-32.2v32.2c0 1.7-1.4 3.1-3.1 3.1h-24.1c-1.7 0-3.1-1.4-3.1-3.1v-32.2c0-1.7 1.4-3.1 3.1-3.1h24.1c1.7 0 3.1 1.4 3.1 3.1" class="st1"/><path d="M738.7 538.1c0 1.1.9 2.1 2.1 2.1h24.1c1.1 0 2.1-.9 2.1-2.1v-32.2c0-1.1-.9-2.1-2.1-2.1h-24.1c-1.1 0-2.1.9-2.1 2.1v32.2zm29.3-32.2v32.2c0 1.7-1.4 3.1-3.1 3.1h-24.1c-1.7 0-3.1-1.4-3.1-3.1v-32.2c0-1.7 1.4-3.1 3.1-3.1h24.1c1.7 0 3.1 1.4 3.1 3.1z" class="st9"/><path d="M763.4 507.4h-21.1v29.1h21.1v-29.1zm1 30.2h-23.1v-31.2h23.1v31.2z" class="st1"/><path d="M763.4 507.4h-21.1v29.1h21.1v-29.1zm1 30.2h-23.1v-31.2h23.1v31.2z" class="st9"/><path d="M748.7 522c0 1.5 1.2 2.7 2.7 2.7s2.7-1.2 2.7-2.7-1.2-2.7-2.7-2.7-2.7 1.2-2.7 2.7m6.4 0c0 2-1.7 3.7-3.7 3.7s-3.7-1.7-3.7-3.7 1.7-3.7 3.7-3.7 3.7 1.7 3.7 3.7" class="st1"/><path d="M748.7 522c0 1.5 1.2 2.7 2.7 2.7s2.7-1.2 2.7-2.7-1.2-2.7-2.7-2.7-2.7 1.2-2.7 2.7zm6.4 0c0 2-1.7 3.7-3.7 3.7s-3.7-1.7-3.7-3.7 1.7-3.7 3.7-3.7 3.7 1.7 3.7 3.7z" class="st9"/><path d="m616.8 400.6-3.5 2.1 25.4 41.6 3.5-2.1z" class="st12"/><path d="M615.3 401.1s6.6-4.2 21.2-5.4" style="fill:none;stroke:#373437;stroke-width:.419"/><path d="M636.6 234.6H722" class="st4"/><path d="M698.1 229.1H794v9.6h-95.9z" class="st1"/></svg>