<?xml version="1.0" encoding="utf-8"?>
<!-- Generator: Adobe Illustrator 26.5.0, SVG Export Plug-In . SVG Version: 6.00 Build 0)  -->
<svg version="1.1" id="Слой_1" xmlns="http://www.w3.org/2000/svg" xmlns:xlink="http://www.w3.org/1999/xlink" x="0px" y="0px"
	 viewBox="0 0 1000 1000" style="enable-background:new 0 0 1000 1000;" xml:space="preserve">
<style type="text/css">
	.st0{fill:#F5C5CD;}
	.st1{fill:#373437;}
	.st2{fill:none;stroke:#373437;}
</style>
<rect x="114.2" y="276.7" class="st0" width="780.7" height="405.4"/>
<rect x="366.1" y="258.9" class="st1" width="11.6" height="62.2"/>
<rect x="366.1" y="386.9" class="st1" width="11.6" height="300"/>
<rect x="366.1" y="386.9" class="st2" width="11.6" height="300"/>
<rect x="366.1" y="762.7" class="st1" width="11.6" height="60.3"/>
<rect x="366.1" y="762.7" class="st2" width="11.6" height="60.3"/>
<rect x="639.9" y="266.4" class="st1" width="260.8" height="10.1"/>
<rect x="639.9" y="266.4" class="st2" width="260.8" height="10.1"/>
<rect x="374.8" y="266.4" class="st1" width="261.6" height="10.1"/>
<rect x="374.8" y="266.4" class="st2" width="261.6" height="10.1"/>
<rect x="895.3" y="266.3" class="st1" width="12.4" height="427.6"/>
<rect x="895.3" y="266.3" class="st2" width="12.4" height="427.6"/>
<rect x="630.9" y="385.5" class="st1" width="12.4" height="400.5"/>
<rect x="630.9" y="385.5" class="st2" width="12.4" height="400.5"/>
<rect x="630.9" y="266.4" class="st1" width="12.4" height="57.7"/>
<rect x="630.9" y="266.4" class="st2" width="12.4" height="57.7"/>
<rect x="239.4" y="258.8" class="st1" width="22.9" height="17.8"/>
<rect x="239.4" y="258.8" class="st2" width="22.9" height="17.8"/>
<rect x="333.7" y="258.8" class="st1" width="574.3" height="17.8"/>
<rect x="333.7" y="258.8" class="st2" width="37.8" height="17.8"/>
<rect x="107.2" y="269.3" class="st1" width="139.9" height="7.3"/>
<rect x="100.9" y="269.3" class="st2" width="146.2" height="7.3"/>
<rect x="100.9" y="258.8" class="st1" width="77.1" height="17.8"/>
<rect x="299.4" y="682.5" class="st1" width="130.8" height="29.6"/>
<rect x="299.4" y="682.5" class="st2" width="130.8" height="29.6"/>
<rect x="576.3" y="706.4" class="st1" width="122.2" height="5.7"/>
<rect x="576.3" y="706.4" class="st2" width="122.2" height="5.7"/>
<rect x="842.5" y="706.4" class="st1" width="65.5" height="5.7"/>
<rect x="842.5" y="706.4" class="st2" width="59.2" height="5.7"/>
<rect x="672.1" y="706.4" class="st2" width="211.8" height="5.7"/>
<rect x="839.8" y="706.4" class="st1" width="66.8" height="5.7"/>
<rect x="839.8" y="706.4" class="st2" width="66.8" height="5.7"/>
<rect x="582.4" y="682.9" class="st1" width="109.7" height="29.2"/>
<rect x="582.4" y="682.9" class="st2" width="109.7" height="29.2"/>
<rect x="844.7" y="682.9" class="st1" width="63.3" height="29.2"/>
<rect x="844.7" y="682.9" class="st2" width="63.3" height="29.2"/>
<rect x="672.1" y="682.9" class="st2" width="211.8" height="29.2"/>
<rect x="103.9" y="682.5" class="st1" width="76.5" height="24.7"/>
<rect x="103.9" y="682.5" class="st2" width="76.5" height="24.7"/>
<rect x="100.9" y="707.2" class="st1" width="82.4" height="5.7"/>
<rect x="104" y="707.2" class="st2" width="79.3" height="5.7"/>
<rect x="294.4" y="707.2" class="st1" width="142.7" height="5.7"/>
<rect x="294.4" y="707.2" class="st2" width="142.7" height="5.7"/>
<rect x="342.3" y="413.5" class="st2" width="22.2" height="63.6"/>
<line class="st2" x1="345.8" y1="413.7" x2="345.8" y2="477.4"/>
<polyline class="st2" points="345.8,416.8 361.8,418.2 361.8,458.5 345.8,460.2 345.8,462.9 362,464.7 362,473.7 345.8,475.6 "/>
<rect x="114" y="417.4" class="st2" width="22.2" height="59.7"/>
<line class="st2" x1="117.5" y1="477" x2="117.5" y2="417.1"/>
<polyline class="st2" points="117.5,474 133.6,472.7 133.6,434.9 117.5,433.3 117.5,430.8 133.8,429.1 133.8,420.7 117.5,418.8 "/>
<path class="st2" d="M634.5,316l35.4,61.2c0,0-5,3.2-15.8,5.9c-10.8,2.7-18.3,2.7-18.3,2.7"/>
<path class="st2" d="M334.8,478.6l-60.8,35c0,0-3.2-5-5.9-15.7c-2.7-10.7-2.7-18.1-2.7-18.1"/>
<path class="st2" d="M253.6,269.2l70.8,41.1c0,0,3.7-5.8,6.9-18.4c3.2-12.5,3.2-21.3,3.2-21.3"/>
<path class="st2" d="M367.2,407.3l66.5,38.5c0,0,3.5-5.5,6.4-17.2c3-11.7,3-19.9,3-19.9"/>
<rect x="233.1" y="682.5" class="st2" width="111.6" height="24.7"/>
<rect x="227.6" y="707.2" class="st2" width="106.7" height="5.7"/>
<path class="st2" d="M231.7,706.3c0,0,0-7-3.1-15.7c-2.6-7.3-7.8-14.1-7.8-14.1l-48.5,27.4l1.1,1.7l48.6-27.4"/>
<rect x="480.4" y="682.9" class="st2" width="111.6" height="23.7"/>
<rect x="474.9" y="706.7" class="st2" width="106.7" height="5.4"/>
<path class="st2" d="M479,706.3c0,0,0-7-3.1-15.7c-2.6-7.3-7.8-14.1-7.8-14.1l-48.5,27.4l1.1,1.7l48.6-27.4"/>
<rect x="101.3" y="479.3" class="st1" width="164.8" height="6.1"/>
<rect x="101.3" y="479.3" class="st2" width="164.8" height="6.1"/>
<rect x="325.2" y="479.3" class="st1" width="49.7" height="6.1"/>
<rect x="325.2" y="479.3" class="st2" width="49.7" height="6.1"/>
<path class="st1" d="M354.3,378.8v-2.9h-5.9c0-0.1,0-0.2,0-0.4c0-0.4,0.1-0.9,0.3-1.4c0.2-0.5,0.5-0.9,0.9-1.3
	c0.4-0.4,0.8-0.9,1.2-1.4c0.4-0.5,0.9-1,1.3-1.5c0.4-0.6,0.8-1.1,1.2-1.7c0.4-0.6,0.7-1.3,0.9-2.1c0.2-0.8,0.3-1.6,0.3-2.5
	c0-1.6-0.4-2.8-1.2-3.7c-0.8-0.9-1.9-1.3-3.5-1.3c-1.5,0-2.7,0.4-3.5,1.3c-0.8,0.9-1.2,2.1-1.2,3.7v1.9h3v-2.1c0-1.3,0.5-2,1.6-2
	c0.5,0,0.9,0.2,1.2,0.5c0.3,0.3,0.4,0.9,0.4,1.8c0,0.8-0.1,1.5-0.3,2.2c-0.2,0.7-0.5,1.3-0.9,1.8c-0.4,0.5-0.8,1-1.2,1.5
	c-0.4,0.5-0.9,1-1.3,1.5c-0.4,0.5-0.9,1-1.2,1.5c-0.4,0.5-0.7,1.1-0.9,1.8c-0.2,0.7-0.3,1.4-0.3,2.2v2.4H354.3z M343.1,375.9H340
	v2.9h3.1V375.9z M334,364.8v7.5h-3.2L334,364.8z M334,375.1v3.6h3.1v-3.6h1.4v-2.8h-1.4v-13.5h-3.4l-5.7,13.5v2.8H334z"/>
<path class="st1" d="M383.5,335.5c0-0.7,0.1-1.2,0.4-1.6c0.3-0.3,0.7-0.5,1.2-0.5h1.5v6.1h-1.2c-0.6,0-1.1-0.2-1.4-0.5
	c-0.3-0.3-0.5-0.9-0.5-1.6V335.5z M383.2,350.5c0.1-0.2,0.1-0.4,0.2-0.5c0-0.1,0.1-0.3,0.1-0.7c0-0.3,0-0.7,0-1.3v-3.1
	c0-0.9,0.2-1.6,0.5-2c0.3-0.4,0.8-0.6,1.6-0.6h1.1v8.1h3.1v-19.9H385c-1.6,0-2.8,0.4-3.5,1.1c-0.7,0.8-1.1,1.9-1.1,3.5v1.6
	c0,2.1,0.7,3.4,2,4c-0.7,0.3-1.3,0.8-1.6,1.5c-0.3,0.7-0.5,1.6-0.5,2.7v3.1c0,1.1-0.1,1.9-0.3,2.4H383.2z M373.7,334.1l1.5,10h-3
	L373.7,334.1z M371.3,350.5l0.5-3.6h3.8l0.5,3.6h3.1l-3.2-19.9h-4.8l-3.2,19.9H371.3z M354,350.5l2.9-8.9l0.8,1.5v7.3h3.1v-7.3
	l0.8-1.5l2.8,8.8h3.1l-3.8-11.8l3.8-8.1h-3l-3.7,8.1v-8.1h-3.1v8.1l-3.7-8.1h-3l3.9,8.2l-3.9,11.8H354z M343.4,335.2
	c0-1.3,0.5-2,1.6-2c1.1,0,1.6,0.7,1.6,2v10.8c0,1.3-0.5,2-1.6,2c-1.1,0-1.6-0.7-1.6-2V335.2z M341.5,349.4c0.8,0.9,2,1.3,3.5,1.3
	c1.5,0,2.7-0.4,3.5-1.3c0.8-0.9,1.2-2.1,1.2-3.7v-10.4c0-1.6-0.4-2.8-1.2-3.7c-0.8-0.9-2-1.3-3.5-1.3c-1.5,0-2.7,0.4-3.5,1.3
	c-0.8,0.9-1.2,2.1-1.2,3.7v10.4C340.2,347.3,340.6,348.6,341.5,349.4 M330.7,350.5l2.4-7.4l2.4,7.4h3.1l-3.5-10.2l3.3-9.8h-2.7
	l-2.4,7.4l-2.4-7.4h-3.1l3.3,9.7l-3.5,10.3H330.7z M319.3,350.5l2.6-9.1l1.3-4.9v14h3.1v-19.9h-3.8l-2.6,8.2l-1.1,4.4v-12.6h-2.8
	v19.9H319.3z M308.5,333.4h1.5c0.5,0,0.9,0.1,1.2,0.4c0.2,0.3,0.4,0.8,0.4,1.5v3c0,0.7-0.1,1.2-0.4,1.5c-0.3,0.3-0.6,0.4-1.2,0.4
	h-1.5V333.4z M308.5,350.5V343h1.5c1.5,0,2.7-0.4,3.5-1.3c0.8-0.8,1.2-2.1,1.2-3.7v-2.6c0-1.6-0.4-2.8-1.2-3.7
	c-0.8-0.8-1.9-1.3-3.5-1.3h-4.6v19.9H308.5z M296.3,350.5v-17.1h3.6v17.1h3.1v-19.9h-9.8v19.9H296.3z"/>
<path class="st1" d="M216.5,356.8c0-0.9,0.4-1.4,1.1-1.4c0.8,0,1.1,0.5,1.1,1.4v2.5c0,0.9-0.4,1.4-1.1,1.4c-0.8,0-1.1-0.5-1.1-1.4
	V356.8z M214.9,361.8c0.4,0.5,1,0.8,1.8,0.8c1,0,1.6-0.4,2-1.2v2.6c0,0.6-0.1,1.1-0.3,1.3c-0.2,0.3-0.5,0.4-0.9,0.4
	c-0.8,0-1.1-0.5-1.1-1.4v-0.5h-2.1v0.4c0,1.1,0.3,2,0.8,2.6c0.6,0.6,1.4,0.9,2.4,0.9c2.2,0,3.4-1.2,3.4-3.6v-7.1
	c0-1.1-0.3-2-0.9-2.6s-1.4-0.9-2.5-0.9c-1.1,0-1.9,0.3-2.5,0.9c-0.6,0.6-0.9,1.5-0.9,2.6v2.6C214.3,360.5,214.5,361.3,214.9,361.8
	 M213,365.5h-2.2v2h2.2V365.5z M209.3,367.5v-2h-4.1c0-0.1,0-0.2,0-0.3c0-0.3,0.1-0.6,0.2-0.9c0.2-0.3,0.4-0.6,0.6-0.9
	c0.3-0.3,0.5-0.6,0.8-1c0.3-0.3,0.6-0.7,0.9-1.1c0.3-0.4,0.6-0.8,0.8-1.2c0.3-0.4,0.5-0.9,0.6-1.5c0.2-0.5,0.2-1.1,0.2-1.7
	c0-1.1-0.3-2-0.8-2.6c-0.6-0.6-1.4-0.9-2.4-0.9c-1.1,0-1.9,0.3-2.4,0.9c-0.6,0.6-0.8,1.5-0.8,2.6v1.4h2.1v-1.5
	c0-0.9,0.4-1.4,1.1-1.4c0.4,0,0.7,0.1,0.8,0.3c0.2,0.2,0.3,0.6,0.3,1.2c0,0.5-0.1,1.1-0.2,1.5c-0.2,0.5-0.4,0.9-0.6,1.3
	c-0.3,0.4-0.5,0.7-0.8,1.1c-0.3,0.3-0.6,0.7-0.9,1c-0.3,0.3-0.6,0.7-0.9,1.1c-0.3,0.4-0.5,0.8-0.6,1.3c-0.2,0.5-0.2,1-0.2,1.6v1.7
	H209.3z"/>
<path class="st1" d="M231.4,337.2c0-0.5,0.1-0.9,0.3-1.1c0.2-0.2,0.5-0.3,0.9-0.3h1.1v4.3h-0.9c-0.4,0-0.8-0.1-1-0.3
	c-0.2-0.2-0.3-0.6-0.3-1.1V337.2z M231.2,347.8c0.1-0.2,0.1-0.3,0.1-0.4c0-0.1,0-0.2,0.1-0.5c0-0.2,0-0.5,0-0.9v-2.2
	c0-0.6,0.1-1.1,0.3-1.4c0.2-0.3,0.6-0.4,1.1-0.4h0.8v5.7h2.2v-14h-3.3c-1.1,0-1.9,0.3-2.5,0.8c-0.5,0.5-0.8,1.3-0.8,2.4v1.1
	c0,1.4,0.5,2.4,1.4,2.8c-0.5,0.2-0.9,0.6-1.1,1.1c-0.2,0.5-0.3,1.1-0.3,1.9v2.2c0,0.8-0.1,1.3-0.2,1.7H231.2z M224.6,336.3l1.1,7
	h-2.1L224.6,336.3z M222.8,347.8l0.4-2.5h2.7l0.4,2.5h2.2l-2.2-14h-3.4l-2.2,14H222.8z M214.9,347.8v-6h2.5v6h2.2v-14h-2.2v6h-2.5
	v-6h-2.2v14H214.9z M206.4,347.8v-6h2.5v6h2.2v-14h-2.2v6h-2.5v-6h-2.2v14H206.4z M199.4,336.3l1.1,7h-2.1L199.4,336.3z
	 M197.7,347.8l0.4-2.5h2.7l0.4,2.5h2.2l-2.2-14h-3.4l-2.2,14H197.7z M190.2,335.8h1.1c0.4,0,0.7,0.1,0.9,0.3
	c0.2,0.2,0.3,0.6,0.3,1.1v0.8c0,0.5-0.1,0.9-0.3,1.1c-0.2,0.2-0.6,0.3-1,0.3h-0.9V335.8z M190.2,341.5h1c0.5,0,0.9,0.1,1.1,0.4
	c0.2,0.2,0.3,0.7,0.3,1.3v1.2c0,0.5-0.1,0.9-0.3,1.1c-0.2,0.2-0.5,0.3-0.9,0.3h-1.3V341.5z M191.5,347.8c1.1,0,1.9-0.3,2.5-0.8
	c0.6-0.6,0.8-1.4,0.8-2.5v-1.1c0-1.6-0.5-2.6-1.6-3c0.9-0.4,1.4-1.4,1.4-2.8V337c0-1.1-0.3-1.9-0.8-2.4c-0.5-0.5-1.3-0.8-2.5-0.8
	H188v14H191.5z"/>
<path class="st1" d="M225.9,463.5v-2h-4.1c0-0.1,0-0.2,0-0.3c0-0.3,0.1-0.6,0.2-0.9c0.2-0.3,0.4-0.6,0.6-0.9c0.3-0.3,0.5-0.6,0.9-1
	c0.3-0.3,0.6-0.7,0.9-1.1c0.3-0.4,0.6-0.8,0.8-1.2c0.3-0.4,0.5-0.9,0.6-1.5c0.2-0.5,0.2-1.1,0.2-1.7c0-1.1-0.3-2-0.8-2.6
	c-0.6-0.6-1.4-0.9-2.4-0.9c-1.1,0-1.9,0.3-2.4,0.9c-0.6,0.6-0.8,1.5-0.8,2.6v1.4h2.1v-1.5c0-0.9,0.4-1.4,1.1-1.4
	c0.4,0,0.7,0.1,0.8,0.3c0.2,0.2,0.3,0.6,0.3,1.2c0,0.5-0.1,1.1-0.2,1.5c-0.2,0.5-0.4,0.9-0.6,1.3c-0.3,0.4-0.5,0.7-0.8,1.1
	c-0.3,0.3-0.6,0.7-0.9,1c-0.3,0.3-0.6,0.7-0.9,1.1c-0.3,0.4-0.5,0.8-0.6,1.3c-0.2,0.5-0.2,1-0.2,1.6v1.7H225.9z M218,461.5h-2.2v2
	h2.2V461.5z M211,452.8v10.6h2.2v-14h-1.5c-0.1,0.2-0.2,0.4-0.2,0.5c-0.1,0.1-0.2,0.3-0.3,0.5c-0.1,0.2-0.3,0.3-0.4,0.4
	c-0.2,0.1-0.4,0.2-0.6,0.2c-0.3,0.1-0.5,0.1-0.9,0.1v1.5H211z"/>
<path class="st1" d="M223.7,440.5l0,0.1c-0.1,0.5-0.3,0.8-0.6,1c-0.3,0.2-0.8,0.2-1.4,0.2v2c0.6,0,1.1,0,1.5-0.1
	c0.4-0.1,0.8-0.2,1.1-0.4c0.3-0.2,0.6-0.4,0.8-0.7c0.2-0.3,0.4-0.7,0.5-1c0.1-0.4,0.3-0.8,0.4-1.4l2.3-10.4h-2.2l-1,4.8l-0.5,3.2
	l-0.7-3.3l-1.2-4.8h-2.2L223.7,440.5z M214.9,443.7l5.5-14h-1.9l-5.5,14H214.9z M206.6,443c0.6,0.6,1.4,0.9,2.4,0.9
	c1.1,0,1.9-0.3,2.5-0.9c0.6-0.6,0.9-1.5,0.9-2.6v-1.9h-2.2v2c0,0.9-0.4,1.4-1.1,1.4c-0.8,0-1.1-0.5-1.1-1.4V433
	c0-0.9,0.4-1.4,1.1-1.4c0.8,0,1.1,0.5,1.1,1.4v1.5h2.2v-1.4c0-1.1-0.3-2-0.9-2.6c-0.6-0.6-1.4-0.9-2.5-0.9c-1.1,0-1.9,0.3-2.4,0.9
	c-0.6,0.6-0.8,1.5-0.8,2.6v7.3C205.8,441.5,206.1,442.3,206.6,443"/>
<path class="st1" d="M514.5,352.1v15.2h3.1v-19.9h-2.1c-0.1,0.3-0.2,0.6-0.3,0.8c-0.1,0.2-0.2,0.4-0.4,0.7c-0.2,0.2-0.4,0.4-0.6,0.6
	c-0.2,0.1-0.5,0.3-0.9,0.3c-0.4,0.1-0.8,0.1-1.2,0.1v2.2H514.5z M508,364.5h-3.1v2.9h3.1V364.5z M496.6,359.2c0-1.3,0.5-2,1.6-2
	c1.1,0,1.6,0.7,1.6,2v3.6c0,1.3-0.5,1.9-1.6,1.9c-1.1,0-1.6-0.6-1.6-1.9V359.2z M494.7,366.3c0.8,0.9,2,1.3,3.5,1.3
	c1.5,0,2.7-0.4,3.5-1.3c0.8-0.9,1.2-2.1,1.2-3.7v-3.6c0-1.5-0.3-2.6-0.9-3.4c-0.6-0.8-1.4-1.2-2.6-1.2c-1.4,0-2.3,0.6-2.9,1.8v-3.6
	c0-0.9,0.1-1.5,0.4-1.9c0.3-0.4,0.7-0.5,1.3-0.5c1.1,0,1.6,0.7,1.6,2v0.7h2.9v-0.5c0-1.6-0.4-2.8-1.2-3.7c-0.8-0.9-2-1.3-3.5-1.3
	c-3.2,0-4.8,1.7-4.8,5.2v10.2C493.4,364.2,493.9,365.4,494.7,366.3"/>
<path class="st1" d="M540.9,322h1.5c0.5,0,0.9,0.1,1.2,0.4c0.2,0.3,0.4,0.8,0.4,1.5v3c0,0.7-0.1,1.2-0.4,1.5
	c-0.3,0.3-0.6,0.4-1.2,0.4h-1.5V322z M540.9,339.1v-7.5h1.5c1.5,0,2.7-0.4,3.5-1.3c0.8-0.8,1.2-2.1,1.2-3.7v-2.6
	c0-1.6-0.4-2.8-1.2-3.7c-0.8-0.8-1.9-1.3-3.5-1.3h-4.6v19.9H540.9z M529.3,323.7c0-1.3,0.5-2,1.6-2c1.1,0,1.6,0.7,1.6,2v10.8
	c0,1.3-0.5,2-1.6,2c-1.1,0-1.6-0.7-1.6-2V323.7z M527.4,338c0.8,0.9,2,1.3,3.5,1.3c1.5,0,2.7-0.4,3.5-1.3c0.8-0.9,1.2-2.1,1.2-3.7
	v-10.4c0-1.6-0.4-2.8-1.2-3.7c-0.8-0.9-2-1.3-3.5-1.3c-1.5,0-2.7,0.4-3.5,1.3c-0.8,0.9-1.2,2.1-1.2,3.7v10.4
	C526.2,335.9,526.6,337.1,527.4,338 M516.7,335.3c0.1-0.4,0.2-0.9,0.3-1.7l0.6-11.6h2.6v14.3h-4.1
	C516.4,336,516.6,335.7,516.7,335.3 M515,341.7v-2.6h6.6v2.6h3.1v-5.5h-1.4v-17.1h-8.9l-0.6,14.5c0,0.6-0.1,1.1-0.2,1.5
	c-0.1,0.4-0.3,0.8-0.6,1.1h-1.3v5.5H515z M503.6,339.1l2.6-9.1l1.3-4.9v14h3.1v-19.9h-3.8l-2.6,8.2l-1.1,4.4v-12.6h-2.8v19.9H503.6z
	 M492.8,322h1.5c0.5,0,0.9,0.1,1.2,0.4c0.3,0.3,0.4,0.8,0.4,1.5v3c0,0.7-0.1,1.2-0.4,1.5c-0.2,0.3-0.6,0.4-1.2,0.4h-1.5V322z
	 M492.8,339.1v-7.5h1.5c1.5,0,2.7-0.4,3.5-1.3c0.8-0.8,1.2-2.1,1.2-3.7v-2.6c0-1.6-0.4-2.8-1.2-3.7c-0.8-0.8-1.9-1.3-3.5-1.3h-4.6
	v19.9H492.8z M481.3,323.7c0-1.3,0.5-2,1.6-2c1.1,0,1.6,0.7,1.6,2v10.8c0,1.3-0.5,2-1.6,2c-1.1,0-1.6-0.7-1.6-2V323.7z M479.4,338
	c0.8,0.9,2,1.3,3.5,1.3c1.5,0,2.7-0.4,3.5-1.3c0.8-0.9,1.2-2.1,1.2-3.7v-10.4c0-1.6-0.4-2.8-1.2-3.7c-0.8-0.9-2-1.3-3.5-1.3
	c-1.5,0-2.7,0.4-3.5,1.3c-0.8,0.9-1.2,2.1-1.2,3.7v10.4C478.1,335.9,478.6,337.1,479.4,338 M469.8,339.1V333l1-1.8l3,7.9h3.2
	l-4.4-11.1l4.4-8.9h-3.1l-4.1,8.7v-8.7h-3.1v19.9H469.8z"/>
<path class="st1" d="M240.9,609.8c0.8,0.9,2,1.3,3.6,1.3c1.5,0,2.7-0.4,3.5-1.3c0.8-0.9,1.2-2.1,1.2-3.7v-1.6c0-2.2-0.7-3.6-2.2-4.2
	c1.5-0.6,2.2-2,2.2-4.1v-0.5c0-1.6-0.4-2.8-1.2-3.7c-0.8-0.9-2-1.3-3.5-1.3c-1.5,0-2.7,0.4-3.6,1.3c-0.8,0.9-1.3,2.1-1.3,3.7v1.1
	h3.1v-1.3c0-1.3,0.5-2,1.6-2c0.5,0,0.9,0.2,1.2,0.5s0.4,0.9,0.4,1.8v1.1c0,0.8-0.2,1.3-0.5,1.6c-0.3,0.3-0.8,0.5-1.4,0.5h-1.2v2.9
	h1.1c0.7,0,1.2,0.2,1.6,0.6c0.3,0.4,0.5,1,0.5,1.9v1.6c0,0.8-0.1,1.4-0.4,1.8s-0.7,0.5-1.2,0.5c-1.1,0-1.6-0.7-1.6-2v-1.8h-3.1v1.7
	C239.6,607.7,240,608.9,240.9,609.8 M237.6,608h-3.1v2.9h3.1V608z M226,595.5c0-1.3,0.5-1.9,1.6-1.9c1.1,0,1.6,0.6,1.6,1.9v3.6
	c0,1.3-0.5,2-1.6,2c-1.1,0-1.6-0.7-1.6-2V595.5z M223.8,602.8c0.6,0.8,1.4,1.2,2.6,1.2c1.4,0,2.4-0.6,2.9-1.8v3.6
	c0,0.9-0.1,1.5-0.4,1.9c-0.3,0.4-0.7,0.5-1.3,0.5c-1.1,0-1.6-0.7-1.6-2v-0.7H223v0.5c0,1.6,0.4,2.8,1.2,3.7c0.8,0.9,2,1.3,3.5,1.3
	c3.2,0,4.8-1.7,4.8-5.2v-10.2c0-1.6-0.4-2.8-1.2-3.7c-0.8-0.9-2-1.3-3.5-1.3c-1.5,0-2.7,0.4-3.5,1.3c-0.8,0.9-1.2,2.1-1.2,3.7v3.7
	C222.9,600.8,223.2,602,223.8,602.8"/>
<path class="st1" d="M258.2,567.6c0-0.7,0.1-1.2,0.4-1.6c0.3-0.3,0.7-0.5,1.2-0.5h1.5v6.1h-1.2c-0.6,0-1.1-0.2-1.4-0.5
	c-0.3-0.3-0.5-0.9-0.5-1.6V567.6z M257.9,582.6c0.1-0.2,0.1-0.4,0.2-0.5c0-0.1,0.1-0.3,0.1-0.7c0-0.3,0-0.7,0-1.3V577
	c0-0.9,0.2-1.6,0.5-2c0.3-0.4,0.8-0.6,1.6-0.6h1.1v8.1h3.1v-19.9h-4.7c-1.6,0-2.8,0.4-3.5,1.1c-0.7,0.8-1.1,1.9-1.1,3.5v1.6
	c0,2.1,0.7,3.4,2,4c-0.7,0.3-1.3,0.8-1.6,1.5c-0.3,0.7-0.5,1.6-0.5,2.7v3.1c0,1.1-0.1,1.9-0.3,2.4H257.9z M246.3,582.6v-8.5h3.6v8.5
	h3.1v-19.9h-3.1v8.6h-3.6v-8.6h-3.1v19.9H246.3z M233.3,582.6l2.4-7.4l2.4,7.4h3.1l-3.5-10.2l3.3-9.8h-2.7l-2.4,7.4l-2.4-7.4h-3.1
	l3.3,9.7l-3.5,10.3H233.3z M222.7,578l0,0.2c-0.1,0.7-0.4,1.1-0.8,1.4c-0.4,0.2-1.1,0.3-1.9,0.2v2.8c0.8,0.1,1.6,0,2.2-0.1
	c0.6-0.1,1.2-0.3,1.6-0.6c0.4-0.3,0.8-0.6,1.1-1.1c0.3-0.5,0.6-0.9,0.7-1.5c0.2-0.5,0.4-1.2,0.5-2l3.3-14.8h-3.1l-1.4,6.8l-0.7,4.6
	l-1-4.7l-1.7-6.8h-3.1L222.7,578z M210.7,582.6v-6.1l1-1.8l3,7.9h3.2l-4.4-11.1l4.4-8.9h-3.1l-4.1,8.7v-8.7h-3.1v19.9H210.7z"/>
<path class="st1" d="M271.2,775.1c1.6,0,2.7-0.3,3.4-1c0.7-0.7,1-1.8,1-3.4v-11.2c0-1.6-0.3-2.7-1-3.4c-0.7-0.7-1.8-1-3.4-1h-1v2.7
	h0.8c0.5,0,0.9,0.1,1.1,0.4c0.2,0.2,0.3,0.7,0.3,1.4v11c0,0.7-0.1,1.1-0.3,1.4c-0.2,0.2-0.6,0.4-1.1,0.4h-0.8v2.7H271.2z M265.7,758
	l-4.6,17.1h3.1l4.6-17.2v-2.7h-9.4v2.8H265.7z M257.5,772.2h-3.1v2.9h3.1V772.2z M248.4,761.1v7.5h-3.2L248.4,761.1z M248.4,771.4
	v3.6h3.1v-3.6h1.4v-2.8h-1.4v-13.5h-3.4l-5.7,13.5v2.8H248.4z M237.2,774.1c0.7,0.7,1.8,1,3.4,1h1v-2.7h-0.8c-0.5,0-0.9-0.1-1.1-0.4
	c-0.2-0.3-0.3-0.7-0.3-1.4v-11c0-0.7,0.1-1.1,0.3-1.4c0.2-0.3,0.6-0.4,1.1-0.4h0.8v-2.7h-1c-1.6,0-2.7,0.3-3.4,1
	c-0.7,0.7-1,1.8-1,3.4v11.2C236.2,772.3,236.5,773.4,237.2,774.1 M225.6,761.1v7.5h-3.2L225.6,761.1z M225.6,771.4v3.6h3.1v-3.6h1.4
	v-2.8h-1.4v-13.5h-3.4l-5.7,13.5v2.8H225.6z M218.1,772.2H215v2.9h3.1V772.2z M206.5,759.7c0-1.3,0.5-1.9,1.6-1.9
	c1.1,0,1.6,0.6,1.6,1.9v3.6c0,1.3-0.5,2-1.6,2c-1.1,0-1.6-0.7-1.6-2V759.7z M204.3,766.9c0.6,0.8,1.4,1.2,2.6,1.2
	c1.4,0,2.4-0.6,2.9-1.8v3.6c0,0.9-0.1,1.5-0.4,1.9c-0.3,0.4-0.7,0.5-1.3,0.5c-1.1,0-1.6-0.7-1.6-2v-0.7h-2.9v0.5
	c0,1.6,0.4,2.8,1.2,3.7c0.8,0.9,2,1.3,3.5,1.3c3.2,0,4.8-1.7,4.8-5.2v-10.2c0-1.6-0.4-2.8-1.2-3.7c-0.8-0.9-2-1.3-3.5-1.3
	s-2.7,0.4-3.5,1.3s-1.2,2.1-1.2,3.7v3.7C203.4,765,203.7,766.2,204.3,766.9"/>
<path class="st1" d="M521.9,553.7l-4.6,17.1h3.1l4.6-17.2v-2.7h-9.4v2.8H521.9z M513.7,567.9h-3.1v2.9h3.1V567.9z M508.3,570.8v-2.9
	h-5.9c0-0.1,0-0.2,0-0.4c0-0.4,0.1-0.9,0.3-1.3c0.2-0.5,0.5-0.9,0.9-1.4c0.4-0.4,0.8-0.9,1.2-1.4c0.4-0.5,0.9-1,1.3-1.5
	c0.4-0.6,0.8-1.1,1.2-1.7c0.4-0.6,0.7-1.3,0.9-2.1c0.2-0.8,0.3-1.6,0.3-2.5c0-1.6-0.4-2.8-1.2-3.7c-0.8-0.9-1.9-1.3-3.5-1.3
	c-1.5,0-2.7,0.4-3.5,1.3c-0.8,0.9-1.2,2.1-1.2,3.7v1.9h3v-2.1c0-1.3,0.5-2,1.6-2c0.5,0,0.9,0.2,1.2,0.5c0.3,0.3,0.4,0.9,0.4,1.8
	c0,0.8-0.1,1.5-0.3,2.2c-0.2,0.7-0.5,1.3-0.9,1.8c-0.4,0.5-0.8,1-1.2,1.5c-0.4,0.5-0.9,1-1.3,1.5c-0.4,0.5-0.8,1-1.2,1.5
	c-0.4,0.5-0.7,1.1-0.9,1.8c-0.2,0.7-0.3,1.4-0.3,2.2v2.4H508.3z M492.3,555.5v15.2h3.1v-19.9h-2.1c-0.1,0.3-0.2,0.6-0.3,0.8
	c-0.1,0.2-0.2,0.4-0.4,0.7c-0.2,0.2-0.4,0.4-0.6,0.6c-0.2,0.1-0.5,0.2-0.9,0.3c-0.4,0.1-0.8,0.1-1.2,0.1v2.2H492.3z"/>
<path class="st1" d="M577.5,520.2l1.5,10h-3L577.5,520.2z M575,536.6l0.5-3.6h3.8l0.5,3.6h3.1l-3.2-19.9h-4.8l-3.2,19.9H575z
	 M564.9,519.5v17.1h3.1v-17.1h3.3v-2.8h-9.7v2.8H564.9z M555.8,520.2l1.5,10h-3L555.8,520.2z M553.3,536.6l0.5-3.6h3.8l0.5,3.6h3.1
	l-3.2-19.9h-4.8l-3.2,19.9H553.3z M542,536.6V528h3.6v8.5h3.1v-19.9h-3.1v8.6H542v-8.6h-3.1v19.9H542z M526.1,536.6v-14.1l2.3,14.1
	h3l2.2-14.3v14.3h3.1v-19.9h-4.5l-2.1,14.2l-2.3-14.2h-4.3v19.9H526.1z M515,521.2c0-1.3,0.5-2,1.6-2c1.1,0,1.6,0.7,1.6,2V532
	c0,1.3-0.5,2-1.6,2c-1.1,0-1.6-0.7-1.6-2V521.2z M513.1,535.5c0.8,0.9,2,1.3,3.5,1.3c1.5,0,2.7-0.4,3.5-1.3c0.8-0.9,1.2-2.1,1.2-3.7
	v-10.4c0-1.6-0.4-2.8-1.2-3.7c-0.8-0.9-2-1.3-3.5-1.3c-1.5,0-2.7,0.4-3.5,1.3c-0.8,0.9-1.2,2.1-1.2,3.7v10.4
	C511.9,533.4,512.3,534.6,513.1,535.5 M503.5,536.6v-6.1l1-1.8l3,7.9h3.2l-4.4-11.1l4.4-8.9h-3.1l-4.1,8.7v-8.7h-3.1v19.9H503.5z
	 M487.5,521.5c0-0.7,0.1-1.2,0.4-1.6c0.3-0.3,0.7-0.5,1.2-0.5h1.5v6.1h-1.2c-0.6,0-1.1-0.2-1.4-0.5c-0.3-0.3-0.5-0.9-0.5-1.6V521.5z
	 M487.2,536.6c0.1-0.2,0.1-0.4,0.2-0.5c0-0.1,0.1-0.3,0.1-0.7c0-0.3,0-0.7,0-1.3V531c0-0.9,0.2-1.6,0.5-2c0.3-0.4,0.8-0.6,1.6-0.6
	h1.1v8.1h3.1v-19.9H489c-1.6,0-2.8,0.4-3.5,1.1c-0.7,0.8-1.1,1.9-1.1,3.5v1.6c0,2.1,0.7,3.4,2,4c-0.7,0.3-1.3,0.8-1.6,1.5
	c-0.3,0.7-0.5,1.6-0.5,2.7v3.1c0,1.1-0.1,1.9-0.3,2.4H487.2z M477.7,520.2l1.5,10h-3L477.7,520.2z M475.3,536.6l0.5-3.6h3.8l0.5,3.6
	h3.1l-3.2-19.9h-4.8l-3.2,19.9H475.3z M459.8,536.6c1.6,0,2.7-0.4,3.4-1.2c0.7-0.8,1.1-2.1,1.1-3.9l0.3-12.1h2.7v17.1h3.1v-19.9h-9
	l-0.3,15.1c0,0.5-0.1,0.8-0.1,1.1c-0.1,0.3-0.2,0.5-0.3,0.6c-0.2,0.1-0.3,0.2-0.6,0.3c-0.2,0-0.5,0.1-0.9,0.1v2.8H459.8z
	 M451.2,536.6l2.6-9.1l1.3-4.9v14h3.1v-19.9h-3.8l-2.6,8.2l-1.1,4.4v-12.6H448v19.9H451.2z M433,536.6l2.9-8.9l0.8,1.5v7.3h3.1v-7.3
	l0.8-1.5l2.8,8.8h3.1l-3.8-11.8l3.8-8.1h-3l-3.7,8.1v-8.1h-3.1v8.1l-3.7-8.1h-3l3.9,8.2l-3.9,11.8H433z"/>
<line class="st2" x1="100.9" y1="258.8" x2="263" y2="258.8"/>
<rect x="101.3" y="273.7" class="st1" width="12.2" height="549.4"/>
<rect x="101.3" y="273.7" class="st2" width="12.2" height="549.4"/>
<rect x="111.4" y="813.9" class="st2" width="256.7" height="9"/>
<polygon class="st2" points="377.4,813.9 377.4,822.9 634.1,785.1 634.1,776.1 "/>
<rect x="238.7" y="363.1" class="st1" width="8.2" height="68.1"/>
<rect x="238.7" y="363.1" class="st2" width="8.2" height="68.1"/>
<rect x="238.7" y="273.7" class="st1" width="8.2" height="45.4"/>
<rect x="238.7" y="273.7" class="st2" width="8.2" height="45.4"/>
<rect x="106.7" y="408.5" class="st1" width="134.2" height="7.3"/>
<rect x="106.7" y="408.5" class="st2" width="134.2" height="7.3"/>
<path class="st2" d="M238.5,305.5l29.2,51.2c0,0-4.1,2.7-13,5c-8.9,2.3-15.1,2.3-15.1,2.3"/>
<path class="st2" d="M238.5,481.9l24.9-43.9c0,0-3.5-2.3-11.1-4.3c-7.6-2-12.9-2-12.9-2"/>
<path class="st1" d="M189.5,447.3c0-7.6-6.2-13.7-13.7-13.7h-19.9c-1.3,0-2.4,1.1-2.4,2.4v22.7c0,1.3,1.1,2.4,2.4,2.4h19.9
	C183.3,461,189.5,454.8,189.5,447.3 M152.5,458.6v-22.7c0-1.8,1.5-3.3,3.3-3.3h19.9c8.1,0,14.7,6.6,14.7,14.7
	c0,8.1-6.6,14.7-14.7,14.7h-19.9C154,462,152.5,460.5,152.5,458.6"/>
<path class="st2" d="M189.5,447.3c0-7.6-6.2-13.7-13.7-13.7h-19.9c-1.3,0-2.4,1.1-2.4,2.4v22.7c0,1.3,1.1,2.4,2.4,2.4h19.9
	C183.3,461,189.5,454.8,189.5,447.3z M152.5,458.6v-22.7c0-1.8,1.5-3.3,3.3-3.3h19.9c8.1,0,14.7,6.6,14.7,14.7
	c0,8.1-6.6,14.7-14.7,14.7h-19.9C154,462,152.5,460.5,152.5,458.6z"/>
<path class="st2" d="M160.1,437.4v19.7c0,0.1,0.1,0.2,0.2,0.2h15c5.5,0,10.1-4.5,10.1-10.1c0-5.5-4.5-10.1-10.1-10.1h-15
	C160.2,437.2,160.1,437.3,160.1,437.4z"/>
<path class="st1" d="M160.6,437.7v19.2h14.8c5.3,0,9.6-4.3,9.6-9.6c0-5.3-4.3-9.6-9.6-9.6H160.6z M159.7,457.1v-19.7
	c0-0.4,0.3-0.7,0.7-0.7h15c5.8,0,10.6,4.7,10.6,10.6c0,5.8-4.7,10.6-10.6,10.6h-15C160,457.8,159.7,457.5,159.7,457.1"/>
<path class="st2" d="M160.6,437.7v19.2h14.8c5.3,0,9.6-4.3,9.6-9.6c0-5.3-4.3-9.6-9.6-9.6H160.6z M159.7,457.1v-19.7
	c0-0.4,0.3-0.7,0.7-0.7h15c5.8,0,10.6,4.7,10.6,10.6c0,5.8-4.7,10.6-10.6,10.6h-15C160,457.8,159.7,457.5,159.7,457.1z"/>
<path class="st1" d="M175.4,447.3c0-1.4-1.2-2.6-2.6-2.6c-1.4,0-2.6,1.2-2.6,2.6c0,1.4,1.2,2.6,2.6,2.6
	C174.2,449.9,175.4,448.7,175.4,447.3 M169.2,447.3c0-2,1.6-3.5,3.5-3.5s3.5,1.6,3.5,3.5c0,2-1.6,3.5-3.5,3.5
	S169.2,449.2,169.2,447.3"/>
<path class="st2" d="M175.4,447.3c0-1.4-1.2-2.6-2.6-2.6c-1.4,0-2.6,1.2-2.6,2.6c0,1.4,1.2,2.6,2.6,2.6
	C174.2,449.9,175.4,448.7,175.4,447.3z M169.2,447.3c0-2,1.6-3.5,3.5-3.5s3.5,1.6,3.5,3.5c0,2-1.6,3.5-3.5,3.5
	S169.2,449.2,169.2,447.3z"/>
<rect x="165" y="437.6" transform="matrix(0.5975 -0.8019 0.8019 0.5975 -287.4899 310.4359)" class="st1" width="0.9" height="7.9"/>
<rect x="165" y="437.6" transform="matrix(0.5975 -0.8019 0.8019 0.5975 -287.4899 310.4359)" class="st2" width="0.9" height="7.9"/>
<polygon class="st1" points="162,454.8 168.3,450.1 168.9,450.8 162.6,455.5 "/>
<polygon class="st2" points="162,454.8 168.3,450.1 168.9,450.8 162.6,455.5 "/>
<path class="st1" d="M152.5,437.8c0-2.1-1.7-3.8-3.8-3.8h-5.2c-2.1,0-3.8,1.7-3.8,3.8v19c0,2.1,1.7,3.8,3.8,3.8h5.2
	c2.1,0,3.8-1.7,3.8-3.8V437.8z M138.8,456.8v-19c0-2.6,2.1-4.7,4.8-4.7h5.2c2.6,0,4.8,2.1,4.8,4.7v19c0,2.6-2.1,4.8-4.8,4.8h-5.2
	C140.9,461.5,138.8,459.4,138.8,456.8"/>
<path class="st2" d="M152.5,437.8c0-2.1-1.7-3.8-3.8-3.8h-5.2c-2.1,0-3.8,1.7-3.8,3.8v19c0,2.1,1.7,3.8,3.8,3.8h5.2
	c2.1,0,3.8-1.7,3.8-3.8V437.8z M138.8,456.8v-19c0-2.6,2.1-4.7,4.8-4.7h5.2c2.6,0,4.8,2.1,4.8,4.7v19c0,2.6-2.1,4.8-4.8,4.8h-5.2
	C140.9,461.5,138.8,459.4,138.8,456.8z"/>
<path class="st1" d="M147.6,447.3c0-0.8-0.7-1.5-1.5-1.5c-0.8,0-1.5,0.7-1.5,1.5c0,0.8,0.7,1.5,1.5,1.5
	C146.9,448.7,147.6,448.1,147.6,447.3 M143.7,447.3c0-1.3,1.1-2.4,2.4-2.4c1.3,0,2.4,1.1,2.4,2.4c0,1.3-1.1,2.4-2.4,2.4
	C144.8,449.7,143.7,448.6,143.7,447.3"/>
<path class="st2" d="M147.6,447.3c0-0.8-0.7-1.5-1.5-1.5c-0.8,0-1.5,0.7-1.5,1.5c0,0.8,0.7,1.5,1.5,1.5
	C146.9,448.7,147.6,448.1,147.6,447.3z M143.7,447.3c0-1.3,1.1-2.4,2.4-2.4c1.3,0,2.4,1.1,2.4,2.4c0,1.3-1.1,2.4-2.4,2.4
	C144.8,449.7,143.7,448.6,143.7,447.3z"/>
<path class="st1" d="M194.6,377c7.4,0,13.4,6,13.4,13.5v14.3c0,1.1-0.9,2-2,2h-30.4c-1.1,0-2-0.9-2-2v-14.3c0-7.4,6-13.5,13.4-13.5
	H194.6z M175.6,407.5H206c1.5,0,2.8-1.3,2.8-2.8v-14.3c0-7.8-6.4-14.2-14.2-14.2H187c-7.8,0-14.2,6.4-14.2,14.2v14.3
	C172.8,406.2,174,407.5,175.6,407.5"/>
<path class="st2" d="M194.6,377c7.4,0,13.4,6,13.4,13.5v14.3c0,1.1-0.9,2-2,2h-30.4c-1.1,0-2-0.9-2-2v-14.3c0-7.4,6-13.5,13.4-13.5
	H194.6z M175.6,407.5H206c1.5,0,2.8-1.3,2.8-2.8v-14.3c0-7.8-6.4-14.2-14.2-14.2H187c-7.8,0-14.2,6.4-14.2,14.2v14.3
	C172.8,406.2,174,407.5,175.6,407.5z"/>
<path class="st1" d="M194.6,380.3c5.6,0,10.1,4.5,10.1,10.1v8.3c0,1-0.8,1.8-1.8,1.8h-24.2c-1,0-1.8-0.8-1.8-1.8v-8.3
	c0-5.6,4.5-10.1,10.1-10.1H194.6z M178.7,401.3h24.2c1.4,0,2.5-1.1,2.5-2.5v-8.3c0-6-4.9-10.9-10.8-10.9H187
	c-6,0-10.8,4.9-10.8,10.9v8.3C176.1,400.1,177.3,401.3,178.7,401.3"/>
<path class="st2" d="M194.6,380.3c5.6,0,10.1,4.5,10.1,10.1v8.3c0,1-0.8,1.8-1.8,1.8h-24.2c-1,0-1.8-0.8-1.8-1.8v-8.3
	c0-5.6,4.5-10.1,10.1-10.1H194.6z M178.7,401.3h24.2c1.4,0,2.5-1.1,2.5-2.5v-8.3c0-6-4.9-10.9-10.8-10.9H187
	c-6,0-10.8,4.9-10.8,10.9v8.3C176.1,400.1,177.3,401.3,178.7,401.3z"/>
<path class="st1" d="M190.8,387.4c0.9,0,1.7,0.8,1.7,1.7c0,0.9-0.8,1.7-1.7,1.7c-0.9,0-1.7-0.8-1.7-1.7
	C189.1,388.1,189.8,387.4,190.8,387.4 M190.8,391.5c1.4,0,2.5-1.1,2.5-2.5c0-1.4-1.1-2.5-2.5-2.5c-1.4,0-2.5,1.1-2.5,2.5
	C188.3,390.4,189.4,391.5,190.8,391.5"/>
<path class="st2" d="M190.8,387.4c0.9,0,1.7,0.8,1.7,1.7c0,0.9-0.8,1.7-1.7,1.7c-0.9,0-1.7-0.8-1.7-1.7
	C189.1,388.1,189.8,387.4,190.8,387.4z M190.8,391.5c1.4,0,2.5-1.1,2.5-2.5c0-1.4-1.1-2.5-2.5-2.5c-1.4,0-2.5,1.1-2.5,2.5
	C188.3,390.4,189.4,391.5,190.8,391.5z"/>
<rect x="170.5" y="277.5" class="st2" width="44.3" height="46.5"/>
<line class="st2" x1="214.9" y1="323.3" x2="170.7" y2="277.7"/>
<line class="st2" x1="214.9" y1="277.1" x2="170.7" y2="322.8"/>
<path class="st2" d="M141,384.3c-1,0-1.9-0.9-1.9-1.9s0.8-1.9,1.9-1.9c1,0,1.9,0.9,1.9,1.9S142,384.3,141,384.3z"/>
<path class="st2" d="M150.9,282.7c6.9,0,12.5,5.6,12.5,12.5v94.7c0,6.9-5.6,12.5-12.5,12.5h-19.8c-6.9,0-12.5-5.6-12.5-12.5v-94.7
	c0-6.9,5.6-12.5,12.5-12.5H150.9z"/>
<path class="st2" d="M146.7,291c6.9,0,12.5,5.6,12.5,12.5v78.1c0,6.9-5.6,12.5-12.5,12.5h-11.5c-6.9,0-12.5-5.6-12.5-12.5v-78.1
	c0-6.9,5.6-12.5,12.5-12.5H146.7z"/>
<path class="st2" d="M148.9,301c3.5,0,6.3,2.8,6.3,6.3v76c0,3.5-2.8,6.3-6.3,6.3H133c-3.5,0-6.3-2.8-6.3-6.3v-76
	c0-3.5,2.8-6.3,6.3-6.3H148.9z"/>
<polygon class="st2" points="114.8,407.1 114.8,407.1 114.8,278 167.1,278 167.1,407.1 "/>
<path class="st1" d="M115.3,487.4h43.6v44h-43.6V487.4z M114.4,532.3h45.6v-45.9h-45.6V532.3z"/>
<path class="st2" d="M115.3,487.4h43.6v44h-43.6V487.4z M114.4,532.3h45.6v-45.9h-45.6V532.3z"/>
<path class="st1" d="M155,524.8c0,1.1-0.9,2-2,2h-22.9c-1.1,0-2-0.9-2-2v-30.8c0-1.1,0.9-2,2-2H153c1.1,0,2,0.9,2,2V524.8z
	 M127.2,493.9v30.8c0,1.6,1.3,2.9,2.9,2.9H153c1.6,0,2.9-1.3,2.9-2.9v-30.8c0-1.6-1.3-2.9-2.9-2.9h-22.9
	C128.5,491,127.2,492.3,127.2,493.9"/>
<path class="st2" d="M155,524.8c0,1.1-0.9,2-2,2h-22.9c-1.1,0-2-0.9-2-2v-30.8c0-1.1,0.9-2,2-2H153c1.1,0,2,0.9,2,2V524.8z
	 M127.2,493.9v30.8c0,1.6,1.3,2.9,2.9,2.9H153c1.6,0,2.9-1.3,2.9-2.9v-30.8c0-1.6-1.3-2.9-2.9-2.9h-22.9
	C128.5,491,127.2,492.3,127.2,493.9z"/>
<path class="st1" d="M131.5,495.4h20.1v27.9h-20.1V495.4z M130.5,524.3h22v-29.9h-22V524.3z"/>
<path class="st2" d="M131.5,495.4h20.1v27.9h-20.1V495.4z M130.5,524.3h22v-29.9h-22V524.3z"/>
<path class="st1" d="M145.4,509.4c0,1.4-1.1,2.6-2.5,2.6c-1.4,0-2.5-1.1-2.5-2.6c0-1.4,1.1-2.6,2.5-2.6
	C144.3,506.8,145.4,507.9,145.4,509.4 M139.4,509.4c0,2,1.6,3.5,3.5,3.5c1.9,0,3.5-1.6,3.5-3.5c0-2-1.6-3.5-3.5-3.5
	C141,505.8,139.4,507.4,139.4,509.4"/>
<path class="st2" d="M145.4,509.4c0,1.4-1.1,2.6-2.5,2.6c-1.4,0-2.5-1.1-2.5-2.6c0-1.4,1.1-2.6,2.5-2.6
	C144.3,506.8,145.4,507.9,145.4,509.4z M139.4,509.4c0,2,1.6,3.5,3.5,3.5c1.9,0,3.5-1.6,3.5-3.5c0-2-1.6-3.5-3.5-3.5
	C141,505.8,139.4,507.4,139.4,509.4z"/>
<rect x="442.6" y="404.9" class="st1" width="195.9" height="8.6"/>
<rect x="442.6" y="404.9" class="st2" width="195.9" height="8.6"/>
<path class="st1" d="M784.7,567c0-1.3,0.5-2,1.6-2c1.1,0,1.6,0.7,1.6,2v10.8c0,1.3-0.5,2-1.6,2c-1.1,0-1.6-0.7-1.6-2V567z
	 M782.8,581.3c0.8,0.9,2,1.3,3.5,1.3c1.5,0,2.7-0.4,3.5-1.3c0.8-0.9,1.2-2.1,1.2-3.7v-10.4c0-1.6-0.4-2.8-1.2-3.7
	c-0.8-0.9-2-1.3-3.5-1.3c-1.5,0-2.7,0.4-3.5,1.3c-0.8,0.9-1.2,2.1-1.2,3.7v10.4C781.6,579.2,782,580.4,782.8,581.3 M779.7,579.5
	h-3.1v2.9h3.1V579.5z M768.1,567c0-1.3,0.5-1.9,1.6-1.9c1.1,0,1.6,0.6,1.6,1.9v3.6c0,1.3-0.5,2-1.6,2c-1.1,0-1.6-0.7-1.6-2V567z
	 M765.9,574.2c0.6,0.8,1.4,1.2,2.6,1.2c1.4,0,2.4-0.6,2.9-1.8v3.6c0,0.9-0.1,1.5-0.4,1.9c-0.3,0.4-0.7,0.5-1.3,0.5
	c-1.1,0-1.6-0.7-1.6-2v-0.7H765v0.5c0,1.6,0.4,2.8,1.2,3.7c0.8,0.9,2,1.3,3.5,1.3c3.2,0,4.8-1.7,4.8-5.2v-10.2
	c0-1.6-0.4-2.8-1.2-3.7c-0.8-0.9-2-1.3-3.5-1.3c-1.5,0-2.7,0.4-3.5,1.3c-0.8,0.9-1.2,2.1-1.2,3.7v3.7
	C765,572.3,765.3,573.4,765.9,574.2 M758.4,567.1v15.2h3.1v-19.9h-2.1c-0.1,0.3-0.2,0.6-0.3,0.8c-0.1,0.2-0.2,0.4-0.4,0.7
	c-0.2,0.2-0.4,0.4-0.6,0.6c-0.2,0.1-0.5,0.2-0.9,0.3c-0.4,0.1-0.8,0.1-1.2,0.1v2.2H758.4z"/>
<path class="st1" d="M843.5,531.8l1.5,10h-3L843.5,531.8z M841.1,548.2l0.5-3.6h3.8l0.5,3.6h3.1l-3.2-19.9h-4.8l-3.2,19.9H841.1z
	 M831,531.1v17.1h3.1v-17.1h3.3v-2.8h-9.7v2.8H831z M821.8,531.8l1.5,10h-3L821.8,531.8z M819.3,548.2l0.5-3.6h3.8l0.5,3.6h3.1
	l-3.2-19.9h-4.8l-3.2,19.9H819.3z M808,548.2v-8.5h3.6v8.5h3.1v-19.9h-3.1v8.6H808v-8.6h-3.1v19.9H808z M792.2,548.2v-14.1l2.3,14.1
	h3l2.2-14.3v14.3h3.1v-19.9h-4.5l-2.1,14.2l-2.3-14.2h-4.3v19.9H792.2z M781.1,532.8c0-1.3,0.5-2,1.6-2c1.1,0,1.6,0.7,1.6,2v10.8
	c0,1.3-0.5,2-1.6,2c-1.1,0-1.6-0.7-1.6-2V532.8z M779.2,547.1c0.8,0.9,2,1.3,3.5,1.3c1.5,0,2.7-0.4,3.5-1.3c0.8-0.9,1.2-2.1,1.2-3.7
	V533c0-1.6-0.4-2.8-1.2-3.7c-0.8-0.9-2-1.3-3.5-1.3c-1.5,0-2.7,0.4-3.5,1.3c-0.8,0.9-1.2,2.1-1.2,3.7v10.4
	C777.9,545,778.3,546.2,779.2,547.1 M769.5,548.2v-6.1l1-1.8l3,7.9h3.2l-4.4-11.1l4.4-8.9h-3.1l-4.1,8.7v-8.7h-3.1v19.9H769.5z
	 M753.5,533.1c0-0.7,0.1-1.2,0.4-1.6c0.3-0.3,0.7-0.5,1.2-0.5h1.5v6.1h-1.2c-0.6,0-1.1-0.2-1.4-0.5c-0.3-0.3-0.5-0.9-0.5-1.6V533.1z
	 M753.2,548.2c0.1-0.2,0.1-0.4,0.2-0.5c0-0.1,0.1-0.3,0.1-0.7c0-0.3,0-0.7,0-1.3v-3.1c0-0.9,0.2-1.6,0.5-2c0.3-0.4,0.8-0.6,1.6-0.6
	h1.1v8.1h3.1v-19.9H755c-1.6,0-2.8,0.4-3.5,1.1c-0.7,0.8-1.1,1.9-1.1,3.5v1.6c0,2.1,0.7,3.4,2,4c-0.7,0.3-1.3,0.8-1.6,1.5
	c-0.3,0.7-0.5,1.6-0.5,2.7v3.1c0,1.1-0.1,1.9-0.3,2.4H753.2z M743.7,531.8l1.5,10h-3L743.7,531.8z M741.3,548.2l0.5-3.6h3.8l0.5,3.6
	h3.1l-3.2-19.9h-4.8l-3.2,19.9H741.3z M725.8,548.2c1.6,0,2.7-0.4,3.4-1.2c0.7-0.8,1.1-2.1,1.1-3.9l0.3-12.1h2.7v17.1h3.1v-19.9h-9
	l-0.3,15.1c0,0.5-0.1,0.8-0.1,1.1c-0.1,0.3-0.2,0.5-0.3,0.6c-0.2,0.1-0.3,0.2-0.6,0.3c-0.2,0-0.5,0.1-0.9,0.1v2.8H725.8z
	 M717.2,548.2l2.6-9.1l1.3-4.9v14h3.1v-19.9h-3.8l-2.6,8.2l-1.1,4.4v-12.6H714v19.9H717.2z M699,548.2l2.9-8.9l0.8,1.5v7.3h3.1v-7.3
	l0.8-1.5l2.8,8.8h3.1l-3.8-11.8l3.8-8.1h-3l-3.7,8.1v-8.1h-3.1v8.1l-3.7-8.1h-3l3.9,8.2l-3.9,11.8H699z"/>
<path class="st1" d="M803.9,476.9v34.8h7.2v-45.6h-4.8c-0.3,0.7-0.5,1.3-0.7,1.8c-0.2,0.5-0.5,1-0.9,1.5c-0.4,0.6-0.9,1-1.4,1.3
	c-0.5,0.3-1.2,0.6-2,0.8c-0.8,0.2-1.8,0.3-2.8,0.3v5.1H803.9z M789,505.1h-7.2v6.6h7.2V505.1z M762.7,476.6c0-3,1.2-4.5,3.7-4.5
	c2.5,0,3.7,1.5,3.7,4.5v24.6c0,3-1.2,4.5-3.7,4.5c-2.5,0-3.7-1.5-3.7-4.5V476.6z M758.3,509.2c1.9,2,4.6,3,8.1,3c3.5,0,6.2-1,8.1-3
	c1.9-2,2.8-4.8,2.8-8.5V477c0-3.6-0.9-6.5-2.8-8.5c-1.9-2-4.5-3-8.1-3c-3.5,0-6.2,1-8.1,3c-1.9,2-2.8,4.8-2.8,8.5v23.7
	C755.5,504.4,756.5,507.2,758.3,509.2 M737.1,493c0-3,1.2-4.5,3.7-4.5c2.5,0,3.7,1.5,3.7,4.5v8.2c0,3-1.2,4.4-3.7,4.4
	c-2.5,0-3.7-1.5-3.7-4.4V493z M732.7,509.2c1.9,2,4.6,3,8.1,3c3.5,0,6.2-1,8-3c1.9-2,2.8-4.8,2.8-8.5v-8.3c0-3.4-0.7-6-2-7.8
	c-1.3-1.8-3.3-2.7-5.9-2.7c-3.2,0-5.4,1.3-6.6,4v-8.3c0-2.1,0.3-3.5,1-4.4c0.6-0.8,1.6-1.2,3-1.2c2.5,0,3.7,1.5,3.7,4.5v1.6h6.7V477
	c0-3.7-0.9-6.5-2.7-8.5c-1.8-2-4.5-3-7.9-3c-7.3,0-10.9,4-10.9,11.9v23.3C729.9,504.4,730.8,507.2,732.7,509.2"/>
<ellipse transform="matrix(0.3827 -0.9239 0.9239 0.3827 95.3873 968.523)" class="st2" cx="772.4" cy="412.9" rx="39.9" ry="39.9"/>
<path class="st1" d="M780.1,431.4v-10.6l1.7-3.2l5.3,13.7h5.6l-7.5-19.1l7.5-15.4h-5.4l-7.1,15v-15h-5.4v34.5H780.1z M770.8,431.4
	v-4.9h-10.2c0-0.2,0-0.4,0-0.7c0-0.8,0.2-1.5,0.6-2.3c0.4-0.8,0.9-1.6,1.5-2.3c0.6-0.8,1.3-1.5,2.1-2.4c0.8-0.8,1.5-1.7,2.3-2.7
	c0.8-1,1.5-2,2.1-3c0.6-1,1.1-2.2,1.5-3.6c0.4-1.4,0.6-2.8,0.6-4.2c0-2.8-0.7-4.9-2.1-6.4c-1.4-1.5-3.4-2.2-6-2.2
	c-2.6,0-4.6,0.7-6,2.2c-1.4,1.5-2.1,3.6-2.1,6.4v3.4h5.2v-3.7c0-2.3,0.9-3.4,2.8-3.4c0.9,0,1.6,0.3,2.1,0.9c0.5,0.6,0.7,1.6,0.7,3.1
	c0,1.3-0.2,2.6-0.6,3.8c-0.4,1.2-0.9,2.2-1.5,3.1c-0.6,0.9-1.3,1.8-2.1,2.6c-0.8,0.9-1.5,1.7-2.3,2.6c-0.8,0.9-1.5,1.7-2.1,2.6
	c-0.6,0.9-1.2,2-1.5,3.2c-0.4,1.2-0.6,2.5-0.6,3.9v4.2H770.8z"/>
</svg>
