<?xml version="1.0" encoding="utf-8"?>
<!-- Generator: Adobe Illustrator 26.5.0, SVG Export Plug-In . SVG Version: 6.00 Build 0)  -->
<svg version="1.1" id="Слой_1" xmlns="http://www.w3.org/2000/svg" xmlns:xlink="http://www.w3.org/1999/xlink" x="0px" y="0px"
	 viewBox="0 0 1300 1300" style="enable-background:new 0 0 1300 1300;" xml:space="preserve">
<style type="text/css">
	.st0{fill:#F5C5CD;}
	.st1{fill:#373437;}
	.st2{fill:none;stroke:#373437;stroke-width:2;}
	.st3{fill:none;stroke:#373437;stroke-width:2;stroke-dasharray:1.957,1.957;}
</style>
<rect x="150.8" y="142.4" class="st0" width="1005.4" height="781"/>
<rect x="1143.6" y="106.6" class="st1" width="37.4" height="1107.9"/>
<rect x="1143.6" y="106.6" class="st2" width="31" height="1107.9"/>
<rect x="1022.8" y="925" class="st1" width="148.2" height="58.8"/>
<rect x="1022.8" y="925" class="st2" width="136.1" height="58.8"/>
<rect x="545.4" y="925" class="st1" width="237.8" height="58.8"/>
<rect x="545.4" y="925" class="st2" width="237.8" height="58.8"/>
<rect x="135.9" y="925" class="st1" width="109.2" height="58.8"/>
<rect x="135.9" y="925" class="st2" width="109.2" height="58.8"/>
<rect x="1009.7" y="971.8" class="st1" width="149.2" height="12.1"/>
<rect x="1009.7" y="971.8" class="st2" width="149.2" height="12.1"/>
<rect x="532.7" y="971.8" class="st1" width="263.2" height="12.1"/>
<rect x="532.7" y="971.8" class="st2" width="263.2" height="12.1"/>
<rect x="661.5" y="971.8" class="st2" width="263.2" height="12.1"/>
<rect x="183.3" y="971.8" class="st2" width="263.2" height="12.1"/>
<rect x="128.7" y="971.8" class="st1" width="123.6" height="12.1"/>
<rect x="128.7" y="971.8" class="st2" width="123.6" height="12.1"/>
<rect x="633.5" y="765.1" class="st1" width="24.8" height="179.7"/>
<rect x="633.5" y="765.1" class="st2" width="24.8" height="179.7"/>
<rect x="633.5" y="106.6" class="st1" width="24.8" height="432"/>
<rect x="633.5" y="106.6" class="st2" width="24.8" height="432"/>
<rect x="633.5" y="1084.1" class="st1" width="24.8" height="129.8"/>
<rect x="633.5" y="1084.1" class="st2" width="24.8" height="129.8"/>
<rect x="1146.7" y="106.3" class="st1" width="24.2" height="456.1"/>
<rect x="1146.7" y="106.3" class="st2" width="24.2" height="456.1"/>
<rect x="656.5" y="445.1" class="st1" width="88.5" height="13.9"/>
<rect x="656.5" y="445.1" class="st2" width="88.5" height="13.9"/>
<rect x="858.3" y="445.1" class="st1" width="293.8" height="13.9"/>
<rect x="858.3" y="445.1" class="st2" width="293.8" height="13.9"/>
<rect x="1126.9" y="486.3" class="st1" width="27.7" height="15.9"/>
<rect x="1126.9" y="486.3" class="st2" width="27.7" height="15.9"/>
<rect x="121" y="99" class="st1" width="601.5" height="41"/>
<rect x="652.9" y="106.3" class="st2" width="69.6" height="33.7"/>
<rect x="121" y="116.2" class="st1" width="523.3" height="20.2"/>
<rect x="142.9" y="116.2" class="st2" width="501.5" height="23.8"/>
<rect x="858.3" y="106.3" class="st1" width="48.1" height="33.7"/>
<rect x="858.3" y="106.3" class="st2" width="48.1" height="33.7"/>
<rect x="858.1" y="99" class="st1" width="322.6" height="41"/>
<rect x="653.8" y="1199.2" class="st2" width="500.1" height="14.8"/>
<polygon class="st2" points="142.4,1126.4 142.4,1141.2 633.5,1214 633.5,1199.2 "/>
<rect x="120.8" y="133.9" class="st1" width="30.1" height="1007.3"/>
<rect x="120.8" y="99" class="st2" width="30.1" height="1042.2"/>
<rect x="647.5" y="925" class="st2" width="266.4" height="46.6"/>
<rect x="169.3" y="925" class="st2" width="266.4" height="46.6"/>
<path class="st2" d="M899.4,117.2l-156.8,90.9c0,0-8.2-12.9-15.2-40.6c-7-27.7-7-47-7-47"/>
<path class="st2" d="M882.3,448.4l-120.7,69.5c0,0-6.3-9.9-11.7-31.1c-5.4-21.2-5.4-35.9-5.4-35.9"/>
<path class="st2" d="M897.1,456.9l-52.4-92.1c0,0,7.5-4.8,23.4-8.9c16-4.1,27.1-4.1,27.1-4.1"/>
<path class="st2" d="M436.6,972.8c0,0,0-14.1,6.4-31.7c5.4-14.7,16-28.4,16-28.4l91,55.3l-2.2,3.5l-91.3-55.3"/>
<path class="st2" d="M915.8,972.8c0,0,0-14.1,6.4-31.7c5.4-14.7,16-28.4,16-28.4l91,55.3l-2.2,3.5l-91.3-55.3"/>
<rect x="883.9" y="139.5" class="st1" width="12.9" height="213.4"/>
<rect x="883.9" y="139.5" class="st2" width="12.9" height="213.4"/>
<line class="st3" x1="658.4" y1="530.7" x2="658.4" y2="791.3"/>
<rect x="1002.5" y="461.6" class="st2" width="121.2" height="40.6"/>
<line class="st2" x1="1002.7" y1="468" x2="1124.5" y2="468"/>
<polyline class="st2" points="1008.8,468 1011.5,497.2 1088.1,497.2 1091.5,468 1096.6,468 1099.9,497.5 1117.1,497.5 1120.8,468 
	"/>
<rect x="877.6" y="461.6" class="st2" width="125.2" height="40.6"/>
<line class="st2" x1="877.8" y1="468" x2="1003.5" y2="468"/>
<polyline class="st2" points="884.1,468 886.8,497.2 966,497.2 969.5,468 974.7,468 978.2,497.5 995.9,497.5 999.7,468 "/>
<rect x="1062.6" y="541.4" class="st2" width="81" height="84.6"/>
<path class="st2" d="M1069.1,615.1c0,2,1.6,3.6,3.6,3.6h49.3c2,0,3.6-1.6,3.6-3.6v-62.7c0-2-1.6-3.6-3.6-3.6h-49.3
	c-2,0-3.6,1.6-3.6,3.6V615.1z"/>
<path class="st2" d="M1075,609.6c0,2,1.6,3.6,3.6,3.6h37.4c2,0,3.6-1.6,3.6-3.6v-51.7c0-2-1.6-3.6-3.6-3.6h-37.4
	c-2,0-3.6,1.6-3.6,3.6V609.6z"/>
<path class="st2" d="M1112.6,583.7c0-1.6-1.3-2.9-2.9-2.9c-1.6,0-2.9,1.3-2.9,2.9c0,1.6,1.3,2.9,2.9,2.9
	C1111.3,586.6,1112.6,585.3,1112.6,583.7z"/>
<path class="st2" d="M1137.3,583.7c0-1.6-1.3-2.9-2.9-2.9c-1.6,0-2.9,1.3-2.9,2.9c0,1.6,1.3,2.9,2.9,2.9
	C1136,586.6,1137.3,585.3,1137.3,583.7z"/>
<path class="st1" d="M1047.1,390.2c0,14.6,11.9,26.5,26.5,26.5h38.3c2.5,0,4.6-2,4.6-4.6v-43.8c0-2.5-2-4.6-4.6-4.6h-38.3
	C1058.9,363.7,1047.1,375.6,1047.1,390.2 M1118.3,368.3v43.8c0,3.5-2.9,6.4-6.4,6.4h-38.3c-15.6,0-28.3-12.7-28.3-28.3
	c0-15.6,12.7-28.3,28.3-28.3h38.3C1115.4,361.9,1118.3,364.7,1118.3,368.3"/>
<path class="st2" d="M1047.1,390.2c0,14.6,11.9,26.5,26.5,26.5h38.3c2.5,0,4.6-2,4.6-4.6v-43.8c0-2.5-2-4.6-4.6-4.6h-38.3
	C1058.9,363.7,1047.1,375.6,1047.1,390.2z M1118.3,368.3v43.8c0,3.5-2.9,6.4-6.4,6.4h-38.3c-15.6,0-28.3-12.7-28.3-28.3
	c0-15.6,12.7-28.3,28.3-28.3h38.3C1115.4,361.9,1118.3,364.7,1118.3,368.3z"/>
<path class="st2" d="M1103.7,409.2v-38c0-0.2-0.2-0.5-0.5-0.5h-28.9c-10.7,0-19.4,8.8-19.4,19.4c0,10.7,8.8,19.4,19.4,19.4h28.9
	C1103.4,409.6,1103.7,409.4,1103.7,409.2z"/>
<path class="st1" d="M1102.7,408.7v-37.1h-28.4c-10.2,0-18.5,8.3-18.5,18.5c0,10.2,8.3,18.5,18.5,18.5H1102.7z M1104.6,371.2v38
	c0,0.7-0.6,1.4-1.4,1.4h-28.9c-11.2,0-20.3-9.1-20.3-20.3c0-11.2,9.1-20.3,20.3-20.3h28.9C1103.9,369.8,1104.6,370.5,1104.6,371.2"
	/>
<path class="st2" d="M1102.7,408.7v-37.1h-28.4c-10.2,0-18.5,8.3-18.5,18.5c0,10.2,8.3,18.5,18.5,18.5H1102.7z M1104.6,371.2v38
	c0,0.7-0.6,1.4-1.4,1.4h-28.9c-11.2,0-20.3-9.1-20.3-20.3c0-11.2,9.1-20.3,20.3-20.3h28.9C1103.9,369.8,1104.6,370.5,1104.6,371.2z"
	/>
<path class="st1" d="M1074.3,390.2c0,2.8,2.2,5,5,5c2.8,0,5-2.2,5-5c0-2.8-2.2-5-5-5C1076.5,385.2,1074.3,387.4,1074.3,390.2
	 M1086.1,390.2c0,3.8-3.1,6.8-6.8,6.8c-3.8,0-6.8-3.1-6.8-6.8c0-3.8,3.1-6.8,6.8-6.8C1083,383.3,1086.1,386.4,1086.1,390.2"/>
<path class="st2" d="M1074.3,390.2c0,2.8,2.2,5,5,5c2.8,0,5-2.2,5-5c0-2.8-2.2-5-5-5C1076.5,385.2,1074.3,387.4,1074.3,390.2z
	 M1086.1,390.2c0,3.8-3.1,6.8-6.8,6.8c-3.8,0-6.8-3.1-6.8-6.8c0-3.8,3.1-6.8,6.8-6.8C1083,383.3,1086.1,386.4,1086.1,390.2z"/>
<rect x="1092.5" y="393.6" transform="matrix(0.5967 -0.8025 0.8025 0.5967 119.0709 1039.2015)" class="st1" width="1.8" height="15.2"/>
<rect x="1092.5" y="393.6" transform="matrix(0.5967 -0.8025 0.8025 0.5967 119.0709 1039.2015)" class="st2" width="1.8" height="15.2"/>
<rect x="1085.8" y="378.6" transform="matrix(0.8008 -0.599 0.599 0.8008 -9.4667 730.5298)" class="st1" width="15.2" height="1.8"/>
<rect x="1085.8" y="378.6" transform="matrix(0.8008 -0.599 0.599 0.8008 -9.4667 730.5298)" class="st2" width="15.2" height="1.8"/>
<path class="st1" d="M1118.4,408.4c0,4,3.3,7.3,7.3,7.3h10c4,0,7.3-3.3,7.3-7.3v-36.5c0-4-3.3-7.3-7.3-7.3h-10c-4,0-7.3,3.3-7.3,7.3
	V408.4z M1144.8,371.9v36.5c0,5-4.1,9.2-9.2,9.2h-10c-5,0-9.2-4.1-9.2-9.2v-36.5c0-5,4.1-9.2,9.2-9.2h10
	C1140.7,362.7,1144.8,366.8,1144.8,371.9"/>
<path class="st2" d="M1118.4,408.4c0,4,3.3,7.3,7.3,7.3h10c4,0,7.3-3.3,7.3-7.3v-36.5c0-4-3.3-7.3-7.3-7.3h-10c-4,0-7.3,3.3-7.3,7.3
	V408.4z M1144.8,371.9v36.5c0,5-4.1,9.2-9.2,9.2h-10c-5,0-9.2-4.1-9.2-9.2v-36.5c0-5,4.1-9.2,9.2-9.2h10
	C1140.7,362.7,1144.8,366.8,1144.8,371.9z"/>
<path class="st1" d="M1127.8,390.2c0,1.6,1.3,2.8,2.8,2.8c1.6,0,2.8-1.3,2.8-2.8c0-1.6-1.3-2.8-2.8-2.8
	C1129.1,387.3,1127.8,388.6,1127.8,390.2 M1135.3,390.2c0,2.6-2.1,4.7-4.7,4.7c-2.6,0-4.7-2.1-4.7-4.7c0-2.6,2.1-4.7,4.7-4.7
	C1133.3,385.5,1135.3,387.6,1135.3,390.2"/>
<path class="st2" d="M1127.8,390.2c0,1.6,1.3,2.8,2.8,2.8c1.6,0,2.8-1.3,2.8-2.8c0-1.6-1.3-2.8-2.8-2.8
	C1129.1,387.3,1127.8,388.6,1127.8,390.2z M1135.3,390.2c0,2.6-2.1,4.7-4.7,4.7c-2.6,0-4.7-2.1-4.7-4.7c0-2.6,2.1-4.7,4.7-4.7
	C1133.3,385.5,1135.3,387.6,1135.3,390.2z"/>
<rect x="905.2" y="247.2" class="st2" width="57.5" height="85.4"/>
<line class="st2" x1="905" y1="248.2" x2="962.4" y2="332.6"/>
<line class="st2" x1="905" y1="333.6" x2="962.4" y2="249.2"/>
<path class="st1" d="M1083.5,276c0-14.8,12.1-26.9,26.9-26.9h28.5c2.3,0,4.1,1.8,4.1,4.1v60.7c0,2.3-1.8,4.1-4.1,4.1h-28.5
	c-14.8,0-26.9-12.1-26.9-26.9V276z M1144.5,313.9v-60.7c0-3.1-2.5-5.6-5.6-5.6h-28.5c-15.7,0-28.4,12.7-28.4,28.4v15.2
	c0,15.7,12.7,28.4,28.4,28.4h28.5C1142,319.5,1144.5,317,1144.5,313.9"/>
<path class="st2" d="M1083.5,276c0-14.8,12.1-26.9,26.9-26.9h28.5c2.3,0,4.1,1.8,4.1,4.1v60.7c0,2.3-1.8,4.1-4.1,4.1h-28.5
	c-14.8,0-26.9-12.1-26.9-26.9V276z M1144.5,313.9v-60.7c0-3.1-2.5-5.6-5.6-5.6h-28.5c-15.7,0-28.4,12.7-28.4,28.4v15.2
	c0,15.7,12.7,28.4,28.4,28.4h28.5C1142,319.5,1144.5,317,1144.5,313.9z"/>
<path class="st1" d="M1090.2,276c0-11.1,9-20.1,20.2-20.1h16.6c1.9,0,3.5,1.6,3.5,3.5v48.4c0,1.9-1.6,3.5-3.5,3.5h-16.6
	c-11.1,0-20.2-9-20.2-20.1V276z M1132.1,307.8v-48.4c0-2.8-2.3-5-5-5h-16.6c-11.9,0-21.7,9.7-21.7,21.6v15.2
	c0,11.9,9.7,21.7,21.7,21.7h16.6C1129.8,312.8,1132.1,310.5,1132.1,307.8"/>
<path class="st2" d="M1090.2,276c0-11.1,9-20.1,20.2-20.1h16.6c1.9,0,3.5,1.6,3.5,3.5v48.4c0,1.9-1.6,3.5-3.5,3.5h-16.6
	c-11.1,0-20.2-9-20.2-20.1V276z M1132.1,307.8v-48.4c0-2.8-2.3-5-5-5h-16.6c-11.9,0-21.7,9.7-21.7,21.6v15.2
	c0,11.9,9.7,21.7,21.7,21.7h16.6C1129.8,312.8,1132.1,310.5,1132.1,307.8z"/>
<path class="st1" d="M1104.3,283.6c0-1.9,1.5-3.4,3.4-3.4c1.9,0,3.4,1.5,3.4,3.4c0,1.9-1.5,3.4-3.4,3.4
	C1105.9,286.9,1104.3,285.4,1104.3,283.6 M1112.6,283.6c0-2.7-2.2-4.9-4.9-4.9c-2.7,0-4.9,2.2-4.9,4.9c0,2.7,2.2,4.9,4.9,4.9
	C1110.4,288.4,1112.6,286.3,1112.6,283.6"/>
<path class="st2" d="M1104.3,283.6c0-1.9,1.5-3.4,3.4-3.4c1.9,0,3.4,1.5,3.4,3.4c0,1.9-1.5,3.4-3.4,3.4
	C1105.9,286.9,1104.3,285.4,1104.3,283.6z M1112.6,283.6c0-2.7-2.2-4.9-4.9-4.9c-2.7,0-4.9,2.2-4.9,4.9c0,2.7,2.2,4.9,4.9,4.9
	C1110.4,288.4,1112.6,286.3,1112.6,283.6z"/>
<path class="st2" d="M1100.5,195.3c0,1.9-1.5,3.4-3.5,3.4c-1.9,0-3.5-1.5-3.5-3.4c0-1.9,1.6-3.4,3.5-3.4
	C1099,191.9,1100.5,193.4,1100.5,195.3z"/>
<path class="st2" d="M909.3,177c0-14.8,12-26.8,26.8-26.8H1108c14.8,0,26.8,12,26.8,26.8v31.1c0,14.8-12,26.8-26.8,26.8H936.1
	c-14.8,0-26.8-12-26.8-26.8V177z"/>
<path class="st2" d="M925,184.9c0-14.8,12-26.8,26.8-26.8h140.5c14.8,0,26.8,12,26.8,26.8v15.3c0,14.8-12,26.8-26.8,26.8H951.8
	c-14.8,0-26.8-12-26.8-26.8V184.9z"/>
<path class="st2" d="M943.9,179.2c0-7.4,6-13.4,13.4-13.4H1097c7.4,0,13.4,6,13.4,13.4v26.8c0,7.4-6,13.4-13.4,13.4H957.3
	c-7.4,0-13.4-6-13.4-13.4V179.2z"/>
<polygon class="st2" points="1143.6,242 1143.6,242 900.5,242 900.5,143.1 1143.6,143.1 "/>
<path class="st1" d="M934.3,719.8l-9.8,36.6h6.7l9.9-36.8v-5.9H921v6.1H934.3z M916.8,750.3h-6.7v6.2h6.7V750.3z M892.1,723.6
	c0-2.8,1.2-4.2,3.5-4.2c2.3,0,3.5,1.4,3.5,4.2v23c0,2.8-1.2,4.2-3.5,4.2c-2.3,0-3.5-1.4-3.5-4.2V723.6z M888,754.1
	c1.8,1.9,4.3,2.8,7.6,2.8c3.3,0,5.8-0.9,7.5-2.8c1.8-1.9,2.6-4.5,2.6-7.9V724c0-3.4-0.9-6.1-2.6-7.9c-1.8-1.9-4.3-2.8-7.5-2.8
	c-3.3,0-5.8,0.9-7.6,2.8c-1.8,1.9-2.6,4.5-2.6,7.9v22.2C885.4,749.6,886.2,752.2,888,754.1 M871.1,723.9v32.6h6.7v-42.7h-4.5
	c-0.3,0.7-0.5,1.3-0.7,1.7c-0.2,0.4-0.5,0.9-0.9,1.4c-0.4,0.5-0.8,0.9-1.3,1.2c-0.5,0.3-1.1,0.5-1.9,0.7c-0.8,0.2-1.7,0.3-2.7,0.3
	v4.7H871.1z"/>
<path class="st1" d="M1017.4,648.2l3.2,21.5h-6.5L1017.4,648.2z M1012.1,683.3l1.2-7.7h8.2l1.2,7.7h6.7l-6.8-42.7h-10.3l-6.8,42.7
	H1012.1z M1002.3,683.3v-42.7h-6.7v36.6h-5.8v-36.6h-6.7v36.6h-5.8v-36.6h-6.7v42.7H1002.3z M951.5,683.3l5.7-19.5l2.7-10.5v30h6.7
	v-42.7h-8l-5.5,17.6l-2.4,9.4v-27h-6v42.7H951.5z M925.3,683.3V665h7.6v18.3h6.7v-42.7h-6.7v18.3h-7.6v-18.3h-6.7v42.7H925.3z
	 M914,658.9h-12.2v6.1H914V658.9z M883.9,651.1c0-1.5,0.3-2.6,0.8-3.3c0.5-0.7,1.4-1.1,2.6-1.1h3.2v13.1h-2.6c-1.3,0-2.3-0.3-3-1
	c-0.7-0.7-1-1.9-1-3.5V651.1z M883.2,683.3c0.2-0.5,0.3-0.9,0.3-1.1c0.1-0.2,0.1-0.7,0.2-1.4c0.1-0.7,0.1-1.6,0.1-2.7v-6.7
	c0-2,0.3-3.4,1-4.2c0.7-0.8,1.8-1.3,3.3-1.3h2.3v17.4h6.7v-42.7h-10.1c-3.4,0-5.9,0.8-7.5,2.4c-1.6,1.6-2.4,4.1-2.4,7.4v3.4
	c0,4.4,1.5,7.3,4.4,8.7c-1.6,0.7-2.7,1.8-3.4,3.3c-0.7,1.5-1,3.4-1,5.8v6.6c0,2.3-0.2,4-0.6,5.2H883.2z M858.3,683.3V665h7.6v18.3
	h6.7v-42.7h-6.7v18.3h-7.6v-18.3h-6.7v42.7H858.3z M830.6,683.3l5.2-15.9l5.1,15.9h6.7l-7.5-21.8l7-20.9h-5.9l-5.2,15.8l-5.1-15.8
	h-6.7l7,20.7l-7.5,22H830.6z M807.9,673.4l-0.1,0.4c-0.3,1.5-0.9,2.4-1.8,2.9c-0.9,0.5-2.3,0.7-4.1,0.5v6.1c1.8,0.1,3.4,0.1,4.7-0.2
	c1.4-0.3,2.5-0.6,3.4-1.2c0.9-0.5,1.7-1.3,2.4-2.3c0.7-1,1.2-2,1.6-3.2c0.4-1.1,0.8-2.5,1.1-4.2l7.2-31.8h-6.7l-3.1,14.6l-1.6,9.9
	l-2.1-10l-3.6-14.6h-6.7L807.9,673.4z M782.1,683.3v-13.1l2.1-3.9l6.5,17h6.9l-9.3-23.7l9.3-19h-6.7l-8.8,18.6v-18.6h-6.7v42.7
	H782.1z"/>
<path class="st1" d="M971.2,1116.5c3.4,0,5.8-0.7,7.2-2.1c1.4-1.4,2.2-3.8,2.2-7.2v-24c0-3.4-0.7-5.8-2.2-7.2
	c-1.5-1.4-3.9-2.1-7.2-2.1h-2.1v5.8h1.6c1.1,0,1.9,0.3,2.4,0.8c0.5,0.5,0.7,1.5,0.7,3v23.6c0,1.4-0.2,2.4-0.7,3
	c-0.5,0.5-1.3,0.8-2.4,0.8h-1.6v5.8H971.2z M959.4,1079.9l-9.8,36.6h6.7l9.9-36.8v-5.9H946v6.1H959.4z M941.8,1110.3h-6.7v6.2h6.7
	V1110.3z M922.3,1086.6v16h-6.8L922.3,1086.6z M922.3,1108.7v7.7h6.7v-7.7h3.1v-6.1H929v-28.8h-7.3l-12.2,28.8v6.1H922.3z
	 M898.3,1114.4c1.5,1.4,3.9,2.1,7.2,2.1h2.1v-5.8h-1.6c-1.1,0-1.9-0.3-2.4-0.8c-0.5-0.5-0.7-1.5-0.7-3v-23.6c0-1.4,0.2-2.4,0.7-3
	c0.5-0.5,1.3-0.8,2.4-0.8h1.6v-5.8h-2.1c-3.4,0-5.8,0.7-7.2,2.1c-1.4,1.4-2.2,3.8-2.2,7.2v24C896.1,1110.5,896.8,1113,898.3,1114.4
	 M873.5,1086.6v16h-6.8L873.5,1086.6z M873.5,1108.7v7.7h6.7v-7.7h3.1v-6.1h-3.1v-28.8h-7.3l-12.2,28.8v6.1H873.5z M857.5,1110.3
	h-6.7v6.2h6.7V1110.3z M832.7,1083.6c0-2.8,1.2-4.1,3.5-4.1c2.3,0,3.5,1.4,3.5,4.1v7.7c0,2.8-1.2,4.2-3.5,4.2
	c-2.3,0-3.5-1.4-3.5-4.2V1083.6z M827.8,1099.1c1.2,1.7,3.1,2.5,5.5,2.5c3,0,5.1-1.3,6.2-3.8v7.8c0,1.9-0.3,3.3-0.9,4.1
	c-0.6,0.8-1.6,1.2-2.8,1.2c-2.3,0-3.5-1.4-3.5-4.2v-1.5h-6.3v1.1c0,3.4,0.8,6.1,2.6,7.9c1.7,1.9,4.2,2.8,7.4,2.8
	c6.8,0,10.3-3.7,10.3-11.1V1084c0-3.4-0.9-6.1-2.6-7.9c-1.8-1.9-4.3-2.8-7.6-2.8c-3.3,0-5.8,0.9-7.5,2.8c-1.8,1.9-2.6,4.5-2.6,7.9
	v7.8C826,1095,826.6,1097.4,827.8,1099.1"/>
<path class="st1" d="M1039.2,330.7l-9,33.4h6.1l9-33.6v-5.4H1027v5.6H1039.2z M1023.2,358.5h-6.1v5.6h6.1V358.5z M997.1,362.1
	c1.6,1.7,4,2.5,6.9,2.5c3,0,5.3-0.8,6.8-2.5c1.5-1.7,2.3-4.1,2.3-7.2v-3.1c0-4.2-1.4-7-4.3-8.2c2.8-1.2,4.3-3.9,4.3-8v-1
	c0-3.1-0.8-5.6-2.3-7.2c-1.6-1.7-3.8-2.5-6.8-2.5c-3,0-5.3,0.8-6.9,2.5c-1.6,1.7-2.5,4.1-2.5,7.2v2.1h6.1v-2.5c0-2.6,1-3.8,3.1-3.8
	c1,0,1.8,0.3,2.4,1c0.5,0.6,0.8,1.8,0.8,3.5v2.2c0,1.5-0.3,2.5-0.9,3.2c-0.6,0.6-1.5,0.9-2.7,0.9h-2.4v5.6h2.1
	c1.4,0,2.4,0.4,3.1,1.1c0.6,0.8,0.9,2,0.9,3.8v3.1c0,1.6-0.3,2.8-0.8,3.4c-0.5,0.7-1.3,1-2.4,1c-2.1,0-3.1-1.3-3.1-3.9v-3.6h-6.1
	v3.2C994.7,358,995.5,360.4,997.1,362.1"/>
<path class="st1" d="M1038.9,299.9l-0.1,0.4c-0.2,1.3-0.8,2.2-1.6,2.7c-0.8,0.4-2.1,0.6-3.8,0.5v5.5c1.6,0.1,3.1,0.1,4.3-0.2
	c1.2-0.2,2.3-0.6,3.1-1.1c0.8-0.5,1.6-1.2,2.2-2.1s1.1-1.9,1.5-2.9c0.4-1,0.7-2.3,1-3.8l6.5-29h-6.1l-2.8,13.4l-1.4,9l-1.9-9.1
	l-3.3-13.3h-6.1L1038.9,299.9z M1014.3,308.9l15.4-39h-5.3l-15.4,39H1014.3z M991.3,306.8c1.6,1.7,3.8,2.5,6.8,2.5
	c3,0,5.3-0.8,7-2.5c1.6-1.7,2.5-4.1,2.5-7.2v-5.2h-6.1v5.6c0,2.5-1.1,3.8-3.2,3.8c-2.1,0-3.2-1.3-3.2-3.8v-21c0-2.6,1.1-3.8,3.2-3.8
	c2.1,0,3.2,1.3,3.2,3.8v4.2h6.1v-3.8c0-3.1-0.8-5.6-2.5-7.2c-1.6-1.7-4-2.5-7-2.5c-3,0-5.3,0.8-6.8,2.5c-1.6,1.7-2.3,4.1-2.3,7.2
	v20.3C989,302.7,989.8,305.1,991.3,306.8"/>
<path class="st1" d="M789.3,341.4V356h-6.2L789.3,341.4z M789.3,361.6v7.1h6.1v-7.1h2.8V356h-2.8v-26.3h-6.7L777.6,356v5.6H789.3z
	 M774.7,363h-6.1v5.6h6.1V363z M748.7,366.6c1.6,1.7,4,2.5,6.9,2.5c3,0,5.3-0.8,6.8-2.5c1.5-1.7,2.3-4.1,2.3-7.2v-3.1
	c0-4.2-1.4-7-4.3-8.2c2.8-1.2,4.3-3.9,4.3-8v-1c0-3.1-0.8-5.6-2.3-7.2c-1.6-1.7-3.8-2.5-6.8-2.5c-3,0-5.3,0.8-6.9,2.5
	c-1.6,1.7-2.5,4.1-2.5,7.2v2.1h6.1v-2.5c0-2.6,1-3.8,3.1-3.8c1,0,1.8,0.3,2.4,1c0.5,0.6,0.8,1.8,0.8,3.5v2.2c0,1.5-0.3,2.5-0.9,3.2
	c-0.6,0.6-1.5,0.9-2.7,0.9h-2.4v5.6h2.1c1.4,0,2.4,0.4,3.1,1.1c0.6,0.8,0.9,2,0.9,3.8v3.1c0,1.6-0.3,2.8-0.8,3.4
	c-0.5,0.7-1.3,1-2.4,1c-2.1,0-3.1-1.3-3.1-3.9v-3.6h-6.1v3.2C746.2,362.4,747,364.9,748.7,366.6"/>
<path class="st1" d="M853.7,284c0-1.4,0.2-2.4,0.7-3.1c0.5-0.6,1.3-1,2.4-1h2.9v12h-2.4c-1.2,0-2.1-0.3-2.8-0.9
	c-0.6-0.6-0.9-1.7-0.9-3.2V284z M853.1,313.4c0.1-0.5,0.2-0.8,0.3-1c0.1-0.2,0.1-0.7,0.2-1.3c0.1-0.6,0.1-1.5,0.1-2.5v-6.1
	c0-1.8,0.3-3.1,1-3.8c0.6-0.8,1.6-1.1,3-1.1h2.1v15.9h6.1v-39h-9.2c-3.1,0-5.4,0.7-6.9,2.2c-1.5,1.5-2.2,3.7-2.2,6.8v3.1
	c0,4,1.3,6.7,4,7.9c-1.5,0.6-2.5,1.6-3.1,3c-0.6,1.4-0.9,3.1-0.9,5.3v6c0,2.1-0.2,3.7-0.6,4.7H853.1z M834.6,281.4l3,19.6h-5.9
	L834.6,281.4z M829.8,313.4l1.1-7.1h7.5l1.1,7.1h6.1l-6.2-39h-9.5l-6.2,39H829.8z M796,313.4l5.6-17.4l1.5,3v14.3h6.1v-14.3l1.5-3
	l5.6,17.2h6.1l-7.5-23.1l7.5-15.9h-6l-7.3,15.8v-15.8h-6.1v15.8l-7.3-15.8h-6l7.6,16l-7.6,23H796z M775.2,283.4
	c0-2.6,1.1-3.8,3.2-3.8c2.1,0,3.2,1.3,3.2,3.8v21c0,2.6-1.1,3.9-3.2,3.9c-2.1,0-3.2-1.3-3.2-3.9V283.4z M771.5,311.3
	c1.6,1.7,3.9,2.6,6.9,2.6c3,0,5.3-0.9,6.9-2.6c1.6-1.7,2.4-4.1,2.4-7.2v-20.3c0-3.1-0.8-5.5-2.4-7.2c-1.6-1.7-3.9-2.6-6.9-2.6
	c-3,0-5.3,0.8-6.9,2.6c-1.6,1.7-2.4,4.1-2.4,7.2v20.3C769.1,307.2,769.9,309.6,771.5,311.3 M750.4,313.4l4.8-14.5l4.7,14.5h6.1
	l-6.8-19.9l6.4-19.1h-5.4l-4.7,14.5l-4.6-14.5h-6.1l6.4,18.9l-6.9,20.1H750.4z M728.2,313.4l5.2-17.9l2.5-9.5v27.4h6.1v-39h-7.3
	l-5,16.1l-2.2,8.6v-24.7h-5.5v39H728.2z M707.1,280h2.9c1,0,1.8,0.3,2.3,0.8c0.5,0.6,0.7,1.5,0.7,2.8v5.8c0,1.3-0.2,2.3-0.7,2.9
	c-0.5,0.6-1.2,0.8-2.3,0.8h-2.9V280z M707.1,313.4v-14.7h2.9c3,0,5.3-0.8,6.8-2.5c1.5-1.6,2.3-4,2.3-7.2v-5.1c0-3.1-0.8-5.5-2.3-7.2
	c-1.5-1.7-3.8-2.5-6.8-2.5h-9v39H707.1z M683.3,313.4V280h7v33.4h6.1v-39h-19.2v39H683.3z"/>
<path class="st1" d="M428.3,703.7c0-2.8,1.2-4.2,3.5-4.2c2.3,0,3.5,1.4,3.5,4.2v23c0,2.8-1.2,4.2-3.5,4.2c-2.3,0-3.5-1.4-3.5-4.2
	V703.7z M424.2,734.2c1.8,1.9,4.3,2.8,7.6,2.8c3.3,0,5.8-0.9,7.5-2.8c1.8-1.9,2.6-4.5,2.6-7.9v-22.2c0-3.4-0.9-6.1-2.6-7.9
	c-1.8-1.9-4.3-2.8-7.5-2.8c-3.3,0-5.8,0.9-7.6,2.8c-1.8,1.9-2.6,4.5-2.6,7.9v22.2C421.6,729.7,422.5,732.4,424.2,734.2 M417.6,730.4
	h-6.7v6.2h6.7V730.4z M392.7,703.7c0-2.8,1.2-4.1,3.5-4.1c2.3,0,3.5,1.4,3.5,4.1v7.7c0,2.8-1.2,4.2-3.5,4.2c-2.3,0-3.5-1.4-3.5-4.2
	V703.7z M387.9,719.2c1.2,1.7,3.1,2.5,5.5,2.5c3,0,5.1-1.3,6.3-3.8v7.8c0,1.9-0.3,3.3-0.9,4.1c-0.6,0.8-1.6,1.2-2.8,1.2
	c-2.3,0-3.5-1.4-3.5-4.2v-1.5h-6.3v1.1c0,3.4,0.8,6.1,2.6,7.9c1.7,1.9,4.2,2.8,7.4,2.8c6.8,0,10.3-3.7,10.3-11.1v-21.9
	c0-3.4-0.9-6.1-2.6-7.9c-1.8-1.9-4.3-2.8-7.6-2.8c-3.3,0-5.8,0.9-7.6,2.8c-1.7,1.9-2.6,4.5-2.6,7.9v7.8
	C386,715.1,386.7,717.5,387.9,719.2 M371.9,704v32.6h6.7v-42.7h-4.5c-0.3,0.7-0.5,1.3-0.7,1.7c-0.2,0.4-0.5,0.9-0.9,1.4
	c-0.4,0.5-0.8,0.9-1.3,1.2c-0.5,0.3-1.1,0.5-1.9,0.7c-0.8,0.2-1.7,0.3-2.7,0.3v4.7H371.9z"/>
<path class="st1" d="M554.1,628.4l3.2,21.5h-6.5L554.1,628.4z M548.9,663.4l1.2-7.7h8.2l1.2,7.7h6.7l-6.8-42.7H549l-6.8,42.7H548.9z
	 M527.3,626.8v36.6h6.7v-36.6h7v-6.1h-20.7v6.1H527.3z M507.6,628.4l3.2,21.5h-6.5L507.6,628.4z M502.4,663.4l1.2-7.7h8.2l1.2,7.7
	h6.7l-6.8-42.7h-10.3l-6.8,42.7H502.4z M478.1,663.4v-18.3h7.6v18.3h6.7v-42.7h-6.7V639h-7.6v-18.3h-6.7v42.7H478.1z M444.2,663.4
	v-30.1l5,30.1h6.4l4.6-30.6v30.6h6.7v-42.7h-9.7l-4.6,30.4l-5-30.4h-9.3v42.7H444.2z M420.5,630.5c0-2.8,1.2-4.2,3.5-4.2
	c2.3,0,3.5,1.4,3.5,4.2v23c0,2.8-1.2,4.2-3.5,4.2c-2.3,0-3.5-1.4-3.5-4.2V630.5z M416.4,661.1c1.8,1.9,4.3,2.8,7.6,2.8
	c3.3,0,5.8-0.9,7.5-2.8c1.8-1.9,2.6-4.5,2.6-7.9v-22.2c0-3.4-0.9-6.1-2.6-7.9c-1.8-1.9-4.3-2.8-7.5-2.8c-3.3,0-5.8,0.9-7.6,2.8
	c-1.8,1.9-2.6,4.5-2.6,7.9v22.2C413.8,656.6,414.6,659.2,416.4,661.1 M395.8,663.4v-13.1l2.1-3.9l6.5,17h6.9l-9.3-23.7l9.3-19h-6.7
	l-8.8,18.6v-18.6h-6.7v42.7H395.8z M361.5,631.2c0-1.5,0.3-2.6,0.8-3.3c0.5-0.7,1.4-1.1,2.6-1.1h3.2v13.1h-2.6c-1.3,0-2.3-0.3-3-1
	c-0.7-0.7-1-1.9-1-3.5V631.2z M360.8,663.4c0.2-0.5,0.3-0.9,0.3-1.1c0.1-0.2,0.1-0.7,0.2-1.4c0.1-0.7,0.1-1.6,0.1-2.7v-6.7
	c0-2,0.3-3.4,1-4.2c0.7-0.8,1.8-1.3,3.3-1.3h2.3v17.4h6.7v-42.7h-10.1c-3.4,0-5.9,0.8-7.5,2.4c-1.6,1.6-2.4,4.1-2.4,7.4v3.4
	c0,4.4,1.5,7.3,4.4,8.7c-1.6,0.7-2.7,1.8-3.4,3.3c-0.7,1.5-1,3.4-1,5.8v6.6c0,2.3-0.2,4-0.6,5.2H360.8z M340.6,628.4l3.2,21.5h-6.5
	L340.6,628.4z M335.3,663.4l1.2-7.7h8.2l1.2,7.7h6.7l-6.8-42.7h-10.3l-6.8,42.7H335.3z M302.2,663.5c3.4,0,5.8-0.8,7.3-2.5
	c1.5-1.7,2.3-4.4,2.5-8.3l0.7-25.8h5.8v36.6h6.7v-42.7H306l-0.7,32.3c0,1-0.1,1.8-0.3,2.4c-0.1,0.6-0.4,1-0.7,1.3
	c-0.3,0.3-0.7,0.5-1.2,0.6c-0.5,0.1-1.1,0.1-1.9,0.1v6.1H302.2z M283.8,663.4l5.7-19.5l2.7-10.5v30h6.7v-42.7h-8l-5.5,17.6l-2.4,9.4
	v-27h-6v42.7H283.8z M244.9,663.4l6.1-19l1.6,3.3v15.7h6.7v-15.6l1.7-3.2l6.1,18.9h6.7l-8.2-25.3l8.2-17.4h-6.5l-7.9,17.3v-17.3
	h-6.7V638l-7.9-17.3h-6.5l8.3,17.5l-8.3,25.2H244.9z"/>
<path class="st1" d="M453.6,580c4.1,4.2,9.9,6.4,17.4,6.4c7.5,0,13.1-2.1,17-6.4c3.9-4.2,5.8-10.3,5.8-18.1v-21.8
	c0-7.3-1.4-12.8-4.2-16.6c-2.8-3.8-7.1-5.7-12.7-5.7c-6.1,0-10.5,2.4-13.3,7.1l1.2-23.3h26.6v-14h-41l-2.9,56.6h15.3v-2.9
	c0-6.4,2.6-9.6,7.9-9.6c5.3,0,7.9,3.2,7.9,9.6v21.4c0,6.3-2.6,9.5-7.9,9.5c-5.2,0-7.9-3.2-7.9-9.5v-9h-15.3v8.1
	C447.4,569.7,449.5,575.7,453.6,580 M437.6,571.2h-15.3v14.1h15.3V571.2z M388.4,510.8v74.4h15.3v-97.6h-10.3
	c-0.6,1.6-1.1,2.9-1.6,3.8c-0.5,1-1.1,2.1-2,3.3c-0.9,1.2-1.9,2.1-3,2.8c-1.1,0.7-2.5,1.2-4.3,1.7c-1.8,0.5-3.8,0.7-6.1,0.7v10.8
	H388.4z M337.8,516.9v36.7h-15.4L337.8,516.9z M337.8,567.6v17.7h15.3v-17.7h7v-14h-7v-65.9h-16.7l-27.8,65.9v14H337.8z"/>
<ellipse transform="matrix(0.7071 -0.7071 0.7071 0.7071 -146.5537 393.7384)" class="st2" cx="402" cy="373.8" rx="85.4" ry="85.4"/>
<path class="st1" d="M405.6,406.7c2.9,3.2,7.3,4.8,12.9,4.8c5.7,0,10.1-1.6,13.2-4.8c3.1-3.2,4.7-7.8,4.7-13.7v-9.8h-11.6v10.6
	c0,4.8-2,7.2-6,7.2c-4,0-6-2.4-6-7.2v-39.9c0-4.8,2-7.3,6-7.3c4,0,6,2.4,6,7.3v7.9h11.6v-7.2c0-5.9-1.6-10.5-4.7-13.7
	c-3.1-3.2-7.5-4.8-13.2-4.8c-5.7,0-10,1.6-12.9,4.8c-2.9,3.2-4.4,7.8-4.4,13.7V393C401.2,398.9,402.7,403.5,405.6,406.7
	 M376.6,354.4v56.4h11.6v-73.9h-7.8c-0.4,1.2-0.8,2.2-1.2,2.9c-0.3,0.7-0.8,1.6-1.5,2.5c-0.7,0.9-1.4,1.6-2.2,2.1
	c-0.8,0.5-1.9,0.9-3.2,1.3c-1.3,0.4-2.9,0.5-4.6,0.5v8.2H376.6z"/>
</svg>
