<svg xmlns="http://www.w3.org/2000/svg" xml:space="preserve" id="Слой_1" x="0" y="0" style="enable-background:new 0 0 1280 1024" version="1.1" viewBox="0 0 1280 1024"><style>.st0{fill:#fbf4a6}.st1{fill:#39373a}.st2{fill:none;stroke:#39373a;stroke-width:.6}.st3{fill:#fff}.st4{fill:none;stroke:#39373a;stroke-width:.347}.st5{stroke-width:.248}.st5,.st6,.st7,.st8,.st9{fill:none;stroke:#39373a}.st6{stroke-width:.199}.st7{stroke-width:.224}.st8{stroke-width:.52}.st9{stroke-width:.246}</style><path d="M359 621.5h107v195.7H359z" class="st0"/><path d="M446.8 681.2h107v93h-107zm0-93h166.9v93H446.8z" class="st0"/><path d="M364 248.7h612.3v397.9H364z" class="st0"/><path d="M414.7 248.7H1027v212.2H414.7z" class="st0"/><path d="M470.8 768.2h47.1V783h-47.1z" class="st1"/><path d="M509.2 760.5h53.5V783h-53.5zm-181.4-533h736.3v27H327.8z" class="st1"/><path d="M327.8 227.5h736.3v27H327.8z" class="st2"/><path d="M597.8 249.3h15.1v67.4h-15.1z" class="st1"/><path d="M597.8 249.3h15.1v67.4h-15.1z" class="st2"/><path d="M597.8 269.7h6.9v110.4h-6.9z" class="st1"/><path d="M597.8 269.7h6.9v110.4h-6.9z" class="st2"/><path d="M597.8 425.8h6.9v21.8h-6.9z" class="st1"/><path d="M597.8 425.8h6.9v21.8h-6.9z" class="st2"/><path d="M666.8 252.5h6.9v117.1h-6.9z" class="st1"/><path d="M666.8 252.5h6.9v117.1h-6.9z" class="st2"/><path d="M656 362.7h74.4v6.9H656z" class="st1"/><path d="M656 362.7h74.4v6.9H656z" class="st2"/><path d="M351.8 444.8h273.7v6.9H351.8z" class="st1"/><path d="M351.8 444.8h273.7v6.9H351.8z" class="st2"/><path d="M669.4 444.8h393.5v6.9H669.4z" class="st1"/><path d="M669.4 444.8h393.5v6.9H669.4z" class="st2"/><path d="M548.4 436.3h56.3v11.3h-56.3z" class="st1"/><path d="M548.4 436.3h56.3v11.3h-56.3z" class="st2"/><path d="M599.7 362.7h23.2v6.9h-23.2z" class="st1"/><path d="M599.7 362.7h23.2v6.9h-23.2z" class="st2"/><path d="M604.6 281.1h63.3v6.9h-63.3z" class="st1"/><path d="M604.6 281.1h63.3v6.9h-63.3z" class="st2"/><path d="M610.7 249.3h57.2v34.2h-57.2z" class="st1"/><path d="M610.7 249.3h57.2v34.2h-57.2z" class="st2"/><path d="M763.5 362.7h23.2v6.9h-23.2z" class="st1"/><path d="M763.5 362.7h23.2v6.9h-23.2z" class="st2"/><path d="M782.4 425.3h6.9v23.2h-6.9z" class="st1"/><path d="M782.4 425.3h6.9v23.2h-6.9z" class="st2"/><path d="M960.7 436.7h102.8v35.8H960.7z" class="st1"/><path d="M960.7 436.7h102.8v35.8H960.7z" class="st2"/><path d="M960.2 620.7h35.3v30.4h-35.3z" class="st1"/><path d="M960.2 620.7h35.3v29.1h-35.3z" class="st2"/><path d="M980.6 619.2h15.9V651h-15.9z" class="st1"/><path d="M980.6 619.2h15.9V651h-15.9z" class="st2"/><path d="M613.6 637h381.8v14.8H613.6z" class="st1"/><path d="M659.2 637h307.2v14.8H659.2z" class="st2"/><path d="M1027.7 413.5h35.3v39.8h-35.3z" class="st1"/><path d="M1027.7 413.5h35.3v39.8h-35.3z" class="st2"/><path d="M1050.2 409.1h13.4v39.8h-13.4z" class="st1"/><path d="M1050.2 409.1h13.4v39.8h-13.4z" class="st2"/><path d="M1050.2 280.8h14v39.4h-14z" class="st1"/><path d="M1050.2 280.8h14v39.4h-14z" class="st2"/><path d="M1028.8 243.4h35.3v71.9h-35.3z" class="st1"/><path d="M1028.8 243.4h35.3v71.9h-35.3z" class="st2"/><path d="M782.4 437.5h57.5v10.2h-57.5z" class="st1"/><path d="M782.4 437.5h57.5v10.2h-57.5z" class="st2"/><path d="M775.7 252.5h11v64.2h-11z" class="st1"/><path d="M775.7 252.5h11v64.2h-11z" class="st2"/><path d="M782.4 252.5h6.9v127.8h-6.9z" class="st1"/><path d="M782.4 252.5h6.9v127.8h-6.9z" class="st2"/><path d="M616.5 255h45.7v12.6h-45.7zm12.5 16.7h8.2v8.2H629zm-12.5 0h8.2v8.2h-8.2zm25 0h8.2v8.2h-8.2zm12.5 0h8.2v8.2H654z" class="st3"/><path d="M995.3 642.1h68.2v8.9h-68.2z" class="st1"/><path d="M995.3 642.1h68.2v8.9h-68.2z" class="st2"/><path d="M1055.7 464.3h7.8v179.5h-7.8zm-78.7 0h4.5v62.8H977z" class="st2"/><path d="M977 519h4.5v58.2H977zm50.7-282.6h35.9v222.1h-35.9z" class="st2"/><path d="M1045.6 279.1h4.5v179.5h-4.5z" class="st2"/><path d="M1045.6 305.1h4.5v15.1h-4.5zm0 104h4.5v15.1h-4.5zM977 522.8h4.5v54.4H977z" class="st2"/><path d="M977 619.2h4.5V651H977z" class="st1"/><path d="M977 619.2h4.5V651H977zm0-50.3h4.5v8.3H977z" class="st2"/><path d="M977 573h4.5v4.2H977zm0-108.7h4.5V476H977z" class="st2"/><path d="M253.3 443.9h107.3v15.7H253.3z" class="st1"/><path d="M253.3 443.9h107.3v15.7H253.3z" class="st2"/><path d="M253.3 449.7h110.1v9.9H253.3z" class="st1"/><path d="M340.9 434.2h22.4v23.4h-22.4z" class="st1"/><path d="M340.9 434.2h22.4v23.4h-22.4z" class="st2"/><path d="M336 449.7h27.3v382.1H336z" class="st1"/><path d="M336 471.9h27.3v294.2H336z" class="st2"/><path d="M348.6 816.7h53.5v15.1h-53.5z" class="st1"/><path d="M348.6 816.7h53.5v15.1h-53.5z" class="st2"/><path d="M455.8 816.7h25.1v15.1h-25.1z" class="st1"/><path d="M455.8 816.7h25.1v15.1h-25.1z" class="st2"/><path d="M466 777.7h14.8v54.1H466z" class="st1"/><path d="M466 730h7.2v95.4H466z" class="st1"/><path d="M466 730h7.2v95.4H466z" class="st2"/><path d="M466 666.8h7.2v27.1H466z" class="st1"/><path d="M466 666.8h7.2v27.1H466z" class="st2"/><path d="M466.7 607.6h7.2v8.6h-7.2z" class="st1"/><path d="M466.7 607.6h7.2v8.6h-7.2z" class="st2"/><path d="M471.3 677.7h148.6v7.2H471.3z" class="st1"/><path d="M471.3 677.7h148.6v7.2H471.3z" class="st2"/><path d="M547.9 684.4h14.8V767h-14.8z" class="st1"/><path d="M547.9 684.4h14.8V767h-14.8z" class="st2"/><path d="M348.6 758.7h14.8v73.2h-14.8z" class="st1"/><path d="M348.6 758.7h14.8v73.2h-14.8z" class="st2"/><path d="M513.3 764.7h34.6v4.6h-34.6z" class="st3"/><path d="M612.2 636.4h12.9v51.2h-12.9zm-253.1-30.8h114.8v8.6H359.1z" class="st1"/><path d="M359.1 605.6h114.8v8.6H359.1z" class="st2"/><path d="M381.3 584.3H448v6.9h-66.7z" class="st1"/><path d="M381.3 584.3H448v6.9h-66.7z" class="st2"/><path d="M379.9 584.3h6.8v23.1h-6.8z" class="st1"/><path d="M379.9 584.3h6.8v23.1h-6.8z" class="st2"/><path d="M393.8 584.3h6.8v23.1h-6.8z" class="st1"/><path d="M393.8 584.3h6.8v23.1h-6.8z" class="st2"/><path d="M441.2 586.5h6.8v21h-6.8z" class="st1"/><path d="M441.2 586.5h6.8v21h-6.8z" class="st2"/><path d="M327.8 245.7h13.5v73.9h-13.5z" class="st1"/><path d="M327.8 245.7h13.5v73.9h-13.5z" class="st2"/><path d="M327.8 431h13.9v26.6h-13.9z" class="st1"/><path d="M327.8 431h13.9v20.7h-13.9z" class="st2"/><path d="M333.4 242.9h30.1v73.9h-30.1z" class="st1"/><path d="M333.4 242.9h30.1v73.9h-30.1z" class="st2"/><path d="M253.3 227.5h89.1v6.9h-89.1z" class="st1"/><path d="M253.3 227.5h89.1v6.9h-89.1z" class="st2"/><path d="M253.3 227.5h6.9v39.8h-6.9z" class="st1"/><path d="M253.3 227.5h6.9v39.8h-6.9z" class="st2"/><path d="M253.3 255.7h6.9v189.7h-6.9zM328 290h14v97.2h-14zm19.3 0h16.1v92.7h-16.1zm-5.3 0h5.3v97.2H342z" class="st2"/><path d="M342 285.5h5.3v97.2H342z" class="st2"/><path d="M342 280.8h5.3V378H342z" class="st2"/><path d="M342 243.9h5.3v97.2H342z" class="st2"/><path d="M342 265.7h5.3v54.8H342z" class="st2"/><path stroke-width=".6" d="m340.856 434.135 25.063-42.106 1.805 1.074-25.064 42.106z" class="st2"/><path d="M368.3 393.1s-5.8-3.5-11.5-4.8c-3.8-.8-10.2-.9-10.2-.9" class="st4"/><path stroke-width=".6" d="m956.503 583.007 1.804-1.074 25.064 42.106-1.805 1.074z" class="st2"/><path d="M956 583s5.8-3.5 11.5-4.8c3.8-.8 10.2-.9 10.2-.9" class="st4"/><path stroke-width=".6" d="m783.998 427.25 25.064-42.105 1.804 1.074-25.063 42.106z" class="st2"/><path d="M811.5 386.3s-5.8-3.5-11.5-4.8c-3.8-.8-10.2-.9-10.2-.9" class="st4"/><path stroke-width=".6" d="m735.316 386.07 32.052-19.078 1.074 1.804-32.052 19.08z" class="st2"/><path d="M736.4 388.4s-3.5-5.8-4.8-11.5c-.8-3.8-.9-10.2-.9-10.2" class="st4"/><path stroke-width=".6" d="m618.244 368.838 1.074-1.805 32.052 19.08-1.075 1.804z" class="st2"/><path d="M650.3 388.4s3.5-5.8 4.8-11.5c.8-3.8.9-10.2.9-10.2" class="st4"/><path stroke-width=".6" d="m575.867 386.848 1.804-1.074 24.603 41.332-1.804 1.074z" class="st2"/><path d="M575.3 386.8s7-4 13.8-5.5c4.6-1 12.2-1.1 12.2-1.1" class="st4"/><path stroke-width=".6" d="m621.297 449.473 1.074-1.804 41.333 24.603-1.074 1.805z" class="st2"/><path d="M662.6 474.6s4-7 5.5-13.8c1-4.6 1.1-12.2 1.1-12.2" class="st4"/><path stroke-width=".6" d="m468.841 669.501 28.388-47.69 1.805 1.073-28.388 47.691z" class="st2"/><path d="M499.7 622.9s-7-4-13.8-5.5c-4.6-1-12.2-1.1-12.2-1.1" class="st4"/><path stroke-width=".6" d="m446.925 723.577 20.153-33.857 1.804 1.074-20.153 33.857z" class="st2"/><path d="M446.4 723.6s7 4 13.8 5.5c4.6 1 12.2 1.1 12.2 1.1" class="st4"/><path stroke-width=".6" d="m408.053 855.59 50.698-30.18 1.074 1.805-50.698 30.179z" class="st2"/><path d="M409 858s-4-7-5.5-13.8c-1-4.6-1.1-12.2-1.1-12.2" class="st4"/><path d="M504.1 718.9c-5.8 0-10.5 4.7-10.5 10.5v15.1c0 1 .8 1.8 1.8 1.8h17.3c1 0 1.8-.8 1.8-1.8v-15.1c.1-5.9-4.6-10.5-10.4-10.5m8.7 28.1h-17.3c-1.4 0-2.5-1.1-2.5-2.5v-15.1c0-6.2 5-11.2 11.2-11.2 6.2 0 11.2 5 11.2 11.2v15.1c-.1 1.3-1.2 2.5-2.6 2.5" class="st1"/><path d="M504.1 718.9c-5.8 0-10.5 4.7-10.5 10.5v15.1c0 1 .8 1.8 1.8 1.8h17.3c1 0 1.8-.8 1.8-1.8v-15.1c.1-5.9-4.6-10.5-10.4-10.5zm8.7 28.1h-17.3c-1.4 0-2.5-1.1-2.5-2.5v-15.1c0-6.2 5-11.2 11.2-11.2 6.2 0 11.2 5 11.2 11.2v15.1c-.1 1.3-1.2 2.5-2.6 2.5z" class="st5"/><path d="M496.6 741.2h15c.1 0 .2-.1.2-.2v-11.4c0-4.2-3.5-7.7-7.7-7.7s-7.7 3.5-7.7 7.7V741l.2.2z" class="st5"/><path d="M496.8 740.9h14.6v-11.2c0-4-3.3-7.3-7.3-7.3s-7.3 3.3-7.3 7.3v11.2zm14.8.7h-15c-.3 0-.5-.2-.5-.5v-11.4c0-4.4 3.6-8 8-8s8 3.6 8 8V741c.1.3-.2.6-.5.6" class="st1"/><path d="M496.8 740.9h14.6v-11.2c0-4-3.3-7.3-7.3-7.3s-7.3 3.3-7.3 7.3v11.2zm14.8.7h-15c-.3 0-.5-.2-.5-.5v-11.4c0-4.4 3.6-8 8-8s8 3.6 8 8V741c.1.3-.2.6-.5.6z" class="st5"/><path d="M504.1 729.6c-1.1 0-2 .9-2 2s.9 2 2 2 2-.9 2-2-.9-2-2-2m0 4.7c-1.5 0-2.7-1.2-2.7-2.7 0-1.5 1.2-2.7 2.7-2.7 1.5 0 2.7 1.2 2.7 2.7 0 1.5-1.2 2.7-2.7 2.7" class="st1"/><path d="M504.1 729.6c-1.1 0-2 .9-2 2s.9 2 2 2 2-.9 2-2-.9-2-2-2zm0 4.7c-1.5 0-2.7-1.2-2.7-2.7 0-1.5 1.2-2.7 2.7-2.7 1.5 0 2.7 1.2 2.7 2.7 0 1.5-1.2 2.7-2.7 2.7z" class="st5"/><path d="m498.3 739.8-.6-.5 3.6-4.8.6.5z" class="st1"/><path d="m498.3 739.8-.6-.5 3.6-4.8.6.5z" class="st5"/><path d="m509.9 739.8-3.6-4.8.6-.5 3.5 4.8z" class="st1"/><path d="m509.9 739.8-3.6-4.8.6-.5 3.5 4.8z" class="st5"/><path d="M496.9 747c-1.6 0-2.9 1.3-2.9 2.9v3.9c0 1.6 1.3 2.9 2.9 2.9h14.4c1.6 0 2.9-1.3 2.9-2.9v-3.9c0-1.6-1.3-2.9-2.9-2.9h-14.4zm14.5 10.5H497c-2 0-3.6-1.6-3.6-3.6V750c0-2 1.6-3.6 3.6-3.6h14.4c2 0 3.6 1.6 3.6 3.6v3.9c0 1.9-1.6 3.6-3.6 3.6" class="st1"/><path d="M496.9 747c-1.6 0-2.9 1.3-2.9 2.9v3.9c0 1.6 1.3 2.9 2.9 2.9h14.4c1.6 0 2.9-1.3 2.9-2.9v-3.9c0-1.6-1.3-2.9-2.9-2.9h-14.4zm14.5 10.5H497c-2 0-3.6-1.6-3.6-3.6V750c0-2 1.6-3.6 3.6-3.6h14.4c2 0 3.6 1.6 3.6 3.6v3.9c0 1.9-1.6 3.6-3.6 3.6z" class="st5"/><path d="M504.1 750.8c-.6 0-1.1.5-1.1 1.1 0 .6.5 1.1 1.1 1.1.6 0 1.1-.5 1.1-1.1.1-.6-.4-1.1-1.1-1.1m0 2.9c-1 0-1.8-.8-1.8-1.8s.8-1.8 1.8-1.8 1.8.8 1.8 1.8c.1 1-.7 1.8-1.8 1.8" class="st1"/><path d="M504.1 750.8c-.6 0-1.1.5-1.1 1.1 0 .6.5 1.1 1.1 1.1.6 0 1.1-.5 1.1-1.1.1-.6-.4-1.1-1.1-1.1zm0 2.9c-1 0-1.8-.8-1.8-1.8s.8-1.8 1.8-1.8 1.8.8 1.8 1.8c.1 1-.7 1.8-1.8 1.8z" class="st5"/><path d="M640 328c5.8 0 10.5-4.7 10.5-10.5v-15.1c0-1-.8-1.8-1.8-1.8h-17.3c-1 0-1.8.8-1.8 1.8v15.1c-.1 5.8 4.6 10.5 10.4 10.5m-8.7-28.1h17.3c1.4 0 2.5 1.1 2.5 2.5v15.1c0 6.2-5 11.2-11.2 11.2-6.2 0-11.2-5-11.2-11.2v-15.1c.1-1.4 1.2-2.5 2.6-2.5" class="st1"/><path d="M640 328c5.8 0 10.5-4.7 10.5-10.5v-15.1c0-1-.8-1.8-1.8-1.8h-17.3c-1 0-1.8.8-1.8 1.8v15.1c-.1 5.8 4.6 10.5 10.4 10.5zm-8.7-28.1h17.3c1.4 0 2.5 1.1 2.5 2.5v15.1c0 6.2-5 11.2-11.2 11.2-6.2 0-11.2-5-11.2-11.2v-15.1c.1-1.4 1.2-2.5 2.6-2.5z" class="st5"/><path d="M647.5 305.7h-15c-.1 0-.2.1-.2.2v11.4c0 4.2 3.5 7.7 7.7 7.7s7.7-3.5 7.7-7.7v-11.4c-.1-.1-.1-.2-.2-.2z" class="st5"/><path d="M647.3 306h-14.6v11.2c0 4 3.3 7.3 7.3 7.3s7.3-3.3 7.3-7.3V306zm-14.8-.7h15c.3 0 .5.2.5.5v11.4c0 4.4-3.6 8-8 8s-8-3.6-8-8v-11.4c-.1-.2.2-.5.5-.5" class="st1"/><path d="M647.3 306h-14.6v11.2c0 4 3.3 7.3 7.3 7.3s7.3-3.3 7.3-7.3V306zm-14.8-.7h15c.3 0 .5.2.5.5v11.4c0 4.4-3.6 8-8 8s-8-3.6-8-8v-11.4c-.1-.2.2-.5.5-.5z" class="st5"/><path d="M640 317.3c1.1 0 2-.9 2-2s-.9-2-2-2-2 .9-2 2 .9 2 2 2m0-4.7c1.5 0 2.7 1.2 2.7 2.7 0 1.5-1.2 2.7-2.7 2.7-1.5 0-2.7-1.2-2.7-2.7 0-1.5 1.2-2.7 2.7-2.7" class="st1"/><path d="M640 317.3c1.1 0 2-.9 2-2s-.9-2-2-2-2 .9-2 2 .9 2 2 2zm0-4.7c1.5 0 2.7 1.2 2.7 2.7 0 1.5-1.2 2.7-2.7 2.7-1.5 0-2.7-1.2-2.7-2.7 0-1.5 1.2-2.7 2.7-2.7z" class="st5"/><path d="m645.8 307.1.6.5-3.6 4.8-.6-.5z" class="st1"/><path d="m645.8 307.1.6.5-3.6 4.8-.6-.5z" class="st5"/><path d="m633.667 307.527.56-.419 3.595 4.804-.56.42z" class="st1"/><path stroke-width=".248" d="m633.667 307.527.56-.419 3.595 4.804-.56.42z" class="st5"/><path d="M647.2 299.9c1.6 0 2.9-1.3 2.9-2.9v-4c0-1.6-1.3-2.9-2.9-2.9h-14.4c-1.6 0-2.9 1.3-2.9 2.9v3.9c0 1.6 1.3 2.9 2.9 2.9h14.4zm-14.5-10.5h14.4c2 0 3.6 1.6 3.6 3.6v3.9c0 2-1.6 3.6-3.6 3.6h-14.4c-2 0-3.6-1.6-3.6-3.6V293c0-2 1.7-3.6 3.6-3.6" class="st1"/><path d="M647.2 299.9c1.6 0 2.9-1.3 2.9-2.9v-4c0-1.6-1.3-2.9-2.9-2.9h-14.4c-1.6 0-2.9 1.3-2.9 2.9v3.9c0 1.6 1.3 2.9 2.9 2.9h14.4zm-14.5-10.5h14.4c2 0 3.6 1.6 3.6 3.6v3.9c0 2-1.6 3.6-3.6 3.6h-14.4c-2 0-3.6-1.6-3.6-3.6V293c0-2 1.7-3.6 3.6-3.6z" class="st5"/><path d="M640 296.1c.6 0 1.1-.5 1.1-1.1 0-.6-.5-1.1-1.1-1.1-.6 0-1.1.5-1.1 1.1-.1.6.4 1.1 1.1 1.1m0-2.9c1 0 1.8.8 1.8 1.8s-.8 1.8-1.8 1.8-1.8-.8-1.8-1.8c-.1-1 .8-1.8 1.8-1.8" class="st1"/><path d="M640 296.1c.6 0 1.1-.5 1.1-1.1 0-.6-.5-1.1-1.1-1.1-.6 0-1.1.5-1.1 1.1-.1.6.4 1.1 1.1 1.1zm0-2.9c1 0 1.8.8 1.8 1.8s-.8 1.8-1.8 1.8-1.8-.8-1.8-1.8c-.1-1 .8-1.8 1.8-1.8z" class="st5"/><path d="M526.9 697.2c0-4.9 4-8.9 8.9-8.9h9.4c.7 0 1.4.6 1.4 1.4v20.1c0 .7-.6 1.4-1.4 1.4h-9.4c-4.9 0-8.9-4-8.9-8.9v-5.1zm20.1 12.5v-20.1c0-1-.8-1.9-1.9-1.9h-9.4c-5.2 0-9.4 4.2-9.4 9.4v5c0 5.2 4.2 9.4 9.4 9.4h9.4c1.1.1 1.9-.7 1.9-1.8" class="st1"/><path d="M526.9 697.2c0-4.9 4-8.9 8.9-8.9h9.4c.7 0 1.4.6 1.4 1.4v20.1c0 .7-.6 1.4-1.4 1.4h-9.4c-4.9 0-8.9-4-8.9-8.9v-5.1zm20.1 12.5v-20.1c0-1-.8-1.9-1.9-1.9h-9.4c-5.2 0-9.4 4.2-9.4 9.4v5c0 5.2 4.2 9.4 9.4 9.4h9.4c1.1.1 1.9-.7 1.9-1.8z" class="st6"/><path d="M529.1 697.2c0-3.7 3-6.7 6.7-6.7h5.5c.6 0 1.2.5 1.2 1.2v16c0 .6-.5 1.2-1.2 1.2h-5.5c-3.7 0-6.7-3-6.7-6.7v-5zm13.8 10.5v-16c0-.9-.7-1.7-1.7-1.7h-5.5c-4 0-7.2 3.2-7.2 7.2v5c0 4 3.2 7.2 7.2 7.2h5.5c1 0 1.7-.8 1.7-1.7" class="st1"/><path d="M529.1 697.2c0-3.7 3-6.7 6.7-6.7h5.5c.6 0 1.2.5 1.2 1.2v16c0 .6-.5 1.2-1.2 1.2h-5.5c-3.7 0-6.7-3-6.7-6.7v-5zm13.8 10.5v-16c0-.9-.7-1.7-1.7-1.7h-5.5c-4 0-7.2 3.2-7.2 7.2v5c0 4 3.2 7.2 7.2 7.2h5.5c1 0 1.7-.8 1.7-1.7z" class="st6"/><path d="M533.8 699.7c0-.6.5-1.1 1.1-1.1.6 0 1.1.5 1.1 1.1 0 .6-.5 1.1-1.1 1.1-.6 0-1.1-.5-1.1-1.1m2.7 0c0-.9-.7-1.6-1.6-1.6-.9 0-1.6.7-1.6 1.6 0 .9.7 1.6 1.6 1.6.8 0 1.6-.7 1.6-1.6" class="st1"/><path d="M533.8 699.7c0-.6.5-1.1 1.1-1.1.6 0 1.1.5 1.1 1.1 0 .6-.5 1.1-1.1 1.1-.6 0-1.1-.5-1.1-1.1zm2.7 0c0-.9-.7-1.6-1.6-1.6-.9 0-1.6.7-1.6 1.6 0 .9.7 1.6 1.6 1.6.8 0 1.6-.7 1.6-1.6z" class="st6"/><path d="M697.5 312.9c0 5.5-4.5 10-10 10h-10.6c-.8 0-1.5-.7-1.5-1.5v-22.6c0-.8.7-1.5 1.5-1.5h10.6c5.5 0 10 4.5 10 10v5.6zm-22.7-14.1v22.6c0 1.2.9 2.1 2.1 2.1h10.6c5.8 0 10.6-4.7 10.6-10.6v-5.6c0-5.8-4.7-10.6-10.6-10.6h-10.6c-1.2 0-2.1.9-2.1 2.1" class="st1"/><path d="M697.5 312.9c0 5.5-4.5 10-10 10h-10.6c-.8 0-1.5-.7-1.5-1.5v-22.6c0-.8.7-1.5 1.5-1.5h10.6c5.5 0 10 4.5 10 10v5.6zm-22.7-14.1v22.6c0 1.2.9 2.1 2.1 2.1h10.6c5.8 0 10.6-4.7 10.6-10.6v-5.6c0-5.8-4.7-10.6-10.6-10.6h-10.6c-1.2 0-2.1.9-2.1 2.1z" class="st7"/><path d="M695 312.9c0 4.1-3.4 7.5-7.5 7.5h-6.2c-.7 0-1.3-.6-1.3-1.3v-18c0-.7.6-1.3 1.3-1.3h6.2c4.1 0 7.5 3.4 7.5 7.5v5.6zm-15.6-11.8v18c0 1 .8 1.9 1.9 1.9h6.2c4.4 0 8.1-3.6 8.1-8.1v-5.6c0-4.4-3.6-8.1-8.1-8.1h-6.2c-1.1 0-1.9.8-1.9 1.9" class="st1"/><path d="M695 312.9c0 4.1-3.4 7.5-7.5 7.5h-6.2c-.7 0-1.3-.6-1.3-1.3v-18c0-.7.6-1.3 1.3-1.3h6.2c4.1 0 7.5 3.4 7.5 7.5v5.6zm-15.6-11.8v18c0 1 .8 1.9 1.9 1.9h6.2c4.4 0 8.1-3.6 8.1-8.1v-5.6c0-4.4-3.6-8.1-8.1-8.1h-6.2c-1.1 0-1.9.8-1.9 1.9z" class="st7"/><path d="M689.7 310.1c0 .7-.6 1.2-1.2 1.2-.7 0-1.2-.6-1.2-1.2 0-.7.6-1.2 1.2-1.2.6-.1 1.2.5 1.2 1.2m-3 0c0 1 .8 1.8 1.8 1.8s1.8-.8 1.8-1.8-.8-1.8-1.8-1.8-1.8.8-1.8 1.8" class="st1"/><path d="M689.7 310.1c0 .7-.6 1.2-1.2 1.2-.7 0-1.2-.6-1.2-1.2 0-.7.6-1.2 1.2-1.2.6-.1 1.2.5 1.2 1.2zm-3 0c0 1 .8 1.8 1.8 1.8s1.8-.8 1.8-1.8-.8-1.8-1.8-1.8-1.8.8-1.8 1.8z" class="st7"/><path d="M674.9 327.2h34.9v34.2h-34.9zm-.1.5 34.9 33.6m-34.9.4 34.9-33.6" class="st8"/><path d="M365.4 559.3h32.9v-32.9h-32.9v32.9zm-.7-33.6h34.4v34.4h-34.4v-34.4z" class="st1"/><path d="M365.4 559.3h32.9v-32.9h-32.9v32.9zm-.7-33.6h34.4v34.4h-34.4v-34.4z" class="st9"/><path d="M395.3 531.3c0-.8-.7-1.5-1.5-1.5h-17.3c-.8 0-1.5.7-1.5 1.5v23.1c0 .8.7 1.5 1.5 1.5h17.3c.8 0 1.5-.7 1.5-1.5v-23.1zm-21 23.1v-23.1c0-1.2 1-2.2 2.2-2.2h17.3c1.2 0 2.2 1 2.2 2.2v23.1c0 1.2-1 2.2-2.2 2.2h-17.3c-1.2 0-2.2-1-2.2-2.2" class="st1"/><path d="M395.3 531.3c0-.8-.7-1.5-1.5-1.5h-17.3c-.8 0-1.5.7-1.5 1.5v23.1c0 .8.7 1.5 1.5 1.5h17.3c.8 0 1.5-.7 1.5-1.5v-23.1zm-21 23.1v-23.1c0-1.2 1-2.2 2.2-2.2h17.3c1.2 0 2.2 1 2.2 2.2v23.1c0 1.2-1 2.2-2.2 2.2h-17.3c-1.2 0-2.2-1-2.2-2.2z" class="st9"/><path d="M377.6 553.3h15.1v-20.9h-15.1v20.9zm-.7-21.6h16.6v22.4h-16.6v-22.4z" class="st1"/><path d="M377.6 553.3h15.1v-20.9h-15.1v20.9zm-.7-21.6h16.6v22.4h-16.6v-22.4z" class="st9"/><path d="M388.1 542.9c0-1.1-.9-1.9-1.9-1.9-1.1 0-1.9.9-1.9 1.9 0 1.1.9 1.9 1.9 1.9 1.1 0 1.9-.9 1.9-1.9m-4.5 0c0-1.5 1.2-2.6 2.6-2.6 1.5 0 2.6 1.2 2.6 2.6 0 1.5-1.2 2.6-2.6 2.6-1.4 0-2.6-1.2-2.6-2.6" class="st1"/><path d="M388.1 542.9c0-1.1-.9-1.9-1.9-1.9-1.1 0-1.9.9-1.9 1.9 0 1.1.9 1.9 1.9 1.9 1.1 0 1.9-.9 1.9-1.9zm-4.5 0c0-1.5 1.2-2.6 2.6-2.6 1.5 0 2.6 1.2 2.6 2.6 0 1.5-1.2 2.6-2.6 2.6-1.4 0-2.6-1.2-2.6-2.6z" class="st9"/><path d="M357.2 584.3h26.7" class="st2"/><path d="M691.8 273.8c0 .8.7 1.5 1.6 1.5.9 0 1.6-.7 1.6-1.5s-.7-1.5-1.6-1.5c-.9 0-1.6.7-1.6 1.5z" class="st8"/><path d="M768.1 266.8c0-5.6-4.5-10.1-10.1-10.1h-71.4c-5.6 0-10.1 4.5-10.1 10.1v14c0 5.6 4.5 10.1 10.1 10.1H758c5.6 0 10.1-4.5 10.1-10.1v-14z" class="st8"/><path d="M761.7 270c0-5.6-4.5-10.1-10.1-10.1h-58.7c-5.6 0-10.1 4.5-10.1 10.1v7.6c0 5.6 4.5 10.1 10.1 10.1h58.7c5.6 0 10.1-4.5 10.1-10.1V270z" class="st8"/><path d="M754 268c0-2.8-2.3-5.1-5.1-5.1h-57.6c-2.8 0-5.1 2.3-5.1 5.1v11.6c0 2.8 2.3 5.1 5.1 5.1H749c2.8 0 5.1-2.3 5.1-5.1V268zm19.2 24.9h-98.7m98.2.5v-47" class="st8"/><path d="M589.1 464.7v133.7" style="fill:none;stroke:#39373a;stroke-dasharray:4.184,4.184"/><path d="M577.1 607H469.2" style="fill:none;stroke:#39373a;stroke-dasharray:3.875,3.875"/><path d="M465.3 607h-4m127.8-4.3v4.3h-4m4-155.3v4.3" style="fill:none;stroke:#39373a"/><path d="M487.5 404.8h3.6c1.3 0 1.7.2 1.7 1.2 0 .9-.1 1.4-1.5 1.4h-2.5v2.2h2.5c1.4 0 1.7.4 1.7 1.5 0 1.3-.5 1.5-2.1 1.5-1.1 0-1.9 0-3.6-.1l-.1 2.5c1.5.2 3.1.4 4.6.4 3.4 0 4.6-1.1 4.6-3.8 0-2-.6-2.9-2.4-3.2v-.1c1.7-.3 2-1.4 2-3.2 0-2.3-1.2-3-4.3-3-1.4 0-2.8.1-4.3.4l.1 2.3zm-3.7 7.1c-.9 0-1.2.3-1.2 1.2v.8c0 .9.3 1.2 1.2 1.2h.8c.9 0 1.2-.3 1.2-1.2v-.8c0-.9-.3-1.2-1.2-1.2h-.8zm-11.6-7.1h3.6c1.3 0 1.7.2 1.7 1.2 0 .9-.1 1.4-1.5 1.4h-2.5v2.2h2.5c1.4 0 1.7.4 1.7 1.5 0 1.3-.5 1.5-2.1 1.5-1.1 0-1.9 0-3.6-.1l-.1 2.5c1.5.2 3.1.4 4.6.4 3.4 0 4.6-1.1 4.6-3.8 0-2-.6-2.9-2.4-3.2v-.1c1.7-.3 2-1.4 2-3.2 0-2.3-1.2-3-4.3-3-1.4 0-2.8.1-4.3.4l.1 2.3zm-2.5 10.3v-12.8h-3.5l-3.3 1.3.4 2.2 3-.7c-.1.5-.1 1-.1 1.5v8.5h3.5zm76.2-25.5c0-.4.2-.7.8-.7h1.9v1.2c-.6.4-1.3.6-1.8.6-.6 0-.9-.3-.9-.7v-.4zm-2.5-3.7c1.5-.1 3-.1 4-.1s1.3.3 1.3 1.1v.2h-3.1c-1.8 0-3 .9-3 2.4v.9c0 1.7 1.4 2.6 3.1 2.6 1.6 0 2.7-.8 3.3-1.6l.3 1.4h2.7v-5.9c0-2.8-1.4-3.6-3.9-3.6-1.4 0-3.7.2-5.1.5l.4 2.1zm-1.5.2v-2.5h-9.2v2.5h2.9v6.7h3.4v-6.7h2.9zm-16.5 3.5c0-.4.2-.7.8-.7h1.9v1.2c-.6.4-1.3.6-1.8.6-.6 0-.9-.3-.9-.7v-.4zm-2.6-3.7c1.5-.1 3-.1 4-.1s1.3.3 1.3 1.1v.2H525c-1.8 0-3 .9-3 2.4v.9c0 1.7 1.4 2.6 3.1 2.6 1.6 0 2.7-.8 3.3-1.6l.3 1.4h2.7v-5.9c0-2.8-1.4-3.6-3.9-3.6-1.4 0-3.7.2-5.1.5l.4 2.1zm-2.3-2.3h-3.3v3.3h-2.8v-3.3H511v9.2h3.3v-3.7h2.8v3.7h3.3v-9.2zm-15.6 0c-.7 0-1.2.4-1.3 1l-.8 3.4c-.1.5-.1.9-.2 1.4h-.1c-.1-.5-.1-.9-.2-1.4l-.8-3.4c-.1-.7-.6-1-1.2-1h-2.9c-.8 0-1.2.4-1.2 1.2l-.2 8.1h3l.2-6.8h.2l1.1 4.5c.1.7.6 1 1.3 1h1.5c.7 0 1.1-.3 1.3-1l1.1-4.5h.2l.2 6.8h3l-.2-8.1c0-.8-.4-1.2-1.2-1.2h-2.8zm-15.4 2.1c1.1 0 1.4.5 1.4 2.5s-.3 2.5-1.4 2.5c-1.2 0-1.5-.4-1.5-2.5.1-2.1.4-2.5 1.5-2.5m0-2.4c-3.6 0-5 1.3-5 4.9 0 3.6 1.3 4.8 5 4.8 3.6 0 5-1.3 5-4.8 0-3.6-1.4-4.9-5-4.9m-9.3 4.6c2.2-.3 2-.5 3.2-4.4H480c-.8 3.1-.9 3.3-2.2 3.3h-.4c.1-.4.1-.8.1-1.2v-2.2h-3.4v9.2h3.4v-2.9c0-.2 0-.5-.1-.7h.7c1 0 1.1.3 2 3.7h3.5c-1.1-4.3-1.2-4.4-3.4-4.8zm-15.2-.2h-1.3c-.9 0-1-.2-1-1.2 0-.7.2-.9 1-.9h1.3v2.1zm-3.6 1.2c-.6.1-1.5.2-1.8 1l-.7 2.9h3.5l.6-2.5c.1-.4.3-.5.9-.5h1.2v3h3.3v-9.3c-1.2-.1-2.1-.1-4.7-.1-3.4 0-4.2.6-4.2 3-.1 1 .3 2.1 1.9 2.5zm-9.9.7c0-.4.2-.7.8-.7h1.9v1.2c-.6.4-1.3.6-1.8.6-.6 0-.9-.3-.9-.7v-.4zm-2.5-3.7c1.5-.1 3-.1 4-.1s1.3.3 1.3 1.1v.2h-3.1c-1.8 0-3 .9-3 2.4v.9c0 1.7 1.4 2.6 3.1 2.6 1.6 0 2.7-.8 3.3-1.6l.3 1.4h2.7v-5.9c0-2.8-1.4-3.6-3.9-3.6-1.4 0-3.7.2-5.1.5l.4 2.1zm-2.3-2.3h-5.6c-1.6 0-2.4.8-2.5 2.4-.1 1.7-.3 3-.5 3.6-.2.7-.7.7-1.6.9l.3 2.5c2 .3 3.9-.1 4.2-2.4.2-.9.4-2.5.6-3.9.1-.5.3-.8.9-.8h.8v7h3.4v-9.3zm-11.3 9.2v-9.3h-2.9l-2.9 4.4c-.3.4-.5.8-.7 1.4h-.1c.1-.5.1-.9.1-1.4v-4.4h-3v9.2h2.9l2.9-4.2c.3-.4.6-1 .7-1.5h.1c-.1.6-.1 1.1-.1 1.6v4.1h3zm-15.1-6.8c2.5-.3 2.5-1.5 3.9-6.1h-3.5c-1.2 3.8-1.4 5-2.6 5h-.6c.1-.5.1-1.1.1-1.6V380h-3.3v3.4c0 .5.1 1.1.2 1.6h-.6c-1.2 0-1.5-1.2-2.6-5h-3.5c1.4 4.6 1.4 5.7 3.9 6.1v.1c-2.6.4-2.8 1.4-4.3 6.6h3.6c1.4-4.6 1.6-5.5 2.8-5.5h.6c-.1.4-.1.8-.1 1.2v4.3h3.3v-4.3c0-.4-.1-.8-.1-1.2h.6c1.3 0 1.4.8 2.8 5.5h3.7c-1.5-5.3-1.7-6.3-4.3-6.6v-.2zM925 361.7h3.6c1.3 0 1.7.2 1.7 1.2 0 .9-.1 1.4-1.5 1.4h-2.5v2.2h2.5c1.4 0 1.7.4 1.7 1.5 0 1.3-.5 1.5-2.1 1.5-1.1 0-1.9 0-3.6-.1l-.1 2.5c1.5.2 3.1.4 4.6.4 3.4 0 4.6-1.1 4.6-3.8 0-2-.6-2.9-2.4-3.2v-.1c1.7-.3 2-1.4 2-3.2 0-2.3-1.2-3-4.3-3-1.4 0-2.8.1-4.3.4l.1 2.3zm-3.8 7.2c-.9 0-1.2.3-1.2 1.2v.8c0 .9.3 1.2 1.2 1.2h.8c.9 0 1.2-.3 1.2-1.2v-.8c0-.9-.3-1.2-1.2-1.2h-.8zm-11.5-7.2h3.6c1.3 0 1.7.2 1.7 1.2 0 .9-.1 1.4-1.5 1.4H911v2.2h2.5c1.4 0 1.7.4 1.7 1.5 0 1.3-.5 1.5-2.1 1.5-1.1 0-1.9 0-3.6-.1l-.1 2.5c1.5.2 3.1.4 4.6.4 3.4 0 4.6-1.1 4.6-3.8 0-2-.6-2.9-2.4-3.2v-.1c1.7-.3 2-1.4 2-3.2 0-2.3-1.2-3-4.3-3-1.4 0-2.8.1-4.3.4l.1 2.3zm-2.6 10.3v-12.8h-3.5l-3.3 1.3.4 2.2 3-.7c-.1.5-.1 1-.1 1.5v8.5h3.5zm76.3-25.5c0-.4.2-.7.8-.7h1.9v1.2c-.6.4-1.3.6-1.8.6-.6 0-.9-.3-.9-.7v-.4zm-2.6-3.6c1.5-.1 3-.1 4-.1s1.3.3 1.3 1.1v.2H983c-1.8 0-3 .9-3 2.4v.9c0 1.7 1.4 2.6 3.1 2.6 1.6 0 2.7-.8 3.3-1.6l.3 1.4h2.7v-5.9c0-2.8-1.4-3.6-3.9-3.6-1.4 0-3.7.2-5.1.5l.4 2.1zm-1.5.1v-2.5h-9.2v2.5h2.9v6.7h3.4V343h2.9zm-16.5 3.5c0-.4.2-.7.8-.7h1.9v1.2c-.6.4-1.3.6-1.8.6-.6 0-.9-.3-.9-.7v-.4zm-2.5-3.6c1.5-.1 3-.1 4-.1s1.3.3 1.3 1.1v.2h-3.1c-1.8 0-3 .9-3 2.4v.9c0 1.7 1.4 2.6 3.1 2.6 1.6 0 2.7-.8 3.3-1.6l.3 1.4h2.7v-5.9c0-2.8-1.4-3.6-3.9-3.6-1.4 0-3.7.2-5.1.5l.4 2.1zm-2.3-2.4h-3.3v3.3h-2.8v-3.3h-3.3v9.2h3.3V346h2.8v3.7h3.3v-9.2zm-15.7 0c-.7 0-1.2.4-1.3 1l-.8 3.4c-.1.5-.1.9-.2 1.4h-.1c-.1-.5-.1-.9-.2-1.4l-.8-3.4c-.1-.7-.6-1-1.2-1h-2.9c-.8 0-1.2.4-1.2 1.2l-.2 8.1h3l.2-6.8h.2l1.1 4.5c.1.7.6 1 1.3 1h1.5c.7 0 1.1-.3 1.3-1l1.1-4.5h.2l.2 6.8h3l-.2-8.1c0-.8-.4-1.2-1.2-1.2h-2.8zm-15.3 2.1c1.1 0 1.4.5 1.4 2.5s-.3 2.5-1.4 2.5c-1.2 0-1.5-.4-1.5-2.5 0-2 .3-2.5 1.5-2.5m0-2.4c-3.6 0-5 1.3-5 4.9 0 3.6 1.3 4.8 5 4.8 3.6 0 5-1.3 5-4.8-.1-3.6-1.4-4.9-5-4.9m-9.3 4.7c2.2-.3 2-.5 3.2-4.4h-3.4c-.8 3.1-.9 3.3-2.2 3.3h-.4c.1-.4.1-.8.1-1.2v-2.2h-3.4v9.2h3.4v-2.9c0-.2 0-.5-.1-.7h.7c1 0 1.1.3 2 3.7h3.5c-1.2-4.3-1.2-4.4-3.4-4.8zm-15.3-.2h-1.3c-.9 0-1-.2-1-1.2 0-.7.2-.9 1-.9h1.3v2.1zm-3.6 1.1c-.6.1-1.5.2-1.8 1l-.7 2.9h3.5l.6-2.5c.1-.4.3-.5.9-.5h1.2v3h3.3v-9.3c-1.2-.1-2.1-.1-4.7-.1-3.4 0-4.2.6-4.2 3-.1 1.1.4 2.1 1.9 2.5zm-9.8.7c0-.4.2-.7.8-.7h1.9v1.2c-.6.4-1.3.6-1.8.6-.6 0-.9-.3-.9-.7v-.4zm-2.6-3.6c1.5-.1 3-.1 4-.1s1.3.3 1.3 1.1v.2h-3.1c-1.8 0-3 .9-3 2.4v.9c0 1.7 1.4 2.6 3.1 2.6 1.6 0 2.7-.8 3.3-1.6l.3 1.4h2.7v-5.9c0-2.8-1.4-3.6-3.9-3.6-1.4 0-3.7.2-5.1.5l.4 2.1zm-2.3-2.4h-5.6c-1.6 0-2.4.8-2.5 2.4-.1 1.7-.3 3-.5 3.6-.2.7-.7.7-1.6.9l.3 2.5c2 .3 3.9-.1 4.2-2.4.2-.9.4-2.5.6-3.9.1-.5.3-.8.9-.8h.8v7h3.4v-9.3zm-11.3 9.2v-9.3h-2.9l-2.9 4.4c-.3.4-.5.8-.7 1.4h-.1c.1-.5.1-.9.1-1.4v-4.4h-3v9.2h2.9l2.9-4.2c.3-.4.6-1 .7-1.5h.1c-.1.6-.1 1.1-.1 1.6v4.1h3zm-15-6.7c2.5-.3 2.5-1.5 3.9-6.1h-3.5c-1.2 3.8-1.4 5-2.6 5h-.6c.1-.5.1-1.1.1-1.6v-3.4h-3.3v3.4c0 .5.1 1.1.2 1.6h-.6c-1.2 0-1.5-1.2-2.6-5h-3.5c1.4 4.6 1.4 5.7 3.9 6.1v.1c-2.6.4-2.8 1.4-4.3 6.6h3.6c1.4-4.6 1.6-5.5 2.8-5.5h.6c-.1.4-.1.8-.1 1.2v4.3h3.3v-4.3c0-.4-.1-.8-.1-1.2h.6c1.3 0 1.4.8 2.8 5.5h3.7c-1.5-5.3-1.7-6.3-4.3-6.6v-.1zM502.5 549.3v-12.8H499l-3.3 1.3.4 2.2 3-.7c-.1.5-.1 1-.1 1.5v8.5h3.5zm-8.8-3.1c-.9 0-1.2.3-1.2 1.2v.8c0 .9.3 1.2 1.2 1.2h.8c.9 0 1.2-.3 1.2-1.2v-.8c0-.9-.3-1.2-1.2-1.2h-.8zm-8-7.3c1.4 0 1.8.6 1.8 4s-.4 4-1.8 4-1.8-.6-1.8-4 .4-4 1.8-4m0-2.7c-3.9 0-5.2 1.7-5.2 6.7s1.3 6.7 5.2 6.7c3.9 0 5.3-1.7 5.3-6.7s-1.4-6.7-5.3-6.7m-7.5 13.1v-12.8h-3.5l-3.3 1.3.4 2.2 3-.7c-.1.5-.1 1-.1 1.5v8.5h3.5zm59-25.5c0-.4.2-.7.8-.7h1.9v1.2c-.6.4-1.3.6-1.8.6-.6 0-.9-.3-.9-.7v-.4zm-2.5-3.6c1.5-.1 3-.1 4-.1s1.3.3 1.3 1.1v.2h-3.1c-1.8 0-3 .9-3 2.4v.9c0 1.7 1.4 2.6 3.1 2.6 1.6 0 2.7-.8 3.3-1.6l.3 1.4h2.7v-5.9c0-2.8-1.4-3.6-3.9-3.6-1.4 0-3.7.2-5.1.5l.4 2.1zm-2.3-2.4h-3.3v7h-2.2v-7h-3v7h-2.2v-7h-3.3v9.2h13.9v-9.2zm-15.9 9.2v-9.3h-2.9l-2.9 4.4c-.3.4-.5.8-.7 1.4h-.1c.1-.5.1-.9.1-1.4v-4.3h-3v9.2h2.9l2.9-4.2c.3-.4.6-1 .7-1.5h.1c-.1.6-.1 1.1-.1 1.6v4.1h3zm-11.5-9.2h-3.3v3.3h-2.8v-3.3h-3.3v9.2h3.3v-3.7h2.8v3.7h3.3v-9.2zm-11.5 3.4H488v2h5.5v-2zm-10.6.7h-1.3c-.9 0-1-.2-1-1.2 0-.7.2-.9 1-.9h1.3v2.1zm-3.7 1.2c-.6.1-1.5.2-1.8 1l-.7 2.9h3.5l.6-2.5c.1-.4.3-.5.9-.5h1.2v3h3.3v-9.3c-1.2-.1-2.1-.1-4.7-.1-3.4 0-4.2.6-4.2 3-.1 1 .4 2.1 1.9 2.5zm-3.8-5.3h-3.3v3.3h-2.8v-3.3H466v9.2h3.3v-3.7h2.8v3.7h3.3v-9.2zm-13.9 9.2h3.4l-2.8-4.7 2.5-4.5h-3.4l-1.8 3.5-1.8-3.5h-3.4l2.5 4.5-2.8 4.7h3.4l2-3.7 2.2 3.7zm-7.5-9.2h-3.6l-1.4 5.5c-.1.4-.2 1-.4 1.6h-.2c-.1-.5-.2-1.1-.3-1.6l-1.4-5.5h-3.6l2.9 8.4c.1.5.6.8 1.1.8h.6c-.2.5-.6.9-1 1.1-.6.3-1.4.4-2.6.4l-.3 2.2c1.3.2 2.7.3 3.8-.2 1.4-.5 2.5-1.4 3.2-3.6l3.2-9.1zm-15.2 2.4c2.5-.3 2.6-1.5 4-6.1h-3.6c-1 3.8-1.2 5-3 5h-.6c.1-.5.1-1.1.1-1.6v-3.4h-3.5V527h3.5v-4.3c0-.4-.1-.8-.1-1.2h.7c1.8 0 1.9.8 3.3 5.5h3.6c-1.6-5.3-1.7-6.3-4.4-6.6v-.2zm357.7 40c1.4 0 1.7.3 1.7 1.7 0 1.3-.3 1.6-1.7 1.6-1.5 0-1.8-.3-1.8-1.6s.3-1.7 1.8-1.7m-.1-5.2c1.3 0 1.6.3 1.6 1.5 0 1.1-.2 1.4-1.5 1.4s-1.6-.3-1.6-1.4c-.1-1.2.2-1.5 1.5-1.5m-2.7 4.1c-1.8.2-2.3 1.7-2.3 3.4 0 2.5 1 3.5 5 3.5 4.1 0 5-1 5-3.5 0-1.7-.4-3.3-2.3-3.4v-.1c1.4-.1 2-1.6 2-2.9 0-2.4-.8-3.4-4.7-3.4-3.9 0-4.7 1-4.7 3.4 0 1.4.6 2.8 2 3zm-5.9 3.5c-.9 0-1.2.3-1.2 1.2v.8c0 .9.3 1.2 1.2 1.2h.8c.9 0 1.2-.3 1.2-1.2v-.8c0-.9-.3-1.2-1.2-1.2h-.8zm-11.6-7.2h3.6c1.3 0 1.7.2 1.7 1.2 0 .9-.1 1.4-1.5 1.4h-2.5v2.2h2.5c1.4 0 1.7.4 1.7 1.5 0 1.3-.5 1.5-2.1 1.5-1.1 0-1.9 0-3.6-.1l-.1 2.5c1.4.2 3.1.4 4.6.4 3.4 0 4.6-1.1 4.6-3.8 0-1.9-.6-2.9-2.4-3.2v-.1c1.7-.3 2-1.4 2-3.2 0-2.3-1.2-3-4.3-3-1.4 0-2.8.1-4.3.4l.1 2.3zm-11 .3c1.8-.1 2.7-.1 4-.1 1 0 1.4.1 1.4.6 0 .7-.8 1.9-2.3 3.3l-2.9 3c-.4.4-.5.8-.5 1.4v1.8h9.6v-3h-3.7c-.6 0-1.2 0-1.8.2l3.2-3.1c1.7-1.8 2-2.6 2-4 0-2.5-1.8-3.1-4.5-3.1-1.4 0-2.7.1-4.6.4l.1 2.6zm84-15.4c0-.4.2-.7.8-.7h1.9v1.2c-.6.4-1.3.6-1.8.6-.6 0-.9-.3-.9-.7v-.4zm-2.6-3.7c1.5-.1 3-.1 4-.1s1.3.3 1.3 1.1v.2h-3.1c-1.8 0-3 .9-3 2.4v.9c0 1.7 1.4 2.6 3.1 2.6 1.6 0 2.7-.8 3.3-1.6l.3 1.4h2.7v-5.9c0-2.8-1.4-3.6-3.9-3.6-1.4 0-3.7.2-5.1.5l.4 2.1zm-1.5.2v-2.5h-9.2v2.5h2.9v6.7h3.4v-6.7h2.9zm-16.5 3.5c0-.4.2-.7.8-.7h1.9v1.2c-.6.4-1.3.6-1.8.6-.6 0-.9-.3-.9-.7v-.4zm-2.5-3.7c1.5-.1 3-.1 4-.1s1.3.3 1.3 1.1v.2h-3.1c-1.8 0-3 .9-3 2.4v.9c0 1.7 1.4 2.6 3.1 2.6 1.6 0 2.7-.8 3.3-1.6l.3 1.4h2.7v-5.9c0-2.8-1.4-3.6-3.9-3.6-1.4 0-3.7.2-5.1.5l.4 2.1zm-2.3-2.4h-3.3v3.3h-2.8v-3.3h-3.3v9.2h3.3v-3.7h2.8v3.7h3.3v-9.2zm-15.7 0c-.7 0-1.2.4-1.3 1l-.8 3.4c-.1.5-.1.9-.2 1.4h-.1c-.1-.5-.1-.9-.2-1.4l-.8-3.4c-.1-.7-.6-1-1.2-1h-2.9c-.8 0-1.2.4-1.2 1.2l-.2 8.1h3l.2-6.8h.2l1.1 4.5c.1.7.6 1 1.3 1h1.5c.7 0 1.1-.3 1.3-1l1.1-4.5h.2l.2 6.8h3l-.2-8.1c0-.8-.4-1.2-1.2-1.2h-2.8zm-15.3 2.1c1.1 0 1.4.5 1.4 2.5s-.3 2.5-1.4 2.5c-1.2 0-1.5-.4-1.5-2.5 0-2 .3-2.5 1.5-2.5m0-2.3c-3.6 0-5 1.3-5 4.9 0 3.6 1.3 4.8 5 4.8 3.6 0 5-1.3 5-4.8-.1-3.6-1.4-4.9-5-4.9m-9.3 4.6c2.2-.3 2-.5 3.2-4.4h-3.4c-.8 3.1-.9 3.3-2.2 3.3h-.4c.1-.4.1-.8.1-1.2v-2.2h-3.4v9.2h3.4v-2.9c0-.2 0-.5-.1-.7h.7c1 0 1.1.3 2 3.7h3.5c-1.2-4.3-1.2-4.4-3.4-4.8zm-15.2-.2H767c-.9 0-1-.2-1-1.2 0-.7.2-.9 1-.9h1.3v2.1zm-3.7 1.1c-.6.1-1.5.2-1.8 1l-.7 2.9h3.5l.6-2.5c.1-.4.3-.5.9-.5h1.2v3h3.3v-9.3c-1.2-.1-2.1-.1-4.7-.1-3.4 0-4.2.6-4.2 3-.1 1.1.4 2.1 1.9 2.5zm-9.8.8c0-.4.2-.7.8-.7h1.9v1.2c-.6.4-1.3.6-1.8.6-.6 0-.9-.3-.9-.7v-.4zm-2.5-3.7c1.5-.1 3-.1 4-.1s1.3.3 1.3 1.1v.2h-3.1c-1.8 0-3 .9-3 2.4v.9c0 1.7 1.4 2.6 3.1 2.6 1.6 0 2.7-.8 3.3-1.6l.3 1.4h2.7v-5.9c0-2.8-1.4-3.6-3.9-3.6-1.4 0-3.7.2-5.1.5l.4 2.1zm-2.4-2.4h-5.6c-1.6 0-2.4.8-2.5 2.4-.1 1.7-.3 3-.5 3.6-.2.7-.7.7-1.6.9l.3 2.5c2 .3 3.9-.1 4.2-2.4.2-.9.4-2.5.6-3.9.1-.5.3-.8.9-.8h.8v7h3.4v-9.3zm-11.3 9.3v-9.3h-2.9l-2.9 4.4c-.3.4-.5.8-.7 1.4h-.1c.1-.5.1-.9.1-1.4v-4.4h-3v9.2h2.9l2.9-4.2c.3-.4.6-1 .7-1.5h.1c-.1.6-.1 1.1-.1 1.6v4.1h3zm-15-6.8c2.5-.3 2.5-1.5 3.9-6.1H724c-1.2 3.8-1.4 5-2.6 5h-.6c.1-.5.1-1.1.1-1.6v-3.4h-3.3v3.4c0 .5.1 1.1.2 1.6h-.6c-1.2 0-1.5-1.2-2.6-5H711c1.4 4.6 1.4 5.7 3.9 6.1v.1c-2.6.4-2.8 1.4-4.3 6.6h3.6c1.4-4.6 1.6-5.5 2.8-5.5h.6c-.1.4-.1.8-.1 1.2v4.3h3.3v-4.3c0-.4-.1-.8-.1-1.2h.6c1.3 0 1.4.8 2.8 5.5h3.7c-1.5-5.3-1.7-6.3-4.3-6.6v-.1zm-14.7-117.5c0-1.5.1-2.1 1.5-2.1 1.5 0 1.6.5 1.6 3.3-.6.4-1 .5-1.6.5-1.2 0-1.5-.4-1.5-1.7m-2.7 8.3c1.5.4 2.9.4 3.6.4 4.1 0 5.6-1 5.6-6.8 0-5.2-.9-6.5-4.9-6.5-3.7 0-4.8 1.4-4.8 4.7 0 2.3.8 4 3.7 4 1.2 0 1.9-.2 2.6-.8-.1 2.2-.5 2.8-2.2 2.8h-3.4l-.2 2.2zm-4-3c-.9 0-1.2.3-1.2 1.2v.8c0 .9.3 1.2 1.2 1.2h.8c.9 0 1.2-.3 1.2-1.2v-.8c0-.9-.3-1.2-1.2-1.2h-.8zm-11.5-7.2h3.6c1.3 0 1.7.2 1.7 1.2 0 .9-.1 1.4-1.5 1.4H692v2.2h2.5c1.4 0 1.7.4 1.7 1.5 0 1.3-.5 1.5-2.1 1.5-1.1 0-1.9 0-3.6-.1l-.1 2.5c1.4.2 3.1.4 4.6.4 3.4 0 4.6-1.1 4.6-3.8 0-2-.6-2.9-2.4-3.2v-.1c1.7-.3 2-1.4 2-3.2 0-2.3-1.2-3-4.3-3-1.4 0-2.8.1-4.3.4l.1 2.3zm45.6-18.4c.6-.4 1-.6 1.7-.6.9 0 1.2.4 1.2 2.5s-.4 2.4-1.3 2.4c-.7 0-1.1-.2-1.6-.3v-4zm-.6-2.8H733v12.7h3.4v-2c0-.6 0-1.4-.1-2 .8.6 1.8.8 3 .8 2.3 0 3.5-1 3.5-4.8 0-3.1-.9-4.9-3.3-4.9-1.5 0-2.9.7-3.5 1.5l-.3-1.3zm-9.3 2.1c1.1 0 1.4.5 1.4 2.5s-.3 2.5-1.4 2.5c-1.2 0-1.5-.4-1.5-2.5 0-2 .3-2.5 1.5-2.5m0-2.4c-3.6 0-5 1.3-5 4.9 0 3.6 1.3 4.8 5 4.8 3.6 0 5-1.3 5-4.8 0-3.6-1.4-4.9-5-4.9m-10.6 7.2h-2.7c.5-1.1.8-2.3 1.1-4.1.1-.5.4-.7.8-.7h.8v4.8zm4.7 0H719v-7h-5.1c-1.7 0-2.5.8-2.7 2.2-.2 1.6-.5 3.1-1.1 4.7h-1.2v4.8h2.2l.2-2.6h6.6l.2 2.6h2.2V403zm-12.8 2.3V396h-2.9l-2.9 4.4c-.3.4-.5.8-.7 1.4h-.2c.1-.5.1-.9.1-1.4v-4.3h-3v9.2h2.9l2.9-4.2c.3-.4.6-1 .7-1.5h.1c-.1.6-.1 1.1-.1 1.6v4.1h3.1zm-17.6-6.4c.6-.4 1-.6 1.7-.6.9 0 1.2.4 1.2 2.5s-.4 2.4-1.3 2.4c-.7 0-1.1-.2-1.6-.3v-4zm-.7-2.8h-2.7v12.7h3.4v-2c0-.6 0-1.4-.1-2 .8.6 1.8.8 3 .8 2.3 0 3.5-1 3.5-4.8 0-3.1-.9-4.9-3.3-4.9-1.5 0-2.9.7-3.5 1.5l-.3-1.3zm-9.3 2.1c1.1 0 1.4.5 1.4 2.5s-.3 2.5-1.4 2.5c-1.2 0-1.5-.4-1.5-2.5.1-2 .4-2.5 1.5-2.5m0-2.4c-3.6 0-5 1.3-5 4.9 0 3.6 1.3 4.8 5 4.8 3.6 0 5-1.3 5-4.8 0-3.6-1.3-4.9-5-4.9m-10 2.8c2.5-.3 2.6-1.5 4-6.1h-3.6c-1 3.8-1.2 5-3 5h-.6c.1-.5.1-1.1.1-1.6v-3.4h-3.5v12.8h3.5V401c0-.4-.1-.8-.1-1.2h.7c1.8 0 1.9.8 3.3 5.5h3.6c-1.6-5.3-1.7-6.3-4.4-6.6v-.1zm-336.4 3.2c2 .9 2.8 3.6 2.8 7.4 0 3.8-.7 6.5-2.8 7.5l.4 1.4c3.9-1.1 5.7-3.9 5.7-8.9s-1.8-7.8-5.7-8.9l-.4 1.5zm-10 3.3c1.8-.1 2.7-.1 4-.1 1 0 1.4.1 1.4.6 0 .7-.8 1.9-2.3 3.3l-2.9 3c-.4.4-.5.8-.5 1.4v1.8h9.6v-3h-3.7c-.6 0-1.2 0-1.8.2l3.2-3.1c1.7-1.8 2-2.6 2-4 0-2.5-1.8-3.1-4.5-3.1-1.4 0-2.7.1-4.6.4l.1 2.6zm-3.7 6.8c-.9 0-1.2.3-1.2 1.2v.8c0 .9.3 1.2 1.2 1.2h.8c.9 0 1.2-.3 1.2-1.2v-.8c0-.9-.3-1.2-1.2-1.2h-.8zm-11.9-6.8c1.8-.1 2.7-.1 4-.1 1 0 1.4.1 1.4.6 0 .7-.8 1.9-2.3 3.3l-2.9 3c-.4.4-.5.8-.5 1.4v1.8h9.6v-3h-3.7c-.6 0-1.2 0-1.8.2l3.2-3.1c1.7-1.8 2-2.6 2-4 0-2.5-1.8-3.1-4.5-3.1-1.4 0-2.7.1-4.6.4l.1 2.6zm-1.6-4.7c-3.9 1.1-5.7 3.9-5.7 8.9s1.8 7.8 5.7 8.9l.4-1.4c-2-.9-2.8-3.6-2.8-7.5s.7-6.6 2.8-7.4l-.4-1.5zm-10.7 9.7h-1.5v-5.3h-2.6l-.6 2v3.3h-2.5c-.3 0-.5-.2-.3-.5l2.8-7.3h-3.3l-3.2 8.1c-.4 1 .3 2 1.4 2h5.1v2.7h3.2v-2.7l1.5-.3v-2zm-14.3 1.8c-.9 0-1.2.3-1.2 1.2v.8c0 .9.3 1.2 1.2 1.2h.8c.9 0 1.2-.3 1.2-1.2v-.8c0-.9-.3-1.2-1.2-1.2h-.8zm-2.4-1.8h-1.5v-5.3H275l-.6 2v3.3h-2.5c-.3 0-.5-.2-.3-.5l2.8-7.3h-3.3l-3.2 8.1c-.4 1 .3 2 1.4 2h5.1v2.7h3.2v-2.7l1.5-.3v-2zm762.1 176c2 .9 2.8 3.6 2.8 7.4 0 3.8-.7 6.5-2.8 7.5l.4 1.4c3.9-1.1 5.7-3.9 5.7-8.9s-1.8-7.8-5.7-8.9l-.4 1.5zm-5.3 10.9c-1.5 0-1.6-.5-1.7-3.3.6-.4 1-.5 1.6-.5 1.2 0 1.5.3 1.5 1.7.1 1.6 0 2.1-1.4 2.1m3.9-10.3c-1.3-.4-2.6-.4-3.3-.4-3.7 0-5.6.9-5.6 6.8 0 5.2 1.2 6.5 5 6.5 3.9 0 4.8-1.5 4.8-4.7 0-2.8-.8-4-3.8-4-1.1 0-1.9.2-2.6.7.1-2.4.6-2.8 2.2-2.8h3.2l.1-2.1zm-12.4 9.5c-.9 0-1.2.3-1.2 1.2v.8c0 .9.3 1.2 1.2 1.2h.8c.9 0 1.2-.3 1.2-1.2v-.8c0-.9-.3-1.2-1.2-1.2h-.8zm-3.5 3.1v-12.8h-3.5l-3.3 1.3.4 2.2 3-.7c-.1.5-.1 1-.1 1.5v8.5h3.5zm-7.2-14.6c-3.9 1.1-5.7 3.9-5.7 8.9s1.8 7.8 5.7 8.9l.4-1.4c-2-.9-2.8-3.6-2.8-7.5s.7-6.6 2.8-7.4l-.4-1.5zm-20.2 4.6c1.8-.1 2.7-.1 4-.1 1 0 1.4.1 1.4.6 0 .7-.8 1.9-2.3 3.3l-2.9 3c-.4.4-.5.8-.5 1.4v1.8h9.6v-3h-3.7c-.6 0-1.2 0-1.8.2l3.2-3.1c1.7-1.8 2-2.6 2-4 0-2.5-1.8-3.1-4.5-3.1-1.4 0-2.7.1-4.6.4l.1 2.6zm-3.7 6.9c-.9 0-1.2.3-1.2 1.2v.8c0 .9.3 1.2 1.2 1.2h.8c.9 0 1.2-.3 1.2-1.2v-.8c0-.9-.3-1.2-1.2-1.2h-.8zm-11.6-7.2h3.6c1.3 0 1.7.2 1.7 1.2 0 .9-.1 1.4-1.5 1.4h-2.5v2.2h2.5c1.4 0 1.7.4 1.7 1.5 0 1.3-.5 1.5-2.1 1.5-1.1 0-1.9 0-3.6-.1l-.1 2.5c1.4.2 3.1.4 4.6.4 3.4 0 4.6-1.1 4.6-3.8 0-2-.6-2.9-2.4-3.2v-.1c1.7-.3 2-1.4 2-3.2 0-2.3-1.2-3-4.3-3-1.4 0-2.8.1-4.3.4l.1 2.3zm-473-241.1c3.3 0 4.2 1.4 4.2 9.2 0 7.8-.9 9.2-4.2 9.2-3.1 0-4-1.4-4-9.2 0-7.8.9-9.2 4-9.2m.1-6.1c-8.9 0-11.9 3.8-11.9 15.3 0 11.4 3.1 15.3 11.9 15.3 8.9 0 12-3.8 12-15.3s-3.1-15.3-12-15.3m-20 22.7c-2 0-2.7.6-2.7 2.7v1.9c0 2 .6 2.7 2.7 2.7h1.8c2 0 2.7-.6 2.7-2.7v-1.9c0-2-.6-2.7-2.7-2.7h-1.8zm-7.9 7.2v-29.3h-7.9l-7.4 2.9.9 5.1 6.8-1.5c-.3 1.2-.3 2.3-.3 3.5v19.4h7.9zM451.5 359c3.2 0 3.9.7 3.9 3.8 0 2.9-.7 3.7-4 3.7s-4.1-.7-4.1-3.7c.1-3 .8-3.8 4.2-3.8m-.1-11.8c2.9 0 3.6.6 3.6 3.5 0 2.6-.6 3.2-3.5 3.2-3 0-3.7-.6-3.7-3.2 0-2.9.7-3.5 3.6-3.5m-6.3 9.4c-4.2.4-5.2 3.9-5.2 7.8 0 5.7 2.4 7.9 11.5 7.9 9.3-.1 11.5-2.2 11.5-7.9 0-3.9-1-7.4-5.2-7.8v-.2c3.2-.3 4.5-3.6 4.5-6.7 0-5.5-1.9-7.9-10.8-7.9-8.8 0-10.8 2.4-10.8 7.9 0 3.1 1.3 6.4 4.5 6.7v.2z" class="st1"/><circle cx="480" cy="309.3" r="26" style="fill:none;stroke:#39373a;stroke-width:.866" transform="rotate(-67.5 480 309.318)"/><path d="M495.6 315.3c-2 .2-3.7.2-6.7.2-2.5 0-3.2-1.3-3.2-6.1s.7-6.1 3.2-6.1c2.8 0 4.2 0 6.3.1l.4-4.3c-2-.6-3.6-.8-6.7-.8-6.8 0-9.3 2.9-9.3 11s2.5 11 9.3 11c3.2 0 5.1-.2 7.2-1l-.5-4zM462.3 303c1.6 0 3.7-.1 5.9-.1s2.8.3 2.8 2c0 1.5-.2 2.3-2.5 2.3h-4.1v3.7h4.1c2.3 0 2.8.7 2.8 2.5 0 2.2-.8 2.6-3.5 2.6-1.9 0-3.2 0-5.9-.2l-.2 4.2c2.4.3 5.1.6 7.7.6 5.7 0 7.7-1.9 7.7-6.4 0-3.2-1-4.9-4-5.3v-.1c2.8-.4 3.4-2.3 3.4-5.4 0-3.8-2-5-7.2-5-2.4 0-4.7.2-7.1.6l.1 4zm-33.7 356.2.1-2.6h-8l-.3 5.8c0 .6.4 1.1 1 1.2l2 .2c1.7.1 2.4.4 2.3 1.6-.1 1-.4 1.5-2.1 1.5-.9 0-2.1-.1-3.3-.1l-.3 2.6c1.6.2 3.3.4 4.6.4 3.6 0 4.7-1.9 4.7-4.2 0-2.1-.8-3.9-3.8-4.2l-2.1-.3.1-1.8h5.1zm-12 7.1c-.9 0-1.2.3-1.2 1.2v.8c0 .9.3 1.2 1.2 1.2h.8c.9 0 1.2-.3 1.2-1.2v-.8c0-.9-.3-1.2-1.2-1.2h-.8zm-7.3.8c-1.5 0-1.6-.5-1.7-3.3.6-.4 1-.5 1.6-.5 1.2 0 1.5.3 1.5 1.7.1 1.5 0 2.1-1.4 2.1m3.9-10.4c-1.3-.4-2.6-.4-3.3-.4-3.7 0-5.6.9-5.6 6.8 0 5.2 1.2 6.5 5 6.5 3.9 0 4.8-1.5 4.8-4.7 0-2.8-.8-4-3.8-4-1.1 0-1.9.2-2.6.7.1-2.4.6-2.8 2.2-2.8h3.2l.1-2.1zm46.7-14.7h-1.3c-.9 0-1-.2-1-1.2 0-.7.2-.9 1-.9h1.3v2.1zm-3.7 1.2c-.6.1-1.5.2-1.8 1l-.7 2.9h3.5l.6-2.5c.1-.4.3-.5.9-.5h1.2v3h3.3v-9.3c-1.2-.1-2.1-.1-4.7-.1-3.4 0-4.2.7-4.2 3-.1 1 .4 2.1 1.9 2.5zm-9.8.7c0-.4.2-.7.8-.7h1.9v1.2c-.6.4-1.3.6-1.8.6-.6 0-.9-.3-.9-.7v-.4zm-2.5-3.6c1.5-.1 3-.1 4-.1s1.3.3 1.3 1.1v.2H446c-1.8 0-3 .9-3 2.4v.9c0 1.7 1.4 2.6 3.1 2.6 1.6 0 2.7-.8 3.3-1.6l.3 1.4h2.7v-5.9c0-2.8-1.4-3.6-3.9-3.6-1.4 0-3.7.2-5.1.5l.5 2.1zm-5.2 1.9c2.2-.3 2.1-.6 3.3-4.4h-3.3c-1 3-1.1 3.4-2 3.4h-.6c.1-.4.1-.8.1-1.2v-2.2h-2.9v2.2c0 .4 0 .8.1 1.2h-.6c-.9 0-1-.3-2-3.4h-3.3c1.2 3.8 1.1 4.1 3.3 4.4v.1c-2.2.3-2.3.5-3.6 4.8h3.4c1.2-3.5 1.3-3.7 2-3.7h.7c-.1.3-.1.6-.1.8v2.9h3v-2.9c0-.2 0-.5-.1-.8h.7c.8 0 .9.2 2.1 3.7h3.4c-1.3-4.3-1.4-4.5-3.6-4.9zm-17.3-2.2c1.1 0 1.4.5 1.4 2.5s-.3 2.5-1.4 2.5c-1.2 0-1.5-.4-1.5-2.5.1-2.1.4-2.5 1.5-2.5m0-2.4c-3.6 0-5 1.3-5 4.9 0 3.6 1.3 4.8 5 4.8 3.6 0 5-1.3 5-4.8 0-3.6-1.3-4.9-5-4.9m-8.7 9.5h3.4l-2.8-4.7 2.5-4.5h-3.4l-1.8 3.5-1.8-3.5h-3.4l2.5 4.5-2.8 4.7h3.4l2-3.7 2.2 3.7zm-8.5 0v-9.3h-2.9l-2.9 4.4c-.3.4-.5.8-.7 1.4h-.1c.1-.5.1-.9.1-1.4v-4.3h-3v9.2h2.9l2.9-4.2c.3-.4.6-1 .7-1.5h.1c-.1.6-.1 1.1-.1 1.6v4.1h3zm-17.6-6.4c.6-.4 1-.6 1.7-.6.9 0 1.2.4 1.2 2.5s-.4 2.4-1.3 2.4c-.7 0-1.1-.2-1.6-.3v-4zm-.6-2.8h-2.7v12.7h3.4v-2c0-.7 0-1.4-.1-2 .8.6 1.8.8 3 .8 2.3 0 3.5-1 3.5-4.8 0-3.1-.9-4.9-3.3-4.9-1.5 0-2.9.7-3.5 1.5l-.3-1.3zm-4.9-3.6h-10.7v12.8h3.5v-10.5h3.8v10.5h3.5v-12.8zm366-298.5h2.1c.8 0 1 .1 1 .7 0 .5-.1.8-.9.8h-1.5v1.3h1.5c.8 0 1 .2 1 .9 0 .8-.3.9-1.3.9-.7 0-1.2 0-2.1-.1l-.1 1.5c.9.1 1.8.2 2.8.2 2 0 2.8-.7 2.8-2.3 0-1.2-.3-1.8-1.4-1.9 1-.2 1.2-.8 1.2-1.9 0-1.4-.7-1.8-2.6-1.8-.8 0-1.7.1-2.6.2l.1 1.5zm-2.3 4.3c-.5 0-.7.2-.7.7v.5c0 .5.2.7.7.7h.5c.5 0 .7-.2.7-.7v-.5c0-.5-.2-.7-.7-.7h-.5zm-6.9-4.3h2.1c.8 0 1 .1 1 .7 0 .5-.1.8-.9.8h-1.5v1.3h1.5c.8 0 1 .2 1 .9 0 .8-.3.9-1.3.9-.7 0-1.2 0-2.1-.1l-.1 1.5c.9.1 1.8.2 2.8.2 2 0 2.8-.7 2.8-2.3 0-1.2-.3-1.8-1.4-1.9 1-.2 1.2-.8 1.2-1.9 0-1.4-.7-1.8-2.6-1.8-.8 0-1.7.1-2.6.2l.1 1.5zm24.9-10.3h-.8c-.5 0-.6-.1-.6-.7 0-.4.1-.5.6-.5h.8v1.2zm-2.2.7c-.3 0-.9.1-1.1.6l-.4 1.8h2.1l.3-1.5c0-.3.2-.3.5-.3h.7v1.8h2V323c-.7-.1-1.3-.1-2.8-.1-2 0-2.5.4-2.5 1.8 0 .6.3 1.3 1.2 1.5zm-5.9.4c0-.3.1-.4.5-.4h1.2v.7c-.4.2-.8.4-1.1.4-.4 0-.5-.2-.5-.4v-.3zm-1.5-2.1c.9-.1 1.8-.1 2.4-.1.6 0 .8.2.8.6v.1h-1.8c-1.1 0-1.8.5-1.8 1.4v.6c0 1 .8 1.6 1.9 1.6 1 0 1.6-.5 2-1l.2.8h1.6V325c0-1.7-.8-2.2-2.3-2.2-.8 0-2.2.1-3 .3v1.4zm-1.4-1.5h-2v2h-1.7v-2h-2v5.5h2v-2.2h1.7v2.2h2V323zm-6.9 0h-2v2h-1.7v-2h-2v5.5h2v-2.2h1.7v2.2h2V323zm-10.5 3.6c0-.3.1-.4.5-.4h1.2v.7c-.4.2-.8.4-1.1.4-.4 0-.5-.2-.5-.4v-.3zm-1.5-2.1c.9-.1 1.8-.1 2.4-.1.6 0 .8.2.8.6v.1h-1.8c-1.1 0-1.8.5-1.8 1.4v.6c0 1 .8 1.6 1.9 1.6 1 0 1.6-.5 2-1l.2.8h1.6V325c0-1.7-.8-2.2-2.3-2.2-.8 0-2.2.1-3 .3v1.4zm-5.3 2.7v-2h1.1c.8 0 1 .2 1 1s-.2.9-1 .9l-1.1.1zm0-3.3v-1.7h1c.7 0 .9.2.9.8 0 .7-.2.9-.9.9h-1zm2.5.6c1-.1 1.4-.6 1.4-1.8 0-1.6-.7-2-2.8-2-1.4 0-2.2 0-3.1.1v7.7c1 .1 1.9.1 3.5.1 1.9 0 2.7-.4 2.7-2-.1-1.2-.5-1.9-1.7-2.1zm-91.9 30.3h2.1c.8 0 1 .1 1 .7 0 .5-.1.8-.9.8H639v1.3h1.5c.8 0 1 .2 1 .9 0 .8-.3.9-1.3.9-.7 0-1.2 0-2.1-.1l-.1 1.7c.9.1 1.8.2 2.8.2 2 0 2.8-.7 2.8-2.3 0-1.2-.3-1.8-1.4-1.9 1-.2 1.2-.8 1.2-1.9 0-1.4-.7-1.8-2.6-1.8-.8 0-1.7.1-2.6.2v1.3zm-2.3 4.3c-.5 0-.7.2-.7.7v.5c0 .5.2.7.7.7h.5c.5 0 .7-.2.7-.7v-.5c0-.5-.2-.7-.7-.7h-.5zm-2 1.9v-7.7h-2.1l-2 .8.2 1.3 1.8-.4c-.1.3-.1.6-.1.9v5.1h2.2zm12.6-18.9h-2.2l-.8 3.3c-.1.3-.1.6-.2.9h-.1c0-.3-.1-.6-.2-.9l-.8-3.3H640l1.7 5.1c.1.3.3.5.6.5h.4c-.1.3-.4.5-.6.7-.4.2-.8.3-1.6.2l-.2 1.3c.8.1 1.6.2 2.3-.1.9-.3 1.5-.9 1.9-2.2l2-5.5zm-10.9 6.4 4.4-8.5h-1.6l-4.4 8.5h1.6zm-2.2-2.6c-.7.1-1.4.1-2.4.1-.9 0-1.2-.5-1.2-2.2 0-1.7.3-2.2 1.2-2.2h2.3l.2-1.5c-.7-.2-1.3-.3-2.4-.3-2.5 0-3.4 1-3.4 4 0 2.9.9 4 3.4 4 1.2 0 1.9-.1 2.6-.3l-.3-1.6zM500 706.2l.1 1.7h3.3c-.2.3-.3.5-.4.8l-1.9 5.2h2.1l2.3-6.7c.2-.6-.2-1-.8-1H500zm-1.5 5.8c-.5 0-.7.2-.7.7v.5c0 .5.2.7.7.7h.5c.5 0 .7-.2.7-.7v-.5c0-.5-.2-.7-.7-.7h-.5zm-2.1 1.9v-7.7h-2.1l-2 .8.2 1.3 1.8-.4c-.1.3-.1.6-.1.9v5.1h2.2zm12.3-19h-2.2l-.8 3.3c-.1.3-.1.6-.2.9h-.1c0-.3-.1-.6-.2-.9l-.8-3.3h-2.2l1.7 5.1c.1.3.3.5.6.5h.4c-.1.3-.4.5-.6.7-.4.2-.8.3-1.6.2l-.2 1.3c.8.1 1.6.2 2.3-.1.9-.3 1.5-.9 1.9-2.2l2-5.5zm-10.9 6.4 4.4-8.5h-1.6l-4.4 8.5h1.6zm-2.2-2.6c-.7.1-1.4.1-2.4.1-.9 0-1.2-.5-1.2-2.2 0-1.7.3-2.2 1.2-2.2h2.3l.2-1.5c-.7-.2-1.3-.3-2.4-.3-2.5 0-3.4 1-3.4 4s.9 4 3.4 4c1.2 0 1.9-.1 2.6-.3l-.3-1.6zm51.8-14.3h77.7v8.3h-77.7z" class="st1"/><path d="M547.4 684.4h77.7v8.3h-77.7z" class="st2"/></svg>