<svg width="23" height="28" viewBox="0 0 23 28" fill="none" xmlns="http://www.w3.org/2000/svg">
<path d="M6.48514 24.6506H2.60484C1.97798 24.6506 1.47021 24.1432 1.47021 23.5167V5.10993C1.47021 4.48342 1.97798 3.97595 2.60484 3.97595H5.85827" stroke="black" stroke-miterlimit="10" stroke-linecap="round" stroke-linejoin="round"/>
<path d="M14.0074 3.97595H17.2609C17.8877 3.97595 18.3955 4.48342 18.3955 5.10993V11.494" stroke="black" stroke-miterlimit="10" stroke-linecap="round" stroke-linejoin="round"/>
<path d="M13.3805 4.60244H5.85815V2.67907C5.85815 2.0087 6.40353 1.46991 7.06801 1.46991H12.1644C12.8352 1.46991 13.3743 2.01497 13.3743 2.67907V4.60244H13.3805Z" stroke="black" stroke-miterlimit="10" stroke-linecap="round" stroke-linejoin="round"/>
<path d="M5.23132 14H15.2612" stroke="black" stroke-miterlimit="10" stroke-linecap="round" stroke-linejoin="round"/>
<path d="M5.23132 8.98798H15.888" stroke="black" stroke-miterlimit="10" stroke-linecap="round" stroke-linejoin="round"/>
<path d="M5.23132 16.506H12.7537" stroke="black" stroke-miterlimit="10" stroke-linecap="round" stroke-linejoin="round"/>
<path d="M5.23132 11.494H14.0074" stroke="black" stroke-miterlimit="10" stroke-linecap="round" stroke-linejoin="round"/>
<path d="M10.3843 25.6343L9.63201 25.7909C9.38127 25.5403 9.30604 25.4651 9.0553 25.2145L9.21201 24.4627C9.43142 23.4227 9.94545 22.4642 10.6977 21.7124L18.5147 13.9061C19.1854 13.2357 20.2762 13.2357 20.9469 13.9061C21.2854 14.2444 21.4484 14.683 21.4484 15.1215C21.4484 15.5601 21.2792 16.0049 20.9469 16.3369L13.1362 24.1495C12.384 24.9013 11.4311 25.415 10.3843 25.6343Z" stroke="black" stroke-miterlimit="10" stroke-linecap="round" stroke-linejoin="round"/>
<path d="M18.0758 14.3447L20.5143 16.7755" stroke="black" stroke-miterlimit="10" stroke-linecap="round" stroke-linejoin="round"/>
<path d="M13.7881 18.6362L16.2203 21.0671" stroke="black" stroke-miterlimit="10" stroke-linecap="round" stroke-linejoin="round"/>
<path d="M19.0224 18.2666L20.0254 17.2642C20.3702 16.9196 20.9281 16.9196 21.2666 17.2642C21.6114 17.6087 21.6114 18.1663 21.2666 18.5047L17.5869 22.1822" stroke="black" stroke-miterlimit="10" stroke-linecap="round" stroke-linejoin="round"/>
<path d="M9.34357 25.509L8.32178 26.5302" stroke="black" stroke-miterlimit="10" stroke-linecap="round" stroke-linejoin="round"/>
</svg>
