<svg xmlns="http://www.w3.org/2000/svg" xmlns:xlink="http://www.w3.org/1999/xlink" xml:space="preserve" id="Слой_1" x="0" y="0" style="enable-background:new 0 0 252 442" version="1.1" viewBox="0 0 252 442"><style>.st1{fill:#f2dfeb}.st2{fill:#39363a}.st3{fill:none;stroke:#39363a;stroke-width:.75}.st7{clip-path:url(#SVGID_8_);fill:#39363a}.st11{stroke-width:.7}.st11,.st19,.st24,.st25{fill:none;stroke:#39363a}.st19{stroke-width:.25}.st24{stroke-width:.6}.st25{clip-path:url(#SVGID_30_);stroke-width:.7}.st26,.st27{clip-path:url(#SVGID_32_);fill:#39363a}.st27{fill:none;stroke:#39363a;stroke-width:.25}.st28,.st29{clip-path:url(#SVGID_34_);fill:#39363a}.st29{fill:none;stroke:#39363a;stroke-width:.25}</style><switch><g><defs><path id="SVGID_1_" d="M17 10.3h216.9V428H17z"/></defs><clipPath id="SVGID_2_"><use xlink:href="#SVGID_1_" style="overflow:visible"/></clipPath><path d="M25.8 43.3c.5-.4 5.9-3.5 5.9-3.5l93.8-14.9.8 55.8-97.2 4.7-3.3-42.1z" style="clip-path:url(#SVGID_2_);fill:#f2dfeb"/><path d="M32.1 74h93.1v339.1H32.1z" class="st1"/><path d="M31.7 74h194.7v178.7H31.7z" class="st1"/><path d="M209 10.3h23V25h-23zM111.5 66h35v7.9h-35zm103.4 0h18.9v7.9h-18.9zm-91.6-55.7h11.3v7.9h-11.3zm34.9 178.2h75.7v7.1h-75.7zM22.1 24.9h11.3v7.9H22.1zM23.8 66h20.7v7.9H23.8z" class="st2"/><path d="M23.8 24.9h7.9V428h-7.9zM125 17.4h7.9v188.8H125zm101.5 226.5h7.4v16.2h-7.4z" class="st2"/><path d="M125.9 252.7h108v7.4h-108zm-98.1 0h72v7.4h-72z" class="st2"/><path d="M125.1 235h7.4v193h-7.4z" class="st2"/><path d="M106.9 413.1H132v7.8h-25.1zm-89.9 0h30.6v8.8H17z" class="st2"/><path d="M17 24.9h8.8V428H17z" class="st2"/><path d="M17 420.1h33v7.9H17zm88.2 0h25.1v7.9h-25.1zm-74-194.6H76v4.7H31.2z" class="st2"/><path d="M49.7 225.5h44.8v3.1H49.7zm-21.4-55.2h71.4v7.1H28.3z" class="st2"/><path d="M89.4 209h5v25.1h-5zm0-38.7h5v22.4h-5zm137.1-160h7.4v205.2h-7.4z" class="st2"/><path d="M144.9 66.4h51.4v2.1h-51.4z" class="st3"/><path d="M144.9 66.4h51.4v7.2h-51.4zM45 417.5h65.6v2.1H45z" class="st3"/><defs><path id="SVGID_3_" d="M17 10.3h216.9V428H17z"/></defs><clipPath id="SVGID_4_"><use xlink:href="#SVGID_3_" style="overflow:visible"/></clipPath><path d="M43.8 413.5h67.9v14.2H43.8z" style="clip-path:url(#SVGID_4_);fill:none;stroke:#39363a;stroke-width:.75"/><path d="M131.9 17.9h80.9V20h-80.9z" class="st3"/><defs><path id="SVGID_5_" d="M17 10.3h216.9V428H17z"/></defs><clipPath id="SVGID_6_"><use xlink:href="#SVGID_5_" style="overflow:visible"/></clipPath><path d="M130.6 10.7h83.6v14h-83.6z" style="clip-path:url(#SVGID_6_);fill:none;stroke:#39363a;stroke-width:.75"/><path d="m28.438 33.295 98.276-15.558.329 2.074-98.276 15.558z" class="st3"/><defs><path id="SVGID_7_" d="M17 10.3h216.9V428H17z"/></defs><clipPath id="SVGID_8_"><use xlink:href="#SVGID_7_" style="overflow:visible"/></clipPath><path d="M25.9 18.5h99.5v14.1H25.9z" style="clip-path:url(#SVGID_8_);fill:none;stroke:#39363a;stroke-width:.75" transform="rotate(-8.996 75.721 25.554)"/><path d="M193.8 37.8h-.8c-.5 0-.6-.1-.6-.6 0-.4.1-.5.6-.5h.7v1.1zm-2.1.6c-.3 0-.9.1-1 .6l-.4 1.6h1.9l.3-1.4c0-.2.2-.3.5-.3h.7v1.7h1.8v-5.2c-.6-.1-1.2-.1-2.6-.1-1.9 0-2.4.4-2.4 1.7.1.6.4 1.2 1.2 1.4zm-2.1 2.2v-5.2H188l-1.6 2.5c-.2.2-.3.5-.4.8 0-.3.1-.5.1-.8v-2.4h-1.7v5.2h1.6l1.6-2.4c.1-.2.3-.6.4-.9 0 .3-.1.6-.1.9v2.3h1.7zm-8.1-2.7c1.2-.2 1.2-.3 1.8-2.4h-1.9c-.5 1.7-.6 1.9-1.1 1.9h-.3c0-.2.1-.4.1-.6v-1.2h-1.6v1.2c0 .2 0 .4.1.6h-.3c-.5 0-.6-.2-1.1-1.9h-1.9c.7 2.1.6 2.3 1.8 2.4v.1c-1.3.2-1.3.3-2 2.7h1.9c.7-2 .7-2.1 1.1-2.1h.4c0 .2-.1.3-.1.4v1.6h1.7V39c0-.1 0-.3-.1-.4h.4c.5 0 .5.1 1.2 2.1h1.9c-.7-2.5-.7-2.6-2-2.8zm-9.4 1.4h-1.5c.3-.6.4-1.3.6-2.3 0-.3.2-.4.5-.4h.5v2.7zm2.7 0h-.9v-3.9h-2.8c-.9 0-1.4.4-1.5 1.3-.1.9-.3 1.8-.6 2.6h-.6V42h1.2l.1-1.4h3.7l.1 1.4h1.3v-2.7zm-9.7-2.7c.6 0 .8.3.8 1.4 0 1.1-.2 1.4-.8 1.4-.6 0-.8-.3-.8-1.4 0-1.1.2-1.4.8-1.4m0-1.3c-2 0-2.8.7-2.8 2.7s.7 2.7 2.8 2.7c2 0 2.8-.7 2.8-2.7s-.7-2.7-2.8-2.7m-3.8-1.9H158c-1.1 0-1.7.6-1.8 1.7-.1 1.7-.3 2.7-.5 3.3-.2.5-.5.6-1 .7l.1 1.5c1.3.2 2.2-.2 2.7-1.7.3-.9.4-2.2.6-3.7 0-.4.2-.5.6-.5h.7v5.9h2v-7.2zm16.4 12.1h2c.7 0 .9.1.9.7 0 .5-.1.8-.8.8h-1.4v1.3h1.4c.8 0 .9.2.9.8 0 .7-.3.9-1.2.9-.6 0-1.1 0-2-.1l-.1 1.4c.8.1 1.7.2 2.6.2 1.9 0 2.6-.6 2.6-2.1 0-1.1-.3-1.6-1.3-1.8.9-.1 1.1-.8 1.1-1.8 0-1.3-.7-1.7-2.4-1.7-.8 0-1.6.1-2.4.2l.1 1.2zm-2.1 4c-.5 0-.7.2-.7.7v.5c0 .5.2.7.7.7h.4c.5 0 .7-.2.7-.7v-.5c0-.5-.2-.7-.7-.7h-.4zm-1.3-1.1h-.9v-3H172l-.3 1.1v1.8h-1.4c-.2 0-.3-.1-.2-.3l1.6-4.1h-1.8l-1.8 4.6c-.2.6.2 1.1.8 1.1h2.9v1.5h1.8v-1.5l.8-.2v-1zM216 156.7c0-.2.1-.4.4-.4h1.1v.6c-.3.2-.7.4-1 .4-.3 0-.5-.1-.5-.4v-.2zm-1.4-2c.9-.1 1.7-.1 2.2-.1.5 0 .7.2.7.6v.1h-1.7c-1 0-1.7.5-1.7 1.3v.5c0 1 .8 1.5 1.7 1.5.9 0 1.5-.5 1.8-.9l.2.8h1.5v-3.3c0-1.5-.8-2-2.2-2-.8 0-2.1.1-2.8.3l.3 1.2zm-.9 0v-1.4h-5.2v1.4h1.6v3.7h1.9v-3.7h1.7zm-9.2 2c0-.2.1-.4.4-.4h1.1v.6c-.3.2-.7.4-1 .4-.3 0-.5-.1-.5-.4v-.2zm-1.4-2c.9-.1 1.7-.1 2.2-.1.5 0 .7.2.7.6v.1h-1.7c-1 0-1.7.5-1.7 1.3v.5c0 1 .8 1.5 1.7 1.5.9 0 1.5-.5 1.8-.9l.2.8h1.5v-3.3c0-1.5-.8-2-2.2-2-.8 0-2.1.1-2.8.3l.3 1.2zm-1.3-1.4h-1.9v1.8h-1.6v-1.8h-1.9v5.2h1.9v-2.1h1.6v2.1h1.9v-5.2zm-8.8 0c-.4 0-.6.2-.7.6l-.4 1.9c-.1.3-.1.5-.1.8h-.1c0-.3 0-.5-.1-.8l-.5-1.9c-.1-.4-.3-.6-.7-.6h-1.6c-.4 0-.6.2-.7.6l-.1 4.5h1.7l.1-3.8h.1l.6 2.5c.1.4.3.6.7.6h.8c.4 0 .6-.2.7-.6l.6-2.5h.1l.1 3.8h1.7l-.1-4.5c0-.4-.2-.6-.6-.6H193zm-8.6 1.2c.6 0 .8.3.8 1.4 0 1.1-.2 1.4-.8 1.4-.6 0-.8-.3-.8-1.4 0-1.1.2-1.4.8-1.4m0-1.3c-2 0-2.8.7-2.8 2.7s.7 2.7 2.8 2.7c2 0 2.8-.7 2.8-2.7s-.8-2.7-2.8-2.7m-5.2 2.6c1.2-.2 1.1-.3 1.8-2.5h-1.9c-.4 1.7-.5 1.9-1.2 1.9h-.2c0-.2.1-.4.1-.7v-1.2h-1.9v5.2h1.9v-1.6c0-.1 0-.3-.1-.4h.4c.6 0 .6.1 1.1 2.1h2c-.7-2.6-.7-2.6-2-2.8zm-8.5-.2h-.7c-.5 0-.6-.1-.6-.6 0-.4.1-.5.6-.5h.7v1.1zm-2 .7c-.3 0-.9.1-1 .6l-.4 1.6h1.9l.3-1.4c0-.2.2-.3.5-.3h.7v1.7h1.8v-5.2c-.6-.1-1.2-.1-2.6-.1-1.9 0-2.4.4-2.4 1.7 0 .6.3 1.2 1.2 1.4zm-5.6.4c0-.2.1-.4.4-.4h1.1v.6c-.3.2-.7.4-1 .4-.3 0-.5-.1-.5-.4v-.2zm-1.4-2c.9-.1 1.7-.1 2.2-.1.5 0 .7.2.7.6v.1h-1.7c-1 0-1.7.5-1.7 1.3v.5c0 1 .8 1.5 1.7 1.5.9 0 1.5-.5 1.8-.9l.2.8h1.5v-3.3c0-1.5-.8-2-2.2-2-.8 0-2.1.1-2.8.3l.3 1.2zm-1.3-1.4h-3.1c-.9 0-1.4.5-1.4 1.3-.1.9-.2 1.7-.3 2-.1.4-.4.4-.9.5l.2 1.4c1.1.2 2.2-.1 2.4-1.4.1-.5.2-1.4.3-2.2 0-.3.2-.4.5-.4h.4v3.9h1.9v-5.1zm-6.3 5.2v-5.2h-1.6l-1.6 2.5c-.2.2-.3.5-.4.8 0-.3.1-.5.1-.8v-2.4h-1.7v5.2h1.6l1.6-2.4c.1-.2.3-.6.4-.9 0 .3-.1.6-.1.9v2.3h1.7zm-8.4-3.8c1.4-.2 1.4-.8 2.2-3.4h-2c-.6 2.2-.8 2.8-1.5 2.8h-.3c.1-.3.1-.6.1-.9v-1.9h-1.9v1.9c0 .3 0 .6.1.9h-.4c-.7 0-.8-.6-1.5-2.8h-2c.8 2.6.8 3.2 2.2 3.4v.1c-1.4.2-1.5.8-2.4 3.7h2c.8-2.6.9-3.1 1.6-3.1h.4c-.1.2-.1.5-.1.7v2.4h1.9v-2.4c0-.2 0-.4-.1-.7h.3c.7 0 .8.5 1.6 3.1h2.1c-.8-3-.9-3.5-2.3-3.8zM115 111.6c0-.2.1-.4.4-.4h1.1v.6c-.3.2-.7.4-1 .4-.3 0-.5-.1-.5-.4v-.2zm-1.4-2c.9-.1 1.7-.1 2.2-.1.5 0 .7.2.7.6v.1h-1.7c-1 0-1.7.5-1.7 1.3v.5c0 1 .8 1.5 1.7 1.5.9 0 1.5-.5 1.8-.9l.2.8h1.5v-3.3c0-1.5-.8-2-2.2-2-.8 0-2.1.1-2.8.3l.3 1.2zm-.8.1v-1.4h-5.2v1.4h1.6v3.7h1.9v-3.7h1.7zm-9.3 1.9c0-.2.1-.4.4-.4h1.1v.6c-.3.2-.7.4-1 .4-.3 0-.5-.1-.5-.4v-.2zm-1.4-2c.9-.1 1.7-.1 2.2-.1.5 0 .7.2.7.6v.1h-1.7c-1 0-1.7.5-1.7 1.3v.5c0 1 .8 1.5 1.7 1.5.9 0 1.5-.5 1.8-.9l.2.8h1.5v-3.3c0-1.5-.8-2-2.2-2-.8 0-2.1.1-2.8.3l.3 1.2zm-1.3-1.4H99v1.8h-1.6v-1.8h-1.9v5.2h1.9v-2.1H99v2.1h1.9v-5.2zm-8.7 0c-.4 0-.6.2-.7.6l-.4 1.9c-.1.3-.1.5-.1.8h-.1c0-.3 0-.5-.1-.8l-.5-1.9c-.1-.4-.3-.6-.7-.6h-1.6c-.4 0-.6.2-.7.6l-.1 4.5h1.7l.1-3.8h.1l.6 2.5c.1.4.3.6.7.6h.8c.4 0 .6-.2.7-.6l.6-2.5h.1l.1 3.8h1.7l-.1-4.5c0-.4-.2-.6-.6-.6h-1.5zm-8.6 1.2c.6 0 .8.3.8 1.4 0 1.1-.2 1.4-.8 1.4-.6 0-.8-.3-.8-1.4-.1-1.1.1-1.4.8-1.4m0-1.3c-2 0-2.8.7-2.8 2.7s.7 2.7 2.8 2.7c2 0 2.8-.7 2.8-2.7-.1-2-.8-2.7-2.8-2.7m-5.2 2.6c1.2-.2 1.1-.3 1.8-2.5h-1.9c-.4 1.7-.5 1.9-1.2 1.9h-.2c0-.2.1-.4.1-.7v-1.2H75v5.2h1.9v-1.6c0-.1 0-.3-.1-.4h.4c.6 0 .6.1 1.1 2.1h2c-.8-2.5-.8-2.6-2-2.8zm-8.6-.1H69c-.5 0-.6-.1-.6-.6 0-.4.1-.5.6-.5h.7v1.1zm-2 .6c-.3 0-.9.1-1 .6l-.4 1.6h1.9l.3-1.4c0-.2.2-.3.5-.3h.7v1.7h1.8v-5.2c-.6-.1-1.2-.1-2.6-.1-1.9 0-2.4.4-2.4 1.7.1.6.3 1.2 1.2 1.4zm-5.5.4c0-.2.1-.4.4-.4h1.1v.6c-.3.2-.7.4-1 .4-.3 0-.5-.1-.5-.4v-.2zm-1.4-2c.9-.1 1.7-.1 2.2-.1.5 0 .7.2.7.6v.1H62c-1 0-1.7.5-1.7 1.3v.5c0 1 .8 1.5 1.7 1.5.9 0 1.5-.5 1.8-.9l.2.8h1.5v-3.3c0-1.5-.8-2-2.2-2-.8 0-2.1.1-2.8.3l.3 1.2zm-1.3-1.4h-3.1c-.9 0-1.4.5-1.4 1.3-.1.9-.2 1.7-.3 2-.1.4-.4.4-.9.5l.2 1.4c1.1.2 2.2-.1 2.4-1.4.1-.5.2-1.4.3-2.2 0-.3.2-.4.5-.4h.4v3.9h1.9v-5.1zm-6.4 5.2v-5.2h-1.6l-1.6 2.5c-.2.2-.3.5-.4.8 0-.3.1-.5.1-.8v-2.4h-1.7v5.2h1.6l1.6-2.4c.1-.2.3-.6.4-.9 0 .3-.1.6-.1.9v2.3h1.7zm-8.4-3.8c1.4-.2 1.4-.8 2.2-3.4h-2c-.6 2.2-.8 2.8-1.5 2.8h-.3c.1-.3.1-.6.1-.9v-1.9h-1.9v1.9c0 .3 0 .6.1.9H41c-.7 0-.8-.6-1.5-2.8h-2c.8 2.6.8 3.2 2.2 3.4v.1c-1.4.2-1.5.8-2.4 3.7h2c.8-2.6.9-3.1 1.6-3.1h.4c-.1.2-.1.5-.1.7v2.4h1.9V111c0-.2 0-.4-.1-.7h.3c.7 0 .8.5 1.6 3.1H47c-.7-2.9-.8-3.5-2.3-3.8zM115 354.7c0-.2.1-.4.4-.4h1.1v.6c-.3.2-.7.4-1 .4-.3 0-.5-.1-.5-.4v-.2zm-1.4-2.1c.9-.1 1.7-.1 2.2-.1.5 0 .7.2.7.6v.1h-1.7c-1 0-1.7.5-1.7 1.3v.5c0 1 .8 1.5 1.7 1.5.9 0 1.5-.5 1.8-.9l.2.8h1.5v-3.3c0-1.5-.8-2-2.2-2-.8 0-2.1.1-2.8.3l.3 1.2zm-.8.1v-1.4h-5.2v1.4h1.6v3.7h1.9v-3.7h1.7zm-9.3 2c0-.2.1-.4.4-.4h1.1v.6c-.3.2-.7.4-1 .4-.3 0-.5-.1-.5-.4v-.2zm-1.4-2.1c.9-.1 1.7-.1 2.2-.1.5 0 .7.2.7.6v.1h-1.7c-1 0-1.7.5-1.7 1.3v.5c0 1 .8 1.5 1.7 1.5.9 0 1.5-.5 1.8-.9l.2.8h1.5v-3.3c0-1.5-.8-2-2.2-2-.8 0-2.1.1-2.8.3l.3 1.2zm-1.3-1.3H99v1.8h-1.6v-1.8h-1.9v5.2h1.9v-2.1H99v2.1h1.9v-5.2zm-8.7 0c-.4 0-.6.2-.7.6l-.4 1.9c-.1.3-.1.5-.1.8h-.1c0-.3 0-.5-.1-.8l-.5-1.9c-.1-.4-.3-.6-.7-.6h-1.6c-.4 0-.6.2-.7.6l-.1 4.5h1.7l.1-3.8h.1l.6 2.5c.1.4.3.6.7.6h.8c.4 0 .6-.2.7-.6l.6-2.5h.1l.1 3.8h1.7l-.1-4.5c0-.4-.2-.6-.6-.6h-1.5zm-8.6 1.2c.6 0 .8.3.8 1.4 0 1.1-.2 1.4-.8 1.4-.6 0-.8-.3-.8-1.4-.1-1.2.1-1.4.8-1.4m0-1.4c-2 0-2.8.7-2.8 2.7s.7 2.7 2.8 2.7c2 0 2.8-.7 2.8-2.7-.1-1.9-.8-2.7-2.8-2.7m-5.2 2.6c1.2-.2 1.1-.3 1.8-2.5h-1.9c-.4 1.7-.5 1.9-1.2 1.9h-.2c0-.2.1-.4.1-.7v-1.2H75v5.2h1.9v-1.6c0-.1 0-.3-.1-.4h.4c.6 0 .6.1 1.1 2.1h2c-.8-2.5-.8-2.5-2-2.8zm-8.6-.1H69c-.5 0-.6-.1-.6-.6 0-.4.1-.5.6-.5h.7v1.1zm-2 .7c-.3 0-.9.1-1 .6l-.4 1.6h1.9l.3-1.4c0-.2.2-.3.5-.3h.7v1.7h1.8v-5.2c-.6-.1-1.2-.1-2.6-.1-1.9 0-2.4.4-2.4 1.7.1.6.3 1.2 1.2 1.4zm-5.5.4c0-.2.1-.4.4-.4h1.1v.6c-.3.2-.7.4-1 .4-.3 0-.5-.1-.5-.4v-.2zm-1.4-2.1c.9-.1 1.7-.1 2.2-.1.5 0 .7.2.7.6v.1H62c-1 0-1.7.5-1.7 1.3v.5c0 1 .8 1.5 1.7 1.5.9 0 1.5-.5 1.8-.9l.2.8h1.5v-3.3c0-1.5-.8-2-2.2-2-.8 0-2.1.1-2.8.3l.3 1.2zm-1.3-1.3h-3.1c-.9 0-1.4.5-1.4 1.3-.1.9-.2 1.7-.3 2-.1.4-.4.4-.9.5l.2 1.4c1.1.2 2.2-.1 2.4-1.4.1-.5.2-1.4.3-2.2 0-.3.2-.4.5-.4h.4v3.9h1.9v-5.1zm-6.4 5.2v-5.2h-1.6l-1.6 2.5c-.2.2-.3.5-.4.8 0-.3.1-.5.1-.8v-2.4h-1.7v5.2h1.6l1.6-2.4c.1-.2.3-.6.4-.9 0 .3-.1.6-.1.9v2.3h1.7zm-8.4-3.8c1.4-.2 1.4-.8 2.2-3.4h-2c-.6 2.2-.8 2.8-1.5 2.8h-.3c.1-.3.1-.6.1-.9v-1.9h-1.9v1.9c0 .3 0 .6.1.9H41c-.7 0-.8-.6-1.5-2.8h-2c.8 2.6.8 3.2 2.2 3.4v.1c-1.4.2-1.5.8-2.4 3.7h2c.8-2.6.9-3.1 1.6-3.1h.4c-.1.2-.1.5-.1.7v2.4h1.9v-2.4c0-.2 0-.4-.1-.7h.3c.7 0 .8.5 1.6 3.1H47c-.7-3-.8-3.5-2.3-3.8zm135.1-125.8c0-.9.1-1.2.8-1.2.8 0 .9.3.9 1.9-.3.2-.6.3-.9.3-.6 0-.8-.3-.8-1m-1.5 4.6c.8.2 1.6.2 2 .2 2.3 0 3.1-.5 3.1-3.8 0-2.9-.5-3.6-2.7-3.6-2.1 0-2.7.8-2.7 2.6 0 1.3.5 2.2 2.1 2.2.6 0 1.1-.1 1.5-.4-.1 1.2-.3 1.6-1.3 1.6h-1.9l-.1 1.2zm-2.2-1.6c-.5 0-.7.2-.7.7v.5c0 .5.2.7.7.7h.4c.5 0 .7-.2.7-.7v-.5c0-.5-.2-.7-.7-.7h-.4zm-4.1.4c-.8 0-.9-.3-.9-1.9.3-.2.6-.3.9-.3.7 0 .8.2.8.9 0 1 0 1.3-.8 1.3m2.2-5.8c-.7-.2-1.5-.2-1.9-.2-2.1 0-3.1.5-3.1 3.8 0 2.9.6 3.6 2.8 3.6 2.2 0 2.7-.8 2.7-2.6 0-1.6-.5-2.2-2.1-2.2-.6 0-1.1.1-1.5.4.1-1.3.3-1.6 1.2-1.6h1.8l.1-1.2zm26.3-6.2h-.7c-.5 0-.6-.1-.6-.6 0-.4.1-.5.6-.5h.7v1.1zm-2 .6c-.3 0-.9.1-1 .6l-.4 1.6h1.9l.3-1.4c0-.2.2-.3.5-.3h.7v1.7h1.8v-5.2c-.6-.1-1.2-.1-2.6-.1-1.9 0-2.4.4-2.4 1.7 0 .6.3 1.2 1.2 1.4zm-5.5.4c0-.2.1-.4.4-.4h1.1v.6c-.3.2-.7.4-1 .4-.3 0-.5-.1-.5-.4v-.2zm-1.4-2c.9-.1 1.7-.1 2.2-.1.5 0 .7.2.7.6v.1h-1.7c-1 0-1.7.5-1.7 1.3v.5c0 1 .8 1.5 1.7 1.5.9 0 1.5-.5 1.8-.9l.2.8h1.5v-3.3c0-1.5-.8-2-2.2-2-.8 0-2.1.1-2.8.3l.3 1.2zm-2.9 1.1c1.2-.2 1.2-.3 1.8-2.4h-1.9c-.5 1.7-.6 1.9-1.1 1.9h-.3c0-.2.1-.4.1-.6V216h-1.6v1.2c0 .2 0 .4.1.6h-.3c-.5 0-.6-.2-1.1-1.9h-1.9c.7 2.1.6 2.3 1.8 2.4v.1c-1.2.2-1.3.3-2 2.7h1.9c.7-2 .7-2.1 1.1-2.1h.4c0 .2-.1.3-.1.4v1.6h1.7v-1.6c0-.1 0-.3-.1-.4h.4c.5 0 .5.1 1.2 2.1h1.9c-.8-2.4-.8-2.5-2-2.7zm-9.7-1.3c.6 0 .8.3.8 1.4 0 1.1-.2 1.4-.8 1.4-.6 0-.8-.3-.8-1.4 0-1.1.2-1.4.8-1.4m0-1.3c-2 0-2.8.7-2.8 2.7s.7 2.7 2.8 2.7c2 0 2.8-.7 2.8-2.7s-.8-2.7-2.8-2.7m-4.9 5.3h1.9l-1.5-2.6 1.4-2.5H174l-1 1.9-1-1.9h-1.9l1.4 2.5-1.5 2.6h1.9l1.1-2.1 1.1 2.1zm-4.8 0V216h-1.6l-1.6 2.5c-.2.2-.3.5-.4.8 0-.3.1-.5.1-.8V216H164v5.2h1.6l1.6-2.4c.1-.2.3-.6.4-.9 0 .3-.1.6-.1.9v2.3h1.8zm-9.8-3.5c.3-.2.6-.3 1-.3.5 0 .7.2.7 1.4s-.2 1.4-.7 1.4c-.4 0-.6-.1-.9-.2v-2.3zm-.4-1.6h-1.5v7.1h1.9v-2.2c.4.3 1 .5 1.7.5 1.3 0 2-.6 2-2.7 0-1.8-.5-2.8-1.8-2.8-.8 0-1.6.4-2 .9l-.3-.8zm-2.7-2.1h-6v7.2h1.9v-5.9h2.1v5.9h2v-7.2zm29.4-45.4c-.8 0-.9-.3-.9-1.9.3-.2.6-.3.9-.3.7 0 .8.2.8.9.1 1 0 1.3-.8 1.3m2.2-5.8c-.7-.2-1.5-.2-1.9-.2-2.1 0-3.1.5-3.1 3.8 0 2.9.6 3.6 2.8 3.6 2.2 0 2.7-.8 2.7-2.6 0-1.6-.5-2.2-2.1-2.2-.6 0-1.1.1-1.5.4.1-1.3.3-1.6 1.2-1.6h1.8l.1-1.2zm-6.9 5.3c-.5 0-.7.2-.7.7v.5c0 .5.2.7.7.7h.4c.5 0 .7-.2.7-.7v-.5c0-.5-.2-.7-.7-.7h-.4zm-6.5-4h2c.7 0 .9.1.9.7 0 .5-.1.8-.8.8h-1.4v1.3h1.4c.8 0 .9.2.9.8 0 .7-.3.9-1.2.9-.6 0-1.1 0-2-.1l-.1 1.4c.8.1 1.7.2 2.6.2 1.9 0 2.6-.6 2.6-2.1 0-1.1-.3-1.6-1.3-1.8.9-.1 1.1-.8 1.1-1.8 0-1.3-.7-1.7-2.4-1.7-.8 0-1.6.1-2.4.2l.1 1.2zm-1.4 5.8v-7.2h-1.9l-1.8.7.2 1.2 1.7-.4c-.1.3-.1.6-.1.9v4.8h1.9zm-87.9-44.4v-7.2h-1.9l-1.8.7.2 1.2 1.7-.4c-.1.3-.1.6-.1.9v4.8h1.9zm-4.9-1.8c-.5 0-.7.2-.7.7v.5c0 .5.2.7.7.7h.4c.5 0 .7-.2.7-.7v-.5c0-.5-.2-.7-.7-.7h-.4zm-4.1.5c-.8 0-.9-.3-.9-1.9.3-.2.6-.3.9-.3.7 0 .8.2.8.9 0 1 0 1.3-.8 1.3m2.2-5.8c-.7-.2-1.5-.2-1.9-.2-2.1 0-3.1.5-3.1 3.8 0 2.9.6 3.6 2.8 3.6 2.2 0 2.7-.8 2.7-2.6 0-1.6-.5-2.2-2.1-2.2-.6 0-1.1.1-1.5.4.1-1.3.3-1.6 1.2-1.6h1.8l.1-1.2zm-6.3 7.1v-7.2h-1.9l-1.8.7.2 1.2 1.7-.4c-.1.3-.1.6-.1.9v4.8h1.9zM88 365.6h-.9v-3h-1.5l-.3 1.1v1.8h-1.4c-.2 0-.3-.1-.2-.3l1.6-4.1h-1.8l-1.8 4.6c-.2.6.2 1.1.8 1.1h2.9v1.5h1.8v-1.5l.8-.2v-1zm-8.1 1.1c-.5 0-.7.2-.7.7v.5c0 .5.2.7.7.7h.4c.5 0 .7-.2.7-.7v-.5c0-.5-.2-.7-.7-.7h-.4zm-6.7-3.9c1-.1 1.5-.1 2.2-.1.6 0 .8 0 .8.3 0 .4-.5 1.1-1.3 1.9l-1.6 1.7c-.2.2-.3.5-.3.8v1h5.3v-1.7h-2.1c-.3 0-.7 0-1 .1l1.8-1.7c.9-1 1.1-1.5 1.1-2.2 0-1.4-1-1.7-2.5-1.7-.8 0-1.5 0-2.6.2l.2 1.4zm-1.3 5.6v-7.2H70l-1.8.7.2 1.2 1.7-.4c-.1.3-.1.6-.1.9v4.8h1.9zM203 138.9h-2v-6.8h-3.4l-.7 2.6v4.2h-3.2c-.4 0-.6-.2-.4-.7l3.6-9.3h-4.2l-4.1 10.4c-.5 1.3.4 2.5 1.7 2.5h6.6v3.4h4.1v-3.4l1.9-.4v-2.5zm-18.4 2.4c-1.1 0-1.5.4-1.5 1.5v1c0 1.1.4 1.5 1.5 1.5h1c1.1 0 1.5-.4 1.5-1.5v-1c0-1.1-.4-1.5-1.5-1.5h-1zm-3.9-9.1.2-3.3h-10.3l-.4 7.4c0 .8.5 1.4 1.3 1.5l2.5.3c2.2.2 3 .5 2.9 2-.1 1.3-.6 1.9-2.7 1.9-1.2 0-2.7-.1-4.3-.2l-.4 3.4c2.1.3 4.2.5 5.8.5 4.7 0 6-2.4 6-5.4 0-2.6-1-5-4.8-5.4l-2.7-.4.2-2.3h6.7zM162 142.4c-1.9 0-2.1-.6-2.1-4.2.8-.5 1.3-.6 2.1-.6 1.6 0 1.9.4 1.9 2.2 0 1.8-.1 2.6-1.9 2.6m5-13.3c-1.7-.5-3.4-.5-4.2-.5-4.8 0-7.2 1.2-7.2 8.7 0 6.7 1.5 8.3 6.4 8.3 5 0 6.1-1.9 6.1-6 0-3.6-1.1-5.1-4.8-5.1-1.5 0-2.5.2-3.4 1 .1-3.1.7-3.6 2.8-3.6h4l.3-2.8z" class="st7"/><circle cx="179.1" cy="110.4" r="14.6" style="clip-path:url(#SVGID_8_);fill:none;stroke:#39363a"/><path d="M188.9 113.9c-1.2.1-2.2.1-3.9.1-1.5 0-1.9-.8-1.9-3.5s.4-3.5 1.9-3.5c1.7 0 2.4 0 3.7.1l.3-2.5c-1.2-.3-2.1-.4-3.9-.4-4 0-5.4 1.7-5.4 6.4s1.5 6.4 5.4 6.4c1.9 0 3-.1 4.2-.6l-.4-2.5zm-19.4-7.2h3.5c1.3 0 1.6.2 1.6 1.2 0 .8-.1 1.4-1.5 1.4h-2.4v2.2h2.4c1.3 0 1.6.4 1.6 1.5 0 1.3-.5 1.5-2.1 1.5-1.1 0-1.9 0-3.4-.1l-.1 2.4c1.4.2 3 .3 4.5.3 3.3 0 4.5-1.1 4.5-3.7 0-1.9-.6-2.8-2.3-3.1v-.1c1.6-.3 2-1.4 2-3.1 0-2.2-1.2-2.9-4.2-2.9-1.4 0-2.8.1-4.2.3l.1 2.2z" class="st7"/><path d="M30.7 309.6h96.5" style="fill:none;stroke:#39363a;stroke-dasharray:3.86,3.86"/><defs><path id="SVGID_9_" d="M17 10.3h216.9V428H17z"/></defs><clipPath id="SVGID_10_"><use xlink:href="#SVGID_9_" style="overflow:visible"/></clipPath><path d="M106.7 289.8c0-.2.1-.4.4-.4h1.1v.6c-.3.2-.7.4-1 .4-.3 0-.5-.1-.5-.4v-.2zm-1.4-2c.9-.1 1.7-.1 2.2-.1.5 0 .7.2.7.6v.1h-1.7c-1 0-1.7.5-1.7 1.3v.5c0 1 .8 1.5 1.7 1.5.9 0 1.5-.5 1.8-.9l.2.8h1.5v-3.3c0-1.5-.8-2-2.2-2-.8 0-2.1.1-2.8.3l.3 1.2zm-1.3-1.3h-1.8v3.9H101v-3.9h-1.7v3.9H98v-3.9h-1.8v5.2h7.8v-5.2zm-8.9 5.2v-5.2h-1.6l-1.6 2.5c-.2.2-.3.5-.4.8 0-.3.1-.5.1-.8v-2.4h-1.7v5.2h1.6l1.6-2.4c.1-.2.3-.6.4-.9 0 .3-.1.6-.1.9v2.3h1.7zm-6.5-5.2h-1.9v1.8h-1.6v-1.8h-1.9v5.2h1.9v-2.1h1.6v2.1h1.9v-5.2zm-6.4 1.9h-3.1v1.1h3.1v-1.1zm-5.9.4h-.7c-.5 0-.6-.1-.6-.6 0-.4.1-.5.6-.5h.7v1.1zm-2.1.6c-.3 0-.9.1-1 .6l-.4 1.6h1.9l.3-1.4c0-.2.2-.3.5-.3h.7v1.7H78v-5.2c-.6-.1-1.2-.1-2.6-.1-1.9 0-2.4.4-2.4 1.7.1.6.4 1.2 1.2 1.4zm-2.1-2.9h-1.9v1.8h-1.6v-1.8h-1.9v5.2h1.9v-2.1h1.6v2.1h1.9v-5.2zm-7.8 5.1h1.9l-1.5-2.6 1.4-2.5h-1.9l-1 1.9-1-1.9h-1.9l1.4 2.5-1.5 2.6H62l1.1-2.1 1.2 2.1zm-4.2-5.1h-2l-.8 3.1c-.1.2-.1.6-.2.9H57c0-.3-.1-.6-.1-.9l-.8-3.1h-2l1.6 4.7c.1.3.3.4.6.4h.3c-.1.3-.3.5-.5.6-.3.2-.8.2-1.4.2l-.2 1.2c.7.1 1.5.1 2.1-.1.8-.3 1.4-.8 1.8-2l1.7-5zm-8.5 1.4c1.4-.2 1.5-.8 2.3-3.4h-2c-.6 2.2-.7 2.8-1.7 2.8h-.3c.1-.3.1-.6.1-.9v-1.9h-1.9v7.2H50v-2.4c0-.2 0-.4-.1-.7h.4c1 0 1.1.5 1.8 3.1h2c-.9-3-1-3.6-2.5-3.8zm32.2 7.8c.8 0 1 .3 1 2.2 0 1.9-.2 2.2-1 2.2s-1-.3-1-2.2c0-1.8.2-2.2 1-2.2m0-1.5c-2.2 0-2.9.9-2.9 3.7 0 2.8.7 3.7 2.9 3.7s2.9-.9 2.9-3.7c.1-2.7-.7-3.7-2.9-3.7m-4.9 5.6c-.5 0-.7.2-.7.7v.5c0 .5.2.7.7.7h.4c.5 0 .7-.2.7-.7v-.5c0-.5-.2-.7-.7-.7h-.4zm-4.1.5c-.8 0-.9-.3-.9-1.9.3-.2.6-.3.9-.3.7 0 .8.2.8.9.1.9 0 1.3-.8 1.3m2.2-5.8c-.7-.2-1.5-.2-1.9-.2-2.1 0-3.1.5-3.1 3.8 0 2.9.6 3.6 2.8 3.6 2.2 0 2.7-.8 2.7-2.6 0-1.6-.5-2.2-2.1-2.2-.6 0-1.1.1-1.5.4.1-1.3.3-1.6 1.2-1.6h1.8l.1-1.2z" style="clip-path:url(#SVGID_10_);fill:#39363a"/><path d="m200.1 77.6.8 1.3 17.3-10.5-.7-1.3z" class="st11"/><defs><path id="SVGID_11_" d="M17 10.3h216.9V428H17z"/></defs><clipPath id="SVGID_12_"><use xlink:href="#SVGID_11_" style="overflow:visible"/></clipPath><path d="M201 79.3s-2.1-3.1-3.3-7.6c-.6-2.4-1-4.3-1.2-5.5" style="clip-path:url(#SVGID_12_);fill:none;stroke:#39363a;stroke-width:.7"/><path d="m103.2 268 .6 1.3 23.4-11.7-.6-1.3z" class="st11"/><defs><path id="SVGID_13_" d="M17 10.3h216.9V428H17z"/></defs><clipPath id="SVGID_14_"><use xlink:href="#SVGID_13_" style="overflow:visible"/></clipPath><path d="M103.9 269.7s-2-3.1-3-7.8c-.9-4.4-1.2-8-1.3-9.2" style="clip-path:url(#SVGID_14_);fill:none;stroke:#39363a;stroke-width:.7"/><path d="m218.5 218.3-1.3.7 13.4 26.9 1.4-.6z" class="st11"/><defs><path id="SVGID_15_" d="M17 10.3h216.9V428H17z"/></defs><clipPath id="SVGID_16_"><use xlink:href="#SVGID_15_" style="overflow:visible"/></clipPath><path d="M216.8 219.1s3.1-2 7.8-3c4.4-.9 8-1.2 9.2-1.3" style="clip-path:url(#SVGID_16_);fill:none;stroke:#39363a;stroke-width:.7"/><path d="m155 180.2-.6-1.3-27 13.4.7 1.4z" class="st11"/><defs><path id="SVGID_17_" d="M17 10.3h216.9V428H17z"/></defs><clipPath id="SVGID_18_"><use xlink:href="#SVGID_17_" style="overflow:visible"/></clipPath><path d="M154.3 178.5s2 3.1 3 7.8c.9 4.4 1.2 8 1.3 9.2" style="clip-path:url(#SVGID_18_);fill:none;stroke:#39363a;stroke-width:.7"/><path d="m99 207.1 1.3-.6-8.4-17.1-1.3.6z" class="st11"/><defs><path id="SVGID_19_" d="M17 10.3h216.9V428H17z"/></defs><clipPath id="SVGID_20_"><use xlink:href="#SVGID_19_" style="overflow:visible"/></clipPath><path d="M100.4 206.4s-2 1.2-5 1.8c-2.8.5-5.2.7-5.9.8" style="clip-path:url(#SVGID_20_);fill:none;stroke:#39363a;stroke-width:.7"/><path d="m99 236 1.3.6-8.4 17.2-1.3-.6z" class="st11"/><defs><path id="SVGID_21_" d="M17 10.3h216.9V428H17z"/></defs><clipPath id="SVGID_22_"><use xlink:href="#SVGID_21_" style="overflow:visible"/></clipPath><path d="M100.4 236.7s-2-1.2-5-1.8c-2.8-.5-5.2-.7-5.9-.8" style="clip-path:url(#SVGID_22_);fill:none;stroke:#39363a;stroke-width:.7"/><path d="m102.8 162.1.6-1.3 27 13.4-.7 1.3z" class="st11"/><defs><path id="SVGID_23_" d="M17 10.3h216.9V428H17z"/></defs><clipPath id="SVGID_24_"><use xlink:href="#SVGID_23_" style="overflow:visible"/></clipPath><path d="M103.5 160.4s-2 3.1-3 7.8c-.9 4.4-1.2 8-1.3 9.2" style="clip-path:url(#SVGID_24_);fill:none;stroke:#39363a;stroke-width:.7"/><path d="M56.9 260h-16v15.9h16V260zm-16.3-.3h16.7v16.6H40.6v-16.6z" class="st2"/><path d="M56.9 260h-16v15.9h16V260zm-16.3-.3h16.7v16.6H40.6v-16.6z" class="st19"/><defs><path id="SVGID_25_" d="M17 10.3h216.9V428H17z"/></defs><clipPath id="SVGID_26_"><use xlink:href="#SVGID_25_" style="overflow:visible"/></clipPath><path d="M54.5 274.5c.4 0 .7-.3.7-.7v-8.4c0-.4-.3-.7-.7-.7H43.3c-.4 0-.7.3-.7.7v8.4c0 .4.3.7.7.7h11.2zm-11.2-10.2h11.2c.6 0 1.1.5 1.1 1.1v8.4c0 .6-.5 1.1-1.1 1.1H43.3c-.6 0-1.1-.5-1.1-1.1v-8.4c.1-.6.5-1.1 1.1-1.1" style="clip-path:url(#SVGID_26_);fill:#39363a"/><path d="M54.5 274.5c.4 0 .7-.3.7-.7v-8.4c0-.4-.3-.7-.7-.7H43.3c-.4 0-.7.3-.7.7v8.4c0 .4.3.7.7.7h11.2zm-11.2-10.2h11.2c.6 0 1.1.5 1.1 1.1v8.4c0 .6-.5 1.1-1.1 1.1H43.3c-.6 0-1.1-.5-1.1-1.1v-8.4c.1-.6.5-1.1 1.1-1.1z" style="clip-path:url(#SVGID_26_);fill:none;stroke:#39363a;stroke-width:.25"/><path d="M54 265.9H43.9v7.3H54v-7.3zm-10.5-.3h10.8v8H43.5v-8z" class="st2"/><path d="M54 265.9H43.9v7.3H54v-7.3zm-10.5-.3h10.8v8H43.5v-8z" class="st19"/><defs><path id="SVGID_27_" d="M17 10.3h216.9V428H17z"/></defs><clipPath id="SVGID_28_"><use xlink:href="#SVGID_27_" style="overflow:visible"/></clipPath><path d="M48.9 271c.5 0 .9-.4.9-.9s-.4-.9-.9-.9-.9.4-.9.9.4.9.9.9m0-2.2c.7 0 1.3.6 1.3 1.3 0 .7-.6 1.3-1.3 1.3s-1.3-.6-1.3-1.3c0-.7.6-1.3 1.3-1.3" style="clip-path:url(#SVGID_28_);fill:#39363a"/><path d="M48.9 271c.5 0 .9-.4.9-.9s-.4-.9-.9-.9-.9.4-.9.9.4.9.9.9zm0-2.2c.7 0 1.3.6 1.3 1.3 0 .7-.6 1.3-1.3 1.3s-1.3-.6-1.3-1.3c0-.7.6-1.3 1.3-1.3z" style="clip-path:url(#SVGID_28_);fill:none;stroke:#39363a;stroke-width:.25"/><path d="M54.4 177.1h15.1v15.1H54.4z" class="st24"/><defs><path id="SVGID_29_" d="M17 10.3h216.9V428H17z"/></defs><clipPath id="SVGID_30_"><use xlink:href="#SVGID_29_" style="overflow:visible"/></clipPath><path d="M38.2 178.8s-5.7 0-5.7 5.7v33.9s0 5.7 5.7 5.7h7.6s5.7 0 5.7-5.7v-33.9s0-5.7-5.7-5.7h-7.6z" class="st25"/><path d="M40 181.9s-5.7 0-5.7 5.7v27.6s0 5.7 5.7 5.7h4s5.7 0 5.7-5.7v-27.6s0-5.7-5.7-5.7h-4z" class="st25"/><path d="M38.8 185.7s-2.8 0-2.8 2.8v27.7s0 2.8 2.8 2.8h6.3s2.8 0 2.8-2.8v-27.7s0-2.8-2.8-2.8h-6.3z" class="st25"/><path d="M42 215.7c.5 0 .8-.4.8-.8 0-.5-.4-.8-.8-.8-.5 0-.8.4-.8.8-.1.5.3.8.8.8z" class="st25"/><path d="M52.5 175.7v51.4" class="st11"/><defs><path id="SVGID_31_" d="M17 10.3h216.9V428H17z"/></defs><clipPath id="SVGID_32_"><use xlink:href="#SVGID_31_" style="overflow:visible"/></clipPath><path d="M63 213.8c3 0 5.4 2.4 5.4 5.4v5.8c0 .5-.4.8-.8.8H55.3c-.5 0-.8-.4-.8-.8v-5.8c0-3 2.4-5.4 5.4-5.4H63zm-7.7 12.3h12.3c.6 0 1.1-.5 1.1-1.1v-5.8c0-3.2-2.6-5.7-5.7-5.7h-3.1c-3.2 0-5.7 2.6-5.7 5.7v5.8c0 .6.5 1.1 1.1 1.1" class="st26"/><path d="M63 213.8c3 0 5.4 2.4 5.4 5.4v5.8c0 .5-.4.8-.8.8H55.3c-.5 0-.8-.4-.8-.8v-5.8c0-3 2.4-5.4 5.4-5.4H63zm-7.7 12.3h12.3c.6 0 1.1-.5 1.1-1.1v-5.8c0-3.2-2.6-5.7-5.7-5.7h-3.1c-3.2 0-5.7 2.6-5.7 5.7v5.8c0 .6.5 1.1 1.1 1.1z" class="st27"/><path d="M63 215.2c2.2 0 4.1 1.8 4.1 4.1v3.4c0 .4-.3.7-.7.7h-9.8c-.4 0-.7-.3-.7-.7v-3.4c0-2.2 1.8-4.1 4.1-4.1h3zm-6.4 8.4h9.8c.6 0 1-.5 1-1v-3.4c0-2.4-2-4.4-4.4-4.4h-3.1c-2.4 0-4.4 2-4.4 4.4v3.4c.1.6.5 1 1.1 1" class="st26"/><path d="M63 215.2c2.2 0 4.1 1.8 4.1 4.1v3.4c0 .4-.3.7-.7.7h-9.8c-.4 0-.7-.3-.7-.7v-3.4c0-2.2 1.8-4.1 4.1-4.1h3zm-6.4 8.4h9.8c.6 0 1-.5 1-1v-3.4c0-2.4-2-4.4-4.4-4.4h-3.1c-2.4 0-4.4 2-4.4 4.4v3.4c.1.6.5 1 1.1 1z" class="st27"/><path d="M61.5 218c.4 0 .7.3.7.7 0 .4-.3.7-.7.7-.4 0-.7-.3-.7-.7 0-.4.3-.7.7-.7m0 1.7c.5 0 1-.4 1-1 0-.5-.4-1-1-1-.5 0-1 .4-1 1s.4 1 1 1" class="st26"/><path d="M61.5 218c.4 0 .7.3.7.7 0 .4-.3.7-.7.7-.4 0-.7-.3-.7-.7 0-.4.3-.7.7-.7zm0 1.7c.5 0 1-.4 1-1 0-.5-.4-1-1-1-.5 0-1 .4-1 1s.4 1 1 1z" class="st27"/><path d="M53.4 239.4c0 2.8-2.3 5.1-5.1 5.1h-7.4c-.5 0-.9-.4-.9-.9v-8.5c0-.5.4-.9.9-.9h7.4c2.8.1 5.1 2.3 5.1 5.2m-13.8-4.3v8.5c0 .7.6 1.2 1.2 1.2h7.4c3 0 5.5-2.5 5.5-5.5s-2.5-5.5-5.5-5.5h-7.4c-.6.1-1.2.7-1.2 1.3" class="st26"/><path d="M53.4 239.4c0 2.8-2.3 5.1-5.1 5.1h-7.4c-.5 0-.9-.4-.9-.9v-8.5c0-.5.4-.9.9-.9h7.4c2.8.1 5.1 2.3 5.1 5.2zm-13.8-4.3v8.5c0 .7.6 1.2 1.2 1.2h7.4c3 0 5.5-2.5 5.5-5.5s-2.5-5.5-5.5-5.5h-7.4c-.6.1-1.2.7-1.2 1.3z" class="st27"/><path d="M42.4 243v-7.3s0-.1.1-.1h5.6c2.1 0 3.8 1.7 3.8 3.8 0 2.1-1.7 3.8-3.8 3.8l-5.7-.2c.1.1 0 .1 0 0z" class="st27"/><path d="M42.6 242.9v-7.2h5.5c2 0 3.6 1.6 3.6 3.6s-1.6 3.6-3.6 3.6h-5.5zm-.3-7.2v7.3c0 .1.1.3.3.3h5.6c2.2 0 3.9-1.8 3.9-3.9 0-2.2-1.8-3.9-3.9-3.9h-5.6c-.2-.1-.3.1-.3.2" class="st26"/><path d="M42.6 242.9v-7.2h5.5c2 0 3.6 1.6 3.6 3.6s-1.6 3.6-3.6 3.6h-5.5zm-.3-7.2v7.3c0 .1.1.3.3.3h5.6c2.2 0 3.9-1.8 3.9-3.9 0-2.2-1.8-3.9-3.9-3.9h-5.6c-.2-.1-.3.1-.3.2z" class="st27"/><path d="M48.1 239.4c0 .5-.4 1-1 1-.5 0-1-.4-1-1 0-.5.4-1 1-1s1 .4 1 1m-2.3 0c0 .7.6 1.3 1.3 1.3.7 0 1.3-.6 1.3-1.3 0-.7-.6-1.3-1.3-1.3-.7 0-1.3.5-1.3 1.3" class="st26"/><path d="M48.1 239.4c0 .5-.4 1-1 1-.5 0-1-.4-1-1 0-.5.4-1 1-1s1 .4 1 1zm-2.3 0c0 .7.6 1.3 1.3 1.3.7 0 1.3-.6 1.3-1.3 0-.7-.6-1.3-1.3-1.3-.7 0-1.3.5-1.3 1.3z" class="st27"/><path d="m43.167 242.199 2.323-1.736.24.32-2.323 1.736z" class="st2"/><path d="m43.167 242.199 2.323-1.736.24.32-2.323 1.736z" class="st19"/><path d="m43.2 236.6 2.3 1.7.2-.3-2.3-1.7z" class="st2"/><path d="m43.2 236.6 2.3 1.7.2-.3-2.3-1.7z" class="st19"/><defs><path id="SVGID_33_" d="M17 10.3h216.9V428H17z"/></defs><clipPath id="SVGID_34_"><use xlink:href="#SVGID_33_" style="overflow:visible"/></clipPath><path d="M39.6 242.9c0 .8-.6 1.4-1.4 1.4h-1.9c-.8 0-1.4-.6-1.4-1.4v-7.1c0-.8.6-1.4 1.4-1.4h1.9c.8 0 1.4.6 1.4 1.4v7.1zm-5.1-7.1v7.1c0 1 .8 1.8 1.8 1.8h1.9c1 0 1.8-.8 1.8-1.8v-7.1c0-1-.8-1.8-1.8-1.8h-1.9c-1 .1-1.8.9-1.8 1.8" class="st28"/><path d="M39.6 242.9c0 .8-.6 1.4-1.4 1.4h-1.9c-.8 0-1.4-.6-1.4-1.4v-7.1c0-.8.6-1.4 1.4-1.4h1.9c.8 0 1.4.6 1.4 1.4v7.1zm-5.1-7.1v7.1c0 1 .8 1.8 1.8 1.8h1.9c1 0 1.8-.8 1.8-1.8v-7.1c0-1-.8-1.8-1.8-1.8h-1.9c-1 .1-1.8.9-1.8 1.8z" class="st29"/><path d="M37.8 239.4c0 .3-.2.5-.5.5s-.5-.2-.5-.5.2-.5.5-.5c.2-.1.5.2.5.5m-1.5 0c0 .5.4.9.9.9s.9-.4.9-.9-.4-.9-.9-.9-.9.4-.9.9" class="st28"/><path d="M37.8 239.4c0 .3-.2.5-.5.5s-.5-.2-.5-.5.2-.5.5-.5c.2-.1.5.2.5.5zm-1.5 0c0 .5.4.9.9.9s.9-.4.9-.9-.4-.9-.9-.9-.9.4-.9.9z" class="st29"/><path d="M39.7 252.8v-24.4m-7 19h5.4v4.1h-5.4zm0 30.8h5.4v4.1h-5.4z" class="st24"/><path d="M30.9 290h8.9v-31.5" class="st24"/><defs><path id="SVGID_35_" d="M17 10.3h216.9V428H17z"/></defs><clipPath id="SVGID_36_"><use xlink:href="#SVGID_35_" style="overflow:visible"/></clipPath><path d="M82.5 200.9h-.4c-.3 0-.3-.1-.3-.4 0-.2.1-.3.3-.3h.4v.7zm-1.2.4c-.2 0-.5.1-.6.3l-.2 1h1.2l.2-.8c0-.1.1-.2.3-.2h.4v1h1.1v-3.1c-.4 0-.7-.1-1.6-.1-1.1 0-1.4.2-1.4 1-.1.4.1.8.6.9zm-3.3.3c0-.1.1-.2.3-.2h.7v.4c-.2.1-.4.2-.6.2-.2 0-.3-.1-.3-.3v-.1zm-.9-1.2h1.3c.3 0 .4.1.4.4v.1h-1c-.6 0-1 .3-1 .8v.3c0 .6.5.9 1 .9s.9-.3 1.1-.5l.1.5h1v-2c0-.9-.5-1.2-1.3-1.2-.5 0-1.2.1-1.7.2l.1.5zm-.8-.8h-1.1v1.1h-1v-1.1h-1.1v3.1h1.1v-1.3h1v1.3h1.1v-3.1zm-3.8 0h-1.1v1.1h-.9v-1.1h-1.1v3.1h1.1v-1.3h.9v1.3h1.1v-3.1zm-5.9 2c0-.1.1-.2.3-.2h.6v.4c-.2.1-.4.2-.6.2-.2 0-.3-.1-.3-.3v-.1zm-.8-1.2h1.3c.3 0 .4.1.4.4v.1h-1c-.6 0-1 .3-1 .8v.3c0 .6.5.9 1 .9s.9-.3 1.1-.5l.1.5h.9v-2c0-.9-.5-1.2-1.3-1.2-.5 0-1.2.1-1.7.2l.2.5zm-3 1.5v-1.1h.6c.5 0 .6.1.6.6 0 .4-.1.5-.5.5h-.7zm0-1.8v-.9h.6c.4 0 .5.1.5.5s-.1.5-.5.5h-.6zm1.4.3c.5 0 .8-.4.8-1 0-.9-.4-1.1-1.6-1.1-.8 0-1.2 0-1.8.1v4.3h2c1.1 0 1.5-.2 1.5-1.1 0-.7-.2-1.1-.9-1.2zm61.4 19.4c.2-.1.3-.2.6-.2s.4.1.4.8c0 .7-.1.8-.4.8-.2 0-.4-.1-.5-.1v-1.3zm-.2-.9h-.9v4.3h1.1v-1.4c.3.2.6.3 1 .3.8 0 1.2-.3 1.2-1.6 0-1.1-.3-1.7-1.1-1.7-.5 0-1 .2-1.2.5l-.1-.4zm-3.1.7c.4 0 .5.2.5.8 0 .7-.1.8-.5.8s-.5-.2-.5-.8c0-.7.1-.8.5-.8m0-.8c-1.2 0-1.7.4-1.7 1.6 0 1.2.4 1.6 1.7 1.6 1.2 0 1.7-.4 1.7-1.6-.1-1.2-.5-1.6-1.7-1.6m-3.6 2.4h-.9c.2-.4.3-.8.4-1.4 0-.2.1-.3.3-.3h.3v1.7zm1.6 0h-.5v-2.3h-1.7c-.6 0-.8.3-.9.8-.1.5-.2 1.1-.4 1.6h-.4v1.6h.7l.1-.9h2.2l.1.9h.8v-1.7zm-4.3.8v-3.1h-1l-1 1.5c-.1.1-.2.3-.2.5v-2h-1v3.1h1l1-1.4c.1-.1.2-.4.3-.5v1.9h.9zm-5.9-2.2c.2-.1.3-.2.6-.2s.4.1.4.8c0 .7-.1.8-.4.8-.2 0-.4-.1-.5-.1v-1.3zm-.2-.9h-.9v4.3h1.1v-1.4c.3.2.6.3 1 .3.8 0 1.2-.3 1.2-1.6 0-1.1-.3-1.7-1.1-1.7-.5 0-1 .2-1.2.5l-.1-.4zm-3.2.7c.4 0 .5.2.5.8 0 .7-.1.8-.5.8s-.5-.2-.5-.8c0-.7.1-.8.5-.8m0-.8c-1.2 0-1.7.4-1.7 1.6 0 1.2.4 1.6 1.7 1.6 1.2 0 1.7-.4 1.7-1.6 0-1.2-.5-1.6-1.7-1.6m-3.3.9c.9-.1.9-.5 1.4-2h-1.2c-.3 1.3-.4 1.7-1 1.7h-.2v-1.6h-1.2v4.3h1.2v-1.8h.2c.6 0 .6.3 1.1 1.8h1.2c-.6-1.9-.7-2.2-1.5-2.4zm-26.9-13.8v-.9h-2.7l-.1 1.9c0 .2.1.4.3.4l.7.1c.6.1.8.1.8.5 0 .3-.2.5-.7.5-.3 0-.7 0-1.1-.1l-.1.9c.6.1 1.1.1 1.5.1 1.2 0 1.6-.6 1.6-1.4 0-.7-.3-1.3-1.3-1.4l-.7-.1v-.6h1.8zm-4 2.4c-.3 0-.4.1-.4.4v.3c0 .3.1.4.4.4h.3c.3 0 .4-.1.4-.4v-.3c0-.3-.1-.4-.4-.4h-.3zm-3.9-2.5h1.2c.4 0 .6.1.6.4 0 .3 0 .5-.5.5H69v.8h.8c.5 0 .6.1.6.5s-.2.5-.7.5h-1.2v.8c.5.1 1 .1 1.5.1 1.1 0 1.6-.4 1.5-1.3 0-.7-.2-1-.8-1.1.6-.1.7-.5.7-1.1 0-.8-.4-1-1.5-1-.5 0-1 0-1.4.1l.1.8zm48.4 22.8v-4.3h-1.2l-1.1.4.1.7 1-.2v3.4h1.2zm-3-1c-.3 0-.4.1-.4.4v.3c0 .3.1.4.4.4h.3c.3 0 .4-.1.4-.4v-.3c0-.3-.1-.4-.4-.4h-.3zm-3.9-2.4h1.2c.4 0 .6.1.6.4 0 .3 0 .5-.5.5h-.8v.8h.8c.5 0 .6.1.6.5s-.2.5-.7.5h-1.2v.8c.5.1 1 .1 1.5.1 1.1 0 1.6-.4 1.5-1.3 0-.7-.2-1-.8-1.1.6-.1.7-.5.7-1.1 0-.8-.4-1-1.5-1-.5 0-1 0-1.4.1v.8zm-34.9 11H74l-.5 1.8c0 .1-.1.3-.1.5h-.1c0-.2-.1-.4-.1-.5l-.5-1.8h-1.2l1 2.8c.1.2.2.3.4.3h.2c-.1.2-.2.3-.3.4-.2.1-.5.1-.9.1l-.1.7c.4.1.9.1 1.3-.1.5-.2.8-.5 1.1-1.2l1-3zm-6.1 3.6 2.5-4.8h-.9l-2.5 4.8h.9zm-1.2-1.4c-.4 0-.8.1-1.4.1-.5 0-.7-.3-.7-1.2 0-1 .1-1.2.7-1.2h1.3l.1-.9c-.4-.1-.7-.2-1.4-.2-1.4 0-1.9.6-1.9 2.2s.5 2.2 1.9 2.2c.6 0 1 0 1.5-.2l-.1-.8zm4.2 6.8c-.5 0-.6-.2-.6-1.1.2-.1.3-.2.6-.2.4 0 .5.1.5.6s-.1.7-.5.7m1.3-3.5c-.4-.1-.9-.1-1.1-.1-1.3 0-1.9.3-1.9 2.3 0 1.7.4 2.2 1.7 2.2 1.3 0 1.6-.5 1.6-1.6 0-.9-.3-1.3-1.3-1.3-.4 0-.6.1-.9.3 0-.8.2-.9.7-.9h1.1l.1-.9zm-4.2 3.2c-.3 0-.4.1-.4.4v.3c0 .3.1.4.4.4h.3c.3 0 .4-.1.4-.4v-.3c0-.3-.1-.4-.4-.4h-.3zM68 246v-4.3h-1.2l-1.1.4.1.7 1-.2v3.4H68z" style="clip-path:url(#SVGID_36_);fill:#39363a"/></g></switch></svg>