<?xml version="1.0" encoding="utf-8"?>
<!-- Generator: Adobe Illustrator 27.4.1, SVG Export Plug-In . SVG Version: 6.00 Build 0)  -->
<svg version="1.1" id="Слой_1" xmlns="http://www.w3.org/2000/svg" xmlns:xlink="http://www.w3.org/1999/xlink" x="0px" y="0px"
	 viewBox="0 0 1280 1024" style="enable-background:new 0 0 1280 1024;" xml:space="preserve">
<style type="text/css">
	.st0{fill:#DFEAB4;}
	.st1{fill:#373437;}
	.st2{fill:none;stroke:#373437;}
	.st3{fill:#FFFFFF;}
	.st4{fill:none;stroke:#373437;stroke-dasharray:2.348,2.348;}
	.st5{fill:none;stroke:#373437;stroke-dasharray:2.421,2.421;}
	.st6{fill:none;stroke:#373437;stroke-width:1;stroke-miterlimit:3.9999;}
	.st7{fill:none;stroke:#373437;stroke-width:1;stroke-miterlimit:4.0001;}
</style>
<rect x="193.5" y="188.5" class="st0" width="765.9" height="222.4"/>
<rect x="252.9" y="400" class="st0" width="711.1" height="240.9"/>
<rect x="654.1" y="436.8" class="st0" width="323.5" height="240.9"/>
<rect x="736.8" y="547.9" class="st0" width="236.8" height="239"/>
<rect x="834" y="597.1" class="st0" width="139.6" height="246"/>
<rect x="832.8" y="594" class="st1" width="135" height="7.8"/>
<rect x="832.8" y="594" class="st2" width="135" height="7.8"/>
<rect x="231.4" y="629.5" class="st1" width="421.7" height="18.1"/>
<rect x="231.4" y="629.5" class="st2" width="388.1" height="18.1"/>
<rect x="635.9" y="629.5" class="st1" width="18.8" height="55.3"/>
<rect x="729.8" y="681.1" class="st1" width="17.9" height="96.2"/>
<rect x="729.8" y="686.7" class="st2" width="17.9" height="90.6"/>
<rect x="729.8" y="773.8" class="st1" width="51" height="18.9"/>
<rect x="766.8" y="782" class="st1" width="68.9" height="10.7"/>
<rect x="809.8" y="782" class="st2" width="25.9" height="8.8"/>
<rect x="878.8" y="566.9" class="st1" width="61" height="30.9"/>
<rect x="878.8" y="566.9" class="st2" width="61" height="30.9"/>
<rect x="152" y="150.7" class="st1" width="848.6" height="37.6"/>
<rect x="152" y="150.7" class="st2" width="848.6" height="37.6"/>
<rect x="152" y="170" class="st1" width="16.5" height="93.9"/>
<rect x="152.5" y="366.8" class="st1" width="16" height="73.1"/>
<rect x="152.5" y="366.8" class="st2" width="16" height="73.1"/>
<rect x="191.3" y="398.9" class="st1" width="54.4" height="41.1"/>
<rect x="191.3" y="398.9" class="st2" width="54.4" height="41.1"/>
<rect x="215.1" y="398.9" class="st1" width="55.7" height="35.3"/>
<rect x="215.1" y="398.9" class="st2" width="55.7" height="35.3"/>
<rect x="269.8" y="408.1" class="st1" width="336.6" height="8.5"/>
<rect x="269.8" y="408.1" class="st2" width="336.6" height="8.5"/>
<rect x="663.7" y="408.1" class="st1" width="423.3" height="8.5"/>
<rect x="663.7" y="408.1" class="st2" width="423.3" height="8.5"/>
<rect x="467.1" y="167.8" class="st1" width="8.5" height="167.4"/>
<rect x="467.1" y="167.8" class="st2" width="8.5" height="167.4"/>
<rect x="467.1" y="389.6" class="st1" width="8.5" height="20.6"/>
<rect x="467.1" y="389.6" class="st2" width="8.5" height="20.6"/>
<rect x="472.1" y="313.5" class="st1" width="24.1" height="8.5"/>
<rect x="472.1" y="313.5" class="st2" width="24.1" height="8.5"/>
<rect x="538.2" y="313.5" class="st1" width="84.3" height="8.5"/>
<rect x="538.2" y="313.5" class="st2" width="84.3" height="8.5"/>
<rect x="664.5" y="313.5" class="st1" width="25" height="8.5"/>
<rect x="664.5" y="313.5" class="st2" width="25" height="8.5"/>
<rect x="681.6" y="388.3" class="st1" width="8.5" height="23.2"/>
<rect x="681.6" y="388.3" class="st2" width="8.5" height="23.2"/>
<rect x="686.6" y="398.1" class="st1" width="61.6" height="13.4"/>
<rect x="686.6" y="398.1" class="st2" width="61.6" height="13.4"/>
<rect x="960.1" y="396.7" class="st1" width="41.2" height="14.9"/>
<rect x="960.1" y="396.7" class="st2" width="41.2" height="14.9"/>
<rect x="985.7" y="390.9" class="st1" width="15.6" height="13.4"/>
<rect x="985.7" y="390.9" class="st2" width="15.6" height="13.4"/>
<rect x="985.7" y="150.7" class="st1" width="15.6" height="114"/>
<rect x="985.7" y="150.7" class="st2" width="15.6" height="114"/>
<rect x="993.6" y="150.7" class="st1" width="93.4" height="7.7"/>
<rect x="993.6" y="150.7" class="st2" width="93.4" height="7.7"/>
<rect x="1078.5" y="155.4" class="st1" width="8.5" height="45.9"/>
<rect x="1078.5" y="155.4" class="st2" width="8.5" height="45.9"/>
<rect x="1078.5" y="197" class="st2" width="8.5" height="214.6"/>
<rect x="960.1" y="160" class="st1" width="29.1" height="98.7"/>
<rect x="960.1" y="160" class="st2" width="29.1" height="98.7"/>
<rect x="964.8" y="414.5" class="st1" width="122.2" height="10.2"/>
<rect x="964.8" y="414.5" class="st2" width="122.2" height="10.2"/>
<rect x="913.7" y="837.5" class="st1" width="63.3" height="17.9"/>
<rect x="913.7" y="837.5" class="st2" width="63.3" height="17.9"/>
<rect x="831.1" y="837.5" class="st1" width="22.7" height="17.9"/>
<rect x="831.1" y="837.5" class="st2" width="22.7" height="17.9"/>
<rect x="834" y="737" class="st1" width="7.8" height="51.9"/>
<rect x="834" y="737" class="st2" width="7.8" height="51.9"/>
<rect x="834" y="664" class="st1" width="7.8" height="33.7"/>
<rect x="834" y="664" class="st2" width="7.8" height="33.7"/>
<rect x="635.9" y="677" class="st1" width="202.3" height="7.8"/>
<rect x="640" y="677" class="st2" width="198.2" height="7.8"/>
<rect x="964.8" y="418.8" class="st1" width="25.9" height="437.2"/>
<rect x="964.8" y="507.3" class="st1" width="12.2" height="347.6"/>
<rect x="964.8" y="507.3" class="st2" width="12.2" height="347.6"/>
<rect x="601.7" y="186.6" class="st1" width="8.5" height="128.6"/>
<rect x="601.7" y="186.6" class="st2" width="8.5" height="128.6"/>
<rect x="609.6" y="201.4" class="st1" width="52.6" height="26"/>
<rect x="609.6" y="201.4" class="st2" width="52.6" height="26"/>
<rect x="643.4" y="201.4" class="st1" width="41.6" height="8.4"/>
<rect x="643.4" y="201.4" class="st2" width="41.6" height="8.4"/>
<rect x="661.4" y="184.9" class="st1" width="16.7" height="19.9"/>
<rect x="661.4" y="184.9" class="st2" width="16.7" height="19.9"/>
<rect x="469.8" y="187.7" class="st1" width="15" height="72.5"/>
<rect x="469.8" y="187.7" class="st2" width="15" height="72.5"/>
<rect x="609.7" y="208.7" class="st3" width="10.2" height="10.2"/>
<rect x="609.7" y="208.7" class="st2" width="10.2" height="10.2"/>
<rect x="609.7" y="189.7" class="st3" width="50.3" height="11.1"/>
<rect x="609.7" y="189.7" class="st2" width="50.3" height="11.1"/>
<rect x="626.5" y="208.7" class="st3" width="10.2" height="10.2"/>
<rect x="626.5" y="208.7" class="st2" width="10.2" height="10.2"/>
<rect x="643.4" y="208.7" class="st3" width="10.2" height="10.2"/>
<rect x="643.4" y="208.7" class="st2" width="10.2" height="10.2"/>
<rect x="681.6" y="186.6" class="st1" width="8.5" height="148.6"/>
<rect x="681.6" y="186.6" class="st2" width="8.5" height="148.6"/>
<rect x="672.8" y="183.4" class="st1" width="12.3" height="76.8"/>
<rect x="672.8" y="183.4" class="st2" width="12.3" height="76.8"/>
<rect x="168" y="372" class="st1" width="24.8" height="68"/>
<rect x="168" y="372" class="st2" width="24.8" height="68"/>
<rect x="410.6" y="398.9" class="st1" width="61.6" height="13.8"/>
<rect x="410.6" y="398.9" class="st2" width="61.6" height="13.8"/>
<rect x="164.6" y="160" class="st1" width="28" height="98.7"/>
<rect x="164.6" y="189.3" class="st2" width="28" height="69.4"/>
<path class="st2" d="M578.7,213.4c0-1-0.8-1.8-1.8-1.8s-1.8,0.8-1.8,1.8s0.8,1.8,1.8,1.8S578.7,214.4,578.7,213.4z"/>
<path class="st2" d="M490.4,220.6c0,7.2,5.9,13.1,13.1,13.1H583c7.2,0,13.1-5.9,13.1-13.1v-14.3c0-7.2-5.9-13.1-13.1-13.1h-79.4
	c-7.2,0-13.1,5.9-13.1,13.1v14.3H490.4z"/>
<path class="st2" d="M497.7,216.8c0,7.2,5.9,13.1,13.1,13.1h64.7c7.2,0,13.1-5.9,13.1-13.1v-6.7c0-7.2-5.9-13.1-13.1-13.1h-64.7
	c-7.2,0-13.1,5.9-13.1,13.1L497.7,216.8L497.7,216.8z"/>
<path class="st2" d="M506.6,219.7c0,3.6,2.9,6.6,6.6,6.6h64.9c3.6,0,6.6-2.9,6.6-6.6v-12.5c0-3.6-2.9-6.6-6.6-6.6h-64.9
	c-3.6,0-6.6,2.9-6.6,6.6V219.7z"/>
<polygon class="st2" points="600.2,189.8 600.2,189.8 486.3,189.8 486.3,237.1 600.2,237.1 "/>
<rect x="229.7" y="602.5" class="st1" width="16.6" height="44.5"/>
<rect x="152" y="636.7" class="st1" width="498.4" height="11.8"/>
<rect x="152" y="431.6" class="st2" width="8.8" height="216.6"/>
<rect x="152" y="247.4" class="st2" width="22.7" height="151"/>
<rect x="169.5" y="247.4" class="st2" width="23.2" height="151"/>
<rect x="169.5" y="366.8" class="st2" width="5.2" height="8.4"/>
<rect x="169.5" y="255.5" class="st2" width="5.2" height="8.4"/>
<rect x="241.8" y="607.6" class="st1" width="28" height="40.6"/>
<rect x="824" y="782" class="st1" width="17.8" height="74"/>
<rect x="920.3" y="575.1" class="st3" width="11.1" height="18.1"/>
<rect x="920.3" y="575.1" class="st2" width="11.1" height="18.1"/>
<rect x="884.8" y="575.1" class="st3" width="27.4" height="18.1"/>
<rect x="884.8" y="575.1" class="st2" width="27.4" height="18.1"/>
<rect x="737.6" y="797.2" class="st3" width="11.6" height="11.6"/>
<rect x="247.2" y="433.2" class="st2" width="5" height="119.3"/>
<rect x="247.2" y="548.3" class="st2" width="5" height="4.2"/>
<rect x="247.2" y="543.7" class="st2" width="5" height="8.8"/>
<rect x="247.2" y="492.1" class="st2" width="5" height="4.2"/>
<rect x="247.2" y="487.5" class="st2" width="5" height="8.8"/>
<rect x="247.2" y="433.2" class="st2" width="5" height="6.8"/>
<rect x="979.3" y="259.2" class="st2" width="5.4" height="5.7"/>
<rect x="985.1" y="249.2" class="st2" width="16.2" height="91.6"/>
<rect x="960.1" y="252.4" class="st2" width="24.6" height="85.3"/>
<rect x="979.3" y="252.4" class="st2" width="5.4" height="85.3"/>
<rect x="979.3" y="332" class="st2" width="5.4" height="5.7"/>
<path class="st2" d="M985,339c0,0-7.4,0-16.6,3.2c-7.7,2.7-14.9,8-14.9,8l30.1,51.6l1.8-1.1L955.3,349"/>
<path class="st2" d="M683,335.5c0,0,7.4,0,16.6,3.2c7.7,2.7,14.9,8,14.9,8l-30.1,51.6l-1.8-1.1l30.1-51.7"/>
<path class="st2" d="M473.7,335.5c0,0-7.4,0-16.6,3.2c-7.7,2.7-14.9,8-14.9,8l30.1,51.6l1.8-1.1L444,345.5"/>
<path class="st2" d="M247.8,552.6c0,0,7.4,0,16.6,3.2c7.7,2.7,14.9,8,14.9,8l-30.1,51.6l-1.8-1.1l30.1-51.7"/>
<path class="st2" d="M914.7,852.2c0,0,0,7.2-3.1,16.1c-2.6,7.5-7.8,14.4-7.8,14.4l-50.1-29.2l1.2-2.4l50.2,29.2"/>
<path class="st2" d="M834.4,601.4c0,0-7.2,0-16.1,3.1c-7.5,2.6-14.4,7.8-14.4,7.8l32.8,55.4l2.4-1.2L806.3,611"/>
<path class="st2" d="M838.2,737.3c0,0,5.3,0,11.8-2.3c5.5-1.9,10.6-5.8,10.6-5.8L836.5,688l-1.9,1.3l24.1,41.2"/>
<path class="st2" d="M606.1,408.7c0,0,0,7.4,3.2,16.6c2.7,7.7,8,14.9,8,14.9L669,410l-1.1-1.8l-51.7,30.1"/>
<path class="st2" d="M620.3,314c0,0,0,6.1,2.7,13.7c2.2,6.3,6.6,12.3,6.6,12.3l42.6-24.8l-0.9-1.5l-42.7,24.8"/>
<path class="st2" d="M538.3,314c0,0,0,6.1-2.7,13.7C533.4,334,529,340,529,340l-42.6-24.8l0.9-1.5l42.7,24.8"/>
<path class="st1" d="M572.9,259.7c0,6.7,5.5,12.2,12.2,12.2h13c1,0,1.9-0.8,1.9-1.9v-27.7c0-1-0.8-1.9-1.9-1.9h-13
	c-6.7,0-12.2,5.5-12.2,12.2V259.7z M600.7,242.4v27.7c0,1.4-1.1,2.6-2.5,2.6h-13c-7.1,0-12.9-5.8-12.9-12.9v-6.9
	c0-7.1,5.8-12.9,12.9-12.9h13C599.5,239.8,600.7,241,600.7,242.4"/>
<path class="st2" d="M572.9,259.7c0,6.7,5.5,12.2,12.2,12.2h13c1,0,1.9-0.8,1.9-1.9v-27.7c0-1-0.8-1.9-1.9-1.9h-13
	c-6.7,0-12.2,5.5-12.2,12.2V259.7z M600.7,242.4v27.7c0,1.4-1.1,2.6-2.5,2.6h-13c-7.1,0-12.9-5.8-12.9-12.9v-6.9
	c0-7.1,5.8-12.9,12.9-12.9h13C599.5,239.8,600.7,241,600.7,242.4z"/>
<path class="st1" d="M576,259.7c0,5.1,4.1,9.2,9.2,9.2h7.6c0.9,0,1.6-0.7,1.6-1.6v-22.1c0-0.9-0.7-1.6-1.6-1.6h-7.6
	c-5.1,0-9.2,4.1-9.2,9.2V259.7z M595,245.2v22.1c0,1.3-1,2.3-2.3,2.3h-7.6c-5.4,0-9.9-4.4-9.9-9.9v-6.9c0-5.4,4.4-9.9,9.9-9.9h7.6
	C594,242.9,595,243.9,595,245.2"/>
<path class="st2" d="M576,259.7c0,5.1,4.1,9.2,9.2,9.2h7.6c0.9,0,1.6-0.7,1.6-1.6v-22.1c0-0.9-0.7-1.6-1.6-1.6h-7.6
	c-5.1,0-9.2,4.1-9.2,9.2V259.7z M595,245.2v22.1c0,1.3-1,2.3-2.3,2.3h-7.6c-5.4,0-9.9-4.4-9.9-9.9v-6.9c0-5.4,4.4-9.9,9.9-9.9h7.6
	C594,242.9,595,243.9,595,245.2z"/>
<path class="st1" d="M582.4,256.2c0,0.8,0.7,1.5,1.5,1.5s1.5-0.7,1.5-1.5c0-0.8-0.7-1.5-1.5-1.5
	C583.1,254.7,582.4,255.4,582.4,256.2 M586.1,256.2c0,1.2-1,2.2-2.2,2.2s-2.2-1-2.2-2.2c0-1.2,1-2.2,2.2-2.2
	C585.1,254,586.1,255,586.1,256.2"/>
<path class="st2" d="M582.4,256.2c0,0.8,0.7,1.5,1.5,1.5s1.5-0.7,1.5-1.5c0-0.8-0.7-1.5-1.5-1.5
	C583.1,254.7,582.4,255.4,582.4,256.2z M586.1,256.2c0,1.2-1,2.2-2.2,2.2s-2.2-1-2.2-2.2c0-1.2,1-2.2,2.2-2.2
	C585.1,254,586.1,255,586.1,256.2z"/>
<path class="st1" d="M770.4,699.8c0-5.3-4.3-9.7-9.7-9.7h-10.3c-0.8,0-1.5,0.7-1.5,1.5v21.9c0,0.8,0.7,1.5,1.5,1.5h10.3
	c5.3,0,9.7-4.3,9.7-9.7V699.8z M748.4,713.5v-21.9c0-1.1,0.9-2,2-2h10.3c5.6,0,10.2,4.6,10.2,10.2v5.5c0,5.6-4.6,10.2-10.2,10.2
	h-10.3C749.4,715.5,748.4,714.6,748.4,713.5"/>
<path class="st2" d="M770.4,699.8c0-5.3-4.3-9.7-9.7-9.7h-10.3c-0.8,0-1.5,0.7-1.5,1.5v21.9c0,0.8,0.7,1.5,1.5,1.5h10.3
	c5.3,0,9.7-4.3,9.7-9.7V699.8z M748.4,713.5v-21.9c0-1.1,0.9-2,2-2h10.3c5.6,0,10.2,4.6,10.2,10.2v5.5c0,5.6-4.6,10.2-10.2,10.2
	h-10.3C749.4,715.5,748.4,714.6,748.4,713.5z"/>
<path class="st1" d="M768,699.8c0-4-3.3-7.2-7.2-7.2h-6c-0.7,0-1.3,0.6-1.3,1.3v17.4c0,0.7,0.6,1.3,1.3,1.3h6c4,0,7.2-3.3,7.2-7.2
	V699.8z M752.9,711.3v-17.4c0-1,0.8-1.8,1.8-1.8h6c4.3,0,7.8,3.5,7.8,7.8v5.5c0,4.3-3.5,7.8-7.8,7.8h-6
	C753.7,713.1,752.9,712.3,752.9,711.3"/>
<path class="st2" d="M768,699.8c0-4-3.3-7.2-7.2-7.2h-6c-0.7,0-1.3,0.6-1.3,1.3v17.4c0,0.7,0.6,1.3,1.3,1.3h6c4,0,7.2-3.3,7.2-7.2
	V699.8z M752.9,711.3v-17.4c0-1,0.8-1.8,1.8-1.8h6c4.3,0,7.8,3.5,7.8,7.8v5.5c0,4.3-3.5,7.8-7.8,7.8h-6
	C753.7,713.1,752.9,712.3,752.9,711.3z"/>
<path class="st1" d="M762.9,702.6c0-0.7-0.5-1.2-1.2-1.2s-1.2,0.5-1.2,1.2s0.5,1.2,1.2,1.2C762.3,703.8,762.9,703.2,762.9,702.6
	 M759.9,702.6c0-1,0.8-1.8,1.7-1.8c1,0,1.8,0.8,1.8,1.8s-0.8,1.8-1.8,1.8C760.7,704.3,759.9,703.5,759.9,702.6"/>
<path class="st2" d="M762.9,702.6c0-0.7-0.5-1.2-1.2-1.2s-1.2,0.5-1.2,1.2s0.5,1.2,1.2,1.2C762.3,703.8,762.9,703.2,762.9,702.6z
	 M759.9,702.6c0-1,0.8-1.8,1.7-1.8c1,0,1.8,0.8,1.8,1.8s-0.8,1.8-1.8,1.8C760.7,704.3,759.9,703.5,759.9,702.6z"/>
<rect x="563.4" y="274.2" class="st2" width="36.8" height="37.9"/>
<line class="st2" x1="563.9" y1="274.1" x2="600" y2="312"/>
<line class="st2" x1="600.5" y1="274.1" x2="564.3" y2="312"/>
<path class="st1" d="M962.8,502h-39v38.6h39V502z M963.7,541.4H923v-40.3h40.7V541.4z"/>
<path class="st2" d="M962.8,502h-39v38.6h39V502z M963.7,541.4H923v-40.3h40.7V541.4z"/>
<path class="st1" d="M927.4,534.8c0,1,0.8,1.7,1.7,1.7h20.5c1,0,1.7-0.8,1.7-1.7v-27c0-1-0.8-1.7-1.7-1.7h-20.5
	c-1,0-1.7,0.8-1.7,1.7V534.8z M952.2,507.7v27c0,1.4-1.2,2.6-2.6,2.6h-20.5c-1.4,0-2.6-1.2-2.6-2.6v-27c0-1.4,1.2-2.6,2.6-2.6h20.5
	C951,505.2,952.2,506.3,952.2,507.7"/>
<path class="st2" d="M927.4,534.8c0,1,0.8,1.7,1.7,1.7h20.5c1,0,1.7-0.8,1.7-1.7v-27c0-1-0.8-1.7-1.7-1.7h-20.5
	c-1,0-1.7,0.8-1.7,1.7V534.8z M952.2,507.7v27c0,1.4-1.2,2.6-2.6,2.6h-20.5c-1.4,0-2.6-1.2-2.6-2.6v-27c0-1.4,1.2-2.6,2.6-2.6h20.5
	C951,505.2,952.2,506.3,952.2,507.7z"/>
<path class="st1" d="M948.3,509h-17.9v24.5h17.9V509z M949.2,534.3h-19.6v-26.2h19.6V534.3z"/>
<path class="st2" d="M948.3,509h-17.9v24.5h17.9V509z M949.2,534.3h-19.6v-26.2h19.6V534.3z"/>
<path class="st1" d="M935.9,521.2c0,1.2,1,2.2,2.2,2.2s2.2-1,2.2-2.2s-1-2.2-2.2-2.2S935.9,520,935.9,521.2 M941.2,521.2
	c0,1.7-1.4,3.1-3.1,3.1c-1.7,0-3.1-1.4-3.1-3.1c0-1.7,1.4-3.1,3.1-3.1C939.9,518.2,941.2,519.6,941.2,521.2"/>
<path class="st2" d="M935.9,521.2c0,1.2,1,2.2,2.2,2.2s2.2-1,2.2-2.2s-1-2.2-2.2-2.2S935.9,520,935.9,521.2z M941.2,521.2
	c0,1.7-1.4,3.1-3.1,3.1c-1.7,0-3.1-1.4-3.1-3.1c0-1.7,1.4-3.1,3.1-3.1C939.9,518.2,941.2,519.6,941.2,521.2z"/>
<line class="st2" x1="926.2" y1="566.8" x2="970.9" y2="566.8"/>
<line class="st4" x1="698.5" y1="426.2" x2="698.5" y2="588.1"/>
<line class="st5" x1="707.6" y1="594" x2="826" y2="594"/>
<path class="st2" d="M829.1,594h3 M698.5,591.1v2.9h3 M698.5,417.3v2.9"/>
<path class="st1" d="M794.5,723c6.6,0,11.9,5.3,11.9,11.9v17.3c0,1.1-0.9,2.1-2.1,2.1h-19.7c-1.1,0-2.1-0.9-2.1-2.1v-17.3
	C782.6,728.3,787.9,723,794.5,723 M784.6,755h19.7c1.6,0,2.9-1.3,2.9-2.9v-17.3c0-7-5.7-12.7-12.7-12.7s-12.7,5.7-12.7,12.7v17.3
	C781.8,753.8,783.1,755,784.6,755"/>
<path class="st2" d="M794.5,723c6.6,0,11.9,5.3,11.9,11.9v17.3c0,1.1-0.9,2.1-2.1,2.1h-19.7c-1.1,0-2.1-0.9-2.1-2.1v-17.3
	C782.6,728.3,787.9,723,794.5,723z M784.6,755h19.7c1.6,0,2.9-1.3,2.9-2.9v-17.3c0-7-5.7-12.7-12.7-12.7s-12.7,5.7-12.7,12.7v17.3
	C781.8,753.8,783.1,755,784.6,755z"/>
<path class="st2" d="M803.1,748.5H786c-0.1,0-0.2-0.1-0.2-0.2v-13c0-4.8,3.9-8.8,8.8-8.8c4.8,0,8.8,3.9,8.8,8.8v13
	C803.3,748.4,803.2,748.5,803.1,748.5z"/>
<path class="st1" d="M802.8,748.1h-16.7v-12.8c0-4.6,3.7-8.3,8.3-8.3s8.3,3.7,8.3,8.3v12.8H802.8z M786,748.9h17.1
	c0.3,0,0.6-0.3,0.6-0.6v-13c0-5.1-4.1-9.2-9.2-9.2c-5.1,0-9.2,4.1-9.2,9.2v13C785.3,748.6,785.6,748.9,786,748.9"/>
<path class="st2" d="M802.8,748.1h-16.7v-12.8c0-4.6,3.7-8.3,8.3-8.3s8.3,3.7,8.3,8.3v12.8H802.8z M786,748.9h17.1
	c0.3,0,0.6-0.3,0.6-0.6v-13c0-5.1-4.1-9.2-9.2-9.2c-5.1,0-9.2,4.1-9.2,9.2v13C785.3,748.6,785.6,748.9,786,748.9z"/>
<path class="st1" d="M794.5,735.2c1.2,0,2.3,1,2.3,2.2s-1,2.3-2.3,2.3c-1.2,0-2.3-1-2.3-2.3C792.3,736.2,793.3,735.2,794.5,735.2
	 M794.5,740.6c1.7,0,3.1-1.4,3.1-3.1c0-1.7-1.4-3.1-3.1-3.1c-1.7,0-3.1,1.4-3.1,3.1C791.4,739.2,792.8,740.6,794.5,740.6"/>
<path class="st2" d="M794.5,735.2c1.2,0,2.3,1,2.3,2.2s-1,2.3-2.3,2.3c-1.2,0-2.3-1-2.3-2.3C792.3,736.2,793.3,735.2,794.5,735.2z
	 M794.5,740.6c1.7,0,3.1-1.4,3.1-3.1c0-1.7-1.4-3.1-3.1-3.1c-1.7,0-3.1,1.4-3.1,3.1C791.4,739.2,792.8,740.6,794.5,740.6z"/>
<rect x="799" y="740.4" transform="matrix(0.8011 -0.5985 0.5985 0.8011 -286.1994 626.3673)" class="st1" width="0.8" height="6.8"/>
<rect x="799" y="740.4" transform="matrix(0.8011 -0.5985 0.5985 0.8011 -286.1994 626.3673)" class="st6" width="0.8" height="6.8"/>
<polygon class="st1" points="788,746.8 792.1,741.3 791.4,740.8 787.3,746.3 "/>
<polygon class="st2" points="788,746.8 792.1,741.3 791.4,740.8 787.3,746.3 "/>
<path class="st1" d="M802.7,755.1c1.8,0,3.3,1.5,3.3,3.3v4.5c0,1.8-1.5,3.3-3.3,3.3h-16.5c-1.8,0-3.3-1.5-3.3-3.3v-4.5
	c0-1.8,1.5-3.3,3.3-3.3H802.7z M786.3,767h16.5c2.3,0,4.1-1.9,4.1-4.1v-4.5c0-2.3-1.8-4.1-4.1-4.1h-16.5c-2.3,0-4.1,1.8-4.1,4.1v4.5
	C782.2,765.2,784,767,786.3,767"/>
<path class="st2" d="M802.7,755.1c1.8,0,3.3,1.5,3.3,3.3v4.5c0,1.8-1.5,3.3-3.3,3.3h-16.5c-1.8,0-3.3-1.5-3.3-3.3v-4.5
	c0-1.8,1.5-3.3,3.3-3.3H802.7z M786.3,767h16.5c2.3,0,4.1-1.9,4.1-4.1v-4.5c0-2.3-1.8-4.1-4.1-4.1h-16.5c-2.3,0-4.1,1.8-4.1,4.1v4.5
	C782.2,765.2,784,767,786.3,767z"/>
<path class="st1" d="M794.5,759.4c0.7,0,1.3,0.6,1.3,1.3s-0.6,1.3-1.3,1.3s-1.3-0.6-1.3-1.3C793.2,759.9,793.8,759.4,794.5,759.4
	 M794.5,762.7c1.2,0,2.1-0.9,2.1-2.1c0-1.2-0.9-2.1-2.1-2.1c-1.2,0-2.1,0.9-2.1,2.1S793.4,762.7,794.5,762.7"/>
<path class="st2" d="M794.5,759.4c0.7,0,1.3,0.6,1.3,1.3s-0.6,1.3-1.3,1.3s-1.3-0.6-1.3-1.3C793.2,759.9,793.8,759.4,794.5,759.4z
	 M794.5,762.7c1.2,0,2.1-0.9,2.1-2.1c0-1.2-0.9-2.1-2.1-2.1c-1.2,0-2.1,0.9-2.1,2.1S793.4,762.7,794.5,762.7z"/>
<path class="st1" d="M641.1,282.5c-6.6,0-11.9-5.3-11.9-11.9v-17.3c0-1.1,0.9-2.1,2.1-2.1H651c1.1,0,2.1,0.9,2.1,2.1v17.3
	C653,277.2,647.7,282.5,641.1,282.5 M651,250.5h-19.7c-1.6,0-2.9,1.3-2.9,2.9v17.3c0,7,5.7,12.7,12.7,12.7s12.7-5.7,12.7-12.7v-17.3
	C653.9,251.8,652.6,250.5,651,250.5"/>
<path class="st2" d="M641.1,282.5c-6.6,0-11.9-5.3-11.9-11.9v-17.3c0-1.1,0.9-2.1,2.1-2.1H651c1.1,0,2.1,0.9,2.1,2.1v17.3
	C653,277.2,647.7,282.5,641.1,282.5z M651,250.5h-19.7c-1.6,0-2.9,1.3-2.9,2.9v17.3c0,7,5.7,12.7,12.7,12.7s12.7-5.7,12.7-12.7
	v-17.3C653.9,251.8,652.6,250.5,651,250.5z"/>
<path class="st2" d="M632.6,257.1h17.1c0.1,0,0.2,0.1,0.2,0.2v13c0,4.8-3.9,8.8-8.8,8.8c-4.8,0-8.8-3.9-8.8-8.8v-13
	C632.4,257.2,632.5,257.1,632.6,257.1z"/>
<path class="st1" d="M632.8,257.5h16.7v12.8c0,4.6-3.7,8.3-8.3,8.3s-8.3-3.7-8.3-8.3v-12.8H632.8z M649.7,256.6h-17.1
	c-0.3,0-0.6,0.3-0.6,0.6v13c0,5.1,4.1,9.2,9.2,9.2c5.1,0,9.2-4.1,9.2-9.2v-13C650.3,256.9,650,256.6,649.7,256.6"/>
<path class="st2" d="M632.8,257.5h16.7v12.8c0,4.6-3.7,8.3-8.3,8.3s-8.3-3.7-8.3-8.3v-12.8H632.8z M649.7,256.6h-17.1
	c-0.3,0-0.6,0.3-0.6,0.6v13c0,5.1,4.1,9.2,9.2,9.2c5.1,0,9.2-4.1,9.2-9.2v-13C650.3,256.9,650,256.6,649.7,256.6z"/>
<path class="st1" d="M641.1,270.3c-1.2,0-2.3-1-2.3-2.2s1-2.3,2.3-2.3c1.2,0,2.3,1,2.3,2.3S642.4,270.3,641.1,270.3 M641.1,265
	c-1.7,0-3.1,1.4-3.1,3.1s1.4,3.1,3.1,3.1c1.7,0,3.1-1.4,3.1-3.1C644.2,266.3,642.8,265,641.1,265"/>
<path class="st2" d="M641.1,270.3c-1.2,0-2.3-1-2.3-2.2s1-2.3,2.3-2.3c1.2,0,2.3,1,2.3,2.3S642.4,270.3,641.1,270.3z M641.1,265
	c-1.7,0-3.1,1.4-3.1,3.1s1.4,3.1,3.1,3.1c1.7,0,3.1-1.4,3.1-3.1C644.2,266.3,642.8,265,641.1,265z"/>
<rect x="635.8" y="258.3" transform="matrix(0.8011 -0.5985 0.5985 0.8011 -30.0989 432.8153)" class="st1" width="0.8" height="6.8"/>
<rect x="635.8" y="258.3" transform="matrix(0.8011 -0.5985 0.5985 0.8011 -30.0989 432.8153)" class="st6" width="0.8" height="6.8"/>
<polygon class="st1" points="647.7,258.7 643.6,264.2 644.2,264.7 648.3,259.2 "/>
<polygon class="st2" points="647.7,258.7 643.6,264.2 644.2,264.7 648.3,259.2 "/>
<path class="st1" d="M632.9,250.4c-1.8,0-3.3-1.5-3.3-3.3v-4.5c0-1.8,1.5-3.3,3.3-3.3h16.5c1.8,0,3.3,1.5,3.3,3.3v4.5
	c0,1.8-1.5,3.3-3.3,3.3H632.9z M649.4,238.5h-16.5c-2.3,0-4.1,1.9-4.1,4.1v4.5c0,2.3,1.8,4.1,4.1,4.1h16.5c2.3,0,4.1-1.8,4.1-4.1
	v-4.5C653.5,240.4,651.6,238.5,649.4,238.5"/>
<path class="st2" d="M632.9,250.4c-1.8,0-3.3-1.5-3.3-3.3v-4.5c0-1.8,1.5-3.3,3.3-3.3h16.5c1.8,0,3.3,1.5,3.3,3.3v4.5
	c0,1.8-1.5,3.3-3.3,3.3H632.9z M649.4,238.5h-16.5c-2.3,0-4.1,1.9-4.1,4.1v4.5c0,2.3,1.8,4.1,4.1,4.1h16.5c2.3,0,4.1-1.8,4.1-4.1
	v-4.5C653.5,240.4,651.6,238.5,649.4,238.5z"/>
<path class="st1" d="M641.1,246.2c-0.7,0-1.3-0.6-1.3-1.3s0.6-1.3,1.3-1.3s1.3,0.6,1.3,1.3C642.4,245.6,641.8,246.2,641.1,246.2
	 M641.1,242.8c-1.2,0-2.1,0.9-2.1,2.1c0,1.2,0.9,2.1,2.1,2.1c1.2,0,2.1-0.9,2.1-2.1C643.2,243.7,642.3,242.8,641.1,242.8"/>
<path class="st2" d="M641.1,246.2c-0.7,0-1.3-0.6-1.3-1.3s0.6-1.3,1.3-1.3s1.3,0.6,1.3,1.3C642.4,245.6,641.8,246.2,641.1,246.2z
	 M641.1,242.8c-1.2,0-2.1,0.9-2.1,2.1c0,1.2,0.9,2.1,2.1,2.1c1.2,0,2.1-0.9,2.1-2.1C643.2,243.7,642.3,242.8,641.1,242.8z"/>
<path class="st1" d="M906.6,672.1c0.6,0.6,1.5,0.9,2.6,0.9s1.9-0.3,2.5-0.9c0.6-0.6,0.9-1.5,0.9-2.7v-3.2c0-1.1-0.2-1.9-0.6-2.5
	c-0.4-0.6-1-0.8-1.9-0.8s-1.6,0.3-2,1l0.2-3.4h3.9v-2.1h-6.1l-0.4,8.4h2.3v-0.4c0-0.9,0.4-1.4,1.2-1.4s1.2,0.5,1.2,1.4v3.2
	c0,0.9-0.4,1.4-1.2,1.4s-1.2-0.5-1.2-1.4v-1.3h-2.3v1.2C905.7,670.6,906,671.5,906.6,672.1 M904.2,670.8h-2.3v2.1h2.3V670.8z
	 M895.9,667c0-0.9,0.4-1.4,1.2-1.4s1.2,0.5,1.2,1.4v2.6c0,0.9-0.4,1.4-1.2,1.4s-1.2-0.5-1.2-1.4V667z M894.5,672.1
	c0.6,0.6,1.4,0.9,2.6,0.9c1.1,0,2-0.3,2.5-0.9c0.6-0.6,0.9-1.5,0.9-2.7v-2.6c0-1.1-0.2-1.9-0.6-2.5c-0.4-0.6-1-0.8-1.9-0.8
	c-1,0-1.7,0.4-2.1,1.3v-2.6c0-0.7,0.1-1.1,0.3-1.4c0.2-0.3,0.5-0.4,1-0.4c0.8,0,1.2,0.5,1.2,1.4v0.5h2.1v-0.4c0-1.2-0.3-2.1-0.9-2.7
	c-0.6-0.6-1.4-0.9-2.5-0.9c-2.3,0-3.5,1.3-3.5,3.8v7.4C893.6,670.6,893.9,671.5,894.5,672.1"/>
<path class="st1" d="M933.5,637.2c0-0.5,0.1-0.9,0.3-1.1c0.2-0.2,0.5-0.4,0.9-0.4h1.1v4.4h-0.9c-0.4,0-0.8-0.1-1-0.3
	s-0.3-0.6-0.3-1.2L933.5,637.2L933.5,637.2z M933.2,648.1c0.1-0.2,0.1-0.3,0.1-0.4c0-0.1,0-0.2,0.1-0.5c0-0.2,0-0.5,0-0.9V644
	c0-0.7,0.1-1.1,0.4-1.4c0.2-0.3,0.6-0.4,1.1-0.4h0.8v5.9h2.3v-14.5h-3.4c-1.2,0-2,0.3-2.6,0.8c-0.5,0.5-0.8,1.4-0.8,2.5v1.1
	c0,1.5,0.5,2.5,1.5,2.9c-0.5,0.2-0.9,0.6-1.2,1.1c-0.2,0.5-0.3,1.2-0.3,2v2.2c0,0.8-0.1,1.4-0.2,1.8h2.2V648.1z M926.4,636.2
	l1.1,7.3h-2.2L926.4,636.2z M924.6,648.1l0.4-2.6h2.8l0.4,2.6h2.3l-2.3-14.5h-3.5l-2.3,14.5H924.6z M912.1,648.1l2.1-6.4l0.6,1.1
	v5.3h2.3v-5.3l0.6-1.1l2.1,6.4h2.3l-2.8-8.6l2.8-5.9h-2.2l-2.7,5.8v-5.8h-2.3v5.8l-2.7-5.8H910l2.8,5.9L910,648L912.1,648.1
	L912.1,648.1z M904.4,637c0-0.9,0.4-1.4,1.2-1.4s1.2,0.5,1.2,1.4v7.8c0,1-0.4,1.4-1.2,1.4s-1.2-0.5-1.2-1.4V637z M903,647.3
	c0.6,0.6,1.4,0.9,2.6,0.9c1.1,0,2-0.3,2.6-0.9c0.6-0.6,0.9-1.5,0.9-2.7v-7.5c0-1.2-0.3-2.1-0.9-2.7c-0.6-0.6-1.4-0.9-2.6-0.9
	c-1.1,0-2,0.3-2.6,0.9c-0.6,0.6-0.9,1.5-0.9,2.7v7.5C902.1,645.8,902.4,646.7,903,647.3 M895.2,648.1l1.8-5.4l1.7,5.4h2.3l-2.5-7.4
	l2.4-7.1h-2l-1.8,5.4l-1.7-5.4h-2.3l2.4,7l-2.5,7.5H895.2z M887,648.1l1.9-6.6l0.9-3.5v10.2h2.3v-14.5h-2.7l-1.9,6l-0.8,3.2v-9.2h-2
	v14.5h2.3V648.1z M879.1,635.7h1.1c0.4,0,0.7,0.1,0.8,0.3c0.2,0.2,0.3,0.6,0.3,1.1v2.2c0,0.5-0.1,0.9-0.3,1.1
	c-0.2,0.2-0.5,0.3-0.8,0.3h-1.1V635.7z M879.1,648.1v-5.4h1.1c1.1,0,2-0.3,2.5-0.9c0.6-0.6,0.9-1.5,0.9-2.7v-1.9
	c0-1.2-0.3-2-0.9-2.7c-0.6-0.6-1.4-0.9-2.5-0.9h-3.3v14.5L879.1,648.1L879.1,648.1z M870.3,648.1v-12.4h2.6v12.4h2.3v-14.5H868v14.5
	H870.3z"/>
<path class="st1" d="M584,378.4c0-1.1,0.5-1.7,1.4-1.7c1,0,1.4,0.6,1.4,1.7v3.1c0,1.1-0.5,1.7-1.4,1.7s-1.4-0.6-1.4-1.7V378.4z
	 M582,384.7c0.5,0.7,1.3,1,2.3,1c1.2,0,2.1-0.5,2.6-1.5v3.2c0,0.8-0.1,1.4-0.4,1.7c-0.3,0.3-0.6,0.5-1.2,0.5c-1,0-1.4-0.6-1.4-1.7
	v-0.6h-2.6v0.5c0,1.4,0.3,2.5,1,3.2c0.7,0.8,1.7,1.1,3,1.1c2.8,0,4.2-1.5,4.2-4.5v-8.9c0-1.4-0.4-2.5-1.1-3.2
	c-0.7-0.8-1.8-1.1-3.1-1.1s-2.4,0.4-3.1,1.1c-0.7,0.8-1.1,1.8-1.1,3.2v3.2C581.3,383,581.5,384,582,384.7 M579.7,389.3H577v2.5h2.7
	V389.3z M568,390.9c0.7,0.8,1.8,1.1,3.1,1.1s2.4-0.4,3-1.1c0.7-0.8,1-1.8,1-3.2v-1.4c0-1.9-0.6-3.1-1.9-3.7c1.3-0.5,1.9-1.7,1.9-3.6
	v-0.5c0-1.4-0.3-2.5-1-3.2c-0.7-0.8-1.7-1.1-3-1.1s-2.4,0.4-3.1,1.1c-0.7,0.8-1.1,1.8-1.1,3.2v1h2.7v-1.1c0-1.1,0.5-1.7,1.4-1.7
	c0.5,0,0.8,0.1,1.1,0.4c0.2,0.3,0.4,0.8,0.4,1.6v1c0,0.7-0.1,1.1-0.4,1.4c-0.3,0.3-0.7,0.4-1.2,0.4h-1.1v2.5h0.9
	c0.6,0,1.1,0.2,1.4,0.5c0.3,0.3,0.4,0.9,0.4,1.7v1.4c0,0.7-0.1,1.2-0.4,1.5c-0.2,0.3-0.6,0.4-1.1,0.4c-0.9,0-1.4-0.6-1.4-1.7v-1.6
	h-2.7v1.4C566.9,389,567.3,390.1,568,390.9"/>
<path class="st1" d="M608.4,346.9h1.3c0.5,0,0.8,0.1,1,0.4c0.2,0.2,0.3,0.7,0.3,1.3v2.6c0,0.6-0.1,1-0.3,1.3s-0.6,0.4-1,0.4h-1.3
	V346.9z M608.4,361.9v-6.6h1.3c1.4,0,2.4-0.4,3.1-1.1c0.7-0.7,1-1.8,1-3.2v-2.3c0-1.4-0.3-2.5-1-3.2s-1.7-1.1-3.1-1.1h-4v17.5
	L608.4,361.9L608.4,361.9z M598.3,348.4c0-1.1,0.5-1.7,1.4-1.7s1.4,0.6,1.4,1.7v9.4c0,1.2-0.5,1.7-1.4,1.7c-1,0-1.4-0.6-1.4-1.7
	V348.4z M596.6,360.9c0.7,0.8,1.8,1.1,3.1,1.1s2.4-0.4,3.1-1.1c0.7-0.8,1.1-1.8,1.1-3.2v-9.1c0-1.4-0.4-2.5-1.1-3.2
	c-0.7-0.8-1.7-1.1-3.1-1.1c-1.3,0-2.4,0.4-3.1,1.1c-0.7,0.8-1.1,1.8-1.1,3.2v9.1C595.6,359.1,595.9,360.2,596.6,360.9 M587.3,358.5
	c0.1-0.3,0.2-0.8,0.2-1.5l0.5-10.2h2.3v12.5h-3.6C587,359.2,587.1,358.9,587.3,358.5 M585.7,364.2v-2.3h5.8v2.3h2.7v-4.8H593v-15
	h-7.8l-0.5,12.7c0,0.5-0.1,1-0.2,1.3c-0.1,0.3-0.3,0.7-0.5,0.9h-1v4.8h2.7V364.2z M575.8,361.9l2.3-8l1.1-4.3v12.3h2.7v-17.5h-3.3
	l-2.2,7.2l-1,3.8v-11.1H573v17.5h2.8V361.9z M566.3,346.9h1.3c0.5,0,0.8,0.1,1,0.4c0.2,0.2,0.3,0.7,0.3,1.3v2.6c0,0.6-0.1,1-0.3,1.3
	s-0.6,0.4-1,0.4h-1.3V346.9z M566.3,361.9v-6.6h1.3c1.4,0,2.4-0.4,3.1-1.1c0.7-0.7,1-1.8,1-3.2v-2.3c0-1.4-0.3-2.5-1-3.2
	s-1.7-1.1-3.1-1.1h-4v17.5L566.3,361.9L566.3,361.9z M556.2,348.4c0-1.1,0.5-1.7,1.4-1.7s1.4,0.6,1.4,1.7v9.4c0,1.2-0.5,1.7-1.4,1.7
	c-1,0-1.4-0.6-1.4-1.7V348.4z M554.5,360.9c0.7,0.8,1.7,1.1,3.1,1.1c1.3,0,2.4-0.4,3.1-1.1c0.7-0.8,1.1-1.8,1.1-3.2v-9.1
	c0-1.4-0.4-2.5-1.1-3.2c-0.7-0.8-1.7-1.1-3.1-1.1c-1.3,0-2.4,0.4-3.1,1.1c-0.7,0.8-1.1,1.8-1.1,3.2v9.1
	C553.5,359.1,553.8,360.2,554.5,360.9 M546.1,361.9v-5.4l0.9-1.6l2.7,7h2.8l-3.8-9.7l3.8-7.8h-2.7l-3.6,7.6v-7.6h-2.7v17.5H546.1z"
	/>
<path class="st1" d="M836.8,531.2v-2.7h-5.6c0-0.1,0-0.2,0-0.4c0-0.4,0.1-0.8,0.3-1.3c0.2-0.4,0.5-0.9,0.9-1.3
	c0.3-0.4,0.7-0.9,1.2-1.3c0.4-0.5,0.8-0.9,1.3-1.5c0.4-0.5,0.8-1.1,1.1-1.7c0.3-0.6,0.6-1.2,0.9-2c0.2-0.7,0.3-1.5,0.3-2.3
	c0-1.5-0.4-2.7-1.1-3.5c-0.8-0.8-1.9-1.2-3.3-1.2c-1.4,0-2.6,0.4-3.3,1.2c-0.8,0.8-1.2,2-1.2,3.5v1.9h2.8v-2c0-1.2,0.5-1.9,1.5-1.9
	c0.5,0,0.9,0.2,1.1,0.5c0.3,0.3,0.4,0.9,0.4,1.7c0,0.7-0.1,1.4-0.3,2.1c-0.2,0.6-0.5,1.2-0.8,1.7s-0.7,1-1.2,1.4
	c-0.4,0.5-0.8,0.9-1.3,1.4c-0.4,0.5-0.8,1-1.2,1.5s-0.6,1.1-0.9,1.8c-0.2,0.7-0.3,1.4-0.3,2.1v2.3H836.8z M826.1,528.4h-3v2.7h3
	V528.4z M815.1,516.5c0-1.2,0.5-1.9,1.6-1.9c1,0,1.5,0.6,1.5,1.9v10.3c0,1.3-0.5,1.9-1.5,1.9s-1.6-0.6-1.6-1.9V516.5z M813.3,530.1
	c0.8,0.8,1.9,1.2,3.4,1.2s2.6-0.4,3.4-1.2c0.8-0.8,1.2-2,1.2-3.5v-9.9c0-1.5-0.4-2.7-1.2-3.5s-1.9-1.2-3.4-1.2s-2.6,0.4-3.4,1.2
	c-0.8,0.8-1.2,2-1.2,3.5v9.9C812.1,528.1,812.5,529.3,813.3,530.1 M805.8,516.7v14.5h3v-19h-2c-0.1,0.3-0.2,0.6-0.3,0.7
	c-0.1,0.2-0.2,0.4-0.4,0.6c-0.2,0.2-0.4,0.4-0.6,0.5c-0.2,0.1-0.5,0.2-0.8,0.3s-0.7,0.1-1.2,0.1v2.1h2.3V516.7z"/>
<path class="st1" d="M870.9,483l1.4,9.6h-2.9L870.9,483z M868.5,498.6l0.5-3.4h3.7l0.5,3.4h3l-3-19h-4.6l-3,19H868.5z M864.2,498.6
	v-19h-3v16.3h-2.6v-16.3h-3v16.3H853v-16.3h-3v19H864.2z M841.5,498.6l2.5-8.7l1.2-4.7v13.4h3v-19h-3.6l-2.4,7.8l-1.1,4.2v-12h-2.7
	v19L841.5,498.6L841.5,498.6z M829.9,498.6v-8.1h3.4v8.1h3v-19h-3v8.2h-3.4v-8.2h-3v19H829.9z M824.9,487.7h-5.4v2.7h5.4V487.7z
	 M811.5,484.3c0-0.7,0.1-1.2,0.4-1.5c0.2-0.3,0.6-0.5,1.2-0.5h1.4v5.8h-1.2c-0.6,0-1-0.2-1.3-0.5s-0.4-0.8-0.4-1.6v-1.7H811.5z
	 M811.2,498.6c0.1-0.2,0.1-0.4,0.1-0.5s0.1-0.3,0.1-0.6c0-0.3,0-0.7,0-1.2v-3c0-0.9,0.2-1.5,0.5-1.9s0.8-0.6,1.5-0.6h1v7.7h3v-19
	h-4.5c-1.5,0-2.6,0.4-3.4,1.1c-0.7,0.7-1.1,1.8-1.1,3.3v1.5c0,2,0.6,3.2,1.9,3.9c-0.7,0.3-1.2,0.8-1.5,1.5s-0.5,1.5-0.5,2.6v2.9
	c0,1-0.1,1.8-0.3,2.3L811.2,498.6L811.2,498.6z M800.1,498.6v-8.1h3.4v8.1h3v-19h-3v8.2h-3.4v-8.2h-3v19H800.1z M787.7,498.6
	l2.3-7.1l2.3,7.1h3l-3.3-9.7l3.1-9.3h-2.6l-2.3,7l-2.3-7h-3l3.1,9.2l-3.3,9.8H787.7z M777.6,494.2v0.2c-0.1,0.7-0.4,1.1-0.8,1.3
	c-0.4,0.2-1,0.3-1.8,0.2v2.7c0.8,0.1,1.5,0,2.1-0.1s1.1-0.3,1.5-0.5s0.8-0.6,1.1-1s0.5-0.9,0.7-1.4s0.3-1.1,0.5-1.9l3.2-14.1h-3
	l-1.4,6.5l-0.7,4.4l-0.9-4.4l-1.6-6.5h-3L777.6,494.2z M766.1,498.6v-5.8l0.9-1.7l2.9,7.6h3.1l-4.1-10.5l4.1-8.5h-3l-3.9,8.3v-8.3
	h-3v19h3V498.6z"/>
<path class="st1" d="M504.8,533.5c0-1.2,0.5-1.8,1.5-1.8s1.6,0.6,1.6,1.8v3.4c0,1.2-0.5,1.9-1.6,1.9c-1,0-1.5-0.6-1.5-1.9V533.5z
	 M502.7,540.4c0.6,0.7,1.4,1.1,2.5,1.1c1.3,0,2.2-0.6,2.8-1.7v3.5c0,0.9-0.1,1.5-0.4,1.8s-0.7,0.5-1.2,0.5c-1,0-1.6-0.6-1.6-1.9V543
	H502v0.5c0,1.5,0.4,2.7,1.1,3.5c0.8,0.8,1.9,1.2,3.3,1.2c3,0,4.6-1.6,4.6-4.9v-9.7c0-1.5-0.4-2.7-1.2-3.5c-0.8-0.8-1.9-1.2-3.4-1.2
	s-2.6,0.4-3.4,1.2s-1.2,2-1.2,3.5v3.5C501.8,538.6,502.1,539.7,502.7,540.4 M500.1,545.4h-3v2.7h3V545.4z M487.4,547.1
	c0.8,0.8,1.9,1.2,3.4,1.2s2.6-0.4,3.3-1.2c0.8-0.8,1.1-2,1.1-3.5v-1.5c0-2.1-0.7-3.4-2.1-4c1.4-0.6,2.1-1.9,2.1-3.9v-0.5
	c0-1.5-0.4-2.7-1.1-3.5c-0.8-0.8-1.9-1.2-3.3-1.2c-1.5,0-2.6,0.4-3.4,1.2s-1.2,2-1.2,3.5v1h3v-1.2c0-1.2,0.5-1.9,1.5-1.9
	c0.5,0,0.9,0.2,1.2,0.5c0.3,0.3,0.4,0.9,0.4,1.7v1.1c0,0.7-0.2,1.2-0.5,1.5s-0.7,0.5-1.3,0.5h-1.2v2.7h1c0.7,0,1.2,0.2,1.5,0.6
	c0.3,0.4,0.5,1,0.5,1.9v1.5c0,0.8-0.1,1.4-0.4,1.7s-0.6,0.5-1.2,0.5c-1,0-1.5-0.6-1.5-1.9V542h-3v1.6
	C486.2,545.1,486.6,546.3,487.4,547.1 M484.2,548.1v-2.7h-5.6c0-0.1,0-0.2,0-0.4c0-0.4,0.1-0.8,0.3-1.3c0.2-0.4,0.5-0.9,0.9-1.3
	c0.3-0.4,0.7-0.9,1.2-1.3c0.4-0.5,0.8-0.9,1.3-1.5c0.4-0.5,0.8-1.1,1.1-1.7c0.3-0.6,0.6-1.2,0.9-2c0.2-0.7,0.3-1.5,0.3-2.3
	c0-1.5-0.4-2.7-1.1-3.5c-0.8-0.8-1.9-1.2-3.3-1.2s-2.6,0.4-3.3,1.2c-0.8,0.8-1.1,2-1.1,3.5v1.9h2.8v-2c0-1.2,0.5-1.9,1.5-1.9
	c0.5,0,0.9,0.2,1.1,0.5c0.3,0.3,0.4,0.9,0.4,1.7c0,0.7-0.1,1.4-0.3,2.1c-0.2,0.6-0.5,1.2-0.8,1.7s-0.7,1-1.2,1.4
	c-0.4,0.5-0.8,0.9-1.3,1.4c-0.4,0.5-0.8,1-1.2,1.5c-0.4,0.5-0.6,1.1-0.9,1.8c-0.2,0.7-0.3,1.4-0.3,2.1v2.3H484.2z"/>
<path class="st1" d="M560.9,500l1.4,9.6h-2.9L560.9,500z M558.6,515.6l0.5-3.4h3.7l0.5,3.4h3l-3-19h-4.6l-3,19H558.6z M548.9,499.3
	v16.3h3v-16.3h3.1v-2.7h-9.2v2.7H548.9z M540.2,500l1.4,9.6h-2.9L540.2,500z M537.9,515.6l0.5-3.4h3.7l0.5,3.4h3l-3-19H538l-3,19
	H537.9z M527.1,515.6v-8.1h3.4v8.1h3v-19h-3v8.2h-3.4v-8.2h-3v19H527.1z M512,515.6v-13.4l2.2,13.4h2.8l2.1-13.6v13.6h3v-19h-4.3
	l-2,13.5l-2.2-13.5h-4.1v19H512z M501.4,500.9c0-1.2,0.5-1.9,1.6-1.9c1,0,1.5,0.6,1.5,1.9v10.3c0,1.3-0.5,1.9-1.5,1.9
	s-1.6-0.6-1.6-1.9V500.9z M499.6,514.5c0.8,0.8,1.9,1.2,3.4,1.2s2.6-0.4,3.4-1.2s1.2-2,1.2-3.5v-9.9c0-1.5-0.4-2.7-1.2-3.5
	c-0.8-0.8-1.9-1.2-3.4-1.2s-2.6,0.4-3.4,1.2c-0.8,0.8-1.2,2-1.2,3.5v9.9C498.4,512.5,498.8,513.7,499.6,514.5 M490.4,515.6v-5.8
	l0.9-1.7l2.9,7.6h3.1l-4.1-10.5l4.1-8.5h-3l-3.9,8.3v-8.3h-3v19L490.4,515.6L490.4,515.6z M475.1,501.2c0-0.7,0.1-1.2,0.4-1.5
	c0.2-0.3,0.6-0.5,1.2-0.5h1.4v5.8h-1.2c-0.6,0-1-0.2-1.3-0.5s-0.5-0.8-0.5-1.6V501.2z M474.8,515.6c0.1-0.2,0.1-0.4,0.1-0.5
	s0.1-0.3,0.1-0.6s0-0.7,0-1.2v-3c0-0.9,0.2-1.5,0.5-1.9s0.8-0.6,1.5-0.6h1v7.7h3v-19h-4.5c-1.5,0-2.6,0.4-3.4,1.1
	c-0.7,0.7-1.1,1.8-1.1,3.3v1.5c0,2,0.6,3.2,1.9,3.9c-0.7,0.3-1.2,0.8-1.5,1.5s-0.4,1.5-0.4,2.6v2.9c0,1-0.1,1.8-0.3,2.3H474.8z
	 M465.8,500l1.4,9.6h-2.9L465.8,500z M463.5,515.6l0.5-3.4h3.7l0.5,3.4h3l-3-19h-4.6l-3,19H463.5z M448.7,515.6
	c1.5,0,2.6-0.4,3.3-1.1c0.7-0.7,1-2,1.1-3.7l0.3-11.5h2.6v16.3h3v-19h-8.5l-0.3,14.4c0,0.4-0.1,0.8-0.1,1c-0.1,0.3-0.2,0.5-0.3,0.6
	c-0.2,0.1-0.3,0.2-0.5,0.3c-0.2,0-0.5,0.1-0.9,0.1v2.7L448.7,515.6L448.7,515.6z M440.6,515.6l2.5-8.7l1.2-4.7v13.4h3v-19h-3.6
	l-2.4,7.8l-1.1,4.2v-12h-2.7v19H440.6z M423.2,515.6l2.7-8.5l0.7,1.5v7h3v-7l0.7-1.4l2.7,8.4h3l-3.7-11.3l3.7-7.8h-2.9l-3.5,7.7
	v-7.7h-3v7.7l-3.5-7.7h-2.9l3.7,7.8l-3.7,11.2L423.2,515.6L423.2,515.6z"/>
<path class="st1" d="M337.9,327.4c0.8,0.8,1.9,1.2,3.4,1.2s2.6-0.4,3.3-1.2c0.8-0.8,1.1-2,1.1-3.5v-1.5c0-2.1-0.7-3.4-2.1-4
	c1.4-0.6,2.1-1.9,2.1-3.9V314c0-1.5-0.4-2.7-1.1-3.5s-1.9-1.2-3.3-1.2c-1.5,0-2.6,0.4-3.4,1.2s-1.2,2-1.2,3.5v1h3v-1.2
	c0-1.2,0.5-1.9,1.5-1.9c0.5,0,0.9,0.2,1.2,0.5c0.3,0.3,0.4,0.9,0.4,1.7v1.1c0,0.7-0.2,1.2-0.5,1.5s-0.7,0.5-1.3,0.5h-1.2v2.7h1
	c0.7,0,1.2,0.2,1.5,0.6s0.5,1,0.5,1.9v1.5c0,0.8-0.1,1.4-0.4,1.7c-0.3,0.3-0.6,0.5-1.2,0.5c-1,0-1.5-0.6-1.5-1.9v-1.8h-3v1.6
	C336.7,325.4,337.1,326.6,337.9,327.4 M334.8,325.7h-3v2.7h3V325.7z M322.2,327.4c0.8,0.8,1.9,1.2,3.4,1.2s2.6-0.4,3.3-1.2
	c0.8-0.8,1.1-2,1.1-3.5v-1.5c0-2.1-0.7-3.4-2.1-4c1.4-0.6,2.1-1.9,2.1-3.9V314c0-1.5-0.4-2.7-1.1-3.5c-0.8-0.8-1.9-1.2-3.3-1.2
	s-2.6,0.4-3.4,1.2s-1.2,2-1.2,3.5v1h3v-1.2c0-1.2,0.5-1.9,1.5-1.9c0.5,0,0.9,0.2,1.2,0.5c0.3,0.3,0.4,0.9,0.4,1.7v1.1
	c0,0.7-0.2,1.2-0.5,1.5s-0.7,0.5-1.3,0.5h-1.2v2.7h1c0.7,0,1.2,0.2,1.5,0.6s0.5,1,0.5,1.9v1.5c0,0.8-0.1,1.4-0.4,1.7
	c-0.3,0.3-0.6,0.5-1.2,0.5c-1,0-1.5-0.6-1.5-1.9v-1.8h-3v1.6C321,325.4,321.4,326.6,322.2,327.4 M314.5,314v14.5h3v-19h-2
	c-0.1,0.3-0.2,0.6-0.3,0.7c-0.1,0.2-0.2,0.4-0.4,0.6c-0.2,0.2-0.4,0.4-0.6,0.5s-0.5,0.2-0.8,0.3c-0.3,0.1-0.7,0.1-1.2,0.1v2.1h2.3
	V314z"/>
<path class="st1" d="M395.7,280.3l1.4,9.6h-2.9L395.7,280.3z M393.3,295.9l0.5-3.4h3.7l0.5,3.4h3l-3-19h-4.6l-3,19H393.3z
	 M383.7,279.6v16.3h3v-16.3h3.1v-2.7h-9.2v2.7H383.7z M374.9,280.3l1.4,9.6h-2.9L374.9,280.3z M372.6,295.9l0.5-3.4h3.7l0.5,3.4h3
	l-3-19h-4.6l-3,19H372.6z M361.8,295.9v-8.1h3.4v8.1h3v-19h-3v8.2h-3.4v-8.2h-3v19H361.8z M346.7,295.9v-13.4l2.2,13.4h2.8l2.1-13.6
	v13.6h3v-19h-4.3l-2,13.5l-2.2-13.5h-4.1v19H346.7z M336.1,281.3c0-1.2,0.5-1.9,1.6-1.9c1,0,1.5,0.6,1.5,1.9v10.3
	c0,1.3-0.5,1.9-1.5,1.9s-1.6-0.6-1.6-1.9V281.3z M334.3,294.9c0.8,0.8,1.9,1.2,3.4,1.2s2.6-0.4,3.4-1.2c0.8-0.8,1.2-2,1.2-3.5v-9.9
	c0-1.5-0.4-2.7-1.2-3.5c-0.8-0.8-1.9-1.2-3.4-1.2s-2.6,0.4-3.4,1.2c-0.8,0.8-1.2,2-1.2,3.5v9.9C333.2,292.9,333.5,294,334.3,294.9
	 M325.2,295.9v-5.8l0.9-1.7l2.9,7.6h3.1l-4.1-10.5l4.1-8.5h-3l-3.9,8.3V277h-3v19h3V295.9z M309.9,281.6c0-0.7,0.1-1.2,0.4-1.5
	c0.2-0.3,0.6-0.5,1.2-0.5h1.4v5.8h-1.2c-0.6,0-1-0.2-1.3-0.5s-0.5-0.8-0.5-1.6V281.6z M309.6,295.9c0.1-0.2,0.1-0.4,0.1-0.5
	s0.1-0.3,0.1-0.6c0-0.3,0-0.7,0-1.2v-3c0-0.9,0.2-1.5,0.5-1.9s0.8-0.6,1.5-0.6h1v7.7h3v-19h-4.5c-1.5,0-2.6,0.4-3.4,1.1
	c-0.7,0.7-1.1,1.8-1.1,3.3v1.5c0,2,0.6,3.2,1.9,3.9c-0.7,0.3-1.2,0.8-1.5,1.5s-0.4,1.5-0.4,2.6v2.9c0,1-0.1,1.8-0.3,2.3L309.6,295.9
	L309.6,295.9z M300.6,280.3l1.4,9.6h-2.9L300.6,280.3z M298.2,295.9l0.5-3.4h3.7l0.5,3.4h3l-3-19h-4.6l-3,19H298.2z M283.5,295.9
	c1.5,0,2.6-0.4,3.3-1.1c0.7-0.7,1-2,1.1-3.7l0.3-11.5h2.6v16.3h3v-19h-8.5l-0.3,14.4c0,0.4-0.1,0.8-0.1,1c-0.1,0.3-0.2,0.5-0.3,0.6
	c-0.2,0.1-0.3,0.2-0.5,0.3c-0.2,0-0.5,0.1-0.9,0.1v2.7L283.5,295.9L283.5,295.9z M275.3,295.9l2.5-8.7l1.2-4.7v13.4h3v-19h-3.6
	l-2.4,7.8l-1.1,4.2v-12h-2.7v19L275.3,295.9L275.3,295.9z M258,295.9l2.7-8.5l0.7,1.5v7h3v-7l0.7-1.4l2.7,8.4h3l-3.7-11.3l3.7-7.8
	h-2.9l-3.5,7.7v-7.7h-3v7.7l-3.5-7.7H255l3.7,7.8l-3.7,11.2L258,295.9L258,295.9z"/>
<path class="st1" d="M210,619.8c1.5,0,2.6-0.3,3.2-0.9c0.6-0.6,1-1.7,1-3.2V605c0-1.5-0.3-2.6-1-3.2c-0.6-0.6-1.7-0.9-3.2-0.9h-1
	v2.6h0.7c0.5,0,0.9,0.1,1.1,0.4c0.2,0.2,0.3,0.7,0.3,1.3v10.5c0,0.6-0.1,1.1-0.3,1.3s-0.6,0.4-1.1,0.4H209v2.6h1V619.8z
	 M201.7,612.1c0-1.2,0.5-1.9,1.5-1.9s1.5,0.6,1.5,1.9v3.4c0,1.2-0.5,1.9-1.5,1.9s-1.5-0.6-1.5-1.9V612.1z M199.9,618.8
	c0.8,0.8,1.9,1.2,3.4,1.2s2.6-0.4,3.4-1.2c0.8-0.8,1.2-2,1.2-3.5v-3.5c0-1.4-0.3-2.5-0.8-3.2c-0.6-0.7-1.4-1.1-2.5-1.1
	c-1.3,0-2.2,0.6-2.8,1.7v-3.5c0-0.9,0.1-1.5,0.4-1.8c0.3-0.3,0.7-0.5,1.3-0.5c1,0,1.6,0.6,1.6,1.9v0.7h2.8v-0.5
	c0-1.5-0.4-2.7-1.1-3.5c-0.8-0.8-1.9-1.2-3.3-1.2c-3,0-4.6,1.6-4.6,4.9v9.7C198.8,616.8,199.1,618,199.9,618.8 M196.9,617.1h-3v2.7
	h3V617.1z M187.3,605.3v14.5h3v-19h-2c-0.1,0.3-0.2,0.6-0.3,0.7c-0.1,0.2-0.2,0.4-0.4,0.6c-0.2,0.2-0.4,0.4-0.6,0.5
	c-0.2,0.1-0.5,0.2-0.8,0.3s-0.7,0.1-1.2,0.1v2.1h2.3V605.3z M177.5,618.9c0.6,0.6,1.7,0.9,3.2,0.9h0.9v-2.6h-0.7
	c-0.5,0-0.9-0.1-1.1-0.4c-0.2-0.2-0.3-0.7-0.3-1.3V605c0-0.6,0.1-1.1,0.3-1.3s0.6-0.4,1.1-0.4h0.7v-2.6h-0.9c-1.5,0-2.6,0.3-3.2,0.9
	c-0.6,0.6-1,1.7-1,3.2v10.7C176.5,617.2,176.9,618.3,177.5,618.9"/>
<path class="st1" d="M207.6,587.3v-2.7H202c0-0.1,0-0.2,0-0.4c0-0.4,0.1-0.8,0.3-1.3c0.2-0.4,0.5-0.9,0.9-1.3
	c0.3-0.4,0.7-0.9,1.2-1.3c0.4-0.5,0.8-0.9,1.3-1.5c0.4-0.5,0.8-1.1,1.1-1.7c0.3-0.6,0.6-1.2,0.9-2c0.2-0.7,0.3-1.5,0.3-2.3
	c0-1.5-0.4-2.7-1.1-3.5c-0.8-0.8-1.9-1.2-3.3-1.2c-1.4,0-2.6,0.4-3.3,1.2c-0.8,0.8-1.1,2-1.1,3.5v1.9h2.8v-2c0-1.2,0.5-1.9,1.5-1.9
	c0.5,0,0.9,0.2,1.1,0.5c0.3,0.3,0.4,0.9,0.4,1.7c0,0.7-0.1,1.4-0.3,2.1c-0.2,0.6-0.5,1.2-0.8,1.7s-0.7,1-1.2,1.4
	c-0.4,0.5-0.8,0.9-1.3,1.4c-0.4,0.5-0.8,1-1.2,1.5s-0.6,1.1-0.9,1.7c-0.2,0.7-0.3,1.4-0.3,2.1v2.3L207.6,587.3L207.6,587.3z
	 M196.9,584.5h-3v2.7h3V584.5z M184.2,586.2c0.8,0.8,1.9,1.2,3.4,1.2s2.6-0.4,3.3-1.2c0.8-0.8,1.1-2,1.1-3.5v-1.5
	c0-2.1-0.7-3.4-2.1-4c1.4-0.6,2.1-1.9,2.1-3.9v-0.5c0-1.5-0.4-2.7-1.1-3.5c-0.8-0.8-1.9-1.2-3.3-1.2c-1.5,0-2.6,0.4-3.4,1.2
	c-0.8,0.8-1.2,2-1.2,3.5v1h3v-1.2c0-1.2,0.5-1.9,1.5-1.9c0.5,0,0.9,0.2,1.2,0.5s0.4,0.9,0.4,1.7v1.1c0,0.7-0.2,1.2-0.5,1.5
	s-0.7,0.5-1.3,0.5h-1.2v2.7h1c0.7,0,1.2,0.2,1.5,0.6c0.3,0.4,0.5,1,0.5,1.9v1.5c0,0.8-0.1,1.4-0.4,1.7c-0.3,0.3-0.6,0.5-1.2,0.5
	c-1,0-1.5-0.6-1.5-1.9v-1.8h-3v1.6C183,584.2,183.4,585.4,184.2,586.2"/>
<path class="st1" d="M1053.9,388.1c1.5,0,2.6-0.3,3.2-0.9s1-1.7,1-3.2v-10.7c0-1.5-0.3-2.6-1-3.2c-0.6-0.6-1.7-0.9-3.2-0.9h-0.9v2.6
	h0.7c0.5,0,0.9,0.1,1.1,0.4c0.2,0.2,0.3,0.7,0.3,1.3V384c0,0.6-0.1,1.1-0.3,1.3c-0.2,0.2-0.6,0.4-1.1,0.4h-0.7v2.6h0.9V388.1z
	 M1051.5,388.1v-2.7h-5.6c0-0.1,0-0.2,0-0.4c0-0.4,0.1-0.8,0.3-1.3c0.2-0.4,0.5-0.9,0.9-1.3c0.3-0.4,0.7-0.9,1.2-1.3
	c0.4-0.5,0.8-0.9,1.3-1.5c0.4-0.5,0.8-1.1,1.1-1.7c0.3-0.6,0.6-1.2,0.9-2c0.2-0.7,0.3-1.5,0.3-2.3c0-1.5-0.4-2.7-1.1-3.5
	c-0.8-0.8-1.9-1.2-3.3-1.2s-2.6,0.4-3.3,1.2c-0.8,0.8-1.1,2-1.1,3.5v1.9h2.8v-2c0-1.2,0.5-1.9,1.5-1.9c0.5,0,0.9,0.2,1.1,0.5
	c0.3,0.3,0.4,0.9,0.4,1.7c0,0.7-0.1,1.4-0.3,2.1c-0.2,0.6-0.5,1.2-0.8,1.7s-0.7,1-1.2,1.4c-0.4,0.5-0.8,0.9-1.3,1.4
	c-0.4,0.5-0.8,1-1.2,1.5c-0.4,0.5-0.6,1.1-0.9,1.8c-0.2,0.7-0.3,1.4-0.3,2.1v2.3L1051.5,388.1L1051.5,388.1z M1040.8,385.3h-3v2.7h3
	V385.3z M1035.7,388.1v-2.7h-5.6c0-0.1,0-0.2,0-0.4c0-0.4,0.1-0.8,0.3-1.3c0.2-0.4,0.5-0.9,0.9-1.3c0.3-0.4,0.7-0.9,1.2-1.3
	c0.4-0.5,0.8-0.9,1.3-1.5c0.4-0.5,0.8-1.1,1.1-1.7c0.3-0.6,0.6-1.2,0.9-2c0.2-0.7,0.3-1.5,0.3-2.3c0-1.5-0.4-2.7-1.1-3.5
	c-0.8-0.8-1.9-1.2-3.3-1.2s-2.6,0.4-3.3,1.2c-0.8,0.8-1.2,2-1.2,3.5v1.9h2.9v-2c0-1.2,0.5-1.9,1.5-1.9c0.5,0,0.9,0.2,1.1,0.5
	c0.3,0.3,0.4,0.9,0.4,1.7c0,0.7-0.1,1.4-0.3,2.1c-0.2,0.6-0.5,1.2-0.8,1.7s-0.7,1-1.2,1.4c-0.4,0.5-0.8,0.9-1.3,1.4
	c-0.4,0.5-0.8,1-1.2,1.5c-0.4,0.5-0.6,1.1-0.9,1.8c-0.2,0.7-0.3,1.4-0.3,2.1v2.3L1035.7,388.1L1035.7,388.1z M1021.4,387.1
	c0.6,0.6,1.7,0.9,3.2,0.9h0.9v-2.6h-0.7c-0.5,0-0.9-0.1-1.1-0.4c-0.2-0.2-0.3-0.7-0.3-1.3v-10.5c0-0.6,0.1-1.1,0.3-1.3
	c0.2-0.2,0.6-0.4,1.1-0.4h0.7v-2.6h-0.9c-1.5,0-2.6,0.3-3.2,0.9c-0.6,0.6-1,1.7-1,3.2v10.7C1020.5,385.4,1020.8,386.5,1021.4,387.1"
	/>
<path class="st1" d="M1047.9,342.2v7.1h-3L1047.9,342.2z M1047.9,352v3.4h3V352h1.4v-2.7h-1.4v-12.8h-3.3l-5.4,12.8v2.7H1047.9z
	 M1040.8,352.7h-3v2.7h3V352.7z M1032.2,342.2v7.1h-3L1032.2,342.2z M1032.2,352v3.4h3V352h1.4v-2.7h-1.4v-12.8h-3.3l-5.4,12.8v2.7
	H1032.2z"/>
<path class="st1" d="M844.1,395.8c0.8,0.8,1.9,1.2,3.4,1.2s2.6-0.4,3.3-1.2c0.8-0.8,1.1-2,1.1-3.5v-1.5c0-2.1-0.7-3.4-2.1-4
	c1.4-0.6,2.1-1.9,2.1-3.9v-0.5c0-1.5-0.4-2.7-1.1-3.5c-0.8-0.8-1.9-1.2-3.3-1.2s-2.6,0.4-3.4,1.2c-0.8,0.8-1.2,2-1.2,3.5v1h3v-1.2
	c0-1.2,0.5-1.9,1.5-1.9c0.5,0,0.9,0.2,1.2,0.5s0.4,0.9,0.4,1.7v1.1c0,0.7-0.2,1.2-0.5,1.5s-0.7,0.5-1.3,0.5H846v2.7h1
	c0.7,0,1.2,0.2,1.5,0.6s0.5,1,0.5,1.9v1.5c0,0.8-0.1,1.4-0.4,1.7c-0.3,0.3-0.6,0.5-1.2,0.5c-1,0-1.5-0.6-1.5-1.9v-1.8h-3v1.6
	C842.9,393.8,843.3,395,844.1,395.8 M841,394.1h-3v2.7h3V394.1z M828.3,395.8c0.8,0.8,1.9,1.2,3.4,1.2s2.6-0.4,3.3-1.2
	c0.8-0.8,1.1-2,1.1-3.5v-1.5c0-2.1-0.7-3.4-2.1-4c1.4-0.6,2.1-1.9,2.1-3.9v-0.5c0-1.5-0.4-2.7-1.1-3.5c-0.8-0.8-1.9-1.2-3.3-1.2
	c-1.5,0-2.6,0.4-3.4,1.2c-0.8,0.8-1.2,2-1.2,3.5v1h3v-1.2c0-1.2,0.5-1.9,1.5-1.9c0.5,0,0.9,0.2,1.2,0.5s0.4,0.9,0.4,1.7v1.1
	c0,0.7-0.2,1.2-0.5,1.5s-0.7,0.5-1.3,0.5h-1.2v2.7h1c0.7,0,1.2,0.2,1.5,0.6s0.5,1,0.5,1.9v1.5c0,0.8-0.1,1.4-0.4,1.7
	c-0.3,0.3-0.6,0.5-1.2,0.5c-1,0-1.5-0.6-1.5-1.9v-1.8h-3v1.6C827.1,393.8,827.5,395,828.3,395.8 M820.7,382.3v14.5h3v-19h-2
	c-0.1,0.3-0.2,0.6-0.3,0.7c-0.1,0.2-0.2,0.4-0.4,0.6s-0.4,0.4-0.6,0.5c-0.2,0.1-0.5,0.2-0.8,0.3c-0.3,0.1-0.7,0.1-1.2,0.1v2.1h2.3
	V382.3z"/>
<path class="st1" d="M901.8,348.7l1.4,9.6h-2.9L901.8,348.7z M899.4,364.3l0.5-3.4h3.7l0.5,3.4h3l-3-19h-4.6l-3,19H899.4z
	 M889.8,348v16.3h3V348h3.1v-2.7h-9.2v2.7H889.8z M881.1,348.7l1.4,9.6h-2.9L881.1,348.7z M878.7,364.3l0.5-3.4h3.7l0.5,3.4h3l-3-19
	h-4.6l-3,19H878.7z M867.9,364.3v-8.1h3.4v8.1h3v-19h-3v8.2h-3.4v-8.2h-3v19H867.9z M852.9,364.3v-13.4l2.2,13.4h2.8l2.1-13.6v13.6
	h3v-19h-4.3l-2,13.5l-2.2-13.5h-4.1v19H852.9z M842.3,349.6c0-1.2,0.5-1.9,1.6-1.9c1,0,1.5,0.6,1.5,1.9v10.3c0,1.3-0.5,1.9-1.5,1.9
	s-1.6-0.6-1.6-1.9V349.6z M840.5,363.2c0.8,0.8,1.9,1.2,3.4,1.2s2.6-0.4,3.4-1.2c0.8-0.8,1.2-2,1.2-3.5v-9.9c0-1.5-0.4-2.7-1.2-3.5
	s-1.9-1.2-3.4-1.2s-2.6,0.4-3.4,1.2c-0.8,0.8-1.2,2-1.2,3.5v9.9C839.3,361.2,839.7,362.4,840.5,363.2 M831.3,364.3v-5.8l0.9-1.7
	l2.9,7.6h3.1l-4.1-10.5l4.1-8.5h-3l-3.9,8.3v-8.3h-3v19h3V364.3z M816,349.9c0-0.7,0.1-1.2,0.4-1.5c0.2-0.3,0.6-0.5,1.2-0.5h1.4v5.8
	h-1.2c-0.6,0-1-0.2-1.3-0.5s-0.5-0.8-0.5-1.6L816,349.9L816,349.9z M815.7,364.3c0.1-0.2,0.1-0.4,0.1-0.5s0.1-0.3,0.1-0.6
	c0-0.3,0-0.7,0-1.2v-3c0-0.9,0.2-1.5,0.5-1.9s0.8-0.6,1.5-0.6h1v7.7h3v-19h-4.5c-1.5,0-2.6,0.4-3.4,1.1c-0.7,0.7-1.1,1.8-1.1,3.3
	v1.5c0,2,0.6,3.2,1.9,3.9c-0.7,0.3-1.2,0.8-1.5,1.5s-0.4,1.5-0.4,2.6v2.9c0,1-0.1,1.8-0.3,2.3L815.7,364.3L815.7,364.3z
	 M806.7,348.7l1.4,9.6h-2.9L806.7,348.7z M804.4,364.3l0.5-3.4h3.7l0.5,3.4h3l-3-19h-4.6l-3,19H804.4z M789.6,364.3
	c1.5,0,2.6-0.4,3.3-1.1s1-2,1.1-3.7l0.3-11.5h2.6v16.3h3v-19h-8.5l-0.3,14.4c0,0.4-0.1,0.8-0.1,1c-0.1,0.3-0.2,0.5-0.3,0.6
	c-0.2,0.1-0.3,0.2-0.5,0.3c-0.2,0-0.5,0.1-0.9,0.1v2.7L789.6,364.3L789.6,364.3z M781.4,364.3l2.5-8.7l1.2-4.7v13.4h3v-19h-3.6
	l-2.4,7.8l-1.1,4.2v-12h-2.7v19L781.4,364.3L781.4,364.3z M764.1,364.3l2.7-8.5l0.7,1.5v7h3v-7l0.7-1.4l2.7,8.4h3l-3.7-11.3l3.7-7.8
	H774l-3.5,7.7v-7.7h-3v7.7l-3.5-7.7h-2.9l3.7,7.8l-3.7,11.2L764.1,364.3L764.1,364.3z"/>
<path class="st1" d="M857,327.1c1.8,1.9,4.4,2.8,7.7,2.8s5.9-0.9,7.6-2.8c1.7-1.9,2.6-4.6,2.6-8.1v-3.4c0-4.7-1.6-7.7-4.8-9.1
	c3.2-1.3,4.8-4.3,4.8-8.9v-1.1c0-3.5-0.9-6.2-2.6-8.1c-1.7-1.9-4.3-2.8-7.6-2.8s-5.9,0.9-7.7,2.8s-2.8,4.6-2.8,8.1v2.4h6.8V296
	c0-2.8,1.2-4.3,3.5-4.3c1.2,0,2,0.4,2.6,1.1s0.9,2,0.9,3.9v2.4c0,1.7-0.3,2.8-1,3.5s-1.7,1-3.1,1h-2.7v6.2h2.3
	c1.6,0,2.7,0.4,3.4,1.3c0.7,0.8,1,2.3,1,4.2v3.4c0,1.8-0.3,3.1-0.9,3.8c-0.6,0.7-1.5,1.1-2.6,1.1c-2.3,0-3.5-1.4-3.5-4.3v-4h-6.8
	v3.6C854.2,322.5,855.1,325.2,857,327.1 M849.9,323.2h-6.8v6.3h6.8V323.2z M828,296.3v33.1h6.8V286h-4.6c-0.3,0.7-0.5,1.3-0.7,1.7
	c-0.2,0.4-0.5,0.9-0.9,1.5c-0.4,0.5-0.8,0.9-1.3,1.2c-0.5,0.3-1.1,0.5-1.9,0.8c-0.8,0.2-1.7,0.3-2.7,0.3v4.8H828z M799.9,296.7
	c0-1.8,0.3-3.1,1-3.8c0.7-0.7,1.6-1.1,2.8-1.1s2.2,0.4,2.8,1.1c0.7,0.7,1,2,1,3.9v2.4c0,3-1.3,4.6-3.8,4.6c-2.6,0-3.9-1.5-3.9-4.6
	v-2.5H799.9z M799.9,314.8c0-3.3,1.3-4.9,3.9-4.9c2.6,0,3.8,1.6,3.8,4.9v4c0,1.8-0.4,3.1-1,3.8c-0.7,0.7-1.6,1.1-2.8,1.1
	s-2.2-0.4-2.8-1.1c-0.7-0.7-1-2-1-3.8v-4H799.9z M795.8,327.1c1.8,1.9,4.5,2.8,7.9,2.8s6.1-0.9,7.9-2.8c1.8-1.9,2.7-4.6,2.7-8.1
	v-3.4c0-4.4-1.4-7.5-4.2-9.1c2.8-1.6,4.2-4.5,4.2-8.7v-1.4c0-3.5-0.9-6.2-2.7-8.1s-4.5-2.8-7.9-2.8s-6.1,1-7.9,2.8
	c-1.8,1.9-2.8,4.6-2.8,8.1v1.4c0,4.3,1.4,7.2,4.2,8.7c-2.8,1.6-4.2,4.6-4.2,9.1v3.4C793.1,322.5,794,325.2,795.8,327.1"/>
<ellipse transform="matrix(0.9239 -0.3827 0.3827 0.9239 -26.5426 337.1158)" class="st7" cx="834.1" cy="235.3" rx="38" ry="38"/>
<path class="st1" d="M838.3,252.3c1.3,1.4,3.2,2.1,5.8,2.1c2.5,0,4.5-0.7,5.9-2.1c1.4-1.4,2.1-3.5,2.1-6.1v-4.4h-5.2v4.7
	c0,2.1-0.9,3.2-2.7,3.2s-2.7-1.1-2.7-3.2v-17.8c0-2.2,0.9-3.2,2.7-3.2s2.7,1.1,2.7,3.2v3.5h5.2V229c0-2.6-0.7-4.7-2.1-6.1
	c-1.4-1.4-3.3-2.1-5.9-2.1c-2.5,0-4.5,0.7-5.8,2.1c-1.3,1.4-2,3.5-2,6.1v17.1C836.3,248.9,837,250.9,838.3,252.3 M820,252.3
	c1.4,1.4,3.3,2.1,5.9,2.1c2.5,0,4.4-0.7,5.7-2.1c1.3-1.4,2-3.5,2-6.1v-2.6c0-3.6-1.2-5.9-3.6-6.9c2.4-1,3.6-3.3,3.6-6.8v-0.8
	c0-2.6-0.7-4.7-2-6.1c-1.3-1.4-3.2-2.1-5.7-2.1s-4.5,0.7-5.9,2.1c-1.4,1.4-2.1,3.5-2.1,6.1v1.8h5.2v-2.1c0-2.2,0.9-3.2,2.6-3.2
	c0.9,0,1.5,0.3,2,0.8c0.4,0.6,0.7,1.5,0.7,2.9v1.8c0,1.3-0.3,2.1-0.8,2.7c-0.5,0.5-1.3,0.8-2.3,0.8h-2v4.7h1.7c1.2,0,2.1,0.3,2.6,1
	c0.5,0.6,0.8,1.7,0.8,3.2v2.6c0,1.4-0.2,2.3-0.7,2.9c-0.4,0.6-1.1,0.8-2,0.8c-1.8,0-2.6-1.1-2.6-3.3v-3h-5.2v2.7
	C817.9,248.9,818.6,250.9,820,252.3"/>
<path class="st1" d="M528.1,287.6c0.8,0.8,1.9,1.2,3.4,1.2s2.6-0.4,3.3-1.2c0.8-0.8,1.1-2,1.1-3.5v-1.5c0-2.1-0.7-3.4-2.1-4
	c1.4-0.6,2.1-1.9,2.1-3.9v-0.5c0-1.5-0.4-2.7-1.1-3.5c-0.8-0.8-1.9-1.2-3.3-1.2c-1.5,0-2.6,0.4-3.4,1.2c-0.8,0.8-1.2,2-1.2,3.5v1h3
	V274c0-1.2,0.5-1.9,1.5-1.9c0.5,0,0.9,0.2,1.2,0.5s0.4,0.9,0.4,1.7v1.1c0,0.7-0.2,1.2-0.4,1.5c-0.3,0.3-0.7,0.5-1.3,0.5H530v2.7h1
	c0.7,0,1.2,0.2,1.5,0.6s0.5,1,0.5,1.9v1.5c0,0.8-0.1,1.4-0.4,1.7c-0.3,0.3-0.6,0.5-1.2,0.5c-1,0-1.5-0.6-1.5-1.9v-1.8h-3v1.6
	C526.9,285.6,527.3,286.8,528.1,287.6 M525,285.9h-3v2.7h3V285.9z M512.3,287.6c0.8,0.8,1.9,1.2,3.4,1.2s2.6-0.4,3.3-1.2
	c0.8-0.8,1.1-2,1.1-3.5v-1.5c0-2.1-0.7-3.4-2.1-4c1.4-0.6,2.1-1.9,2.1-3.9v-0.5c0-1.5-0.4-2.7-1.1-3.5c-0.8-0.8-1.9-1.2-3.3-1.2
	c-1.5,0-2.6,0.4-3.4,1.2c-0.8,0.8-1.2,2-1.2,3.5v1h3V274c0-1.2,0.5-1.9,1.5-1.9c0.5,0,0.9,0.2,1.2,0.5s0.4,0.9,0.4,1.7v1.1
	c0,0.7-0.2,1.2-0.5,1.5s-0.7,0.5-1.3,0.5h-1.2v2.7h1c0.7,0,1.2,0.2,1.5,0.6s0.5,1,0.5,1.9v1.5c0,0.8-0.1,1.4-0.4,1.7
	c-0.3,0.3-0.6,0.5-1.2,0.5c-1,0-1.5-0.6-1.5-1.9v-1.8h-3v1.6C511.1,285.6,511.5,286.8,512.3,287.6"/>
<path class="st1" d="M645,308.1c0.7,0.8,1.8,1.1,3.1,1.1s2.4-0.4,3-1.1c0.7-0.8,1-1.8,1-3.2v-1.4c0-1.9-0.6-3.1-1.9-3.7
	c1.3-0.5,1.9-1.7,1.9-3.6v-0.5c0-1.4-0.3-2.5-1-3.2c-0.7-0.8-1.7-1.1-3-1.1s-2.4,0.4-3.1,1.1c-0.7,0.8-1.1,1.8-1.1,3.2v1h2.7v-1.1
	c0-1.1,0.5-1.7,1.4-1.7c0.5,0,0.8,0.1,1.1,0.4c0.2,0.3,0.4,0.8,0.4,1.6v1c0,0.7-0.1,1.1-0.4,1.4c-0.3,0.3-0.7,0.4-1.2,0.4h-1.1v2.5
	h0.9c0.6,0,1.1,0.2,1.4,0.5c0.3,0.3,0.4,0.9,0.4,1.7v1.4c0,0.7-0.1,1.2-0.4,1.5c-0.2,0.3-0.6,0.4-1.1,0.4c-0.9,0-1.4-0.6-1.4-1.7
	v-1.6h-2.7v1.4C643.9,306.2,644.3,307.3,645,308.1 M642.2,306.5h-2.7v2.5h2.7V306.5z M633.3,295.7V309h2.7v-17.5h-1.9
	c-0.1,0.3-0.2,0.5-0.3,0.7s-0.2,0.4-0.4,0.6s-0.3,0.4-0.5,0.5s-0.4,0.2-0.8,0.3c-0.3,0.1-0.7,0.1-1.1,0.1v1.9h2.3V295.7z"/>
<path class="st1" d="M806.1,702.8c0-0.8,0.1-1.4,0.4-1.7c0.3-0.3,0.7-0.5,1.2-0.5s0.9,0.2,1.2,0.5s0.4,0.9,0.4,1.7v1.1
	c0,1.3-0.6,2-1.7,2c-1.1,0-1.7-0.7-1.7-2v-1.1H806.1z M806.1,710.7c0-1.4,0.6-2.1,1.7-2.1c1.1,0,1.7,0.7,1.7,2.1v1.8
	c0,0.8-0.2,1.4-0.5,1.7s-0.7,0.5-1.2,0.5s-0.9-0.2-1.2-0.5s-0.4-0.9-0.4-1.7L806.1,710.7L806.1,710.7z M804.3,716.1
	c0.8,0.8,2,1.2,3.5,1.2s2.7-0.4,3.5-1.2s1.2-2,1.2-3.5v-1.5c0-1.9-0.6-3.3-1.8-4c1.2-0.7,1.8-2,1.8-3.8v-0.6c0-1.5-0.4-2.7-1.2-3.5
	s-2-1.2-3.5-1.2s-2.7,0.4-3.5,1.2s-1.2,2-1.2,3.5v0.6c0,1.9,0.6,3.1,1.8,3.8c-1.2,0.7-1.8,2-1.8,4v1.5
	C803.1,714.1,803.5,715.3,804.3,716.1 M801.4,714.4h-3v2.7h3V714.4z M791.8,702.6v14.5h3v-19h-2c-0.1,0.3-0.2,0.6-0.3,0.7
	c-0.1,0.2-0.2,0.4-0.4,0.6c-0.2,0.2-0.4,0.4-0.6,0.5c-0.2,0.1-0.5,0.2-0.8,0.3s-0.7,0.1-1.2,0.1v2.1h2.3V702.6z"/>
</svg>
