<svg xmlns="http://www.w3.org/2000/svg" xmlns:xlink="http://www.w3.org/1999/xlink" xml:space="preserve" id="Слой_1" x="0" y="0" style="enable-background:new 0 0 250 260" version="1.1" viewBox="0 0 250 260"><style>.st1{fill:#39373a}.st10,.st17,.st6{fill:none;stroke:#39373a}.st10,.st17{stroke-width:.6}.st17{clip-path:url(#SVGID_26_)}.st18,.st19{clip-path:url(#SVGID_28_);fill:#39373a}.st19{fill:none;stroke:#39373a;stroke-width:.25}.st20{fill:#39373a}.st20,.st21{clip-path:url(#SVGID_30_)}.st21,.st22{fill:none;stroke:#39373a;stroke-width:.25}.st23,.st24{clip-path:url(#SVGID_32_);fill:#39373a}.st24{fill:none;stroke:#39373a;stroke-width:.25}</style><switch><g><path d="M23.36 27.75H223.2v152.04H23.36z" style="fill:#b7e0e6"/><path d="M21.23 22.37h115.08v4.77H21.23z" class="st1"/><defs><path id="SVGID_1_" d="M20.02 21.87h206.56v218.27H20.02z"/></defs><clipPath id="SVGID_2_"><use xlink:href="#SVGID_1_" style="overflow:visible"/></clipPath><path d="M21.23 22.37h115.08v4.77H21.23z" style="clip-path:url(#SVGID_2_);fill:none;stroke:#39373a"/><path d="M164.14 22.37h61.94v4.77h-61.94z" class="st1"/><defs><path id="SVGID_3_" d="M20.02 21.87h206.56v218.27H20.02z"/></defs><clipPath id="SVGID_4_"><use xlink:href="#SVGID_3_" style="overflow:visible"/></clipPath><path d="M164.14 22.37h61.94v4.77h-61.94z" style="clip-path:url(#SVGID_4_);fill:none;stroke:#39373a"/><path d="M20.52 22.37h4.77v202.95h-4.77z" class="st1"/><defs><path id="SVGID_5_" d="M20.02 21.87h206.56v218.27H20.02z"/></defs><clipPath id="SVGID_6_"><use xlink:href="#SVGID_5_" style="overflow:visible"/></clipPath><path d="M20.52 22.37h4.77v202.95h-4.77z" style="clip-path:url(#SVGID_6_);fill:none;stroke:#39373a"/><path d="M120.63 22.65h4.77v20.97h-4.77z" class="st1"/><defs><path id="SVGID_7_" d="M20.02 21.87h206.56v218.27H20.02z"/></defs><clipPath id="SVGID_8_"><use xlink:href="#SVGID_7_" style="overflow:visible"/></clipPath><path d="M120.63 22.65h4.77v20.97h-4.77z" style="clip-path:url(#SVGID_8_);fill:none;stroke:#39373a"/><path d="M120.63 69.58h4.77v116.08h-4.77z" class="st1"/><path d="M120.63 69.58h4.77v116.08h-4.77z" class="st6"/><path d="M120.63 212h4.77v27.63h-4.77z" class="st1"/><defs><path id="SVGID_9_" d="M20.02 21.87h206.56v218.27H20.02z"/></defs><clipPath id="SVGID_10_"><use xlink:href="#SVGID_9_" style="overflow:visible"/></clipPath><path d="M120.63 212h4.77v27.63h-4.77z" style="clip-path:url(#SVGID_10_);fill:none;stroke:#39373a"/><path d="M221.3 22.65h4.77v216.98h-4.77z" class="st1"/><defs><path id="SVGID_11_" d="M20.02 21.87h206.56v218.27H20.02z"/></defs><clipPath id="SVGID_12_"><use xlink:href="#SVGID_11_" style="overflow:visible"/></clipPath><path d="M221.3 22.65h4.77v216.98h-4.77z" style="clip-path:url(#SVGID_12_);fill:none;stroke:#39373a"/><path d="M123.02 103.44h14.45v2.54h-14.45z" class="st1"/><path d="M123.02 103.44h14.45v2.54h-14.45z" class="st6"/><path d="M159.98 103.44h10.85v2.54h-10.85z" class="st1"/><path d="M159.98 103.44h10.85v2.54h-10.85z" class="st6"/><path d="M169.45 93.36h2.54v19.34h-2.54z" class="st1"/><path d="M169.45 93.36h2.54v19.34h-2.54z" class="st6"/><path d="M169.45 52.24h2.54v24.34h-2.54z" class="st1"/><path d="M169.45 52.24h2.54v24.34h-2.54z" class="st6"/><path d="M170.98 110.16h51.72v2.54h-51.72z" class="st1"/><path d="M170.98 110.16h51.72v2.54h-51.72z" class="st6"/><path d="M169.45 51.85h51.72v2.54h-51.72z" class="st1"/><path d="M169.45 51.85h51.72v2.54h-51.72z" class="st6"/><path d="m124.55 192.03 28.98.01v-2.34h-2.95v-9.4h-26.03z" class="st1"/><path d="m124.55 192.03 28.98.01v-2.34h-2.95v-9.4h-26.03z" class="st6"/><path d="M20.52 180.3v11.73l24.38.01v-2.34h-2.95v-9.4z" class="st1"/><defs><path id="SVGID_13_" d="M20.02 21.87h206.56v218.27H20.02z"/></defs><clipPath id="SVGID_14_"><use xlink:href="#SVGID_13_" style="overflow:visible"/></clipPath><path d="m20.52 192.03 24.38.01v-2.34h-2.95v-9.4H20.52z" style="clip-path:url(#SVGID_14_);fill:none;stroke:#39373a"/><path d="m223.19 192.03-28.98.01v-2.34h2.95v-9.4h26.03z" class="st1"/><path d="m223.19 192.03-28.98.01v-2.34h2.95v-9.4h26.03z" class="st6"/><path d="m129.22 192.03-28.98.01v-2.34h2.95v-9.4h26.03z" class="st1"/><path d="m129.22 192.03-28.98.01v-2.34h2.95v-9.4h26.03z" class="st6"/><path d="m84.33 178.956.476-.8 19.036 11.326-.476.799zM39.17 189.49h44.32v2.74H39.17z" class="st10"/><path d="M37.9 180.1h43.05v9.42H37.9z" class="st10"/><defs><path id="SVGID_15_" d="M20.02 21.87h206.56v218.27H20.02z"/></defs><clipPath id="SVGID_16_"><use xlink:href="#SVGID_15_" style="overflow:visible"/></clipPath><path d="M84.23 179.08s-1.11 1.5-1.64 4.99c-.54 3.49-.37 5.36-.37 5.36" style="clip-path:url(#SVGID_16_);fill:none;stroke:#39373a;stroke-width:.4"/><path d="m179.137 178.954.476-.799 19.035 11.325-.475.8zM133.98 189.49h44.32v2.74h-44.32z" class="st10"/><path d="M132.71 180.1h43.05v9.42h-43.05z" class="st10"/><defs><path id="SVGID_17_" d="M20.02 21.87h206.56v218.27H20.02z"/></defs><clipPath id="SVGID_18_"><use xlink:href="#SVGID_17_" style="overflow:visible"/></clipPath><path d="M179.04 179.08s-1.11 1.5-1.64 4.99c-.54 3.49-.37 5.36-.37 5.36" style="clip-path:url(#SVGID_18_);fill:none;stroke:#39373a;stroke-width:.4"/><path d="m110.33 66.6-1.11-.66 14.15-23.65 1.12.66z" class="st10"/><defs><path id="SVGID_19_" d="M20.02 21.87h206.56v218.27H20.02z"/></defs><clipPath id="SVGID_20_"><use xlink:href="#SVGID_19_" style="overflow:visible"/></clipPath><path d="M110.45 66.75s2.19 1.36 6.96 2.13c4.78.77 7.34.53 7.34.53" style="clip-path:url(#SVGID_20_);fill:none;stroke:#39373a;stroke-width:.4"/><path d="m156.68 117.81-.66 1.12-23.65-14.16.66-1.11z" class="st10"/><defs><path id="SVGID_21_" d="M20.02 21.87h206.56v218.27H20.02z"/></defs><clipPath id="SVGID_22_"><use xlink:href="#SVGID_21_" style="overflow:visible"/></clipPath><path d="M156.83 117.7s1.36-2.19 2.13-6.96c.77-4.78.52-7.8.52-7.8" style="clip-path:url(#SVGID_22_);fill:none;stroke:#39373a;stroke-width:.4"/><path d="m139.33 40.19.67 1.14 26.35-15.77-.67-1.13z" class="st10"/><defs><path id="SVGID_23_" d="M20.02 21.87h206.56v218.27H20.02z"/></defs><clipPath id="SVGID_24_"><use xlink:href="#SVGID_23_" style="overflow:visible"/></clipPath><path d="M139.19 40.07s-1.4-2.23-2.19-7.11c-.79-4.87-.53-7.96-.53-7.96" style="clip-path:url(#SVGID_24_);fill:none;stroke:#39373a;stroke-width:.4"/><path d="m162.27 79.47-1.12.66 8.57 14.26 1.11-.65z" class="st10"/><defs><path id="SVGID_25_" d="M20.02 21.87h206.56v218.27H20.02z"/></defs><clipPath id="SVGID_26_"><use xlink:href="#SVGID_25_" style="overflow:visible"/></clipPath><path d="M160.83 80.1s1.68-1.5 5.46-2.53c3.78-1.03 6.2-.85 6.2-.85" style="clip-path:url(#SVGID_26_);fill:none;stroke:#39373a;stroke-width:.4"/><path d="M173.7 60.86s0-5.67 5.67-5.67h33.86s5.67 0 5.67 5.67v7.6s0 5.67-5.67 5.67h-33.86s-5.67 0-5.67-5.67v-7.6z" class="st17"/><path d="M176.85 62.63s0-5.67 5.67-5.67h27.57s5.67 0 5.67 5.67v4.06s0 5.67-5.67 5.67h-27.57s-5.67 0-5.67-5.67v-4.06z" class="st17"/><path d="M180.64 61.5s0-2.83 2.83-2.83h27.71s2.83 0 2.83 2.83v6.32s0 2.83-2.83 2.83h-27.71s-2.83 0-2.83-2.83V61.5z" class="st17"/><path d="M210.64 64.66c0 .47-.38.84-.84.84-.46 0-.84-.38-.84-.84 0-.46.38-.84.84-.84.47 0 .84.37.84.84z" class="st17"/><path d="M172.04 75.2h48.76" class="st10"/><defs><path id="SVGID_27_" d="M20.02 21.87h206.56v218.27H20.02z"/></defs><clipPath id="SVGID_28_"><use xlink:href="#SVGID_27_" style="overflow:visible"/></clipPath><path d="M208.37 84.92c0 2.99 2.43 5.42 5.42 5.42h5.75c.45 0 .82-.37.82-.82V77.26c0-.45-.37-.82-.82-.82h-5.75c-2.99 0-5.42 2.43-5.42 5.42v3.06zm12.31-7.66v12.26c0 .62-.51 1.13-1.13 1.13h-5.75c-3.16 0-5.73-2.57-5.73-5.73v-3.06c0-3.16 2.57-5.73 5.73-5.73h5.75c.62 0 1.13.51 1.13 1.13" class="st18"/><path d="M208.37 84.92c0 2.99 2.43 5.42 5.42 5.42h5.75c.45 0 .82-.37.82-.82V77.26c0-.45-.37-.82-.82-.82h-5.75c-2.99 0-5.42 2.43-5.42 5.42v3.06zm12.31-7.66v12.26c0 .62-.51 1.13-1.13 1.13h-5.75c-3.16 0-5.73-2.57-5.73-5.73v-3.06c0-3.16 2.57-5.73 5.73-5.73h5.75c.62 0 1.13.51 1.13 1.13z" class="st19"/><path d="M209.73 84.92c0 2.24 1.82 4.06 4.06 4.06h3.35c.39 0 .71-.32.71-.71V78.5c0-.39-.32-.71-.71-.71h-3.35c-2.24 0-4.06 1.82-4.06 4.06v3.07zm8.43-6.41v9.77c0 .56-.46 1.01-1.02 1.01h-3.35c-2.41 0-4.37-1.96-4.37-4.37v-3.06c0-2.41 1.96-4.37 4.37-4.37h3.35c.57 0 1.02.46 1.02 1.02" class="st18"/><path d="M209.73 84.92c0 2.24 1.82 4.06 4.06 4.06h3.35c.39 0 .71-.32.71-.71V78.5c0-.39-.32-.71-.71-.71h-3.35c-2.24 0-4.06 1.82-4.06 4.06v3.07zm8.43-6.41v9.77c0 .56-.46 1.01-1.02 1.01h-3.35c-2.41 0-4.37-1.96-4.37-4.37v-3.06c0-2.41 1.96-4.37 4.37-4.37h3.35c.57 0 1.02.46 1.02 1.02z" class="st19"/><path d="M212.58 83.39a.67.67 0 1 0 1.34 0 .67.67 0 0 0-1.34 0m1.65 0c0 .54-.44.98-.98.98s-.98-.44-.98-.98.44-.98.98-.98.98.44.98.98" class="st18"/><path d="M212.58 83.39a.67.67 0 1 0 1.34 0 .67.67 0 0 0-1.34 0zm1.65 0c0 .54-.44.98-.98.98s-.98-.44-.98-.98.44-.98.98-.98.98.44.98.98z" class="st19"/><path d="M172.79 93.16h11.74v16.38h-11.74z" class="st10"/><defs><path id="SVGID_29_" d="M20.02 21.87h206.56v218.27H20.02z"/></defs><clipPath id="SVGID_30_"><use xlink:href="#SVGID_29_" style="overflow:visible"/></clipPath><path d="M201.08 98.41c0 2.82 2.29 5.11 5.12 5.11h7.41c.49 0 .88-.39.88-.88v-8.47c0-.49-.4-.88-.88-.88h-7.41c-2.83 0-5.12 2.3-5.12 5.12m13.76-4.23v8.47c0 .68-.55 1.23-1.23 1.23h-7.41c-3.01 0-5.47-2.45-5.47-5.47 0-3.01 2.45-5.47 5.47-5.47h7.41c.67 0 1.23.56 1.23 1.24" class="st20"/><path d="M201.08 98.41c0 2.82 2.29 5.11 5.12 5.11h7.41c.49 0 .88-.39.88-.88v-8.47c0-.49-.4-.88-.88-.88h-7.41c-2.83 0-5.12 2.3-5.12 5.12zm13.76-4.23v8.47c0 .68-.55 1.23-1.23 1.23h-7.41c-3.01 0-5.47-2.45-5.47-5.47 0-3.01 2.45-5.47 5.47-5.47h7.41c.67 0 1.23.56 1.23 1.24z" class="st21"/><path d="M212.01 102.08v-7.33a.09.09 0 0 0-.09-.09h-5.58c-2.06 0-3.76 1.69-3.76 3.76 0 2.06 1.69 3.76 3.76 3.76h5.58c.05-.02.09-.06.09-.1z" class="st21"/><path d="M211.84 101.99v-7.16h-5.5a3.59 3.59 0 0 0-3.58 3.58 3.59 3.59 0 0 0 3.58 3.58h5.5zm.35-7.25v7.33c0 .14-.12.26-.26.26h-5.58a3.93 3.93 0 0 1 0-7.86h5.58c.14.01.26.13.26.27" class="st20"/><path d="M211.84 101.99v-7.16h-5.5a3.59 3.59 0 0 0-3.58 3.58 3.59 3.59 0 0 0 3.58 3.58h5.5zm.35-7.25v7.33c0 .14-.12.26-.26.26h-5.58a3.93 3.93 0 0 1 0-7.86h5.58c.14.01.26.13.26.27z" class="st21"/><path d="M206.33 98.41a.97.97 0 0 0 1.94 0 .97.97 0 0 0-1.94 0m2.29 0c0 .73-.59 1.32-1.32 1.32s-1.32-.59-1.32-1.32c0-.73.59-1.32 1.32-1.32s1.32.59 1.32 1.32" class="st20"/><path d="M206.33 98.41a.97.97 0 0 0 1.94 0 .97.97 0 0 0-1.94 0zm2.29 0c0 .73-.59 1.32-1.32 1.32s-1.32-.59-1.32-1.32c0-.73.59-1.32 1.32-1.32s1.32.59 1.32 1.32z" class="st21"/><path d="m208.74 99.794.21-.28 2.347 1.754-.21.28z" class="st1"/><path d="m208.74 99.794.21-.28 2.347 1.754-.21.28z" class="st22"/><path d="m211.3 95.61-2.34 1.76-.22-.29 2.35-1.75z" class="st1"/><path d="m211.3 95.61-2.34 1.76-.22-.29 2.35-1.75z" class="st22"/><defs><path id="SVGID_31_" d="M20.02 21.87h206.56v218.27H20.02z"/></defs><clipPath id="SVGID_32_"><use xlink:href="#SVGID_31_" style="overflow:visible"/></clipPath><path d="M214.85 101.94c0 .78.64 1.42 1.42 1.42h1.93c.78 0 1.42-.64 1.42-1.42v-7.06c0-.78-.64-1.42-1.42-1.42h-1.93c-.78 0-1.42.64-1.42 1.42v7.06zm5.12-7.06v7.06c0 .97-.79 1.77-1.77 1.77h-1.93c-.97 0-1.77-.79-1.77-1.77v-7.06c0-.97.79-1.77 1.77-1.77h1.93c.97 0 1.77.79 1.77 1.77" class="st23"/><path d="M214.85 101.94c0 .78.64 1.42 1.42 1.42h1.93c.78 0 1.42-.64 1.42-1.42v-7.06c0-.78-.64-1.42-1.42-1.42h-1.93c-.78 0-1.42.64-1.42 1.42v7.06zm5.12-7.06v7.06c0 .97-.79 1.77-1.77 1.77h-1.93c-.97 0-1.77-.79-1.77-1.77v-7.06c0-.97.79-1.77 1.77-1.77h1.93c.97 0 1.77.79 1.77 1.77z" class="st24"/><path d="M216.69 98.41c0 .3.25.55.55.55.3 0 .55-.25.55-.55 0-.3-.25-.55-.55-.55-.31 0-.55.25-.55.55m1.44 0c0 .5-.4.9-.9.9s-.9-.4-.9-.9.4-.9.9-.9.9.4.9.9" class="st23"/><path d="M216.69 98.41c0 .3.25.55.55.55.3 0 .55-.25.55-.55 0-.3-.25-.55-.55-.55-.31 0-.55.25-.55.55zm1.44 0c0 .5-.4.9-.9.9s-.9-.4-.9-.9.4-.9.9-.9.9.4.9.9z" class="st24"/><path d="M213.85 27.17V51.6m1.02-22.96h6.34v15.93h-6.34zm0 17.71h6.34v4.08h-6.34zm-1.32 5.09h7.96m-88.82 51.48V78.49m-7.36 7.03h6.34v15.93h-6.34zm0-5.86h6.34v4.08h-6.34zm7.66-1.01h-7.96" class="st10"/><path d="M220.32 113.68h-16.24v16.25h16.24v-16.25zm.36 16.61h-16.96v-16.96h16.96v16.96z" class="st1"/><path d="M220.32 113.68h-16.24v16.25h16.24v-16.25zm.36 16.61h-16.96v-16.96h16.96v16.96z" class="st22"/><defs><path id="SVGID_33_" d="M20.02 21.87h206.56v218.27H20.02z"/></defs><clipPath id="SVGID_34_"><use xlink:href="#SVGID_33_" style="overflow:visible"/></clipPath><path d="M205.55 127.49c0 .4.33.73.73.73h8.54c.4 0 .73-.33.73-.73v-11.38c0-.4-.33-.73-.73-.73h-8.54c-.4 0-.73.33-.73.73v11.38zm10.36-11.37v11.38c0 .6-.49 1.09-1.09 1.09h-8.54c-.6 0-1.09-.49-1.09-1.09v-11.38c0-.6.49-1.09 1.09-1.09h8.54c.6 0 1.09.49 1.09 1.09" style="clip-path:url(#SVGID_34_);fill:#39373a"/><path d="M205.55 127.49c0 .4.33.73.73.73h8.54c.4 0 .73-.33.73-.73v-11.38c0-.4-.33-.73-.73-.73h-8.54c-.4 0-.73.33-.73.73v11.38zm10.36-11.37v11.38c0 .6-.49 1.09-1.09 1.09h-8.54c-.6 0-1.09-.49-1.09-1.09v-11.38c0-.6.49-1.09 1.09-1.09h8.54c.6 0 1.09.49 1.09 1.09z" style="clip-path:url(#SVGID_34_);fill:none;stroke:#39373a;stroke-width:.25"/><path d="M214.28 116.65h-7.47v10.31h7.47v-10.31zm.36 10.67h-8.19v-11.03h8.19v11.03z" class="st1"/><path d="M214.28 116.65h-7.47v10.31h7.47v-10.31zm.36 10.67h-8.19v-11.03h8.19v11.03z" class="st22"/><defs><path id="SVGID_35_" d="M20.02 21.87h206.56v218.27H20.02z"/></defs><clipPath id="SVGID_36_"><use xlink:href="#SVGID_35_" style="overflow:visible"/></clipPath><path d="M209.1 121.81a.939.939 0 1 0 1.88 0 .939.939 0 1 0-1.88 0m2.24 0c0 .72-.58 1.3-1.3 1.3-.72 0-1.3-.58-1.3-1.3 0-.72.58-1.3 1.3-1.3.72-.01 1.3.58 1.3 1.3" style="clip-path:url(#SVGID_36_);fill:#39373a"/><path d="M209.1 121.81a.939.939 0 1 0 1.88 0 .939.939 0 1 0-1.88 0zm2.24 0c0 .72-.58 1.3-1.3 1.3-.72 0-1.3-.58-1.3-1.3 0-.72.58-1.3 1.3-1.3.72-.01 1.3.58 1.3 1.3z" style="clip-path:url(#SVGID_36_);fill:none;stroke:#39373a;stroke-width:.25"/><path d="m23.234 223.497.393-2.711 99.43 14.418-.393 2.712zM123.71 235.2h99.68v2.74h-99.68z" class="st10"/><path d="M39.48 73.96c1.46.21 1.55.77 2.39 3.71h-2.05c-.79-2.6-.86-3.07-1.59-3.07h-.34c.05.23.08.47.08.67v2.4H36.1v-2.4c0-.2.03-.44.08-.67h-.36c-.7 0-.78.47-1.58 3.07H32.2c.84-2.95.94-3.51 2.38-3.71v-.06c-1.39-.19-1.43-.83-2.19-3.4h1.98c.63 2.15.77 2.8 1.46 2.8h.36c-.06-.3-.09-.6-.09-.9v-1.9h1.86v1.9c0 .29-.03.59-.08.9h.33c.7 0 .82-.65 1.47-2.8h1.98c-.76 2.57-.79 3.22-2.19 3.4v.06zm6.72 3.72v-2.32c0-.3.03-.57.07-.92h-.04c-.09.28-.27.63-.42.86l-1.61 2.36h-1.64V72.5h1.68v2.43c0 .27-.03.5-.07.8h.04c.1-.29.24-.52.4-.76l1.64-2.48h1.64v5.18H46.2zm8.01-.01h-1.88v-3.91h-.45c-.31 0-.46.14-.49.44-.09.8-.21 1.67-.31 2.17-.21 1.28-1.24 1.54-2.37 1.35l-.19-1.38c.46-.07.76-.06.87-.48.1-.36.2-1.08.27-2.03.07-.87.53-1.33 1.43-1.33h3.12v5.17zm1.14-5.06c.77-.15 2.07-.26 2.83-.26 1.39 0 2.16.48 2.16 2.02v3.3h-1.51l-.18-.76c-.35.44-.95.9-1.84.9-.96 0-1.74-.51-1.74-1.48v-.52c0-.82.62-1.32 1.65-1.32h1.72v-.12c-.01-.44-.18-.59-.72-.59-.52 0-1.35.02-2.22.07l-.15-1.24zm1.58 3.45c0 .27.17.42.51.42.3 0 .67-.14 1.01-.35v-.64h-1.08c-.31.01-.44.17-.44.41v.16zm5.51-.63c-.87-.18-1.12-.77-1.12-1.39 0-1.3.47-1.67 2.37-1.67 1.42 0 1.97.01 2.61.08v5.21h-1.83v-1.69h-.69c-.32 0-.44.06-.48.3l-.32 1.38h-1.94l.41-1.63c.14-.45.68-.53.99-.56v-.03zm2.03-1.72h-.74c-.49 0-.58.09-.58.48 0 .52.09.65.58.65h.74v-1.13zm8.54 1.3c1.23.18 1.25.22 1.97 2.66h-1.97c-.54-1.9-.58-2.04-1.13-2.05h-.42c.04.15.06.29.06.42v1.63h-1.88V72.5h1.88v1.22c0 .21-.03.44-.07.66h.23c.74 0 .77-.15 1.22-1.87h1.9c-.67 2.17-.58 2.28-1.79 2.46v.04zm7.98.08c0 1.99-.75 2.71-2.78 2.71-2.04 0-2.79-.72-2.79-2.71 0-2 .75-2.74 2.79-2.74 2.03 0 2.78.74 2.78 2.74zm-3.59 0c0 1.13.17 1.38.81 1.38.63 0 .8-.25.8-1.38 0-1.14-.17-1.4-.8-1.4-.65 0-.81.26-.81 1.4zm11.04-2.59c.43 0 .64.22.65.65l.14 4.53h-1.71l-.14-3.8h-.12l-.61 2.51c-.07.38-.3.57-.71.57h-.84c-.4 0-.65-.19-.72-.57l-.61-2.51h-.12l-.1 3.8h-1.71l.12-4.53c.01-.43.23-.65.66-.65h1.6c.39 0 .63.2.7.58l.46 1.92c.06.26.07.51.1.77h.08c.04-.26.05-.51.1-.77l.45-1.92c.06-.39.31-.58.71-.58h1.62zm7.12 5.17h-1.85v-2.09h-1.58v2.09h-1.86V72.5h1.86v1.82h1.58V72.5h1.85v5.17zm1.13-5.06c.77-.15 2.07-.26 2.83-.26 1.39 0 2.16.48 2.16 2.02v3.3h-1.51l-.17-.76c-.35.44-.95.9-1.84.9-.96 0-1.74-.51-1.74-1.48v-.52c0-.82.62-1.32 1.65-1.32h1.72v-.12c-.01-.44-.18-.59-.72-.59-.52 0-1.35.02-2.22.07l-.16-1.24zm1.59 3.45c0 .27.17.42.51.42.3 0 .67-.14 1.01-.35v-.64h-1.08c-.31.01-.44.17-.44.41v.16zm7.6-2.14v3.75H104v-3.75h-1.64V72.5h5.16v1.43h-1.64zm2.33-1.31c.77-.15 2.07-.26 2.83-.26 1.39 0 2.16.48 2.16 2.02v3.3h-1.51l-.18-.76c-.35.44-.95.9-1.84.9-.96 0-1.74-.51-1.74-1.48v-.52c0-.82.62-1.32 1.65-1.32h1.72v-.12c-.01-.44-.18-.59-.72-.59-.52 0-1.35.02-2.22.07l-.15-1.24zm1.58 3.45c0 .27.17.42.51.42.3 0 .67-.14 1.01-.35v-.64h-1.08c-.31.01-.44.17-.44.41v.16zM64.63 89.57v-4.76c0-.28.01-.56.07-.85l-1.67.38-.23-1.24 1.82-.71h1.95v7.18h-1.94zm3.53-1.3c.63.01.98.01 1.9.01.95 0 1.2-.35 1.25-1.58-.4.32-.83.43-1.48.43-1.6 0-2.06-.92-2.06-2.23-.01-1.84.58-2.63 2.67-2.63 2.27 0 2.75.74 2.75 3.64 0 3.25-.84 3.79-3.13 3.79-.4 0-1.17 0-2-.21l.1-1.22zm2.27-2.47c.33 0 .56-.07.91-.27-.01-1.58-.09-1.86-.91-1.86-.75 0-.83.33-.82 1.19-.01.73.16.94.82.94zm4.77 2c.5 0 .66.16.66.66v.46c0 .5-.16.66-.66.66h-.45c-.5 0-.66-.16-.66-.66v-.46c0-.5.16-.66.66-.66h.45zm7.39-1.82c0 2.8-.76 3.74-2.94 3.74-2.18 0-2.92-.94-2.92-3.74 0-2.8.75-3.74 2.92-3.74 2.18 0 2.94.94 2.94 3.74zm-3.95 0c0 1.9.22 2.25.99 2.25.8 0 1.02-.34 1.02-2.25s-.22-2.25-1.02-2.25c-.77 0-.99.34-.99 2.25zm81.97 126.72h-1.96v-5.85H158c-.37 0-.57.18-.59.53-.12 1.5-.26 2.83-.55 3.69-.47 1.48-1.42 1.86-2.69 1.67l-.14-1.51c.49-.07.84-.19 1.02-.69.24-.67.37-1.67.49-3.33.08-1.12.69-1.7 1.8-1.7h3.27v7.19zm6.58-2.59c0 1.99-.75 2.71-2.78 2.71-2.04 0-2.79-.72-2.79-2.71 0-2 .75-2.74 2.79-2.74 2.03.01 2.78.75 2.78 2.74zm-3.59 0c0 1.13.17 1.38.81 1.38.63 0 .8-.25.8-1.38 0-1.14-.17-1.4-.8-1.4-.64 0-.81.26-.81 1.4zm10.44 4.02h-1.25l-.14-1.44h-3.7l-.12 1.44h-1.25v-2.71h.65c.31-.88.49-1.75.61-2.64.11-.83.57-1.26 1.5-1.26h2.84v3.9h.86v2.71zm-2.63-5.4h-.47c-.26 0-.43.12-.46.42-.15.97-.33 1.69-.59 2.28h1.52v-2.7zm9.42 1.29c1.24.18 1.27.27 2.01 2.67h-1.92c-.65-1.96-.69-2.07-1.15-2.08h-.39c.03.16.05.31.05.44v1.64h-1.65v-1.64c0-.12.02-.28.06-.44h-.42c-.44.01-.49.12-1.14 2.08h-1.92c.74-2.4.76-2.5 2.01-2.67v-.05c-1.21-.16-1.15-.31-1.84-2.45h1.85c.55 1.71.61 1.88 1.13 1.88h.33c-.04-.22-.06-.44-.06-.65v-1.24h1.64v1.24c0 .21-.02.43-.06.65h.32c.52 0 .58-.19 1.12-1.88h1.86c-.68 2.13-.63 2.29-1.84 2.45v.05zm6.35 2.69v-2.32c0-.3.03-.57.07-.92h-.04c-.09.28-.27.63-.42.86l-1.61 2.36h-1.64v-5.17h1.68v2.43c0 .27-.03.5-.07.8h.04c.1-.29.24-.52.4-.76l1.64-2.48h1.64v5.18h-1.69zm3.83-2.25c-.87-.18-1.12-.77-1.12-1.39 0-1.3.47-1.67 2.37-1.67 1.42 0 1.97.01 2.61.08v5.21h-1.83V211h-.69c-.32 0-.44.06-.48.3l-.32 1.38h-1.94l.41-1.63c.14-.45.68-.53.99-.56v-.03zm2.03-1.73h-.74c-.49 0-.58.09-.58.48 0 .52.09.65.58.65h.74v-1.13zm-25.38 14c.63.01.98.01 1.9.01.95 0 1.2-.35 1.25-1.58-.4.32-.83.43-1.48.43-1.6 0-2.06-.92-2.06-2.23-.01-1.84.58-2.63 2.67-2.63 2.27 0 2.75.74 2.75 3.64 0 3.25-.84 3.79-3.13 3.79-.4 0-1.17 0-2-.21l.1-1.22zm2.27-2.47c.33 0 .56-.07.91-.27-.01-1.58-.09-1.86-.91-1.86-.75 0-.83.33-.82 1.19-.01.73.15.94.82.94zm4.77 2c.5 0 .66.16.66.66v.46c0 .5-.16.66-.66.66h-.45c-.5 0-.66-.16-.66-.66v-.46c0-.5.16-.66.66-.66h.45zm7.59.07-.83.19h-.02v1.51h-1.78v-1.51h-2.87c-.6 0-.99-.55-.76-1.11l1.79-4.56h1.82l-1.57 4.07c-.08.2.02.3.19.3h1.4v-1.84l.31-1.12h1.47v2.97h.85v1.1zm-21.1-81.66c1.48.21 1.57.77 2.46 3.71h-2.04c-.74-2.6-.82-3.07-1.82-3.07h-.37c.05.23.08.47.08.67v2.4h-1.95v-7.18h1.95v1.9c0 .29-.03.6-.08.9h.34c1.01 0 1.15-.65 1.71-2.8h1.99c-.79 2.57-.83 3.22-2.26 3.4v.07zm6.76 3.66c-.37 1.21-.97 1.72-1.77 2.01-.61.25-1.39.24-2.13.1l.16-1.23c.66.02 1.11-.03 1.45-.22.21-.11.41-.35.54-.61h-.34c-.29 0-.52-.18-.6-.45l-1.6-4.72h2.01l.78 3.08c.05.29.1.58.15.88h.1c.08-.3.17-.65.22-.88l.76-3.08h2.02l-1.75 5.12zm4.82-2.03-1.12 2.08h-1.9l1.54-2.64-1.42-2.53h1.88l1.02 1.94 1.02-1.94h1.88l-1.42 2.53 1.54 2.64h-1.9l-1.12-2.08zm8.92 2.08h-1.85v-2.09h-1.58v2.09h-1.86v-5.17h1.86v1.82h1.58v-1.82h1.85v5.17zm2.15-2.24c-.87-.18-1.12-.77-1.12-1.39 0-1.3.47-1.67 2.37-1.67 1.42 0 1.97.01 2.61.08v5.21h-1.83v-1.69h-.69c-.32 0-.44.06-.48.3l-.32 1.38h-1.94l.41-1.63c.14-.45.68-.53.99-.56v-.03zm2.03-1.72h-.74c-.49 0-.58.09-.58.48 0 .52.09.65.58.65h.74v-1.13zm-19.44 10.7c-.78-.08-1.09-.87-1.09-1.64 0-1.34.47-1.92 2.63-1.92 2.19 0 2.64.58 2.64 1.92 0 .77-.31 1.56-1.09 1.64v.04c1.03.09 1.27.96 1.27 1.92 0 1.39-.54 1.92-2.82 1.94-2.24.01-2.82-.54-2.82-1.94 0-.96.25-1.82 1.28-1.92v-.04zm.56 1.58c0 .72.19.9 1 .9.8 0 .97-.18.97-.9 0-.76-.17-.94-.96-.94-.84 0-1.01.2-1.01.94zm.1-2.98c0 .65.18.79.92.79.73 0 .86-.16.86-.79 0-.71-.17-.86-.88-.86-.73 0-.9.15-.9.86zm5.7 3.37c.5 0 .66.16.66.66v.46c0 .5-.16.66-.66.66h-.45c-.5 0-.66-.16-.66-.66v-.46c0-.5.16-.66.66-.66h.45zm2.83-1.97c-.78-.08-1.09-.87-1.09-1.64 0-1.34.47-1.92 2.63-1.92 2.19 0 2.64.58 2.64 1.92 0 .77-.31 1.56-1.09 1.64v.04c1.03.09 1.27.96 1.27 1.92 0 1.39-.54 1.92-2.82 1.94-2.24.01-2.82-.54-2.82-1.94 0-.96.25-1.82 1.28-1.92v-.04zm.56 1.58c0 .72.19.9 1 .9.8 0 .97-.18.97-.9 0-.76-.17-.94-.96-.94-.84 0-1.01.2-1.01.94zm.1-2.98c0 .65.18.79.92.79.73 0 .86-.16.86-.79 0-.71-.17-.86-.88-.86-.73 0-.9.15-.9.86zm-41.44-86.53h-1.17v-3.51h-1.27v3.51h-1.17v-4.31h3.61v4.31zm1.73-2.67c.22-.29.69-.51 1.19-.51.79 0 1.1.61 1.1 1.66 0 1.25-.41 1.6-1.18 1.6-.37 0-.72-.08-.99-.28.02.22.02.46.02.67v.68h-1.13v-4.26h.91l.08.44zm.14 1.87c.17.05.32.11.54.11.32 0 .44-.11.44-.82s-.12-.82-.41-.82c-.24 0-.38.08-.58.19v1.34zm4.88.8V61.8c0-.18.02-.34.04-.55h-.02c-.06.17-.16.38-.25.52l-.97 1.42h-.99v-3.1h1v1.46c0 .16-.02.3-.04.48h.03c.06-.17.14-.31.24-.46l.99-1.49h.99v3.11h-1.02zm3.19-1.25-.67 1.25h-1.14l.92-1.58-.85-1.52h1.13l.61 1.16.61-1.16h1.13l-.85 1.52.92 1.58h-1.14l-.67-1.25zm5.29-.3c0 1.19-.45 1.62-1.67 1.62s-1.67-.43-1.67-1.62c0-1.2.45-1.64 1.67-1.64s1.67.44 1.67 1.64zm-2.15 0c0 .68.1.83.49.83.38 0 .48-.15.48-.83 0-.69-.1-.84-.48-.84-.39 0-.49.15-.49.84zm6.29-.06c.74.11.76.16 1.2 1.6h-1.15c-.39-1.17-.41-1.24-.69-1.25h-.23c.02.09.03.19.03.26v.99h-.99v-.98c0-.07.01-.17.04-.26h-.25c-.26.01-.29.08-.69 1.25h-1.15c.44-1.44.46-1.5 1.2-1.6v-.03c-.72-.09-.69-.19-1.1-1.47h1.11c.33 1.02.37 1.13.68 1.13h.2c-.02-.13-.04-.26-.04-.39v-.74h.99v.74c0 .12-.01.26-.04.39h.19c.31 0 .35-.11.67-1.13h1.12c-.41 1.28-.38 1.37-1.1 1.47v.02zm1.63-1.42c.46-.09 1.24-.16 1.7-.16.84 0 1.3.29 1.3 1.21v1.98h-.9l-.11-.46c-.21.26-.57.54-1.1.54-.57 0-1.04-.31-1.04-.89v-.31c0-.49.37-.79.99-.79h1.03v-.08c-.01-.26-.11-.36-.43-.36-.31 0-.81.01-1.33.04l-.11-.72zm.95 2.06c0 .16.1.25.31.25.18 0 .4-.08.61-.21v-.39h-.65c-.19.01-.26.1-.26.24v.11zm3.3-.37c-.52-.11-.67-.46-.67-.84 0-.78.28-1 1.42-1 .85 0 1.18.01 1.57.05v3.13h-1.1v-1.01h-.41c-.19 0-.26.04-.29.18l-.19.83h-1.16l.24-.98c.08-.27.41-.32.59-.34v-.02zm1.22-1.04h-.44c-.29 0-.35.06-.35.29 0 .31.06.39.35.39h.44v-.68zm-17.46 5.9-.04.6.72.09c1 .11 1.27.73 1.26 1.42 0 .77-.34 1.4-1.57 1.4-.43 0-.98-.04-1.53-.12l.11-.88c.41.03.81.05 1.12.05.57 0 .69-.14.72-.49.02-.41-.19-.49-.77-.54l-.67-.08c-.21-.03-.35-.19-.34-.39l.11-1.94h2.7l-.04.86h-1.78zm3.07 2.39c.3 0 .39.09.39.39v.27c0 .3-.09.39-.39.39h-.27c-.3 0-.39-.09-.39-.39v-.27c0-.3.09-.39.39-.39h.27zm2.01-2.39-.04.6.72.09c1 .11 1.27.73 1.26 1.42 0 .77-.34 1.4-1.57 1.4-.43 0-.98-.04-1.53-.12l.11-.88c.41.03.81.05 1.12.05.57 0 .69-.14.72-.49.02-.41-.19-.49-.77-.54l-.67-.08c-.21-.03-.35-.19-.34-.39l.11-1.94h2.7l-.04.86h-1.78zm32.25 18.23c-.42.14-.8.19-1.45.19-1.38 0-1.88-.59-1.88-2.23 0-1.64.51-2.23 1.88-2.23.64 0 .95.04 1.36.16l-.09.86c-.42-.01-.7-.02-1.27-.02-.51 0-.66.26-.66 1.23s.14 1.23.66 1.23c.61 0 .96-.01 1.36-.05l.09.86zm.49-2.91c.46-.09 1.24-.16 1.7-.16.84 0 1.3.29 1.3 1.21v1.98h-.9l-.11-.46c-.21.26-.57.54-1.1.54-.57 0-1.04-.31-1.04-.89v-.31c0-.49.37-.79.99-.79h1.03v-.07c-.01-.26-.11-.36-.43-.36-.31 0-.81.01-1.33.04l-.11-.73zm.94 2.06c0 .16.1.25.31.25.18 0 .4-.08.61-.21v-.39h-.65c-.19.01-.26.1-.26.24v.11zm5.87.97h-1.11V83.8h-.95v1.25h-1.12v-3.1h1.12v1.09h.95v-1.09h1.11v3.11zm2.94-.03c-.22.72-.58 1.03-1.06 1.2-.37.15-.84.14-1.28.06l.09-.74c.39.01.67-.02.87-.13.12-.07.24-.21.32-.37h-.21c-.17 0-.31-.11-.36-.27l-.96-2.83h1.2l.47 1.85c.03.17.06.35.09.53h.06c.05-.18.1-.39.13-.53l.46-1.85h1.21l-1.03 3.08zm1.28-3c.42-.13.89-.16 1.16-.16 1.14 0 1.59.11 1.59.85 0 .49-.19.69-.67.72v.03c.57.04.8.31.8.81 0 .75-.51.85-1.49.85-.49 0-.97-.02-1.47-.14l.07-.75c.48.05.96.07 1.32.07.32 0 .41-.02.41-.25 0-.19-.07-.22-.41-.24l-.97-.01v-.67l.97-.02c.27-.01.35-.04.35-.22 0-.19-.08-.21-.42-.21-.41 0-.82.03-1.16.07l-.08-.73zm4.48 1.77c.06.35.22.45.62.45.26 0 .73-.02 1.21-.08l.11.69c-.41.21-.94.26-1.45.26-1.24 0-1.7-.52-1.7-1.61 0-1.22.47-1.65 1.68-1.65 1.12 0 1.55.38 1.55 1.1.01.57-.27.84-1.08.84h-.94zm.62-.58c.27 0 .31-.08.31-.27 0-.24-.11-.31-.42-.31-.38-.01-.51.08-.52.58h.63zm5.02 1.84h-1.13v-2.35h-.27c-.19 0-.27.08-.29.26-.06.48-.12 1-.19 1.3-.12.77-.74.92-1.42.81l-.11-.83c.27-.04.46-.04.52-.29.06-.22.12-.65.16-1.22.04-.52.32-.8.85-.8h1.87v3.12zm-16.75 2.69c.49-.08.97-.12 1.44-.12 1.05 0 1.45.24 1.45 1 0 .62-.13 1-.69 1.09v.02c.61.09.79.42.8 1.08.01.91-.41 1.29-1.55 1.29-.52 0-1.06-.05-1.55-.12l.04-.84c.54.03.82.04 1.19.04.55 0 .71-.08.71-.52 0-.37-.1-.51-.56-.5l-.82.01v-.75h.82c.47 0 .51-.17.51-.47 0-.35-.12-.41-.56-.41-.44 0-.88.01-1.2.01l-.03-.81zm4.2 3.22c.3 0 .39.09.39.39v.27c0 .3-.09.39-.39.39H190c-.3 0-.39-.09-.39-.39v-.27c0-.3.09-.39.39-.39h.27zm4.56.04-.5.11h-.01v.91h-1.07v-.91h-1.72c-.36 0-.59-.33-.46-.67l1.07-2.73h1.09l-.94 2.44c-.05.12.01.18.11.18h.84v-1.11l.19-.67h.88v1.78h.51v.67zM64.15 141.37l-1.9.43h-.05v3.45h-4.07v-3.45h-6.57c-1.38 0-2.26-1.26-1.74-2.55l4.09-10.42h4.16l-3.59 9.3c-.19.45.05.69.43.69h3.21v-4.21l.71-2.57h3.35v6.78h1.95v2.55zm4.47 3.88v-10.87c0-.64.02-1.29.17-1.95l-3.81.86-.52-2.83 4.16-1.62h4.45v16.41h-4.45zm9.9-4.05c1.14 0 1.5.36 1.5 1.5v1.05c0 1.14-.36 1.5-1.5 1.5H77.5c-1.14 0-1.5-.36-1.5-1.5v-1.05c0-1.14.36-1.5 1.5-1.5h1.02zm17.36.17-1.9.43h-.05v3.45h-4.07v-3.45H83.3c-1.38 0-2.26-1.26-1.74-2.55l4.09-10.42h4.16l-3.59 9.3c-.19.45.05.69.43.69h3.21v-4.21l.71-2.57h3.35v6.78h1.95v2.55z" class="st1"/><defs><path id="SVGID_37_" d="M20.02 21.87h206.56v218.27H20.02z"/></defs><clipPath id="SVGID_38_"><use xlink:href="#SVGID_37_" style="overflow:visible"/></clipPath><circle cx="72.88" cy="110.33" r="14.58" style="clip-path:url(#SVGID_38_);fill:none;stroke:#39373a"/><path d="M66.14 116.63v-8.24c0-.49.02-.97.13-1.48l-2.88.65-.4-2.14 3.15-1.23h3.37v12.43h-3.37zm12.29-6.43c2.56.36 2.72 1.33 4.25 6.43h-3.53c-1.28-4.5-1.42-5.32-3.15-5.32h-.65c.09.4.14.81.14 1.15v4.16h-3.37V104.2h3.37v3.3c0 .5-.05 1.05-.14 1.55h.59c1.75 0 1.98-1.12 2.96-4.85h3.44c-1.37 4.45-1.44 5.57-3.91 5.89v.11z" class="st1"/></g></switch></svg>