<?xml version="1.0" encoding="utf-8"?>
<!-- Generator: Adobe Illustrator 24.3.0, SVG Export Plug-In . SVG Version: 6.00 Build 0)  -->
<svg version="1.1" id="Слой_1" xmlns="http://www.w3.org/2000/svg" xmlns:xlink="http://www.w3.org/1999/xlink" x="0px" y="0px"
	 viewBox="0 0 328.9 439.6" style="enable-background:new 0 0 328.9 439.6;" xml:space="preserve">
<style type="text/css">
	.st0{fill:#B7E0E6;}
	.st1{fill:#F3DFEC;}
	.st2{fill:#373437;}
	.st3{fill:none;stroke:#373437;stroke-width:0.669;}
	.st4{fill:none;stroke:#373437;stroke-width:0.904;}
	.st5{fill:none;stroke:#373437;stroke-width:0.446;}
	.st6{fill:none;stroke:#373437;stroke-width:0.244;}
	.st7{fill:none;stroke:#373437;stroke-width:0.236;}
	.st8{fill:none;stroke:#373437;stroke-width:0.567;}
	.st9{fill:none;stroke:#373437;stroke-width:0.279;}
</style>
<path class="st0" d="M178.1,279.4"/>
<rect x="90.9" y="248.1" class="st1" width="82.8" height="135.6"/>
<rect x="59.1" y="165.3" class="st1" width="199.4" height="110.1"/>
<rect x="90.9" y="70.7" class="st1" width="190.1" height="148.5"/>
<rect x="74.2" y="52.9" class="st2" width="122.2" height="17.7"/>
<rect x="237.3" y="52.9" class="st2" width="48.3" height="17.7"/>
<rect x="75.9" y="52.9" class="st2" width="122.2" height="8.8"/>
<rect x="235.8" y="52.9" class="st2" width="46.8" height="8.8"/>
<rect x="277.9" y="69.9" class="st2" width="14.2" height="138.8"/>
<rect x="41.6" y="275.1" class="st2" width="49.3" height="15.2"/>
<rect x="83.8" y="64.6" class="st2" width="10.3" height="34.3"/>
<rect x="80.6" y="272.9" class="st2" width="10.3" height="32.2"/>
<rect x="49" y="160.8" class="st2" width="10.3" height="37.9"/>
<rect x="52.1" y="152" class="st2" width="10.3" height="35"/>
<rect x="80.6" y="60.1" class="st2" width="10.3" height="44.4"/>
<rect x="80.6" y="145.5" class="st2" width="10.3" height="19.1"/>
<rect x="41.6" y="148.9" class="st2" width="33.5" height="15.7"/>
<rect x="72.8" y="272.9" class="st2" width="8.8" height="33.7"/>
<rect x="80.6" y="343.7" class="st2" width="10.3" height="57.5"/>
<rect x="83.7" y="353.9" class="st2" width="10.3" height="47.3"/>
<rect x="92" y="383.1" class="st2" width="86.1" height="18.1"/>
<line class="st2" x1="157" y1="392.1" x2="178.1" y2="392.1"/>
<rect x="72.8" y="342.2" class="st2" width="8.8" height="59"/>
<rect x="41" y="148.9" class="st2" width="8.8" height="51.2"/>
<rect x="49" y="238.3" class="st2" width="10.3" height="38.8"/>
<rect x="52.1" y="250.9" class="st2" width="10.3" height="35"/>
<rect x="41" y="236.2" class="st2" width="8.8" height="54.1"/>
<rect x="72.8" y="52.9" class="st2" width="8.8" height="53.4"/>
<rect x="72.8" y="143.5" class="st2" width="8.8" height="21.8"/>
<rect x="73.1" y="103" class="st3" width="17.5" height="54.5"/>
<rect x="81.6" y="100.2" class="st3" width="1.6" height="60.1"/>
<rect x="41.4" y="189.1" class="st3" width="17.5" height="54.5"/>
<rect x="49.9" y="186.3" class="st3" width="1.6" height="60.1"/>
<rect x="73.1" y="278.5" class="st3" width="17.5" height="44.7"/>
<rect x="81.6" y="279.7" class="st3" width="1.6" height="43.5"/>
<rect x="257.8" y="135.6" class="st2" width="23.2" height="4.6"/>
<rect x="211" y="184.9" class="st2" width="70" height="4.8"/>
<rect x="210.3" y="209.9" class="st2" width="4.8" height="2.5"/>
<rect x="210.3" y="143.1" class="st2" width="4.8" height="23.5"/>
<rect x="210.3" y="185.1" class="st2" width="4.8" height="6.8"/>
<rect x="203" y="162.5" class="st2" width="9.2" height="4.1"/>
<rect x="172.6" y="162.5" class="st2" width="10.1" height="4.1"/>
<rect x="142.4" y="164.6" class="st2" width="4.4" height="69.7"/>
<rect x="142.4" y="254.6" class="st2" width="4.4" height="22.7"/>
<rect x="41.6" y="272.9" class="st2" width="107.6" height="4.4"/>
<rect x="169.4" y="271.5" class="st2" width="92.6" height="7.5"/>
<rect x="170.6" y="276" class="st2" width="7.5" height="111.4"/>
<rect x="41.6" y="162.5" class="st2" width="110.6" height="4.1"/>
<rect x="254.1" y="254.6" class="st2" width="7.9" height="22.6"/>
<rect x="254.1" y="218.1" class="st2" width="7.9" height="11.1"/>
<rect x="277.9" y="205.6" class="st2" width="7.9" height="18.2"/>
<line class="st2" x1="285" y1="194.8" x2="285" y2="209"/>
<line class="st2" x1="281.8" y1="215.6" x2="281.8" y2="219.7"/>
<path class="st2" d="M300.1,223.7"/>
<path class="st2" d="M300.1,216.9"/>
<line class="st2" x1="287.4" y1="148.9" x2="287.4" y2="155.3"/>
<line class="st2" x1="287.4" y1="69.9" x2="287.4" y2="80.2"/>
<rect x="254.2" y="216.4" class="st2" width="31.3" height="7.5"/>
<rect x="177.6" y="65.1" class="st2" width="5" height="100.2"/>
<rect x="173.7" y="65.1" class="st2" width="5" height="33.7"/>
<rect x="173.7" y="142.7" class="st2" width="5" height="24"/>
<rect x="264.8" y="25.9" class="st2" width="20.8" height="29.9"/>
<path class="st2" d="M136.2,122.8c0.9,0,1.4,0,2,0c0.5,0,0.7,0,0.7,0.3c0,0.4-0.4,1-1.2,1.7l-1.5,1.5c-0.2,0.2-0.2,0.4-0.2,0.7v0.9
	h4.8v-1.5h-1.9c-0.3,0-0.6,0-0.9,0.1l1.6-1.6c0.9-0.9,1-1.3,1-2c0-1.3-0.9-1.6-2.3-1.6c-0.7,0-1.4,0-2.3,0.2L136.2,122.8z
	 M134.3,126.3c-0.5,0-0.6,0.1-0.6,0.6v0.4c0,0.5,0.1,0.6,0.6,0.6h0.4c0.5,0,0.6-0.1,0.6-0.6v-0.4c0-0.5-0.1-0.6-0.6-0.6H134.3z
	 M132.6,127.9v-6.5h-1.8l-1.6,0.6l0.2,1.1l1.5-0.3c-0.1,0.3-0.1,0.5-0.1,0.8v4.3H132.6z M128.4,127.9v-6.5h-1.8l-1.6,0.6l0.2,1.1
	l1.5-0.3c-0.1,0.3-0.1,0.5-0.1,0.8v4.3H128.4z"/>
<path class="st2" d="M149.7,115c0-0.2,0.1-0.4,0.4-0.4h1v0.6c-0.3,0.2-0.6,0.3-0.9,0.3c-0.3,0-0.5-0.1-0.5-0.4V115z M148.4,113.2
	c0.8,0,1.5-0.1,2-0.1c0.5,0,0.6,0.1,0.6,0.5v0.1h-1.6c-0.9,0-1.5,0.5-1.5,1.2v0.5c0,0.9,0.7,1.3,1.6,1.3c0.8,0,1.3-0.4,1.7-0.8
	l0.2,0.7h1.4v-3c0-1.4-0.7-1.8-2-1.8c-0.7,0-1.9,0.1-2.6,0.2L148.4,113.2z M147.7,113.3V112H143v1.3h1.5v3.4h1.7v-3.4H147.7z
	 M139.3,115c0-0.2,0.1-0.4,0.4-0.4h1v0.6c-0.3,0.2-0.6,0.3-0.9,0.3c-0.3,0-0.5-0.1-0.5-0.4V115z M138,113.2c0.8,0,1.5-0.1,2-0.1
	c0.5,0,0.6,0.1,0.6,0.5v0.1h-1.6c-0.9,0-1.5,0.5-1.5,1.2v0.5c0,0.9,0.7,1.3,1.6,1.3c0.8,0,1.3-0.4,1.7-0.8l0.2,0.7h1.4v-3
	c0-1.4-0.7-1.8-2-1.8c-0.7,0-1.9,0.1-2.6,0.2L138,113.2z M136.8,112h-1.7v1.6h-1.4V112h-1.7v4.7h1.7v-1.9h1.4v1.9h1.7V112z
	 M128.9,112c-0.4,0-0.6,0.2-0.6,0.5l-0.4,1.7c0,0.2-0.1,0.5-0.1,0.7h-0.1c0-0.2,0-0.5-0.1-0.7l-0.4-1.7c-0.1-0.3-0.3-0.5-0.6-0.5
	h-1.4c-0.4,0-0.6,0.2-0.6,0.6l-0.1,4.1h1.5l0.1-3.4h0.1l0.6,2.3c0.1,0.3,0.3,0.5,0.7,0.5h0.8c0.4,0,0.6-0.2,0.6-0.5l0.6-2.3h0.1
	l0.1,3.4h1.5l-0.1-4.1c0-0.4-0.2-0.6-0.6-0.6H128.9z M121.2,113c0.6,0,0.7,0.2,0.7,1.3c0,1-0.2,1.3-0.7,1.3c-0.6,0-0.7-0.2-0.7-1.3
	C120.4,113.3,120.6,113,121.2,113 M121.2,111.8c-1.8,0-2.5,0.7-2.5,2.5c0,1.8,0.7,2.4,2.5,2.4c1.8,0,2.5-0.6,2.5-2.4
	C123.7,112.5,123,111.8,121.2,111.8 M116.5,114.2c1.1-0.2,1-0.3,1.6-2.2h-1.7c-0.4,1.6-0.4,1.7-1.1,1.7h-0.2c0-0.2,0.1-0.4,0.1-0.6
	V112h-1.7v4.7h1.7v-1.5c0-0.1,0-0.2-0.1-0.4h0.4c0.5,0,0.5,0.1,1,1.9h1.8C117.6,114.4,117.6,114.4,116.5,114.2L116.5,114.2z"/>
<path class="st2" d="M146.6,102.8H146c-0.4,0-0.5-0.1-0.5-0.6c0-0.3,0.1-0.4,0.5-0.4h0.7V102.8z M144.8,103.4
	c-0.3,0-0.8,0.1-0.9,0.5l-0.4,1.5h1.7l0.3-1.3c0-0.2,0.1-0.3,0.4-0.3h0.6v1.5h1.7v-4.7c-0.6-0.1-1.1-0.1-2.4-0.1
	c-1.7,0-2.1,0.3-2.1,1.5C143.8,102.6,144,103.2,144.8,103.4L144.8,103.4z M139.8,103.7c0-0.2,0.1-0.4,0.4-0.4h1v0.6
	c-0.3,0.2-0.6,0.3-0.9,0.3c-0.3,0-0.5-0.1-0.5-0.4V103.7z M138.6,101.9c0.8,0,1.5-0.1,2-0.1c0.5,0,0.6,0.1,0.6,0.5v0.1h-1.6
	c-0.9,0-1.5,0.5-1.5,1.2v0.5c0,0.9,0.7,1.3,1.6,1.3c0.8,0,1.3-0.4,1.7-0.8l0.2,0.7h1.4v-3c0-1.4-0.7-1.8-2-1.8
	c-0.7,0-1.9,0.1-2.6,0.2L138.6,101.9z M137.4,100.7h-2.8c-0.8,0-1.2,0.4-1.3,1.2c-0.1,0.9-0.1,1.5-0.2,1.8c-0.1,0.4-0.4,0.4-0.8,0.4
	l0.2,1.3c1,0.2,2-0.1,2.1-1.2c0.1-0.5,0.2-1.2,0.3-2c0-0.3,0.2-0.4,0.4-0.4h0.4v3.5h1.7V100.7z M131.7,105.4v-4.7h-1.5l-1.5,2.2
	c-0.1,0.2-0.3,0.4-0.4,0.7h0c0-0.3,0.1-0.5,0.1-0.7v-2.2h-1.5v4.7h1.5l1.5-2.1c0.1-0.2,0.3-0.5,0.4-0.8h0c0,0.3-0.1,0.6-0.1,0.8v2.1
	H131.7z M124.1,101.9c1.3-0.2,1.3-0.8,2-3.1h-1.8c-0.6,1.9-0.7,2.5-1.3,2.5h-0.3c0-0.3,0.1-0.5,0.1-0.8v-1.7H121v1.7
	c0,0.3,0,0.5,0.1,0.8h-0.3c-0.6,0-0.7-0.6-1.3-2.5h-1.8c0.7,2.3,0.7,2.9,2,3.1v0.1c-1.3,0.2-1.4,0.7-2.2,3.4h1.8
	c0.7-2.4,0.8-2.8,1.4-2.8h0.3c0,0.2-0.1,0.4-0.1,0.6v2.2h1.7v-2.2c0-0.2,0-0.4-0.1-0.6h0.3c0.7,0,0.7,0.4,1.4,2.8h1.9
	C125.5,102.7,125.4,102.2,124.1,101.9L124.1,101.9z"/>
<path class="st2" d="M107,251.8l0.1,1.4h2.8c-0.2,0.2-0.2,0.5-0.3,0.7l-1.6,4.4h1.7l2-5.6c0.2-0.5-0.1-0.9-0.7-0.9H107z
	 M105.7,256.7c-0.5,0-0.6,0.1-0.6,0.6v0.4c0,0.5,0.1,0.6,0.6,0.6h0.4c0.5,0,0.6-0.1,0.6-0.6v-0.4c0-0.5-0.1-0.6-0.6-0.6H105.7z
	 M99.6,253.2c0.9,0,1.4,0,2,0c0.5,0,0.7,0,0.7,0.3c0,0.4-0.4,1-1.2,1.7l-1.5,1.5c-0.2,0.2-0.2,0.4-0.2,0.7v0.9h4.8v-1.5h-1.9
	c-0.3,0-0.6,0-0.9,0.1l1.6-1.6c0.9-0.9,1-1.3,1-2c0-1.3-0.9-1.6-2.3-1.6c-0.7,0-1.4,0-2.3,0.2L99.6,253.2z M98.4,258.3v-6.5h-1.8
	l-1.6,0.6l0.2,1.1l1.5-0.3c-0.1,0.3-0.1,0.5-0.1,0.8v4.3H98.4z"/>
<path class="st2" d="M120,245.4c0-0.2,0.1-0.4,0.4-0.4h1v0.6c-0.3,0.2-0.6,0.3-0.9,0.3c-0.3,0-0.5-0.1-0.5-0.4V245.4z M118.7,243.6
	c0.8,0,1.5-0.1,2-0.1c0.5,0,0.6,0.1,0.6,0.5v0.1h-1.6c-0.9,0-1.5,0.5-1.5,1.2v0.5c0,0.9,0.7,1.3,1.6,1.3c0.8,0,1.3-0.4,1.7-0.8
	l0.2,0.7h1.4v-3c0-1.4-0.7-1.8-2-1.8c-0.7,0-1.9,0.1-2.6,0.2L118.7,243.6z M117.9,243.6v-1.3h-4.7v1.3h1.5v3.4h1.7v-3.4H117.9z
	 M109.6,245.4c0-0.2,0.1-0.4,0.4-0.4h1v0.6c-0.3,0.2-0.6,0.3-0.9,0.3c-0.3,0-0.5-0.1-0.5-0.4V245.4z M108.3,243.6
	c0.8,0,1.5-0.1,2-0.1c0.5,0,0.6,0.1,0.6,0.5v0.1h-1.6c-0.9,0-1.5,0.5-1.5,1.2v0.5c0,0.9,0.7,1.3,1.6,1.3c0.8,0,1.3-0.4,1.7-0.8
	l0.2,0.7h1.4v-3c0-1.4-0.7-1.8-2-1.8c-0.7,0-1.9,0.1-2.6,0.2L108.3,243.6z M107.1,242.3h-1.7v1.6H104v-1.6h-1.7v4.7h1.7v-1.9h1.4
	v1.9h1.7V242.3z M99.2,242.3c-0.4,0-0.6,0.2-0.6,0.5l-0.4,1.7c0,0.2-0.1,0.5-0.1,0.7H98c0-0.2,0-0.5-0.1-0.7l-0.4-1.7
	c-0.1-0.3-0.3-0.5-0.6-0.5h-1.4c-0.4,0-0.6,0.2-0.6,0.6l-0.1,4.1h1.5l0.1-3.4h0.1l0.6,2.3c0.1,0.3,0.3,0.5,0.7,0.5h0.8
	c0.4,0,0.6-0.2,0.6-0.5l0.6-2.3h0.1l0.1,3.4h1.5l-0.1-4.1c0-0.4-0.2-0.6-0.6-0.6H99.2z M91.4,243.4c0.6,0,0.7,0.2,0.7,1.3
	c0,1-0.2,1.3-0.7,1.3c-0.6,0-0.7-0.2-0.7-1.3C90.7,243.7,90.9,243.4,91.4,243.4 M91.4,242.2c-1.8,0-2.5,0.7-2.5,2.5
	c0,1.8,0.7,2.4,2.5,2.4c1.8,0,2.5-0.6,2.5-2.4C94,242.9,93.3,242.2,91.4,242.2 M86.8,244.6c1.1-0.2,1-0.3,1.6-2.2h-1.7
	c-0.4,1.6-0.4,1.7-1.1,1.7h-0.2c0-0.2,0.1-0.4,0.1-0.6v-1.1h-1.7v4.7h1.7v-1.5c0-0.1,0-0.2-0.1-0.4h0.4c0.5,0,0.5,0.1,1,1.9h1.8
	C87.9,244.8,87.9,244.8,86.8,244.6L86.8,244.6z"/>
<path class="st2" d="M116.9,233.2h-0.7c-0.4,0-0.5-0.1-0.5-0.6c0-0.3,0.1-0.4,0.5-0.4h0.7V233.2z M115.1,233.7
	c-0.3,0-0.8,0.1-0.9,0.5l-0.4,1.5h1.7l0.3-1.3c0-0.2,0.1-0.3,0.4-0.3h0.6v1.5h1.7V231c-0.6-0.1-1.1-0.1-2.4-0.1
	c-1.7,0-2.1,0.3-2.1,1.5C114.1,233,114.3,233.6,115.1,233.7L115.1,233.7z M110.1,234.1c0-0.2,0.1-0.4,0.4-0.4h1v0.6
	c-0.3,0.2-0.6,0.3-0.9,0.3c-0.3,0-0.5-0.1-0.5-0.4V234.1z M108.8,232.3c0.8,0,1.5-0.1,2-0.1c0.5,0,0.6,0.1,0.6,0.5v0.1h-1.6
	c-0.9,0-1.5,0.5-1.5,1.2v0.5c0,0.9,0.7,1.3,1.6,1.3c0.8,0,1.3-0.4,1.7-0.8l0.2,0.7h1.4v-3c0-1.4-0.7-1.8-2-1.8
	c-0.7,0-1.9,0.1-2.6,0.2L108.8,232.3z M107.7,231.1h-2.8c-0.8,0-1.2,0.4-1.3,1.2c-0.1,0.9-0.1,1.5-0.2,1.8c-0.1,0.4-0.4,0.4-0.8,0.4
	l0.2,1.3c1,0.2,2-0.1,2.1-1.2c0.1-0.5,0.2-1.2,0.3-2c0-0.3,0.2-0.4,0.4-0.4h0.4v3.5h1.7V231.1z M101.9,235.7v-4.7h-1.5l-1.5,2.2
	c-0.1,0.2-0.3,0.4-0.4,0.7h0c0-0.3,0.1-0.5,0.1-0.7v-2.2h-1.5v4.7h1.5l1.5-2.1c0.1-0.2,0.3-0.5,0.4-0.8h0c0,0.3-0.1,0.6-0.1,0.8v2.1
	H101.9z M94.3,232.3c1.3-0.2,1.3-0.8,2-3.1h-1.8c-0.6,1.9-0.7,2.5-1.3,2.5h-0.3c0-0.3,0.1-0.5,0.1-0.8v-1.7h-1.7v1.7
	c0,0.3,0,0.5,0.1,0.8H91c-0.6,0-0.7-0.6-1.3-2.5h-1.8c0.7,2.3,0.7,2.9,2,3.1v0.1c-1.3,0.2-1.4,0.7-2.2,3.4h1.8
	c0.7-2.4,0.8-2.8,1.4-2.8h0.3c0,0.2-0.1,0.4-0.1,0.6v2.2H93v-2.2c0-0.2,0-0.4-0.1-0.6h0.3c0.7,0,0.7,0.4,1.4,2.8h1.9
	C95.7,233.1,95.7,232.6,94.3,232.3L94.3,232.3z"/>
<path class="st2" d="M134.9,342c0.5,0,1.1,0,1.8,0c0.7,0,0.8,0.1,0.8,0.6c0,0.4-0.1,0.7-0.8,0.7h-1.2v1.1l1.2,0
	c0.7,0,0.8,0.2,0.8,0.8c0,0.7-0.2,0.8-1.1,0.8c-0.6,0-1,0-1.8-0.1l-0.1,1.3c0.7,0.1,1.6,0.2,2.3,0.2c1.7,0,2.4-0.6,2.3-1.9
	c0-1-0.3-1.5-1.2-1.6v0c0.8-0.1,1-0.7,1-1.6c0-1.2-0.6-1.5-2.2-1.5c-0.7,0-1.4,0.1-2.2,0.2L134.9,342z M133,345.6
	c-0.5,0-0.6,0.1-0.6,0.6v0.4c0,0.5,0.1,0.6,0.6,0.6h0.4c0.5,0,0.6-0.1,0.6-0.6v-0.4c0-0.5-0.1-0.6-0.6-0.6H133z M126.9,342.1
	c0.9,0,1.4,0,2,0c0.5,0,0.7,0,0.7,0.3c0,0.4-0.4,1-1.2,1.7l-1.5,1.5c-0.2,0.2-0.2,0.4-0.2,0.7v0.9h4.8v-1.5h-1.9
	c-0.3,0-0.6,0-0.9,0.1l1.6-1.6c0.9-0.9,1-1.3,1-2c0-1.3-0.9-1.6-2.3-1.6c-0.7,0-1.4,0-2.3,0.2L126.9,342.1z M125.7,347.2v-6.5h-1.8
	l-1.6,0.6l0.2,1.1l1.5-0.3c-0.1,0.3-0.1,0.5-0.1,0.8v4.3H125.7z"/>
<path class="st2" d="M147.6,334.3c0-0.2,0.1-0.4,0.4-0.4h1v0.6c-0.3,0.2-0.6,0.3-0.9,0.3c-0.3,0-0.5-0.1-0.5-0.4V334.3z
	 M146.3,332.5c0.8,0,1.5-0.1,2-0.1c0.5,0,0.6,0.1,0.6,0.5v0.1h-1.6c-0.9,0-1.5,0.5-1.5,1.2v0.5c0,0.9,0.7,1.3,1.6,1.3
	c0.8,0,1.3-0.4,1.7-0.8l0.2,0.7h1.4v-3c0-1.4-0.7-1.8-2-1.8c-0.7,0-1.9,0.1-2.6,0.2L146.3,332.5z M145.6,332.6v-1.3h-4.7v1.3h1.5
	v3.4h1.7v-3.4H145.6z M137.2,334.3c0-0.2,0.1-0.4,0.4-0.4h1v0.6c-0.3,0.2-0.6,0.3-0.9,0.3c-0.3,0-0.5-0.1-0.5-0.4V334.3z
	 M135.9,332.5c0.8,0,1.5-0.1,2-0.1c0.5,0,0.6,0.1,0.6,0.5v0.1H137c-0.9,0-1.5,0.5-1.5,1.2v0.5c0,0.9,0.7,1.3,1.6,1.3
	c0.8,0,1.3-0.4,1.7-0.8l0.2,0.7h1.4v-3c0-1.4-0.7-1.8-2-1.8c-0.7,0-1.9,0.1-2.6,0.2L135.9,332.5z M134.8,331.3h-1.7v1.6h-1.4v-1.6
	H130v4.7h1.7V334h1.4v1.9h1.7V331.3z M126.9,331.3c-0.4,0-0.6,0.2-0.6,0.5l-0.4,1.7c0,0.2-0.1,0.5-0.1,0.7h-0.1c0-0.2,0-0.5-0.1-0.7
	l-0.4-1.7c-0.1-0.3-0.3-0.5-0.6-0.5H123c-0.4,0-0.6,0.2-0.6,0.6l-0.1,4.1h1.5l0.1-3.4h0.1l0.6,2.3c0.1,0.3,0.3,0.5,0.7,0.5h0.8
	c0.4,0,0.6-0.2,0.6-0.5l0.6-2.3h0.1l0.1,3.4h1.5l-0.1-4.1c0-0.4-0.2-0.6-0.6-0.6H126.9z M119.1,332.3c0.6,0,0.7,0.2,0.7,1.3
	c0,1-0.2,1.3-0.7,1.3c-0.6,0-0.7-0.2-0.7-1.3C118.3,332.6,118.5,332.3,119.1,332.3 M119.1,331.1c-1.8,0-2.5,0.7-2.5,2.5
	c0,1.8,0.7,2.4,2.5,2.4c1.8,0,2.5-0.6,2.5-2.4C121.6,331.8,120.9,331.1,119.1,331.1 M114.4,333.5c1.1-0.2,1-0.3,1.6-2.2h-1.7
	c-0.4,1.6-0.4,1.7-1.1,1.7H113c0-0.2,0.1-0.4,0.1-0.6v-1.1h-1.7v4.7h1.7v-1.5c0-0.1,0-0.2-0.1-0.4h0.4c0.5,0,0.5,0.1,1,1.9h1.8
	C115.5,333.7,115.5,333.7,114.4,333.5L114.4,333.5z"/>
<path class="st2" d="M144.6,322.1h-0.7c-0.4,0-0.5-0.1-0.5-0.6c0-0.3,0.1-0.4,0.5-0.4h0.7V322.1z M142.7,322.7
	c-0.3,0-0.8,0.1-0.9,0.5l-0.4,1.5h1.7l0.3-1.3c0-0.2,0.1-0.3,0.4-0.3h0.6v1.5h1.7v-4.7c-0.6-0.1-1.1-0.1-2.4-0.1
	c-1.7,0-2.1,0.3-2.1,1.5C141.7,321.9,141.9,322.5,142.7,322.7L142.7,322.7z M137.7,323c0-0.2,0.1-0.4,0.4-0.4h1v0.6
	c-0.3,0.2-0.6,0.3-0.9,0.3c-0.3,0-0.5-0.1-0.5-0.4V323z M136.5,321.2c0.8,0,1.5-0.1,2-0.1c0.5,0,0.6,0.1,0.6,0.5v0.1h-1.6
	c-0.9,0-1.5,0.5-1.5,1.2v0.5c0,0.9,0.7,1.3,1.6,1.3c0.8,0,1.3-0.4,1.7-0.8l0.2,0.7h1.4v-3c0-1.4-0.7-1.8-2-1.8
	c-0.7,0-1.9,0.1-2.6,0.2L136.5,321.2z M135.3,320h-2.8c-0.8,0-1.2,0.4-1.3,1.2c-0.1,0.9-0.1,1.5-0.2,1.8c-0.1,0.4-0.4,0.4-0.8,0.4
	l0.2,1.3c1,0.2,2-0.1,2.1-1.2c0.1-0.5,0.2-1.2,0.3-2c0-0.3,0.2-0.4,0.4-0.4h0.4v3.5h1.7V320z M129.6,324.7V320h-1.5l-1.5,2.2
	c-0.1,0.2-0.3,0.4-0.4,0.7h0c0-0.3,0.1-0.5,0.1-0.7V320h-1.5v4.7h1.5l1.5-2.1c0.1-0.2,0.3-0.5,0.4-0.8h0c0,0.3-0.1,0.6-0.1,0.8v2.1
	H129.6z M122,321.2c1.3-0.2,1.3-0.8,2-3.1h-1.8c-0.6,1.9-0.7,2.5-1.3,2.5h-0.3c0-0.3,0.1-0.5,0.1-0.8v-1.7h-1.7v1.7
	c0,0.3,0,0.5,0.1,0.8h-0.3c-0.6,0-0.7-0.6-1.3-2.5h-1.8c0.7,2.3,0.7,2.9,2,3.1v0.1c-1.3,0.2-1.4,0.7-2.2,3.4h1.8
	c0.7-2.4,0.8-2.8,1.4-2.8h0.3c0,0.2-0.1,0.4-0.1,0.6v2.2h1.7v-2.2c0-0.2,0-0.4-0.1-0.6h0.3c0.7,0,0.7,0.4,1.4,2.8h1.9
	C123.4,322,123.3,321.5,122,321.2L122,321.2z"/>
<path class="st2" d="M231.7,108.3l0.1-1.3h-4.1l-0.2,2.9c0,0.3,0.2,0.5,0.5,0.6l1,0.1c0.9,0.1,1.2,0.2,1.2,0.8
	c0,0.5-0.2,0.7-1.1,0.7c-0.5,0-1.1,0-1.7-0.1l-0.2,1.3c0.8,0.1,1.7,0.2,2.3,0.2c1.8,0,2.4-0.9,2.4-2.1c0-1-0.4-2-1.9-2.1l-1.1-0.1
	l0.1-0.9H231.7z M225.6,111.9c-0.5,0-0.6,0.1-0.6,0.6v0.4c0,0.5,0.1,0.6,0.6,0.6h0.4c0.5,0,0.6-0.1,0.6-0.6v-0.4
	c0-0.5-0.1-0.6-0.6-0.6H225.6z M221.5,108.2c0.7,0,0.9,0.3,0.9,2c0,1.7-0.2,2-0.9,2c-0.7,0-0.9-0.3-0.9-2
	C220.6,108.5,220.8,108.2,221.5,108.2 M221.5,106.9c-2,0-2.6,0.8-2.6,3.4c0,2.5,0.7,3.4,2.6,3.4c2,0,2.7-0.8,2.7-3.4
	C224.2,107.7,223.5,106.9,221.5,106.9 M217.8,113.5V107H216l-1.6,0.6l0.2,1.1l1.5-0.3c-0.1,0.3-0.1,0.5-0.1,0.8v4.3H217.8z"/>
<path class="st2" d="M235.3,99.7h-0.7c-0.4,0-0.5-0.1-0.5-0.6c0-0.3,0.1-0.4,0.5-0.4h0.7V99.7z M233.4,100.2c-0.3,0-0.8,0.1-0.9,0.5
	l-0.4,1.5h1.7l0.3-1.3c0-0.2,0.1-0.3,0.4-0.3h0.6v1.5h1.7v-4.7c-0.6-0.1-1.1-0.1-2.4-0.1c-1.7,0-2.1,0.3-2.1,1.5
	C232.4,99.5,232.7,100,233.4,100.2L233.4,100.2z M231.5,97.5h-1.7v1.6h-1.4v-1.6h-1.7v4.7h1.7v-1.9h1.4v1.9h1.7V97.5z M224.5,102.2
	h1.7l-1.4-2.4l1.3-2.3h-1.7l-0.9,1.7l-0.9-1.7h-1.7l1.3,2.3l-1.4,2.4h1.7l1-1.9L224.5,102.2z M220.7,97.5h-1.8l-0.7,2.8
	c0,0.2-0.1,0.5-0.2,0.8h-0.1c0-0.3-0.1-0.5-0.1-0.8l-0.7-2.8h-1.8l1.4,4.3c0.1,0.2,0.3,0.4,0.5,0.4h0.3c-0.1,0.2-0.3,0.5-0.5,0.6
	c-0.3,0.2-0.7,0.2-1.3,0.2l-0.1,1.1c0.7,0.1,1.4,0.1,1.9-0.1c0.7-0.3,1.3-0.7,1.6-1.8L220.7,97.5z M213,98.8c1.3-0.2,1.3-0.8,2-3.1
	h-1.8c-0.5,1.9-0.6,2.5-1.5,2.5h-0.3c0-0.3,0.1-0.5,0.1-0.8v-1.7h-1.8v6.5h1.8V100c0-0.2,0-0.4-0.1-0.6h0.3c0.9,0,1,0.4,1.6,2.8h1.8
	C214.4,99.6,214.3,99.1,213,98.8L213,98.8z"/>
<path class="st2" d="M123.2,218.7h-1.8v-6.1h-3l-0.6,2.3v3.8h-2.9c-0.3,0-0.6-0.2-0.4-0.6l3.2-8.4H114l-3.7,9.4
	c-0.5,1.2,0.3,2.3,1.6,2.3h5.9v3.1h3.7v-3.1h0l1.7-0.4V218.7z M106.6,220.9c-1,0-1.4,0.3-1.4,1.4v0.9c0,1,0.3,1.4,1.4,1.4h0.9
	c1,0,1.4-0.3,1.4-1.4v-0.9c0-1-0.3-1.4-1.4-1.4H106.6z M102.6,224.5v-14.8h-4l-3.8,1.5l0.5,2.6l3.4-0.8c-0.1,0.6-0.1,1.2-0.1,1.8
	v9.8H102.6z M83.4,209.7l0.2,3.2H90c-0.3,0.5-0.5,1.1-0.7,1.6l-3.6,10h4l4.5-12.9c0.4-1.1-0.3-2-1.5-2H83.4z"/>
<ellipse transform="matrix(0.9732 -0.2298 0.2298 0.9732 -41.568 28.9092)" class="st4" cx="103.4" cy="193" rx="13.2" ry="13.2"/>
<path class="st2" d="M109.4,192.7c2.2-0.3,2.3-1.3,3.5-5.3h-3.1c-0.9,3.4-1.1,4.4-2.7,4.4h-0.5c0.1-0.5,0.1-0.9,0.1-1.4v-3h-3v11.2
	h3v-3.8c0-0.3,0-0.7-0.1-1h0.6c1.6,0,1.7,0.7,2.8,4.8h3.2C111.8,194,111.7,193.2,109.4,192.7L109.4,192.7z M94.2,189.6
	c0.8,0,2,0,3.1,0c1.1,0,1.5,0.1,1.5,1.1c0,0.8-0.1,1.2-1.3,1.2h-2.1v2l2.1,0c1.2,0,1.5,0.4,1.5,1.3c0,1.1-0.4,1.4-1.9,1.4
	c-1,0-1.7,0-3.1-0.1l-0.1,2.2c1.3,0.2,2.7,0.3,4,0.3c3,0,4.1-1,4-3.4c0-1.7-0.5-2.6-2.1-2.8v-0.1c1.4-0.2,1.8-1.2,1.8-2.8
	c0-2-1-2.6-3.8-2.6c-1.2,0-2.5,0.1-3.8,0.3L94.2,189.6z"/>
<path class="st2" d="M205.5,251.8v-6.5h-1.8l-1.6,0.6l0.2,1.1l1.5-0.3c-0.1,0.3-0.1,0.5-0.1,0.8v4.3H205.5z M201,250.2
	c-0.5,0-0.6,0.1-0.6,0.6v0.4c0,0.5,0.1,0.6,0.6,0.6h0.4c0.5,0,0.6-0.1,0.6-0.6v-0.4c0-0.5-0.1-0.6-0.6-0.6H201z M195.2,246.6
	c0.5,0,1.1,0,1.8,0c0.7,0,0.8,0.1,0.8,0.6c0,0.4-0.1,0.7-0.8,0.7h-1.2v1.1l1.2,0c0.7,0,0.8,0.2,0.8,0.8c0,0.7-0.2,0.8-1.1,0.8
	c-0.6,0-1,0-1.8-0.1l-0.1,1.3c0.7,0.1,1.6,0.2,2.3,0.2c1.7,0,2.4-0.6,2.3-1.9c0-1-0.3-1.5-1.2-1.6v0c0.8-0.1,1-0.7,1-1.6
	c0-1.2-0.6-1.5-2.2-1.5c-0.7,0-1.4,0.1-2.2,0.2L195.2,246.6z M193.9,251.8v-6.5h-1.8l-1.6,0.6l0.2,1.1l1.5-0.3
	c-0.1,0.3-0.1,0.5-0.1,0.8v4.3H193.9z"/>
<path class="st2" d="M220.2,238h-0.7c-0.4,0-0.5-0.1-0.5-0.6c0-0.3,0.1-0.4,0.5-0.4h0.7V238z M218.4,238.6c-0.3,0-0.8,0.1-0.9,0.5
	l-0.4,1.5h1.8l0.3-1.3c0-0.2,0.1-0.3,0.4-0.3h0.6v1.5h1.7v-4.7c-0.6-0.1-1.1-0.1-2.4-0.1c-1.7,0-2.1,0.3-2.1,1.5
	C217.4,237.8,217.6,238.4,218.4,238.6L218.4,238.6z M213.4,238.9c0-0.2,0.1-0.4,0.4-0.4h1v0.6c-0.3,0.2-0.6,0.3-0.9,0.3
	c-0.3,0-0.5-0.1-0.5-0.4V238.9z M212.1,237.1c0.8,0,1.5-0.1,2-0.1c0.5,0,0.6,0.1,0.6,0.5v0.1h-1.6c-0.9,0-1.5,0.5-1.5,1.2v0.5
	c0,0.9,0.7,1.3,1.6,1.3c0.8,0,1.3-0.4,1.7-0.8l0.2,0.7h1.4v-3c0-1.4-0.7-1.8-2-1.8c-0.7,0-1.9,0.1-2.6,0.2L212.1,237.1z
	 M209.5,238.1c1.1-0.1,1.1-0.3,1.7-2.2h-1.7c-0.5,1.5-0.5,1.7-1,1.7h-0.3c0-0.2,0.1-0.4,0.1-0.6v-1.1h-1.5v1.1c0,0.2,0,0.4,0.1,0.6
	h-0.3c-0.5,0-0.5-0.2-1-1.7h-1.7c0.6,1.9,0.6,2.1,1.7,2.2v0c-1.1,0.2-1.1,0.2-1.8,2.4h1.7c0.6-1.8,0.6-1.9,1-1.9h0.4
	c0,0.1-0.1,0.3-0.1,0.4v1.5h1.5V239c0-0.1,0-0.3,0-0.4h0.3h0.1c0.4,0,0.5,0.1,1,1.9h1.7C210.7,238.4,210.6,238.3,209.5,238.1
	L209.5,238.1z M200.8,236.9c0.6,0,0.7,0.2,0.7,1.3c0,1-0.1,1.3-0.7,1.3c-0.6,0-0.7-0.2-0.7-1.3C200.1,237.2,200.2,236.9,200.8,236.9
	 M200.8,235.7c-1.8,0-2.5,0.7-2.5,2.5c0,1.8,0.7,2.4,2.5,2.4c1.8,0,2.5-0.6,2.5-2.4C203.3,236.4,202.6,235.7,200.8,235.7
	 M196.3,240.5h1.7l-1.4-2.4l1.3-2.3h-1.7l-0.9,1.8l-0.9-1.8h-1.7l1.3,2.3l-1.4,2.4h1.7l1-1.9L196.3,240.5z M192.1,240.5v-4.7h-1.5
	l-1.5,2.2c-0.1,0.2-0.3,0.4-0.4,0.7h0c0-0.3,0.1-0.5,0.1-0.7v-2.2h-1.5v4.7h1.5l1.5-2.1c0.1-0.2,0.3-0.5,0.4-0.8h0
	c0,0.3-0.1,0.6-0.1,0.8v2.1H192.1z M183.2,237.3c0.3-0.2,0.5-0.3,0.9-0.3c0.4,0,0.6,0.2,0.6,1.2c0,1.1-0.2,1.2-0.7,1.2
	c-0.3,0-0.6-0.1-0.8-0.2V237.3z M182.8,235.9h-1.4v6.4h1.7v-1c0-0.3,0-0.7,0-1c0.4,0.3,0.9,0.4,1.5,0.4c1.2,0,1.8-0.5,1.8-2.4
	c0-1.6-0.5-2.5-1.7-2.5c-0.7,0-1.5,0.3-1.8,0.8L182.8,235.9z M180.4,234h-5.4v6.5h1.8v-5.3h1.9v5.3h1.8V234z"/>
<path class="st2" d="M241.7,168.7c0-0.6,0.1-0.8,0.6-0.8c0.6,0,0.6,0.2,0.6,1.3c-0.2,0.1-0.4,0.2-0.6,0.2
	C241.8,169.4,241.7,169.3,241.7,168.7 M240.6,172c0.6,0.1,1.1,0.1,1.4,0.1c1.6,0,2.2-0.4,2.2-2.7c0-2-0.3-2.6-1.9-2.6
	c-1.5,0-1.9,0.6-1.9,1.9c0,0.9,0.3,1.6,1.4,1.6c0.5,0,0.8-0.1,1-0.3c0,0.9-0.2,1.1-0.9,1.1c-0.7,0-0.9,0-1.3,0L240.6,172z
	 M239.1,170.8c-0.4,0-0.5,0.1-0.5,0.5v0.3c0,0.4,0.1,0.5,0.5,0.5h0.3c0.4,0,0.5-0.1,0.5-0.5v-0.3c0-0.4-0.1-0.5-0.5-0.5H239.1z
	 M234.5,168c0.4,0,0.9,0,1.4,0c0.5,0,0.7,0.1,0.7,0.5c0,0.3,0,0.5-0.6,0.5h-1v0.9l1,0c0.5,0,0.7,0.2,0.7,0.6c0,0.5-0.2,0.6-0.8,0.6
	c-0.4,0-0.8,0-1.4,0l0,1c0.6,0.1,1.2,0.1,1.8,0.1c1.3,0,1.8-0.4,1.8-1.5c0-0.8-0.2-1.2-0.9-1.3v0c0.6-0.1,0.8-0.5,0.8-1.3
	c0-0.9-0.5-1.2-1.7-1.2c-0.6,0-1.1,0-1.7,0.1L234.5,168z"/>
<path class="st2" d="M251,161.3h-0.5c-0.3,0-0.4-0.1-0.4-0.5c0-0.3,0.1-0.3,0.4-0.3h0.5V161.3z M249.5,161.7c-0.2,0-0.6,0.1-0.7,0.4
	l-0.3,1.1h1.4l0.2-1c0-0.2,0.1-0.2,0.3-0.2h0.5v1.2h1.3v-3.7c-0.5-0.1-0.8-0.1-1.8-0.1c-1.3,0-1.7,0.3-1.7,1.2
	C248.7,161.2,248.9,161.6,249.5,161.7L249.5,161.7z M245.7,162c0-0.2,0.1-0.3,0.3-0.3h0.8v0.5c-0.2,0.2-0.5,0.2-0.7,0.2
	c-0.2,0-0.4-0.1-0.4-0.3V162z M244.7,160.6c0.6,0,1.2-0.1,1.6-0.1c0.4,0,0.5,0.1,0.5,0.4v0.1h-1.2c-0.7,0-1.2,0.4-1.2,0.9v0.4
	c0,0.7,0.5,1,1.2,1c0.6,0,1-0.3,1.3-0.6l0.1,0.5h1.1V161c0-1.1-0.5-1.4-1.5-1.4c-0.5,0-1.4,0.1-2,0.2L244.7,160.6z M243.7,159.6
	h-1.3v1.3h-1.1v-1.3H240v3.6h1.3v-1.5h1.1v1.5h1.3V159.6z M239.2,159.6h-1.3v1.3h-1.1v-1.3h-1.3v3.6h1.3v-1.5h1.1v1.5h1.3V159.6z
	 M232.4,162c0-0.2,0.1-0.3,0.3-0.3h0.8v0.5c-0.2,0.2-0.5,0.2-0.7,0.2c-0.2,0-0.4-0.1-0.4-0.3V162z M231.4,160.6
	c0.6,0,1.2-0.1,1.6-0.1c0.4,0,0.5,0.1,0.5,0.4v0.1h-1.2c-0.7,0-1.2,0.4-1.2,0.9v0.4c0,0.7,0.5,1,1.2,1c0.6,0,1-0.3,1.3-0.6l0.1,0.5
	h1.1V161c0-1.1-0.5-1.4-1.5-1.4c-0.5,0-1.4,0.1-2,0.2L231.4,160.6z M227.9,162.4v-1.3h0.7c0.5,0,0.7,0.1,0.7,0.7
	c0,0.5-0.1,0.6-0.6,0.6L227.9,162.4z M227.9,160.2v-1.1h0.6c0.5,0,0.6,0.1,0.6,0.5c0,0.5-0.1,0.6-0.6,0.6H227.9z M229.5,160.6
	c0.6-0.1,0.9-0.4,0.9-1.1c0-1-0.5-1.3-1.8-1.3c-0.9,0-1.4,0-2.1,0.1v5c0.7,0.1,1.3,0.1,2.3,0.1c1.2,0,1.8-0.3,1.8-1.3
	C230.6,161.2,230.3,160.7,229.5,160.6L229.5,160.6z"/>
<path class="st2" d="M256.1,198.5h-0.5v-1.9h-0.9l-0.2,0.7v1.2h-0.9c-0.1,0-0.2-0.1-0.1-0.2l1-2.6h-1.2l-1.1,2.9
	c-0.1,0.4,0.1,0.7,0.5,0.7h1.8v1h1.1v-1h0l0.5-0.1V198.5z M251,199.2c-0.3,0-0.4,0.1-0.4,0.4v0.3c0,0.3,0.1,0.4,0.4,0.4h0.3
	c0.3,0,0.4-0.1,0.4-0.4v-0.3c0-0.3-0.1-0.4-0.4-0.4H251z M246.7,196.8c0.6,0,1,0,1.4,0c0.3,0,0.5,0,0.5,0.2c0,0.3-0.3,0.7-0.8,1.2
	l-1,1.1c-0.1,0.1-0.2,0.3-0.2,0.5v0.6h3.4v-1.1h-1.3c-0.2,0-0.4,0-0.6,0.1l1.1-1.1c0.6-0.6,0.7-0.9,0.7-1.4c0-0.9-0.6-1.1-1.6-1.1
	c-0.5,0-1,0-1.6,0.2L246.7,196.8z M245,197.9V197h-3.3v0.9h1v2.4h1.2v-2.4H245z M239.3,198.4c0-0.5,0.2-0.6,0.6-0.6
	c0.3,0,0.4,0.1,0.4,0.3c0,0.2,0,0.3-0.3,0.3H239.3z M240.3,199c0.8,0,1.1-0.3,1.1-0.9c0-0.8-0.5-1.2-1.6-1.2c-1.3,0-1.8,0.5-1.8,1.7
	c0,1.2,0.5,1.7,1.8,1.7c0.5,0,1.1-0.1,1.5-0.3l-0.1-0.7c-0.5,0.1-1,0.1-1.3,0.1c-0.4,0-0.6-0.1-0.7-0.5H240.3z M237.5,197h-2
	c-0.6,0-0.9,0.3-0.9,0.8c0,0.6-0.1,1.1-0.2,1.3c-0.1,0.3-0.3,0.3-0.6,0.3l0.1,0.9c0.7,0.1,1.4,0,1.5-0.9c0.1-0.3,0.1-0.9,0.2-1.4
	c0-0.2,0.1-0.3,0.3-0.3h0.3v2.5h1.2V197z M231.4,199.2c0-0.2,0.1-0.3,0.3-0.3h0.7v0.4c-0.2,0.1-0.4,0.2-0.6,0.2
	c-0.2,0-0.3-0.1-0.3-0.3V199.2z M230.5,197.9c0.5,0,1.1,0,1.4,0c0.3,0,0.4,0.1,0.5,0.4v0.1h-1.1c-0.7,0-1,0.3-1,0.8v0.3
	c0,0.6,0.5,0.9,1.1,0.9c0.6,0,0.9-0.3,1.2-0.6l0.1,0.5h1v-2.1c0-1-0.5-1.3-1.4-1.3c-0.5,0-1.3,0.1-1.8,0.2L230.5,197.9z M230,197
	h-1.3l-0.5,1.9c0,0.2-0.1,0.4-0.1,0.6h-0.1c0-0.2-0.1-0.4-0.1-0.6l-0.5-1.9h-1.3l1,3c0.1,0.2,0.2,0.3,0.4,0.3h0.2
	c-0.1,0.2-0.2,0.3-0.3,0.4c-0.2,0.1-0.5,0.2-0.9,0.1l-0.1,0.8c0.5,0.1,1,0.1,1.4-0.1c0.5-0.2,0.9-0.5,1.1-1.3L230,197z M226.4,196.7
	v-1h-3.9v1h1.3v3.6h1.2v-3.6H226.4z"/>
<path class="st3" d="M298,84.1"/>
<path class="st3" d="M298.1,84.3"/>
<path class="st3" d="M298,159.9"/>
<path class="st3" d="M298,189.3"/>
<path class="st3" d="M298.1,189.3"/>
<path class="st3" d="M298.1,159.9"/>
<rect x="165.3" y="147" transform="matrix(0.5518 -0.834 0.834 0.5518 -57.3724 209.0759)" class="st3" width="1" height="21.8"/>
<path class="st5" d="M156.7,151.6c0,0-2.3,3.4-3.5,7.4c-1.1,3.6-0.8,7.6-0.8,7.6"/>
<rect x="179" y="157.4" transform="matrix(0.834 -0.5518 0.5518 0.834 -55.6002 131.0483)" class="st3" width="21.8" height="1"/>
<path class="st5" d="M199.1,151.6c0,0,2.3,3.4,3.5,7.4c1.1,3.6,0.8,7.6,0.8,7.6"/>
<rect x="161.2" y="53.2" class="st3" width="54.5" height="17"/>
<rect x="158.4" y="61.5" class="st3" width="57.3" height="1.6"/>
<rect x="218.2" y="64.1" transform="matrix(0.834 -0.5518 0.5518 0.834 2.3825 137.1524)" class="st3" width="21.8" height="1"/>
<path class="st5" d="M220,70.9c0,0-2.3-3.4-3.5-7.4c-1.1-3.6-0.8-7.6-0.8-7.6"/>
<rect x="197.4" y="172.3" transform="matrix(0.5 -0.8661 0.8661 0.5 -45.8316 266.2949)" class="st3" width="20.7" height="1"/>
<path class="st5" d="M201.8,181.4c0,0,1.8,1.6,5.7,3c3.5,1.3,7.4,1,7.4,1"/>
<rect x="205.8" y="193.9" transform="matrix(0.866 -0.5 0.5 0.866 -74.4601 130.5143)" class="st3" width="1" height="20.7"/>
<path class="st5" d="M200.4,195.6c0,0,1.8-1.6,5.7-3c3.5-1.3,7.4-1.2,7.4-1.2"/>
<rect x="139.1" y="236.1" transform="matrix(0.866 -0.5 0.5 0.866 -104.5147 102.7947)" class="st3" width="1" height="20.7"/>
<path class="st5" d="M133.7,237.9c0,0,1.8-1.6,5.7-3c3.5-1.3,7.4-0.5,7.4-0.5"/>
<rect x="151.1" y="279.6" transform="matrix(0.8661 -0.5 0.5 0.8661 -118.4231 118.2261)" class="st3" width="20.7" height="1"/>
<path class="st5" d="M152.9,286c0,0-1.6-1.8-3-5.7c-1.3-3.5-0.5-7.4-0.5-7.4"/>
<rect x="264.7" y="228" transform="matrix(0.866 -0.5 0.5 0.866 -84.0525 164.6303)" class="st3" width="1" height="22.4"/>
<path class="st5" d="M271.5,248.5c0,0-1.8,1.6-5.7,3c-3.5,1.3-7.4,0.5-7.4,0.5"/>
<path class="st5" d="M300.4,261.5"/>
<rect x="258.4" y="228.1" class="st2" width="3.4" height="2.6"/>
<rect x="258.4" y="252.1" class="st2" width="3.4" height="4.4"/>
<line class="st2" x1="250.8" y1="276.3" x2="246.8" y2="276.3"/>
<path class="st2" d="M277.4,117.8h-15.9v15.9h15.9V117.8z M277.7,134h-16.6v-16.6h16.6V134z"/>
<path class="st6" d="M277.4,117.8h-15.9v15.9h15.9V117.8z M277.7,134h-16.6v-16.6h16.6V134z"/>
<path class="st2" d="M263,131.3c0,0.4,0.3,0.7,0.7,0.7h8.3c0.4,0,0.7-0.3,0.7-0.7v-11.1c0-0.4-0.3-0.7-0.7-0.7h-8.3
	c-0.4,0-0.7,0.3-0.7,0.7V131.3z M273.1,120.2v11.1c0,0.6-0.5,1.1-1.1,1.1h-8.3c-0.6,0-1.1-0.5-1.1-1.1v-11.1c0-0.6,0.5-1.1,1.1-1.1
	h8.3C272.6,119.2,273.1,119.6,273.1,120.2"/>
<path class="st6" d="M263,131.3c0,0.4,0.3,0.7,0.7,0.7h8.3c0.4,0,0.7-0.3,0.7-0.7v-11.1c0-0.4-0.3-0.7-0.7-0.7h-8.3
	c-0.4,0-0.7,0.3-0.7,0.7V131.3z M273.1,120.2v11.1c0,0.6-0.5,1.1-1.1,1.1h-8.3c-0.6,0-1.1-0.5-1.1-1.1v-11.1c0-0.6,0.5-1.1,1.1-1.1
	h8.3C272.6,119.2,273.1,119.6,273.1,120.2z"/>
<path class="st2" d="M271.5,120.7h-7.3v10.1h7.3V120.7z M271.9,131.1h-8v-10.8h8V131.1z"/>
<path class="st6" d="M271.5,120.7h-7.3v10.1h7.3V120.7z M271.9,131.1h-8v-10.8h8V131.1z"/>
<path class="st2" d="M266.4,125.8c0,0.5,0.4,0.9,0.9,0.9c0.5,0,0.9-0.4,0.9-0.9c0-0.5-0.4-0.9-0.9-0.9
	C266.9,124.9,266.4,125.3,266.4,125.8 M268.6,125.8c0,0.7-0.6,1.3-1.3,1.3c-0.7,0-1.3-0.6-1.3-1.3c0-0.7,0.6-1.3,1.3-1.3
	C268.1,124.5,268.6,125.1,268.6,125.8"/>
<path class="st6" d="M266.4,125.8c0,0.5,0.4,0.9,0.9,0.9c0.5,0,0.9-0.4,0.9-0.9c0-0.5-0.4-0.9-0.9-0.9
	C266.9,124.9,266.4,125.3,266.4,125.8z M268.6,125.8c0,0.7-0.6,1.3-1.3,1.3c-0.7,0-1.3-0.6-1.3-1.3c0-0.7,0.6-1.3,1.3-1.3
	C268.1,124.5,268.6,125.1,268.6,125.8z"/>
<path class="st2" d="M240.8,204.7c-2.8,0-5.1,2.3-5.1,5.1v5.4c0,0.4,0.4,0.8,0.8,0.8h11.6c0.4,0,0.8-0.3,0.8-0.8v-5.4
	c0-2.8-2.3-5.1-5.1-5.1H240.8z M248.1,216.3h-11.6c-0.6,0-1.1-0.5-1.1-1.1v-5.4c0-3,2.4-5.4,5.4-5.4h2.9c3,0,5.4,2.4,5.4,5.4v5.4
	C249.2,215.8,248.7,216.3,248.1,216.3"/>
<path class="st7" d="M240.8,204.7c-2.8,0-5.1,2.3-5.1,5.1v5.4c0,0.4,0.4,0.8,0.8,0.8h11.6c0.4,0,0.8-0.3,0.8-0.8v-5.4
	c0-2.8-2.3-5.1-5.1-5.1H240.8z M248.1,216.3h-11.6c-0.6,0-1.1-0.5-1.1-1.1v-5.4c0-3,2.4-5.4,5.4-5.4h2.9c3,0,5.4,2.4,5.4,5.4v5.4
	C249.2,215.8,248.7,216.3,248.1,216.3z"/>
<path class="st2" d="M240.8,206c-2.1,0-3.8,1.7-3.8,3.8v3.2c0,0.4,0.3,0.7,0.7,0.7h9.2c0.4,0,0.7-0.3,0.7-0.7v-3.2
	c0-2.1-1.7-3.8-3.8-3.8H240.8z M246.9,213.9h-9.2c-0.5,0-1-0.4-1-1v-3.2c0-2.3,1.9-4.1,4.1-4.1h2.9c2.3,0,4.1,1.9,4.1,4.1v3.2
	C247.9,213.5,247.4,213.9,246.9,213.9"/>
<path class="st7" d="M240.8,206c-2.1,0-3.8,1.7-3.8,3.8v3.2c0,0.4,0.3,0.7,0.7,0.7h9.2c0.4,0,0.7-0.3,0.7-0.7v-3.2
	c0-2.1-1.7-3.8-3.8-3.8H240.8z M246.9,213.9h-9.2c-0.5,0-1-0.4-1-1v-3.2c0-2.3,1.9-4.1,4.1-4.1h2.9c2.3,0,4.1,1.9,4.1,4.1v3.2
	C247.9,213.5,247.4,213.9,246.9,213.9z"/>
<path class="st2" d="M242.3,208.7c-0.4,0-0.6,0.3-0.6,0.6s0.3,0.6,0.6,0.6c0.3,0,0.6-0.3,0.6-0.6S242.6,208.7,242.3,208.7
	 M242.3,210.2c-0.5,0-0.9-0.4-0.9-0.9s0.4-0.9,0.9-0.9c0.5,0,0.9,0.4,0.9,0.9S242.8,210.2,242.3,210.2"/>
<path class="st7" d="M242.3,208.7c-0.4,0-0.6,0.3-0.6,0.6s0.3,0.6,0.6,0.6c0.3,0,0.6-0.3,0.6-0.6S242.6,208.7,242.3,208.7z
	 M242.3,210.2c-0.5,0-0.9-0.4-0.9-0.9s0.4-0.9,0.9-0.9c0.5,0,0.9,0.4,0.9,0.9S242.8,210.2,242.3,210.2z"/>
<path class="st2" d="M247.9,173.8c-2.8,0-5.1,2.3-5.1,5.1v5.4c0,0.4,0.4,0.8,0.8,0.8h11.6c0.4,0,0.8-0.3,0.8-0.8V179
	c0-2.8-2.3-5.1-5.1-5.1H247.9z M255.2,185.5h-11.6c-0.6,0-1.1-0.5-1.1-1.1V179c0-3,2.4-5.4,5.4-5.4h2.9c3,0,5.4,2.4,5.4,5.4v5.4
	C256.2,185,255.8,185.5,255.2,185.5"/>
<path class="st7" d="M247.9,173.8c-2.8,0-5.1,2.3-5.1,5.1v5.4c0,0.4,0.4,0.8,0.8,0.8h11.6c0.4,0,0.8-0.3,0.8-0.8V179
	c0-2.8-2.3-5.1-5.1-5.1H247.9z M255.2,185.5h-11.6c-0.6,0-1.1-0.5-1.1-1.1V179c0-3,2.4-5.4,5.4-5.4h2.9c3,0,5.4,2.4,5.4,5.4v5.4
	C256.2,185,255.8,185.5,255.2,185.5z"/>
<path class="st2" d="M247.9,175.1c-2.1,0-3.8,1.7-3.8,3.8v3.2c0,0.4,0.3,0.7,0.7,0.7h9.2c0.4,0,0.7-0.3,0.7-0.7V179
	c0-2.1-1.7-3.8-3.8-3.8H247.9z M254,183.1h-9.2c-0.5,0-1-0.4-1-1V179c0-2.3,1.9-4.1,4.1-4.1h2.9c2.3,0,4.1,1.9,4.1,4.1v3.2
	C255,182.7,254.5,183.1,254,183.1"/>
<path class="st7" d="M247.9,175.1c-2.1,0-3.8,1.7-3.8,3.8v3.2c0,0.4,0.3,0.7,0.7,0.7h9.2c0.4,0,0.7-0.3,0.7-0.7V179
	c0-2.1-1.7-3.8-3.8-3.8H247.9z M254,183.1h-9.2c-0.5,0-1-0.4-1-1V179c0-2.3,1.9-4.1,4.1-4.1h2.9c2.3,0,4.1,1.9,4.1,4.1v3.2
	C255,182.7,254.5,183.1,254,183.1z"/>
<path class="st2" d="M249.4,177.8c-0.4,0-0.6,0.3-0.6,0.6s0.3,0.6,0.6,0.6c0.3,0,0.6-0.3,0.6-0.6S249.7,177.8,249.4,177.8
	 M249.4,179.4c-0.5,0-0.9-0.4-0.9-0.9s0.4-0.9,0.9-0.9c0.5,0,0.9,0.4,0.9,0.9S249.9,179.4,249.4,179.4"/>
<path class="st7" d="M249.4,177.8c-0.4,0-0.6,0.3-0.6,0.6s0.3,0.6,0.6,0.6c0.3,0,0.6-0.3,0.6-0.6S249.7,177.8,249.4,177.8z
	 M249.4,179.4c-0.5,0-0.9-0.4-0.9-0.9s0.4-0.9,0.9-0.9c0.5,0,0.9,0.4,0.9,0.9S249.9,179.4,249.4,179.4z"/>
<rect x="216.4" y="143" class="st8" width="15.5" height="13"/>
<path class="st8" d="M270.6,143.3c3,0,5.4,2.4,5.4,5.4v28.6c0,3-2.4,5.4-5.4,5.4h-5.5c-3,0-5.4-2.4-5.4-5.4v-28.6
	c0-3,2.4-5.4,5.4-5.4H270.6z"/>
<path class="st8" d="M269.1,146c3,0,5.4,2.4,5.4,5.4v23.1c0,3-2.4,5.4-5.4,5.4h-2.5c-3,0-5.4-2.4-5.4-5.4v-23.1c0-3,2.4-5.4,5.4-5.4
	H269.1z"/>
<path class="st8" d="M270.3,149.3c1.5,0,2.7,1.2,2.7,2.7v23.7c0,1.5-1.2,2.7-2.7,2.7h-4.9c-1.5,0-2.7-1.2-2.7-2.7V152
	c0-1.5,1.2-2.7,2.7-2.7H270.3z"/>
<path class="st8" d="M267.8,175.4c-0.4,0-0.7-0.3-0.7-0.7c0-0.4,0.3-0.7,0.7-0.7c0.4,0,0.7,0.3,0.7,0.7
	C268.5,175.1,268.2,175.4,267.8,175.4z"/>
<rect x="258.1" y="140.6" class="st3" width="19.4" height="44.6"/>
<path class="st2" d="M260.1,199.6c0-2.6,2.1-4.7,4.8-4.7h6.9c0.5,0,0.8,0.4,0.8,0.8v7.8c0,0.4-0.4,0.8-0.8,0.8h-6.9
	C262.3,204.3,260.1,202.2,260.1,199.6 M272.9,203.5v-7.8c0-0.6-0.5-1.1-1.1-1.1h-6.9c-2.8,0-5.1,2.3-5.1,5c0,2.8,2.3,5,5.1,5h6.9
	C272.4,204.7,272.9,204.1,272.9,203.5"/>
<path class="st9" d="M260.1,199.6c0-2.6,2.1-4.7,4.8-4.7h6.9c0.5,0,0.8,0.4,0.8,0.8v7.8c0,0.4-0.4,0.8-0.8,0.8h-6.9
	C262.3,204.3,260.1,202.2,260.1,199.6z M272.9,203.5v-7.8c0-0.6-0.5-1.1-1.1-1.1h-6.9c-2.8,0-5.1,2.3-5.1,5c0,2.8,2.3,5,5.1,5h6.9
	C272.4,204.7,272.9,204.1,272.9,203.5z"/>
<path class="st9" d="M270.3,196.2v6.8c0,0,0,0.1-0.1,0.1H265c-1.9,0-3.5-1.6-3.5-3.5c0-1.9,1.6-3.5,3.5-3.5L270.3,196.2
	C270.3,196.1,270.3,196.2,270.3,196.2z"/>
<path class="st2" d="M270.1,196.3v6.6H265c-1.8,0-3.3-1.5-3.3-3.3c0-1.8,1.5-3.3,3.3-3.3H270.1z M270.5,203v-6.8
	c0-0.1-0.1-0.2-0.2-0.2H265c-2,0-3.7,1.6-3.7,3.6c0,2,1.6,3.6,3.7,3.6h5.2C270.3,203.2,270.5,203.1,270.5,203"/>
<path class="st9" d="M270.1,196.3v6.6H265c-1.8,0-3.3-1.5-3.3-3.3c0-1.8,1.5-3.3,3.3-3.3H270.1z M270.5,203v-6.8
	c0-0.1-0.1-0.2-0.2-0.2H265c-2,0-3.7,1.6-3.7,3.6c0,2,1.6,3.6,3.7,3.6h5.2C270.3,203.2,270.5,203.1,270.5,203z"/>
<path class="st2" d="M265,199.6c0-0.5,0.4-0.9,0.9-0.9c0.5,0,0.9,0.4,0.9,0.9c0,0.5-0.4,0.9-0.9,0.9
	C265.4,200.5,265,200.1,265,199.6 M267.1,199.6c0-0.7-0.5-1.2-1.2-1.2c-0.7,0-1.2,0.5-1.2,1.2c0,0.7,0.5,1.2,1.2,1.2
	C266.6,200.8,267.1,200.3,267.1,199.6"/>
<path class="st9" d="M265,199.6c0-0.5,0.4-0.9,0.9-0.9c0.5,0,0.9,0.4,0.9,0.9c0,0.5-0.4,0.9-0.9,0.9
	C265.4,200.5,265,200.1,265,199.6z M267.1,199.6c0-0.7-0.5-1.2-1.2-1.2c-0.7,0-1.2,0.5-1.2,1.2c0,0.7,0.5,1.2,1.2,1.2
	C266.6,200.8,267.1,200.3,267.1,199.6z"/>
<polygon class="st2" points="269.6,197 269.4,196.7 267.3,198.3 267.5,198.6 "/>
<polygon class="st9" points="269.6,197 269.4,196.7 267.3,198.3 267.5,198.6 "/>
<polygon class="st2" points="269.6,202.2 267.5,200.6 267.3,200.9 269.4,202.4 "/>
<polygon class="st9" points="269.6,202.2 267.5,200.6 267.3,200.9 269.4,202.4 "/>
<path class="st2" d="M273,196.3c0-0.7,0.6-1.3,1.3-1.3h1.8c0.7,0,1.3,0.6,1.3,1.3v6.5c0,0.7-0.6,1.3-1.3,1.3h-1.8
	c-0.7,0-1.3-0.6-1.3-1.3V196.3z M277.7,202.9v-6.5c0-0.9-0.7-1.6-1.6-1.6h-1.8c-0.9,0-1.6,0.7-1.6,1.6v6.5c0,0.9,0.7,1.6,1.6,1.6
	h1.8C277,204.5,277.7,203.8,277.7,202.9"/>
<path class="st9" d="M273,196.3c0-0.7,0.6-1.3,1.3-1.3h1.8c0.7,0,1.3,0.6,1.3,1.3v6.5c0,0.7-0.6,1.3-1.3,1.3h-1.8
	c-0.7,0-1.3-0.6-1.3-1.3V196.3z M277.7,202.9v-6.5c0-0.9-0.7-1.6-1.6-1.6h-1.8c-0.9,0-1.6,0.7-1.6,1.6v6.5c0,0.9,0.7,1.6,1.6,1.6
	h1.8C277,204.5,277.7,203.8,277.7,202.9z"/>
<path class="st2" d="M274.7,199.6c0-0.3,0.2-0.5,0.5-0.5s0.5,0.2,0.5,0.5c0,0.3-0.2,0.5-0.5,0.5S274.7,199.9,274.7,199.6 M276,199.6
	c0-0.4-0.4-0.8-0.8-0.8s-0.8,0.4-0.8,0.8c0,0.4,0.4,0.8,0.8,0.8S276,200.1,276,199.6"/>
<path class="st9" d="M274.7,199.6c0-0.3,0.2-0.5,0.5-0.5s0.5,0.2,0.5,0.5c0,0.3-0.2,0.5-0.5,0.5S274.7,199.9,274.7,199.6z
	 M276,199.6c0-0.4-0.4-0.8-0.8-0.8s-0.8,0.4-0.8,0.8c0,0.4,0.4,0.8,0.8,0.8S276,200.1,276,199.6z"/>
<rect x="45.4" y="289" class="st2" width="4.1" height="105.1"/>
<rect x="45.4" y="390" class="st2" width="30.7" height="4.1"/>
<rect x="73.7" y="336.3" transform="matrix(0.5518 -0.834 0.834 0.5518 -242.9664 221.484)" class="st3" width="21.8" height="1"/>
<path class="st5" d="M90.9,327.7c0,0-3.4-2.3-7.4-3.5c-3.6-1.1-7.6-0.8-7.6-0.8"/>
<rect x="125.2" y="26.2" class="st2" width="142.7" height="3.1"/>
<rect x="94.1" y="21.2" class="st2" width="34.3" height="3.1"/>
<rect x="77.9" y="26.2" class="st2" width="19.1" height="3.1"/>
<rect x="77.9" y="26.2" class="st2" width="3.1" height="28.1"/>
<rect x="125.2" y="21.2" class="st2" width="3.1" height="8.1"/>
<rect x="94.1" y="21.2" class="st2" width="3.1" height="8.1"/>
<path class="st3" d="M282.5,223.6"/>
<path class="st3" d="M285.3,222.2"/>
<path class="st2" d="M227,142.7h-9.4v-5.7h9.4V142.7z M216.3,142.7h-3.7v-5.7h3.7V142.7z M228.7,135.6h-18.4v8.6h18.4V135.6z"/>
<path class="st2" d="M217.7,142.7h9.4v-5.7h-9.4V142.7z M228.4,142.7h3.7v-5.7h-3.7V142.7z M215.9,135.6h18.4v8.6h-18.4V135.6z"/>
<path class="st2" d="M250.4,142.7h-9.4v-5.7h9.4V142.7z M239.7,142.7H236v-5.7h3.7V142.7z M252.2,135.6h-18.4v8.6h18.4V135.6z"/>
<path class="st2" d="M241.2,142.7h9.4v-5.7h-9.4V142.7z M251.9,142.7h3.7v-5.7h-3.7V142.7z M239.4,135.6h18.4v8.6h-18.4V135.6z"/>
<path class="st2" d="M212.1,219.6h9.4v-5.7h-9.4V219.6z M222.8,219.6h3.7v-5.7h-3.7V219.6z M210.3,212.4h18.4v8.6h-18.4V212.4z"/>
<rect x="228.2" y="216.4" class="st2" width="31.5" height="4.7"/>
<path class="st2" d="M199.9,40.8c0.7,0,0.9,0.2,0.9,0.8c0,0.6-0.1,0.8-0.9,0.8c-0.7,0-0.9-0.2-0.9-0.8
	C198.9,41,199.1,40.8,199.9,40.8 M199.8,38.2c0.6,0,0.8,0.1,0.8,0.8c0,0.6-0.1,0.7-0.8,0.7c-0.7,0-0.8-0.1-0.8-0.7
	C199,38.3,199.2,38.2,199.8,38.2 M198.4,40.3c-0.9,0.1-1.2,0.9-1.2,1.7c0,1.3,0.5,1.8,2.5,1.7c2.1,0,2.5-0.5,2.5-1.7
	c0-0.9-0.2-1.6-1.1-1.7v0c0.7-0.1,1-0.8,1-1.5c0-1.2-0.4-1.7-2.4-1.7c-2,0-2.4,0.5-2.4,1.7C197.5,39.4,197.7,40.1,198.4,40.3
	L198.4,40.3z M195.5,42c-0.5,0-0.6,0.1-0.6,0.6V43c0,0.5,0.1,0.6,0.6,0.6h0.4c0.5,0,0.6-0.1,0.6-0.6v-0.4c0-0.5-0.1-0.6-0.6-0.6
	H195.5z M191.8,42.4c-0.8,0-0.8-0.2-0.8-1.7c0.3-0.2,0.5-0.2,0.8-0.2c0.6,0,0.8,0.2,0.8,0.9C192.5,42.1,192.5,42.4,191.8,42.4
	 M193.8,37.2c-0.7-0.2-1.3-0.2-1.7-0.2c-1.9,0-2.8,0.5-2.8,3.4c0,2.6,0.6,3.3,2.5,3.3c2,0,2.4-0.8,2.4-2.4c0-1.4-0.4-2-1.9-2
	c-0.6,0-1,0.1-1.3,0.4c0-1.2,0.3-1.4,1.1-1.4c0.8,0,1.1,0,1.6,0L193.8,37.2z M184.7,41H184c-0.4,0-0.5-0.1-0.5-0.6
	c0-0.3,0.1-0.4,0.5-0.4h0.7V41z M182.9,41.6c-0.3,0-0.8,0.1-0.9,0.5l-0.4,1.5h1.7l0.3-1.3c0-0.2,0.1-0.3,0.4-0.3h0.6v1.5h1.7v-4.7
	c-0.6-0.1-1.1-0.1-2.4-0.1c-1.7,0-2.1,0.3-2.1,1.5C181.8,40.9,182.1,41.4,182.9,41.6L182.9,41.6z M180.9,43.6v-4.7h-1.5l-1.5,2.2
	c-0.1,0.2-0.3,0.4-0.4,0.7h0c0-0.3,0.1-0.5,0.1-0.7v-2.2h-1.5v4.7h1.5l1.5-2.1c0.1-0.2,0.3-0.5,0.4-0.8h0c0,0.3-0.1,0.6-0.1,0.8v2.1
	H180.9z M173.7,41.1c1.1-0.1,1.1-0.3,1.7-2.2h-1.7c-0.5,1.5-0.5,1.7-1,1.7h-0.3c0-0.2,0.1-0.4,0.1-0.6v-1.1h-1.5V40
	c0,0.2,0,0.4,0.1,0.6h-0.3c-0.5,0-0.5-0.2-1-1.7H168c0.6,1.9,0.6,2.1,1.7,2.2v0c-1.1,0.2-1.1,0.2-1.8,2.4h1.7c0.6-1.8,0.6-1.9,1-1.9
	h0.4c0,0.1-0.1,0.3-0.1,0.4v1.5h1.5v-1.5c0-0.1,0-0.3,0-0.4h0.3h0.1c0.4,0,0.5,0.1,1,1.9h1.7C174.8,41.4,174.8,41.3,173.7,41.1
	L173.7,41.1z M165.1,42.5h-1.4c0.2-0.5,0.4-1.2,0.5-2.1c0-0.3,0.2-0.4,0.4-0.4h0.4V42.5z M167.5,42.5h-0.8v-3.5h-2.6
	c-0.8,0-1.3,0.4-1.4,1.1c-0.1,0.8-0.3,1.6-0.6,2.4h-0.6v2.4h1.1l0.1-1.3h3.3l0.1,1.3h1.1V42.5z M158.8,40c0.6,0,0.7,0.2,0.7,1.3
	c0,1-0.2,1.3-0.7,1.3c-0.6,0-0.7-0.2-0.7-1.3C158.1,40.2,158.2,40,158.8,40 M158.8,38.8c-1.8,0-2.5,0.7-2.5,2.5
	c0,1.8,0.7,2.4,2.5,2.4c1.8,0,2.5-0.6,2.5-2.4C161.3,39.5,160.7,38.8,158.8,38.8 M155.4,37.1h-3c-1,0-1.6,0.5-1.6,1.5
	c-0.1,1.5-0.2,2.4-0.4,3c-0.2,0.5-0.5,0.6-0.9,0.6l0.1,1.4c1.1,0.2,2-0.2,2.4-1.5c0.3-0.8,0.4-2,0.5-3.3c0-0.3,0.2-0.5,0.5-0.5h0.6
	v5.3h1.8V37.1z"/>
<path class="st2" d="M66.3,338.1c0.7,0,0.9,0.2,0.9,0.8c0,0.6-0.2,0.8-0.9,0.8c-0.7,0-0.9-0.2-0.9-0.8
	C65.3,338.3,65.5,338.1,66.3,338.1 M66.2,335.5c0.6,0,0.8,0.1,0.8,0.8c0,0.6-0.1,0.7-0.8,0.7c-0.7,0-0.8-0.1-0.8-0.7
	C65.4,335.6,65.6,335.5,66.2,335.5 M64.8,337.6c-0.9,0.1-1.2,0.9-1.2,1.7c0,1.3,0.5,1.8,2.5,1.7c2.1,0,2.5-0.5,2.5-1.7
	c0-0.9-0.2-1.6-1.1-1.7v0c0.7-0.1,1-0.8,1-1.5c0-1.2-0.4-1.7-2.4-1.7c-2,0-2.4,0.5-2.4,1.7C63.9,336.7,64.1,337.4,64.8,337.6
	L64.8,337.6z M61.9,339.3c-0.5,0-0.6,0.1-0.6,0.6v0.4c0,0.5,0.1,0.6,0.6,0.6h0.4c0.5,0,0.6-0.1,0.6-0.6v-0.4c0-0.5-0.1-0.6-0.6-0.6
	H61.9z M56,335.7c0.5,0,1.1,0,1.8,0c0.7,0,0.8,0.1,0.8,0.6c0,0.4-0.1,0.7-0.8,0.7h-1.2v1.1l1.2,0c0.7,0,0.8,0.2,0.8,0.8
	c0,0.7-0.2,0.8-1.1,0.8c-0.6,0-1,0-1.8-0.1l-0.1,1.3c0.7,0.1,1.6,0.2,2.3,0.2c1.7,0,2.4-0.6,2.3-1.9c0-1-0.3-1.5-1.2-1.6v0
	c0.8-0.1,1-0.7,1-1.6c0-1.2-0.6-1.5-2.2-1.5c-0.7,0-1.4,0.1-2.2,0.2L56,335.7z"/>
</svg>
