<svg xmlns="http://www.w3.org/2000/svg" xmlns:xlink="http://www.w3.org/1999/xlink" xml:space="preserve" id="Слой_1" x="0" y="0" style="enable-background:new 0 0 206.6 218.3" version="1.1" viewBox="0 0 206.6 218.3"><style>.st1{fill:#1a1a1a}.st10,.st17,.st6{fill:none;stroke:#1a1a1a}.st10,.st17{stroke-width:.6}.st17{clip-path:url(#SVGID_26_)}.st18,.st19{clip-path:url(#SVGID_28_);fill:#1a1a1a}.st19{fill:none;stroke:#1a1a1a;stroke-width:.25}.st20{fill:#1a1a1a}.st20,.st21{clip-path:url(#SVGID_30_)}.st21,.st22{fill:none;stroke:#1a1a1a;stroke-width:.25}.st23,.st24{clip-path:url(#SVGID_32_);fill:#1a1a1a}.st24{fill:none;stroke:#1a1a1a;stroke-width:.25}.st30{fill:#1a1a1a;clip-path:url(#SVGID_40_)}</style><path d="M6.3 8.5h194.5v148.1H6.3z" style="fill:#aee0d5"/><path d="M4.2 3.4h112V8H4.2z" class="st1"/><defs><path id="SVGID_1_" d="M3 2.9h201v212.4H3z"/></defs><clipPath id="SVGID_2_"><use xlink:href="#SVGID_1_" style="overflow:visible"/></clipPath><path d="M4.2 3.4h112V8H4.2z" style="clip-path:url(#SVGID_2_);fill:none;stroke:#1a1a1a"/><path d="M142.4 3.4h61.1V8h-61.1z" class="st1"/><defs><path id="SVGID_3_" d="M3 2.9h201v212.4H3z"/></defs><clipPath id="SVGID_4_"><use xlink:href="#SVGID_3_" style="overflow:visible"/></clipPath><path d="M142.4 3.4h61.1V8h-61.1z" style="clip-path:url(#SVGID_4_);fill:none;stroke:#1a1a1a"/><path d="M3.5 3.4h4.6v197.5H3.5z" class="st1"/><defs><path id="SVGID_5_" d="M3 2.9h201v212.4H3z"/></defs><clipPath id="SVGID_6_"><use xlink:href="#SVGID_5_" style="overflow:visible"/></clipPath><path d="M3.5 3.4h4.6v197.5H3.5z" style="clip-path:url(#SVGID_6_);fill:none;stroke:#1a1a1a"/><path d="M100.9 3.4h4.6v20.7h-4.6z" class="st1"/><defs><path id="SVGID_7_" d="M3 2.9h201v212.4H3z"/></defs><clipPath id="SVGID_8_"><use xlink:href="#SVGID_7_" style="overflow:visible"/></clipPath><path d="M100.9 3.4h4.6v20.7h-4.6z" style="clip-path:url(#SVGID_8_);fill:none;stroke:#1a1a1a"/><path d="M100.9 49.3h4.6v113h-4.6z" class="st1"/><path d="M100.9 49.3h4.6v113h-4.6z" class="st6"/><path d="M100.9 187.9h4.6v26.9h-4.6z" class="st1"/><defs><path id="SVGID_9_" d="M3 2.9h201v212.4H3z"/></defs><clipPath id="SVGID_10_"><use xlink:href="#SVGID_9_" style="overflow:visible"/></clipPath><path d="M100.9 187.9h4.6v26.9h-4.6z" style="clip-path:url(#SVGID_10_);fill:none;stroke:#1a1a1a"/><path d="M198.9 5.5h4.6v209.3h-4.6z" class="st1"/><defs><path id="SVGID_11_" d="M3 2.9h201v212.4H3z"/></defs><clipPath id="SVGID_12_"><use xlink:href="#SVGID_11_" style="overflow:visible"/></clipPath><path d="M198.9 5.5h4.6v209.3h-4.6z" style="clip-path:url(#SVGID_12_);fill:none;stroke:#1a1a1a"/><path d="M103.2 82.2h14.1v2.5h-14.1z" class="st1"/><path d="M103.2 82.2h14.1v2.5h-14.1z" class="st6"/><path d="M139.2 82.2h10.6v2.5h-10.6z" class="st1"/><path d="M139.2 82.2h10.6v2.5h-10.6z" class="st6"/><path d="M148.4 72.4h2.5v18.8h-2.5z" class="st1"/><path d="M148.4 72.4h2.5v18.8h-2.5z" class="st6"/><path d="M148.4 32.4h2.5v23.7h-2.5z" class="st1"/><path d="M148.4 32.4h2.5v23.7h-2.5z" class="st6"/><path d="M149.9 88.8h50.3v2.5h-50.3z" class="st1"/><path d="M149.9 88.8h50.3v2.5h-50.3z" class="st6"/><path d="M148.4 32h50.3v2.5h-50.3z" class="st1"/><path d="M148.4 32h50.3v2.5h-50.3z" class="st6"/><path d="M104.7 168.5h28.2v-2.3h-2.8V157h-25.4z" class="st1"/><path d="M104.7 168.5h28.2v-2.3h-2.8V157h-25.4z" class="st6"/><path d="M4.4 168.5h22.8v-2.3h-2.9V157H4.4z" class="st1"/><defs><path id="SVGID_13_" d="M3 2.9h201v212.4H3z"/></defs><clipPath id="SVGID_14_"><use xlink:href="#SVGID_13_" style="overflow:visible"/></clipPath><path d="M4.4 168.5h22.8v-2.3h-2.9V157H4.4z" style="clip-path:url(#SVGID_14_);fill:none;stroke:#1a1a1a"/><path d="M200.7 168.5h-28.2v-2.3h2.9V157h25.3z" class="st1"/><path d="M200.7 168.5h-28.2v-2.3h2.9V157h25.3z" class="st6"/><path d="M109.3 168.5H81.1v-2.3h2.8V157h25.4z" class="st1"/><path d="M109.3 168.5H81.1v-2.3h2.8V157h25.4z" class="st6"/><path d="m65.582 155.762.46-.773 18.564 11.044-.46.773zM21.6 166h43.1v2.7H21.6zm-1.2-9.2h41.9v9.2H20.4z" class="st10"/><defs><path id="SVGID_15_" d="M3 2.9h201v212.4H3z"/></defs><clipPath id="SVGID_16_"><use xlink:href="#SVGID_15_" style="overflow:visible"/></clipPath><path d="M65.5 155.9s-1.1 1.5-1.6 4.9c-.5 3.4-.4 5.2-.4 5.2" style="clip-path:url(#SVGID_16_);fill:none;stroke:#1a1a1a;stroke-width:.4"/><path d="m157.86 155.726.46-.774 18.564 11.044-.46.774zM113.9 166H157v2.7h-43.1zm-1.2-9.2h41.9v9.2h-41.9z" class="st10"/><defs><path id="SVGID_17_" d="M3 2.9h201v212.4H3z"/></defs><clipPath id="SVGID_18_"><use xlink:href="#SVGID_17_" style="overflow:visible"/></clipPath><path d="M157.7 155.9s-1.1 1.5-1.6 4.9c-.5 3.4-.4 5.2-.4 5.2" style="clip-path:url(#SVGID_18_);fill:none;stroke:#1a1a1a;stroke-width:.4"/><path d="m90.9 46.4-1.1-.6 13.8-23.1 1.1.7z" class="st10"/><defs><path id="SVGID_19_" d="M3 2.9h201v212.4H3z"/></defs><clipPath id="SVGID_20_"><use xlink:href="#SVGID_19_" style="overflow:visible"/></clipPath><path d="M91 46.5s2.1 1.3 6.8 2.1c4.6.8 7.1.5 7.1.5" style="clip-path:url(#SVGID_20_);fill:none;stroke:#1a1a1a;stroke-width:.4"/><path d="m136 96.2-.7 1.1-23-13.8.7-1z" class="st10"/><defs><path id="SVGID_21_" d="M3 2.9h201v212.4H3z"/></defs><clipPath id="SVGID_22_"><use xlink:href="#SVGID_21_" style="overflow:visible"/></clipPath><path d="M136.1 96.1s1.3-2.1 2.1-6.8c.8-4.6.5-7.6.5-7.6" style="clip-path:url(#SVGID_22_);fill:none;stroke:#1a1a1a;stroke-width:.4"/><path d="m119.1 20.7.7 1.1 25.6-15.3-.7-1.1z" class="st10"/><defs><path id="SVGID_23_" d="M3 2.9h201v212.4H3z"/></defs><clipPath id="SVGID_24_"><use xlink:href="#SVGID_23_" style="overflow:visible"/></clipPath><path d="M119 20.6s-1.4-2.2-2.1-6.9c-.8-4.7-.5-7.8-.5-7.8" style="clip-path:url(#SVGID_24_);fill:none;stroke:#1a1a1a;stroke-width:.4"/><path d="m141.4 58.9-1.1.7 8.4 13.8 1.1-.6z" class="st10"/><defs><path id="SVGID_25_" d="M3 2.9h201v212.4H3z"/></defs><clipPath id="SVGID_26_"><use xlink:href="#SVGID_25_" style="overflow:visible"/></clipPath><path d="M140 59.5s1.6-1.5 5.3-2.5c3.7-1 6-.8 6-.8" style="clip-path:url(#SVGID_26_);fill:none;stroke:#1a1a1a;stroke-width:.4"/><path d="M152.6 40.8s0-5.5 5.5-5.5h33s5.5 0 5.5 5.5v7.4s0 5.5-5.5 5.5h-33s-5.5 0-5.5-5.5v-7.4z" class="st17"/><path d="M155.6 42.5s0-5.5 5.5-5.5H188s5.5 0 5.5 5.5v3.9s0 5.5-5.5 5.5h-26.8s-5.5 0-5.5-5.5v-3.9z" class="st17"/><path d="M159.3 41.4s0-2.8 2.8-2.8h27s2.8 0 2.8 2.8v6.2s0 2.8-2.8 2.8h-27s-2.8 0-2.8-2.8v-6.2z" class="st17"/><path d="M188.5 44.5c0 .5-.4.8-.8.8-.5 0-.8-.4-.8-.8 0-.5.4-.8.8-.8s.8.4.8.8z" class="st17"/><path d="M150.9 54.8h47.5" class="st10"/><defs><path id="SVGID_27_" d="M3 2.9h201v212.4H3z"/></defs><clipPath id="SVGID_28_"><use xlink:href="#SVGID_27_" style="overflow:visible"/></clipPath><path d="M186.3 64.2c0 2.9 2.4 5.3 5.3 5.3h5.6c.4 0 .8-.4.8-.8V56.8c0-.4-.4-.8-.8-.8h-5.6c-2.9 0-5.3 2.4-5.3 5.3v2.9zm12-7.4v11.9c0 .6-.5 1.1-1.1 1.1h-5.6c-3.1 0-5.6-2.5-5.6-5.6v-3c0-3.1 2.5-5.6 5.6-5.6h5.6c.6.1 1.1.6 1.1 1.2" class="st18"/><path d="M186.3 64.2c0 2.9 2.4 5.3 5.3 5.3h5.6c.4 0 .8-.4.8-.8V56.8c0-.4-.4-.8-.8-.8h-5.6c-2.9 0-5.3 2.4-5.3 5.3v2.9zm12-7.4v11.9c0 .6-.5 1.1-1.1 1.1h-5.6c-3.1 0-5.6-2.5-5.6-5.6v-3c0-3.1 2.5-5.6 5.6-5.6h5.6c.6.1 1.1.6 1.1 1.2z" class="st19"/><path d="M187.6 64.2c0 2.2 1.8 4 4 4h3.3c.4 0 .7-.3.7-.7V58c0-.4-.3-.7-.7-.7h-3.3c-2.2 0-4 1.8-4 4v2.9zm8.2-6.2v9.5c0 .5-.4 1-1 1h-3.3c-2.3 0-4.3-1.9-4.3-4.2v-3c0-2.3 1.9-4.3 4.3-4.3h3.3c.6 0 1 .4 1 1" class="st18"/><path d="M187.6 64.2c0 2.2 1.8 4 4 4h3.3c.4 0 .7-.3.7-.7V58c0-.4-.3-.7-.7-.7h-3.3c-2.2 0-4 1.8-4 4v2.9zm8.2-6.2v9.5c0 .5-.4 1-1 1h-3.3c-2.3 0-4.3-1.9-4.3-4.2v-3c0-2.3 1.9-4.3 4.3-4.3h3.3c.6 0 1 .4 1 1z" class="st19"/><path d="M190.4 62.7c0 .4.3.7.7.7.4 0 .7-.3.7-.7 0-.4-.3-.7-.7-.7-.4.1-.7.4-.7.7m1.6 0c0 .5-.4 1-1 1-.5 0-1-.4-1-1 0-.5.4-1 1-1 .6.1 1 .5 1 1" class="st18"/><path d="M190.4 62.7c0 .4.3.7.7.7.4 0 .7-.3.7-.7 0-.4-.3-.7-.7-.7-.4.1-.7.4-.7.7zm1.6 0c0 .5-.4 1-1 1-.5 0-1-.4-1-1 0-.5.4-1 1-1 .6.1 1 .5 1 1z" class="st19"/><path d="M151.7 72.2h11.4v15.9h-11.4z" class="st10"/><defs><path id="SVGID_29_" d="M3 2.9h201v212.4H3z"/></defs><clipPath id="SVGID_30_"><use xlink:href="#SVGID_29_" style="overflow:visible"/></clipPath><path d="M179.2 77.4c0 2.7 2.2 5 5 5h7.2c.5 0 .9-.4.9-.9v-8.2c0-.5-.4-.9-.9-.9h-7.2c-2.8 0-5 2.2-5 5m13.4-4.2v8.2c0 .7-.5 1.2-1.2 1.2h-7.2c-2.9 0-5.3-2.4-5.3-5.3s2.4-5.3 5.3-5.3h7.2c.6 0 1.2.6 1.2 1.2" class="st20"/><path d="M179.2 77.4c0 2.7 2.2 5 5 5h7.2c.5 0 .9-.4.9-.9v-8.2c0-.5-.4-.9-.9-.9h-7.2c-2.8 0-5 2.2-5 5zm13.4-4.2v8.2c0 .7-.5 1.2-1.2 1.2h-7.2c-2.9 0-5.3-2.4-5.3-5.3s2.4-5.3 5.3-5.3h7.2c.6 0 1.2.6 1.2 1.2z" class="st21"/><path d="M189.8 80.9v-7.1s0-.1-.1-.1h-5.4c-2 0-3.7 1.6-3.7 3.7 0 2 1.6 3.7 3.7 3.7l5.5-.2c0 .1 0 .1 0 0z" class="st21"/><path d="M189.7 80.8v-7h-5.3c-1.9 0-3.5 1.6-3.5 3.5s1.6 3.5 3.5 3.5h5.3zm.3-7v7.1c0 .1-.1.3-.3.3h-5.4c-2.1 0-3.8-1.7-3.8-3.8 0-2.1 1.7-3.8 3.8-3.8h5.4c.2-.1.3 0 .3.2" class="st20"/><path d="M189.7 80.8v-7h-5.3c-1.9 0-3.5 1.6-3.5 3.5s1.6 3.5 3.5 3.5h5.3zm.3-7v7.1c0 .1-.1.3-.3.3h-5.4c-2.1 0-3.8-1.7-3.8-3.8 0-2.1 1.7-3.8 3.8-3.8h5.4c.2-.1.3 0 .3.2z" class="st21"/><path d="M184.3 77.4c0 .5.4.9.9.9s.9-.4.9-.9-.4-.9-.9-.9c-.5-.1-.9.3-.9.9m2.2 0c0 .7-.6 1.3-1.3 1.3-.7 0-1.3-.6-1.3-1.3 0-.7.6-1.3 1.3-1.3.7 0 1.3.5 1.3 1.3" class="st20"/><path d="M184.3 77.4c0 .5.4.9.9.9s.9-.4.9-.9-.4-.9-.9-.9c-.5-.1-.9.3-.9.9zm2.2 0c0 .7-.6 1.3-1.3 1.3-.7 0-1.3-.6-1.3-1.3 0-.7.6-1.3 1.3-1.3.7 0 1.3.5 1.3 1.3z" class="st21"/><path d="m186.64 78.73.18-.24 2.323 1.736-.18.24z" class="st1"/><path d="m186.64 78.73.18-.24 2.323 1.736-.18.24z" class="st22"/><path d="m189.1 74.6-2.2 1.7-.3-.2 2.3-1.7z" class="st1"/><path d="m189.1 74.6-2.2 1.7-.3-.2 2.3-1.7z" class="st22"/><defs><path id="SVGID_31_" d="M3 2.9h201v212.4H3z"/></defs><clipPath id="SVGID_32_"><use xlink:href="#SVGID_31_" style="overflow:visible"/></clipPath><path d="M192.6 80.8c0 .8.6 1.4 1.4 1.4h1.9c.8 0 1.4-.6 1.4-1.4v-6.9c0-.8-.6-1.4-1.4-1.4H194c-.8 0-1.4.6-1.4 1.4v6.9zm5-6.9v6.9c0 .9-.8 1.7-1.7 1.7H194c-.9 0-1.7-.8-1.7-1.7v-6.9c0-.9.8-1.7 1.7-1.7h1.9c.9 0 1.7.8 1.7 1.7" class="st23"/><path d="M192.6 80.8c0 .8.6 1.4 1.4 1.4h1.9c.8 0 1.4-.6 1.4-1.4v-6.9c0-.8-.6-1.4-1.4-1.4H194c-.8 0-1.4.6-1.4 1.4v6.9zm5-6.9v6.9c0 .9-.8 1.7-1.7 1.7H194c-.9 0-1.7-.8-1.7-1.7v-6.9c0-.9.8-1.7 1.7-1.7h1.9c.9 0 1.7.8 1.7 1.7z" class="st24"/><path d="M194.4 77.4c0 .3.2.5.5.5s.5-.2.5-.5-.2-.5-.5-.5c-.3-.1-.5.2-.5.5m1.4 0c0 .5-.4.9-.9.9s-.9-.4-.9-.9.4-.9.9-.9.9.4.9.9" class="st23"/><path d="M194.4 77.4c0 .3.2.5.5.5s.5-.2.5-.5-.2-.5-.5-.5c-.3-.1-.5.2-.5.5zm1.4 0c0 .5-.4.9-.9.9s-.9-.4-.9-.9.4-.9.9-.9.9.4.9.9z" class="st24"/><path d="M191.6 8v23.8m1-22.3h6.2V25h-6.2zm0 17.2h6.2v4h-6.2zm-1.3 5h7.8m-86.5 50V58m-7.1 6.8h6.2v15.5h-6.2zm0-5.7h6.2v4h-6.2zm7.4-1h-7.7" class="st10"/><path d="M197.9 92.2h-15.8V108h15.8V92.2zm.4 16.2h-16.5V91.9h16.5v16.5z" class="st1"/><path d="M197.9 92.2h-15.8V108h15.8V92.2zm.4 16.2h-16.5V91.9h16.5v16.5z" class="st22"/><defs><path id="SVGID_33_" d="M3 2.9h201v212.4H3z"/></defs><clipPath id="SVGID_34_"><use xlink:href="#SVGID_33_" style="overflow:visible"/></clipPath><path d="M183.5 105.7c0 .4.3.7.7.7h8.3c.4 0 .7-.3.7-.7V94.6c0-.4-.3-.7-.7-.7h-8.3c-.4 0-.7.3-.7.7v11.1zm10.1-11.1v11.1c0 .6-.5 1.1-1.1 1.1h-8.3c-.6 0-1.1-.5-1.1-1.1V94.6c0-.6.5-1.1 1.1-1.1h8.3c.6 0 1.1.5 1.1 1.1" style="clip-path:url(#SVGID_34_);fill:#1a1a1a"/><path d="M183.5 105.7c0 .4.3.7.7.7h8.3c.4 0 .7-.3.7-.7V94.6c0-.4-.3-.7-.7-.7h-8.3c-.4 0-.7.3-.7.7v11.1zm10.1-11.1v11.1c0 .6-.5 1.1-1.1 1.1h-8.3c-.6 0-1.1-.5-1.1-1.1V94.6c0-.6.5-1.1 1.1-1.1h8.3c.6 0 1.1.5 1.1 1.1z" style="clip-path:url(#SVGID_34_);fill:none;stroke:#1a1a1a;stroke-width:.25"/><path d="M192 95.1h-7.3v10h7.3v-10zm.4 10.4h-8V94.8h8v10.7z" class="st1"/><path d="M192 95.1h-7.3v10h7.3v-10zm.4 10.4h-8V94.8h8v10.7z" class="st22"/><defs><path id="SVGID_35_" d="M3 2.9h201v212.4H3z"/></defs><clipPath id="SVGID_36_"><use xlink:href="#SVGID_35_" style="overflow:visible"/></clipPath><path d="M187 100.1c0 .5.4.9.9.9s.9-.4.9-.9-.4-.9-.9-.9-.9.4-.9.9m2.2 0c0 .7-.6 1.3-1.3 1.3-.7 0-1.3-.6-1.3-1.3 0-.7.6-1.3 1.3-1.3.7.1 1.3.6 1.3 1.3" style="clip-path:url(#SVGID_36_);fill:#1a1a1a"/><path d="M187 100.1c0 .5.4.9.9.9s.9-.4.9-.9-.4-.9-.9-.9-.9.4-.9.9zm2.2 0c0 .7-.6 1.3-1.3 1.3-.7 0-1.3-.6-1.3-1.3 0-.7.6-1.3 1.3-1.3.7.1 1.3.6 1.3 1.3z" style="clip-path:url(#SVGID_36_);fill:none;stroke:#1a1a1a;stroke-width:.25"/><path d="m6.156 199.06.388-2.673 96.788 14.036-.388 2.672zM103.9 210.5h96.4v2.7h-96.4z" class="st10"/><defs><path id="SVGID_37_" d="M3 2.9h201v212.4H3z"/></defs><clipPath id="SVGID_38_"><use xlink:href="#SVGID_37_" style="overflow:visible"/></clipPath><path d="M61 63.1c.8 0 1 .3 1 2.2 0 1.9-.2 2.2-1 2.2s-1-.3-1-2.2c0-1.9.3-2.2 1-2.2m0-1.5c-2.1 0-2.8.9-2.8 3.6s.7 3.6 2.8 3.6c2.1 0 2.9-.9 2.9-3.6s-.8-3.6-2.9-3.6M56.3 67c-.5 0-.6.2-.6.6v.4c0 .5.2.6.6.6h.4c.5 0 .6-.2.6-.6v-.4c0-.5-.2-.6-.6-.6h-.4zm-5-2.8c0-.8.1-1.2.8-1.2.8 0 .9.3.9 1.8-.3.2-.6.3-.9.3-.7 0-.9-.2-.8-.9m-1.5 4.5c.8.2 1.6.2 1.9.2 2.2 0 3-.5 3-3.7 0-2.8-.5-3.5-2.7-3.5-2 0-2.6.8-2.6 2.6 0 1.3.4 2.2 2 2.2.6 0 1.1-.1 1.4-.4-.1 1.2-.3 1.5-1.2 1.5h-1.9l.1 1.1zm-1.5.1v-7h-1.9l-1.8.7.2 1.2 1.6-.4c-.1.3-.1.6-.1.8v4.6h2zM92 55.3c0-.2.1-.4.4-.4h1.1v.6c-.3.2-.7.4-1 .4-.3 0-.5-.1-.5-.4v-.2zm-1.4-2c.9-.1 1.7-.1 2.2-.1.5 0 .7.2.7.6v.1h-1.7c-1 0-1.7.5-1.7 1.3v.5c0 1 .8 1.5 1.7 1.5.9 0 1.5-.5 1.8-.9l.2.8h1.5v-3.3c0-1.5-.8-2-2.2-2-.8 0-2.1.1-2.8.3l.3 1.2zm-.8.1V52h-5.2v1.4h1.6v3.7h1.9v-3.7h1.7zm-9.3 1.9c0-.2.1-.4.4-.4H82v.6c-.3.2-.7.4-1 .4-.3 0-.5-.1-.5-.4v-.2zm-1.4-2c.9-.1 1.7-.1 2.2-.1.5 0 .7.2.7.6v.1h-1.7c-1 0-1.7.5-1.7 1.3v.5c0 1 .8 1.5 1.7 1.5.9 0 1.5-.5 1.8-.9l.2.8h1.5v-3.3c0-1.5-.8-2-2.2-2-.8 0-2.1.1-2.8.3l.3 1.2zM77.8 52H76v1.8h-1.6V52h-1.9v5.2h1.9V55H76v2.1h1.9V52zm-8.7 0c-.4 0-.6.2-.7.6l-.4 1.9c-.1.3-.1.5-.1.8h-.1c0-.3 0-.5-.1-.8l-.5-1.9c-.1-.4-.3-.6-.7-.6h-1.6c-.4 0-.6.2-.7.6l-.1 4.5h1.7l.1-3.8h.1l.6 2.5c.1.4.3.6.7.6h.8c.4 0 .6-.2.7-.6l.6-2.5h.1l.1 3.8h1.7l-.1-4.5c0-.4-.2-.6-.6-.6h-1.5zm-8.6 1.1c.6 0 .8.3.8 1.4 0 1.1-.2 1.4-.8 1.4-.6 0-.8-.3-.8-1.4-.1-1.1.1-1.4.8-1.4m0-1.3c-2 0-2.8.7-2.8 2.7s.7 2.7 2.8 2.7c2 0 2.8-.7 2.8-2.7-.1-2-.8-2.7-2.8-2.7m-5.2 2.6c1.2-.2 1.1-.3 1.8-2.5h-1.9c-.4 1.7-.5 1.9-1.2 1.9h-.2c0-.2.1-.4.1-.7V52H52v5.2h1.9v-1.6c0-.1 0-.3-.1-.4h.4c.6 0 .6.1 1.1 2.1h2c-.8-2.6-.8-2.7-2-2.9zm-8.6-.1H46c-.5 0-.6-.1-.6-.6 0-.4.1-.5.6-.5h.7v1.1zm-2 .6c-.3 0-.9.1-1 .6l-.4 1.6h1.9l.3-1.4c0-.2.2-.3.5-.3h.7v1.7h1.8v-5.2c-.6-.1-1.2-.1-2.6-.1-1.9 0-2.4.4-2.4 1.7.1.6.3 1.2 1.2 1.4zm-5.5.4c0-.2.1-.4.4-.4h1.1v.6c-.3.2-.7.4-1 .4-.3 0-.5-.1-.5-.4v-.2zm-1.4-2c.9-.1 1.7-.1 2.2-.1.5 0 .7.2.7.6v.1H39c-1 0-1.7.5-1.7 1.3v.5c0 1 .8 1.5 1.7 1.5.9 0 1.5-.5 1.8-.9l.2.8h1.5v-3.3c0-1.5-.8-2-2.2-2-.8 0-2.1.1-2.8.3l.3 1.2zM36.5 52h-3.1c-.9 0-1.4.5-1.4 1.3-.1.9-.2 1.7-.3 2-.1.4-.4.4-.9.5l.2 1.4c1.1.2 2.2-.1 2.4-1.4.1-.5.2-1.4.3-2.2 0-.3.2-.4.5-.4h.4v3.9h1.9V52zm-6.4 5.1V52h-1.6l-1.6 2.5c-.2.2-.3.5-.4.8 0-.3.1-.5.1-.8V52h-1.7v5.2h1.6l1.6-2.4c.1-.2.3-.6.4-.9 0 .3-.1.6-.1.9v2.3h1.7zm-8.4-3.7c1.4-.2 1.4-.8 2.2-3.4h-2c-.6 2.2-.8 2.8-1.5 2.8h-.3c.1-.3.1-.6.1-.9V50h-1.9v1.9c0 .3 0 .6.1.9H18c-.7 0-.8-.6-1.5-2.8h-2c.8 2.6.8 3.2 2.2 3.4v.1c-1.4.2-1.5.8-2.4 3.7h2c.8-2.6.9-3.1 1.6-3.1h.4c-.1.2-.1.5-.1.7v2.4h1.9v-2.4c0-.2 0-.4-.1-.7h.3c.7 0 .8.5 1.6 3.1H24c-.7-3-.8-3.6-2.3-3.8z" style="clip-path:url(#SVGID_38_);fill:#1a1a1a"/><path d="M139.8 188.6h-1.9v-5.7h-.6c-.4 0-.6.2-.6.5-.1 1.5-.3 2.8-.5 3.6-.5 1.4-1.4 1.8-2.6 1.6l-.1-1.5c.5-.1.8-.2 1-.7.2-.6.4-1.6.5-3.2.1-1.1.7-1.7 1.8-1.7h3.2v7.1zm6.4-2.5c0 1.9-.7 2.6-2.7 2.6s-2.7-.7-2.7-2.6c0-1.9.7-2.7 2.7-2.7s2.7.7 2.7 2.7zm-3.5 0c0 1.1.2 1.3.8 1.3.6 0 .8-.2.8-1.3s-.2-1.4-.8-1.4c-.6 0-.8.2-.8 1.4zm10.2 3.9h-1.2l-.1-1.4H148l-.1 1.4h-1.2v-2.6h.6c.3-.9.5-1.7.6-2.6.1-.8.6-1.2 1.5-1.2h2.8v3.8h.8v2.6zm-2.6-5.3h-.5c-.3 0-.4.1-.4.4-.1.9-.3 1.6-.6 2.2h1.5v-2.6zm9.2 1.3c1.2.2 1.2.3 2 2.6h-1.9c-.6-1.9-.7-2-1.1-2h-.4c0 .2.1.3.1.4v1.6h-1.6V187c0-.1 0-.3.1-.4h-.4c-.4 0-.5.1-1.1 2h-1.9c.7-2.3.7-2.4 2-2.6v-.1c-1.2-.2-1.1-.3-1.8-2.4h1.8c.5 1.7.6 1.8 1.1 1.8h.3c0-.2-.1-.4-.1-.6v-1.2h1.6v1.2c0 .2 0 .4-.1.6h.3c.5 0 .6-.2 1.1-1.8h1.8c-.7 2.1-.6 2.3-1.8 2.5zm6.2 2.6v-2.3c0-.3 0-.6.1-.9-.1.3-.3.6-.4.8l-1.6 2.3h-1.6v-5h1.6v2.4c0 .3 0 .5-.1.8.1-.3.2-.5.4-.7l1.6-2.4h1.6v5h-1.6zm3.7-2.2c-.9-.2-1.1-.7-1.1-1.4 0-1.3.5-1.6 2.3-1.6 1.4 0 1.9 0 2.5.1v5.1h-1.8V187h-.7c-.3 0-.4.1-.5.3l-.3 1.3H168l.4-1.6c.2-.5.7-.5 1-.6zm2-1.7h-.7c-.5 0-.6.1-.6.5 0 .5.1.6.6.6h.7v-1.1zm-24.7 13.6h1.9c.9 0 1.2-.3 1.2-1.5-.4.3-.8.4-1.4.4-1.6 0-2-.9-2-2.2 0-1.8.6-2.6 2.6-2.6 2.2 0 2.7.7 2.7 3.5 0 3.2-.8 3.7-3 3.7-.4 0-1.1 0-1.9-.2l-.1-1.1zm2.2-2.4c.3 0 .5-.1.9-.3 0-1.5-.1-1.8-.9-1.8-.7 0-.8.3-.8 1.2 0 .7.1.9.8.9zm4.6 2c.5 0 .6.2.6.6v.4c0 .5-.2.6-.6.6h-.4c-.5 0-.6-.2-.6-.6v-.4c0-.5.2-.6.6-.6h.4zm7.4 0-.8.2v1.5h-1.7v-1.5h-2.8c-.6 0-1-.5-.7-1.1l1.7-4.4h1.8l-1.5 4c-.1.2 0 .3.2.3h1.4v-1.8l.3-1.1h1.4v2.9h.8v1zm-20.5-79.4c1.4.2 1.5.8 2.4 3.6h-2c-.7-2.5-.8-3-1.8-3h-.4c.1.2.1.5.1.6v2.3h-1.9v-7h1.9v1.9c0 .3 0 .6-.1.9h.3c1 0 1.1-.6 1.7-2.7h1.9c-.7 2.5-.7 3.1-2.1 3.4zm6.5 3.5c-.4 1.2-.9 1.7-1.7 2-.6.2-1.4.2-2.1.1l.2-1.2c.6 0 1.1 0 1.4-.2.2-.1.4-.3.5-.6h-.3c-.3 0-.5-.2-.6-.4l-1.6-4.6h2l.8 3c.1.3.1.6.1.9h.1c.1-.3.2-.6.2-.9l.7-3h2l-1.7 4.9zm4.7-1.9-1.1 2h-1.9l1.5-2.6-1.4-2.5h1.8l1 1.9 1-1.9h1.8l-1.4 2.5 1.5 2.6h-1.9l-.9-2zm8.7 2h-1.8v-2H157v2h-1.8v-5h1.8v1.8h1.5v-1.8h1.8v5zm2.1-2.2c-.9-.2-1.1-.8-1.1-1.4 0-1.3.5-1.6 2.3-1.6 1.4 0 1.9 0 2.5.1v5.1h-1.8v-1.6h-.7c-.3 0-.4.1-.5.3l-.3 1.3H161l.4-1.6c.2-.4.7-.5 1-.6zm2-1.7h-.7c-.5 0-.6.1-.6.5 0 .5.1.6.6.6h.7v-1.1zm-18.9 10.4c-.8-.1-1.1-.9-1.1-1.6 0-1.3.5-1.9 2.6-1.9s2.6.6 2.6 1.9c0 .7-.3 1.5-1.1 1.6 1 .1 1.2.9 1.2 1.9 0 1.4-.5 1.9-2.7 1.9s-2.7-.5-2.7-1.9c-.1-.9.2-1.7 1.2-1.9zm.5 1.6c0 .7.2.9 1 .9s.9-.2.9-.9-.2-.9-.9-.9c-.8 0-1 .2-1 .9zm.1-2.9c0 .6.2.8.9.8s.8-.2.8-.8c0-.7-.2-.8-.9-.8-.6-.1-.8.1-.8.8zm5.6 3.3c.5 0 .6.2.6.6v.4c0 .5-.2.6-.6.6h-.4c-.5 0-.6-.2-.6-.6v-.4c0-.5.2-.6.6-.6h.4zm2.7-2c-.8-.1-1.1-.9-1.1-1.6 0-1.3.5-1.9 2.6-1.9s2.6.6 2.6 1.9c0 .7-.3 1.5-1.1 1.6 1 .1 1.2.9 1.2 1.9 0 1.4-.5 1.9-2.7 1.9s-2.7-.5-2.7-1.9c0-.9.2-1.7 1.2-1.9zm.5 1.6c0 .7.2.9 1 .9s.9-.2.9-.9-.2-.9-.9-.9c-.8 0-1 .2-1 .9zm.1-2.9c0 .6.2.8.9.8s.8-.2.8-.8c0-.7-.2-.8-.9-.8-.6-.1-.8.1-.8.8zm-40.3-84.2h-1.1v-3.4h-1.2v3.4h-1.1v-4.2h3.5v4.2zm1.7-2.6c.2-.3.7-.5 1.2-.5.8 0 1.1.6 1.1 1.6 0 1.2-.4 1.6-1.1 1.6-.4 0-.7-.1-1-.3v1.4h-1.1v-4.1h.9v.3zm.1 1.8c.2 0 .3.1.5.1.3 0 .4-.1.4-.8 0-.7-.1-.8-.4-.8-.2 0-.4.1-.6.2v1.3zm4.8.8v-1.9c-.1.2-.2.4-.2.5l-.9 1.4h-1v-3h1V42c.1-.2.1-.3.2-.4l1-1.4h1v3h-1.1zm3.1-1.2-.7 1.2h-1.1l.9-1.5-.8-1.5h1.1l.6 1.1.6-1.1h1.1l-.8 1.5.9 1.5h-1.1l-.7-1.2zm5.2-.3c0 1.2-.4 1.6-1.6 1.6-1.2 0-1.6-.4-1.6-1.6 0-1.2.4-1.6 1.6-1.6 1.1 0 1.6.4 1.6 1.6zm-2.1 0c0 .7.1.8.5.8s.5-.1.5-.8c0-.7-.1-.8-.5-.8s-.5.1-.5.8zm6.1-.1c.7.1.7.2 1.2 1.6h-1.1c-.4-1.1-.4-1.2-.7-1.2h-.2v1.3h-1v-1.3h-.2c-.3 0-.3.1-.7 1.2h-1.1c.4-1.4.4-1.5 1.2-1.6-.7-.1-.7-.2-1.1-1.4h1.1c.3 1 .4 1.1.7 1.1h.2v-1.1h1v1.1h.2c.3 0 .3-.1.7-1.1h1.1c-.6 1.2-.6 1.3-1.3 1.4zm1.6-1.4c.4-.1 1.2-.2 1.7-.2.8 0 1.3.3 1.3 1.2V43h-.9l-.1-.4c-.2.3-.6.5-1.1.5-.6 0-1-.3-1-.9V42c0-.5.4-.8 1-.8h1v-.1c0-.3-.1-.3-.4-.3h-1.3l-.2-.7zm.9 2c0 .2.1.2.3.2.2 0 .4-.1.6-.2v-.4h-.6c-.2 0-.3.1-.3.2v.2zm3.2-.3c-.5-.1-.7-.4-.7-.8 0-.8.3-1 1.4-1h1.5v3h-1.1v-1h-.4c-.2 0-.3 0-.3.2l-.2.8h-1.1l.2-1c.2-.1.5-.2.7-.2zm1.2-1h-.4c-.3 0-.3.1-.3.3 0 .3.1.4.3.4h.4v-.7zm-17 5.7v.6l.7.1c1 .1 1.2.7 1.2 1.4 0 .8-.3 1.4-1.5 1.4-.4 0-1 0-1.5-.1l.1-.9h1.1c.6 0 .7-.1.7-.5s-.2-.5-.8-.5l-.6-.1c-.2 0-.3-.2-.3-.4l.1-1.9h2.6v.8h-1.8zm3 2.3c.3 0 .4.1.4.4v.3c0 .3-.1.4-.4.4h-.3c-.3 0-.4-.1-.4-.4v-.3c0-.3.1-.4.4-.4h.3zm1.9-2.3v.6l.7.1c1 .1 1.2.7 1.2 1.4 0 .8-.3 1.4-1.5 1.4-.4 0-1 0-1.5-.1l.1-.9h1.1c.6 0 .7-.1.7-.5s-.2-.5-.8-.5l-.6-.1c-.2 0-.3-.2-.3-.4l.1-1.9h2.6v.8h-1.8zm31.4 17.7c-.4.1-.8.2-1.4.2-1.3 0-1.8-.6-1.8-2.2s.5-2.2 1.8-2.2c.6 0 .9 0 1.3.2l-.1.8h-1.2c-.5 0-.6.3-.6 1.2s.1 1.2.6 1.2h1.3l.1.8zm.5-2.8c.4-.1 1.2-.2 1.7-.2.8 0 1.3.3 1.3 1.2v1.9h-.9l-.1-.4c-.2.3-.6.5-1.1.5-.6 0-1-.3-1-.9v-.3c0-.5.4-.8 1-.8h1v-.1c0-.3-.1-.3-.4-.3h-1.3l-.2-.6zm.9 2c0 .2.1.2.3.2.2 0 .4-.1.6-.2V63h-.6c-.2 0-.3.1-.3.2v.2zm5.7 1h-1.1v-1.2h-.9v1.2h-1.1v-3h1.1v1.1h.9v-1.1h1.1v3zm2.9-.1c-.2.7-.6 1-1 1.2-.4.1-.8.1-1.2.1l.1-.7c.4 0 .6 0 .8-.1.1-.1.2-.2.3-.4h-.2c-.2 0-.3-.1-.4-.3l-.9-2.8h1.2l.5 1.8c0 .2.1.3.1.5h.1c0-.2.1-.4.1-.5l.4-1.8h1.2l-1.1 3zm1.2-2.9c.4-.1.9-.2 1.1-.2 1.1 0 1.5.1 1.5.8 0 .5-.2.7-.7.7.6 0 .8.3.8.8 0 .7-.5.8-1.4.8-.5 0-.9 0-1.4-.1l.1-.7c.5 0 .9.1 1.3.1.3 0 .4 0 .4-.2s-.1-.2-.4-.2h-.9v-.6h.9c.3 0 .3 0 .3-.2s-.1-.2-.4-.2c-.4 0-.8 0-1.1.1l-.1-.9zm4.4 1.7c.1.3.2.4.6.4.3 0 .7 0 1.2-.1l.1.7c-.4.2-.9.3-1.4.3-1.2 0-1.7-.5-1.7-1.6 0-1.2.5-1.6 1.6-1.6s1.5.4 1.5 1.1c0 .6-.3.8-1.1.8h-.8zm.6-.5c.3 0 .3-.1.3-.3 0-.2-.1-.3-.4-.3-.4 0-.5.1-.5.6h.6zm4.9 1.8h-1.1v-2.3h-.3c-.2 0-.3.1-.3.3-.1.5-.1 1-.2 1.3-.1.7-.7.9-1.4.8l-.1-.8c.3 0 .4 0 .5-.3.1-.2.1-.6.2-1.2 0-.5.3-.8.8-.8h1.8v3zM164.6 67c.5-.1.9-.1 1.4-.1 1 0 1.4.2 1.4 1 0 .6-.1 1-.7 1.1.6.1.8.4.8 1.1 0 .9-.4 1.3-1.5 1.3-.5 0-1 0-1.5-.1v-.8h1.2c.5 0 .7-.1.7-.5s-.1-.5-.5-.5h-.8v-.7h.8c.5 0 .5-.2.5-.5s-.1-.4-.5-.4h-1.2l-.1-.9zm4.1 3.1c.3 0 .4.1.4.4v.3c0 .3-.1.4-.4.4h-.3c-.3 0-.4-.1-.4-.4v-.3c0-.3.1-.4.4-.4h.3zm4.4.1-.5.1v.9h-1v-.9h-1.7c-.4 0-.6-.3-.4-.6l1-2.7h1.1l-.9 2.4c0 .1 0 .2.1.2h.8v-1.1l.2-.7h.9v1.7h.5v.7z" class="st1"/><defs><path id="SVGID_39_" d="M3 2.9h201v212.4H3z"/></defs><clipPath id="SVGID_40_"><use xlink:href="#SVGID_39_" style="overflow:visible"/></clipPath><path d="M76.8 116.7h-1.9v-6.6h-3.3l-.7 2.5v4.1h-3.1c-.4 0-.6-.2-.4-.7l3.5-9.1h-4.1l-4 10.1c-.5 1.3.3 2.5 1.7 2.5h6.4v3.4h4v-3.4l1.9-.4v-2.4zM58.9 119c-1.1 0-1.5.3-1.5 1.5v1c0 1.1.3 1.5 1.5 1.5h1c1.1 0 1.5-.3 1.5-1.5v-1c0-1.1-.3-1.5-1.5-1.5h-1zm-4.3 3.9v-16h-4.3l-4.1 1.6.5 2.8 3.7-.8c-.1.6-.2 1.3-.2 1.9V123h4.4zm-8.7-6.2H44v-6.6h-3.3l-.7 2.5v4.1h-3c-.4 0-.6-.2-.4-.7l3.4-9h-4l-4 10.1c-.5 1.3.3 2.5 1.7 2.5h6.4v3.4h4v-3.4l1.9-.4v-2.5z" class="st30"/><circle cx="54.4" cy="89" r="14.2" style="clip-path:url(#SVGID_40_);fill:none;stroke:#1a1a1a"/><path d="M57.8 97.2v-16h-4.3l-4.1 1.6.5 2.8 3.7-.8c-.1.6-.2 1.3-.2 1.9v10.6h4.4z" class="st30"/></svg>