<svg xmlns="http://www.w3.org/2000/svg" xmlns:xlink="http://www.w3.org/1999/xlink" xml:space="preserve" id="Слой_1" x="0" y="0" style="enable-background:new 0 0 270 472" version="1.1" viewBox="0 0 270 472"><style>.st1{fill:#fff5a9}.st2{fill:#3c3c3b}.st21{fill:none;stroke:#3c3c3b}.st3{stroke-width:.75}.st3,.st34,.st45{fill:none;stroke:#3c3c3b}.st21{stroke-width:.6}.st34{stroke-width:.7}.st45{stroke-width:.25}</style><path d="M.2-.3h270v472H.2z" style="fill:#fff"/><path d="m145.3 103-14.1-20.2 3.5-41.3 94.8 15 5.5 37.2-3.8 27.2z" class="st1"/><path d="M33.3 90.7h194.5v178.7H33.3z" class="st1"/><path d="M134.7 111.1h93v319.3h-93z" class="st1"/><path d="M25.9 27.3h24.9V42H25.9z" class="st2"/><path d="M25.9 27.3h18v63.4h-18zm101.1 6h8.4v188.8H127zM29.6 205.2h72.3v7.1H29.6z" class="st2"/><path d="M125.5 27.3h11.3v7.9h-11.3zm103.8 59.4h7.1V232h-7.1zm0 173.8h7.1v182.6h-7.1zm-203.4 8.9h108.8v7.1H25.9z" class="st2"/><path d="M127.6 250.7h7.1V444h-7.1zm88.1-168h28.6v7.9h-28.6zm-101.7 0h34.4v7.9H114z" class="st2"/><path d="M227.8 41.5h16.6V444h-16.6z" class="st2"/><path d="M209.6 437.8h31.2v6.2h-31.2z" class="st2"/><path d="M211.9 430.4h28.9v10.5h-28.9zm-83.1 7.4H155v6.2h-26.2z" class="st2"/><path d="M128.8 430.4h24v10.5h-24z" class="st2"/><path d="M127.6 430.3H151v7.4h-23.4zm-101.7-170h7.4v16.2h-7.4zm0-188.2h7.4v160.6h-7.4z" class="st2"/><path d="M63.6 83.1h50.6v2.1H63.6z" class="st3"/><path d="M63.6 83.1h50.6v7.2H63.6zm85.6 352.2h65.6v2.1h-65.6z" class="st3"/><defs><path id="SVGID_1_" d="M25.9 27.3h218.4V444H25.9z"/></defs><clipPath id="SVGID_2_"><use xlink:href="#SVGID_1_" style="overflow:visible"/></clipPath><path d="M146.9 430.8h67.9v12.9h-67.9z" style="clip-path:url(#SVGID_2_);fill:none;stroke:#3c3c3b;stroke-width:.75"/><path d="M47 34.9h80.9V37H47z" class="st3"/><defs><path id="SVGID_3_" d="M25.9 27.3h218.4V444H25.9z"/></defs><clipPath id="SVGID_4_"><use xlink:href="#SVGID_3_" style="overflow:visible"/></clipPath><path d="M45.7 27.7h83.6v14H45.7z" style="clip-path:url(#SVGID_4_);fill:none;stroke:#3c3c3b;stroke-width:.75"/><path d="M181.2-6.2h2.1v99.5h-2.1z" style="fill:none;stroke:#3c3c3b;stroke-width:.75;stroke-miterlimit:4.0001" transform="rotate(-80.996 182.255 43.535)"/><path d="M258.3-87.2h218.4v416.7H258.3z" style="fill:none" transform="rotate(-81.002 367.55 121.175)"/><path d="M177.4-7.4h13.8v99.5h-13.8z" style="fill:none;stroke:#3c3c3b;stroke-width:.75;stroke-miterlimit:4" transform="rotate(-81.002 184.322 42.35)"/><path d="M160 185.7h72.4v7.1H160zm6.7 31h65.8v3.1h-65.8z" class="st2"/><path d="M184.7 215.1h52.7v3.1h-52.7zm-18.5-3.8h4.4v23h-4.4zm0 41.5h4.4v18.7h-4.4z" class="st2"/><path d="M160 268.1h72.4v7.1H160z" class="st2"/><defs><path id="SVGID_5_" d="M25.9 27.3h218.4V444H25.9z"/></defs><clipPath id="SVGID_6_"><use xlink:href="#SVGID_5_" style="overflow:visible"/></clipPath><path d="M192.8 385.6h-.9v-3h-1.5l-.3 1.1v1.8h-1.4c-.2 0-.3-.1-.2-.3l1.6-4.1h-1.8l-1.8 4.6c-.2.6.2 1.1.8 1.1h2.9v1.5h1.8v-1.5l.8-.2v-1zm-8.1 1c-.5 0-.7.2-.7.7v.5c0 .5.2.7.7.7h.4c.5 0 .7-.2.7-.7v-.5c0-.5-.2-.7-.7-.7h-.4zm-4.3-1.3c.8 0 1 .2 1 .9s-.2.9-1 .9-1-.2-1-.9.1-.9 1-.9m0-2.9c.7 0 .9.2.9.9 0 .6-.1.8-.9.8-.7 0-.9-.1-.9-.8 0-.8.1-.9.9-.9m-1.6 2.3c-1 .1-1.3 1-1.3 1.9 0 1.4.6 1.9 2.8 1.9 2.3 0 2.8-.5 2.8-1.9 0-1-.2-1.8-1.3-1.9.8-.1 1.1-.9 1.1-1.6 0-1.3-.5-1.9-2.6-1.9-2.2 0-2.6.6-2.6 1.9 0 .7.3 1.4 1.1 1.6zm-2.6 3.7v-7.2h-1.9l-1.8.7.2 1.2 1.7-.4c-.1.3-.1.6-.1.9v4.8h1.9z" style="clip-path:url(#SVGID_6_);fill:#3c3c3b"/><defs><path id="SVGID_7_" d="M25.9 27.3h218.4V444H25.9z"/></defs><clipPath id="SVGID_8_"><use xlink:href="#SVGID_7_" style="overflow:visible"/></clipPath><path d="M219.6 376.1c0-.2.1-.4.4-.4h1.1v.6c-.3.2-.7.4-1 .4s-.5-.1-.5-.4v-.2zm-1.4-2c.9-.1 1.7-.1 2.2-.1s.7.2.7.6v.1h-1.7c-1 0-1.7.5-1.7 1.3v.5c0 1 .8 1.5 1.7 1.5s1.5-.5 1.8-.9l.2.8h1.5v-3.3c0-1.5-.8-2-2.2-2-.8 0-2.1.1-2.8.3l.3 1.2zm-.9 0v-1.4h-5.2v1.4h1.6v3.7h1.9v-3.7h1.7zm-9.2 2c0-.2.1-.4.4-.4h1.1v.6c-.3.2-.7.4-1 .4s-.5-.1-.5-.4v-.2zm-1.4-2c.9-.1 1.7-.1 2.2-.1s.7.2.7.6v.1h-1.7c-1 0-1.7.5-1.7 1.3v.5c0 1 .8 1.5 1.7 1.5s1.5-.5 1.8-.9l.2.8h1.5v-3.3c0-1.5-.8-2-2.2-2-.8 0-2.1.1-2.8.3l.3 1.2zm-1.3-1.4h-1.9v1.8h-1.6v-1.8H200v5.2h1.9v-2.1h1.6v2.1h1.9v-5.2zm-8.8 0c-.4 0-.6.2-.7.6l-.4 1.9c-.1.3-.1.5-.1.8h-.1c0-.3 0-.5-.1-.8l-.5-1.9c-.1-.4-.3-.6-.7-.6h-1.6c-.4 0-.6.2-.7.6l-.1 4.5h1.7l.1-3.8h.1l.6 2.5c.1.4.3.6.7.6h.8c.4 0 .6-.2.7-.6l.6-2.5h.1l.1 3.8h1.7l-.1-4.5c0-.4-.2-.6-.6-.6h-1.5zm-8.6 1.2c.6 0 .8.3.8 1.4s-.2 1.4-.8 1.4-.8-.3-.8-1.4c0-1.1.2-1.4.8-1.4m0-1.3c-2 0-2.8.7-2.8 2.7s.7 2.7 2.8 2.7c2 0 2.8-.7 2.8-2.7s-.7-2.7-2.8-2.7m-5.2 2.6c1.2-.2 1.1-.3 1.8-2.5h-1.9c-.4 1.7-.5 1.9-1.2 1.9h-.2c0-.2.1-.4.1-.7v-1.2h-1.9v5.2h1.9v-1.6c0-.1 0-.3-.1-.4h.4c.6 0 .6.1 1.1 2.1h2c-.7-2.6-.7-2.6-2-2.8zm-8.5-.2h-.7c-.5 0-.6-.1-.6-.6 0-.4.1-.5.6-.5h.7v1.1zm-2 .7c-.3 0-.9.1-1 .6l-.4 1.6h1.9l.3-1.4c0-.2.2-.3.5-.3h.7v1.7h1.8v-5.2c-.6-.1-1.2-.1-2.6-.1-1.9 0-2.4.4-2.4 1.7 0 .6.3 1.2 1.2 1.4zm-5.5.4c0-.2.1-.4.4-.4h1.1v.6c-.3.2-.7.4-1 .4s-.5-.1-.5-.4v-.2zm-1.5-2c.9-.1 1.7-.1 2.2-.1s.7.2.7.6v.1h-1.7c-1 0-1.7.5-1.7 1.3v.5c0 1 .8 1.5 1.7 1.5s1.5-.5 1.8-.9l.2.8h1.5v-3.3c0-1.5-.8-2-2.2-2-.8 0-2.1.1-2.8.3l.3 1.2zm-1.3-1.4h-3.1c-.9 0-1.4.5-1.4 1.3-.1.9-.2 1.7-.3 2-.1.4-.4.4-.9.5l.2 1.4c1.1.2 2.2-.1 2.4-1.4.1-.5.2-1.4.3-2.2 0-.3.2-.4.5-.4h.4v3.9h1.9v-5.1zm-6.3 5.2v-5.2h-1.6l-1.6 2.5c-.2.2-.3.5-.4.8 0-.3.1-.5.1-.8v-2.4h-1.7v5.2h1.6l1.6-2.4c.1-.2.3-.6.4-.9 0 .3-.1.6-.1.9v2.3h1.7zm-8.4-3.8c1.4-.2 1.4-.8 2.2-3.4h-2c-.6 2.2-.8 2.8-1.5 2.8h-.3c.1-.3.1-.6.1-.9v-1.9h-1.9v1.9c0 .3 0 .6.1.9h-.4c-.7 0-.8-.6-1.5-2.8h-2c.8 2.6.8 3.2 2.2 3.4v.1c-1.4.2-1.5.8-2.4 3.7h2c.8-2.6.9-3.1 1.6-3.1h.4c-.1.2-.1.5-.1.7v2.4h1.9v-2.4c0-.2 0-.4-.1-.7h.3c.7 0 .8.5 1.6 3.1h2.1c-.7-3-.8-3.5-2.3-3.8z" style="clip-path:url(#SVGID_8_);fill:#3c3c3b"/><defs><path id="SVGID_9_" d="M25.9 27.3h218.4V444H25.9z"/></defs><clipPath id="SVGID_10_"><use xlink:href="#SVGID_9_" style="overflow:visible"/></clipPath><path d="M144 241.8v-4.3h-1.2l-1.1.4.1.7 1-.2v3.4h1.2zm-3-1c-.3 0-.4.1-.4.4v.3c0 .3.1.4.4.4h.3c.3 0 .4-.1.4-.4v-.3c0-.3-.1-.4-.4-.4h-.3zm-3.9-2.4h1.2c.4 0 .6.1.6.4 0 .3 0 .5-.5.5h-.8v.8h.8c.5 0 .6.1.6.5s-.2.5-.7.5h-1.2v.8c.5.1 1 .1 1.5.1 1.1 0 1.6-.4 1.5-1.3 0-.7-.2-1-.8-1.1.6-.1.7-.5.7-1.1 0-.8-.4-1-1.5-1-.5 0-1 0-1.4.1v.8z" style="clip-path:url(#SVGID_10_);fill:#3c3c3b"/><defs><path id="SVGID_11_" d="M25.9 27.3h218.4V444H25.9z"/></defs><clipPath id="SVGID_12_"><use xlink:href="#SVGID_11_" style="overflow:visible"/></clipPath><path d="M151.8 232.2c.2-.1.3-.2.6-.2s.4.1.4.8-.1.8-.4.8c-.2 0-.4-.1-.5-.1v-1.3h-.1zm-.2-1h-.9v4.3h1.1v-1.4c.3.2.6.3 1 .3.8 0 1.2-.3 1.2-1.6 0-1.1-.3-1.7-1.1-1.7-.5 0-1 .2-1.2.5l-.1-.4zm-3.1.7c.4 0 .5.2.5.8 0 .7-.1.8-.5.8s-.5-.2-.5-.8c0-.6.1-.8.5-.8m0-.8c-1.2 0-1.7.4-1.7 1.6 0 1.2.4 1.6 1.7 1.6 1.2 0 1.7-.4 1.7-1.6 0-1.1-.5-1.6-1.7-1.6m-3.6 2.5h-.9c.2-.4.3-.8.4-1.4 0-.2.1-.3.3-.3h.3v1.7h-.1zm1.6 0h-.5v-2.3h-1.7c-.6 0-.8.3-.9.8-.1.5-.2 1.1-.4 1.6h-.4v1.6h.7l.1-.9h2.2l.1.9h.8v-1.7zm-4.3.7v-3.1h-1l-1 1.5c-.1.1-.2.3-.2.5v-2h-1v3.1h1l1-1.4c.1-.1.2-.4.3-.5v1.9h.9zm-5.9-2.1c.2-.1.3-.2.6-.2s.4.1.4.8-.1.8-.4.8c-.2 0-.4-.1-.5-.1v-1.3h-.1zm-.2-1h-.9v4.3h1.1v-1.4c.3.2.6.3 1 .3.8 0 1.2-.3 1.2-1.6 0-1.1-.3-1.7-1.1-1.7-.5 0-1 .2-1.2.5l-.1-.4zm-3.1.7c.4 0 .5.2.5.8 0 .7-.1.8-.5.8s-.5-.2-.5-.8c0-.6.1-.8.5-.8m0-.8c-1.2 0-1.7.4-1.7 1.6 0 1.2.4 1.6 1.7 1.6 1.2 0 1.7-.4 1.7-1.6-.1-1.1-.5-1.6-1.7-1.6m-3.4 1c.9-.1.9-.5 1.4-2h-1.2c-.3 1.3-.4 1.7-1 1.7h-.2V230h-1.2v4.3h1.2v-1.8h.2c.6 0 .6.3 1.1 1.8h1.2c-.6-1.7-.6-2.1-1.5-2.2z" style="clip-path:url(#SVGID_12_);fill:#3c3c3b"/><defs><path id="SVGID_13_" d="M25.9 27.3h218.4V444H25.9z"/></defs><clipPath id="SVGID_14_"><use xlink:href="#SVGID_13_" style="overflow:visible"/></clipPath><path d="M87.5 243.6c0-.9.1-1.2.8-1.2.8 0 .9.3.9 1.9-.3.2-.6.3-.9.3-.6 0-.8-.2-.8-1m-1.5 4.7c.8.2 1.6.2 2 .2 2.3 0 3.1-.5 3.1-3.8 0-2.9-.5-3.6-2.7-3.6-2.1 0-2.7.8-2.7 2.6 0 1.3.5 2.2 2.1 2.2.6 0 1.1-.1 1.5-.4-.1 1.2-.3 1.6-1.3 1.6h-1.9l-.1 1.2zm-2.2-1.7c-.5 0-.7.2-.7.7v.5c0 .5.2.7.7.7h.4c.5 0 .7-.2.7-.7v-.5c0-.5-.2-.7-.7-.7h-.4zm-4.1.5c-.8 0-.9-.3-.9-1.9.3-.2.6-.3.9-.3.7 0 .8.2.8.9.1.9 0 1.3-.8 1.3m2.2-5.9c-.7-.2-1.5-.2-1.9-.2-2.1 0-3.1.5-3.1 3.8 0 2.9.6 3.6 2.8 3.6 2.2 0 2.7-.8 2.7-2.6 0-1.6-.5-2.2-2.1-2.2-.6 0-1.1.1-1.5.4.1-1.3.3-1.6 1.2-1.6h1.8l.1-1.2z" style="clip-path:url(#SVGID_14_);fill:#3c3c3b"/><defs><path id="SVGID_15_" d="M25.9 27.3h218.4V444H25.9z"/></defs><clipPath id="SVGID_16_"><use xlink:href="#SVGID_15_" style="overflow:visible"/></clipPath><path d="M108.2 235h-.7c-.5 0-.6-.1-.6-.6 0-.4.1-.5.6-.5h.7v1.1zm-2 .7c-.3 0-.9.1-1 .6l-.4 1.6h1.9l.3-1.4c0-.2.2-.3.5-.3h.7v1.7h1.8v-5.2c-.6-.1-1.2-.1-2.6-.1-1.9 0-2.4.4-2.4 1.7.1.5.3 1.1 1.2 1.4zm-5.5.4c0-.2.1-.4.4-.4h1.1v.6c-.3.2-.7.4-1 .4s-.5-.1-.5-.4v-.2zm-1.4-2.1c.9-.1 1.7-.1 2.2-.1s.7.2.7.6v.1h-1.7c-1 0-1.7.5-1.7 1.3v.5c0 1 .8 1.5 1.7 1.5.9 0 1.5-.5 1.8-.9l.2.8h1.5v-3.3c0-1.5-.8-2-2.2-2-.8 0-2.1.1-2.8.3l.3 1.2zm-2.9 1.1c1.2-.2 1.2-.3 1.8-2.4h-1.9c-.5 1.7-.6 1.9-1.1 1.9h-.3c0-.2.1-.4.1-.6v-1.2h-1.6v1.2c0 .2 0 .4.1.6h-.3c-.5 0-.6-.2-1.1-1.9h-1.9c.7 2.1.6 2.3 1.8 2.4v.1c-1.2.2-1.3.3-2 2.7h1.9c.7-2 .7-2.1 1.1-2.1h.4c0 .2-.1.3-.1.4v1.6H95v-1.6c0-.1 0-.3-.1-.4h.4c.5 0 .5.1 1.2 2.1h1.9c-.7-2.5-.8-2.5-2-2.8zm-9.7-1.2c.6 0 .8.3.8 1.4 0 1.1-.2 1.4-.8 1.4-.6 0-.8-.3-.8-1.4 0-1.2.2-1.4.8-1.4m0-1.4c-2 0-2.8.7-2.8 2.7s.7 2.7 2.8 2.7c2 0 2.8-.7 2.8-2.7 0-1.9-.7-2.7-2.8-2.7m-4.9 5.3h1.9l-1.5-2.6 1.4-2.5h-1.9l-1 1.9-1-1.9h-1.9l1.4 2.5-1.5 2.6h1.9l1.1-2.1 1.1 2.1zm-4.7.1v-5.2h-1.6l-1.6 2.5c-.2.2-.3.5-.4.8 0-.3.1-.5.1-.8v-2.4h-1.7v5.2h1.6l1.6-2.4c.1-.2.3-.6.4-.9 0 .3-.1.6-.1.9v2.3h1.7zm-9.9-3.6c.3-.2.6-.3 1-.3.5 0 .7.2.7 1.4s-.2 1.4-.7 1.4c-.4 0-.6-.1-.9-.2l-.1-2.3zm-.3-1.6h-1.5v7.1h1.9v-2.2c.4.3 1 .5 1.7.5 1.3 0 2-.6 2-2.7 0-1.8-.5-2.8-1.8-2.8-.8 0-1.6.4-2 .9l-.3-.8zm-2.8-2h-6v7.2H60V232h2.1v5.9h2v-7.2z" style="clip-path:url(#SVGID_16_);fill:#3c3c3b"/><defs><path id="SVGID_17_" d="M25.9 27.3h218.4V444H25.9z"/></defs><clipPath id="SVGID_18_"><use xlink:href="#SVGID_17_" style="overflow:visible"/></clipPath><path d="M189.5 154.9v-7.2h-1.9l-1.8.7.2 1.2 1.7-.4c-.1.3-.1.6-.1.9v4.8h1.9zm-5-1.7c-.5 0-.7.2-.7.7v.5c0 .5.2.7.7.7h.4c.5 0 .7-.2.7-.7v-.5c0-.5-.2-.7-.7-.7h-.4zm-4 .5c-.8 0-.9-.3-.9-1.9.3-.2.6-.3.9-.3.7 0 .8.2.8.9 0 .9-.1 1.3-.8 1.3m2.1-5.8c-.7-.2-1.5-.2-1.9-.2-2.1 0-3.1.5-3.1 3.8 0 2.9.6 3.6 2.8 3.6s2.7-.8 2.7-2.6c0-1.6-.5-2.2-2.1-2.2-.6 0-1.1.1-1.5.4.1-1.3.3-1.6 1.2-1.6h1.8l.1-1.2zm-6.2 7v-7.2h-1.9l-1.8.7.2 1.2 1.7-.4c-.1.3-.1.6-.1.9v4.8h1.9z" style="clip-path:url(#SVGID_18_);fill:#3c3c3b"/><defs><path id="SVGID_19_" d="M25.9 27.3h218.4V444H25.9z"/></defs><clipPath id="SVGID_20_"><use xlink:href="#SVGID_19_" style="overflow:visible"/></clipPath><path d="M218.3 142.7c0-.2.1-.4.4-.4h1.1v.6c-.3.2-.7.4-1 .4s-.5-.1-.5-.4v-.2zm-1.4-2.1c.9-.1 1.7-.1 2.2-.1s.7.2.7.6v.1h-1.7c-1 0-1.7.5-1.7 1.3v.5c0 1 .8 1.5 1.7 1.5s1.5-.5 1.8-.9l.2.8h1.5v-3.3c0-1.5-.8-2-2.2-2-.8 0-2.1.1-2.8.3l.3 1.2zm-.8.1v-1.4h-5.2v1.4h1.6v3.7h1.9v-3.7h1.7zm-9.3 2c0-.2.1-.4.4-.4h1.1v.6c-.3.2-.7.4-1 .4s-.5-.1-.5-.4v-.2zm-1.4-2.1c.9-.1 1.7-.1 2.2-.1s.7.2.7.6v.1h-1.7c-1 0-1.7.5-1.7 1.3v.5c0 1 .8 1.5 1.7 1.5s1.5-.5 1.8-.9l.2.8h1.5v-3.3c0-1.5-.8-2-2.2-2-.8 0-2.1.1-2.8.3l.3 1.2zm-1.3-1.3h-1.9v1.8h-1.6v-1.8h-1.9v5.2h1.9v-2.1h1.6v2.1h1.9v-5.2zm-8.8 0c-.4 0-.6.2-.7.6l-.4 1.9c-.1.3-.1.5-.1.8h-.1c0-.3 0-.5-.1-.8l-.5-1.9c-.1-.4-.3-.6-.7-.6h-1.6c-.4 0-.6.2-.7.6l-.1 4.5h1.7l.1-3.8h.1l.6 2.5c.1.4.3.6.7.6h.8c.4 0 .6-.2.7-.6l.6-2.5h.1l.1 3.8h1.7l-.1-4.5c0-.4-.2-.6-.6-.6h-1.5zm-8.6 1.2c.6 0 .8.3.8 1.4 0 1.1-.2 1.4-.8 1.4s-.8-.3-.8-1.4c0-1.2.2-1.4.8-1.4m0-1.4c-2 0-2.8.7-2.8 2.7s.7 2.7 2.8 2.7c2 0 2.8-.7 2.8-2.7 0-1.9-.7-2.7-2.8-2.7m-5.1 2.6c1.2-.2 1.1-.3 1.8-2.5h-1.9c-.4 1.7-.5 1.9-1.2 1.9h-.3c0-.2.1-.4.1-.7v-1.2h-1.9v5.2h1.9v-1.6c0-.1 0-.3-.1-.4h.4c.6 0 .6.1 1.1 2.1h2c-.7-2.5-.7-2.5-1.9-2.8zm-8.6-.1h-.7c-.5 0-.6-.1-.6-.6 0-.4.1-.5.6-.5h.7v1.1zm-2 .7c-.3 0-.9.1-1 .6l-.4 1.6h1.9l.3-1.4c0-.2.2-.3.5-.3h.7v1.7h1.8v-5.2c-.6-.1-1.2-.1-2.6-.1-1.9 0-2.4.4-2.4 1.7.1.6.3 1.1 1.2 1.4zm-5.5.4c0-.2.1-.4.4-.4h1.1v.6c-.3.2-.7.4-1 .4s-.5-.1-.5-.4v-.2zm-1.4-2.1c.9-.1 1.7-.1 2.2-.1s.7.2.7.6v.1h-1.7c-1 0-1.7.5-1.7 1.3v.5c0 1 .8 1.5 1.7 1.5s1.5-.5 1.8-.9l.2.8h1.5v-3.3c0-1.5-.8-2-2.2-2-.8 0-2.1.1-2.8.3l.3 1.2zm-1.3-1.3h-3.1c-.9 0-1.4.5-1.4 1.3-.1.9-.2 1.7-.3 2-.1.4-.4.4-.9.5l.2 1.4c1.1.2 2.2-.1 2.4-1.4.1-.5.2-1.4.3-2.2 0-.3.2-.4.5-.4h.4v3.9h1.9v-5.1zm-6.4 5.2v-5.2h-1.6l-1.6 2.5c-.2.2-.3.5-.4.8 0-.3.1-.5.1-.8v-2.4h-1.7v5.2h1.6l1.6-2.4c.1-.2.3-.6.4-.9 0 .3-.1.6-.1.9v2.3h1.7zm-8.4-3.8c1.4-.2 1.4-.8 2.2-3.4h-2c-.6 2.2-.8 2.8-1.5 2.8h-.3c.1-.3.1-.6.1-.9v-1.9h-1.9v1.9c0 .3 0 .6.1.9h-.4c-.7 0-.8-.6-1.5-2.8h-2c.8 2.6.8 3.2 2.2 3.4v.1c-1.4.2-1.5.8-2.4 3.7h2c.8-2.6.9-3.1 1.6-3.1h.4c-.1.2-.1.5-.1.7v2.4h1.9v-2.4c0-.2 0-.4-.1-.7h.3c.7 0 .8.5 1.6 3.1h2.1c-.7-3-.8-3.5-2.3-3.8z" style="clip-path:url(#SVGID_20_);fill:#3c3c3b"/><defs><path id="SVGID_21_" d="M25.9 27.3h218.4V444H25.9z"/></defs><clipPath id="SVGID_22_"><use xlink:href="#SVGID_21_" style="overflow:visible"/></clipPath><path d="m88.7 149.2.1-1.4h-4.5l-.2 3.2c0 .3.2.6.6.6l1.1.1c1 .1 1.3.2 1.3.9 0 .6-.2.8-1.2.8-.5 0-1.2 0-1.9-.1l-.2 1.5c.9.1 1.8.2 2.5.2 2 0 2.6-1.1 2.6-2.3s-.4-2.2-2.1-2.4l-1.2-.2.1-1 3 .1zm-6.7 4c-.5 0-.7.2-.7.7v.5c0 .5.2.7.7.7h.4c.5 0 .7-.2.7-.7v-.5c0-.5-.2-.7-.7-.7H82zm-6.5-4h2c.7 0 .9.1.9.7 0 .5-.1.8-.8.8h-1.4v1.3h1.4c.8 0 .9.2.9.8 0 .7-.3.9-1.2.9-.6 0-1.1 0-2-.1l-.1 1.4c.8.1 1.7.2 2.6.2 1.9 0 2.6-.6 2.6-2.1 0-1.1-.3-1.6-1.3-1.8.9-.1 1.1-.8 1.1-1.8 0-1.3-.7-1.7-2.4-1.7-.8 0-1.6.1-2.4.2l.1 1.2zm-1.4 5.7v-7.2h-1.9l-1.8.7.2 1.2 1.7-.4c-.1.3-.1.6-.1.9v4.8h1.9z" style="clip-path:url(#SVGID_22_);fill:#3c3c3b"/><defs><path id="SVGID_23_" d="M25.9 27.3h218.4V444H25.9z"/></defs><clipPath id="SVGID_24_"><use xlink:href="#SVGID_23_" style="overflow:visible"/></clipPath><path d="M93.1 141.6h-.7c-.5 0-.6-.1-.6-.6 0-.4.1-.5.6-.5h.7v1.1zm-2 .7c-.3 0-.9.1-1 .6l-.4 1.6h1.9l.3-1.4c0-.2.2-.3.5-.3h.7v1.7H95v-5.2c-.6-.1-1.2-.1-2.6-.1-1.9 0-2.4.4-2.4 1.7 0 .6.2 1.1 1.1 1.4zm-2.1-3h-1.9v1.8h-1.6v-1.8h-1.9v5.2h1.9v-2.1h1.6v2.1H89v-5.2zm-7.8 5.2h1.9l-1.5-2.6 1.4-2.5h-1.9l-1 1.9-1-1.9h-1.9l1.4 2.5-1.5 2.6H79l1.1-2.1 1.1 2.1zm-4.3-5.2h-2l-.8 3.1c-.1.2-.1.6-.2.9h-.1c0-.3-.1-.6-.1-.9l-.8-3.1h-2l1.6 4.7c.1.3.3.4.6.4h.3c-.1.3-.3.5-.5.6-.3.2-.8.2-1.4.2l-.2 1.2c.7.1 1.5.1 2.1-.1.8-.3 1.4-.8 1.8-2l1.7-5zm-8.5 1.4c1.4-.2 1.5-.8 2.3-3.4h-2c-.6 2.2-.7 2.8-1.7 2.8h-.3c.1-.3.1-.6.1-.9v-1.9h-1.9v7.2h1.9v-2.4c0-.2 0-.4-.1-.7h.3c1 0 1.1.5 1.8 3.1h2c-.8-3-.9-3.5-2.4-3.8z" style="clip-path:url(#SVGID_24_);fill:#3c3c3b"/><defs><path id="SVGID_25_" d="M25.9 27.3h218.4V444H25.9z"/></defs><clipPath id="SVGID_26_"><use xlink:href="#SVGID_25_" style="overflow:visible"/></clipPath><path d="M88.5 70.7h2c.7 0 .9.1.9.7 0 .5-.1.8-.8.8h-1.4v1.3h1.4c.8 0 .9.2.9.8 0 .7-.3.9-1.2.9-.6 0-1.1 0-2-.1l-.1 1.4c.8.1 1.7.2 2.6.2 1.9 0 2.6-.6 2.6-2.1 0-1.1-.3-1.6-1.3-1.8.9-.1 1.1-.8 1.1-1.8 0-1.3-.7-1.7-2.4-1.7-.8 0-1.6.1-2.4.2l.1 1.2zm-2.1 4c-.5 0-.7.2-.7.7v.5c0 .5.2.7.7.7h.4c.5 0 .7-.2.7-.7v-.5c0-.5-.2-.7-.7-.7h-.4zm-1.4-1h-.9v-3h-1.5l-.3 1.1v1.8H81c-.2 0-.3-.1-.2-.3l1.6-4.1h-1.8l-1.8 4.6c-.2.6.2 1.1.8 1.1h2.9v1.5h1.8V75l.8-.2v-1.1H85z" style="clip-path:url(#SVGID_26_);fill:#3c3c3b"/><defs><path id="SVGID_27_" d="M25.9 27.3h218.4V444H25.9z"/></defs><clipPath id="SVGID_28_"><use xlink:href="#SVGID_27_" style="overflow:visible"/></clipPath><path d="M104.5 61.1h-.7c-.5 0-.6-.1-.6-.6 0-.4.1-.5.6-.5h.7v1.1zm-2.1.7c-.3 0-.9.1-1 .6L101 64h1.9l.3-1.4c0-.2.2-.3.5-.3h.7V64h1.8v-5.2c-.6-.1-1.2-.1-2.6-.1-1.9 0-2.4.4-2.4 1.7.1.6.4 1.2 1.2 1.4zm-2.1 2.2v-5.2h-1.6L97 61.3c-.2.2-.3.5-.4.8 0-.3.1-.5.1-.8v-2.4H95V64h1.6l1.6-2.4c.1-.2.3-.6.4-.9 0 .3-.1.6-.1.9V64h1.8zm-8-2.8c1.2-.2 1.2-.3 1.8-2.4h-1.9c-.5 1.7-.6 1.9-1.1 1.9h-.3c0-.2.1-.4.1-.6v-1.2h-1.6V60c0 .2 0 .4.1.6h-.3c-.5 0-.6-.2-1.1-1.9h-2c.7 2.1.6 2.3 1.8 2.4v.1c-1.3.2-1.3.3-2 2.7h1.9c.7-2 .7-2.1 1.1-2.1h.4c0 .2-.1.3-.1.4V64h1.7v-1.6c0-.1 0-.3-.1-.4h.4c.5 0 .5.1 1.2 2.1h1.9c-.7-2.5-.7-2.6-1.9-2.9zm-9.5 1.5h-1.5c.3-.6.4-1.3.6-2.3 0-.3.2-.4.5-.4h.5l-.1 2.7zm2.7 0h-.9v-3.9h-2.8c-.9 0-1.4.4-1.5 1.3-.1.9-.3 1.8-.6 2.6H79v2.7h1.2l.1-1.4H84l.1 1.4h1.3v-2.7h.1zM75.9 60c.6 0 .8.3.8 1.4 0 1.1-.2 1.4-.8 1.4-.6 0-.8-.3-.8-1.4s.1-1.4.8-1.4m0-1.3c-2 0-2.8.7-2.8 2.7s.7 2.7 2.8 2.7c2 0 2.8-.7 2.8-2.7-.1-2-.8-2.7-2.8-2.7m-3.8-1.9h-3.3c-1.1 0-1.7.6-1.8 1.7-.1 1.7-.3 2.7-.5 3.3-.2.5-.5.6-1 .7l.1 1.5c1.3.2 2.2-.2 2.7-1.7.3-.9.4-2.2.6-3.7 0-.4.2-.5.6-.5h.7V64h2l-.1-7.2z" style="clip-path:url(#SVGID_28_);fill:#3c3c3b"/><path d="M32.6 197.5h35.9m-.1-.3v8m-23.9-8v8m144.8 47.9h15.1v15.1h-15.1z" class="st21"/><defs><path id="SVGID_29_" d="M25.9 27.3h218.4V444H25.9z"/></defs><clipPath id="SVGID_30_"><use xlink:href="#SVGID_29_" style="overflow:visible"/></clipPath><path d="M196.8 239.9h-.4c-.3 0-.4-.1-.4-.4 0-.2.1-.3.4-.3h.4v.7zm-1.2.4c-.2 0-.5.1-.6.3l-.2 1h1.2l.2-.8c0-.1.1-.2.3-.2h.4v1h1.1v-3.1c-.4 0-.7-.1-1.6-.1-1.1 0-1.4.2-1.4 1-.1.4.1.7.6.9zm-3.3.2c0-.1.1-.2.3-.2h.7v.4c-.2.1-.4.2-.6.2-.2 0-.3-.1-.4-.4zm-.8-1.2h1.3c.3 0 .4.1.4.4v.1h-1c-.6 0-1 .3-1 .8v.3c0 .6.5.9 1 .9s.9-.3 1.1-.5l.1.5h.9v-2c0-.9-.5-1.2-1.3-1.2-.5 0-1.2.1-1.7.2l.2.5zm-.8-.8h-1.1v1.1h-.9v-1.1h-1.1v3.1h1.1v-1.3h.9v1.3h1.1v-3.1zm-3.9 0h-1.1v1.1h-.9v-1.1h-1.1v3.1h1.1v-1.3h.9v1.3h1.1v-3.1zm-5.8 2c0-.1.1-.2.3-.2h.7v.4c-.2.1-.4.2-.6.2-.2 0-.3-.1-.4-.4zm-.9-1.2h1.3c.3 0 .4.1.4.4v.1h-1c-.6 0-1 .3-1 .8v.3c0 .6.5.9 1 .9s.9-.3 1.1-.5l.1.5h.9v-2c0-.9-.5-1.2-1.3-1.2-.5 0-1.2.1-1.7.2l.2.5zm-3 1.5v-1.1h.6c.5 0 .6.1.6.6 0 .4-.1.5-.6.5h-.6zm0-1.8v-1h.6c.4 0 .5.1.5.5s-.1.5-.5.5h-.6zm1.4.3c.5 0 .8-.4.8-1 0-.9-.4-1.1-1.6-1.1-.8 0-1.2 0-1.8.1v4.3h2c1.1 0 1.5-.2 1.5-1.1 0-.7-.2-1.1-.9-1.2z" style="clip-path:url(#SVGID_30_);fill:#3c3c3b"/><defs><path id="SVGID_31_" d="M25.9 27.3h218.4V444H25.9z"/></defs><clipPath id="SVGID_32_"><use xlink:href="#SVGID_31_" style="overflow:visible"/></clipPath><path d="M191 244.8v-.9h-2.7l-.1 1.9c0 .2.1.4.3.4l.7.1c.6.1.8.1.8.5 0 .3-.1.5-.7.5-.3 0-.7 0-1.1-.1l-.1.9c.6.1 1.1.1 1.5.1 1.2 0 1.6-.6 1.6-1.4 0-.7-.3-1.3-1.3-1.4l-.7-.1v-.6h1.8v.1zm-4 2.4c-.3 0-.4.1-.4.4v.3c0 .3.1.4.4.4h.3c.3 0 .4-.1.4-.4v-.3c0-.3-.1-.4-.4-.4h-.3zm-3.9-2.4h1.2c.4 0 .6.1.6.4 0 .3 0 .5-.5.5h-.8v.8h.8c.5 0 .6.1.6.5s-.2.5-.7.5h-1.2v.8c.5.1 1 .1 1.5.1 1.1 0 1.6-.4 1.5-1.3 0-.7-.2-1-.8-1.1.6-.1.7-.5.7-1.1 0-.8-.4-1-1.5-1-.5 0-1 0-1.4.1v.8z" style="clip-path:url(#SVGID_32_);fill:#3c3c3b"/><defs><path id="SVGID_33_" d="M25.9 27.3h218.4V444H25.9z"/></defs><clipPath id="SVGID_34_"><use xlink:href="#SVGID_33_" style="overflow:visible"/></clipPath><path d="M189.5 198.8h-1.2l-.5 1.8c0 .1-.1.3-.1.5h-.1c0-.2-.1-.4-.1-.5l-.5-1.8h-1.2l1 2.8c.1.2.2.3.4.3h.2c-.1.2-.2.3-.3.4-.2.1-.5.1-.9.1l-.1.7c.4.1.9.1 1.3-.1.5-.2.8-.5 1.1-1.2l1-3zm-6.1 3.6 2.5-4.8h-.9l-2.5 4.8h.9zm-1.3-1.4c-.4 0-.8.1-1.4.1-.5 0-.7-.3-.7-1.2 0-1 .1-1.2.7-1.2h1.3l.1-.9c-.4-.1-.7-.2-1.4-.2-1.4 0-1.9.6-1.9 2.2s.5 2.2 1.9 2.2c.6 0 1 0 1.5-.2l-.1-.8z" style="clip-path:url(#SVGID_34_);fill:#3c3c3b"/><defs><path id="SVGID_35_" d="M25.9 27.3h218.4V444H25.9z"/></defs><clipPath id="SVGID_36_"><use xlink:href="#SVGID_35_" style="overflow:visible"/></clipPath><path d="M186.4 207.8c-.5 0-.6-.2-.6-1.1.2-.1.3-.2.6-.2.4 0 .5.1.5.6s-.1.7-.5.7m1.3-3.4c-.4-.1-.9-.1-1.1-.1-1.3 0-1.9.3-1.9 2.3 0 1.7.4 2.2 1.7 2.2s1.6-.5 1.6-1.6c0-.9-.3-1.3-1.3-1.3-.4 0-.6.1-.9.3 0-.8.2-.9.7-.9h1.1l.1-.9zm-4.2 3.2c-.3 0-.4.1-.4.4v.3c0 .3.1.4.4.4h.3c.3 0 .4-.1.4-.4v-.3c0-.3-.1-.4-.4-.4h-.3zm-1.2 1v-4.3h-1.2l-1.1.4.1.7 1-.2v3.4h1.2z" style="clip-path:url(#SVGID_36_);fill:#3c3c3b"/><path d="M219.5 192.3v24.4m1.5-23.1h5.4v4.1H221zm-177.5 3.6v8" class="st21"/><defs><path id="SVGID_37_" d="M25.9 27.3h218.4V444H25.9z"/></defs><clipPath id="SVGID_38_"><use xlink:href="#SVGID_37_" style="overflow:visible"/></clipPath><path d="M194 351.4h4.6c1.7 0 2.1.2 2.1 1.5 0 1.1-.1 1.8-1.9 1.8h-3.1v2.9h3.1c1.8 0 2.1.5 2.1 1.9 0 1.7-.6 2-2.7 2-1.4 0-2.5 0-4.5-.1l-.1 3.2c1.9.3 3.9.5 5.9.5 4.4 0 5.9-1.4 5.9-4.9 0-2.5-.7-3.8-3-4.1v-.1c2.1-.3 2.6-1.8 2.6-4.1 0-2.9-1.5-3.8-5.5-3.8-1.8 0-3.6.1-5.5.5v2.8zm-4.8 9.2c-1.1 0-1.5.4-1.5 1.5v1c0 1.1.4 1.5 1.5 1.5h1c1.1 0 1.5-.4 1.5-1.5v-1c0-1.1-.4-1.5-1.5-1.5h-1zm-4-9.1.2-3.3h-10.3l-.4 7.4c0 .8.5 1.4 1.3 1.5l2.5.3c2.2.2 3 .5 2.9 2-.1 1.3-.6 1.9-2.7 1.9-1.2 0-2.7-.1-4.3-.2l-.4 3.4c2.1.3 4.2.5 5.8.5 4.7 0 6-2.4 6-5.4 0-2.6-1-5-4.8-5.4l-2.7-.4.2-2.3h6.7zm-18.7 10.2c-1.9 0-2.1-.6-2.1-4.2.8-.5 1.3-.6 2.1-.6 1.6 0 1.9.4 1.9 2.2 0 1.8-.1 2.6-1.9 2.6m5-13.3c-1.7-.5-3.4-.5-4.2-.5-4.8 0-7.2 1.2-7.2 8.7 0 6.7 1.5 8.3 6.4 8.3 5 0 6.1-1.9 6.1-6 0-3.6-1.1-5.1-4.8-5.1-1.5 0-2.5.2-3.4 1 .1-3.1.7-3.6 2.8-3.6h4l.3-2.8z" style="clip-path:url(#SVGID_38_);fill:#3c3c3b"/><defs><path id="SVGID_39_" d="M25.9 27.3h218.4V444H25.9z"/></defs><clipPath id="SVGID_40_"><use xlink:href="#SVGID_39_" style="overflow:visible"/></clipPath><circle cx="182.7" cy="329.7" r="14.6" style="clip-path:url(#SVGID_40_);fill:none;stroke:#3c3c3b"/><defs><path id="SVGID_41_" d="M25.9 27.3h218.4V444H25.9z"/></defs><clipPath id="SVGID_42_"><use xlink:href="#SVGID_41_" style="overflow:visible"/></clipPath><path d="M189.5 329.5c2.5-.3 2.5-1.4 3.9-5.9H190c-1 3.7-1.2 4.8-3 4.8h-.6c.1-.5.1-1 .1-1.6v-3.3h-3.4V336h3.4v-4.2c0-.3-.1-.8-.1-1.2h.6c1.7 0 1.9.8 3.2 5.3h3.5c-1.5-5.1-1.7-6.1-4.3-6.4h.1zm-17.1-3.2c1.7-.1 2.6-.1 3.9-.1 1 0 1.4.1 1.4.6 0 .7-.8 1.8-2.2 3.2l-2.8 2.9c-.4.4-.5.8-.5 1.4v1.8h9.3v-2.9h-3.6c-.6 0-1.2 0-1.7.2l3.1-3c1.6-1.7 1.9-2.5 1.9-3.9 0-2.4-1.7-3-4.4-3-1.4 0-2.6.1-4.4.4v2.4z" style="clip-path:url(#SVGID_42_);fill:#3c3c3b"/><defs><path id="SVGID_43_" d="M25.9 27.3h218.4V444H25.9z"/></defs><clipPath id="SVGID_44_"><use xlink:href="#SVGID_43_" style="overflow:visible"/></clipPath><path d="M199.2 205c0-2.8 2.3-5.1 5.1-5.1h7.4c.5 0 .9.4.9.9v8.5c0 .5-.4.9-.9.9h-7.4c-2.8-.1-5.1-2.4-5.1-5.2m13.8 4.2v-8.5c0-.7-.6-1.2-1.2-1.2h-7.4c-3 0-5.5 2.5-5.5 5.5s2.5 5.5 5.5 5.5h7.4c.6 0 1.2-.6 1.2-1.3" style="clip-path:url(#SVGID_44_);fill:#3c3c3b"/><defs><path id="SVGID_45_" d="M25.9 27.3h218.4V444H25.9z"/></defs><clipPath id="SVGID_46_"><use xlink:href="#SVGID_45_" style="overflow:visible"/></clipPath><path d="M199.2 205c0-2.8 2.3-5.1 5.1-5.1h7.4c.5 0 .9.4.9.9v8.5c0 .5-.4.9-.9.9h-7.4c-2.8-.1-5.1-2.4-5.1-5.2zm13.8 4.2v-8.5c0-.7-.6-1.2-1.2-1.2h-7.4c-3 0-5.5 2.5-5.5 5.5s2.5 5.5 5.5 5.5h7.4c.6 0 1.2-.6 1.2-1.3z" style="clip-path:url(#SVGID_46_);fill:none;stroke:#3c3c3b;stroke-width:.25"/><defs><path id="SVGID_47_" d="M25.9 27.3h218.4V444H25.9z"/></defs><clipPath id="SVGID_48_"><use xlink:href="#SVGID_47_" style="overflow:visible"/></clipPath><path d="M210.2 201.3v7.3s0 .1-.1.1h-5.6c-2.1 0-3.8-1.7-3.8-3.8s1.7-3.8 3.8-3.8l5.7.2c-.1 0 0 0 0 0z" style="clip-path:url(#SVGID_48_);fill:none;stroke:#3c3c3b;stroke-width:.25"/><defs><path id="SVGID_49_" d="M25.9 27.3h218.4V444H25.9z"/></defs><clipPath id="SVGID_50_"><use xlink:href="#SVGID_49_" style="overflow:visible"/></clipPath><path d="M210 201.4v7.2h-5.5c-2 0-3.6-1.6-3.6-3.6s1.6-3.6 3.6-3.6h5.5zm.3 7.3v-7.3c0-.1-.1-.3-.3-.3h-5.6c-2.2 0-3.9 1.8-3.9 3.9 0 2.2 1.8 3.9 3.9 3.9h5.6c.2 0 .3-.1.3-.2" style="clip-path:url(#SVGID_50_);fill:#3c3c3b"/><defs><path id="SVGID_51_" d="M25.9 27.3h218.4V444H25.9z"/></defs><clipPath id="SVGID_52_"><use xlink:href="#SVGID_51_" style="overflow:visible"/></clipPath><path d="M210 201.4v7.2h-5.5c-2 0-3.6-1.6-3.6-3.6s1.6-3.6 3.6-3.6h5.5zm.3 7.3v-7.3c0-.1-.1-.3-.3-.3h-5.6c-2.2 0-3.9 1.8-3.9 3.9 0 2.2 1.8 3.9 3.9 3.9h5.6c.2 0 .3-.1.3-.2z" style="clip-path:url(#SVGID_52_);fill:none;stroke:#3c3c3b;stroke-width:.25"/><path d="m156.6 176.1-.7-1.2-23.4 14.1.8 1.2zm.9 31.9-1.3-.8 11.8-19.6 1.3.8zm0 29.2-1.2.8 11.8 19.6 1.3-.8zm-1 47.7-.7 1.3-23.3-14 .7-1.3z" class="st34"/><defs><path id="SVGID_53_" d="M25.9 27.3h218.4V444H25.9z"/></defs><clipPath id="SVGID_54_"><use xlink:href="#SVGID_53_" style="overflow:visible"/></clipPath><path d="M155.7 286.6s2.1-3.1 3.3-7.6c1.2-4.6 1.4-7.1 1.4-7.1" style="clip-path:url(#SVGID_54_);fill:none;stroke:#3c3c3b;stroke-width:.7"/><defs><path id="SVGID_55_" d="M25.9 27.3h218.4V444H25.9z"/></defs><clipPath id="SVGID_56_"><use xlink:href="#SVGID_55_" style="overflow:visible"/></clipPath><path d="M155.9 238.1s3.1-2.1 7.6-3.3c4.6-1.2 7.1-1.4 7.1-1.4" style="clip-path:url(#SVGID_56_);fill:none;stroke:#3c3c3b;stroke-width:.7"/><path d="m43.9 236.2 1.3.7-16.1 26.8-1.3-.8z" class="st34"/><defs><path id="SVGID_57_" d="M25.9 27.3h218.4V444H25.9z"/></defs><clipPath id="SVGID_58_"><use xlink:href="#SVGID_57_" style="overflow:visible"/></clipPath><path d="M45.6 237s-3.1-2.1-7.6-3.3c-4.6-1.2-7.1-1.4-7.1-1.4" style="clip-path:url(#SVGID_58_);fill:none;stroke:#3c3c3b;stroke-width:.7"/><path d="m105.5 195.2.6-1.1 26.8 16.1-.6 1z" class="st34"/><defs><path id="SVGID_59_" d="M25.9 27.3h218.4V444H25.9z"/></defs><clipPath id="SVGID_60_"><use xlink:href="#SVGID_59_" style="overflow:visible"/></clipPath><path d="M106.3 193.8s-2.1 3.1-3.3 7.6c-1.2 4.6-1.4 7.1-1.4 7.1" style="clip-path:url(#SVGID_60_);fill:none;stroke:#3c3c3b;stroke-width:.7"/><defs><path id="SVGID_61_" d="M25.9 27.3h218.4V444H25.9z"/></defs><clipPath id="SVGID_62_"><use xlink:href="#SVGID_61_" style="overflow:visible"/></clipPath><path d="M155.9 207.1s3.1 2.1 7.6 3.3c4.6 1.2 7.1 1.4 7.1 1.4" style="clip-path:url(#SVGID_62_);fill:none;stroke:#3c3c3b;stroke-width:.7"/><defs><path id="SVGID_63_" d="M25.9 27.3h218.4V444H25.9z"/></defs><clipPath id="SVGID_64_"><use xlink:href="#SVGID_63_" style="overflow:visible"/></clipPath><path d="M155.8 174.5s2.1 3.1 3.3 7.6c1.2 4.6 1.4 7.1 1.4 7.1" style="clip-path:url(#SVGID_64_);fill:none;stroke:#3c3c3b;stroke-width:.7"/><path d="m60 94.4-.8 1.2-17.3-10.5.8-1.2z" class="st34"/><defs><path id="SVGID_65_" d="M25.9 27.3h218.4V444H25.9z"/></defs><clipPath id="SVGID_66_"><use xlink:href="#SVGID_65_" style="overflow:visible"/></clipPath><path d="M59.1 96s2.1-3.1 3.3-7.6c.6-2.4 1-4.3 1.2-5.5" style="clip-path:url(#SVGID_66_);fill:none;stroke:#3c3c3b;stroke-width:.7"/><defs><path id="SVGID_67_" d="M25.9 27.3h218.4V444H25.9z"/></defs><clipPath id="SVGID_68_"><use xlink:href="#SVGID_67_" style="overflow:visible"/></clipPath><path d="M204.5 205c0-.5.4-1 1-1s1 .4 1 1c0 .5-.4 1-1 1s-1-.5-1-1m2.3 0c0-.7-.6-1.3-1.3-1.3s-1.3.6-1.3 1.3.6 1.3 1.3 1.3 1.3-.6 1.3-1.3" style="clip-path:url(#SVGID_68_);fill:#3c3c3b"/><defs><path id="SVGID_69_" d="M25.9 27.3h218.4V444H25.9z"/></defs><clipPath id="SVGID_70_"><use xlink:href="#SVGID_69_" style="overflow:visible"/></clipPath><path d="M204.5 205c0-.5.4-1 1-1s1 .4 1 1c0 .5-.4 1-1 1s-1-.5-1-1zm2.3 0c0-.7-.6-1.3-1.3-1.3s-1.3.6-1.3 1.3.6 1.3 1.3 1.3 1.3-.6 1.3-1.3z" style="clip-path:url(#SVGID_70_);fill:none;stroke:#3c3c3b;stroke-width:.25"/><path d="m206.876 203.622 2.323-1.736.24.32-2.323 1.736z" class="st2"/><path d="M206.7 202.7h2.9v.4h-2.9z" style="fill:none;stroke:#3c3c3b;stroke-width:.25;stroke-miterlimit:4.0001" transform="rotate(-36.774 208.175 202.896)"/><path d="m209.5 207.8-2.4-1.7-.2.2 2.3 1.8z" class="st2"/><path d="m209.5 207.8-2.4-1.7-.2.2 2.3 1.8z" class="st45"/><defs><path id="SVGID_71_" d="M25.9 27.3h218.4V444H25.9z"/></defs><clipPath id="SVGID_72_"><use xlink:href="#SVGID_71_" style="overflow:visible"/></clipPath><path d="M213 201.5c0-.8.6-1.4 1.4-1.4h1.9c.8 0 1.4.6 1.4 1.4v7.1c0 .8-.6 1.4-1.4 1.4h-1.9c-.8 0-1.4-.6-1.4-1.4v-7.1zm5.1 7v-7.1c0-1-.8-1.8-1.8-1.8h-1.9c-1 0-1.8.8-1.8 1.8v7.1c0 1 .8 1.8 1.8 1.8h1.9c1 0 1.8-.8 1.8-1.8" style="clip-path:url(#SVGID_72_);fill:#3c3c3b"/><defs><path id="SVGID_73_" d="M25.9 27.3h218.4V444H25.9z"/></defs><clipPath id="SVGID_74_"><use xlink:href="#SVGID_73_" style="overflow:visible"/></clipPath><path d="M213 201.5c0-.8.6-1.4 1.4-1.4h1.9c.8 0 1.4.6 1.4 1.4v7.1c0 .8-.6 1.4-1.4 1.4h-1.9c-.8 0-1.4-.6-1.4-1.4v-7.1zm5.1 7v-7.1c0-1-.8-1.8-1.8-1.8h-1.9c-1 0-1.8.8-1.8 1.8v7.1c0 1 .8 1.8 1.8 1.8h1.9c1 0 1.8-.8 1.8-1.8z" style="clip-path:url(#SVGID_74_);fill:none;stroke:#3c3c3b;stroke-width:.25"/><defs><path id="SVGID_75_" d="M25.9 27.3h218.4V444H25.9z"/></defs><clipPath id="SVGID_76_"><use xlink:href="#SVGID_75_" style="overflow:visible"/></clipPath><path d="M214.8 205c0-.3.2-.5.5-.5s.5.2.5.5-.2.5-.5.5c-.2.1-.5-.2-.5-.5m1.5 0c0-.5-.4-.9-.9-.9s-.9.4-.9.9.4.9.9.9.9-.4.9-.9" style="clip-path:url(#SVGID_76_);fill:#3c3c3b"/><defs><path id="SVGID_77_" d="M25.9 27.3h218.4V444H25.9z"/></defs><clipPath id="SVGID_78_"><use xlink:href="#SVGID_77_" style="overflow:visible"/></clipPath><path d="M214.8 205c0-.3.2-.5.5-.5s.5.2.5.5-.2.5-.5.5c-.2.1-.5-.2-.5-.5zm1.5 0c0-.5-.4-.9-.9-.9s-.9.4-.9.9.4.9.9.9.9-.4.9-.9z" style="clip-path:url(#SVGID_78_);fill:none;stroke:#3c3c3b;stroke-width:.25"/><path d="M45.6 198.6h15.9v5.6H45.6zm17.7 0h4.1v5.6h-4.1z" class="st21"/><defs><path id="SVGID_79_" d="M25.9 27.3h218.4V444H25.9z"/></defs><clipPath id="SVGID_80_"><use xlink:href="#SVGID_79_" style="overflow:visible"/></clipPath><path d="M220.7 266.9s5.7 0 5.7-5.7v-33.9s0-5.7-5.7-5.7h-7.6s-5.7 0-5.7 5.7v33.9s0 5.7 5.7 5.7h7.6z" style="clip-path:url(#SVGID_80_);fill:none;stroke:#3c3c3b;stroke-width:.7"/><defs><path id="SVGID_81_" d="M25.9 27.3h218.4V444H25.9z"/></defs><clipPath id="SVGID_82_"><use xlink:href="#SVGID_81_" style="overflow:visible"/></clipPath><path d="M218.9 263.8s5.7 0 5.7-5.7v-27.6s0-5.7-5.7-5.7h-4.1s-5.7 0-5.7 5.7v27.6s0 5.7 5.7 5.7h4.1z" style="clip-path:url(#SVGID_82_);fill:none;stroke:#3c3c3b;stroke-width:.7"/><defs><path id="SVGID_83_" d="M25.9 27.3h218.4V444H25.9z"/></defs><clipPath id="SVGID_84_"><use xlink:href="#SVGID_83_" style="overflow:visible"/></clipPath><path d="M220.1 260s2.8 0 2.8-2.8v-27.7s0-2.8-2.8-2.8h-6.3s-2.8 0-2.8 2.8v27.7s0 2.8 2.8 2.8h6.3z" style="clip-path:url(#SVGID_84_);fill:none;stroke:#3c3c3b;stroke-width:.7"/><defs><path id="SVGID_85_" d="M25.9 27.3h218.4V444H25.9z"/></defs><clipPath id="SVGID_86_"><use xlink:href="#SVGID_85_" style="overflow:visible"/></clipPath><path d="M216.9 230c-.5 0-.8.4-.8.8 0 .5.4.8.8.8.5 0 .8-.4.8-.8 0-.5-.3-.8-.8-.8z" style="clip-path:url(#SVGID_86_);fill:none;stroke:#3c3c3b;stroke-width:.7"/><path d="M206.4 268.6v-48.8" class="st34"/><defs><path id="SVGID_87_" d="M25.9 27.3h218.4V444H25.9z"/></defs><clipPath id="SVGID_88_"><use xlink:href="#SVGID_87_" style="overflow:visible"/></clipPath><path d="M195.8 232.2c-3 0-5.4-2.4-5.4-5.4V221c0-.5.4-.8.8-.8h12.3c.5 0 .8.4.8.8v5.8c0 3-2.4 5.4-5.4 5.4h-3.1zm7.7-12.3h-12.3c-.6 0-1.1.5-1.1 1.1v5.8c0 3.2 2.6 5.7 5.7 5.7h3.1c3.2 0 5.7-2.6 5.7-5.7V221c0-.6-.5-1.1-1.1-1.1" style="clip-path:url(#SVGID_88_);fill:#3c3c3b"/><defs><path id="SVGID_89_" d="M25.9 27.3h218.4V444H25.9z"/></defs><clipPath id="SVGID_90_"><use xlink:href="#SVGID_89_" style="overflow:visible"/></clipPath><path d="M195.8 232.2c-3 0-5.4-2.4-5.4-5.4V221c0-.5.4-.8.8-.8h12.3c.5 0 .8.4.8.8v5.8c0 3-2.4 5.4-5.4 5.4h-3.1zm7.7-12.3h-12.3c-.6 0-1.1.5-1.1 1.1v5.8c0 3.2 2.6 5.7 5.7 5.7h3.1c3.2 0 5.7-2.6 5.7-5.7V221c0-.6-.5-1.1-1.1-1.1z" style="clip-path:url(#SVGID_90_);fill:none;stroke:#3c3c3b;stroke-width:.25"/><defs><path id="SVGID_91_" d="M25.9 27.3h218.4V444H25.9z"/></defs><clipPath id="SVGID_92_"><use xlink:href="#SVGID_91_" style="overflow:visible"/></clipPath><path d="M195.8 230.9c-2.2 0-4.1-1.8-4.1-4.1v-3.4c0-.4.3-.7.7-.7h9.8c.4 0 .7.3.7.7v3.4c0 2.2-1.8 4.1-4.1 4.1h-3zm6.4-8.4h-9.8c-.6 0-1 .5-1 1v3.4c0 2.4 2 4.4 4.4 4.4h3.1c2.4 0 4.4-2 4.4-4.4v-3.4c-.1-.6-.5-1-1.1-1" style="clip-path:url(#SVGID_92_);fill:#3c3c3b"/><defs><path id="SVGID_93_" d="M25.9 27.3h218.4V444H25.9z"/></defs><clipPath id="SVGID_94_"><use xlink:href="#SVGID_93_" style="overflow:visible"/></clipPath><path d="M195.8 230.9c-2.2 0-4.1-1.8-4.1-4.1v-3.4c0-.4.3-.7.7-.7h9.8c.4 0 .7.3.7.7v3.4c0 2.2-1.8 4.1-4.1 4.1h-3zm6.4-8.4h-9.8c-.6 0-1 .5-1 1v3.4c0 2.4 2 4.4 4.4 4.4h3.1c2.4 0 4.4-2 4.4-4.4v-3.4c-.1-.6-.5-1-1.1-1z" style="clip-path:url(#SVGID_94_);fill:none;stroke:#3c3c3b;stroke-width:.25"/><defs><path id="SVGID_95_" d="M25.9 27.3h218.4V444H25.9z"/></defs><clipPath id="SVGID_96_"><use xlink:href="#SVGID_95_" style="overflow:visible"/></clipPath><path d="M197.3 228c-.4 0-.7-.3-.7-.7s.3-.7.7-.7.7.3.7.7-.3.7-.7.7m0-1.6c-.5 0-1 .4-1 1 0 .5.4 1 1 1 .5 0 1-.4 1-1s-.4-1-1-1" style="clip-path:url(#SVGID_96_);fill:#3c3c3b"/><defs><path id="SVGID_97_" d="M25.9 27.3h218.4V444H25.9z"/></defs><clipPath id="SVGID_98_"><use xlink:href="#SVGID_97_" style="overflow:visible"/></clipPath><path d="M197.3 228c-.4 0-.7-.3-.7-.7s.3-.7.7-.7.7.3.7.7-.3.7-.7.7zm0-1.6c-.5 0-1 .4-1 1 0 .5.4 1 1 1 .5 0 1-.4 1-1s-.4-1-1-1z" style="clip-path:url(#SVGID_98_);fill:none;stroke:#3c3c3b;stroke-width:.25"/><path d="M33.1 196.1h16.2v-16.2H33.1v16.2zm-.4-16.6h17v17h-17v-17z" class="st2"/><path d="M33.1 196.1h16.2v-16.2H33.1v16.2zm-.4-16.6h17v17h-17v-17z" class="st45"/><defs><path id="SVGID_99_" d="M25.9 27.3h218.4V444H25.9z"/></defs><clipPath id="SVGID_100_"><use xlink:href="#SVGID_99_" style="overflow:visible"/></clipPath><path d="M47.9 182.3c0-.4-.3-.7-.7-.7h-8.5c-.4 0-.7.3-.7.7v11.4c0 .4.3.7.7.7h8.5c.4 0 .7-.3.7-.7v-11.4zm-10.4 11.4v-11.4c0-.6.5-1.1 1.1-1.1h8.5c.6 0 1.1.5 1.1 1.1v11.4c0 .6-.5 1.1-1.1 1.1h-8.5c-.6 0-1.1-.5-1.1-1.1" style="clip-path:url(#SVGID_100_);fill:#3c3c3b"/><defs><path id="SVGID_101_" d="M25.9 27.3h218.4V444H25.9z"/></defs><clipPath id="SVGID_102_"><use xlink:href="#SVGID_101_" style="overflow:visible"/></clipPath><path d="M47.9 182.3c0-.4-.3-.7-.7-.7h-8.5c-.4 0-.7.3-.7.7v11.4c0 .4.3.7.7.7h8.5c.4 0 .7-.3.7-.7v-11.4zm-10.4 11.4v-11.4c0-.6.5-1.1 1.1-1.1h8.5c.6 0 1.1.5 1.1 1.1v11.4c0 .6-.5 1.1-1.1 1.1h-8.5c-.6 0-1.1-.5-1.1-1.1z" style="clip-path:url(#SVGID_102_);fill:none;stroke:#3c3c3b;stroke-width:.25"/><path d="M39.1 193.2h7.5v-10.3h-7.5v10.3zm-.3-10.7H47v11h-8.2v-11z" class="st2"/><path d="M39.1 193.2h7.5v-10.3h-7.5v10.3zm-.3-10.7H47v11h-8.2v-11z" class="st45"/><defs><path id="SVGID_103_" d="M25.9 27.3h218.4V444H25.9z"/></defs><clipPath id="SVGID_104_"><use xlink:href="#SVGID_103_" style="overflow:visible"/></clipPath><path d="M44.3 188c0-.5-.4-.9-.9-.9s-.9.4-.9.9.4.9.9.9.9-.4.9-.9m-2.2 0c0-.7.6-1.3 1.3-1.3s1.3.6 1.3 1.3-.6 1.3-1.3 1.3c-.7 0-1.3-.6-1.3-1.3" style="clip-path:url(#SVGID_104_);fill:#3c3c3b"/><defs><path id="SVGID_105_" d="M25.9 27.3h218.4V444H25.9z"/></defs><clipPath id="SVGID_106_"><use xlink:href="#SVGID_105_" style="overflow:visible"/></clipPath><path d="M44.3 188c0-.5-.4-.9-.9-.9s-.9.4-.9.9.4.9.9.9.9-.4.9-.9zm-2.2 0c0-.7.6-1.3 1.3-1.3s1.3.6 1.3 1.3-.6 1.3-1.3 1.3c-.7 0-1.3-.6-1.3-1.3z" style="clip-path:url(#SVGID_106_);fill:none;stroke:#3c3c3b;stroke-width:.25"/></svg>