<svg xmlns="http://www.w3.org/2000/svg" xml:space="preserve" id="Слой_1" x="0" y="0" style="enable-background:new 0 0 1280 1024" version="1.1" viewBox="0 0 1280 1024"><style>.st0{fill:#fbf4a6}.st1{fill:#39373a}.st2{stroke-width:.866}.st2,.st4,.st5,.st7{fill:none;stroke:#39373a}.st4{stroke-width:.52}.st5{stroke-width:.347}.st7{stroke-width:.217}.st10{enable-background:new}.st11,.st12{fill:none;stroke:#39373a}.st11{stroke-width:.866;stroke-miterlimit:4}.st12{stroke-width:.6}</style><path d="M536.7 207.7h402.1v694.6H536.7z" class="st0"/><path d="M328.7 453.7h402.1v124.9H328.7z" class="st0"/><path d="m964.1 182.8-83.8-.1v4.9h6.1v19.5h53.5v721.2h24.3z" class="st1"/><path d="m964.1 182.8-83.8-.1v4.9h6.1v19.5h53.5v721.2h24.3z" class="st2"/><path d="m719 182.8 83.8-.1v4.9h-6.1v19.5H719z" class="st1"/><path d="m719 182.8 83.8-.1v4.9h-6.1v19.5H719z" class="st2"/><path d="m774 182.8-83.8-.1v4.9h6.1v19.5H774z" class="st1"/><path d="m774 182.8-83.8-.1v4.9h6.1v19.5H774z" class="st2"/><path d="M514 182.6h62.1v4.9h-4.5v19.4H514zm219.1-67.5h9.9v389.3h-9.9z" class="st1"/><path d="M733.1 115.1h9.9v389.3h-9.9z" class="st2"/><path d="M733.1 556.6h9.9V923h-9.9z" class="st1"/><path d="M733.1 556.6h9.9V923h-9.9z" class="st2"/><path d="M523.9 585.2h11.7V923h-11.7z" class="st1"/><path d="M523.9 585.2h11.7V923h-11.7z" class="st2"/><path d="M315 576.9h336.5v9.9H315zM525.5 89h9.9v115.4h-9.9z" class="st1"/><path d="M525.5 89h9.9v115.4h-9.9z" class="st2"/><path d="M525.5 206.4h9.9v289.2h-9.9z" class="st1"/><path d="M525.5 206.4h9.9v289.2h-9.9z" class="st2"/><path d="M513.5 206.4h14v244.8h-14z" class="st1"/><path d="M513.5 206.4h14v244.8h-14z" class="st2"/><path d="M316.5 451.5h11.7V508h-11.7zm-1 107h11.7V587h-11.7zm210-72.8h37.3v9.9h-37.3z" class="st1"/><path d="M525.5 485.7h37.3v9.9h-37.3z" class="st2"/><path d="M316 445.4h211.5v9.9H316z" class="st1"/><path d="M316 445.4h211.5v9.9H316z" class="st2"/><path d="M641.2 485.7h98.9v9.9h-98.9z" class="st1"/><path d="M641.2 485.7h98.9v9.9h-98.9z" class="st2"/><path d="M796.2 407.8h151.2v9.9H796.2z" class="st1"/><path d="M796.2 407.8h151.2v9.9H796.2z" class="st2"/><path d="M812.6 470h134.7v5.3H812.6z" class="st1"/><path d="M812.6 470h134.7v5.3H812.6z" class="st2"/><path d="M811.9 456.1h5.3v52.5h-5.3z" class="st1"/><path d="M811.9 456.1h5.3v52.5h-5.3z" class="st2"/><path d="M811.9 542.8h5.3v43.9h-5.3z" class="st1"/><path d="M811.9 542.8h5.3v43.9h-5.3z" class="st2"/><path d="M795.9 576.9h151.5v9.9H795.9z" class="st1"/><path d="M795.9 576.9h151.5v9.9H795.9z" class="st2"/><path d="M701.5 576.9h32.4v9.9h-32.4z" class="st1"/><path d="M701.5 576.9h32.4v9.9h-32.4z" class="st2"/><path d="M954.4 928.3h-60v-4.8h6.1V904h53.9z" class="st1"/><path d="M954.4 928.3h-60v-4.8h6.1V904h53.9z" class="st2"/><path d="M725.1 928.3h60v-4.8H779V904h-53.9z" class="st1"/><path d="M725.1 928.3h60v-4.8H779V904h-53.9z" class="st2"/><path d="M746.4 928.3h-60v-4.8h6.1V904h53.9z" class="st1"/><path d="M746.4 928.3h-60v-4.8h6.1V904h53.9z" class="st2"/><path d="M524 928.3h53.3v-4.8h-5.4V904H524z" class="st1"/><path d="M524 928.3h53.3v-4.8h-5.4V904H524z" class="st2"/><path d="M543.8 928.3H524v-4.8h2V904h17.8z" class="st1"/><path d="M633.6 2.6h5.7v208.1h-5.7z" style="fill:none;stroke:#39373a;stroke-width:.52;stroke-miterlimit:4.0001" transform="rotate(-81.756 636.45 106.66)"/><path d="M568.1 923.1h153.4v5.7H568.1zm2.1-19.5h149v19.5h-149zm200.7 19.5h153.4v5.7H770.9zm2.2-19.5h149v19.5h-149zM350.3 512.1l2.4 1.4-32.7 54.6-2.3-1.4z" class="st4"/><path d="M350.1 511.8s-4.6-2.9-14.7-4.5-16.5-1.1-16.5-1.1" class="st5"/><path d="m789.7 385.2-1.4-2.4-54.6 32.7 1.4 2.3z" class="st4"/><path d="M790 385.4s2.9 4.6 4.5 14.7 1.1 16.5 1.1 16.5" class="st5"/><path d="m789.7 609.4-1.4 2.3-54.6-32.6 1.4-2.4z" class="st4"/><path d="M790 609.1s2.9-4.6 4.5-14.7 1.1-16.5 1.1-16.5" class="st5"/><path d="m657.9 609.4 1.4 2.3 54.6-32.6-1.4-2.4z" class="st4"/><path d="M657.6 609.1s-2.9-4.6-4.5-14.7-1.1-16.5-1.1-16.5" class="st5"/><path d="m795.1 513.3-1.6 1 22.4 37.5 1.6-1z" class="st4"/><path d="M795.3 513.1s3.1-2.2 10.1-3.3c7-1.1 11.5-.7 11.5-.7" class="st5"/><path d="m795.1 451.3-1.6-.9 22.4-37.5 1.6 1z" class="st4"/><path d="M795.3 451.6s3.1 2.2 10.1 3.3c7 1.1 11.5.7 11.5.7" class="st5"/><path d="M776.9 182.3h122.6v5.7H776.9zm0 5.7h122.6v19.5H776.9z" class="st4"/><path d="M587.5 179.6h1.9v41.2h-1.9z" style="fill:none;stroke:#39373a;stroke-width:.52;stroke-miterlimit:3.9999" transform="rotate(-59.263 588.45 200.18)"/><path d="M608.4 182.3H731v5.7H608.4zm8.6 5.7h122.6v19.5H617z" class="st4"/><path d="M606.9 209.6s2.3-3.1 3.4-10.3c1.1-7.2.8-11.1.8-11.1" class="st5"/><path d="M925.6 573.4c6.5 0 11.7-5.3 11.7-11.7v-70.1c0-6.5-5.3-11.7-11.7-11.7h-15.7c-6.5 0-11.7 5.3-11.7 11.7v70.1c0 6.5 5.3 11.7 11.7 11.7h15.7z" class="st4"/><path d="M922 566.9c6.5 0 11.7-5.3 11.7-11.7V498c0-6.5-5.3-11.7-11.7-11.7h-8.4c-6.5 0-11.7 5.3-11.7 11.7v57.1c0 6.5 5.3 11.7 11.7 11.7h8.4v.1z" class="st4"/><path d="M924.3 559c3.2 0 5.9-2.6 5.9-5.9v-57.4c0-3.2-2.6-5.9-5.9-5.9h-13.1c-3.2 0-5.9 2.6-5.9 5.9v57.4c0 3.2 2.6 5.9 5.9 5.9h13.1z" class="st4"/><path d="M917.8 496.8c-1 0-1.7.8-1.7 1.7 0 1 .8 1.7 1.7 1.7 1 0 1.7-.8 1.7-1.7 0-.9-.8-1.7-1.7-1.7zm-21.9 80v-101" class="st4"/><path d="M882.3 501.6c6.2 0 11.2-5 11.2-11.2v-11.9c0-.9-.8-1.7-1.7-1.7h-25.4c-.9 0-1.7.8-1.7 1.7v11.9c0 6.2 5 11.2 11.2 11.2h6.4zm-15.9-25.5h25.4c1.3 0 2.3 1 2.3 2.3v11.9c0 6.5-5.3 11.9-11.9 11.9H876c-6.5 0-11.9-5.3-11.9-11.9v-11.9c0-1.3 1.1-2.3 2.3-2.3" class="st1"/><path d="M882.3 501.6c6.2 0 11.2-5 11.2-11.2v-11.9c0-.9-.8-1.7-1.7-1.7h-25.4c-.9 0-1.7.8-1.7 1.7v11.9c0 6.2 5 11.2 11.2 11.2h6.4zm-15.9-25.5h25.4c1.3 0 2.3 1 2.3 2.3v11.9c0 6.5-5.3 11.9-11.9 11.9H876c-6.5 0-11.9-5.3-11.9-11.9v-11.9c0-1.3 1.1-2.3 2.3-2.3z" class="st7"/><path d="M882.3 498.7c4.6 0 8.4-3.8 8.4-8.4v-6.9c0-.8-.7-1.5-1.5-1.5H869c-.8 0-1.5.7-1.5 1.5v6.9c0 4.6 3.8 8.4 8.4 8.4h6.4zM869 481.3h20.2c1.2 0 2.1.9 2.1 2.1v6.9c0 5-4.1 9-9 9H876c-5 0-9-4.1-9-9v-6.9c-.1-1.2.9-2.1 2-2.1" class="st1"/><path d="M882.3 498.7c4.6 0 8.4-3.8 8.4-8.4v-6.9c0-.8-.7-1.5-1.5-1.5H869c-.8 0-1.5.7-1.5 1.5v6.9c0 4.6 3.8 8.4 8.4 8.4h6.4zM869 481.3h20.2c1.2 0 2.1.9 2.1 2.1v6.9c0 5-4.1 9-9 9H876c-5 0-9-4.1-9-9v-6.9c-.1-1.2.9-2.1 2-2.1z" class="st7"/><path d="M879.1 492.8c.8 0 1.4-.6 1.4-1.4s-.6-1.4-1.4-1.4c-.8 0-1.4.6-1.4 1.4 0 .8.7 1.4 1.4 1.4m0-3.4c1.1 0 2 .9 2 2s-.9 2-2 2-2-.9-2-2 .9-2 2-2" class="st1"/><path d="M879.1 492.8c.8 0 1.4-.6 1.4-1.4s-.6-1.4-1.4-1.4c-.8 0-1.4.6-1.4 1.4 0 .8.7 1.4 1.4 1.4zm0-3.4c1.1 0 2 .9 2 2s-.9 2-2 2-2-.9-2-2 .9-2 2-2z" class="st7"/><path d="M877.4 444.3c0-5.8 4.8-10.6 10.6-10.6h15.3c1 0 1.8.8 1.8 1.8V453c0 1-.8 1.8-1.8 1.8H888c-5.9.1-10.6-4.6-10.6-10.5m28.5 8.8v-17.5c0-1.4-1.1-2.6-2.6-2.6H888c-6.2 0-11.3 5.1-11.3 11.3 0 6.2 5.1 11.3 11.3 11.3h15.3c1.4 0 2.6-1.1 2.6-2.5" class="st1"/><path d="M877.4 444.3c0-5.8 4.8-10.6 10.6-10.6h15.3c1 0 1.8.8 1.8 1.8V453c0 1-.8 1.8-1.8 1.8H888c-5.9.1-10.6-4.6-10.6-10.5zm28.5 8.8v-17.5c0-1.4-1.1-2.6-2.6-2.6H888c-6.2 0-11.3 5.1-11.3 11.3 0 6.2 5.1 11.3 11.3 11.3h15.3c1.4 0 2.6-1.1 2.6-2.5z" class="st7"/><path d="M900 436.7v15.2c0 .1-.1.2-.2.2h-11.6c-4.3 0-7.8-3.5-7.8-7.8s3.5-7.8 7.8-7.8h11.6c.1 0 .2.1.2.2z" class="st7"/><path d="M899.7 436.9v14.8h-11.4c-4.1 0-7.4-3.3-7.4-7.4s3.3-7.4 7.4-7.4h11.4zm.7 15v-15.2c0-.3-.2-.5-.5-.5h-11.6c-4.5 0-8.1 3.7-8.1 8.1 0 4.5 3.7 8.1 8.1 8.1h11.6c.2.1.5-.2.5-.5" class="st1"/><path d="M899.7 436.9v14.8h-11.4c-4.1 0-7.4-3.3-7.4-7.4s3.3-7.4 7.4-7.4h11.4zm.7 15v-15.2c0-.3-.2-.5-.5-.5h-11.6c-4.5 0-8.1 3.7-8.1 8.1 0 4.5 3.7 8.1 8.1 8.1h11.6c.2.1.5-.2.5-.5z" class="st7"/><path d="M888.3 444.3c0-1.1.9-2 2-2s2 .9 2 2-.9 2-2 2-2-.9-2-2m4.7 0c0-1.5-1.2-2.7-2.7-2.7s-2.7 1.2-2.7 2.7 1.2 2.7 2.7 2.7c1.5.1 2.7-1.2 2.7-2.7" class="st1"/><path d="M888.3 444.3c0-1.1.9-2 2-2s2 .9 2 2-.9 2-2 2-2-.9-2-2zm4.7 0c0-1.5-1.2-2.7-2.7-2.7s-2.7 1.2-2.7 2.7 1.2 2.7 2.7 2.7c1.5.1 2.7-1.2 2.7-2.7z" class="st7"/><path d="m898.6 438.4-.5-.6-4.8 3.7.4.5z" class="st1"/><path d="m898.6 438.4-.5-.6-4.8 3.7.4.5z" class="st7"/><path d="m893.332 447.171.42-.56 4.883 3.655-.42.56z" class="st1"/><path d="M895.6 445.7h.7v6.1h-.7z" style="fill:none;stroke:#39373a;stroke-width:.217;stroke-miterlimit:4" transform="rotate(-53.187 895.935 448.7)"/><path d="M905.9 437c0-1.6 1.3-2.9 2.9-2.9h4c1.6 0 2.9 1.3 2.9 2.9v14.6c0 1.6-1.3 2.9-2.9 2.9h-4c-1.6 0-2.9-1.3-2.9-2.9V437zm10.6 14.6V437c0-2-1.6-3.7-3.7-3.7h-4c-2 0-3.7 1.6-3.7 3.7v14.6c0 2 1.6 3.7 3.7 3.7h4c2.1 0 3.7-1.6 3.7-3.7" class="st1"/><path d="M905.9 437c0-1.6 1.3-2.9 2.9-2.9h4c1.6 0 2.9 1.3 2.9 2.9v14.6c0 1.6-1.3 2.9-2.9 2.9h-4c-1.6 0-2.9-1.3-2.9-2.9V437zm10.6 14.6V437c0-2-1.6-3.7-3.7-3.7h-4c-2 0-3.7 1.6-3.7 3.7v14.6c0 2 1.6 3.7 3.7 3.7h4c2.1 0 3.7-1.6 3.7-3.7z" class="st7"/><path d="M909.7 444.3c0-.6.5-1.1 1.1-1.1s1.1.5 1.1 1.1-.5 1.1-1.1 1.1c-.6.1-1.1-.5-1.1-1.1m3 0c0-1-.8-1.9-1.9-1.9s-1.9.8-1.9 1.9c0 1 .8 1.9 1.9 1.9s1.9-.9 1.9-1.9" class="st1"/><path d="M909.7 444.3c0-.6.5-1.1 1.1-1.1s1.1.5 1.1 1.1-.5 1.1-1.1 1.1c-.6.1-1.1-.5-1.1-1.1zm3 0c0-1-.8-1.9-1.9-1.9s-1.9.8-1.9 1.9c0 1 .8 1.9 1.9 1.9s1.9-.9 1.9-1.9z" class="st7"/><path d="M922.2 418.7h16.5" class="st4"/><path d="M711.8 741.6c0-.5.3-.8.9-.8h2.2v1.3c-.7.5-1.5.7-2.1.7-.7 0-1.1-.3-1.1-.9l.1-.3zm-2.9-4.2c1.8-.1 3.5-.2 4.6-.2s1.5.3 1.5 1.2v.3h-3.6c-2.1 0-3.4 1-3.4 2.7v1.1c0 2 1.6 3.1 3.6 3.1 1.9 0 3.1-.9 3.8-1.9l.4 1.6h3.1v-6.8c0-3.2-1.6-4.2-4.5-4.2-1.6 0-4.3.2-5.9.5l.4 2.6zm-1.7.1v-3h-10.7v3h3.4v7.8h3.9v-7.8h3.4zm-19.2 4.1c0-.5.3-.8.9-.8h2.2v1.3c-.7.5-1.5.7-2.1.7-.7 0-1.1-.3-1.1-.9l.1-.3zm-2.9-4.2c1.8-.1 3.5-.2 4.6-.2s1.5.3 1.5 1.2v.3h-3.6c-2.1 0-3.4 1-3.4 2.7v1.1c0 2 1.6 3.1 3.6 3.1 1.9 0 3.1-.9 3.8-1.9l.4 1.6h3.1v-6.8c0-3.2-1.6-4.2-4.5-4.2-1.6 0-4.3.2-5.9.5l.4 2.6zm-2.7-2.8h-3.8v3.8h-3.3v-3.8h-3.9v10.7h3.9V741h3.3v4.3h3.8v-10.7zm-18.1 0c-.8 0-1.3.4-1.5 1.2l-.9 4c-.1.5-.1 1.1-.2 1.6h-.2c-.1-.5-.1-1.1-.2-1.6l-1-4c-.1-.8-.6-1.2-1.4-1.2h-3.3c-.9 0-1.3.5-1.4 1.3l-.3 9.4h3.5l.2-7.9h.3l1.3 5.2c.2.8.7 1.2 1.5 1.2h1.7c.8 0 1.3-.4 1.5-1.2l1.3-5.2h.3l.3 7.9h3.5l-.3-9.4c0-.9-.5-1.3-1.3-1.3h-3.4zm-17.8 2.4c1.3 0 1.7.5 1.7 2.9s-.3 2.9-1.7 2.9c-1.3 0-1.7-.5-1.7-2.9 0-2.3.3-2.9 1.7-2.9m0-2.7c-4.2 0-5.8 1.5-5.8 5.7 0 4.1 1.5 5.6 5.8 5.6 4.2 0 5.8-1.5 5.8-5.6-.1-4.2-1.6-5.7-5.8-5.7m-10.8 5.4c2.5-.4 2.3-.6 3.7-5.1h-3.9c-.9 3.6-1 3.9-2.5 3.9h-.5c.1-.5.2-.9.2-1.4v-2.5h-3.9v10.7h3.9v-3.4c0-.3 0-.6-.1-.9h.9c1.1 0 1.2.3 2.3 4.2h4.1c-1.5-5.1-1.5-5.2-4.1-5.5h-.1zm-17.7-.3h-1.5c-1 0-1.2-.3-1.2-1.3 0-.8.2-1 1.2-1h1.5v2.3zm-4.2 1.3c-.6.1-1.8.2-2 1.2l-.8 3.4h4l.7-2.9c.1-.5.3-.6 1-.6h1.4v3.5h3.8v-10.8c-1.3-.2-2.5-.2-5.4-.2-3.9 0-4.9.8-4.9 3.4-.1 1.4.4 2.6 2.2 3zm-11.4.9c0-.5.3-.8.9-.8h2.2v1.3c-.7.5-1.5.7-2.1.7-.7 0-1.1-.3-1.1-.9l.1-.3zm-2.9-4.2c1.8-.1 3.5-.2 4.6-.2s1.5.3 1.5 1.2v.3H602c-2.1 0-3.4 1-3.4 2.7v1.1c0 2 1.6 3.1 3.6 3.1 1.9 0 3.1-.9 3.8-1.9l.4 1.6h3.1v-6.8c0-3.2-1.6-4.2-4.5-4.2-1.6 0-4.3.2-5.9.5l.4 2.6zm-2.7-2.8h-6.5c-1.9 0-2.8.9-3 2.8-.2 2-.3 3.5-.6 4.2-.2.9-.9.8-1.8 1l.4 2.9c2.3.4 4.5-.2 4.9-2.8.2-1 .5-2.9.6-4.5.1-.6.4-.9 1-.9h.9v8.1h3.9v-10.8h.2zm-13.1 10.7v-10.7h-3.4l-3.4 5.1c-.3.5-.6 1-.8 1.6h-.1c.1-.6.2-1.1.2-1.7v-5h-3.5v10.7h3.4l3.3-4.9c.3-.5.7-1.2.9-1.8h.1c-.1.7-.2 1.3-.2 1.9v4.8h3.5zm-17.5-7.8c2.9-.4 3-1.7 4.5-7h-4.1c-1.3 4.5-1.6 5.8-3 5.8h-.6c.1-.6.2-1.3.2-1.9v-3.9h-3.9v3.9c0 .6.1 1.2.2 1.9h-.8c-1.4 0-1.7-1.3-3-5.8h-4.1c1.6 5.3 1.6 6.7 4.5 7v.1c-3 .4-3.2 1.6-4.9 7.7h4.2c1.7-5.4 1.8-6.4 3.3-6.4h.8c-.1.5-.2 1-.2 1.4v5h3.9v-5c0-.4-.1-.9-.2-1.4h.7c1.5 0 1.7 1 3.3 6.4h4.2c-1.7-6.1-1.9-7.3-5-7.8zm83.2 19.6c1.7 0 2.1.7 2.1 4.7 0 3.9-.5 4.7-2.1 4.7s-2.1-.7-2.1-4.7c.1-4 .5-4.7 2.1-4.7m.1-3.1c-4.5 0-6.1 1.9-6.1 7.7s1.6 7.7 6.1 7.7 6.1-1.9 6.1-7.7-1.6-7.7-6.1-7.7m-10.2 11.5c-1 0-1.4.3-1.4 1.4v.9c0 1 .3 1.4 1.4 1.4h.9c1 0 1.4-.3 1.4-1.4v-.9c0-1-.3-1.4-1.4-1.4h-.9zm-10.6-6.1c0-1.8.2-2.5 1.7-2.5 1.7 0 1.9.6 1.9 3.9-.7.4-1.2.6-1.9.6-1.4 0-1.8-.5-1.7-2m-3.2 9.6c1.7.4 3.3.4 4.1.4 4.7 0 6.5-1.1 6.5-7.8 0-6-1-7.5-5.7-7.5-4.3 0-5.6 1.6-5.5 5.5 0 2.7.9 4.6 4.3 4.6 1.3 0 2.2-.2 3.1-.9-.1 2.5-.6 3.3-2.6 3.3h-3.9l-.3 2.4zm-3.1.2v-14.9h-4l-3.8 1.5.5 2.6 3.4-.8c-.1.6-.2 1.2-.2 1.8v9.9l4.1-.1zm42.5-632.4h-1.5c-1 0-1.2-.3-1.2-1.3 0-.8.2-1 1.2-1h1.5v2.3zm-4.2 1.3c-.6.1-1.8.2-2 1.2l-.8 3.4h4l.7-2.9c.1-.5.3-.6 1-.6h1.4v3.5h3.8v-10.8c-1.3-.2-2.5-.2-5.4-.2-3.9 0-4.9.8-4.9 3.4-.2 1.3.4 2.6 2.2 3zm-4.5 4.6V132h-3.4l-3.4 5.1c-.3.5-.6 1-.8 1.6h-.1c.1-.6.2-1.1.2-1.7v-5h-3.5v10.7h3.4l3.3-4.9c.3-.5.7-1.2.9-1.8h.1c-.1.7-.2 1.3-.2 1.9v4.8h3.5zm-16.6-5.7c2.5-.3 2.4-.6 3.8-5.1h-3.9c-1.1 3.5-1.3 3.9-2.3 3.9h-.7c.1-.5.1-.9.1-1.3V132h-3.4v2.6c0 .4 0 .9.1 1.3h-.7c-1.1 0-1.2-.4-2.3-3.9h-3.8c1.4 4.4 1.3 4.7 3.8 5.1v.1c-2.6.4-2.6.6-4.2 5.5h4c1.4-4.1 1.5-4.3 2.4-4.3h.9c-.1.3-.1.6-.1.9v3.4h3.4v-3.4c0-.3 0-.6-.1-.9h.9c1 0 1.1.3 2.4 4.3h4c-1.5-5-1.6-5.2-4.2-5.5v-.2h-.1zm-19.5 3H617c.5-1.2.9-2.7 1.2-4.7.1-.6.4-.9.9-.9h1v5.6zm5.4 0h-1.8v-8h-5.9c-1.9 0-2.9.9-3.1 2.6-.3 1.9-.6 3.6-1.3 5.5h-1.3v5.6h2.6l.3-3h7.7l.3 3h2.6l-.1-5.7zm-19.9-5.6c1.3 0 1.7.5 1.7 2.9s-.3 2.9-1.7 2.9c-1.3 0-1.7-.5-1.7-2.9 0-2.3.4-2.9 1.7-2.9m0-2.7c-4.2 0-5.8 1.5-5.8 5.7 0 4.1 1.6 5.6 5.8 5.6s5.8-1.5 5.8-5.6c0-4.2-1.6-5.7-5.8-5.7m-7.9-3.9H591c-2.3 0-3.6 1.2-3.7 3.5-.2 3.4-.5 5.5-1 6.9-.4 1-1.1 1.3-2.1 1.4l.3 3.1c2.6.4 4.6-.4 5.6-3.4.6-1.8.9-4.6 1.1-7.7 0-.7.5-1.1 1.2-1.1h1.4v12.1h4l-.1-14.8zm63 23c2.4 1 3.2 4.1 3.2 8.6 0 4.4-.9 7.5-3.2 8.6l.5 1.7c4.5-1.3 6.6-4.5 6.6-10.3s-2-9-6.6-10.3l-.5 1.7zm-11.5 3.7c2-.1 3.1-.1 4.7-.1 1.1 0 1.6.1 1.6.7 0 .8-1 2.2-2.7 3.9l-3.3 3.5c-.4.5-.6 1-.6 1.6v2.1H660v-3.5h-4.3c-.7 0-1.4 0-2.1.2l3.7-3.6c2-2 2.3-3 2.3-4.6 0-2.9-2.1-3.6-5.3-3.6-1.6 0-3.1.1-5.3.5l.2 2.9zm-4.3 8c-1 0-1.4.3-1.4 1.4v.9c0 1 .3 1.4 1.4 1.4h.9c1 0 1.4-.3 1.4-1.4v-.9c0-1-.3-1.4-1.4-1.4h-.9zm-13.9-8c2-.1 3.1-.1 4.7-.1 1.1 0 1.6.1 1.6.7 0 .8-1 2.2-2.7 3.9l-3.3 3.5c-.4.5-.6 1-.6 1.6v2.1h11.1v-3.5h-4.3c-.7 0-1.4 0-2.1.2l3.7-3.6c2-2 2.3-3 2.3-4.6 0-2.9-2.1-3.6-5.3-3.6-1.6 0-3.1.1-5.3.5l.2 2.9zm-1.8-5.4c-4.5 1.3-6.6 4.5-6.6 10.3s2 9 6.6 10.3l.5-1.7c-2.4-1.1-3.2-4.2-3.2-8.6 0-4.5.9-7.6 3.2-8.6l-.5-1.7zm-23 5.1h4.1c1.5 0 1.9.2 1.9 1.4 0 1-.1 1.6-1.7 1.6h-2.8v2.6h2.8c1.6 0 1.9.5 1.9 1.7 0 1.5-.6 1.8-2.5 1.8-1.3 0-2.2 0-4.1-.1l-.1 2.9c1.7.2 3.6.4 5.3.4 3.9 0 5.4-1.3 5.3-4.4 0-2.3-.7-3.4-2.8-3.7v-.1c1.9-.3 2.4-1.6 2.4-3.8 0-2.7-1.4-3.5-5-3.5-1.6 0-3.3.1-5 .4l.3 2.8zm-4.4 8.3c-1 0-1.4.3-1.4 1.4v.9c0 1 .3 1.4 1.4 1.4h.9c1 0 1.4-.3 1.4-1.4v-.9c0-1-.3-1.4-1.4-1.4h-.9zm-2.8-2.2h-1.8v-6.1h-3l-.6 2.3v3.8h-2.9c-.3 0-.6-.2-.4-.6l3.3-8.4h-3.8l-3.7 9.4c-.5 1.2.3 2.3 1.6 2.3h6v3.1h3.7V163l1.7-.4-.1-2.3zm320.4 148.6c0-.5.3-.8.9-.8h2.2v1.3c-.7.5-1.5.7-2.1.7-.7 0-1.1-.3-1.1-.9l.1-.3zm-3-4.2c1.8-.1 3.5-.2 4.6-.2s1.5.3 1.5 1.2v.3H919c-2.1 0-3.4 1-3.4 2.7v1.1c0 2 1.6 3.1 3.6 3.1 1.9 0 3.1-.9 3.8-1.9l.4 1.6h3.1v-6.8c0-3.2-1.6-4.2-4.5-4.2-1.6 0-4.3.2-5.9.5l.3 2.6zm-1.7.1v-3H904v3h3.4v7.8h3.9v-7.8h3.4zm-19.1 4.1c0-.5.3-.8.9-.8h2.2v1.3c-.7.5-1.5.7-2.1.7-.7 0-1.1-.3-1.1-.9l.1-.3zm-3-4.2c1.8-.1 3.5-.2 4.6-.2s1.5.3 1.5 1.2v.3h-3.6c-2.1 0-3.4 1-3.4 2.7v1.1c0 2 1.6 3.1 3.6 3.1 1.9 0 3.1-.9 3.8-1.9l.4 1.6h3.1v-6.8c0-3.2-1.6-4.2-4.5-4.2-1.6 0-4.3.2-5.9.5l.4 2.6zm-2.7-2.8h-3.8v3.8h-3.3v-3.8H879v10.7h3.9v-4.3h3.3v4.3h3.8l-.1-10.7zm-18.1 0c-.8 0-1.3.4-1.5 1.2l-.9 4c-.1.5-.1 1.1-.2 1.6h-.2c-.1-.5-.1-1.1-.2-1.6l-1-4c-.1-.8-.6-1.2-1.4-1.2h-3.3c-.9 0-1.3.5-1.4 1.3l-.3 9.4h3.5l.2-7.9h.3l1.3 5.2c.2.8.7 1.2 1.5 1.2h1.7c.8 0 1.3-.4 1.5-1.2l1.3-5.2h.3l.3 7.9h3.5l-.3-9.4c0-.9-.5-1.3-1.3-1.3h-3.4zm-17.8 2.4c1.3 0 1.7.5 1.7 2.9s-.3 2.9-1.7 2.9c-1.3 0-1.7-.5-1.7-2.9 0-2.3.3-2.9 1.7-2.9m0-2.7c-4.2 0-5.8 1.5-5.8 5.7 0 4.1 1.5 5.6 5.8 5.6 4.2 0 5.8-1.5 5.8-5.6-.1-4.2-1.6-5.7-5.8-5.7m-10.8 5.4c2.5-.4 2.3-.6 3.7-5.1H843c-.9 3.6-1 3.9-2.5 3.9h-.5c.1-.5.2-.9.2-1.4v-2.5h-3.9v10.7h3.9v-3.4c0-.3 0-.6-.1-.9h.9c1.1 0 1.2.3 2.3 4.2h4.1c-1.5-5.1-1.5-5.2-4.1-5.5h-.1zm-17.7-.3H824c-1 0-1.2-.3-1.2-1.3 0-.8.2-1 1.2-1h1.5v2.3zm-4.2 1.3c-.6.1-1.8.2-2 1.2l-.8 3.4h4l.7-2.9c.1-.5.3-.6 1-.6h1.4v3.5h3.8v-10.8c-1.3-.2-2.5-.2-5.4-.2-3.9 0-4.9.8-4.9 3.4-.1 1.4.4 2.6 2.2 3zm-11.4.9c0-.5.3-.8.9-.8h2.2v1.3c-.7.5-1.5.7-2.1.7-.7 0-1.1-.3-1.1-.9l.1-.3zm-2.9-4.2c1.8-.1 3.5-.2 4.6-.2s1.5.3 1.5 1.2v.3h-3.6c-2.1 0-3.4 1-3.4 2.7v1.1c0 2 1.6 3.1 3.6 3.1 1.9 0 3.1-.9 3.8-1.9l.4 1.6h3.1v-6.8c0-3.2-1.6-4.2-4.5-4.2-1.6 0-4.3.2-5.9.5l.4 2.6zm-2.7-2.8h-6.5c-1.9 0-2.8.9-3 2.8-.2 2-.3 3.5-.6 4.2-.2.9-.9.8-1.8 1l.4 2.9c2.3.4 4.5-.2 4.9-2.8.2-1 .5-2.9.6-4.5.1-.6.4-.9 1-.9h.9v8.1h3.9v-10.8h.2zm-13.1 10.7v-10.7h-3.4l-3.4 5.1c-.3.5-.6 1-.8 1.6h-.1c.1-.6.2-1.1.2-1.7v-5h-3.5v10.7h3.4l3.3-4.9c.3-.5.7-1.2.9-1.8h.1c-.1.7-.2 1.3-.2 1.9v4.8h3.5zm-17.4-7.8c2.9-.4 3-1.7 4.5-7.1h-4.1c-1.3 4.5-1.6 5.8-3 5.8h-.7c.1-.6.2-1.3.2-1.9v-3.9h-3.9v3.9c0 .6.1 1.2.2 1.9h-.8c-1.4 0-1.7-1.3-3-5.8h-4.1c1.6 5.3 1.6 6.7 4.5 7.1v.1c-3 .4-3.2 1.6-4.9 7.7h4.2c1.7-5.4 1.8-6.4 3.3-6.4h.8c-.1.5-.2 1-.2 1.4v5h3.9v-5c0-.4-.1-.9-.2-1.4h.7c1.5 0 1.7 1 3.3 6.4h4.2c-1.7-6.1-1.9-7.3-5-7.7l.1-.1zm79 21.6c0-1.8.2-2.5 1.7-2.5 1.7 0 1.9.6 1.9 3.9-.7.4-1.2.6-1.9.6-1.3-.1-1.7-.5-1.7-2m-3.1 9.6c1.7.4 3.3.4 4.1.4 4.7 0 6.5-1.1 6.5-7.8 0-6-1-7.5-5.7-7.5-4.3 0-5.6 1.6-5.5 5.5 0 2.7.9 4.6 4.3 4.6 1.3 0 2.2-.2 3.1-.9-.1 2.5-.6 3.3-2.6 3.3H850l-.3 2.4zm-4.6-3.5c-1 0-1.4.3-1.4 1.4v.9c0 1 .3 1.4 1.4 1.4h.9c1 0 1.4-.3 1.4-1.4v-.9c0-1-.3-1.4-1.4-1.4h-.9zm-4 3.6v-14.9h-4l-3.8 1.5.5 2.6 3.4-.8c-.1.6-.2 1.2-.2 1.8v9.9h4.1v-.1zm-9.7 0v-14.9h-4l-3.8 1.5.5 2.6 3.4-.8c-.1.6-.2 1.2-.2 1.8v9.9h4.1v-.1zM645.5 439.3l.2 3.3h6.5c-.3.5-.5 1.1-.7 1.6l-3.6 10h4l4.5-12.9c.4-1.1-.3-2-1.5-2h-9.4zm-2.9 11.2c-1 0-1.4.3-1.4 1.4v.9c0 1 .3 1.4 1.4 1.4h.9c1 0 1.4-.3 1.4-1.4v-.9c0-1-.3-1.4-1.4-1.4h-.9zm-8.5 1c-1.7 0-1.9-.5-1.9-3.8.7-.4 1.2-.6 1.9-.6 1.4 0 1.7.4 1.7 2 0 1.8-.1 2.4-1.7 2.4m4.5-12c-1.5-.4-3.1-.4-3.8-.4-4.3 0-6.5 1.1-6.5 7.8 0 6 1.3 7.5 5.8 7.5s5.5-1.7 5.5-5.5c0-3.3-1-4.6-4.4-4.6-1.3 0-2.2.2-3 .9.1-2.8.6-3.3 2.6-3.3h3.7l.1-2.4zm-13 14.7v-14.9h-4l-3.8 1.5.5 2.6 3.4-.8c-.1.6-.2 1.2-.2 1.8v9.9h4.1v-.1zm290.3 287.4c0-.5.3-.8.9-.8h2.2v1.3c-.7.5-1.5.7-2.1.7-.7 0-1.1-.3-1.1-.9l.1-.3zm-3-4.2c1.8-.1 3.5-.2 4.6-.2s1.5.3 1.5 1.2v.3h-3.6c-2.1 0-3.4 1-3.4 2.7v1.1c0 2 1.6 3.1 3.6 3.1 1.9 0 3.1-.9 3.8-1.9l.4 1.6h3.1v-6.8c0-3.2-1.6-4.2-4.5-4.2-1.6 0-4.3.2-5.9.5l.4 2.6zm-1.7.1v-3h-10.7v3h3.4v7.8h3.9v-7.8h3.4zm-19.1 4.1c0-.5.3-.8.9-.8h2.2v1.3c-.7.5-1.5.7-2.1.7-.7 0-1.1-.3-1.1-.9l.1-.3zm-3-4.2c1.8-.1 3.5-.2 4.6-.2s1.5.3 1.5 1.2v.3h-3.6c-2.1 0-3.4 1-3.4 2.7v1.1c0 2 1.6 3.1 3.6 3.1 1.9 0 3.1-.9 3.8-1.9l.4 1.6h3.1v-6.8c0-3.2-1.6-4.2-4.5-4.2-1.6 0-4.3.2-5.9.5l.4 2.6zm-2.7-2.8h-3.8v3.8h-3.3v-3.8h-3.9v10.7h3.9V741h3.3v4.3h3.8v-10.7zm-18.1 0c-.8 0-1.3.4-1.5 1.2l-.9 4c-.1.5-.1 1.1-.2 1.6h-.2c-.1-.5-.1-1.1-.2-1.6l-1-4c-.1-.8-.6-1.2-1.4-1.2h-3.3c-.9 0-1.3.5-1.4 1.3l-.3 9.4h3.5l.2-7.9h.3l1.3 5.2c.2.8.7 1.2 1.5 1.2h1.7c.8 0 1.3-.4 1.5-1.2l1.3-5.2h.3l.3 7.9h3.5l-.3-9.4c0-.9-.5-1.3-1.3-1.3h-3.4zm-17.8 2.4c1.3 0 1.7.5 1.7 2.9s-.3 2.9-1.7 2.9c-1.3 0-1.7-.5-1.7-2.9 0-2.3.3-2.9 1.7-2.9m0-2.7c-4.2 0-5.8 1.5-5.8 5.7 0 4.1 1.5 5.6 5.8 5.6 4.2 0 5.8-1.5 5.8-5.6-.1-4.2-1.6-5.7-5.8-5.7m-10.8 5.4c2.5-.4 2.3-.6 3.7-5.1h-3.9c-.9 3.6-1 3.9-2.5 3.9h-.5c.1-.5.2-.9.2-1.4v-2.5h-3.9v10.7h3.9v-3.4c0-.3 0-.6-.1-.9h.9c1.1 0 1.2.3 2.3 4.2h4.1c-1.5-5.1-1.5-5.2-4.1-5.5h-.1zm-17.6-.3h-1.5c-1 0-1.2-.3-1.2-1.3 0-.8.2-1 1.2-1h1.5v2.3zm-4.3 1.3c-.6.1-1.8.2-2 1.2l-.8 3.4h4l.7-2.9c.1-.5.3-.6 1-.6h1.4v3.5h3.8v-10.8c-1.3-.2-2.5-.2-5.4-.2-3.9 0-4.9.8-4.9 3.4-.1 1.4.4 2.6 2.2 3zm-11.4.9c0-.5.3-.8.9-.8h2.2v1.3c-.7.5-1.5.7-2.1.7-.7 0-1.1-.3-1.1-.9l.1-.3zm-2.9-4.2c1.8-.1 3.5-.2 4.6-.2s1.5.3 1.5 1.2v.3H806c-2.1 0-3.4 1-3.4 2.7v1.1c0 2 1.6 3.1 3.6 3.1 1.9 0 3.1-.9 3.8-1.9l.4 1.6h3.1v-6.8c0-3.2-1.6-4.2-4.5-4.2-1.6 0-4.3.2-5.9.5l.4 2.6zm-2.7-2.8h-6.5c-1.9 0-2.8.9-3 2.8-.2 2-.3 3.5-.6 4.2-.2.9-.9.8-1.8 1l.4 2.9c2.3.4 4.5-.2 4.9-2.8.2-1 .5-2.9.6-4.5.1-.6.4-.9 1-.9h.9v8.1h3.9v-10.8h.2zm-13.1 10.7v-10.7h-3.4l-3.4 5.1c-.3.5-.6 1-.8 1.6h-.1c.1-.6.2-1.1.2-1.7v-5h-3.5v10.7h3.4l3.3-4.9c.3-.5.7-1.2.9-1.8h.1c-.1.7-.2 1.3-.2 1.9v4.8h3.5zm-17.4-7.8c2.9-.4 3-1.7 4.5-7h-4.1c-1.3 4.5-1.6 5.8-3 5.8h-.7c.1-.6.2-1.3.2-1.9v-3.9h-3.9v3.9c0 .6.1 1.2.2 1.9h-.8c-1.4 0-1.7-1.3-3-5.8h-4.1c1.6 5.3 1.6 6.7 4.5 7v.1c-3 .4-3.2 1.6-4.9 7.7h4.2c1.7-5.4 1.8-6.4 3.3-6.4h.8c-.1.5-.2 1-.2 1.4v5h3.9v-5c0-.4-.1-.9-.2-1.4h.7c1.5 0 1.7 1 3.3 6.4h4.2c-1.7-6.1-1.9-7.3-4.9-7.8zm83.6 25.3c1.6 0 2 .4 2 1.9s-.3 1.9-2 1.9-2.1-.4-2.1-1.9.3-1.9 2.1-1.9m0-6.1c1.5 0 1.8.3 1.8 1.8 0 1.3-.3 1.6-1.8 1.6s-1.9-.3-1.9-1.6c0-1.4.3-1.8 1.9-1.8m-3.3 4.8c-2.1.2-2.7 2-2.7 4 0 2.9 1.2 4 5.8 4 4.7 0 5.8-1.1 5.8-4 0-2-.5-3.8-2.6-4v-.1c1.6-.2 2.3-1.8 2.3-3.4 0-2.8-.9-4-5.5-4-4.5 0-5.5 1.2-5.5 4 .2 1.6.8 3.2 2.4 3.5zm-6.8 4c-1 0-1.4.3-1.4 1.4v.9c0 1 .3 1.4 1.4 1.4h.9c1 0 1.4-.3 1.4-1.4v-.9c0-1-.3-1.4-1.4-1.4h-.9zm-9-2.7c1.6 0 2 .4 2 1.9s-.3 1.9-2 1.9-2.1-.4-2.1-1.9.4-1.9 2.1-1.9m0-6.1c1.5 0 1.8.3 1.8 1.8 0 1.3-.3 1.6-1.8 1.6s-1.9-.3-1.9-1.6c.1-1.4.4-1.8 1.9-1.8m-3.2 4.8c-2.1.2-2.7 2-2.7 4 0 2.9 1.2 4 5.8 4 4.7 0 5.8-1.1 5.8-4 0-2-.5-3.8-2.6-4v-.1c1.6-.2 2.3-1.8 2.3-3.4 0-2.8-.9-4-5.5-4-4.5 0-5.5 1.2-5.5 4 .1 1.6.8 3.2 2.4 3.5zm-5.3 7.7v-14.9h-4l-3.8 1.5.5 2.6 3.4-.8c-.1.6-.2 1.2-.2 1.8v9.9l4.1-.1zM480.6 523.6h-1.5c-1 0-1.2-.3-1.2-1.3 0-.8.2-1 1.2-1h1.5v2.3zm-4.2 1.3c-.6.1-1.8.2-2 1.2l-.8 3.4h4l.7-2.9c.1-.5.3-.6 1-.6h1.4v3.5h3.8v-10.8c-1.3-.2-2.5-.2-5.4-.2-3.9 0-4.9.8-4.9 3.4-.1 1.4.4 2.6 2.2 3zm-11.4.9c0-.5.3-.8.9-.8h2.2v1.3c-.7.5-1.5.7-2.1.7-.7 0-1.1-.3-1.1-.9v-.3h.1zm-2.9-4.2c1.8-.1 3.5-.2 4.6-.2s1.5.3 1.5 1.2v.3h-3.6c-2.1 0-3.4 1-3.4 2.7v1.1c0 2 1.6 3.1 3.6 3.1 1.9 0 3.1-.9 3.8-1.9l.4 1.6h3.1v-6.8c0-3.2-1.6-4.2-4.5-4.2-1.6 0-4.3.2-5.9.5l.4 2.6zm-6 2.2c2.5-.3 2.4-.6 3.8-5.1H456c-1.1 3.5-1.3 3.9-2.3 3.9h-.7c.1-.5.1-.9.1-1.3v-2.6h-3.4v2.6c0 .4 0 .9.1 1.3h-.7c-1.1 0-1.2-.4-2.4-3.9H443c1.4 4.4 1.3 4.7 3.8 5.1v.1c-2.6.4-2.6.6-4.2 5.5h4c1.4-4.1 1.5-4.3 2.4-4.3h.9c-.1.3-.1.6-.1.9v3.4h3.4V526c0-.3 0-.6-.1-.9h.9c1 0 1.1.3 2.4 4.3h4c-1.5-5-1.6-5.2-4.3-5.6zm-20-2.6c1.3 0 1.7.5 1.7 2.9s-.3 2.9-1.7 2.9c-1.3 0-1.7-.5-1.7-2.9 0-2.3.3-2.9 1.7-2.9m0-2.7c-4.2 0-5.8 1.5-5.8 5.7 0 4.1 1.6 5.6 5.8 5.6 4.2 0 5.8-1.5 5.8-5.6-.1-4.2-1.6-5.7-5.8-5.7m-10.2 11h3.9l-3.2-5.5 2.9-5.2h-3.9l-2.1 4-2.1-4h-3.9l2.9 5.2-3.2 5.5h3.9l2.3-4.3 2.5 4.3zm-9.8 0v-10.7h-3.4l-3.4 5.1c-.3.5-.6 1-.8 1.6h-.1c.1-.6.2-1.1.2-1.7v-5H405v10.7h3.4l3.3-4.9c.3-.5.7-1.2.9-1.8h.1c-.1.7-.2 1.3-.2 1.9v4.8h3.6zm-20.4-7.4c.7-.4 1.2-.7 2-.7 1 0 1.4.4 1.4 2.8 0 2.5-.4 2.8-1.5 2.8-.8 0-1.3-.2-1.9-.4v-4.5zm-.8-3.3h-3.1v14.7h3.9v-2.4c0-.8 0-1.6-.1-2.3.9.7 2.1 1 3.4 1 2.7 0 4.1-1.2 4.1-5.5 0-3.6-1.1-5.7-3.8-5.7-1.7 0-3.3.8-4.1 1.8l-.3-1.6zm-5.6-4.2h-12.5v14.9h4v-12.1h4.4v12.1h4v-14.9h.1zm44.3 25.2h4.1c1.5 0 1.9.2 1.9 1.4 0 1-.1 1.6-1.7 1.6h-2.8v2.6h2.8c1.6 0 1.9.5 1.9 1.7 0 1.5-.6 1.8-2.5 1.8-1.3 0-2.2 0-4.1-.1l-.1 2.9c1.7.2 3.6.4 5.3.4 3.9 0 5.4-1.3 5.3-4.4 0-2.3-.7-3.4-2.8-3.7v-.1c1.9-.3 2.4-1.6 2.4-3.8 0-2.7-1.4-3.5-5-3.5-1.6 0-3.3.1-5 .4l.3 2.8zm-4.4 8.3c-1 0-1.4.3-1.4 1.4v.9c0 1 .3 1.4 1.4 1.4h.9c1 0 1.4-.3 1.4-1.4v-.9c0-1-.3-1.4-1.4-1.4h-.9zm-12.5-11.2.2 3.3h6.5c-.3.5-.5 1.1-.7 1.6l-3.6 10h4l4.5-12.9c.4-1.1-.3-2-1.5-2h-9.4zm249.4-14.8c.7-.4 1.2-.7 2-.7 1 0 1.4.4 1.4 2.8 0 2.5-.4 2.8-1.5 2.8-.8 0-1.3-.2-1.9-.4v-4.5zm-.7-3.3h-3.1v14.7h3.9v-2.4c0-.8 0-1.6-.1-2.3.9.7 2.1 1 3.4 1 2.7 0 4.1-1.2 4.1-5.5 0-3.6-1.1-5.7-3.8-5.7-1.7 0-3.3.8-4.1 1.8l-.3-1.6zm-10.8 2.4c1.3 0 1.7.5 1.7 2.9s-.3 2.9-1.7 2.9c-1.3 0-1.7-.5-1.7-2.9 0-2.3.3-2.9 1.7-2.9m0-2.7c-4.2 0-5.8 1.5-5.8 5.7 0 4.1 1.6 5.6 5.8 5.6s5.8-1.5 5.8-5.6c-.1-4.2-1.6-5.7-5.8-5.7m-12.3 8.4h-3.1c.5-1.2.9-2.7 1.2-4.7.1-.6.4-.9.9-.9h1v5.6zm5.4 0h-1.8v-8.1H640c-1.9 0-2.9.9-3.1 2.6-.3 1.9-.6 3.6-1.3 5.5h-1.3v5.6h2.6l.3-3h7.7l.3 3h2.6l-.1-5.6zm-14.9 2.6v-10.7h-3.4l-3.4 5.1c-.3.5-.6 1-.8 1.6h-.1c.1-.6.2-1.1.2-1.7v-5h-3.5v10.7h3.4l3.3-4.9c.3-.5.7-1.2.9-1.8h.1c-.1.7-.2 1.3-.2 1.9v4.8h3.5zm-20.3-7.4c.7-.4 1.2-.7 2-.7 1 0 1.4.4 1.4 2.8 0 2.5-.4 2.8-1.5 2.8-.8 0-1.3-.2-1.9-.4v-4.5zm-.8-3.3h-3.1v14.7h3.9v-2.4c0-.8 0-1.6-.1-2.3.9.7 2.1 1 3.4 1 2.7 0 4.1-1.2 4.1-5.5 0-3.6-1.1-5.7-3.8-5.7-1.7 0-3.3.8-4.1 1.8l-.3-1.6zm-10.8 2.4c1.3 0 1.7.5 1.7 2.9s-.3 2.9-1.7 2.9c-1.3 0-1.7-.5-1.7-2.9 0-2.3.4-2.9 1.7-2.9m0-2.7c-4.2 0-5.8 1.5-5.8 5.7 0 4.1 1.6 5.6 5.8 5.6s5.8-1.5 5.8-5.6c0-4.2-1.6-5.7-5.8-5.7m-11.6 3.2c3-.4 3-1.7 4.7-7h-4.1c-1.2 4.5-1.4 5.8-3.5 5.8h-.7c.1-.6.2-1.3.2-1.9v-3.9h-4v14.9h4v-5c0-.4-.1-.9-.2-1.4h.8c2.1 0 2.2 1 3.8 6.4h4.2c-1.8-6.1-2-7.3-5.1-7.7v-.2h-.1zm42.5 18.1h4.1c1.5 0 1.9.2 1.9 1.4 0 1-.1 1.6-1.7 1.6h-2.8v2.6h2.8c1.6 0 1.9.5 1.9 1.7 0 1.5-.6 1.8-2.5 1.8-1.3 0-2.2 0-4.1-.1l-.1 2.9c1.7.2 3.6.4 5.3.4 3.9 0 5.4-1.3 5.3-4.4 0-2.3-.7-3.4-2.8-3.7v-.1c1.9-.3 2.4-1.6 2.4-3.8 0-2.6-1.4-3.5-5-3.5-1.6 0-3.3.1-5 .4l.3 2.8zm-4.3 8.3c-1 0-1.4.3-1.4 1.4v.9c0 1 .3 1.4 1.4 1.4h.9c1 0 1.4-.3 1.4-1.4v-.9c0-1-.3-1.4-1.4-1.4h-.9zm-9-2.8c1.6 0 2 .4 2 1.9s-.3 1.9-2 1.9-2.1-.4-2.1-1.9.3-1.9 2.1-1.9m-.1-6c1.5 0 1.8.3 1.8 1.8 0 1.3-.3 1.6-1.8 1.6s-1.9-.3-1.9-1.6c.1-1.5.4-1.8 1.9-1.8m-3.2 4.8c-2.1.2-2.7 2-2.7 4 0 2.9 1.2 4 5.8 4 4.7 0 5.8-1.1 5.8-4 0-2-.5-3.8-2.6-4v-.1c1.6-.2 2.3-1.8 2.3-3.4 0-2.8-.9-4-5.5-4-4.5 0-5.5 1.2-5.5 4 .2 1.6.8 3.2 2.4 3.5zm103.3-118.3H717c-1 0-1.2-.3-1.2-1.3 0-.8.2-1 1.2-1h1.5v2.3zm-4.2 1.3c-.6.1-1.8.2-2 1.2l-.8 3.4h4l.7-2.9c.1-.5.3-.6 1-.6h1.4v3.5h3.8v-10.8c-1.3-.2-2.5-.2-5.4-.2-3.9 0-4.9.8-4.9 3.4-.2 1.3.3 2.5 2.2 3zm-11.4.8c0-.5.3-.8.9-.8h2.2v1.3c-.7.5-1.5.7-2.1.7-.7 0-1.1-.3-1.1-.9l.1-.3zm-3-4.2c1.8-.1 3.5-.2 4.6-.2s1.5.3 1.5 1.2v.3h-3.6c-2.1 0-3.4 1-3.4 2.7v1.1c0 2 1.6 3.1 3.6 3.1 1.9 0 3.1-.9 3.8-1.9l.4 1.6h3.1v-6.8c0-3.2-1.6-4.2-4.5-4.2-1.6 0-4.3.2-5.9.5l.4 2.6zm-9.3 5.6v-2.1h1.8c1.1 0 1.4.2 1.4 1.1s-.4 1.1-1.4 1.1h-1.8v-.1zm0-4.2v-1.8h1.7c1.1 0 1.4.2 1.4.9s-.3.9-1.3.9h-1.8zm4.4 1c1.7-.1 2.4-.9 2.4-2.4 0-2.2-1.2-2.8-4.8-2.8-2.5 0-3.9 0-5.5.1v10.8c1.8.1 3.4.1 6.2.1 3.2 0 4.6-.6 4.6-2.8-.1-1.8-.9-2.8-2.9-3zm-15.6-2.7c1.3 0 1.7.5 1.7 2.9s-.3 2.9-1.7 2.9c-1.3 0-1.7-.5-1.7-2.9s.3-2.9 1.7-2.9m0-2.8c-4.2 0-5.8 1.5-5.8 5.7 0 4.1 1.6 5.6 5.8 5.6s5.8-1.5 5.8-5.6c-.1-4.2-1.6-5.7-5.8-5.7m-7.7.3h-6.5c-1.9 0-2.8.9-3 2.8-.2 2-.3 3.5-.6 4.2-.2.9-.9.8-1.8 1l.4 2.9c2.3.4 4.5-.2 4.9-2.8.2-1 .5-2.9.6-4.5.1-.6.4-.9 1-.9h.9v8.1h3.9v-10.8h.2zm-18.3 2.5c1.3 0 1.7.5 1.7 2.9s-.3 2.9-1.7 2.9c-1.3 0-1.7-.5-1.7-2.9s.4-2.9 1.7-2.9m0-2.8c-4.2 0-5.8 1.5-5.8 5.7 0 4.1 1.6 5.6 5.8 5.6s5.8-1.5 5.8-5.6c0-4.2-1.6-5.7-5.8-5.7m-6.8 3.3v-3h-10.7v3h3.4v7.8h3.9v-7.8h3.4zm-11.8 4.7c-1.3.2-2.7.2-3.4.2-1.6 0-2.2-.5-2.2-2.5s.5-2.5 2.2-2.5h3.2l.4-2.4c-1.2-.6-3-.7-4.2-.7-4.1 0-5.6 1.5-5.6 5.6s1.5 5.6 5.5 5.6c1.6 0 3.2-.2 4.4-.8l-.3-2.5zm-11.5-3.7H617v2.4h6.3v-2.4zm-12.4.9h-1.5c-1 0-1.2-.3-1.2-1.3 0-.8.2-1 1.2-1h1.5v2.3zm-4.2 1.3c-.6.1-1.8.2-2 1.2l-.8 3.4h4l.7-2.9c.1-.5.3-.6 1-.6h1.4v3.5h3.8v-10.8c-1.3-.2-2.5-.2-5.4-.2-3.9 0-4.9.8-4.9 3.4-.1 1.3.4 2.5 2.2 3zm-4.4-6.2h-3.8v3.8h-3.3v-3.8h-3.9v10.7h3.9v-4.3h3.3v4.3h3.8v-10.7zm-16.1 10.7h3.9l-3.2-5.5 2.9-5.2h-3.9l-2.1 4-2.1-4h-3.9l2.9 5.2-3.2 5.5h3.9l2.3-4.3 2.5 4.3zm-8.8-10.7h-4.2l-1.6 6.4c-.1.5-.3 1.2-.5 1.8h-.1l-.3-1.8-1.6-6.4h-4.2l3.3 9.8c.2.6.6.9 1.3.9h.7c-.3.5-.7 1-1.1 1.3-.7.4-1.6.5-3 .5l-.3 2.5c1.5.3 3.1.3 4.4-.2 1.7-.6 2.9-1.7 3.7-4.2l3.5-10.6zm-17.6 2.9c3-.4 3-1.7 4.7-7.1h-4.1c-1.2 4.5-1.4 5.8-3.5 5.8h-.7c.1-.6.2-1.3.2-1.9v-3.9h-4v14.9h4v-5c0-.4-.1-.9-.2-1.4h.8c2.1 0 2.2 1 3.8 6.4h4.2c-1.8-6.1-2-7.3-5.1-7.7v-.1h-.1zm101.9-82.3c4.7-.2 7.1-.2 10.6-.2 2.6 0 3.7.1 3.7 1.6.1 1.9-2.2 5-6.1 8.9l-7.6 7.9c-1 1.1-1.3 2.2-1.3 3.7v4.8h25.3v-8h-9.8c-1.6 0-3.2.1-4.8.4l8.4-8.2c4.5-4.7 5.3-6.9 5.3-10.6 0-6.7-4.8-8.2-12-8.2-3.7 0-7.2.1-12.2 1.1l.5 6.8zm-9.9 18.2c-2.4 0-3.1.7-3.1 3.1v2.2c0 2.4.7 3.1 3.1 3.1h2.1c2.4 0 3.1-.7 3.1-3.1v-2.2c0-2.4-.7-3.1-3.1-3.1h-2.1zm-24.3-13.9c0-4 .3-5.6 3.9-5.6 3.8 0 4.2 1.3 4.3 8.8-1.6.9-2.7 1.3-4.3 1.3-3.2-.1-3.9-1.1-3.9-4.5m-7.3 21.9c3.9 1 7.6 1 9.5 1 10.8 0 14.8-2.6 14.8-17.9 0-13.7-2.3-17.2-13-17.2-9.9 0-12.7 3.7-12.7 12.5 0 6.2 2.2 10.5 9.8 10.5 3.1 0 5.1-.5 7-2-.2 5.8-1.4 7.5-5.9 7.5h-9l-.5 5.6zm-18.5-14.3c3.7 0 4.5.8 4.5 4.4 0 3.4-.8 4.2-4.6 4.2s-4.7-.8-4.7-4.2c.1-3.5.9-4.4 4.8-4.4m0-13.8c3.4 0 4.2.7 4.2 4.1 0 3-.6 3.7-4.1 3.7s-4.3-.7-4.3-3.7c-.1-3.3.7-4.1 4.2-4.1m-7.4 10.9c-4.9.4-6.1 4.5-6.1 9.1 0 6.6 2.8 9.2 13.4 9.2 10.8-.1 13.4-2.6 13.4-9.2 0-4.5-1.1-8.6-6-9.1v-.2c3.7-.4 5.2-4.1 5.2-7.8 0-6.4-2.2-9.1-12.5-9.1s-12.5 2.8-12.5 9.1c0 3.6 1.5 7.4 5.2 7.8v.2h-.1z" class="st1"/><circle cx="637.2" cy="295.7" r="30.2" style="fill:none;stroke:#39373a;stroke-width:.866;stroke-miterlimit:4.0001"/><path d="M650.9 295.3c5.1-.7 5.3-3 8.1-12.2h-7.1c-2 7.7-2.5 10-6.1 10h-1.2c.2-1 .3-2.2.3-3.2v-6.8h-7v25.7h7v-8.6c0-.7-.1-1.6-.3-2.4h1.3c3.6 0 3.9 1.7 6.5 11h7.3c-3.2-10.6-3.5-12.6-8.8-13.3v-.2zm-34.7-7.2c1.9 0 4.5-.1 7.2-.1 2.6 0 3.4.3 3.4 2.4 0 1.8-.2 2.8-3 2.8h-4.9v4.5h4.9c2.8 0 3.4.8 3.4 3 0 2.6-1 3.1-4.3 3.1-2.2 0-3.9 0-7.1-.2l-.2 5c2.9.4 6.2.7 9.3.7 6.8 0 9.3-2.2 9.2-7.7 0-3.9-1.2-5.9-4.8-6.5v-.1c3.3-.5 4.1-2.8 4.1-6.5 0-4.6-2.4-6-8.7-6-2.8 0-5.7.2-8.6.7l.1 4.9zm258.2 244.7h-.9c-.6 0-.7-.2-.7-.8 0-.5.1-.6.7-.6h.9v1.4zm-2.6.8c-.4 0-1.1.1-1.2.7l-.5 2h2.4l.4-1.7c.1-.3.2-.4.6-.4h.9v2.1h2.3v-6.5c-.8-.1-1.5-.1-3.2-.1-2.4 0-2.9.5-2.9 2.1-.2.8.2 1.6 1.2 1.8zm-6.8.5c0-.3.2-.5.5-.5h1.3v.8c-.4.3-.9.4-1.3.4s-.6-.2-.6-.5l.1-.2zm-1.8-2.5c1.1-.1 2.1-.1 2.8-.1s.9.2.9.7v.2h-2.1c-1.3 0-2.1.6-2.1 1.6v.6c0 1.2 1 1.8 2.2 1.8 1.1 0 1.9-.6 2.3-1.1l.2.9h1.9v-4.1c0-1.9-1-2.5-2.7-2.5-.9 0-2.6.1-3.5.3l.1 1.7zm-1.6-1.7h-2.3v2.3h-2v-2.3H855v6.4h2.3v-2.6h2v2.6h2.3v-6.4zm-8 0h-2.3v2.3h-2v-2.3H847v6.4h2.3v-2.6h2v2.6h2.3v-6.4zm-12.1 4.2c0-.3.2-.5.5-.5h1.3v.8c-.4.3-.9.4-1.3.4s-.6-.2-.6-.5l.1-.2zm-1.8-2.5c1.1-.1 2.1-.1 2.8-.1s.9.2.9.7v.2h-2.1c-1.3 0-2.1.6-2.1 1.6v.6c0 1.2 1 1.8 2.2 1.8 1.1 0 1.9-.6 2.3-1.1l.2.9h1.9v-4.1c0-1.9-1-2.5-2.7-2.5-.9 0-2.6.1-3.5.3l.1 1.7zm-6.2 3.1v-2.3h1.2c.9 0 1.2.2 1.2 1.2 0 .9-.2 1.1-1.1 1.1h-1.3zm0-3.7v-2h1.1c.8 0 1.1.2 1.1 1s-.2 1-1 1h-1.2zm3 .7c1.1-.1 1.6-.8 1.6-2 0-1.8-.9-2.3-3.3-2.3-1.6 0-2.5 0-3.6.1v8.9c1.2.1 2.2.1 4 .1 2.2 0 3.1-.5 3.1-2.3.1-1.5-.4-2.3-1.8-2.5zM862 543l.1-1.8h-5.6l-.2 4c0 .4.3.8.7.8l1.4.2c1.2.1 1.6.3 1.6 1.1-.1.7-.3 1-1.5 1-.6 0-1.5 0-2.3-.1l-.2 1.8c1.1.2 2.3.3 3.2.3 2.5 0 3.2-1.3 3.2-2.9 0-1.4-.5-2.7-2.6-3l-1.5-.2.1-1.2h3.6zm-8.4 5c-.6 0-.8.2-.8.8v.6c0 .6.2.8.8.8h.6c.6 0 .8-.2.8-.8v-.6c0-.6-.2-.8-.8-.8h-.6zm-8-5h2.5c.9 0 1.2.1 1.2.8 0 .6-.1 1-1 1h-1.7v1.6h1.7c1 0 1.2.3 1.2 1 0 .9-.3 1.1-1.5 1.1-.8 0-1.3 0-2.5-.1l-.1 1.7c1 .1 2.1.2 3.2.2 2.4 0 3.2-.8 3.2-2.7 0-1.4-.4-2-1.7-2.2v-.1c1.1-.2 1.4-1 1.4-2.3 0-1.6-.8-2.1-3-2.1-1 0-2 .1-3 .2l.1 1.9z" class="st1"/><g class="st10"><path d="M840.9 441.9c-.9.3-1.7.4-3 .4-2.9 0-3.9-1.2-3.9-4.6s1-4.6 3.9-4.6c1.3 0 2 .1 2.8.3l-.2 1.8h-2.6c-1.1 0-1.4.5-1.4 2.5s.3 2.5 1.4 2.5c1.3 0 2 0 2.8-.1l.2 1.8z" class="st1"/></g><g class="st10"><path d="m841.4 443.1 5.1-9.9h1.9l-5.1 9.9h-1.9z" class="st1"/></g><g class="st10"><path d="M853.7 442c-.5 1.5-1.2 2.1-2.2 2.5-.8.3-1.7.3-2.7.1l.2-1.5c.8 0 1.4 0 1.8-.3.3-.1.5-.4.7-.8h-.4c-.4 0-.6-.2-.8-.6l-2-5.9h2.5l1 3.8c.1.4.1.7.2 1.1h.1c.1-.4.2-.8.3-1.1l.9-3.8h2.5l-2.1 6.5z" class="st1"/></g><g class="st10"><path d="M840.4 455.9V450c0-.3 0-.7.1-1.1l-2.1.5-.3-1.5 2.3-.9h2.4v8.9h-2.4zm5.4-2.2c.6 0 .8.2.8.8v.6c0 .6-.2.8-.8.8h-.6c-.6 0-.8-.2-.8-.8v-.6c0-.6.2-.8.8-.8h.6zm4.1-4.9-.1 1.2 1.5.2c2.1.2 2.6 1.5 2.6 3 0 1.6-.7 2.9-3.2 2.9-.9 0-2-.1-3.2-.3l.2-1.8c.9.1 1.7.1 2.3.1 1.2 0 1.4-.3 1.5-1 0-.8-.4-1-1.6-1.1l-1.4-.2c-.4-.1-.7-.4-.7-.8l.2-4h5.6l-.1 1.8h-3.6z" class="st1"/></g><path d="m916.963 905.715 25.102-25.102 21.071 21.072-25.102 25.102z" class="st1"/><path stroke-width=".866" d="m916.963 905.715 25.102-25.102 21.071 21.072-25.102 25.102z" class="st11"/><path d="m911.947 202.148 16.97-16.97 29.274 29.273-16.97 16.97z" class="st1"/><path stroke-width=".866" d="m911.947 202.148 16.97-16.97 29.274 29.273-16.97 16.97z" class="st11"/><path d="M920.9 419.5H938V469h-17.1zm2.7 49.5v-49.7" class="st12"/><path d="m923.6 466.5 12.3-1.1v-31.3l-12.3-1.4v-2.1l12.4-1.3v-7l-12.4-1.6" class="st12"/><path d="M819.1 477h31v31h-31zm.1.1 30.4 30.9m.2-30.9L819.4 508" class="st4"/><path d="M537.4 401H571v-33.6h-33.6V401zm-.7-34.4h35.1v35.1h-35.1v-35.1z" class="st1"/><path d="M537.4 401H571v-33.6h-33.6V401zm-.7-34.4h35.1v35.1h-35.1v-35.1z" class="st7"/><path d="M568 372.4c0-.8-.7-1.5-1.5-1.5h-17.7c-.8 0-1.5.7-1.5 1.5V396c0 .8.7 1.5 1.5 1.5h17.7c.8 0 1.5-.7 1.5-1.5v-23.6zM546.6 396v-23.6c0-1.2 1-2.2 2.3-2.2h17.7c1.2 0 2.2 1 2.2 2.2V396c0 1.2-1 2.2-2.2 2.2h-17.7c-1.3 0-2.3-1-2.3-2.2" class="st1"/><path d="M568 372.4c0-.8-.7-1.5-1.5-1.5h-17.7c-.8 0-1.5.7-1.5 1.5V396c0 .8.7 1.5 1.5 1.5h17.7c.8 0 1.5-.7 1.5-1.5v-23.6zM546.6 396v-23.6c0-1.2 1-2.2 2.3-2.2h17.7c1.2 0 2.2 1 2.2 2.2V396c0 1.2-1 2.2-2.2 2.2h-17.7c-1.3 0-2.3-1-2.3-2.2z" class="st7"/><path d="M549.9 394.9h15.5v-21.3h-15.5v21.3zm-.7-22.1h17v22.8h-17v-22.8z" class="st1"/><path d="M549.9 394.9h15.5v-21.3h-15.5v21.3zm-.7-22.1h17v22.8h-17v-22.8z" class="st7"/><path d="M560.6 384.2c0-1.1-.9-2-2-2s-2 .9-2 2 .9 2 2 2c1.2 0 2-.9 2-2m-4.6 0c0-1.5 1.2-2.7 2.7-2.7s2.7 1.2 2.7 2.7-1.2 2.7-2.7 2.7c-1.5 0-2.7-1.2-2.7-2.7" class="st1"/><path d="M560.6 384.2c0-1.1-.9-2-2-2s-2 .9-2 2 .9 2 2 2c1.2 0 2-.9 2-2zm-4.6 0c0-1.5 1.2-2.7 2.7-2.7s2.7 1.2 2.7 2.7-1.2 2.7-2.7 2.7c-1.5 0-2.7-1.2-2.7-2.7z" class="st7"/><path d="m603.9 466.1-1.4-2.4-46.2 27.7 1.4 2.4zm9.6 8.6 1.4-2.4 31.6 19-1.4 2.4z" class="st4"/></svg>