<?xml version="1.0" encoding="utf-8"?>
<!-- Generator: Adobe Illustrator 26.5.0, SVG Export Plug-In . SVG Version: 6.00 Build 0)  -->
<svg version="1.1" id="Слой_1" xmlns="http://www.w3.org/2000/svg" xmlns:xlink="http://www.w3.org/1999/xlink" x="0px" y="0px"
	 viewBox="0 0 1000 1000" style="enable-background:new 0 0 1000 1000;" xml:space="preserve">
<style type="text/css">
	.st0{fill:#FFF4A8;}
	.st1{fill:none;stroke:#3C3C3B;stroke-linecap:round;stroke-linejoin:round;stroke-miterlimit:10;}
	.st2{fill:#3C3C3B;}
	.st3{fill:none;stroke:#3C3C3B;}
	.st4{fill:#FFFFFF;}
	.st5{fill:#C6C6C5;}
	.st6{fill:none;stroke:#3C3C3B;stroke-miterlimit:10;}
</style>
<rect x="271.5" y="181.8" class="st0" width="225" height="392.1"/>
<rect x="488.2" y="181.1" class="st0" width="217" height="732.3"/>
<rect x="725" y="571.8" class="st0" width="7.4" height="341.7"/>
<polyline class="st1" points="729.6,399.1 729,400 729,627.6 "/>
<path class="st1" d="M297.5,156.7h1.5"/>
<path class="st1" d="M280.4,149h-1.7 M286.4,156.5l-2.1-7.2"/>
<polyline class="st1" points="284.3,149.2 283.9,148.8 280.4,149 "/>
<polyline class="st1" points="286.4,156.5 297.5,156.5 297.5,156.7 "/>
<polyline class="st1" points="299,156.7 299.2,156.5 301.9,156.5 303,155.6 "/>
<rect x="484.6" y="865.5" class="st1" width="12.1" height="48.7"/>
<polyline class="st1" points="277.7,554.3 277.7,568.6 267.9,568.6 267.9,553.5 "/>
<polygon class="st1" points="267.9,492.4 267.9,439.2 277.7,439.2 277.7,491.3 "/>
<line class="st1" x1="277.7" y1="554.3" x2="267.9" y2="553.5"/>
<rect x="485.7" y="580.7" class="st1" width="9.8" height="334.4"/>
<polyline class="st1" points="264.5,431.9 349.1,431.9 349.1,441.5 265,441.5 "/>
<path class="st1" d="M489.9,933.7l0.2-0.2 M489.9,932v-11.1"/>
<polyline class="st1" points="489.9,932 490.1,932.2 490.1,933.5 "/>
<line class="st1" x1="489.9" y1="920.9" x2="483.8" y2="919.4"/>
<polyline class="st1" points="483.5,913.5 483.3,918.6 483.5,919 483.8,919.4 "/>
<line class="st1" x1="304.3" y1="415.1" x2="355" y2="415.1"/>
<polyline class="st1" points="356.2,412.6 356.2,430.7 303,430.7 303,412.6 "/>
<polyline class="st1" points="306,415.1 307.3,428.1 339.8,428.1 341.1,415.1 "/>
<polyline class="st1" points="343.5,415.1 344.7,428.1 352,428.1 353.3,415.1 "/>
<path class="st1" d="M303,415.1h53.2 M356.2,412.6H303"/>
<path class="st1" d="M495.5,179.7V466"/>
<polyline class="st1" points="495.5,531.4 495.5,568.6 485.7,568.6 485.7,530.5 "/>
<polyline class="st1" points="485.7,467.1 485.7,179.7 495.5,179.7 "/>
<path class="st1" d="M485.7,467.1l9.8-1.1 M485.7,530.5l9.8,0.9"/>
<line class="st1" x1="277.7" y1="550.1" x2="304.7" y2="503"/>
<polygon class="st1" points="277.7,493.7 272.4,493.7 272.4,495.8 277.7,495.8 277.7,492.4 "/>
<polygon class="st1" points="277.7,552.4 272.4,552.4 272.4,550.1 277.7,550.1 277.7,553.5 "/>
<line class="st1" x1="277.7" y1="550.1" x2="304.7" y2="503"/>
<polygon class="st1" points="277.7,493.7 272.4,493.7 272.4,495.8 277.7,495.8 277.7,492.4 "/>
<polygon class="st1" points="277.7,552.4 272.4,552.4 272.4,550.1 277.7,550.1 277.7,553.5 "/>
<rect x="484.6" y="865.5" class="st1" width="12.1" height="48.7"/>
<line class="st1" x1="539.7" y1="937.5" x2="659.2" y2="937.5"/>
<line class="st1" x1="533.8" y1="913.5" x2="497.4" y2="913.5"/>
<polyline class="st1" points="491,932 490.8,932.2 490.8,933.5 "/>
<line class="st1" x1="665.1" y1="913.5" x2="533.8" y2="913.5"/>
<polyline class="st1" points="660.2,932.6 663.4,932.6 665.1,913.5 "/>
<polyline class="st1" points="539.7,937.5 538.7,932.6 535.5,932.6 533.8,913.5 "/>
<line class="st1" x1="660.2" y1="932.6" x2="538.7" y2="932.6"/>
<path class="st1" d="M497.6,918.6l-0.2-5.1 M491,920.9l6.2-1.5"/>
<polyline class="st1" points="497.2,919.4 497.6,919 497.6,918.6 "/>
<polyline class="st1" points="706.9,937.5 707.9,936.9 707.9,933.7 "/>
<path class="st1" d="M707.9,933.7v-0.2 M707.9,932v-11.1"/>
<line class="st1" x1="707.9" y1="932" x2="707.9" y2="933.5"/>
<line class="st1" x1="707.9" y1="920.9" x2="701.8" y2="919.4"/>
<polyline class="st1" points="701.3,913.5 701.3,919 701.8,919.4 "/>
<line class="st1" x1="659.2" y1="937.5" x2="660.2" y2="932.6"/>
<rect x="485.7" y="580.7" class="st1" width="9.8" height="334.4"/>
<line class="st1" x1="701.3" y1="181.6" x2="659.6" y2="181.6"/>
<line class="st1" x1="580.6" y1="157.1" x2="653.9" y2="157.1"/>
<path class="st1" d="M653.9,157.1h53 M492.1,157.1h53 M539.1,181.6h-41.7"/>
<line class="st1" x1="659.6" y1="181.6" x2="586.6" y2="181.6"/>
<polyline class="st1" points="654.9,162 657.7,162 659.6,181.6 "/>
<polyline class="st1" points="545.1,157.1 544,162 541,162 539.1,181.6 "/>
<line class="st1" x1="654.9" y1="162" x2="581.7" y2="162"/>
<line class="st1" x1="653.9" y1="157.1" x2="654.9" y2="162"/>
<polyline class="st1" points="580.6,157.1 581.7,162 584.7,162 586.6,181.6 "/>
<polyline class="st1" points="706.9,157.1 707.9,158.2 707.9,161.3 "/>
<path class="st1" d="M707.9,161.3h0.2 M707.9,163.1v10.9"/>
<line class="st1" x1="707.9" y1="163.1" x2="707.9" y2="161.3"/>
<path class="st1" d="M701.3,176.3v5.3 M707.9,173.9l-6.2,1.7"/>
<polyline class="st1" points="701.8,175.6 701.3,175.8 701.3,176.3 "/>
<polyline class="st1" points="492.1,157.1 491,158.2 491,161.3 "/>
<path class="st1" d="M491,161.3h-0.2 M491,163.1v10.9"/>
<polyline class="st1" points="491,163.1 490.8,162.8 490.8,161.3 "/>
<line class="st1" x1="491" y1="173.9" x2="497.2" y2="175.6"/>
<polyline class="st1" points="497.4,181.6 497.6,176.3 497.6,175.8 497.2,175.6 "/>
<line class="st1" x1="495.5" y1="179.7" x2="495.5" y2="466"/>
<polyline class="st1" points="495.5,531.4 495.5,568.6 485.7,568.6 485.7,530.5 "/>
<polyline class="st1" points="485.7,467.1 485.7,179.7 495.5,179.7 "/>
<path class="st1" d="M485.7,467.1l9.8-1.1 M485.7,530.5l9.8,0.9"/>
<line class="st1" x1="500.1" y1="579.5" x2="542.3" y2="603.5"/>
<path class="st1" d="M549.7,579.5h0.9 M549.7,574.1h-2.3v5.3h2.3V574.1z"/>
<path class="st1" d="M498.2,579.5H497 M498.2,574.1h1.9v5.3h-1.9V574.1z"/>
<path class="st1" d="M544.2,166.2l34.1,19.4 M543.1,168.2l33.8,19.4"/>
<rect x="541" y="162.8" class="st1" width="2.3" height="5.3"/>
<path class="st1" d="M578.3,185.6l-1.3,2.1 M543.1,168.2l1.1-2.1"/>
<line class="st1" x1="367.3" y1="188.2" x2="368.4" y2="186"/>
<path class="st1" d="M584.7,162.8V162 M541,162.8V162"/>
<line class="st1" x1="701.1" y1="579.5" x2="552.3" y2="579.5"/>
<polyline class="st1" points="701.1,569.9 551.5,569.9 552.3,579.5 "/>
<line class="st1" x1="704.1" y1="393.8" x2="551.5" y2="393.8"/>
<polyline class="st1" points="704.1,403.6 552.3,403.6 551.5,393.8 "/>
<line class="st1" x1="482.9" y1="431.7" x2="437.8" y2="414.5"/>
<path class="st1" d="M550.2,393.8h1.3 M550.2,399.1H548v-5.3h2.1V399.1z"/>
<polyline class="st1" points="568.1,537.3 568.1,568.6 573,568.6 573,537.3 "/>
<path class="st1" d="M568.1,446.4h4.9 M568.1,495.6h4.9 M568.1,537.3h4.9 M568.1,446.4v49.2 M573,495.6v-49.2"/>
<line class="st1" x1="567.8" y1="406.8" x2="549.7" y2="438.1"/>
<polygon class="st1" points="567.8,444.1 573.4,444.1 573.4,441.9 567.8,441.9 567.8,445.3 "/>
<polygon class="st1" points="567.8,404.7 573.4,404.7 573.4,406.8 567.8,406.8 567.8,403.6 "/>
<line class="st1" x1="568.1" y1="533.9" x2="550" y2="502.4"/>
<polygon class="st1" points="568.1,496.4 573.4,496.4 573.4,498.8 568.1,498.8 568.1,495.6 "/>
<polygon class="st1" points="568.1,536 573.4,536 573.4,533.9 568.1,533.9 568.1,537.3 "/>
<line class="st1" x1="702.4" y1="636.1" x2="702.4" y2="910.1"/>
<polyline class="st1" points="726.4,936.9 726.4,630.6 725.6,629.7 722.6,629.7 "/>
<path class="st1" d="M722.6,629.7l-0.2-0.2 M720.7,629.7h-10.9"/>
<polyline class="st1" points="720.7,629.7 720.9,629.5 722.2,629.5 "/>
<line class="st1" x1="710.1" y1="629.7" x2="708.1" y2="635.9"/>
<polyline class="st1" points="702.4,636.1 707.9,636.1 708.1,635.9 "/>
<path class="st1" d="M725.6,937.5l0.9-0.9 M710.1,937.5l-1.1-0.9 M708.3,910.9l-6.2-0.9 M725.6,937.5h-15.5"/>
<polyline class="st1" points="709,911.8 708.8,911.1 708.3,910.9 "/>
<line class="st1" x1="709" y1="936.9" x2="709" y2="911.8"/>
<polyline class="st1" points="702.4,622 702.4,405.5 707.5,406 "/>
<polyline class="st1" points="708.1,622.5 707.9,622 707.5,622 "/>
<polyline class="st1" points="725.6,399.1 726.4,400 726.4,627.6 "/>
<path class="st1" d="M722.6,399.1l-0.2-0.2 M720.7,399.1h-10.9 M725.6,399.1h-3"/>
<polyline class="st1" points="720.7,399.1 720.9,398.9 722.2,398.9 "/>
<line class="st1" x1="710.1" y1="399.1" x2="708.1" y2="405.3"/>
<polyline class="st1" points="707.5,406 707.9,405.5 708.1,405.3 "/>
<polyline class="st1" points="726.4,627.6 725.6,628.6 722.6,628.6 "/>
<path class="st1" d="M722.6,628.6h-0.2 M720.7,628.6h-10.9"/>
<line class="st1" x1="720.7" y1="628.6" x2="722.2" y2="628.6"/>
<path class="st1" d="M702.4,391.7V184.8 M707.5,622h-5.1 M710.1,628.6l-1.7-6.2"/>
<polyline class="st1" points="726.4,97.7 726.4,397.2 725.6,398.3 722.6,398.3 "/>
<path class="st1" d="M722.6,398.3l-0.2,0.2 M720.7,398.3h-10.9"/>
<polyline class="st1" points="720.7,398.3 720.9,398.5 722.2,398.5 "/>
<path class="st1" d="M707.5,391.5l-5.1,0.2 M710.1,398.3l-1.7-6.2"/>
<polyline class="st1" points="708.1,392.1 707.9,391.5 707.5,391.5 "/>
<path class="st1" d="M709,158.2v24.9 M702.4,97.7v58.8 M725.6,96.8h-22.4"/>
<polyline class="st1" points="708.4,183.5 708.8,183.3 709,183.1 "/>
<path class="st1" d="M702.4,156.5l6.2,1.1 M702.4,184.8l6.2-1.3"/>
<polyline class="st1" points="709,158.2 708.8,157.7 708.3,157.5 "/>
<path class="st1" d="M703.2,96.8l-1.1,1.1 M725.6,96.8l0.9,1.1"/>
<line class="st1" x1="704.1" y1="403.6" x2="704.1" y2="393.8"/>
<line class="st1" x1="697.5" y1="456.6" x2="697.5" y2="406"/>
<polyline class="st1" points="700,404.7 681.7,404.7 681.7,457.9 700,457.9 "/>
<polyline class="st1" points="697.5,454.7 684.1,453.9 684.1,421.1 697.5,419.8 "/>
<polyline class="st1" points="697.5,417.5 684.1,416.2 684.1,408.9 697.5,407.7 "/>
<path class="st1" d="M697.5,457.9v-53.2 M700,404.7v53.2"/>
<path class="st1" d="M707.5,96.8L492.1,65.8"/>
<polyline class="st1" points="708.4,89.6 493.1,58.5 492.1,65.8 "/>
<polyline class="st1" points="327.3,157.1 326.4,162 323.2,162 321.5,181.6 "/>
<polyline class="st1" points="279,181.6 279,165 284.3,165 "/>
<line class="st1" x1="285.8" y1="157.1" x2="284.9" y2="164.1"/>
<polyline class="st1" points="284.3,165 284.9,164.5 284.9,164.1 "/>
<polyline class="st1" points="489.3,157.1 489.9,158.2 489.9,161.3 "/>
<path class="st1" d="M489.9,161.3h0.2 M489.9,163.1v10.9"/>
<polyline class="st1" points="489.9,163.1 490.1,162.8 490.1,161.3 "/>
<path class="st1" d="M483.3,176.3l0.2,5.3 M489.9,173.9l-6.2,1.7"/>
<polyline class="st1" points="483.8,175.6 483.5,175.8 483.3,176.3 "/>
<path class="st1" d="M327.7,162h-1.3 M327.7,167.5h1.9V162h-1.9V167.5z"/>
<line class="st1" x1="484.6" y1="431.9" x2="484.6" y2="441.5"/>
<line class="st1" x1="708.4" y1="89.6" x2="707.5" y2="96.8"/>
<line class="st1" x1="275.1" y1="569.9" x2="399.7" y2="569.9"/>
<polyline class="st1" points="455.2,569.9 488.2,569.9 488.2,579.5 454.4,579.5 "/>
<polyline class="st1" points="400.3,579.5 275.1,579.5 275.1,569.9 "/>
<path class="st1" d="M399.7,569.9l0.9,9.8 M455.2,569.9l-0.9,9.8"/>
<line class="st1" x1="401.6" y1="579.5" x2="400.3" y2="579.5"/>
<path class="st1" d="M453.1,579.5h1.3 M453.1,574.1H451v5.3h2.1V574.1z"/>
<line class="st1" x1="701.1" y1="569.9" x2="701.1" y2="579.5"/>
<polygon class="st1" points="578.9,465.8 615.3,465.8 615.3,502.2 578.9,502.2 615.3,502.2 "/>
<line class="st1" x1="615.3" y1="465.8" x2="578.9" y2="502.2"/>
<rect x="264" y="428.1" class="st2" width="169.1" height="15.1"/>
<rect x="257.8" y="57" class="st2" width="20.3" height="439.7"/>
<rect x="275.5" y="407" class="st2" width="88.1" height="8.1"/>
<rect x="356.9" y="412.3" class="st2" width="6.8" height="24.5"/>
<rect x="546.8" y="393.4" class="st2" width="160.1" height="10.9"/>
<rect x="546.8" y="567.1" class="st2" width="162.9" height="13.6"/>
<rect x="568.5" y="455.8" class="st2" width="135.6" height="8.1"/>
<rect x="568.5" y="442.4" class="st2" width="5.3" height="57.1"/>
<rect x="568.5" y="536" class="st2" width="5.3" height="39.2"/>
<rect x="483.8" y="526.5" class="st2" width="16.8" height="405.5"/>
<rect x="483" y="912.4" class="st2" width="56.7" height="25.6"/>
<path class="st2" d="M635.1,430.4c0,5.5,4.7,10.2,10.4,10.2h15.1c1.1,0,1.7-0.9,1.7-1.7v-16.8c0-1.1-0.9-1.7-1.7-1.7h-15.1
	C639.8,420.2,635.1,424.9,635.1,430.4 M663.2,422.1V439c0,1.3-1.1,2.6-2.6,2.6h-15.1c-6.2,0-11.3-4.9-11.3-10.9
	c0-6,5.1-10.9,11.3-10.9h15.1C662.2,419.6,663.2,420.6,663.2,422.1"/>
<path class="st3" d="M635.1,430.4c0,5.5,4.7,10.2,10.4,10.2h15.1c1.1,0,1.7-0.9,1.7-1.7v-16.8c0-1.1-0.9-1.7-1.7-1.7h-15.1
	C639.8,420.2,635.1,424.9,635.1,430.4z M663.2,422.1V439c0,1.3-1.1,2.6-2.6,2.6h-15.1c-6.2,0-11.3-4.9-11.3-10.9
	c0-6,5.1-10.9,11.3-10.9h15.1C662.2,419.6,663.2,420.6,663.2,422.1z"/>
<path class="st2" d="M657,437.7v-14.3h-11.3c-4,0-7.2,3.2-7.2,7.2c0,3.8,3.2,7.2,7.2,7.2H657V437.7z M657.9,423.2v14.7
	c0,0.2-0.2,0.4-0.6,0.4h-11.5c-4.5,0-8.1-3.6-8.1-7.9c0-4.3,3.6-7.9,8.1-7.9h11.5C657.5,422.6,657.9,423,657.9,423.2"/>
<path class="st2" d="M645.8,430.4c0,1.1,0.9,1.9,1.9,1.9s1.9-0.9,1.9-1.9c0-1.1-0.9-1.9-1.9-1.9S645.8,429.4,645.8,430.4
	 M650.4,430.4c0,1.5-1.3,2.6-2.8,2.6c-1.5,0-2.8-1.3-2.8-2.6c0-1.5,1.3-2.6,2.8-2.6C649.4,427.9,650.4,429,650.4,430.4"/>
<path class="st3" d="M645.8,430.4c0,1.1,0.9,1.9,1.9,1.9s1.9-0.9,1.9-1.9c0-1.1-0.9-1.9-1.9-1.9S645.8,429.4,645.8,430.4z
	 M650.4,430.4c0,1.5-1.3,2.6-2.8,2.6c-1.5,0-2.8-1.3-2.8-2.6c0-1.5,1.3-2.6,2.8-2.6C649.4,427.9,650.4,429,650.4,430.4z"/>
<polygon class="st2" points="656,436.2 655.6,436.8 650.7,433.2 651.3,432.8 "/>
<polygon class="st3" points="656,436.2 655.6,436.8 650.7,433.2 651.3,432.8 "/>
<polygon class="st2" points="656,424.9 651.3,428.3 650.7,427.9 655.6,424.3 "/>
<polygon class="st3" points="656,424.9 651.3,428.3 650.7,427.9 655.6,424.3 "/>
<path class="st2" d="M663.2,437.5c0,1.5,1.3,2.8,3,2.8h4c1.7,0,3-1.3,3-2.8v-14.1c0-1.5-1.3-2.8-3-2.8h-4c-1.7,0-3,1.3-3,2.8V437.5z
	 M673.7,423.4v14.1c0,1.9-1.7,3.6-3.6,3.6h-4c-1.9,0-3.6-1.5-3.6-3.6v-14.1c0-1.9,1.7-3.6,3.6-3.6h4
	C672.2,420,673.7,421.5,673.7,423.4"/>
<path class="st3" d="M663.2,437.5c0,1.5,1.3,2.8,3,2.8h4c1.7,0,3-1.3,3-2.8v-14.1c0-1.5-1.3-2.8-3-2.8h-4c-1.7,0-3,1.3-3,2.8V437.5z
	 M673.7,423.4v14.1c0,1.9-1.7,3.6-3.6,3.6h-4c-1.9,0-3.6-1.5-3.6-3.6v-14.1c0-1.9,1.7-3.6,3.6-3.6h4
	C672.2,420,673.7,421.5,673.7,423.4z"/>
<path class="st2" d="M667.1,430.4c0,0.6,0.4,1.1,1.1,1.1c0.6,0,1.1-0.4,1.1-1.1c0-0.6-0.4-1.1-1.1-1.1
	C667.5,429.4,667.1,429.8,667.1,430.4 M670,430.4c0,1.1-0.9,1.7-1.9,1.7s-1.9-0.9-1.9-1.7c0-1.1,0.9-1.7,1.9-1.7
	S670,429.6,670,430.4"/>
<path class="st3" d="M667.1,430.4c0,0.6,0.4,1.1,1.1,1.1c0.6,0,1.1-0.4,1.1-1.1c0-0.6-0.4-1.1-1.1-1.1
	C667.5,429.4,667.1,429.8,667.1,430.4z M670,430.4c0,1.1-0.9,1.7-1.9,1.7s-1.9-0.9-1.9-1.7c0-1.1,0.9-1.7,1.9-1.7
	S670,429.6,670,430.4z"/>
<rect x="278.1" y="408.5" class="st2" width="81.5" height="26.8"/>
<rect x="285.6" y="413" class="st4" width="11.3" height="17.9"/>
<polygon class="st5" points="296.8,430.9 285.6,430.9 285.6,413 287.7,426.4 "/>
<rect x="343.9" y="413" class="st4" width="11.3" height="17.9"/>
<polygon class="st5" points="355,430.9 343.9,430.9 343.9,413 346,426.4 "/>
<rect x="300" y="413" class="st4" width="40.4" height="17.9"/>
<polygon class="st5" points="340.5,430.9 300,430.9 300,413 306,426.4 "/>
<path class="st2" d="M636,490.9c5.7,0,10.4-4.7,10.4-10.4v-11.1c0-0.9-0.6-1.5-1.5-1.5h-23.6c-0.9,0-1.5,0.6-1.5,1.5v11.1
	c0,5.7,4.7,10.4,10.4,10.4H636z M621.1,467.3h23.6c1.3,0,2.1,1.1,2.1,2.1v11.1c0,6.2-4.9,11.1-11.1,11.1h-6
	c-6.2,0-11.1-4.9-11.1-11.1v-11.1C618.9,468.1,620,467.3,621.1,467.3"/>
<path class="st3" d="M636,490.9c5.7,0,10.4-4.7,10.4-10.4v-11.1c0-0.9-0.6-1.5-1.5-1.5h-23.6c-0.9,0-1.5,0.6-1.5,1.5v11.1
	c0,5.7,4.7,10.4,10.4,10.4H636z M621.1,467.3h23.6c1.3,0,2.1,1.1,2.1,2.1v11.1c0,6.2-4.9,11.1-11.1,11.1h-6
	c-6.2,0-11.1-4.9-11.1-11.1v-11.1C618.9,468.1,620,467.3,621.1,467.3z"/>
<path class="st2" d="M636,488.3c4.3,0,7.9-3.4,7.9-7.9v-6.4c0-0.9-0.6-1.3-1.3-1.3h-18.7c-0.9,0-1.3,0.6-1.3,1.3v6.4
	c0,4.3,3.4,7.9,7.9,7.9H636z M623.6,472.2h18.7c1.1,0,1.9,0.9,1.9,1.9v6.4c0,4.7-3.8,8.5-8.5,8.5h-6c-4.7,0-8.5-3.8-8.5-8.5v-6.4
	C621.5,473,622.6,472.2,623.6,472.2"/>
<path class="st3" d="M636,488.3c4.3,0,7.9-3.4,7.9-7.9v-6.4c0-0.9-0.6-1.3-1.3-1.3h-18.7c-0.9,0-1.3,0.6-1.3,1.3v6.4
	c0,4.3,3.4,7.9,7.9,7.9H636z M623.6,472.2h18.7c1.1,0,1.9,0.9,1.9,1.9v6.4c0,4.7-3.8,8.5-8.5,8.5h-6c-4.7,0-8.5-3.8-8.5-8.5v-6.4
	C621.5,473,622.6,472.2,623.6,472.2z"/>
<path class="st2" d="M633,482.8c0.6,0,1.3-0.6,1.3-1.3c0-0.6-0.6-1.3-1.3-1.3c-0.6,0-1.3,0.6-1.3,1.3
	C631.7,482.2,632.1,482.8,633,482.8 M633,479.6c1.1,0,1.9,0.9,1.9,1.9c0,1.1-0.9,1.9-1.9,1.9c-1.1,0-1.9-0.9-1.9-1.9
	C631.1,480.5,631.9,479.6,633,479.6"/>
<path class="st3" d="M633,482.8c0.6,0,1.3-0.6,1.3-1.3c0-0.6-0.6-1.3-1.3-1.3c-0.6,0-1.3,0.6-1.3,1.3
	C631.7,482.2,632.1,482.8,633,482.8z M633,479.6c1.1,0,1.9,0.9,1.9,1.9c0,1.1-0.9,1.9-1.9,1.9c-1.1,0-1.9-0.9-1.9-1.9
	C631.1,480.5,631.9,479.6,633,479.6z"/>
<path class="st3" d="M686.2,471.5c6.2,0,11.3,5.1,11.3,11.3v67.5c0,6.2-5.1,11.3-11.3,11.3h-15.1c-6.2,0-11.3-5.1-11.3-11.3v-67.5
	c0-6.2,5.1-11.3,11.3-11.3H686.2z"/>
<path class="st3" d="M682.6,477.7c6.2,0,11.3,5.1,11.3,11.3v54.9c0,6.2-5.1,11.3-11.3,11.3h-8.1c-6.2,0-11.3-5.1-11.3-11.3V489
	c0-6.2,5.1-11.3,11.3-11.3H682.6z"/>
<path class="st3" d="M684.9,485.4c3.2,0,5.7,2.6,5.7,5.7V546c0,3.2-2.6,5.7-5.7,5.7h-12.6c-3.2,0-5.7-2.6-5.7-5.7v-55.1
	c0-3.2,2.6-5.7,5.7-5.7h12.6V485.4z"/>
<path class="st3" d="M678.5,541.6c0.9,0,1.7,0.8,1.7,1.7c0,0.9-0.8,1.7-1.7,1.7c-0.9,0-1.7-0.8-1.7-1.7
	C676.8,542.3,677.6,541.6,678.5,541.6z"/>
<line class="st3" x1="657.5" y1="464.1" x2="657.5" y2="568.8"/>
<line class="st3" x1="578.9" y1="465.8" x2="578.9" y2="503"/>
<rect x="278.1" y="154.5" class="st2" width="56.2" height="27.9"/>
<rect x="261.8" y="57" class="st2" width="40.7" height="103.1"/>
<rect x="297.1" y="58.5" class="st6" width="195.9" height="9.2"/>
<rect x="440.5" y="154.5" class="st2" width="106.2" height="29.8"/>
<rect x="481.2" y="56.8" class="st2" width="16.6" height="53.9"/>
<rect x="482.9" y="181.8" class="st2" width="13.8" height="287.8"/>
<rect x="652.8" y="157.3" class="st2" width="62.4" height="27"/>
<rect x="701.5" y="89.4" class="st2" width="30.8" height="849.6"/>
<rect x="659.2" y="912.4" class="st2" width="65.8" height="26.4"/>
<rect x="258" y="567.1" class="st2" width="237.5" height="13.6"/>
<rect x="451.8" y="567.1" class="st2" width="43.4" height="10.9"/>
<rect x="258" y="552" class="st2" width="20" height="28"/>
<polyline class="st1" points="681.5,403 699.6,403 699.6,456 681.5,456 "/>
<polyline class="st1" points="683.7,453.2 697.1,451.9 697.1,419.2 683.7,418.1 "/>
<polyline class="st1" points="683.7,415.5 697.1,414.3 697.1,407 683.7,405.7 "/>
<rect x="682.2" y="403.2" class="st2" width="20.2" height="54.1"/>
<rect x="685.1" y="406.2" class="st4" width="12.3" height="7.7"/>
<polygon class="st5" points="685.1,413.8 685.1,406.2 697.5,406.2 688.3,407.7 "/>
<rect x="685.1" y="416.2" class="st4" width="12.3" height="40.4"/>
<polygon class="st5" points="685.1,444.1 685.1,416.2 697.5,416.2 688.3,420.2 "/>
<path class="st2" d="M589.1,306.1V321h-4v-10v-0.9c0-0.2,0-0.6,0.2-0.9l-3.4,0.9l-0.4-2.6l3.8-1.5H589.1z"/>
<path class="st2" d="M598.9,306.1V321h-4v-10v-0.9c0-0.2,0-0.6,0.2-0.9l-3.4,0.9l-0.4-2.6l3.8-1.5H598.9z"/>
<path class="st2" d="M603.8,317.4c0.4,0,0.9,0,1.1,0.2c0.2,0.2,0.2,0.6,0.2,1.1v1.5c0,0.6,0,1.3-0.2,1.7c0,0.4-0.2,0.9-0.4,1.3
	c-0.2,0.4-0.4,0.9-0.6,1.3l-1.5-0.4c0.2-0.4,0.2-0.9,0.2-1.5V321c-0.6,0-1.1-0.4-1.1-1.3v-1.1c0-0.4,0.2-0.9,0.2-1.1
	c0-0.2,0.6-0.2,1.1-0.2H603.8z"/>
<path class="st2" d="M612.3,305.9c1.3,0,2.1,0.2,3,0.4c0.9,0.2,1.3,0.6,1.7,1.3c0.4,0.6,0.6,1.3,0.9,2.3c0.2,1.1,0.2,2.3,0.2,3.8
	c0,1.7-0.2,3-0.4,4c-0.2,1.1-0.6,1.9-1.1,2.3c-0.4,0.6-1.3,0.9-1.9,1.1c-0.9,0.2-1.9,0.2-3,0.2H610c-0.6,0-1.5-0.2-2.3-0.4l0.2-2.6
	h1.3h1.3h1.7c0.6,0,1.1,0,1.5-0.2c0.4-0.2,0.6-0.4,0.9-0.9c0.2-0.4,0.2-0.9,0.4-1.7v-2.6v-2.3c0-0.6-0.2-1.1-0.2-1.3
	c-0.2-0.2-0.2-0.4-0.6-0.6c-0.2-0.2-0.6-0.2-1.1-0.2c-0.4,0-0.9,0-1.1,0.2c-0.2,0.2-0.4,0.4-0.4,0.9c0,0.4-0.2,0.9-0.2,1.5
	c0,0.4,0,0.9,0.2,1.3c0,0.2,0.2,0.4,0.4,0.6c0.2,0.2,0.6,0.2,1.1,0.2c0.4,0,0.6,0,1.1-0.2c0.2,0,0.6-0.2,1.1-0.4
	c0.4-0.2,0.9-0.4,1.5-0.9v1.5c-0.4,0.6-0.9,1.3-1.3,1.7c-0.4,0.4-0.9,0.6-1.5,0.9c-0.4,0.2-1.1,0.2-1.9,0.2c-1.1,0-1.9-0.2-2.6-0.6
	c-0.6-0.4-1.1-0.9-1.3-1.7c-0.2-0.6-0.4-1.5-0.4-2.3c0-1.3,0.2-2.3,0.4-3.2c0.4-0.9,0.9-1.5,1.7-1.7
	C609.8,306.1,611.1,305.9,612.3,305.9"/>
<path class="st2" d="M375.6,523.7c0.4,0,0.6,0,1.1,0.2l0.6,0.6v1.1l-4.5,13h-4l3.6-10.2c0-0.2,0.2-0.4,0.2-0.9
	c0.2-0.2,0.2-0.4,0.4-0.9h-6.6l-0.2-3.2h9.4V523.7z"/>
<path class="st2" d="M379.7,535c0.4,0,0.9,0,1.1,0.2c0.2,0.2,0.2,0.6,0.2,1.1v1.5c0,0.6,0,1.3-0.2,1.7c-0.2,0.4-0.2,0.9-0.4,1.3
	c-0.2,0.4-0.4,0.9-0.6,1.3l-1.5-0.4c0.2-0.4,0.2-0.9,0.2-1.5v-1.5c-0.6,0-1.1-0.4-1.1-1.3v-1.1c0-0.4,0.2-0.9,0.2-1.1
	c0-0.2,0.6-0.2,1.1-0.2H379.7z"/>
<path class="st2" d="M388,523.5c1.3,0,2.3,0,3,0.2c0.6,0.2,1.3,0.6,1.7,1.1c0.4,0.4,0.4,1.3,0.4,2.1c0,0.6,0,1.3-0.2,1.9
	c-0.2,0.6-0.4,0.9-0.6,1.3c-0.2,0.4-0.9,0.6-1.5,0.6c1.1,0.2,1.7,0.6,2.1,1.1c0.4,0.6,0.6,1.5,0.6,2.6c0,1.1-0.2,1.9-0.4,2.6
	c-0.4,0.6-0.9,1.1-1.7,1.5c-0.9,0.2-1.9,0.4-3.2,0.4c-0.9,0-1.9,0-2.8-0.2c-0.9,0-1.9-0.2-2.8-0.2l0.2-3h1.7h1.3h1.3
	c0.6,0,1.1,0,1.5-0.2c0.4-0.2,0.6-0.2,0.9-0.4c0.2-0.2,0.2-0.6,0.2-1.1c0-0.4,0-0.9-0.2-1.1c0-0.2-0.2-0.4-0.6-0.6
	c-0.2-0.2-0.6-0.2-1.3-0.2h-2.8v-2.6h2.8c0.4,0,0.9,0,1.1-0.2c0.2,0,0.4-0.2,0.4-0.4c0.2-0.2,0.2-0.2,0.2-0.4v-0.6
	c0-0.4,0-0.6-0.2-0.9c-0.2-0.2-0.2-0.4-0.6-0.4c-0.2,0-0.6-0.2-1.3-0.2h-2.3h-1.9l-0.2-2.8c0.9-0.2,1.7-0.2,2.6-0.2
	C386.2,523.5,387.1,523.5,388,523.5"/>
<path class="st2" d="M522.7,519.2c1.3,0,2.3,0,3,0.2c0.6,0.2,1.3,0.6,1.7,1.1c0.4,0.4,0.4,1.3,0.4,2.1c0,0.6,0,1.3-0.2,1.9
	c-0.2,0.6-0.4,0.9-0.6,1.3c-0.2,0.4-0.9,0.6-1.5,0.6c1.1,0.2,1.7,0.6,2.1,1.1c0.4,0.6,0.6,1.5,0.6,2.6c0,1.1-0.2,1.9-0.4,2.6
	c-0.4,0.6-0.9,1.1-1.7,1.5c-0.9,0.2-1.9,0.4-3.2,0.4c-0.9,0-1.9,0-2.8-0.2c-0.9,0-1.9-0.2-2.8-0.2l0.2-3h1.7h1.3h1.3
	c0.6,0,1.1,0,1.5-0.2c0.4-0.2,0.6-0.2,0.9-0.4c0.2-0.2,0.2-0.6,0.2-1.1c0-0.4,0-0.9-0.2-1.1c0-0.2-0.2-0.4-0.6-0.6
	c-0.2-0.2-0.6-0.2-1.3-0.2h-2.8V525h2.8c0.4,0,0.9,0,1.1-0.2c0.2,0,0.4-0.2,0.4-0.4c0.2-0.2,0.2-0.2,0.2-0.4v-0.6
	c0-0.4,0-0.6-0.2-0.9c-0.2-0.2-0.2-0.4-0.6-0.4c-0.2,0-0.6-0.2-1.3-0.2h-2.3h-1.9l-0.2-2.8c0.9-0.2,1.7-0.2,2.6-0.2
	C521,519.2,521.9,519.2,522.7,519.2"/>
<path class="st2" d="M532.3,530.9c0.4,0,0.9,0,1.1,0.2c0.2,0.2,0.2,0.6,0.2,1.1v1.5c0,0.6,0,1.3-0.2,1.7c-0.2,0.4-0.2,0.9-0.4,1.3
	c-0.2,0.4-0.4,0.9-0.6,1.3l-1.5-0.4c0.2-0.4,0.2-0.9,0.2-1.5v-1.5c-0.6,0-1.1-0.4-1.1-1.3v-1.1c0-0.4,0.2-0.9,0.2-1.1
	c0-0.2,0.6-0.2,1.1-0.2H532.3z"/>
<path class="st2" d="M540.6,519.2c1.3,0,2.3,0,3,0.2c0.6,0.2,1.3,0.6,1.7,1.1c0.4,0.4,0.4,1.3,0.4,2.1c0,0.6,0,1.3-0.2,1.9
	c-0.2,0.6-0.4,0.9-0.6,1.3c-0.2,0.4-0.9,0.6-1.5,0.6c1.1,0.2,1.7,0.6,2.1,1.1c0.4,0.6,0.6,1.5,0.6,2.6c0,1.1-0.2,1.9-0.4,2.6
	c-0.4,0.6-0.9,1.1-1.7,1.5c-0.9,0.2-1.9,0.4-3.2,0.4c-0.9,0-1.9,0-2.8-0.2c-0.9,0-1.9-0.2-2.8-0.2l0.2-3h1.7h1.3h1.3
	c0.6,0,1.1,0,1.5-0.2c0.4-0.2,0.6-0.2,0.9-0.4c0.2-0.2,0.2-0.6,0.2-1.1c0-0.4,0-0.9-0.2-1.1c0-0.2-0.2-0.4-0.6-0.6
	c-0.2-0.2-0.6-0.2-1.3-0.2h-2.8V525h2.8c0.4,0,0.9,0,1.1-0.2c0.2,0,0.4-0.2,0.4-0.4c0.2-0.2,0.2-0.2,0.2-0.4v-0.6
	c0-0.4,0-0.6-0.2-0.9c-0.2-0.2-0.2-0.4-0.6-0.4c-0.2,0-0.6-0.2-1.3-0.2h-2.3h-1.9l-0.2-2.8c0.9-0.2,1.7-0.2,2.6-0.2
	C538.9,519.2,539.7,519.2,540.6,519.2"/>
<path class="st2" d="M599.7,433.7v12.2h-3.3v-8.2V437c0-0.2,0-0.5,0.2-0.7l-2.8,0.7l-0.3-2.1l3.1-1.2H599.7z"/>
<path class="st2" d="M603.7,442.9c0.3,0,0.7,0,0.9,0.2c0.2,0.2,0.2,0.5,0.2,0.9v1.2c0,0.5,0,1-0.2,1.4c-0.2,0.3-0.2,0.7-0.3,1
	c-0.2,0.3-0.3,0.7-0.5,1l-1.2-0.3c0.2-0.3,0.2-0.7,0.2-1.2v-1.2c-0.5,0-0.9-0.3-0.9-1V444c0-0.3,0.2-0.7,0.2-0.9
	c0-0.2,0.5-0.2,0.9-0.2H603.7z"/>
<path class="st2" d="M614.4,433.7l-0.2,2.4h-5l-0.2,1.7l2.1,0.3c0.7,0,1.4,0.2,1.7,0.5c0.5,0.2,0.9,0.5,1,0.9
	c0.2,0.3,0.5,0.7,0.5,1.2c0,0.5,0.2,0.9,0.2,1.4c0,0.5,0,1-0.2,1.6c-0.2,0.5-0.3,0.9-0.7,1.2c-0.3,0.3-0.9,0.7-1.4,0.9
	c-0.5,0.2-1.2,0.3-2.1,0.3c-0.7,0-1.2,0-2.1-0.2c-0.9-0.2-1.6-0.2-2.3-0.3l0.3-2.4c0.5,0,1.2,0,1.7,0.2c0.5,0.2,1,0,1.4,0
	c0.5,0,1,0,1.2-0.2c0.3-0.2,0.5-0.2,0.5-0.5c0.2-0.2,0.2-0.5,0.2-0.9v-0.7c0-0.2-0.2-0.3-0.3-0.5c-0.2-0.2-0.3-0.2-0.7-0.2
	c-0.3,0-0.7-0.2-1-0.2l-1.9-0.2c-0.3,0-0.5-0.2-0.7-0.3c-0.2-0.2-0.2-0.5-0.2-0.7l0.3-5.6h7.6V433.7z"/>
<path class="st2" d="M611.5,539.8c1.1,0,1.9,0,2.4,0.2c0.5,0.2,1.1,0.5,1.4,0.9c0.4,0.4,0.4,1.1,0.4,1.7c0,0.5,0,1.1-0.2,1.6
	c-0.2,0.5-0.4,0.7-0.5,1c-0.2,0.4-0.7,0.5-1.2,0.5c0.9,0.2,1.4,0.5,1.8,0.9c0.4,0.5,0.5,1.2,0.5,2.1s-0.2,1.6-0.3,2.1
	c-0.4,0.5-0.7,0.9-1.4,1.2c-0.7,0.2-1.6,0.4-2.6,0.4c-0.7,0-1.6,0-2.3-0.2c-0.7,0-1.6-0.2-2.3-0.2l0.2-2.4h1.4h1.1h1.1
	c0.5,0,0.9,0,1.2-0.2c0.4-0.2,0.5-0.2,0.7-0.4c0.2-0.2,0.2-0.5,0.2-0.9c0-0.3,0-0.7-0.2-0.9c0-0.2-0.2-0.3-0.5-0.5
	c-0.2-0.2-0.5-0.2-1.1-0.2h-2.3v-2.1h2.3c0.4,0,0.7,0,0.9-0.2c0.2,0,0.4-0.2,0.4-0.3c0.2-0.2,0.2-0.2,0.2-0.4v-0.5
	c0-0.4,0-0.5-0.2-0.7c-0.2-0.2-0.2-0.3-0.5-0.3c-0.2,0-0.5-0.2-1.1-0.2h-1.9h-1.6l-0.2-2.3c0.7-0.2,1.4-0.2,2.1-0.2
	C610.1,539.8,610.8,539.8,611.5,539.8"/>
<path class="st2" d="M619.2,549.4c0.4,0,0.7,0,0.9,0.2c0.2,0.2,0.2,0.5,0.2,0.9v1.2c0,0.5,0,1.1-0.2,1.4c-0.2,0.4-0.2,0.7-0.4,1.1
	c-0.2,0.4-0.3,0.7-0.5,1.1l-1.2-0.4c0.2-0.3,0.2-0.7,0.2-1.2v-1.2c-0.5,0-0.9-0.4-0.9-1.1v-0.9c0-0.4,0.2-0.7,0.2-0.9
	c0-0.2,0.5-0.2,0.9-0.2H619.2z"/>
<path class="st2" d="M630.2,540.1l-0.2,2.4h-5.1l-0.2,1.8l2.1,0.3c0.7,0,1.4,0.2,1.8,0.5c0.5,0.2,0.9,0.5,1,0.9
	c0.2,0.4,0.5,0.7,0.5,1.2c0,0.5,0.2,0.9,0.2,1.4c0,0.5,0,1.1-0.2,1.6c-0.2,0.5-0.4,0.9-0.7,1.2c-0.4,0.4-0.9,0.7-1.4,0.9
	c-0.5,0.2-1.2,0.4-2.1,0.4c-0.7,0-1.2,0-2.1-0.2c-0.9-0.2-1.6-0.2-2.3-0.3l0.3-2.5c0.5,0,1.2,0,1.8,0.2c0.5,0.2,1,0,1.4,0
	c0.5,0,1.1,0,1.2-0.2c0.4-0.2,0.5-0.2,0.5-0.5c0.2-0.2,0.2-0.5,0.2-0.9v-0.7c0-0.2-0.2-0.3-0.3-0.5c-0.2-0.2-0.4-0.2-0.7-0.2
	c-0.3,0-0.7-0.2-1.1-0.2l-1.9-0.2c-0.3,0-0.5-0.2-0.7-0.3c-0.2-0.2-0.2-0.5-0.2-0.7l0.4-5.6h7.7V540.1z"/>
<path class="st2" d="M590.2,856.9v14.9h-4v-10v-0.9c0-0.2,0-0.6,0.2-0.9l-3.4,0.9l-0.4-2.6l3.8-1.5H590.2z"/>
<path class="st2" d="M598.9,856.4c1.1,0,2.1,0,2.8,0.2c0.6,0.2,1.3,0.4,1.7,0.6c0.4,0.4,0.6,0.6,0.9,1.3c0.2,0.6,0.2,1.1,0.2,1.9
	c0,0.6,0,1.1-0.2,1.5c-0.2,0.4-0.4,0.9-0.6,1.3c-0.4,0.4-0.9,0.6-1.3,0.6c0.6,0,1.3,0.2,1.7,0.6c0.4,0.4,0.6,0.9,0.9,1.5
	c0.2,0.6,0.2,1.3,0.2,1.9c0,1.1-0.2,1.7-0.4,2.3c-0.2,0.6-0.9,1.1-1.7,1.3c-0.9,0.2-2.1,0.4-3.6,0.4c-1.5,0-2.8-0.2-3.6-0.4
	c-0.9-0.2-1.5-0.6-1.7-1.3c-0.2-0.6-0.4-1.3-0.4-2.3c0-0.6,0-1.3,0.2-1.9c0.2-0.6,0.4-1.1,0.9-1.5c0.4-0.4,0.9-0.6,1.7-0.6
	c-0.6,0-1.1-0.2-1.3-0.6c-0.4-0.4-0.6-0.9-0.6-1.3c0-0.4-0.2-1.1-0.2-1.5c0-0.6,0-1.3,0.2-1.9c0.2-0.6,0.4-0.9,0.9-1.3
	c0.4-0.4,1.1-0.6,1.7-0.6C596.8,856.6,597.9,856.4,598.9,856.4 M598.9,865.4h-1.1c-0.2,0-0.4,0.2-0.6,0.2c-0.2,0.2-0.2,0.4-0.2,0.6
	v1.1c0,0.4,0,0.9,0.2,1.1c0.2,0.2,0.4,0.4,0.6,0.6c0.2,0,0.6,0.2,1.3,0.2c0.6,0,1.1,0,1.3-0.2c0.2,0,0.4-0.2,0.6-0.6
	c0-0.2,0.2-0.6,0.2-1.1v-1.1c0-0.2-0.2-0.4-0.2-0.6c-0.2-0.2-0.4-0.2-0.6-0.2H598.9z M598.9,859.2c-0.4,0-0.9,0-1.3,0.2
	c-0.2,0-0.4,0.2-0.6,0.6c-0.2,0.4-0.2,0.6-0.2,1.1c0,0.4,0,0.9,0.2,1.1c0.2,0.2,0.2,0.4,0.6,0.4c0.4,0,0.6,0.2,1.3,0.2
	c0.4,0,0.9,0,1.3-0.2c0.2,0,0.4-0.2,0.4-0.4c0-0.2,0.2-0.6,0.2-1.1c0-0.4,0-0.9-0.2-1.1c-0.2-0.2-0.2-0.4-0.6-0.6
	C599.6,859.2,599.4,859.2,598.9,859.2"/>
<path class="st2" d="M608.9,868.1c0.4,0,0.9,0,1.1,0.2c0.2,0.2,0.2,0.6,0.2,1.1v1.5c0,0.6,0,1.3-0.2,1.7c-0.2,0.4-0.2,0.9-0.4,1.3
	c-0.2,0.4-0.4,0.9-0.6,1.3l-1.5-0.4c0.2-0.4,0.2-0.9,0.2-1.5v-1.5c-0.6,0-1.1-0.4-1.1-1.3v-1.1c0-0.4,0.2-0.9,0.2-1.1
	c0-0.2,0.6-0.2,1.1-0.2H608.9z"/>
<path class="st2" d="M618.1,856.4c1.1,0,2.1,0,2.8,0.2c0.6,0.2,1.3,0.4,1.7,0.6c0.4,0.4,0.6,0.6,0.9,1.3c0.2,0.6,0.2,1.1,0.2,1.9
	c0,0.6,0,1.1-0.2,1.5c-0.2,0.4-0.4,0.9-0.6,1.3c-0.4,0.4-0.9,0.6-1.3,0.6c0.6,0,1.3,0.2,1.7,0.6c0.4,0.4,0.6,0.9,0.9,1.5
	c0.2,0.6,0.2,1.3,0.2,1.9c0,1.1-0.2,1.7-0.4,2.3c-0.2,0.6-0.9,1.1-1.7,1.3c-0.9,0.2-2.1,0.4-3.6,0.4c-1.5,0-2.8-0.2-3.6-0.4
	c-0.9-0.2-1.5-0.6-1.7-1.3c-0.2-0.6-0.4-1.3-0.4-2.3c0-0.6,0-1.3,0.2-1.9c0.2-0.6,0.4-1.1,0.9-1.5c0.4-0.4,0.9-0.6,1.7-0.6
	c-0.6,0-1.1-0.2-1.3-0.6c-0.4-0.4-0.6-0.9-0.6-1.3c0-0.4-0.2-1.1-0.2-1.5c0-0.6,0-1.3,0.2-1.9c0.2-0.6,0.4-0.9,0.9-1.3
	c0.4-0.4,1.1-0.6,1.7-0.6C616,856.6,616.8,856.4,618.1,856.4 M618.1,865.4H617c-0.2,0-0.4,0.2-0.6,0.2c-0.2,0.2-0.2,0.4-0.2,0.6v1.1
	c0,0.4,0,0.9,0.2,1.1c0.2,0.2,0.4,0.4,0.6,0.6c0.2,0,0.6,0.2,1.3,0.2c0.6,0,1.1,0,1.3-0.2c0.2,0,0.4-0.2,0.6-0.6
	c0-0.2,0.2-0.6,0.2-1.1v-1.1c0-0.2-0.2-0.4-0.2-0.6c-0.2-0.2-0.4-0.2-0.6-0.2H618.1z M618.1,859.2c-0.4,0-0.9,0-1.3,0.2
	c-0.2,0-0.4,0.2-0.6,0.6c-0.2,0.4-0.2,0.6-0.2,1.1c0,0.4,0,0.9,0.2,1.1c0.2,0.2,0.2,0.4,0.6,0.4c0.4,0,0.6,0.2,1.3,0.2
	c0.4,0,0.9,0,1.3-0.2c0.2,0,0.4-0.2,0.4-0.4c0-0.2,0.2-0.6,0.2-1.1c0-0.4,0-0.9-0.2-1.1c-0.2-0.2-0.2-0.4-0.6-0.6
	C618.7,859.2,618.5,859.2,618.1,859.2"/>
<path class="st2" d="M521.9,796.6c0.4,1.1,0.6,2.1,0.9,2.8c0.2,0.9,0.4,1.3,0.6,1.7c0.2,0.4,0.4,0.9,0.6,0.9
	c0.2,0.2,0.6,0.2,0.9,0.2v2.8c-0.4,0-0.6,0-0.9,0.2c-0.2,0.2-0.4,0.4-0.6,0.9c-0.2,0.4-0.4,1.1-0.6,1.9c-0.2,0.9-0.6,1.9-1.1,3.4
	h-4.3c0.4-1.3,0.6-2.3,0.9-3.2c0.2-0.9,0.4-1.5,0.6-2.1c0.2-0.6,0.4-1.1,0.9-1.3c0.2-0.4,0.6-0.6,1.1-0.9c0.4-0.2,0.9-0.2,1.5-0.4
	v0.2c-0.6,0-1.1-0.2-1.5-0.4c-0.4-0.2-0.6-0.4-1.1-0.9l-0.6-1.3c-0.2-0.4-0.4-1.1-0.6-1.9c-0.2-0.9-0.4-1.7-0.9-2.8h4.3V796.6z
	 M526.3,805.1h-2.1v-2.8h2.1V805.1z M529.3,796.6v4c0,0.4,0,1.1-0.2,1.7c-0.2,0.6-0.2,1.1-0.4,1.5c0.2,0.4,0.2,0.9,0.4,1.5
	c0.2,0.6,0.2,1.1,0.2,1.5v5.1h-3.8v-5.1c0-0.4,0-0.9,0.2-1.5c0.2-0.6,0.2-1.1,0.4-1.5c-0.2-0.4-0.4-1.1-0.4-1.5
	c0-0.4-0.2-1.1-0.2-1.7v-4H529.3z M530.4,805.1h-2.1v-2.8h2.1V805.1z M537,796.6c-0.4,1.1-0.6,1.9-0.9,2.8c-0.2,0.9-0.4,1.5-0.6,1.9
	s-0.4,0.9-0.6,1.3s-0.6,0.6-1.1,0.9c-0.4,0.2-0.9,0.2-1.5,0.4v0.2c0.6,0,1.1,0.2,1.5,0.4c0.4,0.2,0.9,0.4,1.1,0.9
	c0.2,0.4,0.6,0.9,0.9,1.3c0.2,0.6,0.4,1.3,0.6,2.1c0.2,0.9,0.6,1.9,0.9,3.2h-4.3c-0.4-1.3-0.9-2.6-1.1-3.4c-0.2-0.9-0.4-1.5-0.6-1.9
	c-0.2-0.4-0.4-0.9-0.6-0.9c-0.2,0-0.6-0.2-0.9-0.2v-2.8c0.4,0,0.6,0,0.9-0.2c0.2-0.2,0.4-0.4,0.6-0.9c0.2-0.4,0.4-1.1,0.6-1.7
	c0.2-0.9,0.4-1.7,0.9-2.8h4.3V796.6z"/>
<path class="st2" d="M550,800.7v10.9h-3.6v-4.9v-0.9c0-0.2,0-0.6,0.2-1.1c0,0.2-0.2,0.6-0.4,0.9c-0.2,0.4-0.4,0.6-0.4,0.9l-3.4,4.9
	h-3.4v-10.9h3.6v5.1v0.9c0,0.2,0,0.6-0.2,0.9c0-0.2,0.2-0.6,0.4-0.9c0.2-0.2,0.2-0.4,0.4-0.9l3.4-5.1h3.4V800.7z"/>
<path class="st2" d="M562.9,800.7v2.6h-4.7c-0.4,0-0.6,0-0.6,0.2c-0.2,0.2-0.2,0.4-0.2,0.6c0,0.6-0.2,1.1-0.2,1.7
	c0,0.6-0.2,1.1-0.2,1.7c0,0.4-0.2,0.9-0.2,1.3c-0.2,0.9-0.4,1.5-0.9,1.9c-0.4,0.4-1.1,0.6-1.7,0.9c-0.6,0.2-1.5,0-2.1,0l-0.4-3
	c0.2,0,0.6-0.2,0.9-0.2s0.4-0.2,0.6-0.2c0.2-0.2,0.2-0.2,0.4-0.6c0-0.2,0.2-0.4,0.2-0.6c0-0.2,0-0.6,0.2-1.1c0-0.4,0-0.9,0.2-1.3
	c0-0.4,0-0.9,0.2-1.5c0-0.9,0.4-1.5,0.9-2.1c0.4-0.4,1.1-0.6,2.1-0.6h5.5V800.7z M563.2,811.5h-3.8v-10.9h3.8V811.5z"/>
<path class="st2" d="M574.4,804.9v1.9h-4.7c-0.2,0-0.6,0-0.6,0.2c-0.2,0.2-0.2,0.4-0.2,0.6v0.4c0,0.2,0,0.4,0.2,0.6
	c0.2,0.2,0.4,0.2,0.9,0.2c0.4,0,0.6,0,1.1-0.2l1.3-0.6c0.4-0.2,0.6-0.6,1.1-0.9v1.5c-0.2,0.2-0.2,0.4-0.4,0.9
	c-0.2,0.4-0.6,0.6-0.9,1.1c-0.4,0.4-0.9,0.6-1.3,0.9c-0.6,0.2-1.1,0.4-1.9,0.4c-0.6,0-1.3-0.2-1.7-0.4c-0.6-0.2-1.1-0.6-1.3-1.1
	c-0.2-0.4-0.4-1.1-0.4-1.7v-1.1c0-0.9,0.2-1.5,0.9-2.1c0.6-0.4,1.5-0.6,2.6-0.6H574.4z M571.5,800.4c1.1,0,1.7,0.2,2.6,0.4
	c0.6,0.2,1.3,0.6,1.5,1.3c0.4,0.6,0.4,1.5,0.4,2.6v6.8h-3.2l-0.6-2.3l-0.2-0.4v-4.3c0-0.4-0.2-0.9-0.4-1.1c-0.2-0.2-0.6-0.2-1.1-0.2
	h-2.1c-0.9,0-1.7,0-2.6,0.2l-0.4-2.6c0.6,0,1.1-0.2,1.9-0.2c0.6,0,1.5-0.2,2.1-0.2H571.5"/>
<path class="st2" d="M583,800.4h2.3h1.7c0.4,0,0.9,0,1.3,0.2l-0.2,2.8h-1.5H583c-0.4,0-0.9,0-1.1,0.2c-0.2,0.2-0.2,0.4-0.2,0.9
	c0,0.6,0,0.9,0.2,1.1c0.2,0.2,0.4,0.2,1.1,0.2h5.1v2.3H587h-1.5H583c-0.4,0-0.6,0-0.9,0.2c-0.2,0-0.2,0.2-0.2,0.4l-0.6,3h-4l0.9-3.4
	c0-0.2,0.2-0.6,0.4-0.6c0.2-0.2,0.4-0.2,0.9-0.4c0.2,0,0.6,0,0.9-0.2v-0.2c-0.6-0.2-1.1-0.4-1.5-0.6c-0.4-0.2-0.6-0.6-0.6-1.1
	c-0.2-0.4-0.2-0.9-0.2-1.3c0-0.6,0-1.3,0.2-1.7c0.2-0.4,0.4-0.9,0.9-1.1c0.4-0.2,0.9-0.4,1.5-0.6H583 M588.5,811.5h-3.8v-10.9h3.8
	V811.5z"/>
<path class="st2" d="M599.4,800.7v2.6c0,0.4,0,0.9-0.2,1.3c0,0.4-0.2,0.9-0.4,1.3c0.2,0.4,0.2,0.6,0.4,1.1c0.2,0.4,0.2,0.9,0.2,1.1
	v3.4h-3.8v-10.9h3.8V800.7z M600.6,807.3h-2.1v-2.6h2.1V807.3z M606.2,800.7c-0.2,0.9-0.4,1.7-0.6,2.3c-0.2,0.6-0.4,1.1-0.4,1.5
	c-0.2,0.4-0.4,0.6-0.6,0.9c-0.2,0.2-0.4,0.2-0.9,0.4c-0.4,0.2-0.6,0.2-1.3,0.2v0.2c0.4,0,0.9,0.2,1.3,0.2c0.4,0,0.6,0.2,0.9,0.4
	c0.2,0.2,0.4,0.4,0.6,0.9c0.2,0.4,0.4,0.9,0.6,1.5c0.2,0.6,0.4,1.5,0.9,2.6h-4c-0.2-0.9-0.4-1.5-0.6-2.1c-0.2-0.6-0.2-1.1-0.4-1.3
	c-0.2-0.2-0.2-0.4-0.4-0.6c-0.2-0.2-0.2-0.2-0.4-0.2h-0.9v-2.6c0.4,0,0.6,0,0.9-0.2c0.2,0,0.4-0.2,0.6-0.4c0.2-0.2,0.2-0.6,0.4-1.1
	c0.2-0.4,0.4-1.3,0.6-2.1h3.8V800.7z"/>
<path class="st2" d="M613.2,800.4c1.5,0,2.6,0.2,3.4,0.6c0.9,0.4,1.5,1.1,1.9,1.7c0.4,0.9,0.6,1.9,0.6,3.4c0,1.5-0.2,2.6-0.6,3.4
	c-0.4,0.9-1.1,1.5-1.9,1.7c-0.9,0.4-1.9,0.6-3.4,0.6c-1.5,0-2.6-0.2-3.4-0.6c-0.9-0.4-1.5-1.1-1.9-1.7c-0.4-0.9-0.6-1.9-0.6-3.4
	c0-1.5,0.2-2.6,0.6-3.4c0.4-0.9,1.1-1.5,1.9-1.7C610.6,800.7,611.9,800.4,613.2,800.4 M613.2,803.2c-0.4,0-0.9,0-1.1,0.2
	c-0.2,0.2-0.4,0.4-0.4,0.9s-0.2,1.1-0.2,1.9c0,0.9,0,1.5,0.2,1.9c0.2,0.4,0.2,0.6,0.4,0.9c0.2,0.2,0.6,0.2,1.1,0.2
	c0.4,0,0.9,0,1.1-0.2c0.2-0.2,0.4-0.4,0.4-0.9c0-0.4,0.2-1.1,0.2-1.9c0-0.9,0-1.5-0.2-1.9c0-0.4-0.2-0.6-0.4-0.9
	C614,803.2,613.6,803.2,613.2,803.2"/>
<path class="st2" d="M634.7,800.7c0.9,0,1.3,0.4,1.3,1.3l0.2,9.4h-3.6l-0.2-7.9h-0.2l-1.3,5.3c0,0.4-0.2,0.6-0.4,0.9
	c-0.2,0.2-0.6,0.2-1.1,0.2h-1.7c-0.4,0-0.6,0-1.1-0.2c-0.2-0.2-0.4-0.4-0.4-0.9l-1.3-5.3h-0.2l-0.2,7.9h-3.6l0.2-9.4
	c0-0.9,0.4-1.3,1.3-1.3h3.4c0.4,0,0.6,0,1.1,0.2c0.2,0.2,0.4,0.4,0.4,0.9l1.1,4c0,0.2,0.2,0.4,0.2,0.9v0.9h0.2v-0.9
	c0-0.2,0-0.4,0.2-0.9l0.9-4c0.2-0.9,0.6-1.3,1.5-1.3h3.4V800.7z"/>
<path class="st2" d="M642.4,811.5h-3.8v-10.9h3.8V811.5z M645.8,807h-3.6v-2.6h3.6V807z M649.6,811.5h-3.8v-10.9h3.8V811.5z"/>
<path class="st2" d="M660.7,804.9v1.9H656c-0.2,0-0.6,0-0.6,0.2c-0.2,0.2-0.2,0.4-0.2,0.6v0.4c0,0.2,0,0.4,0.2,0.6
	c0.2,0.2,0.4,0.2,0.9,0.2c0.4,0,0.6,0,1.1-0.2l1.3-0.6c0.4-0.2,0.6-0.6,1.1-0.9v1.5c-0.2,0.2-0.2,0.4-0.4,0.9
	c-0.2,0.4-0.6,0.6-0.9,1.1c-0.4,0.4-0.9,0.6-1.3,0.9c-0.6,0.2-1.1,0.4-1.9,0.4c-0.6,0-1.3-0.2-1.7-0.4c-0.6-0.2-1.1-0.6-1.3-1.1
	c-0.2-0.4-0.4-1.1-0.4-1.7v-1.1c0-0.9,0.2-1.5,0.9-2.1c0.6-0.4,1.5-0.6,2.6-0.6H660.7z M657.9,800.4c1.1,0,1.7,0.2,2.6,0.4
	c0.6,0.2,1.3,0.6,1.5,1.3c0.4,0.6,0.4,1.5,0.4,2.6v6.8h-3.2l-0.6-2.3l-0.2-0.4v-4.3c0-0.4-0.2-0.9-0.4-1.1c-0.2-0.2-0.6-0.2-1.1-0.2
	h-2.1c-0.9,0-1.7,0-2.6,0.2l-0.4-2.6c0.6,0,1.1-0.2,1.9-0.2c0.6,0,1.5-0.2,2.1-0.2H657.9"/>
<path class="st2" d="M674.5,803.6h-10.9v-3h10.9V803.6z M671.1,811.5h-3.8v-10.9h3.8V811.5z"/>
<path class="st2" d="M684.9,804.9v1.9h-4.7c-0.2,0-0.6,0-0.6,0.2c-0.2,0.2-0.2,0.4-0.2,0.6v0.4c0,0.2,0,0.4,0.2,0.6
	c0.2,0.2,0.4,0.2,0.9,0.2c0.4,0,0.6,0,1.1-0.2l1.3-0.6c0.4-0.2,0.6-0.6,1.1-0.9v1.5c-0.2,0.2-0.2,0.4-0.4,0.9
	c-0.2,0.4-0.6,0.6-0.9,1.1c-0.4,0.4-0.9,0.6-1.3,0.9c-0.6,0.2-1.1,0.4-1.9,0.4c-0.6,0-1.3-0.2-1.7-0.4c-0.6-0.2-1.1-0.6-1.3-1.1
	c-0.2-0.4-0.4-1.1-0.4-1.7v-1.1c0-0.9,0.2-1.5,0.9-2.1c0.6-0.4,1.5-0.6,2.6-0.6H684.9z M682,800.4c1.1,0,1.7,0.2,2.6,0.4
	c0.6,0.2,1.3,0.6,1.5,1.3c0.4,0.6,0.4,1.5,0.4,2.6v6.8h-3.2l-0.6-2.3l-0.2-0.4v-4.3c0-0.4-0.2-0.9-0.4-1.1c-0.2-0.2-0.6-0.2-1.1-0.2
	h-2.1c-0.9,0-1.7,0-2.6,0.2l-0.4-2.6c0.6,0,1.1-0.2,1.9-0.2c0.6,0,1.5-0.2,2.1-0.2H682"/>
<path class="st2" d="M520.8,249.3c0.4,1.1,0.6,2.1,0.9,2.8c0.2,0.9,0.4,1.3,0.6,1.7c0.2,0.4,0.4,0.9,0.6,0.9
	c0.2,0.2,0.6,0.2,0.9,0.2v2.8c-0.4,0-0.6,0-0.9,0.2c-0.2,0.2-0.4,0.4-0.6,0.9s-0.4,1.1-0.6,1.9c-0.2,0.9-0.6,1.9-1.1,3.4h-4.3
	c0.4-1.3,0.6-2.3,0.9-3.2c0.2-0.9,0.4-1.5,0.6-2.1c0.2-0.6,0.4-1.1,0.9-1.3c0.2-0.4,0.6-0.6,1.1-0.9c0.4-0.2,0.9-0.2,1.5-0.4v-0.2
	c-0.6,0-1.1-0.2-1.5-0.4c-0.4-0.2-0.6-0.4-1.1-0.9c-0.2-0.4-0.4-0.9-0.6-1.3c-0.2-0.4-0.4-1.1-0.6-1.9c-0.2-0.9-0.4-1.7-0.9-2.8h4.3
	V249.3z M525.5,257.8h-2.1V255h2.1V257.8z M528.5,249.3v4c0,0.4,0,1.1-0.2,1.7c-0.2,0.6-0.2,1.1-0.4,1.5c0.2,0.4,0.2,0.9,0.4,1.5
	c0.2,0.6,0.2,1.1,0.2,1.5v5.1h-3.8v-5.1c0-0.4,0-0.9,0.2-1.5c0.2-0.6,0.2-1.1,0.4-1.5c-0.2-0.4-0.4-1.1-0.4-1.5
	c0-0.4-0.2-1.1-0.2-1.7v-4H528.5z M529.5,257.8h-2.1V255h2.1V257.8z M536.1,249.3c-0.4,1.1-0.6,1.9-0.9,2.8
	c-0.2,0.9-0.4,1.5-0.6,1.9c-0.2,0.4-0.4,0.9-0.6,1.3c-0.2,0.4-0.6,0.6-1.1,0.9c-0.4,0.2-0.9,0.2-1.5,0.4v0.2c0.6,0,1.1,0.2,1.5,0.4
	c0.4,0.2,0.9,0.4,1.1,0.9c0.2,0.4,0.6,0.9,0.9,1.3c0.2,0.6,0.4,1.3,0.6,2.1c0.2,0.9,0.6,1.9,0.9,3.2h-4.3c-0.4-1.3-0.9-2.6-1.1-3.4
	c-0.2-0.9-0.4-1.5-0.6-1.9c-0.2-0.4-0.4-0.9-0.6-0.9c-0.2,0-0.6-0.2-0.9-0.2v-2.8c0.4,0,0.6,0,0.9-0.2c0.2-0.2,0.4-0.4,0.6-0.9
	c0.2-0.4,0.4-1.1,0.6-1.7c0.2-0.9,0.4-1.7,0.9-2.8h4.3V249.3z"/>
<path class="st2" d="M549.1,253.5v10.9h-3.6v-4.9v-0.9c0-0.2,0-0.6,0.2-1.1c0,0.2-0.2,0.6-0.4,0.9c-0.2,0.4-0.4,0.6-0.4,0.9
	l-3.4,4.9H538v-10.9h3.6v5.1v0.9c0,0.2,0,0.6-0.2,0.9c0-0.2,0.2-0.6,0.4-0.9c0.2-0.2,0.2-0.4,0.4-0.9l3.4-5.1h3.4V253.5z"/>
<path class="st2" d="M562.1,253.5v2.6h-4.7c-0.4,0-0.6,0-0.6,0.2c-0.2,0.2-0.2,0.4-0.2,0.6c0,0.6-0.2,1.1-0.2,1.7
	c0,0.6-0.2,1.1-0.2,1.7c0,0.4-0.2,0.9-0.2,1.3c-0.2,0.9-0.4,1.5-0.9,1.9c-0.4,0.4-1.1,0.6-1.7,0.9c-0.6,0.2-1.5,0-2.1,0l-0.4-3
	c0.2,0,0.6-0.2,0.9-0.2c0.2,0,0.4-0.2,0.6-0.2c0.2-0.2,0.2-0.2,0.4-0.6c0-0.2,0.2-0.4,0.2-0.6c0-0.2,0-0.6,0.2-1.1
	c0-0.4,0-0.9,0.2-1.3c0-0.4,0-0.9,0.2-1.5c0-0.9,0.4-1.5,0.9-2.1c0.4-0.4,1.1-0.6,2.1-0.6h5.5V253.5z M562.3,264.4h-3.8v-10.9h3.8
	V264.4z"/>
<path class="st2" d="M573.6,257.6v1.9h-4.7c-0.2,0-0.6,0-0.6,0.2c-0.2,0.2-0.2,0.4-0.2,0.6v0.4c0,0.2,0,0.4,0.2,0.6
	c0.2,0.2,0.4,0.2,0.9,0.2c0.4,0,0.6,0,1.1-0.2l1.3-0.6c0.4-0.2,0.6-0.6,1.1-0.9v1.5c-0.2,0.2-0.2,0.4-0.4,0.9
	c-0.2,0.4-0.6,0.6-0.9,1.1c-0.4,0.4-0.9,0.6-1.3,0.9c-0.6,0.2-1.1,0.4-1.9,0.4c-0.6,0-1.3-0.2-1.7-0.4c-0.6-0.2-1.1-0.6-1.3-1.1
	c-0.2-0.4-0.4-1.1-0.4-1.7v-1.1c0-0.9,0.2-1.5,0.9-2.1c0.6-0.4,1.5-0.6,2.6-0.6H573.6z M570.6,253.1c1.1,0,1.7,0.2,2.6,0.4
	c0.6,0.2,1.3,0.6,1.5,1.3c0.4,0.6,0.4,1.5,0.4,2.6v6.8h-3.2l-0.6-2.3l-0.2-0.4v-4.3c0-0.4-0.2-0.9-0.4-1.1c-0.2-0.2-0.6-0.2-1.1-0.2
	h-2.1c-0.9,0-1.7,0-2.6,0.2l-0.4-2.6c0.6,0,1.1-0.2,1.9-0.2c0.6,0,1.5-0.2,2.1-0.2H570.6"/>
<path class="st2" d="M582.1,253.1h2.3h1.7c0.4,0,0.9,0,1.3,0.2l-0.2,2.8h-1.5h-3.6c-0.4,0-0.9,0-1.1,0.2c-0.2,0.2-0.2,0.4-0.2,0.9
	c0,0.6,0,0.9,0.2,1.1c0.2,0.2,0.4,0.2,1.1,0.2h5.1v2.3h-1.1h-1.5h-2.6c-0.4,0-0.6,0-0.9,0.2c-0.2,0-0.2,0.2-0.2,0.4l-0.6,3h-4
	l0.9-3.4c0-0.2,0.2-0.6,0.4-0.6c0.2-0.2,0.4-0.2,0.9-0.4c0.2,0,0.6,0,0.9-0.2v-0.2c-0.6-0.2-1.1-0.4-1.5-0.6
	c-0.4-0.2-0.6-0.6-0.6-1.1c-0.2-0.4-0.2-0.9-0.2-1.3c0-0.6,0-1.3,0.2-1.7c0.2-0.4,0.4-0.9,0.9-1.1c0.4-0.2,0.9-0.4,1.5-0.6
	C580.2,253.3,581,253.1,582.1,253.1 M587.6,264.2h-3.8v-10.9h3.8V264.2z"/>
<path class="st2" d="M598.5,253.5v2.6c0,0.4,0,0.9-0.2,1.3c0,0.4-0.2,0.9-0.4,1.3c0.2,0.4,0.2,0.6,0.4,1.1c0.2,0.4,0.2,0.9,0.2,1.1
	v3.4h-3.8v-10.9h3.8V253.5z M599.8,259.9h-2.1v-2.6h2.1V259.9z M605.3,253.5c-0.2,0.9-0.4,1.7-0.6,2.3c-0.2,0.6-0.4,1.1-0.4,1.5
	c-0.2,0.4-0.4,0.6-0.6,0.9c-0.2,0.2-0.4,0.2-0.9,0.4c-0.4,0.2-0.6,0.2-1.3,0.2v0.2c0.4,0,0.9,0.2,1.3,0.2c0.4,0,0.6,0.2,0.9,0.4
	c0.2,0.2,0.4,0.4,0.6,0.9c0.2,0.4,0.4,0.9,0.6,1.5c0.2,0.6,0.4,1.5,0.9,2.6h-4c-0.2-0.9-0.4-1.5-0.6-2.1c-0.2-0.6-0.2-1.1-0.4-1.3
	c-0.2-0.2-0.2-0.4-0.4-0.6c-0.2-0.2-0.2-0.2-0.4-0.2h-0.9v-2.6c0.4,0,0.6,0,0.9-0.2c0.2,0,0.4-0.2,0.6-0.4c0.2-0.2,0.2-0.6,0.4-1.1
	c0.2-0.4,0.4-1.3,0.6-2.1h3.8V253.5z"/>
<path class="st2" d="M612.3,253.1c1.5,0,2.6,0.2,3.4,0.6c0.9,0.4,1.5,1.1,1.9,1.7c0.4,0.9,0.6,1.9,0.6,3.4c0,1.5-0.2,2.6-0.6,3.4
	c-0.4,0.9-1.1,1.5-1.9,1.7c-0.9,0.4-1.9,0.6-3.4,0.6c-1.5,0-2.6-0.2-3.4-0.6c-0.9-0.4-1.5-1.1-1.9-1.7c-0.4-0.9-0.6-1.9-0.6-3.4
	c0-1.5,0.2-2.6,0.6-3.4c0.4-0.9,1.1-1.5,1.9-1.7C609.8,253.3,610.8,253.1,612.3,253.1 M612.3,255.9c-0.4,0-0.9,0-1.1,0.2
	c-0.2,0.2-0.4,0.4-0.4,0.9c0,0.4-0.2,1.1-0.2,1.9c0,0.9,0,1.5,0.2,1.9c0.2,0.4,0.2,0.6,0.4,0.9c0.2,0.2,0.6,0.2,1.1,0.2
	c0.4,0,0.9,0,1.1-0.2c0.2-0.2,0.4-0.4,0.4-0.9c0-0.4,0.2-1.1,0.2-1.9c0-0.9,0-1.5-0.2-1.9c0-0.4-0.2-0.6-0.4-0.9
	C613.2,256.1,612.8,255.9,612.3,255.9"/>
<path class="st2" d="M633.6,253.5c0.9,0,1.3,0.4,1.3,1.3l0.2,9.4h-3.6l-0.2-7.9h-0.2l-1.3,5.3c0,0.4-0.2,0.6-0.4,0.9
	c-0.2,0.2-0.6,0.2-1.1,0.2h-1.7c-0.4,0-0.6,0-1.1-0.2c-0.2-0.2-0.4-0.4-0.4-0.9l-1.3-5.3h-0.2l-0.2,7.9h-3.6l0.2-9.4
	c0-0.9,0.4-1.3,1.3-1.3h3.4c0.4,0,0.6,0,1.1,0.2c0.2,0.2,0.4,0.4,0.4,0.9l1.1,4c0,0.2,0.2,0.4,0.2,0.9v0.9h0.2v-0.9
	c0-0.2,0-0.4,0.2-0.9l0.9-4c0.2-0.9,0.6-1.3,1.5-1.3h3.4V253.5z"/>
<path class="st2" d="M641.5,264.4h-3.8v-10.9h3.8V264.4z M644.9,259.9h-3.6v-2.6h3.6V259.9z M648.5,264.4h-3.8v-10.9h3.8V264.4z"/>
<path class="st2" d="M659.8,257.6v1.9h-4.7c-0.2,0-0.6,0-0.6,0.2c-0.2,0.2-0.2,0.4-0.2,0.6v0.4c0,0.2,0,0.4,0.2,0.6
	c0.2,0.2,0.4,0.2,0.9,0.2c0.4,0,0.6,0,1.1-0.2l1.3-0.6c0.4-0.2,0.6-0.6,1.1-0.9v1.5c-0.2,0.2-0.2,0.4-0.4,0.9
	c-0.2,0.4-0.6,0.6-0.9,1.1c-0.4,0.4-0.9,0.6-1.3,0.9c-0.6,0.2-1.1,0.4-1.9,0.4c-0.6,0-1.3-0.2-1.7-0.4c-0.6-0.2-1.1-0.6-1.3-1.1
	c-0.2-0.4-0.4-1.1-0.4-1.7v-1.1c0-0.9,0.2-1.5,0.9-2.1c0.6-0.4,1.5-0.6,2.6-0.6H659.8z M656.8,253.1c1.1,0,1.7,0.2,2.6,0.4
	c0.6,0.2,1.3,0.6,1.5,1.3c0.4,0.6,0.4,1.5,0.4,2.6v6.8h-3.2l-0.6-2.3l-0.2-0.4v-4.3c0-0.4-0.2-0.9-0.4-1.1c-0.2-0.2-0.6-0.2-1.1-0.2
	h-2.1c-0.9,0-1.7,0-2.6,0.2l-0.4-2.6c0.6,0,1.1-0.2,1.9-0.2c0.6,0,1.5-0.2,2.1-0.2H656.8"/>
<path class="st2" d="M673.7,256.5h-10.9v-3h10.9V256.5z M670,264.4h-3.8v-10.9h3.8V264.4z"/>
<path class="st2" d="M683.9,257.6v1.9h-4.7c-0.2,0-0.6,0-0.6,0.2c-0.2,0.2-0.2,0.4-0.2,0.6v0.4c0,0.2,0,0.4,0.2,0.6
	c0.2,0.2,0.4,0.2,0.9,0.2c0.4,0,0.6,0,1.1-0.2l1.3-0.6c0.4-0.2,0.6-0.6,1.1-0.9v1.5c-0.2,0.2-0.2,0.4-0.4,0.9
	c-0.2,0.4-0.6,0.6-0.9,1.1c-0.4,0.4-0.9,0.6-1.3,0.9c-0.6,0.2-1.1,0.4-1.9,0.4c-0.6,0-1.3-0.2-1.7-0.4c-0.6-0.2-1.1-0.6-1.3-1.1
	c-0.2-0.4-0.4-1.1-0.4-1.7v-1.1c0-0.9,0.2-1.5,0.9-2.1c0.6-0.4,1.5-0.6,2.6-0.6H683.9z M681.1,253.1c1.1,0,1.7,0.2,2.6,0.4
	c0.6,0.2,1.3,0.6,1.5,1.3c0.4,0.6,0.4,1.5,0.4,2.6v6.8h-3.2l-0.6-2.3l-0.2-0.4v-4.3c0-0.4-0.2-0.9-0.4-1.1c-0.2-0.2-0.6-0.2-1.1-0.2
	h-2.1c-0.9,0-1.7,0-2.6,0.2l-0.4-2.6c0.6,0,1.1-0.2,1.9-0.2c0.6,0,1.5-0.2,2.1-0.2H681.1"/>
<path class="st2" d="M332.6,507.1h-4v-14.9h4V507.1z M337.3,494.9h-4.9v-2.8h4.9V494.9z M341.1,507.1h-4v-14.9h4V507.1z"/>
<path class="st2" d="M346.9,496.4l0.4,1.9l0.4,0.4v7l-0.2,0.2v1.5v1.5v2.3h-3.8v-14.9H346.9z M351.3,496.2c1.5,0,2.3,0.4,3,1.5
	c0.6,1.1,0.9,2.3,0.9,4.3c0,1.5-0.2,2.6-0.4,3.4c-0.2,0.9-0.9,1.3-1.3,1.7c-0.6,0.4-1.3,0.4-2.3,0.4c-0.9,0-1.5-0.2-2.3-0.4
	c-0.9-0.2-1.3-0.6-1.7-1.3l0.2-1.7c0.4,0.2,0.6,0.2,1.1,0.4c0.4,0.2,0.6,0.2,1.3,0.2c0.4,0,0.6,0,0.9-0.2c0.2-0.2,0.4-0.4,0.4-0.9
	c0-0.4,0.2-1.1,0.2-1.9c0-0.9,0-1.5-0.2-1.9c-0.2-0.4-0.2-0.6-0.4-0.9c-0.2-0.2-0.4-0.2-0.9-0.2c-0.4,0-0.9,0-1.1,0.2
	c-0.2,0.2-0.6,0.2-1.1,0.4l-0.4-1.7c0.2-0.4,0.6-0.6,1.1-1.1c0.4-0.2,0.9-0.6,1.5-0.6C350.1,496.2,350.7,496.2,351.3,496.2"/>
<path class="st2" d="M368.2,496.4v10.9h-3.6v-4.9v-0.9c0-0.2,0-0.6,0.2-1.1c0,0.2-0.2,0.6-0.4,0.9c-0.2,0.4-0.4,0.6-0.4,0.9
	l-3.4,4.9h-3.4v-10.9h3.6v5.1v0.9c0,0.2,0,0.6-0.2,0.9c0-0.2,0.2-0.6,0.4-0.9c0.2-0.2,0.2-0.4,0.4-0.9l3.4-5.1h3.4V496.4z"/>
<path class="st2" d="M373.7,496.4l2.8,5.3l-3,5.5h-4l3.2-5.5l-3-5.3H373.7z M377.7,502.8h-4v-2.3h4V502.8z M382,496.4l-3,5.3
	l3.2,5.5h-4l-3-5.5l2.8-5.3H382z"/>
<path class="st2" d="M388.4,496.2c1.5,0,2.6,0.2,3.4,0.6c0.9,0.4,1.5,1.1,1.9,1.7c0.4,0.9,0.6,1.9,0.6,3.4c0,1.5-0.2,2.6-0.6,3.4
	c-0.4,0.9-1.1,1.5-1.9,1.7c-0.9,0.4-1.9,0.6-3.4,0.6c-1.5,0-2.6-0.2-3.4-0.6c-0.9-0.4-1.5-1.1-1.9-1.7c-0.4-0.9-0.6-1.9-0.6-3.4
	c0-1.5,0.2-2.6,0.6-3.4c0.4-0.9,1.1-1.5,1.9-1.7C385.8,496.4,387.1,496.2,388.4,496.2 M388.4,499c-0.4,0-0.9,0-1.1,0.2
	c-0.2,0.2-0.4,0.4-0.4,0.9c0,0.4-0.2,1.1-0.2,1.9c0,0.9,0,1.5,0.2,1.9c0.2,0.4,0.2,0.6,0.4,0.9c0.2,0.2,0.6,0.2,1.1,0.2
	c0.4,0,0.9,0,1.1-0.2c0.2-0.2,0.4-0.4,0.4-0.9c0-0.4,0.2-1.1,0.2-1.9c0-0.9,0-1.5-0.2-1.9c0-0.4-0.2-0.6-0.4-0.9
	C389.2,499,388.8,499,388.4,499"/>
<path class="st2" d="M399.2,496.4c0.2,0.9,0.4,1.7,0.6,2.1c0.2,0.4,0.4,0.9,0.4,1.3c0.2,0.2,0.2,0.4,0.4,0.4c0.2,0,0.4,0.2,0.6,0.2
	v2.6h-0.6c-0.2,0-0.4,0.2-0.4,0.4c-0.2,0.2-0.4,0.6-0.6,1.3c-0.2,0.6-0.4,1.5-0.9,2.6h-4c0.2-1.1,0.6-1.9,0.9-2.6
	c0.2-0.6,0.4-1.1,0.6-1.5c0.2-0.4,0.4-0.6,0.6-0.9c0.2-0.2,0.4-0.4,0.9-0.4c0.4,0,0.9-0.2,1.3-0.2v-0.2c-0.4,0-0.9-0.2-1.3-0.2
	c-0.4,0-0.6-0.2-0.9-0.4c-0.2-0.2-0.4-0.4-0.6-0.9s-0.4-0.9-0.4-1.5c-0.2-0.6-0.4-1.3-0.6-2.1H399.2z M403.1,503h-1.9v-2.6h1.9V503z
	 M405.6,496.4v2.6c0,0.4,0,0.9-0.2,1.3c0,0.4-0.2,0.9-0.4,1.3c0.2,0.4,0.2,0.6,0.4,1.1c0.2,0.4,0.2,0.9,0.2,1.1v3.4h-3.4v-3.4
	c0-0.2,0-0.6,0.2-1.1c0.2-0.4,0.2-0.9,0.4-1.1c-0.2-0.4-0.2-0.9-0.4-1.3c0-0.4-0.2-0.9-0.2-1.3v-2.6H405.6z M406.7,503h-1.9v-2.6
	h1.9V503z M412.4,496.4c-0.2,0.9-0.4,1.7-0.6,2.1c-0.2,0.6-0.4,1.1-0.4,1.5c-0.2,0.4-0.4,0.6-0.6,0.9c-0.2,0.2-0.4,0.4-0.9,0.4
	c-0.4,0-0.6,0.2-1.3,0.2v0.2c0.4,0,0.9,0.2,1.3,0.2c0.4,0,0.6,0.2,0.9,0.4c0.2,0.2,0.4,0.4,0.6,0.9c0.2,0.4,0.4,0.9,0.6,1.5
	c0.2,0.6,0.4,1.5,0.9,2.6h-4c-0.4-1.1-0.6-1.9-0.9-2.6c-0.2-0.6-0.4-1.1-0.6-1.3c-0.2-0.2-0.2-0.4-0.4-0.4h-0.6v-2.6
	c0.2,0,0.4,0,0.6-0.2c0.2,0,0.4-0.2,0.4-0.4c0-0.2,0.2-0.6,0.4-1.3c0.2-0.4,0.4-1.3,0.6-2.1H412.4z"/>
<path class="st2" d="M423.1,500.7v1.9h-4.7c-0.2,0-0.6,0-0.6,0.2c-0.2,0.2-0.2,0.4-0.2,0.6v0.4c0,0.2,0,0.4,0.2,0.6
	c0.2,0.2,0.4,0.2,0.9,0.2c0.4,0,0.6,0,1.1-0.2l1.3-0.6c0.4-0.2,0.6-0.6,1.1-0.9v1.5c-0.2,0.2-0.2,0.4-0.4,0.9
	c-0.2,0.4-0.6,0.6-0.9,1.1c-0.4,0.4-0.9,0.6-1.3,0.9c-0.6,0.2-1.1,0.4-1.9,0.4c-0.6,0-1.3-0.2-1.7-0.4c-0.6-0.2-1.1-0.6-1.3-1.1
	c-0.2-0.4-0.4-1.1-0.4-1.7v-1.1c0-0.9,0.2-1.5,0.9-2.1c0.6-0.4,1.5-0.6,2.6-0.6H423.1z M420.3,496.2c1.1,0,1.7,0.2,2.6,0.4
	c0.6,0.2,1.3,0.6,1.5,1.3c0.4,0.6,0.4,1.5,0.4,2.6v6.8h-3.2L421,505l-0.2-0.4v-4.3c0-0.4-0.2-0.9-0.4-1.1c-0.2-0.2-0.6-0.2-1.1-0.2
	h-2.1c-0.9,0-1.7,0-2.6,0.2l-0.4-2.6c0.6,0,1.1-0.2,1.9-0.2c0.6,0,1.5-0.2,2.1-0.2H420.3"/>
<path class="st2" d="M431.6,496.2h2.3h1.7c0.4,0,0.9,0,1.3,0.2l-0.2,2.8h-1.5h-3.6c-0.4,0-0.9,0-1.1,0.2c-0.2,0.2-0.2,0.4-0.2,0.9
	c0,0.6,0,0.9,0.2,1.1c0.2,0.2,0.4,0.2,1.1,0.2h5.1v2.3h-1.1h-1.5h-2.6c-0.4,0-0.6,0-0.9,0.2c-0.2,0-0.2,0.2-0.2,0.4l-0.6,3h-4
	l0.9-3.4c0-0.2,0.2-0.6,0.4-0.6c0.2-0.2,0.4-0.2,0.9-0.4c0.2,0,0.6,0,0.9-0.2v-0.2c-0.6-0.2-1.1-0.4-1.5-0.6
	c-0.4-0.2-0.6-0.6-0.6-1.1c-0.2-0.4-0.2-0.9-0.2-1.3c0-0.6,0-1.3,0.2-1.7c0.2-0.4,0.4-0.9,0.9-1.1c0.4-0.2,0.9-0.4,1.5-0.6H431.6
	 M437.1,507.3h-3.8v-10.9h3.8V507.3z"/>
<path class="st2" d="M475.2,479.6v4c0,0.4,0,1.1-0.2,1.7c0,0.6-0.2,1.1-0.4,1.5c0.2,0.4,0.2,0.9,0.4,1.5c0.2,0.6,0.2,1.1,0.2,1.5
	v5.1h-4V480h4V479.6z M476.9,488.3h-2.6v-2.8h2.6V488.3z M483.5,479.6c-0.4,1.1-0.6,1.9-0.9,2.8c-0.2,0.9-0.4,1.5-0.6,1.9
	c-0.2,0.4-0.4,0.9-0.6,1.3s-0.6,0.6-1.1,0.9c-0.4,0.2-0.9,0.2-1.5,0.4v0.2c0.6,0,1.1,0.2,1.5,0.4c0.4,0.2,0.9,0.4,1.1,0.9
	c0.2,0.4,0.6,0.9,0.9,1.3c0.2,0.6,0.4,1.3,0.9,2.1c0.4,0.9,0.6,1.9,0.9,3.2h-4.3c-0.4-1.3-0.6-2.6-1.1-3.4c-0.2-0.9-0.4-1.5-0.9-1.9
	c-0.2-0.4-0.4-0.9-0.9-0.9c-0.4,0-0.9-0.2-1.3-0.2v-2.8c0.6,0,1.1,0,1.3-0.2c0.4-0.2,0.6-0.4,0.9-0.9c0.2-0.4,0.4-1.1,0.6-1.7
	c0.2-0.9,0.4-1.7,0.9-2.8h4.3V479.6z"/>
<path class="st2" d="M490.6,483.5c1.5,0,2.6,0.2,3.4,0.6c0.9,0.4,1.5,1.1,1.9,1.7c0.4,0.9,0.6,1.9,0.6,3.4c0,1.5-0.2,2.6-0.6,3.4
	c-0.4,0.9-1.1,1.5-1.9,1.7c-0.9,0.4-1.9,0.6-3.4,0.6c-1.5,0-2.6-0.2-3.4-0.6c-0.9-0.4-1.5-1.1-1.9-1.7c-0.4-0.9-0.6-1.9-0.6-3.4
	c0-1.5,0.2-2.6,0.6-3.4c0.4-0.9,1.1-1.5,1.9-1.7C488,483.7,489.1,483.5,490.6,483.5 M490.6,486.2c-0.4,0-0.9,0-1.1,0.2
	c-0.2,0.2-0.4,0.4-0.4,0.9c0,0.4-0.2,1.1-0.2,1.9c0,0.9,0,1.5,0.2,1.9c0.2,0.4,0.2,0.6,0.4,0.9c0.2,0.2,0.6,0.2,1.1,0.2
	c0.4,0,0.9,0,1.1-0.2c0.2-0.2,0.4-0.4,0.4-0.9c0-0.4,0.2-1.1,0.2-1.9c0-0.9,0-1.5-0.2-1.9c0-0.4-0.2-0.6-0.4-0.9
	C491.4,486.4,491,486.2,490.6,486.2"/>
<path class="st2" d="M501.4,483.9l0.4,1.9l0.4,0.4v7l-0.2,0.2v1.5v1.5v2.3h-3.8v-14.9H501.4z M505.9,483.7c1.5,0,2.3,0.4,3,1.5
	c0.6,1.1,0.9,2.3,0.9,4.3c0,1.5-0.2,2.6-0.4,3.4c-0.2,0.9-0.9,1.3-1.3,1.7c-0.6,0.4-1.3,0.4-2.3,0.4c-0.9,0-1.5-0.2-2.3-0.4
	c-0.9-0.2-1.3-0.6-1.7-1.3l0.2-1.7c0.4,0.2,0.6,0.2,1.1,0.4c0.4,0.2,0.6,0.2,1.3,0.2c0.4,0,0.6,0,0.9-0.2c0.2-0.2,0.4-0.4,0.4-0.9
	c0-0.4,0.2-1.1,0.2-1.9c0-0.9,0-1.5-0.2-1.9c-0.2-0.4-0.2-0.6-0.4-0.9c-0.2-0.2-0.4-0.2-0.9-0.2c-0.4,0-0.9,0-1.1,0.2
	c-0.2,0.2-0.6,0.2-1.1,0.4l-0.4-1.7c0.2-0.4,0.6-0.6,1.1-1.1c0.4-0.2,0.9-0.6,1.5-0.6C504.6,483.7,505.3,483.7,505.9,483.7"/>
<path class="st2" d="M522.7,483.9v10.9h-3.6v-4.9V489c0-0.2,0-0.6,0.2-1.1c0,0.2-0.2,0.6-0.4,0.9c-0.2,0.4-0.4,0.6-0.4,0.9l-3.4,4.9
	h-3.4v-10.9h3.6v5.1v0.9c0,0.2,0,0.6-0.2,0.9c0-0.2,0.2-0.6,0.4-0.9c0.2-0.2,0.2-0.4,0.4-0.9l3.4-5.1h3.4V483.9z"/>
<path class="st2" d="M537.8,494.5h-13.4V492h13.4V494.5z M527.2,494.5l-0.2,3.2h-2.6v-3.2H527.2z M535.7,483.9v2.6h-4.5
	c-0.6,0-0.9,0.2-1.1,0.9c-0.2,1.3-0.4,2.3-0.6,3.2c-0.2,0.9-0.6,1.7-0.9,2.3c-0.4,0.6-0.9,1.3-1.3,1.9h-3c0.4-0.9,0.9-1.9,1.3-2.8
	c0.2-0.9,0.6-1.9,0.9-2.8c0.2-0.9,0.4-1.7,0.4-2.8c0.2-0.9,0.4-1.5,0.9-1.9c0.4-0.4,1.3-0.6,2.1-0.6H535.7z M535.9,494.7h-3.6v-10.9
	h3.6V494.7z M537.8,494.5v3.2h-2.6l-0.2-3.2H537.8z"/>
<path class="st2" d="M544.6,483.5c1.5,0,2.6,0.2,3.4,0.6c0.9,0.4,1.5,1.1,1.9,1.7c0.4,0.9,0.6,1.9,0.6,3.4c0,1.5-0.2,2.6-0.6,3.4
	c-0.4,0.9-1.1,1.5-1.9,1.7c-0.9,0.4-1.9,0.6-3.4,0.6c-1.5,0-2.6-0.2-3.4-0.6c-0.9-0.4-1.5-1.1-1.9-1.7c-0.4-0.9-0.6-1.9-0.6-3.4
	c0-1.5,0.2-2.6,0.6-3.4c0.4-0.9,1.1-1.5,1.9-1.7C542.1,483.7,543.4,483.5,544.6,483.5 M544.6,486.2c-0.4,0-0.9,0-1.1,0.2
	c-0.2,0.2-0.4,0.4-0.4,0.9c0,0.4-0.2,1.1-0.2,1.9c0,0.9,0,1.5,0.2,1.9c0.2,0.4,0.2,0.6,0.4,0.9c0.2,0.2,0.6,0.2,1.1,0.2
	c0.4,0,0.9,0,1.1-0.2c0.2-0.2,0.4-0.4,0.4-0.9c0-0.4,0.2-1.1,0.2-1.9c0-0.9,0-1.5-0.2-1.9c0-0.4-0.2-0.6-0.4-0.9
	C545.5,486.4,545.1,486.2,544.6,486.2"/>
<path class="st2" d="M555.5,483.9l0.4,1.9l0.4,0.4v7l-0.2,0.2v1.5v1.5v2.3h-3.8v-14.9H555.5z M560,483.7c1.5,0,2.3,0.4,3,1.5
	c0.6,1.1,0.9,2.3,0.9,4.3c0,1.5-0.2,2.6-0.4,3.4c-0.2,0.9-0.9,1.3-1.3,1.7c-0.6,0.4-1.3,0.4-2.3,0.4c-0.9,0-1.5-0.2-2.3-0.4
	c-0.9-0.2-1.3-0.6-1.7-1.3l0.2-1.7c0.4,0.2,0.6,0.2,1.1,0.4c0.4,0.2,0.6,0.2,1.3,0.2c0.4,0,0.6,0,0.9-0.2c0.2-0.2,0.4-0.4,0.4-0.9
	c0-0.4,0.2-1.1,0.2-1.9c0-0.9,0-1.5-0.2-1.9c-0.2-0.4-0.2-0.6-0.4-0.9c-0.2-0.2-0.4-0.2-0.9-0.2c-0.4,0-0.9,0-1.1,0.2
	c-0.2,0.2-0.6,0.2-1.1,0.4l-0.4-1.7c0.2-0.4,0.6-0.6,1.1-1.1c0.4-0.2,0.9-0.6,1.5-0.6C558.7,483.7,559.3,483.7,560,483.7"/>
<path class="st2" d="M352.8,243.5v4c0,0.4,0,1.1-0.2,1.7c0,0.6-0.2,1.1-0.4,1.5c0.2,0.4,0.2,0.9,0.4,1.5c0.2,0.4,0.2,1.1,0.2,1.5
	v5.1h-4V244h4V243.5z M354.5,252.3H352v-2.8h2.6V252.3z M361.1,243.5c-0.4,1.1-0.6,1.9-0.9,2.8c-0.2,0.9-0.4,1.5-0.6,1.9
	c-0.2,0.4-0.4,0.9-0.6,1.3c-0.2,0.4-0.6,0.6-1.1,0.9c-0.4,0.2-0.9,0.2-1.5,0.4v0.2c0.6,0,1.1,0.2,1.5,0.4c0.4,0.2,0.9,0.4,1.1,0.9
	c0.2,0.4,0.6,0.9,0.9,1.3c0.2,0.6,0.4,1.3,0.9,2.1c0.2,0.9,0.6,1.9,0.9,3.2h-4.3c-0.4-1.3-0.6-2.6-1.1-3.4c-0.2-0.9-0.4-1.5-0.9-1.9
	c-0.2-0.4-0.4-0.9-0.9-0.9c-0.4-0.2-0.9-0.2-1.3-0.2v-2.8c0.6,0,1.1,0,1.3-0.2c0.4-0.2,0.6-0.4,0.9-0.9c0.2-0.4,0.4-1.1,0.6-1.7
	c0.2-0.9,0.4-1.7,0.9-2.8h4.3V243.5z"/>
<path class="st2" d="M365.8,247.8l1.7,6.4c0,0.2,0.2,0.6,0.2,0.9c0,0.2,0,0.6,0.2,0.9h0.6l-1.3,2.6h-0.9c-0.2,0-0.6,0-0.9-0.2
	c-0.2-0.2-0.4-0.4-0.4-0.6l-3.4-9.8H365.8z M374.3,247.8l-3.6,10.6c-0.2,0.9-0.6,1.7-0.9,2.1c-0.4,0.6-0.9,1.1-1.3,1.3
	c-0.4,0.4-1.1,0.6-1.5,0.9c-0.6,0.2-1.3,0.4-2.1,0.4c-0.9,0-1.5,0-2.3-0.2l0.2-2.6h1.7c0.4,0,0.9-0.2,1.3-0.4
	c0.2-0.2,0.4-0.4,0.6-0.6c0.2-0.2,0.4-0.6,0.6-0.9l0.6-1.5c0.2-0.4,0.2-0.9,0.4-1.3c0.2-0.4,0.2-0.9,0.2-1.3l1.7-6.4h4.3V247.8z"/>
<path class="st2" d="M378.6,247.8l2.8,5.3l-3,5.5h-4l3.2-5.5l-3-5.3H378.6z M382.6,254.2h-4v-2.3h4V254.2z M386.7,247.8l-3,5.3
	l3.2,5.5h-4l-3-5.5l2.8-5.3H386.7z"/>
<path class="st2" d="M392.2,258.6h-3.8v-10.9h3.8V258.6z M395.6,254.2H392v-2.6h3.6V254.2z M399.2,258.6h-3.8v-10.9h3.8V258.6z"/>
<path class="st2" d="M406.5,247.6h2.3h1.7c0.4,0,0.9,0,1.3,0.2l-0.2,2.8h-1.5h-3.6c-0.4,0-0.9,0-1.1,0.2c-0.2,0.2-0.2,0.4-0.2,0.9
	c0,0.6,0,0.9,0.2,1.1c0.2,0.2,0.4,0.2,1.1,0.2h5.1v2.3h-1.1H409h-2.6c-0.4,0-0.6,0-0.9,0.2c-0.2,0-0.2,0.2-0.2,0.4l-0.6,3h-4
	l0.9-3.4c0-0.2,0.2-0.6,0.4-0.6c0.2-0.2,0.4-0.2,0.9-0.4c0.2,0,0.6,0,0.9-0.2V254c-0.6-0.2-1.1-0.4-1.5-0.6
	c-0.4-0.2-0.6-0.6-0.6-1.1c-0.2-0.4-0.2-0.9-0.2-1.3c0-0.6,0-1.3,0.2-1.7c0.2-0.4,0.4-0.9,0.9-1.1c0.4-0.2,0.9-0.4,1.5-0.6H406.5
	 M411.8,258.4H408v-10.9h3.8V258.4z"/>
<line class="st1" x1="497.8" y1="111.3" x2="497.8" y2="122.8"/>
<line class="st1" x1="497.8" y1="128.8" x2="497.8" y2="143"/>
<polyline class="st1" points="497.8,148.8 497.8,160.3 483.1,160.3 483.1,148.8 "/>
<line class="st1" x1="483.1" y1="143" x2="483.1" y2="128.8"/>
<line class="st1" x1="483.1" y1="122.8" x2="483.1" y2="111.3"/>
<line class="st1" x1="497.8" y1="111.3" x2="497.8" y2="122.8"/>
<line class="st1" x1="497.8" y1="128.8" x2="497.8" y2="143"/>
<polyline class="st1" points="497.8,148.8 497.8,160.3 483.1,160.3 483.1,148.8 "/>
<line class="st1" x1="483.1" y1="143" x2="483.1" y2="128.8"/>
<line class="st1" x1="483.1" y1="122.8" x2="483.1" y2="111.3"/>
<line class="st1" x1="370.7" y1="157.7" x2="443.9" y2="157.7"/>
<line class="st1" x1="449.5" y1="182" x2="376.5" y2="182"/>
<line class="st1" x1="445" y1="162.4" x2="371.8" y2="162.4"/>
<polyline class="st1" points="370.7,157.7 371.8,162.4 374.8,162.4 376.5,182 "/>
<path class="st1" d="M334.3,166.7l34.1,19.4 M333.2,168.6l33.8,19.4"/>
<path class="st1" d="M374.8,163.3v-0.9 M330.9,163.3v-0.9"/>
<path class="st2" d="M555.9,117.5c1.1,0,2.1,0,2.8,0.2c0.6,0.2,1.3,0.4,1.7,0.6c0.4,0.4,0.6,0.6,0.9,1.3c0.2,0.4,0.2,1.1,0.2,1.9
	c0,0.6,0,1.1-0.2,1.5c-0.2,0.4-0.4,0.9-0.6,1.3c-0.2,0.4-0.9,0.6-1.3,0.6c0.6,0,1.3,0.2,1.7,0.6c0.4,0.4,0.6,0.9,0.9,1.5
	c0.2,0.6,0.2,1.3,0.2,1.9c0,1.1-0.2,1.7-0.4,2.3c-0.2,0.6-0.9,1.1-1.7,1.3c-0.9,0.2-2.1,0.4-3.6,0.4c-1.5,0-2.8-0.2-3.6-0.4
	c-0.9-0.2-1.5-0.6-1.7-1.3c-0.4-0.6-0.4-1.3-0.4-2.3c0-0.6,0-1.3,0.2-1.9c0.2-0.6,0.4-1.1,0.9-1.5c0.4-0.4,0.9-0.6,1.7-0.6
	c-0.6,0-1.1-0.2-1.3-0.6c-0.2-0.4-0.6-0.9-0.6-1.3c-0.2-0.4-0.2-1.1-0.2-1.5c0-0.6,0-1.3,0.2-1.9c0.2-0.4,0.4-0.9,0.9-1.3
	c0.4-0.4,1.1-0.6,1.7-0.6C553.8,117.7,554.6,117.5,555.9,117.5 M555.9,126.4h-1.1c-0.2,0-0.4,0.2-0.6,0.2c-0.2,0.2-0.2,0.4-0.2,0.6
	v1.1c0,0.4,0,0.9,0.2,1.1c0.2,0.2,0.4,0.4,0.6,0.6c0.2,0,0.6,0.2,1.3,0.2c0.6,0,1.1,0,1.3-0.2c0.2,0,0.4-0.2,0.6-0.6
	c0-0.2,0.2-0.6,0.2-1.1v-1.1c0-0.2-0.2-0.4-0.2-0.6c-0.2-0.2-0.4-0.2-0.6-0.2H555.9z M555.9,120.3c-0.4,0-0.9,0-1.3,0.2
	c-0.4,0.2-0.4,0.2-0.6,0.6c-0.2,0.4-0.2,0.6-0.2,1.1c0,0.4,0,0.9,0.2,1.1c0.2,0.2,0.2,0.4,0.6,0.4c0.2,0,0.6,0.2,1.3,0.2
	c0.4,0,0.9,0,1.3-0.2c0.2,0,0.4-0.2,0.4-0.4c0-0.2,0.2-0.6,0.2-1.1c0-0.4,0-0.9-0.2-1.1c0-0.2-0.2-0.4-0.6-0.6
	C556.8,120.3,556.3,120.3,555.9,120.3"/>
<path class="st2" d="M565.7,129.2c0.4,0,0.9,0,1.1,0.2c0.2,0.2,0.2,0.6,0.2,1.1v1.5c0,0.6,0,1.3-0.2,1.7c0,0.4-0.2,0.9-0.4,1.3
	c-0.2,0.4-0.4,0.9-0.6,1.3l-1.5-0.4c0.2-0.4,0.2-0.9,0.2-1.5v-1.5c-0.6,0-1.1-0.4-1.1-1.3v-1.1c0-0.4,0.2-0.9,0.2-1.1
	c0-0.2,0.6-0.2,1.1-0.2H565.7z"/>
<path class="st2" d="M575.1,117.5c1.1,0,2.1,0,2.8,0.2c0.6,0.2,1.3,0.4,1.7,0.6c0.4,0.4,0.6,0.6,0.9,1.3c0.2,0.4,0.2,1.1,0.2,1.9
	c0,0.6,0,1.1-0.2,1.5c-0.2,0.4-0.4,0.9-0.6,1.3c-0.2,0.4-0.9,0.6-1.3,0.6c0.6,0,1.3,0.2,1.7,0.6c0.4,0.4,0.6,0.9,0.9,1.5
	c0.2,0.6,0.2,1.3,0.2,1.9c0,1.1-0.2,1.7-0.4,2.3c-0.4,0.6-0.9,1.1-1.7,1.3c-0.9,0.2-2.1,0.4-3.6,0.4c-1.5,0-2.8-0.2-3.6-0.4
	c-0.9-0.2-1.5-0.6-1.7-1.3c-0.2-0.6-0.4-1.3-0.4-2.3c0-0.6,0-1.3,0.2-1.9c0.2-0.6,0.4-1.1,0.9-1.5c0.4-0.4,0.9-0.6,1.7-0.6
	c-0.6,0-1.1-0.2-1.3-0.6c-0.4-0.4-0.6-0.9-0.6-1.3c-0.2-0.4-0.2-1.1-0.2-1.5c0-0.6,0-1.3,0.2-1.9c0.2-0.4,0.4-0.9,0.9-1.3
	c0.4-0.4,1.1-0.6,1.7-0.6C573,117.7,573.8,117.5,575.1,117.5 M575.1,126.4H574c-0.2,0-0.4,0.2-0.6,0.2c-0.2,0.2-0.2,0.4-0.2,0.6v1.1
	c0,0.4,0,0.9,0.2,1.1c0.2,0.2,0.4,0.4,0.6,0.6c0.2,0,0.6,0.2,1.3,0.2c0.6,0,1.1,0,1.3-0.2c0.2,0,0.4-0.2,0.6-0.6
	c0-0.2,0.2-0.6,0.2-1.1v-1.1c0-0.2-0.2-0.4-0.2-0.6c-0.2-0.2-0.4-0.2-0.6-0.2H575.1z M575.1,120.3c-0.4,0-0.9,0-1.3,0.2
	c-0.2,0-0.4,0.2-0.6,0.6c0,0.2-0.2,0.6-0.2,1.1c0,0.4,0,0.9,0.2,1.1c0,0.2,0.2,0.4,0.6,0.4c0.2,0,0.6,0.2,1.3,0.2
	c0.4,0,0.9,0,1.3-0.2c0.2,0,0.4-0.2,0.4-0.4c0-0.2,0.2-0.6,0.2-1.1c0-0.4,0-0.9-0.2-1.1c0-0.2-0.2-0.4-0.6-0.6
	C575.9,120.3,575.5,120.3,575.1,120.3"/>
<path class="st2" d="M593.8,115.8l0.4,1.7c-1.3,0.4-2.1,1.5-2.6,3c-0.4,1.5-0.6,3.4-0.6,5.7c0,1.5,0.2,2.8,0.4,4
	c0.2,1.3,0.6,2.1,1.1,3c0.4,0.9,1.1,1.5,1.9,1.7l-0.4,1.7c-2.3-0.6-4-1.9-5.1-3.4c-1.1-1.7-1.7-4-1.7-6.8c0-3,0.4-5.3,1.7-6.8
	C589.8,117.5,591.5,116.4,593.8,115.8"/>
<path class="st2" d="M602.5,117.9l-3.4,8.5v0.4c0,0.2,0.2,0.2,0.4,0.2h8.5v2.3l-1.7,0.4h-9.8c-0.4,0-0.9,0-1.1-0.2
	c-0.2-0.2-0.4-0.4-0.6-0.9v-1.1l3.8-9.6h3.8V117.9z M606.4,120.9V133h-3.8v-9.8l0.6-2.3H606.4z"/>
<path class="st2" d="M611.7,129.2c0.4,0,0.9,0,1.1,0.2c0.2,0.2,0.2,0.6,0.2,1.1v1.5c0,0.6,0,1.3-0.2,1.7c0,0.4-0.2,0.9-0.4,1.3
	c-0.2,0.4-0.4,0.9-0.6,1.3l-1.5-0.4c0.2-0.4,0.2-0.9,0.2-1.5v-1.5c-0.6,0-1.1-0.4-1.1-1.3v-1.1c0-0.4,0.2-0.9,0.2-1.1
	c0-0.2,0.6-0.2,1.1-0.2H611.7z"/>
<path class="st2" d="M621.9,117.9l-3.4,8.5v0.4c0,0.2,0.2,0.2,0.4,0.2h8.5v2.3l-1.7,0.4H616c-0.4,0-0.9,0-1.1-0.2
	c-0.2-0.2-0.4-0.4-0.6-0.9v-1.1l3.8-9.6h3.8V117.9z M625.8,120.9V133h-3.8v-9.8l0.6-2.3H625.8z"/>
<path class="st2" d="M628.7,115.8c2.3,0.6,4,1.7,5.1,3.4c1.1,1.7,1.7,4,1.7,6.8c0,3-0.4,5.1-1.7,6.8c-1.1,1.7-2.8,2.8-5.1,3.4
	l-0.4-1.7c0.9-0.4,1.5-1.1,1.9-1.7c0.4-0.6,0.9-1.7,1.1-3c0.2-1.3,0.2-2.6,0.2-4c0-2.3-0.2-4.3-0.6-5.7c-0.4-1.5-1.3-2.6-2.6-3
	L628.7,115.8z"/>
<polyline class="st1" points="283,68.3 283,58.4 291.9,58.4 "/>
<path class="st2" d="M385.2,332.1v14.7h-4V337v-0.9c0-0.2,0-0.6,0.2-0.9l-3.4,0.9l-0.4-2.6l3.8-1.5H385.2z"/>
<path class="st2" d="M392.8,331.7c1.3,0,2.1,0,3,0.2c0.9,0.2,1.3,0.6,1.5,1.1c0.4,0.4,0.4,1.3,0.4,2.1c0,0.6,0,1.3-0.2,1.9
	c-0.2,0.4-0.4,0.9-0.6,1.3c-0.2,0.4-0.9,0.4-1.5,0.6c1.1,0.2,1.7,0.4,2.1,1.1c0.4,0.6,0.6,1.5,0.6,2.6c0,1.1-0.2,1.9-0.4,2.6
	c-0.4,0.6-0.9,1.1-1.7,1.5c-0.9,0.2-1.9,0.4-3.2,0.4c-0.9,0-1.7,0-2.8-0.2c-0.9,0-1.7-0.2-2.6-0.2l0.2-2.8h1.7h1.3h1.3
	c0.6,0,1.1,0,1.5-0.2c0.4,0,0.6-0.2,0.9-0.4c0.2-0.2,0.2-0.6,0.2-1.1c0-0.4,0-0.9-0.2-1.1c0-0.2-0.2-0.4-0.6-0.6
	c-0.4-0.2-0.6-0.2-1.3-0.2h-2.8v-2.6h2.8c0.4,0,0.6,0,1.1-0.2c0.4-0.2,0.4-0.2,0.4-0.4c0.2-0.2,0.2-0.2,0.2-0.4v-0.6
	c0-0.4,0-0.6-0.2-0.9c-0.2-0.2-0.2-0.4-0.6-0.4c-0.2,0-0.6-0.2-1.3-0.2h-2.1H388l-0.2-2.8c0.9-0.2,1.7-0.2,2.6-0.2
	C391.4,331.9,392,331.7,392.8,331.7"/>
<path class="st2" d="M402.2,343.2c0.4,0,0.9,0,1.1,0.2c0.2,0.2,0.2,0.6,0.2,1.1v1.3c0,0.6,0,1.3-0.2,1.7c0,0.4-0.2,0.9-0.4,1.3
	c-0.2,0.4-0.4,0.9-0.6,1.3l-1.5-0.4c0.2-0.4,0.2-0.9,0.2-1.5v-1.5c-0.6,0-1.1-0.4-1.1-1.3v-1.1c0-0.4,0.2-0.9,0.2-1.1
	c0.2-0.2,0.4-0.2,1.1-0.2h1.1V343.2z"/>
<path class="st2" d="M411.2,331.9c1.1,0,2.1,0,2.8,0.2c0.6,0.2,1.3,0.4,1.7,0.6c0.4,0.2,0.6,0.6,0.9,1.3c0.2,0.4,0.2,1.1,0.2,1.7
	c0,0.4,0,1.1-0.2,1.5c-0.2,0.4-0.4,0.9-0.6,1.3c-0.2,0.4-0.9,0.4-1.3,0.6c0.6,0,1.3,0.2,1.7,0.6c0.4,0.4,0.6,0.9,0.9,1.5
	c0.2,0.6,0.2,1.3,0.2,1.9c0,1.1-0.2,1.7-0.4,2.3c-0.2,0.6-0.9,1.1-1.7,1.3c-0.9,0.2-2.1,0.4-3.6,0.4c-1.5,0-2.8-0.2-3.6-0.4
	c-0.9-0.2-1.5-0.6-1.7-1.3c-0.4-0.6-0.4-1.3-0.4-2.3c0-0.6,0-1.3,0.2-1.9c0.2-0.6,0.4-1.1,0.9-1.5c0.4-0.4,0.9-0.6,1.7-0.6
	c-0.6,0-1.1-0.2-1.3-0.6c-0.4-0.4-0.6-0.9-0.6-1.3c-0.2-0.4-0.2-1.1-0.2-1.5c0-0.6,0-1.3,0.2-1.7c0.2-0.4,0.4-0.9,0.9-1.3
	c0.4-0.2,0.9-0.6,1.7-0.6C410.1,332.1,410.1,331.9,411.2,331.9 M411.2,340.4h-1.1c-0.2,0-0.4,0.2-0.6,0.2c-0.2,0.2-0.2,0.4-0.2,0.6
	v1.1c0,0.4,0,0.9,0.2,1.1c0.2,0.2,0.2,0.4,0.6,0.6c0.2,0,0.6,0.2,1.3,0.2c0.6,0,1.1,0,1.3-0.2c0.2,0,0.4-0.2,0.6-0.6
	c0-0.2,0.2-0.6,0.2-1.1v-1.1c0-0.2-0.2-0.4-0.2-0.6c-0.2-0.2-0.4-0.2-0.6-0.2H411.2z M411.2,334.4c-0.4,0-0.9,0-1.1,0.2
	c-0.2,0-0.4,0.2-0.6,0.4c0,0.2-0.2,0.6-0.2,1.1c0,0.4,0,0.9,0.2,1.1c0.2,0.2,0.2,0.4,0.6,0.4c0.2,0,0.6,0.2,1.3,0.2
	c0.4,0,0.9,0,1.1-0.2c0.2,0,0.4-0.2,0.4-0.4c0-0.2,0.2-0.6,0.2-1.1c0-0.4,0-0.9-0.2-1.1c0-0.2-0.2-0.4-0.4-0.4
	C412,334.4,411.8,334.4,411.2,334.4"/>
<path class="st2" d="M283.3,392h30.9v-30.9h-30.9V392z M282.7,360.5h32.1v32.1h-32.1V360.5z"/>
<path class="st2" d="M311.4,365.6c0-0.9-0.6-1.3-1.3-1.3H294c-0.9,0-1.3,0.6-1.3,1.3v21.7c0,0.9,0.6,1.3,1.3,1.3h16.2
	c0.9,0,1.3-0.6,1.3-1.3V365.6z M291.8,387.3v-21.7c0-1.1,0.9-2.1,2.1-2.1h16.2c1.1,0,2.1,0.9,2.1,2.1v21.7c0,1.1-0.9,2.1-2.1,2.1
	H294C292.7,389.4,291.8,388.4,291.8,387.3"/>
<path class="st2" d="M294.8,386.3h14.3v-19.6h-14.3V386.3z M294.2,366h15.5v20.9h-15.5V366z"/>
<path class="st2" d="M304.8,376.5c0-1.1-0.9-1.7-1.7-1.7c-1.1,0-1.7,0.9-1.7,1.7c0,1.1,0.9,1.7,1.7,1.7
	C304,378.4,304.8,377.5,304.8,376.5 M300.6,376.5c0-1.3,1.1-2.6,2.6-2.6c1.3,0,2.6,1.1,2.6,2.6c0,1.3-1.1,2.6-2.6,2.6
	C301.6,379,300.6,377.9,300.6,376.5"/>
<path class="st3" d="M283.3,392h30.9v-30.9h-30.9V392z M282.7,360.5h32.1v32.1h-32.1V360.5z"/>
<path class="st3" d="M311.4,365.6c0-0.9-0.6-1.3-1.3-1.3H294c-0.9,0-1.3,0.6-1.3,1.3v21.7c0,0.9,0.6,1.3,1.3,1.3h16.2
	c0.9,0,1.3-0.6,1.3-1.3V365.6z M291.8,387.3v-21.7c0-1.1,0.9-2.1,2.1-2.1h16.2c1.1,0,2.1,0.9,2.1,2.1v21.7c0,1.1-0.9,2.1-2.1,2.1
	H294C292.7,389.4,291.8,388.4,291.8,387.3z"/>
<path class="st3" d="M294.8,386.3h14.3v-19.6h-14.3V386.3z M294.2,366h15.5v20.9h-15.5V366z"/>
<path class="st3" d="M304.8,376.5c0-1.1-0.9-1.7-1.7-1.7c-1.1,0-1.7,0.9-1.7,1.7c0,1.1,0.9,1.7,1.7,1.7
	C304,378.4,304.8,377.5,304.8,376.5z M300.6,376.5c0-1.3,1.1-2.6,2.6-2.6c1.3,0,2.6,1.1,2.6,2.6c0,1.3-1.1,2.6-2.6,2.6
	C301.6,379,300.6,377.9,300.6,376.5z"/>
<path class="st3" d="M603,736.5c13.8,0,25.1-11.2,25.1-25.1c0-13.8-11.2-25.1-25.1-25.1c-13.8,0-25.1,11.2-25.1,25.1
	C577.9,725.2,589.1,736.5,603,736.5z"/>
<path class="st2" d="M611.2,713.1l5.1,9.3h6.6l-5.4-9.2c-0.5-0.9-1.4-1.7-2-2.1v-0.1c0.6-0.4,1.3-1,1.8-1.9l5.3-8.6h-6.4l-5,8.5
	h-1.5c0.2-0.9,0.3-1.8,0.3-2.7v-5.8H604v21.8h5.9v-7.3c0-0.6-0.1-1.3-0.3-2H611.2z M585,705.4c3-0.2,4.6-0.2,6.8-0.2
	c1.7,0,2.4,0.1,2.4,1c0,1.2-1.4,3.2-3.9,5.7l-4.9,5.1c-0.6,0.7-0.8,1.4-0.8,2.4v3.1h16.3v-5.1h-6.3c-1,0-2.1,0-3.1,0.3l5.4-5.3
	c2.9-3,3.4-4.4,3.4-6.8c0-4.3-3.1-5.3-7.7-5.3c-2.4,0-4.6,0.1-7.8,0.7L585,705.4z"/>
<path class="st2" d="M643.2,760.8l0.3-5.7h-17.9l-0.7,12.9c-0.1,1.3,0.9,2.4,2.2,2.6l4.4,0.5c3.9,0.3,5.3,0.9,5.1,3.6
	c-0.2,2.3-1,3.2-4.8,3.2c-2,0-4.7-0.1-7.4-0.3l-0.7,5.9c3.7,0.5,7.3,0.8,10.2,0.8c8.1,0,10.4-4.2,10.4-9.3c0-4.6-1.7-8.7-8.4-9.5
	l-4.8-0.6l0.3-4H643.2z M616.4,776.6c-2,0-2.6,0.6-2.6,2.6v1.8c0,2,0.6,2.6,2.6,2.6h1.8c2,0,2.6-0.6,2.6-2.6v-1.8
	c0-2-0.6-2.6-2.6-2.6H616.4z M611,772.5h-3.4v-11.8h-5.9l-1.2,4.5v7.3h-5.6c-0.7,0-1.1-0.4-0.7-1.2l6.3-16.2h-7.3l-7.1,18.2
	c-0.9,2.2,0.6,4.4,3,4.4h11.5v6h7.1v-6h0.1l3.3-0.7V772.5z M573.2,778.5c-3.3,0-3.7-1-3.7-7.4c1.4-0.8,2.3-1.1,3.7-1.1
	c2.7,0,3.4,0.7,3.4,3.8C576.5,777.2,576.3,778.5,573.2,778.5 M581.9,755.4c-2.9-0.8-5.9-0.8-7.4-0.8c-8.3,0-12.5,2-12.5,15.1
	c0,11.6,2.6,14.5,11.1,14.5c8.8,0,10.7-3.4,10.7-10.5c0-6.3-1.9-8.9-8.4-8.9c-2.5,0-4.3,0.4-5.8,1.7c0.2-5.4,1.2-6.3,4.9-6.3
	c3.3,0,4.7,0,7.1,0L581.9,755.4z"/>
<g>
	<path class="st2" d="M593.7,411.3c0.6,0,1.2,0,1.6,0.1c0.4,0,0.9,0.1,1.2,0.2c0.4,0.1,0.8,0.2,1.2,0.3l-0.3,2.8c-0.4,0-0.8,0-1.1,0
		c-0.4,0-0.7,0-1.1,0c-0.4,0-0.9,0-1.4,0c-0.4,0-0.7,0.1-0.9,0.3c-0.2,0.2-0.4,0.5-0.4,0.9c-0.1,0.4-0.1,1.1-0.1,1.9
		c0,0.8,0,1.5,0.1,1.9c0.1,0.4,0.2,0.7,0.4,0.9c0.2,0.2,0.5,0.3,0.9,0.3c0.9,0,1.6,0,2.2,0s1.2-0.1,1.8-0.1l0.3,2.8
		c-0.6,0.2-1.2,0.4-1.9,0.4c-0.6,0.1-1.4,0.1-2.4,0.1c-1.3,0-2.4-0.2-3.2-0.6c-0.8-0.4-1.4-1.1-1.8-2s-0.5-2.1-0.5-3.7
		s0.2-2.8,0.5-3.7s0.9-1.6,1.8-2C591.3,411.5,592.4,411.3,593.7,411.3z"/>
	<path class="st2" d="M608.7,411.5l-6.9,13.5h-2.9l6.9-13.5H608.7z"/>
	<path class="st2" d="M613.2,414.9l1,4.9c0,0.3,0.1,0.5,0.1,0.8c0,0.3,0.1,0.6,0.1,0.8h0.5l-1.1,2.3H613c-0.3,0-0.5-0.1-0.7-0.2
		c-0.2-0.2-0.4-0.4-0.4-0.6l-2.6-7.9H613.2z M620,414.9l-2.8,8.6c-0.2,0.8-0.5,1.5-0.9,2c-0.4,0.5-0.7,0.9-1.2,1.1
		c-0.4,0.3-0.9,0.5-1.4,0.6c-0.5,0.2-1.1,0.2-1.8,0.2c-0.6,0-1.3-0.1-1.9-0.2l0.3-2.3c0.6,0,1.1,0,1.6-0.1s0.8-0.2,1-0.3
		c0.2-0.1,0.4-0.3,0.6-0.5c0.2-0.2,0.3-0.4,0.4-0.7l0.5-1.2c0.1-0.3,0.2-0.7,0.3-1.1c0.1-0.5,0.2-0.8,0.2-1.2l1-4.9H620z"/>
</g>
<g>
	<path class="st2" d="M589.8,518.2c1.1,0,2,0.1,2.7,0.3c0.7,0.2,1.2,0.5,1.4,1c0.3,0.5,0.4,1.1,0.4,1.9c0,0.9-0.2,1.5-0.5,2
		c-0.3,0.5-0.9,0.7-1.7,0.8v0.1c1,0.1,1.7,0.4,2,0.9c0.4,0.5,0.6,1.3,0.6,2.3c0,0.8-0.2,1.5-0.5,1.9c-0.3,0.5-0.8,0.8-1.4,1
		c-0.6,0.2-1.5,0.3-2.5,0.3c-0.9,0-1.6,0-2.3,0c-0.7,0-1.3,0-1.8,0c-0.6,0-1.1-0.1-1.7-0.1l0.3-2.5c0.3,0,0.9,0,1.8,0
		c0.9,0,1.9,0,3.1,0c0.4,0,0.6,0,0.8-0.1c0.2-0.1,0.3-0.2,0.4-0.4c0.1-0.2,0.1-0.5,0.1-0.8c0-0.4,0-0.7-0.1-0.9
		c-0.1-0.2-0.2-0.3-0.4-0.4c-0.2-0.1-0.5-0.1-0.8-0.1h-4.9v-2.2h4.8c0.3,0,0.5,0,0.7-0.1c0.2-0.1,0.3-0.2,0.3-0.3s0.1-0.4,0.1-0.7
		c0-0.3,0-0.6-0.1-0.7c-0.1-0.2-0.2-0.3-0.3-0.3c-0.2-0.1-0.4-0.1-0.7-0.1c-0.7,0-1.4,0-1.9,0c-0.6,0-1,0-1.5,0
		c-0.4,0-0.9,0-1.3,0.1l-0.3-2.5c0.5,0,1-0.1,1.5-0.1c0.5,0,1.1,0,1.6,0C588.4,518.2,589.1,518.2,589.8,518.2z M588.3,518.4v12.1
		h-3.7v-12.1H588.3z"/>
	<path class="st2" d="M603.9,525.1l0,1.8h-3.6c-0.2,0-0.4,0-0.5,0.1c-0.1,0.1-0.2,0.2-0.2,0.4v0.3c0,0.2,0.1,0.3,0.2,0.4
		c0.1,0.1,0.3,0.2,0.6,0.2c0.3,0,0.6-0.1,0.9-0.2c0.3-0.1,0.6-0.3,0.9-0.5c0.3-0.2,0.5-0.4,0.7-0.7v1.1c-0.1,0.2-0.2,0.5-0.4,0.8
		c-0.2,0.3-0.4,0.6-0.7,0.9c-0.3,0.3-0.7,0.6-1.1,0.8c-0.4,0.2-1,0.3-1.6,0.3c-0.5,0-1-0.1-1.5-0.3c-0.5-0.2-0.8-0.5-1.1-0.8
		c-0.3-0.4-0.4-0.8-0.4-1.4v-0.9c0-0.7,0.3-1.3,0.8-1.7c0.5-0.4,1.2-0.6,2.1-0.6H603.9z M601.5,521.5c0.8,0,1.5,0.1,2.1,0.3
		s1,0.6,1.3,1.1c0.3,0.5,0.4,1.2,0.4,2.2v5.5h-2.9l-0.5-1.9l-0.2-0.4V525c0-0.3-0.1-0.5-0.2-0.7c-0.1-0.1-0.4-0.2-0.8-0.2
		c-0.5,0-1,0-1.7,0c-0.7,0-1.4,0-2.1,0.1l-0.3-2.3c0.4-0.1,1-0.2,1.6-0.2s1.2-0.1,1.8-0.2C600.5,521.5,601.1,521.5,601.5,521.5z"/>
	<path class="st2" d="M610.9,521.7v8.8h-3.6v-8.8H610.9z M613.2,524.7v2.4h-2.4v-2.4H613.2z M616.7,521.7v8.8H613v-8.8H616.7z"/>
	<path class="st2" d="M622.3,521.7v8.8h-3.6v-8.8H622.3z M624.6,524.7v2.4h-2.4v-2.4H624.6z M628.1,521.7v8.8h-3.6v-8.8H628.1z"/>
	<path class="st2" d="M637.5,525.1l0,1.8h-3.6c-0.2,0-0.4,0-0.5,0.1c-0.1,0.1-0.2,0.2-0.2,0.4v0.3c0,0.2,0.1,0.3,0.2,0.4
		c0.1,0.1,0.3,0.2,0.6,0.2c0.3,0,0.6-0.1,0.9-0.2c0.3-0.1,0.6-0.3,0.9-0.5c0.3-0.2,0.5-0.4,0.7-0.7v1.1c-0.1,0.2-0.2,0.5-0.4,0.8
		c-0.2,0.3-0.4,0.6-0.7,0.9c-0.3,0.3-0.7,0.6-1.1,0.8c-0.4,0.2-1,0.3-1.6,0.3c-0.5,0-1-0.1-1.5-0.3c-0.5-0.2-0.8-0.5-1.1-0.8
		c-0.3-0.4-0.4-0.8-0.4-1.4v-0.9c0-0.7,0.3-1.3,0.8-1.7c0.5-0.4,1.2-0.6,2.1-0.6H637.5z M635.1,521.5c0.8,0,1.5,0.1,2.1,0.3
		c0.6,0.2,1,0.6,1.3,1.1c0.3,0.5,0.4,1.2,0.4,2.2v5.5H636l-0.5-1.9l-0.2-0.4V525c0-0.3-0.1-0.5-0.2-0.7c-0.1-0.1-0.4-0.2-0.8-0.2
		c-0.5,0-1,0-1.7,0c-0.7,0-1.4,0-2.1,0.1l-0.3-2.3c0.4-0.1,1-0.2,1.6-0.2s1.2-0.1,1.8-0.2C634.1,521.5,634.7,521.5,635.1,521.5z"/>
	<path class="st2" d="M644.9,521.5c0.8,0,1.5,0,2.1,0c0.5,0,1,0,1.4,0c0.4,0,0.8,0,1.1,0.1l-0.2,2.5c-0.1,0-0.5-0.1-1.2-0.1
		c-0.8,0-1.8,0-3.1,0c-0.3,0-0.5,0-0.6,0.1c-0.1,0.1-0.2,0.2-0.2,0.5c0,0.4,0,0.7,0.2,0.8c0.1,0.1,0.3,0.2,0.6,0.2h4.3l0.1,2.1
		c-0.2,0-0.5,0-0.8,0s-0.7,0-1.2,0s-1.2,0-2.2,0c-0.2,0-0.4,0-0.5,0.1c-0.1,0-0.1,0.2-0.2,0.3l-0.5,2.4h-3.8l0.7-2.8
		c0.1-0.3,0.2-0.4,0.4-0.6c0.2-0.1,0.4-0.2,0.7-0.2c0.2,0,0.4-0.1,0.6-0.1v-0.1c-0.5-0.1-0.9-0.3-1.2-0.5s-0.5-0.5-0.6-0.9
		c-0.1-0.3-0.2-0.6-0.2-0.9c0-0.6,0.1-1.1,0.2-1.5c0.1-0.4,0.3-0.7,0.7-0.9c0.3-0.2,0.7-0.4,1.3-0.4
		C643.4,521.5,644.1,521.5,644.9,521.5z M649.5,521.6v8.9H646v-8.9H649.5z"/>
</g>
</svg>
