<svg xmlns="http://www.w3.org/2000/svg" xmlns:xlink="http://www.w3.org/1999/xlink" xml:space="preserve" id="Слой_1" x="0" y="0" style="enable-background:new 0 0 243 437" version="1.1" viewBox="0 0 243 437"><style>.st0{fill:#fff5a4}.st1{fill:#39373a}.st10,.st3{fill:none;stroke:#39373a}.st3{stroke-width:.977}.st10{stroke-width:.586}.st20{fill:#39373a}.st20,.st21{clip-path:url(#SVGID_32_)}.st21,.st22{fill:none;stroke:#39373a;stroke-width:.244}.st23,.st24,.st30{clip-path:url(#SVGID_34_);fill:#39373a}.st24,.st30{fill:none;stroke:#39373a;stroke-width:.244}.st30{clip-path:url(#SVGID_42_);stroke-width:.586}.st31{clip-path:url(#SVGID_44_);fill:#39373a}.st32,.st33{fill:none;stroke:#39373a}.st32{clip-path:url(#SVGID_44_);stroke-width:.244}.st33{stroke-width:.644}</style><switch><g><path d="M27.4 79.7h189.9v173.2H27.4z" class="st0"/><path d="M121.4 135.4h95.9v271.9h-95.9z" class="st0"/><path d="M25.6 21.3h11.5v52.3H25.6z" class="st1"/><defs><path id="SVGID_1_" d="M5.6 20.9h218.8v398.9H5.6z"/></defs><clipPath id="SVGID_2_"><use xlink:href="#SVGID_1_" style="overflow:visible"/></clipPath><path d="M25.6 21.3h11.5v52.3H25.6z" style="clip-path:url(#SVGID_2_);fill:none;stroke:#39373a;stroke-width:.977"/><path d="m22.9 67.8 25.5-.1V70h-2.9v9.2H22.9z" class="st1"/><path d="m22.9 67.8 25.5-.1V70h-2.9v9.2H22.9z" class="st3"/><path d="M119.1 407.8v11.5h26.3V417h-2.9v-9.2z" class="st1"/><defs><path id="SVGID_3_" d="M5.6 20.9h218.8v398.9H5.6z"/></defs><clipPath id="SVGID_4_"><use xlink:href="#SVGID_3_" style="overflow:visible"/></clipPath><path d="M119.1 419.3h26.3V417h-2.9v-9.2h-23.4z" style="clip-path:url(#SVGID_4_);fill:none;stroke:#39373a;stroke-width:.977"/><path d="m117.3 67.8 28.4-.1V70h-2.9v9.2h-25.5z" class="st1"/><path d="m117.3 67.8 28.4-.1V70h-2.9v9.2h-25.5z" class="st3"/><path d="m125.1 67.8-28.3-.1V70h2.9v9.2h25.4z" class="st1"/><path d="m125.1 67.8-28.3-.1V70h2.9v9.2h25.4z" class="st3"/><path d="M200.3 407.8v9.2h-2.9v2.3h24.7v-11.5z" class="st1"/><defs><path id="SVGID_5_" d="M5.6 20.9h218.8v398.9H5.6z"/></defs><clipPath id="SVGID_6_"><use xlink:href="#SVGID_5_" style="overflow:visible"/></clipPath><path d="M222.1 419.3h-24.7V417h2.9v-9.2h21.8z" style="clip-path:url(#SVGID_6_);fill:none;stroke:#39373a;stroke-width:.977"/><path d="m219.1 67.8-24.7-.1V70h2.8v9.2h21.9z" class="st1"/><path d="m219.1 67.8-24.7-.1V70h2.8v9.2h21.9z" class="st3"/><path d="M217.5 35.4h4.7v383.9h-4.7z" class="st1"/><defs><path id="SVGID_7_" d="M5.6 20.9h218.8v398.9H5.6z"/></defs><clipPath id="SVGID_8_"><use xlink:href="#SVGID_7_" style="overflow:visible"/></clipPath><path d="M217.5 35.4h4.7v383.9h-4.7z" style="clip-path:url(#SVGID_8_);fill:none;stroke:#39373a;stroke-width:.977"/><path d="M119.1 68.7h4.7v138.7h-4.7z" class="st1"/><path d="M119.1 68.7h4.7v138.7h-4.7z" class="st3"/><path d="M118.3 68.7h5.4v138.7h-5.4z" class="st1"/><path d="M118.3 68.7h5.4v138.7h-5.4z" class="st3"/><path d="M118.3 21.3h5.4v26.6h-5.4z" class="st1"/><defs><path id="SVGID_9_" d="M5.6 20.9h218.8v398.9H5.6z"/></defs><clipPath id="SVGID_10_"><use xlink:href="#SVGID_9_" style="overflow:visible"/></clipPath><path d="M118.3 21.3h5.4v26.6h-5.4z" style="clip-path:url(#SVGID_10_);fill:none;stroke:#39373a;stroke-width:.977"/><path d="M22.2 21.3h4.7v199.8h-4.7z" class="st1"/><defs><path id="SVGID_11_" d="M5.6 20.9h218.8v398.9H5.6z"/></defs><clipPath id="SVGID_12_"><use xlink:href="#SVGID_11_" style="overflow:visible"/></clipPath><path d="M22.2 21.3h4.7v199.8h-4.7z" style="clip-path:url(#SVGID_12_);fill:none;stroke:#39373a;stroke-width:.977"/><path d="M119.1 235.6h4.7v183.7h-4.7z" class="st1"/><defs><path id="SVGID_13_" d="M5.6 20.9h218.8v398.9H5.6z"/></defs><clipPath id="SVGID_14_"><use xlink:href="#SVGID_13_" style="overflow:visible"/></clipPath><path d="M119.1 235.6h4.7v183.7h-4.7z" style="clip-path:url(#SVGID_14_);fill:none;stroke:#39373a;stroke-width:.977"/><path d="M22.2 245.7h4.7V258h-4.7z" class="st1"/><path d="M22.2 245.7h4.7V258h-4.7z" class="st3"/><path d="M22.2 253.4h98.7v4.7H22.2z" class="st1"/><path d="M22.2 253.4h98.7v4.7H22.2z" class="st3"/><path d="M148.6 174.8h71.2v2.5h-71.2z" class="st1"/><path d="M148.6 174.8h71.2v2.5h-71.2z" class="st3"/><path d="M23.9 191.7h71.2v2.5H23.9z" class="st1"/><path d="M23.9 191.7h71.2v2.5H23.9z" class="st3"/><path d="M156.3 203.2h63.6v2.5h-63.6z" class="st1"/><path d="M156.3 203.2h63.6v2.5h-63.6z" class="st3"/><path d="M148.6 254.5h71.2v2.5h-71.2z" class="st1"/><path d="M148.6 254.5h71.2v2.5h-71.2z" class="st3"/><path d="M156.3 194.8h2.5V221h-2.5z" class="st1"/><path d="M156.3 194.8h2.5V221h-2.5z" class="st3"/><path d="M156.3 237.2h2.5V257h-2.5z" class="st1"/><path d="M156.3 237.2h2.5V257h-2.5z" class="st3"/><path stroke-width=".586" d="m123.503 26.204.387-2.672 97.179 14.092-.388 2.672z" class="st10"/><path d="M24 23.5h98.2v2.7H24z" class="st10"/><path stroke-width=".586" d="m142.145 70.374.46-.773 18.393 10.937-.46.774z" class="st10"/><path d="M161.8 67.6h35v2.7h-35z" class="st10"/><path d="M164.2 70.2h35v9.2h-35z" class="st10"/><defs><path id="SVGID_15_" d="M5.6 20.9h218.8v398.9H5.6z"/></defs><clipPath id="SVGID_16_"><use xlink:href="#SVGID_15_" style="overflow:visible"/></clipPath><path d="M161 80.4s1.1-1.5 1.6-4.9c.5-3.4.4-5.2.4-5.2" style="clip-path:url(#SVGID_16_);fill:none;stroke:#39373a;stroke-width:.391"/><path stroke-width=".586" d="m43.743 70.37.46-.774 18.394 10.938-.46.773z" class="st10"/><path d="M63.4 67.6h35v2.7h-35z" class="st10"/><path d="M65.8 70.2h35v9.2h-35z" class="st10"/><defs><path id="SVGID_17_" d="M5.6 20.9h218.8v398.9H5.6z"/></defs><clipPath id="SVGID_18_"><use xlink:href="#SVGID_17_" style="overflow:visible"/></clipPath><path d="M62.6 80.4s1.1-1.5 1.6-4.9c.5-3.4.4-5.2.4-5.2" style="clip-path:url(#SVGID_18_);fill:none;stroke:#39373a;stroke-width:.391"/><path d="m144.8 164.2-.5-.8-20.5 12.3.5.8z" class="st10"/><defs><path id="SVGID_19_" d="M5.6 20.9h218.8v398.9H5.6z"/></defs><clipPath id="SVGID_20_"><use xlink:href="#SVGID_19_" style="overflow:visible"/></clipPath><path d="M144.8 164.2s1.4 1.8 2.6 6.3c1.2 4.5 1.4 6.9 1.4 6.9" style="clip-path:url(#SVGID_20_);fill:none;stroke:#39373a;stroke-width:.391"/><path d="m99 181.1.4-.8 20.5 12.3-.5.8z" class="st10"/><defs><path id="SVGID_21_" d="M5.6 20.9h218.8v398.9H5.6z"/></defs><clipPath id="SVGID_22_"><use xlink:href="#SVGID_21_" style="overflow:visible"/></clipPath><path d="M98.9 181.1s-1.4 1.8-2.6 6.3c-1.2 4.5-1.4 6.9-1.4 6.9" style="clip-path:url(#SVGID_22_);fill:none;stroke:#39373a;stroke-width:.391"/><path d="m35.8 225.2.8.5-12.3 20.4-.8-.4z" class="st10"/><defs><path id="SVGID_23_" d="M5.6 20.9h218.8v398.9H5.6z"/></defs><clipPath id="SVGID_24_"><use xlink:href="#SVGID_23_" style="overflow:visible"/></clipPath><path d="M35.7 225.1s-1.8-1.4-6.3-2.6c-4.5-1.2-6.9-1.4-6.9-1.4" style="clip-path:url(#SVGID_24_);fill:none;stroke:#39373a;stroke-width:.391"/><path d="m148.7 193-1.1-.7 9.9-16.3 1 .6z" class="st10"/><defs><path id="SVGID_25_" d="M5.6 20.9h218.8v398.9H5.6z"/></defs><clipPath id="SVGID_26_"><use xlink:href="#SVGID_25_" style="overflow:visible"/></clipPath><path d="M148.3 192.8s1.6 1.1 5.3 1.5c3.7.4 5.6.1 5.6.1" style="clip-path:url(#SVGID_26_);fill:none;stroke:#39373a;stroke-width:.391"/><path d="m148.7 222.8-1.1.7 9.9 16.3 1-.6z" class="st10"/><defs><path id="SVGID_27_" d="M5.6 20.9h218.8v398.9H5.6z"/></defs><clipPath id="SVGID_28_"><use xlink:href="#SVGID_27_" style="overflow:visible"/></clipPath><path d="M148.3 223s1.6-1.1 5.3-1.4c3.7-.4 5.6-.1 5.6-.1" style="clip-path:url(#SVGID_28_);fill:none;stroke:#39373a;stroke-width:.391"/><path d="m146.5 269.2-.7 1.2-22.6-13.7.7-1.2z" class="st10"/><defs><path id="SVGID_29_" d="M5.6 20.9h218.8v398.9H5.6z"/></defs><clipPath id="SVGID_30_"><use xlink:href="#SVGID_29_" style="overflow:visible"/></clipPath><path d="M146.4 269.7s1.5-2.3 1.9-7.3c.4-5.1.1-6.4.1-6.4" style="clip-path:url(#SVGID_30_);fill:none;stroke:#39373a;stroke-width:.391"/><path d="M124.4 416.8h90v2.7h-90z" style="clip-path:url(#SVGID_30_);fill:none;stroke:#39373a;stroke-width:.586"/><path d="M125.7 407.6h87.4v9.2h-87.4z" class="st10"/><defs><path id="SVGID_31_" d="M5.6 20.9h218.8v398.9H5.6z"/></defs><clipPath id="SVGID_32_"><use xlink:href="#SVGID_31_" style="overflow:visible"/></clipPath><path d="M189.9 190.6c0-2.8 2.2-5 5-5h7.2c.5 0 .9.4.9.9v8.3c0 .5-.4.9-.9.9h-7.2c-2.7-.1-5-2.3-5-5.1m13.5 4.2v-8.3c0-.7-.5-1.2-1.2-1.2H195c-2.9 0-5.3 2.4-5.3 5.3s2.4 5.3 5.3 5.3h7.2c.6.1 1.2-.5 1.2-1.1" class="st20"/><path d="M189.9 190.6c0-2.8 2.2-5 5-5h7.2c.5 0 .9.4.9.9v8.3c0 .5-.4.9-.9.9h-7.2c-2.7-.1-5-2.3-5-5.1zm13.5 4.2v-8.3c0-.7-.5-1.2-1.2-1.2H195c-2.9 0-5.3 2.4-5.3 5.3s2.4 5.3 5.3 5.3h7.2c.6.1 1.2-.5 1.2-1.1z" class="st21"/><path d="M200.6 187v7.2s0 .1-.1.1H195c-2 0-3.7-1.7-3.7-3.7s1.7-3.7 3.7-3.7l5.6.1z" class="st21"/><path d="M200.4 187.1v7H195c-1.9 0-3.5-1.6-3.5-3.5s1.6-3.5 3.5-3.5h5.4zm.4 7.1V187c0-.1-.1-.3-.3-.3H195c-2.1 0-3.8 1.7-3.8 3.8 0 2.1 1.7 3.8 3.8 3.8h5.5c.2.2.3 0 .3-.1" class="st20"/><path d="M200.4 187.1v7H195c-1.9 0-3.5-1.6-3.5-3.5s1.6-3.5 3.5-3.5h5.4zm.4 7.1V187c0-.1-.1-.3-.3-.3H195c-2.1 0-3.8 1.7-3.8 3.8 0 2.1 1.7 3.8 3.8 3.8h5.5c.2.2.3 0 .3-.1z" class="st21"/><path d="M195.1 190.6c0-.5.4-.9.9-.9s.9.4.9.9-.4.9-.9.9-.9-.4-.9-.9m2.2 0c0-.7-.6-1.3-1.3-1.3-.7 0-1.3.6-1.3 1.3 0 .7.6 1.3 1.3 1.3.7 0 1.3-.6 1.3-1.3" class="st20"/><path d="M195.1 190.6c0-.5.4-.9.9-.9s.9.4.9.9-.4.9-.9.9-.9-.4-.9-.9zm2.2 0c0-.7-.6-1.3-1.3-1.3-.7 0-1.3.6-1.3 1.3 0 .7.6 1.3 1.3 1.3.7 0 1.3-.6 1.3-1.3z" class="st21"/><path d="m199.9 187.8-.2-.2-2.3 1.7.2.2z" class="st1"/><path d="m199.9 187.8-.2-.2-2.3 1.7.2.2z" class="st22"/><path d="m199.9 193.4-2.3-1.8-.2.3 2.3 1.7z" class="st1"/><path d="m199.9 193.4-2.3-1.8-.2.3 2.3 1.7z" class="st22"/><defs><path id="SVGID_33_" d="M5.6 20.9h218.8v398.9H5.6z"/></defs><clipPath id="SVGID_34_"><use xlink:href="#SVGID_33_" style="overflow:visible"/></clipPath><path d="M203.4 187.2c0-.8.6-1.4 1.4-1.4h1.9c.8 0 1.4.6 1.4 1.4v6.9c0 .8-.6 1.4-1.4 1.4h-1.9c-.8 0-1.4-.6-1.4-1.4v-6.9zm5 6.9v-6.9c0-1-.8-1.7-1.7-1.7h-1.9c-1 0-1.7.8-1.7 1.7v6.9c0 1 .8 1.7 1.7 1.7h1.9c.9 0 1.7-.8 1.7-1.7" class="st23"/><path d="M203.4 187.2c0-.8.6-1.4 1.4-1.4h1.9c.8 0 1.4.6 1.4 1.4v6.9c0 .8-.6 1.4-1.4 1.4h-1.9c-.8 0-1.4-.6-1.4-1.4v-6.9zm5 6.9v-6.9c0-1-.8-1.7-1.7-1.7h-1.9c-1 0-1.7.8-1.7 1.7v6.9c0 1 .8 1.7 1.7 1.7h1.9c.9 0 1.7-.8 1.7-1.7z" class="st24"/><path d="M205.2 190.6c0-.3.2-.5.5-.5s.5.2.5.5-.2.5-.5.5c-.3.1-.5-.2-.5-.5m1.4 0c0-.5-.4-.9-.9-.9s-.9.4-.9.9.4.9.9.9.9-.4.9-.9" class="st23"/><path d="M205.2 190.6c0-.3.2-.5.5-.5s.5.2.5.5-.2.5-.5.5c-.3.1-.5-.2-.5-.5zm1.4 0c0-.5-.4-.9-.9-.9s-.9.4-.9.9.4.9.9.9.9-.4.9-.9z" class="st24"/><path d="M27.8 182.6h15.9v-15.9H27.8v15.9zm-.3-16.2h16.6V183H27.5v-16.6z" class="st1"/><path d="M27.8 182.6h15.9v-15.9H27.8v15.9zm-.3-16.2h16.6V183H27.5v-16.6z" class="st22"/><defs><path id="SVGID_35_" d="M5.6 20.9h218.8v398.9H5.6z"/></defs><clipPath id="SVGID_36_"><use xlink:href="#SVGID_35_" style="overflow:visible"/></clipPath><path d="M42.3 169.1c0-.4-.3-.7-.7-.7h-8.3c-.4 0-.7.3-.7.7v11.1c0 .4.3.7.7.7h8.3c.4 0 .7-.3.7-.7v-11.1zm-10.1 11.1v-11.1c0-.6.5-1.1 1.1-1.1h8.3c.6 0 1.1.5 1.1 1.1v11.1c0 .6-.5 1.1-1.1 1.1h-8.3c-.7 0-1.1-.5-1.1-1.1" style="clip-path:url(#SVGID_36_);fill:#39373a"/><path d="M42.3 169.1c0-.4-.3-.7-.7-.7h-8.3c-.4 0-.7.3-.7.7v11.1c0 .4.3.7.7.7h8.3c.4 0 .7-.3.7-.7v-11.1zm-10.1 11.1v-11.1c0-.6.5-1.1 1.1-1.1h8.3c.6 0 1.1.5 1.1 1.1v11.1c0 .6-.5 1.1-1.1 1.1h-8.3c-.7 0-1.1-.5-1.1-1.1z" style="clip-path:url(#SVGID_36_);fill:none;stroke:#39373a;stroke-width:.244"/><path d="M33.7 179.7H41v-10.1h-7.3v10.1zm-.3-10.4h8v10.8h-8v-10.8z" class="st1"/><path d="M33.7 179.7H41v-10.1h-7.3v10.1zm-.3-10.4h8v10.8h-8v-10.8z" class="st22"/><defs><path id="SVGID_37_" d="M5.6 20.9h218.8v398.9H5.6z"/></defs><clipPath id="SVGID_38_"><use xlink:href="#SVGID_37_" style="overflow:visible"/></clipPath><path d="M38.8 174.7c0-.5-.4-.9-.9-.9s-.9.4-.9.9.4.9.9.9.9-.4.9-.9m-2.2 0c0-.7.6-1.3 1.3-1.3.7 0 1.3.6 1.3 1.3 0 .7-.6 1.3-1.3 1.3-.7 0-1.3-.6-1.3-1.3" style="clip-path:url(#SVGID_38_);fill:#39373a"/><path d="M38.8 174.7c0-.5-.4-.9-.9-.9s-.9.4-.9.9.4.9.9.9.9-.4.9-.9zm-2.2 0c0-.7.6-1.3 1.3-1.3.7 0 1.3.6 1.3 1.3 0 .7-.6 1.3-1.3 1.3-.7 0-1.3-.6-1.3-1.3z" style="clip-path:url(#SVGID_38_);fill:none;stroke:#39373a;stroke-width:.244"/><path d="M55.1 224.3h-1.8v-5.4h-1.9v5.4h-1.8v-6.6h5.5v6.6zm2.6-4.1c.3-.4 1.1-.8 1.8-.8 1.2 0 1.7.9 1.7 2.6 0 1.9-.6 2.5-1.8 2.5-.6 0-1.1-.1-1.5-.4v2h-1.7v-6.5h1.4l.1.6zm.2 2.9c.3.1.5.2.8.2.5 0 .7-.2.7-1.3s-.2-1.3-.6-1.3c-.4 0-.6.1-.9.3v2.1zm7.5 1.2v-2.1c0-.3 0-.5.1-.8-.1.3-.2.6-.4.8l-1.5 2.2h-1.5v-4.8h1.5v2.2c0 .2 0 .5-.1.7.1-.3.2-.5.4-.7l1.5-2.3H67v4.8h-1.6zm4.9-1.9-1 1.9h-1.8l1.4-2.4-1.3-2.3h1.7l.9 1.8.9-1.8H73l-1.3 2.3 1.4 2.4h-1.8l-1-1.9zm8.1-.4c0 1.8-.7 2.5-2.6 2.5-1.9 0-2.6-.7-2.6-2.5s.7-2.5 2.6-2.5c2-.1 2.6.6 2.6 2.5zm-3.3 0c0 1 .2 1.3.7 1.3.6 0 .7-.2.7-1.3s-.2-1.3-.7-1.3c-.5 0-.7.2-.7 1.3zm9.7-.1c1.1.2 1.2.2 1.9 2.5h-1.8c-.6-1.8-.6-1.9-1.1-1.9h-.4v1.9H82v-1.5c0-.1 0-.3.1-.4h-.4c-.4 0-.5.1-1.1 1.9h-1.8c.7-2.2.7-2.3 1.9-2.5-1.1-.1-1.1-.3-1.7-2.3h1.7c.5 1.6.6 1.7 1 1.7h.3c0-.2-.1-.4-.1-.6v-1.1h1.5v1.1c0 .2 0 .4-.1.6h.3c.5 0 .5-.2 1-1.7h1.7c-.4 1.9-.4 2.1-1.5 2.3zm2.5-2.2c.7-.1 1.9-.2 2.6-.2 1.3 0 2 .4 2 1.9v3h-1.4l-.2-.7c-.3.4-.9.8-1.7.8-.9 0-1.6-.5-1.6-1.4v-.5c0-.8.6-1.2 1.5-1.2h1.6v-.1c0-.4-.2-.5-.7-.5-.5 0-1.2 0-2 .1l-.1-1.2zm1.5 3.1c0 .2.2.4.5.4s.6-.1.9-.3v-.6h-1c-.3 0-.4.2-.4.4v.1zm5-.5c-.8-.2-1-.7-1-1.3 0-1.2.4-1.5 2.2-1.5 1.3 0 1.8 0 2.4.1v4.8h-1.7v-1.6h-.6c-.3 0-.4.1-.4.3l-.3 1.3h-1.8l.4-1.5c.1-.5.6-.6.8-.6zm1.9-1.6H95c-.5 0-.5.1-.5.4 0 .5.1.6.5.6h.7v-1zm-24.3 8.5c.5 0 .8.4.7.9l-2 5.7h-1.8l1.6-4.5c.1-.2.2-.5.3-.7h-2.9l-.1-1.4h4.2zm1.9 5c.5 0 .6.1.6.6v.4c0 .5-.1.6-.6.6h-.4c-.5 0-.6-.1-.6-.6v-.4c0-.5.1-.6.6-.6h.4zm1.4-4.9c.7-.1 1.5-.2 2.2-.2 1.6 0 2.2.4 2.2 1.5 0 1-.2 1.5-1.1 1.7.9.1 1.2.7 1.2 1.7 0 1.4-.6 2-2.4 2-.8 0-1.6-.1-2.4-.2l.1-1.3c.8 0 1.3.1 1.8.1.8 0 1.1-.1 1.1-.8 0-.6-.2-.8-.9-.8h-1.3v-1.2h1.3c.7 0 .8-.3.8-.7 0-.5-.2-.6-.9-.6h-1.8l.1-1.2zM153.8 50c-.7-.1-1-.8-1-1.5 0-1.2.4-1.8 2.4-1.8s2.4.5 2.4 1.8c0 .7-.3 1.4-1 1.5 1 .1 1.2.9 1.2 1.8 0 1.3-.5 1.8-2.6 1.8s-2.6-.5-2.6-1.8c0-.9.2-1.7 1.2-1.8zm.5 1.5c0 .7.2.8.9.8s.9-.2.9-.8c0-.7-.2-.9-.9-.9s-.9.2-.9.9zm.1-2.8c0 .6.2.7.8.7.7 0 .8-.1.8-.7 0-.7-.2-.8-.8-.8-.7 0-.8.2-.8.8zm5.2 3.1c.5 0 .6.1.6.6v.4c0 .5-.1.6-.6.6h-.4c-.5 0-.6-.1-.6-.6v-.4c0-.5.1-.6.6-.6h.4zm2.7-1.8c-.7-.1-1-.8-1-1.5 0-1.2.4-1.8 2.4-1.8s2.4.5 2.4 1.8c0 .7-.3 1.4-1 1.5.9.1 1.2.9 1.2 1.8 0 1.3-.5 1.8-2.6 1.8s-2.6-.5-2.6-1.8c0-.9.2-1.7 1.2-1.8zm.5 1.5c0 .7.2.8.9.8s.9-.2.9-.8c0-.7-.2-.9-.9-.9-.8 0-.9.2-.9.9zm.1-2.8c0 .6.2.7.8.7.7 0 .8-.1.8-.7 0-.7-.2-.8-.8-.8-.7 0-.8.2-.8.8zm9.3-2.1c-1.1.5-1.4 1.8-1.4 3.8 0 2 .4 3.4 1.4 3.8l-.2.7c-2-.6-2.9-2-2.9-4.6 0-2.6.9-4 2.9-4.6l.2.9z" class="st1"/><path d="m177.9 51.9-.8.2v1.4h-1.6v-1.4h-2.6c-.6 0-.9-.5-.7-1l1.7-4.2h1.7l-1.4 3.8c-.1.2 0 .3.2.3h1.3v-1.7l.3-1h1.4V51h.8v.9zm1.6-.1c.5 0 .6.1.6.6v.4c0 .5-.1.6-.6.6h-.4c-.5 0-.6-.1-.6-.6v-.4c0-.5.1-.6.6-.6h.4zm7 .1-.8.2v1.4h-1.6v-1.4h-2.6c-.6 0-.9-.5-.7-1l1.7-4.2h1.7l-1.4 3.8c-.1.2 0 .3.2.3h1.3v-1.7l.3-1h1.4V51h.8v.9z" class="st1"/><path d="M186.7 45.9c2 .6 2.9 2 2.9 4.6 0 2.6-.9 4-2.9 4.6l-.2-.7c1.1-.5 1.4-1.9 1.4-3.8 0-2-.4-3.4-1.4-3.8l.2-.9zm-72.9 168.6c1.4.2 1.4.7 2.3 3.4h-1.9c-.7-2.4-.8-2.8-1.7-2.8h-.3c0 .2.1.4.1.6v2.2h-1.8v-6.6h1.8v1.8c0 .3 0 .6-.1.8h.3c.9 0 1.1-.6 1.6-2.6h1.8c-.7 2.3-.7 2.9-2.1 3.2zm7.8 1c0 1.8-.7 2.5-2.6 2.5-1.9 0-2.6-.7-2.6-2.5s.7-2.5 2.6-2.5c1.9 0 2.6.7 2.6 2.5zm-3.3 0c0 1 .2 1.3.7 1.3.6 0 .7-.2.7-1.3s-.2-1.3-.7-1.3c-.6 0-.7.2-.7 1.3zm5.7-1.7c.3-.4 1.1-.8 1.8-.8 1.2 0 1.7.9 1.7 2.6 0 1.9-.6 2.5-1.8 2.5-.6 0-1.1-.1-1.5-.4v2h-1.7v-6.5h1.4l.1.6zm.2 2.8c.3.1.5.2.8.2.5 0 .7-.2.7-1.3s-.2-1.3-.6-1.3c-.4 0-.6.1-.9.3v2.1zm7.5 1.3v-2.1c0-.3 0-.5.1-.8-.1.3-.2.6-.4.8l-1.5 2.2h-1.5v-4.8h1.5v2.2c0 .2 0 .5-.1.7.1-.3.2-.5.4-.7l1.5-2.3h1.5v4.8h-1.5zm8.2 1.3h-1.2l-.1-1.3h-3.4l-.1 1.3h-1.2v-2.5h.6c.3-.8.5-1.6.6-2.4.1-.8.5-1.2 1.4-1.2h2.6v3.6h.8v2.5zm-2.5-5h-.4c-.2 0-.4.1-.4.4-.1.9-.3 1.6-.5 2.1h1.4v-2.5zm8.1 1.3c0 1.8-.7 2.5-2.6 2.5-1.9 0-2.6-.7-2.6-2.5s.7-2.5 2.6-2.5c1.9 0 2.6.7 2.6 2.5zm-3.3 0c0 1 .2 1.3.7 1.3.6 0 .7-.2.7-1.3s-.2-1.3-.7-1.3c-.6 0-.7.2-.7 1.3zm5.6-1.7c.3-.4 1.1-.8 1.8-.8 1.2 0 1.7.9 1.7 2.6 0 1.9-.6 2.5-1.8 2.5-.6 0-1.1-.1-1.5-.4v2h-1.7v-6.5h1.4l.1.6zm.2 2.8c.3.1.5.2.8.2.5 0 .7-.2.7-1.3s-.2-1.3-.6-1.3c-.4 0-.6.1-.9.3v2.1zm-23.5 6.2c.7-.1 1.5-.2 2.2-.2 1.6 0 2.2.4 2.2 1.5 0 1-.2 1.5-1.1 1.7.9.1 1.2.7 1.2 1.7 0 1.4-.6 2-2.4 2-.8 0-1.6-.1-2.4-.2l.1-1.3c.8 0 1.3.1 1.8.1.8 0 1.1-.1 1.1-.8 0-.6-.2-.8-.9-.8H125v-1.2h1.3c.7 0 .8-.3.8-.7 0-.5-.2-.6-.9-.6h-1.8l.1-1.2zm6.5 5c.5 0 .6.1.6.6v.4c0 .5-.1.6-.6.6h-.4c-.5 0-.6-.1-.6-.6v-.4c0-.5.1-.6.6-.6h.4zm1.4-5c.7-.1 1.5-.2 2.2-.2 1.6 0 2.2.4 2.2 1.5 0 1-.2 1.5-1.1 1.7.9.1 1.2.7 1.2 1.7 0 1.4-.6 2-2.4 2-.8 0-1.6-.1-2.4-.2l.1-1.3c.8 0 1.3.1 1.8.1.8 0 1.1-.1 1.1-.8 0-.6-.2-.8-.9-.8h-1.3v-1.2h1.3c.7 0 .8-.3.8-.7 0-.5-.2-.6-.9-.6h-1.8l.1-1.2zm29.4 128.6c1.3.2 1.4.7 2.2 3.4h-1.9c-.7-2.4-.8-2.8-1.5-2.8h-.3c0 .2.1.4.1.6v2.2h-1.7v-2.2c0-.2 0-.4.1-.6h-.3c-.6 0-.7.4-1.5 2.8h-1.9c.8-2.7.9-3.2 2.2-3.4v-.1c-1.3-.2-1.3-.8-2-3.1h1.8c.6 2 .7 2.6 1.3 2.6h.3c-.1-.3-.1-.6-.1-.8v-1.8h1.7v1.8c0 .3 0 .5-.1.8h.3c.6 0 .8-.6 1.4-2.6h1.8c-.5 2.4-.6 3-1.9 3.2zm6.2 3.5v-2.1c0-.3 0-.5.1-.8-.1.3-.2.6-.4.8l-1.5 2.2h-1.5v-4.8h1.5v2.2c0 .2 0 .5-.1.7.1-.3.2-.5.4-.7l1.5-2.3h1.5v4.8H168zm7.4 0h-1.7v-3.6h-.4c-.3 0-.4.1-.5.4-.1.7-.2 1.5-.3 2-.2 1.2-1.1 1.4-2.2 1.2l-.2-1.3c.4-.1.7-.1.8-.4.1-.3.2-1 .2-1.9.1-.8.5-1.2 1.3-1.2h2.9v4.8zm1.1-4.7c.7-.1 1.9-.2 2.6-.2 1.3 0 2 .4 2 1.9v3h-1.4l-.2-.7c-.3.4-.9.8-1.7.8-.9 0-1.6-.5-1.6-1.4v-.5c0-.8.6-1.2 1.5-1.2h1.6v-.1c0-.4-.2-.5-.7-.5-.5 0-1.2 0-2 .1l-.1-1.2zm1.4 3.2c0 .2.2.4.5.4s.6-.1.9-.3v-.6h-1c-.3 0-.4.2-.4.4v.1zm5.1-.6c-.8-.2-1-.7-1-1.3 0-1.2.4-1.5 2.2-1.5 1.3 0 1.8 0 2.4.1v4.8h-1.7v-1.6h-.6c-.3 0-.4.1-.4.3l-.3 1.3h-1.8l.4-1.5c0-.4.5-.5.8-.6zm1.9-1.6h-.7c-.5 0-.5.1-.5.4 0 .5.1.6.5.6h.7v-1zm-30.8 12.7c1.1.2 1.2.2 1.8 2.5h-1.8c-.5-1.8-.5-1.9-1-1.9h-.4c0 .1.1.3.1.4v1.5H151v-4.8h1.7v1.1c0 .2 0 .4-.1.6h.2c.7 0 .7-.1 1.1-1.7h1.8c-.5 2-.5 2.1-1.6 2.3zm7.4.1c0 1.8-.7 2.5-2.6 2.5-1.9 0-2.6-.7-2.6-2.5s.7-2.5 2.6-2.5c1.9 0 2.6.7 2.6 2.5zm-3.3 0c0 1 .2 1.3.7 1.3.6 0 .7-.2.7-1.3s-.2-1.3-.7-1.3c-.6 0-.7.3-.7 1.3zm10.1-2.4c.4 0 .6.2.6.6l.1 4.2h-1.6l-.1-3.5h-.1l-.6 2.3c-.1.4-.3.5-.7.5h-.8c-.4 0-.6-.2-.7-.5l-.6-2.3h-.1l-.1 3.5H162l.1-4.2c0-.4.2-.6.6-.6h1.5c.4 0 .6.2.6.5l.4 1.8c.1.2.1.5.1.7h.1c0-.2 0-.5.1-.7l.4-1.8c.1-.4.3-.5.7-.5h1.7zm6.6 4.8h-1.7v-1.9h-1.5v1.9H170v-4.8h1.7v1.7h1.5v-1.7h1.7v4.8zm1.1-4.7c.7-.1 1.9-.2 2.6-.2 1.3 0 2 .4 2 1.9v3h-1.4l-.2-.7c-.3.4-.9.8-1.7.8-.9 0-1.6-.5-1.6-1.4v-.5c0-.8.6-1.2 1.5-1.2h1.6v-.1c0-.4-.2-.5-.7-.5-.5 0-1.2 0-2 .1l-.1-1.2zm1.4 3.2c0 .2.2.4.5.4s.6-.1.9-.3v-.6h-1c-.3 0-.4.2-.4.4v.1zm7-2v3.5h-1.7v-3.5h-1.5v-1.3h4.8v1.3h-1.6zm2.2-1.2c.7-.1 1.9-.2 2.6-.2 1.3 0 2 .4 2 1.9v3h-1.4l-.2-.7c-.3.4-.9.8-1.7.8-.9 0-1.6-.5-1.6-1.4v-.5c0-.8.6-1.2 1.5-1.2h1.6v-.1c0-.4-.2-.5-.7-.5-.5 0-1.2 0-2 .1l-.1-1.2zm1.4 3.2c0 .2.2.4.5.4s.6-.1.9-.3v-.6h-1c-.3 0-.4.2-.4.4v.1zm-24.5 13v-4.4c0-.3 0-.5.1-.8l-1.5.3-.2-1.1 1.7-.7h1.8v6.6h-1.9zm3.2-1.2h1.8c.9 0 1.1-.3 1.2-1.5-.4.3-.8.4-1.4.4-1.5 0-1.9-.8-1.9-2.1 0-1.7.5-2.4 2.5-2.4 2.1 0 2.5.7 2.5 3.4 0 3-.8 3.5-2.9 3.5-.4 0-1.1 0-1.8-.2v-1.1zm2.1-2.3c.3 0 .5-.1.8-.2 0-1.5-.1-1.7-.8-1.7-.7 0-.8.3-.8 1.1 0 .6.2.8.8.8zm4.4 1.9c.5 0 .6.1.6.6v.4c0 .5-.1.6-.6.6h-.4c-.5 0-.6-.1-.6-.6v-.4c0-.5.1-.6.6-.6h.4zm6.8-1.7c0 2.6-.7 3.4-2.7 3.4s-2.7-.9-2.7-3.4c0-2.6.7-3.4 2.7-3.4 2-.1 2.7.8 2.7 3.4zm-3.6 0c0 1.8.2 2.1.9 2.1s.9-.3.9-2.1-.2-2.1-.9-2.1-.9.3-.9 2.1zm-15-257.7c1.3.2 1.4.7 2.2 3.4h-1.9c-.7-2.4-.8-2.8-1.5-2.8h-.3c0 .2.1.4.1.6v2.2h-1.7v-2.2c0-.2 0-.4.1-.6h-.4c-.6 0-.7.4-1.5 2.8h-1.9c.8-2.7.9-3.2 2.2-3.4v-.1c-1.3-.2-1.3-.8-2-3.1h1.8c.6 2 .7 2.6 1.3 2.6h.3c-.1-.3-.1-.6-.1-.8v-1.8h1.7v1.8c0 .3 0 .5-.1.8h.3c.6 0 .8-.6 1.4-2.6h1.8c-.5 2.3-.5 2.9-1.8 3.2zm6.2 3.4v-2.1c0-.3 0-.5.1-.8-.1.3-.2.6-.4.8l-1.5 2.2h-1.5v-4.8h1.5v2.2c0 .2 0 .5-.1.7.1-.3.2-.5.4-.7l1.5-2.3h1.5v4.8h-1.5zm7.4 0h-1.7v-3.6h-.4c-.3 0-.4.1-.5.4-.1.7-.2 1.5-.3 2-.2 1.2-1.1 1.4-2.2 1.2l-.2-1.3c.4-.1.7-.1.8-.4.1-.3.2-1 .2-1.9.1-.8.5-1.2 1.3-1.2h2.9v4.8zm1-4.7c.7-.1 1.9-.2 2.6-.2 1.3 0 2 .4 2 1.9v3h-1.4l-.2-.7c-.3.4-.9.8-1.7.8-.9 0-1.6-.5-1.6-1.4v-.5c0-.8.6-1.2 1.5-1.2h1.6v-.1c0-.4-.2-.5-.7-.5-.5 0-1.2 0-2 .1l-.1-1.2zm1.5 3.2c0 .2.2.4.5.4s.6-.1.9-.3v-.6h-1c-.3 0-.4.2-.4.4v.1zm5.1-.6c-.8-.2-1-.7-1-1.3 0-1.2.4-1.5 2.2-1.5 1.3 0 1.8 0 2.4.1v4.8h-1.7v-1.6h-.6c-.3 0-.4.1-.4.3l-.3 1.3h-1.8l.4-1.5c0-.4.5-.5.8-.6zm1.8-1.6h-.7c-.5 0-.5.1-.5.4 0 .5.1.6.5.6h.7v-1zm-30.7 12.7c1.1.2 1.2.2 1.8 2.5h-1.8c-.5-1.8-.5-1.9-1-1.9h-.4c0 .1.1.3.1.4v1.5h-1.7V127h1.7v1.1c0 .2 0 .4-.1.6h.2c.7 0 .7-.1 1.1-1.7h1.8c-.7 2-.6 2.1-1.7 2.3zm7.3.1c0 1.8-.7 2.5-2.6 2.5-1.9 0-2.6-.7-2.6-2.5s.7-2.5 2.6-2.5c1.9 0 2.6.7 2.6 2.5zm-3.3 0c0 1 .2 1.3.7 1.3.6 0 .7-.2.7-1.3s-.2-1.3-.7-1.3c-.5 0-.7.3-.7 1.3zm10.2-2.4c.4 0 .6.2.6.6l.1 4.2H167l-.1-3.5h-.1l-.6 2.3c-.1.4-.3.5-.7.5h-.8c-.4 0-.6-.2-.7-.5l-.6-2.3h-.1l-.1 3.5h-1.6l.1-4.2c0-.4.2-.6.6-.6h1.5c.4 0 .6.2.6.5l.4 1.8c.1.2.1.5.1.7h.1c0-.2 0-.5.1-.7l.4-1.8c.1-.4.3-.5.7-.5h1.7zm6.6 4.8h-1.7v-1.9h-1.5v1.9h-1.7V127h1.7v1.7h1.5V127h1.7v4.8zm1-4.7c.7-.1 1.9-.2 2.6-.2 1.3 0 2 .4 2 1.9v3h-1.4l-.2-.7c-.3.4-.9.8-1.7.8-.9 0-1.6-.5-1.6-1.4v-.5c0-.8.6-1.2 1.5-1.2h1.6v-.1c0-.4-.2-.5-.7-.5-.5 0-1.2 0-2 .1l-.1-1.2zm1.5 3.2c0 .2.2.4.5.4s.6-.1.9-.3v-.6h-1c-.3 0-.4.2-.4.4v.1zm7-2v3.5h-1.7v-3.5h-1.5V127h4.8v1.3H184zm2.1-1.2c.7-.1 1.9-.2 2.6-.2 1.3 0 2 .4 2 1.9v3h-1.4l-.2-.7c-.3.4-.9.8-1.7.8-.9 0-1.6-.5-1.6-1.4v-.5c0-.8.6-1.2 1.5-1.2h1.6v-.1c0-.4-.2-.5-.7-.5-.5 0-1.2 0-2 .1l-.1-1.2zm1.5 3.2c0 .2.2.4.5.4s.6-.1.9-.3v-.6h-1c-.3 0-.4.2-.4.4v.1zm-23.4 13v-4.4c0-.3 0-.5.1-.8l-1.5.3-.2-1.1 1.7-.7h1.8v6.6h-1.9zm3-6.5c1-.2 1.7-.2 2.4-.2 1.4 0 2.3.3 2.3 1.6 0 .7-.2 1.2-1 2.1l-1.6 1.6c.3-.1.6-.1.9-.1h1.9v1.6h-4.9v-.9c0-.3.1-.5.2-.7l1.5-1.5c.7-.8 1.2-1.4 1.2-1.7 0-.3-.2-.3-.7-.3h-2.1l-.1-1.5zm6.6 4.9c.5 0 .6.1.6.6v.4c0 .5-.1.6-.6.6h-.4c-.5 0-.6-.1-.6-.6v-.4c0-.5.1-.6.6-.6h.4zm2.4 1.6v-4.4c0-.3 0-.5.1-.8l-1.5.3-.2-1.1 1.7-.7h1.8v6.6h-1.9zm-2.1 50.2v-4.4c0-.3 0-.5.1-.8l-1.5.3-.2-1.1 1.7-.7h1.8v6.6h-1.9zm4-1.6c.5 0 .6.1.6.6v.4c0 .5-.1.6-.6.6h-.4c-.5 0-.6-.1-.6-.6v-.4c0-.5.1-.6.6-.6h.4zm6-3.8h-1.6c-.9 0-1.1.2-1.1 1.5.4-.3.8-.4 1.4-.4 1.5 0 1.9.6 1.9 2.1 0 1.7-.4 2.4-2.5 2.4-2 0-2.6-.7-2.6-3.4 0-3 1-3.5 2.9-3.5.3 0 1 0 1.7.2l-.1 1.1zm-1.2 3.1c0-.7-.1-.9-.8-.9-.3 0-.5.1-.8.2 0 1.5.1 1.7.9 1.7.7.1.7-.2.7-1zm-10.2 31.9c.7-.1 1.5-.2 2.2-.2 1.6 0 2.2.4 2.2 1.5 0 1-.2 1.5-1.1 1.7.9.1 1.2.7 1.2 1.7 0 1.4-.6 2-2.4 2-.8 0-1.6-.1-2.4-.2l.1-1.3c.8 0 1.3.1 1.8.1.8 0 1.1-.1 1.1-.8 0-.6-.2-.8-.9-.8h-1.3v-1.2h1.3c.7 0 .8-.3.8-.7 0-.5-.2-.6-.9-.6h-1.8l.1-1.2zm6.5 4.9c.5 0 .6.1.6.6v.4c0 .5-.1.6-.6.6h-.4c-.5 0-.6-.1-.6-.6v-.4c0-.5.1-.6.6-.6h.4zm5-5c.5 0 .8.4.7.9l-2 5.7h-1.8l1.6-4.5c.1-.2.2-.5.3-.7h-2.9l-.1-1.4h4.2zM62.3 122.6c1.4.2 1.4.7 2.3 3.4h-1.9c-.7-2.4-.8-2.8-1.7-2.8h-.3c0 .2.1.4.1.6v2.2H59v-6.6h1.8v1.8c0 .3 0 .6-.1.8h.3c.9 0 1.1-.6 1.6-2.6h1.8c-.7 2.4-.8 3-2.1 3.2z" class="st1"/><path d="M68.5 126c-.3 1.1-.9 1.6-1.6 1.9-.6.2-1.3.2-2 .1l.1-1.1c.6 0 1 0 1.3-.2.2-.1.4-.3.5-.6h-.3c-.3 0-.5-.2-.6-.4l-1.5-4.4h1.9l.7 2.8c0 .3.1.5.1.8h.1c.1-.3.2-.6.2-.8l.7-2.8H70l-1.5 4.7zm4.5-1.9-1 1.9h-1.8l1.4-2.4-1.3-2.3H72l.9 1.8.9-1.8h1.7l-1.3 2.3 1.4 2.4H74l-1-1.9zm8.2 1.9h-1.7v-1.9H78v1.9h-1.7v-4.8H78v1.7h1.5v-1.7h1.7v4.8zm2-2c-.8-.2-1-.7-1-1.3 0-1.2.4-1.5 2.2-1.5 1.3 0 1.8 0 2.4.1v4.8h-1.7v-1.6h-.6c-.3 0-.4.1-.4.3l-.3 1.3H82l.4-1.5c0-.5.5-.6.8-.6zm1.9-1.6h-.7c-.5 0-.5.1-.5.4 0 .5.1.6.5.6h.7v-1zm-19.7 15.2v-4.4c0-.3 0-.5.1-.8l-1.5.3-.2-1.1 1.7-.7h1.8v6.6h-1.9zm3-6.6c.7-.1 1.5-.2 2.2-.2 1.6 0 2.2.4 2.2 1.5 0 1-.2 1.5-1.1 1.7.9.1 1.2.7 1.2 1.7 0 1.4-.6 2-2.4 2-.8 0-1.6-.1-2.4-.2l.1-1.3c.8 0 1.3.1 1.8.1.8 0 1.1-.1 1.1-.8 0-.6-.2-.8-.9-.8h-1.3v-1.2h1.3c.7 0 .8-.3.8-.7 0-.5-.2-.6-.9-.6h-1.8l.1-1.2zm6.5 4.9c.5 0 .6.1.6.6v.4c0 .5-.1.6-.6.6h-.4c-.5 0-.6-.1-.6-.6v-.4c0-.5.1-.6.6-.6h.4zm2.6-1.8c-.7-.1-1-.8-1-1.5 0-1.2.4-1.8 2.4-1.8s2.4.5 2.4 1.8c0 .7-.3 1.4-1 1.5 1 .1 1.2.9 1.2 1.8 0 1.3-.5 1.8-2.6 1.8s-2.6-.5-2.6-1.8c0-.9.2-1.7 1.2-1.8zm.5 1.5c0 .7.2.8.9.8s.9-.2.9-.8c0-.7-.2-.9-.9-.9s-.9.2-.9.9zm.1-2.8c0 .6.2.7.8.7.7 0 .8-.1.8-.7 0-.7-.2-.8-.8-.8-.7 0-.8.2-.8.8zm81.6 193.9h-3.9c-2.1 0-2.6.5-2.8 3.5.9-.7 1.9-.9 3.3-.9 3.6 0 4.7 1.4 4.7 5 0 4-1.1 5.9-6 5.9-4.8 0-6.2-1.6-6.2-8.1 0-7.3 2.3-8.5 7-8.5.8 0 2.5 0 4.1.5l-.2 2.6zm-2.8 7.7c0-1.7-.3-2.1-1.9-2.1-.8 0-1.3.2-2 .6 0 3.6.2 4.1 2.1 4.1 1.7 0 1.8-.7 1.8-2.6zm9.8-7.3-.2 2.2 2.7.3c3.7.4 4.7 2.7 4.7 5.3 0 2.9-1.3 5.2-5.8 5.2-1.6 0-3.6-.2-5.7-.5l.4-3.3c1.5.1 3 .2 4.2.2 2.1 0 2.6-.5 2.7-1.8.1-1.5-.7-1.8-2.9-2l-2.5-.3c-.8-.1-1.3-.7-1.3-1.4l.4-7.2h10l-.2 3.2h-6.5zm11.5 8.8c1.1 0 1.5.3 1.5 1.5v1c0 1.1-.3 1.5-1.5 1.5h-1c-1.1 0-1.5-.3-1.5-1.5v-1c0-1.1.3-1.5 1.5-1.5h1zm3.4-11.8c2.3-.5 4-.5 5.7-.5 3.4 0 5.7.7 5.7 3.9 0 1.7-.4 2.8-2.5 5l-3.9 3.9c.7-.2 1.5-.2 2.3-.2h4.6v3.8h-11.9v-2.3c0-.7.1-1.2.6-1.7l3.6-3.7c1.8-1.8 2.9-3.3 2.9-4.2 0-.7-.5-.7-1.8-.7-1.6 0-2.8 0-5 .1l-.3-3.4z" class="st1"/><defs><path id="SVGID_39_" d="M5.6 20.9h218.8v398.9H5.6z"/></defs><clipPath id="SVGID_40_"><use xlink:href="#SVGID_39_" style="overflow:visible"/></clipPath><path d="M171.1 320c7.9 0 14.2-6.4 14.2-14.2 0-7.9-6.4-14.2-14.2-14.2-7.9 0-14.2 6.4-14.2 14.2-.1 7.9 6.3 14.2 14.2 14.2z" style="clip-path:url(#SVGID_40_);fill:none;stroke:#39373a;stroke-width:.976"/><path d="M160.8 300c1.8-.4 3-.4 4.3-.4 2.6 0 4.3.6 4.3 2.9 0 1.3-.3 2.1-1.9 3.8l-3 2.9c.6-.1 1.1-.2 1.7-.2h3.5v2.8h-9v-1.7c0-.5.1-.9.5-1.3l2.7-2.8c1.4-1.4 2.2-2.5 2.2-3.2 0-.5-.4-.6-1.3-.6-1.2 0-2.1 0-3.8.1l-.2-2.3zm16.9 5.7c2.5.4 2.7 1.3 4.1 6.3h-3.4c-1.2-4.4-1.4-5.2-3.1-5.2h-.6c.1.4.1.8.1 1.1v4.1h-3.3v-12.1h3.3v3.2c0 .5-.1 1-.1 1.5h.6c1.7 0 1.9-1.1 2.9-4.7h3.4c-1.3 4.3-1.4 5.4-3.8 5.7v.1z" class="st1"/><path d="M176.6 236.3h18v18h-18z" class="st10"/><defs><path id="SVGID_41_" d="M5.6 20.9h218.8v398.9H5.6z"/></defs><clipPath id="SVGID_42_"><use xlink:href="#SVGID_41_" style="overflow:visible"/></clipPath><path d="M210.3 251.7c3.1 0 5.5-2.5 5.5-5.5v-33.1c0-3.1-2.5-5.5-5.5-5.5h-7.4c-3.1 0-5.5 2.5-5.5 5.5v33.1c0 3.1 2.5 5.5 5.5 5.5h7.4z" class="st30"/><path d="M208.6 248.7c3.1 0 5.5-2.5 5.5-5.5v-26.9c0-3.1-2.5-5.5-5.5-5.5h-4c-3.1 0-5.5 2.5-5.5 5.5v26.9c0 3.1 2.5 5.5 5.5 5.5h4z" class="st30"/><path d="M209.7 244.9c1.5 0 2.8-1.2 2.8-2.8V215c0-1.5-1.2-2.8-2.8-2.8h-6.2c-1.5 0-2.8 1.2-2.8 2.8v27.1c0 1.5 1.2 2.8 2.8 2.8h6.2z" class="st30"/><path d="M206.6 215.6c-.5 0-.8.4-.8.8 0 .5.4.8.8.8.5 0 .8-.4.8-.8s-.3-.8-.8-.8z" class="st30"/><path d="M196.3 254.6v-48.9" class="st10"/><defs><path id="SVGID_43_" d="M5.6 20.9h218.8v398.9H5.6z"/></defs><clipPath id="SVGID_44_"><use xlink:href="#SVGID_43_" style="overflow:visible"/></clipPath><path d="M187.1 217.8c2.9 0 5.3-2.4 5.3-5.3v-5.6c0-.4-.4-.8-.8-.8h-12c-.4 0-.8.4-.8.8v5.6c0 2.9 2.4 5.3 5.3 5.3h3zm-7.5-12h12c.6 0 1.1.5 1.1 1.1v5.6c0 3.1-2.5 5.6-5.6 5.6h-3c-3.1 0-5.6-2.5-5.6-5.6v-5.6c0-.6.5-1.1 1.1-1.1" class="st31"/><path d="M187.1 217.8c2.9 0 5.3-2.4 5.3-5.3v-5.6c0-.4-.4-.8-.8-.8h-12c-.4 0-.8.4-.8.8v5.6c0 2.9 2.4 5.3 5.3 5.3h3zm-7.5-12h12c.6 0 1.1.5 1.1 1.1v5.6c0 3.1-2.5 5.6-5.6 5.6h-3c-3.1 0-5.6-2.5-5.6-5.6v-5.6c0-.6.5-1.1 1.1-1.1z" class="st32"/><path d="M187.1 216.5c2.2 0 4-1.8 4-4v-3.3c0-.4-.3-.7-.7-.7h-9.5c-.4 0-.7.3-.7.7v3.3c0 2.2 1.8 4 4 4h2.9zm-6.3-8.2h9.5c.5 0 1 .4 1 1v3.3c0 2.4-1.9 4.3-4.3 4.3h-3c-2.4 0-4.3-1.9-4.3-4.3v-3.3c.1-.6.6-1 1.1-1" class="st31"/><path d="M187.1 216.5c2.2 0 4-1.8 4-4v-3.3c0-.4-.3-.7-.7-.7h-9.5c-.4 0-.7.3-.7.7v3.3c0 2.2 1.8 4 4 4h2.9zm-6.3-8.2h9.5c.5 0 1 .4 1 1v3.3c0 2.4-1.9 4.3-4.3 4.3h-3c-2.4 0-4.3-1.9-4.3-4.3v-3.3c.1-.6.6-1 1.1-1z" class="st32"/><path d="M185.6 213.7c.4 0 .7-.3.7-.7s-.3-.7-.7-.7c-.4 0-.7.3-.7.7s.3.7.7.7m0-1.6c.5 0 1 .4 1 1 0 .5-.4 1-1 1-.5 0-1-.4-1-1 0-.5.5-1 1-1" class="st31"/><path d="M185.6 213.7c.4 0 .7-.3.7-.7s-.3-.7-.7-.7c-.4 0-.7.3-.7.7s.3.7.7.7zm0-1.6c.5 0 1 .4 1 1 0 .5-.4 1-1 1-.5 0-1-.4-1-1 0-.5.5-1 1-1z" class="st32"/><path d="M38.2 183.4H62v7.5H38.2z" class="st33"/><path d="M38.2 183.4H62v1.2H38.2zm1.4 1.3.6 4.9h14l.8-4.9m.8 0 .8 4.9h3l.7-4.9m148.9-6.6h7.5v24.5h-7.5z" class="st33"/><path d="M209.2 178.1h1.2v24.5h-1.2zm1.3 23.1 4.8-.7v-14.4l-4.8-.8m-.1-.8 4.9-.8v-3.1l-4.9-.7" class="st33"/></g></switch></svg>