<?xml version="1.0" encoding="utf-8"?>
<!-- Generator: Adobe Illustrator 26.5.0, SVG Export Plug-In . SVG Version: 6.00 Build 0)  -->
<svg version="1.1" id="Слой_1" xmlns="http://www.w3.org/2000/svg" xmlns:xlink="http://www.w3.org/1999/xlink" x="0px" y="0px"
	 viewBox="0 0 1000 1000" style="enable-background:new 0 0 1000 1000;" xml:space="preserve">
<style type="text/css">
	.st0{fill:#FFF5A4;}
	.st1{fill:#FFFFFF;}
	.st2{fill:none;stroke:#373437;stroke-miterlimit:10;}
	.st3{fill:#373437;}
	.st4{fill:none;stroke:#373437;}
</style>
<rect x="274" y="204.3" class="st0" width="454.3" height="353.9"/>
<rect x="521.2" y="385.3" class="st0" width="207.1" height="517.3"/>
<rect x="545.4" y="924.7" class="st1" width="120.8" height="15.9"/>
<rect x="545.4" y="924.7" class="st2" width="120.8" height="15.9"/>
<rect x="545.4" y="903.4" class="st1" width="120.8" height="15.1"/>
<rect x="545.4" y="903.4" class="st2" width="120.8" height="15.1"/>
<rect x="550.4" y="918.7" class="st1" width="5" height="5.8"/>
<rect x="550.4" y="918.7" class="st2" width="5" height="5.8"/>
<rect x="649.6" y="918.7" class="st1" width="5" height="5.8"/>
<rect x="649.6" y="918.7" class="st2" width="5" height="5.8"/>
<rect x="514.9" y="918.7" class="st1" width="1.7" height="5.8"/>
<rect x="514.9" y="918.7" class="st2" width="1.7" height="5.8"/>
<rect x="600.3" y="175.3" class="st2" width="85.5" height="17.3"/>
<rect x="604.5" y="192.5" class="st2" width="88.8" height="11.2"/>
<rect x="600.3" y="188.8" class="st2" width="4.2" height="3.8"/>
<rect x="604.5" y="188.8" class="st2" width="4.2" height="3.8"/>
<rect x="550.1" y="188.8" class="st2" width="4.2" height="3.8"/>
<rect x="600.3" y="188.8" class="st2" width="56.2" height="3.8"/>
<rect x="648.8" y="188.8" class="st2" width="4.2" height="3.8"/>
<path class="st2" d="M554.2,192.4l39.8,22.7c0,0,3.2-5,4.9-12.5c1.7-7.5,1.4-13.5,1.4-13.5"/>
<path class="st2" d="M536,468.3l43.8-25c0,0,3.5,5.5,5.4,13.7c1.9,8.3,1.5,14.8,1.5,14.8"/>
<path class="st2" d="M500,468.3l-43.8-25c0,0-3.5,5.5-5.4,13.7c-1.9,8.3-1.5,14.8-1.5,14.8"/>
<path class="st2" d="M599.8,482.7l-19.9,34.9c0,0,4.3,2.8,10.9,4.3c6.6,1.5,11.8,1.2,11.8,1.2"/>
<path class="st2" d="M599.8,633.6l-19.9-34.9c0,0,4.3-2.8,10.9-4.3c6.6-1.5,11.8-1.2,11.8-1.2"/>
<path class="st2" d="M537.6,648.1l43.1,24.7c0,0,3.4-5.4,5.3-13.5c1.9-8.1,1.5-14.6,1.5-14.6"/>
<path class="st2" d="M260.6,550.8l-30.7-53.5c0,0,6.7-4.3,16.9-6.6c10.2-2.3,18.2-1.9,18.2-1.9"/>
<rect x="376.9" y="175.3" class="st2" width="85.5" height="17.3"/>
<rect x="381.1" y="192.5" class="st2" width="88.8" height="11.2"/>
<rect x="376.9" y="188.8" class="st2" width="4.2" height="3.8"/>
<rect x="381.1" y="188.8" class="st2" width="4.2" height="3.8"/>
<rect x="326.8" y="188.8" class="st2" width="4.2" height="3.8"/>
<rect x="376.9" y="188.8" class="st2" width="80" height="3.8"/>
<rect x="443.6" y="188.8" class="st2" width="4.2" height="3.8"/>
<path class="st2" d="M330.8,192.4l39.8,22.7c0,0,3.2-5,4.9-12.5c1.7-7.5,1.4-13.5,1.4-13.5"/>
<rect x="685.3" y="575.9" class="st3" width="25.1" height="59.3"/>
<rect x="685.3" y="575.9" class="st2" width="25.1" height="59.3"/>
<rect x="721.9" y="175.6" class="st3" width="32.1" height="764.7"/>
<rect x="721.9" y="175.6" class="st2" width="32.1" height="764.7"/>
<rect x="655.4" y="903.4" class="st3" width="81.8" height="37"/>
<rect x="655.4" y="903.4" class="st2" width="81.8" height="37"/>
<rect x="516.9" y="903.4" class="st3" width="25.7" height="37"/>
<rect x="516.9" y="903.4" class="st2" width="25.7" height="37"/>
<rect x="527.5" y="903.4" class="st3" width="25.7" height="37"/>
<rect x="527.5" y="903.4" class="st2" width="25.7" height="37"/>
<rect x="258.2" y="549.9" class="st3" width="15.4" height="15.4"/>
<rect x="258.2" y="549.9" class="st2" width="15.4" height="15.4"/>
<rect x="297.7" y="412.1" class="st3" width="72.9" height="31.3"/>
<rect x="297.7" y="412.1" class="st2" width="72.9" height="31.3"/>
<rect x="267.7" y="435.7" class="st3" width="161.3" height="7.7"/>
<rect x="267.7" y="435.7" class="st2" width="161.3" height="7.7"/>
<rect x="258.2" y="90.4" class="st3" width="15.4" height="398.3"/>
<rect x="258.2" y="367.9" class="st2" width="15.4" height="120.8"/>
<rect x="261.7" y="90.4" class="st3" width="11.9" height="371.2"/>
<rect x="258" y="558.4" class="st3" width="268.8" height="15.4"/>
<rect x="261.3" y="558.4" class="st2" width="265.5" height="15.4"/>
<rect x="649.7" y="926" class="st3" width="82.9" height="14.4"/>
<rect x="649.7" y="926" class="st2" width="82.9" height="14.4"/>
<rect x="514.9" y="924.5" class="st3" width="27.6" height="15.9"/>
<rect x="514.9" y="924.5" class="st2" width="27.6" height="15.9"/>
<rect x="527.5" y="926" class="st3" width="27.8" height="14.4"/>
<rect x="527.5" y="926" class="st2" width="27.8" height="14.4"/>
<rect x="305.2" y="419.3" class="st1" width="8.6" height="16.7"/>
<rect x="305.2" y="419.3" class="st2" width="8.6" height="16.7"/>
<rect x="323.1" y="419.3" class="st1" width="39.2" height="16.7"/>
<rect x="323.1" y="419.3" class="st2" width="39.2" height="16.7"/>
<rect x="421.1" y="441.4" class="st3" width="7.9" height="33.8"/>
<rect x="421.1" y="441.4" class="st2" width="7.9" height="33.8"/>
<rect x="421.1" y="467.3" class="st3" width="28.4" height="7.9"/>
<rect x="421.1" y="467.3" class="st2" width="28.4" height="7.9"/>
<rect x="497.5" y="467.3" class="st3" width="39.7" height="7.9"/>
<rect x="497.5" y="467.3" class="st2" width="39.7" height="7.9"/>
<rect x="586.6" y="467.3" class="st3" width="18.6" height="7.9"/>
<rect x="586.6" y="467.3" class="st2" width="18.6" height="7.9"/>
<rect x="601.9" y="568.6" class="st3" width="120.8" height="7.9"/>
<rect x="601.9" y="568.6" class="st2" width="120.8" height="7.9"/>
<rect x="587.6" y="642.5" class="st3" width="135.1" height="7.9"/>
<rect x="587.6" y="642.5" class="st2" width="135.1" height="7.9"/>
<rect x="511.3" y="642.5" class="st3" width="27.6" height="7.9"/>
<rect x="511.3" y="642.5" class="st2" width="27.6" height="7.9"/>
<rect x="511.3" y="568.6" class="st3" width="15.4" height="372"/>
<rect x="511.3" y="568.6" class="st2" width="15.4" height="341.7"/>
<rect x="653.6" y="634.8" class="st3" width="69.1" height="11"/>
<rect x="653.6" y="634.8" class="st2" width="69.1" height="11"/>
<rect x="603.2" y="443.9" class="st3" width="72.9" height="7.9"/>
<rect x="603.2" y="443.9" class="st2" width="72.9" height="7.9"/>
<rect x="654.2" y="443.9" class="st3" width="72.9" height="15.7"/>
<rect x="654.2" y="443.9" class="st2" width="72.9" height="15.7"/>
<rect x="597.2" y="443.9" class="st3" width="7.9" height="42.4"/>
<rect x="597.2" y="443.9" class="st2" width="7.9" height="42.4"/>
<rect x="597.2" y="522.8" class="st3" width="7.9" height="70.9"/>
<rect x="597.2" y="522.8" class="st2" width="7.9" height="70.9"/>
<rect x="597.2" y="631" class="st3" width="7.9" height="16.7"/>
<rect x="597.2" y="631" class="st2" width="7.9" height="16.7"/>
<rect x="267.4" y="175.3" class="st3" width="63.4" height="12.5"/>
<rect x="267.4" y="175.3" class="st2" width="63.4" height="12.5"/>
<rect x="449.3" y="175.3" class="st3" width="105" height="12.3"/>
<rect x="449.3" y="175.3" class="st2" width="105" height="12.3"/>
<rect x="650.4" y="175.3" class="st3" width="103.6" height="12.3"/>
<rect x="650.4" y="175.3" class="st2" width="103.6" height="12.3"/>
<rect x="747.1" y="90.3" class="st3" width="6.9" height="90.2"/>
<rect x="747.1" y="90.3" class="st2" width="6.9" height="90.2"/>
<rect x="708.9" y="90.3" class="st3" width="42.4" height="7.7"/>
<rect x="708.9" y="90.3" class="st2" width="42.4" height="7.7"/>
<rect x="282.4" y="90.3" class="st3" width="58.5" height="7.7"/>
<rect x="258" y="90.3" class="st2" width="82.9" height="7.7"/>
<rect x="317" y="90.3" class="st2" width="403.4" height="7.7"/>
<rect x="263.9" y="182.9" class="st3" width="62.2" height="20.8"/>
<rect x="263.9" y="182.9" class="st2" width="62.2" height="20.8"/>
<rect x="452" y="182.8" class="st3" width="97.9" height="20.8"/>
<rect x="452" y="182.8" class="st2" width="97.9" height="20.8"/>
<rect x="654.5" y="182.9" class="st3" width="99.5" height="20.8"/>
<rect x="654.5" y="182.9" class="st2" width="99.5" height="20.8"/>
<rect x="511.3" y="199.1" class="st3" width="15.4" height="78.9"/>
<rect x="511.3" y="199.1" class="st2" width="15.4" height="78.9"/>
<rect x="511.3" y="405.7" class="st3" width="15.4" height="64.8"/>
<rect x="511.3" y="405.7" class="st2" width="15.4" height="64.8"/>
<rect x="511.3" y="226.9" class="st3" width="7.7" height="186.9"/>
<rect x="511.3" y="226.9" class="st2" width="7.7" height="186.9"/>
<rect x="265.3" y="90.4" class="st3" width="20" height="113.3"/>
<rect x="692.1" y="583.6" class="st1" width="9.6" height="9.6"/>
<rect x="692.1" y="583.6" class="st2" width="9.6" height="9.6"/>
<rect x="711.8" y="578" class="st1" width="9.6" height="47"/>
<rect x="711.8" y="578" class="st2" width="9.6" height="47"/>
<rect x="692.1" y="600.2" class="st1" width="9.6" height="9.6"/>
<rect x="692.1" y="600.2" class="st2" width="9.6" height="9.6"/>
<rect x="692.1" y="616.8" class="st1" width="9.6" height="9.6"/>
<rect x="692.1" y="616.8" class="st2" width="9.6" height="9.6"/>
<line class="st2" x1="272.9" y1="412.1" x2="301.1" y2="412.1"/>
<rect x="606.6" y="530.2" class="st2" width="32.1" height="36.9"/>
<line class="st2" x1="606.4" y1="530.1" x2="638.9" y2="567.2"/>
<line class="st2" x1="638.9" y1="530.1" x2="606.4" y2="567.2"/>
<path class="st2" d="M674.6,616.3c1.8,0,3.3-1.5,3.3-3.3v-16c0-1.8-1.5-3.3-3.3-3.3h-3.9c-1.8,0-3.3,1.5-3.3,3.3v16
	c0,1.8,1.5,3.3,3.3,3.3H674.6z"/>
<path class="st2" d="M635.8,605c0,6.3,5.1,11.3,11.5,11.3h16.9c1.6,0,2.9-1.3,2.9-2.9v-16.9c0-1.6-1.3-2.9-2.9-2.9h-16.9
	C641,593.6,635.8,598.7,635.8,605z"/>
<path class="st2" d="M639.8,604.8c0,4.5,3.7,8.2,8.3,8.2h12.2c0,0,0,0,0,0v-16.4c0,0,0,0,0,0h-12.2
	C643.6,596.6,639.8,600.3,639.8,604.8z"/>
<path class="st2" d="M672.7,603.8c-0.7,0-1.3,0.6-1.3,1.2c0,0.7,0.6,1.2,1.3,1.2c0.7,0,1.3-0.6,1.3-1.2
	C674,604.3,673.4,603.8,672.7,603.8z"/>
<path class="st2" d="M650.1,602.6c-1.2,0-2.3,1-2.3,2.2s1,2.2,2.3,2.2c1.2,0,2.3-1,2.3-2.2S651.4,602.6,650.1,602.6z"/>
<line class="st2" x1="658.8" y1="611.4" x2="653.3" y2="607.7"/>
<line class="st2" x1="658.8" y1="598.3" x2="653.3" y2="602"/>
<path class="st4" d="M705.1,464.1c8,0,14.5,6.5,14.5,14.5v71.6c0,8-6.5,14.5-14.5,14.5H692c-8,0-14.5-6.5-14.5-14.5v-71.6
	c0-8,6.5-14.5,14.5-14.5H705.1z"/>
<path class="st4" d="M701.2,471.1c8,0,14.5,6.5,14.5,14.5v57.6c0,8-6.5,14.5-14.5,14.5h-5.3c-8,0-14.5-6.5-14.5-14.5v-57.6
	c0-8,6.5-14.5,14.5-14.5H701.2z"/>
<path class="st4" d="M704.6,479.6c4,0,7.2,3.2,7.2,7.2v59.7c0,4-3.2,7.2-7.2,7.2h-12.1c-4,0-7.2-3.2-7.2-7.2v-59.7
	c0-4,3.2-7.2,7.2-7.2H704.6z"/>
<path class="st4" d="M698.5,546.2c-1,0-1.8-0.8-1.8-1.8c0-1,0.8-1.8,1.8-1.8c1,0,1.8,0.8,1.8,1.8
	C700.3,545.4,699.5,546.2,698.5,546.2z"/>
<line class="st2" x1="675" y1="459.2" x2="675" y2="569.5"/>
<path class="st2" d="M642.2,565c0,1.1,0.9,2.1,2.1,2.1h10.6h4h10.6c1.1,0,2.1-0.9,2.1-2.1c0,0,0-13-0.1-13.3
	c-1.2-5.8-6.4-10.1-12.5-10.1h-4c-6.1,0-11.4,4.3-12.6,10.1C642.2,552.1,642.2,565,642.2,565z"/>
<path class="st2" d="M645.2,561.1c0,0.9,0.7,1.7,1.6,1.7h8.5h3.2h8.5c0.9,0,1.6-0.7,1.6-1.7c0,0,0-8.6-0.1-8.8
	c-0.9-4.6-5.1-8.1-10-8.1h-3.2c-4.9,0-9.1,3.4-10,8.1C645.1,552.5,645.2,561.1,645.2,561.1z"/>
<path class="st2" d="M656.9,551.3c-0.6,0-1,0.5-1,1.1c0,0.6,0.5,1.1,1,1.1c0.6,0,1-0.5,1-1.1C657.9,551.8,657.5,551.3,656.9,551.3z"
	/>
<rect x="275.1" y="349.3" class="st2" width="35.7" height="35.6"/>
<path class="st2" d="M299.4,367.1c0-1-0.8-1.9-1.9-1.9c-1,0-1.9,0.8-1.9,1.9c0,1,0.8,1.9,1.9,1.9C298.6,369,299.4,368.2,299.4,367.1
	z"/>
<path class="st2" d="M285.5,378.6c0,1.4,1.1,2.5,2.5,2.5h16.6c1.4,0,2.5-1.1,2.5-2.5v-23c0-1.4-1.1-2.5-2.5-2.5H288
	c-1.4,0-2.5,1.1-2.5,2.5V378.6z"/>
<path class="st2" d="M288.3,376c0,1.4,1.1,2.5,2.5,2.5h11.5c1.4,0,2.5-1.1,2.5-2.5v-17.7c0-1.4-1.1-2.5-2.5-2.5h-11.5
	c-1.4,0-2.5,1.1-2.5,2.5V376z"/>
<path class="st3" d="M618.1,620.3c0.8,0,1.9,0,3.1,0c1.1,0,1.4,0.1,1.4,1c0,0.8-0.1,1.2-1.3,1.2h-2.1v1.9l2.1,0
	c1.2,0,1.4,0.4,1.4,1.3c0,1.1-0.4,1.3-1.8,1.3c-1,0-1.7,0-3.1-0.1l-0.1,2.2c1.3,0.2,2.7,0.3,4,0.3c2.9,0,4-1,4-3.3
	c0-1.7-0.5-2.5-2.1-2.8v-0.1c1.4-0.2,1.8-1.2,1.8-2.8c0-2-1-2.6-3.7-2.6c-1.2,0-2.5,0.1-3.7,0.3L618.1,620.3z M614.9,626.5
	c-0.8,0-1,0.2-1,1v0.7c0,0.8,0.2,1,1,1h0.7c0.8,0,1-0.2,1-1v-0.7c0-0.8-0.2-1-1-1H614.9z M611.9,629.2v-11.1h-3l-2.8,1.1l0.4,1.9
	l2.6-0.6c-0.1,0.4-0.1,0.9-0.1,1.3v7.3H611.9z"/>
<path class="st3" d="M630.1,602H627l-1.2,4.8c-0.1,0.4-0.2,0.9-0.3,1.4h-0.2c-0.1-0.5-0.1-0.9-0.2-1.4l-1.2-4.8h-3.1l2.5,7.3
	c0.1,0.4,0.5,0.7,0.9,0.7h0.5c-0.2,0.4-0.5,0.8-0.8,0.9c-0.5,0.3-1.2,0.4-2.2,0.3l-0.2,1.9c1.1,0.2,2.3,0.2,3.3-0.2
	c1.2-0.4,2.2-1.2,2.7-3.1L630.1,602z M614.4,611.2l6.3-12.3h-2.3l-6.3,12.3H614.4z M611.2,607.4c-1,0.1-1.9,0.1-3.5,0.1
	c-1.3,0-1.7-0.7-1.7-3.2c0-2.5,0.4-3.2,1.7-3.2c1.5,0,2.2,0,3.3,0l0.2-2.2c-1.1-0.3-1.8-0.4-3.5-0.4c-3.5,0-4.9,1.5-4.9,5.7
	c0,4.2,1.3,5.7,4.9,5.7c1.7,0,2.7-0.1,3.7-0.5L611.2,607.4z"/>
<path class="st3" d="M641.6,511.1c0.8,0,1.9,0,3.1,0c1.1,0,1.4,0.1,1.4,1c0,0.8-0.1,1.2-1.3,1.2h-2.1v1.9l2.1,0
	c1.2,0,1.4,0.4,1.4,1.3c0,1.1-0.4,1.3-1.8,1.3c-1,0-1.7,0-3.1-0.1l-0.1,2.2c1.3,0.2,2.7,0.3,4,0.3c2.9,0,4-1,4-3.3
	c0-1.7-0.5-2.5-2.1-2.8V514c1.4-0.2,1.8-1.2,1.8-2.8c0-2-1-2.6-3.7-2.6c-1.2,0-2.5,0.1-3.7,0.3L641.6,511.1z M638.3,517.2
	c-0.8,0-1,0.2-1,1v0.7c0,0.8,0.2,1,1,1h0.7c0.8,0,1-0.2,1-1v-0.7c0-0.8-0.2-1-1-1H638.3z M628.3,511.1c0.8,0,1.9,0,3.1,0
	c1.1,0,1.4,0.1,1.4,1c0,0.8-0.1,1.2-1.3,1.2h-2.1v1.9l2.1,0c1.2,0,1.4,0.4,1.4,1.3c0,1.1-0.4,1.3-1.8,1.3c-1,0-1.7,0-3.1-0.1
	l-0.1,2.2c1.3,0.2,2.7,0.3,4,0.3c2.9,0,4-1,4-3.3c0-1.7-0.5-2.5-2.1-2.8V514c1.4-0.2,1.8-1.2,1.8-2.8c0-2-1-2.6-3.7-2.6
	c-1.2,0-2.5,0.1-3.7,0.3L628.3,511.1z"/>
<path class="st3" d="M664.2,496.3H663c-0.8,0-0.9-0.2-0.9-1c0-0.6,0.1-0.7,0.9-0.7h1.1V496.3z M661,497.3c-0.5,0-1.3,0.2-1.5,0.9
	l-0.6,2.5h3l0.5-2.1c0.1-0.4,0.2-0.5,0.7-0.5h1.1v2.6h2.8v-8c-1-0.1-1.8-0.1-4-0.1c-2.9,0-3.7,0.6-3.7,2.6
	C659.3,496,659.7,497,661,497.3L661,497.3z M652.5,497.9c0-0.4,0.2-0.6,0.7-0.6h1.7v1c-0.5,0.3-1.1,0.5-1.6,0.5
	c-0.5,0-0.8-0.2-0.8-0.6V497.9z M650.3,494.8c1.3-0.1,2.6-0.1,3.4-0.1c0.8,0,1.1,0.2,1.1,0.9v0.2h-2.7c-1.6,0-2.6,0.8-2.6,2v0.8
	c0,1.5,1.2,2.3,2.7,2.3c1.4,0,2.3-0.7,2.8-1.4l0.3,1.2h2.3v-5.1c0-2.4-1.2-3.1-3.3-3.1c-1.2,0-3.2,0.2-4.4,0.4L650.3,494.8z
	 M648.3,492.7h-2.9v2.8H643v-2.8h-2.9v8h2.9v-3.2h2.4v3.2h2.9V492.7z M638.4,492.7h-2.9v2.8h-2.4v-2.8h-2.9v8h2.9v-3.2h2.4v3.2h2.9
	V492.7z M623.3,497.9c0-0.4,0.2-0.6,0.7-0.6h1.7v1c-0.5,0.3-1.1,0.5-1.6,0.5c-0.5,0-0.8-0.2-0.8-0.6V497.9z M621.1,494.8
	c1.3-0.1,2.6-0.1,3.4-0.1c0.8,0,1.1,0.2,1.1,0.9v0.2H623c-1.6,0-2.6,0.8-2.6,2v0.8c0,1.5,1.2,2.3,2.7,2.3c1.4,0,2.3-0.7,2.8-1.4
	l0.3,1.2h2.3v-5.1c0-2.4-1.2-3.1-3.3-3.1c-1.2,0-3.2,0.2-4.4,0.4L621.1,494.8z M613.5,498.7v-2.8h1.5c1.2,0,1.4,0.3,1.4,1.5
	c0,1.1-0.3,1.4-1.4,1.4L613.5,498.7z M613.5,494v-2.4h1.4c1,0,1.3,0.2,1.3,1.2c0,1-0.3,1.2-1.3,1.2H613.5z M617.1,494.9
	c1.4-0.1,2-0.9,2-2.5c0-2.3-1.1-2.9-4-2.9c-2,0-3.2,0-4.5,0.1v11.1c1.5,0.1,2.7,0.1,5,0.1c2.7,0,3.9-0.6,3.9-2.9
	C619.4,496.2,618.8,495.1,617.1,494.9L617.1,494.9z"/>
<ellipse transform="matrix(0.982 -0.1891 0.1891 0.982 -40.4903 81.4247)" class="st4" cx="406.4" cy="252.9" rx="35.4" ry="35.4"/>
<path class="st3" d="M418.1,255.4l7.2,13.2h9.3l-7.6-13c-0.7-1.2-2-2.4-2.9-2.9v-0.1c0.8-0.5,1.8-1.4,2.5-2.6l7.5-12.2h-9l-7.1,12
	h-2.1c0.3-1.3,0.4-2.6,0.4-3.8v-8.2h-8.4v30.8h8.4v-10.3c0-0.8-0.1-1.9-0.4-2.9H418.1z M381.1,244.4c4.2-0.2,6.5-0.2,9.7-0.2
	c2.4,0,3.4,0.1,3.4,1.4c0,1.7-2,4.5-5.5,8l-6.9,7.1c-0.9,1-1.2,2-1.2,3.4v4.4h23v-7.2h-8.9c-1.5,0-2.9,0-4.3,0.4l7.6-7.5
	c4.1-4.2,4.8-6.3,4.8-9.6c0-6-4.3-7.5-10.9-7.5c-3.4,0-6.5,0.1-11,1L381.1,244.4z"/>
<path class="st3" d="M461.5,305l0.4-8.1h-25.3l-1.1,18.1c-0.1,1.9,1.2,3.4,3.2,3.6l6.3,0.8c5.4,0.5,7.4,1.2,7.3,5
	c-0.2,3.3-1.4,4.6-6.7,4.6c-2.9,0-6.6-0.2-10.5-0.5l-1,8.3c5.2,0.8,10.3,1.2,14.3,1.2c11.5,0,14.7-5.9,14.7-13.2
	c0.1-6.5-2.4-12.3-11.8-13.3l-6.7-0.9l0.4-5.6H461.5z M423.6,327.4c-2.8,0-3.7,0.9-3.7,3.7v2.6c0,2.8,0.9,3.7,3.7,3.7h2.5
	c2.8,0,3.7-0.9,3.7-3.7v-2.6c0-2.8-0.9-3.7-3.7-3.7H423.6z M399.2,319.9c4.5,0,5.4,1,5.4,5.3c0,4-0.9,5-5.4,5c-4.6,0-5.6-1-5.6-5
	C393.5,321,394.5,319.9,399.2,319.9 M399.1,303.5c4,0,5,0.9,5,4.9c0,3.6-0.8,4.5-4.9,4.5c-4.2,0-5.2-0.8-5.2-4.5
	C394.1,304.4,395,303.5,399.1,303.5 M390.4,316.5c-5.8,0.5-7.2,5.4-7.2,10.8c0,7.8,3.3,10.9,15.9,10.9c12.8-0.1,15.9-3,15.9-10.9
	c0-5.4-1.3-10.2-7.1-10.8v-0.2c4.4-0.5,6.1-4.9,6.1-9.2c0-7.6-2.6-10.8-14.9-10.8c-12.2,0-14.8,3.3-14.8,10.8c0,4.3,1.8,8.8,6.1,9.2
	V316.5z M377,305l0.4-8.1h-25.3l-1.1,18.1c-0.1,1.9,1.2,3.4,3.2,3.6l6.3,0.8c5.4,0.5,7.4,1.2,7.3,5c-0.2,3.3-1.4,4.6-6.7,4.6
	c-2.9,0-6.6-0.2-10.5-0.5l-1,8.3c5.2,0.8,10.3,1.2,14.3,1.2c11.5,0,14.7-5.9,14.7-13.2c0.1-6.5-2.4-12.3-11.8-13.3l-6.7-0.9l0.4-5.6
	H377z"/>
<path class="st3" d="M421.9,379.8l0.2-3.2h-9.9l-0.4,7.1c0,0.7,0.5,1.3,1.2,1.4l2.5,0.3c2.1,0.2,2.9,0.5,2.8,2
	c-0.1,1.3-0.6,1.8-2.6,1.8c-1.1,0-2.6-0.1-4.1-0.2l-0.4,3.2c2,0.3,4,0.5,5.6,0.5c4.5,0,5.8-2.3,5.8-5.2c0-2.5-0.9-4.8-4.6-5.2
	l-2.6-0.3l0.2-2.2H421.9z M407,388.6c-1.1,0-1.4,0.3-1.4,1.4v1c0,1.1,0.3,1.4,1.4,1.4h1c1.1,0,1.4-0.3,1.4-1.4v-1
	c0-1.1-0.3-1.4-1.4-1.4H407z M404.1,386.3h-1.9v-6.5h-3.2l-0.7,2.5v4.1h-3.1c-0.4,0-0.6-0.2-0.4-0.7l3.5-9h-4l-3.9,10.1
	c-0.5,1.2,0.3,2.5,1.7,2.5h6.3v3.3h3.9v-3.3h0l1.8-0.4V386.3z M387.9,392.5v-15.8h-4.3l-4,1.6l0.5,2.7l3.7-0.8
	c-0.1,0.6-0.2,1.3-0.2,1.9v10.5H387.9z"/>
<path class="st3" d="M430.7,358.7H429c-1.1,0-1.3-0.3-1.3-1.4c0-0.9,0.2-1.1,1.3-1.1h1.6V358.7z M426.2,360.1
	c-0.7,0.1-1.9,0.3-2.2,1.2l-0.9,3.6h4.3l0.7-3.1c0.1-0.5,0.3-0.7,1.1-0.7h1.5v3.7h4v-11.5c-1.4-0.2-2.6-0.2-5.8-0.2
	c-4.2,0-5.2,0.8-5.2,3.7C423.7,358.3,424.3,359.7,426.2,360.1L426.2,360.1z M421.5,353.6h-4.1v4h-3.5v-4h-4.1V365h4.1v-4.6h3.5v4.6
	h4.1V353.6z M404.3,365h4.2l-3.4-5.8l3.1-5.6H404l-2.2,4.3l-2.2-4.3h-4.2l3.1,5.6l-3.4,5.8h4.2l2.5-4.6L404.3,365z M395,353.6h-4.5
	l-1.7,6.8c-0.1,0.5-0.3,1.3-0.5,2h-0.2c-0.1-0.7-0.2-1.3-0.3-2l-1.7-6.8h-4.4l3.5,10.4c0.2,0.6,0.7,1,1.3,1h0.8
	c-0.3,0.6-0.7,1.1-1.2,1.4c-0.7,0.4-1.7,0.5-3.2,0.5l-0.3,2.7c1.6,0.3,3.4,0.3,4.7-0.2c1.8-0.6,3.1-1.8,3.9-4.4L395,353.6z
	 M376.2,356.6c3.1-0.4,3.2-1.8,5-7.5h-4.4c-1.2,4.8-1.5,6.2-3.8,6.2h-0.8c0.1-0.6,0.2-1.3,0.2-2v-4.2h-4.3V365h4.3v-5.3
	c0-0.4-0.1-1-0.2-1.5h0.8c2.2,0,2.4,1,4,6.8h4.5c-2-6.5-2.2-7.7-5.4-8.2V356.6z"/>
<path class="st3" d="M632.3,803.6l0.2,3.5h6.9c-0.4,0.6-0.6,1.1-0.8,1.7l-3.8,10.7h4.2l4.8-13.7c0.4-1.2-0.4-2.1-1.6-2.1H632.3z
	 M629.1,815.6c-1.1,0-1.4,0.3-1.4,1.4v1c0,1.1,0.3,1.4,1.4,1.4h1c1.1,0,1.4-0.3,1.4-1.4v-1c0-1.1-0.3-1.4-1.4-1.4H629.1z
	 M614.3,807.1c2.2-0.1,3.3-0.1,5-0.1c1.2,0,1.7,0.1,1.7,0.7c0,0.9-1,2.3-2.8,4.1l-3.6,3.7c-0.5,0.5-0.6,1-0.6,1.7v2.2h11.8v-3.7
	h-4.6c-0.8,0-1.5,0-2.2,0.2l3.9-3.8c2.1-2.2,2.5-3.2,2.5-4.9c0-3.1-2.2-3.8-5.6-3.8c-1.7,0-3.4,0.1-5.7,0.5L614.3,807.1z
	 M611.3,819.5v-15.8H607l-4,1.6l0.5,2.7l3.7-0.8c-0.1,0.6-0.2,1.3-0.2,1.9v10.5H611.3z"/>
<path class="st3" d="M664,788c0-0.5,0.3-0.9,1-0.9h2.4v1.4c-0.8,0.5-1.6,0.8-2.2,0.8c-0.8,0-1.1-0.3-1.1-0.9V788z M660.9,783.5
	c1.9-0.1,3.7-0.2,4.9-0.2c1.2,0,1.6,0.3,1.6,1.3v0.3h-3.8c-2.3,0-3.6,1.1-3.6,2.9v1.1c0,2.1,1.7,3.3,3.8,3.3c2,0,3.3-1,4.1-2
	l0.4,1.7h3.3v-7.3c0-3.4-1.7-4.5-4.8-4.5c-1.7,0-4.5,0.3-6.2,0.6L660.9,783.5z M659,783.7v-3.1h-11.4v3.1h3.6v8.3h4.2v-8.3H659z
	 M638.6,788c0-0.5,0.3-0.9,1-0.9h2.4v1.4c-0.8,0.5-1.6,0.8-2.2,0.8c-0.8,0-1.1-0.3-1.1-0.9V788z M635.5,783.5
	c1.9-0.1,3.7-0.2,4.9-0.2c1.2,0,1.6,0.3,1.6,1.3v0.3h-3.8c-2.3,0-3.6,1.1-3.6,2.9v1.1c0,2.1,1.7,3.3,3.8,3.3c2,0,3.3-1,4.1-2
	l0.4,1.7h3.3v-7.3c0-3.4-1.7-4.5-4.8-4.5c-1.7,0-4.5,0.3-6.2,0.6L635.5,783.5z M632.7,780.5h-4.1v4h-3.5v-4H621v11.4h4.1v-4.6h3.5
	v4.6h4.1V780.5z M613.4,780.5c-0.9,0-1.4,0.4-1.6,1.3l-1,4.2c-0.1,0.6-0.1,1.1-0.2,1.7h-0.2c-0.1-0.6-0.1-1.1-0.2-1.7l-1-4.2
	c-0.1-0.8-0.7-1.3-1.5-1.3h-3.5c-0.9,0-1.4,0.5-1.4,1.4l-0.3,10h3.8l0.2-8.4h0.3l1.4,5.5c0.2,0.8,0.7,1.3,1.6,1.3h1.9
	c0.9,0,1.4-0.4,1.6-1.3l1.4-5.5h0.3l0.3,8.4h3.8l-0.3-10c0-0.9-0.5-1.4-1.4-1.4H613.4z M594.4,783.1c1.4,0,1.8,0.6,1.8,3.1
	c0,2.5-0.4,3.1-1.8,3.1c-1.4,0-1.8-0.6-1.8-3.1C592.6,783.7,593,783.1,594.4,783.1 M594.4,780.2c-4.5,0-6.1,1.6-6.1,6
	c0,4.4,1.7,6,6.1,6c4.5,0,6.1-1.6,6.1-6C600.5,781.8,598.9,780.2,594.4,780.2 M583,785.9c2.7-0.4,2.5-0.6,3.9-5.4h-4.2
	c-1,3.8-1.1,4.1-2.7,4.1h-0.5c0.1-0.5,0.2-1,0.2-1.4v-2.7h-4.2v11.4h4.2v-3.6c0-0.3,0-0.6-0.1-0.9h0.9c1.2,0,1.3,0.3,2.5,4.5h4.3
	c-1.6-5.4-1.6-5.5-4.3-5.9V785.9z"/>
<path class="st3" d="M656.6,758.1h-1.6c-1.1,0-1.3-0.3-1.3-1.4c0-0.9,0.2-1.1,1.3-1.1h1.6V758.1z M652.1,759.6
	c-0.7,0.1-1.9,0.3-2.2,1.2l-0.9,3.6h4.3l0.7-3.1c0.1-0.5,0.3-0.7,1.1-0.7h1.5v3.7h4v-11.5c-1.4-0.2-2.6-0.2-5.8-0.2
	c-4.2,0-5.2,0.8-5.2,3.7C649.6,757.8,650.2,759.1,652.1,759.6L652.1,759.6z M639.9,760.4c0-0.5,0.3-0.9,1-0.9h2.4v1.4
	c-0.8,0.5-1.6,0.8-2.2,0.8c-0.8,0-1.1-0.3-1.1-0.9V760.4z M636.8,755.9c1.9-0.1,3.7-0.2,4.9-0.2c1.2,0,1.6,0.3,1.6,1.3v0.3h-3.8
	c-2.3,0-3.6,1.1-3.6,2.9v1.1c0,2.1,1.7,3.3,3.8,3.3c2,0,3.3-1,4.1-2l0.4,1.7h3.3v-7.3c0-3.4-1.7-4.5-4.8-4.5c-1.7,0-4.5,0.3-6.2,0.6
	L636.8,755.9z M634,753h-6.9c-2,0-3,1-3.1,2.9c-0.2,2.1-0.4,3.7-0.6,4.5c-0.3,0.9-0.9,0.9-1.9,1.1l0.4,3.1c2.5,0.4,4.8-0.2,5.2-3
	c0.2-1.1,0.5-3,0.7-4.8c0.1-0.7,0.4-1,1.1-1h1v8.6h4.2V753z M620,764.4V753h-3.6l-3.6,5.5c-0.3,0.5-0.6,1-0.9,1.7h-0.1
	c0.1-0.7,0.2-1.2,0.2-1.8V753h-3.7v11.4h3.6l3.6-5.2c0.3-0.5,0.7-1.3,0.9-1.9h0.1c-0.1,0.8-0.2,1.4-0.2,2v5.1H620z M601.5,756.1
	c3.1-0.4,3.1-1.8,4.8-7.5h-4.4c-1.4,4.8-1.7,6.2-3.2,6.2h-0.7c0.1-0.7,0.2-1.3,0.2-2v-4.2H594v4.2c0,0.6,0.1,1.3,0.2,2h-0.8
	c-1.5,0-1.8-1.4-3.2-6.2h-4.4c1.7,5.7,1.7,7.1,4.8,7.5v0.1c-3.2,0.5-3.4,1.7-5.3,8.2h4.5c1.8-5.7,2-6.8,3.5-6.8h0.8
	c-0.1,0.5-0.2,1-0.2,1.5v5.3h4.1v-5.3c0-0.4-0.1-1-0.2-1.5h0.8c1.6,0,1.8,1,3.5,6.8h4.5c-1.9-6.5-2.1-7.7-5.3-8.2V756.1z"/>
<path class="st3" d="M638.4,360.3c1.7,0,2.1,0.4,2.1,2.1c0,1.6-0.4,2-2.1,2c-1.8,0-2.2-0.4-2.2-2
	C636.1,360.7,636.5,360.3,638.4,360.3 M638.3,353.9c1.6,0,2,0.3,2,1.9c0,1.4-0.3,1.7-1.9,1.7c-1.6,0-2-0.3-2-1.7
	C636.4,354.2,636.7,353.9,638.3,353.9 M634.9,359c-2.3,0.2-2.8,2.1-2.8,4.2c0,3.1,1.3,4.3,6.2,4.3c5,0,6.2-1.2,6.2-4.3
	c0-2.1-0.5-4-2.8-4.2v-0.1c1.7-0.2,2.4-1.9,2.4-3.6c0-3-1-4.2-5.8-4.2c-4.8,0-5.8,1.3-5.8,4.2C632.5,356.9,633.2,358.7,634.9,359
	L634.9,359z M627.7,363.2c-1.1,0-1.4,0.3-1.4,1.4v1c0,1.1,0.3,1.4,1.4,1.4h1c1.1,0,1.4-0.3,1.4-1.4v-1c0-1.1-0.3-1.4-1.4-1.4H627.7z
	 M612.9,354.7c2.2-0.1,3.3-0.1,5-0.1c1.2,0,1.7,0.1,1.7,0.7c0,0.9-1,2.3-2.8,4.1l-3.6,3.7c-0.5,0.5-0.6,1-0.6,1.7v2.2h11.8v-3.7
	h-4.6c-0.8,0-1.5,0-2.2,0.2l3.9-3.8c2.1-2.2,2.5-3.2,2.5-4.9c0-3.1-2.2-3.8-5.6-3.8c-1.7,0-3.4,0.1-5.7,0.5L612.9,354.7z
	 M609.9,367.1v-15.8h-4.3l-4,1.6l0.5,2.7l3.7-0.8c-0.1,0.6-0.2,1.3-0.2,1.9v10.5H609.9z"/>
<path class="st3" d="M664,335.6c0-0.5,0.3-0.9,1-0.9h2.4v1.4c-0.8,0.5-1.6,0.8-2.2,0.8c-0.8,0-1.1-0.3-1.1-0.9V335.6z M660.9,331.1
	c1.9-0.1,3.7-0.2,4.9-0.2c1.2,0,1.6,0.3,1.6,1.3v0.3h-3.8c-2.3,0-3.6,1.1-3.6,2.9v1.1c0,2.1,1.7,3.3,3.8,3.3c2,0,3.3-1,4.1-2
	l0.4,1.7h3.3v-7.3c0-3.4-1.7-4.5-4.8-4.5c-1.7,0-4.5,0.3-6.2,0.6L660.9,331.1z M659,331.3v-3.1h-11.4v3.1h3.6v8.3h4.2v-8.3H659z
	 M638.6,335.6c0-0.5,0.3-0.9,1-0.9h2.4v1.4c-0.8,0.5-1.6,0.8-2.2,0.8c-0.8,0-1.1-0.3-1.1-0.9V335.6z M635.5,331.1
	c1.9-0.1,3.7-0.2,4.9-0.2c1.2,0,1.6,0.3,1.6,1.3v0.3h-3.8c-2.3,0-3.6,1.1-3.6,2.9v1.1c0,2.1,1.7,3.3,3.8,3.3c2,0,3.3-1,4.1-2
	l0.4,1.7h3.3v-7.3c0-3.4-1.7-4.5-4.8-4.5c-1.7,0-4.5,0.3-6.2,0.6L635.5,331.1z M632.7,328.2h-4.1v4h-3.5v-4H621v11.4h4.1V335h3.5
	v4.6h4.1V328.2z M613.4,328.2c-0.9,0-1.4,0.4-1.6,1.3l-1,4.2c-0.1,0.6-0.1,1.1-0.2,1.7h-0.2c-0.1-0.6-0.1-1.1-0.2-1.7l-1-4.2
	c-0.1-0.8-0.7-1.3-1.5-1.3h-3.5c-0.9,0-1.4,0.5-1.4,1.4l-0.3,10h3.8l0.2-8.4h0.3l1.4,5.5c0.2,0.8,0.7,1.3,1.6,1.3h1.9
	c0.9,0,1.4-0.4,1.6-1.3l1.4-5.5h0.3l0.3,8.4h3.8l-0.3-10c0-0.9-0.5-1.4-1.4-1.4H613.4z M594.4,330.8c1.4,0,1.8,0.6,1.8,3.1
	c0,2.5-0.4,3.1-1.8,3.1c-1.4,0-1.8-0.6-1.8-3.1C592.6,331.4,593,330.8,594.4,330.8 M594.4,327.9c-4.5,0-6.1,1.6-6.1,6
	c0,4.4,1.7,6,6.1,6c4.5,0,6.1-1.6,6.1-6C600.5,329.5,598.9,327.9,594.4,327.9 M583,333.6c2.7-0.4,2.5-0.6,3.9-5.4h-4.2
	c-1,3.8-1.1,4.1-2.7,4.1h-0.5c0.1-0.5,0.2-1,0.2-1.4v-2.7h-4.2v11.4h4.2V336c0-0.3,0-0.6-0.1-0.9h0.9c1.2,0,1.3,0.3,2.5,4.5h4.3
	c-1.6-5.4-1.6-5.5-4.3-5.9V333.6z"/>
<path class="st3" d="M656.6,305.8h-1.6c-1.1,0-1.3-0.3-1.3-1.4c0-0.9,0.2-1.1,1.3-1.1h1.6V305.8z M652.1,307.2
	c-0.7,0.1-1.9,0.3-2.2,1.2L649,312h4.3l0.7-3.1c0.1-0.5,0.3-0.7,1.1-0.7h1.5v3.7h4v-11.5c-1.4-0.2-2.6-0.2-5.8-0.2
	c-4.2,0-5.2,0.8-5.2,3.7C649.6,305.4,650.2,306.7,652.1,307.2L652.1,307.2z M639.9,308.1c0-0.5,0.3-0.9,1-0.9h2.4v1.4
	c-0.8,0.5-1.6,0.8-2.2,0.8c-0.8,0-1.1-0.3-1.1-0.9V308.1z M636.8,303.6c1.9-0.1,3.7-0.2,4.9-0.2c1.2,0,1.6,0.3,1.6,1.3v0.3h-3.8
	c-2.3,0-3.6,1.1-3.6,2.9v1.1c0,2.1,1.7,3.3,3.8,3.3c2,0,3.3-1,4.1-2l0.4,1.7h3.3v-7.3c0-3.4-1.7-4.5-4.8-4.5c-1.7,0-4.5,0.3-6.2,0.6
	L636.8,303.6z M634,300.6h-6.9c-2,0-3,1-3.1,2.9c-0.2,2.1-0.4,3.7-0.6,4.5c-0.3,0.9-0.9,0.9-1.9,1.1l0.4,3.1c2.5,0.4,4.8-0.2,5.2-3
	c0.2-1.1,0.5-3,0.7-4.8c0.1-0.7,0.4-1,1.1-1h1v8.6h4.2V300.6z M620,312.1v-11.4h-3.6l-3.6,5.5c-0.3,0.5-0.6,1-0.9,1.7h-0.1
	c0.1-0.7,0.2-1.2,0.2-1.8v-5.4h-3.7V312h3.6l3.6-5.2c0.3-0.5,0.7-1.3,0.9-1.9h0.1c-0.1,0.8-0.2,1.4-0.2,2v5.1H620z M601.5,303.7
	c3.1-0.4,3.1-1.8,4.8-7.5h-4.4c-1.4,4.8-1.7,6.2-3.2,6.2h-0.7c0.1-0.7,0.2-1.3,0.2-2v-4.2H594v4.2c0,0.6,0.1,1.3,0.2,2h-0.8
	c-1.5,0-1.8-1.4-3.2-6.2h-4.4c1.7,5.7,1.7,7.1,4.8,7.5v0.1c-3.2,0.5-3.4,1.7-5.3,8.2h4.5c1.8-5.7,2-6.8,3.5-6.8h0.8
	c-0.1,0.5-0.2,1-0.2,1.5v5.3h4.1v-5.3c0-0.4-0.1-1-0.2-1.5h0.8c1.6,0,1.8,1,3.5,6.8h4.5c-1.9-6.5-2.1-7.7-5.3-8.2V303.7z"/>
<path class="st3" d="M555.6,128.1c2.5,1.1,3.4,4.4,3.4,9.2c0,4.7-0.9,8-3.4,9.2l0.5,1.8c4.8-1.4,7-4.8,7-10.9c0-6.2-2.2-9.6-7-11
	L555.6,128.1z M543.4,132c2.2-0.1,3.3-0.1,5-0.1c1.2,0,1.7,0.1,1.7,0.7c0,0.9-1,2.3-2.8,4.1l-3.6,3.7c-0.5,0.5-0.6,1-0.6,1.7v2.2
	h11.8v-3.7h-4.6c-0.8,0-1.5,0-2.2,0.2l3.9-3.8c2.1-2.2,2.5-3.2,2.5-4.9c0-3.1-2.2-3.8-5.6-3.8c-1.7,0-3.4,0.1-5.7,0.5L543.4,132z
	 M538.8,140.5c-1.1,0-1.4,0.3-1.4,1.4v1c0,1.1,0.3,1.4,1.4,1.4h1c1.1,0,1.4-0.3,1.4-1.4v-1c0-1.1-0.3-1.4-1.4-1.4H538.8z
	 M535.8,138.2H534v-6.5h-3.2l-0.7,2.5v4.1h-3.1c-0.4,0-0.6-0.2-0.4-0.7l3.5-9h-4l-3.9,10.1c-0.5,1.2,0.3,2.5,1.7,2.5h6.3v3.3h3.9
	v-3.3h0l1.8-0.4V138.2z M521.7,126.3c-4.8,1.4-7,4.8-7,11c0,6.1,2.2,9.6,7,10.9l0.5-1.8c-2.5-1.2-3.4-4.5-3.4-9.2
	c0-4.8,0.9-8.1,3.4-9.2L521.7,126.3z M497.2,131.7c1.2,0,2.8,0,4.4,0c1.6,0,2.1,0.2,2.1,1.5c0,1.1-0.1,1.7-1.9,1.7h-3v2.8l3,0
	c1.7,0,2.1,0.5,2.1,1.9c0,1.6-0.6,1.9-2.6,1.9c-1.4,0-2.4,0-4.4-0.1l-0.1,3.1c1.8,0.3,3.8,0.4,5.7,0.4c4.2,0,5.7-1.4,5.7-4.7
	c0-2.4-0.7-3.6-2.9-4V136c2-0.3,2.5-1.7,2.5-4c0-2.8-1.5-3.7-5.3-3.7c-1.7,0-3.5,0.1-5.3,0.4L497.2,131.7z M492.6,140.5
	c-1.1,0-1.4,0.3-1.4,1.4v1c0,1.1,0.3,1.4,1.4,1.4h1c1.1,0,1.4-0.3,1.4-1.4v-1c0-1.1-0.3-1.4-1.4-1.4H492.6z M483,137.6
	c1.7,0,2.1,0.4,2.1,2.1c0,1.6-0.4,2-2.1,2c-1.8,0-2.2-0.4-2.2-2C480.8,138,481.2,137.6,483,137.6 M483,131.2c1.6,0,2,0.3,2,1.9
	c0,1.4-0.3,1.7-1.9,1.7c-1.6,0-2-0.3-2-1.7C481,131.5,481.4,131.2,483,131.2 M479.6,136.2c-2.3,0.2-2.8,2.1-2.8,4.2
	c0,3.1,1.3,4.3,6.2,4.3c5,0,6.2-1.2,6.2-4.3c0-2.1-0.5-4-2.8-4.2v-0.1c1.7-0.2,2.4-1.9,2.4-3.6c0-3-1-4.2-5.8-4.2
	c-4.8,0-5.8,1.3-5.8,4.2C477.2,134.2,477.8,136,479.6,136.2L479.6,136.2z"/>
<path class="st3" d="M390.1,518.2l0.1,2.4h4.8c-0.3,0.4-0.4,0.8-0.5,1.2l-2.7,7.5h3l3.3-9.6c0.3-0.8-0.3-1.5-1.1-1.5H390.1z
	 M387.9,526.6c-0.8,0-1,0.2-1,1v0.7c0,0.8,0.2,1,1,1h0.7c0.8,0,1-0.2,1-1v-0.7c0-0.8-0.2-1-1-1H387.9z M380,522.1
	c0-1.3,0.1-1.8,1.3-1.8c1.3,0,1.4,0.4,1.4,2.9c-0.5,0.3-0.9,0.4-1.4,0.4C380.2,523.5,380,523.2,380,522.1 M377.6,529.2
	c1.3,0.3,2.5,0.3,3.1,0.3c3.5,0,4.8-0.8,4.8-5.8c0-4.5-0.7-5.6-4.2-5.6c-3.2,0-4.1,1.2-4.1,4.1c0,2,0.7,3.4,3.2,3.4
	c1,0,1.7-0.2,2.3-0.7c-0.1,1.9-0.5,2.4-1.9,2.4c-1.4,0-2,0-2.9,0L377.6,529.2z"/>
<path class="st3" d="M416.4,504.5c0.5-0.3,0.9-0.5,1.5-0.5c0.7,0,1,0.3,1,2.1c0,1.8-0.3,2.1-1.1,2.1c-0.6,0-1-0.1-1.4-0.3V504.5z
	 M415.8,502.1h-2.3v11h2.9v-1.8c0-0.6,0-1.2,0-1.7c0.7,0.5,1.6,0.7,2.6,0.7c2,0,3-0.9,3-4.1c0-2.7-0.8-4.3-2.8-4.3
	c-1.3,0-2.5,0.6-3.1,1.3L415.8,502.1z M407.8,503.9c1,0,1.2,0.4,1.2,2.2c0,1.8-0.3,2.1-1.2,2.1c-1,0-1.3-0.4-1.3-2.1
	C406.6,504.3,406.8,503.9,407.8,503.9 M407.8,501.8c-3.1,0-4.3,1.1-4.3,4.2c0,3.1,1.2,4.2,4.3,4.2c3.1,0,4.3-1.1,4.3-4.2
	C412.1,503,410.9,501.8,407.8,501.8 M398.6,508.1h-2.3c0.4-0.9,0.7-2,0.9-3.5c0-0.5,0.3-0.6,0.7-0.6h0.7V508.1z M402.7,508.1h-1.3
	v-6H397c-1.4,0-2.1,0.7-2.3,1.9c-0.2,1.4-0.5,2.7-0.9,4.1h-1v4.2h1.9l0.2-2.2h5.7l0.2,2.2h1.9V508.1z M391.6,510.1v-8h-2.5l-2.5,3.8
	c-0.2,0.4-0.4,0.7-0.6,1.2h-0.1c0.1-0.5,0.1-0.8,0.1-1.2v-3.8h-2.6v8h2.5l2.5-3.6c0.2-0.4,0.5-0.9,0.6-1.3h0.1
	c-0.1,0.5-0.1,0.9-0.1,1.4v3.6H391.6z M376.4,504.5c0.5-0.3,0.9-0.5,1.5-0.5c0.7,0,1,0.3,1,2.1c0,1.8-0.3,2.1-1.1,2.1
	c-0.6,0-1-0.1-1.4-0.3V504.5z M375.9,502.1h-2.3v11h2.9v-1.8c0-0.6,0-1.2,0-1.7c0.7,0.5,1.6,0.7,2.6,0.7c2,0,3-0.9,3-4.1
	c0-2.7-0.8-4.3-2.8-4.3c-1.3,0-2.5,0.6-3.1,1.3L375.9,502.1z M367.8,503.9c1,0,1.2,0.4,1.2,2.2c0,1.8-0.3,2.1-1.2,2.1
	c-1,0-1.3-0.4-1.3-2.1C366.6,504.3,366.8,503.9,367.8,503.9 M367.8,501.8c-3.1,0-4.3,1.1-4.3,4.2c0,3.1,1.2,4.2,4.3,4.2
	c3.1,0,4.3-1.1,4.3-4.2C372.1,503,371,501.8,367.8,501.8 M359.2,504.2c2.2-0.3,2.3-1.3,3.5-5.3h-3.1c-0.9,3.3-1.1,4.3-2.6,4.3h-0.5
	c0.1-0.4,0.1-0.9,0.1-1.4V499h-3v11.1h3v-3.7c0-0.3,0-0.7-0.1-1h0.6c1.5,0,1.7,0.7,2.8,4.7h3.1C361.6,505.5,361.4,504.6,359.2,504.2
	L359.2,504.2z"/>
<rect x="707.7" y="626.4" class="st3" width="15" height="13.1"/>
<rect x="707.7" y="626.4" class="st2" width="15" height="13.1"/>
</svg>
