<?xml version="1.0" encoding="utf-8"?>
<!-- Generator: Adobe Illustrator 26.5.0, SVG Export Plug-In . SVG Version: 6.00 Build 0)  -->
<svg version="1.1" id="Слой_1" xmlns="http://www.w3.org/2000/svg" xmlns:xlink="http://www.w3.org/1999/xlink" x="0px" y="0px"
	 viewBox="0 0 1000 1000" style="enable-background:new 0 0 1000 1000;" xml:space="preserve">
<style type="text/css">
	.st0{fill:#E4EBAD;}
	.st1{fill:none;stroke:#373437;stroke-miterlimit:10;}
	.st2{fill:#FFFFFF;}
	.st3{fill:#373437;}
	.st4{fill:none;stroke:#373437;}
	.st5{fill:none;stroke:#373437;stroke-miterlimit:10;stroke-dasharray:2.484,2.484;}
	.st6{fill:none;stroke:#373437;stroke-miterlimit:10;stroke-dasharray:2.386,2.386;}
	.st7{fill:none;stroke:#373437;stroke-miterlimit:4.0001;}
</style>
<rect x="124.2" y="250.3" class="st0" width="675.9" height="185"/>
<rect x="183.8" y="327.9" class="st0" width="616.3" height="310.6"/>
<rect x="695.2" y="381.2" class="st0" width="108.3" height="223.8"/>
<rect x="528.2" y="456.1" class="st0" width="281.7" height="223.8"/>
<rect x="610.2" y="572.3" class="st0" width="199.7" height="223.8"/>
<rect x="689.9" y="600.2" class="st0" width="120" height="223.8"/>
<rect x="89" y="456" class="st1" width="7.3" height="192"/>
<rect x="89" y="456" class="st1" width="7.3" height="192"/>
<rect x="89" y="308.1" class="st2" width="15" height="114.2"/>
<rect x="89" y="308.1" class="st1" width="15" height="114.2"/>
<rect x="109.9" y="308.1" class="st2" width="14.3" height="114.2"/>
<rect x="109.9" y="308.1" class="st1" width="14.3" height="114.2"/>
<rect x="104.2" y="312.8" class="st2" width="5.5" height="4.7"/>
<rect x="104.2" y="312.8" class="st1" width="5.5" height="4.7"/>
<rect x="104.2" y="406.5" class="st2" width="5.5" height="4.7"/>
<rect x="104.2" y="406.5" class="st1" width="5.5" height="4.7"/>
<path class="st1" d="M703,835.5l50.6,29c0,0,4-6.3,6.2-15.9s1.8-17.2,1.8-17.2"/>
<path class="st1" d="M627.2,682.7l34.5-19.7c0,0,2.7,4.3,4.3,10.8c1.5,6.5,1.2,11.7,1.2,11.7"/>
<rect x="904.7" y="258.8" class="st1" width="7.3" height="200.6"/>
<rect x="904.7" y="258.8" class="st1" width="7.3" height="200.6"/>
<rect x="492.2" y="262.5" class="st3" width="57.4" height="22.7"/>
<rect x="492.2" y="262.5" class="st1" width="57.4" height="22.7"/>
<rect x="166.6" y="616.2" class="st3" width="27.2" height="30.8"/>
<rect x="166.6" y="616.2" class="st1" width="27.2" height="30.8"/>
<rect x="89" y="645.1" class="st3" width="83.1" height="7.3"/>
<rect x="89" y="645.1" class="st1" width="83.1" height="7.3"/>
<rect x="166.4" y="639.2" class="st3" width="322.1" height="14.8"/>
<rect x="167.4" y="435.7" class="st3" width="26.4" height="31"/>
<rect x="167.4" y="435.7" class="st1" width="26.4" height="31"/>
<rect x="89" y="216.8" class="st3" width="15" height="100.7"/>
<rect x="89" y="216.8" class="st1" width="15" height="100.7"/>
<rect x="94.6" y="238.3" class="st3" width="29.6" height="74.2"/>
<rect x="94.6" y="238.3" class="st1" width="29.6" height="74.2"/>
<rect x="94.6" y="412" class="st3" width="29.6" height="50.6"/>
<rect x="94.6" y="412" class="st1" width="29.6" height="50.6"/>
<rect x="105.4" y="435.7" class="st3" width="73.6" height="26.8"/>
<rect x="105.4" y="435.7" class="st1" width="73.6" height="26.8"/>
<rect x="89" y="406.5" class="st3" width="15" height="56"/>
<rect x="89" y="406.5" class="st1" width="15" height="56"/>
<rect x="188.3" y="443.2" class="st3" width="297" height="7.3"/>
<rect x="188.3" y="443.2" class="st1" width="297" height="7.3"/>
<rect x="316.4" y="435.7" class="st3" width="58.6" height="14.8"/>
<rect x="316.4" y="435.7" class="st1" width="58.6" height="14.8"/>
<rect x="367.7" y="427.6" class="st3" width="7.3" height="14.8"/>
<rect x="367.7" y="427.6" class="st1" width="7.3" height="14.8"/>
<rect x="372" y="367.8" class="st3" width="20.9" height="7.3"/>
<rect x="372" y="367.8" class="st1" width="20.9" height="7.3"/>
<rect x="427.9" y="367.8" class="st3" width="81.9" height="7.3"/>
<rect x="427.9" y="367.8" class="st1" width="81.9" height="7.3"/>
<rect x="485.5" y="244.8" class="st3" width="7.3" height="125.1"/>
<rect x="485.5" y="244.8" class="st1" width="7.3" height="125.1"/>
<rect x="544.7" y="367.8" class="st3" width="17.6" height="7.3"/>
<rect x="544.7" y="367.8" class="st1" width="17.6" height="7.3"/>
<rect x="560.3" y="435.9" class="st3" width="52.9" height="14.6"/>
<rect x="560.3" y="435.9" class="st1" width="52.9" height="14.6"/>
<rect x="555" y="244.8" class="st3" width="7.3" height="205.6"/>
<rect x="555" y="244.8" class="st1" width="7.3" height="205.6"/>
<rect x="367.7" y="224.7" class="st3" width="7.3" height="154.2"/>
<rect x="367.7" y="224.7" class="st1" width="7.3" height="154.2"/>
<rect x="166.6" y="614.5" class="st3" width="12.4" height="34.4"/>
<rect x="166.6" y="614.5" class="st1" width="12.4" height="34.4"/>
<rect x="167.4" y="435.7" class="st3" width="12.4" height="35.7"/>
<rect x="167.4" y="435.7" class="st1" width="12.4" height="35.7"/>
<rect x="761.2" y="823.7" class="st3" width="50.1" height="14.6"/>
<rect x="761.2" y="823.7" class="st1" width="50.1" height="14.6"/>
<rect x="680.8" y="823.7" class="st3" width="25.5" height="14.6"/>
<rect x="680.8" y="823.7" class="st1" width="25.5" height="14.6"/>
<rect x="689.1" y="680.6" class="st3" width="6.9" height="94.7"/>
<rect x="689.1" y="680.6" class="st1" width="6.9" height="94.7"/>
<rect x="667.2" y="680.6" class="st3" width="25.7" height="7.3"/>
<rect x="667.2" y="680.6" class="st1" width="25.7" height="7.3"/>
<rect x="606.7" y="680.6" class="st3" width="25.5" height="7.3"/>
<rect x="606.7" y="680.6" class="st1" width="25.5" height="7.3"/>
<rect x="485.1" y="680.6" class="st3" width="128.5" height="16"/>
<rect x="485.1" y="680.6" class="st1" width="128.5" height="16"/>
<rect x="485.1" y="639.1" class="st3" width="60.4" height="51.7"/>
<rect x="485.1" y="639.1" class="st1" width="60.4" height="51.7"/>
<rect x="523" y="511.4" class="st3" width="7.5" height="166.1"/>
<rect x="523" y="511.4" class="st1" width="7.5" height="166.1"/>
<rect x="680.8" y="773.4" class="st3" width="15.2" height="65.1"/>
<rect x="680.8" y="773.4" class="st1" width="15.2" height="65.1"/>
<rect x="651.1" y="773.4" class="st3" width="34.7" height="30.2"/>
<rect x="651.1" y="773.4" class="st1" width="34.7" height="30.2"/>
<rect x="622" y="773.4" class="st3" width="34.7" height="30.2"/>
<rect x="622" y="773.4" class="st1" width="34.7" height="30.2"/>
<rect x="804.8" y="429.2" class="st3" width="11.2" height="408.8"/>
<rect x="804.8" y="429.2" class="st1" width="11.2" height="408.8"/>
<rect x="370.6" y="241.5" class="st3" width="11.6" height="72.2"/>
<rect x="370.6" y="241.5" class="st1" width="11.6" height="72.2"/>
<rect x="89.6" y="216.8" class="st3" width="738.3" height="34.7"/>
<rect x="89.6" y="216.8" class="st1" width="738.3" height="34.7"/>
<rect x="816.3" y="249" class="st3" width="11.6" height="68.5"/>
<rect x="816.3" y="249" class="st1" width="11.6" height="68.5"/>
<rect x="816.3" y="316.7" class="st1" width="11.6" height="68.5"/>
<rect x="801.5" y="311.6" class="st1" width="9" height="68.9"/>
<rect x="810.5" y="314.4" class="st1" width="5.6" height="3.2"/>
<rect x="810.5" y="380.6" class="st1" width="5.6" height="4.5"/>
<rect x="810.5" y="376.8" class="st1" width="5.6" height="3.7"/>
<rect x="816.3" y="429.2" class="st3" width="11.6" height="48.2"/>
<rect x="816.3" y="429.2" class="st1" width="11.6" height="48.2"/>
<rect x="822.8" y="454" class="st3" width="88.8" height="23.4"/>
<rect x="905.1" y="447.5" class="st3" width="6.5" height="16.6"/>
<rect x="801.5" y="245.2" class="st3" width="17.4" height="68.5"/>
<rect x="801.5" y="245.2" class="st1" width="17.4" height="68.5"/>
<rect x="824.6" y="216.7" class="st3" width="87.4" height="7.3"/>
<rect x="824.6" y="216.7" class="st1" width="87.4" height="7.3"/>
<rect x="904.7" y="221.1" class="st3" width="7.3" height="40"/>
<rect x="904.7" y="221.1" class="st1" width="7.3" height="40"/>
<rect x="812.7" y="472.2" class="st3" width="13.9" height="366.3"/>
<rect x="812.7" y="472.2" class="st1" width="15.2" height="287.9"/>
<rect x="492.2" y="679.7" class="st2" width="16.3" height="9"/>
<rect x="492.2" y="679.7" class="st1" width="16.3" height="9"/>
<rect x="492.2" y="655.1" class="st2" width="38.2" height="19.6"/>
<rect x="492.2" y="655.1" class="st1" width="38.2" height="19.6"/>
<rect x="477.7" y="511.4" class="st3" width="91" height="7.3"/>
<rect x="477.7" y="511.4" class="st1" width="91" height="7.3"/>
<rect x="477.7" y="500" class="st3" width="7.6" height="14.3"/>
<rect x="477.7" y="500" class="st1" width="7.6" height="14.3"/>
<rect x="561.1" y="500" class="st3" width="7.6" height="14.3"/>
<rect x="561.1" y="500" class="st1" width="7.6" height="14.3"/>
<rect x="547.9" y="250.2" class="st3" width="7.6" height="63.5"/>
<rect x="547.9" y="250.2" class="st1" width="7.6" height="63.5"/>
<rect x="500.3" y="269.6" class="st2" width="8.6" height="8.6"/>
<rect x="500.3" y="269.6" class="st1" width="8.6" height="8.6"/>
<rect x="494.1" y="252.9" class="st2" width="43.3" height="8.6"/>
<rect x="494.1" y="252.9" class="st1" width="43.3" height="8.6"/>
<rect x="515.3" y="269.6" class="st2" width="8.6" height="8.6"/>
<rect x="515.3" y="269.6" class="st1" width="8.6" height="8.6"/>
<rect x="530.3" y="269.6" class="st2" width="8.6" height="8.6"/>
<rect x="530.3" y="269.6" class="st1" width="8.6" height="8.6"/>
<rect x="599.2" y="767.5" class="st3" width="52.9" height="36.1"/>
<rect x="599.2" y="767.5" class="st1" width="52.9" height="36.1"/>
<rect x="599.2" y="692.2" class="st3" width="14.4" height="75.1"/>
<rect x="599.2" y="692.2" class="st1" width="14.4" height="75.1"/>
<rect x="605.7" y="774.2" class="st2" width="9" height="9"/>
<rect x="605.7" y="774.2" class="st1" width="9" height="9"/>
<rect x="620.1" y="774.9" class="st2" width="24.1" height="21.4"/>
<rect x="620.1" y="774.9" class="st1" width="24.1" height="21.4"/>
<rect x="658.1" y="780.4" class="st2" width="9" height="16"/>
<rect x="658.1" y="780.4" class="st1" width="9" height="16"/>
<rect x="672.1" y="780.4" class="st2" width="16.3" height="16"/>
<rect x="672.1" y="780.4" class="st1" width="16.3" height="16"/>
<rect x="605.7" y="788" class="st2" width="9" height="9"/>
<rect x="605.7" y="788" class="st1" width="9" height="9"/>
<path class="st1" d="M564.9,447.2l26.3,45.9c0,0-5.7,3.7-14.4,5.7s-15.6,1.6-15.6,1.6"/>
<path class="st1" d="M480.7,447.2l-26.3,45.9c0,0,5.7,3.7,14.4,5.7c8.7,2,15.6,1.6,15.6,1.6"/>
<path class="st1" d="M553.3,370.1l-36.9,21.1c0,0-2.9-4.6-4.6-11.5c-1.6-7-1.3-12.5-1.3-12.5"/>
<path class="st1" d="M813.8,432.7l-23.3-40.8c0,0,5.1-3.2,12.8-5s13.8-1.4,13.8-1.4"/>
<path class="st1" d="M384.9,370.1l36.9,21.1c0,0,2.9-4.6,4.6-11.5c1.6-7,1.3-12.5,1.3-12.5"/>
<path class="st1" d="M370.7,429.4l-24.9-43.9c0,0,5.4-3.5,13.7-5.4c8.2-1.9,14.8-1.6,14.8-1.6"/>
<rect x="728.7" y="583.8" class="st3" width="94.4" height="7.3"/>
<rect x="728.7" y="583.8" class="st1" width="94.4" height="7.3"/>
<rect x="653.5" y="607" class="st3" width="109.3" height="7.3"/>
<rect x="653.5" y="607" class="st1" width="109.3" height="7.3"/>
<rect x="715.6" y="583.8" class="st3" width="66.1" height="30.4"/>
<rect x="715.6" y="583.8" class="st1" width="66.1" height="30.4"/>
<rect x="766.2" y="592.5" class="st2" width="8.6" height="15.5"/>
<rect x="766.2" y="592.5" class="st1" width="8.6" height="15.5"/>
<rect x="722.7" y="592.5" class="st2" width="35.3" height="15.5"/>
<rect x="722.7" y="592.5" class="st1" width="35.3" height="15.5"/>
<rect x="180.2" y="647.3" class="st1" width="3.6" height="1.6"/>
<rect x="167.4" y="460" class="st1" width="16.3" height="111"/>
<rect x="180.2" y="567.1" class="st1" width="3.6" height="4"/>
<rect x="180.2" y="563.2" class="st1" width="3.6" height="4"/>
<rect x="180.2" y="614.5" class="st1" width="3.6" height="4"/>
<rect x="180.2" y="461.8" class="st1" width="3.6" height="109.3"/>
<rect x="180.2" y="467.4" class="st1" width="3.6" height="4"/>
<rect x="180.2" y="513.6" class="st1" width="3.6" height="4"/>
<rect x="180.2" y="517.7" class="st1" width="3.6" height="4"/>
<path class="st1" d="M183.6,614.6L205,577c0,0-4.7-3-11.8-4.6s-12.7-1.3-12.7-1.3"/>
<rect x="678.2" y="754.5" class="st1" width="11.6" height="11.7"/>
<rect x="675" y="688.7" class="st1" width="13.8" height="6.1"/>
<polyline class="st1" points="678.4,754.7 686.4,758 688.4,766.6 "/>
<polyline class="st1" points="674.9,694.9 677.3,690.6 688.6,688.8 "/>
<rect x="448.4" y="330.6" class="st1" width="34.1" height="34.2"/>
<line class="st1" x1="448.2" y1="330.5" x2="482.7" y2="364.9"/>
<line class="st1" x1="482.7" y1="330.5" x2="448.2" y2="364.9"/>
<rect x="769.8" y="527.2" class="st1" width="33.7" height="33.6"/>
<path class="st1" d="M780.5,544c0,1,0.8,1.8,1.8,1.8s1.8-0.8,1.8-1.8s-0.8-1.8-1.8-1.8S780.5,543,780.5,544z"/>
<path class="st1" d="M793.6,533.1c0-1.3-1.1-2.4-2.4-2.4h-15.7c-1.3,0-2.4,1.1-2.4,2.4v21.7c0,1.3,1.1,2.4,2.4,2.4h15.7
	c1.3,0,2.4-1.1,2.4-2.4V533.1z"/>
<path class="st1" d="M791,535.6c0-1.3-1.1-2.4-2.4-2.4h-10.9c-1.3,0-2.4,1.1-2.4,2.4v16.7c0,1.3,1.1,2.4,2.4,2.4h10.9
	c1.3,0,2.4-1.1,2.4-2.4V535.6z"/>
<line class="st1" x1="780.3" y1="614.2" x2="810.5" y2="614.2"/>
<path class="st1" d="M533.3,291.4c0-1.7-1.4-3.2-3.2-3.2H515c-1.7,0-3.2,1.4-3.2,3.2v3.7c0,1.7,1.4,3.2,3.2,3.2h15.1
	c1.7,0,3.2-1.4,3.2-3.2V291.4z"/>
<path class="st1" d="M522.6,328.1c5.9,0,10.7-4.9,10.7-10.9v-15.9c0-1.5-1.2-2.8-2.7-2.8h-16c-1.5,0-2.7,1.2-2.7,2.8v15.9
	C511.9,323.2,516.7,328.1,522.6,328.1z"/>
<path class="st1" d="M522.4,324.3c4.3,0,7.7-3.5,7.7-7.9v-11.6l0,0h-15.4l0,0v11.6C514.7,320.7,518.2,324.3,522.4,324.3z"/>
<path class="st1" d="M521.4,293.2c0,0.7,0.5,1.2,1.2,1.2c0.6,0,1.2-0.5,1.2-1.2s-0.5-1.2-1.2-1.2S521.4,292.5,521.4,293.2z"/>
<path class="st1" d="M520.3,314.6c0,1.2,0.9,2.1,2.1,2.1c1.2,0,2.1-1,2.1-2.1c0-1.2-0.9-2.1-2.1-2.1
	C521.3,312.4,520.3,313.4,520.3,314.6z"/>
<line class="st1" x1="528.6" y1="306.3" x2="525.1" y2="311.6"/>
<line class="st1" x1="516.2" y1="306.3" x2="519.7" y2="311.6"/>
<path class="st1" d="M633.6,758.1c0,1.7,1.4,3.2,3.2,3.2h15.1c1.7,0,3.2-1.4,3.2-3.2v-3.7c0-1.7-1.4-3.2-3.2-3.2h-15.1
	c-1.7,0-3.2,1.4-3.2,3.2V758.1z"/>
<path class="st1" d="M644.3,721.4c-5.9,0-10.7,4.9-10.7,10.9v15.9c0,1.5,1.2,2.8,2.7,2.8h16c1.5,0,2.7-1.2,2.7-2.8v-15.9
	C655.1,726.3,650.3,721.4,644.3,721.4z"/>
<path class="st1" d="M644.5,725.2c-4.3,0-7.7,3.5-7.7,7.9v11.6l0,0h15.4l0,0v-11.6C652.2,728.7,648.8,725.2,644.5,725.2z"/>
<path class="st1" d="M645.5,756.3c0-0.7-0.5-1.2-1.2-1.2c-0.6,0-1.2,0.5-1.2,1.2s0.5,1.2,1.2,1.2S645.5,757,645.5,756.3z"/>
<path class="st1" d="M646.6,734.9c0-1.2-0.9-2.1-2.1-2.1c-1.2,0-2.1,1-2.1,2.1c0,1.2,0.9,2.1,2.1,2.1
	C645.7,737,646.6,736.1,646.6,734.9z"/>
<line class="st1" x1="638.3" y1="743.2" x2="641.8" y2="737.9"/>
<line class="st1" x1="650.7" y1="743.2" x2="647.2" y2="737.9"/>
<path class="st4" d="M387.1,268.3c0-7.6,6.1-13.7,13.7-13.7h67.6c7.6,0,13.7,6.1,13.7,13.7v12.4c0,7.6-6.1,13.7-13.7,13.7h-67.6
	c-7.6,0-13.7-6.1-13.7-13.7V268.3z"/>
<path class="st4" d="M393.7,272c0-7.6,6.1-13.7,13.7-13.7h54.4c7.6,0,13.7,6.1,13.7,13.7v5c0,7.6-6.1,13.7-13.7,13.7h-54.4
	c-7.6,0-13.7-6.1-13.7-13.7V272z"/>
<path class="st4" d="M401.7,268.8c0-3.8,3.1-6.8,6.8-6.8H465c3.8,0,6.8,3.1,6.8,6.8v11.5c0,3.8-3.1,6.8-6.8,6.8h-56.4
	c-3.8,0-6.8-3.1-6.8-6.8v-11.5H401.7z"/>
<path class="st4" d="M464.7,274.5c0,0.9-0.8,1.7-1.7,1.7c-0.9,0-1.7-0.8-1.7-1.7c0-0.9,0.8-1.7,1.7-1.7
	C463.9,272.8,464.7,273.6,464.7,274.5z"/>
<line class="st1" x1="382.5" y1="296.7" x2="486.7" y2="296.7"/>
<path class="st1" d="M481.9,327.4c1.1,0,2-0.9,2-1.9v-10v-3.8v-10c0-1.1-0.9-1.9-2-1.9c0,0-12.3,0-12.5,0.1c-5.5,1.1-9.6,6-9.6,11.8
	v3.8c0,5.8,4.1,10.8,9.6,11.9C469.7,327.5,481.9,327.4,481.9,327.4z"/>
<path class="st1" d="M478.2,324.6c0.9,0,1.6-0.7,1.6-1.6v-8v-3v-8c0-0.9-0.7-1.6-1.6-1.6c0,0-8.1,0-8.4,0.1
	c-4.4,0.9-7.6,4.8-7.6,9.4v3c0,4.6,3.2,8.6,7.6,9.5C470.1,324.7,478.2,324.6,478.2,324.6z"/>
<path class="st1" d="M468.9,313.6c0,0.5,0.4,1,1,1s1-0.4,1-1c0-0.5-0.4-1-1-1C469.4,312.6,468.9,313,468.9,313.6z"/>
<path class="st1" d="M685.7,724.8c1,0,1.8-0.8,1.8-1.8v-9.1v-3.4v-9.1c0-1-0.8-1.8-1.8-1.8c0,0-11,0-11.2,0.1
	c-4.9,1-8.6,5.5-8.6,10.8v3.4c0,5.3,3.6,9.8,8.6,10.8C674.7,724.9,685.7,724.8,685.7,724.8z"/>
<path class="st1" d="M682.3,722.3c0.8,0,1.4-0.6,1.4-1.4v-7.3v-2.8v-7.3c0-0.8-0.6-1.4-1.4-1.4c0,0-7.3,0-7.5,0.1
	c-3.9,0.8-6.8,4.4-6.8,8.6v2.8c0,4.2,2.9,7.8,6.8,8.6C675,722.3,682.3,722.3,682.3,722.3z"/>
<path class="st1" d="M674.1,712.2c0,0.5,0.4,0.8,0.8,0.8c0.5,0,0.8-0.4,0.8-0.8s-0.4-0.8-0.8-0.8S674.1,711.7,674.1,712.2z"/>
<line class="st5" x1="794.7" y1="451.2" x2="659.2" y2="451.2"/>
<line class="st6" x1="653.5" y1="459.5" x2="653.5" y2="600.7"/>
<path class="st1" d="M653.5,603.5v2.8 M656.3,451.2h-2.9v2.8 M803.3,451.2h-2.9"/>
<path class="st3" d="M532.5,358h-1.2v-4.3h-2.1l-0.5,1.6v2.7h-2.1c-0.2,0-0.4-0.2-0.3-0.4l2.3-5.9h-2.7l-2.6,6.6
	c-0.3,0.8,0.2,1.6,1.1,1.6h4.2v2.2h2.6v-2.2l0,0l1.2-0.3L532.5,358L532.5,358z M520.7,359.5c-0.7,0-1,0.2-1,1v0.7c0,0.7,0.2,1,1,1
	h0.7c0.7,0,1-0.2,1-1v-0.7c0-0.7-0.2-1-1-1H520.7z M517.9,362.1v-10.5h-2.8l-2.7,1l0.3,1.8l2.4-0.5c-0.1,0.4-0.1,0.8-0.1,1.2v6.9
	h2.9V362.1z"/>
<path class="st3" d="M535.7,336.3h-2.9l-1.1,4.5c-0.1,0.4-0.2,0.8-0.3,1.3h-0.2c-0.1-0.4-0.1-0.9-0.2-1.3l-1.1-4.5H527l2.3,6.9
	c0.1,0.4,0.5,0.7,0.9,0.7h0.5c-0.2,0.4-0.5,0.7-0.8,0.9c-0.5,0.3-1.2,0.3-2.1,0.3l-0.2,1.8c1.1,0.2,2.2,0.2,3.1-0.2
	c1.2-0.4,2-1.2,2.6-2.9L535.7,336.3z M520.9,345l6-11.6h-2.2l-6,11.6H520.9z M517.9,341.5c-1,0.1-1.8,0.1-3.3,0.1
	c-1.2,0-1.6-0.6-1.6-3s0.4-3,1.6-3c1.4,0,2.1,0,3.1,0l0.2-2.1c-1-0.3-1.7-0.4-3.3-0.4c-3.4,0-4.6,1.4-4.6,5.4s1.2,5.4,4.6,5.4
	c1.6,0,2.5-0.1,3.5-0.5L517.9,341.5z"/>
<path class="st3" d="M650.5,706.4l0.1,2.3h4.6c-0.2,0.4-0.4,0.7-0.5,1.1l-2.5,7.1h2.8l3.2-9.1c0.3-0.8-0.2-1.4-1.1-1.4L650.5,706.4
	L650.5,706.4z M648.4,714.2c-0.7,0-1,0.2-1,1v0.7c0,0.7,0.2,1,1,1h0.7c0.7,0,1-0.2,1-1v-0.7c0-0.7-0.2-1-1-1H648.4z M645.6,716.8
	v-10.5h-2.8l-2.7,1l0.3,1.8l2.4-0.5c-0.1,0.4-0.1,0.8-0.1,1.2v6.9L645.6,716.8L645.6,716.8z"/>
<path class="st3" d="M662.3,691.1h-2.9l-1.1,4.5c-0.1,0.4-0.2,0.8-0.3,1.3h-0.2c-0.1-0.4-0.1-0.9-0.2-1.3l-1.1-4.5h-2.9l2.3,6.9
	c0.1,0.4,0.5,0.7,0.9,0.7h0.5c-0.2,0.4-0.5,0.7-0.8,0.9c-0.5,0.3-1.2,0.3-2.1,0.3l-0.2,1.8c1.1,0.2,2.2,0.2,3.1-0.2
	c1.2-0.4,2-1.2,2.6-2.9L662.3,691.1z M647.4,699.8l6-11.6h-2.2l-6,11.6H647.4z M644.4,696.2c-1,0.1-1.8,0.1-3.3,0.1
	c-1.2,0-1.6-0.6-1.6-3s0.4-3,1.6-3c1.4,0,2.1,0,3.1,0l0.2-2.1c-1-0.3-1.7-0.4-3.3-0.4c-3.4,0-4.6,1.4-4.6,5.4s1.2,5.4,4.6,5.4
	c1.6,0,2.5-0.1,3.5-0.5L644.4,696.2z"/>
<path class="st3" d="M421.3,344.3l0.1-2.1h-6.6l-0.3,4.7c0,0.5,0.3,0.9,0.8,0.9l1.6,0.2c1.4,0.1,1.9,0.3,1.9,1.3
	c-0.1,0.8-0.4,1.2-1.7,1.2c-0.7,0-1.7,0-2.7-0.1l-0.3,2.1c1.3,0.2,2.7,0.3,3.7,0.3c3,0,3.8-1.5,3.8-3.4c0-1.7-0.6-3.2-3.1-3.5
	l-1.7-0.2l0.1-1.5h4.4V344.3z M411.5,350.1c-0.7,0-1,0.2-1,1v0.7c0,0.7,0.2,1,1,1h0.7c0.7,0,1-0.2,1-1v-0.7c0-0.7-0.2-1-1-1H411.5z
	 M402,344.3c0.8,0,1.8,0,2.9,0s1.4,0.1,1.4,1c0,0.7-0.1,1.1-1.2,1.1h-2v1.8h2c1.1,0,1.4,0.3,1.4,1.2c0,1.1-0.4,1.3-1.7,1.3
	c-0.9,0-1.6,0-2.9-0.1l-0.1,2c1.2,0.2,2.5,0.3,3.8,0.3c2.8,0,3.8-0.9,3.8-3.1c0-1.6-0.5-2.4-1.9-2.6v-0.1c1.4-0.2,1.7-1.1,1.7-2.6
	c0-1.9-1-2.4-3.5-2.4c-1.2,0-2.3,0.1-3.5,0.3L402,344.3z"/>
<path class="st3" d="M435.8,330.4h-1.1c-0.7,0-0.8-0.2-0.8-0.9c0-0.6,0.1-0.7,0.8-0.7h1.1V330.4z M432.8,331.3
	c-0.5,0-1.2,0.2-1.4,0.8l-0.6,2.4h2.8l0.5-2c0.1-0.3,0.2-0.4,0.7-0.4h1v2.5h2.7V327c-0.9-0.1-1.7-0.1-3.8-0.1
	c-2.8,0-3.5,0.5-3.5,2.4C431.2,330.1,431.5,331,432.8,331.3L432.8,331.3z M424.8,331.9c0-0.3,0.2-0.6,0.6-0.6h1.6v0.9
	c-0.5,0.3-1,0.5-1.5,0.5s-0.7-0.2-0.7-0.6V331.9z M422.7,328.9c1.3-0.1,2.5-0.1,3.2-0.1c0.8,0,1,0.2,1,0.9v0.2h-2.5
	c-1.5,0-2.4,0.7-2.4,1.9v0.8c0,1.4,1.1,2.2,2.5,2.2c1.3,0,2.2-0.7,2.7-1.3l0.3,1.1h2.2v-4.8c0-2.2-1.1-2.9-3.2-2.9
	c-1.1,0-3,0.2-4.1,0.4L422.7,328.9z M420.8,327h-2.7v2.7h-2.3V327h-2.7v7.5h2.7v-3.1h2.3v3.1h2.7V327z M411.5,327h-2.7v2.7h-2.3V327
	h-2.7v7.5h2.7v-3.1h2.3v3.1h2.7V327z M397.2,331.9c0-0.3,0.2-0.6,0.6-0.6h1.6v0.9c-0.5,0.3-1,0.5-1.5,0.5s-0.7-0.2-0.7-0.6V331.9z
	 M395.1,328.9c1.3-0.1,2.5-0.1,3.2-0.1c0.8,0,1,0.2,1,0.9v0.2h-2.5c-1.5,0-2.4,0.7-2.4,1.9v0.8c0,1.4,1.1,2.2,2.5,2.2
	c1.3,0,2.2-0.7,2.7-1.3l0.3,1.1h2.2v-4.8c0-2.2-1.1-2.9-3.2-2.9c-1.1,0-3,0.2-4.1,0.4L395.1,328.9z M387.9,332.6V330h1.4
	c1.1,0,1.4,0.3,1.4,1.4c0,1-0.3,1.3-1.3,1.3L387.9,332.6z M387.9,328.2v-2.3h1.3c1,0,1.3,0.2,1.3,1.1s-0.3,1.2-1.2,1.2L387.9,328.2
	L387.9,328.2z M391.3,329c1.3-0.1,1.9-0.9,1.9-2.4c0-2.2-1-2.7-3.8-2.7c-1.9,0-3,0-4.3,0.1v10.5c1.4,0.1,2.6,0.1,4.8,0.1
	c2.6,0,3.7-0.6,3.7-2.7C393.5,330.2,393,329.3,391.3,329L391.3,329z"/>
<path class="st3" d="M757.2,756.7c-1.2,0-1.3-0.4-1.4-2.7c0.5-0.3,0.8-0.4,1.3-0.4c1,0,1.2,0.3,1.2,1.4
	C758.4,756.2,758.4,756.7,757.2,756.7 M760.4,748.2c-1.1-0.3-2.2-0.3-2.7-0.3c-3,0-4.6,0.7-4.6,5.5c0,4.3,0.9,5.3,4.1,5.3
	c3.2,0,3.9-1.2,3.9-3.8c0-2.3-0.7-3.2-3.1-3.2c-0.9,0-1.6,0.2-2.1,0.6c0.1-2,0.5-2.3,1.8-2.3c1.2,0,1.7,0,2.6,0L760.4,748.2z
	 M750.2,756c-0.7,0-1,0.2-1,1v0.7c0,0.7,0.2,1,1,1h0.7c0.7,0,1-0.2,1-1V757c0-0.7-0.2-1-1-1H750.2z M744.3,756.7
	c-1.2,0-1.3-0.4-1.4-2.7c0.5-0.3,0.8-0.4,1.3-0.4c1,0,1.2,0.3,1.2,1.4C745.5,756.2,745.4,756.7,744.3,756.7 M747.5,748.2
	c-1.1-0.3-2.2-0.3-2.7-0.3c-3,0-4.6,0.7-4.6,5.5c0,4.3,0.9,5.3,4.1,5.3c3.2,0,3.9-1.2,3.9-3.8c0-2.3-0.7-3.2-3.1-3.2
	c-0.9,0-1.6,0.2-2.1,0.6c0.1-2,0.5-2.3,1.8-2.3c1.2,0,1.7,0,2.6,0L747.5,748.2z"/>
<path class="st3" d="M785.9,736.2h-1.1c-0.7,0-0.8-0.2-0.8-0.9c0-0.6,0.1-0.7,0.8-0.7h1.1V736.2z M782.9,737.1
	c-0.5,0-1.2,0.2-1.4,0.8l-0.6,2.4h2.8l0.5-2c0.1-0.4,0.2-0.4,0.7-0.4h1v2.5h2.7v-7.6c-0.9-0.1-1.7-0.1-3.8-0.1
	c-2.8,0-3.5,0.5-3.5,2.4C781.3,735.9,781.6,736.8,782.9,737.1L782.9,737.1z M774.9,737.7c0-0.4,0.2-0.6,0.6-0.6h1.6v0.9
	c-0.5,0.3-1,0.5-1.5,0.5s-0.7-0.2-0.7-0.6L774.9,737.7L774.9,737.7z M772.8,734.7c1.3-0.1,2.5-0.1,3.2-0.1c0.8,0,1,0.2,1,0.9v0.2
	h-2.5c-1.5,0-2.4,0.7-2.4,1.9v0.8c0,1.4,1.1,2.2,2.5,2.2c1.3,0,2.2-0.7,2.7-1.3l0.3,1.1h2.2v-4.8c0-2.2-1.1-2.9-3.2-2.9
	c-1.1,0-3,0.2-4.1,0.4L772.8,734.7z M768.6,736.3c1.8-0.2,1.7-0.5,2.7-3.6h-2.7c-0.8,2.5-0.9,2.7-1.6,2.7h-0.5
	c0.1-0.3,0.1-0.6,0.1-0.9v-1.8h-2.4v1.8c0,0.3,0,0.6,0.1,0.9h-0.5c-0.8,0-0.8-0.3-1.7-2.7h-2.7c1,3.1,0.9,3.3,2.7,3.6v0.1
	c-1.8,0.3-1.9,0.4-2.9,3.9h2.8c1-2.9,1-3,1.7-3h0.6c-0.1,0.2-0.1,0.5-0.1,0.6v2.4h2.4v-2.4c0-0.2,0-0.4-0.1-0.6h0.5h0.1
	c0.7,0,0.7,0.2,1.7,3h2.8C770.5,736.8,770.4,736.7,768.6,736.3L768.6,736.3z M754.5,734.5c0.9,0,1.2,0.4,1.2,2.1c0,1.7-0.2,2-1.2,2
	c-0.9,0-1.2-0.4-1.2-2C753.3,734.9,753.6,734.5,754.5,734.5 M754.5,732.6c-3,0-4.1,1.1-4.1,4s1.1,3.9,4.1,3.9s4.1-1,4.1-3.9
	C758.5,733.6,757.5,732.6,754.5,732.6 M747.3,740.3h2.8l-2.2-3.9l2.1-3.7h-2.7l-1.5,2.8l-1.5-2.8h-2.7l2.1,3.7l-2.2,3.9h2.8l1.6-3
	L747.3,740.3z M740.4,740.3v-7.6H738l-2.4,3.6c-0.2,0.4-0.4,0.7-0.6,1.1l0,0c0.1-0.4,0.1-0.8,0.1-1.2v-3.6h-2.4v7.5h2.4l2.4-3.4
	c0.2-0.3,0.5-0.8,0.6-1.3h0.1c-0.1,0.5-0.1,0.9-0.1,1.3v3.4h2.3V740.3z M726.1,735.1c0.5-0.3,0.8-0.5,1.4-0.5c0.7,0,1,0.3,1,2
	s-0.3,2-1.1,2c-0.5,0-0.9-0.1-1.3-0.3L726.1,735.1L726.1,735.1z M725.5,732.8h-2.2v10.4h2.7v-1.7c0-0.5,0-1.1,0-1.6
	c0.7,0.5,1.5,0.7,2.4,0.7c1.9,0,2.9-0.8,2.9-3.9c0-2.6-0.8-4-2.7-4c-1.2,0-2.4,0.5-2.9,1.2L725.5,732.8z M721.5,729.8h-8.8v10.5h2.8
	v-8.5h3.1v8.5h2.9V729.8z"/>
<path class="st3" d="M732.8,518.7c1.4-0.1,2.2-0.1,3.3-0.1c0.8,0,1.2,0,1.2,0.5c0,0.6-0.7,1.5-1.9,2.7l-2.4,2.4
	c-0.3,0.3-0.4,0.7-0.4,1.1v1.5h7.8v-2.5h-3c-0.5,0-1,0-1.5,0.1l2.6-2.5c1.4-1.4,1.6-2.1,1.6-3.3c0-2-1.5-2.5-3.7-2.5
	c-1.1,0-2.2,0-3.7,0.3L732.8,518.7z M729.8,524.3c-0.7,0-1,0.2-1,1v0.7c0,0.7,0.2,1,1,1h0.7c0.7,0,1-0.2,1-1v-0.7c0-0.7-0.2-1-1-1
	H729.8z M723.8,525c-1.2,0-1.3-0.4-1.4-2.7c0.5-0.3,0.8-0.4,1.3-0.4c1,0,1.2,0.3,1.2,1.4C725,524.5,725,525,723.8,525 M727,516.5
	c-1.1-0.3-2.2-0.3-2.7-0.3c-3,0-4.6,0.7-4.6,5.5c0,4.3,0.9,5.3,4.1,5.3c3.2,0,3.9-1.2,3.9-3.8c0-2.3-0.7-3.2-3.1-3.2
	c-0.9,0-1.6,0.2-2.1,0.6c0.1-2,0.5-2.3,1.8-2.3c1.2,0,1.7,0,2.6,0L727,516.5z"/>
<path class="st3" d="M770.5,506c0-0.3,0.2-0.6,0.6-0.6h1.6v0.9c-0.5,0.3-1,0.5-1.5,0.5s-0.7-0.2-0.7-0.6L770.5,506L770.5,506z
	 M768.4,503c1.3-0.1,2.5-0.1,3.2-0.1c0.8,0,1,0.2,1,0.9v0.2h-2.5c-1.5,0-2.4,0.7-2.4,1.9v0.8c0,1.4,1.1,2.2,2.5,2.2
	c1.3,0,2.2-0.7,2.7-1.3l0.3,1.1h2.2v-4.8c0-2.2-1.1-2.9-3.2-2.9c-1.1,0-3,0.2-4.1,0.4L768.4,503z M766.5,501.1h-2.7v5.7H762v-5.7
	h-2.4v5.7h-1.8v-5.7h-2.7v7.5h11.3v-7.5H766.5z M753.6,508.6V501h-2.4l-2.4,3.6c-0.2,0.3-0.4,0.7-0.6,1.1h-0.1
	c0.1-0.4,0.1-0.8,0.1-1.2v-3.6h-2.4v7.5h2.4l2.4-3.4c0.2-0.3,0.5-0.8,0.6-1.3h0.1c-0.1,0.5-0.1,0.9-0.1,1.3v3.4h2.4V508.6z
	 M744.1,501.1h-2.7v2.7h-2.3v-2.7h-2.7v7.5h2.7v-3.1h2.3v3.1h2.7V501.1z M734.8,503.9h-4.5v1.7h4.5V503.9z M726.1,504.5H725
	c-0.7,0-0.9-0.2-0.9-0.9c0-0.6,0.1-0.7,0.9-0.7h1.1V504.5z M723.1,505.4c-0.5,0-1.2,0.2-1.4,0.8l-0.6,2.4h2.8l0.5-2
	c0.1-0.3,0.2-0.4,0.7-0.4h1v2.5h2.7V501c-0.9-0.1-1.7-0.1-3.8-0.1c-2.8,0-3.5,0.5-3.5,2.4C721.5,504.2,721.9,505.1,723.1,505.4
	L723.1,505.4z M720,501.1h-2.7v2.7H715v-2.7h-2.7v7.5h2.7v-3.1h2.3v3.1h2.7V501.1z M708.6,508.6h2.8l-2.2-3.9l2.1-3.7h-2.7l-1.5,2.8
	l-1.5-2.8h-2.7l2.1,3.7l-2.2,3.9h2.8l1.6-3L708.6,508.6z M702.5,501.1h-2.9l-1.1,4.5c-0.1,0.3-0.2,0.8-0.3,1.3H698
	c-0.1-0.4-0.1-0.9-0.2-1.3l-1.1-4.5h-2.9l2.3,6.9c0.1,0.4,0.5,0.7,0.9,0.7h0.5c-0.2,0.4-0.5,0.7-0.8,0.9c-0.5,0.3-1.2,0.4-2.1,0.3
	l-0.2,1.8c1.1,0.2,2.2,0.2,3.1-0.2c1.2-0.4,2-1.2,2.6-2.9L702.5,501.1z M690.1,503.1c2.1-0.3,2.1-1.2,3.3-5h-2.9
	c-0.8,3.1-1,4.1-2.5,4.1h-0.5c0.1-0.4,0.1-0.9,0.1-1.3v-2.8h-2.8v10.5h2.8v-3.5c0-0.3,0-0.6-0.1-1h0.5c1.5,0,1.6,0.7,2.7,4.5h3
	C692.4,504.3,692.3,503.5,690.1,503.1L690.1,503.1z"/>
<path class="st3" d="M877,356.3c1.7,0.7,2.3,2.9,2.3,6.1c0,3.1-0.6,5.3-2.3,6.1l0.3,1.2c3.2-0.9,4.6-3.2,4.6-7.2
	c0-4.1-1.4-6.4-4.6-7.3L877,356.3z M868.9,358.9c1.4-0.1,2.2-0.1,3.3-0.1c0.8,0,1.2,0,1.2,0.5c0,0.6-0.7,1.5-1.9,2.7l-2.4,2.4
	c-0.3,0.3-0.4,0.7-0.4,1.1v1.5h7.8v-2.5h-3c-0.5,0-1,0-1.5,0.1l2.6-2.5c1.4-1.4,1.6-2.1,1.6-3.3c0-2-1.5-2.5-3.7-2.5
	c-1.1,0-2.2,0-3.8,0.3L868.9,358.9z M865.9,364.5c-0.7,0-1,0.2-1,1v0.7c0,0.7,0.2,1,1,1h0.7c0.7,0,1-0.2,1-1v-0.7c0-0.7-0.2-1-1-1
	H865.9z M856.1,358.9c1.4-0.1,2.2-0.1,3.3-0.1c0.8,0,1.2,0,1.2,0.5c0,0.6-0.7,1.5-1.9,2.7l-2.4,2.4c-0.3,0.3-0.4,0.7-0.4,1.1v1.5
	h7.8v-2.5h-3c-0.5,0-1,0-1.5,0.1l2.6-2.5c1.4-1.4,1.6-2.1,1.6-3.3c0-2-1.5-2.5-3.7-2.5c-1.1,0-2.2,0-3.8,0.3L856.1,358.9z
	 M854.8,355.1c-3.2,0.9-4.6,3.2-4.6,7.3c0,4.1,1.4,6.3,4.6,7.2l0.3-1.2c-1.7-0.8-2.3-3-2.3-6.1c0-3.2,0.6-5.4,2.3-6.1L854.8,355.1z"
	/>
<path class="st3" d="M877.5,344.8h-1.2v-4.3h-2.1l-0.5,1.6v2.7h-2.1c-0.2,0-0.4-0.2-0.3-0.4l2.3-5.9H871l-2.6,6.6
	c-0.3,0.8,0.2,1.6,1.1,1.6h4.2v2.2h2.6v-2.2l0,0l1.2-0.3V344.8z M865.7,346.3c-0.7,0-1,0.2-1,1v0.7c0,0.7,0.2,1,1,1h0.7
	c0.7,0,1-0.2,1-1v-0.7c0-0.7-0.2-1-1-1H865.7z M863.8,344.8h-1.2v-4.3h-2.1l-0.5,1.6v2.7h-2.1c-0.2,0-0.4-0.2-0.3-0.4l2.3-5.9h-2.7
	l-2.6,6.6c-0.3,0.8,0.2,1.6,1.1,1.6h4.2v2.2h2.6v-2.2l0,0l1.2-0.3L863.8,344.8L863.8,344.8z"/>
<path class="st3" d="M137.4,561c1.7,0.7,2.3,2.9,2.3,6.1c0,3.1-0.6,5.3-2.3,6.1l0.3,1.2c3.2-0.9,4.6-3.2,4.6-7.2
	c0-4.1-1.4-6.4-4.6-7.3L137.4,561z M133,569.9c-1.2,0-1.3-0.4-1.4-2.7c0.5-0.3,0.8-0.4,1.3-0.4c1,0,1.2,0.3,1.2,1.4
	C134.3,569.4,134.2,569.9,133,569.9 M136.2,561.4c-1.1-0.3-2.2-0.3-2.7-0.3c-3,0-4.6,0.7-4.6,5.5c0,4.3,0.9,5.3,4.1,5.3
	c3.2,0,3.9-1.2,3.9-3.8c0-2.3-0.7-3.2-3.1-3.2c-0.9,0-1.6,0.2-2.1,0.6c0.1-2,0.5-2.3,1.8-2.3c1.2,0,1.7,0,2.6,0L136.2,561.4z
	 M126.1,569.2c-0.7,0-1,0.2-1,1v0.7c0,0.7,0.2,1,1,1h0.7c0.7,0,1-0.2,1-1v-0.7c0-0.7-0.2-1-1-1H126.1z M123.3,571.8v-10.5h-2.8
	l-2.7,1l0.3,1.8l2.4-0.5c-0.1,0.4-0.1,0.8-0.1,1.2v6.9L123.3,571.8L123.3,571.8z M117.4,559.8c-3.2,0.9-4.6,3.2-4.6,7.3
	s1.4,6.3,4.6,7.2l0.3-1.2c-1.7-0.8-2.3-3-2.3-6.1c0-3.2,0.6-5.4,2.3-6.1L117.4,559.8z"/>
<path class="st3" d="M130.1,545.4c1.4-0.1,2.2-0.1,3.3-0.1c0.8,0,1.2,0,1.2,0.5c0,0.6-0.7,1.5-1.9,2.7l-2.4,2.4
	c-0.3,0.3-0.4,0.7-0.4,1.1v1.5h7.8V551h-3c-0.5,0-1,0-1.5,0.1l2.6-2.5c1.4-1.4,1.6-2.1,1.6-3.3c0-2-1.5-2.5-3.7-2.5
	c-1.1,0-2.2,0-3.8,0.4L130.1,545.4z M127.1,551c-0.7,0-1,0.2-1,1v0.7c0,0.7,0.2,1,1,1h0.7c0.7,0,1-0.2,1-1V552c0-0.7-0.2-1-1-1
	H127.1z M117.6,545.1c0.8,0,1.8,0,2.9,0s1.4,0.1,1.4,1c0,0.7-0.1,1.1-1.2,1.1h-2v1.8h2c1.1,0,1.4,0.3,1.4,1.2c0,1.1-0.4,1.3-1.7,1.3
	c-0.9,0-1.6,0-2.9-0.1l-0.1,2c1.2,0.2,2.5,0.3,3.8,0.3c2.8,0,3.8-0.9,3.8-3.1c0-1.6-0.5-2.4-1.9-2.6l0,0c1.4-0.2,1.7-1.1,1.7-2.6
	c0-1.9-1-2.4-3.5-2.4c-1.2,0-2.3,0.1-3.5,0.3L117.6,545.1z"/>
<ellipse transform="matrix(0.9239 -0.3827 0.3827 0.9239 -62.3796 286.5608)" class="st7" cx="689.1" cy="300.1" rx="33.4" ry="33.4"/>
<path class="st3" d="M712.2,308.3c-2.7,0.3-5.1,0.3-9.2,0.3c-3.5,0-4.4-1.8-4.4-8.3s1-8.3,4.4-8.3c3.9,0,5.7,0,8.6,0.1l0.6-5.8
	c-2.8-0.8-4.9-1.1-9.2-1.1c-9.3,0-12.8,4-12.8,15.1s3.4,15.1,12.8,15.1c4.4,0,7-0.3,9.8-1.3L712.2,308.3z M666.7,291.4
	c2.2,0,5.1-0.1,8.1-0.1s3.8,0.4,3.8,2.7c0,2-0.3,3.2-3.4,3.2h-5.6v5.1h5.6c3.1,0,3.8,0.9,3.8,3.4c0,3-1.1,3.5-4.8,3.5
	c-2.5,0-4.4,0-8.1-0.3l-0.3,5.7c3.3,0.5,7,0.8,10.5,0.8c7.7,0,10.6-2.5,10.5-8.7c0-4.4-1.3-6.7-5.4-7.3v-0.2
	c3.8-0.6,4.6-3.2,4.6-7.3c0-5.2-2.7-6.8-9.8-6.8c-3.2,0-6.5,0.3-9.8,0.8L666.7,291.4z"/>
<path class="st3" d="M725.8,348.8c4.3,0,5.4,1.8,5.4,11.9s-1.2,11.9-5.4,11.9c-4.1,0-5.3-1.8-5.3-11.9
	C720.6,350.7,721.7,348.8,725.8,348.8 M725.9,340.9c-11.6,0-15.5,5-15.5,19.9s4,19.9,15.5,19.9c11.6,0,15.7-5,15.7-19.9
	C741.5,345.9,737.5,340.9,725.9,340.9 M699.9,370.5c-2.7,0-3.5,0.8-3.5,3.5v2.4c0,2.7,0.8,3.5,3.5,3.5h2.4c2.7,0,3.5-0.8,3.5-3.5
	V374c0-2.7-0.8-3.5-3.5-3.5H699.9z M689.6,379.9v-38.2h-10.3l-9.7,3.8l1.2,6.6l8.8-2c-0.3,1.6-0.4,3-0.4,4.5v25.3L689.6,379.9
	L689.6,379.9z M651.9,363.4c4.2,0,5.1,0.9,5.1,5c0,3.8-0.9,4.8-5.1,4.8c-4.3,0-5.3-0.9-5.3-4.8C646.5,364.4,647.5,363.4,651.9,363.4
	 M651.9,348c3.8,0,4.7,0.8,4.7,4.6c0,3.4-0.7,4.2-4.6,4.2c-3.9,0-4.9-0.8-4.9-4.2C647.1,348.8,648,348,651.9,348 M643.6,360.2
	c-5.5,0.5-6.8,5.1-6.8,10.2c0,7.4,3.1,10.3,15,10.3c12.1-0.1,15-2.9,15-10.3c0-5.1-1.3-9.7-6.7-10.2V360c4.1-0.4,5.8-4.6,5.8-8.7
	c0-7.1-2.4-10.2-14.1-10.2c-11.5,0-14,3.1-14,10.2c0,4.1,1.7,8.3,5.8,8.7V360.2z"/>
<path class="st3" d="M707.2,432v-15h-4.1l-3.8,1.5l0.5,2.6l3.5-0.8c-0.1,0.6-0.2,1.2-0.2,1.8v9.9H707.2z M697,428.4
	c-1,0-1.4,0.3-1.4,1.4v1c0,1,0.3,1.4,1.4,1.4h0.9c1,0,1.4-0.3,1.4-1.4v-1c0-1-0.3-1.4-1.4-1.4H697z M683,420.3
	c2.1-0.1,3.1-0.1,4.7-0.1c1.1,0,1.6,0.1,1.6,0.7c0,0.8-1,2.2-2.7,3.9l-3.4,3.5c-0.4,0.5-0.6,1-0.6,1.6v2.1h11.1v-3.5h-4.3
	c-0.7,0-1.4,0-2.1,0.2l3.7-3.6c2-2.1,2.3-3,2.3-4.7c0-2.9-2.1-3.6-5.3-3.6c-1.6,0-3.2,0.1-5.4,0.5L683,420.3z M670.2,420.3
	c2.1-0.1,3.1-0.1,4.7-0.1c1.1,0,1.6,0.1,1.6,0.7c0,0.8-1,2.2-2.7,3.9l-3.4,3.5c-0.4,0.5-0.6,1-0.6,1.6v2.1h11.1v-3.5h-4.3
	c-0.7,0-1.4,0-2.1,0.2l3.7-3.6c2-2.1,2.3-3,2.3-4.7c0-2.9-2.1-3.6-5.3-3.6c-1.6,0-3.2,0.1-5.4,0.5L670.2,420.3z"/>
<path class="st3" d="M765.9,402.3c0-0.5,0.3-0.8,0.9-0.8h2.3v1.3c-0.7,0.5-1.5,0.7-2.1,0.7c-0.7,0-1.1-0.3-1.1-0.9L765.9,402.3
	L765.9,402.3z M763,398c1.8-0.1,3.5-0.2,4.6-0.2s1.5,0.3,1.5,1.2v0.3h-3.6c-2.1,0-3.4,1-3.4,2.8v1.1c0,2,1.6,3.1,3.6,3.1
	c1.9,0,3.1-1,3.8-1.9l0.4,1.6h3.1v-6.9c0-3.2-1.6-4.2-4.5-4.2c-1.6,0-4.3,0.2-5.9,0.5L763,398z M761.2,398.2v-3h-10.8v3h3.4v7.8h3.9
	v-7.8H761.2z M742,402.3c0-0.5,0.3-0.8,0.9-0.8h2.3v1.3c-0.7,0.5-1.5,0.7-2.1,0.7c-0.7,0-1.1-0.3-1.1-0.9L742,402.3L742,402.3z
	 M739,398c1.8-0.1,3.5-0.2,4.6-0.2s1.5,0.3,1.5,1.2v0.3h-3.6c-2.1,0-3.4,1-3.4,2.8v1.1c0,2,1.6,3.1,3.6,3.1c1.9,0,3.1-1,3.8-1.9
	l0.4,1.6h3.1v-6.9c0-3.2-1.6-4.2-4.5-4.2c-1.6,0-4.3,0.2-5.9,0.5L739,398z M736.3,395.2h-3.9v3.8h-3.3v-3.8h-3.9V406h3.9v-4.4h3.3
	v4.4h3.9V395.2z M718.1,395.2c-0.8,0-1.3,0.4-1.5,1.2l-0.9,4c-0.1,0.5-0.1,1.1-0.2,1.6h-0.2c-0.1-0.5-0.1-1.1-0.2-1.6l-1-4
	c-0.1-0.8-0.6-1.2-1.5-1.2h-3.3c-0.9,0-1.3,0.5-1.4,1.3l-0.3,9.4h3.6l0.2-7.9h0.3l1.3,5.2c0.2,0.8,0.7,1.2,1.5,1.2h1.8
	c0.8,0,1.3-0.4,1.5-1.2l1.3-5.2h0.3l0.3,7.9h3.6l-0.3-9.4c0-0.9-0.5-1.3-1.3-1.3H718.1z M700.1,397.7c1.3,0,1.7,0.5,1.7,2.9
	s-0.3,2.9-1.7,2.9c-1.3,0-1.7-0.5-1.7-2.9C698.4,398.2,698.8,397.7,700.1,397.7 M700.1,394.9c-4.2,0-5.8,1.5-5.8,5.7
	c0,4.1,1.6,5.6,5.8,5.6s5.8-1.5,5.8-5.6C705.9,396.5,704.4,394.9,700.1,394.9 M689.3,400.4c2.5-0.4,2.3-0.6,3.7-5.1h-4
	c-0.9,3.6-1,3.9-2.5,3.9H686c0.1-0.5,0.2-0.9,0.2-1.4v-2.5h-3.9V406h3.9v-3.4c0-0.3,0-0.6-0.1-0.9h0.9c1.1,0,1.2,0.3,2.4,4.3h4.1
	c-1.5-5.1-1.5-5.2-4.1-5.6l0,0H689.3z M671.5,400.1H670c-1,0-1.2-0.3-1.2-1.3c0-0.8,0.2-1,1.2-1h1.5V400.1z M667.3,401.4
	c-0.7,0.1-1.8,0.2-2.1,1.2l-0.8,3.4h4l0.7-2.9c0.1-0.5,0.3-0.6,1-0.6h1.4v3.5h3.8v-10.9c-1.3-0.2-2.5-0.2-5.4-0.2
	c-4,0-4.9,0.8-4.9,3.5C665,399.7,665.5,401,667.3,401.4L667.3,401.4z M655.8,402.3c0-0.5,0.3-0.8,0.9-0.8h2.3v1.3
	c-0.7,0.5-1.5,0.7-2.1,0.7c-0.7,0-1.1-0.3-1.1-0.9L655.8,402.3L655.8,402.3z M652.9,398c1.8-0.1,3.5-0.2,4.6-0.2s1.5,0.3,1.5,1.2
	v0.3h-3.6c-2.1,0-3.4,1-3.4,2.8v1.1c0,2,1.6,3.1,3.6,3.1c1.9,0,3.1-1,3.8-1.9l0.4,1.6h3.1v-6.9c0-3.2-1.6-4.2-4.5-4.2
	c-1.6,0-4.3,0.2-5.9,0.5L652.9,398z M650.2,395.2h-6.5c-1.9,0-2.8,1-3,2.8c-0.2,2-0.3,3.5-0.6,4.2c-0.2,0.9-0.9,0.8-1.8,1l0.4,2.9
	c2.4,0.4,4.5-0.2,4.9-2.8c0.2-1,0.5-2.9,0.6-4.5c0.1-0.6,0.4-0.9,1-0.9h0.9v8.2h3.9v-10.9H650.2z M637,406v-10.8h-3.4l-3.4,5.2
	c-0.3,0.5-0.6,1-0.8,1.6h-0.1c0.1-0.6,0.2-1.1,0.2-1.7v-5.1H626V406h3.4l3.4-4.9c0.3-0.5,0.7-1.2,0.9-1.8h0.1
	c-0.1,0.7-0.2,1.3-0.2,1.9v4.8H637z M619.5,398.1c2.9-0.4,3-1.7,4.6-7.1H620c-1.3,4.5-1.6,5.8-3.1,5.8h-0.7c0.1-0.6,0.2-1.3,0.2-1.9
	v-4h-3.9v4c0,0.6,0.1,1.2,0.2,1.9h-0.8c-1.4,0-1.7-1.3-3-5.8h-4.1c1.6,5.4,1.7,6.7,4.6,7.1v0.1c-3,0.4-3.2,1.6-5,7.7h4.3
	c1.7-5.4,1.8-6.4,3.3-6.4h0.8c-0.1,0.5-0.2,1-0.2,1.4v5h3.9v-5c0-0.4-0.1-0.9-0.2-1.4h0.7c1.5,0,1.7,1,3.3,6.4h4.3
	c-1.8-6.1-2-7.3-5-7.7L619.5,398.1L619.5,398.1z"/>
<path class="st3" d="M263.1,367.4h-1.8v-6.2h-3.1l-0.6,2.3v3.8h-2.9c-0.3,0-0.6-0.2-0.4-0.6l3.3-8.5h-3.8l-3.7,9.5
	c-0.5,1.2,0.3,2.3,1.6,2.3h6v3.1h3.7V370l0,0l1.7-0.4L263.1,367.4L263.1,367.4z M246.3,369.6c-1,0-1.4,0.3-1.4,1.4v1
	c0,1,0.3,1.4,1.4,1.4h0.9c1,0,1.4-0.3,1.4-1.4v-1c0-1-0.3-1.4-1.4-1.4H246.3z M232.8,361.2c1.1,0,2.6,0,4.2,0c1.5,0,2,0.2,2,1.4
	c0,1-0.1,1.6-1.8,1.6h-2.9v2.6h2.9c1.6,0,2,0.5,2,1.8c0,1.5-0.6,1.8-2.5,1.8c-1.3,0-2.3,0-4.1-0.1l-0.1,2.9c1.7,0.2,3.6,0.4,5.4,0.4
	c4,0,5.4-1.3,5.4-4.5c0-2.3-0.7-3.4-2.8-3.8v-0.1c1.9-0.3,2.4-1.6,2.4-3.8c0-2.7-1.4-3.5-5.1-3.5c-1.6,0-3.3,0.1-5,0.4L232.8,361.2z
	 M229.9,373.3v-15h-4.1l-3.8,1.5l0.5,2.6l3.5-0.8c-0.1,0.6-0.2,1.2-0.2,1.8v9.9H229.9z"/>
<path class="st3" d="M319.6,343.5c0-0.5,0.3-0.8,0.9-0.8h2.3v1.3c-0.7,0.5-1.5,0.7-2.1,0.7c-0.7,0-1.1-0.3-1.1-0.9L319.6,343.5
	L319.6,343.5z M316.7,339.3c1.8-0.1,3.5-0.2,4.6-0.2s1.5,0.3,1.5,1.2v0.3h-3.6c-2.1,0-3.4,1-3.4,2.8v1.1c0,2,1.6,3.1,3.6,3.1
	c1.9,0,3.1-1,3.8-1.9l0.4,1.6h3.1v-6.9c0-3.2-1.6-4.2-4.5-4.2c-1.6,0-4.3,0.2-5.9,0.5L316.7,339.3z M314.9,339.5v-3h-10.8v3h3.4v7.8
	h3.9v-7.8H314.9z M295.7,343.5c0-0.5,0.3-0.8,0.9-0.8h2.3v1.3c-0.7,0.5-1.5,0.7-2.1,0.7c-0.7,0-1.1-0.3-1.1-0.9L295.7,343.5
	L295.7,343.5z M292.7,339.3c1.8-0.1,3.5-0.2,4.6-0.2s1.5,0.3,1.5,1.2v0.3h-3.6c-2.1,0-3.4,1-3.4,2.8v1.1c0,2,1.6,3.1,3.6,3.1
	c1.9,0,3.1-1,3.8-1.9l0.4,1.6h3.1v-6.9c0-3.2-1.6-4.2-4.5-4.2c-1.6,0-4.3,0.2-5.9,0.5L292.7,339.3z M290,336.5h-3.9v3.8h-3.3v-3.8
	H279v10.8h3.9v-4.4h3.3v4.4h3.9L290,336.5L290,336.5z M271.8,336.5c-0.8,0-1.3,0.4-1.5,1.2l-0.9,4c-0.1,0.5-0.1,1.1-0.2,1.6H269
	c-0.1-0.5-0.1-1.1-0.2-1.6l-1-4c-0.1-0.8-0.6-1.2-1.5-1.2H263c-0.9,0-1.3,0.5-1.4,1.3l-0.3,9.4h3.6l0.2-7.9h0.3l1.3,5.2
	c0.2,0.8,0.7,1.2,1.5,1.2h1.8c0.8,0,1.3-0.4,1.5-1.2l1.3-5.2h0.3l0.3,7.9h3.6l-0.3-9.4c0-0.9-0.5-1.3-1.3-1.3H271.8z M253.8,339
	c1.3,0,1.7,0.5,1.7,2.9s-0.3,2.9-1.7,2.9c-1.3,0-1.7-0.5-1.7-2.9S252.5,339,253.8,339 M253.8,336.2c-4.2,0-5.8,1.5-5.8,5.7
	c0,4.1,1.6,5.6,5.8,5.6s5.8-1.5,5.8-5.6C259.6,337.7,258.1,336.2,253.8,336.2 M243,341.6c2.5-0.4,2.3-0.6,3.7-5.1h-4
	c-0.9,3.6-1,3.9-2.5,3.9h-0.5c0.1-0.5,0.2-0.9,0.2-1.4v-2.5H236v10.8h3.9v-3.4c0-0.3,0-0.6-0.1-0.9h0.9c1.1,0,1.2,0.3,2.4,4.3h4.1
	C245.7,342.2,245.7,342.1,243,341.6L243,341.6L243,341.6z M225.2,341.3h-1.5c-1,0-1.2-0.3-1.2-1.3c0-0.8,0.2-1,1.2-1h1.5V341.3z
	 M221,342.7c-0.7,0.1-1.8,0.2-2.1,1.2l-0.8,3.4h4l0.7-2.9c0.1-0.5,0.3-0.6,1-0.6h1.4v3.5h3.8v-10.9c-1.3-0.2-2.5-0.2-5.4-0.2
	c-4,0-4.9,0.8-4.9,3.5C218.7,341,219.2,342.2,221,342.7L221,342.7z M209.5,343.5c0-0.5,0.3-0.8,0.9-0.8h2.3v1.3
	c-0.7,0.5-1.5,0.7-2.1,0.7c-0.7,0-1.1-0.3-1.1-0.9L209.5,343.5L209.5,343.5z M206.6,339.3c1.8-0.1,3.5-0.2,4.6-0.2s1.5,0.3,1.5,1.2
	v0.3h-3.6c-2.1,0-3.4,1-3.4,2.8v1.1c0,2,1.6,3.1,3.6,3.1c1.9,0,3.1-1,3.8-1.9l0.4,1.6h3.1v-6.9c0-3.2-1.6-4.2-4.5-4.2
	c-1.6,0-4.3,0.2-5.9,0.5L206.6,339.3z M203.9,336.5h-6.5c-1.9,0-2.8,1-3,2.8c-0.2,2-0.3,3.5-0.6,4.2c-0.2,0.9-0.9,0.8-1.8,1l0.4,2.9
	c2.4,0.4,4.5-0.2,4.9-2.8c0.2-1,0.5-2.9,0.6-4.5c0.1-0.6,0.4-0.9,1-0.9h0.9v8.2h3.9v-10.9H203.9z M190.7,347.3v-10.8h-3.4l-3.4,5.2
	c-0.3,0.5-0.6,1-0.8,1.6H183c0.1-0.6,0.2-1.1,0.2-1.7v-5.1h-3.5v10.8h3.4l3.4-4.9c0.3-0.5,0.7-1.2,0.9-1.8h0.1
	c-0.1,0.7-0.2,1.3-0.2,1.9v4.8H190.7z M173.2,339.4c2.9-0.4,3-1.7,4.6-7.1h-4.1c-1.3,4.5-1.6,5.8-3.1,5.8h-0.7
	c0.1-0.6,0.2-1.3,0.2-1.9v-4h-3.9v4c0,0.6,0.1,1.2,0.2,1.9h-0.8c-1.4,0-1.7-1.3-3-5.8h-4.1c1.6,5.4,1.7,6.7,4.6,7.1v0.1
	c-3,0.4-3.2,1.6-5,7.7h4.3c1.7-5.4,1.8-6.4,3.3-6.4h0.8c-0.1,0.5-0.2,1-0.2,1.4v5h3.9v-5c0-0.4-0.1-0.9-0.2-1.4h0.7
	c1.5,0,1.7,1,3.3,6.4h4.3c-1.8-6.1-2-7.3-5-7.7v-0.1H173.2z"/>
<path class="st3" d="M353.6,561.7c1.1,0,2.6,0,4.2,0c1.5,0,2,0.2,2,1.4c0,1-0.1,1.6-1.8,1.6h-2.9v2.6h2.9c1.6,0,2,0.5,2,1.8
	c0,1.5-0.6,1.8-2.5,1.8c-1.3,0-2.3,0-4.1-0.1l-0.1,2.9c1.7,0.2,3.6,0.4,5.4,0.4c4,0,5.4-1.3,5.4-4.5c0-2.3-0.7-3.4-2.8-3.8v-0.1
	c1.9-0.3,2.4-1.6,2.4-3.8c0-2.7-1.4-3.5-5.1-3.5c-1.6,0-3.3,0.1-5,0.4V561.7z M349.2,570.1c-1,0-1.4,0.3-1.4,1.4v1
	c0,1,0.3,1.4,1.4,1.4h0.9c1,0,1.4-0.3,1.4-1.4v-1c0-1-0.3-1.4-1.4-1.4H349.2z M336.6,558.8l0.2,3.3h6.5c-0.3,0.5-0.5,1.1-0.7,1.6
	l-3.6,10.1h4l4.5-13c0.4-1.1-0.3-2-1.5-2L336.6,558.8L336.6,558.8z M334.5,573.8v-15h-4.1l-3.8,1.5l0.5,2.6l3.5-0.8
	c-0.1,0.6-0.2,1.2-0.2,1.8v9.9H334.5z"/>
<path class="st3" d="M422.5,544c0-0.5,0.3-0.8,0.9-0.8h2.3v1.3c-0.7,0.5-1.5,0.7-2.1,0.7c-0.7,0-1.1-0.3-1.1-0.9L422.5,544
	L422.5,544z M419.6,539.8c1.8-0.1,3.5-0.2,4.6-0.2s1.5,0.3,1.5,1.2v0.3h-3.6c-2.1,0-3.4,1-3.4,2.8v1.1c0,2,1.6,3.1,3.6,3.1
	c1.9,0,3.1-1,3.8-1.9l0.4,1.6h3.1v-6.9c0-3.2-1.6-4.2-4.5-4.2c-1.6,0-4.3,0.2-5.9,0.5L419.6,539.8z M417.8,539.9v-3H407v3h3.4v7.8
	h3.9v-7.8H417.8z M398.6,544c0-0.5,0.3-0.8,0.9-0.8h2.3v1.3c-0.7,0.5-1.5,0.7-2.1,0.7c-0.7,0-1.1-0.3-1.1-0.9L398.6,544L398.6,544z
	 M395.6,539.8c1.8-0.1,3.5-0.2,4.6-0.2s1.5,0.3,1.5,1.2v0.3h-3.6c-2.1,0-3.4,1-3.4,2.8v1.1c0,2,1.6,3.1,3.6,3.1c1.9,0,3.1-1,3.8-1.9
	l0.4,1.6h3.1v-6.9c0-3.2-1.6-4.2-4.5-4.2c-1.6,0-4.3,0.2-5.9,0.5L395.6,539.8z M392.9,537H389v3.8h-3.3V537h-3.9v10.8h3.9v-4.4h3.3
	v4.4h3.9V537z M374.7,537c-0.8,0-1.3,0.4-1.5,1.2l-0.9,4c-0.1,0.5-0.1,1.1-0.2,1.6h-0.2c-0.1-0.5-0.1-1.1-0.2-1.6l-1-4
	c-0.1-0.8-0.6-1.2-1.5-1.2h-3.3c-0.9,0-1.3,0.5-1.4,1.3l-0.3,9.4h3.6l0.2-7.9h0.3l1.3,5.2c0.2,0.8,0.7,1.2,1.5,1.2h1.8
	c0.8,0,1.3-0.4,1.5-1.2l1.3-5.2h0.3l0.3,7.9h3.6l-0.3-9.4c0-0.9-0.5-1.3-1.3-1.3H374.7z M356.7,539.4c1.3,0,1.7,0.5,1.7,2.9
	s-0.3,2.9-1.7,2.9c-1.3,0-1.7-0.5-1.7-2.9C355.1,540,355.4,539.4,356.7,539.4 M356.7,536.7c-4.2,0-5.8,1.5-5.8,5.7
	c0,4.1,1.6,5.6,5.8,5.6c4.2,0,5.8-1.5,5.8-5.6C362.5,538.2,361,536.7,356.7,536.7 M345.9,542.1c2.5-0.4,2.3-0.6,3.7-5.1h-4
	c-0.9,3.6-1,3.9-2.5,3.9h-0.5c0.1-0.5,0.2-0.9,0.2-1.4V537h-3.9v10.8h3.9v-3.4c0-0.3,0-0.6-0.1-0.9h0.9c1.1,0,1.2,0.3,2.4,4.3h4.1
	c-1.5-5.1-1.5-5.2-4.1-5.6v-0.1H345.9z M328.1,541.8h-1.5c-1,0-1.2-0.3-1.2-1.3c0-0.8,0.2-1,1.2-1h1.5V541.8z M323.9,543.2
	c-0.7,0.1-1.8,0.2-2.1,1.2l-0.8,3.4h4l0.7-2.9c0.1-0.5,0.3-0.6,1-0.6h1.4v3.5h3.8v-10.9c-1.3-0.2-2.5-0.2-5.4-0.2
	c-4,0-4.9,0.8-4.9,3.5C321.6,541.5,322.1,542.7,323.9,543.2L323.9,543.2z M312.4,544c0-0.5,0.3-0.8,0.9-0.8h2.3v1.3
	c-0.7,0.5-1.5,0.7-2.1,0.7c-0.7,0-1.1-0.3-1.1-0.9L312.4,544L312.4,544z M309.5,539.8c1.8-0.1,3.5-0.2,4.6-0.2s1.5,0.3,1.5,1.2v0.3
	H312c-2.1,0-3.4,1-3.4,2.8v1.1c0,2,1.6,3.1,3.6,3.1c1.9,0,3.1-1,3.8-1.9l0.4,1.6h3.1v-6.9c0-3.2-1.6-4.2-4.5-4.2
	c-1.6,0-4.3,0.2-5.9,0.5L309.5,539.8z M306.8,537h-6.5c-1.9,0-2.8,1-3,2.8c-0.2,2-0.3,3.5-0.6,4.2c-0.2,0.9-0.9,0.8-1.8,1l0.4,2.9
	c2.4,0.4,4.5-0.2,4.9-2.8c0.2-1,0.5-2.9,0.6-4.5c0.1-0.6,0.4-0.9,1-0.9h0.9v8.2h3.9V537H306.8z M293.6,547.8V537h-3.4l-3.4,5.2
	c-0.3,0.5-0.6,1-0.8,1.6h-0.1c0.1-0.6,0.2-1.1,0.2-1.7V537h-3.5v10.8h3.4l3.4-4.9c0.3-0.5,0.7-1.2,0.9-1.8h0.1
	c-0.1,0.7-0.2,1.3-0.2,1.9v4.8H293.6z M276.1,539.9c2.9-0.4,3-1.7,4.6-7.1h-4.1c-1.3,4.5-1.6,5.8-3.1,5.8h-0.7
	c0.1-0.6,0.2-1.3,0.2-1.9v-4h-4v4c0,0.6,0.1,1.2,0.2,1.9h-0.8c-1.4,0-1.7-1.3-3-5.8h-4.1c1.6,5.4,1.7,6.7,4.6,7.1v0.1
	c-3,0.4-3.2,1.6-5,7.7h4.3c1.7-5.4,1.8-6.4,3.3-6.4h0.8c-0.1,0.5-0.2,1-0.2,1.4v5h3.9v-5c0-0.4-0.1-0.9-0.2-1.4h0.7
	c1.5,0,1.7,1,3.3,6.4h4.3C279.3,541.6,279.1,540.4,276.1,539.9L276.1,539.9L276.1,539.9z"/>
<path class="st3" d="M468.5,417c1.2,0,1.5,0.5,1.5,3.3s-0.3,3.3-1.5,3.3c-1.1,0-1.4-0.5-1.4-3.3C467,417.5,467.3,417,468.5,417
	 M468.5,414.8c-3.2,0-4.3,1.4-4.3,5.4c0,4.1,1.1,5.5,4.3,5.5c3.2,0,4.3-1.4,4.3-5.5C472.8,416.2,471.7,414.8,468.5,414.8
	 M461.3,422.9c-0.7,0-1,0.2-1,1v0.7c0,0.7,0.2,1,1,1h0.7c0.7,0,1-0.2,1-1v-0.7c0-0.7-0.2-1-1-1H461.3z M458.8,417.1l0.1-2.1h-6.6
	l-0.3,4.7c0,0.5,0.3,0.9,0.8,0.9l1.6,0.2c1.4,0.1,1.9,0.3,1.9,1.3c-0.1,0.8-0.4,1.2-1.7,1.2c-0.7,0-1.7,0-2.7-0.1l-0.3,2.1
	c1.3,0.2,2.7,0.3,3.7,0.3c3,0,3.8-1.5,3.8-3.4c0-1.7-0.6-3.2-3.1-3.5l-1.7-0.2l0.1-1.5h4.4V417.1z"/>
<path class="st3" d="M489.6,402.1c0.5-0.3,0.8-0.5,1.4-0.5c0.7,0,1,0.3,1,2s-0.3,2-1.1,2c-0.5,0-0.9-0.1-1.3-0.3V402.1z
	 M489.1,399.8h-2.2v10.4h2.7v-1.7c0-0.5,0-1.1,0-1.6c0.7,0.5,1.5,0.7,2.4,0.7c1.9,0,2.9-0.8,2.9-3.9c0-2.6-0.8-4-2.7-4
	c-1.2,0-2.4,0.5-2.9,1.2L489.1,399.8z M481.5,401.5c0.9,0,1.2,0.4,1.2,2c0,1.7-0.2,2-1.2,2c-0.9,0-1.2-0.4-1.2-2
	S480.6,401.5,481.5,401.5 M481.5,399.5c-3,0-4.1,1.1-4.1,4s1.1,3.9,4.1,3.9s4.1-1,4.1-3.9S484.5,399.5,481.5,399.5 M472.8,405.5
	h-2.2c0.4-0.9,0.7-1.9,0.9-3.3c0-0.4,0.3-0.6,0.7-0.6h0.7v3.9H472.8z M476.7,405.5h-1.3v-5.7h-4.1c-1.4,0-2,0.6-2.2,1.8
	c-0.2,1.3-0.4,2.6-0.9,3.9h-0.9v3.9h1.8l0.2-2.1h5.4l0.2,2.1h1.8V405.5z M466.2,407.3v-7.6h-2.4l-2.4,3.6c-0.2,0.3-0.4,0.7-0.6,1.1
	h-0.1c0.1-0.4,0.1-0.8,0.1-1.2v-3.6h-2.4v7.5h2.4l2.4-3.4c0.2-0.3,0.5-0.8,0.6-1.3h0.1c-0.1,0.5-0.1,0.9-0.1,1.3v3.4h2.4V407.3z
	 M451.9,402.1c0.5-0.3,0.8-0.5,1.4-0.5c0.7,0,1,0.3,1,2s-0.3,2-1.1,2c-0.5,0-0.9-0.1-1.3-0.3V402.1z M451.3,399.8h-2.2v10.4h2.7
	v-1.7c0-0.5,0-1.1,0-1.6c0.7,0.5,1.5,0.7,2.4,0.7c1.9,0,2.9-0.8,2.9-3.9c0-2.6-0.8-4-2.7-4c-1.2,0-2.4,0.5-2.9,1.2L451.3,399.8z
	 M443.7,401.5c0.9,0,1.2,0.4,1.2,2c0,1.7-0.2,2-1.2,2c-0.9,0-1.2-0.4-1.2-2S442.8,401.5,443.7,401.5 M443.7,399.5
	c-3,0-4.1,1.1-4.1,4s1.1,3.9,4.1,3.9s4.1-1,4.1-3.9C447.8,400.6,446.7,399.5,443.7,399.5 M435.5,401.8c2.1-0.3,2.1-1.2,3.3-5h-2.9
	c-0.8,3.1-1,4.1-2.5,4.1h-0.5c0.1-0.4,0.1-0.9,0.1-1.3v-2.8h-2.8v10.5h2.8v-3.5c0-0.3,0-0.6-0.1-1h0.5c1.5,0,1.6,0.7,2.7,4.5h3
	C437.8,403,437.7,402.2,435.5,401.8L435.5,401.8z"/>
<rect x="538.8" y="247.2" class="st3" width="14.8" height="19.3"/>
<rect x="538.8" y="247.2" class="st1" width="14.8" height="19.3"/>
</svg>
