<?xml version="1.0" encoding="utf-8"?>
<!-- Generator: Adobe Illustrator 26.5.0, SVG Export Plug-In . SVG Version: 6.00 Build 0)  -->
<svg version="1.1" id="Слой_1" xmlns="http://www.w3.org/2000/svg" xmlns:xlink="http://www.w3.org/1999/xlink" x="0px" y="0px"
	 viewBox="0 0 1300 1300" style="enable-background:new 0 0 1300 1300;" xml:space="preserve">
<style type="text/css">
	.st0{fill:#FFF6A1;}
	.st1{fill:#373437;}
	.st2{fill:none;stroke:#373437;}
	.st3{fill:#FFFFFF;}
	.st4{fill:none;stroke:#373437;stroke-dasharray:1.951,1.951;}
	.st5{fill:none;stroke:#373437;stroke-dasharray:2.035,2.035;}
	.st6{fill:none;stroke:#373437;stroke-miterlimit:4.0001;}
</style>
<rect x="211.7" y="299.4" class="st0" width="971.6" height="297"/>
<rect x="211.7" y="385.4" class="st0" width="886.1" height="482.1"/>
<rect x="211.7" y="762.2" class="st0" width="285.6" height="285.2"/>
<rect x="317.5" y="632.6" class="st0" width="285.6" height="285.2"/>
<rect x="211.7" y="834.7" class="st0" width="151.5" height="284.2"/>
<rect x="459.5" y="1037.9" class="st1" width="44" height="33.1"/>
<rect x="362.4" y="1048.2" class="st1" width="140.6" height="22.8"/>
<rect x="362.4" y="915.7" class="st1" width="10.3" height="133.2"/>
<rect x="362.4" y="915.7" class="st2" width="10.3" height="133.2"/>
<rect x="575.8" y="296.9" class="st1" width="82.2" height="50.5"/>
<rect x="575.8" y="296.9" class="st2" width="82.2" height="50.5"/>
<rect x="173.4" y="249.1" class="st1" width="1060.6" height="49.7"/>
<rect x="173.4" y="249.1" class="st2" width="1060.6" height="49.7"/>
<rect x="1212.8" y="274.7" class="st1" width="21.3" height="119.1"/>
<rect x="1212.8" y="274.7" class="st2" width="21.3" height="119.1"/>
<rect x="1212.8" y="385" class="st2" width="21.3" height="148.6"/>
<rect x="1212.8" y="523.4" class="st1" width="21.3" height="79.6"/>
<rect x="1212.8" y="523.4" class="st2" width="21.3" height="79.6"/>
<rect x="1182.4" y="268.6" class="st1" width="42.5" height="119.1"/>
<rect x="1182.4" y="268.6" class="st2" width="42.5" height="119.1"/>
<rect x="1182.4" y="529.5" class="st1" width="42.5" height="73.5"/>
<rect x="1182.4" y="529.5" class="st2" width="42.5" height="73.5"/>
<rect x="1083" y="564" class="st1" width="113.9" height="39"/>
<rect x="1083" y="564" class="st2" width="113.9" height="39"/>
<rect x="665.1" y="575" class="st1" width="431.1" height="10.7"/>
<rect x="665.1" y="575" class="st2" width="431.1" height="10.7"/>
<rect x="823.5" y="552.3" class="st1" width="11.7" height="25.4"/>
<rect x="823.5" y="552.3" class="st2" width="11.7" height="25.4"/>
<rect x="823.5" y="293.8" class="st1" width="11.7" height="187.2"/>
<rect x="823.5" y="293.8" class="st2" width="11.7" height="187.2"/>
<rect x="832.2" y="563.8" class="st1" width="75.7" height="15.2"/>
<rect x="832.2" y="563.8" class="st2" width="75.7" height="15.2"/>
<rect x="813.1" y="297.7" class="st1" width="16.7" height="90.5"/>
<rect x="813.1" y="297.7" class="st2" width="16.7" height="90.5"/>
<rect x="799.4" y="465.8" class="st1" width="27.1" height="11.3"/>
<rect x="799.4" y="465.8" class="st2" width="27.1" height="11.3"/>
<rect x="629.8" y="465.8" class="st1" width="119.3" height="11.3"/>
<rect x="629.8" y="465.8" class="st2" width="119.3" height="11.3"/>
<rect x="654.7" y="291.2" class="st1" width="11.3" height="174.2"/>
<rect x="654.7" y="291.2" class="st2" width="11.3" height="174.2"/>
<rect x="554.5" y="465.8" class="st1" width="27.1" height="11.3"/>
<rect x="554.5" y="465.8" class="st2" width="27.1" height="11.3"/>
<rect x="481.5" y="564" class="st1" width="82.2" height="21.8"/>
<rect x="481.5" y="564" class="st2" width="82.2" height="21.8"/>
<rect x="554.5" y="297.7" class="st1" width="11.3" height="288"/>
<rect x="554.5" y="297.7" class="st2" width="11.3" height="288"/>
<rect x="546.6" y="667.5" class="st1" width="129.5" height="12.8"/>
<rect x="546.6" y="667.5" class="st2" width="129.5" height="12.8"/>
<rect x="546.6" y="654.9" class="st1" width="12.8" height="25.4"/>
<rect x="546.6" y="654.9" class="st2" width="12.8" height="25.4"/>
<rect x="663.4" y="654.9" class="st1" width="12.8" height="25.4"/>
<rect x="663.4" y="654.9" class="st2" width="12.8" height="25.4"/>
<rect x="601.7" y="670.1" class="st1" width="10.7" height="260.9"/>
<rect x="601.7" y="670.1" class="st2" width="10.7" height="260.9"/>
<rect x="607" y="855.8" class="st1" width="516" height="21.9"/>
<rect x="491" y="920.8" class="st1" width="118" height="10.3"/>
<rect x="643.8" y="855.8" class="st2" width="475.4" height="21.9"/>
<rect x="1083" y="822.1" class="st1" width="23.9" height="42.1"/>
<rect x="1083" y="822.1" class="st2" width="23.9" height="42.1"/>
<rect x="1104.9" y="820" class="st1" width="18.7" height="46.6"/>
<rect x="1104.9" y="820" class="st2" width="18.7" height="46.6"/>
<rect x="1083" y="591.1" class="st1" width="21.9" height="17.6"/>
<rect x="1083" y="591.1" class="st2" width="21.9" height="17.6"/>
<rect x="1105.6" y="596.5" class="st1" width="17.6" height="17.6"/>
<rect x="1105.6" y="596.5" class="st2" width="17.6" height="17.6"/>
<rect x="609" y="865.7" class="st1" width="625" height="14"/>
<rect x="362.4" y="1067" class="st1" width="22.1" height="75"/>
<rect x="350.9" y="1119.7" class="st1" width="32.3" height="22.1"/>
<rect x="350.9" y="1119.7" class="st2" width="32.3" height="22.1"/>
<rect x="177.7" y="1119.7" class="st1" width="92.3" height="22.1"/>
<rect x="189.5" y="1119.7" class="st2" width="80.5" height="22.1"/>
<rect x="189.5" y="555.1" class="st1" width="21.5" height="580.4"/>
<rect x="189.5" y="555.1" class="st2" width="21.5" height="580.4"/>
<rect x="206.6" y="777.7" class="st1" width="67" height="10.7"/>
<rect x="206.6" y="777.7" class="st2" width="67" height="10.7"/>
<rect x="240.2" y="779.9" class="st1" width="33.4" height="41.4"/>
<rect x="240.2" y="779.9" class="st2" width="33.4" height="41.4"/>
<rect x="253.9" y="810.3" class="st1" width="170.8" height="11.1"/>
<rect x="253.9" y="810.3" class="st2" width="170.8" height="11.1"/>
<rect x="250.7" y="787.2" class="st3" width="12.6" height="23.9"/>
<rect x="250.7" y="787.2" class="st2" width="12.6" height="23.9"/>
<line class="st2" x1="204.3" y1="821.3" x2="245.1" y2="821.3"/>
<rect x="173.4" y="555.1" class="st1" width="30.1" height="81.8"/>
<rect x="173.4" y="555.1" class="st2" width="30.1" height="81.8"/>
<rect x="53" y="589.8" class="st1" width="131.9" height="47.1"/>
<rect x="562.3" y="293.8" class="st1" width="15" height="94.4"/>
<rect x="562.3" y="293.8" class="st2" width="15" height="94.4"/>
<rect x="588.8" y="324.5" class="st3" width="12.9" height="12.9"/>
<rect x="588.8" y="324.5" class="st2" width="12.9" height="12.9"/>
<rect x="610.9" y="324.5" class="st3" width="12.9" height="12.9"/>
<rect x="610.9" y="324.5" class="st2" width="12.9" height="12.9"/>
<rect x="632.9" y="324.5" class="st3" width="12.9" height="12.9"/>
<rect x="632.9" y="324.5" class="st2" width="12.9" height="12.9"/>
<rect x="177.7" y="636.7" class="st1" width="14.7" height="505.1"/>
<rect x="177.7" y="636.7" class="st2" width="14.7" height="377.8"/>
<rect x="173.4" y="285.6" class="st1" width="16.7" height="107.8"/>
<rect x="173.4" y="285.6" class="st2" width="16.7" height="107.8"/>
<rect x="173.4" y="384.5" class="st2" width="16.7" height="107.8"/>
<rect x="185.6" y="280.4" class="st1" width="25.4" height="107.8"/>
<rect x="185.6" y="280.4" class="st2" width="25.4" height="107.8"/>
<rect x="190.1" y="377.4" class="st2" width="20.9" height="107.8"/>
<rect x="52.8" y="249.1" class="st1" width="166.4" height="12.2"/>
<rect x="52.8" y="249.1" class="st2" width="166.4" height="12.2"/>
<rect x="52.8" y="249.1" class="st1" width="10.6" height="66.6"/>
<rect x="52.8" y="249.1" class="st2" width="10.6" height="66.6"/>
<rect x="52.8" y="303.2" class="st2" width="10.6" height="296"/>
<rect x="1182.4" y="385" class="st2" width="51.6" height="148.6"/>
<rect x="1098.5" y="604.5" class="st2" width="6.4" height="155.6"/>
<rect x="1205.8" y="385" class="st2" width="28.3" height="148.6"/>
<rect x="1205.8" y="385" class="st2" width="7.1" height="8.9"/>
<rect x="1205.8" y="523.6" class="st2" width="7.1" height="8.9"/>
<rect x="1098.5" y="753.8" class="st2" width="6.4" height="6.3"/>
<rect x="1098.5" y="607.8" class="st2" width="6.4" height="6.3"/>
<rect x="1098.5" y="820" class="st2" width="6.4" height="6.3"/>
<rect x="1098.5" y="864.2" class="st2" width="6.4" height="2.4"/>
<rect x="1098.5" y="746.5" class="st2" width="6.4" height="13.6"/>
<polygon class="st2" points="1233.2,873.5 1233.2,869.1 1233.2,589.7 1222,589.7 1222,869.1 1131.7,869.1 1131.7,873.5 1222,873.5 
	"/>
<path class="st2" d="M459.9,917.1l-49.2-26.7c0,0-2.6,3.8-4.8,11.9c-2.2,8.1-2.2,13.8-2.2,13.8"/>
<path class="st2" d="M193.7,566.3l35.7-64.8c0,0-5.1-3.4-15.9-6.3c-10.9-2.9-18.4-2.9-18.4-2.9"/>
<rect x="459.5" y="915.7" class="st1" width="150" height="9.8"/>
<rect x="362.4" y="915.7" class="st1" width="41.4" height="9.8"/>
<rect x="362.4" y="915.7" class="st2" width="41.4" height="9.8"/>
<rect x="481" y="925" class="st1" width="22.4" height="146"/>
<rect x="480" y="1048.2" class="st3" width="12.9" height="12.9"/>
<rect x="480" y="1048.2" class="st2" width="12.9" height="12.9"/>
<rect x="190.1" y="377.4" class="st2" width="7.4" height="107.8"/>
<rect x="190.1" y="377.4" class="st2" width="7.4" height="16"/>
<rect x="190.1" y="479.3" class="st2" width="7.4" height="13"/>
<path class="st2" d="M572.5,472.1l50.5,28.5c0,0,2.6-4,4.9-12.7c2.3-8.7,2.3-14.7,2.3-14.7"/>
<path class="st2" d="M806.3,472.1l-50.5,28.5c0,0-2.6-4-4.9-12.7c-2.3-8.7-2.3-14.7-2.3-14.7"/>
<path class="st2" d="M830,554.8l37-64.8c0,0-5.3-3.4-16.5-6.3c-11.3-2.9-19.1-2.9-19.1-2.9"/>
<path class="st2" d="M552.6,581.2L515.7,646c0,0,5.3,3.4,16.5,6.3c11.3,2.9,19.1,2.9,19.1,2.9"/>
<path class="st2" d="M671.5,581.2l36.9,64.8c0,0-5.3,3.4-16.5,6.3c-11.3,2.9-19.1,2.9-19.1,2.9"/>
<path class="st2" d="M1098.7,820.5l-30-52.4c0,0,4.5-2.9,14.2-5.4s16.4-2.5,16.4-2.5"/>
<path class="st2" d="M360.1,1132.3l-78.9,45.5c0,0-4.4-6.8-8.2-21.5c-3.8-14.7-3.8-24.9-3.8-24.9"/>
<rect x="374.2" y="927" class="st2" width="19.5" height="8.9"/>
<polyline class="st2" points="374.3,927.1 390.4,929.8 393.5,935.9 "/>
<rect x="374.2" y="1022.2" class="st2" width="15" height="15.2"/>
<polyline class="st2" points="389.3,1022.6 377,1026.2 374.3,1037.3 "/>
<rect x="211.6" y="693.9" class="st2" width="49" height="50.7"/>
<path class="st2" d="M256.7,700c0-1-0.8-1.7-1.7-1.7h-30.8c-1,0-1.7,0.8-1.7,1.7v38.5c0,1,0.8,1.7,1.7,1.7H255c1,0,1.7-0.8,1.7-1.7
	V700z"/>
<path class="st2" d="M253.1,703.3c0-1-0.8-1.7-1.7-1.7h-23.7c-1,0-1.7,0.8-1.7,1.7v31.9c0,1,0.8,1.7,1.7,1.7h23.7
	c1,0,1.7-0.8,1.7-1.7V703.3z"/>
<path class="st2" d="M230.2,719.2c0,1.1,0.9,1.9,1.9,1.9c1.1,0,1.9-0.9,1.9-1.9c0-1.1-0.9-1.9-1.9-1.9
	C231,717.3,230.2,718.2,230.2,719.2z"/>
<path class="st2" d="M215.4,719.2c0,1.1,0.9,1.9,1.9,1.9c1.1,0,1.9-0.9,1.9-1.9c0-1.1-0.9-1.9-1.9-1.9
	C216.2,717.3,215.4,718.2,215.4,719.2z"/>
<rect x="667.4" y="403.9" class="st2" width="50.9" height="48"/>
<line class="st2" x1="667.3" y1="404.6" x2="718.1" y2="451.7"/>
<line class="st2" x1="667.3" y1="452.3" x2="718.1" y2="405.2"/>
<path class="st1" d="M700.8,385.5c0,8-6.5,14.6-14.6,14.6h-15.5c-1.2,0-2.2-1-2.2-2.2V365c0-1.2,1-2.2,2.2-2.2h15.5
	c8,0,14.6,6.5,14.6,14.6V385.5z M667.7,364.9v32.9c0,1.7,1.4,3,3,3h15.5c8.5,0,15.4-6.9,15.4-15.4v-8.2c0-8.5-6.9-15.4-15.4-15.4
	h-15.5C669,361.9,667.7,363.3,667.7,364.9"/>
<path class="st2" d="M700.8,385.5c0,8-6.5,14.6-14.6,14.6h-15.5c-1.2,0-2.2-1-2.2-2.2V365c0-1.2,1-2.2,2.2-2.2h15.5
	c8,0,14.6,6.5,14.6,14.6V385.5z M667.7,364.9v32.9c0,1.7,1.4,3,3,3h15.5c8.5,0,15.4-6.9,15.4-15.4v-8.2c0-8.5-6.9-15.4-15.4-15.4
	h-15.5C669,361.9,667.7,363.3,667.7,364.9z"/>
<path class="st1" d="M697.1,385.5c0,6-4.9,10.9-10.9,10.9h-9c-1.1,0-1.9-0.9-1.9-1.9v-26.3c0-1.1,0.9-1.9,1.9-1.9h9
	c6,0,10.9,4.9,10.9,10.9V385.5z M674.4,368.3v26.3c0,1.5,1.2,2.7,2.7,2.7h9c6.5,0,11.8-5.3,11.8-11.7v-8.2c0-6.5-5.3-11.7-11.8-11.7
	h-9C675.6,365.5,674.4,366.8,674.4,368.3"/>
<path class="st2" d="M697.1,385.5c0,6-4.9,10.9-10.9,10.9h-9c-1.1,0-1.9-0.9-1.9-1.9v-26.3c0-1.1,0.9-1.9,1.9-1.9h9
	c6,0,10.9,4.9,10.9,10.9V385.5z M674.4,368.3v26.3c0,1.5,1.2,2.7,2.7,2.7h9c6.5,0,11.8-5.3,11.8-11.7v-8.2c0-6.5-5.3-11.7-11.8-11.7
	h-9C675.6,365.5,674.4,366.8,674.4,368.3z"/>
<path class="st1" d="M689.5,381.4c0,1-0.8,1.8-1.8,1.8s-1.8-0.8-1.8-1.8s0.8-1.8,1.8-1.8C688.6,379.6,689.5,380.4,689.5,381.4
	 M684.9,381.4c0,1.5,1.2,2.7,2.7,2.7s2.7-1.2,2.7-2.7s-1.2-2.7-2.7-2.7C686.1,378.7,684.9,379.9,684.9,381.4"/>
<path class="st2" d="M689.5,381.4c0,1-0.8,1.8-1.8,1.8s-1.8-0.8-1.8-1.8s0.8-1.8,1.8-1.8C688.6,379.6,689.5,380.4,689.5,381.4z
	 M684.9,381.4c0,1.5,1.2,2.7,2.7,2.7s2.7-1.2,2.7-2.7s-1.2-2.7-2.7-2.7C686.1,378.7,684.9,379.9,684.9,381.4z"/>
<path class="st2" d="M693,327.9c0-1.2,1-2.2,2.2-2.2s2.2,1,2.2,2.2s-1,2.2-2.2,2.2S693,329.1,693,327.9z"/>
<path class="st2" d="M806.3,341.8c0,7.1-5.8,12.9-12.9,12.9H685.7c-7.1,0-12.9-5.8-12.9-12.9v-24.5c0-7.1,5.8-12.9,12.9-12.9h107.7
	c7.1,0,12.9,5.8,12.9,12.9L806.3,341.8L806.3,341.8z"/>
<path class="st2" d="M797.1,337.1c0,7.1-5.8,12.9-12.9,12.9H695c-7.1,0-12.9-5.8-12.9-12.9V322c0-7.1,5.8-12.9,12.9-12.9h89.2
	c7.1,0,12.9,5.8,12.9,12.9V337.1z"/>
<path class="st2" d="M785.9,339.1c0,3.6-2.9,6.5-6.5,6.5h-85.8c-3.6,0-6.5-2.9-6.5-6.5V320c0-3.6,2.9-6.5,6.5-6.5h85.8
	c3.6,0,6.5,2.9,6.5,6.5V339.1z"/>
<polygon class="st2" points="667.5,300.2 667.5,300.2 811.6,300.2 811.6,358.9 667.5,358.9 "/>
<path class="st1" d="M612.7,419.4c8.4,0,15.2-6.8,15.2-15.2v-22c0-1.4-1.2-2.6-2.6-2.6h-25.1c-1.4,0-2.6,1.2-2.6,2.6v22
	C597.5,412.6,604.3,419.4,612.7,419.4 M600.1,378.6h25.1c2,0,3.7,1.6,3.7,3.7v22c0,9-7.3,16.2-16.2,16.2s-16.2-7.3-16.2-16.2v-22
	C596.4,380.3,598.1,378.6,600.1,378.6"/>
<path class="st2" d="M612.7,419.4c8.4,0,15.2-6.8,15.2-15.2v-22c0-1.4-1.2-2.6-2.6-2.6h-25.1c-1.4,0-2.6,1.2-2.6,2.6v22
	C597.5,412.6,604.3,419.4,612.7,419.4z M600.1,378.6h25.1c2,0,3.7,1.6,3.7,3.7v22c0,9-7.3,16.2-16.2,16.2s-16.2-7.3-16.2-16.2v-22
	C596.4,380.3,598.1,378.6,600.1,378.6z"/>
<path class="st2" d="M623.5,387h-21.8c-0.1,0-0.3,0.1-0.3,0.3v16.6c0,6.1,5,11.2,11.1,11.2s11.1-5,11.1-11.2v-16.6
	C623.8,387.1,623.7,387,623.5,387z"/>
<path class="st1" d="M623.3,387.5H602v16.3c0,5.9,4.8,10.6,10.6,10.6c5.9,0,10.6-4.8,10.6-10.6v-16.3H623.3z M601.8,386.5h21.8
	c0.4,0,0.8,0.4,0.8,0.8v16.6c0,6.4-5.2,11.7-11.7,11.7c-6.4,0-11.7-5.2-11.7-11.7v-16.6C601,386.8,601.3,386.5,601.8,386.5"/>
<path class="st2" d="M623.3,387.5H602v16.3c0,5.9,4.8,10.6,10.6,10.6c5.9,0,10.6-4.8,10.6-10.6v-16.3H623.3z M601.8,386.5h21.8
	c0.4,0,0.8,0.4,0.8,0.8v16.6c0,6.4-5.2,11.7-11.7,11.7c-6.4,0-11.7-5.2-11.7-11.7v-16.6C601,386.8,601.3,386.5,601.8,386.5z"/>
<path class="st1" d="M612.7,403.9c1.6,0,2.9-1.3,2.9-2.9s-1.3-2.9-2.9-2.9c-1.6,0-2.9,1.3-2.9,2.9S611.1,403.9,612.7,403.9
	 M612.7,397c2.2,0,3.9,1.8,3.9,3.9c0,2.2-1.8,3.9-3.9,3.9c-2.2,0-3.9-1.8-3.9-3.9C608.7,398.8,610.5,397,612.7,397"/>
<path class="st2" d="M612.7,403.9c1.6,0,2.9-1.3,2.9-2.9s-1.3-2.9-2.9-2.9c-1.6,0-2.9,1.3-2.9,2.9S611.1,403.9,612.7,403.9z
	 M612.7,397c2.2,0,3.9,1.8,3.9,3.9c0,2.2-1.8,3.9-3.9,3.9c-2.2,0-3.9-1.8-3.9-3.9C608.7,398.8,610.5,397,612.7,397z"/>
<polygon class="st1" points="621.1,389.1 622,389.7 616.7,396.7 615.9,396.1 "/>
<polygon class="st2" points="621.1,389.1 622,389.7 616.7,396.7 615.9,396.1 "/>
<polygon class="st1" points="604.3,389.1 609.6,396.1 608.8,396.7 603.5,389.7 "/>
<polygon class="st2" points="604.3,389.1 609.6,396.1 608.8,396.7 603.5,389.7 "/>
<path class="st1" d="M623.1,378.6c2.3,0,4.2-1.9,4.2-4.2v-5.7c0-2.3-1.9-4.2-4.2-4.2h-20.9c-2.3,0-4.2,1.9-4.2,4.2v5.7
	c0,2.3,1.9,4.2,4.2,4.2H623.1z M602.2,363.4h20.9c2.9,0,5.2,2.4,5.2,5.3v5.7c0,2.9-2.4,5.3-5.2,5.3h-20.9c-2.9,0-5.2-2.4-5.2-5.3
	v-5.7C596.9,365.8,599.3,363.4,602.2,363.4"/>
<path class="st2" d="M623.1,378.6c2.3,0,4.2-1.9,4.2-4.2v-5.7c0-2.3-1.9-4.2-4.2-4.2h-20.9c-2.3,0-4.2,1.9-4.2,4.2v5.7
	c0,2.3,1.9,4.2,4.2,4.2H623.1z M602.2,363.4h20.9c2.9,0,5.2,2.4,5.2,5.3v5.7c0,2.9-2.4,5.3-5.2,5.3h-20.9c-2.9,0-5.2-2.4-5.2-5.3
	v-5.7C596.9,365.8,599.3,363.4,602.2,363.4z"/>
<path class="st1" d="M612.7,373.2c0.9,0,1.6-0.7,1.6-1.6s-0.7-1.6-1.6-1.6c-0.9,0-1.6,0.7-1.6,1.6
	C611,372.4,611.7,373.2,612.7,373.2 M612.7,368.8c1.5,0,2.7,1.2,2.7,2.7s-1.2,2.7-2.7,2.7s-2.7-1.2-2.7-2.7S611.2,368.8,612.7,368.8
	"/>
<path class="st2" d="M612.7,373.2c0.9,0,1.6-0.7,1.6-1.6s-0.7-1.6-1.6-1.6c-0.9,0-1.6,0.7-1.6,1.6
	C611,372.4,611.7,373.2,612.7,373.2z M612.7,368.8c1.5,0,2.7,1.2,2.7,2.7s-1.2,2.7-2.7,2.7s-2.7-1.2-2.7-2.7
	S611.2,368.8,612.7,368.8z"/>
<path class="st1" d="M438.9,973.6c-8.4,0-15.2,6.8-15.2,15.2v22c0,1.4,1.2,2.6,2.6,2.6h25.1c1.4,0,2.6-1.2,2.6-2.6v-22
	C454.1,980.4,447.3,973.6,438.9,973.6 M451.5,1014.4h-25.1c-2,0-3.7-1.6-3.7-3.7v-22c0-9,7.3-16.2,16.2-16.2
	c8.9,0,16.2,7.3,16.2,16.2v22C455.1,1012.8,453.5,1014.4,451.5,1014.4"/>
<path class="st2" d="M438.9,973.6c-8.4,0-15.2,6.8-15.2,15.2v22c0,1.4,1.2,2.6,2.6,2.6h25.1c1.4,0,2.6-1.2,2.6-2.6v-22
	C454.1,980.4,447.3,973.6,438.9,973.6z M451.5,1014.4h-25.1c-2,0-3.7-1.6-3.7-3.7v-22c0-9,7.3-16.2,16.2-16.2
	c8.9,0,16.2,7.3,16.2,16.2v22C455.1,1012.8,453.5,1014.4,451.5,1014.4z"/>
<path class="st2" d="M428,1006.1h21.8c0.1,0,0.3-0.1,0.3-0.3v-16.6c0-6.1-5-11.2-11.1-11.2s-11.1,5-11.1,11.2v16.6
	C427.8,1005.9,427.9,1006.1,428,1006.1z"/>
<path class="st1" d="M428.3,1005.5h21.2v-16.3c0-5.9-4.8-10.6-10.6-10.6c-5.9,0-10.6,4.8-10.6,10.6V1005.5z M449.8,1006.6H428
	c-0.4,0-0.8-0.4-0.8-0.8v-16.6c0-6.4,5.2-11.7,11.7-11.7c6.4,0,11.7,5.2,11.7,11.7v16.6C450.6,1006.2,450.2,1006.6,449.8,1006.6"/>
<path class="st2" d="M428.3,1005.5h21.2v-16.3c0-5.9-4.8-10.6-10.6-10.6c-5.9,0-10.6,4.8-10.6,10.6V1005.5z M449.8,1006.6H428
	c-0.4,0-0.8-0.4-0.8-0.8v-16.6c0-6.4,5.2-11.7,11.7-11.7c6.4,0,11.7,5.2,11.7,11.7v16.6C450.6,1006.2,450.2,1006.6,449.8,1006.6z"/>
<path class="st1" d="M438.9,989.2c-1.6,0-2.9,1.3-2.9,2.9c0,1.6,1.3,2.9,2.9,2.9s2.9-1.3,2.9-2.9S440.5,989.2,438.9,989.2
	 M438.9,996c-2.2,0-3.9-1.8-3.9-3.9c0-2.2,1.8-3.9,3.9-3.9c2.2,0,3.9,1.8,3.9,3.9C442.9,994.2,441.1,996,438.9,996"/>
<path class="st2" d="M438.9,989.2c-1.6,0-2.9,1.3-2.9,2.9c0,1.6,1.3,2.9,2.9,2.9s2.9-1.3,2.9-2.9S440.5,989.2,438.9,989.2z
	 M438.9,996c-2.2,0-3.9-1.8-3.9-3.9c0-2.2,1.8-3.9,3.9-3.9c2.2,0,3.9,1.8,3.9,3.9C442.9,994.2,441.1,996,438.9,996z"/>
<polygon class="st1" points="430.4,1004 429.6,1003.3 434.9,996.3 435.7,996.9 "/>
<polygon class="st2" points="430.4,1004 429.6,1003.3 434.9,996.3 435.7,996.9 "/>
<polygon class="st1" points="447.2,1004 442,996.9 442.8,996.3 448.1,1003.3 "/>
<polygon class="st2" points="447.2,1004 442,996.9 442.8,996.3 448.1,1003.3 "/>
<path class="st1" d="M428.5,1014.4c-2.3,0-4.2,1.9-4.2,4.2v5.7c0,2.3,1.9,4.2,4.2,4.2h20.9c2.3,0,4.2-1.9,4.2-4.2v-5.7
	c0-2.3-1.9-4.2-4.2-4.2H428.5z M449.4,1029.6h-20.9c-2.9,0-5.2-2.4-5.2-5.3v-5.7c0-2.9,2.4-5.3,5.2-5.3h20.9c2.9,0,5.2,2.4,5.2,5.3
	v5.7C454.6,1027.3,452.3,1029.6,449.4,1029.6"/>
<path class="st2" d="M428.5,1014.4c-2.3,0-4.2,1.9-4.2,4.2v5.7c0,2.3,1.9,4.2,4.2,4.2h20.9c2.3,0,4.2-1.9,4.2-4.2v-5.7
	c0-2.3-1.9-4.2-4.2-4.2H428.5z M449.4,1029.6h-20.9c-2.9,0-5.2-2.4-5.2-5.3v-5.7c0-2.9,2.4-5.3,5.2-5.3h20.9c2.9,0,5.2,2.4,5.2,5.3
	v5.7C454.6,1027.3,452.3,1029.6,449.4,1029.6z"/>
<path class="st1" d="M438.9,1019.9c-0.9,0-1.6,0.7-1.6,1.6c0,0.9,0.7,1.6,1.6,1.6s1.6-0.7,1.6-1.6
	C440.6,1020.6,439.8,1019.9,438.9,1019.9 M438.9,1024.2c-1.5,0-2.7-1.2-2.7-2.7s1.2-2.7,2.7-2.7s2.7,1.2,2.7,2.7
	C441.6,1023,440.4,1024.2,438.9,1024.2"/>
<path class="st2" d="M438.9,1019.9c-0.9,0-1.6,0.7-1.6,1.6c0,0.9,0.7,1.6,1.6,1.6s1.6-0.7,1.6-1.6
	C440.6,1020.6,439.8,1019.9,438.9,1019.9z M438.9,1024.2c-1.5,0-2.7-1.2-2.7-2.7s1.2-2.7,2.7-2.7s2.7,1.2,2.7,2.7
	C441.6,1023,440.4,1024.2,438.9,1024.2z"/>
<path class="st1" d="M402,958.9c0-6.9-5.5-12.5-12.4-12.5h-13.1c-1,0-1.9,0.9-1.9,1.9v28.3c0,1.1,0.8,1.9,1.9,1.9h13.1
	c6.8,0,12.4-5.6,12.4-12.5V958.9z M374,976.6v-28.3c0-1.4,1.2-2.6,2.6-2.6h13.1c7.2,0,13.1,5.9,13.1,13.2v7.1
	c0,7.3-5.9,13.2-13.1,13.2h-13.1C375.1,979.2,374,978,374,976.6"/>
<path class="st2" d="M402,958.9c0-6.9-5.5-12.5-12.4-12.5h-13.1c-1,0-1.9,0.9-1.9,1.9v28.3c0,1.1,0.8,1.9,1.9,1.9h13.1
	c6.8,0,12.4-5.6,12.4-12.5V958.9z M374,976.6v-28.3c0-1.4,1.2-2.6,2.6-2.6h13.1c7.2,0,13.1,5.9,13.1,13.2v7.1
	c0,7.3-5.9,13.2-13.1,13.2h-13.1C375.1,979.2,374,978,374,976.6z"/>
<path class="st1" d="M398.9,958.9c0-5.2-4.2-9.4-9.3-9.4H382c-0.9,0-1.6,0.7-1.6,1.6v22.6c0,0.9,0.7,1.6,1.6,1.6h7.6
	c5.1,0,9.3-4.2,9.3-9.4V958.9z M379.7,973.7v-22.6c0-1.3,1-2.3,2.3-2.3h7.6c5.5,0,10,4.5,10,10.1v7.1c0,5.6-4.5,10.1-10,10.1H382
	C380.7,976,379.7,975,379.7,973.7"/>
<path class="st2" d="M398.9,958.9c0-5.2-4.2-9.4-9.3-9.4H382c-0.9,0-1.6,0.7-1.6,1.6v22.6c0,0.9,0.7,1.6,1.6,1.6h7.6
	c5.1,0,9.3-4.2,9.3-9.4V958.9z M379.7,973.7v-22.6c0-1.3,1-2.3,2.3-2.3h7.6c5.5,0,10,4.5,10,10.1v7.1c0,5.6-4.5,10.1-10,10.1H382
	C380.7,976,379.7,975,379.7,973.7z"/>
<path class="st1" d="M392.4,962.4c0-0.9-0.7-1.6-1.5-1.6s-1.5,0.7-1.5,1.6c0,0.9,0.7,1.6,1.5,1.6C391.7,964,392.4,963.3,392.4,962.4
	 M388.6,962.4c0-1.3,1-2.3,2.2-2.3s2.2,1,2.2,2.3s-1,2.3-2.2,2.3S388.6,963.7,388.6,962.4"/>
<path class="st2" d="M392.4,962.4c0-0.9-0.7-1.6-1.5-1.6s-1.5,0.7-1.5,1.6c0,0.9,0.7,1.6,1.5,1.6C391.7,964,392.4,963.3,392.4,962.4
	z M388.6,962.4c0-1.3,1-2.3,2.2-2.3s2.2,1,2.2,2.3s-1,2.3-2.2,2.3S388.6,963.7,388.6,962.4z"/>
<path class="st1" d="M885.8,755.5c0.9,0.9,2.1,1.3,3.7,1.3c1.6,0,2.8-0.4,3.6-1.3c0.8-0.9,1.2-2.2,1.2-3.8v-1.6
	c0-2.2-0.8-3.7-2.3-4.3c1.5-0.6,2.3-2,2.3-4.2V741c0-1.7-0.4-2.9-1.2-3.8c-0.8-0.9-2-1.3-3.6-1.3s-2.8,0.4-3.7,1.3
	c-0.9,0.9-1.3,2.2-1.3,3.8v1.1h3.2v-1.3c0-1.4,0.6-2,1.7-2c0.6,0,1,0.2,1.3,0.5s0.4,1,0.4,1.8v1.2c0,0.8-0.2,1.3-0.5,1.7
	c-0.3,0.3-0.8,0.5-1.5,0.5h-1.3v2.9h1.1c0.7,0,1.3,0.2,1.6,0.6c0.3,0.4,0.5,1.1,0.5,2v1.6c0,0.9-0.1,1.5-0.4,1.8
	c-0.3,0.3-0.7,0.5-1.3,0.5c-1.1,0-1.7-0.7-1.7-2V750h-3.2v1.7C884.5,753.3,885,754.6,885.8,755.5 M882.5,753.7h-3.2v3h3.2V753.7z
	 M873.8,739l-4.7,17.7h3.2l4.8-17.8V736h-9.7v2.9L873.8,739L873.8,739z M860.4,740.9v15.7h3.2V736h-2.2c-0.1,0.3-0.2,0.6-0.3,0.8
	s-0.2,0.4-0.4,0.7s-0.4,0.5-0.6,0.6c-0.2,0.1-0.5,0.3-0.9,0.4c-0.4,0.1-0.8,0.2-1.3,0.2v2.3L860.4,740.9L860.4,740.9z"/>
<path class="st1" d="M948.4,704.4l1.6,10.4h-3.1L948.4,704.4z M945.9,721.3l0.6-3.7h4l0.6,3.7h3.2l-3.3-20.6h-5l-3.3,20.6H945.9z
	 M935.5,703.6v17.7h3.2v-17.7h3.4v-2.9h-10v2.9H935.5z M926,704.4l1.6,10.4h-3.1L926,704.4z M923.4,721.3l0.6-3.7h4l0.6,3.7h3.2
	l-3.3-20.6h-5l-3.3,20.6H923.4z M911.7,721.3v-8.8h3.7v8.8h3.2v-20.6h-3.2v8.8h-3.7v-8.8h-3.2v20.6H911.7z M895.4,721.3v-14.5
	l2.4,14.5h3.1l2.2-14.8v14.8h3.2v-20.6h-4.7l-2.2,14.7l-2.4-14.7h-4.5v20.6H895.4z M883.9,705.4c0-1.4,0.6-2,1.7-2
	c1.1,0,1.7,0.7,1.7,2v11.1c0,1.4-0.6,2-1.7,2c-1.1,0-1.7-0.7-1.7-2V705.4z M881.9,720.2c0.8,0.9,2.1,1.4,3.6,1.4
	c1.6,0,2.8-0.5,3.6-1.4s1.3-2.2,1.3-3.8v-10.7c0-1.6-0.4-2.9-1.3-3.8c-0.8-0.9-2.1-1.4-3.6-1.4c-1.6,0-2.8,0.5-3.6,1.4
	s-1.3,2.2-1.3,3.8v10.7C880.6,718,881.1,719.3,881.9,720.2 M872,721.3V715l1-1.9l3.1,8.2h3.3l-4.5-11.4l4.5-9.2h-3.2l-4.2,9v-9h-3.2
	v20.6L872,721.3L872,721.3z M855.4,705.8c0-0.7,0.1-1.3,0.4-1.6c0.3-0.3,0.7-0.5,1.3-0.5h1.5v6.3h-1.3c-0.6,0-1.1-0.2-1.5-0.5
	c-0.3-0.3-0.5-0.9-0.5-1.7L855.4,705.8L855.4,705.8z M855.1,721.3c0.1-0.2,0.1-0.4,0.2-0.5c0-0.1,0.1-0.3,0.1-0.7c0-0.3,0-0.8,0-1.3
	v-3.2c0-0.9,0.2-1.6,0.5-2s0.9-0.6,1.6-0.6h1.1v8.4h3.2v-20.6h-4.9c-1.7,0-2.9,0.4-3.6,1.2c-0.8,0.8-1.2,2-1.2,3.6v1.6
	c0,2.1,0.7,3.5,2.1,4.2c-0.8,0.3-1.3,0.9-1.7,1.6c-0.3,0.7-0.5,1.7-0.5,2.8v3.2c0,1.1-0.1,1.9-0.3,2.5h3.4V721.3z M845.3,704.4
	l1.6,10.4h-3.1L845.3,704.4z M842.8,721.3l0.6-3.7h4l0.6,3.7h3.2l-3.3-20.6h-5l-3.3,20.6H842.8z M826.7,721.3c1.6,0,2.8-0.4,3.5-1.2
	s1.1-2.1,1.2-4l0.4-12.5h2.8v17.7h3.2v-20.6h-9.3l-0.4,15.6c0,0.5-0.1,0.9-0.1,1.1c-0.1,0.3-0.2,0.5-0.4,0.6s-0.4,0.2-0.6,0.3
	c-0.2,0-0.5,0.1-0.9,0.1v2.9L826.7,721.3L826.7,721.3z M817.9,721.3l2.7-9.4l1.3-5v14.5h3.2v-20.6h-3.9l-2.6,8.5l-1.2,4.5v-13.1
	h-2.9v20.6H817.9z M799.1,721.3l3-9.2l0.8,1.6v7.6h3.2v-7.6l0.8-1.6l2.9,9.1h3.2l-4-12.2l4-8.4h-3.2l-3.8,8.3v-8.3h-3.2v8.3
	l-3.8-8.3h-3.2l4,8.5l-4,12.2L799.1,721.3L799.1,721.3z"/>
<path class="st1" d="M1033.1,455.3v7.7h-3.3L1033.1,455.3z M1033.1,466v3.7h3.2V466h1.5v-3h-1.5v-13.9h-3.5l-5.9,13.9v2.9h6.2V466z
	 M1025.4,466.7h-3.2v3h3.2V466.7z M1011.6,468.6c0.9,0.9,2.1,1.3,3.7,1.3c1.6,0,2.8-0.4,3.6-1.3s1.2-2.2,1.2-3.8v-1.6
	c0-2.2-0.8-3.7-2.3-4.3c1.5-0.6,2.3-2,2.3-4.2V454c0-1.7-0.4-2.9-1.2-3.8s-2-1.3-3.6-1.3s-2.8,0.4-3.7,1.3s-1.3,2.2-1.3,3.8v1.1h3.2
	v-1.3c0-1.4,0.6-2,1.7-2c0.6,0,1,0.2,1.3,0.5s0.4,1,0.4,1.8v1.2c0,0.8-0.2,1.3-0.5,1.7c-0.3,0.3-0.8,0.5-1.5,0.5h-1.3v2.9h1.1
	c0.7,0,1.3,0.2,1.6,0.6s0.5,1.1,0.5,2v1.6c0,0.9-0.1,1.5-0.4,1.8c-0.3,0.3-0.7,0.5-1.3,0.5c-1.1,0-1.7-0.7-1.7-2V463h-3.2v1.7
	C1010.3,466.4,1010.7,467.7,1011.6,468.6 M1003.3,454v15.7h3.2v-20.6h-2.2c-0.1,0.3-0.2,0.6-0.3,0.8c-0.1,0.2-0.2,0.4-0.4,0.7
	c-0.2,0.3-0.4,0.5-0.6,0.6c-0.2,0.1-0.5,0.3-0.9,0.4s-0.8,0.2-1.3,0.2v2.3h2.5V454z"/>
<path class="st1" d="M1091.3,417.5l1.6,10.4h-3.1L1091.3,417.5z M1088.8,434.4l0.6-3.7h4l0.6,3.7h3.2l-3.3-20.6h-5l-3.3,20.6H1088.8
	z M1078.4,416.7v17.7h3.2v-17.7h3.4v-2.9h-10v2.9H1078.4z M1068.9,417.5l1.6,10.4h-3.1L1068.9,417.5z M1066.3,434.4l0.6-3.7h4
	l0.6,3.7h3.2l-3.3-20.6h-5l-3.3,20.6H1066.3z M1054.6,434.4v-8.8h3.7v8.8h3.2v-20.6h-3.2v8.8h-3.7v-8.8h-3.2v20.6H1054.6z
	 M1038.2,434.4v-14.5l2.4,14.5h3.1l2.2-14.8v14.8h3.2v-20.6h-4.7l-2.2,14.7l-2.4-14.7h-4.5v20.6H1038.2z M1026.8,418.5
	c0-1.4,0.6-2,1.7-2s1.7,0.7,1.7,2v11.1c0,1.4-0.6,2-1.7,2s-1.7-0.7-1.7-2V418.5z M1024.8,433.3c0.8,0.9,2.1,1.4,3.6,1.4
	c1.6,0,2.8-0.5,3.6-1.4c0.8-0.9,1.3-2.2,1.3-3.8v-10.7c0-1.6-0.4-2.9-1.3-3.8c-0.8-0.9-2.1-1.4-3.6-1.4c-1.6,0-2.8,0.5-3.6,1.4
	c-0.8,0.9-1.3,2.2-1.3,3.8v10.7C1023.5,431.1,1024,432.4,1024.8,433.3 M1014.9,434.4V428l1-1.9l3.1,8.2h3.3l-4.5-11.4l4.5-9.2h-3.2
	l-4.2,9v-9h-3.2v20.6L1014.9,434.4L1014.9,434.4z M998.3,418.8c0-0.7,0.1-1.3,0.4-1.6c0.3-0.3,0.7-0.5,1.3-0.5h1.6v6.3h-1.3
	c-0.6,0-1.1-0.2-1.5-0.5c-0.3-0.3-0.5-0.9-0.5-1.7V418.8z M997.9,434.4c0.1-0.2,0.1-0.4,0.2-0.5c0-0.1,0.1-0.3,0.1-0.7
	c0-0.3,0-0.8,0-1.3v-3.2c0-0.9,0.2-1.6,0.5-2s0.9-0.6,1.6-0.6h1.1v8.4h3.2v-20.6h-4.9c-1.7,0-2.9,0.4-3.6,1.2
	c-0.8,0.8-1.2,2-1.2,3.6v1.6c0,2.1,0.7,3.5,2.1,4.2c-0.8,0.3-1.3,0.9-1.7,1.6c-0.3,0.7-0.5,1.7-0.5,2.8v3.2c0,1.1-0.1,1.9-0.3,2.5
	h3.4V434.4z M988.2,417.5l1.6,10.4h-3.1L988.2,417.5z M985.7,434.4l0.6-3.7h4l0.6,3.7h3.2l-3.3-20.6h-5l-3.3,20.6H985.7z
	 M969.6,434.4c1.6,0,2.8-0.4,3.5-1.2c0.7-0.8,1.1-2.1,1.2-4l0.4-12.5h2.8v17.7h3.2v-20.6h-9.3l-0.4,15.6c0,0.5-0.1,0.9-0.1,1.1
	c-0.1,0.3-0.2,0.5-0.4,0.6s-0.4,0.2-0.6,0.3c-0.2,0-0.5,0.1-0.9,0.1v2.9H969.6z M960.8,434.4l2.7-9.4l1.3-5v14.5h3.2v-20.6h-3.9
	l-2.6,8.5l-1.2,4.5v-13.1h-2.9v20.6H960.8z M942,434.4l3-9.2l0.8,1.6v7.6h3.2v-7.6l0.8-1.6l2.9,9.1h3.2l-4-12.2l4-8.4h-3.2l-3.8,8.3
	v-8.3h-3.2v8.3l-3.8-8.3h-3.2l4,8.5l-4,12.2H942z"/>
<path class="st1" d="M439.4,952.8c0-0.6,0.1-1.1,0.4-1.3c0.2-0.3,0.6-0.4,1-0.4s0.8,0.1,1,0.4c0.2,0.3,0.3,0.7,0.3,1.3v0.8
	c0,1.1-0.4,1.6-1.3,1.6s-1.3-0.5-1.3-1.6v-0.8H439.4z M439.4,959.1c0-1.1,0.4-1.7,1.3-1.7s1.3,0.6,1.3,1.7v1.4
	c0,0.6-0.1,1.1-0.4,1.3c-0.2,0.3-0.6,0.4-1,0.4s-0.8-0.1-1-0.4c-0.2-0.3-0.4-0.7-0.4-1.3v-1.4H439.4z M438,963.3
	c0.6,0.7,1.6,1,2.7,1c1.2,0,2.1-0.3,2.7-1s1-1.6,1-2.8v-1.2c0-1.5-0.5-2.6-1.5-3.1c1-0.5,1.5-1.6,1.5-3v-0.5c0-1.2-0.3-2.1-1-2.8
	c-0.6-0.7-1.5-1-2.7-1s-2.1,0.3-2.7,1s-1,1.6-1,2.8v0.5c0,1.5,0.5,2.5,1.5,3c-1,0.6-1.5,1.6-1.5,3.1v1.2
	C437,961.7,437.4,962.7,438,963.3 M435.7,962h-2.4v2.2h2.4V962z M428.1,952.6v11.5h2.4V949h-1.6c-0.1,0.2-0.2,0.4-0.2,0.6
	c-0.1,0.2-0.2,0.3-0.3,0.5c-0.1,0.2-0.3,0.3-0.5,0.4c-0.2,0.1-0.4,0.2-0.7,0.3c-0.3,0.1-0.6,0.1-0.9,0.1v1.7H428.1z"/>
<path class="st1" d="M441.8,939.3L441.8,939.3c-0.1,0.6-0.3,1-0.6,1.1c-0.3,0.2-0.8,0.2-1.5,0.2v2.1c0.6,0,1.2,0,1.7-0.1
	s0.9-0.2,1.2-0.4s0.6-0.5,0.8-0.8c0.2-0.3,0.4-0.7,0.6-1.1c0.1-0.4,0.3-0.9,0.4-1.5l2.5-11.2h-2.4l-1.1,5.2l-0.6,3.5l-0.7-3.5
	l-1.3-5.1h-2.4L441.8,939.3z M432.3,942.8l5.9-15.1h-2l-5.9,15.1H432.3z M423.4,942c0.6,0.7,1.5,1,2.6,1c1.2,0,2.1-0.3,2.7-1
	s1-1.6,1-2.8v-2h-2.4v2.2c0,1-0.4,1.5-1.2,1.5c-0.8,0-1.2-0.5-1.2-1.5v-8.1c0-1,0.4-1.5,1.2-1.5c0.8,0,1.2,0.5,1.2,1.5v1.6h2.4v-1.5
	c0-1.2-0.3-2.1-1-2.8c-0.6-0.7-1.5-1-2.7-1s-2,0.3-2.6,1s-0.9,1.6-0.9,2.8v7.8C422.5,940.4,422.8,941.3,423.4,942"/>
<path class="st1" d="M610.5,454.9v5.7h-2.4L610.5,454.9z M610.5,462.7v2.7h2.4v-2.7h1.1v-2.2h-1.1v-10.2h-2.6l-4.3,10.2v2.2H610.5z
	 M604.9,463.3h-2.4v2.2h2.4V463.3z M597.3,454v11.5h2.4v-15.1h-1.6c-0.1,0.2-0.2,0.4-0.2,0.6c-0.1,0.2-0.2,0.3-0.3,0.5
	s-0.3,0.3-0.5,0.4s-0.4,0.2-0.7,0.3c-0.3,0.1-0.6,0.1-0.9,0.1v1.7H597.3z"/>
<path class="st1" d="M611,440.7v0.1c-0.1,0.5-0.3,0.9-0.6,1c-0.3,0.2-0.8,0.2-1.5,0.2v2.1c0.6,0,1.2,0,1.7-0.1s0.9-0.2,1.2-0.4
	c0.3-0.2,0.6-0.5,0.8-0.8s0.4-0.7,0.6-1.1s0.3-0.9,0.4-1.5l2.5-11.2h-2.4l-1.1,5.2l-0.6,3.5l-0.7-3.5l-1.3-5.1h-2.4L611,440.7z
	 M601.5,444.1l5.9-15.1h-2l-5.9,15.1H601.5z M592.6,443.3c0.6,0.7,1.5,1,2.6,1c1.2,0,2.1-0.3,2.7-1c0.6-0.7,1-1.6,1-2.8v-2h-2.4v2.2
	c0,1-0.4,1.5-1.2,1.5s-1.2-0.5-1.2-1.5v-8.1c0-1,0.4-1.5,1.2-1.5s1.2,0.5,1.2,1.5v1.6h2.4v-1.5c0-1.2-0.3-2.1-1-2.8
	c-0.6-0.7-1.5-1-2.7-1s-2,0.3-2.6,1s-0.9,1.6-0.9,2.8v7.8C591.7,441.7,592,442.7,592.6,443.3"/>
<path class="st1" d="M700.6,539.6c0-1.2,0.5-1.9,1.5-1.9s1.5,0.6,1.5,1.9v10.2c0,1.2-0.5,1.9-1.5,1.9s-1.5-0.6-1.5-1.9V539.6z
	 M698.9,553.1c0.8,0.8,1.9,1.2,3.3,1.2c1.4,0,2.6-0.4,3.3-1.2c0.8-0.8,1.2-2,1.2-3.5v-9.8c0-1.5-0.4-2.7-1.2-3.5s-1.9-1.2-3.3-1.2
	c-1.4,0-2.6,0.4-3.3,1.2c-0.8,0.8-1.2,2-1.2,3.5v9.8C697.7,551.1,698.1,552.3,698.9,553.1 M695.9,551.4h-3v2.7h3V551.4z
	 M683.4,553.1c0.8,0.8,1.9,1.2,3.4,1.2c1.4,0,2.5-0.4,3.3-1.2c0.7-0.8,1.1-2,1.1-3.5v-4.2c0-1.4-0.3-2.5-0.8-3.2s-1.4-1.1-2.4-1.1
	c-1.2,0-2,0.5-2.6,1.4l0.2-4.5h5.1v-2.7h-7.9l-0.6,10.9h3v-0.6c0-1.2,0.5-1.8,1.5-1.8s1.5,0.6,1.5,1.8v4.1c0,1.2-0.5,1.8-1.5,1.8
	s-1.5-0.6-1.5-1.8V548h-3v1.6C682.2,551.1,682.6,552.3,683.4,553.1"/>
<path class="st1" d="M726.9,511.3h1.4c0.5,0,0.9,0.1,1.1,0.4c0.2,0.3,0.4,0.7,0.4,1.4v2.8c0,0.6-0.1,1.1-0.4,1.4
	c-0.2,0.3-0.6,0.4-1.1,0.4h-1.4V511.3z M726.9,527.4v-7.1h1.4c1.5,0,2.6-0.4,3.3-1.2s1.1-1.9,1.1-3.5v-2.4c0-1.5-0.4-2.7-1.1-3.5
	c-0.7-0.8-1.8-1.2-3.3-1.2H724v18.8h2.9V527.4z M716,512.9c0-1.2,0.5-1.9,1.5-1.9s1.5,0.6,1.5,1.9v10.2c0,1.2-0.5,1.9-1.5,1.9
	s-1.5-0.6-1.5-1.9V512.9z M714.2,526.4c0.8,0.8,1.9,1.2,3.3,1.2c1.4,0,2.6-0.4,3.3-1.2c0.8-0.8,1.2-2,1.2-3.5v-9.8
	c0-1.5-0.4-2.7-1.2-3.5s-1.9-1.2-3.3-1.2c-1.4,0-2.6,0.4-3.3,1.2c-0.8,0.8-1.2,2-1.2,3.5v9.8C713.1,524.4,713.4,525.6,714.2,526.4
	 M704.1,523.8c0.1-0.4,0.2-0.9,0.3-1.6l0.5-11h2.5v13.5h-3.9C703.8,524.5,704,524.2,704.1,523.8 M702.4,529.9v-2.5h6.3v2.5h3v-5.2
	h-1.3v-16.2H702l-0.5,13.7c0,0.6-0.1,1.1-0.2,1.4c-0.1,0.4-0.3,0.7-0.5,1h-1.2v5.2L702.4,529.9L702.4,529.9z M691.7,527.4l2.5-8.6
	l1.2-4.6v13.2h3v-18.8h-3.5l-2.4,7.8l-1.1,4.1v-11.9h-2.6v18.8L691.7,527.4L691.7,527.4z M681.5,511.3h1.4c0.5,0,0.9,0.1,1.1,0.4
	c0.2,0.3,0.4,0.7,0.4,1.4v2.8c0,0.6-0.1,1.1-0.4,1.4c-0.2,0.3-0.6,0.4-1.1,0.4h-1.4V511.3z M681.5,527.4v-7.1h1.4
	c1.5,0,2.6-0.4,3.3-1.2s1.1-1.9,1.1-3.5v-2.4c0-1.5-0.4-2.7-1.1-3.5c-0.7-0.8-1.8-1.2-3.3-1.2h-4.4v18.8h3V527.4z M670.6,512.9
	c0-1.2,0.5-1.9,1.5-1.9s1.5,0.6,1.5,1.9v10.2c0,1.2-0.5,1.9-1.5,1.9s-1.5-0.6-1.5-1.9V512.9z M668.8,526.4c0.8,0.8,1.9,1.2,3.3,1.2
	c1.4,0,2.6-0.4,3.3-1.2c0.8-0.8,1.2-2,1.2-3.5v-9.8c0-1.5-0.4-2.7-1.2-3.5s-1.9-1.2-3.3-1.2c-1.4,0-2.6,0.4-3.3,1.2
	c-0.8,0.8-1.2,2-1.2,3.5v9.8C667.7,524.4,668.1,525.6,668.8,526.4 M659.8,527.4v-5.8l0.9-1.7l2.9,7.5h3l-4.1-10.4l4.1-8.4h-3
	l-3.9,8.2v-8.2h-3v18.8L659.8,527.4L659.8,527.4z"/>
<path class="st1" d="M1186.3,750.4c1.5,0,2.6-0.3,3.2-0.9c0.6-0.6,1-1.7,1-3.2v-10.6c0-1.5-0.3-2.6-1-3.2c-0.6-0.6-1.7-0.9-3.2-0.9
	h-0.9v2.6h0.7c0.5,0,0.8,0.1,1.1,0.4s0.3,0.7,0.3,1.3v10.4c0,0.6-0.1,1.1-0.3,1.3c-0.2,0.2-0.6,0.4-1.1,0.4h-0.7v2.6h0.9V750.4z
	 M1178.2,742.6c0-1.2,0.5-1.9,1.5-1.9s1.5,0.6,1.5,1.9v3.4c0,1.2-0.5,1.8-1.5,1.8s-1.5-0.6-1.5-1.8V742.6z M1176.4,749.3
	c0.8,0.8,1.9,1.2,3.3,1.2s2.6-0.4,3.3-1.2c0.8-0.8,1.2-2,1.2-3.5v-3.4c0-1.4-0.3-2.5-0.8-3.2c-0.6-0.7-1.4-1.1-2.4-1.1
	c-1.3,0-2.2,0.6-2.7,1.7v-3.4c0-0.9,0.1-1.5,0.4-1.8s0.7-0.5,1.2-0.5c1,0,1.5,0.6,1.5,1.9v0.7h2.8v-0.5c0-1.5-0.4-2.7-1.1-3.5
	c-0.8-0.8-1.8-1.2-3.3-1.2c-3,0-4.5,1.6-4.5,4.9v9.6C1175.2,747.4,1175.6,748.5,1176.4,749.3 M1173.4,747.6h-3v2.7h3V747.6z
	 M1163.9,736v14.4h3v-18.8h-2c-0.1,0.3-0.2,0.6-0.3,0.7c-0.1,0.2-0.2,0.4-0.4,0.6c-0.2,0.2-0.4,0.4-0.6,0.5s-0.5,0.2-0.8,0.3
	s-0.7,0.1-1.2,0.1v2.1h2.3V736z M1154.2,749.4c0.6,0.6,1.7,0.9,3.2,0.9h0.9v-2.6h-0.7c-0.5,0-0.8-0.1-1.1-0.4
	c-0.2-0.2-0.3-0.7-0.3-1.3v-10.4c0-0.6,0.1-1.1,0.3-1.3c0.2-0.2,0.6-0.4,1.1-0.4h0.7v-2.6h-0.9c-1.5,0-2.6,0.3-3.2,0.9
	c-0.6,0.6-1,1.7-1,3.2V746C1153.2,747.8,1153.5,748.8,1154.2,749.4"/>
<path class="st1" d="M1184,723.7V721h-5.6c0-0.1,0-0.2,0-0.4c0-0.4,0.1-0.8,0.3-1.3c0.2-0.4,0.5-0.9,0.8-1.3
	c0.3-0.4,0.7-0.8,1.1-1.3s0.8-0.9,1.2-1.5c0.4-0.5,0.8-1.1,1.1-1.6c0.3-0.6,0.6-1.2,0.8-2c0.2-0.7,0.3-1.5,0.3-2.3
	c0-1.5-0.4-2.7-1.1-3.5c-0.8-0.8-1.8-1.2-3.3-1.2c-1.4,0-2.5,0.4-3.3,1.2s-1.1,2-1.1,3.5v1.8h2.8v-2c0-1.2,0.5-1.9,1.5-1.9
	c0.5,0,0.9,0.2,1.1,0.5c0.3,0.3,0.4,0.9,0.4,1.7c0,0.7-0.1,1.4-0.3,2.1c-0.2,0.6-0.5,1.2-0.8,1.7s-0.7,1-1.1,1.4
	c-0.4,0.5-0.8,0.9-1.3,1.4c-0.4,0.5-0.8,1-1.1,1.4c-0.3,0.5-0.6,1.1-0.8,1.7c-0.2,0.7-0.3,1.4-0.3,2.1v2.3h8.7V723.7z M1173.4,721
	h-3v2.7h3V721z M1160.8,722.7c0.8,0.8,1.9,1.2,3.4,1.2c1.4,0,2.5-0.4,3.3-1.2s1.1-2,1.1-3.5v-1.5c0-2-0.7-3.4-2.1-3.9
	c1.4-0.6,2.1-1.9,2.1-3.9v-0.5c0-1.5-0.4-2.7-1.1-3.5s-1.8-1.2-3.3-1.2c-1.4,0-2.6,0.4-3.4,1.2s-1.2,2-1.2,3.5v1h3v-1.2
	c0-1.2,0.5-1.9,1.5-1.9c0.5,0,0.9,0.2,1.1,0.5c0.3,0.3,0.4,0.9,0.4,1.7v1.1c0,0.7-0.1,1.2-0.4,1.5s-0.7,0.5-1.3,0.5h-1.2v2.7h1
	c0.7,0,1.2,0.2,1.5,0.6c0.3,0.4,0.5,1,0.5,1.8v1.5c0,0.8-0.1,1.3-0.4,1.7c-0.3,0.3-0.6,0.5-1.1,0.5c-1,0-1.5-0.6-1.5-1.9v-1.7h-3
	v1.6C1159.6,720.7,1160,721.9,1160.8,722.7"/>
<path class="st1" d="M774.2,439.4c0.6,0.7,1.5,1,2.7,1s2-0.3,2.6-1s0.9-1.6,0.9-2.8v-3.4c0-1.1-0.2-2-0.7-2.6
	c-0.4-0.6-1.1-0.9-2-0.9s-1.6,0.4-2.1,1.1l0.2-3.6h4.1V425h-6.3l-0.5,8.7h2.4v-0.5c0-1,0.4-1.5,1.2-1.5s1.2,0.5,1.2,1.5v3.3
	c0,1-0.4,1.5-1.2,1.5s-1.2-0.5-1.2-1.5v-1.4h-2.4v1.3C773.2,437.8,773.5,438.8,774.2,439.4 M771.7,438.1h-2.4v2.2h2.4V438.1z
	 M761.7,439.4c0.6,0.7,1.5,1,2.7,1s2-0.3,2.6-1s0.9-1.6,0.9-2.8v-1.2c0-1.6-0.5-2.7-1.6-3.2c1.1-0.5,1.6-1.5,1.6-3.1v-0.4
	c0-1.2-0.3-2.1-0.9-2.8c-0.6-0.7-1.5-1-2.6-1c-1.2,0-2,0.3-2.7,1c-0.6,0.7-1,1.6-1,2.8v0.8h2.4v-1c0-1,0.4-1.5,1.2-1.5
	c0.4,0,0.7,0.1,0.9,0.4s0.3,0.7,0.3,1.3v0.8c0,0.6-0.1,1-0.4,1.2c-0.2,0.2-0.6,0.4-1.1,0.4h-0.9v2.2h0.8c0.5,0,0.9,0.1,1.2,0.4
	c0.2,0.3,0.4,0.8,0.4,1.5v1.2c0,0.6-0.1,1.1-0.3,1.3c-0.2,0.3-0.5,0.4-0.9,0.4c-0.8,0-1.2-0.5-1.2-1.5v-1.4h-2.4v1.3
	C760.7,437.8,761,438.8,761.7,439.4"/>
<path class="st1" d="M791.5,407.6c0-0.5,0.1-0.9,0.3-1.2c0.2-0.2,0.5-0.4,0.9-0.4h1.1v4.6h-0.9c-0.5,0-0.8-0.1-1.1-0.4
	c-0.2-0.2-0.4-0.7-0.4-1.2v-1.4H791.5z M791.3,418.9c0.1-0.2,0.1-0.3,0.1-0.4s0-0.3,0.1-0.5c0-0.3,0-0.6,0-1v-2.4
	c0-0.7,0.1-1.2,0.4-1.5c0.2-0.3,0.6-0.4,1.2-0.4h0.8v6.1h2.4v-15.1h-3.6c-1.2,0-2.1,0.3-2.7,0.9c-0.6,0.6-0.8,1.4-0.8,2.6v1.2
	c0,1.6,0.5,2.6,1.5,3.1c-0.6,0.2-1,0.6-1.2,1.2c-0.2,0.5-0.4,1.2-0.4,2v2.3c0,0.8-0.1,1.4-0.2,1.8L791.3,418.9L791.3,418.9z
	 M784.2,406.5l1.1,7.6H783L784.2,406.5z M782.3,418.9l0.4-2.7h2.9l0.4,2.7h2.4l-2.4-15.1h-3.6l-2.4,15.1H782.3z M773.7,418.9v-6.5
	h2.7v6.5h2.4v-15.1h-2.4v6.5h-2.7v-6.5h-2.4v15.1H773.7z M764.6,418.9v-6.5h2.7v6.5h2.4v-15.1h-2.4v6.5h-2.7v-6.5h-2.4v15.1H764.6z
	 M757.1,406.5l1.1,7.6h-2.3L757.1,406.5z M755.2,418.9l0.4-2.7h2.9l0.4,2.7h2.4l-2.4-15.1h-3.6l-2.4,15.1H755.2z M747.1,406h1.2
	c0.4,0,0.7,0.1,0.9,0.4s0.3,0.6,0.3,1.2v0.8c0,0.6-0.1,1-0.4,1.2c-0.2,0.2-0.6,0.4-1.1,0.4h-0.9V406z M747.1,412.1h1.1
	c0.5,0,0.9,0.1,1.2,0.4c0.2,0.3,0.4,0.7,0.4,1.4v1.3c0,0.5-0.1,0.9-0.3,1.1s-0.5,0.3-0.9,0.3h-1.4L747.1,412.1L747.1,412.1z
	 M748.4,418.9c1.2,0,2.1-0.3,2.7-0.9c0.6-0.6,0.9-1.5,0.9-2.7v-1.2c0-1.7-0.6-2.8-1.8-3.2c1-0.5,1.5-1.5,1.5-3v-0.5
	c0-1.2-0.3-2-0.8-2.6c-0.6-0.6-1.5-0.9-2.7-0.9h-3.6V419L748.4,418.9L748.4,418.9z"/>
<line class="st4" x1="217.8" y1="585.1" x2="417.9" y2="585.1"/>
<line class="st5" x1="423.9" y1="594.5" x2="423.9" y2="803.3"/>
<path class="st2" d="M423.9,806.4v3.1 M420.9,585.1h3v3.1 M208.9,585.1h3"/>
<path class="st1" d="M342.2,732.6c0-1.2,0.5-1.9,1.5-1.9s1.5,0.6,1.5,1.9v3.4c0,1.2-0.5,1.8-1.5,1.8s-1.5-0.6-1.5-1.8V732.6z
	 M340.5,739.3c0.8,0.8,1.9,1.2,3.3,1.2s2.6-0.4,3.3-1.2c0.8-0.8,1.2-2,1.2-3.5v-3.4c0-1.4-0.3-2.5-0.8-3.2s-1.4-1.1-2.4-1.1
	c-1.3,0-2.2,0.6-2.7,1.7v-3.4c0-0.9,0.1-1.5,0.4-1.8s0.7-0.5,1.2-0.5c1,0,1.5,0.6,1.5,1.9v0.7h2.8V726c0-1.5-0.4-2.7-1.1-3.5
	c-0.8-0.8-1.8-1.2-3.3-1.2c-3,0-4.5,1.6-4.5,4.9v9.6C339.3,737.3,339.7,738.5,340.5,739.3 M337.4,737.6h-3v2.7h3V737.6z
	 M326.6,732.6c0-1.2,0.5-1.9,1.5-1.9s1.5,0.6,1.5,1.9v3.4c0,1.2-0.5,1.8-1.5,1.8s-1.5-0.6-1.5-1.8V732.6z M324.8,739.3
	c0.8,0.8,1.9,1.2,3.3,1.2s2.6-0.4,3.3-1.2c0.8-0.8,1.2-2,1.2-3.5v-3.4c0-1.4-0.3-2.5-0.8-3.2s-1.4-1.1-2.4-1.1
	c-1.3,0-2.2,0.6-2.7,1.7v-3.4c0-0.9,0.1-1.5,0.4-1.8s0.7-0.5,1.2-0.5c1,0,1.5,0.6,1.5,1.9v0.7h2.8V726c0-1.5-0.4-2.7-1.1-3.5
	c-0.8-0.8-1.8-1.2-3.3-1.2c-3,0-4.5,1.6-4.5,4.9v9.6C323.7,737.3,324,738.5,324.8,739.3"/>
<path class="st1" d="M355.5,698.2l1.4,9.5H354L355.5,698.2z M353.2,713.6l0.5-3.4h3.6l0.5,3.4h3l-3-18.8h-4.6l-3,18.8H353.2z
	 M348.9,713.6v-18.8h-3V711h-2.6v-16.1h-3V711h-2.6v-16.1h-3v18.8h14.2V713.6z M326.5,713.6l2.5-8.6l1.2-4.6v13.2h3v-18.8h-3.5
	l-2.4,7.8l-1.1,4.1v-11.9h-2.6v18.8H326.5z M314.9,713.6v-8.1h3.4v8.1h3v-18.8h-3v8.1h-3.4v-8.1h-3v18.8H314.9z"/>
<path class="st1" d="M366.6,676.2h-5.4v2.7h5.4V676.2z M353.3,672.8c0-0.7,0.1-1.2,0.4-1.5c0.2-0.3,0.6-0.5,1.1-0.5h1.4v5.8H355
	c-0.6,0-1-0.2-1.3-0.5s-0.4-0.8-0.4-1.5V672.8z M353,687c0.1-0.2,0.1-0.4,0.1-0.5s0.1-0.3,0.1-0.6s0-0.7,0-1.2v-3
	c0-0.9,0.2-1.5,0.5-1.8c0.3-0.4,0.8-0.6,1.5-0.6h1v7.7h3v-18.8h-4.5c-1.5,0-2.6,0.4-3.3,1.1c-0.7,0.7-1.1,1.8-1.1,3.3v1.5
	c0,1.9,0.6,3.2,1.9,3.8c-0.7,0.3-1.2,0.8-1.5,1.4c-0.3,0.7-0.4,1.5-0.4,2.6v2.9c0,1-0.1,1.8-0.3,2.3h3V687z M342,687v-8.1h3.4v8.1h3
	v-18.8h-3v8.1H342v-8.1h-3V687H342z M329.8,687l2.3-7l2.3,7h3l-3.3-9.6l3.1-9.2h-2.6l-2.3,7l-2.2-7h-3l3.1,9.1l-3.3,9.7H329.8z
	 M319.8,682.6v0.2c-0.1,0.6-0.4,1.1-0.8,1.3s-1,0.3-1.8,0.2v2.7c0.8,0.1,1.5,0,2.1-0.1s1.1-0.3,1.5-0.5s0.8-0.6,1.1-1
	c0.3-0.4,0.5-0.9,0.7-1.4s0.3-1.1,0.5-1.8l3.2-14h-3l-1.4,6.5l-0.7,4.4l-0.9-4.4l-1.6-6.4h-3L319.8,682.6z M308.3,687v-5.8l0.9-1.7
	l2.9,7.5h3l-4.1-10.4l4.1-8.4h-3l-3.9,8.2v-8.2h-3V687H308.3z"/>
<path class="st1" d="M290.6,1021.4c0-1.2,0.5-1.9,1.5-1.9s1.5,0.6,1.5,1.9v3.4c0,1.2-0.5,1.8-1.5,1.8s-1.5-0.6-1.5-1.8V1021.4z
	 M288.8,1028.1c0.8,0.8,1.9,1.2,3.3,1.2s2.6-0.4,3.3-1.2c0.8-0.8,1.2-2,1.2-3.5v-3.4c0-1.4-0.3-2.5-0.8-3.2s-1.4-1.1-2.4-1.1
	c-1.3,0-2.2,0.6-2.7,1.7v-3.4c0-0.9,0.1-1.5,0.4-1.8s0.7-0.5,1.2-0.5c1,0,1.5,0.6,1.5,1.9v0.7h2.8v-0.5c0-1.5-0.4-2.7-1.1-3.5
	c-0.8-0.8-1.8-1.2-3.3-1.2c-3,0-4.5,1.6-4.5,4.9v9.6C287.6,1026.1,288,1027.3,288.8,1028.1 M285.8,1026.4h-3v2.7h3V1026.4z
	 M275,1021.4c0-1.2,0.5-1.9,1.5-1.9s1.5,0.6,1.5,1.9v3.4c0,1.2-0.5,1.8-1.5,1.8s-1.5-0.6-1.5-1.8V1021.4z M273.2,1028.1
	c0.8,0.8,1.9,1.2,3.3,1.2s2.6-0.4,3.3-1.2c0.8-0.8,1.2-2,1.2-3.5v-3.4c0-1.4-0.3-2.5-0.8-3.2s-1.4-1.1-2.4-1.1
	c-1.3,0-2.2,0.6-2.7,1.7v-3.4c0-0.9,0.1-1.5,0.4-1.8s0.7-0.5,1.2-0.5c1,0,1.5,0.6,1.5,1.9v0.7h2.8v-0.5c0-1.5-0.4-2.7-1.1-3.5
	c-0.8-0.8-1.8-1.2-3.3-1.2c-3,0-4.5,1.6-4.5,4.9v9.6C272,1026.1,272.4,1027.3,273.2,1028.1"/>
<path class="st1" d="M323.9,988.3c0-0.7,0.1-1.2,0.4-1.5c0.2-0.3,0.6-0.5,1.1-0.5h1.4v5.8h-1.2c-0.6,0-1-0.2-1.3-0.5
	s-0.4-0.8-0.4-1.5V988.3z M323.6,1002.5c0.1-0.2,0.1-0.4,0.1-0.5s0.1-0.3,0.1-0.6s0-0.7,0-1.2v-3c0-0.9,0.2-1.5,0.5-1.8
	c0.3-0.4,0.8-0.6,1.5-0.6h1v7.7h3v-18.8h-4.5c-1.5,0-2.6,0.4-3.3,1.1c-0.7,0.7-1.1,1.8-1.1,3.3v1.5c0,1.9,0.6,3.2,1.9,3.8
	c-0.7,0.3-1.2,0.8-1.5,1.4c-0.3,0.7-0.4,1.5-0.4,2.6v2.9c0,1-0.1,1.8-0.3,2.3h3V1002.5z M314.7,987l1.4,9.5h-2.9L314.7,987z
	 M312.4,1002.5l0.5-3.4h3.6l0.5,3.4h3l-3-18.8h-4.6l-3,18.8H312.4z M296.1,1002.5l2.7-8.4l0.7,1.5v6.9h3v-6.9l0.7-1.4l2.7,8.3h3
	l-3.6-11.1l3.6-7.7H306l-3.5,7.6v-7.6h-3v7.6l-3.5-7.6h-2.9l3.7,7.7l-3.7,11.1L296.1,1002.5L296.1,1002.5z M286.1,988
	c0-1.2,0.5-1.9,1.5-1.9s1.5,0.6,1.5,1.9v10.2c0,1.2-0.5,1.9-1.5,1.9s-1.5-0.6-1.5-1.9V988z M284.3,1001.4c0.8,0.8,1.9,1.2,3.3,1.2
	s2.6-0.4,3.3-1.2c0.8-0.8,1.2-2,1.2-3.5v-9.8c0-1.5-0.4-2.7-1.2-3.5c-0.8-0.8-1.9-1.2-3.3-1.2s-2.6,0.4-3.3,1.2
	c-0.8,0.8-1.2,2-1.2,3.5v9.8C283.1,999.5,283.5,1000.6,284.3,1001.4 M274.1,1002.5l2.3-7l2.3,7h3l-3.3-9.6l3.1-9.2h-2.6l-2.3,7
	l-2.2-7h-3l3.1,9.1l-3.3,9.7H274.1z M263.4,1002.5l2.5-8.6l1.2-4.6v13.2h3v-18.8h-3.5l-2.4,7.8l-1.1,4.1v-11.9h-2.6v18.8H263.4z
	 M253.1,986.3h1.4c0.5,0,0.9,0.1,1.1,0.4c0.2,0.3,0.4,0.7,0.4,1.4v2.8c0,0.6-0.1,1.1-0.4,1.4c-0.2,0.3-0.6,0.4-1.1,0.4h-1.4V986.3z
	 M253.1,1002.5v-7.1h1.4c1.5,0,2.6-0.4,3.3-1.2c0.7-0.8,1.1-1.9,1.1-3.5v-2.4c0-1.5-0.4-2.7-1.1-3.5s-1.8-1.2-3.3-1.2h-4.4v18.8h3
	V1002.5z M241.7,1002.5v-16.1h3.4v16.1h3v-18.8h-9.3v18.8H241.7z"/>
<path class="st1" d="M404.6,545.4v-2.9h-6.1c0-0.1,0-0.2,0-0.4c0-0.5,0.1-0.9,0.4-1.4c0.2-0.5,0.5-0.9,0.9-1.4s0.8-0.9,1.3-1.4
	s0.9-1,1.4-1.6s0.9-1.2,1.2-1.8c0.4-0.6,0.7-1.3,0.9-2.1c0.2-0.8,0.4-1.7,0.4-2.5c0-1.7-0.4-2.9-1.2-3.8c-0.8-0.9-2-1.3-3.6-1.3
	s-2.8,0.4-3.6,1.3c-0.8,0.9-1.2,2.2-1.2,3.8v2h3.1v-2.2c0-1.4,0.6-2,1.7-2c0.6,0,1,0.2,1.2,0.5c0.3,0.3,0.4,1,0.4,1.8
	s-0.1,1.6-0.4,2.3c-0.2,0.7-0.5,1.3-0.9,1.9c-0.4,0.5-0.8,1.1-1.3,1.6s-0.9,1-1.4,1.5s-0.9,1-1.3,1.6c-0.4,0.5-0.7,1.2-0.9,1.9
	c-0.2,0.7-0.4,1.5-0.4,2.3v2.5h9.4V545.4z M393,542.4h-3.2v3h3.2V542.4z M387.5,545.4v-2.9h-6.1c0-0.1,0-0.2,0-0.4
	c0-0.5,0.1-0.9,0.4-1.4c0.2-0.5,0.5-0.9,0.9-1.4s0.8-0.9,1.3-1.4s0.9-1,1.4-1.6s0.9-1.2,1.2-1.8c0.4-0.6,0.7-1.3,0.9-2.1
	c0.2-0.8,0.4-1.7,0.4-2.5c0-1.7-0.4-2.9-1.2-3.8c-0.8-0.9-2-1.3-3.6-1.3s-2.8,0.4-3.6,1.3c-0.8,0.9-1.2,2.2-1.2,3.8v2h3.1v-2.2
	c0-1.4,0.6-2,1.7-2c0.6,0,1,0.2,1.2,0.5c0.3,0.3,0.4,1,0.4,1.8s-0.1,1.6-0.4,2.3c-0.2,0.7-0.5,1.3-0.9,1.9c-0.4,0.5-0.8,1.1-1.3,1.6
	s-0.9,1-1.4,1.5s-0.9,1-1.3,1.6c-0.4,0.5-0.7,1.2-0.9,1.9c-0.2,0.7-0.4,1.5-0.4,2.3v2.5h9.4V545.4z M375.8,545.4v-2.9h-6.1
	c0-0.1,0-0.2,0-0.4c0-0.5,0.1-0.9,0.4-1.4c0.2-0.5,0.5-0.9,0.9-1.4s0.8-0.9,1.3-1.4s0.9-1,1.4-1.6s0.9-1.2,1.2-1.8
	c0.4-0.6,0.7-1.3,0.9-2.1c0.2-0.8,0.4-1.7,0.4-2.5c0-1.7-0.4-2.9-1.2-3.8c-0.8-0.9-2-1.3-3.6-1.3s-2.8,0.4-3.6,1.3
	c-0.8,0.9-1.2,2.2-1.2,3.8v2h3.1v-2.2c0-1.4,0.6-2,1.7-2c0.6,0,1,0.2,1.2,0.5c0.3,0.3,0.4,1,0.4,1.8s-0.1,1.6-0.3,2.3
	c-0.2,0.7-0.5,1.3-0.9,1.9c-0.4,0.5-0.8,1.1-1.3,1.6s-0.9,1-1.4,1.5s-0.9,1-1.3,1.6c-0.4,0.5-0.7,1.2-0.9,1.9
	c-0.2,0.7-0.4,1.5-0.4,2.3v2.5h9.3V545.4z"/>
<path class="st1" d="M459,493.1l1.6,10.4h-3.1L459,493.1z M456.4,510l0.6-3.7h4l0.6,3.7h3.2l-3.3-20.6h-5l-3.3,20.6H456.4z
	 M446,492.4V510h3.2v-17.7h3.4v-2.9h-10v2.9h3.4V492.4z M436.5,493.1l1.6,10.4H435L436.5,493.1z M434,510l0.6-3.7h4l0.6,3.7h3.2
	l-3.3-20.6h-5l-3.3,20.6H434z M422.3,510v-8.8h3.7v8.8h3.2v-20.6H426v8.8h-3.7v-8.8H419V510H422.3z M405.9,510v-14.5l2.4,14.5h3.1
	l2.2-14.8V510h3.2v-20.6h-4.7l-2.2,14.7l-2.4-14.7H403V510H405.9z M394.4,494.2c0-1.4,0.6-2,1.7-2s1.7,0.7,1.7,2v11.1
	c0,1.4-0.6,2-1.7,2s-1.7-0.7-1.7-2V494.2z M392.5,508.9c0.8,0.9,2.1,1.4,3.6,1.4c1.6,0,2.8-0.5,3.6-1.4c0.8-0.9,1.3-2.2,1.3-3.8
	v-10.7c0-1.6-0.4-2.9-1.3-3.8c-0.8-0.9-2.1-1.4-3.6-1.4c-1.6,0-2.8,0.5-3.6,1.4c-0.8,0.9-1.3,2.2-1.3,3.8v10.7
	C391.2,506.7,391.6,508,392.5,508.9 M382.5,510v-6.3l1-1.9l3.1,8.2h3.3l-4.5-11.4l4.5-9.2h-3.2l-4.2,9v-9h-3.2V510H382.5z
	 M365.9,494.5c0-0.7,0.1-1.3,0.4-1.6c0.3-0.3,0.7-0.5,1.3-0.5h1.5v6.3h-1.3c-0.6,0-1.1-0.2-1.5-0.5c-0.3-0.3-0.5-0.9-0.5-1.7v-2
	H365.9z M365.6,510c0.1-0.2,0.1-0.4,0.2-0.5c0-0.1,0.1-0.3,0.1-0.7c0-0.3,0-0.8,0-1.3v-3.2c0-0.9,0.2-1.6,0.5-2s0.9-0.6,1.6-0.6h1.1
	v8.4h3.2v-20.6h-4.9c-1.7,0-2.9,0.4-3.6,1.2c-0.8,0.8-1.2,2-1.2,3.6v1.6c0,2.1,0.7,3.5,2.1,4.2c-0.8,0.3-1.3,0.9-1.7,1.6
	c-0.3,0.7-0.5,1.7-0.5,2.8v3.2c0,1.1-0.1,1.9-0.3,2.5h3.4V510z M355.8,493.1l1.6,10.4h-3.1L355.8,493.1z M353.3,510l0.6-3.7h4
	l0.6,3.7h3.2l-3.3-20.6h-5l-3.3,20.6H353.3z M337.3,510.1c1.6,0,2.8-0.4,3.5-1.2c0.7-0.8,1.1-2.1,1.2-4l0.4-12.5h2.8V510h3.2v-20.6
	h-9.3l-0.4,15.6c0,0.5-0.1,0.9-0.1,1.1c-0.1,0.3-0.2,0.5-0.4,0.6c-0.2,0.1-0.4,0.2-0.6,0.3c-0.2,0-0.5,0.1-0.9,0.1v2.9h0.6V510.1z
	 M328.4,510l2.7-9.4l1.3-5V510h3.2v-20.6h-3.9l-2.6,8.5l-1.2,4.5v-13.1H325V510H328.4z M309.6,510l3-9.2l0.8,1.6v7.6h3.2v-7.6
	l0.8-1.6l2.9,9.1h3.2l-4-12.2l4-8.4h-3.2l-3.8,8.3v-8.3h-3.2v8.3l-3.8-8.3h-3.2l4,8.5l-4,12.2H309.6z"/>
<path class="st1" d="M414.7,453c0-3.1,1.3-4.6,3.8-4.6s3.8,1.5,3.8,4.6v8.5c0,3.1-1.3,4.6-3.8,4.6c-2.6,0-3.8-1.5-3.8-4.6V453z
	 M410.2,469.7c1.9,2.1,4.7,3.1,8.3,3.1c3.6,0,6.4-1,8.3-3.1s2.9-5,2.9-8.7v-8.6c0-3.5-0.7-6.2-2.1-8s-3.4-2.8-6.1-2.8
	c-3.3,0-5.6,1.4-6.9,4.2v-8.6c0-2.1,0.3-3.6,1-4.5s1.7-1.3,3.1-1.3c2.6,0,3.8,1.5,3.8,4.6v1.7h7v-1.2c0-3.8-0.9-6.7-2.8-8.8
	s-4.6-3.1-8.2-3.1c-7.5,0-11.3,4.1-11.3,12.3V461C407.3,464.8,408.3,467.7,410.2,469.7 M402.7,465.5h-7.4v6.8h7.4V465.5z
	 M378.9,436.4v35.9h7.4v-47.1h-5c-0.3,0.8-0.5,1.4-0.8,1.9c-0.2,0.5-0.5,1-1,1.6c-0.4,0.6-0.9,1-1.4,1.3s-1.2,0.6-2.1,0.8
	c-0.9,0.2-1.8,0.3-2.9,0.3v5.2h5.8V436.4z M348.4,436.8c0-2,0.4-3.4,1.1-4.2c0.7-0.8,1.8-1.2,3.1-1.2c1.3,0,2.3,0.4,3.1,1.2
	c0.7,0.8,1.1,2.2,1.1,4.2v2.6c0,3.3-1.4,5-4.2,5c-2.8,0-4.2-1.7-4.2-5V436.8z M348.4,456.4c0-3.5,1.4-5.3,4.2-5.3
	c2.8,0,4.2,1.8,4.2,5.3v4.4c0,2-0.4,3.3-1.1,4.1c-0.7,0.8-1.7,1.2-3,1.2s-2.3-0.4-3.1-1.2c-0.7-0.8-1.1-2.2-1.1-4.1v-4.4H348.4z
	 M344,469.7c2,2.1,4.9,3.1,8.6,3.1s6.6-1,8.6-3.1s3-5,3-8.7v-3.7c0-4.8-1.5-8.1-4.6-9.8c3.1-1.7,4.6-4.9,4.6-9.5v-1.5
	c0-3.8-1-6.7-3-8.7c-2-2.1-4.8-3.1-8.6-3.1c-3.7,0-6.6,1-8.6,3.1s-3,5-3,8.7v1.5c0,4.6,1.5,7.8,4.6,9.5c-3.1,1.7-4.6,5-4.6,9.8v3.7
	C341,464.8,342,467.7,344,469.7"/>
<ellipse class="st6" cx="385.5" cy="370.2" rx="41.2" ry="41.2"/>
<path class="st1" d="M389.5,387.4c1.4,1.5,3.5,2.3,6.2,2.3s4.9-0.8,6.4-2.3s2.3-3.8,2.3-6.6V376h-5.6v5.1c0,2.3-1,3.5-2.9,3.5
	c-2,0-2.9-1.2-2.9-3.5v-19.3c0-2.3,1-3.5,2.9-3.5s2.9,1.2,2.9,3.5v3.8h5.6v-3.5c0-2.9-0.8-5.1-2.3-6.6c-1.5-1.6-3.6-2.3-6.4-2.3
	c-2.7,0-4.8,0.8-6.2,2.3c-1.4,1.5-2.1,3.8-2.1,6.6v18.6C387.3,383.6,388,385.8,389.5,387.4 M369.6,387.4c1.5,1.5,3.6,2.3,6.4,2.3
	c2.7,0,4.8-0.8,6.2-2.3c1.4-1.5,2.1-3.8,2.1-6.6V378c0-3.9-1.3-6.4-3.9-7.5c2.6-1.1,3.9-3.5,3.9-7.3v-0.9c0-2.9-0.7-5.1-2.1-6.6
	c-1.4-1.6-3.5-2.3-6.2-2.3s-4.9,0.8-6.4,2.3s-2.3,3.8-2.3,6.6v1.9h5.6v-2.3c0-2.3,1-3.5,2.9-3.5c1,0,1.7,0.3,2.2,0.9
	s0.7,1.7,0.7,3.2v2c0,1.4-0.3,2.3-0.8,2.9c-0.6,0.6-1.4,0.9-2.5,0.9h-2.2v5.1h1.9c1.3,0,2.2,0.3,2.8,1c0.6,0.7,0.9,1.9,0.9,3.5v2.8
	c0,1.5-0.2,2.5-0.7,3.1s-1.2,0.9-2.2,0.9c-1.9,0-2.9-1.2-2.9-3.5v-3.3h-5.6v3C367.3,383.6,368.1,385.8,369.6,387.4"/>
<path class="st1" d="M132.9,456.9c1.5,0,2.6-0.3,3.2-0.9c0.6-0.6,1-1.7,1-3.2v-10.6c0-1.5-0.3-2.6-1-3.2c-0.6-0.6-1.7-0.9-3.2-0.9
	H132v2.6h0.7c0.5,0,0.8,0.1,1.1,0.4c0.2,0.2,0.3,0.7,0.3,1.3v10.4c0,0.6-0.1,1.1-0.3,1.3c-0.2,0.2-0.6,0.4-1.1,0.4H132v2.6h0.9
	V456.9z M130.5,456.9v-2.7h-5.6c0-0.1,0-0.2,0-0.4c0-0.4,0.1-0.8,0.3-1.3c0.2-0.4,0.5-0.9,0.8-1.3s0.7-0.8,1.1-1.3s0.8-0.9,1.2-1.5
	c0.4-0.5,0.8-1.1,1.1-1.6c0.3-0.6,0.6-1.2,0.8-2c0.2-0.7,0.3-1.5,0.3-2.3c0-1.5-0.4-2.7-1.1-3.5c-0.7-0.8-1.8-1.2-3.3-1.2
	c-1.4,0-2.5,0.4-3.3,1.2c-0.8,0.8-1.1,2-1.1,3.5v1.8h2.8v-2c0-1.2,0.5-1.9,1.5-1.9c0.5,0,0.9,0.2,1.1,0.5c0.3,0.3,0.4,0.9,0.4,1.7
	c0,0.7-0.1,1.4-0.3,2.1c-0.2,0.6-0.5,1.2-0.8,1.7s-0.7,1-1.1,1.4c-0.4,0.5-0.8,0.9-1.3,1.4c-0.4,0.5-0.8,0.9-1.1,1.4
	c-0.3,0.5-0.6,1.1-0.8,1.7c-0.2,0.7-0.3,1.4-0.3,2.1v2.3h8.7V456.9z M119.9,454.2h-3v2.7h3V454.2z M114.9,456.9v-2.7h-5.6
	c0-0.1,0-0.2,0-0.4c0-0.4,0.1-0.8,0.3-1.3c0.2-0.4,0.5-0.9,0.8-1.3s0.7-0.8,1.1-1.3s0.8-0.9,1.2-1.5c0.4-0.5,0.8-1.1,1.1-1.6
	c0.3-0.6,0.6-1.2,0.8-2c0.2-0.7,0.3-1.5,0.3-2.3c0-1.5-0.4-2.7-1.1-3.5c-0.8-0.8-1.8-1.2-3.3-1.2c-1.4,0-2.5,0.4-3.3,1.2
	c-0.8,0.8-1.1,2-1.1,3.5v1.8h2.8v-2c0-1.2,0.5-1.9,1.5-1.9c0.5,0,0.9,0.2,1.1,0.5c0.3,0.3,0.4,0.9,0.4,1.7c0,0.7-0.1,1.4-0.3,2.1
	c-0.2,0.6-0.5,1.2-0.8,1.7s-0.7,1-1.1,1.4c-0.4,0.5-0.8,0.9-1.3,1.4c-0.4,0.5-0.8,0.9-1.1,1.4c-0.3,0.5-0.6,1.1-0.8,1.7
	c-0.2,0.7-0.3,1.4-0.3,2.1v2.3h8.7V456.9z M100.7,455.9c0.6,0.6,1.7,0.9,3.2,0.9h0.9v-2.6h-0.7c-0.5,0-0.8-0.1-1.1-0.4
	c-0.2-0.2-0.3-0.7-0.3-1.3v-10.4c0-0.6,0.1-1.1,0.3-1.3c0.2-0.2,0.6-0.4,1.1-0.4h0.7V438h-0.9c-1.5,0-2.6,0.3-3.2,0.9s-1,1.7-1,3.2
	v10.6C99.8,454.3,100.1,455.3,100.7,455.9"/>
<path class="st1" d="M127,417v7.1h-3L127,417z M127,426.8v3.4h3v-3.4h1.4v-2.7H130v-12.7h-3.2l-5.4,12.7v2.7H127z M119.9,427.5h-3
	v2.7h3V427.5z M111.3,417v7.1h-3L111.3,417z M111.3,426.8v3.4h3v-3.4h1.4v-2.7h-1.4v-12.7h-3.2l-5.4,12.7v2.7H111.3z"/>
</svg>
