<svg width="41" height="39" viewBox="0 0 41 39" fill="none" xmlns="http://www.w3.org/2000/svg">
<path d="M20.2413 38.9961C31.4202 38.9961 40.4825 30.3131 40.4825 19.6021C40.4825 8.89114 31.4202 0.208183 20.2413 0.208183C9.06241 0.208183 0.00012207 8.89114 0.00012207 19.6021C0.00012207 30.3131 9.06241 38.9961 20.2413 38.9961Z" fill="url(#paint0_linear_188_4560)"/>
<path d="M30.5416 10.6924L26.6786 29.5937C26.6786 29.5937 26.1381 30.9047 24.6524 30.2754L15.7372 23.6427L12.4955 22.1222L7.03849 20.3399C7.03849 20.3399 6.20051 20.0519 6.11954 19.4225C6.03858 18.7932 7.06481 18.4528 7.06481 18.4528L28.7594 10.1949C28.7584 10.1939 30.5416 9.43369 30.5416 10.6924Z" fill="white"/>
<path d="M15.0511 29.3779C15.0511 29.3779 14.791 29.3546 14.4662 28.3577C14.1423 27.3619 12.4937 22.1187 12.4937 22.1187L25.5968 14.044C25.5968 14.044 26.3529 13.598 26.3265 14.044C26.3265 14.044 26.4611 14.1226 26.0563 14.4901C25.6515 14.8576 15.7626 23.4821 15.7626 23.4821" fill="#E5E5E5"/>
<path d="M19.1545 26.1838L15.6285 29.3033C15.6285 29.3033 15.3532 29.506 15.0516 29.379L15.7267 23.5841" fill="#9A9293"/>
<defs>
<linearGradient id="paint0_linear_188_4560" x1="20.2413" y1="0.208183" x2="20.2413" y2="38.8545" gradientUnits="userSpaceOnUse">
<stop stop-color="#009DFF"/>
<stop offset="1" stop-color="#008CE3"/>
</linearGradient>
</defs>
</svg>
