<?xml version="1.0" encoding="UTF-8"?>
<svg id="_Слой_1" data-name="Слой_1" xmlns="http://www.w3.org/2000/svg" version="1.1" viewBox="0 0 1200 1200">
  <!-- Generator: Adobe Illustrator 29.4.0, SVG Export Plug-In . SVG Version: 2.1.0 Build 152)  -->
  <defs>
    <style>
      .st0 {
        fill: #fff5a6;
      }

      .st1, .st2 {
        fill: none;
        stroke: #3c3c3b;
      }

      .st3 {
        fill: #3c3c3b;
      }

      .st2 {
        stroke-dasharray: 1.5 1;
      }
    </style>
  </defs>
  <rect class="st0" x="604.95" y="194.82" width="225.8" height="806.3"/>
  <rect class="st0" x="363.15" y="475.36" width="250.93" height="525.76"/>
  <rect class="st3" x="831.42" y="90.96" width="13.51" height="936.13"/>
  <rect class="st1" x="831.42" y="90.96" width="13.51" height="936.13"/>
  <rect class="st3" x="783.37" y="171.73" width="55.96" height="22.42"/>
  <rect class="st1" x="783.37" y="171.73" width="55.96" height="22.42"/>
  <rect class="st3" x="596.87" y="171.73" width="55.96" height="22.42"/>
  <rect class="st1" x="596.87" y="171.73" width="55.96" height="22.42"/>
  <rect class="st1" x="703.54" y="171.73" width="81.1" height="22.42"/>
  <rect class="st3" x="778.36" y="166.55" width="60.97" height="5.13"/>
  <rect class="st1" x="778.36" y="166.55" width="60.97" height="5.13"/>
  <rect class="st3" x="596.87" y="166.55" width="60.97" height="5.13"/>
  <rect class="st1" x="596.87" y="166.55" width="60.97" height="5.13"/>
  <rect class="st1" x="697.07" y="166.55" width="87.57" height="5.13"/>
  <path class="st1" d="M703.38,170.86s0,6.35-2.82,14.25c-2.36,6.61-7.06,12.79-7.06,12.79l-43.96-24.86.98-1.56,44.05,24.87"/>
  <rect class="st3" x="591.53" y="58.22" width="12.75" height="450.64"/>
  <rect class="st1" x="591.53" y="58.22" width="12.75" height="450.64"/>
  <rect class="st3" x="580.87" y="58.22" width="16.36" height="422.46"/>
  <rect class="st3" x="349.78" y="470.03" width="248.12" height="10.65"/>
  <rect class="st1" x="356.48" y="470.03" width="241.43" height="5.33"/>
  <polygon class="st1" points="603.15 58.22 603.15 66.39 832.47 98.95 832.47 90.77 603.15 58.22"/>
  <rect class="st3" x="351.64" y="730.29" width="11.41" height="98.8"/>
  <rect class="st1" x="351.64" y="730.29" width="11.41" height="98.8"/>
  <rect class="st3" x="351.64" y="600.45" width="11.41" height="143.83"/>
  <rect class="st1" x="351.64" y="600.45" width="11.41" height="143.83"/>
  <rect class="st3" x="592.87" y="577.22" width="11.41" height="451.4"/>
  <rect class="st1" x="592.87" y="577.22" width="11.41" height="451.4"/>
  <rect class="st3" x="356.98" y="621.96" width="144.11" height="11.41"/>
  <rect class="st1" x="356.98" y="621.96" width="144.11" height="11.41"/>
  <rect class="st3" x="557.53" y="621.96" width="40.54" height="11.41"/>
  <rect class="st1" x="557.53" y="621.96" width="40.54" height="11.41"/>
  <rect class="st3" x="349.9" y="459.94" width="13.16" height="79"/>
  <rect class="st1" x="351.64" y="464.13" width="11.41" height="74.81"/>
  <rect class="st3" x="590.77" y="1025.4" width="16.36" height="79.38"/>
  <rect class="st1" x="590.77" y="1025.4" width="16.36" height="79.38"/>
  <rect class="st1" x="360" y="1113.34" width="236.35" height="7.6" transform="translate(-150.99 77.52) rotate(-8.01)"/>
  <rect class="st3" x="357.35" y="1001.41" width="49.54" height="26.45"/>
  <rect class="st1" x="357.35" y="1001.41" width="49.54" height="26.45"/>
  <rect class="st3" x="543.94" y="1021.97" width="108.32" height="5.13"/>
  <rect class="st1" x="543.94" y="1021.97" width="108.32" height="5.13"/>
  <rect class="st3" x="549.72" y="1000.65" width="96.76" height="26.45"/>
  <rect class="st1" x="549.72" y="1000.65" width="96.76" height="26.45"/>
  <rect class="st3" x="784.02" y="1021.97" width="60.91" height="5.13"/>
  <rect class="st1" x="784.02" y="1021.97" width="60.91" height="5.13"/>
  <rect class="st1" x="637.74" y="1021.97" width="160.11" height="5.13"/>
  <rect class="st3" x="789.8" y="1000.65" width="49.04" height="26.45"/>
  <rect class="st1" x="789.8" y="1000.65" width="49.04" height="26.45"/>
  <rect class="st3" x="349.78" y="598.89" width="15.18" height="539.14"/>
  <rect class="st1" x="634.06" y="1000.65" width="167.46" height="26.45"/>
  <rect class="st1" x="457.17" y="1000.65" width="102.67" height="21.31"/>
  <rect class="st1" x="450.7" y="1021.97" width="102.67" height="5.13"/>
  <path class="st1" d="M457.01,1021.64s0-6.35-2.82-14.25c-2.36-6.61-7.06-12.79-7.06-12.79l-43.96,24.86.98,1.56,44.05-24.87"/>
  <rect class="st3" x="661.98" y="429.86" width="173.43" height="9.13"/>
  <rect class="st1" x="661.98" y="429.86" width="173.43" height="9.13"/>
  <rect class="st3" x="661.98" y="622.91" width="176.86" height="9.13"/>
  <rect class="st1" x="661.98" y="622.91" width="176.86" height="9.13"/>
  <rect class="st3" x="683.37" y="517.44" width="7.42" height="61.77"/>
  <rect class="st1" x="683.37" y="517.44" width="7.42" height="61.77"/>
  <rect class="st3" x="683.37" y="431.38" width="7.42" height="47.49"/>
  <rect class="st1" x="683.37" y="431.38" width="7.42" height="47.49"/>
  <rect class="st3" x="687.74" y="556.66" width="147.89" height="6.65"/>
  <rect class="st1" x="687.74" y="556.66" width="147.89" height="6.65"/>
  <rect class="st1" x="809.82" y="564.75" width="20.17" height="56.72"/>
  <line class="st1" x1="812.98" y1="564.91" x2="812.98" y2="621.76"/>
  <polyline class="st1" points="812.95 567.69 827.54 568.95 827.54 604.84 812.95 606.41 812.95 608.77 827.7 610.34 827.7 618.37 812.95 620.1"/>
  <rect class="st1" x="789.09" y="564.75" width="20.17" height="56.72"/>
  <line class="st1" x1="792.24" y1="621.31" x2="792.24" y2="564.46"/>
  <polyline class="st1" points="792.22 618.53 806.81 617.27 806.81 581.39 792.22 579.81 792.22 577.45 806.97 575.88 806.97 567.85 792.22 566.12"/>
  <path class="st1" d="M596.91,436.97l56.96-32.77s2.97,4.66,5.52,14.65c2.55,9.99,2.55,16.94,2.55,16.94"/>
  <path class="st1" d="M597.15,624.73l56.96,32.77s2.97-4.66,5.52-14.65c2.55-9.99,2.55-16.94,2.55-16.94"/>
  <path class="st1" d="M564.92,624.73l-56.96,32.77s-2.97-4.66-5.52-14.65c-2.55-9.99-2.55-16.94-2.55-16.94"/>
  <path class="st1" d="M356.88,612.23l36.97-64.09s-5.25-3.34-16.53-6.21c-11.27-2.87-19.11-2.87-19.11-2.87"/>
  <path class="st1" d="M691.01,631.81l-26.46-46.45s3.76-2.42,11.83-4.5c8.07-2.08,13.67-2.08,13.67-2.08"/>
  <path class="st1" d="M691.01,465.14l-26.46,46.45s3.76,2.42,11.83,4.5c8.07,2.08,13.67,2.08,13.67,2.08"/>
  <rect class="st1" x="695.35" y="514.63" width="40.17" height="38.88"/>
  <line class="st1" x1="695.23" y1="552.97" x2="735.36" y2="514.76"/>
  <line class="st1" x1="695.23" y1="514.32" x2="735.36" y2="552.53"/>
  <g>
    <path class="st3" d="M739.15,593.5c0-6.87,5.59-12.46,12.47-12.46h18.05c1.18,0,2.15.96,2.15,2.15v20.62c0,1.18-.97,2.15-2.15,2.15h-18.05c-6.87,0-12.47-5.59-12.47-12.47M772.67,603.81v-20.62c0-1.66-1.35-3.01-3.01-3.01h-18.05c-7.35,0-13.32,5.98-13.32,13.31s5.98,13.32,13.32,13.32h18.05c1.66,0,3.01-1.35,3.01-3.01"/>
    <path class="st1" d="M739.15,593.5c0-6.87,5.59-12.46,12.47-12.46h18.05c1.18,0,2.15.96,2.15,2.15v20.62c0,1.18-.97,2.15-2.15,2.15h-18.05c-6.87,0-12.47-5.59-12.47-12.47ZM772.67,603.81v-20.62c0-1.66-1.35-3.01-3.01-3.01h-18.05c-7.35,0-13.32,5.98-13.32,13.31s5.98,13.32,13.32,13.32h18.05c1.66,0,3.01-1.35,3.01-3.01Z"/>
    <path class="st1" d="M765.8,584.56v17.87c0,.12-.1.22-.21.22h-13.61c-5.03,0-9.15-4.12-9.15-9.15s4.12-9.15,9.15-9.15h13.61c.11,0,.21.1.21.21Z"/>
    <path class="st3" d="M765.37,584.78v17.44h-13.39c-4.81,0-8.72-3.91-8.72-8.72s3.91-8.72,8.72-8.72h13.39ZM766.22,602.43v-17.87c0-.35-.29-.64-.64-.64h-13.61c-5.28,0-9.58,4.3-9.58,9.58s4.3,9.58,9.58,9.58h13.61c.35,0,.64-.3.64-.65"/>
    <path class="st1" d="M765.37,584.78v17.44h-13.39c-4.81,0-8.72-3.91-8.72-8.72s3.91-8.72,8.72-8.72h13.39ZM766.22,602.43v-17.87c0-.35-.29-.64-.64-.64h-13.61c-5.28,0-9.58,4.3-9.58,9.58s4.3,9.58,9.58,9.58h13.61c.35,0,.64-.3.64-.65Z"/>
    <path class="st3" d="M751.96,593.5c0-1.3,1.06-2.36,2.36-2.36s2.36,1.06,2.36,2.36-1.06,2.36-2.36,2.36-2.36-1.06-2.36-2.36M757.52,593.5c0-1.77-1.44-3.21-3.21-3.21s-3.21,1.44-3.21,3.21,1.44,3.21,3.21,3.21,3.21-1.44,3.21-3.21"/>
    <path class="st1" d="M751.96,593.5c0-1.3,1.06-2.36,2.36-2.36s2.36,1.06,2.36,2.36-1.06,2.36-2.36,2.36-2.36-1.06-2.36-2.36ZM757.52,593.5c0-1.77-1.44-3.21-3.21-3.21s-3.21,1.44-3.21,3.21,1.44,3.21,3.21,3.21,3.21-1.44,3.21-3.21Z"/>
  </g>
  <rect class="st3" x="757.38" y="587.91" width="7.14" height=".86" transform="translate(-200.76 571.27) rotate(-36.69)"/>
  <rect class="st1" x="757.38" y="587.91" width="7.14" height=".86" transform="translate(-200.76 571.27) rotate(-36.69)"/>
  <polygon class="st3" points="764.07 600.32 758.35 596.04 757.83 596.73 763.55 601.01 764.07 600.32"/>
  <polygon class="st1" points="764.07 600.32 758.35 596.04 757.83 596.73 763.55 601.01 764.07 600.32"/>
  <path class="st3" d="M772.72,584.9c0-1.9,1.55-3.45,3.45-3.45h4.7c1.9,0,3.46,1.55,3.46,3.45v17.2c0,1.9-1.55,3.45-3.46,3.45h-4.7c-1.9,0-3.45-1.55-3.45-3.45v-17.2ZM785.18,602.1v-17.2c0-2.37-1.93-4.31-4.31-4.31h-4.7c-2.38,0-4.31,1.93-4.31,4.31v17.2c0,2.37,1.93,4.31,4.31,4.31h4.7c2.38,0,4.31-1.93,4.31-4.31"/>
  <path class="st1" d="M772.72,584.9c0-1.9,1.55-3.45,3.45-3.45h4.7c1.9,0,3.46,1.55,3.46,3.45v17.2c0,1.9-1.55,3.45-3.46,3.45h-4.7c-1.9,0-3.45-1.55-3.45-3.45v-17.2ZM785.18,602.1v-17.2c0-2.37-1.93-4.31-4.31-4.31h-4.7c-2.38,0-4.31,1.93-4.31,4.31v17.2c0,2.37,1.93,4.31,4.31,4.31h4.7c2.38,0,4.31-1.93,4.31-4.31Z"/>
  <path class="st3" d="M777.18,593.5c0-.74.6-1.34,1.34-1.34s1.33.6,1.33,1.34-.6,1.34-1.33,1.34-1.34-.6-1.34-1.34M780.71,593.5c0-1.21-.98-2.19-2.19-2.19s-2.19.98-2.19,2.19.98,2.19,2.19,2.19,2.19-.98,2.19-2.19"/>
  <path class="st1" d="M777.18,593.5c0-.74.6-1.34,1.34-1.34s1.33.6,1.33,1.34-.6,1.34-1.33,1.34-1.34-.6-1.34-1.34ZM780.71,593.5c0-1.21-.98-2.19-2.19-2.19s-2.19.98-2.19,2.19.98,2.19,2.19,2.19,2.19-.98,2.19-2.19Z"/>
  <path class="st3" d="M759.75,528.49c-6.65,0-12.05,5.39-12.05,12.01v12.74c0,1,.82,1.82,1.83,1.82h27.25c1.01,0,1.83-.82,1.83-1.82v-12.74c0-6.62-5.41-12.01-12.06-12.01h-6.8ZM776.78,555.75h-27.25c-1.39,0-2.51-1.12-2.51-2.5v-12.74c0-7,5.71-12.69,12.73-12.69h6.8c7.02,0,12.74,5.69,12.74,12.69v12.74c0,1.38-1.13,2.5-2.51,2.5"/>
  <path class="st1" d="M759.75,528.49c-6.65,0-12.05,5.39-12.05,12.01v12.74c0,1,.82,1.82,1.83,1.82h27.25c1.01,0,1.83-.82,1.83-1.82v-12.74c0-6.62-5.41-12.01-12.06-12.01h-6.8ZM776.78,555.75h-27.25c-1.39,0-2.51-1.12-2.51-2.5v-12.74c0-7,5.71-12.69,12.73-12.69h6.8c7.02,0,12.74,5.69,12.74,12.69v12.74c0,1.38-1.13,2.5-2.51,2.5Z"/>
  <path class="st3" d="M759.75,531.5c-4.98,0-9.03,4.04-9.03,9.01v7.44c0,.87.71,1.57,1.57,1.57h21.72c.87,0,1.58-.71,1.58-1.57v-7.44c0-4.97-4.05-9.01-9.04-9.01h-6.81ZM774.01,550.19h-21.72c-1.24,0-2.25-1.01-2.25-2.25v-7.44c0-5.34,4.36-9.69,9.71-9.69h6.81c5.36,0,9.72,4.34,9.72,9.69v7.44c0,1.24-1.01,2.25-2.26,2.25"/>
  <path class="st1" d="M759.75,531.5c-4.98,0-9.03,4.04-9.03,9.01v7.44c0,.87.71,1.57,1.57,1.57h21.72c.87,0,1.58-.71,1.58-1.57v-7.44c0-4.97-4.05-9.01-9.04-9.01h-6.81ZM774.01,550.19h-21.72c-1.24,0-2.25-1.01-2.25-2.25v-7.44c0-5.34,4.36-9.69,9.71-9.69h6.81c5.36,0,9.72,4.34,9.72,9.69v7.44c0,1.24-1.01,2.25-2.26,2.25Z"/>
  <path class="st3" d="M763.15,537.8c-.84,0-1.52.68-1.52,1.51s.68,1.51,1.52,1.51,1.52-.68,1.52-1.51-.68-1.51-1.52-1.51M763.15,541.5c-1.22,0-2.21-.99-2.21-2.19s.99-2.2,2.21-2.2,2.21.98,2.21,2.2-.99,2.19-2.21,2.19"/>
  <path class="st1" d="M763.15,537.8c-.84,0-1.52.68-1.52,1.51s.68,1.51,1.52,1.51,1.52-.68,1.52-1.51-.68-1.51-1.52-1.51ZM763.15,541.5c-1.22,0-2.21-.99-2.21-2.19s.99-2.2,2.21-2.2,2.21.98,2.21,2.2-.99,2.19-2.21,2.19Z"/>
  <path class="st1" d="M808.01,535.03c.93,0,1.69-.77,1.69-1.72s-.75-1.72-1.69-1.72-1.69.77-1.69,1.72.75,1.72,1.69,1.72Z"/>
  <rect class="st1" x="786.6" y="444.44" width="40.2" height="106.77" rx="11.34" ry="11.34"/>
  <path class="st1" d="M801.69,451.85h10.01c6.26,0,11.34,5.08,11.34,11.34v69.27c0,6.26-5.08,11.34-11.34,11.34h-10.02c-6.26,0-11.34-5.08-11.34-11.34v-69.26c0-6.26,5.08-11.34,11.34-11.34Z"/>
  <rect class="st1" x="793.96" y="460.79" width="25.48" height="78.91" rx="5.67" ry="5.67"/>
  <polygon class="st1" points="830.15 555.38 830.15 555.38 830.15 440.26 783.25 440.26 783.25 555.38 830.15 555.38"/>
  <path class="st3" d="M719.86,615.02c.76.79,1.84,1.18,3.22,1.18s2.44-.39,3.16-1.18c.72-.79,1.08-1.91,1.08-3.36v-1.43c0-1.96-.66-3.22-1.98-3.8,1.32-.55,1.98-1.79,1.98-3.72v-.46c0-1.46-.36-2.58-1.08-3.36-.72-.79-1.77-1.18-3.16-1.18s-2.46.39-3.22,1.18c-.76.78-1.15,1.9-1.15,3.36v.98h2.84v-1.16c0-1.18.48-1.78,1.46-1.78.49,0,.85.15,1.1.45.25.3.37.84.37,1.61v1.01c0,.69-.14,1.18-.43,1.47-.28.29-.71.44-1.27.44h-1.11v2.59h.96c.66,0,1.13.18,1.42.53.29.35.44.94.44,1.77v1.43c0,.75-.12,1.29-.37,1.59-.25.3-.61.45-1.1.45-.97,0-1.46-.6-1.46-1.79v-1.68h-2.84v1.5c0,1.45.38,2.57,1.15,3.36M716.91,613.39h-2.84v2.61h2.84v-2.61ZM707.79,602.2v13.8h2.84v-18.09h-1.92c-.11.29-.21.53-.29.71-.09.18-.21.38-.37.6-.16.22-.35.4-.55.52-.2.12-.47.23-.8.31-.33.09-.7.13-1.12.13v2h2.21Z"/>
  <path class="st3" d="M724.21,586.2l-.02.16c-.11.62-.36,1.03-.76,1.23-.4.2-.98.28-1.76.23v2.57c.77.05,1.43.02,2-.08.57-.1,1.05-.27,1.45-.5.39-.23.73-.55,1.01-.96.28-.41.51-.86.68-1.35.17-.49.33-1.07.47-1.77l3.04-13.46h-2.84l-1.3,6.21-.67,4.19-.88-4.23-1.53-6.17h-2.84l3.94,13.91ZM712.81,590.38l7.13-18.09h-2.46l-7.12,18.09h2.46ZM702.14,589.4c.72.79,1.78,1.18,3.17,1.18s2.47-.39,3.23-1.18c.76-.79,1.14-1.91,1.14-3.36v-2.41h-2.84v2.59c0,1.18-.49,1.77-1.47,1.77s-1.48-.59-1.48-1.77v-9.76c0-1.18.49-1.78,1.48-1.78s1.47.59,1.47,1.78v1.94h2.84v-1.77c0-1.46-.38-2.58-1.14-3.36-.77-.79-1.84-1.18-3.23-1.18s-2.45.39-3.17,1.18c-.72.78-1.08,1.9-1.08,3.36v9.41c0,1.45.36,2.57,1.08,3.36"/>
  <path class="st3" d="M747.08,487.04l-4.16,15.5h2.84l4.19-15.6v-2.49h-8.51v2.58h5.65ZM739.66,499.93h-2.84v2.61h2.84v-2.61ZM727.59,501.56c.76.79,1.84,1.18,3.22,1.18s2.44-.39,3.16-1.18c.72-.79,1.08-1.91,1.08-3.36v-1.43c0-1.96-.66-3.22-1.98-3.8,1.32-.55,1.98-1.79,1.98-3.72v-.47c0-1.46-.36-2.58-1.08-3.36-.72-.79-1.77-1.18-3.16-1.18s-2.46.39-3.22,1.18c-.76.78-1.14,1.9-1.14,3.36v.98h2.84v-1.16c0-1.18.49-1.78,1.46-1.78.49,0,.85.15,1.1.45.25.3.37.84.37,1.61v1.01c0,.69-.14,1.18-.43,1.47-.28.29-.71.44-1.27.44h-1.11v2.58h.96c.66,0,1.13.18,1.42.53.29.35.44.94.44,1.77v1.43c0,.75-.12,1.29-.37,1.59-.25.3-.61.45-1.1.45-.97,0-1.46-.6-1.46-1.79v-1.68h-2.84v1.5c0,1.45.38,2.57,1.14,3.36"/>
  <path class="st3" d="M763.46,463.28c0-.65.12-1.12.35-1.42.23-.3.6-.45,1.1-.45h1.36v5.56h-1.11c-.56,0-.99-.15-1.28-.44-.28-.29-.43-.78-.43-1.48v-1.78ZM763.17,476.92c.07-.21.11-.37.14-.47.03-.1.05-.31.08-.6.03-.3.04-.68.04-1.14v-2.84c0-.83.15-1.42.44-1.78.29-.35.76-.53,1.41-.53h.99v7.37h2.84v-18.09h-4.29c-1.46,0-2.52.34-3.19,1.02-.67.68-1.01,1.73-1.01,3.14v1.43c0,1.87.62,3.09,1.85,3.67-.68.28-1.17.75-1.45,1.39-.29.64-.43,1.46-.43,2.46v2.79c0,.98-.09,1.71-.26,2.19h2.84ZM754.61,462.07l1.37,9.1h-2.74l1.37-9.1ZM752.38,476.92l.49-3.28h3.48l.49,3.28h2.84l-2.88-18.09h-4.38l-2.88,18.09h2.84ZM742.1,476.92v-7.74h3.23v7.74h2.84v-18.09h-2.84v7.76h-3.23v-7.76h-2.84v18.09h2.84ZM731.08,476.92v-7.74h3.23v7.74h2.84v-18.09h-2.84v7.76h-3.23v-7.76h-2.84v18.09h2.84ZM722.06,462.07l1.37,9.1h-2.74l1.36-9.1ZM719.83,476.92l.49-3.28h3.48l.49,3.28h2.84l-2.88-18.09h-4.38l-2.88,18.09h2.84ZM710.09,461.42h1.38c.51,0,.88.15,1.1.45.23.3.34.77.34,1.42v1.01c0,.69-.15,1.18-.43,1.47-.29.29-.71.44-1.28.44h-1.11v-4.78ZM710.09,468.78h1.28c.66,0,1.12.16,1.41.48.28.32.42.89.42,1.72v1.58c0,.65-.12,1.1-.37,1.37-.24.27-.61.41-1.11.41h-1.63v-5.55ZM711.72,476.92c1.41,0,2.49-.37,3.22-1.1.73-.73,1.1-1.8,1.1-3.19v-1.47c0-2.04-.7-3.33-2.12-3.87,1.23-.58,1.84-1.79,1.84-3.64v-.64c0-1.41-.34-2.46-1.02-3.14-.68-.68-1.74-1.02-3.2-1.02h-4.29v18.09h4.47Z"/>
  <path class="st3" d="M603.67,567.22c.76.79,1.84,1.18,3.22,1.18s2.43-.39,3.15-1.18c.72-.79,1.08-1.91,1.08-3.36v-1.43c0-1.96-.66-3.22-1.98-3.8,1.32-.55,1.98-1.79,1.98-3.72v-.47c0-1.46-.36-2.58-1.08-3.36-.72-.79-1.77-1.18-3.15-1.18s-2.46.39-3.22,1.18c-.76.78-1.14,1.9-1.14,3.36v.98h2.84v-1.16c0-1.18.49-1.78,1.46-1.78.49,0,.85.15,1.1.45.25.3.37.84.37,1.61v1.01c0,.69-.14,1.18-.43,1.47-.28.29-.71.44-1.27.44h-1.11v2.58h.96c.66,0,1.13.18,1.42.53.29.35.44.94.44,1.77v1.43c0,.75-.12,1.29-.37,1.59-.25.3-.61.45-1.1.45-.97,0-1.46-.6-1.46-1.79v-1.68h-2.84v1.5c0,1.45.38,2.57,1.14,3.36M600.72,565.59h-2.84v2.61h2.84v-2.61ZM588.65,567.22c.76.79,1.84,1.18,3.22,1.18s2.44-.39,3.16-1.18c.72-.79,1.08-1.91,1.08-3.36v-1.43c0-1.96-.66-3.22-1.98-3.8,1.32-.55,1.98-1.79,1.98-3.72v-.47c0-1.46-.36-2.58-1.08-3.36-.72-.79-1.77-1.18-3.16-1.18s-2.46.39-3.22,1.18c-.76.78-1.14,1.9-1.14,3.36v.98h2.84v-1.16c0-1.18.49-1.78,1.46-1.78.49,0,.85.15,1.1.45.25.3.37.84.37,1.61v1.01c0,.69-.14,1.18-.43,1.47-.28.29-.71.44-1.27.44h-1.11v2.58h.96c.66,0,1.13.18,1.42.53.29.35.44.94.44,1.77v1.43c0,.75-.12,1.29-.37,1.59-.25.3-.61.45-1.1.45-.97,0-1.46-.6-1.46-1.79v-1.68h-2.84v1.5c0,1.45.38,2.57,1.14,3.36"/>
  <path class="st3" d="M630.5,527.08h1.35c.47,0,.82.13,1.05.39.23.26.34.7.34,1.32v2.71c0,.62-.11,1.06-.34,1.32-.23.26-.58.39-1.05.39h-1.35v-6.13ZM630.5,542.58v-6.8h1.35c1.4,0,2.46-.38,3.16-1.14.71-.76,1.06-1.87,1.06-3.32v-2.35c0-1.46-.35-2.57-1.07-3.33-.71-.76-1.77-1.15-3.16-1.15h-4.18v18.09h2.84ZM620.03,528.65c0-1.18.49-1.78,1.48-1.78s1.47.59,1.47,1.78v9.76c0,1.19-.49,1.79-1.47,1.79s-1.48-.6-1.48-1.79v-9.76ZM618.31,541.6c.74.79,1.81,1.18,3.2,1.18s2.46-.39,3.19-1.18c.74-.79,1.11-1.91,1.11-3.36v-9.41c0-1.45-.37-2.57-1.11-3.36-.74-.79-1.81-1.18-3.19-1.18s-2.46.39-3.2,1.18c-.74.79-1.12,1.91-1.12,3.36v9.41c0,1.45.37,2.57,1.12,3.36M608.61,539.13c.13-.35.21-.85.24-1.52l.52-10.54h2.4v12.93h-3.72c.25-.23.44-.52.56-.87M606.99,544.97v-2.4h6.02v2.4h2.84v-4.97h-1.24v-15.51h-8.07l-.52,13.17c-.03.55-.09,1.01-.2,1.36-.1.36-.28.68-.52.98h-1.15v4.97h2.84ZM596.72,542.58l2.39-8.28,1.15-4.43v12.71h2.84v-18.09h-3.4l-2.32,7.47-1.03,3.99v-11.45h-2.54v18.09h2.92ZM586.91,527.08h1.35c.47,0,.82.13,1.05.39.23.26.34.7.34,1.32v2.71c0,.62-.11,1.06-.34,1.32-.23.26-.57.39-1.05.39h-1.35v-6.13ZM586.91,542.58v-6.8h1.35c1.4,0,2.46-.38,3.16-1.14.71-.76,1.06-1.87,1.06-3.32v-2.35c0-1.46-.35-2.57-1.06-3.33-.71-.76-1.77-1.15-3.17-1.15h-4.18v18.09h2.84ZM576.44,528.65c0-1.18.49-1.78,1.48-1.78s1.47.59,1.47,1.78v9.76c0,1.19-.49,1.79-1.47,1.79s-1.48-.6-1.48-1.79v-9.76ZM574.72,541.6c.74.79,1.81,1.18,3.2,1.18s2.45-.39,3.19-1.18c.74-.79,1.11-1.91,1.11-3.36v-9.41c0-1.45-.37-2.57-1.11-3.36-.74-.79-1.81-1.18-3.19-1.18s-2.46.39-3.2,1.18c-.75.79-1.12,1.91-1.12,3.36v9.41c0,1.45.37,2.57,1.12,3.36M566,542.58v-5.55l.88-1.65,2.76,7.2h2.91l-3.95-10.03,3.95-8.06h-2.84l-3.72,7.88v-7.88h-2.84v18.09h2.84Z"/>
  <path class="st1" d="M657.41,1027.51v65.85c0,2.1,1.71,3.81,3.81,3.81h115.17c2.1,0,3.81-1.71,3.81-3.81v-65.85h-122.79Z"/>
  <path class="st1" d="M662.07,1027.51l4.32,56.75c0,2.1,1.7,3.81,3.81,3.81h97.21c2.1,0,3.81-1.7,3.81-3.81l4.32-56.75h-113.47Z"/>
  <path class="st3" d="M730.38,318.84v13.8h2.84v-18.09h-1.92c-.11.29-.21.53-.29.71-.08.18-.21.38-.37.6-.16.22-.35.4-.55.52-.2.12-.46.23-.79.31-.33.09-.7.13-1.12.13v2h2.21ZM724.48,330.02h-2.84v2.61h2.84v-2.61ZM719.62,332.64v-2.59h-5.35c-.02-.08-.03-.21-.03-.39,0-.39.1-.8.31-1.22.21-.42.48-.83.81-1.23.33-.39.7-.81,1.1-1.24.4-.43.8-.9,1.2-1.4.4-.5.76-1.02,1.09-1.57.33-.55.6-1.17.81-1.89.21-.71.31-1.45.31-2.22,0-1.46-.36-2.58-1.08-3.36-.72-.79-1.77-1.18-3.14-1.18s-2.43.39-3.16,1.18c-.73.78-1.09,1.9-1.09,3.36v1.77h2.71v-1.94c0-1.18.49-1.78,1.47-1.78.49,0,.85.15,1.09.45.24.3.36.84.36,1.61,0,.71-.1,1.37-.31,1.99-.21.62-.47,1.16-.8,1.63-.33.47-.7.93-1.1,1.38-.4.45-.8.89-1.2,1.34-.4.45-.77.91-1.1,1.39-.33.48-.6,1.03-.81,1.67-.21.63-.31,1.31-.31,2.03v2.22h8.21ZM705.13,318.84v13.8h2.84v-18.09h-1.92c-.11.29-.21.53-.29.71-.09.18-.21.38-.37.6-.16.22-.35.4-.55.52-.2.12-.47.23-.8.31-.33.09-.7.13-1.12.13v2h2.21Z"/>
  <path class="st3" d="M748.19,291.51v15.5h2.84v-15.5h2.98v-2.58h-8.79v2.58h2.98ZM744.29,307.01v-2.58h-4.91v-5.3h3.9v-2.57h-3.9v-5.05h4.91v-2.58h-7.75v18.09h7.75ZM728.36,307.01v-7.74h3.23v7.74h2.84v-18.09h-2.84v7.76h-3.23v-7.76h-2.84v18.09h2.84ZM717.42,307.01l2.39-8.28,1.15-4.43v12.71h2.84v-18.09h-3.41l-2.32,7.47-1.03,3.99v-11.45h-2.54v18.09h2.91ZM706.66,298.73h1.65c.48,0,.84.13,1.09.39.24.26.37.7.37,1.31v2.3c0,.61-.12,1.05-.37,1.31-.24.26-.6.39-1.09.39h-1.65v-5.7ZM708.31,307.01c1.41,0,2.48-.38,3.21-1.14.72-.76,1.08-1.87,1.08-3.32v-1.94c0-1.45-.36-2.56-1.08-3.32-.73-.76-1.79-1.14-3.21-1.14h-1.65v-4.63h5.12v-2.58h-7.96v18.09h4.49ZM697.61,292.17l1.37,9.1h-2.74l1.36-9.1ZM695.38,307.01l.49-3.28h3.48l.49,3.28h2.84l-2.88-18.09h-4.38l-2.88,18.09h2.84ZM685.44,307.01v-5.55l.88-1.65,2.76,7.2h2.91l-3.95-10.03,3.95-8.06h-2.84l-3.72,7.88v-7.88h-2.84v18.09h2.84Z"/>
  <path class="st3" d="M743.5,134.63c1.43,0,2.45-.3,3.07-.9.61-.6.92-1.61.92-3.05v-10.18c0-1.44-.31-2.46-.92-3.06-.62-.6-1.64-.9-3.07-.9h-.87v2.46h.69c.47,0,.81.11,1.02.34.21.23.31.64.31,1.25v9.98c0,.61-.1,1.03-.31,1.26-.2.23-.54.34-1.02.34h-.69v2.46h.87ZM741.23,134.63v-2.59h-5.35c-.02-.08-.03-.21-.03-.39,0-.4.1-.8.31-1.23.21-.42.48-.83.81-1.22.33-.39.7-.81,1.1-1.24.4-.44.8-.9,1.2-1.4.4-.5.76-1.02,1.09-1.57.33-.55.6-1.17.81-1.89.21-.71.31-1.45.31-2.22,0-1.46-.36-2.58-1.08-3.36-.72-.78-1.77-1.18-3.14-1.18s-2.43.39-3.16,1.18c-.73.79-1.09,1.91-1.09,3.36v1.77h2.71v-1.94c0-1.18.49-1.78,1.47-1.78.49,0,.85.15,1.09.45.24.3.37.84.37,1.61,0,.71-.1,1.37-.31,1.99-.2.62-.47,1.16-.8,1.63-.33.47-.7.93-1.1,1.38-.4.45-.8.89-1.2,1.34-.4.45-.77.91-1.1,1.39-.34.48-.6,1.03-.81,1.67-.21.63-.31,1.31-.31,2.02v2.22h8.21ZM731.06,132.02h-2.84v2.61h2.84v-2.61ZM726.21,134.63v-2.59h-5.35c-.02-.08-.03-.21-.03-.39,0-.4.1-.8.31-1.23.21-.42.48-.83.81-1.22.33-.39.7-.81,1.1-1.24.4-.44.8-.9,1.2-1.4.4-.5.76-1.02,1.09-1.57.33-.55.6-1.17.81-1.89.21-.71.31-1.45.31-2.22,0-1.46-.36-2.58-1.08-3.36-.72-.78-1.77-1.18-3.14-1.18s-2.43.39-3.16,1.18c-.73.79-1.09,1.91-1.09,3.36v1.77h2.71v-1.94c0-1.18.49-1.78,1.47-1.78.49,0,.85.15,1.09.45.24.3.36.84.36,1.61,0,.71-.1,1.37-.31,1.99-.2.62-.47,1.16-.8,1.63s-.7.93-1.1,1.38c-.4.45-.8.89-1.2,1.34-.4.45-.77.91-1.1,1.39-.33.48-.6,1.03-.81,1.67-.21.63-.31,1.31-.31,2.02v2.22h8.21ZM712.61,133.73c.62.6,1.64.9,3.07.9h.87v-2.46h-.7c-.47,0-.81-.11-1.02-.34-.2-.23-.3-.64-.3-1.26v-9.98c0-.61.1-1.03.3-1.25.2-.23.54-.34,1.02-.34h.7v-2.46h-.87c-1.43,0-2.45.3-3.07.9-.61.6-.92,1.62-.92,3.06v10.18c0,1.44.31,2.46.92,3.05M698.28,133.65c.76.78,1.84,1.18,3.22,1.18s2.44-.39,3.16-1.18c.72-.79,1.08-1.91,1.08-3.36v-1.43c0-1.96-.66-3.22-1.98-3.8,1.32-.55,1.98-1.79,1.98-3.72v-.46c0-1.46-.36-2.58-1.08-3.36-.72-.78-1.77-1.18-3.16-1.18s-2.46.39-3.22,1.18c-.77.79-1.15,1.91-1.15,3.36v.98h2.84v-1.16c0-1.18.49-1.78,1.46-1.78.48,0,.85.15,1.1.45.25.3.37.84.37,1.61v1.01c0,.69-.15,1.18-.43,1.47-.28.29-.71.44-1.27.44h-1.11v2.59h.96c.66,0,1.13.17,1.42.53.29.35.44.94.44,1.77v1.43c0,.75-.12,1.28-.37,1.59-.25.3-.62.45-1.1.45-.97,0-1.46-.6-1.46-1.79v-1.68h-2.84v1.5c0,1.45.38,2.57,1.15,3.36M695.33,132.02h-2.84v2.61h2.84v-2.61ZM687.07,121.97v6.8h-2.86l2.86-6.8ZM687.07,131.35v3.28h2.84v-3.28h1.3v-2.58h-1.3v-12.22h-3.1l-5.16,12.22v2.58h5.42Z"/>
  <path class="st3" d="M730.71,959.44c0-.76.14-1.29.42-1.6.28-.31.68-.47,1.18-.47s.9.15,1.18.46c.28.31.42.84.42,1.61v1.01c0,1.27-.53,1.9-1.6,1.9s-1.61-.63-1.61-1.9v-1.01ZM730.71,966.98c0-1.36.54-2.04,1.61-2.04s1.6.68,1.6,2.04v1.68c-.01.75-.15,1.29-.43,1.59-.28.3-.67.45-1.16.45s-.9-.15-1.18-.46c-.28-.31-.42-.84-.42-1.58v-1.68ZM729.02,972.09c.77.79,1.86,1.18,3.3,1.18s2.53-.39,3.29-1.18c.76-.79,1.14-1.91,1.14-3.36v-1.43c0-1.85-.59-3.11-1.76-3.77,1.17-.66,1.76-1.87,1.76-3.63v-.58c0-1.45-.38-2.57-1.14-3.36-.76-.79-1.86-1.18-3.29-1.18s-2.53.39-3.3,1.18c-.77.79-1.15,1.91-1.15,3.36v.58c0,1.78.59,2.99,1.76,3.63-1.17.66-1.76,1.92-1.76,3.77v1.43c0,1.45.38,2.56,1.15,3.36M726.28,970.46h-2.84v2.61h2.84v-2.61ZM721.43,973.07v-2.59h-5.35c-.02-.08-.03-.21-.03-.39,0-.39.1-.8.31-1.22.21-.42.48-.83.81-1.23.33-.39.7-.81,1.1-1.24.4-.43.8-.9,1.2-1.4.4-.5.76-1.02,1.09-1.57.33-.55.6-1.17.81-1.89.21-.71.31-1.45.31-2.22,0-1.46-.36-2.58-1.08-3.36-.72-.79-1.77-1.18-3.14-1.18s-2.43.39-3.16,1.18c-.73.78-1.09,1.9-1.09,3.36v1.77h2.71v-1.94c0-1.18.49-1.78,1.47-1.78.49,0,.85.15,1.09.45.24.3.36.84.36,1.61,0,.71-.1,1.37-.31,1.99-.21.62-.47,1.16-.8,1.63-.33.47-.7.93-1.1,1.38s-.8.89-1.2,1.34c-.4.45-.77.91-1.1,1.39-.33.48-.6,1.03-.81,1.67-.21.63-.31,1.31-.31,2.03v2.22h8.21ZM706.94,959.27v13.8h2.84v-18.09h-1.92c-.11.29-.21.53-.29.71-.09.18-.21.38-.37.6-.16.22-.35.4-.55.52s-.47.23-.8.31c-.33.09-.7.13-1.12.13v2h2.21Z"/>
  <path class="st3" d="M784.15,927.23l1.37,9.1h-2.74l1.36-9.1ZM781.92,942.07l.49-3.28h3.48l.49,3.28h2.84l-2.88-18.09h-4.38l-2.88,18.09h2.84ZM772.78,926.57v15.5h2.84v-15.5h2.98v-2.58h-8.79v2.58h2.98ZM764.45,927.23l1.37,9.1h-2.74l1.36-9.1ZM762.22,942.07l.49-3.28h3.48l.49,3.28h2.84l-2.88-18.09h-4.38l-2.88,18.09h2.84ZM751.94,942.07v-7.74h3.23v7.74h2.84v-18.09h-2.84v7.76h-3.23v-7.76h-2.84v18.09h2.84ZM737.59,942.07v-12.76l2.12,12.76h2.69l1.96-12.97v12.97h2.84v-18.09h-4.09l-1.95,12.88-2.1-12.88h-3.94v18.09h2.47ZM727.51,928.15c0-1.18.49-1.78,1.48-1.78s1.47.59,1.47,1.78v9.76c0,1.19-.49,1.79-1.47,1.79s-1.48-.6-1.48-1.79v-9.76ZM725.79,941.09c.74.79,1.81,1.18,3.2,1.18s2.45-.39,3.19-1.18c.74-.79,1.11-1.91,1.11-3.36v-9.41c0-1.45-.37-2.57-1.11-3.36-.74-.79-1.81-1.18-3.19-1.18s-2.46.39-3.2,1.18c-.74.79-1.12,1.91-1.12,3.36v9.41c0,1.45.37,2.57,1.12,3.36M717.07,942.07v-5.55l.88-1.65,2.76,7.2h2.91l-3.95-10.03,3.95-8.06h-2.84l-3.72,7.88v-7.88h-2.84v18.09h2.84ZM702.52,928.44c0-.65.12-1.12.35-1.42.23-.3.6-.45,1.1-.45h1.36v5.56h-1.11c-.56,0-.99-.15-1.27-.44-.28-.29-.43-.78-.43-1.48v-1.78ZM702.23,942.07c.07-.21.11-.37.14-.47.03-.1.05-.31.08-.6.03-.3.04-.68.04-1.14v-2.84c0-.83.15-1.43.44-1.78.29-.35.76-.53,1.41-.53h.98v7.37h2.84v-18.09h-4.29c-1.46,0-2.52.34-3.19,1.02-.67.68-1.01,1.73-1.01,3.14v1.43c0,1.87.62,3.09,1.85,3.67-.68.28-1.16.75-1.45,1.39-.29.64-.43,1.46-.43,2.46v2.79c0,.98-.09,1.71-.27,2.19h2.84ZM693.67,927.23l1.38,9.1h-2.74l1.36-9.1ZM691.44,942.07l.49-3.28h3.48l.49,3.28h2.84l-2.88-18.09h-4.38l-2.88,18.09h2.84ZM677.39,942.1c1.42,0,2.45-.35,3.1-1.06.64-.71.99-1.88,1.04-3.53l.31-10.94h2.46v15.5h2.84v-18.09h-8.13l-.31,13.67c-.02.42-.05.75-.11,1-.06.24-.16.43-.31.56-.15.13-.32.21-.51.24-.19.03-.46.05-.81.05v2.58h.44ZM669.62,942.07l2.4-8.28,1.15-4.43v12.71h2.84v-18.09h-3.41l-2.32,7.47-1.03,3.99v-11.45h-2.54v18.09h2.91ZM653.13,942.07l2.59-8.06.7,1.41v6.65h2.84v-6.63l.71-1.37,2.58,8h2.84l-3.48-10.71,3.48-7.38h-2.76l-3.36,7.32v-7.32h-2.84v7.32l-3.36-7.32h-2.76l3.52,7.42-3.52,10.67h2.84Z"/>
  <path class="st3" d="M731.33,737.71v-2.58h-5.35c-.02-.08-.02-.21-.02-.39,0-.39.1-.8.31-1.22.21-.42.48-.83.81-1.22.33-.4.7-.81,1.1-1.24.4-.43.8-.9,1.2-1.4s.76-1.02,1.09-1.57c.33-.55.6-1.18.81-1.89.21-.71.31-1.45.31-2.23,0-1.45-.36-2.57-1.08-3.36-.72-.79-1.77-1.18-3.14-1.18s-2.43.39-3.16,1.18c-.73.79-1.1,1.91-1.1,3.36v1.77h2.71v-1.94c0-1.18.49-1.78,1.47-1.78.48,0,.85.15,1.09.45.24.3.37.84.37,1.61,0,.71-.1,1.37-.31,1.99-.2.62-.47,1.16-.8,1.63-.33.47-.7.93-1.1,1.37-.4.45-.8.89-1.21,1.34-.4.45-.77.91-1.1,1.39-.33.48-.6,1.03-.81,1.66-.21.64-.31,1.31-.31,2.03v2.22h8.21ZM721.17,735.1h-2.84v2.61h2.84v-2.61ZM710.77,730.29c0-1.18.49-1.78,1.47-1.78s1.46.59,1.46,1.78v3.25c0,1.18-.49,1.77-1.46,1.77s-1.47-.59-1.47-1.77v-3.25ZM709.04,736.72c.74.79,1.81,1.18,3.2,1.18s2.45-.39,3.19-1.18c.74-.79,1.11-1.91,1.11-3.36v-3.3c0-1.34-.26-2.37-.79-3.08-.53-.71-1.31-1.06-2.35-1.06-1.25,0-2.13.53-2.64,1.6v-3.3c0-.82.13-1.4.38-1.73.26-.33.65-.49,1.19-.49.98,0,1.47.59,1.47,1.78v.64h2.67v-.47c0-1.45-.36-2.57-1.08-3.36-.72-.79-1.77-1.18-3.15-1.18-2.89,0-4.34,1.57-4.34,4.7v9.24c0,1.45.37,2.57,1.12,3.36"/>
  <path class="st3" d="M768.9,691.87l1.37,9.1h-2.74l1.37-9.1ZM766.67,706.71l.49-3.28h3.48l.49,3.28h2.84l-2.88-18.09h-4.38l-2.88,18.09h2.84ZM762.53,706.71v-18.09h-2.84v15.5h-2.46v-15.5h-2.84v15.5h-2.46v-15.5h-2.84v18.09h13.43ZM740.98,706.71l2.4-8.28,1.15-4.43v12.71h2.84v-18.09h-3.41l-2.32,7.47-1.03,3.99v-11.45h-2.54v18.09h2.91ZM729.88,706.71v-7.74h3.23v7.74h2.84v-18.09h-2.84v7.76h-3.23v-7.76h-2.84v18.09h2.84ZM725.12,696.38h-5.16v2.58h5.16v-2.58ZM712.37,693.08c0-.65.12-1.12.35-1.42.23-.3.6-.45,1.1-.45h1.36v5.56h-1.11c-.56,0-.99-.15-1.27-.44-.28-.29-.43-.78-.43-1.48v-1.78ZM712.08,706.71c.07-.21.11-.37.14-.47.03-.1.05-.31.08-.6.03-.3.04-.68.04-1.14v-2.84c0-.83.15-1.42.44-1.78.3-.35.77-.53,1.41-.53h.98v7.37h2.84v-18.09h-4.29c-1.46,0-2.52.34-3.19,1.02-.67.68-1.01,1.73-1.01,3.14v1.43c0,1.87.62,3.09,1.85,3.67-.68.28-1.16.75-1.45,1.39-.29.64-.43,1.46-.43,2.46v2.79c0,.98-.09,1.71-.27,2.19h2.84ZM701.52,706.71v-7.74h3.23v7.74h2.84v-18.09h-2.84v7.76h-3.23v-7.76h-2.84v18.09h2.84ZM689.78,706.71l2.21-6.73,2.18,6.73h2.84l-3.16-9.22,2.97-8.87h-2.49l-2.19,6.71-2.15-6.71h-2.84l2.97,8.77-3.18,9.32h2.84ZM680.16,702.54l-.02.16c-.11.62-.36,1.03-.76,1.23-.4.2-.98.28-1.75.23v2.57c.76.05,1.43.02,2-.08.57-.11,1.06-.27,1.45-.5.39-.23.73-.55,1.01-.96.28-.41.51-.86.68-1.34.17-.49.33-1.08.47-1.77l3.04-13.46h-2.84l-1.3,6.21-.67,4.19-.88-4.23-1.53-6.17h-2.84l3.94,13.92ZM669.21,706.71v-5.55l.88-1.65,2.76,7.2h2.91l-3.95-10.03,3.95-8.06h-2.84l-3.72,7.88v-7.88h-2.84v18.09h2.84Z"/>
  <path class="st3" d="M491.75,831.73c0-1.18.49-1.78,1.48-1.78s1.47.59,1.47,1.78v9.76c0,1.19-.49,1.79-1.47,1.79s-1.48-.6-1.48-1.79v-9.76ZM490.03,844.67c.74.79,1.81,1.18,3.2,1.18s2.45-.39,3.19-1.18c.74-.79,1.11-1.91,1.11-3.36v-9.41c0-1.45-.37-2.57-1.11-3.36-.74-.79-1.81-1.18-3.19-1.18s-2.46.39-3.2,1.18c-.75.79-1.12,1.91-1.12,3.36v9.41c0,1.45.37,2.56,1.12,3.36M487.19,843.04h-2.84v2.61h2.84v-2.61ZM476.68,831.73c0-1.17.49-1.75,1.47-1.75s1.48.58,1.48,1.75v3.25c0,1.19-.49,1.78-1.48,1.78s-1.47-.59-1.47-1.78v-3.25ZM474.63,838.29c.53.71,1.31,1.06,2.35,1.06,1.26,0,2.14-.53,2.65-1.6v3.3c0,.82-.13,1.4-.39,1.74-.26.33-.66.5-1.19.5-.99,0-1.48-.6-1.48-1.79v-.64h-2.67v.47c0,1.45.36,2.57,1.08,3.36.72.79,1.77,1.18,3.15,1.18,2.9,0,4.34-1.56,4.34-4.69v-9.26c0-1.45-.37-2.57-1.12-3.36-.74-.79-1.81-1.18-3.2-1.18s-2.46.39-3.2,1.18c-.74.79-1.11,1.91-1.11,3.36v3.32c0,1.34.26,2.36.79,3.07M467.85,831.85v13.8h2.84v-18.09h-1.92c-.11.29-.21.53-.29.71-.09.18-.21.38-.37.6-.16.22-.35.4-.55.52-.2.12-.47.23-.8.31-.33.09-.7.13-1.12.13v2h2.21Z"/>
  <path class="st3" d="M545.06,799.81l1.37,9.1h-2.74l1.36-9.1ZM542.83,814.66l.49-3.28h3.48l.49,3.28h2.84l-2.88-18.09h-4.38l-2.88,18.09h2.84ZM533.69,799.15v15.5h2.84v-15.5h2.98v-2.58h-8.79v2.58h2.98ZM525.36,799.81l1.37,9.1h-2.74l1.36-9.1ZM523.13,814.66l.49-3.28h3.48l.49,3.28h2.84l-2.88-18.09h-4.38l-2.88,18.09h2.84ZM512.85,814.66v-7.74h3.23v7.74h2.84v-18.09h-2.84v7.76h-3.23v-7.76h-2.84v18.09h2.84ZM498.5,814.66v-12.76l2.12,12.76h2.69l1.96-12.97v12.97h2.84v-18.09h-4.09l-1.95,12.88-2.1-12.88h-3.94v18.09h2.47ZM488.42,800.73c0-1.18.49-1.78,1.48-1.78s1.47.59,1.47,1.78v9.76c0,1.19-.49,1.79-1.47,1.79s-1.48-.6-1.48-1.79v-9.76ZM486.7,813.67c.74.79,1.81,1.18,3.2,1.18s2.45-.39,3.19-1.18c.74-.79,1.11-1.91,1.11-3.36v-9.41c0-1.45-.37-2.57-1.11-3.36-.74-.79-1.81-1.18-3.19-1.18s-2.46.39-3.2,1.18c-.74.79-1.12,1.91-1.12,3.36v9.41c0,1.45.37,2.57,1.12,3.36M477.98,814.66v-5.55l.88-1.65,2.76,7.2h2.91l-3.95-10.03,3.95-8.06h-2.84l-3.72,7.88v-7.88h-2.84v18.09h2.84ZM463.43,801.02c0-.65.12-1.12.35-1.42.23-.3.6-.45,1.1-.45h1.36v5.56h-1.11c-.56,0-.99-.15-1.27-.44-.28-.29-.43-.78-.43-1.48v-1.78ZM463.14,814.66c.07-.21.11-.37.14-.47.03-.1.05-.31.08-.6.03-.3.04-.68.04-1.14v-2.84c0-.83.15-1.42.44-1.78.29-.35.76-.53,1.41-.53h.98v7.37h2.84v-18.09h-4.29c-1.46,0-2.52.34-3.19,1.02-.67.68-1.01,1.73-1.01,3.14v1.43c0,1.87.62,3.09,1.85,3.67-.68.28-1.16.75-1.45,1.39-.29.64-.43,1.46-.43,2.46v2.79c0,.98-.09,1.71-.27,2.19h2.84ZM454.58,799.81l1.38,9.1h-2.74l1.36-9.1ZM452.35,814.66l.49-3.28h3.48l.49,3.28h2.84l-2.88-18.09h-4.38l-2.88,18.09h2.84ZM438.3,814.68c1.42,0,2.45-.35,3.1-1.06.64-.71.99-1.88,1.04-3.53l.31-10.94h2.46v15.5h2.84v-18.09h-8.13l-.31,13.67c-.02.42-.05.75-.11,1-.06.24-.16.43-.31.56-.15.13-.32.21-.51.24-.19.03-.46.05-.81.05v2.58h.44ZM430.53,814.66l2.4-8.28,1.15-4.43v12.71h2.84v-18.09h-3.41l-2.32,7.47-1.03,3.99v-11.45h-2.54v18.09h2.91ZM414.04,814.66l2.59-8.06.7,1.41v6.65h2.84v-6.63l.71-1.37,2.58,8h2.84l-3.48-10.71,3.48-7.38h-2.76l-3.36,7.32v-7.32h-2.84v7.32l-3.36-7.32h-2.76l3.52,7.42-3.52,10.67h2.84Z"/>
  <path class="st3" d="M748.25,877.43v31.54h6.49v-41.34h-4.38c-.25.67-.47,1.22-.66,1.63-.19.41-.48.87-.85,1.38-.38.51-.79.9-1.25,1.18-.46.28-1.07.52-1.82.72-.75.2-1.6.3-2.57.3v4.59h5.05ZM734.76,903h-6.49v5.97h6.49v-5.97ZM710.83,877.14c0-2.71,1.13-4.06,3.39-4.06s3.36,1.36,3.36,4.06v22.31c0,2.73-1.12,4.09-3.36,4.09s-3.39-1.36-3.39-4.09v-22.31ZM706.9,906.72c1.7,1.81,4.14,2.71,7.32,2.71s5.61-.91,7.3-2.71,2.54-4.36,2.54-7.67v-21.51c0-3.3-.85-5.86-2.54-7.67-1.69-1.81-4.13-2.71-7.3-2.71s-5.62.9-7.32,2.71c-1.7,1.81-2.56,4.36-2.56,7.67v21.51c0,3.3.85,5.86,2.56,7.67M694.02,873.54l-9.51,35.43h6.49l9.57-35.66v-5.68h-19.46v5.91h12.91Z"/>
  <circle class="st1" cx="719.69" cy="819.37" r="36.19" transform="translate(-312.72 1170.72) rotate(-67.5)"/>
  <path class="st3" d="M721.26,834.44c1.24,1.36,3.07,2.04,5.48,2.04s4.27-.68,5.6-2.04c1.32-1.36,1.98-3.3,1.98-5.82v-4.17h-4.91v4.48c0,2.04-.85,3.05-2.54,3.05s-2.57-1.02-2.57-3.05v-16.9c0-2.05.85-3.08,2.57-3.08s2.54,1.03,2.54,3.08v3.36h4.91v-3.05c0-2.52-.66-4.46-1.98-5.82-1.32-1.36-3.19-2.04-5.6-2.04s-4.24.68-5.48,2.04c-1.25,1.36-1.87,3.3-1.87,5.82v16.28c0,2.52.62,4.46,1.87,5.82M703.83,834.44c1.32,1.36,3.18,2.04,5.58,2.04s4.22-.68,5.46-2.04c1.24-1.36,1.87-3.3,1.87-5.82v-2.47c0-3.39-1.14-5.58-3.43-6.57,2.29-.95,3.43-3.09,3.43-6.44v-.81c0-2.52-.62-4.46-1.87-5.82-1.24-1.36-3.06-2.04-5.46-2.04s-4.26.68-5.58,2.04c-1.32,1.36-1.98,3.3-1.98,5.82v1.7h4.91v-2.01c0-2.05.84-3.08,2.52-3.08.84,0,1.47.26,1.9.78.43.52.64,1.46.64,2.79v1.75c0,1.19-.25,2.04-.74,2.54-.5.5-1.23.75-2.21.75h-1.92v4.47h1.66c1.13,0,1.95.31,2.46.92.5.61.75,1.63.75,3.05v2.47c0,1.31-.21,2.23-.64,2.75-.43.52-1.06.78-1.9.78-1.68,0-2.52-1.03-2.52-3.1v-2.9h-4.91v2.6c0,2.52.66,4.46,1.98,5.82"/>
  <path class="st3" d="M509.14,1079.56c1.43,0,2.45-.3,3.07-.9.61-.6.92-1.61.92-3.05v-10.18c0-1.44-.31-2.46-.92-3.06-.62-.6-1.64-.9-3.07-.9h-.87v2.46h.69c.47,0,.81.11,1.02.34.21.23.31.64.31,1.25v9.98c0,.61-.1,1.03-.31,1.25-.2.23-.54.34-1.02.34h-.69v2.46h.87ZM506.87,1079.56v-2.59h-5.35c-.02-.08-.03-.21-.03-.39,0-.39.1-.8.31-1.23.21-.42.48-.83.81-1.22.33-.39.7-.81,1.1-1.24.4-.44.8-.9,1.2-1.4.4-.5.76-1.02,1.09-1.57.33-.55.6-1.17.81-1.89.21-.71.31-1.45.31-2.22,0-1.46-.36-2.58-1.08-3.36-.72-.78-1.77-1.18-3.14-1.18s-2.43.39-3.16,1.18c-.73.79-1.09,1.91-1.09,3.36v1.77h2.71v-1.94c0-1.18.49-1.78,1.47-1.78.49,0,.85.15,1.09.45.24.3.37.84.37,1.61,0,.71-.1,1.37-.31,1.99-.2.62-.47,1.16-.8,1.63-.33.47-.7.93-1.1,1.38-.4.45-.8.89-1.2,1.34-.4.45-.77.91-1.1,1.39-.34.48-.6,1.03-.81,1.67-.21.63-.31,1.31-.31,2.02v2.22h8.21ZM496.7,1076.94h-2.84v2.61h2.84v-2.61ZM491.85,1079.56v-2.59h-5.35c-.02-.08-.03-.21-.03-.39,0-.39.1-.8.31-1.23.21-.42.48-.83.81-1.22.33-.39.7-.81,1.1-1.24.4-.44.8-.9,1.2-1.4.4-.5.76-1.02,1.09-1.57.33-.55.6-1.17.81-1.89.21-.71.31-1.45.31-2.22,0-1.46-.36-2.58-1.08-3.36-.72-.78-1.77-1.18-3.14-1.18s-2.43.39-3.16,1.18c-.73.79-1.09,1.91-1.09,3.36v1.77h2.71v-1.94c0-1.18.49-1.78,1.47-1.78.49,0,.85.15,1.09.45.24.3.36.84.36,1.61,0,.71-.1,1.37-.31,1.99-.2.62-.47,1.16-.8,1.63s-.7.93-1.1,1.38c-.4.45-.8.89-1.2,1.34-.4.45-.77.91-1.1,1.39-.33.48-.6,1.03-.81,1.67-.21.63-.31,1.31-.31,2.02v2.22h8.21ZM478.25,1078.66c.62.6,1.64.9,3.07.9h.87v-2.46h-.7c-.47,0-.81-.11-1.02-.34-.2-.23-.3-.64-.3-1.25v-9.98c0-.61.1-1.03.3-1.25.2-.23.54-.34,1.02-.34h.7v-2.46h-.87c-1.43,0-2.45.3-3.07.9-.61.6-.92,1.62-.92,3.06v10.18c0,1.44.31,2.46.92,3.05M463.92,1078.58c.76.78,1.84,1.18,3.22,1.18s2.44-.39,3.16-1.18c.72-.79,1.08-1.91,1.08-3.36v-1.43c0-1.96-.66-3.22-1.98-3.8,1.32-.55,1.98-1.79,1.98-3.72v-.46c0-1.46-.36-2.58-1.08-3.36-.72-.78-1.77-1.18-3.16-1.18s-2.46.39-3.22,1.18c-.77.79-1.15,1.91-1.15,3.36v.98h2.84v-1.16c0-1.18.49-1.78,1.46-1.78.48,0,.85.15,1.1.45.25.3.37.84.37,1.61v1.01c0,.69-.15,1.18-.43,1.47-.28.29-.71.44-1.27.44h-1.11v2.59h.96c.66,0,1.13.17,1.42.53.29.35.44.94.44,1.77v1.42c0,.76-.12,1.29-.37,1.59-.25.3-.62.45-1.1.45-.97,0-1.46-.6-1.46-1.79v-1.68h-2.84v1.5c0,1.45.38,2.57,1.15,3.36M460.97,1076.94h-2.84v2.61h2.84v-2.61ZM452.71,1066.89v6.8h-2.86l2.86-6.8ZM452.71,1076.28v3.28h2.84v-3.28h1.3v-2.58h-1.3v-12.22h-3.1l-5.16,12.22v2.58h5.42Z"/>
  <path class="st3" d="M483.97,579.56c.76.78,1.84,1.18,3.22,1.18s2.44-.39,3.16-1.18c.72-.79,1.08-1.91,1.08-3.36v-1.43c0-1.96-.66-3.22-1.98-3.8,1.32-.55,1.98-1.79,1.98-3.72v-.46c0-1.46-.36-2.58-1.08-3.36-.72-.78-1.77-1.18-3.16-1.18s-2.46.39-3.22,1.18c-.76.79-1.15,1.91-1.15,3.36v.98h2.84v-1.16c0-1.18.48-1.78,1.46-1.78.49,0,.85.15,1.1.45.25.3.37.84.37,1.61v1.01c0,.69-.14,1.18-.43,1.47-.28.29-.71.44-1.27.44h-1.11v2.59h.96c.66,0,1.13.17,1.42.53.29.35.44.94.44,1.77v1.42c0,.76-.12,1.29-.37,1.59-.25.3-.61.45-1.1.45-.97,0-1.46-.6-1.46-1.79v-1.68h-2.84v1.5c0,1.45.38,2.57,1.15,3.36M481.02,577.92h-2.84v2.61h2.84v-2.61ZM473.43,565.03l-4.16,15.5h2.84l4.19-15.6v-2.48h-8.51v2.58h5.65Z"/>
  <path class="st3" d="M517.65,541.28c0-.65.12-1.12.35-1.42.23-.3.6-.45,1.1-.45h1.36v5.56h-1.11c-.56,0-.99-.15-1.27-.44-.28-.29-.43-.78-.43-1.48v-1.78ZM517.36,554.91c.07-.21.11-.37.14-.47.03-.1.05-.31.08-.6.03-.3.04-.68.04-1.14v-2.84c0-.83.15-1.42.44-1.78.29-.35.76-.53,1.41-.53h.99v7.37h2.84v-18.09h-4.29c-1.46,0-2.52.34-3.19,1.02-.67.68-1.01,1.73-1.01,3.14v1.43c0,1.87.62,3.09,1.85,3.67-.68.28-1.16.75-1.45,1.39-.29.64-.43,1.46-.43,2.46v2.79c0,.98-.09,1.71-.27,2.19h2.84ZM508.8,540.07l1.38,9.1h-2.74l1.36-9.1ZM506.58,554.91l.49-3.28h3.48l.49,3.28h2.84l-2.88-18.09h-4.38l-2.88,18.09h2.84ZM490.9,554.91l2.59-8.06.7,1.41v6.65h2.84v-6.63l.71-1.37,2.58,8h2.84l-3.48-10.71,3.48-7.38h-2.76l-3.37,7.32v-7.32h-2.84v7.32l-3.37-7.32h-2.76l3.53,7.42-3.53,10.67h2.84ZM481.26,540.99c0-1.18.49-1.78,1.48-1.78s1.47.59,1.47,1.78v9.76c0,1.19-.49,1.79-1.47,1.79s-1.48-.6-1.48-1.79v-9.76ZM479.55,553.93c.74.79,1.81,1.18,3.2,1.18s2.45-.39,3.19-1.18c.74-.79,1.11-1.91,1.11-3.36v-9.41c0-1.45-.37-2.57-1.11-3.36-.74-.79-1.81-1.18-3.19-1.18s-2.46.39-3.2,1.18c-.75.79-1.12,1.91-1.12,3.36v9.41c0,1.45.37,2.57,1.12,3.36M469.76,554.91l2.21-6.73,2.18,6.73h2.84l-3.16-9.22,2.97-8.87h-2.49l-2.19,6.71-2.15-6.71h-2.84l2.97,8.77-3.18,9.32h2.84ZM459.46,554.91l2.4-8.28,1.15-4.43v12.71h2.84v-18.09h-3.41l-2.32,7.47-1.03,3.99v-11.45h-2.53v18.09h2.91ZM449.65,539.41h1.35c.47,0,.82.13,1.05.39.23.26.34.7.34,1.32v2.71c0,.62-.12,1.06-.34,1.32-.23.26-.58.39-1.05.39h-1.35v-6.13ZM449.65,554.91v-6.8h1.35c1.4,0,2.46-.38,3.16-1.14.71-.76,1.06-1.87,1.06-3.32v-2.35c0-1.46-.35-2.57-1.06-3.33-.71-.76-1.77-1.15-3.17-1.15h-4.18v18.09h2.84ZM438.62,554.91v-15.5h3.23v15.5h2.84v-18.09h-8.9v18.09h2.84Z"/>
  <rect class="st3" x="349.78" y="459.94" width="236.53" height="17.32"/>
  <rect class="st1" x="362.69" y="459.94" width="223.62" height="17.32"/>
  <path class="st3" d="M753.48,633.87h39.91v39.57h-39.91v-39.57ZM794.27,633h-41.67v41.32h41.67v-41.32Z"/>
  <path class="st1" d="M753.48,633.87h39.91v39.57h-39.91v-39.57ZM794.27,633h-41.67v41.32h41.67v-41.32Z"/>
  <g>
    <path class="st3" d="M759.45,669.83c-.99,0-1.79-.8-1.79-1.77v-20.81c0-.98.8-1.78,1.79-1.78h27.96c.99,0,1.78.8,1.78,1.78v20.81c0,.98-.8,1.77-1.78,1.77h-27.96ZM787.41,644.6h-27.96c-1.47,0-2.67,1.19-2.67,2.65v20.81c0,1.46,1.2,2.65,2.67,2.65h27.96c1.47,0,2.67-1.19,2.67-2.65v-20.81c0-1.46-1.2-2.65-2.67-2.65"/>
    <path class="st1" d="M759.45,669.83c-.99,0-1.79-.8-1.79-1.77v-20.81c0-.98.8-1.78,1.79-1.78h27.96c.99,0,1.78.8,1.78,1.78v20.81c0,.98-.8,1.77-1.78,1.77h-27.96ZM787.41,644.6h-27.96c-1.47,0-2.67,1.19-2.67,2.65v20.81c0,1.46,1.2,2.65,2.67,2.65h27.96c1.47,0,2.67-1.19,2.67-2.65v-20.81c0-1.46-1.2-2.65-2.67-2.65Z"/>
  </g>
  <path class="st3" d="M760.77,648.56h25.33v18.21h-25.33v-18.21ZM786.99,647.68h-27.1v19.96h27.1v-19.96Z"/>
  <path class="st1" d="M760.77,648.56h25.33v18.21h-25.33v-18.21ZM786.99,647.68h-27.1v19.96h27.1v-19.96Z"/>
  <g>
    <path class="st3" d="M773.43,661.19c-1.28,0-2.33-1.04-2.33-2.31s1.04-2.31,2.33-2.31,2.33,1.03,2.33,2.31-1.05,2.31-2.33,2.31M773.43,655.7c-1.77,0-3.22,1.43-3.22,3.19s1.44,3.19,3.22,3.19,3.22-1.43,3.22-3.19-1.44-3.19-3.22-3.19"/>
    <path class="st1" d="M773.43,661.19c-1.28,0-2.33-1.04-2.33-2.31s1.04-2.31,2.33-2.31,2.33,1.03,2.33,2.31-1.05,2.31-2.33,2.31ZM773.43,655.7c-1.77,0-3.22,1.43-3.22,3.19s1.44,3.19,3.22,3.19,3.22-1.43,3.22-3.19-1.44-3.19-3.22-3.19Z"/>
  </g>
  <line class="st2" x1="604.57" y1="755.67" x2="836.31" y2="755.67"/>
</svg>