<svg xmlns="http://www.w3.org/2000/svg" xml:space="preserve" id="Слой_1" x="0" y="0" style="enable-background:new 0 0 1280 1024" version="1.1" viewBox="0 0 1280 1024"><style>.st0{fill:#e0e8b4}.st1{fill:#fff}.st2{fill:#39373a}.st3{stroke-width:.6}.st3,.st4,.st5,.st6,.st7{fill:none;stroke:#39373a}.st4{stroke-width:.347}.st5{stroke-width:.217}.st6{stroke-width:.52}.st7{stroke-width:.246}</style><path d="M453.2 229.5h429.9v344.9H453.2z" class="st0"/><path d="M808.4 431.5h51.3v23.9h-51.3z" class="st1"/><path d="M453.2 338.5h191.9v566.1H453.2z" class="st0"/><path d="M611.6 928h42.2v14.5h-42.2z" class="st2"/><path d="M611.6 928h42.2v14.5h-42.2z" class="st3"/><path d="M431.8 928h88v14.5h-88z" class="st2"/><path d="M431.8 928h88v14.5h-88z" class="st3"/><path d="M613.3 904.8h40.4v26h-40.4z" class="st2"/><path d="M638 570.8h15.7v337.7H638z" class="st2"/><path d="M638 570.8h15.7v337.7H638z" class="st3"/><path d="M422.2 904.8h92.9v26h-92.9z" class="st2"/><path d="M422.2 904.8h92.9v26h-92.9z" class="st3"/><path d="M468.9 904.8h171.8v37.7H468.9z" class="st3"/><path d="M462.2 922.7H634v4.8H462.2z" class="st3"/><path d="M629.5 922.7H652v4.8h-22.5zm-155.8 0h46.1v4.8h-46.1z" class="st3"/><path d="M638 570.8h262.2v16.5H638z" class="st2"/><path d="M638 570.8h262.2v16.5H638z" class="st3"/><path d="M883.8 558.5h16.4v19.9h-16.4z" class="st2"/><path d="M883.8 558.5h16.4v19.9h-16.4z" class="st3"/><path d="M883.8 433.5h12.1v72.8h-12.1z" class="st2"/><path d="M734.3 453.2h154v7.2h-154z" class="st2"/><path d="M734.3 453.2h154v7.2h-154z" class="st3"/><path d="M734.3 453.2h7.2v38.7h-7.2z" class="st2"/><path d="M734.3 453.2h7.2v38.7h-7.2z" class="st3"/><path d="M713.6 484.6h27.9v7.2h-27.9z" class="st2"/><path d="M713.6 484.6h27.9v7.2h-27.9z" class="st3"/><path d="M629.1 484.6h38.7v7.2h-38.7z" class="st2"/><path d="M629.1 484.6h38.7v7.2h-38.7z" class="st3"/><path d="M566.6 484.6h16.1v7.2h-16.1z" class="st2"/><path d="M566.6 484.6h16.1v7.2h-16.1z" class="st3"/><path d="M638.2 424.5h15.4V485h-15.4z" class="st2"/><path d="M638.2 424.5h15.4V485h-15.4z" class="st3"/><path d="M638.2 212.3h15.4v88.5h-15.4z" class="st2"/><path d="M638.2 212.3h15.4v88.5h-15.4z" class="st3"/><path d="M612.2 192.3h101.1v14.5H612.2z" class="st2"/><path d="M612.2 192.3h101.1v14.5H612.2z" class="st3"/><path d="M417.2 192.3h102.3v14.5H417.2z" class="st2"/><path d="M417.2 192.3h102.3v14.5H417.2z" class="st3"/><path d="M463.7 125.7v-7.5h-46.5v78.9h7.5v-71.4z" class="st2"/><path d="M463.7 125.7v-7.5h-46.5v78.9h7.5v-71.4z" class="st3"/><path d="M455.5 118.2h414.3v7.5H455.5z" class="st3"/><path d="M823.3 118.2h46.4v7.5h-46.4z" class="st2"/><path d="M823.3 118.2h46.4v7.5h-46.4z" class="st3"/><path d="M862.2 118.2h32.1v111h-32.1z" class="st2"/><path d="M828.8 192.5h49.7v14.3h-49.7z" class="st2"/><path d="M832.1 199.7h46.4v29.4h-46.4z" class="st2"/><path d="M832.1 199.7h46.4v29.4h-46.4z" class="st3"/><path d="M616.2 198.4h93.2v30.8h-93.2z" class="st2"/><path d="M616.2 198.4h93.2v30.8h-93.2z" class="st3"/><path d="M417.2 198.4h97.7v30.8h-97.7z" class="st2"/><path d="M417.2 198.4h97.7v30.8h-97.7z" class="st3"/><path d="M645.8 223.9h7.8v236.6h-7.8z" class="st2"/><path d="M645.8 223.9h7.8v236.6h-7.8z" class="st3"/><path d="M883.8 118.2h12.5v319.4h-12.5z" class="st2"/><path d="M883.8 118.2h12.5v319.4h-12.5z" class="st3"/><path d="M898.3 401.8h13.1v31h-13.1z" class="st1"/><path d="M805 429.8h7.8v26.4H805z" class="st2"/><path d="M805 429.8h7.8v26.4H805z" class="st3"/><path d="M854.3 429.8h7.8v26.4h-7.8z" class="st2"/><path d="M854.3 429.8h7.8v26.4h-7.8z" class="st3"/><path d="M835.7 429.8h7.8v26.4h-7.8z" class="st2"/><path d="M835.7 429.8h7.8v26.4h-7.8z" class="st3"/><path d="M806.2 429.8h53v7.8h-53z" class="st2"/><path d="M806.2 429.8h53v7.8h-53z" class="st3"/><path d="M443.6 461.7h72.2v15.4h-72.2z" class="st2"/><path d="M443.6 461.7h72.2v15.4h-72.2z" class="st3"/><path d="M483.3 461.7H571v7.1h-87.7z" class="st2"/><path d="M483.3 461.7H571v7.1h-87.7z" class="st3"/><path d="M562.8 465.9h8.1V504h-8.1z" class="st2"/><path d="M562.8 465.9h8.1V504h-8.1z" class="st3"/><path d="M562.8 538.9h8.1v61.9h-8.1z" class="st2"/><path d="M562.8 538.9h8.1v61.9h-8.1z" class="st3"/><path d="M562.8 634.9h8.1V661h-8.1z" class="st2"/><path d="M562.8 634.9h8.1V661h-8.1z" class="st3"/><path d="M445.2 581.4h120.2v8.3H445.2z" class="st2"/><path d="M445.2 581.4h120.2v8.3H445.2z" class="st3"/><path d="M462.9 586.2h23.2v50h-23.2z" class="st2"/><path d="M462.9 586.2h23.2v50h-23.2z" class="st3"/><path d="M478 596.9h8.1v50H478z" class="st2"/><path d="M478 596.9h8.1v50H478z" class="st3"/><path d="M442.7 653.7h140v8.1h-140z" class="st2"/><path d="M442.7 653.7h140v8.1h-140z" class="st3"/><path d="M630.3 653.7h15v8.1h-15z" class="st2"/><path d="M630.3 653.7h15v8.1h-15z" class="st3"/><path d="M442.7 645.8h73.4v8.1h-73.4z" class="st2"/><path d="M442.7 645.8h73.4v8.1h-73.4z" class="st3"/><path d="M469.7 588.5h10.2v10.2h-10.2zm0 15.3h10.2V614h-10.2zm0 15.4h10.2v10.2h-10.2z" class="st1"/><path d="M683 192.3h101.1v14.5H683zm0 20h96.3v16.8H683z" class="st3"/><path d="M683 206.9h101.1v5.5H683z" class="st3"/><path d="M678.3 206.9h101.1v5.5H678.3z" class="st3"/><path d="M673.5 206.9h101.1v5.5H673.5z" class="st3"/><path d="M628 206.9h86.6v5.5H628z" class="st3"/><path stroke-width=".6" d="m789.03 231.71 43.825-26.087 1.125 1.89-43.824 26.087z" class="st3"/><path d="M790.2 234.2s-3.7-6.1-5-11.9c-.9-4-1-10.6-1-10.6" class="st4"/><path stroke-width=".6" d="m663.927 487.438 43.824-26.087 1.125 1.89-43.824 26.087z" class="st3"/><path d="M707.8 460.8s3.7 7.4 5 14.6c.9 4.9 1 12.9 1 12.9" class="st4"/><path stroke-width=".6" d="m587.43 463.236 1.126-1.89 43.824 26.086-1.125 1.89z" class="st3"/><path d="M588.6 460.8s-3.7 7.4-5 14.6c-.9 4.9-1 12.9-1 12.9" class="st4"/><path stroke-width=".6" d="m567.192 498.753 1.89-1.125 20.92 35.145-1.89 1.126z" class="st3"/><path d="M590.6 532.8s-7.4 3.7-14.6 5c-4.9.9-12.9 1-12.9 1" class="st4"/><path stroke-width=".6" d="m567.2 640.474 20.92-35.146 1.891 1.126-20.92 35.145z" class="st3"/><path d="M590.6 606.5s-7.4-3.7-14.6-5c-4.9-.9-12.9-1-12.9-1" class="st4"/><path stroke-width=".6" d="m587.888 682.369 41.934-24.961 1.125 1.89-41.934 24.961z" class="st3"/><path d="M588.8 685.1s-3.7-7.6-5-14.7c-.9-4.9-1-12.9-1-12.9" class="st4"/><path stroke-width=".6" d="m891.733 564.732 31.662-53.19 1.89 1.125-31.662 53.19z" class="st3"/><path d="M926.2 512.5s-7.6-3.7-14.7-5c-4.9-.9-12.9-1-12.9-1" class="st4"/><path d="M417.2 212.3h34.9v730.2h-34.9z" class="st2"/><path d="M417.2 212.3h34.9v730.2h-34.9zm49.2-20h101.1v14.5H466.4zm0 20h96.3v16.8h-96.3z" class="st3"/><path d="M466.4 206.9h101.1v5.5H466.4z" class="st3"/><path d="M461.7 206.9h101.1v5.5H461.7z" class="st3"/><path d="M456.9 206.9H558v5.5H456.9z" class="st3"/><path d="M418.4 206.9h101.1v5.5H418.4z" class="st3"/><path d="M441.1 206.9H498v5.5h-56.9z" class="st3"/><path stroke-width=".6" d="m572.427 231.707 43.824-26.086 1.125 1.89-43.824 26.087z" class="st3"/><path d="M573.6 234.2s-3.7-6.1-5-11.9c-.9-4-1-10.6-1-10.6" class="st4"/><path d="M529.5 617.7c0-5.2-4.3-9.5-9.5-9.5h-13.8c-.9 0-1.6.7-1.6 1.6v15.7c0 .9.7 1.6 1.6 1.6H520c5.2.1 9.5-4.1 9.5-9.4m-25.5 7.9v-15.7c0-1.3 1-2.3 2.3-2.3H520c5.6 0 10.2 4.6 10.2 10.2S525.6 628 520 628h-13.8c-1.2-.1-2.2-1.1-2.2-2.4" class="st2"/><path d="M529.5 617.7c0-5.2-4.3-9.5-9.5-9.5h-13.8c-.9 0-1.6.7-1.6 1.6v15.7c0 .9.7 1.6 1.6 1.6H520c5.2.1 9.5-4.1 9.5-9.4zm-25.5 7.9v-15.7c0-1.3 1-2.3 2.3-2.3H520c5.6 0 10.2 4.6 10.2 10.2S525.6 628 520 628h-13.8c-1.2-.1-2.2-1.1-2.2-2.4z" class="st5"/><path d="M509.2 610.9v13.6c0 .1.1.2.2.2h10.4c3.8 0 7-3.1 7-7 0-3.8-3.1-7-7-7h-10.4c-.1.1-.2.1-.2.2z" class="st5"/><path d="M509.5 611.1v13.3h10.2c3.7 0 6.6-3 6.6-6.7s-3-6.6-6.6-6.6h-10.2zm-.6 13.4v-13.6c0-.3.2-.5.5-.5h10.4c4 0 7.3 3.3 7.3 7.3s-3.3 7.3-7.3 7.3h-10.4c-.3 0-.5-.2-.5-.5" class="st2"/><path d="M509.5 611.1v13.3h10.2c3.7 0 6.6-3 6.6-6.7s-3-6.6-6.6-6.6h-10.2zm-.6 13.4v-13.6c0-.3.2-.5.5-.5h10.4c4 0 7.3 3.3 7.3 7.3s-3.3 7.3-7.3 7.3h-10.4c-.3 0-.5-.2-.5-.5z" class="st5"/><path d="M519.7 617.7c0-1-.8-1.8-1.8-1.8s-1.8.8-1.8 1.8.8 1.8 1.8 1.8 1.8-.8 1.8-1.8m-4.2 0c0-1.4 1.1-2.4 2.4-2.4s2.4 1.1 2.4 2.4c0 1.4-1.1 2.4-2.4 2.4s-2.4-1-2.4-2.4" class="st2"/><path d="M519.7 617.7c0-1-.8-1.8-1.8-1.8s-1.8.8-1.8 1.8.8 1.8 1.8 1.8 1.8-.8 1.8-1.8zm-4.2 0c0-1.4 1.1-2.4 2.4-2.4s2.4 1.1 2.4 2.4c0 1.4-1.1 2.4-2.4 2.4s-2.4-1-2.4-2.4z" class="st5"/><path d="m510.5 612.4.4-.5 4.4 3.3-.4.5z" class="st2"/><path d="m510.5 612.4.4-.5 4.4 3.3-.4.5z" class="st5"/><path d="m510.5 622.9 4.4-3.2.4.5-4.4 3.3z" class="st2"/><path d="m510.5 622.9 4.4-3.2.4.5-4.4 3.3z" class="st5"/><path d="M503.9 611.2c0-1.5-1.2-2.6-2.6-2.6h-3.6c-1.5 0-2.6 1.2-2.6 2.6v13.1c0 1.5 1.2 2.6 2.6 2.6h3.6c1.5 0 2.6-1.2 2.6-2.6v-13.1zm-9.5 13.1v-13.1c0-1.8 1.5-3.3 3.3-3.3h3.6c1.8 0 3.3 1.5 3.3 3.3v13.1c0 1.8-1.5 3.3-3.3 3.3h-3.6c-1.8 0-3.3-1.5-3.3-3.3" class="st2"/><path d="M503.9 611.2c0-1.5-1.2-2.6-2.6-2.6h-3.6c-1.5 0-2.6 1.2-2.6 2.6v13.1c0 1.5 1.2 2.6 2.6 2.6h3.6c1.5 0 2.6-1.2 2.6-2.6v-13.1zm-9.5 13.1v-13.1c0-1.8 1.5-3.3 3.3-3.3h3.6c1.8 0 3.3 1.5 3.3 3.3v13.1c0 1.8-1.5 3.3-3.3 3.3h-3.6c-1.8 0-3.3-1.5-3.3-3.3z" class="st5"/><path d="M500.5 617.7c0-.6-.5-1-1-1-.6 0-1 .5-1 1 0 .6.5 1 1 1 .6 0 1-.4 1-1m-2.7 0c0-.9.7-1.7 1.7-1.7.9 0 1.7.7 1.7 1.7 0 .9-.8 1.7-1.7 1.7-.9 0-1.7-.7-1.7-1.7" class="st2"/><path d="M500.5 617.7c0-.6-.5-1-1-1-.6 0-1 .5-1 1 0 .6.5 1 1 1 .6 0 1-.4 1-1zm-2.7 0c0-.9.7-1.7 1.7-1.7.9 0 1.7.7 1.7 1.7 0 .9-.8 1.7-1.7 1.7-.9 0-1.7-.7-1.7-1.7z" class="st5"/><path d="M473.8 563.2c.9 0 1.6-.7 1.6-1.6s-.7-1.6-1.6-1.6c-.9 0-1.6.7-1.6 1.6s.7 1.6 1.6 1.6z" class="st6"/><path d="M466.5 485.7c-5.8 0-10.5 4.7-10.5 10.5v72c0 5.8 4.7 10.5 10.5 10.5h14.6c5.8 0 10.5-4.7 10.5-10.5v-72c0-5.8-4.7-10.5-10.5-10.5h-14.6z" class="st6"/><path d="M469.8 492.2c-5.8 0-10.5 4.7-10.5 10.5v59.1c0 5.8 4.7 10.5 10.5 10.5h7.9c5.8 0 10.5-4.7 10.5-10.5v-59.1c0-5.8-4.7-10.5-10.5-10.5h-7.9z" class="st6"/><path d="M467.8 500c-2.9 0-5.3 2.4-5.3 5.3v58.2c0 2.9 2.4 5.3 5.3 5.3h12.1c2.9 0 5.3-2.4 5.3-5.3v-58.2c0-2.9-2.4-5.3-5.3-5.3h-12.1zm25.8-19.5v100.3m.6-99.7h-48.9" class="st6"/><path d="M511.6 557.7c5.6 0 10.1 4.5 10.1 10.1v10.7c0 .8-.7 1.5-1.5 1.5h-22.8c-.8 0-1.5-.7-1.5-1.5v-10.7c0-5.6 4.5-10.1 10.1-10.1h5.6zm-14.2 22.8h22.8c1.2 0 2.1-.9 2.1-2.1v-10.7c0-5.9-4.8-10.6-10.6-10.6H506c-5.9 0-10.6 4.8-10.6 10.6v10.7c-.1 1.2.9 2.1 2 2.1" class="st2"/><path d="M511.6 557.7c5.6 0 10.1 4.5 10.1 10.1v10.7c0 .8-.7 1.5-1.5 1.5h-22.8c-.8 0-1.5-.7-1.5-1.5v-10.7c0-5.6 4.5-10.1 10.1-10.1h5.6zm-14.2 22.8h22.8c1.2 0 2.1-.9 2.1-2.1v-10.7c0-5.9-4.8-10.6-10.6-10.6H506c-5.9 0-10.6 4.8-10.6 10.6v10.7c-.1 1.2.9 2.1 2 2.1z" class="st5"/><path d="M511.6 560.2c4.2 0 7.5 3.4 7.5 7.5v6.2c0 .7-.6 1.3-1.3 1.3h-18.1c-.7 0-1.3-.6-1.3-1.3v-6.2c0-4.2 3.4-7.5 7.5-7.5h5.7zm-11.9 15.7h18.1c1 0 1.9-.8 1.9-1.9v-6.2c0-4.5-3.6-8.1-8.1-8.1H506c-4.5 0-8.1 3.6-8.1 8.1v6.2c0 1 .8 1.9 1.8 1.9" class="st2"/><path d="M511.6 560.2c4.2 0 7.5 3.4 7.5 7.5v6.2c0 .7-.6 1.3-1.3 1.3h-18.1c-.7 0-1.3-.6-1.3-1.3v-6.2c0-4.2 3.4-7.5 7.5-7.5h5.7zm-11.9 15.7h18.1c1 0 1.9-.8 1.9-1.9v-6.2c0-4.5-3.6-8.1-8.1-8.1H506c-4.5 0-8.1 3.6-8.1 8.1v6.2c0 1 .8 1.9 1.8 1.9z" class="st5"/><path d="M508.8 565.5c.7 0 1.2.6 1.2 1.2s-.6 1.2-1.2 1.2c-.7 0-1.2-.6-1.2-1.2s.5-1.2 1.2-1.2m0 3c1 0 1.8-.8 1.8-1.8s-.8-1.8-1.8-1.8-1.8.8-1.8 1.8.8 1.8 1.8 1.8" class="st2"/><path d="M508.8 565.5c.7 0 1.2.6 1.2 1.2s-.6 1.2-1.2 1.2c-.7 0-1.2-.6-1.2-1.2s.5-1.2 1.2-1.2zm0 3c1 0 1.8-.8 1.8-1.8s-.8-1.8-1.8-1.8-1.8.8-1.8 1.8.8 1.8 1.8 1.8z" class="st5"/><path d="M524 544.6h36.3v35.5H524zm-.1.4 36.3 34.9m-36.3.5 36.3-35" class="st6"/><path d="M492.2 588.5v59.4" class="st3"/><path d="M882.1 371.4h-34.2v34.2h34.2v-34.2zm.8 35h-35.8v-35.8h35.8v35.8z" class="st2"/><path d="M882.1 371.4h-34.2v34.2h34.2v-34.2zm.8 35h-35.8v-35.8h35.8v35.8z" class="st7"/><path d="M851 400.5c0 .8.7 1.5 1.5 1.5h18c.8 0 1.5-.7 1.5-1.5v-24c0-.8-.7-1.5-1.5-1.5h-18c-.8 0-1.5.7-1.5 1.5v24zm21.8-24v24c0 1.3-1 2.3-2.3 2.3h-18c-1.3 0-2.3-1-2.3-2.3v-24c0-1.3 1-2.3 2.3-2.3h18c1.3 0 2.3 1.1 2.3 2.3" class="st2"/><path d="M851 400.5c0 .8.7 1.5 1.5 1.5h18c.8 0 1.5-.7 1.5-1.5v-24c0-.8-.7-1.5-1.5-1.5h-18c-.8 0-1.5.7-1.5 1.5v24zm21.8-24v24c0 1.3-1 2.3-2.3 2.3h-18c-1.3 0-2.3-1-2.3-2.3v-24c0-1.3 1-2.3 2.3-2.3h18c1.3 0 2.3 1.1 2.3 2.3z" class="st7"/><path d="M869.4 377.6h-15.7v21.7h15.7v-21.7zm.8 22.5h-17.3v-23.2h17.3v23.2z" class="st2"/><path d="M869.4 377.6h-15.7v21.7h15.7v-21.7zm.8 22.5h-17.3v-23.2h17.3v23.2z" class="st7"/><path d="M858.5 388.5c0 1.1.9 2 2 2s2-.9 2-2-.9-2-2-2-2 .9-2 2m4.7 0c0 1.5-1.2 2.7-2.7 2.7-1.5 0-2.7-1.2-2.7-2.7 0-1.5 1.2-2.7 2.7-2.7 1.5 0 2.7 1.2 2.7 2.7" class="st2"/><path d="M858.5 388.5c0 1.1.9 2 2 2s2-.9 2-2-.9-2-2-2-2 .9-2 2zm4.7 0c0 1.5-1.2 2.7-2.7 2.7-1.5 0-2.7-1.2-2.7-2.7 0-1.5 1.2-2.7 2.7-2.7 1.5 0 2.7 1.2 2.7 2.7z" class="st7"/><path d="M858.8 429.8h27.5" class="st3"/><path d="m553.2 790 .2 2.9h5.8c-.3.5-.5.9-.7 1.4l-3.2 9h3.6l4-11.6c.3-1-.3-1.8-1.4-1.8h-8.3zm-2.6 10c-.9 0-1.2.3-1.2 1.2v.8c0 .9.3 1.2 1.2 1.2h.8c.9 0 1.2-.3 1.2-1.2v-.8c0-.9-.3-1.2-1.2-1.2h-.8zm-12.5-7.1c1.8-.1 2.8-.1 4.2-.1 1 0 1.5.1 1.5.6 0 .8-.9 2-2.4 3.5l-3 3.1c-.4.4-.5.9-.5 1.4v1.9h9.9v-3.1H544c-.6 0-1.3 0-1.9.2l3.3-3.2c1.8-1.8 2.1-2.7 2.1-4.2 0-2.6-1.9-3.2-4.7-3.2-1.4 0-2.8.1-4.8.4l.1 2.7zm-2.5 10.4V790H532l-3.4 1.3.4 2.3 3.1-.7c-.1.5-.1 1.1-.1 1.6v8.8h3.6zm78.7-26.5c0-.4.2-.7.8-.8h2v1.2c-.6.4-1.3.7-1.9.7-.6 0-.9-.3-.9-.8v-.3zm-2.6-3.8c1.6-.1 3.1-.1 4.1-.1 1 0 1.3.3 1.3 1.1v.2h-3.2c-1.9 0-3.1.9-3.1 2.5v1c0 1.8 1.4 2.7 3.2 2.7 1.7 0 2.8-.8 3.4-1.7l.3 1.4h2.8V774c0-2.9-1.4-3.7-4-3.7-1.4 0-3.8.2-5.3.5l.5 2.2zm-1.6.2v-2.6h-9.6v2.6h3.1v7h3.5v-7h3zm-17.1 3.6c0-.4.2-.7.8-.8h2v1.2c-.6.4-1.3.7-1.9.7-.6 0-.9-.3-.9-.8v-.3zm-2.7-3.8c1.6-.1 3.2-.1 4.1-.1 1 0 1.3.3 1.3 1.1v.2h-3.2c-1.9 0-3.1.9-3.1 2.5v1c0 1.8 1.4 2.7 3.2 2.7 1.7 0 2.8-.8 3.4-1.7l.3 1.4h2.8V774c0-2.9-1.4-3.7-4-3.7-1.4 0-3.8.2-5.3.5l.5 2.2zm-2.4-2.5h-3.4v3.4h-2.9v-3.4h-3.5v9.6h3.5v-3.9h2.9v3.9h3.4v-9.6zm-16.2 0c-.7 0-1.2.4-1.3 1.1l-.8 3.6c-.1.5-.1.9-.2 1.4h-.2c-.1-.5-.1-.9-.2-1.4l-.9-3.6c-.1-.7-.6-1.1-1.3-1.1h-3c-.8 0-1.2.4-1.2 1.2l-.2 8.4h3.2l.2-7.1h.2l1.1 4.7c.1.7.6 1.1 1.3 1.1h1.6c.8 0 1.2-.3 1.3-1.1l1.1-4.7h.2l.3 7.1h3.2l-.3-8.4c0-.8-.4-1.2-1.2-1.2h-2.9zm-16 2.2c1.2 0 1.5.5 1.5 2.6s-.3 2.6-1.5 2.6-1.5-.5-1.5-2.6.3-2.6 1.5-2.6m0-2.4c-3.8 0-5.2 1.4-5.2 5.1 0 3.7 1.4 5 5.2 5 3.8 0 5.2-1.3 5.2-5 0-3.8-1.4-5.1-5.2-5.1m-9.6 4.8c2.2-.3 2.1-.5 3.3-4.6h-3.5c-.8 3.2-.9 3.5-2.3 3.5h-.4c.1-.4.1-.8.1-1.2v-2.3h-3.5v9.6h3.5v-3c0-.2 0-.5-.1-.8h.8c1 0 1.1.3 2.1 3.8h3.7c-1.4-4.5-1.5-4.6-3.7-5zm-15.9-.2h-1.4c-.9 0-1.1-.2-1.1-1.2 0-.7.2-.9 1.1-.9h1.4v2.1zm-3.8 1.2c-.6.1-1.6.2-1.8 1l-.8 3h3.6l.6-2.6c.1-.4.3-.6.9-.6h1.3v3.1h3.4v-9.7c-1.2-.1-2.2-.2-4.9-.2-3.5 0-4.4.7-4.4 3.1 0 1.4.5 2.5 2.1 2.9zm-10.2.7c0-.4.2-.7.8-.8h2v1.2c-.6.4-1.3.7-1.9.7-.6 0-.9-.3-.9-.8v-.3zm-2.6-3.8c1.6-.1 3.1-.1 4.1-.1 1 0 1.3.3 1.3 1.1v.2h-3.2c-1.9 0-3.1.9-3.1 2.5v1c0 1.8 1.4 2.7 3.2 2.7 1.7 0 2.8-.8 3.4-1.7l.3 1.4h2.8V774c0-2.9-1.4-3.7-4-3.7-1.4 0-3.8.2-5.3.5l.5 2.2zm-2.4-2.5h-5.8c-1.7 0-2.5.8-2.6 2.5-.1 1.8-.3 3.1-.5 3.8-.2.8-.8.8-1.6.9l.3 2.6c2.1.3 4-.1 4.4-2.5.2-.9.4-2.6.6-4 .1-.6.3-.8.9-.8h.8v7.3h3.5v-9.8zm-11.8 9.7v-9.6h-3.1l-3.1 4.6c-.3.4-.5.9-.7 1.4h-.1c.1-.6.1-1 .1-1.5v-4.5h-3.1v9.6h3l3-4.4c.3-.4.6-1.1.8-1.6h.1c-.1.6-.1 1.1-.1 1.7v4.3h3.2zm-15.6-7.1c2.6-.3 2.6-1.5 4.1-6.3h-3.7c-1.2 4-1.4 5.2-2.7 5.2h-.6c.1-.6.2-1.1.2-1.7v-3.5h-3.5v3.5c0 .5.1 1.1.2 1.7h-.8c-1.3 0-1.5-1.2-2.7-5.2h-3.7c1.4 4.8 1.5 6 4.1 6.3v.1c-2.7.4-2.9 1.4-4.4 6.9h3.8c1.5-4.8 1.6-5.7 2.9-5.7h.7c-.1.4-.2.9-.2 1.2v4.5h3.5v-4.5c0-.4-.1-.8-.2-1.2h.6c1.4 0 1.5.9 3 5.7h3.8c-1.6-5.5-1.7-6.5-4.4-6.9v-.1zm74.5-412.9c1.5 0 1.8.3 1.8 1.7 0 1.3-.3 1.7-1.8 1.7s-1.9-.3-1.9-1.7c.1-1.3.4-1.7 1.9-1.7m0-5.4c1.3 0 1.6.3 1.6 1.6 0 1.2-.3 1.5-1.6 1.5-1.4 0-1.7-.3-1.7-1.5.1-1.3.4-1.6 1.7-1.6m-2.9 4.3c-1.9.2-2.4 1.8-2.4 3.6 0 2.6 1.1 3.6 5.2 3.6 4.2 0 5.2-1 5.2-3.6 0-1.8-.4-3.4-2.4-3.6v-.1c1.4-.2 2-1.6 2-3.1 0-2.5-.8-3.6-4.9-3.6-4 0-4.9 1.1-4.9 3.6.2 1.5.8 3 2.2 3.2zm-6 3.6c-.9 0-1.2.3-1.2 1.2v.8c0 .9.3 1.2 1.2 1.2h.8c.9 0 1.2-.3 1.2-1.2v-.8c0-.9-.3-1.2-1.2-1.2h-.8zm-12.5-7.2c1.8-.1 2.8-.1 4.2-.1 1 0 1.5.1 1.5.6 0 .8-.9 2-2.4 3.5l-3 3.1c-.4.4-.5.9-.5 1.4v1.9h9.9v-3.1h-3.8c-.6 0-1.3 0-1.9.2l3.3-3.2c1.8-1.8 2.1-2.7 2.1-4.2 0-2.6-1.9-3.2-4.7-3.2-1.4 0-2.8.1-4.8.4l.1 2.7zm-2.5 10.5v-13.3h-3.6l-3.4 1.3.4 2.3 3.1-.7c-.1.5-.1 1.1-.1 1.6v8.8h3.6zm79.9-26.6c0-.4.2-.7.8-.8h2v1.2c-.6.4-1.3.7-1.9.7-.6 0-.9-.3-.9-.8v-.3zm-2.6-3.7c1.6-.1 3.1-.1 4.1-.1 1 0 1.3.3 1.3 1.1v.2h-3.2c-1.9 0-3.1.9-3.1 2.5v1c0 1.8 1.4 2.7 3.2 2.7 1.7 0 2.8-.8 3.4-1.7l.3 1.4h2.8v-6.1c0-2.9-1.4-3.7-4-3.7-1.4 0-3.8.2-5.3.5l.5 2.2zm-1.6.1v-2.6h-9.6v2.6h3.1v7h3.5v-7h3zm-17.1 3.6c0-.4.2-.7.8-.8h2v1.2c-.6.4-1.3.7-1.9.7-.6 0-.9-.3-.9-.8v-.3zm-2.7-3.7c1.6-.1 3.2-.1 4.1-.1 1 0 1.3.3 1.3 1.1v.2h-3.2c-1.9 0-3.1.9-3.1 2.5v1c0 1.8 1.4 2.7 3.2 2.7 1.7 0 2.8-.8 3.4-1.7l.3 1.4h2.8v-6.1c0-2.9-1.4-3.7-4-3.7-1.4 0-3.8.2-5.3.5l.5 2.2zm-2.4-2.5h-3.4v3.4h-2.9v-3.4h-3.5v9.6h3.5v-3.9h2.9v3.9h3.4v-9.6zm-16.2 0c-.7 0-1.2.4-1.3 1.1l-.8 3.6c-.1.5-.1.9-.2 1.4h-.2c-.1-.5-.1-.9-.2-1.4l-.9-3.6c-.1-.7-.6-1.1-1.3-1.1h-3c-.8 0-1.2.4-1.2 1.2l-.2 8.4h3.2l.2-7.1h.2l1.1 4.7c.1.7.6 1.1 1.3 1.1h1.6c.8 0 1.2-.3 1.3-1.1l1.1-4.7h.2l.3 7.1h3.2l-.3-8.4c0-.8-.4-1.2-1.2-1.2h-2.9zm-16 2.2c1.2 0 1.5.5 1.5 2.6s-.3 2.6-1.5 2.6-1.5-.5-1.5-2.6.3-2.6 1.5-2.6m0-2.5c-3.8 0-5.2 1.4-5.2 5.1 0 3.7 1.4 5 5.2 5 3.8 0 5.2-1.3 5.2-5s-1.4-5.1-5.2-5.1m-9.6 4.8c2.2-.3 2.1-.5 3.3-4.6h-3.5c-.8 3.2-.9 3.5-2.3 3.5h-.4c.1-.4.1-.8.1-1.2v-2.3h-3.5v9.6h3.5v-3c0-.2 0-.5-.1-.8h.8c1 0 1.1.3 2.1 3.8h3.7c-1.4-4.5-1.5-4.6-3.7-5zm-15.9-.2h-1.4c-.9 0-1.1-.2-1.1-1.2 0-.7.2-.9 1.1-.9h1.4v2.1zm-3.8 1.2c-.6.1-1.6.2-1.8 1l-.8 3h3.6l.6-2.6c.1-.4.3-.6.9-.6h1.3v3.1h3.4v-9.7c-1.2-.1-2.2-.2-4.9-.2-3.5 0-4.4.7-4.4 3.1 0 1.4.5 2.5 2.1 2.9zm-10.2.7c0-.4.2-.7.8-.8h2v1.2c-.6.4-1.3.7-1.9.7-.6 0-.9-.3-.9-.8v-.3zm-2.6-3.7c1.6-.1 3.1-.1 4.1-.1 1 0 1.3.3 1.3 1.1v.2h-3.2c-1.9 0-3.1.9-3.1 2.5v1c0 1.8 1.4 2.7 3.2 2.7 1.7 0 2.8-.8 3.4-1.7l.3 1.4h2.8v-6.1c0-2.9-1.4-3.7-4-3.7-1.4 0-3.8.2-5.3.5l.5 2.2zm-2.4-2.5h-5.8c-1.7 0-2.5.8-2.6 2.5-.1 1.8-.3 3.1-.5 3.8-.2.8-.8.8-1.6.9l.3 2.6c2.1.3 4-.1 4.4-2.5.2-.9.4-2.6.6-4 .1-.6.3-.8.9-.8h.8v7.3h3.5v-9.8zm-11.8 9.6v-9.6h-3.1l-3.1 4.6c-.3.4-.5.9-.7 1.4h-.1c.1-.6.1-1 .1-1.5v-4.5h-3.1v9.6h3l3-4.4c.3-.4.6-1.1.8-1.6h.1c-.1.6-.1 1.1-.1 1.7v4.3h3.2zm-15.6-7c2.6-.3 2.6-1.5 4.1-6.3h-3.7c-1.2 4-1.4 5.2-2.7 5.2h-.6c.1-.6.2-1.1.2-1.7v-3.5h-3.5v3.5c0 .5.1 1.1.2 1.7h-.8c-1.3 0-1.5-1.2-2.7-5.2h-3.7c1.4 4.8 1.5 6 4.1 6.3v.1c-2.7.4-2.9 1.4-4.4 6.9h3.8c1.5-4.8 1.6-5.7 2.9-5.7h.7c-.1.4-.2.9-.2 1.2v4.5h3.5v-4.5c0-.4-.1-.8-.2-1.2h.6c1.4 0 1.5.9 3 5.7h3.8c-1.6-5.5-1.7-6.5-4.4-6.9v-.1zm273.8 201.4.2 2.9h5.8c-.3.5-.5.9-.7 1.4l-3.2 9h3.6l4-11.6c.3-1-.3-1.8-1.4-1.8h-8.3zm-2.7 10c-.9 0-1.2.3-1.2 1.2v.8c0 .9.3 1.2 1.2 1.2h.8c.9 0 1.2-.3 1.2-1.2v-.8c0-.9-.3-1.2-1.2-1.2h-.8zm-9.6-5.4c0-1.6.1-2.2 1.5-2.2 1.5 0 1.7.5 1.7 3.5-.6.4-1.1.5-1.7.5-1.2-.1-1.5-.5-1.5-1.8m-2.8 8.6c1.5.4 3 .4 3.7.4 4.3 0 5.8-1 5.8-7 0-5.4-.9-6.8-5.1-6.8-3.9 0-5 1.5-5 4.9 0 2.4.8 4.1 3.8 4.1 1.2 0 2-.2 2.7-.8-.1 2.3-.6 2.9-2.3 2.9h-3.5l-.1 2.3zm46.7-29.7c.6-.4 1.1-.6 1.8-.6.9 0 1.3.4 1.3 2.6s-.4 2.5-1.4 2.5c-.7 0-1.2-.2-1.7-.3v-4.2zm-.7-3h-2.8v13.2h3.5v-2.1c0-.7 0-1.4-.1-2.1.8.6 1.9.9 3.1.9 2.4 0 3.6-1.1 3.6-4.9 0-3.3-1-5.1-3.4-5.1-1.5 0-3 .7-3.7 1.6l-.2-1.5zm-9.7 2.2c1.2 0 1.5.5 1.5 2.6s-.3 2.6-1.5 2.6-1.5-.5-1.5-2.6.3-2.6 1.5-2.6m0-2.5c-3.8 0-5.2 1.4-5.2 5.1 0 3.7 1.4 5 5.2 5 3.8 0 5.2-1.3 5.2-5s-1.4-5.1-5.2-5.1m-11 7.6H765c.5-1.1.8-2.4 1.1-4.2.1-.5.4-.8.9-.8h.9v5zm4.9 0h-1.6v-7.2h-5.3c-1.7 0-2.6.8-2.8 2.3-.2 1.7-.6 3.3-1.1 4.9h-1.2v5h2.3l.2-2.7h6.9l.3 2.7h2.3v-5zm-13.4 2.3v-9.6h-3.1l-3.1 4.6c-.3.4-.5.9-.7 1.4h-.1c.1-.6.1-1 .1-1.5v-4.5h-3.1v9.6h3.1l3-4.4c.3-.4.6-1.1.8-1.6h.1c-.1.6-.1 1.1-.1 1.7v4.3h3.1zm-18.2-6.6c.6-.4 1.1-.6 1.8-.6.9 0 1.3.4 1.3 2.6s-.4 2.5-1.4 2.5c-.7 0-1.2-.2-1.7-.3v-4.2zm-.7-3h-2.8v13.2h3.5v-2.1c0-.7 0-1.4-.1-2.1.8.6 1.9.9 3.1.9 2.4 0 3.6-1.1 3.6-4.9 0-3.3-1-5.1-3.4-5.1-1.5 0-3 .7-3.7 1.6l-.2-1.5zm-9.7 2.2c1.2 0 1.5.5 1.5 2.6s-.3 2.6-1.5 2.6-1.5-.5-1.5-2.6.3-2.6 1.5-2.6m0-2.5c-3.8 0-5.2 1.4-5.2 5.1 0 3.7 1.4 5 5.2 5 3.8 0 5.2-1.3 5.2-5s-1.4-5.1-5.2-5.1m-10.4 2.9c2.6-.3 2.7-1.5 4.2-6.3h-3.7c-1 4-1.3 5.2-3.2 5.2h-.6c.1-.5.2-1.1.2-1.7V514h-3.6v13.3h3.6v-4.5c0-.4-.1-.8-.2-1.2h.7c1.9 0 2 .9 3.4 5.7h3.8c-1.6-5.5-1.8-6.5-4.6-6.9v-.1zm-26-368.8c2.1.9 2.9 3.7 2.9 7.7s-.8 6.8-2.9 7.7l.4 1.5c4.1-1.2 5.9-4.1 5.9-9.2 0-5.2-1.8-8.1-5.9-9.2l-.4 1.5zm-10.3 3.3c1.8-.1 2.8-.1 4.2-.1 1 0 1.5.1 1.5.6 0 .8-.9 2-2.4 3.5l-3 3.1c-.4.4-.5.9-.5 1.4v1.9h9.9v-3.1h-3.8c-.6 0-1.3 0-1.9.2l3.3-3.2c1.8-1.8 2.1-2.7 2.1-4.2 0-2.6-1.9-3.2-4.7-3.2-1.4 0-2.8.1-4.8.4l.1 2.7zm-3.8 7.2c-.9 0-1.2.3-1.2 1.2v.8c0 .9.3 1.2 1.2 1.2h.8c.9 0 1.2-.3 1.2-1.2v-.8c0-.9-.3-1.2-1.2-1.2h-.8zm-2.5-1.9h-1.6v-5.5h-2.7l-.6 2.1v3.4h-2.6c-.3 0-.5-.2-.3-.6l2.9-7.6h-3.4l-3.3 8.5c-.4 1 .3 2.1 1.4 2.1h5.3v2.8h3.3v-2.8l1.5-.3v-2.1zM665.8 150c-4.1 1.1-5.9 4-5.9 9.2 0 5.2 1.8 8.1 5.9 9.2l.4-1.5c-2.1-1-2.9-3.8-2.9-7.7 0-4 .8-6.8 2.9-7.7l-.4-1.5zm-20.6 4.5h3.7c1.4 0 1.7.2 1.7 1.3 0 .9-.1 1.5-1.6 1.5h-2.6v2.3h2.6c1.4 0 1.7.4 1.7 1.6 0 1.4-.5 1.6-2.2 1.6-1.2 0-2 0-3.7-.1l-.1 2.6c1.5.2 3.2.4 4.8.4 3.5 0 4.8-1.2 4.8-4 0-2-.6-3.1-2.5-3.3v-.1c1.7-.3 2.1-1.5 2.1-3.4 0-2.4-1.2-3.1-4.5-3.1-1.5 0-3 .1-4.5.4l.3 2.3zm-4 7.5c-.9 0-1.2.3-1.2 1.2v.8c0 .9.3 1.2 1.2 1.2h.8c.9 0 1.2-.3 1.2-1.2v-.8c0-.9-.3-1.2-1.2-1.2h-.8zm-8-2.5c1.5 0 1.8.3 1.8 1.7 0 1.3-.3 1.7-1.8 1.7s-1.9-.3-1.9-1.7c0-1.3.3-1.7 1.9-1.7m-.1-5.4c1.3 0 1.6.3 1.6 1.6 0 1.2-.3 1.5-1.6 1.5-1.4 0-1.7-.3-1.7-1.5.1-1.3.4-1.6 1.7-1.6m-2.8 4.3c-1.9.2-2.4 1.8-2.4 3.6 0 2.6 1.1 3.6 5.2 3.6 4.2 0 5.2-1 5.2-3.6 0-1.8-.4-3.4-2.4-3.6v-.1c1.4-.2 2-1.6 2-3.1 0-2.5-.8-3.6-4.9-3.6-4 0-4.9 1.1-4.9 3.6.1 1.5.7 3 2.2 3.2zm-78.8 463.3h2.2c.8 0 1 .1 1 .8 0 .5-.1.9-.9.9h-1.5v1.4h1.5c.9 0 1 .3 1 .9 0 .8-.3 1-1.3 1-.7 0-1.2 0-2.2-.1l-.1 1.6c.9.1 1.9.2 2.9.2 2.1 0 2.9-.7 2.9-2.4 0-1.2-.4-1.8-1.5-2 1-.2 1.3-.9 1.3-2 0-1.4-.7-1.9-2.7-1.9-.9 0-1.8.1-2.7.2l.1 1.4zm-2.3 4.4c-.6 0-.7.2-.7.7v.5c0 .6.2.7.7.7h.5c.6 0 .7-.2.7-.7v-.5c0-.6-.2-.7-.7-.7h-.5zm-2.2 2v-8h-2.2l-2 .8.3 1.4 1.9-.4c-.1.3-.1.6-.1 1v5.3h2.1zm13.2-19.7h-2.3l-.8 3.4c-.1.3-.2.6-.2 1h-.1c0-.3-.1-.7-.2-1l-.9-3.4h-2.2l1.8 5.3c.1.3.3.5.7.5h.4c-.2.3-.4.6-.6.7-.4.2-.9.3-1.6.2l-.2 1.4c.8.2 1.7.2 2.4-.1.9-.3 1.6-.9 2-2.2l1.8-5.8zm-11.4 6.7 4.6-8.9h-1.7l-4.6 8.9h1.7zm-2.3-2.7c-.7.1-1.4.1-2.5.1-.9 0-1.2-.5-1.2-2.3 0-1.8.3-2.3 1.2-2.3h2.4l.2-1.6c-.8-.2-1.3-.3-2.5-.3-2.6 0-3.5 1.1-3.5 4.1s.9 4.1 3.5 4.1c1.2 0 1.9-.1 2.7-.4l-.3-1.4zM532.3 524h2.2c.8 0 1 .1 1 .8 0 .5-.1.9-.9.9h-1.5v1.4h1.5c.9 0 1 .3 1 .9 0 .8-.3 1-1.3 1-.7 0-1.2 0-2.2-.1l-.1 1.6c.9.1 1.9.2 2.9.2 2.1 0 2.9-.7 2.9-2.4 0-1.2-.4-1.8-1.5-2 1-.2 1.3-.9 1.3-2 0-1.4-.7-1.9-2.7-1.9-.9 0-1.8.1-2.7.2l.1 1.4zm-2.4 4.5c-.6 0-.7.2-.7.7v.5c0 .6.2.7.7.7h.5c.6 0 .7-.2.7-.7v-.5c0-.6-.2-.7-.7-.7h-.5zm-7.2-4.5h2.2c.8 0 1 .1 1 .8 0 .5-.1.9-.9.9h-1.5v1.4h1.5c.9 0 1 .3 1 .9 0 .8-.3 1-1.3 1-.7 0-1.2 0-2.2-.1l-.1 1.6c.9.1 1.9.2 2.9.2 2.1 0 2.9-.7 2.9-2.4 0-1.2-.4-1.8-1.5-2 1-.2 1.3-.9 1.3-2 0-1.4-.7-1.9-2.7-1.9-.9 0-1.8.1-2.7.2l.1 1.4zm25.9-10.6h-.8c-.5 0-.7-.1-.7-.7 0-.4.1-.5.7-.5h.8v1.2zm-2.3.7c-.3 0-1 .1-1.1.6l-.5 1.8h2.2l.4-1.5c0-.3.2-.3.5-.3h.8v1.9h2v-5.8c-.7-.1-1.3-.1-2.9-.1-2.1 0-2.6.4-2.6 1.9 0 .6.2 1.3 1.2 1.5zm-6.1.5c0-.3.1-.4.5-.5h1.2v.7c-.4.2-.8.4-1.1.4-.4 0-.6-.2-.6-.5v-.1zm-1.6-2.3c1-.1 1.9-.1 2.5-.1.6 0 .8.2.8.7v.1H540c-1.1 0-1.8.6-1.8 1.5v.6c0 1.1.9 1.6 1.9 1.6 1 0 1.7-.5 2.1-1l.2.8h1.7v-3.7c0-1.7-.9-2.2-2.4-2.2-.8 0-2.3.1-3.2.3l.1 1.4zm-1.5-1.5H535v2h-1.8v-2h-2.1v5.8h2.1v-2.3h1.8v2.3h2.1v-5.8zm-7.1 0h-2.1v2h-1.8v-2H524v5.8h2.1v-2.3h1.8v2.3h2.1v-5.8zm-10.9 3.8c0-.3.1-.4.5-.5h1.2v.7c-.4.2-.8.4-1.1.4-.4 0-.6-.2-.6-.5v-.1zm-1.6-2.3c1-.1 1.9-.1 2.5-.1.6 0 .8.2.8.7v.1h-1.9c-1.1 0-1.8.6-1.8 1.5v.6c0 1.1.9 1.6 1.9 1.6 1 0 1.7-.5 2.1-1l.2.8h1.7v-3.7c0-1.7-.9-2.2-2.4-2.2-.8 0-2.3.1-3.2.3l.1 1.4zm-5.5 2.8v-2h1.1c.8 0 1 .2 1 1.1 0 .8-.2 1-1 1l-1.1-.1zm0-3.4V510h1c.8 0 1 .2 1 .9s-.2.9-.9.9H512zm2.6.7c1-.1 1.4-.7 1.4-1.8 0-1.6-.8-2.1-2.9-2.1-1.5 0-2.3 0-3.3.1v8c1.1.1 2 .1 3.6.1 2 0 2.8-.4 2.8-2.1.1-1.3-.3-2.1-1.6-2.2zM769 405.8c-1.5 0-1.7-.5-1.7-3.4.6-.4 1.1-.5 1.7-.5 1.3 0 1.6.3 1.6 1.8-.1 1.5-.1 2.1-1.6 2.1m4.1-10.8c-1.4-.4-2.7-.4-3.4-.4-3.9 0-5.8.9-5.8 7 0 5.4 1.2 6.8 5.2 6.8 4.1 0 5-1.6 5-4.9 0-2.9-.9-4.1-3.9-4.1-1.2 0-2 .2-2.7.8.1-2.5.6-2.9 2.3-2.9h3.3V395zm-13 9.9c-.9 0-1.2.3-1.2 1.2v.8c0 .9.3 1.2 1.2 1.2h.8c.9 0 1.2-.3 1.2-1.2v-.8c0-.9-.3-1.2-1.2-1.2h-.8zm-2.5-2H756v-5.5h-2.7l-.6 2.1v3.4h-2.6c-.3 0-.5-.2-.3-.6l2.9-7.6h-3.4l-3.3 8.5c-.4 1 .3 2.1 1.4 2.1h5.3v2.8h3.3v-2.8l1.5-.3v-2.1zm-13.6 5.3v-13.3h-3.6l-3.4 1.3.4 2.3 3.1-.7c-.1.5-.1 1.1-.1 1.6v8.8h3.6zm36.4-28.5H779c-.9 0-1.1-.2-1.1-1.2 0-.7.2-.9 1.1-.9h1.4v2.1zm-3.8 1.2c-.6.1-1.6.2-1.8 1l-.8 3h3.6l.6-2.6c.1-.4.3-.6.9-.6h1.3v3.1h3.4v-9.7c-1.2-.1-2.2-.2-4.9-.2-3.5 0-4.4.7-4.4 3.1.1 1.4.5 2.5 2.1 2.9zm-3.9-5.5h-3.4v3.4h-2.9v-3.4h-3.5v9.6h3.5v-3.9h2.9v3.9h3.4v-9.6zm-14.5 9.6h3.5l-2.9-4.9 2.6-4.7H758l-1.9 3.6-1.9-3.6h-3.5l2.6 4.7-2.9 4.9h3.5l2.1-3.9 2.2 3.9zm-7.8-9.6h-3.7l-1.4 5.7c-.1.4-.3 1.1-.4 1.6h-.2c-.1-.6-.2-1.1-.3-1.6l-1.4-5.7h-3.7l3 8.8c.2.5.6.8 1.1.8h.6c-.3.5-.6.9-1 1.1-.6.3-1.5.4-2.7.4l-.3 2.3c1.4.3 2.8.3 4-.2 1.5-.5 2.6-1.5 3.3-3.7l3.1-9.5zm-15.8 2.6c2.6-.3 2.7-1.5 4.2-6.3h-3.7c-1 4-1.3 5.2-3.2 5.2h-.6c.1-.5.2-1.1.2-1.7v-3.5h-3.6V385h3.6v-4.5c0-.4-.1-.8-.2-1.2h.7c1.9 0 2 .9 3.4 5.7h3.8c-1.6-5.5-1.8-6.5-4.6-6.9v-.1zm53.5-20.4c-3.5 0-3.9-1.1-3.9-7.9 1.5-.8 2.4-1.1 3.9-1.1 2.9 0 3.6.8 3.6 4-.1 3.6-.2 5-3.6 5m9.3-24.7c-3.1-.9-6.3-.9-7.9-.9-8.8 0-13.3 2.2-13.3 16.1 0 12.4 2.7 15.5 11.8 15.5 9.3 0 11.4-3.6 11.4-11.2 0-6.7-2-9.5-8.9-9.5-2.7 0-4.6.4-6.2 1.8.2-5.7 1.3-6.7 5.3-6.7h7.5l.3-5.1zm-29.6 22.6c-2.1 0-2.8.7-2.8 2.8v1.9c0 2.1.7 2.8 2.8 2.8h1.9c2.1 0 2.8-.7 2.8-2.8v-1.9c0-2.1-.7-2.8-2.8-2.8h-1.9zm-18.4-5.6c3.4 0 4.1.8 4.1 4 0 3-.7 3.8-4.1 3.8-3.4 0-4.2-.8-4.2-3.8-.1-3.2.6-4 4.2-4m-.1-12.4c3 0 3.8.7 3.8 3.7 0 2.7-.6 3.4-3.7 3.4s-3.9-.6-3.9-3.4c0-3 .7-3.7 3.8-3.7m-6.6 9.8c-4.4.4-5.4 4.1-5.4 8.1 0 5.9 2.5 8.3 12 8.2 9.7-.1 12-2.3 12-8.2 0-4.1-1-7.7-5.4-8.1v-.2c3.3-.4 4.6-3.7 4.6-7 0-5.7-1.9-8.2-11.2-8.2-9.2 0-11.2 2.5-11.2 8.2 0 3.3 1.3 6.6 4.6 7v.2zm-10-8.6.3-6.1h-19.1l-.8 13.7c-.1 1.4.9 2.6 2.4 2.7l4.7.6c4.1.4 5.6.9 5.5 3.8-.2 2.5-1.1 3.4-5.1 3.4-2.2 0-5-.1-7.9-.4l-.8 6.2c3.9.6 7.8.9 10.8.9 8.7 0 11.1-4.5 11.1-9.9 0-4.9-1.8-9.3-8.9-10.1l-5.1-.7.3-4.2h12.6z" class="st2"/><circle cx="755.7" cy="298.2" r="27.1" style="fill:none;stroke:#39373a;stroke-width:.866" transform="rotate(-22.5 755.684 298.192)"/><path d="m763.8 300 5.2 9.5h6.7l-5.5-9.4c-.5-.9-1.4-1.7-2.1-2.1v-.1c.6-.4 1.3-1 1.8-1.9l5.4-8.7h-6.5l-5.1 8.6h-1.5c.2-.9.3-1.9.3-2.8v-5.9h-6v22.2h6V302c0-.6-.1-1.4-.3-2.1h1.6zm-26.5-7.9c3.1-.2 4.7-.2 6.9-.2 1.7 0 2.4.1 2.4 1 0 1.3-1.4 3.2-4 5.8l-5 5.1c-.6.7-.8 1.4-.8 2.4v3.1h16.5v-5.2H747c-1.1 0-2.1 0-3.1.3l5.5-5.4c2.9-3.1 3.5-4.5 3.5-6.9 0-4.3-3.1-5.4-7.8-5.4-2.4 0-4.7.1-7.9.7l.1 4.7z" class="st2"/></svg>