<?xml version="1.0" encoding="utf-8"?>
<!-- Generator: Adobe Illustrator 26.5.0, SVG Export Plug-In . SVG Version: 6.00 Build 0)  -->
<svg version="1.1" id="Слой_1" xmlns="http://www.w3.org/2000/svg" xmlns:xlink="http://www.w3.org/1999/xlink" x="0px" y="0px"
	 viewBox="0 0 1000 1000" style="enable-background:new 0 0 1000 1000;" xml:space="preserve">
<style type="text/css">
	.st0{fill:#FFF6A1;}
	.st1{fill:#373437;}
	.st2{fill:none;stroke:#373437;}
	.st3{fill:#FFFFFF;}
</style>
<rect x="272" y="179.2" class="st0" width="463.5" height="367.9"/>
<rect x="536.1" y="308.6" class="st0" width="199.4" height="598.3"/>
<rect x="699" y="567.4" class="st1" width="25.4" height="62.9"/>
<rect x="699" y="567.4" class="st2" width="25.4" height="62.9"/>
<rect x="295.9" y="395.5" class="st1" width="25.4" height="26.1"/>
<rect x="295.9" y="395.5" class="st2" width="25.4" height="26.1"/>
<rect x="260" y="60.6" class="st1" width="24.7" height="118"/>
<rect x="254.4" y="60.6" class="st1" width="17" height="417.2"/>
<rect x="254.4" y="355.9" class="st2" width="17" height="121.8"/>
<rect x="260" y="164.9" class="st1" width="11.4" height="193.4"/>
<rect x="260" y="164.9" class="st2" width="11.4" height="193.4"/>
<rect x="270.2" y="420.6" class="st1" width="163.2" height="8.4"/>
<rect x="270.2" y="420.6" class="st2" width="163.2" height="8.4"/>
<rect x="424.7" y="426.5" class="st1" width="8.7" height="35.5"/>
<rect x="424.7" y="426.5" class="st2" width="8.7" height="35.5"/>
<rect x="432.2" y="454.1" class="st1" width="20.5" height="7.9"/>
<rect x="432.2" y="454.1" class="st2" width="20.5" height="7.9"/>
<rect x="505.1" y="454.1" class="st1" width="41.2" height="7.9"/>
<rect x="505.1" y="454.1" class="st2" width="41.2" height="7.9"/>
<rect x="596.9" y="454.1" class="st1" width="17" height="7.9"/>
<rect x="596.9" y="454.1" class="st2" width="17" height="7.9"/>
<rect x="518.1" y="389.6" class="st1" width="17" height="65.4"/>
<rect x="518.1" y="389.6" class="st2" width="17" height="65.4"/>
<rect x="518.1" y="149.1" class="st1" width="17" height="107.1"/>
<rect x="518.1" y="149.1" class="st2" width="17" height="107.1"/>
<rect x="518.1" y="175.7" class="st1" width="8.8" height="243.6"/>
<rect x="518.1" y="175.7" class="st2" width="8.8" height="243.6"/>
<rect x="303.4" y="402.7" class="st3" width="11" height="18.2"/>
<rect x="303.4" y="402.7" class="st2" width="11" height="18.2"/>
<rect x="283.6" y="149.2" class="st1" width="47.6" height="12.9"/>
<rect x="283.6" y="149.2" class="st2" width="47.6" height="12.9"/>
<rect x="453.6" y="149.2" class="st1" width="110.1" height="12.9"/>
<rect x="453.6" y="149.2" class="st2" width="110.1" height="12.9"/>
<rect x="663.6" y="149.2" class="st1" width="110.1" height="12.9"/>
<rect x="663.6" y="149.2" class="st2" width="110.1" height="12.9"/>
<rect x="457.8" y="157.9" class="st1" width="100.7" height="20.7"/>
<rect x="457.8" y="157.9" class="st2" width="100.7" height="20.7"/>
<rect x="667.8" y="157.9" class="st1" width="101.7" height="20.7"/>
<rect x="667.8" y="157.9" class="st2" width="101.7" height="20.7"/>
<rect x="736.2" y="149.2" class="st1" width="40.8" height="798.1"/>
<rect x="736.2" y="149.2" class="st2" width="40.8" height="798.1"/>
<rect x="283.6" y="160.8" class="st1" width="43.2" height="17.8"/>
<rect x="283.6" y="160.8" class="st2" width="43.2" height="17.8"/>
<rect x="281.6" y="60.5" class="st1" width="59.9" height="7.7"/>
<rect x="281.6" y="60.5" class="st2" width="59.9" height="7.7"/>
<rect x="332.4" y="60.5" class="st2" width="406.1" height="7.7"/>
<rect x="724.9" y="60.5" class="st1" width="52.1" height="7.7"/>
<rect x="724.9" y="60.5" class="st2" width="52.1" height="7.7"/>
<rect x="769.3" y="60.5" class="st1" width="7.7" height="90.9"/>
<rect x="769.3" y="60.5" class="st2" width="7.7" height="90.9"/>
<path class="st2" d="M258.1,538.9l-30.9-53.7c0,0,4.4-2.8,13.8-5.2c9.4-2.4,16-2.4,16-2.4"/>
<path class="st2" d="M511.1,459l-51.2-29.4c0,0-2.7,4.2-5,13.2c-2.3,9-2.3,15.2-2.3,15.2"/>
<path class="st2" d="M538.6,459l51.2-29.4c0,0,2.7,4.2,5,13.2c2.3,9,2.3,15.2,2.3,15.2"/>
<path class="st2" d="M611.8,470.3l-21,37.3c0,0,3,1.9,9.4,3.6c6.4,1.7,10.9,1.7,10.9,1.7"/>
<path class="st2" d="M611.8,628.7l-21-37.3c0,0,3-1.9,9.4-3.6c6.4-1.7,10.9-1.7,10.9-1.7"/>
<path class="st2" d="M545.7,643l46.5,26.4c0,0,2.4-3.8,4.5-11.8c2.1-8.1,2.1-13.6,2.1-13.6"/>
<rect x="518.5" y="931.9" class="st1" width="45" height="15.8"/>
<rect x="518.5" y="931.9" class="st2" width="45" height="15.8"/>
<rect x="663.2" y="931.9" class="st1" width="113.8" height="15.8"/>
<rect x="663.2" y="931.9" class="st2" width="113.8" height="15.8"/>
<rect x="668.5" y="907.5" class="st1" width="101.7" height="27.3"/>
<rect x="668.5" y="907.5" class="st2" width="101.7" height="27.3"/>
<rect x="520.2" y="907.5" class="st1" width="41.5" height="25.5"/>
<rect x="520.2" y="907.5" class="st2" width="41.5" height="25.5"/>
<rect x="254" y="547.7" class="st1" width="281.5" height="17.3"/>
<rect x="254.8" y="539" class="st1" width="16.6" height="16.2"/>
<rect x="254.8" y="539" class="st2" width="16.6" height="16.2"/>
<rect x="518.1" y="562.8" class="st1" width="17.4" height="384.6"/>
<rect x="518.1" y="562.8" class="st2" width="17.4" height="384.6"/>
<rect x="534.7" y="636.4" class="st1" width="13.1" height="8.6"/>
<rect x="534.7" y="636.4" class="st2" width="13.1" height="8.6"/>
<rect x="598.7" y="636.4" class="st1" width="107.8" height="8.6"/>
<rect x="598.7" y="636.4" class="st2" width="107.8" height="8.6"/>
<rect x="606.8" y="623.5" class="st1" width="9.6" height="18.1"/>
<rect x="606.8" y="623.5" class="st2" width="9.6" height="18.1"/>
<rect x="606.8" y="512.5" class="st1" width="9.6" height="73.9"/>
<rect x="606.8" y="512.5" class="st2" width="9.6" height="73.9"/>
<rect x="606.8" y="429.4" class="st1" width="9.6" height="45.6"/>
<rect x="606.8" y="429.4" class="st2" width="9.6" height="45.6"/>
<rect x="614.5" y="429.4" class="st1" width="73.1" height="8.6"/>
<rect x="614.5" y="429.4" class="st2" width="73.1" height="8.6"/>
<rect x="667.6" y="429.4" class="st1" width="78" height="17.2"/>
<rect x="667.6" y="429.4" class="st2" width="78" height="17.2"/>
<rect x="667.4" y="628" class="st1" width="107.8" height="17"/>
<rect x="667.4" y="628" class="st2" width="107.8" height="17"/>
<rect x="616.2" y="559.7" class="st1" width="122.2" height="8.2"/>
<rect x="616.2" y="559.7" class="st2" width="122.2" height="8.2"/>
<rect x="707.1" y="575.4" class="st3" width="9.8" height="9.8"/>
<rect x="707.1" y="575.4" class="st2" width="9.8" height="9.8"/>
<rect x="707.1" y="592.8" class="st3" width="9.8" height="9.8"/>
<rect x="707.1" y="592.8" class="st2" width="9.8" height="9.8"/>
<rect x="707.1" y="610.2" class="st3" width="9.8" height="9.8"/>
<rect x="707.1" y="610.2" class="st2" width="9.8" height="9.8"/>
<line class="st2" x1="267.8" y1="395.5" x2="298" y2="395.5"/>
<rect x="561" y="931.9" class="st2" width="146.4" height="15.8"/>
<rect x="557.3" y="907.5" class="st2" width="150.1" height="40.1"/>
<rect x="557.3" y="926" class="st2" width="150.1" height="21.7"/>
<rect x="559.8" y="926" class="st3" width="4.6" height="4.7"/>
<rect x="559.8" y="926" class="st2" width="4.6" height="4.7"/>
<rect x="663.2" y="926" class="st3" width="4.6" height="4.7"/>
<rect x="663.2" y="926" class="st2" width="4.6" height="4.7"/>
<path class="st2" d="M561.4,166.9l43.9,25c0,0,2.3-3.6,4.2-11.2c2-7.6,2-12.9,2-12.9"/>
<rect x="611.3" y="149.2" class="st2" width="58.5" height="12.9"/>
<rect x="616" y="162" class="st2" width="53.9" height="16.5"/>
<rect x="616" y="162" class="st2" width="53.9" height="5.6"/>
<rect x="611.3" y="162" class="st2" width="51.3" height="5.6"/>
<rect x="611.3" y="162" class="st2" width="9.5" height="5.6"/>
<rect x="558.6" y="162" class="st3" width="5" height="5.6"/>
<rect x="558.6" y="162" class="st2" width="5" height="5.6"/>
<path class="st2" d="M329,166.9l43.9,25c0,0,2.3-3.6,4.2-11.2c2-7.6,2-12.9,2-12.9"/>
<rect x="378.9" y="149.2" class="st2" width="81.6" height="12.9"/>
<rect x="383.5" y="162" class="st2" width="93.6" height="16.5"/>
<rect x="383.5" y="162" class="st2" width="69.9" height="5.6"/>
<rect x="378.9" y="162" class="st2" width="83.4" height="5.6"/>
<rect x="378.9" y="162" class="st2" width="9.5" height="5.6"/>
<rect x="326.1" y="162" class="st3" width="5" height="5.6"/>
<rect x="326.1" y="162" class="st2" width="5" height="5.6"/>
<path class="st1" d="M273.1,332.4h37.8v37.4h-37.8V332.4z M272.3,370.6h39.5v-39h-39.5V370.6z"/>
<path class="st2" d="M273.1,332.4h37.8v37.4h-37.8V332.4z M272.3,370.6h39.5v-39h-39.5V370.6z"/>
<path class="st1" d="M307.4,364.2c0,0.9-0.8,1.7-1.7,1.7h-19.9c-0.9,0-1.7-0.7-1.7-1.7V338c0-0.9,0.8-1.7,1.7-1.7h19.9
	c0.9,0,1.7,0.7,1.7,1.7V364.2z M283.3,338v26.2c0,1.4,1.1,2.5,2.5,2.5h19.9c1.4,0,2.5-1.1,2.5-2.5V338c0-1.4-1.1-2.5-2.5-2.5h-19.9
	C284.5,335.5,283.3,336.7,283.3,338"/>
<path class="st2" d="M307.4,364.2c0,0.9-0.8,1.7-1.7,1.7h-19.9c-0.9,0-1.7-0.7-1.7-1.7V338c0-0.9,0.8-1.7,1.7-1.7h19.9
	c0.9,0,1.7,0.7,1.7,1.7V364.2z M283.3,338v26.2c0,1.4,1.1,2.5,2.5,2.5h19.9c1.4,0,2.5-1.1,2.5-2.5V338c0-1.4-1.1-2.5-2.5-2.5h-19.9
	C284.5,335.5,283.3,336.7,283.3,338z"/>
<path class="st1" d="M287.1,339.3h17.4V363h-17.4V339.3z M286.3,363.8h19.1v-25.4h-19.1V363.8z"/>
<path class="st2" d="M287.1,339.3h17.4V363h-17.4V339.3z M286.3,363.8h19.1v-25.4h-19.1V363.8z"/>
<path class="st1" d="M299.2,351.1c0,1.2-1,2.2-2.2,2.2s-2.2-1-2.2-2.2c0-1.2,1-2.2,2.2-2.2S299.2,349.9,299.2,351.1 M293.9,351.1
	c0,1.7,1.4,3,3.1,3s3.1-1.4,3.1-3c0-1.7-1.4-3-3.1-3S293.9,349.5,293.9,351.1"/>
<path class="st2" d="M299.2,351.1c0,1.2-1,2.2-2.2,2.2s-2.2-1-2.2-2.2c0-1.2,1-2.2,2.2-2.2S299.2,349.9,299.2,351.1z M293.9,351.1
	c0,1.7,1.4,3,3.1,3s3.1-1.4,3.1-3c0-1.7-1.4-3-3.1-3S293.9,349.5,293.9,351.1z"/>
<rect x="617.2" y="521.4" class="st2" width="38.9" height="37.7"/>
<line class="st2" x1="617.1" y1="521.9" x2="656" y2="558.9"/>
<line class="st2" x1="617.1" y1="559.4" x2="656" y2="522.3"/>
<path class="st1" d="M651.2,599.3c0-6.3,5.2-11.5,11.5-11.5h16.6c1.1,0,2,0.9,2,2v19c0,1.1-0.9,2-2,2h-16.6
	C656.4,610.8,651.2,605.6,651.2,599.3 M682.1,608.8v-19c0-1.5-1.2-2.8-2.8-2.8h-16.6c-6.8,0-12.3,5.5-12.3,12.3
	c0,6.8,5.5,12.3,12.3,12.3h16.6C680.8,611.6,682.1,610.3,682.1,608.8"/>
<path class="st2" d="M651.2,599.3c0-6.3,5.2-11.5,11.5-11.5h16.6c1.1,0,2,0.9,2,2v19c0,1.1-0.9,2-2,2h-16.6
	C656.4,610.8,651.2,605.6,651.2,599.3z M682.1,608.8v-19c0-1.5-1.2-2.8-2.8-2.8h-16.6c-6.8,0-12.3,5.5-12.3,12.3
	c0,6.8,5.5,12.3,12.3,12.3h16.6C680.8,611.6,682.1,610.3,682.1,608.8z"/>
<path class="st2" d="M675.7,591.1v16.5c0,0.1-0.1,0.2-0.2,0.2H663c-4.6,0-8.4-3.8-8.4-8.4c0-4.6,3.8-8.4,8.4-8.4h12.5
	C675.6,590.9,675.7,591,675.7,591.1z"/>
<path class="st1" d="M675.3,591.3v16.1H663c-4.4,0-8-3.6-8-8c0-4.4,3.6-8,8-8H675.3z M676.1,607.5v-16.5c0-0.3-0.3-0.6-0.6-0.6H663
	c-4.9,0-8.8,4-8.8,8.8c0,4.9,4,8.8,8.8,8.8h12.5C675.9,608.1,676.1,607.9,676.1,607.5"/>
<path class="st2" d="M675.3,591.3v16.1H663c-4.4,0-8-3.6-8-8c0-4.4,3.6-8,8-8H675.3z M676.1,607.5v-16.5c0-0.3-0.3-0.6-0.6-0.6H663
	c-4.9,0-8.8,4-8.8,8.8c0,4.9,4,8.8,8.8,8.8h12.5C675.9,608.1,676.1,607.9,676.1,607.5z"/>
<path class="st1" d="M663,599.3c0-1.2,1-2.2,2.2-2.2c1.2,0,2.2,1,2.2,2.2c0,1.2-1,2.2-2.2,2.2C664,601.5,663,600.5,663,599.3
	 M668.1,599.3c0-1.6-1.3-3-3-3c-1.6,0-3,1.3-3,3c0,1.6,1.3,3,3,3C666.8,602.3,668.1,600.9,668.1,599.3"/>
<path class="st2" d="M663,599.3c0-1.2,1-2.2,2.2-2.2c1.2,0,2.2,1,2.2,2.2c0,1.2-1,2.2-2.2,2.2C664,601.5,663,600.5,663,599.3z
	 M668.1,599.3c0-1.6-1.3-3-3-3c-1.6,0-3,1.3-3,3c0,1.6,1.3,3,3,3C666.8,602.3,668.1,600.9,668.1,599.3z"/>
<rect x="668" y="594.2" transform="matrix(0.8019 -0.5975 0.5975 0.8019 -222.2479 518.9142)" class="st1" width="6.6" height="0.8"/>
<rect x="668" y="594.2" transform="matrix(0.8019 -0.5975 0.5975 0.8019 -222.2479 518.9142)" class="st2" width="6.6" height="0.8"/>
<polygon class="st1" points="674.1,605.6 668.9,601.7 668.4,602.3 673.7,606.2 "/>
<polygon class="st2" points="674.1,605.6 668.9,601.7 668.4,602.3 673.7,606.2 "/>
<path class="st1" d="M682.1,591.4c0-1.8,1.4-3.2,3.2-3.2h4.3c1.8,0,3.2,1.4,3.2,3.2v15.8c0,1.8-1.4,3.2-3.2,3.2h-4.3
	c-1.8,0-3.2-1.4-3.2-3.2V591.4z M693.6,607.2v-15.8c0-2.2-1.8-4-4-4h-4.3c-2.2,0-4,1.8-4,4v15.8c0,2.2,1.8,4,4,4h4.3
	C691.8,611.2,693.6,609.4,693.6,607.2"/>
<path class="st2" d="M682.1,591.4c0-1.8,1.4-3.2,3.2-3.2h4.3c1.8,0,3.2,1.4,3.2,3.2v15.8c0,1.8-1.4,3.2-3.2,3.2h-4.3
	c-1.8,0-3.2-1.4-3.2-3.2V591.4z M693.6,607.2v-15.8c0-2.2-1.8-4-4-4h-4.3c-2.2,0-4,1.8-4,4v15.8c0,2.2,1.8,4,4,4h4.3
	C691.8,611.2,693.6,609.4,693.6,607.2z"/>
<path class="st1" d="M686.2,599.3c0-0.7,0.6-1.2,1.2-1.2c0.7,0,1.2,0.6,1.2,1.2s-0.5,1.2-1.2,1.2C686.8,600.5,686.2,600,686.2,599.3
	 M689.5,599.3c0-1.1-0.9-2-2-2c-1.1,0-2,0.9-2,2c0,1.1,0.9,2,2,2C688.6,601.3,689.5,600.4,689.5,599.3"/>
<path class="st2" d="M686.2,599.3c0-0.7,0.6-1.2,1.2-1.2c0.7,0,1.2,0.6,1.2,1.2s-0.5,1.2-1.2,1.2C686.8,600.5,686.2,600,686.2,599.3
	z M689.5,599.3c0-1.1-0.9-2-2-2c-1.1,0-2,0.9-2,2c0,1.1,0.9,2,2,2C688.6,601.3,689.5,600.4,689.5,599.3z"/>
<path class="st2" d="M713.1,539.8c0.9,0,1.6-0.7,1.6-1.6s-0.7-1.6-1.6-1.6c-0.9,0-1.6,0.7-1.6,1.6S712.3,539.8,713.1,539.8z"/>
<path class="st2" d="M704.9,453c-5.8,0-10.4,4.7-10.4,10.4v80.6c0,5.8,4.7,10.4,10.4,10.4h16.6c5.8,0,10.4-4.7,10.4-10.4v-80.6
	c0-5.8-4.7-10.4-10.4-10.4H704.9z"/>
<path class="st2" d="M708.4,460c-5.8,0-10.4,4.7-10.4,10.4V537c0,5.8,4.7,10.4,10.4,10.4h9.6c5.8,0,10.4-4.7,10.4-10.4v-66.6
	c0-5.8-4.7-10.4-10.4-10.4H708.4z"/>
<path class="st2" d="M706.5,468.5c-2.9,0-5.2,2.3-5.2,5.2v64.6c0,2.9,2.3,5.2,5.2,5.2h13.3c2.9,0,5.2-2.3,5.2-5.2v-64.6
	c0-2.9-2.3-5.2-5.2-5.2H706.5z"/>
<polygon class="st2" points="735,558.5 735,558.5 735,449 691.3,449 691.3,558.5 "/>
<path class="st1" d="M670.3,534c-6,0-10.9,4.9-10.9,10.9v11.6c0,0.9,0.7,1.7,1.7,1.7h24.7c0.9,0,1.7-0.7,1.7-1.7v-11.6
	c0-6-4.9-10.9-10.9-10.9H670.3z M685.7,558.8H661c-1.3,0-2.3-1-2.3-2.3v-11.6c0-6.4,5.2-11.6,11.6-11.6h6.2
	c6.4,0,11.6,5.2,11.6,11.6v11.6C688,557.8,687,558.8,685.7,558.8"/>
<path class="st2" d="M670.3,534c-6,0-10.9,4.9-10.9,10.9v11.6c0,0.9,0.7,1.7,1.7,1.7h24.7c0.9,0,1.7-0.7,1.7-1.7v-11.6
	c0-6-4.9-10.9-10.9-10.9H670.3z M685.7,558.8H661c-1.3,0-2.3-1-2.3-2.3v-11.6c0-6.4,5.2-11.6,11.6-11.6h6.2
	c6.4,0,11.6,5.2,11.6,11.6v11.6C688,557.8,687,558.8,685.7,558.8z"/>
<path class="st1" d="M670.3,536.7c-4.5,0-8.2,3.7-8.2,8.2v6.8c0,0.8,0.6,1.4,1.4,1.4h19.7c0.8,0,1.4-0.6,1.4-1.4v-6.8
	c0-4.5-3.7-8.2-8.2-8.2H670.3z M683.2,553.8h-19.7c-1.1,0-2-0.9-2-2v-6.8c0-4.9,4-8.8,8.8-8.8h6.2c4.9,0,8.8,4,8.8,8.8v6.8
	C685.3,552.8,684.3,553.8,683.2,553.8"/>
<path class="st2" d="M670.3,536.7c-4.5,0-8.2,3.7-8.2,8.2v6.8c0,0.8,0.6,1.4,1.4,1.4h19.7c0.8,0,1.4-0.6,1.4-1.4v-6.8
	c0-4.5-3.7-8.2-8.2-8.2H670.3z M683.2,553.8h-19.7c-1.1,0-2-0.9-2-2v-6.8c0-4.9,4-8.8,8.8-8.8h6.2c4.9,0,8.8,4,8.8,8.8v6.8
	C685.3,552.8,684.3,553.8,683.2,553.8z"/>
<path class="st1" d="M673.4,542.5c-0.8,0-1.4,0.6-1.4,1.4c0,0.8,0.6,1.4,1.4,1.4c0.8,0,1.4-0.6,1.4-1.4
	C674.7,543.1,674.1,542.5,673.4,542.5 M673.4,545.8c-1.1,0-2-0.9-2-2c0-1.1,0.9-2,2-2c1.1,0,2,0.9,2,2
	C675.4,545,674.5,545.8,673.4,545.8"/>
<path class="st2" d="M673.4,542.5c-0.8,0-1.4,0.6-1.4,1.4c0,0.8,0.6,1.4,1.4,1.4c0.8,0,1.4-0.6,1.4-1.4
	C674.7,543.1,674.1,542.5,673.4,542.5z M673.4,545.8c-1.1,0-2-0.9-2-2c0-1.1,0.9-2,2-2c1.1,0,2,0.9,2,2
	C675.4,545,674.5,545.8,673.4,545.8z"/>
<path class="st1" d="M550.5,116.3c1.3,0,2.3-0.3,2.8-0.8c0.6-0.5,0.8-1.5,0.8-2.8v-9.4c0-1.3-0.3-2.3-0.8-2.8
	c-0.6-0.6-1.5-0.8-2.8-0.8h-0.8v2.3h0.6c0.4,0,0.7,0.1,0.9,0.3c0.2,0.2,0.3,0.6,0.3,1.2v9.2c0,0.6-0.1,0.9-0.3,1.2
	c-0.2,0.2-0.5,0.3-0.9,0.3h-0.6v2.3H550.5z M548.4,116.3V114h-4.9c0-0.1,0-0.2,0-0.4c0-0.4,0.1-0.7,0.3-1.1c0.2-0.4,0.4-0.8,0.7-1.1
	c0.3-0.4,0.6-0.7,1-1.1c0.4-0.4,0.7-0.8,1.1-1.3c0.4-0.5,0.7-0.9,1-1.4c0.3-0.5,0.6-1.1,0.7-1.7c0.2-0.7,0.3-1.3,0.3-2.1
	c0-1.3-0.3-2.4-1-3.1s-1.6-1.1-2.9-1.1c-1.3,0-2.2,0.4-2.9,1.1c-0.7,0.7-1,1.8-1,3.1v1.6h2.5v-1.8c0-1.1,0.5-1.6,1.4-1.6
	c0.4,0,0.8,0.1,1,0.4c0.2,0.3,0.3,0.8,0.3,1.5c0,0.7-0.1,1.3-0.3,1.8c-0.2,0.6-0.4,1.1-0.7,1.5c-0.3,0.4-0.6,0.9-1,1.3
	c-0.4,0.4-0.7,0.8-1.1,1.2c-0.4,0.4-0.7,0.8-1,1.3c-0.3,0.4-0.6,0.9-0.7,1.5c-0.2,0.6-0.3,1.2-0.3,1.9v2H548.4z M539,113.9h-2.6v2.4
	h2.6V113.9z M531.4,104.7v6.3h-2.6L531.4,104.7z M531.4,113.3v3h2.6v-3h1.2v-2.4H534V99.7h-2.9l-4.7,11.3v2.4H531.4z M522,115.5
	c0.6,0.5,1.5,0.8,2.8,0.8h0.8v-2.3H525c-0.4,0-0.7-0.1-0.9-0.3c-0.2-0.2-0.3-0.6-0.3-1.2v-9.2c0-0.6,0.1-0.9,0.3-1.2
	c0.2-0.2,0.5-0.3,0.9-0.3h0.6v-2.3h-0.8c-1.3,0-2.3,0.3-2.8,0.8c-0.6,0.6-0.8,1.5-0.8,2.8v9.4C521.2,114,521.5,115,522,115.5
	 M508.8,115.4c0.7,0.7,1.7,1.1,3,1.1c1.3,0,2.2-0.4,2.9-1.1c0.7-0.7,1-1.8,1-3.1V111c0-1.8-0.6-3-1.8-3.5c1.2-0.5,1.8-1.6,1.8-3.4
	v-0.4c0-1.3-0.3-2.4-1-3.1c-0.7-0.7-1.6-1.1-2.9-1.1c-1.3,0-2.3,0.4-3,1.1c-0.7,0.7-1.1,1.8-1.1,3.1v0.9h2.6v-1.1
	c0-1.1,0.4-1.6,1.3-1.6c0.4,0,0.8,0.1,1,0.4c0.2,0.3,0.3,0.8,0.3,1.5v0.9c0,0.6-0.1,1.1-0.4,1.4c-0.3,0.3-0.7,0.4-1.2,0.4h-1v2.4
	h0.9c0.6,0,1,0.2,1.3,0.5c0.3,0.3,0.4,0.9,0.4,1.6v1.3c0,0.7-0.1,1.2-0.3,1.5c-0.2,0.3-0.6,0.4-1,0.4c-0.9,0-1.3-0.6-1.3-1.7V111
	h-2.6v1.4C507.8,113.7,508.1,114.7,508.8,115.4 M506.1,113.9h-2.6v2.4h2.6V113.9z M496.4,103.8c0-0.7,0.1-1.2,0.4-1.5
	c0.3-0.3,0.6-0.4,1.1-0.4c0.5,0,0.8,0.1,1.1,0.4c0.3,0.3,0.4,0.8,0.4,1.5v0.9c0,1.2-0.5,1.8-1.5,1.8c-1,0-1.5-0.6-1.5-1.8V103.8z
	 M496.4,110.7c0-1.3,0.5-1.9,1.5-1.9c1,0,1.5,0.6,1.5,1.9v1.5c0,0.7-0.1,1.2-0.4,1.5c-0.3,0.3-0.6,0.4-1.1,0.4
	c-0.5,0-0.8-0.1-1.1-0.4c-0.3-0.3-0.4-0.8-0.4-1.5V110.7z M494.8,115.4c0.7,0.7,1.7,1.1,3,1.1c1.3,0,2.3-0.4,3-1.1
	c0.7-0.7,1.1-1.8,1.1-3.1V111c0-1.7-0.5-2.9-1.6-3.5c1.1-0.6,1.6-1.7,1.6-3.3v-0.5c0-1.3-0.4-2.4-1.1-3.1c-0.7-0.7-1.7-1.1-3-1.1
	c-1.3,0-2.3,0.4-3,1.1c-0.7,0.7-1.1,1.8-1.1,3.1v0.5c0,1.6,0.5,2.8,1.6,3.3c-1.1,0.6-1.6,1.8-1.6,3.5v1.3
	C493.8,113.7,494.1,114.7,494.8,115.4"/>
<path class="st1" d="M412.6,509.4l-3.8,14.3h2.6l3.9-14.4V507h-7.8v2.4H412.6z M405.7,521.3h-2.6v2.4h2.6V521.3z M396.1,510.8
	c0-1.1,0.5-1.6,1.4-1.6c0.9,0,1.4,0.5,1.4,1.6v3c0,1.1-0.5,1.6-1.4,1.6c-0.9,0-1.4-0.5-1.4-1.6V510.8z M394.2,516.9
	c0.5,0.7,1.2,1,2.2,1c1.2,0,2-0.5,2.4-1.5v3c0,0.8-0.1,1.3-0.4,1.6c-0.2,0.3-0.6,0.5-1.1,0.5c-0.9,0-1.4-0.5-1.4-1.7v-0.6h-2.5v0.4
	c0,1.3,0.3,2.4,1,3.1c0.7,0.7,1.6,1.1,2.9,1.1c2.7,0,4-1.4,4-4.3V511c0-1.3-0.3-2.4-1-3.1c-0.7-0.7-1.7-1.1-2.9-1.1
	c-1.3,0-2.3,0.4-2.9,1.1c-0.7,0.7-1,1.8-1,3.1v3.1C393.4,515.3,393.7,516.2,394.2,516.9"/>
<path class="st1" d="M433.2,485.8h1.2c0.4,0,0.8,0.1,1,0.4c0.2,0.2,0.3,0.6,0.3,1.2v2.5c0,0.6-0.1,1-0.3,1.2c-0.2,0.2-0.5,0.4-1,0.4
	h-1.2V485.8z M433.2,500.1v-6.3h1.2c1.3,0,2.3-0.4,2.9-1.1c0.7-0.7,1-1.7,1-3.1v-2.2c0-1.3-0.3-2.4-1-3.1c-0.7-0.7-1.6-1.1-2.9-1.1
	h-3.9v16.7H433.2z M423.5,487.2c0-1.1,0.5-1.6,1.4-1.6c0.9,0,1.4,0.5,1.4,1.6v9c0,1.1-0.5,1.6-1.4,1.6c-0.9,0-1.4-0.5-1.4-1.6V487.2
	z M421.9,499.2c0.7,0.7,1.7,1.1,2.9,1.1c1.3,0,2.3-0.4,2.9-1.1c0.7-0.7,1-1.8,1-3.1v-8.7c0-1.3-0.3-2.4-1-3.1
	c-0.7-0.7-1.7-1.1-2.9-1.1c-1.3,0-2.3,0.4-2.9,1.1c-0.7,0.7-1,1.8-1,3.1v8.7C420.9,497.4,421.3,498.4,421.9,499.2 M413,496.9
	c0.1-0.3,0.2-0.8,0.2-1.4l0.5-9.7h2.2v11.9h-3.4C412.7,497.5,412.9,497.2,413,496.9 M411.5,502.3v-2.2h5.5v2.2h2.6v-4.6h-1.1v-14.3
	h-7.4l-0.5,12.1c0,0.5-0.1,0.9-0.2,1.3c-0.1,0.3-0.3,0.6-0.5,0.9h-1.1v4.6H411.5z M402.1,500.1l2.2-7.6l1.1-4.1v11.7h2.6v-16.7h-3.1
	l-2.1,6.9l-1,3.7v-10.5h-2.3v16.7H402.1z M393,485.8h1.2c0.4,0,0.8,0.1,1,0.4c0.2,0.2,0.3,0.6,0.3,1.2v2.5c0,0.6-0.1,1-0.3,1.2
	c-0.2,0.2-0.5,0.4-1,0.4H393V485.8z M393,500.1v-6.3h1.2c1.3,0,2.3-0.4,2.9-1.1c0.7-0.7,1-1.7,1-3.1v-2.2c0-1.3-0.3-2.4-1-3.1
	c-0.7-0.7-1.6-1.1-2.9-1.1h-3.8v16.7H393z M383.4,487.2c0-1.1,0.5-1.6,1.4-1.6c0.9,0,1.4,0.5,1.4,1.6v9c0,1.1-0.5,1.6-1.4,1.6
	c-0.9,0-1.4-0.5-1.4-1.6V487.2z M381.8,499.2c0.7,0.7,1.7,1.1,2.9,1.1c1.3,0,2.3-0.4,2.9-1.1c0.7-0.7,1-1.8,1-3.1v-8.7
	c0-1.3-0.3-2.4-1-3.1c-0.7-0.7-1.7-1.1-2.9-1.1c-1.3,0-2.3,0.4-2.9,1.1c-0.7,0.7-1,1.8-1,3.1v8.7
	C380.8,497.4,381.1,498.4,381.8,499.2 M373.8,500.1V495l0.8-1.5l2.5,6.6h2.7l-3.6-9.2l3.6-7.4h-2.6l-3.4,7.3v-7.3h-2.6v16.7H373.8z"
	/>
<path class="st1" d="M425.2,376.5c0-0.7,0.1-1.2,0.4-1.5c0.3-0.3,0.6-0.4,1.1-0.4c0.5,0,0.8,0.1,1.1,0.4c0.3,0.3,0.4,0.8,0.4,1.5
	v0.9c0,1.2-0.5,1.8-1.5,1.8c-1,0-1.5-0.6-1.5-1.8V376.5z M425.2,383.4c0-1.3,0.5-1.9,1.5-1.9c1,0,1.5,0.6,1.5,1.9v1.5
	c0,0.7-0.1,1.2-0.4,1.5c-0.3,0.3-0.6,0.4-1.1,0.4c-0.5,0-0.8-0.1-1.1-0.4c-0.3-0.3-0.4-0.8-0.4-1.5V383.4z M423.6,388.1
	c0.7,0.7,1.7,1.1,3,1.1c1.3,0,2.3-0.4,3-1.1c0.7-0.7,1.1-1.8,1.1-3.1v-1.3c0-1.7-0.5-2.9-1.6-3.5c1.1-0.6,1.6-1.7,1.6-3.3v-0.5
	c0-1.3-0.4-2.4-1.1-3.1c-0.7-0.7-1.7-1.1-3-1.1c-1.3,0-2.3,0.4-3,1.1c-0.7,0.7-1.1,1.8-1.1,3.1v0.5c0,1.6,0.5,2.8,1.6,3.3
	c-1.1,0.6-1.6,1.8-1.6,3.5v1.3C422.6,386.4,422.9,387.4,423.6,388.1 M421.1,386.6h-2.6v2.4h2.6V386.6z M413.5,377.4v6.3h-2.6
	L413.5,377.4z M413.5,386v3h2.6v-3h1.2v-2.4h-1.2v-11.3h-2.9l-4.7,11.3v2.4H413.5z M403.3,376.3V389h2.6v-16.7h-1.8
	c-0.1,0.3-0.2,0.5-0.3,0.7c-0.1,0.2-0.2,0.4-0.3,0.6c-0.2,0.2-0.3,0.4-0.5,0.5c-0.2,0.1-0.4,0.2-0.7,0.3c-0.3,0.1-0.6,0.1-1,0.1v1.8
	H403.3z"/>
<path class="st1" d="M433.6,347.9c0-0.6,0.1-1,0.3-1.3c0.2-0.3,0.6-0.4,1-0.4h1.3v5.1h-1c-0.5,0-0.9-0.1-1.2-0.4
	c-0.3-0.3-0.4-0.7-0.4-1.4V347.9z M433.4,360.5c0.1-0.2,0.1-0.3,0.1-0.4c0-0.1,0-0.3,0.1-0.6c0-0.3,0-0.6,0-1.1v-2.6
	c0-0.8,0.1-1.3,0.4-1.6c0.3-0.3,0.7-0.5,1.3-0.5h0.9v6.8h2.6v-16.7h-3.9c-1.3,0-2.3,0.3-2.9,0.9c-0.6,0.6-0.9,1.6-0.9,2.9v1.3
	c0,1.7,0.6,2.8,1.7,3.4c-0.6,0.3-1.1,0.7-1.3,1.3c-0.3,0.6-0.4,1.3-0.4,2.3v2.6c0,0.9-0.1,1.6-0.2,2H433.4z M423.6,360.5v-7.1h3v7.1
	h2.6v-16.7h-2.6v7.1h-3v-7.1H421v16.7H423.6z M412.8,360.5l2-6.2l2,6.2h2.6l-2.9-8.5l2.7-8.2H417l-2,6.2l-2-6.2h-2.6l2.7,8.1
	l-2.9,8.6H412.8z M404,356.7l0,0.1c-0.1,0.6-0.3,1-0.7,1.1c-0.4,0.2-0.9,0.3-1.6,0.2v2.4c0.7,0,1.3,0,1.8-0.1c0.5-0.1,1-0.3,1.3-0.5
	c0.4-0.2,0.7-0.5,0.9-0.9c0.3-0.4,0.5-0.8,0.6-1.2c0.2-0.4,0.3-1,0.4-1.6l2.8-12.4H407l-1.2,5.7l-0.6,3.9l-0.8-3.9l-1.4-5.7h-2.6
	L404,356.7z M393.9,360.5v-5.1l0.8-1.5l2.5,6.6h2.7l-3.6-9.2l3.6-7.4h-2.6l-3.4,7.3v-7.3h-2.6v16.7H393.9z"/>
<path class="st1" d="M648,785.7l-3.8,14.3h2.6l3.9-14.4v-2.3h-7.8v2.4H648z M641.2,797.5h-2.6v2.4h2.6V797.5z M636.7,799.9v-2.4
	h-4.9c0-0.1,0-0.2,0-0.4c0-0.4,0.1-0.7,0.3-1.1c0.2-0.4,0.4-0.8,0.7-1.1c0.3-0.4,0.6-0.7,1-1.1c0.4-0.4,0.7-0.8,1.1-1.3
	c0.4-0.5,0.7-0.9,1-1.4c0.3-0.5,0.6-1.1,0.7-1.7c0.2-0.7,0.3-1.3,0.3-2c0-1.3-0.3-2.4-1-3.1c-0.7-0.7-1.6-1.1-2.9-1.1
	c-1.3,0-2.2,0.4-2.9,1.1c-0.7,0.7-1,1.8-1,3.1v1.6h2.5v-1.8c0-1.1,0.5-1.6,1.4-1.6c0.4,0,0.8,0.1,1,0.4c0.2,0.3,0.3,0.8,0.3,1.5
	c0,0.7-0.1,1.3-0.3,1.8c-0.2,0.6-0.4,1.1-0.7,1.5c-0.3,0.4-0.6,0.9-1,1.3c-0.4,0.4-0.7,0.8-1.1,1.2c-0.4,0.4-0.7,0.8-1,1.3
	c-0.3,0.4-0.6,0.9-0.7,1.5c-0.2,0.6-0.3,1.2-0.3,1.9v2H636.7z M623.4,787.2v12.7h2.6v-16.7h-1.8c-0.1,0.3-0.2,0.5-0.3,0.7
	c-0.1,0.2-0.2,0.4-0.3,0.6c-0.2,0.2-0.3,0.4-0.5,0.5c-0.2,0.1-0.4,0.2-0.7,0.3c-0.3,0.1-0.6,0.1-1,0.1v1.8H623.4z"/>
<path class="st1" d="M694.5,757.7l1.3,8.4h-2.5L694.5,757.7z M692.4,771.4l0.5-3h3.2l0.5,3h2.6l-2.6-16.7h-4l-2.6,16.7H692.4z
	 M684,757.1v14.3h2.6v-14.3h2.7v-2.4h-8.1v2.4H684z M676.3,757.7l1.3,8.4h-2.5L676.3,757.7z M674.3,771.4l0.5-3h3.2l0.5,3h2.6
	l-2.6-16.7h-4l-2.6,16.7H674.3z M664.8,771.4v-7.1h3v7.1h2.6v-16.7h-2.6v7.1h-3v-7.1h-2.6v16.7H664.8z M651.6,771.4v-11.7l2,11.7
	h2.5l1.8-11.9v11.9h2.6v-16.7h-3.8l-1.8,11.9l-1.9-11.9h-3.6v16.7H651.6z M642.3,758.6c0-1.1,0.5-1.6,1.4-1.6c0.9,0,1.4,0.5,1.4,1.6
	v9c0,1.1-0.5,1.6-1.4,1.6c-0.9,0-1.4-0.5-1.4-1.6V758.6z M640.7,770.5c0.7,0.7,1.7,1.1,2.9,1.1c1.3,0,2.3-0.4,2.9-1.1
	c0.7-0.7,1-1.8,1-3.1v-8.7c0-1.3-0.3-2.4-1-3.1s-1.7-1.1-2.9-1.1c-1.3,0-2.3,0.4-2.9,1.1c-0.7,0.7-1,1.8-1,3.1v8.7
	C639.7,768.7,640.1,769.8,640.7,770.5 M632.7,771.4v-5.1l0.8-1.5l2.5,6.6h2.7l-3.6-9.2l3.6-7.4h-2.6l-3.4,7.3v-7.3h-2.6v16.7H632.7z
	 M619.3,758.8c0-0.6,0.1-1,0.3-1.3c0.2-0.3,0.6-0.4,1-0.4h1.3v5.1h-1c-0.5,0-0.9-0.1-1.2-0.4c-0.3-0.3-0.4-0.7-0.4-1.4V758.8z
	 M619,771.4c0.1-0.2,0.1-0.3,0.1-0.4c0-0.1,0-0.3,0.1-0.6s0-0.6,0-1.1v-2.6c0-0.8,0.1-1.3,0.4-1.6c0.3-0.3,0.7-0.5,1.3-0.5h0.9v6.8
	h2.6v-16.7h-3.9c-1.3,0-2.3,0.3-2.9,0.9c-0.6,0.6-0.9,1.6-0.9,2.9v1.3c0,1.7,0.6,2.8,1.7,3.4c-0.6,0.3-1.1,0.7-1.3,1.3
	c-0.3,0.6-0.4,1.3-0.4,2.3v2.6c0,0.9-0.1,1.6-0.2,2H619z M611.2,757.7l1.3,8.4h-2.5L611.2,757.7z M609.1,771.4l0.5-3h3.2l0.5,3h2.6
	l-2.6-16.7h-4l-2.6,16.7H609.1z M596.2,771.4c1.3,0,2.3-0.3,2.9-1c0.6-0.7,0.9-1.7,1-3.3l0.3-10.1h2.3v14.3h2.6v-16.7h-7.5
	l-0.3,12.6c0,0.4,0,0.7-0.1,0.9c-0.1,0.2-0.1,0.4-0.3,0.5c-0.1,0.1-0.3,0.2-0.5,0.2c-0.2,0-0.4,0-0.7,0v2.4H596.2z M589,771.4
	l2.2-7.6l1.1-4.1v11.7h2.6v-16.7h-3.1l-2.1,6.9l-0.9,3.7v-10.5h-2.3v16.7H589z M573.8,771.4l2.4-7.4l0.6,1.3v6.1h2.6v-6.1l0.7-1.3
	l2.4,7.4h2.6l-3.2-9.9l3.2-6.8h-2.5l-3.1,6.7v-6.7h-2.6v6.7l-3.1-6.7h-2.5l3.2,6.8l-3.2,9.8H573.8z"/>
<path class="st1" d="M641.8,323.9c0-0.7,0.1-1.2,0.4-1.5c0.3-0.3,0.6-0.4,1.1-0.4c0.5,0,0.8,0.1,1.1,0.4c0.3,0.3,0.4,0.8,0.4,1.5
	v0.9c0,1.2-0.5,1.8-1.5,1.8c-1,0-1.5-0.6-1.5-1.8V323.9z M641.8,330.9c0-1.3,0.5-1.9,1.5-1.9c1,0,1.5,0.6,1.5,1.9v1.5
	c0,0.7-0.1,1.2-0.4,1.5c-0.3,0.3-0.6,0.4-1.1,0.4c-0.5,0-0.8-0.1-1.1-0.4c-0.3-0.3-0.4-0.8-0.4-1.5V330.9z M640.2,335.6
	c0.7,0.7,1.7,1.1,3,1.1c1.3,0,2.3-0.4,3-1.1c0.7-0.7,1.1-1.8,1.1-3.1v-1.3c0-1.7-0.5-2.9-1.6-3.5c1.1-0.6,1.6-1.7,1.6-3.3v-0.5
	c0-1.3-0.4-2.4-1.1-3.1c-0.7-0.7-1.7-1.1-3-1.1c-1.3,0-2.3,0.4-3,1.1c-0.7,0.7-1.1,1.8-1.1,3.1v0.5c0,1.6,0.5,2.8,1.6,3.3
	c-1.1,0.6-1.6,1.8-1.6,3.5v1.3C639.1,333.8,639.5,334.9,640.2,335.6 M637.7,334.1h-2.6v2.4h2.6V334.1z M633.2,336.5v-2.4h-4.9
	c0-0.1,0-0.2,0-0.4c0-0.4,0.1-0.7,0.3-1.1c0.2-0.4,0.4-0.8,0.7-1.1c0.3-0.4,0.6-0.7,1-1.1c0.4-0.4,0.7-0.8,1.1-1.3
	c0.4-0.5,0.7-0.9,1-1.4c0.3-0.5,0.6-1.1,0.7-1.7c0.2-0.7,0.3-1.3,0.3-2c0-1.3-0.3-2.4-1-3.1c-0.7-0.7-1.6-1.1-2.9-1.1
	c-1.3,0-2.2,0.4-2.9,1.1c-0.7,0.7-1,1.8-1,3.1v1.6h2.5v-1.8c0-1.1,0.5-1.6,1.4-1.6c0.4,0,0.8,0.1,1,0.4c0.2,0.3,0.3,0.8,0.3,1.5
	c0,0.7-0.1,1.3-0.3,1.8c-0.2,0.6-0.4,1.1-0.7,1.5c-0.3,0.4-0.6,0.9-1,1.3c-0.4,0.4-0.7,0.8-1.1,1.2c-0.4,0.4-0.7,0.8-1,1.3
	c-0.3,0.4-0.6,0.9-0.7,1.5c-0.2,0.6-0.3,1.2-0.3,1.9v2H633.2z M619.9,323.8v12.7h2.6v-16.7h-1.8c-0.1,0.3-0.2,0.5-0.3,0.7
	c-0.1,0.2-0.2,0.4-0.3,0.6c-0.2,0.2-0.3,0.4-0.5,0.5c-0.2,0.1-0.4,0.2-0.7,0.3c-0.3,0.1-0.6,0.1-1,0.1v1.8H619.9z"/>
<path class="st1" d="M691,294.3l1.3,8.4h-2.5L691,294.3z M688.9,308l0.5-3h3.2l0.5,3h2.6l-2.6-16.7h-4l-2.6,16.7H688.9z
	 M680.5,293.7V308h2.6v-14.3h2.7v-2.4h-8.1v2.4H680.5z M672.8,294.3l1.3,8.4h-2.5L672.8,294.3z M670.8,308l0.5-3h3.2l0.5,3h2.6
	l-2.6-16.7h-4l-2.6,16.7H670.8z M661.3,308v-7.1h3v7.1h2.6v-16.7h-2.6v7.1h-3v-7.1h-2.6V308H661.3z M648.1,308v-11.7l2,11.7h2.5
	l1.8-11.9V308h2.6v-16.7h-3.8l-1.8,11.9l-1.9-11.9h-3.6V308H648.1z M638.8,295.1c0-1.1,0.5-1.6,1.4-1.6c0.9,0,1.4,0.5,1.4,1.6v9
	c0,1.1-0.5,1.6-1.4,1.6c-0.9,0-1.4-0.5-1.4-1.6V295.1z M637.2,307.1c0.7,0.7,1.7,1.1,2.9,1.1c1.3,0,2.3-0.4,2.9-1.1
	c0.7-0.7,1-1.8,1-3.1v-8.7c0-1.3-0.3-2.4-1-3.1c-0.7-0.7-1.7-1.1-2.9-1.1c-1.3,0-2.3,0.4-2.9,1.1c-0.7,0.7-1,1.8-1,3.1v8.7
	C636.2,305.3,636.5,306.3,637.2,307.1 M629.2,308v-5.1l0.8-1.5l2.5,6.6h2.7l-3.6-9.2l3.6-7.4h-2.6l-3.4,7.3v-7.3h-2.6V308H629.2z
	 M615.8,295.4c0-0.6,0.1-1,0.3-1.3c0.2-0.3,0.6-0.4,1-0.4h1.3v5.1h-1c-0.5,0-0.9-0.1-1.2-0.4c-0.3-0.3-0.4-0.7-0.4-1.4V295.4z
	 M615.5,308c0.1-0.2,0.1-0.3,0.1-0.4c0-0.1,0-0.3,0.1-0.6c0-0.3,0-0.6,0-1.1v-2.6c0-0.8,0.1-1.3,0.4-1.6c0.3-0.3,0.7-0.5,1.3-0.5
	h0.9v6.8h2.6v-16.7h-3.9c-1.3,0-2.3,0.3-2.9,0.9c-0.6,0.6-0.9,1.6-0.9,2.9v1.3c0,1.7,0.6,2.8,1.7,3.4c-0.6,0.3-1.1,0.7-1.3,1.3
	c-0.3,0.6-0.4,1.3-0.4,2.3v2.6c0,0.9-0.1,1.6-0.2,2H615.5z M607.6,294.3l1.3,8.4h-2.5L607.6,294.3z M605.6,308l0.5-3h3.2l0.5,3h2.6
	l-2.6-16.7h-4L603,308H605.6z M592.7,308c1.3,0,2.3-0.3,2.9-1c0.6-0.7,0.9-1.7,1-3.3l0.3-10.1h2.3V308h2.6v-16.7h-7.5l-0.3,12.6
	c0,0.4,0,0.7-0.1,0.9c-0.1,0.2-0.1,0.4-0.3,0.5c-0.1,0.1-0.3,0.2-0.5,0.2c-0.2,0-0.4,0-0.7,0v2.4H592.7z M585.5,308l2.2-7.6l1.1-4.1
	V308h2.6v-16.7h-3.1l-2.1,6.9l-0.9,3.7v-10.5h-2.3V308H585.5z M570.3,308l2.4-7.4l0.6,1.3v6.1h2.6v-6.1l0.7-1.3l2.4,7.4h2.6
	l-3.2-9.9l3.2-6.8h-2.5L576,298v-6.7h-2.6v6.7l-3.1-6.7h-2.5l3.2,6.8l-3.2,9.8H570.3z"/>
<path class="st1" d="M438.2,301.3c0-1.6,0.3-2.7,0.9-3.4c0.6-0.7,1.4-1,2.5-1c1.1,0,1.9,0.3,2.5,1c0.6,0.6,0.9,1.8,0.9,3.4v2.1
	c0,2.7-1.1,4-3.4,4c-2.3,0-3.4-1.3-3.4-4V301.3z M438.2,317.2c0-2.9,1.1-4.3,3.4-4.3c2.2,0,3.4,1.4,3.4,4.3v3.5
	c0,1.6-0.3,2.7-0.9,3.3c-0.6,0.6-1.4,1-2.5,1c-1.1,0-1.9-0.3-2.5-1c-0.6-0.6-0.9-1.8-0.9-3.3V317.2z M434.7,327.9
	c1.6,1.7,3.9,2.5,6.9,2.5c3,0,5.3-0.8,6.9-2.5c1.6-1.7,2.4-4,2.4-7.1v-3c0-3.9-1.2-6.5-3.7-7.9c2.5-1.4,3.7-3.9,3.7-7.6v-1.2
	c0-3-0.8-5.4-2.4-7.1c-1.6-1.7-3.9-2.5-6.9-2.5c-3,0-5.3,0.8-6.9,2.5c-1.6,1.7-2.4,4-2.4,7.1v1.2c0,3.8,1.2,6.3,3.7,7.6
	c-2.5,1.4-3.7,4-3.7,7.9v3C432.3,323.9,433.1,326.3,434.7,327.9 M428.9,324.5h-6v5.5h6V324.5z M406.6,301.3c0-1.6,0.3-2.7,0.9-3.4
	c0.6-0.7,1.4-1,2.5-1c1.1,0,1.9,0.3,2.5,1c0.6,0.6,0.9,1.8,0.9,3.4v2.1c0,2.7-1.1,4-3.4,4c-2.3,0-3.4-1.3-3.4-4V301.3z M406.6,317.2
	c0-2.9,1.1-4.3,3.4-4.3c2.2,0,3.4,1.4,3.4,4.3v3.5c0,1.6-0.3,2.7-0.9,3.3c-0.6,0.6-1.4,1-2.5,1c-1.1,0-1.9-0.3-2.5-1
	c-0.6-0.6-0.9-1.8-0.9-3.3V317.2z M403.1,327.9c1.6,1.7,3.9,2.5,6.9,2.5c3,0,5.3-0.8,6.9-2.5c1.6-1.7,2.4-4,2.4-7.1v-3
	c0-3.9-1.2-6.5-3.7-7.9c2.5-1.4,3.7-3.9,3.7-7.6v-1.2c0-3-0.8-5.4-2.4-7.1c-1.6-1.7-3.9-2.5-6.9-2.5c-3,0-5.3,0.8-6.9,2.5
	c-1.6,1.7-2.4,4-2.4,7.1v1.2c0,3.8,1.2,6.3,3.7,7.6c-2.5,1.4-3.7,4-3.7,7.9v3C400.6,323.9,401.5,326.3,403.1,327.9 M382,328
	c1.6,1.7,3.9,2.5,6.8,2.5s5.1-0.8,6.6-2.5c1.5-1.7,2.3-4,2.3-7.1v-8.5c0-2.8-0.6-5-1.7-6.5c-1.1-1.5-2.8-2.2-5-2.2
	c-2.4,0-4.1,0.9-5.2,2.8l0.5-9.1h10.4v-5.4h-16l-1.2,22.1h6v-1.1c0-2.5,1-3.7,3.1-3.7c2.1,0,3.1,1.2,3.1,3.7v8.4
	c0,2.5-1,3.7-3.1,3.7c-2,0-3.1-1.2-3.1-3.7v-3.5h-6v3.2C379.6,323.9,380.4,326.3,382,328"/>
<ellipse transform="matrix(0.3827 -0.9239 0.9239 0.3827 27.5492 536.2466)" class="st2" cx="415" cy="247.5" rx="33.3" ry="33.3"/>
<path class="st1" d="M421.4,262.9v-8.8l1.4-2.6l4.4,11.5h4.6l-6.3-16l6.3-12.8h-4.5l-5.9,12.6v-12.6h-4.5v28.8H421.4z M413.7,262.9
	v-4.1h-8.5c0-0.1,0-0.3,0-0.6c0-0.6,0.2-1.3,0.5-1.9c0.3-0.7,0.8-1.3,1.3-2c0.5-0.6,1.1-1.3,1.8-2c0.6-0.7,1.3-1.4,1.9-2.2
	c0.6-0.8,1.2-1.6,1.7-2.5c0.5-0.9,1-1.9,1.3-3c0.3-1.1,0.5-2.3,0.5-3.5c0-2.3-0.6-4.1-1.7-5.4c-1.1-1.3-2.8-1.9-5-1.9
	c-2.2,0-3.9,0.6-5,1.9c-1.2,1.3-1.7,3-1.7,5.4v2.8h4.3v-3.1c0-1.9,0.8-2.8,2.3-2.8c0.8,0,1.4,0.2,1.7,0.7c0.4,0.5,0.6,1.3,0.6,2.6
	c0,1.1-0.2,2.2-0.5,3.2c-0.3,1-0.8,1.9-1.3,2.6c-0.5,0.8-1.1,1.5-1.7,2.2c-0.6,0.7-1.3,1.4-1.9,2.1c-0.6,0.7-1.2,1.5-1.8,2.2
	c-0.5,0.8-1,1.6-1.3,2.7s-0.5,2.1-0.5,3.2v3.5H413.7z"/>
<path class="st1" d="M635.6,623.1c0.6,0.6,1.4,0.9,2.4,0.9c1,0,1.8-0.3,2.3-0.9c0.5-0.6,0.8-1.4,0.8-2.5v-1.1c0-1.4-0.5-2.4-1.5-2.8
	c1-0.4,1.5-1.3,1.5-2.7v-0.3c0-1.1-0.3-1.9-0.8-2.5c-0.5-0.6-1.3-0.9-2.3-0.9c-1,0-1.8,0.3-2.4,0.9c-0.6,0.6-0.8,1.4-0.8,2.5v0.7
	h2.1v-0.9c0-0.9,0.4-1.3,1.1-1.3c0.4,0,0.6,0.1,0.8,0.3c0.2,0.2,0.3,0.6,0.3,1.2v0.7c0,0.5-0.1,0.9-0.3,1.1
	c-0.2,0.2-0.5,0.3-0.9,0.3H637v1.9h0.7c0.5,0,0.8,0.1,1,0.4c0.2,0.3,0.3,0.7,0.3,1.3v1c0,0.6-0.1,0.9-0.3,1.2
	c-0.2,0.2-0.5,0.3-0.8,0.3c-0.7,0-1.1-0.4-1.1-1.3v-1.2h-2.1v1.1C634.8,621.7,635.1,622.5,635.6,623.1 M633.5,621.9h-2.1v1.9h2.1
	V621.9z M626.7,613.6v10.2h2.1v-13.3h-1.4c-0.1,0.2-0.2,0.4-0.2,0.5c-0.1,0.1-0.2,0.3-0.3,0.4c-0.1,0.2-0.3,0.3-0.4,0.4
	c-0.1,0.1-0.3,0.2-0.6,0.2c-0.2,0.1-0.5,0.1-0.8,0.1v1.5H626.7z"/>
<path class="st1" d="M638.8,601.8l0,0.1c-0.1,0.5-0.3,0.8-0.6,0.9c-0.3,0.1-0.7,0.2-1.3,0.2v1.9c0.6,0,1.1,0,1.5-0.1
	c0.4-0.1,0.8-0.2,1.1-0.4c0.3-0.2,0.5-0.4,0.7-0.7c0.2-0.3,0.4-0.6,0.5-1c0.1-0.4,0.2-0.8,0.3-1.3l2.2-9.9h-2.1l-1,4.6l-0.5,3.1
	l-0.6-3.1l-1.1-4.5h-2.1L638.8,601.8z M630.4,604.9l5.2-13.3h-1.8l-5.2,13.3H630.4z M622.6,604.2c0.5,0.6,1.3,0.9,2.3,0.9
	c1,0,1.8-0.3,2.4-0.9c0.6-0.6,0.8-1.4,0.8-2.5v-1.8H626v1.9c0,0.9-0.4,1.3-1.1,1.3c-0.7,0-1.1-0.4-1.1-1.3v-7.2
	c0-0.9,0.4-1.3,1.1-1.3c0.7,0,1.1,0.4,1.1,1.3v1.4h2.1v-1.3c0-1.1-0.3-1.9-0.8-2.5c-0.6-0.6-1.4-0.9-2.4-0.9c-1,0-1.8,0.3-2.3,0.9
	c-0.5,0.6-0.8,1.4-0.8,2.5v6.9C621.8,602.8,622,603.6,622.6,604.2"/>
<path class="st1" d="M657.6,504.2c0.6,0.6,1.4,0.9,2.4,0.9c1,0,1.8-0.3,2.3-0.9c0.5-0.6,0.8-1.4,0.8-2.5v-1c0-1.4-0.5-2.4-1.5-2.8
	c1-0.4,1.5-1.3,1.5-2.7v-0.3c0-1.1-0.3-1.9-0.8-2.5c-0.5-0.6-1.3-0.9-2.3-0.9c-1,0-1.8,0.3-2.4,0.9c-0.6,0.6-0.8,1.4-0.8,2.5v0.7
	h2.1v-0.9c0-0.9,0.4-1.3,1.1-1.3c0.4,0,0.6,0.1,0.8,0.3c0.2,0.2,0.3,0.6,0.3,1.2v0.7c0,0.5-0.1,0.9-0.3,1.1
	c-0.2,0.2-0.5,0.3-0.9,0.3H659v1.9h0.7c0.5,0,0.8,0.1,1,0.4c0.2,0.3,0.3,0.7,0.3,1.3v1.1c0,0.6-0.1,0.9-0.3,1.2
	c-0.2,0.2-0.5,0.3-0.8,0.3c-0.7,0-1.1-0.4-1.1-1.3v-1.2h-2.1v1.1C656.8,502.8,657.1,503.6,657.6,504.2 M655.5,503h-2.1v1.9h2.1V503z
	 M646.6,504.2c0.6,0.6,1.4,0.9,2.4,0.9c1,0,1.8-0.3,2.3-0.9c0.5-0.6,0.8-1.4,0.8-2.5v-1c0-1.4-0.5-2.4-1.5-2.8
	c1-0.4,1.5-1.3,1.5-2.7v-0.3c0-1.1-0.3-1.9-0.8-2.5c-0.5-0.6-1.3-0.9-2.3-0.9c-1,0-1.8,0.3-2.4,0.9c-0.6,0.6-0.8,1.4-0.8,2.5v0.7
	h2.1v-0.9c0-0.9,0.4-1.3,1.1-1.3c0.4,0,0.6,0.1,0.8,0.3c0.2,0.2,0.3,0.6,0.3,1.2v0.7c0,0.5-0.1,0.9-0.3,1.1
	c-0.2,0.2-0.5,0.3-0.9,0.3h-0.8v1.9h0.7c0.5,0,0.8,0.1,1,0.4c0.2,0.3,0.3,0.7,0.3,1.3v1.1c0,0.6-0.1,0.9-0.3,1.2
	c-0.2,0.2-0.5,0.3-0.8,0.3c-0.7,0-1.1-0.4-1.1-1.3v-1.2h-2.1v1.1C645.7,502.8,646,503.6,646.6,504.2"/>
<path class="st1" d="M673,476c0-0.5,0.1-0.8,0.3-1c0.2-0.2,0.4-0.3,0.8-0.3h1v4.1h-0.8c-0.4,0-0.7-0.1-0.9-0.3
	c-0.2-0.2-0.3-0.6-0.3-1.1V476z M672.8,486c0-0.2,0.1-0.3,0.1-0.3c0-0.1,0-0.2,0.1-0.4c0-0.2,0-0.5,0-0.8v-2.1c0-0.6,0.1-1,0.3-1.3
	c0.2-0.3,0.6-0.4,1-0.4h0.7v5.4h2.1v-13.3H674c-1.1,0-1.9,0.3-2.4,0.8c-0.5,0.5-0.7,1.3-0.7,2.3v1c0,1.4,0.5,2.3,1.4,2.7
	c-0.5,0.2-0.9,0.6-1.1,1c-0.2,0.5-0.3,1.1-0.3,1.8v2.1c0,0.7-0.1,1.3-0.2,1.6H672.8z M666.5,475.1l1,6.7h-2L666.5,475.1z M664.8,486
	l0.4-2.4h2.6l0.4,2.4h2.1l-2.1-13.3h-3.2l-2.1,13.3H664.8z M657.3,486v-5.7h2.4v5.7h2.1v-13.3h-2.1v5.7h-2.4v-5.7h-2.1V486H657.3z
	 M649.1,486v-5.7h2.4v5.7h2.1v-13.3h-2.1v5.7h-2.4v-5.7H647V486H649.1z M642.5,475.1l1,6.7h-2L642.5,475.1z M640.9,486l0.4-2.4h2.6
	l0.4,2.4h2.1l-2.1-13.3h-3.2l-2.1,13.3H640.9z M633.7,474.6h1c0.4,0,0.6,0.1,0.8,0.3c0.2,0.2,0.3,0.6,0.3,1v0.7
	c0,0.5-0.1,0.9-0.3,1.1c-0.2,0.2-0.5,0.3-0.9,0.3h-0.8V474.6z M633.7,480h0.9c0.5,0,0.8,0.1,1,0.4c0.2,0.2,0.3,0.7,0.3,1.3v1.2
	c0,0.5-0.1,0.8-0.3,1c-0.2,0.2-0.5,0.3-0.8,0.3h-1.2V480z M634.9,486c1,0,1.8-0.3,2.4-0.8c0.5-0.5,0.8-1.3,0.8-2.4v-1.1
	c0-1.5-0.5-2.4-1.6-2.9c0.9-0.4,1.4-1.3,1.4-2.7v-0.5c0-1-0.2-1.8-0.7-2.3c-0.5-0.5-1.3-0.8-2.4-0.8h-3.2V486H634.9z"/>
</svg>
