<?xml version="1.0" encoding="UTF-8"?>
<svg id="_Слой_1" data-name="Слой_1" xmlns="http://www.w3.org/2000/svg" version="1.1" viewBox="0 0 1000 1000">
  <!-- Generator: Adobe Illustrator 29.4.0, SVG Export Plug-In . SVG Version: 2.1.0 Build 152)  -->
  <defs>
    <style>
      .st0 {
        fill: none;
        stroke: #3c3c3b;
        stroke-width: .75px;
      }

      .st1 {
        fill: #3c3c3b;
      }

      .st2 {
        fill: #b1dcde;
      }
    </style>
  </defs>
  <rect class="st2" x="207.8" y="193.8" width="617.6" height="480.46"/>
  <rect class="st1" x="190.12" y="183.04" width="183.16" height="14.09"/>
  <rect class="st0" x="190.12" y="183.04" width="183.16" height="14.09"/>
  <rect class="st1" x="360.91" y="173.64" width="21.16" height="23.5"/>
  <rect class="st0" x="360.91" y="173.64" width="21.16" height="23.5"/>
  <rect class="st1" x="465" y="173.64" width="369.52" height="23.5"/>
  <rect class="st0" x="465" y="173.64" width="368.29" height="23.5"/>
  <rect class="st1" x="190.12" y="173.64" width="91.57" height="23.5"/>
  <rect class="st1" x="196.28" y="675.64" width="92.47" height="34.38"/>
  <rect class="st0" x="196.28" y="675.64" width="92.47" height="34.38"/>
  <rect class="st1" x="506.22" y="323.15" width="14.84" height="357.18"/>
  <rect class="st0" x="506.22" y="323.15" width="14.84" height="357.18"/>
  <rect class="st1" x="506.22" y="178.04" width="14.84" height="67.61"/>
  <rect class="st0" x="506.22" y="178.04" width="14.84" height="67.61"/>
  <rect class="st1" x="819.84" y="182.3" width="14.84" height="623.77"/>
  <rect class="st0" x="819.84" y="182.3" width="14.84" height="623.77"/>
  <rect class="st1" x="513.15" y="182.3" width="313.24" height="14.84"/>
  <rect class="st0" x="513.15" y="182.3" width="313.24" height="14.84"/>
  <rect class="st0" x="517.07" y="816.22" width="307.29" height="9.88" transform="translate(-107.87 101.47) rotate(-8.01)"/>
  <rect class="st1" x="514.51" y="702.37" width="71.15" height="6.67"/>
  <rect class="st0" x="514.51" y="702.37" width="71.15" height="6.67"/>
  <rect class="st1" x="219.94" y="703.36" width="71.15" height="6.67"/>
  <rect class="st0" x="219.94" y="703.36" width="71.15" height="6.67"/>
  <rect class="st1" x="192.21" y="703.36" width="100.62" height="6.67"/>
  <rect class="st0" x="192.21" y="703.36" width="100.62" height="6.67"/>
  <rect class="st1" x="513.64" y="674.65" width="64.41" height="34.38"/>
  <rect class="st0" x="513.64" y="674.65" width="64.41" height="34.38"/>
  <rect class="st1" x="756.22" y="702.37" width="73.38" height="6.67"/>
  <rect class="st0" x="756.22" y="702.37" width="73.38" height="6.67"/>
  <rect class="st1" x="419.58" y="702.37" width="140.83" height="6.67"/>
  <rect class="st0" x="419.58" y="702.37" width="140.83" height="6.67"/>
  <rect class="st1" x="760.14" y="674.65" width="65.55" height="34.38"/>
  <rect class="st0" x="760.14" y="674.65" width="65.55" height="34.38"/>
  <rect class="st1" x="427.09" y="674.65" width="125.81" height="34.38"/>
  <rect class="st0" x="427.09" y="674.65" width="125.81" height="34.38"/>
  <rect class="st0" x="643.41" y="674.65" width="133.48" height="27.71"/>
  <rect class="st0" x="348.85" y="674.65" width="133.48" height="27.71"/>
  <rect class="st0" x="634.99" y="702.37" width="133.48" height="6.67"/>
  <rect class="st0" x="340.43" y="702.37" width="133.48" height="6.67"/>
  <path class="st0" d="M643.2,701.94s0-8.25-3.66-18.53c-3.07-8.6-9.18-16.63-9.18-16.63l-57.15,32.33,1.28,2.03,57.27-32.34"/>
  <path class="st0" d="M348.64,701.94s0-8.25-3.66-18.53c-3.07-8.6-9.18-16.63-9.18-16.63l-57.15,32.33,1.28,2.03,57.27-32.34"/>
  <rect class="st0" x="478.12" y="353.93" width="26.21" height="75.03"/>
  <line class="st0" x1="500.23" y1="354.16" x2="500.23" y2="429.33"/>
  <polyline class="st0" points="500.26 357.82 481.3 359.49 481.3 406.96 500.26 409.04 500.26 412.16 481.09 414.25 481.09 424.86 500.26 427.16"/>
  <rect class="st0" x="208.2" y="199.01" width="24.98" height="69.97"/>
  <line class="st0" x1="229.27" y1="199.16" x2="229.27" y2="269.39"/>
  <polyline class="st0" points="229.28 202.64 211.24 204.2 211.24 248.46 229.28 250.4 229.28 253.32 211.04 255.26 211.04 265.16 229.28 267.3"/>
  <path class="st0" d="M377.74,188.38l77.33,44.63s4.03-6.34,7.49-19.95c3.46-13.61,3.46-23.06,3.46-23.06"/>
  <path class="st0" d="M511.89,235.13l44.63,77.33s-6.34,4.03-19.95,7.49c-13.61,3.46-23.06,3.46-23.06,3.46"/>
  <line class="st0" x1="192.21" y1="173.64" x2="381.08" y2="173.64"/>
  <rect class="st0" x="320.07" y="395.89" width="35.01" height="52.97"/>
  <line class="st0" x1="320.58" y1="395.63" x2="354.93" y2="448.75"/>
  <line class="st0" x1="355.33" y1="395.63" x2="320.98" y2="448.75"/>
  <path class="st1" d="M684.51,537.75c0-1.54.64-2.31,1.93-2.31s1.91.77,1.91,2.31v12.69c0,1.55-.64,2.33-1.91,2.33s-1.93-.78-1.93-2.33v-12.69ZM682.28,554.58c.97,1.03,2.35,1.54,4.16,1.54s3.19-.51,4.15-1.54c.96-1.03,1.45-2.48,1.45-4.36v-12.23c0-1.88-.48-3.34-1.45-4.36-.96-1.03-2.35-1.54-4.15-1.54s-3.2.51-4.16,1.54c-.97,1.03-1.45,2.48-1.45,4.36v12.23c0,1.88.48,3.33,1.45,4.36M678.59,552.46h-3.69v3.4h3.69v-3.4ZM664.92,537.75c0-1.52.64-2.28,1.91-2.28s1.93.76,1.93,2.28v4.23c0,1.54-.64,2.31-1.93,2.31s-1.91-.77-1.91-2.31v-4.23ZM662.26,546.28c.68.92,1.7,1.38,3.05,1.38,1.64,0,2.78-.7,3.44-2.09v4.3c0,1.07-.17,1.82-.51,2.26-.34.43-.86.65-1.55.65-1.28,0-1.92-.78-1.92-2.33v-.84h-3.48v.61c0,1.89.47,3.35,1.41,4.37.94,1.02,2.3,1.53,4.09,1.53,3.77,0,5.65-2.03,5.65-6.1v-12.04c0-1.88-.49-3.34-1.45-4.36-.97-1.03-2.35-1.54-4.16-1.54s-3.2.51-4.16,1.54c-.96,1.03-1.44,2.48-1.44,4.36v4.31c0,1.74.34,3.07,1.03,3.99M653.44,537.92v17.94h3.69v-23.51h-2.49c-.14.38-.27.69-.38.93-.11.23-.27.5-.49.79-.21.29-.45.52-.71.67s-.61.29-1.03.41c-.43.12-.91.17-1.46.17v2.61h2.87Z"/>
  <path class="st1" d="M753.83,496.26l1.78,11.84h-3.56l1.77-11.84ZM750.93,515.56l.64-4.26h4.52l.64,4.26h3.69l-3.74-23.51h-5.7l-3.74,23.51h3.69ZM739.05,495.4v20.15h3.69v-20.15h3.87v-3.36h-11.43v3.36h3.87ZM728.21,496.26l1.78,11.84h-3.56l1.77-11.84ZM725.32,515.56l.64-4.26h4.52l.64,4.26h3.69l-3.74-23.51h-5.7l-3.74,23.51h3.69ZM711.95,515.56v-10.07h4.2v10.07h3.69v-23.51h-3.69v10.08h-4.2v-10.08h-3.69v23.51h3.69ZM693.29,515.56v-16.59l2.76,16.59h3.5l2.55-16.86v16.86h3.69v-23.51h-5.32l-2.53,16.75-2.73-16.75h-5.12v23.51h3.21ZM680.19,497.45c0-1.54.64-2.31,1.93-2.31s1.91.77,1.91,2.31v12.69c0,1.55-.64,2.33-1.91,2.33s-1.93-.78-1.93-2.33v-12.69ZM677.96,514.28c.97,1.03,2.35,1.54,4.16,1.54s3.19-.51,4.15-1.54c.96-1.03,1.45-2.48,1.45-4.36v-12.23c0-1.88-.48-3.34-1.45-4.36-.96-1.03-2.35-1.54-4.15-1.54s-3.2.51-4.16,1.54c-.97,1.03-1.45,2.48-1.45,4.36v12.23c0,1.88.49,3.34,1.45,4.36M666.62,515.56v-7.22l1.15-2.15,3.59,9.36h3.79l-5.13-13.04,5.13-10.48h-3.69l-4.84,10.25v-10.25h-3.69v23.51h3.69ZM647.69,497.83c0-.84.15-1.46.45-1.84.3-.39.78-.58,1.44-.58h1.77v7.23h-1.45c-.73,0-1.28-.19-1.66-.57-.37-.38-.56-1.02-.56-1.93v-2.31ZM647.32,515.56c.09-.27.15-.48.18-.61.03-.14.07-.4.11-.79.04-.39.06-.88.06-1.48v-3.69c0-1.08.19-1.85.58-2.31.38-.46.99-.69,1.83-.69h1.28v9.58h3.69v-23.51h-5.57c-1.89,0-3.28.44-4.15,1.33-.87.89-1.31,2.25-1.31,4.08v1.85c0,2.43.8,4.02,2.41,4.77-.88.37-1.51.97-1.88,1.8-.37.83-.56,1.9-.56,3.2v3.62c0,1.27-.12,2.22-.35,2.85h3.69ZM636.19,496.26l1.79,11.84h-3.56l1.77-11.84ZM633.3,515.56l.64-4.26h4.52l.64,4.26h3.69l-3.74-23.51h-5.7l-3.74,23.51h3.69ZM615.03,515.59c1.85,0,3.19-.46,4.03-1.38.83-.92,1.29-2.45,1.35-4.59l.41-14.22h3.2v20.15h3.69v-23.51h-10.58l-.41,17.78c-.02.54-.07.98-.15,1.3-.07.32-.21.56-.41.73-.19.17-.41.28-.66.32-.25.05-.6.07-1.05.07v3.36h.57ZM604.93,515.56l3.12-10.77,1.49-5.76v16.53h3.69v-23.51h-4.43l-3.02,9.71-1.34,5.18v-14.89h-3.3v23.51h3.79ZM583.48,515.56l3.37-10.48.91,1.83v8.65h3.69v-8.61l.92-1.78,3.36,10.4h3.69l-4.53-13.92,4.53-9.59h-3.59l-4.37,9.51v-9.51h-3.69v9.51l-4.37-9.51h-3.59l4.58,9.64-4.58,13.87h3.69Z"/>
  <path class="st1" d="M364.67,588.41c0-.98.18-1.68.55-2.08.37-.41.88-.6,1.54-.6s1.17.2,1.53.6c.36.4.54,1.1.54,2.09v1.31c0,1.65-.69,2.48-2.07,2.48s-2.09-.82-2.09-2.48v-1.31ZM364.67,598.22c0-1.77.7-2.66,2.09-2.66s2.07.89,2.07,2.66v2.18c-.01.99-.2,1.67-.56,2.07-.36.39-.87.59-1.52.59s-1.17-.2-1.54-.6c-.37-.4-.55-1.08-.55-2.06v-2.18ZM362.47,604.86c1,1.03,2.42,1.54,4.29,1.54s3.29-.51,4.28-1.54c.99-1.03,1.48-2.48,1.48-4.36v-1.85c0-2.41-.76-4.04-2.28-4.9,1.52-.85,2.28-2.43,2.28-4.72v-.75c0-1.88-.49-3.33-1.48-4.36-.99-1.03-2.42-1.54-4.28-1.54s-3.29.51-4.29,1.54c-1,1.03-1.49,2.48-1.49,4.36v.75c0,2.32.76,3.89,2.28,4.72-1.52.86-2.28,2.5-2.28,4.9v1.85c0,1.88.5,3.34,1.49,4.36M358.91,602.74h-3.69v3.4h3.69v-3.4ZM345.14,588.41c0-.98.18-1.68.55-2.08.37-.41.88-.6,1.54-.6s1.17.2,1.53.6c.36.4.54,1.1.54,2.09v1.31c0,1.65-.69,2.48-2.07,2.48s-2.09-.82-2.09-2.48v-1.31ZM345.14,598.22c0-1.77.7-2.66,2.09-2.66s2.07.89,2.07,2.66v2.18c-.01.99-.2,1.67-.56,2.07-.36.39-.87.59-1.52.59s-1.17-.2-1.54-.6c-.37-.4-.55-1.08-.55-2.06v-2.18ZM342.94,604.86c1,1.03,2.42,1.54,4.29,1.54s3.29-.51,4.28-1.54c.99-1.03,1.48-2.48,1.48-4.36v-1.85c0-2.41-.76-4.04-2.28-4.9,1.52-.85,2.28-2.43,2.28-4.72v-.75c0-1.88-.49-3.33-1.48-4.36-.99-1.03-2.42-1.54-4.28-1.54s-3.29.51-4.29,1.54c-1,1.03-1.5,2.48-1.5,4.36v.75c0,2.32.76,3.89,2.29,4.72-1.53.86-2.29,2.5-2.29,4.9v1.85c0,1.88.5,3.34,1.5,4.36"/>
  <path class="st1" d="M383.22,548.11c0-.84.15-1.46.45-1.84.3-.39.78-.58,1.43-.58h1.77v7.23h-1.44c-.73,0-1.28-.19-1.66-.57-.37-.38-.56-1.02-.56-1.93v-2.31ZM382.84,565.84c.09-.27.15-.48.18-.61.03-.14.07-.4.11-.79.04-.39.06-.88.06-1.48v-3.69c0-1.08.19-1.85.57-2.31.38-.46,1-.69,1.84-.69h1.28v9.58h3.69v-23.51h-5.57c-1.89,0-3.28.44-4.15,1.33-.88.89-1.31,2.25-1.31,4.08v1.85c0,2.43.8,4.02,2.41,4.77-.88.37-1.51.97-1.88,1.8-.37.83-.56,1.9-.56,3.2v3.62c0,1.27-.12,2.22-.35,2.85h3.69ZM369.12,565.84v-10.07h4.2v10.07h3.69v-23.51h-3.69v10.08h-4.2v-10.08h-3.69v23.51h3.69ZM353.85,565.84l2.87-8.75,2.84,8.75h3.69l-4.11-11.98,3.86-11.53h-3.24l-2.84,8.72-2.8-8.72h-3.69l3.87,11.4-4.13,12.12h3.69ZM341.35,560.42l-.03.21c-.14.81-.47,1.34-.98,1.61-.51.26-1.27.36-2.28.29v3.34c.99.07,1.86.03,2.6-.1.74-.14,1.37-.36,1.89-.65.51-.3.95-.71,1.31-1.24s.66-1.12.88-1.75c.22-.63.43-1.4.61-2.3l3.95-17.5h-3.69l-1.69,8.07-.87,5.44-1.14-5.49-1.99-8.02h-3.69l5.13,18.09ZM327.11,565.84v-7.22l1.15-2.15,3.59,9.36h3.79l-5.13-13.04,5.13-10.48h-3.69l-4.84,10.25v-10.25h-3.69v23.51h3.69Z"/>
  <path class="st1" d="M454.59,330.89c.99,1.02,2.39,1.53,4.19,1.53s3.16-.51,4.1-1.53c.93-1.02,1.4-2.48,1.4-4.37v-5.25c0-1.75-.34-3.08-1.02-3.99-.68-.92-1.7-1.37-3.06-1.37-1.46,0-2.53.57-3.22,1.7l.29-5.61h6.41v-3.36h-9.88l-.71,13.64h3.69v-.71c0-1.54.63-2.31,1.89-2.31s1.91.77,1.91,2.31v5.17c0,1.53-.64,2.29-1.91,2.29s-1.89-.76-1.89-2.29v-2.18h-3.69v1.95c0,1.89.5,3.35,1.49,4.37M450.72,328.76h-3.69v3.4h3.69v-3.4ZM435.06,330.89c.99,1.02,2.39,1.53,4.19,1.53s3.17-.51,4.1-1.53c.93-1.02,1.4-2.48,1.4-4.37v-5.25c0-1.75-.34-3.08-1.02-3.99-.68-.92-1.7-1.37-3.06-1.37-1.46,0-2.53.57-3.22,1.7l.29-5.61h6.41v-3.36h-9.88l-.71,13.64h3.69v-.71c0-1.54.63-2.31,1.89-2.31s1.91.77,1.91,2.31v5.17c0,1.53-.64,2.29-1.91,2.29s-1.89-.76-1.89-2.29v-2.18h-3.69v1.95c0,1.89.5,3.35,1.49,4.37"/>
  <path class="st1" d="M498.35,274.13c0-.84.15-1.46.45-1.84.3-.39.78-.58,1.44-.58h1.77v7.23h-1.45c-.73,0-1.28-.19-1.66-.57-.37-.38-.56-1.02-.56-1.93v-2.31ZM497.97,291.86c.09-.27.15-.48.18-.61.03-.14.07-.4.11-.79.04-.39.06-.88.06-1.48v-3.69c0-1.08.19-1.85.58-2.31.38-.46.99-.69,1.83-.69h1.28v9.58h3.69v-23.51h-5.57c-1.89,0-3.28.44-4.15,1.33-.87.89-1.31,2.25-1.31,4.08v1.85c0,2.43.8,4.02,2.41,4.77-.88.37-1.51.97-1.88,1.8-.37.83-.56,1.9-.56,3.2v3.62c0,1.27-.12,2.22-.35,2.85h3.69ZM486.84,272.56l1.79,11.84h-3.56l1.77-11.84ZM483.95,291.86l.64-4.26h4.52l.64,4.26h3.69l-3.74-23.51h-5.7l-3.74,23.51h3.69ZM463.57,291.86l3.37-10.48.91,1.83v8.65h3.69v-8.61l.92-1.78,3.36,10.4h3.69l-4.53-13.92,4.53-9.59h-3.59l-4.38,9.51v-9.51h-3.69v9.51l-4.38-9.51h-3.59l4.59,9.64-4.59,13.87h3.69ZM451.04,273.76c0-1.54.64-2.31,1.93-2.31s1.91.77,1.91,2.31v12.69c0,1.55-.64,2.33-1.91,2.33s-1.93-.78-1.93-2.33v-12.69ZM448.81,290.58c.97,1.03,2.35,1.54,4.16,1.54s3.19-.51,4.15-1.54c.96-1.03,1.45-2.48,1.45-4.36v-12.23c0-1.88-.48-3.34-1.45-4.36-.96-1.03-2.35-1.54-4.15-1.54s-3.2.51-4.16,1.54c-.97,1.03-1.45,2.48-1.45,4.36v12.23c0,1.88.48,3.34,1.45,4.36M436.09,291.86l2.87-8.75,2.84,8.75h3.69l-4.11-11.98,3.87-11.53h-3.24l-2.84,8.72-2.8-8.72h-3.69l3.87,11.4-4.13,12.12h3.69ZM422.69,291.86l3.12-10.77,1.49-5.76v16.53h3.69v-23.51h-4.43l-3.02,9.71-1.34,5.18v-14.89h-3.29v23.51h3.79ZM409.93,271.71h1.75c.61,0,1.07.17,1.36.5.29.33.44.9.44,1.71v3.53c0,.81-.15,1.38-.44,1.72-.3.34-.75.51-1.36.51h-1.75v-7.97ZM409.93,291.86v-8.84h1.75c1.82,0,3.19-.5,4.11-1.48.92-.99,1.38-2.43,1.38-4.32v-3.05c0-1.89-.46-3.34-1.38-4.33-.92-.99-2.29-1.49-4.12-1.49h-5.43v23.51h3.69ZM395.6,291.86v-20.15h4.2v20.15h3.69v-23.51h-11.58v23.51h3.69Z"/>
  <path class="st1" d="M336.25,367.83v8.84h-3.72l3.72-8.84ZM336.25,380.03v4.26h3.69v-4.26h1.69v-3.36h-1.69v-15.89h-4.03l-6.71,15.89v3.36h7.05ZM327.46,380.9h-3.69v3.4h3.69v-3.4ZM311.77,383.02c.99,1.02,2.39,1.53,4.19,1.53s3.17-.51,4.1-1.53c.93-1.02,1.4-2.48,1.4-4.37v-1.85c0-2.55-.86-4.19-2.57-4.94,1.72-.71,2.57-2.32,2.57-4.83v-.61c0-1.89-.47-3.35-1.4-4.37-.94-1.02-2.3-1.53-4.1-1.53s-3.2.51-4.19,1.53c-.99,1.02-1.49,2.48-1.49,4.37v1.28h3.69v-1.51c0-1.54.63-2.31,1.89-2.31.63,0,1.11.2,1.43.59.32.39.48,1.09.48,2.1v1.31c0,.89-.19,1.53-.56,1.91-.37.38-.92.57-1.66.57h-1.44v3.36h1.25c.85,0,1.47.23,1.84.69.38.46.57,1.23.57,2.29v1.85c0,.98-.16,1.67-.48,2.06-.32.39-.8.59-1.43.59-1.26,0-1.89-.78-1.89-2.33v-2.18h-3.69v1.95c0,1.89.5,3.35,1.49,4.37M295.63,378.87l-.03.21c-.14.81-.47,1.34-.98,1.6-.52.26-1.27.36-2.28.3v3.34c1,.07,1.86.03,2.61-.11.74-.14,1.37-.35,1.88-.65.51-.3.95-.71,1.32-1.24.36-.53.66-1.12.88-1.75.22-.63.43-1.4.61-2.3l3.95-17.5h-3.69l-1.69,8.07-.87,5.44-1.15-5.49-1.99-8.02h-3.69l5.13,18.09ZM280.81,384.29l9.27-23.51h-3.2l-9.26,23.51h3.2ZM266.93,383.02c.94,1.02,2.31,1.53,4.12,1.53s3.21-.51,4.21-1.53c.99-1.02,1.49-2.48,1.49-4.37v-3.13h-3.69v3.36c0,1.53-.64,2.29-1.91,2.29s-1.93-.76-1.93-2.29v-12.69c0-1.54.64-2.31,1.93-2.31s1.91.77,1.91,2.31v2.53h3.69v-2.29c0-1.89-.5-3.35-1.49-4.37-1-1.02-2.4-1.53-4.21-1.53s-3.18.51-4.12,1.53c-.94,1.02-1.4,2.48-1.4,4.37v12.23c0,1.89.47,3.35,1.4,4.37"/>
  <path class="st1" d="M709.7,434.89v20.2h-8.51l8.51-20.2ZM709.7,462.77v9.75h8.43v-9.75h3.86v-7.68h-3.86v-36.32h-9.22l-15.33,36.32v7.68h16.12ZM689.61,464.76h-8.43v7.76h8.43v-7.76ZM662.51,431.51v41h8.43v-53.75h-5.7c-.32.88-.61,1.58-.86,2.12-.25.54-.62,1.14-1.11,1.8-.49.66-1.03,1.17-1.63,1.53-.6.36-1.39.68-2.36.94-.97.26-2.09.39-3.34.39v5.96h6.56ZM634.67,434.89v20.2h-8.51l8.51-20.2ZM634.67,462.77v9.75h8.43v-9.75h3.86v-7.68h-3.86v-36.32h-9.22l-15.33,36.32v7.68h16.12Z"/>
  <circle class="st0" cx="670.03" cy="356.02" r="47.05" transform="translate(84.7 838.8) rotate(-67.5)"/>
  <path class="st1" d="M676.56,377.82v-12.49l1.99-3.72,6.21,16.2h6.56l-8.88-22.56,8.88-18.13h-6.39l-8.37,17.73v-17.73h-6.39v40.69h6.39ZM656.04,346.77v31.05h6.38v-40.69h-4.31c-.24.66-.46,1.19-.65,1.6-.19.41-.47.86-.83,1.36-.37.5-.78.89-1.24,1.16-.45.27-1.05.51-1.79.71-.74.2-1.58.3-2.53.3v4.51h4.97Z"/>
  <path class="st1" d="M412.95,787.24c1.86,0,3.19-.39,3.99-1.17.8-.78,1.2-2.1,1.2-3.97v-13.23c0-1.87-.4-3.2-1.2-3.98-.8-.78-2.13-1.17-3.99-1.17h-1.13v3.2h.9c.61,0,1.05.15,1.32.44.27.29.4.84.4,1.63v12.97c0,.79-.13,1.33-.4,1.63-.27.29-.71.44-1.32.44h-.9v3.2h1.13ZM406.44,767.08l-5.41,20.15h3.69l5.45-20.29v-3.23h-11.07v3.36h7.35ZM396.78,783.84h-3.69v3.4h3.69v-3.4ZM386.04,770.77v8.84h-3.72l3.72-8.84ZM386.04,782.97v4.26h3.69v-4.26h1.69v-3.36h-1.69v-15.89h-4.03l-6.71,15.89v3.36h7.05ZM372.79,786.07c.8.78,2.13,1.17,3.99,1.17h1.13v-3.2h-.91c-.61,0-1.05-.15-1.32-.44-.26-.3-.39-.84-.39-1.63v-12.97c0-.79.13-1.34.39-1.63.27-.3.71-.44,1.32-.44h.91v-3.2h-1.13c-1.86,0-3.19.39-3.99,1.17-.8.78-1.19,2.11-1.19,3.98v13.23c0,1.87.4,3.19,1.19,3.97M359.12,770.77v8.84h-3.72l3.72-8.84ZM359.12,782.97v4.26h3.69v-4.26h1.69v-3.36h-1.69v-15.89h-4.03l-6.71,15.89v3.36h7.05ZM350.33,783.84h-3.69v3.4h3.69v-3.4ZM336.65,769.14c0-1.52.64-2.28,1.91-2.28s1.93.76,1.93,2.28v4.23c0,1.54-.64,2.31-1.93,2.31s-1.91-.77-1.91-2.31v-4.23ZM333.99,777.66c.68.92,1.7,1.38,3.06,1.38,1.63,0,2.78-.69,3.44-2.08v4.3c0,1.07-.17,1.82-.51,2.26-.34.43-.86.65-1.55.65-1.29,0-1.93-.78-1.93-2.33v-.83h-3.48v.61c0,1.89.47,3.35,1.41,4.37.94,1.02,2.3,1.53,4.09,1.53,3.77,0,5.65-2.03,5.65-6.1v-12.03c0-1.88-.48-3.34-1.45-4.36-.97-1.03-2.35-1.54-4.16-1.54s-3.19.51-4.16,1.54c-.96,1.03-1.45,2.48-1.45,4.36v4.31c0,1.74.35,3.07,1.03,3.99"/>
  <path class="st0" d="M361.27,407.32l31.64-55.01s-4.5-2.87-14.14-5.33c-9.64-2.46-16.35-2.46-16.35-2.46"/>
  <path class="st0" d="M468.76,435.95l-62.78,36.28s-3.28-5.16-6.08-16.22c-2.8-11.06-2.8-18.75-2.8-18.75"/>
  <rect class="st1" x="465.12" y="432.56" width="41.82" height="7.16"/>
  <rect class="st0" x="465.12" y="432.56" width="41.82" height="7.16"/>
  <rect class="st1" x="364.13" y="432.56" width="33.5" height="7.16"/>
  <rect class="st0" x="364.13" y="432.56" width="33.5" height="7.16"/>
  <rect class="st1" x="359.68" y="400.24" width="7.16" height="60"/>
  <rect class="st0" x="359.68" y="400.24" width="7.16" height="60"/>
  <rect class="st1" x="359.68" y="270.86" width="7.16" height="74.41"/>
  <rect class="st0" x="359.68" y="270.86" width="7.16" height="74.41"/>
  <rect class="st1" x="200.02" y="270.86" width="163.85" height="7.16"/>
  <rect class="st0" x="200.02" y="270.86" width="163.85" height="7.16"/>
  <rect class="st1" x="205.21" y="453.35" width="161.63" height="7.16"/>
  <rect class="st0" x="205.21" y="453.35" width="161.63" height="7.16"/>
  <rect class="st1" x="190.12" y="194.68" width="16.82" height="654.46"/>
  <rect class="st0" x="190.12" y="194.68" width="16.82" height="654.46"/>
  <path class="st1" d="M273.48,415.33c0-8.93-7.27-16.2-16.21-16.2h-23.47c-1.54,0-2.8,1.25-2.8,2.79v26.81c0,1.54,1.26,2.8,2.8,2.8h23.47c8.93,0,16.21-7.27,16.21-16.21M229.9,428.73v-26.81c0-2.16,1.75-3.91,3.91-3.91h23.47c9.55,0,17.32,7.77,17.32,17.31s-7.77,17.32-17.32,17.32h-23.47c-2.16,0-3.91-1.75-3.91-3.91"/>
  <path class="st0" d="M273.48,415.33c0-8.93-7.27-16.2-16.21-16.2h-23.47c-1.54,0-2.8,1.25-2.8,2.79v26.81c0,1.54,1.26,2.8,2.8,2.8h23.47c8.93,0,16.21-7.27,16.21-16.21ZM229.9,428.73v-26.81c0-2.16,1.75-3.91,3.91-3.91h23.47c9.55,0,17.32,7.77,17.32,17.31s-7.77,17.32-17.32,17.32h-23.47c-2.16,0-3.91-1.75-3.91-3.91Z"/>
  <path class="st0" d="M238.85,403.71v23.23c0,.15.13.29.28.29h17.69c6.54,0,11.9-5.36,11.9-11.9s-5.36-11.89-11.9-11.89h-17.69c-.15,0-.28.13-.28.28Z"/>
  <path class="st1" d="M239.4,403.99v22.68h17.41c6.25,0,11.34-5.09,11.34-11.34s-5.09-11.34-11.34-11.34h-17.41ZM238.29,426.94v-23.23c0-.45.38-.83.83-.83h17.69c6.87,0,12.45,5.59,12.45,12.45s-5.59,12.46-12.45,12.46h-17.69c-.45,0-.83-.38-.83-.84"/>
  <path class="st0" d="M239.4,403.99v22.68h17.41c6.25,0,11.34-5.09,11.34-11.34s-5.09-11.34-11.34-11.34h-17.41ZM238.29,426.94v-23.23c0-.45.38-.83.83-.83h17.69c6.87,0,12.45,5.59,12.45,12.45s-5.59,12.46-12.45,12.46h-17.69c-.45,0-.83-.38-.83-.84Z"/>
  <path class="st1" d="M256.84,415.33c0-1.69-1.37-3.06-3.06-3.06s-3.06,1.38-3.06,3.06,1.38,3.06,3.06,3.06,3.06-1.37,3.06-3.06M249.6,415.33c0-2.3,1.87-4.17,4.17-4.17s4.17,1.87,4.17,4.17-1.87,4.18-4.17,4.18-4.17-1.87-4.17-4.18"/>
  <path class="st0" d="M256.84,415.33c0-1.69-1.37-3.06-3.06-3.06s-3.06,1.38-3.06,3.06,1.38,3.06,3.06,3.06,3.06-1.37,3.06-3.06ZM249.6,415.33c0-2.3,1.87-4.17,4.17-4.17s4.17,1.87,4.17,4.17-1.87,4.18-4.17,4.18-4.17-1.87-4.17-4.18Z"/>
  <rect class="st1" x="244.59" y="403.97" width="1.11" height="9.29" transform="translate(-228.99 361.1) rotate(-53.32)"/>
  <rect class="st0" x="244.59" y="403.97" width="1.11" height="9.29" transform="translate(-228.99 361.1) rotate(-53.32)"/>
  <polygon class="st1" points="241.09 424.2 248.53 418.63 249.2 419.52 241.76 425.09 241.09 424.2"/>
  <polygon class="st0" points="241.09 424.2 248.53 418.63 249.2 419.52 241.76 425.09 241.09 424.2"/>
  <path class="st1" d="M229.85,404.14c0-2.47-2.01-4.49-4.49-4.49h-6.11c-2.48,0-4.5,2.02-4.5,4.49v22.37c0,2.47,2.02,4.49,4.5,4.49h6.11c2.48,0,4.49-2.02,4.49-4.49v-22.37ZM213.65,426.51v-22.37c0-3.09,2.51-5.6,5.61-5.6h6.11c3.09,0,5.6,2.51,5.6,5.6v22.37c0,3.09-2.51,5.6-5.6,5.6h-6.11c-3.09,0-5.61-2.51-5.61-5.6"/>
  <path class="st0" d="M229.85,404.14c0-2.47-2.01-4.49-4.49-4.49h-6.11c-2.48,0-4.5,2.02-4.5,4.49v22.37c0,2.47,2.02,4.49,4.5,4.49h6.11c2.48,0,4.49-2.02,4.49-4.49v-22.37ZM213.65,426.51v-22.37c0-3.09,2.51-5.6,5.61-5.6h6.11c3.09,0,5.6,2.51,5.6,5.6v22.37c0,3.09-2.51,5.6-5.6,5.6h-6.11c-3.09,0-5.61-2.51-5.61-5.6Z"/>
  <path class="st1" d="M224.04,415.33c0-.96-.78-1.74-1.74-1.74s-1.73.78-1.73,1.74.78,1.74,1.73,1.74,1.74-.78,1.74-1.74M219.46,415.33c0-1.57,1.27-2.85,2.85-2.85s2.85,1.27,2.85,2.85-1.28,2.85-2.85,2.85-2.85-1.28-2.85-2.85"/>
  <path class="st0" d="M224.04,415.33c0-.96-.78-1.74-1.74-1.74s-1.73.78-1.73,1.74.78,1.74,1.73,1.74,1.74-.78,1.74-1.74ZM219.46,415.33c0-1.57,1.27-2.85,2.85-2.85s2.85,1.27,2.85,2.85-1.28,2.85-2.85,2.85-2.85-1.28-2.85-2.85Z"/>
  <path class="st1" d="M243.05,368.6c0,8.48-6.91,15.38-15.4,15.38h-16.34c-1.29,0-2.34-1.05-2.34-2.34v-34.77c0-1.29,1.05-2.34,2.34-2.34h16.34c8.49,0,15.4,6.9,15.4,15.39v8.68ZM208.12,346.87v34.77c0,1.77,1.44,3.21,3.2,3.21h16.34c8.97,0,16.26-7.29,16.26-16.25v-8.68c0-8.96-7.3-16.25-16.26-16.25h-16.34c-1.77,0-3.2,1.44-3.2,3.2"/>
  <path class="st0" d="M243.05,368.6c0,8.48-6.91,15.38-15.4,15.38h-16.34c-1.29,0-2.34-1.05-2.34-2.34v-34.77c0-1.29,1.05-2.34,2.34-2.34h16.34c8.49,0,15.4,6.9,15.4,15.39v8.68ZM208.12,346.87v34.77c0,1.77,1.44,3.21,3.2,3.21h16.34c8.97,0,16.26-7.29,16.26-16.25v-8.68c0-8.96-7.3-16.25-16.26-16.25h-16.34c-1.77,0-3.2,1.44-3.2,3.2Z"/>
  <path class="st1" d="M239.2,368.6c0,6.35-5.18,11.53-11.55,11.53h-9.53c-1.11,0-2.02-.9-2.02-2.01v-27.72c0-1.11.9-2.01,2.02-2.01h9.53c6.37,0,11.55,5.17,11.55,11.53v8.68ZM215.23,350.4v27.72c0,1.59,1.29,2.87,2.89,2.87h9.53c6.85,0,12.42-5.56,12.42-12.39v-8.68c0-6.84-5.57-12.4-12.42-12.4h-9.53c-1.59,0-2.89,1.29-2.89,2.88"/>
  <path class="st0" d="M239.2,368.6c0,6.35-5.18,11.53-11.55,11.53h-9.53c-1.11,0-2.02-.9-2.02-2.01v-27.72c0-1.11.9-2.01,2.02-2.01h9.53c6.37,0,11.55,5.17,11.55,11.53v8.68ZM215.23,350.4v27.72c0,1.59,1.29,2.87,2.89,2.87h9.53c6.85,0,12.42-5.56,12.42-12.39v-8.68c0-6.84-5.57-12.4-12.42-12.4h-9.53c-1.59,0-2.89,1.29-2.89,2.88Z"/>
  <path class="st1" d="M231.13,364.26c0,1.07-.87,1.93-1.93,1.93s-1.93-.87-1.93-1.93.87-1.93,1.93-1.93,1.93.87,1.93,1.93M226.38,364.26c0,1.55,1.26,2.81,2.81,2.81s2.81-1.26,2.81-2.81-1.26-2.81-2.81-2.81-2.81,1.26-2.81,2.81"/>
  <path class="st0" d="M231.13,364.26c0,1.07-.87,1.93-1.93,1.93s-1.93-.87-1.93-1.93.87-1.93,1.93-1.93,1.93.87,1.93,1.93ZM226.38,364.26c0,1.55,1.26,2.81,2.81,2.81s2.81-1.26,2.81-2.81-1.26-2.81-2.81-2.81-2.81,1.26-2.81,2.81Z"/>
  <path class="st0" d="M234.96,307.17c0-1.19,1-2.16,2.22-2.16s2.22.96,2.22,2.16-.99,2.16-2.22,2.16-2.22-.96-2.22-2.16Z"/>
  <rect class="st0" x="214" y="283.06" width="138.3" height="51.58" rx="14.74" ry="14.74"/>
  <path class="st0" d="M238.35,287.87h89.62c8.14,0,14.74,6.6,14.74,14.74v12.46c0,8.14-6.61,14.74-14.74,14.74h-89.62c-8.14,0-14.74-6.61-14.74-14.74v-12.46c0-8.14,6.61-14.74,14.74-14.74Z"/>
  <rect class="st0" x="228.9" y="292.5" width="102.22" height="32.69" rx="7.37" ry="7.37"/>
  <polygon class="st0" points="208.59 278.75 208.59 278.75 357.73 278.75 357.73 338.94 208.59 338.94 208.59 278.75"/>
  <path class="st1" d="M209.31,462.9h51.44v51.88h-51.44v-51.88ZM208.18,515.94h53.72v-54.18h-53.72v54.18Z"/>
  <path class="st0" d="M209.31,462.9h51.44v51.88h-51.44v-51.88ZM208.18,515.94h53.72v-54.18h-53.72v54.18Z"/>
  <path class="st1" d="M256.07,507.02c0,1.28-1.03,2.32-2.3,2.32h-27.05c-1.27,0-2.31-1.04-2.31-2.32v-36.35c0-1.28,1.04-2.32,2.31-2.32h27.05c1.27,0,2.3,1.04,2.3,2.32v36.35ZM223.27,470.67v36.35c0,1.91,1.55,3.47,3.45,3.47h27.05c1.9,0,3.44-1.56,3.44-3.47v-36.35c0-1.91-1.54-3.47-3.44-3.47h-27.05c-1.9,0-3.45,1.55-3.45,3.47"/>
  <path class="st0" d="M256.07,507.02c0,1.28-1.03,2.32-2.3,2.32h-27.05c-1.27,0-2.31-1.04-2.31-2.32v-36.35c0-1.28,1.04-2.32,2.31-2.32h27.05c1.27,0,2.3,1.04,2.3,2.32v36.35ZM223.27,470.67v36.35c0,1.91,1.55,3.47,3.45,3.47h27.05c1.9,0,3.44-1.56,3.44-3.47v-36.35c0-1.91-1.54-3.47-3.44-3.47h-27.05c-1.9,0-3.45,1.55-3.45,3.47Z"/>
  <path class="st1" d="M228.41,472.37h23.67v32.94h-23.67v-32.94ZM227.27,506.46h25.95v-35.23h-25.95v35.23Z"/>
  <path class="st0" d="M228.41,472.37h23.67v32.94h-23.67v-32.94ZM227.27,506.46h25.95v-35.23h-25.95v35.23Z"/>
  <path class="st1" d="M244.84,488.85c0,1.67-1.34,3.02-3,3.02s-3-1.36-3-3.02,1.34-3.02,3-3.02,3,1.36,3,3.02M237.7,488.85c0,2.31,1.86,4.18,4.14,4.18s4.14-1.88,4.14-4.18-1.86-4.18-4.14-4.18-4.14,1.88-4.14,4.18"/>
  <path class="st0" d="M244.84,488.85c0,1.67-1.34,3.02-3,3.02s-3-1.36-3-3.02,1.34-3.02,3-3.02,3,1.36,3,3.02ZM237.7,488.85c0,2.31,1.86,4.18,4.14,4.18s4.14-1.88,4.14-4.18-1.86-4.18-4.14-4.18-4.14,1.88-4.14,4.18Z"/>
  <rect class="st0" x="202" y="839.26" width="308.41" height="9.88"/>
  <rect class="st1" x="501.51" y="765.52" width="19.05" height="83.62"/>
  <rect class="st0" x="501.51" y="765.52" width="19.05" height="83.62"/>
</svg>