<?xml version="1.0" encoding="UTF-8"?>
<svg id="_Слой_1" data-name="Слой_1" xmlns="http://www.w3.org/2000/svg" version="1.1" viewBox="0 0 1000 1000">
  <!-- Generator: Adobe Illustrator 29.4.0, SVG Export Plug-In . SVG Version: 2.1.0 Build 152)  -->
  <defs>
    <style>
      .st0, .st1 {
        fill: none;
        stroke: #3c3c3b;
        stroke-width: .75px;
      }

      .st2 {
        fill: #deeaf8;
      }

      .st3 {
        fill: #3c3c3b;
      }

      .st1 {
        stroke-dasharray: 1.5 1;
      }
    </style>
  </defs>
  <rect class="st2" x="293.14" y="556.27" width="206.39" height="363.02"/>
  <rect class="st2" x="285.89" y="184.13" width="432.12" height="392.12"/>
  <rect class="st3" x="693.25" y="60.13" width="30.91" height="102.2"/>
  <rect class="st0" x="693.25" y="60.13" width="30.91" height="102.2"/>
  <rect class="st3" x="719.57" y="60.13" width="10.41" height="438.89"/>
  <rect class="st0" x="719.57" y="60.13" width="10.41" height="438.89"/>
  <rect class="st3" x="719.57" y="554.1" width="10.41" height="30.39"/>
  <rect class="st0" x="719.57" y="554.1" width="10.41" height="30.39"/>
  <rect class="st3" x="285.89" y="163.06" width="51.07" height="20.46"/>
  <rect class="st0" x="285.89" y="163.06" width="51.07" height="20.46"/>
  <rect class="st3" x="456.07" y="163.06" width="51.07" height="20.46"/>
  <rect class="st0" x="456.07" y="163.06" width="51.07" height="20.46"/>
  <rect class="st0" x="335.8" y="163.06" width="74" height="20.46"/>
  <rect class="st3" x="285.89" y="158.34" width="55.64" height="4.68"/>
  <rect class="st0" x="285.89" y="158.34" width="55.64" height="4.68"/>
  <rect class="st3" x="451.5" y="158.34" width="55.64" height="4.68"/>
  <rect class="st0" x="451.5" y="158.34" width="55.64" height="4.68"/>
  <rect class="st3" x="507.1" y="163.06" width="51.07" height="20.46"/>
  <rect class="st0" x="507.1" y="163.06" width="51.07" height="20.46"/>
  <rect class="st0" x="547.4" y="163.06" width="82.34" height="20.46"/>
  <rect class="st3" x="674.58" y="163.06" width="51.07" height="20.46"/>
  <rect class="st0" x="674.58" y="163.06" width="51.07" height="20.46"/>
  <rect class="st3" x="507.1" y="158.34" width="55.64" height="4.68"/>
  <rect class="st0" x="507.1" y="158.34" width="55.64" height="4.68"/>
  <rect class="st0" x="546.01" y="158.34" width="88.3" height="4.68"/>
  <rect class="st3" x="670.01" y="158.34" width="55.64" height="4.68"/>
  <rect class="st0" x="670.01" y="158.34" width="55.64" height="4.68"/>
  <rect class="st0" x="335.8" y="158.34" width="79.91" height="4.68"/>
  <rect class="st3" x="500.15" y="60.13" width="12.33" height="56.33"/>
  <rect class="st0" x="500.15" y="60.13" width="12.33" height="56.33"/>
  <rect class="st3" x="500.15" y="183.01" width="12.33" height="287.52"/>
  <rect class="st0" x="500.15" y="183.01" width="12.33" height="287.52"/>
  <rect class="st3" x="500.15" y="533.6" width="12.33" height="410.87"/>
  <rect class="st3" x="274.55" y="88.91" width="17.97" height="855.56"/>
  <rect class="st0" x="509.88" y="60.13" width="187.45" height="6.29"/>
  <polygon class="st0" points="289.24 89.25 289.24 95.55 503.44 66.42 503.44 60.13 289.24 89.25"/>
  <path class="st0" d="M410.41,162.45s0,5.79,2.57,13.01c2.15,6.04,6.44,11.67,6.44,11.67l40.11-22.69-.9-1.43-40.2,22.7"/>
  <path class="st0" d="M630.36,162.45s0,5.79,2.57,13.01c2.15,6.04,6.44,11.67,6.44,11.67l40.11-22.69-.9-1.43-40.2,22.7"/>
  <path class="st3" d="M633.43,123.39c1.3,0,2.24-.27,2.8-.82.56-.54.84-1.47.84-2.78v-9.29c0-1.31-.28-2.24-.84-2.79s-1.49-.82-2.8-.82h-.79v2.25h.63c.43,0,.74.1.92.31.19.21.28.59.28,1.14v9.11c0,.56-.09.94-.28,1.14-.19.21-.5.31-.92.31h-.63v2.24h.79ZM628.25,111.84v6.2h-2.61l2.61-6.2ZM628.25,120.4v2.99h2.59v-2.99h1.19v-2.36h-1.19v-11.15h-2.83l-4.71,11.15v2.36h4.95ZM622.08,121.01h-2.59v2.38h2.59v-2.38ZM614.54,111.84v6.2h-2.61l2.61-6.2ZM614.54,120.4v2.99h2.59v-2.99h1.18v-2.36h-1.18v-11.15h-2.83l-4.71,11.15v2.36h4.95ZM605.24,122.58c.56.54,1.49.82,2.8.82h.79v-2.24h-.64c-.43,0-.74-.1-.93-.31-.18-.21-.28-.59-.28-1.14v-9.11c0-.56.09-.94.28-1.14.19-.21.5-.31.93-.31h.64v-2.25h-.79c-1.3,0-2.24.27-2.8.82-.56.55-.84,1.48-.84,2.79v9.29c0,1.31.28,2.24.84,2.78M593.52,110.95c0-.69.13-1.18.39-1.46.26-.28.62-.43,1.08-.43s.82.14,1.08.42c.25.28.38.77.38,1.47v.92c0,1.16-.49,1.74-1.46,1.74s-1.47-.58-1.47-1.74v-.92ZM593.52,117.84c0-1.24.49-1.87,1.47-1.87s1.46.62,1.46,1.87v1.53c0,.69-.14,1.17-.39,1.45-.25.27-.61.41-1.06.41s-.82-.14-1.08-.42c-.26-.28-.39-.76-.39-1.44v-1.53ZM591.97,122.5c.7.72,1.7,1.08,3.01,1.08s2.31-.36,3-1.08c.7-.72,1.04-1.74,1.04-3.06v-1.3c0-1.69-.53-2.84-1.6-3.44,1.07-.6,1.6-1.7,1.6-3.31v-.53c0-1.32-.35-2.34-1.04-3.06-.69-.72-1.7-1.08-3-1.08s-2.31.36-3.01,1.08c-.7.72-1.05,1.74-1.05,3.06v.53c0,1.63.54,2.73,1.61,3.31-1.07.61-1.61,1.75-1.61,3.44v1.3c0,1.32.35,2.34,1.05,3.06M589.48,121.01h-2.59v2.38h2.59v-2.38ZM579.81,110.95c0-.69.13-1.18.38-1.46.26-.28.62-.43,1.08-.43s.82.14,1.07.42c.25.28.38.77.38,1.47v.92c0,1.16-.49,1.74-1.46,1.74s-1.47-.58-1.47-1.74v-.92ZM579.81,117.84c0-1.24.49-1.87,1.47-1.87s1.46.62,1.46,1.87v1.53c0,.69-.14,1.17-.39,1.45-.25.27-.61.41-1.06.41s-.82-.14-1.08-.42c-.26-.28-.38-.76-.38-1.44v-1.53ZM578.27,122.5c.7.72,1.7,1.08,3.01,1.08s2.31-.36,3-1.08c.7-.72,1.04-1.74,1.04-3.06v-1.3c0-1.69-.53-2.84-1.6-3.44,1.07-.6,1.6-1.7,1.6-3.31v-.53c0-1.32-.35-2.34-1.04-3.06-.7-.72-1.7-1.08-3-1.08s-2.31.36-3.01,1.08c-.7.72-1.05,1.74-1.05,3.06v.53c0,1.63.53,2.73,1.61,3.31-1.07.61-1.61,1.75-1.61,3.44v1.3c0,1.32.35,2.34,1.05,3.06"/>
  <rect class="st3" x="563.56" y="434.75" width="166.42" height="10.41"/>
  <rect class="st0" x="563.56" y="434.75" width="166.42" height="10.41"/>
  <rect class="st3" x="507.78" y="574.6" width="222.2" height="9.89"/>
  <rect class="st3" x="280.28" y="573.57" width="165.77" height="9.89"/>
  <rect class="st0" x="507.78" y="574.6" width="222.2" height="9.89"/>
  <rect class="st3" x="281.69" y="919.28" width="51.07" height="20.46"/>
  <rect class="st0" x="281.69" y="919.28" width="51.07" height="20.46"/>
  <rect class="st3" x="459.15" y="919.28" width="51.07" height="20.46"/>
  <rect class="st0" x="459.15" y="919.28" width="51.07" height="20.46"/>
  <rect class="st0" x="322.35" y="919.28" width="176.79" height="20.46"/>
  <rect class="st3" x="281.69" y="939.79" width="55.64" height="4.68"/>
  <rect class="st0" x="281.69" y="939.79" width="55.64" height="4.68"/>
  <rect class="st3" x="454.58" y="939.79" width="55.64" height="4.68"/>
  <rect class="st0" x="454.58" y="939.79" width="55.64" height="4.68"/>
  <rect class="st0" x="333.43" y="939.79" width="176.79" height="4.68"/>
  <path class="st0" d="M723.18,560.67l-31.32-54.28s4.45-2.83,14-5.26c9.55-2.43,16.19-2.43,16.19-2.43"/>
  <path class="st0" d="M502.11,441.86l54.28-31.32s2.83,4.45,5.26,14c2.43,9.55,2.43,16.19,2.43,16.19"/>
  <path class="st0" d="M501.4,578.52l-48.96,28.04s-2.55-3.98-4.74-12.53c-2.19-8.55-2.19-14.49-2.19-14.49"/>
  <path class="st0" d="M506.86,401.82l-54.28-31.32s-2.83,4.45-5.26,14c-2.43,9.55-2.43,16.19-2.43,16.19"/>
  <path class="st3" d="M473.31,526.67c.7.72,1.68,1.08,2.94,1.08s2.22-.36,2.88-1.08c.66-.72.98-1.74.98-3.07v-1.3c0-1.79-.6-2.94-1.81-3.46,1.21-.5,1.81-1.63,1.81-3.39v-.43c0-1.33-.33-2.35-.98-3.07-.66-.72-1.62-1.08-2.88-1.08s-2.25.36-2.94,1.08c-.7.72-1.04,1.74-1.04,3.07v.9h2.59v-1.06c0-1.08.44-1.62,1.33-1.62.44,0,.78.14,1,.41.23.28.34.77.34,1.47v.92c0,.63-.13,1.08-.39,1.34-.26.26-.65.4-1.16.4h-1.01v2.36h.88c.6,0,1.03.16,1.29.48.26.32.4.86.4,1.61v1.3c0,.69-.11,1.17-.34,1.45-.23.28-.56.41-1,.41-.88,0-1.33-.54-1.33-1.63v-1.53h-2.59v1.37c0,1.33.35,2.35,1.04,3.07M470.62,525.18h-2.59v2.38h2.59v-2.38ZM459.61,526.67c.7.72,1.68,1.08,2.94,1.08s2.22-.36,2.88-1.08c.65-.72.98-1.74.98-3.07v-1.3c0-1.79-.6-2.94-1.81-3.46,1.2-.5,1.81-1.63,1.81-3.39v-.43c0-1.33-.33-2.35-.98-3.07-.66-.72-1.62-1.08-2.88-1.08s-2.24.36-2.94,1.08c-.7.72-1.04,1.74-1.04,3.07v.9h2.59v-1.06c0-1.08.44-1.62,1.33-1.62.44,0,.78.14,1,.41.23.28.34.77.34,1.47v.92c0,.63-.13,1.08-.39,1.34-.26.26-.65.4-1.16.4h-1.01v2.36h.88c.6,0,1.03.16,1.29.48.26.32.4.86.4,1.61v1.3c0,.69-.11,1.17-.34,1.45-.23.28-.56.41-1,.41-.89,0-1.33-.54-1.33-1.63v-1.53h-2.59v1.37c0,1.33.35,2.35,1.04,3.07"/>
  <path class="st3" d="M498.58,484.21h1.23c.43,0,.75.12.96.35.21.23.31.63.31,1.2v2.48c0,.57-.1.97-.31,1.21-.21.24-.53.36-.96.36h-1.23v-5.59ZM498.58,498.35v-6.2h1.23c1.28,0,2.24-.35,2.89-1.04.65-.69.97-1.71.97-3.03v-2.14c0-1.33-.32-2.34-.97-3.04-.65-.7-1.61-1.05-2.89-1.05h-3.82v16.5h2.59ZM489.03,485.65c0-1.08.45-1.62,1.35-1.62s1.34.54,1.34,1.62v8.91c0,1.09-.45,1.63-1.34,1.63s-1.35-.54-1.35-1.63v-8.91ZM487.46,497.45c.68.72,1.65,1.08,2.92,1.08s2.24-.36,2.91-1.08c.68-.72,1.01-1.74,1.01-3.06v-8.59c0-1.32-.34-2.34-1.01-3.06-.67-.72-1.65-1.08-2.91-1.08s-2.24.36-2.92,1.08c-.68.72-1.02,1.74-1.02,3.06v8.59c0,1.32.34,2.34,1.02,3.06M478.61,495.21c.12-.32.19-.78.22-1.38l.47-9.62h2.19v11.8h-3.4c.23-.21.4-.48.51-.8M477.13,500.54v-2.19h5.49v2.19h2.59v-4.54h-1.13v-14.16h-7.37l-.47,12.02c-.02.51-.08.92-.18,1.25-.1.33-.25.62-.48.89h-1.05v4.54h2.59ZM467.76,498.35l2.18-7.56,1.05-4.04v11.6h2.59v-16.5h-3.11l-2.12,6.81-.94,3.64v-10.45h-2.31v16.5h2.66ZM458.8,484.21h1.23c.43,0,.75.12.95.35.21.23.31.63.31,1.2v2.48c0,.57-.1.97-.31,1.21-.21.24-.52.36-.95.36h-1.23v-5.59ZM458.8,498.35v-6.2h1.23c1.28,0,2.24-.35,2.89-1.04.64-.69.97-1.71.97-3.03v-2.14c0-1.33-.32-2.34-.97-3.04-.65-.7-1.61-1.05-2.89-1.05h-3.81v16.5h2.59ZM449.25,485.65c0-1.08.45-1.62,1.35-1.62s1.34.54,1.34,1.62v8.91c0,1.09-.45,1.63-1.34,1.63s-1.35-.54-1.35-1.63v-8.91ZM447.68,497.45c.68.72,1.65,1.08,2.92,1.08s2.24-.36,2.91-1.08c.68-.72,1.01-1.74,1.01-3.06v-8.59c0-1.32-.34-2.34-1.01-3.06-.68-.72-1.65-1.08-2.91-1.08s-2.24.36-2.92,1.08c-.68.72-1.02,1.74-1.02,3.06v8.59c0,1.32.34,2.34,1.02,3.06M439.72,498.35v-5.06l.81-1.51,2.52,6.57h2.66l-3.6-9.15,3.6-7.35h-2.59l-3.4,7.19v-7.19h-2.59v16.5h2.59Z"/>
  <path class="st3" d="M455.13,280.21l1.25,8.31h-2.5l1.25-8.31ZM453.1,293.76l.45-2.99h3.17l.45,2.99h2.59l-2.63-16.5h-4l-2.63,16.5h2.59ZM444.76,279.61v14.15h2.59v-14.15h2.72v-2.36h-8.02v2.36h2.72ZM437.16,280.21l1.25,8.31h-2.5l1.25-8.31ZM435.12,293.76l.45-2.99h3.17l.45,2.99h2.59l-2.63-16.5h-4l-2.63,16.5h2.59ZM425.74,293.76v-7.07h2.95v7.07h2.59v-16.5h-2.59v7.08h-2.95v-7.08h-2.59v16.5h2.59ZM412.65,293.76v-11.64l1.93,11.64h2.46l1.79-11.83v11.83h2.59v-16.5h-3.73l-1.78,11.76-1.92-11.76h-3.6v16.5h2.26ZM403.45,281.05c0-1.08.45-1.62,1.35-1.62s1.34.54,1.34,1.62v8.91c0,1.09-.45,1.63-1.34,1.63s-1.35-.54-1.35-1.63v-8.91ZM401.88,292.86c.68.72,1.65,1.08,2.92,1.08s2.24-.36,2.91-1.08c.68-.72,1.01-1.74,1.01-3.06v-8.59c0-1.32-.34-2.34-1.01-3.06-.68-.72-1.65-1.08-2.91-1.08s-2.24.36-2.92,1.08c-.68.72-1.02,1.74-1.02,3.06v8.59c0,1.32.34,2.34,1.02,3.06M393.92,293.76v-5.06l.81-1.51,2.52,6.57h2.66l-3.6-9.15,3.6-7.35h-2.59l-3.4,7.19v-7.19h-2.59v16.5h2.59ZM380.64,281.31c0-.59.11-1.02.32-1.29.21-.27.55-.41,1.01-.41h1.24v5.08h-1.01c-.51,0-.9-.13-1.16-.4-.26-.26-.39-.72-.39-1.35v-1.62ZM380.38,293.76c.06-.19.1-.34.13-.43.02-.1.05-.28.08-.55.03-.27.04-.62.04-1.04v-2.59c0-.76.13-1.3.4-1.62.27-.32.7-.49,1.29-.49h.9v6.72h2.59v-16.5h-3.91c-1.33,0-2.3.31-2.91.93-.62.62-.92,1.58-.92,2.87v1.3c0,1.7.56,2.82,1.69,3.35-.62.26-1.06.68-1.32,1.26-.26.58-.39,1.33-.39,2.25v2.54c0,.89-.08,1.56-.24,2h2.59ZM372.57,280.21l1.26,8.31h-2.5l1.25-8.31ZM370.54,293.76l.45-2.99h3.17l.45,2.99h2.59l-2.63-16.5h-4l-2.63,16.5h2.59ZM357.71,293.78c1.3,0,2.24-.32,2.83-.97.59-.64.9-1.72.95-3.22l.29-9.98h2.25v14.15h2.59v-16.5h-7.42l-.29,12.48c-.01.38-.05.69-.1.91-.05.22-.15.39-.28.51-.13.12-.29.19-.46.22-.17.03-.42.05-.74.05v2.36h.4ZM350.63,293.76l2.19-7.56,1.05-4.04v11.6h2.59v-16.5h-3.11l-2.12,6.81-.94,3.64v-10.45h-2.31v16.5h2.66ZM335.57,293.76l2.37-7.35.64,1.28v6.07h2.59v-6.05l.65-1.25,2.36,7.3h2.59l-3.18-9.77,3.18-6.73h-2.52l-3.07,6.68v-6.68h-2.59v6.68l-3.07-6.68h-2.52l3.22,6.77-3.22,9.74h2.59Z"/>
  <circle class="st0" cx="617.95" cy="257.22" r="33.02" transform="translate(143.83 729.7) rotate(-67.5)"/>
  <path class="st3" d="M635.43,354.99c0-.59.11-1.02.32-1.29.21-.27.55-.41,1.01-.41h1.24v5.08h-1.01c-.51,0-.9-.13-1.16-.4-.26-.26-.39-.72-.39-1.35v-1.62ZM635.17,367.43c.06-.19.1-.34.13-.43.02-.1.05-.28.08-.55.03-.27.04-.62.04-1.04v-2.59c0-.76.13-1.3.4-1.62.27-.32.7-.49,1.29-.49h.9v6.72h2.59v-16.5h-3.91c-1.33,0-2.3.31-2.91.93-.62.62-.92,1.58-.92,2.87v1.3c0,1.7.56,2.82,1.69,3.35-.62.26-1.06.68-1.32,1.26-.26.58-.39,1.33-.39,2.25v2.54c0,.89-.08,1.56-.24,2h2.59ZM625.53,367.43v-7.07h2.95v7.07h2.59v-16.5h-2.59v7.08h-2.95v-7.08h-2.59v16.5h2.59ZM614.82,367.43l2.01-6.14,1.99,6.14h2.59l-2.89-8.41,2.71-8.1h-2.27l-2,6.12-1.97-6.12h-2.59l2.71,8-2.9,8.5h2.59ZM606.05,363.63l-.02.15c-.1.57-.33.94-.69,1.13-.36.18-.89.25-1.6.21v2.35c.7.05,1.31.02,1.83-.07.52-.1.96-.25,1.32-.46.36-.21.67-.5.92-.87.25-.38.46-.78.62-1.23.16-.44.3-.98.43-1.62l2.77-12.28h-2.59l-1.18,5.66-.61,3.82-.8-3.86-1.4-5.63h-2.59l3.6,12.7ZM596.05,367.43v-5.06l.81-1.51,2.52,6.57h2.66l-3.6-9.15,3.6-7.35h-2.59l-3.4,7.19v-7.19h-2.59v16.5h2.59Z"/>
  <path class="st3" d="M620.29,533.65c.7.72,1.68,1.08,2.94,1.08s2.22-.36,2.88-1.08c.65-.72.98-1.74.98-3.07v-1.3c0-1.79-.6-2.94-1.81-3.46,1.2-.5,1.81-1.63,1.81-3.4v-.42c0-1.33-.33-2.35-.98-3.07-.66-.72-1.62-1.07-2.88-1.07s-2.24.36-2.94,1.07c-.7.72-1.05,1.74-1.05,3.07v.9h2.59v-1.06c0-1.08.44-1.62,1.33-1.62.44,0,.78.14,1,.41.23.28.34.77.34,1.47v.92c0,.63-.13,1.08-.39,1.34-.26.26-.65.4-1.16.4h-1.01v2.36h.88c.6,0,1.03.16,1.29.48.26.32.4.86.4,1.61v1.3c0,.69-.11,1.17-.34,1.45-.23.28-.56.41-1,.41-.89,0-1.33-.54-1.33-1.64v-1.53h-2.59v1.37c0,1.33.35,2.35,1.05,3.07M617.6,532.16h-2.59v2.38h2.59v-2.38ZM610.67,520.4l-3.8,14.15h2.59l3.82-14.24v-2.27h-7.77v2.36h5.16Z"/>
  <path class="st3" d="M651.03,498.72c0-.59.11-1.02.32-1.29.21-.27.55-.41,1.01-.41h1.24v5.08h-1.01c-.51,0-.9-.13-1.16-.4-.26-.26-.39-.72-.39-1.35v-1.62ZM650.76,511.16c.06-.19.1-.34.13-.43.02-.1.05-.28.08-.55.03-.27.04-.62.04-1.04v-2.59c0-.76.13-1.3.4-1.62.27-.32.7-.49,1.29-.49h.9v6.72h2.59v-16.5h-3.91c-1.33,0-2.3.31-2.91.93-.61.62-.92,1.58-.92,2.87v1.3c0,1.7.56,2.82,1.69,3.35-.62.26-1.06.68-1.32,1.26-.26.58-.39,1.33-.39,2.25v2.54c0,.89-.08,1.56-.24,2h2.59ZM642.95,497.61l1.26,8.31h-2.5l1.25-8.31ZM640.92,511.16l.45-2.99h3.17l.45,2.99h2.59l-2.63-16.5h-4l-2.63,16.5h2.59ZM626.62,511.16l2.37-7.35.64,1.28v6.07h2.59v-6.05l.65-1.25,2.36,7.3h2.59l-3.18-9.77,3.18-6.73h-2.52l-3.07,6.68v-6.68h-2.59v6.68l-3.07-6.68h-2.52l3.22,6.77-3.22,9.74h2.59ZM617.82,498.45c0-1.08.45-1.62,1.35-1.62s1.34.54,1.34,1.62v8.91c0,1.09-.45,1.63-1.34,1.63s-1.35-.54-1.35-1.63v-8.91ZM616.25,510.26c.68.72,1.65,1.08,2.92,1.08s2.24-.36,2.91-1.08c.68-.72,1.01-1.74,1.01-3.06v-8.59c0-1.32-.34-2.34-1.01-3.06-.68-.72-1.65-1.08-2.91-1.08s-2.24.36-2.92,1.08c-.68.72-1.02,1.74-1.02,3.06v8.59c0,1.32.34,2.34,1.02,3.06M607.33,511.16l2.01-6.14,1.99,6.14h2.59l-2.89-8.41,2.71-8.1h-2.28l-2,6.12-1.97-6.12h-2.59l2.71,8-2.9,8.5h2.59ZM597.92,511.16l2.19-7.56,1.05-4.04v11.6h2.59v-16.5h-3.11l-2.12,6.81-.94,3.64v-10.45h-2.31v16.5h2.66ZM588.97,497.01h1.23c.43,0,.75.12.96.35.21.23.31.63.31,1.2v2.48c0,.57-.11.97-.31,1.21-.21.24-.52.36-.96.36h-1.23v-5.59ZM588.97,511.16v-6.2h1.23c1.28,0,2.24-.35,2.89-1.04s.97-1.71.97-3.03v-2.14c0-1.33-.32-2.34-.97-3.04-.65-.7-1.61-1.05-2.89-1.05h-3.81v16.5h2.59ZM578.91,511.16v-14.15h2.95v14.15h2.59v-16.5h-8.12v16.5h2.59Z"/>
  <rect class="st3" x="285.8" y="396.02" width="158.26" height="8.33"/>
  <rect class="st0" x="285.8" y="396.02" width="158.26" height="8.33"/>
  <rect class="st3" x="421" y="475.94" width="6.77" height="57.08"/>
  <rect class="st0" x="421" y="475.94" width="6.77" height="57.08"/>
  <rect class="st3" x="421" y="397.41" width="6.77" height="43.34"/>
  <rect class="st0" x="421" y="397.41" width="6.77" height="43.34"/>
  <rect class="st3" x="288.82" y="511.72" width="134.95" height="6.07"/>
  <rect class="st0" x="288.82" y="511.72" width="134.95" height="6.07"/>
  <rect class="st0" x="293.98" y="519.11" width="18.4" height="55.23"/>
  <line class="st0" x1="309.5" y1="519.31" x2="309.5" y2="574.58"/>
  <polyline class="st0" points="309.52 521.97 296.21 523.19 296.21 558.14 309.52 559.68 309.52 561.98 296.06 563.51 296.06 571.33 309.52 573.01"/>
  <rect class="st0" x="312.9" y="519.11" width="18.4" height="55.23"/>
  <line class="st0" x1="328.42" y1="574.14" x2="328.42" y2="518.88"/>
  <polyline class="st0" points="328.44 571.48 315.13 570.26 315.13 535.31 328.44 533.77 328.44 531.47 314.98 529.94 314.98 522.12 328.44 520.44"/>
  <path class="st0" d="M420.33,583.39l26.29-46.02s-3.74-2.4-11.75-4.46c-8.01-2.06-13.58-2.06-13.58-2.06"/>
  <path class="st0" d="M420.79,428.22l24.14,42.39s-3.43,2.21-10.79,4.1c-7.36,1.9-12.48,1.9-12.48,1.9"/>
  <rect class="st0" x="383.08" y="475.98" width="36.66" height="35.47"/>
  <line class="st0" x1="419.84" y1="510.96" x2="383.23" y2="476.1"/>
  <line class="st0" x1="419.84" y1="475.7" x2="383.23" y2="510.56"/>
  <path class="st3" d="M376.86,545.34c0,6.27-5.1,11.38-11.38,11.38h-16.47c-1.08,0-1.96-.88-1.96-1.96v-18.82c0-1.08.88-1.96,1.96-1.96h16.47c6.27,0,11.38,5.1,11.38,11.37M346.28,554.75c0,1.51,1.23,2.74,2.74,2.74h16.47c6.7,0,12.15-5.45,12.15-12.15,0-6.7-5.45-12.15-12.15-12.15h-16.47c-1.51,0-2.74,1.23-2.74,2.74v18.82"/>
  <path class="st0" d="M365.49,556.72h-16.47c-1.08,0-1.96-.88-1.96-1.96v-18.82c0-1.08.88-1.96,1.96-1.96h16.47c6.27,0,11.38,5.1,11.38,11.37,0,6.27-5.1,11.38-11.38,11.38ZM349.02,557.5h16.47c6.7,0,12.15-5.45,12.15-12.15,0-6.7-5.45-12.15-12.15-12.15h-16.47c-1.51,0-2.74,1.23-2.74,2.74v18.82c0,1.51,1.23,2.74,2.74,2.74Z"/>
  <path class="st0" d="M352.55,537.19v16.31c0,.11.09.2.2.2h12.41c4.59,0,8.35-3.76,8.35-8.35,0-4.59-3.76-8.35-8.35-8.35h-12.41c-.1,0-.2.09-.2.19Z"/>
  <path class="st3" d="M365.16,537.39c4.39,0,7.96,3.57,7.96,7.96,0,4.39-3.57,7.96-7.96,7.96h-12.22v-15.92h12.22ZM352.16,553.49c0,.32.27.59.59.59h12.41c4.82,0,8.74-3.92,8.74-8.74,0-4.82-3.92-8.74-8.74-8.74h-12.41c-.32,0-.59.27-.59.58v16.31"/>
  <path class="st0" d="M365.16,537.39c4.39,0,7.96,3.57,7.96,7.96,0,4.39-3.57,7.96-7.96,7.96h-12.22v-15.92h12.22ZM352.75,554.09h12.41c4.82,0,8.74-3.92,8.74-8.74,0-4.82-3.92-8.74-8.74-8.74h-12.41c-.32,0-.59.27-.59.58v16.31c0,.32.27.59.59.59Z"/>
  <path class="st3" d="M365.18,545.34c0,1.19-.96,2.15-2.15,2.15s-2.15-.96-2.15-2.15c0-1.18.97-2.15,2.15-2.15,1.19,0,2.15.97,2.15,2.15M360.1,545.34c0,1.62,1.31,2.93,2.93,2.93,1.62,0,2.93-1.31,2.93-2.93,0-1.62-1.31-2.93-2.93-2.93-1.62,0-2.93,1.31-2.93,2.93"/>
  <path class="st0" d="M363.03,547.49c-1.18,0-2.15-.96-2.15-2.15,0-1.18.97-2.15,2.15-2.15,1.19,0,2.15.97,2.15,2.15,0,1.19-.96,2.15-2.15,2.15ZM363.03,548.28c1.62,0,2.93-1.31,2.93-2.93,0-1.62-1.31-2.93-2.93-2.93-1.62,0-2.93,1.31-2.93,2.93,0,1.62,1.31,2.93,2.93,2.93Z"/>
  <rect class="st3" x="356.58" y="537.37" width=".78" height="6.52" transform="translate(-289.83 503.83) rotate(-53.31)"/>
  <rect class="st0" x="356.58" y="537.37" width=".78" height="6.52" transform="translate(-289.83 503.83) rotate(-53.31)"/>
  <polygon class="st3" points="354.13 551.57 359.35 547.66 359.82 548.29 354.6 552.2 354.13 551.57"/>
  <polygon class="st0" points="354.13 551.57 359.35 547.66 359.82 548.29 354.6 552.2 354.13 551.57"/>
  <path class="st3" d="M346.24,553.19c0,1.74-1.41,3.15-3.15,3.15h-4.29c-1.74,0-3.16-1.41-3.16-3.15v-15.7c0-1.74,1.42-3.15,3.16-3.15h4.29c1.74,0,3.15,1.41,3.15,3.15v15.7ZM334.87,553.19c0,2.17,1.77,3.93,3.93,3.93h4.29c2.17,0,3.93-1.77,3.93-3.93v-15.7c0-2.17-1.76-3.93-3.93-3.93h-4.29c-2.17,0-3.93,1.76-3.93,3.93v15.7"/>
  <path class="st0" d="M346.24,553.19c0,1.74-1.41,3.15-3.15,3.15h-4.29c-1.74,0-3.16-1.41-3.16-3.15v-15.7c0-1.74,1.42-3.15,3.16-3.15h4.29c1.74,0,3.15,1.41,3.15,3.15v15.7ZM338.8,557.13h4.29c2.17,0,3.93-1.77,3.93-3.93v-15.7c0-2.17-1.76-3.93-3.93-3.93h-4.29c-2.17,0-3.93,1.76-3.93,3.93v15.7c0,2.17,1.77,3.93,3.93,3.93Z"/>
  <path class="st3" d="M342.16,545.34c0,.67-.55,1.22-1.22,1.22-.67,0-1.22-.55-1.22-1.22,0-.67.54-1.22,1.22-1.22.67,0,1.22.55,1.22,1.22M338.94,545.34c0,1.1.89,2,2,2,1.11,0,2-.9,2-2s-.9-2-2-2c-1.1,0-2,.89-2,2"/>
  <path class="st0" d="M340.94,546.56c-.67,0-1.22-.55-1.22-1.22,0-.67.54-1.22,1.22-1.22.67,0,1.22.55,1.22,1.22,0,.67-.55,1.22-1.22,1.22ZM340.94,547.34c1.11,0,2-.9,2-2s-.9-2-2-2c-1.1,0-2,.89-2,2,0,1.1.89,2,2,2Z"/>
  <path class="st3" d="M351.86,486.02c-6.07,0-11,4.92-11,10.96v11.63c0,.92.75,1.66,1.67,1.66h24.86c.92,0,1.67-.75,1.67-1.66v-11.63c0-6.04-4.93-10.96-11-10.96h-6.2ZM342.53,510.89c-1.26,0-2.29-1.02-2.29-2.28v-11.63c0-6.38,5.21-11.58,11.62-11.58h6.2c6.41,0,11.62,5.19,11.62,11.58v11.63c0,1.26-1.03,2.28-2.29,2.28h-24.86"/>
  <path class="st0" d="M351.86,486.02c-6.07,0-11,4.92-11,10.96v11.63c0,.92.75,1.66,1.67,1.66h24.86c.92,0,1.67-.75,1.67-1.66v-11.63c0-6.04-4.93-10.96-11-10.96h-6.2ZM340.24,508.61v-11.63c0-6.38,5.21-11.58,11.62-11.58h6.2c6.41,0,11.62,5.19,11.62,11.58v11.63c0,1.26-1.03,2.28-2.29,2.28h-24.86c-1.26,0-2.29-1.02-2.29-2.28Z"/>
  <path class="st3" d="M351.86,488.77c-4.55,0-8.25,3.69-8.25,8.22v6.79c0,.79.64,1.43,1.44,1.43h19.82c.79,0,1.44-.64,1.44-1.43v-6.79c0-4.53-3.7-8.22-8.24-8.22h-6.21ZM345.05,505.83c-1.13,0-2.06-.92-2.06-2.05v-6.79c0-4.87,3.98-8.84,8.87-8.84h6.21c4.89,0,8.86,3.96,8.86,8.84v6.79c0,1.13-.92,2.05-2.06,2.05h-19.82"/>
  <path class="st0" d="M351.86,488.77c-4.55,0-8.25,3.69-8.25,8.22v6.79c0,.79.64,1.43,1.44,1.43h19.82c.79,0,1.44-.64,1.44-1.43v-6.79c0-4.53-3.7-8.22-8.24-8.22h-6.21ZM342.99,503.78v-6.79c0-4.87,3.98-8.84,8.87-8.84h6.21c4.89,0,8.86,3.96,8.86,8.84v6.79c0,1.13-.92,2.05-2.06,2.05h-19.82c-1.13,0-2.06-.92-2.06-2.05Z"/>
  <path class="st3" d="M354.96,494.51c-.76,0-1.38.62-1.38,1.38,0,.76.62,1.38,1.38,1.38.76,0,1.39-.62,1.39-1.38,0-.76-.62-1.38-1.39-1.38M354.96,497.9c-1.11,0-2.01-.9-2.01-2,0-1.11.9-2.01,2.01-2.01s2.01.9,2.01,2.01-.9,2-2.01,2"/>
  <path class="st0" d="M353.58,495.89c0,.76.62,1.38,1.38,1.38.76,0,1.39-.62,1.39-1.38,0-.76-.62-1.38-1.39-1.38-.76,0-1.38.62-1.38,1.38ZM352.95,495.89c0-1.11.9-2.01,2.01-2.01s2.01.9,2.01,2.01-.9,2-2.01,2-2.01-.9-2.01-2Z"/>
  <path class="st0" d="M314.03,491.99c-.85,0-1.54-.7-1.54-1.57,0-.87.69-1.57,1.54-1.57s1.54.7,1.54,1.57-.69,1.57-1.54,1.57Z"/>
  <rect class="st0" x="296.88" y="409.32" width="36.68" height="97.43" rx="10.35" ry="10.35"/>
  <path class="st0" d="M310.66,416.09h9.14c5.71,0,10.35,4.64,10.35,10.35v63.21c0,5.71-4.64,10.35-10.35,10.35h-9.14c-5.71,0-10.35-4.64-10.35-10.35v-63.2c0-5.71,4.64-10.35,10.35-10.35Z"/>
  <rect class="st0" x="303.6" y="424.25" width="23.25" height="72" rx="5.17" ry="5.17"/>
  <polygon class="st0" points="293.83 510.56 293.83 510.56 293.83 405.51 336.62 405.51 336.62 510.56 293.83 510.56"/>
  <path class="st3" d="M406.77,538.99l-.02.15c-.1.57-.33.94-.69,1.13-.36.18-.89.25-1.6.21v2.35c.7.05,1.31.02,1.83-.08.52-.1.96-.25,1.32-.46.36-.21.67-.5.92-.87.25-.38.46-.78.62-1.23.16-.44.3-.98.43-1.61l2.77-12.28h-2.59l-1.18,5.66-.61,3.82-.8-3.86-1.4-5.63h-2.59l3.6,12.7ZM396.36,542.79l6.5-16.5h-2.25l-6.5,16.5h2.24ZM386.62,541.9c.66.72,1.62,1.08,2.89,1.08s2.25-.36,2.95-1.08c.7-.72,1.04-1.74,1.04-3.07v-2.2h-2.59v2.36c0,1.07-.45,1.61-1.34,1.61s-1.35-.54-1.35-1.61v-8.91c0-1.08.45-1.62,1.35-1.62s1.34.54,1.34,1.62v1.77h2.59v-1.61c0-1.33-.35-2.35-1.04-3.07-.7-.72-1.68-1.08-2.95-1.08s-2.23.36-2.89,1.08c-.66.72-.99,1.74-.99,3.07v8.59c0,1.33.33,2.35.99,3.07"/>
  <path class="st3" d="M401.17,422.02c0-.59.11-1.02.32-1.29.21-.27.55-.41,1.01-.41h1.24v5.08h-1.01c-.51,0-.9-.13-1.16-.4-.26-.26-.39-.72-.39-1.35v-1.62ZM400.91,434.46c.06-.19.1-.34.12-.43.02-.1.05-.28.08-.55.03-.27.04-.62.04-1.04v-2.59c0-.76.13-1.3.4-1.62.27-.32.7-.49,1.29-.49h.9v6.72h2.59v-16.5h-3.91c-1.33,0-2.3.31-2.91.93-.61.62-.92,1.58-.92,2.87v1.3c0,1.7.56,2.82,1.69,3.35-.62.26-1.06.68-1.32,1.26-.26.58-.39,1.33-.39,2.25v2.54c0,.89-.08,1.56-.24,2h2.59ZM393.1,420.92l1.25,8.31h-2.5l1.25-8.31ZM391.07,434.46l.45-2.99h3.17l.45,2.99h2.59l-2.63-16.5h-4l-2.63,16.5h2.59ZM381.69,434.46v-7.07h2.95v7.07h2.59v-16.5h-2.59v7.08h-2.95v-7.08h-2.59v16.5h2.59ZM371.63,434.46v-7.07h2.95v7.07h2.59v-16.5h-2.59v7.08h-2.95v-7.08h-2.59v16.5h2.59ZM363.4,420.92l1.25,8.31h-2.5l1.25-8.31ZM361.37,434.46l.45-2.99h3.17l.45,2.99h2.59l-2.63-16.5h-4l-2.63,16.5h2.59ZM352.48,420.32h1.26c.46,0,.8.14,1.01.41.21.27.31.7.31,1.29v.92c0,.63-.13,1.08-.39,1.34-.26.26-.65.4-1.17.4h-1.02v-4.36ZM352.48,427.04h1.16c.6,0,1.02.15,1.28.44.26.29.38.81.38,1.57v1.44c0,.59-.11,1.01-.33,1.25-.22.25-.56.37-1.01.37h-1.49v-5.06ZM353.97,434.46c1.29,0,2.27-.33,2.93-1,.67-.67,1-1.64,1-2.91v-1.35c0-1.86-.64-3.04-1.93-3.54,1.12-.53,1.68-1.64,1.68-3.32v-.59c0-1.29-.31-2.24-.93-2.87-.62-.62-1.59-.93-2.92-.93h-3.91v16.5h4.07Z"/>
  <g>
    <path class="st3" d="M391.01,552.76h-2.54v-1.72c.69,0,1.25-.06,1.67-.18.42-.12.75-.31,1-.58.25-.27.47-.67.66-1.18h1.63v15.44h-2.43v-11.78Z"/>
    <path class="st3" d="M396.44,562.2h2.34v2.34h-2.34v-2.34Z"/>
    <path class="st3" d="M401.32,563.77c-.61-.66-.92-1.61-.92-2.85v-1.26h2.29v1.37c0,1.01.42,1.52,1.26,1.52.41,0,.72-.13.94-.39.21-.26.32-.71.32-1.36v-1.26c0-.71-.12-1.21-.38-1.51-.25-.3-.65-.45-1.21-.45h-.82v-2.21h.88c.49,0,.85-.12,1.09-.38s.36-.67.36-1.26v-1.13c0-.53-.11-.92-.33-1.17-.22-.25-.52-.38-.88-.38-.78,0-1.17.48-1.17,1.43v1.01h-2.29v-.82c0-1.24.31-2.18.92-2.85s1.49-.99,2.64-.99,2.04.33,2.65.98.9,1.6.9,2.83v.55c0,.84-.14,1.51-.42,2.02-.28.51-.71.87-1.3,1.09v.04c.63.24,1.09.62,1.37,1.15.28.53.42,1.21.42,2.03v1.37c0,1.24-.31,2.18-.92,2.84-.61.65-1.51.98-2.7.98s-2.09-.33-2.7-.99Z"/>
  </g>
  <g>
    <path class="st3" d="M368.25,459.47c-.61-.66-.92-1.61-.92-2.85v-1.26h2.29v1.37c0,1.02.42,1.52,1.26,1.52.41,0,.72-.13.94-.39.21-.26.32-.71.32-1.36v-1.26c0-.71-.12-1.21-.38-1.51-.25-.3-.65-.45-1.21-.45h-.82v-2.21h.88c.49,0,.85-.12,1.09-.38.24-.25.36-.67.36-1.26v-1.12c0-.53-.11-.92-.33-1.17-.22-.25-.52-.38-.88-.38-.78,0-1.17.48-1.17,1.43v1.02h-2.29v-.82c0-1.24.31-2.18.92-2.85.61-.66,1.49-.99,2.64-.99s2.04.33,2.65.98c.6.65.9,1.6.9,2.84v.55c0,.84-.14,1.51-.42,2.02s-.71.87-1.3,1.09v.04c.63.24,1.09.62,1.37,1.15.28.53.42,1.21.42,2.03v1.37c0,1.24-.31,2.18-.92,2.84-.61.65-1.51.98-2.7.98s-2.09-.33-2.7-.99Z"/>
    <path class="st3" d="M376.34,457.91h2.34v2.34h-2.34v-2.34Z"/>
    <path class="st3" d="M385.23,447.01h-4.9v-2.21h7.28v2.12l-3.79,13.33h-2.47l3.88-13.24Z"/>
  </g>
  <g>
    <path class="st3" d="M605.01,381.27h-2.54v-1.72c.69,0,1.25-.06,1.67-.18.42-.12.75-.31,1-.58.25-.27.47-.67.66-1.18h1.63v15.44h-2.43v-11.78Z"/>
    <path class="st3" d="M614.5,390.25h-4.63v-2.21l4.41-10.44h2.65v10.44h1.15v2.21h-1.15v2.8h-2.43v-2.8ZM614.5,388.04v-6.02h-.04l-2.38,6.02h2.43Z"/>
    <path class="st3" d="M619.26,390.71h2.34v2.34h-2.34v-2.34Z"/>
    <path class="st3" d="M623.37,391.37c0-1.1.18-2.05.53-2.84.35-.79.99-1.66,1.9-2.61.9-.96,1.52-1.77,1.87-2.45.34-.68.52-1.38.52-2.12,0-.66-.11-1.12-.32-1.38-.21-.26-.53-.39-.94-.39-.84,0-1.26.51-1.26,1.52v1.65h-2.29v-1.5c0-1.25.31-2.21.93-2.88.62-.67,1.51-1,2.69-1s2.07.33,2.69,1c.62.67.93,1.63.93,2.88,0,.94-.22,1.86-.67,2.76-.45.9-1.22,1.93-2.33,3.09-.72.76-1.21,1.39-1.46,1.86s-.38.99-.38,1.53v.33h4.61v2.21h-7.02v-1.68Z"/>
  </g>
  <g>
    <path class="st3" d="M340.41,786.3l3.01-9.11-3.01-6.34h2.36l2.87,6.25v-6.25h2.42v6.25l2.87-6.25h2.36l-2.98,6.3,2.98,9.15h-2.42l-2.21-6.83-.61,1.17v5.66h-2.42v-5.68l-.6-1.2-2.22,6.88h-2.42Z"/>
    <path class="st3" d="M354.44,786.3v-15.45h2.17v9.78l.88-3.4,1.98-6.38h2.91v15.45h-2.42v-10.86l-.98,3.78-2.05,7.08h-2.49Z"/>
    <path class="st3" d="M363.19,786.32v-2.21c.3,0,.53-.01.69-.04.16-.03.31-.1.44-.21s.22-.27.27-.48c.05-.21.08-.49.1-.85l.27-11.68h6.95v15.45h-2.42v-13.24h-2.1l-.27,9.34c-.04,1.41-.34,2.41-.89,3.02-.55.6-1.43.91-2.64.91h-.38Z"/>
    <path class="st3" d="M373.14,786.3l2.46-15.45h3.74l2.46,15.45h-2.42l-.42-2.8h-2.97l-.42,2.8h-2.42ZM376.3,781.39h2.34l-1.17-7.78-1.17,7.78Z"/>
    <path class="st3" d="M382.35,786.3c.15-.42.23-1.04.23-1.88v-2.38c0-.85.12-1.55.37-2.1s.66-.94,1.24-1.18c-1.06-.5-1.58-1.54-1.58-3.14v-1.22c0-1.21.29-2.1.86-2.68.57-.58,1.48-.87,2.73-.87h3.66v15.45h-2.42v-6.29h-.84c-.55,0-.96.15-1.21.45s-.38.81-.38,1.52v2.42c0,.4-.01.72-.04.98-.02.25-.05.43-.07.52s-.06.22-.12.4h-2.42ZM385.03,776.17c0,.6.12,1.02.37,1.27s.61.37,1.09.37h.95v-4.75h-1.16c-.43,0-.75.13-.94.38-.2.25-.3.66-.3,1.21v1.52Z"/>
    <path class="st3" d="M395.03,786.3v-15.45h2.42v6.73l3.18-6.73h2.42l-3.37,6.88,3.37,8.56h-2.49l-2.36-6.15-.75,1.41v4.74h-2.42Z"/>
    <path class="st3" d="M403.96,782.59v-8.04c0-1.24.32-2.19.95-2.87.64-.68,1.55-1.01,2.74-1.01s2.1.34,2.73,1.01c.63.67.95,1.63.95,2.87v8.04c0,1.24-.32,2.19-.95,2.87-.63.67-1.54,1.01-2.73,1.01s-2.1-.34-2.74-1.01c-.64-.68-.95-1.63-.95-2.87ZM406.38,782.74c0,1.02.42,1.53,1.27,1.53s1.25-.51,1.25-1.53v-8.34c0-1.01-.42-1.52-1.25-1.52s-1.27.51-1.27,1.52v8.34Z"/>
    <path class="st3" d="M412.88,786.3v-15.45h3.37l1.79,11,1.66-11h3.49v15.45h-2.42v-11.08l-1.68,11.08h-2.3l-1.81-10.9v10.9h-2.11Z"/>
    <path class="st3" d="M424.82,786.3v-15.45h2.42v6.63h2.76v-6.63h2.42v15.45h-2.42v-6.62h-2.76v6.62h-2.42Z"/>
    <path class="st3" d="M433.6,786.3l2.46-15.45h3.74l2.46,15.45h-2.42l-.42-2.8h-2.97l-.42,2.8h-2.42ZM436.76,781.39h2.34l-1.17-7.78-1.17,7.78Z"/>
    <path class="st3" d="M442.5,773.06v-2.21h7.51v2.21h-2.54v13.24h-2.42v-13.24h-2.54Z"/>
    <path class="st3" d="M450.43,786.3l2.46-15.45h3.74l2.46,15.45h-2.42l-.42-2.8h-2.97l-.42,2.8h-2.42ZM453.59,781.39h2.34l-1.17-7.78-1.17,7.78Z"/>
  </g>
  <g>
    <path class="st3" d="M375.35,313.76v-1.71c.36,0,.68-.04.96-.11.28-.08.51-.17.68-.27.17-.1.33-.25.47-.44.14-.19.25-.36.32-.52s.15-.36.25-.61h1.64v15.45h-2.42v-11.79h-1.89Z"/>
    <path class="st3" d="M382.6,325.55v-1.9c0-.61.09-1.19.27-1.73.18-.54.41-1.02.69-1.42s.6-.8.94-1.19.69-.77,1.03-1.15c.34-.38.66-.77.94-1.17.28-.4.51-.87.69-1.4.17-.53.26-1.09.26-1.7,0-.66-.1-1.12-.31-1.38-.21-.26-.52-.39-.93-.39-.84,0-1.26.51-1.26,1.52v1.66h-2.32v-1.51c0-1.24.31-2.2.94-2.87.62-.67,1.52-1.01,2.7-1.01s2.07.34,2.69,1.01c.61.67.92,1.63.92,2.87,0,.66-.09,1.29-.27,1.9s-.41,1.14-.69,1.61c-.28.47-.59.91-.93,1.34-.34.43-.68.83-1.02,1.2-.34.37-.66.72-.94,1.06-.28.34-.51.69-.69,1.05-.18.36-.27.71-.27,1.04,0,.15,0,.26.02.33h4.57v2.21h-7.01Z"/>
    <path class="st3" d="M391.34,325.55v-2.23h2.42v2.23h-2.42Z"/>
    <path class="st3" d="M396.92,313.76v-1.71c.36,0,.68-.04.96-.11.28-.08.51-.17.68-.27.17-.1.33-.25.47-.44.14-.19.25-.36.32-.52s.15-.36.25-.61h1.64v15.45h-2.42v-11.79h-1.89Z"/>
  </g>
  <g>
    <path class="st3" d="M602.58,266.12v-2.56h4.85v2.87c0,2.04.83,3.06,2.49,3.06.83,0,1.46-.26,1.88-.78.42-.52.63-1.42.63-2.71v-2.43c0-1.41-.25-2.41-.74-3.02-.5-.6-1.3-.91-2.42-.91h-1.64v-4.42h1.9c.96,0,1.69-.25,2.18-.74.49-.5.73-1.33.73-2.51v-1.72c0-1.32-.21-2.24-.63-2.76-.42-.52-1.05-.78-1.88-.78-1.66,0-2.49,1.01-2.49,3.04v1.98h-4.85v-1.68c0-2.48.65-4.4,1.96-5.74,1.3-1.34,3.14-2.01,5.5-2.01s4.16.67,5.39,2.01c1.23,1.34,1.84,3.26,1.84,5.74v.8c0,3.3-1.13,5.42-3.38,6.36,2.25.98,3.38,3.14,3.38,6.49v2.44c0,2.49-.61,4.4-1.84,5.74-1.23,1.34-3.03,2.01-5.39,2.01s-4.2-.67-5.5-2.01c-1.3-1.34-1.96-3.26-1.96-5.74Z"/>
    <path class="st3" d="M619.9,266.12v-16.07c0-2.48.62-4.4,1.84-5.74,1.23-1.34,3.03-2.01,5.41-2.01s4.22.67,5.52,2.01c1.31,1.34,1.96,3.26,1.96,5.74v3.02h-4.85v-3.32c0-2.03-.84-3.04-2.51-3.04s-2.53,1.01-2.53,3.04v16.68c0,2.01.84,3.02,2.53,3.02s2.51-1.01,2.51-3.02v-4.42h4.85v4.12c0,2.49-.65,4.4-1.96,5.74-1.3,1.34-3.15,2.01-5.52,2.01s-4.18-.67-5.41-2.01c-1.23-1.34-1.84-3.26-1.84-5.74Z"/>
  </g>
  <g>
    <path class="st3" d="M583.95,329.02v-18.43c0-6.25,2.88-9.38,8.65-9.38,2.74,0,4.83.78,6.27,2.35,1.44,1.57,2.16,3.8,2.16,6.7v.93h-5.33v-1.28c0-2.36-.98-3.54-2.94-3.54-1.07,0-1.86.33-2.38.98-.51.65-.77,1.8-.77,3.44v6.59c1.01-2.13,2.76-3.19,5.25-3.19,2.07,0,3.63.7,4.68,2.11s1.58,3.45,1.58,6.13v6.59c0,2.88-.74,5.11-2.21,6.69-1.48,1.58-3.6,2.36-6.36,2.36s-4.89-.79-6.37-2.36c-1.48-1.57-2.23-3.8-2.23-6.69ZM589.61,329.37c0,2.35.98,3.52,2.94,3.52s2.92-1.17,2.92-3.52v-6.49c0-2.36-.97-3.54-2.92-3.54s-2.94,1.18-2.94,3.54v6.49Z"/>
    <path class="st3" d="M604.44,329.02v-2.99h5.66v3.34c0,2.35.97,3.52,2.9,3.52s2.93-1.17,2.93-3.52v-7.92c0-2.36-.98-3.54-2.93-3.54s-2.9,1.18-2.9,3.54v1.08h-5.66l1.09-20.91h15.15v5.15h-9.83l-.45,8.6c1.05-1.74,2.69-2.61,4.93-2.61,2.08,0,3.64.7,4.69,2.1,1.05,1.4,1.57,3.44,1.57,6.12v8.04c0,2.9-.72,5.13-2.15,6.7-1.43,1.57-3.53,2.35-6.29,2.35s-4.9-.78-6.42-2.35c-1.52-1.57-2.28-3.8-2.28-6.7Z"/>
    <path class="st3" d="M625.08,337.67v-5.2h5.66v5.2h-5.66Z"/>
    <path class="st3" d="M634.33,329.02v-2.99h5.66v3.34c0,2.38.97,3.57,2.9,3.57.97,0,1.7-.3,2.19-.9.49-.6.74-1.66.74-3.17v-2.84c0-1.64-.29-2.82-.87-3.52-.58-.7-1.52-1.06-2.83-1.06h-1.91v-5.15h2.21c1.12,0,1.97-.29,2.54-.87.57-.58.86-1.55.86-2.93v-2.01c0-1.54-.25-2.61-.74-3.22-.49-.6-1.22-.9-2.19-.9-1.94,0-2.9,1.18-2.9,3.54v2.31h-5.66v-1.96c0-2.9.76-5.13,2.28-6.7s3.66-2.35,6.42-2.35,4.86.78,6.29,2.35c1.43,1.57,2.15,3.8,2.15,6.7v.93c0,3.85-1.32,6.33-3.95,7.42,2.63,1.14,3.95,3.66,3.95,7.57v2.84c0,2.9-.72,5.13-2.15,6.7-1.43,1.57-3.53,2.35-6.29,2.35s-4.9-.78-6.42-2.35c-1.52-1.57-2.28-3.8-2.28-6.7Z"/>
  </g>
  <g>
    <path class="st3" d="M383.52,814.5v-1.71c.36,0,.68-.04.96-.11.28-.08.51-.17.68-.27.17-.1.33-.25.47-.44.14-.19.25-.36.32-.52.07-.15.15-.36.25-.61h1.64v15.45h-2.42v-11.79h-1.89Z"/>
    <path class="st3" d="M390.77,826.28v-1.9c0-.61.09-1.19.27-1.73.18-.54.41-1.02.69-1.42.29-.41.6-.8.94-1.19.34-.38.69-.77,1.03-1.15s.66-.77.94-1.17c.28-.4.51-.87.69-1.4.17-.53.26-1.09.26-1.7,0-.66-.1-1.12-.31-1.38-.21-.26-.52-.39-.93-.39-.84,0-1.26.51-1.26,1.52v1.66h-2.32v-1.51c0-1.24.31-2.2.94-2.87.62-.67,1.52-1.01,2.7-1.01s2.07.33,2.69,1.01.92,1.63.92,2.87c0,.66-.09,1.29-.27,1.9-.18.61-.41,1.14-.69,1.61-.28.47-.59.91-.93,1.34-.34.43-.68.83-1.02,1.2-.34.37-.66.72-.94,1.06-.28.34-.51.69-.69,1.04-.18.36-.27.71-.27,1.04,0,.15,0,.26.02.33h4.57v2.21h-7.01Z"/>
    <path class="st3" d="M399.51,826.28v-2.23h2.42v2.23h-2.42Z"/>
    <path class="st3" d="M403.29,822.58v-1.22c0-1.58.5-2.65,1.5-3.22-1-.55-1.5-1.58-1.5-3.1v-.5c0-1.24.33-2.19.98-2.87.65-.68,1.59-1.01,2.82-1.01s2.16.34,2.81,1.01c.65.67.98,1.63.98,2.87v.5c0,1.51-.5,2.54-1.5,3.1,1,.57,1.5,1.64,1.5,3.22v1.22c0,1.24-.33,2.19-.98,2.87-.65.67-1.59,1.01-2.81,1.01s-2.16-.34-2.82-1.01c-.65-.68-.98-1.63-.98-2.87ZM405.72,815.5c0,1.08.46,1.63,1.37,1.63s1.36-.54,1.36-1.63v-.86c0-.65-.12-1.11-.36-1.37-.24-.26-.57-.39-1.01-.39s-.77.13-1.01.4c-.24.27-.36.72-.36,1.37v.86ZM405.72,822.51c0,.64.12,1.09.36,1.35.24.26.58.39,1.01.39s.76-.13,1-.39c.24-.26.36-.71.37-1.36v-1.43c0-1.16-.45-1.75-1.36-1.75s-1.37.58-1.37,1.75v1.43Z"/>
  </g>
  <path class="st3" d="M409.8,686.7v-2.36h-4.88c-.01-.08-.02-.2-.02-.36,0-.36.1-.73.28-1.12.19-.38.44-.76.74-1.12.3-.36.64-.74,1-1.14.37-.39.73-.82,1.09-1.28s.7-.93,1-1.43c.3-.5.55-1.07.74-1.72.19-.65.29-1.33.29-2.03,0-1.33-.33-2.35-.99-3.07-.66-.72-1.61-1.08-2.87-1.08s-2.22.36-2.88,1.08c-.67.72-1,1.74-1,3.07v1.61h2.48v-1.77c0-1.08.45-1.62,1.34-1.62.44,0,.77.14,1,.41.22.27.33.77.33,1.47,0,.64-.09,1.25-.28,1.81-.19.56-.43,1.06-.73,1.49-.3.43-.63.85-1,1.25-.37.41-.73.82-1.1,1.23-.37.41-.7.83-1.01,1.27-.3.43-.55.94-.74,1.52-.19.58-.28,1.2-.28,1.85v2.03h7.49ZM400.53,684.31h-2.59v2.38h2.59v-2.38ZM391.03,679.93c0-1.08.45-1.62,1.35-1.62s1.34.54,1.34,1.62v2.97c0,1.07-.45,1.61-1.34,1.61s-1.35-.54-1.35-1.61v-2.97ZM389.46,685.8c.68.72,1.65,1.08,2.92,1.08s2.23-.36,2.91-1.08c.68-.72,1.01-1.74,1.01-3.06v-3.02c0-1.23-.24-2.16-.72-2.81-.48-.64-1.2-.97-2.14-.97-1.14,0-1.94.49-2.4,1.46v-3.02c0-.75.12-1.28.35-1.58.23-.3.6-.45,1.09-.45.9,0,1.35.54,1.35,1.62v.59h2.44v-.43c0-1.33-.33-2.35-.99-3.07-.66-.72-1.62-1.08-2.87-1.08-2.64,0-3.96,1.43-3.96,4.29v8.44c0,1.32.34,2.34,1.02,3.06"/>
  <path class="st3" d="M444.09,644.87l1.25,8.31h-2.5l1.25-8.31ZM442.05,658.41l.45-2.99h3.17l.45,2.99h2.59l-2.63-16.5h-4l-2.63,16.5h2.59ZM438.27,658.41v-16.5h-2.59v14.15h-2.24v-14.15h-2.59v14.15h-2.25v-14.15h-2.59v16.5h12.26ZM418.61,658.41l2.19-7.56,1.05-4.04v11.6h2.59v-16.5h-3.11l-2.12,6.81-.94,3.64v-10.45h-2.31v16.5h2.66ZM408.48,658.41v-7.07h2.95v7.07h2.59v-16.5h-2.59v7.08h-2.95v-7.08h-2.59v16.5h2.59ZM404.13,648.99h-4.71v2.36h4.71v-2.36ZM392.5,645.97c0-.59.11-1.02.32-1.29.21-.27.55-.41,1.01-.41h1.24v5.08h-1.01c-.51,0-.9-.13-1.16-.4-.26-.26-.39-.72-.39-1.35v-1.62ZM392.23,658.41c.06-.19.1-.34.13-.43.02-.1.05-.28.08-.55.03-.27.04-.62.04-1.04v-2.59c0-.76.13-1.3.4-1.62.27-.32.7-.49,1.29-.49h.9v6.72h2.59v-16.5h-3.91c-1.33,0-2.3.31-2.91.93-.62.62-.92,1.58-.92,2.87v1.3c0,1.7.56,2.82,1.69,3.35-.62.26-1.06.68-1.32,1.26-.26.58-.39,1.33-.39,2.25v2.54c0,.89-.08,1.56-.24,2h2.59ZM382.6,658.41v-7.07h2.95v7.07h2.59v-16.5h-2.59v7.08h-2.95v-7.08h-2.59v16.5h2.59ZM371.88,658.41l2.01-6.14,1.99,6.14h2.59l-2.89-8.41,2.71-8.1h-2.27l-2,6.12-1.97-6.12h-2.59l2.71,8-2.9,8.5h2.59ZM363.11,654.61l-.02.15c-.1.57-.33.94-.69,1.13-.36.18-.89.25-1.6.21v2.35c.7.05,1.31.02,1.83-.07.52-.1.96-.25,1.32-.46.36-.21.67-.5.92-.87.25-.38.46-.78.62-1.23.16-.44.3-.98.43-1.62l2.77-12.28h-2.59l-1.18,5.66-.61,3.82-.8-3.86-1.4-5.63h-2.59l3.6,12.7ZM353.11,658.41v-5.06l.81-1.51,2.52,6.57h2.66l-3.6-9.15,3.6-7.35h-2.59l-3.4,7.19v-7.19h-2.59v16.5h2.59Z"/>
  <path class="st3" d="M329.76,583.21h36.42v36.11h-36.42v-36.11ZM366.98,582.41h-38.03v37.7h38.03v-37.7Z"/>
  <path class="st0" d="M329.76,583.21h36.42v36.11h-36.42v-36.11ZM366.98,582.41h-38.03v37.7h38.03v-37.7Z"/>
  <path class="st3" d="M335.21,616.03c-.9,0-1.63-.73-1.63-1.62v-18.99c0-.89.73-1.62,1.63-1.62h25.51c.9,0,1.63.73,1.63,1.62v18.99c0,.89-.73,1.62-1.63,1.62h-25.51ZM360.73,593.01h-25.51c-1.34,0-2.44,1.09-2.44,2.42v18.99c0,1.33,1.09,2.41,2.44,2.41h25.51c1.34,0,2.43-1.08,2.43-2.41v-18.99c0-1.33-1.09-2.42-2.43-2.42"/>
  <path class="st0" d="M335.21,616.03c-.9,0-1.63-.73-1.63-1.62v-18.99c0-.89.73-1.62,1.63-1.62h25.51c.9,0,1.63.73,1.63,1.62v18.99c0,.89-.73,1.62-1.63,1.62h-25.51ZM360.73,593.01h-25.51c-1.34,0-2.44,1.09-2.44,2.42v18.99c0,1.33,1.09,2.41,2.44,2.41h25.51c1.34,0,2.43-1.08,2.43-2.41v-18.99c0-1.33-1.09-2.42-2.43-2.42Z"/>
  <path class="st3" d="M336.41,596.61h23.12v16.61h-23.12v-16.61ZM360.33,595.81h-24.73v18.21h24.73v-18.21Z"/>
  <path class="st0" d="M336.41,596.61h23.12v16.61h-23.12v-16.61ZM360.33,595.81h-24.73v18.21h24.73v-18.21Z"/>
  <path class="st3" d="M347.97,608.15c-1.17,0-2.12-.95-2.12-2.11s.95-2.1,2.12-2.1,2.12.94,2.12,2.1-.95,2.11-2.12,2.11M347.97,603.13c-1.62,0-2.93,1.3-2.93,2.91s1.32,2.91,2.93,2.91,2.93-1.3,2.93-2.91-1.32-2.91-2.93-2.91"/>
  <path class="st0" d="M347.97,608.15c-1.17,0-2.12-.95-2.12-2.11s.95-2.1,2.12-2.1,2.12.94,2.12,2.1-.95,2.11-2.12,2.11ZM347.97,603.13c-1.62,0-2.93,1.3-2.93,2.91s1.32,2.91,2.93,2.91,2.93-1.3,2.93-2.91-1.32-2.91-2.93-2.91Z"/>
  <line class="st1" x1="296.08" y1="699.61" x2="507.54" y2="699.61"/>
</svg>