<?xml version="1.0" encoding="utf-8"?>
<!-- Generator: Adobe Illustrator 26.0.1, SVG Export Plug-In . SVG Version: 6.00 Build 0)  -->
<svg version="1.1" id="Слой_1" xmlns="http://www.w3.org/2000/svg" xmlns:xlink="http://www.w3.org/1999/xlink" x="0px" y="0px"
	 viewBox="0 0 1000 1000" style="enable-background:new 0 0 1000 1000;" xml:space="preserve">
<style type="text/css">
	.st0{fill:#E9CACC;}
	.st1{fill:#39373A;}
	.st2{fill:none;stroke:#39373A;stroke-width:0.75;}
</style>
<rect x="282.9" y="284.2" class="st0" width="486.8" height="379.9"/>
<rect x="704.8" y="686.5" class="st1" width="74.4" height="7"/>
<rect x="704.8" y="686.5" class="st2" width="74.4" height="7"/>
<rect x="622.6" y="686.5" class="st2" width="101.8" height="7"/>
<rect x="710.9" y="664.8" class="st1" width="68.3" height="22.9"/>
<rect x="710.9" y="664.8" class="st2" width="68.3" height="22.9"/>
<rect x="507.6" y="686.5" class="st1" width="74.4" height="7"/>
<rect x="507.6" y="686.5" class="st2" width="74.4" height="7"/>
<rect x="507.6" y="664.8" class="st1" width="68.3" height="22.9"/>
<rect x="507.6" y="664.8" class="st2" width="68.3" height="22.9"/>
<rect x="628.7" y="664.8" class="st2" width="95.7" height="21.6"/>
<path class="st2" d="M628.2,685.9c0,0-2.4-10.1-5-17.1c-2.6-6.9-5.7-10.7-5.7-10.7l-45.3,26.1l1.4,2.2l45.5-25.6"/>
<rect x="448.3" y="686.5" class="st1" width="74.4" height="7"/>
<rect x="448.3" y="686.5" class="st2" width="74.4" height="7"/>
<rect x="388.1" y="686.5" class="st2" width="101.8" height="7"/>
<rect x="454.4" y="664.8" class="st1" width="68.3" height="22.9"/>
<rect x="454.4" y="664.8" class="st2" width="68.3" height="22.9"/>
<rect x="273.1" y="686.5" class="st1" width="74.4" height="7"/>
<rect x="273.1" y="686.5" class="st2" width="74.4" height="7"/>
<rect x="273.1" y="664.8" class="st1" width="68.3" height="22.9"/>
<rect x="273.1" y="664.8" class="st2" width="68.3" height="22.9"/>
<rect x="394.2" y="664.8" class="st2" width="95.7" height="21.6"/>
<path class="st2" d="M393.7,685.9c0,0-2.4-10.1-5-17.1c-2.6-6.9-5.7-10.7-5.7-10.7l-45.3,26.1l1.4,2.2l45.5-25.6"/>
<path class="st2" d="M484.8,277c0,0,0,8.8-3.9,19.8c-3.3,9.2-9.7,17.8-9.7,17.8l-66.2-38.1l1.4-2.2l66.4,38.1"/>
<path class="st2" d="M401.5,402.3c0,0,3.3-0.3,12.4,2.9c7.7,2.7,14.8,8.1,14.8,8.1l-21.9,37.7l-1.8-1.1l21.9-37.8"/>
<path class="st2" d="M518.9,385.8c0,0,8.8,0,19.8-3.9c9.2-3.3,17.8-9.7,17.8-9.7l-33.9-58.4l-2.2,1.4l33.9,58.5"/>
<rect x="766.3" y="273" class="st1" width="12.9" height="490.9"/>
<rect x="269" y="266.6" class="st1" width="152.6" height="17.4"/>
<rect x="395.2" y="266.6" class="st2" width="26.3" height="17.4"/>
<rect x="484.2" y="266.6" class="st1" width="294.8" height="17.4"/>
<rect x="484.2" y="266.6" class="st2" width="39" height="17.4"/>
<rect x="325.8" y="276" class="st1" width="82.5" height="8"/>
<rect x="325.8" y="276" class="st2" width="82.5" height="8"/>
<rect x="269" y="266.6" class="st1" width="13.2" height="534.5"/>
<rect x="269" y="266.6" class="st2" width="13.2" height="534.5"/>
<rect x="518.3" y="273" class="st1" width="11.2" height="56.1"/>
<rect x="518.3" y="273" class="st2" width="11.2" height="56.1"/>
<rect x="518.3" y="384.7" class="st1" width="11.2" height="294.3"/>
<rect x="518.3" y="384.7" class="st2" width="11.2" height="294.3"/>
<rect x="518.3" y="739.1" class="st1" width="11.2" height="62"/>
<rect x="518.3" y="739.1" class="st2" width="11.2" height="62"/>
<rect x="518.3" y="272.8" class="st1" width="251.2" height="11.2"/>
<rect x="518.3" y="272.8" class="st2" width="251.2" height="11.2"/>
<path class="st2" d="M430.4,471.2c0,0-0.4,3.9,3.5,14.9c3.3,9.2,9.7,17.8,9.7,17.8l45.2-26.3l-1.4-2.2l-45.3,26.3"/>
<rect x="485.7" y="471.9" class="st1" width="39.6" height="7.6"/>
<rect x="485.7" y="471.9" class="st2" width="39.6" height="7.6"/>
<rect x="402.3" y="471.9" class="st1" width="29.7" height="7.6"/>
<rect x="402.3" y="471.9" class="st2" width="29.7" height="7.6"/>
<rect x="278.9" y="487.9" class="st1" width="125.9" height="7.6"/>
<rect x="278.9" y="487.9" class="st2" width="125.9" height="7.6"/>
<rect x="401.7" y="446.1" class="st1" width="7.6" height="49.5"/>
<rect x="401.7" y="446.1" class="st2" width="7.6" height="49.5"/>
<rect x="401.7" y="344.6" class="st1" width="7.6" height="58.9"/>
<rect x="401.7" y="344.6" class="st2" width="7.6" height="58.9"/>
<rect x="278.2" y="344.6" class="st1" width="129.8" height="7.6"/>
<rect x="278.2" y="344.6" class="st2" width="129.8" height="7.6"/>
<rect x="273.1" y="789.3" class="st2" width="245.9" height="7"/>
<polygon class="st2" points="528.5,796.3 528.5,789.3 769,754 769,761 "/>
<rect x="496.9" y="410.9" class="st2" width="19.9" height="59.4"/>
<line class="st2" x1="513.6" y1="411.1" x2="513.6" y2="470.7"/>
<polyline class="st2" points="513.6,414 499.3,415.3 499.3,452.9 513.6,454.6 513.6,457.1 499.1,458.7 499.1,467.1 513.6,468.9 "/>
<rect x="283.7" y="285.1" class="st2" width="19.9" height="58"/>
<line class="st2" x1="300.5" y1="285.2" x2="300.5" y2="343.4"/>
<polyline class="st2" points="300.5,288.1 286.1,289.4 286.1,326 300.5,327.6 300.5,330.1 286,331.7 286,339.9 300.5,341.6 "/>
<path class="st1" d="M355.7,437.4v4.4h-1.9L355.7,437.4z M355.7,443.5v2.1h1.8v-2.1h0.8v-1.7h-0.8v-7.9h-2l-3.4,7.9v1.7H355.7z
	 M351.3,443.9h-1.8v1.7h1.8V443.9z M343.4,445c0.5,0.5,1.2,0.8,2.1,0.8c0.9,0,1.6-0.3,2.1-0.8c0.5-0.5,0.7-1.2,0.7-2.2v-0.9
	c0-1.3-0.4-2.1-1.3-2.5c0.9-0.4,1.3-1.2,1.3-2.4v-0.3c0-0.9-0.2-1.7-0.7-2.2c-0.5-0.5-1.2-0.8-2.1-0.8c-0.9,0-1.6,0.3-2.1,0.8
	c-0.5,0.5-0.7,1.2-0.7,2.2v0.6h1.8v-0.8c0-0.8,0.3-1.2,0.9-1.2c0.3,0,0.6,0.1,0.7,0.3c0.2,0.2,0.2,0.5,0.2,1v0.7
	c0,0.4-0.1,0.8-0.3,1c-0.2,0.2-0.5,0.3-0.8,0.3h-0.7v1.7h0.6c0.4,0,0.7,0.1,0.9,0.3c0.2,0.2,0.3,0.6,0.3,1.1v0.9
	c0,0.5-0.1,0.8-0.2,1c-0.2,0.2-0.4,0.3-0.7,0.3c-0.6,0-0.9-0.4-0.9-1.2v-1.1h-1.8v1C342.7,443.7,342.9,444.5,343.4,445"/>
<path class="st1" d="M356,422.8l0,0.1c-0.1,0.4-0.2,0.7-0.5,0.8c-0.3,0.1-0.6,0.2-1.1,0.1v1.7c0.5,0,0.9,0,1.3-0.1
	c0.4-0.1,0.7-0.2,0.9-0.3c0.3-0.1,0.5-0.4,0.7-0.6c0.2-0.3,0.3-0.6,0.4-0.9c0.1-0.3,0.2-0.7,0.3-1.1l2-8.7h-1.8l-0.8,4l-0.4,2.7
	l-0.6-2.7l-1-4h-1.8L356,422.8z M348.6,425.5l4.6-11.8h-1.6l-4.6,11.8H348.6z M341.7,424.8c0.5,0.5,1.2,0.8,2.1,0.8
	c0.9,0,1.6-0.3,2.1-0.8c0.5-0.5,0.7-1.2,0.7-2.2v-1.6h-1.8v1.7c0,0.8-0.3,1.1-1,1.1c-0.6,0-1-0.4-1-1.1v-6.3c0-0.8,0.3-1.2,1-1.2
	c0.6,0,1,0.4,1,1.2v1.3h1.8v-1.1c0-0.9-0.2-1.7-0.7-2.2c-0.5-0.5-1.2-0.8-2.1-0.8c-0.9,0-1.6,0.3-2.1,0.8c-0.5,0.5-0.7,1.2-0.7,2.2
	v6.1C341,423.6,341.2,424.3,341.7,424.8"/>
<path class="st1" d="M284,534.1h36.2v-36.7H284V534.1z M283.2,496.6H321v38.3h-37.8V496.6z"/>
<path class="st2" d="M284,534.1h36.2v-36.7H284V534.1z M283.2,496.6H321v38.3h-37.8V496.6z"/>
<path class="st1" d="M316.9,502.9c0-0.9-0.7-1.6-1.6-1.6h-19c-0.9,0-1.6,0.7-1.6,1.6v25.7c0,0.9,0.7,1.6,1.6,1.6h19
	c0.9,0,1.6-0.7,1.6-1.6V502.9z M293.8,528.6v-25.7c0-1.4,1.1-2.5,2.4-2.5h19c1.3,0,2.4,1.1,2.4,2.5v25.7c0,1.4-1.1,2.4-2.4,2.4h-19
	C294.9,531,293.8,529.9,293.8,528.6"/>
<path class="st2" d="M316.9,502.9c0-0.9-0.7-1.6-1.6-1.6h-19c-0.9,0-1.6,0.7-1.6,1.6v25.7c0,0.9,0.7,1.6,1.6,1.6h19
	c0.9,0,1.6-0.7,1.6-1.6V502.9z M293.8,528.6v-25.7c0-1.4,1.1-2.5,2.4-2.5h19c1.3,0,2.4,1.1,2.4,2.5v25.7c0,1.4-1.1,2.4-2.4,2.4h-19
	C294.9,531,293.8,529.9,293.8,528.6z"/>
<path class="st1" d="M297.5,527.4h16.6v-23.2h-16.6V527.4z M296.7,503.3h18.2v24.9h-18.2V503.3z"/>
<path class="st2" d="M297.5,527.4h16.6v-23.2h-16.6V527.4z M296.7,503.3h18.2v24.9h-18.2V503.3z"/>
<path class="st1" d="M309,515.7c0-1.2-0.9-2.1-2.1-2.1s-2.1,0.9-2.1,2.1s0.9,2.1,2.1,2.1S309,516.9,309,515.7 M304,515.7
	c0-1.6,1.3-2.9,2.9-2.9c1.6,0,2.9,1.3,2.9,2.9c0,1.6-1.3,2.9-2.9,2.9C305.3,518.6,304,517.3,304,515.7"/>
<path class="st2" d="M309,515.7c0-1.2-0.9-2.1-2.1-2.1s-2.1,0.9-2.1,2.1s0.9,2.1,2.1,2.1S309,516.9,309,515.7z M304,515.7
	c0-1.6,1.3-2.9,2.9-2.9c1.6,0,2.9,1.3,2.9,2.9c0,1.6-1.3,2.9-2.9,2.9C305.3,518.6,304,517.3,304,515.7z"/>
<path class="st1" d="M311.1,417.5c0-6.8-5.5-12.3-12.3-12.3h-13.1c-1,0-1.9,0.8-1.9,1.9v27.9c0,1,0.8,1.9,1.9,1.9h13.1
	c6.8,0,12.3-5.5,12.3-12.3V417.5z M283.1,434.9V407c0-1.4,1.2-2.6,2.6-2.6h13.1c7.2,0,13,5.8,13,13v7c0,7.2-5.8,13-13,13h-13.1
	C284.3,437.5,283.1,436.3,283.1,434.9"/>
<path class="st2" d="M311.1,417.5c0-6.8-5.5-12.3-12.3-12.3h-13.1c-1,0-1.9,0.8-1.9,1.9v27.9c0,1,0.8,1.9,1.9,1.9h13.1
	c6.8,0,12.3-5.5,12.3-12.3V417.5z M283.1,434.9V407c0-1.4,1.2-2.6,2.6-2.6h13.1c7.2,0,13,5.8,13,13v7c0,7.2-5.8,13-13,13h-13.1
	C284.3,437.5,283.1,436.3,283.1,434.9z"/>
<path class="st1" d="M308,417.5c0-5.1-4.2-9.2-9.3-9.2h-7.6c-0.9,0-1.6,0.7-1.6,1.6v22.2c0,0.9,0.7,1.6,1.6,1.6h7.6
	c5.1,0,9.3-4.1,9.3-9.2V417.5z M288.8,432.1v-22.2c0-1.3,1-2.3,2.3-2.3h7.6c5.5,0,9.9,4.5,9.9,9.9v7c0,5.5-4.5,9.9-9.9,9.9h-7.6
	C289.9,434.4,288.8,433.3,288.8,432.1"/>
<path class="st2" d="M308,417.5c0-5.1-4.2-9.2-9.3-9.2h-7.6c-0.9,0-1.6,0.7-1.6,1.6v22.2c0,0.9,0.7,1.6,1.6,1.6h7.6
	c5.1,0,9.3-4.1,9.3-9.2V417.5z M288.8,432.1v-22.2c0-1.3,1-2.3,2.3-2.3h7.6c5.5,0,9.9,4.5,9.9,9.9v7c0,5.5-4.5,9.9-9.9,9.9h-7.6
	C289.9,434.4,288.8,433.3,288.8,432.1z"/>
<path class="st1" d="M301.6,421c0-0.8-0.7-1.5-1.5-1.5c-0.8,0-1.5,0.7-1.5,1.5c0,0.8,0.7,1.5,1.5,1.5
	C300.9,422.5,301.6,421.8,301.6,421 M297.8,421c0-1.2,1-2.2,2.2-2.2c1.2,0,2.2,1,2.2,2.2c0,1.2-1,2.2-2.2,2.2
	C298.8,423.2,297.8,422.2,297.8,421"/>
<path class="st2" d="M301.6,421c0-0.8-0.7-1.5-1.5-1.5c-0.8,0-1.5,0.7-1.5,1.5c0,0.8,0.7,1.5,1.5,1.5
	C300.9,422.5,301.6,421.8,301.6,421z M297.8,421c0-1.2,1-2.2,2.2-2.2c1.2,0,2.2,1,2.2,2.2c0,1.2-1,2.2-2.2,2.2
	C298.8,423.2,297.8,422.2,297.8,421z"/>
<rect x="371.8" y="443.9" class="st2" width="28.4" height="42.7"/>
<line class="st2" x1="372.2" y1="443.7" x2="400.1" y2="486.5"/>
<line class="st2" x1="400.4" y1="443.7" x2="372.5" y2="486.5"/>
<path class="st2" d="M305.6,377.8c0,1,0.8,1.9,1.9,1.9c1,0,1.9-0.8,1.9-1.9c0-1-0.8-1.9-1.9-1.9C306.4,376,305.6,376.8,305.6,377.8z
	"/>
<path class="st2" d="M396.1,369.3c0-6.8-5.5-12.3-12.3-12.3h-83.7c-6.8,0-12.3,5.5-12.3,12.3v17c0,6.8,5.5,12.3,12.3,12.3h83.7
	c6.8,0,12.3-5.5,12.3-12.3V369.3z"/>
<path class="st2" d="M388.5,373.2c0-6.8-5.5-12.3-12.3-12.3h-68.7c-6.8,0-12.3,5.5-12.3,12.3v9.3c0,6.8,5.5,12.3,12.3,12.3h68.7
	c6.8,0,12.3-5.5,12.3-12.3V373.2z"/>
<path class="st2" d="M379.5,370.8c0-3.4-2.8-6.1-6.1-6.1h-67.7c-3.4,0-6.1,2.7-6.1,6.1v14.1c0,3.4,2.7,6.1,6.1,6.1h67.7
	c3.4,0,6.1-2.7,6.1-6.1V370.8z"/>
<polygon class="st2" points="283.5,402.1 283.5,402.1 400.3,402.1 400.3,353.6 283.5,353.6 "/>
<path class="st1" d="M333.1,460.1c0,7.4-6.1,13.5-13.5,13.5H300c-1.3,0-2.3-1-2.3-2.3v-22.3c0-1.3,1-2.3,2.3-2.3h19.6
	C327,446.6,333.1,452.7,333.1,460.1 M296.8,448.9v22.3c0,1.8,1.5,3.3,3.3,3.3h19.6c8,0,14.4-6.5,14.4-14.4c0-8-6.5-14.4-14.4-14.4
	H300C298.2,445.7,296.8,447.2,296.8,448.9"/>
<path class="st2" d="M333.1,460.1c0,7.4-6.1,13.5-13.5,13.5H300c-1.3,0-2.3-1-2.3-2.3v-22.3c0-1.3,1-2.3,2.3-2.3h19.6
	C327,446.6,333.1,452.7,333.1,460.1z M296.8,448.9v22.3c0,1.8,1.5,3.3,3.3,3.3h19.6c8,0,14.4-6.5,14.4-14.4c0-8-6.5-14.4-14.4-14.4
	H300C298.2,445.7,296.8,447.2,296.8,448.9z"/>
<path class="st2" d="M304.2,469.8v-19.4c0-0.1,0.1-0.2,0.2-0.2h14.7c5.4,0,9.9,4.5,9.9,9.9c0,5.4-4.5,9.9-9.9,9.9h-14.7
	C304.3,470,304.2,469.9,304.2,469.8z"/>
<path class="st1" d="M304.7,469.6v-18.9h14.5c5.2,0,9.5,4.2,9.5,9.5c0,5.2-4.2,9.5-9.5,9.5H304.7z M303.7,450.4v19.4
	c0,0.4,0.3,0.7,0.7,0.7h14.7c5.7,0,10.4-4.7,10.4-10.4c0-5.7-4.7-10.4-10.4-10.4h-14.7C304.1,449.7,303.7,450.1,303.7,450.4"/>
<path class="st2" d="M304.7,469.6v-18.9h14.5c5.2,0,9.5,4.2,9.5,9.5c0,5.2-4.2,9.5-9.5,9.5H304.7z M303.7,450.4v19.4
	c0,0.4,0.3,0.7,0.7,0.7h14.7c5.7,0,10.4-4.7,10.4-10.4c0-5.7-4.7-10.4-10.4-10.4h-14.7C304.1,449.7,303.7,450.1,303.7,450.4z"/>
<path class="st1" d="M319.2,460.1c0,1.4-1.1,2.6-2.5,2.6c-1.4,0-2.6-1.1-2.6-2.6c0-1.4,1.1-2.6,2.6-2.6
	C318.1,457.6,319.2,458.7,319.2,460.1 M313.2,460.1c0,1.9,1.6,3.5,3.5,3.5c1.9,0,3.5-1.6,3.5-3.5c0-1.9-1.6-3.5-3.5-3.5
	C314.7,456.6,313.2,458.2,313.2,460.1"/>
<path class="st2" d="M319.2,460.1c0,1.4-1.1,2.6-2.5,2.6c-1.4,0-2.6-1.1-2.6-2.6c0-1.4,1.1-2.6,2.6-2.6
	C318.1,457.6,319.2,458.7,319.2,460.1z M313.2,460.1c0,1.9,1.6,3.5,3.5,3.5c1.9,0,3.5-1.6,3.5-3.5c0-1.9-1.6-3.5-3.5-3.5
	C314.7,456.6,313.2,458.2,313.2,460.1z"/>
<polygon class="st1" points="306.1,467.7 306.6,468.4 312.8,463.8 312.3,463 "/>
<polygon class="st2" points="306.1,467.7 306.6,468.4 312.8,463.8 312.3,463 "/>
<rect x="309" y="450.8" transform="matrix(0.5991 -0.8007 0.8007 0.5991 -239.9867 430.0728)" class="st1" width="0.9" height="7.7"/>
<rect x="309" y="450.8" transform="matrix(0.5991 -0.8007 0.8007 0.5991 -239.9867 430.0728)" class="st2" width="0.9" height="7.7"/>
<path class="st1" d="M296.7,469.4c0,2.1-1.7,3.7-3.7,3.7h-5.1c-2.1,0-3.7-1.7-3.7-3.7v-18.6c0-2.1,1.7-3.7,3.7-3.7h5.1
	c2.1,0,3.7,1.7,3.7,3.7V469.4z M283.2,450.8v18.6c0,2.6,2.1,4.7,4.7,4.7h5.1c2.6,0,4.7-2.1,4.7-4.7v-18.6c0-2.6-2.1-4.7-4.7-4.7
	h-5.1C285.3,446.1,283.2,448.2,283.2,450.8"/>
<path class="st2" d="M296.7,469.4c0,2.1-1.7,3.7-3.7,3.7h-5.1c-2.1,0-3.7-1.7-3.7-3.7v-18.6c0-2.1,1.7-3.7,3.7-3.7h5.1
	c2.1,0,3.7,1.7,3.7,3.7V469.4z M283.2,450.8v18.6c0,2.6,2.1,4.7,4.7,4.7h5.1c2.6,0,4.7-2.1,4.7-4.7v-18.6c0-2.6-2.1-4.7-4.7-4.7
	h-5.1C285.3,446.1,283.2,448.2,283.2,450.8z"/>
<path class="st1" d="M291.9,460.1c0,0.8-0.6,1.4-1.4,1.4c-0.8,0-1.4-0.6-1.4-1.4c0-0.8,0.6-1.4,1.4-1.4
	C291.2,458.7,291.9,459.3,291.9,460.1 M288,460.1c0,1.3,1.1,2.4,2.4,2.4c1.3,0,2.4-1.1,2.4-2.4c0-1.3-1.1-2.4-2.4-2.4
	C289.1,457.7,288,458.8,288,460.1"/>
<path class="st2" d="M291.9,460.1c0,0.8-0.6,1.4-1.4,1.4c-0.8,0-1.4-0.6-1.4-1.4c0-0.8,0.6-1.4,1.4-1.4
	C291.2,458.7,291.9,459.3,291.9,460.1z M288,460.1c0,1.3,1.1,2.4,2.4,2.4c1.3,0,2.4-1.1,2.4-2.4c0-1.3-1.1-2.4-2.4-2.4
	C289.1,457.7,288,458.8,288,460.1z"/>
<path class="st1" d="M658.3,554.6c0-1.3,0.5-1.9,1.6-1.9c1.1,0,1.6,0.6,1.6,1.9v10.6c0,1.3-0.5,1.9-1.6,1.9c-1.1,0-1.6-0.6-1.6-1.9
	V554.6z M656.4,568.6c0.8,0.9,2,1.3,3.5,1.3c1.5,0,2.7-0.4,3.5-1.3c0.8-0.9,1.2-2.1,1.2-3.6v-10.2c0-1.6-0.4-2.8-1.2-3.6
	c-0.8-0.9-2-1.3-3.5-1.3c-1.5,0-2.7,0.4-3.5,1.3c-0.8,0.9-1.2,2.1-1.2,3.6V565C655.2,566.5,655.6,567.8,656.4,568.6 M653.4,566.9
	h-3.1v2.8h3.1V566.9z M642,554.6c0-1.3,0.5-1.9,1.6-1.9c1.1,0,1.6,0.6,1.6,1.9v3.5c0,1.3-0.5,1.9-1.6,1.9c-1.1,0-1.6-0.6-1.6-1.9
	V554.6z M639.8,561.7c0.6,0.8,1.4,1.1,2.5,1.1c1.4,0,2.3-0.6,2.9-1.7v3.6c0,0.9-0.1,1.5-0.4,1.9c-0.3,0.4-0.7,0.5-1.3,0.5
	c-1.1,0-1.6-0.6-1.6-1.9v-0.7h-2.9v0.5c0,1.6,0.4,2.8,1.2,3.6c0.8,0.9,1.9,1.3,3.4,1.3c3.1,0,4.7-1.7,4.7-5.1v-10
	c0-1.6-0.4-2.8-1.2-3.6c-0.8-0.9-2-1.3-3.5-1.3c-1.5,0-2.7,0.4-3.5,1.3c-0.8,0.9-1.2,2.1-1.2,3.6v3.6
	C638.9,559.8,639.2,560.9,639.8,561.7 M632.4,554.7v15h3.1v-19.6h-2.1c-0.1,0.3-0.2,0.6-0.3,0.8c-0.1,0.2-0.2,0.4-0.4,0.7
	c-0.2,0.2-0.4,0.4-0.6,0.6c-0.2,0.1-0.5,0.2-0.9,0.3c-0.4,0.1-0.8,0.1-1.2,0.1v2.2H632.4z"/>
<path class="st1" d="M716.1,520l1.5,9.9h-3L716.1,520z M713.6,536.1l0.5-3.6h3.8l0.5,3.6h3.1l-3.1-19.6h-4.8l-3.1,19.6H713.6z
	 M703.7,519.3v16.8h3.1v-16.8h3.2v-2.8h-9.5v2.8H703.7z M694.7,520l1.5,9.9h-3L694.7,520z M692.3,536.1l0.5-3.6h3.8l0.5,3.6h3.1
	l-3.1-19.6h-4.8l-3.1,19.6H692.3z M681.2,536.1v-8.4h3.5v8.4h3.1v-19.6h-3.1v8.4h-3.5v-8.4h-3.1v19.6H681.2z M665.6,536.1v-13.8
	l2.3,13.8h2.9l2.1-14v14h3.1v-19.6h-4.4l-2.1,14l-2.3-14h-4.3v19.6H665.6z M654.7,521c0-1.3,0.5-1.9,1.6-1.9c1.1,0,1.6,0.6,1.6,1.9
	v10.6c0,1.3-0.5,1.9-1.6,1.9c-1.1,0-1.6-0.6-1.6-1.9V521z M652.8,535c0.8,0.9,2,1.3,3.5,1.3c1.5,0,2.7-0.4,3.5-1.3
	c0.8-0.9,1.2-2.1,1.2-3.6v-10.2c0-1.6-0.4-2.8-1.2-3.6c-0.8-0.9-2-1.3-3.5-1.3c-1.5,0-2.7,0.4-3.5,1.3c-0.8,0.9-1.2,2.1-1.2,3.6
	v10.2C651.6,533,652,534.2,652.8,535 M643.4,536.1v-6l1-1.8l3,7.8h3.2l-4.3-10.9l4.3-8.7h-3.1l-4,8.5v-8.5h-3.1v19.6H643.4z
	 M627.6,521.3c0-0.7,0.1-1.2,0.4-1.5c0.3-0.3,0.6-0.5,1.2-0.5h1.5v6h-1.2c-0.6,0-1.1-0.2-1.4-0.5c-0.3-0.3-0.5-0.8-0.5-1.6V521.3z
	 M627.3,536.1c0.1-0.2,0.1-0.4,0.2-0.5c0-0.1,0.1-0.3,0.1-0.7c0-0.3,0-0.7,0-1.2v-3.1c0-0.9,0.2-1.5,0.5-1.9
	c0.3-0.4,0.8-0.6,1.5-0.6h1.1v8h3.1v-19.6h-4.6c-1.6,0-2.7,0.4-3.5,1.1c-0.7,0.7-1.1,1.9-1.1,3.4v1.5c0,2,0.7,3.3,2,4
	c-0.7,0.3-1.3,0.8-1.6,1.5c-0.3,0.7-0.5,1.6-0.5,2.7v3c0,1.1-0.1,1.8-0.3,2.4H627.3z M618,520l1.5,9.9h-3L618,520z M615.6,536.1
	l0.5-3.6h3.8l0.5,3.6h3.1l-3.1-19.6h-4.8l-3.1,19.6H615.6z M600.4,536.1c1.5,0,2.7-0.4,3.4-1.1c0.7-0.8,1.1-2,1.1-3.8l0.3-11.8h2.7
	v16.8h3.1v-19.6h-8.8l-0.3,14.8c0,0.5-0.1,0.8-0.1,1.1c-0.1,0.3-0.2,0.5-0.3,0.6c-0.2,0.1-0.3,0.2-0.6,0.3c-0.2,0-0.5,0.1-0.9,0.1
	v2.8H600.4z M592,536.1l2.6-9l1.2-4.8v13.8h3.1v-19.6h-3.7l-2.5,8.1l-1.1,4.3v-12.4h-2.7v19.6H592z M574.1,536.1l2.8-8.7l0.8,1.5
	v7.2h3.1v-7.2l0.8-1.5l2.8,8.7h3.1l-3.8-11.6l3.8-8h-3l-3.6,7.9v-7.9h-3.1v7.9l-3.6-7.9h-3l3.8,8l-3.8,11.6H574.1z"/>
<path class="st1" d="M406.3,595.4c0-0.8,0.2-1.4,0.5-1.7c0.3-0.3,0.7-0.5,1.3-0.5c0.5,0,1,0.2,1.3,0.5c0.3,0.3,0.5,0.9,0.5,1.7v1.1
	c0,1.4-0.6,2.1-1.7,2.1c-1.2,0-1.7-0.7-1.7-2.1V595.4z M406.3,603.5c0-1.5,0.6-2.2,1.7-2.2c1.2,0,1.7,0.7,1.7,2.2v1.8
	c0,0.8-0.2,1.4-0.5,1.7c-0.3,0.3-0.7,0.5-1.3,0.5c-0.5,0-1-0.2-1.3-0.5c-0.3-0.3-0.5-0.9-0.5-1.7V603.5z M404.4,609.1
	c0.8,0.9,2,1.3,3.6,1.3c1.5,0,2.7-0.4,3.6-1.3c0.8-0.9,1.2-2.1,1.2-3.6v-1.5c0-2-0.6-3.4-1.9-4.1c1.3-0.7,1.9-2,1.9-3.9v-0.6
	c0-1.6-0.4-2.8-1.2-3.6c-0.8-0.9-2-1.3-3.6-1.3c-1.6,0-2.7,0.4-3.6,1.3c-0.8,0.9-1.2,2.1-1.2,3.6v0.6c0,1.9,0.6,3.2,1.9,3.9
	c-1.3,0.7-1.9,2.1-1.9,4.1v1.5C403.2,607,403.6,608.2,404.4,609.1 M401.5,607.3h-3.1v2.8h3.1V607.3z M390,595.4
	c0-0.8,0.2-1.4,0.5-1.7c0.3-0.3,0.7-0.5,1.3-0.5c0.5,0,1,0.2,1.3,0.5c0.3,0.3,0.5,0.9,0.5,1.7v1.1c0,1.4-0.6,2.1-1.7,2.1
	c-1.2,0-1.7-0.7-1.7-2.1V595.4z M390,603.5c0-1.5,0.6-2.2,1.7-2.2c1.2,0,1.7,0.7,1.7,2.2v1.8c0,0.8-0.2,1.4-0.5,1.7
	c-0.3,0.3-0.7,0.5-1.3,0.5c-0.5,0-1-0.2-1.3-0.5c-0.3-0.3-0.5-0.9-0.5-1.7V603.5z M388.2,609.1c0.8,0.9,2,1.3,3.6,1.3
	s2.7-0.4,3.6-1.3c0.8-0.9,1.2-2.1,1.2-3.6v-1.5c0-2-0.6-3.4-1.9-4.1c1.3-0.7,1.9-2,1.9-3.9v-0.6c0-1.6-0.4-2.8-1.2-3.6
	c-0.8-0.9-2-1.3-3.6-1.3s-2.7,0.4-3.6,1.3c-0.8,0.9-1.2,2.1-1.2,3.6v0.6c0,1.9,0.6,3.2,1.9,3.9c-1.3,0.7-1.9,2.1-1.9,4.1v1.5
	C386.9,607,387.3,608.2,388.2,609.1"/>
<path class="st1" d="M421.7,561.8c0-0.7,0.1-1.2,0.4-1.5c0.3-0.3,0.6-0.5,1.2-0.5h1.5v6h-1.2c-0.6,0-1.1-0.2-1.4-0.5
	c-0.3-0.3-0.5-0.8-0.5-1.6V561.8z M421.4,576.5c0.1-0.2,0.1-0.4,0.2-0.5c0-0.1,0.1-0.3,0.1-0.7c0-0.3,0-0.7,0-1.2v-3.1
	c0-0.9,0.2-1.5,0.5-1.9c0.3-0.4,0.8-0.6,1.5-0.6h1.1v8h3.1v-19.6h-4.6c-1.6,0-2.7,0.4-3.5,1.1c-0.7,0.7-1.1,1.9-1.1,3.4v1.5
	c0,2,0.7,3.3,2,4c-0.7,0.3-1.3,0.8-1.6,1.5c-0.3,0.7-0.5,1.6-0.5,2.7v3c0,1.1-0.1,1.8-0.3,2.4H421.4z M410,576.5v-8.4h3.5v8.4h3.1
	v-19.6h-3.1v8.4H410v-8.4h-3.1v19.6H410z M397.3,576.5l2.4-7.3l2.4,7.3h3.1l-3.4-10l3.2-9.6h-2.7l-2.4,7.3l-2.3-7.3h-3.1l3.2,9.5
	l-3.4,10.1H397.3z M386.8,572l0,0.2c-0.1,0.7-0.4,1.1-0.8,1.3c-0.4,0.2-1.1,0.3-1.9,0.2v2.8c0.8,0.1,1.6,0,2.2-0.1
	c0.6-0.1,1.1-0.3,1.6-0.5c0.4-0.2,0.8-0.6,1.1-1c0.3-0.4,0.5-0.9,0.7-1.5c0.2-0.5,0.4-1.2,0.5-1.9l3.3-14.6h-3.1l-1.4,6.7l-0.7,4.5
	l-1-4.6l-1.7-6.7h-3.1L386.8,572z M375,576.5v-6l1-1.8l3,7.8h3.2l-4.3-10.9l4.3-8.7H379l-4,8.5v-8.5h-3.1v19.6H375z"/>
<path class="st1" d="M433.7,751.6c1.5,0,2.7-0.3,3.3-1c0.7-0.6,1-1.7,1-3.3v-11c0-1.6-0.3-2.7-1-3.3c-0.7-0.6-1.8-1-3.3-1h-0.9v2.7
	h0.8c0.5,0,0.9,0.1,1.1,0.4c0.2,0.2,0.3,0.7,0.3,1.4v10.8c0,0.7-0.1,1.1-0.3,1.4c-0.2,0.2-0.6,0.4-1.1,0.4h-0.8v2.7H433.7z
	 M423.5,750.5c0.8,0.8,2,1.3,3.5,1.3c1.5,0,2.6-0.4,3.4-1.3c0.8-0.9,1.2-2.1,1.2-3.6v-4.4c0-1.5-0.3-2.6-0.9-3.3
	c-0.6-0.8-1.4-1.1-2.5-1.1c-1.2,0-2.1,0.5-2.7,1.4l0.2-4.7h5.3V732h-8.2l-0.6,11.4h3.1v-0.6c0-1.3,0.5-1.9,1.6-1.9
	c1.1,0,1.6,0.6,1.6,1.9v4.3c0,1.3-0.5,1.9-1.6,1.9c-1.1,0-1.6-0.6-1.6-1.9v-1.8h-3.1v1.6C422.2,748.5,422.6,749.7,423.5,750.5
	 M420.3,748.7h-3.1v2.8h3.1V748.7z M411.3,737.9v7.4h-3.1L411.3,737.9z M411.3,748v3.6h3.1V748h1.4v-2.8h-1.4V732H411l-5.6,13.2v2.8
	H411.3z M400.3,750.6c0.7,0.6,1.8,1,3.3,1h0.9v-2.7h-0.8c-0.5,0-0.9-0.1-1.1-0.4c-0.2-0.2-0.3-0.7-0.3-1.4v-10.8
	c0-0.7,0.1-1.1,0.3-1.4c0.2-0.2,0.6-0.4,1.1-0.4h0.8V732h-0.9c-1.5,0-2.7,0.3-3.3,1c-0.7,0.7-1,1.8-1,3.3v11
	C399.3,748.9,399.6,750,400.3,750.6 M386.5,736.5c0-1.3,0.5-1.9,1.6-1.9c1.1,0,1.6,0.6,1.6,1.9v10.6c0,1.3-0.5,1.9-1.6,1.9
	c-1.1,0-1.6-0.6-1.6-1.9V736.5z M384.6,750.5c0.8,0.9,2,1.3,3.5,1.3c1.5,0,2.7-0.4,3.5-1.3c0.8-0.9,1.2-2.1,1.2-3.6v-10.2
	c0-1.6-0.4-2.8-1.2-3.6c-0.8-0.9-2-1.3-3.5-1.3c-1.5,0-2.7,0.4-3.5,1.3c-0.8,0.9-1.2,2.1-1.2,3.6v10.2
	C383.4,748.4,383.8,749.7,384.6,750.5 M381.5,748.7h-3.1v2.8h3.1V748.7z M370.1,736.5c0-1.3,0.5-1.9,1.6-1.9c1.1,0,1.6,0.6,1.6,1.9
	v3.5c0,1.3-0.5,1.9-1.6,1.9c-1.1,0-1.6-0.6-1.6-1.9V736.5z M367.9,743.6c0.6,0.8,1.4,1.1,2.5,1.1c1.4,0,2.3-0.6,2.9-1.7v3.6
	c0,0.9-0.1,1.5-0.4,1.9c-0.3,0.4-0.7,0.5-1.3,0.5c-1.1,0-1.6-0.6-1.6-1.9v-0.7h-2.9v0.5c0,1.6,0.4,2.8,1.2,3.6
	c0.8,0.8,1.9,1.3,3.4,1.3c3.1,0,4.7-1.7,4.7-5.1v-10c0-1.6-0.4-2.8-1.2-3.6c-0.8-0.9-2-1.3-3.5-1.3c-1.5,0-2.7,0.4-3.5,1.3
	c-0.8,0.9-1.2,2.1-1.2,3.6v3.6C367.1,741.7,367.4,742.8,367.9,743.6"/>
<path class="st1" d="M687.7,503.4V497h-13.2c0-0.2-0.1-0.5-0.1-1c0-1,0.3-2,0.8-3c0.5-1,1.2-2.1,2-3c0.8-1,1.7-2,2.7-3.1
	c1-1.1,2-2.2,3-3.5c1-1.2,1.9-2.5,2.7-3.9c0.8-1.4,1.5-2.9,2-4.7c0.5-1.8,0.8-3.6,0.8-5.5c0-3.6-0.9-6.4-2.7-8.3
	c-1.8-1.9-4.4-2.9-7.8-2.9s-6,1-7.8,2.9c-1.8,1.9-2.7,4.7-2.7,8.3v4.4h6.7V469c0-2.9,1.2-4.4,3.6-4.4c1.2,0,2.1,0.4,2.7,1.1
	c0.6,0.7,0.9,2.1,0.9,4c0,1.7-0.3,3.4-0.8,4.9c-0.5,1.5-1.2,2.9-2,4c-0.8,1.2-1.7,2.3-2.7,3.4c-1,1.1-2,2.2-3,3.3
	c-1,1.1-1.9,2.3-2.7,3.4c-0.8,1.2-1.5,2.6-2,4.1c-0.5,1.6-0.8,3.2-0.8,5v5.5H687.7z M662.5,497h-7v6.5h7V497z M640,469.3v34.2h7
	v-44.8h-4.7c-0.3,0.7-0.5,1.3-0.7,1.8c-0.2,0.4-0.5,0.9-0.9,1.5c-0.4,0.6-0.9,1-1.4,1.3c-0.5,0.3-1.2,0.6-2,0.8
	c-0.8,0.2-1.7,0.3-2.8,0.3v5H640z M616.8,472.1v16.8h-7.1L616.8,472.1z M616.8,495.3v8.1h7v-8.1h3.2v-6.4h-3.2v-30.3h-7.7
	l-12.8,30.3v6.4H616.8z"/>
<path class="st2" d="M646.2,445.6c21.7,0,39.2-17.6,39.2-39.2c0-21.7-17.6-39.2-39.2-39.2c-21.7,0-39.2,17.6-39.2,39.2
	C607,428,624.6,445.6,646.2,445.6z"/>
<path class="st1" d="M651.4,424.5v-10.4l1.7-3.1l5.2,13.5h5.5l-7.4-18.8l7.4-15.1h-5.3l-7,14.8v-14.8H646v33.9H651.4z M634.3,398.7
	v25.9h5.3v-33.9H636c-0.2,0.6-0.4,1-0.5,1.3c-0.2,0.3-0.4,0.7-0.7,1.1c-0.3,0.4-0.6,0.7-1,1c-0.4,0.2-0.9,0.4-1.5,0.6
	c-0.6,0.2-1.3,0.2-2.1,0.2v3.8H634.3z"/>
<path class="st1" d="M473.7,383.1c0.6,0.7,1.6,1,2.7,1s2.1-0.3,2.7-1c0.6-0.7,0.9-1.6,0.9-2.8v-3.4c0-1.1-0.2-2-0.7-2.6
	c-0.4-0.6-1.1-0.9-2-0.9c-0.9,0-1.6,0.4-2.1,1.1l0.2-3.6h4.2v-2.2h-6.4l-0.5,8.9h2.4v-0.5c0-1,0.4-1.5,1.2-1.5
	c0.8,0,1.2,0.5,1.2,1.5v3.4c0,1-0.4,1.5-1.2,1.5c-0.8,0-1.2-0.5-1.2-1.5V379h-2.4v1.3C472.7,381.5,473,382.5,473.7,383.1
	 M471.1,381.7h-2.4v2.2h2.4V381.7z M461,383.1c0.6,0.7,1.6,1,2.7,1c1.2,0,2.1-0.3,2.7-1c0.6-0.7,0.9-1.6,0.9-2.8v-3.4
	c0-1.1-0.2-2-0.7-2.6c-0.4-0.6-1.1-0.9-2-0.9c-0.9,0-1.6,0.4-2.1,1.1l0.2-3.6h4.2v-2.2h-6.4l-0.5,8.9h2.4v-0.5c0-1,0.4-1.5,1.2-1.5
	c0.8,0,1.2,0.5,1.2,1.5v3.4c0,1-0.4,1.5-1.2,1.5c-0.8,0-1.2-0.5-1.2-1.5V379H460v1.3C460,381.5,460.3,382.5,461,383.1"/>
<path class="st1" d="M502.1,346.2c0-0.5,0.1-0.9,0.3-1.2c0.2-0.3,0.5-0.4,0.9-0.4h1.2v4.7h-0.9c-0.5,0-0.8-0.1-1.1-0.4
	c-0.2-0.2-0.4-0.7-0.4-1.3V346.2z M501.9,357.8c0.1-0.2,0.1-0.3,0.1-0.4c0-0.1,0-0.3,0.1-0.5c0-0.3,0-0.6,0-1v-2.4
	c0-0.7,0.1-1.2,0.4-1.5c0.2-0.3,0.6-0.4,1.2-0.4h0.8v6.2h2.4v-15.3h-3.6c-1.2,0-2.1,0.3-2.7,0.9c-0.6,0.6-0.9,1.5-0.9,2.7v1.2
	c0,1.6,0.5,2.6,1.6,3.1c-0.6,0.2-1,0.6-1.2,1.2c-0.2,0.5-0.4,1.2-0.4,2.1v2.4c0,0.8-0.1,1.4-0.2,1.9H501.9z M494.6,345.2l1.2,7.7
	h-2.3L494.6,345.2z M492.7,357.8l0.4-2.8h2.9l0.4,2.8h2.4l-2.4-15.3h-3.7l-2.4,15.3H492.7z M479.5,357.8l2.2-6.8l0.6,1.2v5.6h2.4
	v-5.6l0.6-1.2l2.2,6.8h2.4l-2.9-9l2.9-6.2h-2.3l-2.8,6.2v-6.2h-2.4v6.2l-2.8-6.2h-2.3l3,6.3l-3,9H479.5z M471.4,346
	c0-1,0.4-1.5,1.3-1.5c0.8,0,1.2,0.5,1.2,1.5v8.2c0,1-0.4,1.5-1.2,1.5c-0.8,0-1.3-0.5-1.3-1.5V346z M469.9,356.9c0.6,0.7,1.5,1,2.7,1
	c1.2,0,2.1-0.3,2.7-1c0.6-0.7,0.9-1.6,0.9-2.8v-8c0-1.2-0.3-2.2-0.9-2.8c-0.6-0.7-1.5-1-2.7-1c-1.2,0-2.1,0.3-2.7,1
	c-0.6,0.7-0.9,1.6-0.9,2.8v8C469,355.3,469.3,356.3,469.9,356.9 M461.6,357.8l1.9-5.7l1.8,5.7h2.4l-2.7-7.8l2.5-7.5h-2.1l-1.8,5.7
	l-1.8-5.7h-2.4l2.5,7.4l-2.7,7.9H461.6z M452.9,357.8l2-7l1-3.7v10.7h2.4v-15.3h-2.9l-2,6.3l-0.9,3.4v-9.7h-2.1v15.3H452.9z
	 M444.6,344.7h1.1c0.4,0,0.7,0.1,0.9,0.3c0.2,0.2,0.3,0.6,0.3,1.1v2.3c0,0.5-0.1,0.9-0.3,1.1c-0.2,0.2-0.5,0.3-0.9,0.3h-1.1V344.7z
	 M444.6,357.8V352h1.1c1.2,0,2.1-0.3,2.7-1c0.6-0.6,0.9-1.6,0.9-2.8v-2c0-1.2-0.3-2.2-0.9-2.8c-0.6-0.6-1.5-1-2.7-1h-3.5v15.3H444.6
	z M435.3,357.8v-13.1h2.7v13.1h2.4v-15.3h-7.5v15.3H435.3z"/>
</svg>
