<svg xmlns="http://www.w3.org/2000/svg" xmlns:xlink="http://www.w3.org/1999/xlink" xml:space="preserve" id="Слой_1" x="0" y="0" style="enable-background:new 0 0 223 373" version="1.1" viewBox="0 0 223 373"><style>.st0{fill:#f6ccce}.st1{fill:#39373a}.st3{fill:none}.st10,.st13,.st27,.st4{fill:none;stroke:#39373a}.st4{stroke-width:.6}.st10{stroke-width:.212}.st13{stroke-width:.206}.st27{stroke-width:.25}</style><path d="M111.1 56.6h83.8v289.1H111l.1-289.1z" class="st0"/><path d="M25 157.8h91V213H25v-55.2z" class="st0"/><path d="M105.9 345.4h20.7v6.7h-20.7v-6.7zm71.9 0h25.7v6.7h-25.7v-6.7z" class="st1"/><path d="M191.9 15.5h11.6v333.3h-11.6V15.5zm-86 336.3h22.5v6.4h-22.5v-6.4zm70.2 0h27.4v6.4h-27.4v-6.4zM19.2 153.9H25v34.6h-5.8v-34.6zm0 55.5h92.4v5.8H19.2v-5.8zm89.6-158.8h12.9V57h-12.9v-6.4z" class="st1"/><path d="M183.2 50.6h18.7V57h-18.7v-6.4zm-51 88.7h62.6v5.7h-62.6v-5.7zm-.1 70.1h62.7v5.7h-62.7v-5.7zm6.1-37.2h3.9v22.2h-3.9v-22.2z" class="st1"/><path d="M138.2 140.8h3.9v16.3h-3.9v-16.3zm3.1 45.4h50.9v2.3h-50.9v-2.3z" class="st1"/><path d="M153.9 187.8h41.4v2.3h-41.4v-2.3zM19.2 153.9h89.6v5.7H19.2v-5.7z" class="st1"/><path d="M105.9 15.5h5.8v161.1h-5.8V15.5zm0 185.7h5.8V348h-5.8V201.2z" class="st1"/><path d="M105.9 15.5h7.7v7h-7.7v-7zm84.5 0h9.7v7h-9.7v-7z" class="st1"/><path d="M110.6 253h83" style="fill:none;stroke:#39373a;stroke-dasharray:3.951,3.951"/><path d="M157.7 334.9c0-.8.1-1.1.7-1.1.7 0 .8.3.8 1.7-.3.2-.5.2-.8.2-.5.1-.7-.1-.7-.8m-1.4 4.2c.8.2 1.4.2 1.8.2 2.1 0 2.8-.5 2.8-3.4 0-2.6-.4-3.3-2.5-3.3-1.9 0-2.4.7-2.4 2.4 0 1.2.4 2 1.9 2 .6 0 1-.1 1.3-.4-.1 1.1-.3 1.4-1.1 1.4h-1.7l-.1 1.1zm-1.9-1.5c-.4 0-.6.1-.6.6v.4c0 .5.1.6.6.6h.4c.4 0 .6-.1.6-.6v-.4c0-.5-.1-.6-.6-.6h-.4zm-6.1-3.5h2c.5 0 .7 0 .7.3 0 .4-.4 1-1.1 1.7l-1.4 1.5c-.2.2-.2.4-.2.7v.9h4.8v-1.5h-1.9c-.3 0-.6 0-.9.1l1.6-1.6c.9-.9 1-1.3 1-2 0-1.3-.9-1.6-2.3-1.6-.7 0-1.4 0-2.3.2v1.3zm-1.2 5v-6.5h-1.8l-1.6.6.2 1.1 1.5-.3c-.1.3-.1.5-.1.8v4.3h1.8zm22-12.8c0-.2.1-.4.4-.4h1v.6c-.3.2-.6.3-.9.3-.3 0-.5-.1-.5-.4v-.1zm-1.3-1.8c.8 0 1.5-.1 2-.1s.6.1.6.5v.1h-1.6c-.9 0-1.5.5-1.5 1.2v.5c0 .9.7 1.3 1.6 1.3.8 0 1.3-.4 1.7-.8l.2.7h1.4v-3c0-1.4-.7-1.8-1.9-1.8-.7 0-1.9.1-2.6.2l.1 1.2zm-.8 0v-1.3h-4.6v1.3h1.5v3.4h1.7v-3.4h1.4zm-8.3 1.8c0-.2.1-.4.4-.4h1v.6c-.3.2-.6.3-.9.3-.3 0-.5-.1-.5-.4v-.1zm-1.3-1.8c.8 0 1.5-.1 2-.1s.6.1.6.5v.1h-1.6c-.9 0-1.5.5-1.5 1.2v.5c0 .9.7 1.3 1.6 1.3.8 0 1.3-.4 1.7-.8l.2.7h1.4v-3c0-1.4-.7-1.8-1.9-1.8-.7 0-1.9.1-2.6.2l.1 1.2zm-1.1-1.2h-1.7v1.6h-1.4v-1.6h-1.7v4.6h1.7V326h1.4v1.9h1.7v-4.6zm-7.9 0c-.4 0-.6.2-.6.5l-.4 1.7c-.1.2-.1.5-.1.7h-.1c0-.2 0-.5-.1-.7l-.4-1.7c-.1-.4-.3-.5-.6-.5h-1.4c-.4 0-.6.2-.6.6l-.1 4.1h1.5l.1-3.4h.1l.6 2.3c.1.4.3.5.6.5h.8c.4 0 .6-.2.6-.5l.6-2.3h.1l.1 3.4h1.5l-.1-4.1c0-.4-.2-.6-.6-.6h-1.5zm-7.8 1c.6 0 .7.2.7 1.3 0 1-.1 1.3-.7 1.3s-.7-.2-.7-1.3c0-1 .2-1.3.7-1.3m0-1.2c-1.8 0-2.5.7-2.5 2.5s.7 2.4 2.5 2.4 2.5-.6 2.5-2.4c0-1.8-.6-2.5-2.5-2.5m-4.6 2.4c1.1-.2 1-.3 1.6-2.2h-1.7c-.4 1.5-.4 1.7-1.1 1.7h-.2c0-.2.1-.4.1-.6v-1.1H133v4.6h1.7v-1.5c0-.1 0-.2-.1-.4h.4c.5 0 .5.1 1 1.9h1.8c-.7-2.2-.7-2.2-1.8-2.4zm30-11.4h-.7c-.4 0-.5-.1-.5-.6 0-.4.1-.4.5-.4h.7v1zm-1.8.6c-.3 0-.8.1-.9.5l-.4 1.5h1.7l.3-1.3c0-.2.1-.3.4-.3h.6v1.5h1.6V312c-.6-.1-1.1-.1-2.4-.1-1.7 0-2.1.3-2.1 1.5.2.6.4 1.1 1.2 1.3zm-5 .4c0-.2.1-.4.4-.4h1v.6c-.3.2-.6.3-.9.3-.3 0-.5-.1-.5-.4v-.1zm-1.2-1.9c.8 0 1.5-.1 2-.1s.6.1.6.5v.1H159c-.9 0-1.5.5-1.5 1.2v.5c0 .9.7 1.3 1.6 1.3.8 0 1.3-.4 1.7-.8l.2.7h1.4v-3c0-1.4-.7-1.8-1.9-1.8-.7 0-1.9.1-2.6.2l.1 1.2zm-1.2-1.2H154c-.8 0-1.2.4-1.3 1.2-.1.9-.1 1.5-.2 1.8-.1.4-.4.4-.8.4l.2 1.3c1 .2 1.9-.1 2.1-1.2.1-.5.2-1.2.3-2 0-.3.2-.4.4-.4h.4v3.5h1.7V312zm-5.7 4.7V312h-1.5l-1.5 2.2c-.1.2-.3.4-.4.7 0-.3.1-.5.1-.7V312h-1.5v4.6h1.5l1.4-2.1c.1-.2.3-.5.4-.8 0 .3-.1.5-.1.8v2.1l1.6.1zm-7.6-3.4c1.3-.2 1.3-.8 2-3.1h-1.8c-.6 1.9-.7 2.5-1.3 2.5h-.3c.1-.3.1-.5.1-.8v-1.7h-1.7v1.7c0 .3 0 .5.1.8h-.3c-.6 0-.7-.6-1.3-2.5h-1.8c.7 2.3.7 2.9 2 3.1v.1c-1.3.2-1.4.7-2.1 3.3h1.8c.7-2.3.8-2.8 1.4-2.8h.3c-.1.2-.1.4-.1.6v2.2h1.7v-2.2c0-.2 0-.4-.1-.6h.3c.7 0 .7.4 1.4 2.8h1.9c-.8-2.7-.9-3.2-2.2-3.4zM70.8 190.5c.8 0 1 .3 1 2.3s-.2 2.3-1 2.3-1-.3-1-2.3c0-2 .2-2.3 1-2.3m0-1.5c-2.2 0-2.9.9-2.9 3.7s.8 3.7 2.9 3.7c2.2 0 2.9-.9 2.9-3.7.1-2.8-.7-3.7-2.9-3.7m-4.9 5.5c-.5 0-.7.2-.7.6v.5c0 .5.2.7.7.7h.4c.5 0 .7-.2.7-.7v-.5c0-.5-.2-.6-.7-.6h-.4zm-6-5.4.1 1.6h3.1c-.2.3-.3.5-.3.8l-1.7 4.9H63l2.2-6.2c.2-.5-.2-1-.7-1h-4.6v-.1zm31.2-8.1h-.7c-.5 0-.6-.1-.6-.6 0-.4.1-.5.6-.5h.7v1.1zm-2 .6c-.3 0-.8.1-1 .6l-.4 1.6h1.9l.3-1.4c0-.2.2-.3.5-.3h.7v1.7H93v-5.2c-.6-.1-1.2-.1-2.6-.1-1.9 0-2.4.4-2.4 1.7 0 .6.2 1.2 1.1 1.4zm-5.5.4c0-.2.1-.4.4-.4h1.1v.6c-.3.2-.7.4-1 .4-.3 0-.5-.1-.5-.4v-.2zm-1.4-2c.9-.1 1.7-.1 2.2-.1.5 0 .7.2.7.6v.1h-1.7c-1 0-1.7.5-1.7 1.3v.5c0 1 .8 1.5 1.7 1.5.9 0 1.5-.5 1.8-.9l.2.8H87v-3.3c0-1.5-.8-2-2.2-2-.8 0-2.1.1-2.8.3l.2 1.2zm-2.9 1.1c1.2-.2 1.2-.3 1.8-2.4h-1.9c-.5 1.7-.6 1.9-1.1 1.9h-.3c0-.2.1-.4.1-.6v-1.2h-1.6v1.2c0 .2 0 .4.1.6H76c-.5 0-.6-.2-1.1-1.9H73c.7 2.1.6 2.3 1.8 2.4v.1c-1.3.2-1.3.3-2 2.7h1.9c.7-2 .7-2.1 1.1-2.1h.4c0 .2-.1.3-.1.4v1.6h1.7v-1.6c0-.1 0-.3-.1-.4h.4c.5 0 .5.1 1.2 2.1h1.9c-.6-2.5-.7-2.6-1.9-2.8zm-9.7-1.3c.6 0 .8.3.8 1.4 0 1.1-.2 1.4-.8 1.4-.7 0-.8-.3-.8-1.4 0-1.1.2-1.4.8-1.4m0-1.3c-2 0-2.8.7-2.8 2.7s.8 2.7 2.8 2.7c2 0 2.8-.7 2.8-2.7s-.7-2.7-2.8-2.7m-4.9 5.3h1.9l-1.5-2.6 1.4-2.5h-1.9l-1 1.9-1-1.9h-1.9l1.4 2.5-1.5 2.6h1.9l1.1-2.1 1.1 2.1zm-4.7 0v-5.2h-1.6l-1.7 2.5c-.2.2-.3.5-.4.8 0-.3.1-.5.1-.8v-2.4h-1.7v5.2h1.6l1.6-2.4c.2-.2.3-.6.4-.9 0 .3-.1.6-.1.9v2.3H60zm-9.9-3.6c.3-.2.6-.3 1-.3.5 0 .7.2.7 1.4s-.2 1.4-.7 1.4c-.4 0-.6-.1-.9-.2v-2.3zm-.3-1.6h-1.5v7.1h1.9v-2.2c.5.3 1 .5 1.7.5 1.3 0 2-.6 2-2.7 0-1.8-.5-2.8-1.8-2.8-.8 0-1.6.4-2 .9l-.3-.8zm-2.8-2h-6v7.2h2V178h2.1v5.9h2c-.1-.1-.1-7.3-.1-7.3zm111.8 20 .1 1.6h3.1c-.2.3-.3.5-.4.8l-1.7 4.9h1.9l2.2-6.2c.2-.5-.2-1-.7-1h-4.5zm-1.4 5.4c-.5 0-.7.2-.7.6v.5c0 .5.2.6.7.6h.4c.5 0 .6-.2.6-.6v-.5c0-.5-.2-.6-.6-.6h-.4zm-1.9 1.8v-7.2h-1.9l-1.8.7.2 1.2 1.7-.4c-.1.3-.1.6-.1.9v4.8h1.9zm7.4-37.4.1-1.4h-4.5l-.2 3.2c0 .3.2.6.6.6l1.1.1c1 .1 1.3.2 1.3.9 0 .6-.3.8-1.2.8-.5 0-1.2 0-1.9-.1l-.2 1.5c.9.1 1.8.2 2.6.2 2 0 2.6-1.1 2.6-2.3 0-1.2-.4-2.2-2.1-2.4l-1.2-.2.1-1 2.9.1zm-6.8 4c-.5 0-.6.2-.6.6v.5c0 .5.2.6.6.6h.4c.5 0 .7-.2.7-.6v-.5c0-.5-.2-.6-.7-.6h-.4zm-6.5-4h2c.7 0 .9.1.9.7 0 .5-.1.8-.8.8h-1.4v1.3h1.4c.8 0 .9.2.9.8 0 .7-.3.9-1.2.9-.6 0-1.1 0-2-.1l-.1 1.4c.8.1 1.7.2 2.6.2 1.9 0 2.6-.6 2.6-2.1 0-1.1-.3-1.6-1.3-1.8.9-.1 1.1-.8 1.1-1.8 0-1.3-.7-1.7-2.4-1.7-.8 0-1.6.1-2.4.2l.1 1.2zm12.3-123.2V36H160l-1.8.7.2 1.2 1.7-.4c-.1.3-.1.6-.1.8v4.8l1.9.1zm-5-1.7c-.5 0-.6.2-.6.7v.5c0 .5.2.7.6.7h.4c.5 0 .7-.2.7-.7v-.5c0-.5-.2-.7-.7-.7h-.4zm-6.5-4h2c.7 0 .9.1.9.7 0 .5-.1.8-.8.8h-1.4v1.3h1.4c.8 0 .9.2.9.8 0 .7-.3.9-1.2.9-.6 0-1.1 0-2-.1l-.1 1.4c.8.1 1.7.2 2.6.2 1.9 0 2.6-.6 2.6-2.1 0-1.1-.3-1.6-1.3-1.8.9-.2 1.1-.8 1.1-1.8 0-1.3-.7-1.7-2.4-1.7-.8 0-1.6.1-2.4.2l.1 1.2zm-21.6 144.8c.8 0 1 .3 1 2.3s-.2 2.3-1 2.3-1-.3-1-2.3c0-1.9.2-2.3 1-2.3m0-1.5c-2.2 0-2.9.9-2.9 3.7s.8 3.7 2.9 3.7c2.2 0 2.9-.9 2.9-3.7.1-2.7-.7-3.7-2.9-3.7m-4.9 5.6c-.5 0-.7.2-.7.6v.5c0 .5.2.6.7.6h.4c.5 0 .7-.2.7-.6v-.5c0-.5-.2-.6-.7-.6h-.4zm-6.4-4h2c.7 0 .9.1.9.7 0 .5-.1.8-.8.8h-1.4v1.3h1.4c.8 0 .9.2.9.8 0 .7-.3.9-1.2.9-.6 0-1.1 0-2-.1l-.1 1.4c.8.1 1.7.2 2.6.2 1.9 0 2.6-.6 2.6-2.1 0-1.1-.3-1.6-1.3-1.8.9-.1 1.1-.8 1.1-1.8 0-1.3-.7-1.7-2.4-1.7-.8 0-1.6.1-2.4.2l.1 1.2zm31.8 62h1.8c.7 0 .8.1.8.6 0 .4-.1.7-.8.7h-1.2v1.1h1.2c.7 0 .8.2.8.8 0 .6-.2.8-1.1.8-.6 0-1 0-1.8-.1l-.1 1.3c.7.1 1.6.2 2.3.2 1.7 0 2.3-.6 2.3-1.9 0-1-.3-1.5-1.2-1.6.8-.1 1-.7 1-1.6 0-1.1-.6-1.5-2.2-1.5-.7 0-1.4.1-2.2.2l.4 1zm-1.9 3.6c-.4 0-.6.1-.6.6v.4c0 .4.1.6.6.6h.4c.4 0 .6-.1.6-.6v-.4c0-.4-.1-.6-.6-.6h-.4zm-1.6-3.6.1-1.3h-4l-.2 2.9c0 .3.2.5.5.6l1 .1c.9.1 1.2.2 1.2.8 0 .5-.2.7-1.1.7-.5 0-1.1 0-1.7-.1l-.2 1.3c.8.1 1.6.2 2.3.2 1.8 0 2.4-.9 2.4-2.1 0-1-.4-2-1.9-2.1l-1.1-.1.1-.9h2.6zm26.8-7.6c0-.2.1-.4.4-.4h1v.6c-.3.2-.6.3-.9.3-.3 0-.5-.1-.5-.4v-.1zm-1.3-1.9c.8-.1 1.5-.1 2-.1s.6.1.6.5v.1h-1.6c-.9 0-1.5.4-1.5 1.2v.5c0 .9.7 1.3 1.6 1.3.8 0 1.3-.4 1.7-.8l.2.7h1.4v-3c0-1.4-.7-1.8-1.9-1.8-.7 0-1.9.1-2.6.2l.1 1.2zm-1.1-1.2h-1.6v3.5h-1.1v-3.5H166v3.5h-1.1v-3.5h-1.6v4.6h7l-.1-4.6zm-8 4.7v-4.7h-1.5l-1.5 2.2c-.1.2-.3.4-.4.7 0-.3.1-.5.1-.7v-2.2h-1.5v4.6h1.5l1.4-2.1c.1-.2.3-.5.4-.8 0 .3-.1.6-.1.8v2.1l1.6.1zm-5.8-4.7h-1.7v1.6h-1.4v-1.6h-1.7v4.6h1.7v-1.9h1.4v1.9h1.7v-4.6zm-5.8 1.8h-2.8v1h2.8v-1zm-5.4.3h-.7c-.4 0-.5-.1-.5-.6 0-.4.1-.4.5-.4h.7v1zm-1.8.6c-.3 0-.8.1-.9.5l-.4 1.5h1.7l.3-1.3c0-.2.1-.3.4-.3h.6v1.5h1.6v-4.7c-.6-.1-1.1-.1-2.4-.1-1.7 0-2.1.3-2.1 1.5.2.7.4 1.2 1.2 1.4zm-1.9-2.7h-1.7v1.6h-1.4v-1.6h-1.7v4.6h1.7v-1.9h1.4v1.9h1.7v-4.6zm-7 4.7h1.7l-1.4-2.4 1.3-2.3h-1.7l-.9 1.7-.9-1.7h-1.7l1.3 2.3-1.4 2.4h1.7l1-1.9 1 1.9zm-3.8-4.7h-1.8l-.7 2.8c-.1.2-.1.5-.2.8h-.1c0-.3-.1-.5-.1-.8l-.7-2.8h-1.8l1.4 4.3c.1.2.3.4.5.4h.3c-.1.2-.3.4-.5.6-.3.2-.7.2-1.3.2l-.1 1.1c.7.1 1.4.1 1.9-.1.7-.3 1.3-.7 1.6-1.8l1.6-4.7zM123 235c1.3-.2 1.3-.8 2-3.1h-1.8c-.5 1.9-.6 2.5-1.5 2.5h-.3c.1-.3.1-.5.1-.8v-1.7h-1.8v6.5h1.8v-2.2c0-.2 0-.4-.1-.6h.3c.9 0 1 .4 1.6 2.8h1.8c-.7-2.7-.8-3.2-2.1-3.4zm38.1-125.2.1-1.4h-4.5l-.2 3.2c0 .3.2.6.6.7l1.1.1c1 .1 1.3.2 1.3.9 0 .6-.3.8-1.2.8-.5 0-1.2 0-1.9-.1l-.2 1.5c.9.1 1.8.2 2.6.2 2 0 2.6-1.1 2.6-2.3 0-1.2-.4-2.2-2.1-2.4l-1.2-.2.1-1h2.9zm-6.7 4c-.5 0-.6.2-.6.7v.5c0 .5.2.7.6.7h.4c.5 0 .7-.2.7-.7v-.5c0-.5-.2-.7-.7-.7h-.4zm-1.9 1.7v-7.2h-1.9l-1.8.7.2 1.2 1.7-.4c-.1.3-.1.6-.1.8v4.8l1.9.1zm-4.7 0v-7.2h-1.9l-1.8.7.2 1.2 1.7-.4c-.1.3-.1.6-.1.8v4.8l1.9.1zm23.5-14.2c0-.2.1-.4.4-.4h1.1v.7c-.3.2-.7.3-1 .3-.3 0-.5-.2-.5-.4v-.2zm-1.5-2.1c.9-.1 1.7-.1 2.2-.1.5 0 .7.2.7.6v.1H171c-1 0-1.6.5-1.6 1.3v.5c0 1 .8 1.5 1.7 1.5.9 0 1.5-.5 1.8-.9l.2.8h1.5v-3.3c0-1.5-.8-2-2.2-2-.8 0-2.1.1-2.8.3l.2 1.2zm-.8.1v-1.4h-5.2v1.4h1.6v3.8h1.9v-3.8h1.7zm-9.2 2c0-.2.1-.4.4-.4h1.1v.7c-.3.2-.7.3-1 .3-.3 0-.5-.2-.5-.4v-.2zm-1.5-2.1c.9-.1 1.7-.1 2.2-.1.5 0 .7.2.7.6v.1h-1.7c-1 0-1.6.5-1.6 1.3v.5c0 1 .8 1.5 1.7 1.5.9 0 1.5-.5 1.8-.9l.2.8h1.5v-3.3c0-1.5-.8-2-2.2-2-.8 0-2.1.1-2.8.3l.2 1.2zm-1.3-1.3h-1.9v1.8h-1.6v-1.8h-1.9v5.2h1.9V101h1.6v2.1h1.9v-5.2zm-8.7 0c-.4 0-.6.2-.7.6l-.4 1.9c-.1.3-.1.5-.1.8h-.1c0-.3 0-.5-.1-.8l-.5-1.9c-.1-.4-.3-.6-.7-.6h-1.6c-.4 0-.6.2-.6.7l-.1 4.5h1.7l.1-3.8h.1l.6 2.5c.1.4.3.6.7.6h.9c.4 0 .6-.2.7-.6l.6-2.5h.1l.1 3.8h1.7l-.1-4.5c0-.4-.2-.7-.6-.7h-1.7zm-8.6 1.2c.6 0 .8.3.8 1.4 0 1.1-.2 1.4-.8 1.4-.6 0-.8-.3-.8-1.4 0-1.2.1-1.4.8-1.4m0-1.4c-2 0-2.8.7-2.8 2.7s.8 2.7 2.8 2.7c2 0 2.8-.7 2.8-2.7 0-1.9-.8-2.7-2.8-2.7m-5.2 2.6c1.2-.2 1.1-.3 1.8-2.5h-1.9c-.4 1.7-.5 1.9-1.2 1.9h-.2c0-.2.1-.4.1-.7v-1.2h-1.9v5.2h1.9v-1.6c0-.1 0-.3-.1-.4h.4c.6 0 .6.2 1.1 2.1h2c-.7-2.5-.8-2.6-2-2.8zm33.4-12.6h-.7c-.5 0-.6-.1-.6-.7 0-.4.1-.5.6-.5h.7v1.2zm-2 .7c-.3 0-.9.1-1 .6l-.4 1.6h1.9l.3-1.4c0-.2.2-.3.5-.3h.7v1.7h1.8v-5.2c-.6-.1-1.2-.1-2.6-.1-1.9 0-2.4.4-2.4 1.7 0 .5.3 1.1 1.2 1.4zm-5.6.4c0-.2.1-.4.4-.4h1.1v.6c-.3.2-.7.3-1 .3-.3 0-.5-.2-.5-.4v-.1zm-1.4-2.1c.9-.1 1.7-.1 2.2-.1.5 0 .7.2.7.6v.1h-1.7c-1 0-1.6.5-1.6 1.3v.5c0 1 .8 1.5 1.7 1.5.9 0 1.5-.5 1.8-.9l.2.8h1.5v-3.3c0-1.5-.8-2-2.2-2-.8 0-2.1.1-2.8.3l.2 1.2zm-1.3-1.3h-3.1c-.9 0-1.4.5-1.4 1.3-.1.9-.2 1.7-.3 2-.1.4-.4.4-.9.5l.2 1.4c1.1.2 2.2-.1 2.4-1.3.1-.5.2-1.4.3-2.2 0-.3.2-.4.5-.4h.4v3.9h1.9v-5.2zm-6.3 5.2v-5.2h-1.6l-1.6 2.5c-.2.2-.3.5-.4.8 0-.3.1-.5.1-.8v-2.4H146v5.2h1.6l1.6-2.4c.1-.2.3-.6.4-.9 0 .3-.1.6-.1.9v2.3h1.8zm-8.4-3.8c1.4-.2 1.4-.8 2.2-3.4h-2c-.6 2.2-.8 2.8-1.5 2.8h-.3c.1-.3.1-.6.1-.9v-1.9h-1.9v1.9c0 .3 0 .6.1.9h-.4c-.7 0-.8-.6-1.5-2.8h-2c.8 2.6.8 3.2 2.2 3.4v.1c-1.4.2-1.5.8-2.4 3.7h2c.8-2.6.9-3.1 1.6-3.1h.4c-.1.2-.1.5-.1.7v2.4h1.9v-2.4c0-.2 0-.4-.1-.7h.3c.7 0 .8.5 1.6 3.1h2.1c-.8-3-.9-3.5-2.3-3.8z" class="st1"/><path d="M19.2 15.5h184.3v342.8H19.2V15.5z" class="st3"/><path d="m22.1 209.3 11.2-18.8.8.5-11.2 18.8-.8-.5z" class="st4"/><defs><path id="SVGID_1_" d="M19.2 15.5h184.3v342.8H19.2z"/></defs><clipPath id="SVGID_2_"><use xlink:href="#SVGID_1_" style="overflow:visible"/></clipPath><path d="M33.2 190.4s-1.5-1.1-5-1.6-5.4-.4-5.4-.4" style="clip-path:url(#SVGID_2_);fill:none;stroke:#39373a;stroke-width:.4"/><path d="m111 213.1.5-.8 18.8 11.2-.5.8-18.8-11.2z" class="st4"/><defs><path id="SVGID_3_" d="M19.2 15.5h184.3v342.8H19.2z"/></defs><clipPath id="SVGID_4_"><use xlink:href="#SVGID_3_" style="overflow:visible"/></clipPath><path d="M130.4 223.4s1.1-1.5 1.6-5 .4-5.4.4-5.4" style="clip-path:url(#SVGID_4_);fill:none;stroke:#39373a;stroke-width:.4"/><path d="m111 141.9 18.8-11.2.5.8-18.8 11.2-.5-.8z" class="st4"/><defs><path id="SVGID_5_" d="M19.2 15.5h184.3v342.8H19.2z"/></defs><clipPath id="SVGID_6_"><use xlink:href="#SVGID_5_" style="overflow:visible"/></clipPath><path d="M130.4 131.6s1.1 1.5 1.6 5 .4 5.4.4 5.4" style="clip-path:url(#SVGID_6_);fill:none;stroke:#39373a;stroke-width:.4"/><path d="m130 169.8 9.8-16.4.8.5-9.8 16.4-.8-.5z" class="st4"/><defs><path id="SVGID_7_" d="M19.2 15.5h184.3v342.8H19.2z"/></defs><clipPath id="SVGID_8_"><use xlink:href="#SVGID_7_" style="overflow:visible"/></clipPath><path d="M130.9 170.4s1.5 1.1 5 1.6 5.4.4 5.4.4" style="clip-path:url(#SVGID_8_);fill:none;stroke:#39373a;stroke-width:.4"/><path d="m130 196.7.8-.5 9.8 16.4-.8.5-9.8-16.4z" class="st4"/><defs><path id="SVGID_9_" d="M19.2 15.5h184.3v342.8H19.2z"/></defs><clipPath id="SVGID_10_"><use xlink:href="#SVGID_9_" style="overflow:visible"/></clipPath><path d="M130.9 196.1s1.5-1.1 5-1.6 5.4-.4 5.4-.4" style="clip-path:url(#SVGID_10_);fill:none;stroke:#39373a;stroke-width:.4"/><defs><path id="SVGID_11_" d="M19.2 15.5h184.3v342.8H19.2z"/></defs><clipPath id="SVGID_12_"><use xlink:href="#SVGID_11_" style="overflow:visible"/></clipPath><path d="M173.5 215.6h-13.8v13.8h13.8v-13.8zm-14.2-.3h14.4v14.4h-14.4v-14.4z" class="st1"/><path d="M173.5 215.6h-13.8v13.8h13.8v-13.8zm-14.2-.3h14.4v14.4h-14.4v-14.4z" class="st10"/><defs><path id="SVGID_13_" d="M19.2 15.5h184.3v342.8H19.2z"/></defs><clipPath id="SVGID_14_"><use xlink:href="#SVGID_13_" style="overflow:visible"/></clipPath><path d="M171.4 228.1c.3 0 .6-.3.6-.6v-7.3c0-.3-.3-.6-.6-.6h-9.7c-.3 0-.6.3-.6.6v7.3c0 .3.3.6.6.6h9.7zm-9.7-8.8h9.7c.5 0 .9.4.9.9v7.3c0 .5-.4.9-.9.9h-9.7c-.5 0-.9-.4-.9-.9v-7.3c0-.4.4-.9.9-.9" style="clip-path:url(#SVGID_14_);fill:#39373a"/><defs><path id="SVGID_15_" d="M19.2 15.5h184.3v342.8H19.2z"/></defs><clipPath id="SVGID_16_"><use xlink:href="#SVGID_15_" style="overflow:visible"/></clipPath><path d="M171.4 228.1c.3 0 .6-.3.6-.6v-7.3c0-.3-.3-.6-.6-.6h-9.7c-.3 0-.6.3-.6.6v7.3c0 .3.3.6.6.6h9.7zm-9.7-8.8h9.7c.5 0 .9.4.9.9v7.3c0 .5-.4.9-.9.9h-9.7c-.5 0-.9-.4-.9-.9v-7.3c0-.4.4-.9.9-.9z" style="clip-path:url(#SVGID_16_);fill:none;stroke:#39373a;stroke-width:.212"/><path d="M170.9 220.7h-8.8v6.4h8.8v-6.4zm-9-.3h9.4v7h-9.4v-7z" class="st1"/><path d="M170.9 220.7h-8.8v6.4h8.8v-6.4zm-9-.3h9.4v7h-9.4v-7z" class="st10"/><path d="M166.6 225.1c.4 0 .8-.4.8-.8s-.4-.8-.8-.8-.8.4-.8.8.3.8.8.8m0-1.9c.6 0 1.1.5 1.1 1.1s-.5 1.1-1.1 1.1-1.1-.5-1.1-1.1.4-1.1 1.1-1.1" class="st1"/><path d="M166.6 225.1c.4 0 .8-.4.8-.8s-.4-.8-.8-.8-.8.4-.8.8.3.8.8.8zm0-1.9c.6 0 1.1.5 1.1 1.1s-.5 1.1-1.1 1.1-1.1-.5-1.1-1.1.4-1.1 1.1-1.1z" class="st10"/><path d="M167.1 175.9c2.5 0 4.5 2 4.5 4.5v4.8c0 .4-.3.7-.7.7h-10.1c-.4 0-.7-.3-.7-.7v-4.8c0-2.5 2-4.5 4.5-4.5h2.5zm-6.3 10.2h10.1c.5 0 .9-.4.9-.9v-4.8c0-2.6-2.1-4.7-4.7-4.7h-2.5c-2.6 0-4.7 2.1-4.7 4.7v4.8c0 .5.4.9.9.9" class="st1"/><path d="M167.1 175.9c2.5 0 4.5 2 4.5 4.5v4.8c0 .4-.3.7-.7.7h-10.1c-.4 0-.7-.3-.7-.7v-4.8c0-2.5 2-4.5 4.5-4.5h2.5zm-6.3 10.2h10.1c.5 0 .9-.4.9-.9v-4.8c0-2.6-2.1-4.7-4.7-4.7h-2.5c-2.6 0-4.7 2.1-4.7 4.7v4.8c0 .5.4.9.9.9z" class="st13"/><path d="M167.1 177.1c1.9 0 3.4 1.5 3.4 3.4v2.8c0 .3-.3.6-.6.6h-8.1c-.3 0-.6-.3-.6-.6v-2.8c0-1.9 1.5-3.4 3.4-3.4h2.5zm-5.2 6.9h8.1c.5 0 .8-.4.8-.8v-2.8c0-2-1.6-3.6-3.6-3.6h-2.5c-2 0-3.6 1.6-3.6 3.6v2.8c-.1.4.3.8.8.8" class="st1"/><path d="M167.1 177.1c1.9 0 3.4 1.5 3.4 3.4v2.8c0 .3-.3.6-.6.6h-8.1c-.3 0-.6-.3-.6-.6v-2.8c0-1.9 1.5-3.4 3.4-3.4h2.5zm-5.2 6.9h8.1c.5 0 .8-.4.8-.8v-2.8c0-2-1.6-3.6-3.6-3.6h-2.5c-2 0-3.6 1.6-3.6 3.6v2.8c-.1.4.3.8.8.8z" class="st13"/><path d="M165.9 179.4c.3 0 .6.3.6.6s-.3.6-.6.6-.6-.3-.6-.6.3-.6.6-.6m0 1.4c.4 0 .8-.4.8-.8s-.4-.8-.8-.8-.8.4-.8.8.3.8.8.8" class="st1"/><path d="M165.9 179.4c.3 0 .6.3.6.6s-.3.6-.6.6-.6-.3-.6-.6.3-.6.6-.6zm0 1.4c.4 0 .8-.4.8-.8s-.4-.8-.8-.8-.8.4-.8.8.3.8.8.8z" class="st13"/><path d="M121.4 351.8h56.9v6.1h-56.9v-6.1z" class="st4"/><path d="M121.4 345.7h56.9v12.2h-56.9v-12.2z" class="st4"/><path d="M121.4 350.5h56.9v7.4h-56.9v-7.4z" class="st4"/><path d="M19.2 15.5h184.3v342.8H19.2V15.5z" class="st3"/><path d="M109.1 22.2h88.4V24h-88.4v-1.8z" class="st4"/><defs><path id="SVGID_17_" d="M19.2 15.5h184.3v342.8H19.2z"/></defs><clipPath id="SVGID_18_"><use xlink:href="#SVGID_17_" style="overflow:visible"/></clipPath><path d="M109.1 15.8h87.6v11.9h-87.6V15.8z" style="clip-path:url(#SVGID_18_);fill:none;stroke:#39373a;stroke-width:.6"/><defs><path id="SVGID_19_" d="M19.2 15.5h184.3v342.8H19.2z"/></defs><clipPath id="SVGID_20_"><use xlink:href="#SVGID_19_" style="overflow:visible"/></clipPath><path d="M185.8 146s5 0 5 5v29.6s0 5-5 5h-6.6s-5 0-5-5V151s0-5 5-5h6.6z" style="clip-path:url(#SVGID_20_);fill:none;stroke:#39373a;stroke-width:.525"/><defs><path id="SVGID_21_" d="M19.2 15.5h184.3v342.8H19.2z"/></defs><clipPath id="SVGID_22_"><use xlink:href="#SVGID_21_" style="overflow:visible"/></clipPath><path d="M184.2 148.8s5 0 5 5v24.1s0 5-5 5h-3.6s-5 0-5-5v-24.1s0-5 5-5h3.6z" style="clip-path:url(#SVGID_22_);fill:none;stroke:#39373a;stroke-width:.525"/><defs><path id="SVGID_23_" d="M19.2 15.5h184.3v342.8H19.2z"/></defs><clipPath id="SVGID_24_"><use xlink:href="#SVGID_23_" style="overflow:visible"/></clipPath><path d="M185.2 152.1s2.5 0 2.5 2.5v24.3s0 2.5-2.5 2.5h-5.5s-2.5 0-2.5-2.5v-24.3s0-2.5 2.5-2.5h5.5z" style="clip-path:url(#SVGID_24_);fill:none;stroke:#39373a;stroke-width:.525"/><defs><path id="SVGID_25_" d="M19.2 15.5h184.3v342.8H19.2z"/></defs><clipPath id="SVGID_26_"><use xlink:href="#SVGID_25_" style="overflow:visible"/></clipPath><path d="M182.4 178.4c-.4 0-.7-.3-.7-.7s.3-.7.7-.7.7.3.7.7c.1.3-.3.7-.7.7z" style="clip-path:url(#SVGID_26_);fill:none;stroke:#39373a;stroke-width:.525"/><path d="M173.2 144.6v42.7" style="fill:none;stroke:#39373a;stroke-width:.525"/><path d="M157.3 140.6h14V159h-14v-18.4zm26.7 73h9.3v22.8H184v-22.8z" class="st4"/><path d="M185.2 231.1h5.6v3.4h-5.6v-3.4z" class="st4"/><defs><path id="SVGID_27_" d="M19.2 15.5h184.3v342.8H19.2z"/></defs><clipPath id="SVGID_28_"><use xlink:href="#SVGID_27_" style="overflow:visible"/></clipPath><path d="M172.9 198.2c0-2.8 2.3-5.1 5.1-5.1h7.4c.5 0 .9.4.9.9v8.5c0 .5-.4.9-.9.9H178c-2.8-.1-5.1-2.4-5.1-5.2m13.8 4.2v-8.5c0-.7-.6-1.2-1.2-1.2h-7.4c-3 0-5.5 2.4-5.5 5.5 0 3 2.4 5.5 5.5 5.5h7.4c.6-.1 1.2-.6 1.2-1.3" style="clip-path:url(#SVGID_28_);fill:#39373a"/><defs><path id="SVGID_29_" d="M19.2 15.5h184.3v342.8H19.2z"/></defs><clipPath id="SVGID_30_"><use xlink:href="#SVGID_29_" style="overflow:visible"/></clipPath><path d="M172.9 198.2c0-2.8 2.3-5.1 5.1-5.1h7.4c.5 0 .9.4.9.9v8.5c0 .5-.4.9-.9.9H178c-2.8-.1-5.1-2.4-5.1-5.2zm13.8 4.2v-8.5c0-.7-.6-1.2-1.2-1.2h-7.4c-3 0-5.5 2.4-5.5 5.5 0 3 2.4 5.5 5.5 5.5h7.4c.6-.1 1.2-.6 1.2-1.3z" style="clip-path:url(#SVGID_30_);fill:none;stroke:#39373a;stroke-width:.25"/><defs><path id="SVGID_31_" d="M19.2 15.5h184.3v342.8H19.2z"/></defs><clipPath id="SVGID_32_"><use xlink:href="#SVGID_31_" style="overflow:visible"/></clipPath><path d="M183.9 194.5v7.3c0 .1 0 .1-.1.1h-5.6c-2.1 0-3.8-1.7-3.8-3.8 0-2.1 1.7-3.8 3.8-3.8l5.7.2c-.1-.1 0-.1 0 0z" style="clip-path:url(#SVGID_32_);fill:none;stroke:#39373a;stroke-width:.25"/><defs><path id="SVGID_33_" d="M19.2 15.5h184.3v342.8H19.2z"/></defs><clipPath id="SVGID_34_"><use xlink:href="#SVGID_33_" style="overflow:visible"/></clipPath><path d="M183.7 194.6v7.2h-5.5c-2 0-3.6-1.6-3.6-3.6s1.6-3.6 3.6-3.6h5.5zm.4 7.2v-7.3c0-.1-.1-.3-.3-.3h-5.6c-2.2 0-3.9 1.8-3.9 3.9 0 2.2 1.8 3.9 3.9 3.9h5.6c.1.1.3 0 .3-.2" style="clip-path:url(#SVGID_34_);fill:#39373a"/><defs><path id="SVGID_35_" d="M19.2 15.5h184.3v342.8H19.2z"/></defs><clipPath id="SVGID_36_"><use xlink:href="#SVGID_35_" style="overflow:visible"/></clipPath><path d="M183.7 194.6v7.2h-5.5c-2 0-3.6-1.6-3.6-3.6s1.6-3.6 3.6-3.6h5.5zm.4 7.2v-7.3c0-.1-.1-.3-.3-.3h-5.6c-2.2 0-3.9 1.8-3.9 3.9 0 2.2 1.8 3.9 3.9 3.9h5.6c.1.1.3 0 .3-.2z" style="clip-path:url(#SVGID_36_);fill:none;stroke:#39373a;stroke-width:.25"/><defs><path id="SVGID_37_" d="M19.2 15.5h184.3v342.8H19.2z"/></defs><clipPath id="SVGID_38_"><use xlink:href="#SVGID_37_" style="overflow:visible"/></clipPath><path d="M178.2 198.2c0-.5.4-1 1-1s1 .4 1 1-.4 1-1 1-1-.5-1-1m2.3 0c0-.7-.6-1.3-1.3-1.3s-1.3.6-1.3 1.3c0 .7.6 1.3 1.3 1.3s1.3-.6 1.3-1.3" style="clip-path:url(#SVGID_38_);fill:#39373a"/><defs><path id="SVGID_39_" d="M19.2 15.5h184.3v342.8H19.2z"/></defs><clipPath id="SVGID_40_"><use xlink:href="#SVGID_39_" style="overflow:visible"/></clipPath><path d="M178.2 198.2c0-.5.4-1 1-1s1 .4 1 1-.4 1-1 1-1-.5-1-1zm2.3 0c0-.7-.6-1.3-1.3-1.3s-1.3.6-1.3 1.3c0 .7.6 1.3 1.3 1.3s1.3-.6 1.3-1.3z" style="clip-path:url(#SVGID_40_);fill:none;stroke:#39373a;stroke-width:.25"/><path d="m180.6 196.8 2.3-1.8.2.3-2.3 1.8-.2-.3z" class="st1"/><path d="m180.6 196.8 2.3-1.8.2.3-2.3 1.8-.2-.3z" class="st27"/><path d="m183.2 201-2.4-1.8-.2.3 2.4 1.8.2-.3z" class="st1"/><path d="m183.2 201-2.4-1.8-.2.3 2.4 1.8.2-.3z" class="st27"/><defs><path id="SVGID_41_" d="M19.2 15.5h184.3v342.8H19.2z"/></defs><clipPath id="SVGID_42_"><use xlink:href="#SVGID_41_" style="overflow:visible"/></clipPath><path d="M186.7 194.6c0-.8.6-1.4 1.4-1.4h1.9c.8 0 1.4.6 1.4 1.4v7.1c0 .8-.6 1.4-1.4 1.4h-1.9c-.8 0-1.4-.6-1.4-1.4v-7.1zm5.1 7.1v-7.1c0-1-.8-1.8-1.8-1.8h-1.9c-1 0-1.8.8-1.8 1.8v7.1c0 1 .8 1.8 1.8 1.8h1.9c1 0 1.8-.8 1.8-1.8" style="clip-path:url(#SVGID_42_);fill:#39373a"/><defs><path id="SVGID_43_" d="M19.2 15.5h184.3v342.8H19.2z"/></defs><clipPath id="SVGID_44_"><use xlink:href="#SVGID_43_" style="overflow:visible"/></clipPath><path d="M186.7 194.6c0-.8.6-1.4 1.4-1.4h1.9c.8 0 1.4.6 1.4 1.4v7.1c0 .8-.6 1.4-1.4 1.4h-1.9c-.8 0-1.4-.6-1.4-1.4v-7.1zm5.1 7.1v-7.1c0-1-.8-1.8-1.8-1.8h-1.9c-1 0-1.8.8-1.8 1.8v7.1c0 1 .8 1.8 1.8 1.8h1.9c1 0 1.8-.8 1.8-1.8z" style="clip-path:url(#SVGID_44_);fill:none;stroke:#39373a;stroke-width:.25"/><defs><path id="SVGID_45_" d="M19.2 15.5h184.3v342.8H19.2z"/></defs><clipPath id="SVGID_46_"><use xlink:href="#SVGID_45_" style="overflow:visible"/></clipPath><path d="M188.5 198.2c0-.3.3-.6.6-.6s.6.3.6.6-.3.6-.6.6-.6-.3-.6-.6m1.5 0c0-.5-.4-.9-.9-.9s-.9.4-.9.9.4.9.9.9.9-.4.9-.9" style="clip-path:url(#SVGID_46_);fill:#39373a"/><defs><path id="SVGID_47_" d="M19.2 15.5h184.3v342.8H19.2z"/></defs><clipPath id="SVGID_48_"><use xlink:href="#SVGID_47_" style="overflow:visible"/></clipPath><path d="M188.5 198.2c0-.3.3-.6.6-.6s.6.3.6.6-.3.6-.6.6-.6-.3-.6-.6zm1.5 0c0-.5-.4-.9-.9-.9s-.9.4-.9.9.4.9.9.9.9-.4.9-.9z" style="clip-path:url(#SVGID_48_);fill:none;stroke:#39373a;stroke-width:.25"/><defs><path id="SVGID_49_" d="M19.2 15.5h184.3v342.8H19.2z"/></defs><clipPath id="SVGID_50_"><use xlink:href="#SVGID_49_" style="overflow:visible"/></clipPath><path d="m173.3 293.6.1-3h-9.3l-.4 6.6c0 .7.4 1.2 1.2 1.3l2.3.3c2 .2 2.7.5 2.6 1.8-.1 1.2-.5 1.7-2.5 1.7-1.1 0-2.4-.1-3.8-.2l-.4 3c1.9.3 3.8.4 5.3.4 4.2 0 5.4-2.2 5.4-4.8 0-2.4-.9-4.5-4.3-4.9l-2.5-.3.1-2 6.2.1zm-13.9 8.1c-1 0-1.4.3-1.4 1.4v.9c0 1 .3 1.4 1.4 1.4h.9c1 0 1.4-.3 1.4-1.4v-.9c0-1-.3-1.4-1.4-1.4h-.9zm-8.4 1c-1.7 0-1.9-.5-1.9-3.8.7-.4 1.2-.6 1.9-.6 1.4 0 1.7.4 1.7 2 0 1.8-.1 2.4-1.7 2.4m4.5-11.9c-1.5-.4-3-.4-3.8-.4-4.3 0-6.4 1-6.4 7.8 0 6 1.3 7.5 5.7 7.5 4.5 0 5.5-1.7 5.5-5.4 0-3.3-1-4.6-4.3-4.6-1.3 0-2.2.2-3 .9.1-2.8.6-3.3 2.6-3.3h3.6l.1-2.5zm-11.7 8.8H142v-6.1h-3l-.6 2.3v3.8h-2.9c-.3 0-.6-.2-.4-.6l3.2-8.4h-3.8l-3.7 9.4c-.5 1.2.3 2.3 1.6 2.3h5.9v3.1h3.7v-3.1l1.7-.4.1-2.3z" style="clip-path:url(#SVGID_50_);fill:#39373a"/><defs><path id="SVGID_51_" d="M19.2 15.5h184.3v342.8H19.2z"/></defs><clipPath id="SVGID_52_"><use xlink:href="#SVGID_51_" style="overflow:visible"/></clipPath><circle cx="152.5" cy="273.9" r="13.1" style="clip-path:url(#SVGID_52_);fill:none;stroke:#39373a;stroke-width:.9"/><defs><path id="SVGID_53_" d="M19.2 15.5h184.3v342.8H19.2z"/></defs><clipPath id="SVGID_54_"><use xlink:href="#SVGID_53_" style="overflow:visible"/></clipPath><path d="M161.5 277.1c-1 .1-2 .1-3.5.1-1.3 0-1.7-.7-1.7-3.2s.4-3.2 1.7-3.2h3.3l.2-2.2c-1.1-.3-1.9-.4-3.5-.4-3.6 0-4.9 1.5-4.9 5.8s1.3 5.8 4.9 5.8c1.7 0 2.7-.1 3.8-.5l-.3-2.2zm-17.8-6.2c1.5-.1 2.4-.1 3.5-.1.9 0 1.2 0 1.2.5 0 .6-.7 1.6-2 2.9l-2.5 2.6c-.3.4-.4.7-.4 1.2v1.6h8.3V277h-3.2c-.5 0-1.1 0-1.6.1l2.8-2.7c1.5-1.5 1.8-2.3 1.8-3.5 0-2.2-1.6-2.7-4-2.7-1.2 0-2.4 0-4 .4l.1 2.3z" style="clip-path:url(#SVGID_54_);fill:#39373a"/><path d="M122 54.5h20.9v2.1H122zm21-2.4h20.9v2.1H143zm20.9-1.4h19.7v2.1h-19.7z" class="st4"/></svg>