<svg xmlns="http://www.w3.org/2000/svg" xmlns:xlink="http://www.w3.org/1999/xlink" xml:space="preserve" id="Слой_1" x="0" y="0" style="enable-background:new 0 0 240 240" version="1.1" viewBox="0 0 240 240"><style>.st2{fill:#39363a}.st8,.st9{fill:none;stroke:#39363a;stroke-width:1.11}.st9{stroke-width:.666}.st10{clip-path:url(#SVGID_12_)}.st10,.st11{fill:none;stroke:#39363a;stroke-width:.564}.st12,.st13{clip-path:url(#SVGID_14_);fill:#39363a}.st13{fill:none;stroke:#39363a;stroke-width:.235}.st14{fill:#39363a}.st14,.st15{clip-path:url(#SVGID_16_)}.st15,.st16{fill:none;stroke:#39363a;stroke-width:.243}.st17,.st18{clip-path:url(#SVGID_18_);fill:#39363a}.st18{fill:none;stroke:#39363a;stroke-width:.243}.st34{clip-path:url(#SVGID_44_);fill:#39363a}</style><switch><g><path d="M0 0h240v240H0z" style="fill:#fff"/><path d="M25.4 22.8h186.9V169H25.4z" style="fill:#f5ccce"/><path d="M22.6 18.8h3.7v204.4h-3.7z" class="st2"/><defs><path id="SVGID_1_" d="M22.1 15.6h195.8v208.8H22.1z"/></defs><clipPath id="SVGID_2_"><use xlink:href="#SVGID_1_" style="overflow:visible"/></clipPath><path d="M22.6 18.8h3.7v204.4h-3.7z" style="clip-path:url(#SVGID_2_);fill:none;stroke:#39363a;stroke-width:1.11"/><path d="M105.8 17.4h109.7v4.8H105.8z" class="st2"/><defs><path id="SVGID_3_" d="M22.1 15.6h195.8v208.8H22.1z"/></defs><clipPath id="SVGID_4_"><use xlink:href="#SVGID_3_" style="overflow:visible"/></clipPath><path d="M105.8 17.4h109.7v4.8H105.8z" style="clip-path:url(#SVGID_4_);fill:none;stroke:#39363a;stroke-width:1.11"/><path d="M22.9 20h57.7v2.1H22.9z" class="st2"/><defs><path id="SVGID_5_" d="M22.1 15.6h195.8v208.8H22.1z"/></defs><clipPath id="SVGID_6_"><use xlink:href="#SVGID_5_" style="overflow:visible"/></clipPath><path d="M22.9 20h57.7v2.1H22.9z" style="clip-path:url(#SVGID_6_);fill:none;stroke:#39363a;stroke-width:1.11"/><path d="M71.6 16.2h9v6h-9z" class="st2"/><defs><path id="SVGID_7_" d="M22.1 15.6h195.8v208.8H22.1z"/></defs><clipPath id="SVGID_8_"><use xlink:href="#SVGID_7_" style="overflow:visible"/></clipPath><path d="M71.6 16.2h9v6h-9z" style="clip-path:url(#SVGID_8_);fill:none;stroke:#39363a;stroke-width:1.11"/><path d="M22.6 16.2h26.7v6H22.6z" class="st2"/><defs><path id="SVGID_9_" d="M22.1 15.6h195.8v208.8H22.1z"/></defs><clipPath id="SVGID_10_"><use xlink:href="#SVGID_9_" style="overflow:visible"/></clipPath><path d="M22.6 16.2h26.7v6H22.6z" style="clip-path:url(#SVGID_10_);fill:none;stroke:#39363a;stroke-width:1.11"/><path d="M25.1 46.3h50.5v2.1H25.1z" class="st2"/><path d="M25.1 46.3h50.5v2.1H25.1z" class="st8"/><path d="M25.1 101.9h50.5v2.1H25.1z" class="st2"/><path d="M25.1 101.9h50.5v2.1H25.1z" class="st8"/><path d="M73.4 46.3h2.1v23.1h-2.1z" class="st2"/><path d="M73.4 46.3h2.1v23.1h-2.1z" class="st8"/><path d="M73.4 85.4h2.1V104h-2.1z" class="st2"/><path d="M73.4 85.4h2.1V104h-2.1z" class="st8"/><path d="M73.4 95.3h11.2v2.1H73.4z" class="st2"/><path d="M73.4 95.3h11.2v2.1H73.4z" class="st8"/><path d="M105.7 95.3h14.9v2.1h-14.9z" class="st2"/><path d="M105.7 95.3h14.9v2.1h-14.9z" class="st8"/><path d="M27.8 24.1h7v14.8h-7zm0 16.6h7v3.7h-7zM36 23v22.9m.3-22.9h-9.7m82.2 49.8h7v15.4h-7zm0 17.1h7v3.9h-7zm-1.1-18.3v23.7m-.4-23.7h9.7" class="st9"/><defs><path id="SVGID_11_" d="M22.1 15.6h195.8v208.8H22.1z"/></defs><clipPath id="SVGID_12_"><use xlink:href="#SVGID_11_" style="overflow:visible"/></clipPath><path d="M71.5 54.6s0-5.3-5.3-5.3H34.3s-5.3 0-5.3 5.3v7.1s0 5.3 5.3 5.3h31.8s5.3 0 5.3-5.3v-7.1z" class="st10"/><path d="M68.5 56.2s0-5.3-5.3-5.3h-26s-5.3 0-5.3 5.3V60s0 5.3 5.3 5.3h25.9s5.3 0 5.3-5.3v-3.8z" class="st10"/><path d="M64.9 55.2s0-2.7-2.7-2.7h-26s-2.7 0-2.7 2.7v5.9s0 2.7 2.7 2.7h26.1s2.7 0 2.7-2.7v-5.9z" class="st10"/><circle cx="37.5" cy="58.1" r=".8" class="st10"/><path d="M73.9 68H26.6" class="st11"/><defs><path id="SVGID_13_" d="M22.1 15.6h195.8v208.8H22.1z"/></defs><clipPath id="SVGID_14_"><use xlink:href="#SVGID_13_" style="overflow:visible"/></clipPath><path d="M38.6 77.5c0 2.8-2.3 5.1-5.1 5.1h-5.4c-.4 0-.8-.3-.8-.8V70.3c0-.4.3-.8.8-.8h5.4c2.8 0 5.1 2.3 5.1 5.1v2.9zM27 70.3v11.5c0 .6.5 1.1 1.1 1.1h5.4c3 0 5.4-2.4 5.4-5.4v-2.9c0-3-2.4-5.4-5.4-5.4h-5.4c-.6 0-1.1.5-1.1 1.1" class="st12"/><path d="M38.6 77.5c0 2.8-2.3 5.1-5.1 5.1h-5.4c-.4 0-.8-.3-.8-.8V70.3c0-.4.3-.8.8-.8h5.4c2.8 0 5.1 2.3 5.1 5.1v2.9zM27 70.3v11.5c0 .6.5 1.1 1.1 1.1h5.4c3 0 5.4-2.4 5.4-5.4v-2.9c0-3-2.4-5.4-5.4-5.4h-5.4c-.6 0-1.1.5-1.1 1.1z" class="st13"/><path d="M37.3 77.5c0 2.1-1.7 3.8-3.8 3.8h-3.2c-.4 0-.7-.3-.7-.7v-9.2c0-.4.3-.7.7-.7h3.2c2.1 0 3.8 1.7 3.8 3.8v3zm-7.9-6v9.2c0 .5.4 1 1 1h3.2c2.3 0 4.1-1.8 4.1-4.1v-2.9c0-2.3-1.8-4.1-4.1-4.1h-3.2c-.6-.1-1 .3-1 .9" class="st12"/><path d="M37.3 77.5c0 2.1-1.7 3.8-3.8 3.8h-3.2c-.4 0-.7-.3-.7-.7v-9.2c0-.4.3-.7.7-.7h3.2c2.1 0 3.8 1.7 3.8 3.8v3zm-7.9-6v9.2c0 .5.4 1 1 1h3.2c2.3 0 4.1-1.8 4.1-4.1v-2.9c0-2.3-1.8-4.1-4.1-4.1h-3.2c-.6-.1-1 .3-1 .9z" class="st13"/><path d="M34.7 76c0 .3-.3.6-.6.6s-.6-.3-.6-.6.3-.6.6-.6.6.3.6.6m-1.6 0c0 .5.4.9.9.9s.9-.4.9-.9-.4-.9-.9-.9-.9.4-.9.9" class="st12"/><path d="M34.7 76c0 .3-.3.6-.6.6s-.6-.3-.6-.6.3-.6.6-.6.6.3.6.6zm-1.6 0c0 .5.4.9.9.9s.9-.4.9-.9-.4-.9-.9-.9-.9.4-.9.9z" class="st13"/><path d="M61.5 85.1h14.3v17.4H61.5z" class="st11"/><defs><path id="SVGID_15_" d="M22.1 15.6h195.8v208.8H22.1z"/></defs><clipPath id="SVGID_16_"><use xlink:href="#SVGID_15_" style="overflow:visible"/></clipPath><path d="M47.1 90.1c0-2.7-2.2-5-5-5h-7.2c-.5 0-.9.4-.9.9v8.2c0 .5.4.9.9.9h7.2c2.8-.1 5-2.3 5-5m-13.4 4.1V86c0-.7.5-1.2 1.2-1.2h7.2c2.9 0 5.3 2.4 5.3 5.3s-2.4 5.3-5.3 5.3h-7.2c-.6 0-1.2-.6-1.2-1.2" class="st14"/><path d="M47.1 90.1c0-2.7-2.2-5-5-5h-7.2c-.5 0-.9.4-.9.9v8.2c0 .5.4.9.9.9h7.2c2.8-.1 5-2.3 5-5zm-13.4 4.1V86c0-.7.5-1.2 1.2-1.2h7.2c2.9 0 5.3 2.4 5.3 5.3s-2.4 5.3-5.3 5.3h-7.2c-.6 0-1.2-.6-1.2-1.2z" class="st15"/><path d="M36.5 86.5v7.1s0 .1.1.1H42c2 0 3.6-1.6 3.6-3.6S44 86.5 42 86.5h-5.5c0-.1 0 0 0 0z" class="st15"/><path d="M36.6 86.6v7H42c1.9 0 3.5-1.6 3.5-3.5s-1.6-3.5-3.5-3.5h-5.4zm-.3 7v-7.1c0-.1.1-.3.3-.3H42c2.1 0 3.8 1.7 3.8 3.8 0 2.1-1.7 3.8-3.8 3.8h-5.4c-.2.1-.3 0-.3-.2" class="st14"/><path d="M36.6 86.6v7H42c1.9 0 3.5-1.6 3.5-3.5s-1.6-3.5-3.5-3.5h-5.4zm-.3 7v-7.1c0-.1.1-.3.3-.3H42c2.1 0 3.8 1.7 3.8 3.8 0 2.1-1.7 3.8-3.8 3.8h-5.4c-.2.1-.3 0-.3-.2z" class="st15"/><path d="M42 90.1c0-.5-.4-.9-.9-.9s-.9.4-.9.9.4.9.9.9.9-.4.9-.9m-2.2 0c0-.7.6-1.3 1.3-1.3.7 0 1.3.6 1.3 1.3 0 .7-.6 1.3-1.3 1.3-.7 0-1.3-.6-1.3-1.3" class="st14"/><path d="M42 90.1c0-.5-.4-.9-.9-.9s-.9.4-.9.9.4.9.9.9.9-.4.9-.9zm-2.2 0c0-.7.6-1.3 1.3-1.3.7 0 1.3.6 1.3 1.3 0 .7-.6 1.3-1.3 1.3-.7 0-1.3-.6-1.3-1.3z" class="st15"/><path d="m37.15 87.332.18-.24 2.243 1.676-.18.24z" class="st2"/><path d="m37.15 87.332.18-.24 2.243 1.676-.18.24z" class="st16"/><path d="m37.2 92.8 2.2-1.7.3.3-2.3 1.7z" class="st2"/><path d="m37.2 92.8 2.2-1.7.3.3-2.3 1.7z" class="st16"/><defs><path id="SVGID_17_" d="M22.1 15.6h195.8v208.8H22.1z"/></defs><clipPath id="SVGID_18_"><use xlink:href="#SVGID_17_" style="overflow:visible"/></clipPath><path d="M33.7 86.6c0-.8-.6-1.4-1.4-1.4h-1.9c-.8 0-1.4.6-1.4 1.4v6.9c0 .8.6 1.4 1.4 1.4h1.9c.8 0 1.4-.6 1.4-1.4v-6.9zm-4.9 6.9v-6.9c0-.9.8-1.7 1.7-1.7h1.9c.9 0 1.7.8 1.7 1.7v6.9c0 .9-.8 1.7-1.7 1.7h-1.9c-1 0-1.7-.7-1.7-1.7" class="st17"/><path d="M33.7 86.6c0-.8-.6-1.4-1.4-1.4h-1.9c-.8 0-1.4.6-1.4 1.4v6.9c0 .8.6 1.4 1.4 1.4h1.9c.8 0 1.4-.6 1.4-1.4v-6.9zm-4.9 6.9v-6.9c0-.9.8-1.7 1.7-1.7h1.9c.9 0 1.7.8 1.7 1.7v6.9c0 .9-.8 1.7-1.7 1.7h-1.9c-1 0-1.7-.7-1.7-1.7z" class="st18"/><path d="M31.9 90.1c0-.3-.2-.5-.5-.5s-.5.2-.5.5.2.5.5.5.5-.2.5-.5m-1.4 0c0-.5.4-.9.9-.9s.9.4.9.9-.4.9-.9.9-.9-.4-.9-.9" class="st17"/><path d="M31.9 90.1c0-.3-.2-.5-.5-.5s-.5.2-.5.5.2.5.5.5.5-.2.5-.5zm-1.4 0c0-.5.4-.9.9-.9s.9.4.9.9-.4.9-.9.9-.9-.4-.9-.9z" class="st18"/><path d="M26.7 120.6h15.8v-15.8H26.7v15.8zm-.4-16.2h16.5v16.5H26.3v-16.5z" class="st2"/><path d="M26.7 120.6h15.8v-15.8H26.7v15.8zm-.4-16.2h16.5v16.5H26.3v-16.5z" class="st16"/><defs><path id="SVGID_19_" d="M22.1 15.6h195.8v208.8H22.1z"/></defs><clipPath id="SVGID_20_"><use xlink:href="#SVGID_19_" style="overflow:visible"/></clipPath><path d="M41 107.1c0-.4-.3-.7-.7-.7H32c-.4 0-.7.3-.7.7v11c0 .4.3.7.7.7h8.3c.4 0 .7-.3.7-.7v-11zm-10.1 11.1v-11c0-.6.5-1.1 1.1-1.1h8.3c.6 0 1.1.5 1.1 1.1v11c0 .6-.5 1.1-1.1 1.1H32c-.6-.1-1.1-.5-1.1-1.1" style="clip-path:url(#SVGID_20_);fill:#39363a"/><path d="M41 107.1c0-.4-.3-.7-.7-.7H32c-.4 0-.7.3-.7.7v11c0 .4.3.7.7.7h8.3c.4 0 .7-.3.7-.7v-11zm-10.1 11.1v-11c0-.6.5-1.1 1.1-1.1h8.3c.6 0 1.1.5 1.1 1.1v11c0 .6-.5 1.1-1.1 1.1H32c-.6-.1-1.1-.5-1.1-1.1z" style="clip-path:url(#SVGID_20_);fill:none;stroke:#39363a;stroke-width:.243"/><path d="M32.5 117.7h7.3v-10h-7.3v10zm-.3-10.4h7.9V118h-7.9v-10.7z" class="st2"/><path d="M32.5 117.7h7.3v-10h-7.3v10zm-.3-10.4h7.9V118h-7.9v-10.7z" class="st16"/><defs><path id="SVGID_21_" d="M22.1 15.6h195.8v208.8H22.1z"/></defs><clipPath id="SVGID_22_"><use xlink:href="#SVGID_21_" style="overflow:visible"/></clipPath><path d="M37.5 112.7c0-.5-.4-.9-.9-.9s-.9.4-.9.9.4.9.9.9.9-.4.9-.9m-2.1 0c0-.7.6-1.3 1.3-1.3.7 0 1.3.6 1.3 1.3 0 .7-.6 1.3-1.3 1.3-.8-.1-1.3-.6-1.3-1.3" style="clip-path:url(#SVGID_22_);fill:#39363a"/><path d="M37.5 112.7c0-.5-.4-.9-.9-.9s-.9.4-.9.9.4.9.9.9.9-.4.9-.9zm-2.1 0c0-.7.6-1.3 1.3-1.3.7 0 1.3.6 1.3 1.3 0 .7-.6 1.3-1.3 1.3-.8-.1-1.3-.6-1.3-1.3z" style="clip-path:url(#SVGID_22_);fill:none;stroke:#39363a;stroke-width:.243"/><path d="M120.2 180H91.9v-2.1h2.6v-8.4h25.7z" class="st2"/><path d="M120.2 180H91.9v-2.1h2.6v-8.4h25.7z" class="st8"/><path d="M22.9 169.5V180h28.6v-2.1h-2.4v-8.4z" class="st2"/><defs><path id="SVGID_23_" d="M22.1 15.6h195.8v208.8H22.1z"/></defs><clipPath id="SVGID_24_"><use xlink:href="#SVGID_23_" style="overflow:visible"/></clipPath><path d="M22.9 180h28.6v-2.1h-2.4v-8.4H22.9z" style="clip-path:url(#SVGID_24_);fill:none;stroke:#39363a;stroke-width:1.11"/><path d="M67.7 177.7h50.4v2.6H67.7z" class="st9"/><path d="M70.1 169.3h50.4v8.4H70.1zm-22.419 7.035 18.995-11.296.511.86-18.995 11.296z" class="st9"/><defs><path id="SVGID_25_" d="M22.1 15.6h195.8v208.8H22.1z"/></defs><clipPath id="SVGID_26_"><use xlink:href="#SVGID_25_" style="overflow:visible"/></clipPath><path d="M67.3 166.1s1.2 1.7 1.8 5.5c.6 3.9.4 5.9.4 5.9" style="clip-path:url(#SVGID_26_);fill:none;stroke:#39363a;stroke-width:.444"/><path d="M216.3 180h-36v-2.1h2.6v-8.4h33.4z" class="st2"/><defs><path id="SVGID_27_" d="M22.1 15.6h195.8v208.8H22.1z"/></defs><clipPath id="SVGID_28_"><use xlink:href="#SVGID_27_" style="overflow:visible"/></clipPath><path d="M216.3 180h-36v-2.1h2.6v-8.4h33.4z" style="clip-path:url(#SVGID_28_);fill:none;stroke:#39363a;stroke-width:1.11"/><path d="M109.6 180h30.2v-2.1h-2.5v-8.4h-27.7z" class="st2"/><path d="M109.6 180h30.2v-2.1h-2.5v-8.4h-27.7z" class="st8"/><path d="M156.1 177.7h50.4v2.6h-50.4z" class="st9"/><path d="M158.4 169.3h50.4v8.4h-50.4zm-22.33 7.006 18.994-11.297.511.86-18.995 11.296z" class="st9"/><defs><path id="SVGID_29_" d="M22.1 15.6h195.8v208.8H22.1z"/></defs><clipPath id="SVGID_30_"><use xlink:href="#SVGID_29_" style="overflow:visible"/></clipPath><path d="M155.7 166.1s1.2 1.7 1.8 5.5c.6 3.9.4 5.9.4 5.9" style="clip-path:url(#SVGID_30_);fill:none;stroke:#39363a;stroke-width:.444"/><path d="m130.9 60.1 1-.6-12.7-22.3-1 .6z" class="st9"/><defs><path id="SVGID_31_" d="M22.1 15.6h195.8v208.8H22.1z"/></defs><clipPath id="SVGID_32_"><use xlink:href="#SVGID_31_" style="overflow:visible"/></clipPath><path d="M130.8 60.1s-1.9 1.5-6.2 2.2c-4.3.7-6.6.5-6.6.5" style="clip-path:url(#SVGID_32_);fill:none;stroke:#39363a;stroke-width:.444"/><path d="m102.8 31.3-.6 1-22.4-12.7.7-1z" class="st9"/><defs><path id="SVGID_33_" d="M22.1 15.6h195.8v208.8H22.1z"/></defs><clipPath id="SVGID_34_"><use xlink:href="#SVGID_33_" style="overflow:visible"/></clipPath><path d="M102.8 31.2s1.5-1.9 2.2-6.2c.7-4.3.5-6.6.5-6.6" style="clip-path:url(#SVGID_34_);fill:none;stroke:#39363a;stroke-width:.444"/><path d="m87.9 107.9.6 1 22.4-12.7-.7-1z" class="st9"/><defs><path id="SVGID_35_" d="M22.1 15.6h195.8v208.8H22.1z"/></defs><clipPath id="SVGID_36_"><use xlink:href="#SVGID_35_" style="overflow:visible"/></clipPath><path d="M87.9 107.7s-1.5-1.9-2.2-6.2c-.7-4.3-.5-6.8-.5-6.8" style="clip-path:url(#SVGID_36_);fill:none;stroke:#39363a;stroke-width:.444"/><path d="m81.4 71.9 1 .6-7.5 13.6-1-.6z" class="st9"/><defs><path id="SVGID_37_" d="M22.1 15.6h195.8v208.8H22.1z"/></defs><clipPath id="SVGID_38_"><use xlink:href="#SVGID_37_" style="overflow:visible"/></clipPath><path d="M82.8 72.5S80 70.6 77.3 70c-2.8-.6-4.4-.4-4.4-.4" style="clip-path:url(#SVGID_38_);fill:none;stroke:#39363a;stroke-width:.444"/><path d="m121.563 219.937 94.018-13.622.43 2.969-94.018 13.622zM25.4 219.6h95v3h-95z" class="st9"/><path d="M212.6 17.4h4.8v192.8h-4.8z" class="st2"/><defs><path id="SVGID_39_" d="M22.1 15.6h195.8v208.8H22.1z"/></defs><clipPath id="SVGID_40_"><use xlink:href="#SVGID_39_" style="overflow:visible"/></clipPath><path d="M212.6 17.4h4.8v192.8h-4.8z" style="clip-path:url(#SVGID_40_);fill:none;stroke:#39363a;stroke-width:1.11"/><path d="M117.6 62.9h4.8v114.2h-4.8z" class="st2"/><path d="M117.6 62.9h4.8v114.2h-4.8z" class="st8"/><path d="M117.6 198.2h4.8v25.6h-4.8z" class="st2"/><defs><path id="SVGID_41_" d="M22.1 15.6h195.8v208.8H22.1z"/></defs><clipPath id="SVGID_42_"><use xlink:href="#SVGID_41_" style="overflow:visible"/></clipPath><path d="M117.6 198.2h4.8v25.6h-4.8z" style="clip-path:url(#SVGID_42_);fill:none;stroke:#39363a;stroke-width:1.11"/><path d="M117.6 19.7h4.8v19h-4.8z" class="st2"/><path d="M117.6 19.7h4.8v19h-4.8z" class="st8"/><defs><path id="SVGID_43_" d="M22.1 15.6h195.8v208.8H22.1z"/></defs><clipPath id="SVGID_44_"><use xlink:href="#SVGID_43_" style="overflow:visible"/></clipPath><path d="M22.5 15.9h58.7" style="clip-path:url(#SVGID_44_);fill:none;stroke:#39363a;stroke-width:.666"/><path d="M174.3 137.3c.8 0 1 .3 1 2.2 0 1.9-.2 2.2-1 2.2s-1-.3-1-2.2c0-1.8.3-2.2 1-2.2m0-1.5c-2.2 0-2.9.9-2.9 3.7 0 2.8.7 3.7 2.9 3.7s2.9-.9 2.9-3.7c.1-2.7-.7-3.7-2.9-3.7m-4.8 5.6c-.5 0-.6.2-.7.7v.5c0 .4.2.6.6.6 0 .5 0 .9-.2 1.4l.7.2c.4-.6.6-1.1.6-2.1v-.7c0-.5-.2-.7-.7-.7h-.3zm-5.1-3c0-.9.1-1.2.8-1.2.8 0 .9.3.9 1.9-.3.2-.6.3-.9.3-.7 0-.9-.2-.8-1m-1.6 4.7c.8.2 1.6.2 2 .2 2.3 0 3.1-.5 3.1-3.8 0-2.9-.5-3.6-2.7-3.6-2.1 0-2.7.8-2.7 2.6 0 1.3.5 2.2 2.1 2.2.6 0 1.1-.1 1.5-.4-.1 1.2-.3 1.6-1.2 1.6H163l-.2 1.2zm-1.5 0V136h-1.9l-1.8.7.2 1.2 1.7-.4c-.1.3-.1.6-.1.9v4.8h1.9zm24.7-14.2c0-.2.1-.4.4-.4h1.1v.6c-.3.2-.7.4-1 .4-.3 0-.5-.1-.5-.4v-.2zm-1.4-2.1c.9-.1 1.7-.1 2.2-.1.5 0 .7.2.7.6v.1h-1.7c-1 0-1.7.5-1.7 1.3v.5c0 1 .8 1.5 1.7 1.5.9 0 1.5-.5 1.8-.9l.2.8h1.5v-3.3c0-1.5-.8-2-2.2-2-.8 0-2.1.1-2.8.3l.3 1.2zm-.9.1v-1.4h-5.2v1.4h1.6v3.7h1.9v-3.7h1.7zm-9.2 2c0-.2.1-.4.4-.4h1.1v.6c-.3.2-.7.4-1 .4-.3 0-.5-.1-.5-.4v-.2zm-1.4-2.1c.9-.1 1.7-.1 2.2-.1.5 0 .7.2.7.6v.1h-1.7c-1 0-1.7.5-1.7 1.3v.5c0 1 .8 1.5 1.7 1.5.9 0 1.5-.5 1.8-.9l.2.8h1.5v-3.3c0-1.5-.8-2-2.2-2-.8 0-2.1.1-2.8.3l.3 1.2zm-1.3-1.3h-1.9v1.8h-1.6v-1.8h-1.9v5.2h1.9v-2.1h1.6v2.1h1.9v-5.2zm-8.8 0c-.4 0-.6.2-.7.6l-.4 1.9c-.1.3-.1.5-.1.8h-.1c0-.3 0-.5-.1-.8l-.5-1.9c-.1-.4-.3-.6-.7-.6h-1.6c-.4 0-.6.2-.7.6l-.1 4.5h1.7l.1-3.8h.1l.6 2.5c.1.4.3.6.7.6h.8c.4 0 .6-.2.7-.6l.6-2.5h.1l.1 3.8h1.7l-.1-4.5c0-.4-.2-.6-.6-.6H163zm-8.6 1.2c.6 0 .8.3.8 1.4 0 1.1-.2 1.4-.8 1.4-.6 0-.8-.3-.8-1.4 0-1.2.2-1.4.8-1.4m0-1.3c-2 0-2.8.7-2.8 2.7s.7 2.7 2.8 2.7c2 0 2.8-.7 2.8-2.7s-.7-2.7-2.8-2.7m-5.2 2.6c1.2-.2 1.1-.3 1.8-2.5h-1.9c-.4 1.7-.5 1.9-1.2 1.9h-.2c0-.2.1-.4.1-.7v-1.2h-1.9v5.2h1.9V129c0-.1 0-.3-.1-.4h.4c.6 0 .6.1 1.1 2h2c-.7-2.4-.7-2.4-2-2.6zm33.4-12.7h-.7c-.5 0-.6-.1-.6-.6 0-.4.1-.5.6-.5h.7v1.1zm-2 .7c-.3 0-.9.1-1 .6l-.4 1.6h1.9l.3-1.4c0-.2.2-.3.5-.3h.7v1.7h1.8V113c-.6-.1-1.2-.1-2.6-.1-1.9 0-2.4.4-2.4 1.7 0 .6.3 1.2 1.2 1.4zm-5.5.4c0-.2.1-.4.4-.4h1.1v.6c-.3.2-.7.4-1 .4-.3 0-.5-.1-.5-.4v-.2zm-1.5-2c.9-.1 1.7-.1 2.2-.1.5 0 .7.2.7.6v.1h-1.7c-1 0-1.7.5-1.7 1.3v.5c0 1 .8 1.5 1.7 1.5.9 0 1.5-.5 1.8-.9l.2.8h1.5v-3.3c0-1.5-.8-2-2.2-2-.8 0-2.1.1-2.8.3l.3 1.2zm-1.3-1.4h-3.1c-.9 0-1.4.5-1.4 1.3-.1.9-.2 1.7-.3 2-.1.4-.4.4-.9.5l.2 1.4c1.1.2 2.2-.1 2.4-1.4.1-.5.2-1.4.3-2.2 0-.3.2-.4.5-.4h.4v3.9h1.9V113zm-6.3 5.2V113h-1.6l-1.6 2.5c-.2.2-.3.5-.4.8 0-.3.1-.5.1-.8V113h-1.7v5.2h1.6l1.6-2.4c.1-.2.3-.6.4-.9 0 .3-.1.6-.1.9v2.3h1.7zm-8.4-3.8c1.4-.2 1.4-.8 2.2-3.4h-2c-.6 2.2-.8 2.8-1.5 2.8h-.3c.1-.3.1-.6.1-.9V111h-1.9v1.9c0 .3 0 .6.1.9h-.3c-.7 0-.8-.6-1.5-2.8h-2c.8 2.6.8 3.2 2.2 3.4v.1c-1.4.2-1.5.8-2.4 3.7h2c.8-2.6.9-3.1 1.6-3.1h.4c-.1.2-.1.5-.1.7v2.4h1.9v-2.4c0-.2 0-.4-.1-.7h.3c.7 0 .8.5 1.6 3.1h2c-.7-3-.8-3.5-2.3-3.8zm-81.4 33.4c.8 0 1 .2 1 .9s-.2.9-1 .9-1-.2-1-.9.2-.9 1-.9m0-2.9c.7 0 .9.2.9.9 0 .6-.1.8-.9.8-.7 0-.9-.1-.9-.8 0-.7.2-.9.9-.9m-1.5 2.3c-1 .1-1.3 1-1.3 1.9 0 1.4.6 1.9 2.8 1.9 2.3 0 2.8-.5 2.8-1.9 0-1-.2-1.8-1.3-1.9.8-.1 1.1-.9 1.1-1.6 0-1.3-.5-1.9-2.6-1.9-2.2 0-2.6.6-2.6 1.9 0 .7.3 1.5 1.1 1.6zm-3.3 1.9c-.5 0-.6.2-.7.7v.5c0 .4.2.6.6.6 0 .5 0 .9-.2 1.4l.7.2c.4-.6.6-1.1.6-2.1v-.7c0-.5-.2-.7-.7-.7h-.3zm-4.3-1.3c.8 0 1 .2 1 .9s-.2.9-1 .9-1-.2-1-.9.2-.9 1-.9m0-2.9c.7 0 .9.2.9.9 0 .6-.1.8-.9.8-.7 0-.9-.1-.9-.8 0-.7.2-.9.9-.9m-1.6 2.3c-1 .1-1.3 1-1.3 1.9 0 1.4.6 1.9 2.8 1.9 2.3 0 2.8-.5 2.8-1.9 0-1-.2-1.8-1.3-1.9.8-.1 1.1-.9 1.1-1.6 0-1.3-.5-1.9-2.6-1.9-2.2 0-2.6.6-2.6 1.9.1.7.4 1.5 1.1 1.6zm19.4-11.6h-.7c-.5 0-.6-.1-.6-.6 0-.4.1-.5.6-.5h.7v1.1zm-2 .6c-.3 0-.9.1-1 .6l-.4 1.6h1.9l.3-1.4c0-.2.2-.3.5-.3h.7v1.7h1.8v-5.2c-.6-.1-1.2-.1-2.6-.1-1.9 0-2.4.4-2.4 1.7.1.6.3 1.2 1.2 1.4zm-2.1-2.9H79v1.8h-1.6v-1.8h-1.9v5.2h1.9v-2.1H79v2.1h1.8v-5.2zm-7.8 5.1h1.9l-1.5-2.6 1.4-2.5h-1.9l-1 1.9-1-1.9H69l1.4 2.5-1.5 2.6h1.9l1.1-2.1 1.1 2.1zm-4.2-5.1h-2l-.8 3.1c-.1.2-.1.6-.2.9h-.1c0-.3-.1-.6-.1-.9l-.8-3.1h-2l1.6 4.7c.1.3.3.4.6.4h.3c-.1.3-.3.5-.5.6-.3.2-.8.2-1.4.2l-.2 1.2c.7.1 1.5.1 2.1-.1.8-.3 1.4-.8 1.8-2l1.7-5zm-8.5 1.4c1.4-.2 1.5-.8 2.3-3.4h-2c-.6 2.2-.7 2.8-1.7 2.8h-.3c.1-.3.1-.6.1-.9v-1.9h-1.9v7.2h1.9V136c0-.2 0-.4-.1-.7h.4c1 0 1.1.5 1.8 3.1h2c-.9-2.9-1-3.5-2.5-3.7zm18.6 72.4H78v-3h-1.5l-.3 1.1v1.8h-1.4c-.2 0-.3-.1-.2-.3l1.6-4.1h-1.8l-1.8 4.6c-.2.6.2 1.1.8 1.1h2.9v1.5H78v-1.5l.8-.2v-1zm-8 1c-.5 0-.6.2-.7.7v.5c0 .4.2.6.6.6 0 .5 0 .9-.2 1.4l.7.2c.4-.6.6-1.1.6-2.1v-.7c0-.5-.2-.7-.7-.7h-.3zm-5.1-2.9c0-.9.1-1.2.8-1.2.8 0 .9.3.9 1.9-.3.2-.6.3-.9.3-.7-.1-.8-.3-.8-1m-1.6 4.6c.8.2 1.6.2 2 .2 2.3 0 3.1-.5 3.1-3.8 0-2.9-.5-3.6-2.7-3.6-2.1 0-2.7.8-2.7 2.6 0 1.3.5 2.2 2.1 2.2.6 0 1.1-.1 1.5-.4-.1 1.2-.3 1.6-1.2 1.6h-1.9l-.2 1.2zm25.4-15.3h-.7c-.5 0-.6-.1-.6-.6 0-.4.1-.5.6-.5h.7v1.1zm-2 .7c-.3 0-.9.1-1 .6l-.4 1.6h1.9l.3-1.4c0-.2.2-.3.5-.3h.7v1.7h1.8v-5.2c-.6-.1-1.2-.1-2.6-.1-1.9 0-2.4.4-2.4 1.7.1.6.3 1.2 1.2 1.4zm-2.1 2.2v-5.2h-1.6l-1.6 2.5c-.2.2-.3.5-.4.8 0-.3.1-.5.1-.8v-2.4h-1.7v5.2h1.6l1.6-2.4c.1-.2.3-.6.4-.9 0 .3-.1.6-.1.9v2.3h1.7zm-8.1-2.7c1.2-.2 1.2-.3 1.8-2.4h-1.9c-.5 1.7-.6 1.9-1.1 1.9H76c0-.2.1-.4.1-.6v-1.2h-1.6v1.2c0 .2 0 .4.1.6h-.3c-.5 0-.6-.2-1.1-1.9h-1.9c.7 2.1.6 2.3 1.8 2.4v.1c-1.2.2-1.3.3-2 2.7H73c.7-2 .7-2.1 1.1-2.1h.4c0 .2-.1.3-.1.4v1.6H76v-1.6c0-.1 0-.3-.1-.4h.4c.5 0 .5.1 1.2 2.1h1.9c-.7-2.5-.7-2.6-2-2.8zm-9.4 1.4h-1.5c.3-.6.4-1.3.6-2.3 0-.3.2-.4.5-.4h.4v2.7zm2.7 0h-.9v-3.9H67c-.9 0-1.4.4-1.5 1.3-.1.9-.3 1.8-.6 2.6h-.6v2.7h1.2l.1-1.4h3.7l.1 1.4h1.3v-2.7zm-9.6-2.7c.6 0 .8.3.8 1.4 0 1.1-.2 1.4-.8 1.4-.6 0-.8-.3-.8-1.4-.1-1.1.1-1.4.8-1.4m0-1.3c-2 0-2.8.7-2.8 2.7s.7 2.7 2.8 2.7c2 0 2.8-.7 2.8-2.7-.1-2-.8-2.7-2.8-2.7m-3.8-1.9H54c-1.1 0-1.7.6-1.8 1.7-.1 1.7-.2 2.7-.5 3.3-.2.5-.5.6-1 .7l.1 1.5c1.3.2 2.2-.2 2.7-1.7.3-.9.4-2.2.6-3.7 0-.4.2-.5.6-.5h.7v5.8h2v-7.1zm45.4-133v-1h-3.1l-.1 2.3c0 .2.2.4.4.5l.8.1c.7.1.9.2.9.6 0 .4-.2.6-.8.6-.4 0-.8 0-1.3-.1l-.1 1c.6.1 1.3.1 1.8.1 1.4 0 1.8-.7 1.8-1.6 0-.8-.3-1.5-1.5-1.7l-.8-.1.1-.7h1.9zM98 60c-.3 0-.4.1-.5.5v.4c0 .3.1.4.4.4 0 .3 0 .6-.1 1l.5.2c.3-.4.4-.8.4-1.4v-.5c0-.3-.1-.5-.5-.5H98zm-1.2-2.8.1-1h-3.1l-.1 2.3c0 .2.2.4.4.5l.8.1c.7.1.9.2.9.6 0 .4-.2.6-.8.6-.4 0-.8 0-1.3-.1l-.1 1c.6.1 1.3.1 1.8.1 1.4 0 1.8-.7 1.8-1.6 0-.8-.3-1.5-1.5-1.7l-.8-.1.1-.7h1.8zm18.3-6.7h-.5c-.3 0-.4-.1-.4-.5 0-.3.1-.3.4-.3h.5v.8zm-1.5.5c-.2 0-.6.1-.7.4l-.3 1.1h1.4l.2-1c0-.2.1-.2.3-.2h.5v1.2h1.3v-3.6c-.5-.1-.8-.1-1.8-.1-1.3 0-1.7.3-1.7 1.2 0 .4.2.8.8 1zm-3.8.2c0-.2.1-.3.3-.3h.8v.5c-.2.2-.5.2-.7.2-.2 0-.4-.1-.4-.3v-.1zm-1-1.4c.6 0 1.2-.1 1.6-.1.4 0 .5.1.5.4v.1h-1.2c-.7 0-1.2.3-1.2.9v.4c0 .7.5 1 1.2 1 .6 0 1-.3 1.3-.6l.1.5h1.1v-2.3c0-1.1-.5-1.4-1.5-1.4-.5 0-1.4.1-2 .2l.1.9zm-2 .8c.8-.1.8-.2 1.3-1.7h-1.3c-.4 1.2-.4 1.3-.8 1.3h-.2v-1.4h-1.1v1.4h-.2c-.4 0-.4-.1-.8-1.3h-1.3c.5 1.5.4 1.6 1.3 1.7-.9.1-.9.2-1.4 1.9h1.3c.5-1.4.5-1.4.8-1.5h.3v1.5h1.2V51h.3c.3 0 .4.1.8 1.5h1.3c-.6-1.7-.7-1.7-1.5-1.9zm-6.8-.9c.4 0 .6.2.6 1s-.1 1-.6 1-.6-.2-.6-1 .2-1 .6-1m0-.9c-1.4 0-1.9.5-1.9 1.9s.5 1.9 1.9 1.9 1.9-.5 1.9-1.9c.1-1.4-.5-1.9-1.9-1.9m-3.4 3.7h1.3l-1.1-1.8 1-1.8h-1.3l-.7 1.4-.7-1.4h-1.3l1 1.8-1.1 1.8H95l.8-1.5.8 1.5zm-3.3 0v-3.6h-1.2L91 50.6c-.1.2-.2.3-.3.5 0-.2.1-.4.1-.6v-1.7h-1.2v3.6h1.1l1.1-1.7.3-.6c0 .2-.1.4-.1.6v1.6h1.3zM86.4 50c.2-.1.4-.2.7-.2.3 0 .5.1.5 1 0 .8-.1 1-.5 1-.3 0-.4-.1-.6-.1V50zm-.3-1.1H85v5h1.3v-1.6c.3.2.7.3 1.2.3.9 0 1.4-.4 1.4-1.9 0-1.2-.4-1.9-1.3-1.9-.6 0-1.1.3-1.4.6l-.1-.5zm-1.9-1.4H80v5h1.4v-4.1h1.5v4.1h1.4v-5zM59.1 83.1h-.6V81h-1l-.2.8v1.3h-1c-.1 0-.2-.1-.1-.2l1.1-2.8H56l-1.3 3.2c-.2.4.1.8.5.8h2v1.1h1.2v-1.1l.6-.1v-.9zm-5.6.8c-.3 0-.4.1-.5.5v.4c0 .3.1.4.4.4 0 .3 0 .6-.1 1l.5.2c.3-.4.4-.8.4-1.4v-.5c0-.4-.1-.5-.5-.5h-.2zM49 81.1h1.4c.5 0 .7.1.7.5 0 .3 0 .5-.6.5h-1v.9h1c.5 0 .7.2.7.6 0 .5-.2.6-.8.6H49v1c.6.1 1.2.1 1.8.1 1.3 0 1.8-.4 1.8-1.5 0-.8-.2-1.1-.9-1.3.6-.1.8-.5.8-1.3 0-.9-.5-1.2-1.7-1.2-.6 0-1.1 0-1.7.1l-.1 1zm11.3-8.3h-1.4l-.5 2.2c0 .2-.1.4-.2.6h-.1c0-.2-.1-.4-.1-.6l-.5-2.2H56l1.1 3.3c.1.2.2.3.4.3h.2c-.1.2-.2.3-.4.4-.2.1-.6.2-1 .2l-.1.9c.5.1 1.1.1 1.5-.1.6-.2 1-.6 1.2-1.4l1.4-3.6zm-7.2 4.1 2.9-5.6h-1l-2.9 5.6h1zm-1.4-1.7c-.5.1-.9.1-1.6.1-.6 0-.8-.3-.8-1.4 0-1.1.2-1.4.8-1.4h1.5l.1-1c-.5-.1-.8-.2-1.6-.2-1.6 0-2.2.7-2.2 2.6 0 1.9.6 2.6 2.2 2.6.8 0 1.2-.1 1.7-.2l-.1-1.1zm138.9 19.7h-1.9v-6.8h-3.4l-.7 2.6v4.2h-3.2c-.4 0-.6-.2-.4-.7l3.6-9.3h-4.2l-4.1 10.4c-.5 1.3.4 2.5 1.7 2.5h6.6v3.4h4.1v-3.4l1.9-.4v-2.5zm-18.4 2.4c-1.1 0-1.5.4-1.5 1.5v1c0 1.1.4 1.5 1.5 1.5h1c1.1 0 1.5-.4 1.5-1.5v-1c0-1.1-.4-1.5-1.5-1.5h-1zm-4.4 4V84.9h-4.4l-4.2 1.6.5 2.8 3.8-.9c-.1.7-.2 1.3-.2 1.9v10.9h4.5zm-8.9-6.4H157v-6.8h-3.4l-.7 2.6v4.2h-3.2c-.4 0-.6-.2-.4-.7l3.6-9.3h-4.2l-4.1 10.4c-.5 1.3.4 2.5 1.7 2.5h6.6v3.4h4.1v-3.4l1.9-.4v-2.5z" class="st34"/><circle cx="167.6" cy="66.4" r="14.6" style="clip-path:url(#SVGID_44_);fill:none;stroke:#39363a;stroke-width:.999"/><path d="M171.9 66.2c2.5-.3 2.5-1.4 3.9-5.9h-3.4c-1 3.7-1.2 4.8-3 4.8h-.6c.1-.5.1-1 .1-1.5v-3.3h-3.4v12.4h3.4v-4.2c0-.3-.1-.8-.1-1.2h.6c1.7 0 1.9.8 3.1 5.3h3.5c-1.5-5.1-1.7-6.1-4.2-6.4zm-8.9 6.5V60.3h-3.4l-3.2 1.2.4 2.1 2.9-.6c-.1.5-.1 1-.1 1.5v8.2h3.4z" class="st34"/></g></switch></svg>