<?xml version="1.0" encoding="utf-8"?>
<!-- Generator: Adobe Illustrator 26.5.0, SVG Export Plug-In . SVG Version: 6.00 Build 0)  -->
<svg version="1.1" id="Слой_1" xmlns="http://www.w3.org/2000/svg" xmlns:xlink="http://www.w3.org/1999/xlink" x="0px" y="0px"
	 viewBox="0 0 1000 1000" style="enable-background:new 0 0 1000 1000;" xml:space="preserve">
<style type="text/css">
	.st0{fill:#FFF6A1;}
	.st1{fill:#373437;}
	.st2{fill:none;stroke:#373437;stroke-width:0.75;}
	.st3{fill:none;stroke:#373437;stroke-width:0.75;stroke-miterlimit:4.0001;}
</style>
<rect x="469" y="170.2" class="st0" width="197.4" height="704.9"/>
<rect x="257.7" y="420.3" class="st0" width="222.8" height="123.5"/>
<rect x="667" y="79.3" class="st1" width="11.8" height="819.2"/>
<rect x="667" y="79.3" class="st2" width="11.8" height="819.2"/>
<rect x="624.9" y="150" class="st1" width="49" height="19.6"/>
<rect x="624.9" y="150" class="st2" width="49" height="19.6"/>
<rect x="461.7" y="150" class="st1" width="49" height="19.6"/>
<rect x="461.7" y="150" class="st2" width="49" height="19.6"/>
<rect x="555.1" y="150" class="st2" width="71" height="19.6"/>
<rect x="620.5" y="145.4" class="st1" width="53.4" height="4.5"/>
<rect x="620.5" y="145.4" class="st2" width="53.4" height="4.5"/>
<rect x="461.7" y="145.4" class="st1" width="53.4" height="4.5"/>
<rect x="461.7" y="145.4" class="st2" width="53.4" height="4.5"/>
<rect x="549.4" y="145.4" class="st2" width="76.6" height="4.5"/>
<path class="st2" d="M554.9,149.2c0,0,0,5.6-2.5,12.5c-2.1,5.8-6.2,11.2-6.2,11.2l-38.5-21.8l0.9-1.4l38.5,21.8"/>
<rect x="457" y="50.6" class="st1" width="11.2" height="394.4"/>
<rect x="457" y="50.6" class="st2" width="11.2" height="394.4"/>
<rect x="247" y="400.5" class="st1" width="214" height="19.8"/>
<rect x="334.4" y="400.5" class="st2" width="121.5" height="19.8"/>
<polygon class="st2" points="467.2,50.6 467.2,57.8 667.9,86.3 667.9,79.1 "/>
<rect x="247.1" y="525.1" class="st1" width="10" height="28.9"/>
<rect x="247.1" y="525.1" class="st2" width="10" height="23.9"/>
<rect x="458.2" y="504.8" class="st1" width="10" height="390.2"/>
<rect x="458.2" y="504.8" class="st2" width="10" height="395"/>
<rect x="251.8" y="544" class="st1" width="216.1" height="10"/>
<rect x="251.8" y="544" class="st2" width="216.1" height="10"/>
<rect x="247.1" y="405.8" class="st1" width="10" height="65.5"/>
<rect x="247.1" y="405.8" class="st2" width="10" height="65.5"/>
<rect x="447.7" y="552.1" class="st1" width="12.8" height="343.9"/>
<rect x="449" y="894" class="st1" width="61.2" height="4.5"/>
<rect x="449" y="894" class="st2" width="61.2" height="4.5"/>
<rect x="448" y="875.4" class="st1" width="58.9" height="24.6"/>
<rect x="452.3" y="875.4" class="st2" width="54.6" height="23.1"/>
<rect x="625.5" y="894" class="st1" width="53.3" height="4.5"/>
<rect x="625.5" y="894" class="st2" width="53.3" height="4.5"/>
<rect x="497.5" y="894" class="st2" width="140.1" height="4.5"/>
<rect x="630.5" y="875.4" class="st1" width="42.9" height="23.1"/>
<rect x="630.5" y="875.4" class="st2" width="42.9" height="23.1"/>
<rect x="494.2" y="875.4" class="st2" width="146.6" height="23.1"/>
<rect x="518.7" y="374.2" class="st1" width="151.8" height="8"/>
<rect x="518.7" y="374.2" class="st2" width="151.8" height="8"/>
<rect x="518.7" y="544.8" class="st1" width="154.8" height="8"/>
<rect x="518.7" y="544.8" class="st2" width="154.8" height="8"/>
<rect x="535.7" y="420.9" class="st1" width="6.5" height="54.1"/>
<rect x="535.7" y="420.9" class="st2" width="6.5" height="54.1"/>
<rect x="535.7" y="508.7" class="st1" width="6.5" height="41.6"/>
<rect x="535.7" y="508.7" class="st2" width="6.5" height="41.6"/>
<rect x="539.5" y="434.8" class="st1" width="129.4" height="5.8"/>
<rect x="539.5" y="434.8" class="st2" width="129.4" height="5.8"/>
<rect x="648.1" y="383.1" class="st2" width="17.6" height="50.5"/>
<line class="st2" x1="650.8" y1="433.4" x2="650.8" y2="382.8"/>
<polyline class="st2" points="650.8,431 663.6,429.8 663.6,397.9 650.8,396.5 650.8,394.4 663.7,393 663.7,385.8 650.8,384.3 "/>
<path class="st2" d="M461.7,380.4l49.8-28.7c0,0,2.6,4.1,4.8,12.8c2.2,8.7,2.2,14.8,2.2,14.8"/>
<path class="st2" d="M461.9,546.4l49.8,28.7c0,0,2.6-4.1,4.8-12.8s2.2-14.8,2.2-14.8"/>
<path class="st2" d="M251.7,535.5l32.4-56.1c0,0-4.6-2.9-14.5-5.4s-16.7-2.5-16.7-2.5"/>
<path class="st2" d="M542.4,374.9l-23.2,40.7c0,0,3.3,2.1,10.4,3.9c7.1,1.8,12,1.8,12,1.8"/>
<path class="st2" d="M542.4,520.7L519.2,480c0,0,3.3-2.1,10.4-3.9c7.1-1.8,12-1.8,12-1.8"/>
<rect x="547.8" y="441.7" class="st2" width="34.3" height="35.8"/>
<line class="st2" x1="547.7" y1="442.2" x2="582" y2="477.5"/>
<line class="st2" x1="547.7" y1="477.9" x2="582" y2="442.6"/>
<path class="st1" d="M601.2,408.4c0,6,4.9,10.9,10.9,10.9h15.8c1,0,1.9-0.8,1.9-1.9v-18c0-1-0.8-1.9-1.9-1.9h-15.8
	C606.1,397.5,601.2,402.4,601.2,408.4 M630.6,399.4v18c0,1.5-1.2,2.6-2.6,2.6h-15.8c-6.4,0-11.7-5.2-11.7-11.7
	c0-6.4,5.2-11.7,11.7-11.7H628C629.4,396.8,630.6,397.9,630.6,399.4"/>
<path class="st2" d="M601.2,408.4c0,6,4.9,10.9,10.9,10.9h15.8c1,0,1.9-0.8,1.9-1.9v-18c0-1-0.8-1.9-1.9-1.9h-15.8
	C606.1,397.5,601.2,402.4,601.2,408.4z M630.6,399.4v18c0,1.5-1.2,2.6-2.6,2.6h-15.8c-6.4,0-11.7-5.2-11.7-11.7
	c0-6.4,5.2-11.7,11.7-11.7H628C629.4,396.8,630.6,397.9,630.6,399.4z"/>
<path class="st2" d="M624.5,416.2v-15.6c0-0.1-0.1-0.2-0.2-0.2h-11.9c-4.4,0-8,3.6-8,8s3.6,8,8,8h11.9
	C624.4,416.4,624.5,416.3,624.5,416.2z"/>
<path class="st1" d="M624.2,416v-15.3h-11.7c-4.2,0-7.6,3.4-7.6,7.6s3.4,7.6,7.6,7.6L624.2,416L624.2,416z M624.9,400.6v15.6
	c0,0.3-0.3,0.6-0.6,0.6h-11.9c-4.6,0-8.4-3.8-8.4-8.4s3.8-8.4,8.4-8.4h11.9C624.7,400,624.9,400.3,624.9,400.6"/>
<path class="st2" d="M624.2,416v-15.3h-11.7c-4.2,0-7.6,3.4-7.6,7.6s3.4,7.6,7.6,7.6L624.2,416L624.2,416z M624.9,400.6v15.6
	c0,0.3-0.3,0.6-0.6,0.6h-11.9c-4.6,0-8.4-3.8-8.4-8.4s3.8-8.4,8.4-8.4h11.9C624.7,400,624.9,400.3,624.9,400.6z"/>
<path class="st1" d="M612.4,408.4c0,1.1,0.9,2.1,2.1,2.1c1.1,0,2.1-0.9,2.1-2.1c0-1.1-0.9-2.1-2.1-2.1
	C613.4,406.4,612.4,407.3,612.4,408.4 M617.3,408.4c0,1.5-1.3,2.8-2.8,2.8s-2.8-1.3-2.8-2.8c0-1.6,1.3-2.8,2.8-2.8
	S617.3,406.9,617.3,408.4"/>
<path class="st2" d="M612.4,408.4c0,1.1,0.9,2.1,2.1,2.1c1.1,0,2.1-0.9,2.1-2.1c0-1.1-0.9-2.1-2.1-2.1
	C613.4,406.4,612.4,407.3,612.4,408.4z M617.3,408.4c0,1.5-1.3,2.8-2.8,2.8s-2.8-1.3-2.8-2.8c0-1.6,1.3-2.8,2.8-2.8
	S617.3,406.9,617.3,408.4z"/>
<rect x="620" y="409.8" transform="matrix(0.5975 -0.8019 0.8019 0.5975 -81.4806 663.6405)" class="st1" width="0.7" height="6.3"/>
<rect x="620" y="409.8" transform="matrix(0.5975 -0.8019 0.8019 0.5975 -81.4806 663.6405)" class="st3" width="0.7" height="6.3"/>
<polygon class="st1" points="623,402.4 618,406.2 617.6,405.6 622.6,401.8 "/>
<polygon class="st2" points="623,402.4 618,406.2 617.6,405.6 622.6,401.8 "/>
<path class="st1" d="M630.6,415.9c0,1.7,1.4,3,3,3h4.1c1.7,0,3-1.4,3-3v-15.1c0-1.7-1.4-3-3-3h-4.1c-1.7,0-3,1.4-3,3V415.9z
	 M641.5,400.9V416c0,2.1-1.7,3.8-3.8,3.8h-4.1c-2.1,0-3.8-1.7-3.8-3.8v-15.1c0-2.1,1.7-3.8,3.8-3.8h4.1
	C639.8,397.1,641.5,398.8,641.5,400.9"/>
<path class="st2" d="M630.6,415.9c0,1.7,1.4,3,3,3h4.1c1.7,0,3-1.4,3-3v-15.1c0-1.7-1.4-3-3-3h-4.1c-1.7,0-3,1.4-3,3V415.9z
	 M641.5,400.9V416c0,2.1-1.7,3.8-3.8,3.8h-4.1c-2.1,0-3.8-1.7-3.8-3.8v-15.1c0-2.1,1.7-3.8,3.8-3.8h4.1
	C639.8,397.1,641.5,398.8,641.5,400.9z"/>
<path class="st1" d="M634.5,408.4c0,0.6,0.5,1.2,1.2,1.2c0.6,0,1.2-0.5,1.2-1.2c0-0.6-0.5-1.2-1.2-1.2
	C635,407.2,634.5,407.8,634.5,408.4 M637.6,408.4c0,1.1-0.9,1.9-1.9,1.9c-1.1,0-1.9-0.9-1.9-1.9c0-1.1,0.9-1.9,1.9-1.9
	C636.7,406.5,637.6,407.4,637.6,408.4"/>
<path class="st2" d="M634.5,408.4c0,0.6,0.5,1.2,1.2,1.2c0.6,0,1.2-0.5,1.2-1.2c0-0.6-0.5-1.2-1.2-1.2
	C635,407.2,634.5,407.8,634.5,408.4z M637.6,408.4c0,1.1-0.9,1.9-1.9,1.9c-1.1,0-1.9-0.9-1.9-1.9c0-1.1,0.9-1.9,1.9-1.9
	C636.7,406.5,637.6,407.4,637.6,408.4z"/>
<path class="st1" d="M606.8,464.1c-5.5,0-10-4.5-10-10v-10.6c0-0.8,0.7-1.5,1.5-1.5h22.5c0.8,0,1.5,0.7,1.5,1.5v10.6
	c0,5.5-4.5,10-10,10H606.8z M620.9,441.5h-22.5c-1.1,0-2.1,0.9-2.1,2.1v10.6c0,5.8,4.7,10.5,10.5,10.5h5.6c5.8,0,10.5-4.7,10.5-10.5
	v-10.6C623,442.4,622,441.5,620.9,441.5"/>
<path class="st2" d="M606.8,464.1c-5.5,0-10-4.5-10-10v-10.6c0-0.8,0.7-1.5,1.5-1.5h22.5c0.8,0,1.5,0.7,1.5,1.5v10.6
	c0,5.5-4.5,10-10,10H606.8z M620.9,441.5h-22.5c-1.1,0-2.1,0.9-2.1,2.1v10.6c0,5.8,4.7,10.5,10.5,10.5h5.6c5.8,0,10.5-4.7,10.5-10.5
	v-10.6C623,442.4,622,441.5,620.9,441.5z"/>
<path class="st1" d="M606.8,461.6c-4.1,0-7.5-3.4-7.5-7.5v-6.2c0-0.7,0.6-1.3,1.3-1.3h18c0.7,0,1.3,0.6,1.3,1.3v6.2
	c0,4.1-3.4,7.5-7.5,7.5H606.8z M618.6,446.1h-18c-1,0-1.9,0.8-1.9,1.9v6.2c0,4.4,3.6,8,8,8h5.6c4.4,0,8-3.6,8-8V448
	C620.5,446.9,619.6,446.1,618.6,446.1"/>
<path class="st2" d="M606.8,461.6c-4.1,0-7.5-3.4-7.5-7.5v-6.2c0-0.7,0.6-1.3,1.3-1.3h18c0.7,0,1.3,0.6,1.3,1.3v6.2
	c0,4.1-3.4,7.5-7.5,7.5H606.8z M618.6,446.1h-18c-1,0-1.9,0.8-1.9,1.9v6.2c0,4.4,3.6,8,8,8h5.6c4.4,0,8-3.6,8-8V448
	C620.5,446.9,619.6,446.1,618.6,446.1z"/>
<path class="st1" d="M609.6,456.3c-0.7,0-1.2-0.6-1.2-1.2c0-0.7,0.6-1.2,1.2-1.2c0.7,0,1.2,0.6,1.2,1.2
	C610.9,455.8,610.3,456.3,609.6,456.3 M609.6,453.3c-1,0-1.8,0.8-1.8,1.8s0.8,1.8,1.8,1.8s1.8-0.8,1.8-1.8
	C611.4,454.1,610.6,453.3,609.6,453.3"/>
<path class="st2" d="M609.6,456.3c-0.7,0-1.2-0.6-1.2-1.2c0-0.7,0.6-1.2,1.2-1.2c0.7,0,1.2,0.6,1.2,1.2
	C610.9,455.8,610.3,456.3,609.6,456.3z M609.6,453.3c-1,0-1.8,0.8-1.8,1.8s0.8,1.8,1.8,1.8s1.8-0.8,1.8-1.8
	C611.4,454.1,610.6,453.3,609.6,453.3z"/>
<path class="st2" d="M647.7,459.8c0.8,0,1.5,0.7,1.5,1.5s-0.7,1.5-1.5,1.5s-1.5-0.7-1.5-1.5S646.9,459.8,647.7,459.8z"/>
<path class="st2" d="M638.7,540c-5.5,0-9.9-4.4-9.9-9.9v-74.7c0-5.5,4.4-9.9,9.9-9.9h15.7c5.5,0,9.9,4.4,9.9,9.9v74.7
	c0,5.5-4.4,9.9-9.9,9.9H638.7z"/>
<path class="st2" d="M642,533.4c-5.5,0-9.9-4.4-9.9-9.9V462c0-5.5,4.4-9.9,9.9-9.9h9.1c5.5,0,9.9,4.4,9.9,9.9v61.6
	c0,5.5-4.4,9.9-9.9,9.9L642,533.4L642,533.4z"/>
<path class="st2" d="M640.2,525.5c-2.7,0-5-2.2-5-5v-59.9c0-2.7,2.2-5,5-5h12.6c2.7,0,5,2.2,5,5v59.9c0,2.7-2.2,5-5,5H640.2z"/>
<polygon class="st2" points="667.3,441.8 667.3,441.8 667.3,543.7 625.8,543.7 625.8,441.8 "/>
<path class="st1" d="M574.6,421.3c0-1,0.4-1.6,1.3-1.6c0.9,0,1.3,0.5,1.3,1.6v2.8c0,1-0.4,1.5-1.3,1.5c-0.9,0-1.3-0.5-1.3-1.5V421.3
	z M573.1,426.9c0.7,0.7,1.6,1,2.8,1s2.1-0.3,2.8-1c0.6-0.7,1-1.7,1-2.9v-2.9c0-1.2-0.2-2.1-0.7-2.7s-1.1-0.9-2.1-0.9
	c-1.1,0-1.9,0.5-2.3,1.4V416c0-0.7,0.1-1.2,0.3-1.5s0.6-0.4,1-0.4c0.9,0,1.3,0.5,1.3,1.6v0.6h2.3v-0.4c0-1.3-0.3-2.3-0.9-2.9
	c-0.6-0.7-1.5-1-2.8-1c-2.5,0-3.8,1.4-3.8,4.1v8.1C572.1,425.3,572.5,426.2,573.1,426.9 M570.6,425.5h-2.5v2.3h2.5V425.5z
	 M562.6,415.7v12.1h2.5V412h-1.7c-0.1,0.3-0.2,0.5-0.3,0.6c-0.1,0.2-0.2,0.3-0.3,0.5s-0.3,0.3-0.5,0.5c-0.2,0.1-0.4,0.2-0.7,0.3
	c-0.3,0.1-0.6,0.1-1,0.1v1.8L562.6,415.7L562.6,415.7z"/>
<path class="st1" d="M577,401.7v0.1c-0.1,0.5-0.3,0.9-0.7,1.1c-0.3,0.2-0.9,0.2-1.5,0.2v2.3c0.7,0,1.3,0,1.8-0.1s0.9-0.2,1.3-0.4
	c0.3-0.2,0.6-0.5,0.9-0.8c0.2-0.4,0.4-0.8,0.6-1.2c0.2-0.4,0.3-0.9,0.4-1.5l2.7-11.8H580l-1.1,5.4l-0.6,3.7l-0.8-3.7l-1.3-5.4h-2.5
	L577,401.7z M567,405.4l6.2-15.8H571l-6.2,15.8H567z M557.6,404.5c0.6,0.7,1.6,1,2.8,1s2.2-0.3,2.8-1c0.7-0.7,1-1.7,1-2.9v-2.1h-2.5
	v2.3c0,1-0.4,1.5-1.3,1.5c-0.9,0-1.3-0.5-1.3-1.5v-8.5c0-1,0.4-1.6,1.3-1.6c0.9,0,1.3,0.5,1.3,1.6v1.7h2.5v-1.5c0-1.3-0.3-2.3-1-2.9
	c-0.7-0.7-1.6-1-2.8-1s-2.1,0.3-2.8,1c-0.6,0.7-0.9,1.7-0.9,2.9v8.2C556.7,402.9,557,403.8,557.6,404.5"/>
<path class="st1" d="M589.8,515.9l-3.6,13.6h2.5l3.7-13.7v-2.2h-7.5v2.3L589.8,515.9L589.8,515.9z M583.3,527.2h-2.5v2.3h2.5V527.2z
	 M572.7,528.6c0.7,0.7,1.6,1,2.8,1s2.1-0.3,2.8-1c0.6-0.7,0.9-1.7,0.9-2.9v-1.2c0-1.7-0.6-2.8-1.7-3.3c1.2-0.5,1.7-1.6,1.7-3.3v-0.4
	c0-1.3-0.3-2.3-0.9-2.9c-0.6-0.7-1.5-1-2.8-1c-1.2,0-2.2,0.3-2.8,1c-0.7,0.7-1,1.7-1,2.9v0.9h2.5v-1c0-1,0.4-1.6,1.3-1.6
	c0.4,0,0.7,0.1,1,0.4c0.2,0.3,0.3,0.7,0.3,1.4v0.9c0,0.6-0.1,1-0.4,1.3c-0.2,0.3-0.6,0.4-1.1,0.4h-1v2.3h0.8c0.6,0,1,0.2,1.2,0.5
	c0.3,0.3,0.4,0.8,0.4,1.5v1.2c0,0.7-0.1,1.1-0.3,1.4c-0.2,0.3-0.5,0.4-1,0.4c-0.8,0-1.3-0.5-1.3-1.6v-1.5h-2.5v1.3
	C571.7,527,572,527.9,572.7,528.6"/>
<path class="st1" d="M604.1,495.1c0-0.6,0.1-1,0.3-1.2c0.2-0.3,0.5-0.4,1-0.4h1.2v4.9h-1c-0.5,0-0.9-0.1-1.1-0.4
	c-0.2-0.3-0.4-0.7-0.4-1.3V495.1z M603.8,507.1c0.1-0.2,0.1-0.3,0.1-0.4s0-0.3,0.1-0.5c0-0.3,0-0.6,0-1v-2.5c0-0.7,0.1-1.2,0.4-1.6
	c0.3-0.3,0.7-0.5,1.2-0.5h0.9v6.4h2.5v-15.8h-3.8c-1.3,0-2.2,0.3-2.8,0.9s-0.9,1.5-0.9,2.7v1.2c0,1.6,0.5,2.7,1.6,3.2
	c-0.6,0.2-1,0.7-1.3,1.2c-0.3,0.6-0.4,1.3-0.4,2.2v2.4c0,0.9-0.1,1.5-0.2,1.9h2.6V507.1z M596.4,494.1l1.2,8h-2.4L596.4,494.1z
	 M594.4,507.1l0.4-2.9h3l0.4,2.9h2.5l-2.5-15.8h-3.8l-2.5,15.8H594.4z M585.4,507.1v-6.8h2.8v6.8h2.5v-15.8h-2.5v6.8h-2.8v-6.8h-2.5
	v15.8H585.4z M575.8,507.1v-6.8h2.8v6.8h2.5v-15.8h-2.5v6.8h-2.8v-6.8h-2.5v15.8H575.8z M567.9,494.1l1.2,8h-2.4L567.9,494.1z
	 M565.9,507.1l0.4-2.9h3l0.4,2.9h2.5l-2.5-15.8H566l-2.5,15.8H565.9z M557.4,493.5h1.2c0.4,0,0.8,0.1,1,0.4s0.3,0.7,0.3,1.2v0.9
	c0,0.6-0.1,1-0.4,1.3c-0.3,0.3-0.6,0.4-1.1,0.4h-1V493.5z M557.4,500h1.1c0.6,0,1,0.1,1.2,0.4s0.4,0.8,0.4,1.5v1.4
	c0,0.6-0.1,1-0.3,1.2s-0.5,0.4-1,0.4h-1.4V500z M558.8,507.1c1.2,0,2.2-0.3,2.8-1c0.6-0.6,1-1.6,1-2.8V502c0-1.8-0.6-2.9-1.9-3.4
	c1.1-0.5,1.6-1.6,1.6-3.2v-0.6c0-1.2-0.3-2.2-0.9-2.7c-0.6-0.6-1.5-0.9-2.8-0.9h-3.8V507h4V507.1z"/>
<path class="st1" d="M484.3,494.4c0.7,0.7,1.6,1,2.8,1c1.2,0,2.1-0.3,2.8-1c0.6-0.7,0.9-1.7,0.9-2.9v-1.2c0-1.7-0.6-2.8-1.7-3.3
	c1.2-0.5,1.7-1.6,1.7-3.3v-0.4c0-1.3-0.3-2.3-0.9-2.9c-0.6-0.7-1.5-1-2.8-1c-1.2,0-2.2,0.3-2.8,1c-0.7,0.7-1,1.7-1,2.9v0.9h2.5v-1
	c0-1,0.4-1.6,1.3-1.6c0.4,0,0.7,0.1,1,0.4c0.2,0.3,0.3,0.7,0.3,1.4v0.9c0,0.6-0.1,1-0.4,1.3c-0.2,0.3-0.6,0.4-1.1,0.4h-1v2.3h0.8
	c0.6,0,1,0.2,1.2,0.5c0.3,0.3,0.4,0.8,0.4,1.5v1.2c0,0.7-0.1,1.1-0.3,1.4c-0.2,0.3-0.5,0.4-1,0.4c-0.8,0-1.3-0.5-1.3-1.6v-1.5h-2.5
	v1.3C483.3,492.7,483.7,493.7,484.3,494.4 M481.7,493h-2.5v2.3h2.5V493z M471.2,494.4c0.7,0.7,1.6,1,2.8,1c1.2,0,2.1-0.3,2.8-1
	c0.6-0.7,0.9-1.7,0.9-2.9v-1.2c0-1.7-0.6-2.8-1.7-3.3c1.2-0.5,1.7-1.6,1.7-3.3v-0.4c0-1.3-0.3-2.3-0.9-2.9c-0.6-0.7-1.5-1-2.8-1
	c-1.2,0-2.2,0.3-2.8,1c-0.7,0.7-1,1.7-1,2.9v0.9h2.5v-1c0-1,0.4-1.6,1.3-1.6c0.4,0,0.7,0.1,1,0.4c0.2,0.3,0.3,0.7,0.3,1.4v0.9
	c0,0.6-0.1,1-0.4,1.3c-0.2,0.3-0.6,0.4-1.1,0.4h-1v2.3h0.8c0.6,0,1,0.2,1.2,0.5c0.3,0.3,0.4,0.8,0.4,1.5v1.2c0,0.7-0.1,1.1-0.3,1.4
	c-0.2,0.3-0.5,0.4-1,0.4c-0.8,0-1.3-0.5-1.3-1.6v-1.5h-2.5v1.3C470.2,492.7,470.5,493.7,471.2,494.4"/>
<path class="st1" d="M507.8,459.3h1.2c0.4,0,0.7,0.1,0.9,0.3c0.2,0.2,0.3,0.6,0.3,1.2v2.4c0,0.5-0.1,0.9-0.3,1.2
	c-0.2,0.2-0.5,0.3-0.9,0.3h-1.2V459.3z M507.8,472.8v-5.9h1.2c1.2,0,2.1-0.3,2.8-1c0.6-0.7,0.9-1.6,0.9-2.9v-2.1
	c0-1.3-0.3-2.2-0.9-2.9c-0.6-0.7-1.5-1-2.8-1h-3.7v15.8H507.8z M498.6,460.6c0-1,0.4-1.6,1.3-1.6s1.3,0.5,1.3,1.6v8.5
	c0,1-0.4,1.6-1.3,1.6s-1.3-0.5-1.3-1.6V460.6z M497.1,472c0.7,0.7,1.6,1,2.8,1c1.2,0,2.1-0.3,2.8-1c0.6-0.7,1-1.7,1-2.9v-8.2
	c0-1.3-0.3-2.2-1-2.9c-0.6-0.7-1.6-1-2.8-1c-1.2,0-2.2,0.3-2.8,1c-0.7,0.7-1,1.7-1,2.9v8.2C496.2,470.3,496.5,471.3,497.1,472
	 M488.6,469.8c0.1-0.3,0.2-0.7,0.2-1.3l0.5-9.2h2.1v11.3h-3.3C488.4,470.4,488.5,470.1,488.6,469.8 M487.2,474.9v-2.1h5.3v2.1h2.5
	v-4.3h-1.1V457h-7.1l-0.5,11.5c0,0.5-0.1,0.9-0.2,1.2c-0.1,0.3-0.2,0.6-0.5,0.9h-1v4.3H487.2z M478.2,472.8l2.1-7.2l1-3.9v11.1h2.5
	V457h-3l-2,6.5l-0.9,3.5v-10h-2.2v15.8H478.2z M469.7,459.3h1.2c0.4,0,0.7,0.1,0.9,0.3c0.2,0.2,0.3,0.6,0.3,1.2v2.4
	c0,0.5-0.1,0.9-0.3,1.2c-0.2,0.2-0.5,0.3-0.9,0.3h-1.2V459.3z M469.7,472.8v-5.9h1.2c1.2,0,2.1-0.3,2.8-1c0.6-0.7,0.9-1.6,0.9-2.9
	v-2.1c0-1.3-0.3-2.2-0.9-2.9c-0.6-0.7-1.5-1-2.8-1h-3.7v15.8H469.7z M460.5,460.6c0-1,0.4-1.6,1.3-1.6s1.3,0.5,1.3,1.6v8.5
	c0,1-0.4,1.6-1.3,1.6s-1.3-0.5-1.3-1.6V460.6z M459,472c0.7,0.7,1.6,1,2.8,1c1.2,0,2.1-0.3,2.8-1c0.6-0.7,1-1.7,1-2.9v-8.2
	c0-1.3-0.3-2.2-1-2.9c-0.6-0.7-1.6-1-2.8-1c-1.2,0-2.2,0.3-2.8,1c-0.7,0.7-1,1.7-1,2.9v8.2C458,470.3,458.3,471.3,459,472
	 M451.4,472.8V468l0.8-1.4l2.4,6.3h2.5l-3.5-8.8l3.5-7.1h-2.5l-3.3,6.9V457h-2.5v15.8H451.4z"/>
<path class="st2" d="M514.7,898.9v57.6c0,1.8,1.5,3.3,3.3,3.3h100.8c1.8,0,3.3-1.5,3.3-3.3v-57.6H514.7z"/>
<path class="st2" d="M518.8,898.9l3.8,49.7c0,1.8,1.5,3.3,3.3,3.3H611c1.8,0,3.3-1.5,3.3-3.3l3.8-49.7H518.8z"/>
<path class="st1" d="M576.9,278.4v12.1h2.5v-15.8h-1.7c-0.1,0.3-0.2,0.5-0.3,0.6c-0.1,0.2-0.2,0.3-0.3,0.5s-0.3,0.3-0.5,0.5
	c-0.2,0.1-0.4,0.2-0.7,0.3c-0.3,0.1-0.6,0.1-1,0.1v1.8h2V278.4z M571.7,288.2h-2.5v2.3h2.5V288.2z M567.5,290.5v-2.3h-4.7
	c0-0.1,0-0.2,0-0.3c0-0.3,0.1-0.7,0.3-1.1s0.4-0.7,0.7-1.1c0.3-0.3,0.6-0.7,1-1.1s0.7-0.8,1.1-1.2c0.3-0.4,0.7-0.9,1-1.4
	s0.5-1,0.7-1.7c0.2-0.6,0.3-1.3,0.3-1.9c0-1.3-0.3-2.3-0.9-2.9c-0.6-0.7-1.5-1-2.8-1c-1.2,0-2.1,0.3-2.8,1c-0.6,0.7-1,1.7-1,2.9v1.5
	h2.4v-1.7c0-1,0.4-1.6,1.3-1.6c0.4,0,0.7,0.1,1,0.4c0.2,0.3,0.3,0.7,0.3,1.4c0,0.6-0.1,1.2-0.3,1.7s-0.4,1-0.7,1.4s-0.6,0.8-1,1.2
	c-0.4,0.4-0.7,0.8-1.1,1.2c-0.4,0.4-0.7,0.8-1,1.2c-0.3,0.4-0.5,0.9-0.7,1.5s-0.3,1.1-0.3,1.8v1.9h7.2V290.5z M554.8,278.4v12.1h2.5
	v-15.8h-1.7c-0.1,0.3-0.2,0.5-0.3,0.6c-0.1,0.2-0.2,0.3-0.3,0.5s-0.3,0.3-0.5,0.5c-0.2,0.1-0.4,0.2-0.7,0.3c-0.3,0.1-0.6,0.1-1,0.1
	v1.8h2V278.4z"/>
<path class="st1" d="M583.6,256.2c0-0.6,0.1-1,0.3-1.2c0.2-0.3,0.5-0.4,1-0.4h1.2v4.9h-1c-0.5,0-0.9-0.1-1.1-0.4
	c-0.2-0.3-0.4-0.7-0.4-1.3V256.2z M583.3,268.1c0.1-0.2,0.1-0.3,0.1-0.4s0-0.3,0.1-0.5c0-0.3,0-0.6,0-1v-2.5c0-0.7,0.1-1.2,0.4-1.6
	c0.3-0.3,0.7-0.5,1.2-0.5h0.9v6.4h2.5v-15.8h-3.8c-1.3,0-2.2,0.3-2.8,0.9c-0.6,0.6-0.9,1.5-0.9,2.7v1.2c0,1.6,0.5,2.7,1.6,3.2
	c-0.6,0.2-1,0.7-1.3,1.2c-0.3,0.6-0.4,1.3-0.4,2.2v2.4c0,0.9-0.1,1.5-0.2,1.9h2.6V268.1z M574.1,268.1v-6.8h2.8v6.8h2.5v-15.8h-2.5
	v6.8h-2.8v-6.8h-2.5v15.8H574.1z M563.8,268.1l1.9-5.9l1.9,5.9h2.5l-2.8-8.1l2.6-7.8h-2.2l-1.9,5.9l-1.9-5.9h-2.5l2.6,7.7l-2.8,8.2
	L563.8,268.1L563.8,268.1z M555.4,264.4v0.1c-0.1,0.5-0.3,0.9-0.7,1.1c-0.3,0.2-0.9,0.2-1.5,0.2v2.3c0.7,0,1.3,0,1.8-0.1
	s0.9-0.2,1.3-0.4c0.3-0.2,0.6-0.5,0.9-0.8c0.2-0.4,0.4-0.8,0.6-1.2c0.2-0.4,0.3-0.9,0.4-1.5l2.7-11.8h-2.5l-1.1,5.4l-0.6,3.7
	l-0.8-3.7l-1.3-5.4H552L555.4,264.4z M545.8,268.1v-4.9l0.8-1.4l2.4,6.3h2.5l-3.5-8.8l3.5-7.1H549l-3.3,6.9v-6.9h-2.5V268h2.6V268.1
	z"/>
<path class="st1" d="M590,117.5c1.3,0,2.1-0.3,2.7-0.8c0.5-0.5,0.8-1.4,0.8-2.7v-8.9c0-1.3-0.3-2.2-0.8-2.7s-1.4-0.8-2.7-0.8h-0.8
	v2.2h0.6c0.4,0,0.7,0.1,0.9,0.3c0.2,0.2,0.3,0.6,0.3,1.1v8.7c0,0.5-0.1,0.9-0.3,1.1s-0.5,0.3-0.9,0.3h-0.6v2.2
	C589.2,117.5,590,117.5,590,117.5z M588,117.5v-2.3h-4.7c0-0.1,0-0.2,0-0.3c0-0.3,0.1-0.7,0.3-1.1s0.4-0.7,0.7-1.1
	c0.3-0.3,0.6-0.7,1-1.1s0.7-0.8,1.1-1.2c0.3-0.4,0.7-0.9,1-1.4s0.5-1,0.7-1.7c0.2-0.6,0.3-1.3,0.3-1.9c0-1.3-0.3-2.3-0.9-2.9
	c-0.6-0.7-1.5-1-2.8-1c-1.2,0-2.1,0.3-2.8,1c-0.6,0.7-1,1.7-1,2.9v1.5h2.4v-1.7c0-1,0.4-1.6,1.3-1.6c0.4,0,0.7,0.1,1,0.4
	c0.2,0.3,0.3,0.7,0.3,1.4c0,0.6-0.1,1.2-0.3,1.7s-0.4,1-0.7,1.4s-0.6,0.8-1,1.2c-0.4,0.4-0.7,0.8-1.1,1.2c-0.4,0.4-0.7,0.8-1,1.2
	c-0.3,0.4-0.5,0.9-0.7,1.5s-0.3,1.1-0.3,1.8v1.9h7.2V117.5z M579.1,115.2h-2.5v2.3h2.5V115.2z M574.9,117.5v-2.3h-4.7
	c0-0.1,0-0.2,0-0.3c0-0.3,0.1-0.7,0.3-1.1s0.4-0.7,0.7-1.1c0.3-0.3,0.6-0.7,1-1.1s0.7-0.8,1.1-1.2c0.3-0.4,0.7-0.9,1-1.4
	s0.5-1,0.7-1.7c0.2-0.6,0.3-1.3,0.3-1.9c0-1.3-0.3-2.3-0.9-2.9c-0.6-0.7-1.5-1-2.8-1c-1.2,0-2.1,0.3-2.8,1c-0.6,0.7-1,1.7-1,2.9v1.5
	h2.4v-1.7c0-1,0.4-1.6,1.3-1.6c0.4,0,0.7,0.1,1,0.4c0.2,0.3,0.3,0.7,0.3,1.4c0,0.6-0.1,1.2-0.3,1.7s-0.4,1-0.7,1.4s-0.6,0.8-1,1.2
	c-0.4,0.4-0.7,0.8-1.1,1.2c-0.4,0.4-0.7,0.8-1,1.2c-0.3,0.4-0.5,0.9-0.7,1.5s-0.3,1.1-0.3,1.8v1.9h7.2V117.5z M563,116.7
	c0.5,0.5,1.4,0.8,2.7,0.8h0.8v-2.2h-0.6c-0.4,0-0.7-0.1-0.9-0.3c-0.2-0.2-0.3-0.6-0.3-1.1v-8.7c0-0.5,0.1-0.9,0.3-1.1
	s0.5-0.3,0.9-0.3h0.6v-2.2h-0.8c-1.3,0-2.1,0.3-2.7,0.8c-0.5,0.5-0.8,1.4-0.8,2.7v8.9C562.2,115.3,562.5,116.2,563,116.7
	 M550.5,116.6c0.7,0.7,1.6,1,2.8,1s2.1-0.3,2.8-1c0.6-0.7,0.9-1.7,0.9-2.9v-1.2c0-1.7-0.6-2.8-1.7-3.3c1.2-0.5,1.7-1.6,1.7-3.3v-0.4
	c0-1.3-0.3-2.3-0.9-2.9c-0.6-0.7-1.6-1-2.8-1s-2.2,0.3-2.8,1c-0.7,0.7-1,1.7-1,2.9v0.9h2.5v-1c0-1,0.4-1.6,1.3-1.6
	c0.4,0,0.7,0.1,1,0.4c0.2,0.3,0.3,0.7,0.3,1.4v0.9c0,0.6-0.1,1-0.4,1.3c-0.2,0.3-0.6,0.4-1.1,0.4h-1v2.3h0.8c0.6,0,1,0.2,1.2,0.5
	c0.3,0.3,0.4,0.8,0.4,1.5v1.2c0,0.7-0.1,1.1-0.3,1.4s-0.5,0.4-1,0.4c-0.9,0-1.3-0.5-1.3-1.6v-1.5h-2.5v1.3
	C549.5,115,549.8,115.9,550.5,116.6 M547.9,115.2h-2.5v2.3h2.5V115.2z M540.6,106.4v6h-2.5L540.6,106.4z M540.6,114.6v2.9h2.5v-2.9
	h1.1v-2.3h-1.1v-10.7h-2.7l-4.5,10.7v2.3H540.6z"/>
<path class="st1" d="M633.1,372.6h-33.2v-32.3h33.2V372.6z M599.2,373.3h34.7v-33.8h-34.7V373.3z"/>
<path class="st2" d="M633.1,372.6h-33.2v-32.3h33.2V372.6z M599.2,373.3h34.7v-33.8h-34.7V373.3z"/>
<path class="st1" d="M628.1,343.2c0.8,0,1.5,0.6,1.5,1.4v17c0,0.8-0.7,1.5-1.5,1.5h-23.3c-0.8,0-1.5-0.7-1.5-1.5v-17
	c0-0.8,0.7-1.4,1.5-1.4H628.1z M604.9,363.9h23.3c1.2,0,2.2-1,2.2-2.2v-17c0-1.2-1-2.2-2.2-2.2h-23.3c-1.2,0-2.2,1-2.2,2.2v17
	C602.6,362.9,603.6,363.9,604.9,363.9"/>
<path class="st2" d="M628.1,343.2c0.8,0,1.5,0.6,1.5,1.4v17c0,0.8-0.7,1.5-1.5,1.5h-23.3c-0.8,0-1.5-0.7-1.5-1.5v-17
	c0-0.8,0.7-1.4,1.5-1.4H628.1z M604.9,363.9h23.3c1.2,0,2.2-1,2.2-2.2v-17c0-1.2-1-2.2-2.2-2.2h-23.3c-1.2,0-2.2,1-2.2,2.2v17
	C602.6,362.9,603.6,363.9,604.9,363.9z"/>
<path class="st1" d="M627,360.6h-21v-14.9h21V360.6z M605.2,361.3h22.5V345h-22.5V361.3z"/>
<path class="st2" d="M627,360.6h-21v-14.9h21V360.6z M605.2,361.3h22.5V345h-22.5V361.3z"/>
<path class="st1" d="M616.5,350.3c1.1,0,1.9,0.8,1.9,1.9c0,1-0.9,1.9-1.9,1.9c-1.1,0-1.9-0.8-1.9-1.9
	C614.6,351.1,615.4,350.3,616.5,350.3 M616.5,354.8c1.5,0,2.7-1.2,2.7-2.6s-1.2-2.6-2.7-2.6s-2.7,1.2-2.7,2.6
	C613.8,353.6,615,354.8,616.5,354.8"/>
<path class="st2" d="M616.5,350.3c1.1,0,1.9,0.8,1.9,1.9c0,1-0.9,1.9-1.9,1.9c-1.1,0-1.9-0.8-1.9-1.9
	C614.6,351.1,615.4,350.3,616.5,350.3z M616.5,354.8c1.5,0,2.7-1.2,2.7-2.6s-1.2-2.6-2.7-2.6s-2.7,1.2-2.7,2.6
	C613.8,353.6,615,354.8,616.5,354.8z"/>
<path class="st1" d="M578.9,789.1c0-1,0.4-1.6,1.3-1.6c0.9,0,1.3,0.5,1.3,1.6v8.5c0,1-0.4,1.6-1.3,1.6c-0.9,0-1.3-0.5-1.3-1.6V789.1
	z M577.4,800.4c0.7,0.7,1.6,1,2.8,1s2.1-0.3,2.8-1c0.6-0.7,1-1.7,1-2.9v-8.2c0-1.3-0.3-2.2-1-2.9c-0.6-0.7-1.6-1-2.8-1
	s-2.2,0.3-2.8,1c-0.7,0.7-1,1.7-1,2.9v8.2C576.5,798.7,576.8,799.7,577.4,800.4 M575,799h-2.5v2.3h2.5V799z M565.8,789.1
	c0-1,0.4-1.5,1.3-1.5c0.9,0,1.3,0.5,1.3,1.5v2.8c0,1-0.4,1.6-1.3,1.6c-0.9,0-1.3-0.5-1.3-1.6V789.1z M564,794.8
	c0.5,0.6,1.1,0.9,2.1,0.9c1.1,0,1.9-0.5,2.3-1.4v2.9c0,0.7-0.1,1.2-0.3,1.5s-0.6,0.4-1,0.4c-0.9,0-1.3-0.5-1.3-1.6V797h-2.3v0.4
	c0,1.3,0.3,2.3,0.9,2.9c0.6,0.7,1.5,1,2.8,1c2.5,0,3.8-1.4,3.8-4.1v-8.1c0-1.3-0.3-2.2-1-2.9s-1.6-1-2.8-1s-2.2,0.3-2.8,1
	s-1,1.7-1,2.9v2.9C563.3,793.3,563.5,794.2,564,794.8 M558,789.2v12.1h2.5v-15.8h-1.7c-0.1,0.3-0.2,0.5-0.3,0.6
	c-0.1,0.2-0.2,0.3-0.3,0.5s-0.3,0.3-0.5,0.5c-0.2,0.1-0.4,0.2-0.7,0.3s-0.6,0.1-1,0.1v1.8L558,789.2L558,789.2z"/>
<path class="st1" d="M625.6,761.1l1.2,8h-2.4L625.6,761.1z M623.7,774.1l0.4-2.9h3l0.4,2.9h2.5l-2.5-15.8h-3.8l-2.5,15.8H623.7z
	 M615.7,760.6v13.6h2.5v-13.6h2.6v-2.3H613v2.3H615.7z M608.4,761.1l1.2,8h-2.4L608.4,761.1z M606.4,774.1l0.4-2.9h3l0.4,2.9h2.5
	l-2.5-15.8h-3.8l-2.5,15.8H606.4z M597.4,774.1v-6.8h2.8v6.8h2.5v-15.8h-2.5v6.8h-2.8v-6.8h-2.5v15.8H597.4z M584.9,774.1V763
	l1.9,11.2h2.4l1.7-11.3v11.3h2.5v-15.8h-3.6l-1.7,11.3l-1.8-11.3h-3.4v15.8h2V774.1z M576,761.9c0-1,0.4-1.6,1.3-1.6
	c0.9,0,1.3,0.5,1.3,1.6v8.5c0,1-0.4,1.6-1.3,1.6c-0.9,0-1.3-0.5-1.3-1.6V761.9z M574.5,773.3c0.7,0.7,1.6,1,2.8,1s2.1-0.3,2.8-1
	c0.6-0.7,1-1.7,1-2.9v-8.2c0-1.3-0.3-2.2-1-2.9c-0.6-0.7-1.6-1-2.8-1s-2.2,0.3-2.8,1c-0.7,0.7-1,1.7-1,2.9v8.2
	C573.6,771.6,573.9,772.6,574.5,773.3 M566.9,774.1v-4.9l0.8-1.4l2.4,6.3h2.5l-3.5-8.8l3.5-7.1h-2.5l-3.3,6.9v-6.9h-2.5V774h2.6
	V774.1z M554.2,762.2c0-0.6,0.1-1,0.3-1.2c0.2-0.3,0.5-0.4,1-0.4h1.2v4.9h-1c-0.5,0-0.9-0.1-1.1-0.4c-0.2-0.3-0.4-0.7-0.4-1.3V762.2
	z M553.9,774.1c0.1-0.2,0.1-0.3,0.1-0.4c0-0.1,0-0.3,0.1-0.5c0-0.3,0-0.6,0-1v-2.5c0-0.7,0.1-1.2,0.4-1.6c0.3-0.3,0.7-0.5,1.2-0.5
	h0.9v6.4h2.5v-15.8h-3.8c-1.3,0-2.2,0.3-2.8,0.9c-0.6,0.6-0.9,1.5-0.9,2.7v1.2c0,1.6,0.5,2.7,1.6,3.2c-0.6,0.2-1,0.7-1.3,1.2
	c-0.3,0.6-0.4,1.3-0.4,2.2v2.4c0,0.9-0.1,1.5-0.2,1.9h2.6V774.1z M546.4,761.1l1.2,8h-2.4L546.4,761.1z M544.5,774.1l0.4-2.9h3
	l0.4,2.9h2.5l-2.5-15.8h-3.8l-2.5,15.8H544.5z M532.2,774.1c1.2,0,2.1-0.3,2.7-0.9c0.6-0.6,0.9-1.6,0.9-3.1l0.3-9.6h2.2v13.6h2.5
	v-15.8h-7.1l-0.3,12c0,0.4,0,0.7-0.1,0.9c0,0.2-0.1,0.4-0.3,0.5c-0.1,0.1-0.3,0.2-0.4,0.2c-0.2,0-0.4,0-0.7,0v2.3h0.3V774.1z
	 M525.4,774.1l2.1-7.2l1-3.9v11.1h2.5v-15.8h-3l-2,6.5l-0.9,3.5v-10h-2.2v15.8L525.4,774.1L525.4,774.1z M510.9,774.1l2.3-7.1
	l0.6,1.2v5.8h2.5v-5.8l0.6-1.2l2.3,7h2.5l-3-9.4l3-6.5h-2.4l-2.9,6.4v-6.4h-2.5v6.4l-2.9-6.4h-2.4l3.1,6.5l-3.1,9.3h2.3V774.1z"/>
<path class="st1" d="M602.7,745.2V740H592c0-0.2-0.1-0.4-0.1-0.8c0-0.8,0.2-1.6,0.6-2.4c0.4-0.8,1-1.7,1.6-2.4
	c0.7-0.8,1.4-1.6,2.2-2.5s1.6-1.8,2.4-2.8c0.8-1,1.5-2,2.2-3.1s1.2-2.3,1.6-3.8c0.4-1.4,0.6-2.9,0.6-4.5c0-2.9-0.7-5.1-2.2-6.7
	c-1.4-1.6-3.5-2.4-6.3-2.4s-4.9,0.8-6.3,2.4c-1.5,1.6-2.2,3.8-2.2,6.7v3.5h5.4v-3.9c0-2.4,1-3.6,2.9-3.6c1,0,1.7,0.3,2.2,0.9
	c0.5,0.6,0.7,1.7,0.7,3.2c0,1.4-0.2,2.7-0.6,4c-0.4,1.2-0.9,2.3-1.6,3.3c-0.7,0.9-1.4,1.9-2.2,2.8c-0.8,0.9-1.6,1.8-2.4,2.7
	c-0.8,0.9-1.5,1.8-2.2,2.8c-0.7,0.9-1.2,2.1-1.6,3.3c-0.4,1.3-0.6,2.6-0.6,4v4.4L602.7,745.2L602.7,745.2z M582.4,739.9h-5.7v5.2
	h5.7V739.9z M561.3,717.3c0-2.3,1-3.5,2.9-3.5c2,0,3,1.2,3,3.5v6.5c0,2.4-1,3.6-3,3.6s-2.9-1.2-2.9-3.6V717.3z M557.2,730.4
	c1.1,1.4,2.6,2.1,4.7,2.1c2.5,0,4.3-1.1,5.3-3.2v6.6c0,1.6-0.3,2.8-0.8,3.5s-1.3,1-2.4,1c-2,0-3-1.2-3-3.6v-1.3h-5.3v0.9
	c0,2.9,0.7,5.1,2.2,6.7c1.4,1.6,3.5,2.4,6.3,2.4c5.8,0,8.7-3.1,8.7-9.4v-18.5c0-2.9-0.7-5.1-2.2-6.7c-1.5-1.6-3.6-2.4-6.4-2.4
	s-4.9,0.8-6.4,2.4c-1.5,1.6-2.2,3.8-2.2,6.7v6.6C555.7,727,556.2,729,557.2,730.4 M545.4,719.8v13.6h-5.7L545.4,719.8z M545.4,738.6
	v6.6h5.7v-6.6h2.6v-5.2h-2.6V709h-6.2l-10.3,24.4v5.2L545.4,738.6L545.4,738.6z"/>
<ellipse class="st3" cx="569.2" cy="666.7" rx="31.7" ry="31.7"/>
<path class="st1" d="M573.6,681.4V673l1.3-2.5l4.2,10.9h4.4l-6-15.2l6-12.2h-4.3l-5.6,11.9V654h-4.3v27.4H573.6z M559.8,660.5v20.9
	h4.3V654h-2.9c-0.2,0.4-0.3,0.8-0.4,1.1c-0.1,0.3-0.3,0.6-0.6,0.9c-0.2,0.3-0.5,0.6-0.8,0.8s-0.7,0.3-1.2,0.5
	c-0.5,0.1-1.1,0.2-1.7,0.2v3H559.8z"/>
<path class="st1" d="M362.9,506.9c0.7,0.7,1.6,1,2.8,1c1.2,0,2.1-0.3,2.8-1c0.6-0.7,0.9-1.7,0.9-2.9v-1.2c0-1.7-0.6-2.8-1.7-3.3
	c1.2-0.5,1.7-1.6,1.7-3.3v-0.4c0-1.3-0.3-2.3-0.9-2.9c-0.6-0.7-1.5-1-2.8-1c-1.2,0-2.2,0.3-2.8,1c-0.7,0.7-1,1.7-1,2.9v0.9h2.5v-1
	c0-1,0.4-1.6,1.3-1.6c0.4,0,0.7,0.1,1,0.4c0.2,0.3,0.3,0.7,0.3,1.4v0.9c0,0.6-0.1,1-0.4,1.3s-0.6,0.4-1.1,0.4h-1v2.3h0.8
	c0.6,0,1,0.2,1.2,0.5c0.3,0.3,0.4,0.8,0.4,1.5v1.2c0,0.7-0.1,1.1-0.3,1.4c-0.2,0.3-0.5,0.4-1,0.4c-0.9,0-1.3-0.5-1.3-1.6v-1.5h-2.5
	v1.3C361.9,505.2,362.2,506.2,362.9,506.9 M360.3,505.4h-2.5v2.3h2.5V505.4z M353.7,494.1l-3.6,13.6h2.5l3.7-13.7v-2.2h-7.5v2.3
	L353.7,494.1L353.7,494.1z"/>
<path class="st1" d="M392.4,473.4c0-0.6,0.1-1,0.3-1.2c0.2-0.3,0.5-0.4,1-0.4h1.2v4.9h-1c-0.5,0-0.9-0.1-1.1-0.4s-0.4-0.7-0.4-1.3
	V473.4z M392.1,485.3c0.1-0.2,0.1-0.3,0.1-0.4s0-0.3,0.1-0.5c0-0.3,0-0.6,0-1v-2.5c0-0.7,0.1-1.2,0.4-1.6c0.3-0.3,0.7-0.5,1.2-0.5
	h0.9v6.4h2.5v-15.8h-3.8c-1.3,0-2.2,0.3-2.8,0.9c-0.6,0.6-0.9,1.5-0.9,2.7v1.2c0,1.6,0.5,2.7,1.6,3.2c-0.6,0.2-1,0.7-1.3,1.2
	c-0.3,0.6-0.4,1.3-0.4,2.2v2.4c0,0.9-0.1,1.5-0.2,1.9h2.6V485.3z M384.6,472.3l1.2,8h-2.4L384.6,472.3z M382.7,485.3l0.4-2.9h3
	l0.4,2.9h2.5l-2.5-15.8h-3.8l-2.5,15.8H382.7z M369,485.3l2.3-7.1l0.6,1.2v5.8h2.5v-5.8l0.6-1.2l2.3,7h2.5l-3-9.4l3-6.5h-2.4
	l-2.9,6.4v-6.4H372v6.4l-2.9-6.4h-2.4l3.1,6.5l-3.1,9.3h2.3V485.3z M360.5,473.1c0-1,0.4-1.6,1.3-1.6s1.3,0.5,1.3,1.6v8.5
	c0,1-0.4,1.6-1.3,1.6s-1.3-0.5-1.3-1.6V473.1z M359,484.4c0.7,0.7,1.6,1,2.8,1c1.2,0,2.1-0.3,2.8-1c0.6-0.7,1-1.7,1-2.9v-8.2
	c0-1.3-0.3-2.2-1-2.9c-0.6-0.7-1.6-1-2.8-1c-1.2,0-2.2,0.3-2.8,1c-0.7,0.7-1,1.7-1,2.9v8.2C358.1,482.8,358.4,483.7,359,484.4
	 M350.5,485.3l1.9-5.9l1.9,5.9h2.5l-2.8-8.1l2.6-7.8h-2.2l-1.9,5.9l-1.9-5.9h-2.5l2.6,7.7l-2.8,8.2L350.5,485.3L350.5,485.3z
	 M341.5,485.3l2.1-7.2l1-3.9v11.1h2.5v-15.8h-3l-2,6.5l-0.9,3.5v-10H339v15.8H341.5z M332.9,471.7h1.2c0.4,0,0.7,0.1,0.9,0.3
	c0.2,0.2,0.3,0.6,0.3,1.2v2.4c0,0.5-0.1,0.9-0.3,1.2c-0.2,0.2-0.5,0.3-0.9,0.3h-1.2V471.7z M332.9,485.3v-5.9h1.2
	c1.2,0,2.1-0.3,2.8-1c0.6-0.7,0.9-1.6,0.9-2.9v-2.1c0-1.3-0.3-2.2-0.9-2.9c-0.6-0.7-1.5-1-2.8-1h-3.7v15.8H332.9z M323.2,485.3
	v-13.6h2.8v13.6h2.5v-15.8h-7.8v15.8H323.2z"/>
</svg>
