<?xml version="1.0" encoding="utf-8"?>
<!-- Generator: Adobe Illustrator 26.5.0, SVG Export Plug-In . SVG Version: 6.00 Build 0)  -->
<svg version="1.1" id="Слой_1" xmlns="http://www.w3.org/2000/svg" xmlns:xlink="http://www.w3.org/1999/xlink" x="0px" y="0px"
	 viewBox="0 0 1000 1000" style="enable-background:new 0 0 1000 1000;" xml:space="preserve">
<style type="text/css">
	.st0{fill:#FFF6A1;}
	.st1{fill:#373437;}
	.st2{fill:none;stroke:#373437;}
</style>
<rect x="315.8" y="179.8" class="st0" width="382.2" height="658.9"/>
<rect x="698.6" y="94.8" class="st1" width="25.1" height="766.1"/>
<rect x="698.6" y="94.8" class="st2" width="25.1" height="766.1"/>
<rect x="659.2" y="160.9" class="st1" width="45.8" height="18.3"/>
<rect x="659.2" y="160.9" class="st2" width="45.8" height="18.3"/>
<rect x="462.3" y="160.9" class="st1" width="45.8" height="18.3"/>
<rect x="462.3" y="160.9" class="st2" width="45.8" height="18.3"/>
<rect x="506.6" y="160.9" class="st1" width="45.8" height="18.3"/>
<rect x="506.6" y="160.9" class="st2" width="45.8" height="18.3"/>
<rect x="593.9" y="160.9" class="st2" width="66.4" height="18.3"/>
<rect x="397" y="160.9" class="st2" width="66.4" height="18.3"/>
<rect x="655.2" y="156.7" class="st1" width="49.9" height="4.2"/>
<rect x="655.2" y="156.7" class="st2" width="49.9" height="4.2"/>
<rect x="458.2" y="156.7" class="st1" width="49.9" height="4.2"/>
<rect x="458.2" y="156.7" class="st2" width="49.9" height="4.2"/>
<rect x="506.6" y="156.7" class="st1" width="49.9" height="4.2"/>
<rect x="506.6" y="156.7" class="st2" width="49.9" height="4.2"/>
<rect x="588.6" y="156.7" class="st2" width="71.7" height="4.2"/>
<rect x="391.7" y="156.7" class="st2" width="71.7" height="4.2"/>
<path class="st2" d="M593.8,160.2c0,0,0,5.2-2.3,11.7c-1.9,5.4-5.8,10.5-5.8,10.5l-36-20.3l0.8-1.3l36,20.4"/>
<path class="st2" d="M396.8,160.2c0,0,0,5.2-2.3,11.7c-1.9,5.4-5.8,10.5-5.8,10.5l-36-20.3l0.8-1.3l36,20.4"/>
<rect x="310" y="160.9" class="st1" width="45.8" height="18.3"/>
<rect x="310" y="160.9" class="st2" width="45.8" height="18.3"/>
<rect x="310" y="156.7" class="st1" width="49.9" height="4.2"/>
<rect x="310" y="156.7" class="st2" width="49.9" height="4.2"/>
<rect x="502.3" y="160.6" class="st1" width="10.4" height="276.2"/>
<rect x="502.3" y="160.6" class="st2" width="10.4" height="276.2"/>
<rect x="306" y="405" class="st1" width="150.6" height="8.7"/>
<rect x="306" y="405" class="st2" width="150.6" height="8.7"/>
<rect x="306.6" y="68" class="st1" width="31.9" height="90.2"/>
<rect x="306.6" y="68" class="st2" width="31.9" height="90.2"/>
<polygon class="st2" points="511.8,68 511.8,74.7 699.4,101.3 699.4,94.6 "/>
<rect x="299" y="68" class="st1" width="16.3" height="396"/>
<rect x="299" y="512" class="st1" width="16.3" height="439"/>
<rect x="303.8" y="839.9" class="st1" width="20.9" height="21.6"/>
<rect x="303.8" y="839.9" class="st2" width="20.9" height="21.6"/>
<rect x="305.9" y="618" class="st1" width="9.3" height="80.9"/>
<rect x="305.9" y="618" class="st2" width="9.3" height="80.9"/>
<rect x="305.9" y="511.7" class="st1" width="9.3" height="117.7"/>
<rect x="503.3" y="492.7" class="st1" width="9.3" height="369.4"/>
<rect x="503.3" y="492.7" class="st2" width="9.3" height="369.4"/>
<rect x="310.3" y="529.3" class="st1" width="117.9" height="9.3"/>
<rect x="310.3" y="529.3" class="st2" width="117.9" height="9.3"/>
<rect x="474.4" y="529.3" class="st1" width="33.2" height="9.3"/>
<rect x="474.4" y="529.3" class="st2" width="33.2" height="9.3"/>
<rect x="305.9" y="400.2" class="st1" width="9.3" height="61.2"/>
<rect x="305.9" y="400.2" class="st2" width="9.3" height="61.2"/>
<rect x="501.6" y="859.5" class="st1" width="13.4" height="65"/>
<rect x="501.6" y="859.5" class="st2" width="13.4" height="65"/>
<rect x="312.8" y="931.5" transform="matrix(0.9902 -0.1393 0.1393 0.9902 -126.227 66.1724)" class="st2" width="193.4" height="6.2"/>
<rect x="301" y="857.3" class="st1" width="54.9" height="4.2"/>
<rect x="301" y="857.3" class="st2" width="54.9" height="4.2"/>
<rect x="303.8" y="839.3" class="st1" width="49.2" height="22.3"/>
<rect x="303.8" y="839.3" class="st2" width="49.2" height="22.3"/>
<rect x="463.3" y="856.7" class="st1" width="88.6" height="4.2"/>
<rect x="463.3" y="856.7" class="st2" width="88.6" height="4.2"/>
<rect x="468" y="839.3" class="st1" width="79.2" height="21.6"/>
<rect x="468" y="839.3" class="st2" width="79.2" height="21.6"/>
<rect x="659.8" y="856.7" class="st1" width="49.8" height="4.2"/>
<rect x="659.8" y="856.7" class="st2" width="49.8" height="4.2"/>
<rect x="540.1" y="856.7" class="st2" width="131" height="4.2"/>
<rect x="664.5" y="839.3" class="st1" width="40.1" height="21.6"/>
<rect x="664.5" y="839.3" class="st2" width="40.1" height="21.6"/>
<rect x="537.1" y="839.3" class="st2" width="137" height="21.6"/>
<rect x="392.3" y="839.3" class="st2" width="84" height="17.4"/>
<rect x="387" y="856.7" class="st2" width="84" height="4.2"/>
<path class="st2" d="M392.2,856.4c0,0,0-5.2-2.3-11.7c-1.9-5.4-5.8-10.5-5.8-10.5l-36,20.3l0.8,1.3l36-20.4"/>
<rect x="559.9" y="372.1" class="st1" width="141.9" height="7.5"/>
<rect x="559.9" y="372.1" class="st2" width="141.9" height="7.5"/>
<rect x="559.9" y="530.1" class="st1" width="144.7" height="7.5"/>
<rect x="559.9" y="530.1" class="st2" width="144.7" height="7.5"/>
<rect x="580.8" y="427.2" class="st1" width="121" height="5.4"/>
<rect x="580.8" y="427.2" class="st2" width="121" height="5.4"/>
<rect x="680.9" y="380.8" class="st2" width="16.5" height="45.2"/>
<line class="st2" x1="683.5" y1="425.9" x2="683.5" y2="380.6"/>
<polyline class="st2" points="683.5,423.7 695.4,422.7 695.4,394.1 683.5,392.8 683.5,390.9 695.5,389.7 695.5,383.3 683.5,381.9 
	"/>
<path class="st2" d="M506.7,378l46.6-26.8c0,0,2.4,3.8,4.5,12c2.1,8.2,2.1,13.9,2.1,13.9"/>
<path class="st2" d="M508.9,411.6l-46.6-26.8c0,0-2.4,3.8-4.5,12c-2.1,8.2-2.1,13.9-2.1,13.9"/>
<path class="st2" d="M506.9,531.6l46.6,26.8c0,0,2.4-3.8,4.5-12c2.1-8.2,2.1-13.9,2.1-13.9"/>
<path class="st2" d="M480.5,531.6l-46.6,26.8c0,0-2.4-3.8-4.5-12c-2.1-8.2-2.1-13.9-2.1-13.9"/>
<path class="st2" d="M310.2,521.4l30.3-52.5c0,0-4.3-2.7-13.5-5.1c-9.2-2.3-15.6-2.3-15.6-2.3"/>
<rect x="576.1" y="414.6" class="st1" width="6.1" height="50.6"/>
<rect x="576.1" y="414.6" class="st2" width="6.1" height="50.6"/>
<rect x="576.1" y="496.7" class="st1" width="6.1" height="38.9"/>
<rect x="576.1" y="496.7" class="st2" width="6.1" height="38.9"/>
<path class="st2" d="M582.3,371.5l-21.7,38c0,0,3.1,2,9.7,3.7c6.6,1.7,11.2,1.7,11.2,1.7"/>
<path class="st2" d="M582.3,507.9l-21.7-38c0,0,3.1-2,9.7-3.7c6.6-1.7,11.2-1.7,11.2-1.7"/>
<rect x="587.5" y="433.8" class="st2" width="32.9" height="31.8"/>
<line class="st2" x1="587.4" y1="465.1" x2="620.2" y2="433.9"/>
<line class="st2" x1="587.4" y1="433.5" x2="620.2" y2="464.8"/>
<path class="st1" d="M637.6,403.4c0-5.6,4.6-10.2,10.2-10.2h14.8c1,0,1.8,0.8,1.8,1.8v16.9c0,1-0.8,1.8-1.8,1.8h-14.8
	C642.2,413.6,637.6,409,637.6,403.4 M665,411.8V395c0-1.4-1.1-2.5-2.5-2.5h-14.8c-6,0-10.9,4.9-10.9,10.9c0,6,4.9,10.9,10.9,10.9
	h14.8C663.9,414.3,665,413.2,665,411.8"/>
<path class="st2" d="M637.6,403.4c0-5.6,4.6-10.2,10.2-10.2h14.8c1,0,1.8,0.8,1.8,1.8v16.9c0,1-0.8,1.8-1.8,1.8h-14.8
	C642.2,413.6,637.6,409,637.6,403.4z M665,411.8V395c0-1.4-1.1-2.5-2.5-2.5h-14.8c-6,0-10.9,4.9-10.9,10.9c0,6,4.9,10.9,10.9,10.9
	h14.8C663.9,414.3,665,413.2,665,411.8z"/>
<path class="st2" d="M659.4,396.1v14.6c0,0.1-0.1,0.2-0.2,0.2h-11.1c-4.1,0-7.5-3.4-7.5-7.5c0-4.1,3.4-7.5,7.5-7.5h11.1
	C659.3,395.9,659.4,396,659.4,396.1z"/>
<path class="st1" d="M659.1,396.3v14.3h-11c-3.9,0-7.1-3.2-7.1-7.1c0-3.9,3.2-7.1,7.1-7.1H659.1z M659.8,410.7v-14.6
	c0-0.3-0.2-0.5-0.5-0.5h-11.1c-4.3,0-7.8,3.5-7.8,7.8c0,4.3,3.5,7.8,7.8,7.8h11.1C659.5,411.2,659.8,411,659.8,410.7"/>
<path class="st2" d="M659.1,396.3v14.3h-11c-3.9,0-7.1-3.2-7.1-7.1c0-3.9,3.2-7.1,7.1-7.1H659.1z M659.8,410.7v-14.6
	c0-0.3-0.2-0.5-0.5-0.5h-11.1c-4.3,0-7.8,3.5-7.8,7.8c0,4.3,3.5,7.8,7.8,7.8h11.1C659.5,411.2,659.8,411,659.8,410.7z"/>
<path class="st1" d="M648.1,403.4c0-1.1,0.9-1.9,1.9-1.9c1.1,0,1.9,0.9,1.9,1.9c0,1.1-0.9,1.9-1.9,1.9
	C648.9,405.3,648.1,404.5,648.1,403.4 M652.6,403.4c0-1.4-1.2-2.6-2.6-2.6s-2.6,1.2-2.6,2.6c0,1.5,1.2,2.6,2.6,2.6
	S652.6,404.8,652.6,403.4"/>
<path class="st2" d="M648.1,403.4c0-1.1,0.9-1.9,1.9-1.9c1.1,0,1.9,0.9,1.9,1.9c0,1.1-0.9,1.9-1.9,1.9
	C648.9,405.3,648.1,404.5,648.1,403.4z M652.6,403.4c0-1.4-1.2-2.6-2.6-2.6s-2.6,1.2-2.6,2.6c0,1.5,1.2,2.6,2.6,2.6
	S652.6,404.8,652.6,403.4z"/>
<rect x="652.5" y="398.8" transform="matrix(0.8019 -0.5975 0.5975 0.8019 -108.6358 470.7362)" class="st1" width="5.8" height="0.7"/>
<rect x="652.5" y="398.8" transform="matrix(0.8019 -0.5975 0.5975 0.8019 -108.6358 470.7362)" class="st2" width="5.8" height="0.7"/>
<polygon class="st1" points="658,409 653.3,405.5 652.9,406 657.6,409.5 "/>
<polygon class="st2" points="658,409 653.3,405.5 652.9,406 657.6,409.5 "/>
<path class="st1" d="M665.1,396.4c0-1.6,1.3-2.8,2.8-2.8h3.8c1.6,0,2.8,1.3,2.8,2.8v14.1c0,1.6-1.3,2.8-2.8,2.8h-3.8
	c-1.6,0-2.8-1.3-2.8-2.8V396.4z M675.3,410.4v-14.1c0-1.9-1.6-3.5-3.5-3.5h-3.8c-1.9,0-3.5,1.6-3.5,3.5v14.1c0,1.9,1.6,3.5,3.5,3.5
	h3.8C673.7,414,675.3,412.4,675.3,410.4"/>
<path class="st2" d="M665.1,396.4c0-1.6,1.3-2.8,2.8-2.8h3.8c1.6,0,2.8,1.3,2.8,2.8v14.1c0,1.6-1.3,2.8-2.8,2.8h-3.8
	c-1.6,0-2.8-1.3-2.8-2.8V396.4z M675.3,410.4v-14.1c0-1.9-1.6-3.5-3.5-3.5h-3.8c-1.9,0-3.5,1.6-3.5,3.5v14.1c0,1.9,1.6,3.5,3.5,3.5
	h3.8C673.7,414,675.3,412.4,675.3,410.4z"/>
<path class="st1" d="M668.7,403.4c0-0.6,0.5-1.1,1.1-1.1c0.6,0,1.1,0.5,1.1,1.1c0,0.6-0.5,1.1-1.1,1.1
	C669.2,404.5,668.7,404,668.7,403.4 M671.6,403.4c0-1-0.8-1.8-1.8-1.8c-1,0-1.8,0.8-1.8,1.8c0,1,0.8,1.8,1.8,1.8
	C670.8,405.2,671.6,404.4,671.6,403.4"/>
<path class="st2" d="M668.7,403.4c0-0.6,0.5-1.1,1.1-1.1c0.6,0,1.1,0.5,1.1,1.1c0,0.6-0.5,1.1-1.1,1.1
	C669.2,404.5,668.7,404,668.7,403.4z M671.6,403.4c0-1-0.8-1.8-1.8-1.8c-1,0-1.8,0.8-1.8,1.8c0,1,0.8,1.8,1.8,1.8
	C670.8,405.2,671.6,404.4,671.6,403.4z"/>
<path class="st1" d="M638.7,455.7c5.4,0,9.9-4.4,9.9-9.8v-10.4c0-0.8-0.7-1.5-1.5-1.5h-22.3c-0.8,0-1.5,0.7-1.5,1.5v10.4
	c0,5.4,4.4,9.8,9.9,9.8H638.7z M624.8,433.4h22.3c1.1,0,2.1,0.9,2.1,2v10.4c0,5.7-4.7,10.4-10.4,10.4h-5.6
	c-5.7,0-10.4-4.7-10.4-10.4v-10.4C622.7,434.3,623.6,433.4,624.8,433.4"/>
<path class="st2" d="M638.7,455.7c5.4,0,9.9-4.4,9.9-9.8v-10.4c0-0.8-0.7-1.5-1.5-1.5h-22.3c-0.8,0-1.5,0.7-1.5,1.5v10.4
	c0,5.4,4.4,9.8,9.9,9.8H638.7z M624.8,433.4h22.3c1.1,0,2.1,0.9,2.1,2v10.4c0,5.7-4.7,10.4-10.4,10.4h-5.6
	c-5.7,0-10.4-4.7-10.4-10.4v-10.4C622.7,434.3,623.6,433.4,624.8,433.4z"/>
<path class="st1" d="M638.7,453.2c4.1,0,7.4-3.3,7.4-7.4v-6.1c0-0.7-0.6-1.3-1.3-1.3H627c-0.7,0-1.3,0.6-1.3,1.3v6.1
	c0,4.1,3.3,7.4,7.4,7.4H638.7z M627,437.9h17.8c1,0,1.8,0.8,1.8,1.8v6.1c0,4.4-3.6,7.9-7.9,7.9h-5.6c-4.4,0-8-3.6-8-7.9v-6.1
	C625.2,438.7,626,437.9,627,437.9"/>
<path class="st2" d="M638.7,453.2c4.1,0,7.4-3.3,7.4-7.4v-6.1c0-0.7-0.6-1.3-1.3-1.3H627c-0.7,0-1.3,0.6-1.3,1.3v6.1
	c0,4.1,3.3,7.4,7.4,7.4H638.7z M627,437.9h17.8c1,0,1.8,0.8,1.8,1.8v6.1c0,4.4-3.6,7.9-7.9,7.9h-5.6c-4.4,0-8-3.6-8-7.9v-6.1
	C625.2,438.7,626,437.9,627,437.9z"/>
<path class="st1" d="M635.9,448.1c0.7,0,1.2-0.6,1.2-1.2c0-0.7-0.6-1.2-1.2-1.2c-0.7,0-1.2,0.6-1.2,1.2
	C634.7,447.5,635.2,448.1,635.9,448.1 M635.9,445c1,0,1.8,0.8,1.8,1.8c0,1-0.8,1.8-1.8,1.8c-1,0-1.8-0.8-1.8-1.8
	C634.1,445.8,634.9,445,635.9,445"/>
<path class="st2" d="M635.9,448.1c0.7,0,1.2-0.6,1.2-1.2c0-0.7-0.6-1.2-1.2-1.2c-0.7,0-1.2,0.6-1.2,1.2
	C634.7,447.5,635.2,448.1,635.9,448.1z M635.9,445c1,0,1.8,0.8,1.8,1.8c0,1-0.8,1.8-1.8,1.8c-1,0-1.8-0.8-1.8-1.8
	C634.1,445.8,634.9,445,635.9,445z"/>
<path class="st2" d="M669.8,450.5c-0.8,0-1.4,0.6-1.4,1.4c0,0.8,0.6,1.4,1.4,1.4c0.8,0,1.4-0.6,1.4-1.4
	C671.3,451.2,670.6,450.5,669.8,450.5z"/>
<path class="st2" d="M678.3,525.6c5.1,0,9.3-4.2,9.3-9.3v-69.9c0-5.1-4.2-9.3-9.3-9.3h-14.8c-5.1,0-9.3,4.2-9.3,9.3v69.9
	c0,5.1,4.2,9.3,9.3,9.3H678.3z"/>
<path class="st2" d="M675.2,519.5c5.1,0,9.3-4.2,9.3-9.3v-57.6c0-5.1-4.2-9.3-9.3-9.3h-8.5c-5.1,0-9.3,4.2-9.3,9.3v57.6
	c0,5.1,4.2,9.3,9.3,9.3H675.2z"/>
<path class="st2" d="M676.9,512.1c2.6,0,4.6-2.1,4.6-4.6v-56.1c0-2.6-2.1-4.6-4.6-4.6H665c-2.6,0-4.6,2.1-4.6,4.6v56.1
	c0,2.6,2.1,4.6,4.6,4.6H676.9z"/>
<polygon class="st2" points="651.5,433.7 651.5,433.7 651.5,529.1 690.4,529.1 690.4,433.7 "/>
<path class="st1" d="M613.3,421c0.6,0.6,1.5,1,2.6,1c1.1,0,2-0.3,2.6-1c0.6-0.6,0.9-1.6,0.9-2.8V415c0-1.1-0.2-1.9-0.6-2.5
	c-0.4-0.6-1.1-0.9-1.9-0.9c-0.9,0-1.6,0.4-2,1.1l0.2-3.5h4V407h-6.2l-0.4,8.6h2.3v-0.4c0-1,0.4-1.5,1.2-1.5c0.8,0,1.2,0.5,1.2,1.5
	v3.3c0,1-0.4,1.4-1.2,1.4c-0.8,0-1.2-0.5-1.2-1.4V417h-2.3v1.2C612.3,419.4,612.6,420.4,613.3,421 M610.8,419.7h-2.3v2.1h2.3V419.7z
	 M603.4,410.5v11.3h2.3V407h-1.6c-0.1,0.2-0.2,0.4-0.2,0.6c-0.1,0.1-0.2,0.3-0.3,0.5c-0.1,0.2-0.3,0.3-0.4,0.4
	c-0.2,0.1-0.4,0.2-0.7,0.3c-0.3,0.1-0.6,0.1-0.9,0.1v1.6H603.4z"/>
<path class="st1" d="M616.8,397.4l0,0.1c-0.1,0.5-0.3,0.8-0.6,1c-0.3,0.2-0.8,0.2-1.4,0.2v2.1c0.6,0,1.2,0,1.6-0.1
	c0.5-0.1,0.9-0.2,1.2-0.4c0.3-0.2,0.6-0.4,0.8-0.8c0.2-0.3,0.4-0.7,0.6-1.1c0.1-0.4,0.3-0.9,0.4-1.4l2.5-11h-2.3l-1.1,5.1l-0.5,3.4
	l-0.7-3.5l-1.3-5h-2.3L616.8,397.4z M607.5,400.8l5.8-14.8h-2l-5.8,14.8H607.5z M598.7,400c0.6,0.6,1.5,1,2.6,1s2-0.3,2.6-1
	c0.6-0.6,0.9-1.6,0.9-2.8v-2h-2.3v2.1c0,1-0.4,1.4-1.2,1.4c-0.8,0-1.2-0.5-1.2-1.4v-8c0-1,0.4-1.5,1.2-1.5c0.8,0,1.2,0.5,1.2,1.5
	v1.6h2.3v-1.4c0-1.2-0.3-2.1-0.9-2.8c-0.6-0.6-1.5-1-2.6-1s-2,0.3-2.6,1c-0.6,0.6-0.9,1.6-0.9,2.8v7.7
	C597.9,398.5,598.1,399.4,598.7,400"/>
<path class="st1" d="M620.5,513.9c0.6,0.6,1.5,1,2.6,1c1.1,0,2-0.3,2.6-1c0.6-0.6,0.9-1.6,0.9-2.8v-3.3c0-1.1-0.2-1.9-0.6-2.5
	c-0.4-0.6-1.1-0.9-1.9-0.9c-0.9,0-1.6,0.4-2,1.1l0.2-3.5h4v-2.1H620l-0.4,8.6h2.3V508c0-1,0.4-1.5,1.2-1.5c0.8,0,1.2,0.5,1.2,1.5
	v3.3c0,1-0.4,1.4-1.2,1.4c-0.8,0-1.2-0.5-1.2-1.4v-1.4h-2.3v1.2C619.6,512.3,619.9,513.2,620.5,513.9 M618.1,512.5h-2.3v2.1h2.3
	V512.5z M608.2,513.9c0.6,0.6,1.5,1,2.6,1c1.1,0,2-0.3,2.6-1c0.6-0.6,0.9-1.6,0.9-2.8V510c0-1.6-0.5-2.6-1.6-3.1
	c1.1-0.4,1.6-1.5,1.6-3v-0.4c0-1.2-0.3-2.1-0.9-2.8c-0.6-0.6-1.4-1-2.6-1c-1.1,0-2,0.3-2.6,1c-0.6,0.6-0.9,1.6-0.9,2.8v0.8h2.3v-0.9
	c0-1,0.4-1.5,1.2-1.5c0.4,0,0.7,0.1,0.9,0.4c0.2,0.2,0.3,0.7,0.3,1.3v0.8c0,0.6-0.1,1-0.4,1.2c-0.2,0.2-0.6,0.4-1,0.4h-0.9v2.1h0.8
	c0.5,0,0.9,0.1,1.2,0.4c0.2,0.3,0.4,0.8,0.4,1.4v1.2c0,0.6-0.1,1.1-0.3,1.3c-0.2,0.2-0.5,0.4-0.9,0.4c-0.8,0-1.2-0.5-1.2-1.5v-1.4
	h-2.3v1.2C607.3,512.3,607.6,513.2,608.2,513.9"/>
<path class="st1" d="M637.6,482.5c0-0.5,0.1-0.9,0.3-1.2c0.2-0.2,0.5-0.4,0.9-0.4h1.1v4.6H639c-0.5,0-0.8-0.1-1-0.4
	c-0.2-0.2-0.3-0.6-0.3-1.2V482.5z M637.3,493.7c0.1-0.2,0.1-0.3,0.1-0.4c0-0.1,0-0.3,0.1-0.5c0-0.2,0-0.6,0-0.9v-2.3
	c0-0.7,0.1-1.2,0.4-1.5c0.2-0.3,0.6-0.4,1.2-0.4h0.8v6h2.3v-14.8h-3.5c-1.2,0-2.1,0.3-2.6,0.8c-0.5,0.6-0.8,1.4-0.8,2.6v1.2
	c0,1.5,0.5,2.5,1.5,3c-0.6,0.2-1,0.6-1.2,1.1c-0.2,0.5-0.4,1.2-0.4,2v2.3c0,0.8-0.1,1.4-0.2,1.8H637.3z M630.3,481.6l1.1,7.5h-2.2
	L630.3,481.6z M628.5,493.7l0.4-2.7h2.8l0.4,2.7h2.3l-2.4-14.8h-3.6l-2.4,14.8H628.5z M620.1,493.7v-6.3h2.6v6.3h2.3v-14.8h-2.3v6.3
	h-2.6v-6.3h-2.3v14.8H620.1z M611.1,493.7v-6.3h2.6v6.3h2.3v-14.8h-2.3v6.3h-2.6v-6.3h-2.3v14.8H611.1z M603.7,481.6l1.1,7.5h-2.2
	L603.7,481.6z M601.9,493.7l0.4-2.7h2.8l0.4,2.7h2.3l-2.4-14.8h-3.6l-2.4,14.8H601.9z M593.9,481h1.1c0.4,0,0.7,0.1,0.9,0.4
	c0.2,0.2,0.3,0.6,0.3,1.2v0.8c0,0.6-0.1,1-0.4,1.2c-0.2,0.2-0.6,0.4-1,0.4h-0.9V481z M593.9,487h1c0.5,0,0.9,0.1,1.1,0.4
	c0.2,0.3,0.3,0.7,0.3,1.4v1.3c0,0.5-0.1,0.9-0.3,1.1c-0.2,0.2-0.5,0.3-0.9,0.3h-1.3V487z M595.2,493.7c1.2,0,2-0.3,2.6-0.9
	c0.6-0.6,0.9-1.5,0.9-2.6V489c0-1.7-0.6-2.7-1.7-3.2c1-0.5,1.5-1.5,1.5-3v-0.5c0-1.2-0.3-2-0.8-2.6c-0.6-0.6-1.4-0.8-2.6-0.8h-3.5
	v14.8H595.2z"/>
<path class="st1" d="M512.2,484.6c0.6,0.6,1.5,1,2.6,1c1.1,0,2-0.3,2.6-1c0.6-0.6,0.9-1.6,0.9-2.8v-1.2c0-1.6-0.5-2.6-1.6-3.1
	c1.1-0.4,1.6-1.5,1.6-3v-0.4c0-1.2-0.3-2.1-0.9-2.8c-0.6-0.6-1.4-1-2.6-1c-1.1,0-2,0.3-2.6,1c-0.6,0.6-0.9,1.6-0.9,2.8v0.8h2.3V474
	c0-1,0.4-1.5,1.2-1.5c0.4,0,0.7,0.1,0.9,0.4c0.2,0.2,0.3,0.7,0.3,1.3v0.8c0,0.6-0.1,1-0.4,1.2c-0.2,0.2-0.6,0.4-1,0.4h-0.9v2.1h0.8
	c0.5,0,0.9,0.1,1.2,0.4c0.2,0.3,0.4,0.8,0.4,1.4v1.2c0,0.6-0.1,1.1-0.3,1.3c-0.2,0.2-0.5,0.4-0.9,0.4c-0.8,0-1.2-0.5-1.2-1.5v-1.4
	h-2.3v1.2C511.3,483,511.6,483.9,512.2,484.6 M509.8,483.2h-2.3v2.1h2.3V483.2z M499.9,484.6c0.6,0.6,1.5,1,2.6,1c1.1,0,2-0.3,2.6-1
	c0.6-0.6,0.9-1.6,0.9-2.8v-1.2c0-1.6-0.5-2.6-1.6-3.1c1.1-0.4,1.6-1.5,1.6-3v-0.4c0-1.2-0.3-2.1-0.9-2.8c-0.6-0.6-1.4-1-2.6-1
	c-1.1,0-2,0.3-2.6,1c-0.6,0.6-0.9,1.6-0.9,2.8v0.8h2.3V474c0-1,0.4-1.5,1.2-1.5c0.4,0,0.7,0.1,0.9,0.4c0.2,0.2,0.3,0.7,0.3,1.3v0.8
	c0,0.6-0.1,1-0.4,1.2c-0.2,0.2-0.6,0.4-1,0.4h-0.9v2.1h0.8c0.5,0,0.9,0.1,1.2,0.4c0.2,0.3,0.4,0.8,0.4,1.4v1.2
	c0,0.6-0.1,1.1-0.3,1.3c-0.2,0.2-0.5,0.4-0.9,0.4c-0.8,0-1.2-0.5-1.2-1.5v-1.4H499v1.2C499,483,499.3,483.9,499.9,484.6"/>
<path class="st1" d="M534.1,451.7h1.1c0.4,0,0.7,0.1,0.9,0.3c0.2,0.2,0.3,0.6,0.3,1.1v2.2c0,0.5-0.1,0.9-0.3,1.1
	c-0.2,0.2-0.5,0.3-0.9,0.3h-1.1V451.7z M534.1,464.4v-5.6h1.1c1.1,0,2-0.3,2.6-0.9c0.6-0.6,0.9-1.5,0.9-2.7v-1.9
	c0-1.2-0.3-2.1-0.9-2.7c-0.6-0.6-1.4-0.9-2.6-0.9h-3.4v14.8H534.1z M525.6,453c0-1,0.4-1.5,1.2-1.5c0.8,0,1.2,0.5,1.2,1.5v8
	c0,1-0.4,1.5-1.2,1.5c-0.8,0-1.2-0.5-1.2-1.5V453z M524.2,463.6c0.6,0.6,1.5,1,2.6,1c1.1,0,2-0.3,2.6-1c0.6-0.6,0.9-1.6,0.9-2.7
	v-7.7c0-1.2-0.3-2.1-0.9-2.7c-0.6-0.6-1.5-1-2.6-1c-1.1,0-2,0.3-2.6,1c-0.6,0.6-0.9,1.6-0.9,2.7v7.7
	C523.3,462,523.6,462.9,524.2,463.6 M516.2,461.6c0.1-0.3,0.2-0.7,0.2-1.2l0.4-8.6h2v10.6h-3C516,462.1,516.1,461.8,516.2,461.6
	 M514.9,466.3v-2h4.9v2h2.3v-4.1h-1v-12.7h-6.6l-0.4,10.8c0,0.5-0.1,0.8-0.2,1.1c-0.1,0.3-0.2,0.6-0.4,0.8h-0.9v4.1H514.9z
	 M506.5,464.4l2-6.8l0.9-3.6v10.4h2.3v-14.8h-2.8l-1.9,6.1l-0.8,3.3v-9.4h-2.1v14.8H506.5z M498.5,451.7h1.1c0.4,0,0.7,0.1,0.9,0.3
	c0.2,0.2,0.3,0.6,0.3,1.1v2.2c0,0.5-0.1,0.9-0.3,1.1c-0.2,0.2-0.5,0.3-0.9,0.3h-1.1V451.7z M498.5,464.4v-5.6h1.1
	c1.1,0,2-0.3,2.6-0.9c0.6-0.6,0.9-1.5,0.9-2.7v-1.9c0-1.2-0.3-2.1-0.9-2.7c-0.6-0.6-1.4-0.9-2.6-0.9h-3.4v14.8H498.5z M489.9,453
	c0-1,0.4-1.5,1.2-1.5c0.8,0,1.2,0.5,1.2,1.5v8c0,1-0.4,1.5-1.2,1.5c-0.8,0-1.2-0.5-1.2-1.5V453z M488.5,463.6c0.6,0.6,1.5,1,2.6,1
	c1.1,0,2-0.3,2.6-1c0.6-0.6,0.9-1.6,0.9-2.7v-7.7c0-1.2-0.3-2.1-0.9-2.7c-0.6-0.6-1.5-1-2.6-1c-1.1,0-2,0.3-2.6,1
	c-0.6,0.6-0.9,1.6-0.9,2.7v7.7C487.6,462,487.9,462.9,488.5,463.6 M481.4,464.4v-4.5l0.7-1.4l2.3,5.9h2.4l-3.2-8.2l3.2-6.6h-2.3
	l-3,6.5v-6.5H479v14.8H481.4z"/>
<path class="st2" d="M556.2,861.2v53.9c0,1.7,1.4,3.1,3.1,3.1h94.3c1.7,0,3.1-1.4,3.1-3.1v-53.9H556.2z"/>
<path class="st2" d="M560,861.2l3.5,46.4c0,1.7,1.4,3.1,3.1,3.1h79.6c1.7,0,3.1-1.4,3.1-3.1l3.5-46.4H560z"/>
<path class="st1" d="M418.6,292.7c0-0.6,0.1-1.1,0.3-1.3c0.2-0.3,0.6-0.4,1-0.4c0.4,0,0.7,0.1,1,0.4c0.2,0.3,0.3,0.7,0.3,1.3v0.8
	c0,1-0.4,1.6-1.3,1.6c-0.9,0-1.3-0.5-1.3-1.6V292.7z M418.6,298.9c0-1.1,0.4-1.7,1.3-1.7c0.9,0,1.3,0.6,1.3,1.7v1.4
	c0,0.6-0.1,1.1-0.4,1.3c-0.2,0.2-0.5,0.4-1,0.4c-0.4,0-0.7-0.1-1-0.4c-0.2-0.3-0.3-0.7-0.3-1.3V298.9z M417.2,303
	c0.6,0.6,1.5,1,2.7,1c1.2,0,2.1-0.3,2.7-1c0.6-0.6,0.9-1.6,0.9-2.7v-1.2c0-1.5-0.5-2.5-1.4-3.1c1-0.5,1.4-1.5,1.4-3v-0.5
	c0-1.2-0.3-2.1-0.9-2.7c-0.6-0.6-1.5-1-2.7-1c-1.2,0-2.1,0.3-2.7,1c-0.6,0.6-0.9,1.6-0.9,2.7v0.5c0,1.5,0.5,2.4,1.4,3
	c-1,0.5-1.4,1.6-1.4,3.1v1.2C416.3,301.5,416.6,302.4,417.2,303 M415,301.7h-2.3v2.1h2.3V301.7z M405.1,303c0.6,0.6,1.5,1,2.6,1
	c1.1,0,2-0.3,2.6-1c0.6-0.6,0.9-1.6,0.9-2.8v-1.2c0-1.6-0.5-2.6-1.6-3.1c1.1-0.4,1.6-1.5,1.6-3v-0.4c0-1.2-0.3-2.1-0.9-2.8
	c-0.6-0.6-1.4-1-2.6-1c-1.1,0-2,0.3-2.6,1c-0.6,0.6-0.9,1.6-0.9,2.8v0.8h2.3v-0.9c0-1,0.4-1.5,1.2-1.5c0.4,0,0.7,0.1,0.9,0.4
	c0.2,0.2,0.3,0.7,0.3,1.3v0.8c0,0.6-0.1,1-0.4,1.2c-0.2,0.2-0.6,0.4-1,0.4h-0.9v2.1h0.8c0.5,0,0.9,0.1,1.2,0.4
	c0.2,0.3,0.4,0.8,0.4,1.4v1.2c0,0.6-0.1,1.1-0.3,1.3c-0.2,0.2-0.5,0.4-0.9,0.4c-0.8,0-1.2-0.5-1.2-1.5v-1.4h-2.3v1.2
	C404.1,301.5,404.4,302.4,405.1,303 M399.1,292.6v11.3h2.3V289h-1.6c-0.1,0.2-0.2,0.4-0.2,0.6c-0.1,0.1-0.2,0.3-0.3,0.5
	c-0.1,0.2-0.3,0.3-0.4,0.4c-0.2,0.1-0.4,0.2-0.7,0.3c-0.3,0.1-0.6,0.1-0.9,0.1v1.6H399.1z"/>
<path class="st1" d="M426.1,267.3c0-0.5,0.1-0.9,0.3-1.2c0.2-0.2,0.5-0.4,0.9-0.4h1.1v4.6h-0.9c-0.5,0-0.8-0.1-1-0.4
	c-0.2-0.2-0.3-0.6-0.3-1.2V267.3z M425.8,278.5c0.1-0.2,0.1-0.3,0.1-0.4c0-0.1,0-0.3,0.1-0.5c0-0.2,0-0.6,0-0.9v-2.3
	c0-0.7,0.1-1.2,0.4-1.5c0.2-0.3,0.6-0.4,1.2-0.4h0.8v6h2.3v-14.8h-3.5c-1.2,0-2.1,0.3-2.6,0.8c-0.6,0.6-0.8,1.4-0.8,2.6v1.2
	c0,1.5,0.5,2.5,1.5,3c-0.6,0.2-1,0.6-1.2,1.1c-0.2,0.5-0.4,1.2-0.4,2v2.3c0,0.8-0.1,1.4-0.2,1.8H425.8z M417.2,278.5v-6.3h2.6v6.3
	h2.3v-14.8h-2.3v6.3h-2.6v-6.3h-2.3v14.8H417.2z M407.6,278.5l1.8-5.5l1.8,5.5h2.3l-2.6-7.5l2.4-7.3h-2l-1.8,5.5l-1.8-5.5h-2.3
	l2.4,7.2l-2.6,7.6H407.6z M399.7,275.1l0,0.1c-0.1,0.5-0.3,0.8-0.6,1c-0.3,0.2-0.8,0.2-1.4,0.2v2.1c0.6,0,1.2,0,1.6-0.1
	c0.5-0.1,0.9-0.2,1.2-0.4c0.3-0.2,0.6-0.4,0.8-0.8c0.2-0.3,0.4-0.7,0.6-1.1c0.1-0.4,0.3-0.9,0.4-1.4l2.5-11h-2.3l-1.1,5.1l-0.5,3.4
	l-0.7-3.5l-1.3-5h-2.3L399.7,275.1z M390.7,278.5v-4.5l0.7-1.4l2.3,5.9h2.4l-3.2-8.2l3.2-6.6h-2.3l-3,6.5v-6.5h-2.3v14.8H390.7z"/>
<path class="st1" d="M452.4,124.3c1.2,0,2-0.2,2.5-0.7c0.5-0.5,0.8-1.3,0.8-2.5v-8.3c0-1.2-0.3-2-0.8-2.5c-0.5-0.5-1.3-0.7-2.5-0.7
	h-0.7v2h0.6c0.4,0,0.7,0.1,0.8,0.3c0.2,0.2,0.3,0.5,0.3,1v8.2c0,0.5-0.1,0.8-0.3,1c-0.2,0.2-0.4,0.3-0.8,0.3h-0.6v2H452.4z
	 M447.8,113.9v5.6h-2.3L447.8,113.9z M447.8,121.6v2.7h2.3v-2.7h1.1v-2.1h-1.1v-10h-2.5l-4.2,10v2.1H447.8z M442.2,122.2h-2.3v2.1
	h2.3V122.2z M435.5,113.9v5.6h-2.3L435.5,113.9z M435.5,121.6v2.7h2.3v-2.7h1.1v-2.1h-1.1v-10h-2.5l-4.2,10v2.1H435.5z M427.1,123.6
	c0.5,0.5,1.3,0.7,2.5,0.7h0.7v-2h-0.6c-0.4,0-0.7-0.1-0.8-0.3c-0.2-0.2-0.2-0.5-0.2-1v-8.2c0-0.5,0.1-0.8,0.2-1
	c0.2-0.2,0.4-0.3,0.8-0.3h0.6v-2h-0.7c-1.2,0-2,0.2-2.5,0.7c-0.5,0.5-0.8,1.3-0.8,2.5v8.3C426.4,122.2,426.6,123.1,427.1,123.6
	 M416.6,113.1c0-0.6,0.1-1.1,0.3-1.3c0.2-0.3,0.6-0.4,1-0.4c0.4,0,0.7,0.1,1,0.4c0.2,0.3,0.3,0.7,0.3,1.3v0.8c0,1-0.4,1.6-1.3,1.6
	c-0.9,0-1.3-0.5-1.3-1.6V113.1z M416.6,119.3c0-1.1,0.4-1.7,1.3-1.7c0.9,0,1.3,0.6,1.3,1.7v1.4c0,0.6-0.1,1.1-0.4,1.3
	c-0.2,0.2-0.5,0.4-1,0.4c-0.4,0-0.7-0.1-1-0.4c-0.2-0.3-0.3-0.7-0.3-1.3V119.3z M415.2,123.5c0.6,0.6,1.5,1,2.7,1
	c1.2,0,2.1-0.3,2.7-1c0.6-0.6,0.9-1.6,0.9-2.7v-1.2c0-1.5-0.5-2.5-1.4-3.1c1-0.5,1.4-1.5,1.4-3V113c0-1.2-0.3-2.1-0.9-2.7
	c-0.6-0.6-1.5-1-2.7-1c-1.2,0-2.1,0.3-2.7,1c-0.6,0.6-0.9,1.6-0.9,2.7v0.5c0,1.5,0.5,2.4,1.4,3c-1,0.5-1.4,1.6-1.4,3.1v1.2
	C414.3,121.9,414.6,122.8,415.2,123.5 M413,122.2h-2.3v2.1h2.3V122.2z M404.3,113.1c0-0.6,0.1-1.1,0.3-1.3c0.2-0.3,0.6-0.4,1-0.4
	c0.4,0,0.7,0.1,1,0.4c0.2,0.3,0.3,0.7,0.3,1.3v0.8c0,1-0.4,1.6-1.3,1.6c-0.9,0-1.3-0.5-1.3-1.6V113.1z M404.3,119.3
	c0-1.1,0.4-1.7,1.3-1.7c0.9,0,1.3,0.6,1.3,1.7v1.4c0,0.6-0.1,1.1-0.4,1.3c-0.2,0.2-0.5,0.4-1,0.4c-0.4,0-0.7-0.1-1-0.4
	c-0.2-0.3-0.3-0.7-0.3-1.3V119.3z M403,123.5c0.6,0.6,1.5,1,2.7,1c1.2,0,2.1-0.3,2.7-1c0.6-0.6,0.9-1.6,0.9-2.7v-1.2
	c0-1.5-0.5-2.5-1.4-3.1c1-0.5,1.4-1.5,1.4-3V113c0-1.2-0.3-2.1-0.9-2.7c-0.6-0.6-1.5-1-2.7-1c-1.2,0-2.1,0.3-2.7,1
	c-0.6,0.6-0.9,1.6-0.9,2.7v0.5c0,1.5,0.5,2.4,1.4,3c-1,0.5-1.4,1.6-1.4,3.1v1.2C402,121.9,402.3,122.8,403,123.5"/>
<path class="st1" d="M420.6,699.4c0-1,0.4-1.5,1.2-1.5c0.8,0,1.2,0.5,1.2,1.5v8c0,1-0.4,1.5-1.2,1.5c-0.8,0-1.2-0.5-1.2-1.5V699.4z
	 M419.2,710c0.6,0.6,1.5,1,2.6,1c1.1,0,2-0.3,2.6-1c0.6-0.6,0.9-1.6,0.9-2.7v-7.7c0-1.2-0.3-2.1-0.9-2.7c-0.6-0.6-1.5-1-2.6-1
	c-1.1,0-2,0.3-2.6,1c-0.6,0.6-0.9,1.6-0.9,2.7v7.7C418.3,708.4,418.6,709.3,419.2,710 M416.9,708.7h-2.3v2.1h2.3V708.7z
	 M408.3,699.4c0-1,0.4-1.4,1.2-1.4c0.8,0,1.2,0.5,1.2,1.4v2.7c0,1-0.4,1.5-1.2,1.5c-0.8,0-1.2-0.5-1.2-1.5V699.4z M406.6,704.8
	c0.4,0.6,1.1,0.9,1.9,0.9c1,0,1.8-0.4,2.2-1.3v2.7c0,0.7-0.1,1.1-0.3,1.4c-0.2,0.3-0.5,0.4-1,0.4c-0.8,0-1.2-0.5-1.2-1.5v-0.5H406
	v0.4c0,1.2,0.3,2.1,0.9,2.8c0.6,0.6,1.4,1,2.6,1c2.4,0,3.6-1.3,3.6-3.8v-7.6c0-1.2-0.3-2.1-0.9-2.7s-1.5-1-2.6-1c-1.1,0-2,0.3-2.6,1
	c-0.6,0.6-0.9,1.6-0.9,2.7v2.7C405.9,703.3,406.2,704.2,406.6,704.8 M401,699.5v11.3h2.3V696h-1.6c-0.1,0.2-0.2,0.4-0.2,0.6
	c-0.1,0.1-0.2,0.3-0.3,0.5c-0.1,0.2-0.3,0.3-0.4,0.4c-0.2,0.1-0.4,0.2-0.7,0.3c-0.3,0.1-0.6,0.1-0.9,0.1v1.6H401z"/>
<path class="st1" d="M464.2,673.3l1.1,7.5h-2.2L464.2,673.3z M462.4,685.4l0.4-2.7h2.8l0.4,2.7h2.3l-2.4-14.8h-3.6l-2.4,14.8H462.4z
	 M454.9,672.7v12.7h2.3v-12.7h2.4v-2.1h-7.2v2.1H454.9z M448.1,673.3l1.1,7.5H447L448.1,673.3z M446.3,685.4l0.4-2.7h2.8l0.4,2.7
	h2.3l-2.4-14.8h-3.6l-2.4,14.8H446.3z M437.9,685.4v-6.3h2.6v6.3h2.3v-14.8h-2.3v6.3h-2.6v-6.3h-2.3v14.8H437.9z M426.1,685.4V675
	l1.7,10.4h2.2l1.6-10.6v10.6h2.3v-14.8h-3.3l-1.6,10.5l-1.7-10.5h-3.2v14.8H426.1z M417.9,674c0-1,0.4-1.5,1.2-1.5
	c0.8,0,1.2,0.5,1.2,1.5v8c0,1-0.4,1.5-1.2,1.5c-0.8,0-1.2-0.5-1.2-1.5V674z M416.5,684.6c0.6,0.6,1.5,1,2.6,1c1.1,0,2-0.3,2.6-1
	c0.6-0.6,0.9-1.6,0.9-2.7v-7.7c0-1.2-0.3-2.1-0.9-2.7c-0.6-0.6-1.5-1-2.6-1c-1.1,0-2,0.3-2.6,1c-0.6,0.6-0.9,1.6-0.9,2.7v7.7
	C415.6,683.1,415.9,684,416.5,684.6 M409.3,685.4v-4.5l0.7-1.4l2.3,5.9h2.4l-3.2-8.2l3.2-6.6h-2.3l-3,6.5v-6.5H407v14.8H409.3z
	 M397.4,674.3c0-0.5,0.1-0.9,0.3-1.2c0.2-0.2,0.5-0.4,0.9-0.4h1.1v4.6h-0.9c-0.5,0-0.8-0.1-1-0.4c-0.2-0.2-0.3-0.6-0.3-1.2V674.3z
	 M397.2,685.4c0.1-0.2,0.1-0.3,0.1-0.4c0-0.1,0-0.3,0.1-0.5c0-0.2,0-0.6,0-0.9v-2.3c0-0.7,0.1-1.2,0.4-1.5c0.2-0.3,0.6-0.4,1.2-0.4
	h0.8v6h2.3v-14.8h-3.5c-1.2,0-2.1,0.3-2.6,0.8c-0.5,0.6-0.8,1.4-0.8,2.6v1.2c0,1.5,0.5,2.5,1.5,3c-0.6,0.2-1,0.6-1.2,1.1
	c-0.2,0.5-0.4,1.2-0.4,2v2.3c0,0.8-0.1,1.4-0.2,1.8H397.2z M390.2,673.3l1.1,7.5h-2.2L390.2,673.3z M388.4,685.4l0.4-2.7h2.8
	l0.4,2.7h2.3l-2.4-14.8h-3.6l-2.4,14.8H388.4z M376.9,685.4c1.2,0,2-0.3,2.5-0.9c0.5-0.6,0.8-1.5,0.9-2.9l0.3-9h2v12.7h2.3v-14.8
	h-6.7l-0.3,11.2c0,0.3,0,0.6-0.1,0.8c0,0.2-0.1,0.4-0.3,0.5c-0.1,0.1-0.3,0.2-0.4,0.2c-0.2,0-0.4,0-0.7,0v2.1H376.9z M370.5,685.4
	l2-6.8l0.9-3.6v10.4h2.3v-14.8h-2.8l-1.9,6.1l-0.8,3.3v-9.4h-2.1v14.8H370.5z M357,685.4l2.1-6.6l0.6,1.1v5.4h2.3V680l0.6-1.1
	l2.1,6.5h2.3l-2.9-8.8l2.9-6h-2.3l-2.8,6v-6h-2.3v6l-2.8-6h-2.3l2.9,6.1l-2.9,8.7H357z"/>
<path class="st1" d="M613.6,290.3c0-1,0.4-1.4,1.2-1.4c0.8,0,1.2,0.5,1.2,1.4v2.7c0,1-0.4,1.5-1.2,1.5c-0.8,0-1.2-0.5-1.2-1.5V290.3
	z M612,295.6c0.4,0.6,1.1,0.9,1.9,0.9c1,0,1.8-0.4,2.2-1.3v2.7c0,0.7-0.1,1.1-0.3,1.4c-0.2,0.3-0.5,0.4-1,0.4
	c-0.8,0-1.2-0.5-1.2-1.5v-0.5h-2.2v0.4c0,1.2,0.3,2.1,0.9,2.8c0.6,0.6,1.4,1,2.6,1c2.4,0,3.6-1.3,3.6-3.8v-7.6
	c0-1.2-0.3-2.1-0.9-2.7c-0.6-0.6-1.5-1-2.6-1c-1.1,0-2,0.3-2.6,1c-0.6,0.6-0.9,1.6-0.9,2.7v2.7C611.3,294.2,611.5,295,612,295.6
	 M610,299.5h-2.3v2.1h2.3V299.5z M602.5,290.4v11.3h2.3v-14.8h-1.6c-0.1,0.2-0.2,0.4-0.2,0.6c-0.1,0.1-0.2,0.3-0.3,0.5
	c-0.1,0.2-0.3,0.3-0.4,0.4c-0.2,0.1-0.4,0.2-0.6,0.3c-0.3,0.1-0.6,0.1-0.9,0.1v1.6H602.5z M594.1,290.4v11.3h2.3v-14.8h-1.6
	c-0.1,0.2-0.2,0.4-0.2,0.6c-0.1,0.1-0.2,0.3-0.3,0.5c-0.1,0.2-0.3,0.3-0.4,0.4c-0.2,0.1-0.4,0.2-0.7,0.3c-0.3,0.1-0.6,0.1-0.9,0.1
	v1.6H594.1z"/>
<path class="st1" d="M657.3,264.1l1.1,7.5h-2.2L657.3,264.1z M655.5,276.3l0.4-2.7h2.8l0.4,2.7h2.3l-2.4-14.8h-3.6l-2.4,14.8H655.5z
	 M648,263.6v12.7h2.3v-12.7h2.4v-2.1h-7.2v2.1H648z M641.2,264.1l1.1,7.5h-2.2L641.2,264.1z M639.4,276.3l0.4-2.7h2.8l0.4,2.7h2.3
	l-2.4-14.8h-3.6l-2.4,14.8H639.4z M631,276.3v-6.3h2.6v6.3h2.3v-14.8h-2.3v6.3H631v-6.3h-2.3v14.8H631z M619.2,276.3v-10.4l1.7,10.4
	h2.2l1.6-10.6v10.6h2.3v-14.8h-3.3l-1.6,10.5l-1.7-10.5h-3.2v14.8H619.2z M611,264.9c0-1,0.4-1.5,1.2-1.5c0.8,0,1.2,0.5,1.2,1.5v8
	c0,1-0.4,1.5-1.2,1.5c-0.8,0-1.2-0.5-1.2-1.5V264.9z M609.6,275.5c0.6,0.6,1.5,1,2.6,1c1.1,0,2-0.3,2.6-1c0.6-0.6,0.9-1.6,0.9-2.7
	V265c0-1.2-0.3-2.1-0.9-2.7c-0.6-0.6-1.5-1-2.6-1c-1.1,0-2,0.3-2.6,1c-0.6,0.6-0.9,1.6-0.9,2.7v7.7
	C608.6,273.9,609,274.8,609.6,275.5 M602.4,276.3v-4.5l0.7-1.4l2.3,5.9h2.4l-3.2-8.2l3.2-6.6h-2.3l-3,6.5v-6.5h-2.3v14.8H602.4z
	 M590.5,265.1c0-0.5,0.1-0.9,0.3-1.2c0.2-0.2,0.5-0.4,0.9-0.4h1.1v4.6h-0.9c-0.5,0-0.8-0.1-1-0.4c-0.2-0.2-0.3-0.6-0.3-1.2V265.1z
	 M590.3,276.3c0.1-0.2,0.1-0.3,0.1-0.4c0-0.1,0-0.3,0.1-0.5c0-0.2,0-0.6,0-0.9v-2.3c0-0.7,0.1-1.2,0.4-1.5c0.2-0.3,0.6-0.4,1.2-0.4
	h0.8v6h2.3v-14.8h-3.5c-1.2,0-2.1,0.3-2.6,0.8c-0.5,0.6-0.8,1.4-0.8,2.6v1.2c0,1.5,0.5,2.5,1.5,3c-0.6,0.2-1,0.6-1.2,1.1
	c-0.2,0.5-0.4,1.2-0.4,2v2.3c0,0.8-0.1,1.4-0.2,1.8H590.3z M583.3,264.1l1.1,7.5h-2.2L583.3,264.1z M581.5,276.3l0.4-2.7h2.8
	l0.4,2.7h2.3l-2.4-14.8h-3.6l-2.4,14.8H581.5z M570,276.3c1.2,0,2-0.3,2.5-0.9c0.5-0.6,0.8-1.5,0.9-2.9l0.3-9h2v12.7h2.3v-14.8h-6.7
	l-0.3,11.2c0,0.3,0,0.6-0.1,0.8c0,0.2-0.1,0.4-0.3,0.5c-0.1,0.1-0.3,0.2-0.4,0.2c-0.2,0-0.4,0-0.7,0v2.1H570z M563.6,276.3l2-6.8
	l0.9-3.6v10.4h2.3v-14.8H566l-1.9,6.1l-0.8,3.3v-9.4h-2.1v14.8H563.6z M550.1,276.3l2.1-6.6l0.6,1.1v5.4h2.3v-5.4l0.6-1.1l2.1,6.5
	h2.3l-2.9-8.8l2.9-6h-2.3l-2.8,6v-6h-2.3v6l-2.8-6h-2.3l2.9,6.1l-2.9,8.7H550.1z"/>
<path class="st1" d="M616.2,757.2c0-0.6,0.1-1.1,0.3-1.3c0.2-0.3,0.6-0.4,1-0.4c0.4,0,0.7,0.1,1,0.4c0.2,0.3,0.3,0.7,0.3,1.3v0.8
	c0,1-0.4,1.6-1.3,1.6c-0.9,0-1.3-0.5-1.3-1.6V757.2z M616.2,763.4c0-1.1,0.4-1.7,1.3-1.7c0.9,0,1.3,0.6,1.3,1.7v1.4
	c0,0.6-0.1,1.1-0.4,1.3c-0.2,0.2-0.5,0.4-1,0.4c-0.4,0-0.7-0.1-1-0.4c-0.2-0.3-0.3-0.7-0.3-1.3V763.4z M614.8,767.6
	c0.6,0.6,1.5,1,2.7,1c1.2,0,2.1-0.3,2.7-1c0.6-0.6,0.9-1.6,0.9-2.7v-1.2c0-1.5-0.5-2.5-1.4-3.1c1-0.5,1.4-1.5,1.4-3v-0.5
	c0-1.2-0.3-2.1-0.9-2.7c-0.6-0.6-1.5-1-2.7-1c-1.2,0-2.1,0.3-2.7,1c-0.6,0.6-0.9,1.6-0.9,2.7v0.5c0,1.5,0.5,2.4,1.4,3
	c-1,0.5-1.4,1.6-1.4,3.1v1.2C613.8,766,614.1,766.9,614.8,767.6 M612.5,766.3h-2.3v2.1h2.3V766.3z M603.9,757.2
	c0-0.6,0.1-1.1,0.3-1.3c0.2-0.3,0.6-0.4,1-0.4c0.4,0,0.7,0.1,1,0.4c0.2,0.3,0.3,0.7,0.3,1.3v0.8c0,1-0.4,1.6-1.3,1.6
	c-0.9,0-1.3-0.5-1.3-1.6V757.2z M603.9,763.4c0-1.1,0.4-1.7,1.3-1.7c0.9,0,1.3,0.6,1.3,1.7v1.4c0,0.6-0.1,1.1-0.4,1.3
	c-0.2,0.2-0.5,0.4-1,0.4c-0.4,0-0.7-0.1-1-0.4c-0.2-0.3-0.3-0.7-0.3-1.3V763.4z M602.5,767.6c0.6,0.6,1.5,1,2.7,1
	c1.2,0,2.1-0.3,2.7-1c0.6-0.6,0.9-1.6,0.9-2.7v-1.2c0-1.5-0.5-2.5-1.4-3.1c1-0.5,1.4-1.5,1.4-3v-0.5c0-1.2-0.3-2.1-0.9-2.7
	c-0.6-0.6-1.5-1-2.7-1c-1.2,0-2.1,0.3-2.7,1c-0.6,0.6-0.9,1.6-0.9,2.7v0.5c0,1.5,0.5,2.4,1.4,3c-1,0.5-1.4,1.6-1.4,3.1v1.2
	C601.5,766,601.9,766.9,602.5,767.6 M596.7,757.1v11.3h2.3v-14.8h-1.6c-0.1,0.2-0.2,0.4-0.2,0.6c-0.1,0.1-0.2,0.3-0.3,0.5
	c-0.1,0.2-0.3,0.3-0.4,0.4s-0.4,0.2-0.7,0.3c-0.3,0.1-0.6,0.1-0.9,0.1v1.6H596.7z"/>
<path class="st1" d="M659.9,730.9l1.1,7.5h-2.2L659.9,730.9z M658.1,743l0.4-2.7h2.8l0.4,2.7h2.3l-2.4-14.8h-3.6l-2.4,14.8H658.1z
	 M650.6,730.3V743h2.3v-12.7h2.4v-2.1h-7.2v2.1H650.6z M643.8,730.9l1.1,7.5h-2.2L643.8,730.9z M641.9,743l0.4-2.7h2.8l0.4,2.7h2.3
	l-2.4-14.8H642l-2.4,14.8H641.9z M633.5,743v-6.3h2.6v6.3h2.3v-14.8h-2.3v6.3h-2.6v-6.3h-2.3V743H633.5z M621.8,743v-10.4l1.7,10.4
	h2.2l1.6-10.6V743h2.3v-14.8h-3.3l-1.6,10.5l-1.7-10.5h-3.2V743H621.8z M613.5,731.6c0-1,0.4-1.5,1.2-1.5c0.8,0,1.2,0.5,1.2,1.5v8
	c0,1-0.4,1.5-1.2,1.5c-0.8,0-1.2-0.5-1.2-1.5V731.6z M612.1,742.2c0.6,0.6,1.5,1,2.6,1c1.1,0,2-0.3,2.6-1c0.6-0.6,0.9-1.6,0.9-2.7
	v-7.7c0-1.2-0.3-2.1-0.9-2.7c-0.6-0.6-1.5-1-2.6-1c-1.1,0-2,0.3-2.6,1c-0.6,0.6-0.9,1.6-0.9,2.7v7.7
	C611.2,740.7,611.5,741.6,612.1,742.2 M605,743v-4.5l0.7-1.4l2.3,5.9h2.4l-3.2-8.2l3.2-6.6H608l-3,6.5v-6.5h-2.3V743H605z
	 M593.1,731.9c0-0.5,0.1-0.9,0.3-1.2c0.2-0.2,0.5-0.4,0.9-0.4h1.1v4.6h-0.9c-0.5,0-0.8-0.1-1-0.4c-0.2-0.2-0.3-0.6-0.3-1.2V731.9z
	 M592.8,743c0.1-0.2,0.1-0.3,0.1-0.4c0-0.1,0-0.3,0.1-0.5c0-0.2,0-0.6,0-0.9v-2.3c0-0.7,0.1-1.2,0.4-1.5c0.2-0.3,0.6-0.4,1.2-0.4
	h0.8v6h2.3v-14.8h-3.5c-1.2,0-2.1,0.3-2.6,0.8c-0.5,0.6-0.8,1.4-0.8,2.6v1.2c0,1.5,0.5,2.5,1.5,3c-0.6,0.2-1,0.6-1.2,1.1
	c-0.2,0.5-0.4,1.2-0.4,2v2.3c0,0.8-0.1,1.4-0.2,1.8H592.8z M585.8,730.9l1.1,7.5h-2.2L585.8,730.9z M584,743l0.4-2.7h2.8l0.4,2.7
	h2.3l-2.4-14.8h-3.6l-2.4,14.8H584z M572.5,743c1.2,0,2-0.3,2.5-0.9c0.5-0.6,0.8-1.5,0.9-2.9l0.3-9h2V743h2.3v-14.8h-6.7l-0.3,11.2
	c0,0.3,0,0.6-0.1,0.8c0,0.2-0.1,0.4-0.3,0.5c-0.1,0.1-0.3,0.2-0.4,0.2c-0.2,0-0.4,0-0.7,0v2.1H572.5z M566.2,743l2-6.8l0.9-3.6V743
	h2.3v-14.8h-2.8l-1.9,6.1l-0.8,3.3v-9.4h-2.1V743H566.2z M552.7,743l2.1-6.6l0.6,1.1v5.4h2.3v-5.4l0.6-1.1l2.1,6.5h2.3l-2.9-8.8
	l2.9-6h-2.3l-2.8,6v-6h-2.3v6l-2.8-6h-2.3l2.9,6.1l-2.9,8.7H552.7z"/>
<path class="st1" d="M633.4,686.9l-7.8,29h5.3l7.8-29.2v-4.6h-15.9v4.8H633.4z M619.5,711h-5.3v4.9h5.3V711z M596.9,714.1
	c1.4,1.5,3.4,2.2,6,2.2c2.6,0,4.6-0.7,5.9-2.2c1.3-1.5,2-3.6,2-6.3v-7.6c0-2.5-0.5-4.4-1.5-5.7c-1-1.3-2.4-2-4.4-2
	c-2.1,0-3.6,0.8-4.6,2.5l0.4-8.1h9.2v-4.8h-14.2l-1,19.6h5.3v-1c0-2.2,0.9-3.3,2.7-3.3c1.8,0,2.7,1.1,2.7,3.3v7.4
	c0,2.2-0.9,3.3-2.7,3.3c-1.8,0-2.7-1.1-2.7-3.3V705h-5.3v2.8C594.8,710.5,595.5,712.6,596.9,714.1 M580.5,690.4c0-1.4,0.3-2.4,0.8-3
	c0.5-0.6,1.3-0.9,2.2-0.9c0.9,0,1.7,0.3,2.2,0.9s0.8,1.6,0.8,3v1.9c0,2.4-1,3.6-3,3.6c-2,0-3-1.2-3-3.6V690.4z M580.5,704.5
	c0-2.5,1-3.8,3-3.8c2,0,3,1.3,3,3.8v3.1c0,1.4-0.3,2.4-0.8,3c-0.5,0.6-1.2,0.9-2.2,0.9c-0.9,0-1.7-0.3-2.2-0.9
	c-0.5-0.6-0.8-1.6-0.8-3V704.5z M577.4,714.1c1.4,1.5,3.5,2.2,6.2,2.2c2.7,0,4.7-0.7,6.2-2.2c1.4-1.5,2.1-3.6,2.1-6.3v-2.7
	c0-3.5-1.1-5.8-3.3-7.1c2.2-1.2,3.3-3.5,3.3-6.8v-1.1c0-2.7-0.7-4.8-2.1-6.3c-1.4-1.5-3.5-2.2-6.2-2.2c-2.7,0-4.7,0.7-6.2,2.2
	c-1.4,1.5-2.1,3.6-2.1,6.3v1.1c0,3.3,1.1,5.6,3.3,6.8c-2.2,1.2-3.3,3.6-3.3,7.1v2.7C575.2,710.5,575.9,712.6,577.4,714.1"/>
<ellipse transform="matrix(0.3827 -0.9239 0.9239 0.3827 -218.8887 957.6142)" class="st2" cx="607.1" cy="642.6" rx="29.6" ry="29.6"/>
<path class="st1" d="M611.3,656.3v-7.9l1.3-2.3l3.9,10.2h4.1l-5.6-14.2l5.6-11.4h-4l-5.3,11.2v-11.2h-4v25.6H611.3z M594.2,654.9
	c1.1,1.1,2.6,1.7,4.6,1.7c2,0,3.4-0.6,4.5-1.7c1-1.1,1.5-2.7,1.5-4.8v-2c0-2.8-0.9-4.6-2.8-5.4c1.9-0.8,2.8-2.5,2.8-5.3v-0.7
	c0-2.1-0.5-3.6-1.5-4.8c-1-1.1-2.5-1.7-4.5-1.7c-2,0-3.5,0.6-4.6,1.7c-1.1,1.1-1.6,2.7-1.6,4.8v1.4h4v-1.6c0-1.7,0.7-2.5,2.1-2.5
	c0.7,0,1.2,0.2,1.6,0.6c0.3,0.4,0.5,1.2,0.5,2.3v1.4c0,1-0.2,1.7-0.6,2.1c-0.4,0.4-1,0.6-1.8,0.6h-1.6v3.7h1.4c0.9,0,1.6,0.3,2,0.8
	c0.4,0.5,0.6,1.3,0.6,2.5v2c0,1.1-0.2,1.8-0.5,2.3c-0.3,0.4-0.9,0.6-1.6,0.6c-1.4,0-2.1-0.8-2.1-2.5v-2.4h-4v2.1
	C592.5,652.2,593.1,653.8,594.2,654.9"/>
<path class="st1" d="M432.8,903.8c1.2,0,2-0.2,2.5-0.7c0.5-0.5,0.8-1.3,0.8-2.5v-8.3c0-1.2-0.3-2-0.8-2.5c-0.5-0.5-1.3-0.7-2.5-0.7
	h-0.7v2h0.6c0.4,0,0.7,0.1,0.8,0.3c0.2,0.2,0.3,0.5,0.3,1v8.2c0,0.5-0.1,0.8-0.3,1c-0.2,0.2-0.4,0.3-0.8,0.3h-0.6v2H432.8z
	 M431,903.8v-2.1h-4.4c0-0.1,0-0.2,0-0.3c0-0.3,0.1-0.7,0.3-1c0.2-0.3,0.4-0.7,0.7-1c0.3-0.3,0.6-0.7,0.9-1c0.3-0.4,0.7-0.7,1-1.1
	c0.3-0.4,0.6-0.8,0.9-1.3c0.3-0.4,0.5-1,0.7-1.5c0.2-0.6,0.3-1.2,0.3-1.8c0-1.2-0.3-2.1-0.9-2.8c-0.6-0.6-1.4-1-2.6-1
	c-1.1,0-2,0.3-2.6,1c-0.6,0.6-0.9,1.6-0.9,2.8v1.4h2.2v-1.6c0-1,0.4-1.5,1.2-1.5c0.4,0,0.7,0.1,0.9,0.4c0.2,0.2,0.3,0.7,0.3,1.3
	c0,0.6-0.1,1.1-0.3,1.6c-0.2,0.5-0.4,1-0.7,1.3c-0.3,0.4-0.6,0.8-0.9,1.1c-0.3,0.4-0.7,0.7-1,1.1c-0.3,0.4-0.6,0.7-0.9,1.1
	c-0.3,0.4-0.5,0.8-0.7,1.4c-0.2,0.5-0.3,1.1-0.3,1.7v1.8H431z M422.7,901.7h-2.3v2.1h2.3V901.7z M418.7,903.8v-2.1h-4.4
	c0-0.1,0-0.2,0-0.3c0-0.3,0.1-0.7,0.3-1c0.2-0.3,0.4-0.7,0.7-1c0.3-0.3,0.6-0.7,0.9-1c0.3-0.4,0.7-0.7,1-1.1
	c0.3-0.4,0.6-0.8,0.9-1.3c0.3-0.4,0.5-1,0.7-1.5c0.2-0.6,0.3-1.2,0.3-1.8c0-1.2-0.3-2.1-0.9-2.8c-0.6-0.6-1.4-1-2.6-1
	c-1.1,0-2,0.3-2.6,1c-0.6,0.6-0.9,1.6-0.9,2.8v1.4h2.2v-1.6c0-1,0.4-1.5,1.2-1.5c0.4,0,0.7,0.1,0.9,0.4c0.2,0.2,0.3,0.7,0.3,1.3
	c0,0.6-0.1,1.1-0.3,1.6c-0.2,0.5-0.4,1-0.7,1.3c-0.3,0.4-0.6,0.8-0.9,1.1c-0.3,0.4-0.7,0.7-1,1.1c-0.3,0.4-0.6,0.7-0.9,1.1
	c-0.3,0.4-0.5,0.8-0.7,1.4c-0.2,0.5-0.3,1.1-0.3,1.7v1.8H418.7z M407.6,903.1c0.5,0.5,1.3,0.7,2.5,0.7h0.7v-2h-0.6
	c-0.4,0-0.7-0.1-0.8-0.3c-0.2-0.2-0.2-0.5-0.2-1v-8.2c0-0.5,0.1-0.8,0.2-1c0.2-0.2,0.4-0.3,0.8-0.3h0.6v-2h-0.7
	c-1.2,0-2,0.2-2.5,0.7c-0.5,0.5-0.8,1.3-0.8,2.5v8.3C406.8,901.8,407.1,902.6,407.6,903.1 M395.8,903c0.6,0.6,1.5,1,2.6,1
	c1.1,0,2-0.3,2.6-1c0.6-0.6,0.9-1.6,0.9-2.8v-1.2c0-1.6-0.5-2.6-1.6-3.1c1.1-0.4,1.6-1.5,1.6-3v-0.4c0-1.2-0.3-2.1-0.9-2.8
	c-0.6-0.6-1.5-1-2.6-1c-1.1,0-2,0.3-2.6,1c-0.6,0.6-0.9,1.6-0.9,2.8v0.8h2.3v-0.9c0-1,0.4-1.5,1.2-1.5c0.4,0,0.7,0.1,0.9,0.4
	c0.2,0.2,0.3,0.7,0.3,1.3v0.8c0,0.6-0.1,1-0.4,1.2c-0.2,0.2-0.6,0.4-1,0.4h-0.9v2.1h0.8c0.5,0,0.9,0.1,1.2,0.4
	c0.2,0.3,0.4,0.8,0.4,1.4v1.2c0,0.6-0.1,1.1-0.3,1.3c-0.2,0.2-0.5,0.4-0.9,0.4c-0.8,0-1.2-0.5-1.2-1.5v-1.4h-2.3v1.2
	C394.9,901.5,395.2,902.4,395.8,903 M393.4,901.7h-2.3v2.1h2.3V901.7z M386.7,893.5v5.6h-2.3L386.7,893.5z M386.7,901.1v2.7h2.3
	v-2.7h1.1V899H389v-10h-2.5l-4.2,10v2.1H386.7z"/>
<path class="st1" d="M414.2,494.6c0.6,0.6,1.5,1,2.6,1c1.1,0,2-0.3,2.6-1c0.6-0.6,0.9-1.6,0.9-2.8v-1.2c0-1.6-0.5-2.6-1.6-3.1
	c1.1-0.4,1.6-1.5,1.6-3v-0.4c0-1.2-0.3-2.1-0.9-2.8c-0.6-0.6-1.4-1-2.6-1c-1.1,0-2,0.3-2.6,1c-0.6,0.6-0.9,1.6-0.9,2.8v0.8h2.3v-0.9
	c0-1,0.4-1.5,1.2-1.5c0.4,0,0.7,0.1,0.9,0.4c0.2,0.2,0.3,0.7,0.3,1.3v0.8c0,0.6-0.1,1-0.4,1.2c-0.2,0.2-0.6,0.4-1,0.4h-0.9v2.1h0.8
	c0.5,0,0.9,0.1,1.2,0.4c0.2,0.3,0.4,0.8,0.4,1.4v1.2c0,0.6-0.1,1.1-0.3,1.3c-0.2,0.2-0.5,0.4-0.9,0.4c-0.8,0-1.2-0.5-1.2-1.5v-1.4
	h-2.3v1.2C413.3,493.1,413.6,494,414.2,494.6 M411.8,493.3h-2.3v2.1h2.3V493.3z M405.6,482.8l-3.4,12.7h2.3l3.4-12.8v-2h-7v2.1
	H405.6z"/>
<path class="st1" d="M441.8,463.3c0-0.5,0.1-0.9,0.3-1.2c0.2-0.2,0.5-0.4,0.9-0.4h1.1v4.6h-0.9c-0.5,0-0.8-0.1-1-0.4
	c-0.2-0.2-0.3-0.6-0.3-1.2V463.3z M441.6,474.5c0.1-0.2,0.1-0.3,0.1-0.4c0-0.1,0-0.3,0.1-0.5c0-0.2,0-0.6,0-0.9v-2.3
	c0-0.7,0.1-1.2,0.4-1.5c0.2-0.3,0.6-0.4,1.2-0.4h0.8v6h2.3v-14.8h-3.5c-1.2,0-2.1,0.3-2.6,0.8c-0.5,0.6-0.8,1.4-0.8,2.6v1.2
	c0,1.5,0.5,2.5,1.5,3c-0.6,0.2-1,0.6-1.2,1.1c-0.2,0.5-0.4,1.2-0.4,2v2.3c0,0.8-0.1,1.4-0.2,1.8H441.6z M434.6,462.3l1.1,7.5h-2.2
	L434.6,462.3z M432.7,474.5l0.4-2.7h2.8l0.4,2.7h2.3l-2.4-14.8h-3.6l-2.4,14.8H432.7z M419.9,474.5l2.1-6.6l0.6,1.1v5.4h2.3v-5.4
	l0.6-1.1l2.1,6.5h2.3l-2.9-8.8l2.9-6h-2.3l-2.8,6v-6h-2.3v6l-2.8-6h-2.3l2.9,6.1l-2.9,8.7H419.9z M412,463.1c0-1,0.4-1.5,1.2-1.5
	c0.8,0,1.2,0.5,1.2,1.5v8c0,1-0.4,1.5-1.2,1.5c-0.8,0-1.2-0.5-1.2-1.5V463.1z M410.6,473.7c0.6,0.6,1.5,1,2.6,1c1.1,0,2-0.3,2.6-1
	c0.6-0.6,0.9-1.6,0.9-2.7v-7.7c0-1.2-0.3-2.1-0.9-2.7c-0.6-0.6-1.5-1-2.6-1c-1.1,0-2,0.3-2.6,1c-0.6,0.6-0.9,1.6-0.9,2.7v7.7
	C409.7,472.1,410,473,410.6,473.7 M402.6,474.5l1.8-5.5l1.8,5.5h2.3l-2.6-7.5l2.4-7.3h-2l-1.8,5.5l-1.8-5.5h-2.3l2.4,7.2l-2.6,7.6
	H402.6z M394.2,474.5l2-6.8l0.9-3.6v10.4h2.3v-14.8h-2.8l-1.9,6.1l-0.8,3.3v-9.4h-2.1v14.8H394.2z M386.1,461.8h1.1
	c0.4,0,0.7,0.1,0.9,0.3c0.2,0.2,0.3,0.6,0.3,1.1v2.2c0,0.5-0.1,0.9-0.3,1.1c-0.2,0.2-0.5,0.3-0.9,0.3h-1.1V461.8z M386.1,474.5v-5.6
	h1.1c1.1,0,2-0.3,2.6-0.9c0.6-0.6,0.9-1.5,0.9-2.7v-1.9c0-1.2-0.3-2.1-0.9-2.7c-0.6-0.6-1.4-0.9-2.6-0.9h-3.4v14.8H386.1z
	 M377.1,474.5v-12.7h2.6v12.7h2.3v-14.8h-7.3v14.8H377.1z"/>
<path class="st1" d="M316.3,333h32.4v32.7h-32.4V333z M315.6,366.4h33.8v-34.1h-33.8V366.4z"/>
<path class="st2" d="M316.3,333h32.4v32.7h-32.4V333z M315.6,366.4h33.8v-34.1h-33.8V366.4z"/>
<path class="st1" d="M345.7,360.8c0,0.8-0.7,1.5-1.4,1.5h-17c-0.8,0-1.5-0.7-1.5-1.5v-22.9c0-0.8,0.7-1.5,1.5-1.5h17
	c0.8,0,1.4,0.7,1.4,1.5V360.8z M325.1,337.9v22.9c0,1.2,1,2.2,2.2,2.2h17c1.2,0,2.2-1,2.2-2.2v-22.9c0-1.2-1-2.2-2.2-2.2h-17
	C326.1,335.7,325.1,336.7,325.1,337.9"/>
<path class="st2" d="M345.7,360.8c0,0.8-0.7,1.5-1.4,1.5h-17c-0.8,0-1.5-0.7-1.5-1.5v-22.9c0-0.8,0.7-1.5,1.5-1.5h17
	c0.8,0,1.4,0.7,1.4,1.5V360.8z M325.1,337.9v22.9c0,1.2,1,2.2,2.2,2.2h17c1.2,0,2.2-1,2.2-2.2v-22.9c0-1.2-1-2.2-2.2-2.2h-17
	C326.1,335.7,325.1,336.7,325.1,337.9z"/>
<path class="st1" d="M328.3,338.9h14.9v20.7h-14.9V338.9z M327.6,360.4h16.3v-22.2h-16.3V360.4z"/>
<path class="st2" d="M328.3,338.9h14.9v20.7h-14.9V338.9z M327.6,360.4h16.3v-22.2h-16.3V360.4z"/>
<path class="st1" d="M338.7,349.3c0,1.1-0.8,1.9-1.9,1.9s-1.9-0.9-1.9-1.9c0-1.1,0.8-1.9,1.9-1.9S338.7,348.3,338.7,349.3
	 M334.2,349.3c0,1.5,1.2,2.6,2.6,2.6s2.6-1.2,2.6-2.6c0-1.5-1.2-2.6-2.6-2.6S334.2,347.9,334.2,349.3"/>
<path class="st2" d="M338.7,349.3c0,1.1-0.8,1.9-1.9,1.9s-1.9-0.9-1.9-1.9c0-1.1,0.8-1.9,1.9-1.9S338.7,348.3,338.7,349.3z
	 M334.2,349.3c0,1.5,1.2,2.6,2.6,2.6s2.6-1.2,2.6-2.6c0-1.5-1.2-2.6-2.6-2.6S334.2,347.9,334.2,349.3z"/>
<rect x="337.4" y="68.6" class="st2" width="168.1" height="5.6"/>
<rect x="502.3" y="67.9" class="st1" width="10.4" height="50.5"/>
<rect x="502.3" y="67.9" class="st2" width="10.4" height="50.5"/>
<rect x="682.9" y="161" transform="matrix(0.7071 -0.7071 0.7071 0.7071 74.7117 540.8854)" class="st1" width="14.8" height="38.5"/>
<rect x="682.9" y="161" transform="matrix(0.7071 -0.7071 0.7071 0.7071 74.7117 540.8854)" class="st2" width="14.8" height="38.5"/>
<rect x="338.4" y="387.2" class="st2" width="48.3" height="16.7"/>
<line class="st2" x1="338.6" y1="389.8" x2="386.9" y2="389.8"/>
<polyline class="st2" points="340.9,389.8 342,401.8 372.6,401.8 373.9,389.8 375.9,389.8 377.2,401.9 384.1,401.9 385.6,389.8 "/>
<rect x="691.4" y="432.2" class="st1" width="15.4" height="98.4"/>
<rect x="691.4" y="432.2" class="st2" width="15.4" height="98.4"/>
<rect x="672.7" y="830.3" transform="matrix(0.7071 -0.7071 0.7071 0.7071 -389.9099 733.4218)" class="st1" width="35.4" height="14.1"/>
<rect x="672.7" y="830.3" transform="matrix(0.7071 -0.7071 0.7071 0.7071 -389.9099 733.4218)" class="st2" width="35.4" height="14.1"/>
</svg>
