<?xml version="1.0" encoding="utf-8"?>
<!-- Generator: Adobe Illustrator 26.0.1, SVG Export Plug-In . SVG Version: 6.00 Build 0)  -->
<svg version="1.1" id="Слой_1" xmlns="http://www.w3.org/2000/svg" xmlns:xlink="http://www.w3.org/1999/xlink" x="0px" y="0px"
	 viewBox="0 0 1000 1000" style="enable-background:new 0 0 1000 1000;" xml:space="preserve">
<style type="text/css">
	.st0{fill:#FBF4A6;}
	.st1{fill:#39373A;}
	.st2{fill:none;stroke:#39373A;stroke-width:0.75;}
	.st3{fill:none;stroke:#39373A;stroke-width:0.75;stroke-miterlimit:4;}
	.st4{fill:none;stroke:#39373A;stroke-width:0.75;stroke-miterlimit:4.0001;}
</style>
<rect x="324" y="220.8" class="st0" width="388.7" height="357.3"/>
<rect x="525.9" y="258" class="st0" width="186.8" height="637.8"/>
<rect x="712.4" y="135.4" class="st1" width="24.6" height="783.4"/>
<rect x="712.4" y="135.4" class="st2" width="24.6" height="783.4"/>
<rect x="333.8" y="108.9" class="st2" width="182.1" height="5.7"/>
<polygon class="st2" points="523.7,108.9 523.7,114.5 718.2,143.1 718.2,137.4 "/>
<rect x="669.2" y="197.8" class="st1" width="60.1" height="5.7"/>
<rect x="669.2" y="197.8" class="st2" width="60.1" height="5.7"/>
<rect x="469.2" y="197.8" class="st1" width="60.1" height="5.7"/>
<rect x="469.2" y="197.8" class="st2" width="60.1" height="5.7"/>
<rect x="602.7" y="197.8" class="st2" width="82.3" height="5.7"/>
<rect x="402.8" y="197.8" class="st2" width="82.3" height="5.7"/>
<rect x="674.1" y="202.5" class="st1" width="55.2" height="18.5"/>
<rect x="674.1" y="202.5" class="st2" width="55.2" height="18.5"/>
<rect x="474.2" y="202.5" class="st1" width="55.2" height="18.5"/>
<rect x="474.2" y="202.5" class="st2" width="55.2" height="18.5"/>
<rect x="509.7" y="197.8" class="st1" width="60.1" height="5.7"/>
<rect x="509.7" y="197.8" class="st2" width="60.1" height="5.7"/>
<rect x="509.7" y="202.5" class="st1" width="55.2" height="18.5"/>
<rect x="509.7" y="202.5" class="st2" width="55.2" height="18.5"/>
<rect x="309.8" y="197.8" class="st1" width="60.1" height="5.7"/>
<rect x="309.8" y="197.8" class="st2" width="60.1" height="5.7"/>
<rect x="309.8" y="202.5" class="st1" width="55.2" height="18.5"/>
<rect x="309.8" y="202.5" class="st2" width="55.2" height="18.5"/>
<rect x="607.7" y="203.5" class="st2" width="77.4" height="17.5"/>
<rect x="407.7" y="203.5" class="st2" width="77.4" height="17.5"/>
<rect x="701.4" y="207.5" transform="matrix(0.7071 -0.7071 0.7071 0.7071 49.1724 568.3701)" class="st1" width="18.5" height="34.6"/>
<rect x="701.4" y="207.5" transform="matrix(0.7071 -0.7071 0.7071 0.7071 49.1724 568.3701)" class="st3" width="18.5" height="34.6"/>
<path class="st2" d="M607.3,204c0,0-1.9,8.2-4,13.8s-4.6,8.7-4.6,8.7l-36.6-21.1l1.1-1.8l36.8,20.7"/>
<path class="st2" d="M407.3,204c0,0-1.9,8.2-4,13.8s-4.6,8.7-4.6,8.7l-36.6-21.1l1.1-1.8l36.8,20.7"/>
<rect x="665.1" y="913.2" class="st1" width="60.1" height="5.7"/>
<rect x="665.1" y="913.2" class="st2" width="60.1" height="5.7"/>
<rect x="537.9" y="913.2" class="st2" width="143" height="5.7"/>
<rect x="670" y="895.7" class="st1" width="55.2" height="18.5"/>
<rect x="670" y="895.7" class="st2" width="55.2" height="18.5"/>
<rect x="514.9" y="913.2" class="st1" width="50.8" height="5.7"/>
<rect x="514.9" y="913.2" class="st2" width="50.8" height="5.7"/>
<rect x="514.9" y="895.7" class="st1" width="45.9" height="18.5"/>
<rect x="546.4" y="895.7" class="st2" width="134.5" height="17.5"/>
<rect x="689.3" y="882.6" transform="matrix(0.7071 -0.7071 0.7071 0.7071 -423.6848 760.8413)" class="st1" width="34.6" height="18.5"/>
<rect x="689.3" y="882.6" transform="matrix(0.7071 -0.7071 0.7071 0.7071 -423.6848 760.8413)" class="st3" width="34.6" height="18.5"/>
<path class="st2" d="M462.5,459.3c0,0,0-7.1,3.1-16c2.6-7.4,7.9-14.4,7.9-14.4l43.8,25l-1.1,1.8l-43.9-25"/>
<path class="st2" d="M313.8,509.3c0,0,7.1,0,16,3.1c7.4,2.6,14.4,7.9,14.4,7.9l-25,43.8l-1.8-1.1l25-43.9"/>
<path class="st2" d="M574,425.4c0,0,0-7.1-3.1-16C568.2,402,563,395,563,395l-43.8,25l1.1,1.8l43.9-25"/>
<path class="st2" d="M574.3,579.4c0,0,0,7.1-3.1,16c-2.6,7.4-7.9,14.4-7.9,14.4l-43.8-25l1.1-1.8l43.9,25"/>
<rect x="514.9" y="208.5" class="st1" width="9" height="275.4"/>
<rect x="514.9" y="208.5" class="st2" width="9" height="275.4"/>
<rect x="514.9" y="104.2" class="st1" width="9" height="55.2"/>
<rect x="514.9" y="104.2" class="st2" width="9" height="55.2"/>
<rect x="514.9" y="541.1" class="st1" width="10.4" height="377.6"/>
<rect x="514.9" y="541.1" class="st2" width="10.4" height="377.6"/>
<rect x="312.5" y="451.1" class="st1" width="150.4" height="9"/>
<rect x="312.5" y="451.1" class="st2" width="150.4" height="9"/>
<rect x="308.2" y="104.3" class="st1" width="15.2" height="404.8"/>
<rect x="310.7" y="559.3" class="st1" width="12.7" height="28.1"/>
<rect x="574.6" y="415.8" class="st1" width="150.4" height="9"/>
<rect x="574.6" y="415.8" class="st2" width="150.4" height="9"/>
<rect x="574.6" y="578.7" class="st1" width="150.4" height="9"/>
<rect x="574.6" y="578.7" class="st2" width="150.4" height="9"/>
<rect x="314.4" y="578.7" class="st1" width="203.1" height="9"/>
<rect x="314.4" y="578.7" class="st2" width="203.1" height="9"/>
<rect x="707.2" y="477.7" class="st1" width="17.7" height="99.8"/>
<rect x="707.2" y="477.7" class="st2" width="17.7" height="99.8"/>
<rect x="313.9" y="104.3" class="st1" width="32.5" height="103"/>
<rect x="313.9" y="104.3" class="st2" width="32.5" height="103"/>
<path class="st1" d="M539.8,531.2c0.5,0.5,1.3,0.8,2.2,0.8s1.7-0.3,2.2-0.8s0.7-1.3,0.7-2.3v-1c0-1.3-0.5-2.2-1.4-2.6
	c0.9-0.4,1.4-1.2,1.4-2.5v-0.3c0-1-0.2-1.8-0.7-2.3s-1.2-0.8-2.2-0.8s-1.7,0.3-2.2,0.8s-0.8,1.3-0.8,2.3v0.7h1.9v-0.8
	c0-0.8,0.3-1.2,1-1.2c0.3,0,0.6,0.1,0.8,0.3s0.3,0.6,0.3,1.1v0.7c0,0.5-0.1,0.8-0.3,1s-0.5,0.3-0.9,0.3H541v1.8h0.7
	c0.4,0,0.8,0.1,1,0.4c0.2,0.2,0.3,0.6,0.3,1.2v1c0,0.5-0.1,0.9-0.3,1.1c-0.2,0.2-0.4,0.3-0.8,0.3c-0.7,0-1-0.4-1-1.2v-1.1H539v1
	C539,529.9,539.2,530.7,539.8,531.2 M537.7,530.1h-1.9v1.8h1.9V530.1z M529.5,531.2c0.5,0.5,1.3,0.8,2.2,0.8s1.7-0.3,2.2-0.8
	s0.7-1.3,0.7-2.3v-1c0-1.3-0.5-2.2-1.4-2.6c0.9-0.4,1.4-1.2,1.4-2.5v-0.3c0-1-0.2-1.8-0.7-2.3s-1.2-0.8-2.2-0.8
	c-0.9,0-1.7,0.3-2.2,0.8s-0.8,1.3-0.8,2.3v0.7h1.9v-0.8c0-0.8,0.3-1.2,1-1.2c0.3,0,0.6,0.1,0.8,0.3s0.3,0.6,0.3,1.1v0.7
	c0,0.5-0.1,0.8-0.3,1s-0.5,0.3-0.9,0.3h-0.8v1.8h0.7c0.4,0,0.8,0.1,1,0.4c0.2,0.2,0.3,0.6,0.3,1.2v1c0,0.5-0.1,0.9-0.3,1.1
	c-0.2,0.2-0.4,0.3-0.8,0.3c-0.7,0-1-0.4-1-1.2v-1.1h-1.9v1C528.7,529.9,529,530.7,529.5,531.2"/>
<path class="st1" d="M558.1,500.1h0.9c0.3,0,0.6,0.1,0.7,0.3c0.2,0.2,0.2,0.5,0.2,0.9v1.9c0,0.4-0.1,0.7-0.2,0.9
	c-0.2,0.2-0.4,0.3-0.7,0.3h-0.9V500.1z M558.1,510.7v-4.6h0.9c1,0,1.7-0.3,2.2-0.8s0.7-1.3,0.7-2.3v-1.6c0-1-0.2-1.8-0.7-2.3
	s-1.2-0.8-2.2-0.8h-2.9v12.4L558.1,510.7L558.1,510.7z M550.9,501.2c0-0.8,0.3-1.2,1-1.2s1,0.4,1,1.2v6.7c0,0.8-0.3,1.2-1,1.2
	s-1-0.4-1-1.2V501.2z M549.8,510c0.5,0.5,1.2,0.8,2.2,0.8c0.9,0,1.7-0.3,2.2-0.8s0.8-1.3,0.8-2.3v-6.4c0-1-0.3-1.8-0.8-2.3
	s-1.2-0.8-2.2-0.8c-0.9,0-1.7,0.3-2.2,0.8s-0.8,1.3-0.8,2.3v6.4C549,508.7,549.3,509.5,549.8,510 M543.1,508.3
	c0.1-0.2,0.1-0.6,0.2-1l0.4-7.2h1.6v8.8h-2.5C542.9,508.8,543,508.6,543.1,508.3 M542,512.3v-1.6h4.1v1.6h1.9v-3.4h-0.8v-10.6h-5.5
	l-0.4,9c0,0.4-0.1,0.7-0.1,0.9c-0.1,0.2-0.2,0.5-0.4,0.7H540v3.4H542z M535,510.7l1.6-5.7l0.8-3v8.7h1.9v-12.4H537l-1.6,5.1
	l-0.7,2.7v-7.8H533v12.4L535,510.7L535,510.7z M528.3,500.1h0.9c0.3,0,0.6,0.1,0.7,0.3c0.2,0.2,0.2,0.5,0.2,0.9v1.9
	c0,0.4-0.1,0.7-0.2,0.9c-0.2,0.2-0.4,0.3-0.7,0.3h-0.9V500.1z M528.3,510.7v-4.6h0.9c1,0,1.7-0.3,2.2-0.8s0.7-1.3,0.7-2.3v-1.6
	c0-1-0.2-1.8-0.7-2.3s-1.2-0.8-2.2-0.8h-2.9v12.4L528.3,510.7L528.3,510.7z M521.2,501.2c0-0.8,0.3-1.2,1-1.2s1,0.4,1,1.2v6.7
	c0,0.8-0.3,1.2-1,1.2s-1-0.4-1-1.2V501.2z M520,510c0.5,0.5,1.2,0.8,2.2,0.8c0.9,0,1.7-0.3,2.2-0.8s0.8-1.3,0.8-2.3v-6.4
	c0-1-0.3-1.8-0.8-2.3s-1.2-0.8-2.2-0.8c-0.9,0-1.7,0.3-2.2,0.8s-0.8,1.3-0.8,2.3v6.4C519.2,508.7,519.5,509.5,520,510 M514,510.7
	v-3.8l0.6-1.1l1.9,4.9h2l-2.7-6.9l2.7-5.5h-1.9l-2.5,5.4v-5.4h-1.9v12.4H514z"/>
<path class="st2" d="M596.9,460.8c0,0-2.6,0.2-10.1-2.4c-6.2-2.2-12-6.6-12-6.6l17.7-30.5l1.5,0.9l-17.7,30.5"/>
<path class="st2" d="M596.9,511c0,0-2.6-0.2-10.1,2.4c-6.2,2.2-12,6.6-12,6.6l17.7,30.5l1.5-0.9l-17.7-30.5"/>
<rect x="590.4" y="544.1" class="st1" width="6" height="34.6"/>
<rect x="590.4" y="544.1" class="st2" width="6" height="34.6"/>
<rect x="594" y="473.7" class="st1" width="125.5" height="6"/>
<rect x="594" y="473.7" class="st2" width="125.5" height="6"/>
<rect x="590.4" y="461.1" class="st1" width="6" height="51.1"/>
<rect x="590.4" y="461.1" class="st2" width="6" height="51.1"/>
<rect x="695.5" y="425.2" class="st2" width="16.5" height="47.2"/>
<line class="st2" x1="709.4" y1="472.3" x2="709.4" y2="424.9"/>
<polyline class="st2" points="709.4,470 697.5,468.9 697.5,439 709.4,437.7 709.4,435.8 697.3,434.5 697.3,427.8 709.4,426.3 "/>
<rect x="345.5" y="433.5" class="st2" width="49.1" height="16.5"/>
<line class="st2" x1="345.7" y1="436.1" x2="394.9" y2="436.1"/>
<polyline class="st2" points="348.1,436.1 349.2,448 380.2,448 381.6,436.1 383.6,436.1 385,448.2 391.9,448.2 393.4,436.1 "/>
<path class="st1" d="M649.7,448.6c0,6,4.9,10.9,10.9,10.9h15.8c1,0,1.9-0.8,1.9-1.9v-18.1c0-1-0.8-1.9-1.9-1.9h-15.8
	C654.6,437.7,649.7,442.6,649.7,448.6 M679,439.5v18.1c0,1.5-1.2,2.6-2.6,2.6h-15.8c-6.4,0-11.7-5.2-11.7-11.7
	c0-6.4,5.2-11.7,11.7-11.7h15.8C677.9,436.9,679,438.1,679,439.5"/>
<path class="st2" d="M649.7,448.6c0,6,4.9,10.9,10.9,10.9h15.8c1,0,1.9-0.8,1.9-1.9v-18.1c0-1-0.8-1.9-1.9-1.9h-15.8
	C654.6,437.7,649.7,442.6,649.7,448.6z M679,439.5v18.1c0,1.5-1.2,2.6-2.6,2.6h-15.8c-6.4,0-11.7-5.2-11.7-11.7
	c0-6.4,5.2-11.7,11.7-11.7h15.8C677.9,436.9,679,438.1,679,439.5z"/>
<path class="st2" d="M673,456.4v-15.7c0-0.1-0.1-0.2-0.2-0.2h-11.9c-4.4,0-8,3.6-8,8s3.6,8,8,8h11.9
	C672.9,456.6,673,456.5,673,456.4z"/>
<path class="st1" d="M672.6,456.2v-15.3h-11.7c-4.2,0-7.6,3.4-7.6,7.6s3.4,7.6,7.6,7.6L672.6,456.2L672.6,456.2z M673.4,440.7v15.7
	c0,0.3-0.3,0.6-0.6,0.6h-11.9c-4.6,0-8.4-3.8-8.4-8.4s3.8-8.4,8.4-8.4h11.9C673.1,440.2,673.4,440.4,673.4,440.7"/>
<path class="st2" d="M672.6,456.2v-15.3h-11.7c-4.2,0-7.6,3.4-7.6,7.6s3.4,7.6,7.6,7.6L672.6,456.2L672.6,456.2z M673.4,440.7v15.7
	c0,0.3-0.3,0.6-0.6,0.6h-11.9c-4.6,0-8.4-3.8-8.4-8.4s3.8-8.4,8.4-8.4h11.9C673.1,440.2,673.4,440.4,673.4,440.7z"/>
<path class="st1" d="M660.9,448.6c0,1.1,0.9,2.1,2.1,2.1c1.1,0,2.1-0.9,2.1-2.1c0-1.1-0.9-2.1-2.1-2.1
	C661.8,446.5,660.9,447.4,660.9,448.6 M665.8,448.6c0,1.6-1.3,2.8-2.8,2.8s-2.8-1.3-2.8-2.8c0-1.6,1.3-2.8,2.8-2.8
	C664.5,445.8,665.8,447,665.8,448.6"/>
<path class="st2" d="M660.9,448.6c0,1.1,0.9,2.1,2.1,2.1c1.1,0,2.1-0.9,2.1-2.1c0-1.1-0.9-2.1-2.1-2.1
	C661.8,446.5,660.9,447.4,660.9,448.6z M665.8,448.6c0,1.6-1.3,2.8-2.8,2.8s-2.8-1.3-2.8-2.8c0-1.6,1.3-2.8,2.8-2.8
	C664.5,445.8,665.8,447,665.8,448.6z"/>
<polygon class="st1" points="671.5,454.7 671.1,455.3 666,451.5 666.5,450.9 "/>
<polygon class="st2" points="671.5,454.7 671.1,455.3 666,451.5 666.5,450.9 "/>
<rect x="665.6" y="443.8" transform="matrix(0.8007 -0.5991 0.5991 0.8007 -132.8017 489.1959)" class="st1" width="6.3" height="0.8"/>
<rect x="665.6" y="443.8" transform="matrix(0.8007 -0.5991 0.5991 0.8007 -132.8017 489.1959)" class="st4" width="6.3" height="0.8"/>
<path class="st1" d="M679.1,456.1c0,1.7,1.4,3,3,3h4.1c1.7,0,3-1.4,3-3V441c0-1.7-1.4-3-3-3h-4.1c-1.7,0-3,1.4-3,3V456.1z M690,441
	v15.1c0,2.1-1.7,3.8-3.8,3.8h-4.1c-2.1,0-3.8-1.7-3.8-3.8V441c0-2.1,1.7-3.8,3.8-3.8h4.1C688.3,437.3,690,439,690,441"/>
<path class="st2" d="M679.1,456.1c0,1.7,1.4,3,3,3h4.1c1.7,0,3-1.4,3-3V441c0-1.7-1.4-3-3-3h-4.1c-1.7,0-3,1.4-3,3V456.1z M690,441
	v15.1c0,2.1-1.7,3.8-3.8,3.8h-4.1c-2.1,0-3.8-1.7-3.8-3.8V441c0-2.1,1.7-3.8,3.8-3.8h4.1C688.3,437.3,690,439,690,441z"/>
<path class="st1" d="M683,448.6c0,0.6,0.5,1.2,1.2,1.2c0.6,0,1.2-0.5,1.2-1.2c0-0.6-0.5-1.2-1.2-1.2S683,447.9,683,448.6
	 M686.1,448.6c0,1.1-0.9,1.9-1.9,1.9c-1.1,0-1.9-0.9-1.9-1.9c0-1.1,0.9-1.9,1.9-1.9C685.2,446.7,686.1,447.5,686.1,448.6"/>
<path class="st2" d="M683,448.6c0,0.6,0.5,1.2,1.2,1.2c0.6,0,1.2-0.5,1.2-1.2c0-0.6-0.5-1.2-1.2-1.2S683,447.9,683,448.6z
	 M686.1,448.6c0,1.1-0.9,1.9-1.9,1.9c-1.1,0-1.9-0.9-1.9-1.9c0-1.1,0.9-1.9,1.9-1.9C685.2,446.7,686.1,447.5,686.1,448.6z"/>
<path class="st1" d="M625.6,460.7c0.4,0.4,1,0.6,1.7,0.6s1.3-0.2,1.7-0.6s0.6-1,0.6-1.8v-2.1c0-0.7-0.1-1.2-0.4-1.6
	c-0.3-0.4-0.7-0.6-1.2-0.6c-0.6,0-1,0.2-1.3,0.7l0.1-2.3h2.6v-1.4h-4l-0.3,5.5h1.5V457c0-0.6,0.3-0.9,0.8-0.9s0.8,0.3,0.8,0.9v2.1
	c0,0.6-0.3,0.9-0.8,0.9s-0.8-0.3-0.8-0.9v-0.9H625v0.8C625,459.7,625.2,460.3,625.6,460.7 M624.1,459.9h-1.5v1.4h1.5V459.9z
	 M619.3,454v7.3h1.5v-9.5h-1c-0.1,0.2-0.1,0.3-0.2,0.4c0,0.1-0.1,0.2-0.2,0.3c-0.1,0.1-0.2,0.2-0.3,0.3c-0.1,0.1-0.2,0.1-0.4,0.2
	c-0.2,0-0.4,0.1-0.6,0.1v1.1h1.2V454z"/>
<path class="st1" d="M627.9,442.8L627.9,442.8c-0.1,0.4-0.2,0.6-0.4,0.7s-0.5,0.1-0.9,0.1v1.4c0.4,0,0.8,0,1.1,0
	c0.3-0.1,0.6-0.1,0.8-0.3c0.2-0.1,0.4-0.3,0.5-0.5s0.3-0.4,0.4-0.7c0.1-0.3,0.2-0.6,0.2-0.9l1.6-7.1h-1.5l-0.7,3.3l-0.3,2.2
	l-0.5-2.2l-0.8-3.2h-1.5L627.9,442.8z M621.9,445l3.7-9.5h-1.3l-3.7,9.5H621.9z M616.3,444.5c0.4,0.4,0.9,0.6,1.7,0.6
	c0.7,0,1.3-0.2,1.7-0.6s0.6-1,0.6-1.8v-1.3h-1.5v1.4c0,0.6-0.3,0.9-0.8,0.9s-0.8-0.3-0.8-0.9v-5.1c0-0.6,0.3-0.9,0.8-0.9
	s0.8,0.3,0.8,0.9v1h1.5v-0.9c0-0.8-0.2-1.4-0.6-1.8c-0.4-0.4-1-0.6-1.7-0.6s-1.3,0.2-1.7,0.6s-0.6,1-0.6,1.8v4.9
	C615.7,443.5,615.9,444,616.3,444.5"/>
<path class="st1" d="M635.9,556.7c0.4,0.4,1,0.6,1.7,0.6s1.3-0.2,1.7-0.6c0.4-0.4,0.6-1,0.6-1.8v-2.1c0-0.7-0.1-1.2-0.4-1.6
	c-0.3-0.4-0.7-0.6-1.2-0.6c-0.6,0-1,0.2-1.3,0.7l0.1-2.3h2.6v-1.4h-4l-0.3,5.5h1.5v-0.3c0-0.6,0.3-0.9,0.8-0.9s0.8,0.3,0.8,0.9v2.1
	c0,0.6-0.3,0.9-0.8,0.9s-0.8-0.3-0.8-0.9V554h-1.5v0.8C635.3,555.7,635.5,556.3,635.9,556.7 M634.4,555.8h-1.5v1.4h1.5V555.8z
	 M628,556.7c0.4,0.4,1,0.6,1.7,0.6s1.3-0.2,1.7-0.6c0.4-0.4,0.6-1,0.6-1.8v-0.7c0-1-0.3-1.7-1-2c0.7-0.3,1-0.9,1-2V550
	c0-0.8-0.2-1.4-0.6-1.8c-0.4-0.4-0.9-0.6-1.7-0.6c-0.7,0-1.3,0.2-1.7,0.6c-0.4,0.4-0.6,1-0.6,1.8v0.5h1.5v-0.6
	c0-0.6,0.3-0.9,0.8-0.9c0.3,0,0.4,0.1,0.6,0.2c0.1,0.2,0.2,0.4,0.2,0.8v0.5c0,0.4-0.1,0.6-0.2,0.8c-0.2,0.2-0.4,0.2-0.7,0.2H629v1.4
	h0.5c0.3,0,0.6,0.1,0.7,0.3c0.2,0.2,0.2,0.5,0.2,0.9v0.7c0,0.4-0.1,0.7-0.2,0.8c-0.1,0.2-0.3,0.2-0.6,0.2c-0.5,0-0.8-0.3-0.8-0.9
	V554h-1.5v0.8C627.4,555.7,627.6,556.3,628,556.7"/>
<path class="st1" d="M646.9,533.7c0-0.3,0.1-0.6,0.2-0.7c0.1-0.2,0.3-0.2,0.6-0.2h0.7v2.9h-0.6c-0.3,0-0.5-0.1-0.7-0.2
	c-0.2-0.2-0.2-0.4-0.2-0.8V533.7z M646.7,540.9c0-0.1,0.1-0.2,0.1-0.2c0-0.1,0-0.2,0-0.3c0-0.2,0-0.4,0-0.6v-1.5
	c0-0.4,0.1-0.7,0.2-0.9c0.2-0.2,0.4-0.3,0.7-0.3h0.5v3.9h1.5v-9.5h-2.3c-0.8,0-1.3,0.2-1.7,0.5c-0.4,0.4-0.5,0.9-0.5,1.7v0.7
	c0,1,0.3,1.6,1,1.9c-0.4,0.2-0.6,0.4-0.8,0.7s-0.2,0.8-0.2,1.3v1.5c0,0.5,0,0.9-0.1,1.2h1.6V540.9z M642.2,533.1l0.7,4.8h-1.4
	L642.2,533.1z M641.1,540.9l0.3-1.7h1.8l0.3,1.7h1.5l-1.5-9.5h-2.3l-1.5,9.5H641.1z M635.7,540.9v-4.1h1.7v4.1h1.5v-9.5h-1.5v4.1
	h-1.7v-4.1h-1.5v9.5H635.7z M629.9,540.9v-4.1h1.7v4.1h1.5v-9.5h-1.5v4.1h-1.7v-4.1h-1.5v9.5H629.9z M625.1,533.1l0.7,4.8h-1.4
	L625.1,533.1z M624,540.9l0.3-1.7h1.8l0.3,1.7h1.5l-1.5-9.5H624l-1.5,9.5H624z M618.8,532.8h0.7c0.3,0,0.5,0.1,0.6,0.2
	c0.1,0.2,0.2,0.4,0.2,0.7v0.5c0,0.4-0.1,0.6-0.2,0.8c-0.2,0.2-0.4,0.2-0.7,0.2h-0.6V532.8z M618.8,536.6h0.7c0.3,0,0.6,0.1,0.7,0.3
	c0.1,0.2,0.2,0.5,0.2,0.9v0.8c0,0.3-0.1,0.6-0.2,0.7c-0.1,0.1-0.3,0.2-0.6,0.2h-0.9L618.8,536.6L618.8,536.6z M619.7,540.9
	c0.7,0,1.3-0.2,1.7-0.6c0.4-0.4,0.6-0.9,0.6-1.7v-0.8c0-1.1-0.4-1.7-1.1-2c0.6-0.3,1-0.9,1-1.9v-0.3c0-0.7-0.2-1.3-0.5-1.7
	c-0.4-0.4-0.9-0.5-1.7-0.5h-2.3v9.5H619.7z"/>
<path class="st1" d="M648.3,502.8c-5.5,0-10-4.5-10-10v-10.6c0-0.8,0.7-1.5,1.5-1.5h22.5c0.8,0,1.5,0.7,1.5,1.5v10.6
	c0,5.5-4.5,10-10,10H648.3z M662.4,480.1h-22.5c-1.1,0-2.1,0.9-2.1,2.1v10.6c0,5.8,4.7,10.5,10.5,10.5h5.6c5.8,0,10.5-4.7,10.5-10.5
	v-10.6C664.5,481.1,663.6,480.1,662.4,480.1"/>
<path class="st2" d="M648.3,502.8c-5.5,0-10-4.5-10-10v-10.6c0-0.8,0.7-1.5,1.5-1.5h22.5c0.8,0,1.5,0.7,1.5,1.5v10.6
	c0,5.5-4.5,10-10,10H648.3z M662.4,480.1h-22.5c-1.1,0-2.1,0.9-2.1,2.1v10.6c0,5.8,4.7,10.5,10.5,10.5h5.6c5.8,0,10.5-4.7,10.5-10.5
	v-10.6C664.5,481.1,663.6,480.1,662.4,480.1z"/>
<path class="st1" d="M648.3,500.3c-4.1,0-7.5-3.4-7.5-7.5v-6.2c0-0.7,0.6-1.3,1.3-1.3h18c0.7,0,1.3,0.6,1.3,1.3v6.2
	c0,4.1-3.4,7.5-7.5,7.5H648.3z M660.1,484.8h-18c-1,0-1.9,0.8-1.9,1.9v6.2c0,4.4,3.6,8,8,8h5.6c4.4,0,8-3.6,8-8v-6.2
	C662,485.6,661.1,484.8,660.1,484.8"/>
<path class="st2" d="M648.3,500.3c-4.1,0-7.5-3.4-7.5-7.5v-6.2c0-0.7,0.6-1.3,1.3-1.3h18c0.7,0,1.3,0.6,1.3,1.3v6.2
	c0,4.1-3.4,7.5-7.5,7.5H648.3z M660.1,484.8h-18c-1,0-1.9,0.8-1.9,1.9v6.2c0,4.4,3.6,8,8,8h5.6c4.4,0,8-3.6,8-8v-6.2
	C662,485.6,661.1,484.8,660.1,484.8z"/>
<path class="st1" d="M651.1,495.1c-0.7,0-1.2-0.6-1.2-1.3c0-0.7,0.6-1.2,1.2-1.2c0.7,0,1.2,0.6,1.2,1.2
	C652.4,494.5,651.8,495.1,651.1,495.1 M651.1,492c-1,0-1.8,0.8-1.8,1.8s0.8,1.8,1.8,1.8s1.8-0.8,1.8-1.8
	C653,492.8,652.1,492,651.1,492"/>
<path class="st2" d="M651.1,495.1c-0.7,0-1.2-0.6-1.2-1.3c0-0.7,0.6-1.2,1.2-1.2c0.7,0,1.2,0.6,1.2,1.2
	C652.4,494.5,651.8,495.1,651.1,495.1z M651.1,492c-1,0-1.8,0.8-1.8,1.8s0.8,1.8,1.8,1.8s1.8-0.8,1.8-1.8
	C653,492.8,652.1,492,651.1,492z"/>
<rect x="598.3" y="480.4" class="st2" width="34.7" height="35.5"/>
<line class="st2" x1="598.8" y1="516" x2="632.8" y2="480.6"/>
<line class="st2" x1="633.2" y1="516" x2="599.2" y2="480.6"/>
<path class="st2" d="M687.4,498.8c0.8,0,1.5,0.7,1.5,1.5c0,0.9-0.7,1.5-1.5,1.5s-1.5-0.7-1.5-1.5S686.6,498.8,687.4,498.8z"/>
<path class="st2" d="M680.4,574c-5.6,0-10.1-4.5-10.1-10.1V494c0-5.6,4.5-10.1,10.1-10.1h14c5.6,0,10.1,4.5,10.1,10.1v70
	c0,5.6-4.5,10.1-10.1,10.1L680.4,574L680.4,574z"/>
<path class="st2" d="M683.6,567.8c-5.6,0-10.1-4.5-10.1-10.1v-57.3c0-5.6,4.5-10.1,10.1-10.1h7.6c5.6,0,10.1,4.5,10.1,10.1v57.3
	c0,5.6-4.5,10.1-10.1,10.1H683.6z"/>
<path class="st2" d="M681.7,560.2c-2.8,0-5-2.3-5-5v-56.4c0-2.8,2.3-5,5-5h11.6c2.8,0,5,2.3,5,5v56.4c0,2.8-2.3,5-5,5H681.7z"/>
<polygon class="st2" points="707.4,480.5 707.4,480.5 707.4,577.6 667.5,577.6 667.5,480.5 "/>
<path class="st1" d="M324.9,410.5h32.3v-32.3h-32.3V410.5z M324.2,377.5H358v33.8h-33.8V377.5z"/>
<path class="st2" d="M324.9,410.5h32.3v-32.3h-32.3V410.5z M324.2,377.5H358v33.8h-33.8V377.5z"/>
<path class="st1" d="M354.3,383c0-0.8-0.6-1.4-1.4-1.4h-17c-0.8,0-1.4,0.6-1.4,1.4v22.6c0,0.8,0.7,1.4,1.4,1.4h17
	c0.8,0,1.4-0.6,1.4-1.4V383z M333.7,405.7V383c0-1.2,1-2.2,2.2-2.2h17c1.2,0,2.2,1,2.2,2.2v22.6c0,1.2-1,2.2-2.2,2.2h-17
	C334.7,407.8,333.7,406.9,333.7,405.7"/>
<path class="st2" d="M354.3,383c0-0.8-0.6-1.4-1.4-1.4h-17c-0.8,0-1.4,0.6-1.4,1.4v22.6c0,0.8,0.7,1.4,1.4,1.4h17
	c0.8,0,1.4-0.6,1.4-1.4V383z M333.7,405.7V383c0-1.2,1-2.2,2.2-2.2h17c1.2,0,2.2,1,2.2,2.2v22.6c0,1.2-1,2.2-2.2,2.2h-17
	C334.7,407.8,333.7,406.9,333.7,405.7z"/>
<path class="st1" d="M336.9,404.6h14.9v-20.5h-14.9V404.6z M336.2,383.4h16.3v21.9h-16.3V383.4z"/>
<path class="st2" d="M336.9,404.6h14.9v-20.5h-14.9V404.6z M336.2,383.4h16.3v21.9h-16.3V383.4z"/>
<path class="st1" d="M347.2,394.4c0-1-0.8-1.9-1.9-1.9c-1,0-1.9,0.8-1.9,1.9c0,1,0.8,1.9,1.9,1.9
	C346.4,396.2,347.2,395.4,347.2,394.4 M342.8,394.4c0-1.4,1.2-2.6,2.6-2.6s2.6,1.2,2.6,2.6s-1.2,2.6-2.6,2.6
	C343.9,397,342.8,395.8,342.8,394.4"/>
<path class="st2" d="M347.2,394.4c0-1-0.8-1.9-1.9-1.9c-1,0-1.9,0.8-1.9,1.9c0,1,0.8,1.9,1.9,1.9
	C346.4,396.2,347.2,395.4,347.2,394.4z M342.8,394.4c0-1.4,1.2-2.6,2.6-2.6s2.6,1.2,2.6,2.6s-1.2,2.6-2.6,2.6
	C343.9,397,342.8,395.8,342.8,394.4z"/>
<path class="st1" d="M452.6,165.5c1.3,0,2.1-0.3,2.7-0.8c0.5-0.5,0.8-1.4,0.8-2.7v-8.9c0-1.3-0.3-2.2-0.8-2.7s-1.4-0.8-2.7-0.8h-0.8
	v2.2h0.6c0.4,0,0.7,0.1,0.9,0.3c0.2,0.2,0.3,0.6,0.3,1.1v8.7c0,0.5-0.1,0.9-0.3,1.1c-0.2,0.2-0.5,0.3-0.9,0.3h-0.6v2.2L452.6,165.5
	L452.6,165.5z M447.7,154.4v6h-2.5L447.7,154.4z M447.7,162.6v2.9h2.5v-2.9h1.1v-2.3h-1.1v-10.7h-2.7l-4.5,10.7v2.3H447.7z
	 M441.8,163.2h-2.5v2.3h2.5V163.2z M434.5,154.4v6H432L434.5,154.4z M434.5,162.6v2.9h2.5v-2.9h1.1v-2.3H437v-10.7h-2.7l-4.5,10.7
	v2.3H434.5z M425.6,164.7c0.5,0.5,1.4,0.8,2.7,0.8h0.8v-2.2h-0.6c-0.4,0-0.7-0.1-0.9-0.3c-0.2-0.2-0.3-0.6-0.3-1.1v-8.7
	c0-0.5,0.1-0.9,0.3-1.1c0.2-0.2,0.5-0.3,0.9-0.3h0.6v-2.2h-0.8c-1.3,0-2.1,0.3-2.7,0.8c-0.5,0.5-0.8,1.4-0.8,2.7v8.9
	C424.8,163.3,425,164.2,425.6,164.7 M414.3,153.6c0-0.7,0.1-1.1,0.4-1.4c0.2-0.3,0.6-0.4,1-0.4s0.8,0.1,1,0.4
	c0.2,0.3,0.4,0.7,0.4,1.4v0.9c0,1.1-0.5,1.7-1.4,1.7s-1.4-0.6-1.4-1.7V153.6z M414.3,160.2c0-1.2,0.5-1.8,1.4-1.8s1.4,0.6,1.4,1.8
	v1.5c0,0.7-0.1,1.1-0.4,1.4c-0.2,0.3-0.6,0.4-1,0.4s-0.8-0.1-1-0.4c-0.2-0.3-0.4-0.7-0.4-1.4V160.2z M412.8,164.7
	c0.7,0.7,1.6,1,2.9,1s2.2-0.3,2.9-1c0.7-0.7,1-1.7,1-2.9v-1.2c0-1.6-0.5-2.7-1.5-3.3c1-0.6,1.5-1.6,1.5-3.2v-0.5
	c0-1.3-0.3-2.2-1-2.9s-1.6-1-2.9-1s-2.2,0.3-2.9,1c-0.7,0.7-1,1.7-1,2.9v0.5c0,1.6,0.5,2.6,1.5,3.2c-1,0.6-1.5,1.7-1.5,3.3v1.2
	C411.8,163,412.2,164,412.8,164.7 M410.4,163.2H408v2.3h2.5v-2.3H410.4z M401.2,153.6c0-0.7,0.1-1.1,0.4-1.4c0.2-0.3,0.6-0.4,1-0.4
	s0.8,0.1,1,0.4c0.2,0.3,0.4,0.7,0.4,1.4v0.9c0,1.1-0.5,1.7-1.4,1.7s-1.4-0.6-1.4-1.7V153.6z M401.2,160.2c0-1.2,0.5-1.8,1.4-1.8
	s1.4,0.6,1.4,1.8v1.5c0,0.7-0.1,1.1-0.4,1.4c-0.2,0.3-0.6,0.4-1,0.4s-0.8-0.1-1-0.4c-0.2-0.3-0.4-0.7-0.4-1.4V160.2z M399.7,164.7
	c0.7,0.7,1.6,1,2.9,1s2.2-0.3,2.9-1c0.7-0.7,1-1.7,1-2.9v-1.2c0-1.6-0.5-2.7-1.5-3.3c1-0.6,1.5-1.6,1.5-3.2v-0.5
	c0-1.3-0.3-2.2-1-2.9s-1.6-1-2.9-1s-2.2,0.3-2.9,1c-0.7,0.7-1,1.7-1,2.9v0.5c0,1.6,0.5,2.6,1.5,3.2c-1,0.6-1.5,1.7-1.5,3.3v1.2
	C398.7,163,399,164,399.7,164.7"/>
<path class="st1" d="M428.1,349.5c0-0.7,0.1-1.1,0.4-1.4c0.2-0.3,0.6-0.4,1-0.4s0.8,0.1,1,0.4s0.4,0.7,0.4,1.4v0.9
	c0,1.1-0.5,1.7-1.4,1.7s-1.4-0.6-1.4-1.7V349.5z M428.1,356.1c0-1.2,0.5-1.8,1.4-1.8s1.4,0.6,1.4,1.8v1.5c0,0.7-0.1,1.1-0.4,1.4
	c-0.2,0.3-0.6,0.4-1,0.4s-0.8-0.1-1-0.4s-0.4-0.7-0.4-1.4V356.1z M426.6,360.6c0.7,0.7,1.6,1,2.9,1s2.2-0.3,2.9-1
	c0.7-0.7,1-1.7,1-2.9v-1.2c0-1.6-0.5-2.7-1.5-3.3c1-0.6,1.5-1.6,1.5-3.2v-0.5c0-1.3-0.3-2.2-1-2.9c-0.7-0.7-1.6-1-2.9-1
	s-2.2,0.3-2.9,1c-0.7,0.7-1,1.7-1,2.9v0.5c0,1.6,0.5,2.6,1.5,3.2c-1,0.6-1.5,1.7-1.5,3.3v1.2C425.6,358.9,426,359.9,426.6,360.6
	 M424.3,359.2h-2.5v2.3h2.5V359.2z M413.7,360.6c0.7,0.7,1.6,1,2.8,1c1.2,0,2.1-0.3,2.8-1c0.6-0.7,0.9-1.7,0.9-2.9v-1.2
	c0-1.7-0.6-2.8-1.7-3.3c1.2-0.5,1.7-1.6,1.7-3.3v-0.4c0-1.3-0.3-2.3-0.9-2.9c-0.6-0.7-1.6-1-2.8-1c-1.2,0-2.2,0.3-2.8,1
	c-0.7,0.7-1,1.7-1,2.9v0.9h2.5v-1c0-1,0.4-1.6,1.3-1.6c0.4,0,0.7,0.1,1,0.4c0.2,0.3,0.3,0.7,0.3,1.4v0.9c0,0.6-0.1,1-0.4,1.3
	s-0.6,0.4-1.1,0.4h-1v2.3h0.8c0.6,0,1,0.2,1.2,0.5c0.3,0.3,0.4,0.8,0.4,1.5v1.2c0,0.7-0.1,1.1-0.3,1.4c-0.2,0.3-0.5,0.4-1,0.4
	c-0.8,0-1.3-0.5-1.3-1.6v-1.5h-2.5v1.3C412.7,358.9,413,359.9,413.7,360.6 M407.3,349.4v12.1h2.5v-15.8h-1.7
	c-0.1,0.3-0.2,0.5-0.3,0.6c-0.1,0.2-0.2,0.3-0.3,0.5c-0.1,0.2-0.3,0.3-0.5,0.5c-0.2,0.1-0.4,0.2-0.7,0.3c-0.3,0.1-0.6,0.1-1,0.1v1.8
	h2V349.4z"/>
<path class="st1" d="M436.2,322.4c0-0.6,0.1-1,0.3-1.2c0.2-0.3,0.5-0.4,1-0.4h1.2v4.9h-1c-0.5,0-0.9-0.1-1.1-0.4
	c-0.3-0.3-0.4-0.7-0.4-1.3V322.4z M435.9,334.3c0.1-0.2,0.1-0.3,0.1-0.4s0-0.3,0.1-0.5c0-0.3,0-0.6,0-1v-2.5c0-0.7,0.1-1.2,0.4-1.6
	c0.3-0.3,0.7-0.5,1.2-0.5h0.9v6.5h2.5v-15.8h-3.8c-1.3,0-2.2,0.3-2.8,0.9c-0.6,0.6-0.9,1.5-0.9,2.8v1.2c0,1.6,0.5,2.7,1.6,3.2
	c-0.6,0.3-1,0.7-1.3,1.2c-0.3,0.6-0.4,1.3-0.4,2.2v2.4c0,0.9-0.1,1.5-0.2,1.9L435.9,334.3L435.9,334.3z M426.6,334.3v-6.8h2.8v6.8
	h2.5v-15.8h-2.5v6.8h-2.8v-6.8h-2.5v15.8H426.6z M416.4,334.3l1.9-5.9l1.9,5.9h2.5l-2.8-8.1l2.6-7.8h-2.2l-1.9,5.9l-1.9-5.9H414
	l2.6,7.7l-2.8,8.2L416.4,334.3L416.4,334.3z M407.9,330.7v0.1c-0.1,0.5-0.3,0.9-0.7,1.1c-0.3,0.2-0.9,0.2-1.5,0.2v2.3
	c0.7,0,1.3,0,1.8-0.1s0.9-0.2,1.3-0.4c0.3-0.2,0.6-0.5,0.9-0.8s0.4-0.8,0.6-1.2c0.2-0.4,0.3-0.9,0.4-1.5l2.7-11.8h-2.5l-1.1,5.4
	l-0.6,3.7l-0.8-3.7l-1.3-5.4h-2.5L407.9,330.7z M398.3,334.3v-4.9l0.8-1.4l2.4,6.3h2.6l-3.5-8.8l3.5-7.1h-2.5l-3.3,6.9v-6.9h-2.5
	v15.8h2.5V334.3z"/>
<path class="st1" d="M628,806.8c0-0.7,0.1-1.1,0.4-1.4c0.2-0.3,0.6-0.4,1-0.4s0.8,0.1,1,0.4c0.2,0.3,0.4,0.7,0.4,1.4v0.9
	c0,1.1-0.5,1.7-1.4,1.7s-1.4-0.6-1.4-1.7V806.8z M628,813.4c0-1.2,0.5-1.8,1.4-1.8s1.4,0.6,1.4,1.8v1.5c0,0.7-0.1,1.1-0.4,1.4
	c-0.2,0.3-0.6,0.4-1,0.4s-0.8-0.1-1-0.4c-0.2-0.3-0.4-0.7-0.4-1.4V813.4z M626.5,817.9c0.7,0.7,1.6,1,2.9,1c1.3,0,2.2-0.3,2.9-1
	s1-1.7,1-2.9v-1.2c0-1.6-0.5-2.7-1.5-3.3c1-0.6,1.5-1.6,1.5-3.2v-0.5c0-1.3-0.3-2.2-1-2.9s-1.6-1-2.9-1c-1.3,0-2.2,0.3-2.9,1
	s-1,1.7-1,2.9v0.5c0,1.6,0.5,2.6,1.5,3.2c-1,0.6-1.5,1.7-1.5,3.3v1.2C625.5,816.2,625.8,817.2,626.5,817.9 M624.1,816.5h-2.5v2.3
	h2.5V816.5z M614.8,806.8c0-0.7,0.1-1.1,0.4-1.4c0.2-0.3,0.6-0.4,1-0.4s0.8,0.1,1,0.4c0.2,0.3,0.4,0.7,0.4,1.4v0.9
	c0,1.1-0.5,1.7-1.4,1.7s-1.4-0.6-1.4-1.7V806.8z M614.8,813.4c0-1.2,0.5-1.8,1.4-1.8s1.4,0.6,1.4,1.8v1.5c0,0.7-0.1,1.1-0.4,1.4
	c-0.2,0.3-0.6,0.4-1,0.4s-0.8-0.1-1-0.4c-0.2-0.3-0.4-0.7-0.4-1.4V813.4z M613.3,817.9c0.7,0.7,1.6,1,2.9,1c1.3,0,2.2-0.3,2.9-1
	s1-1.7,1-2.9v-1.2c0-1.6-0.5-2.7-1.5-3.3c1-0.6,1.5-1.6,1.5-3.2v-0.5c0-1.3-0.3-2.2-1-2.9s-1.6-1-2.9-1c-1.3,0-2.2,0.3-2.9,1
	s-1,1.7-1,2.9v0.5c0,1.6,0.5,2.6,1.5,3.2c-1,0.6-1.5,1.7-1.5,3.3v1.2C612.3,816.2,612.7,817.2,613.3,817.9 M607.1,806.7v12.1h2.5
	V803H608c-0.1,0.3-0.2,0.5-0.3,0.6c-0.1,0.2-0.2,0.3-0.3,0.5s-0.3,0.3-0.5,0.5c-0.2,0.1-0.4,0.2-0.7,0.3s-0.6,0.1-1,0.1v1.8
	L607.1,806.7L607.1,806.7z"/>
<path class="st1" d="M674.8,778.6l1.2,8h-2.4L674.8,778.6z M672.8,791.6l0.4-2.9h3l0.4,2.9h2.5l-2.5-15.8h-3.8l-2.5,15.8H672.8z
	 M664.8,778v13.6h2.5V778h2.6v-2.3h-7.7v2.3H664.8z M657.5,778.6l1.2,8h-2.4L657.5,778.6z M655.6,791.6l0.4-2.9h3l0.4,2.9h2.5
	l-2.5-15.8h-3.8l-2.5,15.8H655.6z M646.6,791.6v-6.8h2.8v6.8h2.5v-15.8h-2.5v6.8h-2.8v-6.8h-2.5v15.8H646.6z M634,791.6v-11.2
	l1.9,11.2h2.4l1.7-11.4v11.4h2.5v-15.8h-3.6l-1.7,11.3l-1.8-11.3h-3.5v15.8H634z M625.2,779.4c0-1,0.4-1.6,1.3-1.6
	c0.9,0,1.3,0.5,1.3,1.6v8.6c0,1-0.4,1.6-1.3,1.6c-0.9,0-1.3-0.5-1.3-1.6V779.4z M623.7,790.7c0.7,0.7,1.6,1,2.8,1s2.2-0.3,2.8-1
	s1-1.7,1-2.9v-8.2c0-1.3-0.3-2.2-1-2.9c-0.6-0.7-1.6-1-2.8-1s-2.2,0.3-2.8,1c-0.7,0.7-1,1.7-1,2.9v8.2
	C622.7,789.1,623,790,623.7,790.7 M616,791.6v-4.9l0.8-1.4l2.4,6.3h2.6l-3.5-8.8l3.5-7.1h-2.5l-3.3,6.9v-6.9h-2.5v15.8h2.5V791.6z
	 M603.3,779.6c0-0.6,0.1-1,0.3-1.2c0.2-0.3,0.5-0.4,1-0.4h1.2v4.9h-1c-0.5,0-0.9-0.1-1.1-0.4c-0.3-0.3-0.4-0.7-0.4-1.3V779.6z
	 M603,791.6c0.1-0.2,0.1-0.3,0.1-0.4c0-0.1,0-0.3,0.1-0.5c0-0.3,0-0.6,0-1v-2.5c0-0.7,0.1-1.2,0.4-1.6c0.3-0.3,0.7-0.5,1.2-0.5h0.9
	v6.5h2.5v-15.8h-3.8c-1.3,0-2.2,0.3-2.8,0.9c-0.6,0.6-0.9,1.5-0.9,2.8v1.2c0,1.6,0.5,2.7,1.6,3.2c-0.6,0.3-1,0.7-1.3,1.2
	c-0.3,0.6-0.4,1.3-0.4,2.2v2.4c0,0.9-0.1,1.5-0.2,1.9L603,791.6L603,791.6z M595.5,778.6l1.2,8h-2.4L595.5,778.6z M593.6,791.6
	l0.4-2.9h3l0.4,2.9h2.5l-2.5-15.8h-3.8l-2.5,15.8H593.6z M581.3,791.6c1.2,0,2.2-0.3,2.7-0.9c0.6-0.6,0.9-1.7,0.9-3.1l0.3-9.6h2.2
	v13.6h2.5v-15.8h-7.1l-0.3,12c0,0.4,0,0.7-0.1,0.9s-0.1,0.4-0.3,0.5c-0.1,0.1-0.3,0.2-0.4,0.2c-0.2,0-0.4,0-0.7,0v2.3h0.3V791.6z
	 M574.5,791.6l2.1-7.3l1-3.9v11.1h2.5v-15.8h-3l-2,6.5l-0.9,3.5v-10H572v15.8h2.5V791.6z M560,791.6l2.3-7.1l0.6,1.2v5.8h2.5v-5.8
	l0.6-1.2l2.3,7h2.5l-3.1-9.4l3.1-6.5h-2.4l-2.9,6.4v-6.4H563v6.4l-2.9-6.4h-2.4l3.1,6.5l-3.1,9.3h2.3V791.6z"/>
<path class="st1" d="M626.7,331.9c0-1,0.4-1.5,1.3-1.5c0.9,0,1.3,0.5,1.3,1.5v2.9c0,1-0.4,1.6-1.3,1.6c-0.9,0-1.3-0.5-1.3-1.6V331.9
	z M624.9,337.6c0.5,0.6,1.1,0.9,2.1,0.9c1.1,0,1.9-0.5,2.3-1.4v2.9c0,0.7-0.1,1.2-0.3,1.5s-0.6,0.4-1,0.4c-0.9,0-1.3-0.5-1.3-1.6
	v-0.6h-2.3v0.4c0,1.3,0.3,2.3,0.9,2.9c0.6,0.7,1.6,1,2.8,1c2.5,0,3.8-1.4,3.8-4.1v-8.1c0-1.3-0.3-2.2-1-2.9c-0.7-0.7-1.6-1-2.8-1
	s-2.2,0.3-2.8,1c-0.7,0.7-1,1.7-1,2.9v2.9C624.2,336.1,624.4,337,624.9,337.6 M622.7,341.8h-2.5v2.3h2.5V341.8z M614.7,332v12.1h2.5
	v-15.8h-1.7c-0.1,0.3-0.2,0.5-0.3,0.6c-0.1,0.2-0.2,0.3-0.3,0.5s-0.3,0.3-0.5,0.5c-0.2,0.1-0.4,0.2-0.7,0.3c-0.3,0.1-0.6,0.1-1,0.1
	v1.8h2V332z M605.8,332v12.1h2.5v-15.8h-1.7c-0.1,0.3-0.2,0.5-0.3,0.6c-0.1,0.2-0.2,0.3-0.3,0.5s-0.3,0.3-0.5,0.5
	c-0.2,0.1-0.4,0.2-0.7,0.3c-0.3,0.1-0.6,0.1-1,0.1v1.8h2V332z"/>
<path class="st1" d="M673.4,303.9l1.2,8h-2.4L673.4,303.9z M671.5,316.9l0.4-2.9h3l0.4,2.9h2.5l-2.5-15.8h-3.8l-2.5,15.8H671.5z
	 M663.5,303.4V317h2.5v-13.6h2.6v-2.3h-7.7v2.3H663.5z M656.2,303.9l1.2,8H655L656.2,303.9z M654.2,316.9l0.4-2.9h3l0.4,2.9h2.5
	l-2.5-15.8h-3.8l-2.5,15.8H654.2z M645.2,316.9v-6.8h2.8v6.8h2.5v-15.8H648v6.8h-2.8v-6.8h-2.5v15.8H645.2z M632.6,316.9v-11.2
	l1.9,11.2h2.4l1.7-11.4v11.4h2.5v-15.8h-3.6l-1.7,11.3l-1.8-11.3h-3.5v15.8H632.6z M623.8,304.7c0-1,0.4-1.6,1.3-1.6
	c0.9,0,1.3,0.5,1.3,1.6v8.6c0,1-0.4,1.6-1.3,1.6c-0.9,0-1.3-0.5-1.3-1.6V304.7z M622.3,316.1c0.7,0.7,1.6,1,2.8,1s2.2-0.3,2.8-1
	s1-1.7,1-2.9V305c0-1.3-0.3-2.2-1-2.9c-0.6-0.7-1.6-1-2.8-1s-2.2,0.3-2.8,1c-0.7,0.7-1,1.7-1,2.9v8.2
	C621.3,314.4,621.6,315.4,622.3,316.1 M614.7,316.9V312l0.8-1.4l2.4,6.3h2.6l-3.5-8.8l3.5-7.1H618l-3.3,6.9V301h-2.5v15.8h2.5V316.9
	z M601.9,305c0-0.6,0.1-1,0.3-1.2c0.2-0.3,0.5-0.4,1-0.4h1.2v4.9h-1c-0.5,0-0.9-0.1-1.1-0.4c-0.3-0.3-0.4-0.7-0.4-1.3V305z
	 M601.7,316.9c0.1-0.2,0.1-0.3,0.1-0.4s0-0.3,0.1-0.5c0-0.3,0-0.6,0-1v-2.5c0-0.7,0.1-1.2,0.4-1.6c0.3-0.3,0.7-0.5,1.2-0.5h0.9v6.5
	h2.5v-15.8h-3.8c-1.3,0-2.2,0.3-2.8,0.9s-0.9,1.5-0.9,2.8v1.2c0,1.6,0.5,2.7,1.6,3.2c-0.6,0.3-1,0.7-1.3,1.2
	c-0.3,0.6-0.4,1.3-0.4,2.2v2.4c0,0.9-0.1,1.5-0.2,1.9L601.7,316.9L601.7,316.9z M594.2,303.9l1.2,8H593L594.2,303.9z M592.2,316.9
	l0.4-2.9h3l0.4,2.9h2.5l-2.5-15.8h-3.8l-2.5,15.8H592.2z M579.9,317c1.2,0,2.2-0.3,2.7-0.9c0.6-0.6,0.9-1.7,0.9-3.1l0.3-9.6h2.2V317
	h2.5v-15.8h-7.1l-0.3,12c0,0.4,0,0.7-0.1,0.9c-0.1,0.2-0.1,0.4-0.3,0.5c-0.1,0.1-0.3,0.2-0.4,0.2c-0.2,0-0.4,0-0.7,0v2.3h0.3V317z
	 M573.1,316.9l2.1-7.3l1-3.9v11.1h2.5V301h-3l-2,6.5l-0.9,3.5v-10h-2.2v15.8L573.1,316.9L573.1,316.9z M558.6,316.9l2.3-7.1l0.6,1.2
	v5.8h2.5V311l0.6-1.2l2.3,7h2.5l-3.1-9.4l3.1-6.5H567l-2.9,6.4v-6.4h-2.5v6.4l-2.9-6.4h-2.4l3.1,6.5l-3.1,9.3h2.3V316.9z"/>
<path class="st1" d="M421.8,538.8c0.7,0.7,1.6,1,2.8,1c1.2,0,2.1-0.3,2.8-1c0.6-0.7,0.9-1.7,0.9-2.9v-1.2c0-1.7-0.6-2.8-1.7-3.3
	c1.2-0.5,1.7-1.6,1.7-3.3v-0.4c0-1.3-0.3-2.3-0.9-2.9c-0.6-0.7-1.6-1-2.8-1c-1.2,0-2.2,0.3-2.8,1c-0.7,0.7-1,1.7-1,2.9v0.9h2.5v-1
	c0-1,0.4-1.6,1.3-1.6c0.4,0,0.7,0.1,1,0.4c0.2,0.3,0.3,0.7,0.3,1.4v0.9c0,0.6-0.1,1-0.4,1.3c-0.2,0.3-0.6,0.4-1.1,0.4h-1v2.3h0.8
	c0.6,0,1,0.2,1.2,0.5c0.3,0.3,0.4,0.8,0.4,1.5v1.2c0,0.7-0.1,1.1-0.3,1.4c-0.2,0.3-0.5,0.4-1,0.4c-0.9,0-1.3-0.5-1.3-1.6v-1.5h-2.5
	v1.3C420.8,537.1,421.1,538.1,421.8,538.8 M419.2,537.4h-2.5v2.3h2.5V537.4z M412.5,526.1l-3.6,13.6h2.5l3.7-13.7v-2.2h-7.5v2.3
	L412.5,526.1L412.5,526.1z"/>
<path class="st1" d="M451.3,500.5c0-0.6,0.1-1,0.3-1.2c0.2-0.3,0.5-0.4,1-0.4h1.2v4.9h-1c-0.5,0-0.9-0.1-1.1-0.4
	c-0.3-0.3-0.4-0.7-0.4-1.3V500.5z M451,512.5c0.1-0.2,0.1-0.3,0.1-0.4c0-0.1,0-0.3,0.1-0.5c0-0.3,0-0.6,0-1v-2.5
	c0-0.7,0.1-1.2,0.4-1.6c0.3-0.3,0.7-0.5,1.2-0.5h0.9v6.5h2.5v-15.8h-3.8c-1.3,0-2.2,0.3-2.8,0.9c-0.6,0.6-0.9,1.5-0.9,2.8v1.2
	c0,1.6,0.5,2.7,1.6,3.2c-0.6,0.3-1,0.7-1.3,1.2c-0.3,0.6-0.4,1.3-0.4,2.2v2.4c0,0.9-0.1,1.5-0.2,1.9L451,512.5L451,512.5z
	 M443.5,499.5l1.2,8h-2.4L443.5,499.5z M441.6,512.5l0.4-2.9h3l0.4,2.9h2.5l-2.5-15.8h-3.8l-2.5,15.8H441.6z M427.9,512.5l2.3-7.1
	l0.6,1.2v5.8h2.5v-5.8l0.6-1.2l2.3,7h2.5l-3.1-9.4l3.1-6.5h-2.4l-2.9,6.4v-6.4h-2.5v6.4l-2.9-6.4h-2.4l3.1,6.5l-3.1,9.3h2.3V512.5z
	 M419.4,500.3c0-1,0.4-1.6,1.3-1.6s1.3,0.5,1.3,1.6v8.6c0,1-0.4,1.6-1.3,1.6s-1.3-0.5-1.3-1.6V500.3z M417.9,511.6
	c0.7,0.7,1.6,1,2.8,1c1.2,0,2.2-0.3,2.8-1c0.6-0.7,1-1.7,1-2.9v-8.2c0-1.3-0.3-2.2-1-2.9c-0.6-0.7-1.6-1-2.8-1c-1.2,0-2.2,0.3-2.8,1
	c-0.7,0.7-1,1.7-1,2.9v8.2C416.9,510,417.3,510.9,417.9,511.6 M409.3,512.5l1.9-5.9l1.9,5.9h2.5l-2.8-8.1l2.6-7.8h-2.2l-1.9,5.9
	l-1.9-5.9H407l2.6,7.7l-2.8,8.2H409.3z M400.3,512.5l2.1-7.3l1-3.9v11.1h2.5v-15.8h-3l-2,6.5l-0.9,3.5v-10h-2.2v15.8L400.3,512.5
	L400.3,512.5z M391.7,498.9h1.2c0.4,0,0.7,0.1,0.9,0.3c0.2,0.2,0.3,0.6,0.3,1.2v2.4c0,0.5-0.1,0.9-0.3,1.2c-0.2,0.2-0.5,0.3-0.9,0.3
	h-1.2V498.9z M391.7,512.5v-6h1.2c1.2,0,2.2-0.3,2.8-1c0.6-0.7,0.9-1.6,0.9-2.9v-2.1c0-1.3-0.3-2.2-0.9-2.9c-0.6-0.7-1.5-1-2.8-1
	h-3.7v15.8L391.7,512.5L391.7,512.5z M382.1,512.5v-13.6h2.8v13.6h2.5v-15.8h-7.8v15.8H382.1z"/>
<path class="st1" d="M637.5,763.2c1.5,1.6,3.7,2.4,6.5,2.4s4.9-0.8,6.3-2.4c1.4-1.6,2.2-3.8,2.2-6.7v-8.1c0-2.7-0.5-4.7-1.6-6.1
	c-1.1-1.4-2.6-2.1-4.7-2.1c-2.2,0-3.9,0.9-5,2.6l0.5-8.6h9.9V729h-15.2l-1.1,21h5.7v-1.1c0-2.4,1-3.6,2.9-3.6c2,0,2.9,1.2,2.9,3.6v8
	c0,2.4-1,3.5-2.9,3.5s-2.9-1.2-2.9-3.5v-3.4h-5.7v3C635.2,759.4,635.9,761.7,637.5,763.2 M631.5,760h-5.7v5.2h5.7V760z M615,739.8
	v13.6h-5.7L615,739.8z M615,758.6v6.6h5.7v-6.6h2.6v-5.2h-2.6V729h-6.2l-10.3,24.5v5.2H615V758.6z M590.2,750.3c0-2.4,1-3.6,3-3.6
	s2.9,1.2,2.9,3.6v6.5c0,2.4-1,3.5-2.9,3.5c-2,0-3-1.2-3-3.5V750.3z M586.8,763.2c1.5,1.6,3.6,2.4,6.4,2.4c2.8,0,4.9-0.8,6.4-2.4
	c1.5-1.6,2.2-3.8,2.2-6.7v-6.6c0-2.7-0.5-4.7-1.6-6.2c-1.1-1.4-2.6-2.1-4.7-2.1c-2.5,0-4.3,1.1-5.3,3.2v-6.6c0-1.7,0.3-2.8,0.8-3.5
	s1.3-1,2.4-1c2,0,3,1.2,3,3.6v1.3h5.4v-0.9c0-2.9-0.7-5.2-2.2-6.7c-1.4-1.6-3.5-2.4-6.3-2.4c-5.8,0-8.7,3.1-8.7,9.4v18.5
	C584.5,759.4,585.3,761.6,586.8,763.2"/>
<path class="st2" d="M618.3,718.4c17.5,0,31.7-14.2,31.7-31.7S635.8,655,618.3,655s-31.7,14.2-31.7,31.7S600.8,718.4,618.3,718.4z"
	/>
<path class="st1" d="M623.8,701.4V693l1.3-2.5l4.2,10.9h4.4l-6-15.2l6-12.2h-4.3l-5.6,12v-12h-4.3v27.4H623.8z M616.5,701.4v-3.9
	h-8.1c0-0.1,0-0.3,0-0.6c0-0.6,0.2-1.2,0.5-1.9c0.3-0.6,0.7-1.3,1.2-1.9c0.5-0.6,1.1-1.2,1.7-1.9c0.6-0.7,1.2-1.4,1.8-2.1
	c0.6-0.8,1.2-1.6,1.7-2.4c0.5-0.8,0.9-1.8,1.2-2.9c0.3-1.1,0.5-2.2,0.5-3.4c0-2.2-0.5-3.9-1.6-5.1c-1.1-1.2-2.7-1.8-4.8-1.8
	s-3.7,0.6-4.8,1.8s-1.7,2.9-1.7,5.1v2.7h4.1v-2.9c0-1.8,0.7-2.7,2.2-2.7c0.7,0,1.3,0.2,1.7,0.7s0.6,1.3,0.6,2.4c0,1.1-0.2,2.1-0.5,3
	s-0.7,1.8-1.2,2.5s-1.1,1.4-1.7,2.1c-0.6,0.7-1.2,1.4-1.8,2c-0.6,0.7-1.2,1.4-1.7,2.1c-0.5,0.7-0.9,1.6-1.2,2.5
	c-0.3,1-0.5,2-0.5,3.1v3.4h12.4V701.4z"/>
<line class="st2" x1="321.5" y1="433.5" x2="350.5" y2="433.5"/>
</svg>
