<?xml version="1.0" encoding="utf-8"?>
<!-- Generator: Adobe Illustrator 26.0.1, SVG Export Plug-In . SVG Version: 6.00 Build 0)  -->
<svg version="1.1" id="Слой_1" xmlns="http://www.w3.org/2000/svg" xmlns:xlink="http://www.w3.org/1999/xlink" x="0px" y="0px"
	 viewBox="0 0 1000 1000" style="enable-background:new 0 0 1000 1000;" xml:space="preserve">
<style type="text/css">
	.st0{fill:#ECDDEA;}
	.st1{fill:none;stroke:#39373A;stroke-width:0.75;}
	.st2{fill:#39373A;}
	.st3{fill:none;stroke:#39373A;stroke-width:0.75;stroke-dasharray:3.904,3.904;}
</style>
<rect x="329.3" y="209.1" class="st0" width="191.2" height="683.4"/>
<rect x="420.8" y="209.1" class="st0" width="301.2" height="361"/>
<rect x="529.8" y="94.5" class="st1" width="184.9" height="5.8"/>
<polygon class="st1" points="521.9,94.5 521.9,100.2 324.5,129.2 324.5,123.4 "/>
<rect x="476.9" y="910.8" class="st2" width="48.1" height="5.8"/>
<rect x="476.9" y="910.8" class="st1" width="53.1" height="5.8"/>
<rect x="347.8" y="910.8" class="st1" width="145.2" height="5.8"/>
<rect x="481.9" y="893.1" class="st2" width="48.1" height="18.8"/>
<rect x="315" y="910.8" class="st2" width="61" height="5.8"/>
<rect x="315" y="910.8" class="st1" width="61" height="5.8"/>
<rect x="315" y="893.1" class="st2" width="56" height="18.8"/>
<rect x="315" y="893.1" class="st1" width="56" height="18.8"/>
<rect x="356.4" y="893.1" class="st1" width="136.5" height="17.8"/>
<rect x="320.8" y="184.7" class="st2" width="54.2" height="5.8"/>
<rect x="320.8" y="184.7" class="st1" width="54.2" height="5.8"/>
<rect x="517" y="184.7" class="st2" width="61" height="5.8"/>
<rect x="517" y="184.7" class="st1" width="61" height="5.8"/>
<rect x="359" y="184.7" class="st1" width="83.5" height="5.8"/>
<rect x="562" y="184.7" class="st1" width="83.5" height="5.8"/>
<rect x="318.2" y="189.5" class="st2" width="51.9" height="18.8"/>
<rect x="318.2" y="189.5" class="st1" width="51.9" height="18.8"/>
<rect x="517" y="189.5" class="st2" width="56" height="18.8"/>
<rect x="517" y="189.5" class="st1" width="56" height="18.8"/>
<rect x="475.9" y="184.7" class="st2" width="61" height="5.8"/>
<rect x="475.9" y="184.7" class="st1" width="61" height="5.8"/>
<rect x="480.9" y="189.5" class="st2" width="56" height="18.8"/>
<rect x="480.9" y="189.5" class="st1" width="56" height="18.8"/>
<rect x="678.9" y="184.7" class="st2" width="53.1" height="5.8"/>
<rect x="678.9" y="184.7" class="st1" width="53.1" height="5.8"/>
<rect x="683.9" y="189.5" class="st2" width="48.1" height="18.8"/>
<rect x="683.9" y="189.5" class="st1" width="48.1" height="18.8"/>
<rect x="359" y="190.5" class="st1" width="78.5" height="17.8"/>
<rect x="562" y="190.5" class="st1" width="78.5" height="17.8"/>
<path class="st1" d="M437.9,191c0,0,2,8.3,4.1,14c2.1,5.7,4.7,8.8,4.7,8.8l37.2-21.4l-1.1-1.8l-37.4,21"/>
<path class="st1" d="M640.9,191c0,0,2,8.3,4.1,14c2.1,5.7,4.7,8.8,4.7,8.8l37.2-21.4l-1.1-1.8l-37.4,21"/>
<path class="st1" d="M580,450.2c0,0,0-7.2-3.2-16.3c-2.7-7.6-8-14.6-8-14.6l-44.5,25.3l1.1,1.8l44.6-25.4"/>
<path class="st1" d="M472.1,415.5c0,0,0-7.2,3.2-16.3c2.7-7.6,8-14.6,8-14.6l44.5,25.3l-1.1,1.8L482,386.4"/>
<path class="st1" d="M472.2,572.1c0,0,0,7.2,3.2,16.3c2.7,7.6,8,14.6,8,14.6l50-29l-1.1-1.8l-50.1,29"/>
<path class="st1" d="M730.2,500.4c0,0-7.2,0-16.3,3.2c-7.6,2.7-14.6,8-14.6,8l31.2,54.4l1.8-1.1l-31.3-54.5"/>
<rect x="521.2" y="534.1" class="st2" width="9.2" height="382.9"/>
<rect x="521.2" y="534.1" class="st1" width="9.2" height="382.9"/>
<rect x="521.2" y="195.9" class="st2" width="9.2" height="279.5"/>
<rect x="521.2" y="195.9" class="st1" width="9.2" height="279.5"/>
<rect x="521.2" y="92.6" class="st2" width="9.2" height="53.9"/>
<rect x="521.2" y="92.6" class="st1" width="9.2" height="53.9"/>
<rect x="315.4" y="120.9" class="st2" width="13.3" height="794"/>
<rect x="315.4" y="120.9" class="st1" width="13.3" height="794"/>
<rect x="579.6" y="441.9" class="st2" width="153.4" height="9.2"/>
<rect x="579.6" y="441.9" class="st1" width="153.4" height="9.2"/>
<rect x="322.7" y="405.8" class="st2" width="149.2" height="9.2"/>
<rect x="322.7" y="405.8" class="st1" width="149.2" height="9.2"/>
<rect x="699.8" y="93" class="st2" width="23.3" height="97.5"/>
<rect x="722.6" y="93" class="st2" width="10.8" height="407.7"/>
<rect x="722.6" y="93" class="st1" width="10.8" height="407.7"/>
<rect x="722.6" y="552.4" class="st2" width="10.8" height="28.6"/>
<rect x="521.2" y="570.7" class="st2" width="206.3" height="9.8"/>
<rect x="521.2" y="570.7" class="st1" width="206.3" height="9.8"/>
<rect x="322.7" y="570.7" class="st2" width="149.8" height="9.8"/>
<rect x="322.7" y="570.7" class="st1" width="149.8" height="9.8"/>
<rect x="346.1" y="521.5" class="st1" width="16" height="47.9"/>
<line class="st1" x1="348.7" y1="569.3" x2="348.7" y2="521.2"/>
<polyline class="st1" points="348.7,566.9 360.2,565.9 360.2,535.6 348.7,534.2 348.7,532.2 360.4,530.9 360.4,524.1 348.7,522.7 
	"/>
<rect x="330" y="521.5" class="st1" width="16" height="47.9"/>
<line class="st1" x1="332.5" y1="521.6" x2="332.5" y2="569.7"/>
<polyline class="st1" points="332.5,524 344.1,525.1 344.1,555.4 332.5,556.7 332.5,558.7 344.2,560 344.2,566.8 332.5,568.3 "/>
<path class="st2" d="M428.3,557.4c0.4,0.4,1,0.6,1.7,0.6c0.7,0,1.3-0.2,1.7-0.6c0.4-0.4,0.6-1,0.6-1.8v-0.8c0-1-0.4-1.7-1.1-2
	c0.7-0.3,1.1-1,1.1-2v-0.2c0-0.8-0.2-1.4-0.6-1.8c-0.4-0.4-0.9-0.6-1.7-0.6c-0.7,0-1.3,0.2-1.7,0.6c-0.4,0.4-0.6,1-0.6,1.8v0.5h1.5
	v-0.6c0-0.6,0.3-1,0.8-1c0.3,0,0.5,0.1,0.6,0.2c0.1,0.2,0.2,0.4,0.2,0.9v0.5c0,0.4-0.1,0.6-0.2,0.8c-0.2,0.2-0.4,0.2-0.7,0.2h-0.6
	v1.4h0.5c0.4,0,0.6,0.1,0.8,0.3c0.2,0.2,0.2,0.5,0.2,0.9v0.8c0,0.4-0.1,0.7-0.2,0.8c-0.1,0.2-0.3,0.2-0.6,0.2c-0.5,0-0.8-0.3-0.8-1
	v-0.9h-1.5v0.8C427.7,556.3,427.9,556.9,428.3,557.4 M426.8,556.5h-1.5v1.4h1.5V556.5z M421.9,550.5v7.4h1.5v-9.7h-1
	c-0.1,0.2-0.1,0.3-0.2,0.4c0,0.1-0.1,0.2-0.2,0.3c-0.1,0.1-0.2,0.2-0.3,0.3c-0.1,0.1-0.2,0.1-0.4,0.2c-0.2,0-0.4,0.1-0.6,0.1v1.1
	H421.9z"/>
<path class="st2" d="M430.7,539.1L430.7,539.1c-0.1,0.4-0.2,0.6-0.4,0.7c-0.2,0.1-0.5,0.1-0.9,0.1v1.4c0.4,0,0.8,0,1.1,0
	c0.3-0.1,0.6-0.1,0.8-0.3c0.2-0.1,0.4-0.3,0.5-0.5c0.1-0.2,0.3-0.5,0.4-0.7c0.1-0.3,0.2-0.6,0.3-0.9l1.6-7.2h-1.5l-0.7,3.3l-0.4,2.2
	l-0.5-2.3l-0.8-3.3h-1.5L430.7,539.1z M424.6,541.3l3.8-9.6h-1.3l-3.8,9.6H424.6z M418.9,540.8c0.4,0.4,0.9,0.6,1.7,0.6
	s1.3-0.2,1.7-0.6c0.4-0.4,0.6-1,0.6-1.8v-1.3h-1.5v1.4c0,0.6-0.3,0.9-0.8,0.9c-0.5,0-0.8-0.3-0.8-0.9v-5.2c0-0.6,0.3-0.9,0.8-0.9
	c0.5,0,0.8,0.3,0.8,0.9v1h1.5V534c0-0.8-0.2-1.4-0.6-1.8s-1-0.6-1.7-0.6s-1.3,0.2-1.7,0.6s-0.6,1-0.6,1.8v5
	C418.3,539.8,418.5,540.4,418.9,540.8"/>
<path class="st2" d="M362.5,582h30.1v29.7h-30.1V582z M393.3,581.4h-31.4v31h31.4V581.4z"/>
<path class="st1" d="M362.5,582h30.1v29.7h-30.1V582z M393.3,581.4h-31.4v31h31.4V581.4z"/>
<path class="st2" d="M367,609c-0.7,0-1.3-0.6-1.3-1.3v-15.6c0-0.7,0.6-1.3,1.3-1.3h21.1c0.7,0,1.3,0.6,1.3,1.3v15.6
	c0,0.7-0.6,1.3-1.3,1.3H367z M388.1,590.1H367c-1.1,0-2,0.9-2,2v15.6c0,1.1,0.9,2,2,2h21.1c1.1,0,2-0.9,2-2v-15.6
	C390.1,591,389.2,590.1,388.1,590.1"/>
<path class="st1" d="M367,609c-0.7,0-1.3-0.6-1.3-1.3v-15.6c0-0.7,0.6-1.3,1.3-1.3h21.1c0.7,0,1.3,0.6,1.3,1.3v15.6
	c0,0.7-0.6,1.3-1.3,1.3H367z M388.1,590.1H367c-1.1,0-2,0.9-2,2v15.6c0,1.1,0.9,2,2,2h21.1c1.1,0,2-0.9,2-2v-15.6
	C390.1,591,389.2,590.1,388.1,590.1z"/>
<path class="st2" d="M368,593.1h19.1v13.6H368V593.1z M387.8,592.4h-20.4v15h20.4V592.4z"/>
<path class="st1" d="M368,593.1h19.1v13.6H368V593.1z M387.8,592.4h-20.4v15h20.4V592.4z"/>
<path class="st2" d="M377.6,602.5c-1,0-1.7-0.8-1.7-1.7s0.8-1.7,1.7-1.7s1.7,0.8,1.7,1.7S378.5,602.5,377.6,602.5 M377.6,598.5
	c-1.3,0-2.4,1.1-2.4,2.4c0,1.3,1.1,2.4,2.4,2.4c1.3,0,2.4-1.1,2.4-2.4C380,599.5,378.9,598.5,377.6,598.5"/>
<path class="st1" d="M377.6,602.5c-1,0-1.7-0.8-1.7-1.7s0.8-1.7,1.7-1.7s1.7,0.8,1.7,1.7S378.5,602.5,377.6,602.5z M377.6,598.5
	c-1.3,0-2.4,1.1-2.4,2.4c0,1.3,1.1,2.4,2.4,2.4c1.3,0,2.4-1.1,2.4-2.4C380,599.5,378.9,598.5,377.6,598.5z"/>
<path class="st2" d="M406.9,545.3c0,6.1-5,11.1-11.1,11.1h-16c-1.1,0-1.9-0.9-1.9-1.9v-18.3c0-1.1,0.9-1.9,1.9-1.9h16
	C401.9,534.3,406.9,539.2,406.9,545.3 M377.1,536.2v18.3c0,1.5,1.2,2.7,2.7,2.7h16c6.5,0,11.8-5.3,11.8-11.8
	c0-6.5-5.3-11.8-11.8-11.8h-16C378.3,533.5,377.1,534.7,377.1,536.2"/>
<path class="st1" d="M406.9,545.3c0,6.1-5,11.1-11.1,11.1h-16c-1.1,0-1.9-0.9-1.9-1.9v-18.3c0-1.1,0.9-1.9,1.9-1.9h16
	C401.9,534.3,406.9,539.2,406.9,545.3z M377.1,536.2v18.3c0,1.5,1.2,2.7,2.7,2.7h16c6.5,0,11.8-5.3,11.8-11.8
	c0-6.5-5.3-11.8-11.8-11.8h-16C378.3,533.5,377.1,534.7,377.1,536.2z"/>
<path class="st1" d="M383.2,553.3v-15.9c0-0.1,0.1-0.2,0.2-0.2h12.1c4.5,0,8.1,3.7,8.1,8.1c0,4.5-3.7,8.1-8.1,8.1h-12.1
	C383.3,553.5,383.2,553.4,383.2,553.3z"/>
<path class="st2" d="M383.6,553.1v-15.5h11.9c4.3,0,7.8,3.5,7.8,7.8s-3.5,7.8-7.8,7.8H383.6z M382.8,537.4v15.9
	c0,0.3,0.3,0.6,0.6,0.6h12.1c4.7,0,8.5-3.8,8.5-8.5c0-4.7-3.8-8.5-8.5-8.5h-12.1C383.1,536.8,382.8,537.1,382.8,537.4"/>
<path class="st1" d="M383.6,553.1v-15.5h11.9c4.3,0,7.8,3.5,7.8,7.8s-3.5,7.8-7.8,7.8H383.6z M382.8,537.4v15.9
	c0,0.3,0.3,0.6,0.6,0.6h12.1c4.7,0,8.5-3.8,8.5-8.5c0-4.7-3.8-8.5-8.5-8.5h-12.1C383.1,536.8,382.8,537.1,382.8,537.4z"/>
<path class="st2" d="M395.5,545.3c0,1.2-0.9,2.1-2.1,2.1c-1.2,0-2.1-0.9-2.1-2.1c0-1.2,0.9-2.1,2.1-2.1
	C394.6,543.2,395.5,544.2,395.5,545.3 M390.5,545.3c0,1.6,1.3,2.9,2.9,2.9c1.6,0,2.9-1.3,2.9-2.9c0-1.6-1.3-2.9-2.9-2.9
	C391.8,542.5,390.5,543.8,390.5,545.3"/>
<path class="st1" d="M395.5,545.3c0,1.2-0.9,2.1-2.1,2.1c-1.2,0-2.1-0.9-2.1-2.1c0-1.2,0.9-2.1,2.1-2.1
	C394.6,543.2,395.5,544.2,395.5,545.3z M390.5,545.3c0,1.6,1.3,2.9,2.9,2.9c1.6,0,2.9-1.3,2.9-2.9c0-1.6-1.3-2.9-2.9-2.9
	C391.8,542.5,390.5,543.8,390.5,545.3z"/>
<polygon class="st2" points="384.7,551.5 385.2,552.1 390.3,548.3 389.8,547.7 "/>
<polygon class="st1" points="384.7,551.5 385.2,552.1 390.3,548.3 389.8,547.7 "/>
<rect x="387.1" y="537.7" transform="matrix(0.5991 -0.8007 0.8007 0.5991 -277.7173 527.1215)" class="st2" width="0.8" height="6.4"/>
<rect x="387.1" y="537.7" transform="matrix(0.5991 -0.8007 0.8007 0.5991 -277.7173 527.1215)" class="st1" width="0.8" height="6.4"/>
<path class="st2" d="M377,553c0,1.7-1.4,3.1-3.1,3.1h-4.2c-1.7,0-3.1-1.4-3.1-3.1v-15.3c0-1.7,1.4-3.1,3.1-3.1h4.2
	c1.7,0,3.1,1.4,3.1,3.1V553z M366,537.7V553c0,2.1,1.7,3.8,3.8,3.8h4.2c2.1,0,3.8-1.7,3.8-3.8v-15.3c0-2.1-1.7-3.8-3.8-3.8h-4.2
	C367.7,533.9,366,535.6,366,537.7"/>
<path class="st1" d="M377,553c0,1.7-1.4,3.1-3.1,3.1h-4.2c-1.7,0-3.1-1.4-3.1-3.1v-15.3c0-1.7,1.4-3.1,3.1-3.1h4.2
	c1.7,0,3.1,1.4,3.1,3.1V553z M366,537.7V553c0,2.1,1.7,3.8,3.8,3.8h4.2c2.1,0,3.8-1.7,3.8-3.8v-15.3c0-2.1-1.7-3.8-3.8-3.8h-4.2
	C367.7,533.9,366,535.6,366,537.7z"/>
<path class="st2" d="M373.1,545.3c0,0.7-0.5,1.2-1.2,1.2c-0.7,0-1.2-0.5-1.2-1.2c0-0.7,0.5-1.2,1.2-1.2
	C372.5,544.2,373.1,544.7,373.1,545.3 M369.9,545.3c0,1.1,0.9,1.9,1.9,1.9c1.1,0,2-0.9,2-1.9c0-1.1-0.9-1.9-2-1.9
	C370.8,543.4,369.9,544.3,369.9,545.3"/>
<path class="st1" d="M373.1,545.3c0,0.7-0.5,1.2-1.2,1.2c-0.7,0-1.2-0.5-1.2-1.2c0-0.7,0.5-1.2,1.2-1.2
	C372.5,544.2,373.1,544.7,373.1,545.3z M369.9,545.3c0,1.1,0.9,1.9,1.9,1.9c1.1,0,2-0.9,2-1.9c0-1.1-0.9-1.9-2-1.9
	C370.8,543.4,369.9,544.3,369.9,545.3z"/>
<path class="st2" d="M389.7,489.2c5.6,0,10.1,4.5,10.1,10.1V510c0,0.8-0.7,1.5-1.5,1.5h-22.9c-0.8,0-1.5-0.7-1.5-1.5v-10.7
	c0-5.6,4.5-10.1,10.1-10.1H389.7z M375.4,512.1h22.9c1.2,0,2.1-0.9,2.1-2.1v-10.7c0-5.9-4.8-10.7-10.7-10.7h-5.7
	c-5.9,0-10.7,4.8-10.7,10.7V510C373.2,511.2,374.2,512.1,375.4,512.1"/>
<path class="st1" d="M389.7,489.2c5.6,0,10.1,4.5,10.1,10.1V510c0,0.8-0.7,1.5-1.5,1.5h-22.9c-0.8,0-1.5-0.7-1.5-1.5v-10.7
	c0-5.6,4.5-10.1,10.1-10.1H389.7z M375.4,512.1h22.9c1.2,0,2.1-0.9,2.1-2.1v-10.7c0-5.9-4.8-10.7-10.7-10.7h-5.7
	c-5.9,0-10.7,4.8-10.7,10.7V510C373.2,511.2,374.2,512.1,375.4,512.1z"/>
<path class="st2" d="M389.7,491.7c4.2,0,7.6,3.4,7.6,7.6v6.3c0,0.7-0.6,1.3-1.3,1.3h-18.2c-0.7,0-1.3-0.6-1.3-1.3v-6.3
	c0-4.2,3.4-7.6,7.6-7.6H389.7z M377.7,507.5h18.2c1,0,1.9-0.9,1.9-1.9v-6.3c0-4.5-3.7-8.2-8.2-8.2h-5.7c-4.5,0-8.2,3.7-8.2,8.2v6.3
	C375.8,506.6,376.6,507.5,377.7,507.5"/>
<path class="st1" d="M389.7,491.7c4.2,0,7.6,3.4,7.6,7.6v6.3c0,0.7-0.6,1.3-1.3,1.3h-18.2c-0.7,0-1.3-0.6-1.3-1.3v-6.3
	c0-4.2,3.4-7.6,7.6-7.6H389.7z M377.7,507.5h18.2c1,0,1.9-0.9,1.9-1.9v-6.3c0-4.5-3.7-8.2-8.2-8.2h-5.7c-4.5,0-8.2,3.7-8.2,8.2v6.3
	C375.8,506.6,376.6,507.5,377.7,507.5z"/>
<path class="st2" d="M386.8,497c0.7,0,1.3,0.6,1.3,1.3c0,0.7-0.6,1.3-1.3,1.3s-1.3-0.6-1.3-1.3C385.5,497.6,386.1,497,386.8,497
	 M386.8,500.1c1,0,1.8-0.8,1.8-1.8c0-1-0.8-1.8-1.8-1.8s-1.8,0.8-1.8,1.8C385,499.3,385.8,500.1,386.8,500.1"/>
<path class="st1" d="M386.8,497c0.7,0,1.3,0.6,1.3,1.3c0,0.7-0.6,1.3-1.3,1.3s-1.3-0.6-1.3-1.3C385.5,497.6,386.1,497,386.8,497z
	 M386.8,500.1c1,0,1.8-0.8,1.8-1.8c0-1-0.8-1.8-1.8-1.8s-1.8,0.8-1.8,1.8C385,499.3,385.8,500.1,386.8,500.1z"/>
<path class="st1" d="M349.8,493.7c-0.8,0-1.5-0.7-1.5-1.5c0-0.8,0.7-1.5,1.5-1.5c0.8,0,1.5,0.7,1.5,1.5
	C351.3,493.1,350.6,493.7,349.8,493.7z"/>
<path class="st1" d="M356.8,419.5c5.6,0,10.1,4.5,10.1,10.1v68.7c0,5.6-4.5,10.1-10.1,10.1h-14c-5.6,0-10.1-4.5-10.1-10.1v-68.7
	c0-5.6,4.5-10.1,10.1-10.1H356.8z"/>
<path class="st1" d="M353.6,425.6c5.6,0,10.1,4.5,10.1,10.1v56.4c0,5.6-4.5,10.1-10.1,10.1H346c-5.6,0-10.1-4.5-10.1-10.1v-56.4
	c0-5.6,4.5-10.1,10.1-10.1H353.6z"/>
<path class="st1" d="M355.6,433.1c2.8,0,5,2.3,5,5v55.6c0,2.8-2.3,5-5,5H344c-2.8,0-5-2.3-5-5v-55.6c0-2.8,2.3-5,5-5H355.6z"/>
<polygon class="st1" points="329.9,511.8 329.9,511.8 329.9,416 369.7,416 369.7,511.8 "/>
<rect x="322.1" y="514.2" class="st2" width="127.4" height="6"/>
<rect x="322.1" y="514.2" class="st1" width="127.4" height="6"/>
<path class="st1" d="M446.5,533.2c0,0,2.7-0.3,10.2,2.4c6.3,2.2,12.2,6.7,12.2,6.7l-18,30.9l-1.5-0.9l18-31"/>
<path class="st1" d="M446.5,482.3c0,0,2.7,0.3,10.2-2.4c6.3-2.2,12.2-6.7,12.2-6.7l-18-30.9l-1.5,0.9l18,31"/>
<rect x="447" y="413.6" class="st2" width="6" height="35.2"/>
<rect x="447" y="413.6" class="st1" width="6" height="35.2"/>
<rect x="447" y="481.1" class="st2" width="6" height="51.9"/>
<rect x="447" y="481.1" class="st1" width="6" height="51.9"/>
<path class="st2" d="M511.4,522.2c0.5,0.5,1.3,0.8,2.2,0.8c1,0,1.7-0.3,2.2-0.8c0.5-0.5,0.7-1.3,0.7-2.3v-1c0-1.4-0.5-2.2-1.4-2.6
	c0.9-0.4,1.4-1.2,1.4-2.6v-0.3c0-1-0.3-1.8-0.7-2.3c-0.5-0.5-1.2-0.8-2.2-0.8c-1,0-1.7,0.3-2.2,0.8c-0.5,0.5-0.8,1.3-0.8,2.3v0.7h2
	v-0.8c0-0.8,0.3-1.2,1-1.2c0.3,0,0.6,0.1,0.8,0.3c0.2,0.2,0.3,0.6,0.3,1.1v0.7c0,0.5-0.1,0.8-0.3,1c-0.2,0.2-0.5,0.3-0.9,0.3h-0.8
	v1.8h0.7c0.5,0,0.8,0.1,1,0.4c0.2,0.2,0.3,0.7,0.3,1.2v1c0,0.5-0.1,0.9-0.3,1.1c-0.2,0.2-0.4,0.3-0.8,0.3c-0.7,0-1-0.4-1-1.2v-1.2
	h-2v1C510.6,520.9,510.9,521.7,511.4,522.2 M509.4,521.1h-2v1.8h2V521.1z M501,522.2c0.5,0.5,1.3,0.8,2.2,0.8s1.7-0.3,2.2-0.8
	c0.5-0.5,0.7-1.3,0.7-2.3v-1c0-1.4-0.5-2.2-1.4-2.6c0.9-0.4,1.4-1.2,1.4-2.6v-0.3c0-1-0.3-1.8-0.7-2.3c-0.5-0.5-1.2-0.8-2.2-0.8
	s-1.7,0.3-2.2,0.8c-0.5,0.5-0.8,1.3-0.8,2.3v0.7h2v-0.8c0-0.8,0.3-1.2,1-1.2c0.3,0,0.6,0.1,0.8,0.3c0.2,0.2,0.3,0.6,0.3,1.1v0.7
	c0,0.5-0.1,0.8-0.3,1c-0.2,0.2-0.5,0.3-0.9,0.3h-0.8v1.8h0.7c0.5,0,0.8,0.1,1,0.4c0.2,0.2,0.3,0.7,0.3,1.2v1c0,0.5-0.1,0.9-0.3,1.1
	c-0.2,0.2-0.4,0.3-0.8,0.3c-0.7,0-1-0.4-1-1.2v-1.2h-2v1C500.2,520.9,500.5,521.7,501,522.2"/>
<path class="st2" d="M530,490.6h0.9c0.3,0,0.6,0.1,0.7,0.3c0.2,0.2,0.2,0.5,0.2,0.9v1.9c0,0.4-0.1,0.7-0.2,0.9
	c-0.2,0.2-0.4,0.3-0.7,0.3H530V490.6z M530,501.4v-4.7h0.9c1,0,1.7-0.3,2.2-0.8c0.5-0.5,0.7-1.3,0.7-2.3v-1.6c0-1-0.2-1.8-0.7-2.3
	s-1.2-0.8-2.2-0.8h-2.9v12.5H530z M522.8,491.7c0-0.8,0.3-1.2,1-1.2c0.7,0,1,0.4,1,1.2v6.8c0,0.8-0.3,1.2-1,1.2c-0.7,0-1-0.4-1-1.2
	V491.7z M521.6,500.7c0.5,0.5,1.3,0.8,2.2,0.8s1.7-0.3,2.2-0.8c0.5-0.5,0.8-1.3,0.8-2.3v-6.5c0-1-0.3-1.8-0.8-2.3
	c-0.5-0.5-1.3-0.8-2.2-0.8s-1.7,0.3-2.2,0.8c-0.5,0.5-0.8,1.3-0.8,2.3v6.5C520.8,499.4,521.1,500.1,521.6,500.7 M514.8,499
	c0.1-0.2,0.1-0.6,0.2-1.1l0.4-7.3h1.7v9h-2.6C514.6,499.4,514.8,499.2,514.8,499 M513.7,503v-1.7h4.2v1.7h2v-3.4H519v-10.8h-5.6
	L513,498c0,0.4-0.1,0.7-0.1,0.9s-0.2,0.5-0.4,0.7h-0.8v3.4H513.7z M506.6,501.4l1.7-5.7l0.8-3.1v8.8h2v-12.5h-2.4l-1.6,5.2l-0.7,2.8
	v-7.9h-1.8v12.5H506.6z M499.8,490.6h0.9c0.3,0,0.6,0.1,0.7,0.3c0.2,0.2,0.2,0.5,0.2,0.9v1.9c0,0.4-0.1,0.7-0.2,0.9
	c-0.2,0.2-0.4,0.3-0.7,0.3h-0.9V490.6z M499.8,501.4v-4.7h0.9c1,0,1.7-0.3,2.2-0.8c0.5-0.5,0.7-1.3,0.7-2.3v-1.6
	c0-1-0.2-1.8-0.7-2.3s-1.2-0.8-2.2-0.8h-2.9v12.5H499.8z M492.5,491.7c0-0.8,0.3-1.2,1-1.2c0.7,0,1,0.4,1,1.2v6.8
	c0,0.8-0.3,1.2-1,1.2c-0.7,0-1-0.4-1-1.2V491.7z M491.3,500.7c0.5,0.5,1.3,0.8,2.2,0.8s1.7-0.3,2.2-0.8c0.5-0.5,0.8-1.3,0.8-2.3
	v-6.5c0-1-0.3-1.8-0.8-2.3c-0.5-0.5-1.3-0.8-2.2-0.8s-1.7,0.3-2.2,0.8c-0.5,0.5-0.8,1.3-0.8,2.3v6.5
	C490.6,499.4,490.8,500.1,491.3,500.7 M485.3,501.4v-3.8l0.6-1.1l1.9,5h2l-2.7-7l2.7-5.6h-2l-2.6,5.5v-5.5h-2v12.5H485.3z"/>
<path class="st2" d="M414.6,456.5l-2.2,8.3h1.5l2.2-8.3v-1.3h-4.5v1.4H414.6z M410.7,463.4h-1.5v1.4h1.5V463.4z M404.2,464.2
	c0.4,0.4,1,0.6,1.7,0.6c0.7,0,1.3-0.2,1.7-0.6c0.4-0.4,0.6-1,0.6-1.8v-0.8c0-1-0.4-1.7-1.1-2c0.7-0.3,1.1-1,1.1-2v-0.2
	c0-0.8-0.2-1.4-0.6-1.8c-0.4-0.4-0.9-0.6-1.7-0.6c-0.7,0-1.3,0.2-1.7,0.6c-0.4,0.4-0.6,1-0.6,1.8v0.5h1.5v-0.6
	c0-0.6,0.3-0.9,0.8-0.9c0.3,0,0.5,0.1,0.6,0.2c0.1,0.2,0.2,0.4,0.2,0.9v0.5c0,0.4-0.1,0.6-0.2,0.8c-0.2,0.2-0.4,0.2-0.7,0.2h-0.6
	v1.4h0.5c0.3,0,0.6,0.1,0.8,0.3c0.2,0.2,0.2,0.5,0.2,0.9v0.8c0,0.4-0.1,0.7-0.2,0.8c-0.1,0.2-0.3,0.2-0.6,0.2c-0.5,0-0.8-0.3-0.8-1
	v-0.9h-1.5v0.8C403.6,463.2,403.8,463.8,404.2,464.2"/>
<path class="st2" d="M423.4,441c0-0.3,0.1-0.6,0.2-0.8c0.1-0.2,0.3-0.2,0.6-0.2h0.7v3h-0.6c-0.3,0-0.5-0.1-0.7-0.2
	c-0.2-0.2-0.2-0.4-0.2-0.8V441z M423.2,448.2c0-0.1,0.1-0.2,0.1-0.3c0-0.1,0-0.2,0-0.3c0-0.2,0-0.4,0-0.6v-1.5c0-0.4,0.1-0.8,0.2-1
	c0.2-0.2,0.4-0.3,0.8-0.3h0.5v3.9h1.5v-9.6h-2.3c-0.8,0-1.3,0.2-1.7,0.5c-0.4,0.4-0.5,0.9-0.5,1.7v0.8c0,1,0.3,1.6,1,2
	c-0.4,0.2-0.6,0.4-0.8,0.7c-0.2,0.3-0.2,0.8-0.2,1.3v1.5c0,0.5,0,0.9-0.1,1.2H423.2z M418.7,440.3l0.7,4.9h-1.5L418.7,440.3z
	 M417.5,448.2l0.3-1.7h1.9l0.3,1.7h1.5l-1.5-9.6h-2.3l-1.5,9.6H417.5z M412,448.2v-4.1h1.7v4.1h1.5v-9.6h-1.5v4.1H412v-4.1h-1.5v9.6
	H412z M406.1,448.2v-4.1h1.7v4.1h1.5v-9.6h-1.5v4.1h-1.7v-4.1h-1.5v9.6H406.1z M401.3,440.3l0.7,4.9h-1.5L401.3,440.3z M400.1,448.2
	l0.3-1.7h1.9l0.3,1.7h1.5l-1.5-9.6h-2.3l-1.5,9.6H400.1z M394.9,440h0.7c0.3,0,0.5,0.1,0.6,0.2c0.1,0.2,0.2,0.4,0.2,0.8v0.5
	c0,0.4-0.1,0.6-0.2,0.8c-0.2,0.2-0.4,0.2-0.7,0.2h-0.6V440z M394.9,443.9h0.7c0.3,0,0.6,0.1,0.8,0.3c0.1,0.2,0.2,0.5,0.2,0.9v0.8
	c0,0.3-0.1,0.6-0.2,0.7c-0.1,0.1-0.3,0.2-0.6,0.2h-0.9V443.9z M395.8,448.2c0.8,0,1.3-0.2,1.7-0.6c0.4-0.4,0.6-1,0.6-1.7v-0.8
	c0-1.1-0.4-1.8-1.1-2.1c0.7-0.3,1-1,1-1.9v-0.3c0-0.8-0.2-1.3-0.5-1.7c-0.4-0.4-0.9-0.5-1.7-0.5h-2.3v9.6H395.8z"/>
<rect x="409.9" y="477" class="st1" width="35.2" height="36"/>
<line class="st1" x1="444.6" y1="476.9" x2="410" y2="512.9"/>
<line class="st1" x1="409.6" y1="476.9" x2="444.2" y2="512.9"/>
<path class="st2" d="M434.5,785.4c0-0.7,0.1-1.1,0.4-1.4c0.3-0.3,0.6-0.4,1.1-0.4s0.8,0.1,1,0.4c0.2,0.3,0.4,0.7,0.4,1.4v0.9
	c0,1.1-0.5,1.7-1.4,1.7c-1,0-1.4-0.6-1.4-1.7V785.4z M434.5,792.1c0-1.2,0.5-1.8,1.4-1.8c0.9,0,1.4,0.6,1.4,1.8v1.5
	c0,0.7-0.1,1.1-0.4,1.4c-0.2,0.3-0.6,0.4-1,0.4c-0.5,0-0.8-0.1-1.1-0.4c-0.3-0.3-0.4-0.7-0.4-1.4V792.1z M433,796.6
	c0.7,0.7,1.7,1.1,2.9,1.1c1.3,0,2.2-0.4,2.9-1.1c0.7-0.7,1-1.7,1-3v-1.3c0-1.6-0.5-2.8-1.6-3.4c1-0.6,1.6-1.7,1.6-3.2v-0.5
	c0-1.3-0.3-2.3-1-3c-0.7-0.7-1.7-1.1-2.9-1.1c-1.3,0-2.3,0.4-2.9,1.1c-0.7,0.7-1,1.7-1,3v0.5c0,1.6,0.5,2.7,1.6,3.2
	c-1,0.6-1.6,1.7-1.6,3.4v1.3C431.9,794.9,432.3,795.9,433,796.6 M430.5,795.2H428v2.3h2.5V795.2z M426.2,797.5v-2.3h-4.8
	c0-0.1,0-0.2,0-0.3c0-0.4,0.1-0.7,0.3-1.1c0.2-0.4,0.4-0.7,0.7-1.1c0.3-0.4,0.6-0.7,1-1.1c0.4-0.4,0.7-0.8,1.1-1.2
	c0.4-0.4,0.7-0.9,1-1.4c0.3-0.5,0.5-1,0.7-1.7c0.2-0.6,0.3-1.3,0.3-2c0-1.3-0.3-2.3-1-3c-0.6-0.7-1.6-1-2.8-1c-1.2,0-2.2,0.3-2.8,1
	c-0.7,0.7-1,1.7-1,3v1.6h2.4v-1.7c0-1.1,0.4-1.6,1.3-1.6c0.4,0,0.8,0.1,1,0.4c0.2,0.3,0.3,0.7,0.3,1.4c0,0.6-0.1,1.2-0.3,1.8
	c-0.2,0.6-0.4,1-0.7,1.5c-0.3,0.4-0.6,0.8-1,1.2c-0.4,0.4-0.7,0.8-1.1,1.2c-0.4,0.4-0.7,0.8-1,1.2c-0.3,0.4-0.5,0.9-0.7,1.5
	c-0.2,0.6-0.3,1.2-0.3,1.8v2H426.2z M413.3,785.2v12.3h2.5v-16.1h-1.7c-0.1,0.3-0.2,0.5-0.3,0.6c-0.1,0.2-0.2,0.3-0.3,0.5
	c-0.1,0.2-0.3,0.4-0.5,0.5c-0.2,0.1-0.4,0.2-0.7,0.3c-0.3,0.1-0.6,0.1-1,0.1v1.8H413.3z"/>
<path class="st2" d="M482,756.7l1.2,8.1h-2.4L482,756.7z M480,769.9l0.4-2.9h3.1l0.4,2.9h2.5l-2.6-16.1H480l-2.6,16.1H480z
	 M471.9,756.2v13.8h2.5v-13.8h2.6v-2.3h-7.8v2.3H471.9z M464.5,756.7l1.2,8.1h-2.4L464.5,756.7z M462.5,769.9l0.4-2.9h3.1l0.4,2.9
	h2.5l-2.6-16.1h-3.9l-2.6,16.1H462.5z M453.3,769.9v-6.9h2.9v6.9h2.5v-16.1h-2.5v6.9h-2.9v-6.9h-2.5v16.1H453.3z M440.6,769.9v-11.3
	l1.9,11.3h2.4l1.7-11.5v11.5h2.5v-16.1h-3.6l-1.7,11.5l-1.9-11.5h-3.5v16.1H440.6z M431.6,757.6c0-1.1,0.4-1.6,1.3-1.6
	c0.9,0,1.3,0.5,1.3,1.6v8.7c0,1.1-0.4,1.6-1.3,1.6c-0.9,0-1.3-0.5-1.3-1.6V757.6z M430.1,769.1c0.7,0.7,1.6,1.1,2.8,1.1
	c1.2,0,2.2-0.4,2.8-1.1c0.7-0.7,1-1.7,1-3v-8.4c0-1.3-0.3-2.3-1-3c-0.7-0.7-1.6-1.1-2.8-1.1c-1.2,0-2.2,0.4-2.8,1.1
	c-0.7,0.7-1,1.7-1,3v8.4C429.1,767.4,429.4,768.4,430.1,769.1 M422.3,769.9V765l0.8-1.5l2.5,6.4h2.6l-3.5-8.9l3.5-7.2h-2.5l-3.3,7
	v-7h-2.5v16.1H422.3z M409.4,757.8c0-0.6,0.1-1,0.3-1.3c0.2-0.3,0.5-0.4,1-0.4h1.2v4.9h-1c-0.5,0-0.9-0.1-1.1-0.4
	c-0.3-0.3-0.4-0.7-0.4-1.3V757.8z M409.1,769.9c0.1-0.2,0.1-0.3,0.1-0.4c0-0.1,0-0.3,0.1-0.5c0-0.3,0-0.6,0-1v-2.5
	c0-0.7,0.1-1.3,0.4-1.6c0.3-0.3,0.7-0.5,1.3-0.5h0.9v6.5h2.5v-16.1h-3.8c-1.3,0-2.2,0.3-2.8,0.9c-0.6,0.6-0.9,1.5-0.9,2.8v1.3
	c0,1.7,0.5,2.7,1.6,3.3c-0.6,0.3-1,0.7-1.3,1.2c-0.3,0.6-0.4,1.3-0.4,2.2v2.5c0,0.9-0.1,1.5-0.2,2H409.1z M401.5,756.7l1.2,8.1h-2.4
	L401.5,756.7z M399.5,769.9l0.4-2.9h3.1l0.4,2.9h2.5l-2.6-16.1h-3.9l-2.6,16.1H399.5z M387,770c1.3,0,2.2-0.3,2.8-0.9
	c0.6-0.6,0.9-1.7,0.9-3.1l0.3-9.7h2.2v13.8h2.5v-16.1h-7.2l-0.3,12.2c0,0.4,0,0.7-0.1,0.9c-0.1,0.2-0.1,0.4-0.3,0.5
	c-0.1,0.1-0.3,0.2-0.5,0.2c-0.2,0-0.4,0-0.7,0v2.3H387z M380.1,769.9l2.1-7.4l1-3.9v11.3h2.5v-16.1h-3l-2.1,6.6l-0.9,3.5v-10.2h-2.3
	v16.1H380.1z M365.5,769.9l2.3-7.2l0.6,1.2v5.9h2.5v-5.9l0.6-1.2l2.3,7.1h2.5l-3.1-9.5l3.1-6.6h-2.5l-3,6.5v-6.5h-2.5v6.5l-3-6.5
	h-2.5l3.1,6.6l-3.1,9.5H365.5z"/>
<path class="st2" d="M645.1,152c1.3,0,2.2-0.3,2.7-0.8c0.5-0.5,0.8-1.4,0.8-2.7v-9.1c0-1.3-0.3-2.2-0.8-2.7
	c-0.5-0.5-1.5-0.8-2.7-0.8h-0.8v2.2h0.6c0.4,0,0.7,0.1,0.9,0.3c0.2,0.2,0.3,0.6,0.3,1.1v8.9c0,0.5-0.1,0.9-0.3,1.1
	c-0.2,0.2-0.5,0.3-0.9,0.3h-0.6v2.2H645.1z M640.1,140.7v6h-2.5L640.1,140.7z M640.1,149.1v2.9h2.5v-2.9h1.2v-2.3h-1.2v-10.9h-2.8
	l-4.6,10.9v2.3H640.1z M634.1,149.7h-2.5v2.3h2.5V149.7z M626.7,140.7v6h-2.5L626.7,140.7z M626.7,149.1v2.9h2.5v-2.9h1.2v-2.3h-1.2
	v-10.9h-2.8l-4.6,10.9v2.3H626.7z M617.7,151.2c0.5,0.5,1.5,0.8,2.7,0.8h0.8v-2.2h-0.6c-0.4,0-0.7-0.1-0.9-0.3
	c-0.2-0.2-0.3-0.6-0.3-1.1v-8.9c0-0.5,0.1-0.9,0.3-1.1c0.2-0.2,0.5-0.3,0.9-0.3h0.6v-2.2h-0.8c-1.3,0-2.2,0.3-2.7,0.8
	c-0.5,0.5-0.8,1.4-0.8,2.7v9.1C616.9,149.7,617.1,150.6,617.7,151.2 M606.2,139.8c0-0.7,0.1-1.1,0.4-1.4c0.3-0.3,0.6-0.4,1.1-0.4
	c0.5,0,0.8,0.1,1,0.4c0.2,0.3,0.4,0.8,0.4,1.4v0.9c0,1.1-0.5,1.7-1.4,1.7c-1,0-1.4-0.6-1.4-1.7V139.8z M606.2,146.6
	c0-1.2,0.5-1.8,1.4-1.8c0.9,0,1.4,0.6,1.4,1.8v1.5c0,0.7-0.1,1.1-0.4,1.4c-0.2,0.3-0.6,0.4-1,0.4c-0.4,0-0.8-0.1-1.1-0.4
	c-0.3-0.3-0.4-0.7-0.4-1.4V146.6z M604.7,151.1c0.7,0.7,1.7,1.1,2.9,1.1c1.3,0,2.2-0.4,2.9-1.1c0.7-0.7,1-1.7,1-3v-1.3
	c0-1.6-0.5-2.8-1.6-3.4c1-0.6,1.6-1.7,1.6-3.2v-0.5c0-1.3-0.3-2.3-1-3s-1.7-1.1-2.9-1.1c-1.3,0-2.2,0.4-2.9,1.1s-1,1.7-1,3v0.5
	c0,1.6,0.5,2.7,1.6,3.2c-1,0.6-1.6,1.7-1.6,3.4v1.3C603.7,149.4,604.1,150.4,604.7,151.1 M602.3,149.7h-2.5v2.3h2.5V149.7z
	 M592.9,139.8c0-0.7,0.1-1.1,0.4-1.4s0.6-0.4,1.1-0.4c0.5,0,0.8,0.1,1,0.4c0.2,0.3,0.4,0.8,0.4,1.4v0.9c0,1.1-0.5,1.7-1.4,1.7
	c-1,0-1.4-0.6-1.4-1.7V139.8z M592.9,146.6c0-1.2,0.5-1.8,1.4-1.8c0.9,0,1.4,0.6,1.4,1.8v1.5c0,0.7-0.1,1.1-0.4,1.4
	c-0.2,0.3-0.6,0.4-1,0.4c-0.4,0-0.8-0.1-1.1-0.4c-0.3-0.3-0.4-0.7-0.4-1.4V146.6z M591.4,151.1c0.7,0.7,1.7,1.1,2.9,1.1
	c1.3,0,2.2-0.4,2.9-1.1c0.7-0.7,1-1.7,1-3v-1.3c0-1.6-0.5-2.8-1.6-3.4c1-0.6,1.6-1.7,1.6-3.2v-0.5c0-1.3-0.3-2.3-1-3
	s-1.7-1.1-2.9-1.1c-1.3,0-2.2,0.4-2.9,1.1c-0.7,0.7-1,1.7-1,3v0.5c0,1.6,0.5,2.7,1.6,3.2c-1,0.6-1.6,1.7-1.6,3.4v1.3
	C590.4,149.4,590.7,150.4,591.4,151.1"/>
<path class="st2" d="M641.4,405.9v-2.3h-4.8c0-0.1,0-0.2,0-0.3c0-0.4,0.1-0.7,0.3-1.1c0.2-0.4,0.4-0.7,0.7-1.1
	c0.3-0.4,0.6-0.7,1-1.1c0.4-0.4,0.7-0.8,1.1-1.2c0.4-0.4,0.7-0.9,1-1.4c0.3-0.5,0.5-1,0.7-1.7c0.2-0.6,0.3-1.3,0.3-2
	c0-1.3-0.3-2.3-1-3c-0.6-0.7-1.6-1-2.8-1c-1.2,0-2.2,0.3-2.8,1c-0.7,0.7-1,1.7-1,3v1.6h2.4v-1.7c0-1.1,0.4-1.6,1.3-1.6
	c0.4,0,0.8,0.1,1,0.4c0.2,0.3,0.3,0.7,0.3,1.4c0,0.6-0.1,1.2-0.3,1.8c-0.2,0.6-0.4,1-0.7,1.5c-0.3,0.4-0.6,0.8-1,1.2
	c-0.4,0.4-0.7,0.8-1.1,1.2c-0.4,0.4-0.7,0.8-1,1.2c-0.3,0.4-0.5,0.9-0.7,1.5c-0.2,0.6-0.3,1.2-0.3,1.8v2H641.4z M632.4,403.6h-2.5
	v2.3h2.5V403.6z M625.1,394.7v6h-2.5L625.1,394.7z M625.1,403v2.9h2.5V403h1.2v-2.3h-1.2v-10.9h-2.8l-4.6,10.9v2.3H625.1z
	 M615.2,393.7v12.3h2.5v-16.1H616c-0.1,0.3-0.2,0.5-0.3,0.6c-0.1,0.2-0.2,0.3-0.3,0.5c-0.1,0.2-0.3,0.4-0.5,0.5
	c-0.2,0.1-0.4,0.2-0.7,0.3c-0.3,0.1-0.6,0.1-1,0.1v1.8H615.2z"/>
<path class="st2" d="M683.9,365.2l1.2,8.1h-2.4L683.9,365.2z M681.9,378.4l0.4-2.9h3.1l0.4,2.9h2.5l-2.6-16.1h-3.9l-2.6,16.1H681.9z
	 M673.8,364.6v13.8h2.5v-13.8h2.6v-2.3h-7.8v2.3H673.8z M666.3,365.2l1.2,8.1h-2.4L666.3,365.2z M664.4,378.4l0.4-2.9h3.1l0.4,2.9
	h2.5l-2.6-16.1h-3.9l-2.6,16.1H664.4z M655.2,378.4v-6.9h2.9v6.9h2.5v-16.1h-2.5v6.9h-2.9v-6.9h-2.5v16.1H655.2z M642.5,378.4V367
	l1.9,11.3h2.4l1.7-11.5v11.5h2.5v-16.1h-3.6l-1.7,11.5l-1.9-11.5h-3.5v16.1H642.5z M633.5,366c0-1.1,0.4-1.6,1.3-1.6
	c0.9,0,1.3,0.5,1.3,1.6v8.7c0,1.1-0.4,1.6-1.3,1.6c-0.9,0-1.3-0.5-1.3-1.6V366z M632,377.5c0.7,0.7,1.6,1.1,2.8,1.1
	c1.2,0,2.2-0.4,2.8-1.1c0.7-0.7,1-1.7,1-3v-8.4c0-1.3-0.3-2.3-1-3c-0.7-0.7-1.6-1.1-2.8-1.1c-1.2,0-2.2,0.4-2.8,1.1
	c-0.7,0.7-1,1.7-1,3v8.4C631,375.8,631.3,376.8,632,377.5 M624.2,378.4v-4.9l0.8-1.5l2.5,6.4h2.6l-3.5-8.9l3.5-7.2h-2.5l-3.3,7v-7
	h-2.5v16.1H624.2z M611.3,366.3c0-0.6,0.1-1,0.3-1.3c0.2-0.3,0.5-0.4,1-0.4h1.2v4.9h-1c-0.5,0-0.9-0.1-1.1-0.4
	c-0.3-0.3-0.4-0.7-0.4-1.3V366.3z M611,378.4c0.1-0.2,0.1-0.3,0.1-0.4c0-0.1,0-0.3,0.1-0.5c0-0.3,0-0.6,0-1v-2.5
	c0-0.7,0.1-1.3,0.4-1.6c0.3-0.3,0.7-0.5,1.3-0.5h0.9v6.5h2.5v-16.1h-3.8c-1.3,0-2.2,0.3-2.8,0.9c-0.6,0.6-0.9,1.5-0.9,2.8v1.3
	c0,1.7,0.5,2.7,1.6,3.3c-0.6,0.3-1,0.7-1.3,1.2c-0.3,0.6-0.4,1.3-0.4,2.2v2.5c0,0.9-0.1,1.5-0.2,2H611z M603.4,365.2l1.2,8.1h-2.4
	L603.4,365.2z M601.4,378.4l0.4-2.9h3.1l0.4,2.9h2.5l-2.6-16.1h-3.9l-2.6,16.1H601.4z M588.9,378.4c1.3,0,2.2-0.3,2.8-0.9
	c0.6-0.6,0.9-1.7,0.9-3.1l0.3-9.7h2.2v13.8h2.5v-16.1h-7.2l-0.3,12.2c0,0.4,0,0.7-0.1,0.9c-0.1,0.2-0.1,0.4-0.3,0.5
	c-0.1,0.1-0.3,0.2-0.5,0.2c-0.2,0-0.4,0-0.7,0v2.3H588.9z M582,378.4l2.1-7.4l1-3.9v11.3h2.5v-16.1h-3l-2.1,6.6l-0.9,3.5v-10.2h-2.3
	v16.1H582z M567.4,378.4l2.3-7.2l0.6,1.2v5.9h2.5v-5.9l0.6-1.2l2.3,7.1h2.5l-3.1-9.5l3.1-6.6h-2.5l-3,6.5v-6.5h-2.5v6.5l-3-6.5h-2.5
	l3.1,6.6l-3.1,9.5H567.4z"/>
<path class="st2" d="M436.1,321v12.3h2.5v-16.1h-1.7c-0.1,0.3-0.2,0.5-0.3,0.6s-0.2,0.3-0.3,0.5c-0.1,0.2-0.3,0.4-0.5,0.5
	c-0.2,0.1-0.4,0.2-0.7,0.3c-0.3,0.1-0.6,0.1-1,0.1v1.8H436.1z M430.8,330.9h-2.5v2.3h2.5V330.9z M426.5,333.2v-2.3h-4.8
	c0-0.1,0-0.2,0-0.3c0-0.4,0.1-0.7,0.3-1.1c0.2-0.4,0.4-0.7,0.7-1.1c0.3-0.4,0.6-0.7,1-1.1c0.4-0.4,0.7-0.8,1.1-1.2
	c0.4-0.4,0.7-0.9,1-1.4c0.3-0.5,0.5-1,0.7-1.7c0.2-0.6,0.3-1.3,0.3-2c0-1.3-0.3-2.3-1-3c-0.6-0.7-1.6-1-2.8-1c-1.2,0-2.2,0.3-2.8,1
	c-0.7,0.7-1,1.7-1,3v1.6h2.4v-1.7c0-1.1,0.4-1.6,1.3-1.6c0.4,0,0.8,0.1,1,0.4c0.2,0.3,0.3,0.7,0.3,1.4c0,0.6-0.1,1.2-0.3,1.8
	c-0.2,0.6-0.4,1-0.7,1.5c-0.3,0.4-0.6,0.8-1,1.2c-0.4,0.4-0.7,0.8-1.1,1.2c-0.4,0.4-0.7,0.8-1,1.2c-0.3,0.4-0.5,0.9-0.7,1.5
	c-0.2,0.6-0.3,1.2-0.3,1.8v2H426.5z M413.6,321v12.3h2.5v-16.1h-1.7c-0.1,0.3-0.2,0.5-0.3,0.6c-0.1,0.2-0.2,0.3-0.3,0.5
	c-0.1,0.2-0.3,0.4-0.5,0.5c-0.2,0.1-0.4,0.2-0.7,0.3c-0.3,0.1-0.6,0.1-1,0.1v1.8H413.6z"/>
<path class="st2" d="M482.3,292.5l1.2,8.1h-2.4L482.3,292.5z M480.3,305.7l0.4-2.9h3.1l0.4,2.9h2.5l-2.6-16.1h-3.9l-2.6,16.1H480.3z
	 M472.2,291.9v13.8h2.5v-13.8h2.6v-2.3h-7.8v2.3H472.2z M464.8,292.5l1.2,8.1h-2.4L464.8,292.5z M462.8,305.7l0.4-2.9h3.1l0.4,2.9
	h2.5l-2.6-16.1h-3.9l-2.6,16.1H462.8z M453.6,305.7v-6.9h2.9v6.9h2.5v-16.1h-2.5v6.9h-2.9v-6.9h-2.5v16.1H453.6z M440.9,305.7v-11.3
	l1.9,11.3h2.4l1.7-11.5v11.5h2.5v-16.1h-3.6L444,301l-1.9-11.5h-3.5v16.1H440.9z M431.9,293.3c0-1.1,0.4-1.6,1.3-1.6
	c0.9,0,1.3,0.5,1.3,1.6v8.7c0,1.1-0.4,1.6-1.3,1.6c-0.9,0-1.3-0.5-1.3-1.6V293.3z M430.4,304.8c0.7,0.7,1.6,1.1,2.8,1.1
	c1.2,0,2.2-0.4,2.8-1.1c0.7-0.7,1-1.7,1-3v-8.4c0-1.3-0.3-2.3-1-3c-0.7-0.7-1.6-1.1-2.8-1.1c-1.2,0-2.2,0.4-2.8,1.1
	c-0.7,0.7-1,1.7-1,3v8.4C429.4,303.1,429.7,304.1,430.4,304.8 M422.6,305.7v-4.9l0.8-1.5l2.5,6.4h2.6l-3.5-8.9l3.5-7.2h-2.5l-3.3,7
	v-7h-2.5v16.1H422.6z M409.7,293.6c0-0.6,0.1-1,0.3-1.3c0.2-0.3,0.5-0.4,1-0.4h1.2v4.9h-1c-0.5,0-0.9-0.1-1.1-0.4
	c-0.3-0.3-0.4-0.7-0.4-1.3V293.6z M409.4,305.7c0.1-0.2,0.1-0.3,0.1-0.4c0-0.1,0-0.3,0.1-0.5c0-0.3,0-0.6,0-1v-2.5
	c0-0.7,0.1-1.3,0.4-1.6c0.3-0.3,0.7-0.5,1.3-0.5h0.9v6.5h2.5v-16.1h-3.8c-1.3,0-2.2,0.3-2.8,0.9c-0.6,0.6-0.9,1.5-0.9,2.8v1.3
	c0,1.7,0.5,2.7,1.6,3.3c-0.6,0.3-1,0.7-1.3,1.2c-0.3,0.6-0.4,1.3-0.4,2.2v2.5c0,0.9-0.1,1.5-0.2,2H409.4z M401.8,292.5l1.2,8.1h-2.4
	L401.8,292.5z M399.8,305.7l0.4-2.9h3.1l0.4,2.9h2.5l-2.6-16.1h-3.9l-2.6,16.1H399.8z M387.3,305.7c1.3,0,2.2-0.3,2.8-0.9
	c0.6-0.6,0.9-1.7,0.9-3.1l0.3-9.7h2.2v13.8h2.5v-16.1h-7.2l-0.3,12.2c0,0.4,0,0.7-0.1,0.9c-0.1,0.2-0.1,0.4-0.3,0.5
	c-0.1,0.1-0.3,0.2-0.5,0.2c-0.2,0-0.4,0-0.7,0v2.3H387.3z M380.4,305.7l2.1-7.4l1-3.9v11.3h2.5v-16.1h-3l-2.1,6.6l-0.9,3.5v-10.2
	h-2.3v16.1H380.4z M365.8,305.7l2.3-7.2l0.6,1.2v5.9h2.5v-5.9l0.6-1.2l2.3,7.1h2.5l-3.1-9.5l3.1-6.6h-2.5l-3,6.5v-6.5h-2.5v6.5
	l-3-6.5h-2.5l3.1,6.6l-3.1,9.5H365.8z"/>
<path class="st2" d="M645.9,347c1.6,1.6,3.7,2.4,6.5,2.4c2.8,0,5-0.8,6.4-2.4c1.5-1.6,2.2-3.9,2.2-6.8v-2.9c0-4-1.3-6.6-4-7.7
	c2.7-1.1,4-3.6,4-7.6V321c0-3-0.7-5.2-2.2-6.8c-1.5-1.6-3.6-2.4-6.4-2.4c-2.8,0-5,0.8-6.5,2.4c-1.6,1.6-2.3,3.9-2.3,6.8v2h5.8v-2.4
	c0-2.4,1-3.6,3-3.6c1,0,1.7,0.3,2.2,0.9c0.5,0.6,0.8,1.7,0.8,3.3v2c0,1.4-0.3,2.4-0.9,3c-0.6,0.6-1.4,0.9-2.6,0.9h-2.3v5.3h1.9
	c1.3,0,2.3,0.4,2.9,1.1c0.6,0.7,0.9,1.9,0.9,3.6v2.9c0,1.5-0.3,2.6-0.8,3.2c-0.5,0.6-1.2,0.9-2.2,0.9c-2,0-3-1.2-3-3.6v-3.4h-5.8
	v3.1C643.6,343.1,644.4,345.4,645.9,347 M639.9,343.6h-5.8v5.3h5.8V343.6z M615.5,347c1.6,1.6,3.7,2.4,6.5,2.4c2.8,0,5-0.8,6.4-2.4
	c1.5-1.6,2.2-3.9,2.2-6.8v-8.2c0-2.7-0.5-4.8-1.6-6.2c-1.1-1.4-2.7-2.1-4.8-2.1c-2.3,0-4,0.9-5,2.7l0.5-8.8h10v-5.3h-15.4l-1.1,21.3
	h5.8v-1.1c0-2.4,1-3.6,3-3.6c2,0,3,1.2,3,3.6v8.1c0,2.4-1,3.6-3,3.6c-2,0-3-1.2-3-3.6v-3.4h-5.8v3.1
	C613.1,343.1,613.9,345.4,615.5,347 M598,333.9c0-2.4,1-3.6,3-3.6c2,0,3,1.2,3,3.6v6.6c0,2.4-1,3.6-3,3.6c-2,0-3-1.2-3-3.6V333.9z
	 M594.5,346.9c1.5,1.6,3.7,2.4,6.5,2.4c2.8,0,5-0.8,6.5-2.4c1.5-1.6,2.3-3.9,2.3-6.8v-6.7c0-2.7-0.5-4.8-1.6-6.3
	c-1.1-1.4-2.7-2.2-4.8-2.2c-2.5,0-4.3,1.1-5.4,3.3v-6.7c0-1.7,0.3-2.8,0.8-3.5c0.5-0.7,1.3-1,2.4-1c2,0,3,1.2,3,3.6v1.3h5.4V321
	c0-3-0.7-5.2-2.2-6.8c-1.5-1.6-3.6-2.4-6.4-2.4c-5.9,0-8.8,3.2-8.8,9.6v18.8C592.2,343.1,593,345.3,594.5,346.9"/>
<path class="st1" d="M626.5,301.5c17.8,0,32.2-14.4,32.2-32.2c0-17.8-14.4-32.2-32.2-32.2c-17.8,0-32.2,14.4-32.2,32.2
	C594.4,287,608.8,301.5,626.5,301.5z"/>
<path class="st2" d="M629.6,282.7c1.1,1.2,2.7,1.8,4.9,1.8c2.1,0,3.8-0.6,5-1.8c1.2-1.2,1.8-2.9,1.8-5.2v-3.7h-4.4v4
	c0,1.8-0.8,2.7-2.3,2.7c-1.5,0-2.3-0.9-2.3-2.7v-15c0-1.8,0.8-2.7,2.3-2.7c1.5,0,2.3,0.9,2.3,2.7v3h4.4V263c0-2.2-0.6-4-1.8-5.2
	c-1.2-1.2-2.8-1.8-5-1.8c-2.1,0-3.8,0.6-4.9,1.8c-1.1,1.2-1.7,2.9-1.7,5.2v14.5C628,279.7,628.5,281.5,629.6,282.7 M614.1,282.7
	c1.2,1.2,2.8,1.8,5,1.8c2.1,0,3.7-0.6,4.9-1.8c1.1-1.2,1.7-2.9,1.7-5.2v-2.2c0-3-1-5-3-5.8c2-0.8,3-2.7,3-5.7V263
	c0-2.2-0.6-4-1.7-5.2c-1.1-1.2-2.7-1.8-4.9-1.8c-2.1,0-3.8,0.6-5,1.8c-1.2,1.2-1.8,2.9-1.8,5.2v1.5h4.4v-1.8c0-1.8,0.7-2.7,2.2-2.7
	c0.7,0,1.3,0.2,1.7,0.7c0.4,0.5,0.6,1.3,0.6,2.5v1.6c0,1.1-0.2,1.8-0.7,2.3c-0.4,0.4-1.1,0.7-2,0.7h-1.7v4h1.5c1,0,1.7,0.3,2.2,0.8
	c0.4,0.5,0.7,1.4,0.7,2.7v2.2c0,1.2-0.2,2-0.6,2.4c-0.4,0.5-0.9,0.7-1.7,0.7c-1.5,0-2.2-0.9-2.2-2.8v-2.6h-4.4v2.3
	C612.4,279.7,613,281.5,614.1,282.7"/>
<path class="st2" d="M434.1,672.1v-2.3h-4.8c0-0.1,0-0.2,0-0.3c0-0.4,0.1-0.7,0.3-1.1c0.2-0.4,0.4-0.7,0.7-1.1
	c0.3-0.4,0.6-0.7,1-1.1c0.4-0.4,0.7-0.8,1.1-1.2c0.4-0.4,0.7-0.9,1-1.4c0.3-0.5,0.5-1,0.7-1.7c0.2-0.6,0.3-1.3,0.3-2
	c0-1.3-0.3-2.3-1-3c-0.6-0.7-1.6-1-2.8-1c-1.2,0-2.2,0.3-2.8,1c-0.6,0.7-1,1.7-1,3v1.6h2.4v-1.7c0-1.1,0.4-1.6,1.3-1.6
	c0.4,0,0.8,0.1,1,0.4c0.2,0.3,0.3,0.7,0.3,1.4c0,0.6-0.1,1.2-0.3,1.8c-0.2,0.5-0.4,1-0.7,1.5c-0.3,0.4-0.6,0.8-1,1.2
	c-0.4,0.4-0.7,0.8-1.1,1.2c-0.4,0.4-0.7,0.8-1,1.2c-0.3,0.4-0.5,0.9-0.7,1.5c-0.2,0.6-0.3,1.2-0.3,1.8v2H434.1z M425.1,669.8h-2.5
	v2.3h2.5V669.8z M415.8,665.6c0-1.1,0.4-1.6,1.3-1.6c0.9,0,1.3,0.5,1.3,1.6v2.9c0,1-0.4,1.6-1.3,1.6c-0.9,0-1.3-0.5-1.3-1.6V665.6z
	 M414.3,671.3c0.7,0.7,1.6,1.1,2.8,1.1c1.2,0,2.2-0.4,2.8-1.1c0.7-0.7,1-1.7,1-3v-2.9c0-1.2-0.2-2.1-0.7-2.7
	c-0.5-0.6-1.2-0.9-2.1-0.9c-1.1,0-1.9,0.5-2.3,1.4v-2.9c0-0.7,0.1-1.2,0.3-1.5c0.2-0.3,0.6-0.4,1.1-0.4c0.9,0,1.3,0.5,1.3,1.6v0.6
	h2.4v-0.4c0-1.3-0.3-2.3-1-3c-0.6-0.7-1.6-1-2.8-1c-2.6,0-3.9,1.4-3.9,4.2v8.2C413.3,669.6,413.6,670.6,414.3,671.3"/>
<path class="st2" d="M467.5,631.4l1.2,8.1h-2.4L467.5,631.4z M465.5,644.6l0.4-2.9h3.1l0.4,2.9h2.5l-2.6-16.1h-3.9l-2.6,16.1H465.5z
	 M461.8,644.6v-16.1h-2.5v13.8h-2.2v-13.8h-2.5v13.8h-2.2v-13.8h-2.5v16.1H461.8z M442.7,644.6l2.1-7.4l1-3.9v11.3h2.5v-16.1h-3
	l-2.1,6.6l-0.9,3.5v-10.2h-2.3v16.1H442.7z M432.8,644.6v-6.9h2.9v6.9h2.5v-16.1h-2.5v6.9h-2.9v-6.9h-2.5v16.1H432.8z M428.6,635.4
	H424v2.3h4.6V635.4z M417.2,632.5c0-0.6,0.1-1,0.3-1.3c0.2-0.3,0.5-0.4,1-0.4h1.2v4.9h-1c-0.5,0-0.9-0.1-1.1-0.4
	c-0.3-0.3-0.4-0.7-0.4-1.3V632.5z M417,644.6c0.1-0.2,0.1-0.3,0.1-0.4c0-0.1,0-0.3,0.1-0.5c0-0.3,0-0.6,0-1v-2.5
	c0-0.7,0.1-1.3,0.4-1.6c0.3-0.3,0.7-0.5,1.3-0.5h0.9v6.5h2.5v-16.1h-3.8c-1.3,0-2.2,0.3-2.8,0.9c-0.6,0.6-0.9,1.5-0.9,2.8v1.3
	c0,1.7,0.5,2.7,1.6,3.3c-0.6,0.3-1,0.7-1.3,1.2c-0.3,0.6-0.4,1.3-0.4,2.2v2.5c0,0.9-0.1,1.5-0.2,2H417z M407.6,644.6v-6.9h2.9v6.9
	h2.5v-16.1h-2.5v6.9h-2.9v-6.9h-2.5v16.1H407.6z M397.2,644.6l2-6l1.9,6h2.5l-2.8-8.2l2.6-7.9h-2.2l-1.9,6l-1.9-6h-2.5l2.6,7.8
	l-2.8,8.3H397.2z M388.6,640.9l0,0.1c-0.1,0.6-0.3,0.9-0.7,1.1c-0.4,0.2-0.9,0.2-1.6,0.2v2.3c0.7,0,1.3,0,1.8-0.1
	c0.5-0.1,0.9-0.2,1.3-0.4c0.4-0.2,0.7-0.5,0.9-0.9c0.2-0.4,0.4-0.8,0.6-1.2c0.2-0.4,0.3-1,0.4-1.6l2.7-12h-2.5l-1.2,5.5l-0.6,3.7
	L389,634l-1.4-5.5h-2.5L388.6,640.9z M378.9,644.6v-4.9l0.8-1.5l2.5,6.4h2.6l-3.5-8.9l3.5-7.2h-2.5l-3.3,7v-7h-2.5v16.1H378.9z"/>
<path class="st2" d="M625.7,530.8c0.7,0.7,1.6,1,2.9,1c1.2,0,2.2-0.3,2.8-1c0.6-0.7,1-1.7,1-3v-1.3c0-1.7-0.6-2.9-1.8-3.4
	c1.2-0.5,1.8-1.6,1.8-3.3v-0.4c0-1.3-0.3-2.3-1-3c-0.6-0.7-1.6-1-2.8-1c-1.2,0-2.2,0.3-2.9,1s-1,1.7-1,3v0.9h2.5v-1
	c0-1.1,0.4-1.6,1.3-1.6c0.4,0,0.8,0.1,1,0.4c0.2,0.3,0.3,0.7,0.3,1.4v0.9c0,0.6-0.1,1-0.4,1.3c-0.3,0.3-0.6,0.4-1.1,0.4h-1v2.3h0.9
	c0.6,0,1,0.2,1.3,0.5c0.3,0.3,0.4,0.8,0.4,1.6v1.3c0,0.7-0.1,1.1-0.3,1.4c-0.2,0.3-0.5,0.4-1,0.4c-0.9,0-1.3-0.5-1.3-1.6v-1.5h-2.5
	v1.3C624.7,529.2,625.1,530.1,625.7,530.8 M623.1,529.4h-2.5v2.3h2.5V529.4z M616.4,517.9l-3.7,13.8h2.5l3.7-13.9v-2.2h-7.6v2.3
	H616.4z"/>
<path class="st2" d="M655.7,492c0-0.6,0.1-1,0.3-1.3c0.2-0.3,0.5-0.4,1-0.4h1.2v4.9h-1c-0.5,0-0.9-0.1-1.1-0.4
	c-0.3-0.3-0.4-0.7-0.4-1.3V492z M655.4,504.2c0.1-0.2,0.1-0.3,0.1-0.4c0-0.1,0-0.3,0.1-0.5c0-0.3,0-0.6,0-1v-2.5
	c0-0.7,0.1-1.3,0.4-1.6c0.3-0.3,0.7-0.5,1.3-0.5h0.9v6.5h2.5v-16.1h-3.8c-1.3,0-2.2,0.3-2.8,0.9c-0.6,0.6-0.9,1.5-0.9,2.8v1.3
	c0,1.7,0.6,2.7,1.6,3.3c-0.6,0.3-1,0.7-1.3,1.2c-0.3,0.6-0.4,1.3-0.4,2.2v2.5c0,0.9-0.1,1.5-0.2,2H655.4z M647.8,491l1.2,8.1h-2.4
	L647.8,491z M645.8,504.2l0.4-2.9h3.1l0.4,2.9h2.5l-2.6-16.1h-3.9l-2.6,16.1H645.8z M631.9,504.2l2.3-7.2l0.6,1.2v5.9h2.5v-5.9
	l0.6-1.2l2.3,7.1h2.5l-3.1-9.5l3.1-6.6h-2.5l-3,6.5v-6.5h-2.5v6.5l-3-6.5h-2.5l3.1,6.6l-3.1,9.5H631.9z M623.3,491.8
	c0-1.1,0.4-1.6,1.3-1.6c0.9,0,1.3,0.5,1.3,1.6v8.7c0,1.1-0.4,1.6-1.3,1.6c-0.9,0-1.3-0.5-1.3-1.6V491.8z M621.8,503.3
	c0.7,0.7,1.6,1.1,2.8,1.1c1.2,0,2.2-0.4,2.8-1.1c0.7-0.7,1-1.7,1-3v-8.4c0-1.3-0.3-2.3-1-3c-0.7-0.7-1.6-1.1-2.8-1.1
	c-1.2,0-2.2,0.4-2.8,1.1c-0.7,0.7-1,1.7-1,3v8.4C620.8,501.6,621.1,502.6,621.8,503.3 M613.1,504.2l2-6l1.9,6h2.5l-2.8-8.2l2.6-7.9
	h-2.2l-1.9,6l-1.9-6h-2.5l2.6,7.8l-2.8,8.3H613.1z M603.9,504.2l2.1-7.4l1-3.9v11.3h2.5v-16.1h-3l-2.1,6.6l-0.9,3.5v-10.2h-2.3v16.1
	H603.9z M595.2,490.4h1.2c0.4,0,0.7,0.1,0.9,0.3c0.2,0.2,0.3,0.6,0.3,1.2v2.4c0,0.6-0.1,0.9-0.3,1.2c-0.2,0.2-0.5,0.3-0.9,0.3h-1.2
	V490.4z M595.2,504.2v-6h1.2c1.2,0,2.2-0.3,2.8-1c0.6-0.7,0.9-1.7,0.9-3v-2.1c0-1.3-0.3-2.3-0.9-3c-0.6-0.7-1.6-1-2.8-1h-3.7v16.1
	H595.2z M585.4,504.2v-13.8h2.9v13.8h2.5v-16.1h-7.9v16.1H585.4z"/>
<line class="st3" x1="329.3" y1="683.1" x2="520.6" y2="683.1"/>
</svg>
