<?xml version="1.0" encoding="UTF-8"?>
<svg id="_Слой_1" data-name="Слой_1" xmlns="http://www.w3.org/2000/svg" version="1.1" viewBox="0 0 1000 1000">
  <!-- Generator: Adobe Illustrator 29.4.0, SVG Export Plug-In . SVG Version: 2.1.0 Build 152)  -->
  <defs>
    <style>
      .st0 {
        fill: none;
        stroke: #3c3c3b;
      }

      .st1 {
        fill: #fbe4e8;
      }

      .st2 {
        fill: #3c3c3b;
      }
    </style>
  </defs>
  <rect class="st1" x="158.29" y="162.22" width="691.57" height="542.97"/>
  <rect class="st2" x="667.79" y="453.85" width="191.59" height="10.08"/>
  <rect class="st0" x="667.79" y="453.85" width="191.59" height="10.08"/>
  <rect class="st2" x="667.79" y="249.58" width="191.59" height="10.08"/>
  <rect class="st0" x="667.79" y="249.58" width="191.59" height="10.08"/>
  <rect class="st2" x="667.79" y="252.92" width="10.08" height="80.26"/>
  <rect class="st0" x="667.79" y="252.92" width="10.08" height="80.26"/>
  <rect class="st2" x="667.79" y="393.66" width="10.08" height="64.19"/>
  <rect class="st0" x="667.79" y="393.66" width="10.08" height="64.19"/>
  <rect class="st2" x="633.57" y="431.76" width="36.29" height="8.62"/>
  <rect class="st0" x="633.57" y="431.76" width="36.29" height="8.62"/>
  <rect class="st2" x="502.54" y="431.76" width="52.3" height="8.62"/>
  <rect class="st0" x="502.54" y="431.76" width="52.3" height="8.62"/>
  <rect class="st2" x="494.28" y="309.7" width="16.5" height="427.95"/>
  <rect class="st0" x="494.28" y="309.7" width="16.5" height="427.95"/>
  <rect class="st2" x="494.29" y="812.48" width="16.5" height="85.82"/>
  <rect class="st0" x="494.28" y="812.48" width="16.5" height="85.82"/>
  <path class="st2" d="M687.78,608.17c0-1.17.22-2.01.66-2.49.44-.48,1.05-.73,1.84-.73s1.4.24,1.83.72c.43.48.65,1.31.65,2.5v1.57c0,1.97-.83,2.96-2.48,2.96s-2.5-.99-2.5-2.96v-1.57ZM687.78,619.89c0-2.12.83-3.18,2.5-3.18s2.48,1.06,2.48,3.18v2.61c-.01,1.17-.24,2-.67,2.47-.43.47-1.04.71-1.81.71s-1.4-.24-1.84-.72c-.44-.48-.66-1.29-.66-2.46v-2.61ZM685.16,627.83c1.19,1.23,2.9,1.84,5.12,1.84s3.93-.61,5.12-1.84c1.18-1.23,1.78-2.97,1.78-5.22v-2.22c0-2.87-.91-4.83-2.73-5.86,1.82-1.02,2.73-2.9,2.73-5.65v-.9c0-2.25-.59-3.99-1.78-5.22s-2.89-1.84-5.12-1.84-3.93.61-5.12,1.84c-1.19,1.23-1.78,2.97-1.78,5.22v.9c0,2.77.91,4.65,2.73,5.65-1.82,1.03-2.73,2.99-2.73,5.86v2.22c0,2.25.59,3.99,1.78,5.22M680.9,625.3h-4.41v4.06h4.41v-4.06ZM664.44,608.17c0-1.17.22-2.01.66-2.49.44-.48,1.05-.73,1.84-.73s1.4.24,1.83.72c.43.48.65,1.31.65,2.5v1.57c0,1.97-.83,2.96-2.48,2.96s-2.5-.99-2.5-2.96v-1.57ZM664.44,619.89c0-2.12.83-3.18,2.5-3.18s2.48,1.06,2.48,3.18v2.61c-.01,1.17-.24,2-.67,2.47-.43.47-1.04.71-1.81.71s-1.4-.24-1.84-.72c-.44-.48-.66-1.29-.66-2.46v-2.61ZM661.81,627.83c1.19,1.23,2.9,1.84,5.12,1.84s3.93-.61,5.12-1.84c1.18-1.23,1.78-2.97,1.78-5.22v-2.22c0-2.87-.91-4.83-2.73-5.86,1.82-1.02,2.73-2.9,2.73-5.65v-.9c0-2.25-.59-3.99-1.78-5.22-1.18-1.23-2.89-1.84-5.12-1.84s-3.93.61-5.12,1.84c-1.19,1.23-1.78,2.97-1.78,5.22v.9c0,2.77.91,4.65,2.73,5.65-1.82,1.03-2.73,2.99-2.73,5.86v2.22c0,2.25.59,3.99,1.78,5.22"/>
  <path class="st2" d="M709.96,559.99c0-1.01.18-1.74.54-2.21.36-.47.93-.7,1.72-.7h2.12v8.65h-1.73c-.87,0-1.53-.23-1.98-.67-.45-.45-.66-1.22-.66-2.3v-2.76ZM709.51,581.18c.1-.33.17-.57.22-.74.04-.16.08-.48.13-.94.04-.47.07-1.06.07-1.78v-4.41c0-1.29.23-2.21.69-2.76.46-.55,1.19-.82,2.19-.82h1.53v11.45h4.41v-28.11h-6.66c-2.26,0-3.91.53-4.96,1.59-1.05,1.06-1.57,2.68-1.57,4.88v2.22c0,2.9.96,4.8,2.88,5.7-1.06.45-1.81,1.16-2.25,2.15-.45,1-.67,2.27-.67,3.82v4.33c0,1.52-.14,2.65-.41,3.41h4.41ZM693.1,581.18v-12.04h5.02v12.04h4.41v-28.11h-4.41v12.06h-5.02v-12.06h-4.41v28.11h4.41ZM674.85,581.18l3.43-10.45,3.39,10.45h4.41l-4.91-14.32,4.62-13.79h-3.87l-3.4,10.42-3.35-10.42h-4.41l4.63,13.62-4.94,14.49h4.41ZM659.91,574.7l-.04.25c-.17.97-.56,1.61-1.18,1.92-.62.31-1.52.43-2.73.35v4c1.19.08,2.23.04,3.11-.13.89-.16,1.64-.42,2.25-.78.61-.36,1.14-.85,1.57-1.49.43-.64.78-1.33,1.05-2.09.27-.76.51-1.67.73-2.75l4.72-20.92h-4.41l-2.02,9.64-1.03,6.51-1.37-6.57-2.38-9.58h-4.41l6.13,21.63ZM642.88,581.18v-8.63l1.37-2.57,4.29,11.19h4.53l-6.14-15.58,6.14-12.53h-4.41l-5.78,12.25v-12.25h-4.41v28.11h4.41Z"/>
  <path class="st2" d="M739.94,838.09c2.22,0,3.81-.46,4.76-1.39.96-.93,1.43-2.51,1.43-4.75v-15.82c0-2.24-.48-3.82-1.43-4.76-.95-.93-2.54-1.4-4.76-1.4h-1.35v3.82h1.08c.73,0,1.26.18,1.58.53.32.35.48,1,.48,1.95v15.51c0,.95-.16,1.6-.48,1.95-.32.35-.85.53-1.58.53h-1.08v3.82h1.35ZM732.16,814l-6.47,24.09h4.41l6.51-24.25v-3.86h-13.23v4.02h8.78ZM720.62,834.03h-4.41v4.06h4.41v-4.06ZM707.78,818.41v10.56h-4.45l4.45-10.56ZM707.78,832.99v5.1h4.41v-5.1h2.02v-4.02h-2.02v-18.99h-4.82l-8.02,18.99v4.02h8.43ZM691.94,836.7c.95.93,2.54,1.39,4.76,1.39h1.35v-3.82h-1.09c-.74,0-1.26-.18-1.58-.53-.32-.35-.47-1-.47-1.95v-15.51c0-.95.16-1.6.47-1.95s.84-.53,1.58-.53h1.09v-3.82h-1.35c-2.22,0-3.81.47-4.76,1.4-.96.93-1.43,2.52-1.43,4.76v15.82c0,2.24.48,3.82,1.43,4.75M675.59,818.41v10.56h-4.45l4.45-10.56ZM675.59,832.99v5.1h4.41v-5.1h2.02v-4.02h-2.02v-18.99h-4.82l-8.02,18.99v4.02h8.43ZM665.08,834.03h-4.41v4.06h4.41v-4.06ZM648.73,816.45c0-1.81.76-2.73,2.28-2.73s2.3.91,2.3,2.73v5.06c0,1.84-.77,2.76-2.3,2.76s-2.28-.92-2.28-2.76v-5.06ZM645.55,826.64c.82,1.1,2.04,1.65,3.65,1.65,1.96,0,3.33-.83,4.11-2.49v5.14c0,1.28-.2,2.18-.61,2.69-.41.52-1.02.77-1.85.77-1.54,0-2.3-.93-2.3-2.78v-1h-4.15v.73c0,2.26.56,4,1.68,5.23,1.12,1.22,2.75,1.83,4.89,1.83,4.5,0,6.75-2.43,6.75-7.29v-14.39c0-2.25-.58-3.99-1.73-5.21-1.16-1.23-2.82-1.85-4.98-1.85s-3.82.62-4.97,1.85c-1.15,1.23-1.73,2.97-1.73,5.21v5.16c0,2.08.41,3.66,1.23,4.76"/>
  <rect class="st2" x="159.55" y="736.32" width="72.85" height="10.08"/>
  <rect class="st0" x="159.55" y="736.32" width="72.85" height="10.08"/>
  <rect class="st2" x="159.55" y="705.26" width="68.32" height="32.89"/>
  <rect class="st0" x="159.55" y="705.26" width="68.32" height="32.89"/>
  <rect class="st2" x="146.25" y="736.32" width="72.85" height="10.08"/>
  <rect class="st0" x="146.25" y="736.32" width="72.85" height="10.08"/>
  <rect class="st2" x="150.78" y="705.26" width="68.32" height="32.89"/>
  <rect class="st0" x="150.78" y="705.26" width="68.32" height="32.89"/>
  <rect class="st0" x="551.3" y="736.32" width="145.97" height="10.08"/>
  <rect class="st2" x="501.8" y="736.32" width="106.66" height="10.08"/>
  <rect class="st0" x="501.8" y="736.32" width="106.66" height="10.08"/>
  <rect class="st2" x="501.8" y="705.26" width="97.92" height="32.89"/>
  <rect class="st0" x="501.8" y="705.26" width="97.92" height="32.89"/>
  <rect class="st2" x="753.2" y="736.32" width="106.66" height="10.08"/>
  <rect class="st0" x="753.2" y="736.32" width="106.66" height="10.08"/>
  <rect class="st2" x="761.94" y="705.26" width="97.92" height="32.89"/>
  <rect class="st0" x="761.94" y="705.26" width="97.92" height="32.89"/>
  <rect class="st0" x="551.3" y="705.26" width="137.24" height="31.04"/>
  <path class="st0" d="M689.25,735.46s3.43-14.52,7.12-24.46c3.68-9.94,8.15-15.4,8.15-15.4l64.94,37.42-1.95,3.12-65.29-36.74"/>
  <rect class="st0" x="217.16" y="736.32" width="145.97" height="10.08"/>
  <rect class="st2" x="167.66" y="736.32" width="106.66" height="10.08"/>
  <rect class="st0" x="167.66" y="736.32" width="106.66" height="10.08"/>
  <rect class="st2" x="167.65" y="705.26" width="97.92" height="32.89"/>
  <rect class="st0" x="167.65" y="705.26" width="97.92" height="32.89"/>
  <rect class="st2" x="419.06" y="736.32" width="106.66" height="10.08"/>
  <rect class="st0" x="419.06" y="736.32" width="106.66" height="10.08"/>
  <rect class="st2" x="427.79" y="705.26" width="97.92" height="32.89"/>
  <rect class="st0" x="427.79" y="705.26" width="97.92" height="32.89"/>
  <rect class="st0" x="217.16" y="705.26" width="137.24" height="31.04"/>
  <path class="st0" d="M355.1,735.46s3.43-14.52,7.12-24.46c3.68-9.94,8.15-15.4,8.15-15.4l64.94,37.42-1.95,3.12-65.29-36.74"/>
  <rect class="st2" x="136.46" y="144.69" width="421.29" height="16.5"/>
  <rect class="st0" x="136.46" y="144.69" width="421.29" height="16.5"/>
  <rect class="st2" x="648.62" y="144.69" width="217.63" height="16.5"/>
  <rect class="st0" x="648.62" y="144.69" width="217.8" height="16.5"/>
  <rect class="st2" x="494.29" y="132.39" width="16.5" height="92.02"/>
  <rect class="st0" x="494.29" y="135.41" width="16.5" height="89"/>
  <rect class="st2" x="138.59" y="135.41" width="419.16" height="16.5"/>
  <rect class="st0" x="505.45" y="135.41" width="52.3" height="16.5"/>
  <rect class="st2" x="648.62" y="135.41" width="36.29" height="25.78"/>
  <rect class="st0" x="648.62" y="135.41" width="36.29" height="25.78"/>
  <rect class="st2" x="768.5" y="135.41" width="97.92" height="25.78"/>
  <rect class="st2" x="136.38" y="135.41" width="19.48" height="712.41"/>
  <rect class="st0" x="139.35" y="144.2" width="16.5" height="703.62"/>
  <rect class="st2" x="850.89" y="144.68" width="15.53" height="753.61"/>
  <rect class="st0" x="850.89" y="144.69" width="15.53" height="753.61"/>
  <rect class="st0" x="819.31" y="163.5" width="29.36" height="83.76"/>
  <line class="st0" x1="844.07" y1="163.68" x2="844.07" y2="247.75"/>
  <polyline class="st0" points="844.08 167.85 822.89 169.71 822.89 222.7 844.08 225.02 844.08 228.51 822.65 230.83 822.65 242.69 844.08 245.24"/>
  <rect class="st0" x="512.41" y="345.78" width="29.36" height="83.76"/>
  <line class="st0" x1="537.17" y1="345.95" x2="537.17" y2="430.02"/>
  <polyline class="st0" points="537.18 350.12 515.99 351.98 515.99 404.97 537.18 407.3 537.18 410.78 515.75 413.1 515.75 424.96 537.18 427.52"/>
  <g>
    <path class="st2" d="M772.86,413.81c0,10.68,8.69,19.36,19.37,19.36h28.05c1.84,0,3.35-1.5,3.35-3.34v-32.05c0-1.84-1.5-3.34-3.35-3.34h-28.05c-10.68,0-19.37,8.69-19.37,19.37M824.96,397.78v32.05c0,2.58-2.1,4.67-4.67,4.67h-28.05c-11.42,0-20.7-9.29-20.7-20.7s9.29-20.7,20.7-20.7h28.05c2.58,0,4.67,2.1,4.67,4.67"/>
    <path class="st0" d="M772.86,413.81c0,10.68,8.69,19.36,19.37,19.36h28.05c1.84,0,3.35-1.5,3.35-3.34v-32.05c0-1.84-1.5-3.34-3.35-3.34h-28.05c-10.68,0-19.37,8.69-19.37,19.37ZM824.96,397.78v32.05c0,2.58-2.1,4.67-4.67,4.67h-28.05c-11.42,0-20.7-9.29-20.7-20.7s9.29-20.7,20.7-20.7h28.05c2.58,0,4.67,2.1,4.67,4.67Z"/>
    <path class="st0" d="M814.27,427.7v-27.77c0-.18-.16-.34-.33-.34h-21.15c-7.82,0-14.22,6.41-14.22,14.22s6.41,14.22,14.22,14.22h21.15c.17,0,.33-.16.33-.33Z"/>
    <path class="st2" d="M813.6,427.37v-27.11h-20.82c-7.48,0-13.56,6.08-13.56,13.56s6.08,13.56,13.56,13.56h20.82ZM814.93,399.93v27.77c0,.54-.46,1-1,1h-21.15c-8.21,0-14.89-6.68-14.89-14.89s6.68-14.89,14.89-14.89h21.15c.54,0,1,.46,1,1.01"/>
    <path class="st0" d="M813.6,427.37v-27.11h-20.82c-7.48,0-13.56,6.08-13.56,13.56s6.08,13.56,13.56,13.56h20.82ZM814.93,399.93v27.77c0,.54-.46,1-1,1h-21.15c-8.21,0-14.89-6.68-14.89-14.89s6.68-14.89,14.89-14.89h21.15c.54,0,1,.46,1,1.01Z"/>
    <path class="st2" d="M792.76,413.81c0,2.02,1.64,3.66,3.66,3.66s3.66-1.64,3.66-3.66-1.64-3.66-3.66-3.66-3.66,1.64-3.66,3.66M801.41,413.81c0,2.75-2.24,4.99-4.99,4.99s-4.99-2.24-4.99-4.99,2.24-4.99,4.99-4.99,4.99,2.24,4.99,4.99"/>
    <path class="st0" d="M792.76,413.81c0,2.02,1.64,3.66,3.66,3.66s3.66-1.64,3.66-3.66-1.64-3.66-3.66-3.66-3.66,1.64-3.66,3.66ZM801.41,413.81c0,2.75-2.24,4.99-4.99,4.99s-4.99-2.24-4.99-4.99,2.24-4.99,4.99-4.99,4.99,2.24,4.99,4.99Z"/>
  </g>
  <polygon class="st2" points="811.58 424.63 810.79 425.7 801.9 419.05 802.69 417.98 811.58 424.63"/>
  <polygon class="st0" points="811.58 424.63 810.79 425.7 801.9 419.05 802.69 417.98 811.58 424.63"/>
  <rect class="st2" x="801.19" y="405.33" width="11.11" height="1.33" transform="translate(-82.44 564.2) rotate(-36.8)"/>
  <rect class="st0" x="801.19" y="405.33" width="11.11" height="1.33" transform="translate(-82.44 564.2) rotate(-36.8)"/>
  <path class="st2" d="M825.02,427.18c0,2.96,2.41,5.37,5.37,5.37h7.3c2.96,0,5.37-2.41,5.37-5.37v-26.74c0-2.96-2.41-5.37-5.37-5.37h-7.3c-2.96,0-5.37,2.41-5.37,5.37v26.74ZM844.39,400.44v26.74c0,3.69-3.01,6.69-6.7,6.69h-7.3c-3.69,0-6.7-3-6.7-6.69v-26.74c0-3.69,3.01-6.69,6.7-6.69h7.3c3.69,0,6.7,3,6.7,6.69"/>
  <path class="st0" d="M825.02,427.18c0,2.96,2.41,5.37,5.37,5.37h7.3c2.96,0,5.37-2.41,5.37-5.37v-26.74c0-2.96-2.41-5.37-5.37-5.37h-7.3c-2.96,0-5.37,2.41-5.37,5.37v26.74ZM844.39,400.44v26.74c0,3.69-3.01,6.69-6.7,6.69h-7.3c-3.69,0-6.7-3-6.7-6.69v-26.74c0-3.69,3.01-6.69,6.7-6.69h7.3c3.69,0,6.7,3,6.7,6.69Z"/>
  <path class="st2" d="M831.97,413.81c0,1.14.93,2.08,2.08,2.08s2.08-.93,2.08-2.08-.93-2.08-2.08-2.08-2.08.93-2.08,2.08M837.45,413.81c0,1.88-1.53,3.4-3.4,3.4s-3.41-1.53-3.41-3.4,1.53-3.41,3.41-3.41,3.4,1.53,3.4,3.41"/>
  <path class="st0" d="M831.97,413.81c0,1.14.93,2.08,2.08,2.08s2.08-.93,2.08-2.08-.93-2.08-2.08-2.08-2.08.93-2.08,2.08ZM837.45,413.81c0,1.88-1.53,3.4-3.4,3.4s-3.41-1.53-3.41-3.4,1.53-3.41,3.41-3.41,3.4,1.53,3.4,3.41Z"/>
  <path class="st2" d="M809.33,357.27c0-9.76,7.94-17.69,17.7-17.69h18.78c1.48,0,2.69,1.21,2.69,2.69v40c0,1.48-1.21,2.69-2.69,2.69h-18.78c-9.76,0-17.7-7.94-17.7-17.7v-9.99ZM849.49,382.27v-40c0-2.03-1.65-3.69-3.68-3.69h-18.78c-10.31,0-18.7,8.38-18.7,18.69v9.99c0,10.31,8.39,18.7,18.7,18.7h18.78c2.03,0,3.68-1.65,3.68-3.68"/>
  <path class="st0" d="M809.33,357.27c0-9.76,7.94-17.69,17.7-17.69h18.78c1.48,0,2.69,1.21,2.69,2.69v40c0,1.48-1.21,2.69-2.69,2.69h-18.78c-9.76,0-17.7-7.94-17.7-17.7v-9.99ZM849.49,382.27v-40c0-2.03-1.65-3.69-3.68-3.69h-18.78c-10.31,0-18.7,8.38-18.7,18.69v9.99c0,10.31,8.39,18.7,18.7,18.7h18.78c2.03,0,3.68-1.65,3.68-3.68Z"/>
  <path class="st2" d="M813.76,357.27c0-7.31,5.95-13.26,13.27-13.26h10.96c1.28,0,2.32,1.03,2.32,2.31v31.88c0,1.28-1.04,2.31-2.32,2.31h-10.96c-7.32,0-13.27-5.95-13.27-13.27v-9.99ZM841.3,378.21v-31.88c0-1.83-1.49-3.31-3.31-3.31h-10.96c-7.87,0-14.27,6.4-14.27,14.26v9.99c0,7.87,6.4,14.26,14.27,14.26h10.96c1.83,0,3.31-1.49,3.31-3.31"/>
  <path class="st0" d="M813.76,357.27c0-7.31,5.95-13.26,13.27-13.26h10.96c1.28,0,2.32,1.03,2.32,2.31v31.88c0,1.28-1.04,2.31-2.32,2.31h-10.96c-7.32,0-13.27-5.95-13.27-13.27v-9.99ZM841.3,378.21v-31.88c0-1.83-1.49-3.31-3.31-3.31h-10.96c-7.87,0-14.27,6.4-14.27,14.26v9.99c0,7.87,6.4,14.26,14.27,14.26h10.96c1.83,0,3.31-1.49,3.31-3.31Z"/>
  <path class="st2" d="M823.04,362.27c0-1.22,1-2.22,2.22-2.22s2.21,1,2.21,2.22-.99,2.22-2.21,2.22-2.22-1-2.22-2.22M828.48,362.27c0-1.78-1.45-3.22-3.22-3.22s-3.22,1.45-3.22,3.22,1.44,3.22,3.22,3.22,3.22-1.45,3.22-3.22"/>
  <path class="st0" d="M823.04,362.27c0-1.22,1-2.22,2.22-2.22s2.21,1,2.21,2.22-.99,2.22-2.21,2.22-2.22-1-2.22-2.22ZM828.48,362.27c0-1.78-1.45-3.22-3.22-3.22s-3.22,1.45-3.22,3.22,1.44,3.22,3.22,3.22,3.22-1.45,3.22-3.22Z"/>
  <g>
    <path class="st0" d="M818.24,297.02c0,1.5-1.22,2.71-2.72,2.71s-2.71-1.21-2.71-2.71,1.22-2.71,2.71-2.71,2.72,1.21,2.72,2.71Z"/>
    <path class="st0" d="M703.96,266.69h122.36c9.89,0,17.92,8.03,17.92,17.92v24.82c0,9.89-8.03,17.91-17.91,17.91h-122.36c-9.89,0-17.91-8.03-17.91-17.91v-24.83c0-9.89,8.03-17.91,17.91-17.91Z"/>
    <path class="st0" d="M714.94,272.36h100.38c9.89,0,17.91,8.03,17.91,17.91v13.49c0,9.89-8.03,17.91-17.91,17.91h-100.38c-9.89,0-17.91-8.03-17.91-17.91v-13.49c0-9.89,8.03-17.91,17.91-17.91Z"/>
    <rect class="st0" x="710.29" y="277.81" width="116.88" height="38.42" rx="8.96" ry="8.96"/>
  </g>
  <polygon class="st0" points="850.43 332.41 850.43 332.41 679.84 332.41 679.84 261.63 850.43 261.63 850.43 332.41"/>
  <rect class="st0" x="682.22" y="391.1" width="38.42" height="58.99"/>
  <line class="st0" x1="682.78" y1="390.78" x2="720.48" y2="450.01"/>
  <line class="st0" x1="720.92" y1="390.78" x2="683.22" y2="450.01"/>
  <path class="st2" d="M848.15,466.66h-57.35v57.35h57.35v-57.35ZM849.42,525.28h-59.89v-59.89h59.89v59.89Z"/>
  <path class="st0" d="M848.15,466.66h-57.35v57.35h57.35v-57.35ZM849.42,525.28h-59.89v-59.89h59.89v59.89Z"/>
  <g>
    <path class="st2" d="M796.03,515.42c0,1.41,1.15,2.56,2.57,2.56h30.14c1.42,0,2.57-1.15,2.57-2.56v-40.17c0-1.41-1.15-2.56-2.57-2.56h-30.14c-1.42,0-2.57,1.15-2.57,2.56v40.17ZM832.58,475.25v40.17c0,2.11-1.72,3.84-3.84,3.84h-30.14c-2.12,0-3.84-1.72-3.84-3.84v-40.17c0-2.12,1.72-3.83,3.84-3.83h30.14c2.12,0,3.84,1.72,3.84,3.83"/>
    <path class="st0" d="M796.03,515.42c0,1.41,1.15,2.56,2.57,2.56h30.14c1.42,0,2.57-1.15,2.57-2.56v-40.17c0-1.41-1.15-2.56-2.57-2.56h-30.14c-1.42,0-2.57,1.15-2.57,2.56v40.17ZM832.58,475.25v40.17c0,2.11-1.72,3.84-3.84,3.84h-30.14c-2.12,0-3.84-1.72-3.84-3.84v-40.17c0-2.12,1.72-3.83,3.84-3.83h30.14c2.12,0,3.84,1.72,3.84,3.83Z"/>
  </g>
  <path class="st2" d="M826.85,477.14h-26.36v36.39h26.36v-36.39ZM828.12,514.8h-28.9v-38.93h28.9v38.93Z"/>
  <path class="st0" d="M826.85,477.14h-26.36v36.39h26.36v-36.39ZM828.12,514.8h-28.9v-38.93h28.9v38.93Z"/>
  <g>
    <path class="st2" d="M808.56,495.34c0,1.83,1.49,3.33,3.33,3.33s3.33-1.49,3.33-3.33-1.49-3.32-3.33-3.32-3.33,1.49-3.33,3.32M816.48,495.34c0,2.53-2.06,4.6-4.6,4.6s-4.59-2.06-4.59-4.6,2.06-4.6,4.59-4.6,4.6,2.06,4.6,4.6"/>
    <path class="st0" d="M808.56,495.34c0,1.83,1.49,3.33,3.33,3.33s3.33-1.49,3.33-3.33-1.49-3.32-3.33-3.32-3.33,1.49-3.33,3.32ZM816.48,495.34c0,2.53-2.06,4.6-4.6,4.6s-4.59-2.06-4.59-4.6,2.06-4.6,4.59-4.6,4.6,2.06,4.6,4.6Z"/>
  </g>
  <path class="st0" d="M557.97,147.74s0,12.67,5.58,28.44c4.67,13.2,13.98,25.53,13.98,25.53l87.99-48.97-1.95-3.12-88.18,48.98"/>
  <path class="st0" d="M634.33,431.66s0,10.71-4.72,24.04c-3.95,11.16-11.82,21.58-11.82,21.58l-74.4-41.39,1.5-2.74,74.56,41.4"/>
  <path class="st0" d="M511.81,309.97s-12.67,0-28.44-5.58c-13.2-4.67-25.53-13.98-25.53-13.98l48.97-87.99,3.12,1.95-48.98,88.18"/>
  <path class="st0" d="M676.45,332.57s-8.85,0-19.87,4c-9.22,3.35-17.83,10.03-17.83,10.03l33.31,54.72,2.94-1.99-33.32-54.85"/>
  <line class="st0" x1="660.7" y1="135.27" x2="866.42" y2="135.27"/>
  <path class="st2" d="M341.76,569.56c0-1.84.77-2.76,2.3-2.76s2.28.92,2.28,2.76v15.17c0,1.86-.76,2.78-2.28,2.78s-2.3-.93-2.3-2.78v-15.17ZM339.08,589.67c1.16,1.23,2.82,1.84,4.98,1.84s3.81-.61,4.97-1.84c1.15-1.23,1.73-2.97,1.73-5.22v-14.62c0-2.25-.58-3.99-1.73-5.22-1.15-1.23-2.8-1.84-4.97-1.84s-3.82.61-4.98,1.84c-1.16,1.23-1.74,2.97-1.74,5.22v14.62c0,2.25.58,3.99,1.74,5.22M334.68,587.14h-4.41v4.06h4.41v-4.06ZM318.33,569.56c0-1.82.76-2.73,2.28-2.73s2.3.91,2.3,2.73v5.06c0,1.84-.77,2.76-2.3,2.76s-2.28-.92-2.28-2.76v-5.06ZM315.15,579.75c.82,1.1,2.04,1.64,3.65,1.64,1.96,0,3.33-.83,4.12-2.49v5.14c0,1.28-.21,2.18-.61,2.69-.41.52-1.02.78-1.85.78-1.53,0-2.3-.93-2.3-2.78v-1h-4.16v.72c0,2.26.56,4,1.68,5.23,1.12,1.22,2.75,1.83,4.89,1.83,4.5,0,6.75-2.43,6.75-7.29v-14.39c0-2.25-.58-3.99-1.74-5.22-1.16-1.23-2.81-1.84-4.98-1.84s-3.82.61-4.97,1.84c-1.15,1.23-1.73,2.97-1.73,5.22v5.15c0,2.08.41,3.67,1.23,4.77M304.61,569.75v21.45h4.41v-28.11h-2.98c-.17.46-.32.83-.45,1.11-.13.28-.32.6-.58.94-.25.35-.54.61-.85.8-.31.19-.72.35-1.23.49-.51.14-1.09.21-1.75.21v3.12h3.43Z"/>
  <path class="st2" d="M378.68,519.95l2.14,14.15h-4.26l2.12-14.15ZM375.22,543.02l.76-5.1h5.41l.77,5.1h4.41l-4.48-28.11h-6.81l-4.47,28.11h4.41ZM361.01,518.93v24.09h4.41v-24.09h4.63v-4.02h-13.66v4.02h4.63ZM348.06,519.95l2.13,14.15h-4.26l2.12-14.15ZM344.6,543.02l.76-5.1h5.41l.77,5.1h4.41l-4.48-28.11h-6.81l-4.47,28.11h4.41ZM328.63,543.02v-12.04h5.02v12.04h4.41v-28.11h-4.41v12.06h-5.02v-12.06h-4.41v28.11h4.41ZM306.32,543.02v-19.83l3.29,19.83h4.18l3.05-20.15v20.15h4.41v-28.11h-6.36l-3.03,20.02-3.27-20.02h-6.13v28.11h3.84ZM290.65,521.38c0-1.84.77-2.76,2.3-2.76s2.28.92,2.28,2.76v15.17c0,1.86-.76,2.78-2.28,2.78s-2.3-.93-2.3-2.78v-15.17ZM287.98,541.49c1.16,1.23,2.82,1.85,4.98,1.85s3.81-.62,4.97-1.85c1.15-1.23,1.73-2.97,1.73-5.21v-14.63c0-2.25-.58-3.99-1.73-5.22-1.15-1.23-2.81-1.84-4.97-1.84s-3.82.62-4.98,1.84c-1.16,1.23-1.74,2.97-1.74,5.22v14.63c0,2.25.58,3.99,1.74,5.21M274.42,543.02v-8.63l1.37-2.57,4.29,11.19h4.53l-6.14-15.58,6.14-12.53h-4.41l-5.78,12.25v-12.25h-4.41v28.11h4.41Z"/>
  <path class="st2" d="M371.87,446.58v24.15h-10.17l10.17-24.15ZM371.87,479.92v11.65h10.08v-11.65h4.61v-9.18h-4.61v-43.42h-11.02l-18.33,43.42v9.18h19.27ZM347.85,482.29h-10.08v9.27h10.08v-9.27ZM315.46,442.55v49.02h10.08v-64.25h-6.81c-.39,1.05-.73,1.89-1.03,2.53-.3.64-.74,1.36-1.32,2.15-.58.79-1.23,1.41-1.95,1.84-.72.43-1.66.8-2.83,1.12-1.16.32-2.49.47-3.99.47v7.13h7.84ZM282.17,446.58v24.15h-10.17l10.17-24.15ZM282.17,479.92v11.65h10.08v-11.65h4.62v-9.18h-4.62v-43.42h-11.02l-18.32,43.42v9.18h19.27Z"/>
  <path class="st0" d="M324.44,408.55c31.06,0,56.24-25.18,56.24-56.24s-25.18-56.24-56.24-56.24-56.24,25.18-56.24,56.24,25.18,56.24,56.24,56.24Z"/>
  <path class="st2" d="M334.24,380.1v-14.93l2.37-4.44,7.43,19.37h7.84l-10.62-26.97,10.62-21.68h-7.63l-10.01,21.2v-21.2h-7.63v48.65h7.63ZM309.72,342.99v37.12h7.63v-48.65h-5.16c-.29.79-.55,1.43-.78,1.91-.23.49-.56,1.03-1,1.63-.44.6-.93,1.06-1.48,1.39-.54.33-1.25.61-2.14.85-.88.24-1.89.36-3.02.36v5.39h5.94Z"/>
  <path class="st2" d="M752.7,379.77v6.34h-2.67l2.67-6.34ZM752.7,388.52v3.06h2.64v-3.06h1.21v-2.41h-1.21v-11.4h-2.89l-4.81,11.4v2.41h5.06ZM746.39,389.14h-2.65v2.43h2.65v-2.43ZM735.14,390.66c.71.73,1.71,1.1,3.01,1.1s2.27-.37,2.94-1.1c.67-.73,1-1.78,1-3.13v-1.33c0-1.83-.61-3.01-1.85-3.54,1.23-.51,1.85-1.67,1.85-3.47v-.43c0-1.36-.33-2.4-1-3.13-.67-.73-1.65-1.1-2.94-1.1s-2.29.37-3.01,1.1c-.71.73-1.07,1.78-1.07,3.13v.92h2.65v-1.08c0-1.11.45-1.66,1.36-1.66.45,0,.79.14,1.02.42.23.28.35.78.35,1.5v.94c0,.64-.13,1.1-.4,1.37-.27.27-.66.41-1.19.41h-1.03v2.41h.89c.61,0,1.05.16,1.32.49.27.33.41.88.41,1.65v1.33c0,.71-.12,1.2-.35,1.48-.23.28-.57.42-1.02.42-.91,0-1.36-.55-1.36-1.67v-1.56h-2.65v1.4c0,1.36.36,2.4,1.07,3.13"/>
  <path class="st2" d="M753.2,358.78l-.02.15c-.1.58-.34.96-.71,1.15-.37.19-.91.26-1.64.21v2.4c.71.05,1.34.02,1.87-.08.53-.1.98-.26,1.35-.47.37-.21.68-.51.95-.89.26-.38.47-.8.63-1.25.16-.45.31-1,.44-1.65l2.83-12.55h-2.65l-1.21,5.79-.62,3.9-.82-3.94-1.43-5.75h-2.65l3.68,12.97ZM742.58,362.67l6.65-16.86h-2.29l-6.65,16.86h2.29ZM732.62,361.76c.67.73,1.66,1.1,2.96,1.1s2.3-.37,3.01-1.1c.71-.73,1.07-1.78,1.07-3.13v-2.25h-2.64v2.41c0,1.1-.46,1.65-1.37,1.65s-1.38-.55-1.38-1.65v-9.11c0-1.11.46-1.66,1.38-1.66s1.37.55,1.37,1.66v1.81h2.64v-1.65c0-1.36-.36-2.4-1.07-3.13-.71-.73-1.72-1.1-3.01-1.1s-2.28.37-2.96,1.1c-.67.73-1.01,1.78-1.01,3.13v8.78c0,1.36.34,2.4,1.01,3.13"/>
  <path class="st2" d="M591.23,306.88c.92.95,2.23,1.43,3.91,1.43s2.95-.48,3.82-1.43c.87-.95,1.31-2.31,1.31-4.07v-4.89c0-1.63-.32-2.87-.96-3.72-.64-.85-1.59-1.28-2.85-1.28-1.36,0-2.36.53-3,1.59l.27-5.23h5.98v-3.13h-9.21l-.66,12.72h3.44v-.66c0-1.44.59-2.16,1.77-2.16s1.78.72,1.78,2.16v4.82c0,1.42-.59,2.14-1.78,2.14s-1.77-.72-1.77-2.14v-2.03h-3.44v1.82c0,1.76.47,3.12,1.39,4.07M587.62,304.9h-3.44v3.16h3.44v-3.16ZM573.02,306.88c.92.95,2.23,1.43,3.91,1.43s2.95-.48,3.82-1.43c.87-.95,1.31-2.31,1.31-4.07v-4.89c0-1.63-.32-2.87-.96-3.72-.64-.85-1.59-1.28-2.85-1.28-1.36,0-2.36.53-3,1.59l.27-5.23h5.98v-3.13h-9.21l-.66,12.72h3.44v-.66c0-1.44.59-2.16,1.77-2.16s1.78.72,1.78,2.16v4.82c0,1.42-.59,2.14-1.78,2.14s-1.77-.72-1.77-2.14v-2.03h-3.44v1.82c0,1.76.47,3.12,1.39,4.07"/>
  <path class="st2" d="M632.03,253.96c0-.78.14-1.36.42-1.72.28-.36.73-.54,1.34-.54h1.65v6.74h-1.35c-.68,0-1.2-.17-1.54-.53-.35-.35-.52-.95-.52-1.79v-2.16ZM631.68,270.49c.08-.25.14-.45.17-.57.03-.13.07-.37.1-.74.04-.36.05-.82.05-1.38v-3.44c0-1.01.18-1.73.53-2.15s.93-.64,1.71-.64h1.2v8.93h3.44v-21.93h-5.2c-1.76,0-3.05.41-3.87,1.24-.82.83-1.22,2.09-1.22,3.8v1.73c0,2.26.75,3.75,2.25,4.45-.83.35-1.41.91-1.76,1.68-.35.77-.52,1.77-.52,2.98v3.38c0,1.18-.11,2.07-.32,2.66h3.44ZM621.31,252.49l1.66,11.04h-3.32l1.66-11.04ZM618.61,270.49l.6-3.98h4.22l.6,3.98h3.44l-3.49-21.93h-5.31l-3.49,21.93h3.44ZM599.6,270.49l3.15-9.77.85,1.7v8.07h3.44v-8.03l.86-1.66,3.13,9.69h3.44l-4.22-12.98,4.22-8.94h-3.35l-4.08,8.87v-8.87h-3.44v8.87l-4.08-8.87h-3.35l4.27,8.99-4.27,12.93h3.44ZM587.92,253.61c0-1.43.6-2.15,1.79-2.15s1.78.72,1.78,2.15v11.83c0,1.45-.6,2.17-1.78,2.17s-1.79-.73-1.79-2.17v-11.83ZM585.84,269.3c.9.96,2.2,1.43,3.88,1.43s2.98-.48,3.88-1.43c.9-.96,1.35-2.31,1.35-4.07v-11.41c0-1.75-.45-3.11-1.35-4.07s-2.19-1.44-3.88-1.44-2.98.48-3.88,1.44c-.9.96-1.36,2.31-1.36,4.07v11.41c0,1.75.45,3.11,1.36,4.07M573.98,270.49l2.67-8.15,2.64,8.15h3.44l-3.84-11.17,3.61-10.76h-3.02l-2.65,8.13-2.61-8.13h-3.44l3.61,10.63-3.85,11.3h3.44ZM561.48,270.49l2.9-10.04,1.39-5.37v15.41h3.44v-21.93h-4.13l-2.81,9.05-1.25,4.83v-13.88h-3.08v21.93h3.53ZM549.59,251.69h1.63c.57,0,1,.16,1.27.47.27.31.41.85.41,1.6v3.29c0,.75-.14,1.29-.41,1.61-.27.32-.7.47-1.27.47h-1.63v-7.43ZM549.59,270.49v-8.24h1.63c1.7,0,2.98-.46,3.84-1.38.86-.92,1.29-2.26,1.29-4.03v-2.85c0-1.76-.43-3.11-1.29-4.04-.86-.93-2.14-1.39-3.84-1.39h-5.07v21.93h3.44ZM536.23,270.49v-18.79h3.91v18.79h3.44v-21.93h-10.8v21.93h3.44Z"/>
  <rect class="st0" x="505.97" y="882.83" width="351.47" height="10.08"/>
  <polygon class="st0" points="497.08 892.75 497.08 882.67 152.07 832.08 152.07 842.16 497.08 892.75"/>
</svg>