<?xml version="1.0" encoding="UTF-8"?>
<svg id="_Слой_1" data-name="Слой_1" xmlns="http://www.w3.org/2000/svg" version="1.1" viewBox="0 0 1000 1000">
  <!-- Generator: Adobe Illustrator 29.4.0, SVG Export Plug-In . SVG Version: 2.1.0 Build 152)  -->
  <defs>
    <style>
      .st0 {
        fill: #f7c7d0;
      }

      .st1 {
        stroke-linejoin: round;
      }

      .st1, .st2, .st3, .st4 {
        fill: none;
        stroke: #3c3c3b;
      }

      .st1, .st3 {
        stroke-linecap: round;
      }

      .st3 {
        stroke-linejoin: bevel;
      }

      .st5 {
        fill: #3c3c3b;
      }

      .st4 {
        stroke-dasharray: 3.9 3.9;
      }
    </style>
  </defs>
  <rect class="st0" x="487.79" y="165.31" width="217.35" height="696.89"/>
  <rect class="st0" x="284.41" y="412.18" width="209.62" height="450.02"/>
  <rect class="st2" x="488.88" y="77.23" width="205.45" height="5.89"/>
  <rect class="st5" x="688.15" y="74.55" width="24.9" height="812.02"/>
  <rect class="st2" x="688.15" y="74.55" width="24.9" height="812.02"/>
  <rect class="st5" x="274.44" y="403.31" width="9.36" height="75.43"/>
  <rect class="st2" x="274.44" y="403.31" width="9.36" height="75.43"/>
  <rect class="st5" x="281.47" y="402.28" width="201.71" height="9.65"/>
  <rect class="st2" x="281.47" y="402.28" width="201.71" height="9.65"/>
  <rect class="st5" x="274.44" y="539.93" width="9.36" height="347"/>
  <rect class="st2" x="274.44" y="539.93" width="9.36" height="347"/>
  <rect class="st5" x="482.15" y="74.55" width="11.28" height="387.53"/>
  <rect class="st5" x="474.41" y="74.55" width="11.28" height="332.55"/>
  <rect class="st2" x="482.15" y="74.55" width="11.28" height="387.53"/>
  <rect class="st5" x="482.15" y="512.65" width="11.28" height="359.16"/>
  <rect class="st2" x="482.15" y="512.65" width="11.28" height="359.16"/>
  <path class="st5" d="M599.02,274.9c0-1.06.45-1.59,1.34-1.59s1.35.53,1.35,1.59v2.96c0,1.08-.45,1.62-1.35,1.62s-1.34-.54-1.34-1.62v-2.96ZM597.17,280.86c.48.64,1.19.96,2.13.96,1.14,0,1.95-.48,2.41-1.46v3c0,.75-.12,1.28-.36,1.58-.24.3-.6.45-1.08.45-.9,0-1.35-.54-1.35-1.63v-.58h-2.43v.42c0,1.32.33,2.34.98,3.05.65.71,1.61,1.07,2.86,1.07,2.63,0,3.95-1.42,3.95-4.26v-8.41c0-1.31-.34-2.33-1.01-3.05-.67-.72-1.65-1.08-2.91-1.08s-2.23.36-2.9,1.08c-.67.72-1.01,1.74-1.01,3.05v3.01c0,1.22.24,2.14.72,2.79M594.93,285.18h-2.58v2.37h2.58v-2.37ZM586.65,275.01v12.54h2.58v-16.43h-1.74c-.1.27-.19.48-.26.65-.08.16-.19.35-.34.55-.15.2-.31.36-.5.47-.18.11-.42.21-.72.29-.3.08-.64.12-1.02.12v1.82h2.01ZM577.35,275.01v12.54h2.58v-16.43h-1.74c-.1.27-.19.48-.26.65-.08.16-.19.35-.34.55-.15.2-.31.36-.5.47-.18.11-.42.21-.72.29-.3.08-.64.12-1.02.12v1.82h2.01Z"/>
  <path class="st5" d="M616.78,247c0-.59.1-1.02.31-1.29.21-.27.54-.41,1-.41h1.24v5.06h-1.01c-.51,0-.9-.13-1.16-.4-.26-.26-.39-.71-.39-1.35v-1.62ZM616.51,259.39c.06-.19.1-.33.13-.43.02-.1.05-.28.07-.55.03-.27.04-.62.04-1.04v-2.58c0-.76.13-1.3.4-1.62.27-.32.69-.48,1.28-.48h.89v6.69h2.58v-16.43h-3.9c-1.32,0-2.29.31-2.9.93-.61.62-.92,1.57-.92,2.85v1.3c0,1.7.56,2.81,1.68,3.33-.62.26-1.06.68-1.32,1.26-.26.58-.39,1.33-.39,2.23v2.53c0,.88-.08,1.55-.24,1.99h2.58ZM606.92,259.39v-7.04h2.93v7.04h2.58v-16.43h-2.58v7.05h-2.93v-7.05h-2.58v16.43h2.58ZM597.73,251.48h1.23c.43,0,.74.12.95.35.21.23.31.63.31,1.2v2.46c0,.57-.1.96-.31,1.2-.21.23-.52.35-.95.35h-1.23v-5.56ZM598.95,259.39c1.27,0,2.23-.35,2.88-1.04.64-.69.97-1.7.97-3.02v-2.14c0-1.32-.32-2.33-.97-3.02-.64-.69-1.6-1.04-2.87-1.04h-1.23v-6.18h-2.58v16.43h3.8ZM584.29,259.41c1.29,0,2.23-.32,2.81-.96.58-.64.9-1.71.95-3.21l.29-9.94h2.24v14.09h2.58v-16.43h-7.39l-.29,12.42c-.01.38-.05.68-.1.9-.05.22-.15.39-.28.51-.13.12-.29.19-.46.22-.17.03-.42.05-.73.05v2.35h.4ZM578.97,245.9l1.25,8.27h-2.49l1.24-8.27ZM576.95,259.39l.45-2.98h3.16l.45,2.98h2.58l-2.61-16.43h-3.98l-2.61,16.43h2.58ZM567.61,259.39v-14.09h2.93v14.09h2.58v-16.43h-8.09v16.43h2.58ZM556.74,258.5c.65.71,1.61,1.07,2.88,1.07s2.24-.36,2.94-1.07c.69-.71,1.04-1.73,1.04-3.05v-2.19h-2.58v2.35c0,1.07-.45,1.6-1.34,1.6s-1.35-.53-1.35-1.6v-8.87c0-1.08.45-1.62,1.35-1.62s1.34.54,1.34,1.62v1.76h2.58v-1.6c0-1.32-.35-2.34-1.04-3.06-.69-.71-1.67-1.07-2.94-1.07s-2.22.36-2.88,1.07c-.65.71-.98,1.73-.98,3.06v8.55c0,1.32.33,2.34.98,3.05"/>
  <path class="st5" d="M600.54,756.03l-3.78,14.09h2.58l3.81-14.18v-2.26h-7.74v2.35h5.13ZM593.79,767.74h-2.58v2.37h2.58v-2.37ZM589.38,770.12v-2.35h-4.86c-.01-.08-.02-.19-.02-.35,0-.36.09-.73.28-1.11.19-.38.44-.75.74-1.11.3-.36.63-.73,1-1.13.36-.39.73-.82,1.09-1.27.36-.45.69-.93.99-1.43.3-.5.54-1.07.73-1.71.19-.64.29-1.32.29-2.02,0-1.32-.33-2.34-.98-3.06-.65-.71-1.61-1.07-2.86-1.07s-2.21.36-2.87,1.07c-.66.71-1,1.73-1,3.06v1.6h2.46v-1.76c0-1.08.44-1.62,1.34-1.62.44,0,.77.14.99.41.22.27.33.76.33,1.47,0,.64-.09,1.25-.28,1.81-.19.56-.43,1.06-.73,1.48-.3.43-.63.84-1,1.25-.36.41-.73.81-1.09,1.22-.37.41-.7.83-1,1.26-.3.43-.55.93-.74,1.51-.19.58-.28,1.19-.28,1.84v2.02h7.46ZM576.21,757.58v12.54h2.58v-16.43h-1.74c-.1.27-.19.48-.26.65-.08.16-.19.35-.34.55-.15.2-.31.36-.5.47-.18.11-.42.21-.72.29-.3.08-.64.12-1.02.12v1.82h2.01Z"/>
  <path class="st5" d="M618.86,729.56c0-.59.11-1.02.32-1.29.21-.27.54-.41,1-.41h1.24v5.06h-1.01c-.51,0-.9-.13-1.16-.39-.26-.26-.39-.71-.39-1.35v-1.62ZM618.6,741.95c.06-.19.1-.33.13-.43.02-.09.05-.28.07-.55.03-.27.04-.62.04-1.04v-2.58c0-.75.13-1.29.4-1.62.27-.32.69-.48,1.28-.48h.89v6.69h2.58v-16.43h-3.9c-1.32,0-2.29.31-2.9.93-.61.62-.92,1.57-.92,2.85v1.3c0,1.7.56,2.81,1.69,3.34-.62.26-1.06.68-1.32,1.26-.26.58-.39,1.33-.39,2.24v2.53c0,.89-.08,1.55-.24,1.99h2.58ZM610.82,728.46l1.25,8.27h-2.49l1.24-8.27ZM608.8,741.95l.45-2.98h3.16l.45,2.98h2.58l-2.62-16.43h-3.98l-2.61,16.43h2.58ZM599.46,741.95v-7.04h2.93v7.04h2.58v-16.43h-2.58v7.05h-2.93v-7.05h-2.58v16.43h2.58ZM589.51,741.95l2.18-7.53,1.04-4.02v11.55h2.58v-16.43h-3.09l-2.11,6.78-.94,3.62v-10.41h-2.3v16.43h2.65ZM580.46,727.86v14.09h2.58v-14.09h2.7v-2.35h-7.99v2.35h2.7ZM570.22,741.06c.65.71,1.61,1.07,2.88,1.07s2.24-.36,2.94-1.07c.69-.71,1.04-1.73,1.04-3.05v-2.19h-2.58v2.35c0,1.07-.44,1.6-1.34,1.6s-1.35-.53-1.35-1.6v-8.87c0-1.08.45-1.62,1.35-1.62s1.34.54,1.34,1.62v1.77h2.58v-1.61c0-1.32-.35-2.34-1.04-3.05-.69-.71-1.67-1.07-2.94-1.07s-2.22.36-2.88,1.07c-.65.71-.98,1.73-.98,3.05v8.55c0,1.32.33,2.34.98,3.05M562.52,729.3c0-1.08.45-1.62,1.35-1.62s1.34.54,1.34,1.62v8.87c0,1.09-.45,1.63-1.34,1.63s-1.35-.54-1.35-1.63v-8.87ZM560.96,741.06c.68.72,1.65,1.08,2.91,1.08s2.23-.36,2.9-1.08c.67-.72,1.01-1.73,1.01-3.05v-8.55c0-1.31-.34-2.33-1.01-3.05-.67-.72-1.64-1.08-2.9-1.08s-2.23.36-2.91,1.08c-.68.72-1.02,1.74-1.02,3.05v8.55c0,1.31.34,2.33,1.02,3.05M554.2,741.95v-14.09h4.23v-2.35h-6.81v16.43h2.58Z"/>
  <path class="st5" d="M386.35,498.74c.69.71,1.67,1.07,2.93,1.07s2.21-.36,2.87-1.07c.65-.71.98-1.73.98-3.06v-1.3c0-1.78-.6-2.93-1.8-3.45,1.2-.5,1.8-1.62,1.8-3.38v-.42c0-1.32-.33-2.34-.98-3.06-.65-.71-1.61-1.07-2.87-1.07s-2.23.36-2.93,1.07c-.69.71-1.04,1.73-1.04,3.06v.89h2.58v-1.05c0-1.08.44-1.62,1.32-1.62.44,0,.77.14,1,.41.22.27.34.76.34,1.47v.92c0,.63-.13,1.07-.39,1.34-.26.26-.64.4-1.16.4h-1.01v2.35h.87c.6,0,1.03.16,1.29.48.26.32.4.85.4,1.6v1.3c0,.69-.11,1.17-.34,1.44-.22.28-.56.41-1,.41-.88,0-1.32-.54-1.32-1.63v-1.52h-2.58v1.36c0,1.32.35,2.34,1.04,3.06M383.67,497.25h-2.58v2.37h2.58v-2.37ZM376.77,485.54l-3.78,14.09h2.58l3.8-14.18v-2.26h-7.74v2.35h5.14Z"/>
  <path class="st5" d="M416.95,459.07c0-.59.11-1.02.32-1.29.21-.27.54-.41,1-.41h1.24v5.06h-1.01c-.51,0-.9-.13-1.16-.39-.26-.26-.39-.71-.39-1.35v-1.62ZM416.69,471.46c.06-.19.1-.33.13-.43.02-.09.05-.28.07-.55.03-.27.04-.62.04-1.04v-2.58c0-.75.13-1.29.4-1.62.27-.32.7-.48,1.29-.48h.89v6.69h2.58v-16.43h-3.9c-1.32,0-2.29.31-2.9.93-.61.62-.92,1.57-.92,2.85v1.3c0,1.7.56,2.81,1.69,3.34-.62.26-1.06.68-1.32,1.26-.26.58-.39,1.33-.39,2.24v2.53c0,.89-.08,1.55-.24,1.99h2.58ZM408.92,457.97l1.25,8.27h-2.49l1.24-8.27ZM406.89,471.46l.45-2.98h3.16l.45,2.98h2.58l-2.62-16.43h-3.98l-2.62,16.43h2.58ZM392.65,471.46l2.36-7.32.63,1.28v6.05h2.58v-6.02l.64-1.25,2.35,7.27h2.58l-3.17-9.73,3.17-6.7h-2.51l-3.06,6.65v-6.65h-2.58v6.65l-3.06-6.65h-2.51l3.21,6.74-3.21,9.69h2.58ZM383.89,458.81c0-1.08.45-1.62,1.35-1.62s1.33.54,1.33,1.62v8.87c0,1.09-.44,1.63-1.33,1.63s-1.35-.54-1.35-1.63v-8.87ZM382.33,470.56c.68.72,1.65,1.08,2.91,1.08s2.23-.36,2.9-1.08c.67-.72,1.01-1.73,1.01-3.05v-8.55c0-1.31-.34-2.33-1.01-3.05-.67-.72-1.64-1.08-2.9-1.08s-2.23.36-2.91,1.08c-.68.72-1.02,1.74-1.02,3.05v8.55c0,1.31.34,2.33,1.02,3.05M373.44,471.46l2.01-6.11,1.98,6.11h2.58l-2.87-8.37,2.7-8.06h-2.26l-1.99,6.09-1.96-6.09h-2.58l2.7,7.96-2.89,8.47h2.58ZM364.08,471.46l2.18-7.53,1.05-4.02v11.55h2.58v-16.43h-3.1l-2.11,6.78-.94,3.62v-10.41h-2.3v16.43h2.65ZM355.16,457.37h1.23c.43,0,.74.12.95.35.21.23.31.63.31,1.2v2.46c0,.57-.1.97-.31,1.2-.21.24-.52.36-.95.36h-1.23v-5.57ZM355.16,471.46v-6.18h1.23c1.27,0,2.23-.34,2.87-1.04.64-.69.97-1.7.97-3.02v-2.13c0-1.32-.32-2.33-.97-3.03-.64-.69-1.61-1.04-2.88-1.04h-3.8v16.43h2.58ZM345.14,471.46v-14.09h2.93v14.09h2.58v-16.43h-8.09v16.43h2.58Z"/>
  <path class="st5" d="M604.05,635v-2.35h-4.86c-.02-.08-.02-.19-.02-.35,0-.36.09-.73.28-1.11.19-.38.43-.75.74-1.11.3-.36.63-.73,1-1.13.37-.39.73-.82,1.09-1.27.36-.45.69-.93.99-1.43s.55-1.07.74-1.71c.19-.64.28-1.32.28-2.02,0-1.32-.33-2.34-.98-3.06-.65-.71-1.61-1.07-2.85-1.07s-2.21.36-2.87,1.07c-.66.71-.99,1.73-.99,3.06v1.6h2.46v-1.76c0-1.08.45-1.62,1.34-1.62.44,0,.77.14.99.41.22.28.33.76.33,1.47,0,.64-.09,1.24-.28,1.81-.19.56-.43,1.06-.73,1.48-.3.43-.63.84-1,1.25-.36.4-.73.81-1.1,1.22-.36.41-.7.83-1,1.26-.3.43-.55.93-.74,1.51-.19.58-.28,1.19-.28,1.84v2.02h7.46ZM594.81,632.63h-2.58v2.37h2.58v-2.37ZM585.36,628.26c0-1.08.45-1.62,1.34-1.62s1.33.54,1.33,1.62v2.96c0,1.07-.44,1.61-1.33,1.61s-1.34-.53-1.34-1.61v-2.96ZM583.8,634.11c.68.72,1.64,1.08,2.9,1.08s2.23-.36,2.9-1.08c.67-.72,1.01-1.73,1.01-3.05v-3c0-1.22-.24-2.15-.72-2.79-.48-.64-1.19-.96-2.13-.96-1.14,0-1.94.48-2.4,1.46v-3c0-.75.12-1.27.35-1.57.23-.3.59-.45,1.08-.45.89,0,1.34.54,1.34,1.62v.58h2.43v-.42c0-1.32-.33-2.34-.98-3.06-.65-.71-1.61-1.07-2.85-1.07-2.63,0-3.94,1.43-3.94,4.27v8.4c0,1.32.34,2.33,1.02,3.05"/>
  <path class="st5" d="M638.19,593.35l1.25,8.27h-2.49l1.24-8.27ZM636.16,606.84l.45-2.98h3.16l.45,2.98h2.58l-2.61-16.43h-3.98l-2.61,16.43h2.58ZM632.39,606.84v-16.43h-2.58v14.08h-2.23v-14.08h-2.58v14.08h-2.23v-14.08h-2.58v16.43h12.2ZM612.82,606.84l2.18-7.53,1.04-4.02v11.55h2.58v-16.43h-3.09l-2.11,6.78-.94,3.62v-10.41h-2.3v16.43h2.65ZM602.73,606.84v-7.04h2.93v7.04h2.58v-16.43h-2.58v7.05h-2.93v-7.05h-2.58v16.43h2.58ZM598.4,597.45h-4.69v2.35h4.69v-2.35ZM586.82,594.45c0-.59.1-1.02.31-1.29.21-.27.54-.41,1-.41h1.24v5.06h-1.01c-.51,0-.9-.13-1.16-.4-.26-.26-.39-.71-.39-1.35v-1.62ZM586.55,606.84c.06-.19.1-.33.13-.43.02-.09.05-.28.07-.55.03-.27.04-.62.04-1.04v-2.58c0-.75.13-1.29.4-1.62.27-.32.69-.48,1.28-.48h.89v6.69h2.58v-16.43h-3.9c-1.32,0-2.29.31-2.9.93-.61.62-.92,1.57-.92,2.85v1.3c0,1.7.56,2.81,1.68,3.34-.62.26-1.06.68-1.32,1.26-.26.58-.39,1.33-.39,2.24v2.53c0,.89-.08,1.55-.24,1.99h2.58ZM576.96,606.84v-7.04h2.93v7.04h2.58v-16.43h-2.58v7.05h-2.93v-7.05h-2.58v16.43h2.58ZM566.29,606.84l2-6.11,1.98,6.11h2.58l-2.87-8.37,2.7-8.06h-2.27l-1.99,6.09-1.96-6.09h-2.58l2.7,7.96-2.89,8.47h2.58ZM557.55,603.05l-.02.15c-.1.56-.33.94-.69,1.12-.36.18-.89.25-1.6.21v2.34c.69.05,1.3.02,1.82-.07.52-.1.96-.25,1.32-.45.36-.21.66-.5.92-.87.25-.37.46-.78.62-1.22.16-.44.3-.98.42-1.61l2.76-12.23h-2.58l-1.18,5.64-.6,3.81-.8-3.84-1.39-5.6h-2.58l3.58,12.64ZM547.6,606.84v-5.04l.8-1.5,2.51,6.54h2.65l-3.59-9.11,3.59-7.32h-2.58l-3.38,7.16v-7.16h-2.58v16.43h2.58Z"/>
  <path class="st5" d="M617.53,118.31c1.3,0,2.23-.27,2.78-.81.56-.54.84-1.47.84-2.77v-9.25c0-1.31-.28-2.23-.84-2.78-.56-.55-1.49-.82-2.78-.82h-.79v2.23h.63c.43,0,.73.1.92.31.19.21.28.59.28,1.14v9.07c0,.55-.09.93-.28,1.14-.19.21-.49.31-.92.31h-.63v2.24h.79ZM612.98,104.22l-3.78,14.09h2.58l3.81-14.18v-2.26h-7.74v2.35h5.14ZM606.23,115.94h-2.58v2.37h2.58v-2.37ZM597.94,105.77v12.54h2.58v-16.43h-1.74c-.1.27-.19.48-.26.65-.08.16-.19.35-.34.55-.15.2-.32.36-.5.47-.18.11-.42.21-.72.29-.3.08-.64.12-1.02.12v1.82h2ZM589.46,117.49c.56.54,1.49.81,2.78.81h.79v-2.24h-.63c-.43,0-.74-.1-.92-.31-.18-.21-.28-.59-.28-1.14v-9.07c0-.55.09-.93.28-1.14.19-.21.49-.31.92-.31h.63v-2.23h-.79c-1.3,0-2.23.27-2.78.82s-.84,1.47-.84,2.78v9.25c0,1.31.28,2.23.84,2.77M579.91,106.8v6.18h-2.6l2.6-6.18ZM579.91,115.33v2.98h2.58v-2.98h1.18v-2.35h-1.18v-11.11h-2.82l-4.69,11.11v2.35h4.93ZM573.76,115.94h-2.58v2.37h2.58v-2.37ZM562.79,117.42c.69.71,1.67,1.07,2.93,1.07s2.21-.36,2.87-1.07c.65-.71.98-1.73.98-3.05v-1.29c0-1.78-.6-2.93-1.8-3.45,1.2-.5,1.8-1.62,1.8-3.38v-.42c0-1.32-.33-2.34-.98-3.06-.65-.71-1.61-1.07-2.87-1.07s-2.23.36-2.93,1.07c-.69.71-1.04,1.73-1.04,3.06v.89h2.58v-1.05c0-1.08.44-1.62,1.32-1.62.44,0,.77.14,1,.41.22.27.34.76.34,1.47v.92c0,.63-.13,1.07-.39,1.34-.26.26-.64.4-1.16.4h-1.01v2.35h.87c.59,0,1.03.16,1.29.48.26.32.39.85.39,1.6v1.3c0,.69-.11,1.17-.34,1.44-.22.28-.56.41-1,.41-.88,0-1.32-.54-1.32-1.63v-1.53h-2.58v1.36c0,1.32.35,2.34,1.04,3.05"/>
  <rect class="st5" x="618.96" y="139.81" width="82.17" height="5.89"/>
  <rect class="st2" x="618.96" y="139.81" width="82.17" height="5.89"/>
  <rect class="st5" x="624.07" y="144.63" width="77.07" height="19.23"/>
  <rect class="st2" x="624.07" y="144.63" width="77.07" height="19.23"/>
  <rect class="st5" x="479.93" y="139.81" width="53.51" height="5.89"/>
  <rect class="st2" x="479.93" y="139.81" width="53.51" height="5.89"/>
  <rect class="st5" x="479.93" y="144.63" width="49.13" height="19.23"/>
  <rect class="st2" x="479.93" y="144.63" width="49.13" height="19.23"/>
  <rect class="st2" x="567.03" y="139.81" width="85.34" height="5.89"/>
  <rect class="st2" x="572.14" y="145.71" width="80.23" height="18.15"/>
  <path class="st2" d="M571.73,146.21s-2,8.49-4.16,14.3c-2.15,5.81-4.76,9-4.76,9l-37.97-21.88,1.14-1.82,38.17,21.48"/>
  <rect class="st5" x="478.04" y="139.81" width="23.05" height="5.89"/>
  <rect class="st2" x="478.04" y="139.81" width="23.05" height="5.89"/>
  <rect class="st5" x="479.93" y="144.63" width="21.16" height="19.23"/>
  <rect class="st2" x="479.93" y="144.63" width="21.16" height="19.23"/>
  <polygon class="st5" points="665.44 160.21 691.52 186.29 691.52 156.8 665.44 160.21"/>
  <polygon class="st2" points="665.44 160.21 691.52 186.29 691.52 156.8 665.44 160.21"/>
  <rect class="st5" x="541.13" y="365.36" width="150.99" height="9.65"/>
  <rect class="st2" x="541.13" y="365.36" width="150.99" height="9.65"/>
  <rect class="st5" x="450.81" y="534.22" width="40.68" height="9.65"/>
  <rect class="st2" x="450.81" y="534.22" width="40.68" height="9.65"/>
  <rect class="st5" x="541.13" y="534.22" width="151.49" height="9.65"/>
  <rect class="st2" x="541.13" y="534.22" width="151.49" height="9.65"/>
  <rect class="st5" x="563.16" y="477.05" width="129.47" height="5.64"/>
  <rect class="st2" x="563.16" y="477.05" width="129.47" height="5.64"/>
  <rect class="st5" x="681.91" y="373.05" width="22.63" height="108.89"/>
  <rect class="st2" x="681.91" y="373.05" width="22.63" height="108.89"/>
  <rect class="st5" x="273.84" y="880.4" width="53" height="5.89"/>
  <rect class="st2" x="273.84" y="880.4" width="53" height="5.89"/>
  <rect class="st5" x="273.84" y="862.24" width="49.71" height="19.23"/>
  <rect class="st2" x="273.84" y="862.24" width="49.71" height="19.23"/>
  <rect class="st5" x="453.74" y="880.4" width="82.17" height="5.89"/>
  <rect class="st2" x="453.74" y="880.4" width="82.17" height="5.89"/>
  <rect class="st5" x="453.73" y="862.24" width="77.07" height="19.23"/>
  <rect class="st2" x="453.73" y="862.24" width="77.07" height="19.23"/>
  <rect class="st5" x="438.73" y="880.4" width="82.17" height="5.89"/>
  <rect class="st2" x="438.73" y="880.4" width="82.17" height="5.89"/>
  <rect class="st5" x="443.84" y="862.24" width="77.07" height="19.23"/>
  <rect class="st2" x="443.84" y="862.24" width="77.07" height="19.23"/>
  <rect class="st5" x="645.77" y="880.4" width="57.07" height="5.89"/>
  <rect class="st2" x="645.77" y="880.4" width="57.07" height="5.89"/>
  <rect class="st5" x="650.88" y="862.24" width="51.96" height="19.23"/>
  <rect class="st2" x="650.88" y="862.24" width="51.96" height="19.23"/>
  <rect class="st2" x="302.4" y="880.4" width="176.82" height="5.89"/>
  <rect class="st2" x="496.46" y="880.4" width="176.82" height="5.89"/>
  <rect class="st2" x="307.65" y="862.24" width="166.32" height="18.15"/>
  <rect class="st2" x="501.71" y="862.24" width="166.32" height="18.15"/>
  <polygon class="st5" points="664.43 865.9 690.51 839.81 690.51 869.3 664.43 865.9"/>
  <polygon class="st2" points="664.43 865.9 690.51 839.81 690.51 869.3 664.43 865.9"/>
  <rect class="st5" x="273.84" y="534.5" width="129.07" height="9.65"/>
  <rect class="st2" x="273.84" y="534.5" width="129.07" height="9.65"/>
  <rect class="st2" x="669.68" y="483.99" width="17.17" height="48.97"/>
  <line class="st2" x1="684.16" y1="484.09" x2="684.16" y2="533.24"/>
  <polyline class="st2" points="684.17 486.53 671.77 487.62 671.77 518.6 684.17 519.96 684.17 521.99 671.64 523.35 671.64 530.28 684.17 531.78"/>
  <rect class="st2" x="651.12" y="483.99" width="17.17" height="48.97"/>
  <line class="st2" x1="665.6" y1="532.85" x2="665.6" y2="483.7"/>
  <polyline class="st2" points="665.6 530.42 653.21 529.33 653.21 498.35 665.6 496.99 665.6 494.95 653.08 493.59 653.08 486.66 665.6 485.17"/>
  <g>
    <path class="st5" d="M604.32,507.63c0,6.24,5.08,11.32,11.33,11.32h16.4c1.08,0,1.96-.87,1.96-1.95v-18.74c0-1.08-.88-1.95-1.96-1.95h-16.4c-6.25,0-11.33,5.08-11.33,11.33M634.78,498.26v18.74c0,1.51-1.23,2.73-2.73,2.73h-16.4c-6.67,0-12.1-5.43-12.1-12.1s5.43-12.1,12.1-12.1h16.4c1.51,0,2.73,1.23,2.73,2.73"/>
    <path class="st2" d="M604.32,507.63c0,6.24,5.08,11.32,11.33,11.32h16.4c1.08,0,1.96-.87,1.96-1.95v-18.74c0-1.08-.88-1.95-1.96-1.95h-16.4c-6.25,0-11.33,5.08-11.33,11.33ZM634.78,498.26v18.74c0,1.51-1.23,2.73-2.73,2.73h-16.4c-6.67,0-12.1-5.43-12.1-12.1s5.43-12.1,12.1-12.1h16.4c1.51,0,2.73,1.23,2.73,2.73Z"/>
    <path class="st2" d="M628.53,515.75v-16.24c0-.11-.09-.2-.19-.2h-12.36c-4.57,0-8.32,3.75-8.32,8.32s3.75,8.31,8.32,8.31h12.36c.1,0,.19-.09.19-.19Z"/>
    <path class="st5" d="M628.14,515.55v-15.85h-12.17c-4.37,0-7.93,3.56-7.93,7.93s3.56,7.93,7.93,7.93h12.17ZM628.92,499.51v16.24c0,.32-.27.58-.58.58h-12.36c-4.8,0-8.7-3.9-8.7-8.7s3.9-8.7,8.7-8.7h12.36c.32,0,.58.27.58.59"/>
    <path class="st2" d="M628.14,515.55v-15.85h-12.17c-4.37,0-7.93,3.56-7.93,7.93s3.56,7.93,7.93,7.93h12.17ZM628.92,499.51v16.24c0,.32-.27.58-.58.58h-12.36c-4.8,0-8.7-3.9-8.7-8.7s3.9-8.7,8.7-8.7h12.36c.32,0,.58.27.58.59Z"/>
    <path class="st5" d="M615.95,507.63c0,1.18.96,2.14,2.14,2.14s2.14-.96,2.14-2.14-.96-2.14-2.14-2.14-2.14.96-2.14,2.14M621.01,507.63c0,1.61-1.31,2.92-2.92,2.92s-2.91-1.31-2.91-2.92,1.31-2.92,2.91-2.92,2.92,1.31,2.92,2.92"/>
    <path class="st2" d="M615.95,507.63c0,1.18.96,2.14,2.14,2.14s2.14-.96,2.14-2.14-.96-2.14-2.14-2.14-2.14.96-2.14,2.14ZM621.01,507.63c0,1.61-1.31,2.92-2.92,2.92s-2.91-1.31-2.91-2.92,1.31-2.92,2.91-2.92,2.92,1.31,2.92,2.92Z"/>
  </g>
  <polygon class="st5" points="626.96 513.96 626.5 514.58 621.3 510.69 621.76 510.07 626.96 513.96"/>
  <polygon class="st2" points="626.96 513.96 626.5 514.58 621.3 510.69 621.76 510.07 626.96 513.96"/>
  <rect class="st5" x="620.88" y="502.67" width="6.49" height=".78" transform="translate(-176.98 474.15) rotate(-36.8)"/>
  <rect class="st2" x="620.88" y="502.67" width="6.49" height=".78" transform="translate(-176.98 474.15) rotate(-36.8)"/>
  <path class="st5" d="M634.82,515.44c0,1.73,1.41,3.14,3.14,3.14h4.27c1.73,0,3.14-1.41,3.14-3.14v-15.63c0-1.73-1.41-3.14-3.14-3.14h-4.27c-1.73,0-3.14,1.41-3.14,3.14v15.63ZM646.14,499.81v15.63c0,2.16-1.76,3.91-3.92,3.91h-4.27c-2.16,0-3.92-1.76-3.92-3.91v-15.63c0-2.16,1.76-3.91,3.92-3.91h4.27c2.16,0,3.92,1.76,3.92,3.91"/>
  <path class="st2" d="M634.82,515.44c0,1.73,1.41,3.14,3.14,3.14h4.27c1.73,0,3.14-1.41,3.14-3.14v-15.63c0-1.73-1.41-3.14-3.14-3.14h-4.27c-1.73,0-3.14,1.41-3.14,3.14v15.63ZM646.14,499.81v15.63c0,2.16-1.76,3.91-3.92,3.91h-4.27c-2.16,0-3.92-1.76-3.92-3.91v-15.63c0-2.16,1.76-3.91,3.92-3.91h4.27c2.16,0,3.92,1.76,3.92,3.91Z"/>
  <path class="st5" d="M638.88,507.63c0,.67.54,1.21,1.22,1.21s1.21-.54,1.21-1.21-.54-1.21-1.21-1.21-1.22.54-1.22,1.21M642.08,507.63c0,1.1-.89,1.99-1.99,1.99s-1.99-.89-1.99-1.99.89-1.99,1.99-1.99,1.99.89,1.99,1.99"/>
  <path class="st2" d="M638.88,507.63c0,.67.54,1.21,1.22,1.21s1.21-.54,1.21-1.21-.54-1.21-1.21-1.21-1.22.54-1.22,1.21ZM642.08,507.63c0,1.1-.89,1.99-1.99,1.99s-1.99-.89-1.99-1.99.89-1.99,1.99-1.99,1.99.89,1.99,1.99Z"/>
  <path class="st2" d="M566.91,496.18s-2.75-.26-10.43,2.46c-6.43,2.27-12.43,6.81-12.43,6.81l18.36,31.59,1.52-.95-18.36-31.68"/>
  <path class="st2" d="M566.91,444.17s-2.75.26-10.43-2.46c-6.43-2.27-12.43-6.81-12.43-6.81l18.36-31.59,1.52.95-18.36,31.68"/>
  <rect class="st5" x="560.18" y="373.9" width="6.18" height="35.94"/>
  <rect class="st2" x="560.18" y="373.9" width="6.18" height="35.94"/>
  <rect class="st5" x="560.18" y="442.91" width="6.18" height="53"/>
  <rect class="st2" x="560.18" y="442.91" width="6.18" height="53"/>
  <path class="st5" d="M626.34,452.75c5.7,0,10.34,4.64,10.34,10.35v10.98c0,.87-.7,1.57-1.57,1.57h-23.39c-.87,0-1.57-.7-1.57-1.57v-10.98c0-5.71,4.64-10.35,10.35-10.35h5.84ZM611.73,476.23h23.39c1.19,0,2.16-.96,2.16-2.15v-10.98c0-6.03-4.9-10.93-10.93-10.93h-5.84c-6.03,0-10.93,4.9-10.93,10.93v10.98c0,1.19.97,2.15,2.15,2.15"/>
  <path class="st2" d="M626.34,452.75c5.7,0,10.34,4.64,10.34,10.35v10.98c0,.87-.7,1.57-1.57,1.57h-23.39c-.87,0-1.57-.7-1.57-1.57v-10.98c0-5.71,4.64-10.35,10.35-10.35h5.84ZM611.73,476.23h23.39c1.19,0,2.16-.96,2.16-2.15v-10.98c0-6.03-4.9-10.93-10.93-10.93h-5.84c-6.03,0-10.93,4.9-10.93,10.93v10.98c0,1.19.97,2.15,2.15,2.15Z"/>
  <path class="st5" d="M626.35,455.34c4.27,0,7.75,3.48,7.75,7.76v6.41c0,.75-.6,1.36-1.35,1.36h-18.64c-.75,0-1.35-.61-1.35-1.36v-6.41c0-4.28,3.48-7.76,7.76-7.76h5.84ZM614.1,471.44h18.64c1.07,0,1.94-.87,1.94-1.94v-6.41c0-4.6-3.74-8.34-8.33-8.34h-5.84c-4.6,0-8.34,3.74-8.34,8.34v6.41c0,1.07.87,1.94,1.94,1.94"/>
  <path class="st2" d="M626.35,455.34c4.27,0,7.75,3.48,7.75,7.76v6.41c0,.75-.6,1.36-1.35,1.36h-18.64c-.75,0-1.35-.61-1.35-1.36v-6.41c0-4.28,3.48-7.76,7.76-7.76h5.84ZM614.1,471.44h18.64c1.07,0,1.94-.87,1.94-1.94v-6.41c0-4.6-3.74-8.34-8.33-8.34h-5.84c-4.6,0-8.34,3.74-8.34,8.34v6.41c0,1.07.87,1.94,1.94,1.94Z"/>
  <path class="st5" d="M623.42,460.76c.71,0,1.3.58,1.3,1.3s-.58,1.29-1.3,1.29-1.3-.58-1.3-1.29.58-1.3,1.3-1.3M623.42,463.94c1.04,0,1.88-.84,1.88-1.88s-.84-1.88-1.88-1.88-1.88.84-1.88,1.88.84,1.88,1.88,1.88"/>
  <path class="st2" d="M623.42,460.76c.71,0,1.3.58,1.3,1.3s-.58,1.29-1.3,1.29-1.3-.58-1.3-1.29.58-1.3,1.3-1.3ZM623.42,463.94c1.04,0,1.88-.84,1.88-1.88s-.84-1.88-1.88-1.88-1.88.84-1.88,1.88.84,1.88,1.88,1.88Z"/>
  <path class="st2" d="M660.39,457.07c-.87,0-1.58-.71-1.58-1.59s.71-1.59,1.58-1.59,1.58.71,1.58,1.59-.71,1.59-1.58,1.59Z"/>
  <path class="st2" d="M653.13,379.78h14.51c5.78,0,10.47,4.69,10.47,10.47v71.54c0,5.78-4.69,10.47-10.47,10.47h-14.51c-5.78,0-10.47-4.69-10.47-10.47v-71.54c0-5.78,4.69-10.47,10.47-10.47Z"/>
  <path class="st2" d="M656.45,386.21h7.89c5.78,0,10.47,4.69,10.47,10.47v58.69c0,5.78-4.69,10.47-10.47,10.47h-7.89c-5.78,0-10.47-4.69-10.47-10.47v-58.69c0-5.78,4.69-10.47,10.47-10.47Z"/>
  <path class="st2" d="M654.4,393.96h11.99c2.89,0,5.24,2.35,5.24,5.24v57.86c0,2.89-2.35,5.24-5.24,5.24h-11.99c-2.89,0-5.24-2.35-5.24-5.24v-57.86c0-2.89,2.35-5.24,5.24-5.24Z"/>
  <polygon class="st2" points="639.7 475.89 639.7 475.89 639.7 376.16 681.08 376.16 681.08 475.89 639.7 475.89"/>
  <rect class="st2" x="571.08" y="439.11" width="35.96" height="36.82"/>
  <line class="st2" x1="571.59" y1="439.01" x2="606.92" y2="475.77"/>
  <line class="st2" x1="607.33" y1="439.01" x2="571.99" y2="475.77"/>
  <path class="st5" d="M654.25,545.75h-33.53v33.53h33.53v-33.53ZM619.98,545.01h35.01v35.02h-35.01v-35.02Z"/>
  <path class="st2" d="M654.25,545.75h-33.53v33.53h33.53v-33.53ZM619.98,545.01h35.01v35.02h-35.01v-35.02Z"/>
  <g>
    <path class="st5" d="M649.23,576.23c.83,0,1.5-.67,1.5-1.5v-17.62c0-.83-.67-1.5-1.5-1.5h-23.49c-.83,0-1.5.67-1.5,1.5v17.62c0,.83.67,1.5,1.5,1.5h23.49ZM625.74,554.86h23.49c1.24,0,2.24,1.01,2.24,2.25v17.62c0,1.24-1.01,2.24-2.24,2.24h-23.49c-1.24,0-2.24-1.01-2.24-2.24v-17.62c0-1.24,1-2.25,2.24-2.25"/>
    <path class="st2" d="M649.23,576.23c.83,0,1.5-.67,1.5-1.5v-17.62c0-.83-.67-1.5-1.5-1.5h-23.49c-.83,0-1.5.67-1.5,1.5v17.62c0,.83.67,1.5,1.5,1.5h23.49ZM625.74,554.86h23.49c1.24,0,2.24,1.01,2.24,2.25v17.62c0,1.24-1.01,2.24-2.24,2.24h-23.49c-1.24,0-2.24-1.01-2.24-2.24v-17.62c0-1.24,1-2.25,2.24-2.25Z"/>
  </g>
  <path class="st5" d="M648.12,558.21h-21.27v15.41h21.27v-15.41ZM626.11,557.47h22.76v16.9h-22.76v-16.9Z"/>
  <path class="st2" d="M648.12,558.21h-21.27v15.41h21.27v-15.41ZM626.11,557.47h22.76v16.9h-22.76v-16.9Z"/>
  <path class="st5" d="M637.49,568.9c1.07,0,1.94-.87,1.94-1.94s-.87-1.95-1.94-1.95-1.94.87-1.94,1.95.87,1.94,1.94,1.94M637.49,564.27c1.48,0,2.69,1.21,2.69,2.69s-1.21,2.68-2.69,2.68-2.69-1.21-2.69-2.68,1.21-2.69,2.69-2.69"/>
  <path class="st2" d="M637.49,568.9c1.07,0,1.94-.87,1.94-1.94s-.87-1.95-1.94-1.95-1.94.87-1.94,1.95.87,1.94,1.94,1.94ZM637.49,564.27c1.48,0,2.69,1.21,2.69,2.69s-1.21,2.68-2.69,2.68-2.69-1.21-2.69-2.68,1.21-2.69,2.69-2.69Z"/>
  <path class="st2" d="M541.43,533.9s0,7.41-3.26,16.63c-2.73,7.72-8.17,14.93-8.17,14.93l-45.46-25.9,1.14-1.82,45.57,25.91"/>
  <path class="st2" d="M401.92,533.9s0,7.41,3.26,16.63c2.73,7.72,8.17,14.93,8.17,14.93l45.46-25.9-1.14-1.82-45.57,25.91"/>
  <path class="st2" d="M273.84,478.07s7.41,0,16.63,3.26c7.72,2.73,14.93,8.17,14.93,8.17l-25.9,45.46-1.82-1.14,25.91-45.57"/>
  <path class="st2" d="M541.43,374.89s0-7.41-3.26-16.63c-2.73-7.72-8.17-14.93-8.17-14.93l-45.46,25.9,1.14,1.82,45.57-25.91"/>
  <line class="st4" x1="494.03" y1="647.55" x2="689.43" y2="647.55"/>
  <path class="st5" d="M393.87,773.68c0-1.08.45-1.62,1.35-1.62s1.34.54,1.34,1.62v8.87c0,1.09-.45,1.63-1.34,1.63s-1.35-.54-1.35-1.63v-8.87ZM392.31,785.44c.68.72,1.65,1.08,2.91,1.08s2.23-.36,2.9-1.08c.67-.72,1.01-1.73,1.01-3.05v-8.55c0-1.31-.34-2.33-1.01-3.05-.67-.72-1.64-1.08-2.9-1.08s-2.23.36-2.91,1.08c-.68.72-1.01,1.74-1.01,3.05v8.55c0,1.32.34,2.33,1.01,3.05M389.73,783.96h-2.58v2.37h2.58v-2.37ZM380.17,773.68c0-1.06.45-1.59,1.34-1.59s1.35.53,1.35,1.59v2.96c0,1.08-.45,1.62-1.35,1.62s-1.34-.54-1.34-1.62v-2.96ZM378.32,779.64c.48.64,1.19.96,2.13.96,1.14,0,1.95-.48,2.41-1.46v3c0,.75-.12,1.28-.36,1.58-.24.3-.6.45-1.08.45-.9,0-1.35-.54-1.35-1.63v-.58h-2.43v.42c0,1.32.33,2.34.98,3.06.65.71,1.61,1.07,2.86,1.07,2.63,0,3.95-1.42,3.95-4.26v-8.41c0-1.31-.34-2.33-1.01-3.05-.68-.72-1.65-1.08-2.91-1.08s-2.23.36-2.9,1.08c-.67.72-1.01,1.74-1.01,3.05v3.01c0,1.22.24,2.14.72,2.79M372.15,773.8v12.54h2.58v-16.43h-1.74c-.1.27-.19.48-.26.65-.08.16-.19.35-.34.55-.15.2-.31.36-.5.47-.18.11-.42.21-.72.29-.3.08-.64.12-1.02.12v1.82h2.01Z"/>
  <path class="st5" d="M415.46,744.68l1.25,8.27h-2.49l1.24-8.27ZM413.43,758.17l.45-2.98h3.16l.45,2.98h2.58l-2.62-16.43h-3.98l-2.61,16.43h2.58ZM405.13,744.08v14.09h2.58v-14.09h2.7v-2.35h-7.99v2.35h2.7ZM397.56,744.68l1.25,8.27h-2.49l1.24-8.27ZM395.53,758.17l.45-2.98h3.16l.45,2.98h2.58l-2.62-16.43h-3.98l-2.62,16.43h2.58ZM386.19,758.17v-7.04h2.93v7.04h2.58v-16.43h-2.58v7.05h-2.93v-7.05h-2.58v16.43h2.58ZM373.15,758.17v-11.59l1.93,11.59h2.45l1.78-11.78v11.78h2.58v-16.43h-3.72l-1.77,11.71-1.91-11.71h-3.58v16.43h2.25ZM363.99,745.52c0-1.08.45-1.62,1.35-1.62s1.34.54,1.34,1.62v8.87c0,1.09-.45,1.63-1.34,1.63s-1.35-.54-1.35-1.63v-8.87ZM362.43,757.27c.68.72,1.65,1.08,2.91,1.08s2.23-.36,2.9-1.08c.67-.72,1.01-1.73,1.01-3.05v-8.55c0-1.31-.34-2.33-1.01-3.05-.67-.72-1.64-1.08-2.9-1.08s-2.23.36-2.91,1.08c-.68.72-1.02,1.74-1.02,3.05v8.55c0,1.31.34,2.33,1.02,3.05M354.5,758.17v-5.04l.8-1.5,2.51,6.54h2.65l-3.59-9.11,3.59-7.32h-2.58l-3.38,7.16v-7.16h-2.58v16.43h2.58Z"/>
  <path class="st5" d="M406.78,699.17c0-2.43,1.02-3.64,3.05-3.64s3.08,1.21,3.08,3.64v6.76c0,2.46-1.03,3.69-3.08,3.69s-3.05-1.23-3.05-3.69v-6.76ZM402.53,712.79c1.1,1.47,2.72,2.2,4.88,2.2,2.61,0,4.45-1.11,5.5-3.33v6.86c0,1.71-.27,2.91-.82,3.6-.54.69-1.37,1.04-2.47,1.04-2.05,0-3.08-1.24-3.08-3.72v-1.34h-5.55v.97c0,3.02.75,5.35,2.25,6.98,1.5,1.63,3.68,2.45,6.54,2.45,6.02,0,9.03-3.25,9.03-9.74v-19.23c0-3-.77-5.33-2.32-6.97-1.55-1.64-3.76-2.46-6.65-2.46s-5.1.82-6.64,2.46c-1.54,1.64-2.31,3.97-2.31,6.97v6.89c0,2.78.55,4.9,1.64,6.36M397.43,722.66h-5.89v5.42h5.89v-5.42ZM375.82,712.68c0-2.46,1.02-3.69,3.07-3.69s3.04,1.23,3.04,3.69v6.76c0,2.44-1.01,3.67-3.04,3.67s-3.07-1.22-3.07-3.67v-6.76ZM372.25,726.04c1.55,1.64,3.76,2.46,6.64,2.46s5.09-.82,6.63-2.46c1.54-1.64,2.31-3.96,2.31-6.97v-6.86c0-2.79-.55-4.92-1.64-6.39-1.1-1.47-2.72-2.2-4.88-2.2-2.6,0-4.43,1.11-5.48,3.33v-6.86c0-1.71.27-2.91.8-3.59.53-.68,1.36-1.02,2.48-1.02,2.04,0,3.07,1.23,3.07,3.69v1.34h5.55v-.97c0-3.02-.75-5.35-2.25-6.98-1.5-1.63-3.67-2.45-6.53-2.45-6.01,0-9.01,3.26-9.01,9.77v19.2c0,3,.77,5.33,2.32,6.97M354.58,712.68c0-2.46,1.02-3.69,3.07-3.69s3.04,1.23,3.04,3.69v6.76c0,2.44-1.01,3.67-3.04,3.67s-3.07-1.22-3.07-3.67v-6.76ZM351,726.04c1.55,1.64,3.76,2.46,6.64,2.46s5.09-.82,6.63-2.46c1.54-1.64,2.31-3.96,2.31-6.97v-6.86c0-2.79-.55-4.92-1.64-6.39-1.1-1.47-2.72-2.2-4.88-2.2-2.6,0-4.43,1.11-5.48,3.33v-6.86c0-1.71.27-2.91.8-3.59.53-.68,1.36-1.02,2.48-1.02,2.04,0,3.06,1.23,3.06,3.69v1.34h5.55v-.97c0-3.02-.75-5.35-2.25-6.98-1.5-1.63-3.67-2.45-6.53-2.45-6.01,0-9.01,3.26-9.01,9.77v19.2c0,3,.77,5.33,2.32,6.97"/>
  <path class="st2" d="M383.75,679.55c18.16,0,32.88-14.72,32.88-32.88s-14.72-32.88-32.88-32.88-32.88,14.72-32.88,32.88,14.72,32.88,32.88,32.88Z"/>
  <path class="st5" d="M386.9,661.38c1.13,1.24,2.79,1.85,4.98,1.85s3.88-.62,5.09-1.85c1.2-1.24,1.8-3,1.8-5.29v-3.79h-4.46v4.07c0,1.85-.77,2.78-2.31,2.78s-2.33-.92-2.33-2.78v-15.35c0-1.86.78-2.8,2.33-2.8s2.31.93,2.31,2.8v3.06h4.46v-2.78c0-2.29-.6-4.05-1.8-5.29-1.2-1.24-2.9-1.86-5.09-1.86s-3.85.62-4.98,1.86c-1.13,1.24-1.7,3-1.7,5.29v14.8c0,2.29.57,4.05,1.7,5.29M371.06,661.38c1.2,1.24,2.89,1.85,5.07,1.85s3.83-.62,4.96-1.85c1.13-1.24,1.7-3,1.7-5.29v-2.24c0-3.08-1.04-5.07-3.12-5.97,2.08-.86,3.12-2.81,3.12-5.85v-.73c0-2.29-.57-4.05-1.7-5.29-1.13-1.24-2.78-1.86-4.96-1.86s-3.87.62-5.07,1.86c-1.2,1.24-1.8,3-1.8,5.29v1.55h4.46v-1.83c0-1.86.76-2.8,2.29-2.8.76,0,1.34.24,1.73.71.39.48.58,1.32.58,2.54v1.59c0,1.08-.23,1.85-.67,2.31-.45.46-1.12.68-2,.68h-1.75v4.07h1.51c1.03,0,1.78.28,2.23.83.46.55.68,1.48.68,2.78v2.24c0,1.19-.19,2.02-.58,2.5-.39.47-.96.71-1.73.71-1.53,0-2.29-.94-2.29-2.82v-2.64h-4.46v2.36c0,2.29.6,4.05,1.8,5.29"/>
  <path class="st5" d="M587.94,521.27c.42.43,1,.64,1.76.64s1.33-.21,1.72-.64c.39-.43.59-1.04.59-1.83v-.78c0-1.07-.36-1.76-1.08-2.07.72-.3,1.08-.97,1.08-2.03v-.25c0-.79-.2-1.4-.59-1.83-.39-.43-.96-.64-1.72-.64s-1.34.21-1.76.64c-.42.43-.62,1.04-.62,1.83v.54h1.55v-.63c0-.65.27-.97.79-.97.26,0,.46.08.6.25.14.16.2.46.2.88v.55c0,.38-.08.64-.23.8-.15.16-.39.24-.69.24h-.61v1.41h.52c.36,0,.62.1.77.29.16.19.24.51.24.96v.78c0,.41-.07.7-.2.87-.13.17-.33.25-.6.25-.53,0-.79-.33-.79-.98v-.91h-1.55v.82c0,.79.21,1.4.62,1.83M586.33,520.38h-1.55v1.42h1.55v-1.42ZM581.36,514.28v7.52h1.55v-9.86h-1.04c-.06.16-.11.29-.16.39-.05.1-.11.21-.2.33-.09.12-.19.22-.3.28-.11.07-.25.12-.43.17-.18.05-.38.07-.61.07v1.09h1.2Z"/>
  <path class="st5" d="M590.31,502.63v.09c-.07.34-.21.56-.43.67-.22.11-.53.15-.96.12v1.4c.42.03.78.01,1.09-.04.31-.06.57-.15.79-.27.22-.12.4-.3.55-.52.15-.22.27-.47.37-.73.09-.26.18-.59.26-.96l1.66-7.34h-1.55l-.71,3.38-.36,2.28-.48-2.3-.83-3.36h-1.55l2.15,7.59ZM584.1,504.9l3.89-9.86h-1.34l-3.89,9.86h1.34ZM578.28,504.37c.39.43.97.64,1.73.64s1.35-.21,1.76-.64c.42-.43.62-1.04.62-1.83v-1.31h-1.55v1.41c0,.64-.27.96-.8.96s-.81-.32-.81-.96v-5.32c0-.65.27-.97.81-.97s.8.32.8.97v1.06h1.55v-.96c0-.79-.21-1.4-.62-1.83-.42-.43-1-.64-1.76-.64s-1.34.21-1.73.64c-.39.43-.59,1.04-.59,1.83v5.13c0,.79.2,1.4.59,1.83"/>
  <path class="st5" d="M606.91,422.11c.42.43,1,.64,1.76.64s1.33-.21,1.72-.64c.39-.43.59-1.04.59-1.83v-2.2c0-.73-.14-1.29-.43-1.68-.29-.38-.71-.57-1.28-.57-.61,0-1.06.24-1.35.72l.12-2.35h2.69v-1.41h-4.15l-.3,5.72h1.55v-.29c0-.65.27-.97.79-.97s.8.32.8.97v2.17c0,.64-.27.96-.8.96s-.79-.32-.79-.96v-.91h-1.55v.82c0,.79.21,1.4.62,1.83M605.29,421.22h-1.55v1.42h1.55v-1.42ZM598.7,422.11c.42.43,1,.64,1.76.64s1.33-.21,1.72-.64c.39-.43.59-1.04.59-1.83v-.78c0-1.07-.36-1.76-1.08-2.07.72-.3,1.08-.97,1.08-2.03v-.25c0-.79-.2-1.4-.59-1.83-.39-.43-.97-.64-1.72-.64s-1.34.21-1.76.64c-.42.43-.62,1.04-.62,1.83v.54h1.55v-.63c0-.65.26-.97.79-.97.26,0,.46.08.6.25.13.16.2.46.2.88v.55c0,.38-.08.64-.23.8-.16.16-.39.24-.69.24h-.6v1.41h.52c.36,0,.61.1.77.29.16.19.24.51.24.96v.78c0,.41-.07.7-.2.87-.14.16-.33.25-.6.25-.53,0-.79-.32-.79-.97v-.91h-1.55v.82c0,.79.21,1.4.62,1.83"/>
  <path class="st5" d="M618.26,398.31c0-.35.06-.61.19-.77.13-.16.33-.24.6-.24h.74v3.03h-.6c-.31,0-.54-.08-.69-.24s-.23-.43-.23-.81v-.97ZM618.1,405.74c.04-.11.06-.2.08-.26.01-.06.03-.17.04-.33.02-.16.03-.37.03-.62v-1.55c0-.45.08-.78.24-.97.16-.19.42-.29.77-.29h.54v4.02h1.55v-9.86h-2.34c-.79,0-1.37.18-1.74.56-.37.37-.55.94-.55,1.71v.78c0,1.02.34,1.69,1.01,2-.37.16-.63.41-.79.75-.16.35-.23.8-.23,1.34v1.52c0,.53-.05.93-.14,1.2h1.55ZM613.44,397.65l.75,4.96h-1.49l.74-4.96ZM612.22,405.74l.27-1.79h1.9l.27,1.79h1.55l-1.57-9.86h-2.39l-1.57,9.86h1.55ZM606.62,405.74v-4.22h1.76v4.22h1.55v-9.86h-1.55v4.23h-1.76v-4.23h-1.55v9.86h1.55ZM600.61,405.74v-4.22h1.76v4.22h1.55v-9.86h-1.55v4.23h-1.76v-4.23h-1.55v9.86h1.55ZM595.69,397.65l.75,4.96h-1.49l.74-4.96ZM594.48,405.74l.27-1.79h1.9l.27,1.79h1.55l-1.57-9.86h-2.39l-1.57,9.86h1.55ZM589.17,397.29h.75c.28,0,.48.08.6.24.12.16.19.42.19.77v.55c0,.38-.08.64-.23.8-.16.16-.39.24-.7.24h-.61v-2.6ZM589.17,401.31h.69c.36,0,.61.09.77.26.15.17.23.49.23.93v.86c0,.35-.07.6-.2.75-.13.15-.33.22-.6.22h-.89v-3.03ZM590.05,405.74c.77,0,1.36-.2,1.75-.6.4-.4.6-.98.6-1.74v-.8c0-1.11-.39-1.81-1.16-2.11.67-.32,1-.98,1-1.99v-.35c0-.77-.18-1.34-.55-1.71-.37-.37-.95-.56-1.74-.56h-2.34v9.86h2.43Z"/>
  <path class="st5" d="M499.35,505.27c.54.56,1.3.83,2.28.83s1.73-.28,2.24-.83c.51-.56.76-1.35.76-2.38v-1.01c0-1.39-.47-2.28-1.4-2.69.94-.39,1.4-1.27,1.4-2.64v-.33c0-1.03-.26-1.83-.76-2.38-.51-.56-1.26-.84-2.24-.84s-1.74.28-2.28.84c-.54.56-.81,1.35-.81,2.38v.7h2.01v-.82c0-.84.34-1.26,1.03-1.26.34,0,.6.11.78.32.17.21.26.59.26,1.14v.71c0,.49-.1.84-.3,1.04-.2.2-.5.31-.9.31h-.79v1.83h.68c.46,0,.8.13,1,.38.21.25.31.67.31,1.25v1.01c0,.54-.09.91-.26,1.13-.18.21-.43.32-.78.32-.69,0-1.03-.42-1.03-1.27v-1.19h-2.01v1.06c0,1.03.27,1.83.81,2.38M497.26,504.11h-2.01v1.85h2.01v-1.85ZM488.71,505.27c.54.56,1.3.83,2.28.83s1.73-.28,2.24-.83c.51-.56.76-1.35.76-2.38v-1.01c0-1.39-.47-2.28-1.4-2.69.93-.39,1.4-1.27,1.4-2.64v-.33c0-1.03-.26-1.83-.76-2.38-.51-.56-1.26-.84-2.24-.84s-1.74.28-2.28.84c-.54.56-.81,1.35-.81,2.38v.7h2.01v-.82c0-.84.34-1.26,1.03-1.26.34,0,.6.11.78.32.17.21.26.59.26,1.14v.71c0,.49-.1.84-.3,1.04-.2.2-.5.31-.9.31h-.79v1.83h.68c.46,0,.8.13,1.01.38.21.25.31.67.31,1.25v1.01c0,.54-.09.91-.26,1.13-.18.21-.43.32-.78.32-.69,0-1.03-.42-1.03-1.27v-1.19h-2.01v1.06c0,1.03.27,1.83.81,2.38"/>
  <path class="st5" d="M518.37,473.01h.96c.33,0,.58.09.74.27.16.18.24.49.24.93v1.92c0,.44-.08.75-.24.94-.16.18-.41.28-.74.28h-.96v-4.34ZM518.37,483.99v-4.82h.95c.99,0,1.74-.27,2.24-.81.5-.54.75-1.32.75-2.35v-1.66c0-1.03-.25-1.82-.75-2.36-.5-.54-1.25-.81-2.24-.81h-2.97v12.82h2.01ZM510.95,474.12c0-.84.35-1.26,1.05-1.26s1.04.42,1.04,1.26v6.92c0,.85-.35,1.27-1.04,1.27s-1.05-.42-1.05-1.27v-6.92ZM509.73,483.3c.53.56,1.29.84,2.27.84s1.74-.28,2.26-.84c.52-.56.79-1.35.79-2.38v-6.67c0-1.03-.26-1.82-.79-2.38s-1.28-.84-2.26-.84-1.74.28-2.27.84c-.53.56-.79,1.35-.79,2.38v6.67c0,1.03.26,1.82.79,2.38M502.85,481.55c.09-.25.15-.6.17-1.08l.37-7.47h1.7v9.16h-2.64c.18-.17.31-.37.4-.62M501.71,485.69v-1.7h4.26v1.7h2.01v-3.52h-.87v-11h-5.72l-.37,9.34c-.02.39-.06.71-.14.97-.07.25-.2.48-.37.69h-.81v3.52h2.01ZM494.43,483.99l1.7-5.87.81-3.14v9.01h2.01v-12.82h-2.41l-1.65,5.29-.73,2.82v-8.12h-1.8v12.82h2.06ZM487.47,473.01h.96c.33,0,.58.09.74.27.16.18.24.49.24.93v1.92c0,.44-.08.75-.24.94-.16.18-.41.28-.74.28h-.96v-4.34ZM487.47,483.99v-4.82h.95c.99,0,1.74-.27,2.24-.81.5-.54.75-1.32.75-2.35v-1.66c0-1.03-.25-1.82-.75-2.36-.5-.54-1.25-.81-2.24-.81h-2.96v12.82h2.01ZM480.05,474.12c0-.84.35-1.26,1.05-1.26s1.04.42,1.04,1.26v6.92c0,.85-.35,1.27-1.04,1.27s-1.05-.42-1.05-1.27v-6.92ZM478.83,483.3c.53.56,1.29.84,2.27.84s1.74-.28,2.26-.84c.53-.56.79-1.35.79-2.38v-6.67c0-1.03-.26-1.82-.79-2.38-.52-.56-1.28-.84-2.26-.84s-1.74.28-2.27.84c-.53.56-.79,1.35-.79,2.38v6.67c0,1.03.26,1.82.79,2.38M472.65,483.99v-3.93l.63-1.17,1.96,5.11h2.07l-2.8-7.11,2.8-5.71h-2.01l-2.64,5.59v-5.59h-2.01v12.82h2.01Z"/>
  <line class="st1" x1="333.37" y1="945.38" x2="429.25" y2="945.38"/>
  <polyline class="st3" points="429.25 945.38 430.61 945.11 431.71 944.02 432.25 942.65"/>
  <line class="st1" x1="432.52" y1="942.65" x2="435.26" y2="886.93"/>
  <polyline class="st1" points="323.81 953.85 438.81 953.85 439.63 952.76"/>
  <path class="st1" d="M322.72,952.73v-65.81M439.63,952.73v-65.81M323.81,953.85l-1.09-1.12"/>
  <polyline class="st3" points="330.37 942.65 330.91 944.02 332 945.11 333.37 945.38"/>
  <polyline class="st1" points="330.09 942.65 327.36 886.11 326 886.11"/>
</svg>