<svg xmlns="http://www.w3.org/2000/svg" xmlns:xlink="http://www.w3.org/1999/xlink" xml:space="preserve" id="Слой_1" x="0" y="0" style="enable-background:new 0 0 261 458" version="1.1" viewBox="0 0 261 458"><style>.st0{fill:#fff5a4}.st1{fill:#39373a}.st11,.st3{fill:none;stroke:#39373a}.st11{stroke-width:.6}.st21{fill:none;stroke:#39373a;stroke-width:.25}.st24,.st25{clip-path:url(#SVGID_34_);fill:#39373a}.st25{fill:none;stroke:#39373a;stroke-width:.25}.st26,.st27,.st28{clip-path:url(#SVGID_36_);fill:#39373a}.st27,.st28{fill:none;stroke:#39373a;stroke-width:.25}.st28{clip-path:url(#SVGID_38_);stroke-width:.6}.st29,.st30{clip-path:url(#SVGID_40_);fill:#39373a}.st30{fill:none;stroke:#39373a;stroke-width:.25}</style><switch><g><path d="M126.18 84.46h99.37v335.49h-99.37z" class="st0"/><path d="M28.38 198.88h189.64v65.15H28.38z" class="st0"/><path d="M125.29 420.17v11.74l23.74.01v-2.35h-2.95v-9.4z" class="st1"/><defs><path id="SVGID_1_" d="M22.53 21.41h207.22v411.01H22.53z"/></defs><clipPath id="SVGID_2_"><use xlink:href="#SVGID_1_" style="overflow:visible"/></clipPath><path d="m125.29 431.91 23.74.01v-2.35h-2.95v-9.4h-20.79z" style="clip-path:url(#SVGID_2_);fill:none;stroke:#39373a"/><path d="m124.05 72.23 26.96-.01v2.34h-2.95v9.4h-24.01z" class="st1"/><path d="m124.05 72.23 26.96-.01v2.34h-2.95v9.4h-24.01z" class="st3"/><path d="M206.9 420.17v9.4h-2.95v2.35l25.3-.01v-11.74z" class="st1"/><defs><path id="SVGID_3_" d="M22.53 21.41h207.22v411.01H22.53z"/></defs><clipPath id="SVGID_4_"><use xlink:href="#SVGID_3_" style="overflow:visible"/></clipPath><path d="m229.25 431.91-25.3.01v-2.35h2.95v-9.4h22.35z" style="clip-path:url(#SVGID_4_);fill:none;stroke:#39373a"/><path d="m226.13 72.23-25.29-.01v2.34h2.95v9.4h22.34z" class="st1"/><path d="m226.13 72.23-25.29-.01v2.34h2.95v9.4h22.34z" class="st3"/><path d="M224.48 39.16h4.77v392.76h-4.77z" class="st1"/><defs><path id="SVGID_5_" d="M22.53 21.41h207.22v411.01H22.53z"/></defs><clipPath id="SVGID_6_"><use xlink:href="#SVGID_5_" style="overflow:visible"/></clipPath><path d="M224.48 39.16h4.77v392.76h-4.77z" style="clip-path:url(#SVGID_6_);fill:none;stroke:#39373a"/><path d="M123.79 23.32h4.77v191.76h-4.77z" class="st1"/><path d="M123.79 23.32h4.77v191.76h-4.77z" class="st3"/><path d="M23.03 197.94h104.88v4.77H23.03z" class="st1"/><defs><path id="SVGID_7_" d="M22.53 21.41h207.22v411.01H22.53z"/></defs><clipPath id="SVGID_8_"><use xlink:href="#SVGID_7_" style="overflow:visible"/></clipPath><path d="M23.03 197.94h104.88v4.77H23.03z" style="clip-path:url(#SVGID_8_);fill:none;stroke:#39373a"/><path d="M122.99 21.91h5.57v178.63h-5.57z" class="st1"/><defs><path id="SVGID_9_" d="M22.53 21.41h207.22v411.01H22.53z"/></defs><clipPath id="SVGID_10_"><use xlink:href="#SVGID_9_" style="overflow:visible"/></clipPath><path d="M122.99 21.91h5.57v178.63h-5.57z" style="clip-path:url(#SVGID_10_);fill:none;stroke:#39373a"/><path d="M23.1 199.64h4.77v29.57H23.1z" class="st1"/><defs><path id="SVGID_11_" d="M22.53 21.41h207.22v411.01H22.53z"/></defs><clipPath id="SVGID_12_"><use xlink:href="#SVGID_11_" style="overflow:visible"/></clipPath><path d="M23.1 199.64h4.77v29.57H23.1z" style="clip-path:url(#SVGID_12_);fill:none;stroke:#39373a"/><path d="M123.79 244h4.65v187.92h-4.65z" class="st1"/><defs><path id="SVGID_13_" d="M22.53 21.41h207.22v411.01H22.53z"/></defs><clipPath id="SVGID_14_"><use xlink:href="#SVGID_13_" style="overflow:visible"/></clipPath><path d="M123.79 244h4.65v187.92h-4.65z" style="clip-path:url(#SVGID_14_);fill:none;stroke:#39373a"/><path d="M23.1 254.35h4.77v12.52H23.1z" class="st1"/><defs><path id="SVGID_15_" d="M22.53 21.41h207.22v411.01H22.53z"/></defs><clipPath id="SVGID_16_"><use xlink:href="#SVGID_15_" style="overflow:visible"/></clipPath><path d="M23.1 254.35h4.77v12.52H23.1z" style="clip-path:url(#SVGID_16_);fill:none;stroke:#39373a"/><path d="M25.51 262.16h100.16v4.77H25.51z" class="st1"/><path d="M25.51 262.16h100.16v4.77H25.51z" class="st3"/><path d="M161.86 234.27h65.05v2.54h-65.05z" class="st1"/><path d="M161.86 234.27h65.05v2.54h-65.05z" class="st3"/><path d="M154.06 181.78h72.84v2.54h-72.84z" class="st1"/><path d="M154.06 181.78h72.84v2.54h-72.84z" class="st3"/><path d="M154.06 263.28h72.84v2.54h-72.84z" class="st1"/><path d="M154.06 263.28h72.84v2.54h-72.84z" class="st3"/><path d="M161.86 218.44h2.54V244h-2.54z" class="st1"/><path d="M161.86 218.44h2.54V244h-2.54z" class="st3"/><path d="M161.86 183.11h2.54v17.43h-2.54z" class="st1"/><path d="M161.86 183.11h2.54v17.43h-2.54z" class="st3"/><path d="m128.376 29.74.393-2.71 99.43 14.418-.393 2.711z" class="st11"/><path d="M127.49 317.2h96.49" style="fill:none;stroke:#39373a;stroke-dasharray:3.86,3.86"/><defs><path id="SVGID_17_" d="M22.53 21.41h207.22v411.01H22.53z"/></defs><clipPath id="SVGID_18_"><use xlink:href="#SVGID_17_" style="overflow:visible"/></clipPath><path d="M213.52 129.42c0-.24.12-.4.44-.41h1.08v.65c-.34.22-.71.35-1.01.35-.34 0-.51-.15-.51-.42v-.17zm-1.42-2.04c.86-.05 1.7-.07 2.22-.07.54 0 .71.16.72.6v.12h-1.72c-1.03 0-1.65.5-1.65 1.32v.52c0 .97.78 1.48 1.74 1.48.9 0 1.49-.46 1.84-.89l.18.76h1.51v-3.3c0-1.54-.77-2.02-2.16-2.02-.76 0-2.06.11-2.83.26l.15 1.22zm-.84.08v-1.42h-5.16v1.42h1.65v3.75h1.88v-3.75h1.63zm-9.25 1.96c0-.24.12-.4.44-.41h1.08v.65c-.34.22-.71.35-1.01.35-.34 0-.51-.15-.51-.42v-.17zm-1.41-2.04c.86-.05 1.7-.07 2.22-.07.54 0 .71.16.72.6v.12h-1.72c-1.03 0-1.65.5-1.65 1.32v.52c0 .97.78 1.48 1.74 1.48.9 0 1.49-.46 1.84-.89l.18.76h1.51v-3.3c0-1.54-.77-2.02-2.16-2.02-.76 0-2.06.11-2.83.26l.15 1.22zm-1.3-1.34h-1.85v1.82h-1.58v-1.82H194v5.17h1.86v-2.09h1.58v2.09h1.85v-5.17zm-8.75 0c-.4 0-.65.2-.71.58l-.45 1.93c-.05.26-.06.51-.1.77h-.08c-.03-.26-.04-.51-.1-.77l-.46-1.93c-.06-.39-.31-.58-.7-.58h-1.6c-.43 0-.65.22-.65.64l-.12 4.53h1.71l.1-3.8h.12l.61 2.51c.07.38.32.57.72.57h.85c.41 0 .64-.19.71-.57l.61-2.51h.12l.14 3.8h1.71l-.13-4.53c-.01-.43-.22-.64-.65-.64h-1.65zm-8.6 1.18c.64 0 .8.26.8 1.41 0 1.13-.17 1.38-.8 1.38-.65 0-.81-.25-.81-1.38-.01-1.15.16-1.41.81-1.41m0-1.33c-2.04 0-2.79.74-2.79 2.74 0 1.99.75 2.71 2.79 2.71 2.03 0 2.78-.72 2.78-2.71 0-2-.75-2.74-2.78-2.74m-5.19 2.61c1.21-.18 1.12-.28 1.79-2.46h-1.9c-.45 1.73-.48 1.87-1.22 1.87h-.23c.04-.22.07-.45.07-.65v-1.22h-1.88v5.17h1.88v-1.63c0-.12-.02-.27-.06-.42h.42c.55.01.59.15 1.13 2.05h1.97c-.72-2.45-.74-2.49-1.97-2.66v-.05zm-8.54-.13h-.74c-.49 0-.58-.12-.58-.65 0-.39.09-.48.58-.48h.74v1.13zm-2.03.65c-.31.03-.85.11-.99.56l-.41 1.63h1.94l.32-1.39c.04-.24.16-.3.48-.3h.69v1.69h1.83V126c-.64-.07-1.2-.08-2.61-.08-1.9 0-2.37.36-2.37 1.66 0 .62.25 1.22 1.12 1.4v.04zm-5.51.4c0-.24.12-.4.44-.41h1.08v.65c-.34.22-.71.35-1.01.35-.34 0-.51-.15-.51-.42v-.17zm-1.41-2.04c.86-.05 1.7-.07 2.22-.07.54 0 .71.16.72.6v.12h-1.72c-1.03 0-1.65.5-1.65 1.32v.52c0 .97.78 1.48 1.74 1.48.9 0 1.49-.46 1.84-.89l.18.76h1.51v-3.3c0-1.54-.77-2.02-2.16-2.02-.76 0-2.06.11-2.83.26l.15 1.22zm-1.31-1.34h-3.12c-.9 0-1.35.46-1.43 1.33-.07.95-.17 1.67-.27 2.03-.11.42-.42.41-.87.48l.19 1.39c1.13.19 2.16-.07 2.37-1.35.1-.5.22-1.38.31-2.18.03-.3.18-.44.49-.44h.45v3.91h1.88v-5.17zm-6.32 5.18v-5.18H150l-1.65 2.48c-.16.24-.29.47-.4.76h-.04c.04-.3.07-.53.07-.8v-2.44h-1.68v5.17h1.64l1.61-2.36c.15-.23.32-.58.42-.86h.04c-.04.34-.07.61-.07.92v2.32h1.7zm-8.41-3.79c1.4-.19 1.43-.83 2.19-3.4h-1.98c-.64 2.15-.77 2.8-1.47 2.8h-.33c.05-.3.08-.6.08-.89v-1.9h-1.86v1.9c0 .29.03.59.09.89h-.36c-.69 0-.82-.64-1.46-2.8h-1.98c.76 2.57.79 3.22 2.19 3.4v.06c-1.45.21-1.54.77-2.38 3.72H138c.8-2.6.88-3.07 1.58-3.07h.36c-.05.23-.08.47-.08.67v2.4h1.86v-2.4c0-.2-.03-.44-.08-.67h.34c.73 0 .8.47 1.59 3.07h2.05c-.84-2.95-.94-3.51-2.39-3.72v-.06zm41.39 14.97v-7.18h-1.95l-1.82.71.23 1.24 1.66-.37c-.06.29-.07.57-.07.85v4.76h1.95zm-4.92-1.77c-.5 0-.65.16-.65.65v.46c0 .5.16.65.65.65h.45c.5 0 .65-.16.65-.65v-.46c0-.5-.16-.65-.65-.65h-.45zm-6.7-3.85c.99-.05 1.51-.05 2.25-.05.55 0 .79.03.79.33.01.41-.47 1.05-1.28 1.88l-1.61 1.67c-.21.23-.27.47-.27.78v1.02h5.35v-1.68h-2.07c-.34 0-.68.01-1.01.09l1.77-1.74c.95-.99 1.12-1.46 1.12-2.24 0-1.4-1.01-1.74-2.54-1.74-.78 0-1.52.03-2.57.24l.07 1.44zm-1.38 5.62v-7.18h-1.95l-1.82.71.23 1.24 1.67-.37c-.06.29-.07.57-.07.85v4.76h1.94zm31.86 152.17c0-.24.12-.39.44-.41H205v.65c-.34.22-.71.35-1.01.35-.34 0-.51-.15-.51-.42v-.17zm-1.41-2.04c.86-.05 1.7-.07 2.22-.07.54 0 .71.16.72.6v.12h-1.72c-1.03 0-1.65.5-1.65 1.32v.52c0 .97.78 1.48 1.74 1.48.9 0 1.49-.46 1.84-.89l.18.76h1.51v-3.3c0-1.54-.77-2.02-2.16-2.02-.76 0-2.06.11-2.83.26l.15 1.22zm-1.31-1.34h-1.82v3.9h-1.24v-3.9h-1.66v3.9h-1.23v-3.9h-1.82v5.17h7.77v-5.17zm-8.9 5.19v-5.18h-1.64l-1.65 2.48c-.16.24-.29.47-.4.76h-.04c.04-.3.07-.53.07-.8v-2.43h-1.68v5.17h1.64l1.61-2.36c.15-.23.32-.58.42-.86h.04c-.04.34-.07.61-.07.92v2.32h1.7zm-6.45-5.19h-1.85v1.82h-1.58v-1.82h-1.86v5.17h1.86v-2.09h1.58v2.09h1.85v-5.17zm-6.39 1.94h-3.06v1.14h3.06v-1.14zm-5.97.39h-.74c-.49 0-.58-.12-.58-.65 0-.38.09-.48.58-.48h.74v1.13zm-2.03.65c-.31.03-.85.11-.99.56l-.41 1.63h1.94l.32-1.39c.04-.24.16-.3.48-.3h.69v1.69h1.83v-5.21c-.65-.07-1.2-.08-2.61-.08-1.9 0-2.37.36-2.37 1.66 0 .62.25 1.22 1.12 1.4v.04zm-2.15-2.98h-1.85v1.82h-1.58v-1.82h-1.86v5.17h1.86v-2.09h1.58v2.09h1.85v-5.17zm-7.79 5.18h1.9l-1.54-2.64 1.41-2.53h-1.88l-1.02 1.93-1.02-1.93h-1.88l1.42 2.53-1.54 2.64h1.9l1.12-2.08 1.13 2.08zm-4.22-5.18h-2.02l-.76 3.08c-.05.24-.13.58-.22.89h-.1c-.04-.3-.09-.59-.15-.89l-.78-3.08h-2.01l1.6 4.72c.08.27.31.45.6.45h.34c-.14.26-.33.5-.54.61-.33.19-.79.24-1.45.22l-.16 1.23c.74.14 1.52.15 2.13-.1.8-.29 1.4-.8 1.77-2.01l1.75-5.12zm-8.49 1.4c1.43-.19 1.47-.83 2.26-3.4h-1.99c-.56 2.16-.7 2.8-1.71 2.8h-.34c.05-.29.08-.6.08-.89v-1.91h-1.95v7.18h1.95v-2.41c0-.2-.03-.44-.08-.67h.38c1 0 1.08.47 1.82 3.07h2.04c-.88-2.95-.98-3.51-2.46-3.72v-.05zm46.73-242.9h-.74c-.49 0-.58-.13-.58-.65 0-.38.09-.48.58-.48h.74v1.13zm-2.03.65c-.31.03-.85.11-.99.56l-.41 1.63h1.94l.32-1.39c.04-.24.16-.3.48-.3h.69v1.69h1.83v-5.21c-.65-.07-1.2-.08-2.61-.08-1.9 0-2.37.36-2.37 1.67 0 .62.25 1.22 1.12 1.39v.04zm-2.15 2.2v-5.18h-1.64l-1.65 2.48c-.16.24-.29.47-.4.76h-.04c.04-.3.07-.53.07-.8v-2.44h-1.68v5.17h1.64l1.61-2.36c.15-.23.32-.58.42-.86h.04c-.04.34-.07.61-.07.92v2.32h1.7zm-8.03-2.73c1.21-.16 1.16-.31 1.84-2.45h-1.86c-.54 1.7-.6 1.88-1.12 1.88h-.32c.04-.22.06-.44.06-.64v-1.24h-1.64v1.24c0 .21.02.43.06.64h-.33c-.52 0-.58-.18-1.13-1.88h-1.85c.69 2.13.64 2.29 1.84 2.45v.05c-1.25.18-1.27.27-2.01 2.68h1.92c.66-1.96.71-2.07 1.15-2.08h.42c-.04.16-.06.31-.06.44v1.65h1.65V50.9c0-.12-.02-.28-.05-.44h.39c.47.01.51.12 1.15 2.08h1.92c-.74-2.41-.77-2.5-2.01-2.68v-.05zm-9.42 1.45h-1.52c.26-.59.45-1.31.59-2.28.03-.29.2-.42.46-.42h.47v2.7zm2.63 0h-.86v-3.9h-2.84c-.93 0-1.38.43-1.5 1.26-.12.9-.3 1.76-.61 2.64h-.65v2.7h1.25l.12-1.44h3.7l.13 1.44h1.25v-2.7zm-9.62-2.71c.64 0 .8.26.8 1.41 0 1.14-.17 1.39-.8 1.39-.65 0-.81-.25-.81-1.39 0-1.15.17-1.41.81-1.41m0-1.34c-2.04 0-2.79.74-2.79 2.74 0 1.99.75 2.71 2.79 2.71 2.03 0 2.78-.72 2.78-2.71 0-2-.75-2.74-2.78-2.74m-3.8-1.86h-3.27c-1.11 0-1.72.57-1.8 1.7-.11 1.65-.25 2.67-.49 3.33-.18.5-.53.61-1.02.69l.14 1.51c1.27.2 2.22-.18 2.69-1.66.29-.86.43-2.2.55-3.7.02-.35.22-.53.59-.53h.65v5.85h1.96v-7.19zm16.35 256.22c-.01-.85.07-1.19.82-1.19.81 0 .9.28.91 1.86-.34.2-.57.27-.91.27-.66.01-.83-.2-.82-.94m-1.54 4.63c.83.21 1.6.21 2 .21 2.29 0 3.13-.54 3.13-3.79 0-2.9-.48-3.64-2.75-3.64-2.09 0-2.68.79-2.68 2.63 0 1.31.46 2.23 2.06 2.23.65 0 1.08-.1 1.48-.43-.05 1.23-.3 1.58-1.25 1.58-.93 0-1.27 0-1.9-.01l-.09 1.22zm-2.19-1.68c-.5 0-.65.16-.65.66v.46c0 .5.16.66.65.66h.45c.5 0 .65-.16.65-.66v-.46c0-.5-.16-.66-.65-.66h-.45zm-1.72-3.98.07-1.43h-4.5l-.19 3.23c-.02.33.22.6.56.65l1.11.14c.97.08 1.32.22 1.29.9-.04.58-.25.81-1.19.81-.51 0-1.18-.03-1.86-.08l-.18 1.47c.92.14 1.83.21 2.55.21 2.04 0 2.61-1.05 2.61-2.34.01-1.16-.43-2.19-2.1-2.37l-1.2-.16.07-1h2.96zm5.5-243.15c.53-.01 1.26-.02 2-.02.73 0 .94.09.94.68.01.49-.06.78-.84.78h-1.37v1.25l1.37-.01c.77-.01.94.23.94.84 0 .73-.27.86-1.19.86-.62 0-1.08-.01-1.99-.06l-.06 1.4c.81.11 1.72.2 2.58.2 1.9 0 2.6-.62 2.58-2.14-.01-1.09-.32-1.64-1.33-1.8v-.04c.93-.15 1.14-.78 1.14-1.81 0-1.28-.66-1.67-2.42-1.67-.79 0-1.59.06-2.4.2l.05 1.34zm-2.11 4c-.5 0-.65.16-.65.65v.46c0 .5.16.65.65.65h.45c.5 0 .66-.16.66-.65v-.46c0-.5-.16-.65-.66-.65h-.45zm-1.34-1.04h-.85v-2.97h-1.47l-.31 1.13v1.84h-1.41c-.17 0-.27-.1-.19-.3l1.57-4.07h-1.82l-1.79 4.56c-.23.56.16 1.11.76 1.11H173v1.51h1.78v-1.51h.02l.83-.19v-1.11zm38.46 276.46c0-.24.12-.39.44-.41h1.08v.65c-.34.22-.71.35-1.01.35-.34 0-.51-.15-.51-.42v-.17zm-1.42-2.04c.86-.05 1.7-.07 2.22-.07.54 0 .71.16.72.6v.12h-1.72c-1.03 0-1.65.5-1.65 1.32v.52c0 .97.78 1.48 1.74 1.48.9 0 1.49-.46 1.84-.89l.18.76h1.51v-3.3c0-1.54-.77-2.02-2.16-2.02-.76 0-2.06.11-2.83.26l.15 1.22zm-.84.08v-1.42h-5.16v1.42h1.65v3.75h1.88v-3.75h1.63zm-9.24 1.96c0-.24.12-.39.44-.41h1.08v.65c-.34.22-.71.35-1.01.35-.34 0-.51-.15-.51-.42v-.17zm-1.42-2.04c.86-.05 1.7-.07 2.22-.07.54 0 .71.16.72.6v.12h-1.72c-1.03 0-1.65.5-1.65 1.32v.52c0 .97.78 1.48 1.74 1.48.9 0 1.49-.46 1.84-.89l.18.76h1.5v-3.3c0-1.54-.77-2.02-2.16-2.02-.76 0-2.06.11-2.83.26l.16 1.22zm-1.3-1.34h-1.85v1.82h-1.58v-1.82h-1.86v5.17h1.86v-2.09h1.58v2.09h1.85v-5.17zm-8.75 0c-.4 0-.65.2-.71.58l-.45 1.93c-.05.26-.06.51-.1.77h-.08c-.03-.26-.04-.51-.1-.77l-.46-1.93c-.06-.39-.31-.58-.7-.58h-1.6c-.43 0-.64.22-.65.64l-.12 4.53h1.71l.1-3.8h.12l.62 2.51c.07.38.32.57.72.57h.85c.41 0 .64-.19.71-.57l.62-2.51h.12l.14 3.8h1.71l-.14-4.53c-.01-.43-.22-.64-.64-.64h-1.67zm-8.6 1.18c.64 0 .8.26.8 1.41 0 1.13-.17 1.38-.8 1.38-.65 0-.81-.25-.81-1.38 0-1.15.16-1.41.81-1.41m0-1.33c-2.04 0-2.79.74-2.79 2.74 0 1.99.75 2.71 2.79 2.71 2.03 0 2.78-.72 2.78-2.71 0-2-.75-2.74-2.78-2.74m-5.18 2.61c1.21-.18 1.12-.28 1.79-2.46h-1.9c-.45 1.73-.48 1.87-1.22 1.87h-.23c.04-.22.07-.45.07-.65v-1.22h-1.88v5.17h1.88v-1.63c0-.12-.02-.27-.06-.42h.42c.55.01.59.15 1.13 2.05h1.97c-.72-2.45-.74-2.49-1.97-2.66v-.05zm-8.55-.13h-.74c-.49 0-.58-.12-.58-.65 0-.39.09-.48.58-.48h.74v1.13zm-2.03.65c-.31.03-.85.11-.99.56l-.41 1.63h1.94l.32-1.39c.04-.24.16-.3.48-.3h.69v1.69h1.83v-5.21c-.64-.07-1.2-.08-2.61-.08-1.9 0-2.37.36-2.37 1.66 0 .62.25 1.22 1.12 1.4v.04zm-5.51.4c0-.24.12-.39.44-.41h1.08v.65c-.34.22-.71.35-1.01.35-.34 0-.51-.15-.51-.42v-.17zm-1.41-2.04c.86-.05 1.7-.07 2.22-.07.54 0 .71.16.72.6v.12h-1.72c-1.03 0-1.65.5-1.65 1.32v.52c0 .97.78 1.48 1.74 1.48.9 0 1.49-.46 1.84-.89l.18.76h1.51v-3.3c0-1.54-.77-2.02-2.16-2.02-.76 0-2.06.11-2.83.26l.15 1.22zm-1.3-1.34h-3.12c-.9 0-1.35.46-1.43 1.33-.07.95-.17 1.67-.27 2.03-.12.42-.42.41-.87.48l.19 1.39c1.13.19 2.17-.07 2.37-1.35.1-.5.22-1.38.31-2.18.03-.3.18-.44.49-.44h.45v3.91h1.88v-5.17zm-6.33 5.18v-5.18h-1.64l-1.65 2.48c-.16.24-.29.47-.39.76h-.04c.04-.3.07-.53.07-.8v-2.43h-1.68v5.17h1.64l1.61-2.36c.15-.23.32-.58.42-.86h.04c-.04.34-.07.61-.07.92v2.32h1.69zm-8.41-3.79c1.39-.19 1.43-.83 2.19-3.4h-1.98c-.65 2.15-.77 2.8-1.47 2.8h-.33c.05-.3.08-.6.08-.89v-1.9h-1.86v1.9c0 .29.03.59.09.89h-.36c-.69 0-.82-.64-1.46-2.8h-1.98c.76 2.57.79 3.22 2.19 3.4v.06c-1.45.21-1.54.77-2.38 3.72h2.04c.8-2.6.88-3.07 1.58-3.07h.36c-.05.23-.08.47-.08.67v2.4h1.86v-2.4c0-.2-.03-.44-.08-.67h.34c.73 0 .8.47 1.59 3.07h2.05c-.84-2.95-.94-3.51-2.39-3.72v-.06zm40.15 12.66c.79 0 .96.18.96.94 0 .72-.17.89-.97.89-.81 0-1-.18-1-.89 0-.74.17-.94 1.01-.94m-.02-2.9c.72 0 .89.16.89.87 0 .63-.14.79-.87.79-.74 0-.92-.14-.92-.79.01-.72.18-.87.9-.87m-1.55 2.3c-1.03.09-1.28.96-1.28 1.92 0 1.39.58 1.95 2.82 1.93 2.28-.02 2.82-.54 2.82-1.93 0-.96-.24-1.82-1.27-1.92v-.04c.78-.08 1.09-.87 1.09-1.64 0-1.34-.46-1.93-2.64-1.93-2.16 0-2.63.58-2.63 1.93 0 .77.31 1.56 1.09 1.64v.04zm-3.27 1.94c-.5 0-.65.16-.65.65v.46c0 .5.16.65.65.65h.45c.5 0 .65-.16.65-.65v-.46c0-.5-.16-.65-.65-.65h-.45zm-6.71-3.86c.99-.05 1.51-.05 2.25-.05.55 0 .79.03.79.33.01.41-.47 1.05-1.28 1.88l-1.61 1.67c-.21.23-.27.47-.27.78v1.02h5.35v-1.68h-2.07c-.34 0-.68.01-1.01.09l1.77-1.74c.95-.99 1.12-1.46 1.12-2.24 0-1.4-1.01-1.74-2.54-1.74-.78 0-1.52.03-2.57.24l.07 1.44zm-1.37 5.62v-7.18h-1.95l-1.82.71.23 1.24 1.67-.37c-.06.29-.07.57-.07.85v4.76h1.94zm22.26 43.92c-.02-1.95.17-2.71 1.88-2.71 1.86 0 2.05.64 2.07 4.26-.79.45-1.31.62-2.07.62-1.52 0-1.9-.48-1.88-2.17m-3.52 10.59c1.9.48 3.66.48 4.57.48 5.23 0 7.16-1.24 7.16-8.66 0-6.64-1.09-8.33-6.28-8.33-4.78 0-6.14 1.81-6.11 6.02 0 3 1.05 5.09 4.71 5.09 1.47 0 2.47-.24 3.38-.98-.12 2.81-.69 3.62-2.85 3.62-2.12 0-2.9 0-4.35-.02l-.23 2.78zm-4.99-3.85c-1.14 0-1.5.36-1.5 1.5v1.05c0 1.14.36 1.5 1.5 1.5h1.02c1.14 0 1.5-.36 1.5-1.5v-1.05c0-1.14-.36-1.5-1.5-1.5h-1.02zm-9.95-3.05c1.81 0 2.19.4 2.19 2.14 0 1.64-.38 2.05-2.21 2.05-1.86 0-2.28-.4-2.28-2.05 0-1.69.4-2.14 2.3-2.14m-.02-6.64c1.64 0 2.02.36 2.02 1.98 0 1.45-.31 1.81-1.98 1.81-1.69 0-2.09-.33-2.09-1.81 0-1.62.38-1.98 2.05-1.98m-3.54 5.26c-2.36.21-2.93 2.19-2.93 4.38 0 3.19 1.33 4.45 6.45 4.43 5.21-.05 6.45-1.24 6.45-4.43 0-2.19-.55-4.16-2.9-4.38v-.1c1.79-.19 2.5-2 2.5-3.76 0-3.07-1.05-4.4-6.04-4.4-4.95 0-6.02 1.33-6.02 4.4 0 1.76.71 3.57 2.5 3.76v.1zm-4.55 2.05h-1.95v-6.78h-3.35l-.71 2.57v4.21h-3.21c-.38 0-.62-.24-.43-.69l3.59-9.3h-4.16l-4.09 10.42c-.52 1.29.36 2.55 1.74 2.55h6.57v3.45h4.07v-3.45h.05l1.9-.43v-2.55z" style="clip-path:url(#SVGID_18_);fill:#39373a"/><path d="M61.64 231.79h-1.96v-5.85h-2.11v5.85h-1.95v-7.18h6.02v7.18zm2.88-4.44c.36-.48 1.16-.85 1.98-.85 1.31 0 1.83 1.01 1.83 2.77 0 2.09-.68 2.66-1.97 2.66-.62 0-1.21-.12-1.65-.47.03.36.04.76.03 1.12v1.13h-1.88v-7.1h1.52l.14.74zm.22 3.11c.28.08.53.18.91.18.53 0 .74-.18.74-1.36 0-1.18-.2-1.37-.68-1.37-.4 0-.63.12-.97.32v2.23zm8.15 1.34v-2.32c0-.3.03-.57.07-.92h-.04c-.09.28-.27.63-.42.86l-1.61 2.36h-1.64v-5.17h1.68v2.43c0 .27-.03.5-.07.8h.04c.1-.29.24-.52.4-.76l1.64-2.48h1.64v5.18h-1.69zm5.31-2.09-1.12 2.08h-1.9l1.54-2.64-1.42-2.53h1.88l1.02 1.94 1.02-1.94h1.88l-1.42 2.53 1.54 2.64h-1.9l-1.12-2.08zm8.82-.5c0 1.99-.75 2.71-2.78 2.71-2.04 0-2.79-.72-2.79-2.71 0-2 .75-2.74 2.79-2.74s2.78.74 2.78 2.74zm-3.58 0c0 1.13.17 1.38.81 1.38.63 0 .8-.25.8-1.38 0-1.14-.17-1.4-.8-1.4-.65-.01-.81.25-.81 1.4zm10.49-.09c1.24.18 1.27.27 2.01 2.67h-1.92c-.65-1.96-.69-2.07-1.15-2.08h-.39c.03.16.05.31.05.44v1.64h-1.65v-1.64c0-.12.02-.28.06-.44h-.42c-.44.01-.49.12-1.14 2.08h-1.92c.74-2.4.76-2.5 2.01-2.67v-.05c-1.21-.16-1.15-.31-1.84-2.45h1.85c.55 1.71.61 1.88 1.13 1.88h.33c-.04-.22-.06-.44-.06-.65v-1.24h1.64v1.24c0 .21-.02.43-.06.65h.32c.52 0 .58-.19 1.12-1.88h1.86c-.68 2.13-.63 2.29-1.84 2.45v.05zm2.71-2.39c.77-.15 2.07-.26 2.83-.26 1.39 0 2.16.48 2.16 2.02v3.3h-1.51l-.18-.76c-.35.44-.95.9-1.84.9-.96 0-1.74-.51-1.74-1.48v-.52c0-.82.62-1.32 1.65-1.32h1.72v-.12c-.01-.44-.18-.59-.72-.59-.52 0-1.35.02-2.22.07l-.15-1.24zm1.59 3.45c0 .27.17.42.51.42.3 0 .67-.14 1.01-.35v-.64h-1.08c-.31.01-.44.17-.44.41v.16zm5.5-.63c-.87-.18-1.12-.77-1.12-1.39 0-1.3.47-1.67 2.37-1.67 1.42 0 1.97.01 2.61.08v5.21h-1.83v-1.69h-.69c-.32 0-.44.06-.48.3l-.32 1.38h-1.94l.41-1.63c.14-.45.68-.53.99-.56v-.03zm2.03-1.72h-.74c-.49 0-.58.09-.58.48 0 .52.09.65.58.65h.74v-1.13zm-26.41 6.7c.56 0 .91.43.73.96l-2.16 6.22H76l1.73-4.85c.09-.25.19-.51.35-.76h-3.12l-.08-1.57h4.47zm2.03 5.41c.5 0 .66.16.66.66v.46c0 .5-.16.66-.66.66h-.45c-.5 0-.66-.16-.66-.66v-.46c0-.5.16-.66.66-.66h.45zm1.6-5.36c.81-.13 1.61-.2 2.4-.2 1.76 0 2.42.4 2.42 1.68 0 1.03-.22 1.67-1.14 1.81v.04c1.01.16 1.32.71 1.33 1.8.02 1.52-.68 2.14-2.58 2.14-.86 0-1.77-.08-2.58-.2l.06-1.41c.91.05 1.36.06 1.99.06.92 0 1.19-.13 1.19-.86 0-.61-.17-.85-.94-.84l-1.37.01v-1.25h1.37c.78 0 .85-.29.84-.78 0-.58-.21-.68-.94-.68-.74 0-1.47.01-2 .02l-.05-1.34z" class="st1"/><path d="m147.364 74.906.475-.8 18.804 11.187-.475.8zm20.116-2.886h35.77v2.74h-35.77z" class="st11"/><path d="M170.01 74.74h35.77v9.42h-35.77z" class="st11"/><defs><path id="SVGID_19_" d="M22.53 21.41h207.22v411.01H22.53z"/></defs><clipPath id="SVGID_20_"><use xlink:href="#SVGID_19_" style="overflow:visible"/></clipPath><path d="M166.74 85.18s1.11-1.5 1.64-4.99c.54-3.49.37-5.36.37-5.36" style="clip-path:url(#SVGID_20_);fill:none;stroke:#39373a;stroke-width:.4"/><path d="m150.11 170.9-.5-.83-20.96 12.58.49.84z" class="st11"/><defs><path id="SVGID_21_" d="M22.53 21.41h207.22v411.01H22.53z"/></defs><clipPath id="SVGID_22_"><use xlink:href="#SVGID_21_" style="overflow:visible"/></clipPath><path d="M150.17 170.96s1.41 1.84 2.63 6.4c1.22 4.56 1.4 7.08 1.4 7.08" style="clip-path:url(#SVGID_22_);fill:none;stroke:#39373a;stroke-width:.4"/><path d="m38.56 233.3.83.49-12.58 20.96-.84-.49z" class="st11"/><defs><path id="SVGID_23_" d="M22.53 21.41h207.22v411.01H22.53z"/></defs><clipPath id="SVGID_24_"><use xlink:href="#SVGID_23_" style="overflow:visible"/></clipPath><path d="M38.5 233.24s-1.84-1.41-6.4-2.63c-4.56-1.22-7.08-1.4-7.08-1.4" style="clip-path:url(#SVGID_24_);fill:none;stroke:#39373a;stroke-width:.4"/><path d="m154.1 216.62-1.09-.64 10.07-16.69 1.1.65z" class="st11"/><defs><path id="SVGID_25_" d="M22.53 21.41h207.22v411.01H22.53z"/></defs><clipPath id="SVGID_26_"><use xlink:href="#SVGID_25_" style="overflow:visible"/></clipPath><path d="M153.7 216.5s1.66 1.08 5.42 1.48c3.76.4 5.76.15 5.76.15" style="clip-path:url(#SVGID_26_);fill:none;stroke:#39373a;stroke-width:.4"/><path d="m154.1 246.28-1.09.65 10.07 16.69 1.1-.65z" class="st11"/><defs><path id="SVGID_27_" d="M22.53 21.41h207.22v411.01H22.53z"/></defs><clipPath id="SVGID_28_"><use xlink:href="#SVGID_27_" style="overflow:visible"/></clipPath><path d="M153.7 246.4s1.66-1.08 5.42-1.48c3.76-.4 5.76-.15 5.76-.15" style="clip-path:url(#SVGID_28_);fill:none;stroke:#39373a;stroke-width:.4"/><path d="m151.9 278.34-.73 1.25-23.16-14.02.74-1.25z" class="st11"/><defs><path id="SVGID_29_" d="M22.53 21.41h207.22v411.01H22.53z"/></defs><clipPath id="SVGID_30_"><use xlink:href="#SVGID_29_" style="overflow:visible"/></clipPath><path d="M151.72 278.88s1.49-2.32 1.92-7.49c.43-5.18.1-6.51.1-6.51" style="clip-path:url(#SVGID_30_);fill:none;stroke:#39373a;stroke-width:.4"/><path d="M129.24 429.37h92.06v2.74h-92.06z" style="clip-path:url(#SVGID_30_);fill:none;stroke:#39373a;stroke-width:.6"/><path d="M130.55 419.97h89.44v9.42h-89.44z" class="st11"/><path d="M216.5 266.17h-16.24v16.24h16.24v-16.24zm-16.61-.36h16.96v16.96h-16.96v-16.96z" class="st1"/><path d="M216.5 266.17h-16.24v16.24h16.24v-16.24zm-16.61-.36h16.96v16.96h-16.96v-16.96z" class="st21"/><defs><path id="SVGID_31_" d="M22.53 21.41h207.22v411.01H22.53z"/></defs><clipPath id="SVGID_32_"><use xlink:href="#SVGID_31_" style="overflow:visible"/></clipPath><path d="M214.06 280.94c.4 0 .73-.33.73-.73v-8.54c0-.4-.33-.73-.73-.73h-11.38c-.4 0-.73.33-.73.73v8.54c0 .4.33.73.73.73h11.38zm-11.37-10.36h11.38c.6 0 1.09.49 1.09 1.09v8.54c0 .6-.49 1.09-1.09 1.09h-11.38c-.6 0-1.09-.49-1.09-1.09v-8.54c0-.6.49-1.09 1.09-1.09" style="clip-path:url(#SVGID_32_);fill:#39373a"/><path d="M214.06 280.94c.4 0 .73-.33.73-.73v-8.54c0-.4-.33-.73-.73-.73h-11.38c-.4 0-.73.33-.73.73v8.54c0 .4.33.73.73.73h11.38zm-11.37-10.36h11.38c.6 0 1.09.49 1.09 1.09v8.54c0 .6-.49 1.09-1.09 1.09h-11.38c-.6 0-1.09-.49-1.09-1.09v-8.54c0-.6.49-1.09 1.09-1.09z" style="clip-path:url(#SVGID_32_);fill:none;stroke:#39373a;stroke-width:.25"/><path d="M213.53 272.21h-10.31v7.47h10.31v-7.47zm-10.67-.36h11.02v8.19h-11.02v-8.19z" class="st1"/><path d="M213.53 272.21h-10.31v7.47h10.31v-7.47zm-10.67-.36h11.02v8.19h-11.02v-8.19z" class="st21"/><defs><path id="SVGID_33_" d="M22.53 21.41h207.22v411.01H22.53z"/></defs><clipPath id="SVGID_34_"><use xlink:href="#SVGID_33_" style="overflow:visible"/></clipPath><path d="M208.38 277.39a.939.939 0 1 0 0-1.88.939.939 0 1 0 0 1.88m0-2.25c.72 0 1.3.58 1.3 1.3 0 .72-.58 1.3-1.3 1.3-.72 0-1.3-.58-1.3-1.3 0-.71.58-1.3 1.3-1.3" class="st24"/><path d="M208.38 277.39a.939.939 0 1 0 0-1.88.939.939 0 1 0 0 1.88zm0-2.25c.72 0 1.3.58 1.3 1.3 0 .72-.58 1.3-1.3 1.3-.72 0-1.3-.58-1.3-1.3 0-.71.58-1.3 1.3-1.3z" class="st25"/><path d="M195.79 250.08c0-2.82 2.29-5.11 5.12-5.11h7.41c.49 0 .88.4.88.88v8.46c0 .49-.4.88-.88.88h-7.41a5.109 5.109 0 0 1-5.12-5.11m13.76 4.24v-8.46c0-.68-.55-1.23-1.23-1.23h-7.41c-3.01 0-5.47 2.45-5.47 5.47 0 3.01 2.45 5.47 5.47 5.47h7.41a1.26 1.26 0 0 0 1.23-1.25" class="st24"/><path d="M195.79 250.08c0-2.82 2.29-5.11 5.12-5.11h7.41c.49 0 .88.4.88.88v8.46c0 .49-.4.88-.88.88h-7.41a5.109 5.109 0 0 1-5.12-5.11zm13.76 4.24v-8.46c0-.68-.55-1.23-1.23-1.23h-7.41c-3.01 0-5.47 2.45-5.47 5.47 0 3.01 2.45 5.47 5.47 5.47h7.41a1.26 1.26 0 0 0 1.23-1.25z" class="st25"/><path d="M206.73 246.42v7.33c0 .05-.04.09-.09.09h-5.58c-2.06 0-3.76-1.69-3.76-3.76 0-2.06 1.69-3.76 3.76-3.76h5.58c.05.01.09.05.09.1z" class="st25"/><path d="M206.55 246.5v7.16h-5.5a3.59 3.59 0 0 1-3.58-3.58 3.59 3.59 0 0 1 3.58-3.58h5.5zm.35 7.25v-7.33c0-.14-.12-.26-.26-.26h-5.58a3.93 3.93 0 0 0 0 7.86h5.58c.14 0 .26-.13.26-.27" class="st24"/><path d="M206.55 246.5v7.16h-5.5a3.59 3.59 0 0 1-3.58-3.58 3.59 3.59 0 0 1 3.58-3.58h5.5zm.35 7.25v-7.33c0-.14-.12-.26-.26-.26h-5.58a3.93 3.93 0 0 0 0 7.86h5.58c.14 0 .26-.13.26-.27z" class="st25"/><path d="M201.05 250.08a.97.97 0 0 1 1.94 0 .97.97 0 0 1-1.94 0m2.28 0c0-.73-.59-1.32-1.32-1.32s-1.32.59-1.32 1.32c0 .73.59 1.32 1.32 1.32s1.32-.59 1.32-1.32" class="st24"/><path d="M201.05 250.08a.97.97 0 0 1 1.94 0 .97.97 0 0 1-1.94 0zm2.28 0c0-.73-.59-1.32-1.32-1.32s-1.32.59-1.32 1.32c0 .73.59 1.32 1.32 1.32s1.32-.59 1.32-1.32z" class="st25"/><path d="m203.468 248.695 2.347-1.754.21.28-2.347 1.754z" class="st1"/><path d="m203.468 248.695 2.347-1.754.21.28-2.347 1.754z" class="st21"/><path d="m206.02 252.89-2.35-1.76-.21.28 2.35 1.76z" class="st1"/><path d="m206.02 252.89-2.35-1.76-.21.28 2.35 1.76z" class="st21"/><defs><path id="SVGID_35_" d="M22.53 21.41h207.22v411.01H22.53z"/></defs><clipPath id="SVGID_36_"><use xlink:href="#SVGID_35_" style="overflow:visible"/></clipPath><path d="M209.57 246.55c0-.78.64-1.42 1.42-1.42h1.93c.78 0 1.42.64 1.42 1.42v7.06c0 .78-.64 1.42-1.42 1.42h-1.93c-.78 0-1.42-.64-1.42-1.42v-7.06zm5.11 7.07v-7.06c0-.97-.79-1.77-1.77-1.77h-1.93c-.97 0-1.77.79-1.77 1.77v7.06c0 .98.79 1.77 1.77 1.77h1.93c.98-.01 1.77-.8 1.77-1.77" class="st26"/><path d="M209.57 246.55c0-.78.64-1.42 1.42-1.42h1.93c.78 0 1.42.64 1.42 1.42v7.06c0 .78-.64 1.42-1.42 1.42h-1.93c-.78 0-1.42-.64-1.42-1.42v-7.06zm5.11 7.07v-7.06c0-.97-.79-1.77-1.77-1.77h-1.93c-.97 0-1.77.79-1.77 1.77v7.06c0 .98.79 1.77 1.77 1.77h1.93c.98-.01 1.77-.8 1.77-1.77z" class="st27"/><path d="M211.4 250.08c0-.3.25-.55.55-.55.3 0 .55.25.55.55 0 .3-.25.55-.55.55-.3 0-.55-.24-.55-.55m1.45 0c0-.5-.4-.9-.9-.9s-.9.4-.9.9.4.9.9.9.9-.4.9-.9" class="st26"/><path d="M211.4 250.08c0-.3.25-.55.55-.55.3 0 .55.25.55.55 0 .3-.25.55-.55.55-.3 0-.55-.24-.55-.55zm1.45 0c0-.5-.4-.9-.9-.9s-.9.4-.9.9.4.9.9.9.9-.4.9-.9z" class="st27"/><path d="M216.65 266.18v24.43m1.02-22.96h6.34v15.93h-6.34zm0 17.71h6.34v4.08h-6.34zm-1.32 5.09h7.97m-7.67-53.36v24.43m1.02-22.96h6.34v15.93h-6.34zm0 17.71h6.34v4.08h-6.34zm-1.32 5.09h7.97m-40.15-77.37h18.46v18.46h-18.46z" class="st11"/><defs><path id="SVGID_37_" d="M22.53 21.41h207.22v411.01H22.53z"/></defs><clipPath id="SVGID_38_"><use xlink:href="#SVGID_37_" style="overflow:visible"/></clipPath><path d="M218.01 186.67s5.67 0 5.67 5.67v33.86s0 5.67-5.67 5.67h-7.6s-5.67 0-5.67-5.67v-33.86s0-5.67 5.67-5.67h7.6z" class="st28"/><path d="M216.24 189.81s5.67 0 5.67 5.67v27.57s0 5.67-5.67 5.67h-4.06s-5.67 0-5.67-5.67v-27.57s0-5.67 5.67-5.67h4.06z" class="st28"/><path d="M217.37 193.61s2.83 0 2.83 2.84v27.71s0 2.83-2.83 2.83h-6.32s-2.83 0-2.83-2.83v-27.71s0-2.84 2.83-2.84h6.32z" class="st28"/><path d="M214.21 223.61c-.47 0-.84-.38-.84-.84 0-.46.38-.84.84-.84.46 0 .84.38.84.84 0 .46-.38.84-.84.84z" class="st28"/><path d="M203.67 185.01v48.76" class="st11"/><defs><path id="SVGID_39_" d="M22.53 21.41h207.22v411.01H22.53z"/></defs><clipPath id="SVGID_40_"><use xlink:href="#SVGID_39_" style="overflow:visible"/></clipPath><path d="M197.08 221.34c2.99 0 5.42 2.43 5.42 5.42v5.75c0 .45-.37.82-.82.82h-12.26c-.45 0-.82-.37-.82-.82v-5.75c0-2.99 2.43-5.42 5.42-5.42h3.06zm-7.66 12.3h12.26c.62 0 1.13-.51 1.13-1.13v-5.75c0-3.16-2.57-5.73-5.73-5.73h-3.06c-3.16 0-5.73 2.57-5.73 5.73v5.75c.01.62.51 1.13 1.13 1.13" class="st29"/><path d="M197.08 221.34c2.99 0 5.42 2.43 5.42 5.42v5.75c0 .45-.37.82-.82.82h-12.26c-.45 0-.82-.37-.82-.82v-5.75c0-2.99 2.43-5.42 5.42-5.42h3.06zm-7.66 12.3h12.26c.62 0 1.13-.51 1.13-1.13v-5.75c0-3.16-2.57-5.73-5.73-5.73h-3.06c-3.16 0-5.73 2.57-5.73 5.73v5.75c.01.62.51 1.13 1.13 1.13z" class="st30"/><path d="M197.08 222.7c2.24 0 4.06 1.82 4.06 4.06v3.35c0 .39-.32.71-.71.71h-9.77c-.39 0-.71-.32-.71-.71v-3.35c0-2.24 1.82-4.06 4.06-4.06h3.07zm-6.41 8.43h9.77c.56 0 1.01-.45 1.01-1.01v-3.35c0-2.41-1.96-4.37-4.37-4.37h-3.06c-2.41 0-4.37 1.96-4.37 4.37v3.35c.01.55.46 1.01 1.02 1.01" class="st29"/><path d="M197.08 222.7c2.24 0 4.06 1.82 4.06 4.06v3.35c0 .39-.32.71-.71.71h-9.77c-.39 0-.71-.32-.71-.71v-3.35c0-2.24 1.82-4.06 4.06-4.06h3.07zm-6.41 8.43h9.77c.56 0 1.01-.45 1.01-1.01v-3.35c0-2.41-1.96-4.37-4.37-4.37h-3.06c-2.41 0-4.37 1.96-4.37 4.37v3.35c.01.55.46 1.01 1.02 1.01z" class="st30"/><path d="M195.55 225.54a.67.67 0 1 1 0 1.34.67.67 0 0 1 0-1.34m0 1.65c.54 0 .98-.44.98-.98s-.44-.98-.98-.98-.98.44-.98.98c.01.54.44.98.98.98" class="st29"/><path d="M195.55 225.54a.67.67 0 1 1 0 1.34.67.67 0 0 1 0-1.34zm0 1.65c.54 0 .98-.44.98-.98s-.44-.98-.98-.98-.98.44-.98.98c.01.54.44.98.98.98z" class="st30"/><path d="M174.65 210.47c.67.06.9.46.9 1.14 0 .89-.46 1.12-1.51 1.12-.89 0-1.37-.01-1.95-.05v-4.31c.52-.04.97-.05 1.75-.05 1.16 0 1.57.24 1.57 1.12 0 .62-.22.93-.77.98v.05zm-.83-.37c.38 0 .49-.09.49-.48 0-.38-.11-.46-.52-.46h-.55v.94h.58zm.02 1.82c.44 0 .55-.1.55-.53 0-.46-.11-.57-.56-.57h-.59v1.09l.6.01zm2.28-2.26c.46-.09 1.24-.16 1.7-.16.84 0 1.3.29 1.3 1.21v1.98h-.9l-.11-.46c-.21.26-.57.54-1.1.54-.57 0-1.04-.31-1.04-.89v-.31c0-.49.37-.79.99-.79h1.03v-.07c-.01-.26-.11-.36-.43-.36-.31 0-.81.01-1.33.04l-.11-.73zm.95 2.06c0 .16.1.25.31.25.18 0 .4-.08.61-.21v-.39h-.65c-.19.01-.26.1-.26.24v.11zm5.87.97h-1.11v-1.25h-.95v1.25h-1.12v-3.1h1.12v1.09h.95v-1.09h1.11v3.1zm3.85 0h-1.11v-1.25h-.95v1.25h-1.12v-3.1h1.12v1.09h.95v-1.09h1.11v3.1zm.69-3.03c.46-.09 1.24-.16 1.7-.16.84 0 1.3.29 1.3 1.21v1.98h-.9l-.11-.46c-.21.26-.57.54-1.1.54-.57 0-1.04-.31-1.04-.89v-.31c0-.49.37-.79.99-.79h1.03v-.07c-.01-.26-.11-.36-.43-.36-.31 0-.81.01-1.33.04l-.11-.73zm.94 2.06c0 .16.1.25.31.25.18 0 .4-.08.61-.21v-.39h-.65c-.19.01-.26.1-.26.24v.11zm3.31-.37c-.52-.11-.67-.46-.67-.84 0-.78.28-1 1.42-1 .85 0 1.18.01 1.57.05v3.13h-1.1v-1.01h-.41c-.19 0-.26.04-.29.18l-.19.83h-1.16l.24-.98c.08-.27.41-.32.59-.34v-.02zm1.22-1.04h-.44c-.29 0-.35.06-.35.29 0 .31.06.39.35.39h.44v-.68zm-13.76 4.77c.49-.08.97-.12 1.44-.12 1.05 0 1.45.24 1.45 1 0 .62-.13 1-.69 1.09v.02c.61.09.79.42.8 1.08.01.91-.41 1.29-1.55 1.29-.52 0-1.06-.05-1.55-.12l.04-.84c.54.03.82.04 1.19.04.55 0 .71-.08.71-.52 0-.37-.1-.51-.56-.5l-.82.01v-.75h.82c.47 0 .51-.17.51-.47 0-.35-.12-.41-.56-.41-.44 0-.88.01-1.2.01l-.03-.81zm4.2 3.21c.3 0 .39.09.39.39v.27c0 .3-.09.39-.39.39h-.27c-.3 0-.39-.09-.39-.39v-.27c0-.3.09-.39.39-.39h.27zm3.28-3.24c.34 0 .54.26.44.57l-1.3 3.73h-1.15l1.04-2.91c.06-.15.11-.31.21-.46h-1.87l-.05-.94h2.68zm-53.07 11.6c.89.12.94.46 1.47 2.23h-1.22c-.44-1.56-.49-1.84-1.09-1.84h-.22c.03.14.05.28.05.4v1.44h-1.17v-4.31h1.17v1.14c0 .17-.02.36-.05.54h.21c.6 0 .69-.39 1.02-1.68h1.19c-.47 1.54-.5 1.93-1.35 2.04v.04zm5.04.68c0 1.19-.45 1.62-1.67 1.62s-1.67-.43-1.67-1.62c0-1.2.45-1.64 1.67-1.64s1.67.44 1.67 1.64zm-2.15 0c0 .68.1.83.49.83.38 0 .48-.15.48-.83 0-.69-.1-.84-.48-.84-.39 0-.49.15-.49.84zm3.7-1.12c.22-.29.69-.51 1.19-.51.79 0 1.1.61 1.1 1.66 0 1.25-.41 1.6-1.18 1.6-.37 0-.72-.08-.99-.28.02.22.02.46.02.67v.68h-1.13v-4.26h.91l.08.44zm.13 1.87c.17.05.32.11.54.11.32 0 .44-.11.44-.82s-.12-.82-.41-.82c-.24 0-.38.08-.58.19v1.34zm4.89.8v-1.39c0-.18.02-.34.04-.55h-.02c-.06.17-.16.38-.25.52l-.97 1.42h-.99v-3.1h1v1.46c0 .16-.02.3-.04.48h.03c.06-.17.14-.31.24-.46l.99-1.49h.99v3.11h-1.02zm5.32.86h-.75l-.08-.86h-2.22l-.08.86h-.75v-1.62h.39c.19-.53.29-1.05.37-1.58.07-.5.34-.75.9-.75h1.7v2.34h.52v1.61zm-1.58-3.24h-.28c-.16 0-.26.08-.27.25-.09.58-.2 1.01-.36 1.37h.91v-1.62zm5.23.83c0 1.19-.45 1.62-1.67 1.62s-1.67-.43-1.67-1.62c0-1.2.45-1.64 1.67-1.64s1.67.44 1.67 1.64zm-2.15 0c0 .68.1.83.49.83.38 0 .48-.15.48-.83 0-.69-.1-.84-.48-.84-.39 0-.49.15-.49.84zm3.69-1.12c.22-.29.69-.51 1.19-.51.79 0 1.1.61 1.1 1.66 0 1.25-.41 1.6-1.18 1.6-.37 0-.72-.08-.99-.28.02.22.02.46.02.67v.68h-1.13v-4.26h.91l.08.44zm.14 1.87c.17.05.32.11.54.11.32 0 .44-.11.44-.82s-.12-.82-.41-.82c-.24 0-.38.08-.58.19v1.34zm-15.31 3.19c.49-.08.97-.12 1.44-.12 1.05 0 1.45.24 1.45 1 0 .62-.13 1-.69 1.09v.02c.61.09.79.42.8 1.08.01.91-.41 1.29-1.55 1.29-.52 0-1.06-.05-1.55-.12l.04-.84c.54.03.82.04 1.19.04.55 0 .71-.08.71-.52 0-.37-.1-.51-.56-.5l-.82.01v-.75h.82c.47 0 .51-.17.51-.47 0-.35-.12-.41-.56-.41-.44 0-.88.01-1.2.01l-.03-.81zm4.2 3.21c.3 0 .39.09.39.39v.27c0 .3-.09.39-.39.39h-.27c-.3 0-.39-.09-.39-.39v-.27c0-.3.09-.39.39-.39h.27zm.95-3.21c.49-.08.97-.12 1.44-.12 1.05 0 1.45.24 1.45 1 0 .62-.13 1-.69 1.09v.02c.61.09.79.42.8 1.08.01.91-.41 1.29-1.55 1.29-.52 0-1.06-.05-1.55-.12l.04-.84c.54.03.82.04 1.19.04.55 0 .71-.08.71-.52 0-.37-.1-.51-.56-.5l-.82.01v-.75h.82c.47 0 .51-.17.51-.47 0-.35-.12-.41-.56-.41-.44 0-.88.01-1.2.01l-.03-.81zm34.59 17.48c-.42.14-.8.19-1.45.19-1.38 0-1.88-.59-1.88-2.23s.51-2.23 1.88-2.23c.64 0 .95.04 1.36.16l-.09.86c-.42-.01-.7-.02-1.27-.02-.51 0-.66.26-.66 1.23s.14 1.23.66 1.23c.61 0 .96-.01 1.36-.05l.09.86zm.24.59 2.45-4.78h.9l-2.45 4.78h-.9zm5.98-.5c-.22.72-.58 1.03-1.06 1.2-.37.15-.84.14-1.28.06l.09-.74c.39.01.67-.02.87-.13.12-.07.24-.21.32-.37h-.21c-.17 0-.31-.11-.36-.27l-.96-2.83h1.2l.47 1.85c.03.17.06.35.09.53h.06c.05-.18.1-.39.13-.53l.46-1.85h1.21l-1.03 3.08zm-7.31 6.69v-2.85c0-.17.01-.34.04-.51l-1 .23-.14-.74 1.09-.42h1.17v4.31h-1.16zm2.6-1.06c.3 0 .39.09.39.39v.27c0 .3-.09.39-.39.39h-.27c-.3 0-.39-.09-.39-.39v-.27c0-.3.09-.39.39-.39h.27zm3.86-2.47h-1.06c-.56 0-.71.14-.74.95.24-.19.5-.25.88-.25.98 0 1.26.39 1.26 1.34 0 1.07-.29 1.58-1.6 1.58-1.29 0-1.67-.44-1.67-2.18 0-1.97.63-2.27 1.88-2.27.22 0 .67 0 1.11.12l-.06.71zm-.76 2.05c0-.46-.09-.57-.51-.57-.21 0-.34.04-.55.16.01.96.06 1.11.56 1.11.47.01.5-.18.5-.7z" class="st1"/><defs><path id="SVGID_41_" d="M22.53 21.41h207.22v411.01H22.53z"/></defs><clipPath id="SVGID_42_"><use xlink:href="#SVGID_41_" style="overflow:visible"/></clipPath><circle cx="177.2" cy="370.36" r="14.58" style="clip-path:url(#SVGID_42_);fill:none;stroke:#39373a" transform="rotate(-13.286 177.153 370.292)"/><path d="M167.31 364.43c1.82-.36 3.1-.41 4.45-.41 2.65 0 4.4.58 4.4 3.01 0 1.35-.31 2.16-1.95 3.87l-3.06 3.01c.58-.14 1.15-.16 1.75-.16h3.59v2.92h-9.26v-1.77c0-.54.11-.96.47-1.35l2.79-2.88c1.41-1.42 2.23-2.54 2.22-3.24 0-.52-.41-.58-1.37-.58-1.28 0-2.18 0-3.89.09l-.14-2.51zm20.18 11.9c-1.21.42-2.32.56-4.2.56-3.98 0-5.44-1.69-5.44-6.43s1.46-6.43 5.44-6.43c1.86 0 2.74.13 3.93.45l-.25 2.49c-1.23-.04-2.02-.05-3.68-.05-1.48 0-1.89.76-1.89 3.55s.41 3.55 1.89 3.55c1.75 0 2.78-.02 3.93-.14l.27 2.45z" class="st1"/></g></switch></svg>