<?xml version="1.0" encoding="UTF-8"?>
<!--?xml version="1.0" encoding="UTF-8"?-->
<svg xmlns="http://www.w3.org/2000/svg" xmlns:inkscape="http://www.inkscape.org/namespaces/inkscape" xmlns:sodipodi="http://sodipodi.sourceforge.net/DTD/sodipodi-0.dtd" xmlns:svg="http://www.w3.org/2000/svg" data-id="svg" viewBox="0 0 1920 1080" version="1.1" sodipodi:docname="1map.svg" inkscape:version="1.3 (0e150ed6c4, 2023-07-21)" id="svg214">
   <defs data-id="defs225" id="defs1" />
   <sodipodi:namedview data-id="namedview225" pagecolor="#ffffff" bordercolor="#000000" borderopacity="0.25" inkscape:showpageshadow="2" inkscape:pageopacity="0.0" inkscape:pagecheckerboard="0" inkscape:deskcolor="#d1d1d1" inkscape:zoom="0.7375" inkscape:cx="397.28814" inkscape:cy="556.61017" inkscape:window-width="2160" inkscape:window-height="1361" inkscape:window-x="-9" inkscape:window-y="-9" inkscape:window-maximized="1" inkscape:current-layer="svg214" id="namedview1" />
   <path d="M683.41,773.88c0-.28-.28-.42-.56-.42s-.42,.14-.42,.42,.14,.56,.42,.56,.56-.28,.56-.56" data-id="1" />
   <path d="M977.25 482.69 1006.31 485.77 1001.84 529.22 972.78 526.29 977.25 482.69" data-id="2" />
   <path d="M972.78 526.29 1001.84 529.22 997.37 572.82 968.31 569.74 972.78 526.29" data-id="3" />
   <path d="M996.11 584.41 1025.17 587.35 1020.7 630.94 991.64 628.01 996.11 584.41" data-id="4" />
   <path d="M991.64 628.01 1020.7 630.94 1016.23 674.53 987.17 671.46 991.64 628.01" data-id="5" />
   <path d="M967.05 581.48 996.11 584.41 991.64 628.01 962.58 624.93 967.05 581.48" data-id="6" />
   <path d="M962.58 624.93 991.64 628.01 987.17 671.46 958.11 668.53 962.58 624.93" data-id="7" />
   <path d="M1046.27 314.19 1047.81 310 1084.42 323.13 1080.22 368.12 1063.18 364.21 1046.27 314.19" data-id="8" />
   <path d="M1084.42 323.13 1104.26 330.12 1112.92 330.96 1109.01 374.55 1080.22 368.12 1084.42 323.13" data-id="9" />
   <path d="M1109.01 374.55 1112.92 330.96 1141.98 333.61 1138.07 377.2 1109.01 374.55" data-id="10" />
   <path d="M1138.07 377.2 1141.98 333.61 1171.04 336.27 1167.13 379.86 1138.07 377.2" data-id="11" />
   <path d="M1167.13 379.86 1171.04 336.27 1200.25 338.92 1196.19 382.51 1167.13 379.86" data-id="12" />
   <path d="M1196.19 382.51 1200.25 338.92 1229.31 341.58 1225.26 385.17 1196.19 382.51" data-id="13" />
   <path d="M1229.31 341.58 1258.37 344.23 1255.02 380.42 1254.32 387.82 1225.26 385.17 1229.31 341.58" data-id="14" />
   <path d="M1260.88 404.03 1304.48 407.11 1302.52 436.17 1258.79 433.23 1260.88 404.03" data-id="15" />
   <path d="M1256.83 462.3 1258.79 433.23 1302.52 436.17 1300.57 465.37 1256.83 462.3" data-id="16" />
   <path d="M1256.83 462.3 1300.57 465.37 1298.61 494.43 1254.88 491.5 1256.83 462.3" data-id="17" />
   <path d="M1254.88 491.5 1298.61 494.43 1296.51 523.49 1252.92 520.56 1254.88 491.5" data-id="18" />
   <path d="M1162.24 391.18 1159.31 434.91 1188.37 437.56 1191.3 393.83 1162.24 391.18" data-id="19" />
   <path d="M1156.23 478.5 1159.31 434.91 1188.37 437.56 1185.3 481.16 1156.23 478.5" data-id="20" />
   <path d="M1220.37 396.49 1249.43 399.14 1246.49 442.87 1217.43 440.22 1220.37 396.49" data-id="21" />
   <path d="M1217.43 440.22 1246.49 442.87 1243.56 486.47 1214.5 483.81 1217.43 440.22" data-id="22" />
   <path d="M1185.3 481.16 1188.37 437.56 1217.43 440.22 1214.5 483.81 1185.3 481.16" data-id="23" />
   <path d="M1102.02 416.05 1101.18 429.6 1099.92 447.21 1058.99 444.55 1062.2 412.83" data-id="24" />
   <path d="M1252.92 520.56 1296.51 523.49 1293.16 573.1 1246.21 558.56 1244.96 520 1252.92 520.56" data-id="25" />
   <path d="M1210.72 495.27 1238.39 497.78 1240.21 556.75 1207.37 546.55 1210.72 495.27" data-id="26" />
   <path d="M1181.66 492.62 1210.72 495.27 1207.37 546.55 1179.57 537.89 1181.66 492.62" data-id="27" />
   <path d="M1149.11 533.27 1157.21 531.04 1179.57 537.89 1181.66 492.62 1152.6 489.96" data-id="28" />
   <path d="M1119.91 541.1 1149.11 533.27 1152.6 489.96 1123.54 487.31" data-id="29" />
   <path d="M1255.02 380.42 1258.37 344.23 1308.53 348.84 1306.43 377.9 1262.84 374.97 1262.42 380.98 1255.02 380.42" data-id="30" />
   <path d="M980.32 951.18 988.57 925.06 1027.97 938.47 1014.28 978.71 980.32 951.18" data-id="31" />
   <path d="M952.24 837.31 995.13 850.72 986.75 877.13 938.69 861.9 949.02 844.85 952.24 837.31" data-id="32" />
   <path d="M1191.3 393.83 1220.37 396.49 1217.43 440.22 1188.37 437.56 1191.3 393.83" data-id="33" />
   <path d="M1094.62 488 1119.35 486.89 1123.54 487.31 1119.91 541.1 1089.17 549.34 1091.96 521.96 1094.62 488" data-id="34" />
   <path d="M1133.18 388.52 1130.24 432.26 1159.31 434.91 1162.24 391.18 1133.18 388.52" data-id="35" />
   <path d="M1127.17 475.85 1130.24 432.26 1159.31 434.91 1156.23 478.5 1127.17 475.85" data-id="36" />
   <path d="M1097.97 476.13 1099.92 447.21 1101.18 429.6 1130.24 432.26 1127.17 475.85 1119.63 475.15 1097.97 476.13" data-id="37" />
   <path d="M1104.12 385.87 1133.18 388.52 1130.24 432.26 1101.18 429.6 1102.02 416.05 1104.12 385.87" data-id="38" />
   <path d="m 1062.6132,412.74492 39.4063,3.1266 2.1005,-30.00152 -34.93,-8.25 -3.5553,2.23627" data-id="39" />
   <path d="M1012.32 433.51 1008.13 474.17 961.6 469.42 962.58 461.04 968.87 453.77 1001.28 437.15 1003.94 432.67 1012.32 433.51" data-id="40" />
   <path d="M1013.02 399.42 1047.11 402.91 1043.62 436.73 1012.32 433.51 1003.94 432.67 1003.52 417.72 1014 409.76 1013.02 399.42" data-id="41" />
   <path d="M1044.73 359.88 1049.9 375.25 1047.11 402.91 1013.02 399.42 1012.32 391.74 1016.51 386.15 1018.61 382.37 1011.06 368.26 1044.73 359.88" data-id="42" />
   <path d="M1024.06 315.03 1030.06 316.43 1044.73 359.88 1011.06 368.26 1010.08 366.59 1007.43 336.82 1024.06 315.03" data-id="43" />
   <path d="M1001.84 529.22 1032.16 532.44 1026.29 575.75 997.37 572.82 1001.84 529.22" data-id="44" />
   <path d="M972.78 526.29 968.31 569.74 944.27 567.37 935.33 549.06 935.33 542.22 944.97 523.21 972.78 526.29" data-id="45" />
   <path d="m 928.56958,621.31875 33.94575,3.61131 L 967.05,581.48 932.12,577.85" data-id="46" />
   <path d="M924.43 665.03 928.35 621.44 962.58 624.93 958.11 668.53 924.43 665.03" data-id="47" />
   <path d="M978.51 711.7 1012.04 715.19 1008.13 752.92 974.59 749.42 978.51 711.7" data-id="48" />
   <path d="M925.55 676.91 971.38 681.66 968.45 710.72 932.54 710.58 925.55 676.91" data-id="49" />
   <path d="M971.38 681.66 1014.97 686.13 1012.04 715.19 978.51 711.7 968.45 710.72 971.38 681.66" data-id="50" />
   <path d="M932.54 710.58 968.45 710.72 978.51 711.7 974.59 749.42 948.05 746.63 943.58 726.09 934.49 720.36" data-id="51" />
   <path d="M1057.03 489.54 1094.62 488 1091.96 521.96 1050.18 518.6 1053.54 492.75 1057.03 489.54" data-id="52" />
   <path d="M1058.99 444.55 1099.92 447.21 1097.97 476.13 1058.57 477.8 1055.77 474.87 1058.99 444.55" data-id="53" />
   <path d="M1008.13 474.17 1012.32 433.51 1043.62 436.73 1039.7 474.31 1036.35 477.11 1008.13 474.17" data-id="54" />
   <path d="M1006.31 485.77 1035.09 488.7 1037.61 492.06 1032.16 532.44 1001.84 529.22 1006.31 485.77" data-id="55" />
   <path d="m 951.54,785.89 52.209,6.45984 -2.0676,26.06448 L 953.22,813.7" data-id="56" />
   <path d="M995.13 850.72 952.24 837.31 956.43 827.39 952.8 815.93 953.22 813.7 1001.28 818.73 999.46 837.03 995.13 850.72" data-id="57" />
   <path d="M1262.84 374.97 1306.43 377.9 1304.48 407.11 1260.88 404.03 1262.42 380.98 1262.84 374.97" data-id="58" />
   <path d="M1007.43 865.25 1048.09 879.09 1038.31 908.01 998.21 894.46 1007.43 865.25" data-id="59" />
   <path d="M998.21 894.46 1038.31 908.01 1027.97 938.47 988.57 925.06 998.21 894.46" data-id="60" />
   <path d="M953.5 758.93 1006.87 764.51 1004.08 792.04 951.54 785.89 950.7 782.68 953.5 758.93" data-id="61" />
   <path d="M938.27 890.96 978.51 903.68 966.91 940.29 930.3 910.66 938.27 890.96" data-id="62" />
   <path d="M 986.68797,877.19695 978.56011,903.65809 938.27,890.96 l -9.09,-2.79 1.82,-13.55 7.69,-12.72" data-id="63"  />
   <path d="m 943.65679,522.69454 9.62761,1.20772 19.36323,2.18958 2.16129,-22.10889 2.08153,-21.29295 -23.15497,-1.30748 -7.90321,5.90779" data-id="64" />
   <path d="M937.01 522.24 944.97 523.21 972.78 526.29" data-id="66" />
   <path d="M932.96 318.1 930.16 267.8 967.19 281.08 956.85 292.39 939.24 311.26 932.96 318.1" data-id="67" />
   <path d="M936.59 383.35 932.96 318.1 939.24 311.26 971.38 352.05 942.74 383.07 936.59 383.35" data-id="68" />
   <path d="M956.85 292.39 967.19 281.08 1014.14 297.84 1011.48 305.25 994.43 327.18 956.85 292.39" data-id="69" />
   <path d="M939.24 311.26 956.85 292.39 994.43 327.18 971.38 352.05 939.24 311.26" data-id="70" />
   <path d="M1015.25 840.24 1058.71 844.72 1058.29 848.91 1048.09 879.09 1007.43 865.25 1015.25 840.24" data-id="71" />
   <path d="M1058.71 844.72 1061.78 815.79 1018.19 811.18 1015.25 840.24" data-id="72" />
   <path d="M1061.78 815.79 1064.71 786.73 1021.26 782.26 1018.19 811.18" data-id="73" />
   <path d="M1021.26 782.26 1024.2 753.2 1067.79 757.67 1064.71 786.73" data-id="74" />
   <path d="M1027.13 724.13 1070.72 728.61 1067.79 757.67 1024.2 753.2 1027.13 724.13" data-id="75" />
   <path d="M1030.2 695.07 1033.14 666.01 1076.73 669.78 1073.66 699.54 1030.2 695.07" data-id="784" />
   <path d="m 1033.2034,665.82271 2.94,-29.06 43.929,4.44797 -2.9005,28.06508 -43.9685,-3.45305 m -18.9661,-17.94135" data-id="78340" />
   <path d="m 1027.0847,724.61932 2.94,-29.06 43.929,4.44797 -2.9005,28.06508 -42.1041,-3.96152" data-id="7834" />
   <path d="M1039.15 607.89 1082.74 611.66 1079.8 640.72 1036.21 636.95 1039.15 607.89" data-id="82" />
   <path d="M1042.22 578.82 1085.81 582.74 1082.74 611.66 1039.15 607.89 1042.22 578.82" data-id="83" />
   <path d="M1050.18 518.6 1091.96 521.96 1089.17 549.34 1088.89 553.11 1045.99 549.9 1050.18 518.6" data-id="84" />
   <path d="M1045.99 549.9 1088.89 553.11 1085.81 582.74 1042.22 578.82 1042.36 576.87 1045.99 549.9" data-id="85" />
   <path d="M786.81 943.08 791.42 901.16 760.82 901.72 754.81 945.45" data-id="86" />
   <path d="M804.97 923.66 848.56 922.26 844.79 952.02 801.62 953.14 804.97 923.66" data-id="874" />
   <path d="m 808.16255,894.37072 44.01372,-1.23051 -3.68525,28.9973 -43.17,1.12 2.16356,-22.44611" data-id="87"  />
   <path d="M801.62 953.14 844.79 952.02 840.74 983.74 797.57 991.42 801.62 953.14" data-id="88" />
   <path d="M825.79 610.54 822.44 639.74 866.17 638.35 870.36 609.28" data-id="91" />
   <path d="M753.97 482.83 783.17 481.86 784.43 525.73 755.23 526.57 753.97 482.83" data-id="92" />
   <path d="M756.63 570.3 755.23 526.57 784.43 525.73 785.83 569.46 756.63 570.3" data-id="93" />
   <path d="M724.77 483.67 753.97 482.83 755.23 526.57 726.17 527.41 724.77 483.67" data-id="94" />
   <path d="M727.43 571.14 726.17 527.41 755.23 526.57 756.63 570.3 727.43 571.14" data-id="95" />
   <path d="M695.71 484.51 724.77 483.67 726.17 527.41 696.97 528.24 695.71 484.51" data-id="96" />
   <path d="M698.22 571.98 696.97 528.24 726.17 527.41 727.43 571.14 698.22 571.98" data-id="97" />
   <path d="M666.51 485.35 695.71 484.51 696.97 528.24 667.76 529.22 666.51 485.35" data-id="98" />
   <path d="M669.16 572.96 667.76 529.22 696.97 528.24 698.22 571.98 669.16 572.96" data-id="99" />
   <path d="M580.3 531.74 551.1 532.72 536.98 540.68 566.6 576.03 581.56 575.61 580.3 531.74" data-id="100" />
   <path d="M780.8 582.74 813.08 581.76 807.77 627.17 782.2 626.47 780.8 582.74" data-id="101" />
   <path d="M601.54 632.2 607.12 631.78 605.87 587.91 574.29 588.88 561.57 612.5" data-id="102" />
   <path d="M364.85 702.48 407.46 712.54 414.17 684.03 371.55 674.11 364.85 702.48" data-id="103" />
   <path d="M371.55 674.11 378.54 644.21 421.01 655.67 414.17 684.03 371.55 674.11" data-id="104" />
   <path d="M378.54 644.21 385.8 613.2 429.4 627.73 421.01 655.67 378.54 644.21" data-id="105" />
   <path d="M451.05 573.1 400.75 549.34 420.04 523.21 464.19 546.69 451.05 573.1" data-id="106" />
   <path d="M464.19 546.69 420.04 523.21 438.76 498.06 478.3 521.82 474.53 528.24 464.19 546.69" data-id="107" />
   <path d="M487.38 430.86 488.64 474.73 450.91 475.85 461.67 431.7 487.38 430.86" data-id="108" />
   <path d="M438.76 498.06 447.56 486.19 488.78 484.93 498.14 491.5 492.83 499.18 478.3 521.82 438.76 498.06" data-id="109" />
   <path d="M783.17 481.86 812.38 481.02 813.63 524.75 784.43 525.73 783.17 481.86" data-id="110" />
   <path d="M637.3 486.33 666.51 485.35 667.76 529.22 638.56 530.06 637.3 486.33" data-id="111" />
   <path d="M639.96 573.79 638.56 530.06 667.76 529.22 669.16 572.96 639.96 573.79" data-id="112" />
   <path d="M608.1 487.17 637.3 486.33 638.56 530.06 609.5 530.9 608.1 487.17" data-id="113" />
   <path d="M610.76 574.63 609.5 530.9 638.56 530.06 639.96 573.79 610.76 574.63" data-id="114" />
   <path d="M578.9 488 608.1 487.17 609.5 530.9 580.3 531.74 578.9 488" data-id="115" />
   <path d="M581.56 575.61 580.3 531.74 609.5 530.9 610.76 574.63 581.56 575.61" data-id="116" />
   <path d="M785.83 569.46 784.43 525.73 813.63 524.75 814.89 568.48 785.83 569.46" data-id="117" />
   <path d="M829.28 511.2 828.3 480.6 874.97 479.2 871.2 509.94 829.28 511.2" data-id="118" />
   <path d="M830.26 543.33 831.1 573.93 875.11 572.54 876.09 553.67 874.41 541.94" data-id="119" />
   <path d="M829.28 511.2 830.26 543.33 874.41 541.94 872.18 527.41 870.92 511.76 871.2 509.94 829.28 511.2" data-id="120" />
   <path d="M549.7 488.84 578.9 488 580.3 531.74 551.1 532.72 549.7 488.84" data-id="121" />
   <path d="M507.92 505.47 519.1 489.82 549.7 488.84 551.1 532.72 536.98 540.68 507.92 505.47" data-id="122" />
   <path d="M825.79 610.54 829.28 581.2 874.55 579.94 870.36 609.28" data-id="123" />
   <path d="M751.6 583.57 780.8 582.74 782.2 626.47 774.79 626.75 752.99 627.31 751.6 583.57" data-id="124" />
   <path d="M745.73 627.59 752.99 627.31 774.79 626.75 776.19 670.48 746.99 671.32 745.73 627.59" data-id="125" />
   <path d="M716.53 628.43 723.79 628.29 745.73 627.59 746.99 671.32 717.78 672.16 716.53 628.43" data-id="126" />
   <path d="M687.32 629.26 694.59 629.12 716.53 628.43 717.78 672.16 688.58 673.14 687.32 629.26" data-id="127" />
   <path d="M659.52 673.97 658.12 630.24 665.39 629.96 687.32 629.26 688.58 673.14 659.52 673.97" data-id="128" />
   <path d="M664.13 586.23 693.33 585.39 694.59 629.12 687.32 629.26 665.39 629.96 664.13 586.23" data-id="129" />
   <path d="M693.33 585.39 722.53 584.41 723.79 628.29 716.53 628.43 694.59 629.12 693.33 585.39" data-id="130" />
   <path d="M722.53 584.41 751.6 583.57 752.99 627.31 745.73 627.59 723.79 628.29 722.53 584.41" data-id="131" />
   <path d="M485.43 541.38 507.92 505.47 536.98 540.68 523.43 563.04 485.43 541.38" data-id="132" />
   <path d="M566.6 576.03 536.98 540.68 523.43 563.04 517.84 573.23 556.41 593.91 566.6 576.03" data-id="133" />
   <path d="M605.87 587.91 634.93 587.07 636.33 630.8 628.92 631.08 607.12 631.78 605.87 587.91" data-id="134" />
   <path d="M630.32 674.81 628.92 631.08 636.33 630.8 658.12 630.24 659.52 673.97 630.32 674.81" data-id="135" />
   <path d="M634.93 587.07 664.13 586.23 665.39 629.96 658.12 630.24 636.33 630.8 634.93 587.07" data-id="136" />
   <path d="M561.57 612.5 601.54 632.2 588.68 657.21 549.28 640.16 555.43 625.49 561.57 612.5" data-id="137" />
   <path d="M588.68 657.21 601.54 632.2 607.12 631.78 628.92 631.08 630.32 674.81 627.1 681.38 588.68 657.21" data-id="138" />
   <path d="M782.2 626.47 807.77 627.17 802.74 669.64 776.19 670.48 774.79 626.75 782.2 626.47" data-id="139" />
   <path d="M818.66 670.62 822.44 639.74 866.17 638.35 865.61 641.56 860.72 659.16 857.51 667.83" data-id="140" />
   <path d="M857.51 667.83 856.95 669.5 818.66 670.62" data-id="141" />
   <path d="M808.18 894.32 809.58 865.11 854.43 863.72 853.59 883.98 852.34 892.92 808.18 894.32" data-id="142" />
   <path d="M809.58 865.11 810.98 835.77 855.83 834.52 854.43 863.72 809.58 865.11" data-id="143" />
   <path d="M810.98 835.77 812.38 806.57 857.09 805.31 855.83 834.52 810.98 835.77" data-id="144" />
   <path d="M812.38 806.57 813.77 777.37 858.48 775.97 857.09 805.31 812.38 806.57" data-id="145" />
   <path d="M818.38 677.89 858.9 676.77 861 689.48 861.56 706.81 861.42 710.16 816.85 711.56 818.38 677.89" data-id="146" />
   <path d="M816.85 711.56 861.42 710.16 860.16 739.5 815.45 740.76 816.85 711.56" data-id="147" />
   <path d="M815.45 740.76 860.16 739.5 858.76 768.71 814.05 770.1 815.45 740.76" data-id="148" />
   <path d="M767.94 683.89 802.04 682.78 800.08 726.37 769.2 727.63 767.94 683.89" data-id="149" />
   <path d="M769.2 727.63 800.08 726.37 797.99 770.52 770.6 771.36 769.2 727.63" data-id="150" />
   <path d="M767.94 683.89 769.2 727.63 740.14 728.47 737.21 728.61 735.81 684.73 767.94 683.89" data-id="151" />
   <path d="m 740.22475,728.4667 28.96332,-0.6672 1.12786,43.45499 -29.01469,0.75196 -0.87734,-29.8903 -0.19915,-6.78504" data-id="152"   />
   <path d="M700.88 685.85 735.81 684.73 737.21 728.61 710.94 729.3 702.14 729.58 700.88 685.85" data-id="153" />
   <path d="M665.81 686.83 700.88 685.85 702.14 729.58 681.74 730.14 667.2 730.7 665.81 686.83" data-id="154" />
   <path d="M638.84 687.67 665.81 686.83 667.2 730.7 652.53 731.12 626.27 731.82 632.41 707.09 638.84 687.67" data-id="155" />
   <path d="m 712.2,772.8003 -1.26,-43.74 26.27,-0.69 2.93,-0.14 1.26,43.73 -29.2,0.84" data-id="156" />
   <path d="M683.41,773.88c0-.28-.28-.42-.56-.42s-.42,.14-.42,.42,.14,.56,.42,.56,.56-.28,.56-.56Z" data-id="157" />
   <path d="m 683.08415,774.06355 -1.25,-43.88 20.4,-0.56 8.8,-0.28 1.26,43.74 -29.21,0.98" data-id="158" />
   <path d="M653.93 774.85 652.53 731.12 667.2 730.7 681.74 730.14 682.99 774.02 653.93 774.85" data-id="159" />
   <path d="M529.16 704.43 565.91 720.08 559.2 750.68 557.66 760.88 540.76 746.91 523.57 734.47 526.09 719.38 529.16 704.43" data-id="160" />
   <path d="M588.68 657.21 627.1 681.38 622.77 693.82 619.7 703.6 575.27 689.76 582.25 671.32 588.68 657.21" data-id="161" />
   <path d="M549.28 640.16 588.68 657.21 582.25 671.32 575.27 689.76 538.24 670.76 543.97 653.16 549.28 640.16" data-id="162" />
   <path d="M764.31 784.63 797.29 783.66 795.05 833.4 765.85 834.24 764.31 784.63" data-id="163" />
   <path d="M735.25 785.61 764.31 784.63 765.85 834.24 760.4 834.38 736.65 835.07 735.25 785.61" data-id="164" />
   <path d="M706.05 786.45 735.25 785.61 736.65 835.07 728.4 835.35 707.44 836.05 706.05 786.45" data-id="165" />
   <path d="M676.85 787.29 706.05 786.45 707.44 836.05 693.33 836.47 678.38 836.89 676.85 787.29" data-id="166" />
   <path d="M647.64 788.13 676.85 787.29 678.38 836.89 649.18 837.73 647.64 788.13" data-id="167" />
   <path d="M761.94 885.51 760.4 834.38 765.85 834.24 795.05 833.4 792.68 884.54 761.94 885.51" data-id="168" />
   <path d="M729.94 886.49 728.4 835.35 736.65 835.07 760.4 834.38 761.94 885.51 729.94 886.49" data-id="169" />
   <path d="M694.73 880.48 693.33 836.47 707.44 836.05 728.4 835.35 729.94 886.49 712.75 884.82 694.73 880.48" data-id="170" />
   <path d="M638.7 845.55 649.18 837.73 678.38 836.89 693.33 836.47 694.73 880.48 677.26 874.06 665.11 867.21 653.79 859.25 645.13 851.98 638.7 845.55" data-id="171" />
   <path d="M723.37 947.69 754.81 945.45 748.8 989.61 716.11 995.34 723.37 947.69" data-id="172" />
   <path d="M730.08 902.42 760.82 901.72 754.81 945.45 723.37 947.69 730.08 902.42" data-id="173" />
   <path d="M748.8 989.61 754.81 945.45 786.81 943.08 782.2 983.74 748.8 989.61" data-id="174" />
   <path d="M723.37 947.69 716.11 995.34 680.48 980.53 689.28 945.59 723.37 947.69" data-id="175" />
   <path d="M565.91 720.08 613.13 730.7 610.76 743.7 608.52 758.23 559.2 750.68 565.91 720.08" data-id="176" />
   <path d="M626.27 731.82 652.53 731.12 653.93 774.85 619.7 775.83 619.7 771.64 623.75 747.05 626.27 731.82" data-id="177" />
   <path d="M559.2 750.68 608.52 758.23 601.95 798.33 594.69 797.07 582.39 783.8 569.68 771.22 557.66 760.88 559.2 750.68" data-id="178" />
   <path d="M616.77 789.11 647.64 788.13 649.18 837.73 638.7 845.55 626.69 831.58 612.43 815.09 616.77 789.11" data-id="179" />
   <path d="M837.39 420.38 884.05 418.98 884.19 424.85 848.01 463.97 838.64 464.25" data-id="180" />
   <path d="M809.58 465.09 808.18 421.36 837.39 420.38 838.64 464.25 809.58 465.09" data-id="181" />
   <path d="M780.38 465.93 809.58 465.09 808.18 421.36 778.98 422.2" data-id="182" />
   <path d="M751.18 466.77 780.38 465.93 778.98 422.2 749.92 423.03" data-id="183" />
   <path d="M721.98 467.74 751.18 466.77 749.92 423.03 720.72 423.87" data-id="184" />
   <path d="M692.77 468.58 721.98 467.74 720.72 423.87 707.44 424.29 691.52 424.85" data-id="185" />
   <path d="M662.31 425.69 691.52 424.85 692.77 468.58 663.71 469.42" data-id="186" />
   <path d="M633.25 426.53 662.31 425.69 663.71 469.42 634.51 470.26" data-id="187" />
   <path d="M605.31 471.24 634.51 470.26 633.25 426.53 604.05 427.36" data-id="188" />
   <path d="M576.11 472.08 605.31 471.24 604.05 427.36 574.85 428.34" data-id="189" />
   <path d="M517.84 473.75 547.04 472.91 545.65 429.18 516.44 430.02" data-id="190" />
   <path d="M547.04 472.91 576.11 472.08 574.85 428.34 545.65 429.18" data-id="191" />
   <path d="M488.64 474.73 517.84 473.75 516.44 430.02 487.38 430.86" data-id="192" />
   <path d="M393.21 581.76 400.75 549.34 451.05 573.1 439.46 600.06 393.21 581.76" data-id="193" />
   <path d="M385.8 613.2 393.21 581.76 439.46 600.06 429.4 627.73 385.8 613.2" data-id="194" />
   <path d="M447.28 625.07 488.64 639.6 484.45 652.46 480.12 666.43 438.06 654.41 447.28 625.07" data-id="195" />
   <path d="M458.32 596.43 498.7 613.47 489.62 636.67 488.64 639.6 447.28 625.07 458.32 596.43" data-id="196" />
   <path d="M471.03 568.48 510.3 587.91 504.01 601.18 498.7 613.47 458.32 596.43 471.03 568.48" data-id="197" />
   <path d="M485.43 541.38 523.43 563.04 517.84 573.23 510.3 587.91 471.03 568.48 485.43 541.38" data-id="198" />
   <path d="M543.97 619.2 504.01 601.18 498.7 613.47 489.62 636.67 530.84 651.48 543.97 619.2" data-id="199" />
   <path d="M556.41 593.91 517.84 573.23 510.3 587.91 504.01 601.18 543.97 619.2 556.41 593.91" data-id="200" />
   <path d="M530.84 651.48 489.62 636.67 488.64 639.6 484.45 652.46 480.12 666.43 478.16 673.42 520.5 684.73 530.84 651.48" data-id="201" />
   <path d="M438.06 654.41 430.24 685.43 469.78 702.48 478.16 673.42 480.12 666.43 438.06 654.41" data-id="202" />
   <path d="M575.27 689.76 565.91 720.08 529.16 704.43 538.24 670.76 575.27 689.76" data-id="203" />
   <path d="M575.27 689.76 619.7 703.6 613.13 730.7 565.91 720.08 575.27 689.76" data-id="204" />
   <path d="M478.16 673.42 520.5 684.73 517.56 694.79 512.53 722.32 502.61 720.64 469.78 702.48 478.16 673.42" data-id="205" />
   <path d="M566.47 930.23 637.3 866.65 648.06 875.03 659.94 882.72 593.85 950.48 577.78 936.65 566.47 930.23" data-id="206" />
   <path d="M689.28 945.59 701.16 898.51 730.08 902.42 723.37 947.69 689.28 945.59" data-id="207" />
   <path d="M 651.16814,934.32423 688.64702,946.13852 701.16,898.51 682.02,893.34" data-id="208" />
   <path d="m 626.71572,966.94554 53.0592,13.97156 9.39692,-34.20547 -38.07608,-12.36092" data-id="20834" />
   <path d="M593.85 950.48 659.94 882.72 668.88 887.89 682.02 893.34 651.7 933.3 626.69 966.13 597.76 954.12 593.85 950.48" data-id="213" />
   <path d="M546.21 908.15 617.46 845.55 627.24 857.01 637.3 866.65 566.47 930.23 546.21 908.15" data-id="214" />
   <path d="M 617.46,845.55 545.6278,908.20489 528.64542,889.87017 597.62,822.78" data-id="216" />
   <path d="M576.94 801.54 510.58 867.07 519.1 878.39 528.74 889.01 597.62 822.78 588.26 812.86 576.94 801.54" data-id="217" />
   <path d="m 495.5209,849.7809 14.8194,17.2891 66.36,-65.53 -9.22,-9.5 -11.95061,-10.78121" data-id="219" />
   <path d="M532.09 760.6 544.67 770.8 555.29 780.3 495.35 848.91 479.14 831.3 532.09 760.6" data-id="220" />
   <path d="M507.5 742.86 520.78 752.22 532.09 760.6 479.14 831.3 471.87 823.48 460.97 815.51 507.5 742.86" data-id="221" />
   <path d="M481.51 726.93 495.91 735.45 507.5 742.86 460.97 815.51 442.95 798.33 481.51 726.93" data-id="222" />
   <path d="M454.27 712.96 469.5 720.64 481.51 726.93 442.95 798.33 424.51 779.88 454.27 712.96" data-id="223" />
   <path d="M407.46 712.54 393.63 757.81 358.7 728.61 364.85 702.48" data-id="224" />
   <path d="M421.43 704.01 426.6 701.22 442.11 707.65 454.27 712.96 424.51 779.88 403.97 762.7 418.64 715.89 421.43 704.01" data-id="225" />
</svg>