<svg xmlns="http://www.w3.org/2000/svg" xmlns:xlink="http://www.w3.org/1999/xlink" xml:space="preserve" id="Слой_1" x="0" y="0" style="enable-background:new 0 0 240 256" version="1.1" viewBox="0 0 240 256"><style>.st1{fill:#39373a}.st2{fill:none;stroke:#39373a}.st11{stroke-width:.6}.st11,.st18,.st23{fill:none;stroke:#39373a}.st18{stroke-width:.25}.st23{clip-path:url(#SVGID_34_);stroke-width:.6}.st24,.st25{clip-path:url(#SVGID_36_);fill:#39373a}.st25{fill:none;stroke:#39373a;stroke-width:.25}.st26,.st27{clip-path:url(#SVGID_38_);fill:#39373a}.st27{fill:none;stroke:#39373a;stroke-width:.25}</style><switch><g><path d="M22.3 25.1h197.2v152.2H22.3z" style="fill:#f6ccce"/><path d="M114.4 189.6h28.9v-2.3h-2.9v-9.4h-26z" class="st1"/><path d="M114.4 189.6h28.9v-2.3h-2.9v-9.4h-26z" class="st2"/><path d="M19.8 189.6h29v-2.3h-2.9v-9.4H19.8z" class="st1"/><path d="M19.8 189.6h29v-2.3h-2.9v-9.4H19.8z" class="st2"/><path d="M119.5 189.6h-29v-2.3h3v-9.4h26z" class="st1"/><path d="M119.5 189.6h-29v-2.3h3v-9.4h26z" class="st2"/><path d="M221.9 189.6h-23.4v-2.3h3v-9.4h20.4z" class="st1"/><path d="M221.9 189.6h-23.4v-2.3h3v-9.4h20.4z" class="st2"/><path d="M218.4 19.9h4.8v202.5h-4.8z" class="st1"/><defs><path id="SVGID_1_" d="M16.6 16.5h207.1v219.6H16.6z"/></defs><clipPath id="SVGID_2_"><use xlink:href="#SVGID_1_" style="overflow:visible"/></clipPath><path d="M218.4 19.9h4.8v202.5h-4.8z" style="clip-path:url(#SVGID_2_);fill:none;stroke:#39373a"/><path d="M117.8 210h4.8v25.6h-4.8z" class="st1"/><defs><path id="SVGID_3_" d="M16.6 16.5h207.1v219.6H16.6z"/></defs><clipPath id="SVGID_4_"><use xlink:href="#SVGID_3_" style="overflow:visible"/></clipPath><path d="M117.8 210h4.8v25.6h-4.8z" style="clip-path:url(#SVGID_4_);fill:none;stroke:#39373a"/><path d="M117.8 65.9h4.8v117.3h-4.8z" class="st1"/><path d="M117.8 65.9h4.8v117.3h-4.8z" class="st2"/><path d="M17.1 21h4.8v213.7h-4.8z" class="st1"/><defs><path id="SVGID_5_" d="M16.6 16.5h207.1v219.6H16.6z"/></defs><clipPath id="SVGID_6_"><use xlink:href="#SVGID_5_" style="overflow:visible"/></clipPath><path d="M17.1 21h4.8v213.7h-4.8z" style="clip-path:url(#SVGID_6_);fill:none;stroke:#39373a"/><path d="M70 17h7.5v4.8H70z" class="st1"/><defs><path id="SVGID_7_" d="M16.6 16.5h207.1v219.6H16.6z"/></defs><clipPath id="SVGID_8_"><use xlink:href="#SVGID_7_" style="overflow:visible"/></clipPath><path d="M70 17h7.5v4.8H70z" style="clip-path:url(#SVGID_8_);fill:none;stroke:#39373a"/><path d="M106.7 17h116.5v4.8H106.7z" class="st1"/><defs><path id="SVGID_9_" d="M16.6 16.5h207.1v219.6H16.6z"/></defs><clipPath id="SVGID_10_"><use xlink:href="#SVGID_9_" style="overflow:visible"/></clipPath><path d="M106.7 17h116.5v4.8H106.7z" style="clip-path:url(#SVGID_10_);fill:none;stroke:#39373a"/><path d="M17.1 17h61.4v7.6H17.1z" class="st1"/><defs><path id="SVGID_11_" d="M16.6 16.5h207.1v219.6H16.6z"/></defs><clipPath id="SVGID_12_"><use xlink:href="#SVGID_11_" style="overflow:visible"/></clipPath><path d="M17.1 17h61.4v7.6H17.1z" style="clip-path:url(#SVGID_12_);fill:none;stroke:#39373a"/><path d="M18.5 107.5h55.1v1.8H18.5z" class="st1"/><defs><path id="SVGID_13_" d="M16.6 16.5h207.1v219.6H16.6z"/></defs><clipPath id="SVGID_14_"><use xlink:href="#SVGID_13_" style="overflow:visible"/></clipPath><path d="M18.5 107.5h55.1v1.8H18.5z" style="clip-path:url(#SVGID_14_);fill:none;stroke:#39373a"/><path d="M117.8 19.9h4.8v22h-4.8z" class="st1"/><path d="M117.8 19.9h4.8v22h-4.8z" class="st2"/><path d="M106.7 19.9h113.6v4.8H106.7z" class="st1"/><path d="M106.7 19.9h113.6v4.8H106.7z" class="st2"/><path d="M19.6 49.3h54.1v2.5H19.6z" class="st1"/><path d="M19.6 49.3h54.1v2.5H19.6z" class="st2"/><path d="M71.1 91.3h2.5v18.1h-2.5z" class="st1"/><path d="M71.1 91.3h2.5v18.1h-2.5z" class="st2"/><path d="M71.1 101.4h11.7v2.5H71.1z" class="st1"/><path d="M71.1 101.4h11.7v2.5H71.1z" class="st2"/><path d="M106.7 101.4h11.7v2.5h-11.7z" class="st1"/><path d="M106.7 101.4h11.7v2.5h-11.7z" class="st2"/><path d="M71.1 49.3h2.5v23.6h-2.5z" class="st1"/><path d="M71.1 49.3h2.5v23.6h-2.5z" class="st2"/><defs><path id="SVGID_15_" d="M16.6 16.5h207.1v219.6H16.6z"/></defs><clipPath id="SVGID_16_"><use xlink:href="#SVGID_15_" style="overflow:visible"/></clipPath><path d="m121.216 232.134 99.46-14.423.387 2.672-99.46 14.423zM19.3 232.2h100.5v2.7H19.3z" style="stroke-width:.6;clip-path:url(#SVGID_16_);fill:none;stroke:#39373a"/><path d="m102.6 36.5-.5.9-26-15.6.5-.9z" class="st11"/><defs><path id="SVGID_17_" d="M16.6 16.5h207.1v219.6H16.6z"/></defs><clipPath id="SVGID_18_"><use xlink:href="#SVGID_17_" style="overflow:visible"/></clipPath><path d="M102.7 36.5s1.4-1.8 2.6-6.4c1.2-4.6 1.4-7.1 1.4-7.1" style="clip-path:url(#SVGID_18_);fill:none;stroke:#39373a;stroke-width:.4"/><path d="m133.2 61.7.8-.5-15.6-26-.8.4z" class="st11"/><defs><path id="SVGID_19_" d="M16.6 16.5h207.1v219.6H16.6z"/></defs><clipPath id="SVGID_20_"><use xlink:href="#SVGID_19_" style="overflow:visible"/></clipPath><path d="M133.1 61.7s-1.8 1.4-6.4 2.6c-4.6 1.2-7.1 1.4-7.1 1.4" style="clip-path:url(#SVGID_20_);fill:none;stroke:#39373a;stroke-width:.4"/><path d="m139.309 186.98 18.82-11.198.46.773-18.82 11.198zm20.091.12h47.4v2.7h-47.4zm2.6-9.4h43.8v9.4H162z" class="st11"/><defs><path id="SVGID_21_" d="M16.6 16.5h207.1v219.6H16.6z"/></defs><clipPath id="SVGID_22_"><use xlink:href="#SVGID_21_" style="overflow:visible"/></clipPath><path d="M158.7 176.7s1.1 1.5 1.6 5 .4 5.4.4 5.4" style="clip-path:url(#SVGID_22_);fill:none;stroke:#39373a;stroke-width:.4"/><path d="M45.398 186.939 64.22 175.74l.46.774-18.82 11.197zm20.102.161h47.4v2.7H65.5zm2.5-9.4h43.8v9.4H68z" class="st11"/><defs><path id="SVGID_23_" d="M16.6 16.5h207.1v219.6H16.6z"/></defs><clipPath id="SVGID_24_"><use xlink:href="#SVGID_23_" style="overflow:visible"/></clipPath><path d="M64.7 176.7s1.1 1.5 1.6 5 .4 5.4.4 5.4" style="clip-path:url(#SVGID_24_);fill:none;stroke:#39373a;stroke-width:.4"/><path d="m86.163 114 20.712-12.323.46.774-20.711 12.322z" class="st11"/><defs><path id="SVGID_25_" d="M16.6 16.5h207.1v219.6H16.6z"/></defs><clipPath id="SVGID_26_"><use xlink:href="#SVGID_25_" style="overflow:visible"/></clipPath><path d="M86 113.9s-1.4-1.6-2.2-5c-.8-3.4-.7-5.3-.7-5.3" style="clip-path:url(#SVGID_26_);fill:none;stroke:#39373a;stroke-width:.4"/><path d="m71.932 93.321 10.277-17.274.773.46-10.277 17.274z" class="st11"/><defs><path id="SVGID_27_" d="M16.6 16.5h207.1v219.6H16.6z"/></defs><clipPath id="SVGID_28_"><use xlink:href="#SVGID_27_" style="overflow:visible"/></clipPath><path d="M82.1 76s-1.6-1.4-5-2.2c-3.4-.8-5.3-.7-5.3-.7" style="clip-path:url(#SVGID_28_);fill:none;stroke:#39373a;stroke-width:.4"/><path d="M110 76.3v25.8m1-24.3h6.3v15.9H111zm0 17.7h6.3v4.1H111zm-1.3-19.2h7.9M29.2 24.8v25.7m-7.4-24.2h6.3v15.9h-6.3zm0 17.7h6.3v4.1h-6.3zm7.7-19.2h-8" class="st11"/><path d="M21.9 126.6h16.2v-16.2H21.9v16.2zm-.4-16.6h17v17h-17v-17z" class="st1"/><path d="M21.9 126.6h16.2v-16.2H21.9v16.2zm-.4-16.6h17v17h-17v-17z" class="st18"/><defs><path id="SVGID_29_" d="M16.6 16.5h207.1v219.6H16.6z"/></defs><clipPath id="SVGID_30_"><use xlink:href="#SVGID_29_" style="overflow:visible"/></clipPath><path d="M36.6 112.8c0-.4-.3-.7-.7-.7h-8.5c-.4 0-.7.3-.7.7v11.4c0 .4.3.7.7.7h8.5c.4 0 .7-.3.7-.7v-11.4zm-10.3 11.3v-11.4c0-.6.5-1.1 1.1-1.1h8.5c.6 0 1.1.5 1.1 1.1v11.4c0 .6-.5 1.1-1.1 1.1h-8.5c-.6 0-1.1-.5-1.1-1.1" style="clip-path:url(#SVGID_30_);fill:#39373a"/><path d="M36.6 112.8c0-.4-.3-.7-.7-.7h-8.5c-.4 0-.7.3-.7.7v11.4c0 .4.3.7.7.7h8.5c.4 0 .7-.3.7-.7v-11.4zm-10.3 11.3v-11.4c0-.6.5-1.1 1.1-1.1h8.5c.6 0 1.1.5 1.1 1.1v11.4c0 .6-.5 1.1-1.1 1.1h-8.5c-.6 0-1.1-.5-1.1-1.1z" style="clip-path:url(#SVGID_30_);fill:none;stroke:#39373a;stroke-width:.25"/><path d="M27.9 123.6h7.5v-10.3h-7.5v10.3zm-.4-10.7h8.2v11h-8.2v-11z" class="st1"/><path d="M27.9 123.6h7.5v-10.3h-7.5v10.3zm-.4-10.7h8.2v11h-8.2v-11z" class="st18"/><defs><path id="SVGID_31_" d="M16.6 16.5h207.1v219.6H16.6z"/></defs><clipPath id="SVGID_32_"><use xlink:href="#SVGID_31_" style="overflow:visible"/></clipPath><path d="M33.1 118.5c0-.5-.4-.9-.9-.9s-.9.4-.9.9.4.9.9.9.9-.4.9-.9m-2.3 0c0-.7.6-1.3 1.3-1.3.7 0 1.3.6 1.3 1.3 0 .7-.6 1.3-1.3 1.3-.7 0-1.3-.6-1.3-1.3" style="clip-path:url(#SVGID_32_);fill:#39373a"/><path d="M33.1 118.5c0-.5-.4-.9-.9-.9s-.9.4-.9.9.4.9.9.9.9-.4.9-.9zm-2.3 0c0-.7.6-1.3 1.3-1.3.7 0 1.3.6 1.3 1.3 0 .7-.6 1.3-1.3 1.3-.7 0-1.3-.6-1.3-1.3z" style="clip-path:url(#SVGID_32_);fill:none;stroke:#39373a;stroke-width:.25"/><path d="M58.2 91.1h13.9v18.5H58.2z" class="st11"/><defs><path id="SVGID_33_" d="M16.6 16.5h207.1v219.6H16.6z"/></defs><clipPath id="SVGID_34_"><use xlink:href="#SVGID_33_" style="overflow:visible"/></clipPath><path d="M69.4 58.3s0-5.7-5.7-5.7H29.8s-5.7 0-5.7 5.7v7.6s0 5.7 5.7 5.7h33.9s5.7 0 5.7-5.7v-7.6z" class="st23"/><path d="M66.2 60s0-5.7-5.7-5.7H33s-5.7 0-5.7 5.7v4.1s0 5.7 5.7 5.7h27.6s5.7 0 5.7-5.7V60z" class="st23"/><path d="M62.4 58.9s0-2.8-2.8-2.8H31.9s-2.8 0-2.8 2.8v6.3s0 2.8 2.8 2.8h27.7s2.8 0 2.8-2.8v-6.3z" class="st23"/><path d="M32.4 62.1c0 .5.4.8.8.8.5 0 .8-.4.8-.8 0-.5-.4-.8-.8-.8-.4-.1-.8.3-.8.8z" class="st23"/><path d="M71 72.6H22.3" class="st11"/><defs><path id="SVGID_35_" d="M16.6 16.5h207.1v219.6H16.6z"/></defs><clipPath id="SVGID_36_"><use xlink:href="#SVGID_35_" style="overflow:visible"/></clipPath><path d="M34.7 83.1c0 3-2.4 5.4-5.4 5.4h-5.8c-.5 0-.8-.4-.8-.8V75.5c0-.5.4-.8.8-.8h5.8c3 0 5.4 2.4 5.4 5.4v3zm-12.3-7.6v12.3c0 .6.5 1.1 1.1 1.1h5.8c3.2 0 5.7-2.6 5.7-5.7v-3.1c0-3.2-2.6-5.7-5.7-5.7h-5.8c-.6-.1-1.1.4-1.1 1.1" class="st24"/><path d="M34.7 83.1c0 3-2.4 5.4-5.4 5.4h-5.8c-.5 0-.8-.4-.8-.8V75.5c0-.5.4-.8.8-.8h5.8c3 0 5.4 2.4 5.4 5.4v3zm-12.3-7.6v12.3c0 .6.5 1.1 1.1 1.1h5.8c3.2 0 5.7-2.6 5.7-5.7v-3.1c0-3.2-2.6-5.7-5.7-5.7h-5.8c-.6-.1-1.1.4-1.1 1.1z" class="st25"/><path d="M33.3 83.1c0 2.2-1.8 4.1-4.1 4.1h-3.4c-.4 0-.7-.3-.7-.7v-9.8c0-.4.3-.7.7-.7h3.4c2.2 0 4.1 1.8 4.1 4.1v3zm-8.4-6.4v9.8c0 .6.5 1 1 1h3.4c2.4 0 4.4-2 4.4-4.4V80c0-2.4-2-4.4-4.4-4.4h-3.4c-.5.1-1 .5-1 1.1" class="st24"/><path d="M33.3 83.1c0 2.2-1.8 4.1-4.1 4.1h-3.4c-.4 0-.7-.3-.7-.7v-9.8c0-.4.3-.7.7-.7h3.4c2.2 0 4.1 1.8 4.1 4.1v3zm-8.4-6.4v9.8c0 .6.5 1 1 1h3.4c2.4 0 4.4-2 4.4-4.4V80c0-2.4-2-4.4-4.4-4.4h-3.4c-.5.1-1 .5-1 1.1z" class="st25"/><path d="M30.5 81.6c0 .4-.3.7-.7.7-.4 0-.7-.3-.7-.7 0-.4.3-.7.7-.7.4 0 .7.3.7.7m-1.7 0c0 .5.4 1 1 1 .5 0 1-.4 1-1 0-.5-.4-1-1-1-.5 0-1 .4-1 1" class="st24"/><path d="M30.5 81.6c0 .4-.3.7-.7.7-.4 0-.7-.3-.7-.7 0-.4.3-.7.7-.7.4 0 .7.3.7.7zm-1.7 0c0 .5.4 1 1 1 .5 0 1-.4 1-1 0-.5-.4-1-1-1-.5 0-1 .4-1 1z" class="st25"/><path d="M41.4 95.7c0 2.8-2.3 5.1-5.1 5.1h-7.4c-.5 0-.9-.4-.9-.9v-8.5c0-.5.4-.9.9-.9h7.4c2.8.1 5.1 2.4 5.1 5.2m-13.8-4.3v8.5c0 .7.6 1.2 1.2 1.2h7.4c3 0 5.5-2.5 5.5-5.5s-2.5-5.5-5.5-5.5h-7.4c-.6.1-1.2.7-1.2 1.3" class="st24"/><path d="M41.4 95.7c0 2.8-2.3 5.1-5.1 5.1h-7.4c-.5 0-.9-.4-.9-.9v-8.5c0-.5.4-.9.9-.9h7.4c2.8.1 5.1 2.4 5.1 5.2zm-13.8-4.3v8.5c0 .7.6 1.2 1.2 1.2h7.4c3 0 5.5-2.5 5.5-5.5s-2.5-5.5-5.5-5.5h-7.4c-.6.1-1.2.7-1.2 1.3z" class="st25"/><path d="M30.4 99.3V92s0-.1.1-.1h5.6c2.1 0 3.8 1.7 3.8 3.8 0 2.1-1.7 3.8-3.8 3.8l-5.7-.2c.1.1 0 .1 0 0z" class="st25"/><path d="M30.6 99.3v-7.2h5.5c2 0 3.6 1.6 3.6 3.6s-1.6 3.6-3.6 3.6h-5.5zm-.3-7.3v7.3c0 .1.1.3.3.3h5.6c2.2 0 3.9-1.8 3.9-3.9 0-2.2-1.8-3.9-3.9-3.9h-5.6c-.2-.1-.3.1-.3.2" class="st24"/><path d="M30.6 99.3v-7.2h5.5c2 0 3.6 1.6 3.6 3.6s-1.6 3.6-3.6 3.6h-5.5zm-.3-7.3v7.3c0 .1.1.3.3.3h5.6c2.2 0 3.9-1.8 3.9-3.9 0-2.2-1.8-3.9-3.9-3.9h-5.6c-.2-.1-.3.1-.3.2z" class="st25"/><path d="M36.1 95.7c0 .5-.4 1-1 1-.5 0-1-.4-1-1 0-.5.4-1 1-1s1 .4 1 1m-2.3 0c0 .7.6 1.3 1.3 1.3.7 0 1.3-.6 1.3-1.3 0-.7-.6-1.3-1.3-1.3-.7 0-1.3.5-1.3 1.3" class="st24"/><path d="M36.1 95.7c0 .5-.4 1-1 1-.5 0-1-.4-1-1 0-.5.4-1 1-1s1 .4 1 1zm-2.3 0c0 .7.6 1.3 1.3 1.3.7 0 1.3-.6 1.3-1.3 0-.7-.6-1.3-1.3-1.3-.7 0-1.3.5-1.3 1.3z" class="st25"/><path d="m31.165 98.488 2.323-1.736.24.32-2.324 1.737z" class="st1"/><path d="m31.165 98.488 2.323-1.736.24.32-2.324 1.737z" class="st18"/><path d="m31.1 92.9 2.4 1.7.2-.3-2.4-1.7z" class="st1"/><path d="m31.1 92.9 2.4 1.7.2-.3-2.4-1.7z" class="st18"/><defs><path id="SVGID_37_" d="M16.6 16.5h207.1v219.6H16.6z"/></defs><clipPath id="SVGID_38_"><use xlink:href="#SVGID_37_" style="overflow:visible"/></clipPath><path d="M27.6 99.2c0 .8-.6 1.4-1.4 1.4h-1.9c-.8 0-1.4-.6-1.4-1.4v-7.1c0-.8.6-1.4 1.4-1.4h1.9c.8 0 1.4.6 1.4 1.4v7.1zm-5.1-7.1v7.1c0 1 .8 1.8 1.8 1.8h1.9c1 0 1.8-.8 1.8-1.8v-7.1c0-1-.8-1.8-1.8-1.8h-1.9c-1 .1-1.8.9-1.8 1.8" class="st26"/><path d="M27.6 99.2c0 .8-.6 1.4-1.4 1.4h-1.9c-.8 0-1.4-.6-1.4-1.4v-7.1c0-.8.6-1.4 1.4-1.4h1.9c.8 0 1.4.6 1.4 1.4v7.1zm-5.1-7.1v7.1c0 1 .8 1.8 1.8 1.8h1.9c1 0 1.8-.8 1.8-1.8v-7.1c0-1-.8-1.8-1.8-1.8h-1.9c-1 .1-1.8.9-1.8 1.8z" class="st27"/><path d="M25.8 95.7c0 .3-.2.5-.5.5s-.5-.2-.5-.5.2-.5.5-.5c.2-.1.5.2.5.5m-1.5 0c0 .5.4.9.9.9s.9-.4.9-.9-.4-.9-.9-.9-.9.4-.9.9" class="st26"/><path d="M25.8 95.7c0 .3-.2.5-.5.5s-.5-.2-.5-.5.2-.5.5-.5c.2-.1.5.2.5.5zm-1.5 0c0 .5.4.9.9.9s.9-.4.9-.9-.4-.9-.9-.9-.9.4-.9.9z" class="st27"/><path d="M84.3 59.2h-1.2v-3.5h-1.3v3.5h-1.2v-4.3h3.6v4.3zm1.8-2.7c.2-.3.7-.5 1.2-.5.8 0 1.1.6 1.1 1.7 0 1.3-.4 1.6-1.2 1.6-.4 0-.7-.1-1-.3v1.4h-1.1v-4.3h.9l.1.4zm.1 1.9c.2 0 .3.1.5.1.3 0 .4-.1.4-.8 0-.7-.1-.8-.4-.8-.2 0-.4.1-.6.2v1.3zm4.9.8v-1.9c-.1.2-.2.4-.2.5l-1 1.4h-1v-3.1h1v2c.1-.2.1-.3.2-.5l1-1.5h1v3.1h-1zm3.2-1.3-.7 1.2h-1.1l.9-1.6-.8-1.5h1.1l.6 1.2.6-1.2H96l-.8 1.5.9 1.6H95l-.7-1.2zm5.3-.3c0 1.2-.4 1.6-1.7 1.6-1.2 0-1.7-.4-1.7-1.6 0-1.2.4-1.6 1.7-1.6 1.2 0 1.7.4 1.7 1.6zm-2.2 0c0 .7.1.8.5.8s.5-.1.5-.8c0-.7-.1-.8-.5-.8s-.5.1-.5.8zm6.3 0c.7.1.8.2 1.2 1.6h-1.1c-.4-1.2-.4-1.2-.7-1.2h-.2v1.3h-1V58h-.3c-.3 0-.3.1-.7 1.2h-1.1c.4-1.4.5-1.5 1.2-1.6-.7-.1-.7-.2-1.1-1.5h1.1c.3 1 .4 1.1.7 1.1h.2v-1.1h1v1.1h.2c.3 0 .3-.1.7-1.1h1.1c-.5 1.2-.5 1.3-1.2 1.5zm1.6-1.5c.5-.1 1.2-.2 1.7-.2.8 0 1.3.3 1.3 1.2v2h-.9l-.1-.5c-.2.3-.6.5-1.1.5-.6 0-1-.3-1-.9V58c0-.5.4-.8 1-.8h1v-.1c0-.3-.1-.4-.4-.4h-1.3l-.2-.6zm1 2.1c0 .2.1.3.3.3.2 0 .4-.1.6-.2v-.4h-.6c-.2 0-.3.1-.3.2v.1zm3.3-.4c-.5-.1-.7-.5-.7-.8 0-.8.3-1 1.4-1h1.6v3.1h-1.1v-1h-.4c-.2 0-.3 0-.3.2l-.2.8h-1.2l.2-1c.2-.2.5-.2.7-.3zm1.2-1h-.4c-.3 0-.3.1-.3.3 0 .3.1.4.3.4h.4v-.7zM46.4 81.4c-.4.1-.8.2-1.5.2-1.4 0-1.9-.6-1.9-2.2s.5-2.2 1.9-2.2c.6 0 .9 0 1.4.2l-.1.9h-1.3c-.5 0-.7.3-.7 1.2 0 1 .1 1.2.7 1.2h1.4l.1.7zm.5-3c.5-.1 1.2-.2 1.7-.2.8 0 1.3.3 1.3 1.2v2H49l-.1-.4c-.2.3-.6.5-1.1.5-.6 0-1-.3-1-.9v-.3c0-.5.4-.8 1-.8h1v-.1c0-.3-.1-.4-.4-.4h-1.3l-.2-.6zm.9 2.1c0 .2.1.3.3.3.2 0 .4-.1.6-.2v-.4h-.6c-.2 0-.3.1-.3.2v.1zm5.9 1h-1.1v-1.3h-.9v1.3h-1.1v-3.1h1.1v1.1h.9v-1.1h1.1v3.1zm2.9 0c-.2.7-.6 1-1.1 1.2-.4.2-.8.1-1.3.1l.1-.7c.4 0 .7 0 .9-.1.1-.1.2-.2.3-.4h-.2c-.2 0-.3-.1-.4-.3l-1-2.8h1.2l.5 1.8c0 .2.1.3.1.5h.1c0-.2.1-.4.1-.5l.5-1.8h1.2l-1 3zm1.3-3c.4-.1.9-.2 1.2-.2 1.1 0 1.6.1 1.6.8 0 .5-.2.7-.7.7.6 0 .8.3.8.8 0 .8-.5.9-1.5.9-.5 0-1 0-1.5-.1l.1-.7c.5 0 1 .1 1.3.1.3 0 .4 0 .4-.3 0-.2-.1-.2-.4-.2h-1v-.7h1c.3 0 .3 0 .3-.2s-.1-.2-.4-.2c-.4 0-.8 0-1.2.1v-.8zm4.5 1.7c.1.3.2.5.6.5.3 0 .7 0 1.2-.1l.1.7c-.4.2-.9.3-1.4.3-1.2 0-1.7-.5-1.7-1.6 0-1.2.5-1.7 1.7-1.7 1.1 0 1.5.4 1.5 1.1 0 .6-.3.8-1.1.8h-.9zm.6-.6c.3 0 .3-.1.3-.3 0-.2-.1-.3-.4-.3-.4 0-.5.1-.5.6h.6zm5 1.9h-1.1v-2.3h-.3c-.2 0-.3.1-.3.3-.1.5-.1 1-.2 1.3-.1.8-.7.9-1.4.8l-.1-.8c.3 0 .5 0 .5-.3.1-.2.1-.6.2-1.2 0-.5.3-.8.9-.8H68v3zm25.4-19.1v.6l.7.1c1 .1 1.3.7 1.3 1.4 0 .8-.3 1.4-1.6 1.4-.4 0-1 0-1.5-.1l.1-.9h1.1c.6 0 .7-.1.7-.5s-.2-.5-.8-.5l-.7-.1c-.2 0-.3-.2-.3-.4l.1-1.9h2.7v.9h-1.8zm3 2.4c.3 0 .4.1.4.4v.3c0 .3-.1.4-.4.4h-.3c-.3 0-.4-.1-.4-.4v-.3c0-.3.1-.4.4-.4h.3zm2-2.4v.6l.7.1c1 .1 1.3.7 1.3 1.4 0 .8-.3 1.4-1.6 1.4-.4 0-1 0-1.5-.1l.1-.9h1.1c.6 0 .7-.1.7-.5s-.2-.5-.8-.5l-.7-.1c-.2 0-.3-.2-.3-.4l.1-1.9h2.7v.9h-1.8zM51.3 83.9c.5-.1 1-.1 1.4-.1 1.1 0 1.5.2 1.5 1 0 .6-.1 1-.7 1.1.6.1.8.4.8 1.1 0 .9-.4 1.3-1.5 1.3-.5 0-1.1 0-1.5-.1v-.8h1.2c.5 0 .7-.1.7-.5s-.1-.5-.6-.5h-.8v-.7h.8c.5 0 .5-.2.5-.5s-.1-.4-.6-.4h-1.2v-.9zm4.2 3.2c.3 0 .4.1.4.4v.3c0 .3-.1.4-.4.4h-.3c-.3 0-.4-.1-.4-.4v-.3c0-.3.1-.4.4-.4h.3zm4.6 0-.5.1v.9h-1.1v-.9h-1.7c-.4 0-.6-.3-.5-.7l1.1-2.7h1.1l-.9 2.4c0 .1 0 .2.1.2h.8v-1.1l.2-.7h.9v1.8h.5v.7zm-3.8 51c1.5.2 1.6.8 2.5 3.7h-2c-.7-2.6-.8-3.1-1.8-3.1h-.4c.1.2.1.5.1.7v2.4h-1.9v-7.2h1.9v1.9c0 .3 0 .6-.1.9h.3c1 0 1.1-.6 1.7-2.8h2c-.8 2.6-.9 3.3-2.3 3.5zm6.8 3.7c-.4 1.2-1 1.7-1.8 2-.6.3-1.4.2-2.1.1l.2-1.2c.7 0 1.1 0 1.4-.2.2-.1.4-.4.5-.6H61c-.3 0-.5-.2-.6-.4l-1.6-4.7h2l.8 3.1c.1.3.1.6.1.9h.1c.1-.3.2-.6.2-.9l.8-3.1h2l-1.7 5zm4.8-2-1.1 2.1h-1.9l1.5-2.6-1.4-2.5h1.9l1 1.9 1-1.9h1.9l-1.4 2.5 1.5 2.6H69l-1.1-2.1zm8.9 2H75v-2.1h-1.6v2.1h-1.9v-5.2h1.9v1.8H75v-1.8h1.9v5.2zm2.2-2.2c-.9-.2-1.1-.8-1.1-1.4 0-1.3.5-1.7 2.4-1.7 1.4 0 2 0 2.6.1v5.2H81v-1.7h-.7c-.3 0-.4.1-.5.3l-.3 1.4h-1.9l.4-1.6c.1-.4.6-.5 1-.6zm2-1.7h-.7c-.5 0-.6.1-.6.5 0 .5.1.6.6.6h.7v-1.1zm-26.8 69.6h-2v-5.8h-.7c-.4 0-.6.2-.6.5-.1 1.5-.3 2.8-.6 3.7-.5 1.5-1.4 1.9-2.7 1.7l-.1-1.5c.5-.1.8-.2 1-.7.2-.7.4-1.7.5-3.3.1-1.1.7-1.7 1.8-1.7h3.3v7.1zm6.5-2.6c0 2-.8 2.7-2.8 2.7-2 0-2.8-.7-2.8-2.7s.8-2.7 2.8-2.7c2.1 0 2.8.7 2.8 2.7zm-3.6 0c0 1.1.2 1.4.8 1.4.6 0 .8-.3.8-1.4 0-1.1-.2-1.4-.8-1.4-.6 0-.8.2-.8 1.4zm10.5 4h-1.2l-.1-1.4h-3.7l-.1 1.4h-1.2v-2.7h.6c.3-.9.5-1.7.6-2.6.1-.8.6-1.3 1.5-1.3h2.8v3.9h.9v2.7zm-2.6-5.4h-.5c-.3 0-.4.1-.5.4-.1 1-.3 1.7-.6 2.3H65v-2.7zm9.4 1.3c1.2.2 1.3.3 2 2.7h-1.9c-.6-2-.7-2.1-1.2-2.1h-.4c0 .2.1.3.1.4v1.6h-1.7v-1.6c0-.1 0-.3.1-.4H71c-.4 0-.5.1-1.1 2.1H68c.7-2.4.8-2.5 2-2.7v-.1c-1.2-.2-1.2-.3-1.8-2.4h1.9c.6 1.7.6 1.9 1.1 1.9h.3c0-.2-.1-.4-.1-.6v-1.2H73v1.2c0 .2 0 .4-.1.6h.3c.5 0 .6-.2 1.1-1.9h1.9c-.7 2.1-.6 2.3-1.8 2.5zm6.3 2.7v-2.3c0-.3 0-.6.1-.9-.1.3-.3.6-.4.9l-1.6 2.4h-1.6v-5.2h1.7v2.4c0 .3 0 .5-.1.8.1-.3.2-.5.4-.8l1.6-2.5h1.6v5.2h-1.7zm3.9-2.3c-.9-.2-1.1-.8-1.1-1.4 0-1.3.5-1.7 2.4-1.7 1.4 0 2 0 2.6.1v5.2h-1.8v-1.7H86c-.3 0-.4.1-.5.3l-.3 1.4h-1.9l.4-1.6c0-.4.5-.5.9-.6zm2-1.7h-.7c-.5 0-.6.1-.6.5 0 .5.1.6.6.6h.7v-1.1zm-25.1-54.8c-.8-.1-1.1-.9-1.1-1.6 0-1.3.5-1.9 2.6-1.9 2.2 0 2.6.6 2.6 1.9 0 .8-.3 1.6-1.1 1.6 1 .1 1.3 1 1.3 1.9 0 1.4-.5 1.9-2.8 1.9-2.2 0-2.8-.5-2.8-1.9.1-.9.3-1.7 1.3-1.9zm.6 1.6c0 .7.2.9 1 .9s1-.2 1-.9c0-.8-.2-.9-1-.9s-1 .2-1 .9zm.1-3c0 .6.2.8.9.8s.9-.2.9-.8c0-.7-.2-.9-.9-.9-.7.1-.9.2-.9.9zm5.7 3.4c.5 0 .7.2.7.7v.5c0 .5-.2.7-.7.7h-.4c-.5 0-.7-.2-.7-.7v-.5c0-.5.2-.7.7-.7h.4zm2.8-2c-.8-.1-1.1-.9-1.1-1.6 0-1.3.5-1.9 2.6-1.9 2.2 0 2.6.6 2.6 1.9 0 .8-.3 1.6-1.1 1.6 1 .1 1.3 1 1.3 1.9 0 1.4-.5 1.9-2.8 1.9-2.2 0-2.8-.5-2.8-1.9.1-.9.3-1.7 1.3-1.9zm.6 1.6c0 .7.2.9 1 .9s1-.2 1-.9c0-.8-.2-.9-1-.9s-1 .2-1 .9zm.1-3c0 .6.2.8.9.8s.9-.2.9-.8c0-.7-.2-.9-.9-.9-.7.1-.9.2-.9.9zm-10.2 69.5h1.9c.9 0 1.2-.4 1.2-1.6-.4.3-.8.4-1.5.4-1.6 0-2.1-.9-2.1-2.2 0-1.8.6-2.6 2.7-2.6 2.3 0 2.7.7 2.7 3.6 0 3.2-.8 3.8-3.1 3.8-.4 0-1.2 0-2-.2l.2-1.2zm2.3-2.5c.3 0 .6-.1.9-.3 0-1.6-.1-1.9-.9-1.9-.7 0-.8.3-.8 1.2-.1.8.1 1 .8 1zm4.7 2c.5 0 .7.2.7.7v.5c0 .5-.2.7-.7.7h-.4c-.5 0-.7-.2-.7-.7v-.5c0-.5.2-.7.7-.7h.4zm7.6.1-.8.2v1.5h-1.8v-1.5h-2.9c-.6 0-1-.6-.8-1.1l1.8-4.6h1.8l-1.6 4.1c-.1.2 0 .3.2.3h1.4v-1.8l.3-1.1H75v3h.9v1zm62.1-92.5c1.5.2 1.6.8 2.4 3.7h-2c-.8-2.6-.9-3.1-1.6-3.1h-.3c.1.2.1.5.1.7v2.4h-1.9v-2.4c0-.2 0-.4.1-.7h-.4c-.7 0-.8.5-1.6 3.1h-2c.8-2.9.9-3.5 2.4-3.7v-.1c-1.4-.2-1.4-.8-2.2-3.4h2c.6 2.2.8 2.8 1.5 2.8h.4c-.1-.3-.1-.6-.1-.9v-1.9h1.9v1.9c0 .3 0 .6-.1.9h.3c.7 0 .8-.6 1.5-2.8h2c-1 2.6-1 3.3-2.4 3.5zm6.7 3.8v-2.3c0-.3 0-.6.1-.9-.1.3-.3.6-.4.9l-1.6 2.4h-1.6v-5.2h1.7v2.4c0 .3 0 .5-.1.8.1-.3.2-.5.4-.8l1.6-2.5h1.6v5.2h-1.7zm8-.1h-1.9v-3.9h-.4c-.3 0-.5.1-.5.4-.1.8-.2 1.7-.3 2.2-.2 1.3-1.2 1.5-2.4 1.4l-.2-1.4c.5-.1.8-.1.9-.5.1-.4.2-1.1.3-2 .1-.9.5-1.3 1.4-1.3h3.1v5.1zm1.1-5c.8-.1 2.1-.3 2.8-.3 1.4 0 2.2.5 2.2 2v3.3h-1.5l-.2-.8c-.4.4-.9.9-1.8.9-1 0-1.7-.5-1.7-1.5v-.5c0-.8.6-1.3 1.7-1.3h1.7v-.1c0-.4-.2-.6-.7-.6-.5 0-1.4 0-2.2.1l-.3-1.2zm1.6 3.4c0 .3.2.4.5.4s.7-.1 1-.4v-.6h-1.1c-.3 0-.4.2-.4.4v.2zm5.5-.6c-.9-.2-1.1-.8-1.1-1.4 0-1.3.5-1.7 2.4-1.7 1.4 0 2 0 2.6.1v5.2h-1.8V126h-.7c-.3 0-.4.1-.5.3l-.3 1.4h-1.9l.4-1.6c.1-.5.6-.6.9-.7zm2.1-1.7h-.7c-.5 0-.6.1-.6.5 0 .5.1.6.6.6h.7v-1.1zm8.5 1.3c1.2.2 1.2.2 2 2.7h-2c-.5-1.9-.6-2-1.1-2h-.4c0 .1.1.3.1.4v1.6h-2v-5.2h1.9v1.2c0 .2 0 .4-.1.7h.2c.7 0 .8-.1 1.2-1.9h1.9c-.6 2.1-.5 2.3-1.7 2.5zm8 .1c0 2-.7 2.7-2.8 2.7-2 0-2.8-.7-2.8-2.7s.7-2.7 2.8-2.7c2-.1 2.8.7 2.8 2.7zm-3.6 0c0 1.1.2 1.4.8 1.4.6 0 .8-.3.8-1.4 0-1.1-.2-1.4-.8-1.4-.6 0-.8.2-.8 1.4zm11-2.6c.4 0 .6.2.6.6l.1 4.5h-1.7l-.1-3.8h-.1l-.6 2.5c-.1.4-.3.6-.7.6h-.8c-.4 0-.6-.2-.7-.6l-.6-2.5h-.2l-.1 3.8h-1.7l.1-4.5c0-.4.2-.6.7-.6h1.6c.4 0 .6.2.7.6l.5 1.9c.1.3.1.5.1.8h.1c0-.3.1-.5.1-.8l.4-1.9c.1-.4.3-.6.7-.6h1.6zm7.1 5.1H192v-2.1h-1.6v2.1h-1.9v-5.2h1.9v1.8h1.6v-1.8h1.9v5.2zm1.2-5c.8-.1 2.1-.3 2.8-.3 1.4 0 2.2.5 2.2 2v3.3h-1.5l-.2-.8c-.4.4-.9.9-1.8.9-1 0-1.7-.5-1.7-1.5v-.5c0-.8.6-1.3 1.7-1.3h1.7v-.1c0-.4-.2-.6-.7-.6-.5 0-1.4 0-2.2.1l-.3-1.2zm1.6 3.4c0 .3.2.4.5.4s.7-.1 1-.4v-.6h-1.1c-.3 0-.4.2-.4.4v.2zm7.6-2.1v3.7h-1.9v-3.7h-1.6v-1.4h5.2v1.4h-1.7zm2.3-1.3c.8-.1 2.1-.3 2.8-.3 1.4 0 2.2.5 2.2 2v3.3h-1.5l-.2-.8c-.4.4-.9.9-1.8.9-1 0-1.7-.5-1.7-1.5v-.5c0-.8.6-1.3 1.7-1.3h1.7v-.1c0-.4-.2-.6-.7-.6-.5 0-1.4 0-2.2.1l-.3-1.2zm1.6 3.4c0 .3.2.4.5.4s.7-.1 1-.4v-.6h-1.1c-.3 0-.4.2-.4.4v.2zM163 139.6v-4.8c0-.3 0-.6.1-.9l-1.7.4-.2-1.2 1.8-.7h1.9v7.2H163zm3.6-1.3h1.9c.9 0 1.2-.4 1.2-1.6-.4.3-.8.4-1.5.4-1.6 0-2.1-.9-2.1-2.2 0-1.8.6-2.6 2.7-2.6 2.3 0 2.7.7 2.7 3.6 0 3.2-.8 3.8-3.1 3.8-.4 0-1.2 0-2-.2l.2-1.2zm2.2-2.4c.3 0 .6-.1.9-.3 0-1.6-.1-1.9-.9-1.9-.7 0-.8.3-.8 1.2 0 .8.2 1 .8 1zm4.8 2c.5 0 .7.2.7.7v.5c0 .5-.2.7-.7.7h-.4c-.5 0-.7-.2-.7-.7v-.5c0-.5.2-.7.7-.7h.4zm7.4-1.9c0 2.8-.8 3.7-2.9 3.7-2.2 0-2.9-.9-2.9-3.7 0-2.8.7-3.7 2.9-3.7 2.1 0 2.9.9 2.9 3.7zm-4 0c0 1.9.2 2.2 1 2.2s1-.3 1-2.2c0-1.9-.2-2.2-1-2.2-.7 0-1 .3-1 2.2zm-14.4-25-1.9.4v3.4h-4.1v-3.4H150c-1.4 0-2.3-1.3-1.7-2.5l4.1-10.4h4.2l-3.6 9.3c-.2.5 0 .7.4.7h3.2v-4.2l.7-2.6h3.4v6.8h2v2.5zm4.4 3.9V104c0-.6 0-1.3.2-2l-3.8.9-.5-2.8 4.2-1.6h4.4v16.4H167zm9.9-4.1c1.1 0 1.5.4 1.5 1.5v1c0 1.1-.4 1.5-1.5 1.5h-1c-1.1 0-1.5-.4-1.5-1.5v-1c0-1.1.4-1.5 1.5-1.5h1zm17.4.2-1.9.4v3.4h-4.1v-3.4h-6.6c-1.4 0-2.3-1.3-1.7-2.5l4.1-10.4h4.2l-3.6 9.3c-.2.5 0 .7.4.7h3.2v-4.2l.7-2.6h3.4v6.8h2v2.5z" class="st1"/><defs><path id="SVGID_39_" d="M16.6 16.5h207.1v219.6H16.6z"/></defs><clipPath id="SVGID_40_"><use xlink:href="#SVGID_39_" style="overflow:visible"/></clipPath><circle cx="171.3" cy="80" r="14.6" style="clip-path:url(#SVGID_40_);fill:none;stroke:#39373a" transform="rotate(-13.286 171.23 79.947)"/><path d="M164.5 86.3V78c0-.5 0-1 .1-1.5l-2.9.6-.4-2.1 3.2-1.2h3.4v12.4h-3.4zm12.3-6.5c2.6.4 2.7 1.3 4.3 6.4h-3.5c-1.3-4.5-1.4-5.3-3.2-5.3h-.6c.1.4.1.8.1 1.2v4.2h-3.4V73.8h3.4v3.3c0 .5-.1 1-.1 1.5h.6c1.7 0 2-1.1 3-4.8h3.4c-1.4 4.5-1.4 5.6-3.9 5.9v.1z" class="st1"/></g></switch></svg>