<svg xmlns="http://www.w3.org/2000/svg" xmlns:xlink="http://www.w3.org/1999/xlink" xml:space="preserve" id="Слой_1" x="0" y="0" style="enable-background:new 0 0 231 423" version="1.1" viewBox="0 0 231 423"><style>.st0{fill:#f4e0ed}.st1{fill:#3c3c3b}.st11,.st3{fill:none;stroke:#3c3c3b}.st3{stroke-width:.669}.st11{clip-path:url(#SVGID_18_);stroke-width:.446}.st13{fill:#3c3c3b}.st13,.st14{clip-path:url(#SVGID_18_)}.st14,.st15{fill:none;stroke:#3c3c3b;stroke-width:.279}.st16{clip-path:url(#SVGID_20_);fill:#3c3c3b}.st17,.st18{fill:none;stroke:#3c3c3b}.st17{clip-path:url(#SVGID_20_);stroke-width:.279}.st18{stroke-width:.244}.st24{clip-path:url(#SVGID_26_)}.st24,.st25{fill:none;stroke:#3c3c3b;stroke-width:.567}.st26,.st27{clip-path:url(#SVGID_28_);fill:#3c3c3b}.st27{fill:none;stroke:#3c3c3b;stroke-width:.236}.st28{clip-path:url(#SVGID_30_);fill:#3c3c3b}</style><switch><g><path d="M22.3 74.3h92.5v323H22.3z" class="st0"/><path d="M87.3 74.3h123.6v171.1H87.3z" class="st0"/><path d="M210.8 233.5h4.9v17h-4.9zm0-215.2h4.9v194.9h-4.9zm-96 50.5h4.9V201h-4.9zm0 159h4.9v180.6h-4.9zm0-209.5h4.9v27.5h-4.9zM18.3 32h4.9v375.4h-4.9z" class="st1"/><path d="M96 405.3h23.6v3.1H96zm-77.7 0h24.8v3.1H18.3z" class="st1"/><path d="M98.4 397.3h21.3v9.1H98.4zm-80.1 0h22.5v9.1H18.3zm181.4-379H214v56h-14.3z" class="st1"/><defs><path id="SVGID_1_" d="M18.3 18.3h197.4v390.1H18.3z"/></defs><clipPath id="SVGID_2_"><use xlink:href="#SVGID_1_" style="overflow:visible"/></clipPath><path d="M19.1 63.6h58.4V66H19.1z" style="clip-path:url(#SVGID_2_);fill:none;stroke:#3c3c3b;stroke-width:.669"/><path d="M20.3 66h54.3v7.9H20.3zm94.8-2.4h58.4V66h-58.4zm1.2 2.4h54.3v7.9h-54.3z" class="st3"/><path d="M93.5 63.2h48.2v3.1H93.5zm95 0H214v3.1h-25.5zm-170.2 0h27.3v3.1H18.3z" class="st1"/><path d="M95.5 65.2h44.2v9.1H95.5zm95 0H214v9.1h-23.5zm-172.2 0h25.3v9.1H18.3zm3.5 102.5h71.8v5.1H21.8zm0 77.7h71.8v5.1H21.8zm93 0h98.4v5.1h-98.4zm26.3-60.6h74.6v5.1h-74.6zM21.8 219h61.5v2.6H21.8z" class="st1"/><path d="M80.7 170.7h2.6v14.6h-2.6zm0 34.1h2.6v23.9h-2.6z" class="st1"/><defs><path id="SVGID_3_" d="M18.3 18.3h197.4v390.1H18.3z"/></defs><clipPath id="SVGID_4_"><use xlink:href="#SVGID_3_" style="overflow:visible"/></clipPath><path d="M34.7 405.6h74.1v2.4H34.7z" style="clip-path:url(#SVGID_4_);fill:none;stroke:#3c3c3b;stroke-width:.669"/><path d="M38.3 397.6h69v7.9h-69zM173.178 77.247l19.077-11.355.511.86-19.076 11.354z" class="st3"/><defs><path id="SVGID_5_" d="M18.3 18.3h197.4v390.1H18.3z"/></defs><clipPath id="SVGID_6_"><use xlink:href="#SVGID_5_" style="overflow:visible"/></clipPath><path d="M173.1 77.2s-1.2-1.7-1.8-5.6c-.6-3.9-.4-6-.4-6" style="clip-path:url(#SVGID_6_);fill:none;stroke:#3c3c3b;stroke-width:.446"/><path d="m77.276 77.247 19.076-11.355.512.86-19.076 11.354z" class="st3"/><defs><path id="SVGID_7_" d="M18.3 18.3h197.4v390.1H18.3z"/></defs><clipPath id="SVGID_8_"><use xlink:href="#SVGID_7_" style="overflow:visible"/></clipPath><path d="M77.2 77.2s-1.2-1.7-1.8-5.6c-.6-3.9-.4-6-.4-6" style="clip-path:url(#SVGID_8_);fill:none;stroke:#3c3c3b;stroke-width:.446"/><path d="m96.119 161.006.511-.86 19.076 11.356-.511.86z" class="st3"/><defs><path id="SVGID_9_" d="M18.3 18.3h197.4v390.1H18.3z"/></defs><clipPath id="SVGID_10_"><use xlink:href="#SVGID_9_" style="overflow:visible"/></clipPath><path d="M96 161.1s-1.2 1.7-1.8 5.6c-.6 3.9-.4 6-.4 6" style="clip-path:url(#SVGID_10_);fill:none;stroke:#3c3c3b;stroke-width:.446"/><path d="m118.9 188.535 19.076-11.355.512.86-19.077 11.354z" class="st3"/><defs><path id="SVGID_11_" d="M18.3 18.3h197.4v390.1H18.3z"/></defs><clipPath id="SVGID_12_"><use xlink:href="#SVGID_11_" style="overflow:visible"/></clipPath><path d="M138.6 178.2s1.2 1.7 1.8 5.6c.6 3.9.4 6 .4 6" style="clip-path:url(#SVGID_12_);fill:none;stroke:#3c3c3b;stroke-width:.446"/><path d="m82.172 248.083 10.23-17.186.86.512-10.23 17.186z" class="st3"/><defs><path id="SVGID_13_" d="M18.3 18.3h197.4v390.1H18.3z"/></defs><clipPath id="SVGID_14_"><use xlink:href="#SVGID_13_" style="overflow:visible"/></clipPath><path d="M92.3 230.7s-1.7-1.2-5.6-1.8c-3.9-.6-6-.4-6-.4" style="clip-path:url(#SVGID_14_);fill:none;stroke:#3c3c3b;stroke-width:.446"/><path d="m82.15 185.099.86-.512 10.229 17.186-.86.512z" class="st3"/><defs><path id="SVGID_15_" d="M18.3 18.3h197.4v390.1H18.3z"/></defs><clipPath id="SVGID_16_"><use xlink:href="#SVGID_15_" style="overflow:visible"/></clipPath><path d="M92.3 202.4s-1.7 1.2-5.6 1.8c-3.9.6-6 .4-6 .4" style="clip-path:url(#SVGID_16_);fill:none;stroke:#3c3c3b;stroke-width:.446"/><path d="m96.179 257.139 19.076-11.355.512.86-19.077 11.354z" class="st3"/><defs><path id="SVGID_17_" d="M18.3 18.3h197.4v390.1H18.3z"/></defs><clipPath id="SVGID_18_"><use xlink:href="#SVGID_17_" style="overflow:visible"/></clipPath><path d="M96 257s-1.2-1.7-1.8-5.6c-.6-3.9-.4-6-.4-6" class="st11"/><path d="M208.4 214.8h1V237h-1z" style="clip-path:url(#SVGID_18_);fill:none;stroke:#3c3c3b;stroke-width:.669" transform="rotate(-30.762 208.92 225.883)"/><path d="M203.8 216s2.2-1.3 6.4-2.5c2-.6 4.1-.8 5.5-.8" class="st11"/><path d="M51.4 233.4c0-2.6-2.1-4.7-4.8-4.7h-6.9c-.5 0-.8.4-.8.8v7.8c0 .4.4.8.8.8h6.9c2.6 0 4.8-2.1 4.8-4.7m-12.8 3.9v-7.8c0-.6.5-1.1 1.1-1.1h6.9c2.8 0 5.1 2.3 5.1 5 0 2.8-2.3 5-5.1 5h-6.9c-.6.1-1.1-.5-1.1-1.1" class="st13"/><path d="M51.4 233.4c0-2.6-2.1-4.7-4.8-4.7h-6.9c-.5 0-.8.4-.8.8v7.8c0 .4.4.8.8.8h6.9c2.6 0 4.8-2.1 4.8-4.7zm-12.8 3.9v-7.8c0-.6.5-1.1 1.1-1.1h6.9c2.8 0 5.1 2.3 5.1 5 0 2.8-2.3 5-5.1 5h-6.9c-.6.1-1.1-.5-1.1-1.1z" class="st14"/><path d="M41.2 230v6.8s0 .1.1.1h5.2c1.9 0 3.5-1.6 3.5-3.5s-1.6-3.5-3.5-3.5l-5.3.1z" class="st14"/><path d="M41.4 230.1v6.6h5.1c1.8 0 3.3-1.5 3.3-3.3 0-1.8-1.5-3.3-3.3-3.3h-5.1zm-.4 6.7V230c0-.1.1-.2.2-.2h5.2c2 0 3.7 1.6 3.7 3.6s-1.6 3.6-3.7 3.6h-5.2c-.1 0-.2-.1-.2-.2" class="st13"/><path d="M41.4 230.1v6.6h5.1c1.8 0 3.3-1.5 3.3-3.3 0-1.8-1.5-3.3-3.3-3.3h-5.1zm-.4 6.7V230c0-.1.1-.2.2-.2h5.2c2 0 3.7 1.6 3.7 3.6s-1.6 3.6-3.7 3.6h-5.2c-.1 0-.2-.1-.2-.2z" class="st14"/><path d="M46.5 233.4c0-.5-.4-.9-.9-.9s-.9.4-.9.9.4.9.9.9.9-.4.9-.9m-2.1 0c0-.7.5-1.2 1.2-1.2s1.2.5 1.2 1.2-.5 1.2-1.2 1.2-1.2-.5-1.2-1.2" class="st13"/><path d="M46.5 233.4c0-.5-.4-.9-.9-.9s-.9.4-.9.9.4.9.9.9.9-.4.9-.9zm-2.1 0c0-.7.5-1.2 1.2-1.2s1.2.5 1.2 1.2-.5 1.2-1.2 1.2-1.2-.5-1.2-1.2z" class="st14"/><path d="m41.9 230.8.2-.3 2.1 1.6-.2.3z" class="st1"/><path d="m41.9 230.8.2-.3 2.1 1.6-.2.3z" class="st15"/><path d="m41.9 236 2.1-1.6.2.3-2.1 1.5z" class="st1"/><path d="m41.9 236 2.1-1.6.2.3-2.1 1.5z" class="st15"/><defs><path id="SVGID_19_" d="M18.3 18.3h197.4v390.1H18.3z"/></defs><clipPath id="SVGID_20_"><use xlink:href="#SVGID_19_" style="overflow:visible"/></clipPath><path d="M38.5 230.2c0-.7-.6-1.3-1.3-1.3h-1.8c-.7 0-1.3.6-1.3 1.3v6.5c0 .7.6 1.3 1.3 1.3h1.8c.7 0 1.3-.6 1.3-1.3v-6.5zm-4.7 6.5v-6.5c0-.9.7-1.6 1.6-1.6h1.8c.9 0 1.6.7 1.6 1.6v6.5c0 .9-.7 1.6-1.6 1.6h-1.8c-.9 0-1.6-.7-1.6-1.6" class="st16"/><path d="M38.5 230.2c0-.7-.6-1.3-1.3-1.3h-1.8c-.7 0-1.3.6-1.3 1.3v6.5c0 .7.6 1.3 1.3 1.3h1.8c.7 0 1.3-.6 1.3-1.3v-6.5zm-4.7 6.5v-6.5c0-.9.7-1.6 1.6-1.6h1.8c.9 0 1.6.7 1.6 1.6v6.5c0 .9-.7 1.6-1.6 1.6h-1.8c-.9 0-1.6-.7-1.6-1.6z" class="st17"/><path d="M36.8 233.4c0-.3-.2-.5-.5-.5s-.5.2-.5.5.2.5.5.5.5-.2.5-.5m-1.3 0c0-.4.4-.8.8-.8s.8.4.8.8-.4.8-.8.8-.8-.3-.8-.8" class="st16"/><path d="M36.8 233.4c0-.3-.2-.5-.5-.5s-.5.2-.5.5.2.5.5.5.5-.2.5-.5zm-1.3 0c0-.4.4-.8.8-.8s.8.4.8.8-.4.8-.8.8-.8-.3-.8-.8z" class="st17"/><path d="M32.4 221.6v23.8m-8.2-22.6h7.1v15.5h-7.1zm0 16.8h7.1v4.5h-7.1zm8.2 10.2v24.7m-8.2-23.1h7.1v16h-7.1zm0 17.8h7.1v4h-7.1zm8.5 5.1h-10" class="st3"/><path d="M49.6 250.9H33.7v15.9h15.9v-15.9zm-16.2-.3H50v16.6H33.4v-16.6z" class="st1"/><path d="M49.6 250.9H33.7v15.9h15.9v-15.9zm-16.2-.3H50v16.6H33.4v-16.6z" class="st18"/><defs><path id="SVGID_21_" d="M18.3 18.3h197.4v390.1H18.3z"/></defs><clipPath id="SVGID_22_"><use xlink:href="#SVGID_21_" style="overflow:visible"/></clipPath><path d="M47.2 265.3c.4 0 .7-.3.7-.7v-8.3c0-.4-.3-.7-.7-.7H36.1c-.4 0-.7.3-.7.7v8.3c0 .4.3.7.7.7h11.1zm-11.1-10.1h11.1c.6 0 1.1.5 1.1 1.1v8.3c0 .6-.5 1.1-1.1 1.1H36.1c-.6 0-1.1-.5-1.1-1.1v-8.3c.1-.6.5-1.1 1.1-1.1" style="clip-path:url(#SVGID_22_);fill:#3c3c3b"/><path d="M47.2 265.3c.4 0 .7-.3.7-.7v-8.3c0-.4-.3-.7-.7-.7H36.1c-.4 0-.7.3-.7.7v8.3c0 .4.3.7.7.7h11.1zm-11.1-10.1h11.1c.6 0 1.1.5 1.1 1.1v8.3c0 .6-.5 1.1-1.1 1.1H36.1c-.6 0-1.1-.5-1.1-1.1v-8.3c.1-.6.5-1.1 1.1-1.1z" style="clip-path:url(#SVGID_22_);fill:none;stroke:#3c3c3b;stroke-width:.244"/><path d="M46.7 256.8H36.6v7.3h10.1v-7.3zm-10.4-.3H47v8H36.3v-8z" class="st1"/><path d="M46.7 256.8H36.6v7.3h10.1v-7.3zm-10.4-.3H47v8H36.3v-8z" class="st18"/><defs><path id="SVGID_23_" d="M18.3 18.3h197.4v390.1H18.3z"/></defs><clipPath id="SVGID_24_"><use xlink:href="#SVGID_23_" style="overflow:visible"/></clipPath><path d="M41.7 261.9c.5 0 .9-.4.9-.9s-.4-.9-.9-.9-.9.4-.9.9c-.1.5.4.9.9.9m0-2.2c.7 0 1.3.6 1.3 1.3 0 .7-.6 1.3-1.3 1.3s-1.3-.6-1.3-1.3c0-.7.6-1.3 1.3-1.3" style="clip-path:url(#SVGID_24_);fill:#3c3c3b"/><path d="M41.7 261.9c.5 0 .9-.4.9-.9s-.4-.9-.9-.9-.9.4-.9.9c-.1.5.4.9.9.9zm0-2.2c.7 0 1.3.6 1.3 1.3 0 .7-.6 1.3-1.3 1.3s-1.3-.6-1.3-1.3c0-.7.6-1.3 1.3-1.3z" style="clip-path:url(#SVGID_24_);fill:none;stroke:#3c3c3b;stroke-width:.244"/><path d="M22.3 298.1h93.9" style="fill:none;stroke:#3c3c3b;stroke-width:1.116;stroke-dasharray:4.473,4.473"/><defs><path id="SVGID_25_" d="M18.3 18.3h197.4v390.1H18.3z"/></defs><clipPath id="SVGID_26_"><use xlink:href="#SVGID_25_" style="overflow:visible"/></clipPath><path d="M29.5 174.4s-5.4 0-5.4 5.4v32s0 5.4 5.4 5.4h7.2s5.4 0 5.4-5.4v-32s0-5.4-5.4-5.4h-7.2z" class="st24"/><path d="M31.2 177.4s-5.4 0-5.4 5.4v26.1s0 5.4 5.4 5.4H35s5.4 0 5.4-5.4v-26.1s0-5.4-5.4-5.4h-3.8z" class="st24"/><path d="M30.1 180.9s-2.7 0-2.7 2.7v26.2s0 2.7 2.7 2.7h6s2.7 0 2.7-2.7v-26.2s0-2.7-2.7-2.7h-6z" class="st24"/><path d="M33.1 209.3c.4 0 .8-.4.8-.8s-.4-.8-.8-.8-.8.4-.8.8.3.8.8.8z" class="st24"/><path d="M43 172.1v47.6" class="st25"/><defs><path id="SVGID_27_" d="M18.3 18.3h197.4v390.1H18.3z"/></defs><clipPath id="SVGID_28_"><use xlink:href="#SVGID_27_" style="overflow:visible"/></clipPath><path d="M49.9 207.3c-2.8 0-5.1 2.3-5.1 5.1v5.4c0 .4.4.8.8.8h11.6c.4 0 .8-.3.8-.8v-5.4c0-2.8-2.3-5.1-5.1-5.1h-3zm7.3 11.6H45.6c-.6 0-1.1-.5-1.1-1.1v-5.4c0-3 2.4-5.4 5.4-5.4h2.9c3 0 5.4 2.4 5.4 5.4v5.4c0 .6-.5 1.1-1 1.1" class="st26"/><path d="M49.9 207.3c-2.8 0-5.1 2.3-5.1 5.1v5.4c0 .4.4.8.8.8h11.6c.4 0 .8-.3.8-.8v-5.4c0-2.8-2.3-5.1-5.1-5.1h-3zm7.3 11.6H45.6c-.6 0-1.1-.5-1.1-1.1v-5.4c0-3 2.4-5.4 5.4-5.4h2.9c3 0 5.4 2.4 5.4 5.4v5.4c0 .6-.5 1.1-1 1.1z" class="st27"/><path d="M49.9 208.6c-2.1 0-3.8 1.7-3.8 3.8v3.2c0 .4.3.7.7.7H56c.4 0 .7-.3.7-.7v-3.2c0-2.1-1.7-3.8-3.8-3.8h-3zm6.1 7.9h-9.2c-.5 0-1-.4-1-1v-3.2c0-2.3 1.9-4.1 4.1-4.1h2.9c2.3 0 4.1 1.9 4.1 4.1v3.2c0 .6-.4 1-.9 1" class="st26"/><path d="M49.9 208.6c-2.1 0-3.8 1.7-3.8 3.8v3.2c0 .4.3.7.7.7H56c.4 0 .7-.3.7-.7v-3.2c0-2.1-1.7-3.8-3.8-3.8h-3zm6.1 7.9h-9.2c-.5 0-1-.4-1-1v-3.2c0-2.3 1.9-4.1 4.1-4.1h2.9c2.3 0 4.1 1.9 4.1 4.1v3.2c0 .6-.4 1-.9 1z" class="st27"/><path d="M51.4 211.3c-.4 0-.6.3-.6.6 0 .4.3.6.6.6s.6-.3.6-.6-.3-.6-.6-.6m0 1.5c-.5 0-.9-.4-.9-.9s.4-.9.9-.9.9.4.9.9-.4.9-.9.9" class="st26"/><path d="M51.4 211.3c-.4 0-.6.3-.6.6 0 .4.3.6.6.6s.6-.3.6-.6-.3-.6-.6-.6zm0 1.5c-.5 0-.9-.4-.9-.9s.4-.9.9-.9.9.4.9.9-.4.9-.9.9z" class="st27"/><path d="M44.7 173.1h15.4v17.5H44.7z" class="st25"/><defs><path id="SVGID_29_" d="M18.3 18.3h197.4v390.1H18.3z"/></defs><clipPath id="SVGID_30_"><use xlink:href="#SVGID_29_" style="overflow:visible"/></clipPath><path d="M168.6 170.8c1-.1 1.5-.1 2.3-.1.6 0 .8 0 .8.3 0 .4-.5 1.1-1.3 1.9l-1.6 1.7c-.2.2-.3.5-.3.8v1h5.4v-1.7h-2.1c-.3 0-.7 0-1 .1l1.8-1.7c.9-1 1.1-1.5 1.1-2.2 0-1.4-1-1.7-2.5-1.7-.8 0-1.5 0-2.6.2v1.4zm-2.1 3.9c-.5 0-.7.2-.7.7v.5c0 .5.2.7.7.7h.4c.5 0 .7-.2.7-.7v-.5c0-.5-.2-.7-.7-.7h-.4zm-1.3-1.1h-.9v-3h-1.5l-.3 1.1v1.8h-1.4c-.2 0-.3-.1-.2-.3l1.6-4.1h-1.8l-1.8 4.6c-.2.6.2 1.1.8 1.1h2.9v1.5h1.8v-1.5l.8-.2v-1zm-7.4 2.9v-7.2h-2l-1.8.7.2 1.2 1.7-.4c-.1.3-.1.6-.1.9v4.8h2zm24.7-14.4c0-.2.1-.4.4-.4h1.1v.6c-.3.2-.7.4-1 .4-.3 0-.5-.1-.5-.4v-.2zm-1.4-2c.9-.1 1.7-.1 2.2-.1.5 0 .7.2.7.6v.1h-1.7c-1 0-1.7.5-1.7 1.3v.5c0 1 .8 1.5 1.7 1.5.9 0 1.5-.5 1.9-.9l.2.8h1.5v-3.3c0-1.5-.8-2-2.2-2-.8 0-2.1.1-2.8.3l.2 1.2zm-.8 0v-1.4h-5.2v1.4h1.7v3.8h1.9v-3.8h1.6zm-9.3 2c0-.2.1-.4.4-.4h1.1v.6c-.3.2-.7.4-1 .4-.3 0-.5-.1-.5-.4v-.2zm-1.4-2c.9-.1 1.7-.1 2.2-.1.5 0 .7.2.7.6v.1h-1.7c-1 0-1.7.5-1.7 1.3v.5c0 1 .8 1.5 1.7 1.5.9 0 1.5-.5 1.9-.9l.2.8h1.5v-3.3c0-1.5-.8-2-2.2-2-.8 0-2.1.1-2.8.3l.2 1.2zm-1.3-1.4h-1.9v1.8h-1.6v-1.8H163v5.2h1.9v-2.1h1.6v2.1h1.9v-5.2zm-8.8 0c-.4 0-.6.2-.7.6l-.4 1.9c-.1.3-.1.5-.1.8h-.1c0-.3 0-.5-.1-.8l-.5-1.9c-.1-.4-.3-.6-.7-.6h-1.6c-.4 0-.6.2-.7.6l-.1 4.5h1.7l.1-3.8h.1l.6 2.5c.1.4.3.6.7.6h.8c.4 0 .6-.2.7-.6l.6-2.5h.1l.1 3.8h1.7l-.1-4.5c0-.4-.2-.6-.6-.6h-1.5zm-8.7 1.2c.6 0 .8.3.8 1.4 0 1.1-.2 1.4-.8 1.4-.6 0-.8-.3-.8-1.4 0-1.1.2-1.4.8-1.4m0-1.3c-2 0-2.8.7-2.8 2.7s.8 2.7 2.8 2.7c2 0 2.8-.7 2.8-2.7s-.7-2.7-2.8-2.7m-5.2 2.6c1.2-.2 1.1-.3 1.8-2.5h-1.9c-.4 1.7-.5 1.9-1.2 1.9h-.2c0-.2.1-.4.1-.7v-1.2h-1.9v5.2h1.9v-1.6c0-.1 0-.3-.1-.4h.4c.6 0 .6.1 1.1 2.1h2c-.7-2.5-.7-2.6-2-2.8zm33.6-12.7h-.7c-.5 0-.6-.1-.6-.6 0-.4.1-.5.6-.5h.7v1.1zm-2.1.7c-.3 0-.9.1-1 .6l-.4 1.6h1.9l.3-1.4c0-.2.2-.3.5-.3h.7v1.7h1.8v-5.2c-.6-.1-1.2-.1-2.6-.1-1.9 0-2.4.4-2.4 1.7.1.5.3 1.1 1.2 1.4zm-5.5.4c0-.2.1-.4.4-.4h1.1v.6c-.3.2-.7.4-1 .4-.3 0-.5-.1-.5-.4v-.2zm-1.4-2.1c.9-.1 1.7-.1 2.2-.1.5 0 .7.2.7.6v.1h-1.7c-1 0-1.7.5-1.7 1.3v.5c0 1 .8 1.5 1.7 1.5.9 0 1.5-.5 1.9-.9l.2.8h1.5V148c0-1.5-.8-2-2.2-2-.8 0-2.1.1-2.8.3l.2 1.2zm-1.3-1.3h-3.1c-.9 0-1.4.5-1.4 1.3-.1 1-.2 1.7-.3 2-.1.4-.4.4-.9.5l.2 1.4c1.1.2 2.2-.1 2.4-1.4.1-.5.2-1.4.3-2.2 0-.3.2-.4.5-.4h.4v3.9h1.9v-5.1zm-6.4 5.2v-5.2h-1.6l-1.7 2.5c-.2.2-.3.5-.4.8 0-.3.1-.5.1-.8v-2.4h-1.7v5.2h1.7l1.6-2.4c.1-.2.3-.6.4-.9 0 .3-.1.6-.1.9v2.3h1.7zm-8.4-3.8c1.4-.2 1.4-.8 2.2-3.4h-2c-.6 2.2-.8 2.8-1.5 2.8h-.3c.1-.3.1-.6.1-.9v-1.9h-1.9v1.9c0 .3 0 .6.1.9h-.4c-.7 0-.8-.6-1.5-2.8h-2c.8 2.6.8 3.2 2.2 3.4v.1c-1.5.2-1.5.8-2.4 3.7h2c.8-2.6.9-3.1 1.6-3.1h.4c-.1.2-.1.5-.1.7v2.4h1.9V149c0-.2 0-.4-.1-.7h.3c.7 0 .8.5 1.6 3.1h2.1c-.8-3-.9-3.6-2.3-3.8zm-77.7-10.7v-7.2h-2l-1.8.7.2 1.2 1.7-.4c-.1.3-.1.6-.1.9v4.8h2zm-5-1.7c-.5 0-.7.2-.7.7v.5c0 .5.2.7.7.7h.4c.5 0 .7-.2.7-.7v-.5c0-.5-.2-.7-.7-.7h-.4zm-6.7-3.9c1-.1 1.5-.1 2.3-.1.6 0 .8 0 .8.3 0 .4-.5 1.1-1.3 1.9l-1.6 1.7c-.2.2-.3.5-.3.8v1H70v-1.7h-2.1c-.3 0-.7 0-1 .1l1.8-1.7c1-1 1.1-1.5 1.1-2.2 0-1.4-1-1.7-2.5-1.7-.8 0-1.5 0-2.6.2v1.4zm-1.4 5.6v-7.2h-2l-1.8.7.2 1.2 1.7-.4c-.1.3-.1.6-.1.9v4.8h2zm23.5-14.3c0-.2.1-.4.4-.4h1.1v.6c-.3.2-.7.4-1 .4-.3 0-.5-.1-.5-.4v-.2zm-1.4-2c.9-.1 1.7-.1 2.2-.1.5 0 .7.2.7.6v.1h-1.7c-1 0-1.7.5-1.7 1.3v.5c0 1 .8 1.5 1.7 1.5.9 0 1.5-.5 1.9-.9l.2.8h1.5v-3.3c0-1.5-.8-2-2.2-2-.8 0-2.1.1-2.8.3l.2 1.2zm-.9 0v-1.4h-5.2v1.4H81v3.8h1.9v-3.8h1.6zm-9.3 2c0-.2.1-.4.4-.4h1.1v.6c-.3.2-.7.4-1 .4-.3 0-.5-.1-.5-.4v-.2zm-1.4-2c.9-.1 1.7-.1 2.2-.1.5 0 .7.2.7.6v.1H75c-1 0-1.7.5-1.7 1.3v.5c0 1 .8 1.5 1.7 1.5.9 0 1.5-.5 1.9-.9l.2.8h1.5v-3.3c0-1.5-.8-2-2.2-2-.8 0-2.1.1-2.8.3l.2 1.2zm-1.3-1.4h-1.9v1.8H69v-1.8h-1.9v5.2H69v-2.1h1.6v2.1h1.9v-5.2zm-8.8 0c-.4 0-.6.2-.7.6l-.5 1.9c-.1.3-.1.5-.1.8h-.1c0-.3 0-.5-.1-.8l-.5-1.9c-.1-.4-.3-.6-.7-.6h-1.6c-.4 0-.6.2-.7.6l-.1 4.5h1.7l.1-3.8h.1l.6 2.5c.1.4.3.6.7.6h.8c.4 0 .6-.2.7-.6l.6-2.5h.1l.1 3.8h1.7l-.1-4.5c0-.4-.2-.6-.6-.6h-1.4zm-8.6 1.2c.6 0 .8.3.8 1.4 0 1.1-.2 1.4-.8 1.4-.6 0-.8-.3-.8-1.4 0-1.1.1-1.4.8-1.4m0-1.3c-2 0-2.8.7-2.8 2.7s.8 2.7 2.8 2.7c2 0 2.8-.7 2.8-2.7s-.8-2.7-2.8-2.7m-5.2 2.6c1.2-.2 1.1-.3 1.8-2.5h-1.9c-.4 1.7-.5 1.9-1.2 1.9h-.2c0-.2.1-.4.1-.7v-1.2h-1.9v5.2h1.9v-1.6c0-.1 0-.3-.1-.4h.4c.6 0 .6.1 1.1 2.1h2c-.8-2.6-.8-2.6-2-2.8zM83.4 109h-.7c-.5 0-.6-.1-.6-.6 0-.4.1-.5.6-.5h.7v1.1zm-2 .6c-.3 0-.9.1-1 .6l-.4 1.6h1.9l.3-1.4c0-.2.2-.3.5-.3h.7v1.7h1.8v-5.2c-.6-.1-1.2-.1-2.6-.1-1.9 0-2.4.4-2.4 1.7 0 .6.3 1.2 1.2 1.4zm-5.6.5c0-.2.1-.4.4-.4h1.1v.6c-.3.2-.7.4-1 .4-.3 0-.5-.1-.5-.4v-.2zm-1.4-2.1c.9-.1 1.7-.1 2.2-.1.5 0 .7.2.7.6v.1h-1.7c-1 0-1.7.5-1.7 1.3v.5c0 1 .8 1.5 1.7 1.5.9 0 1.5-.5 1.9-.9l.2.8h1.5v-3.3c0-1.5-.8-2-2.2-2-.8 0-2.1.1-2.8.3l.2 1.2zm-1.3-1.3H70c-.9 0-1.4.5-1.4 1.3-.1 1-.2 1.7-.3 2-.1.4-.4.4-.9.5l.2 1.4c1.1.2 2.2-.1 2.4-1.4.1-.5.2-1.4.3-2.2 0-.3.2-.4.5-.4h.4v3.9h1.9v-5.1zm-6.3 5.2v-5.2h-1.7l-1.7 2.5c-.2.2-.3.5-.4.8 0-.3.1-.5.1-.8v-2.4h-1.7v5.2h1.7l1.6-2.4c.1-.2.3-.6.4-.9 0 .3-.1.6-.1.9v2.3h1.8zm-8.5-3.8c1.4-.2 1.4-.8 2.2-3.4h-2c-.6 2.2-.8 2.8-1.5 2.8h-.3c.1-.3.1-.6.1-.9v-1.9h-1.9v1.9c0 .3 0 .6.1.9h-.4c-.7 0-.8-.6-1.5-2.8h-2c.8 2.6.8 3.2 2.2 3.4v.1c-1.5.2-1.5.8-2.4 3.7h2c.8-2.6.9-3.1 1.6-3.1h.5c-.1.2-.1.5-.1.7v2.4h1.9v-2.4c0-.2 0-.4-.1-.7h.3c.7 0 .8.5 1.6 3.1h2.1c-.8-3-.9-3.6-2.4-3.8zm17.8 248.5c.8 0 1 .2 1 .9s-.2.9-1 .9-1-.2-1-.9.2-.9 1-.9m0-2.9c.7 0 .9.2.9.9 0 .6-.1.8-.9.8-.7 0-.9-.1-.9-.8 0-.8.2-.9.9-.9m-1.6 2.3c-1 .1-1.3 1-1.3 1.9 0 1.4.6 2 2.8 1.9 2.3 0 2.8-.5 2.8-1.9 0-1-.2-1.8-1.3-1.9.8-.1 1.1-.9 1.1-1.7 0-1.3-.5-1.9-2.7-1.9s-2.6.6-2.6 1.9c.1.7.4 1.5 1.2 1.7zm-3.3 1.9c-.5 0-.7.2-.7.7v.5c0 .5.2.7.7.7h.4c.5 0 .7-.2.7-.7v-.5c0-.5-.2-.7-.7-.7h-.4zm-6.7-3.9c1-.1 1.5-.1 2.3-.1.6 0 .8 0 .8.3 0 .4-.5 1.1-1.3 1.9l-1.6 1.7c-.2.2-.3.5-.3.8v1h5.4V358h-2.1c-.3 0-.7 0-1 .1l1.8-1.7c1-1 1.1-1.5 1.1-2.2 0-1.4-1-1.7-2.5-1.7-.8 0-1.5 0-2.6.2v1.3zm-1.4 5.7v-7.2h-2l-1.8.7.2 1.2 1.7-.4c-.1.3-.1.6-.1.9v4.8h2zm24.7-14.4c0-.2.1-.4.4-.4h1.1v.6c-.3.2-.7.4-1 .4-.3 0-.5-.1-.5-.4v-.2zm-1.4-2c.9-.1 1.7-.1 2.2-.1.5 0 .7.2.7.6v.1h-1.7c-1 0-1.7.5-1.7 1.3v.5c0 1 .8 1.5 1.7 1.5.9 0 1.5-.5 1.9-.9l.2.8h1.5v-3.3c0-1.5-.8-2-2.2-2-.8 0-2.1.1-2.8.3l.2 1.2zm-.9.1V342h-5.2v1.4H82v3.8h1.9v-3.8h1.6zm-9.3 1.9c0-.2.1-.4.4-.4h1.1v.6c-.3.2-.7.4-1 .4-.3 0-.5-.1-.5-.4v-.2zm-1.4-2c.9-.1 1.7-.1 2.2-.1.5 0 .7.2.7.6v.1H76c-1 0-1.7.5-1.7 1.3v.5c0 1 .8 1.5 1.7 1.5.9 0 1.5-.5 1.9-.9l.2.8h1.5v-3.3c0-1.5-.8-2-2.2-2-.8 0-2.1.1-2.8.3l.2 1.2zm-1.3-1.3h-1.9v1.8H70V342h-1.9v5.2H70V345h1.6v2.1h1.9V342zm-8.8 0c-.4 0-.6.2-.7.6l-.5 1.9c-.1.3-.1.5-.1.8h-.1c0-.3 0-.5-.1-.8l-.5-1.9c-.1-.4-.3-.6-.7-.6h-1.6c-.4 0-.6.2-.7.6l-.1 4.5h1.7l.1-3.8h.1l.6 2.5c.1.4.3.6.7.6h.8c.4 0 .6-.2.7-.6l.6-2.5h.1l.1 3.8h1.7l-.1-4.5c0-.4-.2-.6-.6-.6h-1.4zm-8.6 1.1c.6 0 .8.3.8 1.4 0 1.1-.2 1.4-.8 1.4-.6 0-.8-.3-.8-1.4 0-1.1.1-1.4.8-1.4m0-1.3c-2 0-2.8.7-2.8 2.7s.8 2.7 2.8 2.7c2 0 2.8-.7 2.8-2.7s-.8-2.7-2.8-2.7m-5.2 2.6c1.2-.2 1.1-.3 1.8-2.5h-1.9c-.4 1.7-.5 1.9-1.2 1.9h-.2c0-.2.1-.4.1-.7V342h-1.9v5.2h1.9v-1.6c0-.1 0-.3-.1-.4h.4c.6 0 .6.1 1.1 2.1h2c-.8-2.6-.8-2.7-2-2.9zm33.5-12.7h-.7c-.5 0-.6-.1-.6-.6 0-.4.1-.5.6-.5h.7v1.1zm-2 .7c-.3 0-.9.1-1 .6l-.4 1.6h1.9l.3-1.4c0-.2.2-.3.5-.3h.7v1.7h1.8v-5.2c-.6-.1-1.2-.1-2.6-.1-1.9 0-2.4.4-2.4 1.7 0 .6.3 1.2 1.2 1.4zm-5.6.4c0-.2.1-.4.4-.4h1.1v.6c-.3.2-.7.4-1 .4-.3 0-.5-.1-.5-.4v-.2zm-1.4-2c.9-.1 1.7-.1 2.2-.1.5 0 .7.2.7.6v.1h-1.7c-1 0-1.7.5-1.7 1.3v.5c0 1 .8 1.5 1.7 1.5.9 0 1.5-.5 1.9-.9l.2.8h1.5v-3.3c0-1.5-.8-2-2.2-2-.8 0-2.1.1-2.8.3l.2 1.2zm-1.3-1.4H71c-.9 0-1.4.5-1.4 1.3-.1 1-.2 1.7-.3 2-.1.4-.4.4-.9.5l.2 1.4c1.1.2 2.2-.1 2.4-1.4.1-.5.2-1.4.3-2.2 0-.3.2-.4.5-.4h.4v3.9h1.9v-5.1zm-6.4 5.2v-5.2H66l-1.7 2.5c-.2.2-.3.5-.4.8 0-.3.1-.5.1-.8v-2.4h-1.7v5.2H64l1.6-2.4c.1-.2.3-.6.4-.9 0 .3-.1.6-.1.9v2.3h1.8zm-8.4-3.8c1.4-.2 1.4-.8 2.2-3.4h-2c-.6 2.2-.8 2.8-1.5 2.8h-.3c.1-.3.1-.6.1-.9v-1.9h-1.9v1.9c0 .3 0 .6.1.9h-.4c-.7 0-.8-.6-1.5-2.8h-2c.8 2.6.8 3.2 2.2 3.4v.1c-1.5.2-1.5.8-2.4 3.7h2c.8-2.6.9-3.1 1.6-3.1h.5c-.1.2-.1.5-.1.7v2.4h1.9v-2.4c0-.2 0-.4-.1-.7h.3c.7 0 .8.5 1.6 3.1h2.1c-.8-3-.9-3.5-2.4-3.8zm116.1-207.3h4.6c1.7 0 2.1.2 2.1 1.6 0 1.1-.1 1.8-1.9 1.8H177v2.9h3.2c1.8 0 2.1.5 2.1 1.9 0 1.7-.6 2-2.7 2-1.4 0-2.5 0-4.6-.1l-.1 3.2c1.9.3 3.9.5 5.9.5 4.4 0 6-1.4 5.9-4.9 0-2.5-.7-3.8-3.1-4.1v-.1c2.1-.3 2.6-1.8 2.6-4.2 0-2.9-1.5-3.8-5.6-3.8-1.8 0-3.7.1-5.5.5l.3 2.8zm-4.8 9.2c-1.1 0-1.5.4-1.5 1.5v1.1c0 1.1.4 1.5 1.5 1.5h1c1.1 0 1.5-.4 1.5-1.5v-1.1c0-1.1-.4-1.5-1.5-1.5h-1zm-4-9.2.2-3.3h-10.3l-.4 7.4c0 .8.5 1.4 1.3 1.5l2.6.3c2.2.2 3 .5 3 2.1-.1 1.3-.6 1.9-2.7 1.9-1.2 0-2.7-.1-4.3-.2l-.4 3.4c2.1.3 4.2.5 5.9.5 4.7 0 6-2.4 6-5.4 0-2.7-1-5-4.8-5.4l-2.7-.4.2-2.3h6.4zm-18.8 10.3c-1.9 0-2.1-.6-2.1-4.3.8-.5 1.3-.6 2.1-.6 1.6 0 1.9.4 1.9 2.2 0 1.9-.1 2.7-1.9 2.7m5-13.4c-1.7-.5-3.4-.5-4.3-.5-4.8 0-7.2 1.2-7.2 8.7 0 6.7 1.5 8.4 6.4 8.4 5 0 6.1-1.9 6.1-6 0-3.6-1.1-5.1-4.8-5.1-1.5 0-2.5.2-3.4 1 .1-3.1.7-3.6 2.8-3.6h4.1l.3-2.9z" class="st28"/><path d="M164.1 116.3c8.1 0 14.6-6.6 14.6-14.6 0-8.1-6.6-14.6-14.6-14.6-8.1 0-14.6 6.6-14.6 14.6-.1 8.1 6.5 14.6 14.6 14.6z" style="clip-path:url(#SVGID_30_);fill:none;stroke:#3c3c3b;stroke-width:1.004"/><path d="M174 105.2c-1.2.1-2.2.1-3.9.1-1.5 0-1.9-.8-1.9-3.6s.4-3.6 1.9-3.6c1.7 0 2.5 0 3.7.1l.3-2.5c-1.2-.3-2.1-.5-3.9-.5-4 0-5.5 1.7-5.5 6.5s1.5 6.5 5.5 6.5c1.9 0 3-.1 4.2-.6l-.4-2.4zM154.5 98h3.5c1.3 0 1.6.2 1.6 1.2 0 .9-.1 1.4-1.5 1.4h-2.4v2.2h2.4c1.3 0 1.6.4 1.6 1.5 0 1.3-.5 1.5-2.1 1.5-1.1 0-1.9 0-3.5-.1l-.1 2.4c1.4.2 3 .3 4.5.3 3.3 0 4.5-1.1 4.5-3.7 0-1.9-.6-2.9-2.3-3.1v-.1c1.6-.3 2-1.4 2-3.1 0-2.2-1.2-2.9-4.2-2.9-1.4 0-2.8.1-4.2.3l.2 2.2zM72.6 287c0-.9.1-1.2.8-1.2.8 0 .9.3.9 1.9-.3.2-.6.3-.9.3-.6 0-.8-.2-.8-1m-1.5 4.7c.8.2 1.6.2 2 .2 2.3 0 3.1-.5 3.1-3.8 0-2.9-.5-3.7-2.8-3.7-2.1 0-2.7.8-2.7 2.6 0 1.3.5 2.2 2.1 2.2.6 0 1.1-.1 1.5-.4-.1 1.2-.3 1.6-1.3 1.6h-1.9v1.3zm-2.2-1.7c-.5 0-.7.2-.7.7v.5c0 .5.2.7.7.7h.4c.5 0 .7-.2.7-.7v-.5c0-.5-.2-.7-.7-.7h-.4zm-1.7-4 .1-1.4h-4.5l-.2 3.2c0 .3.2.6.6.6l1.1.1c1 .1 1.3.2 1.3.9 0 .6-.3.8-1.2.8-.5 0-1.2 0-1.9-.1l-.2 1.5c.9.1 1.8.2 2.6.2 2 0 2.6-1.1 2.6-2.4 0-1.2-.4-2.2-2.1-2.4l-1.2-.2.1-1h2.9zm31.1-8.6c0-.2.1-.4.4-.4h1.1v.6c-.3.2-.7.4-1 .4-.3 0-.5-.1-.5-.4v-.2zm-1.4-2c.9-.1 1.7-.1 2.2-.1.5 0 .7.2.7.6v.1h-1.7c-1 0-1.7.5-1.7 1.3v.5c0 1 .8 1.5 1.7 1.5.9 0 1.5-.5 1.9-.9l.2.8h1.5v-3.3c0-1.5-.8-2-2.2-2-.8 0-2.1.1-2.8.3l.2 1.2zm-1.3-1.4h-1.8v3.9h-1.2V274h-1.7v3.9h-1.2V274h-1.8v5.2h7.8V274zm-9 5.3V274H85l-1.7 2.5c-.2.2-.3.5-.4.8 0-.3.1-.5.1-.8V274h-1.7v5.2h1.6l1.6-2.4c.1-.2.3-.6.4-.9 0 .3-.1.6-.1.9v2.3h1.8zm-6.4-5.3h-1.9v1.8h-1.6V274h-1.9v5.2h1.9v-2.1h1.6v2.1h1.9V274zm-6.5 2h-3.1v1.1h3.1V276zm-8.2.4h-.7c-.5 0-.6-.1-.6-.6 0-.4.1-.5.6-.5h.7v1.1zm-2 .6c-.3 0-.9.1-1 .6l-.4 1.6H64l.3-1.4c0-.2.2-.3.5-.3h.7v1.7h1.8V274c-.6-.1-1.2-.1-2.6-.1-1.9 0-2.4.4-2.4 1.7 0 .6.3 1.2 1.2 1.4zm-2.2-3h-1.9v1.8h-1.6V274H56v5.2h1.9v-2.1h1.6v2.1h1.9V274zm-7.8 5.2h1.9l-1.5-2.7 1.4-2.5h-1.9l-1 1.9-1-1.9h-1.9l1.4 2.5-1.5 2.7h1.9l1.1-2.1 1.1 2.1zm-4.2-5.2h-2l-.8 3.1c-.1.2-.1.6-.2.9h-.1c0-.3-.1-.6-.1-.9l-.8-3.1h-2l1.6 4.7c.1.3.3.4.6.4h.3c-.1.3-.3.5-.5.6-.3.2-.8.2-1.5.2l-.2 1.2c.7.1 1.5.1 2.1-.1.8-.3 1.4-.8 1.8-2l1.8-5zm-8.6 1.4c1.4-.2 1.5-.8 2.3-3.4h-2c-.6 2.2-.7 2.8-1.7 2.8H39c.1-.3.1-.6.1-.9V272h-2v7.2h2v-2.4c0-.2 0-.4-.1-.7h.4c1 0 1.1.5 1.8 3.1h2c-.9-2.9-1-3.5-2.5-3.8zm27.8-72.7.1 1.1h2.2c-.1.2-.2.4-.2.5l-1.2 3.4h1.3l1.5-4.4c.1-.4-.1-.7-.5-.7h-3.2zm-1 3.8c-.4 0-.5.1-.5.5v.3c0 .4.1.5.5.5h.3c.4 0 .5-.1.5-.5v-.3c0-.4-.1-.5-.5-.5h-.3zm-4.6-2.8h1.4c.5 0 .7.1.7.5 0 .3 0 .5-.6.5h-1v.9h1c.5 0 .7.2.7.6 0 .5-.2.6-.8.6h-1.4v1c.6.1 1.2.1 1.8.1 1.3 0 1.8-.4 1.8-1.5 0-.8-.2-1.2-.9-1.3.7-.1.8-.6.8-1.3 0-.9-.5-1.2-1.7-1.2-.6 0-1.1 0-1.7.1l-.1 1zM79 197h-.5c-.3 0-.4-.1-.4-.5 0-.3.1-.3.4-.3h.5v.8zm-1.4.4c-.2 0-.6.1-.7.4l-.3 1.1H78l.2-1c0-.2.1-.2.3-.2h.5v1.2h1.3v-3.7c-.5-.1-.8-.1-1.8-.1-1.3 0-1.7.3-1.7 1.2 0 .5.1 1 .8 1.1zm-3.9.3c0-.2.1-.3.3-.3h.8v.5c-.2.2-.5.2-.7.2-.2 0-.4-.1-.4-.3v-.1zm-1-1.4c.6 0 1.2-.1 1.6-.1.4 0 .5.1.5.4v.1h-1.2c-.7 0-1.2.4-1.2.9v.4c0 .7.5 1 1.2 1 .6 0 1-.3 1.3-.6l.1.6h1.1v-2.3c0-1.1-.5-1.4-1.5-1.4-.5 0-1.4.1-2 .2l.1.8zm-.9-1h-1.3v1.3h-1.1v-1.3h-1.3v3.6h1.3v-1.5h1.1v1.5h1.3v-3.6zm-4.5 0H66v1.3h-1.1v-1.3h-1.3v3.6h1.3v-1.5H66v1.5h1.3v-3.6zm-6.9 2.4c0-.2.1-.3.3-.3h.8v.5c-.2.2-.5.2-.7.2-.2 0-.4-.1-.4-.3v-.1zm-1-1.4c.6 0 1.2-.1 1.6-.1.4 0 .5.1.5.4v.1h-1.2c-.7 0-1.2.4-1.2.9v.4c0 .7.5 1 1.2 1 .6 0 1-.3 1.3-.6l.1.5h1.1v-2.3c0-1.1-.5-1.4-1.5-1.4-.5 0-1.4.1-2 .2l.1.9zm-3.5 1.7v-1.3h.7c.5 0 .7.1.7.7 0 .5-.1.6-.6.6h-.8zm0-2.1v-1.1h.6c.5 0 .6.1.6.5 0 .5-.1.6-.6.6h-.6zm1.7.4c.6-.1.9-.4.9-1.1 0-1-.5-1.3-1.8-1.3-.9 0-1.4 0-2.1.1v5c.7.1 1.3.1 2.3.1 1.2 0 1.8-.3 1.8-1.3-.1-.9-.4-1.4-1.1-1.5zM70 239.4c-.6 0-.6-.2-.7-1.3.2-.1.4-.2.6-.2.5 0 .6.1.6.7.1.6.1.8-.5.8m1.6-4.1c-.5-.1-1-.1-1.3-.1-1.5 0-2.2.4-2.2 2.7 0 2 .5 2.6 2 2.6s1.9-.6 1.9-1.9c0-1.1-.3-1.6-1.5-1.6-.4 0-.8.1-1 .3 0-.9.2-1.1.9-1.1h1.2v-.9zm-4.9 3.7c-.4 0-.5.1-.5.5v.3c0 .4.1.5.5.5h.3c.4 0 .5-.1.5-.5v-.3c0-.4-.1-.5-.5-.5h-.3zm-1.4 1.3v-5H64l-1.3.5.2.9 1.2-.3c0 .2-.1.4-.1.6v3.3h1.3zm8.4-12.4h-1.4l-.5 2.2c0 .2-.1.4-.2.6h-.1c0-.2-.1-.4-.1-.6l-.5-2.2h-1.4l1.1 3.3c.1.2.2.3.4.3h.2c-.1.2-.2.4-.4.4-.2.1-.6.2-1 .2l-.1.9c.5.1 1.1.1 1.5-.1.6-.2 1-.6 1.2-1.4l1.3-3.6zm-7.1 4.2 2.9-5.6h-1.1l-2.9 5.6h1.1zm-1.5-1.7c-.5.1-.9.1-1.6.1-.6 0-.8-.3-.8-1.4 0-1.1.2-1.4.8-1.4H65l.1-1c-.5-.1-.8-.2-1.6-.2-1.6 0-2.2.7-2.2 2.6s.6 2.6 2.2 2.6c.8 0 1.2-.1 1.7-.2l-.1-1.1zm102.3-9.7h2c.7 0 .9.1.9.7 0 .5-.1.8-.8.8h-1.4v1.3h1.4c.8 0 .9.2.9.8 0 .7-.3.9-1.2.9-.6 0-1.1 0-2-.1l-.1 1.4c.8.1 1.7.2 2.6.2 1.9 0 2.6-.6 2.6-2.2 0-1.1-.3-1.6-1.3-1.8.9-.1 1.1-.8 1.1-1.8 0-1.3-.7-1.7-2.4-1.7-.8 0-1.6.1-2.4.2l.1 1.3zm-2.1 4c-.5 0-.7.2-.7.7v.5c0 .5.2.7.7.7h.4c.5 0 .7-.2.7-.7v-.5c0-.5-.2-.7-.7-.7h-.4zm-6.1-5.4.1 1.6h3.1c-.2.3-.3.5-.4.8l-1.7 4.9h1.9l2.2-6.3c.2-.5-.2-1-.7-1h-4.5zm31-8.2h-.7c-.5 0-.6-.1-.6-.6 0-.4.1-.5.6-.5h.7v1.1zm-2 .6c-.3 0-.9.1-1 .6l-.4 1.6h1.9l.3-1.4c0-.2.2-.3.5-.3h.7v1.7h1.8v-5.2c-.6-.1-1.2-.1-2.6-.1-1.9 0-2.4.4-2.4 1.7.1.6.3 1.2 1.2 1.4zm-5.5.4c0-.2.1-.4.4-.4h1.1v.6c-.3.2-.7.4-1 .4-.3 0-.5-.1-.5-.4v-.2zm-1.5-2c.9-.1 1.7-.1 2.2-.1.5 0 .7.2.7.6v.1h-1.7c-1 0-1.7.5-1.7 1.3v.5c0 1 .8 1.5 1.7 1.5.9 0 1.5-.5 1.9-.9l.2.8h1.5v-3.3c0-1.5-.8-2-2.2-2-.8 0-2.1.1-2.8.3l.2 1.2zm-2.9 1.1c1.2-.2 1.2-.3 1.9-2.5h-1.9c-.5 1.7-.6 1.9-1.1 1.9h-.3c0-.2.1-.4.1-.6v-1.2h-1.7v1.2c0 .2 0 .4.1.6h-.4c-.5 0-.6-.2-1.1-1.9H172c.7 2.1.6 2.3 1.8 2.5v.1c-1.3.2-1.3.3-2 2.7h1.9c.7-2 .7-2.1 1.1-2.1h.4c0 .2-.1.3-.1.4v1.7h1.7v-1.7c0-.1 0-.3-.1-.4h.4c.5 0 .5.1 1.2 2.1h1.9c-.6-2.5-.6-2.6-1.9-2.8zm-9.7-1.3c.6 0 .8.3.8 1.4 0 1.1-.2 1.4-.8 1.4-.6 0-.8-.3-.8-1.4 0-1.1.2-1.4.8-1.4m0-1.3c-2 0-2.8.7-2.8 2.7s.8 2.7 2.8 2.7c2 0 2.8-.7 2.8-2.7s-.7-2.7-2.8-2.7m-4.9 5.3h1.9l-1.5-2.7 1.4-2.5h-1.9l-1 1.9-1-1.9h-1.9l1.4 2.5-1.5 2.7h1.9l1.1-2.1 1.1 2.1zm-4.8 0v-5.2h-1.7l-1.7 2.5c-.2.2-.3.5-.4.8 0-.3.1-.5.1-.8v-2.4h-1.7v5.2h1.7l1.6-2.4c.1-.2.3-.6.4-.9 0 .3-.1.6-.1.9v2.3h1.8zm-9.8-3.5c.3-.2.6-.3 1-.3.5 0 .7.2.7 1.4s-.2 1.4-.7 1.4c-.4 0-.6-.1-.9-.2v-2.3zm-.4-1.7h-1.5v7.1h1.9v-2.2c.5.3 1 .5 1.7.5 1.3 0 2-.6 2-2.7 0-1.8-.5-2.8-1.8-2.8-.8 0-1.6.4-2 .9l-.3-.8zm-2.8-2h-6v7.2h2V208h2.1v5.9h2v-7.2zm-31.5 12.7h1.4c.5 0 .7.1.7.5 0 .3 0 .5-.6.5h-1v.9h1c.5 0 .7.2.7.6 0 .5-.2.6-.8.6h-1.4v1c.6.1 1.2.1 1.8.1 1.3 0 1.8-.4 1.8-1.5 0-.8-.2-1.2-.9-1.3.7-.1.8-.6.8-1.3 0-.9-.5-1.2-1.7-1.2-.6 0-1.1 0-1.7.1l-.1 1zm-1.5 2.9c-.4 0-.5.1-.5.5v.3c0 .4.1.5.5.5h.3c.4 0 .5-.1.5-.5v-.3c0-.4-.1-.5-.5-.5h-.3zm-4.5-2.9h1.4c.5 0 .7.1.7.5 0 .3 0 .5-.6.5h-1v.9h1c.5 0 .7.2.7.6 0 .5-.2.6-.8.6h-1.4v1c.6.1 1.2.1 1.8.1 1.3 0 1.8-.4 1.8-1.5 0-.8-.2-1.2-.9-1.3.7-.1.8-.6.8-1.3 0-.9-.5-1.2-1.7-1.2-.6 0-1.1 0-1.7.1l-.1 1zm17.9-7.2c.2-.1.4-.2.7-.2.3 0 .5.1.5 1 0 .8-.1 1-.5 1-.3 0-.4-.1-.6-.1v-1.7zm-.3-1.1h-1.1v5h1.3v-1.6c.3.2.7.3 1.2.3.9 0 1.4-.4 1.4-1.9 0-1.2-.4-1.9-1.3-1.9-.6 0-1.1.3-1.4.6l-.1-.5zm-3.7.8c.4 0 .6.2.6 1s-.1 1-.6 1-.6-.2-.6-1c.1-.8.2-1 .6-1m0-.9c-1.4 0-2 .5-2 1.9s.5 1.9 2 1.9c1.4 0 2-.5 2-1.9s-.5-1.9-2-1.9m-4.1 2.8h-1.1c.2-.4.3-.9.4-1.6 0-.2.1-.3.3-.3h.3v1.9zm1.8 0h-.6v-2.7h-2c-.7 0-1 .3-1.1.9-.1.6-.2 1.2-.4 1.9h-.5v1.9h.9l.1-1h2.6l.1 1h.9v-2zm-5 .9v-3.6h-1.2l-1.2 1.7c-.1.2-.2.3-.3.5 0-.2.1-.4.1-.6V211h-1.2v3.6h1.2l1.1-1.7.3-.6c0 .2-.1.4-.1.6v1.6h1.3zm-7-2.5c.2-.1.4-.2.7-.2.3 0 .5.1.5 1 0 .8-.1 1-.5 1-.3 0-.4-.1-.6-.1v-1.7zm-.2-1.1h-1.1v5h1.3v-1.6c.3.2.7.3 1.2.3.9 0 1.4-.4 1.4-1.9 0-1.2-.4-1.9-1.3-1.9-.6 0-1.1.3-1.4.6l-.1-.5zm-3.7.8c.4 0 .6.2.6 1s-.1 1-.6 1-.6-.2-.6-1c.1-.8.2-1 .6-1m0-.9c-1.4 0-2 .5-2 1.9s.5 1.9 2 1.9c1.4 0 2-.5 2-1.9s-.5-1.9-2-1.9m-3.9 1.1c1-.1 1-.6 1.6-2.4h-1.4c-.4 1.5-.5 2-1.2 2H99c0-.2.1-.4.1-.6v-1.3h-1.4v5H99V213c0-.1 0-.3-.1-.5h.3c.7 0 .8.3 1.3 2.2h1.4c-.6-2.1-.7-2.4-1.7-2.6zm64.7-161.2c.8 0 1 .2 1 .9s-.2.9-1 .9-1-.2-1-.9.2-.9 1-.9m0-2.9c.7 0 .9.2.9.9 0 .6-.1.8-.9.8-.7 0-.9-.1-.9-.8 0-.8.2-.9.9-.9m-1.6 2.3c-1 .1-1.3 1-1.3 1.9 0 1.4.6 2 2.8 1.9 2.3 0 2.8-.5 2.8-1.9 0-1-.2-1.8-1.3-1.9.8-.1 1.1-.9 1.1-1.7 0-1.3-.5-1.9-2.7-1.9s-2.6.6-2.6 1.9c.1.7.4 1.5 1.2 1.7zm-3.3 1.9c-.5 0-.7.2-.7.7v.5c0 .5.2.7.7.7h.4c.5 0 .7-.2.7-.7v-.5c0-.5-.2-.7-.7-.7h-.4zm-4.3-1.3c.8 0 1 .2 1 .9s-.2.9-1 .9-1-.2-1-.9.1-.9 1-.9m0-2.9c.7 0 .9.2.9.9 0 .6-.1.8-.9.8-.7 0-.9-.1-.9-.8 0-.8.1-.9.9-.9m-1.6 2.3c-1 .1-1.3 1-1.3 1.9 0 1.4.6 2 2.8 1.9 2.3 0 2.8-.5 2.8-1.9 0-1-.2-1.8-1.3-1.9.8-.1 1.1-.9 1.1-1.7 0-1.3-.5-1.9-2.7-1.9s-2.6.6-2.6 1.9c.1.7.4 1.5 1.2 1.7zm24.5-11.7h-.7c-.5 0-.6-.1-.6-.6 0-.4.1-.5.6-.5h.7v1.1zm-2 .6c-.3 0-.9.1-1 .6l-.4 1.6h1.9l.3-1.4c0-.2.2-.3.5-.3h.7v1.7h1.8v-5.2c-.6-.1-1.2-.1-2.6-.1-1.9 0-2.4.4-2.4 1.7.1.6.3 1.2 1.2 1.4zm-2.2 2.2v-5.2h-1.7l-1.7 2.5c-.2.2-.3.5-.4.8 0-.3.1-.5.1-.8v-2.4H169v5.2h1.7l1.6-2.4c.1-.2.3-.6.4-.9 0 .3-.1.6-.1.9v2.3h1.8zm-8-2.7c1.2-.2 1.2-.3 1.8-2.5h-1.9c-.5 1.7-.6 1.9-1.1 1.9h-.3c0-.2.1-.4.1-.6v-1.2h-1.7v1.2c0 .2 0 .4.1.6h-.4c-.5 0-.6-.2-1.1-1.9H160c.7 2.1.6 2.3 1.9 2.5v.1c-1.3.2-1.3.3-2 2.7h1.9c.7-2 .7-2.1 1.1-2.1h.4c0 .2-.1.3-.1.4v1.7h1.7v-1.7c0-.1 0-.3-.1-.4h.4c.5 0 .5.1 1.2 2.1h1.9c-.6-2.5-.7-2.6-1.9-2.8zm-9.5 1.5h-1.5c.3-.6.4-1.3.6-2.3 0-.3.2-.4.5-.4h.5v2.7zm2.7 0h-.9v-3.9h-2.9c-.9 0-1.4.4-1.5 1.3-.1.9-.3 1.8-.6 2.7h-.6V43h1.3l.1-1.4h3.7l.1 1.4h1.3v-2.8zm-9.7-2.8c.6 0 .8.3.8 1.4 0 1.1-.2 1.4-.8 1.4-.6 0-.8-.3-.8-1.4 0-1.1.2-1.4.8-1.4m0-1.3c-2 0-2.8.7-2.8 2.7s.8 2.7 2.8 2.7c2 0 2.8-.7 2.8-2.7s-.8-2.7-2.8-2.7m-3.8-1.9h-3.3c-1.1 0-1.7.6-1.8 1.7-.1 1.7-.3 2.7-.5 3.3-.2.5-.5.6-1 .7l.1 1.5c1.3.2 2.2-.2 2.7-1.7.3-.9.4-2.2.6-3.7 0-.4.2-.5.6-.5h.7v5.9h2v-7.2z" class="st28"/><path d="M118.3 20.8h88.3V24h-88.3zM20.856 34.476l94.711-13.722.459 3.167-94.711 13.722z" class="st3"/></g></switch></svg>