<svg xmlns="http://www.w3.org/2000/svg" xmlns:xlink="http://www.w3.org/1999/xlink" xml:space="preserve" id="Слой_1" x="0" y="0" style="enable-background:new 0 0 612 647" version="1.1" viewBox="0 0 612 647"><style>.st1{fill:none;stroke:#39373a;stroke-width:.669}.st2,.st3{fill:#39373a}.st3,.st4{clip-path:url(#SVGID_2_)}.st4,.st5{fill:none;stroke:#39373a;stroke-width:.279}.st6,.st7{clip-path:url(#SVGID_4_);fill:#39373a}.st7{fill:none;stroke:#39373a;stroke-width:.279}.st8,.st9{clip-path:url(#SVGID_6_);fill:#39373a}.st9{fill:none;stroke:#39373a;stroke-width:.279}.st10,.st11,.st12{clip-path:url(#SVGID_8_);fill:#39373a}.st11,.st12{fill:none;stroke:#39373a;stroke-width:.279}.st12{stroke-width:.236}.st15{stroke-width:.645}.st15,.st16,.st17,.st30{fill:none;stroke:#39373a}.st16{stroke-width:.615}.st17{stroke-width:.211}.st30{clip-path:url(#SVGID_24_);stroke-width:.501}.st33,.st71{fill:none;stroke:#39373a;stroke-width:.556}.st71{stroke-width:.588}.st72{clip-path:url(#SVGID_96_);fill:#39373a}</style><switch><g><path d="M39 192h163.8v282.5H39z" style="fill:#fff5a4"/><path d="M44.8 181.3h41.1v2.4H44.8zm84.1 0H170v2.4h-41.1zm-9.2-37.8h75.8v3.6h-75.8zm-82.2 10.2v3.6l81.5-10.2v-3.6zM210 128.3h41.1v2.6H210zM258 70h57.7v9H258zm3.5-26.9h46.7V70h-46.7zM317.2 70h57.7v9h-57.7z" class="st1"/><path d="M258 74.6h57.7v1.9H258zm59.2 0h57.7v1.9h-57.7zM44.8 183.8h38.8v7.9H44.8zm84.1 0h38.8v7.9h-38.8z" class="st1"/><path d="M35.7 181H58v3.1H35.7zm84.2 0h22.3v3.1h-22.3z" class="st2"/><path d="M98.9 181h22.3v3.1H98.9zm146.7-53h26.8v3.1h-26.8zm-51.3 0h26.8v3.1h-26.8zm-11.2 53h22.3v3.1h-22.3zm-147.4 2h20.2v9.1H35.7z" class="st2"/><path d="M119.9 183h20.2v9.1h-20.2z" class="st2"/><path d="M101 183h20.2v9.1H101zm146.7-53h24.7v9.1h-24.7zm60.2-2h23.9v11.1h-23.9z" class="st2"/><path d="M314.6 137.6h8.3v11.1h-8.3zm0 29.5h8.3v11.1h-8.3z" class="st2"/><path d="M312.8 174.3h7.5v3.9h-7.5zm-65.9 0h29.3v3.9h-29.3zm17.8 16.7h14.6v3.9h-14.6z" class="st2"/><path d="M270.1 177.4h3.9V192h-3.9zm38.7 13.6h16.3v3.9h-16.3zm-103.7-16.7h11.7v3.9h-11.7zm55.7-39.2h3.9v13.6h-3.9zm60.2 35.3h51.3v7.8H321z" class="st2"/><path d="M323.4 174.9h3.4v31.2h-3.4zm0 62.1h3.4v19.9h-3.4zm-16.7 51.3h34.6v4.3h-34.6zm-101.6 0h71.4v4.3h-71.4zm55.4-115.7h4.3v115.7h-4.3z" class="st2"/><path d="M323.4 275.2h3.4v16.7h-3.4zm1.3-100.3h48.2v7.2h-48.2zm0 69.5h48.2v3.2h-48.2z" class="st2"/><path d="M324.7 284.3h48.2v8.2h-48.2z" class="st2"/><path d="M367 177.3h10v115.2h-10zm-5.7-49.3h23.9v14.3h-23.9zm89.7-15.9h9.4v34.6H451zm0-42.6h9.4v9.8H451z" class="st2"/><path d="M456.4 145.4h5.1v44.8h-5.1zm-86.2-23.3h16.4v69.5h-16.4zm-59.3 5.9H334v2.6h-23.1z" class="st2"/><path d="M358.6 128h21.6v2.6h-21.6zm-164.3 2H219v12.5h-24.7zm-9.1 53h20.2v9.1h-20.2zM33.6 153.3h5.5V485h-5.5z" class="st2"/><defs><path id="SVGID_1_" d="M33.6 25.7h554.9v603.6H33.6z"/></defs><clipPath id="SVGID_2_"><use xlink:href="#SVGID_1_" style="overflow:visible"/></clipPath><path d="M64.6 331.4c0-2.6-2.1-4.7-4.8-4.7H53c-.5 0-.8.4-.8.8v7.8c0 .4.4.8.8.8h6.9c2.6.1 4.7-2.1 4.7-4.7m-12.8 3.9v-7.8c0-.6.5-1.1 1.1-1.1h6.9c2.8 0 5.1 2.3 5.1 5 0 2.8-2.3 5-5.1 5H53c-.7.1-1.2-.4-1.2-1.1" class="st3"/><path d="M64.6 331.4c0-2.6-2.1-4.7-4.8-4.7H53c-.5 0-.8.4-.8.8v7.8c0 .4.4.8.8.8h6.9c2.6.1 4.7-2.1 4.7-4.7zm-12.8 3.9v-7.8c0-.6.5-1.1 1.1-1.1h6.9c2.8 0 5.1 2.3 5.1 5 0 2.8-2.3 5-5.1 5H53c-.7.1-1.2-.4-1.2-1.1z" class="st4"/><path d="M54.4 328.1v6.8s0 .1.1.1h5.2c1.9 0 3.5-1.6 3.5-3.5s-1.6-3.5-3.5-3.5l-5.3.1c.1-.1 0-.1 0 0z" class="st4"/><path d="M54.6 328.1v6.6h5.1c1.8 0 3.3-1.5 3.3-3.3 0-1.8-1.5-3.3-3.3-3.3h-5.1zm-.3 6.7V328c0-.1.1-.2.2-.2h5.2c2 0 3.7 1.6 3.7 3.6s-1.6 3.6-3.7 3.6h-5.2c-.1.1-.2-.1-.2-.2" class="st3"/><path d="M54.6 328.1v6.6h5.1c1.8 0 3.3-1.5 3.3-3.3 0-1.8-1.5-3.3-3.3-3.3h-5.1zm-.3 6.7V328c0-.1.1-.2.2-.2h5.2c2 0 3.7 1.6 3.7 3.6s-1.6 3.6-3.7 3.6h-5.2c-.1.1-.2-.1-.2-.2z" class="st4"/><path d="M59.7 331.4c0-.5-.4-.9-.9-.9s-.9.4-.9.9.4.9.9.9.9-.4.9-.9m-2.1 0c0-.7.5-1.2 1.2-1.2s1.2.5 1.2 1.2-.5 1.2-1.2 1.2c-.6 0-1.2-.5-1.2-1.2" class="st3"/><path d="M59.7 331.4c0-.5-.4-.9-.9-.9s-.9.4-.9.9.4.9.9.9.9-.4.9-.9zm-2.1 0c0-.7.5-1.2 1.2-1.2s1.2.5 1.2 1.2-.5 1.2-1.2 1.2c-.6 0-1.2-.5-1.2-1.2z" class="st4"/><path d="m55.1 328.8.2-.3 2.1 1.6-.1.3z" class="st2"/><path d="m55.1 328.8.2-.3 2.1 1.6-.1.3z" class="st5"/><path d="m55.1 334 2.1-1.6.2.3-2.1 1.6z" class="st2"/><path d="m55.1 334 2.1-1.6.2.3-2.1 1.6z" class="st5"/><defs><path id="SVGID_3_" d="M33.6 25.7h554.9v603.6H33.6z"/></defs><clipPath id="SVGID_4_"><use xlink:href="#SVGID_3_" style="overflow:visible"/></clipPath><path d="M51.7 328.2c0-.7-.6-1.3-1.3-1.3h-1.8c-.7 0-1.3.6-1.3 1.3v6.5c0 .7.6 1.3 1.3 1.3h1.8c.7 0 1.3-.6 1.3-1.3v-6.5zm-4.7 6.5v-6.5c0-.9.7-1.6 1.6-1.6h1.8c.9 0 1.6.7 1.6 1.6v6.5c0 .9-.7 1.6-1.6 1.6h-1.8c-.9 0-1.6-.7-1.6-1.6" class="st6"/><path d="M51.7 328.2c0-.7-.6-1.3-1.3-1.3h-1.8c-.7 0-1.3.6-1.3 1.3v6.5c0 .7.6 1.3 1.3 1.3h1.8c.7 0 1.3-.6 1.3-1.3v-6.5zm-4.7 6.5v-6.5c0-.9.7-1.6 1.6-1.6h1.8c.9 0 1.6.7 1.6 1.6v6.5c0 .9-.7 1.6-1.6 1.6h-1.8c-.9 0-1.6-.7-1.6-1.6z" class="st7"/><path d="M50 331.4c0-.3-.2-.5-.5-.5s-.5.2-.5.5.2.5.5.5.5-.2.5-.5m-1.3 0c0-.4.4-.8.8-.8s.8.4.8.8-.4.8-.8.8-.8-.3-.8-.8" class="st6"/><path d="M50 331.4c0-.3-.2-.5-.5-.5s-.5.2-.5.5.2.5.5.5.5-.2.5-.5zm-1.3 0c0-.4.4-.8.8-.8s.8.4.8.8-.4.8-.8.8-.8-.3-.8-.8z" class="st7"/><path d="M261.1 356.4c0 2.6 2.1 4.7 4.8 4.7h6.9c.5 0 .8-.4.8-.8v-7.8c0-.4-.4-.8-.8-.8h-6.9c-2.7 0-4.8 2.1-4.8 4.7m12.8-3.9v7.8c0 .6-.5 1.1-1.1 1.1h-6.9c-2.8 0-5.1-2.3-5.1-5 0-2.8 2.3-5 5.1-5h6.9c.6-.1 1.1.4 1.1 1.1" class="st6"/><path d="M261.1 356.4c0 2.6 2.1 4.7 4.8 4.7h6.9c.5 0 .8-.4.8-.8v-7.8c0-.4-.4-.8-.8-.8h-6.9c-2.7 0-4.8 2.1-4.8 4.7zm12.8-3.9v7.8c0 .6-.5 1.1-1.1 1.1h-6.9c-2.8 0-5.1-2.3-5.1-5 0-2.8 2.3-5 5.1-5h6.9c.6-.1 1.1.4 1.1 1.1z" class="st7"/><path d="M271.2 359.8V353s0-.1-.1-.1H266c-1.9 0-3.5 1.6-3.5 3.5s1.6 3.5 3.5 3.5l5.2-.1z" class="st7"/><path d="M271.1 359.7v-6.6H266c-1.8 0-3.3 1.5-3.3 3.3 0 1.8 1.5 3.3 3.3 3.3h5.1zm.3-6.7v6.8c0 .1-.1.2-.2.2H266c-2 0-3.7-1.6-3.7-3.6s1.6-3.6 3.7-3.6h5.2c.1 0 .2.1.2.2" class="st6"/><path d="M271.1 359.7v-6.6H266c-1.8 0-3.3 1.5-3.3 3.3 0 1.8 1.5 3.3 3.3 3.3h5.1zm.3-6.7v6.8c0 .1-.1.2-.2.2H266c-2 0-3.7-1.6-3.7-3.6s1.6-3.6 3.7-3.6h5.2c.1 0 .2.1.2.2z" class="st7"/><path d="M266 356.4c0 .5.4.9.9.9s.9-.4.9-.9-.4-.9-.9-.9-.9.4-.9.9m2.1 0c0 .7-.5 1.2-1.2 1.2s-1.2-.5-1.2-1.2.5-1.2 1.2-1.2c.6 0 1.2.5 1.2 1.2" class="st6"/><path d="M266 356.4c0 .5.4.9.9.9s.9-.4.9-.9-.4-.9-.9-.9-.9.4-.9.9zm2.1 0c0 .7-.5 1.2-1.2 1.2s-1.2-.5-1.2-1.2.5-1.2 1.2-1.2c.6 0 1.2.5 1.2 1.2z" class="st7"/><path d="m270.6 359-.2.3-2.2-1.6.2-.3z" class="st2"/><path d="m270.6 359-.2.3-2.2-1.6.2-.3z" class="st5"/><path d="m270.6 353.8-2.2 1.6-.2-.3 2.2-1.6z" class="st2"/><path d="m270.6 353.8-2.2 1.6-.2-.3 2.2-1.6z" class="st5"/><defs><path id="SVGID_5_" d="M33.6 25.7h554.9v603.6H33.6z"/></defs><clipPath id="SVGID_6_"><use xlink:href="#SVGID_5_" style="overflow:visible"/></clipPath><path d="M273.9 359.6c0 .7.6 1.3 1.3 1.3h1.8c.7 0 1.3-.6 1.3-1.3v-6.5c0-.7-.6-1.3-1.3-1.3h-1.8c-.7 0-1.3.6-1.3 1.3v6.5zm4.8-6.5v6.5c0 .9-.7 1.6-1.6 1.6h-1.8c-.9 0-1.6-.7-1.6-1.6v-6.5c0-.9.7-1.6 1.6-1.6h1.8c.8 0 1.6.7 1.6 1.6" class="st8"/><path d="M273.9 359.6c0 .7.6 1.3 1.3 1.3h1.8c.7 0 1.3-.6 1.3-1.3v-6.5c0-.7-.6-1.3-1.3-1.3h-1.8c-.7 0-1.3.6-1.3 1.3v6.5zm4.8-6.5v6.5c0 .9-.7 1.6-1.6 1.6h-1.8c-.9 0-1.6-.7-1.6-1.6v-6.5c0-.9.7-1.6 1.6-1.6h1.8c.8 0 1.6.7 1.6 1.6z" class="st9"/><path d="M275.6 356.4c0 .3.2.5.5.5s.5-.2.5-.5-.2-.5-.5-.5c-.2 0-.5.2-.5.5m1.4 0c0 .4-.4.8-.8.8s-.8-.4-.8-.8.4-.8.8-.8.8.3.8.8" class="st8"/><path d="M275.6 356.4c0 .3.2.5.5.5s.5-.2.5-.5-.2-.5-.5-.5c-.2 0-.5.2-.5.5zm1.4 0c0 .4-.4.8-.8.8s-.8-.4-.8-.8.4-.8.8-.8.8.3.8.8z" class="st9"/><path d="M514.9 288.7c0 2.6 2.1 4.7 4.8 4.7h6.9c.5 0 .8-.4.8-.8v-7.8c0-.4-.4-.8-.8-.8h-6.9c-2.7 0-4.8 2.1-4.8 4.7m12.8-3.9v7.8c0 .6-.5 1.1-1.1 1.1h-6.9c-2.8 0-5.1-2.3-5.1-5 0-2.8 2.3-5 5.1-5h6.9c.5 0 1.1.5 1.1 1.1" class="st8"/><path d="M514.9 288.7c0 2.6 2.1 4.7 4.8 4.7h6.9c.5 0 .8-.4.8-.8v-7.8c0-.4-.4-.8-.8-.8h-6.9c-2.7 0-4.8 2.1-4.8 4.7zm12.8-3.9v7.8c0 .6-.5 1.1-1.1 1.1h-6.9c-2.8 0-5.1-2.3-5.1-5 0-2.8 2.3-5 5.1-5h6.9c.5 0 1.1.5 1.1 1.1z" class="st9"/><path d="M525 292.1v-6.8s0-.1-.1-.1h-5.2c-1.9 0-3.5 1.6-3.5 3.5s1.6 3.5 3.5 3.5l5.3-.1c0 .1 0 .1 0 0z" class="st9"/><path d="M524.9 292.1v-6.6h-5.1c-1.8 0-3.3 1.5-3.3 3.3 0 1.8 1.5 3.3 3.3 3.3h5.1zm.3-6.7v6.8c0 .1-.1.2-.2.2h-5.2c-2 0-3.7-1.6-3.7-3.6s1.6-3.6 3.7-3.6h5.2c.1-.1.2 0 .2.2" class="st8"/><path d="M524.9 292.1v-6.6h-5.1c-1.8 0-3.3 1.5-3.3 3.3 0 1.8 1.5 3.3 3.3 3.3h5.1zm.3-6.7v6.8c0 .1-.1.2-.2.2h-5.2c-2 0-3.7-1.6-3.7-3.6s1.6-3.6 3.7-3.6h5.2c.1-.1.2 0 .2.2z" class="st9"/><path d="M519.8 288.7c0 .5.4.9.9.9s.9-.4.9-.9-.4-.9-.9-.9c-.5.1-.9.5-.9.9m2.1 0c0 .7-.5 1.2-1.2 1.2s-1.2-.5-1.2-1.2.5-1.2 1.2-1.2c.6 0 1.2.6 1.2 1.2" class="st8"/><path d="M519.8 288.7c0 .5.4.9.9.9s.9-.4.9-.9-.4-.9-.9-.9c-.5.1-.9.5-.9.9zm2.1 0c0 .7-.5 1.2-1.2 1.2s-1.2-.5-1.2-1.2.5-1.2 1.2-1.2c.6 0 1.2.6 1.2 1.2z" class="st9"/><path d="m524.4 291.4-.2.2-2.2-1.5.2-.3z" class="st2"/><path d="m524.4 291.4-.2.2-2.2-1.5.2-.3z" class="st5"/><path d="m524.4 286.2-2.2 1.5-.2-.2 2.2-1.6z" class="st2"/><path d="m524.4 286.2-2.2 1.5-.2-.2 2.2-1.6z" class="st5"/><defs><path id="SVGID_7_" d="M33.6 25.7h554.9v603.6H33.6z"/></defs><clipPath id="SVGID_8_"><use xlink:href="#SVGID_7_" style="overflow:visible"/></clipPath><path d="M527.7 292c0 .7.6 1.3 1.3 1.3h1.8c.7 0 1.3-.6 1.3-1.3v-6.5c0-.7-.6-1.3-1.3-1.3H529c-.7 0-1.3.6-1.3 1.3v6.5zm4.8-6.5v6.5c0 .9-.7 1.6-1.6 1.6H529c-.9 0-1.6-.7-1.6-1.6v-6.5c0-.9.7-1.6 1.6-1.6h1.8c.9 0 1.7.7 1.7 1.6" class="st10"/><path d="M527.7 292c0 .7.6 1.3 1.3 1.3h1.8c.7 0 1.3-.6 1.3-1.3v-6.5c0-.7-.6-1.3-1.3-1.3H529c-.7 0-1.3.6-1.3 1.3v6.5zm4.8-6.5v6.5c0 .9-.7 1.6-1.6 1.6H529c-.9 0-1.6-.7-1.6-1.6v-6.5c0-.9.7-1.6 1.6-1.6h1.8c.9 0 1.7.7 1.7 1.6z" class="st11"/><path d="M529.4 288.7c0 .3.2.5.5.5s.5-.2.5-.5-.2-.5-.5-.5-.5.3-.5.5m1.3 0c0 .4-.4.8-.8.8s-.8-.4-.8-.8.4-.8.8-.8.8.4.8.8" class="st10"/><path d="M529.4 288.7c0 .3.2.5.5.5s.5-.2.5-.5-.2-.5-.5-.5-.5.3-.5.5zm1.3 0c0 .4-.4.8-.8.8s-.8-.4-.8-.8.4-.8.8-.8.8.4.8.8z" class="st11"/><path d="M66.4 307c2.8 0 5.1 2.3 5.1 5.1v5.4c0 .4-.4.8-.8.8H59.1c-.4 0-.8-.3-.8-.8v-5.4c0-2.8 2.3-5.1 5.1-5.1h3zm-7.3 11.6h11.6c.6 0 1.1-.5 1.1-1.1v-5.4c0-3-2.4-5.4-5.4-5.4h-2.9c-3 0-5.4 2.4-5.4 5.4v5.4c0 .6.4 1.1 1 1.1" class="st10"/><path d="M66.4 307c2.8 0 5.1 2.3 5.1 5.1v5.4c0 .4-.4.8-.8.8H59.1c-.4 0-.8-.3-.8-.8v-5.4c0-2.8 2.3-5.1 5.1-5.1h3zm-7.3 11.6h11.6c.6 0 1.1-.5 1.1-1.1v-5.4c0-3-2.4-5.4-5.4-5.4h-2.9c-3 0-5.4 2.4-5.4 5.4v5.4c0 .6.4 1.1 1 1.1z" class="st12"/><path d="M66.4 308.3c2.1 0 3.8 1.7 3.8 3.8v3.2c0 .4-.3.7-.7.7h-9.2c-.4 0-.7-.3-.7-.7v-3.2c0-2.1 1.7-3.8 3.8-3.8h3zm-6.1 8h9.2c.5 0 1-.4 1-1v-3.2c0-2.3-1.9-4.1-4.1-4.1h-2.9c-2.3 0-4.1 1.9-4.1 4.1v3.2c-.1.5.4 1 .9 1" class="st10"/><path d="M66.4 308.3c2.1 0 3.8 1.7 3.8 3.8v3.2c0 .4-.3.7-.7.7h-9.2c-.4 0-.7-.3-.7-.7v-3.2c0-2.1 1.7-3.8 3.8-3.8h3zm-6.1 8h9.2c.5 0 1-.4 1-1v-3.2c0-2.3-1.9-4.1-4.1-4.1h-2.9c-2.3 0-4.1 1.9-4.1 4.1v3.2c-.1.5.4 1 .9 1z" class="st12"/><path d="M64.9 311c.3 0 .6.3.6.6s-.3.6-.6.6-.6-.3-.6-.6.3-.6.6-.6m0 1.5c.5 0 .9-.4.9-.9s-.4-.9-.9-.9-.9.4-.9.9.4.9.9.9" class="st10"/><path d="M64.9 311c.3 0 .6.3.6.6s-.3.6-.6.6-.6-.3-.6-.6.3-.6.6-.6zm0 1.5c.5 0 .9-.4.9-.9s-.4-.9-.9-.9-.9.4-.9.9.4.9.9.9z" class="st12"/><path d="M526.3 312.2c0-2.8 2.3-5.1 5.1-5.1h5.4c.4 0 .8.4.8.8v11.6c0 .4-.3.8-.8.8h-5.4c-2.8 0-5.1-2.3-5.1-5.1v-3zm11.6 7.2v-11.6c0-.6-.5-1.1-1.1-1.1h-5.4c-3 0-5.4 2.4-5.4 5.4v2.9c0 3 2.4 5.4 5.4 5.4h5.4c.6.1 1.1-.4 1.1-1" class="st10"/><path d="M526.3 312.2c0-2.8 2.3-5.1 5.1-5.1h5.4c.4 0 .8.4.8.8v11.6c0 .4-.3.8-.8.8h-5.4c-2.8 0-5.1-2.3-5.1-5.1v-3zm11.6 7.2v-11.6c0-.6-.5-1.1-1.1-1.1h-5.4c-3 0-5.4 2.4-5.4 5.4v2.9c0 3 2.4 5.4 5.4 5.4h5.4c.6.1 1.1-.4 1.1-1z" class="st12"/><path d="M527.5 312.2c0-2.1 1.7-3.8 3.8-3.8h3.2c.4 0 .7.3.7.7v9.2c0 .4-.3.7-.7.7h-3.2c-2.1 0-3.8-1.7-3.8-3.8v-3zm8 6V309c0-.5-.4-1-1-1h-3.2c-2.3 0-4.1 1.9-4.1 4.1v2.9c0 2.3 1.9 4.1 4.1 4.1h3.2c.6.1 1-.3 1-.9" class="st10"/><path d="M527.5 312.2c0-2.1 1.7-3.8 3.8-3.8h3.2c.4 0 .7.3.7.7v9.2c0 .4-.3.7-.7.7h-3.2c-2.1 0-3.8-1.7-3.8-3.8v-3zm8 6V309c0-.5-.4-1-1-1h-3.2c-2.3 0-4.1 1.9-4.1 4.1v2.9c0 2.3 1.9 4.1 4.1 4.1h3.2c.6.1 1-.3 1-.9z" class="st12"/><path d="M530.2 313.6c0-.3.3-.6.6-.6s.6.3.6.6c0 .4-.3.6-.6.6-.3.1-.6-.2-.6-.6m1.6 0c0-.5-.4-.9-.9-.9s-.9.4-.9.9.4.9.9.9.9-.4.9-.9" class="st10"/><path d="M530.2 313.6c0-.3.3-.6.6-.6s.6.3.6.6c0 .4-.3.6-.6.6-.3.1-.6-.2-.6-.6zm1.6 0c0-.5-.4-.9-.9-.9s-.9.4-.9.9.4.9.9.9.9-.4.9-.9z" class="st12"/><path d="M292.5 110.6v-5h-1.4l-1.3.5.2.9 1.2-.3c0 .2-.1.4-.1.6v3.3h1.4zm-3.5-1.3c-.4 0-.5.1-.5.5v.3c0 .4.1.5.5.5h.3c.4 0 .5-.1.5-.5v-.3c0-.4-.1-.5-.5-.5h-.3zm-1.2-2.8.1-1h-3.2l-.1 2.3c0 .2.2.4.4.5l.8.1c.7.1.9.2.9.6 0 .4-.2.6-.8.6-.4 0-.8 0-1.3-.1l-.1 1c.6.1 1.3.1 1.8.1 1.4 0 1.8-.7 1.8-1.6 0-.8-.3-1.5-1.5-1.7l-.8-.1.1-.7h1.9zm17.8-7.2c.2-.1.4-.2.7-.2.3 0 .5.1.5 1 0 .8-.1 1-.5 1-.3 0-.4-.1-.6-.1v-1.7zm-.2-1.1h-1.1v5h1.3v-1.6c.3.2.7.3 1.2.3.9 0 1.4-.4 1.4-1.9 0-1.2-.4-1.9-1.3-1.9-.6 0-1.1.3-1.4.6l-.1-.5zm-1.5 0h-1.4l-.5 2.2c0 .2-.1.4-.2.6h-.1c0-.2-.1-.4-.1-.6l-.5-2.2h-1.4l1.1 3.3c.1.2.2.3.4.3h.2c-.1.2-.2.4-.4.4-.2.1-.6.2-1 .2l-.1.9c.5.1 1.1.1 1.5-.1.6-.2 1-.6 1.2-1.4l1.3-3.6zm-6.3.9c.4 0 .5.2.5.9 0 .8-.1 1-.6 1s-.5-.2-.5-1c0-.7.1-.9.6-.9m1.5-2.7c-.7.3-1.4.1-2.1.4-1.1.4-1.3 1.4-1.3 2.7 0 1.3.1 2.4 2 2.4 1.4 0 1.9-.6 1.9-1.9 0-1.2-.4-1.7-1.6-1.7-.6 0-1 .2-1.3.5 0-.2.1-.4.2-.5.1-.2.3-.4.7-.5.6-.2 1.2 0 1.9-.3l-.4-1.1zm-5.8 1.8c-.3 0-.5.1-.5.4l-.3 1.4c0 .2 0 .4-.1.5h-.1c0-.2 0-.4-.1-.5l-.3-1.4c0-.3-.2-.4-.5-.4h-1.1c-.3 0-.5.2-.5.5l-.1 3.2h1.2l.1-2.7h.1l.4 1.8c.1.3.2.4.5.4h.6c.3 0 .4-.1.5-.4l.4-1.8h.1l.1 2.7h1.2l-.1-3.2c0-.3-.2-.5-.5-.5h-1zm-6.6 2.3c0-.2.1-.3.3-.3h.8v.5c-.2.2-.5.2-.7.2-.2 0-.4-.1-.4-.3v-.1zm-1-1.4c.6 0 1.2-.1 1.6-.1.4 0 .5.1.5.4v.1h-1.2c-.7 0-1.2.4-1.2.9v.4c0 .7.5 1 1.2 1 .6 0 1-.3 1.3-.6l.1.5h1.1v-2.3c0-1.1-.5-1.4-1.5-1.4-.5 0-1.4.1-2 .2l.1.9zm-.6.1v-1h-3.6v1h1.2v2.6h1.3v-2.6h1.1zm-6.4 1.4c-.4 0-.5.1-.5.5v.3c0 .4.1.5.5.5h.3c.4 0 .5-.1.5-.5v-.4c0-.3-.1-.5-.5-.5h-.3zm-2.1 1.2h1.3l-1.1-1.9 1-1.8h-1.3l-.7 1.4-.7-1.4h-1.3l1 1.8-1.1 1.9h1.3l.8-1.5.8 1.5zm-6-.9v-1.3h.7c.5 0 .7.1.7.7 0 .5-.1.6-.6.6h-.8zm0-2.1v-1.1h.6c.5 0 .6.1.6.5 0 .5-.1.6-.6.6h-.6zm1.7.4c.6-.1.9-.4.9-1.1 0-1-.5-1.3-1.8-1.3-.9 0-1.4 0-2.1.1v5c.7.1 1.3.1 2.3.1 1.2 0 1.8-.3 1.8-1.3s-.3-1.4-1.1-1.5z" class="st10"/><path d="M117.9 143.1h5.5v22.8h-5.5zm0 40.3h5.5v119h-5.5zm0 143h5.5v185h-5.5zm-78.8-52.9h58.7v4.3H39.1zm-1.6 45.2h53.8v2.6H37.5zm0 22.9h60v4.7h-60z" class="st2"/><path d="M119.3 341.6h16.8v4.7h-16.8zm35.5 0h52.1v4.7h-52.1zm48-205h4.7v176.8h-4.7z" class="st2"/><path d="M202.8 335h4.7v188.5h-4.7zm-59.3-46.9h62.2v4.7h-62.2zm-54.7-11.5h2.6v14.5h-2.6zm0 28h2.6v22.5h-2.6zm110.4-192.2h10v17.3h-10zm0-42.9h10v9.8h-10z" class="st2"/><path d="M192.8 121.9h14.6v60.6h-14.6z" class="st2"/><path d="M42.6 482.8h69.3v2.4H42.6z" class="st1"/><path d="M102.6 482.8h69.3v2.4h-69.3zm-60-8h65.5v7.9H42.6z" class="st1"/><path d="M104.8 474.8h65.5v7.9h-65.5z" class="st1"/><path d="M33.6 482.5h22.3v3.1H33.6zm85 0h22.3v3.1h-22.3zm84.3 0h22.3v3.1h-22.3zm84.4 0h22.3v3.1h-22.3zm84.3 0h22.3v3.1h-22.3zm84.3 0h22.3v3.1h-22.3z" class="st2"/><path d="M186.2 482.5h22.3v3.1h-22.3zm84.3 0h22.3v3.1h-22.3zm84.4 0h22.3v3.1h-22.3zm84.3 0h22.3v3.1h-22.3zm84.3 0h22.3v3.1h-22.3zm-422.4 0h22.3v3.1h-22.3zm-67.5-8h20.2v9.1H33.6z" class="st2"/><path d="M118.6 474.5h20.2v9.1h-20.2zm84.3 0h20.2v9.1h-20.2zm84.4 0h20.2v9.1h-20.2zm84.3 0h20.2v9.1h-20.2zm84.3 0h20.2v9.1h-20.2z" class="st2"/><path d="M188.3 474.5h20.2v9.1h-20.2zm84.3 0h20.2v9.1h-20.2zm84.3 0h20.2v9.1h-20.2z" class="st2"/><path d="M356.9 470.4h20.2v9.1h-20.2zm84.4 4.1h20.2v9.1h-20.2zm84.3 0h20.2v9.1h-20.2zm-422.4 0h20.2v9.1h-20.2zm148.6-356h9.4v12.6h-9.4zm0-49h9.4v17.3h-9.4z" class="st2"/><path d="M257.7 72.6h9.4v6.7h-9.4zm46.8 0h22.3v6.7h-22.3zm59.8 0h15.9v6.7h-15.9z" class="st2"/><path d="M310.9 69.5H321v6.7h-10.1zm59.3 0h10.1v58.4h-10.1zm-53.3 8.7h3.4v54.1h-3.4z" class="st2"/><path d="M383.4 183.4h22v2.4h-22zm0-61h22v2.4h-22zm54.6 0h18.9v2.4H438zm55.8 58.5h41.1v2.4h-41.1zm2.3 2.5h38.8v7.9h-38.8z" class="st1"/><path d="M521.7 180.6H544v3.1h-22.3zm-84.4 0h22.3v3.1h-22.3z" class="st2"/><path d="M458.2 180.6h22.3v3.1h-22.3zm-87.4 107.8h65v4.1h-65zm110.5-15.2h69.4v4.1h-69.4zm33.7 25.3h28.3v2.2H515zM481.1 342h62.2v4.3h-62.2zm-36.4 0h16.7v4.3h-16.7z" class="st2"/><path d="M456.8 326h4.3v186.2h-4.3zm0-136.9h4.3v113.8h-4.3zM372 342h53.1v4.3H372zm116.9-43.5h12.6v2.2h-12.6z" class="st2"/><path d="M488.9 275.2h2.2v39.1h-2.2zm0 52.8h2.2v16.3h-2.2zM374.3 181.1h20.2v10.5h-20.2zm149.5 1.4H544v9.1h-20.2z" class="st2"/><path d="M540.8 153.9h10v121.3h-10zm0 121.3h10v210.3h-10zm-101.4-92.7h20.2v9.1h-20.2z" class="st2"/><path d="M458.2 182.5h20.2v9.1h-20.2zm-48 109.3h3.5v8.9h-3.5zm0 25.1h3.5v26.6h-3.5zM372 290.4h5v186.5h-5zm-65.3 1.3h3.9v10.2h-3.9zm8.4 0h3.9v10.2h-3.9z" class="st2"/><path d="M308.8 298h23.6v3.9h-23.6z" class="st2"/><path d="M323.4 291.7h3.9v10.2h-3.9zm8.4 0h3.9v14.8h-3.9zm12.7 0h3.9v14.8h-3.9z" class="st2"/><path d="M333.9 302.6h39.8v3.9h-39.8z" class="st2"/><path d="M368.9 299.9h4.5v4.3h-4.5zM197.3 484.7h9.7v38.8h-9.7z" class="st2"/><path d="M197.3 520.3h25.3v9.8h-25.3zm75.8 0h34v9.8h-34z" class="st2"/><path d="M197.3 516.6h23.1v9.8h-23.1zm77.6 0H298v9.8h-23.1z" class="st2"/><path d="M286.3 482h11.8v35.8h-11.8zm1.4-20.4h7.2V477h-7.2zm0-45.5h7.2v26.2h-7.2zm-82.6-6.4h39.1v3.9h-39.1zm64.6 0h6.5v3.9h-6.5z" class="st2"/><path d="M273 411.7h3.3v7.8H273z" class="st2"/><path d="M273.7 416.1h18.5v3.4h-18.5z" class="st2"/><path d="M291.3 416.1h18.5v6.3h-18.5z" class="st2"/><path d="M287.7 393.7h4.5v24.1h-4.5zM244 370.5h47.7v3.9H244zm-39.4 0h24.1v3.9h-24.1zm0-30.9H249v6.5h-44.4zm63 0h22.8v6.5h-22.8z" class="st2"/><path d="M289.4 339.6h22.8v6.5h-22.8zm41.3 0h9.4v6.5h-9.4zm30.7 0h12.5v6.5h-12.5zm-131.5 3.3h44.4v3.3h-44.4z" class="st2"/><path d="M291.7 342.9h44.4v3.3h-44.4z" class="st2"/><path d="M287.6 344.1h4.6v30.3h-4.6zm15.8 65.6h19.1v7.2h-19.1zm52.8 0h19.1v7.2h-19.1z" class="st2"/><path d="M369.8 415.2h3.5v62.3h-3.5z" class="st2"/><path d="M267.4 49.4h34.9V70h-34.9zM209.1 53h51.8v7.9h-51.8zm170.7 8.6h70.8v7.8h-70.8z" class="st1"/><path d="M209.1 60.7h51.8v8.6h-51.8zm-100.538-3.852L120.92 35l78.334 44.316-12.36 21.846z" class="st1"/><path d="m109.596 55.02 10.291-18.19 78.334 44.315-10.292 18.19zM186.7 101.2l13 7.2v4.4" class="st1"/><defs><path id="SVGID_9_" d="M33.6 25.7h554.9v603.6H33.6z"/></defs><clipPath id="SVGID_10_"><use xlink:href="#SVGID_9_" style="overflow:visible"/></clipPath><path d="M459.8 51.1h107.9v25.1H459.8z" style="clip-path:url(#SVGID_10_);fill:none;stroke:#39373a;stroke-width:.669" transform="rotate(-29.518 513.746 63.691)"/><path d="m461.633 81.14 93.895-53.161 10.297 18.187-93.894 53.162zM473.2 101.2l-13.1 7.2v4.4m-1 30.7v3.6l86.6 11.9v-3.6z" class="st1"/><path d="M538 300.7h3.7v43.4H538zm11.2.6h9.7v9.8h-9.7zm27.5 0h11.7v9.8h-11.7z" class="st2"/><path d="M581.9 308.7h6.5v167.8h-6.5z" class="st2"/><path d="M549.5 469.8h35.7v6.7h-35.7z" class="st2"/><defs><path id="SVGID_11_" d="M33.6 25.7h554.9v603.6H33.6z"/></defs><clipPath id="SVGID_12_"><use xlink:href="#SVGID_11_" style="overflow:visible"/></clipPath><path d="M549.2 272.1h38.9v29.8" style="clip-path:url(#SVGID_12_);fill:none;stroke:#39373a;stroke-width:.669"/><path d="M472 482.8h60.6v2.4H472zm-64.5 0h60.6v2.4h-60.6zm-103-2.2h18.9v1.6h-18.9zm170.8-5.8h57.3v7.9h-57.3zm-65.9 0h57.3v7.9h-57.3zM55.1 485.3h46.8v26.4H55.1z" class="st1"/><path d="M61.2 485.3h34.6v20.6H61.2zm61 22.1v3.6l78.3 11.8v-3.6zm338.1 0v3.6l-84.2 12.8v-3.6zm-250 9.5h75.8v12.8h-75.8z" class="st1"/><path d="M210.3 516.9h75.8v3h-75.8zm25.1-106.8h37.3v3.3h-37.3z" class="st1"/><path d="M372 485h5v42.1h-5z" class="st2"/><path d="M358.6 519.8h20.5V530h-20.5z" class="st2"/><path d="M364.4 528.2h1.9V549h-1.9zm-75.2 0h1.9V549h-1.9z" class="st2"/><path d="M290.1 547.2h20.8v1.9h-20.8zm54.4 0h20.8v1.9h-20.8z" class="st2"/><path d="M385.9 280.6h21.4v7.8h-21.4z" class="st1"/><path d="M385.9 280.6h21.4v1.2h-21.4zm1.3 1.4.6 5h12.5l.7-5m.8-.1.7 5.1h2.6l.7-5.1" class="st1"/><path d="M532.9 277.6h7.5v20.6h-7.5z" class="st15"/><path d="M532.9 277.6h1.2v20.6h-1.2zm1.3 19.4 4.9-.6v-12.1l-4.9-.7m0-.7 4.9-.7v-2.5l-4.9-.6M364.1 388.8h7.5v20.6h-7.5z" class="st15"/><path d="M370.4 388.8h1.2v20.6h-1.2zm0 1.2-4.9.6v12.1l4.9.6m0 .8-4.9.7v2.5l4.9.6m-77.9-61.4h7.5v20.6h-7.5z" class="st15"/><path d="M298.8 346.5h1.2v20.6h-1.2zm-.1 1.2-4.8.5v12.1l4.8.7m.1.8-4.9.6v2.6l4.9.6m-19-19.1h7.5v20.6h-7.5z" class="st15"/><path d="M286.1 346.5h1.2v20.6h-1.2zm-.1 1.2-4.8.5v12.1l4.8.7m.1.8-4.9.6v2.6l4.9.6m-78.3 23.2h7.5v20.6h-7.5z" class="st15"/><path d="M214.1 388.8h1.2v20.6h-1.2zm-.1 1.2-4.8.6v12.1l4.8.6m.1.8-4.9.7v2.5l4.9.6" class="st15"/><path d="M39.4 321.6h7.2v19.7h-7.2z" class="st16"/><path d="M45.4 321.6h1.1v19.7h-1.1zm-.1 1.2-4.6.5v11.5l4.6.7m.1.7-4.7.6v2.4l4.7.6m-6 6.7h7.2v19.7h-7.2z" class="st16"/><path d="M45.4 346.5h1.1v19.7h-1.1zm-.1 1.2-4.6.5v11.6l4.6.6m.1.7-4.7.7v2.4l4.7.6" class="st16"/><path d="M61 346.7H47.3v13.7H61v-13.7zm-14-.4h14.3v14.3H47v-14.3z" class="st2"/><path d="M61 346.7H47.3v13.7H61v-13.7zm-14-.4h14.3v14.3H47v-14.3z" class="st17"/><defs><path id="SVGID_13_" d="M33.6 25.7h554.9v603.6H33.6z"/></defs><clipPath id="SVGID_14_"><use xlink:href="#SVGID_13_" style="overflow:visible"/></clipPath><path d="M58.9 359.1c.3 0 .6-.3.6-.6v-7.2c0-.3-.3-.6-.6-.6h-9.6c-.3 0-.6.3-.6.6v7.2c0 .3.3.6.6.6h9.6zm-9.6-8.7h9.6c.5 0 .9.4.9.9v7.2c0 .5-.4.9-.9.9h-9.6c-.5 0-.9-.4-.9-.9v-7.2c0-.5.4-.9.9-.9" style="clip-path:url(#SVGID_14_);fill:#39373a"/><path d="M58.9 359.1c.3 0 .6-.3.6-.6v-7.2c0-.3-.3-.6-.6-.6h-9.6c-.3 0-.6.3-.6.6v7.2c0 .3.3.6.6.6h9.6zm-9.6-8.7h9.6c.5 0 .9.4.9.9v7.2c0 .5-.4.9-.9.9h-9.6c-.5 0-.9-.4-.9-.9v-7.2c0-.5.4-.9.9-.9z" style="clip-path:url(#SVGID_14_);fill:none;stroke:#39373a;stroke-width:.211"/><path d="M58.5 351.7h-8.7v6.3h8.7v-6.3zm-9-.3h9.3v6.9h-9.3v-6.9z" class="st2"/><path d="M58.5 351.7h-8.7v6.3h8.7v-6.3zm-9-.3h9.3v6.9h-9.3v-6.9z" class="st17"/><defs><path id="SVGID_15_" d="M33.6 25.7h554.9v603.6H33.6z"/></defs><clipPath id="SVGID_16_"><use xlink:href="#SVGID_15_" style="overflow:visible"/></clipPath><path d="M54.1 356.1c.4 0 .8-.4.8-.8s-.4-.8-.8-.8-.8.4-.8.8.4.8.8.8m0-1.9c.6 0 1.1.5 1.1 1.1s-.5 1.1-1.1 1.1c-.6 0-1.1-.5-1.1-1.1s.5-1.1 1.1-1.1" style="clip-path:url(#SVGID_16_);fill:#39373a"/><path d="M54.1 356.1c.4 0 .8-.4.8-.8s-.4-.8-.8-.8-.8.4-.8.8.4.8.8.8zm0-1.9c.6 0 1.1.5 1.1 1.1s-.5 1.1-1.1 1.1c-.6 0-1.1-.5-1.1-1.1s.5-1.1 1.1-1.1z" style="clip-path:url(#SVGID_16_);fill:none;stroke:#39373a;stroke-width:.211"/><path d="M391.7 341.2h13.7v-13.7h-13.7v13.7zm14 .3h-14.3v-14.3h14.3v14.3z" class="st2"/><path d="M391.7 341.2h13.7v-13.7h-13.7v13.7zm14 .3h-14.3v-14.3h14.3v14.3z" class="st17"/><defs><path id="SVGID_17_" d="M33.6 25.7h554.9v603.6H33.6z"/></defs><clipPath id="SVGID_18_"><use xlink:href="#SVGID_17_" style="overflow:visible"/></clipPath><path d="M393.8 328.7c-.3 0-.6.3-.6.6v7.2c0 .3.3.6.6.6h9.6c.3 0 .6-.3.6-.6v-7.2c0-.3-.3-.6-.6-.6h-9.6zm9.5 8.7h-9.6c-.5 0-.9-.4-.9-.9v-7.2c0-.5.4-.9.9-.9h9.6c.5 0 .9.4.9.9v7.2c0 .5-.4.9-.9.9" style="clip-path:url(#SVGID_18_);fill:#39373a"/><path d="M393.8 328.7c-.3 0-.6.3-.6.6v7.2c0 .3.3.6.6.6h9.6c.3 0 .6-.3.6-.6v-7.2c0-.3-.3-.6-.6-.6h-9.6zm9.5 8.7h-9.6c-.5 0-.9-.4-.9-.9v-7.2c0-.5.4-.9.9-.9h9.6c.5 0 .9.4.9.9v7.2c0 .5-.4.9-.9.9z" style="clip-path:url(#SVGID_18_);fill:none;stroke:#39373a;stroke-width:.211"/><path d="M394.2 336.1h8.7v-6.3h-8.7v6.3zm9 .3h-9.3v-6.9h9.3v6.9z" class="st2"/><path d="M394.2 336.1h8.7v-6.3h-8.7v6.3zm9 .3h-9.3v-6.9h9.3v6.9z" class="st17"/><defs><path id="SVGID_19_" d="M33.6 25.7h554.9v603.6H33.6z"/></defs><clipPath id="SVGID_20_"><use xlink:href="#SVGID_19_" style="overflow:visible"/></clipPath><path d="M398.5 331.7c-.4 0-.8.4-.8.8s.4.8.8.8.8-.4.8-.8-.3-.8-.8-.8m0 1.9c-.6 0-1.1-.5-1.1-1.1s.5-1.1 1.1-1.1c.6 0 1.1.5 1.1 1.1s-.5 1.1-1.1 1.1" style="clip-path:url(#SVGID_20_);fill:#39373a"/><path d="M398.5 331.7c-.4 0-.8.4-.8.8s.4.8.8.8.8-.4.8-.8-.3-.8-.8-.8zm0 1.9c-.6 0-1.1-.5-1.1-1.1s.5-1.1 1.1-1.1c.6 0 1.1.5 1.1 1.1s-.5 1.1-1.1 1.1z" style="clip-path:url(#SVGID_20_);fill:none;stroke:#39373a;stroke-width:.211"/><path d="M241.5 346.7h-13.7v13.7h13.7v-13.7zm-13.9-.4h14.3v14.3h-14.3v-14.3z" class="st2"/><path d="M241.5 346.7h-13.7v13.7h13.7v-13.7zm-13.9-.4h14.3v14.3h-14.3v-14.3z" class="st17"/><defs><path id="SVGID_21_" d="M33.6 25.7h554.9v603.6H33.6z"/></defs><clipPath id="SVGID_22_"><use xlink:href="#SVGID_21_" style="overflow:visible"/></clipPath><path d="M239.5 359.1c.3 0 .6-.3.6-.6v-7.2c0-.3-.3-.6-.6-.6h-9.6c-.3 0-.6.3-.6.6v7.2c0 .3.3.6.6.6h9.6zm-9.6-8.7h9.6c.5 0 .9.4.9.9v7.2c0 .5-.4.9-.9.9h-9.6c-.5 0-.9-.4-.9-.9v-7.2c0-.5.4-.9.9-.9" style="clip-path:url(#SVGID_22_);fill:#39373a"/><path d="M239.5 359.1c.3 0 .6-.3.6-.6v-7.2c0-.3-.3-.6-.6-.6h-9.6c-.3 0-.6.3-.6.6v7.2c0 .3.3.6.6.6h9.6zm-9.6-8.7h9.6c.5 0 .9.4.9.9v7.2c0 .5-.4.9-.9.9h-9.6c-.5 0-.9-.4-.9-.9v-7.2c0-.5.4-.9.9-.9z" style="clip-path:url(#SVGID_22_);fill:none;stroke:#39373a;stroke-width:.211"/><path d="M239 351.7h-8.7v6.3h8.7v-6.3zm-8.9-.3h9.3v6.9h-9.3v-6.9z" class="st2"/><path d="M239 351.7h-8.7v6.3h8.7v-6.3zm-8.9-.3h9.3v6.9h-9.3v-6.9z" class="st17"/><defs><path id="SVGID_23_" d="M33.6 25.7h554.9v603.6H33.6z"/></defs><clipPath id="SVGID_24_"><use xlink:href="#SVGID_23_" style="overflow:visible"/></clipPath><path d="M234.7 356.1c.4 0 .8-.4.8-.8s-.4-.8-.8-.8-.8.4-.8.8.4.8.8.8m0-1.9c.6 0 1.1.5 1.1 1.1s-.5 1.1-1.1 1.1c-.6 0-1.1-.5-1.1-1.1s.5-1.1 1.1-1.1" style="clip-path:url(#SVGID_24_);fill:#39373a"/><path d="M234.7 356.1c.4 0 .8-.4.8-.8s-.4-.8-.8-.8-.8.4-.8.8.4.8.8.8zm0-1.9c.6 0 1.1.5 1.1 1.1s-.5 1.1-1.1 1.1c-.6 0-1.1-.5-1.1-1.1s.5-1.1 1.1-1.1z" style="clip-path:url(#SVGID_24_);fill:none;stroke:#39373a;stroke-width:.211"/><path d="M44.9 279.3s-4.7 0-4.7 4.7v28.3s0 4.7 4.7 4.7h6.3s4.7 0 4.7-4.7V284s0-4.7-4.7-4.7h-6.3z" class="st30"/><path d="M46.4 281.9s-4.7 0-4.7 4.7v23s0 4.7 4.7 4.7h3.4s4.7 0 4.7-4.7v-23s0-4.7-4.7-4.7h-3.4z" class="st30"/><path d="M45.4 285.1s-2.4 0-2.4 2.4v23.2s0 2.4 2.4 2.4h5.3s2.4 0 2.4-2.4v-23.2s0-2.4-2.4-2.4h-5.3z" class="st30"/><path d="M48 310.1c.4 0 .7-.3.7-.7 0-.4-.3-.7-.7-.7s-.7.3-.7.7c0 .4.4.7.7.7z" class="st30"/><path d="M56.9 277.2v42.2" style="fill:none;stroke:#39373a;stroke-width:.501"/><path d="M58.2 275.2h13.9v17.5H58.2zm148.3 69.6h14.9v27.4h-14.9z" style="fill:none;stroke:#39373a;stroke-width:.567"/><path d="M207.5 292.5h18.6v7.9h-18.6z" class="st15"/><path d="M211.2 294h12.9v4.9h-12.9z" class="st15"/><path d="m363.3 240.9-33.2-55.2m0 55.2 33.2-55.2m-33.2.2h33.4v55h-33.4zm33.5 94.1L330 251.9m0 28.1 33.6-28.1m-33.5 0h33.4v28h-33.4z" class="st1"/><path d="m233 165.5-.6-1-16.7 10 .6 1.1zm4.3 3.9.6-1.1 11.3 6.2v1.7z" class="st33"/><defs><path id="SVGID_25_" d="M33.6 25.7h554.9v603.6H33.6z"/></defs><clipPath id="SVGID_26_"><use xlink:href="#SVGID_25_" style="overflow:visible"/></clipPath><path d="M233.1 165.6s1 2.2 1.5 4.2c.6 2 .7 6.4.7 6.4s.3-3.2.7-4.3c.6-1.6 1.4-2.7 1.4-2.7" style="clip-path:url(#SVGID_26_);fill:none;stroke:#39373a;stroke-width:.371"/><path d="m421.5 114-.6-1-15.6 9.5v1.7zm4.3 3.9.7-1 11.2 6.1v1.7z" class="st33"/><defs><path id="SVGID_27_" d="M33.6 25.7h554.9v603.6H33.6z"/></defs><clipPath id="SVGID_28_"><use xlink:href="#SVGID_27_" style="overflow:visible"/></clipPath><path d="M421.7 114.1s1 2.2 1.5 4.2c.6 2 .7 6.4.7 6.4s.3-3.2.7-4.3c.6-1.6 1.4-2.7 1.4-2.7" style="clip-path:url(#SVGID_28_);fill:none;stroke:#39373a;stroke-width:.371"/><path d="m421.5 175.1-.6-1.1-15.6 9.6v1.7zm4.3 3.9.7-1.1 14.4 7.8v1.6z" class="st33"/><defs><path id="SVGID_29_" d="M33.6 25.7h554.9v603.6H33.6z"/></defs><clipPath id="SVGID_30_"><use xlink:href="#SVGID_29_" style="overflow:visible"/></clipPath><path d="M421.7 175.1s1 2.2 1.5 4.2c.6 2 .7 6.4.7 6.4s.3-3.2.7-4.3c.6-1.6 1.4-2.7 1.4-2.7" style="clip-path:url(#SVGID_30_);fill:none;stroke:#39373a;stroke-width:.371"/><path d="m288.2 119.7.7-1.1 21 12.5-.6 1zm-4.3 3.9-.6-1.1-11.2 6.2v1.6z" class="st33"/><defs><path id="SVGID_31_" d="M33.6 25.7h554.9v603.6H33.6z"/></defs><clipPath id="SVGID_32_"><use xlink:href="#SVGID_31_" style="overflow:visible"/></clipPath><path d="M288.1 119.7s-1 2.2-1.5 4.2c-.6 2-.7 6.4-.7 6.4s-.3-3.2-.7-4.3c-.6-1.6-1.4-2.7-1.4-2.7" style="clip-path:url(#SVGID_32_);fill:none;stroke:#39373a;stroke-width:.371"/><path d="m243 100.8-1 .6 12.4 21.1 1.1-.6zm3.9-4.3-1-.6 6.1-11.2h1.7z" class="st33"/><defs><path id="SVGID_33_" d="M33.6 25.7h554.9v603.6H33.6z"/></defs><clipPath id="SVGID_34_"><use xlink:href="#SVGID_33_" style="overflow:visible"/></clipPath><path d="M243.1 100.7s2.2-1 4.2-1.5c2-.6 6.4-.7 6.4-.7s-3.2-.3-4.3-.7c-1.6-.6-2.7-1.4-2.7-1.4" style="clip-path:url(#SVGID_34_);fill:none;stroke:#39373a;stroke-width:.371"/><path d="m293.3 183.5.7-1.1 16.7 10.1-.6 1zm-4.2 3.9-.7-1.1-11.2 6.2v1.6z" class="st33"/><defs><path id="SVGID_35_" d="M33.6 25.7h554.9v603.6H33.6z"/></defs><clipPath id="SVGID_36_"><use xlink:href="#SVGID_35_" style="overflow:visible"/></clipPath><path d="M293.2 183.5s-1 2.2-1.5 4.2c-.6 2-.7 6.4-.7 6.4s-.3-3.2-.7-4.3c-.6-1.6-1.4-2.7-1.4-2.7" style="clip-path:url(#SVGID_36_);fill:none;stroke:#39373a;stroke-width:.371"/><path d="m292.5 280.4-.6-1.1-16.7 10.1.6 1zm4.3 3.8.7-1 11.2 6.2v1.6z" class="st33"/><defs><path id="SVGID_37_" d="M33.6 25.7h554.9v603.6H33.6z"/></defs><clipPath id="SVGID_38_"><use xlink:href="#SVGID_37_" style="overflow:visible"/></clipPath><path d="M292.7 280.4s1 2.2 1.5 4.2c.6 2 .7 6.4.7 6.4s.3-3.2.7-4.3c.6-1.6 1.4-2.7 1.4-2.7" style="clip-path:url(#SVGID_38_);fill:none;stroke:#39373a;stroke-width:.371"/><path d="m192.223 316.856.86-.511 11.354 19.076-.86.512z" class="st1"/><defs><path id="SVGID_39_" d="M33.6 25.7h554.9v603.6H33.6z"/></defs><clipPath id="SVGID_40_"><use xlink:href="#SVGID_39_" style="overflow:visible"/></clipPath><path d="M193.3 316.1s2.2-1.3 6.4-2.5c3.8-1.1 7.5-.8 7.5-.8" style="clip-path:url(#SVGID_40_);fill:none;stroke:#39373a;stroke-width:.446"/><path d="m132.28 344.468.51-.859 19.077 11.356-.512.859z" class="st1"/><defs><path id="SVGID_41_" d="M33.6 25.7h554.9v603.6H33.6z"/></defs><clipPath id="SVGID_42_"><use xlink:href="#SVGID_41_" style="overflow:visible"/></clipPath><path d="M152 354.8s1.3-2.2 2.5-6.4c.7-2.3.8-4.7.8-6.1" style="clip-path:url(#SVGID_42_);fill:none;stroke:#39373a;stroke-width:.446"/><path d="m100.376 354.851 19.077-11.355.511.86-19.076 11.354z" class="st1"/><defs><path id="SVGID_43_" d="M33.6 25.7h554.9v603.6H33.6z"/></defs><clipPath id="SVGID_44_"><use xlink:href="#SVGID_43_" style="overflow:visible"/></clipPath><path d="M100.3 354.8s-1.3-2.2-2.5-6.4c-.7-2.3-.8-4.7-.8-6.1" style="clip-path:url(#SVGID_44_);fill:none;stroke:#39373a;stroke-width:.446"/><path d="m100.436 264.605.512-.86 19.076 11.356-.511.86z" class="st1"/><defs><path id="SVGID_45_" d="M33.6 25.7h554.9v603.6H33.6z"/></defs><clipPath id="SVGID_46_"><use xlink:href="#SVGID_45_" style="overflow:visible"/></clipPath><path d="M100.3 264.8s-1.3 2.2-2.5 6.4c-.7 2.3-.8 4.7-.8 6.1" style="clip-path:url(#SVGID_46_);fill:none;stroke:#39373a;stroke-width:.446"/><path d="m120.584 290.075 19.076-11.355.512.86-19.077 11.354z" class="st1"/><defs><path id="SVGID_47_" d="M33.6 25.7h554.9v603.6H33.6z"/></defs><clipPath id="SVGID_48_"><use xlink:href="#SVGID_47_" style="overflow:visible"/></clipPath><path d="M140.3 279.7s1.3 2.2 2.5 6.4c.7 2.3.8 4.7.8 6.1" style="clip-path:url(#SVGID_48_);fill:none;stroke:#39373a;stroke-width:.446"/><path d="m172.115 196.558 19.077-11.355.511.86-19.076 11.354z" class="st1"/><defs><path id="SVGID_49_" d="M33.6 25.7h554.9v603.6H33.6z"/></defs><clipPath id="SVGID_50_"><use xlink:href="#SVGID_49_" style="overflow:visible"/></clipPath><path d="M172 196.4s-1.3-2.2-2.5-6.4c-.7-2.3-.8-4.7-.8-6.1" style="clip-path:url(#SVGID_50_);fill:none;stroke:#39373a;stroke-width:.446"/><path d="m87.912 196.554 19.076-11.354.512.859-19.077 11.355z" class="st1"/><defs><path id="SVGID_51_" d="M33.6 25.7h554.9v603.6H33.6z"/></defs><clipPath id="SVGID_52_"><use xlink:href="#SVGID_51_" style="overflow:visible"/></clipPath><path d="M87.8 196.4s-1.3-2.2-2.5-6.4c-.7-2.3-.8-4.7-.8-6.1" style="clip-path:url(#SVGID_52_);fill:none;stroke:#39373a;stroke-width:.446"/><path d="m472.904 187.037.511-.859 19.076 11.356-.511.859z" class="st1"/><defs><path id="SVGID_53_" d="M33.6 25.7h554.9v603.6H33.6z"/></defs><clipPath id="SVGID_54_"><use xlink:href="#SVGID_53_" style="overflow:visible"/></clipPath><path d="M492.6 197.4s1.3-2.2 2.5-6.4c1.1-3.8.8-7.5.8-7.5" style="clip-path:url(#SVGID_54_);fill:none;stroke:#39373a;stroke-width:.446"/><path d="m317.751 170.698 11.356-19.076.86.511-11.356 19.076z" class="st1"/><defs><path id="SVGID_55_" d="M33.6 25.7h554.9v603.6H33.6z"/></defs><clipPath id="SVGID_56_"><use xlink:href="#SVGID_55_" style="overflow:visible"/></clipPath><path d="M329 151.5s-2.2-1.3-6.4-2.5c-3.8-1.1-7.5-.8-7.5-.8" style="clip-path:url(#SVGID_56_);fill:none;stroke:#39373a;stroke-width:.446"/><path d="m458.655 277.681.511-.859 19.076 11.355-.511.86z" class="st1"/><defs><path id="SVGID_57_" d="M33.6 25.7h554.9v603.6H33.6z"/></defs><clipPath id="SVGID_58_"><use xlink:href="#SVGID_57_" style="overflow:visible"/></clipPath><path d="M478.4 288s1.3-2.2 2.5-6.4c1.1-3.8.8-7.5.8-7.5" style="clip-path:url(#SVGID_58_);fill:none;stroke:#39373a;stroke-width:.446"/><path d="m458.622 345.6.512-.86 19.076 11.356-.512.86z" class="st1"/><defs><path id="SVGID_59_" d="M33.6 25.7h554.9v603.6H33.6z"/></defs><clipPath id="SVGID_60_"><use xlink:href="#SVGID_59_" style="overflow:visible"/></clipPath><path d="M478.4 355.9s1.3-2.2 2.5-6.4c1.1-3.8.8-7.5.8-7.5" style="clip-path:url(#SVGID_60_);fill:none;stroke:#39373a;stroke-width:.446"/><path d="m428.497 356.02 19.076-11.355.512.86-19.077 11.354z" class="st1"/><defs><path id="SVGID_61_" d="M33.6 25.7h554.9v603.6H33.6z"/></defs><clipPath id="SVGID_62_"><use xlink:href="#SVGID_61_" style="overflow:visible"/></clipPath><path d="M428.3 355.9s-1.3-2.2-2.5-6.4c-1.1-3.8-.8-7.5-.8-7.5" style="clip-path:url(#SVGID_62_);fill:none;stroke:#39373a;stroke-width:.446"/><path d="m553.89 303.393 19.076-11.354.512.859-19.077 11.355z" class="st1"/><defs><path id="SVGID_63_" d="M33.6 25.7h554.9v603.6H33.6z"/></defs><clipPath id="SVGID_64_"><use xlink:href="#SVGID_63_" style="overflow:visible"/></clipPath><path d="M573.6 293.1s1.3 2.2 2.5 6.4c1.1 3.8.8 7.5.8 7.5" style="clip-path:url(#SVGID_64_);fill:none;stroke:#39373a;stroke-width:.446"/><path d="m499.104 300.187.512-.859 13.06 7.775-.51.86z" class="st1"/><defs><path id="SVGID_65_" d="M33.6 25.7h554.9v603.6H33.6z"/></defs><clipPath id="SVGID_66_"><use xlink:href="#SVGID_65_" style="overflow:visible"/></clipPath><path d="M512.9 307s1.3-2.2 2.5-6.4c.2-.6.3-1.2.4-1.8" style="clip-path:url(#SVGID_66_);fill:none;stroke:#39373a;stroke-width:.446"/><path d="m481.489 317.571.859-.511 7.774 13.061-.859.512z" class="st1"/><defs><path id="SVGID_67_" d="M33.6 25.7h554.9v603.6H33.6z"/></defs><clipPath id="SVGID_68_"><use xlink:href="#SVGID_67_" style="overflow:visible"/></clipPath><path d="M482.5 316.9s2.2-1.3 6.4-2.5c.6-.2 1.2-.3 1.8-.4" style="clip-path:url(#SVGID_68_);fill:none;stroke:#39373a;stroke-width:.446"/><path d="m411.149 299.683.86-.511 8.848 14.865-.86.512z" class="st1"/><defs><path id="SVGID_69_" d="M33.6 25.7h554.9v603.6H33.6z"/></defs><clipPath id="SVGID_70_"><use xlink:href="#SVGID_69_" style="overflow:visible"/></clipPath><path d="M419.8 314.7s-2.2 1.3-6.4 2.5c-.6.2-1.2.3-1.8.4" style="clip-path:url(#SVGID_70_);fill:none;stroke:#39373a;stroke-width:.446"/><path d="m530.254 189.014 7.212-7.213 13.577 13.576-7.212 7.213zm-.047 288.095 11.808-11.81 7 7-11.808 11.81z" class="st2"/><path d="m340.2 422.5.6 1.1 15.6-9.5v-1.7zm-4.3-3.8-.6 1-14.5-7.7v-1.7z" class="st33"/><defs><path id="SVGID_71_" d="M33.6 25.7h554.9v603.6H33.6z"/></defs><clipPath id="SVGID_72_"><use xlink:href="#SVGID_71_" style="overflow:visible"/></clipPath><path d="M340.1 422.5s-1-2.2-1.5-4.2c-.6-2-.7-6.4-.7-6.4s-.3 3.2-.7 4.3c-.6 1.6-1.4 2.7-1.4 2.7" style="clip-path:url(#SVGID_72_);fill:none;stroke:#39373a;stroke-width:.371"/><path d="m342.7 492.9.6 1.1 15.6-9.5v-1.7zm-4.3-3.8-.6 1-14.5-7.8v-1.6z" class="st33"/><defs><path id="SVGID_73_" d="M33.6 25.7h554.9v603.6H33.6z"/></defs><clipPath id="SVGID_74_"><use xlink:href="#SVGID_73_" style="overflow:visible"/></clipPath><path d="M342.5 492.9s-1-2.2-1.5-4.2c-.6-2-.7-6.4-.7-6.4s-.3 3.2-.7 4.3c-.6 1.6-1.4 2.7-1.4 2.7" style="clip-path:url(#SVGID_74_);fill:none;stroke:#39373a;stroke-width:.371"/><path d="m328.6 557.5.6 1.1 15.6-9.6v-1.7zm-4.3-3.9-.6 1.1-12.8-5.9v-1.6z" class="st33"/><defs><path id="SVGID_75_" d="M33.6 25.7h554.9v603.6H33.6z"/></defs><clipPath id="SVGID_76_"><use xlink:href="#SVGID_75_" style="overflow:visible"/></clipPath><path d="M328.5 557.5s-1-2.2-1.5-4.2c-.6-2-.7-6.4-.7-6.4s-.3 3.2-.7 4.3c-.6 1.6-1.4 2.7-1.4 2.7" style="clip-path:url(#SVGID_76_);fill:none;stroke:#39373a;stroke-width:.371"/><path d="m227.898 373.28.511-.86 13.061 7.775-.511.86z" class="st1"/><defs><path id="SVGID_77_" d="M33.6 25.7h554.9v603.6H33.6z"/></defs><clipPath id="SVGID_78_"><use xlink:href="#SVGID_77_" style="overflow:visible"/></clipPath><path d="M241.6 380.1s1.3-2.2 2.5-6.4c.2-.6.3-1.2.4-1.8" style="clip-path:url(#SVGID_78_);fill:none;stroke:#39373a;stroke-width:.446"/><path d="m89.261 342.906 7.775-13.06.86.51-7.776 13.062z" class="st1"/><defs><path id="SVGID_79_" d="M33.6 25.7h554.9v603.6H33.6z"/></defs><clipPath id="SVGID_80_"><use xlink:href="#SVGID_79_" style="overflow:visible"/></clipPath><path d="M96.9 329.7s-2.2-1.3-6.4-2.5c-.6-.2-1.2-.3-1.8-.4" style="clip-path:url(#SVGID_80_);fill:none;stroke:#39373a;stroke-width:.446"/><path d="m89.288 289.341.859-.511 7.774 13.061-.859.512z" class="st1"/><defs><path id="SVGID_81_" d="M33.6 25.7h554.9v603.6H33.6z"/></defs><clipPath id="SVGID_82_"><use xlink:href="#SVGID_81_" style="overflow:visible"/></clipPath><path d="M96.9 302.5s-2.2 1.3-6.4 2.5c-.6.2-1.2.3-1.8.4" style="clip-path:url(#SVGID_82_);fill:none;stroke:#39373a;stroke-width:.446"/><path d="m279.78 390.333 10.333-17.357.859.511-10.332 17.358z" class="st1"/><defs><path id="SVGID_83_" d="M33.6 25.7h554.9v603.6H33.6z"/></defs><clipPath id="SVGID_84_"><use xlink:href="#SVGID_83_" style="overflow:visible"/></clipPath><path d="M280.8 391s2.2 1.3 6.4 2.5c.6.2 1.2.3 1.8.4" style="clip-path:url(#SVGID_84_);fill:none;stroke:#39373a;stroke-width:.446"/><path d="m174.304 469.98.511-.86 19.076 11.356-.511.859z" class="st1"/><defs><path id="SVGID_85_" d="M33.6 25.7h554.9v603.6H33.6z"/></defs><clipPath id="SVGID_86_"><use xlink:href="#SVGID_85_" style="overflow:visible"/></clipPath><path d="M174.2 470.1s-1.3 2.2-2.5 6.4c-.7 2.3-.8 4.7-.8 6.1" style="clip-path:url(#SVGID_86_);fill:none;stroke:#39373a;stroke-width:.446"/><path d="m277.98 458.09 11.356-19.077.86.512L278.84 458.6z" class="st1"/><defs><path id="SVGID_87_" d="M33.6 25.7h554.9v603.6H33.6z"/></defs><clipPath id="SVGID_88_"><use xlink:href="#SVGID_87_" style="overflow:visible"/></clipPath><path d="M279 458.7s2.2 1.3 6.4 2.5c2.3.7 4.7.8 6.1.8" style="clip-path:url(#SVGID_88_);fill:none;stroke:#39373a;stroke-width:.446"/><path d="m385.19 480.463 19.076-11.354.511.859-19.076 11.355z" class="st1"/><defs><path id="SVGID_89_" d="M33.6 25.7h554.9v603.6H33.6z"/></defs><clipPath id="SVGID_90_"><use xlink:href="#SVGID_89_" style="overflow:visible"/></clipPath><path d="M404.9 470.1s1.3 2.2 2.5 6.4c.7 2.3.8 4.7.8 6.1" style="clip-path:url(#SVGID_90_);fill:none;stroke:#39373a;stroke-width:.446"/><path d="M38.1 387.9h81.2" style="fill:none;stroke:#39373a;stroke-width:1.116;stroke-dasharray:4.277,4.277"/><path d="M275.2 410.1h33.1m-78.4-70.2h105.5" class="st1"/><path d="M327 600.4h51.8v8.2H327zm-153.3-25.5H284v25H173.7z" class="st33"/><defs><path id="SVGID_91_" d="M33.6 25.7h554.9v603.6H33.6z"/></defs><clipPath id="SVGID_92_"><use xlink:href="#SVGID_91_" style="overflow:visible"/></clipPath><path d="M173.7 602.6h116.1V629H173.7z" style="clip-path:url(#SVGID_92_);fill:none;stroke:#39373a;stroke-width:.556"/><path d="M173.7 576.3H284v22H173.7zM284 528.5h1.1v47.8H284zm.4 70h43.8v1.3h-43.8z" class="st33"/><path d="M327 598.5h1.2v26.6H327zm50.6-69.7h1.2V625h-1.2z" class="st33"/><defs><path id="SVGID_93_" d="M33.6 25.7h554.9v603.6H33.6z"/></defs><clipPath id="SVGID_94_"><use xlink:href="#SVGID_93_" style="overflow:visible"/></clipPath><path d="M134.1 574.9h39.8v54.2h-39.8z" style="clip-path:url(#SVGID_94_);fill:none;stroke:#39373a;stroke-width:.556"/><path d="M173.7 604.2h116.1v23.2H173.7zm153.3 4.4h51.8v8.2H327z" class="st33"/><path d="M327 616.8h51.8v8.2H327z" class="st33"/><path d="M290.1 615.4H173.8m8.3 1.7-8.2-1.8m8.1-1.8-8.1 1.9m-.1-28.1h110.5m-8.3-1.8 8.2 1.8m-8.1 1.9 8.1-2m68.7 38.1v-25.2m-3.5 5.7 3.6-5.5m3 5.5-3.2-5.5m-238.2-555L193.4 90m-6.3-5.7 6.2 5.7m-8-2.4 8.1 2.3m366.7-53.6-93.4 53.8m6.4-5.6-6.3 5.6m8-2.4-8 2.3" class="st1"/><path d="M550.7 432.6h25.7v31.7h-25.7zm2.5-7.1h20.9v7h-20.9zm0-14.2h20.9v7h-20.9zm0 7.1h20.9v7h-20.9zm0-14.2h20.9v7h-20.9zm0-7h20.9v7h-20.9zm0-14.2h20.9v7h-20.9zm0 7h20.9v7h-20.9zm0-14.1h20.9v7h-20.9zm0-7h20.9v7h-20.9zm0-14.2h20.9v7h-20.9zm0 7.1h20.9v7h-20.9zm0-14.2h20.9v7h-20.9zm0-7h20.9v7h-20.9zm0-7.1h20.9v7h-20.9zm-2.5 99.3v-99.4m26 .1h-35.2m22 98.8v-99.1m-3.4 6.1 3.4-5.7m3.4 5.7-3.4-5.7m12.9-.4v100.4m-.3-100.1h7.3" style="stroke-width:.589;fill:none;stroke:#39373a"/><path d="M210.7 205.9h20.4v6.9h-20.4zm22.1 0h3.5V262h-3.5z" class="st71"/><path d="M208 205.9h52.6V262H208z" class="st71"/><path d="M210.7 212.9h20.4v6.9h-20.4zm0 7h20.4v6.9h-20.4zm0 7h20.4v6.9h-20.4zm0 7.1h20.4v6.9h-20.4zm0 7h20.4v6.9h-20.4zm0 7h20.4v6.9h-20.4zm0 7h20.4v6.9h-20.4zm27.3-49.1h20.4v6.9H238zm0 7h20.4v6.9H238zm0 7h20.4v6.9H238zm0 7h20.4v6.9H238zm0 7.1h20.4v6.9H238zm0 7h20.4v6.9H238zm0 7h20.4v6.9H238zm0 7h20.4v6.9H238zm-17.2-49.2v56.4m1.7-3.5-1.7 3.2m-1.7-3.2 1.7 3.2m27.2.4v-56.5m-1.7 3.5 1.7-3.1m1.7 3.1-1.7-3.1" class="st71"/><defs><path id="SVGID_95_" d="M33.6 25.7h554.9v603.6H33.6z"/></defs><clipPath id="SVGID_96_"><use xlink:href="#SVGID_95_" style="overflow:visible"/></clipPath><path d="M365.1 104.2h-.5c-.3 0-.4-.1-.4-.5 0-.3.1-.3.4-.3h.5v.8zm-1.4.4c-.2 0-.6.1-.7.4l-.3 1.1h1.4l.2-1c0-.2.1-.2.3-.2h.5v1.2h1.3v-3.7c-.5-.1-.8-.1-1.8-.1-1.3 0-1.7.3-1.7 1.2 0 .6.2 1 .8 1.1zm-3.9.3c0-.2.1-.3.3-.3h.8v.5c-.2.2-.5.2-.7.2-.2 0-.4-.1-.4-.3v-.1zm-1-1.4c.6 0 1.2-.1 1.6-.1.4 0 .5.1.5.4v.1h-1.2c-.7 0-1.2.4-1.2.9v.4c0 .7.5 1 1.2 1 .6 0 1-.3 1.3-.6l.1.5h1.1v-2.3c0-1.1-.5-1.4-1.5-1.4-.5 0-1.4.1-2 .2l.1.9zm-.9-.9h-1.3v1.3h-1.1v-1.3h-1.3v3.6h1.3v-1.5h1.1v1.5h1.3v-3.6zm-4.5 0h-1.3v1.5c-.3.1-.5.1-.7.1-.2 0-.3-.1-.3-.3v-1.3h-1.3v1.7c0 .6.4.9 1.2.9.4 0 .8-.1 1.1-.2v1.3h1.3v-3.7zm-6.1.8c.4 0 .6.2.6 1s-.1 1-.6 1-.6-.2-.6-1 .1-1 .6-1m0-1c-1.4 0-2 .5-2 1.9s.5 1.9 2 1.9c1.4 0 2-.5 2-1.9-.1-1.3-.6-1.9-2-1.9m-2.5 2.8c-.4.1-.9.1-1.1.1-.5 0-.7-.2-.7-.8 0-.7.2-.8.7-.8h1.1l.1-.8c-.4-.2-1-.2-1.4-.2-1.4 0-1.9.5-1.9 1.9s.5 1.9 1.9 1.9c.5 0 1.1-.1 1.5-.3l-.2-1zm-5.2-1h-.5c-.3 0-.4-.1-.4-.5 0-.3.1-.3.4-.3h.5v.8zm-1.4.4c-.2 0-.6.1-.7.4l-.3 1.1h1.4l.2-1c0-.2.1-.2.3-.2h.5v1.2h1.3v-3.7c-.5-.1-.8-.1-1.8-.1-1.3 0-1.7.3-1.7 1.2 0 .6.2 1 .8 1.1zm-1.5-2h-2.2c-.6 0-1 .3-1 .9-.1.7-.1 1.2-.2 1.4-.1.3-.3.3-.6.3l.1 1c.8.1 1.5-.1 1.7-1 .1-.4.2-1 .2-1.5 0-.2.1-.3.3-.3h.3v2.8h1.3v-3.6zm-6.2.8c.4 0 .6.2.6 1s-.1 1-.6 1-.6-.2-.6-1 .2-1 .6-1m0-1c-1.4 0-2 .5-2 1.9s.5 1.9 2 1.9c1.4 0 2-.5 2-1.9 0-1.3-.6-1.9-2-1.9m-3.9 1.1c1-.1 1-.6 1.6-2.4h-1.4c-.4 1.5-.5 2-1.2 2h-.2c0-.2.1-.4.1-.6v-1.3H324v5h1.4v-1.7c0-.1 0-.3-.1-.5h.3c.7 0 .8.3 1.3 2.2h1.4c-.6-2.1-.7-2.5-1.7-2.7zm21.3 51.8c.6 0 .7.1.7.7 0 .5-.1.6-.7.6s-.7-.1-.7-.6c0-.6.1-.7.7-.7m0-2.1c.5 0 .6.1.6.6 0 .4-.1.6-.6.6s-.6-.1-.6-.6.1-.6.6-.6m-1.1 1.6c-.7.1-.9.7-.9 1.3 0 1 .4 1.4 2 1.4s2-.4 2-1.4c0-.7-.2-1.3-.9-1.3.5-.1.8-.6.8-1.2 0-.9-.3-1.4-1.9-1.4-1.5 0-1.9.4-1.9 1.4 0 .6.3 1.2.8 1.2zm-2.3 1.4c-.4 0-.5.1-.5.5v.3c0 .4.1.5.5.5h.3c.4 0 .5-.1.5-.5v-.3c0-.4-.1-.5-.5-.5h-.3zm-4.2-3.8.1 1.1h2.2c-.1.2-.2.4-.2.5l-1.2 3.4h1.3l1.5-4.4c.1-.4-.1-.7-.5-.7h-3.2zm-49.2 10.2.1-1H288l-.1 2.3c0 .2.2.4.4.5l.8.1c.7.1.9.2.9.6 0 .4-.2.6-.8.6-.4 0-.8 0-1.3-.1l-.1 1c.6.1 1.3.1 1.8.1 1.4 0 1.8-.7 1.8-1.6 0-.8-.3-1.5-1.5-1.7l-.8-.1.1-.7h1.9zm-4.7 2.8c-.4 0-.5.1-.5.5v.3c0 .4.1.5.5.5h.3c.4 0 .5-.1.5-.5v-.3c0-.4-.1-.5-.5-.5h-.3zm-3.1-1c.6 0 .7.1.7.7 0 .5-.1.6-.7.6s-.7-.1-.7-.6.1-.7.7-.7m0-2c.5 0 .6.1.6.6 0 .4-.1.6-.6.6s-.6-.1-.6-.6.1-.6.6-.6m-1.1 1.6c-.7.1-.9.7-.9 1.3 0 1 .4 1.4 2 1.4s2-.4 2-1.4c0-.7-.2-1.3-.9-1.3.5-.1.8-.6.8-1.2 0-.9-.3-1.4-1.9-1.4-1.5 0-1.9.4-1.9 1.4.1.6.3 1.1.8 1.2zm14.9-8.7c.2-.1.4-.2.7-.2.3 0 .5.1.5 1 0 .8-.1 1-.5 1-.3 0-.4-.1-.6-.1v-1.7zm-.3-1.1h-1.1v5h1.3v-1.6c.3.2.7.3 1.2.3.9 0 1.4-.4 1.4-1.9 0-1.2-.4-1.9-1.3-1.9-.6 0-1.1.3-1.4.6l-.1-.5zm-1.5 0h-1.4l-.5 2.2c0 .2-.1.4-.2.6h-.1c0-.2-.1-.4-.1-.6l-.5-2.2h-1.4l1.1 3.3c.1.2.2.3.4.3h.2c-.1.2-.2.4-.4.4-.2.1-.6.2-1 .2l-.1.9c.5.1 1.1.1 1.5-.1.6-.2 1-.6 1.2-1.4l1.3-3.6zm-6.3 1c.4 0 .5.2.5.9 0 .8-.1 1-.6 1-.4 0-.5-.2-.5-1s.1-.9.6-.9m1.5-2.8c-.7.3-1.4.1-2.1.4-1.1.4-1.3 1.4-1.3 2.7 0 1.3.1 2.4 2 2.4 1.4 0 1.9-.6 1.9-1.9 0-1.2-.4-1.7-1.6-1.7-.6 0-1 .2-1.3.5 0-.2.1-.4.2-.5.1-.2.3-.4.7-.5.6-.2 1.2 0 1.9-.3l-.4-1.1zm-5.8 1.8c-.3 0-.5.1-.5.4l-.3 1.4c0 .2 0 .4-.1.5h-.1c0-.2 0-.4-.1-.5l-.3-1.4c0-.3-.2-.4-.5-.4h-1.1c-.3 0-.5.2-.5.5l-.1 3.2h1.2l.1-2.7h.1l.4 1.8c.1.3.2.4.5.4h.6c.3 0 .4-.1.5-.4l.4-1.8h.1l.1 2.7h1.2l-.1-3.2c0-.3-.2-.5-.5-.5h-1zm-6.6 2.4c0-.2.1-.3.3-.3h.8v.5c-.2.2-.5.2-.7.2-.2 0-.4-.1-.4-.3v-.1zm-1-1.4c.6 0 1.2-.1 1.6-.1.4 0 .5.1.5.4v.1H278c-.7 0-1.2.4-1.2.9v.4c0 .7.5 1 1.2 1 .6 0 1-.3 1.3-.6l.1.5h1.1v-2.3c0-1.1-.5-1.4-1.5-1.4-.5 0-1.4.1-2 .2l.1.9zm0-1.3v-1.1h-4.3v1.1h1.4v4h1.4v-4h1.5zm23.7 82c.6 0 .7.2.7 1.6 0 1.3-.2 1.6-.7 1.6-.5 0-.7-.2-.7-1.6.1-1.3.2-1.6.7-1.6m.1-1c-1.5 0-2.1.7-2.1 2.6 0 2 .5 2.6 2.1 2.6 1.5 0 2.1-.7 2.1-2.6-.1-2-.6-2.6-2.1-2.6m-3.5 3.9c-.4 0-.5.1-.5.5v.3c0 .4.1.5.5.5h.3c.4 0 .5-.1.5-.5v-.3c0-.4-.1-.5-.5-.5h-.3zm-3.1-2.9c.6 0 .7.2.7 1.6 0 1.3-.2 1.6-.7 1.6-.5 0-.7-.2-.7-1.6 0-1.3.1-1.6.7-1.6m0-1c-1.5 0-2.1.7-2.1 2.6 0 2 .5 2.6 2.1 2.6 1.5 0 2.1-.7 2.1-2.6 0-2-.6-2.6-2.1-2.6m-3 5.1v-5H290l-1.3.5.2.9 1.2-.3c0 .2-.1.4-.1.6v3.3h1.3zm22.4-9.6v-.8h.4c.4 0 .5.1.5.4s-.1.4-.5.4h-.4zm0-1.6v-1.2h-1.3v3.6h1.9c1.1 0 1.6-.3 1.6-1.2 0-1-.4-1.2-1.8-1.2h-.4zm-2.1-1.2h-2.2c-.6 0-1 .3-1 .9-.1.7-.1 1.2-.2 1.4-.1.3-.3.3-.6.3l.1 1c.8.1 1.5-.1 1.7-1 .1-.4.2-1 .2-1.5 0-.2.1-.3.3-.3h.3v2.8h1.3v-3.6zm-6.1 2.7c-.5 0-.5-.1-.5-.9s.1-.9.5-.9.5.1.5.9-.1.9-.5.9m-2.4-1.4v-1.3h-1.3v3.6h1.3v-1.4h.6c.1 1.2.6 1.5 1.8 1.5 1.4 0 1.9-.4 1.9-1.9 0-1.6-.5-1.9-1.9-1.9-1.2 0-1.7.3-1.8 1.4h-.6zm-3.9-.4c.4 0 .5.2.5.9 0 .8-.1 1-.6 1s-.5-.2-.5-1c.1-.7.1-.9.6-.9m1.6-2.7c-.7.3-1.4.1-2.1.4-1.1.4-1.3 1.4-1.3 2.7 0 1.3.1 2.4 2 2.4 1.4 0 1.9-.6 1.9-1.9 0-1.2-.4-1.7-1.6-1.7-.6 0-1 .2-1.3.5 0-.2.1-.4.2-.5.1-.2.3-.4.7-.5.6-.2 1.2 0 1.9-.3l-.4-1.1zm-4.2 5.4v-3.6h-1.2l-1.2 1.7c-.1.2-.2.3-.3.5 0-.2.1-.4.1-.6v-1.7h-1.2v3.6h1.2l1.1-1.7.3-.6c0 .2-.1.4-.1.6v1.6h1.3zm-4.3-2.6v-1h-3.6v1h1.2v2.6h1.3v-2.6h1.1zm-4 1.6c-.4.1-.9.1-1.1.1-.5 0-.7-.2-.7-.9s.2-.8.7-.8h1.1l.1-.8c-.4-.2-1-.2-1.4-.2-1.4 0-1.9.5-1.9 1.9s.5 1.9 1.9 1.9c.5 0 1.1-.1 1.5-.3l-.2-.9zm-6.1-1.1c0-.6.2-.7.6-.7.4 0 .5.1.5.4 0 .2 0 .3-.4.3h-.7zm1.1.7c.9 0 1.3-.3 1.3-1 0-.8-.5-1.3-1.8-1.3-1.4 0-2 .5-2 1.9 0 1.3.5 1.9 2 1.9.6 0 1.2-.1 1.7-.3l-.1-.8c-.6.1-1.1.1-1.4.1-.5 0-.7-.1-.7-.5h1zm-5.7.5V229h.7c.5 0 .7.1.7.7 0 .5-.1.6-.6.6h-.8zm0-2.1v-1.1h.6c.5 0 .6.1.6.5 0 .5-.1.6-.6.6h-.6zm1.7.4c.6-.1.9-.4.9-1.1 0-1-.5-1.3-1.8-1.3-.9 0-1.4 0-2.1.1v5c.7.1 1.3.1 2.3.1 1.2 0 1.8-.3 1.8-1.3-.1-.9-.4-1.4-1.1-1.5zm-26 167.9c.6 0 .7.2.7 1.6 0 1.3-.2 1.6-.7 1.6-.5 0-.7-.2-.7-1.6 0-1.3.2-1.6.7-1.6m0-1c-1.5 0-2.1.7-2.1 2.6s.5 2.6 2.1 2.6c1.5 0 2.1-.7 2.1-2.6s-.5-2.6-2.1-2.6m-3.4 3.9c-.4 0-.5.1-.5.5v.3c0 .4.1.5.5.5h.3c.4 0 .5-.1.5-.5v-.3c0-.4-.1-.5-.5-.5h-.3zm-1.2-2.8.1-1h-3.2l-.1 2.3c0 .2.2.4.4.5l.8.1c.7.1.9.2.9.6 0 .4-.2.6-.8.6-.4 0-.8 0-1.3-.1l-.1 1c.6.1 1.3.1 1.8.1 1.4 0 1.8-.7 1.8-1.6 0-.8-.3-1.5-1.5-1.7l-.8-.1.1-.7h1.9zm18.3-6.7c.8-.1.8-.2 1.3-1.7H267c-.4 1.2-.4 1.3-.8 1.3h-.2v-1.4h-1.2v1.4h-.2c-.4 0-.4-.1-.8-1.3h-1.3c.5 1.5.4 1.6 1.3 1.7-.9.1-.9.2-1.4 1.9h1.3c.5-1.4.5-1.5.8-1.5h.3v1.5h1.2v-1.5h.3c.3 0 .4.1.8 1.5h1.3c-.5-1.6-.5-1.7-1.4-1.9zm-7.4-.6c.2-.1.4-.2.7-.2.3 0 .5.1.5 1 0 .8-.1 1-.5 1-.3 0-.4-.1-.6-.1v-1.7zm-.2-1.1h-1.1v5h1.3v-1.6c.3.2.7.3 1.2.3.9 0 1.4-.4 1.4-1.9 0-1.2-.4-1.9-1.3-1.9-.6 0-1.1.3-1.4.6l-.1-.5zm-4.1 1.5c0-.6.2-.7.6-.7.4 0 .5.1.5.4 0 .2 0 .3-.4.3h-.7zm1.2.7c.9 0 1.3-.3 1.3-1 0-.8-.5-1.3-1.8-1.3-1.4 0-2 .5-2 1.9 0 1.3.5 1.9 2 1.9.6 0 1.2-.1 1.7-.3l-.1-.8c-.6.1-1.1.1-1.4.1-.5 0-.7-.1-.7-.5h1zm-5.2.6v-.8h.4c.4 0 .5.1.5.4 0 .3-.1.4-.5.4h-.4zm0-1.6v-1.2H250v3.6h1.9c1.1 0 1.6-.3 1.6-1.2s-.4-1.2-1.8-1.2h-.4zm-1.9 1.4c-.4.1-.9.1-1.1.1-.5 0-.7-.2-.7-.8 0-.7.2-.8.7-.8h1.1l.1-.8c-.4-.2-1-.2-1.4-.2-1.4 0-1.9.5-1.9 1.9s.5 1.9 1.9 1.9c.5 0 1.1-.1 1.5-.3l-.2-1zm-3.9-2.6h-1.3v1.3h-1.1v-1.3h-1.3v3.6h1.3v-1.5h1.1v1.5h1.3v-3.6zm-6.3.8c.4 0 .6.2.6 1s-.1 1-.6 1-.6-.2-.6-1 .1-1 .6-1m0-.9c-1.4 0-2 .5-2 1.9s.5 1.9 2 1.9c1.4 0 2-.5 2-1.9-.1-1.4-.6-1.9-2-1.9m-4 1.1c1-.1 1-.6 1.6-2.4h-1.4c-.4 1.5-.5 2-1.2 2h-.2c0-.2.1-.4.1-.6v-1.3h-1.4v5h1.4v-1.7c0-.1 0-.3-.1-.5h.3c.7 0 .8.3 1.3 2.2h1.4c-.7-2.1-.7-2.5-1.8-2.7zm35.1 55.2h-.5c-.3 0-.4-.1-.4-.5 0-.3.1-.3.4-.3h.5v.8zm-1.4.4c-.2 0-.6.1-.7.4l-.3 1.1h1.4l.2-1c0-.2.1-.2.3-.2h.5v1.2h1.3v-3.7c-.5-.1-.8-.1-1.8-.1-1.3 0-1.7.3-1.7 1.2 0 .5.2 1 .8 1.1zm-3.9.3c0-.2.1-.3.3-.3h.8v.5c-.2.2-.5.2-.7.2-.2 0-.4-.1-.4-.3v-.1zm-1-1.4c.6 0 1.2-.1 1.6-.1.4 0 .5.1.5.4v.1h-1.2c-.7 0-1.2.4-1.2.9v.4c0 .7.5 1 1.2 1 .6 0 1-.3 1.3-.6l.1.5h1.1V444c0-1.1-.5-1.4-1.5-1.4-.5 0-1.4.1-2 .2l.1.9zm-.9-1h-1.3v1.3h-1.1v-1.3h-1.3v3.6h1.3v-1.5h1.1v1.5h1.3v-3.6zm-4.5 0h-1.3v1.5c-.3.1-.5.1-.7.1-.2 0-.3-.1-.3-.3v-1.3H255v1.7c0 .6.4.9 1.2.9.4 0 .8-.1 1.1-.2v1.3h1.3v-3.7zm-6.1.9c.4 0 .6.2.6 1s-.1 1-.6 1-.6-.2-.6-1c0-.9.1-1 .6-1m0-1c-1.4 0-2 .5-2 1.9s.5 1.9 2 1.9c1.4 0 2-.5 2-1.9-.1-1.4-.6-1.9-2-1.9m-2.5 2.7c-.4.1-.9.1-1.1.1-.5 0-.7-.2-.7-.8 0-.7.2-.8.7-.8h1.1l.1-.8c-.4-.2-1-.2-1.4-.2-1.4 0-1.9.5-1.9 1.9s.5 1.9 1.9 1.9c.5 0 1.1-.1 1.5-.3l-.2-1zm-5.1-.9h-.5c-.3 0-.4-.1-.4-.5 0-.3.1-.3.4-.3h.5v.8zm-1.5.4c-.2 0-.6.1-.7.4l-.3 1.1h1.4l.2-1c0-.2.1-.2.3-.2h.5v1.2h1.3v-3.7c-.5-.1-.8-.1-1.8-.1-1.3 0-1.7.3-1.7 1.2 0 .5.2 1 .8 1.1zm-1.5-2.1h-2.2c-.6 0-1 .3-1 .9-.1.7-.1 1.2-.2 1.4-.1.3-.3.3-.6.3l.1 1c.8.1 1.5-.1 1.7-1 .1-.4.2-1 .2-1.5 0-.2.1-.3.3-.3h.3v2.8h1.3v-3.6zm-6.2.9c.4 0 .6.2.6 1s-.1 1-.6 1-.6-.2-.6-1c0-.9.2-1 .6-1m0-1c-1.4 0-2 .5-2 1.9s.5 1.9 2 1.9c1.4 0 2-.5 2-1.9s-.6-1.9-2-1.9m-3.9 1.1c1-.1 1-.6 1.6-2.4H232c-.4 1.5-.5 2-1.2 2h-.2c0-.2.1-.4.1-.6v-1.3h-1.4v5h1.4v-1.7c0-.1 0-.3-.1-.5h.3c.7 0 .8.3 1.3 2.2h1.4c-.7-2.1-.8-2.5-1.8-2.7zm-63.9-23.1c.6 0 .7.2.7 1.6 0 1.3-.2 1.6-.7 1.6-.5 0-.7-.2-.7-1.6 0-1.4.1-1.6.7-1.6m0-1.1c-1.5 0-2.1.7-2.1 2.6 0 2 .5 2.6 2.1 2.6 1.5 0 2.1-.7 2.1-2.6-.1-1.9-.6-2.6-2.1-2.6m-3.5 3.9c-.4 0-.5.1-.5.5v.3c0 .4.1.5.5.5h.3c.4 0 .5-.1.5-.5v-.3c0-.4-.1-.5-.5-.5h-.3zm-3.6-2.1c0-.6.1-.8.6-.8.6 0 .6.2.6 1.3-.2.1-.4.2-.6.2-.5 0-.6-.1-.6-.7m-1.1 3.3c.6.1 1.1.1 1.4.1 1.6 0 2.2-.4 2.2-2.7 0-2-.3-2.6-1.9-2.6-1.5 0-1.9.6-1.9 1.9 0 .9.3 1.6 1.4 1.6.5 0 .8-.1 1-.3 0 .9-.2 1.1-.9 1.1h-1.3v.9zm-1 .1v-5h-1.4l-1.3.5.2.9 1.2-.3c0 .2-.1.4-.1.6v3.3h1.4zm17.3-10.1c0-.2.1-.3.3-.3h.8v.5c-.2.2-.5.2-.7.2-.2 0-.4-.1-.4-.3v-.1zm-1-1.4c.6 0 1.2-.1 1.6-.1.4 0 .5.1.5.4v.1h-1.2c-.7 0-1.2.4-1.2.9v.4c0 .7.5 1 1.2 1 .6 0 1-.3 1.3-.6l.1.5h1.1v-2.3c0-1.1-.5-1.4-1.5-1.4-.5 0-1.4.1-2 .2l.1.9zm-.6 0v-1h-3.6v1h1.2v2.6h1.3v-2.6h1.1zm-6.4 1.4c0-.2.1-.3.3-.3h.8v.5c-.2.2-.5.2-.7.2-.2 0-.4-.1-.4-.3v-.1zm-1-1.4c.6 0 1.2-.1 1.6-.1.4 0 .5.1.5.4v.1h-1.2c-.7 0-1.2.4-1.2.9v.4c0 .7.5 1 1.2 1 .6 0 1-.3 1.3-.6l.1.5h1.1v-2.3c0-1.1-.5-1.4-1.5-1.4-.5 0-1.4.1-2 .2l.1.9zm-1-1h-1.3v1.3h-1.1v-1.3h-1.3v3.6h1.3v-1.5h1.1v1.5h1.3v-3.6zm-6.1 0c-.3 0-.5.1-.5.4l-.3 1.4c0 .2 0 .4-.1.5h-.1c0-.2 0-.4-.1-.5l-.3-1.4c0-.3-.2-.4-.5-.4h-1.1c-.3 0-.5.2-.5.5l-.1 3.2h1.2l.1-2.7h.1l.4 1.8c.1.3.2.4.5.4h.6c.3 0 .4-.1.5-.4l.4-1.8h.1l.1 2.7h1.2l-.1-3.2c0-.3-.2-.5-.5-.5h-1zm-6.1.9c.4 0 .6.2.6 1s-.1 1-.6 1-.6-.2-.6-1c.1-.8.2-1 .6-1m0-1c-1.4 0-2 .5-2 1.9s.5 1.9 2 1.9c1.4 0 2-.5 2-1.9 0-1.3-.5-1.9-2-1.9m-3.6 1.9c.8-.1.8-.2 1.3-1.7h-1.3c-.3 1.2-.3 1.3-.9 1.3h-.2c0-.2.1-.3.1-.5v-.9h-1.3v3.6h1.3v-1.4h.3c.4 0 .4.1.8 1.4h1.4c-.6-1.6-.6-1.7-1.5-1.8zm23.5-8.9h-.5c-.3 0-.4-.1-.4-.5 0-.3.1-.3.4-.3h.5v.8zm-1.5.5c-.2 0-.6.1-.7.4l-.3 1.1h1.4l.2-1c0-.2.1-.2.3-.2h.5v1.2h1.3v-3.7c-.5-.1-.8-.1-1.8-.1-1.3 0-1.7.3-1.7 1.2 0 .5.2.9.8 1.1zm-3.8.2c0-.2.1-.3.3-.3h.8v.5c-.2.2-.5.2-.7.2-.2 0-.4-.1-.4-.3v-.1zm-1-1.4c.6 0 1.2-.1 1.6-.1.4 0 .5.1.5.4v.1h-1.2c-.7 0-1.2.4-1.2.9v.4c0 .7.5 1 1.2 1 .6 0 1-.3 1.3-.6l.1.5h1.1v-2.3c0-1.1-.5-1.4-1.5-1.4-.5 0-1.4.1-2 .2l.1.9zm-.9-.9h-2.2c-.6 0-1 .3-1 .9-.1.7-.1 1.2-.2 1.4-.1.3-.3.3-.6.3l.1 1c.8.1 1.5-.1 1.7-1 .1-.4.2-1 .2-1.5 0-.2.1-.3.3-.3h.3v2.8h1.3v-3.6zm-4.5 3.6v-3.6h-1.2l-1.2 1.7c-.1.2-.2.3-.3.5 0-.2.1-.4.1-.6v-1.7h-1.2v3.6h1.2l1.1-1.7.3-.6c0 .2-.1.4-.1.6v1.6h1.3zm-5.9-2.7c1-.1 1-.6 1.5-2.4h-1.4c-.5 1.5-.5 2-1 2h-.2c0-.2.1-.4.1-.6v-1.3h-1.3v1.3c0 .2 0 .4.1.6h-.3c-.5 0-.6-.5-1-2h-1.4c.5 1.8.6 2.3 1.5 2.4-1 .1-1.1.5-1.7 2.6h1.4c.6-1.8.6-2.2 1.1-2.2h.3c0 .2-.1.3-.1.5v1.7h1.3v-1.7c0-.1 0-.3-.1-.5h.2c.5 0 .6.3 1.1 2.2h1.4c-.4-2-.5-2.4-1.5-2.6zM84.3 242.9v-5h-1.4l-1.3.5.2.9 1.2-.3c0 .2-.1.4-.1.6v3.3h1.4zm-3.5-1.2c-.4 0-.5.1-.5.5v.3c0 .4.1.5.5.5h.3c.4 0 .5-.1.5-.5v-.3c0-.4-.1-.5-.5-.5h-.3zm-4.7-2.7h1.6c.4 0 .6 0 .6.2 0 .3-.3.7-.9 1.3l-1.1 1.2c-.1.2-.2.3-.2.5v.7h3.8v-1.2h-1.5c-.2 0-.5 0-.7.1l1.2-1.2c.7-.7.8-1 .8-1.6 0-1-.7-1.2-1.8-1.2-.5 0-1.1 0-1.8.2v1zm-.9 3.9v-5h-1.4l-1.3.5.2.9 1.2-.3c0 .2-.1.4-.1.6v3.3h1.4zm16.4-10c0-.2.1-.3.3-.3h.8v.5c-.2.2-.5.2-.7.2-.2 0-.4-.1-.4-.3v-.1zm-1-1.4c.6 0 1.2-.1 1.6-.1.4 0 .5.1.5.4v.1h-1.2c-.7 0-1.2.4-1.2.9v.4c0 .7.5 1 1.2 1 .6 0 1-.3 1.3-.6l.1.5H94v-2.3c0-1.1-.5-1.4-1.5-1.4-.5 0-1.4.1-2 .2l.1.9zm-.6 0v-1h-3.6v1h1.2v2.6h1.3v-2.6H90zm-6.5 1.4c0-.2.1-.3.3-.3h.8v.5c-.2.2-.5.2-.7.2-.2 0-.4-.1-.4-.3v-.1zm-1-1.4c.6 0 1.2-.1 1.6-.1.4 0 .5.1.5.4v.1h-1.2c-.7 0-1.2.4-1.2.9v.4c0 .7.5 1 1.2 1 .6 0 1-.3 1.3-.6l.1.5h1.1v-2.3c0-1.1-.5-1.4-1.5-1.4-.5 0-1.4.1-2 .2l.1.9zm-.9-1h-1.3v1.3h-1.1v-1.3h-1.3v3.6h1.3v-1.5h1.1v1.5h1.3v-3.6zm-6.1 0c-.3 0-.5.1-.5.4l-.3 1.4c0 .2 0 .4-.1.5h-.1c0-.2 0-.4-.1-.5l-.3-1.4c0-.3-.2-.4-.5-.4h-1.1c-.3 0-.5.2-.5.5l-.1 3.2h1.2l.1-2.7h.1l.4 1.8c.1.3.2.4.5.4h.6c.3 0 .4-.1.5-.4l.4-1.8h.1l.1 2.7h1.2L77 231c0-.3-.2-.5-.5-.5h-1zm-6.1.9c.4 0 .6.2.6 1s-.1 1-.6 1-.6-.2-.6-1c0-.9.2-1 .6-1m0-1c-1.4 0-2 .5-2 1.9s.5 1.9 2 1.9c1.4 0 2-.5 2-1.9s-.6-1.9-2-1.9m-3.6 1.9c.8-.1.8-.2 1.3-1.7h-1.3c-.3 1.2-.3 1.3-.9 1.3h-.2c0-.2.1-.3.1-.5v-.9h-1.3v3.6h1.3v-1.4h.2c.4 0 .4.1.8 1.4h1.4c-.5-1.7-.6-1.7-1.4-1.8zm23.4-8.9h-.5c-.3 0-.4-.1-.4-.5 0-.3.1-.3.4-.3h.5v.8zm-1.4.4c-.2 0-.6.1-.7.4l-.3 1.1h1.4l.2-1c0-.2.1-.2.3-.2h.5v1.2h1.3v-3.7c-.5-.1-.8-.1-1.8-.1-1.3 0-1.7.3-1.7 1.2 0 .6.2 1 .8 1.1zm-3.9.3c0-.2.1-.3.3-.3h.8v.5c-.2.2-.5.2-.7.2-.2 0-.4-.1-.4-.3v-.1zm-1-1.4c.6 0 1.2-.1 1.6-.1.4 0 .5.1.5.4v.1h-1.2c-.7 0-1.2.4-1.2.9v.4c0 .7.5 1 1.2 1 .6 0 1-.3 1.3-.6l.1.5h1.1V223c0-1.1-.5-1.4-1.5-1.4-.5 0-1.4.1-2 .2l.1.9zm-.9-.9h-2.2c-.6 0-1 .3-1 .9-.1.7-.1 1.2-.2 1.4-.1.3-.3.3-.6.3l.1 1c.8.1 1.5-.1 1.7-1 .1-.4.2-1 .2-1.5 0-.2.1-.3.3-.3h.3v2.8H82v-3.6zm-4.4 3.6v-3.6h-1.2l-1.2 1.7c-.1.2-.2.3-.3.5 0-.2.1-.4.1-.6v-1.7h-1.2v3.6H75l1.1-1.7.3-.6c0 .2-.1.4-.1.6v1.6h1.3zm-5.9-2.7c1-.1 1-.6 1.5-2.4h-1.4c-.5 1.5-.5 2-1 2h-.2c0-.2.1-.4.1-.6v-1.3h-1.3v1.3c0 .2 0 .4.1.6h-.3c-.5 0-.6-.5-1-2h-1.4c.5 1.8.6 2.3 1.5 2.4-1 .1-1.1.5-1.7 2.6H68c.6-1.8.6-2.2 1.1-2.2h.3c0 .2-.1.3-.1.5v1.7h1.3v-1.7c0-.1 0-.3-.1-.5h.2c.5 0 .6.3 1.1 2.2h1.4c-.4-2-.5-2.4-1.5-2.6zm94.6 46.5h1.6c.4 0 .6 0 .6.2 0 .3-.3.7-.9 1.3l-1.1 1.2c-.1.2-.2.3-.2.5v.7h3.8v-1.2h-1.5c-.2 0-.5 0-.7.1l1.2-1.2c.7-.7.8-1 .8-1.6 0-1-.7-1.2-1.8-1.2-.5 0-1.1 0-1.8.2v1zm-1.5 2.7c-.4 0-.5.1-.5.5v.3c0 .4.1.5.5.5h.3c.4 0 .5-.1.5-.5v-.3c0-.4-.1-.5-.5-.5h-.3zm-.9-.7h-.6v-2.1h-1l-.2.8v1.3h-1c-.1 0-.2-.1-.1-.2l1.1-2.9h-1.3l-1.3 3.2c-.2.4.1.8.5.8h2v1.1h1.3v-1.1l.6-.1v-.8zm-5.2 1.9v-5h-1.4l-1.3.5.2.9 1.2-.3c0 .2-.1.4-.1.6v3.3h1.4zm17.3-10c0-.2.1-.3.3-.3h.8v.5c-.2.2-.5.2-.7.2-.2 0-.4-.1-.4-.3v-.1zm-1-1.4c.6 0 1.2-.1 1.6-.1.4 0 .5.1.5.4v.1h-1.2c-.7 0-1.2.4-1.2.9v.4c0 .7.5 1 1.2 1 .6 0 1-.3 1.3-.6l.1.5h1.1V262c0-1.1-.5-1.4-1.5-1.4-.5 0-1.4.1-2 .2l.1.9zm-.6 0v-1h-3.6v1h1.2v2.6h1.3v-2.6h1.1zm-6.4 1.4c0-.2.1-.3.3-.3h.8v.5c-.2.2-.5.2-.7.2-.2 0-.4-.1-.4-.3v-.1zm-1-1.4c.6 0 1.2-.1 1.6-.1.4 0 .5.1.5.4v.1h-1.2c-.7 0-1.2.4-1.2.9v.4c0 .7.5 1 1.2 1 .6 0 1-.3 1.3-.6l.1.5h1.1V262c0-1.1-.5-1.4-1.5-1.4-.5 0-1.4.1-2 .2l.1.9zm-1-1h-1.3v1.3h-1.1v-1.3h-1.3v3.6h1.3v-1.5h1.1v1.5h1.3v-3.6zm-6.1 0c-.3 0-.5.1-.5.4l-.3 1.4c0 .2 0 .4-.1.5h-.1c0-.2 0-.4-.1-.5l-.3-1.4c0-.3-.2-.4-.5-.4h-1.1c-.3 0-.5.2-.5.5l-.1 3.2h1.2l.1-2.7h.1l.4 1.8c.1.3.2.4.5.4h.6c.3 0 .4-.1.5-.4l.4-1.8h.1l.1 2.7h1.2l-.1-3.2c0-.3-.2-.5-.5-.5h-1zm-6.1.8c.4 0 .6.2.6 1s-.1 1-.6 1-.6-.2-.6-1c.1-.8.2-1 .6-1m0-.9c-1.4 0-2 .5-2 1.9s.5 1.9 2 1.9c1.4 0 2-.5 2-1.9s-.5-1.9-2-1.9m-3.6 1.8c.8-.1.8-.2 1.3-1.7h-1.3c-.3 1.2-.3 1.3-.9 1.3h-.2c0-.2.1-.3.1-.5v-.9h-1.3v3.6h1.3v-1.4h.3c.4 0 .4.1.8 1.4h1.4c-.6-1.6-.6-1.6-1.5-1.8zm23.5-8.8h-.5c-.3 0-.4-.1-.4-.5 0-.3.1-.3.4-.3h.5v.8zm-1.5.4c-.2 0-.6.1-.7.4l-.3 1.1h1.4l.2-1c0-.2.1-.2.3-.2h.5v1.2h1.3v-3.7c-.5-.1-.8-.1-1.8-.1-1.3 0-1.7.3-1.7 1.2 0 .6.2 1 .8 1.1zm-3.8.3c0-.2.1-.3.3-.3h.8v.5c-.2.2-.5.2-.7.2-.2 0-.4-.1-.4-.3v-.1zm-1-1.4c.6 0 1.2-.1 1.6-.1.4 0 .5.1.5.4v.1h-1.2c-.7 0-1.2.4-1.2.9v.4c0 .7.5 1 1.2 1 .6 0 1-.3 1.3-.6l.1.5h1.1v-2.3c0-1.1-.5-1.4-1.5-1.4-.5 0-1.4.1-2 .2l.1.9zm-.9-1h-2.2c-.6 0-1 .3-1 .9-.1.7-.1 1.2-.2 1.4-.1.3-.3.3-.6.3l.1 1c.8.1 1.5-.1 1.7-1 .1-.4.2-1 .2-1.5 0-.2.1-.3.3-.3h.3v2.8h1.3v-3.6zm-4.5 3.7V252h-1.2l-1.2 1.7c-.1.2-.2.3-.3.5 0-.2.1-.4.1-.6v-1.7h-1.2v3.6h1.2l1.1-1.7.3-.6c0 .2-.1.4-.1.6v1.6h1.3zm-5.9-2.7c1-.1 1-.6 1.5-2.4h-1.4c-.5 1.5-.5 2-1 2h-.2c0-.2.1-.4.1-.6v-1.3h-1.3v1.3c0 .2 0 .4.1.6h-.3c-.5 0-.6-.5-1-2h-1.4c.5 1.8.6 2.3 1.5 2.4-1 .1-1.1.5-1.7 2.6h1.4c.6-1.8.6-2.2 1.1-2.2h.3c0 .2-.1.3-.1.5v1.7h1.3v-1.7c0-.1 0-.3-.1-.5h.2c.5 0 .6.3 1.1 2.2h1.4c-.4-2-.5-2.4-1.5-2.6zm349.4-86.6h1.4c.5 0 .7.1.7.5 0 .3 0 .5-.6.5h-1v.9h1c.5 0 .7.2.7.6 0 .5-.2.6-.8.6h-1.4v1c.6.1 1.2.1 1.8.1 1.3 0 1.8-.4 1.8-1.5 0-.8-.2-1.2-.9-1.3.7-.1.8-.5.8-1.3 0-.9-.5-1.2-1.7-1.2-.6 0-1.1 0-1.7.1l-.1 1zm-1.4 2.8c-.4 0-.5.1-.5.5v.3c0 .4.1.5.5.5h.3c.4 0 .5-.1.5-.5v-.3c0-.4-.1-.5-.5-.5h-.3zm-1-.7h-.6v-2.1h-1l-.2.8v1.3h-1c-.1 0-.2-.1-.1-.2l1.1-2.9H500l-1.3 3.2c-.2.4.1.8.5.8h2v1.1h1.3v-1.1l.6-.1v-.8zm3.3 64.6c0-.6.1-.8.6-.8.6 0 .6.2.6 1.3-.2.1-.4.2-.6.2-.5 0-.6-.2-.6-.7m-1.1 3.3c.6.1 1.1.1 1.4.1 1.6 0 2.2-.4 2.2-2.7 0-2-.3-2.6-1.9-2.6-1.5 0-1.9.6-1.9 1.9 0 .9.3 1.6 1.4 1.6.5 0 .8-.1 1-.3 0 .9-.2 1.1-.9 1.1h-1.3v.9zm-1.5-1.2c-.4 0-.5.1-.5.5v.3c0 .4.1.5.5.5h.3c.4 0 .5-.1.5-.5v-.3c0-.4-.1-.5-.5-.5h-.3zm-1.4 1.2v-5H501l-1.3.5.2.9 1.2-.3c0 .2-.1.4-.1.6v3.3h1.4zm-3.3 0v-5h-1.4l-1.3.5.2.9 1.2-.3c0 .2-.1.4-.1.6v3.3h1.4zm17.2 83.9c.6 0 .7.2.7 1.6s-.2 1.6-.7 1.6c-.5 0-.7-.2-.7-1.6s.2-1.6.7-1.6m0-1.1c-1.5 0-2.1.7-2.1 2.6s.5 2.6 2.1 2.6c1.5 0 2.1-.7 2.1-2.6s-.5-2.6-2.1-2.6m-3.4 3.9c-.4 0-.5.1-.5.5v.3c0 .4.1.5.5.5h.3c.4 0 .5-.1.5-.5v-.3c0-.4-.1-.5-.5-.5h-.3zm-1.2-2.8.1-1h-3.2l-.1 2.3c0 .2.2.4.4.5l.8.1c.7.1.9.2.9.6 0 .4-.2.6-.8.6-.4 0-.8 0-1.3-.1l-.1 1c.6.1 1.3.1 1.8.1 1.4 0 1.8-.7 1.8-1.6 0-.8-.3-1.5-1.5-1.7l-.8-.1.1-.7h1.9zm-113.2-4.8c.6 0 .7.2.7 1.6s-.2 1.6-.7 1.6c-.5 0-.7-.2-.7-1.6s.2-1.6.7-1.6m0-1.1c-1.5 0-2.1.7-2.1 2.6 0 2 .5 2.6 2.1 2.6 1.5 0 2.1-.7 2.1-2.6 0-1.9-.5-2.6-2.1-2.6m-3.4 3.9c-.4 0-.5.1-.5.5v.3c0 .4.1.5.5.5h.3c.4 0 .5-.1.5-.5v-.3c0-.4-.1-.5-.5-.5h-.3zm-4.6-2.8h1.4c.5 0 .7.1.7.5 0 .3 0 .5-.6.5h-1v.9h1c.5 0 .7.2.7.6 0 .5-.2.6-.8.6h-1.4v1c.6.1 1.2.1 1.8.1 1.3 0 1.8-.4 1.8-1.5 0-.8-.2-1.2-.9-1.3.6-.1.8-.5.8-1.3 0-.9-.5-1.2-1.7-1.2-.6 0-1.1 0-1.7.1l-.1 1zm72.9 2.2v-5H462l-1.3.5.2.9 1.2-.3c0 .2-.1.4-.1.6v3.3h1.4zm-3.4-1.2c-.4 0-.5.1-.5.5v.3c0 .4.1.5.5.5h.3c.4 0 .5-.1.5-.5v-.3c0-.4-.1-.5-.5-.5h-.3zm-1.4 1.2v-5h-1.4l-1.3.5.2.9 1.2-.3c0 .2-.1.4-.1.6v3.3h1.4zm-6.6-3.9h1.6c.4 0 .6 0 .6.2 0 .3-.3.7-.9 1.3l-1.1 1.2c-.1.2-.2.3-.2.5v.7h3.8v-1.2h-1.5c-.2 0-.5 0-.7.1l1.2-1.2c.7-.7.8-1 .8-1.6 0-1-.7-1.2-1.8-1.2-.5 0-1.1 0-1.8.2v1zm-28.9 93.9c.6 0 .7.2.7 1.6 0 1.3-.2 1.6-.7 1.6-.5 0-.7-.2-.7-1.6.1-1.4.2-1.6.7-1.6m.1-1.1c-1.5 0-2.1.7-2.1 2.6 0 2 .5 2.6 2.1 2.6 1.5 0 2.1-.7 2.1-2.6-.1-1.9-.6-2.6-2.1-2.6m-3.5 4c-.4 0-.5.1-.5.5v.3c0 .4.1.5.5.5h.3c.4 0 .5-.1.5-.5v-.3c0-.4-.1-.5-.5-.5h-.3zm-3.6-2.1c0-.6.1-.8.6-.8.6 0 .6.2.6 1.3-.2.1-.4.2-.6.2-.5-.1-.6-.2-.6-.7m-1.1 3.2c.6.1 1.1.1 1.4.1 1.6 0 2.2-.4 2.2-2.7 0-2-.3-2.6-1.9-2.6-1.5 0-1.9.6-1.9 1.9 0 .9.3 1.6 1.4 1.6.5 0 .8-.1 1-.3 0 .9-.2 1.1-.9 1.1H415v.9zm-1 .1v-5h-1.4l-1.3.5.2.9 1.2-.3c0 .2-.1.4-.1.6v3.3h1.4zm-160.5 86.6h1.6c.4 0 .6 0 .6.2 0 .3-.3.7-.9 1.3l-1.1 1.2c-.1.2-.2.3-.2.5v.7h3.8V501h-1.5c-.2 0-.5 0-.7.1l1.2-1.2c.7-.7.8-1 .8-1.6 0-1-.7-1.2-1.8-1.2-.5 0-1.1 0-1.8.2v1zm-1.4 2.7c-.4 0-.5.1-.5.5v.3c0 .4.1.5.5.5h.3c.4 0 .5-.1.5-.5v-.3c0-.4-.1-.5-.5-.5h-.3zm-1-.7h-.6v-2.1h-1l-.2.8v1.3h-1c-.1 0-.2-.1-.1-.2l1.1-2.9H248l-1.3 3.2c-.2.4.1.8.5.8h2v1.1h1.3v-1.1l.6-.1v-.8zm-5.1 2v-5h-1.4l-1.3.5.2.9 1.2-.3c0 .2-.1.4-.1.6v3.3h1.4zm261.1-92.8c.6 0 .7.1.7.7 0 .5-.1.6-.7.6s-.7-.1-.7-.6.2-.7.7-.7m0-2c.5 0 .6.1.6.6 0 .4-.1.6-.6.6s-.6-.1-.6-.6.1-.6.6-.6m-1.1 1.6c-.7.1-.9.7-.9 1.3 0 1 .4 1.4 2 1.4s2-.4 2-1.4c0-.7-.2-1.3-.9-1.3.5-.1.8-.6.8-1.2 0-.9-.3-1.4-1.9-1.4-1.5 0-1.9.4-1.9 1.4.1.5.3 1.1.8 1.2zm-2.3 1.4c-.4 0-.5.1-.5.5v.3c0 .4.1.5.5.5h.3c.4 0 .5-.1.5-.5v-.3c0-.4-.1-.5-.5-.5h-.3zm-3-1c.6 0 .7.1.7.7 0 .5-.1.6-.7.6s-.7-.1-.7-.6.1-.7.7-.7m0-2c.5 0 .6.1.6.6 0 .4-.1.6-.6.6s-.6-.1-.6-.6c-.1-.5.1-.6.6-.6m-1.1 1.6c-.7.1-.9.7-.9 1.3 0 1 .4 1.4 2 1.4s2-.4 2-1.4c0-.7-.2-1.3-.9-1.3.5-.1.8-.6.8-1.2 0-.9-.3-1.4-1.9-1.4-1.5 0-1.9.4-1.9 1.4 0 .5.2 1.1.8 1.2zm-1.8 2.6v-5h-1.4l-1.3.5.2.9 1.2-.3c0 .2-.1.4-.1.6v3.3h1.4zm-73.2-250.4v-5h-1.4l-1.3.5.2.9 1.2-.3c0 .2-.1.4-.1.6v3.3h1.4zm-3.4-1.2c-.4 0-.5.1-.5.5v.3c0 .4.1.5.5.5h.3c.4 0 .5-.1.5-.5v-.3c0-.4-.1-.5-.5-.5h-.3zm-4.3-3.8.1 1.1h2.2c-.1.2-.2.4-.2.5l-1.2 3.4h1.3l1.5-4.4c.1-.4-.1-.7-.5-.7h-3.2zM82.5 440c.6 0 .7.1.7.7 0 .5-.1.6-.7.6s-.7-.1-.7-.6c0-.6.1-.7.7-.7m0-2c.5 0 .6.1.6.6 0 .4-.1.6-.6.6s-.6-.1-.6-.6c-.1-.5.1-.6.6-.6m-1.1 1.6c-.7.1-.9.7-.9 1.3 0 1 .4 1.4 2 1.4s2-.4 2-1.4c0-.7-.2-1.3-.9-1.3.5-.1.8-.6.8-1.2 0-.9-.3-1.4-1.9-1.4-1.5 0-1.8.4-1.8 1.4-.1.5.1 1.1.7 1.2zm-2.3 1.3c-.4 0-.5.1-.5.5v.3c0 .4.1.5.5.5h.3c.4 0 .5-.1.5-.5v-.3c0-.4-.1-.5-.5-.5h-.3zm-4.7-2.7H76c.4 0 .6 0 .6.2 0 .3-.3.7-.9 1.3l-1.1 1.2c-.1.2-.2.3-.2.5v.7H78V441h-1.5c-.2 0-.5 0-.7.1l1.2-1.2c.7-.7.8-1 .8-1.6 0-1-.7-1.2-1.8-1.2-.5 0-1.1 0-1.8.2l.2.9zm-1 4v-5H72l-1.3.5.2.9 1.2-.3c0 .2-.1.4-.1.6v3.3h1.4zm17.3-10.1c0-.2.1-.3.3-.3h.8v.5c-.2.2-.5.2-.7.2-.2 0-.4-.1-.4-.3v-.1zm-1-1.4c.6 0 1.2-.1 1.6-.1.4 0 .5.1.5.4v.1h-1.2c-.7 0-1.2.4-1.2.9v.4c0 .7.5 1 1.2 1 .6 0 1-.3 1.3-.6l.1.5h1.1V431c0-1.1-.5-1.4-1.5-1.4-.5 0-1.4.1-2 .2l.1.9zm-.6.1v-1h-3.6v1h1.2v2.6H88v-2.6h1.1zm-6.5 1.3c0-.2.1-.3.3-.3h.8v.5c-.2.2-.5.2-.7.2-.2 0-.4-.1-.4-.3v-.1zm-1-1.4c.6 0 1.2-.1 1.6-.1.4 0 .5.1.5.4v.1h-1.2c-.7 0-1.2.4-1.2.9v.4c0 .7.5 1 1.2 1 .6 0 1-.3 1.3-.6l.1.5H85V431c0-1.1-.5-1.4-1.5-1.4-.5 0-1.4.1-2 .2l.1.9zm-.9-.9h-1.3v1.3h-1.1v-1.3H77v3.6h1.3v-1.5h1.1v1.5h1.3v-3.6zm-6.2 0c-.3 0-.5.1-.5.4l-.3 1.4c0 .2 0 .4-.1.5h-.1c0-.2 0-.4-.1-.5l-.3-1.4c0-.3-.2-.4-.5-.4h-1.1c-.3 0-.5.2-.5.5l-.1 3.2h1.2l.1-2.7h.1l.4 1.8c.1.3.2.4.5.4h.6c.3 0 .4-.1.5-.4l.4-1.8h.1l.1 2.7h1.2l-.1-3.2c0-.3-.2-.5-.5-.5h-1zm-6 .8c.4 0 .6.2.6 1s-.1 1-.6 1-.6-.2-.6-1 .1-1 .6-1m0-.9c-1.4 0-2 .5-2 1.9s.5 1.9 2 1.9c1.4 0 2-.5 2-1.9-.1-1.4-.6-1.9-2-1.9m-3.7 1.8c.8-.1.8-.2 1.3-1.7h-1.3c-.3 1.2-.3 1.3-.9 1.3h-.2c0-.2.1-.3.1-.5v-.9h-1.3v3.6h1.3v-1.4h.2c.4 0 .4.1.8 1.4h1.4c-.5-1.6-.5-1.6-1.4-1.8zm23.5-8.9h-.5c-.3 0-.4-.1-.4-.5 0-.3.1-.3.4-.3h.5v.8zm-1.4.5c-.2 0-.6.1-.7.4l-.3 1.1h1.4l.2-1c0-.2.1-.2.3-.2h.5v1.2h1.3V421c-.5-.1-.8-.1-1.8-.1-1.3 0-1.7.3-1.7 1.2 0 .4.1.8.8 1zm-3.9.3c0-.2.1-.3.3-.3h.8v.5c-.2.2-.5.2-.7.2-.2 0-.4-.1-.4-.3v-.1zm-1-1.5c.6 0 1.2-.1 1.6-.1.4 0 .5.1.5.4v.1h-1.2c-.7 0-1.2.4-1.2.9v.4c0 .7.5 1 1.2 1 .6 0 1-.3 1.3-.6l.1.5h1.1v-2.3c0-1.1-.5-1.4-1.5-1.4-.5 0-1.4.1-2 .2l.1.9zm-.9-.9h-2.2c-.6 0-1 .3-1 .9-.1.7-.1 1.2-.2 1.4-.1.3-.3.3-.6.3l.1 1c.8.1 1.5-.1 1.7-1 .1-.4.2-1 .2-1.5 0-.2.1-.3.3-.3h.3v2.8H81V421zm-4.5 3.6V421h-1.2l-1.2 1.7c-.1.2-.2.3-.3.5 0-.2.1-.4.1-.6V421h-1.2v3.6H74l1.1-1.7.3-.6c0 .2-.1.4-.1.6v1.6h1.3zm-5.9-2.6c1-.1 1-.6 1.5-2.4h-1.4c-.5 1.5-.5 2-1 2h-.2c0-.2.1-.4.1-.6v-1.3h-1.3v1.3c0 .2 0 .4.1.6h-.3c-.5 0-.6-.5-1-2h-1.4c.5 1.8.6 2.3 1.5 2.4-1 .1-1.1.5-1.7 2.6H67c.6-1.8.6-2.2 1.1-2.2h.3c0 .2-.1.3-.1.5v1.7h1.3v-1.7c0-.1 0-.3-.1-.5h.2c.5 0 .6.3 1.1 2.2h1.4c-.4-2-.5-2.4-1.5-2.6zm10.8-44.6c0-.6.1-.8.6-.8.6 0 .6.2.6 1.3-.2.1-.4.2-.6.2-.5-.1-.6-.2-.6-.7m-1.1 3.2c.6.1 1.1.1 1.4.1 1.6 0 2.2-.4 2.2-2.7 0-2-.3-2.6-1.9-2.6-1.5 0-1.9.6-1.9 1.9 0 .9.3 1.6 1.4 1.6.5 0 .8-.1 1-.3 0 .9-.2 1.1-.9 1.1h-1.3v.9zm-1.5-1.2c-.4 0-.5.1-.5.5v.3c0 .4.1.5.5.5h.3c.4 0 .5-.1.5-.5v-.3c0-.4-.1-.5-.5-.5h-.3zm-1.3-2.7.1-1h-3.2l-.1 2.3c0 .2.2.4.4.5l.8.1c.7.1.9.2.9.6 0 .4-.2.6-.8.6-.4 0-.8 0-1.3-.1l-.1 1c.6.1 1.3.1 1.8.1 1.4 0 1.8-.7 1.8-1.6 0-.8-.3-1.5-1.5-1.7l-.8-.1.1-.7h1.9zm21.1-6c0-.2.1-.3.3-.3h.8v.5c-.2.2-.5.2-.7.2-.2 0-.4-.1-.4-.3v-.1zm-1-1.5c.6 0 1.2-.1 1.6-.1.4 0 .5.1.5.4v.1h-1.2c-.7 0-1.2.4-1.2.9v.4c0 .7.5 1 1.2 1 .6 0 1-.3 1.3-.6l.1.5h1.1v-2.3c0-1.1-.5-1.4-1.5-1.4-.5 0-1.4.1-2 .2l.1.9zm-1-.9h-1.3v2.7h-.9v-2.7h-1.2v2.7h-.9v-2.7h-1.3v3.6h5.5v-3.6zm-6.2 3.6v-3.6h-1.2l-1.2 1.7c-.1.2-.2.3-.3.5 0-.2.1-.4.1-.6v-1.7h-1.2v3.6h1.2l1.1-1.7.3-.6c0 .2-.1.4-.1.6v1.6h1.3zm-4.5-3.6h-1.3v1.3h-1.1v-1.3h-1.3v3.6h1.3v-1.5h1.1v1.5H86v-3.6zm-4.5 1.3h-2.1v.8h2.1v-.8zm-4.2.3h-.5c-.3 0-.4-.1-.4-.5 0-.3.1-.3.4-.3h.5v.8zm-1.5.5c-.2 0-.6.1-.7.4l-.3 1.1h1.4l.2-1c0-.2.1-.2.3-.2h.5v1.2h1.3v-3.7c-.5-.1-.8-.1-1.8-.1-1.3 0-1.7.3-1.7 1.2 0 .5.2.9.8 1.1zm-1.5-2.1H73v1.3h-1.1v-1.3h-1.3v3.6h1.3v-1.5H73v1.5h1.3v-3.6zm-5.4 3.6h1.3l-1.1-1.9 1-1.8h-1.3l-.7 1.4-.7-1.4H66l1 1.8-1.1 1.9h1.3l.8-1.5.9 1.5zm-3-3.6h-1.4l-.5 2.2c0 .2-.1.4-.2.6h-.1c0-.2-.1-.4-.1-.6l-.5-2.2h-1.4l1.1 3.3c.1.2.2.3.4.3h.2c-.1.2-.2.4-.4.4-.2.1-.6.2-1 .2l-.1.9c.5.1 1.1.1 1.5-.1.6-.2 1-.6 1.2-1.4l1.3-3.6zm-6 1c1-.1 1-.6 1.6-2.4h-1.4c-.4 1.5-.5 2-1.2 2h-.2c0-.2.1-.4.1-.6V367h-1.4v5h1.4v-1.7c0-.1 0-.3-.1-.5h.3c.7 0 .8.3 1.3 2.2h1.4c-.7-2.2-.7-2.6-1.8-2.7zm105.4-47.2h1.4c.5 0 .7.1.7.5 0 .3 0 .5-.6.5h-1v.9h1c.5 0 .7.2.7.6 0 .5-.2.6-.8.6h-1.4v1c.6.1 1.2.1 1.8.1 1.3 0 1.8-.4 1.8-1.5 0-.8-.2-1.2-.9-1.3.7-.1.8-.5.8-1.3 0-.9-.5-1.2-1.7-1.2-.6 0-1.1 0-1.7.1l-.1 1zm-1.5 2.8c-.4 0-.5.1-.5.5v.3c0 .4.1.5.5.5h.3c.4 0 .5-.1.5-.5v-.3c0-.4-.1-.5-.5-.5h-.3zm-4.2-3.8.1 1.1h2.2c-.1.2-.2.4-.2.5l-1.2 3.4h1.3l1.5-4.4c.1-.4-.1-.7-.5-.7h-3.2zm21.6-5.8h-.5c-.3 0-.4-.1-.4-.5 0-.3.1-.3.4-.3h.5v.8zm-1.4.5c-.2 0-.6.1-.7.4l-.3 1.1h1.4l.2-1c0-.2.1-.2.3-.2h.5v1.2h1.3v-3.7c-.5-.1-.8-.1-1.8-.1-1.3 0-1.7.3-1.7 1.2 0 .5.2.9.8 1.1zm-3.9.3c0-.2.1-.3.3-.3h.8v.5c-.2.2-.5.2-.7.2-.2 0-.4-.1-.4-.3v-.1zm-.9-1.5c.6 0 1.2-.1 1.6-.1.4 0 .5.1.5.4v.1h-1.2c-.7 0-1.2.4-1.2.9v.4c0 .7.5 1 1.2 1 .6 0 1-.3 1.3-.6l.1.5h1.1V315c0-1.1-.5-1.4-1.5-1.4-.5 0-1.4.1-2 .2l.1.8zm-2.1.8c.8-.1.8-.2 1.3-1.7h-1.3c-.4 1.2-.4 1.3-.8 1.3h-.2v-1.4h-1.2v1.4h-.2c-.4 0-.4-.1-.8-1.3h-1.3c.5 1.5.4 1.6 1.3 1.7-.9.1-.9.2-1.4 1.9h1.3c.5-1.4.5-1.5.8-1.5h.3v1.5h1.2v-1.5h.3c.3 0 .4.1.8 1.5h1.3c-.5-1.7-.5-1.7-1.4-1.9zm-6.8-.9c.4 0 .6.2.6 1s-.1 1-.6 1-.6-.2-.6-1c.1-.8.2-1 .6-1m0-.9c-1.4 0-2 .5-2 1.9s.5 1.9 2 1.9c1.4 0 2-.5 2-1.9s-.5-1.9-2-1.9m-3.4 3.7h1.3l-1.1-1.9 1-1.8h-1.3l-.7 1.4-.7-1.4h-1.3l1 1.8-1.1 1.9h1.3l.8-1.5.8 1.5zm-3.4 0v-3.6h-1.2l-1.2 1.7c-.1.2-.2.3-.3.5 0-.2.1-.4.1-.6v-1.7h-1.2v3.6h1.2l1.1-1.7.3-.6c0 .2-.1.4-.1.6v1.6h1.3zm-6.9-2.5c.2-.1.4-.2.7-.2.3 0 .5.1.5 1 0 .8-.1 1-.5 1-.3 0-.4-.1-.6-.1v-1.7zm-.2-1.1h-1.1v5h1.3v-1.6c.3.2.7.3 1.2.3.9 0 1.4-.4 1.4-1.9 0-1.2-.4-1.9-1.3-1.9-.6 0-1.1.3-1.4.6l-.1-.5zm-2-1.4H146v5h1.4v-4.1h1.5v4.1h1.4v-5zm-69.8 21.1c-.6 0-.6-.2-.7-1.3.2-.1.4-.2.6-.2.5 0 .6.1.6.7.1.6 0 .8-.5.8m1.5-4.1c-.5-.1-1-.1-1.3-.1-1.5 0-2.2.4-2.2 2.7 0 2 .5 2.6 2 2.6s1.9-.6 1.9-1.9c0-1.1-.3-1.6-1.5-1.6-.4 0-.8.1-1 .3 0-.9.2-1.1.9-1.1h1.2v-.9zm-4.9 3.8c-.4 0-.5.1-.5.5v.3c0 .4.1.5.5.5h.3c.4 0 .5-.1.5-.5v-.3c0-.4-.1-.5-.5-.5H77zm-1.3 1.2v-5h-1.4l-1.3.5.2.9 1.2-.3c0 .2-.1.4-.1.6v3.3h1.4zm33.4-22h1.4c.5 0 .7.1.7.5 0 .3 0 .5-.6.5h-1v.9h1c.5 0 .7.2.7.6 0 .5-.2.6-.8.6h-1.4v1c.6.1 1.2.1 1.8.1 1.3 0 1.8-.4 1.8-1.5 0-.8-.2-1.2-.9-1.3.7-.1.8-.5.8-1.3 0-.9-.5-1.2-1.7-1.2-.6 0-1.1 0-1.7.1l-.1 1zm-1.5 2.8c-.4 0-.5.1-.5.5v.3c0 .4.1.5.5.5h.3c.4 0 .5-.1.5-.5v-.3c0-.4-.1-.5-.5-.5h-.3zm-4.6-2.8h1.4c.5 0 .7.1.7.5 0 .3 0 .5-.6.5h-1v.9h1c.5 0 .7.2.7.6 0 .5-.2.6-.8.6H103v1c.6.1 1.2.1 1.8.1 1.3 0 1.8-.4 1.8-1.5 0-.8-.2-1.2-.9-1.3.7-.1.8-.5.8-1.3 0-.9-.5-1.2-1.7-1.2-.6 0-1.1 0-1.7.1l-.1 1zm-24.2-13.9.1 1.1h2.2c-.1.2-.2.4-.2.5l-1.2 3.4H81l1.5-4.4c.1-.4-.1-.7-.5-.7h-3.2zm-1 3.8c-.4 0-.5.1-.5.5v.3c0 .4.1.5.5.5h.3c.4 0 .5-.1.5-.5v-.3c0-.4-.1-.5-.5-.5h-.3zm-4.5-2.8h1.4c.5 0 .7.1.7.5 0 .3 0 .5-.6.5h-1v.9h1c.5 0 .7.2.7.6 0 .5-.2.6-.8.6h-1.4v1c.6.1 1.2.1 1.8.1 1.3 0 1.8-.4 1.8-1.5 0-.8-.2-1.2-.9-1.3.7-.1.8-.5.8-1.3 0-.9-.5-1.2-1.7-1.2-.6 0-1.1 0-1.7.1l-.1 1zm261.6 155.8c.6 0 .7.1.7.7 0 .5-.1.6-.7.6s-.7-.1-.7-.6c0-.6.1-.7.7-.7m0-2.1c.5 0 .6.1.6.6 0 .4-.1.6-.6.6s-.6-.1-.6-.6.1-.6.6-.6m-1.1 1.6c-.7.1-.9.7-.9 1.3 0 1 .4 1.4 2 1.4s2-.4 2-1.4c0-.7-.2-1.3-.9-1.3.5-.1.8-.6.8-1.2 0-.9-.3-1.4-1.9-1.4-1.5 0-1.9.4-1.9 1.4.1.6.3 1.1.8 1.2zm-2.3 1.4c-.4 0-.5.1-.5.5v.3c0 .4.1.5.5.5h.3c.4 0 .5-.1.5-.5v-.3c0-.4-.1-.5-.5-.5h-.3zm-4.2-3.8.1 1.1h2.2c-.1.2-.2.4-.2.5l-1.2 3.4h1.3l1.5-4.4c.1-.4-.1-.7-.5-.7h-3.2zm15.7-6.2c.2-.1.4-.2.7-.2.3 0 .5.1.5 1 0 .8-.1 1-.5 1-.3 0-.4-.1-.6-.1v-1.7zm-.3-1.2h-1.1v5h1.3v-1.6c.3.2.7.3 1.2.3.9 0 1.4-.4 1.4-1.9 0-1.2-.4-1.9-1.3-1.9-.6 0-1.1.3-1.4.6l-.1-.5zm-1.5 0h-1.4l-.5 2.2c0 .2-.1.4-.2.6h-.1c0-.2-.1-.4-.1-.6l-.5-2.2H337l1.1 3.3c.1.2.2.3.4.3h.2c-.1.2-.2.4-.4.4-.2.1-.6.2-1 .2l-.1.9c.5.1 1.1.1 1.5-.1.6-.2 1-.6 1.2-1.4l1.3-3.6zm-6.3 1c.4 0 .5.2.5.9 0 .8-.1 1-.6 1s-.5-.2-.5-1c0-.7.1-.9.6-.9m1.5-2.8c-.7.3-1.4.1-2.1.4-1.1.4-1.3 1.4-1.3 2.7 0 1.3.1 2.4 2 2.4 1.4 0 1.9-.6 1.9-1.9 0-1.2-.4-1.7-1.6-1.7-.6 0-1 .2-1.3.5 0-.2.1-.4.2-.5.1-.2.3-.4.7-.5.6-.2 1.2 0 1.9-.3l-.4-1.1zm-5.8 1.8c-.3 0-.5.1-.5.4l-.3 1.4c0 .2 0 .4-.1.5h-.1c0-.2 0-.4-.1-.5l-.3-1.4c0-.3-.2-.4-.5-.4h-1.1c-.3 0-.5.2-.5.5l-.1 3.2h1.2l.1-2.7h.1l.4 1.8c.1.3.2.4.5.4h.6c.3 0 .4-.1.5-.4l.4-1.8h.1l.1 2.7h1.2l-.1-3.2c0-.3-.2-.5-.5-.5h-1zm-6.6 2.4c0-.2.1-.3.3-.3h.8v.5c-.2.2-.5.2-.7.2-.2 0-.4-.1-.4-.3v-.1zm-1-1.4c.6 0 1.2-.1 1.6-.1.4 0 .5.1.5.4v.1h-1.2c-.7 0-1.2.4-1.2.9v.4c0 .7.5 1 1.2 1 .6 0 1-.3 1.3-.6l.1.5h1.1v-2.3c0-1.1-.5-1.4-1.5-1.4-.5 0-1.4.1-2 .2l.1.9zm0-1.3v-1.1h-4.3v1.1h1.4v4h1.4v-4h1.5zm11.3 71.8c-.6 0-.6-.2-.7-1.3.2-.1.4-.2.6-.2.5 0 .6.1.6.7.1.6 0 .8-.5.8m1.5-4.1c-.5-.1-1-.1-1.3-.1-1.5 0-2.2.4-2.2 2.7 0 2 .5 2.6 2 2.6s1.9-.6 1.9-1.8c0-1.1-.3-1.6-1.5-1.6-.4 0-.8.1-1 .3 0-.9.2-1.1.9-1.1h1.2v-1zm-4.9 3.8c-.4 0-.5.1-.5.5v.3c0 .4.1.5.5.5h.3c.4 0 .5-.1.5-.5v-.3c0-.4-.1-.5-.5-.5h-.3zm-4.2-3.8.1 1.1h2.2c-.1.2-.2.4-.2.5l-1.2 3.4h1.3l1.5-4.4c.1-.4-.1-.7-.5-.7h-3.2zm21.8-6.3c.2-.1.4-.2.7-.2.3 0 .5.1.5 1 0 .8-.1 1-.5 1-.3 0-.4-.1-.6-.1V506zm-.3-1.1h-1.1v5h1.3v-1.6c.3.2.7.3 1.2.3.9 0 1.4-.4 1.4-1.9 0-1.2-.4-1.9-1.3-1.9-.6 0-1.1.3-1.4.6l-.1-.5zm-1.5 0h-1.4l-.5 2.2c0 .2-.1.4-.2.6h-.1c0-.2-.1-.4-.1-.6l-.5-2.2h-1.4l1.1 3.3c.1.2.2.3.4.3h.2c-.1.2-.2.4-.4.4-.2.1-.6.2-1 .2l-.1.9c.5.1 1.1.1 1.5-.1.6-.2 1-.6 1.2-1.4l1.3-3.6zm-6.3.9c.4 0 .5.2.5.9 0 .8-.1 1-.6 1s-.5-.2-.5-1c0-.7.1-.9.6-.9m1.5-2.7c-.7.3-1.4.1-2.1.4-1.1.4-1.3 1.4-1.3 2.7 0 1.3.1 2.4 2 2.4 1.4 0 1.9-.6 1.9-1.9 0-1.2-.4-1.7-1.6-1.7-.6 0-1 .2-1.3.5 0-.2.1-.4.2-.5.1-.2.3-.4.7-.5.6-.2 1.2 0 1.9-.3l-.4-1.1zm-5.8 1.8c-.3 0-.5.1-.5.4l-.3 1.4c0 .2 0 .4-.1.5h-.1c0-.2 0-.4-.1-.5l-.3-1.4c0-.3-.2-.4-.5-.4h-1.1c-.3 0-.5.2-.5.5l-.1 3.2h1.2l.1-2.7h.1l.4 1.8c.1.3.2.4.5.4h.6c.3 0 .4-.1.5-.4l.4-1.8h.1l.1 2.7h1.2l-.1-3.2c0-.3-.2-.5-.5-.5h-1zm-6.6 2.4c0-.2.1-.3.3-.3h.8v.5c-.2.2-.5.2-.7.2-.2 0-.4-.1-.4-.3v-.1zm-1-1.5c.6 0 1.2-.1 1.6-.1.4 0 .5.1.5.4v.1h-1.2c-.7 0-1.2.4-1.2.9v.4c0 .7.5 1 1.2 1 .6 0 1-.3 1.3-.6l.1.5h1.1v-2.3c0-1.1-.5-1.4-1.5-1.4-.5 0-1.4.1-2 .2l.1.9zm-.6.1v-1h-3.6v1h1.2v2.6h1.3v-2.6h1.1zm-6.4 1.4c-.4 0-.5.1-.5.5v.3c0 .4.1.5.5.5h.3c.4 0 .5-.1.5-.5v-.3c0-.4-.1-.5-.5-.5h-.3zm-2.1 1.2h1.3l-1.1-1.9 1-1.8h-1.3l-.7 1.4-.7-1.4h-1.3l1 1.8-1.1 1.9h1.3l.8-1.5.8 1.5zm-5.9-.9v-1.3h.7c.5 0 .7.1.7.7 0 .5-.1.6-.6.6h-.8zm0-2.1v-1.1h.6c.5 0 .6.1.6.5 0 .5-.1.6-.6.6h-.6zm1.6.4c.6-.1.9-.4.9-1.1 0-1-.5-1.3-1.8-1.3-.9 0-1.4 0-2.1.1v5c.7.1 1.3.1 2.3.1 1.2 0 1.8-.3 1.8-1.3 0-.9-.3-1.4-1.1-1.5zM294 324.3l.1-1h-3.2l-.1 2.3c0 .2.2.4.4.5l.8.1c.7.1.9.2.9.6 0 .4-.2.6-.8.6-.4 0-.8 0-1.3-.1l-.1 1c.6.1 1.3.1 1.8.1 1.4 0 1.8-.7 1.8-1.6 0-.8-.3-1.5-1.5-1.7l-.8-.1.1-.7h1.9zm-4.8 2.8c-.4 0-.5.1-.5.5v.3c0 .4.1.5.5.5h.3c.4 0 .5-.1.5-.5v-.3c0-.4-.1-.5-.5-.5h-.3zm-1.3 1.3v-5h-1.4l-1.3.5.2.9 1.2-.3c0 .2-.1.4-.1.6v3.3h1.4zm-6.7-4h1.6c.4 0 .6 0 .6.2 0 .3-.3.7-.9 1.3l-1.1 1.2c-.1.2-.2.3-.2.5v.7h3.8v-1.2h-1.5c-.2 0-.5 0-.7.1l1.2-1.2c.7-.7.8-1 .8-1.6 0-1-.7-1.2-1.8-1.2-.5 0-1.1 0-1.8.2v1zm49.4-7.3c.2-.1.4-.2.7-.2.3 0 .5.1.5 1 0 .8-.1 1-.5 1-.3 0-.4-.1-.6-.1v-1.7zm-.2-1.2h-1.1v5h1.3v-1.6c.3.2.7.3 1.2.3.9 0 1.4-.4 1.4-1.9 0-1.2-.4-1.9-1.3-1.9-.6 0-1.1.3-1.4.6l-.1-.5zm-3.7.9c.4 0 .6.2.6 1s-.1 1-.6 1-.6-.2-.6-1 .2-1 .6-1m0-1c-1.4 0-2 .5-2 1.9s.5 1.9 2 1.9c1.4 0 2-.5 2-1.9 0-1.3-.6-1.9-2-1.9m-4.2 2.9h-1.1c.2-.4.3-.9.4-1.6 0-.2.1-.3.3-.3h.3v1.9zm1.9 0h-.6V316h-2c-.7 0-1 .3-1.1.9-.1.6-.2 1.2-.4 1.9h-.5v1.9h.9l.1-1h2.6l.1 1h.9v-2zm-5.1.9V316h-1.2l-1.2 1.7c-.1.2-.2.3-.3.5 0-.2.1-.4.1-.6v-1.7h-1.2v3.6h1.2l1.1-1.7.3-.6c0 .2-.1.4-.1.6v1.6h1.3zm-6.9-2.5c.2-.1.4-.2.7-.2.3 0 .5.1.5 1 0 .8-.1 1-.5 1-.3 0-.4-.1-.6-.1v-1.7zm-.2-1.2h-1.1v5h1.3v-1.6c.3.2.7.3 1.2.3.9 0 1.4-.4 1.4-1.9 0-1.2-.4-1.9-1.3-1.9-.6 0-1.1.3-1.4.6l-.1-.5zm-3.7.9c.4 0 .6.2.6 1s-.1 1-.6 1-.6-.2-.6-1 .2-1 .6-1m0-1c-1.4 0-2 .5-2 1.9s.5 1.9 2 1.9c1.4 0 2-.5 2-1.9 0-1.3-.6-1.9-2-1.9m-3.6 1.9c.8-.1.8-.2 1.3-1.7h-1.3c-.3 1.2-.3 1.3-.9 1.3h-.2c0-.2.1-.3.1-.5v-.9h-1.3v3.6h1.3v-1.4h.3c.4 0 .4.1.8 1.4h1.4c-.7-1.6-.7-1.7-1.5-1.8zm-4.7 1.9V316H299l-1.2 1.7c-.1.2-.2.3-.3.5 0-.2.1-.4.1-.6v-1.7h-1.2v3.6h1.2l1.1-1.7.3-.6c0 .2-.1.4-.1.6v1.6h1.3zm-1.5-5.3c0 .4-.1.6-.4.6-.3 0-.5-.1-.4-.6h-.9c-.1.6.4 1.2 1.3 1.2s1.4-.6 1.3-1.2h-.9zm-7 4.4v-.8h.4c.4 0 .4.1.4.4s-.1.4-.4.4h-.4zm3.9-2.8h-1.3v3.6h1.3v-3.6zm-3.9 1.2v-1.2h-1.3v3.6h1.9c1.1 0 1.6-.3 1.6-1.2 0-1-.4-1.2-1.8-1.2h-.4zm-2-1.2h-1.3v1.3h-1.1v-1.3H286v3.6h1.3V318h1.1v1.5h1.3v-3.6zm-6.9 1.2c.2-.1.4-.2.7-.2.3 0 .5.1.5 1 0 .8-.1 1-.5 1-.3 0-.4-.1-.6-.1v-1.7zm-.3-1.2h-1.1v5h1.3v-1.6c.3.2.7.3 1.2.3.9 0 1.4-.4 1.4-1.9 0-1.2-.4-1.9-1.3-1.9-.6 0-1.1.3-1.4.6l-.1-.5zm-1.8 3.7V316h-1.2l-1.2 1.7c-.1.2-.2.3-.3.5 0-.2.1-.4.1-.6v-1.7h-1.2v3.6h1.2l1.1-1.7.3-.6c0 .2-.1.4-.1.6v1.6h1.3zm-4.3-2.7v-1h-3.6v1h1.2v2.6h1.3v-2.6h1.1zm-6.5.2c.2-.1.4-.2.7-.2.3 0 .5.1.5 1 0 .8-.1 1-.5 1-.3 0-.4-.1-.6-.1v-1.7zm-.3-1.2h-1.1v5h1.3v-1.6c.3.2.7.3 1.2.3.9 0 1.4-.4 1.4-1.9 0-1.2-.4-1.9-1.3-1.9-.6 0-1.1.3-1.4.6l-.1-.5zm-4.2 2.4c0-.2.1-.3.3-.3h.8v.5c-.2.2-.5.2-.7.2-.2 0-.4-.1-.4-.3v-.1zm-1-1.4c.6 0 1.2-.1 1.6-.1.4 0 .5.1.5.4v.1h-1.2c-.7 0-1.2.4-1.2.9v.4c0 .7.5 1 1.2 1 .6 0 1-.3 1.3-.6l.1.5h1.1v-2.3c0-1.1-.5-1.4-1.5-1.4-.5 0-1.4.1-2 .2l.1.9zm-3.1 1.9v-.7h.6c.4 0 .5.1.5.4 0 .3-.1.4-.5.4h-.6zm0-1.4v-.6h.6c.4 0 .5.1.5.3s-.1.3-.4.3h-.7zm1.5.3c.6 0 .8-.3.8-.8 0-.8-.4-1-1.6-1h-1.9v3.7h2.1c1.1 0 1.6-.2 1.6-1-.1-.5-.4-.8-1-.9zm-4.6 0c.8-.1.8-.2 1.3-1.7h-1.3c-.3 1.2-.3 1.3-.9 1.3h-.2c0-.2.1-.3.1-.5v-.9h-1.3v3.6h1.3v-1.4h.3c.4 0 .4.1.8 1.4h1.4c-.7-1.6-.7-1.7-1.5-1.8zm-5.4-.3c0-.6.2-.7.6-.7.4 0 .5.1.5.4 0 .2 0 .3-.4.3h-.7zm1.1.7c.9 0 1.3-.3 1.3-1 0-.8-.5-1.3-1.8-1.3-1.4 0-2 .5-2 1.9 0 1.3.5 1.9 2 1.9.6 0 1.2-.1 1.7-.3l-.1-.8c-.6.1-1.1.1-1.4.1-.5 0-.7-.1-.7-.5h1zm-3.1-2.2h-1.3v1.3h-1.1v-1.3h-1.3v3.6h1.3V318h1.1v1.5h1.3v-3.6zm-7.1 2.8v-1.3h.7c.5 0 .7.1.7.7 0 .5-.1.6-.6.6h-.8zm0-2.2v-1.1h.6c.5 0 .6.1.6.5 0 .5-.1.6-.6.6h-.6zm1.6.4c.6-.1.9-.4.9-1.1 0-1-.5-1.3-1.8-1.3-.9 0-1.4 0-2.1.1v5c.7.1 1.3.1 2.3.1 1.2 0 1.8-.3 1.8-1.3 0-.9-.3-1.4-1.1-1.5zm8.7 44.3h1.6c.4 0 .6 0 .6.2 0 .3-.3.7-.9 1.3l-1.1 1.2c-.1.2-.2.3-.2.5v.7h3.8V364h-1.5c-.2 0-.5 0-.7.1l1.2-1.2c.7-.7.8-1 .8-1.6 0-1-.7-1.2-1.8-1.2-.5 0-1.1 0-1.8.2v.9zm-1.5 2.7c-.4 0-.5.1-.5.5v.3c0 .4.1.5.5.5h.3c.4 0 .5-.1.5-.5v-.3c0-.4-.1-.5-.5-.5h-.3zm-4.5-2.8h1.4c.5 0 .7.1.7.5 0 .3 0 .5-.6.5h-1v.9h1c.5 0 .7.2.7.6 0 .5-.2.6-.8.6H248v1c.6.1 1.2.1 1.8.1 1.3 0 1.8-.4 1.8-1.5 0-.8-.2-1.2-.9-1.3.7-.1.8-.5.8-1.3 0-.9-.5-1.2-1.7-1.2-.6 0-1.1 0-1.7.1l-.1 1zM172.2 235h3.7c1.3 0 1.7.2 1.7 1.2 0 .9-.1 1.4-1.6 1.4h-2.5v2.3h2.5c1.4 0 1.7.4 1.7 1.5 0 1.3-.5 1.6-2.2 1.6-1.1 0-2 0-3.7-.1l-.1 2.6c1.5.2 3.2.4 4.7.4 3.5 0 4.8-1.1 4.7-3.9 0-2-.6-3-2.4-3.3v-.1c1.7-.3 2.1-1.4 2.1-3.3 0-2.4-1.2-3.1-4.5-3.1-1.5 0-2.9.1-4.4.4l.3 2.4zm-3.8 7.3c-.9 0-1.2.3-1.2 1.2v.8c0 .9.3 1.2 1.2 1.2h.8c.9 0 1.2-.3 1.2-1.2v-.8c0-.9-.3-1.2-1.2-1.2h-.8zm-7.6.9c-1.5 0-1.7-.5-1.7-3.4.6-.4 1.1-.5 1.7-.5 1.3 0 1.5.3 1.5 1.7.1 1.6 0 2.2-1.5 2.2m4.1-10.7c-1.4-.4-2.7-.4-3.4-.4-3.8 0-5.8.9-5.8 7 0 5.4 1.2 6.7 5.1 6.7 4 0 4.9-1.5 4.9-4.8 0-2.9-.9-4.1-3.9-4.1-1.2 0-2 .2-2.7.8.1-2.5.6-2.9 2.3-2.9h3.3l.2-2.3zm-16 7.4c1.5 0 1.8.3 1.8 1.7 0 1.3-.3 1.6-1.8 1.6s-1.8-.3-1.8-1.6c-.1-1.4.3-1.7 1.8-1.7m0-5.4c1.3 0 1.6.3 1.6 1.6 0 1.2-.2 1.5-1.6 1.5-1.4 0-1.7-.3-1.7-1.5 0-1.3.3-1.6 1.7-1.6m-2.9 4.3c-1.9.2-2.4 1.8-2.4 3.5 0 2.6 1.1 3.6 5.2 3.6 4.2 0 5.2-1 5.2-3.6 0-1.8-.4-3.3-2.3-3.5v-.1c1.4-.2 2-1.6 2-3 0-2.5-.8-3.5-4.9-3.5-4 0-4.8 1.1-4.8 3.5 0 1.4.6 2.8 2 3.1z" class="st72"/><circle cx="162.5" cy="217.5" r="11.7" style="clip-path:url(#SVGID_96_);fill:none;stroke:#39373a;stroke-width:.804"/><path d="M171 220.3c-.9.1-1.8.1-3.2.1-1.2 0-1.5-.6-1.5-2.9s.3-2.9 1.5-2.9h3l.2-2c-1-.3-1.7-.4-3.2-.4-3.2 0-4.4 1.4-4.4 5.2s1.2 5.2 4.4 5.2c1.5 0 2.4-.1 3.4-.4l-.2-1.9zm-8.5-1.6h-1.2v-4.1h-2l-.4 1.6v2.6h-2c-.2 0-.4-.1-.3-.4l2.2-5.7h-2.5l-2.5 6.3c-.3.8.2 1.5 1.1 1.5h4v2.1h2.5v-2.1l1.2-.3v-1.5z" class="st72"/><path d="M419.7 61.8v7.5m-3.6-3.6 3.3 3.3m3.5-3.3-3.3 3.3" class="st1"/><defs><path id="SVGID_97_" d="M33.6 25.7h554.9v603.6H33.6z"/></defs><clipPath id="SVGID_98_"><use xlink:href="#SVGID_97_" style="overflow:visible"/></clipPath><path d="M171.6 161.4c.8.4 1.1 1.4 1.1 3 0 1.5-.3 2.6-1.1 3l.2.6c1.6-.4 2.3-1.6 2.3-3.6s-.7-3.1-2.3-3.6l-.2.6zm.1 3.3h-.7v-2.1h-1l-.2.8v1.3h-1c-.1 0-.2-.1-.1-.2l1.1-2.9h-1.3l-1.3 3.3c-.2.4.1.8.5.8h2.1v1.1h1.3v-1.1l.6-.1v-.9zm-5.8.8c-.4 0-.5.1-.5.5v.3c0 .4.1.5.5.5h.3c.4 0 .5-.1.5-.5v-.3c0-.4-.1-.5-.5-.5h-.3zm-1-.8h-.6v-2.1h-1.1l-.2.8v1.3h-1c-.1 0-.2-.1-.1-.2l1.1-2.9h-1.3l-1.3 3.3c-.2.4.1.8.5.8h2.1v1.1h1.3v-1.1l.6-.1v-.9zm-4.6-3.9c-1.6.4-2.3 1.6-2.3 3.6s.7 3.1 2.3 3.6l.2-.6c-.8-.4-1.1-1.5-1.1-3 0-1.6.3-2.6 1.1-3l-.2-.6zm-6.5 3.7c.6 0 .7.1.7.7 0 .5-.1.6-.7.6s-.7-.1-.7-.6c0-.6.1-.7.7-.7m0-2.1c.5 0 .6.1.6.6s-.1.6-.6.6-.7-.1-.7-.6c.1-.5.2-.6.7-.6m-1.1 1.7c-.7.1-.9.7-.9 1.4 0 1 .4 1.4 2 1.4s2-.4 2-1.4c0-.7-.2-1.3-.9-1.4.6-.1.8-.6.8-1.2 0-1-.3-1.4-1.9-1.4-1.6 0-1.9.4-1.9 1.4 0 .5.2 1.1.8 1.2zm-2.4 1.4c-.4 0-.5.1-.5.5v.3c0 .4.1.5.5.5h.3c.4 0 .5-.1.5-.5v-.3c0-.4-.1-.5-.5-.5h-.3zm-3.1-1c.6 0 .7.1.7.7 0 .5-.1.6-.7.6s-.7-.1-.7-.6c0-.6.1-.7.7-.7m0-2.1c.5 0 .6.1.6.6s-.1.6-.6.6-.7-.1-.7-.6c.1-.5.2-.6.7-.6m-1.1 1.7c-.7.1-.9.7-.9 1.4 0 1 .4 1.4 2 1.4s2-.4 2-1.4c0-.7-.2-1.3-.9-1.4.6-.1.8-.6.8-1.2 0-1-.3-1.4-1.9-1.4-1.6 0-1.9.4-1.9 1.4 0 .5.2 1.1.8 1.2zm29.8 332.8c.8.4 1.1 1.4 1.1 3 0 1.5-.3 2.6-1.1 3l.2.6c1.6-.4 2.3-1.6 2.3-3.6s-.7-3.1-2.3-3.6l-.2.6zm-2.2 1.2c.6 0 .7.2.7 1.6s-.2 1.6-.7 1.6c-.6 0-.7-.2-.7-1.6s.1-1.6.7-1.6m0-1.1c-1.6 0-2.1.7-2.1 2.7s.5 2.7 2.1 2.7 2.1-.7 2.1-2.7-.5-2.7-2.1-2.7m-3.5 4c-.4 0-.5.1-.5.5v.3c0 .4.1.5.5.5h.3c.4 0 .5-.1.5-.5v-.3c0-.4-.1-.5-.5-.5h-.3zm-4.8-2.8h1.6c.4 0 .6 0 .6.2 0 .3-.3.8-.9 1.3l-1.2 1.2c-.1.2-.2.3-.2.6v.7h3.8V501h-1.5c-.2 0-.5 0-.7.1l1.3-1.3c.7-.7.8-1 .8-1.6 0-1-.7-1.3-1.8-1.3-.6 0-1.1 0-1.9.2l.1 1.1zm-.7-1.8c-1.6.4-2.3 1.6-2.3 3.6s.7 3.1 2.3 3.6l.2-.6c-.8-.4-1.1-1.5-1.1-3 0-1.6.3-2.6 1.1-3l-.2-.6zm-7 2.5c0-.6.1-.9.6-.9.6 0 .6.2.7 1.3-.2.1-.4.2-.7.2-.5.1-.6-.1-.6-.6m-1.1 3.3c.6.1 1.2.1 1.4.1 1.6 0 2.3-.4 2.3-2.7 0-2.1-.3-2.6-2-2.6-1.5 0-1.9.6-1.9 1.9 0 .9.3 1.6 1.5 1.6.5 0 .8-.1 1.1-.3 0 .9-.2 1.1-.9 1.1h-1.4l-.1.9zM155 501c-.4 0-.5.1-.5.5v.3c0 .4.1.5.5.5h.3c.4 0 .5-.1.5-.5v-.3c0-.4-.1-.5-.5-.5h-.3zm-4.7-2.9h1.4c.5 0 .7.1.7.5s0 .6-.6.6h-1v.9h1c.6 0 .7.2.7.6 0 .5-.2.6-.9.6h-1.4v1c.6.1 1.2.1 1.9.1 1.4 0 1.9-.4 1.9-1.5 0-.8-.2-1.2-1-1.3.7-.1.8-.6.8-1.3 0-.9-.5-1.2-1.7-1.2-.6 0-1.1 0-1.7.1l-.1.9z" style="clip-path:url(#SVGID_98_);fill:#39373a"/></g></switch></svg>