<svg xmlns="http://www.w3.org/2000/svg" xmlns:xlink="http://www.w3.org/1999/xlink" xml:space="preserve" id="Слой_1" x="0" y="0" style="enable-background:new 0 0 214 426" version="1.1" viewBox="0 0 214 426"><style>.st1{fill:none;stroke:#39373a;stroke-width:.669}.st3,.st4{fill:#39373a}.st4,.st5{clip-path:url(#SVGID_4_)}.st5,.st6{fill:none;stroke:#39373a;stroke-width:.279}.st7,.st8{clip-path:url(#SVGID_6_)}.st7{fill:#39373a}.st8{stroke-width:.279}.st11,.st12,.st17,.st8,.st9{fill:none;stroke:#39373a}.st9{clip-path:url(#SVGID_6_);stroke-width:.236}.st11{stroke-width:.615}.st12{stroke-width:.211}.st17{clip-path:url(#SVGID_12_);stroke-width:.501}.st31{clip-path:url(#SVGID_34_);fill:#39373a}</style><switch><g><path d="M25.5 73.2h163.8v282.5H25.5z" style="fill:#fff5a4"/><path d="M31.2 62.5h41.1v2.4H31.2zm84.2 0h41.1v2.4h-41.1z" class="st1"/><defs><path id="SVGID_1_" d="M20 24.3h173.9v380.5H20z"/></defs><clipPath id="SVGID_2_"><use xlink:href="#SVGID_1_" style="overflow:visible"/></clipPath><path d="M106.1 24.7h75.8v3.6h-75.8zM24 34.9v3.6l81.5-10.3v-3.5z" style="clip-path:url(#SVGID_2_);fill:none;stroke:#39373a;stroke-width:.669"/><path d="M31.2 65H70v7.9H31.2zm84.2 0h38.8v7.9h-38.8z" class="st1"/><path d="M22.2 62.2h22.3v3.1H22.2zm84.2 0h22.3v3.1h-22.3z" class="st3"/><path d="M85.4 62.2h22.3v3.1H85.4zm84.2 0h22.3v3.1h-22.3zM22.2 64.1h20.2v9.1H22.2z" class="st3"/><path d="M106.4 64.1h20.2v9.1h-20.2z" class="st3"/><path d="M87.5 64.1h20.2v9.1H87.5zm84.1 0h20.2v9.1h-20.2zM20 34.5h5.5v331.7H20z" class="st3"/><defs><path id="SVGID_3_" d="M20 24.3h173.9v380.5H20z"/></defs><clipPath id="SVGID_4_"><use xlink:href="#SVGID_3_" style="overflow:visible"/></clipPath><path d="M51.1 212.6c0-2.6-2.1-4.7-4.8-4.7h-6.9c-.5 0-.8.4-.8.8v7.8c0 .4.4.8.8.8h6.9c2.7 0 4.8-2.1 4.8-4.7m-12.8 3.9v-7.8c0-.6.5-1.1 1.1-1.1h6.9c2.8 0 5.1 2.3 5.1 5 0 2.8-2.3 5-5.1 5h-6.9c-.6.1-1.1-.5-1.1-1.1" class="st4"/><path d="M51.1 212.6c0-2.6-2.1-4.7-4.8-4.7h-6.9c-.5 0-.8.4-.8.8v7.8c0 .4.4.8.8.8h6.9c2.7 0 4.8-2.1 4.8-4.7zm-12.8 3.9v-7.8c0-.6.5-1.1 1.1-1.1h6.9c2.8 0 5.1 2.3 5.1 5 0 2.8-2.3 5-5.1 5h-6.9c-.6.1-1.1-.5-1.1-1.1z" class="st5"/><path d="M40.9 209.2v6.8s0 .1.1.1h5.2c1.9 0 3.5-1.6 3.5-3.5s-1.6-3.5-3.5-3.5l-5.3.1c.1-.1 0 0 0 0z" class="st5"/><path d="M41.1 209.3v6.6h5.1c1.8 0 3.3-1.5 3.3-3.3 0-1.8-1.5-3.3-3.3-3.3h-5.1zm-.3 6.7v-6.8c0-.1.1-.2.2-.2h5.2c2 0 3.7 1.6 3.7 3.6s-1.6 3.6-3.7 3.6H41c-.1 0-.2-.1-.2-.2" class="st4"/><path d="M41.1 209.3v6.6h5.1c1.8 0 3.3-1.5 3.3-3.3 0-1.8-1.5-3.3-3.3-3.3h-5.1zm-.3 6.7v-6.8c0-.1.1-.2.2-.2h5.2c2 0 3.7 1.6 3.7 3.6s-1.6 3.6-3.7 3.6H41c-.1 0-.2-.1-.2-.2z" class="st5"/><path d="M46.2 212.6c0-.5-.4-.9-.9-.9s-.9.4-.9.9.4.9.9.9.9-.4.9-.9m-2.1 0c0-.7.5-1.2 1.2-1.2s1.2.5 1.2 1.2-.5 1.2-1.2 1.2-1.2-.5-1.2-1.2" class="st4"/><path d="M46.2 212.6c0-.5-.4-.9-.9-.9s-.9.4-.9.9.4.9.9.9.9-.4.9-.9zm-2.1 0c0-.7.5-1.2 1.2-1.2s1.2.5 1.2 1.2-.5 1.2-1.2 1.2-1.2-.5-1.2-1.2z" class="st5"/><path d="m41.6 210 .2-.3 2.1 1.6-.2.3z" class="st3"/><path d="m41.6 210 .2-.3 2.1 1.6-.2.3z" class="st6"/><path d="m41.6 215.2 2.1-1.6.2.3-2.1 1.5z" class="st3"/><path d="m41.6 215.2 2.1-1.6.2.3-2.1 1.5z" class="st6"/><defs><path id="SVGID_5_" d="M20 24.3h173.9v380.5H20z"/></defs><clipPath id="SVGID_6_"><use xlink:href="#SVGID_5_" style="overflow:visible"/></clipPath><path d="M38.2 209.3c0-.7-.6-1.3-1.3-1.3h-1.8c-.7 0-1.3.6-1.3 1.3v6.5c0 .7.6 1.3 1.3 1.3h1.8c.7 0 1.3-.6 1.3-1.3v-6.5zm-4.7 6.6v-6.5c0-.9.7-1.6 1.6-1.6h1.8c.9 0 1.6.7 1.6 1.6v6.5c0 .9-.7 1.6-1.6 1.6h-1.8c-.9 0-1.6-.7-1.6-1.6" class="st7"/><path d="M38.2 209.3c0-.7-.6-1.3-1.3-1.3h-1.8c-.7 0-1.3.6-1.3 1.3v6.5c0 .7.6 1.3 1.3 1.3h1.8c.7 0 1.3-.6 1.3-1.3v-6.5zm-4.7 6.6v-6.5c0-.9.7-1.6 1.6-1.6h1.8c.9 0 1.6.7 1.6 1.6v6.5c0 .9-.7 1.6-1.6 1.6h-1.8c-.9 0-1.6-.7-1.6-1.6z" class="st8"/><path d="M36.5 212.6c0-.3-.2-.5-.5-.5s-.5.2-.5.5.2.5.5.5.5-.2.5-.5m-1.3 0c0-.4.4-.8.8-.8s.8.4.8.8-.4.8-.8.8-.8-.3-.8-.8" class="st7"/><path d="M36.5 212.6c0-.3-.2-.5-.5-.5s-.5.2-.5.5.2.5.5.5.5-.2.5-.5zm-1.3 0c0-.4.4-.8.8-.8s.8.4.8.8-.4.8-.8.8-.8-.3-.8-.8z" class="st8"/><path d="M52.8 188.2c2.8 0 5.1 2.3 5.1 5.1v5.4c0 .4-.4.8-.8.8H45.6c-.4 0-.8-.3-.8-.8v-5.4c0-2.8 2.3-5.1 5.1-5.1h2.9zm-7.2 11.6h11.6c.6 0 1.1-.5 1.1-1.1v-5.4c0-3-2.4-5.4-5.4-5.4H50c-3 0-5.4 2.4-5.4 5.4v5.4c-.1.6.4 1.1 1 1.1" class="st7"/><path d="M52.8 188.2c2.8 0 5.1 2.3 5.1 5.1v5.4c0 .4-.4.8-.8.8H45.6c-.4 0-.8-.3-.8-.8v-5.4c0-2.8 2.3-5.1 5.1-5.1h2.9zm-7.2 11.6h11.6c.6 0 1.1-.5 1.1-1.1v-5.4c0-3-2.4-5.4-5.4-5.4H50c-3 0-5.4 2.4-5.4 5.4v5.4c-.1.6.4 1.1 1 1.1z" class="st9"/><path d="M52.8 189.5c2.1 0 3.8 1.7 3.8 3.8v3.2c0 .4-.3.7-.7.7h-9.2c-.4 0-.7-.3-.7-.7v-3.2c0-2.1 1.7-3.8 3.8-3.8h3zm-6 7.9H56c.5 0 1-.4 1-1v-3.2c0-2.3-1.9-4.1-4.1-4.1H50c-2.3 0-4.1 1.9-4.1 4.1v3.2c-.1.6.3 1 .9 1" class="st7"/><path d="M52.8 189.5c2.1 0 3.8 1.7 3.8 3.8v3.2c0 .4-.3.7-.7.7h-9.2c-.4 0-.7-.3-.7-.7v-3.2c0-2.1 1.7-3.8 3.8-3.8h3zm-6 7.9H56c.5 0 1-.4 1-1v-3.2c0-2.3-1.9-4.1-4.1-4.1H50c-2.3 0-4.1 1.9-4.1 4.1v3.2c-.1.6.3 1 .9 1z" class="st9"/><path d="M51.4 192.2c.3 0 .6.3.6.6 0 .4-.3.6-.6.6s-.6-.3-.6-.6c-.1-.4.2-.6.6-.6m0 1.5c.5 0 .9-.4.9-.9s-.4-.9-.9-.9-.9.4-.9.9.4.9.9.9" class="st7"/><path d="M51.4 192.2c.3 0 .6.3.6.6 0 .4-.3.6-.6.6s-.6-.3-.6-.6c-.1-.4.2-.6.6-.6zm0 1.5c.5 0 .9-.4.9-.9s-.4-.9-.9-.9-.9.4-.9.9.4.9.9.9z" class="st9"/><path d="M104.4 24.3h5.5v22.8h-5.5zm0 40.3h5.5v119h-5.5zm0 143h5.5v185h-5.5zm-78.8-53h58.7v4.3H25.6zM24 199.9h53.8v2.6H24zm0 22.8h60v4.7H24z" class="st3"/><path d="M105.8 222.7h16.8v4.7h-16.8zm35.4 0h52.1v4.7h-52.1zm48.1-198.4h4.7v170.3h-4.7z" class="st3"/><path d="M189.3 216.2h4.7v188.5h-4.7zM130 169.3h62.2v4.7H130zm-54.8-11.5h2.6v14.5h-2.6zm0 28h2.6v22.5h-2.6zM179.3 24.3h14.6v39.4h-14.6z" class="st3"/><path d="M29.1 364h69.3v2.4H29.1z" class="st1"/><path d="M89.1 364h69.3v2.4H89.1zm-60-8h65.5v7.9H29.1z" class="st1"/><path d="M91.2 356h65.5v7.9H91.2z" class="st1"/><path d="M20 363.7h22.3v3.1H20zm85.1 0h22.3v3.1h-22.3zm67.6 0h20.2v3.1h-20.2z" class="st3"/><path d="M87.6 363.7h22.3v3.1H87.6zm-67.6-8h20.2v9.1H20z" class="st3"/><path d="M105.1 355.7h20.2v9.1h-20.2zm69.6 0h18.1v9.1h-18.1z" class="st3"/><path d="M89.7 355.7h20.2v9.1H89.7zm94.1 10.2h9.7v38.8h-9.7z" class="st3"/><defs><path id="SVGID_7_" d="M20 24.3h173.9v380.5H20z"/></defs><clipPath id="SVGID_8_"><use xlink:href="#SVGID_7_" style="overflow:visible"/></clipPath><path d="M108.7 388.6v3.6L187 404v-3.6z" style="clip-path:url(#SVGID_8_);fill:none;stroke:#39373a;stroke-width:.669"/><path d="M25.9 202.8h7.2v19.7h-7.2z" class="st11"/><path d="M31.9 202.8H33v19.7h-1.1zm-.1 1.2-4.6.5V216l4.6.6m0 .8-4.6.6v2.4l4.6.6m-5.9 6.7h7.2v19.7h-7.2z" class="st11"/><path d="M31.9 227.7H33v19.7h-1.1zm-.1 1.2-4.6.5v11.5l4.6.7m0 .7-4.6.7v2.4l4.6.5" class="st11"/><path d="M47.4 227.8H33.8v13.7h13.7v-13.7zm-13.9-.3h14.3v14.3H33.5v-14.3z" class="st3"/><path d="M47.4 227.8H33.8v13.7h13.7v-13.7zm-13.9-.3h14.3v14.3H33.5v-14.3z" class="st12"/><defs><path id="SVGID_9_" d="M20 24.3h173.9v380.5H20z"/></defs><clipPath id="SVGID_10_"><use xlink:href="#SVGID_9_" style="overflow:visible"/></clipPath><path d="M45.4 240.3c.3 0 .6-.3.6-.6v-7.2c0-.3-.3-.6-.6-.6h-9.6c-.3 0-.6.3-.6.6v7.2c0 .3.3.6.6.6h9.6zm-9.6-8.8h9.6c.5 0 .9.4.9.9v7.2c0 .5-.4.9-.9.9h-9.6c-.5 0-.9-.4-.9-.9v-7.2c0-.4.4-.9.9-.9" style="clip-path:url(#SVGID_10_);fill:#39373a"/><path d="M45.4 240.3c.3 0 .6-.3.6-.6v-7.2c0-.3-.3-.6-.6-.6h-9.6c-.3 0-.6.3-.6.6v7.2c0 .3.3.6.6.6h9.6zm-9.6-8.8h9.6c.5 0 .9.4.9.9v7.2c0 .5-.4.9-.9.9h-9.6c-.5 0-.9-.4-.9-.9v-7.2c0-.4.4-.9.9-.9z" style="clip-path:url(#SVGID_10_);fill:none;stroke:#39373a;stroke-width:.211"/><path d="M44.9 232.9h-8.7v6.3h8.7v-6.3zm-8.9-.3h9.3v6.9H36v-6.9z" class="st3"/><path d="M44.9 232.9h-8.7v6.3h8.7v-6.3zm-8.9-.3h9.3v6.9H36v-6.9z" class="st12"/><defs><path id="SVGID_11_" d="M20 24.3h173.9v380.5H20z"/></defs><clipPath id="SVGID_12_"><use xlink:href="#SVGID_11_" style="overflow:visible"/></clipPath><path d="M40.6 237.3c.4 0 .8-.4.8-.8s-.4-.8-.8-.8-.8.4-.8.8.4.8.8.8m0-1.9c.6 0 1.1.5 1.1 1.1s-.5 1.1-1.1 1.1c-.6 0-1.1-.5-1.1-1.1s.5-1.1 1.1-1.1" style="clip-path:url(#SVGID_12_);fill:#39373a"/><path d="M40.6 237.3c.4 0 .8-.4.8-.8s-.4-.8-.8-.8-.8.4-.8.8.4.8.8.8zm0-1.9c.6 0 1.1.5 1.1 1.1s-.5 1.1-1.1 1.1c-.6 0-1.1-.5-1.1-1.1s.5-1.1 1.1-1.1z" style="clip-path:url(#SVGID_12_);fill:none;stroke:#39373a;stroke-width:.211"/><path d="M31.3 160.4s-4.7 0-4.7 4.7v28.3s0 4.7 4.7 4.7h6.3s4.7 0 4.7-4.7v-28.3s0-4.7-4.7-4.7h-6.3z" class="st17"/><path d="M32.8 163.1s-4.7 0-4.7 4.7v23s0 4.7 4.7 4.7h3.4s4.7 0 4.7-4.7v-23s0-4.7-4.7-4.7h-3.4z" class="st17"/><path d="M31.9 166.2s-2.4 0-2.4 2.4v23.2s0 2.4 2.4 2.4h5.3s2.4 0 2.4-2.4v-23.2s0-2.4-2.4-2.4h-5.3z" class="st17"/><path d="M34.5 191.3c.4 0 .7-.3.7-.7 0-.4-.3-.7-.7-.7s-.7.3-.7.7c0 .4.3.7.7.7z" class="st17"/><path d="M43.3 158.4v42.2" style="fill:none;stroke:#39373a;stroke-width:.501"/><path d="M44.7 156.4h13.9v17.5H44.7z" style="fill:none;stroke:#39373a;stroke-width:.567"/><path d="m178.681 197.95.86-.512 11.354 19.077-.86.511z" class="st1"/><defs><path id="SVGID_13_" d="M20 24.3h173.9v380.5H20z"/></defs><clipPath id="SVGID_14_"><use xlink:href="#SVGID_13_" style="overflow:visible"/></clipPath><path d="M179.7 197.3s2.2-1.3 6.4-2.5c3.8-1.1 7.5-.8 7.5-.8" style="clip-path:url(#SVGID_14_);fill:none;stroke:#39373a;stroke-width:.446"/><path d="m118.697 225.583.511-.859 19.076 11.356-.511.859z" class="st1"/><defs><path id="SVGID_15_" d="M20 24.3h173.9v380.5H20z"/></defs><clipPath id="SVGID_16_"><use xlink:href="#SVGID_15_" style="overflow:visible"/></clipPath><path d="M138.4 235.9s1.3-2.2 2.5-6.4c.7-2.3.8-4.7.8-6.1" style="clip-path:url(#SVGID_16_);fill:none;stroke:#39373a;stroke-width:.446"/><path d="m86.883 236.033 19.076-11.355.512.86-19.077 11.354z" class="st1"/><defs><path id="SVGID_17_" d="M20 24.3h173.9v380.5H20z"/></defs><clipPath id="SVGID_18_"><use xlink:href="#SVGID_17_" style="overflow:visible"/></clipPath><path d="M86.7 235.9s-1.3-2.2-2.5-6.4c-.7-2.3-.8-4.7-.8-6.1" style="clip-path:url(#SVGID_18_);fill:none;stroke:#39373a;stroke-width:.446"/><path d="m86.802 145.808.511-.86 19.076 11.356-.511.86z" class="st1"/><defs><path id="SVGID_19_" d="M20 24.3h173.9v380.5H20z"/></defs><clipPath id="SVGID_20_"><use xlink:href="#SVGID_19_" style="overflow:visible"/></clipPath><path d="M86.7 145.9s-1.3 2.2-2.5 6.4c-.7 2.3-.8 4.7-.8 6.1" style="clip-path:url(#SVGID_20_);fill:none;stroke:#39373a;stroke-width:.446"/><path d="m107.093 171.254 19.077-11.355.511.86-19.076 11.354z" class="st1"/><defs><path id="SVGID_21_" d="M20 24.3h173.9v380.5H20z"/></defs><clipPath id="SVGID_22_"><use xlink:href="#SVGID_21_" style="overflow:visible"/></clipPath><path d="M126.8 160.9s1.3 2.2 2.5 6.4c.7 2.3.8 4.7.8 6.1" style="clip-path:url(#SVGID_22_);fill:none;stroke:#39373a;stroke-width:.446"/><path d="M158.622 77.739 177.7 66.384l.511.86-19.076 11.354z" class="st1"/><defs><path id="SVGID_23_" d="M20 24.3h173.9v380.5H20z"/></defs><clipPath id="SVGID_24_"><use xlink:href="#SVGID_23_" style="overflow:visible"/></clipPath><path d="M158.5 77.6s-1.3-2.2-2.5-6.4c-.7-2.3-.8-4.7-.8-6.1" style="clip-path:url(#SVGID_24_);fill:none;stroke:#39373a;stroke-width:.446"/><path d="M74.42 77.735 93.496 66.38l.512.86L74.93 78.594z" class="st1"/><defs><path id="SVGID_25_" d="M20 24.3h173.9v380.5H20z"/></defs><clipPath id="SVGID_26_"><use xlink:href="#SVGID_25_" style="overflow:visible"/></clipPath><path d="M74.3 77.6s-1.3-2.2-2.5-6.4c-.7-2.3-.8-4.7-.8-6.1" style="clip-path:url(#SVGID_26_);fill:none;stroke:#39373a;stroke-width:.446"/><path d="m75.763 224.075 7.774-13.061.86.511-7.775 13.061z" class="st1"/><defs><path id="SVGID_27_" d="M20 24.3h173.9v380.5H20z"/></defs><clipPath id="SVGID_28_"><use xlink:href="#SVGID_27_" style="overflow:visible"/></clipPath><path d="M83.4 210.9s-2.2-1.3-6.4-2.5c-.6-.2-1.2-.3-1.8-.4" style="clip-path:url(#SVGID_28_);fill:none;stroke:#39373a;stroke-width:.446"/><path d="m75.794 170.524.86-.511 7.774 13.061-.86.512z" class="st1"/><defs><path id="SVGID_29_" d="M20 24.3h173.9v380.5H20z"/></defs><clipPath id="SVGID_30_"><use xlink:href="#SVGID_29_" style="overflow:visible"/></clipPath><path d="M83.4 183.7s-2.2 1.3-6.4 2.5c-.6.2-1.2.3-1.8.4" style="clip-path:url(#SVGID_30_);fill:none;stroke:#39373a;stroke-width:.446"/><path d="m160.807 351.147.511-.86 19.076 11.356-.511.86z" class="st1"/><defs><path id="SVGID_31_" d="M20 24.3h173.9v380.5H20z"/></defs><clipPath id="SVGID_32_"><use xlink:href="#SVGID_31_" style="overflow:visible"/></clipPath><path d="M160.7 351.3s-1.3 2.2-2.5 6.4c-.7 2.3-.8 4.7-.8 6.1" style="clip-path:url(#SVGID_32_);fill:none;stroke:#39373a;stroke-width:.446"/><path d="M24.5 269.1h81.3" style="fill:none;stroke:#39373a;stroke-width:1.116;stroke-dasharray:4.277,4.277"/><defs><path id="SVGID_33_" d="M20 24.3h173.9v380.5H20z"/></defs><clipPath id="SVGID_34_"><use xlink:href="#SVGID_33_" style="overflow:visible"/></clipPath><path d="M154.3 301.7c.6 0 .7.2.7 1.6 0 1.3-.2 1.6-.7 1.6-.5 0-.7-.2-.7-1.6 0-1.3.2-1.6.7-1.6m0-1c-1.5 0-2.1.7-2.1 2.6 0 2 .5 2.6 2.1 2.6 1.5 0 2.1-.7 2.1-2.6 0-2-.5-2.6-2.1-2.6m-3.4 3.9c-.4 0-.5.1-.5.5v.3c0 .4.1.5.5.5h.3c.4 0 .5-.1.5-.5v-.3c0-.4-.1-.5-.5-.5h-.3zm-3.6-2.1c0-.6.1-.8.6-.8.6 0 .6.2.6 1.3-.2.1-.4.2-.6.2-.5 0-.6-.2-.6-.7m-1.1 3.3c.6.1 1.1.1 1.4.1 1.6 0 2.2-.4 2.2-2.7 0-2-.3-2.6-1.9-2.6-1.5 0-1.9.6-1.9 1.9 0 .9.3 1.6 1.4 1.6.5 0 .8-.1 1-.3 0 .9-.2 1.1-.9 1.1h-1.3v.9zm-1 0v-5h-1.4l-1.3.5.2.9 1.2-.3c0 .2-.1.4-.1.6v3.3h1.4zm17.3-10c0-.2.1-.3.3-.3h.8v.5c-.2.2-.5.2-.7.2-.2 0-.4-.1-.4-.3v-.1zm-1-1.4c.6 0 1.2-.1 1.6-.1.4 0 .5.1.5.4v.1h-1.2c-.7 0-1.2.4-1.2.9v.4c0 .7.5 1 1.2 1 .6 0 1-.3 1.3-.6l.1.5h1.1v-2.3c0-1.1-.5-1.4-1.5-1.4-.5 0-1.4.1-2 .2l.1.9zm-.6 0v-1h-3.6v1h1.2v2.6h1.3v-2.6h1.1zm-6.5 1.4c0-.2.1-.3.3-.3h.8v.5c-.2.2-.5.2-.7.2-.2 0-.4-.1-.4-.3v-.1zm-1-1.4c.6 0 1.2-.1 1.6-.1.4 0 .5.1.5.4v.1h-1.2c-.7 0-1.2.4-1.2.9v.4c0 .7.5 1 1.2 1 .6 0 1-.3 1.3-.6l.1.5h1.1v-2.3c0-1.1-.5-1.4-1.5-1.4-.5 0-1.4.1-2 .2l.1.9zm-.9-1h-1.3v1.3h-1.1v-1.3h-1.3v3.6h1.3v-1.5h1.1v1.5h1.3v-3.6zm-6.1 0c-.3 0-.5.1-.5.4l-.3 1.4c0 .2 0 .4-.1.5h-.1c0-.2 0-.4-.1-.5l-.3-1.4c0-.3-.2-.4-.5-.4h-1.1c-.3 0-.5.2-.5.5l-.1 3.2h1.2l.1-2.7h.1l.4 1.8c.1.3.2.4.5.4h.6c.3 0 .4-.1.5-.4l.4-1.8h.1l.1 2.7h1.2l-.1-3.2c0-.3-.2-.5-.5-.5h-1zm-6.1.9c.4 0 .6.2.6 1s-.1 1-.6 1-.6-.2-.6-1c0-.9.2-1 .6-1m0-1c-1.4 0-2 .5-2 1.9s.5 1.9 2 1.9c1.4 0 2-.5 2-1.9s-.6-1.9-2-1.9m-3.6 1.9c.8-.1.8-.2 1.3-1.7h-1.3c-.3 1.2-.3 1.3-.9 1.3h-.2c0-.2.1-.3.1-.5v-.9h-1.3v3.6h1.3v-1.4h.3c.4 0 .4.1.8 1.4h1.4c-.6-1.7-.7-1.7-1.5-1.8zm23.4-8.9h-.5c-.3 0-.4-.1-.4-.5 0-.3.1-.3.4-.3h.5v.8zm-1.4.4c-.2 0-.6.1-.7.4l-.3 1.1h1.4l.2-1c0-.2.1-.2.3-.2h.5v1.2h1.3v-3.7c-.5-.1-.8-.1-1.8-.1-1.3 0-1.7.3-1.7 1.2 0 .6.2 1 .8 1.1zm-3.9.3c0-.2.1-.3.3-.3h.8v.5c-.2.2-.5.2-.7.2-.2 0-.4-.1-.4-.3v-.1zm-1-1.4c.6 0 1.2-.1 1.6-.1.4 0 .5.1.5.4v.1h-1.2c-.7 0-1.2.4-1.2.9v.4c0 .7.5 1 1.2 1 .6 0 1-.3 1.3-.6l.1.5h1.1V286c0-1.1-.5-1.4-1.5-1.4-.5 0-1.4.1-2 .2l.1.8zm-.9-1h-2.2c-.6 0-1 .3-1 .9-.1.7-.1 1.2-.2 1.4-.1.3-.3.3-.6.3l.1 1c.8.1 1.5-.1 1.7-1 .1-.4.2-1 .2-1.5 0-.2.1-.3.3-.3h.3v2.8h1.3v-3.6zm-4.4 3.7v-3.6h-1.2l-1.2 1.7c-.1.2-.2.3-.3.5 0-.2.1-.4.1-.6v-1.7h-1.2v3.6h1.2l1.1-1.7.3-.6c0 .2-.1.4-.1.6v1.6h1.3zm-5.9-2.7c1-.1 1-.6 1.5-2.4h-1.4c-.5 1.5-.5 2-1 2h-.2c0-.2.1-.4.1-.6v-1.3h-1.3v1.3c0 .2 0 .4.1.6h-.4c-.5 0-.6-.5-1-2h-1.4c.5 1.8.6 2.3 1.5 2.4-1 .1-1.1.5-1.7 2.6h1.4c.6-1.8.6-2.2 1.1-2.2h.3c0 .2-.1.3-.1.5v1.7h1.3v-1.7c0-.1 0-.3-.1-.5h.2c.5 0 .6.3 1.1 2.2h1.4c-.3-2-.4-2.4-1.4-2.6zM70.8 124.1v-5h-1.4l-1.3.5.2.9 1.2-.3c0 .2-.1.4-.1.6v3.3h1.4zm-3.5-1.2c-.4 0-.5.1-.5.5v.3c0 .4.1.5.5.5h.3c.4 0 .5-.1.5-.5v-.3c0-.4-.1-.5-.5-.5h-.3zm-4.7-2.7h1.6c.4 0 .6 0 .6.2 0 .3-.3.7-.9 1.3l-1.1 1.2c-.1.2-.2.3-.2.5v.7h3.8v-1.2h-1.5c-.2 0-.5 0-.7.1l1.2-1.2c.7-.7.8-1 .8-1.6 0-1-.7-1.2-1.8-1.2-.5 0-1.1 0-1.8.2v1zm-1 3.9v-5h-1.4l-1.3.5.2.9 1.2-.3c0 .2-.1.4-.1.6v3.3h1.4zm16.5-10c0-.2.1-.3.3-.3h.8v.5c-.2.2-.5.2-.7.2-.2 0-.4-.1-.4-.3v-.1zm-1-1.4c.6 0 1.2-.1 1.6-.1.4 0 .5.1.5.4v.1H78c-.7 0-1.2.4-1.2.9v.4c0 .7.5 1 1.2 1 .6 0 1-.3 1.3-.6l.1.5h1.1V113c0-1.1-.5-1.4-1.5-1.4-.5 0-1.4.1-2 .2l.1.9zm-.6 0v-1h-3.6v1H74v2.6h1.3v-2.6h1.2zm-6.5 1.4c0-.2.1-.3.3-.3h.8v.5c-.2.2-.5.2-.7.2-.2 0-.4-.1-.4-.3v-.1zm-1-1.4c.6 0 1.2-.1 1.6-.1.4 0 .5.1.5.4v.1h-1.2c-.7 0-1.2.4-1.2.9v.4c0 .7.5 1 1.2 1 .6 0 1-.3 1.3-.6l.1.5h1.1V113c0-1.1-.5-1.4-1.5-1.4-.5 0-1.4.1-2 .2l.1.9zm-.9-1h-1.3v1.3h-1.1v-1.3h-1.3v3.6h1.3v-1.5h1.1v1.5h1.3v-3.6zm-6.2 0c-.3 0-.5.1-.5.4l-.3 1.4c0 .2 0 .4-.1.5 0-.2 0-.4-.1-.5l-.3-1.4c0-.3-.2-.4-.5-.4H59c-.3 0-.5.2-.5.5l-.1 3.2h1.2l.1-2.7h.1l.4 1.8c.1.3.2.4.5.4h.6c.3 0 .4-.1.5-.4l.4-1.8h.1l.1 2.7h1.2l-.1-3.2c0-.3-.2-.5-.5-.5h-1.1zm-6 .8c.4 0 .6.2.6 1s-.1 1-.6 1-.6-.2-.6-1 .1-1 .6-1m0-.9c-1.4 0-2 .5-2 1.9s.5 1.9 2 1.9c1.4 0 2-.5 2-1.9-.1-1.4-.6-1.9-2-1.9m-3.7 1.8c.8-.1.8-.2 1.3-1.7h-1.3c-.3 1.2-.3 1.3-.9 1.3h-.2c0-.2.1-.3.1-.5v-.9h-1.3v3.6h1.3v-1.4h.3c.4 0 .4.1.8 1.4h1.4c-.6-1.6-.6-1.6-1.5-1.8zm23.5-8.8h-.5c-.3 0-.4-.1-.4-.5 0-.3.1-.3.4-.3h.5v.8zm-1.4.4c-.2 0-.6.1-.7.4l-.3 1.1h1.4l.2-1c0-.2.1-.2.3-.2h.5v1.2H77v-3.7c-.5-.1-.8-.1-1.8-.1-1.3 0-1.7.3-1.7 1.2 0 .5.2 1 .8 1.1zm-3.9.3c0-.2.1-.3.3-.3h.8v.5c-.2.2-.5.2-.7.2-.2 0-.4-.1-.4-.3v-.1zm-1-1.4c.6 0 1.2-.1 1.6-.1.4 0 .5.1.5.4v.1h-1.2c-.7 0-1.2.4-1.2.9v.4c0 .7.5 1 1.2 1 .6 0 1-.3 1.3-.6l.1.5h1.1v-2.3c0-1.1-.5-1.4-1.5-1.4-.5 0-1.4.1-2 .2l.1.9zm-.9-1h-2.2c-.6 0-1 .3-1 .9-.1.7-.1 1.2-.2 1.4-.1.3-.3.3-.6.3l.1 1c.8.1 1.5-.1 1.7-1 .1-.4.2-1 .2-1.5 0-.2.1-.3.3-.3h.3v2.8h1.3v-3.6zm-4.4 3.7V103h-1.2l-1.2 1.7c-.1.2-.2.3-.3.5 0-.2.1-.4.1-.6v-1.7h-1.2v3.6h1.2l1.1-1.7.3-.6c0 .2-.1.4-.1.6v1.6h1.3zm-6-2.7c1-.1 1-.6 1.5-2.4h-1.4c-.5 1.5-.5 2-1 2H57c0-.2.1-.4.1-.6v-1.3h-1.3v1.3c0 .2 0 .4.1.6h-.3c-.5 0-.6-.5-1-2h-1.4c.5 1.8.6 2.3 1.5 2.4-1 .1-1.1.5-1.7 2.6h1.4c.6-1.8.6-2.2 1.1-2.2h.3c0 .2-.1.3-.1.5v1.7H57v-1.7c0-.1 0-.3-.1-.5h.2c.5 0 .6.3 1.1 2.2h1.4c-.4-2-.4-2.4-1.5-2.6zm94.6 46.5h1.6c.4 0 .6 0 .6.2 0 .3-.3.7-.9 1.3l-1.1 1.2c-.1.2-.2.3-.2.5v.7h3.8v-1.2H155c-.2 0-.5 0-.7.1l1.2-1.2c.7-.7.8-1 .8-1.6 0-1-.7-1.2-1.8-1.2-.5 0-1.1 0-1.8.2v1zm-1.4 2.7c-.4 0-.5.1-.5.5v.3c0 .4.1.5.5.5h.3c.4 0 .5-.1.5-.5v-.3c0-.4-.1-.5-.5-.5h-.3zm-1-.8h-.6v-2.1h-1l-.2.8v1.3h-1c-.1 0-.2-.1-.1-.2l1.1-2.9h-1.3l-1.3 3.2c-.2.4.1.8.5.8h2v1.1h1.3v-1.1l.6-.1v-.8zm-5.1 2v-5h-1.4l-1.3.5.2.9 1.2-.3c0 .2-.1.4-.1.6v3.3h1.4zm17.3-10c0-.2.1-.3.3-.3h.8v.5c-.2.2-.5.2-.7.2-.2 0-.4-.1-.4-.3v-.1zm-1-1.5c.6 0 1.2-.1 1.6-.1.4 0 .5.1.5.4v.1h-1.2c-.7 0-1.2.4-1.2.9v.4c0 .7.5 1 1.2 1 .6 0 1-.3 1.3-.6l.1.5h1.1v-2.3c0-1.1-.5-1.4-1.5-1.4-.5 0-1.4.1-2 .2l.1.9zm-.6.1v-1h-3.6v1h1.2v2.6h1.3v-2.6h1.1zm-6.5 1.4c0-.2.1-.3.3-.3h.8v.5c-.2.2-.5.2-.7.2-.2 0-.4-.1-.4-.3v-.1zm-1-1.5c.6 0 1.2-.1 1.6-.1.4 0 .5.1.5.4v.1h-1.2c-.7 0-1.2.4-1.2.9v.4c0 .7.5 1 1.2 1 .6 0 1-.3 1.3-.6l.1.5h1.1v-2.3c0-1.1-.5-1.4-1.5-1.4-.5 0-1.4.1-2 .2l.1.9zm-.9-.9h-1.3v1.3h-1.1v-1.3h-1.3v3.6h1.3V144h1.1v1.5h1.3v-3.6zm-6.1 0c-.3 0-.5.1-.5.4l-.3 1.4c0 .2 0 .4-.1.5h-.1c0-.2 0-.4-.1-.5l-.3-1.4c0-.3-.2-.4-.5-.4h-1.1c-.3 0-.5.2-.5.5l-.1 3.2h1.2l.1-2.7h.1l.4 1.8c.1.3.2.4.5.4h.6c.3 0 .4-.1.5-.4l.4-1.8h.1l.1 2.7h1.2l-.1-3.2c0-.3-.2-.5-.5-.5h-1zm-6.1.8c.4 0 .6.2.6 1s-.1 1-.6 1-.6-.2-.6-1 .2-1 .6-1m0-.9c-1.4 0-2 .5-2 1.9s.5 1.9 2 1.9c1.4 0 2-.5 2-1.9s-.6-1.9-2-1.9m-3.6 1.8c.8-.1.8-.2 1.3-1.7h-1.3c-.3 1.2-.3 1.3-.9 1.3h-.2c0-.2.1-.3.1-.5v-.9h-1.3v3.6h1.3V144h.3c.4 0 .4.1.8 1.4h1.4c-.6-1.6-.7-1.6-1.5-1.8zm23.4-8.9h-.5c-.3 0-.4-.1-.4-.5 0-.3.1-.3.4-.3h.5v.8zm-1.4.5c-.2 0-.6.1-.7.4l-.3 1.1h1.4l.2-1c0-.2.1-.2.3-.2h.5v1.2h1.3V133c-.5-.1-.8-.1-1.8-.1-1.3 0-1.7.3-1.7 1.2 0 .5.2.9.8 1.1zm-3.9.3c0-.2.1-.3.3-.3h.8v.5c-.2.2-.5.2-.7.2-.2 0-.4-.1-.4-.3v-.1zm-1-1.4c.6 0 1.2-.1 1.6-.1.4 0 .5.1.5.4v.1h-1.2c-.7 0-1.2.4-1.2.9v.4c0 .7.5 1 1.2 1 .6 0 1-.3 1.3-.6l.1.5h1.1v-2.3c0-1.1-.5-1.4-1.5-1.4-.5 0-1.4.1-2 .2l.1.9zm-.9-1h-2.2c-.6 0-1 .3-1 .9-.1.7-.1 1.2-.2 1.4-.1.3-.3.3-.6.3l.1 1c.8.1 1.5-.1 1.7-1 .1-.4.2-1 .2-1.5 0-.2.1-.3.3-.3h.3v2.8h1.3v-3.6zm-4.4 3.7v-3.6h-1.2l-1.2 1.7c-.1.2-.2.3-.3.5 0-.2.1-.4.1-.6v-1.7h-1.2v3.6h1.2l1.1-1.7.3-.6c0 .2-.1.4-.1.6v1.6h1.3zm-5.9-2.7c1-.1 1-.6 1.5-2.4h-1.4c-.5 1.5-.5 2-1 2h-.2c0-.2.1-.4.1-.6v-1.3h-1.3v1.3c0 .2 0 .4.1.6h-.4c-.5 0-.6-.5-1-2h-1.4c.5 1.8.6 2.3 1.5 2.4-1 .1-1.1.5-1.7 2.6h1.4c.6-1.8.6-2.2 1.1-2.2h.3c0 .2-.1.3-.1.5v1.7h1.3V135c0-.1 0-.3-.1-.5h.2c.5 0 .6.3 1.1 2.2h1.4c-.3-2-.4-2.4-1.4-2.6zM69 321.2c.6 0 .7.1.7.7 0 .5-.1.6-.7.6s-.7-.1-.7-.6c-.1-.6.1-.7.7-.7m-.1-2.1c.5 0 .6.1.6.6 0 .4-.1.6-.6.6s-.6-.1-.6-.6c0-.4.1-.6.6-.6m-1 1.7c-.7.1-.9.7-.9 1.3 0 1 .4 1.4 2 1.4s2-.4 2-1.4c0-.7-.2-1.3-.9-1.3.5-.1.8-.6.8-1.2 0-.9-.3-1.4-1.9-1.4-1.5 0-1.8.4-1.8 1.4-.1.5.1 1.1.7 1.2zm-2.4 1.3c-.4 0-.5.1-.5.5v.3c0 .4.1.5.5.5h.3c.4 0 .5-.1.5-.5v-.3c0-.4-.1-.5-.5-.5h-.3zm-4.7-2.7h1.6c.4 0 .6 0 .6.2 0 .3-.3.7-.9 1.3l-1.1 1.2c-.1.2-.2.3-.2.5v.7h3.8v-1.2h-1.5c-.2 0-.5 0-.7.1l1.2-1.2c.7-.7.8-1 .8-1.6 0-1-.7-1.2-1.8-1.2-.5 0-1.1 0-1.8.2v1zm-.9 4v-5h-1.4l-1.3.5.2.9 1.2-.3c0 .2-.1.4-.1.6v3.3h1.4zm17.2-10.1c0-.2.1-.3.3-.3h.8v.5c-.2.2-.5.2-.7.2-.2 0-.4-.1-.4-.3v-.1zm-1-1.4c.6 0 1.2-.1 1.6-.1.4 0 .5.1.5.4v.1H77c-.7 0-1.2.4-1.2.9v.4c0 .7.5 1 1.2 1 .6 0 1-.3 1.3-.6l.1.5h1.1v-2.3c0-1.1-.5-1.4-1.5-1.4-.5 0-1.4.1-2 .2l.1.9zm-.6.1v-1h-3.6v1h1.2v2.6h1.3V312h1.1zm-6.5 1.3c0-.2.1-.3.3-.3h.8v.5c-.2.2-.5.2-.7.2-.2 0-.4-.1-.4-.3v-.1zm-.9-1.4c.6 0 1.2-.1 1.6-.1.4 0 .5.1.5.4v.1H69c-.7 0-1.2.4-1.2.9v.4c0 .7.5 1 1.2 1 .6 0 1-.3 1.3-.6l.1.5h1.1v-2.3c0-1.1-.5-1.4-1.5-1.4-.5 0-1.4.1-2 .2l.1.9zm-1-1h-1.3v1.3h-1.1v-1.3h-1.3v3.6h1.3V313h1.1v1.5h1.3v-3.6zm-6.1 0c-.3 0-.5.1-.5.4l-.3 1.4c0 .2 0 .4-.1.5H60c0-.2 0-.4-.1-.5l-.3-1.4c0-.3-.2-.4-.5-.4H58c-.3 0-.5.2-.5.5l-.1 3.2h1.2l.1-2.7h.1l.4 1.8c.1.3.2.4.5.4h.6c.3 0 .4-.1.5-.4l.4-1.8h.1l.1 2.7h1.2l-.1-3.2c0-.3-.2-.5-.5-.5h-1zm-6.1.9c.4 0 .6.2.6 1s-.1 1-.6 1-.6-.2-.6-1c.1-.8.2-1 .6-1m0-1c-1.4 0-2 .5-2 1.9s.5 1.9 2 1.9c1.4 0 2-.5 2-1.9 0-1.3-.5-1.9-2-1.9m-3.6 1.9c.8-.1.8-.2 1.3-1.7h-1.3c-.3 1.2-.3 1.3-.9 1.3h-.2c0-.2.1-.3.1-.5v-.9H49v3.6h1.3v-1.4h.3c.4 0 .4.1.8 1.4h1.4c-.6-1.6-.6-1.7-1.5-1.8zm23.5-8.9h-.5c-.3 0-.4-.1-.4-.5 0-.3.1-.3.4-.3h.5v.8zm-1.5.5c-.2 0-.6.1-.7.4l-.3 1.1h1.4l.2-1c0-.2.1-.2.3-.2h.5v1.2H76v-3.7c-.5-.1-.8-.1-1.8-.1-1.3 0-1.7.3-1.7 1.2 0 .5.2.9.8 1.1zm-3.8.2c0-.2.1-.3.3-.3h.8v.5c-.2.2-.5.2-.7.2-.2 0-.4-.1-.4-.3v-.1zm-1-1.4c.6 0 1.2-.1 1.6-.1.4 0 .5.1.5.4v.1h-1.2c-.7 0-1.2.4-1.2.9v.4c0 .7.5 1 1.2 1 .6 0 1-.3 1.3-.6l.1.5h1.1v-2.3c0-1.1-.5-1.4-1.5-1.4-.5 0-1.4.1-2 .2l.1.9zm-1-.9h-2.2c-.6 0-1 .3-1 .9-.1.7-.1 1.2-.2 1.4-.1.3-.3.3-.6.3l.1 1c.8.1 1.5-.1 1.7-1 .1-.4.2-1 .2-1.5 0-.2.1-.3.3-.3h.3v2.8h1.3v-3.6zm-4.4 3.6v-3.6h-1.2l-1.2 1.7c-.1.2-.2.3-.3.5 0-.2.1-.4.1-.6v-1.7h-1.2v3.6h1.2l1.1-1.7.3-.6c0 .2-.1.4-.1.6v1.6h1.3zm-5.9-2.7c1-.1 1-.6 1.5-2.4h-1.4c-.5 1.5-.5 2-1 2h-.2c0-.2.1-.4.1-.6v-1.3h-1.3v1.3c0 .2 0 .4.1.6h-.3c-.5 0-.6-.5-1-2h-1.4c.5 1.8.6 2.3 1.5 2.4-1 .1-1.1.5-1.7 2.6h1.4c.6-1.8.6-2.2 1.1-2.2h.3c0 .2-.1.3-.1.5v1.7h1.3V304c0-.1 0-.3-.1-.5h.2c.5 0 .6.3 1.1 2.2h1.4c-.4-2-.5-2.4-1.5-2.6zm10.7-44.5c0-.6.1-.8.6-.8.6 0 .6.2.6 1.3-.2.1-.4.2-.6.2-.4-.1-.6-.2-.6-.7m-1 3.2c.6.1 1.1.1 1.4.1 1.6 0 2.2-.4 2.2-2.7 0-2-.3-2.6-1.9-2.6-1.5 0-1.9.6-1.9 1.9 0 .9.3 1.6 1.4 1.6.5 0 .8-.1 1-.3 0 .9-.2 1.1-.9 1.1h-1.3v.9zm-1.6-1.2c-.4 0-.5.1-.5.5v.3c0 .4.1.5.5.5h.3c.4 0 .5-.1.5-.5v-.3c0-.4-.1-.5-.5-.5h-.3zm-1.2-2.8.1-1H61l-.1 2.3c0 .2.2.4.4.5l.8.1c.7.1.9.2.9.6 0 .4-.2.6-.8.6-.4 0-.8 0-1.3-.1l-.1 1c.6.1 1.3.1 1.8.1 1.4 0 1.8-.7 1.8-1.6 0-.8-.3-1.5-1.5-1.7l-.8-.1.1-.7h1.9zm21-6c0-.2.1-.3.3-.3h.8v.5c-.2.2-.5.2-.7.2-.2 0-.4-.1-.4-.3v-.1zm-1-1.4c.6 0 1.2-.1 1.6-.1.4 0 .5.1.5.4v.1H85c-.7 0-1.2.4-1.2.9v.4c0 .7.5 1 1.2 1 .6 0 1-.3 1.3-.6l.1.5h1.1v-2.3c0-1.1-.5-1.4-1.5-1.4-.5 0-1.4.1-2 .2l.1.9zm-.9-.9h-1.3v2.7H81v-2.7h-1.2v2.7H79v-2.7h-1.3v3.6h5.5v-3.6zm-6.2 3.6v-3.6h-1.2l-1.2 1.7c-.1.2-.2.3-.3.5 0-.2.1-.4.1-.6v-1.7h-1.2v3.6h1.2l1.1-1.7.3-.6c0 .2-.1.4-.1.6v1.6H77zm-4.6-3.6h-1.3v1.3H70v-1.3h-1.3v3.6H70v-1.5h1.1v1.5h1.3v-3.6zm-4.5 1.3h-2.1v.8h2.1v-.8zm-4.2.3h-.5c-.3 0-.4-.1-.4-.5 0-.3.1-.3.4-.3h.5v.8zm-1.4.4c-.2 0-.6.1-.7.4l-.3 1.1h1.4l.2-1c0-.2.1-.2.3-.2h.5v1.2H65v-3.7c-.5-.1-.8-.1-1.8-.1-1.3 0-1.7.3-1.7 1.2 0 .6.2 1 .8 1.1zm-1.5-2h-1.3v1.3h-1.1v-1.3h-1.3v3.6h1.3v-1.5h1.1v1.5h1.3v-3.6zm-5.5 3.6h1.3l-1.1-1.9 1-1.8h-1.3l-.7 1.4-.7-1.4h-1.3l1 1.8-1.1 1.9h1.3l.8-1.5.8 1.5zm-2.9-3.6H51l-.5 2.2c0 .2-.1.4-.2.6h-.1c0-.2-.1-.4-.1-.6l-.5-2.2h-1.4l1.1 3.3c.1.2.2.3.4.3h.2c-.1.2-.2.4-.4.4-.2.1-.6.2-1 .2l-.1.9c.5.1 1.1.1 1.5-.1.6-.2 1-.6 1.2-1.4l1.3-3.6zm-6 .9c1-.1 1-.6 1.6-2.4h-1.4c-.4 1.5-.5 2-1.2 2h-.2c0-.2.1-.4.1-.6V248h-1.4v5h1.4v-1.7c0-.1 0-.3-.1-.5h.3c.7 0 .8.3 1.3 2.2h1.4c-.7-2-.8-2.4-1.8-2.6zm105.4-47.2h1.4c.5 0 .7.1.7.5 0 .3 0 .5-.6.5h-1v.9h1c.5 0 .7.2.7.6 0 .5-.2.6-.8.6h-1.4v1c.6.1 1.2.1 1.8.1 1.3 0 1.8-.4 1.8-1.5 0-.8-.2-1.2-.9-1.3.7-.1.8-.6.8-1.3 0-.9-.5-1.2-1.7-1.2-.6 0-1.1 0-1.7.1l-.1 1zm-1.5 2.8c-.4 0-.5.1-.5.5v.3c0 .4.1.5.5.5h.3c.4 0 .5-.1.5-.5v-.3c0-.4-.1-.5-.5-.5h-.3zm-4.3-3.8.1 1.1h2.2c-.1.2-.2.4-.2.5l-1.2 3.4h1.3l1.5-4.4c.1-.4-.1-.7-.5-.7H146zm21.7-5.7h-.5c-.3 0-.4-.1-.4-.5 0-.3.1-.3.4-.3h.5v.8zm-1.4.5c-.2 0-.6.1-.7.4l-.3 1.1h1.4l.2-1c0-.2.1-.2.3-.2h.5v1.2h1.3v-3.7c-.5-.1-.8-.1-1.8-.1-1.3 0-1.7.3-1.7 1.2 0 .5.2.9.8 1.1zm-3.9.3c0-.2.1-.3.3-.3h.8v.5c-.2.2-.5.2-.7.2-.2 0-.4-.1-.4-.3v-.1zm-1-1.5c.6 0 1.2-.1 1.6-.1.4 0 .5.1.5.4v.1h-1.2c-.7 0-1.2.4-1.2.9v.4c0 .7.5 1 1.2 1 .6 0 1-.3 1.3-.6l.1.5h1.1v-2.3c0-1.1-.5-1.4-1.5-1.4-.5 0-1.4.1-2 .2l.1.9zm-2 .8c.8-.1.8-.2 1.3-1.7h-1.3c-.4 1.2-.4 1.3-.8 1.3h-.2v-1.4h-1.2v1.4h-.2c-.4 0-.4-.1-.8-1.3H155c.5 1.5.4 1.6 1.3 1.7-.9.1-.9.2-1.4 1.9h1.3c.5-1.4.5-1.5.8-1.5h.3v1.5h1.2V197h.3c.3 0 .4.1.8 1.5h1.3c-.6-1.7-.6-1.7-1.5-1.9zm-6.8-.9c.4 0 .6.2.6 1s-.1 1-.6 1-.6-.2-.6-1 .1-1 .6-1m0-.9c-1.4 0-2 .5-2 1.9s.5 1.9 2 1.9c1.4 0 2-.5 2-1.9s-.6-1.9-2-1.9m-3.4 3.7h1.3l-1.1-1.9 1-1.8h-1.3l-.7 1.4-.7-1.4h-1.3l1 1.8-1.1 1.9h1.3l.8-1.5.8 1.5zm-3.4 0v-3.6h-1.2l-1.2 1.7c-.1.2-.2.3-.3.5 0-.2.1-.4.1-.6v-1.7H142v3.6h1.2l1.1-1.7.3-.6c0 .2-.1.4-.1.6v1.6h1.3zm-6.9-2.5c.2-.1.4-.2.7-.2.3 0 .5.1.5 1 0 .8-.1 1-.5 1-.3 0-.4-.1-.6-.1V196zm-.3-1.1h-1.1v5h1.3v-1.6c.3.2.7.3 1.2.3.9 0 1.4-.4 1.4-1.9 0-1.2-.4-1.9-1.3-1.9-.6 0-1.1.3-1.4.6l-.1-.5zm-1.9-1.4h-4.2v5h1.4v-4.1h1.5v4.1h1.4v-5zm-69.8 21.1c-.6 0-.6-.2-.7-1.3.2-.1.4-.2.6-.2.5 0 .6.1.6.7s0 .8-.5.8m1.5-4.1c-.5-.1-1-.1-1.3-.1-1.5 0-2.2.4-2.2 2.7 0 2 .5 2.6 2 2.6s1.9-.6 1.9-1.9c0-1.1-.3-1.6-1.5-1.6-.4 0-.8.1-1 .3 0-.9.2-1.1.9-1.1h1.2v-.9zm-4.9 3.8c-.4 0-.5.1-.5.5v.3c0 .4.1.5.5.5h.3c.4 0 .5-.1.5-.5v-.3c0-.4-.1-.5-.5-.5h-.3zm-1.4 1.2v-5h-1.4l-1.3.5.2.9 1.2-.3c0 .2-.1.4-.1.6v3.3h1.4zm33.4-22h1.4c.5 0 .7.1.7.5 0 .3 0 .5-.6.5h-1v.9h1c.5 0 .7.2.7.6 0 .5-.2.6-.8.6h-1.4v1c.6.1 1.2.1 1.8.1 1.3 0 1.8-.4 1.8-1.5 0-.8-.2-1.2-.9-1.3.7-.1.8-.6.8-1.3 0-.9-.5-1.2-1.7-1.2-.6 0-1.1 0-1.7.1l-.1 1zm-1.5 2.8c-.4 0-.5.1-.5.5v.3c0 .4.1.5.5.5h.3c.4 0 .5-.1.5-.5v-.3c0-.4-.1-.5-.5-.5H94zm-4.5-2.8h1.4c.5 0 .7.1.7.5 0 .3 0 .5-.6.5h-1v.9h1c.5 0 .7.2.7.6 0 .5-.2.6-.8.6h-1.4v1c.6.1 1.2.1 1.8.1 1.3 0 1.8-.4 1.8-1.5 0-.8-.2-1.2-.9-1.3.7-.1.8-.6.8-1.3 0-.9-.5-1.2-1.7-1.2-.6 0-1.1 0-1.7.1l-.1 1zm-24.2-14 .1 1.1h2.2c-.1.2-.2.4-.2.5l-1.2 3.4h1.3l1.5-4.4c.1-.4-.1-.7-.5-.7h-3.2zm-1 3.9c-.4 0-.5.1-.5.5v.3c0 .4.1.5.5.5h.3c.4 0 .5-.1.5-.5v-.3c0-.4-.1-.5-.5-.5h-.3zm-4.6-2.9h1.4c.5 0 .7.1.7.5 0 .3 0 .5-.6.5h-1v.9h1c.5 0 .7.2.7.6 0 .5-.2.6-.8.6h-1.4v1c.6.1 1.2.1 1.8.1 1.3 0 1.8-.4 1.8-1.5 0-.8-.2-1.2-.9-1.3.7-.1.8-.6.8-1.3 0-.9-.5-1.2-1.7-1.2-.6 0-1.1 0-1.7.1l-.1 1zm99-64.4h3.7c1.3 0 1.7.2 1.7 1.2 0 .9-.1 1.4-1.6 1.4H160v2.3h2.5c1.4 0 1.7.4 1.7 1.5 0 1.3-.5 1.6-2.2 1.6-1.1 0-2 0-3.7-.1l-.1 2.6c1.5.2 3.2.4 4.7.4 3.5 0 4.8-1.1 4.7-3.9 0-2-.6-3-2.4-3.3v-.1c1.7-.3 2.1-1.4 2.1-3.3 0-2.4-1.2-3.1-4.5-3.1-1.5 0-2.9.1-4.4.4l.3 2.4zm-3.9 7.4c-.9 0-1.2.3-1.2 1.2v.8c0 .9.3 1.2 1.2 1.2h.8c.9 0 1.2-.3 1.2-1.2v-.8c0-.9-.3-1.2-1.2-1.2h-.8zm-7.5.9c-1.5 0-1.7-.5-1.7-3.4.6-.4 1.1-.5 1.7-.5 1.3 0 1.5.3 1.5 1.7 0 1.6 0 2.2-1.5 2.2m4-10.7c-1.4-.4-2.7-.4-3.4-.4-3.8 0-5.8.9-5.8 7 0 5.4 1.2 6.7 5.1 6.7 4 0 4.9-1.5 4.9-4.8 0-2.9-.9-4.1-3.9-4.1-1.2 0-2 .2-2.7.8.1-2.5.6-2.9 2.3-2.9h3.3l.2-2.3zm-15.9 7.3c1.5 0 1.8.3 1.8 1.7 0 1.3-.3 1.6-1.8 1.6s-1.8-.3-1.8-1.6c-.1-1.3.2-1.7 1.8-1.7m0-5.3c1.3 0 1.6.3 1.6 1.6 0 1.2-.2 1.5-1.6 1.5-1.4 0-1.7-.3-1.7-1.5 0-1.3.3-1.6 1.7-1.6m-2.9 4.2c-1.9.2-2.4 1.8-2.4 3.5 0 2.6 1.1 3.6 5.2 3.6 4.2 0 5.2-1 5.2-3.6 0-1.8-.4-3.3-2.3-3.5v-.1c1.4-.2 2-1.6 2-3 0-2.5-.8-3.5-4.9-3.5-4 0-4.8 1.1-4.8 3.5 0 1.5.6 2.9 2 3.1z" class="st31"/><circle cx="149" cy="98.7" r="11.7" style="clip-path:url(#SVGID_34_);fill:none;stroke:#39373a;stroke-width:.804"/><path d="M157.4 101.5c-.9.1-1.8.1-3.2.1-1.2 0-1.5-.6-1.5-2.9s.3-2.9 1.5-2.9h3l.2-2c-1-.3-1.7-.4-3.2-.4-3.2 0-4.4 1.4-4.4 5.2s1.2 5.2 4.4 5.2c1.5 0 2.4-.1 3.4-.4l-.2-1.9zm-8.4-1.7h-1.2v-4.1h-2l-.4 1.6v2.6h-2c-.2 0-.4-.1-.3-.4l2.2-5.7h-2.5l-2.5 6.3c-.3.8.2 1.5 1.1 1.5h4v2.1h2.5v-2.1l1.2-.3v-1.5zm9.1-57.2c.8.4 1.1 1.4 1.1 3 0 1.5-.3 2.6-1.1 3l.2.6c1.6-.4 2.3-1.6 2.3-3.6s-.7-3.1-2.3-3.6l-.2.6zm0 3.3h-.6v-2.1h-1.1l-.2.8v1.3h-1c-.1 0-.2-.1-.1-.2l1.1-2.9h-1.3l-1.3 3.3c-.2.4.1.8.5.8h2.1V48h1.3v-1.1l.6-.1v-.9zm-5.8.7c-.4 0-.5.1-.5.5v.3c0 .4.1.5.5.5h.3c.4 0 .5-.1.5-.5v-.3c0-.4-.1-.5-.5-.5h-.3zm-.9-.7h-.6v-2.1h-1.1l-.2.8v1.3h-1c-.1 0-.2-.1-.1-.2l1.1-2.9h-1.3l-1.3 3.3c-.2.4.1.8.5.8h2.1V48h1.3v-1.1l.6-.1v-.9zm-4.6-3.9c-1.6.4-2.3 1.6-2.3 3.6s.7 3.1 2.3 3.6l.2-.6c-.8-.4-1.1-1.5-1.1-3 0-1.6.3-2.6 1.1-3l-.2-.6zm-6.5 3.7c.6 0 .7.1.7.7 0 .5-.1.6-.7.6s-.7-.1-.7-.6c0-.6.1-.7.7-.7m0-2.1c.5 0 .6.1.6.6s-.1.6-.6.6-.7-.1-.7-.6.2-.6.7-.6m-1.1 1.6c-.7.1-.9.7-.9 1.4 0 1 .4 1.4 2 1.4s2-.4 2-1.4c0-.7-.2-1.3-.9-1.4.6-.1.8-.6.8-1.2 0-1-.3-1.4-1.9-1.4-1.6 0-1.9.4-1.9 1.4 0 .6.2 1.2.8 1.2zm-2.4 1.4c-.4 0-.5.1-.5.5v.3c0 .4.1.5.5.5h.3c.4 0 .5-.1.5-.5v-.3c0-.4-.1-.5-.5-.5h-.3zm-3.1-.9c.6 0 .7.1.7.7 0 .5-.1.6-.7.6s-.7-.1-.7-.6c0-.6.1-.7.7-.7m0-2.1c.5 0 .6.1.6.6s-.1.6-.6.6-.7-.1-.7-.6.2-.6.7-.6m-1.1 1.6c-.7.1-.9.7-.9 1.4 0 1 .4 1.4 2 1.4s2-.4 2-1.4c0-.7-.2-1.3-.9-1.4.6-.1.8-.6.8-1.2 0-1-.3-1.4-1.9-1.4-1.6 0-1.9.4-1.9 1.4 0 .6.2 1.2.8 1.2zm29.8 332.9c.8.4 1.1 1.4 1.1 3 0 1.5-.3 2.6-1.1 3l.2.6c1.6-.5 2.3-1.6 2.3-3.6s-.7-3.1-2.3-3.6l-.2.6zm-2.2 1.2c.6 0 .7.2.7 1.6s-.2 1.6-.7 1.6c-.6 0-.7-.2-.7-1.6s.1-1.6.7-1.6m0-1.1c-1.6 0-2.1.7-2.1 2.7s.5 2.7 2.1 2.7 2.1-.7 2.1-2.7-.6-2.7-2.1-2.7m-3.6 4c-.4 0-.5.1-.5.5v.3c0 .4.1.5.5.5h.3c.4 0 .5-.1.5-.5v-.3c0-.4-.1-.5-.5-.5h-.3zm-4.8-2.8h1.6c.4 0 .6 0 .6.2 0 .3-.3.8-.9 1.3l-1.2 1.2c-.1.2-.2.3-.2.6v.7h3.8v-1.2H154c-.2 0-.5 0-.7.1l1.3-1.3c.7-.7.8-1 .8-1.6 0-1-.7-1.3-1.8-1.3-.6 0-1.1 0-1.9.2l.1 1.1zm-.6-1.9c-1.6.4-2.3 1.6-2.3 3.6s.7 3.1 2.3 3.6l.2-.6c-.8-.4-1.1-1.5-1.1-3 0-1.6.3-2.6 1.1-3l-.2-.6zm-7 2.6c0-.6.1-.9.6-.9.6 0 .6.2.7 1.3-.2.1-.4.2-.7.2-.5 0-.6-.1-.6-.6m-1.1 3.3c.6.1 1.2.1 1.4.1 1.6 0 2.3-.4 2.3-2.7 0-2.1-.3-2.6-2-2.6-1.5 0-1.9.6-1.9 1.9 0 .9.3 1.6 1.5 1.6.5 0 .8-.1 1.1-.3 0 .9-.2 1.1-.9 1.1h-1.4l-.1.9zm-1.6-1.2c-.4 0-.5.1-.5.5v.3c0 .4.1.5.5.5h.3c.4 0 .5-.1.5-.5v-.3c0-.4-.1-.5-.5-.5h-.3zm-4.7-2.9h1.4c.5 0 .7.1.7.5s0 .6-.6.6h-1v.9h1c.6 0 .7.2.7.6 0 .5-.2.6-.9.6h-1.4v1c.6.1 1.2.1 1.9.1 1.4 0 1.9-.4 1.9-1.5 0-.8-.2-1.2-1-1.3.7-.1.8-.6.8-1.3 0-.9-.5-1.2-1.7-1.2-.6 0-1.1 0-1.7.1l-.1.9z" class="st31"/></g></switch></svg>