<svg xmlns="http://www.w3.org/2000/svg" xmlns:xlink="http://www.w3.org/1999/xlink" xml:space="preserve" id="Слой_1" x="0" y="0" style="enable-background:new 0 0 248 451" version="1.1" viewBox="0 0 248 451"><style>.st0{fill:#fff5a4}.st2,.st3{fill:#39373a}.st3,.st4{clip-path:url(#SVGID_4_)}.st4,.st5{fill:none;stroke:#39373a;stroke-width:.335}.st6,.st7{clip-path:url(#SVGID_6_)}.st6{fill:#39373a}.st7{stroke-width:.335}.st12,.st13,.st7,.st8,.st9{fill:none;stroke:#39373a}.st8{clip-path:url(#SVGID_6_);stroke-width:.284}.st9{stroke-width:.803}.st12{stroke-width:.774}.st13{stroke-width:.253}.st26{clip-path:url(#SVGID_32_);fill:#39373a}.st28{clip-path:url(#SVGID_34_);fill:none;stroke:#39373a;stroke-width:.602}</style><switch><g><path d="M23.9 78.9h202.6v180.7H23.9z" class="st0"/><path d="M23.9 110.1h202.6v150.6H23.9z" class="st0"/><path d="M123 132.8h103.5v286.1H123z" class="st0"/><defs><path id="SVGID_1_" d="M17.5 20.6h215.4v411.3H17.5z"/></defs><clipPath id="SVGID_2_"><use xlink:href="#SVGID_1_" style="overflow:visible"/></clipPath><path d="M31.3 21.4h91v4.3h-91z" style="clip-path:url(#SVGID_2_);fill:none;stroke:#39373a;stroke-width:.803"/><path d="M119.3 20.6h6.1v26.9h-6.1zm-95.3 0h11.5v58.5H24z" class="st2"/><defs><path id="SVGID_3_" d="M17.5 20.6h215.4v411.3H17.5z"/></defs><clipPath id="SVGID_4_"><use xlink:href="#SVGID_3_" style="overflow:visible"/></clipPath><path d="M188.6 195.7c0 3.1 2.6 5.7 5.7 5.7h8.3c.5 0 1-.4 1-1V191c0-.5-.4-1-1-1h-8.3c-3.1.1-5.7 2.6-5.7 5.7M204 191v9.4c0 .8-.6 1.4-1.4 1.4h-8.3c-3.4 0-6.1-2.7-6.1-6.1 0-3.3 2.7-6.1 6.1-6.1h8.3c.8.1 1.4.7 1.4 1.4" class="st3"/><path d="M188.6 195.7c0 3.1 2.6 5.7 5.7 5.7h8.3c.5 0 1-.4 1-1V191c0-.5-.4-1-1-1h-8.3c-3.1.1-5.7 2.6-5.7 5.7zM204 191v9.4c0 .8-.6 1.4-1.4 1.4h-8.3c-3.4 0-6.1-2.7-6.1-6.1 0-3.3 2.7-6.1 6.1-6.1h8.3c.8.1 1.4.7 1.4 1.4z" class="st4"/><path d="M200.8 199.8v-8.1c0-.1 0-.1-.1-.1h-6.2c-2.3 0-4.2 1.9-4.2 4.2 0 2.3 1.9 4.2 4.2 4.2l6.3-.2c0 .1 0 0 0 0z" class="st4"/><path d="M200.6 199.7v-7.9h-6.1c-2.2 0-4 1.8-4 4s1.8 4 4 4h6.1zm.4-8v8.1c0 .2-.1.3-.3.3h-6.2c-2.4 0-4.4-2-4.4-4.3 0-2.4 2-4.4 4.4-4.4h6.2c.2 0 .3.1.3.3" class="st3"/><path d="M200.6 199.7v-7.9h-6.1c-2.2 0-4 1.8-4 4s1.8 4 4 4h6.1zm.4-8v8.1c0 .2-.1.3-.3.3h-6.2c-2.4 0-4.4-2-4.4-4.3 0-2.4 2-4.4 4.4-4.4h6.2c.2 0 .3.1.3.3z" class="st4"/><path d="M194.5 195.7c0 .6.5 1.1 1.1 1.1.6 0 1.1-.5 1.1-1.1 0-.6-.5-1.1-1.1-1.1-.6.1-1.1.5-1.1 1.1m2.5 0c0 .8-.7 1.4-1.5 1.4s-1.4-.6-1.4-1.4c0-.8.7-1.4 1.4-1.4.9 0 1.5.6 1.5 1.4" class="st3"/><path d="M194.5 195.7c0 .6.5 1.1 1.1 1.1.6 0 1.1-.5 1.1-1.1 0-.6-.5-1.1-1.1-1.1-.6.1-1.1.5-1.1 1.1zm2.5 0c0 .8-.7 1.4-1.5 1.4s-1.4-.6-1.4-1.4c0-.8.7-1.4 1.4-1.4.9 0 1.5.6 1.5 1.4z" class="st4"/><path d="m200 198.9-.2.3-2.6-1.9.3-.3z" class="st2"/><path d="m200 198.9-.2.3-2.6-1.9.3-.3z" class="st5"/><path d="m200 192.6-2.5 1.9-.3-.3 2.6-1.9z" class="st2"/><path d="m200 192.6-2.5 1.9-.3-.3 2.6-1.9z" class="st5"/><defs><path id="SVGID_5_" d="M17.5 20.6h215.4v411.3H17.5z"/></defs><clipPath id="SVGID_6_"><use xlink:href="#SVGID_5_" style="overflow:visible"/></clipPath><path d="M204.1 199.6c0 .9.7 1.6 1.6 1.6h2.1c.9 0 1.6-.7 1.6-1.6v-7.8c0-.9-.7-1.6-1.6-1.6h-2.1c-.9 0-1.6.7-1.6 1.6v7.8zm5.6-7.8v7.8c0 1.1-.9 2-2 2h-2.1c-1.1 0-2-.9-2-2v-7.8c0-1.1.9-2 2-2h2.1c1.2.1 2 .9 2 2" class="st6"/><path d="M204.1 199.6c0 .9.7 1.6 1.6 1.6h2.1c.9 0 1.6-.7 1.6-1.6v-7.8c0-.9-.7-1.6-1.6-1.6h-2.1c-.9 0-1.6.7-1.6 1.6v7.8zm5.6-7.8v7.8c0 1.1-.9 2-2 2h-2.1c-1.1 0-2-.9-2-2v-7.8c0-1.1.9-2 2-2h2.1c1.2.1 2 .9 2 2z" class="st7"/><path d="M206.1 195.7c0 .3.3.6.6.6s.6-.3.6-.6-.3-.6-.6-.6-.6.3-.6.6m1.6 0c0 .5-.4 1-1 1-.5 0-1-.4-1-1 0-.5.4-1 1-1 .5.1 1 .5 1 1" class="st6"/><path d="M206.1 195.7c0 .3.3.6.6.6s.6-.3.6-.6-.3-.6-.6-.6-.6.3-.6.6zm1.6 0c0 .5-.4 1-1 1-.5 0-1-.4-1-1 0-.5.4-1 1-1 .5.1 1 .5 1 1z" class="st7"/><path d="M184 224.3c-3.4 0-6.1-2.8-6.1-6.2v-6.5c0-.5.4-.9.9-.9h13.9c.5 0 .9.4.9.9v6.5c0 3.4-2.8 6.2-6.2 6.2H184zm8.7-14h-13.9c-.7 0-1.3.6-1.3 1.3v6.5c0 3.6 2.9 6.5 6.5 6.5h3.5c3.6 0 6.5-2.9 6.5-6.5v-6.5c0-.7-.6-1.3-1.3-1.3" class="st6"/><path d="M184 224.3c-3.4 0-6.1-2.8-6.1-6.2v-6.5c0-.5.4-.9.9-.9h13.9c.5 0 .9.4.9.9v6.5c0 3.4-2.8 6.2-6.2 6.2H184zm8.7-14h-13.9c-.7 0-1.3.6-1.3 1.3v6.5c0 3.6 2.9 6.5 6.5 6.5h3.5c3.6 0 6.5-2.9 6.5-6.5v-6.5c0-.7-.6-1.3-1.3-1.3z" class="st8"/><path d="M184 222.7c-2.5 0-4.6-2.1-4.6-4.6v-3.8c0-.4.4-.8.8-.8h11.1c.4 0 .8.4.8.8v3.8c0 2.5-2.1 4.6-4.6 4.6H184zm7.3-9.6h-11.1c-.6 0-1.1.5-1.1 1.2v3.8c0 2.7 2.2 5 5 5h3.5c2.7 0 5-2.2 5-5v-3.8c-.2-.6-.7-1.2-1.3-1.2" class="st6"/><path d="M184 222.7c-2.5 0-4.6-2.1-4.6-4.6v-3.8c0-.4.4-.8.8-.8h11.1c.4 0 .8.4.8.8v3.8c0 2.5-2.1 4.6-4.6 4.6H184zm7.3-9.6h-11.1c-.6 0-1.1.5-1.1 1.2v3.8c0 2.7 2.2 5 5 5h3.5c2.7 0 5-2.2 5-5v-3.8c-.2-.6-.7-1.2-1.3-1.2z" class="st8"/><path d="M185.7 219.5c-.4 0-.8-.3-.8-.8 0-.4.3-.8.8-.8.4 0 .8.3.8.8 0 .4-.4.8-.8.8m0-1.9c-.6 0-1.1.5-1.1 1.1 0 .6.5 1.1 1.1 1.1.6 0 1.1-.5 1.1-1.1 0-.6-.5-1.1-1.1-1.1" class="st6"/><path d="M185.7 219.5c-.4 0-.8-.3-.8-.8 0-.4.3-.8.8-.8.4 0 .8.3.8.8 0 .4-.4.8-.8.8zm0-1.9c-.6 0-1.1.5-1.1 1.1 0 .6.5 1.1 1.1 1.1.6 0 1.1-.5 1.1-1.1 0-.6-.5-1.1-1.1-1.1z" class="st8"/><path d="M122.4 428.2h23.1v3.7h-23.1zm77.5 0h26.7v3.7h-26.7z" class="st2"/><path d="M122.4 418.6H143v10.9h-20.6zm79.9 0h24.2v10.9h-24.2z" class="st2"/><path d="M164.2 66.3h49.3v2.9h-49.3zm-101.9 0h49.3v2.9H62.3zm104.7 3h46.5v9.5H167zm-102 0h46.5v9.5H65z" class="st9"/><path d="M197.6 65.9h26.7v3.7h-26.7zm-101.2 0h26.7v3.7H96.4zm-76.4 0h26.7v3.7H20z" class="st2"/><path d="M121.5 65.9h26.7v3.7h-26.7zM18.9 195.3h75.7v4.9H18.9zM149.2 177h83.3v4.9h-83.3zm10.5 30.4h64v2.7h-64zM149 259.7h74.7v5.1H149zm-29.2-19.3h5.1v191.5h-5.1zm0-164.3h5.1v136.6h-5.1z" class="st2"/><path d="M18 259.7h106.9v5.1H18zm140.3-60.1h2.7v26.9h-2.7zm0 43.2h2.7v19.6h-2.7zM20 66.6h24.2v12.6H20zm180.1 1.7h24.2v10.9h-24.2z" class="st2"/><path d="M220.5 33.9h11.9v145.6h-11.9zm0 145.6h11.9v252.4h-11.9zM98.9 68.3h24.2v10.9H98.9z" class="st2"/><path d="M121.5 68.3h24.2v10.9h-24.2zM18 247.3h6v17.5h-6zm-.5-181.4H24v161.9h-6.5z" class="st2"/><defs><path id="SVGID_7_" d="M17.5 20.6h215.4v411.3H17.5z"/></defs><clipPath id="SVGID_8_"><use xlink:href="#SVGID_7_" style="overflow:visible"/></clipPath><path d="M122.5 21.4v4.3l104 14.3v-4.3z" style="clip-path:url(#SVGID_8_);fill:none;stroke:#39373a;stroke-width:.803"/><path d="M217.2 210.1h4.4v52.1h-4.4z" class="st2"/><defs><path id="SVGID_9_" d="M17.5 20.6h215.4v411.3H17.5z"/></defs><clipPath id="SVGID_10_"><use xlink:href="#SVGID_9_" style="overflow:visible"/></clipPath><path d="M138 428.6h72.7v2.9H138z" style="clip-path:url(#SVGID_10_);fill:none;stroke:#39373a;stroke-width:.803"/><path d="M142 419h68.7v9.5H142zM34.7 186h25.7v9.4H34.7z" class="st9"/><path d="M34.7 186h25.7v1.5H34.7zm1.6 1.6.7 6h15l.9-6m.9-.1.8 6.1h3.2l.8-6.1" class="st9"/><path d="M211.1 182.3h9v24.8h-9z" class="st12"/><path d="M211.1 182.3h1.4v24.8h-1.4zm1.6 23.3 5.8-.7v-14.5l-5.8-.8m-.1-.9 5.9-.8v-3.1l-5.9-.7" class="st12"/><path d="M24.5 185.1h16.4v-16.4H24.5v16.4zm-.4-16.8h17.1v17.1H24.1v-17.1z" class="st2"/><path d="M24.5 185.1h16.4v-16.4H24.5v16.4zm-.4-16.8h17.1v17.1H24.1v-17.1z" class="st13"/><defs><path id="SVGID_11_" d="M17.5 20.6h215.4v411.3H17.5z"/></defs><clipPath id="SVGID_12_"><use xlink:href="#SVGID_11_" style="overflow:visible"/></clipPath><path d="M39.4 171.1c0-.4-.3-.7-.7-.7H30c-.4 0-.7.3-.7.7v11.5c0 .4.3.7.7.7h8.6c.4 0 .7-.3.7-.7v-11.5zm-10.5 11.5v-11.5c0-.6.5-1.1 1.1-1.1h8.6c.6 0 1.1.5 1.1 1.1v11.5c0 .6-.5 1.1-1.1 1.1H30c-.6 0-1.1-.5-1.1-1.1" style="clip-path:url(#SVGID_12_);fill:#39373a"/><path d="M39.4 171.1c0-.4-.3-.7-.7-.7H30c-.4 0-.7.3-.7.7v11.5c0 .4.3.7.7.7h8.6c.4 0 .7-.3.7-.7v-11.5zm-10.5 11.5v-11.5c0-.6.5-1.1 1.1-1.1h8.6c.6 0 1.1.5 1.1 1.1v11.5c0 .6-.5 1.1-1.1 1.1H30c-.6 0-1.1-.5-1.1-1.1z" style="clip-path:url(#SVGID_12_);fill:none;stroke:#39373a;stroke-width:.253"/><path d="M30.6 182.1h7.5v-10.4h-7.5v10.4zm-.4-10.8h8.3v11.1h-8.3v-11.1z" class="st2"/><path d="M30.6 182.1h7.5v-10.4h-7.5v10.4zm-.4-10.8h8.3v11.1h-8.3v-11.1z" class="st13"/><defs><path id="SVGID_13_" d="M17.5 20.6h215.4v411.3H17.5z"/></defs><clipPath id="SVGID_14_"><use xlink:href="#SVGID_13_" style="overflow:visible"/></clipPath><path d="M35.8 176.9c0-.5-.4-1-1-1-.5 0-1 .4-1 1 0 .5.4 1 1 1 .6-.1 1-.5 1-1m-2.3 0c0-.7.6-1.3 1.3-1.3.7 0 1.3.6 1.3 1.3 0 .7-.6 1.3-1.3 1.3-.7 0-1.3-.6-1.3-1.3" style="clip-path:url(#SVGID_14_);fill:#39373a"/><path d="M35.8 176.9c0-.5-.4-1-1-1-.5 0-1 .4-1 1 0 .5.4 1 1 1 .6-.1 1-.5 1-1zm-2.3 0c0-.7.6-1.3 1.3-1.3.7 0 1.3.6 1.3 1.3 0 .7-.6 1.3-1.3 1.3-.7 0-1.3-.6-1.3-1.3z" style="clip-path:url(#SVGID_14_);fill:none;stroke:#39373a;stroke-width:.253"/><path d="m139.157 73.685.613-1.032 22.862 13.598-.613 1.031z" class="st9"/><defs><path id="SVGID_15_" d="M17.5 20.6h215.4v411.3H17.5z"/></defs><clipPath id="SVGID_16_"><use xlink:href="#SVGID_15_" style="overflow:visible"/></clipPath><path d="M162.8 86.1s1.5-2.6 2.9-7.6c1.3-4.5.9-9 .9-9" style="clip-path:url(#SVGID_16_);fill:none;stroke:#39373a;stroke-width:.536"/><path d="m37.182 73.729.613-1.032 22.862 13.598-.614 1.031z" class="st9"/><defs><path id="SVGID_17_" d="M17.5 20.6h215.4v411.3H17.5z"/></defs><clipPath id="SVGID_18_"><use xlink:href="#SVGID_17_" style="overflow:visible"/></clipPath><path d="M60.8 86.1s1.5-2.6 2.9-7.6c1.3-4.5.9-9 .9-9" style="clip-path:url(#SVGID_18_);fill:none;stroke:#39373a;stroke-width:.536"/><path d="m122.05 177.681 22.861-13.597.613 1.031-22.861 13.598z" class="st9"/><defs><path id="SVGID_19_" d="M17.5 20.6h215.4v411.3H17.5z"/></defs><clipPath id="SVGID_20_"><use xlink:href="#SVGID_19_" style="overflow:visible"/></clipPath><path d="M145.7 165.3s1.5 2.6 2.9 7.6c1.3 4.5.9 9 .9 9" style="clip-path:url(#SVGID_20_);fill:none;stroke:#39373a;stroke-width:.536"/><path d="m98.949 183.397.613-1.031 22.862 13.597-.613 1.032z" class="st9"/><defs><path id="SVGID_21_" d="M17.5 20.6h215.4v411.3H17.5z"/></defs><clipPath id="SVGID_22_"><use xlink:href="#SVGID_21_" style="overflow:visible"/></clipPath><path d="M98.8 183.6s-1.5 2.6-2.9 7.6c-1.3 4.5-.9 9-.9 9" style="clip-path:url(#SVGID_22_);fill:none;stroke:#39373a;stroke-width:.536"/><path d="m122.052 263.908.613-1.031 22.862 13.597-.613 1.032z" class="st9"/><defs><path id="SVGID_23_" d="M17.5 20.6h215.4v411.3H17.5z"/></defs><clipPath id="SVGID_24_"><use xlink:href="#SVGID_23_" style="overflow:visible"/></clipPath><path d="M145.7 276.3s1.5-2.6 2.9-7.6c1.3-4.5.9-9 .9-9" style="clip-path:url(#SVGID_24_);fill:none;stroke:#39373a;stroke-width:.536"/><path d="m149.437 230.322 1.032-.614 9.303 15.642-1.03.614z" class="st9"/><defs><path id="SVGID_25_" d="M17.5 20.6h215.4v411.3H17.5z"/></defs><clipPath id="SVGID_26_"><use xlink:href="#SVGID_25_" style="overflow:visible"/></clipPath><path d="M150.7 229.5s2.6-1.5 7.6-2.9c.7-.2 1.4-.4 2.1-.5" style="clip-path:url(#SVGID_26_);fill:none;stroke:#39373a;stroke-width:.536"/><path d="m149.494 195.899 9.304-15.643 1.031.614-9.304 15.642z" class="st9"/><defs><path id="SVGID_27_" d="M17.5 20.6h215.4v411.3H17.5z"/></defs><clipPath id="SVGID_28_"><use xlink:href="#SVGID_27_" style="overflow:visible"/></clipPath><path d="M150.7 196.7s2.6 1.5 7.6 2.9c.7.2 1.4.4 2.1.5" style="clip-path:url(#SVGID_28_);fill:none;stroke:#39373a;stroke-width:.536"/><path d="m20.615 248.82 10.582-17.791 1.031.613-10.581 17.79z" class="st9"/><defs><path id="SVGID_29_" d="M17.5 20.6h215.4v411.3H17.5z"/></defs><clipPath id="SVGID_30_"><use xlink:href="#SVGID_29_" style="overflow:visible"/></clipPath><path d="M31.1 230.9s-2.6-1.5-7.6-2.9c-.7-.2-1.4-.4-2.1-.5" style="clip-path:url(#SVGID_30_);fill:none;stroke:#39373a;stroke-width:.536"/><path d="m207.942 76.12 8.626-8.626 16.335 16.333-8.627 8.627zm-.03 345.657 14.213-14.213 8.415 8.415-14.213 14.213z" class="st2"/><defs><path id="SVGID_31_" d="M17.5 20.6h215.4v411.3H17.5z"/></defs><clipPath id="SVGID_32_"><use xlink:href="#SVGID_31_" style="overflow:visible"/></clipPath><path d="M176.8 136.1c0-.7.1-1 .7-1 .7 0 .8.2.8 1.6-.3.2-.5.2-.8.2-.6 0-.7-.2-.7-.8m-1.3 3.9c.7.2 1.4.2 1.7.2 1.9 0 2.6-.5 2.6-3.2 0-2.4-.4-3.1-2.3-3.1-1.8 0-2.3.7-2.3 2.2 0 1.1.4 1.9 1.7 1.9.5 0 .9-.1 1.2-.4 0 1-.3 1.3-1.1 1.3h-1.6l.1 1.1zm-1.9-1.4c-.4 0-.6.1-.6.6v.4c0 .4.1.6.6.6h.4c.4 0 .6-.1.6-.6v-.4c0-.4-.1-.6-.6-.6h-.4zm-1.6 1.5V134h-1.6l-1.5.6.2 1 1.4-.3c-.1.2-.1.5-.1.7v4h1.6zm-3.9 0V134h-1.6l-1.5.6.2 1 1.4-.3c-.1.2-.1.5-.1.7v4h1.6zM188 128c0-.2.1-.3.4-.3h.9v.5c-.3.2-.6.3-.9.3-.3 0-.4-.1-.4-.4v-.1zm-1.2-1.7c.7 0 1.4-.1 1.9-.1s.6.1.6.5v.1h-1.4c-.9 0-1.4.4-1.4 1.1v.4c0 .8.7 1.2 1.5 1.2s1.3-.4 1.6-.8l.1.6h1.3v-2.8c0-1.3-.6-1.7-1.8-1.7-.6 0-1.7.1-2.4.2v1.3zm-.7.1v-1.2h-4.4v1.2h1.4v3.2h1.6v-3.2h1.4zm-7.8 1.6c0-.2.1-.3.4-.3h.9v.5c-.3.2-.6.3-.9.3-.3 0-.4-.1-.4-.4v-.1zm-1.2-1.7c.7 0 1.4-.1 1.9-.1s.6.1.6.5v.1h-1.5c-.9 0-1.4.4-1.4 1.1v.4c0 .8.7 1.2 1.5 1.2s1.3-.4 1.6-.8l.2.6h1.3v-2.8c0-1.3-.6-1.7-1.8-1.7-.6 0-1.7.1-2.4.2v1.3zm-1.1-1.1h-1.6v1.5h-1.3v-1.5h-1.6v4.4h1.6v-1.8h1.3v1.8h1.6v-4.4zm-7.4 0c-.3 0-.5.2-.6.5l-.4 1.6c0 .2-.1.4-.1.6h-.1c0-.2 0-.4-.1-.6l-.4-1.6c-.1-.3-.3-.5-.6-.5h-1.4c-.4 0-.5.2-.6.5l-.1 3.8h1.4l.1-3.2h.1l.5 2.1c.1.3.3.5.6.5h.7c.3 0 .5-.2.6-.5l.5-2.1h.1l.1 3.2h1.4l-.1-3.8c0-.4-.2-.5-.5-.5h-1.1zm-7.2 1c.5 0 .7.2.7 1.2s-.1 1.2-.7 1.2c-.5 0-.7-.2-.7-1.2s.1-1.2.7-1.2m0-1.2c-1.7 0-2.4.6-2.4 2.3 0 1.7.6 2.3 2.4 2.3 1.7 0 2.3-.6 2.3-2.3 0-1.6-.6-2.3-2.3-2.3m-4.4 2.2c1-.1.9-.2 1.5-2.1h-1.6c-.4 1.5-.4 1.6-1 1.6h-.2c0-.2.1-.4.1-.6v-1h-1.6v4.4h1.6v-1.4c0-.1 0-.2-.1-.4h.4c.5 0 .5.1 1 1.7h1.7c-.7-1.9-.8-2-1.8-2.2zm28.2-10.6h-.6c-.4 0-.5-.1-.5-.5 0-.3.1-.4.5-.4h.6v.9zm-1.8.5c-.3 0-.7.1-.8.5l-.3 1.4h1.6l.3-1.2c0-.2.1-.3.4-.3h.6v1.4h1.5v-4.4c-.5-.1-1-.1-2.2-.1-1.6 0-2 .3-2 1.4 0 .6.2 1.1.9 1.3zm-4.6.4c0-.2.1-.3.4-.3h.9v.5c-.3.2-.6.3-.9.3-.3 0-.4-.1-.4-.4v-.1zm-1.2-1.7c.7 0 1.4-.1 1.9-.1s.6.1.6.5v.1h-1.4c-.9 0-1.4.4-1.4 1.1v.4c0 .8.7 1.2 1.5 1.2s1.3-.4 1.6-.8l.1.6h1.3V116c0-1.3-.6-1.7-1.8-1.7-.6 0-1.7.1-2.4.2v1.3zm-1.1-1.2h-2.6c-.8 0-1.1.4-1.2 1.1-.1.8-.1 1.4-.2 1.7-.1.4-.4.3-.7.4l.2 1.2c1 .2 1.8-.1 2-1.1.1-.4.2-1.2.3-1.8 0-.3.1-.4.4-.4h.4v3.3h1.6v-4.4zm-5.3 4.4v-4.4h-1.4l-1.4 2.1-.3.6c0-.3.1-.4.1-.7v-2.1h-1.4v4.4h1.4l1.4-2c.1-.2.3-.5.4-.7 0 .3-.1.5-.1.8v2h1.3zm-7.1-3.2c1.2-.2 1.2-.7 1.8-2.9h-1.7c-.5 1.8-.7 2.4-1.2 2.4h-.3c0-.3.1-.5.1-.8v-1.6h-1.6v1.6c0 .2 0 .5.1.8h-.3c-.6 0-.7-.5-1.2-2.4h-1.7c.6 2.2.7 2.7 1.8 2.9v.1c-1.2.2-1.3.6-2 3.1h1.7c.7-2.2.7-2.6 1.3-2.6h.3c0 .2-.1.4-.1.6v2h1.6v-2c0-.2 0-.4-.1-.6h.3c.6 0 .7.4 1.3 2.6h1.7c-.5-2.5-.6-3-1.8-3.2zm14.8 261.6c.7 0 .8.1.8.8 0 .6-.1.8-.8.8-.7 0-.8-.1-.8-.8-.1-.7.1-.8.8-.8m0-2.5c.6 0 .7.1.7.7 0 .5-.1.7-.7.7s-.8-.1-.8-.7c0-.5.2-.7.8-.7m-1.3 2c-.9.1-1.1.8-1.1 1.6 0 1.2.5 1.6 2.4 1.6s2.4-.5 2.4-1.6c0-.8-.2-1.5-1.1-1.6.7-.1.9-.7.9-1.4 0-1.1-.4-1.6-2.2-1.6-1.8 0-2.2.5-2.2 1.6 0 .6.2 1.3.9 1.4zm-2.8 1.6c-.4 0-.6.1-.6.6v.4c0 .4.1.6.6.6h.4c.4 0 .6-.1.6-.6v-.4c0-.4-.1-.6-.6-.6h-.4zm-3.7-1.1c.7 0 .8.1.8.8 0 .6-.1.8-.8.8-.7 0-.8-.1-.8-.8 0-.7.1-.8.8-.8m0-2.5c.6 0 .7.1.7.7 0 .5-.1.7-.7.7s-.8-.1-.8-.7c.1-.5.2-.7.8-.7m-1.3 2c-.9.1-1.1.8-1.1 1.6 0 1.2.5 1.6 2.4 1.6s2.4-.5 2.4-1.6c0-.8-.2-1.5-1.1-1.6.7-.1.9-.7.9-1.4 0-1.1-.4-1.6-2.2-1.6-1.8 0-2.2.5-2.2 1.6 0 .6.3 1.3.9 1.4zm-2.1 3.1v-6.1H166l-1.5.6.2 1 1.4-.3c-.1.2-.1.5-.1.7v4h1.7zm20.8-12c0-.2.1-.3.4-.3h.9v.5c-.3.2-.6.3-.9.3-.3 0-.4-.1-.4-.4v-.1zm-1.2-1.8c.7 0 1.4-.1 1.9-.1s.6.1.6.5v.1h-1.4c-.9 0-1.4.4-1.4 1.1v.4c0 .8.7 1.2 1.5 1.2s1.3-.4 1.6-.8l.1.6h1.3v-2.8c0-1.3-.6-1.7-1.8-1.7-.6 0-1.7.1-2.4.2v1.3zm-.7.1v-1.2h-4.4v1.2h1.4v3.2h1.6v-3.2h1.4zm-7.8 1.7c0-.2.1-.3.4-.3h.9v.5c-.3.2-.6.3-.9.3-.3 0-.4-.1-.4-.4v-.1zm-1.2-1.8c.7 0 1.4-.1 1.9-.1s.6.1.6.5v.1h-1.5c-.9 0-1.4.4-1.4 1.1v.4c0 .8.7 1.2 1.5 1.2s1.3-.4 1.6-.8l.2.6h1.3v-2.8c0-1.3-.7-1.7-1.8-1.7-.6 0-1.7.1-2.4.2v1.3zm-1.1-1.1H175v1.5h-1.3v-1.5h-1.6v4.4h1.6v-1.8h1.3v1.8h1.6v-4.4zm-7.3 0c-.3 0-.5.2-.6.5l-.4 1.6c0 .2-.1.4-.1.6h-.1c0-.2 0-.4-.1-.6l-.4-1.6c-.1-.3-.3-.5-.6-.5h-1.4c-.4 0-.5.2-.6.5l-.1 3.8h1.4l.1-3.2h.1l.5 2.1c.1.3.3.5.6.5h.7c.3 0 .5-.2.6-.5l.5-2.1h.1l.1 3.2h1.4l-.1-3.8c0-.4-.2-.5-.5-.5h-1.1zm-7.3 1c.5 0 .7.2.7 1.2s-.1 1.2-.7 1.2c-.5 0-.7-.2-.7-1.2s.2-1.2.7-1.2m0-1.1c-1.7 0-2.4.6-2.4 2.3 0 1.7.6 2.3 2.4 2.3 1.7 0 2.3-.6 2.3-2.3.1-1.7-.6-2.3-2.3-2.3m-4.4 2.2c1-.1.9-.2 1.5-2.1h-1.6c-.4 1.5-.4 1.6-1 1.6h-.2c0-.2.1-.4.1-.6v-1h-1.6v4.4h1.6v-1.4c0-.1 0-.2-.1-.4h.4c.5 0 .5.1 1 1.7h1.7c-.7-2-.7-2-1.8-2.2zm28.2-10.7h-.6c-.4 0-.5-.1-.5-.5 0-.3.1-.4.5-.4h.6v.9zm-1.7.6c-.3 0-.7.1-.8.5l-.3 1.4h1.6l.3-1.2c0-.2.1-.3.4-.3h.6v1.4h1.5v-4.4c-.5-.1-1-.1-2.2-.1-1.6 0-2 .3-2 1.4-.1.6.1 1.1.9 1.3zm-4.7.3c0-.2.1-.3.4-.3h.9v.5c-.3.2-.6.3-.9.3-.3 0-.4-.1-.4-.4v-.1zm-1.2-1.7c.7 0 1.4-.1 1.9-.1s.6.1.6.5v.1h-1.4c-.9 0-1.4.4-1.4 1.1v.4c0 .8.7 1.2 1.5 1.2s1.3-.4 1.6-.8l.1.6h1.3v-2.8c0-1.3-.6-1.7-1.8-1.7-.6 0-1.7.1-2.4.2v1.3zm-1.1-1.1h-2.6c-.8 0-1.1.4-1.2 1.1-.1.8-.1 1.4-.2 1.7-.1.4-.4.3-.7.4l.2 1.2c1 .2 1.8-.1 2-1.1.1-.4.2-1.2.3-1.8 0-.3.1-.4.4-.4h.4v3.3h1.6v-4.4zm-5.3 4.3v-4.4h-1.4l-1.4 2.1-.3.6c0-.3.1-.4.1-.7v-2.1h-1.4v4.4h1.4l1.4-2c.1-.2.3-.5.4-.7 0 .3-.1.5-.1.8v2h1.3zm-7.1-3.2c1.2-.2 1.2-.7 1.8-2.9h-1.7c-.5 1.8-.7 2.4-1.2 2.4h-.3c0-.3.1-.5.1-.8v-1.6h-1.6v1.6c0 .2 0 .5.1.8h-.3c-.6 0-.7-.5-1.2-2.4h-1.7c.6 2.2.7 2.7 1.8 2.9v.1c-1.2.2-1.3.6-2 3.1h1.7c.7-2.2.7-2.6 1.3-2.6h.3c0 .2-.1.4-.1.6v2h1.6v-2c0-.2 0-.4-.1-.6h.3c.6 0 .7.4 1.3 2.6h1.7c-.5-2.5-.6-2.9-1.8-3.2zm21.8-125.6.1-1.2h-3.8l-.2 2.7c0 .3.2.5.5.5l.9.1c.8.1 1.1.2 1.1.8 0 .5-.2.7-1 .7-.4 0-1 0-1.6-.1l-.1 1.2c.8.1 1.5.2 2.2.2 1.7 0 2.2-.9 2.2-2 0-1-.4-1.8-1.8-2l-1-.1.1-.8h2.4zm-5.6 3.4c-.4 0-.6.1-.6.6v.4c0 .4.1.6.6.6h.4c.4 0 .6-.1.6-.6v-.5c0-.4-.1-.6-.6-.6h-.4zm-5.5-3.4h1.7c.6 0 .8.1.8.6 0 .4-.1.7-.7.7h-1.2v1.1h1.2c.6 0 .8.2.8.7 0 .6-.2.7-1 .7-.5 0-.9 0-1.7-.1l-.1 1.2c.7.1 1.4.2 2.2.2 1.6 0 2.2-.5 2.2-1.8 0-.9-.3-1.4-1.1-1.5.8-.1 1-.7 1-1.5 0-1.1-.6-1.4-2-1.4-.7 0-1.3.1-2 .2l-.1.9zm4.7-37.2.1-1.2h-3.8l-.2 2.7c0 .3.2.5.5.5l.9.1c.8.1 1.1.2 1.1.8 0 .5-.2.7-1 .7-.4 0-1 0-1.6-.1l-.1 1.2c.8.1 1.5.2 2.2.2 1.7 0 2.2-.9 2.2-2 0-1-.4-1.8-1.8-2l-1-.1.1-.8h2.4zm-5.7 3.3c-.4 0-.6.1-.6.6v.4c0 .4.1.6.6.6h.4c.4 0 .6-.1.6-.6v-.4c0-.4-.1-.6-.6-.6h-.4zm-1.6 1.5v-6.1H171l-1.5.6.2 1 1.4-.3c-.1.2-.1.5-.1.7v4h1.7zm-101.2 36h1.7c.6 0 .8.1.8.6 0 .4-.1.7-.7.7h-1.2v1.1h1.2c.6 0 .8.2.8.7 0 .6-.2.7-1 .7-.5 0-.9 0-1.7-.1l-.1 1.2c.7.1 1.4.2 2.2.2 1.6 0 2.2-.5 2.2-1.8 0-.9-.3-1.4-1.1-1.5.8-.1 1-.7 1-1.5 0-1.1-.6-1.4-2-1.4-.7 0-1.3.1-2 .2l-.1.9zm-1.8 3.3c-.4 0-.6.1-.6.6v.4c0 .4.1.6.6.6h.4c.4 0 .6-.1.6-.6v-.4c0-.4-.1-.6-.6-.6h-.4zm-5.1-4.5.1 1.3h2.6l-.3.6-1.5 4.1h1.6l1.8-5.3c.1-.4-.1-.8-.6-.8h-3.7zm26-6.9H90c-.4 0-.5-.1-.5-.5 0-.3.1-.4.5-.4h.6v.9zm-1.7.6c-.3 0-.7.1-.8.5l-.3 1.4h1.6l.3-1.2c0-.2.1-.3.4-.3h.6v1.4h1.5v-4.4c-.5-.1-1-.1-2.2-.1-1.6 0-2 .3-2 1.4 0 .6.2 1.1.9 1.3zm-4.6.3c0-.2.1-.3.4-.3h.9v.5c-.3.2-.6.3-.9.3-.3 0-.4-.1-.4-.4v-.1zm-1.2-1.7c.7 0 1.4-.1 1.9-.1s.6.1.6.5v.1h-1.4c-.9 0-1.4.4-1.4 1.1v.4c0 .8.7 1.2 1.5 1.2s1.3-.4 1.6-.8l.1.6h1.3V225c0-1.3-.6-1.7-1.8-1.7-.6 0-1.7.1-2.4.2v1.3zm-2.5.9c1-.1 1-.3 1.6-2.1h-1.6c-.5 1.4-.5 1.6-.9 1.6h-.3c0-.2.1-.4.1-.5v-1h-1.4v1c0 .2 0 .4.1.5h-.3c-.4 0-.5-.2-1-1.6h-1.6c.6 1.8.5 1.9 1.6 2.1-1.1.2-1.1.2-1.7 2.3h1.6c.6-1.7.6-1.7 1-1.8h.4c0 .1-.1.3-.1.4v1.4h1.4v-1.8h.4c.4 0 .4.1 1 1.8h1.6c-.8-2-.8-2.1-1.9-2.3zm-8.1-1.1c.5 0 .7.2.7 1.2s-.1 1.2-.7 1.2c-.5 0-.7-.2-.7-1.2 0-.9.1-1.2.7-1.2m0-1.1c-1.7 0-2.4.6-2.4 2.3 0 1.7.6 2.3 2.4 2.3 1.7 0 2.3-.6 2.3-2.3 0-1.7-.6-2.3-2.3-2.3m-4.2 4.5h1.6l-1.3-2.2 1.2-2.1h-1.6l-.9 1.6-.9-1.6h-1.6l1.2 2.1-1.3 2.2h1.6l.9-1.8 1.1 1.8zm-4 0v-4.4h-1.4l-1.4 2.1-.3.6c0-.3.1-.4.1-.7v-2.1h-1.4v4.4h1.4l1.4-2c.1-.2.3-.5.4-.7 0 .3-.1.5-.1.8v2h1.3zm-8.3-3c.3-.2.5-.3.8-.3.4 0 .6.2.6 1.2s-.2 1.1-.6 1.1c-.3 0-.5-.1-.8-.1V225zm-.3-1.4h-1.3v6H56v-1.9c.4.3.9.4 1.4.4 1.1 0 1.7-.5 1.7-2.2 0-1.5-.4-2.3-1.5-2.3-.7 0-1.4.3-1.7.7l-.2-.7zm-2.3-1.7h-5.1v6.1H50v-4.9h1.8v4.9h1.6v-6.1zm88.9 4.1h1.7c.6 0 .8.1.8.6 0 .4-.1.7-.7.7h-1.2v1.1h1.2c.6 0 .8.2.8.7 0 .6-.2.7-1 .7-.5 0-.9 0-1.7-.1l-.1 1.2c.7.1 1.4.2 2.2.2 1.6 0 2.2-.5 2.2-1.8 0-.9-.3-1.4-1.1-1.5.8-.1 1-.7 1-1.5 0-1.1-.6-1.4-2-1.4-.7 0-1.3.1-2 .2l-.1.9zm-1.8 3.4c-.4 0-.6.1-.6.6v.4c0 .4.1.6.6.6h.4c.4 0 .6-.1.6-.6v-.4c0-.4-.1-.6-.6-.6h-.4zM135 226h1.7c.6 0 .8.1.8.6 0 .4-.1.7-.7.7h-1.2v1.1h1.2c.6 0 .8.2.8.7 0 .6-.2.7-1 .7-.5 0-.9 0-1.7-.1l-.1 1.2c.7.1 1.4.2 2.2.2 1.6 0 2.2-.5 2.2-1.8 0-.9-.3-1.4-1.1-1.5.8-.1 1-.7 1-1.5 0-1.1-.6-1.4-2-1.4-.7 0-1.3.1-2 .2l-.1.9zm-57.8-93.8c.7 0 .8.1.8.8 0 .6-.1.8-.8.8-.7 0-.8-.1-.8-.8-.1-.7.1-.8.8-.8m0-2.5c.6 0 .7.1.7.7 0 .5-.1.7-.7.7s-.8-.1-.8-.7c0-.5.2-.7.8-.7m-1.3 2c-.9.1-1.1.8-1.1 1.6 0 1.2.5 1.6 2.4 1.6s2.4-.5 2.4-1.6c0-.8-.2-1.5-1.1-1.6.7-.1.9-.7.9-1.4 0-1.1-.4-1.6-2.2-1.6-1.8 0-2.2.5-2.2 1.6-.1.6.2 1.3.9 1.4zm-2.8 1.6c-.4 0-.6.1-.6.6v.4c0 .4.1.6.6.6h.4c.4 0 .6-.1.6-.6v-.4c0-.4-.1-.6-.6-.6h-.4zm-5.5-3.4h1.7c.6 0 .8.1.8.6 0 .4-.1.7-.7.7h-1.2v1.1h1.2c.7 0 .8.2.8.7 0 .6-.2.7-1 .7-.5 0-.9 0-1.7-.1l-.1 1.2c.7.1 1.4.2 2.2.2 1.6 0 2.2-.5 2.2-1.8 0-.9-.3-1.4-1.1-1.5.8-.1 1-.7 1-1.5 0-1.1-.6-1.4-2-1.4-.7 0-1.3.1-2 .2l-.1.9zm-1.2 4.9v-6.1h-1.6l-1.5.6.2 1 1.4-.3c-.1.2-.1.5-.1.7v4h1.6zm16.4-12.9h-.6c-.4 0-.5-.1-.5-.5 0-.3.1-.4.5-.4h.6v.9zm-1.7.5c-.3 0-.7.1-.8.5l-.3 1.4h1.6l.3-1.2c0-.2.1-.3.4-.3h.6v1.4h1.5v-4.4c-.5-.1-1-.1-2.2-.1-1.6 0-2 .3-2 1.4-.1.6.1 1.1.9 1.3zm-1.8-2.5h-1.6v1.5h-1.3v-1.5h-1.6v4.4h1.6v-1.8h1.3v1.8h1.6v-4.4zm-6.6 4.3h1.6L73 122l1.2-2.1h-1.6l-.9 1.6-.9-1.6h-1.6l1.2 2.1-1.3 2.2h1.6l.9-1.8 1.1 1.8zm-3.6-4.3h-1.7l-.6 2.6c0 .2-.1.5-.2.7h-.1c0-.3-.1-.5-.1-.7l-.7-2.6H64l1.4 4c.1.2.3.4.5.4h.3c-.1.2-.3.4-.5.5-.3.2-.7.2-1.2.2l-.1 1c.6.1 1.3.1 1.8-.1.7-.2 1.2-.7 1.5-1.7l1.4-4.3zm-7.1 1.2c1.2-.2 1.2-.7 1.9-2.9h-1.7c-.5 1.8-.6 2.4-1.4 2.4h-.3c0-.2.1-.5.1-.8v-1.6H59v6.1h1.6v-2c0-.2 0-.4-.1-.6h.3c.8 0 .9.4 1.5 2.6H64c-.7-2.5-.8-3-2-3.2zm133.3 213.2.2-3.2h-9.9l-.4 7.1c0 .7.5 1.3 1.2 1.4l2.5.3c2.1.2 2.9.5 2.8 2-.1 1.3-.6 1.8-2.6 1.8-1.1 0-2.6-.1-4.1-.2l-.4 3.2c2 .3 4 .5 5.6.5 4.5 0 5.8-2.3 5.8-5.2 0-2.5-.9-4.8-4.6-5.2l-2.6-.3.2-2.2h6.3zm-14.9 8.7c-1.1 0-1.4.3-1.4 1.4v1c0 1.1.3 1.4 1.4 1.4h1c1.1 0 1.4-.3 1.4-1.4v-1c0-1.1-.3-1.4-1.4-1.4h-1zm-2.9-2.3h-1.9v-6.5h-3.2l-.7 2.5v4.1h-3.1c-.4 0-.6-.2-.4-.7l3.5-9h-4l-3.9 10.1c-.5 1.2.3 2.5 1.7 2.5h6.3v3.3h3.9v-3.3l1.8-.4v-2.6zm-21 3.4c-1.8 0-2-.6-2-4.1.8-.4 1.3-.6 2-.6 1.5 0 1.9.4 1.9 2.1 0 1.9-.1 2.6-1.9 2.6m4.8-12.8c-1.6-.5-3.3-.5-4.1-.5-4.6 0-6.9 1.1-6.9 8.4 0 6.4 1.4 8 6.2 8 4.8 0 5.9-1.9 5.9-5.8 0-3.5-1-4.9-4.6-4.9-1.4 0-2.4.2-3.2.9.1-3 .7-3.5 2.7-3.5h3.9l.1-2.6z" class="st26"/><circle cx="173" cy="313.2" r="14.1" style="clip-path:url(#SVGID_32_);fill:none;stroke:#39373a;stroke-width:.965" transform="rotate(-79.1 173.024 313.227)"/><path d="M179.6 313c2.4-.3 2.5-1.4 3.8-5.7h-3.3c-.9 3.6-1.2 4.7-2.9 4.7h-.6c.1-.5.1-1 .1-1.5v-3.2h-3.3v12h3.3v-4c0-.3-.1-.7-.1-1.1h.6c1.7 0 1.8.8 3 5.1h3.4c-1.5-4.9-1.6-5.9-4.1-6.2v-.1zm-16.6-3.1c1.7-.1 2.5-.1 3.8-.1.9 0 1.3.1 1.3.6 0 .7-.8 1.8-2.1 3.1l-2.7 2.8c-.3.4-.5.8-.5 1.3v1.7h8.9v-2.8h-3.5c-.6 0-1.1 0-1.7.2l3-2.9c1.6-1.7 1.9-2.4 1.9-3.7 0-2.3-1.7-2.9-4.2-2.9-1.3 0-2.5.1-4.3.4l.1 2.3z" class="st26"/><path d="M175.2 241.1h18.9v20.4h-18.9z" class="st9"/><defs><path id="SVGID_33_" d="M17.5 20.6h215.4v411.3H17.5z"/></defs><clipPath id="SVGID_34_"><use xlink:href="#SVGID_33_" style="overflow:visible"/></clipPath><path d="M210.5 257.8s5.7 0 5.7-5.7v-34s0-5.7-5.7-5.7h-7.6s-5.7 0-5.7 5.7v34s0 5.7 5.7 5.7h7.6z" class="st28"/><path d="M208.7 254.6s5.7 0 5.7-5.7v-27.7s0-5.7-5.7-5.7h-4.1s-5.7 0-5.7 5.7v27.7s0 5.7 5.7 5.7h4.1z" class="st28"/><path d="M209.8 250.8s2.8 0 2.8-2.8v-27.8s0-2.8-2.8-2.8h-6.3s-2.8 0-2.8 2.8V248s0 2.8 2.8 2.8h6.3z" class="st28"/><path d="M206.7 220.7c-.5 0-.8.4-.8.8s.4.8.8.8c.5 0 .8-.4.8-.8s-.4-.8-.8-.8z" class="st28"/><path d="M196.1 260.2v-50.6" style="fill:none;stroke:#39373a;stroke-width:.602"/><defs><path id="SVGID_35_" d="M17.5 20.6h215.4v411.3H17.5z"/></defs><clipPath id="SVGID_36_"><use xlink:href="#SVGID_35_" style="overflow:visible"/></clipPath><path d="M91.9 43.4c.8.4 1.1 1.4 1.1 3 0 1.5-.3 2.6-1.1 3l.2.6c1.6-.4 2.3-1.6 2.3-3.6s-.7-3.1-2.3-3.6l-.2.6zm.1 3.4h-.6v-2.1h-1.1l-.2.8v1.3h-1c-.1 0-.2-.1-.1-.2l1.1-2.9h-1.3L87.5 47c-.2.4.1.8.5.8h2.1v1.1h1.3v-1.1l.6-.1v-.9zm-5.8.7c-.4 0-.5.1-.5.5v.3c0 .4.1.5.5.5h.3c.4 0 .5-.1.5-.5V48c0-.4-.1-.5-.5-.5h-.3zm-1-.7h-.6v-2.1h-1.1l-.2.8v1.3h-1c-.1 0-.2-.1-.1-.2l1.1-2.9H82L80.7 47c-.2.4.1.8.5.8h2.1v1.1h1.3v-1.1l.6-.1v-.9zm-4.6-3.9c-1.6.4-2.3 1.6-2.3 3.6s.7 3.1 2.3 3.6l.2-.6c-.8-.4-1.1-1.5-1.1-3 0-1.6.3-2.6 1.1-3l-.2-.6zm-6.5 3.7c.6 0 .7.1.7.7 0 .5-.1.6-.7.6s-.7-.1-.7-.6c0-.6.1-.7.7-.7m0-2.1c.5 0 .6.1.6.6s-.1.6-.6.6-.7-.1-.7-.6c.1-.5.2-.6.7-.6M73 46.1c-.7.1-.9.7-.9 1.4 0 1 .4 1.4 2 1.4s2-.4 2-1.4c0-.7-.2-1.3-.9-1.4.6-.1.8-.6.8-1.2 0-1-.3-1.4-1.9-1.4-1.6 0-1.9.4-1.9 1.4 0 .6.2 1.1.8 1.2zm-2.4 1.4c-.4 0-.5.1-.5.5v.3c0 .4.1.5.5.5h.4c.4 0 .5-.1.5-.5V48c0-.4-.1-.5-.5-.5h-.4zm-3.1-.9c.6 0 .7.1.7.7 0 .5-.1.6-.7.6s-.7-.1-.7-.6c0-.6.1-.7.7-.7m0-2.1c.5 0 .6.1.6.6s-.1.6-.6.6-.7-.1-.7-.6c.1-.5.2-.6.7-.6m-1.1 1.6c-.7.1-.9.7-.9 1.4 0 1 .4 1.4 2 1.4s2-.4 2-1.4c0-.7-.2-1.3-.9-1.4.6-.1.8-.6.8-1.2 0-1-.3-1.4-1.9-1.4-1.6 0-1.9.4-1.9 1.4 0 .6.2 1.1.8 1.2z" style="clip-path:url(#SVGID_36_);fill:#39373a"/></g></switch></svg>