<svg xmlns="http://www.w3.org/2000/svg" xmlns:xlink="http://www.w3.org/1999/xlink" xml:space="preserve" id="Слой_1" x="0" y="0" style="enable-background:new 0 0 343 441" version="1.1" viewBox="0 0 343 441"><style>.st0{fill:#f3dfec}.st1{fill:#39373a}.st10,.st3{fill:none;stroke:#39373a}.st10{stroke-width:.6}.st20{fill:#39373a}.st20,.st21{clip-path:url(#SVGID_32_)}.st21,.st22{fill:none;stroke:#39373a;stroke-width:.25}.st23,.st24,.st29{clip-path:url(#SVGID_34_);fill:#39373a}.st24,.st29{fill:none;stroke:#39373a;stroke-width:.25}.st29{clip-path:url(#SVGID_38_);stroke-width:.6}.st30,.st31{clip-path:url(#SVGID_40_);fill:#39373a}.st31{fill:none;stroke:#39373a;stroke-width:.25}</style><switch><g><path d="M21.7 78.1h100.8v335.2H21.7z" class="st0"/><path d="M77.1 78.1h246v177.2h-246z" class="st0"/><path d="M310.9 16.9h15v52.8h-15z" class="st1"/><defs><path id="SVGID_1_" d="M15.7 16.4h313.2V426H15.7z"/></defs><clipPath id="SVGID_2_"><use xlink:href="#SVGID_1_" style="overflow:visible"/></clipPath><path d="M310.9 16.9h15v52.8h-15z" style="clip-path:url(#SVGID_2_);fill:none;stroke:#39373a"/><path d="M222 65.8h29v2.4h-3v9.4h-26z" class="st1"/><path d="M222 65.8h29v2.4h-3v9.4h-26z" class="st3"/><path d="M118.5 65.8h29v2.4h-3v9.4h-26z" class="st1"/><path d="M118.5 65.8h29v2.4h-3v9.4h-26z" class="st3"/><path d="M17.9 413.8v11.7h29v-2.3h-3v-9.4z" class="st1"/><defs><path id="SVGID_3_" d="M15.7 16.4h313.2V426H15.7z"/></defs><clipPath id="SVGID_4_"><use xlink:href="#SVGID_3_" style="overflow:visible"/></clipPath><path d="M17.9 425.5h29v-2.3h-3v-9.4h-26z" style="clip-path:url(#SVGID_4_);fill:none;stroke:#39373a"/><path d="M21.2 65.8h34.3v2.4h-2.9v9.4H21.2z" class="st1"/><path d="M21.2 65.8h34.3v2.4h-2.9v9.4H21.2z" class="st3"/><path d="M327.6 65.8h-26.8v2.4h2.9v9.4h23.9z" class="st1"/><path d="M327.6 65.8h-26.8v2.4h2.9v9.4h23.9z" class="st3"/><path d="M232.4 65.8h-29v2.4h3v9.4h26z" class="st1"/><path d="M232.4 65.8h-29v2.4h3v9.4h26z" class="st3"/><path d="M104.6 413.8v9.4h-3v2.3h26.2v-11.7z" class="st1"/><defs><path id="SVGID_5_" d="M15.7 16.4h313.2V426H15.7z"/></defs><clipPath id="SVGID_6_"><use xlink:href="#SVGID_5_" style="overflow:visible"/></clipPath><path d="M127.8 425.5h-26.2v-2.3h3v-9.4h23.2z" style="clip-path:url(#SVGID_6_);fill:none;stroke:#39373a"/><path d="M122.8 65.8h-29v2.4h3v9.4h26z" class="st1"/><path d="M122.8 65.8h-29v2.4h3v9.4h26z" class="st3"/><path d="M323.6 16.9h4.8V221h-4.8z" class="st1"/><defs><path id="SVGID_7_" d="M15.7 16.4h313.2V426H15.7z"/></defs><clipPath id="SVGID_8_"><use xlink:href="#SVGID_7_" style="overflow:visible"/></clipPath><path d="M323.6 16.9h4.8V221h-4.8z" style="clip-path:url(#SVGID_8_);fill:none;stroke:#39373a"/><path d="M323.6 247.9h4.8v12.6h-4.8z" class="st1"/><defs><path id="SVGID_9_" d="M15.7 16.4h313.2V426H15.7z"/></defs><clipPath id="SVGID_10_"><use xlink:href="#SVGID_9_" style="overflow:visible"/></clipPath><path d="M323.6 247.9h4.8v12.6h-4.8z" style="clip-path:url(#SVGID_10_);fill:none;stroke:#39373a"/><path d="M126 255.8h200.4v4.8H126z" class="st1"/><path d="M126 255.8h200.4v4.8H126z" class="st3"/><path d="M125.2 212.5h47.5v4.8h-47.5z" class="st1"/><path d="M125.2 212.5h47.5v4.8h-47.5z" class="st3"/><path d="M207.9 212.5h20.2v4.8h-20.2z" class="st1"/><path d="M207.9 212.5h20.2v4.8h-20.2z" class="st3"/><path d="M254.3 192.2h70.2v4.8h-70.2z" class="st1"/><path d="M254.3 192.2h70.2v4.8h-70.2z" class="st3"/><path d="M223.3 74.7h4.8v142.5h-4.8z" class="st1"/><path d="M223.3 74.7h4.8v142.5h-4.8z" class="st3"/><path d="M223.3 16.9h4.8v28.8h-4.8z" class="st1"/><defs><path id="SVGID_11_" d="M15.7 16.4h313.2V426H15.7z"/></defs><clipPath id="SVGID_12_"><use xlink:href="#SVGID_11_" style="overflow:visible"/></clipPath><path d="M223.3 16.9h4.8v28.8h-4.8z" style="clip-path:url(#SVGID_12_);fill:none;stroke:#39373a"/><path d="M123 245.4h4.8v172.1H123z" class="st1"/><path d="M123 245.4h4.8v172.1H123z" class="st3"/><path d="M123 32.5h4.8v188.8H123z" class="st1"/><path d="M123 32.5h4.8v188.8H123z" class="st3"/><path d="M16.2 65.8h11v359.7h-11z" class="st1"/><defs><path id="SVGID_13_" d="M15.7 16.4h313.2V426H15.7z"/></defs><clipPath id="SVGID_14_"><use xlink:href="#SVGID_13_" style="overflow:visible"/></clipPath><path d="M16.2 65.8h11v359.7h-11z" style="clip-path:url(#SVGID_14_);fill:none;stroke:#39373a"/><path d="M23.7 175.7h72.8v2.5H23.7z" class="st1"/><path d="M23.7 175.7h72.8v2.5H23.7z" class="st3"/><path d="M23.7 256.9h72.8v2.5H23.7z" class="st1"/><path d="M23.7 256.9h72.8v2.5H23.7z" class="st3"/><path d="M25 203.7h63.2v2.5H25z" class="st1"/><path d="M25 203.7h63.2v2.5H25z" class="st3"/><path d="M87.4 197.1h2.5v25.8h-2.5z" class="st1"/><path d="M87.4 197.1h2.5v25.8h-2.5z" class="st3"/><path d="M87.4 175.7h2.5v4.3h-2.5z" class="st1"/><path d="M87.4 175.7h2.5v4.3h-2.5z" class="st3"/><path d="M87.4 240h2.5v18.6h-2.5z" class="st1"/><path d="M87.4 240h2.5v18.6h-2.5z" class="st3"/><path d="m125.123 35.02 99.46-14.423.387 2.672-99.46 14.423zM225.5 20.6h87v2.7h-87zm-83.4 45h44.7v2.7h-44.7zm-4 2.7h46.2v9.4h-46.2zm49.608 10.611 18.735-11.146.46.773-18.735 11.147z" class="st10"/><defs><path id="SVGID_15_" d="M15.7 16.4h313.2V426H15.7z"/></defs><clipPath id="SVGID_16_"><use xlink:href="#SVGID_15_" style="overflow:visible"/></clipPath><path d="M187.6 78.8s-1.1-1.5-1.6-5-.4-5.4-.4-5.4" style="clip-path:url(#SVGID_16_);fill:none;stroke:#39373a;stroke-width:.4"/><path d="m98.981 164.876.46-.774 24.15 14.368-.46.773z" class="st10"/><defs><path id="SVGID_17_" d="M15.7 16.4h313.2V426H15.7z"/></defs><clipPath id="SVGID_18_"><use xlink:href="#SVGID_17_" style="overflow:visible"/></clipPath><path d="M98.9 165s-1.1 1.5-1.6 5-.4 5.4-.4 5.4" style="clip-path:url(#SVGID_18_);fill:none;stroke:#39373a;stroke-width:.4"/><path d="m101.834 271.145 24.149-14.367.46.773-24.149 14.368z" class="st10"/><defs><path id="SVGID_19_" d="M15.7 16.4h313.2V426H15.7z"/></defs><clipPath id="SVGID_20_"><use xlink:href="#SVGID_19_" style="overflow:visible"/></clipPath><path d="M101.7 271.1s-2-2.5-3.4-5.7c-1.4-3.5-1.5-5.7-1.5-5.7" style="clip-path:url(#SVGID_20_);fill:none;stroke:#39373a;stroke-width:.4"/><path d="m311.904 226.703.773-.46 14.368 24.15-.773.46z" class="st10"/><defs><path id="SVGID_21_" d="M15.7 16.4h313.2V426H15.7z"/></defs><clipPath id="SVGID_22_"><use xlink:href="#SVGID_21_" style="overflow:visible"/></clipPath><path d="M312.7 226.1s2.5-2 5.7-3.4c3.5-1.4 5.7-1.5 5.7-1.5" style="clip-path:url(#SVGID_22_);fill:none;stroke:#39373a;stroke-width:.4"/><path d="m88.456 241.737 9.97-16.759.774.46-9.97 16.759z" class="st10"/><defs><path id="SVGID_23_" d="M15.7 16.4h313.2V426H15.7z"/></defs><clipPath id="SVGID_24_"><use xlink:href="#SVGID_23_" style="overflow:visible"/></clipPath><path d="M98.4 224.9s-1.5-1.1-5-1.6-5.4-.4-5.4-.4" style="clip-path:url(#SVGID_24_);fill:none;stroke:#39373a;stroke-width:.4"/><path d="m88.5 177.818.774-.46 9.97 16.758-.773.46z" class="st10"/><defs><path id="SVGID_25_" d="M15.7 16.4h313.2V426H15.7z"/></defs><clipPath id="SVGID_26_"><use xlink:href="#SVGID_25_" style="overflow:visible"/></clipPath><path d="M98.4 194.6s-1.5 1.1-5 1.6-5.4.4-5.4.4" style="clip-path:url(#SVGID_26_);fill:none;stroke:#39373a;stroke-width:.4"/><path d="m227.227 195.08 24.149-14.369.46.774-24.15 14.368z" class="st10"/><defs><path id="SVGID_27_" d="M15.7 16.4h313.2V426H15.7z"/></defs><clipPath id="SVGID_28_"><use xlink:href="#SVGID_27_" style="overflow:visible"/></clipPath><path d="M252 181.6s1.1 1.5 1.6 5 .4 5.4.4 5.4" style="clip-path:url(#SVGID_28_);fill:none;stroke:#39373a;stroke-width:.4"/><path d="M37.5 65.6H102v2.7H37.5zm0 2.7H102v9.4H37.5zm211-2.7h35.8v2.7h-35.8zm-2.5 2.7h35.8v9.4H246zm39.085 10.571 18.82-11.197.46.773-18.82 11.198z" class="st10"/><defs><path id="SVGID_29_" d="M15.7 16.4h313.2V426H15.7z"/></defs><clipPath id="SVGID_30_"><use xlink:href="#SVGID_29_" style="overflow:visible"/></clipPath><path d="M285 78.8s-1.1-1.5-1.6-5-.4-5.4-.4-5.4" style="clip-path:url(#SVGID_30_);fill:none;stroke:#39373a;stroke-width:.4"/><path d="M34.9 423h75.9v2.7H34.9z" style="clip-path:url(#SVGID_30_);fill:none;stroke:#39373a;stroke-width:.6"/><path d="M35.4 413.6h72.5v9.4H35.4zm0-210.3v-24.5m-7.4 7.1h6.3v15.9H28zm0-5.9h6.3v4.1H28zm7.7-1h-8m297 5.1h-37.2m7.7 1.1h17.4v6.9h-17.4zm-6.4 0h4.5v6.9h-4.5zm-1.1-1.4v8.5" class="st10"/><defs><path id="SVGID_31_" d="M15.7 16.4h313.2V426H15.7z"/></defs><clipPath id="SVGID_32_"><use xlink:href="#SVGID_31_" style="overflow:visible"/></clipPath><path d="M55.4 191c0 2.8-2.3 5.1-5.1 5.1h-7.4c-.5 0-.9-.4-.9-.9v-8.5c0-.5.4-.9.9-.9h7.4c2.8.1 5.1 2.4 5.1 5.2m-13.8-4.2v8.5c0 .7.6 1.2 1.2 1.2h7.4c3 0 5.5-2.5 5.5-5.5s-2.5-5.5-5.5-5.5h-7.4c-.6 0-1.2.6-1.2 1.3" class="st20"/><path d="M55.4 191c0 2.8-2.3 5.1-5.1 5.1h-7.4c-.5 0-.9-.4-.9-.9v-8.5c0-.5.4-.9.9-.9h7.4c2.8.1 5.1 2.4 5.1 5.2zm-13.8-4.2v8.5c0 .7.6 1.2 1.2 1.2h7.4c3 0 5.5-2.5 5.5-5.5s-2.5-5.5-5.5-5.5h-7.4c-.6 0-1.2.6-1.2 1.3z" class="st21"/><path d="M44.4 194.7v-7.3s0-.1.1-.1h5.6c2.1 0 3.8 1.7 3.8 3.8 0 2.1-1.7 3.8-3.8 3.8l-5.7-.2c.1 0 0 0 0 0z" class="st21"/><path d="M44.6 194.6v-7.2h5.5c2 0 3.6 1.6 3.6 3.6s-1.6 3.6-3.6 3.6h-5.5zm-.3-7.3v7.3c0 .1.1.3.3.3h5.6c2.2 0 3.9-1.8 3.9-3.9 0-2.2-1.8-3.9-3.9-3.9h-5.6c-.2 0-.3.1-.3.2" class="st20"/><path d="M44.6 194.6v-7.2h5.5c2 0 3.6 1.6 3.6 3.6s-1.6 3.6-3.6 3.6h-5.5zm-.3-7.3v7.3c0 .1.1.3.3.3h5.6c2.2 0 3.9-1.8 3.9-3.9 0-2.2-1.8-3.9-3.9-3.9h-5.6c-.2 0-.3.1-.3.2z" class="st21"/><path d="M50.1 191c0 .5-.4 1-1 1-.5 0-1-.4-1-1 0-.5.4-1 1-1s1 .5 1 1m-2.3 0c0 .7.6 1.3 1.3 1.3.7 0 1.3-.6 1.3-1.3 0-.7-.6-1.3-1.3-1.3-.7 0-1.3.6-1.3 1.3" class="st20"/><path d="M50.1 191c0 .5-.4 1-1 1-.5 0-1-.4-1-1 0-.5.4-1 1-1s1 .5 1 1zm-2.3 0c0 .7.6 1.3 1.3 1.3.7 0 1.3-.6 1.3-1.3 0-.7-.6-1.3-1.3-1.3-.7 0-1.3.6-1.3 1.3z" class="st21"/><path d="m45.158 193.8 2.323-1.735.24.32-2.324 1.736z" class="st1"/><path d="m45.158 193.8 2.323-1.735.24.32-2.324 1.736z" class="st22"/><path d="m45.2 188.2 2.3 1.7.2-.2-2.3-1.8z" class="st1"/><path d="m45.2 188.2 2.3 1.7.2-.2-2.3-1.8z" class="st22"/><defs><path id="SVGID_33_" d="M15.7 16.4h313.2V426H15.7z"/></defs><clipPath id="SVGID_34_"><use xlink:href="#SVGID_33_" style="overflow:visible"/></clipPath><path d="M41.6 194.5c0 .8-.6 1.4-1.4 1.4h-1.9c-.8 0-1.4-.6-1.4-1.4v-7.1c0-.8.6-1.4 1.4-1.4h1.9c.8 0 1.4.6 1.4 1.4v7.1zm-5.1-7v7.1c0 1 .8 1.8 1.8 1.8h1.9c1 0 1.8-.8 1.8-1.8v-7.1c0-1-.8-1.8-1.8-1.8h-1.9c-1 0-1.8.8-1.8 1.8" class="st23"/><path d="M41.6 194.5c0 .8-.6 1.4-1.4 1.4h-1.9c-.8 0-1.4-.6-1.4-1.4v-7.1c0-.8.6-1.4 1.4-1.4h1.9c.8 0 1.4.6 1.4 1.4v7.1zm-5.1-7v7.1c0 1 .8 1.8 1.8 1.8h1.9c1 0 1.8-.8 1.8-1.8v-7.1c0-1-.8-1.8-1.8-1.8h-1.9c-1 0-1.8.8-1.8 1.8z" class="st24"/><path d="M39.8 191c0 .3-.2.5-.5.5s-.5-.2-.5-.5.2-.5.5-.5c.2-.1.5.2.5.5m-1.5 0c0 .5.4.9.9.9s.9-.4.9-.9-.4-.9-.9-.9-.9.4-.9.9" class="st23"/><path d="M39.8 191c0 .3-.2.5-.5.5s-.5-.2-.5-.5.2-.5.5-.5c.2-.1.5.2.5.5zm-1.5 0c0 .5.4.9.9.9s.9-.4.9-.9-.4-.9-.9-.9-.9.4-.9.9z" class="st24"/><path d="M322.6 166.9h-16.2v16.2h16.2v-16.2zm.3 16.6h-17v-17h17v17z" class="st1"/><path d="M322.6 166.9h-16.2v16.2h16.2v-16.2zm.3 16.6h-17v-17h17v17z" class="st22"/><defs><path id="SVGID_35_" d="M15.7 16.4h313.2V426H15.7z"/></defs><clipPath id="SVGID_36_"><use xlink:href="#SVGID_35_" style="overflow:visible"/></clipPath><path d="M307.8 180.7c0 .4.3.7.7.7h8.5c.4 0 .7-.3.7-.7v-11.4c0-.4-.3-.7-.7-.7h-8.5c-.4 0-.7.3-.7.7v11.4zm10.4-11.4v11.4c0 .6-.5 1.1-1.1 1.1h-8.5c-.6 0-1.1-.5-1.1-1.1v-11.4c0-.6.5-1.1 1.1-1.1h8.5c.6 0 1.1.5 1.1 1.1" style="clip-path:url(#SVGID_36_);fill:#39373a"/><path d="M307.8 180.7c0 .4.3.7.7.7h8.5c.4 0 .7-.3.7-.7v-11.4c0-.4-.3-.7-.7-.7h-8.5c-.4 0-.7.3-.7.7v11.4zm10.4-11.4v11.4c0 .6-.5 1.1-1.1 1.1h-8.5c-.6 0-1.1-.5-1.1-1.1v-11.4c0-.6.5-1.1 1.1-1.1h8.5c.6 0 1.1.5 1.1 1.1z" style="clip-path:url(#SVGID_36_);fill:none;stroke:#39373a;stroke-width:.25"/><path d="M316.5 169.9H309v10.3h7.5v-10.3zm.4 10.6h-8.2v-11h8.2v11z" class="st1"/><path d="M316.5 169.9H309v10.3h7.5v-10.3zm.4 10.6h-8.2v-11h8.2v11z" class="st22"/><defs><path id="SVGID_37_" d="M15.7 16.4h313.2V426H15.7z"/></defs><clipPath id="SVGID_38_"><use xlink:href="#SVGID_37_" style="overflow:visible"/></clipPath><path d="M311.4 175c0 .5.4.9.9.9s.9-.4.9-.9-.4-.9-.9-.9-.9.4-.9.9m2.2 0c0 .7-.6 1.3-1.3 1.3-.7 0-1.3-.6-1.3-1.3 0-.7.6-1.3 1.3-1.3.7 0 1.3.6 1.3 1.3" style="clip-path:url(#SVGID_38_);fill:#39373a"/><path d="M311.4 175c0 .5.4.9.9.9s.9-.4.9-.9-.4-.9-.9-.9-.9.4-.9.9zm2.2 0c0 .7-.6 1.3-1.3 1.3-.7 0-1.3-.6-1.3-1.3 0-.7.6-1.3 1.3-1.3.7 0 1.3.6 1.3 1.3z" style="clip-path:url(#SVGID_38_);fill:none;stroke:#39373a;stroke-width:.25"/><path d="M39.4 254.6s-5.7 0-5.7-5.7V215s0-5.7 5.7-5.7H47s5.7 0 5.7 5.7v34s0 5.7-5.7 5.7h-7.6z" class="st29"/><path d="M41.2 251.5s-5.7 0-5.7-5.7v-27.6s0-5.7 5.7-5.7h4.1s5.7 0 5.7 5.7v27.6s0 5.7-5.7 5.7h-4.1z" class="st29"/><path d="M40 247.7s-2.8 0-2.8-2.8v-27.7s0-2.8 2.8-2.8h6.3s2.8 0 2.8 2.8v27.7s0 2.8-2.8 2.8H40z" class="st29"/><path d="M43.2 217.7c.5 0 .8.4.8.8 0 .5-.4.8-.8.8s-.8-.4-.8-.8.3-.8.8-.8z" class="st29"/><path d="M53.7 258.2v-52.4" class="st10"/><defs><path id="SVGID_39_" d="M15.7 16.4h313.2V426H15.7z"/></defs><clipPath id="SVGID_40_"><use xlink:href="#SVGID_39_" style="overflow:visible"/></clipPath><path d="M62.6 219.2c-3 0-5.4-2.4-5.4-5.4V208c0-.5.4-.8.8-.8h12.3c.5 0 .8.4.8.8v5.8c0 3-2.4 5.4-5.4 5.4h-3.1zm7.6-12.3H58c-.6 0-1.1.5-1.1 1.1v5.8c0 3.2 2.6 5.7 5.7 5.7h3.1c3.2 0 5.7-2.6 5.7-5.7V208c0-.6-.5-1.1-1.2-1.1" class="st30"/><path d="M62.6 219.2c-3 0-5.4-2.4-5.4-5.4V208c0-.5.4-.8.8-.8h12.3c.5 0 .8.4.8.8v5.8c0 3-2.4 5.4-5.4 5.4h-3.1zm7.6-12.3H58c-.6 0-1.1.5-1.1 1.1v5.8c0 3.2 2.6 5.7 5.7 5.7h3.1c3.2 0 5.7-2.6 5.7-5.7V208c0-.6-.5-1.1-1.2-1.1z" class="st31"/><path d="M62.6 217.8c-2.2 0-4.1-1.8-4.1-4.1v-3.4c0-.4.3-.7.7-.7H69c.4 0 .7.3.7.7v3.4c0 2.2-1.8 4.1-4.1 4.1h-3zm6.4-8.4h-9.8c-.6 0-1 .5-1 1v3.4c0 2.4 2 4.4 4.4 4.4h3.1c2.4 0 4.4-2 4.4-4.4v-3.4c-.1-.5-.5-1-1.1-1" class="st30"/><path d="M62.6 217.8c-2.2 0-4.1-1.8-4.1-4.1v-3.4c0-.4.3-.7.7-.7H69c.4 0 .7.3.7.7v3.4c0 2.2-1.8 4.1-4.1 4.1h-3zm6.4-8.4h-9.8c-.6 0-1 .5-1 1v3.4c0 2.4 2 4.4 4.4 4.4h3.1c2.4 0 4.4-2 4.4-4.4v-3.4c-.1-.5-.5-1-1.1-1z" class="st31"/><path d="M64.1 215c-.4 0-.7-.3-.7-.7 0-.4.3-.7.7-.7s.7.3.7.7c0 .4-.3.7-.7.7m0-1.7c-.5 0-1 .4-1 1 0 .5.4 1 1 1s1-.4 1-1c0-.5-.4-1-1-1" class="st30"/><path d="M64.1 215c-.4 0-.7-.3-.7-.7 0-.4.3-.7.7-.7s.7.3.7.7c0 .4-.3.7-.7.7zm0-1.7c-.5 0-1 .4-1 1 0 .5.4 1 1 1s1-.4 1-1c0-.5-.4-1-1-1z" class="st31"/><path d="M258.9 44h-2v-5.8h-.7c-.4 0-.6.2-.6.5-.1 1.5-.3 2.8-.6 3.7-.5 1.5-1.4 1.9-2.7 1.7l-.1-1.5c.5-.1.8-.2 1-.7.2-.7.4-1.7.5-3.3.1-1.1.7-1.7 1.8-1.7h3.3V44zm6.6-2.6c0 2-.7 2.7-2.8 2.7-2 0-2.8-.7-2.8-2.7s.7-2.7 2.8-2.7c2.1 0 2.8.7 2.8 2.7zm-3.6 0c0 1.1.2 1.4.8 1.4.6 0 .8-.3.8-1.4 0-1.1-.2-1.4-.8-1.4-.6 0-.8.3-.8 1.4zm10.5 4h-1.2L271 44h-3.7l-.1 1.4H266v-2.7h.6c.3-.9.5-1.7.6-2.6.1-.8.6-1.3 1.5-1.3h2.8v3.9h.9v2.7zm-2.7-5.4h-.5c-.3 0-.4.1-.5.4-.1 1-.3 1.7-.6 2.3h1.5V40zm9.5 1.3c1.2.2 1.3.3 2 2.7h-1.9c-.6-2-.7-2.1-1.2-2.1h-.4c0 .2.1.3.1.4V44h-1.7v-1.6c0-.1 0-.3.1-.4h-.4c-.4 0-.5.1-1.1 2.1h-1.9c.7-2.4.8-2.5 2-2.7v-.1c-1.2-.2-1.2-.3-1.8-2.4h1.9c.6 1.7.6 1.9 1.1 1.9h.3c0-.2-.1-.4-.1-.6V39h1.6v1.2c0 .2 0 .4-.1.6h.3c.5 0 .6-.2 1.1-1.9h1.9c-.7 2.1-.6 2.2-1.8 2.4zm6.3 2.7v-2.3c0-.3 0-.6.1-.9-.1.3-.3.6-.4.9l-1.6 2.4H282v-5.2h1.7v2.4c0 .3 0 .5-.1.8.1-.3.2-.5.4-.8l1.6-2.5h1.6V44h-1.7zm3.8-2.2c-.9-.2-1.1-.8-1.1-1.4 0-1.3.5-1.7 2.4-1.7 1.4 0 2 0 2.6.1V44h-1.8v-1.7h-.7c-.3 0-.4.1-.5.3l-.3 1.4H288l.4-1.6c.1-.5.6-.6.9-.6zm2.1-1.8h-.7c-.5 0-.6.1-.6.5 0 .5.1.6.6.6h.7V40zm-24.5 10.9c-.8-.1-1.1-.9-1.1-1.6 0-1.3.5-1.9 2.6-1.9 2.2 0 2.6.6 2.6 1.9 0 .8-.3 1.6-1.1 1.6 1 .1 1.3 1 1.3 1.9 0 1.4-.5 1.9-2.8 1.9-2.2 0-2.8-.5-2.8-1.9.1-.9.3-1.8 1.3-1.9zm.6 1.6c0 .7.2.9 1 .9s1-.2 1-.9c0-.8-.2-.9-1-.9-.8-.1-1 .1-1 .9zm.1-3c0 .6.2.8.9.8s.9-.2.9-.8c0-.7-.2-.9-.9-.9s-.9.2-.9.9zm5.7 3.4c.5 0 .7.2.7.7v.4c0 .5-.2.7-.7.7h-.4c-.5 0-.7-.2-.7-.7v-.5c0-.5.2-.7.7-.7h.4zm2.8-2c-.8-.1-1.1-.9-1.1-1.6 0-1.3.5-1.9 2.6-1.9 2.2 0 2.6.6 2.6 1.9 0 .8-.3 1.6-1.1 1.6 1 .1 1.3 1 1.3 1.9 0 1.4-.5 1.9-2.8 1.9-2.2 0-2.8-.5-2.8-1.9 0-.9.3-1.8 1.3-1.9zm.6 1.6c0 .7.2.9 1 .9s1-.2 1-.9c0-.8-.2-.9-1-.9-.8-.1-1 .1-1 .9zm.1-3c0 .6.2.8.9.8s.9-.2.9-.8c0-.7-.2-.9-.9-.9-.8 0-.9.2-.9.9zM43.1 330.7c1.5.2 1.6.8 2.4 3.7h-2c-.8-2.6-.9-3.1-1.6-3.1h-.3c.1.2.1.5.1.7v2.4h-1.9V332c0-.2 0-.4.1-.7h-.4c-.7 0-.8.5-1.6 3.1h-2c.8-2.9.9-3.5 2.4-3.7v-.1c-1.4-.2-1.4-.8-2.2-3.4h2c.6 2.2.8 2.8 1.5 2.8h.4c-.1-.3-.1-.6-.1-.9v-1.9h1.9v1.9c0 .3 0 .6-.1.9h.3c.7 0 .8-.6 1.5-2.8h2c-1 2.6-1 3.3-2.4 3.5zm6.7 3.8v-2.3c0-.3 0-.6.1-.9-.1.3-.3.6-.4.9l-1.6 2.4h-1.6v-5.2H48v2.4c0 .3 0 .5-.1.8.1-.3.2-.5.4-.8l1.6-2.5h1.6v5.2h-1.7zm8 0h-1.9v-3.9h-.4c-.3 0-.5.1-.5.4-.1.8-.2 1.7-.3 2.2-.2 1.3-1.2 1.5-2.4 1.4l-.2-1.4c.5-.1.8-.1.9-.5.1-.4.2-1.1.3-2 .1-.9.5-1.3 1.4-1.3h3.1v5.1zm1.2-5.1c.8-.1 2.1-.3 2.8-.3 1.4 0 2.2.5 2.2 2v3.3h-1.5l-.2-.8c-.4.4-.9.9-1.8.9-1 0-1.7-.5-1.7-1.5v-.5c0-.8.6-1.3 1.7-1.3h1.7v-.1c0-.4-.2-.6-.7-.6-.5 0-1.4 0-2.2.1l-.3-1.2zm1.5 3.4c0 .3.2.4.5.4s.7-.1 1-.4v-.6h-1c-.3 0-.4.2-.4.4v.2zm5.6-.6c-.9-.2-1.1-.8-1.1-1.4 0-1.3.5-1.7 2.4-1.7 1.4 0 2 0 2.6.1v5.2h-1.8v-1.7h-.7c-.3 0-.4.1-.5.3l-.3 1.4h-1.9l.4-1.6c0-.4.5-.5.9-.6zm2-1.7h-.7c-.5 0-.6.1-.6.5 0 .5.1.6.6.6h.7v-1.1zm8.5 1.3c1.2.2 1.2.2 2 2.7h-2c-.5-1.9-.6-2-1.1-2h-.4c0 .1.1.3.1.4v1.6h-1.9v-5.2h1.9v1.2c0 .2 0 .4-.1.7h.2c.7 0 .8-.1 1.2-1.9h1.9c-.6 2.2-.6 2.3-1.8 2.5zm8 .1c0 2-.7 2.7-2.8 2.7-2 0-2.8-.7-2.8-2.7s.7-2.7 2.8-2.7c2.1-.1 2.8.7 2.8 2.7zm-3.6 0c0 1.1.2 1.4.8 1.4.6 0 .8-.3.8-1.4 0-1.1-.2-1.4-.8-1.4-.6 0-.8.2-.8 1.4zm11.1-2.6c.4 0 .6.2.6.6l.1 4.5h-1.7l-.1-3.8h-.1l-.6 2.5c-.1.4-.3.6-.7.6h-.8c-.4 0-.6-.2-.7-.6l-.6-2.5h-.1l-.1 3.8h-1.7l.1-4.5c0-.4.2-.6.7-.6H88c.4 0 .6.2.7.6l.5 1.9c.1.3.1.5.1.8h.1c0-.3.1-.5.1-.8l.4-1.9c.1-.4.3-.6.7-.6h1.5zm7.1 5.2h-1.9v-2.1h-1.6v2.1h-1.9v-5.2h1.9v1.8h1.6v-1.8h1.9v5.2zm1.1-5.1c.8-.1 2.1-.3 2.8-.3 1.4 0 2.2.5 2.2 2v3.3h-1.5l-.2-.8c-.4.4-.9.9-1.8.9-1 0-1.7-.5-1.7-1.5v-.5c0-.8.6-1.3 1.7-1.3h1.7v-.1c0-.4-.2-.6-.7-.6-.5 0-1.4 0-2.2.1l-.3-1.2zm1.6 3.4c0 .3.2.4.5.4s.7-.1 1-.4v-.6h-1.1c-.3 0-.4.2-.4.4v.2zm7.6-2.1v3.7h-1.9v-3.7H106v-1.4h5.2v1.4h-1.7zm2.3-1.3c.8-.1 2.1-.3 2.8-.3 1.4 0 2.2.5 2.2 2v3.3h-1.5l-.2-.8c-.4.4-.9.9-1.8.9-1 0-1.7-.5-1.7-1.5v-.5c0-.8.6-1.3 1.7-1.3h1.7v-.1c0-.4-.2-.6-.7-.6-.5 0-1.4 0-2.2.1l-.3-1.2zm1.6 3.4c0 .3.2.4.5.4s.7-.1 1-.4v-.6h-1.1c-.3 0-.4.2-.4.4v.2zm46.8-101.2c1.5.2 1.6.8 2.5 3.7h-2c-.7-2.6-.8-3.1-1.8-3.1h-.4c.1.2.1.5.1.7v2.4h-1.9v-7.2h1.9v1.9c0 .3 0 .6-.1.9h.3c1 0 1.1-.6 1.7-2.8h2c-.9 2.6-.9 3.2-2.3 3.5zm8.4 1.1c0 2-.7 2.7-2.8 2.7-2 0-2.8-.7-2.8-2.7s.7-2.7 2.8-2.7c2 0 2.8.7 2.8 2.7zm-3.6 0c0 1.1.2 1.4.8 1.4.6 0 .8-.3.8-1.4 0-1.1-.2-1.4-.8-1.4-.7 0-.8.3-.8 1.4zm6.1-1.9c.4-.5 1.2-.9 2-.9 1.3 0 1.8 1 1.8 2.8 0 2.1-.7 2.7-2 2.7-.6 0-1.2-.1-1.7-.5v2.2h-1.9V230h1.5l.3.8zm.3 3.2c.3.1.5.2.9.2.5 0 .7-.2.7-1.4s-.2-1.4-.7-1.4c-.4 0-.6.1-1 .3v2.3zm8.1 1.3V233c0-.3 0-.6.1-.9-.1.3-.3.6-.4.9l-1.6 2.4H176v-5.2h1.7v2.4c0 .3 0 .5-.1.8.1-.3.2-.5.4-.8l1.6-2.5h1.6v5.2h-1.7zm8.9 1.4h-1.2l-.1-1.4h-3.7l-.1 1.4h-1.2V234h.6c.3-.9.5-1.7.6-2.6.1-.8.6-1.3 1.5-1.3h2.8v3.9h.9v2.7zm-2.7-5.4h-.5c-.3 0-.4.1-.5.4-.1 1-.3 1.7-.6 2.3h1.5v-2.7zm8.8 1.4c0 2-.7 2.7-2.8 2.7-2 0-2.8-.7-2.8-2.7s.7-2.7 2.8-2.7c2 0 2.8.7 2.8 2.7zm-3.6 0c0 1.1.2 1.4.8 1.4.6 0 .8-.3.8-1.4 0-1.1-.2-1.4-.8-1.4-.7 0-.8.3-.8 1.4zm6.1-1.9c.4-.5 1.2-.9 2-.9 1.3 0 1.8 1 1.8 2.8 0 2.1-.7 2.7-2 2.7-.6 0-1.2-.1-1.7-.5v2.2h-1.9V230h1.5l.3.8zm.3 3.2c.3.1.5.2.9.2.5 0 .7-.2.7-1.4s-.2-1.4-.7-1.4c-.4 0-.6.1-1 .3v2.3zm55.4-10.1h-2v-5.8h-2.1v5.8h-1.9v-7.2h6v7.2zm2.9-4.4c.4-.5 1.2-.9 2-.9 1.3 0 1.8 1 1.8 2.8 0 2.1-.7 2.7-2 2.7-.6 0-1.2-.1-1.7-.5v2.2H254v-7.1h1.5l.1.8zm.2 3.1c.3.1.5.2.9.2.5 0 .7-.2.7-1.4s-.2-1.4-.7-1.4c-.4 0-.6.1-1 .3v2.3zm8.2 1.4v-2.3c0-.3 0-.6.1-.9-.1.3-.3.6-.4.9l-1.6 2.4h-1.6v-5.2h1.7v2.4c0 .3 0 .5-.1.8.1-.3.2-.5.4-.8l1.6-2.5h1.6v5.2H264zm5.3-2.1-1.1 2.1h-1.9l1.5-2.6-1.4-2.5h1.9l1 1.9 1-1.9h1.9l-1.4 2.5 1.5 2.6h-1.9l-1.1-2.1zm8.8-.5c0 2-.7 2.7-2.8 2.7-2 0-2.8-.7-2.8-2.7s.7-2.7 2.8-2.7c2.1-.1 2.8.7 2.8 2.7zm-3.6 0c0 1.1.2 1.4.8 1.4.6 0 .8-.3.8-1.4 0-1.1-.2-1.4-.8-1.4-.6 0-.8.2-.8 1.4zm10.5-.1c1.2.2 1.3.3 2 2.7h-1.9c-.6-2-.7-2.1-1.2-2.1h-.4c0 .2.1.3.1.4v1.6h-1.7v-1.6c0-.1 0-.3.1-.4h-.4c-.4 0-.5.1-1.1 2.1h-1.9c.7-2.4.8-2.5 2-2.7v-.1c-1.2-.2-1.2-.3-1.8-2.4h1.9c.6 1.7.6 1.9 1.1 1.9h.3c0-.2-.1-.4-.1-.6v-1.2h1.6v1.2c0 .2 0 .4-.1.6h.3c.5 0 .6-.2 1.1-1.9h1.9c-.6 2.1-.6 2.3-1.8 2.5zm2.7-2.4c.8-.1 2.1-.3 2.8-.3 1.4 0 2.2.5 2.2 2v3.3h-1.5l-.2-.8c-.4.4-.9.9-1.8.9-1 0-1.7-.5-1.7-1.5v-.5c0-.8.6-1.3 1.7-1.3h1.7v-.1c0-.4-.2-.6-.7-.6-.5 0-1.4 0-2.2.1l-.3-1.2zm1.6 3.4c0 .3.2.4.5.4s.7-.1 1-.4v-.6h-1.1c-.3 0-.4.2-.4.4v.2zm5.5-.6c-.9-.2-1.1-.8-1.1-1.4 0-1.3.5-1.7 2.4-1.7 1.4 0 2 0 2.6.1v5.2h-1.8v-1.7h-.7c-.3 0-.4.1-.5.3l-.3 1.4h-1.9l.4-1.6c.1-.4.6-.5.9-.6zm2-1.7h-.7c-.5 0-.6.1-.6.5 0 .5.1.6.6.6h.7V220zM43.1 124.2c1.5.2 1.6.8 2.4 3.7h-2c-.8-2.6-.9-3.1-1.6-3.1h-.3c.1.2.1.5.1.7v2.4h-1.9v-2.4c0-.2 0-.4.1-.7h-.4c-.7 0-.8.5-1.6 3.1h-2c.8-2.9.9-3.5 2.4-3.7v-.1c-1.4-.2-1.4-.8-2.2-3.4h2c.6 2.2.8 2.8 1.5 2.8h.4c-.1-.3-.1-.6-.1-.9v-1.9h1.9v1.9c0 .3 0 .6-.1.9h.3c.7 0 .8-.6 1.5-2.8h2c-1 2.6-1 3.2-2.4 3.5zm6.7 3.7v-2.3c0-.3 0-.6.1-.9-.1.3-.3.6-.4.9l-1.6 2.4h-1.6v-5.2H48v2.4c0 .3 0 .5-.1.8.1-.3.2-.5.4-.8l1.6-2.5h1.6v5.2h-1.7zm8 0H56V124h-.4c-.3 0-.5.1-.5.4-.1.8-.2 1.7-.3 2.2-.2 1.3-1.2 1.5-2.4 1.4l-.2-1.4c.5-.1.8-.1.9-.5.1-.4.2-1.1.3-2 .1-.9.5-1.3 1.4-1.3h3.1v5.1zm1.2-5.1c.8-.1 2.1-.3 2.8-.3 1.4 0 2.2.5 2.2 2v3.3h-1.5l-.2-.8c-.4.4-.9.9-1.8.9-1 0-1.7-.5-1.7-1.5v-.4c0-.8.6-1.3 1.7-1.3h1.7v-.1c0-.4-.2-.6-.7-.6-.5 0-1.4 0-2.2.1l-.3-1.3zm1.6 3.5c0 .3.2.4.5.4s.7-.1 1-.4v-.6H61c-.3 0-.4.2-.4.4v.2zm5.5-.7c-.9-.2-1.1-.8-1.1-1.4 0-1.3.5-1.7 2.4-1.7 1.4 0 2 0 2.6.1v5.2h-1.8v-1.7h-.7c-.3 0-.4.1-.5.3l-.3 1.4h-1.9l.4-1.6c0-.4.5-.5.9-.6zm2-1.7h-.7c-.5 0-.6.1-.6.5 0 .5.1.6.6.6h.7v-1.1zm8.5 1.3c1.2.2 1.2.2 2 2.7h-2c-.5-1.9-.6-2-1.1-2h-.4c0 .1.1.3.1.4v1.6h-1.9v-5.2h1.9v1.2c0 .2 0 .4-.1.7h.2c.7 0 .8-.1 1.2-1.9h1.9c-.6 2.2-.6 2.3-1.8 2.5zm8 .1c0 2-.7 2.7-2.8 2.7-2 0-2.8-.7-2.8-2.7s.7-2.7 2.8-2.7c2.1 0 2.8.7 2.8 2.7zm-3.6 0c0 1.1.2 1.4.8 1.4.6 0 .8-.3.8-1.4 0-1.1-.2-1.4-.8-1.4-.6 0-.8.3-.8 1.4zm11.1-2.6c.4 0 .6.2.6.6l.1 4.5h-1.7L91 124h-.1l-.6 2.5c-.1.4-.3.6-.7.6h-.8c-.4 0-.6-.2-.7-.6l-.6-2.5h-.1l-.1 3.8h-1.7l.1-4.5c0-.4.2-.6.7-.6H88c.4 0 .6.2.7.6l.5 1.9c.1.3.1.5.1.8h.1c0-.3.1-.5.1-.8l.4-1.9c.1-.4.3-.6.7-.6h1.5zm7.1 5.2h-1.9v-2.1h-1.6v2.1h-1.9v-5.2h1.9v1.8h1.6v-1.8h1.9v5.2zm1.1-5.1c.8-.1 2.1-.3 2.8-.3 1.4 0 2.2.5 2.2 2v3.3h-1.5l-.2-.8c-.4.4-.9.9-1.8.9-1 0-1.7-.5-1.7-1.5v-.4c0-.8.6-1.3 1.7-1.3h1.7v-.1c0-.4-.2-.6-.7-.6-.5 0-1.4 0-2.2.1l-.3-1.3zm1.6 3.5c0 .3.2.4.5.4s.7-.1 1-.4v-.6h-1.1c-.3 0-.4.2-.4.4v.2zm7.6-2.2v3.7h-1.9v-3.7H106v-1.4h5.2v1.4h-1.7zm2.3-1.3c.8-.1 2.1-.3 2.8-.3 1.4 0 2.2.5 2.2 2v3.3h-1.5l-.2-.8c-.4.4-.9.9-1.8.9-1 0-1.7-.5-1.7-1.5v-.4c0-.8.6-1.3 1.7-1.3h1.7v-.1c0-.4-.2-.6-.7-.6-.5 0-1.4 0-2.2.1l-.3-1.3zm1.6 3.5c0 .3.2.4.5.4s.7-.1 1-.4v-.6h-1.1c-.3 0-.4.2-.4.4v.2zm150.7-2.1c1.5.2 1.6.8 2.5 3.7h-2c-.7-2.6-.8-3.1-1.8-3.1h-.4c.1.2.1.5.1.7v2.4h-1.9v-7.2h1.9v1.9c0 .3 0 .6-.1.9h.3c1 0 1.1-.6 1.7-2.8h2c-.8 2.6-.9 3.2-2.3 3.5zm6.8 3.6c-.4 1.2-1 1.7-1.8 2-.6.3-1.4.2-2.1.1l.2-1.2c.7 0 1.1 0 1.4-.2.2-.1.4-.4.5-.6h-.3c-.3 0-.5-.2-.6-.4l-1.6-4.7h2l.8 3.1c.1.3.1.6.1.9h.1c.1-.3.2-.6.2-.9l.8-3.1h2l-1.7 5zm4.8-2-1.1 2.1h-1.9l1.5-2.6-1.4-2.5h1.9l1 1.9 1-1.9h1.9l-1.4 2.5 1.5 2.6h-1.9l-1.1-2.1zm8.9 2.1h-1.9v-2.1h-1.6v2.1h-1.9v-5.2h1.9v1.8h1.6v-1.8h1.9v5.2zm2.2-2.3c-.9-.2-1.1-.8-1.1-1.4 0-1.3.5-1.7 2.4-1.7 1.4 0 2 0 2.6.1v5.2h-1.8v-1.7h-.7c-.3 0-.4.1-.5.3l-.3 1.4h-1.9l.4-1.6c0-.4.5-.5.9-.6zm2-1.7h-.8c-.5 0-.6.1-.6.5 0 .5.1.6.6.6h.7v-1.1zM143.7 163c1.5.2 1.6.8 2.4 3.7h-2c-.8-2.6-.9-3.1-1.6-3.1h-.3c.1.2.1.5.1.7v2.4h-1.9v-2.4c0-.2 0-.4.1-.7h-.4c-.7 0-.8.5-1.6 3.1h-2c.8-2.9.9-3.5 2.4-3.7v-.1c-1.4-.2-1.4-.8-2.2-3.4h2c.6 2.2.8 2.8 1.5 2.8h.4c-.1-.3-.1-.6-.1-.9v-1.9h1.9v1.9c0 .3 0 .6-.1.9h.3c.7 0 .8-.6 1.5-2.8h2c-.9 2.6-1 3.3-2.4 3.5zm6.8 3.7v-2.3c0-.3 0-.6.1-.9-.1.3-.3.6-.4.9l-1.6 2.4H147v-5.2h1.7v2.4c0 .3 0 .5-.1.8.1-.3.2-.5.4-.8l1.6-2.5h1.6v5.2h-1.7zm8 0h-1.9v-3.9h-.4c-.3 0-.5.1-.5.4-.1.8-.2 1.7-.3 2.2-.2 1.3-1.2 1.5-2.4 1.4l-.2-1.4c.5-.1.8-.1.9-.5.1-.4.2-1.1.3-2 .1-.9.5-1.3 1.4-1.3h3.1v5.1zm1.1-5c.8-.1 2.1-.3 2.8-.3 1.4 0 2.2.5 2.2 2v3.3h-1.5l-.2-.8c-.4.4-.9.9-1.8.9-1 0-1.7-.5-1.7-1.5v-.5c0-.8.6-1.3 1.7-1.3h1.7v-.1c0-.4-.2-.6-.7-.6-.5 0-1.4 0-2.2.1l-.3-1.2zm1.6 3.4c0 .3.2.4.5.4s.7-.1 1-.4v-.6h-1.1c-.3 0-.4.2-.4.4v.2zm5.5-.6c-.9-.2-1.1-.8-1.1-1.4 0-1.3.5-1.7 2.4-1.7 1.4 0 2 0 2.6.1v5.2h-1.8V165h-.8c-.3 0-.4.1-.5.3l-.3 1.4h-1.9l.4-1.6c.2-.5.7-.5 1-.6zm2-1.7h-.7c-.5 0-.6.1-.6.5 0 .5.1.6.6.6h.7v-1.1zm8.6 1.3c1.2.2 1.2.2 2 2.7h-2c-.5-1.9-.6-2-1.1-2h-.4c0 .1.1.3.1.4v1.6H174v-5.2h1.9v1.2c0 .2 0 .4-.1.7h.2c.7 0 .8-.1 1.2-1.9h1.9c-.7 2.1-.6 2.2-1.8 2.5zm8 0c0 2-.7 2.7-2.8 2.7-2 0-2.8-.7-2.8-2.7s.7-2.7 2.8-2.7c2 0 2.8.7 2.8 2.7zm-3.6 0c0 1.1.2 1.4.8 1.4.6 0 .8-.3.8-1.4 0-1.1-.2-1.4-.8-1.4-.7 0-.8.3-.8 1.4zm11-2.6c.4 0 .6.2.6.6l.1 4.5h-1.7l-.1-3.8h-.1l-.6 2.5c-.1.4-.3.6-.7.6h-.8c-.4 0-.6-.2-.7-.6l-.6-2.5h-.1l-.1 3.8h-1.7l.1-4.5c0-.4.2-.6.7-.6h1.6c.4 0 .6.2.7.6l.5 1.9c.1.3.1.5.1.8h.1c0-.3.1-.5.1-.8l.4-1.9c.1-.4.3-.6.7-.6h1.5zm7.1 5.2H198v-2.1h-1.6v2.1h-1.9v-5.2h1.9v1.8h1.6v-1.8h1.9v5.2zm1.2-5c.8-.1 2.1-.3 2.8-.3 1.4 0 2.2.5 2.2 2v3.3h-1.5l-.2-.8c-.4.4-.9.9-1.8.9-1 0-1.7-.5-1.7-1.5v-.5c0-.8.6-1.3 1.7-1.3h1.7v-.1c0-.4-.2-.6-.7-.6-.5 0-1.4 0-2.2.1l-.3-1.2zm1.5 3.4c0 .3.2.4.5.4s.7-.1 1-.4v-.6h-1c-.3 0-.4.2-.4.4v.2zm7.7-2.1v3.7h-1.9V163h-1.6v-1.4h5.2v1.4h-1.7zm2.3-1.3c.8-.1 2.1-.3 2.8-.3 1.4 0 2.2.5 2.2 2v3.3H216l-.2-.8c-.4.4-.9.9-1.8.9-1 0-1.7-.5-1.7-1.5v-.5c0-.8.6-1.3 1.7-1.3h1.7v-.1c0-.4-.2-.6-.7-.6-.5 0-1.4 0-2.2.1l-.3-1.2zm1.6 3.4c0 .3.2.4.5.4s.7-.1 1-.4v-.6h-1.1c-.3 0-.4.2-.4.4v.2zM68.3 346.4v-4.8c0-.3 0-.6.1-.9l-1.7.4-.2-1.2 1.8-.7h1.9v7.2h-1.9zm4.5-3.7c-.8-.1-1.1-.9-1.1-1.6 0-1.3.5-1.9 2.6-1.9 2.2 0 2.6.6 2.6 1.9 0 .8-.3 1.6-1.1 1.6 1 .1 1.3 1 1.3 1.9 0 1.4-.5 1.9-2.8 1.9-2.2 0-2.8-.5-2.8-1.9 0-.9.3-1.8 1.3-1.9zm.5 1.6c0 .7.2.9 1 .9s1-.2 1-.9c0-.8-.2-.9-1-.9-.8-.1-1 .1-1 .9zm.1-3c0 .6.2.8.9.8s.9-.2.9-.8c0-.7-.2-.9-.9-.9s-.9.2-.9.9zm5.7 3.4c.5 0 .7.2.7.7v.5c0 .5-.2.7-.7.7h-.4c-.5 0-.7-.2-.7-.7v-.5c0-.5.2-.7.7-.7h.4zm2.9-2c-.8-.1-1.1-.9-1.1-1.6 0-1.3.5-1.9 2.6-1.9 2.2 0 2.6.6 2.6 1.9 0 .8-.3 1.6-1.1 1.6 1 .1 1.3 1 1.3 1.9 0 1.4-.5 1.9-2.8 1.9-2.2 0-2.8-.5-2.8-1.9 0-.9.2-1.8 1.3-1.9zm.5 1.6c0 .7.2.9 1 .9s1-.2 1-.9c0-.8-.2-.9-1-.9-.8-.1-1 .1-1 .9zm.1-3c0 .6.2.8.9.8s.9-.2.9-.8c0-.7-.2-.9-.9-.9s-.9.2-.9.9zm87.5-97.8c-.8-.1-1.1-.9-1.1-1.6 0-1.3.5-1.9 2.6-1.9 2.2 0 2.6.6 2.6 1.9 0 .8-.3 1.6-1.1 1.6 1 .1 1.3 1 1.3 1.9 0 1.4-.5 1.9-2.8 1.9-2.2 0-2.8-.5-2.8-1.9.1-.9.3-1.7 1.3-1.9zm.6 1.6c0 .7.2.9 1 .9s1-.2 1-.9c0-.8-.2-.9-1-.9s-1 .2-1 .9zm.1-3c0 .6.2.8.9.8s.9-.2.9-.8c0-.7-.2-.9-.9-.9-.7.1-.9.2-.9.9zm5.7 3.4c.5 0 .7.2.7.7v.5c0 .5-.2.7-.7.7h-.4c-.5 0-.7-.2-.7-.7v-.5c0-.5.2-.7.7-.7h.4zm1.6-5.4c.8-.1 1.6-.2 2.4-.2 1.8 0 2.4.4 2.4 1.7 0 1-.2 1.7-1.1 1.8 1 .2 1.3.7 1.3 1.8 0 1.5-.7 2.1-2.6 2.1-.9 0-1.8-.1-2.6-.2l.1-1.4c.9.1 1.4.1 2 .1.9 0 1.2-.1 1.2-.9 0-.6-.2-.9-.9-.8h-1.4v-1.2h1.4c.8 0 .9-.3.8-.8 0-.6-.2-.7-.9-.7h-2l-.1-1.3zm92.4-11.4c.6 0 .9.4.7 1l-2.2 6.2h-1.9l1.7-4.8c.1-.3.2-.5.4-.8h-3.1l-.1-1.6h4.5zm2 5.5c.5 0 .7.2.7.7v.5c0 .5-.2.7-.7.7h-.5c-.5 0-.7-.2-.7-.7v-.5c0-.5.2-.7.7-.7h.5zm1.6-5.4c.8-.1 1.6-.2 2.4-.2 1.8 0 2.4.4 2.4 1.7 0 1-.2 1.7-1.1 1.8 1 .2 1.3.7 1.3 1.8 0 1.5-.7 2.1-2.6 2.1-.9 0-1.8-.1-2.6-.2l.1-1.4c.9.1 1.4.1 2 .1.9 0 1.2-.1 1.2-.9 0-.6-.2-.9-.9-.8h-1.4v-1.2h1.4c.8 0 .9-.3.8-.8 0-.6-.2-.7-.9-.7h-2l-.1-1.3zM68.3 139.9v-4.8c0-.3 0-.6.1-.9l-1.7.4-.2-1.2 1.8-.7h1.9v7.2h-1.9zm4.6 0v-4.8c0-.3 0-.6.1-.9l-1.7.4-.2-1.2 1.8-.7h1.9v7.2h-1.9zm4.4-1.8c.5 0 .7.2.7.7v.5c0 .5-.2.7-.7.7h-.4c-.5 0-.7-.2-.7-.7v-.5c0-.5.2-.7.7-.7h.4zm1.8.5H81c.9 0 1.2-.4 1.2-1.6-.4.3-.8.4-1.5.4-1.6 0-2.1-.9-2.1-2.2 0-1.8.6-2.6 2.7-2.6 2.3 0 2.7.7 2.7 3.6 0 3.2-.8 3.8-3.1 3.8-.4 0-1.2 0-2-.2l.2-1.2zm2.3-2.5c.3 0 .6-.1.9-.3 0-1.6-.1-1.9-.9-1.9-.7 0-.8.3-.8 1.2-.1.8.1 1 .8 1zm186.1 3.8v-4.8c0-.3 0-.6.1-.9l-1.7.4-.2-1.2 1.8-.7h1.9v7.2h-1.9zm3.2-7.2c.8-.1 1.6-.2 2.4-.2 1.8 0 2.4.4 2.4 1.7 0 1-.2 1.7-1.1 1.8 1 .2 1.3.7 1.3 1.8 0 1.5-.7 2.1-2.6 2.1-.9 0-1.8-.1-2.6-.2l.1-1.4c.9.1 1.4.1 2 .1.9 0 1.2-.1 1.2-.9 0-.6-.2-.9-.9-.8h-1.4v-1.2h1.4c.8 0 .9-.3.8-.8 0-.6-.2-.7-.9-.7h-2l-.1-1.3zm7 5.4c.5 0 .7.2.7.7v.5c0 .5-.2.7-.7.7h-.4c-.5 0-.7-.2-.7-.7v-.5c0-.5.2-.7.7-.7h.4zm2.9-2c-.8-.1-1.1-.9-1.1-1.6 0-1.3.5-1.9 2.6-1.9 2.2 0 2.6.6 2.6 1.9 0 .8-.3 1.6-1.1 1.6 1 .1 1.3 1 1.3 1.9 0 1.4-.5 1.9-2.8 1.9-2.2 0-2.8-.5-2.8-1.9 0-.9.2-1.7 1.3-1.9zm.5 1.6c0 .7.2.9 1 .9s1-.2 1-.9c0-.8-.2-.9-1-.9s-1 .2-1 .9zm.1-3c0 .6.2.8.9.8s.9-.2.9-.8c0-.7-.2-.9-.9-.9-.7.1-.9.2-.9.9zm-111.6 44v-4.8c0-.3 0-.6.1-.9l-1.7.4-.2-1.2 1.8-.7h1.9v7.2h-1.9zm8.2-5.9H176c-.9 0-1.2.2-1.2 1.6.4-.3.8-.4 1.5-.4 1.6 0 2.1.6 2.1 2.2 0 1.8-.5 2.6-2.7 2.6-2.1 0-2.8-.7-2.8-3.6 0-3.3 1.1-3.8 3.1-3.8.4 0 1.1 0 1.9.2l-.1 1.2zm-1.3 3.4c0-.8-.2-.9-.8-.9-.3 0-.6.1-.9.3 0 1.6.1 1.9.9 1.9.7-.1.8-.4.8-1.3zm3.7.7c.5 0 .7.2.7.7v.5c0 .5-.2.7-.7.7h-.4c-.5 0-.7-.2-.7-.7v-.5c0-.5.2-.7.7-.7h.4zm5.5-5.4c.6 0 .9.4.7 1l-2.2 6.2h-1.9l1.7-4.8c.1-.3.2-.5.4-.8h-3.1l-.1-1.6h4.5zm-29.2-28c-1.8-.2-2.5-2-2.5-3.8 0-3.1 1.1-4.4 6-4.4 5 0 6 1.3 6 4.4 0 1.8-.7 3.6-2.5 3.8v.1c2.4.2 2.9 2.2 2.9 4.4 0 3.2-1.2 4.4-6.4 4.4-5.1 0-6.4-1.2-6.4-4.4-.1-2.2.5-4.2 2.9-4.5zm1.2 3.6c0 1.6.4 2 2.3 2 1.8 0 2.2-.4 2.2-2 0-1.7-.4-2.1-2.2-2.1-1.9 0-2.3.4-2.3 2.1zm.3-6.8c0 1.5.4 1.8 2.1 1.8 1.7 0 2-.4 2-1.8 0-1.6-.4-2-2-2-1.8.1-2.1.4-2.1 2zm21.7-1.7h-4c-2.1 0-2.7.5-2.8 3.6.9-.7 1.9-1 3.4-1 3.7 0 4.8 1.5 4.8 5.1 0 4.1-1.1 6-6.1 6-4.9 0-6.4-1.7-6.4-8.3 0-7.5 2.4-8.7 7.2-8.7.9 0 2.5 0 4.2.5l-.3 2.8zm-2.9 7.8c0-1.8-.4-2.2-1.9-2.2-.8 0-1.3.2-2.1.6 0 3.6.2 4.2 2.1 4.2 1.8.1 1.9-.6 1.9-2.6zm8.4 1.6c1.1 0 1.5.4 1.5 1.5v1c0 1.1-.4 1.5-1.5 1.5h-1c-1.1 0-1.5-.4-1.5-1.5v-1c0-1.1.4-1.5 1.5-1.5h1zm3.6-12.1c2.4-.5 4.1-.5 5.9-.5 3.5 0 5.8.8 5.8 4 0 1.8-.4 2.9-2.6 5.1l-4 4c.8-.2 1.5-.2 2.3-.2h4.7v3.9h-12.2v-2.3c0-.7.1-1.3.6-1.8l3.7-3.8c1.9-1.9 2.9-3.4 2.9-4.3 0-.7-.5-.8-1.8-.8-1.7 0-2.9 0-5.1.1l-.2-3.4z" class="st1"/><defs><path id="SVGID_41_" d="M15.7 16.4h313.2V426H15.7z"/></defs><clipPath id="SVGID_42_"><use xlink:href="#SVGID_41_" style="overflow:visible"/></clipPath><circle cx="177.1" cy="117.2" r="14.6" style="clip-path:url(#SVGID_42_);fill:none;stroke:#39373a"/><path d="M166.7 111.1c1.4-.2 2.8-.3 4.2-.3 3 0 4.2.7 4.2 2.9 0 1.8-.4 2.9-2 3.1v.1c1.7.3 2.3 1.2 2.3 3.1 0 2.6-1.2 3.7-4.5 3.7-1.5 0-3.1-.1-4.5-.3l.1-2.4c1.6.1 2.4.1 3.4.1 1.6 0 2.1-.2 2.1-1.5 0-1.1-.3-1.5-1.6-1.5H168V116h2.4c1.4 0 1.5-.5 1.5-1.4 0-1-.4-1.2-1.6-1.2h-3.5l-.1-2.3zm16.9 5.9c2.6.4 2.7 1.3 4.3 6.4h-3.5c-1.3-4.5-1.4-5.3-3.2-5.3h-.6c.1.4.1.8.1 1.2v4.2h-3.4V111h3.4v3.3c0 .5-.1 1-.1 1.5h.6c1.7 0 2-1.1 3-4.8h3.4c-1.4 4.5-1.4 5.6-3.9 5.9v.1zm-158 88.6h6v51.8h-6z" class="st1"/><path d="M25.6 205.6h6v51.8h-6z" class="st3"/><path d="M55.5 237.9h17.2v19H55.5zm115.188-24.292 13.492-8.027.46.773-13.492 8.028z" class="st10"/><defs><path id="SVGID_43_" d="M15.7 16.4h313.2V426H15.7z"/></defs><clipPath id="SVGID_44_"><use xlink:href="#SVGID_43_" style="overflow:visible"/></clipPath><path d="M184.8 206.4s1.1 1.5 1.6 5c0 .3.1.6.1.9" style="clip-path:url(#SVGID_44_);fill:none;stroke:#39373a;stroke-width:.4"/><path d="m188.66 201.89.46-.774 22.517 13.396-.46.774z" class="st10"/><defs><path id="SVGID_45_" d="M15.7 16.4h313.2V426H15.7z"/></defs><clipPath id="SVGID_46_"><use xlink:href="#SVGID_45_" style="overflow:visible"/></clipPath><path d="M188.6 202s-1.1 1.5-1.6 5-.4 5.4-.4 5.4" style="clip-path:url(#SVGID_46_);fill:none;stroke:#39373a;stroke-width:.4"/><path d="M63.9 224.3c.7.1.9.5.9 1.1 0 .9-.5 1.1-1.5 1.1h-2v-4.3h1.8c1.2 0 1.6.2 1.6 1.1 0 .6-.2.9-.8 1zm-.8-.4c.4 0 .5-.1.5-.5s-.1-.5-.5-.5h-.5v.9h.5zm0 1.8c.4 0 .5-.1.5-.5 0-.5-.1-.6-.6-.6h-.6v1.1h.7zm2.3-2.2c.5-.1 1.2-.2 1.7-.2.8 0 1.3.3 1.3 1.2v2h-.9l-.1-.5c-.2.3-.6.5-1.1.5-.6 0-1-.3-1-.9v-.3c0-.5.4-.8 1-.8h1v-.1c0-.3-.1-.4-.4-.4h-1.3l-.2-.5zm.9 2c0 .2.1.3.3.3.2 0 .4-.1.6-.2v-.4h-.6c-.2 0-.3.1-.3.2v.1zm5.9 1h-1.1v-1.3h-.9v1.3H69v-3.1h1.1v1.1h.9v-1.1h1.1v3.1zm3.8 0h-1.1v-1.3H74v1.3h-1.1v-3.1H74v1.1h.9v-1.1H76v3.1zm.7-3c.5-.1 1.2-.2 1.7-.2.8 0 1.3.3 1.3 1.2v2h-.9l-.1-.5c-.2.3-.6.5-1.1.5-.6 0-1-.3-1-.9v-.3c0-.5.4-.8 1-.8h1v-.1c0-.3-.1-.4-.4-.4h-1.3l-.2-.5zm1 2c0 .2.1.3.3.3.2 0 .4-.1.6-.2v-.4H78c-.2 0-.3.1-.3.2v.1zm3.3-.4c-.5-.1-.7-.5-.7-.8 0-.8.3-1 1.4-1h1.6v3.1h-1.1v-1h-.4c-.2 0-.3 0-.3.2l-.2.8h-1.2l.2-1c.2-.2.5-.2.7-.3zm1.2-1h-.4c-.3 0-.3.1-.3.3 0 .3.1.4.3.4h.4v-.7zm-13.9 4.8c.5-.1 1-.1 1.4-.1 1.1 0 1.5.2 1.5 1 0 .6-.1 1-.7 1.1.6.1.8.4.8 1.1 0 .9-.4 1.3-1.5 1.3-.5 0-1.1 0-1.5-.1v-.8h1.2c.5 0 .7-.1.7-.5s-.1-.5-.6-.5h-.8v-.7h.8c.5 0 .5-.2.5-.5s-.1-.4-.6-.4h-1.2v-.9zm4.2 3.2c.3 0 .4.1.4.4v.3c0 .3-.1.4-.4.4h-.3c-.3 0-.4-.1-.4-.4v-.3c0-.3.1-.4.4-.4h.3zm2-2.4v.6l.7.1c1 .1 1.3.7 1.3 1.4 0 .8-.3 1.4-1.6 1.4-.4 0-1 0-1.5-.1l.1-.9h1.1c.6 0 .7-.1.7-.5s-.2-.5-.8-.5l-.7-.1c-.2 0-.3-.2-.3-.4l.1-1.9h2.7v.9h-1.8zm-5.6-39.2c-.4.1-.8.2-1.5.2-1.4 0-1.9-.6-1.9-2.2s.5-2.2 1.9-2.2c.6 0 .9 0 1.4.2l-.1.9h-1.3c-.5 0-.7.3-.7 1.2 0 1 .1 1.2.7 1.2h1.4l.1.7zm.2.6 2.5-4.8h.9l-2.5 4.8h-.9zm6-.5c-.2.7-.6 1-1.1 1.2-.4.2-.8.1-1.3.1l.1-.7c.4 0 .7 0 .9-.1.1-.1.2-.2.3-.4h-.2c-.2 0-.3-.1-.4-.3l-1-2.8h1.2l.5 1.8c0 .2.1.3.1.5h.1c0-.2.1-.4.1-.5l.5-1.8h1.2l-1 3zm-7.3 6.7v-3.4l-1 .2-.1-.7 1.1-.4H69v4.3h-1.2zm2.6-1.1c.3 0 .4.1.4.4v.3c0 .3-.1.4-.4.4h-.3c-.3 0-.4-.1-.4-.4v-.3c0-.3.1-.4.4-.4h.3zm2-2.4v.6l.7.1c1 .1 1.3.7 1.3 1.4 0 .8-.3 1.4-1.6 1.4-.4 0-1 0-1.5-.1l.1-.9h1.1c.6 0 .7-.1.7-.5s-.2-.5-.8-.5l-.7-.1c-.2 0-.3-.2-.3-.4l.1-1.9h2.7v.9h-1.8z" class="st1"/></g></switch></svg>