<svg xmlns="http://www.w3.org/2000/svg" xmlns:xlink="http://www.w3.org/1999/xlink" xml:space="preserve" id="Слой_1" x="0" y="0" style="enable-background:new 0 0 344 441" version="1.1" viewBox="0 0 344 441"><style>.st0{fill:#fff4a3}.st1{fill:#39363a}.st3{fill:none;stroke:#39363a;stroke-width:.75}.st4{clip-path:url(#SVGID_4_);fill:#39363a}.st15,.st17,.st6,.st7{fill:none;stroke:#39363a}.st6{stroke-width:.7}.st7{stroke-width:.6}.st15,.st17{clip-path:url(#SVGID_18_);stroke-width:.7}.st17{clip-path:url(#SVGID_22_)}.st18{fill:#39363a}.st18,.st19{clip-path:url(#SVGID_24_)}.st19,.st21{fill:none;stroke:#39363a;stroke-width:.25}.st24,.st25{clip-path:url(#SVGID_30_);fill:#39363a}.st25{fill:none;stroke:#39363a;stroke-width:.25}.st26,.st27{clip-path:url(#SVGID_32_);fill:#39363a}.st27{fill:none;stroke:#39363a;stroke-width:.25}</style><switch><g><path d="M18.4 72.1h300.2v181.1H18.4z" class="st0"/><path d="M222.6 82.7h98.8v330.5h-98.8z" class="st0"/><path d="M196.4 58.5H252v4h-55.6zm-104.2 0h49.5v4H92.2zm-78 129.8h75.5v5.2H14.2zm100.8 20h20v5.2h-20zm142.3-8.5h64.1v3h-64.1z" class="st1"/><path d="M255.6 193.4h3v26.1h-3zm0 44.5h3v19.8h-3zm-83.7-29.6H220v5.2h-48.1zm75.8-38.3h73.7v5.2h-73.7z" class="st1"/><path d="M247.7 253.2h73.7v5.2h-73.7zM13.5 58.5h27.8v4H13.5zm276.4 0h40.5v4h-40.5zm-91.3 3.1h33.9v10.5h-33.9zm-104 0h44.6v10.5H94.6z" class="st1"/><path d="M13.5 61.6h25.4v10.5H13.5zm278.4 0h33.9v10.5h-33.9z" class="st1"/><path d="M16.7 14.2h13.6V64H16.7z" class="st1"/><path d="M13.5 14.2h4.8v203.2h-4.8zm0 227.4h4.8v16.9h-4.8zm284.9 181.2h32v4h-32z" class="st1"/><path d="M300.4 413.2h30.1v10.5h-30.1zm-83 9.6h26.1v4h-26.1z" class="st1"/><path d="M217.4 413.2h24.7v10.5h-24.7z" class="st1"/><defs><path id="SVGID_1_" d="M13.5 14.2h316.9v412.6H13.5z"/></defs><clipPath id="SVGID_2_"><use xlink:href="#SVGID_1_" style="overflow:visible"/></clipPath><path d="M236.9 426.4H304" style="clip-path:url(#SVGID_2_);fill:none;stroke:#39363a;stroke-width:.75"/><path d="M230.1 423.2H304m-73.9-9.6H304" class="st3"/><path d="M217.4 28.9h5.2V218h-5.2zM115 61.8h5.2V213H115zm0-47.6h5.2v26.3H115zM217.4 242h5.2v182.6h-5.2z" class="st1"/><path d="M13.5 253.2h206.4v5.2H13.5z" class="st1"/><defs><path id="SVGID_3_" d="M13.5 14.2h316.9v412.6H13.5z"/></defs><clipPath id="SVGID_4_"><use xlink:href="#SVGID_3_" style="overflow:visible"/></clipPath><path d="M181.3 149.9c2.3-.1 3.4-.1 5.1-.1 1.3 0 1.8.1 1.8.8 0 .9-1.1 2.4-2.9 4.3l-3.7 3.8c-.5.5-.6 1.1-.6 1.8v2.3h12.2v-3.9h-4.7c-.8 0-1.5 0-2.3.2l4-4c2.2-2.3 2.6-3.3 2.6-5.1 0-3.2-2.3-4-5.8-4-1.8 0-3.5.1-5.9.5l.2 3.4zm-4.7 8.8c-1.1 0-1.5.4-1.5 1.5v1c0 1.1.4 1.5 1.5 1.5h1c1.1 0 1.5-.4 1.5-1.5v-1c0-1.1-.4-1.5-1.5-1.5h-1zm-9.3 1.1c-1.9 0-2.1-.6-2.1-4.2.8-.5 1.3-.6 2.1-.6 1.6 0 1.9.4 1.9 2.2 0 1.8-.1 2.6-1.9 2.6m5-13.3c-1.7-.5-3.4-.5-4.2-.5-4.8 0-7.2 1.2-7.2 8.7 0 6.7 1.5 8.3 6.4 8.3 5 0 6.1-1.9 6.1-6 0-3.6-1.1-5.1-4.8-5.1-1.5 0-2.5.2-3.4 1 .1-3.1.7-3.6 2.8-3.6h4l.3-2.8zm-19.9 9.1c1.8 0 2.2.4 2.2 2.1 0 1.6-.4 2-2.2 2-1.9 0-2.3-.4-2.3-2s.4-2.1 2.3-2.1m0-6.6c1.6 0 2 .4 2 2 0 1.5-.3 1.8-2 1.8s-2.1-.3-2.1-1.8c0-1.6.4-2 2.1-2m-3.6 5.3c-2.4.2-2.9 2.2-2.9 4.4 0 3.2 1.3 4.4 6.4 4.4 5.2 0 6.4-1.2 6.4-4.4 0-2.2-.5-4.2-2.9-4.4v-.1c1.8-.2 2.5-2 2.5-3.8 0-3.1-1-4.4-6-4.4-4.9 0-6 1.3-6 4.4 0 1.8.8 3.6 2.5 3.9z" class="st4"/><circle cx="169.5" cy="127.8" r="14.6" style="clip-path:url(#SVGID_4_);fill:none;stroke:#39363a"/><path d="M176.2 127.6c2.5-.3 2.5-1.4 3.9-5.9h-3.4c-1 3.7-1.2 4.8-3 4.8h-.6c.1-.5.1-1 .1-1.5v-3.3h-3.4v12.4h3.4V130c0-.3-.1-.8-.1-1.2h.6c1.7 0 1.9.8 3.2 5.3h3.5c-1.5-5.1-1.7-6.1-4.3-6.4v-.1zm-16.8-3.5h3.5c1.3 0 1.6.2 1.6 1.2 0 .8-.1 1.4-1.5 1.4h-2.4v2.2h2.4c1.3 0 1.6.4 1.6 1.5 0 1.3-.5 1.5-2.1 1.5-1.1 0-1.9 0-3.4-.1l-.1 2.2c1.4.2 3 .3 4.5.3 3.3 0 4.5-1.1 4.5-3.7 0-1.9-.6-2.8-2.3-3.1v-.1c1.6-.3 2-1.4 2-3.1 0-2.2-1.2-2.9-4.2-2.9-1.4 0-2.8.1-4.2.3l.1 2.4zM71.5 228.7h2c.7 0 .9.1.9.7 0 .5-.1.8-.8.8h-1.4v1.3h1.4c.8 0 .9.2.9.8 0 .7-.3.9-1.2.9-.6 0-1.1 0-2-.1l-.1 1.4c.8.1 1.7.2 2.6.2 1.9 0 2.6-.6 2.6-2.1 0-1.1-.3-1.6-1.3-1.8.9-.1 1.1-.8 1.1-1.8 0-1.3-.7-1.7-2.4-1.7-.8 0-1.6.1-2.4.2l.1 1.2zm-2.1 4c-.5 0-.7.2-.7.7v.5c0 .5.2.7.7.7h.4c.5 0 .7-.2.7-.7v-.5c0-.5-.2-.7-.7-.7h-.4zm-6.1-5.4.1 1.6h3.1c-.2.3-.3.5-.4.8l-1.7 4.9h1.9l2.2-6.2c.2-.5-.2-1-.7-1h-4.5zm30.9-6.2h-.7c-.5 0-.6-.1-.6-.6 0-.4.1-.5.6-.5h.7v1.1zm-2 .7c-.3 0-.9.1-1 .6l-.4 1.6h1.9l.3-1.4c0-.2.2-.3.5-.3h.7v1.7H96v-5.2c-.6-.1-1.2-.1-2.6-.1-1.9 0-2.4.4-2.4 1.7 0 .6.3 1.1 1.2 1.4zm-5.5.4c0-.2.1-.4.4-.4h1.1v.6c-.3.2-.7.4-1 .4-.3 0-.5-.1-.5-.4v-.2zm-1.5-2.1c.9-.1 1.7-.1 2.2-.1.5 0 .7.2.7.6v.1h-1.7c-1 0-1.7.5-1.7 1.3v.5c0 1 .8 1.5 1.7 1.5.9 0 1.5-.5 1.8-.9l.2.8h1.5v-3.3c0-1.5-.8-2-2.2-2-.8 0-2.1.1-2.8.3l.3 1.2zm-2.8 1.1c1.2-.2 1.2-.3 1.8-2.4h-1.9c-.5 1.7-.6 1.9-1.1 1.9h-.3c0-.2.1-.4.1-.6v-1.2h-1.6v1.2c0 .2 0 .4.1.6H79c-.5 0-.6-.2-1.1-1.9H76c.7 2.1.6 2.3 1.8 2.4v.1c-1.2.2-1.3.3-2 2.7h1.9c.7-2 .7-2.1 1.1-2.1h.4c0 .2-.1.3-.1.4v1.6H81v-1.6c0-.1 0-.3-.1-.4h.4c.5 0 .5.1 1.2 2.1h1.9c-.8-2.4-.8-2.5-2-2.8zm-9.7-1.2c.6 0 .8.3.8 1.4 0 1.1-.2 1.4-.8 1.4-.6 0-.8-.3-.8-1.4 0-1.2.1-1.4.8-1.4m0-1.4c-2 0-2.8.7-2.8 2.7s.7 2.7 2.8 2.7c2 0 2.8-.7 2.8-2.7 0-1.9-.8-2.7-2.8-2.7m-4.9 5.4h1.9l-1.5-2.6 1.4-2.5h-1.9l-1 1.9-1-1.9h-1.9l1.4 2.5-1.5 2.6h1.9l1.1-2.1 1.1 2.1zm-4.8 0v-5.2h-1.6l-1.6 2.5c-.2.2-.3.5-.4.8 0-.3.1-.5.1-.8v-2.4h-1.7v5.2h1.6l1.6-2.4c.1-.2.3-.6.4-.9 0 .3-.1.6-.1.9v2.3H63zm-9.8-3.6c.3-.2.6-.3 1-.3.5 0 .7.2.7 1.4s-.2 1.4-.7 1.4c-.4 0-.6-.1-.9-.2v-2.3zm-.4-1.6h-1.5v7.1h1.9v-2.2c.4.3 1 .5 1.7.5 1.3 0 2-.6 2-2.7 0-1.8-.5-2.8-1.8-2.8-.8 0-1.6.4-2 .9l-.3-.8zm-2.7-2h-6v7.2H46v-5.9h2.1v5.9h2v-7.2zM173.2 235h2c.7 0 .9.1.9.7 0 .5-.1.8-.8.8h-1.4v1.3h1.4c.8 0 .9.2.9.8 0 .7-.3.9-1.2.9-.6 0-1.1 0-2-.1l-.1 1.4c.8.1 1.7.2 2.6.2 1.9 0 2.6-.6 2.6-2.1 0-1.1-.3-1.6-1.3-1.8.9-.1 1.1-.8 1.1-1.8 0-1.3-.7-1.7-2.4-1.7-.8 0-1.6.1-2.4.2l.1 1.2zm-2.1 4c-.5 0-.7.2-.7.7v.5c0 .5.2.7.7.7h.4c.5 0 .7-.2.7-.7v-.5c0-.5-.2-.7-.7-.7h-.4zm-4.4-1.3c.8 0 1 .2 1 .9s-.2.9-1 .9-1-.2-1-.9.2-.9 1-.9m0-2.9c.7 0 .9.2.9.9 0 .6-.1.8-.9.8-.7 0-.9-.1-.9-.8 0-.8.2-.9.9-.9m-1.5 2.3c-1 .1-1.3 1-1.3 1.9 0 1.4.6 1.9 2.8 1.9 2.3 0 2.8-.5 2.8-1.9 0-1-.2-1.8-1.3-1.9.8-.1 1.1-.9 1.1-1.6 0-1.3-.5-1.9-2.6-1.9-2.2 0-2.6.6-2.6 1.9 0 .6.3 1.4 1.1 1.6zm24.5-10.4c.3-.2.6-.3 1-.3.5 0 .7.2.7 1.4s-.2 1.4-.7 1.4c-.4 0-.6-.1-.9-.2v-2.3zm-.3-1.6h-1.5v7.1h1.9V230c.4.3 1 .5 1.7.5 1.3 0 2-.6 2-2.7 0-1.8-.5-2.8-1.8-2.8-.8 0-1.6.4-2 .9l-.3-.8zm-5.2 1.2c.6 0 .8.3.8 1.4 0 1.1-.2 1.4-.8 1.4-.6 0-.8-.3-.8-1.4 0-1.1.1-1.4.8-1.4m0-1.3c-2 0-2.8.7-2.8 2.7s.7 2.7 2.8 2.7c2 0 2.8-.7 2.8-2.7-.1-2-.8-2.7-2.8-2.7m-6 4h-1.5c.3-.6.4-1.3.6-2.3 0-.3.2-.4.5-.4h.5v2.7zm2.7 0h-.9v-3.9h-2.8c-.9 0-1.4.4-1.5 1.3-.1.9-.3 1.8-.6 2.6h-.6v2.7h1.2l.1-1.4h3.7l.1 1.4h1.3V229zm-7.2 1.3v-5.2H172l-1.6 2.5c-.2.2-.3.5-.4.8 0-.3.1-.5.1-.8v-2.4h-1.7v5.2h1.6l1.6-2.4c.1-.2.3-.6.4-.9 0 .3-.1.6-.1.9v2.3h1.8zm-9.9-3.6c.3-.2.6-.3 1-.3.5 0 .7.2.7 1.4s-.2 1.4-.7 1.4c-.4 0-.6-.1-.9-.2v-2.3zm-.3-1.6H162v7.1h1.9V230c.4.3 1 .5 1.7.5 1.3 0 2-.6 2-2.7 0-1.8-.5-2.8-1.8-2.8-.8 0-1.6.4-2 .9l-.3-.8zm-5.2 1.2c.6 0 .8.3.8 1.4 0 1.1-.2 1.4-.8 1.4-.6 0-.8-.3-.8-1.4 0-1.1.1-1.4.8-1.4m0-1.3c-2 0-2.8.7-2.8 2.7s.7 2.7 2.8 2.7c2 0 2.8-.7 2.8-2.7-.1-2-.8-2.7-2.8-2.7m-5.7 1.5c1.4-.2 1.5-.8 2.3-3.4h-2c-.6 2.2-.7 2.8-1.7 2.8h-.3c.1-.3.1-.6.1-.9v-1.9h-2v7.2h1.9v-2.4c0-.2 0-.4-.1-.7h.4c1 0 1.1.5 1.8 3.1h2c-.8-3-.9-3.5-2.4-3.8z" class="st4"/><path d="M220 61.6h30.5v10.5H220z" class="st1"/><path d="M249.8 58.9h45.7m-50.3 3.2h50.3m-50.3 9.6h50.3" class="st3"/><path d="M318.6 58.5h11.9v367.2h-11.9z" class="st1"/><path d="M158 58.9h41v3.3h-41zm-98 0h41v3.3H60z" class="st6"/><path d="M158 62.1h41v9.6h-41zm-98 0h41v9.6H60z" class="st6"/><path d="M277.1 237h16.5v16.5h-16.5z" class="st7"/><defs><path id="SVGID_5_" d="M13.5 14.2h316.9v412.6H13.5z"/></defs><clipPath id="SVGID_6_"><use xlink:href="#SVGID_5_" style="overflow:visible"/></clipPath><path d="M288.6 221.5h-.4c-.3 0-.4-.1-.4-.4 0-.2.1-.3.4-.3h.4v.7zm-1.3.4c-.2 0-.5.1-.6.3l-.2 1h1.2l.2-.8c0-.1.1-.2.3-.2h.4v1h1.1v-3.1c-.4 0-.7-.1-1.6-.1-1.1 0-1.4.2-1.4 1 0 .4.1.8.6.9zm-3.3.3c0-.1.1-.2.3-.2h.6v.4c-.2.1-.4.2-.6.2-.2 0-.3-.1-.3-.3v-.1zm-.8-1.3h1.3c.3 0 .4.1.4.4v.1h-1c-.6 0-1 .3-1 .8v.3c0 .6.5.9 1 .9s.9-.3 1.1-.5l.1.5h.9v-2c0-.9-.5-1.2-1.3-1.2-.5 0-1.2.1-1.7.2l.2.5zm-.8-.8h-1.1v1.1h-1v-1.1h-1.1v3.1h1.1V222h1v1.3h1.1v-3.2zm-3.8 0h-1.1v1.1h-1v-1.1h-1.1v3.1h1.1V222h1v1.3h1.1v-3.2zm-5.9 2.1c0-.1.1-.2.3-.2h.6v.4c-.2.1-.4.2-.6.2-.2 0-.3-.1-.3-.3v-.1zm-.9-1.3h1.3c.3 0 .4.1.4.4v.1h-1c-.6 0-1 .3-1 .8v.3c0 .6.5.9 1 .9s.9-.3 1.1-.5l.1.5h.9v-2c0-.9-.5-1.2-1.3-1.2-.5 0-1.2.1-1.7.2l.2.5zm-2.9 1.6v-1.1h.6c.5 0 .6.1.6.6 0 .4-.1.5-.5.5h-.7zm0-1.8v-.9h.5c.4 0 .5.1.5.5s-.1.5-.5.5h-.5zm1.4.3c.5 0 .8-.4.8-1 0-.9-.4-1.1-1.6-1.1-.8 0-1.2 0-1.8.1v4.3h2c1.1 0 1.5-.2 1.5-1.1 0-.7-.3-1.1-.9-1.2zm12.5 5.5v-.9h-2.7l-.1 1.9c0 .2.1.4.3.4l.7.1c.6.1.8.1.8.5 0 .3-.1.5-.7.5-.3 0-.7 0-1.1-.1l-.1.9c.5.1 1.1.1 1.5.1 1.2 0 1.6-.6 1.6-1.4 0-.7-.3-1.3-1.3-1.4l-.7-.1v-.6h1.8zm-4.1 2.3c-.3 0-.4.1-.4.4v.3c0 .3.1.4.4.4h.3c.3 0 .4-.1.4-.4v-.3c0-.3-.1-.4-.4-.4h-.3zm-3.9-2.4h1.2c.4 0 .6.1.6.4 0 .3 0 .5-.5.5h-.8v.8h.8c.5 0 .6.1.6.5s-.2.5-.7.5h-1.2v.8c.5.1 1 .1 1.5.1 1.1 0 1.6-.4 1.5-1.3 0-.7-.2-1-.8-1.1.6-.1.7-.5.7-1.1 0-.8-.4-1-1.5-1-.5 0-1 0-1.4.1v.8zm3.8-43.6h-1.2l-.5 1.8c0 .1-.1.3-.1.5h-.1c0-.2-.1-.4-.1-.5l-.5-1.8H275l1 2.8c.1.2.2.3.4.3h.2c-.1.2-.2.3-.3.4-.2.1-.5.1-.9.1l-.1.7c.4.1.9.1 1.3-.1.5-.2.8-.5 1.1-1.2l.9-3zm-6.1 3.6 2.5-4.8h-.9l-2.5 4.8h.9zm-1.2-1.5c-.4 0-.8.1-1.4.1-.5 0-.7-.3-.7-1.2 0-1 .1-1.2.7-1.2h1.3l.1-.9c-.4-.1-.7-.2-1.4-.2-1.4 0-1.9.6-1.9 2.2s.5 2.2 1.9 2.2c.6 0 1 0 1.5-.2l-.1-.8zm5.4 4.2v-.9H274l-.1 1.9c0 .2.1.4.3.4l.7.1c.6.1.8.1.8.5 0 .3-.1.5-.7.5-.3 0-.7 0-1.1-.1l-.1.9c.5.1 1.1.1 1.5.1 1.2 0 1.6-.6 1.6-1.4 0-.7-.3-1.3-1.3-1.4l-.7-.1v-.6h1.8zm-4.1 2.4c-.3 0-.4.1-.4.4v.3c0 .3.1.4.4.4h.3c.3 0 .4-.1.4-.4v-.3c0-.3-.1-.4-.4-.4h-.3zm-1.1 1.1v-4.3h-1.2l-1.1.4.1.7 1-.2v3.4h1.2z" style="clip-path:url(#SVGID_6_);fill:#39363a"/><path d="M308.5 175v25.5m1.8-23.8h6.1v4.1h-6.1zm0 6.4h6.1v15.5h-6.1z" class="st7"/><path d="M277.3 343.4c.8 0 1 .2 1 .9s-.2.9-1 .9-1-.2-1-.9.2-.9 1-.9m0-2.9c.7 0 .9.2.9.9 0 .6-.1.8-.9.8-.7 0-.9-.1-.9-.8 0-.8.2-.9.9-.9m-1.5 2.3c-1 .1-1.3 1-1.3 1.9 0 1.4.6 1.9 2.8 1.9 2.3 0 2.8-.5 2.8-1.9 0-1-.2-1.8-1.3-1.9.8-.1 1.1-.9 1.1-1.6 0-1.3-.5-1.9-2.6-1.9-2.2 0-2.6.6-2.6 1.9 0 .6.3 1.4 1.1 1.6zm-3.3 1.9c-.5 0-.7.2-.7.7v.5c0 .5.2.7.7.7h.4c.5 0 .7-.2.7-.7v-.5c0-.5-.2-.7-.7-.7h-.4zm-4.4-1.3c.8 0 1 .2 1 .9s-.2.9-1 .9-1-.2-1-.9.2-.9 1-.9m0-2.9c.7 0 .9.2.9.9 0 .6-.1.8-.9.8-.7 0-.9-.1-.9-.8 0-.8.2-.9.9-.9m-1.5 2.3c-1 .1-1.3 1-1.3 1.9 0 1.4.6 1.9 2.8 1.9 2.3 0 2.8-.5 2.8-1.9 0-1-.2-1.8-1.3-1.9.8-.1 1.1-.9 1.1-1.6 0-1.3-.5-1.9-2.6-1.9-2.2 0-2.6.6-2.6 1.9 0 .6.3 1.4 1.1 1.6zm-2.6 3.7v-7.2h-2l-1.8.7.2 1.2 1.7-.4c-.1.3-.1.6-.1.9v4.8h2zm43.3-12.3c0-.2.1-.4.4-.4h1.1v.6c-.3.2-.7.4-1 .4-.3 0-.5-.1-.5-.4v-.2zm-1.5-2.1c.9-.1 1.7-.1 2.2-.1.5 0 .7.2.7.6v.1H307c-1 0-1.7.5-1.7 1.3v.5c0 1 .8 1.5 1.7 1.5.9 0 1.5-.5 1.8-.9l.2.8h1.5v-3.3c0-1.5-.8-2-2.2-2-.8 0-2.1.1-2.8.3l.3 1.2zm-.8.1v-1.4h-5.2v1.4h1.6v3.7h1.9v-3.7h1.7zm-9.2 2c0-.2.1-.4.4-.4h1.1v.6c-.3.2-.7.4-1 .4-.3 0-.5-.1-.5-.4v-.2zm-1.5-2.1c.9-.1 1.7-.1 2.2-.1.5 0 .7.2.7.6v.1h-1.7c-1 0-1.7.5-1.7 1.3v.5c0 1 .8 1.5 1.7 1.5.9 0 1.5-.5 1.8-.9l.2.8h1.5v-3.3c0-1.5-.8-2-2.2-2-.8 0-2.1.1-2.8.3l.3 1.2zm-1.3-1.3h-1.9v1.8h-1.6v-1.8h-1.9v5.2h1.9v-2.1h1.6v2.1h1.9v-5.2zm-8.7 0c-.4 0-.6.2-.7.6l-.4 1.9c-.1.3-.1.5-.1.8h-.1c0-.3 0-.5-.1-.8l-.5-1.9c-.1-.4-.3-.6-.7-.6h-1.6c-.4 0-.6.2-.7.6l-.1 4.5h1.7l.1-3.8h.1l.6 2.5c.1.4.3.6.7.6h.8c.4 0 .6-.2.7-.6l.6-2.5h.1l.1 3.8h1.7l-.1-4.5c0-.4-.2-.6-.6-.6h-1.5zm-8.6 1.2c.6 0 .8.3.8 1.4 0 1.1-.2 1.4-.8 1.4-.6 0-.8-.3-.8-1.4 0-1.2.1-1.4.8-1.4m0-1.3c-2 0-2.8.7-2.8 2.7s.7 2.7 2.8 2.7c2 0 2.8-.7 2.8-2.7s-.8-2.7-2.8-2.7m-5.2 2.6c1.2-.2 1.1-.3 1.8-2.5h-1.9c-.4 1.7-.5 1.9-1.2 1.9h-.2c0-.2.1-.4.1-.7v-1.2h-1.9v5.2h1.9v-1.6c0-.1 0-.3-.1-.4h.4c.6 0 .6.1 1.1 2.1h2c-.7-2.6-.8-2.6-2-2.8zm-8.5-.2h-.7c-.5 0-.6-.1-.6-.6 0-.4.1-.5.6-.5h.7v1.1zm-2.1.7c-.3 0-.9.1-1 .6l-.4 1.6h1.9l.3-1.4c0-.2.2-.3.5-.3h.7v1.7h1.8v-5.2c-.6-.1-1.2-.1-2.6-.1-1.9 0-2.4.4-2.4 1.7.1.6.4 1.2 1.2 1.4zm-5.5.4c0-.2.1-.4.4-.4h1.1v.6c-.3.2-.7.4-1 .4-.3 0-.5-.1-.5-.4v-.2zm-1.4-2.1c.9-.1 1.7-.1 2.2-.1.5 0 .7.2.7.6v.1h-1.7c-1 0-1.7.5-1.7 1.3v.5c0 1 .8 1.5 1.7 1.5.9 0 1.5-.5 1.8-.9l.2.8h1.5v-3.3c0-1.5-.8-2-2.2-2-.8 0-2.1.1-2.8.3l.3 1.2zm-1.3-1.3h-3.1c-.9 0-1.4.5-1.4 1.3-.1.9-.2 1.7-.3 2-.1.4-.4.4-.9.5l.2 1.4c1.1.2 2.2-.1 2.4-1.4.1-.5.2-1.4.3-2.2 0-.3.2-.4.5-.4h.4v3.9h1.9v-5.1zm-6.3 5.2v-5.2h-1.6l-1.6 2.5c-.2.2-.3.5-.4.8 0-.3.1-.5.1-.8v-2.4H240v5.2h1.6l1.6-2.4c.1-.2.3-.6.4-.9 0 .3-.1.6-.1.9v2.3h1.9zm-8.4-3.8c1.4-.2 1.4-.8 2.2-3.4h-2c-.6 2.2-.8 2.8-1.5 2.8h-.3c.1-.3.1-.6.1-.9v-1.9h-1.9v1.9c0 .3 0 .6.1.9h-.4c-.7 0-.8-.6-1.5-2.8h-2c.8 2.6.8 3.2 2.2 3.4v.1c-1.4.2-1.5.8-2.4 3.7h2c.8-2.6.9-3.1 1.6-3.1h.4c-.1.2-.1.5-.1.7v2.4h1.9v-2.4c0-.2 0-.4-.1-.7h.3c.7 0 .8.5 1.6 3.1h2.1c-.8-3-.9-3.5-2.3-3.8zM276.6 130c0-.9.1-1.2.8-1.2.8 0 .9.3.9 1.9-.3.2-.6.3-.9.3-.7-.1-.9-.3-.8-1m-1.6 4.6c.8.2 1.6.2 2 .2 2.3 0 3.1-.5 3.1-3.8 0-2.9-.5-3.6-2.7-3.6-2.1 0-2.7.8-2.7 2.6 0 1.3.5 2.2 2.1 2.2.6 0 1.1-.1 1.5-.4-.1 1.2-.3 1.6-1.3 1.6h-1.9l-.1 1.2zm-2.2-1.7c-.5 0-.7.2-.7.7v.5c0 .5.2.7.7.7h.4c.5 0 .7-.2.7-.7v-.5c0-.5-.2-.7-.7-.7h-.4zm-1.9 1.8v-7.2H269l-1.8.7.2 1.2 1.7-.4c-.1.3-.1.6-.1.9v4.8h1.9zm-4.7 0v-7.2h-1.9l-1.8.7.2 1.2 1.7-.4c-.1.3-.1.6-.1.9v4.8h1.9zm42.2-12.3c0-.2.1-.4.4-.4h1.1v.6c-.3.2-.7.4-1 .4-.3 0-.5-.1-.5-.4v-.2zm-1.4-2c.9-.1 1.7-.1 2.2-.1.5 0 .7.2.7.6v.1h-1.7c-1 0-1.7.5-1.7 1.3v.5c0 1 .8 1.5 1.7 1.5.9 0 1.5-.5 1.8-.9l.2.8h1.5v-3.3c0-1.5-.8-2-2.2-2-.8 0-2.1.1-2.8.3l.3 1.2zm-.9.1V119H301v1.4h1.6v3.7h1.9v-3.7h1.6zm-9.2 1.9c0-.2.1-.4.4-.4h1.1v.6c-.3.2-.7.4-1 .4-.3 0-.5-.1-.5-.4v-.2zm-1.4-2c.9-.1 1.7-.1 2.2-.1.5 0 .7.2.7.6v.1h-1.7c-1 0-1.7.5-1.7 1.3v.5c0 1 .8 1.5 1.7 1.5.9 0 1.5-.5 1.8-.9l.2.8h1.5v-3.3c0-1.5-.8-2-2.2-2-.8 0-2.1.1-2.8.3l.3 1.2zm-1.3-1.4h-1.9v1.8h-1.6V119h-1.9v5.2h1.9v-2.1h1.6v2.1h1.9V119zm-8.8 0c-.4 0-.6.2-.7.6l-.4 1.9c-.1.3-.1.5-.1.8h-.1c0-.3 0-.5-.1-.8l-.5-1.9c-.1-.4-.3-.6-.7-.6h-1.6c-.4 0-.6.2-.7.6l-.1 4.5h1.7l.1-3.8h.1l.6 2.5c.1.4.3.6.7.6h.8c.4 0 .6-.2.7-.6l.6-2.5h.1l.1 3.8h1.7l-.1-4.5c0-.4-.2-.6-.6-.6h-1.5zm-8.6 1.2c.6 0 .8.3.8 1.4 0 1.1-.2 1.4-.8 1.4-.6 0-.8-.3-.8-1.4 0-1.1.2-1.4.8-1.4m0-1.3c-2 0-2.8.7-2.8 2.7s.7 2.7 2.8 2.7c2 0 2.8-.7 2.8-2.7s-.7-2.7-2.8-2.7m-5.2 2.6c1.2-.2 1.1-.3 1.8-2.5h-1.9c-.4 1.7-.5 1.9-1.2 1.9h-.2c0-.2.1-.4.1-.7V119h-1.9v5.2h1.9v-1.6c0-.1 0-.3-.1-.4h.4c.6 0 .6.1 1.1 2.1h2c-.7-2.5-.7-2.6-2-2.8zm-8.5-.1h-.7c-.5 0-.6-.1-.6-.6 0-.4.1-.5.6-.5h.7v1.1zm-2 .6c-.3 0-.9.1-1 .6l-.4 1.6h1.9l.3-1.4c0-.2.2-.3.5-.3h.7v1.7h1.8V119c-.6-.1-1.2-.1-2.6-.1-1.9 0-2.4.4-2.4 1.7 0 .6.3 1.2 1.2 1.4zm-5.5.4c0-.2.1-.4.4-.4h1.1v.6c-.3.2-.7.4-1 .4-.3 0-.5-.1-.5-.4v-.2zm-1.5-2c.9-.1 1.7-.1 2.2-.1.5 0 .7.2.7.6v.1h-1.7c-1 0-1.7.5-1.7 1.3v.5c0 1 .8 1.5 1.7 1.5.9 0 1.5-.5 1.8-.9l.2.8h1.5v-3.3c0-1.5-.8-2-2.2-2-.8 0-2.1.1-2.8.3l.3 1.2zm-1.3-1.4h-3.1c-.9 0-1.4.5-1.4 1.3-.1.9-.2 1.7-.3 2-.1.4-.4.4-.9.5l.2 1.4c1.1.2 2.2-.1 2.4-1.4.1-.5.2-1.4.3-2.2 0-.3.2-.4.5-.4h.4v3.9h1.9V119zm-6.3 5.2V119h-1.6l-1.6 2.5c-.2.2-.3.5-.4.8 0-.3.1-.5.1-.8V119h-1.7v5.2h1.6l1.6-2.4c.1-.2.3-.6.4-.9 0 .3-.1.6-.1.9v2.3h1.7zm-8.4-3.8c1.4-.2 1.4-.8 2.2-3.4h-2c-.6 2.2-.8 2.8-1.5 2.8h-.3c.1-.3.1-.6.1-.9V117h-1.9v1.9c0 .3 0 .6.1.9h-.4c-.7 0-.8-.6-1.5-2.8h-2c.8 2.6.8 3.2 2.2 3.4v.1c-1.4.2-1.5.8-2.4 3.7h2c.8-2.6.9-3.1 1.6-3.1h.4c-.1.2-.1.5-.1.7v2.4h1.9v-2.4c0-.2 0-.4-.1-.7h.3c.7 0 .8.5 1.6 3.1h2.1c-.7-2.9-.8-3.5-2.3-3.8zM72.3 131.6c.8 0 1 .2 1 .9s-.2.9-1 .9-1-.2-1-.9.2-.9 1-.9m0-2.9c.7 0 .9.2.9.9 0 .6-.1.8-.9.8-.7 0-.9-.1-.9-.8 0-.7.2-.9.9-.9m-1.5 2.3c-1 .1-1.3 1-1.3 1.9 0 1.4.6 1.9 2.8 1.9 2.3 0 2.8-.5 2.8-1.9 0-1-.2-1.8-1.3-1.9.8-.1 1.1-.9 1.1-1.6 0-1.3-.5-1.9-2.6-1.9-2.2 0-2.6.6-2.6 1.9 0 .7.3 1.5 1.1 1.6zm-3.3 1.9c-.5 0-.7.2-.7.7v.5c0 .5.2.7.7.7h.5c.5 0 .7-.2.7-.7v-.5c0-.5-.2-.7-.7-.7h-.5zm-6.5-4h2c.7 0 .9.1.9.7 0 .5-.1.8-.8.8h-1.4v1.3h1.4c.8 0 .9.2.9.8 0 .7-.3.9-1.2.9-.6 0-1.1 0-2-.1l-.1 1.4c.8.1 1.7.2 2.6.2 1.9 0 2.6-.6 2.6-2.1 0-1.1-.3-1.6-1.3-1.8.9-.1 1.1-.8 1.1-1.8 0-1.3-.7-1.7-2.4-1.7-.8 0-1.6.1-2.4.2l.1 1.2zm-1.4 5.8v-7.2h-1.9l-1.8.7.2 1.2 1.7-.4c-.1.3-.1.6-.1.9v4.8h1.9zM79 121.4h-.7c-.5 0-.6-.1-.6-.6 0-.4.1-.5.6-.5h.7v1.1zm-2 .6c-.3 0-.9.1-1 .6l-.4 1.6h1.9l.3-1.4c0-.2.2-.3.5-.3h.7v1.7h1.8V119c-.6-.1-1.2-.1-2.6-.1-1.9 0-2.4.4-2.4 1.7 0 .6.3 1.2 1.2 1.4zm-2.2-3H73v1.8h-1.6V119h-1.9v5.2h1.9v-2.1H73v2.1h1.9V119zm-7.8 5.2h1.9l-1.5-2.6 1.4-2.5h-1.9l-1 1.9-1-1.9H63l1.4 2.5-1.5 2.6h1.9l1.1-2.1 1.1 2.1zm-4.2-5.2h-2l-.8 3.1c-.1.2-.1.6-.2.9h-.1c0-.3-.1-.6-.1-.9l-.8-3.1h-2l1.6 4.7c.1.3.3.4.6.4h.3c-.1.3-.3.5-.5.6-.3.2-.8.2-1.4.2l-.2 1.2c.7.1 1.5.1 2.1-.1.8-.3 1.4-.8 1.8-2l1.7-5zm-8.5 1.4c1.4-.2 1.5-.8 2.3-3.4h-2c-.6 2.2-.7 2.8-1.7 2.8h-.3c.1-.3.1-.6.1-.9V117h-1.9v7.2h1.9v-2.4c0-.2 0-.4-.1-.7h.4c1 0 1.1.5 1.8 3.1h2c-.9-2.9-1-3.5-2.5-3.8zm120.8 57.9.1 1.6h3.1c-.2.2-.3.5-.4.8l-1.7 4.9h1.9l2.2-6.2c.2-.5-.2-1-.7-1h-4.5zm-1.5 5.4c-.5 0-.7.2-.7.7v.5c0 .5.2.7.7.7h.4c.5 0 .7-.2.7-.7v-.5c0-.5-.2-.7-.7-.7h-.4zm-4.1.5c-.8 0-.9-.3-.9-1.9.3-.2.6-.3.9-.3.7 0 .8.2.8.9.1 1 0 1.3-.8 1.3m2.2-5.8c-.7-.2-1.5-.2-1.9-.2-2.1 0-3.1.5-3.1 3.8 0 2.9.6 3.6 2.8 3.6 2.2 0 2.7-.8 2.7-2.6 0-1.6-.5-2.2-2.1-2.2-.6 0-1.1.1-1.5.4.1-1.3.3-1.6 1.2-1.6h1.8l.1-1.2zm-6.3 7.1v-7.2h-1.9l-1.8.7.2 1.2 1.7-.4c-.1.3-.1.6-.1.9v4.8h1.9zm42.5-12.3c0-.2.1-.4.4-.4h1.1v.6c-.3.2-.7.4-1 .4-.3 0-.5-.1-.5-.4v-.2zm-1.4-2.1c.9-.1 1.7-.1 2.2-.1.5 0 .7.2.7.6v.1h-1.7c-1 0-1.7.5-1.7 1.3v.5c0 1 .8 1.5 1.7 1.5.9 0 1.5-.5 1.8-.9l.2.8h1.5v-3.3c0-1.5-.8-2-2.2-2-.8 0-2.1.1-2.8.3l.3 1.2zm-.9.1v-1.4h-5.2v1.4h1.6v3.7h1.9v-3.7h1.7zm-9.2 2c0-.2.1-.4.4-.4h1.1v.6c-.3.2-.7.4-1 .4-.3 0-.5-.1-.5-.4v-.2zm-1.4-2.1c.9-.1 1.7-.1 2.2-.1.5 0 .7.2.7.6v.1h-1.7c-1 0-1.7.5-1.7 1.3v.5c0 1 .8 1.5 1.7 1.5.9 0 1.5-.5 1.8-.9l.2.8h1.5v-3.3c0-1.5-.8-2-2.2-2-.8 0-2.1.1-2.8.3l.3 1.2zm-1.3-1.3h-1.9v1.8h-1.6v-1.8h-1.9v5.2h1.9v-2.1h1.6v2.1h1.9v-5.2zm-8.8 0c-.4 0-.6.2-.7.6l-.4 1.9c-.1.3-.1.5-.1.8h-.1c0-.3 0-.5-.1-.8l-.5-1.9c-.1-.4-.3-.6-.7-.6h-1.6c-.4 0-.6.2-.7.6l-.1 4.5h1.7l.1-3.8h.1l.6 2.5c.1.4.3.6.7.6h.8c.4 0 .6-.2.7-.6l.6-2.5h.1l.1 3.8h1.7l-.1-4.5c0-.4-.2-.6-.6-.6h-1.5zm-8.6 1.2c.6 0 .8.3.8 1.4 0 1.1-.2 1.4-.8 1.4-.6 0-.8-.3-.8-1.4 0-1.1.2-1.4.8-1.4m0-1.3c-2 0-2.8.7-2.8 2.7s.7 2.7 2.8 2.7c2 0 2.8-.7 2.8-2.7s-.7-2.7-2.8-2.7m-5.2 2.6c1.2-.2 1.1-.3 1.8-2.5H171c-.4 1.7-.5 1.9-1.2 1.9h-.2c0-.2.1-.4.1-.7v-1.2h-1.9v5.2h1.9v-1.6c0-.1 0-.3-.1-.4h.4c.6 0 .6.1 1.1 2.1h2c-.7-2.6-.7-2.6-2-2.8zm-8.5-.2h-.7c-.5 0-.6-.1-.6-.6 0-.4.1-.5.6-.5h.7v1.1zm-2 .7c-.3 0-.9.1-1 .6l-.4 1.6h1.9l.3-1.4c0-.2.2-.3.5-.3h.7v1.7h1.8v-5.2c-.6-.1-1.2-.1-2.6-.1-1.9 0-2.4.4-2.4 1.7 0 .6.3 1.2 1.2 1.4zm-5.5.4c0-.2.1-.4.4-.4h1.1v.6c-.3.2-.7.4-1 .4-.3 0-.5-.1-.5-.4v-.2zm-1.5-2.1c.9-.1 1.7-.1 2.2-.1.5 0 .7.2.7.6v.1h-1.7c-1 0-1.7.5-1.7 1.3v.5c0 1 .8 1.5 1.7 1.5.9 0 1.5-.5 1.8-.9l.2.8h1.5v-3.3c0-1.5-.8-2-2.2-2-.8 0-2.1.1-2.8.3l.3 1.2zm-1.3-1.3h-3.1c-.9 0-1.4.5-1.4 1.3-.1.9-.2 1.7-.3 2-.1.4-.4.4-.9.5l.2 1.4c1.1.2 2.2-.1 2.4-1.4.1-.5.2-1.4.3-2.2 0-.3.2-.4.5-.4h.4v3.9h1.9v-5.1zM146 175v-5.2h-1.6l-1.6 2.5c-.2.2-.3.5-.4.8 0-.3.1-.5.1-.8v-2.4h-1.7v5.2h1.6l1.6-2.4c.1-.2.3-.6.4-.9 0 .3-.1.6-.1.9v2.3h1.7zm-8.4-3.8c1.4-.2 1.4-.8 2.2-3.4h-2c-.6 2.2-.8 2.8-1.5 2.8h-.3c.1-.3.1-.6.1-.9v-1.9h-1.9v1.9c0 .3 0 .6.1.9h-.3c-.7 0-.8-.6-1.5-2.8h-2c.8 2.6.8 3.2 2.2 3.4v.1c-1.4.2-1.5.8-2.4 3.7h2c.8-2.6.9-3.1 1.6-3.1h.4c-.1.2-.1.5-.1.7v2.4h1.9v-2.4c0-.2 0-.4-.1-.7h.3c.7 0 .8.5 1.6 3.1h2.1c-.8-3-.9-3.5-2.4-3.8z" class="st1"/><path d="M27.4 14.5h90.2v2.8H27.4zm91.022 2.893.402-2.771 101.24 14.691-.403 2.771z" class="st6"/><path d="M13.5 14.2h316.9v412.6H13.5z" style="fill:none"/><path d="M18.4 180.7h35.9m-.2-.3v7.9m-23.8-7.9v7.9m-1-7.9v7.9" class="st7"/><defs><path id="SVGID_7_" d="M13.5 14.2h316.9v412.6H13.5z"/></defs><clipPath id="SVGID_8_"><use xlink:href="#SVGID_7_" style="overflow:visible"/></clipPath><path d="M77.3 45.9c.8 0 1 .2 1 .9s-.2.9-1 .9-1-.2-1-.9.1-.9 1-.9m0-2.9c.7 0 .9.2.9.9 0 .6-.1.8-.9.8-.7 0-.9-.1-.9-.8 0-.7.1-.9.9-.9m-1.6 2.3c-1 .1-1.3 1-1.3 1.9 0 1.4.6 1.9 2.8 1.9 2.3 0 2.8-.5 2.8-1.9 0-1-.2-1.8-1.3-1.9.8-.1 1.1-.9 1.1-1.6 0-1.3-.5-1.9-2.6-1.9-2.2 0-2.6.6-2.6 1.9 0 .7.3 1.5 1.1 1.6zm-3.3 1.9c-.5 0-.7.2-.7.7v.5c0 .5.2.7.7.7h.4c.5 0 .7-.2.7-.7v-.5c0-.5-.2-.7-.7-.7h-.4zm-4.3-1.3c.8 0 1 .2 1 .9s-.2.9-1 .9-1-.2-1-.9.1-.9 1-.9m0-2.9c.7 0 .9.2.9.9 0 .6-.1.8-.9.8-.7 0-.9-.1-.9-.8 0-.7.1-.9.9-.9m-1.6 2.3c-1 .1-1.3 1-1.3 1.9 0 1.4.6 1.9 2.8 1.9 2.3 0 2.8-.5 2.8-1.9 0-1-.2-1.8-1.3-1.9.8-.1 1.1-.9 1.1-1.6 0-1.3-.5-1.9-2.6-1.9-2.2 0-2.6.6-2.6 1.9 0 .7.3 1.5 1.1 1.6zm24.4-11.6h-.7c-.5 0-.6-.1-.6-.6 0-.4.1-.5.6-.5h.7v1.1zm-2 .6c-.3 0-.9.1-1 .6l-.4 1.6h1.9l.3-1.4c0-.2.2-.3.5-.3h.7v1.7h1.8v-5.2c-.6-.1-1.2-.1-2.6-.1-1.9 0-2.4.4-2.4 1.7.1.6.3 1.2 1.2 1.4zm-2.1 2.2v-5.2h-1.6l-1.6 2.5c-.2.2-.3.5-.4.8 0-.3.1-.5.1-.8v-2.4h-1.7v5.2h1.6l1.6-2.4c.1-.2.3-.6.4-.9 0 .3-.1.6-.1.9v2.3h1.7zm-8.1-2.7c1.2-.2 1.2-.3 1.8-2.4h-1.9c-.5 1.7-.6 1.9-1.1 1.9h-.3c0-.2.1-.4.1-.6v-1.2h-1.6v1.2c0 .2 0 .4.1.6h-.3c-.5 0-.6-.2-1.1-1.9h-1.9c.7 2.1.6 2.3 1.8 2.4v.1c-1.3.2-1.3.3-2 2.7h1.9c.7-2 .7-2.1 1.1-2.1h.4c0 .2-.1.3-.1.4v1.6h1.7v-1.6c0-.1 0-.3-.1-.4h.4c.5 0 .5.1 1.2 2.1h1.9c-.7-2.5-.7-2.6-2-2.8zm-9.4 1.4h-1.5c.3-.6.4-1.3.6-2.3 0-.3.2-.4.5-.4h.5v2.7zm2.6 0H71v-3.9h-2.8c-.9 0-1.4.4-1.5 1.3-.1.9-.3 1.8-.6 2.6h-.6V38h1.2l.1-1.4h3.7l.1 1.4h1.3v-2.8zm-9.6-2.7c.6 0 .8.3.8 1.4 0 1.1-.2 1.4-.8 1.4-.6 0-.8-.3-.8-1.4 0-1.1.2-1.4.8-1.4m0-1.3c-2 0-2.8.7-2.8 2.7s.7 2.7 2.8 2.7c2 0 2.8-.7 2.8-2.7s-.7-2.7-2.8-2.7m-3.8-1.9h-3.3c-1.1 0-1.7.6-1.8 1.7-.1 1.7-.3 2.7-.5 3.3-.2.5-.5.6-1 .7l.1 1.5c1.3.2 2.2-.2 2.7-1.7.3-.9.4-2.2.6-3.7 0-.4.2-.5.6-.5h.7v5.9h2v-7.2z" style="clip-path:url(#SVGID_8_);fill:#39363a"/><path d="m93.6 180.4.7-1.2 23.4 14-.8 1.3z" class="st6"/><defs><path id="SVGID_9_" d="M13.5 14.2h316.9v412.6H13.5z"/></defs><clipPath id="SVGID_10_"><use xlink:href="#SVGID_9_" style="overflow:visible"/></clipPath><path d="M94.4 178.8s-2.1 3.1-3.3 7.6c-1.2 4.6-1.4 7.1-1.4 7.1" style="clip-path:url(#SVGID_10_);fill:none;stroke:#39363a;stroke-width:.7"/><path d="m244.2 266.6-.7 1.2-23.4-14 .7-1.3z" class="st6"/><defs><path id="SVGID_11_" d="M13.5 14.2h316.9v412.6H13.5z"/></defs><clipPath id="SVGID_12_"><use xlink:href="#SVGID_11_" style="overflow:visible"/></clipPath><path d="M243.3 268.2s2.1-3.1 3.3-7.6c1.2-4.6 1.4-7.1 1.4-7.1" style="clip-path:url(#SVGID_12_);fill:none;stroke:#39363a;stroke-width:.7"/><path d="M31.3 181.7h15.9v5.6H31.3zm17.7 0h4.1v5.6H49z" class="st7"/><path d="m56.4 73.3-.8 1.3-17.3-10.5.7-1.3z" class="st6"/><defs><path id="SVGID_13_" d="M13.5 14.2h316.9v412.6H13.5z"/></defs><clipPath id="SVGID_14_"><use xlink:href="#SVGID_13_" style="overflow:visible"/></clipPath><path d="M55.5 74.9s2.1-3.1 3.3-7.6c.6-2.4 1-4.3 1.2-5.5" style="clip-path:url(#SVGID_14_);fill:none;stroke:#39363a;stroke-width:.7"/><path d="m154.3 73.3-.8 1.3-17.3-10.5.7-1.3z" class="st6"/><defs><path id="SVGID_15_" d="M13.5 14.2h316.9v412.6H13.5z"/></defs><clipPath id="SVGID_16_"><use xlink:href="#SVGID_15_" style="overflow:visible"/></clipPath><path d="M153.4 74.9s2.1-3.1 3.3-7.6c.6-2.4 1-4.3 1.2-5.5" style="clip-path:url(#SVGID_16_);fill:none;stroke:#39363a;stroke-width:.7"/><path d="m244.2 161-.7-1.3-23.4 14.1.7 1.3z" class="st6"/><defs><path id="SVGID_17_" d="M13.5 14.2h316.9v412.6H13.5z"/></defs><clipPath id="SVGID_18_"><use xlink:href="#SVGID_17_" style="overflow:visible"/></clipPath><path d="M243.3 159.3s2.1 3.1 3.3 7.6c1.2 4.6 1.4 7.1 1.4 7.1M28.1 220.7l1.2.7-13.6 22.8-1.3-.8z" class="st15"/><path d="M29.7 221.6s-3.1-2.1-7.6-3.3c-4.6-1.2-7.1-1.4-7.1-1.4" class="st15"/><path d="m247.7 190.1-1.3-.8 10.4-17.1 1.2.8z" class="st6"/><defs><path id="SVGID_19_" d="M13.5 14.2h316.9v412.6H13.5z"/></defs><clipPath id="SVGID_20_"><use xlink:href="#SVGID_19_" style="overflow:visible"/></clipPath><path d="M246.1 189.2s3.1 2.1 7.6 3.3c2 .5 3.6.9 4.7 1.1" style="clip-path:url(#SVGID_20_);fill:none;stroke:#39363a;stroke-width:.7"/><path d="m247.7 222.4-1.3.7 10.4 17.1 1.2-.7z" class="st6"/><defs><path id="SVGID_21_" d="M13.5 14.2h316.9v412.6H13.5z"/></defs><clipPath id="SVGID_22_"><use xlink:href="#SVGID_21_" style="overflow:visible"/></clipPath><path d="M246.1 223.3s3.1-2.1 7.6-3.3c2-.5 3.6-.9 4.7-1.1m53 31.7s5.7 0 5.7-5.7V211s0-5.7-5.7-5.7h-7.6s-5.7 0-5.7 5.7v33.9s0 5.7 5.7 5.7h7.6z" class="st17"/><path d="M309.6 247.4s5.7 0 5.7-5.7v-27.6s0-5.7-5.7-5.7h-4.1s-5.7 0-5.7 5.7v27.6s0 5.7 5.7 5.7h4.1z" class="st17"/><path d="M310.8 243.7s2.8 0 2.8-2.8v-27.7s0-2.8-2.8-2.8h-6.3s-2.8 0-2.8 2.8v27.7s0 2.8 2.8 2.8h6.3z" class="st17"/><path d="M307.6 213.7c-.5 0-.8.4-.8.8 0 .5.4.8.8.8.5 0 .8-.4.8-.8 0-.5-.3-.8-.8-.8z" class="st17"/><path d="M297.1 253.7v-52.4" class="st6"/><defs><path id="SVGID_23_" d="M13.5 14.2h316.9v412.6H13.5z"/></defs><clipPath id="SVGID_24_"><use xlink:href="#SVGID_23_" style="overflow:visible"/></clipPath><path d="M285 215.2c-3 0-5.4-2.4-5.4-5.4V204c0-.5.4-.8.8-.8h12.3c.5 0 .8.4.8.8v5.8c0 3-2.4 5.4-5.4 5.4H285zm7.6-12.3h-12.3c-.6 0-1.1.5-1.1 1.1v5.8c0 3.2 2.6 5.7 5.7 5.7h3.1c3.2 0 5.7-2.6 5.7-5.7V204c.1-.6-.4-1.1-1.1-1.1" class="st18"/><path d="M285 215.2c-3 0-5.4-2.4-5.4-5.4V204c0-.5.4-.8.8-.8h12.3c.5 0 .8.4.8.8v5.8c0 3-2.4 5.4-5.4 5.4H285zm7.6-12.3h-12.3c-.6 0-1.1.5-1.1 1.1v5.8c0 3.2 2.6 5.7 5.7 5.7h3.1c3.2 0 5.7-2.6 5.7-5.7V204c.1-.6-.4-1.1-1.1-1.1z" class="st19"/><path d="M285 213.9c-2.2 0-4.1-1.8-4.1-4.1v-3.4c0-.4.3-.7.7-.7h9.8c.4 0 .7.3.7.7v3.4c0 2.2-1.8 4.1-4.1 4.1h-3zm6.4-8.5h-9.8c-.6 0-1 .5-1 1v3.4c0 2.4 2 4.4 4.4 4.4h3.1c2.4 0 4.4-2 4.4-4.4v-3.4c-.1-.5-.5-1-1.1-1" class="st18"/><path d="M285 213.9c-2.2 0-4.1-1.8-4.1-4.1v-3.4c0-.4.3-.7.7-.7h9.8c.4 0 .7.3.7.7v3.4c0 2.2-1.8 4.1-4.1 4.1h-3zm6.4-8.5h-9.8c-.6 0-1 .5-1 1v3.4c0 2.4 2 4.4 4.4 4.4h3.1c2.4 0 4.4-2 4.4-4.4v-3.4c-.1-.5-.5-1-1.1-1z" class="st19"/><path d="M286.5 211c-.4 0-.7-.3-.7-.7 0-.4.3-.7.7-.7.4 0 .7.3.7.7 0 .4-.3.7-.7.7m0-1.6c-.5 0-1 .4-1 1 0 .5.4 1 1 1 .5 0 1-.4 1-1s-.4-1-1-1" class="st18"/><path d="M286.5 211c-.4 0-.7-.3-.7-.7 0-.4.3-.7.7-.7.4 0 .7.3.7.7 0 .4-.3.7-.7.7zm0-1.6c-.5 0-1 .4-1 1 0 .5.4 1 1 1 .5 0 1-.4 1-1s-.4-1-1-1z" class="st19"/><path d="m130.67 211.493 23.545-14.014.665 1.117-23.545 14.015zm28.96-8.223.664-1.117 14.264 8.49-.665 1.118z" class="st6"/><defs><path id="SVGID_25_" d="M13.5 14.2h316.9v412.6H13.5z"/></defs><clipPath id="SVGID_26_"><use xlink:href="#SVGID_25_" style="overflow:visible"/></clipPath><path d="M159.5 203.3s-.9 1.7-1.1 3.2c-.2 1.5-.4 4-.4 4s-.2-4.7-1.2-7.4-2-4.4-2-4.4" style="clip-path:url(#SVGID_26_);fill:none;stroke:#39363a;stroke-width:.7"/><path d="M18.8 179.3H35V163H18.8v16.3zm-.3-16.6h17v17h-17v-17z" class="st1"/><path d="M18.8 179.3H35V163H18.8v16.3zm-.3-16.6h17v17h-17v-17z" class="st21"/><defs><path id="SVGID_27_" d="M13.5 14.2h316.9v412.6H13.5z"/></defs><clipPath id="SVGID_28_"><use xlink:href="#SVGID_27_" style="overflow:visible"/></clipPath><path d="M33.6 165.5c0-.4-.3-.7-.7-.7h-8.5c-.4 0-.7.3-.7.7v11.4c0 .4.3.7.7.7h8.5c.4 0 .7-.3.7-.7v-11.4zm-10.3 11.3v-11.4c0-.6.5-1.1 1.1-1.1h8.5c.6 0 1.1.5 1.1 1.1v11.4c0 .6-.5 1.1-1.1 1.1h-8.5c-.7 0-1.1-.5-1.1-1.1" style="clip-path:url(#SVGID_28_);fill:#39363a"/><path d="M33.6 165.5c0-.4-.3-.7-.7-.7h-8.5c-.4 0-.7.3-.7.7v11.4c0 .4.3.7.7.7h8.5c.4 0 .7-.3.7-.7v-11.4zm-10.3 11.3v-11.4c0-.6.5-1.1 1.1-1.1h8.5c.6 0 1.1.5 1.1 1.1v11.4c0 .6-.5 1.1-1.1 1.1h-8.5c-.7 0-1.1-.5-1.1-1.1z" style="clip-path:url(#SVGID_28_);fill:none;stroke:#39363a;stroke-width:.25"/><path d="M24.9 176.3h7.5V166h-7.5v10.3zm-.4-10.7h8.2v11h-8.2v-11z" class="st1"/><path d="M24.9 176.3h7.5V166h-7.5v10.3zm-.4-10.7h8.2v11h-8.2v-11z" class="st21"/><defs><path id="SVGID_29_" d="M13.5 14.2h316.9v412.6H13.5z"/></defs><clipPath id="SVGID_30_"><use xlink:href="#SVGID_29_" style="overflow:visible"/></clipPath><path d="M30.1 171.1c0-.5-.4-.9-.9-.9s-.9.4-.9.9.4.9.9.9c.4.1.9-.3.9-.9m-2.3 0c0-.7.6-1.3 1.3-1.3.7 0 1.3.6 1.3 1.3 0 .7-.6 1.3-1.3 1.3-.7 0-1.3-.5-1.3-1.3" class="st24"/><path d="M30.1 171.1c0-.5-.4-.9-.9-.9s-.9.4-.9.9.4.9.9.9c.4.1.9-.3.9-.9zm-2.3 0c0-.7.6-1.3 1.3-1.3.7 0 1.3.6 1.3 1.3 0 .7-.6 1.3-1.3 1.3-.7 0-1.3-.5-1.3-1.3z" class="st25"/><path d="M287 187.9c0-2.8 2.3-5.1 5.1-5.1h7.4c.5 0 .9.4.9.9v8.5c0 .5-.4.9-.9.9h-7.4c-2.8-.1-5.1-2.4-5.1-5.2m13.7 4.2v-8.5c0-.7-.6-1.2-1.2-1.2h-7.4c-3 0-5.5 2.5-5.5 5.5s2.5 5.5 5.5 5.5h7.4c.7-.1 1.2-.6 1.2-1.3" class="st24"/><path d="M287 187.9c0-2.8 2.3-5.1 5.1-5.1h7.4c.5 0 .9.4.9.9v8.5c0 .5-.4.9-.9.9h-7.4c-2.8-.1-5.1-2.4-5.1-5.2zm13.7 4.2v-8.5c0-.7-.6-1.2-1.2-1.2h-7.4c-3 0-5.5 2.5-5.5 5.5s2.5 5.5 5.5 5.5h7.4c.7-.1 1.2-.6 1.2-1.3z" class="st25"/><path d="M297.9 184.2v7.3s0 .1-.1.1h-5.6c-2.1 0-3.8-1.7-3.8-3.8 0-2.1 1.7-3.8 3.8-3.8l5.7.2c0-.1 0 0 0 0z" class="st25"/><path d="M297.7 184.3v7.2h-5.5c-2 0-3.6-1.6-3.6-3.6s1.6-3.6 3.6-3.6h5.5zm.4 7.2v-7.3c0-.1-.1-.3-.3-.3h-5.6c-2.2 0-3.9 1.8-3.9 3.9 0 2.2 1.8 3.9 3.9 3.9h5.6c.2.1.3 0 .3-.2" class="st24"/><path d="M297.7 184.3v7.2h-5.5c-2 0-3.6-1.6-3.6-3.6s1.6-3.6 3.6-3.6h5.5zm.4 7.2v-7.3c0-.1-.1-.3-.3-.3h-5.6c-2.2 0-3.9 1.8-3.9 3.9 0 2.2 1.8 3.9 3.9 3.9h5.6c.2.1.3 0 .3-.2z" class="st25"/><path d="M292.2 187.9c0-.5.4-1 1-1 .5 0 1 .4 1 1 0 .5-.4 1-1 1-.5-.1-1-.5-1-1m2.3 0c0-.7-.6-1.3-1.3-1.3-.7 0-1.3.6-1.3 1.3 0 .7.6 1.3 1.3 1.3.7 0 1.3-.6 1.3-1.3" class="st24"/><path d="M292.2 187.9c0-.5.4-1 1-1 .5 0 1 .4 1 1 0 .5-.4 1-1 1-.5-.1-1-.5-1-1zm2.3 0c0-.7-.6-1.3-1.3-1.3-.7 0-1.3.6-1.3 1.3 0 .7.6 1.3 1.3 1.3.7 0 1.3-.6 1.3-1.3z" class="st25"/><path d="m294.706 186.486 2.322-1.736.24.32-2.323 1.737z" class="st1"/><path d="m294.706 186.486 2.322-1.736.24.32-2.323 1.737z" class="st21"/><path d="m297.2 190.7-2.3-1.8-.2.3 2.3 1.7z" class="st1"/><path d="m297.2 190.7-2.3-1.8-.2.3 2.3 1.7z" class="st21"/><defs><path id="SVGID_31_" d="M13.5 14.2h316.9v412.6H13.5z"/></defs><clipPath id="SVGID_32_"><use xlink:href="#SVGID_31_" style="overflow:visible"/></clipPath><path d="M300.8 184.3c0-.8.6-1.4 1.4-1.4h1.9c.8 0 1.4.6 1.4 1.4v7.1c0 .8-.6 1.4-1.4 1.4h-1.9c-.8 0-1.4-.6-1.4-1.4v-7.1zm5.1 7.1v-7.1c0-1-.8-1.8-1.8-1.8h-1.9c-1 0-1.8.8-1.8 1.8v7.1c0 1 .8 1.8 1.8 1.8h1.9c1 0 1.8-.8 1.8-1.8" class="st26"/><path d="M300.8 184.3c0-.8.6-1.4 1.4-1.4h1.9c.8 0 1.4.6 1.4 1.4v7.1c0 .8-.6 1.4-1.4 1.4h-1.9c-.8 0-1.4-.6-1.4-1.4v-7.1zm5.1 7.1v-7.1c0-1-.8-1.8-1.8-1.8h-1.9c-1 0-1.8.8-1.8 1.8v7.1c0 1 .8 1.8 1.8 1.8h1.9c1 0 1.8-.8 1.8-1.8z" class="st27"/><path d="M302.6 187.9c0-.3.2-.5.5-.5s.5.2.5.5-.2.5-.5.5-.5-.2-.5-.5m1.4 0c0-.5-.4-.9-.9-.9s-.9.4-.9.9.4.9.9.9.9-.4.9-.9" class="st26"/><path d="M302.6 187.9c0-.3.2-.5.5-.5s.5.2.5.5-.2.5-.5.5-.5-.2-.5-.5zm1.4 0c0-.5-.4-.9-.9-.9s-.9.4-.9.9.4.9.9.9.9-.4.9-.9z" class="st27"/></g></switch></svg>