<svg xmlns="http://www.w3.org/2000/svg" xml:space="preserve" id="Слой_1" x="0" y="0" style="enable-background:new 0 0 1280 1024" version="1.1" viewBox="0 0 1280 1024"><style>.st1{fill:#fbf4a6}.st2{fill:#39373a}.st3{fill:none;stroke:#39373a;stroke-width:.6}.st4{fill:#fff}.st5{stroke-width:.347}.st10,.st5{fill:none;stroke:#39373a}.st6{stroke-width:.248}.st6,.st7,.st8,.st9{fill:none;stroke:#39373a}.st7{stroke-width:.52}.st8{stroke-width:.199}.st9{stroke-width:.224}.st10{stroke-width:.246}</style><path d="M988.1 661.5H646m1.5 49.3H519.4" style="fill:#e9cacc"/><path d="M376.9 670.6h126.4v129.8H376.9z" class="st1"/><path d="M376.9 566.6h264.5v129.8H376.9z" class="st1"/><path d="M278.1 625.9h126.4V857H278.1z" class="st1"/><path d="M284 185.7h723v469.8H284z" class="st1"/><path d="M343.9 185.7h723v250.5h-723z" class="st1"/><path d="M411.1 799.5h105.8v19.3H411.1z" class="st2"/><path d="M411.1 799.5h105.8v19.3H411.1z" class="st3"/><path d="M483.7 791.6h34.9V818h-34.9z" class="st2"/><path d="M483.7 791.6h34.9V818h-34.9z" class="st3"/><path d="M264.9 824.3v-31.2" class="st2"/><path d="M264.9 824.3v-31.2" class="st3"/><path d="M241.3 160.6H1110v31.8H241.3z" class="st2"/><path d="M241.3 160.6H1110v31.8H241.3z" class="st3"/><path d="M560.1 186.4H578V266h-17.9z" class="st2"/><path d="M560.1 186.4H578V266h-17.9z" class="st3"/><path d="M560.1 210.5h8.2v130.3h-8.2z" class="st2"/><path d="M560.1 210.5h8.2v130.3h-8.2z" class="st3"/><path d="M560.1 394.8h8.2v25.8h-8.2z" class="st2"/><path d="M560.1 394.8h8.2v25.8h-8.2z" class="st3"/><path d="M641.5 190.2h8.2v138.3h-8.2z" class="st2"/><path d="M641.5 190.2h8.2v138.3h-8.2z" class="st3"/><path d="M628.8 320.3h87.9v8.2h-87.9z" class="st2"/><path d="M628.8 320.3h87.9v8.2h-87.9z" class="st3"/><path d="M269.6 417.2h323.2v8.2H269.6z" class="st2"/><path d="M269.6 417.2h323.2v8.2H269.6z" class="st3"/><path d="M644.6 417.2h464.7v8.2H644.6z" class="st2"/><path d="M644.6 417.2h464.7v8.2H644.6z" class="st3"/><path d="M501.8 407.2h66.5v13.4h-66.5z" class="st2"/><path d="M501.8 407.2h66.5v13.4h-66.5z" class="st3"/><path d="M562.4 320.3h27.3v8.2h-27.3z" class="st2"/><path d="M562.4 320.3h27.3v8.2h-27.3z" class="st3"/><path d="M568 224h74.8v8.2H568z" class="st2"/><path d="M568 224h74.8v8.2H568z" class="st3"/><path d="M588.5 205.6h54.3v21.2h-54.3z" class="st2"/><path d="M588.5 205.6h54.3v21.2h-54.3z" class="st3"/><path d="M755.7 320.3H783v8.2h-27.3z" class="st2"/><path d="M755.7 320.3H783v8.2h-27.3z" class="st3"/><path d="M778 394.2h8.2v27.3H778z" class="st2"/><path d="M778 394.2h8.2v27.3H778z" class="st3"/><path d="M988.6 407.6H1110v42.3H988.6z" class="st2"/><path d="M988.6 407.6H1110v42.3H988.6z" class="st3"/><path d="M987.9 625h41.7v37.2h-41.7z" class="st2"/><path d="M987.9 625h41.7v35.7h-41.7z" class="st3"/><path d="M650.1 658.9h-8.6" class="st2"/><path d="M650.1 658.9h-8.6" class="st3"/><path d="M632.6 642.9h362.8v18.8H632.6zm435-262.6h41.7v47h-41.7z" class="st2"/><path d="M1067.6 380.3h41.7v47h-41.7z" class="st3"/><path d="M1094.2 375.1h15.8v47h-15.8z" class="st2"/><path d="M1094.2 375.1h15.8v47h-15.8z" class="st3"/><path d="M1094.2 223.7h15.8v46.5h-15.8z" class="st2"/><path d="M1094.2 223.7h15.8v46.5h-15.8z" class="st3"/><path d="M1069 179.5h41v84.9h-41z" class="st2"/><path d="M1069 179.5h41v84.9h-41z" class="st3"/><path d="M778 408.6h67.9v12H778z" class="st2"/><path d="M778 408.6h67.9v12H778z" class="st3"/><path d="M770.1 190.2H783V266h-12.9z" class="st2"/><path d="M770.1 190.2H783V266h-12.9z" class="st3"/><path d="M778 190.2h8.2v150.9H778z" class="st2"/><path d="M778 190.2h8.2v150.9H778z" class="st3"/><path d="M596.4 212.9h11.3v11.3h-11.3zm17 0h11.3v11.3h-11.3zm17.1 0h11.3v11.3h-11.3z" class="st4"/><path d="M1029.5 650.2h80.5v10.5h-80.5z" class="st2"/><path d="M1029.5 650.2h80.5v10.5h-80.5z" class="st3"/><path d="M1100.8 440.3h9.2v211.9h-9.2zm-93 0h5.3v74.1h-5.3z" class="st3"/><path d="M1007.8 504.9h5.3v68.8h-5.3zm59.8-333.7h42.4v262.3h-42.4z" class="st3"/><path d="M1088.9 221.6h5.3v211.9h-5.3z" class="st3"/><path d="M1088.9 252.3h5.3v17.9h-5.3zm0 122.8h5.3V393h-5.3zm-81.1 134.2h5.3v64.3h-5.3z" class="st3"/><path d="M1007.8 563.7h5.3v9.9h-5.3z" class="st3"/><path d="M1007.8 568.7h5.3v4.9h-5.3zm0-128.4h5.3v13.9h-5.3z" class="st3"/><path d="M148 434.7h130v-18.5H148" class="st2"/><path d="M148 455.1h136.3v-32H148" class="st2"/><path d="M256.8 404.8h26.5v27.6h-26.5z" class="st2"/><path d="M256.8 404.8h26.5v27.6h-26.5z" class="st3"/><path d="M264.8 449.3h18.4V874h-18.4z" class="st2"/><path d="M265.8 856.4H329v17.9h-63.2z" class="st2"/><path d="M265.8 856.4H329v17.9h-63.2z" class="st3"/><path d="M392.4 856.4H422v17.9h-29.6z" class="st2"/><path d="M392.4 856.4H422v17.9h-29.6z" class="st3"/><path d="M422 874v-72.8h-17.5V874" class="st2"/><path d="M404.5 754h8.5v119.9h-8.5z" class="st2"/><path d="M404.5 754h8.5v117.5h-8.5z" class="st3"/><path d="M404.5 679.4h8.5v32h-8.5z" class="st2"/><path d="M404.5 679.4h8.5v32h-8.5z" class="st3"/><path d="M405.2 609.5h8.5v10.1h-8.5z" class="st2"/><path d="M405.2 609.5h8.5v10.1h-8.5z" class="st3"/><path d="M410.7 692.3h194.9v8.5H410.7z" class="st2"/><path d="M410.7 692.3h194.9v8.5H410.7z" class="st3"/><path d="M501.1 700.1h17.5v97.6h-17.5z" class="st2"/><path d="M501.1 700.1h17.5v97.6h-17.5z" class="st3"/><path d="M265.8 787.9h13.4v76.7h-13.4z" class="st2"/><path d="M265.8 787.9h13.4v76.7h-13.4z" class="st3"/><path d="M268.5 796.7v-30" class="st2"/><path d="M268.5 796.7v-30" class="st3"/><path d="M234.2 797.4h10.9v10.9h-10.9zm17.2 0h10.9v10.9h-10.9zm247.8 1h11.6v12h-11.6z" class="st4"/><path d="M604.9 674.1H646v29.8h-41.1z" class="st2"/><path d="M631.8 642.7h19v68.2h-19zm-353.6-35.6h135.6v10.2H278.2z" class="st2"/><path d="M278.2 607.1h135.6v10.2H278.2z" class="st3"/><path d="M304.4 580h27.2v10.2h-27.2z" class="st2"/><path d="M304.4 580h27.2v10.2h-27.2z" class="st3"/><path d="M304.4 584.6h8v24.8h-8z" class="st2"/><path d="M304.4 584.6h8v24.8h-8z" class="st3"/><path d="M323.6 584.6h8v24.8h-8z" class="st2"/><path d="M323.6 584.6h8v24.8h-8z" class="st3"/><path d="M241.3 182.2h15.9v87.3h-15.9z" class="st2"/><path d="M241.3 182.2h15.9v87.3h-15.9z" class="st3"/><path d="M241.3 401h16.4v46.8h-16.4z" class="st2"/><path d="M241.3 401h16.4v46.8h-16.4z" class="st3"/><path d="M247.9 178.8h35.6v87.3h-35.6z" class="st2"/><path d="M247.9 178.8h35.6v87.3h-35.6z" class="st3"/><path d="M153.3 160.6h105.2v8.2H153.3z" class="st2"/><path d="M153.3 160.6h105.2v8.2H153.3z" class="st3"/><path d="M153.3 160.6h8.2v47h-8.2z" class="st2"/><path d="M153.3 160.6h8.2v47h-8.2z" class="st3"/><path d="M153.3 193.9h8.2v223.9h-8.2zm11.3 261.2v-38.9m76.9-181.7H258v114.8h-16.5zm22.7 0h19.1v109.4h-19.1z" class="st3"/><path d="M258 234.5h6.3v114.8H258z" class="st3"/><path d="M258 229.1h6.3v114.8H258z" class="st3"/><path d="M258 223.7h6.3v114.8H258z" class="st3"/><path d="M258 180h6.3v114.8H258z" class="st3"/><path d="M258 205.8h6.3v64.7H258z" class="st3"/><path stroke-width=".6" d="m256.635 404.667 29.616-49.753 2.148 1.279-29.616 49.753z" class="st3"/><path d="M289 356.2s-6.9-4.2-13.5-5.7c-4.5-1-12-1.1-12-1.1" class="st5"/><path stroke-width=".6" d="m983.696 580.5 2.148-1.278 29.616 49.753-2.148 1.279z" class="st3"/><path d="M983 580.5s6.9-4.2 13.5-5.7c4.5-1 12-1.1 12-1.1" class="st5"/><path stroke-width=".6" d="m779.922 396.59 29.616-49.754 2.148 1.278-29.615 49.754z" class="st3"/><path d="M812.4 348.2s-6.9-4.2-13.5-5.7c-4.5-1-12-1.1-12-1.1" class="st5"/><path stroke-width=".6" d="m722.443 347.814 37.895-22.557 1.28 2.149-37.896 22.557z" class="st3"/><path d="M723.7 350.7s-4.2-6.9-5.7-13.5c-1-4.5-1.1-12-1.1-12" class="st5"/><path stroke-width=".6" d="m584.224 327.527 1.278-2.148 37.896 22.557-1.28 2.148z" class="st3"/><path d="M622.1 350.7s4.2-6.9 5.7-13.5c1-4.5 1.1-12 1.1-12" class="st5"/><path stroke-width=".6" d="m534.19 348.855 2.147-1.279 29.054 48.809-2.149 1.278z" class="st3"/><path d="M533.5 348.8s8.3-4.8 16.2-6.5c5.4-1.1 14.4-1.3 14.4-1.3" class="st5"/><path stroke-width=".6" d="m587.832 422.734 1.278-2.149 48.809 29.054-1.279 2.148z" class="st3"/><path d="M636.6 452.4s4.8-8.3 6.5-16.2c1.1-5.4 1.3-14.4 1.3-14.4" class="st5"/><path stroke-width=".6" d="m407.84 682.582 33.555-56.37 2.149 1.278-33.555 56.37z" class="st3"/><path d="M444.2 627.5s-8.3-4.8-16.2-6.5c-5.4-1.1-14.4-1.3-14.4-1.3" class="st5"/><path stroke-width=".6" d="m381.962 746.363 23.784-39.958 2.149 1.28-23.785 39.957z" class="st3"/><path d="M381.3 746.4s8.3 4.8 16.2 6.5c5.4 1.1 14.4 1.3 14.4 1.3" class="st5"/><path d="m337.2 904.5 59.9-35.6-1.3-2.2-59.9 35.6 1.3 2.2" class="st3"/><path d="M337.2 905.1s-4.8-8.3-6.5-16.2c-1.1-5.4-1.3-14.4-1.3-14.4" class="st5"/><path d="M453.5 751.6c-6.8 0-12.3 5.5-12.3 12.3v17.9c0 1.2 1 2.1 2.1 2.1h20.4c1.2 0 2.1-1 2.1-2.1v-17.9c.1-6.8-5.5-12.3-12.3-12.3m10.3 33.2h-20.4c-1.6 0-3-1.3-3-3v-17.9c0-7.3 5.9-13.2 13.2-13.2 7.3 0 13.2 5.9 13.2 13.2v17.9c-.1 1.6-1.4 3-3 3" class="st2"/><path d="M453.5 751.6c-6.8 0-12.3 5.5-12.3 12.3v17.9c0 1.2 1 2.1 2.1 2.1h20.4c1.2 0 2.1-1 2.1-2.1v-17.9c.1-6.8-5.5-12.3-12.3-12.3zm10.3 33.2h-20.4c-1.6 0-3-1.3-3-3v-17.9c0-7.3 5.9-13.2 13.2-13.2 7.3 0 13.2 5.9 13.2 13.2v17.9c-.1 1.6-1.4 3-3 3z" class="st6"/><path d="M444.7 777.9h17.7c.1 0 .2-.1.2-.2v-13.5c0-5-4.1-9.1-9.1-9.1s-9.1 4.1-9.1 9.1v13.5c.1.1.2.2.3.2z" class="st6"/><path d="M444.9 777.5h17.3v-13.3c0-4.8-3.9-8.6-8.6-8.6-4.8 0-8.6 3.9-8.6 8.6v13.3zm17.5.9h-17.7c-.3 0-.6-.3-.6-.6v-13.5c0-5.2 4.3-9.5 9.5-9.5s9.5 4.3 9.5 9.5v13.5c-.1.3-.4.6-.7.6" class="st2"/><path d="M444.9 777.5h17.3v-13.3c0-4.8-3.9-8.6-8.6-8.6-4.8 0-8.6 3.9-8.6 8.6v13.3zm17.5.9h-17.7c-.3 0-.6-.3-.6-.6v-13.5c0-5.2 4.3-9.5 9.5-9.5s9.5 4.3 9.5 9.5v13.5c-.1.3-.4.6-.7.6z" class="st6"/><path d="M453.5 764.2c-1.3 0-2.3 1-2.3 2.3 0 1.3 1 2.3 2.3 2.3 1.3 0 2.3-1 2.3-2.3.1-1.2-1-2.3-2.3-2.3m0 5.6c-1.8 0-3.2-1.4-3.2-3.2 0-1.8 1.4-3.2 3.2-3.2 1.8 0 3.2 1.4 3.2 3.2 0 1.7-1.4 3.2-3.2 3.2" class="st2"/><path d="M453.5 764.2c-1.3 0-2.3 1-2.3 2.3 0 1.3 1 2.3 2.3 2.3 1.3 0 2.3-1 2.3-2.3.1-1.2-1-2.3-2.3-2.3zm0 5.6c-1.8 0-3.2-1.4-3.2-3.2 0-1.8 1.4-3.2 3.2-3.2 1.8 0 3.2 1.4 3.2 3.2 0 1.7-1.4 3.2-3.2 3.2z" class="st6"/><path d="m446.6 776.2-.6-.5 4.2-5.6.7.5z" class="st2"/><path d="m446.6 776.2-.6-.5 4.2-5.6.7.5z" class="st6"/><path d="m460.3 776.2-4.2-5.6.6-.5 4.3 5.6z" class="st2"/><path d="m460.3 776.2-4.2-5.6.6-.5 4.3 5.6z" class="st6"/><path d="M445 784.8c-1.9 0-3.4 1.5-3.4 3.4v4.7c0 1.9 1.5 3.4 3.4 3.4h17c1.9 0 3.4-1.5 3.4-3.4v-4.7c0-1.9-1.5-3.4-3.4-3.4h-17zm17.1 12.3h-17c-2.4 0-4.3-1.9-4.3-4.3v-4.7c0-2.4 1.9-4.3 4.3-4.3h17c2.4 0 4.3 1.9 4.3 4.3v4.7c-.1 2.4-2 4.3-4.3 4.3" class="st2"/><path d="M445 784.8c-1.9 0-3.4 1.5-3.4 3.4v4.7c0 1.9 1.5 3.4 3.4 3.4h17c1.9 0 3.4-1.5 3.4-3.4v-4.7c0-1.9-1.5-3.4-3.4-3.4h-17zm17.1 12.3h-17c-2.4 0-4.3-1.9-4.3-4.3v-4.7c0-2.4 1.9-4.3 4.3-4.3h17c2.4 0 4.3 1.9 4.3 4.3v4.7c-.1 2.4-2 4.3-4.3 4.3z" class="st6"/><path d="M453.5 789.2c-.7 0-1.3.6-1.3 1.3 0 .7.6 1.3 1.3 1.3.7 0 1.3-.6 1.3-1.3.1-.7-.5-1.3-1.3-1.3m0 3.5c-1.2 0-2.2-1-2.2-2.2 0-1.2 1-2.2 2.2-2.2 1.2 0 2.2 1 2.2 2.2 0 1.2-1 2.2-2.2 2.2" class="st2"/><path d="M453.5 789.2c-.7 0-1.3.6-1.3 1.3 0 .7.6 1.3 1.3 1.3.7 0 1.3-.6 1.3-1.3.1-.7-.5-1.3-1.3-1.3zm0 3.5c-1.2 0-2.2-1-2.2-2.2 0-1.2 1-2.2 2.2-2.2 1.2 0 2.2 1 2.2 2.2 0 1.2-1 2.2-2.2 2.2z" class="st6"/><path d="M609.9 279.4c6.8 0 12.3-5.5 12.3-12.3v-17.9c0-1.2-1-2.1-2.1-2.1h-20.4c-1.2 0-2.1 1-2.1 2.1V267c-.1 6.8 5.5 12.4 12.3 12.4m-10.3-33.2H620c1.6 0 3 1.3 3 3V267c0 7.3-5.9 13.2-13.2 13.2-7.3 0-13.2-5.9-13.2-13.2v-17.9c.1-1.6 1.4-2.9 3-2.9" class="st2"/><path d="M609.9 279.4c6.8 0 12.3-5.5 12.3-12.3v-17.9c0-1.2-1-2.1-2.1-2.1h-20.4c-1.2 0-2.1 1-2.1 2.1V267c-.1 6.8 5.5 12.4 12.3 12.4zm-10.3-33.2H620c1.6 0 3 1.3 3 3V267c0 7.3-5.9 13.2-13.2 13.2-7.3 0-13.2-5.9-13.2-13.2v-17.9c.1-1.6 1.4-2.9 3-2.9z" class="st6"/><path d="M618.7 253H601c-.1 0-.2.1-.2.2v13.5c0 5 4.1 9.1 9.1 9.1s9.1-4.1 9.1-9.1v-13.5c-.1-.1-.2-.2-.3-.2z" class="st6"/><path d="M618.5 253.4h-17.3v13.3c0 4.8 3.9 8.6 8.6 8.6 4.8 0 8.6-3.9 8.6-8.6v-13.3zm-17.5-.8h17.7c.3 0 .6.3.6.6v13.5c0 5.2-4.3 9.5-9.5 9.5s-9.5-4.3-9.5-9.5v-13.5c.1-.4.4-.6.7-.6" class="st2"/><path d="M618.5 253.4h-17.3v13.3c0 4.8 3.9 8.6 8.6 8.6 4.8 0 8.6-3.9 8.6-8.6v-13.3zm-17.5-.8h17.7c.3 0 .6.3.6.6v13.5c0 5.2-4.3 9.5-9.5 9.5s-9.5-4.3-9.5-9.5v-13.5c.1-.4.4-.6.7-.6z" class="st6"/><path d="M609.9 266.7c1.3 0 2.3-1 2.3-2.3 0-1.3-1-2.3-2.3-2.3-1.3 0-2.3 1-2.3 2.3-.1 1.2 1 2.3 2.3 2.3m0-5.5c1.8 0 3.2 1.4 3.2 3.2 0 1.8-1.4 3.2-3.2 3.2-1.8 0-3.2-1.4-3.2-3.2 0-1.8 1.4-3.2 3.2-3.2" class="st2"/><path d="M609.9 266.7c1.3 0 2.3-1 2.3-2.3 0-1.3-1-2.3-2.3-2.3-1.3 0-2.3 1-2.3 2.3-.1 1.2 1 2.3 2.3 2.3zm0-5.5c1.8 0 3.2 1.4 3.2 3.2 0 1.8-1.4 3.2-3.2 3.2-1.8 0-3.2-1.4-3.2-3.2 0-1.8 1.4-3.2 3.2-3.2z" class="st6"/><path d="m616.8 254.7.6.5-4.2 5.7-.7-.5z" class="st2"/><path d="m616.8 254.7.6.5-4.2 5.7-.7-.5z" class="st6"/><path d="m602.451 255.153.64-.48 4.254 5.686-.64.479z" class="st2"/><path stroke-width=".248" d="m602.451 255.153.64-.48 4.254 5.686-.64.479z" class="st6"/><path d="M618.4 246.1c1.9 0 3.4-1.5 3.4-3.4V238c0-1.9-1.5-3.4-3.4-3.4h-17c-1.9 0-3.4 1.5-3.4 3.4v4.7c0 1.9 1.5 3.4 3.4 3.4h17zm-17.1-12.3h17c2.4 0 4.3 1.9 4.3 4.3v4.7c0 2.4-1.9 4.3-4.3 4.3h-17c-2.4 0-4.3-1.9-4.3-4.3V238c.1-2.3 2-4.2 4.3-4.2" class="st2"/><path d="M618.4 246.1c1.9 0 3.4-1.5 3.4-3.4V238c0-1.9-1.5-3.4-3.4-3.4h-17c-1.9 0-3.4 1.5-3.4 3.4v4.7c0 1.9 1.5 3.4 3.4 3.4h17zm-17.1-12.3h17c2.4 0 4.3 1.9 4.3 4.3v4.7c0 2.4-1.9 4.3-4.3 4.3h-17c-2.4 0-4.3-1.9-4.3-4.3V238c.1-2.3 2-4.2 4.3-4.2z" class="st6"/><path d="M609.9 241.7c.7 0 1.3-.6 1.3-1.3 0-.7-.6-1.3-1.3-1.3-.7 0-1.3.6-1.3 1.3-.1.7.5 1.3 1.3 1.3m0-3.5c1.2 0 2.2 1 2.2 2.2 0 1.2-1 2.2-2.2 2.2-1.2 0-2.2-1-2.2-2.2 0-1.2 1-2.2 2.2-2.2" class="st2"/><path d="M609.9 241.7c.7 0 1.3-.6 1.3-1.3 0-.7-.6-1.3-1.3-1.3-.7 0-1.3.6-1.3 1.3-.1.7.5 1.3 1.3 1.3zm0-3.5c1.2 0 2.2 1 2.2 2.2 0 1.2-1 2.2-2.2 2.2-1.2 0-2.2-1-2.2-2.2 0-1.2 1-2.2 2.2-2.2z" class="st6"/><path d="M476.3 715.3c0-5.8 4.7-10.5 10.5-10.5H498c.9 0 1.6.7 1.6 1.6v23.7c0 .9-.7 1.6-1.6 1.6h-11.1c-5.8 0-10.5-4.7-10.5-10.5v-5.9zm23.8 14.8v-23.7c0-1.2-1-2.2-2.2-2.2h-11.1c-6.1 0-11.1 5-11.1 11.1v5.9c0 6.1 5 11.1 11.1 11.1H498c1.2 0 2.1-1 2.1-2.2" class="st2"/><path d="M476.3 715.3c0-5.8 4.7-10.5 10.5-10.5H498c.9 0 1.6.7 1.6 1.6v23.7c0 .9-.7 1.6-1.6 1.6h-11.1c-5.8 0-10.5-4.7-10.5-10.5v-5.9zm23.8 14.8v-23.7c0-1.2-1-2.2-2.2-2.2h-11.1c-6.1 0-11.1 5-11.1 11.1v5.9c0 6.1 5 11.1 11.1 11.1H498c1.2 0 2.1-1 2.1-2.2z" class="st8"/><path d="M478.9 715.3c0-4.3 3.5-7.9 7.9-7.9h6.5c.8 0 1.4.6 1.4 1.4v18.9c0 .8-.6 1.4-1.4 1.4h-6.5c-4.3 0-7.9-3.5-7.9-7.9v-5.9zm16.4 12.4v-18.9c0-1.1-.9-2-2-2h-6.5c-4.7 0-8.5 3.8-8.5 8.5v5.9c0 4.7 3.8 8.5 8.5 8.5h6.5c1.1 0 2-.9 2-2" class="st2"/><path d="M478.9 715.3c0-4.3 3.5-7.9 7.9-7.9h6.5c.8 0 1.4.6 1.4 1.4v18.9c0 .8-.6 1.4-1.4 1.4h-6.5c-4.3 0-7.9-3.5-7.9-7.9v-5.9zm16.4 12.4v-18.9c0-1.1-.9-2-2-2h-6.5c-4.7 0-8.5 3.8-8.5 8.5v5.9c0 4.7 3.8 8.5 8.5 8.5h6.5c1.1 0 2-.9 2-2z" class="st8"/><path d="M484.5 718.2c0-.7.6-1.3 1.3-1.3.7 0 1.3.6 1.3 1.3 0 .7-.6 1.3-1.3 1.3-.8 0-1.3-.6-1.3-1.3m3.1 0c0-1-.8-1.9-1.9-1.9-1 0-1.9.8-1.9 1.9 0 1 .8 1.9 1.9 1.9 1.1 0 1.9-.8 1.9-1.9" class="st2"/><path d="M484.5 718.2c0-.7.6-1.3 1.3-1.3.7 0 1.3.6 1.3 1.3 0 .7-.6 1.3-1.3 1.3-.8 0-1.3-.6-1.3-1.3zm3.1 0c0-1-.8-1.9-1.9-1.9-1 0-1.9.8-1.9 1.9 0 1 .8 1.9 1.9 1.9 1.1 0 1.9-.8 1.9-1.9z" class="st8"/><path d="M677.8 261.5c0 6.5-5.3 11.8-11.8 11.8h-12.5c-1 0-1.8-.8-1.8-1.8v-26.7c0-1 .8-1.8 1.8-1.8H666c6.5 0 11.8 5.3 11.8 11.8v6.7zM651 244.8v26.7c0 1.4 1.1 2.5 2.5 2.5H666c6.9 0 12.5-5.6 12.5-12.5v-6.7c0-6.9-5.6-12.5-12.5-12.5h-12.5c-1.4 0-2.5 1.2-2.5 2.5" class="st2"/><path d="M677.8 261.5c0 6.5-5.3 11.8-11.8 11.8h-12.5c-1 0-1.8-.8-1.8-1.8v-26.7c0-1 .8-1.8 1.8-1.8H666c6.5 0 11.8 5.3 11.8 11.8v6.7zM651 244.8v26.7c0 1.4 1.1 2.5 2.5 2.5H666c6.9 0 12.5-5.6 12.5-12.5v-6.7c0-6.9-5.6-12.5-12.5-12.5h-12.5c-1.4 0-2.5 1.2-2.5 2.5z" class="st9"/><path d="M674.8 261.5c0 4.9-4 8.8-8.9 8.8h-7.3c-.9 0-1.5-.7-1.5-1.5v-21.3c0-.9.7-1.5 1.5-1.5h7.3c4.9 0 8.9 4 8.9 8.9v6.6zm-18.4-14v21.3c0 1.2 1 2.2 2.2 2.2h7.3c5.2 0 9.5-4.3 9.5-9.5v-6.7c0-5.2-4.3-9.5-9.5-9.5h-7.3c-1.2 0-2.2 1-2.2 2.2" class="st2"/><path d="M674.8 261.5c0 4.9-4 8.8-8.9 8.8h-7.3c-.9 0-1.5-.7-1.5-1.5v-21.3c0-.9.7-1.5 1.5-1.5h7.3c4.9 0 8.9 4 8.9 8.9v6.6zm-18.4-14v21.3c0 1.2 1 2.2 2.2 2.2h7.3c5.2 0 9.5-4.3 9.5-9.5v-6.7c0-5.2-4.3-9.5-9.5-9.5h-7.3c-1.2 0-2.2 1-2.2 2.2z" class="st9"/><path d="M668.6 258.2c0 .8-.7 1.5-1.5 1.5s-1.5-.7-1.5-1.5.7-1.5 1.5-1.5 1.5.7 1.5 1.5m-3.6 0c0 1.2 1 2.1 2.1 2.1 1.2 0 2.1-1 2.1-2.1 0-1.2-1-2.1-2.1-2.1-1.1-.1-2.1.9-2.1 2.1" class="st2"/><path d="M668.6 258.2c0 .8-.7 1.5-1.5 1.5s-1.5-.7-1.5-1.5.7-1.5 1.5-1.5 1.5.7 1.5 1.5zm-3.6 0c0 1.2 1 2.1 2.1 2.1 1.2 0 2.1-1 2.1-2.1 0-1.2-1-2.1-2.1-2.1-1.1-.1-2.1.9-2.1 2.1z" class="st9"/><path d="M651.1 278.4h41.3v40.3h-41.3zm-.1.6 41.2 39.6m-41.2.5 41.2-39.7" class="st7"/><path d="M285.7 552.5h38.9v-38.9h-38.9v38.9zm-.9-39.7h40.6v40.6h-40.6v-40.6z" class="st2"/><path d="M285.7 552.5h38.9v-38.9h-38.9v38.9zm-.9-39.7h40.6v40.6h-40.6v-40.6z" class="st10"/><path d="M321 519.5c0-1-.8-1.7-1.7-1.7h-20.4c-1 0-1.7.8-1.7 1.7v27.2c0 1 .8 1.7 1.7 1.7h20.4c1 0 1.7-.8 1.7-1.7v-27.2zm-24.8 27.2v-27.2c0-1.4 1.2-2.6 2.6-2.6h20.4c1.4 0 2.6 1.2 2.6 2.6v27.2c0 1.4-1.2 2.6-2.6 2.6h-20.4c-1.4 0-2.6-1.2-2.6-2.6" class="st2"/><path d="M321 519.5c0-1-.8-1.7-1.7-1.7h-20.4c-1 0-1.7.8-1.7 1.7v27.2c0 1 .8 1.7 1.7 1.7h20.4c1 0 1.7-.8 1.7-1.7v-27.2zm-24.8 27.2v-27.2c0-1.4 1.2-2.6 2.6-2.6h20.4c1.4 0 2.6 1.2 2.6 2.6v27.2c0 1.4-1.2 2.6-2.6 2.6h-20.4c-1.4 0-2.6-1.2-2.6-2.6z" class="st10"/><path d="M300.1 545.4H318v-24.7h-17.9v24.7zm-.9-25.5h19.6v26.4h-19.6v-26.4z" class="st2"/><path d="M300.1 545.4H318v-24.7h-17.9v24.7zm-.9-25.5h19.6v26.4h-19.6v-26.4z" class="st10"/><path d="M312.5 533.1c0-1.2-1-2.3-2.3-2.3-1.2 0-2.3 1-2.3 2.3s1 2.3 2.3 2.3c1.3-.1 2.3-1.1 2.3-2.3m-5.4 0c0-1.7 1.4-3.1 3.1-3.1 1.7 0 3.1 1.4 3.1 3.1 0 1.7-1.4 3.1-3.1 3.1-1.7 0-3.1-1.4-3.1-3.1" class="st2"/><path d="M312.5 533.1c0-1.2-1-2.3-2.3-2.3-1.2 0-2.3 1-2.3 2.3s1 2.3 2.3 2.3c1.3-.1 2.3-1.1 2.3-2.3zm-5.4 0c0-1.7 1.4-3.1 3.1-3.1 1.7 0 3.1 1.4 3.1 3.1 0 1.7-1.4 3.1-3.1 3.1-1.7 0-3.1-1.4-3.1-3.1z" class="st10"/><path d="M275.9 580h31.6" class="st3"/><path d="M671.1 215.4c0 1 .8 1.8 1.9 1.8 1 0 1.9-.8 1.9-1.8s-.8-1.8-1.9-1.8c-1.1 0-1.9.8-1.9 1.8z" class="st7"/><path d="M761.2 207.1c0-6.6-5.4-12-12-12h-84.3c-6.6 0-12 5.4-12 12v16.6c0 6.6 5.4 12 12 12h84.3c6.6 0 12-5.4 12-12v-16.6z" class="st7"/><path d="M753.6 210.9c0-6.6-5.4-12-12-12h-69.3c-6.6 0-12 5.4-12 12v9c0 6.6 5.4 12 12 12h69.3c6.6 0 12-5.4 12-12v-9z" class="st7"/><path d="M744.6 208.5c0-3.3-2.7-6-6-6h-68c-3.3 0-6 2.7-6 6v13.7c0 3.3 2.7 6 6 6h68c3.3 0 6-2.7 6-6v-13.7zm22.6 29.4H650.7m115.9.6V183" class="st7"/><path d="M549.8 440.7v157.9" style="fill:none;stroke:#39373a;stroke-dasharray:4.184,4.184"/><path d="M535.6 608.8H408.3" style="fill:none;stroke:#39373a;stroke-dasharray:3.875,3.875"/><path d="M403.6 608.8h-4.7m150.9-5.1v5.1h-4.7m4.7-183.3v5.1" style="fill:none;stroke:#39373a"/><path d="M429.9 370h4.2c1.5 0 2 .2 2 1.4 0 1-.1 1.6-1.8 1.6h-2.9v2.6h2.9c1.6 0 2 .5 2 1.8 0 1.5-.6 1.8-2.5 1.8-1.3 0-2.3 0-4.2-.1l-.1 3c1.7.2 3.6.4 5.4.4 4 0 5.5-1.3 5.4-4.5 0-2.3-.7-3.5-2.8-3.8v-.1c2-.3 2.4-1.7 2.4-3.8 0-2.7-1.4-3.5-5.1-3.5-1.7 0-3.4.1-5.1.4l.2 2.8zm-4.5 8.5c-1.1 0-1.4.3-1.4 1.4v1c0 1.1.3 1.4 1.4 1.4h.9c1.1 0 1.4-.3 1.4-1.4v-1c0-1.1-.3-1.4-1.4-1.4h-.9zm-13.6-8.5h4.2c1.5 0 2 .2 2 1.4 0 1-.1 1.6-1.8 1.6h-2.9v2.6h2.9c1.6 0 2 .5 2 1.8 0 1.5-.6 1.8-2.5 1.8-1.3 0-2.3 0-4.2-.1l-.1 3c1.7.2 3.6.4 5.4.4 4 0 5.5-1.3 5.4-4.5 0-2.3-.7-3.5-2.8-3.8v-.1c2-.3 2.4-1.7 2.4-3.8 0-2.7-1.4-3.5-5.1-3.5-1.7 0-3.4.1-5.1.4l.2 2.8zm-3 12.2V367h-4.1l-3.8 1.5.5 2.6 3.5-.8c-.1.6-.2 1.2-.2 1.8v10h4.1zm90-30.1c0-.5.3-.8.9-.9h2.3v1.4c-.7.5-1.5.7-2.1.7-.7 0-1.1-.3-1.1-.9v-.3zm-3-4.3c1.8-.1 3.6-.2 4.7-.2s1.5.3 1.5 1.3v.3h-3.6c-2.2 0-3.5 1.1-3.5 2.8v1.1c0 2 1.6 3.1 3.7 3.1 1.9 0 3.1-1 3.9-1.9l.4 1.6h3.2v-7c0-3.2-1.6-4.3-4.6-4.3-1.6 0-4.3.2-6 .5l.3 2.7zm-1.8.1v-3h-10.9v3h3.5v7.9h4v-7.9h3.4zm-19.5 4.2c0-.5.3-.8.9-.9h2.3v1.4c-.7.5-1.5.7-2.1.7-.7 0-1.1-.3-1.1-.9v-.3zm-3-4.3c1.8-.1 3.6-.2 4.7-.2s1.5.3 1.5 1.3v.3h-3.6c-2.2 0-3.5 1.1-3.5 2.8v1.1c0 2 1.6 3.1 3.7 3.1 1.9 0 3.1-1 3.9-1.9l.4 1.6h3.2v-7c0-3.2-1.6-4.3-4.6-4.3-1.6 0-4.3.2-6 .5l.3 2.7zm-2.7-2.9h-3.9v3.8h-3.3v-3.8h-3.9v10.9h3.9v-4.4h3.3v4.4h3.9v-10.9zm-18.5 0c-.8 0-1.4.4-1.5 1.2l-.9 4.1c-.1.6-.1 1.1-.2 1.6h-.2c-.1-.6-.1-1.1-.2-1.6l-1-4.1c-.1-.8-.7-1.2-1.5-1.2h-3.4c-.9 0-1.4.5-1.4 1.4l-.3 9.5h3.6l.2-8h.3l1.3 5.3c.2.8.7 1.2 1.5 1.2h1.8c.9 0 1.3-.4 1.5-1.2l1.3-5.3h.3l.3 8h3.6l-.3-9.5c0-.9-.5-1.4-1.4-1.4h-3.4zm-18.1 2.5c1.3 0 1.7.6 1.7 3s-.4 2.9-1.7 2.9c-1.4 0-1.7-.5-1.7-2.9s.3-3 1.7-3m0-2.8c-4.3 0-5.9 1.6-5.9 5.8 0 4.2 1.6 5.7 5.9 5.7 4.3 0 5.9-1.5 5.9-5.7s-1.6-5.8-5.9-5.8m-10.9 5.5c2.5-.4 2.4-.6 3.8-5.2h-4c-.9 3.6-1 4-2.6 4h-.5c.1-.5.2-.9.2-1.4v-2.6h-4v10.9h4v-3.4c0-.3 0-.6-.1-.9h.9c1.2 0 1.3.3 2.4 4.3h4.2c-1.5-5.2-1.6-5.2-4.2-5.6v-.1zm-18.1-.3h-1.6c-1 0-1.2-.3-1.2-1.4 0-.8.2-1 1.2-1h1.6v2.4zm-4.2 1.4c-.7.1-1.8.2-2.1 1.2l-.9 3.4h4.1l.7-2.9c.1-.5.3-.6 1-.6h1.4v3.6h3.9v-11c-1.4-.2-2.5-.2-5.5-.2-4 0-5 .8-5 3.5 0 1.3.5 2.6 2.4 3zm-11.6.9c0-.5.3-.8.9-.9h2.3v1.4c-.7.5-1.5.7-2.1.7-.7 0-1.1-.3-1.1-.9v-.3zm-3-4.3c1.8-.1 3.6-.2 4.7-.2s1.5.3 1.5 1.3v.3H387c-2.2 0-3.5 1.1-3.5 2.8v1.1c0 2 1.6 3.1 3.7 3.1 1.9 0 3.1-1 3.9-1.9l.4 1.6h3.2v-7c0-3.2-1.6-4.3-4.6-4.3-1.6 0-4.3.2-6 .5l.3 2.7zm-2.8-2.9H375c-1.9 0-2.9 1-3 2.8-.2 2-.4 3.5-.6 4.3-.2.9-.9.9-1.8 1l.4 2.9c2.4.4 4.6-.2 5-2.9.2-1.1.5-2.9.7-4.6.1-.6.4-.9 1-.9h.9v8.3h4v-10.9zm-13.3 11V345h-3.5l-3.5 5.2c-.3.5-.6 1-.8 1.6h-.1c.1-.6.2-1.1.2-1.7V345H357v10.9h3.5l3.4-5c.3-.5.7-1.2.9-1.8h.1c-.1.7-.2 1.3-.2 1.9v4.9h3.6zm-17.8-8c2.9-.4 3-1.8 4.6-7.2H351c-1.4 4.5-1.6 5.9-3.1 5.9h-.7c.1-.6.2-1.3.2-1.9v-4h-3.9v4c0 .6.1 1.3.2 1.9h-.8c-1.5 0-1.7-1.4-3.1-5.9h-4.2c1.6 5.4 1.7 6.8 4.6 7.2v.1c-3.1.4-3.2 1.6-5 7.8h4.3c1.7-5.5 1.9-6.5 3.3-6.5h.8c-.1.5-.2 1-.2 1.4v5.1h3.9v-5.1c0-.4-.1-.9-.2-1.4h.7c1.5 0 1.7 1 3.4 6.5h4.3c-1.8-6.2-2-7.4-5-7.8v-.1zm595.9-28.7h4.2c1.5 0 2 .2 2 1.4 0 1-.1 1.6-1.8 1.6h-2.9v2.6h2.9c1.6 0 2 .5 2 1.8 0 1.5-.6 1.8-2.5 1.8-1.3 0-2.3 0-4.2-.1l-.1 3c1.7.2 3.6.4 5.4.4 4 0 5.5-1.3 5.4-4.5 0-2.3-.7-3.5-2.8-3.8v-.1c2-.3 2.4-1.7 2.4-3.8 0-2.7-1.4-3.5-5.1-3.5-1.7 0-3.4.1-5.1.4l.2 2.8zm-4.4 8.4c-1.1 0-1.4.3-1.4 1.4v1c0 1.1.3 1.4 1.4 1.4h.9c1.1 0 1.4-.3 1.4-1.4v-1c0-1.1-.3-1.4-1.4-1.4h-.9zm-13.7-8.4h4.2c1.5 0 2 .2 2 1.4 0 1-.1 1.6-1.8 1.6h-2.9v2.6h2.9c1.6 0 2 .5 2 1.8 0 1.5-.6 1.8-2.5 1.8-1.3 0-2.3 0-4.2-.1l-.1 3c1.7.2 3.6.4 5.4.4 4 0 5.5-1.3 5.4-4.5 0-2.3-.7-3.5-2.8-3.8v-.1c2-.3 2.4-1.7 2.4-3.8 0-2.7-1.4-3.5-5.1-3.5-1.7 0-3.4.1-5.1.4l.2 2.8zm-3 12.1v-15.1h-4.1l-3.8 1.5.5 2.6 3.5-.8c-.1.6-.2 1.2-.2 1.8v10h4.1zm90-30.1c0-.5.3-.8.9-.9h2.3v1.4c-.7.5-1.5.7-2.1.7-.7 0-1.1-.3-1.1-.9v-.3zm-3-4.3c1.8-.1 3.6-.2 4.7-.2s1.5.3 1.5 1.3v.3h-3.6c-2.2 0-3.5 1.1-3.5 2.8v1.1c0 2 1.6 3.1 3.7 3.1 1.9 0 3.1-1 3.9-1.9l.4 1.6h3.2v-7c0-3.2-1.6-4.3-4.6-4.3-1.6 0-4.3.2-6 .5l.3 2.7zm-1.7.2v-3h-10.9v3h3.5v7.9h4v-7.9h3.4zm-19.5 4.1c0-.5.3-.8.9-.9h2.3v1.4c-.7.5-1.5.7-2.1.7-.7 0-1.1-.3-1.1-.9v-.3zm-3-4.3c1.8-.1 3.6-.2 4.7-.2s1.5.3 1.5 1.3v.3h-3.6c-2.2 0-3.5 1.1-3.5 2.8v1.1c0 2 1.6 3.1 3.7 3.1 1.9 0 3.1-1 3.9-1.9l.4 1.6h3.2v-7c0-3.2-1.6-4.3-4.6-4.3-1.6 0-4.3.2-6 .5l.3 2.7zm-2.8-2.8h-3.9v3.8h-3.3v-3.8h-3.9V305h3.9v-4.4h3.3v4.4h3.9v-10.9zm-18.4 0c-.8 0-1.4.4-1.5 1.2l-.9 4.1c-.1.6-.1 1.1-.2 1.6h-.2c-.1-.6-.1-1.1-.2-1.6l-1-4.1c-.1-.8-.7-1.2-1.5-1.2H958c-.9 0-1.4.5-1.4 1.4l-.3 9.5h3.6l.2-8h.3l1.3 5.3c.2.8.7 1.2 1.5 1.2h1.8c.9 0 1.3-.4 1.5-1.2l1.3-5.3h.3l.3 8h3.6l-.3-9.5c0-.9-.5-1.4-1.4-1.4h-3.4zm-18.2 2.5c1.3 0 1.7.6 1.7 3s-.4 2.9-1.7 2.9c-1.4 0-1.7-.5-1.7-2.9 0-2.5.4-3 1.7-3m0-2.8c-4.3 0-5.9 1.6-5.9 5.8 0 4.2 1.6 5.7 5.9 5.7 4.3 0 5.9-1.5 5.9-5.7 0-4.3-1.6-5.8-5.9-5.8m-10.9 5.5c2.5-.4 2.4-.6 3.8-5.2h-4c-.9 3.6-1 4-2.6 4h-.5c.1-.5.2-.9.2-1.4v-2.6h-4V305h4v-3.4c0-.3 0-.6-.1-.9h.9c1.2 0 1.3.3 2.4 4.3h4.2c-1.5-5.2-1.6-5.2-4.2-5.6v-.1zm-18-.3h-1.6c-1 0-1.2-.3-1.2-1.4 0-.8.2-1 1.2-1h1.6v2.4zm-4.3 1.4c-.7.1-1.8.2-2.1 1.2l-.9 3.4h4.1l.7-2.9c.1-.5.3-.6 1-.6h1.4v3.6h3.9v-11c-1.4-.2-2.5-.2-5.5-.2-4 0-5 .8-5 3.5 0 1.3.6 2.5 2.4 3zm-11.6.8c0-.5.3-.8.9-.9h2.3v1.4c-.7.5-1.5.7-2.1.7-.7 0-1.1-.3-1.1-.9v-.3zm-3-4.3c1.8-.1 3.6-.2 4.7-.2s1.5.3 1.5 1.3v.3h-3.6c-2.2 0-3.5 1.1-3.5 2.8v1.1c0 2 1.6 3.1 3.7 3.1 1.9 0 3.1-1 3.9-1.9l.4 1.6h3.2v-7c0-3.2-1.6-4.3-4.6-4.3-1.6 0-4.3.2-6 .5l.3 2.7zm-2.7-2.8h-6.6c-1.9 0-2.9 1-3 2.8-.2 2-.4 3.5-.6 4.3-.2.9-.9.9-1.8 1l.4 2.9c2.4.4 4.6-.2 5-2.9.2-1.1.5-2.9.7-4.6.1-.6.4-.9 1-.9h.9v8.3h4v-10.9zM884.8 305v-10.9h-3.5l-3.5 5.2c-.3.5-.6 1-.8 1.6.1-.6.2-1.1.2-1.7v-5.1h-3.5V305h3.5l3.4-5c.3-.5.7-1.2.9-1.8h.1c-.1.7-.2 1.3-.2 1.9v4.9h3.4zm-17.7-8c2.9-.4 3-1.8 4.6-7.2h-4.2c-1.4 4.5-1.6 5.9-3.1 5.9h-.7c.1-.6.2-1.3.2-1.9v-4H860v4c0 .6.1 1.3.2 1.9h-.8c-1.5 0-1.7-1.4-3.1-5.9h-4.2c1.6 5.4 1.7 6.8 4.6 7.2v.1c-3.1.4-3.2 1.6-5 7.8h4.3c1.7-5.5 1.9-6.5 3.3-6.5h.8c-.1.5-.2 1-.2 1.4v5.1h3.9v-5.1c0-.4-.1-.9-.2-1.4h.7c1.5 0 1.7 1 3.4 6.5h4.3c-1.8-6.2-2-7.4-5-7.8v-.1zM451.4 534.7h-1.8v-6.3h-3.1l-.7 2.4v3.9h-3c-.4 0-.6-.2-.4-.6l3.3-8.6H442l-3.8 9.6c-.5 1.2.3 2.3 1.6 2.3h6.1v3.2h3.8v-3.2l1.8-.4v-2.3zm-17 2.2c-1.1 0-1.4.3-1.4 1.4v1c0 1.1.3 1.4 1.4 1.4h.9c1.1 0 1.4-.3 1.4-1.4v-1c0-1.1-.3-1.4-1.4-1.4h-.9zm-9.4-8.6c1.7 0 2.2.7 2.2 4.7s-.5 4.7-2.2 4.7c-1.6 0-2.1-.7-2.1-4.7s.5-4.7 2.1-4.7m0-3.1c-4.6 0-6.2 2-6.2 7.9s1.6 7.9 6.2 7.9 6.2-2 6.2-7.9-1.5-7.9-6.2-7.9m-8.8 15.5v-15.1h-4.1l-3.8 1.5.5 2.6 3.5-.8c-.1.6-.2 1.2-.2 1.8v10h4.1zm72.4-30.2c0-.5.3-.8.9-.9h2.3v1.4c-.7.5-1.5.7-2.1.7-.7 0-1.1-.3-1.1-.9v-.3zm-3-4.3c1.8-.1 3.6-.2 4.7-.2s1.5.3 1.5 1.3v.3h-3.6c-2.2 0-3.5 1.1-3.5 2.8v1.1c0 2 1.6 3.1 3.7 3.1 1.9 0 3.1-1 3.9-1.9l.4 1.6h3.2v-7c0-3.2-1.6-4.3-4.6-4.3-1.6 0-4.4.2-6 .5l.3 2.7zm-2.8-2.8H479v8.2h-2.6v-8.2h-3.5v8.2h-2.6v-8.2h-3.8v10.9h16.4v-10.9zm-18.7 10.9v-10.9h-3.5l-3.5 5.2c-.3.5-.6 1-.8 1.6h-.1c.1-.6.2-1.1.2-1.7v-5.1h-3.5v10.9h3.5l3.4-5c.3-.5.7-1.2.9-1.8h.1c-.1.7-.2 1.3-.2 1.9v4.9h3.5zm-13.7-10.9h-3.9v3.8h-3.3v-3.8h-3.9v10.9h3.9v-4.4h3.3v4.4h3.9v-10.9zm-13.4 4.1h-6.5v2.4h6.5v-2.4zm-12.6.8h-1.6c-1 0-1.2-.3-1.2-1.4 0-.8.2-1 1.2-1h1.6v2.4zm-4.3 1.4c-.7.1-1.8.2-2.1 1.2l-.9 3.4h4.1l.7-2.9c.1-.5.3-.6 1-.6h1.4v3.6h3.9v-11c-1.4-.2-2.5-.2-5.5-.2-4 0-5 .8-5 3.5 0 1.3.5 2.5 2.4 3zm-4.5-6.3h-3.9v3.8h-3.3v-3.8h-3.9v10.9h3.9v-4.4h3.3v4.4h3.9v-10.9zm-16.5 10.9h4l-3.2-5.6 3-5.3h-4l-2.2 4.1-2.1-4.1h-4l3 5.3-3.2 5.6h4l2.4-4.4 2.3 4.4zm-8.9-10.9H386l-1.6 6.5c-.1.5-.3 1.2-.5 1.9h-.2c-.1-.6-.2-1.3-.3-1.9l-1.6-6.5h-4.2l3.4 10c.2.6.7.9 1.3.9h.7c-.3.6-.7 1.1-1.1 1.3-.7.4-1.7.5-3.1.5l-.3 2.6c1.6.3 3.2.3 4.5-.2 1.7-.6 2.9-1.7 3.7-4.2l3.5-10.9zm-17.9 2.9c3-.4 3.1-1.8 4.8-7.2h-4.2c-1.2 4.5-1.5 5.9-3.6 5.9h-.7c.1-.6.2-1.3.2-1.9v-4h-4.1v15.1h4.1v-5.1c0-.4-.1-.9-.2-1.4h.8c2.1 0 2.3 1 3.8 6.5h4.3c-1.9-6.2-2.1-7.4-5.2-7.8v-.1zm417.8 41.9c2.1-.1 3.2-.1 4.7-.1 1.2 0 1.7.1 1.7.7 0 .9-1 2.2-2.7 4l-3.4 3.5c-.4.5-.6 1-.6 1.6v2.1h11.3v-3.6h-4.4c-.7 0-1.4 0-2.1.2l3.7-3.7c2-2.1 2.4-3.1 2.4-4.7 0-3-2.1-3.7-5.4-3.7-1.6 0-3.2.1-5.4.5l.2 3.2zm-4.4 8.2c-1.1 0-1.4.3-1.4 1.4v1c0 1.1.3 1.4 1.4 1.4h.9c1.1 0 1.4-.3 1.4-1.4v-1c0-1.1-.3-1.4-1.4-1.4h-.9zm-2.8-2.2h-1.8v-6.3H778l-.7 2.4v3.9h-3c-.4 0-.6-.2-.4-.6l3.3-8.6h-3.8l-3.8 9.6c-.5 1.2.3 2.3 1.6 2.3h6.1v3.2h3.8v-3.2l1.8-.4v-2.3zm-25.5-6c2.1-.1 3.2-.1 4.7-.1 1.2 0 1.7.1 1.7.7 0 .9-1 2.2-2.7 4l-3.4 3.5c-.4.5-.6 1-.6 1.6v2.1h11.3v-3.6H764c-.7 0-1.4 0-2.1.2l3.7-3.7c2-2.1 2.4-3.1 2.4-4.7 0-3-2.1-3.7-5.4-3.7-1.6 0-3.2.1-5.4.5l.2 3.2zm99.5-18.2c0-.5.3-.8.9-.9h2.3v1.4c-.7.5-1.5.7-2.1.7-.7 0-1.1-.3-1.1-.9v-.3zm-3-4.3c1.8-.1 3.6-.2 4.7-.2s1.5.3 1.5 1.3v.3h-3.6c-2.2 0-3.5 1.1-3.5 2.8v1.1c0 2 1.6 3.1 3.7 3.1 1.9 0 3.1-1 3.9-1.9l.4 1.6h3.2v-7c0-3.2-1.6-4.3-4.6-4.3-1.6 0-4.3.2-6 .5l.3 2.7zm-1.8.1v-3h-10.9v3h3.5v7.9h4v-7.9h3.4zm-19.5 4.2c0-.5.3-.8.9-.9h2.3v1.4c-.7.5-1.5.7-2.1.7-.7 0-1.1-.3-1.1-.9v-.3zm-3-4.3c1.8-.1 3.6-.2 4.7-.2s1.5.3 1.5 1.3v.3h-3.6c-2.2 0-3.5 1.1-3.5 2.8v1.1c0 2 1.6 3.1 3.7 3.1 1.9 0 3.1-1 3.9-1.9l.4 1.6h3.2v-7c0-3.2-1.6-4.3-4.6-4.3-1.6 0-4.3.2-6 .5l.3 2.7zm-2.7-2.9H823v3.8h-3.3v-3.8h-3.9v10.9h3.9v-4.4h3.3v4.4h3.9v-10.9zm-18.5 0c-.8 0-1.4.4-1.5 1.2l-.9 4.1c-.1.6-.1 1.1-.2 1.6h-.2c-.1-.6-.1-1.1-.2-1.6l-1-4.1c-.1-.8-.7-1.2-1.5-1.2h-3.4c-.9 0-1.4.5-1.4 1.4l-.3 9.5h3.6l.2-8h.3l1.3 5.3c.2.8.7 1.2 1.5 1.2h1.8c.9 0 1.3-.4 1.5-1.2l1.3-5.3h.3l.3 8h3.6l-.3-9.5c0-.9-.5-1.4-1.4-1.4h-3.4zm-18.1 2.5c1.3 0 1.7.6 1.7 3s-.4 2.9-1.7 2.9c-1.4 0-1.7-.5-1.7-2.9s.3-3 1.7-3m0-2.8c-4.3 0-5.9 1.6-5.9 5.8 0 4.2 1.6 5.7 5.9 5.7 4.3 0 5.9-1.5 5.9-5.7s-1.6-5.8-5.9-5.8m-10.9 5.5c2.5-.4 2.4-.6 3.8-5.2h-4c-.9 3.6-1 4-2.6 4h-.5c.1-.5.2-.9.2-1.4v-2.6h-4v10.9h4v-3.4c0-.3 0-.6-.1-.9h.9c1.2 0 1.3.3 2.4 4.3h4.2c-1.5-5.2-1.6-5.2-4.2-5.6v-.1zm-18.1-.3h-1.6c-1 0-1.2-.3-1.2-1.4 0-.8.2-1 1.2-1h1.6v2.4zm-4.2 1.4c-.7.1-1.8.2-2.1 1.2l-.9 3.4h4.1l.7-2.9c.1-.5.3-.6 1-.6h1.4v3.6h3.9v-11c-1.4-.2-2.5-.2-5.5-.2-4 0-5 .8-5 3.5 0 1.3.5 2.5 2.4 3zm-11.7.9c0-.5.3-.8.9-.9h2.3v1.4c-.7.5-1.5.7-2.1.7-.7 0-1.1-.3-1.1-.9v-.3zm-2.9-4.3c1.8-.1 3.6-.2 4.7-.2s1.5.3 1.5 1.3v.3H745c-2.2 0-3.5 1.1-3.5 2.8v1.1c0 2 1.6 3.1 3.7 3.1 1.9 0 3.1-1 3.9-1.9l.4 1.6h3.2v-7c0-3.2-1.6-4.3-4.6-4.3-1.6 0-4.3.2-6 .5l.4 2.7zm-2.8-2.9h-6.6c-1.9 0-2.9 1-3 2.8-.2 2-.4 3.5-.6 4.3-.2.9-.9.9-1.8 1l.4 2.9c2.4.4 4.6-.2 5-2.9.2-1.1.5-2.9.7-4.6.1-.6.4-.9 1-.9h.9v8.3h4v-10.9zm-13.3 11v-10.9h-3.5l-3.5 5.2c-.3.5-.6 1-.8 1.6h-.1c.1-.6.2-1.1.2-1.7v-5.1h-3.5v10.9h3.5l3.4-5c.3-.5.7-1.2.9-1.8h.1c-.1.7-.2 1.3-.2 1.9v4.9h3.5zm-17.8-8c2.9-.4 3-1.8 4.6-7.2H709c-1.4 4.5-1.6 5.9-3.1 5.9h-.7c.1-.6.2-1.3.2-1.9v-4h-3.9v4c0 .6.1 1.3.2 1.9h-.8c-1.5 0-1.7-1.4-3.1-5.9h-4.2c1.6 5.4 1.7 6.8 4.6 7.2v.1c-3.1.4-3.2 1.6-5 7.8h4.3c1.7-5.5 1.9-6.5 3.3-6.5h.8c-.1.5-.2 1-.2 1.4v5.1h3.9v-5.1c0-.4-.1-.9-.2-1.4h.7c1.5 0 1.7 1 3.4 6.5h4.3c-1.8-6.2-2-7.4-5-7.8v-.1zM691.3 387c0-1.8.2-2.5 1.7-2.5 1.7 0 1.9.6 1.9 3.9-.7.4-1.2.6-1.9.6-1.4 0-1.8-.4-1.7-2m-3.3 9.8c1.8.4 3.4.4 4.2.4 4.8 0 6.6-1.1 6.6-8 0-6.1-1-7.7-5.8-7.7-4.4 0-5.7 1.7-5.6 5.6 0 2.8 1 4.7 4.3 4.7 1.4 0 2.3-.2 3.1-.9-.1 2.6-.6 3.3-2.6 3.3h-4l-.2 2.6zm-4.6-3.6c-1.1 0-1.4.3-1.4 1.4v1c0 1.1.3 1.4 1.4 1.4h.9c1.1 0 1.4-.3 1.4-1.4v-1c0-1.1-.3-1.4-1.4-1.4h-.9zm-13.7-8.4h4.2c1.5 0 2 .2 2 1.4 0 1-.1 1.6-1.8 1.6h-2.9v2.6h2.9c1.6 0 2 .5 2 1.8 0 1.5-.6 1.8-2.5 1.8-1.3 0-2.3 0-4.2-.1l-.1 3c1.7.2 3.6.4 5.4.4 4 0 5.5-1.3 5.4-4.5 0-2.3-.7-3.5-2.8-3.8v-.1c2-.3 2.4-1.6 2.4-3.8 0-2.7-1.4-3.5-5.1-3.5-1.7 0-3.4.1-5.1.4l.2 2.8zm54-21.7c.7-.4 1.2-.7 2-.7 1 0 1.4.4 1.4 2.9s-.4 2.9-1.6 2.9c-.8 0-1.3-.2-1.9-.4v-4.7zm-.8-3.4h-3.2v15h4v-2.4c0-.8 0-1.6-.1-2.4.9.7 2.2 1 3.5 1 2.7 0 4.1-1.2 4.1-5.6 0-3.7-1.1-5.8-3.9-5.8-1.7 0-3.4.8-4.2 1.8l-.2-1.6zm-11 2.5c1.3 0 1.7.6 1.7 3s-.4 2.9-1.7 2.9c-1.4 0-1.7-.5-1.7-2.9s.4-3 1.7-3m0-2.8c-4.3 0-5.9 1.6-5.9 5.8 0 4.2 1.6 5.7 5.9 5.7 4.3 0 5.9-1.5 5.9-5.7s-1.6-5.8-5.9-5.8m-12.5 8.6h-3.2c.6-1.3.9-2.8 1.3-4.8.1-.6.4-.9 1-.9h1v5.7zm5.5 0h-1.8v-8.2h-6c-2 0-2.9.9-3.2 2.7-.3 1.9-.6 3.7-1.3 5.6h-1.4v5.7h2.6l.3-3h7.8l.3 3h2.6V368zm-15.1 2.6v-10.9h-3.5l-3.5 5.2c-.3.5-.6 1-.8 1.6h-.1c.1-.6.2-1.1.2-1.7v-5.1h-3.5v10.9h3.5l3.4-5c.3-.5.7-1.2.9-1.8h.1c-.1.7-.2 1.3-.2 1.9v4.9h3.5zm-20.8-7.5c.7-.4 1.2-.7 2-.7 1 0 1.4.4 1.4 2.9s-.4 2.9-1.6 2.9c-.8 0-1.3-.2-1.9-.4v-4.7zm-.7-3.4h-3.2v15h4v-2.4c0-.8 0-1.6-.1-2.4.9.7 2.2 1 3.5 1 2.7 0 4.1-1.2 4.1-5.6 0-3.7-1.1-5.8-3.9-5.8-1.7 0-3.4.8-4.2 1.8l-.2-1.6zm-11 2.5c1.3 0 1.7.6 1.7 3s-.4 2.9-1.7 2.9c-1.4 0-1.7-.5-1.7-2.9s.3-3 1.7-3m0-2.8c-4.3 0-5.9 1.6-5.9 5.8 0 4.2 1.6 5.7 5.9 5.7 4.3 0 5.9-1.5 5.9-5.7s-1.6-5.8-5.9-5.8m-11.9 3.3c3-.4 3.1-1.8 4.8-7.2H646c-1.2 4.5-1.5 5.9-3.6 5.9h-.7c.1-.6.2-1.3.2-1.9v-4h-4.1v15.1h4.1v-5.1c0-.4-.1-.9-.2-1.4h.8c2.1 0 2.3 1 3.8 6.5h4.3c-1.9-6.2-2.1-7.4-5.2-7.8v-.1zm-397.2 3.8c2.4 1 3.3 4.2 3.3 8.8 0 4.5-.9 7.7-3.3 8.8l.5 1.7c4.6-1.3 6.7-4.6 6.7-10.5s-2.1-9.2-6.7-10.5l-.5 1.7zm-11.7 3.8c2.1-.1 3.2-.1 4.7-.1 1.2 0 1.7.1 1.7.7 0 .9-1 2.2-2.7 4l-3.4 3.5c-.4.5-.6 1-.6 1.6v2.1h11.3v-3.6h-4.4c-.7 0-1.4 0-2.1.2l3.7-3.7c2-2.1 2.4-3.1 2.4-4.7 0-3-2.1-3.7-5.4-3.7-1.6 0-3.2.1-5.4.5l.2 3.2zm-4.4 8.2c-1.1 0-1.4.3-1.4 1.4v1c0 1.1.3 1.4 1.4 1.4h.9c1.1 0 1.4-.3 1.4-1.4v-1c0-1.1-.3-1.4-1.4-1.4h-.9zm-14.1-8.2c2.1-.1 3.2-.1 4.7-.1 1.2 0 1.7.1 1.7.7 0 .9-1 2.2-2.7 4l-3.4 3.5c-.4.5-.6 1-.6 1.6v2.1H229v-3.6h-4.4c-.7 0-1.4 0-2.1.2l3.7-3.7c2-2.1 2.4-3.1 2.4-4.7 0-3-2.1-3.7-5.4-3.7-1.6 0-3.2.1-5.4.5l.2 3.2zm-1.9-5.5c-4.6 1.3-6.7 4.6-6.7 10.5s2.1 9.2 6.7 10.5l.5-1.7c-2.4-1.1-3.3-4.3-3.3-8.8 0-4.6.9-7.7 3.3-8.8l-.5-1.7zm-12.6 11.5h-1.8V370h-3.1l-.7 2.4v3.9h-3c-.4 0-.6-.2-.4-.6l3.3-8.6H194l-3.8 9.6c-.5 1.2.3 2.3 1.6 2.3h6.1v3.2h3.8V379l1.8-.4v-2.3zm-16.9 2.2c-1.1 0-1.4.3-1.4 1.4v1c0 1.1.3 1.4 1.4 1.4h.9c1.1 0 1.4-.3 1.4-1.4v-1c0-1.1-.3-1.4-1.4-1.4h-.9zm-2.9-2.2h-1.8V370h-3.1l-.7 2.4v3.9h-3c-.4 0-.6-.2-.4-.6l3.3-8.6h-3.8l-3.8 9.6c-.5 1.2.3 2.3 1.6 2.3h6.1v3.2h3.8V379l1.8-.4v-2.3zm900 207.8c2.4 1 3.3 4.2 3.3 8.8 0 4.5-.9 7.7-3.3 8.8l.5 1.7c4.6-1.3 6.7-4.6 6.7-10.5s-2.1-9.2-6.7-10.5l-.5 1.7zm-6.3 12.9c-1.8 0-1.9-.6-2-3.9.7-.4 1.2-.6 1.9-.6 1.5 0 1.8.4 1.8 2 .1 1.8 0 2.5-1.7 2.5m4.6-12.2c-1.6-.4-3.1-.4-3.9-.4-4.4 0-6.6 1.1-6.6 8 0 6.1 1.4 7.7 5.9 7.7 4.6 0 5.6-1.8 5.6-5.6 0-3.3-1-4.7-4.4-4.7-1.3 0-2.3.2-3.1.9.1-2.8.7-3.3 2.6-3.3h3.7l.2-2.6zm-14.7 11.2c-1.1 0-1.4.3-1.4 1.4v1c0 1.1.3 1.4 1.4 1.4h.9c1.1 0 1.4-.3 1.4-1.4v-1c0-1.1-.3-1.4-1.4-1.4h-.9zm-4.1 3.7v-15.1h-4.1l-3.8 1.5.5 2.6 3.5-.8c-.1.6-.2 1.2-.2 1.8v10h4.1zm-8.5-17.3c-4.6 1.3-6.7 4.6-6.7 10.5s2.1 9.2 6.7 10.5l.5-1.7c-2.4-1.1-3.3-4.3-3.3-8.8 0-4.6.9-7.7 3.3-8.8l-.5-1.7zm-23.8 5.5c2.1-.1 3.2-.1 4.7-.1 1.2 0 1.7.1 1.7.7 0 .9-1 2.2-2.7 4l-3.4 3.5c-.4.5-.6 1-.6 1.6v2.1h11.3v-3.6h-4.4c-.7 0-1.4 0-2.1.2l3.7-3.7c2-2.1 2.4-3.1 2.4-4.7 0-3-2.1-3.7-5.4-3.7-1.6 0-3.2.1-5.4.5l.2 3.2zm-4.4 8.1c-1.1 0-1.4.3-1.4 1.4v1c0 1.1.3 1.4 1.4 1.4h.9c1.1 0 1.4-.3 1.4-1.4v-1c0-1.1-.3-1.4-1.4-1.4h-.9zm-13.7-8.4h4.2c1.5 0 2 .2 2 1.4 0 1-.1 1.6-1.8 1.6h-2.9v2.6h2.9c1.6 0 2 .5 2 1.8 0 1.5-.6 1.8-2.5 1.8-1.3 0-2.3 0-4.2-.1l-.1 3c1.7.2 3.6.4 5.4.4 4 0 5.5-1.3 5.4-4.5 0-2.3-.7-3.5-2.8-3.8v-.1c2-.3 2.4-1.6 2.4-3.8 0-2.7-1.4-3.5-5.1-3.5-1.7 0-3.4.1-5.1.4l.2 2.8zM454.5 316c3.8 0 4.6.9 4.6 4.5 0 3.5-.8 4.3-4.7 4.3-3.9 0-4.8-.9-4.8-4.3 0-3.6.9-4.5 4.9-4.5m0-14c3.5 0 4.3.8 4.3 4.2 0 3.1-.7 3.8-4.2 3.8-3.6 0-4.4-.7-4.4-3.8-.1-3.5.7-4.2 4.3-4.2m-7.5 11.1c-5 .5-6.2 4.6-6.2 9.2 0 6.7 2.8 9.4 13.6 9.3 11-.1 13.6-2.6 13.6-9.3 0-4.6-1.2-8.8-6.1-9.2v-.2c3.8-.4 5.3-4.2 5.3-7.9 0-6.5-2.2-9.3-12.7-9.3-10.4 0-12.7 2.8-12.7 9.3 0 3.7 1.5 7.5 5.3 7.9v.2zm-15.8 9.3c-2.4 0-3.2.8-3.2 3.2v2.2c0 2.4.8 3.2 3.2 3.2h2.2c2.4 0 3.2-.8 3.2-3.2v-2.2c0-2.4-.8-3.2-3.2-3.2h-2.2zm-9.4 8.5v-34.6h-9.4l-8.8 3.4 1.1 6 8-1.8c-.3 1.4-.4 2.8-.4 4.1v22.9h9.5zM387.7 316c3.8 0 4.6.9 4.6 4.5 0 3.5-.8 4.3-4.7 4.3-3.9 0-4.8-.9-4.8-4.3 0-3.6.9-4.5 4.9-4.5m-.1-14c3.5 0 4.3.8 4.3 4.2 0 3.1-.7 3.8-4.2 3.8-3.6 0-4.4-.7-4.4-3.8 0-3.5.8-4.2 4.3-4.2m-7.5 11.1c-5 .5-6.2 4.6-6.2 9.2 0 6.7 2.8 9.4 13.6 9.3 11-.1 13.6-2.6 13.6-9.3 0-4.6-1.2-8.8-6.1-9.2v-.2c3.8-.4 5.3-4.2 5.3-7.9 0-6.5-2.2-9.3-12.7-9.3-10.4 0-12.7 2.8-12.7 9.3 0 3.7 1.5 7.5 5.3 7.9v.2z" class="st2"/><circle cx="421" cy="257.3" r="30.8" style="fill:none;stroke:#39373a;stroke-width:.866" transform="rotate(-67.5 420.979 257.282)"/><path d="M439.4 264.4c-2.3.3-4.4.3-8 .3-3 0-3.8-1.5-3.8-7.2s.8-7.2 3.8-7.2c3.4 0 5 0 7.4.1l.5-5c-2.4-.7-4.2-.9-8-.9-8.1 0-11 3.4-11 13s3 13 11 13c3.8 0 6.1-.3 8.5-1.1l-.4-5zm-39.3-14.6c1.9 0 4.4-.1 7-.1 2.6 0 3.3.3 3.3 2.4 0 1.7-.2 2.7-3 2.7h-4.8v4.4h4.8c2.7 0 3.3.8 3.3 3 0 2.6-.9 3-4.2 3-2.2 0-3.8 0-7-.2l-.2 4.9c2.8.4 6 .7 9.1.7 6.7 0 9.1-2.2 9.1-7.5 0-3.8-1.1-5.8-4.7-6.3v-.1c3.2-.5 4-2.7 4-6.4 0-4.5-2.3-5.9-8.5-5.9-2.8 0-5.6.2-8.4.7l.2 4.7zm-39.8 420.6.2-3H351l-.4 6.8c0 .7.5 1.3 1.2 1.4l2.4.3c2 .2 2.8.5 2.7 1.9-.1 1.2-.5 1.7-2.5 1.7-1.1 0-2.5-.1-3.9-.2l-.4 3.1c1.9.3 3.9.4 5.4.4 4.3 0 5.5-2.2 5.5-4.9 0-2.4-.9-4.6-4.4-5l-2.5-.3.2-2.1h6zm-14.2 8.4c-1.1 0-1.4.3-1.4 1.4v1c0 1.1.3 1.4 1.4 1.4h.9c1.1 0 1.4-.3 1.4-1.4v-1c0-1.1-.3-1.4-1.4-1.4h-.9zm-8.6 1c-1.8 0-1.9-.5-2-3.9.7-.4 1.2-.6 1.9-.6 1.5 0 1.8.4 1.8 2 0 1.8 0 2.5-1.7 2.5m4.6-12.3c-1.6-.4-3.1-.4-3.9-.4-4.4 0-6.6 1.1-6.6 8 0 6.1 1.4 7.7 5.9 7.7 4.6 0 5.6-1.8 5.6-5.6 0-3.3-1-4.7-4.4-4.7-1.3 0-2.3.2-3.1.9.1-2.8.7-3.3 2.6-3.3h3.7l.2-2.6zm55.1-17.4h-1.6c-1 0-1.2-.3-1.2-1.4 0-.8.2-1 1.2-1h1.6v2.4zm-4.3 1.4c-.7.1-1.8.2-2.1 1.2l-.9 3.4h4.1l.7-2.9c.1-.5.3-.6 1-.6h1.4v3.6h3.9v-11c-1.4-.2-2.5-.2-5.5-.2-4 0-5 .8-5 3.5 0 1.3.6 2.5 2.4 3zm-11.6.9c0-.5.3-.8.9-.9h2.3v1.4c-.7.5-1.5.7-2.1.7-.7 0-1.1-.3-1.1-.9v-.3zm-3-4.3c1.8-.1 3.6-.2 4.7-.2s1.5.3 1.5 1.3v.3h-3.6c-2.2 0-3.5 1.1-3.5 2.8v1.1c0 2 1.6 3.1 3.7 3.1 1.9 0 3.1-1 3.9-1.9l.4 1.6h3.2v-7c0-3.2-1.6-4.3-4.6-4.3-1.6 0-4.3.2-6 .6l.3 2.6zm-6.1 2.3c2.5-.3 2.5-.7 3.9-5.2h-3.9c-1.1 3.6-1.3 4-2.4 4h-.7c.1-.5.1-.9.1-1.4v-2.6h-3.5v2.6c0 .4 0 .9.1 1.4h-.7c-1.1 0-1.2-.4-2.4-4h-3.9c1.4 4.5 1.3 4.8 3.9 5.2v.1c-2.6.4-2.7.6-4.2 5.6h4c1.4-4.1 1.5-4.4 2.4-4.4h.9c-.1.3-.1.7-.1.9v3.5h3.5v-3.5c0-.3 0-.6-.1-.9h.9c1 0 1.1.3 2.4 4.4h4c-1.6-5.1-1.6-5.3-4.2-5.6v-.1zm-20.4-2.7c1.3 0 1.7.5 1.7 3 0 2.4-.4 2.9-1.7 2.9-1.4 0-1.7-.5-1.7-2.9s.4-3 1.7-3m0-2.8c-4.3 0-5.9 1.6-5.9 5.8 0 4.2 1.6 5.7 5.9 5.7 4.3 0 5.9-1.5 5.9-5.7s-1.6-5.8-5.9-5.8m-10.3 11.2h4l-3.2-5.6 3-5.3h-4l-2.1 4.1-2.2-4.1h-4l3 5.3-3.2 5.6h4l2.4-4.4 2.3 4.4zm-10 .1v-10.9H328l-3.5 5.2c-.3.5-.6 1-.8 1.6h-.1c.1-.6.2-1.1.2-1.7v-5.1h-3.5v10.9h3.5l3.4-5c.3-.5.7-1.2.9-1.8h.1c-.1.7-.2 1.3-.2 1.9v4.9h3.5zm-20.8-7.6c.7-.4 1.2-.7 2-.7 1 0 1.4.4 1.4 2.9s-.4 2.9-1.6 2.9c-.8 0-1.3-.2-1.9-.4v-4.7zm-.8-3.4h-3.2v15h4v-2.4c0-.8 0-1.6-.1-2.4.9.7 2.2 1 3.5 1 2.7 0 4.1-1.2 4.1-5.6 0-3.7-1.1-5.8-3.9-5.8-1.7 0-3.4.8-4.2 1.8l-.2-1.6zm-5.7-4.2h-12.7v15.1h4.1v-12.3h4.5v12.3h4.1V641zm432.2-352.5h2.5c.9 0 1.2.1 1.2.9 0 .6-.1 1-1.1 1h-1.7v1.6h1.7c1 0 1.2.3 1.2 1.1 0 .9-.3 1.1-1.5 1.1-.8 0-1.4 0-2.5-.1l-.1 1.8c1 .1 2.2.3 3.3.3 2.4 0 3.3-.8 3.3-2.7 0-1.4-.4-2.1-1.7-2.3v-.2c1.2-.2 1.4-1 1.4-2.3 0-1.6-.8-2.1-3.1-2.1-1 0-2 .1-3 .3l.1 1.6zm-2.7 5.1c-.6 0-.8.2-.8.8v.6c0 .6.2.8.8.8h.6c.6 0 .8-.2.8-.8v-.6c0-.6-.2-.8-.8-.8h-.6zm-8.2-5.1h2.5c.9 0 1.2.1 1.2.9 0 .6-.1 1-1.1 1h-1.7v1.6h1.7c1 0 1.2.3 1.2 1.1 0 .9-.3 1.1-1.5 1.1-.8 0-1.4 0-2.5-.1l-.1 1.8c1 .1 2.2.3 3.3.3 2.4 0 3.3-.8 3.3-2.7 0-1.4-.4-2.1-1.7-2.3v-.2c1.2-.2 1.4-1 1.4-2.3 0-1.6-.8-2.1-3.1-2.1-1 0-2 .1-3 .3l.1 1.6zm29.4-12.1h-.9c-.6 0-.7-.2-.7-.8 0-.5.1-.6.7-.6h.9v1.4zm-2.6.8c-.4 0-1.1.1-1.3.7l-.5 2.1h2.4l.4-1.8c.1-.3.2-.4.6-.4h.9v2.1h2.3v-6.6c-.8-.1-1.5-.1-3.3-.1-2.4 0-3 .5-3 2.1.1.9.4 1.6 1.5 1.9zm-7 .5c0-.3.2-.5.6-.5h1.4v.8c-.4.3-.9.4-1.3.4s-.6-.2-.6-.5v-.2zm-1.8-2.5c1.1-.1 2.1-.1 2.8-.1.7 0 .9.2.9.8v.2H745c-1.3 0-2.1.6-2.1 1.7v.7c0 1.2 1 1.9 2.2 1.9 1.1 0 1.9-.6 2.3-1.1l.2 1h1.9v-4.2c0-1.9-1-2.6-2.7-2.6-1 0-2.6.1-3.6.3l.3 1.4zm-1.6-1.7h-2.3v2.3h-2v-2.3h-2.4v6.5h2.4v-2.6h2v2.6h2.3v-6.5zm-8.1 0h-2.3v2.3h-2v-2.3h-2.4v6.5h2.4v-2.6h2v2.6h2.3v-6.5zm-12.4 4.2c0-.3.2-.5.6-.5h1.4v.8c-.4.3-.9.4-1.3.4s-.6-.2-.6-.5v-.2zm-1.8-2.5c1.1-.1 2.1-.1 2.8-.1.7 0 .9.2.9.8v.2h-2.2c-1.3 0-2.1.6-2.1 1.7v.7c0 1.2 1 1.9 2.2 1.9 1.1 0 1.9-.6 2.3-1.1l.2 1h1.9v-4.2c0-1.9-1-2.6-2.7-2.6-1 0-2.6.1-3.6.3l.3 1.4zm-6.3 3.2V276h1.3c.9 0 1.2.2 1.2 1.2 0 .9-.2 1.1-1.2 1.1l-1.3.1zm0-3.9v-2h1.2c.9 0 1.1.2 1.1 1s-.2 1-1 1h-1.3zm3 .7c1.2-.1 1.6-.8 1.6-2.1 0-1.9-.9-2.4-3.3-2.4-1.6 0-2.6 0-3.7.1v9.1c1.2.1 2.2.1 4.1.1 2.2 0 3.2-.5 3.2-2.4 0-1.3-.5-2.2-1.9-2.4zM607.8 311h2.5c.9 0 1.2.1 1.2.9 0 .6-.1 1-1.1 1h-1.7v1.6h1.7c1 0 1.2.3 1.2 1.1 0 .9-.3 1.1-1.5 1.1-.8 0-1.4 0-2.5-.1l-.1 1.8c1 .1 2.2.3 3.3.3 2.4 0 3.3-.8 3.3-2.7 0-1.4-.4-2.1-1.7-2.3v-.1c1.2-.2 1.4-1 1.4-2.3 0-1.6-.8-2.1-3.1-2.1-1 0-2 .1-3 .3l.1 1.5zm-2.7 5.1c-.6 0-.8.2-.8.8v.6c0 .6.2.8.8.8h.6c.6 0 .8-.2.8-.8v-.6c0-.6-.2-.8-.8-.8h-.6zm-2.4 2.2v-9.1h-2.5l-2.3.9.3 1.6 2.1-.5c-.1.4-.1.7-.1 1.1v6h2.5zm14.9-22.3H615l-1 3.9c-.1.3-.2.7-.3 1.1h-.1c-.1-.4-.1-.7-.2-1.1l-1-3.9H610l2 6c.1.3.4.6.8.6h.4c-.2.3-.4.6-.7.8-.4.2-1 .3-1.8.3l-.2 1.6c.9.2 1.9.2 2.7-.1 1-.4 1.8-1 2.2-2.5l2.2-6.7zm-12.9 7.5 5.2-10.1H608l-5.2 10.1h1.9zm-2.6-3c-.8.1-1.6.1-2.9.1-1.1 0-1.4-.6-1.4-2.6s.3-2.6 1.4-2.6h2.7l.2-1.8c-.9-.2-1.5-.3-2.9-.3-2.9 0-4 1.2-4 4.7s1.1 4.7 4 4.7c1.4 0 2.2-.1 3.1-.4l-.2-1.8zm-91.5 399.6H647v9.9H510.6z" class="st2"/><path d="M510.6 700.1H647v9.9H510.6z" class="st3"/><path d="M622.5 690.8h18.4V702h-18.4z" class="st4"/><path d="M448.9 741.1c1 0 1.2.2 1.2 1.2 0 .9-.2 1.1-1.2 1.1s-1.3-.2-1.3-1.1c0-.9.2-1.2 1.3-1.2m-.1-3.7c.9 0 1.1.2 1.1 1.1 0 .8-.2 1-1.1 1-.9 0-1.2-.2-1.2-1 .1-.9.3-1.1 1.2-1.1m-1.9 3c-1.3.1-1.6 1.2-1.6 2.4 0 1.8.7 2.5 3.6 2.4 2.9 0 3.6-.7 3.6-2.4 0-1.2-.3-2.3-1.6-2.4v-.1c1-.1 1.4-1.1 1.4-2.1 0-1.7-.6-2.4-3.3-2.4-2.7 0-3.3.7-3.3 2.4-.2 1 .2 2 1.2 2.2zm-4.2 2.4c-.6 0-.8.2-.8.8v.6c0 .6.2.8.8.8h.6c.6 0 .8-.2.8-.8v-.6c0-.6-.2-.8-.8-.8h-.6zm-2.4 2.2v-9h-2.5l-2.3.9.3 1.6 2.1-.5c-.1.4-.1.7-.1 1.1v6h2.5zm15.3-22.3H453l-1 3.9c-.1.3-.2.7-.3 1.1h-.1c-.1-.4-.1-.7-.2-1.1l-1-3.9H448l2 6c.1.3.4.6.8.6h.4c-.2.3-.4.6-.7.8-.4.2-1 .3-1.8.3l-.2 1.6c.9.2 1.9.2 2.7-.1 1-.4 1.8-1 2.2-2.5l2.2-6.7zm-12.9 7.5 5.2-10.1H446l-5.2 10.1h1.9zm-2.6-3c-.8.1-1.6.1-2.9.1-1.1 0-1.4-.6-1.4-2.6s.3-2.6 1.4-2.6h2.7l.2-1.8c-.9-.2-1.5-.3-2.9-.3-2.9 0-4 1.2-4 4.7s1.1 4.7 4 4.7c1.4 0 2.2-.1 3.1-.4l-.2-1.8z" class="st2"/></svg>