<?xml version="1.0" encoding="utf-8"?>
<!-- Generator: Adobe Illustrator 26.5.0, SVG Export Plug-In . SVG Version: 6.00 Build 0)  -->
<svg version="1.1" id="Слой_1" xmlns="http://www.w3.org/2000/svg" xmlns:xlink="http://www.w3.org/1999/xlink" x="0px" y="0px"
	 viewBox="0 0 1000 1000" style="enable-background:new 0 0 1000 1000;" xml:space="preserve">
<style type="text/css">
	.st0{fill:#BDE2E8;}
	.st1{fill:none;stroke:#3C3C3B;stroke-miterlimit:10;}
	.st2{fill:#FFFFFF;}
	.st3{fill:none;}
	.st4{fill:#3C3C3B;}
	.st5{fill:none;stroke:#3C3C3B;}
	.st6{fill:none;stroke:#3C3C3B;stroke-width:1;stroke-miterlimit:10.0003;}
</style>
<rect x="223.2" y="195.3" class="st0" width="402.2" height="684.3"/>
<rect x="425.5" y="195.3" class="st0" width="402.2" height="366.6"/>
<rect x="204.5" y="171.2" class="st1" width="129.2" height="23.4"/>
<rect x="204.5" y="171.2" class="st2" width="133.7" height="5.6"/>
<rect x="204.5" y="171.2" class="st1" width="133.7" height="5.6"/>
<polygon class="st3" points="625.1,80.4 426.7,109 427.4,115.3 625.8,86.7 "/>
<polygon class="st1" points="625.1,80.4 426.7,109 427.4,115.3 625.8,86.7 "/>
<rect x="214.9" y="108.8" class="st3" width="214.8" height="6.3"/>
<rect x="214.9" y="108.8" class="st1" width="214.8" height="6.3"/>
<rect x="632.3" y="80.3" class="st3" width="177.5" height="6.3"/>
<rect x="632.3" y="80.3" class="st1" width="177.5" height="6.3"/>
<rect x="202.5" y="108.8" class="st4" width="23.4" height="795.1"/>
<rect x="202.5" y="108.8" class="st1" width="23.4" height="795.1"/>
<line class="st3" x1="634.2" y1="568.4" x2="634.2" y2="879.8"/>
<line class="st3" x1="830.4" y1="437.5" x2="830.4" y2="429.6"/>
<line class="st1" x1="830.4" y1="437.5" x2="830.4" y2="429.6"/>
<line class="st1" x1="609.3" y1="903.9" x2="609.3" y2="880.5"/>
<rect x="458.2" y="880.5" class="st1" width="139.2" height="23.4"/>
<line class="st3" x1="615.1" y1="898.3" x2="615.1" y2="903.9"/>
<line class="st1" x1="615.1" y1="898.3" x2="615.1" y2="903.9"/>
<rect x="458.2" y="898.3" class="st2" width="139.2" height="5.6"/>
<rect x="458.2" y="898.3" class="st1" width="139.2" height="5.6"/>
<line class="st1" x1="626.2" y1="904.1" x2="627.1" y2="898.5"/>
<line class="st3" x1="630.9" y1="903.9" x2="630.9" y2="880.5"/>
<line class="st1" x1="630.9" y1="903.9" x2="630.9" y2="880.5"/>
<line class="st3" x1="630.9" y1="903.9" x2="630.9" y2="898.3"/>
<line class="st1" x1="630.9" y1="903.9" x2="630.9" y2="898.3"/>
<rect x="426.1" y="880.5" class="st4" width="41.2" height="23.4"/>
<rect x="426.1" y="880.5" class="st1" width="41.2" height="23.4"/>
<rect x="426.1" y="898.3" class="st4" width="45.7" height="5.6"/>
<rect x="426.1" y="898.3" class="st1" width="45.7" height="5.6"/>
<rect x="588.3" y="880.5" class="st4" width="46.1" height="23.4"/>
<rect x="588.3" y="880.5" class="st1" width="41.2" height="23.4"/>
<rect x="583.9" y="898.3" class="st4" width="49.3" height="5.6"/>
<rect x="583.9" y="898.3" class="st1" width="45.7" height="5.6"/>
<rect x="477.1" y="904.1" class="st1" width="102.6" height="57.9"/>
<rect x="482.5" y="904.1" class="st1" width="91.8" height="52.5"/>
<path class="st1" d="M597.7,563.3l-45.1,26.2c0,0-3.7-5.9-5.7-14.8c-2-8.9-1.7-16-1.7-16"/>
<path class="st1" d="M422.2,563.3l-45.1,26.2c0,0-3.7-5.9-5.7-14.8c-2-8.9-1.7-16-1.7-16"/>
<path class="st1" d="M349.8,528.7l18.2-31.6c0,0-4.1-2.6-10.3-4c-6.2-1.4-11.1-1.2-11.1-1.2"/>
<path class="st1" d="M420.2,395.9l-42.3-24.4c0,0-3.5,5.5-5.4,13.8s-1.5,14.9-1.5,14.9"/>
<path class="st1" d="M596.4,472.4l-45.9-26.5c0,0-3.8,6-5.8,15c-2.1,9-1.7,16.2-1.7,16.2"/>
<path class="st1" d="M518.3,474.9l21.3-12.1c0,0,1.7,2.7,2.7,6.8c1,4.1,0.8,7.4,0.8,7.4"/>
<path class="st1" d="M643.4,478.6l30.1,17.5c0,0,2.5-3.9,3.8-9.9c1.4-6,1.1-10.7,1.1-10.7"/>
<path class="st1" d="M829.8,545.1l-27.9-47.3c0,0,6.3-3.9,15.8-6s17.1-1.7,17.1-1.7"/>
<path class="st1" d="M349.8,402.2l18.2,31.6c0,0-4.1,2.6-10.3,4c-6.2,1.4-11.1,1.2-11.1,1.2"/>
<path class="st5" d="M526.5,702.9c18,0,32.6-14.6,32.6-32.6s-14.6-32.6-32.6-32.6s-32.6,14.6-32.6,32.6
	C493.9,688.3,508.5,702.9,526.5,702.9z"/>
<path class="st4" d="M541.5,669.5c5.3-0.7,5.4-3.1,8.3-12.6h-7.3c-2.1,7.9-2.6,10.3-6.3,10.3h-1.3c0.2-1.1,0.3-2.2,0.3-3.3v-7H528
	v26.5h7.2v-8.9c0-0.7-0.1-1.6-0.3-2.5h1.4c3.7,0,4,1.7,6.7,11.3h7.5C547.2,672.4,546.9,670.4,541.5,669.5L541.5,669.5L541.5,669.5z
	 M524.7,673.1h-3.1v-10.9h-5.4l-1.2,4.1v6.8h-5.2c-0.6,0-1-0.4-0.7-1.1l5.8-15h-6.7l-6.6,16.8c-0.8,2.1,0.6,4.1,2.8,4.1H515v5.6h6.6
	v-5.6h0.1l3.1-0.7L524.7,673.1L524.7,673.1z"/>
<path class="st4" d="M595.1,736.2h-4.4v-15.4h-7.6l-1.6,5.8v9.5h-7.3c-0.9,0-1.4-0.5-1-1.6l8.1-21.1H572l-9.3,23.6
	c-1.2,2.9,0.8,5.8,3.9,5.8h14.9v7.8h9.2V743h0.1l4.3-1L595.1,736.2L595.1,736.2z M553.5,741.6c-2.6,0-3.4,0.8-3.4,3.4v2.4
	c0,2.6,0.8,3.4,3.4,3.4h2.3c2.6,0,3.4-0.8,3.4-3.4V745c0-2.6-0.8-3.4-3.4-3.4H553.5z M532.3,744.1c-4.3,0-4.7-1.3-4.8-9.6
	c1.8-1,3-1.4,4.7-1.4c3.6,0,4.4,0.9,4.4,4.9C536.6,742.4,536.4,744.1,532.3,744.1 M543.6,714c-3.8-1.1-7.7-1.1-9.6-1.1
	c-10.8,0-16.2,2.6-16.2,19.6c0,15.1,3.3,18.9,14.4,18.9c11.4,0,13.9-4.4,13.9-13.6c0-8.2-2.4-11.5-10.9-11.5c-3.3,0-5.6,0.5-7.6,2.2
	c0.3-7,1.6-8.2,6.4-8.2c4.3,0,6.1,0,9.2,0.1L543.6,714z M498.1,720.5c4.1,0,5.3,1.8,5.3,11.6c0,9.9-1.1,11.6-5.3,11.6
	c-4,0-5.1-1.8-5.1-11.6C492.9,722.3,494.1,720.5,498.1,720.5 M498.1,712.8c-11.3,0-15.1,4.9-15.1,19.3c0,14.5,3.9,19.4,15.1,19.4
	c11.3,0,15.3-4.9,15.3-19.4C513.4,717.7,509.4,712.8,498.1,712.8 M476.4,750.8v-37.2h-10.1l-9.4,3.7l1.2,6.4l8.6-1.9
	c-0.3,1.5-0.4,3-0.4,4.4v24.6H476.4z"/>
<path class="st4" d="M755.1,117.3c2.3,1,3.2,4,3.2,8.5c0,4.3-0.8,7.4-3.2,8.5l0.4,1.6c4.4-1.3,6.4-4.4,6.4-10.1
	c0-5.7-2-8.9-6.4-10.1L755.1,117.3z M755.2,126.7h-1.7v-6h-3l-0.6,2.3v3.7H747c-0.3,0-0.6-0.2-0.4-0.6l3.2-8.3h-3.7l-3.6,9.3
	c-0.5,1.1,0.3,2.3,1.5,2.3h5.8v3.1h3.6v-3.1l0,0l1.7-0.4v-2.3H755.2z M738.8,128.8c-1,0-1.3,0.3-1.3,1.3v0.9c0,1,0.3,1.3,1.3,1.3
	h0.9c1,0,1.3-0.3,1.3-1.3v-0.9c0-1-0.3-1.3-1.3-1.3H738.8z M736.1,126.7h-1.7v-6h-3l-0.6,2.3v3.7h-2.9c-0.3,0-0.6-0.2-0.4-0.6
	l3.2-8.3H727l-3.6,9.3c-0.5,1.1,0.3,2.3,1.5,2.3h5.8v3.1h3.6v-3.1l0,0l1.7-0.4L736.1,126.7L736.1,126.7z M723.1,115.7
	c-4.4,1.2-6.4,4.4-6.4,10.1c0,5.6,2,8.8,6.4,10.1l0.4-1.6c-2.3-1.1-3.2-4.1-3.2-8.5c0-4.4,0.8-7.5,3.2-8.5L723.1,115.7z
	 M704.9,126.1c1.6,0,1.9,0.4,1.9,1.9s-0.3,1.8-2,1.8c-1.6,0-2-0.4-2-1.8C702.8,126.5,703.2,126.1,704.9,126.1 M704.9,120.2
	c1.5,0,1.8,0.3,1.8,1.8c0,1.3-0.3,1.6-1.8,1.6s-1.9-0.3-1.9-1.6C703,120.5,703.4,120.2,704.9,120.2 M701.7,124.9
	c-2.1,0.2-2.6,1.9-2.6,3.9c0,2.8,1.2,4,5.7,3.9c4.6,0,5.7-1.1,5.7-3.9c0-1.9-0.5-3.7-2.6-3.9v-0.1c1.6-0.2,2.2-1.8,2.2-3.3
	c0-2.7-0.9-3.9-5.4-3.9c-4.4,0-5.3,1.2-5.3,3.9C699.5,123,700.1,124.6,701.7,124.9L701.7,124.9z M695.1,128.8c-1,0-1.3,0.3-1.3,1.3
	v0.9c0,1,0.3,1.3,1.3,1.3h0.9c1,0,1.3-0.3,1.3-1.3v-0.9c0-1-0.3-1.3-1.3-1.3H695.1z M686.2,126.1c1.6,0,1.9,0.4,1.9,1.9
	s-0.3,1.8-2,1.8s-2-0.4-2-1.8C684.2,126.5,684.5,126.1,686.2,126.1 M686.2,120.2c1.5,0,1.8,0.3,1.8,1.8c0,1.3-0.3,1.6-1.8,1.6
	s-1.9-0.3-1.9-1.6C684.4,120.5,684.7,120.2,686.2,120.2 M683.1,124.9c-2.1,0.2-2.6,1.9-2.6,3.9c0,2.8,1.2,4,5.7,3.9
	c4.6,0,5.7-1.1,5.7-3.9c0-1.9-0.5-3.7-2.6-3.9v-0.1c1.6-0.2,2.2-1.8,2.2-3.3c0-2.7-0.9-3.9-5.4-3.9c-4.4,0-5.3,1.2-5.3,3.9
	C680.8,123,681.5,124.6,683.1,124.9L683.1,124.9z"/>
<path class="st4" d="M355.8,135.7c2.3,1,3.2,4,3.2,8.5c0,4.3-0.8,7.4-3.2,8.5l0.4,1.6c4.4-1.3,6.4-4.4,6.4-10.1
	c0-5.7-2-8.9-6.4-10.1L355.8,135.7z M344.6,136.2l0.2,3.2h6.3c-0.3,0.5-0.5,1-0.7,1.5l-3.5,9.8h3.9l4.4-12.6
	c0.4-1.1-0.3-1.9-1.5-1.9H344.6z M341.7,147.2c-1,0-1.3,0.3-1.3,1.3v0.9c0,1,0.3,1.3,1.3,1.3h0.9c1,0,1.3-0.3,1.3-1.3v-0.9
	c0-1-0.3-1.3-1.3-1.3H341.7z M337.8,150.8v-14.6h-3.9l-3.7,1.4l0.5,2.5l3.4-0.8c-0.1,0.6-0.1,1.2-0.1,1.7v9.7h3.8V150.8z
	 M329.6,134.1c-4.4,1.2-6.4,4.4-6.4,10.1c0,5.6,2,8.8,6.4,10.1l0.4-1.6c-2.3-1.1-3.2-4.1-3.2-8.5s0.8-7.5,3.2-8.5L329.6,134.1z
	 M317.5,145.1h-1.7v-6h-3l-0.6,2.3v3.7h-2.9c-0.3,0-0.6-0.2-0.4-0.6l3.2-8.3h-3.7l-3.6,9.3c-0.5,1.1,0.3,2.3,1.5,2.3h5.8v3.1h3.6
	v-3.1l0,0l1.7-0.4v-2.3H317.5z M301.1,147.2c-1,0-1.3,0.3-1.3,1.3v0.9c0,1,0.3,1.3,1.3,1.3h0.9c1,0,1.3-0.3,1.3-1.3v-0.9
	c0-1-0.3-1.3-1.3-1.3H301.1z M288,139.1c1.1,0,2.6,0,4.1,0s1.9,0.2,1.9,1.4c0,1-0.1,1.6-1.7,1.6h-2.8v2.5h2.8c1.6,0,1.9,0.5,1.9,1.7
	c0,1.5-0.6,1.7-2.4,1.7c-1.3,0-2.2,0-4-0.1l-0.1,2.9c1.6,0.2,3.5,0.4,5.2,0.4c3.9,0,5.3-1.3,5.2-4.3c0-2.2-0.7-3.3-2.7-3.7V143
	c1.9-0.3,2.3-1.6,2.3-3.7c0-2.6-1.4-3.4-4.9-3.4c-1.6,0-3.2,0.1-4.9,0.4L288,139.1z"/>
<path class="st4" d="M540.2,790.1c1.6,0,2.1,0.7,2.1,4.6s-0.4,4.6-2.1,4.6c-1.6,0-2-0.7-2-4.6S538.6,790.1,540.2,790.1 M540.2,787.1
	c-4.4,0-5.9,1.9-5.9,7.6c0,5.7,1.5,7.6,5.9,7.6s6-1.9,6-7.6S544.7,787.1,540.2,787.1 M530.3,798.4c-1,0-1.3,0.3-1.3,1.3v0.9
	c0,1,0.3,1.3,1.3,1.3h0.9c1,0,1.3-0.3,1.3-1.3v-0.9c0-1-0.3-1.3-1.3-1.3H530.3z M519.9,792.4c0-1.7,0.1-2.4,1.7-2.4
	c1.7,0,1.8,0.6,1.8,3.8c-0.7,0.4-1.2,0.6-1.8,0.6C520.2,794.4,519.8,793.9,519.9,792.4 M516.7,801.8c1.7,0.4,3.3,0.4,4.1,0.4
	c4.7,0,6.4-1.1,6.4-7.7c0-5.9-1-7.4-5.6-7.4c-4.2,0-5.4,1.6-5.4,5.3c0,2.7,0.9,4.5,4.2,4.5c1.3,0,2.2-0.2,3-0.9
	c-0.1,2.5-0.6,3.2-2.5,3.2s-2.6,0-3.9,0L516.7,801.8z M513.7,802v-14.6h-3.9l-3.7,1.4l0.5,2.5l3.4-0.8c-0.1,0.6-0.1,1.2-0.1,1.7v9.7
	L513.7,802L513.7,802z"/>
<path class="st4" d="M601.4,773c0-0.5,0.3-0.8,0.9-0.8h2.2v1.3c-0.7,0.4-1.4,0.7-2.1,0.7c-0.7,0-1-0.3-1-0.8L601.4,773L601.4,773z
	 M598.5,768.9c1.8-0.1,3.4-0.1,4.5-0.1s1.4,0.3,1.5,1.2v0.3H601c-2.1,0-3.4,1-3.4,2.7v1.1c0,2,1.6,3,3.5,3c1.8,0,3-0.9,3.7-1.8
	l0.4,1.5h3.1v-6.7c0-3.1-1.6-4.1-4.4-4.1c-1.5,0-4.2,0.2-5.7,0.5L598.5,768.9z M596.8,769v-2.9h-10.5v2.9h3.3v7.6h3.8V769H596.8z
	 M578,773c0-0.5,0.3-0.8,0.9-0.8h2.2v1.3c-0.7,0.4-1.4,0.7-2.1,0.7c-0.7,0-1-0.3-1-0.8L578,773L578,773z M575.2,768.9
	c1.8-0.1,3.4-0.1,4.5-0.1s1.4,0.3,1.5,1.2v0.3h-3.5c-2.1,0-3.4,1-3.4,2.7v1.1c0,2,1.6,3,3.5,3c1.8,0,3-0.9,3.7-1.8l0.4,1.5h3.1v-6.7
	c0-3.1-1.6-4.1-4.4-4.1c-1.5,0-4.2,0.2-5.7,0.5L575.2,768.9z M572.5,766.1h-3.8v3.7h-3.2v-3.7h-3.8v10.5h3.8v-4.2h3.2v4.2h3.8V766.1
	z M554.8,766.1c-0.8,0-1.3,0.4-1.4,1.2l-0.9,3.9c-0.1,0.5-0.1,1-0.2,1.6H552c-0.1-0.5-0.1-1-0.2-1.6l-0.9-3.9
	c-0.1-0.8-0.6-1.2-1.4-1.2h-3.3c-0.9,0-1.3,0.4-1.3,1.3l-0.3,9.2h3.5l0.2-7.7h0.3l1.2,5.1c0.1,0.8,0.7,1.2,1.5,1.2h1.7
	c0.8,0,1.3-0.4,1.4-1.2l1.3-5.1h0.3l0.3,7.7h3.5l-0.3-9.2c0-0.9-0.4-1.3-1.3-1.3H554.8z M537.3,768.5c1.3,0,1.6,0.5,1.6,2.9
	c0,2.3-0.3,2.8-1.6,2.8s-1.7-0.5-1.7-2.8C535.6,769.1,536,768.5,537.3,768.5 M537.3,765.8c-4.1,0-5.7,1.5-5.7,5.6
	c0,4,1.5,5.5,5.7,5.5c4.1,0,5.6-1.5,5.6-5.5C542.9,767.3,541.4,765.8,537.3,765.8 M526.8,771.1c2.5-0.4,2.3-0.6,3.6-5h-3.9
	c-0.9,3.5-1,3.8-2.5,3.8h-0.5c0.1-0.4,0.1-0.9,0.1-1.3v-2.5h-3.8v10.5h3.8v-3.3c0-0.3,0-0.6-0.1-0.8h0.8c1.1,0,1.2,0.3,2.3,4.2h4
	c-1.5-5-1.5-5.1-4-5.4v-0.2H526.8z M509.4,770.9h-1.5c-1,0-1.2-0.3-1.2-1.3c0-0.8,0.2-1,1.2-1h1.5V770.9z M505.3,772.2
	c-0.6,0.1-1.7,0.2-2,1.1l-0.8,3.3h3.9l0.7-2.8c0.1-0.5,0.3-0.6,1-0.6h1.4v3.4h3.7V766c-1.3-0.1-2.4-0.2-5.3-0.2
	c-3.9,0-4.8,0.7-4.8,3.4C503,770.5,503.5,771.7,505.3,772.2L505.3,772.2z M494.1,773c0-0.5,0.3-0.8,0.9-0.8h2.2v1.3
	c-0.7,0.4-1.4,0.7-2.1,0.7s-1-0.3-1-0.8V773z M491.2,768.9c1.8-0.1,3.4-0.1,4.5-0.1s1.4,0.3,1.5,1.2v0.3h-3.5c-2.1,0-3.4,1-3.4,2.7
	v1.1c0,2,1.6,3,3.5,3c1.8,0,3-0.9,3.7-1.8l0.4,1.5h3.1v-6.7c0-3.1-1.6-4.1-4.4-4.1c-1.5,0-4.2,0.2-5.7,0.5L491.2,768.9z
	 M488.6,766.1h-6.3c-1.8,0-2.7,0.9-2.9,2.7c-0.1,1.9-0.3,3.4-0.5,4.1c-0.2,0.8-0.8,0.8-1.8,1l0.4,2.8c2.3,0.4,4.4-0.1,4.8-2.7
	c0.2-1,0.4-2.8,0.6-4.4c0.1-0.6,0.4-0.9,1-0.9h0.9v7.9h3.8V766.1z M475.8,776.7v-10.5h-3.3l-3.3,5c-0.3,0.5-0.6,1-0.8,1.5h-0.1
	c0.1-0.6,0.1-1.1,0.1-1.6v-4.9H465v10.5h3.3l3.3-4.8c0.3-0.5,0.7-1.2,0.8-1.8h0.1c-0.1,0.7-0.1,1.2-0.1,1.9v4.7L475.8,776.7
	L475.8,776.7z M458.7,769c2.8-0.4,2.9-1.7,4.4-6.9h-4c-1.3,4.4-1.6,5.7-3,5.7h-0.7c0.1-0.6,0.2-1.2,0.2-1.8v-3.9h-3.8v3.9
	c0,0.6,0.1,1.2,0.2,1.8h-0.7c-1.4,0-1.7-1.3-3-5.7h-4c1.5,5.2,1.6,6.5,4.4,6.9v0.1c-2.9,0.4-3.1,1.6-4.8,7.5h4.1
	c1.6-5.3,1.8-6.2,3.2-6.2h0.7c-0.1,0.5-0.2,0.9-0.2,1.4v4.9h3.8v-4.9c0-0.4-0.1-0.9-0.2-1.4h0.7c1.5,0,1.6,0.9,3.2,6.2h4.2
	c-1.7-6-1.9-7.1-4.9-7.5V769H458.7z"/>
<path class="st4" d="M337.2,741.9c1.6,0,1.9,0.4,1.9,1.9s-0.3,1.8-2,1.8c-1.6,0-2-0.4-2-1.8C335.2,742.3,335.5,741.9,337.2,741.9
	 M337.2,736c1.5,0,1.8,0.3,1.8,1.8c0,1.3-0.3,1.6-1.8,1.6s-1.9-0.3-1.9-1.6C335.4,736.4,335.7,736,337.2,736 M334.1,740.7
	c-2.1,0.2-2.6,1.9-2.6,3.9c0,2.8,1.2,3.9,5.7,3.9c4.6,0,5.7-1.1,5.7-3.9c0-1.9-0.5-3.7-2.6-3.9v-0.1c1.6-0.2,2.2-1.8,2.2-3.3
	c0-2.7-0.9-3.9-5.4-3.9c-4.4,0-5.3,1.2-5.3,3.9C331.8,738.9,332.5,740.5,334.1,740.7L334.1,740.7z M327.4,744.6
	c-1,0-1.3,0.3-1.3,1.3v0.9c0,1,0.3,1.3,1.3,1.3h0.9c1,0,1.3-0.3,1.3-1.3V746c0-1-0.3-1.3-1.3-1.3h-0.9V744.6z M318.6,741.9
	c1.6,0,1.9,0.4,1.9,1.9s-0.3,1.8-2,1.8c-1.6,0-2-0.4-2-1.8C316.5,742.3,316.9,741.9,318.6,741.9 M318.6,736c1.5,0,1.8,0.3,1.8,1.8
	c0,1.3-0.3,1.6-1.8,1.6s-1.9-0.3-1.9-1.6C316.7,736.4,317.1,736,318.6,736 M315.4,740.7c-2.1,0.2-2.6,1.9-2.6,3.9
	c0,2.8,1.2,3.9,5.7,3.9c4.6,0,5.7-1.1,5.7-3.9c0-1.9-0.5-3.7-2.6-3.9v-0.1c1.6-0.2,2.2-1.8,2.2-3.3c0-2.7-0.9-3.9-5.4-3.9
	c-4.4,0-5.3,1.2-5.3,3.9C313.2,738.9,313.8,740.5,315.4,740.7L315.4,740.7z M310.2,748.2v-14.6h-3.9l-3.7,1.4l0.5,2.5l3.4-0.8
	c-0.1,0.6-0.1,1.2-0.1,1.7v9.7L310.2,748.2L310.2,748.2z"/>
<path class="st4" d="M398,719.2c0-0.5,0.3-0.8,0.9-0.8h2.2v1.3c-0.7,0.4-1.4,0.7-2.1,0.7s-1-0.3-1-0.8V719.2z M395.1,715.1
	c1.8-0.1,3.4-0.1,4.5-0.1s1.4,0.3,1.5,1.2v0.3h-3.5c-2.1,0-3.4,1-3.4,2.7v1.1c0,2,1.6,3,3.5,3c1.8,0,3-0.9,3.7-1.8l0.4,1.5h3.1v-6.7
	c0-3.1-1.6-4.1-4.4-4.1c-1.5,0-4.2,0.2-5.7,0.5L395.1,715.1z M393.4,715.3v-2.9h-10.5v2.9h3.3v7.6h3.8v-7.6H393.4z M374.7,719.2
	c0-0.5,0.3-0.8,0.9-0.8h2.2v1.3c-0.7,0.4-1.4,0.7-2.1,0.7s-1-0.3-1-0.8V719.2z M371.8,715.1c1.8-0.1,3.4-0.1,4.5-0.1
	s1.4,0.3,1.5,1.2v0.3h-3.5c-2.1,0-3.4,1-3.4,2.7v1.1c0,2,1.6,3,3.5,3c1.8,0,3-0.9,3.7-1.8l0.4,1.5h3.1v-6.7c0-3.1-1.6-4.1-4.4-4.1
	c-1.5,0-4.2,0.2-5.7,0.5L371.8,715.1z M369.1,712.4h-3.8v3.7h-3.2v-3.7h-3.8v10.5h3.8v-4.2h3.2v4.2h3.8V712.4z M351.4,712.4
	c-0.8,0-1.3,0.4-1.4,1.2l-0.9,3.9c-0.1,0.5-0.1,1-0.2,1.6h-0.2c-0.1-0.5-0.1-1-0.2-1.6l-0.9-3.9c-0.1-0.8-0.6-1.2-1.4-1.2h-3.3
	c-0.9,0-1.3,0.4-1.3,1.3l-0.3,9.2h3.5l0.2-7.7h0.3l1.2,5.1c0.1,0.8,0.7,1.2,1.5,1.2h1.7c0.8,0,1.3-0.4,1.4-1.2l1.3-5.1h0.3l0.3,7.7
	h3.5l-0.3-9.2c0-0.9-0.4-1.3-1.3-1.3H351.4z M333.9,714.8c1.3,0,1.6,0.5,1.6,2.9c0,2.3-0.3,2.8-1.6,2.8c-1.3,0-1.7-0.5-1.7-2.8
	C332.3,715.3,332.6,714.8,333.9,714.8 M333.9,712.1c-4.1,0-5.7,1.5-5.7,5.6c0,4,1.5,5.5,5.7,5.5c4.1,0,5.6-1.5,5.6-5.5
	C339.6,713.6,338,712.1,333.9,712.1 M323.4,717.4c2.5-0.4,2.3-0.6,3.6-5h-3.9c-0.9,3.5-1,3.8-2.5,3.8h-0.5c0.1-0.4,0.1-0.9,0.1-1.3
	v-2.5h-3.8v10.5h3.8v-3.3c0-0.3,0-0.6-0.1-0.8h0.8c1.1,0,1.2,0.3,2.3,4.2h4c-1.5-5-1.5-5.1-4-5.4v-0.2H323.4z M306,717.1h-1.5
	c-1,0-1.2-0.3-1.2-1.3c0-0.8,0.2-1,1.2-1h1.5V717.1z M301.9,718.4c-0.6,0.1-1.7,0.2-2,1.1l-0.8,3.3h3.9l0.7-2.8
	c0.1-0.5,0.3-0.6,1-0.6h1.4v3.4h3.7v-10.6c-1.3-0.1-2.4-0.2-5.3-0.2c-3.9,0-4.8,0.7-4.8,3.4C299.6,716.8,300.1,718,301.9,718.4
	L301.9,718.4z M290.7,719.2c0-0.5,0.3-0.8,0.9-0.8h2.2v1.3c-0.7,0.4-1.4,0.7-2.1,0.7s-1-0.3-1-0.8V719.2z M287.9,715.1
	c1.8-0.1,3.4-0.1,4.5-0.1s1.4,0.3,1.5,1.2v0.3h-3.5c-2.1,0-3.4,1-3.4,2.7v1.1c0,2,1.6,3,3.5,3c1.8,0,3-0.9,3.7-1.8l0.4,1.5h3.1v-6.7
	c0-3.1-1.6-4.1-4.4-4.1c-1.5,0-4.2,0.2-5.7,0.5L287.9,715.1z M285.2,712.4h-6.3c-1.8,0-2.7,0.9-2.9,2.7c-0.1,1.9-0.3,3.4-0.5,4.1
	c-0.2,0.8-0.8,0.8-1.8,1l0.4,2.8c2.3,0.4,4.4-0.1,4.8-2.7c0.2-1,0.4-2.8,0.6-4.4c0.1-0.6,0.4-0.9,1-0.9h0.9v7.9h3.8V712.4z
	 M272.4,722.9v-10.5H269l-3.3,5c-0.3,0.5-0.6,1-0.8,1.5h-0.1c0.1-0.6,0.1-1.1,0.1-1.6v-4.9h-3.4v10.5h3.3l3.3-4.8
	c0.3-0.5,0.7-1.2,0.8-1.8h0.1c-0.1,0.7-0.1,1.2-0.1,1.9v4.7L272.4,722.9L272.4,722.9z M255.3,715.2c2.8-0.4,2.9-1.7,4.4-6.9h-4
	c-1.3,4.4-1.6,5.7-3,5.7H252c0.1-0.6,0.2-1.2,0.2-1.8v-3.9h-3.8v3.9c0,0.6,0.1,1.2,0.2,1.8h-0.7c-1.4,0-1.7-1.3-3-5.7h-4
	c1.5,5.2,1.6,6.5,4.4,6.9v0.1c-2.9,0.4-3.1,1.6-4.8,7.5h4.1c1.6-5.3,1.8-6.2,3.2-6.2h0.7c-0.1,0.5-0.2,0.9-0.2,1.4v4.9h3.8V718
	c0-0.4-0.1-0.9-0.2-1.4h0.7c1.5,0,1.6,0.9,3.2,6.2h4.2c-1.7-6-1.9-7.1-4.9-7.5v-0.1H255.3z"/>
<path class="st4" d="M333.4,307.6c0-1.7,0.1-2.4,1.7-2.4c1.7,0,1.8,0.6,1.8,3.8c-0.7,0.4-1.2,0.6-1.8,0.6
	C333.7,309.5,333.4,309.1,333.4,307.6 M330.3,317c1.7,0.4,3.3,0.4,4.1,0.4c4.7,0,6.4-1.1,6.4-7.7c0-5.9-1-7.4-5.6-7.4
	c-4.2,0-5.5,1.6-5.4,5.3c0,2.7,0.9,4.5,4.2,4.5c1.3,0,2.2-0.2,3-0.9c-0.1,2.5-0.6,3.2-2.5,3.2s-2.6,0-3.9,0L330.3,317z M325.8,313.6
	c-1,0-1.3,0.3-1.3,1.3v0.9c0,1,0.3,1.3,1.3,1.3h0.9c1,0,1.3-0.3,1.3-1.3v-0.9c0-1-0.3-1.3-1.3-1.3H325.8z M321.9,317.1v-14.6H318
	l-3.7,1.4l0.5,2.5l3.4-0.8c-0.1,0.6-0.1,1.2-0.1,1.7v9.7L321.9,317.1L321.9,317.1z M312.4,317.1v-14.6h-3.9l-3.7,1.4l0.5,2.5
	l3.4-0.8c-0.1,0.6-0.1,1.2-0.1,1.7v9.7L312.4,317.1L312.4,317.1z"/>
<path class="st4" d="M398,288.2c0-0.5,0.3-0.8,0.9-0.8h2.2v1.3c-0.7,0.4-1.4,0.7-2.1,0.7s-1-0.3-1-0.8V288.2z M395.1,284
	c1.8-0.1,3.4-0.1,4.5-0.1s1.4,0.3,1.5,1.2v0.3h-3.5c-2.1,0-3.4,1-3.4,2.7v1.1c0,2,1.6,3,3.5,3c1.8,0,3-0.9,3.7-1.8l0.4,1.5h3.1v-6.7
	c0-3.1-1.6-4.1-4.4-4.1c-1.5,0-4.2,0.2-5.7,0.5L395.1,284z M393.4,284.2v-2.9h-10.5v2.9h3.3v7.6h3.8v-7.6H393.4z M374.7,288.2
	c0-0.5,0.3-0.8,0.9-0.8h2.2v1.3c-0.7,0.4-1.4,0.7-2.1,0.7s-1-0.3-1-0.8V288.2z M371.8,284c1.8-0.1,3.4-0.1,4.5-0.1s1.4,0.3,1.5,1.2
	v0.3h-3.5c-2.1,0-3.4,1-3.4,2.7v1.1c0,2,1.6,3,3.5,3c1.8,0,3-0.9,3.7-1.8l0.4,1.5h3.1v-6.7c0-3.1-1.6-4.1-4.4-4.1
	c-1.5,0-4.2,0.2-5.7,0.5L371.8,284z M369.1,281.3h-3.8v3.7h-3.2v-3.7h-3.8v10.5h3.8v-4.2h3.2v4.2h3.8V281.3z M351.4,281.3
	c-0.8,0-1.3,0.4-1.4,1.2l-0.9,3.9c-0.1,0.5-0.1,1-0.2,1.6h-0.2c-0.1-0.5-0.1-1-0.2-1.6l-0.9-3.9c-0.1-0.8-0.6-1.2-1.4-1.2h-3.3
	c-0.9,0-1.3,0.4-1.3,1.3l-0.3,9.2h3.5l0.2-7.7h0.3l1.2,5.1c0.1,0.8,0.7,1.2,1.5,1.2h1.7c0.8,0,1.3-0.4,1.4-1.2l1.3-5.1h0.3l0.3,7.7
	h3.5l-0.3-9.2c0-0.9-0.4-1.3-1.3-1.3H351.4z M333.9,283.7c1.3,0,1.6,0.5,1.6,2.9c0,2.3-0.3,2.8-1.6,2.8c-1.3,0-1.7-0.5-1.7-2.8
	C332.3,284.2,332.6,283.7,333.9,283.7 M333.9,281c-4.1,0-5.7,1.5-5.7,5.6c0,4,1.5,5.5,5.7,5.5c4.1,0,5.6-1.5,5.6-5.5
	C339.6,282.5,338,281,333.9,281 M323.4,286.3c2.5-0.4,2.3-0.6,3.6-5h-3.9c-0.9,3.5-1,3.8-2.5,3.8h-0.5c0.1-0.4,0.1-0.9,0.1-1.3v-2.5
	h-3.8v10.5h3.8v-3.3c0-0.3,0-0.6-0.1-0.8h0.8c1.1,0,1.2,0.3,2.3,4.2h4c-1.5-5-1.5-5.1-4-5.4v-0.2H323.4z M306,286h-1.5
	c-1,0-1.2-0.3-1.2-1.3c0-0.8,0.2-1,1.2-1h1.5V286z M301.9,287.3c-0.6,0.1-1.7,0.2-2,1.1l-0.8,3.3h3.9l0.7-2.8c0.1-0.5,0.3-0.6,1-0.6
	h1.4v3.4h3.7v-10.6c-1.3-0.1-2.4-0.2-5.3-0.2c-3.9,0-4.8,0.7-4.8,3.4C299.6,285.7,300.1,286.9,301.9,287.3L301.9,287.3z
	 M290.7,288.2c0-0.5,0.3-0.8,0.9-0.8h2.2v1.3c-0.7,0.4-1.4,0.7-2.1,0.7s-1-0.3-1-0.8V288.2z M287.9,284c1.8-0.1,3.4-0.1,4.5-0.1
	s1.4,0.3,1.5,1.2v0.3h-3.5c-2.1,0-3.4,1-3.4,2.7v1.1c0,2,1.6,3,3.5,3c1.8,0,3-0.9,3.7-1.8l0.4,1.5h3.1v-6.7c0-3.1-1.6-4.1-4.4-4.1
	c-1.5,0-4.2,0.2-5.7,0.5L287.9,284z M285.2,281.3h-6.3c-1.8,0-2.7,0.9-2.9,2.7c-0.1,1.9-0.3,3.4-0.5,4.1c-0.2,0.8-0.8,0.8-1.8,1
	l0.4,2.8c2.3,0.4,4.4-0.1,4.8-2.7c0.2-1,0.4-2.8,0.6-4.4c0.1-0.6,0.4-0.9,1-0.9h0.9v7.9h3.8V281.3z M272.4,291.8v-10.5H269l-3.3,5
	c-0.3,0.5-0.6,1-0.8,1.5h-0.1c0.1-0.6,0.1-1.1,0.1-1.6v-4.9h-3.4v10.5h3.3l3.3-4.8c0.3-0.5,0.7-1.2,0.8-1.8h0.1
	c-0.1,0.7-0.1,1.2-0.1,1.9v4.7L272.4,291.8L272.4,291.8z M255.3,284.1c2.8-0.4,2.9-1.7,4.4-6.9h-4c-1.3,4.4-1.6,5.7-3,5.7H252
	c0.1-0.6,0.2-1.2,0.2-1.8v-3.9h-3.8v3.9c0,0.6,0.1,1.2,0.2,1.8h-0.7c-1.4,0-1.7-1.3-3-5.7h-4c1.5,5.2,1.6,6.5,4.4,6.9v0.1
	c-2.9,0.4-3.1,1.6-4.8,7.5h4.1c1.6-5.3,1.8-6.2,3.2-6.2h0.7c-0.1,0.5-0.2,0.9-0.2,1.4v4.9h3.8v-4.9c0-0.4-0.1-0.9-0.2-1.4h0.7
	c1.5,0,1.6,0.9,3.2,6.2h4.2c-1.7-6-1.9-7.1-4.9-7.5v-0.1H255.3z"/>
<path class="st4" d="M534.7,352.9l0.2,3.2h6.3c-0.3,0.5-0.5,1-0.7,1.5l-3.5,9.8h3.9l4.4-12.6c0.4-1.1-0.3-1.9-1.5-1.9H534.7z
	 M531.8,363.9c-1,0-1.3,0.3-1.3,1.3v0.9c0,1,0.3,1.3,1.3,1.3h0.9c1,0,1.3-0.3,1.3-1.3v-0.9c0-1-0.3-1.3-1.3-1.3H531.8z M523.5,364.9
	c-1.7,0-1.9-0.5-1.9-3.8c0.7-0.4,1.2-0.6,1.9-0.6c1.4,0,1.7,0.4,1.7,1.9C525.2,364.2,525.1,364.9,523.5,364.9 M527.9,353.1
	c-1.5-0.4-3-0.4-3.8-0.4c-4.2,0-6.4,1-6.4,7.7c0,5.9,1.3,7.4,5.7,7.4c4.5,0,5.4-1.7,5.4-5.3c0-3.2-0.9-4.5-4.3-4.5
	c-1.3,0-2.2,0.2-3,0.8c0.1-2.7,0.6-3.2,2.5-3.2c1.7,0,2.4,0,3.6,0L527.9,353.1z M515.2,367.5v-14.6h-3.9l-3.7,1.4l0.5,2.5l3.4-0.8
	c-0.1,0.6-0.1,1.2-0.1,1.7v9.7L515.2,367.5L515.2,367.5z"/>
<path class="st4" d="M601.4,338.5c0-0.5,0.3-0.8,0.9-0.8h2.2v1.3c-0.7,0.4-1.4,0.7-2.1,0.7c-0.7,0-1-0.3-1-0.8L601.4,338.5
	L601.4,338.5z M598.5,334.4c1.8-0.1,3.4-0.1,4.5-0.1s1.4,0.3,1.5,1.2v0.3H601c-2.1,0-3.4,1-3.4,2.7v1.1c0,2,1.6,3,3.5,3
	c1.8,0,3-0.9,3.7-1.8l0.4,1.5h3.1v-6.7c0-3.1-1.6-4.1-4.4-4.1c-1.5,0-4.2,0.2-5.7,0.5L598.5,334.4z M596.8,334.5v-2.9h-10.5v2.9h3.3
	v7.6h3.8v-7.6H596.8z M578.1,338.5c0-0.5,0.3-0.8,0.9-0.8h2.2v1.3c-0.7,0.4-1.4,0.7-2.1,0.7c-0.7,0-1-0.3-1-0.8L578.1,338.5
	L578.1,338.5z M575.2,334.4c1.8-0.1,3.4-0.1,4.5-0.1s1.4,0.3,1.5,1.2v0.3h-3.5c-2.1,0-3.4,1-3.4,2.7v1.1c0,2,1.6,3,3.5,3
	c1.8,0,3-0.9,3.7-1.8l0.4,1.5h3.1v-6.7c0-3.1-1.6-4.1-4.4-4.1c-1.5,0-4.2,0.2-5.7,0.5L575.2,334.4z M572.6,331.6h-3.8v3.7h-3.2v-3.7
	h-3.8v10.5h3.8v-4.2h3.2v4.2h3.8V331.6z M554.8,331.6c-0.8,0-1.3,0.4-1.4,1.2l-0.9,3.9c-0.1,0.5-0.1,1-0.2,1.6h-0.2
	c-0.1-0.5-0.1-1-0.2-1.6l-0.9-3.9c-0.1-0.8-0.6-1.2-1.4-1.2h-3.3c-0.9,0-1.3,0.4-1.3,1.3l-0.3,9.2h3.5l0.2-7.7h0.3l1.2,5.1
	c0.1,0.8,0.7,1.2,1.5,1.2h1.7c0.8,0,1.3-0.4,1.4-1.2l1.3-5.1h0.3l0.3,7.7h3.5l-0.3-9.2c0-0.9-0.4-1.3-1.3-1.3H554.8z M537.3,334
	c1.3,0,1.6,0.5,1.6,2.9c0,2.3-0.3,2.8-1.6,2.8s-1.7-0.5-1.7-2.8C535.7,334.6,536,334,537.3,334 M537.3,331.3c-4.1,0-5.7,1.5-5.7,5.6
	c0,4,1.5,5.5,5.7,5.5c4.1,0,5.6-1.5,5.6-5.5C543,332.8,541.4,331.3,537.3,331.3 M526.8,336.6c2.5-0.4,2.3-0.6,3.6-5h-3.9
	c-0.9,3.5-1,3.8-2.5,3.8h-0.5c0.1-0.4,0.1-0.9,0.1-1.3v-2.5H520v10.5h3.8v-3.3c0-0.3,0-0.6-0.1-0.8h0.8c1.1,0,1.2,0.3,2.3,4.2h4
	c-1.5-5-1.5-5.1-4-5.4V336.6z M509.4,336.4h-1.5c-1,0-1.2-0.3-1.2-1.3c0-0.8,0.2-1,1.2-1h1.5V336.4z M505.3,337.7
	c-0.6,0.1-1.7,0.2-2,1.1l-0.8,3.3h3.9l0.7-2.8c0.1-0.5,0.3-0.6,1-0.6h1.4v3.4h3.7v-10.6c-1.3-0.1-2.4-0.2-5.3-0.2
	c-3.9,0-4.8,0.7-4.8,3.4C503,336,503.5,337.2,505.3,337.7L505.3,337.7z M494.1,338.5c0-0.5,0.3-0.8,0.9-0.8h2.2v1.3
	c-0.7,0.4-1.4,0.7-2.1,0.7s-1-0.3-1-0.8V338.5z M491.3,334.4c1.8-0.1,3.4-0.1,4.5-0.1s1.4,0.3,1.5,1.2v0.3h-3.5
	c-2.1,0-3.4,1-3.4,2.7v1.1c0,2,1.6,3,3.5,3c1.8,0,3-0.9,3.7-1.8l0.4,1.5h3.1v-6.7c0-3.1-1.6-4.1-4.4-4.1c-1.5,0-4.2,0.2-5.7,0.5
	L491.3,334.4z M488.6,331.6h-6.3c-1.8,0-2.7,0.9-2.9,2.7c-0.1,1.9-0.3,3.4-0.5,4.1c-0.2,0.8-0.8,0.8-1.8,1l0.4,2.8
	c2.3,0.4,4.4-0.1,4.8-2.7c0.2-1,0.4-2.8,0.6-4.4c0.1-0.6,0.4-0.9,1-0.9h0.9v7.9h3.8V331.6z M475.8,342.2v-10.5h-3.3l-3.3,5
	c-0.3,0.5-0.6,1-0.8,1.5h-0.1c0.1-0.6,0.1-1.1,0.1-1.6v-4.9H465v10.5h3.3l3.3-4.8c0.3-0.5,0.7-1.2,0.8-1.8h0.1
	c-0.1,0.7-0.1,1.2-0.1,1.9v4.7L475.8,342.2L475.8,342.2z M458.7,334.5c2.8-0.4,2.9-1.7,4.4-6.9h-4c-1.3,4.4-1.6,5.7-3,5.7h-0.7
	c0.1-0.6,0.2-1.2,0.2-1.8v-3.9h-3.8v3.9c0,0.6,0.1,1.2,0.2,1.8h-0.7c-1.4,0-1.7-1.3-3-5.7h-4c1.5,5.2,1.6,6.5,4.4,6.9v0.1
	c-2.9,0.4-3.1,1.6-4.8,7.5h4.1c1.6-5.3,1.8-6.2,3.2-6.2h0.7c-0.1,0.5-0.2,0.9-0.2,1.4v4.9h3.8v-4.9c0-0.4-0.1-0.9-0.2-1.4h0.7
	c1.5,0,1.6,0.9,3.2,6.2h4.2c-1.7-6-1.9-7.1-4.9-7.5v-0.1H458.7z"/>
<path class="st4" d="M535.6,528.3c2-0.1,3.1-0.1,4.6-0.1c1.1,0,1.6,0.1,1.6,0.7c0,0.8-1,2.1-2.6,3.8l-3.3,3.4
	c-0.4,0.5-0.6,0.9-0.6,1.6v2.1h10.9v-3.4H542c-0.7,0-1.4,0-2.1,0.2l3.6-3.5c1.9-2,2.3-3,2.3-4.5c0-2.9-2-3.5-5.2-3.5
	c-1.6,0-3.1,0.1-5.2,0.5L535.6,528.3z M531.4,536.2c-1,0-1.3,0.3-1.3,1.3v0.9c0,1,0.3,1.3,1.3,1.3h0.9c1,0,1.3-0.3,1.3-1.3v-0.9
	c0-1-0.3-1.3-1.3-1.3H531.4z M522.3,527.9c1.6,0,2.1,0.7,2.1,4.6s-0.4,4.6-2.1,4.6c-1.6,0-2-0.7-2-4.6S520.8,527.9,522.3,527.9
	 M522.3,524.9c-4.4,0-5.9,1.9-5.9,7.6c0,5.7,1.5,7.6,5.9,7.6s6-1.9,6-7.6C528.3,526.8,526.8,524.9,522.3,524.9 M513.8,539.7v-14.6
	h-3.9l-3.7,1.4l0.5,2.5l3.4-0.8c-0.1,0.6-0.1,1.2-0.1,1.7v9.7L513.8,539.7L513.8,539.7z"/>
<path class="st4" d="M564.5,507.1c0.7-0.4,1.2-0.7,2-0.7c1,0,1.4,0.4,1.4,2.8s-0.4,2.8-1.5,2.8c-0.8,0-1.3-0.2-1.8-0.4v-4.5H564.5z
	 M563.8,503.9h-3.1v14.4h3.8V516c0-0.7,0-1.5-0.1-2.3c0.9,0.7,2.1,0.9,3.4,0.9c2.6,0,4-1.2,4-5.4c0-3.6-1.1-5.6-3.7-5.6
	c-1.7,0-3.3,0.8-4,1.7L563.8,503.9z M553.2,506.3c1.3,0,1.6,0.5,1.6,2.9c0,2.3-0.3,2.8-1.6,2.8s-1.6-0.5-1.6-2.8
	C551.6,506.8,551.9,506.3,553.2,506.3 M553.2,503.6c-4.1,0-5.7,1.5-5.7,5.6c0,4,1.5,5.5,5.7,5.5c4.1,0,5.6-1.5,5.6-5.5
	C558.9,505.1,557.4,503.6,553.2,503.6 M541.2,511.8h-3.1c0.5-1.2,0.9-2.7,1.2-4.6c0.1-0.6,0.4-0.8,0.9-0.8h1L541.2,511.8
	L541.2,511.8z M546.5,511.8h-1.8v-7.9H539c-1.9,0-2.8,0.9-3,2.6c-0.3,1.8-0.6,3.6-1.2,5.4h-1.3v5.5h2.5l0.3-2.9h7.5l0.3,2.9h2.5
	L546.5,511.8L546.5,511.8z M531.9,514.4v-10.5h-3.3l-3.3,5c-0.3,0.5-0.6,1-0.8,1.5h-0.1c0.1-0.6,0.1-1.1,0.1-1.6v-4.9h-3.4v10.5h3.3
	l3.3-4.8c0.3-0.5,0.7-1.2,0.8-1.8h0.1c-0.1,0.7-0.1,1.2-0.1,1.9v4.7H531.9z M512,507.1c0.7-0.4,1.2-0.7,2-0.7c1,0,1.4,0.4,1.4,2.8
	s-0.4,2.8-1.5,2.8c-0.8,0-1.3-0.2-1.8-0.4v-4.5H512z M511.2,503.9h-3.1v14.4h3.8V516c0-0.7,0-1.5-0.1-2.3c0.9,0.7,2.1,0.9,3.4,0.9
	c2.6,0,4-1.2,4-5.4c0-3.6-1.1-5.6-3.7-5.6c-1.7,0-3.3,0.8-4,1.7L511.2,503.9z M500.7,506.3c1.3,0,1.6,0.5,1.6,2.9
	c0,2.3-0.3,2.8-1.6,2.8c-1.3,0-1.6-0.5-1.6-2.8C499,506.8,499.3,506.3,500.7,506.3 M500.7,503.6c-4.1,0-5.7,1.5-5.7,5.6
	c0,4,1.5,5.5,5.7,5.5c4.1,0,5.6-1.5,5.6-5.5C506.3,505.1,504.8,503.6,500.7,503.6 M489.2,506.7c2.9-0.4,3-1.7,4.6-6.9h-4
	c-1.1,4.4-1.4,5.7-3.5,5.7h-0.7c0.1-0.6,0.2-1.2,0.2-1.8v-3.9h-3.9v14.6h3.9v-4.9c0-0.4-0.1-0.9-0.2-1.4h0.8c2,0,2.2,0.9,3.7,6.2
	h4.1c-1.8-6-2-7.1-5-7.5V506.7z"/>
<path class="st4" d="M721.9,531.9c1.1,0,2.6,0,4.1,0s1.9,0.2,1.9,1.4c0,1-0.1,1.6-1.7,1.6h-2.8v2.5h2.8c1.6,0,1.9,0.5,1.9,1.7
	c0,1.5-0.6,1.8-2.4,1.8c-1.3,0-2.2,0-4-0.1l-0.1,2.9c1.6,0.2,3.5,0.4,5.2,0.4c3.9,0,5.3-1.3,5.2-4.3c0-2.2-0.7-3.3-2.7-3.7V536
	c1.9-0.3,2.3-1.6,2.3-3.7c0-2.6-1.4-3.4-4.9-3.4c-1.6,0-3.2,0.1-4.9,0.4L721.9,531.9z M717.6,540c-1,0-1.3,0.3-1.3,1.3v0.9
	c0,1,0.3,1.3,1.3,1.3h0.9c1,0,1.3-0.3,1.3-1.3v-0.9c0-1-0.3-1.3-1.3-1.3H717.6z M714.1,531.9l0.1-2.9h-9.1l-0.4,6.6
	c0,0.7,0.4,1.2,1.1,1.3l2.3,0.3c2,0.2,2.7,0.4,2.6,1.8c-0.1,1.2-0.5,1.7-2.4,1.7c-1,0-2.4-0.1-3.8-0.2l-0.4,3
	c1.9,0.3,3.7,0.4,5.2,0.4c4.1,0,5.3-2.1,5.3-4.8c0-2.3-0.9-4.4-4.3-4.8L708,534l0.1-2L714.1,531.9L714.1,531.9z"/>
<path class="st4" d="M767.3,512.5h-1.5c-1,0-1.2-0.3-1.2-1.3c0-0.8,0.2-1,1.2-1h1.5V512.5z M763.2,513.8c-0.6,0.1-1.7,0.2-2,1.1
	l-0.8,3.3h3.9l0.7-2.8c0.1-0.5,0.3-0.6,1-0.6h1.4v3.4h3.7v-10.6c-1.3-0.1-2.4-0.2-5.3-0.2c-3.9,0-4.8,0.7-4.8,3.4
	C760.9,512.1,761.4,513.3,763.2,513.8L763.2,513.8z M752,514.6c0-0.5,0.3-0.8,0.9-0.8h2.2v1.3c-0.7,0.4-1.4,0.7-2.1,0.7
	c-0.7,0-1-0.3-1-0.8L752,514.6L752,514.6z M749.2,510.5c1.8-0.1,3.4-0.1,4.5-0.1s1.4,0.3,1.5,1.2v0.3h-3.5c-2.1,0-3.4,1-3.4,2.7v1.1
	c0,2,1.6,3,3.5,3c1.8,0,3-0.9,3.7-1.8l0.4,1.5h3.1v-6.7c0-3.1-1.6-4.1-4.4-4.1c-1.5,0-4.2,0.2-5.7,0.5L749.2,510.5z M743.3,512.7
	c2.4-0.3,2.4-0.6,3.7-5h-3.8c-1.1,3.4-1.2,3.8-2.3,3.8h-0.7c0.1-0.4,0.1-0.9,0.1-1.3v-2.5H737v2.5c0,0.4,0,0.9,0.1,1.3h-0.7
	c-1.1,0-1.2-0.4-2.3-3.8h-3.8c1.4,4.3,1.3,4.6,3.7,5v0.1c-2.5,0.4-2.6,0.6-4.1,5.4h3.9c1.3-4,1.4-4.2,2.3-4.2h0.8
	c-0.1,0.3-0.1,0.6-0.1,0.9v3.3h3.4v-3.3c0-0.3,0-0.6-0.1-0.9h0.7h0.1c0.9,0,1,0.3,2.3,4.2h3.9c-1.5-4.9-1.6-5.1-4.1-5.4v-0.1H743.3z
	 M723.7,510.1c1.3,0,1.6,0.5,1.6,2.9c0,2.3-0.3,2.8-1.6,2.8s-1.7-0.5-1.7-2.8S722.4,510.1,723.7,510.1 M723.7,507.4
	c-4.1,0-5.7,1.5-5.7,5.6c0,4,1.5,5.5,5.7,5.5c4.1,0,5.6-1.5,5.6-5.5C729.3,508.9,727.8,507.4,723.7,507.4 M713.7,518.2h3.9l-3.1-5.4
	l2.9-5.1h-3.8l-2.1,3.9l-2.1-3.9h-3.8l2.9,5.1l-3.1,5.4h3.9l2.3-4.2L713.7,518.2z M704.1,518.2v-10.5h-3.3l-3.3,5
	c-0.3,0.5-0.6,1-0.8,1.5h-0.1c0.1-0.6,0.1-1.1,0.1-1.6v-4.9h-3.4v10.5h3.3l3.3-4.8c0.3-0.5,0.7-1.2,0.8-1.8h0.1
	c-0.1,0.7-0.1,1.2-0.1,1.9v4.7L704.1,518.2L704.1,518.2z M684.1,511c0.7-0.4,1.2-0.7,2-0.7c1,0,1.4,0.4,1.4,2.8
	c0,2.4-0.4,2.8-1.5,2.8c-0.8,0-1.3-0.2-1.8-0.4V511H684.1z M683.3,507.7h-3.1v14.4h3.8v-2.3c0-0.7,0-1.5-0.1-2.3
	c0.9,0.7,2.1,0.9,3.4,0.9c2.6,0,4-1.2,4-5.4c0-3.6-1.1-5.6-3.7-5.6c-1.7,0-3.3,0.8-4,1.7L683.3,507.7z M677.8,503.6h-12.2v14.6h3.9
	v-11.9h4.3v11.9h4V503.6z"/>
<path class="st4" d="M744.6,321.3v-14.6h-3.9l-3.7,1.4l0.5,2.5l3.4-0.8c-0.1,0.6-0.1,1.2-0.1,1.7v9.7L744.6,321.3L744.6,321.3z
	 M734.6,317.7c-1,0-1.3,0.3-1.3,1.3v0.9c0,1,0.3,1.3,1.3,1.3h0.9c1,0,1.3-0.3,1.3-1.3V319c0-1-0.3-1.3-1.3-1.3H734.6z M721,309.9
	c2-0.1,3.1-0.1,4.6-0.1c1.1,0,1.6,0.1,1.6,0.7c0,0.8-0.9,2.1-2.6,3.8l-3.3,3.4c-0.4,0.5-0.6,0.9-0.6,1.6v2.1h10.9V318h-4.2
	c-0.7,0-1.4,0-2.1,0.2l3.6-3.5c1.9-2,2.3-3,2.3-4.5c0-2.9-2.1-3.5-5.2-3.5c-1.6,0-3.1,0.1-5.2,0.5L721,309.9z M718.2,321.3v-14.6
	h-3.9l-3.7,1.4l0.5,2.5l3.4-0.8c-0.1,0.6-0.1,1.2-0.1,1.7v9.7L718.2,321.3L718.2,321.3z"/>
<path class="st4" d="M755.4,290.2h-1.5c-1,0-1.2-0.3-1.2-1.3c0-0.8,0.2-1,1.2-1h1.5V290.2z M751.3,291.5c-0.6,0.1-1.7,0.2-2,1.1
	l-0.8,3.3h3.9l0.7-2.8c0.1-0.5,0.3-0.6,1-0.6h1.4v3.4h3.7v-10.6c-1.3-0.1-2.4-0.2-5.3-0.2c-3.9,0-4.8,0.7-4.8,3.4
	C749,289.9,749.5,291.1,751.3,291.5L751.3,291.5z M746.9,285.5h-3.8v3.7h-3.2v-3.7h-3.8V296h3.8v-4.2h3.2v4.2h3.8V285.5z M731.1,296
	h3.9l-3.1-5.4l2.9-5.1H731l-2.1,3.9l-2.1-3.9H723l2.9,5.1l-3.1,5.4h3.9l2.3-4.2L731.1,296z M722.5,285.5h-4.1l-1.5,6.3
	c-0.1,0.5-0.3,1.2-0.4,1.8h-0.2c-0.1-0.6-0.2-1.2-0.3-1.8l-1.6-6.3h-4.1l3.3,9.6c0.2,0.5,0.6,0.9,1.2,0.9h0.7
	c-0.3,0.5-0.7,1-1.1,1.2c-0.7,0.4-1.6,0.5-2.9,0.4l-0.3,2.5c1.5,0.3,3.1,0.3,4.3-0.2c1.6-0.6,2.8-1.6,3.6-4.1L722.5,285.5z
	 M705.3,288.3c2.9-0.4,3-1.7,4.6-6.9h-4c-1.1,4.4-1.4,5.7-3.5,5.7h-0.7c0.1-0.6,0.2-1.2,0.2-1.8v-3.9H698V296h3.9v-4.9
	c0-0.4-0.1-0.9-0.2-1.4h0.8c2,0,2.2,0.9,3.7,6.2h4.1c-1.8-6-2-7.1-5-7.5L705.3,288.3L705.3,288.3z"/>
<rect x="804.4" y="76" class="st4" width="26.9" height="104.4"/>
<rect x="749.8" y="187.9" transform="matrix(0.8571 -0.5152 0.5152 0.8571 13.0346 425.3703)" class="st2" width="46.7" height="2.5"/>
<rect x="749.8" y="187.9" transform="matrix(0.8571 -0.5152 0.5152 0.8571 13.0346 425.3703)" class="st6" width="46.7" height="2.5"/>
<path class="st1" d="M752.6,200.3c0,0-3.6-5.8-4.8-14.5c-0.7-5.1-0.5-9.1-0.5-9.1"/>
<rect x="339.2" y="187.9" transform="matrix(0.8571 -0.5152 0.5152 0.8571 -45.6294 213.8148)" class="st2" width="46.7" height="2.5"/>
<rect x="339.2" y="187.9" transform="matrix(0.8571 -0.5152 0.5152 0.8571 -45.6294 213.8148)" class="st6" width="46.7" height="2.5"/>
<path class="st1" d="M342,200.3c0,0-3.6-5.8-4.8-14.5c-0.7-5.1-0.5-9.1-0.5-9.1"/>
<rect x="517.6" y="165.8" transform="matrix(0.5152 -0.8571 0.8571 0.5152 89.4504 536.3597)" class="st2" width="2.5" height="46.7"/>
<polygon class="st1" points="504.7,176.7 503.6,178.7 538.4,202.3 539.5,200.2 "/>
<path class="st1" d="M539.4,200.3c0,0,3.6-5.8,4.8-14.5c0.7-5.1,0.5-9.1,0.5-9.1"/>
<rect x="615.2" y="171.2" class="st1" width="129.2" height="23.4"/>
<rect x="547.7" y="171.2" class="st1" width="129.2" height="23.4"/>
<rect x="609.6" y="171.2" class="st2" width="139.2" height="5.6"/>
<rect x="609.6" y="171.2" class="st1" width="139.2" height="5.6"/>
<rect x="543.2" y="171.2" class="st2" width="139.2" height="5.6"/>
<rect x="543.2" y="171.2" class="st1" width="139.2" height="5.6"/>
<rect x="629.2" y="171.2" class="st4" width="47.5" height="23.4"/>
<rect x="629.2" y="171.2" class="st1" width="47.5" height="23.4"/>
<rect x="218.6" y="171.2" class="st4" width="47.5" height="23.4"/>
<rect x="218.6" y="171.2" class="st1" width="47.5" height="23.4"/>
<rect x="586.5" y="171.2" class="st4" width="47.5" height="23.4"/>
<rect x="586.5" y="171.2" class="st1" width="47.5" height="23.4"/>
<rect x="622.7" y="80.3" class="st4" width="11.1" height="51.4"/>
<rect x="622.7" y="80.3" class="st1" width="11.1" height="51.4"/>
<rect x="419" y="108.8" class="st4" width="11.1" height="64.4"/>
<rect x="419" y="108.8" class="st1" width="11.1" height="64.4"/>
<rect x="622.7" y="186.6" class="st4" width="11.1" height="82.1"/>
<rect x="622.7" y="186.6" class="st1" width="11.1" height="82.1"/>
<rect x="622.7" y="357.3" class="st4" width="11.1" height="122.1"/>
<rect x="622.7" y="357.3" class="st1" width="11.1" height="122.1"/>
<rect x="704.6" y="438.1" class="st4" width="7.1" height="41.3"/>
<rect x="704.6" y="438.1" class="st1" width="7.1" height="41.3"/>
<line class="st3" x1="836.9" y1="539.7" x2="827" y2="539.7"/>
<line class="st1" x1="836.9" y1="539.7" x2="827" y2="539.7"/>
<rect x="623.9" y="565.3" class="st4" width="9.9" height="338.1"/>
<rect x="623.9" y="565.3" class="st1" width="9.9" height="335.8"/>
<rect x="678.1" y="472.3" class="st4" width="33.6" height="7.1"/>
<rect x="678.1" y="472.3" class="st1" width="33.6" height="7.1"/>
<rect x="611.4" y="472.3" class="st4" width="33.6" height="7.1"/>
<rect x="611.4" y="472.3" class="st1" width="33.6" height="7.1"/>
<rect x="592.3" y="469.6" class="st4" width="33.6" height="9.9"/>
<rect x="592.3" y="469.6" class="st1" width="33.6" height="9.9"/>
<rect x="419.8" y="469.6" class="st4" width="99.7" height="9.9"/>
<rect x="419.8" y="469.6" class="st1" width="99.7" height="9.9"/>
<rect x="218.6" y="392.7" class="st4" width="152.2" height="9.9"/>
<rect x="218.6" y="392.7" class="st1" width="152.2" height="9.9"/>
<rect x="218.6" y="453.1" class="st4" width="133.8" height="5.2"/>
<rect x="218.6" y="453.1" class="st1" width="133.8" height="5.2"/>
<rect x="347.1" y="438.5" class="st4" width="5.2" height="53.6"/>
<rect x="347.1" y="438.5" class="st1" width="5.2" height="53.6"/>
<rect x="347.1" y="525" class="st4" width="5.2" height="40"/>
<rect x="347.1" y="525" class="st1" width="5.2" height="40"/>
<rect x="214.9" y="558.1" class="st4" width="154.9" height="9.9"/>
<rect x="214.9" y="558.1" class="st1" width="154.9" height="9.9"/>
<rect x="426.6" y="558.1" class="st4" width="119" height="9.9"/>
<rect x="426.6" y="558.1" class="st1" width="119" height="9.9"/>
<rect x="593.5" y="558.1" class="st4" width="244.8" height="9.9"/>
<rect x="593.5" y="558.1" class="st1" width="244.8" height="9.9"/>
<rect x="419.6" y="189.8" class="st4" width="9.9" height="297.4"/>
<rect x="419.6" y="189.8" class="st1" width="9.9" height="297.4"/>
<rect x="622.7" y="393.5" class="st4" width="211.4" height="9"/>
<rect x="622.7" y="393.5" class="st1" width="211.4" height="9"/>
<rect x="788.5" y="171.2" class="st4" width="47.5" height="23.4"/>
<rect x="788.5" y="171.2" class="st1" width="47.5" height="23.4"/>
<rect x="377.8" y="171.2" class="st4" width="47.5" height="23.4"/>
<rect x="377.8" y="171.2" class="st1" width="47.5" height="23.4"/>
<rect x="424.6" y="171.2" class="st4" width="38.9" height="23.4"/>
<rect x="424.6" y="176.7" class="st1" width="78.9" height="17.9"/>
<rect x="636.5" y="171.2" class="st4" width="45.7" height="5.6"/>
<rect x="636.5" y="171.2" class="st1" width="45.7" height="5.6"/>
<rect x="225.8" y="171.2" class="st4" width="45.7" height="5.6"/>
<rect x="225.8" y="171.2" class="st1" width="45.7" height="5.6"/>
<rect x="581.1" y="171.2" class="st4" width="45.7" height="5.6"/>
<rect x="581.1" y="171.2" class="st1" width="45.7" height="5.6"/>
<rect x="783.1" y="171.2" class="st4" width="45.7" height="5.6"/>
<rect x="783.1" y="171.2" class="st1" width="45.7" height="5.6"/>
<rect x="372.4" y="171.2" class="st4" width="45.7" height="5.6"/>
<rect x="372.4" y="171.2" class="st1" width="45.7" height="5.6"/>
<rect x="463.3" y="171.2" class="st1" width="45.7" height="5.6"/>
<rect x="259.4" y="880.5" class="st1" width="129.2" height="23.4"/>
<rect x="257.2" y="898.3" class="st2" width="133.7" height="5.6"/>
<rect x="257.2" y="898.3" class="st1" width="133.7" height="5.6"/>
<rect x="215.6" y="880.5" class="st4" width="47.5" height="23.4"/>
<rect x="215.6" y="880.5" class="st1" width="47.5" height="23.4"/>
<rect x="381.9" y="880.5" class="st4" width="47.5" height="23.4"/>
<rect x="381.9" y="880.5" class="st1" width="47.5" height="23.4"/>
<rect x="419.9" y="537.3" class="st4" width="9.9" height="352.6"/>
<rect x="419.9" y="537.3" class="st1" width="9.9" height="352.6"/>
<rect x="222.8" y="898.3" class="st4" width="45.7" height="5.6"/>
<rect x="222.8" y="898.3" class="st1" width="45.7" height="5.6"/>
<rect x="376.6" y="898.3" class="st4" width="45.7" height="5.6"/>
<rect x="376.6" y="898.3" class="st1" width="45.7" height="5.6"/>
<rect x="826.6" y="538.9" class="st4" width="11.7" height="29.1"/>
<rect x="692.5" y="403.9" class="st1" width="49.8" height="16.8"/>
<line class="st1" x1="743" y1="418.2" x2="691.8" y2="418.2"/>
<polyline class="st1" points="739.4,418.2 738.1,406.5 731.5,406.5 730.1,418.2 "/>
<polyline class="st1" points="728.2,418 726.8,406.5 696.9,406.5 695.9,418.2 "/>
<rect x="227.3" y="403.9" class="st1" width="16.8" height="47.6"/>
<line class="st1" x1="229.8" y1="403.2" x2="229.8" y2="452.1"/>
<polyline class="st1" points="229.8,406.7 241.5,407.9 241.5,414.2 229.8,415.5 "/>
<polyline class="st1" points="230.1,417.4 241.5,418.7 241.5,447.2 229.8,448.2 "/>
<rect x="692.5" y="420.7" class="st1" width="49.8" height="16.8"/>
<line class="st1" x1="691.8" y1="435" x2="743" y2="435"/>
<polyline class="st1" points="695.5,435.1 696.7,423.3 703.3,423.3 704.7,435.1 "/>
<polyline class="st1" points="706.6,434.8 708,423.3 737.9,423.3 738.9,435.1 "/>
<rect x="837.4" y="165.9" class="st2" width="2.6" height="102.7"/>
<rect x="827" y="76" class="st4" width="9.9" height="414.1"/>
<rect x="827" y="76" class="st1" width="9.9" height="414.1"/>
<rect x="675.4" y="359.3" class="st1" width="32.8" height="32.8"/>
<path class="st1" d="M691.8,369.8c-0.9,0-1.7,0.8-1.7,1.7c0,0.9,0.8,1.7,1.7,1.7s1.7-0.8,1.7-1.7
	C693.5,370.5,692.8,369.8,691.8,369.8z"/>
<path class="st1" d="M702.4,382.6c1.3,0,2.3-1,2.3-2.3V365c0-1.3-1-2.3-2.3-2.3h-21.2c-1.3,0-2.3,1-2.3,2.3v15.3
	c0,1.3,1,2.3,2.3,2.3L702.4,382.6L702.4,382.6z"/>
<path class="st1" d="M700,380c1.3,0,2.3-1,2.3-2.3v-10.6c0-1.3-1-2.3-2.3-2.3h-16.3c-1.3,0-2.3,1-2.3,2.3v10.6c0,1.3,1,2.3,2.3,2.3
	H700z"/>
<path class="st1" d="M665.5,411.2c0-1.7-1.4-3.1-3.1-3.1h-14.7c-1.7,0-3.1,1.4-3.1,3.1v3.6c0,1.7,1.4,3.1,3.1,3.1h14.7
	c1.7,0,3.1-1.4,3.1-3.1V411.2z"/>
<path class="st1" d="M655.1,446.9c5.8,0,10.4-4.7,10.4-10.6v-15.5c0-1.5-1.2-2.7-2.7-2.7h-15.6c-1.5,0-2.7,1.2-2.7,2.7v15.5
	C644.6,442.2,649.3,446.9,655.1,446.9z"/>
<path class="st1" d="M654.9,443.2c4.2,0,7.5-3.4,7.5-7.7v-11.3l0,0h-15.1l0,0v11.3C647.4,439.8,650.7,443.2,654.9,443.2z"/>
<path class="st1" d="M653.9,412.9c0,0.6,0.5,1.2,1.1,1.2s1.1-0.5,1.1-1.2c0-0.6-0.5-1.2-1.1-1.2
	C654.4,411.7,653.9,412.3,653.9,412.9z"/>
<path class="st1" d="M652.9,433.7c0,1.1,0.9,2.1,2,2.1s2-0.9,2-2.1c0-1.1-0.9-2.1-2-2.1S652.9,432.6,652.9,433.7z"/>
<line class="st1" x1="660.9" y1="425.7" x2="657.5" y2="430.8"/>
<line class="st1" x1="648.9" y1="425.7" x2="652.3" y2="430.8"/>
<path class="st1" d="M254.3,417.2c-1.7,0-3.1,1.4-3.1,3.1V435c0,1.7,1.4,3.1,3.1,3.1h3.6c1.7,0,3.1-1.4,3.1-3.1v-14.7
	c0-1.7-1.4-3.1-3.1-3.1H254.3z"/>
<path class="st1" d="M290,427.7c0-5.8-4.7-10.4-10.6-10.4h-15.5c-1.5,0-2.7,1.2-2.7,2.7v15.6c0,1.5,1.2,2.7,2.7,2.7h15.5
	C285.3,438.1,290,433.4,290,427.7z"/>
<path class="st1" d="M286.3,427.8c0-4.2-3.4-7.5-7.7-7.5h-11.3l0,0v15.1l0,0h11.3C282.9,435.4,286.3,432,286.3,427.8z"/>
<path class="st1" d="M256,428.8c0.6,0,1.2-0.5,1.2-1.1s-0.5-1.1-1.2-1.1c-0.6,0-1.2,0.5-1.2,1.1C254.9,428.3,255.4,428.8,256,428.8z
	"/>
<path class="st1" d="M276.9,429.9c1.1,0,2.1-0.9,2.1-2s-0.9-2-2.1-2c-1.1,0-2.1,0.9-2.1,2S275.7,429.9,276.9,429.9z"/>
<line class="st1" x1="268.9" y1="421.8" x2="274" y2="425.2"/>
<line class="st1" x1="268.9" y1="433.9" x2="274" y2="430.5"/>
<path class="st1" d="M699.6,468.2c1.1,0,1.9-0.9,1.9-1.9v-9.7v-3.7v-9.7c0-1-0.9-1.9-1.9-1.9c0,0-11.9,0-12.2,0.1
	c-5.4,1.1-9.3,5.9-9.3,11.5v3.7c0,5.6,4,10.5,9.3,11.6C687.7,468.2,699.6,468.2,699.6,468.2z"/>
<path class="st1" d="M696,465.5c0.8,0,1.5-0.7,1.5-1.5v-7.8v-2.9v-7.8c0-0.8-0.7-1.5-1.5-1.5c0,0-7.9,0-8.1,0.1
	c-4.3,0.9-7.4,4.7-7.4,9.2v2.9c0,4.5,3.2,8.4,7.4,9.2C688.1,465.5,696,465.5,696,465.5z"/>
<path class="st1" d="M687,454.7c0,0.5,0.4,1,1,1c0.5,0,1-0.4,1-1c0-0.5-0.4-1-1-1S687,454.2,687,454.7z"/>
<rect x="223.8" y="456.7" class="st4" width="10.2" height="105.7"/>
<rect x="223.8" y="456.7" class="st1" width="10.2" height="105.7"/>
<rect x="311.7" y="459.6" class="st1" width="32.9" height="32.5"/>
<line class="st1" x1="344.8" y1="492.2" x2="311.5" y2="459.6"/>
<line class="st1" x1="311.5" y1="492.2" x2="344.8" y2="459.6"/>
<path class="st5" d="M250.6,553c-7.4,0-13.3-6-13.3-13.3v-65.9c0-7.4,6-13.3,13.3-13.3h12.1c7.4,0,13.3,6,13.3,13.3v65.9
	c0,7.4-6,13.3-13.3,13.3H250.6z"/>
<path class="st5" d="M254.2,546.6c-7.4,0-13.3-6-13.3-13.3v-53c0-7.4,6-13.3,13.3-13.3h4.8c7.4,0,13.3,6,13.3,13.3v53
	c0,7.4-6,13.3-13.3,13.3H254.2z"/>
<path class="st5" d="M251,538.8c-3.7,0-6.7-3-6.7-6.7v-55c0-3.7,3-6.7,6.7-6.7h11.2c3.7,0,6.7,3,6.7,6.7v55c0,3.7-3,6.7-6.7,6.7H251
	z"/>
<ellipse class="st5" cx="256.6" cy="479.1" rx="1.6" ry="1.6"/>
<line class="st1" x1="278.3" y1="557.5" x2="278.3" y2="456"/>
<path class="st1" d="M309.1,461.6c0-1.1-0.9-1.9-1.9-1.9h-9.7h-3.7H284c-1,0-1.9,0.9-1.9,1.9c0,0,0,11.9,0.1,12.2
	c1.1,5.4,5.9,9.3,11.5,9.3h3.7c5.6,0,10.5-4,11.6-9.3C309.2,473.5,309.1,461.6,309.1,461.6z"/>
<path class="st1" d="M306.4,465.2c0-0.8-0.7-1.5-1.5-1.5h-7.8h-2.9h-7.8c-0.8,0-1.5,0.7-1.5,1.5c0,0,0,7.9,0.1,8.1
	c0.9,4.3,4.7,7.4,9.2,7.4h2.9c4.5,0,8.4-3.2,9.2-7.4C306.5,473.1,306.4,465.2,306.4,465.2z"/>
<path class="st1" d="M295.6,474.2c0.5,0,1-0.4,1-1c0-0.5-0.4-1-1-1s-1,0.4-1,1C294.7,473.8,295.1,474.2,295.6,474.2z"/>
<path class="st4" d="M325.8,528.5l0.1-2h-6.4l-0.3,4.6c0,0.5,0.3,0.9,0.8,0.9l1.6,0.2c1.4,0.1,1.9,0.3,1.8,1.3
	c-0.1,0.8-0.4,1.2-1.7,1.2c-0.7,0-1.7,0-2.6-0.1l-0.3,2.1c1.3,0.2,2.6,0.3,3.6,0.3c2.9,0,3.7-1.5,3.7-3.3c0-1.6-0.6-3.1-3-3.4
	l-1.7-0.2l0.1-1.4h4.3V528.5z M316.2,534.2c-0.7,0-0.9,0.2-0.9,0.9v0.7c0,0.7,0.2,0.9,0.9,0.9h0.6c0.7,0,0.9-0.2,0.9-0.9v-0.7
	c0-0.7-0.2-0.9-0.9-0.9H316.2z M307,528.5c0.8,0,1.8,0,2.8,0s1.3,0.1,1.3,1c0,0.7-0.1,1.1-1.2,1.1h-2v1.8h2c1.1,0,1.3,0.3,1.3,1.2
	c0,1-0.4,1.2-1.7,1.2c-0.9,0-1.5,0-2.8-0.1l-0.1,2c1.2,0.2,2.4,0.3,3.7,0.3c2.7,0,3.7-0.9,3.7-3c0-1.6-0.5-2.3-1.9-2.6v-0.1
	c1.3-0.2,1.6-1.1,1.6-2.6c0-1.8-0.9-2.4-3.4-2.4c-1.1,0-2.3,0.1-3.4,0.3L307,528.5z"/>
<path class="st4" d="M339.9,514.9h-1.1c-0.7,0-0.8-0.2-0.8-0.9c0-0.5,0.1-0.7,0.8-0.7h1.1V514.9z M337,515.8c-0.4,0-1.2,0.2-1.4,0.8
	l-0.6,2.3h2.8l0.5-2c0.1-0.3,0.2-0.4,0.7-0.4h1v2.4h2.6v-7.4c-0.9-0.1-1.7-0.1-3.7-0.1c-2.7,0-3.4,0.5-3.4,2.4
	C335.4,514.6,335.8,515.5,337,515.8L337,515.8z M329.2,516.4c0-0.3,0.2-0.6,0.6-0.6h1.5v0.9c-0.5,0.3-1,0.5-1.4,0.5
	c-0.5,0-0.7-0.2-0.7-0.6V516.4z M327.2,513.5c1.2-0.1,2.4-0.1,3.2-0.1c0.8,0,1,0.2,1,0.8v0.2H329c-1.5,0-2.4,0.7-2.4,1.9v0.7
	c0,1.4,1.1,2.1,2.5,2.1c1.3,0,2.1-0.6,2.6-1.3l0.2,1.1h2.1v-4.7c0-2.2-1.1-2.9-3.1-2.9c-1.1,0-2.9,0.2-4,0.4L327.2,513.5z
	 M325.3,511.6h-2.6v2.6h-2.3v-2.6h-2.6v7.3h2.6v-3h2.3v3h2.6V511.6z M316.2,511.6h-2.6v2.6h-2.3v-2.6h-2.6v7.3h2.6v-3h2.3v3h2.6
	V511.6z M302.3,516.4c0-0.3,0.2-0.6,0.6-0.6h1.5v0.9c-0.5,0.3-1,0.5-1.4,0.5c-0.5,0-0.7-0.2-0.7-0.6V516.4z M300.3,513.5
	c1.2-0.1,2.4-0.1,3.2-0.1c0.8,0,1,0.2,1,0.8v0.2H302c-1.5,0-2.4,0.7-2.4,1.9v0.7c0,1.4,1.1,2.1,2.5,2.1c1.3,0,2.1-0.6,2.6-1.3
	l0.3,1.1h2.1v-4.7c0-2.2-1.1-2.9-3.1-2.9c-1.1,0-2.9,0.2-4,0.4L300.3,513.5z M293.2,517.1v-2.6h1.4c1.1,0,1.3,0.3,1.3,1.3
	s-0.3,1.3-1.3,1.3H293.2z M293.2,512.8v-2.2h1.3c1,0,1.2,0.2,1.2,1.1s-0.3,1.1-1.2,1.1H293.2z M296.6,513.6c1.3-0.1,1.8-0.9,1.8-2.3
	c0-2.1-1-2.7-3.7-2.7c-1.9,0-2.9,0-4.2,0.1v10.2c1.4,0.1,2.5,0.1,4.6,0.1c2.5,0,3.6-0.6,3.6-2.7
	C298.7,514.7,298.2,513.8,296.6,513.6L296.6,513.6z"/>
<path class="st4" d="M326.8,433.1l0.1-2h-6.4l-0.3,4.6c0,0.5,0.3,0.9,0.8,0.9l1.6,0.2c1.4,0.1,1.9,0.3,1.8,1.3
	c-0.1,0.8-0.4,1.2-1.7,1.2c-0.7,0-1.7,0-2.6-0.1l-0.3,2.1c1.3,0.2,2.6,0.3,3.6,0.3c2.9,0,3.7-1.5,3.7-3.3c0-1.6-0.6-3.1-3-3.4
	l-1.7-0.2l0.1-1.4h4.3V433.1z M317.2,438.7c-0.7,0-0.9,0.2-0.9,0.9v0.6c0,0.7,0.2,0.9,0.9,0.9h0.6c0.7,0,0.9-0.2,0.9-0.9v-0.6
	c0-0.7-0.2-0.9-0.9-0.9H317.2z M314.5,441.2V431h-2.8l-2.6,1l0.3,1.8l2.4-0.5c-0.1,0.4-0.1,0.8-0.1,1.2v6.8L314.5,441.2L314.5,441.2
	z"/>
<path class="st4" d="M331.2,416.1h-2.9l-1.1,4.4c-0.1,0.3-0.2,0.8-0.3,1.3h-0.1c-0.1-0.4-0.1-0.8-0.2-1.3l-1.1-4.4h-2.9l2.3,6.7
	c0.1,0.4,0.4,0.6,0.9,0.6h0.5c-0.2,0.4-0.5,0.7-0.8,0.9c-0.5,0.3-1.1,0.3-2.1,0.3l-0.2,1.7c1.1,0.2,2.2,0.2,3-0.1
	c1.1-0.4,2-1.1,2.5-2.9L331.2,416.1z M316.7,424.6l5.8-11.3h-2.1l-5.8,11.3H316.7z M313.8,421.2c-0.9,0.1-1.8,0.1-3.2,0.1
	c-1.2,0-1.6-0.6-1.6-2.9s0.3-2.9,1.6-2.9c1.4,0,2,0,3,0l0.2-2c-1-0.3-1.7-0.4-3.2-0.4c-3.3,0-4.5,1.4-4.5,5.3s1.2,5.3,4.5,5.3
	c1.5,0,2.5-0.1,3.4-0.5L313.8,421.2z"/>
<path class="st4" d="M670.1,452h-2.9l-1.1,4.4c-0.1,0.3-0.2,0.8-0.3,1.3h-0.1c-0.1-0.4-0.1-0.8-0.2-1.3l-1.1-4.4h-2.9l2.3,6.7
	c0.1,0.4,0.4,0.6,0.9,0.6h0.5c-0.2,0.4-0.5,0.7-0.8,0.9c-0.5,0.3-1.1,0.3-2.1,0.3l-0.2,1.7c1.1,0.2,2.2,0.2,3-0.1
	c1.1-0.4,2-1.1,2.5-2.9L670.1,452z M655.6,460.5l5.8-11.3h-2.1l-5.8,11.3H655.6z M652.6,457.1c-0.9,0.1-1.8,0.1-3.2,0.1
	c-1.2,0-1.6-0.6-1.6-2.9s0.3-2.9,1.6-2.9c1.4,0,2,0,3,0l0.2-2c-1-0.3-1.7-0.4-3.2-0.4c-3.3,0-4.5,1.4-4.5,5.3s1.2,5.3,4.5,5.3
	c1.5,0,2.5-0.1,3.4-0.5L652.6,457.1z"/>
<g>
	<path class="st4" d="M655.7,464v11.9H652v-7.5c0-0.3,0-0.5,0-0.8s0.1-0.5,0.1-0.8l-2.7,0.5L649,465l3-1.2h3.7V464z"/>
	<path class="st4" d="M659.6,472.7c0.5,0,0.8,0.1,1,0.3s0.3,0.5,0.3,1v0.7c0,0.5-0.1,0.8-0.3,1s-0.5,0.3-1,0.3h-0.8
		c-0.5,0-0.8-0.1-1-0.3c-0.2-0.2-0.3-0.5-0.3-1V474c0-0.5,0.1-0.8,0.3-1s0.5-0.3,1-0.3H659.6z"/>
	<path class="st4" d="M666.3,463.7c1,0,1.8,0.1,2.4,0.3c0.6,0.2,1,0.5,1.3,0.9s0.4,1,0.4,1.7c0,0.6-0.1,1.1-0.2,1.5
		c-0.1,0.4-0.3,0.8-0.6,1s-0.7,0.4-1.2,0.5v0.1c0.9,0.1,1.5,0.4,1.8,0.9s0.5,1.2,0.5,2.1s-0.1,1.5-0.4,2.1c-0.3,0.5-0.8,0.9-1.4,1.1
		s-1.5,0.4-2.6,0.4c-0.7,0-1.5,0-2.3-0.1s-1.5-0.1-2.2-0.2l0.1-2.6c0.5,0,1,0,1.4,0.1c0.4,0,0.7,0,1,0s0.6,0,1,0
		c0.5,0,0.8,0,1.1-0.1s0.4-0.2,0.5-0.3c0.1-0.2,0.1-0.4,0.1-0.8c0-0.3,0-0.6-0.1-0.7c-0.1-0.2-0.2-0.3-0.4-0.4s-0.5-0.1-0.8-0.1
		h-2.3v-2.3h2.3c0.3,0,0.5,0,0.7-0.1s0.3-0.1,0.4-0.2c0.1-0.1,0.1-0.2,0.2-0.3c0-0.1,0-0.3,0-0.5c0-0.3,0-0.5-0.1-0.6
		s-0.2-0.2-0.4-0.3c-0.2-0.1-0.5-0.1-0.8-0.1c-0.6,0-1.2,0-1.8,0s-1.1,0-1.6,0l-0.1-2.5c0.7-0.1,1.4-0.2,2.1-0.3
		C664.9,463.8,665.6,463.7,666.3,463.7z"/>
</g>
</svg>
