<?xml version="1.0" encoding="utf-8"?>
<!-- Generator: Adobe Illustrator 26.5.0, SVG Export Plug-In . SVG Version: 6.00 Build 0)  -->
<svg version="1.1" id="Слой_1" xmlns="http://www.w3.org/2000/svg" xmlns:xlink="http://www.w3.org/1999/xlink" x="0px" y="0px"
	 viewBox="0 0 1000 1000" style="enable-background:new 0 0 1000 1000;" xml:space="preserve">
<style type="text/css">
	.st0{fill:#BDE2E8;}
	.st1{fill:#FFFFFF;}
	.st2{fill:none;stroke:#3C3C3B;stroke-miterlimit:10;}
	.st3{fill:#3C3C3B;}
	.st4{fill:none;stroke:#3C3C3B;}
	.st5{fill:none;stroke:#3C3C3B;stroke-miterlimit:10;stroke-dasharray:1.993,1.993;}
</style>
<rect x="135.9" y="151.7" class="st0" width="710.4" height="553"/>
<rect x="388.5" y="676.8" transform="matrix(0.515 -0.8572 0.8572 0.515 -426.2704 683.2488)" class="st1" width="4.4" height="83.1"/>
<rect x="388.5" y="676.8" transform="matrix(0.515 -0.8572 0.8572 0.515 -426.2704 683.2488)" class="st2" width="4.4" height="83.1"/>
<path class="st2" d="M354.1,698.6c0,0-6.4,10.3-8.5,25.9c-1.2,9.1-1,16.1-1,16.1"/>
<rect x="724.8" y="676.8" transform="matrix(0.515 -0.8572 0.8572 0.515 -263.1505 971.5556)" class="st1" width="4.4" height="83.1"/>
<rect x="724.8" y="676.8" transform="matrix(0.515 -0.8572 0.8572 0.515 -263.1505 971.5556)" class="st2" width="4.4" height="83.1"/>
<path class="st2" d="M690.4,698.6c0,0-6.4,10.3-8.5,25.9c-1.2,9.1-1,16.1-1,16.1"/>
<rect x="428.8" y="705.9" class="st2" width="247.7" height="41.7"/>
<rect x="130" y="705.9" class="st2" width="210.3" height="41.7"/>
<rect x="439.1" y="737.7" class="st1" width="247.7" height="9.9"/>
<rect x="439.1" y="737.7" class="st2" width="247.7" height="9.9"/>
<rect x="138.7" y="737.7" class="st1" width="210.3" height="9.9"/>
<rect x="138.7" y="737.7" class="st2" width="210.3" height="9.9"/>
<rect x="487" y="896.4" class="st2" width="368.9" height="14"/>
<rect x="298.5" y="693" transform="matrix(0.1435 -0.9897 0.9897 0.1435 -607.6222 1052.8734)" class="st2" width="11.9" height="368.9"/>
<rect x="841.9" y="737.7" class="st3" width="19.7" height="172.7"/>
<rect x="841.9" y="737.7" class="st2" width="19.7" height="172.7"/>
<rect x="490.4" y="705.9" class="st3" width="97.5" height="41.7"/>
<rect x="490.4" y="705.9" class="st2" width="97.5" height="41.7"/>
<rect x="414.6" y="705.9" class="st3" width="74.6" height="41.7"/>
<rect x="414.6" y="705.9" class="st2" width="74.6" height="41.7"/>
<rect x="755" y="705.9" class="st3" width="104" height="41.7"/>
<rect x="755" y="705.9" class="st2" width="107.9" height="41.7"/>
<rect x="745.5" y="737.7" class="st3" width="81.2" height="9.9"/>
<rect x="745.5" y="737.7" class="st2" width="81.2" height="9.9"/>
<rect x="514.6" y="737.7" class="st3" width="81.2" height="9.9"/>
<rect x="514.6" y="737.7" class="st2" width="81.2" height="9.9"/>
<rect x="129.5" y="705.9" class="st3" width="73.4" height="41.7"/>
<rect x="129.5" y="705.9" class="st2" width="73.4" height="41.7"/>
<rect x="129.5" y="737.7" class="st3" width="81.2" height="9.9"/>
<rect x="129.5" y="737.7" class="st2" width="81.2" height="9.9"/>
<rect x="480.5" y="817" class="st3" width="19.7" height="93.4"/>
<rect x="480.5" y="817" class="st2" width="19.7" height="93.4"/>
<rect x="843.2" y="124" class="st3" width="19.8" height="786"/>
<rect x="406.8" y="737.7" class="st3" width="81.2" height="9.9"/>
<rect x="406.8" y="737.7" class="st2" width="81.2" height="9.9"/>
<path class="st2" d="M659.6,367.4L626,309c0,0,7.5-4.8,19-7.4c11.4-2.6,20.5-2.1,20.5-2.1"/>
<path class="st2" d="M639,371.5l-67.6,39.1c0,0-5.5-8.8-8.6-22.1c-3.1-13.3-2.5-23.9-2.5-23.9"/>
<path class="st2" d="M642.4,146l-89.3,51.8c0,0-7.3-11.6-11.4-29.3c-4-17.6-3.3-31.7-3.3-31.7"/>
<ellipse transform="matrix(0.9732 -0.2298 0.2298 0.9732 -68.0908 79.2383)" class="st4" cx="306.2" cy="332" rx="57.9" ry="57.9"/>
<path class="st3" d="M341.8,346.2c-4.7,0.5-8.9,0.6-16,0.6c-6,0-7.7-3.1-7.7-14.4c0-11.3,1.7-14.4,7.7-14.4c6.7,0,10,0.1,14.9,0.2
	l1-10.1c-4.8-1.3-8.4-1.8-16-1.8c-16.2,0-22.1,6.9-22.1,26.1c0,19.2,5.9,26.1,22.1,26.1c7.6,0,12.1-0.6,17.1-2.3L341.8,346.2z
	 M294.9,357.6v-50.5h-13.7l-12.8,5l1.6,8.7l11.7-2.6c-0.4,2.1-0.5,4-0.5,6v33.4H294.9z"/>
<path class="st3" d="M391.1,422.3l0.7-13.2h-41.4l-1.7,29.7c-0.2,3.1,2,5.6,5.2,5.9l10.3,1.2c8.9,0.8,12.2,2,11.9,8.2
	c-0.4,5.4-2.3,7.5-11,7.5c-4.7,0-10.8-0.3-17.2-0.8l-1.6,13.5c8.4,1.2,16.9,1.9,23.5,1.9c18.8,0,24.1-9.7,24.1-21.6
	c0.1-10.6-3.9-20.1-19.4-21.9l-11-1.4l0.7-9.2H391.1z M329.1,458.9c-4.6,0-6,1.4-6,6v4.2c0,4.6,1.4,6,6,6h4.1c4.6,0,6-1.4,6-6v-4.2
	c0-4.6-1.4-6-6-6H329.1z M311.3,475.2V409h-17.9l-16.8,6.5l2.1,11.4l15.3-3.5c-0.6,2.7-0.7,5.3-0.7,7.9v43.8H311.3z M275.4,449.3
	h-7.9V422H254l-2.9,10.4v17h-12.9c-1.5,0-2.5-1-1.7-2.8L251,409h-16.8l-16.5,42c-2.1,5.2,1.4,10.3,7,10.3h26.5v13.9h16.4v-13.9h0.2
	l7.7-1.7V449.3z"/>
<path class="st3" d="M734.1,809.4c4.1,1.8,5.6,7.2,5.6,15c0,7.7-1.5,13.2-5.6,15.1l0.8,2.9c7.9-2.3,11.5-7.9,11.5-17.9
	c0-10.1-3.6-15.8-11.5-18L734.1,809.4z M714.3,810.3l0.3,5.7h11.3c-0.6,0.9-0.9,1.8-1.3,2.7l-6.2,17.5h6.9l7.8-22.5
	c0.6-1.9-0.6-3.5-2.6-3.5H714.3z M709.1,829.9c-1.8,0-2.4,0.6-2.4,2.4v1.7c0,1.8,0.6,2.4,2.4,2.4h1.6c1.8,0,2.4-0.6,2.4-2.4v-1.7
	c0-1.8-0.6-2.4-2.4-2.4H709.1z M704.3,826.1h-3.1v-10.7h-5.3l-1.1,4.1v6.7h-5.1c-0.6,0-1-0.4-0.7-1.1l5.7-14.7h-6.6l-6.5,16.5
	c-0.8,2,0.6,4,2.7,4h10.4v5.4h6.4v-5.4h0.1l3-0.7V826.1z M681.1,806.5c-7.9,2.2-11.5,7.9-11.5,18c0,10,3.6,15.7,11.5,17.9l0.8-2.9
	c-4.1-1.9-5.6-7.4-5.6-15.1c0-7.9,1.5-13.3,5.6-15L681.1,806.5z M659.6,826.1h-3.1v-10.7h-5.3l-1.1,4.1v6.7H645
	c-0.6,0-1-0.4-0.7-1.1l5.7-14.7h-6.6l-6.5,16.5c-0.8,2,0.6,4,2.7,4h10.4v5.4h6.4v-5.4h0.1l3-0.7V826.1z M630.5,829.9
	c-1.8,0-2.4,0.6-2.4,2.4v1.7c0,1.8,0.6,2.4,2.4,2.4h1.6c1.8,0,2.4-0.6,2.4-2.4v-1.7c0-1.8-0.6-2.4-2.4-2.4H630.5z M612,819.2
	c0-3.1,0.3-4.3,3-4.3c2.9,0,3.2,1,3.3,6.7c-1.2,0.7-2.1,1-3.3,1C612.5,822.6,611.9,821.9,612,819.2 M606.4,835.9
	c3,0.8,5.8,0.8,7.2,0.8c8.3,0,11.3-2,11.3-13.7c0-10.5-1.7-13.2-9.9-13.2c-7.6,0-9.7,2.9-9.7,9.5c0,4.7,1.7,8,7.4,8
	c2.3,0,3.9-0.4,5.3-1.5c-0.2,4.4-1.1,5.7-4.5,5.7c-3.3,0-4.6,0-6.9,0L606.4,835.9z"/>
<path class="st3" d="M330.6,545.2c2.9,0,3.7,1.2,3.7,8.1c0,6.9-0.8,8.1-3.7,8.1c-2.8,0-3.6-1.2-3.6-8.1
	C327.1,546.4,327.8,545.2,330.6,545.2 M330.7,539.8c-7.9,0-10.6,3.4-10.6,13.5c0,10.1,2.7,13.5,10.6,13.5c7.9,0,10.6-3.4,10.6-13.5
	C341.3,543.2,338.6,539.8,330.7,539.8 M313,559.9c-1.8,0-2.4,0.6-2.4,2.4v1.7c0,1.8,0.6,2.4,2.4,2.4h1.6c1.8,0,2.4-0.6,2.4-2.4v-1.7
	c0-1.8-0.6-2.4-2.4-2.4H313z M294.4,549.3c0-3.1,0.3-4.3,3-4.3c2.9,0,3.2,1,3.3,6.7c-1.2,0.7-2.1,1-3.3,1
	C295,552.7,294.4,551.9,294.4,549.3 M288.9,566c3,0.8,5.8,0.8,7.2,0.8c8.3,0,11.3-2,11.3-13.7c0-10.5-1.7-13.2-9.9-13.2
	c-7.6,0-9.7,2.9-9.7,9.5c0,4.7,1.7,8,7.4,8c2.3,0,3.9-0.4,5.3-1.5c-0.2,4.4-1.1,5.7-4.5,5.7c-3.3,0-4.6,0-6.9,0L288.9,566z
	 M283.5,566.3v-25.9h-7l-6.6,2.6l0.8,4.5l6-1.4c-0.2,1.1-0.3,2.1-0.3,3.1v17.2H283.5z"/>
<path class="st3" d="M439.5,514.7c0-0.9,0.5-1.4,1.6-1.5h3.9v2.3c-1.2,0.8-2.6,1.3-3.7,1.3c-1.2,0-1.8-0.5-1.8-1.5V514.7z
	 M434.3,507.3c3.1-0.2,6.1-0.3,8-0.3c2,0,2.6,0.6,2.6,2.1v0.5h-6.2c-3.7,0-6,1.8-6,4.8v1.9c0,3.5,2.8,5.3,6.3,5.3
	c3.2,0,5.4-1.7,6.7-3.2l0.6,2.7h5.4v-11.9c0-5.6-2.8-7.3-7.8-7.3c-2.7,0-7.4,0.4-10.2,0.9L434.3,507.3z M431.3,507.6v-5.1h-18.6v5.1
	h5.9v13.5h6.8v-13.5H431.3z M397.9,514.7c0-0.9,0.5-1.4,1.6-1.5h3.9v2.3c-1.2,0.8-2.6,1.3-3.6,1.3c-1.2,0-1.8-0.5-1.8-1.5V514.7z
	 M392.8,507.3c3.1-0.2,6.1-0.3,8-0.3c2,0,2.6,0.6,2.6,2.1v0.5h-6.2c-3.7,0-6,1.8-6,4.8v1.9c0,3.5,2.8,5.3,6.3,5.3
	c3.2,0,5.4-1.7,6.7-3.2l0.6,2.7h5.4v-11.9c0-5.6-2.8-7.3-7.8-7.3c-2.7,0-7.4,0.4-10.2,0.9L392.8,507.3z M388.1,502.5h-6.7v6.6h-5.7
	v-6.6H369v18.7h6.7v-7.6h5.7v7.6h6.7V502.5z M356.5,502.5c-1.4,0-2.3,0.7-2.6,2.1l-1.6,7c-0.2,0.9-0.2,1.8-0.4,2.8h-0.3
	c-0.1-0.9-0.2-1.8-0.4-2.8l-1.7-7c-0.2-1.4-1.1-2.1-2.5-2.1h-5.8c-1.5,0-2.3,0.8-2.4,2.3l-0.5,16.3h6.2l0.4-13.7h0.5l2.2,9.1
	c0.3,1.4,1.2,2.1,2.6,2.1h3.1c1.5,0,2.3-0.7,2.6-2.1l2.2-9.1h0.5l0.5,13.7h6.2l-0.5-16.3c0-1.5-0.8-2.3-2.3-2.3H356.5z M325.4,506.8
	c2.3,0,2.9,0.9,2.9,5.1c0,4.1-0.6,5-2.9,5c-2.3,0-2.9-0.9-2.9-5C322.5,507.7,323.1,506.8,325.4,506.8 M325.4,502
	c-7.4,0-10.1,2.7-10.1,9.9c0,7.2,2.7,9.8,10.1,9.8c7.3,0,10-2.6,10-9.8C335.5,504.6,332.8,502,325.4,502 M306.7,511.4
	c4.4-0.6,4.1-1,6.5-8.9h-6.9c-1.6,6.2-1.7,6.8-4.4,6.8h-0.8c0.2-0.8,0.3-1.6,0.3-2.4v-4.4h-6.8v18.7h6.8v-5.9c0-0.5-0.1-1-0.2-1.5
	h1.5c2,0,2.1,0.5,4.1,7.4h7.1c-2.6-8.8-2.7-9-7.1-9.6V511.4z M275.9,510.9h-2.7c-1.8,0-2.1-0.5-2.1-2.3c0-1.4,0.3-1.7,2.1-1.7h2.7
	V510.9z M268.5,513.3c-1.1,0.1-3.1,0.4-3.6,2l-1.5,5.9h7l1.2-5c0.2-0.9,0.6-1.1,1.7-1.1h2.5v6.1h6.6v-18.8c-2.3-0.3-4.3-0.3-9.4-0.3
	c-6.9,0-8.6,1.3-8.6,6c0,2.3,0.9,4.4,4.1,5V513.3z M248.6,514.7c0-0.9,0.5-1.4,1.6-1.5h3.9v2.3c-1.2,0.8-2.6,1.3-3.7,1.3
	c-1.2,0-1.8-0.5-1.8-1.5V514.7z M243.5,507.3c3.1-0.2,6.1-0.3,8-0.3c2,0,2.6,0.6,2.6,2.1v0.5h-6.2c-3.7,0-6,1.8-6,4.8v1.9
	c0,3.5,2.8,5.3,6.3,5.3c3.2,0,5.4-1.7,6.7-3.2l0.6,2.7h5.4v-11.9c0-5.6-2.8-7.3-7.8-7.3c-2.7,0-7.4,0.4-10.2,0.9L243.5,507.3z
	 M238.8,502.5h-11.3c-3.2,0-4.9,1.7-5.2,4.8c-0.3,3.4-0.6,6-1,7.3c-0.4,1.5-1.5,1.5-3.2,1.7l0.7,5c4.1,0.7,7.8-0.3,8.6-4.9
	c0.4-1.8,0.8-5,1.1-7.9c0.1-1.1,0.6-1.6,1.8-1.6h1.6v14.1h6.8V502.5z M216,521.2v-18.7H210l-5.9,8.9c-0.6,0.9-1.1,1.7-1.4,2.7h-0.2
	c0.2-1.1,0.3-1.9,0.3-2.9v-8.8h-6v18.7h5.9l5.8-8.5c0.5-0.8,1.2-2.1,1.5-3.1h0.1c-0.1,1.2-0.3,2.2-0.3,3.3v8.4H216z M185.6,507.5
	c5-0.7,5.2-3,7.9-12.3h-7.1c-2.3,7.8-2.8,10.1-5.3,10.1h-1.2c0.2-1.1,0.3-2.2,0.3-3.2v-6.9h-6.7v6.9c0,1,0.1,2.1,0.3,3.2h-1.3
	c-2.5,0-3-2.3-5.3-10.1H160c2.7,9.3,2.9,11.6,7.9,12.3v0.2c-5.2,0.8-5.6,2.8-8.6,13.4h7.4c2.9-9.4,3.2-11.1,5.7-11.1h1.3
	c-0.2,0.8-0.3,1.7-0.3,2.4v8.7h6.7v-8.7c0-0.7-0.1-1.6-0.3-2.4h1.2c2.6,0,2.9,1.7,5.8,11.1h7.4c-3-10.6-3.4-12.7-8.6-13.4V507.5z"/>
<path class="st3" d="M685,579.4l0.3,5.7h11.3c-0.6,0.9-0.9,1.8-1.3,2.7l-6.2,17.5h6.9l7.8-22.5c0.6-1.9-0.6-3.5-2.6-3.5H685z
	 M679.8,598.9c-1.8,0-2.4,0.6-2.4,2.4v1.7c0,1.8,0.6,2.4,2.4,2.4h1.6c1.8,0,2.4-0.6,2.4-2.4v-1.7c0-1.8-0.6-2.4-2.4-2.4H679.8z
	 M663.7,584.2c2.9,0,3.7,1.2,3.7,8.1c0,6.9-0.8,8.1-3.7,8.1c-2.8,0-3.6-1.2-3.6-8.1C660.1,585.5,660.9,584.2,663.7,584.2
	 M663.7,578.8c-7.9,0-10.6,3.4-10.6,13.5c0,10.1,2.7,13.5,10.6,13.5c7.9,0,10.6-3.4,10.6-13.5C674.4,582.2,671.6,578.8,663.7,578.8
	 M648.6,605.3v-25.9h-7l-6.6,2.6l0.8,4.5l6-1.4c-0.2,1.1-0.3,2.1-0.3,3.1v17.2H648.6z"/>
<path class="st3" d="M769.8,553.7c0-0.9,0.5-1.4,1.6-1.5h3.9v2.3c-1.2,0.8-2.6,1.3-3.7,1.3c-1.2,0-1.8-0.5-1.8-1.5V553.7z
	 M764.7,546.4c3.1-0.2,6.1-0.3,8-0.3c2,0,2.6,0.6,2.6,2.1v0.5h-6.2c-3.7,0-6,1.8-6,4.8v1.9c0,3.5,2.8,5.3,6.3,5.3
	c3.2,0,5.4-1.7,6.7-3.2l0.6,2.7h5.4v-11.9c0-5.6-2.8-7.3-7.8-7.3c-2.7,0-7.4,0.4-10.2,0.9L764.7,546.4z M760,541.5h-6.6v14.1h-4.5
	v-14.1h-6v14.1h-4.4v-14.1h-6.6v18.7H760V541.5z M727.8,560.2v-18.7h-5.9l-5.9,8.9c-0.6,0.9-1.1,1.7-1.4,2.7h-0.2
	c0.2-1.1,0.3-1.9,0.3-2.9v-8.8h-6v18.7h5.9l5.8-8.5c0.5-0.8,1.2-2.1,1.5-3.1h0.2c-0.2,1.2-0.3,2.2-0.3,3.3v8.4H727.8z M704.5,541.5
	h-6.7v6.6h-5.7v-6.6h-6.7v18.7h6.7v-7.6h5.7v7.6h6.7V541.5z M681.4,548.5h-11v4.1h11V548.5z M659.8,549.9h-2.7
	c-1.8,0-2.1-0.5-2.1-2.3c0-1.4,0.3-1.7,2.1-1.7h2.7V549.9z M652.5,552.3c-1.1,0.1-3.1,0.4-3.6,2l-1.5,5.9h7l1.2-5
	c0.1-0.9,0.6-1.1,1.7-1.1h2.5v6.1h6.6v-18.8c-2.3-0.3-4.3-0.3-9.4-0.3c-6.9,0-8.6,1.3-8.6,6c0,2.3,0.9,4.4,4.1,5V552.3z
	 M644.8,541.5h-6.7v6.6h-5.7v-6.6h-6.7v18.7h6.7v-7.6h5.7v7.6h6.7V541.5z M616.6,560.2h6.9l-5.6-9.5l5.1-9.1h-6.8l-3.7,7l-3.7-7
	h-6.8l5.1,9.1l-5.6,9.5h6.9l4.1-7.5L616.6,560.2z M601.4,541.5h-7.3l-2.7,11.1c-0.2,0.9-0.5,2.1-0.8,3.2h-0.4
	c-0.2-1.1-0.3-2.1-0.5-3.2l-2.8-11.1h-7.3l5.8,17.1c0.3,1,1.1,1.6,2.2,1.6h1.2c-0.5,0.9-1.2,1.8-2,2.2c-1.2,0.7-2.9,0.9-5.2,0.8
	l-0.6,4.4c2.7,0.5,5.5,0.5,7.7-0.4c2.9-1.1,5-2.9,6.4-7.3L601.4,541.5z M570.7,546.6c5.2-0.7,5.3-3,8.2-12.3h-7.2
	c-2,7.8-2.5,10.1-6.2,10.1h-1.2c0.2-1.1,0.3-2.2,0.3-3.2v-6.9h-7v25.9h7v-8.7c0-0.7-0.1-1.6-0.3-2.4h1.4c3.6,0,3.9,1.7,6.6,11.1h7.4
	c-3.2-10.6-3.5-12.7-8.9-13.4V546.6z"/>
<rect x="478.3" y="132" class="st3" width="17.6" height="297.7"/>
<rect x="478.3" y="591.6" class="st3" width="17.6" height="125.6"/>
<rect x="478.3" y="591.6" class="st2" width="17.6" height="125.6"/>
<rect x="117" y="145.2" class="st3" width="17.6" height="712.8"/>
<rect x="117" y="145.2" class="st2" width="17.6" height="712.8"/>
<rect x="117" y="132.5" class="st3" width="419.7" height="17.6"/>
<rect x="117" y="132.5" class="st2" width="419.7" height="17.6"/>
<rect x="117" y="123.6" class="st3" width="421.1" height="26.5"/>
<rect x="494" y="123.6" class="st2" width="44.1" height="26.5"/>
<rect x="636.3" y="123.6" class="st3" width="34.9" height="26.5"/>
<rect x="636.3" y="123.6" class="st2" width="34.9" height="26.5"/>
<rect x="655" y="138" class="st3" width="201" height="12"/>
<rect x="655" y="138" class="st2" width="201" height="12"/>
<rect x="639" y="123.6" class="st3" width="220" height="26.5"/>
<rect x="494" y="365.8" class="st3" width="65.3" height="9.2"/>
<rect x="494" y="365.8" class="st2" width="65.3" height="9.2"/>
<rect x="655.1" y="145.2" class="st3" width="9.2" height="154.5"/>
<rect x="655.1" y="145.2" class="st2" width="9.2" height="154.5"/>
<rect x="636.9" y="365.8" class="st3" width="213.1" height="9.2"/>
<rect x="636.9" y="365.8" class="st2" width="213.1" height="9.2"/>
<rect x="830" y="392.9" class="st2" width="20.8" height="12.6"/>
<rect x="740.3" y="375.7" class="st2" width="87.3" height="29.8"/>
<line class="st2" x1="828.8" y1="380.1" x2="739.1" y2="380.1"/>
<polyline class="st2" points="822.4,380 820.3,400.9 808.7,400.9 806.3,380 "/>
<polyline class="st2" points="802.8,380.5 800.4,400.9 748,400.9 746.3,380 "/>
<rect x="653" y="375.7" class="st2" width="87.3" height="29.8"/>
<line class="st2" x1="741.5" y1="380.1" x2="651.8" y2="380.1"/>
<polyline class="st2" points="735.1,380 733,400.9 721.4,400.9 719,380 "/>
<polyline class="st2" points="715.5,380.5 713.1,400.9 660.7,400.9 659,380 "/>
<rect x="780.8" y="433" class="st2" width="58.4" height="58.3"/>
<path class="st2" d="M799.5,462.1c0,1.7,1.4,3,3,3c1.7,0,3-1.4,3-3c0-1.7-1.4-3-3-3C800.8,459.1,799.5,460.4,799.5,462.1z"/>
<path class="st2" d="M822.3,443.3c0-2.3-1.8-4.1-4.1-4.1H791c-2.3,0-4.1,1.8-4.1,4.1v37.7c0,2.3,1.8,4.1,4.1,4.1h27.2
	c2.3,0,4.1-1.8,4.1-4.1V443.3z"/>
<path class="st2" d="M817.6,447.6c0-2.3-1.8-4.1-4.1-4.1h-18.8c-2.3,0-4.1,1.8-4.1,4.1v29c0,2.3,1.8,4.1,4.1,4.1h18.8
	c2.3,0,4.1-1.8,4.1-4.1V447.6z"/>
<path class="st2" d="M835.3,346.2c3,0,5.5-2.4,5.5-5.5v-26.2c0-3-2.4-5.5-5.5-5.5h-6.4c-3,0-5.5,2.4-5.5,5.5v26.2
	c0,3,2.4,5.5,5.5,5.5H835.3z"/>
<path class="st2" d="M771.8,327.6c0,10.3,8.4,18.6,18.8,18.6h27.6c2.7,0,4.8-2.1,4.8-4.8v-27.7c0-2.6-2.2-4.8-4.8-4.8h-27.6
	C780.2,309,771.8,317.3,771.8,327.6z"/>
<path class="st2" d="M778.4,327.3c0,7.4,6.1,13.4,13.6,13.4h20c0,0,0,0,0,0v-26.8c0,0,0,0,0,0h-20
	C784.5,313.9,778.4,319.9,778.4,327.3z"/>
<path class="st2" d="M832.3,325.6c-1.1,0-2.1,0.9-2.1,2c0,1.1,0.9,2,2.1,2c1.1,0,2.1-0.9,2.1-2C834.3,326.5,833.4,325.6,832.3,325.6
	z"/>
<path class="st2" d="M795.2,323.7c-2,0-3.7,1.6-3.7,3.6s1.7,3.6,3.7,3.6c2,0,3.7-1.6,3.7-3.6S797.2,323.7,795.2,323.7z"/>
<line class="st2" x1="809.5" y1="338" x2="800.4" y2="331.9"/>
<line class="st2" x1="809.5" y1="316.6" x2="800.4" y2="322.6"/>
<rect x="666.7" y="240.2" class="st2" width="41.7" height="59.5"/>
<line class="st2" x1="666.5" y1="239.9" x2="708.7" y2="300.1"/>
<line class="st2" x1="708.7" y1="239.9" x2="666.5" y2="300.1"/>
<path class="st4" d="M671.1,179.6c0-13.1,10.6-23.7,23.7-23.7h117.2c13.1,0,23.7,10.6,23.7,23.7v21.6c0,13.1-10.6,23.7-23.7,23.7
	H694.8c-13.1,0-23.7-10.6-23.7-23.7V179.6z"/>
<path class="st4" d="M682.6,186.1c0-13.1,10.6-23.7,23.7-23.7h94.3c13.1,0,23.7,10.6,23.7,23.7v8.6c0,13.1-10.6,23.7-23.7,23.7
	h-94.3c-13.1,0-23.7-10.6-23.7-23.7V186.1z"/>
<path class="st4" d="M696.4,180.5c0-6.5,5.3-11.9,11.9-11.9h97.8c6.5,0,11.9,5.3,11.9,11.9v19.9c0,6.6-5.3,11.9-11.9,11.9h-97.8
	c-6.6,0-11.9-5.3-11.9-11.9V180.5z"/>
<path class="st4" d="M805.6,190.4c0,1.6-1.3,2.9-2.9,2.9s-2.9-1.3-2.9-2.9c0-1.6,1.3-2.9,2.9-2.9S805.6,188.8,805.6,190.4z"/>
<line class="st2" x1="663.1" y1="228.9" x2="843.8" y2="228.9"/>
<path class="st2" d="M837.4,289.8c1.9,0,3.4-1.5,3.4-3.4v-17.3v-6.6v-17.3c0-1.9-1.5-3.4-3.4-3.4c0,0-21.2,0-21.7,0.2
	c-9.5,1.9-16.6,10.5-16.6,20.5v6.6c0,10,7,18.7,16.6,20.6C816.1,289.9,837.4,289.8,837.4,289.8z"/>
<path class="st2" d="M830.9,285c1.5,0,2.7-1.2,2.7-2.7v-13.9v-5.2v-13.9c0-1.5-1.2-2.7-2.7-2.7c0,0-14.1,0-14.5,0.2
	c-7.6,1.5-13.2,8.4-13.2,16.4v5.2c0,8,5.6,14.9,13.2,16.5C816.8,285.1,830.9,285,830.9,285z"/>
<path class="st2" d="M814.9,265.8c0,0.9,0.8,1.7,1.7,1.7c1,0,1.7-0.8,1.7-1.7c0-0.9-0.8-1.7-1.7-1.7
	C815.6,264.1,814.9,264.9,814.9,265.8z"/>
<path class="st3" d="M593.9,289.2h-2.2v-7.5h-3.7l-0.8,2.8v4.7h-3.6c-0.4,0-0.7-0.3-0.5-0.8l4-10.3h-4.6l-4.5,11.5
	c-0.6,1.4,0.4,2.8,1.9,2.8h7.3v3.8h4.5v-3.8h0.1l2.1-0.5V289.2z M573.6,291.8c-1.3,0-1.7,0.4-1.7,1.7v1.2c0,1.3,0.4,1.7,1.7,1.7h1.1
	c1.3,0,1.7-0.4,1.7-1.7v-1.2c0-1.3-0.4-1.7-1.7-1.7H573.6z M557.2,281.7c1.3,0,3.2-0.1,5.1-0.1c1.8,0,2.4,0.2,2.4,1.7
	c0,1.2-0.2,2-2.1,2H559v3.2l3.5,0c1.9,0,2.4,0.6,2.4,2.1c0,1.8-0.7,2.2-3,2.2c-1.6,0-2.7,0-5-0.2l-0.2,3.6c2.1,0.3,4.3,0.5,6.5,0.5
	c4.8,0,6.6-1.6,6.5-5.4c0-2.8-0.8-4.2-3.4-4.6v-0.1c2.3-0.4,2.9-2,2.9-4.6c0-3.2-1.7-4.2-6.1-4.2c-2,0-4,0.2-6.1,0.5L557.2,281.7z"
	/>
<path class="st3" d="M636.3,257.5h-1.9c-1.2,0-1.5-0.3-1.5-1.6c0-1,0.2-1.2,1.5-1.2h1.9V257.5z M631.2,259.2
	c-0.8,0.1-2.2,0.3-2.5,1.4l-1,4.1h4.9l0.8-3.5c0.1-0.6,0.4-0.8,1.2-0.8h1.7v4.3h4.6v-13.2c-1.6-0.2-3-0.2-6.6-0.2
	c-4.8,0-6,0.9-6,4.2c0,1.6,0.6,3.1,2.8,3.5V259.2z M617.3,260.2c0-0.6,0.3-1,1.1-1h2.7v1.6c-0.9,0.6-1.8,0.9-2.6,0.9
	c-0.9,0-1.3-0.4-1.3-1.1V260.2z M613.7,255c2.2-0.1,4.3-0.2,5.6-0.2c1.4,0,1.8,0.4,1.8,1.5v0.3h-4.3c-2.6,0-4.2,1.3-4.2,3.3v1.3
	c0,2.4,2,3.7,4.4,3.7c2.3,0,3.8-1.2,4.7-2.3l0.4,1.9h3.8v-8.3c0-3.9-1.9-5.1-5.5-5.1c-1.9,0-5.2,0.3-7.2,0.7L613.7,255z
	 M606.4,257.8c3.1-0.4,2.9-0.8,4.7-6.2h-4.7c-1.4,4.3-1.5,4.8-2.8,4.8h-0.8c0.1-0.6,0.2-1.1,0.2-1.6v-3.1h-4.2v3.1
	c0,0.5,0.1,1.1,0.2,1.6H598c-1.3,0-1.5-0.5-2.9-4.8h-4.7c1.7,5.4,1.6,5.8,4.7,6.2v0.1c-3.2,0.4-3.2,0.7-5.1,6.8h4.8
	c1.7-5,1.8-5.2,2.9-5.3h1.1c-0.1,0.4-0.2,0.8-0.2,1.1v4.2h4.2v-4.2c0-0.3-0.1-0.7-0.1-1.1h0.8h0.2c1.2,0,1.3,0.3,2.9,5.3h4.8
	c-1.9-6.1-1.9-6.3-5.1-6.8V257.8z M582,254.6c1.6,0,2,0.7,2,3.6c0,2.9-0.4,3.5-2,3.5c-1.6,0-2.1-0.6-2.1-3.5
	C579.9,255.3,580.3,254.6,582,254.6 M582,251.3c-5.2,0-7,1.9-7,6.9c0,5,1.9,6.8,7,6.8c5.1,0,7-1.8,7-6.8
	C589,253.1,587.1,251.3,582,251.3 M569.5,264.7h4.8l-3.9-6.7l3.6-6.4h-4.8l-2.6,4.9l-2.6-4.9h-4.8l3.6,6.4l-3.9,6.7h4.8l2.8-5.3
	L569.5,264.7z M557.5,264.7v-13.1h-4.2l-4.2,6.3c-0.4,0.6-0.7,1.2-1,1.9h-0.1c0.1-0.8,0.2-1.3,0.2-2v-6.2h-4.2v13.1h4.2l4.1-6
	c0.4-0.6,0.8-1.5,1.1-2.2h0.1c-0.1,0.9-0.2,1.6-0.2,2.3v5.9H557.5z M532.7,255.7c0.8-0.5,1.4-0.8,2.4-0.8c1.2,0,1.7,0.5,1.7,3.5
	c0,3-0.5,3.4-1.9,3.4c-0.9,0-1.6-0.2-2.3-0.4V255.7z M531.8,251.6h-3.8v17.9h4.8v-2.9c0-0.9,0-1.9-0.1-2.8c1.1,0.9,2.6,1.2,4.2,1.2
	c3.3,0,5-1.4,5-6.7c0-4.4-1.3-7-4.6-7c-2.1,0-4.1,0.9-5,2.2L531.8,251.6z M524.8,246.6h-15.2v18.2h4.9v-14.8h5.3v14.8h4.9V246.6z"/>
<path class="st3" d="M752.5,293l0.2,4h7.9c-0.4,0.6-0.7,1.3-0.9,1.9l-4.4,12.3h4.8l5.5-15.7c0.4-1.3-0.4-2.4-1.8-2.4H752.5z
	 M748.8,306.7c-1.3,0-1.7,0.4-1.7,1.7v1.2c0,1.3,0.4,1.7,1.7,1.7h1.1c1.3,0,1.7-0.4,1.7-1.7v-1.2c0-1.3-0.4-1.7-1.7-1.7H748.8z
	 M732.5,296.6c1.3,0,3.2-0.1,5.1-0.1c1.8,0,2.4,0.2,2.4,1.7c0,1.2-0.2,2-2.1,2h-3.5v3.2l3.5,0c1.9,0,2.4,0.6,2.4,2.1
	c0,1.8-0.7,2.2-3,2.2c-1.6,0-2.7,0-5-0.2l-0.2,3.6c2.1,0.3,4.3,0.5,6.5,0.5c4.8,0,6.6-1.6,6.5-5.4c0-2.8-0.8-4.2-3.4-4.6v-0.1
	c2.3-0.4,2.9-2,2.9-4.6c0-3.2-1.7-4.2-6.1-4.2c-2,0-4,0.2-6.1,0.5L732.5,296.6z"/>
<path class="st3" d="M771.3,266.6h-5.1l-1.9,7.8c-0.1,0.6-0.3,1.5-0.6,2.2h-0.3c-0.1-0.8-0.2-1.5-0.4-2.2l-2-7.8h-5.1l4,11.9
	c0.2,0.7,0.8,1.1,1.5,1.1h0.9c-0.3,0.7-0.8,1.3-1.4,1.6c-0.8,0.5-2,0.6-3.7,0.6l-0.4,3.1c1.9,0.3,3.8,0.4,5.4-0.3
	c2-0.7,3.5-2,4.5-5.1L771.3,266.6z M745.6,281.6l10.3-20.2h-3.8l-10.3,20.2H745.6z M740.4,275.5c-1.7,0.2-3.2,0.2-5.7,0.2
	c-2.2,0-2.8-1.1-2.8-5.2c0-4.1,0.6-5.2,2.8-5.2c2.4,0,3.6,0,5.4,0.1l0.4-3.6c-1.7-0.5-3-0.7-5.7-0.7c-5.8,0-7.9,2.5-7.9,9.4
	c0,6.9,2.1,9.4,7.9,9.4c2.7,0,4.4-0.2,6.1-0.8L740.4,275.5z"/>
<line class="st5" x1="495.3" y1="428.9" x2="495.3" y2="591.6"/>
</svg>
