<?xml version="1.0" encoding="utf-8"?>
<!-- Generator: Adobe Illustrator 26.5.0, SVG Export Plug-In . SVG Version: 6.00 Build 0)  -->
<svg version="1.1" id="Слой_1" xmlns="http://www.w3.org/2000/svg" xmlns:xlink="http://www.w3.org/1999/xlink" x="0px" y="0px"
	 viewBox="0 0 1000 1000" style="enable-background:new 0 0 1000 1000;" xml:space="preserve">
<style type="text/css">
	.st0{fill:#FFF4A8;}
	.st1{fill:#FFFFFF;}
	.st2{fill:none;stroke:#3C3C3B;stroke-miterlimit:10;}
	.st3{fill:none;}
	.st4{fill:#3C3C3B;}
	.st5{fill:none;stroke:#3C3C3B;}
</style>
<rect x="381" y="167.2" class="st0" width="413.1" height="699.6"/>
<rect x="174.5" y="416.6" class="st0" width="413.1" height="123.5"/>
<rect x="432.1" y="137.1" transform="matrix(0.5152 -0.8571 0.8571 0.5152 72.1406 449.4117)" class="st1" width="2.5" height="47.7"/>
<rect x="432.1" y="137.1" transform="matrix(0.5152 -0.8571 0.8571 0.5152 72.1406 449.4117)" class="st2" width="2.5" height="47.7"/>
<path class="st2" d="M454.3,172.3c0,0,3.7-5.9,4.9-14.8c0.7-5.2,0.5-9.3,0.5-9.3"/>
<rect x="645.9" y="137.1" transform="matrix(0.5152 -0.8571 0.8571 0.5152 175.8086 632.692)" class="st1" width="2.5" height="47.7"/>
<rect x="645.9" y="137.1" transform="matrix(0.5152 -0.8571 0.8571 0.5152 175.8086 632.692)" class="st2" width="2.5" height="47.7"/>
<path class="st2" d="M668.2,172.3c0,0,3.7-5.9,4.9-14.8c0.7-5.2,0.5-9.3,0.5-9.3"/>
<rect x="580.2" y="80.7" class="st3" width="219.3" height="6.5"/>
<rect x="580.2" y="80.7" class="st2" width="219.3" height="6.5"/>
<rect x="477.9" y="-27.4" transform="matrix(0.111 -0.9938 0.9938 0.111 355.4653 542.8716)" class="st3" width="6.5" height="200.3"/>
<rect x="477.9" y="-27.4" transform="matrix(0.111 -0.9938 0.9938 0.111 355.4653 542.8716)" class="st2" width="6.5" height="200.3"/>
<rect x="677" y="142.5" class="st2" width="131.9" height="23.9"/>
<rect x="462.8" y="142.5" class="st2" width="131.9" height="23.9"/>
<rect x="672.4" y="142.5" class="st1" width="134.2" height="5.7"/>
<rect x="672.4" y="142.5" class="st2" width="134.2" height="5.7"/>
<rect x="458.3" y="142.5" class="st1" width="142.2" height="5.7"/>
<rect x="458.3" y="142.5" class="st2" width="142.2" height="5.7"/>
<rect x="787" y="80.6" class="st4" width="23.9" height="810.1"/>
<rect x="787" y="80.6" class="st2" width="23.9" height="810.1"/>
<rect x="363.3" y="547" class="st4" width="19.1" height="344.3"/>
<rect x="363.3" y="547" class="st2" width="19.1" height="344.3"/>
<rect x="750.8" y="866.8" class="st4" width="60.2" height="23.9"/>
<rect x="750.8" y="866.8" class="st2" width="60.2" height="23.9"/>
<rect x="744.9" y="142.5" class="st4" width="63.5" height="23.9"/>
<rect x="744.9" y="142.5" class="st2" width="63.5" height="23.9"/>
<rect x="376.3" y="866.8" class="st4" width="42.8" height="23.9"/>
<rect x="376.3" y="866.8" class="st2" width="42.8" height="23.9"/>
<rect x="585.7" y="866.8" class="st4" width="41.1" height="23.9"/>
<rect x="585.7" y="866.8" class="st2" width="41.1" height="23.9"/>
<rect x="590.4" y="142.5" class="st4" width="41.1" height="23.9"/>
<rect x="590.4" y="142.5" class="st2" width="41.1" height="23.9"/>
<rect x="531.8" y="142.5" class="st4" width="48.5" height="23.9"/>
<rect x="531.8" y="142.5" class="st2" width="48.5" height="23.9"/>
<rect x="369.3" y="142.5" class="st4" width="48.5" height="23.9"/>
<rect x="369.3" y="142.5" class="st2" width="48.5" height="23.9"/>
<rect x="543.1" y="866.8" class="st4" width="41.1" height="23.9"/>
<rect x="543.1" y="866.8" class="st2" width="41.1" height="23.9"/>
<rect x="621.6" y="866.8" class="st2" width="142.2" height="23.9"/>
<rect x="406.2" y="866.8" class="st2" width="142.2" height="23.9"/>
<rect x="585.7" y="885" class="st4" width="46.6" height="5.7"/>
<rect x="585.7" y="885" class="st2" width="46.6" height="5.7"/>
<rect x="590.4" y="142.5" class="st4" width="46.6" height="5.7"/>
<rect x="590.4" y="142.5" class="st2" width="46.6" height="5.7"/>
<rect x="526.3" y="142.5" class="st4" width="46.6" height="5.7"/>
<rect x="526.3" y="142.5" class="st2" width="46.6" height="5.7"/>
<rect x="372" y="57.9" class="st4" width="10" height="401"/>
<rect x="372" y="57.9" class="st2" width="10" height="400.3"/>
<rect x="376.6" y="142.5" class="st4" width="46.6" height="5.7"/>
<rect x="376.6" y="142.5" class="st2" width="46.6" height="5.7"/>
<rect x="537.6" y="885" class="st4" width="46.6" height="5.7"/>
<rect x="537.6" y="885" class="st2" width="46.6" height="5.7"/>
<rect x="746.3" y="885" class="st4" width="64.7" height="5.7"/>
<rect x="746.3" y="885" class="st2" width="64.7" height="5.7"/>
<rect x="740.4" y="142.5" class="st4" width="64.7" height="5.7"/>
<rect x="740.4" y="142.5" class="st2" width="64.7" height="5.7"/>
<rect x="377" y="885" class="st4" width="46.6" height="5.7"/>
<rect x="377" y="885" class="st2" width="46.6" height="5.7"/>
<rect x="580.2" y="80.6" class="st4" width="11.3" height="385.2"/>
<rect x="580.2" y="80.6" class="st2" width="11.3" height="385.2"/>
<rect x="580.2" y="517.4" class="st4" width="11.3" height="373.3"/>
<rect x="580.2" y="517.4" class="st2" width="11.3" height="373.3"/>
<rect x="640.6" y="537" class="st4" width="170.3" height="11.3"/>
<rect x="640.6" y="537" class="st2" width="170.3" height="11.3"/>
<rect x="550.7" y="537" class="st4" width="40.9" height="11.3"/>
<rect x="550.7" y="537" class="st2" width="40.9" height="11.3"/>
<rect x="164.1" y="519.6" class="st4" width="10.1" height="27"/>
<rect x="164.1" y="519.6" class="st2" width="10.1" height="27"/>
<rect x="164.1" y="402.8" class="st4" width="10.1" height="63.9"/>
<rect x="164.1" y="404" class="st2" width="10.1" height="62.7"/>
<rect x="163.9" y="537" class="st4" width="336.4" height="11.3"/>
<rect x="163.9" y="537" class="st2" width="336.4" height="11.3"/>
<rect x="640.6" y="369.3" class="st4" width="170.3" height="11.3"/>
<rect x="640.6" y="369.3" class="st2" width="170.3" height="11.3"/>
<rect x="659.9" y="506.8" class="st4" width="5.3" height="33.9"/>
<rect x="659.9" y="506.8" class="st2" width="5.3" height="33.9"/>
<rect x="659.9" y="415.6" class="st4" width="5.3" height="53.6"/>
<rect x="659.9" y="415.6" class="st2" width="5.3" height="53.6"/>
<rect x="362.8" y="58" class="st4" width="11" height="357.9"/>
<rect x="663.2" y="430.7" class="st4" width="126.3" height="5.3"/>
<rect x="663.2" y="430.7" class="st2" width="126.3" height="5.3"/>
<rect x="780.4" y="434" class="st4" width="10.1" height="108.7"/>
<rect x="780.4" y="434" class="st2" width="10.1" height="108.7"/>
<rect x="621.6" y="885" class="st2" width="142.2" height="5.7"/>
<rect x="406.2" y="885" class="st2" width="142.2" height="5.7"/>
<rect x="765.5" y="855.7" transform="matrix(0.7071 -0.7071 0.7071 0.7071 -381.9306 805.4929)" class="st4" width="31.8" height="16.1"/>
<rect x="765.5" y="855.7" transform="matrix(0.7071 -0.7071 0.7071 0.7071 -381.9306 805.4929)" class="st2" width="31.8" height="16.1"/>
<rect x="776.3" y="155.2" transform="matrix(0.7071 -0.7071 0.7071 0.7071 108.7511 604.7553)" class="st4" width="16.1" height="31.8"/>
<rect x="776.3" y="155.2" transform="matrix(0.7071 -0.7071 0.7071 0.7071 108.7511 604.7553)" class="st2" width="16.1" height="31.8"/>
<rect x="768.5" y="382.1" class="st2" width="17.1" height="47.2"/>
<line class="st2" x1="771" y1="381.4" x2="771" y2="430"/>
<polyline class="st2" points="771,384.9 783,386 783,392.2 771,393.5 "/>
<polyline class="st2" points="771.3,395.5 783,396.8 783,425.1 771,426 "/>
<rect x="428.2" y="890.9" class="st2" width="104.8" height="59.1"/>
<rect x="433.8" y="890.9" class="st2" width="93.8" height="53.6"/>
<rect x="666.6" y="437" class="st2" width="35.3" height="31.8"/>
<line class="st2" x1="666.3" y1="437" x2="702.1" y2="468.9"/>
<line class="st2" x1="702.1" y1="437" x2="666.3" y2="468.9"/>
<rect x="486.8" y="447.3" class="st4" width="100.3" height="11"/>
<rect x="486.8" y="447.3" class="st2" width="100.3" height="11"/>
<rect x="377.5" y="447.3" class="st4" width="36.5" height="11"/>
<rect x="377.5" y="447.3" class="st2" width="36.5" height="11"/>
<rect x="171.8" y="404.9" class="st4" width="201.2" height="11"/>
<rect x="171.8" y="404.9" class="st2" width="201.2" height="11"/>
<path class="st2" d="M411.8,449.3l47.5-27.7c0,0,3.5,5.6,5.5,14.1c1.9,8.5,1.6,15.2,1.6,15.2"/>
<path class="st2" d="M487.5,449l-17.8-10c0,0-1.5,2.2-2.3,5.7c-0.8,3.4-0.6,6.1-0.6,6.1"/>
<path class="st2" d="M168.7,527.6l29.5-51.4c0,0-6.6-4.2-16.7-6.5c-10.1-2.3-18.1-1.9-18.1-1.9"/>
<path class="st2" d="M559.7,542.6l-51.4,29.5c0,0-4.2-6.6-6.5-16.7c-2.3-10.1-1.9-18.1-1.9-18.1"/>
<path class="st2" d="M590.9,372.2l43-24.9c0,0,3.5,5.6,5.5,14.1c1.9,8.5,1.6,15.2,1.6,15.2"/>
<path class="st2" d="M662.2,374.4L641.4,410c0,0,4.7,2.9,11.7,4.5c7.1,1.6,12.7,1.3,12.7,1.3"/>
<path class="st2" d="M662.2,511.6L641.4,476c0,0,4.7-2.9,11.7-4.5c7.1-1.6,12.7-1.3,12.7-1.3"/>
<path class="st2" d="M590.1,544.1l43.9,25.8c0,0,3.6-5.8,5.6-14.6c2-8.8,1.6-15.7,1.6-15.7"/>
<path class="st2" d="M762,415.3c1.7,0,3.1-1.4,3.1-3.1v-15.1c0-1.7-1.4-3.1-3.1-3.1h-3.7c-1.7,0-3.1,1.4-3.1,3.1v15.1
	c0,1.7,1.4,3.1,3.1,3.1H762z"/>
<path class="st2" d="M725.6,404.6c0,5.9,4.8,10.7,10.8,10.7h15.9c1.5,0,2.8-1.2,2.8-2.7v-15.9c0-1.5-1.2-2.7-2.8-2.7h-15.9
	C730.4,394,725.6,398.7,725.6,404.6z"/>
<path class="st2" d="M729.3,404.5c0,4.2,3.5,7.7,7.8,7.7h11.5c0,0,0,0,0,0v-15.4c0,0,0,0,0,0h-11.5
	C732.9,396.8,729.3,400.2,729.3,404.5z"/>
<path class="st2" d="M760.3,403.5c-0.7,0-1.2,0.5-1.2,1.2c0,0.6,0.5,1.2,1.2,1.2c0.7,0,1.2-0.5,1.2-1.2
	C761.5,404,760.9,403.5,760.3,403.5z"/>
<path class="st2" d="M739,402.4c-1.2,0-2.1,0.9-2.1,2.1c0,1.2,0.9,2.1,2.1,2.1c1.2,0,2.1-0.9,2.1-2.1
	C741.1,403.3,740.2,402.4,739,402.4z"/>
<line class="st2" x1="747.2" y1="410.6" x2="742" y2="407.1"/>
<line class="st2" x1="747.2" y1="398.3" x2="742" y2="401.8"/>
<path class="st5" d="M763.4,533.7c7.5,0,13.6-6.1,13.6-13.6v-67.3c0-7.5-6.1-13.6-13.6-13.6H751c-7.5,0-13.6,6.1-13.6,13.6v67.3
	c0,7.5,6.1,13.6,13.6,13.6H763.4z"/>
<path class="st5" d="M759.7,527.1c7.5,0,13.6-6.1,13.6-13.6v-54.1c0-7.5-6.1-13.6-13.6-13.6h-4.9c-7.5,0-13.6,6.1-13.6,13.6v54.1
	c0,7.5,6.1,13.6,13.6,13.6H759.7z"/>
<path class="st5" d="M762.9,519.2c3.8,0,6.8-3,6.8-6.8v-56.2c0-3.8-3-6.8-6.8-6.8h-11.4c-3.8,0-6.8,3-6.8,6.8v56.2
	c0,3.8,3,6.8,6.8,6.8H762.9z"/>
<path class="st5" d="M757.2,456.5c-0.9,0-1.7,0.8-1.7,1.7c0,0.9,0.8,1.7,1.7,1.7c0.9,0,1.7-0.8,1.7-1.7
	C758.9,457.3,758.1,456.5,757.2,456.5z"/>
<line class="st2" x1="735.1" y1="538.3" x2="735.1" y2="434.6"/>
<path class="st2" d="M732.3,439.3c0-1.1-0.9-2-1.9-2h-10h-3.8h-10c-1.1,0-1.9,0.9-1.9,2c0,0,0,12.2,0.1,12.5c1.1,5.5,6,9.5,11.8,9.5
	h3.8c5.8,0,10.7-4,11.8-9.5C732.3,451.5,732.3,439.3,732.3,439.3z"/>
<path class="st2" d="M729.5,443c0-0.9-0.7-1.6-1.5-1.6h-8h-3h-8c-0.9,0-1.5,0.7-1.5,1.6c0,0,0,8.1,0.1,8.3c0.9,4.4,4.8,7.6,9.4,7.6
	h3c4.6,0,8.6-3.2,9.4-7.6C729.5,451.1,729.5,443,729.5,443z"/>
<path class="st2" d="M718.5,452.2c0.5,0,1-0.4,1-1c0-0.5-0.4-1-1-1c-0.5,0-1,0.4-1,1C717.5,451.8,717.9,452.2,718.5,452.2z"/>
<rect x="512.2" y="412.4" class="st2" width="33.5" height="33.5"/>
<path class="st2" d="M528.9,423.1c-1,0-1.7,0.8-1.7,1.7c0,1,0.8,1.7,1.7,1.7c1,0,1.7-0.8,1.7-1.7
	C530.7,423.9,529.9,423.1,528.9,423.1z"/>
<path class="st2" d="M539.7,436.2c1.3,0,2.4-1.1,2.4-2.4v-15.6c0-1.3-1.1-2.4-2.4-2.4h-21.6c-1.3,0-2.4,1.1-2.4,2.4v15.6
	c0,1.3,1.1,2.4,2.4,2.4H539.7z"/>
<path class="st2" d="M537.3,433.5c1.3,0,2.4-1.1,2.4-2.4v-10.8c0-1.3-1.1-2.4-2.4-2.4h-16.7c-1.3,0-2.4,1.1-2.4,2.4v10.8
	c0,1.3,1.1,2.4,2.4,2.4H537.3z"/>
<path class="st5" d="M481.7,277.4c18.4,0,33.3-14.9,33.3-33.3c0-18.4-14.9-33.3-33.3-33.3c-18.4,0-33.3,14.9-33.3,33.3
	C448.4,262.5,463.3,277.4,481.7,277.4z"/>
<path class="st4" d="M496,243.6c5.3-0.7,5.5-3.1,8.4-12.7H497c-2.1,8-2.6,10.5-6.4,10.5h-1.3c0.2-1.1,0.3-2.3,0.3-3.3v-7.1h-7.3
	v26.8h7.3v-9c0-0.7-0.1-1.6-0.3-2.5h1.4c3.7,0,4,1.8,6.8,11.5h7.6c-3.3-11-3.7-13.1-9.2-13.9V243.6z M459.8,236.2
	c2,0,4.7-0.1,7.5-0.1c2.7,0,3.5,0.3,3.5,2.5c0,1.8-0.2,2.9-3.1,2.9h-5.1v4.7l5.1,0c2.9,0,3.5,0.9,3.5,3.1c0,2.7-1,3.2-4.4,3.2
	c-2.3,0-4,0-7.4-0.2l-0.2,5.2c3,0.4,6.4,0.7,9.6,0.7c7.1,0,9.7-2.3,9.6-8c0-4.1-1.2-6.1-5-6.7v-0.2c3.5-0.5,4.3-2.9,4.3-6.8
	c0-4.8-2.5-6.3-9.1-6.3c-3,0-5.9,0.2-9,0.7L459.8,236.2z"/>
<path class="st4" d="M517.1,299.8c-0.1-4.5,0.4-6.3,4.3-6.3c4.3,0,4.7,1.5,4.8,9.9c-1.8,1-3,1.4-4.8,1.4
	C517.9,304.8,517.1,303.7,517.1,299.8 M509,324.3c4.4,1.1,8.5,1.1,10.6,1.1c12.1,0,16.6-2.9,16.6-20c0-15.4-2.5-19.3-14.5-19.3
	c-11.1,0-14.2,4.2-14.1,13.9c0,6.9,2.4,11.8,10.9,11.8c3.4,0,5.7-0.5,7.8-2.3c-0.3,6.5-1.6,8.4-6.6,8.4c-4.9,0-6.7,0-10.1-0.1
	L509,324.3z M497.4,315.4c-2.6,0-3.5,0.8-3.5,3.5v2.4c0,2.6,0.8,3.5,3.5,3.5h2.4c2.6,0,3.5-0.8,3.5-3.5v-2.4c0-2.6-0.8-3.5-3.5-3.5
	H497.4z M473.8,293.9c4.2,0,5.4,1.8,5.4,11.9c0,10.1-1.2,11.9-5.4,11.9c-4.1,0-5.2-1.8-5.2-11.9
	C468.6,295.7,469.7,293.9,473.8,293.9 M473.9,286c-11.5,0-15.5,5-15.5,19.8c0,14.8,4,19.8,15.5,19.8c11.6,0,15.6-5,15.6-19.8
	C489.4,291,485.4,286,473.9,286 M434.7,299.8c-0.1-4.5,0.4-6.3,4.3-6.3c4.3,0,4.7,1.5,4.8,9.9c-1.8,1-3,1.4-4.8,1.4
	C435.6,304.8,434.7,303.7,434.7,299.8 M426.6,324.3c4.4,1.1,8.5,1.1,10.6,1.1c12.1,0,16.6-2.9,16.6-20c0-15.4-2.5-19.3-14.5-19.3
	c-11.1,0-14.2,4.2-14.1,13.9c0,6.9,2.4,11.8,10.9,11.8c3.4,0,5.7-0.5,7.8-2.3c-0.3,6.5-1.6,8.4-6.6,8.4c-4.9,0-6.7,0-10.1-0.1
	L426.6,324.3z"/>
<path class="st4" d="M700.9,282.7c0-1.8,0.2-2.5,1.7-2.5c1.7,0,1.9,0.6,1.9,3.9c-0.7,0.4-1.2,0.6-1.9,0.6
	C701.2,284.7,700.8,284.2,700.9,282.7 M697.7,292.3c1.7,0.4,3.3,0.4,4.1,0.4c4.7,0,6.5-1.1,6.5-7.9c0-6-1-7.6-5.7-7.6
	c-4.3,0-5.6,1.6-5.5,5.5c0,2.7,0.9,4.6,4.3,4.6c1.3,0,2.2-0.2,3.1-0.9c-0.1,2.5-0.6,3.3-2.6,3.3c-1.9,0-2.6,0-3.9,0L697.7,292.3z
	 M693.1,288.8c-1,0-1.4,0.3-1.4,1.4v0.9c0,1,0.3,1.4,1.4,1.4h0.9c1,0,1.4-0.3,1.4-1.4v-0.9c0-1-0.3-1.4-1.4-1.4H693.1z M689.1,292.5
	v-14.9h-4l-3.8,1.5l0.5,2.6l3.5-0.8c-0.1,0.6-0.2,1.2-0.2,1.8v9.9H689.1z M679.4,292.5v-14.9h-4l-3.8,1.5l0.5,2.6l3.5-0.8
	c-0.1,0.6-0.2,1.2-0.2,1.8v9.9H679.4z"/>
<path class="st4" d="M766.8,262.9c0-0.5,0.3-0.8,0.9-0.8h2.2v1.3c-0.7,0.5-1.5,0.7-2.1,0.7c-0.7,0-1.1-0.3-1.1-0.9V262.9z
	 M763.9,258.6c1.8-0.1,3.5-0.2,4.6-0.2c1.1,0,1.5,0.3,1.5,1.2v0.3h-3.6c-2.1,0-3.4,1-3.4,2.7v1.1c0,2,1.6,3.1,3.6,3.1
	c1.9,0,3.1-0.9,3.8-1.9l0.4,1.6h3.1v-6.8c0-3.2-1.6-4.2-4.5-4.2c-1.6,0-4.3,0.2-5.9,0.5L763.9,258.6z M762.2,258.8v-3h-10.7v3h3.4
	v7.8h3.9v-7.8H762.2z M743,262.9c0-0.5,0.3-0.8,0.9-0.8h2.2v1.3c-0.7,0.5-1.5,0.7-2.1,0.7c-0.7,0-1.1-0.3-1.1-0.9V262.9z
	 M740.1,258.6c1.8-0.1,3.5-0.2,4.6-0.2c1.1,0,1.5,0.3,1.5,1.2v0.3h-3.6c-2.1,0-3.4,1-3.4,2.7v1.1c0,2,1.6,3.1,3.6,3.1
	c1.9,0,3.1-0.9,3.8-1.9l0.4,1.6h3.1v-6.8c0-3.2-1.6-4.2-4.5-4.2c-1.6,0-4.3,0.2-5.9,0.5L740.1,258.6z M737.4,255.8h-3.8v3.8h-3.3
	v-3.8h-3.9v10.7h3.9v-4.3h3.3v4.3h3.8V255.8z M719.2,255.8c-0.8,0-1.3,0.4-1.5,1.2l-0.9,4c-0.1,0.5-0.1,1.1-0.2,1.6h-0.2
	c-0.1-0.5-0.1-1.1-0.2-1.6l-0.9-4c-0.1-0.8-0.6-1.2-1.4-1.2h-3.3c-0.9,0-1.3,0.5-1.4,1.3l-0.3,9.4h3.5l0.2-7.9h0.3l1.3,5.2
	c0.2,0.8,0.7,1.2,1.5,1.2h1.8c0.8,0,1.3-0.4,1.5-1.2l1.3-5.2h0.3l0.3,7.9h3.5l-0.3-9.4c0-0.9-0.5-1.3-1.3-1.3H719.2z M701.4,258.3
	c1.3,0,1.7,0.5,1.7,2.9c0,2.4-0.3,2.9-1.7,2.9c-1.3,0-1.7-0.5-1.7-2.9C699.7,258.8,700.1,258.3,701.4,258.3 M701.4,255.5
	c-4.2,0-5.8,1.5-5.8,5.7c0,4.1,1.6,5.6,5.8,5.6c4.2,0,5.8-1.5,5.8-5.6C707.2,257.1,705.6,255.5,701.4,255.5 M690.6,260.9
	c2.5-0.4,2.3-0.6,3.7-5.1h-3.9c-0.9,3.6-1,3.9-2.5,3.9h-0.5c0.1-0.5,0.2-0.9,0.2-1.4v-2.5h-3.9v10.7h3.9v-3.4c0-0.3,0-0.6-0.1-0.9
	h0.9c1.1,0,1.2,0.3,2.4,4.3h4.1c-1.5-5.1-1.5-5.2-4.1-5.5V260.9z M672.9,260.7h-1.5c-1,0-1.2-0.3-1.2-1.3c0-0.8,0.2-1,1.2-1h1.5
	V260.7z M668.7,262c-0.6,0.1-1.8,0.2-2.1,1.2l-0.8,3.4h4l0.7-2.9c0.1-0.5,0.3-0.6,1-0.6h1.4v3.5h3.8v-10.8c-1.3-0.2-2.5-0.2-5.4-0.2
	c-3.9,0-4.9,0.8-4.9,3.5C666.4,260.3,666.9,261.6,668.7,262L668.7,262z M657.3,262.9c0-0.5,0.3-0.8,0.9-0.8h2.2v1.3
	c-0.7,0.5-1.5,0.7-2.1,0.7c-0.7,0-1.1-0.3-1.1-0.9V262.9z M654.4,258.6c1.8-0.1,3.5-0.2,4.6-0.2c1.1,0,1.5,0.3,1.5,1.2v0.3h-3.6
	c-2.1,0-3.4,1-3.4,2.7v1.1c0,2,1.6,3.1,3.6,3.1c1.9,0,3.1-0.9,3.8-1.9l0.4,1.6h3.1v-6.8c0-3.2-1.6-4.2-4.5-4.2
	c-1.6,0-4.3,0.2-5.9,0.5L654.4,258.6z M651.7,255.8h-6.5c-1.9,0-2.8,0.9-3,2.8c-0.2,2-0.3,3.5-0.6,4.2c-0.2,0.9-0.9,0.8-1.8,1
	l0.4,2.9c2.4,0.4,4.5-0.2,4.9-2.8c0.2-1,0.5-2.9,0.6-4.5c0.1-0.6,0.4-0.9,1-0.9h0.9v8.1h3.9V255.8z M638.6,266.6v-10.7h-3.4
	l-3.4,5.1c-0.3,0.5-0.6,1-0.8,1.6h-0.1c0.1-0.6,0.2-1.1,0.2-1.7v-5h-3.5v10.7h3.4l3.3-4.9c0.3-0.5,0.7-1.2,0.9-1.8h0.1
	c-0.1,0.7-0.2,1.3-0.2,1.9v4.8H638.6z M621.1,258.7c2.9-0.4,3-1.7,4.5-7.1h-4.1c-1.3,4.5-1.6,5.8-3,5.8h-0.7
	c0.1-0.6,0.2-1.3,0.2-1.9v-3.9h-3.9v3.9c0,0.6,0.1,1.2,0.2,1.9h-0.8c-1.4,0-1.7-1.3-3-5.8h-4.1c1.6,5.3,1.6,6.7,4.5,7.1v0.1
	c-3,0.4-3.2,1.6-4.9,7.7h4.2c1.7-5.4,1.8-6.4,3.3-6.4h0.8c-0.1,0.5-0.2,1-0.2,1.4v5h3.9v-5c0-0.4-0.1-0.9-0.2-1.4h0.7
	c1.5,0,1.7,1,3.3,6.4h4.2c-1.7-6.1-1.9-7.3-5-7.7V258.7z"/>
<path class="st4" d="M489.2,364.3l0.2,3.3h6.5c-0.3,0.5-0.5,1.1-0.7,1.6l-3.6,10.1h4l4.5-12.9c0.4-1.1-0.3-2-1.5-2H489.2z
	 M486.2,375.6c-1,0-1.4,0.3-1.4,1.4v0.9c0,1,0.3,1.4,1.4,1.4h0.9c1,0,1.4-0.3,1.4-1.4v-0.9c0-1-0.3-1.4-1.4-1.4H486.2z M477.8,376.5
	c-1.7,0-1.9-0.5-1.9-3.8c0.7-0.4,1.2-0.6,1.9-0.6c1.4,0,1.7,0.4,1.7,2C479.5,375.9,479.4,376.5,477.8,376.5 M482.3,364.5
	c-1.5-0.4-3.1-0.4-3.8-0.4c-4.3,0-6.5,1.1-6.5,7.9c0,6,1.3,7.6,5.8,7.6c4.6,0,5.5-1.7,5.5-5.5c0-3.3-1-4.6-4.4-4.6
	c-1.3,0-2.2,0.2-3,0.9c0.1-2.8,0.6-3.3,2.6-3.3c1.7,0,2.4,0,3.7,0L482.3,364.5z M469.3,379.2v-14.9h-4l-3.8,1.5l0.5,2.6l3.5-0.8
	c-0.1,0.6-0.2,1.2-0.2,1.8v9.9H469.3z"/>
<path class="st4" d="M509.2,346.7h-1.5c-1,0-1.2-0.3-1.2-1.3c0-0.8,0.2-1,1.2-1h1.5V346.7z M505,348c-0.6,0.1-1.8,0.2-2.1,1.2
	l-0.8,3.4h4l0.7-2.9c0.1-0.5,0.3-0.6,1-0.6h1.4v3.5h3.8v-10.8c-1.3-0.2-2.5-0.2-5.4-0.2c-3.9,0-4.9,0.8-4.9,3.5
	C502.7,346.3,503.2,347.6,505,348L505,348z M500.6,341.8h-3.8v3.8h-3.3v-3.8h-3.9v10.7h3.9v-4.3h3.3v4.3h3.8V341.8z M484.4,352.6
	h3.9l-3.2-5.5l2.9-5.2h-3.9l-2.1,4l-2.1-4h-3.9l2.9,5.2l-3.2,5.5h3.9l2.3-4.3L484.4,352.6z M475.7,341.8h-4.2l-1.6,6.4
	c-0.1,0.5-0.3,1.2-0.5,1.8h-0.2c-0.1-0.6-0.2-1.2-0.3-1.8l-1.6-6.4h-4.2l3.3,9.8c0.2,0.6,0.6,0.9,1.3,0.9h0.7
	c-0.3,0.5-0.7,1-1.1,1.3c-0.7,0.4-1.6,0.5-3,0.5l-0.3,2.5c1.5,0.3,3.1,0.3,4.4-0.2c1.7-0.6,2.9-1.7,3.7-4.2L475.7,341.8z
	 M458.1,344.7c3-0.4,3-1.7,4.7-7.1h-4.1c-1.2,4.5-1.4,5.8-3.5,5.8h-0.7c0.1-0.6,0.2-1.3,0.2-1.9v-4h-4v14.9h4v-5
	c0-0.4-0.1-0.9-0.2-1.4h0.8c2.1,0,2.2,1,3.8,6.4h4.2c-1.8-6.1-2-7.3-5.1-7.7V344.7z"/>
<path class="st4" d="M704.8,725.4c1.6,0,2,0.4,2,1.9c0,1.5-0.3,1.9-2,1.9c-1.7,0-2.1-0.4-2.1-1.9
	C702.7,725.8,703.1,725.4,704.8,725.4 M704.8,719.4c1.5,0,1.8,0.3,1.8,1.8c0,1.3-0.3,1.6-1.8,1.6c-1.5,0-1.9-0.3-1.9-1.6
	C702.9,719.7,703.2,719.4,704.8,719.4 M701.5,724.2c-2.1,0.2-2.7,2-2.7,4c0,2.9,1.2,4,5.8,4c4.7,0,5.8-1.1,5.8-4c0-2-0.5-3.8-2.6-4
	v-0.1c1.6-0.2,2.3-1.8,2.3-3.4c0-2.8-0.9-4-5.5-4c-4.5,0-5.5,1.2-5.5,4C699.3,722.3,699.9,723.9,701.5,724.2L701.5,724.2z
	 M694.7,728.2c-1,0-1.4,0.3-1.4,1.4v0.9c0,1,0.3,1.4,1.4,1.4h0.9c1,0,1.4-0.3,1.4-1.4v-0.9c0-1-0.3-1.4-1.4-1.4H694.7z M685.7,725.4
	c1.6,0,2,0.4,2,1.9c0,1.5-0.3,1.9-2,1.9c-1.7,0-2.1-0.4-2.1-1.9C683.6,725.8,684,725.4,685.7,725.4 M685.7,719.4
	c1.5,0,1.8,0.3,1.8,1.8c0,1.3-0.3,1.6-1.8,1.6c-1.5,0-1.9-0.3-1.9-1.6C683.8,719.7,684.2,719.4,685.7,719.4 M682.5,724.2
	c-2.1,0.2-2.7,2-2.7,4c0,2.9,1.2,4,5.8,4c4.7,0,5.8-1.1,5.8-4c0-2-0.5-3.8-2.6-4v-0.1c1.6-0.2,2.3-1.8,2.3-3.4c0-2.8-0.9-4-5.5-4
	c-4.5,0-5.5,1.2-5.5,4C680.2,722.3,680.9,723.9,682.5,724.2L682.5,724.2z M677.1,731.9V717h-4l-3.8,1.5l0.5,2.6l3.5-0.8
	c-0.1,0.6-0.2,1.2-0.2,1.8v9.9H677.1z"/>
<path class="st4" d="M766.8,702.3c0-0.5,0.3-0.8,0.9-0.8h2.2v1.3c-0.7,0.5-1.5,0.7-2.1,0.7c-0.7,0-1.1-0.3-1.1-0.9V702.3z
	 M763.9,698c1.8-0.1,3.5-0.2,4.6-0.2c1.1,0,1.5,0.3,1.5,1.2v0.3h-3.6c-2.1,0-3.4,1-3.4,2.7v1.1c0,2,1.6,3.1,3.6,3.1
	c1.9,0,3.1-0.9,3.8-1.9l0.4,1.6h3.1v-6.8c0-3.2-1.6-4.2-4.5-4.2c-1.6,0-4.3,0.2-5.9,0.5L763.9,698z M762.2,698.2v-3h-10.7v3h3.4v7.8
	h3.9v-7.8H762.2z M743,702.3c0-0.5,0.3-0.8,0.9-0.8h2.2v1.3c-0.7,0.5-1.5,0.7-2.1,0.7c-0.7,0-1.1-0.3-1.1-0.9V702.3z M740.1,698
	c1.8-0.1,3.5-0.2,4.6-0.2c1.1,0,1.5,0.3,1.5,1.2v0.3h-3.6c-2.1,0-3.4,1-3.4,2.7v1.1c0,2,1.6,3.1,3.6,3.1c1.9,0,3.1-0.9,3.8-1.9
	l0.4,1.6h3.1v-6.8c0-3.2-1.6-4.2-4.5-4.2c-1.6,0-4.3,0.2-5.9,0.5L740.1,698z M737.4,695.3h-3.8v3.8h-3.3v-3.8h-3.9V706h3.9v-4.3h3.3
	v4.3h3.8V695.3z M719.2,695.3c-0.8,0-1.3,0.4-1.5,1.2l-0.9,4c-0.1,0.5-0.1,1.1-0.2,1.6h-0.2c-0.1-0.5-0.1-1.1-0.2-1.6l-0.9-4
	c-0.1-0.8-0.6-1.2-1.4-1.2h-3.3c-0.9,0-1.3,0.5-1.4,1.3l-0.3,9.4h3.5l0.2-7.9h0.3l1.3,5.2c0.2,0.8,0.7,1.2,1.5,1.2h1.8
	c0.8,0,1.3-0.4,1.5-1.2l1.3-5.2h0.3l0.3,7.9h3.5l-0.3-9.4c0-0.9-0.5-1.3-1.3-1.3H719.2z M701.4,697.7c1.3,0,1.7,0.5,1.7,2.9
	c0,2.4-0.3,2.9-1.7,2.9c-1.3,0-1.7-0.5-1.7-2.9C699.7,698.2,700.1,697.7,701.4,697.7 M701.4,695c-4.2,0-5.8,1.5-5.8,5.7
	c0,4.1,1.6,5.6,5.8,5.6c4.2,0,5.8-1.5,5.8-5.6C707.2,696.5,705.6,695,701.4,695 M690.6,700.3c2.5-0.4,2.3-0.6,3.7-5.1h-3.9
	c-0.9,3.6-1,3.9-2.5,3.9h-0.5c0.1-0.5,0.2-0.9,0.2-1.4v-2.5h-3.9V706h3.9v-3.4c0-0.3,0-0.6-0.1-0.9h0.9c1.1,0,1.2,0.3,2.4,4.3h4.1
	c-1.5-5.1-1.5-5.2-4.1-5.5V700.3z M672.9,700.1h-1.5c-1,0-1.2-0.3-1.2-1.3c0-0.8,0.2-1,1.2-1h1.5V700.1z M668.7,701.4
	c-0.6,0.1-1.8,0.2-2.1,1.2l-0.8,3.4h4l0.7-2.9c0.1-0.5,0.3-0.6,1-0.6h1.4v3.5h3.8v-10.8c-1.3-0.2-2.5-0.2-5.4-0.2
	c-3.9,0-4.9,0.8-4.9,3.5C666.4,699.7,666.9,701,668.7,701.4L668.7,701.4z M657.3,702.3c0-0.5,0.3-0.8,0.9-0.8h2.2v1.3
	c-0.7,0.5-1.5,0.7-2.1,0.7c-0.7,0-1.1-0.3-1.1-0.9V702.3z M654.4,698c1.8-0.1,3.5-0.2,4.6-0.2c1.1,0,1.5,0.3,1.5,1.2v0.3h-3.6
	c-2.1,0-3.4,1-3.4,2.7v1.1c0,2,1.6,3.1,3.6,3.1c1.9,0,3.1-0.9,3.8-1.9l0.4,1.6h3.1v-6.8c0-3.2-1.6-4.2-4.5-4.2
	c-1.6,0-4.3,0.2-5.9,0.5L654.4,698z M651.7,695.3h-6.5c-1.9,0-2.8,0.9-3,2.8c-0.2,2-0.3,3.5-0.6,4.2c-0.2,0.9-0.9,0.8-1.8,1l0.4,2.9
	c2.4,0.4,4.5-0.2,4.9-2.8c0.2-1,0.5-2.9,0.6-4.5c0.1-0.6,0.4-0.9,1-0.9h0.9v8.1h3.9V695.3z M638.6,706v-10.7h-3.4l-3.4,5.1
	c-0.3,0.5-0.6,1-0.8,1.6h-0.1c0.1-0.6,0.2-1.1,0.2-1.7v-5h-3.5V706h3.4l3.3-4.9c0.3-0.5,0.7-1.2,0.9-1.8h0.1
	c-0.1,0.7-0.2,1.3-0.2,1.9v4.8H638.6z M621.1,698.1c2.9-0.4,3-1.7,4.5-7.1h-4.1c-1.3,4.5-1.6,5.8-3,5.8h-0.7
	c0.1-0.6,0.2-1.3,0.2-1.9v-4h-3.9v4c0,0.6,0.1,1.2,0.2,1.9h-0.8c-1.4,0-1.7-1.3-3-5.8h-4.1c1.6,5.3,1.6,6.7,4.5,7.1v0.1
	c-3,0.4-3.2,1.6-4.9,7.7h4.2c1.7-5.4,1.8-6.4,3.3-6.4h0.8c-0.1,0.5-0.2,1-0.2,1.4v5h3.9v-5c0-0.4-0.1-0.9-0.2-1.4h0.7
	c1.5,0,1.7,1,3.3,6.4h4.2c-1.7-6.1-1.9-7.3-5-7.7V698.1z"/>
<path class="st4" d="M498.9,719.8c1.7,0,2.1,0.7,2.1,4.7c0,3.9-0.5,4.7-2.1,4.7c-1.6,0-2.1-0.7-2.1-4.7
	C496.8,720.5,497.3,719.8,498.9,719.8 M498.9,716.7c-4.5,0-6.1,1.9-6.1,7.7c0,5.8,1.6,7.7,6.1,7.7c4.5,0,6.1-1.9,6.1-7.7
	C505,718.6,503.5,716.7,498.9,716.7 M488.8,728.2c-1,0-1.4,0.3-1.4,1.4v0.9c0,1,0.3,1.4,1.4,1.4h0.9c1,0,1.4-0.3,1.4-1.4v-0.9
	c0-1-0.3-1.4-1.4-1.4H488.8z M478.1,722.1c0-1.8,0.2-2.5,1.7-2.5c1.7,0,1.9,0.6,1.9,3.9c-0.7,0.4-1.2,0.6-1.9,0.6
	C478.4,724.1,478.1,723.6,478.1,722.1 M474.9,731.7c1.7,0.4,3.3,0.4,4.1,0.4c4.7,0,6.5-1.1,6.5-7.9c0-6-1-7.6-5.7-7.6
	c-4.3,0-5.6,1.6-5.5,5.5c0,2.7,0.9,4.6,4.3,4.6c1.3,0,2.2-0.2,3.1-0.9c-0.1,2.5-0.6,3.3-2.6,3.3c-1.9,0-2.6,0-3.9,0L474.9,731.7z
	 M471.8,731.9V717h-4l-3.8,1.5l0.5,2.6l3.5-0.8c-0.1,0.6-0.2,1.2-0.2,1.8v9.9H471.8z"/>
<path class="st4" d="M561.4,702.3c0-0.5,0.3-0.8,0.9-0.8h2.2v1.3c-0.7,0.5-1.5,0.7-2.1,0.7c-0.7,0-1.1-0.3-1.1-0.9V702.3z
	 M558.4,698c1.8-0.1,3.5-0.2,4.6-0.2c1.1,0,1.5,0.3,1.5,1.2v0.3H561c-2.1,0-3.4,1-3.4,2.7v1.1c0,2,1.6,3.1,3.6,3.1
	c1.9,0,3.1-0.9,3.8-1.9l0.4,1.6h3.1v-6.8c0-3.2-1.6-4.2-4.5-4.2c-1.6,0-4.3,0.2-5.9,0.5L558.4,698z M556.7,698.2v-3H546v3h3.4v7.8
	h3.9v-7.8H556.7z M537.5,702.3c0-0.5,0.3-0.8,0.9-0.8h2.2v1.3c-0.7,0.5-1.5,0.7-2.1,0.7c-0.7,0-1.1-0.3-1.1-0.9V702.3z M534.6,698
	c1.8-0.1,3.5-0.2,4.6-0.2c1.1,0,1.5,0.3,1.5,1.2v0.3h-3.6c-2.1,0-3.4,1-3.4,2.7v1.1c0,2,1.6,3.1,3.6,3.1c1.9,0,3.1-0.9,3.8-1.9
	l0.4,1.6h3.1v-6.8c0-3.2-1.6-4.2-4.5-4.2c-1.6,0-4.3,0.2-5.9,0.5L534.6,698z M531.9,695.3h-3.8v3.8h-3.3v-3.8h-3.9V706h3.9v-4.3h3.3
	v4.3h3.8V695.3z M513.8,695.3c-0.8,0-1.3,0.4-1.5,1.2l-0.9,4c-0.1,0.5-0.1,1.1-0.2,1.6H511c-0.1-0.5-0.1-1.1-0.2-1.6l-0.9-4
	c-0.1-0.8-0.6-1.2-1.4-1.2H505c-0.9,0-1.3,0.5-1.4,1.3l-0.3,9.4h3.5l0.2-7.9h0.3l1.3,5.2c0.2,0.8,0.7,1.2,1.5,1.2h1.8
	c0.8,0,1.3-0.4,1.5-1.2l1.3-5.2h0.3l0.3,7.9h3.5l-0.3-9.4c0-0.9-0.5-1.3-1.3-1.3H513.8z M495.9,697.7c1.3,0,1.7,0.5,1.7,2.9
	c0,2.4-0.3,2.9-1.7,2.9c-1.3,0-1.7-0.5-1.7-2.9C494.2,698.2,494.6,697.7,495.9,697.7 M495.9,695c-4.2,0-5.8,1.5-5.8,5.7
	c0,4.1,1.6,5.6,5.8,5.6c4.2,0,5.8-1.5,5.8-5.6C501.7,696.5,500.1,695,495.9,695 M485.2,700.3c2.5-0.4,2.3-0.6,3.7-5.1h-3.9
	c-0.9,3.6-1,3.9-2.5,3.9h-0.5c0.1-0.5,0.2-0.9,0.2-1.4v-2.5h-3.9V706h3.9v-3.4c0-0.3,0-0.6-0.1-0.9h0.9c1.1,0,1.2,0.3,2.4,4.3h4.1
	c-1.5-5.1-1.5-5.2-4.1-5.5V700.3z M467.5,700.1h-1.5c-1,0-1.2-0.3-1.2-1.3c0-0.8,0.2-1,1.2-1h1.5V700.1z M463.3,701.4
	c-0.6,0.1-1.8,0.2-2.1,1.2l-0.8,3.4h4l0.7-2.9c0.1-0.5,0.3-0.6,1-0.6h1.4v3.5h3.8v-10.8c-1.3-0.2-2.5-0.2-5.4-0.2
	c-3.9,0-4.9,0.8-4.9,3.5C460.9,699.7,461.4,701,463.3,701.4L463.3,701.4z M451.8,702.3c0-0.5,0.3-0.8,0.9-0.8h2.2v1.3
	c-0.7,0.5-1.5,0.7-2.1,0.7c-0.7,0-1.1-0.3-1.1-0.9V702.3z M448.9,698c1.8-0.1,3.5-0.2,4.6-0.2c1.1,0,1.5,0.3,1.5,1.2v0.3h-3.6
	c-2.1,0-3.4,1-3.4,2.7v1.1c0,2,1.6,3.1,3.6,3.1c1.9,0,3.1-0.9,3.8-1.9l0.4,1.6h3.1v-6.8c0-3.2-1.6-4.2-4.5-4.2
	c-1.6,0-4.3,0.2-5.9,0.5L448.9,698z M446.2,695.3h-6.5c-1.9,0-2.8,0.9-3,2.8c-0.1,2-0.3,3.5-0.6,4.2c-0.2,0.9-0.9,0.8-1.8,1l0.4,2.9
	c2.4,0.4,4.5-0.2,4.9-2.8c0.2-1,0.5-2.9,0.6-4.5c0.1-0.6,0.4-0.9,1-0.9h0.9v8.1h3.9V695.3z M433.1,706v-10.7h-3.4l-3.4,5.1
	c-0.3,0.5-0.6,1-0.8,1.6h-0.1c0.1-0.6,0.2-1.1,0.2-1.7v-5H422V706h3.4l3.3-4.9c0.3-0.5,0.7-1.2,0.9-1.8h0.1
	c-0.1,0.7-0.2,1.3-0.2,1.9v4.8H433.1z M415.6,698.1c2.9-0.4,3-1.7,4.5-7.1h-4.1c-1.3,4.5-1.6,5.8-3,5.8h-0.7
	c0.1-0.6,0.2-1.3,0.2-1.9v-4h-3.9v4c0,0.6,0.1,1.2,0.2,1.9h-0.8c-1.4,0-1.7-1.3-3-5.8H401c1.6,5.3,1.6,6.7,4.5,7.1v0.1
	c-3,0.4-3.2,1.6-4.9,7.7h4.2c1.7-5.4,1.8-6.4,3.3-6.4h0.8c-0.1,0.5-0.2,1-0.2,1.4v5h3.9v-5c0-0.4-0.1-0.9-0.2-1.4h0.7
	c1.5,0,1.7,1,3.3,6.4h4.2c-1.7-6.1-1.9-7.3-5-7.7V698.1z"/>
<path class="st4" d="M489.3,502.7c1.1,0,2.6,0,4.1,0c1.5,0,1.9,0.2,1.9,1.4c0,1-0.1,1.6-1.7,1.6h-2.8v2.6l2.8,0
	c1.6,0,1.9,0.5,1.9,1.7c0,1.5-0.6,1.8-2.5,1.8c-1.3,0-2.2,0-4.1-0.1l-0.1,2.9c1.7,0.2,3.6,0.4,5.4,0.4c3.9,0,5.4-1.3,5.3-4.4
	c0-2.3-0.7-3.4-2.8-3.7v-0.1c1.9-0.3,2.4-1.6,2.4-3.8c0-2.7-1.4-3.5-5-3.5c-1.6,0-3.3,0.1-5,0.4L489.3,502.7z M485,511
	c-1,0-1.4,0.3-1.4,1.4v0.9c0,1,0.3,1.4,1.4,1.4h0.9c1,0,1.4-0.3,1.4-1.4v-0.9c0-1-0.3-1.4-1.4-1.4H485z M476,508.3
	c1.6,0,2,0.4,2,1.9c0,1.5-0.3,1.9-2,1.9c-1.7,0-2.1-0.4-2.1-1.9C473.9,508.7,474.2,508.3,476,508.3 M475.9,502.3
	c1.5,0,1.8,0.3,1.8,1.8c0,1.3-0.3,1.6-1.8,1.6c-1.5,0-1.9-0.3-1.9-1.6C474.1,502.6,474.4,502.3,475.9,502.3 M472.7,507
	c-2.1,0.2-2.7,2-2.7,4c0,2.9,1.2,4,5.8,4c4.7,0,5.8-1.1,5.8-4c0-2-0.5-3.8-2.6-4v-0.1c1.6-0.2,2.3-1.8,2.3-3.4c0-2.8-0.9-4-5.5-4
	c-4.5,0-5.5,1.2-5.5,4C470.5,505.1,471.1,506.8,472.7,507L472.7,507z"/>
<path class="st4" d="M523.6,481.4c0.7-0.4,1.2-0.7,2-0.7c1,0,1.4,0.4,1.4,2.8c0,2.5-0.4,2.8-1.5,2.8c-0.8,0-1.3-0.2-1.9-0.4V481.4z
	 M522.9,478.1h-3.1v14.7h3.9v-2.4c0-0.8,0-1.6-0.1-2.3c0.9,0.7,2.1,1,3.4,1c2.7,0,4.1-1.2,4.1-5.5c0-3.6-1.1-5.7-3.8-5.7
	c-1.7,0-3.3,0.8-4.1,1.8L522.9,478.1z M512.1,480.6c1.3,0,1.7,0.5,1.7,2.9c0,2.4-0.3,2.9-1.7,2.9c-1.3,0-1.7-0.5-1.7-2.9
	C510.4,481.1,510.8,480.6,512.1,480.6 M512.1,477.8c-4.2,0-5.8,1.5-5.8,5.7c0,4.1,1.6,5.6,5.8,5.6c4.2,0,5.8-1.5,5.8-5.6
	C517.9,479.3,516.3,477.8,512.1,477.8 M499.8,486.2h-3.2c0.5-1.2,0.9-2.7,1.2-4.7c0.1-0.6,0.4-0.9,0.9-0.9h1V486.2z M505.2,486.2
	h-1.8v-8.1h-5.9c-1.9,0-2.9,0.9-3.1,2.6c-0.3,1.9-0.6,3.6-1.3,5.5h-1.3v5.6h2.6l0.3-3h7.7l0.3,3h2.6V486.2z M490.3,488.8v-10.7h-3.4
	l-3.4,5.1c-0.3,0.5-0.6,1-0.8,1.6h-0.1c0.1-0.6,0.2-1.1,0.2-1.7v-5h-3.5v10.7h3.4l3.3-4.9c0.3-0.5,0.7-1.2,0.9-1.8h0.1
	c-0.1,0.7-0.2,1.3-0.2,1.9v4.8H490.3z M469.9,481.4c0.7-0.4,1.2-0.7,2-0.7c1,0,1.4,0.4,1.4,2.8c0,2.5-0.4,2.8-1.5,2.8
	c-0.8,0-1.3-0.2-1.9-0.4V481.4z M469.2,478.1H466v14.7h3.9v-2.4c0-0.8,0-1.6-0.1-2.3c0.9,0.7,2.1,1,3.4,1c2.7,0,4.1-1.2,4.1-5.5
	c0-3.6-1.1-5.7-3.8-5.7c-1.7,0-3.3,0.8-4.1,1.8L469.2,478.1z M458.4,480.6c1.3,0,1.7,0.5,1.7,2.9c0,2.4-0.3,2.9-1.7,2.9
	c-1.3,0-1.7-0.5-1.7-2.9C456.7,481.1,457.1,480.6,458.4,480.6 M458.4,477.8c-4.2,0-5.8,1.5-5.8,5.7c0,4.1,1.6,5.6,5.8,5.6
	c4.2,0,5.8-1.5,5.8-5.6C464.2,479.3,462.6,477.8,458.4,477.8 M446.7,481c3-0.4,3-1.7,4.7-7.1h-4.1c-1.2,4.5-1.4,5.8-3.5,5.8h-0.7
	c0.1-0.6,0.2-1.3,0.2-1.9v-3.9h-4v14.9h4v-5c0-0.4-0.1-0.9-0.2-1.4h0.8c2.1,0,2.2,1,3.8,6.4h4.2c-1.8-6.1-2-7.3-5.1-7.7V481z"/>
<path class="st4" d="M276.7,497c1.1,0,2.6,0,4.1,0c1.5,0,1.9,0.2,1.9,1.4c0,1-0.1,1.6-1.7,1.6h-2.8v2.6l2.8,0c1.6,0,1.9,0.5,1.9,1.7
	c0,1.5-0.6,1.8-2.5,1.8c-1.3,0-2.2,0-4.1-0.1l-0.1,2.9c1.7,0.2,3.6,0.4,5.4,0.4c3.9,0,5.4-1.3,5.3-4.4c0-2.3-0.7-3.4-2.8-3.7V501
	c1.9-0.3,2.4-1.6,2.4-3.8c0-2.7-1.4-3.5-5-3.5c-1.6,0-3.3,0.1-5,0.4L276.7,497z M272.3,505.3c-1,0-1.4,0.3-1.4,1.4v0.9
	c0,1,0.3,1.4,1.4,1.4h0.9c1,0,1.4-0.3,1.4-1.4v-0.9c0-1-0.3-1.4-1.4-1.4H272.3z M259.8,494.1l0.2,3.3h6.5c-0.3,0.5-0.5,1.1-0.7,1.6
	l-3.6,10.1h4l4.5-12.9c0.4-1.1-0.3-2-1.5-2H259.8z"/>
<path class="st4" d="M323.8,477.2h-1.5c-1,0-1.2-0.3-1.2-1.3c0-0.8,0.2-1,1.2-1h1.5V477.2z M319.6,478.5c-0.6,0.1-1.8,0.2-2,1.2
	l-0.8,3.4h4l0.7-2.9c0.1-0.5,0.3-0.6,1-0.6h1.4v3.5h3.8v-10.8c-1.3-0.2-2.5-0.2-5.4-0.2c-3.9,0-4.9,0.8-4.9,3.4
	C317.2,476.8,317.7,478,319.6,478.5L319.6,478.5z M308.1,479.3c0-0.5,0.3-0.8,0.9-0.8h2.2v1.3c-0.7,0.5-1.5,0.7-2.1,0.7
	c-0.7,0-1.1-0.3-1.1-0.9V479.3z M305.2,475.1c1.8-0.1,3.5-0.2,4.6-0.2c1.1,0,1.5,0.3,1.5,1.2v0.3h-3.6c-2.1,0-3.4,1-3.4,2.7v1.1
	c0,2,1.6,3.1,3.6,3.1c1.9,0,3.1-0.9,3.8-1.9l0.4,1.6h3.1v-6.8c0-3.2-1.6-4.2-4.5-4.2c-1.6,0-4.3,0.2-5.9,0.5L305.2,475.1z
	 M299.2,477.4c2.5-0.3,2.4-0.6,3.8-5.1h-3.9c-1.1,3.5-1.2,3.9-2.3,3.9h-0.7c0.1-0.5,0.1-0.9,0.1-1.3v-2.6h-3.4v2.6
	c0,0.4,0,0.9,0.1,1.3h-0.7c-1.1,0-1.2-0.4-2.4-3.9h-3.8c1.4,4.4,1.3,4.7,3.8,5.1v0.1c-2.6,0.4-2.6,0.6-4.2,5.5h4
	c1.4-4.1,1.5-4.3,2.4-4.3h0.9c-0.1,0.3-0.1,0.6-0.1,0.9v3.4h3.4v-3.4c0-0.3,0-0.6-0.1-0.9h0.7h0.2c1,0,1.1,0.3,2.4,4.3h4
	c-1.5-5-1.6-5.2-4.2-5.5V477.4z M279.2,474.8c1.3,0,1.7,0.5,1.7,2.9c0,2.4-0.3,2.9-1.7,2.9c-1.3,0-1.7-0.5-1.7-2.9
	C277.5,475.3,277.8,474.8,279.2,474.8 M279.2,472c-4.2,0-5.8,1.5-5.8,5.7c0,4.1,1.6,5.6,5.8,5.6c4.2,0,5.8-1.5,5.8-5.6
	C284.9,473.6,283.4,472,279.2,472 M269,483h3.9l-3.2-5.5l2.9-5.2h-3.9l-2.1,4l-2.1-4h-3.9l2.9,5.2l-3.2,5.5h3.9l2.3-4.3L269,483z
	 M259.2,483.1v-10.7h-3.4l-3.4,5.1c-0.3,0.5-0.6,1-0.8,1.6h-0.1c0.1-0.6,0.2-1.1,0.2-1.7v-5.1h-3.5V483h3.4l3.3-4.9
	c0.3-0.5,0.7-1.2,0.9-1.8h0.1c-0.1,0.7-0.2,1.3-0.2,1.9v4.8H259.2z M238.8,475.6c0.7-0.4,1.2-0.7,2-0.7c1,0,1.4,0.4,1.4,2.8
	c0,2.5-0.4,2.8-1.5,2.8c-0.8,0-1.3-0.2-1.9-0.4V475.6z M238,472.3h-3.1V487h3.9v-2.4c0-0.8,0-1.6-0.1-2.3c0.9,0.7,2.1,1,3.4,1
	c2.7,0,4.1-1.2,4.1-5.5c0-3.6-1.1-5.7-3.8-5.7c-1.7,0-3.3,0.8-4.1,1.8L238,472.3z M232.3,468.2h-12.5V483h4v-12.1h4.4V483h4.1V468.2
	z"/>
<path class="st4" d="M508.9,107.7c2.4,1,3.2,4.1,3.2,8.6c0,4.4-0.9,7.6-3.2,8.7l0.5,1.7c4.5-1.3,6.6-4.5,6.6-10.3
	c0-5.8-2-9-6.6-10.3L508.9,107.7z M497.3,111.4c2.1-0.1,3.1-0.1,4.7-0.1c1.1,0,1.6,0.1,1.6,0.7c0,0.8-1,2.2-2.7,3.9l-3.3,3.5
	c-0.4,0.5-0.6,1-0.6,1.6v2.1h11.1v-3.5h-4.3c-0.7,0-1.4,0-2.1,0.2l3.7-3.6c2-2.1,2.3-3,2.3-4.6c0-2.9-2.1-3.6-5.3-3.6
	c-1.6,0-3.1,0.1-5.3,0.5L497.3,111.4z M493.1,119.4c-1,0-1.4,0.3-1.4,1.4v0.9c0,1,0.3,1.4,1.4,1.4h0.9c1,0,1.4-0.3,1.4-1.4v-0.9
	c0-1-0.3-1.4-1.4-1.4H493.1z M479.2,111.4c2.1-0.1,3.1-0.1,4.7-0.1c1.1,0,1.6,0.1,1.6,0.7c0,0.8-1,2.2-2.7,3.9l-3.3,3.5
	c-0.4,0.5-0.6,1-0.6,1.6v2.1H490v-3.5h-4.3c-0.7,0-1.4,0-2.1,0.2l3.7-3.6c2-2.1,2.3-3,2.3-4.6c0-2.9-2.1-3.6-5.3-3.6
	c-1.6,0-3.2,0.1-5.3,0.5L479.2,111.4z M477.3,106c-4.5,1.3-6.6,4.5-6.6,10.3c0,5.8,2,9,6.6,10.3l0.5-1.7c-2.4-1.1-3.2-4.2-3.2-8.7
	c0-4.5,0.9-7.6,3.2-8.6L477.3,106z M454.3,111.1c1.1,0,2.6,0,4.1,0c1.5,0,1.9,0.2,1.9,1.4c0,1-0.1,1.6-1.7,1.6h-2.8v2.6l2.8,0
	c1.6,0,1.9,0.5,1.9,1.7c0,1.5-0.6,1.8-2.5,1.8c-1.3,0-2.2,0-4.1-0.1l-0.1,2.9c1.7,0.2,3.6,0.4,5.4,0.4c3.9,0,5.4-1.3,5.4-4.4
	c0-2.3-0.7-3.4-2.8-3.7v-0.1c1.9-0.3,2.4-1.6,2.4-3.8c0-2.7-1.4-3.5-5-3.5c-1.6,0-3.3,0.1-5,0.4L454.3,111.1z M450,119.4
	c-1,0-1.4,0.3-1.4,1.4v0.9c0,1,0.3,1.4,1.4,1.4h0.9c1,0,1.4-0.3,1.4-1.4v-0.9c0-1-0.3-1.4-1.4-1.4H450z M447.2,117.3h-1.8v-6.1h-3
	l-0.6,2.3v3.8h-2.9c-0.3,0-0.6-0.2-0.4-0.6l3.3-8.4h-3.8l-3.7,9.5c-0.5,1.2,0.3,2.3,1.6,2.3h6v3.1h3.7V120h0l1.7-0.4V117.3z"/>
<path class="st4" d="M721.2,107.7c2.4,1,3.2,4.1,3.2,8.6c0,4.4-0.9,7.5-3.2,8.7l0.5,1.7c4.5-1.3,6.6-4.5,6.6-10.3
	c0-5.8-2-9-6.6-10.3L721.2,107.7z M709.9,108.2l0.2,3.3h6.5c-0.3,0.5-0.5,1.1-0.7,1.6l-3.6,10.1h4l4.5-12.9c0.4-1.1-0.3-2-1.5-2
	H709.9z M706.9,119.4c-1,0-1.4,0.3-1.4,1.4v0.9c0,1,0.3,1.4,1.4,1.4h0.9c1,0,1.4-0.3,1.4-1.4v-0.9c0-1-0.3-1.4-1.4-1.4H706.9z
	 M702.9,123.1v-14.9h-4l-3.8,1.5l0.5,2.6l3.5-0.8c-0.1,0.6-0.2,1.2-0.2,1.8v9.9H702.9z M694.5,106c-4.5,1.3-6.6,4.5-6.6,10.3
	c0,5.8,2,9,6.6,10.3l0.5-1.7c-2.4-1.1-3.2-4.2-3.2-8.7c0-4.5,0.9-7.6,3.2-8.6L694.5,106z M682.2,117.3h-1.8v-6.1h-3l-0.6,2.3v3.8
	h-2.9c-0.3,0-0.6-0.2-0.4-0.6l3.3-8.4h-3.8l-3.7,9.5c-0.5,1.2,0.3,2.3,1.6,2.3h6v3.1h3.7V120h0l1.7-0.4V117.3z M665.5,119.4
	c-1,0-1.4,0.3-1.4,1.4v0.9c0,1,0.3,1.4,1.4,1.4h0.9c1,0,1.4-0.3,1.4-1.4v-0.9c0-1-0.3-1.4-1.4-1.4H665.5z M652,111.1
	c1.1,0,2.6,0,4.1,0c1.5,0,1.9,0.2,1.9,1.4c0,1-0.1,1.6-1.7,1.6h-2.8v2.6l2.8,0c1.6,0,1.9,0.5,1.9,1.7c0,1.5-0.6,1.8-2.5,1.8
	c-1.3,0-2.2,0-4.1-0.1l-0.1,2.9c1.7,0.2,3.6,0.4,5.4,0.4c3.9,0,5.4-1.3,5.4-4.4c0-2.3-0.7-3.4-2.8-3.7v-0.1c1.9-0.3,2.4-1.6,2.4-3.8
	c0-2.7-1.4-3.5-5-3.5c-1.6,0-3.3,0.1-5,0.4L652,111.1z"/>
<path class="st4" d="M710.2,506.8l0.1-2.1h-6.5l-0.3,4.7c0,0.5,0.3,0.9,0.8,0.9l1.6,0.2c1.4,0.1,1.9,0.3,1.9,1.3
	c-0.1,0.8-0.4,1.2-1.7,1.2c-0.7,0-1.7,0-2.7-0.1l-0.3,2.1c1.3,0.2,2.7,0.3,3.7,0.3c3,0,3.8-1.5,3.8-3.4c0-1.7-0.6-3.2-3.1-3.4
	l-1.7-0.2l0.1-1.5H710.2z M700.4,512.6c-0.7,0-0.9,0.2-0.9,1v0.7c0,0.7,0.2,0.9,0.9,0.9h0.6c0.7,0,1-0.2,1-0.9v-0.7c0-0.7-0.2-1-1-1
	H700.4z M691,506.8c0.8,0,1.8,0,2.9,0c1.1,0,1.4,0.1,1.4,1c0,0.7-0.1,1.1-1.2,1.1h-2v1.8l2,0c1.1,0,1.4,0.3,1.4,1.2
	c0,1.1-0.4,1.3-1.7,1.3c-0.9,0-1.6,0-2.9-0.1l-0.1,2c1.2,0.2,2.5,0.3,3.7,0.3c2.8,0,3.8-0.9,3.7-3.1c0-1.6-0.5-2.4-1.9-2.6v-0.1
	c1.3-0.2,1.7-1.1,1.7-2.6c0-1.9-1-2.4-3.5-2.4c-1.1,0-2.3,0.1-3.5,0.3L691,506.8z"/>
<path class="st4" d="M724.6,492.9h-1.1c-0.7,0-0.8-0.2-0.8-0.9c0-0.6,0.1-0.7,0.8-0.7h1.1V492.9z M721.6,493.9
	c-0.5,0-1.2,0.2-1.4,0.8l-0.6,2.4h2.8l0.5-2c0.1-0.3,0.2-0.4,0.7-0.4h1v2.4h2.7v-7.6c-0.9-0.1-1.7-0.1-3.8-0.1
	c-2.8,0-3.4,0.5-3.4,2.4C720,492.7,720.4,493.5,721.6,493.9L721.6,493.9z M713.6,494.4c0-0.3,0.2-0.6,0.6-0.6h1.6v0.9
	c-0.5,0.3-1,0.5-1.5,0.5c-0.5,0-0.7-0.2-0.7-0.6V494.4z M711.6,491.5c1.3-0.1,2.5-0.1,3.2-0.1c0.8,0,1,0.2,1,0.9v0.2h-2.5
	c-1.5,0-2.4,0.7-2.4,1.9v0.8c0,1.4,1.1,2.1,2.5,2.1c1.3,0,2.2-0.7,2.7-1.3l0.3,1.1h2.2v-4.8c0-2.2-1.1-2.9-3.1-2.9
	c-1.1,0-3,0.2-4.1,0.4L711.6,491.5z M709.7,489.5H707v2.6h-2.3v-2.6H702v7.5h2.7v-3h2.3v3h2.7V489.5z M700.4,489.5h-2.7v2.6h-2.3
	v-2.6h-2.7v7.5h2.7v-3h2.3v3h2.7V489.5z M686.2,494.4c0-0.3,0.2-0.6,0.6-0.6h1.6v0.9c-0.5,0.3-1,0.5-1.5,0.5c-0.5,0-0.7-0.2-0.7-0.6
	V494.4z M684.1,491.5c1.3-0.1,2.5-0.1,3.2-0.1c0.8,0,1,0.2,1,0.9v0.2h-2.5c-1.5,0-2.4,0.7-2.4,1.9v0.8c0,1.4,1.1,2.1,2.5,2.1
	c1.3,0,2.2-0.7,2.7-1.3l0.3,1.1h2.2v-4.8c0-2.2-1.1-2.9-3.1-2.9c-1.1,0-3,0.2-4.1,0.4L684.1,491.5z M676.9,495.2v-2.6h1.4
	c1.1,0,1.4,0.3,1.4,1.4c0,1-0.3,1.3-1.3,1.3L676.9,495.2z M676.9,490.8v-2.3h1.3c1,0,1.3,0.2,1.3,1.1c0,0.9-0.3,1.2-1.2,1.2H676.9z
	 M680.3,491.6c1.3-0.1,1.9-0.9,1.9-2.4c0-2.1-1-2.7-3.8-2.7c-1.9,0-3,0-4.2,0.1V497c1.4,0.1,2.6,0.1,4.7,0.1c2.6,0,3.7-0.6,3.7-2.7
	C682.5,492.8,682,491.8,680.3,491.6L680.3,491.6z"/>
<path class="st4" d="M711.2,407.7l0.1-2.1h-6.5l-0.3,4.7c0,0.5,0.3,0.9,0.8,0.9l1.6,0.2c1.4,0.1,1.9,0.3,1.9,1.3
	c-0.1,0.8-0.4,1.2-1.7,1.2c-0.7,0-1.7,0-2.7-0.1l-0.3,2.1c1.3,0.2,2.7,0.3,3.7,0.3c3,0,3.8-1.5,3.8-3.4c0-1.7-0.6-3.2-3-3.4
	l-1.7-0.2l0.1-1.5H711.2z M701.4,413.4c-0.7,0-1,0.2-1,1v0.7c0,0.7,0.2,1,1,1h0.6c0.7,0,1-0.2,1-1v-0.7c0-0.7-0.2-1-1-1H701.4z
	 M698.6,416v-10.4h-2.8l-2.6,1l0.3,1.8l2.4-0.5c-0.1,0.4-0.1,0.8-0.1,1.2v6.9H698.6z"/>
<path class="st4" d="M715.7,390.4h-2.9l-1.1,4.5c-0.1,0.3-0.2,0.8-0.3,1.3h-0.2c-0.1-0.4-0.1-0.9-0.2-1.3l-1.1-4.5h-2.9l2.3,6.9
	c0.1,0.4,0.5,0.6,0.9,0.6h0.5c-0.2,0.4-0.5,0.7-0.8,0.9c-0.5,0.3-1.1,0.3-2.1,0.3l-0.2,1.8c1.1,0.2,2.2,0.2,3.1-0.2
	c1.2-0.4,2-1.2,2.6-2.9L715.7,390.4z M700.9,399l5.9-11.6h-2.2l-5.9,11.6H700.9z M697.9,395.5c-1,0.1-1.8,0.1-3.3,0.1
	c-1.2,0-1.6-0.6-1.6-3c0-2.3,0.3-3,1.6-3c1.4,0,2.1,0,3.1,0l0.2-2.1c-1-0.3-1.7-0.4-3.3-0.4c-3.3,0-4.6,1.4-4.6,5.4
	c0,4,1.2,5.4,4.6,5.4c1.6,0,2.5-0.1,3.5-0.5L697.9,395.5z"/>
</svg>
