<?xml version="1.0" encoding="utf-8"?>
<!-- Generator: Adobe Illustrator 24.3.0, SVG Export Plug-In . SVG Version: 6.00 Build 0)  -->
<svg version="1.1" id="Слой_1" xmlns="http://www.w3.org/2000/svg" xmlns:xlink="http://www.w3.org/1999/xlink" x="0px" y="0px"
	 viewBox="0 0 377 481" style="enable-background:new 0 0 377 481;" xml:space="preserve">
<style type="text/css">
	.st0{fill:#F6CCCE;}
	.st1{fill:#FFF5A4;}
	.st2{fill:#373437;}
	.st3{fill:none;stroke:#373437;stroke-width:0.669;}
	.st4{fill:none;stroke:#373437;stroke-width:0.236;}
	.st5{fill:none;stroke:#373437;stroke-width:0.567;}
	.st6{fill:none;stroke:#373437;stroke-width:0.279;}
	.st7{fill:none;stroke:#373437;stroke-width:0.244;}
	.st8{fill:none;stroke:#373437;stroke-width:0.904;}
	.st9{fill:none;stroke:#373437;stroke-width:0.6;}
	.st10{fill:none;stroke:#373437;stroke-width:0.446;}
	.st11{fill:none;stroke:#373437;stroke-width:1.116;stroke-dasharray:4.388,4.388;}
</style>
<line class="st0" x1="326.2" y1="383.5" x2="112.6" y2="383.5"/>
<rect x="31.7" y="172.9" class="st1" width="262.5" height="125.4"/>
<rect x="67.6" y="263.8" class="st1" width="258.6" height="64.4"/>
<rect x="112.6" y="271.9" class="st1" width="213.6" height="106.8"/>
<rect x="294.1" y="156.7" class="st2" width="8.9" height="50"/>
<rect x="294.1" y="248" class="st2" width="8.9" height="21.4"/>
<rect x="291.8" y="156.7" class="st2" width="8.9" height="44.8"/>
<rect x="302.5" y="156.7" class="st2" width="8.4" height="52"/>
<rect x="302.5" y="246.3" class="st2" width="8.4" height="23.1"/>
<rect x="174" y="244.9" class="st2" width="7.5" height="24.5"/>
<rect x="174" y="169.5" class="st2" width="7.5" height="32"/>
<rect x="176.5" y="179.1" class="st2" width="5" height="71.8"/>
<rect x="207.8" y="264.4" class="st2" width="119.4" height="5"/>
<rect x="136.6" y="264.4" class="st2" width="49.6" height="5"/>
<rect x="62.8" y="264.4" class="st2" width="40" height="5"/>
<rect x="62.5" y="257.2" class="st2" width="5" height="22.2"/>
<rect x="26.5" y="249.3" class="st2" width="23.7" height="5"/>
<rect x="294.1" y="253.4" class="st2" width="48.5" height="16"/>
<rect x="334.6" y="260.9" class="st2" width="8.1" height="59.4"/>
<rect x="334.4" y="358.8" class="st2" width="8.2" height="25.5"/>
<rect x="326.2" y="360.8" class="st2" width="8.8" height="23.5"/>
<rect x="322.8" y="366.8" class="st2" width="8.8" height="17.3"/>
<rect x="108.8" y="375.3" class="st2" width="218.4" height="9"/>
<rect x="108.8" y="338.5" class="st2" width="7.4" height="45.1"/>
<rect x="108.8" y="320.3" class="st2" width="5" height="44.3"/>
<rect x="105.1" y="320.2" class="st2" width="7.4" height="7.9"/>
<rect x="121" y="320.2" class="st2" width="5.1" height="4.5"/>
<rect x="207.8" y="320.2" class="st2" width="5.7" height="4.5"/>
<rect x="60" y="320.3" class="st2" width="19" height="7.9"/>
<rect x="60" y="298.3" class="st2" width="7.5" height="26.6"/>
<rect x="25" y="298.3" class="st2" width="38.6" height="7.5"/>
<rect x="24.3" y="130.2" class="st2" width="7.5" height="175.6"/>
<rect x="145.1" y="321.1" class="st2" width="47.3" height="3.7"/>
<rect x="177.1" y="323" class="st2" width="7.4" height="53.6"/>
<rect x="216.6" y="337" class="st2" width="5" height="47.3"/>
<line class="st2" x1="108.8" y1="380.7" x2="113.8" y2="380.7"/>
<line class="st2" x1="149.1" y1="382.1" x2="154.1" y2="382.1"/>
<rect x="216.6" y="308.1" class="st2" width="5" height="12.2"/>
<rect x="216.6" y="267.7" class="st2" width="5" height="20.6"/>
<rect x="326.2" y="258.7" class="st2" width="8.8" height="59.4"/>
<rect x="322.8" y="254.9" class="st2" width="8.8" height="42.8"/>
<rect x="158.4" y="159.3" class="st2" width="141.2" height="13.6"/>
<rect x="156" y="156.7" class="st2" width="141.2" height="7.5"/>
<rect x="294.5" y="227.4" class="st3" width="16.1" height="41.7"/>
<rect x="301.3" y="227.4" class="st3" width="1.4" height="39.4"/>
<rect x="326.5" y="317.3" class="st3" width="15.8" height="54.5"/>
<rect x="333.2" y="314.5" class="st3" width="1.4" height="60.1"/>
<path class="st2" d="M53.7,290.4c0.5,0,0.7,0.2,0.7,1.4c0,1.2-0.1,1.4-0.7,1.4c-0.5,0-0.6-0.2-0.6-1.4
	C53.1,290.6,53.2,290.4,53.7,290.4 M53.7,289.5c-1.4,0-1.9,0.6-1.9,2.4c0,1.8,0.5,2.4,1.9,2.4c1.4,0,1.9-0.6,1.9-2.4
	C55.6,290.1,55.1,289.5,53.7,289.5 M50.6,293c-0.3,0-0.4,0.1-0.4,0.4v0.3c0,0.3,0.1,0.4,0.4,0.4h0.3c0.3,0,0.4-0.1,0.4-0.4v-0.3
	c0-0.3-0.1-0.4-0.4-0.4H50.6z M46.3,290.6c0.6,0,1,0,1.4,0c0.4,0,0.5,0,0.5,0.2c0,0.3-0.3,0.7-0.8,1.2l-1,1.1
	c-0.1,0.1-0.2,0.3-0.2,0.5v0.7h3.4v-1.1h-1.3c-0.2,0-0.4,0-0.6,0.1l1.1-1.1c0.6-0.6,0.7-0.9,0.7-1.4c0-0.9-0.6-1.1-1.6-1.1
	c-0.5,0-1,0-1.6,0.2L46.3,290.6z"/>
<path class="st2" d="M64.5,283.7c0.4,0,0.5,0.1,0.5,0.8c0,0.7-0.1,0.9-0.5,0.9s-0.5-0.2-0.5-0.9C64,283.9,64.1,283.7,64.5,283.7
	 M65.9,281.2c-0.6,0.3-1.3,0.1-1.9,0.4c-1,0.4-1.2,1.2-1.2,2.5c0,1.2,0.1,2.1,1.8,2.1c1.3,0,1.7-0.6,1.7-1.7c0-1.1-0.4-1.6-1.4-1.6
	c-0.6,0-0.9,0.2-1.2,0.5h0c0-0.2,0-0.3,0.1-0.5c0.1-0.2,0.3-0.4,0.6-0.5c0.6-0.2,1.1,0,1.7-0.3L65.9,281.2z M60.4,283.6
	c0.4,0,0.5,0.2,0.5,0.9c0,0.7-0.1,0.9-0.5,0.9c-0.4,0-0.5-0.2-0.5-0.9C59.9,283.8,60,283.6,60.4,283.6 M60.4,282.8
	c-1.3,0-1.8,0.5-1.8,1.7c0,1.3,0.5,1.7,1.8,1.7c1.3,0,1.8-0.5,1.8-1.7C62.2,283.2,61.7,282.8,60.4,282.8 M55.9,283.9
	c0.2-0.1,0.4-0.2,0.6-0.2c0.3,0,0.4,0.1,0.4,0.9c0,0.8-0.1,0.9-0.5,0.9c-0.2,0-0.4-0.1-0.6-0.1V283.9z M55.7,282.9h-1v4.5h1.2v-0.7
	c0-0.2,0-0.5,0-0.7c0.3,0.2,0.7,0.3,1.1,0.3c0.8,0,1.3-0.4,1.3-1.7c0-1.1-0.3-1.8-1.2-1.8c-0.5,0-1,0.2-1.3,0.5L55.7,282.9z
	 M52,284.2c0-0.5,0.2-0.6,0.6-0.6c0.3,0,0.4,0.1,0.4,0.3c0,0.2,0,0.3-0.3,0.3H52z M53,284.8c0.9,0,1.2-0.3,1.2-0.9
	c0-0.8-0.5-1.2-1.6-1.2c-1.3,0-1.8,0.5-1.8,1.8c0,1.2,0.5,1.7,1.8,1.7c0.5,0,1.1-0.1,1.5-0.3l-0.1-0.7c-0.5,0.1-1,0.1-1.3,0.1
	c-0.4,0-0.6-0.1-0.7-0.5H53z M48.7,285.4h-1c0.2-0.4,0.3-0.8,0.4-1.5c0-0.2,0.1-0.3,0.3-0.3h0.3V285.4z M50.4,285.4h-0.6v-2.5H48
	c-0.6,0-0.9,0.3-1,0.8c-0.1,0.6-0.2,1.1-0.4,1.7h-0.4v1.7h0.8l0.1-0.9h2.4l0.1,0.9h0.8V285.4z M43.7,283.9c0.2-0.1,0.4-0.2,0.6-0.2
	c0.3,0,0.4,0.1,0.4,0.9c0,0.8-0.1,0.9-0.5,0.9c-0.2,0-0.4-0.1-0.6-0.1V283.9z M43.5,282.9h-1v4.5h1.2v-0.7c0-0.2,0-0.5,0-0.7
	c0.3,0.2,0.7,0.3,1.1,0.3c0.8,0,1.3-0.4,1.3-1.7c0-1.1-0.3-1.8-1.2-1.8c-0.5,0-1,0.2-1.3,0.5L43.5,282.9z M39.7,285
	c0-0.2,0.1-0.3,0.3-0.3h0.7v0.4c-0.2,0.1-0.5,0.2-0.6,0.2c-0.2,0-0.3-0.1-0.3-0.3V285z M38.8,283.7c0.6,0,1.1,0,1.4,0
	c0.3,0,0.5,0.1,0.5,0.4v0.1h-1.1c-0.7,0-1.1,0.3-1.1,0.8v0.3c0,0.6,0.5,0.9,1.1,0.9c0.6,0,1-0.3,1.2-0.6l0.1,0.5h1v-2.1
	c0-1-0.5-1.3-1.4-1.3c-0.5,0-1.3,0.1-1.8,0.2L38.8,283.7z M35.8,286.2H37v-3.3c0-0.2,0.1-0.3,0.3-0.3h1.5l0.1-0.9
	c-0.6-0.1-1.4-0.1-2.1-0.1c-0.6,0-1,0.4-1,1V286.2z"/>
<path class="st2" d="M147.8,363.6c-2.8,0-5.1,2.3-5.1,5.1v5.4c0,0.4,0.3,0.8,0.8,0.8H155c0.4,0,0.8-0.3,0.8-0.8v-5.4
	c0-2.8-2.3-5.1-5.1-5.1H147.8z M155,375.2h-11.6c-0.6,0-1.1-0.5-1.1-1.1v-5.4c0-3,2.4-5.4,5.4-5.4h2.9c3,0,5.4,2.4,5.4,5.4v5.4
	C156.1,374.8,155.6,375.2,155,375.2"/>
<path class="st4" d="M147.8,363.6c-2.8,0-5.1,2.3-5.1,5.1v5.4c0,0.4,0.3,0.8,0.8,0.8H155c0.4,0,0.8-0.3,0.8-0.8v-5.4
	c0-2.8-2.3-5.1-5.1-5.1H147.8z M155,375.2h-11.6c-0.6,0-1.1-0.5-1.1-1.1v-5.4c0-3,2.4-5.4,5.4-5.4h2.9c3,0,5.4,2.4,5.4,5.4v5.4
	C156.1,374.8,155.6,375.2,155,375.2z"/>
<path class="st2" d="M147.8,364.9c-2.1,0-3.8,1.7-3.8,3.8v3.2c0,0.4,0.3,0.7,0.7,0.7h9.2c0.4,0,0.7-0.3,0.7-0.7v-3.2
	c0-2.1-1.7-3.8-3.8-3.8H147.8z M153.9,372.9h-9.2c-0.5,0-1-0.4-1-1v-3.2c0-2.3,1.9-4.1,4.1-4.1h2.9c2.3,0,4.1,1.9,4.1,4.1v3.2
	C154.8,372.4,154.4,372.9,153.9,372.9"/>
<path class="st4" d="M147.8,364.9c-2.1,0-3.8,1.7-3.8,3.8v3.2c0,0.4,0.3,0.7,0.7,0.7h9.2c0.4,0,0.7-0.3,0.7-0.7v-3.2
	c0-2.1-1.7-3.8-3.8-3.8H147.8z M153.9,372.9h-9.2c-0.5,0-1-0.4-1-1v-3.2c0-2.3,1.9-4.1,4.1-4.1h2.9c2.3,0,4.1,1.9,4.1,4.1v3.2
	C154.8,372.4,154.4,372.9,153.9,372.9z"/>
<path class="st2" d="M149.2,367.6c-0.4,0-0.6,0.3-0.6,0.6s0.3,0.6,0.6,0.6c0.3,0,0.6-0.3,0.6-0.6S149.6,367.6,149.2,367.6
	 M149.2,369.1c-0.5,0-0.9-0.4-0.9-0.9s0.4-0.9,0.9-0.9c0.5,0,0.9,0.4,0.9,0.9S149.8,369.1,149.2,369.1"/>
<path class="st4" d="M149.2,367.6c-0.4,0-0.6,0.3-0.6,0.6s0.3,0.6,0.6,0.6c0.3,0,0.6-0.3,0.6-0.6S149.6,367.6,149.2,367.6z
	 M149.2,369.1c-0.5,0-0.9-0.4-0.9-0.9s0.4-0.9,0.9-0.9c0.5,0,0.9,0.4,0.9,0.9S149.8,369.1,149.2,369.1z"/>
<path class="st2" d="M196.2,332.4c0-2.8-2.3-5.1-5.1-5.1h-5.4c-0.4,0-0.8,0.4-0.8,0.8v11.6c0,0.4,0.3,0.8,0.8,0.8h5.4
	c2.8,0,5.1-2.3,5.1-5.1V332.4z M184.6,339.6V328c0-0.6,0.5-1.1,1.1-1.1h5.4c3,0,5.4,2.4,5.4,5.4v2.9c0,3-2.4,5.4-5.4,5.4h-5.4
	C185.1,340.7,184.6,340.2,184.6,339.6"/>
<path class="st4" d="M196.2,332.4c0-2.8-2.3-5.1-5.1-5.1h-5.4c-0.4,0-0.8,0.4-0.8,0.8v11.6c0,0.4,0.3,0.8,0.8,0.8h5.4
	c2.8,0,5.1-2.3,5.1-5.1V332.4z M184.6,339.6V328c0-0.6,0.5-1.1,1.1-1.1h5.4c3,0,5.4,2.4,5.4,5.4v2.9c0,3-2.4,5.4-5.4,5.4h-5.4
	C185.1,340.7,184.6,340.2,184.6,339.6z"/>
<path class="st2" d="M194.9,332.4c0-2.1-1.7-3.8-3.8-3.8h-3.2c-0.4,0-0.7,0.3-0.7,0.7v9.2c0,0.4,0.3,0.7,0.7,0.7h3.2
	c2.1,0,3.8-1.7,3.8-3.8V332.4z M187,338.4v-9.2c0-0.5,0.4-1,1-1h3.2c2.3,0,4.1,1.9,4.1,4.1v2.9c0,2.3-1.9,4.1-4.1,4.1h-3.2
	C187.4,339.4,187,339,187,338.4"/>
<path class="st4" d="M194.9,332.4c0-2.1-1.7-3.8-3.8-3.8h-3.2c-0.4,0-0.7,0.3-0.7,0.7v9.2c0,0.4,0.3,0.7,0.7,0.7h3.2
	c2.1,0,3.8-1.7,3.8-3.8V332.4z M187,338.4v-9.2c0-0.5,0.4-1,1-1h3.2c2.3,0,4.1,1.9,4.1,4.1v2.9c0,2.3-1.9,4.1-4.1,4.1h-3.2
	C187.4,339.4,187,339,187,338.4z"/>
<path class="st2" d="M192.3,333.8c0-0.3-0.3-0.6-0.6-0.6c-0.3,0-0.6,0.3-0.6,0.6c0,0.4,0.3,0.6,0.6,0.6
	C192,334.4,192.3,334.2,192.3,333.8 M190.7,333.8c0-0.5,0.4-0.9,0.9-0.9s0.9,0.4,0.9,0.9c0,0.5-0.4,0.9-0.9,0.9
	S190.7,334.3,190.7,333.8"/>
<path class="st4" d="M192.3,333.8c0-0.3-0.3-0.6-0.6-0.6c-0.3,0-0.6,0.3-0.6,0.6c0,0.4,0.3,0.6,0.6,0.6
	C192,334.4,192.3,334.2,192.3,333.8z M190.7,333.8c0-0.5,0.4-0.9,0.9-0.9s0.9,0.4,0.9,0.9c0,0.5-0.4,0.9-0.9,0.9
	S190.7,334.3,190.7,333.8z"/>
<path class="st5" d="M169.8,333c3,0,5.4,2.4,5.4,5.4V367c0,3-2.4,5.4-5.4,5.4h-5.5c-3,0-5.4-2.4-5.4-5.4v-28.6c0-3,2.4-5.4,5.4-5.4
	H169.8z"/>
<path class="st5" d="M168.3,335.8c3,0,5.4,2.4,5.4,5.4v23.1c0,3-2.4,5.4-5.4,5.4h-2.5c-3,0-5.4-2.4-5.4-5.4v-23.1
	c0-3,2.4-5.4,5.4-5.4H168.3z"/>
<path class="st5" d="M169.5,339.1c1.5,0,2.7,1.2,2.7,2.7v23.7c0,1.5-1.2,2.7-2.7,2.7h-4.9c-1.5,0-2.7-1.2-2.7-2.7v-23.7
	c0-1.5,1.2-2.7,2.7-2.7H169.5z"/>
<path class="st5" d="M167.1,365.2c-0.4,0-0.7-0.3-0.7-0.7c0-0.4,0.3-0.7,0.7-0.7c0.4,0,0.7,0.3,0.7,0.7
	C167.8,364.8,167.5,365.2,167.1,365.2z"/>
<rect x="157.4" y="330.4" class="st3" width="19.4" height="44.6"/>
<path class="st5" d="M191.1,385.5"/>
<line class="st3" x1="199.1" y1="383.9" x2="154.4" y2="383.9"/>
<path class="st2" d="M128.4,384.1h6.5 M134.9,383.8 M134.9,383.8h-6.5"/>
<path class="st6" d="M128.4,384.1h6.5 M134.9,383.8h-6.5"/>
<path class="st2" d="M201.8,357.6c2.6,0,4.7,2.1,4.7,4.8v6.9c0,0.5-0.4,0.8-0.8,0.8h-7.8c-0.4,0-0.8-0.4-0.8-0.8v-6.9
	C197.1,359.7,199.2,357.6,201.8,357.6 M197.9,370.4h7.8c0.6,0,1.1-0.5,1.1-1.1v-6.9c0-2.8-2.3-5.1-5-5.1c-2.8,0-5,2.3-5,5.1v6.9
	C196.8,369.9,197.3,370.4,197.9,370.4"/>
<path class="st6" d="M201.8,357.6c2.6,0,4.7,2.1,4.7,4.8v6.9c0,0.5-0.4,0.8-0.8,0.8h-7.8c-0.4,0-0.8-0.4-0.8-0.8v-6.9
	C197.1,359.7,199.2,357.6,201.8,357.6z M197.9,370.4h7.8c0.6,0,1.1-0.5,1.1-1.1v-6.9c0-2.8-2.3-5.1-5-5.1c-2.8,0-5,2.3-5,5.1v6.9
	C196.8,369.9,197.3,370.4,197.9,370.4z"/>
<path class="st6" d="M205.2,367.8h-6.8c0,0-0.1,0-0.1-0.1v-5.2c0-1.9,1.6-3.5,3.5-3.5c1.9,0,3.5,1.6,3.5,3.5L205.2,367.8
	C205.3,367.7,205.3,367.8,205.2,367.8z"/>
<path class="st2" d="M205.1,367.6h-6.6v-5.1c0-1.8,1.5-3.3,3.3-3.3c1.8,0,3.3,1.5,3.3,3.3V367.6z M198.4,367.9h6.8
	c0.1,0,0.2-0.1,0.2-0.2v-5.2c0-2-1.6-3.7-3.6-3.7c-2,0-3.6,1.6-3.6,3.7v5.2C198.2,367.8,198.3,367.9,198.4,367.9"/>
<path class="st6" d="M205.1,367.6h-6.6v-5.1c0-1.8,1.5-3.3,3.3-3.3c1.8,0,3.3,1.5,3.3,3.3V367.6z M198.4,367.9h6.8
	c0.1,0,0.2-0.1,0.2-0.2v-5.2c0-2-1.6-3.7-3.6-3.7c-2,0-3.6,1.6-3.6,3.7v5.2C198.2,367.8,198.3,367.9,198.4,367.9z"/>
<path class="st2" d="M201.8,362.5c0.5,0,0.9,0.4,0.9,0.9c0,0.5-0.4,0.9-0.9,0.9c-0.5,0-0.9-0.4-0.9-0.9
	C200.9,362.9,201.3,362.5,201.8,362.5 M201.8,364.6c0.7,0,1.2-0.5,1.2-1.2c0-0.7-0.5-1.2-1.2-1.2c-0.7,0-1.2,0.5-1.2,1.2
	C200.6,364.1,201.2,364.6,201.8,364.6"/>
<path class="st6" d="M201.8,362.5c0.5,0,0.9,0.4,0.9,0.9c0,0.5-0.4,0.9-0.9,0.9c-0.5,0-0.9-0.4-0.9-0.9
	C200.9,362.9,201.3,362.5,201.8,362.5z M201.8,364.6c0.7,0,1.2-0.5,1.2-1.2c0-0.7-0.5-1.2-1.2-1.2c-0.7,0-1.2,0.5-1.2,1.2
	C200.6,364.1,201.2,364.6,201.8,364.6z"/>
<polygon class="st2" points="204.5,367.1 204.7,366.9 203.1,364.8 202.9,365 "/>
<polygon class="st6" points="204.5,367.1 204.7,366.9 203.1,364.8 202.9,365 "/>
<polygon class="st2" points="199.3,367.1 200.8,365 200.6,364.8 199,366.9 "/>
<polygon class="st6" points="199.3,367.1 200.8,365 200.6,364.8 199,366.9 "/>
<path class="st2" d="M205.1,370.5c0.7,0,1.3,0.6,1.3,1.3v1.8c0,0.7-0.6,1.3-1.3,1.3h-6.5c-0.7,0-1.3-0.6-1.3-1.3v-1.8
	c0-0.7,0.6-1.3,1.3-1.3H205.1z M198.6,375.2h6.5c0.9,0,1.6-0.7,1.6-1.6v-1.8c0-0.9-0.7-1.6-1.6-1.6h-6.5c-0.9,0-1.6,0.7-1.6,1.6v1.8
	C196.9,374.5,197.7,375.2,198.6,375.2"/>
<path class="st6" d="M205.1,370.5c0.7,0,1.3,0.6,1.3,1.3v1.8c0,0.7-0.6,1.3-1.3,1.3h-6.5c-0.7,0-1.3-0.6-1.3-1.3v-1.8
	c0-0.7,0.6-1.3,1.3-1.3H205.1z M198.6,375.2h6.5c0.9,0,1.6-0.7,1.6-1.6v-1.8c0-0.9-0.7-1.6-1.6-1.6h-6.5c-0.9,0-1.6,0.7-1.6,1.6v1.8
	C196.9,374.5,197.7,375.2,198.6,375.2z"/>
<path class="st2" d="M201.8,372.2c0.3,0,0.5,0.2,0.5,0.5s-0.2,0.5-0.5,0.5c-0.3,0-0.5-0.2-0.5-0.5S201.6,372.2,201.8,372.2
	 M201.8,373.5c0.4,0,0.8-0.4,0.8-0.8s-0.4-0.8-0.8-0.8c-0.4,0-0.8,0.4-0.8,0.8S201.4,373.5,201.8,373.5"/>
<path class="st6" d="M201.8,372.2c0.3,0,0.5,0.2,0.5,0.5s-0.2,0.5-0.5,0.5c-0.3,0-0.5-0.2-0.5-0.5S201.6,372.2,201.8,372.2z
	 M201.8,373.5c0.4,0,0.8-0.4,0.8-0.8s-0.4-0.8-0.8-0.8c-0.4,0-0.8,0.4-0.8,0.8S201.4,373.5,201.8,373.5z"/>
<rect x="309.5" y="160.5" class="st2" width="29.1" height="3.8"/>
<rect x="210.8" y="124.3" class="st2" width="3.8" height="36.8"/>
<rect x="180.5" y="124.3" class="st2" width="3.8" height="9.9"/>
<rect x="335" y="160.5" class="st2" width="3.8" height="92.9"/>
<rect x="42.8" y="130.3" class="st2" width="141.2" height="3.8"/>
<rect x="180.5" y="124.3" class="st2" width="34" height="3.8"/>
<line class="st2" x1="25" y1="278.4" x2="25" y2="273.4"/>
<rect x="30.2" y="157" class="st3" width="65.2" height="16.2"/>
<rect x="30.2" y="164.9" class="st3" width="65.2" height="1.4"/>
<rect x="99.6" y="157" class="st3" width="37.8" height="16.2"/>
<rect x="99.6" y="164.9" class="st3" width="37.8" height="1.4"/>
<rect x="27" y="161.1" class="st2" width="21.8" height="12.5"/>
<rect x="27" y="156.7" class="st2" width="23.7" height="8.5"/>
<rect x="95.8" y="161.1" class="st2" width="21.8" height="12.5"/>
<rect x="95.8" y="156.7" class="st2" width="23.7" height="8.5"/>
<rect x="76" y="161.1" class="st2" width="21.8" height="12.5"/>
<rect x="74" y="156.7" class="st2" width="23.7" height="8.5"/>
<rect x="24.3" y="130.2" class="st2" width="21.8" height="42.6"/>
<path class="st2" d="M220.2,331.4h-5.7V322h5.7V331.4z M220.2,336.4h-5.7v-3.7h5.7V336.4z M221.6,320.2H213v18.4h8.6V320.2z"/>
<path class="st2" d="M119.7,331.4H114V322h5.7V331.4z M119.7,336.4H114v-3.7h5.7V336.4z M121.2,320.2h-8.6v18.4h8.6V320.2z"/>
<path class="st2" d="M50.9,250.7h9.4v5.7h-9.4V250.7z M61.6,250.7h3.7v5.7h-3.7V250.7z M49.2,257.9h18.4v-8.6H49.2V257.9z"/>
<path class="st2" d="M121.2,383.5h-8.6"/>
<path class="st2" d="M221.6,387"/>
<path class="st2" d="M202.7,351.4c0.3,0,0.8,0,1.2,0c0.4,0,0.6,0.1,0.6,0.4c0,0.3,0,0.5-0.5,0.5h-0.8v0.8l0.8,0
	c0.5,0,0.6,0.1,0.6,0.5c0,0.4-0.2,0.5-0.7,0.5c-0.4,0-0.7,0-1.2,0l0,0.9c0.5,0.1,1.1,0.1,1.6,0.1c1.2,0,1.6-0.4,1.6-1.3
	c0-0.7-0.2-1-0.8-1.1v0c0.6-0.1,0.7-0.5,0.7-1.1c0-0.8-0.4-1-1.5-1c-0.5,0-1,0-1.5,0.1L202.7,351.4z M201.4,353.9
	c-0.3,0-0.4,0.1-0.4,0.4v0.3c0,0.3,0.1,0.4,0.4,0.4h0.3c0.3,0,0.4-0.1,0.4-0.4v-0.3c0-0.3-0.1-0.4-0.4-0.4H201.4z M197.3,351.5
	c0.6,0,0.9,0,1.4,0c0.3,0,0.5,0,0.5,0.2c0,0.2-0.3,0.6-0.8,1.2l-1,1c-0.1,0.1-0.2,0.3-0.2,0.5v0.6h3.3v-1h-1.3c-0.2,0-0.4,0-0.6,0.1
	l1.1-1.1c0.6-0.6,0.7-0.9,0.7-1.4c0-0.9-0.6-1.1-1.6-1.1c-0.5,0-0.9,0-1.6,0.1L197.3,351.5z"/>
<path class="st2" d="M212.4,345v-0.9h-3.2v0.9h1v2.3h1.2V345H212.4z M206.8,345.4c0-0.5,0.1-0.6,0.5-0.6c0.3,0,0.4,0.1,0.4,0.3
	c0,0.2,0,0.3-0.3,0.3H206.8z M207.8,346c0.8,0,1.1-0.3,1.1-0.9c0-0.7-0.4-1.1-1.6-1.1c-1.2,0-1.7,0.4-1.7,1.7c0,1.1,0.5,1.6,1.7,1.6
	c0.5,0,1.1-0.1,1.5-0.3l-0.1-0.7c-0.5,0.1-1,0.1-1.2,0.1c-0.4,0-0.6-0.1-0.6-0.5H207.8z M205.1,344.1h-1.9c-0.5,0-0.8,0.3-0.9,0.8
	c0,0.6-0.1,1-0.2,1.2c-0.1,0.3-0.3,0.3-0.5,0.3l0.1,0.9c0.7,0.1,1.3,0,1.5-0.8c0.1-0.3,0.1-0.8,0.2-1.3c0-0.2,0.1-0.3,0.3-0.3h0.3
	v2.4h1.2V344.1z M199.1,346.2c0-0.1,0.1-0.2,0.3-0.3h0.7v0.4c-0.2,0.1-0.4,0.2-0.6,0.2c-0.2,0-0.3-0.1-0.3-0.3V346.2z M198.3,344.9
	c0.5,0,1,0,1.4,0c0.3,0,0.4,0.1,0.4,0.4v0.1H199c-0.6,0-1,0.3-1,0.8v0.3c0,0.6,0.5,0.9,1.1,0.9c0.6,0,0.9-0.3,1.1-0.5l0.1,0.5h0.9
	v-2c0-0.9-0.5-1.2-1.3-1.2c-0.5,0-1.3,0.1-1.7,0.2L198.3,344.9z M197.8,344.1h-1.2l-0.5,1.9c0,0.1-0.1,0.4-0.1,0.5h-0.1
	c0-0.2-0.1-0.4-0.1-0.5l-0.5-1.9h-1.2l1,2.9c0.1,0.2,0.2,0.3,0.4,0.3h0.2c-0.1,0.2-0.2,0.3-0.3,0.4c-0.2,0.1-0.5,0.1-0.9,0.1
	l-0.1,0.8c0.5,0.1,0.9,0.1,1.3-0.1c0.5-0.2,0.9-0.5,1.1-1.2L197.8,344.1z M194.3,343.8v-0.9h-3.7v0.9h1.3v3.5h1.2v-3.5H194.3z"/>
<path class="st2" d="M144.2,353.2h-0.6v-2.1h-1.1l-0.2,0.8v1.3h-1c-0.1,0-0.2-0.1-0.1-0.2l1.1-2.9H141l-1.3,3.3
	c-0.2,0.4,0.1,0.8,0.5,0.8h2.1v1.1h1.3v-1.1h0l0.6-0.1V353.2z M138.4,354c-0.4,0-0.5,0.1-0.5,0.5v0.3c0,0.4,0.1,0.5,0.5,0.5h0.3
	c0.4,0,0.5-0.1,0.5-0.5v-0.3c0-0.4-0.1-0.5-0.5-0.5H138.4z M137.4,353.2h-0.6v-2.1h-1.1l-0.2,0.8v1.3h-1c-0.1,0-0.2-0.1-0.1-0.2
	l1.1-2.9h-1.3l-1.3,3.3c-0.2,0.4,0.1,0.8,0.5,0.8h2.1v1.1h1.3v-1.1h0l0.6-0.1V353.2z"/>
<path class="st2" d="M150.5,344.2H150c-0.4,0-0.4-0.1-0.4-0.5c0-0.3,0.1-0.3,0.4-0.3h0.5V344.2z M149,344.6c-0.2,0-0.6,0.1-0.7,0.4
	l-0.3,1.2h1.4l0.2-1c0-0.2,0.1-0.2,0.3-0.2h0.5v1.2h1.3v-3.8c-0.5-0.1-0.9-0.1-1.9-0.1c-1.4,0-1.7,0.3-1.7,1.2
	C148.2,344,148.4,344.5,149,344.6L149,344.6z M145.1,344.9c0-0.2,0.1-0.3,0.3-0.3h0.8v0.5c-0.2,0.2-0.5,0.3-0.7,0.3
	c-0.2,0-0.4-0.1-0.4-0.3V344.9z M144,343.5c0.6,0,1.2-0.1,1.6-0.1c0.4,0,0.5,0.1,0.5,0.4v0.1h-1.2c-0.7,0-1.2,0.4-1.2,1v0.4
	c0,0.7,0.6,1.1,1.3,1.1c0.6,0,1.1-0.3,1.3-0.6l0.1,0.5h1.1v-2.4c0-1.1-0.6-1.5-1.6-1.5c-0.5,0-1.5,0.1-2,0.2L144,343.5z
	 M143.1,342.5h-1.3v1.3h-1.1v-1.3h-1.3v3.7h1.3v-1.5h1.1v1.5h1.3V342.5z M138.5,342.5h-1.3v1.3H136v-1.3h-1.3v3.7h1.3v-1.5h1.1v1.5
	h1.3V342.5z M131.4,344.9c0-0.2,0.1-0.3,0.3-0.3h0.8v0.5c-0.2,0.2-0.5,0.3-0.7,0.3c-0.2,0-0.4-0.1-0.4-0.3V344.9z M130.4,343.5
	c0.6,0,1.2-0.1,1.6-0.1c0.4,0,0.5,0.1,0.5,0.4v0.1h-1.2c-0.7,0-1.2,0.4-1.2,1v0.4c0,0.7,0.6,1.1,1.3,1.1c0.6,0,1.1-0.3,1.3-0.6
	l0.1,0.5h1.1v-2.4c0-1.1-0.6-1.5-1.6-1.5c-0.5,0-1.5,0.1-2,0.2L130.4,343.5z M126.8,345.3V344h0.7c0.5,0,0.7,0.1,0.7,0.7
	c0,0.5-0.1,0.6-0.7,0.6L126.8,345.3z M126.8,343.1V342h0.7c0.5,0,0.6,0.1,0.6,0.6c0,0.5-0.1,0.6-0.6,0.6H126.8z M128.5,343.5
	c0.7-0.1,0.9-0.4,0.9-1.2c0-1.1-0.5-1.4-1.9-1.4c-0.9,0-1.5,0-2.1,0.1v5.2c0.7,0.1,1.3,0.1,2.4,0.1c1.3,0,1.8-0.3,1.8-1.4
	C129.6,344.1,129.3,343.6,128.5,343.5L128.5,343.5z"/>
<path class="st2" d="M282.6,339.5V333h-1.8l-1.6,0.6l0.2,1.1l1.5-0.3c-0.1,0.3-0.1,0.5-0.1,0.8v4.3H282.6z M278.1,337.9
	c-0.5,0-0.6,0.1-0.6,0.6v0.4c0,0.5,0.1,0.6,0.6,0.6h0.4c0.5,0,0.6-0.1,0.6-0.6v-0.4c0-0.5-0.1-0.6-0.6-0.6H278.1z M274.4,338.4
	c-0.8,0-0.8-0.2-0.8-1.7c0.3-0.2,0.5-0.2,0.8-0.2c0.6,0,0.8,0.2,0.8,0.9C275.2,338.1,275.2,338.4,274.4,338.4 M276.4,333.1
	c-0.7-0.2-1.3-0.2-1.7-0.2c-1.9,0-2.8,0.5-2.8,3.4c0,2.6,0.6,3.3,2.5,3.3c2,0,2.4-0.8,2.4-2.4c0-1.4-0.4-2-1.9-2
	c-0.6,0-1,0.1-1.3,0.4c0-1.2,0.3-1.4,1.1-1.4c0.8,0,1.1,0,1.6,0L276.4,333.1z M270.7,339.5V333H269l-1.6,0.6l0.2,1.1l1.5-0.3
	c-0.1,0.3-0.1,0.5-0.1,0.8v4.3H270.7z"/>
<path class="st2" d="M291.9,326.6c0-0.2,0.1-0.4,0.4-0.4h1v0.6c-0.3,0.2-0.6,0.3-0.9,0.3c-0.3,0-0.5-0.1-0.5-0.4V326.6z
	 M290.6,324.8c0.8,0,1.5-0.1,2-0.1c0.5,0,0.6,0.1,0.6,0.5v0.1h-1.6c-0.9,0-1.5,0.5-1.5,1.2v0.5c0,0.9,0.7,1.3,1.6,1.3
	c0.8,0,1.3-0.4,1.7-0.8l0.2,0.7h1.4v-3c0-1.4-0.7-1.8-2-1.8c-0.7,0-1.9,0.1-2.6,0.2L290.6,324.8z M289.9,324.9v-1.3h-4.7v1.3h1.5
	v3.4h1.7v-3.4H289.9z M281.5,326.6c0-0.2,0.1-0.4,0.4-0.4h1v0.6c-0.3,0.2-0.6,0.3-0.9,0.3c-0.3,0-0.5-0.1-0.5-0.4V326.6z
	 M280.3,324.8c0.8,0,1.5-0.1,2-0.1c0.5,0,0.6,0.1,0.6,0.5v0.1h-1.6c-0.9,0-1.5,0.5-1.5,1.2v0.5c0,0.9,0.7,1.3,1.6,1.3
	c0.8,0,1.3-0.4,1.7-0.8l0.2,0.7h1.4v-3c0-1.4-0.7-1.8-2-1.8c-0.7,0-1.9,0.1-2.6,0.2L280.3,324.8z M279.1,323.6h-1.7v1.6H276v-1.6
	h-1.7v4.7h1.7v-1.9h1.4v1.9h1.7V323.6z M271.2,323.6c-0.4,0-0.6,0.2-0.6,0.5l-0.4,1.7c0,0.2-0.1,0.5-0.1,0.7H270
	c0-0.2,0-0.5-0.1-0.7l-0.4-1.7c-0.1-0.3-0.3-0.5-0.6-0.5h-1.4c-0.4,0-0.6,0.2-0.6,0.6l-0.1,4.1h1.5l0.1-3.4h0.1l0.6,2.3
	c0.1,0.3,0.3,0.5,0.7,0.5h0.8c0.4,0,0.6-0.2,0.6-0.5l0.6-2.3h0.1l0.1,3.4h1.5l-0.1-4.1c0-0.4-0.2-0.6-0.6-0.6H271.2z M263.4,324.6
	c0.6,0,0.7,0.2,0.7,1.3c0,1-0.2,1.3-0.7,1.3c-0.6,0-0.7-0.2-0.7-1.3C262.7,324.9,262.8,324.6,263.4,324.6 M263.4,323.4
	c-1.8,0-2.5,0.7-2.5,2.5c0,1.8,0.7,2.4,2.5,2.4c1.8,0,2.5-0.6,2.5-2.4C265.9,324.1,265.2,323.4,263.4,323.4 M258.7,325.8
	c1.1-0.2,1-0.3,1.6-2.2h-1.7c-0.4,1.6-0.4,1.7-1.1,1.7h-0.2c0-0.2,0.1-0.4,0.1-0.6v-1.1h-1.7v4.7h1.7v-1.5c0-0.1,0-0.2-0.1-0.4h0.4
	c0.5,0,0.5,0.1,1,1.9h1.8C259.8,326,259.8,326,258.7,325.8L258.7,325.8z"/>
<path class="st2" d="M288.9,314.4h-0.7c-0.4,0-0.5-0.1-0.5-0.6c0-0.3,0.1-0.4,0.5-0.4h0.7V314.4z M287,315c-0.3,0-0.8,0.1-0.9,0.5
	l-0.4,1.5h1.7l0.3-1.3c0-0.2,0.1-0.3,0.4-0.3h0.6v1.5h1.7v-4.7c-0.6-0.1-1.1-0.1-2.4-0.1c-1.7,0-2.1,0.3-2.1,1.5
	C286,314.2,286.3,314.8,287,315L287,315z M282.1,315.3c0-0.2,0.1-0.4,0.4-0.4h1v0.6c-0.3,0.2-0.6,0.3-0.9,0.3
	c-0.3,0-0.5-0.1-0.5-0.4V315.3z M280.8,313.5c0.8,0,1.5-0.1,2-0.1c0.5,0,0.6,0.1,0.6,0.5v0.1h-1.6c-0.9,0-1.5,0.5-1.5,1.2v0.5
	c0,0.9,0.7,1.3,1.6,1.3c0.8,0,1.3-0.4,1.7-0.8l0.2,0.7h1.4v-3c0-1.4-0.7-1.8-2-1.8c-0.7,0-1.9,0.1-2.6,0.2L280.8,313.5z
	 M279.6,312.3h-2.8c-0.8,0-1.2,0.4-1.3,1.2c-0.1,0.9-0.1,1.5-0.2,1.8c-0.1,0.4-0.4,0.4-0.8,0.4l0.2,1.3c1,0.2,2-0.1,2.1-1.2
	c0.1-0.5,0.2-1.2,0.3-2c0-0.3,0.2-0.4,0.4-0.4h0.4v3.5h1.7V312.3z M273.9,317v-4.7h-1.5l-1.5,2.2c-0.1,0.2-0.3,0.4-0.4,0.7h0
	c0-0.3,0.1-0.5,0.1-0.7v-2.2h-1.5v4.7h1.5l1.5-2.1c0.1-0.2,0.3-0.5,0.4-0.8h0c0,0.3-0.1,0.6-0.1,0.8v2.1H273.9z M266.3,313.5
	c1.3-0.2,1.3-0.8,2-3.1h-1.8c-0.6,1.9-0.7,2.5-1.3,2.5h-0.3c0-0.3,0.1-0.5,0.1-0.8v-1.7h-1.7v1.7c0,0.3,0,0.5,0.1,0.8H263
	c-0.6,0-0.7-0.6-1.3-2.5h-1.8c0.7,2.3,0.7,2.9,2,3.1v0.1c-1.3,0.2-1.4,0.7-2.2,3.4h1.8c0.7-2.4,0.8-2.8,1.4-2.8h0.3
	c0,0.2-0.1,0.4-0.1,0.6v2.2h1.7v-2.2c0-0.2,0-0.4-0.1-0.6h0.3c0.7,0,0.7,0.4,1.4,2.8h1.9C267.7,314.3,267.6,313.8,266.3,313.5
	L266.3,313.5z"/>
<path class="st2" d="M153.6,304.1v-6.5h-1.8l-1.6,0.6l0.2,1.1l1.5-0.3c-0.1,0.3-0.1,0.5-0.1,0.8v4.3H153.6z M149.1,302.5
	c-0.5,0-0.6,0.1-0.6,0.6v0.4c0,0.5,0.1,0.6,0.6,0.6h0.4c0.5,0,0.6-0.1,0.6-0.6v-0.4c0-0.5-0.1-0.6-0.6-0.6H149.1z M147.4,304.1v-6.5
	h-1.8l-1.6,0.6l0.2,1.1l1.5-0.3c-0.1,0.3-0.1,0.5-0.1,0.8v4.3H147.4z M143.1,304.1v-6.5h-1.8l-1.6,0.6l0.2,1.1l1.5-0.3
	c-0.1,0.3-0.1,0.5-0.1,0.8v4.3H143.1z"/>
<path class="st2" d="M168.9,290.3h-0.7c-0.4,0-0.5-0.1-0.5-0.6c0-0.3,0.1-0.4,0.5-0.4h0.7V290.3z M167,290.9c-0.3,0-0.8,0.1-0.9,0.5
	l-0.4,1.5h1.8l0.3-1.3c0-0.2,0.1-0.3,0.4-0.3h0.6v1.5h1.7v-4.7c-0.6-0.1-1.1-0.1-2.4-0.1c-1.7,0-2.1,0.3-2.1,1.5
	C166,290.1,166.3,290.7,167,290.9L167,290.9z M162.1,291.2c0-0.2,0.1-0.4,0.4-0.4h1v0.6c-0.3,0.2-0.6,0.3-0.9,0.3
	c-0.3,0-0.5-0.1-0.5-0.4V291.2z M160.8,289.4c0.8,0,1.5-0.1,2-0.1c0.5,0,0.6,0.1,0.7,0.5v0.1h-1.6c-0.9,0-1.5,0.5-1.5,1.2v0.5
	c0,0.9,0.7,1.3,1.6,1.3c0.8,0,1.3-0.4,1.7-0.8l0.2,0.7h1.4v-3c0-1.4-0.7-1.8-2-1.8c-0.7,0-1.9,0.1-2.6,0.2L160.8,289.4z
	 M158.2,290.4c1.1-0.1,1.1-0.3,1.7-2.2h-1.7c-0.5,1.5-0.5,1.7-1,1.7h-0.3c0-0.2,0.1-0.4,0.1-0.6v-1.1h-1.5v1.1c0,0.2,0,0.4,0.1,0.6
	h-0.3c-0.5,0-0.5-0.2-1-1.7h-1.7c0.6,1.9,0.6,2.1,1.7,2.2v0c-1.1,0.2-1.1,0.2-1.8,2.4h1.7c0.6-1.8,0.6-1.9,1-1.9h0.4
	c0,0.1-0.1,0.3-0.1,0.4v1.5h1.5v-1.5c0-0.1,0-0.3,0-0.4h0.3h0.1c0.4,0,0.5,0.1,1,1.9h1.7C159.3,290.7,159.3,290.6,158.2,290.4
	L158.2,290.4z M149.4,289.2c0.6,0,0.7,0.2,0.7,1.3c0,1-0.2,1.3-0.7,1.3c-0.6,0-0.7-0.2-0.7-1.3C148.7,289.5,148.9,289.2,149.4,289.2
	 M149.4,288c-1.8,0-2.5,0.7-2.5,2.5c0,1.8,0.7,2.4,2.5,2.4c1.8,0,2.5-0.6,2.5-2.4C152,288.7,151.3,288,149.4,288 M145,292.8h1.7
	l-1.4-2.4l1.3-2.3h-1.7l-0.9,1.8l-0.9-1.8h-1.7l1.3,2.3l-1.4,2.4h1.7l1-1.9L145,292.8z M140.7,292.9v-4.7h-1.5l-1.5,2.2
	c-0.1,0.2-0.3,0.4-0.4,0.7h0c0-0.3,0.1-0.5,0.1-0.7v-2.2h-1.5v4.7h1.5l1.5-2.1c0.1-0.2,0.3-0.5,0.4-0.8h0c0,0.3-0.1,0.6-0.1,0.8v2.1
	H140.7z M131.8,289.6c0.3-0.2,0.5-0.3,0.9-0.3c0.4,0,0.6,0.2,0.6,1.2c0,1.1-0.2,1.2-0.7,1.2c-0.3,0-0.6-0.1-0.8-0.2V289.6z
	 M131.5,288.2h-1.4v6.4h1.7v-1c0-0.3,0-0.7,0-1c0.4,0.3,0.9,0.4,1.5,0.4c1.2,0,1.8-0.5,1.8-2.4c0-1.6-0.5-2.5-1.7-2.5
	c-0.7,0-1.5,0.3-1.8,0.8L131.5,288.2z M129,286.4h-5.4v6.5h1.8v-5.3h1.9v5.3h1.8V286.4z"/>
<path class="st2" d="M244.6,251.3c0.7,0,0.9,0.3,0.9,2c0,1.7-0.2,2-0.9,2c-0.7,0-0.9-0.3-0.9-2C243.7,251.6,243.9,251.3,244.6,251.3
	 M244.7,249.9c-2,0-2.6,0.8-2.6,3.4c0,2.5,0.7,3.4,2.6,3.4c2,0,2.7-0.8,2.7-3.4C247.3,250.8,246.6,249.9,244.7,249.9 M240.2,255
	c-0.5,0-0.6,0.1-0.6,0.6v0.4c0,0.5,0.1,0.6,0.6,0.6h0.4c0.5,0,0.6-0.1,0.6-0.6v-0.4c0-0.5-0.1-0.6-0.6-0.6H240.2z M238.7,251.4
	l0.1-1.3h-4.1l-0.2,2.9c0,0.3,0.2,0.5,0.5,0.6l1,0.1c0.9,0.1,1.2,0.2,1.2,0.8c0,0.5-0.2,0.7-1.1,0.7c-0.5,0-1.1,0-1.7-0.1l-0.2,1.3
	c0.8,0.1,1.7,0.2,2.3,0.2c1.8,0,2.4-0.9,2.4-2.1c0-1-0.4-2-1.9-2.1l-1.1-0.1l0.1-0.9H238.7z M233.2,256.6v-6.5h-1.8l-1.6,0.6
	l0.2,1.1l1.5-0.3c-0.1,0.3-0.1,0.5-0.1,0.8v4.3H233.2z"/>
<path class="st2" d="M255.3,243.6c0-0.2,0.1-0.4,0.4-0.4h1v0.6c-0.3,0.2-0.6,0.3-0.9,0.3c-0.3,0-0.5-0.1-0.5-0.4V243.6z
	 M254.1,241.8c0.8,0,1.5-0.1,2-0.1c0.5,0,0.6,0.1,0.6,0.5v0.1h-1.6c-0.9,0-1.5,0.5-1.5,1.2v0.5c0,0.9,0.7,1.3,1.6,1.3
	c0.8,0,1.3-0.4,1.7-0.8l0.2,0.7h1.4v-3c0-1.4-0.7-1.8-2-1.8c-0.7,0-1.9,0.1-2.6,0.2L254.1,241.8z M253.3,241.9v-1.3h-4.7v1.3h1.5
	v3.4h1.7v-3.4H253.3z M244.9,243.6c0-0.2,0.1-0.4,0.4-0.4h1v0.6c-0.3,0.2-0.6,0.3-0.9,0.3c-0.3,0-0.5-0.1-0.5-0.4V243.6z
	 M243.7,241.8c0.8,0,1.5-0.1,2-0.1c0.5,0,0.6,0.1,0.6,0.5v0.1h-1.6c-0.9,0-1.5,0.5-1.5,1.2v0.5c0,0.9,0.7,1.3,1.6,1.3
	c0.8,0,1.3-0.4,1.7-0.8l0.2,0.7h1.4v-3c0-1.4-0.7-1.8-2-1.8c-0.7,0-1.9,0.1-2.6,0.2L243.7,241.8z M242.5,240.6h-1.7v1.6h-1.4v-1.6
	h-1.7v4.7h1.7v-1.9h1.4v1.9h1.7V240.6z M234.6,240.6c-0.4,0-0.6,0.2-0.6,0.5l-0.4,1.7c0,0.2-0.1,0.5-0.1,0.7h-0.1
	c0-0.2,0-0.5-0.1-0.7l-0.4-1.7c-0.1-0.3-0.3-0.5-0.6-0.5h-1.4c-0.4,0-0.6,0.2-0.6,0.6l-0.1,4.1h1.5l0.1-3.4h0.1l0.6,2.3
	c0.1,0.3,0.3,0.5,0.7,0.5h0.8c0.4,0,0.6-0.2,0.6-0.5l0.6-2.3h0.1l0.1,3.4h1.5l-0.1-4.1c0-0.4-0.2-0.6-0.6-0.6H234.6z M226.8,241.7
	c0.6,0,0.7,0.2,0.7,1.3c0,1-0.2,1.3-0.7,1.3c-0.6,0-0.7-0.2-0.7-1.3C226.1,241.9,226.2,241.7,226.8,241.7 M226.8,240.5
	c-1.8,0-2.5,0.7-2.5,2.5c0,1.8,0.7,2.4,2.5,2.4c1.8,0,2.5-0.6,2.5-2.4C229.3,241.1,228.6,240.5,226.8,240.5 M222.1,242.8
	c1.1-0.2,1-0.3,1.6-2.2H222c-0.4,1.6-0.4,1.7-1.1,1.7h-0.2c0-0.2,0.1-0.4,0.1-0.6v-1.1h-1.7v4.7h1.7v-1.5c0-0.1,0-0.2-0.1-0.4h0.4
	c0.5,0,0.5,0.1,1,1.9h1.8C223.2,243.1,223.2,243,222.1,242.8L222.1,242.8z"/>
<path class="st2" d="M252.3,231.4h-0.7c-0.4,0-0.5-0.1-0.5-0.6c0-0.3,0.1-0.4,0.5-0.4h0.7V231.4z M250.4,232c-0.3,0-0.8,0.1-0.9,0.5
	l-0.4,1.5h1.7l0.3-1.3c0-0.2,0.1-0.3,0.4-0.3h0.6v1.5h1.7v-4.7c-0.6-0.1-1.1-0.1-2.4-0.1c-1.7,0-2.1,0.3-2.1,1.5
	C249.4,231.3,249.7,231.8,250.4,232L250.4,232z M245.5,232.4c0-0.2,0.1-0.4,0.4-0.4h1v0.6c-0.3,0.2-0.6,0.3-0.9,0.3
	c-0.3,0-0.5-0.1-0.5-0.4V232.4z M244.2,230.5c0.8,0,1.5-0.1,2-0.1c0.5,0,0.6,0.1,0.6,0.5v0.1h-1.6c-0.9,0-1.5,0.5-1.5,1.2v0.5
	c0,0.9,0.7,1.3,1.6,1.3c0.8,0,1.3-0.4,1.7-0.8l0.2,0.7h1.4v-3c0-1.4-0.7-1.8-2-1.8c-0.7,0-1.9,0.1-2.6,0.2L244.2,230.5z M243,229.3
	h-2.8c-0.8,0-1.2,0.4-1.3,1.2c-0.1,0.9-0.1,1.5-0.2,1.8c-0.1,0.4-0.4,0.4-0.8,0.4l0.2,1.3c1,0.2,2-0.1,2.1-1.2
	c0.1-0.5,0.2-1.2,0.3-2c0-0.3,0.2-0.4,0.4-0.4h0.4v3.5h1.7V229.3z M237.3,234v-4.7h-1.5l-1.5,2.2c-0.1,0.2-0.3,0.4-0.4,0.7h0
	c0-0.3,0.1-0.5,0.1-0.7v-2.2h-1.5v4.7h1.5l1.5-2.1c0.1-0.2,0.3-0.5,0.4-0.8h0c0,0.3-0.1,0.6-0.1,0.8v2.1H237.3z M229.7,230.6
	c1.3-0.2,1.3-0.8,2-3.1h-1.8c-0.6,1.9-0.7,2.5-1.3,2.5h-0.3c0-0.3,0.1-0.5,0.1-0.8v-1.7h-1.7v1.7c0,0.3,0,0.5,0.1,0.8h-0.3
	c-0.6,0-0.7-0.6-1.3-2.5h-1.8c0.7,2.3,0.7,2.9,2,3.1v0.1c-1.3,0.2-1.4,0.7-2.2,3.4h1.8c0.7-2.4,0.8-2.8,1.4-2.8h0.3
	c0,0.2-0.1,0.4-0.1,0.6v2.2h1.7v-2.2c0-0.2,0-0.4-0.1-0.6h0.3c0.7,0,0.7,0.4,1.4,2.8h1.9C231.1,231.3,231,230.8,229.7,230.6
	L229.7,230.6z"/>
<path class="st2" d="M133,233.2c0-0.8,0.1-1.1,0.7-1.1c0.7,0,0.8,0.3,0.8,1.7c-0.3,0.2-0.5,0.2-0.8,0.2
	C133.1,234,133,233.8,133,233.2 M131.6,237.4c0.8,0.2,1.4,0.2,1.8,0.2c2.1,0,2.8-0.5,2.8-3.4c0-2.6-0.4-3.3-2.5-3.3
	c-1.9,0-2.4,0.7-2.4,2.4c0,1.2,0.4,2,1.9,2c0.6,0,1-0.1,1.3-0.4c0,1.1-0.3,1.4-1.1,1.4c-0.8,0-1.1,0-1.7,0L131.6,237.4z
	 M129.6,235.8c-0.5,0-0.6,0.1-0.6,0.6v0.4c0,0.5,0.1,0.6,0.6,0.6h0.4c0.5,0,0.6-0.1,0.6-0.6v-0.4c0-0.5-0.1-0.6-0.6-0.6H129.6z
	 M123.6,232.4c0.9,0,1.4,0,2,0c0.5,0,0.7,0,0.7,0.3c0,0.4-0.4,1-1.2,1.7l-1.5,1.5c-0.2,0.2-0.2,0.4-0.2,0.7v0.9h4.8v-1.5h-1.9
	c-0.3,0-0.6,0-0.9,0.1l1.6-1.6c0.9-0.9,1-1.3,1-2c0-1.3-0.9-1.6-2.3-1.6c-0.7,0-1.4,0-2.3,0.2L123.6,232.4z M122.3,237.4v-6.5h-1.8
	l-1.6,0.6l0.2,1.1l1.5-0.3c-0.1,0.3-0.1,0.5-0.1,0.8v4.3H122.3z"/>
<path class="st2" d="M144.4,224.5c0-0.2,0.1-0.4,0.4-0.4h1v0.6c-0.3,0.2-0.6,0.3-0.9,0.3c-0.3,0-0.5-0.1-0.5-0.4V224.5z
	 M143.1,222.7c0.8,0,1.5-0.1,2-0.1c0.5,0,0.6,0.1,0.6,0.5v0.1h-1.6c-0.9,0-1.5,0.5-1.5,1.2v0.5c0,0.9,0.7,1.3,1.6,1.3
	c0.8,0,1.3-0.4,1.7-0.8l0.2,0.7h1.4v-3c0-1.4-0.7-1.8-2-1.8c-0.7,0-1.9,0.1-2.6,0.2L143.1,222.7z M142.3,222.8v-1.3h-4.7v1.3h1.5
	v3.4h1.7v-3.4H142.3z M134,224.5c0-0.2,0.1-0.4,0.4-0.4h1v0.6c-0.3,0.2-0.6,0.3-0.9,0.3c-0.3,0-0.5-0.1-0.5-0.4V224.5z M132.7,222.7
	c0.8,0,1.5-0.1,2-0.1c0.5,0,0.6,0.1,0.6,0.5v0.1h-1.6c-0.9,0-1.5,0.5-1.5,1.2v0.5c0,0.9,0.7,1.3,1.6,1.3c0.8,0,1.3-0.4,1.7-0.8
	l0.2,0.7h1.4v-3c0-1.4-0.7-1.8-2-1.8c-0.7,0-1.9,0.1-2.6,0.2L132.7,222.7z M131.5,221.5h-1.7v1.6h-1.4v-1.6h-1.7v4.7h1.7v-1.9h1.4
	v1.9h1.7V221.5z M123.6,221.5c-0.4,0-0.6,0.2-0.6,0.5l-0.4,1.7c0,0.2-0.1,0.5-0.1,0.7h-0.1c0-0.2,0-0.5-0.1-0.7l-0.4-1.7
	c-0.1-0.3-0.3-0.5-0.6-0.5h-1.4c-0.4,0-0.6,0.2-0.6,0.6l-0.1,4.1h1.5l0.1-3.4h0.1l0.6,2.3c0.1,0.3,0.3,0.5,0.7,0.5h0.8
	c0.4,0,0.6-0.2,0.6-0.5l0.6-2.3h0.1l0.1,3.4h1.5l-0.1-4.1c0-0.4-0.2-0.6-0.6-0.6H123.6z M115.8,222.5c0.6,0,0.7,0.2,0.7,1.3
	c0,1-0.2,1.3-0.7,1.3c-0.6,0-0.7-0.2-0.7-1.3C115.1,222.8,115.3,222.5,115.8,222.5 M115.8,221.3c-1.8,0-2.5,0.7-2.5,2.5
	c0,1.8,0.7,2.4,2.5,2.4c1.8,0,2.5-0.6,2.5-2.4C118.4,222,117.7,221.3,115.8,221.3 M111.2,223.7c1.1-0.2,1-0.3,1.6-2.2h-1.7
	c-0.4,1.6-0.4,1.7-1.1,1.7h-0.2c0-0.2,0.1-0.4,0.1-0.6v-1.1h-1.7v4.7h1.7v-1.5c0-0.1,0-0.2-0.1-0.4h0.4c0.5,0,0.5,0.1,1,1.9h1.8
	C112.3,223.9,112.3,223.9,111.2,223.7L111.2,223.7z"/>
<path class="st2" d="M141.3,212.3h-0.7c-0.4,0-0.5-0.1-0.5-0.6c0-0.3,0.1-0.4,0.5-0.4h0.7V212.3z M139.5,212.9
	c-0.3,0-0.8,0.1-0.9,0.5l-0.4,1.5h1.7l0.3-1.3c0-0.2,0.1-0.3,0.4-0.3h0.6v1.5h1.7v-4.7c-0.6-0.1-1.1-0.1-2.4-0.1
	c-1.7,0-2.1,0.3-2.1,1.5C138.5,212.1,138.7,212.7,139.5,212.9L139.5,212.9z M134.5,213.2c0-0.2,0.1-0.4,0.4-0.4h1v0.6
	c-0.3,0.2-0.6,0.3-0.9,0.3c-0.3,0-0.5-0.1-0.5-0.4V213.2z M133.2,211.4c0.8,0,1.5-0.1,2-0.1c0.5,0,0.6,0.1,0.6,0.5v0.1h-1.6
	c-0.9,0-1.5,0.5-1.5,1.2v0.5c0,0.9,0.7,1.3,1.6,1.3c0.8,0,1.3-0.4,1.7-0.8l0.2,0.7h1.4v-3c0-1.4-0.7-1.8-2-1.8
	c-0.7,0-1.9,0.1-2.6,0.2L133.2,211.4z M132.1,210.2h-2.8c-0.8,0-1.2,0.4-1.3,1.2c-0.1,0.9-0.1,1.5-0.2,1.8c-0.1,0.4-0.4,0.4-0.8,0.4
	l0.2,1.3c1,0.2,2-0.1,2.1-1.2c0.1-0.5,0.2-1.2,0.3-2c0-0.3,0.2-0.4,0.4-0.4h0.4v3.5h1.7V210.2z M126.3,214.9v-4.7h-1.5l-1.5,2.2
	c-0.1,0.2-0.3,0.4-0.4,0.7h0c0-0.3,0.1-0.5,0.1-0.7v-2.2h-1.5v4.7h1.5l1.5-2.1c0.1-0.2,0.3-0.5,0.4-0.8h0c0,0.3-0.1,0.6-0.1,0.8v2.1
	H126.3z M118.7,211.4c1.3-0.2,1.3-0.8,2-3.1h-1.8c-0.6,1.9-0.7,2.5-1.3,2.5h-0.3c0-0.3,0.1-0.5,0.1-0.8v-1.7h-1.7v1.7
	c0,0.3,0,0.5,0.1,0.8h-0.3c-0.6,0-0.7-0.6-1.3-2.5h-1.8c0.7,2.3,0.7,2.9,2,3.1v0.1c-1.3,0.2-1.4,0.7-2.2,3.4h1.8
	c0.7-2.4,0.8-2.8,1.4-2.8h0.3c0,0.2-0.1,0.4-0.1,0.6v2.2h1.7v-2.2c0-0.2,0-0.4-0.1-0.6h0.3c0.7,0,0.7,0.4,1.4,2.8h1.9
	C120.1,212.2,120.1,211.7,118.7,211.4L118.7,211.4z"/>
<path class="st2" d="M60.9,217.9l0.1-1.3h-4.1l-0.2,2.9c0,0.3,0.2,0.5,0.5,0.6l1,0.1c0.9,0.1,1.2,0.2,1.2,0.8c0,0.5-0.2,0.7-1.1,0.7
	c-0.5,0-1.1,0-1.7-0.1l-0.2,1.3c0.8,0.1,1.7,0.2,2.3,0.2c1.8,0,2.4-0.9,2.4-2.1c0-1-0.4-2-1.9-2.1l-1.1-0.1l0.1-0.9H60.9z
	 M54.8,221.5c-0.5,0-0.6,0.1-0.6,0.6v0.4c0,0.5,0.1,0.6,0.6,0.6h0.4c0.5,0,0.6-0.1,0.6-0.6v-0.4c0-0.5-0.1-0.6-0.6-0.6H54.8z
	 M53.2,217.9l0.1-1.3h-4.1l-0.2,2.9c0,0.3,0.2,0.5,0.5,0.6l1,0.1c0.9,0.1,1.2,0.2,1.2,0.8c0,0.5-0.2,0.7-1.1,0.7
	c-0.5,0-1.1,0-1.7-0.1l-0.2,1.3c0.8,0.1,1.7,0.2,2.3,0.2c1.8,0,2.4-0.9,2.4-2.1c0-1-0.4-2-1.9-2.1l-1.1-0.1l0.1-0.9H53.2z"/>
<path class="st2" d="M64.1,210.2c0-0.2,0.1-0.4,0.4-0.4h1v0.6c-0.3,0.2-0.6,0.3-0.9,0.3c-0.3,0-0.5-0.1-0.5-0.4V210.2z M62.8,208.4
	c0.8,0,1.5-0.1,2-0.1c0.5,0,0.6,0.1,0.6,0.5v0.1h-1.6c-0.9,0-1.5,0.5-1.5,1.2v0.5c0,0.9,0.7,1.3,1.6,1.3c0.8,0,1.3-0.4,1.7-0.8
	l0.2,0.7h1.4v-3c0-1.4-0.7-1.8-2-1.8c-0.7,0-1.9,0.1-2.6,0.2L62.8,208.4z M61.6,207.2H60v3.5h-1.1v-3.5h-1.5v3.5h-1.1v-3.5h-1.6v4.7
	h7V207.2z M53.6,211.8v-4.7h-1.5l-1.5,2.2c-0.1,0.2-0.3,0.4-0.4,0.7h0c0-0.3,0.1-0.5,0.1-0.7v-2.2h-1.5v4.7h1.5l1.5-2.1
	c0.1-0.2,0.3-0.5,0.4-0.8h0c0,0.3-0.1,0.6-0.1,0.8v2.1H53.6z M47.7,207.2H46v1.6h-1.4v-1.6h-1.7v4.7h1.7v-1.9H46v1.9h1.7V207.2z"/>
<path class="st2" d="M70.6,197.6h-2.8v1h2.8V197.6z M65.2,198h-0.7c-0.4,0-0.5-0.1-0.5-0.6c0-0.3,0.1-0.4,0.5-0.4h0.7V198z
	 M63.3,198.6c-0.3,0-0.8,0.1-0.9,0.5l-0.4,1.5h1.7l0.3-1.3c0-0.2,0.1-0.3,0.4-0.3h0.6v1.5h1.7v-4.7c-0.6-0.1-1.1-0.1-2.4-0.1
	c-1.7,0-2.1,0.3-2.1,1.5C62.3,197.8,62.5,198.4,63.3,198.6L63.3,198.6z M61.4,195.9h-1.7v1.6h-1.4v-1.6h-1.7v4.7h1.7v-1.9h1.4v1.9
	h1.7V195.9z M54.4,200.5h1.7l-1.4-2.4l1.3-2.3h-1.7l-0.9,1.7l-0.9-1.7h-1.7l1.3,2.3l-1.4,2.4h1.7l1-1.9L54.4,200.5z M50.5,195.9
	h-1.8l-0.7,2.8c0,0.2-0.1,0.5-0.2,0.8h-0.1c0-0.3-0.1-0.5-0.1-0.8l-0.7-2.8h-1.8l1.4,4.3c0.1,0.2,0.3,0.4,0.5,0.4h0.3
	c-0.1,0.2-0.3,0.5-0.5,0.6c-0.3,0.2-0.7,0.2-1.3,0.2l-0.1,1.1c0.7,0.1,1.4,0.1,1.9-0.1c0.7-0.3,1.3-0.7,1.6-1.8L50.5,195.9z
	 M42.9,197.1c1.3-0.2,1.3-0.8,2-3.1h-1.8c-0.5,1.9-0.6,2.5-1.5,2.5h-0.3c0-0.3,0.1-0.5,0.1-0.8v-1.7h-1.8v6.5h1.8v-2.2
	c0-0.2,0-0.4-0.1-0.6h0.3c0.9,0,1,0.4,1.6,2.8h1.8C44.3,197.9,44.2,197.4,42.9,197.1L42.9,197.1z"/>
<path class="st2" d="M147.4,143.2c0.9,0,1.4,0,2,0c0.5,0,0.7,0,0.7,0.3c0,0.4-0.4,1-1.2,1.7l-1.5,1.5c-0.2,0.2-0.2,0.4-0.2,0.7v0.9
	h4.8v-1.5h-1.9c-0.3,0-0.6,0-0.9,0.1l1.6-1.6c0.9-0.9,1-1.3,1-2c0-1.3-0.9-1.6-2.3-1.6c-0.7,0-1.4,0-2.3,0.2L147.4,143.2z
	 M145.5,146.7c-0.5,0-0.6,0.1-0.6,0.6v0.4c0,0.5,0.1,0.6,0.6,0.6h0.4c0.5,0,0.6-0.1,0.6-0.6v-0.4c0-0.5-0.1-0.6-0.6-0.6H145.5z
	 M141.8,147.1c-0.8,0-0.8-0.2-0.8-1.7c0.3-0.2,0.5-0.2,0.8-0.2c0.6,0,0.8,0.2,0.8,0.9C142.6,146.8,142.6,147.1,141.8,147.1
	 M143.8,141.9c-0.7-0.2-1.3-0.2-1.7-0.2c-1.9,0-2.8,0.5-2.8,3.4c0,2.6,0.6,3.3,2.5,3.3c2,0,2.4-0.8,2.4-2.4c0-1.4-0.4-2-1.9-2
	c-0.6,0-1,0.1-1.3,0.4c0-1.2,0.3-1.4,1.1-1.4c0.8,0,1.1,0,1.6,0L143.8,141.9z M134.8,145.7h-0.7c-0.4,0-0.5-0.1-0.5-0.6
	c0-0.3,0.1-0.4,0.5-0.4h0.7V145.7z M132.9,146.3c-0.3,0-0.8,0.1-0.9,0.5l-0.4,1.5h1.7l0.3-1.3c0-0.2,0.1-0.3,0.4-0.3h0.6v1.5h1.7
	v-4.7c-0.6-0.1-1.1-0.1-2.4-0.1c-1.7,0-2.1,0.3-2.1,1.5C131.9,145.6,132.1,146.1,132.9,146.3L132.9,146.3z M131,148.3v-4.7h-1.5
	l-1.5,2.2c-0.1,0.2-0.3,0.4-0.4,0.7h0c0-0.3,0.1-0.5,0.1-0.7v-2.2h-1.5v4.7h1.5l1.5-2.1c0.1-0.2,0.3-0.5,0.4-0.8h0
	c0,0.3-0.1,0.6-0.1,0.8v2.1H131z M123.7,145.8c1.1-0.1,1.1-0.3,1.7-2.2h-1.7c-0.5,1.5-0.5,1.7-1,1.7h-0.3c0-0.2,0.1-0.4,0.1-0.6
	v-1.1H121v1.1c0,0.2,0,0.4,0.1,0.6h-0.3c-0.5,0-0.5-0.2-1-1.7H118c0.6,1.9,0.6,2.1,1.7,2.2v0c-1.1,0.2-1.1,0.2-1.8,2.4h1.7
	c0.6-1.8,0.6-1.9,1-1.9h0.4c0,0.1-0.1,0.3-0.1,0.4v1.5h1.5v-1.5c0-0.1,0-0.3,0-0.4h0.3h0.1c0.4,0,0.5,0.1,1,1.9h1.7
	C124.9,146.1,124.8,146,123.7,145.8L123.7,145.8z M115.2,147.2h-1.4c0.2-0.5,0.4-1.2,0.5-2.1c0-0.3,0.2-0.4,0.4-0.4h0.4V147.2z
	 M117.6,147.2h-0.8v-3.5h-2.6c-0.8,0-1.3,0.4-1.4,1.1c-0.1,0.8-0.3,1.6-0.6,2.4h-0.6v2.4h1.1l0.1-1.3h3.3l0.1,1.3h1.1V147.2z
	 M108.9,144.7c0.6,0,0.7,0.2,0.7,1.3c0,1-0.2,1.3-0.7,1.3c-0.6,0-0.7-0.2-0.7-1.3C108.2,144.9,108.3,144.7,108.9,144.7 M108.9,143.5
	c-1.8,0-2.5,0.7-2.5,2.5c0,1.8,0.7,2.4,2.5,2.4c1.8,0,2.5-0.6,2.5-2.4C111.4,144.2,110.7,143.5,108.9,143.5 M105.5,141.8h-3
	c-1,0-1.6,0.5-1.6,1.5c-0.1,1.5-0.2,2.4-0.4,3c-0.2,0.5-0.5,0.6-0.9,0.6l0.1,1.4c1.1,0.2,2-0.2,2.4-1.5c0.3-0.8,0.4-2,0.5-3.3
	c0-0.3,0.2-0.5,0.5-0.5h0.6v5.3h1.8V141.8z"/>
<path class="st2" d="M323,213.5c0.9,0,1.4,0,2,0c0.5,0,0.7,0,0.7,0.3c0,0.4-0.4,1-1.2,1.7l-1.5,1.5c-0.2,0.2-0.2,0.4-0.2,0.7v0.9
	h4.8v-1.5h-1.9c-0.3,0-0.6,0-0.9,0.1l1.6-1.6c0.9-0.9,1-1.3,1-2c0-1.3-0.9-1.6-2.3-1.6c-0.7,0-1.4,0-2.3,0.2L323,213.5z M321.2,217
	c-0.5,0-0.6,0.1-0.6,0.6v0.4c0,0.5,0.1,0.6,0.6,0.6h0.4c0.5,0,0.6-0.1,0.6-0.6v-0.4c0-0.5-0.1-0.6-0.6-0.6H321.2z M315.3,213.4
	c0.5,0,1.1,0,1.8,0c0.7,0,0.8,0.1,0.8,0.6c0,0.4-0.1,0.7-0.8,0.7H316v1.1l1.2,0c0.7,0,0.8,0.2,0.8,0.8c0,0.7-0.2,0.8-1.1,0.8
	c-0.6,0-1,0-1.8-0.1l-0.1,1.3c0.7,0.1,1.6,0.2,2.3,0.2c1.7,0,2.4-0.6,2.3-1.9c0-1-0.3-1.5-1.2-1.6v0c0.8-0.1,1-0.7,1-1.6
	c0-1.2-0.6-1.5-2.2-1.5c-0.7,0-1.4,0.1-2.2,0.2L315.3,213.4z"/>
<path class="st2" d="M238,384h-15.9 M221.8,383.7h16.6"/>
<path class="st7" d="M222.1,384 M238,384 M221.8,383.7h16.6"/>
<path class="st2" d="M32.1,245.6H48v-15.9H32.1V245.6z M31.8,229.4h16.6v16.6H31.8V229.4z"/>
<path class="st7" d="M32.1,245.6H48v-15.9H32.1V245.6z M31.8,229.4h16.6v16.6H31.8V229.4z"/>
<path class="st2" d="M46.5,232.1c0-0.4-0.3-0.7-0.7-0.7h-8.3c-0.4,0-0.7,0.3-0.7,0.7v11.1c0,0.4,0.3,0.7,0.7,0.7h8.3
	c0.4,0,0.7-0.3,0.7-0.7V232.1z M36.4,243.2v-11.1c0-0.6,0.5-1.1,1.1-1.1h8.3c0.6,0,1.1,0.5,1.1,1.1v11.1c0,0.6-0.5,1.1-1.1,1.1h-8.3
	C36.9,244.3,36.4,243.8,36.4,243.2"/>
<path class="st7" d="M46.5,232.1c0-0.4-0.3-0.7-0.7-0.7h-8.3c-0.4,0-0.7,0.3-0.7,0.7v11.1c0,0.4,0.3,0.7,0.7,0.7h8.3
	c0.4,0,0.7-0.3,0.7-0.7V232.1z M36.4,243.2v-11.1c0-0.6,0.5-1.1,1.1-1.1h8.3c0.6,0,1.1,0.5,1.1,1.1v11.1c0,0.6-0.5,1.1-1.1,1.1h-8.3
	C36.9,244.3,36.4,243.8,36.4,243.2z"/>
<path class="st2" d="M38,242.7h7.3v-10.1H38V242.7z M37.7,232.3h8V243h-8V232.3z"/>
<path class="st7" d="M38,242.7h7.3v-10.1H38V242.7z M37.7,232.3h8V243h-8V232.3z"/>
<path class="st2" d="M43.1,237.7c0-0.5-0.4-0.9-0.9-0.9s-0.9,0.4-0.9,0.9c0,0.5,0.4,0.9,0.9,0.9S43.1,238.2,43.1,237.7 M40.9,237.7
	c0-0.7,0.6-1.3,1.3-1.3s1.3,0.6,1.3,1.3c0,0.7-0.6,1.3-1.3,1.3S40.9,238.4,40.9,237.7"/>
<path class="st7" d="M43.1,237.7c0-0.5-0.4-0.9-0.9-0.9s-0.9,0.4-0.9,0.9c0,0.5,0.4,0.9,0.9,0.9S43.1,238.2,43.1,237.7z M40.9,237.7
	c0-0.7,0.6-1.3,1.3-1.3s1.3,0.6,1.3,1.3c0,0.7-0.6,1.3-1.3,1.3S40.9,238.4,40.9,237.7z"/>
<rect x="121.5" y="363.2" class="st3" width="17" height="15.2"/>
<path class="st2" d="M254,210c1.7,0,2.1,0.7,2.1,4.6c0,3.9-0.5,4.6-2.1,4.6c-1.6,0-2-0.7-2-4.6C251.9,210.7,252.4,210,254,210
	 M254,207c-4.5,0-6,1.9-6,7.7c0,5.8,1.5,7.7,6,7.7c4.5,0,6.1-1.9,6.1-7.7C260.1,208.9,258.5,207,254,207 M243.9,218.4
	c-1,0-1.4,0.3-1.4,1.4v0.9c0,1,0.3,1.4,1.4,1.4h0.9c1,0,1.4-0.3,1.4-1.4v-0.9c0-1-0.3-1.4-1.4-1.4H243.9z M241.1,216.3h-1.8v-6.1h-3
	l-0.6,2.3v3.8h-2.9c-0.3,0-0.6-0.2-0.4-0.6l3.2-8.4h-3.8l-3.7,9.4c-0.5,1.2,0.3,2.3,1.6,2.3h5.9v3.1h3.7V219h0l1.7-0.4V216.3z
	 M217,207.3l0.2,3.2h6.4c-0.3,0.5-0.5,1.1-0.7,1.6l-3.6,10h4l4.5-12.9c0.4-1.1-0.3-2-1.5-2H217z"/>
<ellipse transform="matrix(0.3827 -0.9239 0.9239 0.3827 -28.2175 338.8416)" class="st8" cx="239.4" cy="190.5" rx="13.2" ry="13.2"/>
<path class="st2" d="M248.4,193.7c-1,0.1-2,0.1-3.5,0.1c-1.3,0-1.7-0.7-1.7-3.2c0-2.5,0.4-3.2,1.7-3.2c1.5,0,2.2,0,3.3,0l0.2-2.2
	c-1.1-0.3-1.9-0.4-3.5-0.4c-3.6,0-4.9,1.5-4.9,5.8c0,4.3,1.3,5.8,4.9,5.8c1.7,0,2.7-0.1,3.8-0.5L248.4,193.7z M230.8,187.2
	c0.8,0,2,0,3.1,0c1.1,0,1.5,0.1,1.5,1.1c0,0.8-0.1,1.2-1.3,1.2h-2.1v2l2.1,0c1.2,0,1.5,0.4,1.5,1.3c0,1.1-0.4,1.4-1.9,1.4
	c-1,0-1.7,0-3.1-0.1l-0.1,2.2c1.3,0.2,2.7,0.3,4,0.3c3,0,4.1-1,4-3.4c0-1.7-0.5-2.6-2.1-2.8v-0.1c1.4-0.2,1.8-1.2,1.8-2.8
	c0-2-1-2.6-3.8-2.6c-1.2,0-2.5,0.1-3.8,0.3L230.8,187.2z"/>
<polygon class="st9" points="123.4,257.8 124,256.8 138.4,265.5 137.8,266.4 "/>
<polygon class="st9" points="116.2,257.8 115.6,256.8 101.2,265.5 101.8,266.4 "/>
<path class="st9" d="M124,256.5c0,0-1.7,2.4-2.9,6c-1,2.8-1.2,6.3-1.2,6.3"/>
<path class="st9" d="M115.7,256.5c0,0,1.7,2.4,2.9,6c1,2.8,1.2,6.3,1.2,6.3"/>
<rect x="139.9" y="166.5" transform="matrix(0.8661 -0.4999 0.4999 0.8661 -63.2736 97.9432)" class="st3" width="22.4" height="1"/>
<path class="st10" d="M141.8,173.4c0,0-1.6-1.8-3-5.7c-1.3-3.5-1.4-7.4-1.4-7.4"/>
<rect x="287.8" y="213.4" transform="matrix(0.4999 -0.8661 0.8661 0.4999 -35.7932 365.9462)" class="st3" width="22.4" height="1"/>
<path class="st10" d="M292.7,223.3c0,0,1.8,1.6,5.7,3c3.5,1.3,7.4,1.4,7.4,1.4"/>
<rect x="183.1" y="262.1" transform="matrix(0.866 -0.5 0.5 0.866 -105.275 132.3596)" class="st3" width="22.4" height="1"/>
<path class="st10" d="M203.7,256.3c0,0,1.6,1.8,3,5.7c1.3,3.5,1.4,7.4,1.4,7.4"/>
<rect x="224" y="283.6" transform="matrix(0.866 -0.5 0.5 0.866 -117.3246 151.7615)" class="st3" width="1" height="22.4"/>
<path class="st10" d="M230.9,304.2c0,0-1.8,1.6-5.7,3c-3.5,1.3-7.4,1.4-7.4,1.4"/>
<rect x="120.7" y="317.5" transform="matrix(0.866 -0.5 0.5 0.866 -141.3554 108.5779)" class="st3" width="22.4" height="1"/>
<path class="st10" d="M141.3,311.7c0,0,1.6,1.8,3,5.7c1.3,3.5,1.4,7.4,1.4,7.4"/>
<rect x="84.7" y="331.9" transform="matrix(0.8661 -0.5 0.5 0.8661 -153.3439 92.4825)" class="st3" width="22.4" height="1"/>
<path class="st10" d="M86.6,338.7c0,0-1.6-1.8-3-5.7c-1.3-3.5-1.4-7.4-1.4-7.4"/>
<rect x="58.3" y="292.1" transform="matrix(0.5 -0.866 0.866 0.5 -218.624 206.5388)" class="st3" width="22.4" height="1"/>
<path class="st10" d="M75.9,283.3c0,0-1.8-1.6-5.7-3c-3.5-1.3-7.4-1.4-7.4-1.4"/>
<rect x="202.9" y="308.1" transform="matrix(0.5 -0.866 0.866 0.5 -172.6548 334.6224)" class="st3" width="1" height="17.5"/>
<path class="st10" d="M196.2,311.7c0,0-1.6,1.8-3,5.7c-1.3,3.5-1.4,7.4-1.4,7.4"/>
<rect x="77.2" y="324.8" class="st2" width="5.2" height="3.4"/>
<line class="st3" x1="24.4" y1="245.8" x2="24.4" y2="174"/>
<line class="st11" x1="78.5" y1="265.3" x2="78.5" y2="173.2"/>
</svg>
