<?xml version="1.0" standalone="no"?>
<!DOCTYPE svg PUBLIC "-//W3C//DTD SVG 1.1//EN" "http://www.w3.org/Graphics/SVG/1.1/DTD/svg11.dtd" >
<svg xmlns="http://www.w3.org/2000/svg" xmlns:xlink="http://www.w3.org/1999/xlink" version="1.1">
<metadata>
Created by FontForge 20170731 at Thu Sep 22 17:43:48 2022
 By Aleksey,,,
Copyright 2015 The Finlandica Project Authors (https://github.com/HelsinkiTypeStudio/Finlandica)
</metadata>
<defs>
<font id="Finlandica-Medium" horiz-adv-x="583" >
  <font-face 
    font-family="Finlandica Medium"
    font-weight="500"
    font-stretch="normal"
    units-per-em="1000"
    panose-1="0 0 0 0 0 0 0 0 0 0"
    ascent="800"
    descent="-200"
    x-height="504"
    cap-height="700"
    bbox="-80 -326 1062 996"
    underline-thickness="50"
    underline-position="-175"
    unicode-range="U+0020-FB02"
  />
<missing-glyph horiz-adv-x="600" 
 />
    <glyph glyph-name="fi" unicode="fi" horiz-adv-x="616" 
d="M122 0v413h-96v91h96v74q0 49 23 89t69.5 63t114.5 23q46 0 84 -14.5t65 -38.5l-43 -77q-20 22 -44.5 32.5t-50.5 10.5q-56 0 -84.5 -22.5t-28.5 -62.5v-77h115v-91h-115v-413h-105zM431 0v413h-108v91h216v-504h-108zM431 591v109h108v-109h-108z" />
    <glyph glyph-name="fl" unicode="fl" horiz-adv-x="639" 
d="M122 0v413h-96v91h96v74q0 49 21.5 89.5t64 63.5t104.5 23q44 0 84 -16.5t66 -48.5l-29 -75q-23 29 -53.5 40.5t-59.5 11.5q-44 0 -68.5 -22.5t-24.5 -62.5v-77h121v-91h-121v-413h-105zM545 0q-52 0 -84 31.5t-32 81.5v637h106v-627q0 -13 7 -21t20 -8h46v-94h-63z" />
    <glyph glyph-name="f_f" unicode="ff" horiz-adv-x="691" 
d="M438 0v413h-96v91h96v77q0 49 23 87.5t69 61.5t115 23q47 0 87 -14t68 -37l-39 -75q-23 20 -49.5 29.5t-55.5 9.5q-56 0 -84.5 -22.5t-28.5 -62.5v-77h115v-91h-115v-413h-105zM122 0v413h-96v91h96v64q0 49 23 89t69.5 63t114.5 23q49 0 90 -14t69 -37l-33 -85
q-25 25 -54.5 37t-60.5 12q-56 0 -84.5 -22.5t-28.5 -62.5v-67h115v-91h-115v-413h-105z" />
    <glyph glyph-name="f_f_i" unicode="ffi" horiz-adv-x="924" 
d="M122 0v413h-96v91h96v64q0 49 23 89t69.5 63t114.5 23q49 0 90 -14t69 -37l-33 -85q-25 25 -54.5 37t-60.5 12q-56 0 -84.5 -22.5t-28.5 -62.5v-67h115v-91h-115v-413h-105zM438 0v413h-96v91h96v77q0 50 23 89t69 61t115 22q46 0 84 -14.5t65 -38.5l-40 -73
q-21 20 -46 29.5t-52 9.5q-56 0 -84.5 -22.5t-28.5 -62.5v-77h115v-91h-115v-413h-105zM739 0v413h-108v91h216v-504h-108zM739 591v109h108v-109h-108z" />
    <glyph glyph-name="f_f_l" unicode="ffl" horiz-adv-x="943" 
d="M122 0v413h-96v91h96v64q0 49 23 89t69.5 63t114.5 23q49 0 90 -14t69 -37l-33 -85q-25 25 -54.5 37t-60.5 12q-56 0 -84.5 -22.5t-28.5 -62.5v-67h115v-91h-115v-413h-105zM438 0v413h-96v91h96v77q0 50 21.5 89t64 61t103.5 22q43 0 81.5 -16t62.5 -46l-29 -75
q-22 27 -50.5 38.5t-55.5 11.5q-44 0 -68.5 -22.5t-24.5 -62.5v-77h122v-91h-122v-413h-105zM849 0q-52 0 -84 31.5t-32 81.5v637h105v-627q0 -13 7.5 -21t19.5 -8h47v-94h-63z" />
    <glyph glyph-name=".notdef" horiz-adv-x="600" 
 />
    <glyph glyph-name=".null" horiz-adv-x="0" 
 />
    <glyph glyph-name="nonmarkingreturn" horiz-adv-x="333" 
 />
    <glyph glyph-name="space" unicode=" " horiz-adv-x="276" 
 />
    <glyph glyph-name="exclam" unicode="!" horiz-adv-x="277" 
d="M97 218l-22 482h127l-22 -482h-83zM82 0v115h114v-115h-114z" />
    <glyph glyph-name="quotedbl" unicode="&#x22;" horiz-adv-x="405" 
d="M66 421v329h90v-329h-90zM250 421v329h90v-329h-90z" />
    <glyph glyph-name="numbersign" unicode="#" horiz-adv-x="750" 
d="M107 388v92h139l99 220h114l-98 -220h115l99 220h114l-72 -156l-39 -45q-6 -7 -3 -13t13 -6h109v-92h-590zM61 0l71 156l40 45q6 7 3 13t-14 6h-108v92h589v-92h-139l-99 -220h-113l98 220h-116l-99 -220h-113z" />
    <glyph glyph-name="dollar" unicode="$" horiz-adv-x="536" 
d="M229 -150v195h98v-195h-98zM229 667v183h98v-183h-98zM255 -10q-62 0 -115 17.5t-95 48.5l37 92q38 -28 80 -42.5t89 -14.5q62 0 95 30t33 81q0 42 -24 72.5t-78 36.5l-43 5q-55 6 -97 29.5t-65 63.5t-23 97q0 60 28 106.5t81.5 72.5t129.5 26q52 0 99.5 -14t83.5 -39
l-32 -89q-36 23 -74 32.5t-75 9.5q-66 0 -99 -28t-33 -70q0 -44 24 -66.5t66 -26.5l45 -5q94 -11 144 -66t50 -142q0 -65 -27.5 -114.5t-79 -76t-125.5 -26.5z" />
    <glyph glyph-name="percent" unicode="%" horiz-adv-x="700" 
d="M91 0l266 454l117 246h134l-264 -449l-119 -251h-134zM171 360q-54 0 -84 26t-42.5 66.5t-12.5 83.5t12.5 82.5t42.5 65t84 25.5t84 -25.5t42.5 -65t12.5 -82.5q0 -46 -12.5 -86t-43 -65t-83.5 -25zM171 446q35 0 45 26t10 61q0 38 -10 64t-45 26t-45 -26t-10 -64
q0 -39 10.5 -63t44.5 -24zM528 -10q-53 0 -83 26t-42.5 66.5t-12.5 83.5t12.5 82.5t42.5 65t83 25.5q55 0 85 -25.5t42.5 -65t12.5 -82.5q0 -46 -12.5 -86t-43 -65t-84.5 -25zM528 76q36 0 46 26t10 61q0 38 -10 64t-46 26q-34 0 -44 -26t-10 -64q0 -39 10.5 -63t43.5 -24z
" />
    <glyph glyph-name="ampersand" unicode="&#x26;" horiz-adv-x="679" 
d="M341 -12q-57 0 -107.5 11.5t-89 36.5t-60.5 64t-22 92q0 44 15 74.5t39 51.5t51 34q-37 18 -65.5 57t-28.5 101q0 56 22.5 94.5t58 62t77.5 34t81 10.5q45 0 79.5 -5.5t64.5 -18.5t60 -35l-35 -91q-33 27 -74 38.5t-91 11.5q-64 0 -99.5 -28t-35.5 -79q0 -50 28.5 -77.5
t79.5 -27.5h50v-97h-50q-58 0 -88.5 -26.5t-30.5 -75.5q0 -54 44 -82t127 -28q41 0 78 7t59 21v184h-70v96h241v-96h-70v-246q-45 -30 -101.5 -48.5t-136.5 -19.5z" />
    <glyph glyph-name="quotesingle" unicode="'" horiz-adv-x="222" 
d="M66 421v329h90v-329h-90z" />
    <glyph glyph-name="parenleft" unicode="(" horiz-adv-x="439" 
d="M312 -163q-100 27 -149 86.5t-61 156.5q-6 67 -9 135.5t-3 134.5q0 67 3 135t9 135q12 97 61 156.5t149 86.5l37 -93q-71 -18 -104 -60t-38 -110q-4 -75 -6.5 -136t-2.5 -114t2.5 -114t6.5 -137q5 -67 38 -109t104 -60z" />
    <glyph glyph-name="parenright" unicode=")" horiz-adv-x="439" 
d="M126 -163l-36 93q71 18 104 60t37 109q5 76 7 137t2 114t-2 114t-7 136q-4 68 -37 110t-104 60l36 93q100 -27 150 -86.5t60 -156.5q7 -67 10 -135t3 -135q0 -66 -3 -134.5t-10 -135.5q-10 -97 -60 -156.5t-150 -86.5z" />
    <glyph glyph-name="asterisk" unicode="*" horiz-adv-x="518" 
d="M170 359l-53 34l96 136h-167v57h167l-96 136l53 35l68 -103l10 -36q5 -10 11.5 -10t10.5 10l11 37l67 102l53 -35l-96 -136h167v-57h-167l96 -136l-53 -34l-67 101l-11 35q-4 10 -10.5 10t-11.5 -10l-11 -35z" />
    <glyph glyph-name="plus" unicode="+" horiz-adv-x="588" 
d="M246 106v196h-196v96h196v196h96v-196h196v-96h-196v-196h-96z" />
    <glyph glyph-name="comma" unicode="," horiz-adv-x="290" 
d="M-4 -198l11 56q65 8 100 45.5t37 96.5h-69v118h132v-97q0 -68 -27.5 -115t-75.5 -73t-108 -31z" />
    <glyph glyph-name="hyphen" unicode="-" horiz-adv-x="338" 
d="M50 212v96h238v-96h-238z" />
    <glyph glyph-name="period" unicode="." horiz-adv-x="278" 
d="M82 0v120h113v-120h-113z" />
    <glyph glyph-name="slash" unicode="/" horiz-adv-x="485" 
d="M30 0l312 700h113l-310 -700h-115z" />
    <glyph glyph-name="zero" unicode="0" horiz-adv-x="612" 
d="M306 -12q-53 0 -98 16t-78 50q-22 23 -39.5 56t-27 90t-9.5 150t9.5 150t27 90.5t39.5 55.5q33 34 78 50t98 16t98 -16t77 -50q23 -22 40 -55.5t26.5 -90.5t9.5 -150t-9.5 -150t-26.5 -90t-40 -56q-32 -34 -77 -50t-98 -16zM306 89q66 0 103.5 38t41.5 101q3 34 4 63
t1 59q0 31 -1 60t-4 62q-4 64 -41.5 101.5t-103.5 37.5q-67 0 -104.5 -37.5t-40.5 -101.5q-3 -33 -4.5 -62t-1.5 -60q0 -30 1.5 -59t4.5 -63q3 -63 40.5 -101t104.5 -38zM258 262v176h96v-176h-96z" />
    <glyph glyph-name="one" unicode="1" horiz-adv-x="490" 
d="M53 0v97h153v499h-160v59l274 57l-1 -615h149v-97h-415z" />
    <glyph glyph-name="two" unicode="2" horiz-adv-x="521" 
d="M50 0v123q0 84 38.5 141.5t121.5 93.5l68 28q46 18 69 46.5t23 73.5q0 35 -17 58.5t-44.5 35t-63.5 11.5q-41 0 -82.5 -10t-79.5 -36l-34 89q50 34 99 45t102 11q38 0 78 -11t73.5 -35t54 -62t20.5 -92q0 -81 -37 -130t-105 -78l-70 -30q-47 -21 -69.5 -46.5t-29.5 -49.5
t-7 -43v-31h316v-102h-424z" />
    <glyph glyph-name="three" unicode="3" horiz-adv-x="519" 
d="M245 -9q-63 0 -114.5 17t-98.5 58l36 92q36 -35 78 -51t88 -16q67 0 99 28.5t32 79.5q0 47 -29.5 75t-89.5 28h-88v96h88q55 0 82 28.5t27 77.5q0 50 -32 78.5t-90 28.5q-38 0 -79.5 -10t-74.5 -36l-34 89q47 32 93.5 44.5t99.5 12.5q37 0 76 -11t72.5 -34.5t54.5 -62
t21 -93.5q0 -43 -14 -74.5t-37 -52.5t-50 -32q29 -10 54.5 -31.5t41.5 -53t16 -74.5q0 -54 -20 -92.5t-53 -62.5t-73.5 -35t-81.5 -11z" />
    <glyph glyph-name="four" unicode="4" horiz-adv-x="548" 
d="M371 0v189h-339v53l209 458h117l-193 -417h206v217h107v-500h-107z" />
    <glyph glyph-name="five" unicode="5" horiz-adv-x="529" 
d="M238 -9q-60 0 -107.5 16t-84.5 45l35 92q32 -30 76 -42.5t78 -12.5q67 0 108 35t40 98q0 58 -39 91.5t-101 33.5q-32 0 -60 -10t-57 -33l-51 40v356h379v-91h-276v-181q0 -8 5.5 -10.5t13.5 1.5l31 17q9 4 18.5 4.5t16.5 0.5q67 0 118 -27.5t80 -77.5t29 -118
q0 -69 -31 -120t-87.5 -79t-133.5 -28z" />
    <glyph glyph-name="six" unicode="6" horiz-adv-x="566" 
d="M284 -12q-74 0 -128 29t-84 81t-30 121q0 36 8.5 70t29 74.5t55.5 97.5l150 239h129l-186 -270q-7 -10 -3 -16t15 0l45 24q9 1 16.5 2t15.5 1q51 0 98.5 -25t78 -74.5t30.5 -122.5q0 -69 -30 -121t-84 -81t-126 -29zM284 87q62 0 98.5 36t35.5 96q0 60 -36.5 96t-97.5 36
q-62 0 -98.5 -36t-37.5 -96q0 -60 36.5 -96t99.5 -36z" />
    <glyph glyph-name="seven" unicode="7" horiz-adv-x="558" 
d="M89 0l145 303h-163v96h209l98 201h-327v100h452v-64l-83 -176l-35 -43q-6 -7 -3 -12.5t12 -5.5h117v-96h-168l-145 -303h-109z" />
    <glyph glyph-name="eight" unicode="8" horiz-adv-x="573" 
d="M289 -12q-75 0 -130.5 26t-86 72t-30.5 107q0 47 23.5 87t65.5 62l34 5q11 1 12 7t-9 10q-52 25 -78 65.5t-26 88.5q0 57 27 100.5t77 68.5t118 25q69 0 120 -25t78.5 -70t27.5 -104q0 -38 -19.5 -72.5t-50.5 -55.5l-30 -6q-10 -1 -10.5 -7t9.5 -10q58 -24 88.5 -69.5
t30.5 -98.5q0 -62 -29 -108t-83 -72t-129 -26zM290 80q62 0 98 30t35 83q0 48 -46 81.5t-125 45.5q-51 -12 -77 -45t-26 -78q1 -55 38.5 -86t102.5 -31zM316 403q43 9 66.5 38.5t22.5 72.5q-1 51 -33 79.5t-86 28.5t-84.5 -27t-30.5 -75q1 -47 40 -77t105 -40z" />
    <glyph glyph-name="nine" unicode="9" horiz-adv-x="566" 
d="M153 0l185 270q7 10 3.5 16t-15.5 0l-45 -24l-16 -2t-15 -1q-51 0 -99 25t-78.5 75t-30.5 122q0 70 30.5 121.5t84.5 80.5t126 29q73 0 127.5 -29t84 -80.5t29.5 -121.5q0 -36 -8 -70t-28.5 -74.5t-56.5 -97.5l-150 -239h-128zM283 349q61 0 98 36t37 96q1 60 -36 96
t-99 36t-98.5 -36t-36.5 -96t36.5 -96t98.5 -36z" />
    <glyph glyph-name="colon" unicode=":" horiz-adv-x="278" 
d="M92 0v120h113v-120h-113zM92 384v120h113v-120h-113z" />
    <glyph glyph-name="semicolon" unicode=";" horiz-adv-x="290" 
d="M-4 -198l11 56q65 8 100 45.5t37 96.5h-69v118h132v-97q0 -68 -27.5 -115t-75.5 -73t-108 -31zM82 384v120h113v-120h-113z" />
    <glyph glyph-name="less" unicode="&#x3c;" horiz-adv-x="540" 
d="M490 120l-440 179v119l440 182v-101l-338 -131q-7 -3 -7.5 -8.5t7.5 -8.5l338 -127v-104z" />
    <glyph glyph-name="equal" unicode="=" horiz-adv-x="548" 
d="M50 413v91h448v-91h-448zM50 196v91h448v-91h-448z" />
    <glyph glyph-name="greater" unicode="&#x3e;" horiz-adv-x="540" 
d="M50 120v104l338 127q8 3 8 8.5t-8 8.5l-338 131v101l440 -182v-119z" />
    <glyph glyph-name="question" unicode="?" horiz-adv-x="495" 
d="M146 218q-4 18 -6 30.5t-2 23.5q0 46 22.5 74.5t71.5 49.5l46 21q24 11 42.5 30.5t18.5 63.5q0 37 -17.5 58.5t-45.5 31.5t-61 10t-57.5 -5t-45 -14.5t-43.5 -22.5l-33 89q39 25 84 39t98 14q64 0 116 -23.5t82.5 -68.5t30.5 -112q0 -53 -19 -86.5t-48 -54t-60 -35.5
l-36 -17q-23 -10 -37.5 -23.5t-14.5 -41.5v-31h-86zM132 0v112h114v-112h-114z" />
    <glyph glyph-name="at" unicode="@" horiz-adv-x="708" 
d="M380 -120q-74 0 -133.5 21t-102.5 65.5t-65.5 116.5t-22.5 174q0 118 35.5 202t104 129t168.5 45q90 0 148.5 -33t87 -90t28.5 -128v-158l41 -69l-84 -49l-34 48q-8 11 -18 3q-24 -21 -50.5 -35t-69.5 -14q-72 0 -114 40.5t-42 104.5q0 47 21.5 79t59 48.5t86.5 16.5h101
q-3 40 -20.5 70t-51.5 47.5t-86 17.5q-65 0 -110 -28t-69 -88.5t-24 -159.5t27.5 -160.5t76.5 -89t114 -27.5q49 0 85.5 12.5t73.5 36.5l47 -78q-48 -35 -97.5 -52.5t-110.5 -17.5zM428 195q46 0 73 24t27 64v32q0 17 -18 12l-48 -12h-34q-33 0 -51.5 -15t-18.5 -42
q0 -28 19 -45.5t51 -17.5z" />
    <glyph glyph-name="A" unicode="A" 
d="M30 0l186 700h160l187 -700h-114l-137 544l-8 57q-1 7 -7.5 7t-7.5 -7l-8 -57l-137 -544h-114zM165 177l25 96h213l25 -96h-263zM106 605v95h133l-8 -95h-125z" />
    <glyph glyph-name="B" unicode="B" horiz-adv-x="574" 
d="M82 0v700h226q97 0 150.5 -49.5t53.5 -140.5q0 -53 -24.5 -92.5t-67.5 -59.5q51 -17 79.5 -61t28.5 -104q0 -92 -55.5 -142.5t-156.5 -50.5h-234zM186 94h130q52 0 80 26.5t28 75.5t-28 78.5t-80 29.5h-130v-210zM186 397h122q48 0 74 29t26 78q0 48 -26 75t-74 27h-122
v-209z" />
    <glyph glyph-name="C" unicode="C" horiz-adv-x="503" 
d="M310 -12q-72 0 -126.5 26.5t-86.5 77.5t-37 124q-2 29 -4 66t-2 68q0 32 2 68.5t4 65.5q5 73 36.5 124t85 77.5t124.5 26.5q46 0 85.5 -15t75.5 -44l-32 -89q-29 23 -58.5 34.5t-64.5 11.5q-64 0 -100 -35t-40 -100q-2 -35 -3.5 -64t-1.5 -61q0 -31 1.5 -60t3.5 -65
q5 -66 40 -100.5t98 -33.5q36 0 66 12t58 34l33 -92q-35 -28 -73.5 -42.5t-83.5 -14.5z" />
    <glyph glyph-name="D" unicode="D" horiz-adv-x="597" 
d="M82 0v700h191q125 0 190 -62t74 -168q2 -27 3.5 -59t1.5 -61t-1.5 -61t-3.5 -59q-8 -106 -73.5 -168t-190.5 -62h-191zM194 95h79q79 0 115.5 42t41.5 107q3 32 3.5 55t0.5 51t-0.5 50.5t-3.5 55.5q-5 65 -41.5 107t-115.5 42h-79v-510z" />
    <glyph glyph-name="E" unicode="E" horiz-adv-x="552" 
d="M82 0v700h414v-102h-310v-199h293v-98h-293v-199h310v-102h-414z" />
    <glyph glyph-name="F" unicode="F" horiz-adv-x="525" 
d="M82 0v700h407v-102h-294v-197h272v-102h-272v-299h-113z" />
    <glyph glyph-name="G" unicode="G" horiz-adv-x="599" 
d="M315 -11q-115 -1 -180 57.5t-75 167.5q-2 29 -4 67t-2 69q0 32 1.5 69.5t3.5 66.5q12 114 81 170t182 56q109 0 183 -61l-35 -92q-33 28 -68.5 39.5t-79.5 11.5q-73 0 -111.5 -35t-43.5 -105q-2 -32 -3.5 -60.5t-1.5 -59.5t1.5 -59.5t3.5 -64.5q5 -63 41.5 -98.5
t102.5 -36.5q25 0 50.5 3.5t40.5 10.5v194h-76v102h247v-102h-69v-256q-35 -25 -80 -39t-109 -15z" />
    <glyph glyph-name="H" unicode="H" horiz-adv-x="628" 
d="M82 0v700h113v-299h237v299h114v-700h-114v299h-237v-299h-113z" />
    <glyph glyph-name="I" unicode="I" horiz-adv-x="431" 
d="M50 0v97h109v506h-109v97h331v-97h-109v-506h109v-97h-331z" />
    <glyph glyph-name="J" unicode="J" horiz-adv-x="460" 
d="M172 -12q-43 0 -85.5 14.5t-76.5 43.5l34 92q16 -16 36.5 -26.5t44.5 -15.5t47 -5q45 -1 71 22t26 67v422h-152v98h264v-520q0 -91 -56.5 -141.5t-152.5 -50.5z" />
    <glyph glyph-name="K" unicode="K" horiz-adv-x="557" 
d="M82 0v700h111v-301h68l148 301h121l-175 -342l174 -358h-120l-148 302h-68v-302h-111z" />
    <glyph glyph-name="L" unicode="L" horiz-adv-x="449" 
d="M82 0v700h113v-598h228v-102h-341z" />
    <glyph glyph-name="M" unicode="M" horiz-adv-x="676" 
d="M82 0v700h94l152 -288q4 -7 10.5 -7t9.5 7l153 288h93v-700h-107v391l11 73q2 7 -3.5 9.5t-10.5 -5.5l-122 -217h-51l-119 217q-4 8 -9.5 5.5t-4.5 -9.5l12 -73v-391h-108z" />
    <glyph glyph-name="N" unicode="N" horiz-adv-x="630" 
d="M82 0v700h93l263 -483q5 -7 10.5 -4t4.5 10l-13 75v402h108v-700h-100l-255 465q-4 8 -10 6t-5 -10l12 -75v-386h-108z" />
    <glyph glyph-name="O" unicode="O" horiz-adv-x="612" 
d="M306 -12q-53 0 -98 16t-78 50q-22 23 -39.5 56t-27 90t-9.5 150t9.5 150t27 90.5t39.5 55.5q33 34 78 50t98 16t98 -16t77 -50q23 -22 40 -55.5t26.5 -90.5t9.5 -150t-9.5 -150t-26.5 -90t-40 -56q-32 -34 -77 -50t-98 -16zM306 91q61 0 95 34.5t38 93.5q2 38 3.5 69
t1.5 62q0 32 -1.5 63t-3.5 68q-4 59 -38 93.5t-95 34.5q-62 0 -96 -34.5t-37 -93.5q-3 -37 -4.5 -68t-1.5 -63q0 -31 1.5 -62t4.5 -69q3 -59 37 -93.5t96 -34.5z" />
    <glyph glyph-name="P" unicode="P" horiz-adv-x="564" 
d="M82 0v700h250q93 0 147.5 -55t54.5 -149q0 -91 -54.5 -144t-147.5 -53h-139v-299h-111zM193 394h133q47 0 74 28t27 75q0 52 -27 80.5t-74 28.5h-133v-212z" />
    <glyph glyph-name="Q" unicode="Q" horiz-adv-x="612" 
d="M410 -117l-54 109q-11 -2 -24 -3t-26 -1q-53 0 -98 16t-78 50q-22 23 -39.5 56t-27 90t-9.5 150t9.5 150t27 90.5t39.5 55.5q33 34 78 50t98 16t98 -16t77 -50q23 -22 40 -55.5t26.5 -90.5t9.5 -150t-9.5 -150t-26.5 -90t-40 -56q-7 -8 -16 -14.5t-18 -12.5l54 -103z
M301 87h10t10 1q10 2 11 9.5t-6 12.5l-40 31l-40 86l87 40l69 -141q19 16 29 40t12 53q2 38 3.5 69t1.5 62q0 32 -1.5 63t-3.5 68q-4 60 -39 94.5t-98 34.5t-98 -34.5t-39 -94.5q-3 -37 -4.5 -68t-1.5 -63t1.5 -63.5t4.5 -68.5q2 -38 18 -68t45 -46.5t69 -16.5z" />
    <glyph glyph-name="R" unicode="R" horiz-adv-x="578" 
d="M82 0v700h241q103 0 160.5 -53t57.5 -150q0 -69 -34.5 -117.5t-95.5 -68.5q-15 -4 -5 -19l31 -49l89 -243h-117l-109 299h-106v-299h-112zM193 394h132q52 0 81.5 27t29.5 76q0 52 -29.5 80.5t-81.5 28.5h-132v-212z" />
    <glyph glyph-name="S" unicode="S" horiz-adv-x="510" 
d="M245 -10q-62 0 -115 17.5t-95 48.5l37 92q38 -28 80 -42.5t89 -14.5q62 0 95 30t33 81q0 42 -24 72.5t-78 36.5l-43 5q-55 6 -97 29.5t-65 63.5t-23 97q0 60 28 106.5t81.5 72.5t129.5 26q52 0 99.5 -14t83.5 -39l-32 -89q-36 23 -74 32.5t-75 9.5q-66 0 -99 -28t-33 -70
q0 -44 24 -66.5t66 -26.5l45 -5q94 -11 144 -66t50 -142q0 -65 -27.5 -114.5t-79 -76t-125.5 -26.5z" />
    <glyph glyph-name="T" unicode="T" horiz-adv-x="497" 
d="M191 0v598h-165v102h445v-102h-166v-598h-114z" />
    <glyph glyph-name="U" unicode="U" horiz-adv-x="607" 
d="M303 -10q-67 0 -118.5 27.5t-80.5 76.5t-29 113v493h114l-1 -494q0 -51 32 -82.5t83 -31.5t83 31.5t32 82.5v494h114l-2 -493q0 -64 -28.5 -113t-79.5 -76.5t-119 -27.5z" />
    <glyph glyph-name="V" unicode="V" horiz-adv-x="546" 
d="M191 0l-171 700h114l123 -534l8 -68q1 -7 7.5 -7t7.5 7l7 68l126 534h113l-174 -700h-161z" />
    <glyph glyph-name="W" unicode="W" horiz-adv-x="625" 
d="M124 0l-97 700h100l63 -422l1 -73q0 -10 6.5 -10.5t8.5 7.5l75 302h63l75 -302q2 -8 8.5 -8t6.5 11l1 73l63 422h100l-97 -700h-106l-73 285q-2 10 -9 10t-10 -10l-74 -285h-105z" />
    <glyph glyph-name="X" unicode="X" horiz-adv-x="541" 
d="M20 0l169 352l-169 348h123l107 -235l13 -55q2 -7 7.5 -7t7.5 7l12 55l107 235h124l-170 -348l170 -352h-124l-107 239l-12 55q-2 7 -7.5 7t-7.5 -7l-13 -55l-107 -239h-123z" />
    <glyph glyph-name="Y" unicode="Y" horiz-adv-x="492" 
d="M190 0v301l-190 399h120l107 -233l12 -56q2 -6 7.5 -6t7.5 6l13 56l106 233h119l-190 -399v-301h-112z" />
    <glyph glyph-name="Z" unicode="Z" horiz-adv-x="519" 
d="M41 0v68l270 484l34 41q4 5 2.5 9t-7.5 4h-192v-76h-101v170h431v-68l-267 -475l-33 -41q-5 -5 -3.5 -9.5t7.5 -4.5h296v-102h-437z" />
    <glyph glyph-name="bracketleft" unicode="[" horiz-adv-x="395" 
d="M90 -159v1011h215v-89h-109v-833h109v-89h-215z" />
    <glyph glyph-name="backslash" unicode="\" horiz-adv-x="485" 
d="M340 0l-310 700h113l312 -700h-115z" />
    <glyph glyph-name="bracketright" unicode="]" horiz-adv-x="395" 
d="M90 -159v89h110v833h-110v89h215v-1011h-215z" />
    <glyph glyph-name="asciicircum" unicode="^" horiz-adv-x="482" 
d="M22 350l153 400h129l156 -400h-113l-87 257l-12 52q-2 8 -8 8t-8 -8l-10 -52l-86 -257h-114z" />
    <glyph glyph-name="underscore" unicode="_" horiz-adv-x="548" 
d="M87 -250v70h374v-70h-374z" />
    <glyph glyph-name="grave" unicode="`" horiz-adv-x="326" 
d="M166 591l-116 159h111l115 -159h-110z" />
    <glyph glyph-name="a" unicode="a" horiz-adv-x="497" 
d="M372 -12l-33 47q-8 11 -17 2q-24 -20 -51.5 -33.5t-70.5 -13.5q-72 0 -114 40.5t-42 104.5q0 46 21 77.5t58.5 48t86.5 16.5h105v63q0 39 -24 61t-74 22q-37 0 -68 -11.5t-63 -33.5l-31 87q38 26 79.5 38.5t89.5 12.5q97 0 143.5 -48t46.5 -122v-233l47 -69zM215 73
q46 0 73 24.5t27 63.5v33q0 16 -18 11l-48 -11h-35q-33 0 -51.5 -15t-18.5 -42t19.5 -45.5t51.5 -18.5z" />
    <glyph glyph-name="b" unicode="b" horiz-adv-x="547" 
d="M124 -12l-90 56l47 68v638h108v-275q19 17 50 28.5t65 11.5q89 0 133.5 -45.5t53.5 -123.5q3 -26 4 -48t1 -45q0 -19 -1.5 -40t-3.5 -46q-7 -81 -56 -129t-139 -48q-39 0 -68 12.5t-51 30.5q-14 10 -23 -2zM286 81q51 0 73.5 26t25.5 62q4 41 4 83t-4 83q-3 37 -26 62.5
t-73 25.5q-48 0 -72.5 -21.5t-24.5 -60.5v-178q0 -37 25 -59.5t72 -22.5z" />
    <glyph glyph-name="c" unicode="c" horiz-adv-x="448" 
d="M264 -13q-93 0 -145.5 50t-61.5 125q-6 50 -6 90q0 21 1.5 42.5t4.5 46.5q10 76 62 125.5t144 49.5q45 0 80 -11.5t66 -34.5l-30 -82q-26 17 -52 26.5t-60 9.5q-49 0 -77.5 -27.5t-30.5 -66.5q-3 -44 -3.5 -79t3.5 -78q3 -38 31 -66t79 -28q30 0 58.5 8.5t56.5 26.5
l28 -79q-36 -25 -71.5 -36.5t-76.5 -11.5z" />
    <glyph glyph-name="d" unicode="d" horiz-adv-x="541" 
d="M239 -10q-87 0 -132 46t-52 123q-2 28 -3 50.5t-1 43.5q0 23 1 45t3 48q8 78 54 123.5t134 45.5q34 0 65.5 -10t49.5 -26v271h108v-750h-108v20q0 9 -5.5 11.5t-15.5 -2.5l-55 -34q-10 -2 -19.5 -3.5t-23.5 -1.5zM261 80q47 0 72 23t25 59v181q0 37 -24 58.5t-73 21.5
t-72 -25.5t-27 -61.5q-4 -41 -4 -83.5t4 -84.5q3 -36 26 -62t73 -26z" />
    <glyph glyph-name="e" unicode="e" horiz-adv-x="494" 
d="M274 -10q-64 0 -110 22.5t-73 61.5t-34 88q-3 24 -4.5 45t-1.5 42q0 40 6 89q9 76 60 126t138 50q59 0 97.5 -20t60.5 -53.5t31 -75.5t9 -86l-20 -52h-334l-1 82h255q0 29 -8 55.5t-29 43.5t-60 17q-48 0 -73 -29.5t-28 -73.5q-2 -25 -3 -61.5t3 -81.5q5 -46 35 -73
t84 -27q34 0 66 10.5t61 29.5l29 -80q-38 -26 -74 -37.5t-82 -11.5z" />
    <glyph glyph-name="f" unicode="f" horiz-adv-x="375" 
d="M122 0v413h-96v91h96v72q0 50 23 90.5t69.5 63.5t114.5 23q48 0 88 -14.5t67 -38.5l-39 -77q-23 20 -49.5 29.5t-55.5 9.5q-56 0 -84.5 -22.5t-28.5 -61.5v-74h121v-91h-121v-413h-105z" />
    <glyph glyph-name="g" unicode="g" horiz-adv-x="538" 
d="M249 -207q-34 0 -61 4t-51.5 14t-51.5 25l28 82q22 -13 41 -20.5t41.5 -10.5t52.5 -3q50 0 80 23.5t30 69.5v43q0 10 -5.5 12t-13.5 -3l-58 -34q-11 -2 -20.5 -3.5t-25.5 -1.5q-81 0 -127 46t-53 123q-2 28 -3 50.5t-1 43.5q0 23 1 45t3 48q7 78 53 123.5t135 45.5
q34 0 65 -11t50 -28v28h108v-527q0 -47 -23.5 -89t-71.5 -68.5t-122 -26.5zM261 80q47 0 72 22.5t25 59.5v181q0 37 -24.5 58.5t-72.5 21.5q-50 0 -72.5 -25.5t-26.5 -61.5q-4 -42 -4 -84.5t4 -83.5q3 -37 25.5 -62.5t73.5 -25.5z" />
    <glyph glyph-name="h" unicode="h" horiz-adv-x="547" 
d="M77 0v750h106v-271q22 15 54 26t71 11q48 0 86 -18.5t59.5 -53.5t21.5 -83v-361h-107v331q0 42 -22 65t-67 23q-48 0 -72 -23t-24 -65v-331h-106z" />
    <glyph glyph-name="i" unicode="i" horiz-adv-x="301" 
d="M116 0v413h-78v91h186v-504h-108zM116 591v109h108v-109h-108z" />
    <glyph glyph-name="j" unicode="j" horiz-adv-x="301" 
d="M52 -222l-30 93q43 12 68.5 45t25.5 90v407h-78v91h186v-495q0 -53 -13.5 -92.5t-37 -67t-55 -45.5t-66.5 -26zM116 591v109h107v-109h-107z" />
    <glyph glyph-name="k" unicode="k" horiz-adv-x="495" 
d="M77 0v750h107v-424h49l113 178h119l-140 -217l144 -287h-118l-111 233h-56v-233h-107z" />
    <glyph glyph-name="l" unicode="l" horiz-adv-x="287" 
d="M193 0q-52 0 -84 31.5t-32 81.5v637h106v-627q0 -13 7.5 -21t19.5 -8h46v-94h-63z" />
    <glyph glyph-name="m" unicode="m" horiz-adv-x="837" 
d="M77 0v504h105v-39q17 18 51.5 34.5t78.5 16.5t75.5 -13.5t57.5 -39.5q17 17 40.5 29t51 18t55.5 6q53 0 92 -19t60 -55t21 -86v-356h-108v338q0 39 -21.5 60t-71.5 21q-48 0 -68.5 -21t-20.5 -60v-338h-108v338q0 39 -22 60t-64 21q-52 0 -74 -21t-22 -60v-338h-108z" />
    <glyph glyph-name="n" unicode="n" horiz-adv-x="549" 
d="M77 0v504h108v-29q22 18 53.5 29.5t69.5 11.5q49 0 87.5 -18.5t60 -53t21.5 -83.5v-361h-108v335q0 40 -21.5 62t-69.5 22q-46 0 -69.5 -22t-23.5 -62v-335h-108z" />
    <glyph glyph-name="o" unicode="o" horiz-adv-x="525" 
d="M262 -11q-91 0 -143.5 49.5t-61.5 124.5q-6 48 -6 88q0 21 1.5 43t4.5 47q10 75 62 124.5t143 49.5q92 0 144.5 -49t61.5 -125q6 -49 6 -90q0 -40 -6 -88q-10 -75 -62 -124.5t-144 -49.5zM262 79q49 0 74.5 28.5t29.5 66.5q4 42 4 77t-4 78q-4 39 -29.5 67t-74.5 28
q-47 0 -73.5 -28t-29.5 -67q-4 -43 -3.5 -78t4.5 -77q4 -38 29.5 -66.5t72.5 -28.5z" />
    <glyph glyph-name="p" unicode="p" horiz-adv-x="543" 
d="M77 -200v704h108v-28q19 17 50 28t65 11q89 0 134.5 -45.5t53.5 -123.5q2 -26 3 -48t1 -45q0 -21 -1 -43.5t-3 -50.5q-7 -77 -52 -123t-132 -46q-14 0 -23 1.5t-20 3.5l-55 34q-9 5 -15 1.5t-6 -11.5v-219h-108zM282 80q51 0 73.5 26t25.5 62q4 42 4 84.5t-4 83.5
q-3 36 -26 61.5t-73 25.5q-48 0 -72.5 -21.5t-24.5 -58.5v-181q0 -36 25.5 -59t71.5 -23z" />
    <glyph glyph-name="q" unicode="q" horiz-adv-x="543" 
d="M358 -200v219q0 9 -5 12t-14 -2l-57 -34q-10 -2 -19.5 -3.5t-23.5 -1.5q-87 0 -132 46t-52 123q-2 28 -3 50.5t-1 43.5q0 23 1 45t3 48q8 78 54 123.5t134 45.5q34 0 65.5 -11t49.5 -28v28h108v-704h-108zM261 80q47 0 72 23t25 59v181q0 37 -24 58.5t-73 21.5t-72 -25.5
t-27 -61.5q-4 -41 -4 -83.5t4 -84.5q3 -36 26 -62t73 -26z" />
    <glyph glyph-name="r" unicode="r" horiz-adv-x="373" 
d="M86 0v374l-57 84l92 58l38 -57q6 -8 12 -8t13 7q26 25 66 41.5t96 16.5h13v-102q-87 0 -127 -30.5t-40 -83.5v-300h-106z" />
    <glyph glyph-name="s" unicode="s" horiz-adv-x="461" 
d="M231 -12q-52 0 -96 14.5t-86 42.5l33 84q28 -19 52 -29.5t47.5 -15.5t49.5 -5q47 0 70 19.5t23 51.5q0 24 -17.5 41t-52.5 19l-57 4q-63 4 -105.5 37.5t-42.5 102.5q0 75 51.5 118.5t137.5 43.5q48 0 88.5 -10.5t77.5 -34.5l-32 -82q-27 18 -59.5 27t-73.5 9
q-46 0 -69.5 -17t-23.5 -48q0 -24 17 -37.5t44 -15.5l57 -4q74 -4 115.5 -42.5t41.5 -106.5q0 -75 -50.5 -120.5t-139.5 -45.5z" />
    <glyph glyph-name="t" unicode="t" horiz-adv-x="355" 
d="M214 0q-52 0 -84 31.5t-32 81.5v301h-84v90h71q9 0 14 6t10 27.5t13 68.5l5 24h77v-126h107v-90h-107v-291q0 -13 7 -21t20 -8h84v-94h-101z" />
    <glyph glyph-name="u" unicode="u" horiz-adv-x="543" 
d="M232 -11q-48 0 -85.5 18t-59 53t-21.5 84v360h108v-334q0 -40 21.5 -62t68.5 -22q48 0 71 22t23 62v334h108v-504h-109v20q0 9 -5.5 11.5t-14.5 -2.5l-56 -34q-19 -6 -49 -6z" />
    <glyph glyph-name="v" unicode="v" horiz-adv-x="479" 
d="M162 0l-136 504h109l90 -356l7 -60q2 -8 7.5 -8t6.5 8l8 60l91 356h108l-138 -504h-153z" />
    <glyph glyph-name="w" unicode="w" horiz-adv-x="619" 
d="M119 2l-79 502h99l41 -269l1 -67q1 -10 7.5 -10t8.5 8l81 338h63l81 -338q2 -8 8.5 -8t6.5 10l2 67l42 269h98l-80 -502h-100l-80 291q-2 10 -9 10t-10 -10l-80 -291h-101z" />
    <glyph glyph-name="x" unicode="x" horiz-adv-x="486" 
d="M26 0l144 252l-144 252h118l77 -147l15 -46q2 -6 7.5 -6t7.5 6l16 46l75 147h118l-143 -252l143 -252h-118l-75 147l-16 46q-2 6 -7.5 6t-7.5 -6l-15 -46l-77 -147h-118z" />
    <glyph glyph-name="y" unicode="y" horiz-adv-x="475" 
d="M88 -218l-32 94q53 11 80.5 41t40.5 74l14 47l-175 466h111l97 -277l10 -69q1 -8 7.5 -8t7.5 8l12 69l78 277h109l-172 -550q-20 -67 -68.5 -112t-119.5 -60z" />
    <glyph glyph-name="z" unicode="z" horiz-adv-x="458" 
d="M48 0v70l201 297l32 31q9 9 6 12.5t-9 3.5h-230v90h362v-70l-201 -297l-32 -31q-9 -9 -5.5 -12.5t8.5 -3.5h230v-90h-362z" />
    <glyph glyph-name="braceleft" unicode="{" horiz-adv-x="508" 
d="M361 -159q-75 0 -120 40t-45 130v203q1 36 -20 58.5t-57 23.5l-29 1v98l29 1q36 2 57 24t20 58v203q0 91 45 130.5t120 39.5h57v-87h-50q-37 0 -51.5 -21.5t-14.5 -61.5v-207q0 -44 -9 -66.5t-25 -41.5l-42 -12q-9 -3 -9 -8t9 -8l42 -12q16 -20 25 -42.5t9 -69.5v-203
q0 -40 14.5 -61.5t51.5 -21.5h50v-87h-57z" />
    <glyph glyph-name="bar" unicode="|" horiz-adv-x="316" 
d="M102 -150v1000h112v-1000h-112z" />
    <glyph glyph-name="braceright" unicode="}" horiz-adv-x="508" 
d="M90 -159v87h50q38 0 52 21.5t14 61.5v199q0 48 9 72t26 44l42 12q9 3 9 8t-9 8l-42 12q-17 20 -26 43t-9 69v203q0 40 -14 61.5t-52 21.5h-50v87h58q74 0 119 -39.5t45 -130.5l1 -203q-1 -36 19.5 -58t56.5 -24l29 -1v-98l-29 -1q-36 -1 -56.5 -23.5t-19.5 -58.5l-1 -203
q0 -90 -45 -130t-119 -40h-58z" />
    <glyph glyph-name="asciitilde" unicode="~" horiz-adv-x="600" 
d="M396 187q-39 0 -64 8.5t-44.5 19.5t-40 19.5t-49.5 8.5q-31 0 -58 -11.5t-49 -29.5l-47 70q36 32 76.5 45.5t81.5 13.5q39 0 64.5 -8.5t45 -19.5t40 -19.5t49.5 -8.5q32 0 59 11.5t48 29.5l47 -70q-35 -30 -75.5 -44.5t-83.5 -14.5z" />
    <glyph glyph-name="uni00A0" unicode="&#xa0;" horiz-adv-x="276" 
 />
    <glyph glyph-name="exclamdown" unicode="&#xa1;" horiz-adv-x="277" 
d="M180 286l22 -482h-127l22 482h83zM195 504v-115h-114v115h114z" />
    <glyph glyph-name="cent" unicode="&#xa2;" horiz-adv-x="448" 
d="M184 -114v114q-56 18 -88 61.5t-39 100.5q-6 50 -6 90q0 21 1.5 42.5t4.5 46.5q7 58 39 101t88 62v114h103v-103q38 -2 66.5 -14t55.5 -31l-30 -82q-26 17 -52 26.5t-60 9.5q-49 0 -77.5 -27.5t-30.5 -66.5q-3 -44 -3.5 -79t3.5 -78q3 -38 31 -66t79 -28q30 0 58.5 8.5
t56.5 26.5l28 -79q-31 -22 -60.5 -33t-64.5 -14v-102h-103z" />
    <glyph glyph-name="sterling" unicode="&#xa3;" horiz-adv-x="575" 
d="M64 0v92q41 13 62 49.5t21 95.5v66h-82v96h82v136q0 51 23 91t69.5 63t114.5 23q48 0 88 -14t67 -39l-43 -76q-21 20 -46.5 29t-54.5 9q-56 0 -84 -22.5t-28 -61.5v-138h251v-96h-251v-61q-1 -43 -9 -74.5t-24 -49.5q-7 -8 -4 -15t14 -7h274v-96h-440z" />
    <glyph glyph-name="yen" unicode="&#xa5;" horiz-adv-x="604" 
d="M246 0v196h-165v91h167v10l-54 116h-113v91h70l-95 196h120l107 -233l12 -56q2 -6 8 -6t7 6l13 56l106 233h119l-95 -196h76v-91h-118l-54 -116v-10h172v-91h-171v-196h-112z" />
    <glyph glyph-name="section" unicode="&#xa7;" horiz-adv-x="515" 
d="M252 -12q-52 0 -96 14.5t-86 42.5l33 84q28 -19 52 -29.5t47.5 -15.5t49.5 -5q47 0 70 16.5t23 47.5q0 25 -17.5 42t-52.5 19l-57 4q-63 4 -105.5 39.5t-42.5 109.5q0 35 11.5 62.5t32.5 47.5q-19 17 -30.5 43.5t-11.5 63.5q0 74 51.5 118t138.5 44q48 0 88.5 -10.5
t76.5 -34.5l-32 -82q-27 18 -59.5 27t-73.5 9q-45 0 -68.5 -17.5t-23.5 -47.5q0 -29 16.5 -43t43.5 -16l57 -4q74 -5 116 -43.5t42 -106.5q0 -70 -47 -112q44 -38 44 -107q0 -75 -50.5 -117.5t-139.5 -42.5zM253 301q49 0 71.5 13.5t22.5 48.5q0 26 -18 43t-71 18
q-51 -1 -71 -17t-20 -44q0 -32 20.5 -46.5t65.5 -15.5z" />
    <glyph glyph-name="dieresis" unicode="&#xa8;" horiz-adv-x="398" 
d="M234 591v109h102v-109h-102zM50 591v109h102v-109h-102z" />
    <glyph glyph-name="copyright" unicode="&#xa9;" horiz-adv-x="966" 
d="M483 -66q-85 0 -160 32t-132 89t-89 132t-32 160q0 86 32 160.5t89 131.5t132 89t160 32q86 0 160.5 -32t131.5 -89t89 -131.5t32 -160.5q0 -85 -32 -160t-89 -132t-131.5 -89t-160.5 -32zM483 80q-62 0 -108 23.5t-75 63.5t-40 89q-6 25 -8 46.5t-2 42.5t2 43t8 47
q11 49 40 88.5t74.5 63t106.5 23.5q51 0 91.5 -13.5t71.5 -38.5l-31 -83q-25 20 -57 31.5t-70 11.5q-33 0 -60 -14t-43.5 -36t-21.5 -48q-7 -41 -7 -75t7 -75q5 -26 21.5 -48t43.5 -35.5t61 -13.5q35 0 70 11.5t61 28.5l29 -78q-34 -26 -76.5 -40.5t-87.5 -14.5zM483 9
q70 0 131.5 26t108 72.5t73 108t26.5 131.5t-26.5 131.5t-73 108t-108 73t-131.5 26.5t-131 -26.5t-107.5 -73t-73 -108t-26.5 -131.5t26.5 -131.5t73 -108t107.5 -72.5t131 -26z" />
    <glyph glyph-name="ordfeminine" unicode="&#xaa;" horiz-adv-x="446" 
d="M328 356l-27 38q-7 10 -17 3q-19 -16 -43 -27.5t-60 -11.5q-61 0 -96.5 34.5t-35.5 89.5q0 59 40.5 90.5t102.5 31.5h85v49q0 31 -20 48t-62 17q-30 0 -56 -9.5t-53 -27.5l-30 80q34 21 70 32t77 11q85 0 125.5 -42t40.5 -105v-196l37 -60zM198 434q37 0 58 19.5t21 52.5
v22q0 13 -16 9l-38 -9h-28q-26 0 -40 -12t-14 -33q0 -20 16 -34.5t41 -14.5z" />
    <glyph glyph-name="guillemotleft" unicode="&#xab;" horiz-adv-x="560" 
d="M391 51l-126 141v75l126 141h118l-127 -142l-43 -29q-10 -7 0 -15l43 -29l127 -142h-118zM170 51l-126 141v75l126 141h118l-127 -142l-43 -29q-10 -7 0 -15l43 -29l127 -142h-118z" />
    <glyph glyph-name="logicalnot" unicode="&#xac;" horiz-adv-x="588" 
d="M422 106v196h-352v96h448v-292h-96z" />
    <glyph glyph-name="registered" unicode="&#xae;" horiz-adv-x="966" 
d="M483 -66q-85 0 -160 32t-132 89t-89 132t-32 160q0 86 32 160.5t89 131.5t132 89t160 32q86 0 160.5 -32t131.5 -89t89 -131.5t32 -160.5q0 -85 -32 -160t-89 -132t-131.5 -89t-160.5 -32zM483 9q70 0 131.5 26t108 72.5t73 108t26.5 131.5t-26.5 131.5t-73 108t-108 73
t-131.5 26.5t-131 -26.5t-107.5 -73t-73 -108t-26.5 -131.5t26.5 -131.5t73 -108t107.5 -72.5t131 -26zM318 97v500h198q78 0 120.5 -43t42.5 -107q0 -55 -24 -91.5t-67 -49.5q-9 -3 -2 -13l20 -33l70 -163h-113l-82 193h-62v-193h-101zM419 382h80q32 0 50 13t18 44
q0 34 -18 48.5t-50 14.5h-80v-120z" />
    <glyph glyph-name="macron" unicode="&#xaf;" horiz-adv-x="370" 
d="M50 597v81h270v-81h-270z" />
    <glyph glyph-name="degree" unicode="&#xb0;" horiz-adv-x="482" 
d="M242 406q-42 0 -80 16t-61.5 54.5t-23.5 107.5t24.5 107.5t62.5 53.5t78 15t77.5 -15t61.5 -53.5t24 -107.5q0 -70 -24 -108.5t-61.5 -54t-77.5 -15.5zM240 484q21 0 38.5 7.5t27 29t9.5 63.5q0 41 -9.5 62t-27 28.5t-38.5 7.5q-33 0 -53 -19t-20 -79q0 -42 10 -63.5
t27 -29t36 -7.5z" />
    <glyph glyph-name="plusminus" unicode="&#xb1;" horiz-adv-x="628" 
d="M266 167v166h-196v96h196v166h96v-166h196v-96h-196v-166h-96zM90 1v96h448v-96h-448z" />
    <glyph glyph-name="uni00B2" unicode="&#xb2;" horiz-adv-x="411" 
d="M49 350v89q0 52 26 91t88 65l49 21q31 13 44 27t13 33q0 24 -20.5 37t-55.5 13q-26 0 -55 -5.5t-60 -20.5l-28 76q38 21 74 28t76 7q38 0 76.5 -13t64.5 -42.5t26 -77.5q0 -46 -23 -76.5t-73 -52.5l-57 -27q-29 -12 -44.5 -25t-20 -24.5t-4.5 -20.5v-12h218v-90h-314z
" />
    <glyph glyph-name="uni00B3" unicode="&#xb3;" horiz-adv-x="409" 
d="M190 344q-46 0 -84 10t-74 38l31 81q29 -24 59 -32.5t62 -8.5q41 0 62 14t21 39q0 22 -19 37t-61 15h-59v80h59q38 0 55.5 14t17.5 38q0 26 -21.5 41t-63.5 15q-22 0 -50.5 -5t-55.5 -21l-28 76q35 23 70.5 30t72.5 7q39 0 78.5 -13.5t65.5 -42.5t26 -78q0 -40 -19 -63
t-48 -37q35 -15 55 -38.5t20 -61.5q0 -46 -25.5 -76t-65.5 -44t-81 -14z" />
    <glyph glyph-name="acute" unicode="&#xb4;" horiz-adv-x="326" 
d="M49 591l116 159h110l-115 -159h-111z" />
    <glyph glyph-name="uni00B5" unicode="&#xb5;" horiz-adv-x="551" 
d="M70 -165l-1 669h108v-334q0 -40 21.5 -62t68.5 -22q48 0 71 22t23 62v334h108v-504h-109v20q0 9 -5.5 11.5t-14.5 -2.5l-56 -34q-19 -6 -49 -6q-16 0 -31 2.5t-27 7.5v-164h-107z" />
    <glyph glyph-name="paragraph" unicode="&#xb6;" horiz-adv-x="685" 
d="M233 -250v505q-52 0 -98 19.5t-74.5 68.5t-28.5 135q0 65 17 108t46 68t65 35.5t73 10.5h383v-96h-80v-854h-111v854h-80v-854h-112z" />
    <glyph glyph-name="periodcentered" unicode="&#xb7;" horiz-adv-x="278" 
d="M82 200v120h113v-120h-113z" />
    <glyph glyph-name="cedilla" unicode="&#xb8;" horiz-adv-x="321" 
d="M50 -254l19 70q57 0 89.5 12.5t32.5 32.5q0 19 -24.5 25t-81.5 6l33 135l68 -25l-13 -50q45 -6 71.5 -29.5t26.5 -57.5q0 -39 -30 -65.5t-80 -40t-111 -13.5z" />
    <glyph glyph-name="uni00B9" unicode="&#xb9;" horiz-adv-x="382" 
d="M56 350v84h104v279h-114v58l216 42l-1 -379h99v-84h-304z" />
    <glyph glyph-name="ordmasculine" unicode="&#xba;" horiz-adv-x="464" 
d="M232 350q-78 0 -123.5 43t-52.5 108q-3 21 -4 39.5t-1 36.5q0 19 1.5 38t3.5 40q8 66 53 108.5t123 42.5t124 -42.5t52 -108.5q2 -20 3.5 -39.5t1.5 -38.5q0 -18 -1 -36.5t-4 -39.5q-8 -63 -53 -107t-123 -44zM232 437q37 0 56 22.5t22 53.5q3 36 3.5 65t-2.5 65
q-3 32 -22.5 55.5t-56.5 23.5t-57 -23.5t-23 -55.5q-3 -36 -2 -65t3 -64q4 -32 23 -54.5t56 -22.5z" />
    <glyph glyph-name="guillemotright" unicode="&#xbb;" horiz-adv-x="560" 
d="M272 51l126 142l43 29q10 8 0 15l-43 29l-127 142h118l126 -141v-75l-126 -141h-117zM51 51l126 142l43 29q10 8 0 15l-43 29l-127 142h118l126 -141v-75l-126 -141h-117z" />
    <glyph glyph-name="onequarter" unicode="&#xbc;" horiz-adv-x="1046" 
d="M56 245v84h104v279h-114v58l216 42l-1 -379h99v-84h-304zM322 0l312 700h113l-310 -700h-115zM883 0v114h-236v45l147 296h103l-134 -262h120v132h93v-325h-93z" />
    <glyph glyph-name="onehalf" unicode="&#xbd;" horiz-adv-x="1070" 
d="M56 245v84h104v279h-114v58l216 42l-1 -379h99v-84h-304zM322 0l312 700h113l-310 -700h-115zM708 0v89q0 52 26 91t88 65l49 21q31 13 44 27t13 33q0 24 -20.5 37t-55.5 13q-26 0 -55 -5.5t-60 -20.5l-28 76q38 21 74 28t76 7q38 0 76.5 -13t64.5 -42.5t26 -77.5
q0 -46 -23 -76.5t-73 -52.5l-57 -27q-29 -12 -44.5 -25t-20 -24.5t-4.5 -20.5v-12h218v-90h-314z" />
    <glyph glyph-name="threequarters" unicode="&#xbe;" horiz-adv-x="1036" 
d="M190 239q-46 0 -84 10t-74 38l31 81q29 -24 59 -32.5t62 -8.5q41 0 62 14t21 39q0 22 -19 37t-61 15h-59v80h59q38 0 55.5 14t17.5 38q0 26 -21.5 41t-63.5 15q-22 0 -50.5 -5t-55.5 -21l-28 76q35 23 70.5 30t72.5 7q39 0 78.5 -13.5t65.5 -42.5t26 -78q0 -40 -19 -63
t-48 -37q35 -15 55 -38.5t20 -61.5q0 -46 -25.5 -76t-65.5 -44t-81 -14zM312 0l312 700h113l-310 -700h-115zM873 0v114h-236v45l147 296h103l-134 -262h120v132h93v-325h-93z" />
    <glyph glyph-name="questiondown" unicode="&#xbf;" horiz-adv-x="495" 
d="M337 286q5 -18 6.5 -30.5t1.5 -23.5q0 -45 -22 -74t-72 -50l-46 -21q-23 -12 -42 -31t-19 -63q0 -36 17.5 -58t46 -32t60.5 -10q33 0 57.5 5t46 14.5t43.5 22.5l32 -89q-39 -25 -84 -39t-98 -14q-64 0 -116 23.5t-82.5 69t-30.5 111.5q0 53 19 86.5t48 54.5t60 35l36 17
q24 10 38 23.5t14 41.5v31h86zM351 504v-112h-114v112h114z" />
    <glyph glyph-name="Agrave" unicode="&#xc0;" 
d="M30 0l186 700h160l187 -700h-114l-137 544l-8 57q-1 7 -7.5 7t-7.5 -7l-8 -57l-137 -544h-114zM165 177l25 96h213l25 -96h-263zM106 605v95h133l-8 -95h-125zM256 769l-116 159h111l115 -159h-110z" />
    <glyph glyph-name="Aacute" unicode="&#xc1;" 
d="M30 0l186 700h160l187 -700h-114l-137 544l-8 57q-1 7 -7.5 7t-7.5 -7l-8 -57l-137 -544h-114zM165 177l25 96h213l25 -96h-263zM106 605v95h133l-8 -95h-125zM220 769l116 159h110l-115 -159h-111z" />
    <glyph glyph-name="Acircumflex" unicode="&#xc2;" 
d="M30 0l186 700h160l187 -700h-114l-137 544l-8 57q-1 7 -7.5 7t-7.5 -7l-8 -57l-137 -544h-114zM165 177l25 96h213l25 -96h-263zM106 605v95h133l-8 -95h-125zM148 769l91 159h108l92 -159h-96l-33 63l-11 34q-2 8 -5.5 8t-6.5 -8l-10 -34l-34 -63h-95z" />
    <glyph glyph-name="Atilde" unicode="&#xc3;" 
d="M30 0l186 700h160l187 -700h-114l-137 544l-8 57q-1 7 -7.5 7t-7.5 -7l-8 -57l-137 -544h-114zM165 177l25 96h213l25 -96h-263zM106 605v95h133l-8 -95h-125zM158 759l-27 69q19 25 42.5 36t51.5 11q35 0 56 -9t38.5 -18.5t40.5 -9.5q21 0 37 10t32 29l26 -69
q-18 -24 -42 -35.5t-52 -11.5q-34 0 -55.5 9.5t-39 18.5t-39.5 9q-21 0 -37.5 -9.5t-31.5 -29.5z" />
    <glyph glyph-name="Adieresis" unicode="&#xc4;" 
d="M30 0l186 700h160l187 -700h-114l-137 544l-8 57q-1 7 -7.5 7t-7.5 -7l-8 -57l-137 -544h-114zM165 177l25 96h213l25 -96h-263zM106 605v95h133l-8 -95h-125zM335 769v109h102v-109h-102zM151 769v109h102v-109h-102z" />
    <glyph glyph-name="Aring" unicode="&#xc5;" 
d="M30 0l186 700h160l187 -700h-114l-137 544l-8 57q-1 7 -7.5 7t-7.5 -7l-8 -57l-137 -544h-114zM165 177l25 96h213l25 -96h-263zM106 605v95h133l-8 -95h-125zM295 745q-38 0 -71 10t-53.5 33.5t-20.5 63.5q0 42 21 65t54.5 32.5t69.5 9.5q35 0 68 -9.5t53.5 -32.5
t20.5 -65q0 -41 -20.5 -64.5t-53.5 -33t-68 -9.5zM293 805q29 0 49.5 8.5t20.5 39.5q0 29 -20.5 37.5t-49.5 8.5q-31 0 -50 -8.5t-19 -38.5t20.5 -38.5t48.5 -8.5z" />
    <glyph glyph-name="AE" unicode="&#xc6;" horiz-adv-x="857" 
d="M30 0l160 600h-84v100h695v-100h-309v-201h292v-98h-292v-199h309v-102h-413v177h-200l-44 -177h-114zM212 273h176v327h-93z" />
    <glyph glyph-name="Ccedilla" unicode="&#xc7;" horiz-adv-x="503" 
d="M310 -12q-72 0 -126.5 26.5t-86.5 77.5t-37 124q-2 29 -4 66t-2 68q0 32 2 68.5t4 65.5q5 73 36.5 124t85 77.5t124.5 26.5q46 0 85.5 -15t75.5 -44l-32 -89q-29 23 -58.5 34.5t-64.5 11.5q-64 0 -100 -35t-40 -100q-2 -35 -3.5 -64t-1.5 -61q0 -31 1.5 -60t3.5 -65
q5 -66 40 -100.5t98 -33.5q36 0 66 12t58 34l33 -92q-35 -28 -73.5 -42.5t-83.5 -14.5zM179 -254l19 70q57 0 89.5 12.5t32.5 32.5q0 19 -24.5 25t-81.5 6l33 135l68 -25l-13 -50q45 -6 71.5 -29.5t26.5 -57.5q0 -39 -30 -65.5t-80 -40t-111 -13.5z" />
    <glyph glyph-name="Egrave" unicode="&#xc8;" horiz-adv-x="552" 
d="M82 0v700h414v-102h-310v-199h293v-98h-293v-199h310v-102h-414zM259 769l-116 159h111l115 -159h-110z" />
    <glyph glyph-name="Eacute" unicode="&#xc9;" horiz-adv-x="552" 
d="M82 0v700h414v-102h-310v-199h293v-98h-293v-199h310v-102h-414zM223 769l116 159h110l-115 -159h-111z" />
    <glyph glyph-name="Ecircumflex" unicode="&#xca;" horiz-adv-x="552" 
d="M82 0v700h414v-102h-310v-199h293v-98h-293v-199h310v-102h-414zM151 769l91 159h108l92 -159h-96l-33 63l-11 34q-2 8 -5.5 8t-6.5 -8l-10 -34l-34 -63h-95z" />
    <glyph glyph-name="Edieresis" unicode="&#xcb;" horiz-adv-x="552" 
d="M82 0v700h414v-102h-310v-199h293v-98h-293v-199h310v-102h-414zM337 769v109h102v-109h-102zM153 769v109h102v-109h-102z" />
    <glyph glyph-name="Igrave" unicode="&#xcc;" horiz-adv-x="431" 
d="M50 0v97h109v506h-109v97h331v-97h-109v-506h109v-97h-331zM178 769l-116 159h111l115 -159h-110z" />
    <glyph glyph-name="Iacute" unicode="&#xcd;" horiz-adv-x="431" 
d="M50 0v97h109v506h-109v97h331v-97h-109v-506h109v-97h-331zM142 769l116 159h110l-115 -159h-111z" />
    <glyph glyph-name="Icircumflex" unicode="&#xce;" horiz-adv-x="431" 
d="M50 0v97h109v506h-109v97h331v-97h-109v-506h109v-97h-331zM70 769l91 159h108l92 -159h-96l-33 63l-11 34q-2 8 -5.5 8t-6.5 -8l-10 -34l-34 -63h-95z" />
    <glyph glyph-name="Idieresis" unicode="&#xcf;" horiz-adv-x="431" 
d="M50 0v97h109v506h-109v97h331v-97h-109v-506h109v-97h-331zM257 769v109h102v-109h-102zM73 769v109h102v-109h-102z" />
    <glyph glyph-name="Eth" unicode="&#xd0;" horiz-adv-x="617" 
d="M0 306v87h310v-87h-310zM102 0v700h191q125 0 190 -62t74 -168q2 -27 3.5 -59t1.5 -61t-1.5 -61t-3.5 -59q-8 -106 -73.5 -168t-190.5 -62h-191zM214 95h79q79 0 115.5 42t41.5 107q3 32 3.5 55t0.5 51t-0.5 50.5t-3.5 55.5q-5 65 -41.5 107t-115.5 42h-79v-510z" />
    <glyph glyph-name="Ntilde" unicode="&#xd1;" horiz-adv-x="630" 
d="M82 0v700h93l263 -483q5 -7 10.5 -4t4.5 10l-13 75v402h108v-700h-100l-255 465q-4 8 -10 6t-5 -10l12 -75v-386h-108zM180 777l-27 69q19 25 42.5 36t51.5 11q35 0 56 -9t38.5 -18.5t40.5 -9.5q21 0 37 10t32 29l26 -69q-18 -24 -42 -35.5t-52 -11.5q-34 0 -55.5 9.5
t-39 18.5t-39.5 9q-21 0 -37.5 -9.5t-31.5 -29.5z" />
    <glyph glyph-name="Ograve" unicode="&#xd2;" horiz-adv-x="612" 
d="M306 -12q-53 0 -98 16t-78 50q-22 23 -39.5 56t-27 90t-9.5 150t9.5 150t27 90.5t39.5 55.5q33 34 78 50t98 16t98 -16t77 -50q23 -22 40 -55.5t26.5 -90.5t9.5 -150t-9.5 -150t-26.5 -90t-40 -56q-32 -34 -77 -50t-98 -16zM306 91q61 0 95 34.5t38 93.5q2 38 3.5 69
t1.5 62q0 32 -1.5 63t-3.5 68q-4 59 -38 93.5t-95 34.5q-62 0 -96 -34.5t-37 -93.5q-3 -37 -4.5 -68t-1.5 -63q0 -31 1.5 -62t4.5 -69q3 -59 37 -93.5t96 -34.5zM268 769l-116 159h111l115 -159h-110z" />
    <glyph glyph-name="Oacute" unicode="&#xd3;" horiz-adv-x="612" 
d="M306 -12q-53 0 -98 16t-78 50q-22 23 -39.5 56t-27 90t-9.5 150t9.5 150t27 90.5t39.5 55.5q33 34 78 50t98 16t98 -16t77 -50q23 -22 40 -55.5t26.5 -90.5t9.5 -150t-9.5 -150t-26.5 -90t-40 -56q-32 -34 -77 -50t-98 -16zM306 91q61 0 95 34.5t38 93.5q2 38 3.5 69
t1.5 62q0 32 -1.5 63t-3.5 68q-4 59 -38 93.5t-95 34.5q-62 0 -96 -34.5t-37 -93.5q-3 -37 -4.5 -68t-1.5 -63q0 -31 1.5 -62t4.5 -69q3 -59 37 -93.5t96 -34.5zM232 769l116 159h110l-115 -159h-111z" />
    <glyph glyph-name="Ocircumflex" unicode="&#xd4;" horiz-adv-x="612" 
d="M306 -12q-53 0 -98 16t-78 50q-22 23 -39.5 56t-27 90t-9.5 150t9.5 150t27 90.5t39.5 55.5q33 34 78 50t98 16t98 -16t77 -50q23 -22 40 -55.5t26.5 -90.5t9.5 -150t-9.5 -150t-26.5 -90t-40 -56q-32 -34 -77 -50t-98 -16zM306 91q61 0 95 34.5t38 93.5q2 38 3.5 69
t1.5 62q0 32 -1.5 63t-3.5 68q-4 59 -38 93.5t-95 34.5q-62 0 -96 -34.5t-37 -93.5q-3 -37 -4.5 -68t-1.5 -63q0 -31 1.5 -62t4.5 -69q3 -59 37 -93.5t96 -34.5zM160 769l91 159h108l92 -159h-96l-33 63l-11 34q-2 8 -5.5 8t-6.5 -8l-10 -34l-34 -63h-95z" />
    <glyph glyph-name="Otilde" unicode="&#xd5;" horiz-adv-x="612" 
d="M306 -12q-53 0 -98 16t-78 50q-22 23 -39.5 56t-27 90t-9.5 150t9.5 150t27 90.5t39.5 55.5q33 34 78 50t98 16t98 -16t77 -50q23 -22 40 -55.5t26.5 -90.5t9.5 -150t-9.5 -150t-26.5 -90t-40 -56q-32 -34 -77 -50t-98 -16zM306 91q61 0 95 34.5t38 93.5q2 38 3.5 69
t1.5 62q0 32 -1.5 63t-3.5 68q-4 59 -38 93.5t-95 34.5q-62 0 -96 -34.5t-37 -93.5q-3 -37 -4.5 -68t-1.5 -63q0 -31 1.5 -62t4.5 -69q3 -59 37 -93.5t96 -34.5zM170 759l-27 69q19 25 42.5 36t51.5 11q35 0 56 -9t38.5 -18.5t40.5 -9.5q21 0 37 10t32 29l26 -69
q-18 -24 -42 -35.5t-52 -11.5q-34 0 -55.5 9.5t-39 18.5t-39.5 9q-21 0 -37.5 -9.5t-31.5 -29.5z" />
    <glyph glyph-name="Odieresis" unicode="&#xd6;" horiz-adv-x="612" 
d="M306 -12q-53 0 -98 16t-78 50q-22 23 -39.5 56t-27 90t-9.5 150t9.5 150t27 90.5t39.5 55.5q33 34 78 50t98 16t98 -16t77 -50q23 -22 40 -55.5t26.5 -90.5t9.5 -150t-9.5 -150t-26.5 -90t-40 -56q-32 -34 -77 -50t-98 -16zM306 91q61 0 95 34.5t38 93.5q2 38 3.5 69
t1.5 62q0 32 -1.5 63t-3.5 68q-4 59 -38 93.5t-95 34.5q-62 0 -96 -34.5t-37 -93.5q-3 -37 -4.5 -68t-1.5 -63q0 -31 1.5 -62t4.5 -69q3 -59 37 -93.5t96 -34.5zM347 769v109h102v-109h-102zM163 769v109h102v-109h-102z" />
    <glyph glyph-name="multiply" unicode="&#xd7;" horiz-adv-x="556" 
d="M139 144l-67 67l139 139l-139 139l67 67l139 -139l139 139l67 -67l-138 -139l138 -139l-67 -67l-139 139z" />
    <glyph glyph-name="Oslash" unicode="&#xd8;" horiz-adv-x="612" 
d="M306 -12q-53 0 -98 16t-78 50q-22 23 -39.5 56t-27 90t-9.5 150t9.5 150t27 90.5t39.5 55.5q33 34 78 50t98 16t98 -16t77 -50q23 -22 40 -55.5t26.5 -90.5t9.5 -150t-9.5 -150t-26.5 -90t-40 -56q-32 -34 -77 -50t-98 -16zM306 91q61 0 95 34.5t38 93.5q2 38 3.5 69
t1.5 62q0 32 -1.5 63t-3.5 68q-4 59 -38 93.5t-95 34.5q-62 0 -96 -34.5t-37 -93.5q-3 -37 -4.5 -68t-1.5 -63q0 -31 1.5 -62t4.5 -69q3 -59 37 -93.5t96 -34.5zM-14 0l540 700h99l-540 -700h-99z" />
    <glyph glyph-name="Ugrave" unicode="&#xd9;" horiz-adv-x="607" 
d="M303 -10q-67 0 -118.5 27.5t-80.5 76.5t-29 113v493h114l-1 -494q0 -51 32 -82.5t83 -31.5t83 31.5t32 82.5v494h114l-2 -493q0 -64 -28.5 -113t-79.5 -76.5t-119 -27.5zM266 769l-116 159h111l115 -159h-110z" />
    <glyph glyph-name="Uacute" unicode="&#xda;" horiz-adv-x="607" 
d="M303 -10q-67 0 -118.5 27.5t-80.5 76.5t-29 113v493h114l-1 -494q0 -51 32 -82.5t83 -31.5t83 31.5t32 82.5v494h114l-2 -493q0 -64 -28.5 -113t-79.5 -76.5t-119 -27.5zM230 769l116 159h110l-115 -159h-111z" />
    <glyph glyph-name="Ucircumflex" unicode="&#xdb;" horiz-adv-x="607" 
d="M303 -10q-67 0 -118.5 27.5t-80.5 76.5t-29 113v493h114l-1 -494q0 -51 32 -82.5t83 -31.5t83 31.5t32 82.5v494h114l-2 -493q0 -64 -28.5 -113t-79.5 -76.5t-119 -27.5zM158 769l91 159h108l92 -159h-96l-33 63l-11 34q-2 8 -5.5 8t-6.5 -8l-10 -34l-34 -63h-95z" />
    <glyph glyph-name="Udieresis" unicode="&#xdc;" horiz-adv-x="607" 
d="M303 -10q-67 0 -118.5 27.5t-80.5 76.5t-29 113v493h114l-1 -494q0 -51 32 -82.5t83 -31.5t83 31.5t32 82.5v494h114l-2 -493q0 -64 -28.5 -113t-79.5 -76.5t-119 -27.5zM345 769v109h102v-109h-102zM161 769v109h102v-109h-102z" />
    <glyph glyph-name="Yacute" unicode="&#xdd;" horiz-adv-x="492" 
d="M190 0v301l-190 399h120l107 -233l12 -56q2 -6 7.5 -6t7.5 6l13 56l106 233h119l-190 -399v-301h-112zM173 769l116 159h110l-115 -159h-111z" />
    <glyph glyph-name="Thorn" unicode="&#xde;" horiz-adv-x="564" 
d="M82 0v700h111v-139h139q93 0 147.5 -55t54.5 -149q0 -91 -54.5 -144.5t-147.5 -53.5h-139v-159h-111zM193 255h133q47 0 74 27.5t27 75.5q0 51 -27 80t-74 29h-133v-212z" />
    <glyph glyph-name="germandbls" unicode="&#xdf;" horiz-adv-x="685" 
d="M454 -12q-52 0 -96 14.5t-86 42.5l33 84q28 -19 51.5 -29.5t46.5 -15.5t49 -5q47 0 70 19.5t23 51.5q0 24 -18 41t-52 19l-52 4q-66 4 -108.5 37.5t-42.5 103.5q0 59 33.5 96.5t93.5 55.5l35 10q27 8 39 24t12 37q0 19 -14.5 37.5t-45 30.5t-79.5 12q-79 0 -119 -34.5
t-40 -93.5v-530h-110v528q0 64 30 115t90 80.5t148 29.5q84 0 137.5 -25t79 -64t25.5 -84q0 -53 -32 -91t-91 -57l-37 -12q-28 -9 -41 -23t-13 -36q0 -25 16 -38.5t45 -15.5l53 -4q74 -4 116 -42.5t42 -106.5q0 -75 -51 -120.5t-140 -45.5z" />
    <glyph glyph-name="agrave" unicode="&#xe0;" horiz-adv-x="497" 
d="M372 -12l-33 47q-8 11 -17 2q-24 -20 -51.5 -33.5t-70.5 -13.5q-72 0 -114 40.5t-42 104.5q0 46 21 77.5t58.5 48t86.5 16.5h105v63q0 39 -24 61t-74 22q-37 0 -68 -11.5t-63 -33.5l-31 87q38 26 79.5 38.5t89.5 12.5q97 0 143.5 -48t46.5 -122v-233l47 -69zM215 73
q46 0 73 24.5t27 63.5v33q0 16 -18 11l-48 -11h-35q-33 0 -51.5 -15t-18.5 -42t19.5 -45.5t51.5 -18.5zM209 591l-116 159h111l115 -159h-110z" />
    <glyph glyph-name="aacute" unicode="&#xe1;" horiz-adv-x="497" 
d="M372 -12l-33 47q-8 11 -17 2q-24 -20 -51.5 -33.5t-70.5 -13.5q-72 0 -114 40.5t-42 104.5q0 46 21 77.5t58.5 48t86.5 16.5h105v63q0 39 -24 61t-74 22q-37 0 -68 -11.5t-63 -33.5l-31 87q38 26 79.5 38.5t89.5 12.5q97 0 143.5 -48t46.5 -122v-233l47 -69zM215 73
q46 0 73 24.5t27 63.5v33q0 16 -18 11l-48 -11h-35q-33 0 -51.5 -15t-18.5 -42t19.5 -45.5t51.5 -18.5zM173 591l116 159h110l-115 -159h-111z" />
    <glyph glyph-name="acircumflex" unicode="&#xe2;" horiz-adv-x="497" 
d="M372 -12l-33 47q-8 11 -17 2q-24 -20 -51.5 -33.5t-70.5 -13.5q-72 0 -114 40.5t-42 104.5q0 46 21 77.5t58.5 48t86.5 16.5h105v63q0 39 -24 61t-74 22q-37 0 -68 -11.5t-63 -33.5l-31 87q38 26 79.5 38.5t89.5 12.5q97 0 143.5 -48t46.5 -122v-233l47 -69zM215 73
q46 0 73 24.5t27 63.5v33q0 16 -18 11l-48 -11h-35q-33 0 -51.5 -15t-18.5 -42t19.5 -45.5t51.5 -18.5zM101 591l91 159h108l92 -159h-96l-33 63l-11 34q-2 8 -5.5 8t-6.5 -8l-10 -34l-34 -63h-95z" />
    <glyph glyph-name="atilde" unicode="&#xe3;" horiz-adv-x="497" 
d="M372 -12l-33 47q-8 11 -17 2q-24 -20 -51.5 -33.5t-70.5 -13.5q-72 0 -114 40.5t-42 104.5q0 46 21 77.5t58.5 48t86.5 16.5h105v63q0 39 -24 61t-74 22q-37 0 -68 -11.5t-63 -33.5l-31 87q38 26 79.5 38.5t89.5 12.5q97 0 143.5 -48t46.5 -122v-233l47 -69zM215 73
q46 0 73 24.5t27 63.5v33q0 16 -18 11l-48 -11h-35q-33 0 -51.5 -15t-18.5 -42t19.5 -45.5t51.5 -18.5zM112 581l-27 69q19 25 42.5 36t51.5 11q35 0 56 -9t38.5 -18.5t40.5 -9.5q21 0 37 10t32 29l26 -69q-18 -24 -42 -35.5t-52 -11.5q-34 0 -55.5 9.5t-39 18.5t-39.5 9
q-21 0 -37.5 -9.5t-31.5 -29.5z" />
    <glyph glyph-name="adieresis" unicode="&#xe4;" horiz-adv-x="497" 
d="M372 -12l-33 47q-8 11 -17 2q-24 -20 -51.5 -33.5t-70.5 -13.5q-72 0 -114 40.5t-42 104.5q0 46 21 77.5t58.5 48t86.5 16.5h105v63q0 39 -24 61t-74 22q-37 0 -68 -11.5t-63 -33.5l-31 87q38 26 79.5 38.5t89.5 12.5q97 0 143.5 -48t46.5 -122v-233l47 -69zM215 73
q46 0 73 24.5t27 63.5v33q0 16 -18 11l-48 -11h-35q-33 0 -51.5 -15t-18.5 -42t19.5 -45.5t51.5 -18.5zM288 591v109h102v-109h-102zM104 591v109h102v-109h-102z" />
    <glyph glyph-name="aring" unicode="&#xe5;" horiz-adv-x="497" 
d="M372 -12l-33 47q-8 11 -17 2q-24 -20 -51.5 -33.5t-70.5 -13.5q-72 0 -114 40.5t-42 104.5q0 46 21 77.5t58.5 48t86.5 16.5h105v63q0 39 -24 61t-74 22q-37 0 -68 -11.5t-63 -33.5l-31 87q38 26 79.5 38.5t89.5 12.5q97 0 143.5 -48t46.5 -122v-233l47 -69zM215 73
q46 0 73 24.5t27 63.5v33q0 16 -18 11l-48 -11h-35q-33 0 -51.5 -15t-18.5 -42t19.5 -45.5t51.5 -18.5zM248 567q-38 0 -71 10t-53.5 33.5t-20.5 63.5q0 42 21 65t54.5 32.5t69.5 9.5q35 0 68 -9.5t53.5 -32.5t20.5 -65q0 -41 -20.5 -64.5t-53.5 -33t-68 -9.5zM246 627
q29 0 49.5 8.5t20.5 39.5q0 29 -20.5 37.5t-49.5 8.5q-31 0 -50 -8.5t-19 -38.5t20.5 -38.5t48.5 -8.5z" />
    <glyph glyph-name="ae" unicode="&#xe6;" horiz-adv-x="759" 
d="M204 -10q-74 0 -117 40.5t-43 104.5q0 46 21 77.5t58.5 48t86.5 16.5h105v63q0 39 -24 61t-74 22q-37 0 -68 -11.5t-63 -33.5l-31 87q38 26 79.5 38.5t89.5 12.5q41 0 71.5 -9.5t53.5 -26.5l20 -24q8 -10 15 0l19 23q23 16 52 25.5t65 9.5q58 0 96.5 -20t60.5 -53.5
t31 -75.5t9 -86l-20 -52h-280q0 -73 27 -110.5t94 -37.5q35 0 66.5 10.5t60.5 29.5l30 -80q-39 -26 -74.5 -37.5t-82.5 -11.5q-48 0 -85.5 13t-64.5 36l-15 21q-8 11 -15 0l-14 -21q-31 -26 -67.5 -37.5t-72.5 -11.5zM215 73q46 0 73 24.5t27 63.5v33q0 16 -18 11l-48 -11
h-35q-33 0 -51.5 -15t-18.5 -42t19.5 -45.5t51.5 -18.5zM418 309h200q-1 29 -9 55.5t-29 43.5t-60 17q-49 0 -74.5 -31.5t-27.5 -84.5z" />
    <glyph glyph-name="ccedilla" unicode="&#xe7;" horiz-adv-x="448" 
d="M264 -13q-93 0 -145.5 50t-61.5 125q-6 50 -6 90q0 21 1.5 42.5t4.5 46.5q10 76 62 125.5t144 49.5q45 0 80 -11.5t66 -34.5l-30 -82q-26 17 -52 26.5t-60 9.5q-49 0 -77.5 -27.5t-30.5 -66.5q-3 -44 -3.5 -79t3.5 -78q3 -38 31 -66t79 -28q30 0 58.5 8.5t56.5 26.5
l28 -79q-36 -25 -71.5 -36.5t-76.5 -11.5zM139 -254l19 70q57 0 89.5 12.5t32.5 32.5q0 19 -24.5 25t-81.5 6l33 135l68 -25l-13 -50q45 -6 71.5 -29.5t26.5 -57.5q0 -39 -30 -65.5t-80 -40t-111 -13.5z" />
    <glyph glyph-name="egrave" unicode="&#xe8;" horiz-adv-x="494" 
d="M274 -10q-64 0 -110 22.5t-73 61.5t-34 88q-3 24 -4.5 45t-1.5 42q0 40 6 89q9 76 60 126t138 50q59 0 97.5 -20t60.5 -53.5t31 -75.5t9 -86l-20 -52h-334l-1 82h255q0 29 -8 55.5t-29 43.5t-60 17q-48 0 -73 -29.5t-28 -73.5q-2 -25 -3 -61.5t3 -81.5q5 -46 35 -73
t84 -27q34 0 66 10.5t61 29.5l29 -80q-38 -26 -74 -37.5t-82 -11.5zM217 591l-116 159h111l115 -159h-110z" />
    <glyph glyph-name="eacute" unicode="&#xe9;" horiz-adv-x="494" 
d="M274 -10q-64 0 -110 22.5t-73 61.5t-34 88q-3 24 -4.5 45t-1.5 42q0 40 6 89q9 76 60 126t138 50q59 0 97.5 -20t60.5 -53.5t31 -75.5t9 -86l-20 -52h-334l-1 82h255q0 29 -8 55.5t-29 43.5t-60 17q-48 0 -73 -29.5t-28 -73.5q-2 -25 -3 -61.5t3 -81.5q5 -46 35 -73
t84 -27q34 0 66 10.5t61 29.5l29 -80q-38 -26 -74 -37.5t-82 -11.5zM181 591l116 159h110l-115 -159h-111z" />
    <glyph glyph-name="ecircumflex" unicode="&#xea;" horiz-adv-x="494" 
d="M274 -10q-64 0 -110 22.5t-73 61.5t-34 88q-3 24 -4.5 45t-1.5 42q0 40 6 89q9 76 60 126t138 50q59 0 97.5 -20t60.5 -53.5t31 -75.5t9 -86l-20 -52h-334l-1 82h255q0 29 -8 55.5t-29 43.5t-60 17q-48 0 -73 -29.5t-28 -73.5q-2 -25 -3 -61.5t3 -81.5q5 -46 35 -73
t84 -27q34 0 66 10.5t61 29.5l29 -80q-38 -26 -74 -37.5t-82 -11.5zM109 591l91 159h108l92 -159h-96l-33 63l-11 34q-2 8 -5.5 8t-6.5 -8l-10 -34l-34 -63h-95z" />
    <glyph glyph-name="edieresis" unicode="&#xeb;" horiz-adv-x="494" 
d="M274 -10q-64 0 -110 22.5t-73 61.5t-34 88q-3 24 -4.5 45t-1.5 42q0 40 6 89q9 76 60 126t138 50q59 0 97.5 -20t60.5 -53.5t31 -75.5t9 -86l-20 -52h-334l-1 82h255q0 29 -8 55.5t-29 43.5t-60 17q-48 0 -73 -29.5t-28 -73.5q-2 -25 -3 -61.5t3 -81.5q5 -46 35 -73
t84 -27q34 0 66 10.5t61 29.5l29 -80q-38 -26 -74 -37.5t-82 -11.5zM296 591v109h102v-109h-102zM112 591v109h102v-109h-102z" />
    <glyph glyph-name="igrave" unicode="&#xec;" horiz-adv-x="301" 
d="M116 0v413h-78v91h186v-504h-108zM115 591l-116 159h111l115 -159h-110z" />
    <glyph glyph-name="iacute" unicode="&#xed;" horiz-adv-x="301" 
d="M116 0v413h-78v91h186v-504h-108zM79 591l116 159h110l-115 -159h-111z" />
    <glyph glyph-name="icircumflex" unicode="&#xee;" horiz-adv-x="306" 
d="M27 591l73 159h110l73 -159h-90l-26 63l-8 34q-2 8 -4.5 8t-4.5 -8l-9 -34l-24 -63h-90zM116 0v413h-78v91h186v-504h-108z" />
    <glyph glyph-name="idieresis" unicode="&#xef;" horiz-adv-x="306" 
d="M181 591v109h96v-109h-96zM26 591v109h96v-109h-96zM116 0v413h-78v91h186v-504h-108z" />
    <glyph glyph-name="eth" unicode="&#xf0;" horiz-adv-x="566" 
d="M187 493l-42 62l237 145l40 -60zM283 -12q-72 0 -126 29t-84.5 81t-30.5 121q0 73 30.5 122.5t78.5 74.5t99 25q7 0 15 -1l16 -2l45 -24q12 -6 15.5 0t-3.5 16l-185 270h128l150 -239q36 -57 56.5 -97.5t28.5 -74.5t8 -70q0 -69 -29.5 -121t-84 -81t-127.5 -29zM283 87
q62 0 99 36t36 96q0 60 -37 96t-98 36q-62 0 -98.5 -36t-36.5 -96t36.5 -96t98.5 -36z" />
    <glyph glyph-name="ntilde" unicode="&#xf1;" horiz-adv-x="549" 
d="M77 0v504h108v-29q22 18 53.5 29.5t69.5 11.5q49 0 87.5 -18.5t60 -53t21.5 -83.5v-361h-108v335q0 40 -21.5 62t-69.5 22q-46 0 -69.5 -22t-23.5 -62v-335h-108zM138 581l-27 69q19 25 42.5 36t51.5 11q35 0 56 -9t38.5 -18.5t40.5 -9.5q21 0 37 10t32 29l26 -69
q-18 -24 -42 -35.5t-52 -11.5q-34 0 -55.5 9.5t-39 18.5t-39.5 9q-21 0 -37.5 -9.5t-31.5 -29.5z" />
    <glyph glyph-name="ograve" unicode="&#xf2;" horiz-adv-x="525" 
d="M262 -11q-91 0 -143.5 49.5t-61.5 124.5q-6 48 -6 88q0 21 1.5 43t4.5 47q10 75 62 124.5t143 49.5q92 0 144.5 -49t61.5 -125q6 -49 6 -90q0 -40 -6 -88q-10 -75 -62 -124.5t-144 -49.5zM262 79q49 0 74.5 28.5t29.5 66.5q4 42 4 77t-4 78q-4 39 -29.5 67t-74.5 28
q-47 0 -73.5 -28t-29.5 -67q-4 -43 -3.5 -78t4.5 -77q4 -38 29.5 -66.5t72.5 -28.5zM225 591l-116 159h111l115 -159h-110z" />
    <glyph glyph-name="oacute" unicode="&#xf3;" horiz-adv-x="525" 
d="M262 -11q-91 0 -143.5 49.5t-61.5 124.5q-6 48 -6 88q0 21 1.5 43t4.5 47q10 75 62 124.5t143 49.5q92 0 144.5 -49t61.5 -125q6 -49 6 -90q0 -40 -6 -88q-10 -75 -62 -124.5t-144 -49.5zM262 79q49 0 74.5 28.5t29.5 66.5q4 42 4 77t-4 78q-4 39 -29.5 67t-74.5 28
q-47 0 -73.5 -28t-29.5 -67q-4 -43 -3.5 -78t4.5 -77q4 -38 29.5 -66.5t72.5 -28.5zM189 591l116 159h110l-115 -159h-111z" />
    <glyph glyph-name="ocircumflex" unicode="&#xf4;" horiz-adv-x="525" 
d="M262 -11q-91 0 -143.5 49.5t-61.5 124.5q-6 48 -6 88q0 21 1.5 43t4.5 47q10 75 62 124.5t143 49.5q92 0 144.5 -49t61.5 -125q6 -49 6 -90q0 -40 -6 -88q-10 -75 -62 -124.5t-144 -49.5zM262 79q49 0 74.5 28.5t29.5 66.5q4 42 4 77t-4 78q-4 39 -29.5 67t-74.5 28
q-47 0 -73.5 -28t-29.5 -67q-4 -43 -3.5 -78t4.5 -77q4 -38 29.5 -66.5t72.5 -28.5zM117 591l91 159h108l92 -159h-96l-33 63l-11 34q-2 8 -5.5 8t-6.5 -8l-10 -34l-34 -63h-95z" />
    <glyph glyph-name="otilde" unicode="&#xf5;" horiz-adv-x="525" 
d="M262 -11q-91 0 -143.5 49.5t-61.5 124.5q-6 48 -6 88q0 21 1.5 43t4.5 47q10 75 62 124.5t143 49.5q92 0 144.5 -49t61.5 -125q6 -49 6 -90q0 -40 -6 -88q-10 -75 -62 -124.5t-144 -49.5zM262 79q49 0 74.5 28.5t29.5 66.5q4 42 4 77t-4 78q-4 39 -29.5 67t-74.5 28
q-47 0 -73.5 -28t-29.5 -67q-4 -43 -3.5 -78t4.5 -77q4 -38 29.5 -66.5t72.5 -28.5zM127 581l-27 69q19 25 42.5 36t51.5 11q35 0 56 -9t38.5 -18.5t40.5 -9.5q21 0 37 10t32 29l26 -69q-18 -24 -42 -35.5t-52 -11.5q-34 0 -55.5 9.5t-39 18.5t-39.5 9q-21 0 -37.5 -9.5
t-31.5 -29.5z" />
    <glyph glyph-name="odieresis" unicode="&#xf6;" horiz-adv-x="525" 
d="M262 -11q-91 0 -143.5 49.5t-61.5 124.5q-6 48 -6 88q0 21 1.5 43t4.5 47q10 75 62 124.5t143 49.5q92 0 144.5 -49t61.5 -125q6 -49 6 -90q0 -40 -6 -88q-10 -75 -62 -124.5t-144 -49.5zM262 79q49 0 74.5 28.5t29.5 66.5q4 42 4 77t-4 78q-4 39 -29.5 67t-74.5 28
q-47 0 -73.5 -28t-29.5 -67q-4 -43 -3.5 -78t4.5 -77q4 -38 29.5 -66.5t72.5 -28.5zM304 591v109h102v-109h-102zM120 591v109h102v-109h-102z" />
    <glyph glyph-name="divide" unicode="&#xf7;" horiz-adv-x="588" 
d="M50 302v96h472v-96h-472zM230 82v120h113v-120h-113zM230 498v120h113v-120h-113z" />
    <glyph glyph-name="oslash" unicode="&#xf8;" horiz-adv-x="525" 
d="M262 -11q-91 0 -143.5 49.5t-61.5 124.5q-6 48 -6 88q0 21 1.5 43t4.5 47q10 75 62 124.5t143 49.5q92 0 144.5 -49t61.5 -125q6 -49 6 -90q0 -40 -6 -88q-10 -75 -62 -124.5t-144 -49.5zM262 79q49 0 74.5 28.5t29.5 66.5q4 42 4 77t-4 78q-4 39 -29.5 67t-74.5 28
q-47 0 -73.5 -28t-29.5 -67q-4 -43 -3.5 -78t4.5 -77q4 -38 29.5 -66.5t72.5 -28.5zM18 0l389 504h98l-388 -504h-99z" />
    <glyph glyph-name="ugrave" unicode="&#xf9;" horiz-adv-x="543" 
d="M232 -11q-48 0 -85.5 18t-59 53t-21.5 84v360h108v-334q0 -40 21.5 -62t68.5 -22q48 0 71 22t23 62v334h108v-504h-109v20q0 9 -5.5 11.5t-14.5 -2.5l-56 -34q-19 -6 -49 -6zM235 591l-116 159h111l115 -159h-110z" />
    <glyph glyph-name="uacute" unicode="&#xfa;" horiz-adv-x="543" 
d="M232 -11q-48 0 -85.5 18t-59 53t-21.5 84v360h108v-334q0 -40 21.5 -62t68.5 -22q48 0 71 22t23 62v334h108v-504h-109v20q0 9 -5.5 11.5t-14.5 -2.5l-56 -34q-19 -6 -49 -6zM199 591l116 159h110l-115 -159h-111z" />
    <glyph glyph-name="ucircumflex" unicode="&#xfb;" horiz-adv-x="543" 
d="M232 -11q-48 0 -85.5 18t-59 53t-21.5 84v360h108v-334q0 -40 21.5 -62t68.5 -22q48 0 71 22t23 62v334h108v-504h-109v20q0 9 -5.5 11.5t-14.5 -2.5l-56 -34q-19 -6 -49 -6zM127 591l91 159h108l92 -159h-96l-33 63l-11 34q-2 8 -5.5 8t-6.5 -8l-10 -34l-34 -63h-95z
" />
    <glyph glyph-name="udieresis" unicode="&#xfc;" horiz-adv-x="543" 
d="M232 -11q-48 0 -85.5 18t-59 53t-21.5 84v360h108v-334q0 -40 21.5 -62t68.5 -22q48 0 71 22t23 62v334h108v-504h-109v20q0 9 -5.5 11.5t-14.5 -2.5l-56 -34q-19 -6 -49 -6zM314 591v109h102v-109h-102zM130 591v109h102v-109h-102z" />
    <glyph glyph-name="yacute" unicode="&#xfd;" horiz-adv-x="475" 
d="M88 -218l-32 94q53 11 80.5 41t40.5 74l14 47l-175 466h111l97 -277l10 -69q1 -8 7.5 -8t7.5 8l12 69l78 277h109l-172 -550q-20 -67 -68.5 -112t-119.5 -60zM164 591l116 159h110l-115 -159h-111z" />
    <glyph glyph-name="thorn" unicode="&#xfe;" horiz-adv-x="543" 
d="M77 -200v900h108v-224q19 17 50 28t65 11q89 0 134.5 -45.5t53.5 -123.5q2 -26 3 -48t1 -45q0 -21 -1 -43.5t-3 -50.5q-7 -77 -52 -123t-132 -46q-14 0 -23 1.5t-20 3.5l-55 34q-9 5 -15 1.5t-6 -11.5v-219h-108zM282 80q51 0 73.5 26t25.5 62q4 42 4 84.5t-4 83.5
q-3 36 -26 61.5t-73 25.5q-48 0 -72.5 -21.5t-24.5 -58.5v-181q0 -36 25.5 -59t71.5 -23z" />
    <glyph glyph-name="ydieresis" unicode="&#xff;" horiz-adv-x="475" 
d="M88 -218l-32 94q53 11 80.5 41t40.5 74l14 47l-175 466h111l97 -277l10 -69q1 -8 7.5 -8t7.5 8l12 69l78 277h109l-172 -550q-20 -67 -68.5 -112t-119.5 -60zM279 591v109h102v-109h-102zM95 591v109h102v-109h-102z" />
    <glyph glyph-name="Amacron" unicode="&#x100;" 
d="M30 0l186 700h160l187 -700h-114l-137 544l-8 57q-1 7 -7.5 7t-7.5 -7l-8 -57l-137 -544h-114zM165 177l25 96h213l25 -96h-263zM106 605v95h133l-8 -95h-125zM158 775v81h270v-81h-270z" />
    <glyph glyph-name="amacron" unicode="&#x101;" horiz-adv-x="497" 
d="M372 -12l-33 47q-8 11 -17 2q-24 -20 -51.5 -33.5t-70.5 -13.5q-72 0 -114 40.5t-42 104.5q0 46 21 77.5t58.5 48t86.5 16.5h105v63q0 39 -24 61t-74 22q-37 0 -68 -11.5t-63 -33.5l-31 87q38 26 79.5 38.5t89.5 12.5q97 0 143.5 -48t46.5 -122v-233l47 -69zM215 73
q46 0 73 24.5t27 63.5v33q0 16 -18 11l-48 -11h-35q-33 0 -51.5 -15t-18.5 -42t19.5 -45.5t51.5 -18.5zM112 597v81h270v-81h-270z" />
    <glyph glyph-name="Abreve" unicode="&#x102;" 
d="M30 0l186 700h160l187 -700h-114l-137 544l-8 57q-1 7 -7.5 7t-7.5 -7l-8 -57l-137 -544h-114zM165 177l25 96h213l25 -96h-263zM106 605v95h133l-8 -95h-125zM294 779q-64 0 -106 30.5t-59 88.5l76 20q12 -31 33.5 -48.5t55.5 -17.5t55.5 17.5t32.5 48.5l76 -20
q-15 -58 -58 -88.5t-106 -30.5z" />
    <glyph glyph-name="abreve" unicode="&#x103;" horiz-adv-x="497" 
d="M372 -12l-33 47q-8 11 -17 2q-24 -20 -51.5 -33.5t-70.5 -13.5q-72 0 -114 40.5t-42 104.5q0 46 21 77.5t58.5 48t86.5 16.5h105v63q0 39 -24 61t-74 22q-37 0 -68 -11.5t-63 -33.5l-31 87q38 26 79.5 38.5t89.5 12.5q97 0 143.5 -48t46.5 -122v-233l47 -69zM215 73
q46 0 73 24.5t27 63.5v33q0 16 -18 11l-48 -11h-35q-33 0 -51.5 -15t-18.5 -42t19.5 -45.5t51.5 -18.5zM247 601q-64 0 -106 30.5t-59 88.5l76 20q12 -31 33.5 -48.5t55.5 -17.5t55.5 17.5t32.5 48.5l76 -20q-15 -58 -58 -88.5t-106 -30.5z" />
    <glyph glyph-name="Aogonek" unicode="&#x104;" 
d="M30 0l186 700h160l187 -700h-114l-137 544l-8 57q-1 7 -7.5 7t-7.5 -7l-8 -57l-137 -544h-114zM165 177l25 96h213l25 -96h-263zM106 605v95h133l-8 -95h-125zM594 -255q-57 4 -99 21t-65 50.5t-23 84.5q0 40 19.5 71.5t56.5 50.5l80 -23q-31 -17 -47 -39t-16 -53
q0 -43 29 -60.5t79 -22.5z" />
    <glyph glyph-name="aogonek" unicode="&#x105;" horiz-adv-x="497" 
d="M372 -12l-33 47q-8 11 -17 2q-24 -20 -51.5 -33.5t-70.5 -13.5q-72 0 -114 40.5t-42 104.5q0 46 21 77.5t58.5 48t86.5 16.5h105v63q0 39 -24 61t-74 22q-37 0 -68 -11.5t-63 -33.5l-31 87q38 26 79.5 38.5t89.5 12.5q97 0 143.5 -48t46.5 -122v-233l47 -69zM215 73
q46 0 73 24.5t27 63.5v33q0 16 -18 11l-48 -11h-35q-33 0 -51.5 -15t-18.5 -42t19.5 -45.5t51.5 -18.5zM478 -220q-57 4 -99 21t-65 50.5t-23 84.5q0 40 19.5 71.5t56.5 50.5l80 -23q-31 -17 -47 -39t-16 -53q0 -43 29 -60.5t79 -22.5z" />
    <glyph glyph-name="Cacute" unicode="&#x106;" horiz-adv-x="503" 
d="M310 -12q-72 0 -126.5 26.5t-86.5 77.5t-37 124q-2 29 -4 66t-2 68q0 32 2 68.5t4 65.5q5 73 36.5 124t85 77.5t124.5 26.5q46 0 85.5 -15t75.5 -44l-32 -89q-29 23 -58.5 34.5t-64.5 11.5q-64 0 -100 -35t-40 -100q-2 -35 -3.5 -64t-1.5 -61q0 -31 1.5 -60t3.5 -65
q5 -66 40 -100.5t98 -33.5q36 0 66 12t58 34l33 -92q-35 -28 -73.5 -42.5t-83.5 -14.5zM228 769l116 159h110l-115 -159h-111z" />
    <glyph glyph-name="cacute" unicode="&#x107;" horiz-adv-x="448" 
d="M264 -13q-93 0 -145.5 50t-61.5 125q-6 50 -6 90q0 21 1.5 42.5t4.5 46.5q10 76 62 125.5t144 49.5q45 0 80 -11.5t66 -34.5l-30 -82q-26 17 -52 26.5t-60 9.5q-49 0 -77.5 -27.5t-30.5 -66.5q-3 -44 -3.5 -79t3.5 -78q3 -38 31 -66t79 -28q30 0 58.5 8.5t56.5 26.5
l28 -79q-36 -25 -71.5 -36.5t-76.5 -11.5zM176 587l116 159h110l-115 -159h-111z" />
    <glyph glyph-name="Cdotaccent" unicode="&#x10a;" horiz-adv-x="503" 
d="M310 -12q-72 0 -126.5 26.5t-86.5 77.5t-37 124q-2 29 -4 66t-2 68q0 32 2 68.5t4 65.5q5 73 36.5 124t85 77.5t124.5 26.5q46 0 85.5 -15t75.5 -44l-32 -89q-29 23 -58.5 34.5t-64.5 11.5q-64 0 -100 -35t-40 -100q-2 -35 -3.5 -64t-1.5 -61q0 -31 1.5 -60t3.5 -65
q5 -66 40 -100.5t98 -33.5q36 0 66 12t58 34l33 -92q-35 -28 -73.5 -42.5t-83.5 -14.5zM247 769v109h108v-109h-108z" />
    <glyph glyph-name="cdotaccent" unicode="&#x10b;" horiz-adv-x="448" 
d="M264 -13q-93 0 -145.5 50t-61.5 125q-6 50 -6 90q0 21 1.5 42.5t4.5 46.5q10 76 62 125.5t144 49.5q45 0 80 -11.5t66 -34.5l-30 -82q-26 17 -52 26.5t-60 9.5q-49 0 -77.5 -27.5t-30.5 -66.5q-3 -44 -3.5 -79t3.5 -78q3 -38 31 -66t79 -28q30 0 58.5 8.5t56.5 26.5
l28 -79q-36 -25 -71.5 -36.5t-76.5 -11.5zM196 587v109h108v-109h-108z" />
    <glyph glyph-name="Ccaron" unicode="&#x10c;" horiz-adv-x="503" 
d="M310 -12q-72 0 -126.5 26.5t-86.5 77.5t-37 124q-2 29 -4 66t-2 68q0 32 2 68.5t4 65.5q5 73 36.5 124t85 77.5t124.5 26.5q46 0 85.5 -15t75.5 -44l-32 -89q-29 23 -58.5 34.5t-64.5 11.5q-64 0 -100 -35t-40 -100q-2 -35 -3.5 -64t-1.5 -61q0 -31 1.5 -60t3.5 -65
q5 -66 40 -100.5t98 -33.5q36 0 66 12t58 34l33 -92q-35 -28 -73.5 -42.5t-83.5 -14.5zM249 769l-93 159h93l36 -63l10 -34q3 -7 6.5 -7t5.5 7l11 34l36 63h93l-93 -159h-105z" />
    <glyph glyph-name="ccaron" unicode="&#x10d;" horiz-adv-x="448" 
d="M264 -13q-93 0 -145.5 50t-61.5 125q-6 50 -6 90q0 21 1.5 42.5t4.5 46.5q10 76 62 125.5t144 49.5q45 0 80 -11.5t66 -34.5l-30 -82q-26 17 -52 26.5t-60 9.5q-49 0 -77.5 -27.5t-30.5 -66.5q-3 -44 -3.5 -79t3.5 -78q3 -38 31 -66t79 -28q30 0 58.5 8.5t56.5 26.5
l28 -79q-36 -25 -71.5 -36.5t-76.5 -11.5zM197 587l-93 159h93l36 -63l10 -34q3 -7 6.5 -7t5.5 7l11 34l36 63h93l-93 -159h-105z" />
    <glyph glyph-name="Dcaron" unicode="&#x10e;" horiz-adv-x="597" 
d="M82 0v700h191q125 0 190 -62t74 -168q2 -27 3.5 -59t1.5 -61t-1.5 -61t-3.5 -59q-8 -106 -73.5 -168t-190.5 -62h-191zM194 95h79q79 0 115.5 42t41.5 107q3 32 3.5 55t0.5 51t-0.5 50.5t-3.5 55.5q-5 65 -41.5 107t-115.5 42h-79v-510zM246 769l-93 159h93l36 -63
l10 -34q3 -7 6.5 -7t5.5 7l11 34l36 63h93l-93 -159h-105z" />
    <glyph glyph-name="dcaron" unicode="&#x10f;" horiz-adv-x="541" 
d="M239 -10q-87 0 -132 46t-52 123q-2 28 -3 50.5t-1 43.5q0 23 1 45t3 48q8 78 54 123.5t134 45.5q34 0 65.5 -10t49.5 -26v271h108v-750h-108v20q0 9 -5.5 11.5t-15.5 -2.5l-55 -34q-10 -2 -19.5 -3.5t-23.5 -1.5zM261 80q47 0 72 23t25 59v181q0 37 -24 58.5t-73 21.5
t-72 -25.5t-27 -61.5q-4 -41 -4 -83.5t4 -84.5q3 -36 26 -62t73 -26zM582 750h101l-99 -159h-84z" />
    <glyph glyph-name="Dcroat" unicode="&#x110;" horiz-adv-x="617" 
d="M0 306v87h310v-87h-310zM102 0v700h191q125 0 190 -62t74 -168q2 -27 3.5 -59t1.5 -61t-1.5 -61t-3.5 -59q-8 -106 -73.5 -168t-190.5 -62h-191zM214 95h79q79 0 115.5 42t41.5 107q3 32 3.5 55t0.5 51t-0.5 50.5t-3.5 55.5q-5 65 -41.5 107t-115.5 42h-79v-510z" />
    <glyph glyph-name="dcroat" unicode="&#x111;" horiz-adv-x="541" 
d="M239 -10q-87 0 -132 46t-52 123q-2 28 -3 50.5t-1 43.5q0 23 1 45t3 48q8 78 54 123.5t134 45.5q34 0 65.5 -10t49.5 -26v271h108v-750h-108v20q0 9 -5.5 11.5t-15.5 -2.5l-55 -34q-10 -2 -19.5 -3.5t-23.5 -1.5zM261 80q47 0 72 23t25 59v181q0 37 -24 58.5t-73 21.5
t-72 -25.5t-27 -61.5q-4 -41 -4 -83.5t4 -84.5q3 -36 26 -62t73 -26zM256 568v87h310v-87h-310z" />
    <glyph glyph-name="Emacron" unicode="&#x112;" horiz-adv-x="552" 
d="M82 0v700h414v-102h-310v-199h293v-98h-293v-199h310v-102h-414zM161 775v81h270v-81h-270z" />
    <glyph glyph-name="emacron" unicode="&#x113;" horiz-adv-x="494" 
d="M274 -10q-64 0 -110 22.5t-73 61.5t-34 88q-3 24 -4.5 45t-1.5 42q0 40 6 89q9 76 60 126t138 50q59 0 97.5 -20t60.5 -53.5t31 -75.5t9 -86l-20 -52h-334l-1 82h255q0 29 -8 55.5t-29 43.5t-60 17q-48 0 -73 -29.5t-28 -73.5q-2 -25 -3 -61.5t3 -81.5q5 -46 35 -73
t84 -27q34 0 66 10.5t61 29.5l29 -80q-38 -26 -74 -37.5t-82 -11.5zM119 597v81h270v-81h-270z" />
    <glyph glyph-name="Edotaccent" unicode="&#x116;" horiz-adv-x="552" 
d="M82 0v700h414v-102h-310v-199h293v-98h-293v-199h310v-102h-414zM242 769v109h108v-109h-108z" />
    <glyph glyph-name="edotaccent" unicode="&#x117;" horiz-adv-x="494" 
d="M274 -10q-64 0 -110 22.5t-73 61.5t-34 88q-3 24 -4.5 45t-1.5 42q0 40 6 89q9 76 60 126t138 50q59 0 97.5 -20t60.5 -53.5t31 -75.5t9 -86l-20 -52h-334l-1 82h255q0 29 -8 55.5t-29 43.5t-60 17q-48 0 -73 -29.5t-28 -73.5q-2 -25 -3 -61.5t3 -81.5q5 -46 35 -73
t84 -27q34 0 66 10.5t61 29.5l29 -80q-38 -26 -74 -37.5t-82 -11.5zM201 591v109h108v-109h-108z" />
    <glyph glyph-name="Eogonek" unicode="&#x118;" horiz-adv-x="552" 
d="M82 0v700h414v-102h-310v-199h293v-98h-293v-199h310v-102h-414zM527 -255q-57 4 -99 21t-65 50.5t-23 84.5q0 40 19.5 71.5t56.5 50.5l80 -23q-31 -17 -47 -39t-16 -53q0 -43 29 -60.5t79 -22.5z" />
    <glyph glyph-name="eogonek" unicode="&#x119;" horiz-adv-x="494" 
d="M274 -10q-64 0 -110 22.5t-73 61.5t-34 88q-3 24 -4.5 45t-1.5 42q0 40 6 89q9 76 60 126t138 50q59 0 97.5 -20t60.5 -53.5t31 -75.5t9 -86l-20 -52h-334l-1 82h255q0 29 -8 55.5t-29 43.5t-60 17q-48 0 -73 -29.5t-28 -73.5q-2 -25 -3 -61.5t3 -81.5q5 -46 35 -73
t84 -27q34 0 66 10.5t61 29.5l29 -80q-38 -26 -74 -37.5t-82 -11.5zM409 -245q-57 4 -99 21t-65 50.5t-23 84.5q0 40 19.5 71.5t56.5 50.5l80 -23q-31 -17 -47 -39t-16 -53q0 -43 29 -60.5t79 -22.5z" />
    <glyph glyph-name="Ecaron" unicode="&#x11a;" horiz-adv-x="552" 
d="M82 0v700h414v-102h-310v-199h293v-98h-293v-199h310v-102h-414zM244 769l-93 159h93l36 -63l10 -34q3 -7 6.5 -7t5.5 7l11 34l36 63h93l-93 -159h-105z" />
    <glyph glyph-name="ecaron" unicode="&#x11b;" horiz-adv-x="494" 
d="M274 -10q-64 0 -110 22.5t-73 61.5t-34 88q-3 24 -4.5 45t-1.5 42q0 40 6 89q9 76 60 126t138 50q59 0 97.5 -20t60.5 -53.5t31 -75.5t9 -86l-20 -52h-334l-1 82h255q0 29 -8 55.5t-29 43.5t-60 17q-48 0 -73 -29.5t-28 -73.5q-2 -25 -3 -61.5t3 -81.5q5 -46 35 -73
t84 -27q34 0 66 10.5t61 29.5l29 -80q-38 -26 -74 -37.5t-82 -11.5zM202 591l-93 159h93l36 -63l10 -34q3 -7 6.5 -7t5.5 7l11 34l36 63h93l-93 -159h-105z" />
    <glyph glyph-name="Gbreve" unicode="&#x11e;" horiz-adv-x="599" 
d="M315 -11q-115 -1 -180 57.5t-75 167.5q-2 29 -4 67t-2 69q0 32 1.5 69.5t3.5 66.5q12 114 81 170t182 56q109 0 183 -61l-35 -92q-33 28 -68.5 39.5t-79.5 11.5q-73 0 -111.5 -35t-43.5 -105q-2 -32 -3.5 -60.5t-1.5 -59.5t1.5 -59.5t3.5 -64.5q5 -63 41.5 -98.5
t102.5 -36.5q25 0 50.5 3.5t40.5 10.5v194h-76v102h247v-102h-69v-256q-35 -25 -80 -39t-109 -15zM298 779q-64 0 -106 30.5t-59 88.5l76 20q12 -31 33.5 -48.5t55.5 -17.5t55.5 17.5t32.5 48.5l76 -20q-15 -58 -58 -88.5t-106 -30.5z" />
    <glyph glyph-name="gbreve" unicode="&#x11f;" horiz-adv-x="538" 
d="M249 -207q-34 0 -61 4t-51.5 14t-51.5 25l28 82q22 -13 41 -20.5t41.5 -10.5t52.5 -3q50 0 80 23.5t30 69.5v43q0 10 -5.5 12t-13.5 -3l-58 -34q-11 -2 -20.5 -3.5t-25.5 -1.5q-81 0 -127 46t-53 123q-2 28 -3 50.5t-1 43.5q0 23 1 45t3 48q7 78 53 123.5t135 45.5
q34 0 65 -11t50 -28v28h108v-527q0 -47 -23.5 -89t-71.5 -68.5t-122 -26.5zM261 80q47 0 72 22.5t25 59.5v181q0 37 -24.5 58.5t-72.5 21.5q-50 0 -72.5 -25.5t-26.5 -61.5q-4 -42 -4 -84.5t4 -83.5q3 -37 25.5 -62.5t73.5 -25.5zM267 601q-64 0 -106 30.5t-59 88.5l76 20
q12 -31 33.5 -48.5t55.5 -17.5t55.5 17.5t32.5 48.5l76 -20q-15 -58 -58 -88.5t-106 -30.5z" />
    <glyph glyph-name="Gdotaccent" unicode="&#x120;" horiz-adv-x="599" 
d="M315 -11q-115 -1 -180 57.5t-75 167.5q-2 29 -4 67t-2 69q0 32 1.5 69.5t3.5 66.5q12 114 81 170t182 56q109 0 183 -61l-35 -92q-33 28 -68.5 39.5t-79.5 11.5q-73 0 -111.5 -35t-43.5 -105q-2 -32 -3.5 -60.5t-1.5 -59.5t1.5 -59.5t3.5 -64.5q5 -63 41.5 -98.5
t102.5 -36.5q25 0 50.5 3.5t40.5 10.5v194h-76v102h247v-102h-69v-256q-35 -25 -80 -39t-109 -15zM244 769v109h108v-109h-108z" />
    <glyph glyph-name="gdotaccent" unicode="&#x121;" horiz-adv-x="538" 
d="M249 -207q-34 0 -61 4t-51.5 14t-51.5 25l28 82q22 -13 41 -20.5t41.5 -10.5t52.5 -3q50 0 80 23.5t30 69.5v43q0 10 -5.5 12t-13.5 -3l-58 -34q-11 -2 -20.5 -3.5t-25.5 -1.5q-81 0 -127 46t-53 123q-2 28 -3 50.5t-1 43.5q0 23 1 45t3 48q7 78 53 123.5t135 45.5
q34 0 65 -11t50 -28v28h108v-527q0 -47 -23.5 -89t-71.5 -68.5t-122 -26.5zM261 80q47 0 72 22.5t25 59.5v181q0 37 -24.5 58.5t-72.5 21.5q-50 0 -72.5 -25.5t-26.5 -61.5q-4 -42 -4 -84.5t4 -83.5q3 -37 25.5 -62.5t73.5 -25.5zM213 591v109h108v-109h-108z" />
    <glyph glyph-name="uni0122" unicode="&#x122;" horiz-adv-x="599" 
d="M315 -11q-115 -1 -180 57.5t-75 167.5q-2 29 -4 67t-2 69q0 32 1.5 69.5t3.5 66.5q12 114 81 170t182 56q109 0 183 -61l-35 -92q-33 28 -68.5 39.5t-79.5 11.5q-73 0 -111.5 -35t-43.5 -105q-2 -32 -3.5 -60.5t-1.5 -59.5t1.5 -59.5t3.5 -64.5q5 -63 41.5 -98.5
t102.5 -36.5q25 0 50.5 3.5t40.5 10.5v194h-76v102h247v-102h-69v-256q-35 -25 -80 -39t-109 -15zM239 -326l-67 49q36 26 56 54t28 63.5t8 82.5h91q0 -59 -10.5 -103t-35.5 -78.5t-70 -67.5z" />
    <glyph glyph-name="uni0123" unicode="&#x123;" horiz-adv-x="538" 
d="M249 -207q-34 0 -61 4t-51.5 14t-51.5 25l28 82q22 -13 41 -20.5t41.5 -10.5t52.5 -3q50 0 80 23.5t30 69.5v43q0 10 -5.5 12t-13.5 -3l-58 -34q-11 -2 -20.5 -3.5t-25.5 -1.5q-81 0 -127 46t-53 123q-2 28 -3 50.5t-1 43.5q0 23 1 45t3 48q7 78 53 123.5t135 45.5
q34 0 65 -11t50 -28v28h108v-527q0 -47 -23.5 -89t-71.5 -68.5t-122 -26.5zM261 80q47 0 72 22.5t25 59.5v181q0 37 -24.5 58.5t-72.5 21.5q-50 0 -72.5 -25.5t-26.5 -61.5q-4 -42 -4 -84.5t4 -83.5q3 -37 25.5 -62.5t73.5 -25.5zM370 903l-11 -56q-65 -7 -100 -45t-37 -97
h69v-118h-133v97q0 68 28 114.5t76 73t108 31.5z" />
    <glyph glyph-name="Hbar" unicode="&#x126;" horiz-adv-x="628" 
d="M-20 494v87h667v-87h-667zM82 0v700h113v-299h237v299h114v-700h-114v299h-237v-299h-113z" />
    <glyph glyph-name="hbar" unicode="&#x127;" horiz-adv-x="547" 
d="M77 0v750h106v-271q22 15 54 26t71 11q48 0 86 -18.5t59.5 -53.5t21.5 -83v-361h-107v331q0 42 -22 65t-67 23q-48 0 -72 -23t-24 -65v-331h-106zM-25 567v87h310v-87h-310z" />
    <glyph glyph-name="Imacron" unicode="&#x12a;" horiz-adv-x="431" 
d="M50 0v97h109v506h-109v97h331v-97h-109v-506h109v-97h-331zM81 775v81h270v-81h-270z" />
    <glyph glyph-name="imacron" unicode="&#x12b;" horiz-adv-x="301" 
d="M116 0v413h-78v91h186v-504h-108zM18 597v81h270v-81h-270z" />
    <glyph glyph-name="Iogonek" unicode="&#x12e;" horiz-adv-x="431" 
d="M50 0v97h109v506h-109v97h331v-97h-109v-506h109v-97h-331zM412 -255q-57 4 -99 21t-65 50.5t-23 84.5q0 40 19.5 71.5t56.5 50.5l80 -23q-31 -17 -47 -39t-16 -53q0 -43 29 -60.5t79 -22.5z" />
    <glyph glyph-name="iogonek" unicode="&#x12f;" horiz-adv-x="301" 
d="M116 0v413h-78v91h186v-504h-108zM99 591v109h108v-109h-108zM254 -255q-57 4 -99 21t-65 50.5t-23 84.5q0 40 19.5 71.5t56.5 50.5l80 -23q-31 -17 -47 -39t-16 -53q0 -43 29 -60.5t79 -22.5z" />
    <glyph glyph-name="Idotaccent" unicode="&#x130;" horiz-adv-x="431" 
d="M50 0v97h109v506h-109v97h331v-97h-109v-506h109v-97h-331zM162 769v109h108v-109h-108z" />
    <glyph glyph-name="dotlessi" unicode="&#x131;" horiz-adv-x="301" 
d="M116 0v413h-78v91h186v-504h-108z" />
    <glyph glyph-name="IJ" unicode="&#x132;" horiz-adv-x="907" 
d="M606 -6q-39 0 -79 9.5t-72 26.5v103q35 -18 69 -27.5t68 -9.5q64 0 94 26t30 76v404h-152v98h264v-502q0 -97 -60 -150.5t-162 -53.5zM50 0v97h109v506h-109v97h331v-97h-109v-506h109v-97h-331z" />
    <glyph glyph-name="ij" unicode="&#x133;" horiz-adv-x="602" 
d="M116 0v413h-78v91h186v-504h-108zM116 591v109h108v-109h-108zM353 -222l-30 93q43 12 68.5 45t25.5 90v407h-78v91h186v-495q0 -53 -13.5 -92.5t-37 -67t-55 -45.5t-66.5 -26zM417 591v109h107v-109h-107z" />
    <glyph glyph-name="uni0136" unicode="&#x136;" horiz-adv-x="557" 
d="M82 0v700h111v-301h68l148 301h121l-175 -342l174 -358h-120l-148 302h-68v-302h-111zM217 -326l-67 49q36 26 56 54t28 63.5t8 82.5h91q0 -59 -10.5 -103t-35.5 -78.5t-70 -67.5z" />
    <glyph glyph-name="uni0137" unicode="&#x137;" horiz-adv-x="495" 
d="M77 0v750h107v-424h49l113 178h119l-140 -217l144 -287h-118l-111 233h-56v-233h-107zM185 -326l-67 49q36 26 56 54t28 63.5t8 82.5h91q0 -59 -10.5 -103t-35.5 -78.5t-70 -67.5z" />
    <glyph glyph-name="Lacute" unicode="&#x139;" horiz-adv-x="449" 
d="M82 0v700h113v-598h228v-102h-341zM151 769l116 159h110l-115 -159h-111z" />
    <glyph glyph-name="lacute" unicode="&#x13a;" horiz-adv-x="287" 
d="M193 0q-52 0 -84 31.5t-32 81.5v637h106v-627q0 -13 7.5 -21t19.5 -8h46v-94h-63zM60 837l116 159h110l-115 -159h-111z" />
    <glyph glyph-name="uni013B" unicode="&#x13b;" horiz-adv-x="449" 
d="M82 0v700h113v-598h228v-102h-341zM189 -326l-67 49q36 26 56 54t28 63.5t8 82.5h91q0 -59 -10.5 -103t-35.5 -78.5t-70 -67.5z" />
    <glyph glyph-name="uni013C" unicode="&#x13c;" horiz-adv-x="287" 
d="M193 0q-52 0 -84 31.5t-32 81.5v637h106v-627q0 -13 7.5 -21t19.5 -8h46v-94h-63zM82 -326l-67 49q36 26 56 54t28 63.5t8 82.5h91q0 -59 -10.5 -103t-35.5 -78.5t-70 -67.5z" />
    <glyph glyph-name="Lcaron" unicode="&#x13d;" horiz-adv-x="449" 
d="M82 0v700h113v-598h228v-102h-341zM376 700h101l-99 -159h-84z" />
    <glyph glyph-name="lcaron" unicode="&#x13e;" horiz-adv-x="287" 
d="M193 0q-52 0 -84 31.5t-32 81.5v637h106v-627q0 -13 7.5 -21t19.5 -8h46v-94h-63zM299 750h101l-99 -159h-84z" />
    <glyph glyph-name="Lslash" unicode="&#x141;" horiz-adv-x="469" 
d="M24 231v100l330 228v-100zM102 0v700h113v-598h228v-102h-341z" />
    <glyph glyph-name="lslash" unicode="&#x142;" horiz-adv-x="317" 
d="M27 269v100l275 190v-100zM213 0q-52 0 -84 31.5t-32 81.5v637h106v-627q0 -13 7.5 -21t19.5 -8h46v-94h-63z" />
    <glyph glyph-name="Nacute" unicode="&#x143;" horiz-adv-x="630" 
d="M82 0v700h93l263 -483q5 -7 10.5 -4t4.5 10l-13 75v402h108v-700h-100l-255 465q-4 8 -10 6t-5 -10l12 -75v-386h-108zM242 787l116 159h110l-115 -159h-111z" />
    <glyph glyph-name="nacute" unicode="&#x144;" horiz-adv-x="549" 
d="M77 0v504h108v-29q22 18 53.5 29.5t69.5 11.5q49 0 87.5 -18.5t60 -53t21.5 -83.5v-361h-108v335q0 40 -21.5 62t-69.5 22q-46 0 -69.5 -22t-23.5 -62v-335h-108zM200 591l116 159h110l-115 -159h-111z" />
    <glyph glyph-name="uni0145" unicode="&#x145;" horiz-adv-x="630" 
d="M82 0v700h93l263 -483q5 -7 10.5 -4t4.5 10l-13 75v402h108v-700h-100l-255 465q-4 8 -10 6t-5 -10l12 -75v-386h-108zM252 -326l-67 49q36 26 56 54t28 63.5t8 82.5h91q0 -59 -10.5 -103t-35.5 -78.5t-70 -67.5z" />
    <glyph glyph-name="uni0146" unicode="&#x146;" horiz-adv-x="549" 
d="M77 0v504h108v-29q22 18 53.5 29.5t69.5 11.5q49 0 87.5 -18.5t60 -53t21.5 -83.5v-361h-108v335q0 40 -21.5 62t-69.5 22q-46 0 -69.5 -22t-23.5 -62v-335h-108zM210 -326l-67 49q36 26 56 54t28 63.5t8 82.5h91q0 -59 -10.5 -103t-35.5 -78.5t-70 -67.5z" />
    <glyph glyph-name="Ncaron" unicode="&#x147;" horiz-adv-x="630" 
d="M82 0v700h93l263 -483q5 -7 10.5 -4t4.5 10l-13 75v402h108v-700h-100l-255 465q-4 8 -10 6t-5 -10l12 -75v-386h-108zM263 787l-93 159h93l36 -63l10 -34q3 -7 6.5 -7t5.5 7l11 34l36 63h93l-93 -159h-105z" />
    <glyph glyph-name="ncaron" unicode="&#x148;" horiz-adv-x="549" 
d="M77 0v504h108v-29q22 18 53.5 29.5t69.5 11.5q49 0 87.5 -18.5t60 -53t21.5 -83.5v-361h-108v335q0 40 -21.5 62t-69.5 22q-46 0 -69.5 -22t-23.5 -62v-335h-108zM220 591l-93 159h93l36 -63l10 -34q3 -7 6.5 -7t5.5 7l11 34l36 63h93l-93 -159h-105z" />
    <glyph glyph-name="Eng" unicode="&#x14a;" horiz-adv-x="630" 
d="M364 -215q-36 0 -69 13t-62 36l41 87q19 -17 42 -26.5t50 -9.5q34 -1 54 18t20 52v527h108v-527q0 -80 -50 -125t-134 -45zM82 0v700h93l263 -483q5 -7 10.5 -4t4.5 10l-13 75v402h108v-700h-100l-255 465q-4 8 -10 6t-5 -10l12 -75v-386h-108z" />
    <glyph glyph-name="eng" unicode="&#x14b;" horiz-adv-x="549" 
d="M306 -222l-31 93q44 11 69 43t25 86v335q0 40 -21.5 62t-69.5 22q-46 0 -69.5 -22t-23.5 -62v-335h-108v504h108v-29q22 18 53.5 29.5t69.5 11.5q49 0 87.5 -18.5t60 -53t21.5 -83.5v-361q0 -50 -13.5 -88t-37 -65t-54.5 -44t-66 -25z" />
    <glyph glyph-name="Omacron" unicode="&#x14c;" horiz-adv-x="612" 
d="M306 -12q-53 0 -98 16t-78 50q-22 23 -39.5 56t-27 90t-9.5 150t9.5 150t27 90.5t39.5 55.5q33 34 78 50t98 16t98 -16t77 -50q23 -22 40 -55.5t26.5 -90.5t9.5 -150t-9.5 -150t-26.5 -90t-40 -56q-32 -34 -77 -50t-98 -16zM306 91q61 0 95 34.5t38 93.5q2 38 3.5 69
t1.5 62q0 32 -1.5 63t-3.5 68q-4 59 -38 93.5t-95 34.5q-62 0 -96 -34.5t-37 -93.5q-3 -37 -4.5 -68t-1.5 -63q0 -31 1.5 -62t4.5 -69q3 -59 37 -93.5t96 -34.5zM171 775v81h270v-81h-270z" />
    <glyph glyph-name="omacron" unicode="&#x14d;" horiz-adv-x="525" 
d="M262 -11q-91 0 -143.5 49.5t-61.5 124.5q-6 48 -6 88q0 21 1.5 43t4.5 47q10 75 62 124.5t143 49.5q92 0 144.5 -49t61.5 -125q6 -49 6 -90q0 -40 -6 -88q-10 -75 -62 -124.5t-144 -49.5zM262 79q49 0 74.5 28.5t29.5 66.5q4 42 4 77t-4 78q-4 39 -29.5 67t-74.5 28
q-47 0 -73.5 -28t-29.5 -67q-4 -43 -3.5 -78t4.5 -77q4 -38 29.5 -66.5t72.5 -28.5zM128 597v81h270v-81h-270z" />
    <glyph glyph-name="Ohungarumlaut" unicode="&#x150;" horiz-adv-x="612" 
d="M306 -12q-53 0 -98 16t-78 50q-22 23 -39.5 56t-27 90t-9.5 150t9.5 150t27 90.5t39.5 55.5q33 34 78 50t98 16t98 -16t77 -50q23 -22 40 -55.5t26.5 -90.5t9.5 -150t-9.5 -150t-26.5 -90t-40 -56q-32 -34 -77 -50t-98 -16zM306 91q61 0 95 34.5t38 93.5q2 38 3.5 69
t1.5 62q0 32 -1.5 63t-3.5 68q-4 59 -38 93.5t-95 34.5q-62 0 -96 -34.5t-37 -93.5q-3 -37 -4.5 -68t-1.5 -63q0 -31 1.5 -62t4.5 -69q3 -59 37 -93.5t96 -34.5zM144 769l116 159h110l-115 -159h-111zM336 769l116 159h110l-115 -159h-111z" />
    <glyph glyph-name="ohungarumlaut" unicode="&#x151;" horiz-adv-x="525" 
d="M262 -11q-91 0 -143.5 49.5t-61.5 124.5q-6 48 -6 88q0 21 1.5 43t4.5 47q10 75 62 124.5t143 49.5q92 0 144.5 -49t61.5 -125q6 -49 6 -90q0 -40 -6 -88q-10 -75 -62 -124.5t-144 -49.5zM262 79q49 0 74.5 28.5t29.5 66.5q4 42 4 77t-4 78q-4 39 -29.5 67t-74.5 28
q-47 0 -73.5 -28t-29.5 -67q-4 -43 -3.5 -78t4.5 -77q4 -38 29.5 -66.5t72.5 -28.5zM101 591l116 159h110l-115 -159h-111zM293 591l116 159h110l-115 -159h-111z" />
    <glyph glyph-name="OE" unicode="&#x152;" horiz-adv-x="924" 
d="M306 -12q-53 0 -98 16t-78 50q-22 23 -39.5 56t-27 90t-9.5 150t9.5 150t27 90.5t39.5 55.5q33 34 78 50t98 16q61 0 109 -23l27 -22q5 -5 8.5 -3t3.5 9v27h414v-102h-309v-199h292v-98h-292v-199h309v-102h-414v27q0 7 -3.5 9t-8.5 -3l-30 -23q-22 -11 -49.5 -16.5
t-56.5 -5.5zM306 91q61 0 95 34.5t38 93.5q2 38 3.5 69t1.5 62q0 32 -1.5 63t-3.5 68q-4 59 -38 93.5t-95 34.5q-62 0 -96 -34.5t-37 -93.5q-3 -37 -4.5 -68t-1.5 -63q0 -31 1.5 -62t4.5 -69q3 -59 37 -93.5t96 -34.5z" />
    <glyph glyph-name="oe" unicode="&#x153;" horiz-adv-x="818" 
d="M262 -11q-91 0 -143.5 49.5t-61.5 124.5q-6 48 -6 88q0 21 1.5 43t4.5 47q10 75 62 124.5t143 49.5q45 0 79 -13t58 -35l17 -28q3 -5 7.5 -5t7.5 5l18 28q25 21 57 34t73 13q59 0 97 -20t60.5 -53.5t31.5 -75.5t9 -86l-21 -52h-280q0 -11 0.5 -23t2.5 -25q5 -46 34.5 -73
t84.5 -27q34 0 65.5 10.5t61.5 29.5l29 -80q-38 -26 -74 -37.5t-82 -11.5q-49 0 -87 13.5t-64 38.5l-14 25q-3 6 -7.5 6t-7.5 -6l-13 -25q-24 -24 -60 -38.5t-83 -14.5zM262 79q49 0 74.5 28.5t29.5 66.5q4 42 4 77t-4 78q-4 39 -29.5 67t-74.5 28q-47 0 -73.5 -28
t-29.5 -67q-4 -43 -3.5 -78t4.5 -77q4 -38 29.5 -66.5t72.5 -28.5zM478 309h199q-1 29 -8.5 55.5t-29 43.5t-59.5 17q-50 0 -75 -31.5t-27 -84.5z" />
    <glyph glyph-name="Racute" unicode="&#x154;" horiz-adv-x="578" 
d="M82 0v700h241q103 0 160.5 -53t57.5 -150q0 -69 -34.5 -117.5t-95.5 -68.5q-15 -4 -5 -19l31 -49l89 -243h-117l-109 299h-106v-299h-112zM193 394h132q52 0 81.5 27t29.5 76q0 52 -29.5 80.5t-81.5 28.5h-132v-212zM216 769l116 159h110l-115 -159h-111z" />
    <glyph glyph-name="racute" unicode="&#x155;" horiz-adv-x="373" 
d="M86 0v374l-57 84l92 58l38 -57q6 -8 12 -8t13 7q26 25 66 41.5t96 16.5h13v-102q-87 0 -127 -30.5t-40 -83.5v-300h-106zM117 587l116 159h110l-115 -159h-111z" />
    <glyph glyph-name="uni0156" unicode="&#x156;" horiz-adv-x="578" 
d="M82 0v700h241q103 0 160.5 -53t57.5 -150q0 -69 -34.5 -117.5t-95.5 -68.5q-15 -4 -5 -19l31 -49l89 -243h-117l-109 299h-106v-299h-112zM193 394h132q52 0 81.5 27t29.5 76q0 52 -29.5 80.5t-81.5 28.5h-132v-212zM226 -326l-67 49q36 26 56 54t28 63.5t8 82.5h91
q0 -59 -10.5 -103t-35.5 -78.5t-70 -67.5z" />
    <glyph glyph-name="uni0157" unicode="&#x157;" horiz-adv-x="373" 
d="M86 0v374l-57 84l92 58l38 -57q6 -8 12 -8t13 7q26 25 66 41.5t96 16.5h13v-102q-87 0 -127 -30.5t-40 -83.5v-300h-106zM100 -326l-67 49q36 26 56 54t28 63.5t8 82.5h91q0 -59 -10.5 -103t-35.5 -78.5t-70 -67.5z" />
    <glyph glyph-name="Rcaron" unicode="&#x158;" horiz-adv-x="578" 
d="M82 0v700h241q103 0 160.5 -53t57.5 -150q0 -69 -34.5 -117.5t-95.5 -68.5q-15 -4 -5 -19l31 -49l89 -243h-117l-109 299h-106v-299h-112zM193 394h132q52 0 81.5 27t29.5 76q0 52 -29.5 80.5t-81.5 28.5h-132v-212zM236 769l-93 159h93l36 -63l10 -34q3 -7 6.5 -7t5.5 7
l11 34l36 63h93l-93 -159h-105z" />
    <glyph glyph-name="rcaron" unicode="&#x159;" horiz-adv-x="373" 
d="M86 0v374l-57 84l92 58l38 -57q6 -8 12 -8t13 7q26 25 66 41.5t96 16.5h13v-102q-87 0 -127 -30.5t-40 -83.5v-300h-106zM138 587l-93 159h93l36 -63l10 -34q3 -7 6.5 -7t5.5 7l11 34l36 63h93l-93 -159h-105z" />
    <glyph glyph-name="Sacute" unicode="&#x15a;" horiz-adv-x="510" 
d="M245 -10q-62 0 -115 17.5t-95 48.5l37 92q38 -28 80 -42.5t89 -14.5q62 0 95 30t33 81q0 42 -24 72.5t-78 36.5l-43 5q-55 6 -97 29.5t-65 63.5t-23 97q0 60 28 106.5t81.5 72.5t129.5 26q52 0 99.5 -14t83.5 -39l-32 -89q-36 23 -74 32.5t-75 9.5q-66 0 -99 -28t-33 -70
q0 -44 24 -66.5t66 -26.5l45 -5q94 -11 144 -66t50 -142q0 -65 -27.5 -114.5t-79 -76t-125.5 -26.5zM182 769l116 159h110l-115 -159h-111z" />
    <glyph glyph-name="sacute" unicode="&#x15b;" horiz-adv-x="461" 
d="M231 -12q-52 0 -96 14.5t-86 42.5l33 84q28 -19 52 -29.5t47.5 -15.5t49.5 -5q47 0 70 19.5t23 51.5q0 24 -17.5 41t-52.5 19l-57 4q-63 4 -105.5 37.5t-42.5 102.5q0 75 51.5 118.5t137.5 43.5q48 0 88.5 -10.5t77.5 -34.5l-32 -82q-27 18 -59.5 27t-73.5 9
q-46 0 -69.5 -17t-23.5 -48q0 -24 17 -37.5t44 -15.5l57 -4q74 -4 115.5 -42.5t41.5 -106.5q0 -75 -50.5 -120.5t-139.5 -45.5zM157 591l116 159h110l-115 -159h-111z" />
    <glyph glyph-name="Scedilla" unicode="&#x15e;" horiz-adv-x="510" 
d="M245 -10q-62 0 -115 17.5t-95 48.5l37 92q38 -28 80 -42.5t89 -14.5q62 0 95 30t33 81q0 42 -24 72.5t-78 36.5l-43 5q-55 6 -97 29.5t-65 63.5t-23 97q0 60 28 106.5t81.5 72.5t129.5 26q52 0 99.5 -14t83.5 -39l-32 -89q-36 23 -74 32.5t-75 9.5q-66 0 -99 -28t-33 -70
q0 -44 24 -66.5t66 -26.5l45 -5q94 -11 144 -66t50 -142q0 -65 -27.5 -114.5t-79 -76t-125.5 -26.5zM144 -254l19 70q57 0 89.5 12.5t32.5 32.5q0 19 -24.5 25t-81.5 6l33 135l68 -25l-13 -50q45 -6 71.5 -29.5t26.5 -57.5q0 -39 -30 -65.5t-80 -40t-111 -13.5z" />
    <glyph glyph-name="scedilla" unicode="&#x15f;" horiz-adv-x="461" 
d="M231 -12q-52 0 -96 14.5t-86 42.5l33 84q28 -19 52 -29.5t47.5 -15.5t49.5 -5q47 0 70 19.5t23 51.5q0 24 -17.5 41t-52.5 19l-57 4q-63 4 -105.5 37.5t-42.5 102.5q0 75 51.5 118.5t137.5 43.5q48 0 88.5 -10.5t77.5 -34.5l-32 -82q-27 18 -59.5 27t-73.5 9
q-46 0 -69.5 -17t-23.5 -48q0 -24 17 -37.5t44 -15.5l57 -4q74 -4 115.5 -42.5t41.5 -106.5q0 -75 -50.5 -120.5t-139.5 -45.5zM120 -254l19 70q57 0 89.5 12.5t32.5 32.5q0 19 -24.5 25t-81.5 6l33 135l68 -25l-13 -50q45 -6 71.5 -29.5t26.5 -57.5q0 -39 -30 -65.5
t-80 -40t-111 -13.5z" />
    <glyph glyph-name="Scaron" unicode="&#x160;" horiz-adv-x="510" 
d="M245 -10q-62 0 -115 17.5t-95 48.5l37 92q38 -28 80 -42.5t89 -14.5q62 0 95 30t33 81q0 42 -24 72.5t-78 36.5l-43 5q-55 6 -97 29.5t-65 63.5t-23 97q0 60 28 106.5t81.5 72.5t129.5 26q52 0 99.5 -14t83.5 -39l-32 -89q-36 23 -74 32.5t-75 9.5q-66 0 -99 -28t-33 -70
q0 -44 24 -66.5t66 -26.5l45 -5q94 -11 144 -66t50 -142q0 -65 -27.5 -114.5t-79 -76t-125.5 -26.5zM203 769l-93 159h93l36 -63l10 -34q3 -7 6.5 -7t5.5 7l11 34l36 63h93l-93 -159h-105z" />
    <glyph glyph-name="scaron" unicode="&#x161;" horiz-adv-x="461" 
d="M231 -12q-52 0 -96 14.5t-86 42.5l33 84q28 -19 52 -29.5t47.5 -15.5t49.5 -5q47 0 70 19.5t23 51.5q0 24 -17.5 41t-52.5 19l-57 4q-63 4 -105.5 37.5t-42.5 102.5q0 75 51.5 118.5t137.5 43.5q48 0 88.5 -10.5t77.5 -34.5l-32 -82q-27 18 -59.5 27t-73.5 9
q-46 0 -69.5 -17t-23.5 -48q0 -24 17 -37.5t44 -15.5l57 -4q74 -4 115.5 -42.5t41.5 -106.5q0 -75 -50.5 -120.5t-139.5 -45.5zM178 591l-93 159h93l36 -63l10 -34q3 -7 6.5 -7t5.5 7l11 34l36 63h93l-93 -159h-105z" />
    <glyph glyph-name="Tcaron" unicode="&#x164;" horiz-adv-x="497" 
d="M191 0v598h-165v102h445v-102h-166v-598h-114zM196 769l-93 159h93l36 -63l10 -34q3 -7 6.5 -7t5.5 7l11 34l36 63h93l-93 -159h-105z" />
    <glyph glyph-name="tcaron" unicode="&#x165;" horiz-adv-x="355" 
d="M214 0q-52 0 -84 31.5t-32 81.5v301h-84v90h71q9 0 14 6t10 27.5t13 68.5l5 24h77v-126h107v-90h-107v-291q0 -13 7 -21t20 -8h84v-94h-101zM325 750h101l-99 -159h-84z" />
    <glyph glyph-name="Tbar" unicode="&#x166;" horiz-adv-x="497" 
d="M191 0v598h-165v102h445v-102h-166v-598h-114zM93 306v87h310v-87h-310z" />
    <glyph glyph-name="tbar" unicode="&#x167;" horiz-adv-x="355" 
d="M214 0q-52 0 -84 31.5t-32 81.5v301h-84v90h71q9 0 14 6t10 27.5t13 68.5l5 24h77v-126h107v-90h-107v-291q0 -13 7 -21t20 -8h84v-94h-101zM22 208v87h310v-87h-310z" />
    <glyph glyph-name="Umacron" unicode="&#x16a;" horiz-adv-x="607" 
d="M303 -10q-67 0 -118.5 27.5t-80.5 76.5t-29 113v493h114l-1 -494q0 -51 32 -82.5t83 -31.5t83 31.5t32 82.5v494h114l-2 -493q0 -64 -28.5 -113t-79.5 -76.5t-119 -27.5zM169 775v81h270v-81h-270z" />
    <glyph glyph-name="umacron" unicode="&#x16b;" horiz-adv-x="543" 
d="M232 -11q-48 0 -85.5 18t-59 53t-21.5 84v360h108v-334q0 -40 21.5 -62t68.5 -22q48 0 71 22t23 62v334h108v-504h-109v20q0 9 -5.5 11.5t-14.5 -2.5l-56 -34q-19 -6 -49 -6zM137 597v81h270v-81h-270z" />
    <glyph glyph-name="Ubreve" unicode="&#x16c;" horiz-adv-x="607" 
d="M303 -10q-67 0 -118.5 27.5t-80.5 76.5t-29 113v493h114l-1 -494q0 -51 32 -82.5t83 -31.5t83 31.5t32 82.5v494h114l-2 -493q0 -64 -28.5 -113t-79.5 -76.5t-119 -27.5zM304 779q-64 0 -106 30.5t-59 88.5l76 20q12 -31 33.5 -48.5t55.5 -17.5t55.5 17.5t32.5 48.5
l76 -20q-15 -58 -58 -88.5t-106 -30.5z" />
    <glyph glyph-name="ubreve" unicode="&#x16d;" horiz-adv-x="543" 
d="M232 -11q-48 0 -85.5 18t-59 53t-21.5 84v360h108v-334q0 -40 21.5 -62t68.5 -22q48 0 71 22t23 62v334h108v-504h-109v20q0 9 -5.5 11.5t-14.5 -2.5l-56 -34q-19 -6 -49 -6zM273 601q-64 0 -106 30.5t-59 88.5l76 20q12 -31 33.5 -48.5t55.5 -17.5t55.5 17.5t32.5 48.5
l76 -20q-15 -58 -58 -88.5t-106 -30.5z" />
    <glyph glyph-name="Uring" unicode="&#x16e;" horiz-adv-x="607" 
d="M303 -10q-67 0 -118.5 27.5t-80.5 76.5t-29 113v493h114l-1 -494q0 -51 32 -82.5t83 -31.5t83 31.5t32 82.5v494h114l-2 -493q0 -64 -28.5 -113t-79.5 -76.5t-119 -27.5zM305 745q-38 0 -71 10t-53.5 33.5t-20.5 63.5q0 42 21 65t54.5 32.5t69.5 9.5q35 0 68 -9.5
t53.5 -32.5t20.5 -65q0 -41 -20.5 -64.5t-53.5 -33t-68 -9.5zM303 805q29 0 49.5 8.5t20.5 39.5q0 29 -20.5 37.5t-49.5 8.5q-31 0 -50 -8.5t-19 -38.5t20.5 -38.5t48.5 -8.5z" />
    <glyph glyph-name="uring" unicode="&#x16f;" horiz-adv-x="543" 
d="M232 -11q-48 0 -85.5 18t-59 53t-21.5 84v360h108v-334q0 -40 21.5 -62t68.5 -22q48 0 71 22t23 62v334h108v-504h-109v20q0 9 -5.5 11.5t-14.5 -2.5l-56 -34q-19 -6 -49 -6zM274 567q-38 0 -71 10t-53.5 33.5t-20.5 63.5q0 42 21 65t54.5 32.5t69.5 9.5q35 0 68 -9.5
t53.5 -32.5t20.5 -65q0 -41 -20.5 -64.5t-53.5 -33t-68 -9.5zM272 627q29 0 49.5 8.5t20.5 39.5q0 29 -20.5 37.5t-49.5 8.5q-31 0 -50 -8.5t-19 -38.5t20.5 -38.5t48.5 -8.5z" />
    <glyph glyph-name="Uhungarumlaut" unicode="&#x170;" horiz-adv-x="607" 
d="M303 -10q-67 0 -118.5 27.5t-80.5 76.5t-29 113v493h114l-1 -494q0 -51 32 -82.5t83 -31.5t83 31.5t32 82.5v494h114l-2 -493q0 -64 -28.5 -113t-79.5 -76.5t-119 -27.5zM142 769l116 159h110l-115 -159h-111zM334 769l116 159h110l-115 -159h-111z" />
    <glyph glyph-name="uhungarumlaut" unicode="&#x171;" horiz-adv-x="543" 
d="M232 -11q-48 0 -85.5 18t-59 53t-21.5 84v360h108v-334q0 -40 21.5 -62t68.5 -22q48 0 71 22t23 62v334h108v-504h-109v20q0 9 -5.5 11.5t-14.5 -2.5l-56 -34q-19 -6 -49 -6zM111 591l116 159h110l-115 -159h-111zM303 591l116 159h110l-115 -159h-111z" />
    <glyph glyph-name="Uogonek" unicode="&#x172;" horiz-adv-x="607" 
d="M303 -10q-67 0 -118.5 27.5t-80.5 76.5t-29 113v493h114l-1 -494q0 -51 32 -82.5t83 -31.5t83 31.5t32 82.5v494h114l-2 -493q0 -64 -28.5 -113t-79.5 -76.5t-119 -27.5zM409 -255q-57 4 -99 21t-65 50.5t-23 84.5q0 40 19.5 71.5t56.5 50.5l80 -23q-31 -17 -47 -39
t-16 -53q0 -43 29 -60.5t79 -22.5z" />
    <glyph glyph-name="uogonek" unicode="&#x173;" horiz-adv-x="543" 
d="M232 -11q-48 0 -85.5 18t-59 53t-21.5 84v360h108v-334q0 -40 21.5 -62t68.5 -22q48 0 71 22t23 62v334h108v-504h-109v20q0 9 -5.5 11.5t-14.5 -2.5l-56 -34q-19 -6 -49 -6zM496 -255q-57 4 -99 21t-65 50.5t-23 84.5q0 40 19.5 71.5t56.5 50.5l80 -23q-31 -17 -47 -39
t-16 -53q0 -43 29 -60.5t79 -22.5z" />
    <glyph glyph-name="Wcircumflex" unicode="&#x174;" horiz-adv-x="625" 
d="M124 0l-97 700h100l63 -422l1 -73q0 -10 6.5 -10.5t8.5 7.5l75 302h63l75 -302q2 -8 8.5 -8t6.5 11l1 73l63 422h100l-97 -700h-106l-73 285q-2 10 -9 10t-10 -10l-74 -285h-105zM167 769l91 159h108l92 -159h-96l-33 63l-11 34q-2 8 -5.5 8t-6.5 -8l-10 -34l-34 -63h-95
z" />
    <glyph glyph-name="wcircumflex" unicode="&#x175;" horiz-adv-x="619" 
d="M119 2l-79 502h99l41 -269l1 -67q1 -10 7.5 -10t8.5 8l81 338h63l81 -338q2 -8 8.5 -8t6.5 10l2 67l42 269h98l-80 -502h-100l-80 291q-2 10 -9 10t-10 -10l-80 -291h-101zM164 591l91 159h108l92 -159h-96l-33 63l-11 34q-2 8 -5.5 8t-6.5 -8l-10 -34l-34 -63h-95z" />
    <glyph glyph-name="Ycircumflex" unicode="&#x176;" horiz-adv-x="492" 
d="M190 0v301l-190 399h120l107 -233l12 -56q2 -6 7.5 -6t7.5 6l13 56l106 233h119l-190 -399v-301h-112zM101 769l91 159h108l92 -159h-96l-33 63l-11 34q-2 8 -5.5 8t-6.5 -8l-10 -34l-34 -63h-95z" />
    <glyph glyph-name="ycircumflex" unicode="&#x177;" horiz-adv-x="475" 
d="M88 -218l-32 94q53 11 80.5 41t40.5 74l14 47l-175 466h111l97 -277l10 -69q1 -8 7.5 -8t7.5 8l12 69l78 277h109l-172 -550q-20 -67 -68.5 -112t-119.5 -60zM92 591l91 159h108l92 -159h-96l-33 63l-11 34q-2 8 -5.5 8t-6.5 -8l-10 -34l-34 -63h-95z" />
    <glyph glyph-name="Ydieresis" unicode="&#x178;" horiz-adv-x="492" 
d="M190 0v301l-190 399h120l107 -233l12 -56q2 -6 7.5 -6t7.5 6l13 56l106 233h119l-190 -399v-301h-112zM287 769v109h102v-109h-102zM103 769v109h102v-109h-102z" />
    <glyph glyph-name="Zacute" unicode="&#x179;" horiz-adv-x="519" 
d="M41 0v68l270 484l34 41q4 5 2.5 9t-7.5 4h-192v-76h-101v170h431v-68l-267 -475l-33 -41q-5 -5 -3.5 -9.5t7.5 -4.5h296v-102h-437zM184 769l116 159h110l-115 -159h-111z" />
    <glyph glyph-name="zacute" unicode="&#x17a;" horiz-adv-x="458" 
d="M48 0v70l201 297l32 31q9 9 6 12.5t-9 3.5h-230v90h362v-70l-201 -297l-32 -31q-9 -9 -5.5 -12.5t8.5 -3.5h230v-90h-362zM156 591l116 159h110l-115 -159h-111z" />
    <glyph glyph-name="Zdotaccent" unicode="&#x17b;" horiz-adv-x="519" 
d="M41 0v68l270 484l34 41q4 5 2.5 9t-7.5 4h-192v-76h-101v170h431v-68l-267 -475l-33 -41q-5 -5 -3.5 -9.5t7.5 -4.5h296v-102h-437zM204 769v109h108v-109h-108z" />
    <glyph glyph-name="zdotaccent" unicode="&#x17c;" horiz-adv-x="458" 
d="M48 0v70l201 297l32 31q9 9 6 12.5t-9 3.5h-230v90h362v-70l-201 -297l-32 -31q-9 -9 -5.5 -12.5t8.5 -3.5h230v-90h-362zM176 591v109h108v-109h-108z" />
    <glyph glyph-name="Zcaron" unicode="&#x17d;" horiz-adv-x="519" 
d="M41 0v68l270 484l34 41q4 5 2.5 9t-7.5 4h-192v-76h-101v170h431v-68l-267 -475l-33 -41q-5 -5 -3.5 -9.5t7.5 -4.5h296v-102h-437zM205 769l-93 159h93l36 -63l10 -34q3 -7 6.5 -7t5.5 7l11 34l36 63h93l-93 -159h-105z" />
    <glyph glyph-name="zcaron" unicode="&#x17e;" horiz-adv-x="458" 
d="M48 0v70l201 297l32 31q9 9 6 12.5t-9 3.5h-230v90h362v-70l-201 -297l-32 -31q-9 -9 -5.5 -12.5t8.5 -3.5h230v-90h-362zM177 591l-93 159h93l36 -63l10 -34q3 -7 6.5 -7t5.5 7l11 34l36 63h93l-93 -159h-105z" />
    <glyph glyph-name="uni01B7" unicode="&#x1b7;" horiz-adv-x="524" 
d="M242 -8q-64 0 -117 17.5t-101 56.5l36 92q25 -21 52.5 -35.5t58.5 -22t66 -7.5q66 0 99.5 31.5t33.5 82.5q0 53 -37 83.5t-122 30.5h-78v64l138 176l33 32q6 6 4 9.5t-8 3.5h-253v94h400v-68l-206 -251l-33 37q128 -3 199 -52t71 -157q0 -59 -21 -100t-55 -67t-76 -38
t-84 -12z" />
    <glyph glyph-name="uni01CD" unicode="&#x1cd;" 
d="M30 0l186 700h160l187 -700h-114l-137 544l-8 57q-1 7 -7.5 7t-7.5 -7l-8 -57l-137 -544h-114zM165 177l25 96h213l25 -96h-263zM106 605v95h133l-8 -95h-125zM241 769l-93 159h93l36 -63l10 -34q3 -7 6.5 -7t5.5 7l11 34l36 63h93l-93 -159h-105z" />
    <glyph glyph-name="uni01CE" unicode="&#x1ce;" horiz-adv-x="497" 
d="M372 -12l-33 47q-8 11 -17 2q-24 -20 -51.5 -33.5t-70.5 -13.5q-72 0 -114 40.5t-42 104.5q0 46 21 77.5t58.5 48t86.5 16.5h105v63q0 39 -24 61t-74 22q-37 0 -68 -11.5t-63 -33.5l-31 87q38 26 79.5 38.5t89.5 12.5q97 0 143.5 -48t46.5 -122v-233l47 -69zM215 73
q46 0 73 24.5t27 63.5v33q0 16 -18 11l-48 -11h-35q-33 0 -51.5 -15t-18.5 -42t19.5 -45.5t51.5 -18.5zM194 591l-93 159h93l36 -63l10 -34q3 -7 6.5 -7t5.5 7l11 34l36 63h93l-93 -159h-105z" />
    <glyph glyph-name="uni01E4" unicode="&#x1e4;" horiz-adv-x="599" 
d="M315 -11q-115 -1 -180 57.5t-75 167.5q-2 29 -4 67t-2 69q0 32 1.5 69.5t3.5 66.5q12 114 81 170t182 56q109 0 183 -61l-35 -92q-33 28 -68.5 39.5t-79.5 11.5q-73 0 -111.5 -35t-43.5 -105q-2 -32 -3.5 -60.5t-1.5 -59.5t1.5 -59.5t3.5 -64.5q5 -63 41.5 -98.5
t102.5 -36.5q25 0 50.5 3.5t40.5 10.5v296h102v-358q-35 -25 -80 -39t-109 -15zM326 199v102h247v-102h-247z" />
    <glyph glyph-name="uni01E5" unicode="&#x1e5;" horiz-adv-x="554" 
d="M252 -207q-34 0 -61.5 4t-52.5 14t-53 25l28 82q22 -13 41 -20.5t41.5 -10.5t52.5 -3q50 0 80 21.5t30 63.5v111q0 10 -5.5 12t-13.5 -3l-58 -26q-11 -3 -20.5 -4t-25.5 -1q-81 0 -126.5 43t-53.5 116q-2 21 -3 37.5t-1 32.5q0 17 1 33.5t3 35.5q8 73 53.5 116t134.5 43
q34 0 65 -11t50 -28v28h108v-527q0 -47 -23 -89t-70 -68.5t-121 -26.5zM218 -63v79h349v-79h-349zM261 147q47 0 72 20t25 51v128q0 38 -24.5 57.5t-72.5 19.5q-50 0 -72.5 -24.5t-27.5 -62.5q-4 -23 -3.5 -48t3.5 -52q4 -37 26.5 -63t73.5 -26z" />
    <glyph glyph-name="Gcaron" unicode="&#x1e6;" horiz-adv-x="599" 
d="M315 -11q-115 -1 -180 57.5t-75 167.5q-2 29 -4 67t-2 69q0 32 1.5 69.5t3.5 66.5q12 114 81 170t182 56q109 0 183 -61l-35 -92q-33 28 -68.5 39.5t-79.5 11.5q-73 0 -111.5 -35t-43.5 -105q-2 -32 -3.5 -60.5t-1.5 -59.5t1.5 -59.5t3.5 -64.5q5 -63 41.5 -98.5
t102.5 -36.5q25 0 50.5 3.5t40.5 10.5v194h-76v102h247v-102h-69v-256q-35 -25 -80 -39t-109 -15zM245 769l-93 159h93l36 -63l10 -34q3 -7 6.5 -7t5.5 7l11 34l36 63h93l-93 -159h-105z" />
    <glyph glyph-name="gcaron" unicode="&#x1e7;" horiz-adv-x="538" 
d="M249 -207q-34 0 -61 4t-51.5 14t-51.5 25l28 82q22 -13 41 -20.5t41.5 -10.5t52.5 -3q50 0 80 23.5t30 69.5v43q0 10 -5.5 12t-13.5 -3l-58 -34q-11 -2 -20.5 -3.5t-25.5 -1.5q-81 0 -127 46t-53 123q-2 28 -3 50.5t-1 43.5q0 23 1 45t3 48q7 78 53 123.5t135 45.5
q34 0 65 -11t50 -28v28h108v-527q0 -47 -23.5 -89t-71.5 -68.5t-122 -26.5zM261 80q47 0 72 22.5t25 59.5v181q0 37 -24.5 58.5t-72.5 21.5q-50 0 -72.5 -25.5t-26.5 -61.5q-4 -42 -4 -84.5t4 -83.5q3 -37 25.5 -62.5t73.5 -25.5zM214 591l-93 159h93l36 -63l10 -34
q3 -7 6.5 -7t5.5 7l11 34l36 63h93l-93 -159h-105z" />
    <glyph glyph-name="uni01E8" unicode="&#x1e8;" horiz-adv-x="557" 
d="M82 0v700h111v-301h68l148 301h121l-175 -342l174 -358h-120l-148 302h-68v-302h-111zM227 769l-93 159h93l36 -63l10 -34q3 -7 6.5 -7t5.5 7l11 34l36 63h93l-93 -159h-105z" />
    <glyph glyph-name="uni01E9" unicode="&#x1e9;" horiz-adv-x="495" 
d="M77 0v750h107v-424h49l113 178h119l-140 -217l144 -287h-118l-111 233h-56v-233h-107zM224 769l-93 159h93l36 -63l10 -34q3 -7 6.5 -7t5.5 7l11 34l36 63h93l-93 -159h-105z" />
    <glyph glyph-name="uni01EE" unicode="&#x1ee;" horiz-adv-x="524" 
d="M242 -8q-64 0 -117 17.5t-101 56.5l36 92q25 -21 52.5 -35.5t58.5 -22t66 -7.5q66 0 99.5 31.5t33.5 82.5q0 53 -37 83.5t-122 30.5h-78v64l138 176l33 32q6 6 4 9.5t-8 3.5h-253v94h400v-68l-206 -251l-33 37q128 -3 199 -52t71 -157q0 -59 -21 -100t-55 -67t-76 -38
t-84 -12zM210 787l-93 159h93l36 -63l10 -34q3 -7 6.5 -7t5.5 7l11 34l36 63h93l-93 -159h-105z" />
    <glyph glyph-name="uni01EF" unicode="&#x1ef;" horiz-adv-x="524" 
d="M224 -258q-59 0 -107 17.5t-93 56.5l36 88q33 -29 74 -45t85 -16q75 0 113 39t38 103t-38 102t-125 38h-74v64l138 176l33 32q6 6 4 9.5t-8 3.5h-253v94h400v-68l-206 -251l-32 37q128 -3 198.5 -58t70.5 -177q0 -66 -23 -113t-61 -76t-82.5 -42.5t-87.5 -13.5zM210 591
l-93 159h93l36 -63l10 -34q3 -7 6.5 -7t5.5 7l11 34l36 63h93l-93 -159h-105z" />
    <glyph glyph-name="uni0218" unicode="&#x218;" horiz-adv-x="510" 
d="M245 -10q-62 0 -115 17.5t-95 48.5l37 92q38 -28 80 -42.5t89 -14.5q62 0 95 30t33 81q0 42 -24 72.5t-78 36.5l-43 5q-55 6 -97 29.5t-65 63.5t-23 97q0 60 28 106.5t81.5 72.5t129.5 26q52 0 99.5 -14t83.5 -39l-32 -89q-36 23 -74 32.5t-75 9.5q-66 0 -99 -28t-33 -70
q0 -44 24 -66.5t66 -26.5l45 -5q94 -11 144 -66t50 -142q0 -65 -27.5 -114.5t-79 -76t-125.5 -26.5zM192 -326l-67 49q36 26 56 54t28 63.5t8 82.5h91q0 -59 -10.5 -103t-35.5 -78.5t-70 -67.5z" />
    <glyph glyph-name="uni0219" unicode="&#x219;" horiz-adv-x="461" 
d="M231 -12q-52 0 -96 14.5t-86 42.5l33 84q28 -19 52 -29.5t47.5 -15.5t49.5 -5q47 0 70 19.5t23 51.5q0 24 -17.5 41t-52.5 19l-57 4q-63 4 -105.5 37.5t-42.5 102.5q0 75 51.5 118.5t137.5 43.5q48 0 88.5 -10.5t77.5 -34.5l-32 -82q-27 18 -59.5 27t-73.5 9
q-46 0 -69.5 -17t-23.5 -48q0 -24 17 -37.5t44 -15.5l57 -4q74 -4 115.5 -42.5t41.5 -106.5q0 -75 -50.5 -120.5t-139.5 -45.5zM168 -326l-67 49q36 26 56 54t28 63.5t8 82.5h91q0 -59 -10.5 -103t-35.5 -78.5t-70 -67.5z" />
    <glyph glyph-name="uni021A" unicode="&#x21a;" horiz-adv-x="497" 
d="M191 0v598h-165v102h445v-102h-166v-598h-114zM184 -326l-67 49q36 26 56 54t28 63.5t8 82.5h91q0 -59 -10.5 -103t-35.5 -78.5t-70 -67.5z" />
    <glyph glyph-name="uni021B" unicode="&#x21b;" horiz-adv-x="355" 
d="M214 0q-52 0 -84 31.5t-32 81.5v301h-84v90h71q9 0 14 6t10 27.5t13 68.5l5 24h77v-126h107v-90h-107v-291q0 -13 7 -21t20 -8h84v-94h-101zM115 -326l-67 49q36 26 56 54t28 63.5t8 82.5h91q0 -59 -10.5 -103t-35.5 -78.5t-70 -67.5z" />
    <glyph glyph-name="uni0237" unicode="&#x237;" horiz-adv-x="301" 
d="M52 -222l-30 93q43 12 68.5 45t25.5 90v407h-78v91h186v-495q0 -53 -13.5 -92.5t-37 -67t-55 -45.5t-66.5 -26z" />
    <glyph glyph-name="uni0292" unicode="&#x292;" horiz-adv-x="524" 
d="M224 -258q-59 0 -107 17.5t-93 56.5l36 88q33 -29 74 -45t85 -16q75 0 113 39t38 103t-38 102t-125 38h-74v64l138 176l33 32q6 6 4 9.5t-8 3.5h-253v94h400v-68l-206 -251l-32 37q128 -3 198.5 -58t70.5 -177q0 -66 -23 -113t-61 -76t-82.5 -42.5t-87.5 -13.5z" />
    <glyph glyph-name="uni02B9" unicode="&#x2b9;" horiz-adv-x="142" 
d="M16 400l72 350h120l-135 -350h-57z" />
    <glyph glyph-name="uni02BC" unicode="&#x2bc;" horiz-adv-x="307" 
d="M66 436l11 62q48 11 74 46t27 88h-69v118h132v-85q0 -72 -23 -119.5t-63 -73.5t-89 -36z" />
    <glyph glyph-name="circumflex" unicode="&#x2c6;" horiz-adv-x="391" 
d="M44 591l91 159h108l92 -159h-96l-33 63l-11 34q-2 8 -5.5 8t-6.5 -8l-10 -34l-34 -63h-95z" />
    <glyph glyph-name="caron" unicode="&#x2c7;" horiz-adv-x="391" 
d="M143 591l-93 159h93l36 -63l10 -34q3 -7 6.5 -7t5.5 7l11 34l36 63h93l-93 -159h-105z" />
    <glyph glyph-name="uni02C8" unicode="&#x2c8;" horiz-adv-x="145" 
d="M24 400v350h97v-350h-97z" />
    <glyph glyph-name="breve" unicode="&#x2d8;" horiz-adv-x="448" 
d="M224 601q-64 0 -106 30.5t-59 88.5l76 20q12 -31 33.5 -48.5t55.5 -17.5t55.5 17.5t32.5 48.5l76 -20q-15 -58 -58 -88.5t-106 -30.5z" />
    <glyph glyph-name="dotaccent" unicode="&#x2d9;" horiz-adv-x="215" 
d="M50 591v109h108v-109h-108z" />
    <glyph glyph-name="ring" unicode="&#x2da;" horiz-adv-x="431" 
d="M195 567q-38 0 -71 10t-53.5 33.5t-20.5 63.5q0 42 21 65t54.5 32.5t69.5 9.5q35 0 68 -9.5t53.5 -32.5t20.5 -65q0 -41 -20.5 -64.5t-53.5 -33t-68 -9.5zM193 627q29 0 49.5 8.5t20.5 39.5q0 29 -20.5 37.5t-49.5 8.5q-31 0 -50 -8.5t-19 -38.5t20.5 -38.5t48.5 -8.5z
" />
    <glyph glyph-name="ogonek" unicode="&#x2db;" horiz-adv-x="349" 
d="M229 -255q-57 4 -99 21t-65 50.5t-23 84.5q0 40 19.5 71.5t56.5 50.5l80 -23q-31 -17 -47 -39t-16 -53q0 -43 29 -60.5t79 -22.5z" />
    <glyph glyph-name="tilde" unicode="&#x2dc;" horiz-adv-x="424" 
d="M77 581l-27 69q19 25 42.5 36t51.5 11q35 0 56 -9t38.5 -18.5t40.5 -9.5q21 0 37 10t32 29l26 -69q-18 -24 -42 -35.5t-52 -11.5q-34 0 -55.5 9.5t-39 18.5t-39.5 9q-21 0 -37.5 -9.5t-31.5 -29.5z" />
    <glyph glyph-name="hungarumlaut" unicode="&#x2dd;" horiz-adv-x="604" 
d="M50 591l116 159h110l-115 -159h-111zM242 591l116 159h110l-115 -159h-111z" />
    <glyph glyph-name="gravecomb" unicode="&#x300;" horiz-adv-x="0" 
d="M166 591l-116 159h111l115 -159h-110z" />
    <glyph glyph-name="acutecomb" unicode="&#x301;" horiz-adv-x="0" 
d="M50 591l116 159h110l-115 -159h-111z" />
    <glyph glyph-name="uni0302" unicode="&#x302;" horiz-adv-x="0" 
d="M50 591l91 159h108l92 -159h-96l-33 63l-11 34q-2 8 -5.5 8t-6.5 -8l-10 -34l-34 -63h-95z" />
    <glyph glyph-name="tildecomb" unicode="&#x303;" horiz-adv-x="0" 
d="M77 581l-27 69q19 25 42.5 36t51.5 11q35 0 56 -9t38.5 -18.5t40.5 -9.5q21 0 37 10t32 29l26 -69q-18 -24 -42 -35.5t-52 -11.5q-34 0 -55.5 9.5t-39 18.5t-39.5 9q-21 0 -37.5 -9.5t-31.5 -29.5z" />
    <glyph glyph-name="uni0304" unicode="&#x304;" horiz-adv-x="0" 
d="M50 597v81h270v-81h-270z" />
    <glyph glyph-name="uni0306" unicode="&#x306;" horiz-adv-x="0" 
d="M224 601q-64 0 -106 30.5t-59 88.5l76 20q12 -31 33.5 -48.5t55.5 -17.5t55.5 17.5t32.5 48.5l76 -20q-15 -58 -58 -88.5t-106 -30.5z" />
    <glyph glyph-name="uni0307" unicode="&#x307;" horiz-adv-x="0" 
d="M50 591v109h108v-109h-108z" />
    <glyph glyph-name="uni0308" unicode="&#x308;" horiz-adv-x="0" 
d="M234 591v109h102v-109h-102zM50 591v109h102v-109h-102z" />
    <glyph glyph-name="uni030A" unicode="&#x30a;" horiz-adv-x="0" 
d="M195 567q-38 0 -71 10t-53.5 33.5t-20.5 63.5q0 42 21 65t54.5 32.5t69.5 9.5q35 0 68 -9.5t53.5 -32.5t20.5 -65q0 -41 -20.5 -64.5t-53.5 -33t-68 -9.5zM193 627q29 0 49.5 8.5t20.5 39.5q0 29 -20.5 37.5t-49.5 8.5q-31 0 -50 -8.5t-19 -38.5t20.5 -38.5t48.5 -8.5z
" />
    <glyph glyph-name="uni030B" unicode="&#x30b;" horiz-adv-x="0" 
d="M50 591l116 159h110l-115 -159h-111zM242 591l116 159h110l-115 -159h-111z" />
    <glyph glyph-name="uni030C" unicode="&#x30c;" horiz-adv-x="0" 
d="M143 591l-93 159h93l36 -63l10 -34q3 -7 6.5 -7t5.5 7l11 34l36 63h93l-93 -159h-105z" />
    <glyph glyph-name="uni0312" unicode="&#x312;" horiz-adv-x="0" 
d="M231 887l-11 -56q-64 -7 -99.5 -45t-37.5 -97h69v-118h-132v97q0 68 27.5 115t75.5 73.5t108 30.5z" />
    <glyph glyph-name="uni0326" unicode="&#x326;" horiz-adv-x="0" 
d="M117 -326l-67 49q36 26 56 54t28 63.5t8 82.5h91q0 -59 -10.5 -103t-35.5 -78.5t-70 -67.5z" />
    <glyph glyph-name="uni0327" unicode="&#x327;" horiz-adv-x="0" 
d="M50 -254l19 70q57 0 89.5 12.5t32.5 32.5q0 19 -24.5 25t-81.5 6l33 135l68 -25l-13 -50q45 -6 71.5 -29.5t26.5 -57.5q0 -39 -30 -65.5t-80 -40t-111 -13.5z" />
    <glyph glyph-name="uni0328" unicode="&#x328;" horiz-adv-x="0" 
d="M229 -255q-57 4 -99 21t-65 50.5t-23 84.5q0 40 19.5 71.5t56.5 50.5l80 -23q-31 -17 -47 -39t-16 -53q0 -43 29 -60.5t79 -22.5z" />
    <glyph glyph-name="uni0335" unicode="&#x335;" horiz-adv-x="0" 
d="M50 221v87h310v-87h-310z" />
    <glyph glyph-name="uni0336" unicode="&#x336;" horiz-adv-x="0" 
d="M11 221v87h729v-87h-729z" />
    <glyph glyph-name="uni0337" unicode="&#x337;" horiz-adv-x="0" 
d="M36 0l389 504h98l-388 -504h-99z" />
    <glyph glyph-name="uni0338" unicode="&#x338;" horiz-adv-x="0" 
d="M36 0l540 700h99l-540 -700h-99z" />
    <glyph glyph-name="uni03BC" unicode="&#x3bc;" horiz-adv-x="551" 
d="M70 -165l-1 669h108v-334q0 -40 21.5 -62t68.5 -22q48 0 71 22t23 62v334h108v-504h-109v20q0 9 -5.5 11.5t-14.5 -2.5l-56 -34q-19 -6 -49 -6q-16 0 -31 2.5t-27 7.5v-164h-107z" />
    <glyph glyph-name="uni0400" unicode="&#x400;" horiz-adv-x="552" 
d="M82 0v700h414v-102h-310v-199h293v-98h-293v-199h310v-102h-414zM259 769l-116 159h111l115 -159h-110z" />
    <glyph glyph-name="uni0401" unicode="&#x401;" horiz-adv-x="552" 
d="M82 0v700h414v-102h-310v-199h293v-98h-293v-199h310v-102h-414zM337 769v109h102v-109h-102zM153 769v109h102v-109h-102z" />
    <glyph glyph-name="uni0402" unicode="&#x402;" horiz-adv-x="699" 
d="M437 -9q-17 0 -34.5 3t-29.5 7l23 89q15 -5 33 -5q40 0 63 18.5t32.5 47.5t9.5 60q0 62 -32 90t-86 28q-36 0 -65 -7.5t-46 -16.5v103q0 -9 5.5 -12t14.5 1l53 23q14 4 33 5.5t33 1.5q53 0 99.5 -21t75.5 -68.5t29 -126.5q0 -61 -22 -111t-68.5 -79.5t-120.5 -29.5z
M191 0v598h-165v102h445v-102h-166v-598h-114z" />
    <glyph glyph-name="uni0403" unicode="&#x403;" horiz-adv-x="449" 
d="M82 0v700h353v-102h-240v-598h-113zM159 787l116 159h110l-115 -159h-111z" />
    <glyph glyph-name="uni0404" unicode="&#x404;" horiz-adv-x="517" 
d="M310 -12q-72 0 -126 26t-86.5 76.5t-37.5 121.5q-2 30 -4 68t-2 70q0 33 2 71t4 67q5 72 37 122t85 76t124 26q50 0 92.5 -13.5t81.5 -40.5l-31 -94q-32 23 -64.5 34.5t-72.5 11.5q-63 0 -99.5 -33.5t-40.5 -97.5q-2 -37 -3.5 -67t-1.5 -62t1.5 -62t3.5 -67
q4 -64 39.5 -97.5t98.5 -32.5q41 0 74 12t64 34l33 -92q-38 -28 -80 -42.5t-91 -14.5zM118 301v98h282v-98h-282z" />
    <glyph glyph-name="uni0405" unicode="&#x405;" horiz-adv-x="510" 
d="M245 -10q-62 0 -115 17.5t-95 48.5l37 92q38 -28 80 -42.5t89 -14.5q62 0 95 30t33 81q0 42 -24 72.5t-78 36.5l-43 5q-55 6 -97 29.5t-65 63.5t-23 97q0 60 28 106.5t81.5 72.5t129.5 26q52 0 99.5 -14t83.5 -39l-32 -89q-36 23 -74 32.5t-75 9.5q-66 0 -99 -28t-33 -70
q0 -44 24 -66.5t66 -26.5l45 -5q94 -11 144 -66t50 -142q0 -65 -27.5 -114.5t-79 -76t-125.5 -26.5z" />
    <glyph glyph-name="uni0406" unicode="&#x406;" horiz-adv-x="431" 
d="M50 0v97h109v506h-109v97h331v-97h-109v-506h109v-97h-331z" />
    <glyph glyph-name="uni0407" unicode="&#x407;" horiz-adv-x="431" 
d="M50 0v97h109v506h-109v97h331v-97h-109v-506h109v-97h-331zM257 769v109h102v-109h-102zM73 769v109h102v-109h-102z" />
    <glyph glyph-name="uni0408" unicode="&#x408;" horiz-adv-x="460" 
d="M172 -12q-43 0 -85.5 14.5t-76.5 43.5l34 92q16 -16 36.5 -26.5t44.5 -15.5t47 -5q45 -1 71 22t26 67v422h-152v98h264v-520q0 -91 -56.5 -141.5t-152.5 -50.5z" />
    <glyph glyph-name="uni0409" unicode="&#x409;" horiz-adv-x="902" 
d="M43 -14l-33 96q47 10 72.5 42.5t32.5 89.5q9 87 14 206.5t6 279.5h323v-102h-217q-3 -129 -7 -233t-13 -181q-11 -81 -57.5 -131.5t-120.5 -66.5zM416 0v700h114v-281h119q104 0 163.5 -56t59.5 -152q0 -98 -59.5 -154.5t-163.5 -56.5h-233zM530 94h119q52 0 80.5 31
t28.5 85q0 52 -28.5 84t-80.5 32h-119v-232z" />
    <glyph glyph-name="uni040A" unicode="&#x40a;" horiz-adv-x="918" 
d="M82 0v700h113v-281h237v281h114v-700h-114v316h-237v-316h-113zM432 0v700h114v-281h119q104 0 163.5 -56t59.5 -152q0 -98 -59.5 -154.5t-163.5 -56.5h-233zM546 94h119q52 0 81 31t29 85q0 52 -29 84t-81 32h-119v-232z" />
    <glyph glyph-name="uni040B" unicode="&#x40b;" horiz-adv-x="716" 
d="M530 0v221q0 56 -29 82t-79 26q-36 0 -67.5 -7.5t-49.5 -16.5v103q0 -9 5.5 -12t14.5 1l53 23q15 4 34 5.5t34 1.5q52 0 97 -19.5t73 -62.5t28 -114v-231h-114zM191 0v598h-165v102h445v-102h-166v-598h-114z" />
    <glyph glyph-name="uni040C" unicode="&#x40c;" horiz-adv-x="557" 
d="M82 0v700h111v-301h68l148 301h121l-175 -342l174 -358h-120l-148 302h-68v-302h-111zM206 769l116 159h110l-115 -159h-111z" />
    <glyph glyph-name="uni040D" unicode="&#x40d;" horiz-adv-x="641" 
d="M82 0v700h111v-403l-12 -75q-1 -7 4.5 -9.5t9.5 4.5l263 483h101v-700h-111v403l11 74q2 8 -4 10.5t-10 -6.5l-262 -481h-101zM279 769l-116 159h111l115 -159h-110z" />
    <glyph glyph-name="uni040E" unicode="&#x40e;" horiz-adv-x="516" 
d="M144 -12q-24 0 -49 7.5t-44 19.5l35 90q12 -7 26.5 -12.5t31.5 -5.5q29 0 46 17t27 43l-212 553h116l132 -367l12 -82q1 -5 7.5 -5t7.5 5l12 82l107 367h115l-184 -550q-29 -89 -72 -125.5t-114 -36.5zM260 779q-64 0 -106 30.5t-59 88.5l76 20q12 -31 33.5 -48.5
t55.5 -17.5t55.5 17.5t32.5 48.5l76 -20q-15 -58 -58 -88.5t-106 -30.5z" />
    <glyph glyph-name="uni040F" unicode="&#x40f;" horiz-adv-x="626" 
d="M259 -140v140h-177v700h113v-599h235v599h114v-700h-182v-140h-103z" />
    <glyph glyph-name="uni0410" unicode="&#x410;" 
d="M30 0l186 700h160l187 -700h-114l-137 544l-8 57q-1 7 -7.5 7t-7.5 -7l-8 -57l-137 -544h-114zM165 177l25 96h213l25 -96h-263zM106 605v95h133l-8 -95h-125z" />
    <glyph glyph-name="uni0411" unicode="&#x411;" horiz-adv-x="574" 
d="M82 0v700h398v-102h-294v-181h120q76 0 125 -26.5t73 -74t24 -109.5q0 -101 -59.5 -154t-162.5 -53h-224zM186 94h120q54 0 86 28.5t32 83.5q0 56 -32 87t-86 31h-120v-230z" />
    <glyph glyph-name="uni0412" unicode="&#x412;" horiz-adv-x="574" 
d="M82 0v700h226q97 0 150.5 -49.5t53.5 -140.5q0 -53 -24.5 -92.5t-67.5 -59.5q51 -17 79.5 -61t28.5 -104q0 -92 -55.5 -142.5t-156.5 -50.5h-234zM186 94h130q52 0 80 26.5t28 75.5t-28 78.5t-80 29.5h-130v-210zM186 397h122q48 0 74 29t26 78q0 48 -26 75t-74 27h-122
v-209z" />
    <glyph glyph-name="uni0413" unicode="&#x413;" horiz-adv-x="449" 
d="M82 0v700h353v-102h-240v-598h-113z" />
    <glyph glyph-name="uni0414" unicode="&#x414;" horiz-adv-x="650" 
d="M20 -140v241h37q29 20 48.5 62t25.5 106q7 71 11.5 177.5t5.5 253.5h400l-2 -700h-423v-140h-103zM200 101h237v497h-185q-1 -119 -5.5 -202.5t-9.5 -130.5q-2 -24 -6.5 -48t-9.5 -47l-31 -51q-4 -7 -1.5 -12.5t11.5 -5.5zM515 -140v210l-15 31h118v-241h-103z" />
    <glyph glyph-name="uni0415" unicode="&#x415;" horiz-adv-x="552" 
d="M82 0v700h414v-102h-310v-199h293v-98h-293v-199h310v-102h-414z" />
    <glyph glyph-name="uni0416" unicode="&#x416;" horiz-adv-x="825" 
d="M28 0l167 356l-169 344h121l141 -302h68v302h111v-302h68l142 302h118l-166 -342l168 -358h-120l-142 301h-68v-301h-111v301h-68l-141 -301h-119z" />
    <glyph glyph-name="uni0417" unicode="&#x417;" horiz-adv-x="526" 
d="M244 -8q-64 0 -117 17.5t-101 56.5l36 92q25 -21 52 -35.5t57 -22t62 -7.5q71 0 105 28.5t34 79.5q0 48 -31.5 76t-101.5 28h-110v98h114q58 0 85 28.5t27 77.5q0 46 -29.5 73t-83.5 27q-39 0 -83 -10.5t-78 -32.5l-34 89q49 29 97 41t104 12q35 0 72.5 -10t69.5 -32.5
t52 -60t20 -91.5q0 -60 -27.5 -99.5t-65.5 -55.5q29 -10 54.5 -32t41 -54t15.5 -76q0 -70 -33 -115.5t-86.5 -67.5t-116.5 -22z" />
    <glyph glyph-name="uni0418" unicode="&#x418;" horiz-adv-x="641" 
d="M82 0v700h111v-403l-12 -75q-1 -7 4.5 -9.5t9.5 4.5l263 483h101v-700h-111v403l11 74q2 8 -4 10.5t-10 -6.5l-262 -481h-101z" />
    <glyph glyph-name="uni0419" unicode="&#x419;" horiz-adv-x="641" 
d="M82 0v700h111v-403l-12 -75q-1 -7 4.5 -9.5t9.5 4.5l263 483h101v-700h-111v403l11 74q2 8 -4 10.5t-10 -6.5l-262 -481h-101zM316 779q-64 0 -106 30.5t-59 88.5l76 20q12 -31 33.5 -48.5t55.5 -17.5t55.5 17.5t32.5 48.5l76 -20q-15 -58 -58 -88.5t-106 -30.5z" />
    <glyph glyph-name="uni041A" unicode="&#x41a;" horiz-adv-x="557" 
d="M82 0v700h111v-301h68l148 301h121l-175 -342l174 -358h-120l-148 302h-68v-302h-111z" />
    <glyph glyph-name="uni041B" unicode="&#x41b;" horiz-adv-x="616" 
d="M43 -14l-33 96q47 10 73 42.5t32 89.5q9 87 14 206.5t6 279.5h399v-700h-114v598h-179q-3 -129 -7 -233t-13 -181q-11 -81 -57.5 -131.5t-120.5 -66.5z" />
    <glyph glyph-name="uni041C" unicode="&#x41c;" horiz-adv-x="676" 
d="M82 0v700h94l152 -288q4 -7 10.5 -7t9.5 7l153 288h93v-700h-107v391l11 73q2 7 -3.5 9.5t-10.5 -5.5l-122 -217h-51l-119 217q-4 8 -9.5 5.5t-4.5 -9.5l12 -73v-391h-108z" />
    <glyph glyph-name="uni041D" unicode="&#x41d;" horiz-adv-x="628" 
d="M82 0v700h113v-299h237v299h114v-700h-114v299h-237v-299h-113z" />
    <glyph glyph-name="uni041E" unicode="&#x41e;" horiz-adv-x="612" 
d="M306 -12q-53 0 -98 16t-78 50q-22 23 -39.5 56t-27 90t-9.5 150t9.5 150t27 90.5t39.5 55.5q33 34 78 50t98 16t98 -16t77 -50q23 -22 40 -55.5t26.5 -90.5t9.5 -150t-9.5 -150t-26.5 -90t-40 -56q-32 -34 -77 -50t-98 -16zM306 91q61 0 95 34.5t38 93.5q2 38 3.5 69
t1.5 62q0 32 -1.5 63t-3.5 68q-4 59 -38 93.5t-95 34.5q-62 0 -96 -34.5t-37 -93.5q-3 -37 -4.5 -68t-1.5 -63q0 -31 1.5 -62t4.5 -69q3 -59 37 -93.5t96 -34.5z" />
    <glyph glyph-name="uni041F" unicode="&#x41f;" horiz-adv-x="626" 
d="M82 0v700h462v-700h-114v599h-235v-599h-113z" />
    <glyph glyph-name="uni0420" unicode="&#x420;" horiz-adv-x="564" 
d="M82 0v700h250q93 0 147.5 -55t54.5 -149q0 -91 -54.5 -144t-147.5 -53h-139v-299h-111zM193 394h133q47 0 74 28t27 75q0 52 -27 80.5t-74 28.5h-133v-212z" />
    <glyph glyph-name="uni0421" unicode="&#x421;" horiz-adv-x="503" 
d="M310 -12q-72 0 -126.5 26.5t-86.5 77.5t-37 124q-2 29 -4 66t-2 68q0 32 2 68.5t4 65.5q5 73 36.5 124t85 77.5t124.5 26.5q46 0 85.5 -15t75.5 -44l-32 -89q-29 23 -58.5 34.5t-64.5 11.5q-64 0 -100 -35t-40 -100q-2 -35 -3.5 -64t-1.5 -61q0 -31 1.5 -60t3.5 -65
q5 -66 40 -100.5t98 -33.5q36 0 66 12t58 34l33 -92q-35 -28 -73.5 -42.5t-83.5 -14.5z" />
    <glyph glyph-name="uni0422" unicode="&#x422;" horiz-adv-x="497" 
d="M191 0v598h-165v102h445v-102h-166v-598h-114z" />
    <glyph glyph-name="uni0423" unicode="&#x423;" horiz-adv-x="516" 
d="M144 -12q-24 0 -49 7.5t-44 19.5l35 90q12 -7 26.5 -12.5t31.5 -5.5q29 0 46 17t27 43l-212 553h116l132 -367l12 -82q1 -5 7.5 -5t7.5 5l12 82l107 367h115l-184 -550q-29 -89 -72 -125.5t-114 -36.5z" />
    <glyph glyph-name="uni0424" unicode="&#x424;" horiz-adv-x="769" 
d="M328 -10v76q0 17 -16 15l-65 -7q-88 19 -134.5 71.5t-57.5 118.5q-3 22 -4.5 43.5t-1.5 44.5t1.5 45t4.5 43q11 66 57.5 118.5t134.5 71.5l65 -7q16 -2 16 15v72h113v-72q0 -17 16 -15l65 7q88 -19 134.5 -71.5t57.5 -118.5q3 -21 4.5 -43t1.5 -45t-1.5 -44.5t-4.5 -43.5
q-11 -66 -57.5 -118.5t-134.5 -71.5l-65 7q-16 2 -16 -15v-76h-113zM328 155v392q-51 0 -84.5 -14t-52 -39.5t-24.5 -59.5q-7 -43 -7 -82.5t8 -82.5q7 -32 24.5 -58t50.5 -41t85 -15zM441 155q50 0 83.5 15t52 40.5t24.5 58.5q8 42 8 82t-7 83q-5 33 -23.5 58.5t-53 40
t-84.5 14.5v-392z" />
    <glyph glyph-name="uni0425" unicode="&#x425;" horiz-adv-x="541" 
d="M20 0l169 352l-169 348h123l107 -235l13 -55q2 -7 7.5 -7t7.5 7l12 55l107 235h124l-170 -348l170 -352h-124l-107 239l-12 55q-2 7 -7.5 7t-7.5 -7l-13 -55l-107 -239h-123z" />
    <glyph glyph-name="uni0426" unicode="&#x426;" horiz-adv-x="646" 
d="M82 0v700h113v-599h235v599h114l-2 -700h-460zM510 -140v210l-15 31h119v-241h-104z" />
    <glyph glyph-name="uni0427" unicode="&#x427;" horiz-adv-x="591" 
d="M395 0v284q0 9 -5.5 12.5t-14.5 -1.5l-54 -24q-13 -3 -32.5 -4.5t-34.5 -1.5q-52 0 -97 19.5t-73 62.5t-28 115v238h113v-229q0 -56 29.5 -82t79.5 -26q37 0 68 7.5t49 16.5v313h114v-700h-114z" />
    <glyph glyph-name="uni0428" unicode="&#x428;" horiz-adv-x="853" 
d="M82 0v700h113v-599h175v599h113v-599h175v599h113v-700h-689z" />
    <glyph glyph-name="uni0429" unicode="&#x429;" horiz-adv-x="873" 
d="M82 0v700h113v-599h175v599h113v-599h175v599h113l-2 -700h-687zM738 -140v210l-15 31h118v-241h-103z" />
    <glyph glyph-name="uni042A" unicode="&#x42a;" horiz-adv-x="635" 
d="M150 0v610h-120v90h233v-281h120q104 0 163 -56t59 -152q0 -98 -59 -154.5t-163 -56.5h-233zM263 94h120q52 0 80.5 31t28.5 85q0 52 -28.5 84t-80.5 32h-120v-232z" />
    <glyph glyph-name="uni042B" unicode="&#x42b;" horiz-adv-x="811" 
d="M82 0v700h113v-281h120q104 0 163.5 -56t59.5 -152q0 -98 -59.5 -154.5t-163.5 -56.5h-233zM195 94h120q52 0 80.5 31t28.5 85q0 52 -28.5 84t-80.5 32h-120v-232zM616 0v700h113v-700h-113z" />
    <glyph glyph-name="uni042C" unicode="&#x42c;" horiz-adv-x="568" 
d="M82 0v700h113v-281h120q104 0 163.5 -56t59.5 -152q0 -98 -59.5 -154.5t-163.5 -56.5h-233zM195 94h120q52 0 80.5 31t28.5 85q0 52 -28.5 84t-80.5 32h-120v-232z" />
    <glyph glyph-name="uni042D" unicode="&#x42d;" horiz-adv-x="517" 
d="M208 -12q-49 0 -91 14.5t-81 42.5l34 92q31 -22 64 -34t74 -12q62 -1 98 32.5t40 97.5q2 37 3.5 67t1.5 62t-1.5 62t-3.5 67q-5 64 -39 97.5t-94 33.5q-39 0 -71.5 -11.5t-64.5 -34.5l-32 94q39 27 82 40.5t93 13.5q68 0 119.5 -26t82 -76t36.5 -122q2 -29 3.5 -67
t1.5 -71q0 -32 -1.5 -70t-3.5 -68q-6 -71 -38 -121.5t-86 -76.5t-126 -26zM117 301v98h282v-98h-282z" />
    <glyph glyph-name="uni042E" unicode="&#x42e;" horiz-adv-x="866" 
d="M560 -12q-53 0 -97.5 16t-78.5 50q-21 23 -38.5 56t-27.5 90t-10 150t10 150t27.5 90.5t38.5 55.5q33 34 78 50t98 16t97.5 -16t78.5 -50q22 -22 39 -55.5t27 -90.5t10 -150t-10 -150t-27 -90t-39 -56q-33 -34 -78 -50t-98 -16zM82 0v700h113v-299h192v-102h-192v-299
h-113zM560 91q61 0 95 34.5t38 93.5q3 38 4.5 69t1.5 62q0 32 -2 63t-4 68q-4 59 -38 93.5t-95 34.5t-95 -34.5t-38 -93.5q-3 -37 -4.5 -68t-1.5 -63q0 -31 2 -62t4 -69q4 -59 38 -93.5t95 -34.5z" />
    <glyph glyph-name="uni042F" unicode="&#x42f;" horiz-adv-x="592" 
d="M46 0l109 225l37 52q6 8 4.5 13.5t-8.5 6.5q-64 18 -100 67.5t-36 123.5q0 101 61 156.5t170 55.5h227v-700h-113v281h-97l-133 -281h-121zM283 376h114v230h-108q-58 0 -91.5 -30.5t-33.5 -87.5q0 -54 31.5 -83t87.5 -29z" />
    <glyph glyph-name="uni0430" unicode="&#x430;" horiz-adv-x="497" 
d="M372 -12l-33 47q-8 11 -17 2q-24 -20 -51.5 -33.5t-70.5 -13.5q-72 0 -114 40.5t-42 104.5q0 46 21 77.5t58.5 48t86.5 16.5h105v63q0 39 -24 61t-74 22q-37 0 -68 -11.5t-63 -33.5l-31 87q38 26 79.5 38.5t89.5 12.5q97 0 143.5 -48t46.5 -122v-233l47 -69zM215 73
q46 0 73 24.5t27 63.5v33q0 16 -18 11l-48 -11h-35q-33 0 -51.5 -15t-18.5 -42t19.5 -45.5t51.5 -18.5z" />
    <glyph glyph-name="uni0431" unicode="&#x431;" horiz-adv-x="532" 
d="M267 -12q-53 0 -94.5 19.5t-67.5 53t-35 73.5q-10 36 -13 75t-3 82q0 113 9 192.5t32 131t65 79t107 36.5q23 4 39.5 5.5t32.5 2.5q22 3 43.5 8.5t42.5 18.5l33 -80q-23 -16 -51 -24.5t-62 -12.5q-24 -3 -39 -5.5l-33 -5.5q-44 -8 -67.5 -30t-32.5 -54.5t-11 -72.5
q-1 -8 4 -11.5t11 0.5l47 36q15 6 29.5 8t27.5 2q64 0 104 -26t62 -65.5t28 -82.5q6 -49 6 -92q0 -40 -6 -88q-11 -76 -63.5 -124.5t-144.5 -48.5zM270 79q48 0 73.5 28.5t29.5 66.5q4 42 4 77t-4 78q-3 39 -29 67t-74 28t-75.5 -28t-30.5 -67q-3 -43 -3 -78t4 -77
q4 -38 30.5 -66.5t74.5 -28.5z" />
    <glyph glyph-name="uni0432" unicode="&#x432;" horiz-adv-x="518" 
d="M77 0v504h200q84 0 131 -35.5t47 -102.5q0 -36 -20 -64t-55 -42q42 -11 65.5 -42t23.5 -76q0 -68 -47.5 -105t-134.5 -37h-210zM183 88h101q38 0 57.5 16t19.5 45t-19.5 46t-57.5 17h-101v-124zM183 292h91q35 0 54.5 16.5t19.5 46.5q0 29 -19.5 45t-54.5 16h-91v-124z
" />
    <glyph glyph-name="uni0433" unicode="&#x433;" horiz-adv-x="419" 
d="M77 0v504h312v-90h-204v-414h-108z" />
    <glyph glyph-name="uni0434" unicode="&#x434;" horiz-adv-x="550" 
d="M16 -130v220h28q18 9 30.5 24.5t17.5 38.5q8 35 12.5 82t7.5 113t3 156h345v-414h64v-220h-99v130h-310v-130h-99zM182 90h173v324h-139q-2 -86 -8 -152.5t-13 -99.5l-24 -54q-7 -18 11 -18z" />
    <glyph glyph-name="uni0435" unicode="&#x435;" horiz-adv-x="494" 
d="M274 -10q-64 0 -110 22.5t-73 61.5t-34 88q-3 24 -4.5 45t-1.5 42q0 40 6 89q9 76 60 126t138 50q59 0 97.5 -20t60.5 -53.5t31 -75.5t9 -86l-20 -52h-334l-1 82h255q0 29 -8 55.5t-29 43.5t-60 17q-48 0 -73 -29.5t-28 -73.5q-2 -25 -3 -61.5t3 -81.5q5 -46 35 -73
t84 -27q34 0 66 10.5t61 29.5l29 -80q-38 -26 -74 -37.5t-82 -11.5z" />
    <glyph glyph-name="uni0436" unicode="&#x436;" horiz-adv-x="718" 
d="M26 0l151 290l-5 -53l-143 267h115l106 -204h55v204h106v-204h55l106 204h114l-140 -267l-5 53l151 -290h-118l-107 210h-56v-210h-106v210h-56l-107 -210h-116z" />
    <glyph glyph-name="uni0437" unicode="&#x437;" horiz-adv-x="454" 
d="M206 -7q-56 0 -101.5 11.5t-88.5 42.5l33 86q23 -18 45.5 -28t47.5 -14.5t55 -4.5q53 0 79 18t26 50q0 25 -22.5 44t-70.5 19h-75v80h75q43 0 63 17.5t20 46.5q0 28 -26 45.5t-73 17.5q-33 0 -68 -7t-65 -25l-31 81q41 23 82.5 33t87.5 10q34 0 69 -8t64.5 -25t47 -45
t17.5 -68q0 -47 -22 -74t-53 -39q22 -7 42 -21t32.5 -36.5t12.5 -57.5q0 -51 -29.5 -84.5t-76 -49t-97.5 -15.5z" />
    <glyph glyph-name="uni0438" unicode="&#x438;" horiz-adv-x="558" 
d="M77 0v504h106v-261l-13 -75q-1 -7 4.5 -10t9.5 4l202 342h95v-504h-106v256l12 74q2 8 -3.5 10.5t-11.5 -6.5l-200 -334h-95z" />
    <glyph glyph-name="uni0439" unicode="&#x439;" horiz-adv-x="558" 
d="M77 0v504h106v-261l-13 -75q-1 -7 4.5 -10t9.5 4l202 342h95v-504h-106v256l12 74q2 8 -3.5 10.5t-11.5 -6.5l-200 -334h-95zM276 601q-64 0 -106 30.5t-59 88.5l76 20q12 -31 33.5 -48.5t55.5 -17.5t55.5 17.5t32.5 48.5l76 -20q-15 -58 -58 -88.5t-106 -30.5z" />
    <glyph glyph-name="uni043A" unicode="&#x43a;" horiz-adv-x="501" 
d="M77 0v504h107v-204h57l114 204h113l-146 -265l-8 52l161 -291h-118l-117 210h-56v-210h-107z" />
    <glyph glyph-name="uni043B" unicode="&#x43b;" horiz-adv-x="543" 
d="M50 -11l-29 90q31 8 54 26t30 48q8 35 13 82t7.5 113t3.5 156h337v-504h-108v414h-127q-2 -86 -9 -155t-15 -118q-11 -70 -53.5 -106t-103.5 -46z" />
    <glyph glyph-name="uni043C" unicode="&#x43c;" horiz-adv-x="664" 
d="M77 0v504h95l149 -259q5 -8 11 -8t10 8l150 259h95v-504h-103v234l11 72q2 7 -3.5 9.5t-10.5 -5.5l-125 -205h-51l-122 205q-4 8 -10 5.5t-5 -9.5l12 -72v-234h-103z" />
    <glyph glyph-name="uni043D" unicode="&#x43d;" horiz-adv-x="548" 
d="M77 0v504h108v-204h179v204h107v-504h-107v210h-179v-210h-108z" />
    <glyph glyph-name="uni043E" unicode="&#x43e;" horiz-adv-x="525" 
d="M262 -11q-91 0 -143.5 49.5t-61.5 124.5q-6 48 -6 88q0 21 1.5 43t4.5 47q10 75 62 124.5t143 49.5q92 0 144.5 -49t61.5 -125q6 -49 6 -90q0 -40 -6 -88q-10 -75 -62 -124.5t-144 -49.5zM262 79q49 0 74.5 28.5t29.5 66.5q4 42 4 77t-4 78q-4 39 -29.5 67t-74.5 28
q-47 0 -73.5 -28t-29.5 -67q-4 -43 -3.5 -78t4.5 -77q4 -38 29.5 -66.5t72.5 -28.5z" />
    <glyph glyph-name="uni043F" unicode="&#x43f;" horiz-adv-x="544" 
d="M77 0v504h390v-504h-107v414h-175v-414h-108z" />
    <glyph glyph-name="uni0440" unicode="&#x440;" horiz-adv-x="543" 
d="M77 -200v704h108v-28q19 17 50 28t65 11q89 0 134.5 -45.5t53.5 -123.5q2 -26 3 -48t1 -45q0 -21 -1 -43.5t-3 -50.5q-7 -77 -52 -123t-132 -46q-14 0 -23 1.5t-20 3.5l-55 34q-9 5 -15 1.5t-6 -11.5v-219h-108zM282 80q51 0 73.5 26t25.5 62q4 42 4 84.5t-4 83.5
q-3 36 -26 61.5t-73 25.5q-48 0 -72.5 -21.5t-24.5 -58.5v-181q0 -36 25.5 -59t71.5 -23z" />
    <glyph glyph-name="uni0441" unicode="&#x441;" horiz-adv-x="448" 
d="M264 -13q-93 0 -145.5 50t-61.5 125q-6 50 -6 90q0 21 1.5 42.5t4.5 46.5q10 76 62 125.5t144 49.5q45 0 80 -11.5t66 -34.5l-30 -82q-26 17 -52 26.5t-60 9.5q-49 0 -77.5 -27.5t-30.5 -66.5q-3 -44 -3.5 -79t3.5 -78q3 -38 31 -66t79 -28q30 0 58.5 8.5t56.5 26.5
l28 -79q-36 -25 -71.5 -36.5t-76.5 -11.5z" />
    <glyph glyph-name="uni0442" unicode="&#x442;" horiz-adv-x="449" 
d="M171 0v414h-145v90h397v-90h-145v-414h-107z" />
    <glyph glyph-name="uni0443" unicode="&#x443;" horiz-adv-x="475" 
d="M88 -218l-32 94q53 11 80.5 41t40.5 74l14 47l-175 466h111l97 -277l10 -69q1 -8 7.5 -8t7.5 8l12 69l78 277h109l-172 -550q-20 -67 -68.5 -112t-119.5 -60z" />
    <glyph glyph-name="uni0444" unicode="&#x444;" horiz-adv-x="708" 
d="M303 -246v235q0 17 -16 15l-65 -7q-45 6 -79.5 28.5t-56 58.5t-29.5 80q-3 23 -4.5 44.5t-1.5 43.5q0 23 1.5 44.5t4.5 44.5q6 44 28 79.5t57 58.5t80 28l65 -6q16 -2 16 14v235h102v-235q0 -16 16 -14l65 6q45 -5 79.5 -28t56.5 -58.5t28 -79.5q3 -23 5 -44.5t2 -44.5
q0 -22 -1.5 -43.5t-5.5 -44.5q-6 -44 -28 -80t-56.5 -58.5t-79.5 -28.5l-65 7q-16 2 -16 -15v-235h-102zM303 76v352q-65 0 -98 -26.5t-40 -66.5q-3 -21 -5 -41t-2 -42q0 -43 8 -82q8 -40 40 -67t97 -27zM405 76q65 0 97 27t40 67q4 20 6 40t2 42q0 43 -7 83
q-8 40 -40.5 66.5t-97.5 26.5v-352z" />
    <glyph glyph-name="uni0445" unicode="&#x445;" horiz-adv-x="486" 
d="M26 0l144 252l-144 252h118l77 -147l15 -46q2 -6 7.5 -6t7.5 6l16 46l75 147h118l-143 -252l143 -252h-118l-75 147l-16 46q-2 6 -7.5 6t-7.5 -6l-15 -46l-77 -147h-118z" />
    <glyph glyph-name="uni0446" unicode="&#x446;" horiz-adv-x="569" 
d="M77 0v504h108v-414h178v414h108v-504h-394zM436 -130v220h99v-220h-99z" />
    <glyph glyph-name="uni0447" unicode="&#x447;" horiz-adv-x="526" 
d="M340 0v193q0 10 -5.5 12t-14.5 -3l-52 -29q-20 -6 -49 -6q-48 0 -84.5 18t-57.5 55t-21 93v171h108v-153q0 -42 21 -64.5t66 -22.5q36 0 57 10.5t33 25.5v204h108v-504h-109z" />
    <glyph glyph-name="uni0448" unicode="&#x448;" horiz-adv-x="790" 
d="M77 0v504h108v-414h156v414h108v-414h156v414h108v-504h-636z" />
    <glyph glyph-name="uni0449" unicode="&#x449;" horiz-adv-x="811" 
d="M77 0v504h108v-414h156v414h108v-414h156v414h108v-504h-636zM678 -130v220h98v-220h-98z" />
    <glyph glyph-name="uni044A" unicode="&#x44a;" horiz-adv-x="537" 
d="M121 0v504h108v-171h90q90 0 140.5 -43.5t50.5 -121.5q0 -80 -50.5 -124t-140.5 -44h-198zM229 88h90q40 0 62 21.5t22 58.5q0 35 -22 56t-62 21h-90v-157zM12 414v90h217v-90h-217z" />
    <glyph glyph-name="uni044B" unicode="&#x44b;" horiz-adv-x="718" 
d="M533 0v504h108v-504h-108zM77 0v504h108v-171h90q90 0 141 -43.5t51 -121.5q0 -80 -51 -124t-141 -44h-198zM185 88h90q40 0 62 21.5t22 58.5q0 35 -22 56t-62 21h-90v-157z" />
    <glyph glyph-name="uni044C" unicode="&#x44c;" horiz-adv-x="493" 
d="M77 0v504h108v-171h90q90 0 141 -43.5t51 -121.5q0 -80 -51 -124t-141 -44h-198zM185 88h90q40 0 62 21.5t22 58.5q0 35 -22 56t-62 21h-90v-157z" />
    <glyph glyph-name="uni044D" unicode="&#x44d;" horiz-adv-x="471" 
d="M198 -13q-45 0 -83.5 11.5t-78.5 36.5l29 77q63 -34 129 -34q56 0 86.5 28.5t34.5 66.5q3 43 3 78t-3 79q-3 40 -34 67.5t-86 27.5q-38 0 -67 -9.5t-59 -26.5l-30 81q34 23 72 34.5t88 11.5q97 0 151 -49.5t64 -125.5q4 -25 5 -46.5t1 -42.5q0 -40 -6 -90
q-10 -75 -64.5 -125t-151.5 -50zM332 212h-204v86h204v-86z" />
    <glyph glyph-name="uni044E" unicode="&#x44e;" horiz-adv-x="744" 
d="M77 0v504h108v-204h139v-90h-139v-210h-108zM481 -11q-92 0 -144 49.5t-61 124.5q-6 48 -6 88q0 21 1 43t5 47q9 75 61 124.5t144 49.5t144 -49t62 -125q6 -49 6 -90q0 -40 -6 -88q-10 -75 -62 -124.5t-144 -49.5zM481 79q48 0 73.5 28.5t29.5 66.5q5 42 5 77t-4 78
q-4 39 -30 67t-74 28t-74.5 -28t-29.5 -67q-3 -43 -3 -78t4 -77q4 -38 29.5 -66.5t73.5 -28.5z" />
    <glyph glyph-name="uni044F" unicode="&#x44f;" horiz-adv-x="518" 
d="M37 0l88 150l32 37q10 12 -4 16q-51 11 -79 49t-28 89q0 78 48.5 120.5t136.5 42.5h210v-504h-106v190h-76l-108 -190h-114zM230 271h106v146h-106q-37 0 -57.5 -20t-20.5 -55q0 -33 20.5 -52t57.5 -19z" />
    <glyph glyph-name="uni0450" unicode="&#x450;" horiz-adv-x="494" 
d="M274 -10q-64 0 -110 22.5t-73 61.5t-34 88q-3 24 -4.5 45t-1.5 42q0 40 6 89q9 76 60 126t138 50q59 0 97.5 -20t60.5 -53.5t31 -75.5t9 -86l-20 -52h-334l-1 82h255q0 29 -8 55.5t-29 43.5t-60 17q-48 0 -73 -29.5t-28 -73.5q-2 -25 -3 -61.5t3 -81.5q5 -46 35 -73
t84 -27q34 0 66 10.5t61 29.5l29 -80q-38 -26 -74 -37.5t-82 -11.5zM217 591l-116 159h111l115 -159h-110z" />
    <glyph glyph-name="uni0451" unicode="&#x451;" horiz-adv-x="494" 
d="M274 -10q-64 0 -110 22.5t-73 61.5t-34 88q-3 24 -4.5 45t-1.5 42q0 40 6 89q9 76 60 126t138 50q59 0 97.5 -20t60.5 -53.5t31 -75.5t9 -86l-20 -52h-334l-1 82h255q0 29 -8 55.5t-29 43.5t-60 17q-48 0 -73 -29.5t-28 -73.5q-2 -25 -3 -61.5t3 -81.5q5 -46 35 -73
t84 -27q34 0 66 10.5t61 29.5l29 -80q-38 -26 -74 -37.5t-82 -11.5zM296 591v109h102v-109h-102zM112 591v109h102v-109h-102z" />
    <glyph glyph-name="uni0452" unicode="&#x452;" horiz-adv-x="564" 
d="M321 -222l-31 93q44 11 69 43t25 86h108q0 -50 -13.5 -88t-37 -64.5t-54.5 -44t-66 -25.5zM94 0v750h106v-271q22 15 54 26t71 11q48 0 86 -18.5t59.5 -53.5t21.5 -83v-361h-108v331q0 42 -21.5 65t-67.5 23q-47 0 -71 -23t-24 -65v-331h-106zM5 583v83h331v-83h-331z
" />
    <glyph glyph-name="uni0453" unicode="&#x453;" horiz-adv-x="419" 
d="M77 0v504h312v-90h-204v-414h-108zM136 591l116 159h110l-115 -159h-111z" />
    <glyph glyph-name="uni0454" unicode="&#x454;" horiz-adv-x="471" 
d="M273 -13q-97 0 -151.5 50t-64.5 125q-6 50 -6 90q0 21 1.5 42.5t4.5 46.5q10 76 64.5 125.5t150.5 49.5q50 0 88.5 -11.5t71.5 -34.5l-30 -81q-30 17 -59 26.5t-67 9.5q-55 0 -85.5 -27.5t-33.5 -67.5q-3 -44 -3.5 -79t3.5 -78q3 -38 34 -66.5t86 -28.5q67 0 130 34
l28 -77q-39 -25 -78 -36.5t-84 -11.5zM140 212v86h203v-86h-203z" />
    <glyph glyph-name="uni0455" unicode="&#x455;" horiz-adv-x="461" 
d="M231 -12q-52 0 -96 14.5t-86 42.5l33 84q28 -19 52 -29.5t47.5 -15.5t49.5 -5q47 0 70 19.5t23 51.5q0 24 -17.5 41t-52.5 19l-57 4q-63 4 -105.5 37.5t-42.5 102.5q0 75 51.5 118.5t137.5 43.5q48 0 88.5 -10.5t77.5 -34.5l-32 -82q-27 18 -59.5 27t-73.5 9
q-46 0 -69.5 -17t-23.5 -48q0 -24 17 -37.5t44 -15.5l57 -4q74 -4 115.5 -42.5t41.5 -106.5q0 -75 -50.5 -120.5t-139.5 -45.5z" />
    <glyph glyph-name="uni0456" unicode="&#x456;" horiz-adv-x="301" 
d="M116 0v413h-78v91h186v-504h-108zM116 591v109h108v-109h-108z" />
    <glyph glyph-name="uni0457" unicode="&#x457;" horiz-adv-x="301" 
d="M116 0v413h-78v91h186v-504h-108zM194 591v109h102v-109h-102zM10 591v109h102v-109h-102z" />
    <glyph glyph-name="uni0458" unicode="&#x458;" horiz-adv-x="301" 
d="M52 -222l-30 93q43 12 68.5 45t25.5 90v407h-78v91h186v-495q0 -53 -13.5 -92.5t-37 -67t-55 -45.5t-66.5 -26zM116 591v109h107v-109h-107z" />
    <glyph glyph-name="uni0459" unicode="&#x459;" horiz-adv-x="774" 
d="M50 -11l-29 90q31 8 54 26t30 48q8 35 13 82t7.5 113t3.5 156h337v-504h-108v414h-127q-2 -86 -9 -155t-15 -118q-11 -70 -53.5 -106t-103.5 -46zM358 0v504h108v-171h90q90 0 141 -43.5t51 -121.5q0 -80 -51 -124t-141 -44h-198zM466 88h90q40 0 62 21.5t22 58.5
q0 35 -22 56t-62 21h-90v-157z" />
    <glyph glyph-name="uni045A" unicode="&#x45a;" horiz-adv-x="779" 
d="M77 0v504h108v-179h179v179h107v-179h90q91 0 141.5 -42.5t50.5 -118.5q0 -78 -50.5 -121t-141.5 -43h-197v235h-179v-235h-108zM471 88h90q41 0 63 20.5t22 55.5q0 33 -22 53t-63 20h-90v-149z" />
    <glyph glyph-name="uni045B" unicode="&#x45b;" horiz-adv-x="553" 
d="M-6 583v83h330v-83h-330zM82 0v750h106v-271q23 15 54.5 26t71.5 11q48 0 85.5 -18.5t59 -53.5t21.5 -83v-361h-107v331q0 42 -21.5 65t-67.5 23q-47 0 -71.5 -23t-24.5 -65v-331h-106z" />
    <glyph glyph-name="uni045C" unicode="&#x45c;" horiz-adv-x="501" 
d="M77 0v504h107v-204h57l114 204h113l-146 -265l-8 52l161 -291h-118l-117 210h-56v-210h-107zM175 591l116 159h110l-115 -159h-111z" />
    <glyph glyph-name="uni045D" unicode="&#x45d;" horiz-adv-x="558" 
d="M77 0v504h106v-261l-13 -75q-1 -7 4.5 -10t9.5 4l202 342h95v-504h-106v256l12 74q2 8 -3.5 10.5t-11.5 -6.5l-200 -334h-95zM239 591l-116 159h111l115 -159h-110z" />
    <glyph glyph-name="uni045E" unicode="&#x45e;" horiz-adv-x="475" 
d="M88 -218l-32 94q53 11 80.5 41t40.5 74l14 47l-175 466h111l97 -277l10 -69q1 -8 7.5 -8t7.5 8l12 69l78 277h109l-172 -550q-20 -67 -68.5 -112t-119.5 -60zM238 601q-64 0 -106 30.5t-59 88.5l76 20q12 -31 33.5 -48.5t55.5 -17.5t55.5 17.5t32.5 48.5l76 -20
q-15 -58 -58 -88.5t-106 -30.5z" />
    <glyph glyph-name="uni045F" unicode="&#x45f;" horiz-adv-x="548" 
d="M77 0v504h108v-414h178v414h108v-504h-394zM225 -130v220h98v-220h-98z" />
    <glyph glyph-name="uni0460" unicode="&#x460;" horiz-adv-x="803" 
d="M540 -12q-37 0 -71 14t-61.5 44t-43 78.5t-15.5 117.5v238h105v-235q0 -45 5.5 -80t23 -55.5t55.5 -20.5q26 0 44 12t29 42t16 84t5 139q0 92 -12 173.5t-34 160.5h112q17 -51 32 -137t15 -205q0 -106 -14 -177.5t-40.5 -113.5t-64 -60.5t-86.5 -18.5zM273 -12
q-50 0 -90.5 18.5t-68 60.5t-42 113.5t-14.5 177.5q0 119 15.5 205t31.5 137h112q-21 -79 -34 -160.5t-13 -173.5q0 -85 5.5 -139t17.5 -84t31 -42t47 -12q36 0 52 20.5t21 55.5t5 80v235h105v-238q0 -69 -14.5 -117.5t-40.5 -78.5t-58.5 -44t-67.5 -14zM251 407v97h299v-97
h-201h-98z" />
    <glyph glyph-name="uni0461" unicode="&#x461;" horiz-adv-x="694" 
d="M462 -12q-44 0 -76.5 16t-53 47t-30 73t-9.5 95v281h108v-278q0 -37 3.5 -69t16.5 -51.5t41 -19.5q14 0 28.5 5.5t26 23.5t19 56t7.5 103q0 33 -7 77t-19.5 86t-29.5 67h107q12 -18 22.5 -47t17.5 -63t11 -66t4 -58q0 -87 -17.5 -141.5t-45.5 -84t-60.5 -41t-63.5 -11.5z
M232 -12q-31 0 -64 11.5t-60.5 41t-45 84t-17.5 141.5q0 26 4 58t11 66t17.5 63t22.5 47h107q-17 -25 -29.5 -67t-19.5 -86t-7 -77q0 -65 7 -103t19 -56t26.5 -23.5t28.5 -5.5q28 0 41 19.5t16.5 51.5t3.5 69v278h108v-281q0 -53 -10 -95t-30 -73t-52.5 -47t-76.5 -16z" />
    <glyph glyph-name="uni0462" unicode="&#x462;" horiz-adv-x="590" 
d="M6 528v87h389v-87h-389zM104 0v700h114v-281h119q104 0 163.5 -56t59.5 -152q0 -98 -59.5 -154.5t-163.5 -56.5h-233zM218 94h119q52 0 80.5 31t28.5 85q0 52 -28.5 84t-80.5 32h-119v-232z" />
    <glyph glyph-name="uni0463" unicode="&#x463;" horiz-adv-x="529" 
d="M114 0v730h107v-397h91q90 0 140.5 -43.5t50.5 -121.5q0 -80 -50.5 -124t-140.5 -44h-198zM221 88h91q40 0 62 21.5t22 58.5q0 35 -22 56t-62 21h-91v-157zM15 417v87h372v-87h-372z" />
    <glyph glyph-name="uni0464" unicode="&#x464;" horiz-adv-x="786" 
d="M82 0v700h113v-301h171v-98h-171v-301h-113zM578 -12q-71 0 -125.5 26t-86.5 76.5t-38 121.5q-2 30 -3.5 68t-1.5 70q0 33 1.5 71t3.5 67q6 72 37.5 122t85 76t123.5 26q50 0 93 -13.5t82 -40.5l-32 -94q-31 23 -64 34.5t-72 11.5q-64 0 -100 -33.5t-41 -97.5
q-2 -37 -3.5 -67t-1.5 -62t1.5 -62t3.5 -67q5 -64 40 -97.5t98 -32.5q41 0 74.5 12t63.5 34l34 -92q-39 -28 -80.5 -42.5t-91.5 -14.5zM387 301v98h281v-98h-281z" />
    <glyph glyph-name="uni0465" unicode="&#x465;" horiz-adv-x="664" 
d="M77 0v504h108v-206h70v-86h-70v-212h-108zM466 -13q-97 0 -151.5 50t-64.5 125q-6 50 -6 90q0 21 1 42.5t5 46.5q10 76 64.5 125.5t150.5 49.5q49 0 87.5 -11.5t71.5 -34.5l-30 -81q-29 17 -58 26.5t-67 9.5q-55 0 -86 -27.5t-34 -67.5q-3 -44 -3 -79t3 -78
q3 -38 34 -66.5t87 -28.5q67 0 129 34l29 -77q-40 -25 -78.5 -36.5t-83.5 -11.5zM332 212v86h204v-86h-204z" />
    <glyph glyph-name="uni0466" unicode="&#x466;" horiz-adv-x="637" 
d="M16 0l224 700h157l224 -700h-116l-167 544l-11 58q-1 7 -8 7t-8 -7l-12 -58l-167 -544h-116zM266 0v206l-74 85l45 89l82 -90l81 90l45 -89l-74 -85v-206h-105z" />
    <glyph glyph-name="uni0467" unicode="&#x467;" horiz-adv-x="524" 
d="M-5 0l202 504h130l202 -504h-102l-148 368l-11 43q-1 6 -6 6t-7 -6l-10 -43l-148 -368h-102zM211 0v132l-73 68l31 93l81 -75q5 -4 11.5 -4t11.5 4l81 75l30 -93l-73 -68v-132h-100z" />
    <glyph glyph-name="uni0468" unicode="&#x468;" horiz-adv-x="910" 
d="M82 0v700h113v-299h263v-102h-263v-299h-113zM289 0l223 700h158l224 -700h-116l-167 544l-12 58q-1 7 -7.5 7t-7.5 -7l-13 -58l-166 -544h-116zM539 0v206l-74 85l45 89l81 -90l82 90l45 -89l-74 -85v-206h-105z" />
    <glyph glyph-name="uni0469" unicode="&#x469;" horiz-adv-x="761" 
d="M77 0v504h108v-206h185v-86h-185v-212h-108zM233 0l201 504h131l201 -504h-102l-148 368l-10 43q-1 6 -6.5 6t-6.5 -6l-11 -43l-147 -368h-102zM449 0v132l-73 68l30 93l82 -75q4 -4 11 -4t11 4l82 75l29 -93l-73 -68v-132h-99z" />
    <glyph glyph-name="uni046A" unicode="&#x46a;" horiz-adv-x="784" 
d="M28 0l43 174q13 54 29 92t41 64t63 42l36 8q8 2 11.5 6.5t-2.5 11.5l-184 233v69h654v-69l-184 -233q-6 -7 -2.5 -11.5t11.5 -6.5l36 -8q39 -16 63.5 -42t41 -64.5t28.5 -92.5l43 -173h-115l-40 176q-14 61 -49 94t-104 33v-303h-112v303q-68 0 -103.5 -33t-49.5 -94
l-40 -176h-115zM366 399h52l109 157l40 34q7 6 5 11t-10 5h-340q-8 0 -10 -5t5 -11l40 -34z" />
    <glyph glyph-name="uni046B" unicode="&#x46b;" horiz-adv-x="562" 
d="M12 0q11 40 22.5 84.5t27 83.5t36.5 66t52 32q5 1 7 6t-1 10l-106 172v50h467v-50l-106 -172q-3 -5 -1 -10t7 -6q31 -5 52.5 -32t37 -66t26.5 -83.5t22 -84.5h-102q-9 40 -18.5 78.5t-22.5 69.5t-32 49.5t-47 18.5v-216h-98v216q-28 0 -47.5 -18.5t-32.5 -49.5
t-22.5 -69.5t-18.5 -78.5h-102zM243 302h82l46 82l33 24q3 2 2 6t-5 4h-234q-4 0 -5 -4t2 -6l33 -24z" />
    <glyph glyph-name="uni046C" unicode="&#x46c;" horiz-adv-x="1043" 
d="M82 0v700h113v-299h351l-37 -102h-314v-299h-113zM288 0l42 174q13 54 29.5 92t41.5 64t63 42l36 8q8 2 11.5 6.5t-2.5 11.5l-185 233v69h654v-69l-184 -233q-6 -7 -2.5 -11.5t11.5 -6.5l36 -8q39 -16 63.5 -42t41 -64.5t29.5 -92.5l42 -173h-114l-41 176q-14 61 -49 94
t-103 33v-303h-113v303q-68 0 -103 -33t-49 -94l-41 -176h-114zM626 399h52l108 157l41 34q6 6 4 11t-10 5h-339q-8 0 -10 -5t4 -11l41 -34z" />
    <glyph glyph-name="uni046D" unicode="&#x46d;" horiz-adv-x="784" 
d="M77 0v504h108v-206h218v-86h-218v-212h-108zM234 0q11 40 22.5 84.5t27 83.5t36.5 66t52 32q5 1 7 6t-1 10l-106 172v50h468v-50l-106 -172q-3 -5 -1 -10t7 -6q31 -5 52 -32t36.5 -66t27 -83.5t22.5 -84.5h-103q-9 40 -18 78.5t-22.5 69.5t-32.5 49.5t-47 18.5v-216h-98
v216q-28 0 -47 -18.5t-32.5 -49.5t-22.5 -69.5t-18 -78.5h-103zM465 302h82l46 82l33 24q3 2 2 6t-5 4h-234q-4 0 -5 -4t2 -6l33 -24z" />
    <glyph glyph-name="uni046E" unicode="&#x46e;" horiz-adv-x="523" 
d="M154 -226q-44 0 -81 16.5t-59 51.5t-22 90q0 60 26 95.5t71.5 51t101.5 15.5h39q71 0 105 28t34 79q0 48 -31.5 76t-101.5 28h-140v98h144q58 0 85 28.5t27 77.5q0 46 -32 73t-90 27q-39 0 -83.5 -10.5t-79.5 -32.5l-34 89q49 29 98 41t105 12q37 0 76 -10t72.5 -32.5
t54 -60t20.5 -91.5q0 -60 -27.5 -99.5t-65.5 -55.5q29 -10 54.5 -32t41 -54t15.5 -76q0 -56 -20.5 -95t-56 -63.5t-79.5 -35.5t-91 -11h-39q-39 0 -60.5 -7.5t-30 -20.5t-8.5 -32q0 -27 19 -44t64 -17q56 0 117.5 15.5t109.5 31.5l17 -98q-61 -19 -124.5 -32.5t-140.5 -13.5
zM196 772l-93 158h93l35 -62l11 -34q2 -7 6 -7t6 7l11 34l36 62h92l-93 -158h-104z" />
    <glyph glyph-name="uni046F" unicode="&#x46f;" horiz-adv-x="452" 
d="M214 -149q-55 0 -100 14t-71.5 43.5t-26.5 75.5q0 35 16 58t43.5 33.5t61.5 10.5h54q53 0 79.5 18t26.5 50q0 25 -22.5 44t-71.5 19h-99v80h99q43 0 63 17.5t20 46.5q0 28 -25.5 45.5t-73.5 17.5q-33 0 -68 -7t-65 -25l-31 81q41 23 82.5 33t88.5 10q33 0 68 -8t64.5 -25
t47 -45t17.5 -68q0 -47 -21.5 -74t-53.5 -39q23 -7 42.5 -21t32 -36.5t12.5 -57.5q0 -51 -28.5 -84.5t-75.5 -49t-104 -15.5h-41q-16 0 -28 -1.5t-12 -16.5q0 -11 21.5 -20t72.5 -9q38 0 82 10t80 31l10 -92q-23 -13 -66.5 -28.5t-99.5 -15.5zM129 591l-93 159h93l36 -63
l10 -34q3 -7 6.5 -7t5.5 7l11 34l36 63h93l-93 -159h-105z" />
    <glyph glyph-name="uni0470" unicode="&#x470;" horiz-adv-x="742" 
d="M320 0v210q-72 3 -126 24.5t-89 72.5t-50 140l-43 253h115l40 -256q11 -65 48 -99t105 -34v389h112v-389q68 0 112 33.5t44 99.5v256h114l-2 -242q0 -80 -34 -134.5t-94 -82.5t-140 -31v-210h-112z" />
    <glyph glyph-name="uni0471" unicode="&#x471;" horiz-adv-x="658" 
d="M278 -250v242q-57 2 -100 23.5t-71.5 72.5t-41.5 140l-43 276h111l40 -278q7 -67 33 -102.5t72 -35.5v632h107v-632q49 0 81.5 35t32.5 103v278h107l-2 -265q0 -80 -28 -134t-77 -82t-114 -31v-242h-107z" />
    <glyph glyph-name="uni0472" unicode="&#x472;" horiz-adv-x="612" 
d="M138 285l-31 83q23 24 52 35.5t64 11.5q43 0 68.5 -9.5t47 -18.5t49.5 -9q26 0 45.5 9.5t39.5 29.5l31 -83q-23 -24 -52 -35.5t-63 -11.5q-42 0 -68.5 9t-48 18.5t-49.5 9.5q-25 0 -45 -10t-40 -29zM306 -12q-53 0 -98 16t-78 50q-22 23 -39.5 56t-27 90t-9.5 150
t9.5 150t27 90.5t39.5 55.5q33 34 78 50t98 16t98 -16t77 -50q23 -22 40 -55.5t26.5 -90.5t9.5 -150t-9.5 -150t-26.5 -90t-40 -56q-32 -34 -77 -50t-98 -16zM306 91q61 0 95 34.5t38 93.5q2 38 3.5 69t1.5 62q0 32 -1.5 63t-3.5 68q-4 59 -38 93.5t-95 34.5
q-62 0 -96 -34.5t-37 -93.5q-3 -37 -4.5 -68t-1.5 -63q0 -31 1.5 -62t4.5 -69q3 -59 37 -93.5t96 -34.5z" />
    <glyph glyph-name="uni0473" unicode="&#x473;" horiz-adv-x="525" 
d="M146 188l-21 79q16 24 36 35.5t44 11.5q30 0 48 -9.5t32.5 -18.5t34.5 -9q18 0 31.5 9.5t27.5 29.5l21 -79q-16 -25 -36 -36t-44 -11q-29 0 -47 9.5t-33 18.5t-34 9q-18 0 -32 -10t-28 -29zM262 -11q-91 0 -143.5 49.5t-61.5 124.5q-6 48 -6 88q0 21 1.5 43t4.5 47
q10 75 62 124.5t143 49.5q92 0 144.5 -49t61.5 -125q6 -49 6 -90q0 -40 -6 -88q-10 -75 -62 -124.5t-144 -49.5zM262 79q49 0 74.5 28.5t29.5 66.5q4 42 4 77t-4 78q-4 39 -29.5 67t-74.5 28q-47 0 -73.5 -28t-29.5 -67q-4 -43 -3.5 -78t4.5 -77q4 -38 29.5 -66.5
t72.5 -28.5z" />
    <glyph glyph-name="uni0474" unicode="&#x474;" horiz-adv-x="590" 
d="M191 0l-171 700h114l123 -534l8 -68q2 -7 8 -7q7 0 7 7l7 68l88 369q20 86 63.5 127.5t112.5 41.5q13 0 26 -1.5t19 -2.5v-97l-7 1t-17 1q-44 0 -64.5 -27.5t-32.5 -74.5l-123 -503h-161z" />
    <glyph glyph-name="uni0475" unicode="&#x475;" horiz-adv-x="499" 
d="M162 0l-136 504h109l90 -356l7 -60q2 -8 7 -8q6 0 7 8l8 60l52 200q19 76 60.5 116.5t108.5 41.5q7 0 14.5 -0.5t15.5 -1.5v-94q-4 1 -8 1h-9q-35 -2 -55.5 -26.5t-32.5 -68.5l-85 -316h-153z" />
    <glyph glyph-name="uni0476" unicode="&#x476;" horiz-adv-x="590" 
d="M191 0l-171 700h114l123 -534l8 -68q2 -7 8 -7q7 0 7 7l7 68l88 369q20 86 63.5 127.5t112.5 41.5q13 0 26 -1.5t19 -2.5v-97l-7 1t-17 1q-44 0 -64.5 -27.5t-32.5 -74.5l-123 -503h-161zM168 771l-116 159h111l115 -159h-110zM360 771l-116 159h111l115 -159h-110z" />
    <glyph glyph-name="uni0477" unicode="&#x477;" horiz-adv-x="499" 
d="M162 0l-136 504h109l90 -356l7 -60q2 -8 7 -8q6 0 7 8l8 60l52 200q19 76 60.5 116.5t108.5 41.5q7 0 14.5 -0.5t15.5 -1.5v-94q-4 1 -8 1h-9q-35 -2 -55.5 -26.5t-32.5 -68.5l-85 -316h-153zM414 591h-111l-115 159h110zM222 591h-111l-115 159h110z" />
    <glyph glyph-name="uni0478" unicode="&#x478;" horiz-adv-x="1086" 
d="M306 -12q-53 0 -98 16t-78 50q-22 23 -39.5 56t-27 90t-9.5 150t9.5 150t27 90.5t39.5 55.5q33 34 78 50t98 16t98 -16t77 -50q23 -22 40 -55.5t26.5 -90.5t9.5 -150t-9.5 -150t-26.5 -90t-40 -56q-32 -34 -77 -50t-98 -16zM306 91q61 0 95 34.5t38 93.5q2 38 3.5 69
t1.5 62q0 32 -1.5 63t-3.5 68q-4 59 -38 93.5t-95 34.5q-62 0 -96 -34.5t-37 -93.5q-3 -37 -4.5 -68t-1.5 -63q0 -31 1.5 -62t4.5 -69q3 -59 37 -93.5t96 -34.5zM700 -218l-32 94q53 11 80.5 41t40.5 74l14 47l-175 466h111l97 -277l10 -69q1 -8 7.5 -8t7.5 8l12 69l78 277
h109l-172 -550q-20 -67 -68.5 -112t-119.5 -60z" />
    <glyph glyph-name="uni0479" unicode="&#x479;" horiz-adv-x="949" 
d="M547 -218l-31 94q52 11 79.5 41t40.5 74l14 47l-175 466h111l98 -277l9 -69q2 -8 8 -8t7 8l12 69l36 121q20 76 62 117t110 41q6 0 13.5 -0.5t13.5 -1.5v-94q-3 1 -6.5 1h-6.5q-38 0 -59 -25.5t-34 -69.5l-114 -362q-20 -67 -68.5 -112t-119.5 -60zM262 -11
q-91 0 -143.5 49.5t-61.5 124.5q-6 48 -6 88q0 21 1.5 43t4.5 47q10 75 62 124.5t143 49.5q92 0 144.5 -49t61.5 -125q6 -49 6 -90q0 -40 -6 -88q-10 -75 -62 -124.5t-144 -49.5zM262 79q49 0 74.5 28.5t29.5 66.5q4 42 4 77t-4 78q-4 39 -29.5 67t-74.5 28q-47 0 -73.5 -28
t-29.5 -67q-4 -43 -3.5 -78t4.5 -77q4 -38 29.5 -66.5t72.5 -28.5z" />
    <glyph glyph-name="uni0480" unicode="&#x480;" horiz-adv-x="503" 
d="M369 -140v134q-15 -2 -29.5 -4t-29.5 -2q-72 0 -126.5 26.5t-86.5 77.5t-37 124q-2 29 -4 66t-2 68q0 32 2 68.5t4 65.5q5 73 36.5 124t85 77.5t124.5 26.5q46 0 85.5 -15t75.5 -44l-32 -89q-29 23 -58.5 34.5t-64.5 11.5q-64 0 -100 -35t-40 -100q-2 -35 -3.5 -64
t-1.5 -61q0 -31 1.5 -60t3.5 -65q5 -66 40 -100.5t98 -33.5q47 0 86 7t71 15v-253h-98z" />
    <glyph glyph-name="uni0481" unicode="&#x481;" horiz-adv-x="448" 
d="M315 -140v130q-12 -1 -24.5 -2t-26.5 -1q-93 0 -145.5 50t-61.5 125q-6 50 -6 90q0 21 1.5 42.5t4.5 46.5q10 76 62 125.5t144 49.5q45 0 80 -11.5t66 -34.5l-30 -82q-26 17 -52 26.5t-60 9.5q-49 0 -77.5 -27.5t-30.5 -66.5q-3 -44 -3.5 -79t3.5 -78q3 -38 31 -66
t79 -28q38 0 73 3.5t70 11.5v-234h-97z" />
    <glyph glyph-name="uni048A" unicode="&#x48a;" horiz-adv-x="644" 
d="M424 -140l113 241h96v-23l-102 -218h-107zM82 0v700h111v-403l-12 -75q-1 -7 4.5 -9.5t9.5 4.5l263 483h101v-700h-111v403l11 74q2 8 -4 10.5t-10 -6.5l-262 -481h-101zM316 779q-63 0 -105.5 30.5t-58.5 88.5l76 20q11 -31 32.5 -48.5t55.5 -17.5q35 0 56.5 17.5
t32.5 48.5l76 -20q-16 -58 -58.5 -88.5t-106.5 -30.5z" />
    <glyph glyph-name="uni048B" unicode="&#x48b;" horiz-adv-x="560" 
d="M351 -130l102 220h92v-20l-93 -200h-101zM77 0v504h106v-261l-13 -75q-1 -7 4.5 -10t9.5 4l202 342h95v-504h-106v256l12 74q2 8 -3.5 10.5t-11.5 -6.5l-200 -334h-95zM276 601q-63 0 -105.5 30.5t-58.5 88.5l76 20q11 -31 32.5 -48.5t55.5 -17.5q35 0 56.5 17.5
t32.5 48.5l76 -20q-16 -58 -58.5 -88.5t-106.5 -30.5z" />
    <glyph glyph-name="uni048C" unicode="&#x48c;" horiz-adv-x="590" 
d="M6 528v87h389v-87h-389zM104 0v700h114v-281h119q104 0 163.5 -56t59.5 -152q0 -98 -59.5 -154.5t-163.5 -56.5h-233zM218 94h119q52 0 80.5 31t28.5 85q0 52 -28.5 84t-80.5 32h-119v-232z" />
    <glyph glyph-name="uni048D" unicode="&#x48d;" horiz-adv-x="521" 
d="M106 0v750h107v-417h91q90 0 140.5 -43.5t50.5 -121.5q0 -80 -50.5 -124t-140.5 -44h-198zM213 88h91q40 0 62 21.5t22 58.5q0 35 -22 56t-62 21h-91v-157zM18 417v87h372v-87h-372z" />
    <glyph glyph-name="uni048E" unicode="&#x48e;" horiz-adv-x="572" 
d="M82 0v700h254q95 0 150.5 -56t55.5 -151q0 -62 -25.5 -107.5t-70.5 -68.5l48 -85l-75 -43l-60 103q-5 -1 -11 -1h-12h-143v-291h-111zM193 383h114l-43 74l75 44l26 -45l5 -45q1 -8 6.5 -10.5t12.5 2.5q47 32 47 91q0 53 -28.5 83t-77.5 30h-137v-224z" />
    <glyph glyph-name="uni048F" unicode="&#x48f;" horiz-adv-x="543" 
d="M77 -200v704h108v-28q19 17 50 28t65 11q89 0 134.5 -45.5t53.5 -123.5q2 -26 3 -48t1 -45q0 -21 -1 -43.5t-3 -50.5q-4 -46 -22 -82t-50 -57l48 -85l-75 -43l-58 100q-6 -1 -13 -1.5t-14 -0.5q-14 0 -23 1.5t-20 3.5l-55 34q-9 5 -15 1.5t-6 -11.5v-219h-108zM274 82
l9 -1l-47 82l73 41l25 -43l8 -39q2 -9 9 -11t11 6q11 16 16.5 34.5t6.5 37.5q3 37 2 74.5t-6 72.5q-4 36 -26.5 61.5t-72.5 25.5q-48 0 -72.5 -21.5t-24.5 -58.5v-181q0 -34 23.5 -56.5t65.5 -23.5z" />
    <glyph glyph-name="uni0490" unicode="&#x490;" horiz-adv-x="449" 
d="M82 0v700h249v140h104v-242h-240v-598h-113z" />
    <glyph glyph-name="uni0491" unicode="&#x491;" horiz-adv-x="419" 
d="M77 0v504h213v140h99v-229h-204v-415h-108z" />
    <glyph glyph-name="uni0492" unicode="&#x492;" horiz-adv-x="452" 
d="M9 308v87h310v-87h-310zM86 0v700h353v-102h-240v-598h-113z" />
    <glyph glyph-name="uni0493" unicode="&#x493;" horiz-adv-x="437" 
d="M96 0v504h312v-90h-204v-414h-108zM18 211v87h310v-87h-310z" />
    <glyph glyph-name="uni0494" unicode="&#x494;" horiz-adv-x="585" 
d="M328 -149q-18 0 -35.5 3t-29.5 7l24 89q15 -5 33 -5q30 0 50 16.5t32 45t17.5 63.5t5.5 71q0 85 -32 123.5t-86 38.5q-36 0 -65 -7.5t-47 -16.5v-279h-113v700h431v-102h-318v-216q0 -9 6 -12t14 1l54 23q14 3 32.5 5t33.5 2q53 0 99.5 -25.5t75.5 -82.5t29 -152
q0 -81 -22.5 -147t-69 -104.5t-119.5 -38.5z" />
    <glyph glyph-name="uni0495" unicode="&#x495;" horiz-adv-x="532" 
d="M77 0v504h348v-90h-240v-414h-108zM311 -149q-17 0 -34.5 3t-29.5 7l23 89q15 -5 33 -5q30 0 47.5 21t24.5 54t7 67q0 56 -25 81t-67 25q-34 0 -61.5 -7.5t-43.5 -16.5v103q0 -9 5.5 -12t14.5 1l53 23q13 3 30 5t30 2q47 0 87.5 -20t65.5 -64.5t25 -119.5
q0 -65 -19.5 -119t-60 -85.5t-105.5 -31.5z" />
    <glyph glyph-name="uni0496" unicode="&#x496;" horiz-adv-x="831" 
d="M730 -140v210l-15 31h118v-241h-103zM22 0l167 356l-169 344h121l141 -302h68v302h111v-302h68l142 302h118l-167 -342l169 -358h-120l-142 301h-68v-301h-111v301h-68l-141 -301h-119z" />
    <glyph glyph-name="uni0497" unicode="&#x497;" horiz-adv-x="738" 
d="M630 -130v188l-15 32h113v-220h-98zM26 0l151 290l-5 -53l-143 267h115l106 -204h55v204h106v-204h55l106 204h114l-140 -267l-5 53l151 -290h-118l-107 210h-56v-210h-106v210h-56l-107 -210h-116z" />
    <glyph glyph-name="uni0498" unicode="&#x498;" horiz-adv-x="526" 
d="M244 -8q-64 0 -117 17.5t-101 56.5l36 92q25 -21 52 -35.5t57 -22t62 -7.5q71 0 105 28.5t34 79.5q0 48 -31.5 76t-101.5 28h-110v98h114q58 0 85 28.5t27 77.5q0 46 -29.5 73t-83.5 27q-39 0 -83 -10.5t-78 -32.5l-34 89q49 29 97 41t104 12q35 0 72.5 -10t69.5 -32.5
t52 -60t20 -91.5q0 -60 -27.5 -99.5t-65.5 -55.5q29 -10 54.5 -32t41 -54t15.5 -76q0 -70 -33 -115.5t-86.5 -67.5t-116.5 -22zM149 -254l19 70q57 0 89.5 12.5t32.5 32.5q0 19 -24.5 25t-81.5 6l33 135l68 -25l-13 -50q45 -6 71.5 -29.5t26.5 -57.5q0 -39 -30 -65.5
t-80 -40t-111 -13.5z" />
    <glyph glyph-name="uni0499" unicode="&#x499;" horiz-adv-x="454" 
d="M206 -7q-56 0 -101.5 11.5t-88.5 42.5l33 86q23 -18 45.5 -28t47.5 -14.5t55 -4.5q53 0 79 18t26 50q0 25 -22.5 44t-70.5 19h-75v80h75q43 0 63 17.5t20 46.5q0 28 -26 45.5t-73 17.5q-33 0 -68 -7t-65 -25l-31 81q41 23 82.5 33t87.5 10q34 0 69 -8t64.5 -25t47 -45
t17.5 -68q0 -47 -22 -74t-53 -39q22 -7 42 -21t32.5 -36.5t12.5 -57.5q0 -51 -29.5 -84.5t-76 -49t-97.5 -15.5zM116 -254l19 70q57 0 89.5 12.5t32.5 32.5q0 19 -24.5 25t-81.5 6l33 135l68 -25l-13 -50q45 -6 71.5 -29.5t26.5 -57.5q0 -39 -30 -65.5t-80 -40t-111 -13.5z
" />
    <glyph glyph-name="uni049A" unicode="&#x49a;" horiz-adv-x="572" 
d="M471 -140v210l-15 31h118v-241h-103zM82 0v700h111v-301h68l148 301h121l-175 -342l174 -358h-120l-148 302h-68v-302h-111z" />
    <glyph glyph-name="uni049B" unicode="&#x49b;" horiz-adv-x="521" 
d="M412 -130v188l-15 32h114v-220h-99zM77 0v504h107v-204h57l114 204h113l-146 -265l-8 52l161 -291h-118l-117 210h-56v-210h-107z" />
    <glyph glyph-name="uni049C" unicode="&#x49c;" horiz-adv-x="670" 
d="M82 0v700h111v-301h60v165h94v-113l-11 -44q-2 -10 4.5 -12.5t11.5 7.5l169 298h122l-159 -269l-49 -63q-9 -10 0 -21l47 -61l160 -286h-121l-169 299q-5 10 -11.5 7t-4.5 -13l11 -43v-112h-94v164h-60v-302h-111z" />
    <glyph glyph-name="uni049D" unicode="&#x49d;" horiz-adv-x="588" 
d="M77 0v504h107v-205h54v129h86v-77l-11 -44q-2 -10 4.5 -12.5t11.5 7.5l111 202h121l-107 -173l-49 -63q-8 -10 0 -21l48 -61l105 -186h-119l-110 199q-5 10 -11.5 7t-4.5 -13l11 -43v-68h-86v120h-54v-202h-107z" />
    <glyph glyph-name="uni049E" unicode="&#x49e;" horiz-adv-x="579" 
d="M10 540v85h297v-85h-297zM104 0v700h111v-301h68l147 301h121l-174 -342l174 -358h-121l-147 302h-68v-302h-111z" />
    <glyph glyph-name="uni049F" unicode="&#x49f;" horiz-adv-x="489" 
d="M-6 583v83h330v-83h-330zM71 0v750h107v-424h49l112 178h120l-140 -217l144 -287h-118l-112 233h-55v-233h-107z" />
    <glyph glyph-name="uni04A0" unicode="&#x4a0;" horiz-adv-x="713" 
d="M26 610v90h212v-90h-212zM238 0v700h111v-301h68l148 301h121l-175 -342l174 -358h-120l-148 302h-68v-302h-111z" />
    <glyph glyph-name="uni04A1" unicode="&#x4a1;" horiz-adv-x="630" 
d="M26 414v90h224v-90h-224zM206 0v504h108v-204h56l114 204h113l-146 -265l-8 52l161 -291h-118l-117 210h-55v-210h-108z" />
    <glyph glyph-name="uni04A2" unicode="&#x4a2;" horiz-adv-x="650" 
d="M514 -140v210l-15 31h119v-241h-104zM82 0v700h113v-299h237v299h114v-700h-114v299h-237v-299h-113z" />
    <glyph glyph-name="uni04A3" unicode="&#x4a3;" horiz-adv-x="561" 
d="M436 -130v188l-15 32h114v-220h-99zM77 0v504h108v-204h179v204h107v-504h-107v210h-179v-210h-108z" />
    <glyph glyph-name="uni04A4" unicode="&#x4a4;" horiz-adv-x="781" 
d="M455 598v102h312v-102h-312zM82 0v700h113v-299h237v299h114v-700h-114v299h-237v-299h-113z" />
    <glyph glyph-name="uni04A5" unicode="&#x4a5;" horiz-adv-x="688" 
d="M393 414v90h265v-90h-265zM77 0v504h108v-204h179v204h107v-504h-107v210h-179v-210h-108z" />
    <glyph glyph-name="uni04A6" unicode="&#x4a6;" horiz-adv-x="919" 
d="M677 -149q-18 0 -35.5 3t-29.5 7l23 89q15 -5 33 -5q30 0 50 16.5t32.5 45t17.5 63.5t5 71q0 85 -31.5 123.5t-86.5 38.5q-36 0 -65 -7.5t-46 -16.5v103q0 -9 5.5 -12t14.5 1l54 23q13 3 32 5t33 2q53 0 99.5 -25.5t75.5 -82.5t29 -152q0 -81 -22 -147t-68.5 -104.5
t-119.5 -38.5zM82 0v700h462v-700h-114v599h-235v-599h-113z" />
    <glyph glyph-name="uni04A7" unicode="&#x4a7;" horiz-adv-x="798" 
d="M594 -149q-18 0 -35.5 3t-29.5 7l23 89q15 -5 33 -5q30 0 47.5 21t24.5 54t7 67q0 56 -24.5 81t-66.5 25q-35 0 -62 -7.5t-44 -16.5v103q0 -9 5.5 -12t14.5 1l54 23q12 3 29 5t31 2q46 0 86.5 -20t65.5 -64.5t25 -119.5q0 -65 -19 -119t-59.5 -85.5t-105.5 -31.5zM77 0
v504h390v-504h-107v414h-175v-414h-108z" />
    <glyph glyph-name="uni04A8" unicode="&#x4a8;" horiz-adv-x="699" 
d="M301 -12q-70 0 -122.5 27t-83 78t-35.5 123q-2 29 -4 66t-2 68q0 32 2 68.5t4 65.5q6 73 38.5 124t88 77.5t129.5 26.5v-102q-63 0 -101.5 -35t-42.5 -100q-2 -35 -3.5 -64t-1.5 -61q0 -31 1.5 -60t3.5 -65q5 -68 39.5 -103.5t98.5 -35.5q47 0 86.5 21.5t68 59.5t44.5 88
t16 107q0 71 -14 107t-59 36q-43 0 -57 -35t-14 -108q0 -83 24 -145.5t70 -97.5t113 -35q13 0 25.5 2t26.5 6v-92q-17 -6 -33 -8.5t-32 -2.5q-65 0 -121 26.5t-97 75.5t-63 118t-22 154q0 118 42.5 177.5t138.5 59.5q94 0 137.5 -59.5t43.5 -177.5q0 -73 -25.5 -140.5
t-71 -120t-106 -83.5t-130.5 -31z" />
    <glyph glyph-name="uni04A9" unicode="&#x4a9;" horiz-adv-x="619" 
d="M265 -11q-93 0 -146 49.5t-62 123.5q-6 48 -6 87q0 21 1.5 44t4.5 48q10 75 62.5 124.5t142.5 49.5v-91q-47 0 -73.5 -28t-29.5 -67q-3 -35 -3 -74t4 -81q4 -38 30 -66.5t75 -28.5q58 0 103 25t71 67.5t26 92.5q0 40 -11 65t-49 25q-35 0 -47 -27.5t-12 -75.5
q0 -44 14 -85t47 -67.5t88 -26.5q16 0 34 3t37 9v-84q-22 -7 -42 -9.5t-42 -2.5q-55 0 -99.5 21t-75 57.5t-47 83.5t-16.5 99q0 65 21 108t57.5 64.5t83.5 21.5q46 0 81.5 -19.5t57 -59.5t21.5 -103q0 -54 -25.5 -103t-68.5 -87t-96.5 -60t-110.5 -22z" />
    <glyph glyph-name="uni04AA" unicode="&#x4aa;" horiz-adv-x="503" 
d="M310 -12q-72 0 -126.5 26.5t-86.5 77.5t-37 124q-2 29 -4 66t-2 68q0 32 2 68.5t4 65.5q5 73 36.5 124t85 77.5t124.5 26.5q46 0 85.5 -15t75.5 -44l-32 -89q-29 23 -58.5 34.5t-64.5 11.5q-64 0 -100 -35t-40 -100q-2 -35 -3.5 -64t-1.5 -61q0 -31 1.5 -60t3.5 -65
q5 -66 40 -100.5t98 -33.5q36 0 66 12t58 34l33 -92q-35 -28 -73.5 -42.5t-83.5 -14.5zM179 -254l19 70q57 0 89.5 12.5t32.5 32.5q0 19 -24.5 25t-81.5 6l33 135l68 -25l-13 -50q45 -6 71.5 -29.5t26.5 -57.5q0 -39 -30 -65.5t-80 -40t-111 -13.5z" />
    <glyph glyph-name="uni04AB" unicode="&#x4ab;" horiz-adv-x="448" 
d="M264 -13q-93 0 -145.5 50t-61.5 125q-6 50 -6 90q0 21 1.5 42.5t4.5 46.5q10 76 62 125.5t144 49.5q45 0 80 -11.5t66 -34.5l-30 -82q-26 17 -52 26.5t-60 9.5q-49 0 -77.5 -27.5t-30.5 -66.5q-3 -44 -3.5 -79t3.5 -78q3 -38 31 -66t79 -28q30 0 58.5 8.5t56.5 26.5
l28 -79q-36 -25 -71.5 -36.5t-76.5 -11.5zM139 -254l19 70q57 0 89.5 12.5t32.5 32.5q0 19 -24.5 25t-81.5 6l33 135l68 -25l-13 -50q45 -6 71.5 -29.5t26.5 -57.5q0 -39 -30 -65.5t-80 -40t-111 -13.5z" />
    <glyph glyph-name="uni04AC" unicode="&#x4ac;" horiz-adv-x="497" 
d="M273 -140v210l-15 31h118v-241h-103zM191 0v598h-165v102h445v-102h-166v-598h-114z" />
    <glyph glyph-name="uni04AD" unicode="&#x4ad;" horiz-adv-x="449" 
d="M243 -130v188l-15 32h114v-220h-99zM171 0v414h-145v90h397v-90h-145v-414h-107z" />
    <glyph glyph-name="Ustraitcy" unicode="&#x4ae;" horiz-adv-x="492" 
d="M190 0v301l-190 399h120l107 -233l12 -56q2 -6 7.5 -6t7.5 6l13 56l106 233h119l-190 -399v-301h-112z" />
    <glyph glyph-name="ustraitcy" unicode="&#x4af;" horiz-adv-x="479" 
d="M185 0l-159 504h109l90 -324l7 -60q2 -9 7.5 -9t6.5 9l8 60l91 324h108l-161 -504h-107zM185 -200v200h107v-200h-107z" />
    <glyph glyph-name="Ustraitstrokecy" unicode="&#x4b0;" horiz-adv-x="492" 
d="M71 232v86h350v-86h-350zM190 0v301l-190 399h120l107 -233l12 -56q2 -6 7.5 -6t7.5 6l13 56l106 233h119l-190 -399v-301h-112z" />
    <glyph glyph-name="ustraitstrokecy" unicode="&#x4b1;" horiz-adv-x="479" 
d="M67 -87v87h343v-87h-343zM185 0l-159 504h109l90 -324l7 -60q2 -9 7.5 -9t6.5 9l8 60l91 324h108l-161 -504h-107zM185 -200v200h107v-200h-107z" />
    <glyph glyph-name="uni04B2" unicode="&#x4b2;" horiz-adv-x="565" 
d="M464 -140v210l-15 31h118v-241h-103zM20 0l169 352l-169 348h123l107 -235l13 -55q2 -7 7.5 -7t7.5 7l12 55l107 235h124l-170 -348l170 -352h-124l-107 239l-12 55q-2 7 -7.5 7t-7.5 -7l-13 -55l-107 -239h-123z" />
    <glyph glyph-name="uni04B3" unicode="&#x4b3;" horiz-adv-x="511" 
d="M398 -130v188l-16 32h114v-220h-98zM26 0l144 252l-144 252h118l77 -147l15 -46q2 -6 7.5 -6t7.5 6l16 46l75 147h118l-143 -252l143 -252h-118l-75 147l-16 46q-2 6 -7.5 6t-7.5 -6l-15 -46l-77 -147h-118z" />
    <glyph glyph-name="uni04B4" unicode="&#x4b4;" horiz-adv-x="756" 
d="M26 602v98h414v-98h-414zM192 0v700h113v-599h236v599h113l-2 -700h-460zM621 -140v210l-16 31h119v-241h-103z" />
    <glyph glyph-name="uni04B5" unicode="&#x4b5;" horiz-adv-x="652" 
d="M26 414v90h350v-90h-350zM168 0v504h108v-414h178v414h108v-504h-394zM527 -130v220h99v-220h-99z" />
    <glyph glyph-name="uni04B6" unicode="&#x4b6;" horiz-adv-x="613" 
d="M478 -140v210l-16 31h119v-241h-103zM395 0v284q0 9 -5.5 12.5t-14.5 -1.5l-54 -24q-13 -3 -32.5 -4.5t-34.5 -1.5q-52 0 -97 19.5t-73 62.5t-28 115v238h113v-229q0 -56 29.5 -82t79.5 -26q37 0 68 7.5t49 16.5v313h114v-700h-114z" />
    <glyph glyph-name="uni04B7" unicode="&#x4b7;" horiz-adv-x="539" 
d="M414 -130v188l-15 32h114v-220h-99zM340 0v193q0 10 -5.5 12t-14.5 -3l-52 -29q-20 -6 -49 -6q-48 0 -84.5 18t-57.5 55t-21 93v171h108v-153q0 -42 21 -64.5t66 -22.5q36 0 57 10.5t33 25.5v204h108v-504h-109z" />
    <glyph glyph-name="uni04B8" unicode="&#x4b8;" horiz-adv-x="613" 
d="M417 0v280q0 9 -5.5 12.5t-14.5 -1.5l-35 -15q-6 -1 -12 -2.5t-14 -2.5v-133h-90v124q-51 4 -94.5 25t-69.5 63t-26 108v242h113v-233q0 -48 22.5 -71.5t64.5 -31.5q5 -1 7.5 2t0.5 7l-18 57v134h90v-202q25 3 46 9t35 12v317h114v-700h-114z" />
    <glyph glyph-name="uni04B9" unicode="&#x4b9;" horiz-adv-x="544" 
d="M359 0v193q0 10 -5.5 12t-15.5 -3l-37 -19l-2 -36l-42 -55l-42 24l-6 52q-44 2 -79 20t-54.5 54.5t-19.5 90.5v171h108v-153q0 -34 14.5 -55t46.5 -29q5 -1 7.5 2t0.5 8l-18 58v74h84v-140q24 6 38.5 18t22.5 25v192h107v-504h-108z" />
    <glyph glyph-name="uni04BA" unicode="&#x4ba;" horiz-adv-x="591" 
d="M196 700v-284q0 -9 5.5 -12t14.5 1l54 24q13 3 32.5 4.5t35.5 1.5q51 0 96 -19.5t73 -62.5t28 -115v-238h-113v229q0 56 -29.5 82t-78.5 26q-36 0 -68 -7.5t-50 -16.5v-313h-114v700h114z" />
    <glyph glyph-name="uni04BB" unicode="&#x4bb;" horiz-adv-x="547" 
d="M77 0v750h106v-271q22 15 54 26t71 11q48 0 86 -18.5t59.5 -53.5t21.5 -83v-361h-107v331q0 42 -22 65t-67 23q-48 0 -72 -23t-24 -65v-331h-106z" />
    <glyph glyph-name="uni04BC" unicode="&#x4bc;" horiz-adv-x="704" 
d="M426 -12q-54 0 -104.5 16t-82.5 49q-23 24 -41 57t-28.5 90t-10.5 150q0 95 15.5 163.5t46.5 112.5t78.5 65t111.5 21q56 0 102 -17.5t79.5 -55t51.5 -97.5t18 -147l-34 -73h-467q-79 0 -120 41.5t-41 106.5q0 32 12.5 62t37.5 55l67 -57q-11 -11 -17 -24.5t-6 -26.5
q0 -26 14 -40.5t44 -14.5h395q-1 41 -7.5 74.5t-21 58.5t-41 38.5t-66.5 13.5q-71 0 -104 -47.5t-33 -137.5l-1 -102q0 -53 7 -95.5t24.5 -73t49.5 -46.5t82 -16t97.5 18.5t76.5 42.5l37 -91q-42 -34 -96.5 -53.5t-124.5 -19.5z" />
    <glyph glyph-name="uni04BD" unicode="&#x4bd;" horiz-adv-x="559" 
d="M124 229q-58 3 -91 33.5t-33 82.5q0 22 7 43.5t21 42.5l60 -34q-5 -13 -8 -24t-3 -21q0 -39 47 -44v-79zM338 -10q-64 0 -110 22.5t-73 61.5t-33 88q-3 24 -4.5 45t-1.5 42q0 40 6 89q9 76 60 126t138 50q58 0 96.5 -20t60.5 -53.5t31 -75.5t9 -86l-20 -52h-333l-1 82
h255q-1 29 -9 55.5t-29 43.5t-60 17q-48 0 -73 -29.5t-28 -73.5q-1 -25 -2.5 -61.5t3.5 -81.5q5 -46 34.5 -73t83.5 -27q35 0 66.5 10.5t60.5 29.5l30 -80q-39 -26 -74.5 -37.5t-82.5 -11.5z" />
    <glyph glyph-name="uni04BE" unicode="&#x4be;" horiz-adv-x="704" 
d="M426 -12q-54 0 -104.5 16t-82.5 49q-23 24 -41 57t-28.5 90t-10.5 150q0 95 15.5 163.5t46.5 112.5t78.5 65t111.5 21q56 0 102 -17.5t79.5 -55t51.5 -97.5t18 -147l-34 -73h-467q-79 0 -120 41.5t-41 106.5q0 32 12.5 62t37.5 55l67 -57q-11 -11 -17 -24.5t-6 -26.5
q0 -26 14 -40.5t44 -14.5h395q-1 41 -7.5 74.5t-21 58.5t-41 38.5t-66.5 13.5q-71 0 -104 -47.5t-33 -137.5l-1 -102q0 -53 7 -95.5t24.5 -73t49.5 -46.5t82 -16t97.5 18.5t76.5 42.5l37 -91q-42 -34 -96.5 -53.5t-124.5 -19.5zM511 -252q-57 4 -99 21t-65 50.5t-23 84.5
q0 40 19.5 71.5t56.5 50.5l80 -23q-31 -17 -47 -39t-16 -53q0 -43 29 -60.5t79 -22.5z" />
    <glyph glyph-name="uni04BF" unicode="&#x4bf;" horiz-adv-x="559" 
d="M124 229q-58 3 -91 33.5t-33 82.5q0 22 7 43.5t21 42.5l60 -34q-5 -13 -8 -24t-3 -21q0 -39 47 -44v-79zM338 -10q-64 0 -110 22.5t-73 61.5t-33 88q-3 24 -4.5 45t-1.5 42q0 40 6 89q9 76 60 126t138 50q58 0 96.5 -20t60.5 -53.5t31 -75.5t9 -86l-20 -52h-333l-1 82
h255q-1 29 -9 55.5t-29 43.5t-60 17q-48 0 -73 -29.5t-28 -73.5q-1 -25 -2.5 -61.5t3.5 -81.5q5 -46 34.5 -73t83.5 -27q35 0 66.5 10.5t60.5 29.5l30 -80q-39 -26 -74.5 -37.5t-82.5 -11.5zM488 -235q-57 4 -99 21t-65 50.5t-23 84.5q0 40 19.5 71.5t56.5 50.5l80 -23
q-31 -17 -47 -39t-16 -53q0 -43 29 -60.5t79 -22.5z" />
    <glyph glyph-name="uni04C0" unicode="&#x4c0;" horiz-adv-x="277" 
d="M82 0v700h113v-700h-113z" />
    <glyph glyph-name="uni04C1" unicode="&#x4c1;" horiz-adv-x="825" 
d="M28 0l167 356l-169 344h121l141 -302h68v302h111v-302h68l142 302h118l-166 -342l168 -358h-120l-142 301h-68v-301h-111v301h-68l-141 -301h-119zM413 779q-64 0 -106 30.5t-59 88.5l76 20q12 -31 33.5 -48.5t55.5 -17.5t55.5 17.5t32.5 48.5l76 -20q-15 -58 -58 -88.5
t-106 -30.5z" />
    <glyph glyph-name="uni04C2" unicode="&#x4c2;" horiz-adv-x="718" 
d="M26 0l151 290l-5 -53l-143 267h115l106 -204h55v204h106v-204h55l106 204h114l-140 -267l-5 53l151 -290h-118l-107 210h-56v-210h-106v210h-56l-107 -210h-116zM358 601q-64 0 -106 30.5t-59 88.5l76 20q12 -31 33.5 -48.5t55.5 -17.5t55.5 17.5t32.5 48.5l76 -20
q-15 -58 -58 -88.5t-106 -30.5z" />
    <glyph glyph-name="uni04C3" unicode="&#x4c3;" horiz-adv-x="584" 
d="M328 -149q-18 0 -35.5 3t-29.5 7l23 89q15 -5 33 -5q40 0 63 27t32.5 69.5t9.5 87.5q0 89 -36.5 129.5t-115.5 40.5h-77v114q0 -10 4.5 -12.5t14.5 -2.5h78q74 0 129 -27t86 -85.5t31 -156.5q0 -78 -22 -141t-68.5 -100t-119.5 -37zM82 0v700h113v-700h-113zM366 338
l-91 49l136 313h119z" />
    <glyph glyph-name="uni04C4" unicode="&#x4c4;" horiz-adv-x="535" 
d="M315 -149q-17 0 -34.5 3t-29.5 7l23 89q15 -5 33 -5q30 0 47.5 20.5t24.5 51.5t7 65q0 67 -28.5 97.5t-95.5 30.5h-73v101q0 -9 5 -10t15 -1h78q65 0 112 -21.5t74 -69.5t27 -127q0 -64 -19.5 -116.5t-60 -83.5t-105.5 -31zM77 0v504h112v-504h-112zM345 241l-91 49
l116 214h121z" />
    <glyph glyph-name="uni04C5" unicode="&#x4c5;" horiz-adv-x="619" 
d="M398 -140l113 241h97v-23l-103 -218h-107zM43 -14l-33 96q47 10 73 42.5t32 89.5q9 87 14 206.5t6 279.5h399v-700h-114v598h-179q-3 -129 -7 -233t-13 -181q-11 -81 -57.5 -131.5t-120.5 -66.5z" />
    <glyph glyph-name="uni04C6" unicode="&#x4c6;" horiz-adv-x="550" 
d="M341 -130l102 220h91v-20l-92 -200h-101zM50 -11l-29 90q31 8 54 26t30 48q8 35 13 82t7.5 113t3.5 156h337v-504h-108v414h-127q-2 -86 -9 -155t-15 -118q-11 -70 -53.5 -106t-103.5 -46z" />
    <glyph glyph-name="uni04C7" unicode="&#x4c7;" horiz-adv-x="628" 
d="M375 -222l-31 93q42 14 65 47t23 82h114q0 -85 -43 -141t-128 -81zM82 0v700h113v-299h237v299h114v-700h-114v299h-237v-299h-113z" />
    <glyph glyph-name="uni04C8" unicode="&#x4c8;" horiz-adv-x="548" 
d="M300 -222l-30 93q43 12 68.5 44.5t25.5 84.5h107q0 -51 -13.5 -89t-37 -64.5t-54.5 -43.5t-66 -25zM77 0v504h108v-204h179v204h107v-504h-107v210h-179v-210h-108z" />
    <glyph glyph-name="uni04C9" unicode="&#x4c9;" horiz-adv-x="631" 
d="M411 -140l112 241h97v-23l-102 -218h-107zM82 0v700h113v-299h237v299h114v-700h-114v299h-237v-299h-113z" />
    <glyph glyph-name="uni04CA" unicode="&#x4ca;" horiz-adv-x="555" 
d="M347 -130l102 220h91v-20l-93 -200h-100zM77 0v504h108v-204h179v204h107v-504h-107v210h-179v-210h-108z" />
    <glyph glyph-name="uni04CB" unicode="&#x4cb;" horiz-adv-x="591" 
d="M323 -140v241h119l-15 -31v-210h-104zM395 0v284q0 9 -5.5 12.5t-14.5 -1.5l-54 -24q-13 -3 -32.5 -4.5t-34.5 -1.5q-52 0 -97 19.5t-73 62.5t-28 115v238h113v-229q0 -56 29.5 -82t79.5 -26q37 0 68 7.5t49 16.5v313h114v-700h-114z" />
    <glyph glyph-name="uni04CC" unicode="&#x4cc;" horiz-adv-x="530" 
d="M344 0v197q0 10 -5.5 12t-14.5 -3l-56 -29q-20 -6 -49 -6q-48 0 -84.5 18t-57.5 55t-21 92v168h108v-149q0 -42 21 -64.5t66 -22.5q38 0 60 10.5t34 25.5v200h108v-504h-109zM280 -130v220h114l-15 -32v-188h-99z" />
    <glyph glyph-name="uni04CD" unicode="&#x4cd;" horiz-adv-x="679" 
d="M459 -140l113 241h96v-23l-102 -218h-107zM82 0v700h94l152 -288q4 -7 10.5 -7t9.5 7l153 288h93v-700h-107v391l11 73q2 7 -3.5 9.5t-10.5 -5.5l-122 -217h-51l-119 217q-4 8 -9.5 5.5t-4.5 -9.5l12 -73v-391h-108z" />
    <glyph glyph-name="uni04CE" unicode="&#x4ce;" horiz-adv-x="671" 
d="M462 -130l102 220h92v-20l-93 -200h-101zM77 0v504h95l149 -259q5 -8 11 -8t10 8l150 259h95v-504h-103v234l11 72q2 7 -3.5 9.5t-10.5 -5.5l-125 -205h-51l-122 205q-4 8 -10 5.5t-5 -9.5l12 -72v-234h-103z" />
    <glyph glyph-name="uni04CF" unicode="&#x4cf;" horiz-adv-x="262" 
d="M77 0v750h108v-750h-108z" />
    <glyph glyph-name="uni04D0" unicode="&#x4d0;" 
d="M30 0l186 700h160l187 -700h-114l-137 544l-8 57q-1 7 -7.5 7t-7.5 -7l-8 -57l-137 -544h-114zM165 177l25 96h213l25 -96h-263zM106 605v95h133l-8 -95h-125zM294 779q-64 0 -106 30.5t-59 88.5l76 20q12 -31 33.5 -48.5t55.5 -17.5t55.5 17.5t32.5 48.5l76 -20
q-15 -58 -58 -88.5t-106 -30.5z" />
    <glyph glyph-name="uni04D1" unicode="&#x4d1;" horiz-adv-x="497" 
d="M372 -12l-33 47q-8 11 -17 2q-24 -20 -51.5 -33.5t-70.5 -13.5q-72 0 -114 40.5t-42 104.5q0 46 21 77.5t58.5 48t86.5 16.5h105v63q0 39 -24 61t-74 22q-37 0 -68 -11.5t-63 -33.5l-31 87q38 26 79.5 38.5t89.5 12.5q97 0 143.5 -48t46.5 -122v-233l47 -69zM215 73
q46 0 73 24.5t27 63.5v33q0 16 -18 11l-48 -11h-35q-33 0 -51.5 -15t-18.5 -42t19.5 -45.5t51.5 -18.5zM247 601q-64 0 -106 30.5t-59 88.5l76 20q12 -31 33.5 -48.5t55.5 -17.5t55.5 17.5t32.5 48.5l76 -20q-15 -58 -58 -88.5t-106 -30.5z" />
    <glyph glyph-name="uni04D2" unicode="&#x4d2;" 
d="M30 0l186 700h160l187 -700h-114l-137 544l-8 57q-1 7 -7.5 7t-7.5 -7l-8 -57l-137 -544h-114zM165 177l25 96h213l25 -96h-263zM106 605v95h133l-8 -95h-125zM335 769v109h102v-109h-102zM151 769v109h102v-109h-102z" />
    <glyph glyph-name="uni04D3" unicode="&#x4d3;" horiz-adv-x="497" 
d="M372 -12l-33 47q-8 11 -17 2q-24 -20 -51.5 -33.5t-70.5 -13.5q-72 0 -114 40.5t-42 104.5q0 46 21 77.5t58.5 48t86.5 16.5h105v63q0 39 -24 61t-74 22q-37 0 -68 -11.5t-63 -33.5l-31 87q38 26 79.5 38.5t89.5 12.5q97 0 143.5 -48t46.5 -122v-233l47 -69zM215 73
q46 0 73 24.5t27 63.5v33q0 16 -18 11l-48 -11h-35q-33 0 -51.5 -15t-18.5 -42t19.5 -45.5t51.5 -18.5zM288 591v109h102v-109h-102zM104 591v109h102v-109h-102z" />
    <glyph glyph-name="uni04D4" unicode="&#x4d4;" horiz-adv-x="857" 
d="M30 0l160 600h-84v100h695v-100h-309v-201h292v-98h-292v-199h309v-102h-413v177h-200l-44 -177h-114zM212 273h176v327h-93z" />
    <glyph glyph-name="uni04D5" unicode="&#x4d5;" horiz-adv-x="759" 
d="M204 -10q-74 0 -117 40.5t-43 104.5q0 46 21 77.5t58.5 48t86.5 16.5h105v63q0 39 -24 61t-74 22q-37 0 -68 -11.5t-63 -33.5l-31 87q38 26 79.5 38.5t89.5 12.5q41 0 71.5 -9.5t53.5 -26.5l20 -24q8 -10 15 0l19 23q23 16 52 25.5t65 9.5q58 0 96.5 -20t60.5 -53.5
t31 -75.5t9 -86l-20 -52h-280q0 -73 27 -110.5t94 -37.5q35 0 66.5 10.5t60.5 29.5l30 -80q-39 -26 -74.5 -37.5t-82.5 -11.5q-48 0 -85.5 13t-64.5 36l-15 21q-8 11 -15 0l-14 -21q-31 -26 -67.5 -37.5t-72.5 -11.5zM215 73q46 0 73 24.5t27 63.5v33q0 16 -18 11l-48 -11
h-35q-33 0 -51.5 -15t-18.5 -42t19.5 -45.5t51.5 -18.5zM418 309h200q-1 29 -9 55.5t-29 43.5t-60 17q-49 0 -74.5 -31.5t-27.5 -84.5z" />
    <glyph glyph-name="uni04D6" unicode="&#x4d6;" horiz-adv-x="552" 
d="M82 0v700h414v-102h-310v-199h293v-98h-293v-199h310v-102h-414zM296 779q-64 0 -106 30.5t-59 88.5l76 20q12 -31 33.5 -48.5t55.5 -17.5t55.5 17.5t32.5 48.5l76 -20q-15 -58 -58 -88.5t-106 -30.5z" />
    <glyph glyph-name="uni04D7" unicode="&#x4d7;" horiz-adv-x="494" 
d="M274 -10q-64 0 -110 22.5t-73 61.5t-34 88q-3 24 -4.5 45t-1.5 42q0 40 6 89q9 76 60 126t138 50q59 0 97.5 -20t60.5 -53.5t31 -75.5t9 -86l-20 -52h-334l-1 82h255q0 29 -8 55.5t-29 43.5t-60 17q-48 0 -73 -29.5t-28 -73.5q-2 -25 -3 -61.5t3 -81.5q5 -46 35 -73
t84 -27q34 0 66 10.5t61 29.5l29 -80q-38 -26 -74 -37.5t-82 -11.5zM255 601q-64 0 -106 30.5t-59 88.5l76 20q12 -31 33.5 -48.5t55.5 -17.5t55.5 17.5t32.5 48.5l76 -20q-15 -58 -58 -88.5t-106 -30.5z" />
    <glyph glyph-name="uni04D8" unicode="&#x4d8;" horiz-adv-x="612" 
d="M305 -12q-56 0 -102 17.5t-79.5 55t-51.5 97.5t-18 147v73h389q0 53 -7 95.5t-24.5 73t-49.5 46.5t-82 16q-49 0 -95.5 -18.5t-74.5 -42.5l-37 91q41 34 95 53.5t122 19.5q54 0 104.5 -16t82.5 -49q23 -23 41 -56.5t28.5 -90t10.5 -150.5t-15.5 -163t-47 -113t-78.5 -65
t-111 -21zM305 91q71 0 104 47.5t32 137.5h-272q1 -40 7.5 -74t21 -59t41 -38.5t66.5 -13.5z" />
    <glyph glyph-name="uni04D9" unicode="&#x4d9;" horiz-adv-x="494" 
d="M220 514q65 0 110.5 -22.5t72.5 -61.5t34 -88q3 -24 4.5 -45t1.5 -42q0 -39 -6 -89q-9 -75 -60 -125.5t-138 -50.5q-59 0 -97.5 20t-60.5 53.5t-31 75.5t-9 85l20 53l334 -1l1 -81h-255q0 -29 8.5 -55.5t29 -44t59.5 -17.5q48 0 73 30t28 74q2 25 3 61.5t-3 81.5
q-4 46 -34 73t-85 27q-34 0 -65.5 -10.5t-61.5 -29.5l-29 79q38 27 74.5 38.5t81.5 11.5z" />
    <glyph glyph-name="uni04DA" unicode="&#x4da;" horiz-adv-x="612" 
d="M305 -12q-56 0 -102 17.5t-79.5 55t-51.5 97.5t-18 147v73h389q0 53 -7 95.5t-24.5 73t-49.5 46.5t-82 16q-49 0 -95.5 -18.5t-74.5 -42.5l-37 91q41 34 95 53.5t122 19.5q54 0 104.5 -16t82.5 -49q23 -23 41 -56.5t28.5 -90t10.5 -150.5t-15.5 -163t-47 -113t-78.5 -65
t-111 -21zM305 91q71 0 104 47.5t32 137.5h-272q1 -40 7.5 -74t21 -59t41 -38.5t66.5 -13.5zM343 769v109h102v-109h-102zM159 769v109h102v-109h-102z" />
    <glyph glyph-name="uni04DB" unicode="&#x4db;" horiz-adv-x="496" 
d="M282 591v109h102v-109h-102zM98 591v109h102v-109h-102zM220 514q65 0 110.5 -22.5t72.5 -61.5t34 -88q3 -24 4.5 -45t1.5 -42q0 -39 -6 -89q-9 -75 -60 -125.5t-138 -50.5q-59 0 -97.5 20t-60.5 53.5t-31 75.5t-9 85l20 53l334 -1l1 -81h-255q0 -29 8.5 -55.5t29 -44
t59.5 -17.5q48 0 73 30t28 74q2 25 3 61.5t-3 81.5q-4 46 -34 73t-85 27q-34 0 -65.5 -10.5t-61.5 -29.5l-29 79q38 27 74.5 38.5t81.5 11.5z" />
    <glyph glyph-name="uni04DC" unicode="&#x4dc;" horiz-adv-x="825" 
d="M28 0l167 356l-169 344h121l141 -302h68v302h111v-302h68l142 302h118l-166 -342l168 -358h-120l-142 301h-68v-301h-111v301h-68l-141 -301h-119zM454 769v109h102v-109h-102zM270 769v109h102v-109h-102z" />
    <glyph glyph-name="uni04DD" unicode="&#x4dd;" horiz-adv-x="718" 
d="M26 0l151 290l-5 -53l-143 267h115l106 -204h55v204h106v-204h55l106 204h114l-140 -267l-5 53l151 -290h-118l-107 210h-56v-210h-106v210h-56l-107 -210h-116zM399 591v109h102v-109h-102zM215 591v109h102v-109h-102z" />
    <glyph glyph-name="uni04DE" unicode="&#x4de;" horiz-adv-x="526" 
d="M244 -8q-64 0 -117 17.5t-101 56.5l36 92q25 -21 52 -35.5t57 -22t62 -7.5q71 0 105 28.5t34 79.5q0 48 -31.5 76t-101.5 28h-110v98h114q58 0 85 28.5t27 77.5q0 46 -29.5 73t-83.5 27q-39 0 -83 -10.5t-78 -32.5l-34 89q49 29 97 41t104 12q35 0 72.5 -10t69.5 -32.5
t52 -60t20 -91.5q0 -60 -27.5 -99.5t-65.5 -55.5q29 -10 54.5 -32t41 -54t15.5 -76q0 -70 -33 -115.5t-86.5 -67.5t-116.5 -22zM287 769v109h102v-109h-102zM103 769v109h102v-109h-102z" />
    <glyph glyph-name="uni04DF" unicode="&#x4df;" horiz-adv-x="454" 
d="M206 -7q-56 0 -101.5 11.5t-88.5 42.5l33 86q23 -18 45.5 -28t47.5 -14.5t55 -4.5q53 0 79 18t26 50q0 25 -22.5 44t-70.5 19h-75v80h75q43 0 63 17.5t20 46.5q0 28 -26 45.5t-73 17.5q-33 0 -68 -7t-65 -25l-31 81q41 23 82.5 33t87.5 10q34 0 69 -8t64.5 -25t47 -45
t17.5 -68q0 -47 -22 -74t-53 -39q22 -7 42 -21t32.5 -36.5t12.5 -57.5q0 -51 -29.5 -84.5t-76 -49t-97.5 -15.5zM252 591v109h102v-109h-102zM68 591v109h102v-109h-102z" />
    <glyph glyph-name="uni04E0" unicode="&#x4e0;" horiz-adv-x="524" 
d="M242 -8q-64 0 -117 17.5t-101 56.5l36 92q25 -21 52.5 -35.5t58.5 -22t66 -7.5q66 0 99.5 31.5t33.5 82.5q0 53 -37 83.5t-122 30.5h-78v64l138 176l33 32q6 6 4 9.5t-8 3.5h-253v94h400v-68l-206 -251l-33 37q128 -3 199 -52t71 -157q0 -59 -21 -100t-55 -67t-76 -38
t-84 -12z" />
    <glyph glyph-name="uni04E1" unicode="&#x4e1;" horiz-adv-x="458" 
d="M200 -209q-48 0 -87.5 11t-75.5 35l28 81q29 -17 57.5 -25t66.5 -8q72 0 107 36t35 94q0 48 -35 78t-114 30h-65v63l121 180l32 31q7 6 4.5 9.5t-8.5 3.5h-225v94h362v-68l-186 -259l-30 40q124 -3 187 -55t63 -147q0 -76 -32.5 -126t-86 -74t-118.5 -24z" />
    <glyph glyph-name="uni04E2" unicode="&#x4e2;" horiz-adv-x="641" 
d="M82 0v700h111v-403l-12 -75q-1 -7 4.5 -9.5t9.5 4.5l263 483h101v-700h-111v403l11 74q2 8 -4 10.5t-10 -6.5l-262 -481h-101zM181 775v81h270v-81h-270z" />
    <glyph glyph-name="uni04E3" unicode="&#x4e3;" horiz-adv-x="558" 
d="M77 0v504h106v-261l-13 -75q-1 -7 4.5 -10t9.5 4l202 342h95v-504h-106v256l12 74q2 8 -3.5 10.5t-11.5 -6.5l-200 -334h-95zM141 597v81h270v-81h-270z" />
    <glyph glyph-name="uni04E4" unicode="&#x4e4;" horiz-adv-x="641" 
d="M82 0v700h111v-403l-12 -75q-1 -7 4.5 -9.5t9.5 4.5l263 483h101v-700h-111v403l11 74q2 8 -4 10.5t-10 -6.5l-262 -481h-101zM357 769v109h102v-109h-102zM173 769v109h102v-109h-102z" />
    <glyph glyph-name="uni04E5" unicode="&#x4e5;" horiz-adv-x="558" 
d="M77 0v504h106v-261l-13 -75q-1 -7 4.5 -10t9.5 4l202 342h95v-504h-106v256l12 74q2 8 -3.5 10.5t-11.5 -6.5l-200 -334h-95zM317 591v109h102v-109h-102zM133 591v109h102v-109h-102z" />
    <glyph glyph-name="uni04E6" unicode="&#x4e6;" horiz-adv-x="612" 
d="M306 -12q-53 0 -98 16t-78 50q-22 23 -39.5 56t-27 90t-9.5 150t9.5 150t27 90.5t39.5 55.5q33 34 78 50t98 16t98 -16t77 -50q23 -22 40 -55.5t26.5 -90.5t9.5 -150t-9.5 -150t-26.5 -90t-40 -56q-32 -34 -77 -50t-98 -16zM306 91q61 0 95 34.5t38 93.5q2 38 3.5 69
t1.5 62q0 32 -1.5 63t-3.5 68q-4 59 -38 93.5t-95 34.5q-62 0 -96 -34.5t-37 -93.5q-3 -37 -4.5 -68t-1.5 -63q0 -31 1.5 -62t4.5 -69q3 -59 37 -93.5t96 -34.5zM347 769v109h102v-109h-102zM163 769v109h102v-109h-102z" />
    <glyph glyph-name="uni04E7" unicode="&#x4e7;" horiz-adv-x="525" 
d="M262 -11q-91 0 -143.5 49.5t-61.5 124.5q-6 48 -6 88q0 21 1.5 43t4.5 47q10 75 62 124.5t143 49.5q92 0 144.5 -49t61.5 -125q6 -49 6 -90q0 -40 -6 -88q-10 -75 -62 -124.5t-144 -49.5zM262 79q49 0 74.5 28.5t29.5 66.5q4 42 4 77t-4 78q-4 39 -29.5 67t-74.5 28
q-47 0 -73.5 -28t-29.5 -67q-4 -43 -3.5 -78t4.5 -77q4 -38 29.5 -66.5t72.5 -28.5zM304 591v109h102v-109h-102zM120 591v109h102v-109h-102z" />
    <glyph glyph-name="uni04E8" unicode="&#x4e8;" horiz-adv-x="612" 
d="M80 306v87h451v-87h-451zM306 -12q-53 0 -98 16t-78 50q-22 23 -39.5 56t-27 90t-9.5 150t9.5 150t27 90.5t39.5 55.5q33 34 78 50t98 16t98 -16t77 -50q23 -22 40 -55.5t26.5 -90.5t9.5 -150t-9.5 -150t-26.5 -90t-40 -56q-32 -34 -77 -50t-98 -16zM306 91q61 0 95 34.5
t38 93.5q2 38 3.5 69t1.5 62q0 32 -1.5 63t-3.5 68q-4 59 -38 93.5t-95 34.5q-62 0 -96 -34.5t-37 -93.5q-3 -37 -4.5 -68t-1.5 -63q0 -31 1.5 -62t4.5 -69q3 -59 37 -93.5t96 -34.5z" />
    <glyph glyph-name="uni04E9" unicode="&#x4e9;" horiz-adv-x="525" 
d="M107 208v87h311v-87h-311zM262 -11q-91 0 -143.5 49.5t-61.5 124.5q-6 48 -6 88q0 21 1.5 43t4.5 47q10 75 62 124.5t143 49.5q92 0 144.5 -49t61.5 -125q6 -49 6 -90q0 -40 -6 -88q-10 -75 -62 -124.5t-144 -49.5zM262 79q49 0 74.5 28.5t29.5 66.5q4 42 4 77t-4 78
q-4 39 -29.5 67t-74.5 28q-47 0 -73.5 -28t-29.5 -67q-4 -43 -3.5 -78t4.5 -77q4 -38 29.5 -66.5t72.5 -28.5z" />
    <glyph glyph-name="uni04EA" unicode="&#x4ea;" horiz-adv-x="612" 
d="M80 306v87h451v-87h-451zM306 -12q-53 0 -98 16t-78 50q-22 23 -39.5 56t-27 90t-9.5 150t9.5 150t27 90.5t39.5 55.5q33 34 78 50t98 16t98 -16t77 -50q23 -22 40 -55.5t26.5 -90.5t9.5 -150t-9.5 -150t-26.5 -90t-40 -56q-32 -34 -77 -50t-98 -16zM306 91q61 0 95 34.5
t38 93.5q2 38 3.5 69t1.5 62q0 32 -1.5 63t-3.5 68q-4 59 -38 93.5t-95 34.5q-62 0 -96 -34.5t-37 -93.5q-3 -37 -4.5 -68t-1.5 -63q0 -31 1.5 -62t4.5 -69q3 -59 37 -93.5t96 -34.5zM347 769v109h102v-109h-102zM163 769v109h102v-109h-102z" />
    <glyph glyph-name="uni04EB" unicode="&#x4eb;" horiz-adv-x="525" 
d="M107 208v87h311v-87h-311zM262 -11q-91 0 -143.5 49.5t-61.5 124.5q-6 48 -6 88q0 21 1.5 43t4.5 47q10 75 62 124.5t143 49.5q92 0 144.5 -49t61.5 -125q6 -49 6 -90q0 -40 -6 -88q-10 -75 -62 -124.5t-144 -49.5zM262 79q49 0 74.5 28.5t29.5 66.5q4 42 4 77t-4 78
q-4 39 -29.5 67t-74.5 28q-47 0 -73.5 -28t-29.5 -67q-4 -43 -3.5 -78t4.5 -77q4 -38 29.5 -66.5t72.5 -28.5zM304 591v109h102v-109h-102zM120 591v109h102v-109h-102z" />
    <glyph glyph-name="uni04EC" unicode="&#x4ec;" horiz-adv-x="517" 
d="M208 -12q-49 0 -91 14.5t-81 42.5l34 92q31 -22 64 -34t74 -12q62 -1 98 32.5t40 97.5q2 37 3.5 67t1.5 62t-1.5 62t-3.5 67q-5 64 -39 97.5t-94 33.5q-39 0 -71.5 -11.5t-64.5 -34.5l-32 94q39 27 82 40.5t93 13.5q68 0 119.5 -26t82 -76t36.5 -122q2 -29 3.5 -67
t1.5 -71q0 -32 -1.5 -70t-3.5 -68q-6 -71 -38 -121.5t-86 -76.5t-126 -26zM117 301v98h282v-98h-282zM280 769v109h102v-109h-102zM96 769v109h102v-109h-102z" />
    <glyph glyph-name="uni04ED" unicode="&#x4ed;" horiz-adv-x="471" 
d="M198 -13q-45 0 -83.5 11.5t-78.5 36.5l29 77q63 -34 129 -34q56 0 86.5 28.5t34.5 66.5q3 43 3 78t-3 79q-3 40 -34 67.5t-86 27.5q-38 0 -67 -9.5t-59 -26.5l-30 81q34 23 72 34.5t88 11.5q97 0 151 -49.5t64 -125.5q4 -25 5 -46.5t1 -42.5q0 -40 -6 -90
q-10 -75 -64.5 -125t-151.5 -50zM332 212h-204v86h204v-86zM251 591v109h101v-109h-101zM67 591v109h101v-109h-101z" />
    <glyph glyph-name="uni04EE" unicode="&#x4ee;" horiz-adv-x="516" 
d="M144 -12q-24 0 -49 7.5t-44 19.5l35 90q12 -7 26.5 -12.5t31.5 -5.5q29 0 46 17t27 43l-212 553h116l132 -367l12 -82q1 -5 7.5 -5t7.5 5l12 82l107 367h115l-184 -550q-29 -89 -72 -125.5t-114 -36.5zM124 775v81h270v-81h-270z" />
    <glyph glyph-name="uni04EF" unicode="&#x4ef;" horiz-adv-x="475" 
d="M88 -218l-32 94q53 11 80.5 41t40.5 74l14 47l-175 466h111l97 -277l10 -69q1 -8 7.5 -8t7.5 8l12 69l78 277h109l-172 -550q-20 -67 -68.5 -112t-119.5 -60zM103 597v81h270v-81h-270z" />
    <glyph glyph-name="uni04F0" unicode="&#x4f0;" horiz-adv-x="516" 
d="M144 -12q-24 0 -49 7.5t-44 19.5l35 90q12 -7 26.5 -12.5t31.5 -5.5q29 0 46 17t27 43l-212 553h116l132 -367l12 -82q1 -5 7.5 -5t7.5 5l12 82l107 367h115l-184 -550q-29 -89 -72 -125.5t-114 -36.5zM300 769v109h102v-109h-102zM116 769v109h102v-109h-102z" />
    <glyph glyph-name="uni04F1" unicode="&#x4f1;" horiz-adv-x="475" 
d="M88 -218l-32 94q53 11 80.5 41t40.5 74l14 47l-175 466h111l97 -277l10 -69q1 -8 7.5 -8t7.5 8l12 69l78 277h109l-172 -550q-20 -67 -68.5 -112t-119.5 -60zM279 591v109h102v-109h-102zM95 591v109h102v-109h-102z" />
    <glyph glyph-name="uni04F2" unicode="&#x4f2;" horiz-adv-x="516" 
d="M144 -12q-24 0 -49 7.5t-44 19.5l35 90q12 -7 26.5 -12.5t31.5 -5.5q29 0 46 17t27 43l-212 553h116l132 -367l12 -82q1 -5 7.5 -5t7.5 5l12 82l107 367h115l-184 -550q-29 -89 -72 -125.5t-114 -36.5zM98 769l116 159h110l-115 -159h-111zM290 769l116 159h110
l-115 -159h-111z" />
    <glyph glyph-name="uni04F3" unicode="&#x4f3;" horiz-adv-x="475" 
d="M88 -218l-32 94q53 11 80.5 41t40.5 74l14 47l-175 466h111l97 -277l10 -69q1 -8 7.5 -8t7.5 8l12 69l78 277h109l-172 -550q-20 -67 -68.5 -112t-119.5 -60zM76 591l116 159h110l-115 -159h-111zM268 591l116 159h110l-115 -159h-111z" />
    <glyph glyph-name="uni04F4" unicode="&#x4f4;" horiz-adv-x="591" 
d="M395 0v284q0 9 -5.5 12.5t-14.5 -1.5l-54 -24q-13 -3 -32.5 -4.5t-34.5 -1.5q-52 0 -97 19.5t-73 62.5t-28 115v238h113v-229q0 -56 29.5 -82t79.5 -26q37 0 68 7.5t49 16.5v313h114v-700h-114zM318 769v109h102v-109h-102zM134 769v109h102v-109h-102z" />
    <glyph glyph-name="uni04F5" unicode="&#x4f5;" horiz-adv-x="526" 
d="M340 0v193q0 10 -5.5 12t-14.5 -3l-52 -29q-20 -6 -49 -6q-48 0 -84.5 18t-57.5 55t-21 93v171h108v-153q0 -42 21 -64.5t66 -22.5q36 0 57 10.5t33 25.5v204h108v-504h-109zM299 591v109h102v-109h-102zM115 591v109h102v-109h-102z" />
    <glyph glyph-name="uni04F6" unicode="&#x4f6;" horiz-adv-x="449" 
d="M164 -140v210l-15 31h118v-241h-103zM82 0v700h353v-102h-240v-598h-113z" />
    <glyph glyph-name="uni04F7" unicode="&#x4f7;" horiz-adv-x="419" 
d="M150 -130v188l-15 32h114v-220h-99zM77 0v504h312v-90h-204v-414h-108z" />
    <glyph glyph-name="uni04F8" unicode="&#x4f8;" horiz-adv-x="811" 
d="M82 0v700h113v-281h120q104 0 163.5 -56t59.5 -152q0 -98 -59.5 -154.5t-163.5 -56.5h-233zM195 94h120q52 0 80.5 31t28.5 85q0 52 -28.5 84t-80.5 32h-120v-232zM616 0v700h113v-700h-113zM457 769v109h102v-109h-102zM273 769v109h102v-109h-102z" />
    <glyph glyph-name="uni04F9" unicode="&#x4f9;" horiz-adv-x="718" 
d="M533 0v504h108v-504h-108zM77 0v504h108v-171h90q90 0 141 -43.5t51 -121.5q0 -80 -51 -124t-141 -44h-198zM185 88h90q40 0 62 21.5t22 58.5q0 35 -22 56t-62 21h-90v-157zM400 591v109h102v-109h-102zM216 591v109h102v-109h-102z" />
    <glyph glyph-name="uni04FA" unicode="&#x4fa;" horiz-adv-x="462" 
d="M39 -222l-32 93q42 14 65.5 47t23.5 82h113q0 -85 -43 -141t-127 -81zM26 311v86h318v-86h-318zM96 0v700h352v-102h-239v-598h-113z" />
    <glyph glyph-name="uni04FB" unicode="&#x4fb;" horiz-adv-x="444" 
d="M39 -222l-30 93q43 12 68.5 44.5t25.5 84.5h107q0 -51 -13.5 -89t-37 -64.5t-54.5 -43.5t-66 -25zM18 211v87h310v-87h-310zM103 0v504h311v-90h-204v-414h-107z" />
    <glyph glyph-name="uni04FC" unicode="&#x4fc;" horiz-adv-x="541" 
d="M321 -222l-31 93q44 10 70 36.5t26 72.5q0 23 -8 53.5t-25 67.5l-63 138l-12 55q-2 7 -7.5 7t-7.5 -7l-13 -55l-107 -239h-123l169 352l-169 348h123l107 -235l13 -55q2 -7 7.5 -7t7.5 7l12 55l107 235h124l-170 -348l107 -221q20 -41 31.5 -80.5t11.5 -74.5
q0 -54 -23.5 -94t-64 -66t-92.5 -38z" />
    <glyph glyph-name="uni04FD" unicode="&#x4fd;" horiz-adv-x="486" 
d="M279 -222l-33 90q39 8 63 33.5t26.5 65.5t-24.5 93l-44 87l-16 46q-2 6 -7.5 6t-7.5 -6l-15 -46l-77 -147h-118l144 252l-144 252h118l77 -147l15 -46q2 -6 7.5 -6t7.5 6l16 46l75 147h118l-143 -252l81 -147q30 -54 36.5 -107t-9.5 -98t-52.5 -77t-93.5 -45z" />
    <glyph glyph-name="uni04FE" unicode="&#x4fe;" horiz-adv-x="541" 
d="M298 307v87h193v-87h-193zM50 307v87h193v-87h-193zM20 0l169 352l-169 348h123l107 -235l13 -55q2 -7 7.5 -7t7.5 7l12 55l107 235h124l-170 -348l170 -352h-124l-107 239l-12 55q-2 7 -7.5 7t-7.5 -7l-13 -55l-107 -239h-123z" />
    <glyph glyph-name="uni04FF" unicode="&#x4ff;" horiz-adv-x="498" 
d="M164 207v87h155v-87h-155zM186 207v87h149v-87h-149zM32 0l144 252l-144 252h119l76 -147l15 -46q2 -6 7.5 -6t8.5 6l15 46l76 147h117l-143 -252l143 -252h-117l-76 147l-15 46q-3 6 -8.5 6t-7.5 -6l-15 -46l-76 -147h-119z" />
    <glyph glyph-name="Wgrave" unicode="&#x1e80;" horiz-adv-x="625" 
d="M124 0l-97 700h100l63 -422l1 -73q0 -10 6.5 -10.5t8.5 7.5l75 302h63l75 -302q2 -8 8.5 -8t6.5 11l1 73l63 422h100l-97 -700h-106l-73 285q-2 10 -9 10t-10 -10l-74 -285h-105zM275 769l-116 159h111l115 -159h-110z" />
    <glyph glyph-name="wgrave" unicode="&#x1e81;" horiz-adv-x="619" 
d="M119 2l-79 502h99l41 -269l1 -67q1 -10 7.5 -10t8.5 8l81 338h63l81 -338q2 -8 8.5 -8t6.5 10l2 67l42 269h98l-80 -502h-100l-80 291q-2 10 -9 10t-10 -10l-80 -291h-101zM272 591l-116 159h111l115 -159h-110z" />
    <glyph glyph-name="Wacute" unicode="&#x1e82;" horiz-adv-x="625" 
d="M124 0l-97 700h100l63 -422l1 -73q0 -10 6.5 -10.5t8.5 7.5l75 302h63l75 -302q2 -8 8.5 -8t6.5 11l1 73l63 422h100l-97 -700h-106l-73 285q-2 10 -9 10t-10 -10l-74 -285h-105zM239 769l116 159h110l-115 -159h-111z" />
    <glyph glyph-name="wacute" unicode="&#x1e83;" horiz-adv-x="619" 
d="M119 2l-79 502h99l41 -269l1 -67q1 -10 7.5 -10t8.5 8l81 338h63l81 -338q2 -8 8.5 -8t6.5 10l2 67l42 269h98l-80 -502h-100l-80 291q-2 10 -9 10t-10 -10l-80 -291h-101zM236 591l116 159h110l-115 -159h-111z" />
    <glyph glyph-name="Wdieresis" unicode="&#x1e84;" horiz-adv-x="625" 
d="M124 0l-97 700h100l63 -422l1 -73q0 -10 6.5 -10.5t8.5 7.5l75 302h63l75 -302q2 -8 8.5 -8t6.5 11l1 73l63 422h100l-97 -700h-106l-73 285q-2 10 -9 10t-10 -10l-74 -285h-105zM354 769v109h102v-109h-102zM170 769v109h102v-109h-102z" />
    <glyph glyph-name="wdieresis" unicode="&#x1e85;" horiz-adv-x="619" 
d="M119 2l-79 502h99l41 -269l1 -67q1 -10 7.5 -10t8.5 8l81 338h63l81 -338q2 -8 8.5 -8t6.5 10l2 67l42 269h98l-80 -502h-100l-80 291q-2 10 -9 10t-10 -10l-80 -291h-101zM351 591v109h102v-109h-102zM167 591v109h102v-109h-102z" />
    <glyph glyph-name="Ygrave" unicode="&#x1ef2;" horiz-adv-x="492" 
d="M190 0v301l-190 399h120l107 -233l12 -56q2 -6 7.5 -6t7.5 6l13 56l106 233h119l-190 -399v-301h-112zM209 769l-116 159h111l115 -159h-110z" />
    <glyph glyph-name="ygrave" unicode="&#x1ef3;" horiz-adv-x="475" 
d="M88 -218l-32 94q53 11 80.5 41t40.5 74l14 47l-175 466h111l97 -277l10 -69q1 -8 7.5 -8t7.5 8l12 69l78 277h109l-172 -550q-20 -67 -68.5 -112t-119.5 -60zM200 591l-116 159h111l115 -159h-110z" />
    <glyph glyph-name="uni2002" unicode="&#x2002;" horiz-adv-x="236" 
 />
    <glyph glyph-name="uni2003" unicode="&#x2003;" horiz-adv-x="304" 
 />
    <glyph glyph-name="endash" unicode="&#x2013;" horiz-adv-x="564" 
d="M50 212v96h464v-96h-464z" />
    <glyph glyph-name="emdash" unicode="&#x2014;" horiz-adv-x="736" 
d="M50 212v96h636v-96h-636z" />
    <glyph glyph-name="quoteleft" unicode="&#x2018;" horiz-adv-x="215" 
d="M191 750l-11 -62q-47 -11 -73 -45.5t-28 -88.5h70v-118h-133v85q0 73 23.5 120t63 73t88.5 36z" />
    <glyph glyph-name="quoteright" unicode="&#x2019;" horiz-adv-x="307" 
d="M66 436l11 62q48 11 74 46t27 88h-69v118h132v-85q0 -72 -23 -119.5t-63 -73.5t-89 -36z" />
    <glyph glyph-name="quotesinglbase" unicode="&#x201a;" horiz-adv-x="290" 
d="M-4 -198l11 56q65 8 100 45.5t37 96.5h-69v118h132v-97q0 -68 -27.5 -115t-75.5 -73t-108 -31z" />
    <glyph glyph-name="quotedblleft" unicode="&#x201c;" horiz-adv-x="509" 
d="M241 750l-11 -62q-47 -11 -73 -45.5t-28 -88.5h64v-118h-127v85q0 73 23.5 120t63 73t88.5 36zM443 750l-11 -62q-48 -11 -74 -45.5t-27 -88.5h63v-118h-126v85q0 73 23.5 120t63 73t88.5 36z" />
    <glyph glyph-name="quotedblright" unicode="&#x201d;" horiz-adv-x="509" 
d="M268 436l10 62q48 11 74 46t27 88h-63v118h127v-85q0 -72 -23.5 -119.5t-63 -73.5t-88.5 -36zM66 436l11 62q48 11 74 46t27 88h-63v118h126v-85q0 -72 -23 -119.5t-63 -73.5t-89 -36z" />
    <glyph glyph-name="quotedblbase" unicode="&#x201e;" horiz-adv-x="455" 
d="M198 -196l10 62q48 11 74 46t27 88h-63v118h127v-85q0 -72 -23.5 -119.5t-63 -73.5t-88.5 -36zM-4 -196l11 62q48 11 74 46t27 88h-63v118h126v-85q0 -72 -23 -119.5t-63 -73.5t-89 -36z" />
    <glyph glyph-name="dagger" unicode="&#x2020;" horiz-adv-x="534" 
d="M235 338v252h-115v57h115v131h64v-131h115v-57h-115v-252h-64z" />
    <glyph glyph-name="bullet" unicode="&#x2022;" horiz-adv-x="368" 
d="M183 231q-42 0 -63.5 17.5t-29.5 46t-8 60.5t8 58.5t29.5 43t63.5 16.5t64 -17t30.5 -44t8.5 -59t-8.5 -60t-30.5 -45t-64 -17z" />
    <glyph glyph-name="ellipsis" unicode="&#x2026;" horiz-adv-x="733" 
d="M310 0v120h113v-120h-113zM537 0v120h113v-120h-113zM82 0v120h113v-120h-113z" />
    <glyph glyph-name="guilsinglleft" unicode="&#x2039;" horiz-adv-x="338" 
d="M170 51l-126 141v75l126 141h118l-127 -142l-43 -29q-10 -7 0 -15l43 -29l127 -142h-118z" />
    <glyph glyph-name="guilsinglright" unicode="&#x203a;" horiz-adv-x="338" 
d="M51 51l126 142l43 29q10 8 0 15l-43 29l-127 142h118l126 -141v-75l-126 -141h-117z" />
    <glyph glyph-name="fraction" unicode="&#x2044;" horiz-adv-x="265" 
d="M-80 0l312 700h113l-310 -700h-115z" />
    <glyph glyph-name="uni2070" unicode="&#x2070;" horiz-adv-x="479" 
d="M240 342q-39 0 -72 11.5t-58 33.5q-17 17 -29.5 38t-19.5 57.5t-7 95.5t7 95t19.5 57.5t29.5 37.5q25 22 58 33.5t72 11.5t72 -11.5t57 -33.5q17 -15 29 -36.5t19.5 -57t7.5 -96.5q0 -60 -7 -96.5t-19.5 -57.5t-29.5 -37q-24 -22 -57 -33.5t-72 -11.5zM240 430
q40 0 66.5 22t29.5 59l2 28t1 39q0 24 -1 38l-2 28q-3 37 -29.5 59t-66.5 22q-42 0 -68 -22t-29 -59q-1 -13 -1.5 -21t-1 -17.5t-0.5 -27.5t0.5 -27.5t1 -17.5t1.5 -22q3 -37 29 -59t68 -22zM200 513v129h79v-129h-79z" />
    <glyph glyph-name="uni2074" unicode="&#x2074;" horiz-adv-x="431" 
d="M268 350v114h-236v45l147 296h103l-134 -262h120v132h93v-325h-93z" />
    <glyph glyph-name="uni2075" unicode="&#x2075;" horiz-adv-x="415" 
d="M190 344q-42 0 -78 10t-66 31l29 82q24 -18 55 -27t55 -9q43 0 70 17.5t27 50.5q-1 30 -26.5 48t-66.5 18q-22 0 -43 -7.5t-42 -25.5l-36 26v247h279v-79h-188v-89q0 -5 3.5 -6.5t9.5 1.5l20 11q3 2 9.5 2.5t10.5 0.5q48 0 84.5 -17.5t57.5 -50.5t21 -79
q0 -72 -50.5 -113.5t-134.5 -41.5z" />
    <glyph glyph-name="uni2076" unicode="&#x2076;" horiz-adv-x="445" 
d="M223 342q-84 0 -132.5 42.5t-48.5 114.5q0 23 5.5 45.5t20 49.5t41.5 64l106 147h111l-129 -165q-5 -7 -2 -10.5t10 0.5l35 14q5 1 10.5 1t15.5 -1q34 -1 65.5 -19t51.5 -50t20 -76q0 -72 -49.5 -114.5t-130.5 -42.5zM223 428q42 0 64.5 19.5t22.5 51.5q0 33 -22.5 51.5
t-64.5 18.5q-40 0 -63.5 -18t-23.5 -52q0 -31 22.5 -51t64.5 -20z" />
    <glyph glyph-name="uni2077" unicode="&#x2077;" horiz-adv-x="440" 
d="M80 350l98 185h-111v84h151l58 99h-225v87h337v-57l-46 -82l-29 -37q-3 -5 -1 -7.5t7 -2.5h74l-1 -84h-115l-98 -185h-99z" />
    <glyph glyph-name="uni2078" unicode="&#x2078;" horiz-adv-x="445" 
d="M225 342q-83 0 -133 37t-50 99q0 27 16.5 55t47.5 42l23 3q8 1 9 3.5t-7 5.5q-41 18 -58.5 42.5t-17.5 54.5q0 58 44.5 93.5t120.5 35.5q78 0 124.5 -36.5t46.5 -97.5q0 -24 -13.5 -45.5t-36.5 -33.5l-22 -3q-6 -1 -6.5 -4t6.5 -6q43 -20 63.5 -48.5t20.5 -60.5
q0 -62 -47.5 -99t-130.5 -37zM226 423q37 0 59 14.5t22 40.5q0 25 -27.5 42t-78.5 30q-30 -9 -46.5 -26t-16.5 -41q0 -27 24 -43.5t64 -16.5zM242 622q28 9 40.5 24t12.5 34q0 25 -21 39.5t-55 14.5q-32 0 -50 -13t-18 -34q0 -22 24 -37.5t67 -27.5z" />
    <glyph glyph-name="uni2079" unicode="&#x2079;" horiz-adv-x="445" 
d="M119 350l129 165q5 7 2.5 10.5t-10.5 -0.5l-34 -14q-6 -1 -11 -1t-15 1q-33 1 -65 19t-52.5 50t-20.5 76q0 72 49.5 114.5t130.5 42.5q84 0 132.5 -42.5t48.5 -114.5q0 -22 -5.5 -44.5t-19.5 -49.5t-41 -65l-106 -147h-112zM222 586q40 0 64 18.5t24 51.5q0 32 -23 51.5
t-65 19.5q-41 0 -63.5 -19.5t-22.5 -51.5q0 -33 22 -51.5t64 -18.5z" />
    <glyph glyph-name="Euro" unicode="&#x20ac;" horiz-adv-x="642" 
d="M448 -12q-66 0 -118 22.5t-85 66t-43 106.5q-3 13 -15 13h-135v91h142q-1 33 -1 63t1 63h-142v91h148q9 67 41 113t83.5 70.5t119.5 24.5q46 0 85.5 -15t75.5 -44l-32 -89q-29 23 -58 34.5t-64 11.5q-56 0 -90.5 -27.5t-45.5 -78.5h185v-91h-193q-1 -33 -1 -63t1 -63h193
v-91h-186q22 -106 134 -105q36 0 66 12t58 34l34 -92q-36 -28 -74.5 -42.5t-83.5 -14.5z" />
    <glyph glyph-name="uni20B4" unicode="&#x20b4;" horiz-adv-x="616" 
d="M321 -10q-73 0 -125 26.5t-79.5 76t-27.5 114.5q0 10 1 19.5t2 18.5h112q-7 -20 -7 -43q0 -51 33.5 -81t94.5 -30q48 0 89.5 14.5t80.5 42.5l36 -92q-42 -31 -95 -48.5t-115 -17.5zM36 205v96h543v-96h-543zM36 411v96h543v-96h-543zM406 466q12 20 12 47q0 42 -32.5 70
t-99.5 28q-37 0 -75 -9.5t-74 -32.5l-32 89q37 25 84 39t99 14q77 0 130 -26t81 -72.5t28 -106.5q0 -11 -1 -21t-3 -19h-117z" />
    <glyph glyph-name="uni20B8" unicode="&#x20b8;" horiz-adv-x="497" 
d="M191 0v377h-165v102h445v-102h-166v-377h-114zM26 605v95h445v-95h-445z" />
    <glyph glyph-name="uni20BD" unicode="&#x20bd;" horiz-adv-x="614" 
d="M12 110v96h469v-96h-469zM12 299v95h250v-95h-250zM132 0v700h250q93 0 147.5 -55t54.5 -149q0 -91 -54.5 -144t-147.5 -53h-139v-299h-111zM243 394h133q47 0 74 28t27 75q0 52 -27 80.5t-74 28.5h-133v-212z" />
    <glyph glyph-name="uni2116" unicode="&#x2116;" horiz-adv-x="1155" 
d="M850 288q-92 0 -144 40.5t-61 99.5q-3 20 -4.5 37t-1.5 33q0 19 1 36.5t5 36.5q9 61 61 101t144 40t144.5 -40t61.5 -101q3 -19 4.5 -36.5t1.5 -36.5q0 -16 -1.5 -33t-4.5 -37q-10 -60 -62 -100t-144 -40zM648 104v96h412v-96h-412zM850 377q48 0 74 19.5t29 46.5
q5 30 5 56t-4 57q-4 28 -30 48t-74 20t-74.5 -20t-29.5 -48q-3 -30 -3 -56t4 -57q4 -27 29.5 -46.5t73.5 -19.5zM82 0v700h93l263 -483q5 -7 10.5 -4t4.5 10l-13 75v402h108v-700h-100l-255 465q-4 8 -10 6t-5 -10l12 -75v-386h-108z" />
    <glyph glyph-name="trademark" unicode="&#x2122;" horiz-adv-x="959" 
d="M482 348v452h98l107 -226q3 -6 8.5 -6t8.5 6l106 226h99v-452h-96v207l10 67q1 6 -4 9t-8 -5l-94 -190h-46l-90 190q-4 8 -9 5t-4 -9l10 -67l1 -207h-97zM190 348v361h-140v91h387v-91h-146v-361h-101z" />
    <glyph glyph-name="uni2153" unicode="&#x2153;" horiz-adv-x="1075" 
d="M56 245v84h104v279h-114v58l216 42l-1 -379h99v-84h-304zM322 0l312 700h113l-310 -700h-115zM857 -6q-46 0 -84 10t-74 38l31 81q29 -24 59 -32.5t62 -8.5q41 0 62 14t21 39q0 22 -19 37t-61 15h-59v80h59q38 0 55.5 14t17.5 38q0 26 -21.5 41t-63.5 15q-22 0 -50.5 -5
t-55.5 -21l-28 76q35 23 70.5 30t72.5 7q39 0 78.5 -13.5t65.5 -42.5t26 -78q0 -40 -19 -63t-48 -37q35 -15 55 -38.5t20 -61.5q0 -46 -25.5 -76t-65.5 -44t-81 -14z" />
    <glyph glyph-name="uni2154" unicode="&#x2154;" horiz-adv-x="1084" 
d="M49 245v89q0 52 26 91t88 65l49 21q31 13 44 27t13 33q0 24 -20.5 37t-55.5 13q-26 0 -55 -5.5t-60 -20.5l-28 76q38 21 74 28t76 7q38 0 76.5 -13t64.5 -42.5t26 -77.5q0 -46 -23 -76.5t-73 -52.5l-57 -27q-29 -12 -44.5 -25t-20 -24.5t-4.5 -20.5v-12h218v-90h-314z
M331 0l312 700h113l-310 -700h-115zM866 -6q-46 0 -84 10t-74 38l31 81q29 -24 59 -32.5t62 -8.5q41 0 62 14t21 39q0 22 -19 37t-61 15h-59v80h59q38 0 55.5 14t17.5 38q0 26 -21.5 41t-63.5 15q-22 0 -50.5 -5t-55.5 -21l-28 76q35 23 70.5 30t72.5 7q39 0 78.5 -13.5
t65.5 -42.5t26 -78q0 -40 -19 -63t-48 -37q35 -15 55 -38.5t20 -61.5q0 -46 -25.5 -76t-65.5 -44t-81 -14z" />
    <glyph glyph-name="minus" unicode="&#x2212;" horiz-adv-x="548" 
d="M50 302v96h448v-96h-448z" />
    <glyph glyph-name="approxequal" unicode="&#x2248;" horiz-adv-x="600" 
d="M396 173q-39 0 -64 8.5t-44.5 19.5t-40 19.5t-49.5 8.5q-31 0 -58 -11.5t-49 -29.5l-47 70q36 32 76.5 45.5t81.5 13.5q39 0 64.5 -8.5t45 -19.5t40 -19.5t49.5 -8.5q32 0 59 11.5t48 29.5l47 -70q-35 -30 -75.5 -44.5t-83.5 -14.5zM396 373q-39 0 -64 8.5t-44.5 19.5
t-40 19.5t-49.5 8.5q-31 0 -58 -11.5t-49 -29.5l-47 70q36 32 76.5 45.5t81.5 13.5q39 0 64.5 -8.5t45 -19.5t40 -19.5t49.5 -8.5q32 0 59 11.5t48 29.5l47 -70q-35 -30 -75.5 -44.5t-83.5 -14.5z" />
    <glyph glyph-name="notequal" unicode="&#x2260;" horiz-adv-x="564" 
d="M50 413v91h448v-91h-448zM50 196v91h448v-91h-448zM56 0l312 700h113l-310 -700h-115z" />
    <glyph glyph-name="lessequal" unicode="&#x2264;" horiz-adv-x="564" 
d="M498 232l-440 135v119l440 138v-96l-340 -93q-8 -1 -8 -8t8 -9l340 -88v-98zM50 92v91h448v-91h-448z" />
    <glyph glyph-name="greaterequal" unicode="&#x2265;" horiz-adv-x="548" 
d="M50 232v98l340 88q8 2 8 9t-8 8l-340 93v96l440 -138v-119zM50 92v91h448v-91h-448z" />
    <glyph glyph-name="A.ss01" 
d="M30 0l185 700h163l185 -700h-114l-44 177h-217l-44 -177h-114zM213 273h167l-68 267l-8 62q-1 7 -7.5 7t-7.5 -7l-8 -62z" />
    <glyph glyph-name="Aacute.ss01" 
d="M30 0l185 700h163l185 -700h-114l-44 177h-217l-44 -177h-114zM213 273h167l-68 267l-8 62q-1 7 -7.5 7t-7.5 -7l-8 -62zM218 769l116 159h110l-115 -159h-111z" />
    <glyph glyph-name="Abreve.ss01" 
d="M30 0l185 700h163l185 -700h-114l-44 177h-217l-44 -177h-114zM213 273h167l-68 267l-8 62q-1 7 -7.5 7t-7.5 -7l-8 -62zM292 779q-64 0 -106 30.5t-59 88.5l76 20q12 -31 33.5 -48.5t55.5 -17.5t55.5 17.5t32.5 48.5l76 -20q-15 -58 -58 -88.5t-106 -30.5z" />
    <glyph glyph-name="uni01CD.ss01" 
d="M30 0l185 700h163l185 -700h-114l-44 177h-217l-44 -177h-114zM213 273h167l-68 267l-8 62q-1 7 -7.5 7t-7.5 -7l-8 -62zM239 769l-93 159h93l36 -63l10 -34q3 -7 6.5 -7t5.5 7l11 34l36 63h93l-93 -159h-105z" />
    <glyph glyph-name="Acircumflex.ss01" 
d="M30 0l185 700h163l185 -700h-114l-44 177h-217l-44 -177h-114zM213 273h167l-68 267l-8 62q-1 7 -7.5 7t-7.5 -7l-8 -62zM146 769l91 159h108l92 -159h-96l-33 63l-11 34q-2 8 -5.5 8t-6.5 -8l-10 -34l-34 -63h-95z" />
    <glyph glyph-name="Adieresis.ss01" 
d="M30 0l185 700h163l185 -700h-114l-44 177h-217l-44 -177h-114zM213 273h167l-68 267l-8 62q-1 7 -7.5 7t-7.5 -7l-8 -62zM333 769v109h102v-109h-102zM149 769v109h102v-109h-102z" />
    <glyph glyph-name="Agrave.ss01" 
d="M30 0l185 700h163l185 -700h-114l-44 177h-217l-44 -177h-114zM213 273h167l-68 267l-8 62q-1 7 -7.5 7t-7.5 -7l-8 -62zM254 769l-116 159h111l115 -159h-110z" />
    <glyph glyph-name="Amacron.ss01" 
d="M30 0l185 700h163l185 -700h-114l-44 177h-217l-44 -177h-114zM213 273h167l-68 267l-8 62q-1 7 -7.5 7t-7.5 -7l-8 -62zM156 775v81h270v-81h-270z" />
    <glyph glyph-name="Aogonek.ss01" 
d="M30 0l185 700h163l185 -700h-114l-44 177h-217l-44 -177h-114zM213 273h167l-68 267l-8 62q-1 7 -7.5 7t-7.5 -7l-8 -62zM594 -255q-57 4 -99 21t-65 50.5t-23 84.5q0 40 19.5 71.5t56.5 50.5l80 -23q-31 -17 -47 -39t-16 -53q0 -43 29 -60.5t79 -22.5z" />
    <glyph glyph-name="Aring.ss01" 
d="M30 0l185 700h163l185 -700h-114l-44 177h-217l-44 -177h-114zM213 273h167l-68 267l-8 62q-1 7 -7.5 7t-7.5 -7l-8 -62zM293 745q-38 0 -71 10t-53.5 33.5t-20.5 63.5q0 42 21 65t54.5 32.5t69.5 9.5q35 0 68 -9.5t53.5 -32.5t20.5 -65q0 -41 -20.5 -64.5t-53.5 -33
t-68 -9.5zM291 805q29 0 49.5 8.5t20.5 39.5q0 29 -20.5 37.5t-49.5 8.5q-31 0 -50 -8.5t-19 -38.5t20.5 -38.5t48.5 -8.5z" />
    <glyph glyph-name="Atilde.ss01" 
d="M30 0l185 700h163l185 -700h-114l-44 177h-217l-44 -177h-114zM213 273h167l-68 267l-8 62q-1 7 -7.5 7t-7.5 -7l-8 -62zM156 759l-27 69q19 25 42.5 36t51.5 11q35 0 56 -9t38.5 -18.5t40.5 -9.5q21 0 37 10t32 29l26 -69q-18 -24 -42 -35.5t-52 -11.5q-34 0 -55.5 9.5
t-39 18.5t-39.5 9q-21 0 -37.5 -9.5t-31.5 -29.5z" />
    <glyph glyph-name="AE.ss01" horiz-adv-x="857" 
d="M30 0l186 700h585v-100h-309v-201h292v-98h-292v-199h309v-102h-413v177h-200l-44 -177h-114zM212 273h176v327h-93z" />
    <glyph glyph-name="G.ss01" horiz-adv-x="569" 
d="M315 -11q-115 -1 -180 57.5t-75 167.5q-2 29 -4 67t-2 69q0 32 1.5 69.5t3.5 66.5q12 114 80.5 170t179.5 56q52 0 99.5 -16t82.5 -45l-35 -92q-32 28 -68 39.5t-79 11.5q-71 0 -108.5 -35t-42.5 -105q-2 -32 -3.5 -60.5t-1.5 -59.5t1.5 -59.5t3.5 -64.5q5 -63 41 -98.5
t102 -36.5q25 0 50.5 3.5t40.5 10.5v194h-114v102h220v-358q-35 -25 -81 -39t-112 -15z" />
    <glyph glyph-name="Gbreve.ss01" horiz-adv-x="569" 
d="M315 -11q-115 -1 -180 57.5t-75 167.5q-2 29 -4 67t-2 69q0 32 1.5 69.5t3.5 66.5q12 114 80.5 170t179.5 56q52 0 99.5 -16t82.5 -45l-35 -92q-32 28 -68 39.5t-79 11.5q-71 0 -108.5 -35t-42.5 -105q-2 -32 -3.5 -60.5t-1.5 -59.5t1.5 -59.5t3.5 -64.5q5 -63 41 -98.5
t102 -36.5q25 0 50.5 3.5t40.5 10.5v194h-114v102h220v-358q-35 -25 -81 -39t-112 -15zM283 797q-64 0 -106 30.5t-59 88.5l76 20q12 -31 33.5 -48.5t55.5 -17.5t55.5 17.5t32.5 48.5l76 -20q-15 -58 -58 -88.5t-106 -30.5z" />
    <glyph glyph-name="Gcaron.ss01" horiz-adv-x="569" 
d="M315 -11q-115 -1 -180 57.5t-75 167.5q-2 29 -4 67t-2 69q0 32 1.5 69.5t3.5 66.5q12 114 80.5 170t179.5 56q52 0 99.5 -16t82.5 -45l-35 -92q-32 28 -68 39.5t-79 11.5q-71 0 -108.5 -35t-42.5 -105q-2 -32 -3.5 -60.5t-1.5 -59.5t1.5 -59.5t3.5 -64.5q5 -63 41 -98.5
t102 -36.5q25 0 50.5 3.5t40.5 10.5v194h-114v102h220v-358q-35 -25 -81 -39t-112 -15zM230 787l-93 159h93l36 -63l10 -34q3 -7 6.5 -7t5.5 7l11 34l36 63h93l-93 -159h-105z" />
    <glyph glyph-name="uni0122.ss01" horiz-adv-x="569" 
d="M315 -11q-115 -1 -180 57.5t-75 167.5q-2 29 -4 67t-2 69q0 32 1.5 69.5t3.5 66.5q12 114 80.5 170t179.5 56q52 0 99.5 -16t82.5 -45l-35 -92q-32 28 -68 39.5t-79 11.5q-71 0 -108.5 -35t-42.5 -105q-2 -32 -3.5 -60.5t-1.5 -59.5t1.5 -59.5t3.5 -64.5q5 -63 41 -98.5
t102 -36.5q25 0 50.5 3.5t40.5 10.5v194h-114v102h220v-358q-35 -25 -81 -39t-112 -15zM220 -326l-67 49q36 26 56 54t28 63.5t8 82.5h91q0 -59 -10.5 -103t-35.5 -78.5t-70 -67.5z" />
    <glyph glyph-name="Gdotaccent.ss01" horiz-adv-x="569" 
d="M315 -11q-115 -1 -180 57.5t-75 167.5q-2 29 -4 67t-2 69q0 32 1.5 69.5t3.5 66.5q12 114 80.5 170t179.5 56q52 0 99.5 -16t82.5 -45l-35 -92q-32 28 -68 39.5t-79 11.5q-71 0 -108.5 -35t-42.5 -105q-2 -32 -3.5 -60.5t-1.5 -59.5t1.5 -59.5t3.5 -64.5q5 -63 41 -98.5
t102 -36.5q25 0 50.5 3.5t40.5 10.5v194h-114v102h220v-358q-35 -25 -81 -39t-112 -15zM229 787v109h108v-109h-108z" />
    <glyph glyph-name="I.ss01" horiz-adv-x="278" 
d="M82 0v700h113v-700h-113z" />
    <glyph glyph-name="IJ.ss01" horiz-adv-x="741" 
d="M437 -6q-40 0 -80 9.5t-72 26.5v103q35 -18 69 -27.5t68 -9.5q64 0 94 26t30 76v502h113v-502q0 -97 -60 -150.5t-162 -53.5zM82 0v700h113v-700h-113z" />
    <glyph glyph-name="Iacute.ss01" horiz-adv-x="278" 
d="M82 0v700h113v-700h-113zM66 769l116 159h110l-115 -159h-111z" />
    <glyph glyph-name="Icircumflex.ss01" horiz-adv-x="278" 
d="M82 0v700h113v-700h-113zM-7 769l91 159h108l92 -159h-96l-33 63l-11 34q-2 8 -5.5 8t-6.5 -8l-10 -34l-34 -63h-95z" />
    <glyph glyph-name="Idieresis.ss01" horiz-adv-x="278" 
d="M82 0v700h113v-700h-113zM180 769v109h102v-109h-102zM-4 769v109h102v-109h-102z" />
    <glyph glyph-name="Idotaccent.ss01" horiz-adv-x="278" 
d="M82 0v700h113v-700h-113zM85 769v109h108v-109h-108z" />
    <glyph glyph-name="Igrave.ss01" horiz-adv-x="278" 
d="M82 0v700h113v-700h-113zM102 769l-116 159h111l115 -159h-110z" />
    <glyph glyph-name="Imacron.ss01" horiz-adv-x="278" 
d="M82 0v700h113v-700h-113zM4 775v81h270v-81h-270z" />
    <glyph glyph-name="Iogonek.ss01" horiz-adv-x="278" 
d="M82 0v700h113v-700h-113zM226 -255q-57 4 -99 21t-65 50.5t-23 84.5q0 40 19.5 71.5t56.5 50.5l80 -23q-31 -17 -47 -39t-16 -53q0 -43 29 -60.5t79 -22.5z" />
    <glyph glyph-name="J.ss01" horiz-adv-x="412" 
d="M153 -12q-30 0 -62 11.5t-57 31.5l32 91q19 -15 42.5 -24.5t47.5 -9.5q36 0 52 20.5t16 51.5v540h113v-540q0 -34 -10.5 -65.5t-33 -55.5t-57 -37.5t-83.5 -13.5z" />
    <glyph glyph-name="Z.ss01" horiz-adv-x="519" 
d="M41 0v68l299 523v11h-299v98h437v-68l-299 -523v-11h299v-98h-437z" />
    <glyph glyph-name="Zacute.ss01" horiz-adv-x="519" 
d="M41 0v68l299 523v11h-299v98h437v-68l-299 -523v-11h299v-98h-437zM184 769l116 159h110l-115 -159h-111z" />
    <glyph glyph-name="Zcaron.ss01" horiz-adv-x="519" 
d="M41 0v68l299 523v11h-299v98h437v-68l-299 -523v-11h299v-98h-437zM205 769l-93 159h93l36 -63l10 -34q3 -7 6.5 -7t5.5 7l11 34l36 63h93l-93 -159h-105z" />
    <glyph glyph-name="Zdotaccent.ss01" horiz-adv-x="519" 
d="M41 0v68l299 523v11h-299v98h437v-68l-299 -523v-11h299v-98h-437zM204 769v109h108v-109h-108z" />
    <glyph glyph-name="i.ss01" horiz-adv-x="260" 
d="M77 0v504h106v-504h-106zM77 591v109h106v-109h-106z" />
    <glyph glyph-name="dotlessi.ss01" horiz-adv-x="262" 
d="M77 0v504h108v-504h-108z" />
    <glyph glyph-name="iacute.ss01" horiz-adv-x="262" 
d="M77 0v504h108v-504h-108zM57 591l116 159h110l-115 -159h-111z" />
    <glyph glyph-name="icircumflex.ss01" horiz-adv-x="262" 
d="M3 591l73 159h109l74 -159h-90l-26 63l-8 34q-2 8 -4.5 8t-4.5 -8l-9 -34l-24 -63h-90zM77 0v504h108v-504h-108z" />
    <glyph glyph-name="idieresis.ss01" horiz-adv-x="262" 
d="M160 591v109h96v-109h-96zM5 591v109h96v-109h-96zM77 0v504h108v-504h-108z" />
    <glyph glyph-name="i.loclTRK" horiz-adv-x="301" 
d="M116 0v413h-78v91h186v-504h-108zM99 591v109h108v-109h-108z" />
    <glyph glyph-name="i.loclTRK.ss01" horiz-adv-x="262" 
d="M77 0v504h108v-504h-108zM77 591v109h108v-109h-108z" />
    <glyph glyph-name="igrave.ss01" horiz-adv-x="262" 
d="M77 0v504h108v-504h-108zM93 591l-116 159h111l115 -159h-110z" />
    <glyph glyph-name="ij.ss01" horiz-adv-x="521" 
d="M77 0v504h106v-504h-106zM77 591v109h106v-109h-106zM270 -262l-29 91q41 10 68.5 47.5t27.5 105.5v522h107l-1 -520q0 -57 -13.5 -99t-37.5 -72t-55 -48.5t-67 -26.5zM337 591v109h106v-109h-106z" />
    <glyph glyph-name="imacron.ss01" horiz-adv-x="262" 
d="M77 0v504h108v-504h-108zM-4 597v81h270v-81h-270z" />
    <glyph glyph-name="iogonek.ss01" horiz-adv-x="262" 
d="M77 0v504h108v-504h-108zM77 591v109h108v-109h-108zM216 -255q-57 4 -99 21t-65 50.5t-23 84.5q0 40 19.5 71.5t56.5 50.5l80 -23q-31 -17 -47 -39t-16 -53q0 -43 29 -60.5t79 -22.5z" />
    <glyph glyph-name="j.ss01" horiz-adv-x="261" 
d="M10 -262l-29 91q41 10 68.5 47.5t27.5 105.5v522h107l-1 -520q0 -57 -13.5 -99t-37.5 -72t-55 -48.5t-67 -26.5zM77 591v109h106v-109h-106z" />
    <glyph glyph-name="uni0237.ss01" horiz-adv-x="261" 
d="M10 -262l-29 91q41 10 68.5 47.5t27.5 105.5v522h107l-1 -520q0 -57 -13.5 -99t-37.5 -72t-55 -48.5t-67 -26.5z" />
    </font>
</defs>
</svg>
