<?xml version="1.0" standalone="no"?>
<!DOCTYPE svg PUBLIC "-//W3C//DTD SVG 1.1//EN" "http://www.w3.org/Graphics/SVG/1.1/DTD/svg11.dtd" >
<svg xmlns="http://www.w3.org/2000/svg" xmlns:xlink="http://www.w3.org/1999/xlink" version="1.1">
<metadata>
Created by FontForge 20170731 at Thu Sep 22 17:43:48 2022
 By Aleksey,,,
Copyright 2015 The Finlandica Project Authors (https://github.com/HelsinkiTypeStudio/Finlandica)
</metadata>
<defs>
<font id="Finlandica-Bold" horiz-adv-x="610" >
  <font-face 
    font-family="Finlandica"
    font-weight="700"
    font-stretch="normal"
    units-per-em="1000"
    panose-1="0 0 0 0 0 0 0 0 0 0"
    ascent="800"
    descent="-200"
    x-height="510"
    cap-height="700"
    bbox="-80 -331 1114 990"
    underline-thickness="50"
    underline-position="-175"
    unicode-range="U+0020-FB02"
  />
<missing-glyph horiz-adv-x="600" 
 />
    <glyph glyph-name="fi" unicode="fi" horiz-adv-x="645" 
d="M106 0v386h-86v124h86v56q0 59 27.5 101t77 64t116.5 22q49 0 91.5 -14t71.5 -39l-56 -99q-21 20 -43.5 28t-41.5 8q-52 0 -72.5 -17t-20.5 -44v-66h104v-124h-104v-386h-150zM430 0v386h-90v124h240v-510h-150zM430 578v122h150v-122h-150z" />
    <glyph glyph-name="fl" unicode="fl" horiz-adv-x="676" 
d="M106 0v386h-86v124h86v56q0 59 26 101t72.5 64t109.5 22q49 0 93 -17t73 -46l-37 -92q-28 21 -58 30t-56 9q-41 0 -57 -17t-16 -44v-66h104v-124h-104v-386h-150zM555 1q-52 0 -86 33.5t-34 85.5v630h146v-604q0 -7 4.5 -11.5t11.5 -4.5h54v-129h-96z" />
    <glyph glyph-name="f_f" unicode="ff" horiz-adv-x="730" 
d="M446 0v386h-86v124h86v66q0 56 27.5 95.5t77 60.5t116.5 21q49 0 91.5 -14t71.5 -39l-47 -92q-23 16 -48 22.5t-46 6.5q-52 0 -72.5 -17t-20.5 -44v-66h104v-124h-104v-386h-150zM106 0v386h-86v124h86v46q0 59 27.5 101t77 64t116.5 22q52 0 97 -14t76 -39l-47 -102
q-25 21 -53 30t-51 9q-52 0 -72.5 -17t-20.5 -44v-56h104v-124h-104v-386h-150z" />
    <glyph glyph-name="f_f_i" unicode="ffi" horiz-adv-x="981" 
d="M106 0v386h-86v124h86v46q0 59 27.5 101t77 64t116.5 22q52 0 97 -14t76 -39l-47 -102q-25 21 -53 30t-51 9q-52 0 -72.5 -17t-20.5 -44v-56h104v-124h-104v-386h-150zM446 0v386h-86v124h86v66q0 59 27.5 98.5t77 59t116.5 19.5q49 0 91.5 -14t71.5 -39l-47 -92
q-23 16 -48 22.5t-46 6.5q-52 0 -72.5 -17t-20.5 -44v-66h104v-124h-104v-386h-150zM766 0v386h-90v124h240v-510h-150zM766 578v122h150v-122h-150z" />
    <glyph glyph-name="f_f_l" unicode="ffl" horiz-adv-x="1016" 
d="M106 0v386h-86v124h86v46q0 59 27.5 101t77 64t116.5 22q52 0 97 -14t76 -39l-47 -102q-25 21 -53 30t-51 9q-52 0 -72.5 -17t-20.5 -44v-56h104v-124h-104v-386h-150zM446 0v386h-86v124h86v66q0 59 26 98.5t73 59t109 19.5q49 0 93 -17t73 -46l-37 -92q-28 21 -58 30
t-56 9q-41 0 -57 -17t-16 -44v-66h124v-124h-124v-386h-150zM895 1q-52 0 -86 33.5t-34 85.5v630h146v-604q0 -7 4.5 -11.5t11.5 -4.5h54v-129h-96z" />
    <glyph glyph-name=".notdef" horiz-adv-x="600" 
 />
    <glyph glyph-name=".null" horiz-adv-x="0" 
 />
    <glyph glyph-name="nonmarkingreturn" horiz-adv-x="333" 
 />
    <glyph glyph-name="space" unicode=" " horiz-adv-x="300" 
 />
    <glyph glyph-name="exclam" unicode="!" horiz-adv-x="311" 
d="M96 230l-36 470h191l-35 -470h-120zM78 0v145h157v-145h-157z" />
    <glyph glyph-name="quotedbl" unicode="&#x22;" horiz-adv-x="460" 
d="M60 421v329h120v-329h-120zM280 421v329h120v-329h-120z" />
    <glyph glyph-name="numbersign" unicode="#" horiz-adv-x="780" 
d="M103 384v126h113l70 190h160l-69 -190h123l70 190h160l-43 -119l-41 -51q-7 -8 -4 -14t13 -6h68v-126h-620zM50 0l43 119l41 51q7 8 4.5 14t-13.5 6h-68v126h620v-126h-113l-70 -190h-160l69 190h-123l-70 -190h-160z" />
    <glyph glyph-name="dollar" unicode="$" horiz-adv-x="546" 
d="M206 -150v210h140v-210h-140zM206 660v190h140v-190h-140zM256 -10q-68 0 -119.5 16t-101.5 48l46 126q47 -28 84.5 -40t86.5 -12q47 0 75 21t28 61q0 34 -20 55.5t-60 26.5l-37 5q-54 7 -98 30.5t-70 65t-26 102.5q0 66 28 114.5t83.5 75.5t139.5 27q66 0 115 -17
t80 -40l-44 -118q-35 19 -71 28t-75 9q-58 0 -82 -21t-24 -48q0 -29 16.5 -44.5t47.5 -19.5l40 -5q99 -11 153 -68t54 -151q0 -74 -29 -125t-84.5 -76.5t-135.5 -25.5z" />
    <glyph glyph-name="percent" unicode="%" horiz-adv-x="700" 
d="M70 0l262 451l101 249h190l-254 -436l-109 -264h-190zM153 360q-57 0 -89 26t-45.5 66.5t-13.5 83.5t13.5 82.5t45.5 65t89 25.5q58 0 90.5 -25.5t45.5 -65t13 -82.5q0 -46 -13.5 -86t-46 -65t-89.5 -25zM153 464q30 0 38.5 20.5t8.5 48.5q0 30 -8.5 51t-38.5 21
q-29 0 -37.5 -21t-8.5 -51q0 -31 9 -50t37 -19zM546 -10q-57 0 -89.5 26t-45.5 66.5t-13 83.5t13 82.5t45.5 65t89.5 25.5q58 0 90 -25.5t45.5 -65t13.5 -82.5q0 -46 -13.5 -86t-46 -65t-89.5 -25zM546 94q30 0 38.5 20.5t8.5 48.5q0 30 -8.5 51t-38.5 21q-29 0 -37.5 -21
t-8.5 -51q0 -31 9 -50t37 -19z" />
    <glyph glyph-name="ampersand" unicode="&#x26;" horiz-adv-x="723" 
d="M349 -12q-69 -1 -124 13t-94.5 41t-60 65.5t-20.5 86.5q0 43 12.5 72.5t34 50.5t48.5 36q-38 24 -61.5 61t-23.5 95q0 55 24 93.5t63 62.5t86 35.5t92 11.5q42 0 79 -6t69.5 -19t63.5 -36l-49 -123q-32 25 -73.5 36.5t-82.5 11.5q-60 0 -92 -21.5t-32 -60.5t26 -60
t71 -21h56v-125h-56q-53 0 -80 -18.5t-27 -56.5q0 -45 40.5 -65t110.5 -20q43 0 83.5 9t68.5 25v126h-68v125h260v-125h-62v-210q-48 -37 -115.5 -62.5t-166.5 -27.5z" />
    <glyph glyph-name="quotesingle" unicode="'" horiz-adv-x="240" 
d="M60 421v329h120v-329h-120z" />
    <glyph glyph-name="parenleft" unicode="(" horiz-adv-x="466" 
d="M330 -190q-108 29 -161.5 91.5t-65.5 163.5q-7 71 -10 143t-3 142q0 71 3 142.5t10 142.5q12 101 65.5 164t161.5 91l46 -124q-64 -18 -93.5 -59t-34.5 -109q-4 -74 -6.5 -134.5t-2.5 -113.5q0 -52 2.5 -113t6.5 -135q5 -67 34.5 -108.5t93.5 -59.5z" />
    <glyph glyph-name="parenright" unicode=")" horiz-adv-x="466" 
d="M136 -190l-46 124q64 18 94 59.5t34 108.5q5 74 7 135t2 113q0 53 -2 113.5t-7 134.5q-4 68 -34 109t-94 59l46 124q108 -28 161.5 -91t65.5 -164q7 -71 10 -142.5t3 -142.5q0 -70 -3 -142t-10 -143q-12 -101 -65.5 -163.5t-161.5 -91.5z" />
    <glyph glyph-name="asterisk" unicode="*" horiz-adv-x="530" 
d="M175 344l-65 42l96 136h-167v71h167l-96 136l65 43l70 -112l10 -40q3 -10 10 -10t10 10l10 40l70 112l65 -43l-96 -136h167v-71h-167l96 -136l-65 -42l-70 110l-10 39q-3 11 -10 11t-10 -11l-10 -39z" />
    <glyph glyph-name="plus" unicode="+" horiz-adv-x="600" 
d="M232 100v182h-182v136h182v182h136v-182h182v-136h-182v-182h-136z" />
    <glyph glyph-name="comma" unicode="," horiz-adv-x="312" 
d="M-10 -210l14 76q73 2 112 39t39 95h-88v145h175v-114q0 -84 -36 -137t-93.5 -78t-122.5 -26z" />
    <glyph glyph-name="hyphen" unicode="-" horiz-adv-x="350" 
d="M50 199v136h250v-136h-250z" />
    <glyph glyph-name="period" unicode="." horiz-adv-x="297" 
d="M70 0v150h157v-150h-157z" />
    <glyph glyph-name="slash" unicode="/" horiz-adv-x="485" 
d="M30 0l265 700h160l-263 -700h-162z" />
    <glyph glyph-name="zero" unicode="0" horiz-adv-x="620" 
d="M310 -12q-52 0 -100.5 16.5t-85.5 53.5q-23 24 -41 56.5t-28 88t-10 147.5t10 147.5t28 88.5t41 56q37 37 85.5 53.5t100.5 16.5t100.5 -16.5t85.5 -53.5q24 -23 41.5 -56t27.5 -88.5t10 -147.5t-10 -147.5t-27.5 -88t-41.5 -56.5q-37 -37 -85.5 -53.5t-100.5 -16.5z
M310 124q55 0 91 35t39 90q2 18 3 45.5t1 55.5q0 29 -1 56t-3 45q-3 56 -39 90.5t-91 34.5t-91 -34.5t-39 -90.5l-2.5 -45t-1.5 -56q0 -28 1.5 -55.5t2.5 -45.5q3 -55 39 -90t91 -35zM251 250v200h120v-200h-120z" />
    <glyph glyph-name="one" unicode="1" horiz-adv-x="531" 
d="M73 0v130h142v427h-160v91l321 64l-2 -582h132v-130h-433z" />
    <glyph glyph-name="two" unicode="2" horiz-adv-x="539" 
d="M45 0v138q0 84 38.5 142t123.5 99l87 39q33 15 48.5 33t15.5 48q0 21 -12 39t-34.5 29t-55.5 11q-38 0 -78.5 -8.5t-85.5 -31.5l-44 119q55 32 107 43t110 11q41 0 83 -11t77.5 -35t57 -62.5t21.5 -93.5q0 -76 -29 -122.5t-100 -79.5l-87 -41q-37 -20 -57 -39.5
t-27.5 -37t-7.5 -33.5v-16h300v-140h-451z" />
    <glyph glyph-name="three" unicode="3" horiz-adv-x="529" 
d="M250 -10q-68 0 -123 15.5t-107 58.5l47 127q42 -37 79 -50.5t93 -13.5q50 0 76 22.5t26 62.5q0 32 -24.5 54t-82.5 22h-76v125h76q53 0 75 22t22 59q0 38 -27.5 61t-77.5 23q-37 0 -76 -8.5t-75 -31.5l-43 118q50 34 99 45t104 11q42 0 84.5 -11.5t79 -35.5t58.5 -62.5
t22 -93.5q0 -42 -10.5 -71.5t-29.5 -50t-45 -36.5q27 -13 48.5 -34t34 -51t12.5 -72q0 -52 -22.5 -90.5t-58.5 -64t-77.5 -37.5t-80.5 -12z" />
    <glyph glyph-name="four" unicode="4" horiz-adv-x="562" 
d="M347 0v174h-327v70l206 456h159l-185 -402h147v202h145v-500h-145z" />
    <glyph glyph-name="five" unicode="5" horiz-adv-x="544" 
d="M248 -9q-61 0 -112.5 15t-95.5 48l45 128q38 -31 80.5 -44t73.5 -13q57 0 93 27t35 78q-1 44 -34.5 71.5t-88.5 27.5q-34 0 -64 -11.5t-57 -37.5l-50 40v380h398v-123h-257v-136q0 -7 5.5 -9t12.5 3l29 19q5 2 9.5 2h7.5q72 0 125 -29t82 -80t29 -117q0 -74 -33 -128
t-93 -82.5t-140 -28.5z" />
    <glyph glyph-name="six" unicode="6" horiz-adv-x="581" 
d="M291 -12q-82 0 -140.5 29.5t-89.5 83.5t-31 128q0 36 7 70t27.5 75.5t58.5 99.5l149 226h172l-179 -253q-7 -10 -3.5 -15.5t15.5 -0.5l49 22q6 1 11 1h9q55 0 101.5 -28.5t75 -79t28.5 -117.5q0 -74 -32.5 -128t-91 -83.5t-136.5 -29.5zM291 122q56 0 86 27.5t28 79.5
q-1 52 -30.5 79.5t-83.5 27.5t-83.5 -27.5t-31.5 -79.5q-1 -52 28.5 -79.5t86.5 -27.5z" />
    <glyph glyph-name="seven" unicode="7" horiz-adv-x="587" 
d="M89 0l133 284h-151v131h213l72 150h-309v135h484v-88l-53 -125l-44 -58q-4 -6 -1 -10t10 -4h95l-2 -131h-158l-133 -284h-156z" />
    <glyph glyph-name="eight" unicode="8" horiz-adv-x="592" 
d="M300 -12q-79 0 -138 26t-91.5 73t-32.5 109q0 44 23 86t66 64l34 4q12 1 13 5.5t-10 8.5q-61 27 -85.5 65.5t-24.5 84.5q0 60 29 104.5t82.5 69t126.5 24.5q75 0 130.5 -25.5t86 -72.5t30.5 -110q0 -35 -19.5 -68.5t-50.5 -50.5l-30 -5q-10 -1 -11.5 -5t8.5 -9
q65 -32 91.5 -76.5t26.5 -92.5q0 -64 -30.5 -111t-87 -72.5t-136.5 -25.5zM302 114q47 0 75 22t27 59q-1 38 -36.5 65.5t-99.5 46.5q-40 -14 -60 -40.5t-20 -61.5q0 -41 31 -66t83 -25zM323 419q32 12 49.5 34.5t16.5 53.5q-1 38 -28.5 60.5t-70.5 22.5q-42 0 -64.5 -20
t-21.5 -52q1 -35 32.5 -58t86.5 -41z" />
    <glyph glyph-name="nine" unicode="9" horiz-adv-x="581" 
d="M137 0l179 253q7 10 3.5 15.5t-15.5 0.5l-49 -22q-6 -1 -11 -1h-9q-54 0 -101 28.5t-75.5 79.5t-28.5 117q0 74 32.5 128t91 83.5t136.5 29.5q82 0 140.5 -29.5t89.5 -83.5t31 -128q0 -35 -7 -69.5t-27 -76t-59 -99.5l-149 -226h-172zM290 364q54 0 84 27.5t31 79.5
q2 52 -28 79.5t-87 27.5q-56 0 -85.5 -27.5t-28.5 -79.5t30.5 -79.5t83.5 -27.5z" />
    <glyph glyph-name="colon" unicode=":" horiz-adv-x="297" 
d="M80 0v150h157v-150h-157zM80 360v150h157v-150h-157z" />
    <glyph glyph-name="semicolon" unicode=";" horiz-adv-x="312" 
d="M-10 -210l14 76q73 2 112 39t39 95h-88v145h175v-114q0 -84 -36 -137t-93.5 -78t-122.5 -26zM70 360v150h157v-150h-157z" />
    <glyph glyph-name="less" unicode="&#x3c;" horiz-adv-x="540" 
d="M490 108l-440 164v173l440 167v-132l-315 -112q-7 -3 -7.5 -8.5t7.5 -8.5l315 -108v-135z" />
    <glyph glyph-name="equal" unicode="=" horiz-adv-x="560" 
d="M50 386v124h460v-124h-460zM50 190v124h460v-124h-460z" />
    <glyph glyph-name="greater" unicode="&#x3e;" horiz-adv-x="540" 
d="M50 108v135l315 108q8 3 8 8.5t-8 8.5l-315 112v132l440 -167v-173z" />
    <glyph glyph-name="question" unicode="?" horiz-adv-x="497" 
d="M142 230q-3 25 -3.5 34t-0.5 13q0 44 23 80t66 55l47 23q17 8 30.5 21t13.5 44q0 29 -14.5 45t-37.5 23t-48 7q-29 0 -53 -4.5t-46 -13t-45 -21.5l-44 119q39 26 88 41.5t104 15.5q71 0 126.5 -24t87 -71t31.5 -117q0 -47 -17 -80t-43 -54t-55 -35l-33 -17
q-22 -8 -36.5 -20t-14.5 -35v-29h-126zM127 0v145h157v-145h-157z" />
    <glyph glyph-name="at" unicode="@" horiz-adv-x="750" 
d="M414 -126q-90 0 -158 24t-114 72t-69 120t-23 168q0 129 39 217.5t116 134.5t191 46q94 0 158 -34t96.5 -91t32.5 -126v-151l47 -78l-110 -62l-36 47q-11 14 -23 3q-23 -21 -50.5 -33.5t-68.5 -12.5q-73 0 -115 42.5t-42 107.5q0 50 24 83.5t64.5 50.5t89.5 17h77
q-3 31 -20.5 53.5t-47 34.5t-70.5 12q-65 0 -110 -26.5t-68.5 -83t-23.5 -147.5q0 -86 28 -143.5t77.5 -85.5t112.5 -28q50 0 80.5 11.5t63.5 30.5l66 -102q-50 -35 -99 -53t-115 -18zM474 231q35 0 54.5 21.5t19.5 56.5v13q0 13 -18 8l-36 -11h-28q-24 0 -36 -11.5
t-12 -30.5q0 -20 15.5 -33t40.5 -13z" />
    <glyph glyph-name="A" unicode="A" 
d="M30 0l170 700h220l170 -700h-159l-105 497l-7 63q-1 9 -9 9t-9 -9l-7 -63l-105 -497h-159zM207 162l29 130h147l30 -130h-206zM95 570v130h120l-20 -130h-100z" />
    <glyph glyph-name="B" unicode="B" horiz-adv-x="592" 
d="M70 0v700h239q107 0 165.5 -49.5t58.5 -141.5q0 -50 -23 -88.5t-65 -58.5q51 -16 79 -59t28 -105q0 -94 -58 -146t-165 -52h-259zM215 130h114q38 0 58 19t20 56q0 35 -20 57.5t-58 22.5h-114v-155zM215 415h94q38 0 59 22.5t21 57.5q0 36 -21 55.5t-59 19.5h-94v-155z
" />
    <glyph glyph-name="C" unicode="C" horiz-adv-x="504" 
d="M320 -12q-75 0 -134 29t-95 81t-41 120q-2 29 -3.5 65t-1.5 67q0 32 1.5 67.5t3.5 64.5q5 68 39.5 120t91.5 81t129 29q51 0 88.5 -14t74.5 -42l-43 -119q-27 20 -49 27.5t-54 7.5q-52 0 -82.5 -26.5t-34.5 -71.5q-2 -35 -3.5 -64t-1.5 -60t1.5 -59.5t3.5 -64.5
q5 -46 33 -72t77 -25q36 0 59.5 10.5t47.5 25.5l47 -125q-36 -25 -71 -38.5t-83 -13.5z" />
    <glyph glyph-name="D" unicode="D" horiz-adv-x="602" 
d="M70 0v700h204q131 0 200 -62t78 -168q2 -27 3.5 -59t1.5 -61t-1.5 -61t-3.5 -59q-8 -106 -77.5 -168t-200.5 -62h-204zM230 130h44q65 0 95.5 35t35.5 86q3 30 3.5 51.5t0.5 47.5t-0.5 47t-3.5 52q-4 51 -35 86t-96 35h-44v-440z" />
    <glyph glyph-name="E" unicode="E" horiz-adv-x="550" 
d="M70 0v700h430v-140h-285v-145h268v-130h-268v-145h285v-140h-430z" />
    <glyph glyph-name="F" unicode="F" horiz-adv-x="530" 
d="M70 0v700h430v-140h-270v-140h253v-140h-253v-280h-160z" />
    <glyph glyph-name="G" unicode="G" horiz-adv-x="598" 
d="M314 -10q-119 -1 -186.5 56.5t-76.5 167.5q-2 29 -4 67t-2 69q0 32 1.5 69.5t4.5 66.5q13 111 86 168.5t189 57.5q114 0 196 -61l-49 -125q-31 28 -68.5 37t-78.5 9q-64 0 -93.5 -29t-34.5 -82q-2 -27 -3.5 -54t-1.5 -57t1.5 -57.5t3.5 -62.5q4 -49 31.5 -74t74.5 -26
q21 0 42 2t40 6v142h-68v140h260v-140h-62v-236q-31 -22 -80.5 -37t-121.5 -17z" />
    <glyph glyph-name="H" unicode="H" horiz-adv-x="640" 
d="M70 0v700h160v-280h180v280h160v-700h-160v280h-180v-280h-160z" />
    <glyph glyph-name="I" unicode="I" horiz-adv-x="443" 
d="M50 0v130h92v440h-92v130h343v-130h-92v-440h92v-130h-343z" />
    <glyph glyph-name="J" unicode="J" horiz-adv-x="479" 
d="M174 -12q-51 0 -88.5 13.5t-75.5 38.5l47 125q18 -11 34.5 -19.5t36.5 -12.5t46 -4q41 -1 63 21t22 70v350h-140v130h300v-480q0 -112 -66 -172t-179 -60z" />
    <glyph glyph-name="K" unicode="K" horiz-adv-x="586" 
d="M70 0v700h156v-285h57l114 285h169l-150 -340l145 -360h-167l-111 285h-57v-285h-156z" />
    <glyph glyph-name="L" unicode="L" horiz-adv-x="444" 
d="M70 0v700h160v-560h194v-140h-354z" />
    <glyph glyph-name="M" unicode="M" horiz-adv-x="680" 
d="M70 0v700h130l131 -247q3 -6 9 -6t9 6l131 247h130v-700h-150v290l14 88q2 8 -4.5 11t-11.5 -5l-96 -155h-52l-88 155q-4 8 -10.5 5t-5.5 -11l14 -88v-290h-150z" />
    <glyph glyph-name="N" unicode="N" horiz-adv-x="640" 
d="M70 0v700h130l219 -384q5 -7 11.5 -4t4.5 10l-15 88v290h150v-700h-130l-218 384q-4 8 -10.5 5t-5.5 -11l14 -88v-290h-150z" />
    <glyph glyph-name="O" unicode="O" horiz-adv-x="620" 
d="M310 -12q-52 0 -100.5 16.5t-85.5 53.5q-23 24 -41 56.5t-28 88t-10 147.5t10 147.5t28 88.5t41 56q37 37 85.5 53.5t100.5 16.5t100.5 -16.5t85.5 -53.5q24 -23 41.5 -56t27.5 -88.5t10 -147.5t-10 -147.5t-27.5 -88t-41.5 -56.5q-37 -37 -85.5 -53.5t-100.5 -16.5z
M310 129q42 0 69 26t30 72q2 29 3.5 60t1.5 63t-1.5 63.5t-3.5 59.5q-3 46 -30 72t-69 26t-69 -26t-30 -72q-2 -28 -3.5 -59.5t-1.5 -63.5t1.5 -63t3.5 -60q3 -46 30 -72t69 -26z" />
    <glyph glyph-name="P" unicode="P" horiz-adv-x="580" 
d="M70 0v700h265q100 0 157.5 -57t57.5 -157q0 -94 -57.5 -150t-157.5 -56h-106v-280h-159zM229 410h106q33 0 51.5 22.5t18.5 56.5q0 39 -18.5 60t-51.5 21h-106v-160z" />
    <glyph glyph-name="Q" unicode="Q" horiz-adv-x="620" 
d="M388 -115l-48 104q-7 -1 -14.5 -1h-15.5q-52 0 -100.5 16.5t-85.5 53.5q-23 24 -41 56.5t-28 88t-10 147.5t10 147.5t28 88.5t41 56q37 37 85.5 53.5t100.5 16.5t100.5 -16.5t85.5 -53.5q24 -23 41.5 -56t27.5 -88.5t10 -147.5t-10 -147.5t-27.5 -88t-41.5 -56.5
q-7 -7 -15.5 -14t-16.5 -12l46 -92zM297 119h8t8 1q10 2 10 10t-8 12l-54 30l-25 60l115 53l51 -109q8 10 12 24t5 27q2 29 3.5 60t1.5 63t-1.5 63.5t-3.5 59.5q-4 48 -33.5 74.5t-75.5 26.5t-75.5 -26.5t-33.5 -74.5q-2 -28 -3.5 -59.5t-1.5 -63.5q0 -34 1.5 -67t3.5 -60
q2 -26 15.5 -50t35 -39t45.5 -15z" />
    <glyph glyph-name="R" unicode="R" horiz-adv-x="600" 
d="M70 0v700h261q114 0 176.5 -55t62.5 -155q0 -67 -34 -117t-96 -75q-15 -6 -6 -21l35 -50l83 -227h-159l-103 280h-60v-280h-160zM229 410h108q43 0 67 21t24 59t-24 59t-67 21h-108v-160z" />
    <glyph glyph-name="S" unicode="S" horiz-adv-x="520" 
d="M246 -10q-68 0 -119.5 16t-101.5 48l46 126q47 -28 84.5 -40t86.5 -12q47 0 75 21t28 61q0 34 -20 55.5t-60 26.5l-37 5q-54 7 -98 30.5t-70 65t-26 102.5q0 66 28 114.5t83.5 75.5t139.5 27q66 0 115 -17t80 -40l-44 -118q-35 19 -71 28t-75 9q-58 0 -82 -21t-24 -48
q0 -29 16.5 -44.5t47.5 -19.5l40 -5q99 -11 153 -68t54 -151q0 -74 -29 -125t-84.5 -76.5t-135.5 -25.5z" />
    <glyph glyph-name="T" unicode="T" horiz-adv-x="510" 
d="M175 0v560h-155v140h470v-140h-155v-560h-160z" />
    <glyph glyph-name="U" unicode="U" horiz-adv-x="604" 
d="M302 -10q-71 0 -126 28.5t-85.5 79.5t-30.5 118v484h160v-487q0 -37 22.5 -59.5t59.5 -22.5q35 0 58.5 22.5t23.5 59.5v487h160l-3 -484q0 -67 -30.5 -118t-84 -79.5t-124.5 -28.5z" />
    <glyph glyph-name="V" unicode="V" horiz-adv-x="561" 
d="M172 0l-152 700h158l86 -473l6 -90q1 -9 8.5 -9t8.5 9l7 90l90 473h157l-156 -700h-213z" />
    <glyph glyph-name="W" unicode="W" horiz-adv-x="640" 
d="M107 0l-77 700h143l33 -300v-108q0 -11 7.5 -11t9.5 7l61 222h72l61 -222q2 -7 9.5 -7.5t7.5 11.5v108l33 300h143l-77 -700h-140l-64 247q-2 8 -9 8t-9 -8l-64 -247h-140z" />
    <glyph glyph-name="X" unicode="X" horiz-adv-x="570" 
d="M20 0l143 355l-143 345h169l76 -204l11 -78q2 -9 8 -9t9 9l12 78l76 204h169l-145 -345l145 -355h-169l-76 214l-12 78q-3 9 -9 9t-8 -9l-11 -78l-76 -214h-169z" />
    <glyph glyph-name="Y" unicode="Y" horiz-adv-x="508" 
d="M174 0v255l-174 445h161l74 -200l11 -78q2 -9 8 -9t9 9l12 78l74 200h159l-174 -445v-255h-160z" />
    <glyph glyph-name="Z" unicode="Z" horiz-adv-x="537" 
d="M35 0v98l251 422l35 32q6 6 4 12t-10 6h-135v-66h-145v196h467v-98l-250 -412l-35 -32q-6 -6 -4 -12t10 -6h279v-140h-467z" />
    <glyph glyph-name="bracketleft" unicode="[" horiz-adv-x="444" 
d="M90 -188v1069h264v-117h-114v-834h114v-118h-264z" />
    <glyph glyph-name="backslash" unicode="\" horiz-adv-x="485" 
d="M293 0l-263 700h160l265 -700h-162z" />
    <glyph glyph-name="bracketright" unicode="]" horiz-adv-x="444" 
d="M90 -188v118h114v834h-114v117h264v-1069h-264z" />
    <glyph glyph-name="asciicircum" unicode="^" horiz-adv-x="500" 
d="M10 350l147 400h183l150 -400h-158l-63 211l-11 57q-1 9 -8 9t-9 -9l-10 -57l-62 -211h-159z" />
    <glyph glyph-name="underscore" unicode="_" horiz-adv-x="548" 
d="M87 -250v70h374v-70h-374z" />
    <glyph glyph-name="grave" unicode="`" horiz-adv-x="390" 
d="M190 578l-140 172h150l140 -172h-150z" />
    <glyph glyph-name="a" unicode="a" horiz-adv-x="505" 
d="M370 -12l-32 43q-11 14 -23 3q-23 -18 -52.5 -30t-70.5 -12q-73 0 -115 42.5t-42 107.5q0 48 23.5 81t63.5 49.5t89 16.5h87v49q0 31 -22 47t-67 16q-34 0 -65 -11t-62 -29l-41 112q39 23 84 36t95 13q109 0 160.5 -51.5t51.5 -131.5v-200l53 -76zM224 97q35 0 54.5 21.5
t19.5 55.5v13q0 13 -18 8l-36 -11h-31q-24 0 -36 -10.5t-12 -29.5t17 -33t42 -14z" />
    <glyph glyph-name="b" unicode="b" horiz-adv-x="578" 
d="M140 -12l-115 75l53 75v612h150v-259q18 14 48 22.5t62 8.5q92 0 137 -42.5t53 -121.5q3 -29 4 -53t1 -48q0 -19 -1.5 -38.5t-3.5 -44.5q-7 -88 -61 -136t-149 -48q-33 0 -62.5 10.5t-58.5 31.5q-15 10 -25 -3zM305 116q37 0 54 16.5t19 39.5q4 42 4 83t-4 83
q-2 26 -20 42.5t-53 16.5q-40 0 -58.5 -19t-18.5 -53v-139q0 -31 20 -50.5t57 -19.5z" />
    <glyph glyph-name="c" unicode="c" horiz-adv-x="460" 
d="M278 -12q-102 0 -159.5 51t-67.5 127q-6 48 -6 90q0 21 1 43t5 47q11 77 67.5 126.5t156.5 49.5q48 0 87.5 -12.5t66.5 -35.5l-40 -110q-22 17 -46 26t-58 9q-42 0 -66.5 -21t-26.5 -53q-3 -38 -3 -69.5t3 -69.5q2 -31 27 -52.5t69 -21.5q26 0 51 7.5t53 24.5l38 -107
q-34 -26 -72.5 -37.5t-79.5 -11.5z" />
    <glyph glyph-name="d" unicode="d" horiz-adv-x="560" 
d="M231 -10q-87 0 -130.5 43t-50.5 121q-2 31 -3.5 55.5t-1.5 47.5q0 24 1 48t4 53q8 79 54 121.5t137 42.5q32 0 61.5 -8.5t47.5 -22.5v259h150v-750h-150v23q0 8 -5 11t-16 -3l-64 -37q-8 -2 -16.5 -3t-17.5 -1zM273 114q37 0 57 19.5t20 50.5v144q0 32 -18 50.5t-59 18.5
q-34 0 -52.5 -16.5t-20.5 -39.5q-4 -42 -4 -85.5t4 -85.5q2 -23 19 -39.5t54 -16.5z" />
    <glyph glyph-name="e" unicode="e" horiz-adv-x="514" 
d="M297 -10q-69 0 -121.5 22.5t-84.5 62t-40 88.5q-3 24 -4.5 44.5t-1.5 41.5q0 40 6 89q11 78 65.5 130t146.5 52q55 0 95.5 -16.5t67.5 -48t40 -78t13 -106.5l-21 -52h-382l-2 101h269q-2 21 -9 40t-23.5 31t-45.5 12q-41 0 -59.5 -26t-20.5 -71q-1 -26 -1.5 -52t1.5 -54
q5 -51 36.5 -69.5t75.5 -18.5q29 0 56 7.5t58 21.5l38 -107q-34 -22 -72.5 -33t-79.5 -11z" />
    <glyph glyph-name="f" unicode="f" horiz-adv-x="390" 
d="M106 0v386h-86v124h86v56q0 59 27.5 101t77 64t116.5 22q49 0 91.5 -14t71.5 -39l-47 -102q-23 16 -48 22.5t-46 6.5q-52 0 -72.5 -17t-20.5 -44v-56h104v-124h-104v-386h-150z" />
    <glyph glyph-name="g" unicode="g" horiz-adv-x="559" 
d="M257 -214q-37 0 -64.5 4t-54 14t-62.5 27l42 108q30 -15 49 -22t38.5 -9t52.5 -2q41 0 66.5 23t25.5 73v22q0 8 -6 10.5t-14 -2.5l-67 -39q-9 -1 -19.5 -2t-23.5 -1q-73 0 -118 43t-52 121q-3 31 -4 55.5t-1 47.5q0 24 1 48t4 53q7 79 53 121.5t137 42.5q32 0 61.5 -12
t47.5 -29v29h150v-534q0 -48 -29 -91.5t-83 -71t-130 -27.5zM272 113q37 0 57 19.5t20 50.5v145q0 32 -18 50.5t-59 18.5q-34 0 -52 -16.5t-20 -39.5q-4 -43 -4 -86.5t4 -85.5q2 -23 18.5 -39.5t53.5 -16.5z" />
    <glyph glyph-name="h" unicode="h" horiz-adv-x="563" 
d="M65 0v750h146v-258q26 14 56 22t65 8q45 0 84 -17t63 -51.5t24 -87.5v-366h-150v305q0 43 -14 62.5t-55 19.5q-40 0 -56.5 -19.5t-16.5 -62.5v-305h-146z" />
    <glyph glyph-name="i" unicode="i" horiz-adv-x="325" 
d="M110 0v386h-90v124h240v-510h-150zM110 578v122h150v-122h-150z" />
    <glyph glyph-name="j" unicode="j" horiz-adv-x="325" 
d="M44 -222l-34 131q47 11 73.5 33.5t26.5 65.5v379h-90v123h240v-496q0 -60 -19 -103.5t-51 -72t-70 -43t-76 -17.5zM110 578v122h149v-122h-149z" />
    <glyph glyph-name="k" unicode="k" horiz-adv-x="523" 
d="M65 0v750h146v-397h37l86 158h164l-125 -220l130 -291h-162l-93 223h-37v-223h-146z" />
    <glyph glyph-name="l" unicode="l" horiz-adv-x="306" 
d="M185 1q-52 0 -86 33.5t-34 85.5v630h146v-604q0 -7 4.5 -11.5t11.5 -4.5h54v-129h-96z" />
    <glyph glyph-name="m" unicode="m" horiz-adv-x="855" 
d="M65 0v510h142v-38q14 17 48.5 33.5t78.5 16.5t73.5 -10.5t63.5 -38.5q13 16 37 27t52.5 16.5t53.5 5.5q49 0 90 -18.5t66 -55.5t25 -93v-355h-150v323q0 33 -16 48t-52 15q-37 0 -54.5 -15t-17.5 -48v-323h-150v323q0 33 -16 48t-52 15q-37 0 -54.5 -15t-17.5 -48v-323
h-150z" />
    <glyph glyph-name="n" unicode="n" horiz-adv-x="567" 
d="M65 0v510h150v-28q26 20 56 30t65 10q45 0 84 -16.5t63 -51t24 -88.5v-366h-150v314q0 38 -14 55t-55 17q-40 0 -56.5 -17t-16.5 -55v-314h-150z" />
    <glyph glyph-name="o" unicode="o" horiz-adv-x="549" 
d="M274 -12q-99 0 -156 50.5t-67 126.5q-6 48 -6 88q0 23 1 45t5 47q11 76 67.5 126.5t155.5 50.5t156.5 -50t67.5 -127q6 -49 6 -92q0 -40 -6 -88q-11 -76 -68 -126.5t-156 -50.5zM274 112q38 0 58 22.5t24 52.5q5 37 5 67.5t-4 67.5q-3 32 -24 54.5t-59 22.5
q-37 0 -58 -22.5t-24 -54.5q-4 -37 -3.5 -67.5t4.5 -66.5q3 -31 23.5 -53.5t57.5 -22.5z" />
    <glyph glyph-name="p" unicode="p" horiz-adv-x="565" 
d="M65 -200v710h150v-29q18 17 47.5 29t61.5 12q92 0 137.5 -42.5t53.5 -121.5q3 -29 4 -53t1 -48q0 -23 -1.5 -47.5t-3.5 -55.5q-7 -78 -50.5 -121t-130.5 -43q-9 0 -17.5 1t-16.5 3l-64 37q-10 6 -15.5 3t-5.5 -11v-223h-150zM292 114q37 0 54 16.5t19 39.5q4 42 4 85.5
t-4 85.5q-2 23 -20 39.5t-53 16.5q-40 0 -58.5 -18.5t-18.5 -50.5v-144q0 -31 20 -50.5t57 -19.5z" />
    <glyph glyph-name="q" unicode="q" horiz-adv-x="565" 
d="M350 -200v223q0 8 -5 11t-16 -3l-64 -37q-8 -2 -16.5 -3t-17.5 -1q-87 0 -130.5 43t-50.5 121q-2 31 -3.5 55.5t-1.5 47.5q0 24 1 48t4 53q8 79 54 121.5t137 42.5q32 0 61.5 -12t47.5 -29v29h150v-710h-150zM273 114q37 0 57 19.5t20 50.5v144q0 32 -18 50.5t-59 18.5
q-34 0 -52.5 -16.5t-20.5 -39.5q-4 -42 -4 -85.5t4 -85.5q2 -23 19 -39.5t54 -16.5z" />
    <glyph glyph-name="r" unicode="r" horiz-adv-x="407" 
d="M80 0v355l-60 88l120 79l38 -56q5 -7 11 -7.5t13 6.5q26 22 66 39.5t102 17.5h17v-132q-88 0 -124.5 -30.5t-36.5 -88.5v-271h-146z" />
    <glyph glyph-name="s" unicode="s" horiz-adv-x="476" 
d="M234 -11q-59 0 -102 13.5t-92 43.5l42 108q34 -21 58.5 -30.5t46.5 -12t48 -2.5q38 0 54 13.5t16 32.5q0 16 -10 27.5t-36 12.5l-54 3q-72 4 -118.5 39t-46.5 113q0 83 55.5 127.5t146.5 44.5q57 0 98.5 -10t81.5 -36l-42 -108q-32 21 -64 28t-73 7q-37 0 -55 -12.5
t-18 -30.5q0 -16 11.5 -25t34.5 -11l55 -3q74 -4 119.5 -41t45.5 -114q0 -88 -55 -132.5t-147 -44.5z" />
    <glyph glyph-name="t" unicode="t" horiz-adv-x="377" 
d="M219 1q-52 0 -86 33.5t-34 85.5v270h-79v120h63q10 0 14.5 5.5t8.5 24t11 56.5l6 34h122v-120h83v-120h-83v-244q0 -7 4.5 -11.5t11.5 -4.5h76v-129h-118z" />
    <glyph glyph-name="u" unicode="u" horiz-adv-x="567" 
d="M231 -10q-44 0 -83.5 17t-63.5 51.5t-24 86.5v366h150v-314q0 -37 14 -54.5t55 -17.5t57 17.5t16 54.5v314h150v-511h-152v23q0 8 -5 11t-16 -3l-64 -37q-15 -4 -34 -4z" />
    <glyph glyph-name="v" unicode="v" horiz-adv-x="494" 
d="M140 0l-120 510h147l63 -318l8 -78q1 -9 8.5 -9t8.5 9l8 78l64 318h147l-121 -510h-213z" />
    <glyph glyph-name="w" unicode="w" horiz-adv-x="680" 
d="M120 0l-80 510h140l30 -220v-88q0 -11 7.5 -11t9.5 7l77 312h72l77 -312q2 -7 9.5 -7.5t7.5 11.5v88l30 220h140l-80 -510h-135l-76 237q-2 8 -9 8t-9 -8l-76 -237h-135z" />
    <glyph glyph-name="x" unicode="x" horiz-adv-x="508" 
d="M20 0l123 255l-123 255h156l59 -140l11 -48q2 -9 8 -9t9 9l12 48l59 140h154l-123 -255l123 -255h-154l-59 140l-12 48q-3 9 -9 9t-8 -9l-11 -48l-59 -140h-156z" />
    <glyph glyph-name="y" unicode="y" horiz-adv-x="483" 
d="M68 -214l-36 127q53 5 86.5 29t43.5 60l15 54l-167 454h153l62 -217l10 -93q1 -9 8.5 -9t8.5 9l11 93l50 217h150l-165 -553q-21 -74 -82.5 -121t-147.5 -50z" />
    <glyph glyph-name="z" unicode="z" horiz-adv-x="479" 
d="M45 0v104l185 242l33 28q8 7 6 11.5t-9 4.5h-215v120h389v-103l-186 -243l-33 -28q-8 -7 -6 -11.5t9 -4.5h216v-120h-389z" />
    <glyph glyph-name="braceleft" unicode="{" horiz-adv-x="557" 
d="M397 -189q-91 0 -145.5 47t-55.5 153l-1 185q0 36 -20 58.5t-56 23.5l-29 1v134l29 1q36 2 56 24t20 58l1 185q1 107 55.5 153.5t145.5 46.5h70v-117h-50q-37 0 -51.5 -21.5t-14.5 -61.5v-195q0 -49 -12.5 -74t-34.5 -46l-42 -12q-9 -3 -9 -8t9 -8l42 -12
q22 -22 34.5 -48.5t12.5 -81.5v-185q0 -40 14.5 -61.5t51.5 -21.5h50v-117h-70z" />
    <glyph glyph-name="bar" unicode="|" horiz-adv-x="340" 
d="M90 -150v1000h160v-1000h-160z" />
    <glyph glyph-name="braceright" unicode="}" horiz-adv-x="557" 
d="M90 -189v117h50q38 0 52 21.5t14 61.5v175q0 59 12.5 87.5t34.5 52.5l42 12q9 3 9 8t-9 8l-42 12q-22 23 -34.5 50.5t-12.5 79.5v185q0 40 -14 61.5t-52 21.5h-50v117h70q91 0 145.5 -46.5t55.5 -153.5l1 -185q0 -36 20 -58t56 -24l29 -1v-134l-29 -1q-36 -1 -56 -23.5
t-20 -58.5l-1 -185q-1 -106 -55.5 -153t-145.5 -47h-70z" />
    <glyph glyph-name="asciitilde" unicode="~" horiz-adv-x="600" 
d="M396 184q-40 0 -65.5 8.5t-46 19.5t-41.5 19.5t-52 8.5q-33 0 -58.5 -11t-48.5 -30l-61 101q38 34 83 47.5t88 13.5q40 0 66 -8.5t46 -19.5t42 -19.5t53 -8.5q34 0 60 11t48 30l61 -101q-35 -31 -80.5 -46t-93.5 -15z" />
    <glyph glyph-name="uni00A0" unicode="&#xa0;" horiz-adv-x="300" 
 />
    <glyph glyph-name="exclamdown" unicode="&#xa1;" horiz-adv-x="311" 
d="M215 280l36 -470h-191l35 470h120zM233 510v-145h-157v145h157z" />
    <glyph glyph-name="cent" unicode="&#xa2;" horiz-adv-x="460" 
d="M177 -117v122q-55 21 -87 63.5t-39 97.5q-6 48 -6 90q0 21 1 43t5 47q8 56 39.5 98t86.5 62v121h140v-108q35 -4 63 -16t49 -29l-40 -110q-22 17 -46 26t-58 9q-42 0 -66.5 -21t-26.5 -53q-3 -38 -3 -69.5t3 -69.5q2 -31 27 -52.5t69 -21.5q26 0 51 7.5t53 24.5l38 -107
q-25 -20 -54 -31t-59 -15v-108h-140z" />
    <glyph glyph-name="sterling" unicode="&#xa3;" horiz-adv-x="603" 
d="M70 0v126q41 13 65 46.5t24 80.5v29h-86v136h86v108q0 59 27.5 101t77 64t116.5 22q49 0 91.5 -14t71.5 -39l-57 -102q-19 17 -41 23t-43 6q-52 0 -72.5 -17t-20.5 -44v-108h227v-136h-227v-16q-1 -40 -9 -65.5t-24 -42.5q-7 -8 -4 -15t14 -7h250v-136h-466z" />
    <glyph glyph-name="yen" unicode="&#xa5;" horiz-adv-x="608" 
d="M224 0v190h-150v124h153v-67l-54 139h-99v124h50l-74 190h161l74 -200l11 -78q2 -9 9 -9t8 9l12 78l74 200h159l-74 -190h50v-124h-99l-54 -139v67h153v-124h-150v-190h-160z" />
    <glyph glyph-name="section" unicode="&#xa7;" horiz-adv-x="542" 
d="M264 -11q-59 0 -102 13.5t-92 43.5l42 108q34 -21 58.5 -30.5t46.5 -12t48 -2.5q38 0 54 13.5t16 32.5q0 16 -10 27.5t-36 12.5l-54 3q-72 4 -118.5 42.5t-46.5 116.5q0 34 9.5 61t26.5 48q-14 18 -22 42t-8 55q0 83 55.5 127.5t146.5 44.5q57 0 98.5 -10t81.5 -36
l-42 -108q-32 21 -64 28t-73 7q-37 0 -55 -12.5t-18 -30.5q0 -16 11.5 -25t34.5 -11l55 -3q74 -4 119.5 -41t45.5 -114q0 -71 -37 -114q31 -37 31 -99q0 -88 -55 -132.5t-147 -44.5zM270 324q44 0 57.5 10t13.5 33q0 20 -13.5 30t-57.5 11q-42 -1 -56 -11t-14 -30
q0 -23 14.5 -32t55.5 -11z" />
    <glyph glyph-name="dieresis" unicode="&#xa8;" horiz-adv-x="438" 
d="M254 578v122h134v-122h-134zM50 578v122h134v-122h-134z" />
    <glyph glyph-name="copyright" unicode="&#xa9;" horiz-adv-x="966" 
d="M483 -66q-85 0 -160 32t-132 89t-89 132t-32 160q0 86 32 160.5t89 131.5t132 89t160 32q86 0 160.5 -32t131.5 -89t89 -131.5t32 -160.5q0 -85 -32 -160t-89 -132t-131.5 -89t-160.5 -32zM482 78q-68 0 -115.5 24t-77.5 64.5t-44 89.5q-7 24 -9 46.5t-2 43.5t2 43t9 47
q15 49 44.5 88.5t76.5 63.5t113 24q48 0 92.5 -12.5t71.5 -35.5l-40 -110q-22 17 -51 26t-63 9q-28 0 -50 -10t-35.5 -26.5t-17.5 -37.5q-7 -38 -7 -69.5t7 -69.5q4 -21 17.5 -37.5t36.5 -26.5t52 -10q26 0 56 7.5t58 24.5l38 -107q-34 -26 -77.5 -37.5t-84.5 -11.5zM483 9
q70 0 131.5 26t108 72.5t73 108t26.5 131.5t-26.5 131.5t-73 108t-108 73t-131.5 26.5t-131 -26.5t-107.5 -73t-73 -108t-26.5 -131.5t26.5 -131.5t73 -108t107.5 -72.5t131 -26z" />
    <glyph glyph-name="ordfeminine" unicode="&#xaa;" horiz-adv-x="451" 
d="M325 350l-27 36q-9 12 -21 3q-19 -15 -44.5 -25t-59.5 -10q-62 0 -97.5 37t-35.5 93q0 62 44.5 94.5t107.5 32.5h67v38q0 25 -18 37t-54 12q-27 0 -53.5 -9.5t-52.5 -23.5l-38 103q34 19 73 30.5t82 11.5q95 0 140.5 -45.5t45.5 -115.5v-173l42 -69zM205 450
q26 0 40 17.5t14 45.5v6q0 10 -15 5l-26 -9h-25q-17 0 -25 -8t-8 -22t13 -24.5t32 -10.5z" />
    <glyph glyph-name="guillemotleft" unicode="&#xab;" horiz-adv-x="675" 
d="M461 50l-141 135v100l141 135h164l-145 -142l-56 -35q-13 -8 0 -16l56 -35l145 -142h-164zM191 50l-141 135v100l141 135h164l-145 -142l-56 -35q-13 -8 0 -16l56 -35l145 -142h-164z" />
    <glyph glyph-name="logicalnot" unicode="&#xac;" horiz-adv-x="600" 
d="M394 100v182h-324v136h460v-318h-136z" />
    <glyph glyph-name="registered" unicode="&#xae;" horiz-adv-x="966" 
d="M483 -66q-85 0 -160 32t-132 89t-89 132t-32 160q0 86 32 160.5t89 131.5t132 89t160 32q86 0 160.5 -32t131.5 -89t89 -131.5t32 -160.5q0 -85 -32 -160t-89 -132t-131.5 -89t-160.5 -32zM483 9q70 0 131.5 26t108 72.5t73 108t26.5 131.5t-26.5 131.5t-73 108t-108 73
t-131.5 26.5t-131 -26.5t-107.5 -73t-73 -108t-26.5 -131.5t26.5 -131.5t73 -108t107.5 -72.5t131 -26zM297 97v500h240q82 0 122.5 -47t40.5 -121q0 -64 -19 -102t-62 -52q-8 -3 -2 -13l19 -31l57 -134h-162l-69 161h-25v-161h-140zM436 383h74q20 0 30.5 12t10.5 30
t-10.5 30.5t-30.5 12.5h-74v-85z" />
    <glyph glyph-name="macron" unicode="&#xaf;" horiz-adv-x="401" 
d="M50 576v114h301v-114h-301z" />
    <glyph glyph-name="degree" unicode="&#xb0;" horiz-adv-x="482" 
d="M242 393q-46 0 -86.5 16t-66 56.5t-25.5 111.5q0 72 26 112t67 55.5t85 15.5t84 -15.5t66 -55.5t26 -112q0 -73 -26 -112.5t-66 -55.5t-84 -16zM240 491q19 0 34 5.5t24 24t9 56.5t-9 56t-24 23.5t-34 5.5q-29 0 -47 -16.5t-18 -68.5q0 -38 9 -56.5t24 -24t32 -5.5z" />
    <glyph glyph-name="plusminus" unicode="&#xb1;" horiz-adv-x="640" 
d="M252 208v152h-182v136h182v152h136v-152h182v-136h-182v-152h-136zM90 2v136h460v-136h-460z" />
    <glyph glyph-name="uni00B2" unicode="&#xb2;" horiz-adv-x="421" 
d="M45 350v101q0 55 26.5 94t87.5 67l52 24q26 12 32 20.5t6 16.5q0 11 -11 17.5t-41 6.5q-21 0 -48 -4.5t-63 -16.5l-37 102q41 19 79.5 25.5t82.5 6.5q40 0 80.5 -13t67.5 -43t27 -80q0 -37 -16 -66.5t-67 -55.5l-71 -37q-20 -10 -32.5 -17.5t-17.5 -13.5t-5 -12v-1h200
v-121h-332z" />
    <glyph glyph-name="uni00B3" unicode="&#xb3;" horiz-adv-x="414" 
d="M187 343q-46 0 -86.5 9.5t-80.5 37.5l40 110q33 -25 62 -32t61 -7q29 0 46 7.5t17 23.5q0 11 -15 22t-56 11h-49v103h49q38 0 51 9t13 22q0 16 -18.5 26.5t-58.5 10.5q-19 0 -44.5 -4t-53.5 -17l-36 101q38 23 75 29t77 6q44 0 87 -14t71.5 -44t28.5 -79q0 -37 -14 -57.5
t-42 -39.5q29 -16 46 -36t17 -58q0 -46 -28 -77t-71 -47t-88 -16z" />
    <glyph glyph-name="acute" unicode="&#xb4;" horiz-adv-x="390" 
d="M47 578l140 172h150l-140 -172h-150z" />
    <glyph glyph-name="uni00B5" unicode="&#xb5;" horiz-adv-x="572" 
d="M60 -164v675h150v-314q0 -37 14 -54.5t55 -17.5t57 17.5t16 54.5v314h150v-511h-152v23q0 8 -5 11t-16 -3l-64 -37q-15 -4 -34 -4h-10.5t-10.5 1v-155h-150z" />
    <glyph glyph-name="paragraph" unicode="&#xb6;" horiz-adv-x="817" 
d="M271 -250v505q-52 0 -98 19.5t-74.5 68.5t-28.5 135q0 65 17 108t46 68t65 35.5t73 10.5h480v-136h-80v-814h-160v814h-80v-814h-160z" />
    <glyph glyph-name="periodcentered" unicode="&#xb7;" horiz-adv-x="297" 
d="M70 192v150h157v-150h-157z" />
    <glyph glyph-name="cedilla" unicode="&#xb8;" horiz-adv-x="339" 
d="M50 -260l22 82q55 0 86.5 10.5t31.5 27.5q0 16 -23 21t-82 5l37 149l79 -29l-13 -49q47 -7 74 -32t27 -60q0 -42 -31 -70.5t-84.5 -42t-123.5 -12.5z" />
    <glyph glyph-name="uni00B9" unicode="&#xb9;" horiz-adv-x="414" 
d="M74 350v111h93v219h-112v85l254 48l-2 -352h82v-111h-315z" />
    <glyph glyph-name="ordmasculine" unicode="&#xba;" horiz-adv-x="474" 
d="M237 344q-82 0 -132.5 44t-55.5 111q-1 21 -2.5 40.5t-1.5 37.5q0 20 1 39t3 41q9 67 57.5 111.5t130.5 44.5t133 -44t55 -112q2 -21 3 -40.5t1 -39.5q0 -18 -0.5 -37.5t-3.5 -40.5q-9 -64 -57.5 -109.5t-130.5 -45.5zM237 462q25 0 37 18.5t15 42.5q5 31 4.5 56t-3.5 56
q-2 26 -15 44.5t-38 18.5t-37.5 -18.5t-15.5 -44.5q-3 -31 -1.5 -56t2.5 -55q2 -26 14.5 -44t37.5 -18z" />
    <glyph glyph-name="guillemotright" unicode="&#xbb;" horiz-adv-x="675" 
d="M320 50l145 142l56 35q13 8 0 16l-56 35l-145 142h164l141 -135v-100l-141 -135h-164zM50 50l145 142l56 35q13 8 0 16l-56 35l-145 142h164l141 -135v-100l-141 -135h-164z" />
    <glyph glyph-name="onequarter" unicode="&#xbc;" horiz-adv-x="1095" 
d="M74 245v111h93v219h-112v85l254 48l-2 -352h82v-111h-315zM354 0l265 700h160l-263 -700h-162zM900 0v101h-221v59l143 295h137l-125 -249h66v119h125v-325h-125z" />
    <glyph glyph-name="onehalf" unicode="&#xbd;" horiz-adv-x="1100" 
d="M74 245v111h93v219h-112v85l254 48l-2 -352h82v-111h-315zM354 0l265 700h160l-263 -700h-162zM724 0v101q0 55 26.5 94t87.5 67l52 24q26 12 32 20.5t6 16.5q0 11 -11 17.5t-41 6.5q-21 0 -48 -4.5t-63 -16.5l-37 102q41 19 79.5 25.5t82.5 6.5q40 0 80.5 -13t67.5 -43
t27 -80q0 -37 -16 -66.5t-67 -55.5l-71 -37q-20 -10 -32.5 -17.5t-17.5 -13.5t-5 -12v-1h200v-121h-332z" />
    <glyph glyph-name="threequarters" unicode="&#xbe;" horiz-adv-x="1065" 
d="M187 238q-46 0 -86.5 9.5t-80.5 37.5l40 110q33 -25 62 -32t61 -7q29 0 46 7.5t17 23.5q0 11 -15 22t-56 11h-49v103h49q38 0 51 9t13 22q0 16 -18.5 26.5t-58.5 10.5q-19 0 -44.5 -4t-53.5 -17l-36 101q38 23 75 29t77 6q44 0 87 -14t71.5 -44t28.5 -79q0 -37 -14 -57.5
t-42 -39.5q29 -16 46 -36t17 -58q0 -46 -28 -77t-71 -47t-88 -16zM324 0l265 700h160l-263 -700h-162zM870 0v101h-221v59l143 295h137l-125 -249h66v119h125v-325h-125z" />
    <glyph glyph-name="questiondown" unicode="&#xbf;" horiz-adv-x="497" 
d="M355 280q3 -25 3.5 -33.5t0.5 -13.5q0 -43 -22.5 -79.5t-66.5 -55.5l-47 -23q-16 -8 -30 -21t-14 -44q0 -28 14.5 -44.5t37.5 -23.5t48 -7q29 0 53 4.5t46.5 13t44.5 21.5l44 -119q-39 -26 -88 -41.5t-104 -15.5q-71 0 -126.5 24t-87 71.5t-31.5 116.5q0 48 17 80.5
t43.5 54t54.5 34.5l33 17q23 8 37 20.5t14 34.5v29h126zM370 510v-145h-157v145h157z" />
    <glyph glyph-name="Agrave" unicode="&#xc0;" 
d="M30 0l170 700h220l170 -700h-159l-105 497l-7 63q-1 9 -9 9t-9 -9l-7 -63l-105 -497h-159zM207 162l29 130h147l30 -130h-206zM95 570v130h120l-20 -130h-100zM265 768l-140 172h150l140 -172h-150z" />
    <glyph glyph-name="Aacute" unicode="&#xc1;" 
d="M30 0l170 700h220l170 -700h-159l-105 497l-7 63q-1 9 -9 9t-9 -9l-7 -63l-105 -497h-159zM207 162l29 130h147l30 -130h-206zM95 570v130h120l-20 -130h-100zM205 768l140 172h150l-140 -172h-150z" />
    <glyph glyph-name="Acircumflex" unicode="&#xc2;" 
d="M30 0l170 700h220l170 -700h-159l-105 497l-7 63q-1 9 -9 9t-9 -9l-7 -63l-105 -497h-159zM207 162l29 130h147l30 -130h-206zM95 570v130h120l-20 -130h-100zM145 768l90 172h150l90 -172h-120l-30 56l-10 34q-3 7 -6 7t-6 -7l-10 -34l-28 -56h-120z" />
    <glyph glyph-name="Atilde" unicode="&#xc3;" 
d="M30 0l170 700h220l170 -700h-159l-105 497l-7 63q-1 9 -9 9t-9 -9l-7 -63l-105 -497h-159zM207 162l29 130h147l30 -130h-206zM95 570v130h120l-20 -130h-100zM170 754l-40 92q21 23 47 33.5t59 10.5q38 0 60 -8.5t40 -17t42 -8.5q23 0 40.5 9.5t31.5 25.5l40 -92
q-21 -22 -47 -33t-59 -11q-37 0 -59.5 8.5t-40.5 17t-42 8.5q-22 0 -40 -9.5t-32 -25.5z" />
    <glyph glyph-name="Adieresis" unicode="&#xc4;" 
d="M30 0l170 700h220l170 -700h-159l-105 497l-7 63q-1 9 -9 9t-9 -9l-7 -63l-105 -497h-159zM207 162l29 130h147l30 -130h-206zM95 570v130h120l-20 -130h-100zM345 768v122h134v-122h-134zM141 768v122h134v-122h-134z" />
    <glyph glyph-name="Aring" unicode="&#xc5;" 
d="M30 0l170 700h220l170 -700h-159l-105 497l-7 63q-1 9 -9 9t-9 -9l-7 -63l-105 -497h-159zM207 162l29 130h147l30 -130h-206zM95 570v130h120l-20 -130h-100zM311 751q-41 0 -77 10.5t-58.5 35.5t-22.5 68q0 44 23 68.5t59.5 34.5t75.5 10t74.5 -10t58.5 -34.5t23 -68.5
t-23 -69t-58.5 -35t-74.5 -10zM309 824q24 0 40.5 7.5t16.5 33.5t-16.5 33t-40.5 7q-25 0 -40 -7.5t-15 -32.5q0 -26 16.5 -33.5t38.5 -7.5z" />
    <glyph glyph-name="AE" unicode="&#xc6;" horiz-adv-x="870" 
d="M30 0l137 565h-72v135h725v-135h-285v-150h268v-130h-268v-145h285v-140h-430v162h-167l-34 -162h-159zM251 292h139v273h-81z" />
    <glyph glyph-name="Ccedilla" unicode="&#xc7;" horiz-adv-x="504" 
d="M320 -12q-75 0 -134 29t-95 81t-41 120q-2 29 -3.5 65t-1.5 67q0 32 1.5 67.5t3.5 64.5q5 68 39.5 120t91.5 81t129 29q51 0 88.5 -14t74.5 -42l-43 -119q-27 20 -49 27.5t-54 7.5q-52 0 -82.5 -26.5t-34.5 -71.5q-2 -35 -3.5 -64t-1.5 -60t1.5 -59.5t3.5 -64.5
q5 -46 33 -72t77 -25q36 0 59.5 10.5t47.5 25.5l47 -125q-36 -25 -71 -38.5t-83 -13.5zM150 -260l22 82q55 0 86.5 10.5t31.5 27.5q0 16 -23 21t-82 5l37 149l79 -29l-13 -49q47 -7 74 -32t27 -60q0 -42 -31 -70.5t-84.5 -42t-123.5 -12.5z" />
    <glyph glyph-name="Egrave" unicode="&#xc8;" horiz-adv-x="550" 
d="M70 0v700h430v-140h-285v-145h268v-130h-268v-145h285v-140h-430zM250 768l-140 172h150l140 -172h-150z" />
    <glyph glyph-name="Eacute" unicode="&#xc9;" horiz-adv-x="550" 
d="M70 0v700h430v-140h-285v-145h268v-130h-268v-145h285v-140h-430zM190 768l140 172h150l-140 -172h-150z" />
    <glyph glyph-name="Ecircumflex" unicode="&#xca;" horiz-adv-x="550" 
d="M70 0v700h430v-140h-285v-145h268v-130h-268v-145h285v-140h-430zM130 768l90 172h150l90 -172h-120l-30 56l-10 34q-3 7 -6 7t-6 -7l-10 -34l-28 -56h-120z" />
    <glyph glyph-name="Edieresis" unicode="&#xcb;" horiz-adv-x="550" 
d="M70 0v700h430v-140h-285v-145h268v-130h-268v-145h285v-140h-430zM330 768v122h134v-122h-134zM126 768v122h134v-122h-134z" />
    <glyph glyph-name="Igrave" unicode="&#xcc;" horiz-adv-x="443" 
d="M50 0v130h92v440h-92v130h343v-130h-92v-440h92v-130h-343zM177 768l-140 172h150l140 -172h-150z" />
    <glyph glyph-name="Iacute" unicode="&#xcd;" horiz-adv-x="443" 
d="M50 0v130h92v440h-92v130h343v-130h-92v-440h92v-130h-343zM117 768l140 172h150l-140 -172h-150z" />
    <glyph glyph-name="Icircumflex" unicode="&#xce;" horiz-adv-x="443" 
d="M50 0v130h92v440h-92v130h343v-130h-92v-440h92v-130h-343zM57 768l90 172h150l90 -172h-120l-30 56l-10 34q-3 7 -6 7t-6 -7l-10 -34l-28 -56h-120z" />
    <glyph glyph-name="Idieresis" unicode="&#xcf;" horiz-adv-x="443" 
d="M50 0v130h92v440h-92v130h343v-130h-92v-440h92v-130h-343zM257 768v122h134v-122h-134zM53 768v122h134v-122h-134z" />
    <glyph glyph-name="Eth" unicode="&#xd0;" horiz-adv-x="622" 
d="M0 293v114h340v-114h-340zM90 0v700h204q131 0 200 -62t78 -168q2 -27 3.5 -59t1.5 -61t-1.5 -61t-3.5 -59q-8 -106 -77.5 -168t-200.5 -62h-204zM250 130h44q65 0 95.5 35t35.5 86q3 30 3.5 51.5t0.5 47.5t-0.5 47t-3.5 52q-4 51 -35 86t-96 35h-44v-440z" />
    <glyph glyph-name="Ntilde" unicode="&#xd1;" horiz-adv-x="640" 
d="M70 0v700h130l219 -384q5 -7 11.5 -4t4.5 10l-15 88v290h150v-700h-130l-218 384q-4 8 -10.5 5t-5.5 -11l14 -88v-290h-150zM180 754l-40 92q21 23 47 33.5t59 10.5q38 0 60 -8.5t40 -17t42 -8.5q23 0 40.5 9.5t31.5 25.5l40 -92q-21 -22 -47 -33t-59 -11
q-37 0 -59.5 8.5t-40.5 17t-42 8.5q-22 0 -40 -9.5t-32 -25.5z" />
    <glyph glyph-name="Ograve" unicode="&#xd2;" horiz-adv-x="620" 
d="M310 -12q-52 0 -100.5 16.5t-85.5 53.5q-23 24 -41 56.5t-28 88t-10 147.5t10 147.5t28 88.5t41 56q37 37 85.5 53.5t100.5 16.5t100.5 -16.5t85.5 -53.5q24 -23 41.5 -56t27.5 -88.5t10 -147.5t-10 -147.5t-27.5 -88t-41.5 -56.5q-37 -37 -85.5 -53.5t-100.5 -16.5z
M310 129q42 0 69 26t30 72q2 29 3.5 60t1.5 63t-1.5 63.5t-3.5 59.5q-3 46 -30 72t-69 26t-69 -26t-30 -72q-2 -28 -3.5 -59.5t-1.5 -63.5t1.5 -63t3.5 -60q3 -46 30 -72t69 -26zM265 768l-140 172h150l140 -172h-150z" />
    <glyph glyph-name="Oacute" unicode="&#xd3;" horiz-adv-x="620" 
d="M310 -12q-52 0 -100.5 16.5t-85.5 53.5q-23 24 -41 56.5t-28 88t-10 147.5t10 147.5t28 88.5t41 56q37 37 85.5 53.5t100.5 16.5t100.5 -16.5t85.5 -53.5q24 -23 41.5 -56t27.5 -88.5t10 -147.5t-10 -147.5t-27.5 -88t-41.5 -56.5q-37 -37 -85.5 -53.5t-100.5 -16.5z
M310 129q42 0 69 26t30 72q2 29 3.5 60t1.5 63t-1.5 63.5t-3.5 59.5q-3 46 -30 72t-69 26t-69 -26t-30 -72q-2 -28 -3.5 -59.5t-1.5 -63.5t1.5 -63t3.5 -60q3 -46 30 -72t69 -26zM205 768l140 172h150l-140 -172h-150z" />
    <glyph glyph-name="Ocircumflex" unicode="&#xd4;" horiz-adv-x="620" 
d="M310 -12q-52 0 -100.5 16.5t-85.5 53.5q-23 24 -41 56.5t-28 88t-10 147.5t10 147.5t28 88.5t41 56q37 37 85.5 53.5t100.5 16.5t100.5 -16.5t85.5 -53.5q24 -23 41.5 -56t27.5 -88.5t10 -147.5t-10 -147.5t-27.5 -88t-41.5 -56.5q-37 -37 -85.5 -53.5t-100.5 -16.5z
M310 129q42 0 69 26t30 72q2 29 3.5 60t1.5 63t-1.5 63.5t-3.5 59.5q-3 46 -30 72t-69 26t-69 -26t-30 -72q-2 -28 -3.5 -59.5t-1.5 -63.5t1.5 -63t3.5 -60q3 -46 30 -72t69 -26zM145 768l90 172h150l90 -172h-120l-30 56l-10 34q-3 7 -6 7t-6 -7l-10 -34l-28 -56h-120z" />
    <glyph glyph-name="Otilde" unicode="&#xd5;" horiz-adv-x="620" 
d="M310 -12q-52 0 -100.5 16.5t-85.5 53.5q-23 24 -41 56.5t-28 88t-10 147.5t10 147.5t28 88.5t41 56q37 37 85.5 53.5t100.5 16.5t100.5 -16.5t85.5 -53.5q24 -23 41.5 -56t27.5 -88.5t10 -147.5t-10 -147.5t-27.5 -88t-41.5 -56.5q-37 -37 -85.5 -53.5t-100.5 -16.5z
M310 129q42 0 69 26t30 72q2 29 3.5 60t1.5 63t-1.5 63.5t-3.5 59.5q-3 46 -30 72t-69 26t-69 -26t-30 -72q-2 -28 -3.5 -59.5t-1.5 -63.5t1.5 -63t3.5 -60q3 -46 30 -72t69 -26zM170 754l-40 92q21 23 47 33.5t59 10.5q38 0 60 -8.5t40 -17t42 -8.5q23 0 40.5 9.5
t31.5 25.5l40 -92q-21 -22 -47 -33t-59 -11q-37 0 -59.5 8.5t-40.5 17t-42 8.5q-22 0 -40 -9.5t-32 -25.5z" />
    <glyph glyph-name="Odieresis" unicode="&#xd6;" horiz-adv-x="620" 
d="M310 -12q-52 0 -100.5 16.5t-85.5 53.5q-23 24 -41 56.5t-28 88t-10 147.5t10 147.5t28 88.5t41 56q37 37 85.5 53.5t100.5 16.5t100.5 -16.5t85.5 -53.5q24 -23 41.5 -56t27.5 -88.5t10 -147.5t-10 -147.5t-27.5 -88t-41.5 -56.5q-37 -37 -85.5 -53.5t-100.5 -16.5z
M310 129q42 0 69 26t30 72q2 29 3.5 60t1.5 63t-1.5 63.5t-3.5 59.5q-3 46 -30 72t-69 26t-69 -26t-30 -72q-2 -28 -3.5 -59.5t-1.5 -63.5t1.5 -63t3.5 -60q3 -46 30 -72t69 -26zM345 768v122h134v-122h-134zM141 768v122h134v-122h-134z" />
    <glyph glyph-name="multiply" unicode="&#xd7;" horiz-adv-x="600" 
d="M171 125l-96 96l129 129l-129 129l96 96l129 -129l129 129l96 -96l-129 -129l129 -129l-96 -96l-129 129z" />
    <glyph glyph-name="Oslash" unicode="&#xd8;" horiz-adv-x="620" 
d="M310 -12q-52 0 -100.5 16.5t-85.5 53.5q-23 24 -41 56.5t-28 88t-10 147.5t10 147.5t28 88.5t41 56q37 37 85.5 53.5t100.5 16.5t100.5 -16.5t85.5 -53.5q24 -23 41.5 -56t27.5 -88.5t10 -147.5t-10 -147.5t-27.5 -88t-41.5 -56.5q-37 -37 -85.5 -53.5t-100.5 -16.5z
M310 129q42 0 69 26t30 72q2 29 3.5 60t1.5 63t-1.5 63.5t-3.5 59.5q-3 46 -30 72t-69 26t-69 -26t-30 -72q-2 -28 -3.5 -59.5t-1.5 -63.5t1.5 -63t3.5 -60q3 -46 30 -72t69 -26zM-20 0l531 700h128l-531 -700h-128z" />
    <glyph glyph-name="Ugrave" unicode="&#xd9;" horiz-adv-x="604" 
d="M302 -10q-71 0 -126 28.5t-85.5 79.5t-30.5 118v484h160v-487q0 -37 22.5 -59.5t59.5 -22.5q35 0 58.5 22.5t23.5 59.5v487h160l-3 -484q0 -67 -30.5 -118t-84 -79.5t-124.5 -28.5zM257 768l-140 172h150l140 -172h-150z" />
    <glyph glyph-name="Uacute" unicode="&#xda;" horiz-adv-x="604" 
d="M302 -10q-71 0 -126 28.5t-85.5 79.5t-30.5 118v484h160v-487q0 -37 22.5 -59.5t59.5 -22.5q35 0 58.5 22.5t23.5 59.5v487h160l-3 -484q0 -67 -30.5 -118t-84 -79.5t-124.5 -28.5zM197 768l140 172h150l-140 -172h-150z" />
    <glyph glyph-name="Ucircumflex" unicode="&#xdb;" horiz-adv-x="604" 
d="M302 -10q-71 0 -126 28.5t-85.5 79.5t-30.5 118v484h160v-487q0 -37 22.5 -59.5t59.5 -22.5q35 0 58.5 22.5t23.5 59.5v487h160l-3 -484q0 -67 -30.5 -118t-84 -79.5t-124.5 -28.5zM137 768l90 172h150l90 -172h-120l-30 56l-10 34q-3 7 -6 7t-6 -7l-10 -34l-28 -56h-120
z" />
    <glyph glyph-name="Udieresis" unicode="&#xdc;" horiz-adv-x="604" 
d="M302 -10q-71 0 -126 28.5t-85.5 79.5t-30.5 118v484h160v-487q0 -37 22.5 -59.5t59.5 -22.5q35 0 58.5 22.5t23.5 59.5v487h160l-3 -484q0 -67 -30.5 -118t-84 -79.5t-124.5 -28.5zM337 768v122h134v-122h-134zM133 768v122h134v-122h-134z" />
    <glyph glyph-name="Yacute" unicode="&#xdd;" horiz-adv-x="508" 
d="M174 0v255l-174 445h161l74 -200l11 -78q2 -9 8 -9t9 9l12 78l74 200h159l-174 -445v-255h-160zM149 768l140 172h150l-140 -172h-150z" />
    <glyph glyph-name="Thorn" unicode="&#xde;" horiz-adv-x="580" 
d="M70 0v700h159v-130h106q100 0 157.5 -57t57.5 -157q0 -94 -57.5 -150t-157.5 -56h-106v-150h-159zM229 280h106q33 0 51.5 22.5t18.5 56.5q0 39 -18.5 60t-51.5 21h-106v-160z" />
    <glyph glyph-name="germandbls" unicode="&#xdf;" horiz-adv-x="735" 
d="M493 -11q-59 0 -102 13.5t-92 43.5l42 108q34 -21 57 -30.5t43.5 -12t46.5 -2.5q38 0 54 13.5t16 32.5q0 16 -10 27.5t-36 12.5l-48 3q-72 5 -118.5 39.5t-46.5 112.5q0 65 34.5 104t95.5 57l35 10q16 5 23 15t7 24q0 15 -13 28t-40.5 21t-72.5 8q-79 0 -111 -30.5
t-32 -80.5v-506h-160v506q0 78 37 133.5t104.5 84.5t157.5 29q94 0 153.5 -29t88 -73t28.5 -90q0 -63 -35 -100t-97 -55l-34 -10q-16 -4 -23.5 -14t-7.5 -22q0 -16 10 -25t31 -11l52 -3q74 -4 119.5 -41t45.5 -114q0 -88 -55 -132.5t-147 -44.5z" />
    <glyph glyph-name="agrave" unicode="&#xe0;" horiz-adv-x="505" 
d="M370 -12l-32 43q-11 14 -23 3q-23 -18 -52.5 -30t-70.5 -12q-73 0 -115 42.5t-42 107.5q0 48 23.5 81t63.5 49.5t89 16.5h87v49q0 31 -22 47t-67 16q-34 0 -65 -11t-62 -29l-41 112q39 23 84 36t95 13q109 0 160.5 -51.5t51.5 -131.5v-200l53 -76zM224 97q35 0 54.5 21.5
t19.5 55.5v13q0 13 -18 8l-36 -11h-31q-24 0 -36 -10.5t-12 -29.5t17 -33t42 -14zM208 578l-140 172h150l140 -172h-150z" />
    <glyph glyph-name="aacute" unicode="&#xe1;" horiz-adv-x="505" 
d="M370 -12l-32 43q-11 14 -23 3q-23 -18 -52.5 -30t-70.5 -12q-73 0 -115 42.5t-42 107.5q0 48 23.5 81t63.5 49.5t89 16.5h87v49q0 31 -22 47t-67 16q-34 0 -65 -11t-62 -29l-41 112q39 23 84 36t95 13q109 0 160.5 -51.5t51.5 -131.5v-200l53 -76zM224 97q35 0 54.5 21.5
t19.5 55.5v13q0 13 -18 8l-36 -11h-31q-24 0 -36 -10.5t-12 -29.5t17 -33t42 -14zM148 578l140 172h150l-140 -172h-150z" />
    <glyph glyph-name="acircumflex" unicode="&#xe2;" horiz-adv-x="505" 
d="M370 -12l-32 43q-11 14 -23 3q-23 -18 -52.5 -30t-70.5 -12q-73 0 -115 42.5t-42 107.5q0 48 23.5 81t63.5 49.5t89 16.5h87v49q0 31 -22 47t-67 16q-34 0 -65 -11t-62 -29l-41 112q39 23 84 36t95 13q109 0 160.5 -51.5t51.5 -131.5v-200l53 -76zM224 97q35 0 54.5 21.5
t19.5 55.5v13q0 13 -18 8l-36 -11h-31q-24 0 -36 -10.5t-12 -29.5t17 -33t42 -14zM88 578l90 172h150l90 -172h-120l-30 56l-10 34q-3 7 -6 7t-6 -7l-10 -34l-28 -56h-120z" />
    <glyph glyph-name="atilde" unicode="&#xe3;" horiz-adv-x="505" 
d="M370 -12l-32 43q-11 14 -23 3q-23 -18 -52.5 -30t-70.5 -12q-73 0 -115 42.5t-42 107.5q0 48 23.5 81t63.5 49.5t89 16.5h87v49q0 31 -22 47t-67 16q-34 0 -65 -11t-62 -29l-41 112q39 23 84 36t95 13q109 0 160.5 -51.5t51.5 -131.5v-200l53 -76zM224 97q35 0 54.5 21.5
t19.5 55.5v13q0 13 -18 8l-36 -11h-31q-24 0 -36 -10.5t-12 -29.5t17 -33t42 -14zM113 564l-40 92q21 23 47 33.5t59 10.5q38 0 60 -8.5t40 -17t42 -8.5q23 0 40.5 9.5t31.5 25.5l40 -92q-21 -22 -47 -33t-59 -11q-37 0 -59.5 8.5t-40.5 17t-42 8.5q-22 0 -40 -9.5
t-32 -25.5z" />
    <glyph glyph-name="adieresis" unicode="&#xe4;" horiz-adv-x="505" 
d="M370 -12l-32 43q-11 14 -23 3q-23 -18 -52.5 -30t-70.5 -12q-73 0 -115 42.5t-42 107.5q0 48 23.5 81t63.5 49.5t89 16.5h87v49q0 31 -22 47t-67 16q-34 0 -65 -11t-62 -29l-41 112q39 23 84 36t95 13q109 0 160.5 -51.5t51.5 -131.5v-200l53 -76zM224 97q35 0 54.5 21.5
t19.5 55.5v13q0 13 -18 8l-36 -11h-31q-24 0 -36 -10.5t-12 -29.5t17 -33t42 -14zM288 578v122h134v-122h-134zM84 578v122h134v-122h-134z" />
    <glyph glyph-name="aring" unicode="&#xe5;" horiz-adv-x="505" 
d="M370 -12l-32 43q-11 14 -23 3q-23 -18 -52.5 -30t-70.5 -12q-73 0 -115 42.5t-42 107.5q0 48 23.5 81t63.5 49.5t89 16.5h87v49q0 31 -22 47t-67 16q-34 0 -65 -11t-62 -29l-41 112q39 23 84 36t95 13q109 0 160.5 -51.5t51.5 -131.5v-200l53 -76zM224 97q35 0 54.5 21.5
t19.5 55.5v13q0 13 -18 8l-36 -11h-31q-24 0 -36 -10.5t-12 -29.5t17 -33t42 -14zM254 561q-41 0 -77 10.5t-58.5 35.5t-22.5 68q0 44 23 68.5t59.5 34.5t75.5 10t74.5 -10t58.5 -34.5t23 -68.5t-23 -69t-58.5 -35t-74.5 -10zM252 634q24 0 40.5 7.5t16.5 33.5t-16.5 33
t-40.5 7q-25 0 -40 -7.5t-15 -32.5q0 -26 16.5 -33.5t38.5 -7.5z" />
    <glyph glyph-name="ae" unicode="&#xe6;" horiz-adv-x="767" 
d="M202 -9q-78 0 -122.5 43t-44.5 108q0 48 23.5 81t63.5 49.5t89 16.5h87v49q0 31 -22 47t-67 16q-34 0 -65 -11t-62 -29l-41 112q39 23 84 36t95 13q41 0 73 -7.5t57 -21.5l18 -20q8 -10 16 0l17 19q24 14 52.5 21t62.5 7q55 0 95.5 -16.5t67.5 -48t40 -78t13 -106.5
l-21 -52h-274q0 -58 29.5 -82.5t83.5 -24.5q29 0 56 7.5t58 21.5l38 -107q-34 -22 -72.5 -32.5t-79.5 -10.5q-49 0 -89 11t-71 31l-19 21q-8 10 -17 -1l-17 -19q-28 -20 -62.5 -31.5t-72.5 -11.5zM224 97q35 0 54.5 21.5t19.5 55.5v13q0 13 -18 8l-36 -11h-31
q-24 0 -36 -10.5t-12 -29.5t17 -33t42 -14zM439 320h157q-2 21 -9 40t-23.5 31t-45.5 12q-38 0 -56 -22t-23 -61z" />
    <glyph glyph-name="ccedilla" unicode="&#xe7;" horiz-adv-x="460" 
d="M278 -12q-102 0 -159.5 51t-67.5 127q-6 48 -6 90q0 21 1 43t5 47q11 77 67.5 126.5t156.5 49.5q48 0 87.5 -12.5t66.5 -35.5l-40 -110q-22 17 -46 26t-58 9q-42 0 -66.5 -21t-26.5 -53q-3 -38 -3 -69.5t3 -69.5q2 -31 27 -52.5t69 -21.5q26 0 51 7.5t53 24.5l38 -107
q-34 -26 -72.5 -37.5t-79.5 -11.5zM122 -260l22 82q55 0 86.5 10.5t31.5 27.5q0 16 -23 21t-82 5l37 149l79 -29l-13 -49q47 -7 74 -32t27 -60q0 -42 -31 -70.5t-84.5 -42t-123.5 -12.5z" />
    <glyph glyph-name="egrave" unicode="&#xe8;" horiz-adv-x="514" 
d="M297 -10q-69 0 -121.5 22.5t-84.5 62t-40 88.5q-3 24 -4.5 44.5t-1.5 41.5q0 40 6 89q11 78 65.5 130t146.5 52q55 0 95.5 -16.5t67.5 -48t40 -78t13 -106.5l-21 -52h-382l-2 101h269q-2 21 -9 40t-23.5 31t-45.5 12q-41 0 -59.5 -26t-20.5 -71q-1 -26 -1.5 -52t1.5 -54
q5 -51 36.5 -69.5t75.5 -18.5q29 0 56 7.5t58 21.5l38 -107q-34 -22 -72.5 -33t-79.5 -11zM218 578l-140 172h150l140 -172h-150z" />
    <glyph glyph-name="eacute" unicode="&#xe9;" horiz-adv-x="514" 
d="M297 -10q-69 0 -121.5 22.5t-84.5 62t-40 88.5q-3 24 -4.5 44.5t-1.5 41.5q0 40 6 89q11 78 65.5 130t146.5 52q55 0 95.5 -16.5t67.5 -48t40 -78t13 -106.5l-21 -52h-382l-2 101h269q-2 21 -9 40t-23.5 31t-45.5 12q-41 0 -59.5 -26t-20.5 -71q-1 -26 -1.5 -52t1.5 -54
q5 -51 36.5 -69.5t75.5 -18.5q29 0 56 7.5t58 21.5l38 -107q-34 -22 -72.5 -33t-79.5 -11zM158 578l140 172h150l-140 -172h-150z" />
    <glyph glyph-name="ecircumflex" unicode="&#xea;" horiz-adv-x="514" 
d="M297 -10q-69 0 -121.5 22.5t-84.5 62t-40 88.5q-3 24 -4.5 44.5t-1.5 41.5q0 40 6 89q11 78 65.5 130t146.5 52q55 0 95.5 -16.5t67.5 -48t40 -78t13 -106.5l-21 -52h-382l-2 101h269q-2 21 -9 40t-23.5 31t-45.5 12q-41 0 -59.5 -26t-20.5 -71q-1 -26 -1.5 -52t1.5 -54
q5 -51 36.5 -69.5t75.5 -18.5q29 0 56 7.5t58 21.5l38 -107q-34 -22 -72.5 -33t-79.5 -11zM98 578l90 172h150l90 -172h-120l-30 56l-10 34q-3 7 -6 7t-6 -7l-10 -34l-28 -56h-120z" />
    <glyph glyph-name="edieresis" unicode="&#xeb;" horiz-adv-x="514" 
d="M297 -10q-69 0 -121.5 22.5t-84.5 62t-40 88.5q-3 24 -4.5 44.5t-1.5 41.5q0 40 6 89q11 78 65.5 130t146.5 52q55 0 95.5 -16.5t67.5 -48t40 -78t13 -106.5l-21 -52h-382l-2 101h269q-2 21 -9 40t-23.5 31t-45.5 12q-41 0 -59.5 -26t-20.5 -71q-1 -26 -1.5 -52t1.5 -54
q5 -51 36.5 -69.5t75.5 -18.5q29 0 56 7.5t58 21.5l38 -107q-34 -22 -72.5 -33t-79.5 -11zM298 578v122h134v-122h-134zM94 578v122h134v-122h-134z" />
    <glyph glyph-name="igrave" unicode="&#xec;" horiz-adv-x="325" 
d="M110 0v386h-90v124h240v-510h-150zM120 578l-140 172h150l140 -172h-150z" />
    <glyph glyph-name="iacute" unicode="&#xed;" horiz-adv-x="325" 
d="M110 0v386h-90v124h240v-510h-150zM60 578l140 172h150l-140 -172h-150z" />
    <glyph glyph-name="icircumflex" unicode="&#xee;" horiz-adv-x="330" 
d="M15 578l75 172h153l75 -172h-118l-22 56l-9 34q-2 7 -4.5 7t-4.5 -7l-8 -34l-20 -56h-117zM110 0v386h-90v124h240v-510h-150z" />
    <glyph glyph-name="idieresis" unicode="&#xef;" horiz-adv-x="330" 
d="M182 578v122h120v-122h-120zM20 578v122h120v-122h-120zM110 0v386h-90v124h240v-510h-150z" />
    <glyph glyph-name="eth" unicode="&#xf0;" horiz-adv-x="581" 
d="M187 489l-47 81l254 130l49 -77zM290 -12q-78 0 -136.5 29.5t-91 83.5t-32.5 128q0 67 28.5 117.5t75.5 79t101 28.5h9t11 -1l49 -22q12 -5 15.5 0.5t-3.5 15.5l-179 253h172l149 -226q39 -58 59 -99.5t27 -75.5t7 -70q0 -74 -31 -128t-89.5 -83.5t-140.5 -29.5zM290 122
q57 0 87 27.5t28 79.5q-1 52 -31 79.5t-84 27.5t-83.5 -27.5t-30.5 -79.5t28.5 -79.5t85.5 -27.5z" />
    <glyph glyph-name="ntilde" unicode="&#xf1;" horiz-adv-x="567" 
d="M65 0v510h150v-28q26 20 56 30t65 10q45 0 84 -16.5t63 -51t24 -88.5v-366h-150v314q0 38 -14 55t-55 17q-40 0 -56.5 -17t-16.5 -55v-314h-150zM144 564l-40 92q21 23 47 33.5t59 10.5q38 0 60 -8.5t40 -17t42 -8.5q23 0 40.5 9.5t31.5 25.5l40 -92q-21 -22 -47 -33
t-59 -11q-37 0 -59.5 8.5t-40.5 17t-42 8.5q-22 0 -40 -9.5t-32 -25.5z" />
    <glyph glyph-name="ograve" unicode="&#xf2;" horiz-adv-x="549" 
d="M274 -12q-99 0 -156 50.5t-67 126.5q-6 48 -6 88q0 23 1 45t5 47q11 76 67.5 126.5t155.5 50.5t156.5 -50t67.5 -127q6 -49 6 -92q0 -40 -6 -88q-11 -76 -68 -126.5t-156 -50.5zM274 112q38 0 58 22.5t24 52.5q5 37 5 67.5t-4 67.5q-3 32 -24 54.5t-59 22.5
q-37 0 -58 -22.5t-24 -54.5q-4 -37 -3.5 -67.5t4.5 -66.5q3 -31 23.5 -53.5t57.5 -22.5zM230 578l-140 172h150l140 -172h-150z" />
    <glyph glyph-name="oacute" unicode="&#xf3;" horiz-adv-x="549" 
d="M274 -12q-99 0 -156 50.5t-67 126.5q-6 48 -6 88q0 23 1 45t5 47q11 76 67.5 126.5t155.5 50.5t156.5 -50t67.5 -127q6 -49 6 -92q0 -40 -6 -88q-11 -76 -68 -126.5t-156 -50.5zM274 112q38 0 58 22.5t24 52.5q5 37 5 67.5t-4 67.5q-3 32 -24 54.5t-59 22.5
q-37 0 -58 -22.5t-24 -54.5q-4 -37 -3.5 -67.5t4.5 -66.5q3 -31 23.5 -53.5t57.5 -22.5zM170 578l140 172h150l-140 -172h-150z" />
    <glyph glyph-name="ocircumflex" unicode="&#xf4;" horiz-adv-x="549" 
d="M274 -12q-99 0 -156 50.5t-67 126.5q-6 48 -6 88q0 23 1 45t5 47q11 76 67.5 126.5t155.5 50.5t156.5 -50t67.5 -127q6 -49 6 -92q0 -40 -6 -88q-11 -76 -68 -126.5t-156 -50.5zM274 112q38 0 58 22.5t24 52.5q5 37 5 67.5t-4 67.5q-3 32 -24 54.5t-59 22.5
q-37 0 -58 -22.5t-24 -54.5q-4 -37 -3.5 -67.5t4.5 -66.5q3 -31 23.5 -53.5t57.5 -22.5zM110 578l90 172h150l90 -172h-120l-30 56l-10 34q-3 7 -6 7t-6 -7l-10 -34l-28 -56h-120z" />
    <glyph glyph-name="otilde" unicode="&#xf5;" horiz-adv-x="549" 
d="M274 -12q-99 0 -156 50.5t-67 126.5q-6 48 -6 88q0 23 1 45t5 47q11 76 67.5 126.5t155.5 50.5t156.5 -50t67.5 -127q6 -49 6 -92q0 -40 -6 -88q-11 -76 -68 -126.5t-156 -50.5zM274 112q38 0 58 22.5t24 52.5q5 37 5 67.5t-4 67.5q-3 32 -24 54.5t-59 22.5
q-37 0 -58 -22.5t-24 -54.5q-4 -37 -3.5 -67.5t4.5 -66.5q3 -31 23.5 -53.5t57.5 -22.5zM135 564l-40 92q21 23 47 33.5t59 10.5q38 0 60 -8.5t40 -17t42 -8.5q23 0 40.5 9.5t31.5 25.5l40 -92q-21 -22 -47 -33t-59 -11q-37 0 -59.5 8.5t-40.5 17t-42 8.5q-22 0 -40 -9.5
t-32 -25.5z" />
    <glyph glyph-name="odieresis" unicode="&#xf6;" horiz-adv-x="549" 
d="M274 -12q-99 0 -156 50.5t-67 126.5q-6 48 -6 88q0 23 1 45t5 47q11 76 67.5 126.5t155.5 50.5t156.5 -50t67.5 -127q6 -49 6 -92q0 -40 -6 -88q-11 -76 -68 -126.5t-156 -50.5zM274 112q38 0 58 22.5t24 52.5q5 37 5 67.5t-4 67.5q-3 32 -24 54.5t-59 22.5
q-37 0 -58 -22.5t-24 -54.5q-4 -37 -3.5 -67.5t4.5 -66.5q3 -31 23.5 -53.5t57.5 -22.5zM310 578v122h134v-122h-134zM106 578v122h134v-122h-134z" />
    <glyph glyph-name="divide" unicode="&#xf7;" horiz-adv-x="600" 
d="M50 282v136h460v-136h-460zM202 55v150h157v-150h-157zM202 495v150h157v-150h-157z" />
    <glyph glyph-name="oslash" unicode="&#xf8;" horiz-adv-x="549" 
d="M274 -12q-99 0 -156 50.5t-67 126.5q-6 48 -6 88q0 23 1 45t5 47q11 76 67.5 126.5t155.5 50.5t156.5 -50t67.5 -127q6 -49 6 -92q0 -40 -6 -88q-11 -76 -68 -126.5t-156 -50.5zM274 112q38 0 58 22.5t24 52.5q5 37 5 67.5t-4 67.5q-3 32 -24 54.5t-59 22.5
q-37 0 -58 -22.5t-24 -54.5q-4 -37 -3.5 -67.5t4.5 -66.5q3 -31 23.5 -53.5t57.5 -22.5zM17 0l387 510h128l-387 -510h-128z" />
    <glyph glyph-name="ugrave" unicode="&#xf9;" horiz-adv-x="567" 
d="M231 -10q-44 0 -83.5 17t-63.5 51.5t-24 86.5v366h150v-314q0 -37 14 -54.5t55 -17.5t57 17.5t16 54.5v314h150v-511h-152v23q0 8 -5 11t-16 -3l-64 -37q-15 -4 -34 -4zM241 578l-140 172h150l140 -172h-150z" />
    <glyph glyph-name="uacute" unicode="&#xfa;" horiz-adv-x="567" 
d="M231 -10q-44 0 -83.5 17t-63.5 51.5t-24 86.5v366h150v-314q0 -37 14 -54.5t55 -17.5t57 17.5t16 54.5v314h150v-511h-152v23q0 8 -5 11t-16 -3l-64 -37q-15 -4 -34 -4zM181 578l140 172h150l-140 -172h-150z" />
    <glyph glyph-name="ucircumflex" unicode="&#xfb;" horiz-adv-x="567" 
d="M231 -10q-44 0 -83.5 17t-63.5 51.5t-24 86.5v366h150v-314q0 -37 14 -54.5t55 -17.5t57 17.5t16 54.5v314h150v-511h-152v23q0 8 -5 11t-16 -3l-64 -37q-15 -4 -34 -4zM121 578l90 172h150l90 -172h-120l-30 56l-10 34q-3 7 -6 7t-6 -7l-10 -34l-28 -56h-120z" />
    <glyph glyph-name="udieresis" unicode="&#xfc;" horiz-adv-x="567" 
d="M231 -10q-44 0 -83.5 17t-63.5 51.5t-24 86.5v366h150v-314q0 -37 14 -54.5t55 -17.5t57 17.5t16 54.5v314h150v-511h-152v23q0 8 -5 11t-16 -3l-64 -37q-15 -4 -34 -4zM321 578v122h134v-122h-134zM117 578v122h134v-122h-134z" />
    <glyph glyph-name="yacute" unicode="&#xfd;" horiz-adv-x="483" 
d="M68 -214l-36 127q53 5 86.5 29t43.5 60l15 54l-167 454h153l62 -217l10 -93q1 -9 8.5 -9t8.5 9l11 93l50 217h150l-165 -553q-21 -74 -82.5 -121t-147.5 -50zM137 578l140 172h150l-140 -172h-150z" />
    <glyph glyph-name="thorn" unicode="&#xfe;" horiz-adv-x="565" 
d="M65 -200v900h150v-219q18 17 47.5 29t61.5 12q92 0 137.5 -42.5t53.5 -121.5q3 -29 4 -53t1 -48q0 -23 -1.5 -47.5t-3.5 -55.5q-7 -78 -50.5 -121t-130.5 -43q-9 0 -17.5 1t-16.5 3l-64 37q-10 6 -15.5 3t-5.5 -11v-223h-150zM292 114q37 0 54 16.5t19 39.5q4 42 4 85.5
t-4 85.5q-2 23 -20 39.5t-53 16.5q-40 0 -58.5 -18.5t-18.5 -50.5v-144q0 -31 20 -50.5t57 -19.5z" />
    <glyph glyph-name="ydieresis" unicode="&#xff;" horiz-adv-x="483" 
d="M68 -214l-36 127q53 5 86.5 29t43.5 60l15 54l-167 454h153l62 -217l10 -93q1 -9 8.5 -9t8.5 9l11 93l50 217h150l-165 -553q-21 -74 -82.5 -121t-147.5 -50zM277 578v122h134v-122h-134zM73 578v122h134v-122h-134z" />
    <glyph glyph-name="Amacron" unicode="&#x100;" 
d="M30 0l170 700h220l170 -700h-159l-105 497l-7 63q-1 9 -9 9t-9 -9l-7 -63l-105 -497h-159zM207 162l29 130h147l30 -130h-206zM95 570v130h120l-20 -130h-100zM159 766v114h301v-114h-301z" />
    <glyph glyph-name="amacron" unicode="&#x101;" horiz-adv-x="505" 
d="M370 -12l-32 43q-11 14 -23 3q-23 -18 -52.5 -30t-70.5 -12q-73 0 -115 42.5t-42 107.5q0 48 23.5 81t63.5 49.5t89 16.5h87v49q0 31 -22 47t-67 16q-34 0 -65 -11t-62 -29l-41 112q39 23 84 36t95 13q109 0 160.5 -51.5t51.5 -131.5v-200l53 -76zM224 97q35 0 54.5 21.5
t19.5 55.5v13q0 13 -18 8l-36 -11h-31q-24 0 -36 -10.5t-12 -29.5t17 -33t42 -14zM102 576v114h301v-114h-301z" />
    <glyph glyph-name="Abreve" unicode="&#x102;" 
d="M30 0l170 700h220l170 -700h-159l-105 497l-7 63q-1 9 -9 9t-9 -9l-7 -63l-105 -497h-159zM207 162l29 130h147l30 -130h-206zM95 570v130h120l-20 -130h-100zM310 782q-80 0 -120.5 34.5t-60.5 92.5l101 25q10 -28 30.5 -42.5t49.5 -14.5t49.5 14.5t30.5 42.5l101 -25
q-20 -58 -60.5 -92.5t-120.5 -34.5z" />
    <glyph glyph-name="abreve" unicode="&#x103;" horiz-adv-x="505" 
d="M370 -12l-32 43q-11 14 -23 3q-23 -18 -52.5 -30t-70.5 -12q-73 0 -115 42.5t-42 107.5q0 48 23.5 81t63.5 49.5t89 16.5h87v49q0 31 -22 47t-67 16q-34 0 -65 -11t-62 -29l-41 112q39 23 84 36t95 13q109 0 160.5 -51.5t51.5 -131.5v-200l53 -76zM224 97q35 0 54.5 21.5
t19.5 55.5v13q0 13 -18 8l-36 -11h-31q-24 0 -36 -10.5t-12 -29.5t17 -33t42 -14zM253 592q-80 0 -120.5 34.5t-60.5 92.5l101 25q10 -28 30.5 -42.5t49.5 -14.5t49.5 14.5t30.5 42.5l101 -25q-20 -58 -60.5 -92.5t-120.5 -34.5z" />
    <glyph glyph-name="Aogonek" unicode="&#x104;" 
d="M30 0l170 700h220l170 -700h-159l-105 497l-7 63q-1 9 -9 9t-9 -9l-7 -63l-105 -497h-159zM207 162l29 130h147l30 -130h-206zM95 570v130h120l-20 -130h-100zM623 -265q-67 1 -118.5 17t-80.5 51.5t-29 92.5q0 47 24.5 80t68.5 51l102 -27q-39 -21 -55 -40t-16 -51
q0 -37 32 -52t87 -16z" />
    <glyph glyph-name="aogonek" unicode="&#x105;" horiz-adv-x="505" 
d="M370 -12l-32 43q-11 14 -23 3q-23 -18 -52.5 -30t-70.5 -12q-73 0 -115 42.5t-42 107.5q0 48 23.5 81t63.5 49.5t89 16.5h87v49q0 31 -22 47t-67 16q-34 0 -65 -11t-62 -29l-41 112q39 23 84 36t95 13q109 0 160.5 -51.5t51.5 -131.5v-200l53 -76zM224 97q35 0 54.5 21.5
t19.5 55.5v13q0 13 -18 8l-36 -11h-31q-24 0 -36 -10.5t-12 -29.5t17 -33t42 -14zM490 -220q-67 1 -118.5 17t-80.5 51.5t-29 92.5q0 47 24.5 80t68.5 51l102 -27q-39 -21 -55 -40t-16 -51q0 -37 32 -52t87 -16z" />
    <glyph glyph-name="Cacute" unicode="&#x106;" horiz-adv-x="504" 
d="M320 -12q-75 0 -134 29t-95 81t-41 120q-2 29 -3.5 65t-1.5 67q0 32 1.5 67.5t3.5 64.5q5 68 39.5 120t91.5 81t129 29q51 0 88.5 -14t74.5 -42l-43 -119q-27 20 -49 27.5t-54 7.5q-52 0 -82.5 -26.5t-34.5 -71.5q-2 -35 -3.5 -64t-1.5 -60t1.5 -59.5t3.5 -64.5
q5 -46 33 -72t77 -25q36 0 59.5 10.5t47.5 25.5l47 -125q-36 -25 -71 -38.5t-83 -13.5zM195 768l140 172h150l-140 -172h-150z" />
    <glyph glyph-name="cacute" unicode="&#x107;" horiz-adv-x="460" 
d="M278 -12q-102 0 -159.5 51t-67.5 127q-6 48 -6 90q0 21 1 43t5 47q11 77 67.5 126.5t156.5 49.5q48 0 87.5 -12.5t66.5 -35.5l-40 -110q-22 17 -46 26t-58 9q-42 0 -66.5 -21t-26.5 -53q-3 -38 -3 -69.5t3 -69.5q2 -31 27 -52.5t69 -21.5q26 0 51 7.5t53 24.5l38 -107
q-34 -26 -72.5 -37.5t-79.5 -11.5zM137 568l140 172h150l-140 -172h-150z" />
    <glyph glyph-name="Cdotaccent" unicode="&#x10a;" horiz-adv-x="504" 
d="M320 -12q-75 0 -134 29t-95 81t-41 120q-2 29 -3.5 65t-1.5 67q0 32 1.5 67.5t3.5 64.5q5 68 39.5 120t91.5 81t129 29q51 0 88.5 -14t74.5 -42l-43 -119q-27 20 -49 27.5t-54 7.5q-52 0 -82.5 -26.5t-34.5 -71.5q-2 -35 -3.5 -64t-1.5 -60t1.5 -59.5t3.5 -64.5
q5 -46 33 -72t77 -25q36 0 59.5 10.5t47.5 25.5l47 -125q-36 -25 -71 -38.5t-83 -13.5zM225 768v122h150v-122h-150z" />
    <glyph glyph-name="cdotaccent" unicode="&#x10b;" horiz-adv-x="460" 
d="M278 -12q-102 0 -159.5 51t-67.5 127q-6 48 -6 90q0 21 1 43t5 47q11 77 67.5 126.5t156.5 49.5q48 0 87.5 -12.5t66.5 -35.5l-40 -110q-22 17 -46 26t-58 9q-42 0 -66.5 -21t-26.5 -53q-3 -38 -3 -69.5t3 -69.5q2 -31 27 -52.5t69 -21.5q26 0 51 7.5t53 24.5l38 -107
q-34 -26 -72.5 -37.5t-79.5 -11.5zM167 568v122h150v-122h-150z" />
    <glyph glyph-name="Ccaron" unicode="&#x10c;" horiz-adv-x="504" 
d="M320 -12q-75 0 -134 29t-95 81t-41 120q-2 29 -3.5 65t-1.5 67q0 32 1.5 67.5t3.5 64.5q5 68 39.5 120t91.5 81t129 29q51 0 88.5 -14t74.5 -42l-43 -119q-27 20 -49 27.5t-54 7.5q-52 0 -82.5 -26.5t-34.5 -71.5q-2 -35 -3.5 -64t-1.5 -60t1.5 -59.5t3.5 -64.5
q5 -46 33 -72t77 -25q36 0 59.5 10.5t47.5 25.5l47 -125q-36 -25 -71 -38.5t-83 -13.5zM225 768l-90 172h120l28 -56l10 -34q3 -7 6 -7t6 7l10 34l30 56h120l-90 -172h-150z" />
    <glyph glyph-name="ccaron" unicode="&#x10d;" horiz-adv-x="460" 
d="M278 -12q-102 0 -159.5 51t-67.5 127q-6 48 -6 90q0 21 1 43t5 47q11 77 67.5 126.5t156.5 49.5q48 0 87.5 -12.5t66.5 -35.5l-40 -110q-22 17 -46 26t-58 9q-42 0 -66.5 -21t-26.5 -53q-3 -38 -3 -69.5t3 -69.5q2 -31 27 -52.5t69 -21.5q26 0 51 7.5t53 24.5l38 -107
q-34 -26 -72.5 -37.5t-79.5 -11.5zM167 568l-90 172h120l28 -56l10 -34q3 -7 6 -7t6 7l10 34l30 56h120l-90 -172h-150z" />
    <glyph glyph-name="Dcaron" unicode="&#x10e;" horiz-adv-x="602" 
d="M70 0v700h204q131 0 200 -62t78 -168q2 -27 3.5 -59t1.5 -61t-1.5 -61t-3.5 -59q-8 -106 -77.5 -168t-200.5 -62h-204zM230 130h44q65 0 95.5 35t35.5 86q3 30 3.5 51.5t0.5 47.5t-0.5 47t-3.5 52q-4 51 -35 86t-96 35h-44v-440zM226 768l-90 172h120l28 -56l10 -34
q3 -7 6 -7t6 7l10 34l30 56h120l-90 -172h-150z" />
    <glyph glyph-name="dcaron" unicode="&#x10f;" horiz-adv-x="560" 
d="M231 -10q-87 0 -130.5 43t-50.5 121q-2 31 -3.5 55.5t-1.5 47.5q0 24 1 48t4 53q8 79 54 121.5t137 42.5q32 0 61.5 -8.5t47.5 -22.5v259h150v-750h-150v23q0 8 -5 11t-16 -3l-64 -37q-8 -2 -16.5 -3t-17.5 -1zM273 114q37 0 57 19.5t20 50.5v144q0 32 -18 50.5t-59 18.5
q-34 0 -52.5 -16.5t-20.5 -39.5q-4 -42 -4 -85.5t4 -85.5q2 -23 19 -39.5t54 -16.5zM610 750h140l-105 -172h-117z" />
    <glyph glyph-name="Dcroat" unicode="&#x110;" horiz-adv-x="622" 
d="M0 293v114h340v-114h-340zM90 0v700h204q131 0 200 -62t78 -168q2 -27 3.5 -59t1.5 -61t-1.5 -61t-3.5 -59q-8 -106 -77.5 -168t-200.5 -62h-204zM250 130h44q65 0 95.5 35t35.5 86q3 30 3.5 51.5t0.5 47.5t-0.5 47t-3.5 52q-4 51 -35 86t-96 35h-44v-440z" />
    <glyph glyph-name="dcroat" unicode="&#x111;" horiz-adv-x="560" 
d="M231 -10q-87 0 -130.5 43t-50.5 121q-2 31 -3.5 55.5t-1.5 47.5q0 24 1 48t4 53q8 79 54 121.5t137 42.5q32 0 61.5 -8.5t47.5 -22.5v259h150v-750h-150v23q0 8 -5 11t-16 -3l-64 -37q-8 -2 -16.5 -3t-17.5 -1zM273 114q37 0 57 19.5t20 50.5v144q0 32 -18 50.5t-59 18.5
q-34 0 -52.5 -16.5t-20.5 -39.5q-4 -42 -4 -85.5t4 -85.5q2 -23 19 -39.5t54 -16.5zM252 557v114h340v-114h-340z" />
    <glyph glyph-name="Emacron" unicode="&#x112;" horiz-adv-x="550" 
d="M70 0v700h430v-140h-285v-145h268v-130h-268v-145h285v-140h-430zM144 766v114h301v-114h-301z" />
    <glyph glyph-name="emacron" unicode="&#x113;" horiz-adv-x="514" 
d="M297 -10q-69 0 -121.5 22.5t-84.5 62t-40 88.5q-3 24 -4.5 44.5t-1.5 41.5q0 40 6 89q11 78 65.5 130t146.5 52q55 0 95.5 -16.5t67.5 -48t40 -78t13 -106.5l-21 -52h-382l-2 101h269q-2 21 -9 40t-23.5 31t-45.5 12q-41 0 -59.5 -26t-20.5 -71q-1 -26 -1.5 -52t1.5 -54
q5 -51 36.5 -69.5t75.5 -18.5q29 0 56 7.5t58 21.5l38 -107q-34 -22 -72.5 -33t-79.5 -11zM112 576v114h301v-114h-301z" />
    <glyph glyph-name="Edotaccent" unicode="&#x116;" horiz-adv-x="550" 
d="M70 0v700h430v-140h-285v-145h268v-130h-268v-145h285v-140h-430zM220 768v122h150v-122h-150z" />
    <glyph glyph-name="edotaccent" unicode="&#x117;" horiz-adv-x="514" 
d="M297 -10q-69 0 -121.5 22.5t-84.5 62t-40 88.5q-3 24 -4.5 44.5t-1.5 41.5q0 40 6 89q11 78 65.5 130t146.5 52q55 0 95.5 -16.5t67.5 -48t40 -78t13 -106.5l-21 -52h-382l-2 101h269q-2 21 -9 40t-23.5 31t-45.5 12q-41 0 -59.5 -26t-20.5 -71q-1 -26 -1.5 -52t1.5 -54
q5 -51 36.5 -69.5t75.5 -18.5q29 0 56 7.5t58 21.5l38 -107q-34 -22 -72.5 -33t-79.5 -11zM188 578v122h150v-122h-150z" />
    <glyph glyph-name="Eogonek" unicode="&#x118;" horiz-adv-x="550" 
d="M70 0v700h430v-140h-285v-145h268v-130h-268v-145h285v-140h-430zM533 -265q-67 1 -118.5 17t-80.5 51.5t-29 92.5q0 47 24.5 80t68.5 51l102 -27q-39 -21 -55 -40t-16 -51q0 -37 32 -52t87 -16z" />
    <glyph glyph-name="eogonek" unicode="&#x119;" horiz-adv-x="514" 
d="M297 -10q-69 0 -121.5 22.5t-84.5 62t-40 88.5q-3 24 -4.5 44.5t-1.5 41.5q0 40 6 89q11 78 65.5 130t146.5 52q55 0 95.5 -16.5t67.5 -48t40 -78t13 -106.5l-21 -52h-382l-2 101h269q-2 21 -9 40t-23.5 31t-45.5 12q-41 0 -59.5 -26t-20.5 -71q-1 -26 -1.5 -52t1.5 -54
q5 -51 36.5 -69.5t75.5 -18.5q29 0 56 7.5t58 21.5l38 -107q-34 -22 -72.5 -33t-79.5 -11zM437 -255q-67 1 -118.5 17t-80.5 51.5t-29 92.5q0 47 24.5 80t68.5 51l102 -27q-39 -21 -55 -40t-16 -51q0 -37 32 -52t87 -16z" />
    <glyph glyph-name="Ecaron" unicode="&#x11a;" horiz-adv-x="550" 
d="M70 0v700h430v-140h-285v-145h268v-130h-268v-145h285v-140h-430zM220 768l-90 172h120l28 -56l10 -34q3 -7 6 -7t6 7l10 34l30 56h120l-90 -172h-150z" />
    <glyph glyph-name="ecaron" unicode="&#x11b;" horiz-adv-x="514" 
d="M297 -10q-69 0 -121.5 22.5t-84.5 62t-40 88.5q-3 24 -4.5 44.5t-1.5 41.5q0 40 6 89q11 78 65.5 130t146.5 52q55 0 95.5 -16.5t67.5 -48t40 -78t13 -106.5l-21 -52h-382l-2 101h269q-2 21 -9 40t-23.5 31t-45.5 12q-41 0 -59.5 -26t-20.5 -71q-1 -26 -1.5 -52t1.5 -54
q5 -51 36.5 -69.5t75.5 -18.5q29 0 56 7.5t58 21.5l38 -107q-34 -22 -72.5 -33t-79.5 -11zM188 578l-90 172h120l28 -56l10 -34q3 -7 6 -7t6 7l10 34l30 56h120l-90 -172h-150z" />
    <glyph glyph-name="Gbreve" unicode="&#x11e;" horiz-adv-x="598" 
d="M314 -10q-119 -1 -186.5 56.5t-76.5 167.5q-2 29 -4 67t-2 69q0 32 1.5 69.5t4.5 66.5q13 111 86 168.5t189 57.5q114 0 196 -61l-49 -125q-31 28 -68.5 37t-78.5 9q-64 0 -93.5 -29t-34.5 -82q-2 -27 -3.5 -54t-1.5 -57t1.5 -57.5t3.5 -62.5q4 -49 31.5 -74t74.5 -26
q21 0 42 2t40 6v142h-68v140h260v-140h-62v-236q-31 -22 -80.5 -37t-121.5 -17zM294 782q-80 0 -120.5 34.5t-60.5 92.5l101 25q10 -28 30.5 -42.5t49.5 -14.5t49.5 14.5t30.5 42.5l101 -25q-20 -58 -60.5 -92.5t-120.5 -34.5z" />
    <glyph glyph-name="gbreve" unicode="&#x11f;" horiz-adv-x="559" 
d="M257 -214q-37 0 -64.5 4t-54 14t-62.5 27l42 108q30 -15 49 -22t38.5 -9t52.5 -2q41 0 66.5 23t25.5 73v22q0 8 -6 10.5t-14 -2.5l-67 -39q-9 -1 -19.5 -2t-23.5 -1q-73 0 -118 43t-52 121q-3 31 -4 55.5t-1 47.5q0 24 1 48t4 53q7 79 53 121.5t137 42.5q32 0 61.5 -12
t47.5 -29v29h150v-534q0 -48 -29 -91.5t-83 -71t-130 -27.5zM272 113q37 0 57 19.5t20 50.5v145q0 32 -18 50.5t-59 18.5q-34 0 -52 -16.5t-20 -39.5q-4 -43 -4 -86.5t4 -85.5q2 -23 18.5 -39.5t53.5 -16.5zM277 592q-80 0 -120.5 34.5t-60.5 92.5l101 25q10 -28 30.5 -42.5
t49.5 -14.5t49.5 14.5t30.5 42.5l101 -25q-20 -58 -60.5 -92.5t-120.5 -34.5z" />
    <glyph glyph-name="Gdotaccent" unicode="&#x120;" horiz-adv-x="598" 
d="M314 -10q-119 -1 -186.5 56.5t-76.5 167.5q-2 29 -4 67t-2 69q0 32 1.5 69.5t4.5 66.5q13 111 86 168.5t189 57.5q114 0 196 -61l-49 -125q-31 28 -68.5 37t-78.5 9q-64 0 -93.5 -29t-34.5 -82q-2 -27 -3.5 -54t-1.5 -57t1.5 -57.5t3.5 -62.5q4 -49 31.5 -74t74.5 -26
q21 0 42 2t40 6v142h-68v140h260v-140h-62v-236q-31 -22 -80.5 -37t-121.5 -17zM219 768v122h150v-122h-150z" />
    <glyph glyph-name="gdotaccent" unicode="&#x121;" horiz-adv-x="559" 
d="M257 -214q-37 0 -64.5 4t-54 14t-62.5 27l42 108q30 -15 49 -22t38.5 -9t52.5 -2q41 0 66.5 23t25.5 73v22q0 8 -6 10.5t-14 -2.5l-67 -39q-9 -1 -19.5 -2t-23.5 -1q-73 0 -118 43t-52 121q-3 31 -4 55.5t-1 47.5q0 24 1 48t4 53q7 79 53 121.5t137 42.5q32 0 61.5 -12
t47.5 -29v29h150v-534q0 -48 -29 -91.5t-83 -71t-130 -27.5zM272 113q37 0 57 19.5t20 50.5v145q0 32 -18 50.5t-59 18.5q-34 0 -52 -16.5t-20 -39.5q-4 -43 -4 -86.5t4 -85.5q2 -23 18.5 -39.5t53.5 -16.5zM202 578v122h150v-122h-150z" />
    <glyph glyph-name="uni0122" unicode="&#x122;" horiz-adv-x="598" 
d="M314 -10q-119 -1 -186.5 56.5t-76.5 167.5q-2 29 -4 67t-2 69q0 32 1.5 69.5t4.5 66.5q13 111 86 168.5t189 57.5q114 0 196 -61l-49 -125q-31 28 -68.5 37t-78.5 9q-64 0 -93.5 -29t-34.5 -82q-2 -27 -3.5 -54t-1.5 -57t1.5 -57.5t3.5 -62.5q4 -49 31.5 -74t74.5 -26
q21 0 42 2t40 6v142h-68v140h260v-140h-62v-236q-31 -22 -80.5 -37t-121.5 -17zM261 -331l-94 61q35 29 53.5 57t25 62.5t6.5 80.5h125q0 -59 -10 -104.5t-35.5 -83t-70.5 -73.5z" />
    <glyph glyph-name="uni0123" unicode="&#x123;" horiz-adv-x="559" 
d="M257 -214q-37 0 -64.5 4t-54 14t-62.5 27l42 108q30 -15 49 -22t38.5 -9t52.5 -2q41 0 66.5 23t25.5 73v22q0 8 -6 10.5t-14 -2.5l-67 -39q-9 -1 -19.5 -2t-23.5 -1q-73 0 -118 43t-52 121q-3 31 -4 55.5t-1 47.5q0 24 1 48t4 53q7 79 53 121.5t137 42.5q32 0 61.5 -12
t47.5 -29v29h150v-534q0 -48 -29 -91.5t-83 -71t-130 -27.5zM272 113q37 0 57 19.5t20 50.5v145q0 32 -18 50.5t-59 18.5q-34 0 -52 -16.5t-20 -39.5q-4 -43 -4 -86.5t4 -85.5q2 -23 18.5 -39.5t53.5 -16.5zM397 945l-14 -76q-73 -2 -112 -38.5t-39 -95.5h88v-145h-175v114
q0 84 36 137t94 78t122 26z" />
    <glyph glyph-name="Hbar" unicode="&#x126;" horiz-adv-x="640" 
d="M-26 493v114h691v-114h-691zM70 0v700h160v-280h180v280h160v-700h-160v280h-180v-280h-160z" />
    <glyph glyph-name="hbar" unicode="&#x127;" horiz-adv-x="563" 
d="M65 0v750h146v-258q26 14 56 22t65 8q45 0 84 -17t63 -51.5t24 -87.5v-366h-150v305q0 43 -14 62.5t-55 19.5q-40 0 -56.5 -19.5t-16.5 -62.5v-305h-146zM-32 555v114h340v-114h-340z" />
    <glyph glyph-name="Imacron" unicode="&#x12a;" horiz-adv-x="443" 
d="M50 0v130h92v440h-92v130h343v-130h-92v-440h92v-130h-343zM71 766v114h301v-114h-301z" />
    <glyph glyph-name="imacron" unicode="&#x12b;" horiz-adv-x="325" 
d="M110 0v386h-90v124h240v-510h-150zM14 576v114h301v-114h-301z" />
    <glyph glyph-name="Iogonek" unicode="&#x12e;" horiz-adv-x="443" 
d="M50 0v130h92v440h-92v130h343v-130h-92v-440h92v-130h-343zM426 -265q-67 1 -118.5 17t-80.5 51.5t-29 92.5q0 47 24.5 80t68.5 51l102 -27q-39 -21 -55 -40t-16 -51q0 -37 32 -52t87 -16z" />
    <glyph glyph-name="iogonek" unicode="&#x12f;" horiz-adv-x="325" 
d="M110 0v386h-90v124h240v-510h-150zM90 578v122h150v-122h-150zM293 -265q-67 1 -118.5 17t-80.5 51.5t-29 92.5q0 47 24.5 80t68.5 51l102 -27q-39 -21 -55 -40t-16 -51q0 -37 32 -52t87 -16z" />
    <glyph glyph-name="Idotaccent" unicode="&#x130;" horiz-adv-x="443" 
d="M50 0v130h92v440h-92v130h343v-130h-92v-440h92v-130h-343zM147 768v122h150v-122h-150z" />
    <glyph glyph-name="dotlessi" unicode="&#x131;" horiz-adv-x="325" 
d="M110 0v386h-90v124h240v-510h-150z" />
    <glyph glyph-name="IJ" unicode="&#x132;" horiz-adv-x="932" 
d="M627 -12q-48 0 -82.5 9.5t-71.5 22.5v140q35 -16 67 -23t65 -7q51 0 79 21t28 69v350h-140v130h300v-480q0 -112 -66 -172t-179 -60zM50 0v130h92v440h-92v130h343v-130h-92v-440h92v-130h-343z" />
    <glyph glyph-name="ij" unicode="&#x133;" horiz-adv-x="650" 
d="M110 0v386h-90v124h240v-510h-150zM110 578v122h150v-122h-150zM369 -222l-34 131q47 11 73.5 33.5t26.5 65.5v379h-90v123h240v-496q0 -60 -19 -103.5t-51 -72t-70 -43t-76 -17.5zM435 578v122h149v-122h-149z" />
    <glyph glyph-name="uni0136" unicode="&#x136;" horiz-adv-x="586" 
d="M70 0v700h156v-285h57l114 285h169l-150 -340l145 -360h-167l-111 285h-57v-285h-156zM253 -331l-94 61q35 29 53.5 57t25 62.5t6.5 80.5h125q0 -59 -10 -104.5t-35.5 -83t-70.5 -73.5z" />
    <glyph glyph-name="uni0137" unicode="&#x137;" horiz-adv-x="523" 
d="M65 0v750h146v-397h37l86 158h164l-125 -220l130 -291h-162l-93 223h-37v-223h-146zM219 -331l-94 61q35 29 53.5 57t25 62.5t6.5 80.5h125q0 -59 -10 -104.5t-35.5 -83t-70.5 -73.5z" />
    <glyph glyph-name="Lacute" unicode="&#x139;" horiz-adv-x="444" 
d="M70 0v700h160v-560h194v-140h-354zM117 768l140 172h150l-140 -172h-150z" />
    <glyph glyph-name="lacute" unicode="&#x13a;" horiz-adv-x="306" 
d="M185 1q-52 0 -86 33.5t-34 85.5v630h146v-604q0 -7 4.5 -11.5t11.5 -4.5h54v-129h-96zM41 818l140 172h150l-140 -172h-150z" />
    <glyph glyph-name="uni013B" unicode="&#x13b;" horiz-adv-x="444" 
d="M70 0v700h160v-560h194v-140h-354zM201 -331l-94 61q35 29 53.5 57t25 62.5t6.5 80.5h125q0 -59 -10 -104.5t-35.5 -83t-70.5 -73.5z" />
    <glyph glyph-name="uni013C" unicode="&#x13c;" horiz-adv-x="306" 
d="M185 1q-52 0 -86 33.5t-34 85.5v630h146v-604q0 -7 4.5 -11.5t11.5 -4.5h54v-129h-96zM113 -331l-94 61q35 29 53.5 57t25 62.5t6.5 80.5h125q0 -59 -10 -104.5t-35.5 -83t-70.5 -73.5z" />
    <glyph glyph-name="Lcaron" unicode="&#x13d;" horiz-adv-x="444" 
d="M70 0v700h160v-560h194v-140h-354zM361 700h140l-105 -172h-117z" />
    <glyph glyph-name="lcaron" unicode="&#x13e;" horiz-adv-x="306" 
d="M185 1q-52 0 -86 33.5t-34 85.5v630h146v-604q0 -7 4.5 -11.5t11.5 -4.5h54v-129h-96zM321 750h140l-105 -172h-117z" />
    <glyph glyph-name="Lslash" unicode="&#x141;" horiz-adv-x="464" 
d="M17 207v139l354 245v-139zM90 0v700h160v-560h194v-140h-354z" />
    <glyph glyph-name="lslash" unicode="&#x142;" horiz-adv-x="336" 
d="M23 240v139l305 212v-139zM205 1q-52 0 -86 33.5t-34 85.5v630h146v-604q0 -7 4.5 -11.5t11.5 -4.5h54v-129h-96z" />
    <glyph glyph-name="Nacute" unicode="&#x143;" horiz-adv-x="640" 
d="M70 0v700h130l219 -384q5 -7 11.5 -4t4.5 10l-15 88v290h150v-700h-130l-218 384q-4 8 -10.5 5t-5.5 -11l14 -88v-290h-150zM215 768l140 172h150l-140 -172h-150z" />
    <glyph glyph-name="nacute" unicode="&#x144;" horiz-adv-x="567" 
d="M65 0v510h150v-28q26 20 56 30t65 10q45 0 84 -16.5t63 -51t24 -88.5v-366h-150v314q0 38 -14 55t-55 17q-40 0 -56.5 -17t-16.5 -55v-314h-150zM179 578l140 172h150l-140 -172h-150z" />
    <glyph glyph-name="uni0145" unicode="&#x145;" horiz-adv-x="640" 
d="M70 0v700h130l219 -384q5 -7 11.5 -4t4.5 10l-15 88v290h150v-700h-130l-218 384q-4 8 -10.5 5t-5.5 -11l14 -88v-290h-150zM277 -331l-94 61q35 29 53.5 57t25 62.5t6.5 80.5h125q0 -59 -10 -104.5t-35.5 -83t-70.5 -73.5z" />
    <glyph glyph-name="uni0146" unicode="&#x146;" horiz-adv-x="567" 
d="M65 0v510h150v-28q26 20 56 30t65 10q45 0 84 -16.5t63 -51t24 -88.5v-366h-150v314q0 38 -14 55t-55 17q-40 0 -56.5 -17t-16.5 -55v-314h-150zM241 -331l-94 61q35 29 53.5 57t25 62.5t6.5 80.5h125q0 -59 -10 -104.5t-35.5 -83t-70.5 -73.5z" />
    <glyph glyph-name="Ncaron" unicode="&#x147;" horiz-adv-x="640" 
d="M70 0v700h130l219 -384q5 -7 11.5 -4t4.5 10l-15 88v290h150v-700h-130l-218 384q-4 8 -10.5 5t-5.5 -11l14 -88v-290h-150zM245 768l-90 172h120l28 -56l10 -34q3 -7 6 -7t6 7l10 34l30 56h120l-90 -172h-150z" />
    <glyph glyph-name="ncaron" unicode="&#x148;" horiz-adv-x="567" 
d="M65 0v510h150v-28q26 20 56 30t65 10q45 0 84 -16.5t63 -51t24 -88.5v-366h-150v314q0 38 -14 55t-55 17q-40 0 -56.5 -17t-16.5 -55v-314h-150zM209 578l-90 172h120l28 -56l10 -34q3 -7 6 -7t6 7l10 34l30 56h120l-90 -172h-150z" />
    <glyph glyph-name="Eng" unicode="&#x14a;" horiz-adv-x="640" 
d="M345 -215q-42 0 -72 11t-62 31l47 125q20 -13 39 -19t48 -7q36 -1 56 14t20 47v160h149v-160q0 -97 -60.5 -149.5t-164.5 -52.5zM70 0v700h130l219 -384q5 -7 11.5 -4t4.5 10l-15 88v290h150v-700h-130l-218 384q-4 8 -10.5 5t-5.5 -11l14 -88v-290h-150z" />
    <glyph glyph-name="eng" unicode="&#x14b;" horiz-adv-x="567" 
d="M291 -222l-34 131q47 11 73.5 31.5t26.5 59.5v314q0 38 -14 55t-55 17q-40 0 -56.5 -17t-16.5 -55v-314h-150v510h150v-28q26 20 56 30t65 10q45 0 84 -16.5t63 -51t24 -88.5v-366q0 -57 -19 -97.5t-51 -67.5t-70 -40.5t-76 -16.5z" />
    <glyph glyph-name="Omacron" unicode="&#x14c;" horiz-adv-x="620" 
d="M310 -12q-52 0 -100.5 16.5t-85.5 53.5q-23 24 -41 56.5t-28 88t-10 147.5t10 147.5t28 88.5t41 56q37 37 85.5 53.5t100.5 16.5t100.5 -16.5t85.5 -53.5q24 -23 41.5 -56t27.5 -88.5t10 -147.5t-10 -147.5t-27.5 -88t-41.5 -56.5q-37 -37 -85.5 -53.5t-100.5 -16.5z
M310 129q42 0 69 26t30 72q2 29 3.5 60t1.5 63t-1.5 63.5t-3.5 59.5q-3 46 -30 72t-69 26t-69 -26t-30 -72q-2 -28 -3.5 -59.5t-1.5 -63.5t1.5 -63t3.5 -60q3 -46 30 -72t69 -26zM159 766v114h301v-114h-301z" />
    <glyph glyph-name="omacron" unicode="&#x14d;" horiz-adv-x="549" 
d="M274 -12q-99 0 -156 50.5t-67 126.5q-6 48 -6 88q0 23 1 45t5 47q11 76 67.5 126.5t155.5 50.5t156.5 -50t67.5 -127q6 -49 6 -92q0 -40 -6 -88q-11 -76 -68 -126.5t-156 -50.5zM274 112q38 0 58 22.5t24 52.5q5 37 5 67.5t-4 67.5q-3 32 -24 54.5t-59 22.5
q-37 0 -58 -22.5t-24 -54.5q-4 -37 -3.5 -67.5t4.5 -66.5q3 -31 23.5 -53.5t57.5 -22.5zM124 576v114h301v-114h-301z" />
    <glyph glyph-name="Ohungarumlaut" unicode="&#x150;" horiz-adv-x="620" 
d="M310 -12q-52 0 -100.5 16.5t-85.5 53.5q-23 24 -41 56.5t-28 88t-10 147.5t10 147.5t28 88.5t41 56q37 37 85.5 53.5t100.5 16.5t100.5 -16.5t85.5 -53.5q24 -23 41.5 -56t27.5 -88.5t10 -147.5t-10 -147.5t-27.5 -88t-41.5 -56.5q-37 -37 -85.5 -53.5t-100.5 -16.5z
M310 129q42 0 69 26t30 72q2 29 3.5 60t1.5 63t-1.5 63.5t-3.5 59.5q-3 46 -30 72t-69 26t-69 -26t-30 -72q-2 -28 -3.5 -59.5t-1.5 -63.5t1.5 -63t3.5 -60q3 -46 30 -72t69 -26zM114 768l140 172h150l-140 -172h-150zM335 768l140 172h150l-140 -172h-150z" />
    <glyph glyph-name="ohungarumlaut" unicode="&#x151;" horiz-adv-x="549" 
d="M274 -12q-99 0 -156 50.5t-67 126.5q-6 48 -6 88q0 23 1 45t5 47q11 76 67.5 126.5t155.5 50.5t156.5 -50t67.5 -127q6 -49 6 -92q0 -40 -6 -88q-11 -76 -68 -126.5t-156 -50.5zM274 112q38 0 58 22.5t24 52.5q5 37 5 67.5t-4 67.5q-3 32 -24 54.5t-59 22.5
q-37 0 -58 -22.5t-24 -54.5q-4 -37 -3.5 -67.5t4.5 -66.5q3 -31 23.5 -53.5t57.5 -22.5zM79 578l140 172h150l-140 -172h-150zM300 578l140 172h150l-140 -172h-150z" />
    <glyph glyph-name="OE" unicode="&#x152;" horiz-adv-x="912" 
d="M310 -12q-52 0 -100.5 16.5t-85.5 53.5q-23 24 -41 56.5t-28 88t-10 147.5t10 147.5t28 88.5t41 56q37 37 85.5 53.5t100.5 16.5q41 0 83 -11l25 -15q6 -4 10 -1.5t4 9.5v6h430v-140h-285v-145h268v-130h-268v-145h285v-140h-430v6q0 7 -4 9.5t-10 -1.5l-28 -16
q-19 -5 -39.5 -7.5t-40.5 -2.5zM310 129q42 0 69 26t30 72q2 29 3.5 60t1.5 63t-1.5 63.5t-3.5 59.5q-3 46 -30 72t-69 26t-69 -26t-30 -72q-2 -28 -3.5 -59.5t-1.5 -63.5t1.5 -63t3.5 -60q3 -46 30 -72t69 -26z" />
    <glyph glyph-name="oe" unicode="&#x153;" horiz-adv-x="836" 
d="M274 -12q-99 0 -156 50.5t-67 126.5q-6 48 -6 88q0 23 1 45t5 47q11 76 67.5 126.5t155.5 50.5q41 0 74.5 -10t59.5 -27l18 -19q4 -4 8.5 -4t8.5 4l18 19q26 16 56.5 25.5t67.5 9.5q55 0 95.5 -16.5t67.5 -48t40 -78t13 -106.5l-21 -52h-274v-9t1 -10q5 -51 36.5 -69.5
t75.5 -18.5q29 0 56 7.5t58 21.5l38 -107q-34 -22 -72.5 -33t-79.5 -11q-47 0 -86.5 10.5t-70.5 29.5l-15 17q-4 5 -8 5t-8 -5l-15 -17q-27 -19 -62.5 -30.5t-79.5 -11.5zM274 112q38 0 58 22.5t24 52.5q5 37 5 67.5t-4 67.5q-3 32 -24 54.5t-59 22.5q-37 0 -58 -22.5
t-24 -54.5q-4 -37 -3.5 -67.5t4.5 -66.5q3 -31 23.5 -53.5t57.5 -22.5zM508 320h157q-2 21 -9 40t-23.5 31t-45.5 12q-38 0 -56 -22t-23 -61z" />
    <glyph glyph-name="Racute" unicode="&#x154;" horiz-adv-x="600" 
d="M70 0v700h261q114 0 176.5 -55t62.5 -155q0 -67 -34 -117t-96 -75q-15 -6 -6 -21l35 -50l83 -227h-159l-103 280h-60v-280h-160zM229 410h108q43 0 67 21t24 59t-24 59t-67 21h-108v-160zM195 768l140 172h150l-140 -172h-150z" />
    <glyph glyph-name="racute" unicode="&#x155;" horiz-adv-x="407" 
d="M80 0v355l-60 88l120 79l38 -56q5 -7 11 -7.5t13 6.5q26 22 66 39.5t102 17.5h17v-132q-88 0 -124.5 -30.5t-36.5 -88.5v-271h-146zM107 568l140 172h150l-140 -172h-150z" />
    <glyph glyph-name="uni0156" unicode="&#x156;" horiz-adv-x="600" 
d="M70 0v700h261q114 0 176.5 -55t62.5 -155q0 -67 -34 -117t-96 -75q-15 -6 -6 -21l35 -50l83 -227h-159l-103 280h-60v-280h-160zM229 410h108q43 0 67 21t24 59t-24 59t-67 21h-108v-160zM257 -331l-94 61q35 29 53.5 57t25 62.5t6.5 80.5h125q0 -59 -10 -104.5
t-35.5 -83t-70.5 -73.5z" />
    <glyph glyph-name="uni0157" unicode="&#x157;" horiz-adv-x="407" 
d="M80 0v355l-60 88l120 79l38 -56q5 -7 11 -7.5t13 6.5q26 22 66 39.5t102 17.5h17v-132q-88 0 -124.5 -30.5t-36.5 -88.5v-271h-146zM100 -331l-94 61q35 29 53.5 57t25 62.5t6.5 80.5h125q0 -59 -10 -104.5t-35.5 -83t-70.5 -73.5z" />
    <glyph glyph-name="Rcaron" unicode="&#x158;" horiz-adv-x="600" 
d="M70 0v700h261q114 0 176.5 -55t62.5 -155q0 -67 -34 -117t-96 -75q-15 -6 -6 -21l35 -50l83 -227h-159l-103 280h-60v-280h-160zM229 410h108q43 0 67 21t24 59t-24 59t-67 21h-108v-160zM225 768l-90 172h120l28 -56l10 -34q3 -7 6 -7t6 7l10 34l30 56h120l-90 -172
h-150z" />
    <glyph glyph-name="rcaron" unicode="&#x159;" horiz-adv-x="407" 
d="M80 0v355l-60 88l120 79l38 -56q5 -7 11 -7.5t13 6.5q26 22 66 39.5t102 17.5h17v-132q-88 0 -124.5 -30.5t-36.5 -88.5v-271h-146zM137 568l-90 172h120l28 -56l10 -34q3 -7 6 -7t6 7l10 34l30 56h120l-90 -172h-150z" />
    <glyph glyph-name="Sacute" unicode="&#x15a;" horiz-adv-x="520" 
d="M246 -10q-68 0 -119.5 16t-101.5 48l46 126q47 -28 84.5 -40t86.5 -12q47 0 75 21t28 61q0 34 -20 55.5t-60 26.5l-37 5q-54 7 -98 30.5t-70 65t-26 102.5q0 66 28 114.5t83.5 75.5t139.5 27q66 0 115 -17t80 -40l-44 -118q-35 19 -71 28t-75 9q-58 0 -82 -21t-24 -48
q0 -29 16.5 -44.5t47.5 -19.5l40 -5q99 -11 153 -68t54 -151q0 -74 -29 -125t-84.5 -76.5t-135.5 -25.5zM155 768l140 172h150l-140 -172h-150z" />
    <glyph glyph-name="sacute" unicode="&#x15b;" horiz-adv-x="476" 
d="M234 -11q-59 0 -102 13.5t-92 43.5l42 108q34 -21 58.5 -30.5t46.5 -12t48 -2.5q38 0 54 13.5t16 32.5q0 16 -10 27.5t-36 12.5l-54 3q-72 4 -118.5 39t-46.5 113q0 83 55.5 127.5t146.5 44.5q57 0 98.5 -10t81.5 -36l-42 -108q-32 21 -64 28t-73 7q-37 0 -55 -12.5
t-18 -30.5q0 -16 11.5 -25t34.5 -11l55 -3q74 -4 119.5 -41t45.5 -114q0 -88 -55 -132.5t-147 -44.5zM133 579l140 172h150l-140 -172h-150z" />
    <glyph glyph-name="Scedilla" unicode="&#x15e;" horiz-adv-x="520" 
d="M246 -10q-68 0 -119.5 16t-101.5 48l46 126q47 -28 84.5 -40t86.5 -12q47 0 75 21t28 61q0 34 -20 55.5t-60 26.5l-37 5q-54 7 -98 30.5t-70 65t-26 102.5q0 66 28 114.5t83.5 75.5t139.5 27q66 0 115 -17t80 -40l-44 -118q-35 19 -71 28t-75 9q-58 0 -82 -21t-24 -48
q0 -29 16.5 -44.5t47.5 -19.5l40 -5q99 -11 153 -68t54 -151q0 -74 -29 -125t-84.5 -76.5t-135.5 -25.5zM140 -260l22 82q55 0 86.5 10.5t31.5 27.5q0 16 -23 21t-82 5l37 149l79 -29l-13 -49q47 -7 74 -32t27 -60q0 -42 -31 -70.5t-84.5 -42t-123.5 -12.5z" />
    <glyph glyph-name="scedilla" unicode="&#x15f;" horiz-adv-x="476" 
d="M234 -11q-59 0 -102 13.5t-92 43.5l42 108q34 -21 58.5 -30.5t46.5 -12t48 -2.5q38 0 54 13.5t16 32.5q0 16 -10 27.5t-36 12.5l-54 3q-72 4 -118.5 39t-46.5 113q0 83 55.5 127.5t146.5 44.5q57 0 98.5 -10t81.5 -36l-42 -108q-32 21 -64 28t-73 7q-37 0 -55 -12.5
t-18 -30.5q0 -16 11.5 -25t34.5 -11l55 -3q74 -4 119.5 -41t45.5 -114q0 -88 -55 -132.5t-147 -44.5zM118 -260l22 82q55 0 86.5 10.5t31.5 27.5q0 16 -23 21t-82 5l37 149l79 -29l-13 -49q47 -7 74 -32t27 -60q0 -42 -31 -70.5t-84.5 -42t-123.5 -12.5z" />
    <glyph glyph-name="Scaron" unicode="&#x160;" horiz-adv-x="520" 
d="M246 -10q-68 0 -119.5 16t-101.5 48l46 126q47 -28 84.5 -40t86.5 -12q47 0 75 21t28 61q0 34 -20 55.5t-60 26.5l-37 5q-54 7 -98 30.5t-70 65t-26 102.5q0 66 28 114.5t83.5 75.5t139.5 27q66 0 115 -17t80 -40l-44 -118q-35 19 -71 28t-75 9q-58 0 -82 -21t-24 -48
q0 -29 16.5 -44.5t47.5 -19.5l40 -5q99 -11 153 -68t54 -151q0 -74 -29 -125t-84.5 -76.5t-135.5 -25.5zM185 768l-90 172h120l28 -56l10 -34q3 -7 6 -7t6 7l10 34l30 56h120l-90 -172h-150z" />
    <glyph glyph-name="scaron" unicode="&#x161;" horiz-adv-x="476" 
d="M234 -11q-59 0 -102 13.5t-92 43.5l42 108q34 -21 58.5 -30.5t46.5 -12t48 -2.5q38 0 54 13.5t16 32.5q0 16 -10 27.5t-36 12.5l-54 3q-72 4 -118.5 39t-46.5 113q0 83 55.5 127.5t146.5 44.5q57 0 98.5 -10t81.5 -36l-42 -108q-32 21 -64 28t-73 7q-37 0 -55 -12.5
t-18 -30.5q0 -16 11.5 -25t34.5 -11l55 -3q74 -4 119.5 -41t45.5 -114q0 -88 -55 -132.5t-147 -44.5zM163 579l-90 172h120l28 -56l10 -34q3 -7 6 -7t6 7l10 34l30 56h120l-90 -172h-150z" />
    <glyph glyph-name="Tcaron" unicode="&#x164;" horiz-adv-x="510" 
d="M175 0v560h-155v140h470v-140h-155v-560h-160zM180 768l-90 172h120l28 -56l10 -34q3 -7 6 -7t6 7l10 34l30 56h120l-90 -172h-150z" />
    <glyph glyph-name="tcaron" unicode="&#x165;" horiz-adv-x="377" 
d="M219 1q-52 0 -86 33.5t-34 85.5v270h-79v120h63q10 0 14.5 5.5t8.5 24t11 56.5l6 34h122v-120h83v-120h-83v-244q0 -7 4.5 -11.5t11.5 -4.5h76v-129h-118zM352 750h140l-105 -172h-117z" />
    <glyph glyph-name="Tbar" unicode="&#x166;" horiz-adv-x="510" 
d="M175 0v560h-155v140h470v-140h-155v-560h-160zM85 293v114h340v-114h-340z" />
    <glyph glyph-name="tbar" unicode="&#x167;" horiz-adv-x="377" 
d="M219 1q-52 0 -86 33.5t-34 85.5v270h-79v120h63q10 0 14.5 5.5t8.5 24t11 56.5l6 34h122v-120h83v-120h-83v-244q0 -7 4.5 -11.5t11.5 -4.5h76v-129h-118zM19 198v114h340v-114h-340z" />
    <glyph glyph-name="Umacron" unicode="&#x16a;" horiz-adv-x="604" 
d="M302 -10q-71 0 -126 28.5t-85.5 79.5t-30.5 118v484h160v-487q0 -37 22.5 -59.5t59.5 -22.5q35 0 58.5 22.5t23.5 59.5v487h160l-3 -484q0 -67 -30.5 -118t-84 -79.5t-124.5 -28.5zM151 766v114h301v-114h-301z" />
    <glyph glyph-name="umacron" unicode="&#x16b;" horiz-adv-x="567" 
d="M231 -10q-44 0 -83.5 17t-63.5 51.5t-24 86.5v366h150v-314q0 -37 14 -54.5t55 -17.5t57 17.5t16 54.5v314h150v-511h-152v23q0 8 -5 11t-16 -3l-64 -37q-15 -4 -34 -4zM135 576v114h301v-114h-301z" />
    <glyph glyph-name="Ubreve" unicode="&#x16c;" horiz-adv-x="604" 
d="M302 -10q-71 0 -126 28.5t-85.5 79.5t-30.5 118v484h160v-487q0 -37 22.5 -59.5t59.5 -22.5q35 0 58.5 22.5t23.5 59.5v487h160l-3 -484q0 -67 -30.5 -118t-84 -79.5t-124.5 -28.5zM302 782q-80 0 -120.5 34.5t-60.5 92.5l101 25q10 -28 30.5 -42.5t49.5 -14.5t49.5 14.5
t30.5 42.5l101 -25q-20 -58 -60.5 -92.5t-120.5 -34.5z" />
    <glyph glyph-name="ubreve" unicode="&#x16d;" horiz-adv-x="567" 
d="M231 -10q-44 0 -83.5 17t-63.5 51.5t-24 86.5v366h150v-314q0 -37 14 -54.5t55 -17.5t57 17.5t16 54.5v314h150v-511h-152v23q0 8 -5 11t-16 -3l-64 -37q-15 -4 -34 -4zM286 592q-80 0 -120.5 34.5t-60.5 92.5l101 25q10 -28 30.5 -42.5t49.5 -14.5t49.5 14.5t30.5 42.5
l101 -25q-20 -58 -60.5 -92.5t-120.5 -34.5z" />
    <glyph glyph-name="Uring" unicode="&#x16e;" horiz-adv-x="604" 
d="M302 -10q-71 0 -126 28.5t-85.5 79.5t-30.5 118v484h160v-487q0 -37 22.5 -59.5t59.5 -22.5q35 0 58.5 22.5t23.5 59.5v487h160l-3 -484q0 -67 -30.5 -118t-84 -79.5t-124.5 -28.5zM303 751q-41 0 -77 10.5t-58.5 35.5t-22.5 68q0 44 23 68.5t59.5 34.5t75.5 10t74.5 -10
t58.5 -34.5t23 -68.5t-23 -69t-58.5 -35t-74.5 -10zM301 824q24 0 40.5 7.5t16.5 33.5t-16.5 33t-40.5 7q-25 0 -40 -7.5t-15 -32.5q0 -26 16.5 -33.5t38.5 -7.5z" />
    <glyph glyph-name="uring" unicode="&#x16f;" horiz-adv-x="567" 
d="M231 -10q-44 0 -83.5 17t-63.5 51.5t-24 86.5v366h150v-314q0 -37 14 -54.5t55 -17.5t57 17.5t16 54.5v314h150v-511h-152v23q0 8 -5 11t-16 -3l-64 -37q-15 -4 -34 -4zM287 561q-41 0 -77 10.5t-58.5 35.5t-22.5 68q0 44 23 68.5t59.5 34.5t75.5 10t74.5 -10t58.5 -34.5
t23 -68.5t-23 -69t-58.5 -35t-74.5 -10zM285 634q24 0 40.5 7.5t16.5 33.5t-16.5 33t-40.5 7q-25 0 -40 -7.5t-15 -32.5q0 -26 16.5 -33.5t38.5 -7.5z" />
    <glyph glyph-name="Uhungarumlaut" unicode="&#x170;" horiz-adv-x="604" 
d="M302 -10q-71 0 -126 28.5t-85.5 79.5t-30.5 118v484h160v-487q0 -37 22.5 -59.5t59.5 -22.5q35 0 58.5 22.5t23.5 59.5v487h160l-3 -484q0 -67 -30.5 -118t-84 -79.5t-124.5 -28.5zM106 768l140 172h150l-140 -172h-150zM327 768l140 172h150l-140 -172h-150z" />
    <glyph glyph-name="uhungarumlaut" unicode="&#x171;" horiz-adv-x="567" 
d="M231 -10q-44 0 -83.5 17t-63.5 51.5t-24 86.5v366h150v-314q0 -37 14 -54.5t55 -17.5t57 17.5t16 54.5v314h150v-511h-152v23q0 8 -5 11t-16 -3l-64 -37q-15 -4 -34 -4zM90 578l140 172h150l-140 -172h-150zM311 578l140 172h150l-140 -172h-150z" />
    <glyph glyph-name="Uogonek" unicode="&#x172;" horiz-adv-x="604" 
d="M302 -10q-71 0 -126 28.5t-85.5 79.5t-30.5 118v484h160v-487q0 -37 22.5 -59.5t59.5 -22.5q35 0 58.5 22.5t23.5 59.5v487h160l-3 -484q0 -67 -30.5 -118t-84 -79.5t-124.5 -28.5zM412 -265q-67 1 -118.5 17t-80.5 51.5t-29 92.5q0 47 24.5 80t68.5 51l102 -27
q-39 -21 -55 -40t-16 -51q0 -37 32 -52t87 -16z" />
    <glyph glyph-name="uogonek" unicode="&#x173;" horiz-adv-x="567" 
d="M231 -10q-44 0 -83.5 17t-63.5 51.5t-24 86.5v366h150v-314q0 -37 14 -54.5t55 -17.5t57 17.5t16 54.5v314h150v-511h-152v23q0 8 -5 11t-16 -3l-64 -37q-15 -4 -34 -4zM535 -265q-67 1 -118.5 17t-80.5 51.5t-29 92.5q0 47 24.5 80t68.5 51l102 -27q-39 -21 -55 -40
t-16 -51q0 -37 32 -52t87 -16z" />
    <glyph glyph-name="Wcircumflex" unicode="&#x174;" horiz-adv-x="640" 
d="M107 0l-77 700h143l33 -300v-108q0 -11 7.5 -11t9.5 7l61 222h72l61 -222q2 -7 9.5 -7.5t7.5 11.5v108l33 300h143l-77 -700h-140l-64 247q-2 8 -9 8t-9 -8l-64 -247h-140zM155 768l90 172h150l90 -172h-120l-30 56l-10 34q-3 7 -6 7t-6 -7l-10 -34l-28 -56h-120z" />
    <glyph glyph-name="wcircumflex" unicode="&#x175;" horiz-adv-x="680" 
d="M120 0l-80 510h140l30 -220v-88q0 -11 7.5 -11t9.5 7l77 312h72l77 -312q2 -7 9.5 -7.5t7.5 11.5v88l30 220h140l-80 -510h-135l-76 237q-2 8 -9 8t-9 -8l-76 -237h-135zM175 578l90 172h150l90 -172h-120l-30 56l-10 34q-3 7 -6 7t-6 -7l-10 -34l-28 -56h-120z" />
    <glyph glyph-name="Ycircumflex" unicode="&#x176;" horiz-adv-x="508" 
d="M174 0v255l-174 445h161l74 -200l11 -78q2 -9 8 -9t9 9l12 78l74 200h159l-174 -445v-255h-160zM89 768l90 172h150l90 -172h-120l-30 56l-10 34q-3 7 -6 7t-6 -7l-10 -34l-28 -56h-120z" />
    <glyph glyph-name="ycircumflex" unicode="&#x177;" horiz-adv-x="483" 
d="M68 -214l-36 127q53 5 86.5 29t43.5 60l15 54l-167 454h153l62 -217l10 -93q1 -9 8.5 -9t8.5 9l11 93l50 217h150l-165 -553q-21 -74 -82.5 -121t-147.5 -50zM77 578l90 172h150l90 -172h-120l-30 56l-10 34q-3 7 -6 7t-6 -7l-10 -34l-28 -56h-120z" />
    <glyph glyph-name="Ydieresis" unicode="&#x178;" horiz-adv-x="508" 
d="M174 0v255l-174 445h161l74 -200l11 -78q2 -9 8 -9t9 9l12 78l74 200h159l-174 -445v-255h-160zM289 768v122h134v-122h-134zM85 768v122h134v-122h-134z" />
    <glyph glyph-name="Zacute" unicode="&#x179;" horiz-adv-x="537" 
d="M35 0v98l251 422l35 32q6 6 4 12t-10 6h-135v-66h-145v196h467v-98l-250 -412l-35 -32q-6 -6 -4 -12t10 -6h279v-140h-467zM159 768l140 172h150l-140 -172h-150z" />
    <glyph glyph-name="zacute" unicode="&#x17a;" horiz-adv-x="479" 
d="M45 0v104l185 242l33 28q8 7 6 11.5t-9 4.5h-215v120h389v-103l-186 -243l-33 -28q-8 -7 -6 -11.5t9 -4.5h216v-120h-389zM135 578l140 172h150l-140 -172h-150z" />
    <glyph glyph-name="Zdotaccent" unicode="&#x17b;" horiz-adv-x="537" 
d="M35 0v98l251 422l35 32q6 6 4 12t-10 6h-135v-66h-145v196h467v-98l-250 -412l-35 -32q-6 -6 -4 -12t10 -6h279v-140h-467zM189 768v122h150v-122h-150z" />
    <glyph glyph-name="zdotaccent" unicode="&#x17c;" horiz-adv-x="479" 
d="M45 0v104l185 242l33 28q8 7 6 11.5t-9 4.5h-215v120h389v-103l-186 -243l-33 -28q-8 -7 -6 -11.5t9 -4.5h216v-120h-389zM165 578v122h150v-122h-150z" />
    <glyph glyph-name="Zcaron" unicode="&#x17d;" horiz-adv-x="537" 
d="M35 0v98l251 422l35 32q6 6 4 12t-10 6h-135v-66h-145v196h467v-98l-250 -412l-35 -32q-6 -6 -4 -12t10 -6h279v-140h-467zM189 768l-90 172h120l28 -56l10 -34q3 -7 6 -7t6 7l10 34l30 56h120l-90 -172h-150z" />
    <glyph glyph-name="zcaron" unicode="&#x17e;" horiz-adv-x="479" 
d="M45 0v104l185 242l33 28q8 7 6 11.5t-9 4.5h-215v120h389v-103l-186 -243l-33 -28q-8 -7 -6 -11.5t9 -4.5h216v-120h-389zM165 578l-90 172h120l28 -56l10 -34q3 -7 6 -7t6 7l10 34l30 56h120l-90 -172h-150z" />
    <glyph glyph-name="uni01B7" unicode="&#x1b7;" horiz-adv-x="534" 
d="M250 -10q-70 0 -126 15.5t-109 58.5l47 127q29 -24 55 -38t55 -20t67 -6q52 0 79.5 21t27.5 59q0 40 -26 67.5t-88 27.5h-106v90l99 133l30 27q8 6 5 12t-11 6h-214v130h417v-98l-199 -228l-12 60q119 -6 186 -58t67 -163q0 -58 -23 -100t-59.5 -69.5t-79.5 -40.5
t-82 -13z" />
    <glyph glyph-name="uni01CD" unicode="&#x1cd;" 
d="M30 0l170 700h220l170 -700h-159l-105 497l-7 63q-1 9 -9 9t-9 -9l-7 -63l-105 -497h-159zM207 162l29 130h147l30 -130h-206zM95 570v130h120l-20 -130h-100zM235 768l-90 172h120l28 -56l10 -34q3 -7 6 -7t6 7l10 34l30 56h120l-90 -172h-150z" />
    <glyph glyph-name="uni01CE" unicode="&#x1ce;" horiz-adv-x="505" 
d="M370 -12l-32 43q-11 14 -23 3q-23 -18 -52.5 -30t-70.5 -12q-73 0 -115 42.5t-42 107.5q0 48 23.5 81t63.5 49.5t89 16.5h87v49q0 31 -22 47t-67 16q-34 0 -65 -11t-62 -29l-41 112q39 23 84 36t95 13q109 0 160.5 -51.5t51.5 -131.5v-200l53 -76zM224 97q35 0 54.5 21.5
t19.5 55.5v13q0 13 -18 8l-36 -11h-31q-24 0 -36 -10.5t-12 -29.5t17 -33t42 -14zM178 578l-90 172h120l28 -56l10 -34q3 -7 6 -7t6 7l10 34l30 56h120l-90 -172h-150z" />
    <glyph glyph-name="uni01E4" unicode="&#x1e4;" horiz-adv-x="598" 
d="M314 -10q-119 -1 -186.5 56.5t-76.5 167.5q-2 29 -4 67t-2 69q0 32 1.5 69.5t4.5 66.5q13 111 86 168.5t189 57.5q114 0 196 -61l-49 -125q-31 28 -68.5 37t-78.5 9q-64 0 -93.5 -29t-34.5 -82q-2 -27 -3.5 -54t-1.5 -57t1.5 -57.5t3.5 -62.5q4 -49 31.5 -74t74.5 -26
q21 0 42 2t40 6v282h130v-376q-31 -22 -80.5 -37t-121.5 -17zM318 203v140h260v-140h-260z" />
    <glyph glyph-name="uni01E5" unicode="&#x1e5;" horiz-adv-x="600" 
d="M267 -214q-39 0 -68 4t-57 14t-66 27l42 108q30 -15 49 -22t38.5 -9t52.5 -2q41 0 66.5 18t25.5 58v102q0 8 -6 10.5t-14 -2.5l-67 -19q-9 -1 -19.5 -2t-23.5 -1q-73 0 -117.5 40.5t-52.5 113.5q-2 22 -3 39.5t-1 33.5q0 17 1 34t3 37q8 74 53.5 114t136.5 40
q32 0 61.5 -12t47.5 -29v29h150v-534q0 -48 -28 -91.5t-79.5 -71t-124.5 -27.5zM211 -54v94h376v-94h-376zM272 193q37 0 57 11.5t20 28.5v105q0 32 -18 45.5t-59 13.5q-34 0 -51.5 -15t-22.5 -41q-3 -20 -3.5 -44t3.5 -48q5 -26 21 -41t53 -15z" />
    <glyph glyph-name="Gcaron" unicode="&#x1e6;" horiz-adv-x="598" 
d="M314 -10q-119 -1 -186.5 56.5t-76.5 167.5q-2 29 -4 67t-2 69q0 32 1.5 69.5t4.5 66.5q13 111 86 168.5t189 57.5q114 0 196 -61l-49 -125q-31 28 -68.5 37t-78.5 9q-64 0 -93.5 -29t-34.5 -82q-2 -27 -3.5 -54t-1.5 -57t1.5 -57.5t3.5 -62.5q4 -49 31.5 -74t74.5 -26
q21 0 42 2t40 6v142h-68v140h260v-140h-62v-236q-31 -22 -80.5 -37t-121.5 -17zM219 768l-90 172h120l28 -56l10 -34q3 -7 6 -7t6 7l10 34l30 56h120l-90 -172h-150z" />
    <glyph glyph-name="gcaron" unicode="&#x1e7;" horiz-adv-x="559" 
d="M257 -214q-37 0 -64.5 4t-54 14t-62.5 27l42 108q30 -15 49 -22t38.5 -9t52.5 -2q41 0 66.5 23t25.5 73v22q0 8 -6 10.5t-14 -2.5l-67 -39q-9 -1 -19.5 -2t-23.5 -1q-73 0 -118 43t-52 121q-3 31 -4 55.5t-1 47.5q0 24 1 48t4 53q7 79 53 121.5t137 42.5q32 0 61.5 -12
t47.5 -29v29h150v-534q0 -48 -29 -91.5t-83 -71t-130 -27.5zM272 113q37 0 57 19.5t20 50.5v145q0 32 -18 50.5t-59 18.5q-34 0 -52 -16.5t-20 -39.5q-4 -43 -4 -86.5t4 -85.5q2 -23 18.5 -39.5t53.5 -16.5zM202 578l-90 172h120l28 -56l10 -34q3 -7 6 -7t6 7l10 34l30 56
h120l-90 -172h-150z" />
    <glyph glyph-name="uni01E8" unicode="&#x1e8;" horiz-adv-x="586" 
d="M70 0v700h156v-285h57l114 285h169l-150 -340l145 -360h-167l-111 285h-57v-285h-156zM221 768l-90 172h120l28 -56l10 -34q3 -7 6 -7t6 7l10 34l30 56h120l-90 -172h-150z" />
    <glyph glyph-name="uni01E9" unicode="&#x1e9;" horiz-adv-x="523" 
d="M65 0v750h146v-397h37l86 158h164l-125 -220l130 -291h-162l-93 223h-37v-223h-146zM230 768l-90 172h120l28 -56l10 -34q3 -7 6 -7t6 7l10 34l30 56h120l-90 -172h-150z" />
    <glyph glyph-name="uni01EE" unicode="&#x1ee;" horiz-adv-x="534" 
d="M250 -10q-70 0 -126 15.5t-109 58.5l47 127q29 -24 55 -38t55 -20t67 -6q52 0 79.5 21t27.5 59q0 40 -26 67.5t-88 27.5h-106v90l99 133l30 27q8 6 5 12t-11 6h-214v130h417v-98l-199 -228l-12 60q119 -6 186 -58t67 -163q0 -58 -23 -100t-59.5 -69.5t-79.5 -40.5
t-82 -13zM192 768l-90 172h120l28 -56l10 -34q3 -7 6 -7t6 7l10 34l30 56h120l-90 -172h-150z" />
    <glyph glyph-name="uni01EF" unicode="&#x1ef;" horiz-adv-x="534" 
d="M220 -260q-61 0 -109.5 15.5t-95.5 58.5l47 117q36 -31 71.5 -42.5t75.5 -11.5q66 0 101.5 31t35.5 89q0 48 -28.5 81.5t-95.5 33.5h-96v90l99 133l30 27q8 6 5 12t-11 6h-214v130h417v-98l-199 -228l-9 60q118 -7 184 -63.5t66 -177.5q0 -69 -25.5 -118.5t-67 -81.5
t-89.5 -47.5t-92 -15.5zM192 578l-90 172h120l28 -56l10 -34q3 -7 6 -7t6 7l10 34l30 56h120l-90 -172h-150z" />
    <glyph glyph-name="uni0218" unicode="&#x218;" horiz-adv-x="520" 
d="M246 -10q-68 0 -119.5 16t-101.5 48l46 126q47 -28 84.5 -40t86.5 -12q47 0 75 21t28 61q0 34 -20 55.5t-60 26.5l-37 5q-54 7 -98 30.5t-70 65t-26 102.5q0 66 28 114.5t83.5 75.5t139.5 27q66 0 115 -17t80 -40l-44 -118q-35 19 -71 28t-75 9q-58 0 -82 -21t-24 -48
q0 -29 16.5 -44.5t47.5 -19.5l40 -5q99 -11 153 -68t54 -151q0 -74 -29 -125t-84.5 -76.5t-135.5 -25.5zM217 -331l-94 61q35 29 53.5 57t25 62.5t6.5 80.5h125q0 -59 -10 -104.5t-35.5 -83t-70.5 -73.5z" />
    <glyph glyph-name="uni0219" unicode="&#x219;" horiz-adv-x="476" 
d="M234 -11q-59 0 -102 13.5t-92 43.5l42 108q34 -21 58.5 -30.5t46.5 -12t48 -2.5q38 0 54 13.5t16 32.5q0 16 -10 27.5t-36 12.5l-54 3q-72 4 -118.5 39t-46.5 113q0 83 55.5 127.5t146.5 44.5q57 0 98.5 -10t81.5 -36l-42 -108q-32 21 -64 28t-73 7q-37 0 -55 -12.5
t-18 -30.5q0 -16 11.5 -25t34.5 -11l55 -3q74 -4 119.5 -41t45.5 -114q0 -88 -55 -132.5t-147 -44.5zM195 -331l-94 61q35 29 53.5 57t25 62.5t6.5 80.5h125q0 -59 -10 -104.5t-35.5 -83t-70.5 -73.5z" />
    <glyph glyph-name="uni021A" unicode="&#x21a;" horiz-adv-x="510" 
d="M175 0v560h-155v140h470v-140h-155v-560h-160zM208 -331l-94 61q35 29 53.5 57t25 62.5t6.5 80.5h125q0 -59 -10 -104.5t-35.5 -83t-70.5 -73.5z" />
    <glyph glyph-name="uni021B" unicode="&#x21b;" horiz-adv-x="377" 
d="M219 1q-52 0 -86 33.5t-34 85.5v270h-79v120h63q10 0 14.5 5.5t8.5 24t11 56.5l6 34h122v-120h83v-120h-83v-244q0 -7 4.5 -11.5t11.5 -4.5h76v-129h-118zM146 -331l-94 61q35 29 53.5 57t25 62.5t6.5 80.5h125q0 -59 -10 -104.5t-35.5 -83t-70.5 -73.5z" />
    <glyph glyph-name="uni0237" unicode="&#x237;" horiz-adv-x="325" 
d="M44 -222l-34 131q47 11 73.5 33.5t26.5 65.5v379h-90v123h240v-496q0 -60 -19 -103.5t-51 -72t-70 -43t-76 -17.5z" />
    <glyph glyph-name="uni0292" unicode="&#x292;" horiz-adv-x="534" 
d="M220 -260q-61 0 -109.5 15.5t-95.5 58.5l47 117q36 -31 71.5 -42.5t75.5 -11.5q66 0 101.5 31t35.5 89q0 48 -28.5 81.5t-95.5 33.5h-96v90l99 133l30 27q8 6 5 12t-11 6h-214v130h417v-98l-199 -228l-9 60q118 -7 184 -63.5t66 -177.5q0 -69 -25.5 -118.5t-67 -81.5
t-89.5 -47.5t-92 -15.5z" />
    <glyph glyph-name="uni02B9" unicode="&#x2b9;" horiz-adv-x="183" 
d="M10 400l86 350h164l-169 -350h-81z" />
    <glyph glyph-name="uni02BC" unicode="&#x2bc;" horiz-adv-x="342" 
d="M60 395l14 76q59 5 90 40.5t31 93.5h-88v145h175v-114q0 -84 -31.5 -136t-82.5 -77t-108 -28z" />
    <glyph glyph-name="circumflex" unicode="&#x2c6;" horiz-adv-x="430" 
d="M50 578l90 172h150l90 -172h-120l-30 56l-10 34q-3 7 -6 7t-6 -7l-10 -34l-28 -56h-120z" />
    <glyph glyph-name="caron" unicode="&#x2c7;" horiz-adv-x="430" 
d="M140 578l-90 172h120l28 -56l10 -34q3 -7 6 -7t6 7l10 34l30 56h120l-90 -172h-150z" />
    <glyph glyph-name="uni02C8" unicode="&#x2c8;" horiz-adv-x="193" 
d="M30 400v350h133v-350h-133z" />
    <glyph glyph-name="breve" unicode="&#x2d8;" horiz-adv-x="478" 
d="M239 592q-80 0 -120.5 34.5t-60.5 92.5l101 25q10 -28 30.5 -42.5t49.5 -14.5t49.5 14.5t30.5 42.5l101 -25q-20 -58 -60.5 -92.5t-120.5 -34.5z" />
    <glyph glyph-name="dotaccent" unicode="&#x2d9;" horiz-adv-x="270" 
d="M50 578v122h150v-122h-150z" />
    <glyph glyph-name="ring" unicode="&#x2da;" horiz-adv-x="414" 
d="M208 561q-41 0 -77 10.5t-58.5 35.5t-22.5 68q0 44 23 68.5t59.5 34.5t75.5 10t74.5 -10t58.5 -34.5t23 -68.5t-23 -69t-58.5 -35t-74.5 -10zM206 634q24 0 40.5 7.5t16.5 33.5t-16.5 33t-40.5 7q-25 0 -40 -7.5t-15 -32.5q0 -26 16.5 -33.5t38.5 -7.5z" />
    <glyph glyph-name="ogonek" unicode="&#x2db;" horiz-adv-x="398" 
d="M273 -265q-67 1 -118.5 17t-80.5 51.5t-29 92.5q0 47 24.5 80t68.5 51l102 -27q-39 -21 -55 -40t-16 -51q0 -37 32 -52t87 -16z" />
    <glyph glyph-name="tilde" unicode="&#x2dc;" horiz-adv-x="460" 
d="M90 564l-40 92q21 23 47 33.5t59 10.5q38 0 60 -8.5t40 -17t42 -8.5q23 0 40.5 9.5t31.5 25.5l40 -92q-21 -22 -47 -33t-59 -11q-37 0 -59.5 8.5t-40.5 17t-42 8.5q-22 0 -40 -9.5t-32 -25.5z" />
    <glyph glyph-name="hungarumlaut" unicode="&#x2dd;" horiz-adv-x="611" 
d="M50 578l140 172h150l-140 -172h-150zM271 578l140 172h150l-140 -172h-150z" />
    <glyph glyph-name="gravecomb" unicode="&#x300;" horiz-adv-x="0" 
d="M190 578l-140 172h150l140 -172h-150z" />
    <glyph glyph-name="acutecomb" unicode="&#x301;" horiz-adv-x="0" 
d="M50 578l140 172h150l-140 -172h-150z" />
    <glyph glyph-name="uni0302" unicode="&#x302;" horiz-adv-x="0" 
d="M50 578l90 172h150l90 -172h-120l-30 56l-10 34q-3 7 -6 7t-6 -7l-10 -34l-28 -56h-120z" />
    <glyph glyph-name="tildecomb" unicode="&#x303;" horiz-adv-x="0" 
d="M90 564l-40 92q21 23 47 33.5t59 10.5q38 0 60 -8.5t40 -17t42 -8.5q23 0 40.5 9.5t31.5 25.5l40 -92q-21 -22 -47 -33t-59 -11q-37 0 -59.5 8.5t-40.5 17t-42 8.5q-22 0 -40 -9.5t-32 -25.5z" />
    <glyph glyph-name="uni0304" unicode="&#x304;" horiz-adv-x="0" 
d="M50 576v114h301v-114h-301z" />
    <glyph glyph-name="uni0306" unicode="&#x306;" horiz-adv-x="0" 
d="M239 592q-80 0 -120.5 34.5t-60.5 92.5l101 25q10 -28 30.5 -42.5t49.5 -14.5t49.5 14.5t30.5 42.5l101 -25q-20 -58 -60.5 -92.5t-120.5 -34.5z" />
    <glyph glyph-name="uni0307" unicode="&#x307;" horiz-adv-x="0" 
d="M50 578v122h150v-122h-150z" />
    <glyph glyph-name="uni0308" unicode="&#x308;" horiz-adv-x="0" 
d="M254 578v122h134v-122h-134zM50 578v122h134v-122h-134z" />
    <glyph glyph-name="uni030A" unicode="&#x30a;" horiz-adv-x="0" 
d="M208 561q-41 0 -77 10.5t-58.5 35.5t-22.5 68q0 44 23 68.5t59.5 34.5t75.5 10t74.5 -10t58.5 -34.5t23 -68.5t-23 -69t-58.5 -35t-74.5 -10zM206 634q24 0 40.5 7.5t16.5 33.5t-16.5 33t-40.5 7q-25 0 -40 -7.5t-15 -32.5q0 -26 16.5 -33.5t38.5 -7.5z" />
    <glyph glyph-name="uni030B" unicode="&#x30b;" horiz-adv-x="0" 
d="M50 578l140 172h150l-140 -172h-150zM271 578l140 172h150l-140 -172h-150z" />
    <glyph glyph-name="uni030C" unicode="&#x30c;" horiz-adv-x="0" 
d="M140 578l-90 172h120l28 -56l10 -34q3 -7 6 -7t6 7l10 34l30 56h120l-90 -172h-150z" />
    <glyph glyph-name="uni0312" unicode="&#x312;" horiz-adv-x="0" 
d="M285 905l-14 -76q-73 -2 -112 -38.5t-39 -95.5h88v-145h-175v114q0 84 36 137t94 78t122 26z" />
    <glyph glyph-name="uni0326" unicode="&#x326;" horiz-adv-x="0" 
d="M144 -331l-94 61q35 29 53.5 57t25 62.5t6.5 80.5h125q0 -59 -10 -104.5t-35.5 -83t-70.5 -73.5z" />
    <glyph glyph-name="uni0327" unicode="&#x327;" horiz-adv-x="0" 
d="M50 -260l22 82q55 0 86.5 10.5t31.5 27.5q0 16 -23 21t-82 5l37 149l79 -29l-13 -49q47 -7 74 -32t27 -60q0 -42 -31 -70.5t-84.5 -42t-123.5 -12.5z" />
    <glyph glyph-name="uni0328" unicode="&#x328;" horiz-adv-x="0" 
d="M273 -265q-67 1 -118.5 17t-80.5 51.5t-29 92.5q0 47 24.5 80t68.5 51l102 -27q-39 -21 -55 -40t-16 -51q0 -37 32 -52t87 -16z" />
    <glyph glyph-name="uni0335" unicode="&#x335;" horiz-adv-x="0" 
d="M50 215v114h340v-114h-340z" />
    <glyph glyph-name="uni0336" unicode="&#x336;" horiz-adv-x="0" 
d="M-50 215v114h851v-114h-851z" />
    <glyph glyph-name="uni0337" unicode="&#x337;" horiz-adv-x="0" 
d="M40 0l387 510h128l-387 -510h-128z" />
    <glyph glyph-name="uni0338" unicode="&#x338;" horiz-adv-x="0" 
d="M40 0l531 700h128l-531 -700h-128z" />
    <glyph glyph-name="uni03BC" unicode="&#x3bc;" horiz-adv-x="572" 
d="M60 -164v675h150v-314q0 -37 14 -54.5t55 -17.5t57 17.5t16 54.5v314h150v-511h-152v23q0 8 -5 11t-16 -3l-64 -37q-15 -4 -34 -4h-10.5t-10.5 1v-155h-150z" />
    <glyph glyph-name="uni0400" unicode="&#x400;" horiz-adv-x="550" 
d="M70 0v700h430v-140h-285v-145h268v-130h-268v-145h285v-140h-430zM250 768l-140 172h150l140 -172h-150z" />
    <glyph glyph-name="uni0401" unicode="&#x401;" horiz-adv-x="550" 
d="M70 0v700h430v-140h-285v-145h268v-130h-268v-145h285v-140h-430zM330 768v122h134v-122h-134zM126 768v122h134v-122h-134z" />
    <glyph glyph-name="uni0402" unicode="&#x402;" horiz-adv-x="721" 
d="M466 -9q-22 0 -45 3t-38 7l28 125q15 -5 33 -5q25 0 40.5 13t22.5 33.5t7 44.5q0 43 -26 63.5t-70 20.5q-25 0 -47.5 -5.5t-35.5 -10.5v131q0 -8 5 -11t15 1l58 26q13 2 26 3t26 1q59 0 107 -22.5t76 -70.5t28 -126q0 -63 -24 -113t-70.5 -79t-115.5 -29zM175 0v560h-155
v140h470v-140h-155v-560h-160z" />
    <glyph glyph-name="uni0403" unicode="&#x403;" horiz-adv-x="474" 
d="M70 0v700h384v-140h-224v-560h-160zM137 768l140 172h150l-140 -172h-150z" />
    <glyph glyph-name="uni0404" unicode="&#x404;" horiz-adv-x="524" 
d="M317 -12q-74 0 -132.5 28t-94 77.5t-40.5 114.5q-2 32 -3.5 70t-1.5 72t1.5 72.5t3.5 69.5q5 65 39.5 114.5t90.5 77.5t127 28q58 0 100 -11t84 -33l-41 -131q-33 20 -59.5 27.5t-66.5 7.5q-50 0 -80.5 -23.5t-33.5 -64.5q-2 -38 -3.5 -69.5t-1.5 -64.5t1.5 -64t3.5 -70
q4 -42 32 -65t75 -22q44 0 72.5 10.5t57.5 25.5l47 -125q-41 -25 -81 -38.5t-96 -13.5zM118 285v130h288v-130h-288z" />
    <glyph glyph-name="uni0405" unicode="&#x405;" horiz-adv-x="520" 
d="M246 -10q-68 0 -119.5 16t-101.5 48l46 126q47 -28 84.5 -40t86.5 -12q47 0 75 21t28 61q0 34 -20 55.5t-60 26.5l-37 5q-54 7 -98 30.5t-70 65t-26 102.5q0 66 28 114.5t83.5 75.5t139.5 27q66 0 115 -17t80 -40l-44 -118q-35 19 -71 28t-75 9q-58 0 -82 -21t-24 -48
q0 -29 16.5 -44.5t47.5 -19.5l40 -5q99 -11 153 -68t54 -151q0 -74 -29 -125t-84.5 -76.5t-135.5 -25.5z" />
    <glyph glyph-name="uni0406" unicode="&#x406;" horiz-adv-x="443" 
d="M50 0v130h92v440h-92v130h343v-130h-92v-440h92v-130h-343z" />
    <glyph glyph-name="uni0407" unicode="&#x407;" horiz-adv-x="443" 
d="M50 0v130h92v440h-92v130h343v-130h-92v-440h92v-130h-343zM257 768v122h134v-122h-134zM53 768v122h134v-122h-134z" />
    <glyph glyph-name="uni0408" unicode="&#x408;" horiz-adv-x="479" 
d="M174 -12q-51 0 -88.5 13.5t-75.5 38.5l47 125q18 -11 34.5 -19.5t36.5 -12.5t46 -4q41 -1 63 21t22 70v350h-140v130h300v-480q0 -112 -66 -172t-179 -60z" />
    <glyph glyph-name="uni0409" unicode="&#x409;" horiz-adv-x="926" 
d="M46 -12l-36 132q42 8 64.5 34.5t29.5 72.5q9 86 13.5 201.5t5.5 271.5h327v-140h-179q-3 -116 -7 -211t-13 -165q-13 -80 -66 -130t-139 -66zM395 0v700h160v-260h106q109 0 172 -59t63 -157q0 -104 -63 -164t-172 -60h-266zM555 130h106q35 0 55 24t20 67q0 39 -20 64
t-55 25h-106v-180z" />
    <glyph glyph-name="uni040A" unicode="&#x40a;" horiz-adv-x="941" 
d="M70 0v700h160v-260h180v260h160v-700h-160v300h-180v-300h-160zM410 0v700h160v-260h106q109 0 172 -59t63 -157q0 -104 -63 -164t-172 -60h-266zM570 130h106q35 0 55 24t20 67q0 39 -20 64t-55 25h-106v-180z" />
    <glyph glyph-name="uni040B" unicode="&#x40b;" horiz-adv-x="725" 
d="M505 0v206q0 46 -23.5 68t-63.5 22q-25 0 -47.5 -5.5t-35.5 -10.5v131q0 -8 5 -11t15 1l58 26q13 2 26 3t26 1q56 0 101.5 -22t72 -69.5t26.5 -123.5v-216h-160zM175 0v560h-155v140h470v-140h-155v-560h-160z" />
    <glyph glyph-name="uni040C" unicode="&#x40c;" horiz-adv-x="586" 
d="M70 0v700h156v-285h57l114 285h169l-150 -340l145 -360h-167l-111 285h-57v-285h-156zM191 768l140 172h150l-140 -172h-150z" />
    <glyph glyph-name="uni040D" unicode="&#x40d;" horiz-adv-x="645" 
d="M70 0v700h155v-305l-15 -88q-1 -7 5.5 -10t10.5 4l204 399h145v-700h-155v305l14 88q2 8 -5 11t-11 -5l-203 -399h-145zM278 768l-140 172h150l140 -172h-150z" />
    <glyph glyph-name="uni040E" unicode="&#x40e;" horiz-adv-x="530" 
d="M151 -12q-26 0 -56 9.5t-52 22.5l46 126q14 -9 28 -14.5t32 -5.5q21 0 33.5 11t19.5 28l-212 535h164l106 -301l10 -101q1 -5 9 -5t9 5l10 101l80 301h162l-176 -529q-31 -95 -79 -139t-134 -44zM263 782q-80 0 -120.5 34.5t-60.5 92.5l101 25q10 -28 30.5 -42.5
t49.5 -14.5t49.5 14.5t30.5 42.5l101 -25q-20 -58 -60.5 -92.5t-120.5 -34.5z" />
    <glyph glyph-name="uni040F" unicode="&#x40f;" horiz-adv-x="635" 
d="M242 -140v140h-172v700h160v-560h175v560h160v-700h-173v-140h-150z" />
    <glyph glyph-name="uni0410" unicode="&#x410;" 
d="M30 0l170 700h220l170 -700h-159l-105 497l-7 63q-1 9 -9 9t-9 -9l-7 -63l-105 -497h-159zM207 162l29 130h147l30 -130h-206zM95 570v130h120l-20 -130h-100z" />
    <glyph glyph-name="uni0411" unicode="&#x411;" horiz-adv-x="592" 
d="M70 0v700h439v-140h-294v-125h104q84 0 135 -29t74.5 -78t23.5 -110q0 -106 -61 -162t-172 -56h-249zM215 130h104q42 0 65 21.5t23 63.5q0 40 -23 65t-65 25h-104v-175z" />
    <glyph glyph-name="uni0412" unicode="&#x412;" horiz-adv-x="592" 
d="M70 0v700h239q107 0 165.5 -49.5t58.5 -141.5q0 -50 -23 -88.5t-65 -58.5q51 -16 79 -59t28 -105q0 -94 -58 -146t-165 -52h-259zM215 130h114q38 0 58 19t20 56q0 35 -20 57.5t-58 22.5h-114v-155zM215 415h94q38 0 59 22.5t21 57.5q0 36 -21 55.5t-59 19.5h-94v-155z
" />
    <glyph glyph-name="uni0413" unicode="&#x413;" horiz-adv-x="474" 
d="M70 0v700h384v-140h-224v-560h-160z" />
    <glyph glyph-name="uni0414" unicode="&#x414;" horiz-adv-x="686" 
d="M20 -140v280h35q29 20 48.5 62t25.5 106q6 65 10 161.5t5 230.5h437v-700h-411v-140h-150zM239 140h188v420h-137q-1 -91 -5.5 -155t-8.5 -101q-2 -24 -6.5 -48t-9.5 -47l-31 -51q-4 -7 -1.5 -12.5t11.5 -5.5zM501 -140v246l-14 34h164v-280h-150z" />
    <glyph glyph-name="uni0415" unicode="&#x415;" horiz-adv-x="550" 
d="M70 0v700h430v-140h-285v-145h268v-130h-268v-145h285v-140h-430z" />
    <glyph glyph-name="uni0416" unicode="&#x416;" horiz-adv-x="876" 
d="M25 0l143 360l-148 340h169l114 -285h57v285h156v-285h57l114 285h169l-148 -340l143 -360h-167l-111 285h-57v-285h-156v285h-57l-111 -285h-167z" />
    <glyph glyph-name="uni0417" unicode="&#x417;" horiz-adv-x="539" 
d="M255 -10q-70 0 -126 15.5t-109 58.5l47 127q29 -24 55 -38t55 -20t67 -6q52 0 79.5 21t27.5 59q0 35 -26 60t-88 25h-106v130h116q44 0 64 20t20 55q0 36 -24 58.5t-69 22.5q-38 0 -78 -8.5t-78 -28.5l-43 118q51 32 101.5 42.5t106.5 10.5q40 0 80.5 -11t75 -35
t55.5 -62t21 -92q0 -57 -20 -94.5t-55 -60.5q27 -13 48.5 -34.5t34 -52t12.5 -73.5q0 -62 -32 -109t-87 -72.5t-125 -25.5z" />
    <glyph glyph-name="uni0418" unicode="&#x418;" horiz-adv-x="645" 
d="M70 0v700h155v-305l-15 -88q-1 -7 5.5 -10t10.5 4l204 399h145v-700h-155v305l14 88q2 8 -5 11t-11 -5l-203 -399h-145z" />
    <glyph glyph-name="uni0419" unicode="&#x419;" horiz-adv-x="645" 
d="M70 0v700h155v-305l-15 -88q-1 -7 5.5 -10t10.5 4l204 399h145v-700h-155v305l14 88q2 8 -5 11t-11 -5l-203 -399h-145zM323 782q-80 0 -120.5 34.5t-60.5 92.5l101 25q10 -28 30.5 -42.5t49.5 -14.5t49.5 14.5t30.5 42.5l101 -25q-20 -58 -60.5 -92.5t-120.5 -34.5z" />
    <glyph glyph-name="uni041A" unicode="&#x41a;" horiz-adv-x="586" 
d="M70 0v700h156v-285h57l114 285h169l-150 -340l145 -360h-167l-111 285h-57v-285h-156z" />
    <glyph glyph-name="uni041B" unicode="&#x41b;" horiz-adv-x="640" 
d="M46 -12l-36 132q42 8 66 34.5t28 72.5q8 86 13 201.5t6 271.5h447v-700h-160v560h-139q-3 -116 -6 -211t-14 -165q-13 -80 -66 -130t-139 -66z" />
    <glyph glyph-name="uni041C" unicode="&#x41c;" horiz-adv-x="680" 
d="M70 0v700h130l131 -247q3 -6 9 -6t9 6l131 247h130v-700h-150v290l14 88q2 8 -4.5 11t-11.5 -5l-96 -155h-52l-88 155q-4 8 -10.5 5t-5.5 -11l14 -88v-290h-150z" />
    <glyph glyph-name="uni041D" unicode="&#x41d;" horiz-adv-x="640" 
d="M70 0v700h160v-280h180v280h160v-700h-160v280h-180v-280h-160z" />
    <glyph glyph-name="uni041E" unicode="&#x41e;" horiz-adv-x="620" 
d="M310 -12q-52 0 -100.5 16.5t-85.5 53.5q-23 24 -41 56.5t-28 88t-10 147.5t10 147.5t28 88.5t41 56q37 37 85.5 53.5t100.5 16.5t100.5 -16.5t85.5 -53.5q24 -23 41.5 -56t27.5 -88.5t10 -147.5t-10 -147.5t-27.5 -88t-41.5 -56.5q-37 -37 -85.5 -53.5t-100.5 -16.5z
M310 129q42 0 69 26t30 72q2 29 3.5 60t1.5 63t-1.5 63.5t-3.5 59.5q-3 46 -30 72t-69 26t-69 -26t-30 -72q-2 -28 -3.5 -59.5t-1.5 -63.5t1.5 -63t3.5 -60q3 -46 30 -72t69 -26z" />
    <glyph glyph-name="uni041F" unicode="&#x41f;" horiz-adv-x="635" 
d="M70 0v700h495v-700h-160v560h-175v-560h-160z" />
    <glyph glyph-name="uni0420" unicode="&#x420;" horiz-adv-x="580" 
d="M70 0v700h265q100 0 157.5 -57t57.5 -157q0 -94 -57.5 -150t-157.5 -56h-106v-280h-159zM229 410h106q33 0 51.5 22.5t18.5 56.5q0 39 -18.5 60t-51.5 21h-106v-160z" />
    <glyph glyph-name="uni0421" unicode="&#x421;" horiz-adv-x="504" 
d="M320 -12q-75 0 -134 29t-95 81t-41 120q-2 29 -3.5 65t-1.5 67q0 32 1.5 67.5t3.5 64.5q5 68 39.5 120t91.5 81t129 29q51 0 88.5 -14t74.5 -42l-43 -119q-27 20 -49 27.5t-54 7.5q-52 0 -82.5 -26.5t-34.5 -71.5q-2 -35 -3.5 -64t-1.5 -60t1.5 -59.5t3.5 -64.5
q5 -46 33 -72t77 -25q36 0 59.5 10.5t47.5 25.5l47 -125q-36 -25 -71 -38.5t-83 -13.5z" />
    <glyph glyph-name="uni0422" unicode="&#x422;" horiz-adv-x="510" 
d="M175 0v560h-155v140h470v-140h-155v-560h-160z" />
    <glyph glyph-name="uni0423" unicode="&#x423;" horiz-adv-x="530" 
d="M151 -12q-26 0 -56 9.5t-52 22.5l46 126q14 -9 28 -14.5t32 -5.5q21 0 33.5 11t19.5 28l-212 535h164l106 -301l10 -101q1 -5 9 -5t9 5l10 101l80 301h162l-176 -529q-31 -95 -79 -139t-134 -44z" />
    <glyph glyph-name="uni0424" unicode="&#x424;" horiz-adv-x="840" 
d="M340 -10v77q0 16 -16 14l-65 -9q-99 17 -150 69.5t-62 125.5q-3 20 -5 41.5t-2 46.5t2 47t5 41q11 73 62 126t150 69l65 -9q16 -2 16 14v67h160v-67q0 -16 16 -14l65 9q99 -16 150 -69t62 -126q3 -19 5 -41t2 -47t-2 -46.5t-5 -41.5q-11 -73 -62 -125.5t-150 -69.5l-65 9
q-16 2 -16 -14v-77h-160zM340 184v342q-36 0 -62.5 -8.5t-44.5 -28.5t-27 -54q-10 -37 -10 -79t10 -81q8 -31 24.5 -51t43.5 -30t66 -10zM500 184q35 0 62.5 9.5t45.5 29.5t26 52q10 38 10 79.5t-10 80.5q-7 32 -25.5 52t-46 29.5t-62.5 9.5v-342z" />
    <glyph glyph-name="uni0425" unicode="&#x425;" horiz-adv-x="570" 
d="M20 0l143 355l-143 345h169l76 -204l11 -78q2 -9 8 -9t9 9l12 78l76 204h169l-145 -345l145 -355h-169l-76 214l-12 78q-3 9 -9 9t-8 -9l-11 -78l-76 -214h-169z" />
    <glyph glyph-name="uni0426" unicode="&#x426;" horiz-adv-x="670" 
d="M70 0v700h160v-560h175v560h160v-700h-495zM485 -140v246l-14 34h164v-280h-150z" />
    <glyph glyph-name="uni0427" unicode="&#x427;" 
d="M380 0v269q0 8 -4.5 11.5t-15.5 -1.5l-58 -26q-13 -2 -25.5 -3t-26.5 -1q-56 0 -101.5 22t-72 69.5t-26.5 123.5v236h160v-226q0 -46 23.5 -68t63.5 -22q26 0 48 5.5t35 10.5v300h160v-700h-160z" />
    <glyph glyph-name="uni0428" unicode="&#x428;" horiz-adv-x="940" 
d="M70 0v700h160v-560h160v560h160v-560h160v560h160v-700h-800z" />
    <glyph glyph-name="uni0429" unicode="&#x429;" horiz-adv-x="975" 
d="M70 0v700h160v-560h160v560h160v-560h160v560h160v-700h-800zM790 -140v246l-14 34h164v-280h-150z" />
    <glyph glyph-name="uni042A" unicode="&#x42a;" horiz-adv-x="681" 
d="M150 0v580h-120v120h280v-260h106q109 0 172 -59t63 -157q0 -104 -63 -164t-172 -60h-266zM310 130h106q35 0 55 24t20 67q0 39 -20 64t-55 25h-106v-180z" />
    <glyph glyph-name="uni042B" unicode="&#x42b;" horiz-adv-x="861" 
d="M70 0v700h160v-260h106q109 0 172 -59t63 -157q0 -104 -63 -164t-172 -60h-266zM230 130h106q35 0 55 24t20 67q0 39 -20 64t-55 25h-106v-180zM631 0v700h160v-700h-160z" />
    <glyph glyph-name="uni042C" unicode="&#x42c;" horiz-adv-x="601" 
d="M70 0v700h160v-260h106q109 0 172 -59t63 -157q0 -104 -63 -164t-172 -60h-266zM230 130h106q35 0 55 24t20 67q0 39 -20 64t-55 25h-106v-180z" />
    <glyph glyph-name="uni042D" unicode="&#x42d;" horiz-adv-x="524" 
d="M207 -12q-55 0 -95.5 13.5t-81.5 38.5l47 125q29 -15 58 -25.5t72 -10.5q47 -1 75 22t32 65q2 39 3.5 70t1.5 64t-1.5 64.5t-3.5 69.5q-3 41 -31.5 64.5t-75.5 23.5q-40 0 -66.5 -7.5t-59.5 -27.5l-41 131q42 22 84 33t100 11q69 0 123.5 -28t88 -77.5t38.5 -114.5
q2 -31 3.5 -69.5t1.5 -72.5t-1.5 -72t-3.5 -70q-5 -65 -40.5 -114.5t-94 -77.5t-132.5 -28zM118 285v130h288v-130h-288z" />
    <glyph glyph-name="uni042E" unicode="&#x42e;" horiz-adv-x="890" 
d="M580 -12q-52 0 -100.5 16.5t-85.5 53.5q-23 24 -41 56.5t-28 88t-10 147.5t10 147.5t28 88.5t41 56q37 37 85.5 53.5t100.5 16.5t100.5 -16.5t85.5 -53.5q24 -23 41.5 -56t27.5 -88.5t10 -147.5t-10 -147.5t-27.5 -88t-41.5 -56.5q-37 -37 -85.5 -53.5t-100.5 -16.5z
M70 0v700h160v-280h181v-140h-181v-280h-160zM580 129q42 0 69 26t30 72q2 29 3.5 60t1.5 63t-1.5 63.5t-3.5 59.5q-3 46 -30 72t-69 26t-69 -26t-30 -72q-2 -28 -3.5 -59.5t-1.5 -63.5t1.5 -63t3.5 -60q3 -46 30 -72t69 -26z" />
    <glyph glyph-name="uni042F" unicode="&#x42f;" horiz-adv-x="612" 
d="M40 0l105 212l45 52q7 8 4.5 13.5t-10.5 7.5q-64 20 -101.5 71t-37.5 128q0 102 67 159t189 57h241v-700h-160v265h-44l-132 -265h-166zM316 395h66v175h-66q-53 0 -83 -23t-30 -64q0 -42 30 -65t83 -23z" />
    <glyph glyph-name="uni0430" unicode="&#x430;" horiz-adv-x="505" 
d="M370 -12l-32 43q-11 14 -23 3q-23 -18 -52.5 -30t-70.5 -12q-73 0 -115 42.5t-42 107.5q0 48 23.5 81t63.5 49.5t89 16.5h87v49q0 31 -22 47t-67 16q-34 0 -65 -11t-62 -29l-41 112q39 23 84 36t95 13q109 0 160.5 -51.5t51.5 -131.5v-200l53 -76zM224 97q35 0 54.5 21.5
t19.5 55.5v13q0 13 -18 8l-36 -11h-31q-24 0 -36 -10.5t-12 -29.5t17 -33t42 -14z" />
    <glyph glyph-name="uni0431" unicode="&#x431;" horiz-adv-x="558" 
d="M283 -12q-53 0 -97.5 18t-74.5 49t-42 69q-14 46 -19 93.5t-5 95.5q0 107 11 182t38 123.5t73.5 75.5t116.5 37q17 2 31.5 4t30.5 4q25 4 48 9t46 21l47 -107q-26 -22 -56.5 -32t-76.5 -15q-21 -2 -35.5 -5t-33.5 -7q-32 -7 -51.5 -21.5t-28.5 -36t-10 -51.5
q0 -8 4.5 -11t10.5 0l46 32q12 4 24 5.5t22 1.5q67 0 110 -26t66 -66.5t29 -84.5q6 -49 6 -92q0 -40 -6 -88q-11 -76 -68 -126.5t-156 -50.5zM283 112q38 0 58 22.5t24 52.5q5 37 5 67.5t-4 67.5q-3 32 -24 54.5t-59 22.5q-37 0 -58 -22.5t-24 -54.5q-4 -37 -3.5 -67.5
t4.5 -66.5q3 -31 23.5 -53.5t57.5 -22.5z" />
    <glyph glyph-name="uni0432" unicode="&#x432;" horiz-adv-x="542" 
d="M65 0v510h214q98 0 152 -36t54 -104q0 -34 -19.5 -61.5t-54.5 -41.5q44 -10 67.5 -41t23.5 -78q0 -70 -52.5 -109t-149.5 -39h-235zM215 121h86q26 0 38.5 10.5t12.5 29.5t-12.5 31t-37.5 12h-87v-83zM215 305h67q26 0 40 11t14 33q0 20 -14 30t-40 10h-67v-84z" />
    <glyph glyph-name="uni0433" unicode="&#x433;" horiz-adv-x="432" 
d="M65 0v510h337v-120h-187v-390h-150z" />
    <glyph glyph-name="uni0434" unicode="&#x434;" horiz-adv-x="594" 
d="M10 -130v250h27q18 7 30.5 22.5t16.5 43.5q8 35 12.5 80.5t6.5 105.5t2 138h394v-390h70v-250h-140v130h-279v-130h-140zM211 120h143v270h-110q-2 -67 -7 -117.5t-13 -83.5l-24 -51q-8 -18 11 -18z" />
    <glyph glyph-name="uni0435" unicode="&#x435;" horiz-adv-x="514" 
d="M297 -10q-69 0 -121.5 22.5t-84.5 62t-40 88.5q-3 24 -4.5 44.5t-1.5 41.5q0 40 6 89q11 78 65.5 130t146.5 52q55 0 95.5 -16.5t67.5 -48t40 -78t13 -106.5l-21 -52h-382l-2 101h269q-2 21 -9 40t-23.5 31t-45.5 12q-41 0 -59.5 -26t-20.5 -71q-1 -26 -1.5 -52t1.5 -54
q5 -51 36.5 -69.5t75.5 -18.5q29 0 56 7.5t58 21.5l38 -107q-34 -22 -72.5 -33t-79.5 -11z" />
    <glyph glyph-name="uni0436" unicode="&#x436;" horiz-adv-x="747" 
d="M20 0l132 286l-4 -54l-126 278h156l84 -195h37v195h146v-195h37l84 195h156l-126 -278l-1 54l132 -286h-162l-83 195h-37v-195h-146v195h-37l-83 -195h-159z" />
    <glyph glyph-name="uni0437" unicode="&#x437;" horiz-adv-x="463" 
d="M216 -8q-61 0 -110 11t-96 43l43 117q26 -19 47.5 -28.5t46 -13t60.5 -3.5t56.5 12.5t20.5 36.5q0 12 -18.5 27t-65.5 15h-60v96h60q44 0 60.5 14t16.5 32q0 20 -21 34t-62 14q-34 0 -67.5 -6t-67.5 -24l-39 108q45 23 90 34t94 11q40 0 79.5 -9t71.5 -27t51 -46.5
t19 -67.5q0 -49 -18 -75t-48 -40q21 -8 38 -22.5t26.5 -36.5t9.5 -55q0 -47 -31 -81t-80.5 -52t-105.5 -18z" />
    <glyph glyph-name="uni0438" unicode="&#x438;" horiz-adv-x="570" 
d="M65 0v510h145v-193l-15 -88q-1 -7 5.5 -10t10.5 4l169 287h125v-510h-145v182l14 88q2 8 -4.5 11t-11.5 -5l-168 -276h-125z" />
    <glyph glyph-name="uni0439" unicode="&#x439;" horiz-adv-x="570" 
d="M65 0v510h145v-193l-15 -88q-1 -7 5.5 -10t10.5 4l169 287h125v-510h-145v182l14 88q2 8 -4.5 11t-11.5 -5l-168 -276h-125zM286 592q-80 0 -120.5 34.5t-60.5 92.5l101 25q10 -28 30.5 -42.5t49.5 -14.5t49.5 14.5t30.5 42.5l101 -25q-20 -58 -60.5 -92.5t-120.5 -34.5z
" />
    <glyph glyph-name="uni043A" unicode="&#x43a;" horiz-adv-x="523" 
d="M65 0v510h146v-195h37l94 195h156l-134 -274l-4 54l143 -290h-162l-93 195h-37v-195h-146z" />
    <glyph glyph-name="uni043B" unicode="&#x43b;" horiz-adv-x="578" 
d="M55 -12l-35 129q33 5 56.5 21.5t30.5 47.5q8 35 12.5 80.5t6.5 105.5t2 138h385v-510h-150v390h-91q-2 -67 -8 -119.5t-12 -96.5q-12 -90 -65.5 -133.5t-131.5 -52.5z" />
    <glyph glyph-name="uni043C" unicode="&#x43c;" horiz-adv-x="664" 
d="M65 0v509h136l121 -211q4 -6 9.5 -6t9.5 6l122 211h136v-509h-141v173l13 84q2 8 -4 11t-11 -5l-102 -157h-51l-95 157q-4 8 -10.5 5t-5.5 -11l14 -84v-173h-141z" />
    <glyph glyph-name="uni043D" unicode="&#x43d;" horiz-adv-x="566" 
d="M65 0v510h150v-195h136v195h150v-510h-150v195h-136v-195h-150z" />
    <glyph glyph-name="uni043E" unicode="&#x43e;" horiz-adv-x="549" 
d="M274 -12q-99 0 -156 50.5t-67 126.5q-6 48 -6 88q0 23 1 45t5 47q11 76 67.5 126.5t155.5 50.5t156.5 -50t67.5 -127q6 -49 6 -92q0 -40 -6 -88q-11 -76 -68 -126.5t-156 -50.5zM274 112q38 0 58 22.5t24 52.5q5 37 5 67.5t-4 67.5q-3 32 -24 54.5t-59 22.5
q-37 0 -58 -22.5t-24 -54.5q-4 -37 -3.5 -67.5t4.5 -66.5q3 -31 23.5 -53.5t57.5 -22.5z" />
    <glyph glyph-name="uni043F" unicode="&#x43f;" horiz-adv-x="560" 
d="M65 0v510h430v-510h-150v390h-130v-390h-150z" />
    <glyph glyph-name="uni0440" unicode="&#x440;" horiz-adv-x="565" 
d="M65 -200v710h150v-29q18 17 47.5 29t61.5 12q92 0 137.5 -42.5t53.5 -121.5q3 -29 4 -53t1 -48q0 -23 -1.5 -47.5t-3.5 -55.5q-7 -78 -50.5 -121t-130.5 -43q-9 0 -17.5 1t-16.5 3l-64 37q-10 6 -15.5 3t-5.5 -11v-223h-150zM292 114q37 0 54 16.5t19 39.5q4 42 4 85.5
t-4 85.5q-2 23 -20 39.5t-53 16.5q-40 0 -58.5 -18.5t-18.5 -50.5v-144q0 -31 20 -50.5t57 -19.5z" />
    <glyph glyph-name="uni0441" unicode="&#x441;" horiz-adv-x="460" 
d="M278 -12q-102 0 -159.5 51t-67.5 127q-6 48 -6 90q0 21 1 43t5 47q11 77 67.5 126.5t156.5 49.5q48 0 87.5 -12.5t66.5 -35.5l-40 -110q-22 17 -46 26t-58 9q-42 0 -66.5 -21t-26.5 -53q-3 -38 -3 -69.5t3 -69.5q2 -31 27 -52.5t69 -21.5q26 0 51 7.5t53 24.5l38 -107
q-34 -26 -72.5 -37.5t-79.5 -11.5z" />
    <glyph glyph-name="uni0442" unicode="&#x442;" horiz-adv-x="450" 
d="M150 0v390h-130v120h410v-120h-130v-390h-150z" />
    <glyph glyph-name="uni0443" unicode="&#x443;" horiz-adv-x="483" 
d="M68 -214l-36 127q53 5 86.5 29t43.5 60l15 54l-167 454h153l62 -217l10 -93q1 -9 8.5 -9t8.5 9l11 93l50 217h150l-165 -553q-21 -74 -82.5 -121t-147.5 -50z" />
    <glyph glyph-name="uni0444" unicode="&#x444;" horiz-adv-x="775" 
d="M315 -236v228q0 16 -16 14l-65 -9q-56 7 -93.5 30.5t-58.5 60.5t-30 81q-4 20 -5.5 41.5t-1.5 46.5t1.5 47t5.5 41q7 45 28.5 81.5t59.5 60t94 30.5l65 -9q16 -2 16 14v228h145v-228q0 -16 16 -14l65 9q57 -7 94.5 -30.5t59 -60t28.5 -81.5q3 -19 5 -41t2 -47t-1.5 -46.5
t-5.5 -41.5q-8 -44 -29.5 -81t-58.5 -60.5t-94 -30.5l-65 9q-16 2 -16 -14v-228h-145zM315 112v290q-47 0 -73 -15.5t-37 -49.5q-5 -16 -7.5 -35.5t-2.5 -44.5q0 -50 10 -80q11 -34 37 -49.5t73 -15.5zM460 112q47 0 73 15.5t37 49.5q5 16 7.5 35.5t2.5 44.5q0 50 -10 80
q-11 34 -37 49.5t-73 15.5v-290z" />
    <glyph glyph-name="uni0445" unicode="&#x445;" horiz-adv-x="508" 
d="M20 0l123 255l-123 255h156l59 -140l11 -48q2 -9 8 -9t9 9l12 48l59 140h154l-123 -255l123 -255h-154l-59 140l-12 48q-3 9 -9 9t-8 -9l-11 -48l-59 -140h-156z" />
    <glyph glyph-name="uni0446" unicode="&#x446;" horiz-adv-x="590" 
d="M65 0v510h150v-390h130v390h150v-510h-430zM425 -130v250h140v-250h-140z" />
    <glyph glyph-name="uni0447" unicode="&#x447;" horiz-adv-x="547" 
d="M330 0v185q0 8 -5.5 11t-15.5 -3l-54 -32q-15 -4 -34 -4q-46 0 -85 16.5t-62.5 56.5t-23.5 108v172h150v-139q0 -41 15 -60t54 -19q28 0 42 10t21 22v186h150v-510h-152z" />
    <glyph glyph-name="uni0448" unicode="&#x448;" horiz-adv-x="820" 
d="M65 0v510h150v-390h120v390h150v-390h120v390h150v-510h-690z" />
    <glyph glyph-name="uni0449" unicode="&#x449;" horiz-adv-x="850" 
d="M65 0v510h150v-390h120v390h150v-390h120v390h150v-510h-690zM685 -130v250h140v-250h-140z" />
    <glyph glyph-name="uni044A" unicode="&#x44a;" horiz-adv-x="562" 
d="M115 0v510h150v-155h64q101 0 157 -45.5t56 -128.5q0 -87 -56 -134t-157 -47h-214zM265 115h64q30 0 46.5 17t16.5 49q0 26 -16.5 42.5t-46.5 16.5h-64v-125zM0 390v120h265v-120h-265z" />
    <glyph glyph-name="uni044B" unicode="&#x44b;" horiz-adv-x="761" 
d="M546 0v510h150v-510h-150zM65 0v510h150v-155h64q101 0 157 -45.5t56 -128.5q0 -87 -56 -134t-157 -47h-214zM215 115h64q30 0 46.5 17t16.5 49q0 26 -16.5 42.5t-46.5 16.5h-64v-125z" />
    <glyph glyph-name="uni044C" unicode="&#x44c;" horiz-adv-x="512" 
d="M65 0v510h150v-155h64q101 0 157 -45.5t56 -128.5q0 -87 -56 -134t-157 -47h-214zM215 115h64q30 0 46.5 17t16.5 49q0 26 -16.5 42.5t-46.5 16.5h-64v-125z" />
    <glyph glyph-name="uni044D" unicode="&#x44d;" horiz-adv-x="487" 
d="M201 -12q-46 0 -89.5 11.5t-81.5 37.5l37 104q65 -33 125 -33q50 0 78 23t30 54q2 39 2.5 70.5t-2.5 70.5q-3 32 -30.5 54t-74.5 22q-40 0 -69 -9t-56 -26l-39 107q30 23 74.5 35t98.5 12q104 0 162.5 -49.5t69.5 -126.5q4 -25 5 -46.5t1 -42.5q0 -42 -6 -90
q-10 -76 -69.5 -127t-165.5 -51zM325 200h-192v110h192v-110z" />
    <glyph glyph-name="uni044E" unicode="&#x44e;" horiz-adv-x="779" 
d="M65 0v510h150v-195h151v-120h-151v-195h-150zM504 -12q-99 0 -156 50.5t-67 126.5q-6 48 -6 88q0 23 1 45t5 47q11 76 67.5 126.5t155.5 50.5t156.5 -50t67.5 -127q6 -49 6 -92q0 -40 -6 -88q-11 -76 -68 -126.5t-156 -50.5zM504 112q38 0 58 22.5t24 52.5q5 37 5 67.5
t-4 67.5q-3 32 -24 54.5t-59 22.5q-37 0 -58 -22.5t-24 -54.5q-4 -37 -3.5 -67.5t4.5 -66.5q3 -31 23.5 -53.5t57.5 -22.5z" />
    <glyph glyph-name="uni044F" unicode="&#x44f;" horiz-adv-x="552" 
d="M47 0l68 130l32 38q10 12 -5 17q-45 16 -71 56t-26 93q0 84 55 130t156 46h231v-510h-145v175h-55l-86 -175h-154zM254 281h89v113h-89q-31 0 -47.5 -15t-16.5 -41t16.5 -41.5t47.5 -15.5z" />
    <glyph glyph-name="uni0450" unicode="&#x450;" horiz-adv-x="514" 
d="M297 -10q-69 0 -121.5 22.5t-84.5 62t-40 88.5q-3 24 -4.5 44.5t-1.5 41.5q0 40 6 89q11 78 65.5 130t146.5 52q55 0 95.5 -16.5t67.5 -48t40 -78t13 -106.5l-21 -52h-382l-2 101h269q-2 21 -9 40t-23.5 31t-45.5 12q-41 0 -59.5 -26t-20.5 -71q-1 -26 -1.5 -52t1.5 -54
q5 -51 36.5 -69.5t75.5 -18.5q29 0 56 7.5t58 21.5l38 -107q-34 -22 -72.5 -33t-79.5 -11zM218 578l-140 172h150l140 -172h-150z" />
    <glyph glyph-name="uni0451" unicode="&#x451;" horiz-adv-x="514" 
d="M297 -10q-69 0 -121.5 22.5t-84.5 62t-40 88.5q-3 24 -4.5 44.5t-1.5 41.5q0 40 6 89q11 78 65.5 130t146.5 52q55 0 95.5 -16.5t67.5 -48t40 -78t13 -106.5l-21 -52h-382l-2 101h269q-2 21 -9 40t-23.5 31t-45.5 12q-41 0 -59.5 -26t-20.5 -71q-1 -26 -1.5 -52t1.5 -54
q5 -51 36.5 -69.5t75.5 -18.5q29 0 56 7.5t58 21.5l38 -107q-34 -22 -72.5 -33t-79.5 -11zM298 578v122h134v-122h-134zM94 578v122h134v-122h-134z" />
    <glyph glyph-name="uni0452" unicode="&#x452;" horiz-adv-x="587" 
d="M311 -222l-34 131q47 11 73.5 31.5t26.5 59.5h150q0 -56 -19 -97t-51 -67.5t-70 -40.5t-76 -17zM89 0v750h146v-258q26 14 56 22t65 8q45 0 84 -17t63 -51.5t24 -87.5v-366h-150v305q0 43 -14 62.5t-55 19.5q-40 0 -56.5 -19.5t-16.5 -62.5v-305h-146zM12 565v104h360
v-104h-360z" />
    <glyph glyph-name="uni0453" unicode="&#x453;" horiz-adv-x="432" 
d="M65 0v510h337v-120h-187v-390h-150zM111 578l140 172h150l-140 -172h-150z" />
    <glyph glyph-name="uni0454" unicode="&#x454;" horiz-adv-x="487" 
d="M286 -12q-106 0 -165.5 51t-69.5 127q-6 48 -6 90q0 21 1 42.5t5 46.5q11 77 70 126.5t162 49.5q54 0 98.5 -12t74.5 -35l-39 -107q-27 17 -56 26t-69 9q-47 0 -74.5 -22t-30.5 -54q-3 -39 -2.5 -70.5t2.5 -70.5q2 -31 30.5 -54t77.5 -23q60 0 125 33l37 -104
q-38 -26 -81 -37.5t-90 -11.5zM162 200v110h192v-110h-192z" />
    <glyph glyph-name="uni0455" unicode="&#x455;" horiz-adv-x="476" 
d="M234 -11q-59 0 -102 13.5t-92 43.5l42 108q34 -21 58.5 -30.5t46.5 -12t48 -2.5q38 0 54 13.5t16 32.5q0 16 -10 27.5t-36 12.5l-54 3q-72 4 -118.5 39t-46.5 113q0 83 55.5 127.5t146.5 44.5q57 0 98.5 -10t81.5 -36l-42 -108q-32 21 -64 28t-73 7q-37 0 -55 -12.5
t-18 -30.5q0 -16 11.5 -25t34.5 -11l55 -3q74 -4 119.5 -41t45.5 -114q0 -88 -55 -132.5t-147 -44.5z" />
    <glyph glyph-name="uni0456" unicode="&#x456;" horiz-adv-x="325" 
d="M110 0v386h-90v124h240v-510h-150zM110 578v122h150v-122h-150z" />
    <glyph glyph-name="uni0457" unicode="&#x457;" horiz-adv-x="325" 
d="M110 0v386h-90v124h240v-510h-150zM200 578v122h134v-122h-134zM-4 578v122h134v-122h-134z" />
    <glyph glyph-name="uni0458" unicode="&#x458;" horiz-adv-x="325" 
d="M44 -222l-34 131q47 11 73.5 33.5t26.5 65.5v379h-90v123h240v-496q0 -60 -19 -103.5t-51 -72t-70 -43t-76 -17.5zM110 578v122h149v-122h-149z" />
    <glyph glyph-name="uni0459" unicode="&#x459;" horiz-adv-x="810" 
d="M55 -12l-35 129q33 5 56.5 21.5t30.5 47.5q8 35 12.5 80.5t6.5 105.5t2 138h385v-510h-150v390h-91q-2 -67 -8 -119.5t-12 -96.5q-12 -90 -65.5 -133.5t-131.5 -52.5zM363 0v510h150v-155h64q101 0 157 -45.5t56 -128.5q0 -87 -56 -134t-157 -47h-214zM513 115h64
q30 0 46.5 17t16.5 49q0 26 -16.5 42.5t-46.5 16.5h-64v-125z" />
    <glyph glyph-name="uni045A" unicode="&#x45a;" horiz-adv-x="798" 
d="M65 0v510h150v-173h136v173h150v-175h64q101 0 157 -42.5t56 -121.5q0 -82 -56 -126.5t-157 -44.5h-214v217h-136v-217h-150zM501 115h64q30 0 46.5 14.5t16.5 41.5q0 22 -16.5 35.5t-46.5 13.5h-64v-105z" />
    <glyph glyph-name="uni045B" unicode="&#x45b;" horiz-adv-x="575" 
d="M0 565v104h360v-104h-360zM77 0v750h146v-258q26 14 56 22t65 8q45 0 84 -17t63 -51.5t24 -87.5v-366h-150v305q0 43 -14 62.5t-55 19.5q-40 0 -56.5 -19.5t-16.5 -62.5v-305h-146z" />
    <glyph glyph-name="uni045C" unicode="&#x45c;" horiz-adv-x="523" 
d="M65 0v510h146v-195h37l94 195h156l-134 -274l-4 54l143 -290h-162l-93 195h-37v-195h-146zM157 578l140 172h150l-140 -172h-150z" />
    <glyph glyph-name="uni045D" unicode="&#x45d;" horiz-adv-x="570" 
d="M65 0v510h145v-193l-15 -88q-1 -7 5.5 -10t10.5 4l169 287h125v-510h-145v182l14 88q2 8 -4.5 11t-11.5 -5l-168 -276h-125zM241 578l-140 172h150l140 -172h-150z" />
    <glyph glyph-name="uni045E" unicode="&#x45e;" horiz-adv-x="483" 
d="M68 -214l-36 127q53 5 86.5 29t43.5 60l15 54l-167 454h153l62 -217l10 -93q1 -9 8.5 -9t8.5 9l11 93l50 217h150l-165 -553q-21 -74 -82.5 -121t-147.5 -50zM242 592q-80 0 -120.5 34.5t-60.5 92.5l101 25q10 -28 30.5 -42.5t49.5 -14.5t49.5 14.5t30.5 42.5l101 -25
q-20 -58 -60.5 -92.5t-120.5 -34.5z" />
    <glyph glyph-name="uni045F" unicode="&#x45f;" horiz-adv-x="560" 
d="M65 0v510h150v-390h130v390h150v-510h-430zM210 -130v250h140v-250h-140z" />
    <glyph glyph-name="uni0460" unicode="&#x460;" horiz-adv-x="809" 
d="M546 -12q-27 0 -63 11.5t-70 39.5t-56.5 77.5t-22.5 125.5v238h141v-235q0 -35 4 -62.5t17.5 -43t43.5 -15.5q19 0 32 8.5t21.5 32.5t12.5 71t4 124q0 92 -14 179t-34 161h154q17 -53 35 -145.5t18 -214.5q0 -109 -17 -178t-48 -107t-71 -52.5t-87 -14.5zM273 -12
q-48 0 -90.5 14.5t-74.5 52.5t-50 107t-18 178q0 122 18.5 214.5t34.5 145.5h154q-19 -74 -34 -161t-15 -179q0 -77 4 -124t12.5 -71t21.5 -32.5t32 -8.5q31 0 44.5 15.5t17.5 43t4 62.5v235h141v-238q0 -76 -21 -125.5t-53.5 -77.5t-66.5 -39.5t-61 -11.5zM256 380v130h293
v-130h-215h-78z" />
    <glyph glyph-name="uni0461" unicode="&#x461;" horiz-adv-x="763" 
d="M510 -12q-59 0 -98.5 22t-62 59t-32 82t-9.5 91v258h147v-255q0 -27 2 -56.5t13.5 -50.5t39.5 -21q15 0 29.5 4.5t26 19.5t18.5 46t7 83q0 33 -7 77t-19.5 86t-29.5 67h143q12 -18 22.5 -48t17.5 -65t11 -68t4 -59q0 -89 -23 -143t-58.5 -82t-73.5 -37.5t-68 -9.5z
M253 -12q-30 0 -68 9.5t-73.5 37.5t-58.5 82t-23 143q0 26 4 59t11 68t17.5 65t22.5 48h143q-17 -25 -29.5 -67t-19.5 -86t-7 -77q0 -52 7 -83t18.5 -46t26 -19.5t29.5 -4.5q29 0 40 21t13 50.5t2 56.5v255h147v-258q0 -46 -9.5 -91t-32 -82t-62 -59t-98.5 -22z" />
    <glyph glyph-name="uni0462" unicode="&#x462;" horiz-adv-x="611" 
d="M0 522v114h400v-114h-400zM80 0v700h160v-260h106q109 0 172 -59t63 -157q0 -104 -63 -164t-172 -60h-266zM240 130h106q35 0 55 24t20 67q0 39 -20 64t-55 25h-106v-180z" />
    <glyph glyph-name="uni0463" unicode="&#x463;" horiz-adv-x="570" 
d="M123 0v700h150v-345h64q101 0 157 -45.5t56 -128.5q0 -87 -56 -134t-157 -47h-214zM273 115h64q30 0 46.5 17t16.5 49q0 26 -16.5 42.5t-46.5 16.5h-64v-125zM30 396v114h390v-114h-390z" />
    <glyph glyph-name="uni0464" unicode="&#x464;" horiz-adv-x="818" 
d="M70 0v700h160v-285h171v-130h-171v-285h-160zM611 -12q-74 0 -132.5 28t-94 77.5t-40.5 114.5q-2 32 -3.5 70t-1.5 72t1.5 72.5t3.5 69.5q5 65 39.5 114.5t90.5 77.5t127 28q58 0 100 -11t84 -33l-41 -131q-33 20 -59.5 27.5t-66.5 7.5q-50 0 -80.5 -23.5t-33.5 -64.5
q-2 -38 -3.5 -69.5t-1.5 -64.5t1.5 -64t3.5 -70q4 -42 32 -65t75 -22q44 0 72.5 10.5t57.5 25.5l47 -125q-41 -25 -81 -38.5t-96 -13.5zM412 285v130h288v-130h-288z" />
    <glyph glyph-name="uni0465" unicode="&#x465;" horiz-adv-x="702" 
d="M65 0v510h150v-200h71v-110h-71v-200h-150zM501 -12q-106 0 -165.5 51t-69.5 127q-6 48 -6 90q0 21 1 42.5t5 46.5q11 77 70 126.5t162 49.5q54 0 98.5 -12t74.5 -35l-39 -107q-27 17 -56 26t-69 9q-47 0 -74.5 -22t-30.5 -54q-3 -39 -2.5 -70.5t2.5 -70.5
q2 -31 30.5 -54t77.5 -23q60 0 125 33l37 -104q-38 -26 -81 -37.5t-90 -11.5zM377 200v110h192v-110h-192z" />
    <glyph glyph-name="uni0466" unicode="&#x466;" horiz-adv-x="700" 
d="M10 0l232 700h216l232 -700h-163l-156 497l-11 66q-1 8 -9.5 8t-10.5 -8l-11 -66l-156 -497h-163zM277 0v179l-38 54l42 149l68 -90l68 90l42 -149l-39 -54v-179h-143z" />
    <glyph glyph-name="uni0467" unicode="&#x467;" horiz-adv-x="548" 
d="M-20 0l199 510h190l199 -510h-140l-131 335l-14 53q-1 8 -8.5 8t-9.5 -8l-14 -53l-130 -335h-141zM203 0v117l-73 51l35 125l95 -69q5 -4 13 -4t13 4l95 69l34 -125l-73 -51v-117h-139z" />
    <glyph glyph-name="uni0468" unicode="&#x468;" horiz-adv-x="991" 
d="M70 0v700h160v-280h260v-140h-260v-280h-160zM301 0l232 700h216l232 -700h-163l-156 497l-11 66q-1 8 -9.5 8t-10.5 -8l-11 -66l-156 -497h-163zM568 0v179l-38 54l42 149l68 -90l68 90l42 -149l-39 -54v-179h-143z" />
    <glyph glyph-name="uni0469" unicode="&#x469;" horiz-adv-x="840" 
d="M65 0v510h150v-200h184v-110h-184v-200h-150zM272 0l199 510h190l199 -510h-140l-131 335l-14 53q-1 8 -8.5 8t-9.5 -8l-14 -53l-130 -335h-141zM495 0v117l-73 51l35 125l95 -69q5 -4 13 -4t13 4l95 69l34 -125l-73 -51v-117h-139z" />
    <glyph glyph-name="uni046A" unicode="&#x46a;" horiz-adv-x="784" 
d="M10 0l40 176q12 54 27.5 94.5t38.5 69t56 44.5l36 8q8 2 11.5 6.5t-2.5 11.5l-152 192v98h654v-98l-152 -192q-6 -7 -2.5 -11.5t11.5 -6.5l36 -8q34 -16 56.5 -45t38 -70t27.5 -95l40 -174h-160l-40 177q-11 50 -33.5 79.5t-68.5 29.5v-286h-160v286q-46 0 -68.5 -29.5
t-33.5 -79.5l-40 -177h-160zM370 415h44l66 105l35 32q6 6 4 12t-10 6h-234q-8 0 -10 -6t4 -12l35 -32z" />
    <glyph glyph-name="uni046B" unicode="&#x46b;" horiz-adv-x="604" 
d="M0 0q11 40 22.5 85.5t26.5 86t36.5 68.5t52.5 32q5 1 7 6t-1 10l-106 172v50h528v-50l-106 -172q-3 -5 -1 -10t7 -6q31 -4 52.5 -32t36.5 -68.5t26.5 -86t22.5 -85.5h-138q-9 41 -17.5 78.5t-19.5 67.5t-26.5 47t-39.5 17v-210h-122v210q-24 0 -39.5 -17t-26.5 -47
t-19.5 -67.5t-17.5 -78.5h-138zM254 320h96l27 46l33 24q3 2 2 6t-5 4h-211q-4 0 -5 -4t2 -6l33 -24z" />
    <glyph glyph-name="uni046C" unicode="&#x46c;" horiz-adv-x="1089" 
d="M70 0v700h160v-280h331v-140h-331v-280h-160zM315 0l40 176q12 54 27.5 94.5t38.5 69t56 44.5l36 8q8 2 11.5 6.5t-2.5 11.5l-152 192v98h654v-98l-152 -192q-6 -7 -2.5 -11.5t11.5 -6.5l36 -8q34 -16 56.5 -45t38 -70t27.5 -95l40 -174h-160l-40 177q-11 50 -33.5 79.5
t-68.5 29.5v-286h-160v286q-46 0 -68.5 -29.5t-33.5 -79.5l-40 -177h-160zM675 415h44l66 105l35 32q6 6 4 12t-10 6h-234q-8 0 -10 -6t4 -12l35 -32z" />
    <glyph glyph-name="uni046D" unicode="&#x46d;" horiz-adv-x="859" 
d="M65 0v510h150v-200h212v-110h-212v-200h-150zM255 0q11 40 22.5 85.5t26.5 86t36.5 68.5t52.5 32q5 1 7 6t-1 10l-106 172v50h528v-50l-106 -172q-3 -5 -1 -10t7 -6q31 -4 52.5 -32t36.5 -68.5t26.5 -86t22.5 -85.5h-138q-9 41 -17.5 78.5t-19.5 67.5t-26.5 47t-39.5 17
v-210h-122v210q-24 0 -39.5 -17t-26.5 -47t-19.5 -67.5t-17.5 -78.5h-138zM509 320h96l27 46l33 24q3 2 2 6t-5 4h-211q-4 0 -5 -4t2 -6l33 -24z" />
    <glyph glyph-name="uni046E" unicode="&#x46e;" horiz-adv-x="530" 
d="M154 -229q-52 0 -91.5 21t-61 60.5t-21.5 94.5q0 60 23 100t70 60t118 20h44q52 0 79.5 21t27.5 59q0 35 -26 60t-88 25h-136v130h146q44 0 64 20t20 55q0 36 -26 58.5t-74 22.5q-38 0 -78 -8.5t-78 -28.5l-43 118q51 32 101.5 42.5t106.5 10.5q41 0 83 -11t77.5 -35
t57 -62t21.5 -92q0 -57 -20 -94.5t-55 -60.5q27 -13 48.5 -34.5t34 -52t12.5 -73.5q0 -54 -23 -93t-60.5 -64.5t-82.5 -37.5t-89 -12h-44q-26 0 -42.5 -4.5t-24.5 -13.5t-8 -25q0 -22 16 -32.5t43 -10.5q56 0 117.5 15.5t109.5 31.5l17 -134q-61 -19 -124.5 -32.5
t-140.5 -13.5zM171 771l-90 172h120l28 -56l10 -34q3 -7 6 -7t6 7l10 34l30 56h120l-90 -172h-150z" />
    <glyph glyph-name="uni046F" unicode="&#x46f;" horiz-adv-x="471" 
d="M230 -176q-70 0 -119.5 20t-75 57.5t-25.5 89.5q0 35 14.5 64t45.5 46t79 17h56q36 0 56.5 12.5t20.5 36.5q0 12 -18.5 27t-65.5 15h-90v96h90q44 0 60.5 14t16.5 32q0 20 -21 34t-62 14q-34 0 -67.5 -6t-67.5 -24l-39 108q45 23 90 34t94 11q40 0 79.5 -9t71.5 -27
t51 -46.5t19 -67.5q0 -49 -18 -75t-48 -40q21 -8 38 -22.5t26.5 -36.5t9.5 -55q0 -47 -31 -81t-80.5 -52t-105.5 -18h-42q-16 0 -26.5 -1t-10.5 -12q0 -10 17 -17t69 -7q38 0 81 6.5t81 25.5l15 -128q-29 -12 -74.5 -23.5t-93.5 -11.5zM120 578l-90 172h120l28 -56l10 -34
q3 -7 6 -7t6 7l10 34l30 56h120l-90 -172h-150z" />
    <glyph glyph-name="uni0470" unicode="&#x470;" horiz-adv-x="772" 
d="M302 0v195q-61 0 -115 21t-92.5 75.5t-54.5 154.5l-40 254h160l40 -257q8 -52 32 -81t70 -29v367h160v-367q45 0 77.5 28.5t32.5 81.5v257h160v-226q0 -86 -32.5 -149t-93 -96.5t-144.5 -33.5v-195h-160z" />
    <glyph glyph-name="uni0471" unicode="&#x471;" horiz-adv-x="712" 
d="M287 -250v245q-56 0 -104.5 20.5t-83 75t-49.5 155.5l-40 264h150l40 -267q6 -57 28 -89t59 -32v628h150v-628q38 0 66.5 31.5t28.5 89.5v267h140v-236q0 -86 -28.5 -149t-81.5 -96.5t-125 -33.5v-245h-150z" />
    <glyph glyph-name="uni0472" unicode="&#x472;" horiz-adv-x="620" 
d="M170 272l-40 112q21 23 47 33.5t59 10.5q38 0 60 -8.5t40 -17t42 -8.5q23 0 40.5 9.5t31.5 25.5l40 -112q-21 -22 -47 -33t-59 -11q-37 0 -59.5 8.5t-40.5 17t-42 8.5q-22 0 -40 -9.5t-32 -25.5zM310 -12q-52 0 -100.5 16.5t-85.5 53.5q-23 24 -41 56.5t-28 88t-10 147.5
t10 147.5t28 88.5t41 56q37 37 85.5 53.5t100.5 16.5t100.5 -16.5t85.5 -53.5q24 -23 41.5 -56t27.5 -88.5t10 -147.5t-10 -147.5t-27.5 -88t-41.5 -56.5q-37 -37 -85.5 -53.5t-100.5 -16.5zM310 129q42 0 69 26t30 72q2 29 3.5 60t1.5 63t-1.5 63.5t-3.5 59.5q-3 46 -30 72
t-69 26t-69 -26t-30 -72q-2 -28 -3.5 -59.5t-1.5 -63.5t1.5 -63t3.5 -60q3 -46 30 -72t69 -26z" />
    <glyph glyph-name="uni0473" unicode="&#x473;" horiz-adv-x="549" 
d="M184 181l-27 102q14 23 31 33.5t39 10.5q25 0 39.5 -8.5t26 -17t26.5 -8.5t26.5 9.5t20.5 25.5l27 -102q-14 -22 -31 -33t-39 -11q-24 0 -38.5 8.5t-26 17t-27.5 8.5q-15 0 -26.5 -9.5t-20.5 -25.5zM274 -12q-99 0 -156 50.5t-67 126.5q-6 48 -6 88q0 23 1 45t5 47
q11 76 67.5 126.5t155.5 50.5t156.5 -50t67.5 -127q6 -49 6 -92q0 -40 -6 -88q-11 -76 -68 -126.5t-156 -50.5zM274 112q38 0 58 22.5t24 52.5q5 37 5 67.5t-4 67.5q-3 32 -24 54.5t-59 22.5q-37 0 -58 -22.5t-24 -54.5q-4 -37 -3.5 -67.5t4.5 -66.5q3 -31 23.5 -53.5
t57.5 -22.5z" />
    <glyph glyph-name="uni0474" unicode="&#x474;" horiz-adv-x="608" 
d="M172 0l-152 700h158l86 -473l6 -90q2 -9 9 -9q8 0 8 9l7 90l58 298q19 98 67 139.5t125 41.5q15 0 31.5 -2t32.5 -5v-131l-7.5 0.5t-15.5 0.5q-42 0 -62.5 -21.5t-30.5 -66.5l-107 -481h-213z" />
    <glyph glyph-name="uni0475" unicode="&#x475;" horiz-adv-x="539" 
d="M140 0l-120 510h147l63 -318l8 -78q2 -9 9 -9q8 0 8 9l8 78l31 156q16 80 61 123.5t115 43.5q13 0 26.5 -1t27.5 -4v-124q-5 1 -10.5 1h-10.5q-32 0 -53.5 -21.5t-32.5 -73.5l-64 -292h-213z" />
    <glyph glyph-name="uni0476" unicode="&#x476;" horiz-adv-x="608" 
d="M172 0l-152 700h158l86 -473l6 -90q2 -9 9 -9q8 0 8 9l7 90l58 298q19 98 67 139.5t125 41.5q15 0 31.5 -2t32.5 -5v-131l-7.5 0.5t-15.5 0.5q-42 0 -62.5 -21.5t-30.5 -66.5l-107 -481h-213zM160 771l-140 172h150l140 -172h-150zM385 771l-140 172h150l140 -172h-150z
" />
    <glyph glyph-name="uni0477" unicode="&#x477;" horiz-adv-x="539" 
d="M140 0l-120 510h147l63 -318l8 -78q2 -9 9 -9q8 0 8 9l8 78l31 156q16 80 61 123.5t115 43.5q13 0 26.5 -1t27.5 -4v-124q-5 1 -10.5 1h-10.5q-32 0 -53.5 -21.5t-32.5 -73.5l-64 -292h-213zM466 578h-150l-140 172h150zM245 578h-150l-140 172h150z" />
    <glyph glyph-name="uni0478" unicode="&#x478;" horiz-adv-x="1103" 
d="M310 -12q-52 0 -100.5 16.5t-85.5 53.5q-23 24 -41 56.5t-28 88t-10 147.5t10 147.5t28 88.5t41 56q37 37 85.5 53.5t100.5 16.5t100.5 -16.5t85.5 -53.5q24 -23 41.5 -56t27.5 -88.5t10 -147.5t-10 -147.5t-27.5 -88t-41.5 -56.5q-37 -37 -85.5 -53.5t-100.5 -16.5z
M310 129q42 0 69 26t30 72q2 29 3.5 60t1.5 63t-1.5 63.5t-3.5 59.5q-3 46 -30 72t-69 26t-69 -26t-30 -72q-2 -28 -3.5 -59.5t-1.5 -63.5t1.5 -63t3.5 -60q3 -46 30 -72t69 -26zM688 -214l-36 127q53 5 86.5 29t43.5 60l15 54l-167 454h153l62 -217l10 -93q1 -9 8.5 -9
t8.5 9l11 93l50 217h150l-165 -553q-21 -74 -82.5 -121t-147.5 -50z" />
    <glyph glyph-name="uni0479" unicode="&#x479;" horiz-adv-x="1011" 
d="M557 -214l-36 127q53 5 86.5 29t43.5 60l15 54l-167 454h153l62 -217l10 -93q1 -9 8.5 -9t8.5 9l11 93l14 55q16 80 61 123.5t115 43.5q13 0 26.5 -1t27.5 -4v-124q-5 1 -10.5 1h-10.5q-32 0 -53.5 -22.5t-36.5 -72.5l-98 -335q-22 -74 -83 -121t-147 -50zM274 -12
q-99 0 -156 50.5t-67 126.5q-6 48 -6 88q0 23 1 45t5 47q11 76 67.5 126.5t155.5 50.5t156.5 -50t67.5 -127q6 -49 6 -92q0 -40 -6 -88q-11 -76 -68 -126.5t-156 -50.5zM274 112q38 0 58 22.5t24 52.5q5 37 5 67.5t-4 67.5q-3 32 -24 54.5t-59 22.5q-37 0 -58 -22.5
t-24 -54.5q-4 -37 -3.5 -67.5t4.5 -66.5q3 -31 23.5 -53.5t57.5 -22.5z" />
    <glyph glyph-name="uni0480" unicode="&#x480;" horiz-adv-x="504" 
d="M334 -140v128h-7h-7q-75 0 -134 29t-95 81t-41 120q-2 29 -3.5 65t-1.5 67q0 32 1.5 67.5t3.5 64.5q5 68 39.5 120t91.5 81t129 29q51 0 88.5 -14t74.5 -42l-43 -119q-27 20 -49 27.5t-54 7.5q-52 0 -82.5 -26.5t-34.5 -71.5q-2 -35 -3.5 -64t-1.5 -60t1.5 -59.5
t3.5 -64.5q5 -46 33 -72t77 -25q52 0 86 6t68 15v-290h-140z" />
    <glyph glyph-name="uni0481" unicode="&#x481;" horiz-adv-x="460" 
d="M290 -140v128h-6h-6q-102 0 -159.5 51t-67.5 127q-6 48 -6 90q0 21 1 43t5 47q11 77 67.5 126.5t156.5 49.5q48 0 87.5 -12.5t66.5 -35.5l-40 -110q-22 17 -46 26t-58 9q-42 0 -66.5 -21t-26.5 -53q-3 -38 -3 -69.5t3 -69.5q2 -31 27 -52.5t69 -21.5q38 0 71 4t71 14
v-270h-140z" />
    <glyph glyph-name="uni048A" unicode="&#x48a;" horiz-adv-x="660" 
d="M395 -140l123 280h137v-30l-110 -250h-150zM70 0v700h155v-305l-15 -88q-1 -7 5.5 -10t10.5 4l204 399h145v-700h-155v305l14 88q2 8 -5 11t-11 -5l-203 -399h-145zM323 782q-80 0 -120.5 34.5t-60.5 92.5l101 25q10 -28 30.5 -42.5t49.5 -14.5t49.5 14.5t30.5 42.5
l101 -25q-20 -58 -60.5 -92.5t-120.5 -34.5z" />
    <glyph glyph-name="uni048B" unicode="&#x48b;" horiz-adv-x="575" 
d="M343 -130l105 250h127v-30l-92 -220h-140zM65 0v510h145v-193l-15 -88q-1 -7 5.5 -10t10.5 4l169 287h125v-510h-145v182l14 88q2 8 -4.5 11t-11.5 -5l-168 -276h-125zM286 592q-80 0 -120.5 34.5t-60.5 92.5l101 25q10 -28 30.5 -42.5t49.5 -14.5t49.5 14.5t30.5 42.5
l101 -25q-20 -58 -60.5 -92.5t-120.5 -34.5z" />
    <glyph glyph-name="uni048C" unicode="&#x48c;" horiz-adv-x="611" 
d="M0 522v114h400v-114h-400zM80 0v700h160v-260h106q109 0 172 -59t63 -157q0 -104 -63 -164t-172 -60h-266zM240 130h106q35 0 55 24t20 67q0 39 -20 64t-55 25h-106v-180z" />
    <glyph glyph-name="uni048D" unicode="&#x48d;" horiz-adv-x="542" 
d="M95 0v750h150v-395h64q101 0 157 -45.5t56 -128.5q0 -87 -56 -134t-157 -47h-214zM245 115h64q30 0 46.5 17t16.5 49q0 26 -16.5 42.5t-46.5 16.5h-64v-125zM30 396v114h390v-114h-390z" />
    <glyph glyph-name="uni048E" unicode="&#x48e;" horiz-adv-x="601" 
d="M70 1v700h276q104 0 164.5 -60t60.5 -164q0 -61 -23.5 -107t-66.5 -74l46 -80l-99 -57l-59 103q-6 -1 -11.5 -1h-11.5h-117v-260h-159zM229 381h71l-42 72l99 57l24 -41l2 -50q1 -10 7 -12t12 5q24 30 24 68q0 44 -21 67.5t-59 23.5h-117v-190z" />
    <glyph glyph-name="uni048F" unicode="&#x48f;" horiz-adv-x="565" 
d="M65 -200v710h150v-29q18 17 47.5 29t61.5 12q92 0 137.5 -42.5t53.5 -121.5q3 -29 4 -53t1 -48q0 -23 -1.5 -47.5t-3.5 -55.5q-4 -43 -19 -76t-42 -54l44 -77l-99 -57l-58 100h-3h-4q-9 0 -17.5 1t-16.5 3l-64 37q-10 6 -15.5 3t-5.5 -11v-223h-150zM272 118l6 -1l-44 73
l94 51l15 -26l6 -47q2 -11 9.5 -11.5t9.5 10.5q3 14 4.5 28t1.5 29q2 30 -1 60.5t-8 56.5q-4 23 -21 39.5t-52 16.5q-40 0 -58.5 -18.5t-18.5 -50.5v-144q0 -24 16 -43t41 -23z" />
    <glyph glyph-name="uni0490" unicode="&#x490;" horiz-adv-x="474" 
d="M70 0v700h234v140h150v-280h-224v-560h-160z" />
    <glyph glyph-name="uni0491" unicode="&#x491;" horiz-adv-x="432" 
d="M65 0v510h197v141h140v-260h-187v-391h-150z" />
    <glyph glyph-name="uni0492" unicode="&#x492;" horiz-adv-x="484" 
d="M0 295v114h340v-114h-340zM80 0v700h384v-140h-224v-560h-160z" />
    <glyph glyph-name="uni0493" unicode="&#x493;" horiz-adv-x="466" 
d="M99 0v510h337v-120h-187v-390h-150zM24 197v114h340v-114h-340z" />
    <glyph glyph-name="uni0494" unicode="&#x494;" horiz-adv-x="611" 
d="M361 -149q-22 0 -45 3t-38 7l28 125q15 -5 33 -5q19 0 32 13t21.5 35.5t12.5 51.5t4 61q0 68 -26 101t-70 33q-25 0 -47.5 -5.5t-35.5 -10.5v-260h-160v700h469v-140h-309v-169q0 -8 5 -11t15 1l58 26q13 2 26 3t26 1q59 0 107 -27.5t76 -87t28 -154.5q0 -83 -24 -149
t-70.5 -104t-115.5 -38z" />
    <glyph glyph-name="uni0495" unicode="&#x495;" horiz-adv-x="566" 
d="M65 0v510h367v-120h-217v-390h-150zM346 -149q-22 0 -45 3t-38 7l28 125q15 -5 33 -5t29 14t16 37t5 50q0 43 -20.5 63.5t-55.5 20.5q-25 0 -47.5 -5.5t-35.5 -10.5v131q0 -8 5 -11t15 1l58 26q13 2 26 3t26 1q54 0 97 -22.5t68.5 -70.5t25.5 -126q0 -65 -21.5 -117.5
t-63.5 -83t-105 -30.5z" />
    <glyph glyph-name="uni0496" unicode="&#x496;" horiz-adv-x="896" 
d="M736 -140v246l-14 34h164v-280h-150zM25 0l143 360l-148 340h169l114 -285h57v285h156v-285h57l114 285h169l-148 -340l143 -360h-167l-111 285h-57v-285h-156v285h-57l-111 -285h-167z" />
    <glyph glyph-name="uni0497" unicode="&#x497;" horiz-adv-x="767" 
d="M617 -130v216l-14 34h154v-250h-140zM20 0l132 286l-4 -54l-126 278h156l84 -195h37v195h146v-195h37l84 195h156l-126 -278l-1 54l132 -286h-162l-83 195h-37v-195h-146v195h-37l-83 -195h-159z" />
    <glyph glyph-name="uni0498" unicode="&#x498;" horiz-adv-x="539" 
d="M255 -10q-70 0 -126 15.5t-109 58.5l47 127q29 -24 55 -38t55 -20t67 -6q52 0 79.5 21t27.5 59q0 35 -26 60t-88 25h-106v130h116q44 0 64 20t20 55q0 36 -24 58.5t-69 22.5q-38 0 -78 -8.5t-78 -28.5l-43 118q51 32 101.5 42.5t106.5 10.5q40 0 80.5 -11t75 -35
t55.5 -62t21 -92q0 -57 -20 -94.5t-55 -60.5q27 -13 48.5 -34.5t34 -52t12.5 -73.5q0 -62 -32 -109t-87 -72.5t-125 -25.5zM150 -260l22 82q55 0 86.5 10.5t31.5 27.5q0 16 -23 21t-82 5l37 149l79 -29l-13 -49q47 -7 74 -32t27 -60q0 -42 -31 -70.5t-84.5 -42t-123.5 -12.5
z" />
    <glyph glyph-name="uni0499" unicode="&#x499;" horiz-adv-x="463" 
d="M216 -8q-61 0 -110 11t-96 43l43 117q26 -19 47.5 -28.5t46 -13t60.5 -3.5t56.5 12.5t20.5 36.5q0 12 -18.5 27t-65.5 15h-60v96h60q44 0 60.5 14t16.5 32q0 20 -21 34t-62 14q-34 0 -67.5 -6t-67.5 -24l-39 108q45 23 90 34t94 11q40 0 79.5 -9t71.5 -27t51 -46.5
t19 -67.5q0 -49 -18 -75t-48 -40q21 -8 38 -22.5t26.5 -36.5t9.5 -55q0 -47 -31 -81t-80.5 -52t-105.5 -18zM112 -260l22 82q55 0 86.5 10.5t31.5 27.5q0 16 -23 21t-82 5l37 149l79 -29l-13 -49q47 -7 74 -32t27 -60q0 -42 -31 -70.5t-84.5 -42t-123.5 -12.5z" />
    <glyph glyph-name="uni049A" unicode="&#x49a;" horiz-adv-x="616" 
d="M456 -140v246l-14 34h164v-280h-150zM70 0v700h156v-285h57l114 285h169l-150 -340l145 -360h-167l-111 285h-57v-285h-156z" />
    <glyph glyph-name="uni049B" unicode="&#x49b;" horiz-adv-x="543" 
d="M393 -130v216l-14 34h154v-250h-140zM65 0v510h146v-195h37l94 195h156l-134 -274l-4 54l143 -290h-162l-93 195h-37v-195h-146z" />
    <glyph glyph-name="uni049C" unicode="&#x49c;" horiz-adv-x="717" 
d="M70 0v700h156v-285h44v155h124v-105l-13 -46q-2 -9 5 -11.5t11 6.5l134 286h166l-141 -266l-46 -64q-8 -10 0 -21l43 -62l139 -287h-164l-131 286q-4 9 -11 6.5t-5 -11.5l13 -46v-115h-124v165h-44v-285h-156z" />
    <glyph glyph-name="uni049D" unicode="&#x49d;" horiz-adv-x="642" 
d="M65 0v510h146v-195h44v125h108v-75l-13 -46q-2 -9 5 -11.5t11 6.5l92 196h164l-99 -176l-46 -64q-8 -10 0 -21l43 -62l93 -187h-162l-85 186q-4 9 -11 6.5t-5 -11.5l13 -46v-65h-108v115h-44v-185h-146z" />
    <glyph glyph-name="uni049E" unicode="&#x49e;" horiz-adv-x="606" 
d="M10 521v114h306v-114h-306zM90 0v700h156v-285h57l114 285h169l-150 -340l145 -360h-167l-111 285h-57v-285h-156z" />
    <glyph glyph-name="uni049F" unicode="&#x49f;" horiz-adv-x="523" 
d="M0 565v104h360v-104h-360zM65 0v750h146v-397h37l86 158h164l-125 -220l130 -291h-162l-93 223h-37v-223h-146z" />
    <glyph glyph-name="uni04A0" unicode="&#x4a0;" horiz-adv-x="736" 
d="M20 580v120h200v-120h-200zM220 0v700h156v-285h57l114 285h169l-150 -340l145 -360h-167l-111 285h-57v-285h-156z" />
    <glyph glyph-name="uni04A1" unicode="&#x4a1;" horiz-adv-x="608" 
d="M20 390v120h240v-120h-240zM150 0v510h146v-195h37l94 195h156l-134 -274l-4 54l143 -290h-162l-93 195h-37v-195h-146z" />
    <glyph glyph-name="uni04A2" unicode="&#x4a2;" horiz-adv-x="675" 
d="M490 -140v246l-14 34h164v-280h-150zM70 0v700h160v-280h180v280h160v-700h-160v280h-180v-280h-160z" />
    <glyph glyph-name="uni04A3" unicode="&#x4a3;" horiz-adv-x="596" 
d="M431 -130v216l-14 34h154v-250h-140zM65 0v510h150v-195h136v195h150v-510h-150v195h-136v-195h-150z" />
    <glyph glyph-name="uni04A4" unicode="&#x4a4;" horiz-adv-x="794" 
d="M424 560v140h350v-140h-350zM70 0v700h160v-280h180v280h160v-700h-160v280h-180v-280h-160z" />
    <glyph glyph-name="uni04A5" unicode="&#x4a5;" horiz-adv-x="701" 
d="M381 390v120h290v-120h-290zM65 0v510h150v-195h136v195h150v-510h-150v195h-136v-195h-150z" />
    <glyph glyph-name="uni04A6" unicode="&#x4a6;" horiz-adv-x="926" 
d="M696 -149q-22 0 -45 3t-38 7l28 125q15 -5 33 -5q19 0 32 13t21.5 35.5t12.5 51.5t4 61q0 68 -26 101t-70 33q-25 0 -47.5 -5.5t-35.5 -10.5v131q0 -8 5 -11t15 1l58 26q13 2 26 3t26 1q59 0 107 -27.5t76 -87t28 -154.5q0 -83 -24 -149t-70.5 -104t-115.5 -38zM70 0v700
h495v-700h-160v560h-175v-560h-160z" />
    <glyph glyph-name="uni04A7" unicode="&#x4a7;" horiz-adv-x="836" 
d="M626 -149q-22 0 -45 3t-38 7l28 125q15 -5 33 -5t29 14t16 37t5 50q0 43 -20.5 63.5t-55.5 20.5q-25 0 -47.5 -5.5t-35.5 -10.5v131q0 -8 5 -11t15 1l58 26q13 2 26 3t26 1q54 0 97 -22.5t68.5 -70.5t25.5 -126q0 -65 -21.5 -117.5t-63.5 -83t-105 -30.5zM65 0v510h430
v-510h-150v390h-130v-390h-150z" />
    <glyph glyph-name="uni04A8" unicode="&#x4a8;" horiz-adv-x="740" 
d="M314 -12q-76 0 -133.5 29.5t-91.5 81.5t-39 119q-2 29 -3.5 65t-1.5 67q0 32 1.5 67.5t3.5 64.5q5 68 41 120t95 81t134 29v-140q-43 0 -74.5 -26.5t-35.5 -71.5q-2 -35 -3.5 -64t-1.5 -60t1.5 -59.5t3.5 -64.5q5 -52 36.5 -81t89.5 -29q47 0 84.5 19t63.5 53t40 79.5
t14 98.5q0 48 -9.5 79t-43.5 31q-29 0 -40 -31t-11 -79q0 -65 22.5 -122t68 -92.5t115.5 -35.5q11 0 21.5 1.5t21.5 3.5v-122q-16 -4 -31 -6.5t-31 -2.5q-75 0 -137 30t-107.5 82.5t-70 121t-24.5 145.5q0 105 51.5 168t154.5 63q101 0 151.5 -63t50.5 -168
q0 -65 -27.5 -132t-78 -123.5t-119.5 -91t-151 -34.5z" />
    <glyph glyph-name="uni04A9" unicode="&#x4a9;" horiz-adv-x="658" 
d="M281 -11q-102 0 -161.5 49.5t-68.5 123.5q-6 48 -6 87q0 21 1 46t5 50q11 76 68.5 126t154.5 50v-122q-37 0 -58 -22.5t-24 -54.5q-3 -35 -3 -66.5t4 -67.5q3 -31 25.5 -53.5t62.5 -22.5q58 0 102 20.5t69.5 58.5t25.5 88q0 29 -6.5 48t-28.5 19q-21 0 -29.5 -20.5
t-8.5 -58.5q0 -39 9.5 -77.5t38.5 -64t86 -25.5q15 0 33 3.5t38 9.5v-113q-20 -7 -43 -9t-44 -2q-54 0 -100.5 20.5t-81 57.5t-54 87t-19.5 108q0 60 21.5 103t61 66.5t93.5 23.5q50 0 88 -21.5t59.5 -61.5t21.5 -98t-27 -109.5t-73.5 -91t-106.5 -62t-125 -22.5z" />
    <glyph glyph-name="uni04AA" unicode="&#x4aa;" horiz-adv-x="504" 
d="M320 -12q-75 0 -134 29t-95 81t-41 120q-2 29 -3.5 65t-1.5 67q0 32 1.5 67.5t3.5 64.5q5 68 39.5 120t91.5 81t129 29q51 0 88.5 -14t74.5 -42l-43 -119q-27 20 -49 27.5t-54 7.5q-52 0 -82.5 -26.5t-34.5 -71.5q-2 -35 -3.5 -64t-1.5 -60t1.5 -59.5t3.5 -64.5
q5 -46 33 -72t77 -25q36 0 59.5 10.5t47.5 25.5l47 -125q-36 -25 -71 -38.5t-83 -13.5zM150 -260l22 82q55 0 86.5 10.5t31.5 27.5q0 16 -23 21t-82 5l37 149l79 -29l-13 -49q47 -7 74 -32t27 -60q0 -42 -31 -70.5t-84.5 -42t-123.5 -12.5z" />
    <glyph glyph-name="uni04AB" unicode="&#x4ab;" horiz-adv-x="460" 
d="M278 -12q-102 0 -159.5 51t-67.5 127q-6 48 -6 90q0 21 1 43t5 47q11 77 67.5 126.5t156.5 49.5q48 0 87.5 -12.5t66.5 -35.5l-40 -110q-22 17 -46 26t-58 9q-42 0 -66.5 -21t-26.5 -53q-3 -38 -3 -69.5t3 -69.5q2 -31 27 -52.5t69 -21.5q26 0 51 7.5t53 24.5l38 -107
q-34 -26 -72.5 -37.5t-79.5 -11.5zM122 -260l22 82q55 0 86.5 10.5t31.5 27.5q0 16 -23 21t-82 5l37 149l79 -29l-13 -49q47 -7 74 -32t27 -60q0 -42 -31 -70.5t-84.5 -42t-123.5 -12.5z" />
    <glyph glyph-name="uni04AC" unicode="&#x4ac;" horiz-adv-x="510" 
d="M255 -140v246l-14 34h164v-280h-150zM175 0v560h-155v140h470v-140h-155v-560h-160z" />
    <glyph glyph-name="uni04AD" unicode="&#x4ad;" horiz-adv-x="450" 
d="M230 -130v216l-14 34h154v-250h-140zM150 0v390h-130v120h410v-120h-130v-390h-150z" />
    <glyph glyph-name="Ustraitcy" unicode="&#x4ae;" horiz-adv-x="508" 
d="M174 0v255l-174 445h161l74 -200l11 -78q2 -9 8 -9t9 9l12 78l74 200h159l-174 -445v-255h-160z" />
    <glyph glyph-name="ustraitcy" unicode="&#x4af;" horiz-adv-x="494" 
d="M172 0l-152 510h147l63 -268l8 -78q1 -9 8.5 -9t8.5 9l8 78l64 268h147l-152 -510h-150zM172 -200v200h150v-200h-150z" />
    <glyph glyph-name="Ustraitstrokecy" unicode="&#x4b0;" horiz-adv-x="508" 
d="M64 186v114h380v-114h-380zM174 0v255l-174 445h161l74 -200l11 -78q2 -9 8 -9t9 9l12 78l74 200h159l-174 -445v-255h-160z" />
    <glyph glyph-name="ustraitstrokecy" unicode="&#x4b1;" horiz-adv-x="494" 
d="M57 -114v114h380v-114h-380zM172 0l-152 510h147l63 -268l8 -78q1 -9 8.5 -9t8.5 9l8 78l64 268h147l-152 -510h-150zM172 -200v200h150v-200h-150z" />
    <glyph glyph-name="uni04B2" unicode="&#x4b2;" horiz-adv-x="605" 
d="M445 -140v246l-14 34h164v-280h-150zM20 0l143 355l-143 345h169l76 -204l11 -78q2 -9 8 -9t9 9l12 78l76 204h169l-145 -345l145 -355h-169l-76 214l-12 78q-3 9 -9 9t-8 -9l-11 -78l-76 -214h-169z" />
    <glyph glyph-name="uni04B3" unicode="&#x4b3;" horiz-adv-x="533" 
d="M383 -130v216l-14 34h154v-250h-140zM20 0l123 255l-123 255h156l59 -140l11 -48q2 -9 8 -9t9 9l12 48l59 140h154l-123 -255l123 -255h-154l-59 140l-12 48q-3 9 -9 9t-8 -9l-11 -48l-59 -140h-156z" />
    <glyph glyph-name="uni04B4" unicode="&#x4b4;" horiz-adv-x="774" 
d="M20 560v140h420v-140h-420zM174 0v700h160v-560h175v560h160v-700h-495zM589 -140v246l-14 34h164v-280h-150z" />
    <glyph glyph-name="uni04B5" unicode="&#x4b5;" horiz-adv-x="675" 
d="M20 390v120h350v-120h-350zM150 0v510h150v-390h130v390h150v-510h-430zM510 -130v250h140v-250h-140z" />
    <glyph glyph-name="uni04B6" unicode="&#x4b6;" horiz-adv-x="645" 
d="M460 -140v246l-14 34h164v-280h-150zM380 0v269q0 8 -4.5 11.5t-15.5 -1.5l-58 -26q-13 -2 -25.5 -3t-26.5 -1q-56 0 -101.5 22t-72 69.5t-26.5 123.5v236h160v-226q0 -46 23.5 -68t63.5 -22q26 0 48 5.5t35 10.5v300h160v-700h-160z" />
    <glyph glyph-name="uni04B7" unicode="&#x4b7;" horiz-adv-x="578" 
d="M413 -130v216l-14 34h154v-250h-140zM330 0v185q0 8 -5.5 11t-15.5 -3l-54 -32q-15 -4 -34 -4q-46 0 -85 16.5t-62.5 56.5t-23.5 108v172h150v-139q0 -41 15 -60t54 -19q28 0 42 10t21 22v186h150v-510h-152z" />
    <glyph glyph-name="uni04B8" unicode="&#x4b8;" horiz-adv-x="650" 
d="M420 0v259q0 8 -4.5 11.5t-15.5 -1.5l-11 -5q-3 -1 -5.5 -2t-5.5 -3v-139h-120v120q-59 5 -106.5 29t-74.5 69.5t-27 115.5v246h160v-236q0 -34 16 -52t44 -29q5 -1 8.5 2t1.5 7l-22 59v119h120v-192q13 2 24 5.5t18 6.5v310h160v-700h-160z" />
    <glyph glyph-name="uni04B9" unicode="&#x4b9;" horiz-adv-x="594" 
d="M377 0v185q0 8 -5 10t-16 -2l-16 -6v-90h-105v60h-14q-46 0 -85 16.5t-62.5 56.5t-23.5 108v172h150v-139q0 -32 10 -50.5t39 -24.5q4 -1 7 2t1 7l-22 62v59h105v-126q14 5 24.5 11t14.5 13v186h150v-510h-152z" />
    <glyph glyph-name="uni04BA" unicode="&#x4ba;" 
d="M230 700v-269q0 -8 5 -11t15 1l58 26q13 2 26 3t26 1q56 0 101.5 -22t72 -69.5t26.5 -123.5v-236h-160v226q0 46 -23.5 68t-63.5 22q-25 0 -47.5 -5.5t-35.5 -10.5v-300h-160v700h160z" />
    <glyph glyph-name="uni04BB" unicode="&#x4bb;" horiz-adv-x="563" 
d="M65 0v750h146v-258q26 14 56 22t65 8q45 0 84 -17t63 -51.5t24 -87.5v-366h-150v305q0 43 -14 62.5t-55 19.5q-40 0 -56.5 -19.5t-16.5 -62.5v-305h-146z" />
    <glyph glyph-name="uni04BC" unicode="&#x4bc;" horiz-adv-x="756" 
d="M476 -12q-54 0 -112 16.5t-94 52.5q-25 25 -45 57.5t-32 88t-12 147.5q0 109 22 179.5t60 110.5t85 56t98 16t98 -15.5t85 -52t60 -98.5t22 -156l-40 -89h-487q-86 0 -135 46.5t-49 123.5q0 33 11 67t35 65l96 -58q-9 -16 -13.5 -30t-4.5 -25q0 -28 12.5 -40.5
t39.5 -12.5h371q0 36 -8 61.5t-21.5 41.5t-32 23.5t-39.5 7.5q-42 0 -71.5 -31t-30.5 -103v-136q0 -47 9 -80t27 -53.5t45 -29.5t61 -9q56 0 101 18.5t66 37.5l52 -124q-36 -27 -90.5 -50t-138.5 -23z" />
    <glyph glyph-name="uni04BD" unicode="&#x4bd;" horiz-adv-x="601" 
d="M139 218q-65 0 -102 35t-37 93q0 25 8.5 50.5t26.5 49.5l72 -44q-6 -13 -9 -24.5t-3 -20.5q0 -36 45 -36zM384 -10q-69 0 -121.5 22.5t-84.5 62t-40 88.5q-3 24 -4.5 44.5t-1.5 41.5q0 40 6 89q11 78 65.5 130t146.5 52q55 0 95.5 -16.5t67.5 -48t40 -78t13 -106.5
l-21 -52h-382l-2 101h269q-2 21 -9 40t-23.5 31t-45.5 12q-41 0 -59.5 -26t-20.5 -71q-1 -26 -1.5 -52t1.5 -54q5 -51 36.5 -69.5t75.5 -18.5q29 0 56 7.5t58 21.5l38 -107q-34 -22 -72.5 -33t-79.5 -11z" />
    <glyph glyph-name="uni04BE" unicode="&#x4be;" horiz-adv-x="756" 
d="M476 -12q-54 0 -112 16.5t-94 52.5q-25 25 -45 57.5t-32 88t-12 147.5q0 109 22 179.5t60 110.5t85 56t98 16t98 -15.5t85 -52t60 -98.5t22 -156l-40 -89h-487q-86 0 -135 46.5t-49 123.5q0 33 11 67t35 65l96 -58q-9 -16 -13.5 -30t-4.5 -25q0 -28 12.5 -40.5
t39.5 -12.5h371q0 36 -8 61.5t-21.5 41.5t-32 23.5t-39.5 7.5q-42 0 -71.5 -31t-30.5 -103v-136q0 -47 9 -80t27 -53.5t45 -29.5t61 -9q56 0 101 18.5t66 37.5l52 -124q-36 -27 -90.5 -50t-138.5 -23zM575 -257q-67 1 -118.5 17t-80.5 51.5t-29 92.5q0 47 24.5 80t68.5 51
l102 -27q-39 -21 -55 -40t-16 -51q0 -37 32 -52t87 -16z" />
    <glyph glyph-name="uni04BF" unicode="&#x4bf;" horiz-adv-x="601" 
d="M139 218q-65 0 -102 35t-37 93q0 25 8.5 50.5t26.5 49.5l72 -44q-6 -13 -9 -24.5t-3 -20.5q0 -36 45 -36zM384 -10q-69 0 -121.5 22.5t-84.5 62t-40 88.5q-3 24 -4.5 44.5t-1.5 41.5q0 40 6 89q11 78 65.5 130t146.5 52q55 0 95.5 -16.5t67.5 -48t40 -78t13 -106.5
l-21 -52h-382l-2 101h269q-2 21 -9 40t-23.5 31t-45.5 12q-41 0 -59.5 -26t-20.5 -71q-1 -26 -1.5 -52t1.5 -54q5 -51 36.5 -69.5t75.5 -18.5q29 0 56 7.5t58 21.5l38 -107q-34 -22 -72.5 -33t-79.5 -11zM530 -245q-67 1 -118.5 17t-80.5 51.5t-29 92.5q0 47 24.5 80
t68.5 51l102 -27q-39 -21 -55 -40t-16 -51q0 -37 32 -52t87 -16z" />
    <glyph glyph-name="uni04C0" unicode="&#x4c0;" horiz-adv-x="299" 
d="M70 0v700h159v-700h-159z" />
    <glyph glyph-name="uni04C1" unicode="&#x4c1;" horiz-adv-x="876" 
d="M25 0l143 360l-148 340h169l114 -285h57v285h156v-285h57l114 285h169l-148 -340l143 -360h-167l-111 285h-57v-285h-156v285h-57l-111 -285h-167zM438 782q-80 0 -120.5 34.5t-60.5 92.5l101 25q10 -28 30.5 -42.5t49.5 -14.5t49.5 14.5t30.5 42.5l101 -25
q-20 -58 -60.5 -92.5t-120.5 -34.5z" />
    <glyph glyph-name="uni04C2" unicode="&#x4c2;" horiz-adv-x="747" 
d="M20 0l132 286l-4 -54l-126 278h156l84 -195h37v195h146v-195h37l84 195h156l-126 -278l-1 54l132 -286h-162l-83 195h-37v-195h-146v195h-37l-83 -195h-159zM369 592q-80 0 -120.5 34.5t-60.5 92.5l101 25q10 -28 30.5 -42.5t49.5 -14.5t49.5 14.5t30.5 42.5l101 -25
q-20 -58 -60.5 -92.5t-120.5 -34.5z" />
    <glyph glyph-name="uni04C3" unicode="&#x4c3;" horiz-adv-x="611" 
d="M361 -149q-22 0 -45 3t-38 7l28 125q15 -5 33 -5q25 0 40.5 22.5t22.5 59.5t7 79q0 68 -29.5 101t-93.5 33h-56v155q0 -10 4 -15t16 -5h86q69 0 122 -28.5t83 -88t30 -152.5q0 -83 -24 -149t-70.5 -104t-115.5 -38zM70 0v700h160v-700h-160zM434 322l-126 75l89 303h169z
" />
    <glyph glyph-name="uni04C4" unicode="&#x4c4;" horiz-adv-x="586" 
d="M356 -149q-22 0 -45 3t-38 7l28 125q15 -5 33 -5t29 14.5t16 37.5t5 50q0 57 -25 84.5t-84 27.5h-50v130q0 -8 4.5 -9t15.5 -1h74q72 0 122.5 -24t77.5 -75t27 -133q0 -66 -21.5 -118.5t-63.5 -83t-105 -30.5zM65 0v510h160v-510h-160zM409 236l-126 75l83 199h169z" />
    <glyph glyph-name="uni04C5" unicode="&#x4c5;" horiz-adv-x="655" 
d="M390 -140l123 280h137v-30l-110 -250h-150zM46 -12l-36 132q42 8 66 34.5t28 72.5q8 86 13 201.5t6 271.5h447v-700h-160v560h-139q-3 -116 -6 -211t-14 -165q-13 -80 -66 -130t-139 -66z" />
    <glyph glyph-name="uni04C6" unicode="&#x4c6;" horiz-adv-x="583" 
d="M351 -130l105 250h127v-30l-92 -220h-140zM55 -12l-35 129q33 5 56.5 21.5t30.5 47.5q8 35 12.5 80.5t6.5 105.5t2 138h385v-510h-150v390h-91q-2 -67 -8 -119.5t-12 -96.5q-12 -90 -65.5 -133.5t-131.5 -52.5z" />
    <glyph glyph-name="uni04C7" unicode="&#x4c7;" horiz-adv-x="640" 
d="M360 -222l-36 132q39 8 62.5 30.5t23.5 59.5h160q0 -94 -56 -148.5t-154 -73.5zM70 0v700h160v-280h180v280h160v-700h-160v280h-180v-280h-160z" />
    <glyph glyph-name="uni04C8" unicode="&#x4c8;" horiz-adv-x="566" 
d="M285 -222l-34 131q47 11 73.5 31.5t26.5 59.5h150q0 -56 -19 -97t-51 -67.5t-70 -40.5t-76 -17zM65 0v510h150v-195h136v195h150v-510h-150v195h-136v-195h-150z" />
    <glyph glyph-name="uni04C9" unicode="&#x4c9;" horiz-adv-x="655" 
d="M390 -140l123 280h137v-30l-110 -250h-150zM70 0v700h160v-280h180v280h160v-700h-160v280h-180v-280h-160z" />
    <glyph glyph-name="uni04CA" unicode="&#x4ca;" horiz-adv-x="571" 
d="M339 -130l105 250h127v-30l-92 -220h-140zM65 0v510h150v-195h136v195h150v-510h-150v195h-136v-195h-150z" />
    <glyph glyph-name="uni04CB" unicode="&#x4cb;" 
d="M310 -140v280h164l-14 -34v-246h-150zM380 0v269q0 8 -4.5 11.5t-15.5 -1.5l-58 -26q-13 -2 -25.5 -3t-26.5 -1q-56 0 -101.5 22t-72 69.5t-26.5 123.5v236h160v-226q0 -46 23.5 -68t63.5 -22q26 0 48 5.5t35 10.5v300h160v-700h-160z" />
    <glyph glyph-name="uni04CC" unicode="&#x4cc;" horiz-adv-x="557" 
d="M340 0v195q0 8 -5 10.5t-16 -2.5l-64 -32q-15 -4 -34 -4q-46 0 -85 16.5t-62.5 56.5t-23.5 108v162h150v-129q0 -41 15 -60t54 -19q32 0 49 9.5t24 22.5v176h150v-510h-152zM270 -130v250h154l-14 -34v-216h-140z" />
    <glyph glyph-name="uni04CD" unicode="&#x4cd;" horiz-adv-x="695" 
d="M430 -140l123 280h137v-30l-110 -250h-150zM70 0v700h130l131 -247q3 -6 9 -6t9 6l131 247h130v-700h-150v290l14 88q2 8 -4.5 11t-11.5 -5l-96 -155h-52l-88 155q-4 8 -10.5 5t-5.5 -11l14 -88v-290h-150z" />
    <glyph glyph-name="uni04CE" unicode="&#x4ce;" horiz-adv-x="669" 
d="M437 -130l105 250h127v-30l-92 -220h-140zM65 0v509h136l121 -211q4 -6 9.5 -6t9.5 6l122 211h136v-509h-141v173l13 84q2 8 -4 11t-11 -5l-102 -157h-51l-95 157q-4 8 -10.5 5t-5.5 -11l14 -84v-173h-141z" />
    <glyph glyph-name="uni04CF" unicode="&#x4cf;" horiz-adv-x="280" 
d="M65 0v750h150v-750h-150z" />
    <glyph glyph-name="uni04D0" unicode="&#x4d0;" 
d="M30 0l170 700h220l170 -700h-159l-105 497l-7 63q-1 9 -9 9t-9 -9l-7 -63l-105 -497h-159zM207 162l29 130h147l30 -130h-206zM95 570v130h120l-20 -130h-100zM310 782q-80 0 -120.5 34.5t-60.5 92.5l101 25q10 -28 30.5 -42.5t49.5 -14.5t49.5 14.5t30.5 42.5l101 -25
q-20 -58 -60.5 -92.5t-120.5 -34.5z" />
    <glyph glyph-name="uni04D1" unicode="&#x4d1;" horiz-adv-x="505" 
d="M370 -12l-32 43q-11 14 -23 3q-23 -18 -52.5 -30t-70.5 -12q-73 0 -115 42.5t-42 107.5q0 48 23.5 81t63.5 49.5t89 16.5h87v49q0 31 -22 47t-67 16q-34 0 -65 -11t-62 -29l-41 112q39 23 84 36t95 13q109 0 160.5 -51.5t51.5 -131.5v-200l53 -76zM224 97q35 0 54.5 21.5
t19.5 55.5v13q0 13 -18 8l-36 -11h-31q-24 0 -36 -10.5t-12 -29.5t17 -33t42 -14zM253 592q-80 0 -120.5 34.5t-60.5 92.5l101 25q10 -28 30.5 -42.5t49.5 -14.5t49.5 14.5t30.5 42.5l101 -25q-20 -58 -60.5 -92.5t-120.5 -34.5z" />
    <glyph glyph-name="uni04D2" unicode="&#x4d2;" 
d="M30 0l170 700h220l170 -700h-159l-105 497l-7 63q-1 9 -9 9t-9 -9l-7 -63l-105 -497h-159zM207 162l29 130h147l30 -130h-206zM95 570v130h120l-20 -130h-100zM345 768v122h134v-122h-134zM141 768v122h134v-122h-134z" />
    <glyph glyph-name="uni04D3" unicode="&#x4d3;" horiz-adv-x="505" 
d="M370 -12l-32 43q-11 14 -23 3q-23 -18 -52.5 -30t-70.5 -12q-73 0 -115 42.5t-42 107.5q0 48 23.5 81t63.5 49.5t89 16.5h87v49q0 31 -22 47t-67 16q-34 0 -65 -11t-62 -29l-41 112q39 23 84 36t95 13q109 0 160.5 -51.5t51.5 -131.5v-200l53 -76zM224 97q35 0 54.5 21.5
t19.5 55.5v13q0 13 -18 8l-36 -11h-31q-24 0 -36 -10.5t-12 -29.5t17 -33t42 -14zM288 578v122h134v-122h-134zM84 578v122h134v-122h-134z" />
    <glyph glyph-name="uni04D4" unicode="&#x4d4;" horiz-adv-x="870" 
d="M30 0l137 565h-72v135h725v-135h-285v-150h268v-130h-268v-145h285v-140h-430v162h-167l-34 -162h-159zM251 292h139v273h-81z" />
    <glyph glyph-name="uni04D5" unicode="&#x4d5;" horiz-adv-x="767" 
d="M202 -9q-78 0 -122.5 43t-44.5 108q0 48 23.5 81t63.5 49.5t89 16.5h87v49q0 31 -22 47t-67 16q-34 0 -65 -11t-62 -29l-41 112q39 23 84 36t95 13q41 0 73 -7.5t57 -21.5l18 -20q8 -10 16 0l17 19q24 14 52.5 21t62.5 7q55 0 95.5 -16.5t67.5 -48t40 -78t13 -106.5
l-21 -52h-274q0 -58 29.5 -82.5t83.5 -24.5q29 0 56 7.5t58 21.5l38 -107q-34 -22 -72.5 -32.5t-79.5 -10.5q-49 0 -89 11t-71 31l-19 21q-8 10 -17 -1l-17 -19q-28 -20 -62.5 -31.5t-72.5 -11.5zM224 97q35 0 54.5 21.5t19.5 55.5v13q0 13 -18 8l-36 -11h-31
q-24 0 -36 -10.5t-12 -29.5t17 -33t42 -14zM439 320h157q-2 21 -9 40t-23.5 31t-45.5 12q-38 0 -56 -22t-23 -61z" />
    <glyph glyph-name="uni04D6" unicode="&#x4d6;" horiz-adv-x="550" 
d="M70 0v700h430v-140h-285v-145h268v-130h-268v-145h285v-140h-430zM295 782q-80 0 -120.5 34.5t-60.5 92.5l101 25q10 -28 30.5 -42.5t49.5 -14.5t49.5 14.5t30.5 42.5l101 -25q-20 -58 -60.5 -92.5t-120.5 -34.5z" />
    <glyph glyph-name="uni04D7" unicode="&#x4d7;" horiz-adv-x="514" 
d="M297 -10q-69 0 -121.5 22.5t-84.5 62t-40 88.5q-3 24 -4.5 44.5t-1.5 41.5q0 40 6 89q11 78 65.5 130t146.5 52q55 0 95.5 -16.5t67.5 -48t40 -78t13 -106.5l-21 -52h-382l-2 101h269q-2 21 -9 40t-23.5 31t-45.5 12q-41 0 -59.5 -26t-20.5 -71q-1 -26 -1.5 -52t1.5 -54
q5 -51 36.5 -69.5t75.5 -18.5q29 0 56 7.5t58 21.5l38 -107q-34 -22 -72.5 -33t-79.5 -11zM263 592q-80 0 -120.5 34.5t-60.5 92.5l101 25q10 -28 30.5 -42.5t49.5 -14.5t49.5 14.5t30.5 42.5l101 -25q-20 -58 -60.5 -92.5t-120.5 -34.5z" />
    <glyph glyph-name="uni04D8" unicode="&#x4d8;" horiz-adv-x="620" 
d="M310 -12q-51 0 -98 15.5t-85 52t-60 98.5t-22 156v89h368q0 47 -9.5 80t-27.5 53.5t-44.5 29.5t-61.5 9q-52 0 -94.5 -18.5t-62.5 -37.5l-52 124q35 27 87 50t132 23q54 0 112 -16.5t94 -52.5q25 -25 45 -57.5t32 -87.5t12 -148q0 -109 -22 -179.5t-60 -110.5t-85 -56
t-98 -16zM310 129q42 0 71.5 31t29.5 103h-202q0 -36 8 -61.5t21.5 -41.5t32 -23.5t39.5 -7.5z" />
    <glyph glyph-name="uni04D9" unicode="&#x4d9;" horiz-adv-x="514" 
d="M217 520q70 0 122 -22.5t84 -61.5t40 -89q3 -24 4.5 -44.5t1.5 -41.5q0 -39 -6 -89q-10 -78 -65 -130t-147 -52q-55 0 -95.5 16.5t-67.5 48t-40 78t-13 106.5l21 52h382l2 -101h-269q2 -21 9.5 -40t23.5 -31t45 -12q41 0 59.5 26t20.5 71q2 26 2 52t-2 54q-4 51 -36 69.5
t-76 18.5q-28 0 -55.5 -7.5t-58.5 -21.5l-38 107q34 23 73 33.5t79 10.5z" />
    <glyph glyph-name="uni04DA" unicode="&#x4da;" horiz-adv-x="620" 
d="M310 -12q-51 0 -98 15.5t-85 52t-60 98.5t-22 156v89h368q0 47 -9.5 80t-27.5 53.5t-44.5 29.5t-61.5 9q-52 0 -94.5 -18.5t-62.5 -37.5l-52 124q35 27 87 50t132 23q54 0 112 -16.5t94 -52.5q25 -25 45 -57.5t32 -87.5t12 -148q0 -109 -22 -179.5t-60 -110.5t-85 -56
t-98 -16zM310 129q42 0 71.5 31t29.5 103h-202q0 -36 8 -61.5t21.5 -41.5t32 -23.5t39.5 -7.5zM335 768v122h134v-122h-134zM131 768v122h134v-122h-134z" />
    <glyph glyph-name="uni04DB" unicode="&#x4db;" horiz-adv-x="519" 
d="M298 578v122h134v-122h-134zM94 578v122h134v-122h-134zM217 520q70 0 122 -22.5t84 -61.5t40 -89q3 -24 4.5 -44.5t1.5 -41.5q0 -39 -6 -89q-10 -78 -65 -130t-147 -52q-55 0 -95.5 16.5t-67.5 48t-40 78t-13 106.5l21 52h382l2 -101h-269q2 -21 9.5 -40t23.5 -31
t45 -12q41 0 59.5 26t20.5 71q2 26 2 52t-2 54q-4 51 -36 69.5t-76 18.5q-28 0 -55.5 -7.5t-58.5 -21.5l-38 107q34 23 73 33.5t79 10.5z" />
    <glyph glyph-name="uni04DC" unicode="&#x4dc;" horiz-adv-x="876" 
d="M25 0l143 360l-148 340h169l114 -285h57v285h156v-285h57l114 285h169l-148 -340l143 -360h-167l-111 285h-57v-285h-156v285h-57l-111 -285h-167zM473 768v122h134v-122h-134zM269 768v122h134v-122h-134z" />
    <glyph glyph-name="uni04DD" unicode="&#x4dd;" horiz-adv-x="747" 
d="M20 0l132 286l-4 -54l-126 278h156l84 -195h37v195h146v-195h37l84 195h156l-126 -278l-1 54l132 -286h-162l-83 195h-37v-195h-146v195h-37l-83 -195h-159zM404 578v122h134v-122h-134zM200 578v122h134v-122h-134z" />
    <glyph glyph-name="uni04DE" unicode="&#x4de;" horiz-adv-x="539" 
d="M255 -10q-70 0 -126 15.5t-109 58.5l47 127q29 -24 55 -38t55 -20t67 -6q52 0 79.5 21t27.5 59q0 35 -26 60t-88 25h-106v130h116q44 0 64 20t20 55q0 36 -24 58.5t-69 22.5q-38 0 -78 -8.5t-78 -28.5l-43 118q51 32 101.5 42.5t106.5 10.5q40 0 80.5 -11t75 -35
t55.5 -62t21 -92q0 -57 -20 -94.5t-55 -60.5q27 -13 48.5 -34.5t34 -52t12.5 -73.5q0 -62 -32 -109t-87 -72.5t-125 -25.5zM285 768v122h134v-122h-134zM81 768v122h134v-122h-134z" />
    <glyph glyph-name="uni04DF" unicode="&#x4df;" horiz-adv-x="463" 
d="M216 -8q-61 0 -110 11t-96 43l43 117q26 -19 47.5 -28.5t46 -13t60.5 -3.5t56.5 12.5t20.5 36.5q0 12 -18.5 27t-65.5 15h-60v96h60q44 0 60.5 14t16.5 32q0 20 -21 34t-62 14q-34 0 -67.5 -6t-67.5 -24l-39 108q45 23 90 34t94 11q40 0 79.5 -9t71.5 -27t51 -46.5
t19 -67.5q0 -49 -18 -75t-48 -40q21 -8 38 -22.5t26.5 -36.5t9.5 -55q0 -47 -31 -81t-80.5 -52t-105.5 -18zM257 578v122h134v-122h-134zM53 578v122h134v-122h-134z" />
    <glyph glyph-name="uni04E0" unicode="&#x4e0;" horiz-adv-x="534" 
d="M250 -10q-70 0 -126 15.5t-109 58.5l47 127q29 -24 55 -38t55 -20t67 -6q52 0 79.5 21t27.5 59q0 40 -26 67.5t-88 27.5h-106v90l99 133l30 27q8 6 5 12t-11 6h-214v130h417v-98l-199 -228l-12 60q119 -6 186 -58t67 -163q0 -58 -23 -100t-59.5 -69.5t-79.5 -40.5
t-82 -13z" />
    <glyph glyph-name="uni04E1" unicode="&#x4e1;" horiz-adv-x="480" 
d="M205 -214q-52 0 -93.5 10.5t-81.5 38.5l44 104q29 -19 55 -25.5t65 -6.5q59 0 91 28t32 78q0 39 -27.5 65.5t-92.5 26.5h-77v90l94 141l26 26q8 6 5 12t-11 6h-184v130h366v-98l-180 -245l-13 66q110 -9 173 -61t63 -159q0 -67 -31.5 -118t-88.5 -80t-134 -29z" />
    <glyph glyph-name="uni04E2" unicode="&#x4e2;" horiz-adv-x="645" 
d="M70 0v700h155v-305l-15 -88q-1 -7 5.5 -10t10.5 4l204 399h145v-700h-155v305l14 88q2 8 -5 11t-11 -5l-203 -399h-145zM172 766v114h301v-114h-301z" />
    <glyph glyph-name="uni04E3" unicode="&#x4e3;" horiz-adv-x="570" 
d="M65 0v510h145v-193l-15 -88q-1 -7 5.5 -10t10.5 4l169 287h125v-510h-145v182l14 88q2 8 -4.5 11t-11.5 -5l-168 -276h-125zM135 576v114h301v-114h-301z" />
    <glyph glyph-name="uni04E4" unicode="&#x4e4;" horiz-adv-x="645" 
d="M70 0v700h155v-305l-15 -88q-1 -7 5.5 -10t10.5 4l204 399h145v-700h-155v305l14 88q2 8 -5 11t-11 -5l-203 -399h-145zM358 768v122h134v-122h-134zM154 768v122h134v-122h-134z" />
    <glyph glyph-name="uni04E5" unicode="&#x4e5;" horiz-adv-x="570" 
d="M65 0v510h145v-193l-15 -88q-1 -7 5.5 -10t10.5 4l169 287h125v-510h-145v182l14 88q2 8 -4.5 11t-11.5 -5l-168 -276h-125zM321 578v122h134v-122h-134zM117 578v122h134v-122h-134z" />
    <glyph glyph-name="uni04E6" unicode="&#x4e6;" horiz-adv-x="620" 
d="M310 -12q-52 0 -100.5 16.5t-85.5 53.5q-23 24 -41 56.5t-28 88t-10 147.5t10 147.5t28 88.5t41 56q37 37 85.5 53.5t100.5 16.5t100.5 -16.5t85.5 -53.5q24 -23 41.5 -56t27.5 -88.5t10 -147.5t-10 -147.5t-27.5 -88t-41.5 -56.5q-37 -37 -85.5 -53.5t-100.5 -16.5z
M310 129q42 0 69 26t30 72q2 29 3.5 60t1.5 63t-1.5 63.5t-3.5 59.5q-3 46 -30 72t-69 26t-69 -26t-30 -72q-2 -28 -3.5 -59.5t-1.5 -63.5t1.5 -63t3.5 -60q3 -46 30 -72t69 -26zM345 768v122h134v-122h-134zM141 768v122h134v-122h-134z" />
    <glyph glyph-name="uni04E7" unicode="&#x4e7;" horiz-adv-x="549" 
d="M274 -12q-99 0 -156 50.5t-67 126.5q-6 48 -6 88q0 23 1 45t5 47q11 76 67.5 126.5t155.5 50.5t156.5 -50t67.5 -127q6 -49 6 -92q0 -40 -6 -88q-11 -76 -68 -126.5t-156 -50.5zM274 112q38 0 58 22.5t24 52.5q5 37 5 67.5t-4 67.5q-3 32 -24 54.5t-59 22.5
q-37 0 -58 -22.5t-24 -54.5q-4 -37 -3.5 -67.5t4.5 -66.5q3 -31 23.5 -53.5t57.5 -22.5zM310 578v122h134v-122h-134zM106 578v122h134v-122h-134z" />
    <glyph glyph-name="uni04E8" unicode="&#x4e8;" horiz-adv-x="620" 
d="M84 293v114h451v-114h-451zM310 -12q-52 0 -100.5 16.5t-85.5 53.5q-23 24 -41 56.5t-28 88t-10 147.5t10 147.5t28 88.5t41 56q37 37 85.5 53.5t100.5 16.5t100.5 -16.5t85.5 -53.5q24 -23 41.5 -56t27.5 -88.5t10 -147.5t-10 -147.5t-27.5 -88t-41.5 -56.5
q-37 -37 -85.5 -53.5t-100.5 -16.5zM310 129q42 0 69 26t30 72q2 29 3.5 60t1.5 63t-1.5 63.5t-3.5 59.5q-3 46 -30 72t-69 26t-69 -26t-30 -72q-2 -28 -3.5 -59.5t-1.5 -63.5t1.5 -63t3.5 -60q3 -46 30 -72t69 -26z" />
    <glyph glyph-name="uni04E9" unicode="&#x4e9;" horiz-adv-x="549" 
d="M105 198v114h340v-114h-340zM274 -12q-99 0 -156 50.5t-67 126.5q-6 48 -6 88q0 23 1 45t5 47q11 76 67.5 126.5t155.5 50.5t156.5 -50t67.5 -127q6 -49 6 -92q0 -40 -6 -88q-11 -76 -68 -126.5t-156 -50.5zM274 112q38 0 58 22.5t24 52.5q5 37 5 67.5t-4 67.5
q-3 32 -24 54.5t-59 22.5q-37 0 -58 -22.5t-24 -54.5q-4 -37 -3.5 -67.5t4.5 -66.5q3 -31 23.5 -53.5t57.5 -22.5z" />
    <glyph glyph-name="uni04EA" unicode="&#x4ea;" horiz-adv-x="620" 
d="M84 293v114h451v-114h-451zM310 -12q-52 0 -100.5 16.5t-85.5 53.5q-23 24 -41 56.5t-28 88t-10 147.5t10 147.5t28 88.5t41 56q37 37 85.5 53.5t100.5 16.5t100.5 -16.5t85.5 -53.5q24 -23 41.5 -56t27.5 -88.5t10 -147.5t-10 -147.5t-27.5 -88t-41.5 -56.5
q-37 -37 -85.5 -53.5t-100.5 -16.5zM310 129q42 0 69 26t30 72q2 29 3.5 60t1.5 63t-1.5 63.5t-3.5 59.5q-3 46 -30 72t-69 26t-69 -26t-30 -72q-2 -28 -3.5 -59.5t-1.5 -63.5t1.5 -63t3.5 -60q3 -46 30 -72t69 -26zM345 768v122h134v-122h-134zM141 768v122h134v-122h-134z
" />
    <glyph glyph-name="uni04EB" unicode="&#x4eb;" horiz-adv-x="549" 
d="M105 198v114h340v-114h-340zM274 -12q-99 0 -156 50.5t-67 126.5q-6 48 -6 88q0 23 1 45t5 47q11 76 67.5 126.5t155.5 50.5t156.5 -50t67.5 -127q6 -49 6 -92q0 -40 -6 -88q-11 -76 -68 -126.5t-156 -50.5zM274 112q38 0 58 22.5t24 52.5q5 37 5 67.5t-4 67.5
q-3 32 -24 54.5t-59 22.5q-37 0 -58 -22.5t-24 -54.5q-4 -37 -3.5 -67.5t4.5 -66.5q3 -31 23.5 -53.5t57.5 -22.5zM310 578v122h134v-122h-134zM106 578v122h134v-122h-134z" />
    <glyph glyph-name="uni04EC" unicode="&#x4ec;" horiz-adv-x="524" 
d="M207 -12q-55 0 -95.5 13.5t-81.5 38.5l47 125q29 -15 58 -25.5t72 -10.5q47 -1 75 22t32 65q2 39 3.5 70t1.5 64t-1.5 64.5t-3.5 69.5q-3 41 -31.5 64.5t-75.5 23.5q-40 0 -66.5 -7.5t-59.5 -27.5l-41 131q42 22 84 33t100 11q69 0 123.5 -28t88 -77.5t38.5 -114.5
q2 -31 3.5 -69.5t1.5 -72.5t-1.5 -72t-3.5 -70q-5 -65 -40.5 -114.5t-94 -77.5t-132.5 -28zM118 285v130h288v-130h-288zM277 768v122h134v-122h-134zM73 768v122h134v-122h-134z" />
    <glyph glyph-name="uni04ED" unicode="&#x4ed;" horiz-adv-x="487" 
d="M201 -12q-46 0 -89.5 11.5t-81.5 37.5l37 104q65 -33 125 -33q50 0 78 23t30 54q2 39 2.5 70.5t-2.5 70.5q-3 32 -30.5 54t-74.5 22q-40 0 -69 -9t-56 -26l-39 107q30 23 74.5 35t98.5 12q104 0 162.5 -49.5t69.5 -126.5q4 -25 5 -46.5t1 -42.5q0 -42 -6 -90
q-10 -76 -69.5 -127t-165.5 -51zM325 200h-192v110h192v-110zM250 578v122h134v-122h-134zM46 578v122h134v-122h-134z" />
    <glyph glyph-name="uni04EE" unicode="&#x4ee;" horiz-adv-x="530" 
d="M151 -12q-26 0 -56 9.5t-52 22.5l46 126q14 -9 28 -14.5t32 -5.5q21 0 33.5 11t19.5 28l-212 535h164l106 -301l10 -101q1 -5 9 -5t9 5l10 101l80 301h162l-176 -529q-31 -95 -79 -139t-134 -44zM112 766v114h301v-114h-301z" />
    <glyph glyph-name="uni04EF" unicode="&#x4ef;" horiz-adv-x="483" 
d="M68 -214l-36 127q53 5 86.5 29t43.5 60l15 54l-167 454h153l62 -217l10 -93q1 -9 8.5 -9t8.5 9l11 93l50 217h150l-165 -553q-21 -74 -82.5 -121t-147.5 -50zM91 576v114h301v-114h-301z" />
    <glyph glyph-name="uni04F0" unicode="&#x4f0;" horiz-adv-x="530" 
d="M151 -12q-26 0 -56 9.5t-52 22.5l46 126q14 -9 28 -14.5t32 -5.5q21 0 33.5 11t19.5 28l-212 535h164l106 -301l10 -101q1 -5 9 -5t9 5l10 101l80 301h162l-176 -529q-31 -95 -79 -139t-134 -44zM298 768v122h134v-122h-134zM94 768v122h134v-122h-134z" />
    <glyph glyph-name="uni04F1" unicode="&#x4f1;" horiz-adv-x="483" 
d="M68 -214l-36 127q53 5 86.5 29t43.5 60l15 54l-167 454h153l62 -217l10 -93q1 -9 8.5 -9t8.5 9l11 93l50 217h150l-165 -553q-21 -74 -82.5 -121t-147.5 -50zM277 578v122h134v-122h-134zM73 578v122h134v-122h-134z" />
    <glyph glyph-name="uni04F2" unicode="&#x4f2;" horiz-adv-x="530" 
d="M151 -12q-26 0 -56 9.5t-52 22.5l46 126q14 -9 28 -14.5t32 -5.5q21 0 33.5 11t19.5 28l-212 535h164l106 -301l10 -101q1 -5 9 -5t9 5l10 101l80 301h162l-176 -529q-31 -95 -79 -139t-134 -44zM67 768l140 172h150l-140 -172h-150zM288 768l140 172h150l-140 -172h-150
z" />
    <glyph glyph-name="uni04F3" unicode="&#x4f3;" horiz-adv-x="483" 
d="M68 -214l-36 127q53 5 86.5 29t43.5 60l15 54l-167 454h153l62 -217l10 -93q1 -9 8.5 -9t8.5 9l11 93l50 217h150l-165 -553q-21 -74 -82.5 -121t-147.5 -50zM46 578l140 172h150l-140 -172h-150zM267 578l140 172h150l-140 -172h-150z" />
    <glyph glyph-name="uni04F4" unicode="&#x4f4;" 
d="M380 0v269q0 8 -4.5 11.5t-15.5 -1.5l-58 -26q-13 -2 -25.5 -3t-26.5 -1q-56 0 -101.5 22t-72 69.5t-26.5 123.5v236h160v-226q0 -46 23.5 -68t63.5 -22q26 0 48 5.5t35 10.5v300h160v-700h-160zM315 768v122h134v-122h-134zM111 768v122h134v-122h-134z" />
    <glyph glyph-name="uni04F5" unicode="&#x4f5;" horiz-adv-x="547" 
d="M330 0v185q0 8 -5.5 11t-15.5 -3l-54 -32q-15 -4 -34 -4q-46 0 -85 16.5t-62.5 56.5t-23.5 108v172h150v-139q0 -41 15 -60t54 -19q28 0 42 10t21 22v186h150v-510h-152zM311 578v122h134v-122h-134zM107 578v122h134v-122h-134z" />
    <glyph glyph-name="uni04F6" unicode="&#x4f6;" horiz-adv-x="474" 
d="M150 -140v246l-14 34h164v-280h-150zM70 0v700h384v-140h-224v-560h-160z" />
    <glyph glyph-name="uni04F7" unicode="&#x4f7;" horiz-adv-x="432" 
d="M145 -130v216l-14 34h154v-250h-140zM65 0v510h337v-120h-187v-390h-150z" />
    <glyph glyph-name="uni04F8" unicode="&#x4f8;" horiz-adv-x="861" 
d="M70 0v700h160v-260h106q109 0 172 -59t63 -157q0 -104 -63 -164t-172 -60h-266zM230 130h106q35 0 55 24t20 67q0 39 -20 64t-55 25h-106v-180zM631 0v700h160v-700h-160zM476 768v122h134v-122h-134zM272 768v122h134v-122h-134z" />
    <glyph glyph-name="uni04F9" unicode="&#x4f9;" horiz-adv-x="761" 
d="M546 0v510h150v-510h-150zM65 0v510h150v-155h64q101 0 157 -45.5t56 -128.5q0 -87 -56 -134t-157 -47h-214zM215 115h64q30 0 46.5 17t16.5 49q0 26 -16.5 42.5t-46.5 16.5h-64v-125zM416 578v122h134v-122h-134zM212 578v122h134v-122h-134z" />
    <glyph glyph-name="uni04FA" unicode="&#x4fa;" horiz-adv-x="518" 
d="M64 -222l-36 132q39 8 62.5 30.5t23.5 59.5h160q0 -94 -56 -148.5t-154 -73.5zM44 296v114h360v-114h-360zM114 0v700h384v-140h-224v-560h-160z" />
    <glyph glyph-name="uni04FB" unicode="&#x4fb;" horiz-adv-x="466" 
d="M33 -222l-34 131q47 11 73.5 31.5t26.5 59.5h150q0 -56 -19 -97t-51 -67.5t-70 -40.5t-76 -17zM24 197v114h340v-114h-340zM99 0v510h337v-120h-187v-390h-150z" />
    <glyph glyph-name="uni04FC" unicode="&#x4fc;" horiz-adv-x="570" 
d="M310 -222l-36 132q38 6 63 32t25 72q0 17 -4 41t-15 53l-38 106l-12 78q-3 9 -9 9t-8 -9l-11 -78l-76 -214h-169l143 355l-143 345h169l76 -204l11 -78q2 -9 8 -9t9 9l12 78l76 204h169l-145 -345l88 -215q17 -41 23.5 -76.5t6.5 -59.5q0 -64 -28.5 -110.5t-77 -75.5
t-107.5 -40z" />
    <glyph glyph-name="uni04FD" unicode="&#x4fd;" horiz-adv-x="508" 
d="M280 -221l-36 131q36 5 56 25.5t22.5 52.5t-14.5 73l-33 79l-12 48q-3 9 -9 9t-8 -9l-11 -48l-59 -140h-156l123 255l-123 255h156l59 -140l11 -48q2 -9 8 -9t9 9l12 48l59 140h154l-123 -255l69 -143q22 -46 27.5 -98.5t-10.5 -101t-57.5 -84t-113.5 -49.5z" />
    <glyph glyph-name="uni04FE" unicode="&#x4fe;" horiz-adv-x="570" 
d="M339 298v114h181v-114h-181zM50 298v114h181v-114h-181zM20 0l143 355l-143 345h169l76 -204l11 -78q2 -9 8 -9t9 9l12 78l76 204h169l-145 -345l145 -355h-169l-76 214l-12 78q-3 9 -9 9t-8 -9l-11 -78l-76 -214h-169z" />
    <glyph glyph-name="uni04FF" unicode="&#x4ff;" horiz-adv-x="508" 
d="M309 198v114h146v-114h-146zM55 198v114h146v-114h-146zM20 0l123 255l-123 255h156l59 -140l11 -48q2 -9 8 -9t9 9l12 48l59 140h154l-123 -255l123 -255h-154l-59 140l-12 48q-3 9 -9 9t-8 -9l-11 -48l-59 -140h-156z" />
    <glyph glyph-name="Wgrave" unicode="&#x1e80;" horiz-adv-x="640" 
d="M107 0l-77 700h143l33 -300v-108q0 -11 7.5 -11t9.5 7l61 222h72l61 -222q2 -7 9.5 -7.5t7.5 11.5v108l33 300h143l-77 -700h-140l-64 247q-2 8 -9 8t-9 -8l-64 -247h-140zM275 768l-140 172h150l140 -172h-150z" />
    <glyph glyph-name="wgrave" unicode="&#x1e81;" horiz-adv-x="680" 
d="M120 0l-80 510h140l30 -220v-88q0 -11 7.5 -11t9.5 7l77 312h72l77 -312q2 -7 9.5 -7.5t7.5 11.5v88l30 220h140l-80 -510h-135l-76 237q-2 8 -9 8t-9 -8l-76 -237h-135zM295 578l-140 172h150l140 -172h-150z" />
    <glyph glyph-name="Wacute" unicode="&#x1e82;" horiz-adv-x="640" 
d="M107 0l-77 700h143l33 -300v-108q0 -11 7.5 -11t9.5 7l61 222h72l61 -222q2 -7 9.5 -7.5t7.5 11.5v108l33 300h143l-77 -700h-140l-64 247q-2 8 -9 8t-9 -8l-64 -247h-140zM215 768l140 172h150l-140 -172h-150z" />
    <glyph glyph-name="wacute" unicode="&#x1e83;" horiz-adv-x="680" 
d="M120 0l-80 510h140l30 -220v-88q0 -11 7.5 -11t9.5 7l77 312h72l77 -312q2 -7 9.5 -7.5t7.5 11.5v88l30 220h140l-80 -510h-135l-76 237q-2 8 -9 8t-9 -8l-76 -237h-135zM235 578l140 172h150l-140 -172h-150z" />
    <glyph glyph-name="Wdieresis" unicode="&#x1e84;" horiz-adv-x="640" 
d="M107 0l-77 700h143l33 -300v-108q0 -11 7.5 -11t9.5 7l61 222h72l61 -222q2 -7 9.5 -7.5t7.5 11.5v108l33 300h143l-77 -700h-140l-64 247q-2 8 -9 8t-9 -8l-64 -247h-140zM355 768v122h134v-122h-134zM151 768v122h134v-122h-134z" />
    <glyph glyph-name="wdieresis" unicode="&#x1e85;" horiz-adv-x="680" 
d="M120 0l-80 510h140l30 -220v-88q0 -11 7.5 -11t9.5 7l77 312h72l77 -312q2 -7 9.5 -7.5t7.5 11.5v88l30 220h140l-80 -510h-135l-76 237q-2 8 -9 8t-9 -8l-76 -237h-135zM375 578v122h134v-122h-134zM171 578v122h134v-122h-134z" />
    <glyph glyph-name="Ygrave" unicode="&#x1ef2;" horiz-adv-x="508" 
d="M174 0v255l-174 445h161l74 -200l11 -78q2 -9 8 -9t9 9l12 78l74 200h159l-174 -445v-255h-160zM209 768l-140 172h150l140 -172h-150z" />
    <glyph glyph-name="ygrave" unicode="&#x1ef3;" horiz-adv-x="483" 
d="M68 -214l-36 127q53 5 86.5 29t43.5 60l15 54l-167 454h153l62 -217l10 -93q1 -9 8.5 -9t8.5 9l11 93l50 217h150l-165 -553q-21 -74 -82.5 -121t-147.5 -50zM197 578l-140 172h150l140 -172h-150z" />
    <glyph glyph-name="uni2002" unicode="&#x2002;" horiz-adv-x="600" 
 />
    <glyph glyph-name="uni2003" unicode="&#x2003;" horiz-adv-x="772" 
 />
    <glyph glyph-name="endash" unicode="&#x2013;" horiz-adv-x="600" 
d="M50 199v136h500v-136h-500z" />
    <glyph glyph-name="emdash" unicode="&#x2014;" horiz-adv-x="772" 
d="M50 199v136h672v-136h-672z" />
    <glyph glyph-name="quoteleft" unicode="&#x2018;" horiz-adv-x="262" 
d="M232 755l-14 -76q-59 -5 -90 -40t-31 -94h88v-145h-175v114q0 84 32 136t82.5 77t107.5 28z" />
    <glyph glyph-name="quoteright" unicode="&#x2019;" horiz-adv-x="342" 
d="M60 395l14 76q59 5 90 40.5t31 93.5h-88v145h175v-114q0 -84 -31.5 -136t-82.5 -77t-108 -28z" />
    <glyph glyph-name="quotesinglbase" unicode="&#x201a;" horiz-adv-x="312" 
d="M-10 -210l14 76q73 2 112 39t39 95h-88v145h175v-114q0 -84 -36 -137t-93.5 -78t-122.5 -26z" />
    <glyph glyph-name="quotedblleft" unicode="&#x201c;" horiz-adv-x="592" 
d="M282 755l-14 -76q-59 -5 -90 -40t-31 -94h88v-145h-175v114q0 84 32 136t82.5 77t107.5 28zM532 755l-14 -76q-59 -5 -90 -40t-31 -94h88v-145h-175v114q0 84 32 136t82.5 77t107.5 28z" />
    <glyph glyph-name="quotedblright" unicode="&#x201d;" horiz-adv-x="592" 
d="M310 395l14 76q59 5 90 40.5t31 93.5h-88v145h175v-114q0 -84 -31.5 -136t-82.5 -77t-108 -28zM60 395l14 76q59 5 90 40.5t31 93.5h-88v145h175v-114q0 -84 -31.5 -136t-82.5 -77t-108 -28z" />
    <glyph glyph-name="quotedblbase" unicode="&#x201e;" horiz-adv-x="532" 
d="M240 -210l14 76q59 5 90 40.5t31 93.5h-88v145h175v-114q0 -84 -31.5 -136t-82.5 -77t-108 -28zM-10 -210l14 76q59 5 90 40.5t31 93.5h-88v145h175v-114q0 -84 -31.5 -136t-82.5 -77t-108 -28z" />
    <glyph glyph-name="dagger" unicode="&#x2020;" horiz-adv-x="546" 
d="M236 332v251h-116v71h116v130h75v-130h115v-71h-115v-251h-75z" />
    <glyph glyph-name="bullet" unicode="&#x2022;" horiz-adv-x="392" 
d="M195 198q-51 0 -78 22t-37 58t-10 78q0 40 10 74t37 55t78 21q52 0 79 -21.5t37.5 -56t10.5 -75.5t-10.5 -76.5t-37.5 -57t-79 -21.5z" />
    <glyph glyph-name="ellipsis" unicode="&#x2026;" horiz-adv-x="837" 
d="M340 0v150h157v-150h-157zM610 0v150h157v-150h-157zM70 0v150h157v-150h-157z" />
    <glyph glyph-name="guilsinglleft" unicode="&#x2039;" horiz-adv-x="405" 
d="M191 50l-141 135v100l141 135h164l-145 -142l-56 -35q-13 -8 0 -16l56 -35l145 -142h-164z" />
    <glyph glyph-name="guilsinglright" unicode="&#x203a;" horiz-adv-x="405" 
d="M50 50l145 142l56 35q13 8 0 16l-56 35l-145 142h164l141 -135v-100l-141 -135h-164z" />
    <glyph glyph-name="fraction" unicode="&#x2044;" horiz-adv-x="265" 
d="M-80 0l265 700h160l-263 -700h-162z" />
    <glyph glyph-name="uni2070" unicode="&#x2070;" horiz-adv-x="477" 
d="M239 342q-34 0 -71 11t-66 38q-15 15 -28 34.5t-21 55t-8 97.5t8 97t21 54.5t28 34.5q29 27 66 38t71 11q37 0 72.5 -11.5t63.5 -37.5q18 -16 30.5 -37t19.5 -55.5t7 -93.5t-7 -94t-19.5 -55.5t-30.5 -37.5q-28 -26 -63.5 -37.5t-72.5 -11.5zM239 459q30 0 54.5 19.5
t26.5 48.5q1 6 1.5 15t0.5 36q0 26 -0.5 35t-1.5 15q-2 29 -26.5 48.5t-54.5 19.5q-31 0 -55.5 -20t-26.5 -50q0 -4 -0.5 -10.5t-1 -15.5t-0.5 -22t0.5 -22.5t1 -15.5t0.5 -11q2 -30 26.5 -50t55.5 -20zM190 503v149h99v-149h-99z" />
    <glyph glyph-name="uni2074" unicode="&#x2074;" horiz-adv-x="436" 
d="M241 350v101h-221v59l143 295h137l-125 -249h66v119h125v-325h-125z" />
    <glyph glyph-name="uni2075" unicode="&#x2075;" horiz-adv-x="420" 
d="M196 344q-43 0 -82 9t-74 34l37 112q26 -18 55.5 -28t52.5 -10q33 0 56 11t22 34q-1 19 -21 31.5t-55 12.5q-24 0 -46.5 -9t-40.5 -29l-34 26v267h290v-106h-168v-52q0 -3 3.5 -4.5t8.5 2.5l14 10q2 2 4.5 3t5.5 1q49 0 86 -20t58.5 -54t21.5 -76q0 -79 -54 -122
t-140 -43z" />
    <glyph glyph-name="uni2076" unicode="&#x2076;" horiz-adv-x="449" 
d="M225 342q-94 0 -144.5 44t-50.5 121q0 23 4.5 45.5t18.5 50.5t43 66l103 136h147l-121 -151q-4 -6 -2 -9.5t11 -0.5l36 13q4 0 9 -0.5t21 -2.5q30 -4 57 -23.5t44.5 -51t17.5 -70.5q0 -79 -53 -123t-141 -44zM225 457q36 0 51.5 14.5t15.5 37.5q0 24 -15 36t-52 12
q-32 0 -50 -11t-18 -37q0 -23 16 -37.5t52 -14.5z" />
    <glyph glyph-name="uni2077" unicode="&#x2077;" horiz-adv-x="459" 
d="M79 350l86 169h-99v113h152l34 57h-205v116h359v-77l-19 -40l-36 -49q-2 -3 0 -5t6 -2h53l-2 -113h-105l-86 -169h-138z" />
    <glyph glyph-name="uni2078" unicode="&#x2078;" horiz-adv-x="454" 
d="M231 342q-87 0 -140 37.5t-53 100.5q0 26 16 54.5t47 43.5l23 2q8 1 9 2.5t-7 4.5q-49 20 -65 43t-16 51q0 62 47.5 97t129.5 35q84 0 135 -37.5t51 -101.5q0 -24 -14 -45t-35 -29l-24 -3q-3 -1 -3.5 -2.5t3.5 -3.5q48 -26 64.5 -54t16.5 -56q0 -65 -48.5 -102
t-136.5 -37zM233 452q24 0 38 7.5t14 22.5q0 16 -17.5 27t-55.5 30q-20 -10 -31 -21.5t-11 -27.5t17.5 -27t45.5 -11zM244 636q17 11 24.5 20t7.5 18q0 14 -16.5 24t-39.5 10q-22 0 -32.5 -7t-10.5 -16q0 -13 18 -22.5t49 -26.5z" />
    <glyph glyph-name="uni2079" unicode="&#x2079;" horiz-adv-x="449" 
d="M103 350l121 151q5 6 2.5 9.5t-11.5 0.5l-36 -13q-4 0 -8.5 0.5t-21.5 2.5q-29 4 -56.5 23.5t-45 51t-17.5 70.5q0 79 53 123t141 44q94 0 144.5 -44t50.5 -121q0 -22 -4.5 -45t-18.5 -50.5t-43 -66.5l-103 -136h-147zM224 598q32 0 50 11.5t18 36.5q0 23 -16 37.5
t-52 14.5t-51.5 -14.5t-15.5 -37.5q0 -24 15 -36t52 -12z" />
    <glyph glyph-name="Euro" unicode="&#x20ac;" horiz-adv-x="624" 
d="M440 -12q-67 0 -122 24t-92 66.5t-50 100.5q-4 11 -14 11h-122v124h125v36v36h-125v124h134q11 61 46 106t89 70.5t121 25.5q51 0 88.5 -14t74.5 -42l-43 -119q-27 20 -49 27.5t-54 7.5q-40 0 -68 -16.5t-40 -45.5h161v-124h-174v-36v-36h174v-124h-162q25 -63 102 -61
q36 0 59.5 10.5t47.5 25.5l47 -125q-36 -25 -71 -38.5t-83 -13.5z" />
    <glyph glyph-name="uni20B4" unicode="&#x20b4;" horiz-adv-x="520" 
d="M274 -10q-79 0 -135 25.5t-85 76.5t-29 125q0 8 0.5 16t1.5 16h156q-8 -19 -8 -39q0 -40 28.5 -61t74.5 -21q50 0 87.5 12t83.5 40l46 -126q-50 -32 -101.5 -48t-119.5 -16zM0 197v124h520v-124h-520zM0 386v124h520v-124h-520zM317 458q19 16 19 47q0 27 -23.5 48
t-82.5 21q-39 0 -75 -9t-71 -28l-44 118q31 23 80 40t115 17q84 0 139.5 -27t83.5 -75.5t28 -114.5q0 -10 -0.5 -19t-2.5 -18h-166z" />
    <glyph glyph-name="uni20B8" unicode="&#x20b8;" horiz-adv-x="510" 
d="M175 0v364h-155v140h470v-140h-155v-364h-160zM20 576v124h470v-124h-470z" />
    <glyph glyph-name="uni20BD" unicode="&#x20bd;" horiz-adv-x="630" 
d="M30 104v124h470v-124h-470zM30 280v124h330v-124h-330zM120 0v700h265q100 0 157.5 -57t57.5 -157q0 -94 -57.5 -150t-157.5 -56h-106v-280h-159zM279 410h106q33 0 51.5 22.5t18.5 56.5q0 39 -18.5 60t-51.5 21h-106v-160z" />
    <glyph glyph-name="uni2116" unicode="&#x2116;" horiz-adv-x="1189" 
d="M884 280q-99 0 -156 41t-67 102q-3 19 -4.5 36.5t-1.5 33.5q0 20 1 38t5 38q11 60 67.5 101.5t155.5 41.5t157 -40.5t67 -102.5q3 -20 4.5 -38t1.5 -38q0 -16 -1 -33.5t-5 -36.5q-12 -61 -68.5 -102t-155.5 -41zM669 80v136h430v-136h-430zM884 402q38 0 58.5 13.5
t23.5 32.5q5 26 5 47.5t-4 47.5q-3 20 -24 34.5t-59 14.5q-37 0 -58 -14.5t-24 -34.5q-4 -25 -3.5 -46t4.5 -47q3 -20 23.5 -34t57.5 -14zM70 0v700h130l219 -384q5 -7 11.5 -4t4.5 10l-15 88v290h150v-700h-130l-218 384q-4 8 -10.5 5t-5.5 -11l14 -88v-290h-150z" />
    <glyph glyph-name="trademark" unicode="&#x2122;" horiz-adv-x="1017" 
d="M502 350v445h124l100 -160q3 -5 8.5 -5t8.5 5l100 160h124v-445h-132v137l13 77q1 7 -4.5 9.5t-10.5 -3.5l-77 -97h-49l-71 97q-4 6 -10 3.5t-5 -9.5l13 -78v-136h-132zM182 350v321h-132v124h405v-124h-132v-321h-141z" />
    <glyph glyph-name="uni2153" unicode="&#x2153;" horiz-adv-x="1113" 
d="M74 245v111h93v219h-112v85l254 48l-2 -352h82v-111h-315zM354 0l265 700h160l-263 -700h-162zM886 -7q-46 0 -86.5 9.5t-80.5 37.5l40 110q33 -25 62 -32t61 -7q29 0 46 7.5t17 23.5q0 11 -15 22t-56 11h-49v103h49q38 0 51 9t13 22q0 16 -18.5 26.5t-58.5 10.5
q-19 0 -44.5 -4t-53.5 -17l-36 101q38 23 75 29t77 6q44 0 87 -14t71.5 -44t28.5 -79q0 -37 -14 -57.5t-42 -39.5q29 -16 46 -36t17 -58q0 -46 -28 -77t-71 -47t-88 -16z" />
    <glyph glyph-name="uni2154" unicode="&#x2154;" horiz-adv-x="1100" 
d="M45 245v101q0 55 26.5 94t87.5 67l52 24q26 12 32 20.5t6 16.5q0 11 -11 17.5t-41 6.5q-21 0 -48 -4.5t-63 -16.5l-37 102q41 19 79.5 25.5t82.5 6.5q40 0 80.5 -13t67.5 -43t27 -80q0 -37 -16 -66.5t-67 -55.5l-71 -37q-20 -10 -32.5 -17.5t-17.5 -13.5t-5 -12v-1h200
v-121h-332zM341 0l265 700h160l-263 -700h-162zM873 -7q-46 0 -86.5 9.5t-80.5 37.5l40 110q33 -25 62 -32t61 -7q29 0 46 7.5t17 23.5q0 11 -15 22t-56 11h-49v103h49q38 0 51 9t13 22q0 16 -18.5 26.5t-58.5 10.5q-19 0 -44.5 -4t-53.5 -17l-36 101q38 23 75 29t77 6
q44 0 87 -14t71.5 -44t28.5 -79q0 -37 -14 -57.5t-42 -39.5q29 -16 46 -36t17 -58q0 -46 -28 -77t-71 -47t-88 -16z" />
    <glyph glyph-name="minus" unicode="&#x2212;" horiz-adv-x="560" 
d="M50 282v136h460v-136h-460z" />
    <glyph glyph-name="approxequal" unicode="&#x2248;" horiz-adv-x="600" 
d="M396 164q-40 0 -65.5 8.5t-46 19.5t-41.5 19.5t-52 8.5q-33 0 -58.5 -11t-48.5 -30l-61 101q38 34 83 47.5t88 13.5q40 0 66 -8.5t46 -19.5t42 -19.5t53 -8.5q34 0 60 11t48 30l61 -101q-35 -31 -80.5 -46t-93.5 -15zM396 364q-40 0 -65.5 8.5t-46 19.5t-41.5 19.5
t-52 8.5q-33 0 -58.5 -11t-48.5 -30l-61 101q38 34 83 47.5t88 13.5q40 0 66 -8.5t46 -19.5t42 -19.5t53 -8.5q34 0 60 11t48 30l61 -101q-35 -31 -80.5 -46t-93.5 -15z" />
    <glyph glyph-name="notequal" unicode="&#x2260;" horiz-adv-x="600" 
d="M50 386v124h460v-124h-460zM50 190v124h460v-124h-460zM61 0l265 700h160l-263 -700h-162z" />
    <glyph glyph-name="lessequal" unicode="&#x2264;" horiz-adv-x="600" 
d="M510 238l-440 114v173l440 117v-122l-325 -72q-8 -1 -8 -8t8 -9l325 -68v-125zM50 80v124h460v-124h-460z" />
    <glyph glyph-name="greaterequal" unicode="&#x2265;" horiz-adv-x="560" 
d="M50 238v125l325 68q8 2 8 9t-8 8l-325 72v122l440 -117v-173zM50 80v124h460v-124h-460z" />
    <glyph glyph-name="A.ss01" 
d="M30 0l170 700h220l170 -700h-159l-34 162h-174l-34 -162h-159zM252 292h115l-41 195l-7 76q-1 8 -9 8t-9 -8l-7 -76z" />
    <glyph glyph-name="Aacute.ss01" 
d="M30 0l170 700h220l170 -700h-159l-34 162h-174l-34 -162h-159zM252 292h115l-41 195l-7 76q-1 8 -9 8t-9 -8l-7 -76zM200 768l140 172h150l-140 -172h-150z" />
    <glyph glyph-name="Abreve.ss01" 
d="M30 0l170 700h220l170 -700h-159l-34 162h-174l-34 -162h-159zM252 292h115l-41 195l-7 76q-1 8 -9 8t-9 -8l-7 -76zM305 782q-80 0 -120.5 34.5t-60.5 92.5l101 25q10 -28 30.5 -42.5t49.5 -14.5t49.5 14.5t30.5 42.5l101 -25q-20 -58 -60.5 -92.5t-120.5 -34.5z" />
    <glyph glyph-name="uni01CD.ss01" 
d="M30 0l170 700h220l170 -700h-159l-34 162h-174l-34 -162h-159zM252 292h115l-41 195l-7 76q-1 8 -9 8t-9 -8l-7 -76zM230 768l-90 172h120l28 -56l10 -34q3 -7 6 -7t6 7l10 34l30 56h120l-90 -172h-150z" />
    <glyph glyph-name="Acircumflex.ss01" 
d="M30 0l170 700h220l170 -700h-159l-34 162h-174l-34 -162h-159zM252 292h115l-41 195l-7 76q-1 8 -9 8t-9 -8l-7 -76zM140 768l90 172h150l90 -172h-120l-30 56l-10 34q-3 7 -6 7t-6 -7l-10 -34l-28 -56h-120z" />
    <glyph glyph-name="Adieresis.ss01" 
d="M30 0l170 700h220l170 -700h-159l-34 162h-174l-34 -162h-159zM252 292h115l-41 195l-7 76q-1 8 -9 8t-9 -8l-7 -76zM340 768v122h134v-122h-134zM136 768v122h134v-122h-134z" />
    <glyph glyph-name="Agrave.ss01" 
d="M30 0l170 700h220l170 -700h-159l-34 162h-174l-34 -162h-159zM252 292h115l-41 195l-7 76q-1 8 -9 8t-9 -8l-7 -76zM260 768l-140 172h150l140 -172h-150z" />
    <glyph glyph-name="Amacron.ss01" 
d="M30 0l170 700h220l170 -700h-159l-34 162h-174l-34 -162h-159zM252 292h115l-41 195l-7 76q-1 8 -9 8t-9 -8l-7 -76zM154 766v114h301v-114h-301z" />
    <glyph glyph-name="Aogonek.ss01" 
d="M30 0l170 700h220l170 -700h-159l-34 162h-174l-34 -162h-159zM252 292h115l-41 195l-7 76q-1 8 -9 8t-9 -8l-7 -76zM623 -265q-67 1 -118.5 17t-80.5 51.5t-29 92.5q0 47 24.5 80t68.5 51l102 -27q-39 -21 -55 -40t-16 -51q0 -37 32 -52t87 -16z" />
    <glyph glyph-name="Aring.ss01" 
d="M30 0l170 700h220l170 -700h-159l-34 162h-174l-34 -162h-159zM252 292h115l-41 195l-7 76q-1 8 -9 8t-9 -8l-7 -76zM306 751q-41 0 -77 10.5t-58.5 35.5t-22.5 68q0 44 23 68.5t59.5 34.5t75.5 10t74.5 -10t58.5 -34.5t23 -68.5t-23 -69t-58.5 -35t-74.5 -10zM304 824
q24 0 40.5 7.5t16.5 33.5t-16.5 33t-40.5 7q-25 0 -40 -7.5t-15 -32.5q0 -26 16.5 -33.5t38.5 -7.5z" />
    <glyph glyph-name="Atilde.ss01" 
d="M30 0l170 700h220l170 -700h-159l-34 162h-174l-34 -162h-159zM252 292h115l-41 195l-7 76q-1 8 -9 8t-9 -8l-7 -76zM165 754l-40 92q21 23 47 33.5t59 10.5q38 0 60 -8.5t40 -17t42 -8.5q23 0 40.5 9.5t31.5 25.5l40 -92q-21 -22 -47 -33t-59 -11q-37 0 -59.5 8.5
t-40.5 17t-42 8.5q-22 0 -40 -9.5t-32 -25.5z" />
    <glyph glyph-name="AE.ss01" horiz-adv-x="870" 
d="M30 0l170 700h620v-135h-285v-150h268v-130h-268v-145h285v-140h-430v162h-167l-34 -162h-159zM251 292h139v273h-81z" />
    <glyph glyph-name="G.ss01" horiz-adv-x="581" 
d="M314 -10q-119 -1 -186.5 56.5t-76.5 167.5q-2 29 -4 67t-2 69q0 32 1.5 69.5t4.5 66.5q13 111 85.5 168.5t186.5 57.5q53 0 102 -15.5t87 -45.5l-49 -125q-29 28 -65.5 37t-74.5 9q-62 0 -89.5 -29t-32.5 -82q-2 -27 -3.5 -54t-1.5 -57t1.5 -57.5t3.5 -62.5q4 -49 30 -74
t73 -26q21 0 42 2t40 6v142h-88v140h228v-376q-32 -22 -84 -37t-128 -17z" />
    <glyph glyph-name="Gbreve.ss01" horiz-adv-x="581" 
d="M314 -10q-119 -1 -186.5 56.5t-76.5 167.5q-2 29 -4 67t-2 69q0 32 1.5 69.5t4.5 66.5q13 111 85.5 168.5t186.5 57.5q53 0 102 -15.5t87 -45.5l-49 -125q-29 28 -65.5 37t-74.5 9q-62 0 -89.5 -29t-32.5 -82q-2 -27 -3.5 -54t-1.5 -57t1.5 -57.5t3.5 -62.5q4 -49 30 -74
t73 -26q21 0 42 2t40 6v142h-88v140h228v-376q-32 -22 -84 -37t-128 -17zM286 782q-80 0 -120.5 34.5t-60.5 92.5l101 25q10 -28 30.5 -42.5t49.5 -14.5t49.5 14.5t30.5 42.5l101 -25q-20 -58 -60.5 -92.5t-120.5 -34.5z" />
    <glyph glyph-name="Gcaron.ss01" horiz-adv-x="581" 
d="M314 -10q-119 -1 -186.5 56.5t-76.5 167.5q-2 29 -4 67t-2 69q0 32 1.5 69.5t4.5 66.5q13 111 85.5 168.5t186.5 57.5q53 0 102 -15.5t87 -45.5l-49 -125q-29 28 -65.5 37t-74.5 9q-62 0 -89.5 -29t-32.5 -82q-2 -27 -3.5 -54t-1.5 -57t1.5 -57.5t3.5 -62.5q4 -49 30 -74
t73 -26q21 0 42 2t40 6v142h-88v140h228v-376q-32 -22 -84 -37t-128 -17zM211 768l-90 172h120l28 -56l10 -34q3 -7 6 -7t6 7l10 34l30 56h120l-90 -172h-150z" />
    <glyph glyph-name="uni0122.ss01" horiz-adv-x="581" 
d="M314 -10q-119 -1 -186.5 56.5t-76.5 167.5q-2 29 -4 67t-2 69q0 32 1.5 69.5t4.5 66.5q13 111 85.5 168.5t186.5 57.5q53 0 102 -15.5t87 -45.5l-49 -125q-29 28 -65.5 37t-74.5 9q-62 0 -89.5 -29t-32.5 -82q-2 -27 -3.5 -54t-1.5 -57t1.5 -57.5t3.5 -62.5q4 -49 30 -74
t73 -26q21 0 42 2t40 6v142h-88v140h228v-376q-32 -22 -84 -37t-128 -17zM243 -331l-94 61q35 29 53.5 57t25 62.5t6.5 80.5h125q0 -59 -10 -104.5t-35.5 -83t-70.5 -73.5z" />
    <glyph glyph-name="Gdotaccent.ss01" horiz-adv-x="581" 
d="M314 -10q-119 -1 -186.5 56.5t-76.5 167.5q-2 29 -4 67t-2 69q0 32 1.5 69.5t4.5 66.5q13 111 85.5 168.5t186.5 57.5q53 0 102 -15.5t87 -45.5l-49 -125q-29 28 -65.5 37t-74.5 9q-62 0 -89.5 -29t-32.5 -82q-2 -27 -3.5 -54t-1.5 -57t1.5 -57.5t3.5 -62.5q4 -49 30 -74
t73 -26q21 0 42 2t40 6v142h-88v140h228v-376q-32 -22 -84 -37t-128 -17zM211 768v122h150v-122h-150z" />
    <glyph glyph-name="I.ss01" horiz-adv-x="300" 
d="M70 0v700h160v-700h-160z" />
    <glyph glyph-name="IJ.ss01" horiz-adv-x="788" 
d="M473 -12q-48 0 -82.5 9.5t-71.5 22.5v140q35 -16 67 -23t65 -7q51 0 79 21t28 69v480h160v-480q0 -112 -66 -172t-179 -60zM70 0v700h160v-700h-160z" />
    <glyph glyph-name="Iacute.ss01" horiz-adv-x="300" 
d="M70 0v700h160v-700h-160zM45 768l140 172h150l-140 -172h-150z" />
    <glyph glyph-name="Icircumflex.ss01" horiz-adv-x="300" 
d="M70 0v700h160v-700h-160zM-15 768l90 172h150l90 -172h-120l-30 56l-10 34q-3 7 -6 7t-6 -7l-10 -34l-28 -56h-120z" />
    <glyph glyph-name="Idieresis.ss01" horiz-adv-x="300" 
d="M70 0v700h160v-700h-160zM185 768v122h134v-122h-134zM-19 768v122h134v-122h-134z" />
    <glyph glyph-name="Idotaccent.ss01" horiz-adv-x="300" 
d="M70 0v700h160v-700h-160zM75 768v122h150v-122h-150z" />
    <glyph glyph-name="Igrave.ss01" horiz-adv-x="300" 
d="M70 0v700h160v-700h-160zM105 768l-140 172h150l140 -172h-150z" />
    <glyph glyph-name="Imacron.ss01" horiz-adv-x="300" 
d="M70 0v700h160v-700h-160zM-1 766v114h301v-114h-301z" />
    <glyph glyph-name="Iogonek.ss01" horiz-adv-x="300" 
d="M70 0v700h160v-700h-160zM263 -265q-67 1 -118.5 17t-80.5 51.5t-29 92.5q0 47 24.5 80t68.5 51l102 -27q-39 -21 -55 -40t-16 -51q0 -37 32 -52t87 -16z" />
    <glyph glyph-name="J.ss01" horiz-adv-x="446" 
d="M161 -12q-28 0 -56 7.5t-50 20.5l25 134q20 -10 40.5 -15t42.5 -5q42 0 52.5 20t10.5 44v506h160v-506q0 -35 -10 -71.5t-34.5 -67t-68.5 -49t-112 -18.5z" />
    <glyph glyph-name="Z.ss01" horiz-adv-x="537" 
d="M35 0v98l284 460v12h-284v130h467v-98l-284 -460v-12h284v-130h-467z" />
    <glyph glyph-name="Zacute.ss01" horiz-adv-x="537" 
d="M35 0v98l284 460v12h-284v130h467v-98l-284 -460v-12h284v-130h-467zM159 768l140 172h150l-140 -172h-150z" />
    <glyph glyph-name="Zcaron.ss01" horiz-adv-x="537" 
d="M35 0v98l284 460v12h-284v130h467v-98l-284 -460v-12h284v-130h-467zM189 768l-90 172h120l28 -56l10 -34q3 -7 6 -7t6 7l10 34l30 56h120l-90 -172h-150z" />
    <glyph glyph-name="Zdotaccent.ss01" horiz-adv-x="537" 
d="M35 0v98l284 460v12h-284v130h467v-98l-284 -460v-12h284v-130h-467zM189 768v122h150v-122h-150z" />
    <glyph glyph-name="i.ss01" horiz-adv-x="276" 
d="M65 0v511h146v-511h-146zM65 578v122h146v-122h-146z" />
    <glyph glyph-name="dotlessi.ss01" horiz-adv-x="280" 
d="M65 0v510h150v-510h-150z" />
    <glyph glyph-name="iacute.ss01" horiz-adv-x="280" 
d="M65 0v510h150v-510h-150zM35 578l140 172h150l-140 -172h-150z" />
    <glyph glyph-name="icircumflex.ss01" horiz-adv-x="280" 
d="M-11 578l75 172h153l75 -172h-118l-22 56l-9 34q-2 7 -4.5 7t-4.5 -7l-8 -34l-20 -56h-117zM65 0v510h150v-510h-150z" />
    <glyph glyph-name="idieresis.ss01" horiz-adv-x="280" 
d="M161 578v122h120v-122h-120zM-1 578v122h120v-122h-120zM65 0v510h150v-510h-150z" />
    <glyph glyph-name="i.loclTRK" horiz-adv-x="325" 
d="M110 0v386h-90v124h240v-510h-150zM90 578v122h150v-122h-150z" />
    <glyph glyph-name="i.loclTRK.ss01" horiz-adv-x="280" 
d="M65 0v510h150v-510h-150zM65 578v122h150v-122h-150z" />
    <glyph glyph-name="igrave.ss01" horiz-adv-x="280" 
d="M65 0v510h150v-510h-150zM95 578l-140 172h150l140 -172h-150z" />
    <glyph glyph-name="ij.ss01" horiz-adv-x="552" 
d="M65 0v511h146v-511h-146zM65 578v122h146v-122h-146zM266 -262l-30 127q42 5 73 39.5t31 103.5v503h147v-497q0 -71 -19.5 -122t-51.5 -84t-71 -50t-79 -20zM340 578v122h146v-122h-146z" />
    <glyph glyph-name="imacron.ss01" horiz-adv-x="280" 
d="M65 0v510h150v-510h-150zM-11 576v114h301v-114h-301z" />
    <glyph glyph-name="iogonek.ss01" horiz-adv-x="280" 
d="M65 0v510h150v-510h-150zM65 578v122h150v-122h-150zM248 -265q-67 1 -118.5 17t-80.5 51.5t-29 92.5q0 47 24.5 80t68.5 51l102 -27q-39 -21 -55 -40t-16 -51q0 -37 32 -52t87 -16z" />
    <glyph glyph-name="j.ss01" horiz-adv-x="276" 
d="M-10 -262l-30 127q42 5 73 39.5t31 103.5v503h147v-497q0 -71 -19.5 -122t-51.5 -84t-71 -50t-79 -20zM64 578v122h146v-122h-146z" />
    <glyph glyph-name="uni0237.ss01" horiz-adv-x="276" 
d="M-10 -262l-30 127q42 5 73 39.5t31 103.5v503h147v-497q0 -71 -19.5 -122t-51.5 -84t-71 -50t-79 -20z" />
    <glyph glyph-name="zero.tf" horiz-adv-x="700" 
d="M350 -12q-52 0 -100.5 16.5t-85.5 53.5q-23 24 -41 56.5t-28 88t-10 147.5t10 147.5t28 88.5t41 56q37 37 85.5 53.5t100.5 16.5t100.5 -16.5t85.5 -53.5q24 -23 41.5 -56t27.5 -88.5t10 -147.5t-10 -147.5t-27.5 -88t-41.5 -56.5q-37 -37 -85.5 -53.5t-100.5 -16.5z
M350 124q55 0 91 35t39 90q2 18 3 45.5t1 55.5q0 29 -1 56t-3 45q-3 56 -39 90.5t-91 34.5t-91 -34.5t-39 -90.5l-2.5 -45t-1.5 -56q0 -28 1.5 -55.5t2.5 -45.5q3 -55 39 -90t91 -35zM291 250v200h120v-200h-120z" />
    <glyph glyph-name="one.tf" horiz-adv-x="700" 
d="M153 0v130h142v427h-160v91l321 64l-2 -582h132v-130h-433z" />
    </font>
</defs>
</svg>
