<?xml version="1.0" standalone="no"?>
<!DOCTYPE svg PUBLIC "-//W3C//DTD SVG 1.1//EN" "http://www.w3.org/Graphics/SVG/1.1/DTD/svg11.dtd" >
<svg xmlns="http://www.w3.org/2000/svg" xmlns:xlink="http://www.w3.org/1999/xlink" version="1.1">
<metadata>
Created by FontForge 20170731 at Thu Sep 22 17:43:48 2022
 By Aleksey,,,
Copyright 2015 The Finlandica Project Authors (https://github.com/HelsinkiTypeStudio/Finlandica)
</metadata>
<defs>
<font id="Finlandica-Regular" horiz-adv-x="566" >
  <font-face 
    font-family="Finlandica"
    font-weight="400"
    font-stretch="normal"
    units-per-em="1000"
    panose-1="0 0 0 0 0 0 0 0 0 0"
    ascent="800"
    descent="-200"
    x-height="500"
    cap-height="700"
    bbox="-80 -322 1045 1000"
    underline-thickness="50"
    underline-position="-175"
    unicode-range="U+0020-FB02"
  />
<missing-glyph horiz-adv-x="600" 
 />
    <glyph glyph-name="fi" unicode="fi" horiz-adv-x="597" 
d="M132 0v430h-102v70h102v85q0 43 20.5 81.5t64.5 62.5t113 24q44 0 79.5 -14.5t60.5 -38.5l-34 -63q-20 24 -45.5 35.5t-56.5 11.5q-58 0 -91.5 -26t-33.5 -73v-85h121v-70h-121v-430h-77zM432 0v430h-120v70h200v-500h-80zM432 600v100h80v-100h-80z" />
    <glyph glyph-name="fl" unicode="fl" horiz-adv-x="615" 
d="M132 0v430h-102v70h102v85q0 44 19 83t58.5 63t100.5 24q41 0 79 -16t61 -51l-24 -63q-20 33 -50.5 46t-61.5 13q-46 0 -75.5 -26t-29.5 -73v-85h131v-70h-131v-430h-77zM539 0q-52 0 -83 29.5t-31 78.5v642h80v-642q0 -17 9 -27.5t25 -10.5h41v-70h-41z" />
    <glyph glyph-name="f_f" unicode="ff" horiz-adv-x="665" 
d="M432 0v430h-102v70h102v85q0 43 20.5 81.5t64.5 62.5t113 24q47 0 85.5 -14t64.5 -36l-34 -63q-22 22 -50 33t-62 11q-58 0 -91.5 -26t-33.5 -73v-85h121v-70h-121v-430h-77zM132 0v430h-102v70h102v75q0 43 20.5 81.5t64.5 62.5t113 24q47 0 85.5 -14t64.5 -36l-24 -73
q-25 27 -55 40.5t-67 13.5q-58 0 -91.5 -26t-33.5 -73v-75h121v-70h-121v-430h-77z" />
    <glyph glyph-name="f_f_i" unicode="ffi" horiz-adv-x="887" 
d="M132 0v430h-102v70h102v75q0 43 20.5 81.5t64.5 62.5t113 24q47 0 85.5 -14t64.5 -36l-24 -73q-25 27 -55 40.5t-67 13.5q-58 0 -91.5 -26t-33.5 -73v-75h121v-70h-121v-430h-77zM432 0v430h-102v70h102v85q0 43 20.5 81.5t64.5 62.5t113 24q44 0 79.5 -14.5t60.5 -38.5
l-34 -60q-20 22 -45.5 33t-56.5 11q-58 0 -91.5 -26t-33.5 -73v-85h121v-70h-121v-430h-77zM722 0v430h-120v70h200v-500h-80zM722 600v100h80v-100h-80z" />
    <glyph glyph-name="f_f_l" unicode="ffl" horiz-adv-x="895" 
d="M132 0v430h-102v70h102v75q0 43 20.5 81.5t64.5 62.5t113 24q47 0 85.5 -14t64.5 -36l-24 -73q-25 27 -55 40.5t-67 13.5q-58 0 -91.5 -26t-33.5 -73v-75h121v-70h-121v-430h-77zM432 0v430h-102v70h102v85q0 43 19 81.5t58.5 62.5t100.5 24q38 0 73 -15.5t57 -46.5
l-24 -63q-19 31 -46.5 43.5t-55.5 12.5q-46 0 -75.5 -26t-29.5 -73v-85h121v-70h-121v-430h-77zM819 0q-52 0 -83 29.5t-31 78.5v642h80v-642q0 -17 9 -27.5t25 -10.5h41v-70h-41z" />
    <glyph glyph-name=".notdef" horiz-adv-x="600" 
 />
    <glyph glyph-name=".null" horiz-adv-x="0" 
 />
    <glyph glyph-name="nonmarkingreturn" horiz-adv-x="333" 
 />
    <glyph glyph-name="space" unicode=" " horiz-adv-x="260" 
 />
    <glyph glyph-name="exclam" unicode="!" horiz-adv-x="255" 
d="M98 210l-13 490h85l-13 -490h-59zM85 0v95h85v-95h-85z" />
    <glyph glyph-name="quotedbl" unicode="&#x22;" horiz-adv-x="370" 
d="M70 421v329h70v-329h-70zM230 421v329h70v-329h-70z" />
    <glyph glyph-name="numbersign" unicode="#" horiz-adv-x="730" 
d="M110 390v70h156l118 240h83l-117 -240h111l118 240h83l-90 -180l-38 -41q-6 -7 -2.5 -13t13.5 -6h135v-70h-570zM68 0l90 180l38 41q6 7 3 13t-14 6h-135v70h570v-70h-156l-118 -240h-83l117 240h-111l-118 -240h-83z" />
    <glyph glyph-name="dollar" unicode="$" horiz-adv-x="530" 
d="M244 -150v185h70v-185h-70zM244 671v179h70v-179h-70zM255 -10q-58 0 -112 18.5t-91 49.5l30 70q33 -29 78 -45t91 -16q71 0 107 36t36 93q0 48 -26 84t-89 43l-48 5q-56 6 -96 29t-61 62.5t-21 93.5q0 57 28 101.5t79.5 70t122.5 25.5q44 0 90 -12t86 -38l-25 -70
q-36 25 -75 35t-75 10q-72 0 -110.5 -32.5t-38.5 -84.5q0 -53 29 -80t77 -32l48 -5q91 -10 138.5 -64t47.5 -136q0 -60 -26.5 -108t-75.5 -75.5t-118 -27.5z" />
    <glyph glyph-name="percent" unicode="%" horiz-adv-x="700" 
d="M104 0l270 456l126 244h99l-271 -457l-125 -243h-99zM182 360q-51 0 -79.5 26t-40.5 66.5t-12 83.5t12 82.5t40.5 65t79.5 25.5q52 0 80.5 -25.5t40.5 -65t12 -82.5q0 -46 -12 -86t-41 -65t-80 -25zM182 434q39 0 50 29.5t11 69.5q0 43 -11 72.5t-50 29.5
q-38 0 -49 -29.5t-11 -72.5q0 -44 11.5 -71.5t48.5 -27.5zM517 -10q-51 0 -79.5 26t-40.5 66.5t-12 83.5t12 82.5t40.5 65t79.5 25.5q52 0 80.5 -25.5t40.5 -65t12 -82.5q0 -46 -12 -86t-41 -65t-80 -25zM517 64q39 0 50 29.5t11 69.5q0 43 -11 72.5t-50 29.5
q-38 0 -49 -29.5t-11 -72.5q0 -44 11.5 -71.5t48.5 -27.5z" />
    <glyph glyph-name="ampersand" unicode="&#x26;" horiz-adv-x="650" 
d="M335 -12q-49 0 -96 10.5t-85 34t-61 62.5t-23 96q0 44 16.5 75.5t42 52t52.5 32.5q-36 15 -67.5 55t-31.5 104q0 57 21 95.5t54.5 61.5t72 33.5t73.5 10.5q47 0 80 -5.5t61.5 -18.5t58.5 -35l-27 -69q-33 28 -74 39.5t-96 11.5q-67 0 -105 -32.5t-38 -91.5
q0 -56 30.5 -88t85.5 -32h46v-79h-46q-61 0 -94 -32t-33 -88q0 -60 46 -92.5t137 -32.5q41 0 75.5 5.5t52.5 18.5v221h-71v78h228v-78h-74v-269q-44 -26 -93 -40t-118 -14z" />
    <glyph glyph-name="quotesingle" unicode="'" horiz-adv-x="210" 
d="M70 421v329h70v-329h-70z" />
    <glyph glyph-name="parenleft" unicode="(" horiz-adv-x="421" 
d="M301 -145q-95 26 -141.5 83.5t-57.5 150.5q-6 65 -9 131t-3 130q0 65 3 130.5t9 130.5q11 93 57.5 150.5t141.5 83.5l30 -72q-75 -19 -110 -61t-40 -110q-4 -76 -6.5 -137.5t-2.5 -114.5t2.5 -114.5t6.5 -137.5q5 -68 40 -110t110 -61z" />
    <glyph glyph-name="parenright" unicode=")" horiz-adv-x="421" 
d="M120 -145l-30 72q75 19 110.5 61t39.5 110q5 76 7 137.5t2 114.5t-2 114.5t-7 137.5q-4 68 -39.5 110t-110.5 61l30 72q95 -26 142 -83.5t57 -150.5q6 -65 9 -130.5t3 -130.5q0 -64 -3 -130t-9 -131q-10 -93 -57 -150.5t-142 -83.5z" />
    <glyph glyph-name="asterisk" unicode="*" horiz-adv-x="510" 
d="M166 368l-45 29l97 137h-168v47h168l-97 137l45 30l67 -98l11 -34q5 -9 11.5 -9t10.5 9l12 35l66 97l45 -30l-97 -137h168v-47h-168l97 -137l-45 -29l-66 96l-12 33q-4 8 -10.5 8t-11.5 -8l-12 -33z" />
    <glyph glyph-name="plus" unicode="+" horiz-adv-x="580" 
d="M255 110v205h-205v70h205v205h70v-205h205v-70h-205v-205h-70z" />
    <glyph glyph-name="comma" unicode="," horiz-adv-x="275" 
d="M0 -191l9 44q59 11 92 49.5t36 97.5h-57v100h105v-86q0 -57 -22.5 -100t-64 -70t-98.5 -35z" />
    <glyph glyph-name="hyphen" unicode="-" horiz-adv-x="330" 
d="M50 221v70h230v-70h-230z" />
    <glyph glyph-name="period" unicode="." horiz-adv-x="265" 
d="M90 0v100h85v-100h-85z" />
    <glyph glyph-name="slash" unicode="/" horiz-adv-x="485" 
d="M30 0l342 700h83l-340 -700h-85z" />
    <glyph glyph-name="zero" unicode="0" horiz-adv-x="606" 
d="M303 -12q-54 0 -96.5 16t-72.5 47q-21 22 -38 55.5t-26.5 91.5t-9.5 152t9.5 152t26.5 92t38 55q30 31 72.5 47t96.5 16t96.5 -16t72.5 -47q22 -21 38.5 -55t26 -92t9.5 -152t-9.5 -152t-26 -91.5t-38.5 -55.5q-30 -31 -72.5 -47t-96.5 -16zM303 66q74 0 112.5 40
t42.5 108q3 44 4.5 74.5t1.5 61.5q0 32 -1.5 62.5t-4.5 73.5q-4 68 -42.5 108t-112.5 40t-112.5 -40t-42.5 -108q-3 -43 -4.5 -73.5t-1.5 -62.5q0 -31 1.5 -61.5t4.5 -74.5q4 -68 42.5 -108t112.5 -40zM263 270v160h80v-160h-80z" />
    <glyph glyph-name="one" unicode="1" horiz-adv-x="463" 
d="M40 0v76h160v546h-160v38l243 52v-636h160v-76h-403z" />
    <glyph glyph-name="two" unicode="2" horiz-adv-x="510" 
d="M53 0v114q0 83 38.5 140.5t120.5 89.5l56 22q54 20 81.5 55t27.5 89q0 44 -19.5 71t-51 39.5t-68.5 12.5q-43 0 -85 -11t-76 -40l-27 70q47 35 94 46.5t96 11.5q37 0 75 -11t70.5 -35t52.5 -62t20 -92q0 -83 -42.5 -134t-108.5 -77l-58 -23q-54 -21 -78.5 -50.5t-31 -58
t-6.5 -49.5v-40h327v-78h-407z" />
    <glyph glyph-name="three" unicode="3" horiz-adv-x="513" 
d="M242 -9q-60 0 -109 18t-93 58l29 69q32 -33 77 -50.5t85 -17.5q78 0 114 32.5t36 90.5q0 56 -33 88t-94 32h-96v78h96q56 0 86 32t30 89q0 58 -35 90.5t-98 32.5q-38 0 -81.5 -11.5t-74.5 -38.5l-27 69q44 32 89 45t97 13q34 0 70.5 -10.5t68.5 -33.5t52 -61.5t20 -94.5
q0 -43 -16.5 -76t-41.5 -54t-53 -29q30 -8 58 -29.5t46.5 -54.5t18.5 -76q0 -56 -18.5 -94.5t-50 -61.5t-71 -33.5t-81.5 -10.5z" />
    <glyph glyph-name="four" unicode="4" horiz-adv-x="539" 
d="M387 0v199h-347v42l210 459h90l-198 -427h245v227h82v-500h-82z" />
    <glyph glyph-name="five" unicode="5" horiz-adv-x="519" 
d="M231 -9q-59 0 -104 16.5t-77 42.5l29 69q28 -29 72.5 -41.5t81.5 -12.5q73 0 117 40.5t44 110.5q0 68 -42.5 105t-109.5 37q-30 0 -57 -8.5t-57 -29.5l-52 40v340h367v-70h-289v-210q0 -9 6 -12t14 1l32 16q12 4 25 5t23 1q63 0 112.5 -26.5t78.5 -76t29 -117.5
q0 -66 -29.5 -115.5t-84 -77t-129.5 -27.5z" />
    <glyph glyph-name="six" unicode="6" horiz-adv-x="557" 
d="M279 -12q-68 0 -119.5 28.5t-80.5 79t-29 116.5q0 37 9 70.5t29.5 73.5t54.5 96l151 248h100l-190 -281q-7 -10 -2.5 -16t14.5 0l43 25q11 2 20 3t19 1q49 0 97 -22.5t80 -71t32 -126.5q0 -66 -29 -116.5t-80 -79t-119 -28.5zM279 65q66 0 107 41t41 106q0 66 -41 107
t-107 41t-107.5 -41t-41.5 -107q0 -65 41.5 -106t107.5 -41z" />
    <glyph glyph-name="seven" unicode="7" horiz-adv-x="540" 
d="M89 0l153 315h-171v74h207l115 233h-339v78h431v-48l-103 -209l-29 -34q-7 -8 -4 -14t13 -6h132v-74h-174l-153 -315h-78z" />
    <glyph glyph-name="eight" unicode="8" horiz-adv-x="560" 
d="M282 -12q-73 0 -126 26t-82 71.5t-29 105.5q0 49 24 88t64 61l34 5q11 1 12 8t-9 11q-46 23 -72.5 65.5t-26.5 91.5q0 55 25.5 98t73 68t112.5 25q66 0 113.5 -25t73 -68.5t25.5 -99.5q0 -40 -19 -75.5t-51 -58.5l-30 -6q-10 -1 -10 -8.5t10 -11.5q54 -19 87.5 -64.5
t33.5 -102.5q0 -60 -28.5 -106t-80.5 -72t-124 -26zM282 58q72 0 113 35t41 99q0 55 -53 92t-142 44q-57 -10 -87.5 -47t-30.5 -90q2 -64 44 -98.5t115 -34.5zM312 392q50 7 77.5 41t26.5 86q-1 59 -36 91t-97 32q-61 0 -97 -31.5t-37 -89.5q2 -54 45.5 -88.5t117.5 -40.5z
" />
    <glyph glyph-name="nine" unicode="9" horiz-adv-x="557" 
d="M163 0l190 281q7 10 3 16t-15 0l-43 -25q-10 -2 -19.5 -3t-19.5 -1q-49 0 -97 22.5t-80 71.5t-32 126q0 67 29 117t80.5 78.5t118.5 28.5q68 0 119.5 -28.5t80.5 -78.5t29 -117q0 -37 -9 -70.5t-29.5 -73.5t-54.5 -96l-151 -248h-100zM278 340q66 0 107.5 41t41.5 107
q0 65 -41.5 106t-107.5 41t-107 -41t-41 -106q0 -66 41 -107t107 -41z" />
    <glyph glyph-name="colon" unicode=":" horiz-adv-x="265" 
d="M100 0v100h85v-100h-85zM100 400v100h85v-100h-85z" />
    <glyph glyph-name="semicolon" unicode=";" horiz-adv-x="275" 
d="M0 -191l9 44q59 11 92 49.5t36 97.5h-57v100h105v-86q0 -57 -22.5 -100t-64 -70t-98.5 -35zM90 400v100h85v-100h-85z" />
    <glyph glyph-name="less" unicode="&#x3c;" horiz-adv-x="540" 
d="M490 128l-440 189v83l440 192v-80l-353 -144q-7 -3 -7.5 -8.5t7.5 -8.5l353 -140v-83z" />
    <glyph glyph-name="equal" unicode="=" horiz-adv-x="540" 
d="M50 430v70h440v-70h-440zM50 200v70h440v-70h-440z" />
    <glyph glyph-name="greater" unicode="&#x3e;" horiz-adv-x="540" 
d="M50 128v83l353 140q8 3 8 8.5t-8 8.5l-353 144v80l440 -192v-83z" />
    <glyph glyph-name="question" unicode="?" horiz-adv-x="494" 
d="M148 210q-4 14 -7 29t-3 30q0 47 22 70.5t75 46.5l45 20q29 13 51 36.5t22 75.5q0 42 -19.5 67.5t-51 37t-69.5 11.5q-36 0 -60.5 -5t-44.5 -15t-43 -24l-25 70q39 25 81.5 37.5t93.5 12.5q60 0 110 -23t79.5 -67t29.5 -109q0 -56 -20 -90t-51 -54.5t-64 -35.5l-37 -17
q-25 -12 -39.5 -26t-14.5 -46v-32h-60zM136 0v90h85v-90h-85z" />
    <glyph glyph-name="at" unicode="@" horiz-adv-x="680" 
d="M358 -116q-63 0 -117.5 19t-95 61.5t-63 114.5t-22.5 178q0 110 33 191t96.5 125.5t154.5 44.5q87 0 141.5 -32.5t80.5 -89t26 -129.5v-163l38 -63l-68 -40l-33 49q-6 9 -14 2q-24 -21 -50.5 -35.5t-70.5 -14.5q-71 0 -113 39t-42 102q0 45 19.5 76t55.5 47.5t84 16.5
h117q-3 46 -20.5 81t-54 55.5t-96.5 20.5q-64 0 -109.5 -28.5t-69.5 -91.5t-24 -168q0 -107 27 -171t76 -91.5t114 -27.5q49 0 89.5 13.5t79.5 39.5l35 -62q-46 -34 -96 -51.5t-108 -17.5zM398 171q54 0 85.5 26t31.5 69v45q0 19 -18 14l-55 -12h-38q-40 0 -62.5 -17.5
t-22.5 -49.5q0 -33 21.5 -54t57.5 -21z" />
    <glyph glyph-name="A" unicode="A" 
d="M30 0l197 700h120l199 -700h-85l-158 574l-8 53q-1 6 -6.5 6t-6.5 -6l-9 -53l-158 -574h-85zM138 187l22 74h256l22 -74h-300zM113 627v73h141v-73h-141z" />
    <glyph glyph-name="B" unicode="B" horiz-adv-x="563" 
d="M90 0v700h217q91 0 141.5 -49.5t50.5 -140.5q0 -55 -25.5 -95t-69.5 -60q50 -18 79.5 -62t29.5 -103q0 -91 -54 -140.5t-152 -49.5h-217zM168 70h140q61 0 94 32t33 88q0 59 -33 92.5t-94 33.5h-140v-246zM168 386h140q54 0 83.5 33t29.5 91q0 56 -29.5 88t-83.5 32h-140
v-244z" />
    <glyph glyph-name="C" unicode="C" horiz-adv-x="503" 
d="M303 -12q-70 0 -121 25t-80.5 75.5t-35.5 125.5q-2 29 -4 67t-2 69q0 32 2 69.5t4 66.5q6 76 35.5 126t80.5 75t121 25q43 0 84 -15.5t76 -45.5l-25 -70q-30 26 -64 39.5t-71 13.5q-72 0 -111.5 -40t-44.5 -118q-2 -36 -3.5 -65t-1.5 -61q0 -31 1.5 -60.5t3.5 -65.5
q5 -78 44.5 -118t111.5 -40q37 0 71 13.5t64 39.5l25 -70q-35 -30 -76 -45.5t-84 -15.5z" />
    <glyph glyph-name="D" unicode="D" horiz-adv-x="593" 
d="M90 0v700h182q121 0 184 -62t72 -168q2 -27 3.5 -59t1.5 -61t-1.5 -61t-3.5 -59q-8 -106 -71.5 -168t-184.5 -62h-182zM170 72h102q88 0 128.5 47t46.5 120q3 34 3.5 58t0.5 53t-0.5 53t-3.5 58q-6 73 -46.5 120t-128.5 46h-102v-555z" />
    <glyph glyph-name="E" unicode="E" horiz-adv-x="553" 
d="M90 0v700h403v-78h-325v-233h308v-78h-308v-233h325v-78h-403z" />
    <glyph glyph-name="F" unicode="F" horiz-adv-x="522" 
d="M90 0v700h392v-78h-309v-233h283v-78h-283v-311h-83z" />
    <glyph glyph-name="G" unicode="G" horiz-adv-x="600" 
d="M315 -12q-111 0 -175 58.5t-74 167.5q-2 29 -4 67t-2 69q0 32 1.5 69.5t3.5 66.5q11 116 77 171t177 55q106 0 175 -61l-26 -71q-34 29 -68 41.5t-81 12.5q-78 0 -122.5 -38.5t-49.5 -119.5q-2 -36 -3.5 -65t-1.5 -61q0 -31 1.5 -60.5t3.5 -65.5q5 -73 47.5 -115.5
t120.5 -42.5q28 0 56.5 4.5t41.5 13.5v227h-81v78h238v-78h-74v-269q-37 -26 -79 -40t-102 -14z" />
    <glyph glyph-name="H" unicode="H" horiz-adv-x="620" 
d="M90 0v700h83v-311h274v311h83v-700h-83v311h-274v-311h-83z" />
    <glyph glyph-name="I" unicode="I" horiz-adv-x="423" 
d="M50 0v76h120v548h-120v76h323v-76h-120v-548h120v-76h-323z" />
    <glyph glyph-name="J" unicode="J" horiz-adv-x="447" 
d="M170 -12q-37 0 -82.5 15.5t-77.5 46.5l25 71q15 -20 38.5 -32t50 -17.5t46.5 -5.5q48 0 76.5 23t28.5 65v468h-160v78h242v-546q0 -78 -50.5 -122t-136.5 -44z" />
    <glyph glyph-name="K" unicode="K" horiz-adv-x="538" 
d="M90 0v700h82v-312h75l169 312h90l-191 -344l193 -356h-90l-171 313h-75v-313h-82z" />
    <glyph glyph-name="L" unicode="L" horiz-adv-x="452" 
d="M90 0v700h83v-622h249v-78h-332z" />
    <glyph glyph-name="M" unicode="M" horiz-adv-x="674" 
d="M90 0v700h70l166 -314q5 -9 11.5 -9t10.5 9l166 314h70v-700h-80v456l10 63q1 7 -3.5 9t-9.5 -6l-139 -257h-50l-139 257q-4 8 -9 6t-4 -9l10 -63v-456h-80z" />
    <glyph glyph-name="N" unicode="N" horiz-adv-x="623" 
d="M90 0v700h68l293 -547q4 -7 9 -4.5t4 9.5l-11 67v475h80v-700h-80l-279 517q-4 9 -9.5 7t-4.5 -10l10 -65v-449h-80z" />
    <glyph glyph-name="O" unicode="O" horiz-adv-x="606" 
d="M303 -12q-54 0 -96.5 16t-72.5 47q-21 22 -38 55.5t-26.5 91.5t-9.5 152t9.5 152t26.5 92t38 55q30 31 72.5 47t96.5 16t96.5 -16t72.5 -47q22 -21 38.5 -55t26 -92t9.5 -152t-9.5 -152t-26 -91.5t-38.5 -55.5q-30 -31 -72.5 -47t-96.5 -16zM303 66q74 0 112.5 40
t42.5 108q3 44 4.5 74.5t1.5 61.5q0 32 -1.5 62.5t-4.5 73.5q-4 68 -42.5 108t-112.5 40t-112.5 -40t-42.5 -108q-3 -43 -4.5 -73.5t-1.5 -62.5q0 -31 1.5 -61.5t4.5 -74.5q4 -68 42.5 -108t112.5 -40z" />
    <glyph glyph-name="P" unicode="P" horiz-adv-x="553" 
d="M90 0v700h240q89 0 141 -53.5t52 -143.5q0 -89 -52 -140.5t-141 -51.5h-160v-311h-80zM170 384h150q56 0 89 31.5t33 87.5q0 59 -33 93t-89 34h-150v-246z" />
    <glyph glyph-name="Q" unicode="Q" horiz-adv-x="606" 
d="M424 -118l-58 112q-14 -3 -30 -4.5t-33 -1.5q-54 0 -96.5 16t-72.5 47q-21 22 -38 55.5t-26.5 91.5t-9.5 152t9.5 152t26.5 92t38 55q30 31 72.5 47t96.5 16t96.5 -16t72.5 -47q22 -21 38.5 -55t26 -92t9.5 -152t-9.5 -152t-26 -91.5t-38.5 -55.5q-8 -8 -17 -14.5
t-19 -12.5l59 -110zM303 66q6 0 12 0.5t12 1.5q9 2 10.5 8.5t-4.5 13.5l-30 31l-51 102l70 33l80 -162q26 20 40 50t16 70q3 44 4.5 74.5t1.5 61.5q0 32 -1.5 62.5t-4.5 73.5q-4 68 -42.5 108t-112.5 40t-112.5 -40t-42.5 -108q-3 -43 -4.5 -73.5t-1.5 -62.5
q0 -31 1.5 -61.5t4.5 -74.5q3 -45 20.5 -78.5t51.5 -51.5t83 -18z" />
    <glyph glyph-name="R" unicode="R" horiz-adv-x="563" 
d="M90 0v700h228q96 0 150.5 -52t54.5 -147q0 -70 -35 -117t-96 -64q-14 -3 -4 -19l29 -48l92 -253h-89l-113 311h-137v-311h-80zM170 384h148q57 0 90 30.5t33 86.5q0 62 -33 95.5t-90 33.5h-148v-246z" />
    <glyph glyph-name="S" unicode="S" horiz-adv-x="503" 
d="M245 -10q-58 0 -112 18.5t-91 49.5l30 70q33 -29 78 -45t91 -16q71 0 107 36t36 93q0 48 -26 84t-89 43l-48 5q-56 6 -96 29t-61 62.5t-21 93.5q0 57 28 101.5t79.5 70t122.5 25.5q44 0 90 -12t86 -38l-25 -70q-36 25 -75 35t-75 10q-72 0 -110.5 -32.5t-38.5 -84.5
q0 -53 29 -80t77 -32l48 -5q91 -10 138.5 -64t47.5 -136q0 -60 -26.5 -108t-75.5 -75.5t-118 -27.5z" />
    <glyph glyph-name="T" unicode="T" horiz-adv-x="488" 
d="M202 0v622h-172v78h428v-78h-173v-622h-83z" />
    <glyph glyph-name="U" unicode="U" horiz-adv-x="609" 
d="M304 -10q-65 0 -114.5 26.5t-77 74.5t-27.5 110v499h84l-1 -499q0 -60 37.5 -97.5t98.5 -37.5t98.5 37.5t37.5 97.5v499h84l-1 -499q0 -62 -27.5 -110t-77 -74.5t-114.5 -26.5z" />
    <glyph glyph-name="V" unicode="V" horiz-adv-x="536" 
d="M204 0l-184 700h85l148 -574l9 -53q1 -6 6.5 -6t6.5 6l8 53l148 574h85l-185 -700h-127z" />
    <glyph glyph-name="W" unicode="W" horiz-adv-x="615" 
d="M135 0l-110 700h73l81 -501l2 -51q0 -9 6 -10t8 8l84 354h57l84 -354q2 -9 8 -8t6 10l2 51l82 501h72l-110 -700h-83l-79 309q-3 12 -10 12t-10 -12l-80 -309h-83z" />
    <glyph glyph-name="X" unicode="X" horiz-adv-x="522" 
d="M20 0l186 350l-186 350h94l127 -255l13 -41q2 -5 7.5 -5t6.5 5l13 41l127 255h94l-186 -350l186 -350h-94l-127 255l-13 41q-1 5 -6.5 5t-7.5 -5l-13 -41l-127 -255h-94z" />
    <glyph glyph-name="Y" unicode="Y" horiz-adv-x="482" 
d="M201 0v330l-201 370h94l127 -255l13 -41q2 -5 7.5 -5t6.5 5l13 41l127 255h94l-201 -370v-330h-80z" />
    <glyph glyph-name="Z" unicode="Z" horiz-adv-x="507" 
d="M45 0v48l282 524l33 47q4 5 2.5 8t-6.5 3h-228v-83h-73v153h407v-48l-277 -516l-33 -47q-4 -5 -2.5 -8t5.5 -3h307v-78h-417z" />
    <glyph glyph-name="bracketleft" unicode="[" horiz-adv-x="364" 
d="M90 -140v973h184v-70h-107v-833h107v-70h-184z" />
    <glyph glyph-name="backslash" unicode="\" horiz-adv-x="485" 
d="M370 0l-340 700h83l342 -700h-85z" />
    <glyph glyph-name="bracketright" unicode="]" horiz-adv-x="364" 
d="M90 -140v70h107v833h-107v70h184v-973h-184z" />
    <glyph glyph-name="asciicircum" unicode="^" horiz-adv-x="470" 
d="M30 350l157 400h93l160 -400h-83l-103 286l-12 49q-3 8 -8.5 8t-7.5 -8l-10 -49l-102 -286h-84z" />
    <glyph glyph-name="underscore" unicode="_" horiz-adv-x="548" 
d="M87 -250v70h374v-70h-374z" />
    <glyph glyph-name="grave" unicode="`" horiz-adv-x="285" 
d="M150 600l-100 150h85l100 -150h-85z" />
    <glyph glyph-name="a" unicode="a" horiz-adv-x="491" 
d="M373 -12l-33 49q-6 9 -14 2q-24 -21 -50.5 -35.5t-70.5 -14.5q-71 0 -113 39t-42 102q0 45 19.5 76t55.5 47.5t84 16.5h117v72q0 43 -25 69t-79 26q-39 0 -70 -11.5t-63 -36.5l-25 70q38 29 77 41t86 12q89 0 132.5 -46t43.5 -115v-255l43 -64zM209 58q54 0 85.5 26
t31.5 69v45q0 19 -18 14l-55 -12h-38q-40 0 -62.5 -17.5t-22.5 -49.5q0 -33 21.5 -54t57.5 -21z" />
    <glyph glyph-name="b" unicode="b" horiz-adv-x="527" 
d="M113 -12l-73 44l43 63v655h80v-285q20 19 51.5 32t67.5 13q87 0 131.5 -47.5t53.5 -123.5q3 -25 4 -46t1 -42q0 -20 -1.5 -41.5t-3.5 -47.5q-7 -76 -52.5 -124t-132.5 -48q-43 0 -71.5 14t-46.5 29q-13 10 -21 -1zM273 58q60 0 86.5 32t30.5 77q4 41 3.5 83t-3.5 83
q-4 45 -30.5 76t-86.5 31q-52 0 -81 -23.5t-29 -64.5v-204q0 -40 29 -65t81 -25z" />
    <glyph glyph-name="c" unicode="c" horiz-adv-x="441" 
d="M255 -14q-87 0 -136 49.5t-58 124.5q-6 50 -6 89q0 21 1.5 42.5t4.5 46.5q9 75 58 124.5t136 49.5q44 0 76 -11t65 -33l-24 -65q-28 18 -55 27.5t-61 9.5q-55 0 -85.5 -31.5t-33.5 -75.5q-3 -47 -3.5 -84.5t3.5 -83.5q4 -43 34 -75t85 -32q33 0 63.5 9t58.5 27l23 -60
q-38 -25 -71.5 -36.5t-74.5 -11.5z" />
    <glyph glyph-name="d" unicode="d" horiz-adv-x="529" 
d="M245 -10q-87 0 -133 48t-53 124q-2 26 -3 47.5t-1 41.5q0 21 1 42t3 46q7 76 53 123.5t133 47.5q35 0 67.5 -10.5t51.5 -27.5v278h80v-750h-80v18q0 9 -6.5 11.5t-14.5 -2.5l-50 -31q-12 -3 -21.5 -4.5t-26.5 -1.5zM254 58q53 0 81.5 25t28.5 65v204q0 41 -28.5 64.5
t-81.5 23.5q-60 0 -86 -31t-31 -76q-4 -41 -3.5 -83t3.5 -83q4 -45 30.5 -77t86.5 -32z" />
    <glyph glyph-name="e" unicode="e" horiz-adv-x="481" 
d="M259 -10q-61 0 -103 22.5t-65.5 61.5t-29.5 88q-3 24 -4.5 45t-1.5 42q0 40 6 89q8 74 56.5 123t132.5 49q61 0 98 -22t56 -57t25.5 -74t6.5 -72l-20 -53l-302 1v69h246q0 34 -8.5 65.5t-32.5 52t-69 20.5q-53 0 -82 -32.5t-33 -74.5q-2 -25 -3.5 -68.5t4.5 -98.5
q5 -43 33.5 -75.5t89.5 -32.5q38 0 72.5 12t62.5 34l24 -61q-41 -29 -75 -41t-84 -12z" />
    <glyph glyph-name="f" unicode="f" horiz-adv-x="365" 
d="M132 0v430h-102v70h102v82q0 45 20.5 84t64.5 63t113 24q47 0 85.5 -14.5t64.5 -38.5l-34 -60q-22 22 -50 33t-62 11q-58 0 -91.5 -26t-33.5 -73v-85h131v-70h-131v-430h-77z" />
    <glyph glyph-name="g" unicode="g" horiz-adv-x="524" 
d="M243 -203q-32 0 -58.5 4.5t-49.5 14t-44 24.5l19 65q16 -12 35.5 -20t44 -12t52.5 -4q56 0 89 24t33 67v58q0 11 -5.5 12.5t-13.5 -3.5l-52 -30q-12 -4 -21.5 -5.5t-26.5 -1.5q-87 0 -133 48t-53 124q-2 26 -3 47.5t-1 41.5q0 21 1 42t3 46q7 76 53 123.5t133 47.5
q35 0 67.5 -10.5t51.5 -27.5v28h80v-522q0 -46 -19.5 -87.5t-63.5 -67.5t-118 -26zM254 58q53 0 81.5 25t28.5 65v204q0 41 -28.5 64.5t-81.5 23.5q-60 0 -86 -31t-31 -76q-4 -41 -3.5 -83t3.5 -83q4 -45 30.5 -77t86.5 -32z" />
    <glyph glyph-name="h" unicode="h" horiz-adv-x="537" 
d="M85 0v750h80v-279q20 16 53 28.5t75 12.5q50 0 87 -19.5t57 -54.5t20 -81v-357h-80v348q0 42 -26.5 67t-75.5 25q-52 0 -81 -25t-29 -67v-348h-80z" />
    <glyph glyph-name="i" unicode="i" horiz-adv-x="285" 
d="M120 0v430h-70v70h150v-500h-80zM120 600v100h80v-100h-80z" />
    <glyph glyph-name="j" unicode="j" horiz-adv-x="286" 
d="M58 -222l-28 68q41 13 65.5 52.5t24.5 106.5v425h-70v70h151l-1 -495q0 -48 -10 -84.5t-28 -64t-44.5 -47t-59.5 -31.5zM120 600v100h80v-100h-80z" />
    <glyph glyph-name="k" unicode="k" horiz-adv-x="477" 
d="M85 0v750h82v-441h57l129 191h90l-149 -215l153 -285h-90l-123 239h-67v-239h-82z" />
    <glyph glyph-name="l" unicode="l" horiz-adv-x="275" 
d="M199 0q-52 0 -83 29.5t-31 78.5v642h80v-642q0 -17 9 -27.5t25 -10.5h41v-70h-41z" />
    <glyph glyph-name="m" unicode="m" horiz-adv-x="825" 
d="M85 0v500h80v-40q20 19 54.5 35.5t78.5 16.5q43 0 76.5 -15.5t53.5 -40.5q19 18 42.5 30.5t50.5 19t56 6.5q56 0 93.5 -19.5t56 -54.5t18.5 -81v-357h-80v348q0 42 -25 67t-84 25q-56 0 -78.5 -25t-22.5 -67v-348h-80v348q0 42 -26 67t-72 25q-61 0 -86.5 -25t-25.5 -67
v-348h-80z" />
    <glyph glyph-name="n" unicode="n" horiz-adv-x="537" 
d="M85 0v500h80v-29q20 16 52.5 28.5t72.5 12.5q52 0 89.5 -19.5t57.5 -54.5t20 -81v-357h-80v348q0 42 -26.5 67t-78.5 25q-51 0 -79 -25t-28 -67v-348h-80z" />
    <glyph glyph-name="o" unicode="o" horiz-adv-x="510" 
d="M255 -11q-87 0 -136 49.5t-58 123.5q-6 48 -6 87q0 21 1.5 42.5t4.5 46.5q9 75 58 124t136 49t136 -49t58 -124q6 -49 6 -89q0 -39 -6 -87q-9 -74 -58 -123.5t-136 -49.5zM255 58q55 0 84 32t33 75q4 45 4 83.5t-4 84.5q-4 44 -33 75.5t-84 31.5t-85 -31.5t-33 -75.5
q-3 -46 -3 -84.5t4 -83.5q5 -43 33.5 -75t83.5 -32z" />
    <glyph glyph-name="p" unicode="p" horiz-adv-x="529" 
d="M85 -200v700h80v-28q20 17 52 27.5t67 10.5q87 0 133 -47.5t53 -123.5q2 -25 3 -46t1 -42q0 -20 -1 -41.5t-3 -47.5q-7 -76 -53 -124t-133 -48q-17 0 -26.5 1.5t-21.5 3.5l-50 32q-8 5 -14.5 1.5t-6.5 -12.5v-216h-80zM275 58q60 0 86.5 32t30.5 77q3 41 3.5 83t-3.5 83
q-4 45 -30.5 76t-86.5 31q-52 0 -81 -23.5t-29 -64.5v-204q0 -40 29 -65t81 -25z" />
    <glyph glyph-name="q" unicode="q" horiz-adv-x="529" 
d="M364 -200v217q0 9 -5.5 12t-13.5 -2l-52 -32q-12 -2 -21.5 -3.5t-26.5 -1.5q-87 0 -133 48t-53 124q-2 26 -3 47.5t-1 41.5q0 21 1 42t3 46q7 76 53 123.5t133 47.5q35 0 67.5 -10.5t51.5 -27.5v28h80v-700h-80zM254 58q53 0 81.5 25t28.5 65v204q0 41 -28.5 64.5
t-81.5 23.5q-60 0 -86 -31t-31 -76q-4 -41 -3.5 -83t3.5 -83q4 -45 30.5 -77t86.5 -32z" />
    <glyph glyph-name="r" unicode="r" horiz-adv-x="351" 
d="M90 0v386l-55 82l73 44l38 -57q7 -10 13 -9.5t13 7.5q27 27 67 43t91 16h11v-82q-86 0 -128.5 -30.5t-42.5 -81.5v-318h-80z" />
    <glyph glyph-name="s" unicode="s" horiz-adv-x="452" 
d="M229 -12q-48 0 -92.5 15t-81.5 41l27 68q24 -17 47.5 -28.5t48 -17.5t51.5 -6q53 0 80 23t27 63q0 30 -22.5 50.5t-62.5 23.5l-59 4q-58 4 -97.5 36.5t-39.5 96.5q0 69 49 112t132 43q42 0 82 -10.5t74 -33.5l-26 -65q-23 16 -56 26.5t-74 10.5q-51 0 -78 -20.5
t-27 -59.5q0 -30 20 -46t50 -18l58 -4q74 -5 113.5 -44.5t39.5 -101.5q0 -67 -48 -112.5t-135 -45.5z" />
    <glyph glyph-name="t" unicode="t" horiz-adv-x="340" 
d="M211 0q-52 0 -83 29.5t-31 78.5v322h-87v70h76q9 0 14.5 6t11 30t14.5 77l3 17h48v-130h123v-70h-123v-322q0 -17 9 -27.5t25 -10.5h89v-70h-89z" />
    <glyph glyph-name="u" unicode="u" horiz-adv-x="527" 
d="M233 -12q-51 0 -87.5 19t-56 54t-19.5 82v357h80v-348q0 -42 26.5 -67t78.5 -25q51 0 79 25t28 67v348h80v-500h-80v18q0 10 -6 12t-14 -3l-51 -32q-22 -7 -58 -7z" />
    <glyph glyph-name="v" unicode="v" horiz-adv-x="470" 
d="M177 0l-147 500h84l107 -380l7 -49q2 -8 6.5 -8t5.5 8l8 49l109 380h83l-150 -500h-113z" />
    <glyph glyph-name="w" unicode="w" horiz-adv-x="580" 
d="M119 3l-79 497h72l48 -301l3 -53q1 -9 6.5 -9.5t7.5 9.5l84 354h57l84 -354q2 -10 7.5 -9.5t6.5 9.5l3 53l50 301h71l-80 -497h-78l-82 326q-3 12 -10 12t-10 -12l-83 -326h-78z" />
    <glyph glyph-name="x" unicode="x" horiz-adv-x="472" 
d="M30 0l158 250l-158 250h94l88 -152l18 -44q2 -5 7 -5t7 5l18 44l86 152h94l-156 -250l156 -250h-94l-86 152l-18 44q-2 5 -7 5t-7 -5l-18 -44l-88 -152h-94z" />
    <glyph glyph-name="y" unicode="y" horiz-adv-x="469" 
d="M101 -220l-29 72q52 15 76 49t39 83l13 43l-180 473h84l120 -315l9 -54q2 -8 7.5 -8t6.5 8l12 54l97 315h83l-177 -548q-20 -62 -60 -106t-101 -66z" />
    <glyph glyph-name="z" unicode="z" horiz-adv-x="445" 
d="M50 0v48l211 333l32 33q10 10 6 13t-9 3h-240v70h345v-48l-211 -333l-32 -33q-9 -9 -5 -12.5t8 -3.5h240v-70h-345z" />
    <glyph glyph-name="braceleft" unicode="{" horiz-adv-x="477" 
d="M337 -139q-64 0 -102.5 35t-38.5 115v215q2 36 -19.5 58.5t-57.5 23.5l-29 1v74l29 1q36 2 57.5 24t19.5 58v215q0 80 38.5 115t102.5 35h50v-67h-50q-37 0 -51.5 -21.5t-14.5 -61.5v-215q0 -41 -7 -61.5t-20 -38.5l-42 -12q-9 -3 -9 -8t9 -8l42 -12q13 -18 20 -38.5
t7 -61.5v-215q0 -40 14.5 -61.5t51.5 -21.5h50v-67h-50z" />
    <glyph glyph-name="bar" unicode="|" horiz-adv-x="300" 
d="M110 -150v1000h80v-1000h-80z" />
    <glyph glyph-name="braceright" unicode="}" horiz-adv-x="477" 
d="M90 -139v67h50q38 0 52 21.5t14 61.5v215q0 41 7 61.5t20 38.5l42 12q9 3 9 8t-9 8l-42 12q-13 18 -20 38.5t-7 61.5v215q0 40 -14 61.5t-52 21.5h-50v67h50q64 0 102.5 -35t38.5 -115v-215q-1 -36 20 -58t57 -24l29 -1v-74l-29 -1q-36 -1 -57 -23.5t-20 -58.5v-215
q0 -80 -38.5 -115t-102.5 -35h-50z" />
    <glyph glyph-name="asciitilde" unicode="~" horiz-adv-x="600" 
d="M396 189q-38 0 -63 8.5t-44 19.5t-39 19.5t-47 8.5q-30 0 -58 -11.5t-49 -29.5l-38 50q35 30 72.5 44t77.5 14q38 0 63 -8.5t44 -19.5t39 -19.5t47 -8.5q30 0 58 11.5t49 29.5l37 -50q-35 -30 -72 -44t-77 -14z" />
    <glyph glyph-name="uni00A0" unicode="&#xa0;" horiz-adv-x="260" 
 />
    <glyph glyph-name="exclamdown" unicode="&#xa1;" horiz-adv-x="255" 
d="M157 290l13 -490h-85l13 490h59zM170 500v-95h-85v95h85z" />
    <glyph glyph-name="cent" unicode="&#xa2;" horiz-adv-x="441" 
d="M188 -112v108q-56 17 -88 61t-39 103q-6 50 -6 89q0 21 1.5 42.5t4.5 46.5q7 59 39 103t88 61v110h80v-100q39 -1 68 -12.5t60 -31.5l-24 -65q-28 18 -55 27.5t-61 9.5q-55 0 -85.5 -31.5t-33.5 -75.5q-3 -47 -3.5 -84.5t3.5 -83.5q4 -43 34 -75t85 -32q33 0 63.5 9
t58.5 27l23 -60q-35 -23 -65.5 -34.5t-67.5 -13.5v-98h-80z" />
    <glyph glyph-name="sterling" unicode="&#xa3;" horiz-adv-x="557" 
d="M60 0v70q41 13 60 51.5t19 105.5v90h-79v70h79v154q0 45 20.5 84t64.5 63t113 24q47 0 85.5 -14.5t64.5 -38.5l-34 -60q-22 22 -50 33t-62 11q-58 0 -91.5 -26t-33.5 -73v-157h267v-70h-267v-90q0 -45 -8 -80.5t-25 -54.5q-7 -8 -4 -15t14 -7h290v-70h-423z" />
    <glyph glyph-name="yen" unicode="&#xa5;" horiz-adv-x="602" 
d="M261 0v200h-176v70h176v60l-54 100h-122v70h84l-109 200h94l127 -255l13 -41q2 -5 7.5 -5t6.5 5l13 41l127 255h94l-109 -200h92v-70h-130l-54 -100v-60h184v-70h-184v-200h-80z" />
    <glyph glyph-name="section" unicode="&#xa7;" horiz-adv-x="497" 
d="M244 -12q-48 0 -92.5 15t-81.5 41l27 68q24 -17 47.5 -28.5t48 -17.5t51.5 -6q53 0 80 18t27 58q0 30 -22.5 50.5t-62.5 23.5l-59 4q-58 4 -97.5 37.5t-39.5 105.5q0 35 13 63t36 47q-22 17 -35.5 45.5t-13.5 68.5q0 69 49 112t132 43q42 0 82 -10.5t74 -33.5l-26 -65
q-23 16 -56 26.5t-74 10.5q-51 0 -78 -20.5t-27 -59.5q0 -37 20 -54.5t50 -19.5l58 -4q74 -5 113.5 -44.5t39.5 -101.5q0 -70 -53 -111q53 -39 53 -113q0 -67 -48 -107.5t-135 -40.5zM242 286q52 0 80.5 15.5t28.5 58.5q0 30 -21 52t-80 22q-56 0 -80 -20.5t-24 -53.5
q0 -37 24.5 -55.5t71.5 -18.5z" />
    <glyph glyph-name="dieresis" unicode="&#xa8;" horiz-adv-x="372" 
d="M221 600v100h81v-100h-81zM50 600v100h81v-100h-81z" />
    <glyph glyph-name="copyright" unicode="&#xa9;" horiz-adv-x="966" 
d="M483 -66q-85 0 -160 32t-132 89t-89 132t-32 160q0 86 32 160.5t89 131.5t132 89t160 32q86 0 160.5 -32t131.5 -89t89 -131.5t32 -160.5q0 -85 -32 -160t-89 -132t-131.5 -89t-160.5 -32zM483 82q-58 0 -103 23t-73.5 62.5t-37.5 88.5q-4 25 -6 46.5t-2 42.5t2 42.5
t6 46.5q9 50 37.5 89t73.5 62t103 23q52 0 90 -14t71 -40l-24 -65q-28 22 -61.5 34.5t-74.5 12.5q-37 0 -67 -16t-48.5 -41.5t-23.5 -54.5q-7 -44 -7.5 -79.5t7.5 -78.5q5 -29 24 -54.5t48.5 -41.5t66.5 -16q41 0 79 14t63 32l23 -60q-34 -25 -75.5 -41.5t-90.5 -16.5z
M483 9q70 0 131.5 26t108 72.5t73 108t26.5 131.5t-26.5 131.5t-73 108t-108 73t-131.5 26.5t-131 -26.5t-107.5 -73t-73 -108t-26.5 -131.5t26.5 -131.5t73 -108t107.5 -72.5t131 -26z" />
    <glyph glyph-name="ordfeminine" unicode="&#xaa;" horiz-adv-x="443" 
d="M330 360l-27 40q-6 8 -14 2q-20 -17 -43 -29t-59 -12q-61 0 -96.5 33t-35.5 86q0 57 37.5 88t99.5 31h96v57q0 35 -21 55t-66 20q-33 0 -58.5 -9.5t-53.5 -29.5l-24 64q33 23 67 33.5t75 10.5q77 0 115 -39.5t38 -98.5v-211l33 -54zM193 424q44 0 69.5 21t25.5 56v33
q0 15 -16 12l-46 -10h-30q-31 0 -49 -14t-18 -40q0 -25 18 -41.5t46 -16.5z" />
    <glyph glyph-name="guillemotleft" unicode="&#xab;" horiz-adv-x="485" 
d="M346 52l-116 144v60l116 145h89l-115 -143l-35 -25q-8 -7 0 -14l35 -25l114 -142h-88zM156 52l-116 144v60l116 145h89l-115 -143l-35 -25q-8 -7 0 -14l35 -25l114 -142h-88z" />
    <glyph glyph-name="logicalnot" unicode="&#xac;" horiz-adv-x="580" 
d="M440 110v205h-370v70h440v-275h-70z" />
    <glyph glyph-name="registered" unicode="&#xae;" horiz-adv-x="966" 
d="M483 -66q-85 0 -160 32t-132 89t-89 132t-32 160q0 86 32 160.5t89 131.5t132 89t160 32q86 0 160.5 -32t131.5 -89t89 -131.5t32 -160.5q0 -85 -32 -160t-89 -132t-131.5 -89t-160.5 -32zM483 9q70 0 131.5 26t108 72.5t73 108t26.5 131.5t-26.5 131.5t-73 108t-108 73
t-131.5 26.5t-131 -26.5t-107.5 -73t-73 -108t-26.5 -131.5t26.5 -131.5t73 -108t107.5 -72.5t131 -26zM332 97v500h170q75 0 119 -40t44 -99q0 -48 -27 -84t-70 -48q-9 -3 -2 -13l20 -34l79 -182h-82l-89 213h-86v-213h-76zM408 381h84q40 0 63 13.5t23 53.5q0 44 -23 60
t-63 16h-84v-143z" />
    <glyph glyph-name="macron" unicode="&#xaf;" horiz-adv-x="350" 
d="M50 610v60h250v-60h-250z" />
    <glyph glyph-name="degree" unicode="&#xb0;" horiz-adv-x="482" 
d="M242 415q-40 0 -76 15.5t-58 53t-22 104.5q0 68 23 105t59 52t74 15t73.5 -15t58 -52t22.5 -105t-22.5 -105.5t-58 -52.5t-73.5 -15zM240 480q23 0 41.5 8.5t29 32t10.5 67.5t-10.5 67t-29 31.5t-41.5 8.5q-35 0 -57 -21t-22 -86q0 -44 11 -67.5t29 -32t39 -8.5z" />
    <glyph glyph-name="plusminus" unicode="&#xb1;" horiz-adv-x="620" 
d="M275 140v175h-205v70h205v175h70v-175h205v-70h-205v-175h-70zM90 0v70h440v-70h-440z" />
    <glyph glyph-name="uni00B2" unicode="&#xb2;" horiz-adv-x="404" 
d="M51 350v82q0 50 26 88.5t89 63.5l47 19q34 14 51.5 31t17.5 44q0 32 -27 49t-65 17q-29 0 -59.5 -6t-57.5 -23l-23 60q36 22 70.5 29.5t72.5 7.5q37 0 74 -13t62 -42t25 -76q0 -52 -27.5 -83t-75.5 -51l-49 -20q-35 -14 -52 -30.5t-21.5 -31.5t-4.5 -26v-19h230v-70h-303
z" />
    <glyph glyph-name="uni00B3" unicode="&#xb3;" horiz-adv-x="405" 
d="M192 344q-46 0 -82.5 11t-69.5 38l25 63q26 -24 57 -33.5t62 -9.5q50 0 73.5 18t23.5 50q0 29 -22 46.5t-65 17.5h-65v65h65q39 0 59 17.5t20 48.5q0 32 -23.5 50t-65.5 18q-24 0 -55 -6t-56 -23l-23 60q32 22 66.5 29.5t70.5 7.5q35 0 72 -13t62 -41.5t25 -76.5
q0 -42 -22.5 -66.5t-51.5 -36.5q38 -13 60.5 -39.5t22.5 -63.5q0 -47 -24.5 -76t-62 -42t-76.5 -13z" />
    <glyph glyph-name="acute" unicode="&#xb4;" horiz-adv-x="285" 
d="M50 600l100 150h85l-100 -150h-85z" />
    <glyph glyph-name="uni00B5" unicode="&#xb5;" horiz-adv-x="537" 
d="M76 -165l-1 665h80v-348q0 -42 26.5 -67t78.5 -25q51 0 79 25t28 67v348h80v-500h-80v18q0 10 -6 12t-14 -3l-51 -32q-22 -7 -58 -7q-24 0 -45 4.5t-38 12.5v-170h-79z" />
    <glyph glyph-name="paragraph" unicode="&#xb6;" horiz-adv-x="600" 
d="M209 -250v505q-52 0 -98 19.5t-74.5 68.5t-28.5 135q0 65 17 108t46 68t65 35.5t73 10.5h320v-70h-80v-880h-80v880h-80v-880h-80z" />
    <glyph glyph-name="periodcentered" unicode="&#xb7;" horiz-adv-x="265" 
d="M90 205v100h85v-100h-85z" />
    <glyph glyph-name="cedilla" unicode="&#xb8;" horiz-adv-x="310" 
d="M50 -250l17 62q59 0 92 13.5t33 36.5q0 21 -26 27.5t-81 6.5l31 126l60 -22l-13 -51q44 -5 70.5 -27.5t26.5 -56.5q0 -37 -29.5 -62.5t-77.5 -39t-103 -13.5z" />
    <glyph glyph-name="uni00B9" unicode="&#xb9;" horiz-adv-x="361" 
d="M44 350v66h111v318h-115v41l192 38v-397h109v-66h-297z" />
    <glyph glyph-name="ordmasculine" unicode="&#xba;" horiz-adv-x="457" 
d="M229 354q-76 0 -118 42.5t-51 106.5q-3 21 -4 38.5t-1 35.5q0 19 1.5 37.5t3.5 39.5q8 65 50.5 106.5t118.5 41.5q75 0 118 -41.5t50 -106.5q2 -19 3.5 -38.5t1.5 -38.5q0 -18 -1 -36t-4 -38q-8 -63 -50.5 -106t-117.5 -43zM229 420q44 0 68 25.5t26 61.5q3 38 4 70
t-3 71q-3 36 -27 62.5t-68 26.5q-45 0 -69.5 -26.5t-27.5 -62.5q-3 -39 -3 -70.5t4 -69.5q4 -37 27.5 -62.5t68.5 -25.5z" />
    <glyph glyph-name="guillemotright" unicode="&#xbb;" horiz-adv-x="485" 
d="M241 52l114 142l35 25q8 7 0 14l-35 25l-115 143h89l116 -145v-60l-116 -144h-88zM51 52l114 142l35 25q8 7 0 14l-35 25l-115 143h89l116 -145v-60l-116 -144h-88z" />
    <glyph glyph-name="onequarter" unicode="&#xbc;" horiz-adv-x="1014" 
d="M44 245v66h111v318h-115v41l192 38v-397h109v-66h-297zM301 0l342 700h83l-340 -700h-85zM871 0v122h-245v36l150 297h80l-139 -270h154v140h73v-325h-73z" />
    <glyph glyph-name="onehalf" unicode="&#xbd;" horiz-adv-x="1050" 
d="M44 245v66h111v318h-115v41l192 38v-397h109v-66h-297zM301 0l342 700h83l-340 -700h-85zM697 0v82q0 50 26 88.5t89 63.5l47 19q34 14 51.5 31t17.5 44q0 32 -27 49t-65 17q-29 0 -59.5 -6t-57.5 -23l-23 60q36 22 70.5 29.5t72.5 7.5q37 0 74 -13t62 -42t25 -76
q0 -52 -27.5 -83t-75.5 -51l-49 -20q-35 -14 -52 -30.5t-21.5 -31.5t-4.5 -26v-19h230v-70h-303z" />
    <glyph glyph-name="threequarters" unicode="&#xbe;" horiz-adv-x="1018" 
d="M192 239q-46 0 -82.5 11t-69.5 38l25 63q26 -24 57 -33.5t62 -9.5q50 0 73.5 18t23.5 50q0 29 -22 46.5t-65 17.5h-65v65h65q39 0 59 17.5t20 48.5q0 32 -23.5 50t-65.5 18q-24 0 -55 -6t-56 -23l-23 60q32 22 66.5 29.5t70.5 7.5q35 0 72 -13t62 -41.5t25 -76.5
q0 -42 -22.5 -66.5t-51.5 -36.5q38 -13 60.5 -39.5t22.5 -63.5q0 -47 -24.5 -76t-62 -42t-76.5 -13zM305 0l342 700h83l-340 -700h-85zM875 0v122h-245v36l150 297h80l-139 -270h154v140h73v-325h-73z" />
    <glyph glyph-name="questiondown" unicode="&#xbf;" horiz-adv-x="494" 
d="M326 290q5 -14 7.5 -29t2.5 -30q0 -46 -22 -70t-75 -47l-45 -20q-28 -13 -50.5 -36t-22.5 -76q0 -41 19.5 -67t51.5 -37.5t69 -11.5q36 0 60.5 5t45 15t42.5 24l25 -70q-39 -25 -81.5 -37.5t-93.5 -12.5q-60 0 -109.5 23t-79.5 67.5t-30 108.5q0 56 20 90t51 54.5
t64 35.5l37 17q26 12 40 26t14 46v32h60zM338 500v-90h-85v90h85z" />
    <glyph glyph-name="Agrave" unicode="&#xc0;" 
d="M30 0l197 700h120l199 -700h-85l-158 574l-8 53q-1 6 -6.5 6t-6.5 -6l-9 -53l-158 -574h-85zM138 187l22 74h256l22 -74h-300zM113 627v73h141v-73h-141zM250 770l-100 150h85l100 -150h-85z" />
    <glyph glyph-name="Aacute" unicode="&#xc1;" 
d="M30 0l197 700h120l199 -700h-85l-158 574l-8 53q-1 6 -6.5 6t-6.5 -6l-9 -53l-158 -574h-85zM138 187l22 74h256l22 -74h-300zM113 627v73h141v-73h-141zM230 770l100 150h85l-100 -150h-85z" />
    <glyph glyph-name="Acircumflex" unicode="&#xc2;" 
d="M30 0l197 700h120l199 -700h-85l-158 574l-8 53q-1 6 -6.5 6t-6.5 -6l-9 -53l-158 -574h-85zM138 187l22 74h256l22 -74h-300zM113 627v73h141v-73h-141zM150 770l91 150h81l93 -150h-79l-36 67l-11 34q-2 8 -6 8t-6 -8l-11 -34l-37 -67h-79z" />
    <glyph glyph-name="Atilde" unicode="&#xc3;" 
d="M30 0l197 700h120l199 -700h-85l-158 574l-8 53q-1 6 -6.5 6t-6.5 -6l-9 -53l-158 -574h-85zM138 187l22 74h256l22 -74h-300zM113 627v73h141v-73h-141zM150 762l-18 54q17 26 39.5 37.5t47.5 11.5q33 0 53 -9.5t37 -19.5t39 -10q20 0 35 10t32 32l18 -54
q-17 -26 -39 -37.5t-48 -11.5q-32 0 -52.5 10t-37.5 19.5t-39 9.5q-19 0 -34.5 -10t-32.5 -32z" />
    <glyph glyph-name="Adieresis" unicode="&#xc4;" 
d="M30 0l197 700h120l199 -700h-85l-158 574l-8 53q-1 6 -6.5 6t-6.5 -6l-9 -53l-158 -574h-85zM138 187l22 74h256l22 -74h-300zM113 627v73h141v-73h-141zM328 770v100h81v-100h-81zM157 770v100h81v-100h-81z" />
    <glyph glyph-name="Aring" unicode="&#xc5;" 
d="M30 0l197 700h120l199 -700h-85l-158 574l-8 53q-1 6 -6.5 6t-6.5 -6l-9 -53l-158 -574h-85zM138 187l22 74h256l22 -74h-300zM113 627v73h141v-73h-141zM284 741q-35 0 -66.5 9.5t-50.5 32t-19 61.5q0 40 20 62t51.5 31t64.5 9t64 -9t50.5 -31t19.5 -62t-19.5 -62.5
t-50.5 -31.5t-64 -9zM282 792q33 0 56 9.5t23 42.5q0 32 -23 41.5t-56 9.5q-34 0 -55.5 -9.5t-21.5 -41.5q0 -33 23 -42.5t54 -9.5z" />
    <glyph glyph-name="AE" unicode="&#xc6;" horiz-adv-x="849" 
d="M30 0l175 622h-92v78h676v-78h-325v-233h308v-78h-308v-233h325v-78h-403v187h-220l-51 -187h-85zM187 261h199v361h-100z" />
    <glyph glyph-name="Ccedilla" unicode="&#xc7;" horiz-adv-x="503" 
d="M303 -12q-70 0 -121 25t-80.5 75.5t-35.5 125.5q-2 29 -4 67t-2 69q0 32 2 69.5t4 66.5q6 76 35.5 126t80.5 75t121 25q43 0 84 -15.5t76 -45.5l-25 -70q-30 26 -64 39.5t-71 13.5q-72 0 -111.5 -40t-44.5 -118q-2 -36 -3.5 -65t-1.5 -61q0 -31 1.5 -60.5t3.5 -65.5
q5 -78 44.5 -118t111.5 -40q37 0 71 13.5t64 39.5l25 -70q-35 -30 -76 -45.5t-84 -15.5zM197 -250l17 62q59 0 92 13.5t33 36.5q0 21 -26 27.5t-81 6.5l31 126l60 -22l-13 -51q44 -5 70.5 -27.5t26.5 -56.5q0 -37 -29.5 -62.5t-77.5 -39t-103 -13.5z" />
    <glyph glyph-name="Egrave" unicode="&#xc8;" horiz-adv-x="553" 
d="M90 0v700h403v-78h-325v-233h308v-78h-308v-233h325v-78h-403zM264 770l-100 150h85l100 -150h-85z" />
    <glyph glyph-name="Eacute" unicode="&#xc9;" horiz-adv-x="553" 
d="M90 0v700h403v-78h-325v-233h308v-78h-308v-233h325v-78h-403zM244 770l100 150h85l-100 -150h-85z" />
    <glyph glyph-name="Ecircumflex" unicode="&#xca;" horiz-adv-x="553" 
d="M90 0v700h403v-78h-325v-233h308v-78h-308v-233h325v-78h-403zM164 770l91 150h81l93 -150h-79l-36 67l-11 34q-2 8 -6 8t-6 -8l-11 -34l-37 -67h-79z" />
    <glyph glyph-name="Edieresis" unicode="&#xcb;" horiz-adv-x="553" 
d="M90 0v700h403v-78h-325v-233h308v-78h-308v-233h325v-78h-403zM342 770v100h81v-100h-81zM171 770v100h81v-100h-81z" />
    <glyph glyph-name="Igrave" unicode="&#xcc;" horiz-adv-x="423" 
d="M50 0v76h120v548h-120v76h323v-76h-120v-548h120v-76h-323zM179 770l-100 150h85l100 -150h-85z" />
    <glyph glyph-name="Iacute" unicode="&#xcd;" horiz-adv-x="423" 
d="M50 0v76h120v548h-120v76h323v-76h-120v-548h120v-76h-323zM159 770l100 150h85l-100 -150h-85z" />
    <glyph glyph-name="Icircumflex" unicode="&#xce;" horiz-adv-x="423" 
d="M50 0v76h120v548h-120v76h323v-76h-120v-548h120v-76h-323zM79 770l91 150h81l93 -150h-79l-36 67l-11 34q-2 8 -6 8t-6 -8l-11 -34l-37 -67h-79z" />
    <glyph glyph-name="Idieresis" unicode="&#xcf;" horiz-adv-x="423" 
d="M50 0v76h120v548h-120v76h323v-76h-120v-548h120v-76h-323zM257 770v100h81v-100h-81zM86 770v100h81v-100h-81z" />
    <glyph glyph-name="Eth" unicode="&#xd0;" horiz-adv-x="613" 
d="M0 315v69h291v-69h-291zM110 0v700h182q121 0 184 -62t72 -168q2 -27 3.5 -59t1.5 -61t-1.5 -61t-3.5 -59q-8 -106 -71.5 -168t-184.5 -62h-182zM190 72h102q88 0 128.5 47t46.5 120q3 34 3.5 58t0.5 53t-0.5 53t-3.5 58q-6 73 -46.5 120t-128.5 46h-102v-555z" />
    <glyph glyph-name="Ntilde" unicode="&#xd1;" horiz-adv-x="623" 
d="M90 0v700h68l293 -547q4 -7 9 -4.5t4 9.5l-11 67v475h80v-700h-80l-279 517q-4 9 -9.5 7t-4.5 -10l10 -65v-449h-80zM179 792l-18 54q17 26 39.5 37.5t47.5 11.5q33 0 53 -9.5t37 -19.5t39 -10q20 0 35 10t32 32l18 -54q-17 -26 -39 -37.5t-48 -11.5q-32 0 -52.5 10
t-37.5 19.5t-39 9.5q-19 0 -34.5 -10t-32.5 -32z" />
    <glyph glyph-name="Ograve" unicode="&#xd2;" horiz-adv-x="606" 
d="M303 -12q-54 0 -96.5 16t-72.5 47q-21 22 -38 55.5t-26.5 91.5t-9.5 152t9.5 152t26.5 92t38 55q30 31 72.5 47t96.5 16t96.5 -16t72.5 -47q22 -21 38.5 -55t26 -92t9.5 -152t-9.5 -152t-26 -91.5t-38.5 -55.5q-30 -31 -72.5 -47t-96.5 -16zM303 66q74 0 112.5 40
t42.5 108q3 44 4.5 74.5t1.5 61.5q0 32 -1.5 62.5t-4.5 73.5q-4 68 -42.5 108t-112.5 40t-112.5 -40t-42.5 -108q-3 -43 -4.5 -73.5t-1.5 -62.5q0 -31 1.5 -61.5t4.5 -74.5q4 -68 42.5 -108t112.5 -40zM270 770l-100 150h85l100 -150h-85z" />
    <glyph glyph-name="Oacute" unicode="&#xd3;" horiz-adv-x="606" 
d="M303 -12q-54 0 -96.5 16t-72.5 47q-21 22 -38 55.5t-26.5 91.5t-9.5 152t9.5 152t26.5 92t38 55q30 31 72.5 47t96.5 16t96.5 -16t72.5 -47q22 -21 38.5 -55t26 -92t9.5 -152t-9.5 -152t-26 -91.5t-38.5 -55.5q-30 -31 -72.5 -47t-96.5 -16zM303 66q74 0 112.5 40
t42.5 108q3 44 4.5 74.5t1.5 61.5q0 32 -1.5 62.5t-4.5 73.5q-4 68 -42.5 108t-112.5 40t-112.5 -40t-42.5 -108q-3 -43 -4.5 -73.5t-1.5 -62.5q0 -31 1.5 -61.5t4.5 -74.5q4 -68 42.5 -108t112.5 -40zM250 770l100 150h85l-100 -150h-85z" />
    <glyph glyph-name="Ocircumflex" unicode="&#xd4;" horiz-adv-x="606" 
d="M303 -12q-54 0 -96.5 16t-72.5 47q-21 22 -38 55.5t-26.5 91.5t-9.5 152t9.5 152t26.5 92t38 55q30 31 72.5 47t96.5 16t96.5 -16t72.5 -47q22 -21 38.5 -55t26 -92t9.5 -152t-9.5 -152t-26 -91.5t-38.5 -55.5q-30 -31 -72.5 -47t-96.5 -16zM303 66q74 0 112.5 40
t42.5 108q3 44 4.5 74.5t1.5 61.5q0 32 -1.5 62.5t-4.5 73.5q-4 68 -42.5 108t-112.5 40t-112.5 -40t-42.5 -108q-3 -43 -4.5 -73.5t-1.5 -62.5q0 -31 1.5 -61.5t4.5 -74.5q4 -68 42.5 -108t112.5 -40zM170 770l91 150h81l93 -150h-79l-36 67l-11 34q-2 8 -6 8t-6 -8
l-11 -34l-37 -67h-79z" />
    <glyph glyph-name="Otilde" unicode="&#xd5;" horiz-adv-x="606" 
d="M303 -12q-54 0 -96.5 16t-72.5 47q-21 22 -38 55.5t-26.5 91.5t-9.5 152t9.5 152t26.5 92t38 55q30 31 72.5 47t96.5 16t96.5 -16t72.5 -47q22 -21 38.5 -55t26 -92t9.5 -152t-9.5 -152t-26 -91.5t-38.5 -55.5q-30 -31 -72.5 -47t-96.5 -16zM303 66q74 0 112.5 40
t42.5 108q3 44 4.5 74.5t1.5 61.5q0 32 -1.5 62.5t-4.5 73.5q-4 68 -42.5 108t-112.5 40t-112.5 -40t-42.5 -108q-3 -43 -4.5 -73.5t-1.5 -62.5q0 -31 1.5 -61.5t4.5 -74.5q4 -68 42.5 -108t112.5 -40zM170 762l-18 54q17 26 39.5 37.5t47.5 11.5q33 0 53 -9.5t37 -19.5
t39 -10q20 0 35 10t32 32l18 -54q-17 -26 -39 -37.5t-48 -11.5q-32 0 -52.5 10t-37.5 19.5t-39 9.5q-19 0 -34.5 -10t-32.5 -32z" />
    <glyph glyph-name="Odieresis" unicode="&#xd6;" horiz-adv-x="606" 
d="M303 -12q-54 0 -96.5 16t-72.5 47q-21 22 -38 55.5t-26.5 91.5t-9.5 152t9.5 152t26.5 92t38 55q30 31 72.5 47t96.5 16t96.5 -16t72.5 -47q22 -21 38.5 -55t26 -92t9.5 -152t-9.5 -152t-26 -91.5t-38.5 -55.5q-30 -31 -72.5 -47t-96.5 -16zM303 66q74 0 112.5 40
t42.5 108q3 44 4.5 74.5t1.5 61.5q0 32 -1.5 62.5t-4.5 73.5q-4 68 -42.5 108t-112.5 40t-112.5 -40t-42.5 -108q-3 -43 -4.5 -73.5t-1.5 -62.5q0 -31 1.5 -61.5t4.5 -74.5q4 -68 42.5 -108t112.5 -40zM348 770v100h81v-100h-81zM177 770v100h81v-100h-81z" />
    <glyph glyph-name="multiply" unicode="&#xd7;" horiz-adv-x="528" 
d="M119 156l-49 49l145 145l-145 145l49 49l145 -145l145 145l49 -49l-145 -145l145 -145l-49 -49l-145 145z" />
    <glyph glyph-name="Oslash" unicode="&#xd8;" horiz-adv-x="606" 
d="M303 -12q-54 0 -96.5 16t-72.5 47q-21 22 -38 55.5t-26.5 91.5t-9.5 152t9.5 152t26.5 92t38 55q30 31 72.5 47t96.5 16t96.5 -16t72.5 -47q22 -21 38.5 -55t26 -92t9.5 -152t-9.5 -152t-26 -91.5t-38.5 -55.5q-30 -31 -72.5 -47t-96.5 -16zM303 66q74 0 112.5 40
t42.5 108q3 44 4.5 74.5t1.5 61.5q0 32 -1.5 62.5t-4.5 73.5q-4 68 -42.5 108t-112.5 40t-112.5 -40t-42.5 -108q-3 -43 -4.5 -73.5t-1.5 -62.5q0 -31 1.5 -61.5t4.5 -74.5q4 -68 42.5 -108t112.5 -40zM-10 0l545 700h80l-545 -700h-80z" />
    <glyph glyph-name="Ugrave" unicode="&#xd9;" horiz-adv-x="609" 
d="M304 -10q-65 0 -114.5 26.5t-77 74.5t-27.5 110v499h84l-1 -499q0 -60 37.5 -97.5t98.5 -37.5t98.5 37.5t37.5 97.5v499h84l-1 -499q0 -62 -27.5 -110t-77 -74.5t-114.5 -26.5zM272 770l-100 150h85l100 -150h-85z" />
    <glyph glyph-name="Uacute" unicode="&#xda;" horiz-adv-x="609" 
d="M304 -10q-65 0 -114.5 26.5t-77 74.5t-27.5 110v499h84l-1 -499q0 -60 37.5 -97.5t98.5 -37.5t98.5 37.5t37.5 97.5v499h84l-1 -499q0 -62 -27.5 -110t-77 -74.5t-114.5 -26.5zM252 770l100 150h85l-100 -150h-85z" />
    <glyph glyph-name="Ucircumflex" unicode="&#xdb;" horiz-adv-x="609" 
d="M304 -10q-65 0 -114.5 26.5t-77 74.5t-27.5 110v499h84l-1 -499q0 -60 37.5 -97.5t98.5 -37.5t98.5 37.5t37.5 97.5v499h84l-1 -499q0 -62 -27.5 -110t-77 -74.5t-114.5 -26.5zM172 770l91 150h81l93 -150h-79l-36 67l-11 34q-2 8 -6 8t-6 -8l-11 -34l-37 -67h-79z" />
    <glyph glyph-name="Udieresis" unicode="&#xdc;" horiz-adv-x="609" 
d="M304 -10q-65 0 -114.5 26.5t-77 74.5t-27.5 110v499h84l-1 -499q0 -60 37.5 -97.5t98.5 -37.5t98.5 37.5t37.5 97.5v499h84l-1 -499q0 -62 -27.5 -110t-77 -74.5t-114.5 -26.5zM350 770v100h81v-100h-81zM179 770v100h81v-100h-81z" />
    <glyph glyph-name="Yacute" unicode="&#xdd;" horiz-adv-x="482" 
d="M201 0v330l-201 370h94l127 -255l13 -41q2 -5 7.5 -5t6.5 5l13 41l127 255h94l-201 -370v-330h-80zM188 770l100 150h85l-100 -150h-85z" />
    <glyph glyph-name="Thorn" unicode="&#xde;" horiz-adv-x="553" 
d="M90 0v700h80v-145h160q89 0 141 -54t52 -144q0 -89 -52 -140.5t-141 -51.5h-160v-165h-80zM170 238h150q56 0 89 31.5t33 87.5q0 59 -33 93t-89 34h-150v-246z" />
    <glyph glyph-name="germandbls" unicode="&#xdf;" horiz-adv-x="652" 
d="M429 -12q-48 0 -92.5 15t-81.5 41l27 68q24 -17 47.5 -28.5t48 -17.5t51.5 -6q53 0 80 23t27 63q0 30 -22.5 50.5t-62.5 23.5l-55 4q-61 4 -101 37t-40 97q0 55 32.5 91.5t92.5 54.5l34 10q35 11 50 30.5t15 44.5q0 23 -15 44.5t-47.5 36t-84.5 14.5q-79 0 -124.5 -37
t-45.5 -102v-545h-77v542q0 55 25.5 103t80.5 78t142 30q77 0 126.5 -22.5t73.5 -58.5t24 -79q0 -47 -30 -86t-87 -58l-39 -13q-37 -12 -53.5 -29t-16.5 -46q0 -30 20.5 -46.5t53.5 -18.5l54 -4q74 -5 113.5 -44.5t39.5 -101.5q0 -67 -48 -112.5t-135 -45.5z" />
    <glyph glyph-name="agrave" unicode="&#xe0;" horiz-adv-x="491" 
d="M373 -12l-33 49q-6 9 -14 2q-24 -21 -50.5 -35.5t-70.5 -14.5q-71 0 -113 39t-42 102q0 45 19.5 76t55.5 47.5t84 16.5h117v72q0 43 -25 69t-79 26q-39 0 -70 -11.5t-63 -36.5l-25 70q38 29 77 41t86 12q89 0 132.5 -46t43.5 -115v-255l43 -64zM209 58q54 0 85.5 26
t31.5 69v45q0 19 -18 14l-55 -12h-38q-40 0 -62.5 -17.5t-22.5 -49.5q0 -33 21.5 -54t57.5 -21zM210 600l-100 150h85l100 -150h-85z" />
    <glyph glyph-name="aacute" unicode="&#xe1;" horiz-adv-x="491" 
d="M373 -12l-33 49q-6 9 -14 2q-24 -21 -50.5 -35.5t-70.5 -14.5q-71 0 -113 39t-42 102q0 45 19.5 76t55.5 47.5t84 16.5h117v72q0 43 -25 69t-79 26q-39 0 -70 -11.5t-63 -36.5l-25 70q38 29 77 41t86 12q89 0 132.5 -46t43.5 -115v-255l43 -64zM209 58q54 0 85.5 26
t31.5 69v45q0 19 -18 14l-55 -12h-38q-40 0 -62.5 -17.5t-22.5 -49.5q0 -33 21.5 -54t57.5 -21zM190 600l100 150h85l-100 -150h-85z" />
    <glyph glyph-name="acircumflex" unicode="&#xe2;" horiz-adv-x="491" 
d="M373 -12l-33 49q-6 9 -14 2q-24 -21 -50.5 -35.5t-70.5 -14.5q-71 0 -113 39t-42 102q0 45 19.5 76t55.5 47.5t84 16.5h117v72q0 43 -25 69t-79 26q-39 0 -70 -11.5t-63 -36.5l-25 70q38 29 77 41t86 12q89 0 132.5 -46t43.5 -115v-255l43 -64zM209 58q54 0 85.5 26
t31.5 69v45q0 19 -18 14l-55 -12h-38q-40 0 -62.5 -17.5t-22.5 -49.5q0 -33 21.5 -54t57.5 -21zM110 600l91 150h81l93 -150h-79l-36 67l-11 34q-2 8 -6 8t-6 -8l-11 -34l-37 -67h-79z" />
    <glyph glyph-name="atilde" unicode="&#xe3;" horiz-adv-x="491" 
d="M373 -12l-33 49q-6 9 -14 2q-24 -21 -50.5 -35.5t-70.5 -14.5q-71 0 -113 39t-42 102q0 45 19.5 76t55.5 47.5t84 16.5h117v72q0 43 -25 69t-79 26q-39 0 -70 -11.5t-63 -36.5l-25 70q38 29 77 41t86 12q89 0 132.5 -46t43.5 -115v-255l43 -64zM209 58q54 0 85.5 26
t31.5 69v45q0 19 -18 14l-55 -12h-38q-40 0 -62.5 -17.5t-22.5 -49.5q0 -33 21.5 -54t57.5 -21zM110 592l-18 54q17 26 39.5 37.5t47.5 11.5q33 0 53 -9.5t37 -19.5t39 -10q20 0 35 10t32 32l18 -54q-17 -26 -39 -37.5t-48 -11.5q-32 0 -52.5 10t-37.5 19.5t-39 9.5
q-19 0 -34.5 -10t-32.5 -32z" />
    <glyph glyph-name="adieresis" unicode="&#xe4;" horiz-adv-x="491" 
d="M373 -12l-33 49q-6 9 -14 2q-24 -21 -50.5 -35.5t-70.5 -14.5q-71 0 -113 39t-42 102q0 45 19.5 76t55.5 47.5t84 16.5h117v72q0 43 -25 69t-79 26q-39 0 -70 -11.5t-63 -36.5l-25 70q38 29 77 41t86 12q89 0 132.5 -46t43.5 -115v-255l43 -64zM209 58q54 0 85.5 26
t31.5 69v45q0 19 -18 14l-55 -12h-38q-40 0 -62.5 -17.5t-22.5 -49.5q0 -33 21.5 -54t57.5 -21zM288 600v100h81v-100h-81zM117 600v100h81v-100h-81z" />
    <glyph glyph-name="aring" unicode="&#xe5;" horiz-adv-x="491" 
d="M373 -12l-33 49q-6 9 -14 2q-24 -21 -50.5 -35.5t-70.5 -14.5q-71 0 -113 39t-42 102q0 45 19.5 76t55.5 47.5t84 16.5h117v72q0 43 -25 69t-79 26q-39 0 -70 -11.5t-63 -36.5l-25 70q38 29 77 41t86 12q89 0 132.5 -46t43.5 -115v-255l43 -64zM209 58q54 0 85.5 26
t31.5 69v45q0 19 -18 14l-55 -12h-38q-40 0 -62.5 -17.5t-22.5 -49.5q0 -33 21.5 -54t57.5 -21zM244 571q-35 0 -66.5 9.5t-50.5 32t-19 61.5q0 40 20 62t51.5 31t64.5 9t64 -9t50.5 -31t19.5 -62t-19.5 -62.5t-50.5 -31.5t-64 -9zM242 622q33 0 56 9.5t23 42.5
q0 32 -23 41.5t-56 9.5q-34 0 -55.5 -9.5t-21.5 -41.5q0 -33 23 -42.5t54 -9.5z" />
    <glyph glyph-name="ae" unicode="&#xe6;" horiz-adv-x="753" 
d="M205 -11q-71 0 -113 39t-42 102q0 45 19.5 76t55.5 47.5t84 16.5h117v72q0 43 -25 69t-79 26q-39 0 -70 -11.5t-63 -36.5l-25 70q38 29 77 41t86 12q41 0 70.5 -10.5t51.5 -30.5l20 -26q8 -10 15 0l20 26q23 17 52 28t66 11q61 0 98 -22t56 -57t25.5 -74t6.5 -72l-20 -53
l-284 1q0 -83 25.5 -129t101.5 -46q38 0 72.5 12t62.5 34l24 -61q-41 -29 -75 -41t-84 -12q-48 0 -84 14t-61 39l-12 21q-7 12 -14 0l-11 -21q-34 -30 -71.5 -42t-72.5 -12zM209 58q54 0 85.5 26t31.5 69v45q0 19 -18 14l-55 -12h-38q-40 0 -62.5 -17.5t-22.5 -49.5
q0 -33 21.5 -54t57.5 -21zM405 302h227q0 34 -8.5 65.5t-32.5 52t-69 20.5q-57 0 -87 -38t-30 -100z" />
    <glyph glyph-name="ccedilla" unicode="&#xe7;" horiz-adv-x="441" 
d="M255 -14q-87 0 -136 49.5t-58 124.5q-6 50 -6 89q0 21 1.5 42.5t4.5 46.5q9 75 58 124.5t136 49.5q44 0 76 -11t65 -33l-24 -65q-28 18 -55 27.5t-61 9.5q-55 0 -85.5 -31.5t-33.5 -75.5q-3 -47 -3.5 -84.5t3.5 -83.5q4 -43 34 -75t85 -32q33 0 63.5 9t58.5 27l23 -60
q-38 -25 -71.5 -36.5t-74.5 -11.5zM150 -250l17 62q59 0 92 13.5t33 36.5q0 21 -26 27.5t-81 6.5l31 126l60 -22l-13 -51q44 -5 70.5 -27.5t26.5 -56.5q0 -37 -29.5 -62.5t-77.5 -39t-103 -13.5z" />
    <glyph glyph-name="egrave" unicode="&#xe8;" horiz-adv-x="481" 
d="M259 -10q-61 0 -103 22.5t-65.5 61.5t-29.5 88q-3 24 -4.5 45t-1.5 42q0 40 6 89q8 74 56.5 123t132.5 49q61 0 98 -22t56 -57t25.5 -74t6.5 -72l-20 -53l-302 1v69h246q0 34 -8.5 65.5t-32.5 52t-69 20.5q-53 0 -82 -32.5t-33 -74.5q-2 -25 -3.5 -68.5t4.5 -98.5
q5 -43 33.5 -75.5t89.5 -32.5q38 0 72.5 12t62.5 34l24 -61q-41 -29 -75 -41t-84 -12zM216 600l-100 150h85l100 -150h-85z" />
    <glyph glyph-name="eacute" unicode="&#xe9;" horiz-adv-x="481" 
d="M259 -10q-61 0 -103 22.5t-65.5 61.5t-29.5 88q-3 24 -4.5 45t-1.5 42q0 40 6 89q8 74 56.5 123t132.5 49q61 0 98 -22t56 -57t25.5 -74t6.5 -72l-20 -53l-302 1v69h246q0 34 -8.5 65.5t-32.5 52t-69 20.5q-53 0 -82 -32.5t-33 -74.5q-2 -25 -3.5 -68.5t4.5 -98.5
q5 -43 33.5 -75.5t89.5 -32.5q38 0 72.5 12t62.5 34l24 -61q-41 -29 -75 -41t-84 -12zM196 600l100 150h85l-100 -150h-85z" />
    <glyph glyph-name="ecircumflex" unicode="&#xea;" horiz-adv-x="481" 
d="M259 -10q-61 0 -103 22.5t-65.5 61.5t-29.5 88q-3 24 -4.5 45t-1.5 42q0 40 6 89q8 74 56.5 123t132.5 49q61 0 98 -22t56 -57t25.5 -74t6.5 -72l-20 -53l-302 1v69h246q0 34 -8.5 65.5t-32.5 52t-69 20.5q-53 0 -82 -32.5t-33 -74.5q-2 -25 -3.5 -68.5t4.5 -98.5
q5 -43 33.5 -75.5t89.5 -32.5q38 0 72.5 12t62.5 34l24 -61q-41 -29 -75 -41t-84 -12zM116 600l91 150h81l93 -150h-79l-36 67l-11 34q-2 8 -6 8t-6 -8l-11 -34l-37 -67h-79z" />
    <glyph glyph-name="edieresis" unicode="&#xeb;" horiz-adv-x="481" 
d="M259 -10q-61 0 -103 22.5t-65.5 61.5t-29.5 88q-3 24 -4.5 45t-1.5 42q0 40 6 89q8 74 56.5 123t132.5 49q61 0 98 -22t56 -57t25.5 -74t6.5 -72l-20 -53l-302 1v69h246q0 34 -8.5 65.5t-32.5 52t-69 20.5q-53 0 -82 -32.5t-33 -74.5q-2 -25 -3.5 -68.5t4.5 -98.5
q5 -43 33.5 -75.5t89.5 -32.5q38 0 72.5 12t62.5 34l24 -61q-41 -29 -75 -41t-84 -12zM294 600v100h81v-100h-81zM123 600v100h81v-100h-81z" />
    <glyph glyph-name="igrave" unicode="&#xec;" horiz-adv-x="285" 
d="M120 0v430h-70v70h150v-500h-80zM112 600l-100 150h85l100 -150h-85z" />
    <glyph glyph-name="iacute" unicode="&#xed;" horiz-adv-x="285" 
d="M120 0v430h-70v70h150v-500h-80zM92 600l100 150h85l-100 -150h-85z" />
    <glyph glyph-name="icircumflex" unicode="&#xee;" horiz-adv-x="290" 
d="M35 600l72 150h81l72 -150h-72l-28 67l-8 34q-1 8 -4 8t-5 -8l-9 -34l-27 -67h-72zM120 0v430h-70v70h150v-500h-80z" />
    <glyph glyph-name="idieresis" unicode="&#xef;" horiz-adv-x="290" 
d="M180 600v100h81v-100h-81zM30 600v100h81v-100h-81zM120 0v430h-70v70h150v-500h-80z" />
    <glyph glyph-name="eth" unicode="&#xf0;" horiz-adv-x="557" 
d="M187 496l-38 49l225 155l35 -49zM278 -12q-67 0 -118.5 28.5t-80.5 79t-29 116.5q0 78 32 126.5t80 71t97 22.5q10 0 19.5 -1t19.5 -3l43 -25q11 -6 15 0t-3 16l-190 281h100l151 -248q34 -56 54.5 -96t29.5 -73.5t9 -70.5q0 -66 -29 -116.5t-80.5 -79t-119.5 -28.5z
M278 65q66 0 107.5 41t41.5 106q0 66 -41.5 107t-107.5 41t-107 -41t-41 -107q0 -65 41 -106t107 -41z" />
    <glyph glyph-name="ntilde" unicode="&#xf1;" horiz-adv-x="537" 
d="M85 0v500h80v-29q20 16 52.5 28.5t72.5 12.5q52 0 89.5 -19.5t57.5 -54.5t20 -81v-357h-80v348q0 42 -26.5 67t-78.5 25q-51 0 -79 -25t-28 -67v-348h-80zM133 592l-18 54q17 26 39.5 37.5t47.5 11.5q33 0 53 -9.5t37 -19.5t39 -10q20 0 35 10t32 32l18 -54
q-17 -26 -39 -37.5t-48 -11.5q-32 0 -52.5 10t-37.5 19.5t-39 9.5q-19 0 -34.5 -10t-32.5 -32z" />
    <glyph glyph-name="ograve" unicode="&#xf2;" horiz-adv-x="510" 
d="M255 -11q-87 0 -136 49.5t-58 123.5q-6 48 -6 87q0 21 1.5 42.5t4.5 46.5q9 75 58 124t136 49t136 -49t58 -124q6 -49 6 -89q0 -39 -6 -87q-9 -74 -58 -123.5t-136 -49.5zM255 58q55 0 84 32t33 75q4 45 4 83.5t-4 84.5q-4 44 -33 75.5t-84 31.5t-85 -31.5t-33 -75.5
q-3 -46 -3 -84.5t4 -83.5q5 -43 33.5 -75t83.5 -32zM222 600l-100 150h85l100 -150h-85z" />
    <glyph glyph-name="oacute" unicode="&#xf3;" horiz-adv-x="510" 
d="M255 -11q-87 0 -136 49.5t-58 123.5q-6 48 -6 87q0 21 1.5 42.5t4.5 46.5q9 75 58 124t136 49t136 -49t58 -124q6 -49 6 -89q0 -39 -6 -87q-9 -74 -58 -123.5t-136 -49.5zM255 58q55 0 84 32t33 75q4 45 4 83.5t-4 84.5q-4 44 -33 75.5t-84 31.5t-85 -31.5t-33 -75.5
q-3 -46 -3 -84.5t4 -83.5q5 -43 33.5 -75t83.5 -32zM202 600l100 150h85l-100 -150h-85z" />
    <glyph glyph-name="ocircumflex" unicode="&#xf4;" horiz-adv-x="510" 
d="M255 -11q-87 0 -136 49.5t-58 123.5q-6 48 -6 87q0 21 1.5 42.5t4.5 46.5q9 75 58 124t136 49t136 -49t58 -124q6 -49 6 -89q0 -39 -6 -87q-9 -74 -58 -123.5t-136 -49.5zM255 58q55 0 84 32t33 75q4 45 4 83.5t-4 84.5q-4 44 -33 75.5t-84 31.5t-85 -31.5t-33 -75.5
q-3 -46 -3 -84.5t4 -83.5q5 -43 33.5 -75t83.5 -32zM122 600l91 150h81l93 -150h-79l-36 67l-11 34q-2 8 -6 8t-6 -8l-11 -34l-37 -67h-79z" />
    <glyph glyph-name="otilde" unicode="&#xf5;" horiz-adv-x="510" 
d="M255 -11q-87 0 -136 49.5t-58 123.5q-6 48 -6 87q0 21 1.5 42.5t4.5 46.5q9 75 58 124t136 49t136 -49t58 -124q6 -49 6 -89q0 -39 -6 -87q-9 -74 -58 -123.5t-136 -49.5zM255 58q55 0 84 32t33 75q4 45 4 83.5t-4 84.5q-4 44 -33 75.5t-84 31.5t-85 -31.5t-33 -75.5
q-3 -46 -3 -84.5t4 -83.5q5 -43 33.5 -75t83.5 -32zM122 592l-18 54q17 26 39.5 37.5t47.5 11.5q33 0 53 -9.5t37 -19.5t39 -10q20 0 35 10t32 32l18 -54q-17 -26 -39 -37.5t-48 -11.5q-32 0 -52.5 10t-37.5 19.5t-39 9.5q-19 0 -34.5 -10t-32.5 -32z" />
    <glyph glyph-name="odieresis" unicode="&#xf6;" horiz-adv-x="510" 
d="M255 -11q-87 0 -136 49.5t-58 123.5q-6 48 -6 87q0 21 1.5 42.5t4.5 46.5q9 75 58 124t136 49t136 -49t58 -124q6 -49 6 -89q0 -39 -6 -87q-9 -74 -58 -123.5t-136 -49.5zM255 58q55 0 84 32t33 75q4 45 4 83.5t-4 84.5q-4 44 -33 75.5t-84 31.5t-85 -31.5t-33 -75.5
q-3 -46 -3 -84.5t4 -83.5q5 -43 33.5 -75t83.5 -32zM300 600v100h81v-100h-81zM129 600v100h81v-100h-81z" />
    <glyph glyph-name="divide" unicode="&#xf7;" horiz-adv-x="580" 
d="M50 315v70h480v-70h-480zM248 100v100h85v-100h-85zM248 500v100h85v-100h-85z" />
    <glyph glyph-name="oslash" unicode="&#xf8;" horiz-adv-x="510" 
d="M255 -11q-87 0 -136 49.5t-58 123.5q-6 48 -6 87q0 21 1.5 42.5t4.5 46.5q9 75 58 124t136 49t136 -49t58 -124q6 -49 6 -89q0 -39 -6 -87q-9 -74 -58 -123.5t-136 -49.5zM255 58q55 0 84 32t33 75q4 45 4 83.5t-4 84.5q-4 44 -33 75.5t-84 31.5t-85 -31.5t-33 -75.5
q-3 -46 -3 -84.5t4 -83.5q5 -43 33.5 -75t83.5 -32zM20 0l389 500h80l-389 -500h-80z" />
    <glyph glyph-name="ugrave" unicode="&#xf9;" horiz-adv-x="527" 
d="M233 -12q-51 0 -87.5 19t-56 54t-19.5 82v357h80v-348q0 -42 26.5 -67t78.5 -25q51 0 79 25t28 67v348h80v-500h-80v18q0 10 -6 12t-14 -3l-51 -32q-22 -7 -58 -7zM231 600l-100 150h85l100 -150h-85z" />
    <glyph glyph-name="uacute" unicode="&#xfa;" horiz-adv-x="527" 
d="M233 -12q-51 0 -87.5 19t-56 54t-19.5 82v357h80v-348q0 -42 26.5 -67t78.5 -25q51 0 79 25t28 67v348h80v-500h-80v18q0 10 -6 12t-14 -3l-51 -32q-22 -7 -58 -7zM211 600l100 150h85l-100 -150h-85z" />
    <glyph glyph-name="ucircumflex" unicode="&#xfb;" horiz-adv-x="527" 
d="M233 -12q-51 0 -87.5 19t-56 54t-19.5 82v357h80v-348q0 -42 26.5 -67t78.5 -25q51 0 79 25t28 67v348h80v-500h-80v18q0 10 -6 12t-14 -3l-51 -32q-22 -7 -58 -7zM131 600l91 150h81l93 -150h-79l-36 67l-11 34q-2 8 -6 8t-6 -8l-11 -34l-37 -67h-79z" />
    <glyph glyph-name="udieresis" unicode="&#xfc;" horiz-adv-x="527" 
d="M233 -12q-51 0 -87.5 19t-56 54t-19.5 82v357h80v-348q0 -42 26.5 -67t78.5 -25q51 0 79 25t28 67v348h80v-500h-80v18q0 10 -6 12t-14 -3l-51 -32q-22 -7 -58 -7zM309 600v100h81v-100h-81zM138 600v100h81v-100h-81z" />
    <glyph glyph-name="yacute" unicode="&#xfd;" horiz-adv-x="469" 
d="M101 -220l-29 72q52 15 76 49t39 83l13 43l-180 473h84l120 -315l9 -54q2 -8 7.5 -8t6.5 8l12 54l97 315h83l-177 -548q-20 -62 -60 -106t-101 -66zM182 600l100 150h85l-100 -150h-85z" />
    <glyph glyph-name="thorn" unicode="&#xfe;" horiz-adv-x="529" 
d="M85 -200v900h80v-228q20 17 52 27.5t67 10.5q87 0 133 -47.5t53 -123.5q2 -25 3 -46t1 -42q0 -20 -1 -41.5t-3 -47.5q-7 -76 -53 -124t-133 -48q-17 0 -26.5 1.5t-21.5 3.5l-50 32q-8 5 -14.5 1.5t-6.5 -12.5v-216h-80zM275 58q60 0 86.5 32t30.5 77q3 41 3.5 83t-3.5 83
q-4 45 -30.5 76t-86.5 31q-52 0 -81 -23.5t-29 -64.5v-204q0 -40 29 -65t81 -25z" />
    <glyph glyph-name="ydieresis" unicode="&#xff;" horiz-adv-x="469" 
d="M101 -220l-29 72q52 15 76 49t39 83l13 43l-180 473h84l120 -315l9 -54q2 -8 7.5 -8t6.5 8l12 54l97 315h83l-177 -548q-20 -62 -60 -106t-101 -66zM280 600v100h81v-100h-81zM109 600v100h81v-100h-81z" />
    <glyph glyph-name="Amacron" unicode="&#x100;" 
d="M30 0l197 700h120l199 -700h-85l-158 574l-8 53q-1 6 -6.5 6t-6.5 -6l-9 -53l-158 -574h-85zM138 187l22 74h256l22 -74h-300zM113 627v73h141v-73h-141zM158 780v60h250v-60h-250z" />
    <glyph glyph-name="amacron" unicode="&#x101;" horiz-adv-x="491" 
d="M373 -12l-33 49q-6 9 -14 2q-24 -21 -50.5 -35.5t-70.5 -14.5q-71 0 -113 39t-42 102q0 45 19.5 76t55.5 47.5t84 16.5h117v72q0 43 -25 69t-79 26q-39 0 -70 -11.5t-63 -36.5l-25 70q38 29 77 41t86 12q89 0 132.5 -46t43.5 -115v-255l43 -64zM209 58q54 0 85.5 26
t31.5 69v45q0 19 -18 14l-55 -12h-38q-40 0 -62.5 -17.5t-22.5 -49.5q0 -33 21.5 -54t57.5 -21zM118 610v60h250v-60h-250z" />
    <glyph glyph-name="Abreve" unicode="&#x102;" 
d="M30 0l197 700h120l199 -700h-85l-158 574l-8 53q-1 6 -6.5 6t-6.5 -6l-9 -53l-158 -574h-85zM138 187l22 74h256l22 -74h-300zM113 627v73h141v-73h-141zM283 777q-53 0 -96.5 28t-57.5 86l60 17q12 -34 34.5 -53t59.5 -19q38 0 60 19t34 53l60 -17q-13 -58 -57 -86
t-97 -28z" />
    <glyph glyph-name="abreve" unicode="&#x103;" horiz-adv-x="491" 
d="M373 -12l-33 49q-6 9 -14 2q-24 -21 -50.5 -35.5t-70.5 -14.5q-71 0 -113 39t-42 102q0 45 19.5 76t55.5 47.5t84 16.5h117v72q0 43 -25 69t-79 26q-39 0 -70 -11.5t-63 -36.5l-25 70q38 29 77 41t86 12q89 0 132.5 -46t43.5 -115v-255l43 -64zM209 58q54 0 85.5 26
t31.5 69v45q0 19 -18 14l-55 -12h-38q-40 0 -62.5 -17.5t-22.5 -49.5q0 -33 21.5 -54t57.5 -21zM243 607q-53 0 -96.5 28t-57.5 86l60 17q12 -34 34.5 -53t59.5 -19q38 0 60 19t34 53l60 -17q-13 -58 -57 -86t-97 -28z" />
    <glyph glyph-name="Aogonek" unicode="&#x104;" 
d="M30 0l197 700h120l199 -700h-85l-158 574l-8 53q-1 6 -6.5 6t-6.5 -6l-9 -53l-158 -574h-85zM138 187l22 74h256l22 -74h-300zM113 627v73h141v-73h-141zM575 -248q-50 5 -86 22.5t-55 50t-19 79.5q0 36 16.5 66.5t48.5 49.5l66 -20q-26 -15 -42 -38.5t-16 -53.5
q0 -47 27 -66.5t74 -27.5z" />
    <glyph glyph-name="aogonek" unicode="&#x105;" horiz-adv-x="491" 
d="M373 -12l-33 49q-6 9 -14 2q-24 -21 -50.5 -35.5t-70.5 -14.5q-71 0 -113 39t-42 102q0 45 19.5 76t55.5 47.5t84 16.5h117v72q0 43 -25 69t-79 26q-39 0 -70 -11.5t-63 -36.5l-25 70q38 29 77 41t86 12q89 0 132.5 -46t43.5 -115v-255l43 -64zM209 58q54 0 85.5 26
t31.5 69v45q0 19 -18 14l-55 -12h-38q-40 0 -62.5 -17.5t-22.5 -49.5q0 -33 21.5 -54t57.5 -21zM470 -220q-50 5 -86 22.5t-55 50t-19 79.5q0 36 16.5 66.5t48.5 49.5l66 -20q-26 -15 -42 -38.5t-16 -53.5q0 -47 27 -66.5t74 -27.5z" />
    <glyph glyph-name="Cacute" unicode="&#x106;" horiz-adv-x="503" 
d="M303 -12q-70 0 -121 25t-80.5 75.5t-35.5 125.5q-2 29 -4 67t-2 69q0 32 2 69.5t4 66.5q6 76 35.5 126t80.5 75t121 25q43 0 84 -15.5t76 -45.5l-25 -70q-30 26 -64 39.5t-71 13.5q-72 0 -111.5 -40t-44.5 -118q-2 -36 -3.5 -65t-1.5 -61q0 -31 1.5 -60.5t3.5 -65.5
q5 -78 44.5 -118t111.5 -40q37 0 71 13.5t64 39.5l25 -70q-35 -30 -76 -45.5t-84 -15.5zM249 770l100 150h85l-100 -150h-85z" />
    <glyph glyph-name="cacute" unicode="&#x107;" horiz-adv-x="441" 
d="M255 -14q-87 0 -136 49.5t-58 124.5q-6 50 -6 89q0 21 1.5 42.5t4.5 46.5q9 75 58 124.5t136 49.5q44 0 76 -11t65 -33l-24 -65q-28 18 -55 27.5t-61 9.5q-55 0 -85.5 -31.5t-33.5 -75.5q-3 -47 -3.5 -84.5t3.5 -83.5q4 -43 34 -75t85 -32q33 0 63.5 9t58.5 27l23 -60
q-38 -25 -71.5 -36.5t-74.5 -11.5zM202 600l100 150h85l-100 -150h-85z" />
    <glyph glyph-name="Cdotaccent" unicode="&#x10a;" horiz-adv-x="503" 
d="M303 -12q-70 0 -121 25t-80.5 75.5t-35.5 125.5q-2 29 -4 67t-2 69q0 32 2 69.5t4 66.5q6 76 35.5 126t80.5 75t121 25q43 0 84 -15.5t76 -45.5l-25 -70q-30 26 -64 39.5t-71 13.5q-72 0 -111.5 -40t-44.5 -118q-2 -36 -3.5 -65t-1.5 -61q0 -31 1.5 -60.5t3.5 -65.5
q5 -78 44.5 -118t111.5 -40q37 0 71 13.5t64 39.5l25 -70q-35 -30 -76 -45.5t-84 -15.5zM262 770v100h80v-100h-80z" />
    <glyph glyph-name="cdotaccent" unicode="&#x10b;" horiz-adv-x="441" 
d="M255 -14q-87 0 -136 49.5t-58 124.5q-6 50 -6 89q0 21 1.5 42.5t4.5 46.5q9 75 58 124.5t136 49.5q44 0 76 -11t65 -33l-24 -65q-28 18 -55 27.5t-61 9.5q-55 0 -85.5 -31.5t-33.5 -75.5q-3 -47 -3.5 -84.5t3.5 -83.5q4 -43 34 -75t85 -32q33 0 63.5 9t58.5 27l23 -60
q-38 -25 -71.5 -36.5t-74.5 -11.5zM215 600v100h80v-100h-80z" />
    <glyph glyph-name="Ccaron" unicode="&#x10c;" horiz-adv-x="503" 
d="M303 -12q-70 0 -121 25t-80.5 75.5t-35.5 125.5q-2 29 -4 67t-2 69q0 32 2 69.5t4 66.5q6 76 35.5 126t80.5 75t121 25q43 0 84 -15.5t76 -45.5l-25 -70q-30 26 -64 39.5t-71 13.5q-72 0 -111.5 -40t-44.5 -118q-2 -36 -3.5 -65t-1.5 -61q0 -31 1.5 -60.5t3.5 -65.5
q5 -78 44.5 -118t111.5 -40q37 0 71 13.5t64 39.5l25 -70q-35 -30 -76 -45.5t-84 -15.5zM264 770l-95 150h75l41 -67l11 -34q2 -7 6 -7t6 7l11 34l40 67h75l-95 -150h-75z" />
    <glyph glyph-name="ccaron" unicode="&#x10d;" horiz-adv-x="441" 
d="M255 -14q-87 0 -136 49.5t-58 124.5q-6 50 -6 89q0 21 1.5 42.5t4.5 46.5q9 75 58 124.5t136 49.5q44 0 76 -11t65 -33l-24 -65q-28 18 -55 27.5t-61 9.5q-55 0 -85.5 -31.5t-33.5 -75.5q-3 -47 -3.5 -84.5t3.5 -83.5q4 -43 34 -75t85 -32q33 0 63.5 9t58.5 27l23 -60
q-38 -25 -71.5 -36.5t-74.5 -11.5zM217 600l-95 150h75l41 -67l11 -34q2 -7 6 -7t6 7l11 34l40 67h75l-95 -150h-75z" />
    <glyph glyph-name="Dcaron" unicode="&#x10e;" horiz-adv-x="593" 
d="M90 0v700h182q121 0 184 -62t72 -168q2 -27 3.5 -59t1.5 -61t-1.5 -61t-3.5 -59q-8 -106 -71.5 -168t-184.5 -62h-182zM170 72h102q88 0 128.5 47t46.5 120q3 34 3.5 58t0.5 53t-0.5 53t-3.5 58q-6 73 -46.5 120t-128.5 46h-102v-555zM259 770l-95 150h75l41 -67l11 -34
q2 -7 6 -7t6 7l11 34l40 67h75l-95 -150h-75z" />
    <glyph glyph-name="dcaron" unicode="&#x10f;" horiz-adv-x="529" 
d="M245 -10q-87 0 -133 48t-53 124q-2 26 -3 47.5t-1 41.5q0 21 1 42t3 46q7 76 53 123.5t133 47.5q35 0 67.5 -10.5t51.5 -27.5v278h80v-750h-80v18q0 9 -6.5 11.5t-14.5 -2.5l-50 -31q-12 -3 -21.5 -4.5t-26.5 -1.5zM254 58q53 0 81.5 25t28.5 65v204q0 41 -28.5 64.5
t-81.5 23.5q-60 0 -86 -31t-31 -76q-4 -41 -3.5 -83t3.5 -83q4 -45 30.5 -77t86.5 -32zM564 750h75l-95 -150h-62z" />
    <glyph glyph-name="Dcroat" unicode="&#x110;" horiz-adv-x="613" 
d="M0 315v69h291v-69h-291zM110 0v700h182q121 0 184 -62t72 -168q2 -27 3.5 -59t1.5 -61t-1.5 -61t-3.5 -59q-8 -106 -71.5 -168t-184.5 -62h-182zM190 72h102q88 0 128.5 47t46.5 120q3 34 3.5 58t0.5 53t-0.5 53t-3.5 58q-6 73 -46.5 120t-128.5 46h-102v-555z" />
    <glyph glyph-name="dcroat" unicode="&#x111;" horiz-adv-x="529" 
d="M245 -10q-87 0 -133 48t-53 124q-2 26 -3 47.5t-1 41.5q0 21 1 42t3 46q7 76 53 123.5t133 47.5q35 0 67.5 -10.5t51.5 -27.5v278h80v-750h-80v18q0 9 -6.5 11.5t-14.5 -2.5l-50 -31q-12 -3 -21.5 -4.5t-26.5 -1.5zM254 58q53 0 81.5 25t28.5 65v204q0 41 -28.5 64.5
t-81.5 23.5q-60 0 -86 -31t-31 -76q-4 -41 -3.5 -83t3.5 -83q4 -45 30.5 -77t86.5 -32zM258 576v69h291v-69h-291z" />
    <glyph glyph-name="Emacron" unicode="&#x112;" horiz-adv-x="553" 
d="M90 0v700h403v-78h-325v-233h308v-78h-308v-233h325v-78h-403zM172 780v60h250v-60h-250z" />
    <glyph glyph-name="emacron" unicode="&#x113;" horiz-adv-x="481" 
d="M259 -10q-61 0 -103 22.5t-65.5 61.5t-29.5 88q-3 24 -4.5 45t-1.5 42q0 40 6 89q8 74 56.5 123t132.5 49q61 0 98 -22t56 -57t25.5 -74t6.5 -72l-20 -53l-302 1v69h246q0 34 -8.5 65.5t-32.5 52t-69 20.5q-53 0 -82 -32.5t-33 -74.5q-2 -25 -3.5 -68.5t4.5 -98.5
q5 -43 33.5 -75.5t89.5 -32.5q38 0 72.5 12t62.5 34l24 -61q-41 -29 -75 -41t-84 -12zM124 610v60h250v-60h-250z" />
    <glyph glyph-name="Edotaccent" unicode="&#x116;" horiz-adv-x="553" 
d="M90 0v700h403v-78h-325v-233h308v-78h-308v-233h325v-78h-403zM257 770v100h80v-100h-80z" />
    <glyph glyph-name="edotaccent" unicode="&#x117;" horiz-adv-x="481" 
d="M259 -10q-61 0 -103 22.5t-65.5 61.5t-29.5 88q-3 24 -4.5 45t-1.5 42q0 40 6 89q8 74 56.5 123t132.5 49q61 0 98 -22t56 -57t25.5 -74t6.5 -72l-20 -53l-302 1v69h246q0 34 -8.5 65.5t-32.5 52t-69 20.5q-53 0 -82 -32.5t-33 -74.5q-2 -25 -3.5 -68.5t4.5 -98.5
q5 -43 33.5 -75.5t89.5 -32.5q38 0 72.5 12t62.5 34l24 -61q-41 -29 -75 -41t-84 -12zM209 600v100h80v-100h-80z" />
    <glyph glyph-name="Eogonek" unicode="&#x118;" horiz-adv-x="553" 
d="M90 0v700h403v-78h-325v-233h308v-78h-308v-233h325v-78h-403zM522 -248q-50 5 -86 22.5t-55 50t-19 79.5q0 36 16.5 66.5t48.5 49.5l66 -20q-26 -15 -42 -38.5t-16 -53.5q0 -47 27 -66.5t74 -27.5z" />
    <glyph glyph-name="eogonek" unicode="&#x119;" horiz-adv-x="481" 
d="M259 -10q-61 0 -103 22.5t-65.5 61.5t-29.5 88q-3 24 -4.5 45t-1.5 42q0 40 6 89q8 74 56.5 123t132.5 49q61 0 98 -22t56 -57t25.5 -74t6.5 -72l-20 -53l-302 1v69h246q0 34 -8.5 65.5t-32.5 52t-69 20.5q-53 0 -82 -32.5t-33 -74.5q-2 -25 -3.5 -68.5t4.5 -98.5
q5 -43 33.5 -75.5t89.5 -32.5q38 0 72.5 12t62.5 34l24 -61q-41 -29 -75 -41t-84 -12zM391 -238q-50 5 -86 22.5t-55 50t-19 79.5q0 36 16.5 66.5t48.5 49.5l66 -20q-26 -15 -42 -38.5t-16 -53.5q0 -47 27 -66.5t74 -27.5z" />
    <glyph glyph-name="Ecaron" unicode="&#x11a;" horiz-adv-x="553" 
d="M90 0v700h403v-78h-325v-233h308v-78h-308v-233h325v-78h-403zM259 770l-95 150h75l41 -67l11 -34q2 -7 6 -7t6 7l11 34l40 67h75l-95 -150h-75z" />
    <glyph glyph-name="ecaron" unicode="&#x11b;" horiz-adv-x="481" 
d="M259 -10q-61 0 -103 22.5t-65.5 61.5t-29.5 88q-3 24 -4.5 45t-1.5 42q0 40 6 89q8 74 56.5 123t132.5 49q61 0 98 -22t56 -57t25.5 -74t6.5 -72l-20 -53l-302 1v69h246q0 34 -8.5 65.5t-32.5 52t-69 20.5q-53 0 -82 -32.5t-33 -74.5q-2 -25 -3.5 -68.5t4.5 -98.5
q5 -43 33.5 -75.5t89.5 -32.5q38 0 72.5 12t62.5 34l24 -61q-41 -29 -75 -41t-84 -12zM211 600l-95 150h75l41 -67l11 -34q2 -7 6 -7t6 7l11 34l40 67h75l-95 -150h-75z" />
    <glyph glyph-name="Gbreve" unicode="&#x11e;" horiz-adv-x="600" 
d="M315 -12q-111 0 -175 58.5t-74 167.5q-2 29 -4 67t-2 69q0 32 1.5 69.5t3.5 66.5q11 116 77 171t177 55q106 0 175 -61l-26 -71q-34 29 -68 41.5t-81 12.5q-78 0 -122.5 -38.5t-49.5 -119.5q-2 -36 -3.5 -65t-1.5 -61q0 -31 1.5 -60.5t3.5 -65.5q5 -73 47.5 -115.5
t120.5 -42.5q28 0 56.5 4.5t41.5 13.5v227h-81v78h238v-78h-74v-269q-37 -26 -79 -40t-102 -14zM300 777q-53 0 -96.5 28t-57.5 86l60 17q12 -34 34.5 -53t59.5 -19q38 0 60 19t34 53l60 -17q-13 -58 -57 -86t-97 -28z" />
    <glyph glyph-name="gbreve" unicode="&#x11f;" horiz-adv-x="524" 
d="M243 -203q-32 0 -58.5 4.5t-49.5 14t-44 24.5l19 65q16 -12 35.5 -20t44 -12t52.5 -4q56 0 89 24t33 67v58q0 11 -5.5 12.5t-13.5 -3.5l-52 -30q-12 -4 -21.5 -5.5t-26.5 -1.5q-87 0 -133 48t-53 124q-2 26 -3 47.5t-1 41.5q0 21 1 42t3 46q7 76 53 123.5t133 47.5
q35 0 67.5 -10.5t51.5 -27.5v28h80v-522q0 -46 -19.5 -87.5t-63.5 -67.5t-118 -26zM254 58q53 0 81.5 25t28.5 65v204q0 41 -28.5 64.5t-81.5 23.5q-60 0 -86 -31t-31 -76q-4 -41 -3.5 -83t3.5 -83q4 -45 30.5 -77t86.5 -32zM260 607q-53 0 -96.5 28t-57.5 86l60 17
q12 -34 34.5 -53t59.5 -19q38 0 60 19t34 53l60 -17q-13 -58 -57 -86t-97 -28z" />
    <glyph glyph-name="Gdotaccent" unicode="&#x120;" horiz-adv-x="600" 
d="M315 -12q-111 0 -175 58.5t-74 167.5q-2 29 -4 67t-2 69q0 32 1.5 69.5t3.5 66.5q11 116 77 171t177 55q106 0 175 -61l-26 -71q-34 29 -68 41.5t-81 12.5q-78 0 -122.5 -38.5t-49.5 -119.5q-2 -36 -3.5 -65t-1.5 -61q0 -31 1.5 -60.5t3.5 -65.5q5 -73 47.5 -115.5
t120.5 -42.5q28 0 56.5 4.5t41.5 13.5v227h-81v78h238v-78h-74v-269q-37 -26 -79 -40t-102 -14zM260 770v100h80v-100h-80z" />
    <glyph glyph-name="gdotaccent" unicode="&#x121;" horiz-adv-x="524" 
d="M243 -203q-32 0 -58.5 4.5t-49.5 14t-44 24.5l19 65q16 -12 35.5 -20t44 -12t52.5 -4q56 0 89 24t33 67v58q0 11 -5.5 12.5t-13.5 -3.5l-52 -30q-12 -4 -21.5 -5.5t-26.5 -1.5q-87 0 -133 48t-53 124q-2 26 -3 47.5t-1 41.5q0 21 1 42t3 46q7 76 53 123.5t133 47.5
q35 0 67.5 -10.5t51.5 -27.5v28h80v-522q0 -46 -19.5 -87.5t-63.5 -67.5t-118 -26zM254 58q53 0 81.5 25t28.5 65v204q0 41 -28.5 64.5t-81.5 23.5q-60 0 -86 -31t-31 -76q-4 -41 -3.5 -83t3.5 -83q4 -45 30.5 -77t86.5 -32zM220 600v100h80v-100h-80z" />
    <glyph glyph-name="uni0122" unicode="&#x122;" horiz-adv-x="600" 
d="M315 -12q-111 0 -175 58.5t-74 167.5q-2 29 -4 67t-2 69q0 32 1.5 69.5t3.5 66.5q11 116 77 171t177 55q106 0 175 -61l-26 -71q-34 29 -68 41.5t-81 12.5q-78 0 -122.5 -38.5t-49.5 -119.5q-2 -36 -3.5 -65t-1.5 -61q0 -31 1.5 -60.5t3.5 -65.5q5 -73 47.5 -115.5
t120.5 -42.5q28 0 56.5 4.5t41.5 13.5v227h-81v78h238v-78h-74v-269q-37 -26 -79 -40t-102 -14zM225 -322l-50 40q37 24 58 52t29.5 64t8.5 84h69q0 -58 -10.5 -101t-35.5 -76t-69 -63z" />
    <glyph glyph-name="uni0123" unicode="&#x123;" horiz-adv-x="524" 
d="M243 -203q-32 0 -58.5 4.5t-49.5 14t-44 24.5l19 65q16 -12 35.5 -20t44 -12t52.5 -4q56 0 89 24t33 67v58q0 11 -5.5 12.5t-13.5 -3.5l-52 -30q-12 -4 -21.5 -5.5t-26.5 -1.5q-87 0 -133 48t-53 124q-2 26 -3 47.5t-1 41.5q0 21 1 42t3 46q7 76 53 123.5t133 47.5
q35 0 67.5 -10.5t51.5 -27.5v28h80v-522q0 -46 -19.5 -87.5t-63.5 -67.5t-118 -26zM254 58q53 0 81.5 25t28.5 65v204q0 41 -28.5 64.5t-81.5 23.5q-60 0 -86 -31t-31 -76q-4 -41 -3.5 -83t3.5 -83q4 -45 30.5 -77t86.5 -32zM352 876l-9 -44q-59 -10 -92 -49t-36 -98h57
v-100h-105v86q0 57 22.5 100t64 70.5t98.5 34.5z" />
    <glyph glyph-name="Hbar" unicode="&#x126;" horiz-adv-x="620" 
d="M-16 495v69h651v-69h-651zM90 0v700h83v-311h274v311h83v-700h-83v311h-274v-311h-83z" />
    <glyph glyph-name="hbar" unicode="&#x127;" horiz-adv-x="537" 
d="M85 0v750h80v-279q20 16 53 28.5t75 12.5q50 0 87 -19.5t57 -54.5t20 -81v-357h-80v348q0 42 -26.5 67t-75.5 25q-52 0 -81 -25t-29 -67v-348h-80zM-21 575v69h291v-69h-291z" />
    <glyph glyph-name="Imacron" unicode="&#x12a;" horiz-adv-x="423" 
d="M50 0v76h120v548h-120v76h323v-76h-120v-548h120v-76h-323zM87 780v60h250v-60h-250z" />
    <glyph glyph-name="imacron" unicode="&#x12b;" horiz-adv-x="285" 
d="M120 0v430h-70v70h150v-500h-80zM20 610v60h250v-60h-250z" />
    <glyph glyph-name="Iogonek" unicode="&#x12e;" horiz-adv-x="423" 
d="M50 0v76h120v548h-120v76h323v-76h-120v-548h120v-76h-323zM402 -248q-50 5 -86 22.5t-55 50t-19 79.5q0 36 16.5 66.5t48.5 49.5l66 -20q-26 -15 -42 -38.5t-16 -53.5q0 -47 27 -66.5t74 -27.5z" />
    <glyph glyph-name="iogonek" unicode="&#x12f;" horiz-adv-x="285" 
d="M120 0v430h-70v70h150v-500h-80zM105 600v100h80v-100h-80zM229 -248q-50 5 -86 22.5t-55 50t-19 79.5q0 36 16.5 66.5t48.5 49.5l66 -20q-26 -15 -42 -38.5t-16 -53.5q0 -47 27 -66.5t74 -27.5z" />
    <glyph glyph-name="Idotaccent" unicode="&#x130;" horiz-adv-x="423" 
d="M50 0v76h120v548h-120v76h323v-76h-120v-548h120v-76h-323zM172 770v100h80v-100h-80z" />
    <glyph glyph-name="dotlessi" unicode="&#x131;" horiz-adv-x="285" 
d="M120 0v430h-70v70h150v-500h-80z" />
    <glyph glyph-name="IJ" unicode="&#x132;" horiz-adv-x="890" 
d="M593 -2q-34 0 -77.5 9.5t-72.5 28.5v79q35 -18 70.5 -29.5t69.5 -11.5q73 0 104 29t31 81v438h-160v78h242v-516q0 -88 -56 -137t-151 -49zM50 0v76h120v548h-120v76h323v-76h-120v-548h120v-76h-323z" />
    <glyph glyph-name="ij" unicode="&#x133;" horiz-adv-x="571" 
d="M120 0v430h-70v70h150v-500h-80zM120 600v100h80v-100h-80zM343 -222l-28 68q41 13 65.5 52.5t24.5 106.5v425h-70v70h151l-1 -495q0 -48 -10 -84.5t-28 -64t-44.5 -47t-59.5 -31.5zM405 600v100h80v-100h-80z" />
    <glyph glyph-name="uni0136" unicode="&#x136;" horiz-adv-x="538" 
d="M90 0v700h82v-312h75l169 312h90l-191 -344l193 -356h-90l-171 313h-75v-313h-82zM194 -322l-50 40q37 24 58 52t29.5 64t8.5 84h69q0 -58 -10.5 -101t-35.5 -76t-69 -63z" />
    <glyph glyph-name="uni0137" unicode="&#x137;" horiz-adv-x="477" 
d="M85 0v750h82v-441h57l129 191h90l-149 -215l153 -285h-90l-123 239h-67v-239h-82zM164 -322l-50 40q37 24 58 52t29.5 64t8.5 84h69q0 -58 -10.5 -101t-35.5 -76t-69 -63z" />
    <glyph glyph-name="Lacute" unicode="&#x139;" horiz-adv-x="452" 
d="M90 0v700h83v-622h249v-78h-332zM173 770l100 150h85l-100 -150h-85z" />
    <glyph glyph-name="lacute" unicode="&#x13a;" horiz-adv-x="275" 
d="M199 0q-52 0 -83 29.5t-31 78.5v642h80v-642q0 -17 9 -27.5t25 -10.5h41v-70h-41zM73 850l100 150h85l-100 -150h-85z" />
    <glyph glyph-name="uni013B" unicode="&#x13b;" horiz-adv-x="452" 
d="M90 0v700h83v-622h249v-78h-332zM181 -322l-50 40q37 24 58 52t29.5 64t8.5 84h69q0 -58 -10.5 -101t-35.5 -76t-69 -63z" />
    <glyph glyph-name="uni013C" unicode="&#x13c;" horiz-adv-x="275" 
d="M199 0q-52 0 -83 29.5t-31 78.5v642h80v-642q0 -17 9 -27.5t25 -10.5h41v-70h-41zM63 -322l-50 40q37 24 58 52t29.5 64t8.5 84h69q0 -58 -10.5 -101t-35.5 -76t-69 -63z" />
    <glyph glyph-name="Lcaron" unicode="&#x13d;" horiz-adv-x="452" 
d="M90 0v700h83v-622h249v-78h-332zM386 700h75l-95 -150h-62z" />
    <glyph glyph-name="lcaron" unicode="&#x13e;" horiz-adv-x="275" 
d="M199 0q-52 0 -83 29.5t-31 78.5v642h80v-642q0 -17 9 -27.5t25 -10.5h41v-70h-41zM285 750h75l-95 -150h-62z" />
    <glyph glyph-name="Lslash" unicode="&#x141;" horiz-adv-x="472" 
d="M28 247v74l315 217v-74zM110 0v700h83v-622h249v-78h-332z" />
    <glyph glyph-name="lslash" unicode="&#x142;" horiz-adv-x="305" 
d="M30 288v74l255 176v-74zM219 0q-52 0 -83 29.5t-31 78.5v642h80v-642q0 -17 9 -27.5t25 -10.5h41v-70h-41z" />
    <glyph glyph-name="Nacute" unicode="&#x143;" horiz-adv-x="623" 
d="M90 0v700h68l293 -547q4 -7 9 -4.5t4 9.5l-11 67v475h80v-700h-80l-279 517q-4 9 -9.5 7t-4.5 -10l10 -65v-449h-80zM259 800l100 150h85l-100 -150h-85z" />
    <glyph glyph-name="nacute" unicode="&#x144;" horiz-adv-x="537" 
d="M85 0v500h80v-29q20 16 52.5 28.5t72.5 12.5q52 0 89.5 -19.5t57.5 -54.5t20 -81v-357h-80v348q0 42 -26.5 67t-78.5 25q-51 0 -79 -25t-28 -67v-348h-80zM213 600l100 150h85l-100 -150h-85z" />
    <glyph glyph-name="uni0145" unicode="&#x145;" horiz-adv-x="623" 
d="M90 0v700h68l293 -547q4 -7 9 -4.5t4 9.5l-11 67v475h80v-700h-80l-279 517q-4 9 -9.5 7t-4.5 -10l10 -65v-449h-80zM237 -322l-50 40q37 24 58 52t29.5 64t8.5 84h69q0 -58 -10.5 -101t-35.5 -76t-69 -63z" />
    <glyph glyph-name="uni0146" unicode="&#x146;" horiz-adv-x="537" 
d="M85 0v500h80v-29q20 16 52.5 28.5t72.5 12.5q52 0 89.5 -19.5t57.5 -54.5t20 -81v-357h-80v348q0 42 -26.5 67t-78.5 25q-51 0 -79 -25t-28 -67v-348h-80zM191 -322l-50 40q37 24 58 52t29.5 64t8.5 84h69q0 -58 -10.5 -101t-35.5 -76t-69 -63z" />
    <glyph glyph-name="Ncaron" unicode="&#x147;" horiz-adv-x="623" 
d="M90 0v700h68l293 -547q4 -7 9 -4.5t4 9.5l-11 67v475h80v-700h-80l-279 517q-4 9 -9.5 7t-4.5 -10l10 -65v-449h-80zM274 800l-95 150h75l41 -67l11 -34q2 -7 6 -7t6 7l11 34l40 67h75l-95 -150h-75z" />
    <glyph glyph-name="ncaron" unicode="&#x148;" horiz-adv-x="537" 
d="M85 0v500h80v-29q20 16 52.5 28.5t72.5 12.5q52 0 89.5 -19.5t57.5 -54.5t20 -81v-357h-80v348q0 42 -26.5 67t-78.5 25q-51 0 -79 -25t-28 -67v-348h-80zM228 600l-95 150h75l41 -67l11 -34q2 -7 6 -7t6 7l11 34l40 67h75l-95 -150h-75z" />
    <glyph glyph-name="Eng" unicode="&#x14a;" horiz-adv-x="623" 
d="M376 -215q-32 0 -66.5 14t-61.5 39l37 63q18 -19 43.5 -31t50.5 -12q34 0 54 21t20 56v765h80v-765q0 -69 -42.5 -109.5t-114.5 -40.5zM90 0v700h68l293 -547q4 -7 9 -4.5t4 9.5l-11 67v475h80v-700h-80l-279 517q-4 9 -9.5 7t-4.5 -10l10 -65v-449h-80z" />
    <glyph glyph-name="eng" unicode="&#x14b;" horiz-adv-x="537" 
d="M315 -222l-28 68q41 12 65.5 51t24.5 103v348q0 42 -26.5 67t-78.5 25q-51 0 -79 -25t-28 -67v-348h-80v500h80v-29q20 16 52.5 28.5t72.5 12.5q52 0 89.5 -19.5t57.5 -54.5t20 -81v-357q0 -46 -10 -82.5t-28 -63t-44.5 -45.5t-59.5 -31z" />
    <glyph glyph-name="Omacron" unicode="&#x14c;" horiz-adv-x="606" 
d="M303 -12q-54 0 -96.5 16t-72.5 47q-21 22 -38 55.5t-26.5 91.5t-9.5 152t9.5 152t26.5 92t38 55q30 31 72.5 47t96.5 16t96.5 -16t72.5 -47q22 -21 38.5 -55t26 -92t9.5 -152t-9.5 -152t-26 -91.5t-38.5 -55.5q-30 -31 -72.5 -47t-96.5 -16zM303 66q74 0 112.5 40
t42.5 108q3 44 4.5 74.5t1.5 61.5q0 32 -1.5 62.5t-4.5 73.5q-4 68 -42.5 108t-112.5 40t-112.5 -40t-42.5 -108q-3 -43 -4.5 -73.5t-1.5 -62.5q0 -31 1.5 -61.5t4.5 -74.5q4 -68 42.5 -108t112.5 -40zM178 780v60h250v-60h-250z" />
    <glyph glyph-name="omacron" unicode="&#x14d;" horiz-adv-x="510" 
d="M255 -11q-87 0 -136 49.5t-58 123.5q-6 48 -6 87q0 21 1.5 42.5t4.5 46.5q9 75 58 124t136 49t136 -49t58 -124q6 -49 6 -89q0 -39 -6 -87q-9 -74 -58 -123.5t-136 -49.5zM255 58q55 0 84 32t33 75q4 45 4 83.5t-4 84.5q-4 44 -33 75.5t-84 31.5t-85 -31.5t-33 -75.5
q-3 -46 -3 -84.5t4 -83.5q5 -43 33.5 -75t83.5 -32zM130 610v60h250v-60h-250z" />
    <glyph glyph-name="Ohungarumlaut" unicode="&#x150;" horiz-adv-x="606" 
d="M303 -12q-54 0 -96.5 16t-72.5 47q-21 22 -38 55.5t-26.5 91.5t-9.5 152t9.5 152t26.5 92t38 55q30 31 72.5 47t96.5 16t96.5 -16t72.5 -47q22 -21 38.5 -55t26 -92t9.5 -152t-9.5 -152t-26 -91.5t-38.5 -55.5q-30 -31 -72.5 -47t-96.5 -16zM303 66q74 0 112.5 40
t42.5 108q3 44 4.5 74.5t1.5 61.5q0 32 -1.5 62.5t-4.5 73.5q-4 68 -42.5 108t-112.5 40t-112.5 -40t-42.5 -108q-3 -43 -4.5 -73.5t-1.5 -62.5q0 -31 1.5 -61.5t4.5 -74.5q4 -68 42.5 -108t112.5 -40zM164 770l100 150h85l-100 -150h-85zM337 770l100 150h85l-100 -150h-85
z" />
    <glyph glyph-name="ohungarumlaut" unicode="&#x151;" horiz-adv-x="510" 
d="M255 -11q-87 0 -136 49.5t-58 123.5q-6 48 -6 87q0 21 1.5 42.5t4.5 46.5q9 75 58 124t136 49t136 -49t58 -124q6 -49 6 -89q0 -39 -6 -87q-9 -74 -58 -123.5t-136 -49.5zM255 58q55 0 84 32t33 75q4 45 4 83.5t-4 84.5q-4 44 -33 75.5t-84 31.5t-85 -31.5t-33 -75.5
q-3 -46 -3 -84.5t4 -83.5q5 -43 33.5 -75t83.5 -32zM116 600l100 150h85l-100 -150h-85zM289 600l100 150h85l-100 -150h-85z" />
    <glyph glyph-name="OE" unicode="&#x152;" horiz-adv-x="932" 
d="M303 -12q-54 0 -96.5 16t-72.5 47q-21 22 -38 55.5t-26.5 91.5t-9.5 152t9.5 152t26.5 92t38 55q30 31 72.5 47t96.5 16q74 0 126 -30l28 -28q5 -5 8.5 -3.5t3.5 8.5v41h403v-78h-325v-233h308v-78h-308v-233h325v-78h-403v41q0 7 -3.5 8.5t-8.5 -3.5l-30 -29
q-25 -14 -56.5 -21.5t-67.5 -7.5zM303 66q74 0 112.5 40t42.5 108q3 44 4.5 74.5t1.5 61.5q0 32 -1.5 62.5t-4.5 73.5q-4 68 -42.5 108t-112.5 40t-112.5 -40t-42.5 -108q-3 -43 -4.5 -73.5t-1.5 -62.5q0 -31 1.5 -61.5t4.5 -74.5q4 -68 42.5 -108t112.5 -40z" />
    <glyph glyph-name="oe" unicode="&#x153;" horiz-adv-x="806" 
d="M255 -11q-87 0 -136 49.5t-58 123.5q-6 48 -6 87q0 21 1.5 42.5t4.5 46.5q9 75 58 124t136 49q46 0 80.5 -15.5t57.5 -40.5l17 -34q2 -5 6.5 -5t7.5 5l18 34q23 25 56.5 40t76.5 15q61 0 98 -22t56 -57t25.5 -74t6.5 -72l-20 -53l-284 1q0 -16 1 -32.5t3 -34.5
q5 -43 33.5 -75.5t89.5 -32.5q38 0 72.5 12t62.5 34l24 -61q-41 -29 -75 -41t-84 -12t-87 15.5t-60 43.5l-13 31q-2 6 -7 6t-7 -6l-12 -31q-22 -27 -58.5 -43.5t-84.5 -16.5zM255 58q55 0 84 32t33 75q4 45 4 83.5t-4 84.5q-4 44 -33 75.5t-84 31.5t-85 -31.5t-33 -75.5
q-3 -46 -3 -84.5t4 -83.5q5 -43 33.5 -75t83.5 -32zM458 302h227q0 34 -8.5 65.5t-32.5 52t-69 20.5q-57 0 -87 -38t-30 -100z" />
    <glyph glyph-name="Racute" unicode="&#x154;" horiz-adv-x="563" 
d="M90 0v700h228q96 0 150.5 -52t54.5 -147q0 -70 -35 -117t-96 -64q-14 -3 -4 -19l29 -48l92 -253h-89l-113 311h-137v-311h-80zM170 384h148q57 0 90 30.5t33 86.5q0 62 -33 95.5t-90 33.5h-148v-246zM229 770l100 150h85l-100 -150h-85z" />
    <glyph glyph-name="racute" unicode="&#x155;" horiz-adv-x="351" 
d="M90 0v386l-55 82l73 44l38 -57q7 -10 13 -9.5t13 7.5q27 27 67 43t91 16h11v-82q-86 0 -128.5 -30.5t-42.5 -81.5v-318h-80zM123 600l100 150h85l-100 -150h-85z" />
    <glyph glyph-name="uni0156" unicode="&#x156;" horiz-adv-x="563" 
d="M90 0v700h228q96 0 150.5 -52t54.5 -147q0 -70 -35 -117t-96 -64q-14 -3 -4 -19l29 -48l92 -253h-89l-113 311h-137v-311h-80zM170 384h148q57 0 90 30.5t33 86.5q0 62 -33 95.5t-90 33.5h-148v-246zM207 -322l-50 40q37 24 58 52t29.5 64t8.5 84h69q0 -58 -10.5 -101
t-35.5 -76t-69 -63z" />
    <glyph glyph-name="uni0157" unicode="&#x157;" horiz-adv-x="351" 
d="M90 0v386l-55 82l73 44l38 -57q7 -10 13 -9.5t13 7.5q27 27 67 43t91 16h11v-82q-86 0 -128.5 -30.5t-42.5 -81.5v-318h-80zM101 -322l-50 40q37 24 58 52t29.5 64t8.5 84h69q0 -58 -10.5 -101t-35.5 -76t-69 -63z" />
    <glyph glyph-name="Rcaron" unicode="&#x158;" horiz-adv-x="563" 
d="M90 0v700h228q96 0 150.5 -52t54.5 -147q0 -70 -35 -117t-96 -64q-14 -3 -4 -19l29 -48l92 -253h-89l-113 311h-137v-311h-80zM170 384h148q57 0 90 30.5t33 86.5q0 62 -33 95.5t-90 33.5h-148v-246zM244 770l-95 150h75l41 -67l11 -34q2 -7 6 -7t6 7l11 34l40 67h75
l-95 -150h-75z" />
    <glyph glyph-name="rcaron" unicode="&#x159;" horiz-adv-x="351" 
d="M90 0v386l-55 82l73 44l38 -57q7 -10 13 -9.5t13 7.5q27 27 67 43t91 16h11v-82q-86 0 -128.5 -30.5t-42.5 -81.5v-318h-80zM138 600l-95 150h75l41 -67l11 -34q2 -7 6 -7t6 7l11 34l40 67h75l-95 -150h-75z" />
    <glyph glyph-name="Sacute" unicode="&#x15a;" horiz-adv-x="503" 
d="M245 -10q-58 0 -112 18.5t-91 49.5l30 70q33 -29 78 -45t91 -16q71 0 107 36t36 93q0 48 -26 84t-89 43l-48 5q-56 6 -96 29t-61 62.5t-21 93.5q0 57 28 101.5t79.5 70t122.5 25.5q44 0 90 -12t86 -38l-25 -70q-36 25 -75 35t-75 10q-72 0 -110.5 -32.5t-38.5 -84.5
q0 -53 29 -80t77 -32l48 -5q91 -10 138.5 -64t47.5 -136q0 -60 -26.5 -108t-75.5 -75.5t-118 -27.5zM199 770l100 150h85l-100 -150h-85z" />
    <glyph glyph-name="sacute" unicode="&#x15b;" horiz-adv-x="452" 
d="M229 -12q-48 0 -92.5 15t-81.5 41l27 68q24 -17 47.5 -28.5t48 -17.5t51.5 -6q53 0 80 23t27 63q0 30 -22.5 50.5t-62.5 23.5l-59 4q-58 4 -97.5 36.5t-39.5 96.5q0 69 49 112t132 43q42 0 82 -10.5t74 -33.5l-26 -65q-23 16 -56 26.5t-74 10.5q-51 0 -78 -20.5
t-27 -59.5q0 -30 20 -46t50 -18l58 -4q74 -5 113.5 -44.5t39.5 -101.5q0 -67 -48 -112.5t-135 -45.5zM173 600l100 150h85l-100 -150h-85z" />
    <glyph glyph-name="Scedilla" unicode="&#x15e;" horiz-adv-x="503" 
d="M245 -10q-58 0 -112 18.5t-91 49.5l30 70q33 -29 78 -45t91 -16q71 0 107 36t36 93q0 48 -26 84t-89 43l-48 5q-56 6 -96 29t-61 62.5t-21 93.5q0 57 28 101.5t79.5 70t122.5 25.5q44 0 90 -12t86 -38l-25 -70q-36 25 -75 35t-75 10q-72 0 -110.5 -32.5t-38.5 -84.5
q0 -53 29 -80t77 -32l48 -5q91 -10 138.5 -64t47.5 -136q0 -60 -26.5 -108t-75.5 -75.5t-118 -27.5zM147 -250l17 62q59 0 92 13.5t33 36.5q0 21 -26 27.5t-81 6.5l31 126l60 -22l-13 -51q44 -5 70.5 -27.5t26.5 -56.5q0 -37 -29.5 -62.5t-77.5 -39t-103 -13.5z" />
    <glyph glyph-name="scedilla" unicode="&#x15f;" horiz-adv-x="452" 
d="M229 -12q-48 0 -92.5 15t-81.5 41l27 68q24 -17 47.5 -28.5t48 -17.5t51.5 -6q53 0 80 23t27 63q0 30 -22.5 50.5t-62.5 23.5l-59 4q-58 4 -97.5 36.5t-39.5 96.5q0 69 49 112t132 43q42 0 82 -10.5t74 -33.5l-26 -65q-23 16 -56 26.5t-74 10.5q-51 0 -78 -20.5
t-27 -59.5q0 -30 20 -46t50 -18l58 -4q74 -5 113.5 -44.5t39.5 -101.5q0 -67 -48 -112.5t-135 -45.5zM121 -250l17 62q59 0 92 13.5t33 36.5q0 21 -26 27.5t-81 6.5l31 126l60 -22l-13 -51q44 -5 70.5 -27.5t26.5 -56.5q0 -37 -29.5 -62.5t-77.5 -39t-103 -13.5z" />
    <glyph glyph-name="Scaron" unicode="&#x160;" horiz-adv-x="503" 
d="M245 -10q-58 0 -112 18.5t-91 49.5l30 70q33 -29 78 -45t91 -16q71 0 107 36t36 93q0 48 -26 84t-89 43l-48 5q-56 6 -96 29t-61 62.5t-21 93.5q0 57 28 101.5t79.5 70t122.5 25.5q44 0 90 -12t86 -38l-25 -70q-36 25 -75 35t-75 10q-72 0 -110.5 -32.5t-38.5 -84.5
q0 -53 29 -80t77 -32l48 -5q91 -10 138.5 -64t47.5 -136q0 -60 -26.5 -108t-75.5 -75.5t-118 -27.5zM214 770l-95 150h75l41 -67l11 -34q2 -7 6 -7t6 7l11 34l40 67h75l-95 -150h-75z" />
    <glyph glyph-name="scaron" unicode="&#x161;" horiz-adv-x="452" 
d="M229 -12q-48 0 -92.5 15t-81.5 41l27 68q24 -17 47.5 -28.5t48 -17.5t51.5 -6q53 0 80 23t27 63q0 30 -22.5 50.5t-62.5 23.5l-59 4q-58 4 -97.5 36.5t-39.5 96.5q0 69 49 112t132 43q42 0 82 -10.5t74 -33.5l-26 -65q-23 16 -56 26.5t-74 10.5q-51 0 -78 -20.5
t-27 -59.5q0 -30 20 -46t50 -18l58 -4q74 -5 113.5 -44.5t39.5 -101.5q0 -67 -48 -112.5t-135 -45.5zM188 600l-95 150h75l41 -67l11 -34q2 -7 6 -7t6 7l11 34l40 67h75l-95 -150h-75z" />
    <glyph glyph-name="Tcaron" unicode="&#x164;" horiz-adv-x="488" 
d="M202 0v622h-172v78h428v-78h-173v-622h-83zM206 770l-95 150h75l41 -67l11 -34q2 -7 6 -7t6 7l11 34l40 67h75l-95 -150h-75z" />
    <glyph glyph-name="tcaron" unicode="&#x165;" horiz-adv-x="340" 
d="M211 0q-52 0 -83 29.5t-31 78.5v322h-87v70h76q9 0 14.5 6t11 30t14.5 77l3 17h48v-130h123v-70h-123v-322q0 -17 9 -27.5t25 -10.5h89v-70h-89zM308 750h75l-95 -150h-62z" />
    <glyph glyph-name="Tbar" unicode="&#x166;" horiz-adv-x="488" 
d="M202 0v622h-172v78h428v-78h-173v-622h-83zM98 315v69h291v-69h-291z" />
    <glyph glyph-name="tbar" unicode="&#x167;" horiz-adv-x="340" 
d="M211 0q-52 0 -83 29.5t-31 78.5v322h-87v70h76q9 0 14.5 6t11 30t14.5 77l3 17h48v-130h123v-70h-123v-322q0 -17 9 -27.5t25 -10.5h89v-70h-89zM24 215v69h291v-69h-291z" />
    <glyph glyph-name="Umacron" unicode="&#x16a;" horiz-adv-x="609" 
d="M304 -10q-65 0 -114.5 26.5t-77 74.5t-27.5 110v499h84l-1 -499q0 -60 37.5 -97.5t98.5 -37.5t98.5 37.5t37.5 97.5v499h84l-1 -499q0 -62 -27.5 -110t-77 -74.5t-114.5 -26.5zM180 780v60h250v-60h-250z" />
    <glyph glyph-name="umacron" unicode="&#x16b;" horiz-adv-x="527" 
d="M233 -12q-51 0 -87.5 19t-56 54t-19.5 82v357h80v-348q0 -42 26.5 -67t78.5 -25q51 0 79 25t28 67v348h80v-500h-80v18q0 10 -6 12t-14 -3l-51 -32q-22 -7 -58 -7zM139 610v60h250v-60h-250z" />
    <glyph glyph-name="Ubreve" unicode="&#x16c;" horiz-adv-x="609" 
d="M304 -10q-65 0 -114.5 26.5t-77 74.5t-27.5 110v499h84l-1 -499q0 -60 37.5 -97.5t98.5 -37.5t98.5 37.5t37.5 97.5v499h84l-1 -499q0 -62 -27.5 -110t-77 -74.5t-114.5 -26.5zM305 777q-53 0 -96.5 28t-57.5 86l60 17q12 -34 34.5 -53t59.5 -19q38 0 60 19t34 53l60 -17
q-13 -58 -57 -86t-97 -28z" />
    <glyph glyph-name="ubreve" unicode="&#x16d;" horiz-adv-x="527" 
d="M233 -12q-51 0 -87.5 19t-56 54t-19.5 82v357h80v-348q0 -42 26.5 -67t78.5 -25q51 0 79 25t28 67v348h80v-500h-80v18q0 10 -6 12t-14 -3l-51 -32q-22 -7 -58 -7zM264 607q-53 0 -96.5 28t-57.5 86l60 17q12 -34 34.5 -53t59.5 -19q38 0 60 19t34 53l60 -17
q-13 -58 -57 -86t-97 -28z" />
    <glyph glyph-name="Uring" unicode="&#x16e;" horiz-adv-x="609" 
d="M304 -10q-65 0 -114.5 26.5t-77 74.5t-27.5 110v499h84l-1 -499q0 -60 37.5 -97.5t98.5 -37.5t98.5 37.5t37.5 97.5v499h84l-1 -499q0 -62 -27.5 -110t-77 -74.5t-114.5 -26.5zM306 741q-35 0 -66.5 9.5t-50.5 32t-19 61.5q0 40 20 62t51.5 31t64.5 9t64 -9t50.5 -31
t19.5 -62t-19.5 -62.5t-50.5 -31.5t-64 -9zM304 792q33 0 56 9.5t23 42.5q0 32 -23 41.5t-56 9.5q-34 0 -55.5 -9.5t-21.5 -41.5q0 -33 23 -42.5t54 -9.5z" />
    <glyph glyph-name="uring" unicode="&#x16f;" horiz-adv-x="527" 
d="M233 -12q-51 0 -87.5 19t-56 54t-19.5 82v357h80v-348q0 -42 26.5 -67t78.5 -25q51 0 79 25t28 67v348h80v-500h-80v18q0 10 -6 12t-14 -3l-51 -32q-22 -7 -58 -7zM265 571q-35 0 -66.5 9.5t-50.5 32t-19 61.5q0 40 20 62t51.5 31t64.5 9t64 -9t50.5 -31t19.5 -62
t-19.5 -62.5t-50.5 -31.5t-64 -9zM263 622q33 0 56 9.5t23 42.5q0 32 -23 41.5t-56 9.5q-34 0 -55.5 -9.5t-21.5 -41.5q0 -33 23 -42.5t54 -9.5z" />
    <glyph glyph-name="Uhungarumlaut" unicode="&#x170;" horiz-adv-x="609" 
d="M304 -10q-65 0 -114.5 26.5t-77 74.5t-27.5 110v499h84l-1 -499q0 -60 37.5 -97.5t98.5 -37.5t98.5 37.5t37.5 97.5v499h84l-1 -499q0 -62 -27.5 -110t-77 -74.5t-114.5 -26.5zM166 770l100 150h85l-100 -150h-85zM339 770l100 150h85l-100 -150h-85z" />
    <glyph glyph-name="uhungarumlaut" unicode="&#x171;" horiz-adv-x="527" 
d="M233 -12q-51 0 -87.5 19t-56 54t-19.5 82v357h80v-348q0 -42 26.5 -67t78.5 -25q51 0 79 25t28 67v348h80v-500h-80v18q0 10 -6 12t-14 -3l-51 -32q-22 -7 -58 -7zM125 600l100 150h85l-100 -150h-85zM298 600l100 150h85l-100 -150h-85z" />
    <glyph glyph-name="Uogonek" unicode="&#x172;" horiz-adv-x="609" 
d="M304 -10q-65 0 -114.5 26.5t-77 74.5t-27.5 110v499h84l-1 -499q0 -60 37.5 -97.5t98.5 -37.5t98.5 37.5t37.5 97.5v499h84l-1 -499q0 -62 -27.5 -110t-77 -74.5t-114.5 -26.5zM406 -248q-50 5 -86 22.5t-55 50t-19 79.5q0 36 16.5 66.5t48.5 49.5l66 -20
q-26 -15 -42 -38.5t-16 -53.5q0 -47 27 -66.5t74 -27.5z" />
    <glyph glyph-name="uogonek" unicode="&#x173;" horiz-adv-x="527" 
d="M233 -12q-51 0 -87.5 19t-56 54t-19.5 82v357h80v-348q0 -42 26.5 -67t78.5 -25q51 0 79 25t28 67v348h80v-500h-80v18q0 10 -6 12t-14 -3l-51 -32q-22 -7 -58 -7zM471 -248q-50 5 -86 22.5t-55 50t-19 79.5q0 36 16.5 66.5t48.5 49.5l66 -20q-26 -15 -42 -38.5
t-16 -53.5q0 -47 27 -66.5t74 -27.5z" />
    <glyph glyph-name="Wcircumflex" unicode="&#x174;" horiz-adv-x="615" 
d="M135 0l-110 700h73l81 -501l2 -51q0 -9 6 -10t8 8l84 354h57l84 -354q2 -9 8 -8t6 10l2 51l82 501h72l-110 -700h-83l-79 309q-3 12 -10 12t-10 -12l-80 -309h-83zM175 770l91 150h81l93 -150h-79l-36 67l-11 34q-2 8 -6 8t-6 -8l-11 -34l-37 -67h-79z" />
    <glyph glyph-name="wcircumflex" unicode="&#x175;" horiz-adv-x="580" 
d="M119 3l-79 497h72l48 -301l3 -53q1 -9 6.5 -9.5t7.5 9.5l84 354h57l84 -354q2 -10 7.5 -9.5t6.5 9.5l3 53l50 301h71l-80 -497h-78l-82 326q-3 12 -10 12t-10 -12l-83 -326h-78zM157 600l91 150h81l93 -150h-79l-36 67l-11 34q-2 8 -6 8t-6 -8l-11 -34l-37 -67h-79z" />
    <glyph glyph-name="Ycircumflex" unicode="&#x176;" horiz-adv-x="482" 
d="M201 0v330l-201 370h94l127 -255l13 -41q2 -5 7.5 -5t6.5 5l13 41l127 255h94l-201 -370v-330h-80zM108 770l91 150h81l93 -150h-79l-36 67l-11 34q-2 8 -6 8t-6 -8l-11 -34l-37 -67h-79z" />
    <glyph glyph-name="ycircumflex" unicode="&#x177;" horiz-adv-x="469" 
d="M101 -220l-29 72q52 15 76 49t39 83l13 43l-180 473h84l120 -315l9 -54q2 -8 7.5 -8t6.5 8l12 54l97 315h83l-177 -548q-20 -62 -60 -106t-101 -66zM102 600l91 150h81l93 -150h-79l-36 67l-11 34q-2 8 -6 8t-6 -8l-11 -34l-37 -67h-79z" />
    <glyph glyph-name="Ydieresis" unicode="&#x178;" horiz-adv-x="482" 
d="M201 0v330l-201 370h94l127 -255l13 -41q2 -5 7.5 -5t6.5 5l13 41l127 255h94l-201 -370v-330h-80zM286 770v100h81v-100h-81zM115 770v100h81v-100h-81z" />
    <glyph glyph-name="Zacute" unicode="&#x179;" horiz-adv-x="507" 
d="M45 0v48l282 524l33 47q4 5 2.5 8t-6.5 3h-228v-83h-73v153h407v-48l-277 -516l-33 -47q-4 -5 -2.5 -8t5.5 -3h307v-78h-417zM201 770l100 150h85l-100 -150h-85z" />
    <glyph glyph-name="zacute" unicode="&#x17a;" horiz-adv-x="445" 
d="M50 0v48l211 333l32 33q10 10 6 13t-9 3h-240v70h345v-48l-211 -333l-32 -33q-9 -9 -5 -12.5t8 -3.5h240v-70h-345zM170 600l100 150h85l-100 -150h-85z" />
    <glyph glyph-name="Zdotaccent" unicode="&#x17b;" horiz-adv-x="507" 
d="M45 0v48l282 524l33 47q4 5 2.5 8t-6.5 3h-228v-83h-73v153h407v-48l-277 -516l-33 -47q-4 -5 -2.5 -8t5.5 -3h307v-78h-417zM214 770v100h80v-100h-80z" />
    <glyph glyph-name="zdotaccent" unicode="&#x17c;" horiz-adv-x="445" 
d="M50 0v48l211 333l32 33q10 10 6 13t-9 3h-240v70h345v-48l-211 -333l-32 -33q-9 -9 -5 -12.5t8 -3.5h240v-70h-345zM183 600v100h80v-100h-80z" />
    <glyph glyph-name="Zcaron" unicode="&#x17d;" horiz-adv-x="507" 
d="M45 0v48l282 524l33 47q4 5 2.5 8t-6.5 3h-228v-83h-73v153h407v-48l-277 -516l-33 -47q-4 -5 -2.5 -8t5.5 -3h307v-78h-417zM216 770l-95 150h75l41 -67l11 -34q2 -7 6 -7t6 7l11 34l40 67h75l-95 -150h-75z" />
    <glyph glyph-name="zcaron" unicode="&#x17e;" horiz-adv-x="445" 
d="M50 0v48l211 333l32 33q10 10 6 13t-9 3h-240v70h345v-48l-211 -333l-32 -33q-9 -9 -5 -12.5t8 -3.5h240v-70h-345zM185 600l-95 150h75l41 -67l11 -34q2 -7 6 -7t6 7l11 34l40 67h75l-95 -150h-75z" />
    <glyph glyph-name="uni01B7" unicode="&#x1b7;" horiz-adv-x="518" 
d="M237 -6q-61 0 -111.5 18.5t-95.5 54.5l29 69q22 -19 50.5 -33.5t61 -23t65.5 -8.5q75 0 112.5 38.5t37.5 97.5q0 61 -44 94t-145 33h-59v46l162 205l36 35q5 5 3.5 7.5t-6.5 2.5h-278v70h389v-48l-211 -267l-47 22q135 0 208.5 -47t73.5 -153q0 -60 -19.5 -100.5
t-52.5 -65.5t-74 -36t-85 -11z" />
    <glyph glyph-name="uni01CD" unicode="&#x1cd;" 
d="M30 0l197 700h120l199 -700h-85l-158 574l-8 53q-1 6 -6.5 6t-6.5 -6l-9 -53l-158 -574h-85zM138 187l22 74h256l22 -74h-300zM113 627v73h141v-73h-141zM245 770l-95 150h75l41 -67l11 -34q2 -7 6 -7t6 7l11 34l40 67h75l-95 -150h-75z" />
    <glyph glyph-name="uni01CE" unicode="&#x1ce;" horiz-adv-x="491" 
d="M373 -12l-33 49q-6 9 -14 2q-24 -21 -50.5 -35.5t-70.5 -14.5q-71 0 -113 39t-42 102q0 45 19.5 76t55.5 47.5t84 16.5h117v72q0 43 -25 69t-79 26q-39 0 -70 -11.5t-63 -36.5l-25 70q38 29 77 41t86 12q89 0 132.5 -46t43.5 -115v-255l43 -64zM209 58q54 0 85.5 26
t31.5 69v45q0 19 -18 14l-55 -12h-38q-40 0 -62.5 -17.5t-22.5 -49.5q0 -33 21.5 -54t57.5 -21zM205 600l-95 150h75l41 -67l11 -34q2 -7 6 -7t6 7l11 34l40 67h75l-95 -150h-75z" />
    <glyph glyph-name="uni01E4" unicode="&#x1e4;" horiz-adv-x="600" 
d="M315 -12q-111 0 -175 58.5t-74 167.5q-2 29 -4 67t-2 69q0 32 1.5 69.5t3.5 66.5q11 116 77 171t177 55q106 0 175 -61l-26 -71q-34 29 -68 41.5t-81 12.5q-78 0 -122.5 -38.5t-49.5 -119.5q-2 -36 -3.5 -65t-1.5 -61q0 -31 1.5 -60.5t3.5 -65.5q5 -73 47.5 -115.5
t120.5 -42.5q28 0 56.5 4.5t41.5 13.5v305h83v-347q-37 -26 -79 -40t-102 -14zM332 196v78h238v-78h-238z" />
    <glyph glyph-name="uni01E5" unicode="&#x1e5;" horiz-adv-x="524" 
d="M243 -203q-32 0 -58.5 4.5t-49.5 14t-44 24.5l19 65q16 -12 35.5 -20t44 -12t52.5 -4q56 0 89 24t33 67v118q0 11 -5.5 12.5t-13.5 -3.5l-52 -30q-12 -4 -21.5 -5.5t-26.5 -1.5q-87 0 -133 45t-53 117q-2 20 -3 36.5t-1 32.5q0 17 1 33t3 35q7 71 53 116t133 45
q35 0 67.5 -10.5t51.5 -27.5v28h80v-522q0 -46 -19.5 -87.5t-63.5 -67.5t-118 -26zM223 -69v69h331v-69h-331zM254 118q53 0 81.5 25t28.5 65v144q0 41 -28.5 64.5t-81.5 23.5q-60 0 -86 -31t-31 -76q-4 -26 -3.5 -51t3.5 -55q4 -44 30.5 -76.5t86.5 -32.5z" />
    <glyph glyph-name="Gcaron" unicode="&#x1e6;" horiz-adv-x="600" 
d="M315 -12q-111 0 -175 58.5t-74 167.5q-2 29 -4 67t-2 69q0 32 1.5 69.5t3.5 66.5q11 116 77 171t177 55q106 0 175 -61l-26 -71q-34 29 -68 41.5t-81 12.5q-78 0 -122.5 -38.5t-49.5 -119.5q-2 -36 -3.5 -65t-1.5 -61q0 -31 1.5 -60.5t3.5 -65.5q5 -73 47.5 -115.5
t120.5 -42.5q28 0 56.5 4.5t41.5 13.5v227h-81v78h238v-78h-74v-269q-37 -26 -79 -40t-102 -14zM262 770l-95 150h75l41 -67l11 -34q2 -7 6 -7t6 7l11 34l40 67h75l-95 -150h-75z" />
    <glyph glyph-name="gcaron" unicode="&#x1e7;" horiz-adv-x="524" 
d="M243 -203q-32 0 -58.5 4.5t-49.5 14t-44 24.5l19 65q16 -12 35.5 -20t44 -12t52.5 -4q56 0 89 24t33 67v58q0 11 -5.5 12.5t-13.5 -3.5l-52 -30q-12 -4 -21.5 -5.5t-26.5 -1.5q-87 0 -133 48t-53 124q-2 26 -3 47.5t-1 41.5q0 21 1 42t3 46q7 76 53 123.5t133 47.5
q35 0 67.5 -10.5t51.5 -27.5v28h80v-522q0 -46 -19.5 -87.5t-63.5 -67.5t-118 -26zM254 58q53 0 81.5 25t28.5 65v204q0 41 -28.5 64.5t-81.5 23.5q-60 0 -86 -31t-31 -76q-4 -41 -3.5 -83t3.5 -83q4 -45 30.5 -77t86.5 -32zM222 600l-95 150h75l41 -67l11 -34q2 -7 6 -7
t6 7l11 34l40 67h75l-95 -150h-75z" />
    <glyph glyph-name="uni01E8" unicode="&#x1e8;" horiz-adv-x="538" 
d="M90 0v700h82v-312h75l169 312h90l-191 -344l193 -356h-90l-171 313h-75v-313h-82zM231 770l-95 150h75l41 -67l11 -34q2 -7 6 -7t6 7l11 34l40 67h75l-95 -150h-75z" />
    <glyph glyph-name="uni01E9" unicode="&#x1e9;" horiz-adv-x="477" 
d="M85 0v750h82v-441h57l129 191h90l-149 -215l153 -285h-90l-123 239h-67v-239h-82zM220 770l-95 150h75l41 -67l11 -34q2 -7 6 -7t6 7l11 34l40 67h75l-95 -150h-75z" />
    <glyph glyph-name="uni01EE" unicode="&#x1ee;" horiz-adv-x="518" 
d="M237 -6q-61 0 -111.5 18.5t-95.5 54.5l29 69q22 -19 50.5 -33.5t61 -23t65.5 -8.5q75 0 112.5 38.5t37.5 97.5q0 61 -44 94t-145 33h-59v46l162 205l36 35q5 5 3.5 7.5t-6.5 2.5h-278v70h389v-48l-211 -267l-47 22q135 0 208.5 -47t73.5 -153q0 -60 -19.5 -100.5
t-52.5 -65.5t-74 -36t-85 -11zM221 800l-95 150h75l41 -67l11 -34q2 -7 6 -7t6 7l11 34l40 67h75l-95 -150h-75z" />
    <glyph glyph-name="uni01EF" unicode="&#x1ef;" horiz-adv-x="518" 
d="M227 -256q-58 0 -106 18.5t-91 54.5l29 69q31 -28 75.5 -46.5t91.5 -18.5q80 0 120 44t40 112q0 75 -44 116t-145 41h-59v46l162 205l36 35q5 5 3.5 7.5t-6.5 2.5h-278v70h389v-48l-211 -267l-47 22q135 0 208.5 -54t73.5 -176q0 -65 -21.5 -110t-57 -72t-78 -39
t-84.5 -12zM221 600l-95 150h75l41 -67l11 -34q2 -7 6 -7t6 7l11 34l40 67h75l-95 -150h-75z" />
    <glyph glyph-name="uni0218" unicode="&#x218;" horiz-adv-x="503" 
d="M245 -10q-58 0 -112 18.5t-91 49.5l30 70q33 -29 78 -45t91 -16q71 0 107 36t36 93q0 48 -26 84t-89 43l-48 5q-56 6 -96 29t-61 62.5t-21 93.5q0 57 28 101.5t79.5 70t122.5 25.5q44 0 90 -12t86 -38l-25 -70q-36 25 -75 35t-75 10q-72 0 -110.5 -32.5t-38.5 -84.5
q0 -53 29 -80t77 -32l48 -5q91 -10 138.5 -64t47.5 -136q0 -60 -26.5 -108t-75.5 -75.5t-118 -27.5zM177 -322l-50 40q37 24 58 52t29.5 64t8.5 84h69q0 -58 -10.5 -101t-35.5 -76t-69 -63z" />
    <glyph glyph-name="uni0219" unicode="&#x219;" horiz-adv-x="452" 
d="M229 -12q-48 0 -92.5 15t-81.5 41l27 68q24 -17 47.5 -28.5t48 -17.5t51.5 -6q53 0 80 23t27 63q0 30 -22.5 50.5t-62.5 23.5l-59 4q-58 4 -97.5 36.5t-39.5 96.5q0 69 49 112t132 43q42 0 82 -10.5t74 -33.5l-26 -65q-23 16 -56 26.5t-74 10.5q-51 0 -78 -20.5
t-27 -59.5q0 -30 20 -46t50 -18l58 -4q74 -5 113.5 -44.5t39.5 -101.5q0 -67 -48 -112.5t-135 -45.5zM151 -322l-50 40q37 24 58 52t29.5 64t8.5 84h69q0 -58 -10.5 -101t-35.5 -76t-69 -63z" />
    <glyph glyph-name="uni021A" unicode="&#x21a;" horiz-adv-x="488" 
d="M202 0v622h-172v78h428v-78h-173v-622h-83zM169 -322l-50 40q37 24 58 52t29.5 64t8.5 84h69q0 -58 -10.5 -101t-35.5 -76t-69 -63z" />
    <glyph glyph-name="uni021B" unicode="&#x21b;" horiz-adv-x="340" 
d="M211 0q-52 0 -83 29.5t-31 78.5v322h-87v70h76q9 0 14.5 6t11 30t14.5 77l3 17h48v-130h123v-70h-123v-322q0 -17 9 -27.5t25 -10.5h89v-70h-89zM95 -322l-50 40q37 24 58 52t29.5 64t8.5 84h69q0 -58 -10.5 -101t-35.5 -76t-69 -63z" />
    <glyph glyph-name="uni0237" unicode="&#x237;" horiz-adv-x="286" 
d="M58 -222l-28 68q41 13 65.5 52.5t24.5 106.5v425h-70v70h151l-1 -495q0 -48 -10 -84.5t-28 -64t-44.5 -47t-59.5 -31.5z" />
    <glyph glyph-name="uni0292" unicode="&#x292;" horiz-adv-x="518" 
d="M227 -256q-58 0 -106 18.5t-91 54.5l29 69q31 -28 75.5 -46.5t91.5 -18.5q80 0 120 44t40 112q0 75 -44 116t-145 41h-59v46l162 205l36 35q5 5 3.5 7.5t-6.5 2.5h-278v70h389v-48l-211 -267l-47 22q135 0 208.5 -54t73.5 -176q0 -65 -21.5 -110t-57 -72t-78 -39
t-84.5 -12z" />
    <glyph glyph-name="uni02B9" unicode="&#x2b9;" horiz-adv-x="115" 
d="M20 400l62 350h93l-114 -350h-41z" />
    <glyph glyph-name="uni02BC" unicode="&#x2bc;" horiz-adv-x="285" 
d="M70 463l9 53q40 15 63 49.5t25 84.5h-57v100h105v-66q0 -65 -18 -109t-50.5 -71t-76.5 -41z" />
    <glyph glyph-name="circumflex" unicode="&#x2c6;" horiz-adv-x="365" 
d="M40 600l91 150h81l93 -150h-79l-36 67l-11 34q-2 8 -6 8t-6 -8l-11 -34l-37 -67h-79z" />
    <glyph glyph-name="caron" unicode="&#x2c7;" horiz-adv-x="365" 
d="M145 600l-95 150h75l41 -67l11 -34q2 -7 6 -7t6 7l11 34l40 67h75l-95 -150h-75z" />
    <glyph glyph-name="uni02C8" unicode="&#x2c8;" horiz-adv-x="114" 
d="M20 400v350h74v-350h-74z" />
    <glyph glyph-name="breve" unicode="&#x2d8;" horiz-adv-x="428" 
d="M214 607q-53 0 -96.5 28t-57.5 86l60 17q12 -34 34.5 -53t59.5 -19q38 0 60 19t34 53l60 -17q-13 -58 -57 -86t-97 -28z" />
    <glyph glyph-name="dotaccent" unicode="&#x2d9;" horiz-adv-x="180" 
d="M50 600v100h80v-100h-80z" />
    <glyph glyph-name="ring" unicode="&#x2da;" horiz-adv-x="442" 
d="M186 571q-35 0 -66.5 9.5t-50.5 32t-19 61.5q0 40 20 62t51.5 31t64.5 9t64 -9t50.5 -31t19.5 -62t-19.5 -62.5t-50.5 -31.5t-64 -9zM184 622q33 0 56 9.5t23 42.5q0 32 -23 41.5t-56 9.5q-34 0 -55.5 -9.5t-21.5 -41.5q0 -33 23 -42.5t54 -9.5z" />
    <glyph glyph-name="ogonek" unicode="&#x2db;" horiz-adv-x="318" 
d="M200 -248q-50 5 -86 22.5t-55 50t-19 79.5q0 36 16.5 66.5t48.5 49.5l66 -20q-26 -15 -42 -38.5t-16 -53.5q0 -47 27 -66.5t74 -27.5z" />
    <glyph glyph-name="tilde" unicode="&#x2dc;" horiz-adv-x="401" 
d="M68 592l-18 54q17 26 39.5 37.5t47.5 11.5q33 0 53 -9.5t37 -19.5t39 -10q20 0 35 10t32 32l18 -54q-17 -26 -39 -37.5t-48 -11.5q-32 0 -52.5 10t-37.5 19.5t-39 9.5q-19 0 -34.5 -10t-32.5 -32z" />
    <glyph glyph-name="hungarumlaut" unicode="&#x2dd;" horiz-adv-x="600" 
d="M50 600l100 150h85l-100 -150h-85zM223 600l100 150h85l-100 -150h-85z" />
    <glyph glyph-name="gravecomb" unicode="&#x300;" horiz-adv-x="0" 
d="M150 600l-100 150h85l100 -150h-85z" />
    <glyph glyph-name="acutecomb" unicode="&#x301;" horiz-adv-x="0" 
d="M50 600l100 150h85l-100 -150h-85z" />
    <glyph glyph-name="uni0302" unicode="&#x302;" horiz-adv-x="0" 
d="M50 600l91 150h81l93 -150h-79l-36 67l-11 34q-2 8 -6 8t-6 -8l-11 -34l-37 -67h-79z" />
    <glyph glyph-name="tildecomb" unicode="&#x303;" horiz-adv-x="0" 
d="M68 592l-18 54q17 26 39.5 37.5t47.5 11.5q33 0 53 -9.5t37 -19.5t39 -10q20 0 35 10t32 32l18 -54q-17 -26 -39 -37.5t-48 -11.5q-32 0 -52.5 10t-37.5 19.5t-39 9.5q-19 0 -34.5 -10t-32.5 -32z" />
    <glyph glyph-name="uni0304" unicode="&#x304;" horiz-adv-x="0" 
d="M50 610v60h250v-60h-250z" />
    <glyph glyph-name="uni0306" unicode="&#x306;" horiz-adv-x="0" 
d="M214 607q-53 0 -96.5 28t-57.5 86l60 17q12 -34 34.5 -53t59.5 -19q38 0 60 19t34 53l60 -17q-13 -58 -57 -86t-97 -28z" />
    <glyph glyph-name="uni0307" unicode="&#x307;" horiz-adv-x="0" 
d="M50 600v100h80v-100h-80z" />
    <glyph glyph-name="uni0308" unicode="&#x308;" horiz-adv-x="0" 
d="M221 600v100h81v-100h-81zM50 600v100h81v-100h-81z" />
    <glyph glyph-name="uni030A" unicode="&#x30a;" horiz-adv-x="0" 
d="M186 571q-35 0 -66.5 9.5t-50.5 32t-19 61.5q0 40 20 62t51.5 31t64.5 9t64 -9t50.5 -31t19.5 -62t-19.5 -62.5t-50.5 -31.5t-64 -9zM184 622q33 0 56 9.5t23 42.5q0 32 -23 41.5t-56 9.5q-34 0 -55.5 -9.5t-21.5 -41.5q0 -33 23 -42.5t54 -9.5z" />
    <glyph glyph-name="uni030B" unicode="&#x30b;" horiz-adv-x="0" 
d="M50 600l100 150h85l-100 -150h-85zM223 600l100 150h85l-100 -150h-85z" />
    <glyph glyph-name="uni030C" unicode="&#x30c;" horiz-adv-x="0" 
d="M145 600l-95 150h75l41 -67l11 -34q2 -7 6 -7t6 7l11 34l40 67h75l-95 -150h-75z" />
    <glyph glyph-name="uni0312" unicode="&#x312;" horiz-adv-x="0" 
d="M196 876l-9 -44q-59 -10 -92 -49t-36 -98h57v-100h-105v86q0 57 22.5 100t64 70.5t98.5 34.5z" />
    <glyph glyph-name="uni0326" unicode="&#x326;" horiz-adv-x="0" 
d="M100 -322l-50 40q37 24 58 52t29.5 64t8.5 84h69q0 -58 -10.5 -101t-35.5 -76t-69 -63z" />
    <glyph glyph-name="uni0327" unicode="&#x327;" horiz-adv-x="0" 
d="M50 -250l17 62q59 0 92 13.5t33 36.5q0 21 -26 27.5t-81 6.5l31 126l60 -22l-13 -51q44 -5 70.5 -27.5t26.5 -56.5q0 -37 -29.5 -62.5t-77.5 -39t-103 -13.5z" />
    <glyph glyph-name="uni0328" unicode="&#x328;" horiz-adv-x="0" 
d="M200 -248q-50 5 -86 22.5t-55 50t-19 79.5q0 36 16.5 66.5t48.5 49.5l66 -20q-26 -15 -42 -38.5t-16 -53.5q0 -47 27 -66.5t74 -27.5z" />
    <glyph glyph-name="uni0335" unicode="&#x335;" horiz-adv-x="0" 
d="M50 225v69h291v-69h-291z" />
    <glyph glyph-name="uni0336" unicode="&#x336;" horiz-adv-x="0" 
d="M50 225v69h651v-69h-651z" />
    <glyph glyph-name="uni0337" unicode="&#x337;" horiz-adv-x="0" 
d="M34 0l389 500h80l-389 -500h-80z" />
    <glyph glyph-name="uni0338" unicode="&#x338;" horiz-adv-x="0" 
d="M34 0l545 700h80l-545 -700h-80z" />
    <glyph glyph-name="uni03BC" unicode="&#x3bc;" horiz-adv-x="537" 
d="M76 -165l-1 665h80v-348q0 -42 26.5 -67t78.5 -25q51 0 79 25t28 67v348h80v-500h-80v18q0 10 -6 12t-14 -3l-51 -32q-22 -7 -58 -7q-24 0 -45 4.5t-38 12.5v-170h-79z" />
    <glyph glyph-name="uni0400" unicode="&#x400;" horiz-adv-x="553" 
d="M90 0v700h403v-78h-325v-233h308v-78h-308v-233h325v-78h-403zM264 770l-100 150h85l100 -150h-85z" />
    <glyph glyph-name="uni0401" unicode="&#x401;" horiz-adv-x="553" 
d="M90 0v700h403v-78h-325v-233h308v-78h-308v-233h325v-78h-403zM342 770v100h81v-100h-81zM171 770v100h81v-100h-81z" />
    <glyph glyph-name="uni0402" unicode="&#x402;" horiz-adv-x="685" 
d="M419 -9q-15 0 -29 3t-24 7l20 66q15 -5 33 -5q50 0 78 22t39 56.5t11 70.5q0 74 -35.5 106.5t-96.5 32.5q-43 0 -76.5 -8.5t-53.5 -20.5v85q0 -10 6 -13t14 1l51 22q14 4 36.5 6.5t38.5 2.5q49 0 94.5 -20.5t75 -67.5t29.5 -126q0 -61 -21 -111t-67.5 -79.5t-122.5 -29.5
zM202 0v622h-172v78h428v-78h-173v-622h-83z" />
    <glyph glyph-name="uni0403" unicode="&#x403;" horiz-adv-x="432" 
d="M90 0v700h332v-78h-249v-622h-83zM173 800l100 150h85l-100 -150h-85z" />
    <glyph glyph-name="uni0404" unicode="&#x404;" horiz-adv-x="513" 
d="M305 -12q-70 0 -121.5 25t-81.5 75.5t-36 125.5q-2 29 -4 67t-2 69q0 32 2 69.5t4 66.5q6 76 36 126t81.5 75t121.5 25q45 0 88 -15.5t80 -45.5l-25 -70q-31 26 -67.5 39.5t-75.5 13.5q-73 0 -113 -40t-45 -118q-2 -36 -3.5 -65t-1.5 -61q0 -31 1.5 -60.5t3.5 -65.5
q5 -78 45 -118t113 -40q39 0 75.5 13.5t67.5 39.5l25 -70q-37 -30 -80 -45.5t-88 -15.5zM118 311v78h278v-78h-278z" />
    <glyph glyph-name="uni0405" unicode="&#x405;" horiz-adv-x="503" 
d="M245 -10q-58 0 -112 18.5t-91 49.5l30 70q33 -29 78 -45t91 -16q71 0 107 36t36 93q0 48 -26 84t-89 43l-48 5q-56 6 -96 29t-61 62.5t-21 93.5q0 57 28 101.5t79.5 70t122.5 25.5q44 0 90 -12t86 -38l-25 -70q-36 25 -75 35t-75 10q-72 0 -110.5 -32.5t-38.5 -84.5
q0 -53 29 -80t77 -32l48 -5q91 -10 138.5 -64t47.5 -136q0 -60 -26.5 -108t-75.5 -75.5t-118 -27.5z" />
    <glyph glyph-name="uni0406" unicode="&#x406;" horiz-adv-x="423" 
d="M50 0v76h120v548h-120v76h323v-76h-120v-548h120v-76h-323z" />
    <glyph glyph-name="uni0407" unicode="&#x407;" horiz-adv-x="423" 
d="M50 0v76h120v548h-120v76h323v-76h-120v-548h120v-76h-323zM257 770v100h81v-100h-81zM86 770v100h81v-100h-81z" />
    <glyph glyph-name="uni0408" unicode="&#x408;" horiz-adv-x="447" 
d="M170 -12q-37 0 -82.5 15.5t-77.5 46.5l25 71q15 -20 38.5 -32t50 -17.5t46.5 -5.5q48 0 76.5 23t28.5 65v468h-160v78h242v-546q0 -78 -50.5 -122t-136.5 -44z" />
    <glyph glyph-name="uni0409" unicode="&#x409;" horiz-adv-x="886" 
d="M41 -16l-31 73q50 12 77.5 48t34.5 100q9 89 14 210.5t6 284.5h322v-78h-243q-3 -136 -7 -246.5t-13 -191.5q-9 -82 -51 -132.5t-109 -67.5zM430 0v700h83v-294h128q101 0 158 -54t57 -149t-57 -149t-158 -54h-211zM513 70h128q63 0 97.5 36t34.5 97t-34.5 97t-97.5 36
h-128v-266z" />
    <glyph glyph-name="uni040A" unicode="&#x40a;" horiz-adv-x="903" 
d="M90 0v700h83v-295h274v295h83v-700h-83v327h-274v-327h-83zM447 0v700h83v-294h128q101 0 158 -54t57 -149t-57 -149t-158 -54h-211zM530 70h128q63 0 97.5 36t34.5 97t-34.5 97t-97.5 36h-128v-266z" />
    <glyph glyph-name="uni040B" unicode="&#x40b;" horiz-adv-x="710" 
d="M547 0v231q0 63 -33 91t-89 28q-43 0 -80.5 -8.5t-59.5 -20.5v85q0 -10 6 -13t14 1l51 22q16 5 38.5 7t39.5 2q49 0 93.5 -18t73.5 -58.5t29 -108.5v-240h-83zM202 0v622h-172v78h428v-78h-173v-622h-83z" />
    <glyph glyph-name="uni040C" unicode="&#x40c;" horiz-adv-x="538" 
d="M90 0v700h82v-312h75l169 312h90l-191 -344l193 -356h-90l-171 313h-75v-313h-82zM216 770l100 150h85l-100 -150h-85z" />
    <glyph glyph-name="uni040D" unicode="&#x40d;" horiz-adv-x="639" 
d="M90 0v700h83v-466l-11 -67q-1 -7 4 -9.5t9 4.5l301 538h73v-700h-83v466l10 65q2 8 -3.5 10t-10.5 -7l-299 -534h-73zM279 770l-100 150h85l100 -150h-85z" />
    <glyph glyph-name="uni040E" unicode="&#x40e;" horiz-adv-x="507" 
d="M139 -12q-22 0 -44 6t-39 18l28 67q10 -6 25 -11.5t31 -5.5q35 0 55 20.5t31 53.5l-211 564h85l148 -409l13 -71q1 -5 7 -5t7 5l13 71l124 409h85l-189 -564q-28 -84 -67.5 -116t-101.5 -32zM257 777q-53 0 -96.5 28t-57.5 86l60 17q12 -34 34.5 -53t59.5 -19q38 0 60 19
t34 53l60 -17q-13 -58 -57 -86t-97 -28z" />
    <glyph glyph-name="uni040F" unicode="&#x40f;" horiz-adv-x="620" 
d="M270 -140v140h-180v700h83v-624h274v624h83v-700h-187v-140h-73z" />
    <glyph glyph-name="uni0410" unicode="&#x410;" 
d="M30 0l197 700h120l199 -700h-85l-158 574l-8 53q-1 6 -6.5 6t-6.5 -6l-9 -53l-158 -574h-85zM138 187l22 74h256l22 -74h-300zM113 627v73h141v-73h-141z" />
    <glyph glyph-name="uni0411" unicode="&#x411;" horiz-adv-x="563" 
d="M90 0v700h372v-78h-294v-216h130q70 0 118 -25.5t72.5 -71.5t24.5 -109q0 -98 -59 -149t-157 -51h-207zM168 70h130q61 0 99 33t38 97q0 67 -38 101.5t-99 34.5h-130v-266z" />
    <glyph glyph-name="uni0412" unicode="&#x412;" horiz-adv-x="563" 
d="M90 0v700h217q91 0 141.5 -49.5t50.5 -140.5q0 -55 -25.5 -95t-69.5 -60q50 -18 79.5 -62t29.5 -103q0 -91 -54 -140.5t-152 -49.5h-217zM168 70h140q61 0 94 32t33 88q0 59 -33 92.5t-94 33.5h-140v-246zM168 386h140q54 0 83.5 33t29.5 91q0 56 -29.5 88t-83.5 32h-140
v-244z" />
    <glyph glyph-name="uni0413" unicode="&#x413;" horiz-adv-x="432" 
d="M90 0v700h332v-78h-249v-622h-83z" />
    <glyph glyph-name="uni0414" unicode="&#x414;" horiz-adv-x="627" 
d="M20 -140v216h39q29 20 48.5 62t25.5 106q7 75 11.5 187.5t5.5 268.5h377l-3 -700h-431v-140h-73zM175 76h269v546h-216q-1 -137 -6 -232.5t-10 -149.5q-2 -24 -6.5 -48t-9.5 -47l-31 -51q-4 -7 -1.5 -12.5t11.5 -5.5zM524 -140v186l-16 30h89v-216h-73z" />
    <glyph glyph-name="uni0415" unicode="&#x415;" horiz-adv-x="553" 
d="M90 0v700h403v-78h-325v-233h308v-78h-308v-233h325v-78h-403z" />
    <glyph glyph-name="uni0416" unicode="&#x416;" horiz-adv-x="792" 
d="M30 0l183 353l-183 347h90l159 -313h75v313h82v-313h75l159 313h85l-178 -344l185 -356h-90l-161 312h-75v-312h-82v312h-75l-161 -312h-88z" />
    <glyph glyph-name="uni0417" unicode="&#x417;" horiz-adv-x="518" 
d="M237 -6q-61 0 -111.5 18.5t-95.5 54.5l29 69q22 -19 50 -33.5t58.5 -23t58.5 -8.5q83 0 121.5 33.5t38.5 92.5q0 56 -35.5 86.5t-110.5 30.5h-112v76h112q68 0 99 34t31 92q0 53 -33 83t-92 30q-40 0 -86.5 -11.5t-78.5 -34.5l-27 69q47 27 93.5 40.5t101.5 13.5
q33 0 68 -9.5t66 -31.5t50 -58.5t19 -90.5q0 -63 -32.5 -104t-72.5 -52q30 -8 58 -30t46 -55.5t18 -77.5q0 -76 -33.5 -120.5t-86 -63.5t-111.5 -19z" />
    <glyph glyph-name="uni0418" unicode="&#x418;" horiz-adv-x="639" 
d="M90 0v700h83v-466l-11 -67q-1 -7 4 -9.5t9 4.5l301 538h73v-700h-83v466l10 65q2 8 -3.5 10t-10.5 -7l-299 -534h-73z" />
    <glyph glyph-name="uni0419" unicode="&#x419;" horiz-adv-x="639" 
d="M90 0v700h83v-466l-11 -67q-1 -7 4 -9.5t9 4.5l301 538h73v-700h-83v466l10 65q2 8 -3.5 10t-10.5 -7l-299 -534h-73zM312 777q-53 0 -96.5 28t-57.5 86l60 17q12 -34 34.5 -53t59.5 -19q38 0 60 19t34 53l60 -17q-13 -58 -57 -86t-97 -28z" />
    <glyph glyph-name="uni041A" unicode="&#x41a;" horiz-adv-x="538" 
d="M90 0v700h82v-312h75l169 312h90l-191 -344l193 -356h-90l-171 313h-75v-313h-82z" />
    <glyph glyph-name="uni041B" unicode="&#x41b;" horiz-adv-x="600" 
d="M41 -16l-31 73q50 12 77.5 48t34.5 100q10 89 14.5 210.5t5.5 284.5h368v-700h-83v622h-206q-3 -136 -7 -246.5t-13 -191.5q-9 -82 -51 -132.5t-109 -67.5z" />
    <glyph glyph-name="uni041C" unicode="&#x41c;" horiz-adv-x="674" 
d="M90 0v700h70l166 -314q5 -9 11.5 -9t10.5 9l166 314h70v-700h-80v456l10 63q1 7 -3.5 9t-9.5 -6l-139 -257h-50l-139 257q-4 8 -9 6t-4 -9l10 -63v-456h-80z" />
    <glyph glyph-name="uni041D" unicode="&#x41d;" horiz-adv-x="620" 
d="M90 0v700h83v-311h274v311h83v-700h-83v311h-274v-311h-83z" />
    <glyph glyph-name="uni041E" unicode="&#x41e;" horiz-adv-x="606" 
d="M303 -12q-54 0 -96.5 16t-72.5 47q-21 22 -38 55.5t-26.5 91.5t-9.5 152t9.5 152t26.5 92t38 55q30 31 72.5 47t96.5 16t96.5 -16t72.5 -47q22 -21 38.5 -55t26 -92t9.5 -152t-9.5 -152t-26 -91.5t-38.5 -55.5q-30 -31 -72.5 -47t-96.5 -16zM303 66q74 0 112.5 40
t42.5 108q3 44 4.5 74.5t1.5 61.5q0 32 -1.5 62.5t-4.5 73.5q-4 68 -42.5 108t-112.5 40t-112.5 -40t-42.5 -108q-3 -43 -4.5 -73.5t-1.5 -62.5q0 -31 1.5 -61.5t4.5 -74.5q4 -68 42.5 -108t112.5 -40z" />
    <glyph glyph-name="uni041F" unicode="&#x41f;" horiz-adv-x="620" 
d="M90 0v700h440v-700h-83v624h-274v-624h-83z" />
    <glyph glyph-name="uni0420" unicode="&#x420;" horiz-adv-x="553" 
d="M90 0v700h240q89 0 141 -53.5t52 -143.5q0 -89 -52 -140.5t-141 -51.5h-160v-311h-80zM170 384h150q56 0 89 31.5t33 87.5q0 59 -33 93t-89 34h-150v-246z" />
    <glyph glyph-name="uni0421" unicode="&#x421;" horiz-adv-x="503" 
d="M303 -12q-70 0 -121 25t-80.5 75.5t-35.5 125.5q-2 29 -4 67t-2 69q0 32 2 69.5t4 66.5q6 76 35.5 126t80.5 75t121 25q43 0 84 -15.5t76 -45.5l-25 -70q-30 26 -64 39.5t-71 13.5q-72 0 -111.5 -40t-44.5 -118q-2 -36 -3.5 -65t-1.5 -61q0 -31 1.5 -60.5t3.5 -65.5
q5 -78 44.5 -118t111.5 -40q37 0 71 13.5t64 39.5l25 -70q-35 -30 -76 -45.5t-84 -15.5z" />
    <glyph glyph-name="uni0422" unicode="&#x422;" horiz-adv-x="488" 
d="M202 0v622h-172v78h428v-78h-173v-622h-83z" />
    <glyph glyph-name="uni0423" unicode="&#x423;" horiz-adv-x="507" 
d="M139 -12q-22 0 -44 6t-39 18l28 67q10 -6 25 -11.5t31 -5.5q35 0 55 20.5t31 53.5l-211 564h85l148 -409l13 -71q1 -5 7 -5t7 5l13 71l124 409h85l-189 -564q-28 -84 -67.5 -116t-101.5 -32z" />
    <glyph glyph-name="uni0424" unicode="&#x424;" horiz-adv-x="723" 
d="M320 -10v76q0 17 -16 15l-65 -5q-80 20 -123.5 72t-54.5 114q-4 23 -5 44.5t-1 43.5t1 44t5 44q10 62 54 114t124 72l65 -5q16 -2 16 15v76h83v-76q0 -17 16 -15l65 5q80 -20 124 -72t54 -114q4 -22 5 -44t1 -44t-1 -43.5t-5 -44.5q-10 -62 -54 -114t-124 -72l-65 5
q-16 2 -16 -15v-76h-83zM320 137v424q-60 0 -98 -18t-57 -47t-23 -63q-6 -46 -6 -84.5t7 -83.5q6 -33 24.5 -62.5t55.5 -47.5t97 -18zM403 137q60 0 97 18t56 47.5t24 62.5q7 45 6.5 83.5t-5.5 84.5q-3 34 -22 63t-57.5 47t-98.5 18v-424z" />
    <glyph glyph-name="uni0425" unicode="&#x425;" horiz-adv-x="522" 
d="M20 0l186 350l-186 350h94l127 -255l13 -41q2 -5 7.5 -5t6.5 5l13 41l127 255h94l-186 -350l186 -350h-94l-127 255l-13 41q-1 5 -6.5 5t-7.5 -5l-13 -41l-127 -255h-94z" />
    <glyph glyph-name="uni0426" unicode="&#x426;" horiz-adv-x="630" 
d="M90 0v700h83v-624h274v624h83l-3 -700h-437zM527 -140v186l-16 30h89v-216h-73z" />
    <glyph glyph-name="uni0427" unicode="&#x427;" horiz-adv-x="579" 
d="M405 0v294q0 10 -6 13t-14 -1l-51 -23q-13 -4 -37 -6t-41 -2q-48 0 -93 18t-74 58.5t-29 108.5v240h83v-231q0 -63 33 -91t89 -28q44 0 81 8.5t59 20.5v321h84v-700h-84z" />
    <glyph glyph-name="uni0428" unicode="&#x428;" horiz-adv-x="797" 
d="M90 0v700h83v-624h184v624h83v-624h184v624h83v-700h-617z" />
    <glyph glyph-name="uni0429" unicode="&#x429;" horiz-adv-x="807" 
d="M90 0v700h83v-624h184v624h83v-624h184v624h83l-3 -700h-614zM704 -140v186l-16 30h89v-216h-73z" />
    <glyph glyph-name="uni042A" unicode="&#x42a;" horiz-adv-x="606" 
d="M150 0v630h-120v70h203v-294h128q101 0 158 -54t57 -149t-57 -149t-158 -54h-211zM233 70h128q63 0 97.5 36t34.5 97t-34.5 97t-97.5 36h-128v-266z" />
    <glyph glyph-name="uni042B" unicode="&#x42b;" horiz-adv-x="779" 
d="M90 0v700h83v-294h128q101 0 158 -54t57 -149t-57 -149t-158 -54h-211zM173 70h128q63 0 97.5 36t34.5 97t-34.5 97t-97.5 36h-128v-266zM606 0v700h83v-700h-83z" />
    <glyph glyph-name="uni042C" unicode="&#x42c;" horiz-adv-x="546" 
d="M90 0v700h83v-294h128q101 0 158 -54t57 -149t-57 -149t-158 -54h-211zM173 70h128q63 0 97.5 36t34.5 97t-34.5 97t-97.5 36h-128v-266z" />
    <glyph glyph-name="uni042D" unicode="&#x42d;" horiz-adv-x="513" 
d="M208 -12q-45 0 -88 15.5t-80 45.5l25 70q32 -26 68 -39.5t75 -13.5q73 0 113.5 40t44.5 118q2 36 3.5 65.5t1.5 60.5q0 32 -1.5 61t-3.5 65q-5 78 -43 118t-106 40q-39 0 -75 -13.5t-68 -39.5l-25 70q37 30 80 45.5t88 15.5q68 0 117.5 -25t78 -75t34.5 -126
q2 -29 4 -66.5t2 -69.5q0 -31 -2 -69t-4 -67q-6 -75 -36 -125.5t-81 -75.5t-122 -25zM117 311v78h278v-78h-278z" />
    <glyph glyph-name="uni042E" unicode="&#x42e;" horiz-adv-x="850" 
d="M547 -12q-54 0 -96 16t-73 47q-21 22 -38 55.5t-26.5 91.5t-9.5 152t10 152t26.5 91.5t37.5 55.5q30 31 72.5 47t96.5 16t96 -16t73 -47q22 -21 38.5 -55t26 -92t9.5 -152t-9.5 -151.5t-26.5 -91.5t-38 -56q-30 -31 -72.5 -47t-96.5 -16zM90 0v700h83v-311h198v-78h-198
v-311h-83zM547 66q74 0 112.5 40t42.5 108q3 44 4.5 74.5t1.5 61.5q0 32 -2 62.5t-4 73.5q-4 68 -42.5 108t-112.5 40t-112 -40t-43 -108q-3 -43 -4.5 -73.5t-1.5 -62.5q0 -31 2 -61.5t4 -74.5q4 -68 42.5 -108t112.5 -40z" />
    <glyph glyph-name="uni042F" unicode="&#x42f;" horiz-adv-x="579" 
d="M50 0l112 233l32 53q5 8 4 13t-8 6q-64 16 -99 65t-35 121q0 100 57.5 154.5t157.5 54.5h218v-700h-83v291h-131l-133 -291h-92zM261 364h145v266h-135q-61 0 -97 -36t-36 -103q0 -61 33 -94t90 -33z" />
    <glyph glyph-name="uni0430" unicode="&#x430;" horiz-adv-x="491" 
d="M373 -12l-33 49q-6 9 -14 2q-24 -21 -50.5 -35.5t-70.5 -14.5q-71 0 -113 39t-42 102q0 45 19.5 76t55.5 47.5t84 16.5h117v72q0 43 -25 69t-79 26q-39 0 -70 -11.5t-63 -36.5l-25 70q38 29 77 41t86 12q89 0 132.5 -46t43.5 -115v-255l43 -64zM209 58q54 0 85.5 26
t31.5 69v45q0 19 -18 14l-55 -12h-38q-40 0 -62.5 -17.5t-22.5 -49.5q0 -33 21.5 -54t57.5 -21z" />
    <glyph glyph-name="uni0431" unicode="&#x431;" horiz-adv-x="515" 
d="M257 -12q-53 0 -92.5 20.5t-63 55.5t-31.5 77q-6 29 -8 62.5t-2 73.5q0 117 7.5 199.5t28 135.5t59.5 81t101 37q27 4 44.5 5.5t33.5 2.5q21 2 41 7.5t40 16.5l25 -62q-22 -12 -48.5 -19.5t-52.5 -11.5t-41 -5.5t-33 -4.5q-52 -9 -77.5 -36t-35 -66t-12.5 -86
q-1 -8 4.5 -11.5t10.5 0.5l48 38q17 7 33 10t32 3q61 0 99.5 -26t59.5 -65.5t27 -80.5q6 -49 6 -92q0 -40 -6 -88q-10 -76 -60 -123.5t-137 -47.5zM261 58q55 0 84 32t33 75q4 45 4 83.5t-4 84.5q-4 44 -33 75.5t-84 31.5t-86.5 -31.5t-34.5 -75.5q-3 -46 -3 -84.5t4 -83.5
q5 -43 35 -75t85 -32z" />
    <glyph glyph-name="uni0432" unicode="&#x432;" horiz-adv-x="503" 
d="M85 0v500h190q76 0 118.5 -35.5t42.5 -100.5q0 -38 -20.5 -66t-55.5 -42q41 -13 64.5 -43.5t23.5 -74.5q0 -66 -44.5 -102t-125.5 -36h-193zM162 66h111q45 0 69.5 19.5t24.5 55.5q0 35 -24.5 56t-69.5 21h-111v-152zM162 284h107q41 0 63.5 20t22.5 55t-22.5 55
t-63.5 20h-107v-150z" />
    <glyph glyph-name="uni0433" unicode="&#x433;" horiz-adv-x="410" 
d="M85 0v500h295v-70h-215v-430h-80z" />
    <glyph glyph-name="uni0434" unicode="&#x434;" horiz-adv-x="522" 
d="M20 -130v200h29q18 11 30.5 26.5t17.5 35.5q8 35 13 83t8 117.5t4 167.5h313v-430h60v-200h-72v130h-331v-130h-72zM164 70h191v360h-157q-2 -98 -9 -175t-12 -111l-24 -56q-7 -18 11 -18z" />
    <glyph glyph-name="uni0435" unicode="&#x435;" horiz-adv-x="481" 
d="M259 -10q-61 0 -103 22.5t-65.5 61.5t-29.5 88q-3 24 -4.5 45t-1.5 42q0 40 6 89q8 74 56.5 123t132.5 49q61 0 98 -22t56 -57t25.5 -74t6.5 -72l-20 -53l-302 1v69h246q0 34 -8.5 65.5t-32.5 52t-69 20.5q-53 0 -82 -32.5t-33 -74.5q-2 -25 -3.5 -68.5t4.5 -98.5
q5 -43 33.5 -75.5t89.5 -32.5q38 0 72.5 12t62.5 34l24 -61q-41 -29 -75 -41t-84 -12z" />
    <glyph glyph-name="uni0436" unicode="&#x436;" horiz-adv-x="700" 
d="M30 0l163 292l-5 -51l-154 259h88l120 -210h67v210h80v-210h67l120 210h87l-149 -259l-8 51l164 -292h-90l-123 220h-68v-220h-80v220h-68l-123 -220h-88z" />
    <glyph glyph-name="uni0437" unicode="&#x437;" horiz-adv-x="448" 
d="M200 -7q-54 0 -97 12.5t-83 42.5l27 65q20 -16 43.5 -27t49 -16t51.5 -5q64 0 93.5 21.5t29.5 58.5q0 34 -25 55.5t-74 21.5h-85v69h85q42 0 64 20t22 56q0 34 -28.5 54t-80.5 20q-32 0 -68 -8t-64 -26l-25 64q38 23 77 32t84 9q30 0 62 -7.5t59.5 -24t44.5 -44t17 -67.5
q0 -46 -24.5 -74t-56.5 -38q23 -6 44.5 -20t36 -37t14.5 -58q0 -54 -28.5 -87t-73 -47.5t-91.5 -14.5z" />
    <glyph glyph-name="uni0438" unicode="&#x438;" horiz-adv-x="550" 
d="M85 0v500h80v-305l-11 -67q-1 -7 4 -9.5t9 4.5l223 377h75v-500h-80v304l10 65q2 8 -3 10.5t-11 -7.5l-220 -372h-76z" />
    <glyph glyph-name="uni0439" unicode="&#x439;" horiz-adv-x="550" 
d="M85 0v500h80v-305l-11 -67q-1 -7 4 -9.5t9 4.5l223 377h75v-500h-80v304l10 65q2 8 -3 10.5t-11 -7.5l-220 -372h-76zM270 607q-53 0 -96.5 28t-57.5 86l60 17q12 -34 34.5 -53t59.5 -19q38 0 60 19t34 53l60 -17q-13 -58 -57 -86t-97 -28z" />
    <glyph glyph-name="uni043A" unicode="&#x43a;" horiz-adv-x="487" 
d="M85 0v500h82v-210h69l127 210h85l-153 -259l-11 50l173 -291h-90l-133 220h-67v-220h-82z" />
    <glyph glyph-name="uni043B" unicode="&#x43b;" horiz-adv-x="520" 
d="M46 -10l-25 65q31 9 53.5 28.5t29.5 48.5q8 35 13 83t8 117.5t4 167.5h306v-500h-80v430h-150q-2 -98 -10 -178t-17 -132q-11 -57 -46.5 -88t-85.5 -42z" />
    <glyph glyph-name="uni043C" unicode="&#x43c;" horiz-adv-x="664" 
d="M85 0v500h68l168 -290q5 -9 11 -9t11 9l168 290h68v-500h-78v274l10 63q1 7 -3.5 9t-9.5 -6l-141 -235h-50l-141 235q-4 8 -9 6t-4 -9l10 -63v-274h-78z" />
    <glyph glyph-name="uni043D" unicode="&#x43d;" horiz-adv-x="537" 
d="M85 0v500h80v-210h207v210h80v-500h-80v220h-207v-220h-80z" />
    <glyph glyph-name="uni043E" unicode="&#x43e;" horiz-adv-x="510" 
d="M255 -11q-87 0 -136 49.5t-58 123.5q-6 48 -6 87q0 21 1.5 42.5t4.5 46.5q9 75 58 124t136 49t136 -49t58 -124q6 -49 6 -89q0 -39 -6 -87q-9 -74 -58 -123.5t-136 -49.5zM255 58q55 0 84 32t33 75q4 45 4 83.5t-4 84.5q-4 44 -33 75.5t-84 31.5t-85 -31.5t-33 -75.5
q-3 -46 -3 -84.5t4 -83.5q5 -43 33.5 -75t83.5 -32z" />
    <glyph glyph-name="uni043F" unicode="&#x43f;" horiz-adv-x="534" 
d="M85 0v500h364v-500h-80v430h-204v-430h-80z" />
    <glyph glyph-name="uni0440" unicode="&#x440;" horiz-adv-x="529" 
d="M85 -200v700h80v-28q20 17 52 27.5t67 10.5q87 0 133 -47.5t53 -123.5q2 -25 3 -46t1 -42q0 -20 -1 -41.5t-3 -47.5q-7 -76 -53 -124t-133 -48q-17 0 -26.5 1.5t-21.5 3.5l-50 32q-8 5 -14.5 1.5t-6.5 -12.5v-216h-80zM275 58q60 0 86.5 32t30.5 77q3 41 3.5 83t-3.5 83
q-4 45 -30.5 76t-86.5 31q-52 0 -81 -23.5t-29 -64.5v-204q0 -40 29 -65t81 -25z" />
    <glyph glyph-name="uni0441" unicode="&#x441;" horiz-adv-x="441" 
d="M255 -14q-87 0 -136 49.5t-58 124.5q-6 50 -6 89q0 21 1.5 42.5t4.5 46.5q9 75 58 124.5t136 49.5q44 0 76 -11t65 -33l-24 -65q-28 18 -55 27.5t-61 9.5q-55 0 -85.5 -31.5t-33.5 -75.5q-3 -47 -3.5 -84.5t3.5 -83.5q4 -43 34 -75t85 -32q33 0 63.5 9t58.5 27l23 -60
q-38 -25 -71.5 -36.5t-74.5 -11.5z" />
    <glyph glyph-name="uni0442" unicode="&#x442;" horiz-adv-x="448" 
d="M184 0v430h-154v70h388v-70h-154v-430h-80z" />
    <glyph glyph-name="uni0443" unicode="&#x443;" horiz-adv-x="469" 
d="M101 -220l-29 72q52 15 76 49t39 83l13 43l-180 473h84l120 -315l9 -54q2 -8 7.5 -8t6.5 8l12 54l97 315h83l-177 -548q-20 -62 -60 -106t-101 -66z" />
    <glyph glyph-name="uni0444" unicode="&#x444;" horiz-adv-x="664" 
d="M295 -252v239q0 17 -16 15l-65 -5q-37 5 -70 27t-55 57t-28 79q-3 25 -4.5 46.5t-1.5 42.5t1.5 42.5t4.5 46.5q4 44 26.5 79t56 57.5t70.5 26.5l65 -5q16 -2 16 15v239h74v-239q0 -17 16 -15l65 5q37 -4 70 -26.5t55.5 -57.5t27.5 -79q3 -25 4.5 -46.5t1.5 -42.5
t-1.5 -42.5t-4.5 -46.5q-5 -44 -27.5 -79t-55.5 -57t-70 -27l-65 5q-16 2 -16 -15v-239h-74zM295 53v392q-77 0 -114 -34t-42 -78q-2 -23 -3.5 -44t-1.5 -41q0 -38 6 -83q7 -44 42.5 -78t112.5 -34zM369 53q77 0 112.5 34t42.5 78q4 23 5.5 43.5t1.5 39.5q0 39 -6 85
q-5 44 -42 78t-114 34v-392z" />
    <glyph glyph-name="uni0445" unicode="&#x445;" horiz-adv-x="472" 
d="M30 0l158 250l-158 250h94l88 -152l18 -44q2 -5 7 -5t7 5l18 44l86 152h94l-156 -250l156 -250h-94l-86 152l-18 44q-2 5 -7 5t-7 -5l-18 -44l-88 -152h-94z" />
    <glyph glyph-name="uni0446" unicode="&#x446;" horiz-adv-x="555" 
d="M85 0v500h80v-430h210v430h80v-500h-370zM443 -130v200h72v-200h-72z" />
    <glyph glyph-name="uni0447" unicode="&#x447;" horiz-adv-x="512" 
d="M347 0v199q0 10 -6 12t-14 -3l-51 -27q-22 -7 -58 -7q-49 0 -84.5 19t-54.5 54t-19 82v171h80v-162q0 -42 25.5 -67t74.5 -25q41 0 66 11t41 28v215h80v-500h-80z" />
    <glyph glyph-name="uni0448" unicode="&#x448;" horiz-adv-x="770" 
d="M85 0v500h80v-430h180v430h80v-430h180v430h80v-500h-600z" />
    <glyph glyph-name="uni0449" unicode="&#x449;" horiz-adv-x="785" 
d="M85 0v500h80v-430h180v430h80v-430h180v430h80v-500h-600zM673 -130v200h72v-200h-72z" />
    <glyph glyph-name="uni044A" unicode="&#x44a;" horiz-adv-x="520" 
d="M125 0v500h80v-182h107q84 0 131 -42t47 -117t-47 -117t-131 -42h-187zM205 70h107q47 0 72.5 24.5t25.5 64.5q0 41 -25.5 65t-72.5 24h-107v-178zM20 430v70h185v-70h-185z" />
    <glyph glyph-name="uni044B" unicode="&#x44b;" horiz-adv-x="690" 
d="M525 0v500h80v-500h-80zM85 0v500h80v-182h107q84 0 131 -42t47 -117t-47 -117t-131 -42h-187zM165 70h107q47 0 72.5 24.5t25.5 64.5q0 41 -25.5 65t-72.5 24h-107v-178z" />
    <glyph glyph-name="uni044C" unicode="&#x44c;" horiz-adv-x="480" 
d="M85 0v500h80v-182h107q84 0 131 -42t47 -117t-47 -117t-131 -42h-187zM165 70h107q47 0 72.5 24.5t25.5 64.5q0 41 -25.5 65t-72.5 24h-107v-178z" />
    <glyph glyph-name="uni044D" unicode="&#x44d;" horiz-adv-x="461" 
d="M196 -14q-44 0 -79.5 11.5t-76.5 36.5l23 60q62 -36 132 -36q60 0 92.5 32t36.5 75q4 46 3.5 83.5t-3.5 84.5q-3 44 -36 75.5t-93 31.5q-37 0 -66 -9.5t-60 -27.5l-24 65q35 22 69.5 33t81.5 11q92 0 143 -49.5t61 -124.5q3 -25 4.5 -46.5t1.5 -42.5q0 -39 -6 -89
q-10 -75 -61 -124.5t-143 -49.5zM336 220h-211v70h211v-70z" />
    <glyph glyph-name="uni044E" unicode="&#x44e;" horiz-adv-x="721" 
d="M85 0v500h80v-210h131v-70h-131v-220h-80zM466 -11q-87 0 -136 49.5t-58 123.5q-6 48 -6 87q0 21 1.5 42.5t4.5 46.5q9 75 58 124t136 49t136 -49t58 -124q6 -49 6 -89q0 -39 -6 -87q-9 -74 -58 -123.5t-136 -49.5zM466 58q55 0 84 32t33 75q4 45 4 83.5t-4 84.5
q-4 44 -33 75.5t-84 31.5t-85 -31.5t-33 -75.5q-3 -46 -3 -84.5t4 -83.5q5 -43 33.5 -75t83.5 -32z" />
    <glyph glyph-name="uni044F" unicode="&#x44f;" horiz-adv-x="496" 
d="M30 0l101 163l32 37q11 12 -3 14q-55 9 -84 45.5t-29 85.5q0 74 44.5 114.5t123.5 40.5h196v-500h-80v200h-90l-122 -200h-89zM214 265h117v167h-117q-40 0 -63.5 -23t-23.5 -64q0 -38 23.5 -59t63.5 -21z" />
    <glyph glyph-name="uni0450" unicode="&#x450;" horiz-adv-x="481" 
d="M259 -10q-61 0 -103 22.5t-65.5 61.5t-29.5 88q-3 24 -4.5 45t-1.5 42q0 40 6 89q8 74 56.5 123t132.5 49q61 0 98 -22t56 -57t25.5 -74t6.5 -72l-20 -53l-302 1v69h246q0 34 -8.5 65.5t-32.5 52t-69 20.5q-53 0 -82 -32.5t-33 -74.5q-2 -25 -3.5 -68.5t4.5 -98.5
q5 -43 33.5 -75.5t89.5 -32.5q38 0 72.5 12t62.5 34l24 -61q-41 -29 -75 -41t-84 -12zM216 600l-100 150h85l100 -150h-85z" />
    <glyph glyph-name="uni0451" unicode="&#x451;" horiz-adv-x="481" 
d="M259 -10q-61 0 -103 22.5t-65.5 61.5t-29.5 88q-3 24 -4.5 45t-1.5 42q0 40 6 89q8 74 56.5 123t132.5 49q61 0 98 -22t56 -57t25.5 -74t6.5 -72l-20 -53l-302 1v69h246q0 34 -8.5 65.5t-32.5 52t-69 20.5q-53 0 -82 -32.5t-33 -74.5q-2 -25 -3.5 -68.5t4.5 -98.5
q5 -43 33.5 -75.5t89.5 -32.5q38 0 72.5 12t62.5 34l24 -61q-41 -29 -75 -41t-84 -12zM294 600v100h81v-100h-81zM123 600v100h81v-100h-81z" />
    <glyph glyph-name="uni0452" unicode="&#x452;" horiz-adv-x="549" 
d="M327 -222l-28 68q41 12 65.5 51t24.5 103h80q0 -46 -10 -82.5t-28 -63t-44.5 -45.5t-59.5 -31zM97 0v750h80v-279q20 16 53 28.5t75 12.5q50 0 87 -19.5t57 -54.5t20 -81v-357h-80v348q0 42 -26.5 67t-75.5 25q-52 0 -81 -25t-29 -67v-348h-80zM1 595v69h311v-69h-311z
" />
    <glyph glyph-name="uni0453" unicode="&#x453;" horiz-adv-x="410" 
d="M85 0v500h295v-70h-215v-430h-80zM152 600l100 150h85l-100 -150h-85z" />
    <glyph glyph-name="uni0454" unicode="&#x454;" horiz-adv-x="461" 
d="M265 -14q-91 0 -142.5 49.5t-61.5 124.5q-6 50 -6 89q0 21 1.5 42.5t4.5 46.5q10 75 61.5 124.5t142.5 49.5q47 0 81.5 -11t69.5 -33l-24 -65q-31 18 -60 27.5t-66 9.5q-60 0 -93 -31.5t-36 -75.5q-3 -47 -3.5 -84.5t3.5 -83.5q4 -43 36.5 -75t92.5 -32q71 0 132 36
l23 -60q-40 -25 -76 -36.5t-80 -11.5zM125 220v70h211v-70h-211z" />
    <glyph glyph-name="uni0455" unicode="&#x455;" horiz-adv-x="452" 
d="M229 -12q-48 0 -92.5 15t-81.5 41l27 68q24 -17 47.5 -28.5t48 -17.5t51.5 -6q53 0 80 23t27 63q0 30 -22.5 50.5t-62.5 23.5l-59 4q-58 4 -97.5 36.5t-39.5 96.5q0 69 49 112t132 43q42 0 82 -10.5t74 -33.5l-26 -65q-23 16 -56 26.5t-74 10.5q-51 0 -78 -20.5
t-27 -59.5q0 -30 20 -46t50 -18l58 -4q74 -5 113.5 -44.5t39.5 -101.5q0 -67 -48 -112.5t-135 -45.5z" />
    <glyph glyph-name="uni0456" unicode="&#x456;" horiz-adv-x="285" 
d="M120 0v430h-70v70h150v-500h-80zM120 600v100h80v-100h-80z" />
    <glyph glyph-name="uni0457" unicode="&#x457;" horiz-adv-x="285" 
d="M120 0v430h-70v70h150v-500h-80zM190 600v100h81v-100h-81zM19 600v100h81v-100h-81z" />
    <glyph glyph-name="uni0458" unicode="&#x458;" horiz-adv-x="286" 
d="M58 -222l-28 68q41 13 65.5 52.5t24.5 106.5v425h-70v70h151l-1 -495q0 -48 -10 -84.5t-28 -64t-44.5 -47t-59.5 -31.5zM120 600v100h80v-100h-80z" />
    <glyph glyph-name="uni0459" unicode="&#x459;" horiz-adv-x="750" 
d="M46 -10l-25 65q31 9 53.5 28.5t29.5 48.5q8 35 13 83t8 117.5t4 167.5h306v-500h-80v430h-150q-2 -98 -10 -178t-17 -132q-11 -57 -46.5 -88t-85.5 -42zM355 0v500h80v-182h107q84 0 131 -42t47 -117t-47 -117t-131 -42h-187zM435 70h107q47 0 72.5 24.5t25.5 64.5
q0 41 -25.5 65t-72.5 24h-107v-178z" />
    <glyph glyph-name="uni045A" unicode="&#x45a;" horiz-adv-x="767" 
d="M85 0v500h80v-183h207v183h80v-182h107q84 0 131 -42t47 -117t-47 -117t-131 -42h-187v247h-207v-247h-80zM452 70h107q47 0 72.5 24.5t25.5 64.5q0 41 -25.5 65t-72.5 24h-107v-178z" />
    <glyph glyph-name="uni045B" unicode="&#x45b;" horiz-adv-x="538" 
d="M-10 595v69h311v-69h-311zM86 0v750h80v-279q20 16 53 28.5t75 12.5q50 0 87 -19.5t57 -54.5t20 -81v-357h-80v348q0 42 -26.5 67t-75.5 25q-52 0 -81 -25t-29 -67v-348h-80z" />
    <glyph glyph-name="uni045C" unicode="&#x45c;" horiz-adv-x="487" 
d="M85 0v500h82v-210h69l127 210h85l-153 -259l-11 50l173 -291h-90l-133 220h-67v-220h-82zM186 600l100 150h85l-100 -150h-85z" />
    <glyph glyph-name="uni045D" unicode="&#x45d;" horiz-adv-x="550" 
d="M85 0v500h80v-305l-11 -67q-1 -7 4 -9.5t9 4.5l223 377h75v-500h-80v304l10 65q2 8 -3 10.5t-11 -7.5l-220 -372h-76zM237 600l-100 150h85l100 -150h-85z" />
    <glyph glyph-name="uni045E" unicode="&#x45e;" horiz-adv-x="469" 
d="M101 -220l-29 72q52 15 76 49t39 83l13 43l-180 473h84l120 -315l9 -54q2 -8 7.5 -8t6.5 8l12 54l97 315h83l-177 -548q-20 -62 -60 -106t-101 -66zM235 607q-53 0 -96.5 28t-57.5 86l60 17q12 -34 34.5 -53t59.5 -19q38 0 60 19t34 53l60 -17q-13 -58 -57 -86t-97 -28z
" />
    <glyph glyph-name="uni045F" unicode="&#x45f;" horiz-adv-x="540" 
d="M85 0v500h80v-430h210v430h80v-500h-370zM234 -130v200h72v-200h-72z" />
    <glyph glyph-name="uni0460" unicode="&#x460;" horiz-adv-x="799" 
d="M536 -12q-43 0 -76 15.5t-56 47t-34.5 79.5t-11.5 112v238h83v-235q0 -52 6 -92t26 -63t63 -23q31 0 52 14t34 48t19 92.5t6 148.5q0 92 -11 170t-34 160h84q17 -50 30 -132t13 -198q0 -104 -11.5 -177t-35.5 -118t-60 -66t-86 -21zM273 -12q-52 0 -90.5 21t-63.5 66
t-37 118t-12 177q0 116 13.5 198t29.5 132h84q-22 -82 -33.5 -160t-11.5 -170q0 -90 6.5 -148.5t20.5 -92.5t37 -48t57 -14q39 0 57 23t23 63t5 92v235h83v-238q0 -64 -11 -112t-32.5 -79.5t-52.5 -47t-72 -15.5zM248 424v76h303v-76h-193h-110z" />
    <glyph glyph-name="uni0461" unicode="&#x461;" horiz-adv-x="649" 
d="M431 -12q-35 0 -62.5 12.5t-46.5 39t-29 67t-10 97.5v296h83v-293q0 -43 4.5 -76.5t18.5 -52.5t42 -19q14 0 28 6t26 26t19.5 63t7.5 116q0 33 -7 77t-19.5 86t-29.5 67h83q12 -18 22.5 -46.5t17.5 -61.5t11 -64.5t4 -57.5q0 -85 -13.5 -140.5t-36.5 -86t-52 -43
t-61 -12.5zM218 -12q-31 0 -60.5 12.5t-52.5 43t-36.5 86t-13.5 140.5q0 26 4 57.5t11 64.5t17.5 61.5t22.5 46.5h83q-17 -25 -29.5 -67t-19.5 -86t-7 -77q0 -73 7.5 -116t19.5 -63t26.5 -26t27.5 -6q28 0 42 19t18.5 52.5t4.5 76.5v293h83v-296q0 -57 -10 -97.5t-29 -67
t-46.5 -39t-62.5 -12.5z" />
    <glyph glyph-name="uni0462" unicode="&#x462;" horiz-adv-x="576" 
d="M10 532v69h381v-69h-381zM120 0v700h83v-294h128q101 0 158 -54t57 -149t-57 -149t-158 -54h-211zM203 70h128q63 0 97.5 36t34.5 97t-34.5 97t-97.5 36h-128v-266z" />
    <glyph glyph-name="uni0463" unicode="&#x463;" horiz-adv-x="503" 
d="M108 0v750h80v-432h107q84 0 131 -42t47 -117t-47 -117t-131 -42h-187zM188 70h107q47 0 72.5 24.5t25.5 64.5q0 41 -25.5 65t-72.5 24h-107v-178zM5 431v69h361v-69h-361z" />
    <glyph glyph-name="uni0464" unicode="&#x464;" horiz-adv-x="765" 
d="M90 0v700h83v-311h170v-78h-170v-311h-83zM557 -12q-70 0 -121.5 25t-81.5 75.5t-36 125.5q-2 29 -4 67t-2 69q0 32 2 69.5t4 66.5q6 76 36 126t81.5 75t121.5 25q45 0 88 -15.5t80 -45.5l-25 -70q-31 26 -67.5 39.5t-75.5 13.5q-73 0 -113 -40t-45 -118q-2 -36 -3.5 -65
t-1.5 -61q0 -31 1.5 -60.5t3.5 -65.5q5 -78 45 -118t113 -40q39 0 75.5 13.5t67.5 39.5l25 -70q-37 -30 -80 -45.5t-88 -15.5zM370 311v78h278v-78h-278z" />
    <glyph glyph-name="uni0465" unicode="&#x465;" horiz-adv-x="639" 
d="M85 0v500h80v-210h70v-70h-70v-220h-80zM443 -14q-91 0 -142.5 49.5t-61.5 124.5q-6 50 -6 89q0 21 1.5 42.5t4.5 46.5q10 75 61.5 124.5t142.5 49.5q47 0 81.5 -11t69.5 -33l-24 -65q-31 18 -60 27.5t-66 9.5q-60 0 -93 -31.5t-36 -75.5q-3 -47 -3.5 -84.5t3.5 -83.5
q4 -43 36.5 -75t92.5 -32q71 0 132 36l23 -60q-40 -25 -76 -36.5t-80 -11.5zM303 220v70h211v-70h-211z" />
    <glyph glyph-name="uni0466" unicode="&#x466;" horiz-adv-x="596" 
d="M20 0l218 700h119l219 -700h-85l-174 574l-12 53q-1 6 -6.5 6t-6.5 -6l-13 -53l-174 -574h-85zM259 0v223l-97 106l47 50l90 -90l90 90l47 -50l-97 -106v-223h-80z" />
    <glyph glyph-name="uni0467" unicode="&#x467;" horiz-adv-x="508" 
d="M5 0l203 500h92l203 -500h-77l-159 389l-8 37q-1 5 -5 5t-5 -5l-8 -37l-159 -389h-77zM217 0v142l-73 79l27 72l73 -79q4 -4 10 -4t10 4l73 79l27 -72l-73 -79v-142h-74z" />
    <glyph glyph-name="uni0468" unicode="&#x468;" horiz-adv-x="857" 
d="M90 0v700h83v-311h264v-78h-264v-311h-83zM281 0l218 700h119l219 -700h-85l-174 574l-12 53q-1 6 -6.5 6t-6.5 -6l-13 -53l-174 -574h-85zM520 0v223l-97 106l47 50l90 -90l90 90l47 -50l-97 -106v-223h-80z" />
    <glyph glyph-name="uni0469" unicode="&#x469;" horiz-adv-x="710" 
d="M85 0v500h80v-210h186v-70h-186v-220h-80zM207 0l203 500h92l203 -500h-77l-159 389l-8 37q-1 5 -5 5t-5 -5l-8 -37l-159 -389h-77zM419 0v142l-73 79l27 72l73 -79q4 -4 10 -4t10 4l73 79l27 -72l-73 -79v-142h-74z" />
    <glyph glyph-name="uni046A" unicode="&#x46a;" horiz-adv-x="784" 
d="M40 0l44 173q14 54 30.5 90.5t43 60.5t67.5 40l36 8q8 2 11.5 6.5t-2.5 11.5l-205 260v50h654v-50l-205 -260q-6 -7 -2.5 -11.5t11.5 -6.5l36 -8q42 -16 68 -40t43 -60.5t30 -90.5l44 -173h-85l-41 175q-16 68 -59 103.5t-126 35.5v-314h-82v314q-82 0 -125.5 -35.5
t-59.5 -103.5l-41 -175h-85zM364 389h57l136 191l44 35q7 5 5 10t-10 5h-408q-8 0 -10 -5t5 -10l44 -35z" />
    <glyph glyph-name="uni046B" unicode="&#x46b;" horiz-adv-x="534" 
d="M20 0q11 40 22.5 83.5t27 82t36.5 64.5t52 32q5 1 7 6t-1 10l-106 172v50h428v-50l-106 -172q-3 -5 -1 -10t7 -6q31 -6 52 -32t36.5 -64.5t27 -82t22.5 -83.5h-79q-9 39 -19 78t-24.5 71t-36 51.5t-52.5 19.5v-220h-82v220q-31 0 -52.5 -19.5t-36 -51.5t-24.5 -71
t-19 -78h-79zM236 290h72l59 106l33 24q3 2 2 6t-5 4h-249q-4 0 -5 -4t2 -6l33 -24z" />
    <glyph glyph-name="uni046C" unicode="&#x46c;" horiz-adv-x="1014" 
d="M90 0v700h83v-311h363l-60 -78h-303v-311h-83zM270 0l44 173q14 54 30.5 90.5t43 60.5t67.5 40l36 8q8 2 11.5 6.5t-2.5 11.5l-205 260v50h654v-50l-205 -260q-6 -7 -2.5 -11.5t11.5 -6.5l36 -8q42 -16 68 -40t43 -60.5t30 -90.5l44 -173h-85l-41 175q-16 68 -59 103.5
t-126 35.5v-314h-82v314q-82 0 -125.5 -35.5t-59.5 -103.5l-41 -175h-85zM594 389h57l136 191l44 35q7 5 5 10t-10 5h-408q-8 0 -10 -5t5 -10l44 -35z" />
    <glyph glyph-name="uni046D" unicode="&#x46d;" horiz-adv-x="735" 
d="M85 0v500h80v-210h222v-70h-222v-220h-80zM221 0q11 40 22.5 83.5t27 82t36.5 64.5t52 32q5 1 7 6t-1 10l-106 172v50h428v-50l-106 -172q-3 -5 -1 -10t7 -6q31 -6 52 -32t36.5 -64.5t27 -82t22.5 -83.5h-79q-9 39 -19 78t-24.5 71t-36 51.5t-52.5 19.5v-220h-82v220
q-31 0 -52.5 -19.5t-36 -51.5t-24.5 -71t-19 -78h-79zM437 290h72l59 106l33 24q3 2 2 6t-5 4h-249q-4 0 -5 -4t2 -6l33 -24z" />
    <glyph glyph-name="uni046E" unicode="&#x46e;" horiz-adv-x="519" 
d="M154 -224q-38 0 -73.5 13.5t-58 45.5t-22.5 87q0 60 28 92.5t72 45t91 12.5h36q83 0 121.5 33t38.5 92q0 56 -35.5 86.5t-110.5 30.5h-142v76h142q68 0 99 34t31 92q0 53 -35.5 83t-99.5 30q-41 0 -88.5 -11.5t-80.5 -34.5l-27 69q47 28 95 41t104 13q34 0 71 -9.5
t69.5 -31.5t52.5 -58.5t20 -90.5q0 -63 -32.5 -104t-72.5 -52q30 -8 58 -30t46 -55.5t18 -77.5q0 -58 -19.5 -97t-53 -62.5t-77 -33.5t-92.5 -10h-36q-47 0 -72 -9.5t-34 -25.5t-9 -37q0 -30 21.5 -51.5t77.5 -21.5t117.5 15.5t109.5 31.5l17 -74q-61 -19 -124.5 -32.5
t-140.5 -13.5zM212 772l-95 150h75l41 -67l11 -34q2 -7 6 -7t6 7l11 34l40 67h75l-95 -150h-75z" />
    <glyph glyph-name="uni046F" unicode="&#x46f;" horiz-adv-x="440" 
d="M203 -132q-44 0 -86 10t-69.5 34.5t-27.5 67.5q0 35 17 53.5t42.5 25t49.5 6.5h53q64 0 94 21.5t30 58.5q0 34 -25 55.5t-74 21.5h-105v69h105q42 0 64 20t22 56q0 34 -28.5 54t-80.5 20q-32 0 -68 -8t-64 -26l-25 64q38 23 77 32t84 9q30 0 62 -7.5t59.5 -24t44.5 -44
t17 -67.5q0 -46 -24.5 -74t-56.5 -38q23 -6 44.5 -20t36 -37t14.5 -58q0 -54 -27 -87t-72.5 -47.5t-103.5 -14.5h-40q-16 0 -29 -1.5t-13 -18.5q0 -13 24.5 -23t74.5 -10q38 0 83 12.5t79 34.5l7 -69q-19 -13 -61 -31.5t-104 -18.5zM135 600l-95 150h75l41 -67l11 -34
q2 -7 6 -7t6 7l11 34l40 67h75l-95 -150h-75z" />
    <glyph glyph-name="uni0470" unicode="&#x470;" horiz-adv-x="723" 
d="M331 0v220q-79 4 -133 26t-86.5 70.5t-47.5 130.5l-44 253h85l41 -255q12 -74 57.5 -111.5t127.5 -37.5v404h82v-404q83 0 134 37t51 112v255h85l-3 -253q-1 -76 -36 -124.5t-94.5 -73t-136.5 -29.5v-220h-82z" />
    <glyph glyph-name="uni0471" unicode="&#x471;" horiz-adv-x="623" 
d="M272 -250v240q-58 4 -97.5 26t-63.5 70.5t-37 130.5l-44 283h85l41 -285q7 -74 36 -111.5t80 -37.5v634h80v-634q56 0 91 37t35 112v285h85l-3 -283q0 -76 -27.5 -124.5t-74 -73t-106.5 -29.5v-240h-80z" />
    <glyph glyph-name="uni0472" unicode="&#x472;" horiz-adv-x="606" 
d="M117 293l-25 64q24 26 55 37.5t67 11.5q46 0 74.5 -10t52 -19.5t53.5 -9.5q28 0 49 10t45 32l25 -64q-24 -26 -55 -37.5t-66 -11.5q-45 0 -74 9.5t-52.5 19.5t-54.5 10q-27 0 -48.5 -10t-45.5 -32zM303 -12q-54 0 -96.5 16t-72.5 47q-21 22 -38 55.5t-26.5 91.5t-9.5 152
t9.5 152t26.5 92t38 55q30 31 72.5 47t96.5 16t96.5 -16t72.5 -47q22 -21 38.5 -55t26 -92t9.5 -152t-9.5 -152t-26 -91.5t-38.5 -55.5q-30 -31 -72.5 -47t-96.5 -16zM303 66q74 0 112.5 40t42.5 108q3 44 4.5 74.5t1.5 61.5q0 32 -1.5 62.5t-4.5 73.5q-4 68 -42.5 108
t-112.5 40t-112.5 -40t-42.5 -108q-3 -43 -4.5 -73.5t-1.5 -62.5q0 -31 1.5 -61.5t4.5 -74.5q4 -68 42.5 -108t112.5 -40z" />
    <glyph glyph-name="uni0473" unicode="&#x473;" horiz-adv-x="510" 
d="M122 192l-18 64q17 26 39.5 37.5t47.5 11.5q33 0 53 -10t37 -19.5t39 -9.5q20 0 35 10t32 32l18 -64q-17 -26 -39 -37.5t-48 -11.5q-32 0 -52.5 10t-37.5 19.5t-39 9.5q-19 0 -34.5 -10t-32.5 -32zM255 -11q-87 0 -136 49.5t-58 123.5q-6 48 -6 87q0 21 1.5 42.5
t4.5 46.5q9 75 58 124t136 49t136 -49t58 -124q6 -49 6 -89q0 -39 -6 -87q-9 -74 -58 -123.5t-136 -49.5zM255 58q55 0 84 32t33 75q4 45 4 83.5t-4 84.5q-4 44 -33 75.5t-84 31.5t-85 -31.5t-33 -75.5q-3 -46 -3 -84.5t4 -83.5q5 -43 33.5 -75t83.5 -32z" />
    <glyph glyph-name="uni0474" unicode="&#x474;" horiz-adv-x="579" 
d="M204 0l-184 700h85l148 -574l9 -53q2 -6 7 -6q6 0 6 6l8 53l107 416q20 77 61 118.5t105 41.5q11 0 22 -1l11 -1v-74l-7 1t-19 1q-44 0 -65 -31.5t-34 -79.5l-133 -517h-127z" />
    <glyph glyph-name="uni0475" unicode="&#x475;" horiz-adv-x="473" 
d="M177 0l-147 500h84l107 -380l7 -49q2 -8 6 -8t6 8l8 49l65 228q21 74 61 112.5t105 39.5h6.5h7.5v-74h-7h-7q-38 -2 -58 -29t-32 -66l-99 -331h-113z" />
    <glyph glyph-name="uni0476" unicode="&#x476;" horiz-adv-x="579" 
d="M204 0l-184 700h85l148 -574l9 -53q2 -6 7 -6q6 0 6 6l8 53l107 416q20 77 61 118.5t105 41.5q11 0 22 -1l11 -1v-74l-7 1t-19 1q-44 0 -65 -31.5t-34 -79.5l-133 -517h-127zM173 772l-100 150h85l100 -150h-85zM344 772l-100 150h85l100 -150h-85z" />
    <glyph glyph-name="uni0477" unicode="&#x477;" horiz-adv-x="473" 
d="M177 0l-147 500h84l107 -380l7 -49q2 -8 6 -8t6 8l8 49l65 228q21 74 61 112.5t105 39.5h6.5h7.5v-74h-7h-7q-38 -2 -58 -29t-32 -66l-99 -331h-113zM380 600h-85l-100 150h85zM207 600h-85l-100 150h85z" />
    <glyph glyph-name="uni0478" unicode="&#x478;" horiz-adv-x="1075" 
d="M303 -12q-54 0 -96.5 16t-72.5 47q-21 22 -38 55.5t-26.5 91.5t-9.5 152t9.5 152t26.5 92t38 55q30 31 72.5 47t96.5 16t96.5 -16t72.5 -47q22 -21 38.5 -55t26 -92t9.5 -152t-9.5 -152t-26 -91.5t-38.5 -55.5q-30 -31 -72.5 -47t-96.5 -16zM303 66q74 0 112.5 40
t42.5 108q3 44 4.5 74.5t1.5 61.5q0 32 -1.5 62.5t-4.5 73.5q-4 68 -42.5 108t-112.5 40t-112.5 -40t-42.5 -108q-3 -43 -4.5 -73.5t-1.5 -62.5q0 -31 1.5 -61.5t4.5 -74.5q4 -68 42.5 -108t112.5 -40zM707 -220l-29 72q52 15 76 49t39 83l13 43l-180 473h84l120 -315l9 -54
q2 -8 7.5 -8t6.5 8l12 54l97 315h83l-177 -548q-20 -62 -60 -106t-101 -66z" />
    <glyph glyph-name="uni0479" unicode="&#x479;" horiz-adv-x="909" 
d="M541 -220l-29 72q52 15 76 49t39 83l13 43l-180 473h84l120 -315l9 -54q2 -8 7.5 -8t6.5 8l12 54l50 163q23 74 63 113t107 39h5h5v-74h-4.5h-4.5q-41 0 -61.5 -27.5t-33.5 -67.5l-123 -379q-20 -62 -60 -106t-101 -66zM255 -11q-87 0 -136 49.5t-58 123.5q-6 48 -6 87
q0 21 1.5 42.5t4.5 46.5q9 75 58 124t136 49t136 -49t58 -124q6 -49 6 -89q0 -39 -6 -87q-9 -74 -58 -123.5t-136 -49.5zM255 58q55 0 84 32t33 75q4 45 4 83.5t-4 84.5q-4 44 -33 75.5t-84 31.5t-85 -31.5t-33 -75.5q-3 -46 -3 -84.5t4 -83.5q5 -43 33.5 -75t83.5 -32z" />
    <glyph glyph-name="uni0480" unicode="&#x480;" horiz-adv-x="503" 
d="M392 -140v138q-22 -4 -44 -7t-45 -3q-70 0 -121 25t-80.5 75.5t-35.5 125.5q-2 29 -4 67t-2 69q0 32 2 69.5t4 66.5q6 76 35.5 126t80.5 75t121 25q43 0 84 -15.5t76 -45.5l-25 -70q-30 26 -64 39.5t-71 13.5q-72 0 -111.5 -40t-44.5 -118q-2 -36 -3.5 -65t-1.5 -61
q0 -31 1.5 -60.5t3.5 -65.5q5 -78 44.5 -118t111.5 -40q44 0 86 8t73 15v-229h-70z" />
    <glyph glyph-name="uni0481" unicode="&#x481;" horiz-adv-x="441" 
d="M331 -140v132q-18 -3 -36.5 -4.5t-39.5 -1.5q-87 0 -136 49.5t-58 124.5q-6 50 -6 89q0 21 1.5 42.5t4.5 46.5q9 75 58 124.5t136 49.5q44 0 76 -11t65 -33l-24 -65q-28 18 -55 27.5t-61 9.5q-55 0 -85.5 -31.5t-33.5 -75.5q-3 -47 -3.5 -84.5t3.5 -83.5q4 -43 34 -75
t85 -32q39 0 75 3t70 9v-210h-70z" />
    <glyph glyph-name="uni048A" unicode="&#x48a;" horiz-adv-x="634" 
d="M443 -140l106 216h70v-19l-97 -197h-79zM90 0v700h83v-466l-11 -67q-1 -7 4 -9.5t9 4.5l301 538h73v-700h-83v466l10 65q2 8 -3.5 10t-10.5 -7l-299 -534h-73zM312 777q-53 0 -96.5 28t-57.5 86l60 17q12 -34 34.5 -53t59.5 -19q38 0 60 19t34 53l60 -17q-13 -58 -57 -86
t-97 -28z" />
    <glyph glyph-name="uni048B" unicode="&#x48b;" horiz-adv-x="550" 
d="M357 -130l100 200h68v-13l-93 -187h-75zM85 0v500h80v-305l-11 -67q-1 -7 4 -9.5t9 4.5l223 377h75v-500h-80v304l10 65q2 8 -3 10.5t-11 -7.5l-220 -372h-76zM270 607q-53 0 -96.5 28t-57.5 86l60 17q12 -34 34.5 -53t59.5 -19q38 0 60 19t34 53l60 -17q-13 -58 -57 -86
t-97 -28z" />
    <glyph glyph-name="uni048C" unicode="&#x48c;" horiz-adv-x="576" 
d="M10 532v69h381v-69h-381zM120 0v700h83v-294h128q101 0 158 -54t57 -149t-57 -149t-158 -54h-211zM203 70h128q63 0 97.5 36t34.5 97t-34.5 97t-97.5 36h-128v-266z" />
    <glyph glyph-name="uni048D" unicode="&#x48d;" horiz-adv-x="508" 
d="M113 0v750h80v-432h107q84 0 131 -42t47 -117t-47 -117t-131 -42h-187zM193 70h107q47 0 72.5 24.5t25.5 64.5q0 41 -25.5 65t-72.5 24h-107v-178zM10 431v69h361v-69h-361z" />
    <glyph glyph-name="uni048E" unicode="&#x48e;" horiz-adv-x="553" 
d="M90 0v700h240q89 0 141 -53.5t52 -143.5q0 -63 -26.5 -107.5t-73.5 -65.5l50 -87l-60 -35l-60 104q-5 -1 -11 -1h-12h-160v-311h-80zM170 384h142l-44 76l60 35l27 -47l6 -42q2 -7 7 -10t12 1q62 33 62 106q0 59 -33 93t-89 34h-150v-246z" />
    <glyph glyph-name="uni048F" unicode="&#x48f;" horiz-adv-x="529" 
d="M85 -200v700h80v-28q20 17 52 27.5t67 10.5q87 0 133 -47.5t53 -123.5q2 -25 3 -46t1 -42q0 -20 -1 -41.5t-3 -47.5q-4 -48 -24 -85.5t-55 -59.5l51 -89l-60 -35l-58 100q-9 -1 -19 -2t-21 -1q-17 0 -26.5 1.5t-21.5 3.5l-50 32q-8 5 -14.5 1.5t-6.5 -12.5v-216h-80z
M275 58h12l-50 87l60 35l31 -54l10 -34q2 -8 8 -10.5t12 3.5q16 17 24 38t10 44q3 41 3.5 83t-3.5 83q-4 45 -30.5 76t-86.5 31q-52 0 -81 -23.5t-29 -64.5v-204q0 -40 29 -65t81 -25z" />
    <glyph glyph-name="uni0490" unicode="&#x490;" horiz-adv-x="432" 
d="M90 0v700h259v140h73v-218h-249v-622h-83z" />
    <glyph glyph-name="uni0491" unicode="&#x491;" horiz-adv-x="410" 
d="M85 0v500h223v140h72v-210h-215v-430h-80z" />
    <glyph glyph-name="uni0492" unicode="&#x492;" horiz-adv-x="432" 
d="M15 317v69h291v-69h-291zM90 0v700h332v-78h-249v-622h-83z" />
    <glyph glyph-name="uni0493" unicode="&#x493;" horiz-adv-x="419" 
d="M94 0v500h295v-70h-215v-430h-80zM14 220v69h291v-69h-291z" />
    <glyph glyph-name="uni0494" unicode="&#x494;" horiz-adv-x="568" 
d="M307 -149q-15 0 -29 3t-24 7l20 66q15 -5 33 -5q38 0 62.5 19t39 51t20.5 71t6 78q0 95 -35.5 137t-96.5 42q-43 0 -76.5 -8.5t-53.5 -20.5v-291h-83v700h406v-78h-323v-246q0 -10 6 -13t14 1l51 22q14 4 36.5 6.5t38.5 2.5q49 0 94.5 -24.5t75 -80t29.5 -149.5
q0 -80 -21 -146t-67.5 -105t-122.5 -39z" />
    <glyph glyph-name="uni0495" unicode="&#x495;" horiz-adv-x="510" 
d="M85 0v500h335v-70h-255v-430h-80zM289 -149q-15 0 -29 3t-24 7l20 66q15 -5 33 -5q38 0 59.5 25.5t30 64.5t8.5 79q0 63 -27.5 91t-74.5 28q-40 0 -70.5 -8.5t-49.5 -20.5v85q0 -10 6 -13t14 1l51 22q12 4 31.5 6.5t33.5 2.5q42 0 80.5 -18.5t63.5 -61t25 -114.5
q0 -66 -18 -120.5t-57.5 -87t-105.5 -32.5z" />
    <glyph glyph-name="uni0496" unicode="&#x496;" horiz-adv-x="789" 
d="M726 -140v186l-16 30h89v-216h-73zM20 0l183 353l-183 347h90l159 -313h75v313h82v-313h75l159 313h85l-178 -344l185 -356h-90l-161 312h-75v-312h-82v312h-75l-161 -312h-88z" />
    <glyph glyph-name="uni0497" unicode="&#x497;" horiz-adv-x="720" 
d="M638 -130v170l-16 30h88v-200h-72zM30 0l163 292l-5 -51l-154 259h88l120 -210h67v210h80v-210h67l120 210h87l-149 -259l-8 51l164 -292h-90l-123 220h-68v-220h-80v220h-68l-123 -220h-88z" />
    <glyph glyph-name="uni0498" unicode="&#x498;" horiz-adv-x="518" 
d="M237 -6q-61 0 -111.5 18.5t-95.5 54.5l29 69q22 -19 50 -33.5t58.5 -23t58.5 -8.5q83 0 121.5 33.5t38.5 92.5q0 56 -35.5 86.5t-110.5 30.5h-112v76h112q68 0 99 34t31 92q0 53 -33 83t-92 30q-40 0 -86.5 -11.5t-78.5 -34.5l-27 69q47 27 93.5 40.5t101.5 13.5
q33 0 68 -9.5t66 -31.5t50 -58.5t19 -90.5q0 -63 -32.5 -104t-72.5 -52q30 -8 58 -30t46 -55.5t18 -77.5q0 -76 -33.5 -120.5t-86 -63.5t-111.5 -19zM149 -250l17 62q59 0 92 13.5t33 36.5q0 21 -26 27.5t-81 6.5l31 126l60 -22l-13 -51q44 -5 70.5 -27.5t26.5 -56.5
q0 -37 -29.5 -62.5t-77.5 -39t-103 -13.5z" />
    <glyph glyph-name="uni0499" unicode="&#x499;" horiz-adv-x="448" 
d="M200 -7q-54 0 -97 12.5t-83 42.5l27 65q20 -16 43.5 -27t49 -16t51.5 -5q64 0 93.5 21.5t29.5 58.5q0 34 -25 55.5t-74 21.5h-85v69h85q42 0 64 20t22 56q0 34 -28.5 54t-80.5 20q-32 0 -68 -8t-64 -26l-25 64q38 23 77 32t84 9q30 0 62 -7.5t59.5 -24t44.5 -44t17 -67.5
q0 -46 -24.5 -74t-56.5 -38q23 -6 44.5 -20t36 -37t14.5 -58q0 -54 -28.5 -87t-73 -47.5t-91.5 -14.5zM119 -250l17 62q59 0 92 13.5t33 36.5q0 21 -26 27.5t-81 6.5l31 126l60 -22l-13 -51q44 -5 70.5 -27.5t26.5 -56.5q0 -37 -29.5 -62.5t-77.5 -39t-103 -13.5z" />
    <glyph glyph-name="uni049A" unicode="&#x49a;" horiz-adv-x="544" 
d="M481 -140v186l-16 30h89v-216h-73zM90 0v700h82v-312h75l169 312h90l-191 -344l193 -356h-90l-171 313h-75v-313h-82z" />
    <glyph glyph-name="uni049B" unicode="&#x49b;" horiz-adv-x="507" 
d="M425 -130v170l-16 30h88v-200h-72zM85 0v500h82v-210h69l127 210h85l-153 -259l-11 50l173 -291h-90l-133 220h-67v-220h-82z" />
    <glyph glyph-name="uni049C" unicode="&#x49c;" horiz-adv-x="640" 
d="M90 0v700h82v-312h70v172h74v-118l-9 -42q-2 -11 4 -13.5t12 7.5l191 306h94l-171 -271l-51 -62q-9 -11 0 -22l50 -60l174 -285h-94l-193 308q-6 10 -12 7t-4 -14l9 -42v-109h-74v163h-70v-313h-82z" />
    <glyph glyph-name="uni049D" unicode="&#x49d;" horiz-adv-x="553" 
d="M85 0v500h82v-212h60v132h71v-78l-9 -42q-2 -11 4 -13.5t12 7.5l124 206h92l-111 -171l-51 -62q-9 -11 0 -22l50 -60l114 -185h-92l-126 208q-6 10 -12 7t-4 -14l9 -42v-69h-71v123h-60v-213h-82z" />
    <glyph glyph-name="uni049E" unicode="&#x49e;" horiz-adv-x="561" 
d="M10 553v66h291v-66h-291zM113 0v700h82v-312h75l169 312h90l-191 -344l193 -356h-90l-171 313h-75v-313h-82z" />
    <glyph glyph-name="uni049F" unicode="&#x49f;" horiz-adv-x="467" 
d="M-10 595v69h311v-69h-311zM75 0v750h82v-441h57l129 191h90l-149 -215l153 -285h-90l-123 239h-67v-239h-82z" />
    <glyph glyph-name="uni04A0" unicode="&#x4a0;" horiz-adv-x="698" 
d="M30 630v70h220v-70h-220zM250 0v700h82v-312h75l169 312h90l-191 -344l193 -356h-90l-171 313h-75v-313h-82z" />
    <glyph glyph-name="uni04A1" unicode="&#x4a1;" horiz-adv-x="645" 
d="M30 430v70h214v-70h-214zM243 0v500h82v-210h69l127 210h85l-153 -259l-11 50l173 -291h-90l-133 220h-67v-220h-82z" />
    <glyph glyph-name="uni04A2" unicode="&#x4a2;" horiz-adv-x="633" 
d="M530 -140v186l-16 30h89v-216h-73zM90 0v700h83v-311h274v311h83v-700h-83v311h-274v-311h-83z" />
    <glyph glyph-name="uni04A3" unicode="&#x4a3;" horiz-adv-x="539" 
d="M440 -130v170l-16 30h88v-200h-72zM85 0v500h80v-210h207v210h80v-500h-80v220h-207v-220h-80z" />
    <glyph glyph-name="uni04A4" unicode="&#x4a4;" horiz-adv-x="773" 
d="M475 622v78h288v-78h-288zM90 0v700h83v-311h274v311h83v-700h-83v311h-274v-311h-83z" />
    <glyph glyph-name="uni04A5" unicode="&#x4a5;" horiz-adv-x="680" 
d="M400 430v70h250v-70h-250zM85 0v500h80v-210h207v210h80v-500h-80v220h-207v-220h-80z" />
    <glyph glyph-name="uni04A6" unicode="&#x4a6;" horiz-adv-x="915" 
d="M664 -149q-15 0 -29 3t-24 7l20 66q15 -5 33 -5q38 0 62.5 19t39 51t20.5 71t6 78q0 95 -35.5 137t-96.5 42q-43 0 -76.5 -8.5t-53.5 -20.5v85q0 -10 6 -13t14 1l51 22q14 4 36.5 6.5t38.5 2.5q49 0 94.5 -24.5t75 -80t29.5 -149.5q0 -80 -21 -146t-67.5 -105t-122.5 -39
zM90 0v700h440v-700h-83v624h-274v-624h-83z" />
    <glyph glyph-name="uni04A7" unicode="&#x4a7;" horiz-adv-x="774" 
d="M573 -149q-15 0 -29 3t-24 7l20 66q15 -5 33 -5q38 0 59.5 25.5t30 64.5t8.5 79q0 63 -27.5 91t-74.5 28q-40 0 -70.5 -8.5t-49.5 -20.5v85q0 -10 6 -13t14 1l51 22q12 4 31.5 6.5t33.5 2.5q42 0 80.5 -18.5t63.5 -61t25 -114.5q0 -66 -18 -120.5t-57.5 -87t-105.5 -32.5
zM85 0v500h364v-500h-80v430h-204v-430h-80z" />
    <glyph glyph-name="uni04A8" unicode="&#x4a8;" horiz-adv-x="672" 
d="M293 -12q-67 0 -116 25t-77 75.5t-34 125.5q-2 29 -4 67t-2 69q0 32 2 69.5t4 66.5q7 76 37.5 126t83.5 75t126 25v-78q-76 0 -118.5 -40t-47.5 -118q-2 -36 -3.5 -65t-1.5 -61q0 -31 1.5 -60.5t3.5 -65.5q5 -78 42 -118t104 -40q47 0 87.5 23.5t71 64t47.5 93.5t17 112
q0 86 -16.5 125.5t-69.5 39.5q-51 0 -67.5 -38t-16.5 -127q0 -95 25 -161t72 -100.5t112 -34.5q14 0 28 2.5t29 7.5v-73q-17 -6 -33.5 -8.5t-32.5 -2.5q-60 0 -111.5 24t-89.5 71t-59 116t-21 159q0 126 37 183.5t128 57.5q89 0 128 -57.5t39 -183.5q0 -78 -24 -145.5
t-66 -118t-97 -79t-117 -28.5z" />
    <glyph glyph-name="uni04A9" unicode="&#x4a9;" horiz-adv-x="593" 
d="M255 -11q-88 0 -136.5 49.5t-57.5 123.5q-6 48 -6 87q0 21 1.5 42.5t4.5 46.5q9 75 58 124t136 49v-71q-55 0 -85 -31.5t-33 -75.5q-2 -35 -2.5 -79t3.5 -89q5 -43 33.5 -75t83.5 -32q58 0 103.5 28t71.5 73t26 95q0 47 -13.5 76t-61.5 29q-45 0 -59.5 -32t-14.5 -86
q0 -47 17.5 -90t52.5 -70t89 -27q17 0 35 2.5t37 8.5v-65q-24 -7 -42 -10t-40 -3q-57 0 -99.5 21.5t-71 58t-43 81.5t-14.5 92q0 69 20.5 112t55.5 63t77 20q43 0 77.5 -18.5t55.5 -58.5t21 -106q0 -51 -24.5 -98t-65 -84t-90 -59t-100.5 -22z" />
    <glyph glyph-name="uni04AA" unicode="&#x4aa;" horiz-adv-x="503" 
d="M303 -12q-70 0 -121 25t-80.5 75.5t-35.5 125.5q-2 29 -4 67t-2 69q0 32 2 69.5t4 66.5q6 76 35.5 126t80.5 75t121 25q43 0 84 -15.5t76 -45.5l-25 -70q-30 26 -64 39.5t-71 13.5q-72 0 -111.5 -40t-44.5 -118q-2 -36 -3.5 -65t-1.5 -61q0 -31 1.5 -60.5t3.5 -65.5
q5 -78 44.5 -118t111.5 -40q37 0 71 13.5t64 39.5l25 -70q-35 -30 -76 -45.5t-84 -15.5zM197 -250l17 62q59 0 92 13.5t33 36.5q0 21 -26 27.5t-81 6.5l31 126l60 -22l-13 -51q44 -5 70.5 -27.5t26.5 -56.5q0 -37 -29.5 -62.5t-77.5 -39t-103 -13.5z" />
    <glyph glyph-name="uni04AB" unicode="&#x4ab;" horiz-adv-x="441" 
d="M255 -14q-87 0 -136 49.5t-58 124.5q-6 50 -6 89q0 21 1.5 42.5t4.5 46.5q9 75 58 124.5t136 49.5q44 0 76 -11t65 -33l-24 -65q-28 18 -55 27.5t-61 9.5q-55 0 -85.5 -31.5t-33.5 -75.5q-3 -47 -3.5 -84.5t3.5 -83.5q4 -43 34 -75t85 -32q33 0 63.5 9t58.5 27l23 -60
q-38 -25 -71.5 -36.5t-74.5 -11.5zM150 -250l17 62q59 0 92 13.5t33 36.5q0 21 -26 27.5t-81 6.5l31 126l60 -22l-13 -51q44 -5 70.5 -27.5t26.5 -56.5q0 -37 -29.5 -62.5t-77.5 -39t-103 -13.5z" />
    <glyph glyph-name="uni04AC" unicode="&#x4ac;" horiz-adv-x="488" 
d="M285 -140v186l-16 30h89v-216h-73zM202 0v622h-172v78h428v-78h-173v-622h-83z" />
    <glyph glyph-name="uni04AD" unicode="&#x4ad;" horiz-adv-x="448" 
d="M252 -130v170l-16 30h88v-200h-72zM184 0v430h-154v70h388v-70h-154v-430h-80z" />
    <glyph glyph-name="Ustraitcy" unicode="&#x4ae;" horiz-adv-x="482" 
d="M201 0v330l-201 370h94l127 -255l13 -41q2 -5 7.5 -5t6.5 5l13 41l127 255h94l-201 -370v-330h-80z" />
    <glyph glyph-name="ustraitcy" unicode="&#x4af;" horiz-adv-x="470" 
d="M193 0l-163 500h84l107 -360l7 -49q2 -8 6.5 -8t5.5 8l8 49l109 360h83l-167 -500h-80zM193 -200v200h80v-200h-80z" />
    <glyph glyph-name="Ustraitstrokecy" unicode="&#x4b0;" horiz-adv-x="482" 
d="M76 261v69h330v-69h-330zM201 0v330l-201 370h94l127 -255l13 -41q2 -5 7.5 -5t6.5 5l13 41l127 255h94l-201 -370v-330h-80z" />
    <glyph glyph-name="ustraitstrokecy" unicode="&#x4b1;" horiz-adv-x="470" 
d="M73 -69v69h320v-69h-320zM193 0l-163 500h84l107 -360l7 -49q2 -8 6.5 -8t5.5 8l8 49l109 360h83l-167 -500h-80zM193 -200v200h80v-200h-80z" />
    <glyph glyph-name="uni04B2" unicode="&#x4b2;" horiz-adv-x="539" 
d="M476 -140v186l-16 30h89v-216h-73zM20 0l186 350l-186 350h94l127 -255l13 -41q2 -5 7.5 -5t6.5 5l13 41l127 255h94l-186 -350l186 -350h-94l-127 255l-13 41q-1 5 -6.5 5t-7.5 -5l-13 -41l-127 -255h-94z" />
    <glyph glyph-name="uni04B3" unicode="&#x4b3;" horiz-adv-x="496" 
d="M407 -130v170l-16 30h88v-200h-72zM30 0l158 250l-158 250h94l88 -152l18 -44q2 -5 7 -5t7 5l18 44l86 152h94l-156 -250l156 -250h-94l-86 152l-18 44q-2 5 -7 5t-7 -5l-18 -44l-88 -152h-94z" />
    <glyph glyph-name="uni04B4" unicode="&#x4b4;" horiz-adv-x="744" 
d="M30 630v70h410v-70h-410zM204 0v700h83v-624h274v624h83l-3 -700h-437zM641 -140v186l-16 30h89v-216h-73z" />
    <glyph glyph-name="uni04B5" unicode="&#x4b5;" horiz-adv-x="637" 
d="M30 430v70h350v-70h-350zM180 0v500h80v-430h210v430h80v-500h-370zM538 -130v200h72v-200h-72z" />
    <glyph glyph-name="uni04B6" unicode="&#x4b6;" horiz-adv-x="592" 
d="M489 -140v186l-16 30h89v-216h-73zM405 0v294q0 10 -6 13t-14 -1l-51 -23q-13 -4 -37 -6t-41 -2q-48 0 -93 18t-74 58.5t-29 108.5v240h83v-231q0 -63 33 -91t89 -28q44 0 81 8.5t59 20.5v321h84v-700h-84z" />
    <glyph glyph-name="uni04B7" unicode="&#x4b7;" horiz-adv-x="514" 
d="M415 -130v170l-16 30h88v-200h-72zM347 0v199q0 10 -6 12t-14 -3l-51 -27q-22 -7 -58 -7q-49 0 -84.5 19t-54.5 54t-19 82v171h80v-162q0 -42 25.5 -67t74.5 -25q41 0 66 11t41 28v215h80v-500h-80z" />
    <glyph glyph-name="uni04B8" unicode="&#x4b8;" horiz-adv-x="589" 
d="M415 0v294q0 10 -6 13t-14 -1l-51 -23q-7 -1 -15.5 -2.5t-19.5 -2.5v-128h-70v126q-46 3 -87 22.5t-66.5 59t-25.5 102.5v240h83v-231q0 -57 26.5 -84t77.5 -34q5 0 7 2.5t0 7.5l-15 55v144h70v-208q33 3 60.5 10.5t45.5 16.5v321h84v-700h-84z" />
    <glyph glyph-name="uni04B9" unicode="&#x4b9;" horiz-adv-x="512" 
d="M347 0v199q0 10 -6 12t-14 -3l-51 -27l-4 -1v-91h-70v86q-44 3 -76 22.5t-49 53.5t-17 78v171h80v-162q0 -35 18 -58t52 -31q5 -1 7 2t0 8l-15 55v84h70v-149q31 6 48 22t27 34v195h80v-500h-80z" />
    <glyph glyph-name="uni04BA" unicode="&#x4ba;" horiz-adv-x="579" 
d="M174 700v-294q0 -10 6 -13t14 1l51 23q14 4 37.5 6t40.5 2q49 0 93.5 -18t73.5 -58.5t29 -108.5v-240h-83v231q0 63 -33 91t-89 28q-43 0 -80.5 -8.5t-59.5 -20.5v-321h-84v700h84z" />
    <glyph glyph-name="uni04BB" unicode="&#x4bb;" horiz-adv-x="537" 
d="M85 0v750h80v-279q20 16 53 28.5t75 12.5q50 0 87 -19.5t57 -54.5t20 -81v-357h-80v348q0 42 -26.5 67t-75.5 25q-52 0 -81 -25t-29 -67v-348h-80z" />
    <glyph glyph-name="uni04BC" unicode="&#x4bc;" horiz-adv-x="670" 
d="M393 -12q-54 0 -99 16t-75 47q-21 22 -38 55.5t-26.5 91.5t-9.5 152q0 86 11 153t38 113.5t74.5 71t119.5 24.5q59 0 104.5 -18.5t76 -57t46 -97.5t15.5 -141l-30 -62h-454q-74 0 -110 38t-36 96q0 31 13.5 58t39.5 49l48 -56q-13 -9 -19.5 -22t-6.5 -27q0 -25 15 -41
t46 -16h411q-1 44 -6.5 83t-21 70t-47 48.5t-84.5 17.5q-90 0 -125 -58t-34 -161l-2 -79q0 -57 5.5 -106t23 -86t53 -57.5t95.5 -20.5q46 0 95 18.5t83 45.5l27 -69q-45 -38 -99.5 -55.5t-116.5 -17.5z" />
    <glyph glyph-name="uni04BD" unicode="&#x4bd;" horiz-adv-x="531" 
d="M115 236q-54 5 -84.5 33t-30.5 75q0 20 6 39.5t17 37.5l53 -28q-4 -12 -7 -23t-3 -21q0 -41 48 -49zM309 -10q-61 0 -103 22.5t-65.5 61.5t-29.5 88q-3 24 -4.5 45t-1.5 42q0 40 6 89q8 74 56.5 123t132.5 49q61 0 98 -22t56 -57t25.5 -74t6.5 -72l-20 -53l-302 1v69h246
q0 34 -8.5 65.5t-32.5 52t-69 20.5q-53 0 -82 -32.5t-33 -74.5q-2 -25 -3.5 -68.5t4.5 -98.5q5 -43 33.5 -75.5t89.5 -32.5q38 0 72.5 12t62.5 34l24 -61q-41 -29 -75 -41t-84 -12z" />
    <glyph glyph-name="uni04BE" unicode="&#x4be;" horiz-adv-x="670" 
d="M393 -12q-54 0 -99 16t-75 47q-21 22 -38 55.5t-26.5 91.5t-9.5 152q0 86 11 153t38 113.5t74.5 71t119.5 24.5q59 0 104.5 -18.5t76 -57t46 -97.5t15.5 -141l-30 -62h-454q-74 0 -110 38t-36 96q0 31 13.5 58t39.5 49l48 -56q-13 -9 -19.5 -22t-6.5 -27q0 -25 15 -41
t46 -16h411q-1 44 -6.5 83t-21 70t-47 48.5t-84.5 17.5q-90 0 -125 -58t-34 -161l-2 -79q0 -57 5.5 -106t23 -86t53 -57.5t95.5 -20.5q46 0 95 18.5t83 45.5l27 -69q-45 -38 -99.5 -55.5t-116.5 -17.5zM469 -248q-50 5 -86 22.5t-55 50t-19 79.5q0 36 16.5 66.5t48.5 49.5
l66 -20q-26 -15 -42 -38.5t-16 -53.5q0 -47 27 -66.5t74 -27.5z" />
    <glyph glyph-name="uni04BF" unicode="&#x4bf;" horiz-adv-x="531" 
d="M115 236q-54 5 -84.5 33t-30.5 75q0 20 6 39.5t17 37.5l53 -28q-4 -12 -7 -23t-3 -21q0 -41 48 -49zM309 -10q-61 0 -103 22.5t-65.5 61.5t-29.5 88q-3 24 -4.5 45t-1.5 42q0 40 6 89q8 74 56.5 123t132.5 49q61 0 98 -22t56 -57t25.5 -74t6.5 -72l-20 -53l-302 1v69h246
q0 34 -8.5 65.5t-32.5 52t-69 20.5q-53 0 -82 -32.5t-33 -74.5q-2 -25 -3.5 -68.5t4.5 -98.5q5 -43 33.5 -75.5t89.5 -32.5q38 0 72.5 12t62.5 34l24 -61q-41 -29 -75 -41t-84 -12zM461 -228q-50 5 -86 22.5t-55 50t-19 79.5q0 36 16.5 66.5t48.5 49.5l66 -20
q-26 -15 -42 -38.5t-16 -53.5q0 -47 27 -66.5t74 -27.5z" />
    <glyph glyph-name="uni04C0" unicode="&#x4c0;" horiz-adv-x="263" 
d="M90 0v700h83v-700h-83z" />
    <glyph glyph-name="uni04C1" unicode="&#x4c1;" horiz-adv-x="792" 
d="M30 0l183 353l-183 347h90l159 -313h75v313h82v-313h75l159 313h85l-178 -344l185 -356h-90l-161 312h-75v-312h-82v312h-75l-161 -312h-88zM396 777q-53 0 -96.5 28t-57.5 86l60 17q12 -34 34.5 -53t59.5 -19q38 0 60 19t34 53l60 -17q-13 -58 -57 -86t-97 -28z" />
    <glyph glyph-name="uni04C2" unicode="&#x4c2;" horiz-adv-x="700" 
d="M30 0l163 292l-5 -51l-154 259h88l120 -210h67v210h80v-210h67l120 210h87l-149 -259l-8 51l164 -292h-90l-123 220h-68v-220h-80v220h-68l-123 -220h-88zM350 607q-53 0 -96.5 28t-57.5 86l60 17q12 -34 34.5 -53t59.5 -19q38 0 60 19t34 53l60 -17q-13 -58 -57 -86
t-97 -28z" />
    <glyph glyph-name="uni04C3" unicode="&#x4c3;" horiz-adv-x="567" 
d="M306 -149q-15 0 -29 3t-24 7l20 66q15 -5 33 -5q50 0 78 30t39 76t11 93q0 102 -41 147.5t-130 45.5h-91v87q0 -10 5 -11t13 -1h73q77 0 134 -25.5t88.5 -84t31.5 -158.5q0 -75 -21 -136t-67.5 -97.5t-122.5 -36.5zM90 0v700h82v-700h-82zM322 348l-68 32l166 320h86z
" />
    <glyph glyph-name="uni04C4" unicode="&#x4c4;" horiz-adv-x="502" 
d="M289 -149q-15 0 -29 3t-24 7l20 66q15 -5 33 -5q38 0 59.5 24t30 60.5t8.5 74.5q0 74 -31 106.5t-102 32.5h-89v82q0 -10 5.5 -11t14.5 -1h82q59 0 104.5 -20t72 -66t26.5 -123q0 -63 -18 -115.5t-57.5 -83.5t-105.5 -31zM85 0v500h80v-500h-80zM304 244l-68 32l136 224
h90z" />
    <glyph glyph-name="uni04C5" unicode="&#x4c5;" horiz-adv-x="595" 
d="M404 -140l106 216h70v-19l-97 -197h-79zM41 -16l-31 73q50 12 77.5 48t34.5 100q10 89 14.5 210.5t5.5 284.5h368v-700h-83v622h-206q-3 -136 -7 -246.5t-13 -191.5q-9 -82 -51 -132.5t-109 -67.5z" />
    <glyph glyph-name="uni04C6" unicode="&#x4c6;" horiz-adv-x="528" 
d="M335 -130l100 200h68v-13l-93 -187h-75zM46 -10l-25 65q31 9 53.5 28.5t29.5 48.5q8 35 13 83t8 117.5t4 167.5h306v-500h-80v430h-150q-2 -98 -10 -178t-17 -132q-11 -57 -46.5 -88t-85.5 -42z" />
    <glyph glyph-name="uni04C7" unicode="&#x4c7;" horiz-adv-x="620" 
d="M385 -222l-28 68q44 17 67 57t23 97h83q0 -79 -34.5 -136t-110.5 -86zM90 0v700h83v-311h274v311h83v-700h-83v311h-274v-311h-83z" />
    <glyph glyph-name="uni04C8" unicode="&#x4c8;" horiz-adv-x="537" 
d="M310 -222l-28 68q41 13 65.5 53.5t24.5 100.5h80q0 -48 -10 -84t-28 -62.5t-44.5 -45t-59.5 -30.5zM85 0v500h80v-210h207v210h80v-500h-80v220h-207v-220h-80z" />
    <glyph glyph-name="uni04C9" unicode="&#x4c9;" horiz-adv-x="615" 
d="M424 -140l106 216h70v-19l-97 -197h-79zM90 0v700h83v-311h274v311h83v-700h-83v311h-274v-311h-83z" />
    <glyph glyph-name="uni04CA" unicode="&#x4ca;" horiz-adv-x="545" 
d="M352 -130l100 200h68v-13l-93 -187h-75zM85 0v500h80v-210h207v210h80v-500h-80v220h-207v-220h-80z" />
    <glyph glyph-name="uni04CB" unicode="&#x4cb;" horiz-adv-x="579" 
d="M332 -140v216h89l-16 -30v-186h-73zM405 0v294q0 10 -6 13t-14 -1l-51 -23q-13 -4 -37 -6t-41 -2q-48 0 -93 18t-74 58.5t-29 108.5v240h83v-231q0 -63 33 -91t89 -28q44 0 81 8.5t59 20.5v321h84v-700h-84z" />
    <glyph glyph-name="uni04CC" unicode="&#x4cc;" horiz-adv-x="512" 
d="M347 0v199q0 10 -6 12t-14 -3l-51 -27q-22 -7 -58 -7q-49 0 -84.5 19t-54.5 54t-19 82v171h80v-162q0 -42 25.5 -67t74.5 -25q41 0 66 11t41 28v215h80v-500h-80zM287 -130v200h88l-16 -30v-170h-72z" />
    <glyph glyph-name="uni04CD" unicode="&#x4cd;" horiz-adv-x="669" 
d="M478 -140l106 216h70v-19l-97 -197h-79zM90 0v700h70l166 -314q5 -9 11.5 -9t10.5 9l166 314h70v-700h-80v456l10 63q1 7 -3.5 9t-9.5 -6l-139 -257h-50l-139 257q-4 8 -9 6t-4 -9l10 -63v-456h-80z" />
    <glyph glyph-name="uni04CE" unicode="&#x4ce;" horiz-adv-x="672" 
d="M479 -130l100 200h68v-13l-93 -187h-75zM85 0v500h68l168 -290q5 -9 11 -9t11 9l168 290h68v-500h-78v274l10 63q1 7 -3.5 9t-9.5 -6l-141 -235h-50l-141 235q-4 8 -9 6t-4 -9l10 -63v-274h-78z" />
    <glyph glyph-name="uni04CF" unicode="&#x4cf;" horiz-adv-x="250" 
d="M85 0v750h80v-750h-80z" />
    <glyph glyph-name="uni04D0" unicode="&#x4d0;" 
d="M30 0l197 700h120l199 -700h-85l-158 574l-8 53q-1 6 -6.5 6t-6.5 -6l-9 -53l-158 -574h-85zM138 187l22 74h256l22 -74h-300zM113 627v73h141v-73h-141zM283 777q-53 0 -96.5 28t-57.5 86l60 17q12 -34 34.5 -53t59.5 -19q38 0 60 19t34 53l60 -17q-13 -58 -57 -86
t-97 -28z" />
    <glyph glyph-name="uni04D1" unicode="&#x4d1;" horiz-adv-x="491" 
d="M373 -12l-33 49q-6 9 -14 2q-24 -21 -50.5 -35.5t-70.5 -14.5q-71 0 -113 39t-42 102q0 45 19.5 76t55.5 47.5t84 16.5h117v72q0 43 -25 69t-79 26q-39 0 -70 -11.5t-63 -36.5l-25 70q38 29 77 41t86 12q89 0 132.5 -46t43.5 -115v-255l43 -64zM209 58q54 0 85.5 26
t31.5 69v45q0 19 -18 14l-55 -12h-38q-40 0 -62.5 -17.5t-22.5 -49.5q0 -33 21.5 -54t57.5 -21zM243 607q-53 0 -96.5 28t-57.5 86l60 17q12 -34 34.5 -53t59.5 -19q38 0 60 19t34 53l60 -17q-13 -58 -57 -86t-97 -28z" />
    <glyph glyph-name="uni04D2" unicode="&#x4d2;" 
d="M30 0l197 700h120l199 -700h-85l-158 574l-8 53q-1 6 -6.5 6t-6.5 -6l-9 -53l-158 -574h-85zM138 187l22 74h256l22 -74h-300zM113 627v73h141v-73h-141zM328 770v100h81v-100h-81zM157 770v100h81v-100h-81z" />
    <glyph glyph-name="uni04D3" unicode="&#x4d3;" horiz-adv-x="491" 
d="M373 -12l-33 49q-6 9 -14 2q-24 -21 -50.5 -35.5t-70.5 -14.5q-71 0 -113 39t-42 102q0 45 19.5 76t55.5 47.5t84 16.5h117v72q0 43 -25 69t-79 26q-39 0 -70 -11.5t-63 -36.5l-25 70q38 29 77 41t86 12q89 0 132.5 -46t43.5 -115v-255l43 -64zM209 58q54 0 85.5 26
t31.5 69v45q0 19 -18 14l-55 -12h-38q-40 0 -62.5 -17.5t-22.5 -49.5q0 -33 21.5 -54t57.5 -21zM288 600v100h81v-100h-81zM117 600v100h81v-100h-81z" />
    <glyph glyph-name="uni04D4" unicode="&#x4d4;" horiz-adv-x="849" 
d="M30 0l175 622h-92v78h676v-78h-325v-233h308v-78h-308v-233h325v-78h-403v187h-220l-51 -187h-85zM187 261h199v361h-100z" />
    <glyph glyph-name="uni04D5" unicode="&#x4d5;" horiz-adv-x="753" 
d="M205 -11q-71 0 -113 39t-42 102q0 45 19.5 76t55.5 47.5t84 16.5h117v72q0 43 -25 69t-79 26q-39 0 -70 -11.5t-63 -36.5l-25 70q38 29 77 41t86 12q41 0 70.5 -10.5t51.5 -30.5l20 -26q8 -10 15 0l20 26q23 17 52 28t66 11q61 0 98 -22t56 -57t25.5 -74t6.5 -72l-20 -53
l-284 1q0 -83 25.5 -129t101.5 -46q38 0 72.5 12t62.5 34l24 -61q-41 -29 -75 -41t-84 -12q-48 0 -84 14t-61 39l-12 21q-7 12 -14 0l-11 -21q-34 -30 -71.5 -42t-72.5 -12zM209 58q54 0 85.5 26t31.5 69v45q0 19 -18 14l-55 -12h-38q-40 0 -62.5 -17.5t-22.5 -49.5
q0 -33 21.5 -54t57.5 -21zM405 302h227q0 34 -8.5 65.5t-32.5 52t-69 20.5q-57 0 -87 -38t-30 -100z" />
    <glyph glyph-name="uni04D6" unicode="&#x4d6;" horiz-adv-x="553" 
d="M90 0v700h403v-78h-325v-233h308v-78h-308v-233h325v-78h-403zM297 777q-53 0 -96.5 28t-57.5 86l60 17q12 -34 34.5 -53t59.5 -19q38 0 60 19t34 53l60 -17q-13 -58 -57 -86t-97 -28z" />
    <glyph glyph-name="uni04D7" unicode="&#x4d7;" horiz-adv-x="481" 
d="M259 -10q-61 0 -103 22.5t-65.5 61.5t-29.5 88q-3 24 -4.5 45t-1.5 42q0 40 6 89q8 74 56.5 123t132.5 49q61 0 98 -22t56 -57t25.5 -74t6.5 -72l-20 -53l-302 1v69h246q0 34 -8.5 65.5t-32.5 52t-69 20.5q-53 0 -82 -32.5t-33 -74.5q-2 -25 -3.5 -68.5t4.5 -98.5
q5 -43 33.5 -75.5t89.5 -32.5q38 0 72.5 12t62.5 34l24 -61q-41 -29 -75 -41t-84 -12zM249 607q-53 0 -96.5 28t-57.5 86l60 17q12 -34 34.5 -53t59.5 -19q38 0 60 19t34 53l60 -17q-13 -58 -57 -86t-97 -28z" />
    <glyph glyph-name="uni04D8" unicode="&#x4d8;" horiz-adv-x="606" 
d="M302 -12q-59 0 -104.5 18.5t-76 57t-46 97.5t-15.5 141v62h403q0 57 -5.5 106t-23 86t-53 57.5t-95.5 20.5q-46 0 -95 -18.5t-83 -45.5l-27 69q45 38 100 55.5t116 17.5q54 0 99 -16t75 -47q22 -21 38.5 -55t26 -92t9.5 -152q0 -85 -11 -152.5t-38 -114t-74.5 -71
t-119.5 -24.5zM302 66q90 0 125 58t34 161h-318q2 -43 7 -82.5t20.5 -70.5t47 -48.5t84.5 -17.5z" />
    <glyph glyph-name="uni04D9" unicode="&#x4d9;" horiz-adv-x="481" 
d="M222 510q62 0 103.5 -22.5t65 -61.5t29.5 -88q3 -24 4.5 -45t1.5 -42q0 -39 -6 -89q-8 -73 -56.5 -122.5t-132.5 -49.5q-61 0 -98 22t-56 57t-25.5 74t-6.5 72l20 53l302 -1v-69h-246q0 -34 9 -65.5t32.5 -52t68.5 -20.5q53 0 82 32.5t33 74.5q2 25 3.5 68.5t-4.5 98.5
q-4 43 -32.5 75.5t-90.5 32.5q-38 0 -72 -12t-63 -34l-24 61q41 29 75.5 41t83.5 12z" />
    <glyph glyph-name="uni04DA" unicode="&#x4da;" horiz-adv-x="606" 
d="M302 -12q-59 0 -104.5 18.5t-76 57t-46 97.5t-15.5 141v62h403q0 57 -5.5 106t-23 86t-53 57.5t-95.5 20.5q-46 0 -95 -18.5t-83 -45.5l-27 69q45 38 100 55.5t116 17.5q54 0 99 -16t75 -47q22 -21 38.5 -55t26 -92t9.5 -152q0 -85 -11 -152.5t-38 -114t-74.5 -71
t-119.5 -24.5zM302 66q90 0 125 58t34 161h-318q2 -43 7 -82.5t20.5 -70.5t47 -48.5t84.5 -17.5zM348 770v100h81v-100h-81zM177 770v100h81v-100h-81z" />
    <glyph glyph-name="uni04DB" unicode="&#x4db;" horiz-adv-x="481" 
d="M272 600v100h81v-100h-81zM101 600v100h81v-100h-81zM222 510q62 0 103.5 -22.5t65 -61.5t29.5 -88q3 -24 4.5 -45t1.5 -42q0 -39 -6 -89q-8 -73 -56.5 -122.5t-132.5 -49.5q-61 0 -98 22t-56 57t-25.5 74t-6.5 72l20 53l302 -1v-69h-246q0 -34 9 -65.5t32.5 -52
t68.5 -20.5q53 0 82 32.5t33 74.5q2 25 3.5 68.5t-4.5 98.5q-4 43 -32.5 75.5t-90.5 32.5q-38 0 -72 -12t-63 -34l-24 61q41 29 75.5 41t83.5 12z" />
    <glyph glyph-name="uni04DC" unicode="&#x4dc;" horiz-adv-x="792" 
d="M30 0l183 353l-183 347h90l159 -313h75v313h82v-313h75l159 313h85l-178 -344l185 -356h-90l-161 312h-75v-312h-82v312h-75l-161 -312h-88zM441 770v100h81v-100h-81zM270 770v100h81v-100h-81z" />
    <glyph glyph-name="uni04DD" unicode="&#x4dd;" horiz-adv-x="700" 
d="M30 0l163 292l-5 -51l-154 259h88l120 -210h67v210h80v-210h67l120 210h87l-149 -259l-8 51l164 -292h-90l-123 220h-68v-220h-80v220h-68l-123 -220h-88zM395 600v100h81v-100h-81zM224 600v100h81v-100h-81z" />
    <glyph glyph-name="uni04DE" unicode="&#x4de;" horiz-adv-x="518" 
d="M237 -6q-61 0 -111.5 18.5t-95.5 54.5l29 69q22 -19 50 -33.5t58.5 -23t58.5 -8.5q83 0 121.5 33.5t38.5 92.5q0 56 -35.5 86.5t-110.5 30.5h-112v76h112q68 0 99 34t31 92q0 53 -33 83t-92 30q-40 0 -86.5 -11.5t-78.5 -34.5l-27 69q47 27 93.5 40.5t101.5 13.5
q33 0 68 -9.5t66 -31.5t50 -58.5t19 -90.5q0 -63 -32.5 -104t-72.5 -52q30 -8 58 -30t46 -55.5t18 -77.5q0 -76 -33.5 -120.5t-86 -63.5t-111.5 -19zM289 770v100h81v-100h-81zM118 770v100h81v-100h-81z" />
    <glyph glyph-name="uni04DF" unicode="&#x4df;" horiz-adv-x="448" 
d="M200 -7q-54 0 -97 12.5t-83 42.5l27 65q20 -16 43.5 -27t49 -16t51.5 -5q64 0 93.5 21.5t29.5 58.5q0 34 -25 55.5t-74 21.5h-85v69h85q42 0 64 20t22 56q0 34 -28.5 54t-80.5 20q-32 0 -68 -8t-64 -26l-25 64q38 23 77 32t84 9q30 0 62 -7.5t59.5 -24t44.5 -44t17 -67.5
q0 -46 -24.5 -74t-56.5 -38q23 -6 44.5 -20t36 -37t14.5 -58q0 -54 -28.5 -87t-73 -47.5t-91.5 -14.5zM249 600v100h81v-100h-81zM78 600v100h81v-100h-81z" />
    <glyph glyph-name="uni04E0" unicode="&#x4e0;" horiz-adv-x="518" 
d="M237 -6q-61 0 -111.5 18.5t-95.5 54.5l29 69q22 -19 50.5 -33.5t61 -23t65.5 -8.5q75 0 112.5 38.5t37.5 97.5q0 61 -44 94t-145 33h-59v46l162 205l36 35q5 5 3.5 7.5t-6.5 2.5h-278v70h389v-48l-211 -267l-47 22q135 0 208.5 -47t73.5 -153q0 -60 -19.5 -100.5
t-52.5 -65.5t-74 -36t-85 -11z" />
    <glyph glyph-name="uni04E1" unicode="&#x4e1;" horiz-adv-x="444" 
d="M197 -206q-46 0 -84 11.5t-72 33.5l18 66q29 -17 59.5 -26t67.5 -9q80 0 117 41.5t37 105.5q0 53 -39.5 85t-128.5 32h-57v46l139 205l36 35q5 5 3.5 7.5t-6.5 2.5h-252v70h359v-48l-189 -269l-42 24q133 0 196 -52t63 -138q0 -83 -32.5 -132t-84 -70t-108.5 -21z" />
    <glyph glyph-name="uni04E2" unicode="&#x4e2;" horiz-adv-x="639" 
d="M90 0v700h83v-466l-11 -67q-1 -7 4 -9.5t9 4.5l301 538h73v-700h-83v466l10 65q2 8 -3.5 10t-10.5 -7l-299 -534h-73zM187 780v60h250v-60h-250z" />
    <glyph glyph-name="uni04E3" unicode="&#x4e3;" horiz-adv-x="550" 
d="M85 0v500h80v-305l-11 -67q-1 -7 4 -9.5t9 4.5l223 377h75v-500h-80v304l10 65q2 8 -3 10.5t-11 -7.5l-220 -372h-76zM145 610v60h250v-60h-250z" />
    <glyph glyph-name="uni04E4" unicode="&#x4e4;" horiz-adv-x="639" 
d="M90 0v700h83v-466l-11 -67q-1 -7 4 -9.5t9 4.5l301 538h73v-700h-83v466l10 65q2 8 -3.5 10t-10.5 -7l-299 -534h-73zM357 770v100h81v-100h-81zM186 770v100h81v-100h-81z" />
    <glyph glyph-name="uni04E5" unicode="&#x4e5;" horiz-adv-x="550" 
d="M85 0v500h80v-305l-11 -67q-1 -7 4 -9.5t9 4.5l223 377h75v-500h-80v304l10 65q2 8 -3 10.5t-11 -7.5l-220 -372h-76zM315 600v100h81v-100h-81zM144 600v100h81v-100h-81z" />
    <glyph glyph-name="uni04E6" unicode="&#x4e6;" horiz-adv-x="606" 
d="M303 -12q-54 0 -96.5 16t-72.5 47q-21 22 -38 55.5t-26.5 91.5t-9.5 152t9.5 152t26.5 92t38 55q30 31 72.5 47t96.5 16t96.5 -16t72.5 -47q22 -21 38.5 -55t26 -92t9.5 -152t-9.5 -152t-26 -91.5t-38.5 -55.5q-30 -31 -72.5 -47t-96.5 -16zM303 66q74 0 112.5 40
t42.5 108q3 44 4.5 74.5t1.5 61.5q0 32 -1.5 62.5t-4.5 73.5q-4 68 -42.5 108t-112.5 40t-112.5 -40t-42.5 -108q-3 -43 -4.5 -73.5t-1.5 -62.5q0 -31 1.5 -61.5t4.5 -74.5q4 -68 42.5 -108t112.5 -40zM348 770v100h81v-100h-81zM177 770v100h81v-100h-81z" />
    <glyph glyph-name="uni04E7" unicode="&#x4e7;" horiz-adv-x="510" 
d="M255 -11q-87 0 -136 49.5t-58 123.5q-6 48 -6 87q0 21 1.5 42.5t4.5 46.5q9 75 58 124t136 49t136 -49t58 -124q6 -49 6 -89q0 -39 -6 -87q-9 -74 -58 -123.5t-136 -49.5zM255 58q55 0 84 32t33 75q4 45 4 83.5t-4 84.5q-4 44 -33 75.5t-84 31.5t-85 -31.5t-33 -75.5
q-3 -46 -3 -84.5t4 -83.5q5 -43 33.5 -75t83.5 -32zM300 600v100h81v-100h-81zM129 600v100h81v-100h-81z" />
    <glyph glyph-name="uni04E8" unicode="&#x4e8;" horiz-adv-x="606" 
d="M77 315v69h451v-69h-451zM303 -12q-54 0 -96.5 16t-72.5 47q-21 22 -38 55.5t-26.5 91.5t-9.5 152t9.5 152t26.5 92t38 55q30 31 72.5 47t96.5 16t96.5 -16t72.5 -47q22 -21 38.5 -55t26 -92t9.5 -152t-9.5 -152t-26 -91.5t-38.5 -55.5q-30 -31 -72.5 -47t-96.5 -16z
M303 66q74 0 112.5 40t42.5 108q3 44 4.5 74.5t1.5 61.5q0 32 -1.5 62.5t-4.5 73.5q-4 68 -42.5 108t-112.5 40t-112.5 -40t-42.5 -108q-3 -43 -4.5 -73.5t-1.5 -62.5q0 -31 1.5 -61.5t4.5 -74.5q4 -68 42.5 -108t112.5 -40z" />
    <glyph glyph-name="uni04E9" unicode="&#x4e9;" horiz-adv-x="510" 
d="M109 215v69h291v-69h-291zM255 -11q-87 0 -136 49.5t-58 123.5q-6 48 -6 87q0 21 1.5 42.5t4.5 46.5q9 75 58 124t136 49t136 -49t58 -124q6 -49 6 -89q0 -39 -6 -87q-9 -74 -58 -123.5t-136 -49.5zM255 58q55 0 84 32t33 75q4 45 4 83.5t-4 84.5q-4 44 -33 75.5
t-84 31.5t-85 -31.5t-33 -75.5q-3 -46 -3 -84.5t4 -83.5q5 -43 33.5 -75t83.5 -32z" />
    <glyph glyph-name="uni04EA" unicode="&#x4ea;" horiz-adv-x="606" 
d="M77 315v69h451v-69h-451zM303 -12q-54 0 -96.5 16t-72.5 47q-21 22 -38 55.5t-26.5 91.5t-9.5 152t9.5 152t26.5 92t38 55q30 31 72.5 47t96.5 16t96.5 -16t72.5 -47q22 -21 38.5 -55t26 -92t9.5 -152t-9.5 -152t-26 -91.5t-38.5 -55.5q-30 -31 -72.5 -47t-96.5 -16z
M303 66q74 0 112.5 40t42.5 108q3 44 4.5 74.5t1.5 61.5q0 32 -1.5 62.5t-4.5 73.5q-4 68 -42.5 108t-112.5 40t-112.5 -40t-42.5 -108q-3 -43 -4.5 -73.5t-1.5 -62.5q0 -31 1.5 -61.5t4.5 -74.5q4 -68 42.5 -108t112.5 -40zM348 770v100h81v-100h-81zM177 770v100h81v-100
h-81z" />
    <glyph glyph-name="uni04EB" unicode="&#x4eb;" horiz-adv-x="510" 
d="M109 215v69h291v-69h-291zM255 -11q-87 0 -136 49.5t-58 123.5q-6 48 -6 87q0 21 1.5 42.5t4.5 46.5q9 75 58 124t136 49t136 -49t58 -124q6 -49 6 -89q0 -39 -6 -87q-9 -74 -58 -123.5t-136 -49.5zM255 58q55 0 84 32t33 75q4 45 4 83.5t-4 84.5q-4 44 -33 75.5
t-84 31.5t-85 -31.5t-33 -75.5q-3 -46 -3 -84.5t4 -83.5q5 -43 33.5 -75t83.5 -32zM300 600v100h81v-100h-81zM129 600v100h81v-100h-81z" />
    <glyph glyph-name="uni04EC" unicode="&#x4ec;" horiz-adv-x="513" 
d="M208 -12q-45 0 -88 15.5t-80 45.5l25 70q32 -26 68 -39.5t75 -13.5q73 0 113.5 40t44.5 118q2 36 3.5 65.5t1.5 60.5q0 32 -1.5 61t-3.5 65q-5 78 -43 118t-106 40q-39 0 -75 -13.5t-68 -39.5l-25 70q37 30 80 45.5t88 15.5q68 0 117.5 -25t78 -75t34.5 -126
q2 -29 4 -66.5t2 -69.5q0 -31 -2 -69t-4 -67q-6 -75 -36 -125.5t-81 -75.5t-122 -25zM117 311v78h278v-78h-278zM282 770v100h81v-100h-81zM111 770v100h81v-100h-81z" />
    <glyph glyph-name="uni04ED" unicode="&#x4ed;" horiz-adv-x="461" 
d="M196 -14q-44 0 -79.5 11.5t-76.5 36.5l23 60q62 -36 132 -36q60 0 92.5 32t36.5 75q4 46 3.5 83.5t-3.5 84.5q-3 44 -36 75.5t-93 31.5q-37 0 -66 -9.5t-60 -27.5l-24 65q35 22 69.5 33t81.5 11q92 0 143 -49.5t61 -124.5q3 -25 4.5 -46.5t1.5 -42.5q0 -39 -6 -89
q-10 -75 -61 -124.5t-143 -49.5zM336 220h-211v70h211v-70zM251 600v100h81v-100h-81zM80 600v100h81v-100h-81z" />
    <glyph glyph-name="uni04EE" unicode="&#x4ee;" horiz-adv-x="507" 
d="M139 -12q-22 0 -44 6t-39 18l28 67q10 -6 25 -11.5t31 -5.5q35 0 55 20.5t31 53.5l-211 564h85l148 -409l13 -71q1 -5 7 -5t7 5l13 71l124 409h85l-189 -564q-28 -84 -67.5 -116t-101.5 -32zM132 780v60h250v-60h-250z" />
    <glyph glyph-name="uni04EF" unicode="&#x4ef;" horiz-adv-x="469" 
d="M101 -220l-29 72q52 15 76 49t39 83l13 43l-180 473h84l120 -315l9 -54q2 -8 7.5 -8t6.5 8l12 54l97 315h83l-177 -548q-20 -62 -60 -106t-101 -66zM110 610v60h250v-60h-250z" />
    <glyph glyph-name="uni04F0" unicode="&#x4f0;" horiz-adv-x="507" 
d="M139 -12q-22 0 -44 6t-39 18l28 67q10 -6 25 -11.5t31 -5.5q35 0 55 20.5t31 53.5l-211 564h85l148 -409l13 -71q1 -5 7 -5t7 5l13 71l124 409h85l-189 -564q-28 -84 -67.5 -116t-101.5 -32zM302 770v100h81v-100h-81zM131 770v100h81v-100h-81z" />
    <glyph glyph-name="uni04F1" unicode="&#x4f1;" horiz-adv-x="469" 
d="M101 -220l-29 72q52 15 76 49t39 83l13 43l-180 473h84l120 -315l9 -54q2 -8 7.5 -8t6.5 8l12 54l97 315h83l-177 -548q-20 -62 -60 -106t-101 -66zM280 600v100h81v-100h-81zM109 600v100h81v-100h-81z" />
    <glyph glyph-name="uni04F2" unicode="&#x4f2;" horiz-adv-x="507" 
d="M139 -12q-22 0 -44 6t-39 18l28 67q10 -6 25 -11.5t31 -5.5q35 0 55 20.5t31 53.5l-211 564h85l148 -409l13 -71q1 -5 7 -5t7 5l13 71l124 409h85l-189 -564q-28 -84 -67.5 -116t-101.5 -32zM118 770l100 150h85l-100 -150h-85zM291 770l100 150h85l-100 -150h-85z" />
    <glyph glyph-name="uni04F3" unicode="&#x4f3;" horiz-adv-x="469" 
d="M101 -220l-29 72q52 15 76 49t39 83l13 43l-180 473h84l120 -315l9 -54q2 -8 7.5 -8t6.5 8l12 54l97 315h83l-177 -548q-20 -62 -60 -106t-101 -66zM96 600l100 150h85l-100 -150h-85zM269 600l100 150h85l-100 -150h-85z" />
    <glyph glyph-name="uni04F4" unicode="&#x4f4;" horiz-adv-x="579" 
d="M405 0v294q0 10 -6 13t-14 -1l-51 -23q-13 -4 -37 -6t-41 -2q-48 0 -93 18t-74 58.5t-29 108.5v240h83v-231q0 -63 33 -91t89 -28q44 0 81 8.5t59 20.5v321h84v-700h-84zM320 770v100h81v-100h-81zM149 770v100h81v-100h-81z" />
    <glyph glyph-name="uni04F5" unicode="&#x4f5;" horiz-adv-x="512" 
d="M347 0v199q0 10 -6 12t-14 -3l-51 -27q-22 -7 -58 -7q-49 0 -84.5 19t-54.5 54t-19 82v171h80v-162q0 -42 25.5 -67t74.5 -25q41 0 66 11t41 28v215h80v-500h-80zM291 600v100h81v-100h-81zM120 600v100h81v-100h-81z" />
    <glyph glyph-name="uni04F6" unicode="&#x4f6;" horiz-adv-x="432" 
d="M173 -140v186l-16 30h89v-216h-73zM90 0v700h332v-78h-249v-622h-83z" />
    <glyph glyph-name="uni04F7" unicode="&#x4f7;" horiz-adv-x="410" 
d="M153 -130v170l-16 30h88v-200h-72zM85 0v500h295v-70h-215v-430h-80z" />
    <glyph glyph-name="uni04F8" unicode="&#x4f8;" horiz-adv-x="779" 
d="M90 0v700h83v-294h128q101 0 158 -54t57 -149t-57 -149t-158 -54h-211zM173 70h128q63 0 97.5 36t34.5 97t-34.5 97t-97.5 36h-128v-266zM606 0v700h83v-700h-83zM445 770v100h81v-100h-81zM274 770v100h81v-100h-81z" />
    <glyph glyph-name="uni04F9" unicode="&#x4f9;" horiz-adv-x="690" 
d="M525 0v500h80v-500h-80zM85 0v500h80v-182h107q84 0 131 -42t47 -117t-47 -117t-131 -42h-187zM165 70h107q47 0 72.5 24.5t25.5 64.5q0 41 -25.5 65t-72.5 24h-107v-178zM390 600v100h81v-100h-81zM219 600v100h81v-100h-81z" />
    <glyph glyph-name="uni04FA" unicode="&#x4fa;" horiz-adv-x="426" 
d="M22 -222l-28 68q44 17 67 57t23 97h83q0 -79 -34.5 -136t-110.5 -86zM14 320v69h291v-69h-291zM84 0v700h332v-78h-249v-622h-83z" />
    <glyph glyph-name="uni04FB" unicode="&#x4fb;" horiz-adv-x="430" 
d="M43 -222l-28 68q41 13 65.5 53.5t24.5 100.5h80q0 -48 -10 -84t-28 -62.5t-44.5 -45t-59.5 -30.5zM14 220v69h291v-69h-291zM105 0v500h295v-70h-215v-430h-80z" />
    <glyph glyph-name="uni04FC" unicode="&#x4fc;" horiz-adv-x="522" 
d="M328 -222l-28 68q48 12 74.5 39t26.5 73q0 27 -10 61.5t-31 77.5l-79 158l-13 41q-1 5 -6.5 5t-7.5 -5l-13 -41l-127 -255h-94l186 350l-186 350h94l127 -255l13 -41q2 -5 7.5 -5t6.5 5l13 41l127 255h94l-186 -350l120 -225q22 -41 36 -83t14 -84q0 -48 -20 -84
t-55.5 -60t-82.5 -36z" />
    <glyph glyph-name="uni04FD" unicode="&#x4fd;" horiz-adv-x="472" 
d="M279 -222l-31 63q40 10 67 38.5t29.5 74t-31.5 106.5l-51 92l-18 44q-2 5 -7 5t-7 -5l-18 -44l-88 -152h-94l158 250l-158 250h94l88 -152l18 -44q2 -5 7 -5t7 5l18 44l86 152h94l-156 -250l88 -149q36 -60 43 -113.5t-9 -96t-49.5 -72t-79.5 -41.5z" />
    <glyph glyph-name="uni04FE" unicode="&#x4fe;" horiz-adv-x="522" 
d="M271 313v70h201v-70h-201zM50 313v70h201v-70h-201zM20 0l186 350l-186 350h94l127 -255l13 -41q2 -5 7.5 -5t6.5 5l13 41l127 255h94l-186 -350l186 -350h-94l-127 255l-13 41q-1 5 -6.5 5t-7.5 -5l-13 -41l-127 -255h-94z" />
    <glyph glyph-name="uni04FF" unicode="&#x4ff;" horiz-adv-x="492" 
d="M70 213v70h161v-70h-161zM271 213v70h151v-70h-151zM40 0l158 250l-158 250h94l88 -152l18 -44q2 -5 7 -5t7 5l18 44l86 152h94l-156 -250l156 -250h-94l-86 152l-18 44q-2 5 -7 5t-7 -5l-18 -44l-88 -152h-94z" />
    <glyph glyph-name="Wgrave" unicode="&#x1e80;" horiz-adv-x="615" 
d="M135 0l-110 700h73l81 -501l2 -51q0 -9 6 -10t8 8l84 354h57l84 -354q2 -9 8 -8t6 10l2 51l82 501h72l-110 -700h-83l-79 309q-3 12 -10 12t-10 -12l-80 -309h-83zM275 770l-100 150h85l100 -150h-85z" />
    <glyph glyph-name="wgrave" unicode="&#x1e81;" horiz-adv-x="580" 
d="M119 3l-79 497h72l48 -301l3 -53q1 -9 6.5 -9.5t7.5 9.5l84 354h57l84 -354q2 -10 7.5 -9.5t6.5 9.5l3 53l50 301h71l-80 -497h-78l-82 326q-3 12 -10 12t-10 -12l-83 -326h-78zM257 600l-100 150h85l100 -150h-85z" />
    <glyph glyph-name="Wacute" unicode="&#x1e82;" horiz-adv-x="615" 
d="M135 0l-110 700h73l81 -501l2 -51q0 -9 6 -10t8 8l84 354h57l84 -354q2 -9 8 -8t6 10l2 51l82 501h72l-110 -700h-83l-79 309q-3 12 -10 12t-10 -12l-80 -309h-83zM255 770l100 150h85l-100 -150h-85z" />
    <glyph glyph-name="wacute" unicode="&#x1e83;" horiz-adv-x="580" 
d="M119 3l-79 497h72l48 -301l3 -53q1 -9 6.5 -9.5t7.5 9.5l84 354h57l84 -354q2 -10 7.5 -9.5t6.5 9.5l3 53l50 301h71l-80 -497h-78l-82 326q-3 12 -10 12t-10 -12l-83 -326h-78zM237 600l100 150h85l-100 -150h-85z" />
    <glyph glyph-name="Wdieresis" unicode="&#x1e84;" horiz-adv-x="615" 
d="M135 0l-110 700h73l81 -501l2 -51q0 -9 6 -10t8 8l84 354h57l84 -354q2 -9 8 -8t6 10l2 51l82 501h72l-110 -700h-83l-79 309q-3 12 -10 12t-10 -12l-80 -309h-83zM353 770v100h81v-100h-81zM182 770v100h81v-100h-81z" />
    <glyph glyph-name="wdieresis" unicode="&#x1e85;" horiz-adv-x="580" 
d="M119 3l-79 497h72l48 -301l3 -53q1 -9 6.5 -9.5t7.5 9.5l84 354h57l84 -354q2 -10 7.5 -9.5t6.5 9.5l3 53l50 301h71l-80 -497h-78l-82 326q-3 12 -10 12t-10 -12l-83 -326h-78zM335 600v100h81v-100h-81zM164 600v100h81v-100h-81z" />
    <glyph glyph-name="Ygrave" unicode="&#x1ef2;" horiz-adv-x="482" 
d="M201 0v330l-201 370h94l127 -255l13 -41q2 -5 7.5 -5t6.5 5l13 41l127 255h94l-201 -370v-330h-80zM208 770l-100 150h85l100 -150h-85z" />
    <glyph glyph-name="ygrave" unicode="&#x1ef3;" horiz-adv-x="469" 
d="M101 -220l-29 72q52 15 76 49t39 83l13 43l-180 473h84l120 -315l9 -54q2 -8 7.5 -8t6.5 8l12 54l97 315h83l-177 -548q-20 -62 -60 -106t-101 -66zM202 600l-100 150h85l100 -150h-85z" />
    <glyph glyph-name="uni2002" unicode="&#x2002;" horiz-adv-x="0" 
 />
    <glyph glyph-name="uni2003" unicode="&#x2003;" horiz-adv-x="0" 
 />
    <glyph glyph-name="endash" unicode="&#x2013;" horiz-adv-x="540" 
d="M50 221v70h440v-70h-440z" />
    <glyph glyph-name="emdash" unicode="&#x2014;" horiz-adv-x="712" 
d="M50 221v70h612v-70h-612z" />
    <glyph glyph-name="quoteleft" unicode="&#x2018;" horiz-adv-x="185" 
d="M165 747l-9 -53q-40 -15 -63 -49.5t-25 -84.5h57v-100h-105v66q0 65 18 109t50.5 71t76.5 41z" />
    <glyph glyph-name="quoteright" unicode="&#x2019;" horiz-adv-x="285" 
d="M70 463l9 53q40 15 63 49.5t25 84.5h-57v100h105v-66q0 -65 -18 -109t-50.5 -71t-76.5 -41z" />
    <glyph glyph-name="quotesinglbase" unicode="&#x201a;" horiz-adv-x="275" 
d="M0 -191l9 44q59 11 92 49.5t36 97.5h-57v100h105v-86q0 -57 -22.5 -100t-64 -70t-98.5 -35z" />
    <glyph glyph-name="quotedblleft" unicode="&#x201c;" horiz-adv-x="455" 
d="M215 747l-9 -53q-40 -15 -63 -49.5t-25 -84.5h47v-100h-95v66q0 65 18 109t50.5 71t76.5 41zM385 747l-9 -53q-40 -15 -63 -49.5t-25 -84.5h47v-100h-95v66q0 65 18 109t50.5 71t76.5 41z" />
    <glyph glyph-name="quotedblright" unicode="&#x201d;" horiz-adv-x="455" 
d="M240 463l9 53q40 15 63 49.5t25 84.5h-47v100h95v-66q0 -65 -18 -109t-50.5 -71t-76.5 -41zM70 463l9 53q40 15 63 49.5t25 84.5h-47v100h95v-66q0 -65 -18 -109t-50.5 -71t-76.5 -41z" />
    <glyph glyph-name="quotedblbase" unicode="&#x201e;" horiz-adv-x="405" 
d="M170 -187l9 53q40 15 63 49.5t25 84.5h-47v100h95v-66q0 -65 -18 -109t-50.5 -71t-76.5 -41zM0 -187l9 53q40 15 63 49.5t25 84.5h-47v100h95v-66q0 -65 -18 -109t-50.5 -71t-76.5 -41z" />
    <glyph glyph-name="dagger" unicode="&#x2020;" horiz-adv-x="526" 
d="M235 342v253h-115v47h115v132h57v-132h114v-47h-114v-253h-57z" />
    <glyph glyph-name="bullet" unicode="&#x2022;" horiz-adv-x="352" 
d="M175 253q-35 0 -53.5 14t-25 37.5t-6.5 50.5q0 26 6.5 47.5t25 35t53.5 13.5q36 0 54.5 -13.5t25.5 -36t7 -48.5t-7 -49t-25.5 -37t-54.5 -14z" />
    <glyph glyph-name="ellipsis" unicode="&#x2026;" horiz-adv-x="665" 
d="M290 0v100h85v-100h-85zM490 0v100h85v-100h-85zM90 0v100h85v-100h-85z" />
    <glyph glyph-name="guilsinglleft" unicode="&#x2039;" horiz-adv-x="295" 
d="M156 52l-116 144v60l116 145h89l-115 -143l-35 -25q-8 -7 0 -14l35 -25l114 -142h-88z" />
    <glyph glyph-name="guilsinglright" unicode="&#x203a;" horiz-adv-x="295" 
d="M51 52l114 142l35 25q8 7 0 14l-35 25l-115 143h89l116 -145v-60l-116 -144h-88z" />
    <glyph glyph-name="fraction" unicode="&#x2044;" horiz-adv-x="265" 
d="M-80 0l342 700h83l-340 -700h-85z" />
    <glyph glyph-name="uni2070" unicode="&#x2070;" horiz-adv-x="480" 
d="M240 342q-42 0 -72.5 11.5t-52.5 31.5q-18 17 -30 39.5t-18.5 59.5t-6.5 94t6.5 93.5t18.5 59.5t30 39q22 20 52.5 31.5t72.5 11.5q41 0 72 -11.5t53 -31.5q16 -14 28 -35.5t19.5 -58t7.5 -98.5q0 -61 -7 -98t-19.5 -58.5t-28.5 -36.5q-22 -20 -53 -31.5t-72 -11.5z
M240 411q47 0 75 23.5t31 65.5q2 20 3 37.5t1 40.5t-1 40t-3 37q-3 42 -31 65.5t-75 23.5q-49 0 -76 -23.5t-30 -65.5q-1 -18 -2 -27t-1.5 -19t-0.5 -31t0.5 -31t1.5 -19t2 -28q3 -42 30 -65.5t76 -23.5zM207 519v117h66v-117h-66z" />
    <glyph glyph-name="uni2074" unicode="&#x2074;" horiz-adv-x="428" 
d="M285 350v122h-245v36l150 297h80l-139 -270h154v140h73v-325h-73z" />
    <glyph glyph-name="uni2075" unicode="&#x2075;" horiz-adv-x="411" 
d="M186 344q-42 0 -76 10.5t-60 29.5l24 63q23 -19 54.5 -27.5t56.5 -8.5q49 0 79 22t30 62q0 37 -29 58t-74 21q-22 0 -42 -6.5t-42 -22.5l-37 26v234h271v-62h-201v-113q0 -5 4 -7t10 1l23 11q5 2 13.5 2.5t13.5 0.5q47 0 83.5 -16.5t57.5 -48.5t21 -80
q0 -68 -48.5 -108.5t-131.5 -40.5z" />
    <glyph glyph-name="uni2076" unicode="&#x2076;" horiz-adv-x="443" 
d="M222 342q-78 0 -125 41.5t-47 109.5q0 24 6 46t21 48.5t40 63.5l108 154h88l-134 -174q-5 -7 -2 -10.5t10 0.5l33 15q6 1 12 1.5t12 0.5q36 0 70.5 -16.5t56.5 -49t22 -79.5q0 -68 -47.5 -109.5t-123.5 -41.5zM222 410q45 0 72 22.5t27 60.5t-27 60.5t-72 22.5
t-72.5 -22.5t-27.5 -60.5q0 -37 27 -60t73 -23z" />
    <glyph glyph-name="uni2077" unicode="&#x2077;" horiz-adv-x="428" 
d="M81 350l106 195h-119v66h150l73 125h-237v69h322v-44l-63 -109l-25 -30q-4 -5 -2 -8t9 -3h87v-66h-122l-106 -195h-73z" />
    <glyph glyph-name="uni2078" unicode="&#x2078;" horiz-adv-x="439" 
d="M221 342q-80 0 -128 37t-48 97q0 29 17 56t47 41l24 3q8 1 9 4.5t-7 6.5q-36 16 -54.5 42t-18.5 57q0 56 42 91.5t115 35.5q74 0 117.5 -36t43.5 -94q0 -24 -13.5 -46.5t-37.5 -36.5l-21 -3q-8 -1 -8 -5t8 -7q41 -16 63.5 -45t22.5 -64q0 -60 -46.5 -97t-126.5 -37z
M222 405q45 0 72 18.5t27 52.5q0 30 -34 51t-93 30q-37 -8 -57 -28.5t-20 -49.5q0 -34 28.5 -54t76.5 -20zM241 613q35 7 51 26.5t16 44.5q0 32 -24.5 49.5t-64.5 17.5q-39 0 -62 -17t-23 -46q0 -28 28 -47.5t79 -27.5z" />
    <glyph glyph-name="uni2079" unicode="&#x2079;" horiz-adv-x="443" 
d="M130 350l134 174q5 7 2.5 10.5t-10.5 -0.5l-32 -15q-7 -1 -13 -1.5t-11 -0.5q-36 0 -70.5 16.5t-57 49t-22.5 79.5q0 68 47.5 109.5t123.5 41.5q78 0 125 -41.5t47 -109.5q0 -23 -6 -45t-20.5 -48.5t-40.5 -64.5l-108 -154h-88zM221 579q45 0 72.5 22.5t27.5 60.5
t-27 60.5t-73 22.5q-45 0 -72 -22.5t-27 -60.5t27 -60.5t72 -22.5z" />
    <glyph glyph-name="Euro" unicode="&#x20ac;" horiz-adv-x="653" 
d="M453 -12q-65 0 -115 21.5t-80.5 65.5t-38.5 111q-2 14 -16 14h-143v70h152q-1 42 -1 80t1 80h-152v70h157q8 71 38 118t80 70.5t118 23.5q43 0 84 -15.5t76 -45.5l-25 -70q-30 26 -64 39.5t-71 13.5q-66 0 -104.5 -34t-48.5 -100h200v-70h-206q-1 -42 -1 -80t1 -80h206
v-70h-201q20 -134 154 -134q37 0 71 13.5t64 39.5l25 -70q-35 -30 -76 -45.5t-84 -15.5z" />
    <glyph glyph-name="uni20B4" unicode="&#x20b4;" horiz-adv-x="678" 
d="M351 -10q-68 0 -117.5 27.5t-76 75.5t-26.5 108q0 11 1 21l2 20h84q-6 -21 -6 -46q0 -57 36 -93t107 -36q47 0 91.5 16t77.5 45l30 -70q-37 -31 -91 -49.5t-112 -18.5zM60 211v77h558v-77h-558zM60 428v77h558v-77h-558zM463 471q8 22 8 47q0 52 -38.5 84.5t-110.5 32.5
q-36 0 -75 -10t-75 -35l-25 70q41 26 86.5 38t89.5 12q71 0 122.5 -25.5t79.5 -70t28 -101.5q0 -11 -1 -21.5t-3 -20.5h-86z" />
    <glyph glyph-name="uni20B8" unicode="&#x20b8;" horiz-adv-x="488" 
d="M202 0v385h-172v78h428v-78h-173v-385h-83zM30 623v77h428v-77h-428z" />
    <glyph glyph-name="uni20BD" unicode="&#x20bd;" horiz-adv-x="603" 
d="M0 114v77h468v-77h-468zM0 311v77h198v-77h-198zM140 0v700h240q89 0 141 -53.5t52 -143.5q0 -89 -52 -140.5t-141 -51.5h-160v-311h-80zM220 384h150q56 0 89 31.5t33 87.5q0 59 -33 93t-89 34h-150v-246z" />
    <glyph glyph-name="uni2116" unicode="&#x2116;" horiz-adv-x="1133" 
d="M828 293q-87 0 -136 40t-58 99q-3 20 -4.5 36.5t-1.5 33.5t1.5 34.5t4.5 36.5q9 61 58 100t136 39t136 -39.5t58 -99.5q3 -19 4.5 -36.5t1.5 -34.5t-1.5 -33.5t-4.5 -36.5q-9 -60 -58 -99.5t-136 -39.5zM634 120v70h400v-70h-400zM828 360q55 0 84 24t33 55q4 34 4 62.5
t-4 63.5q-4 32 -33 55.5t-84 23.5t-85 -23.5t-33 -55.5q-3 -34 -3 -63t4 -63q5 -32 33.5 -55.5t83.5 -23.5zM90 0v700h68l293 -547q4 -7 9 -4.5t4 9.5l-11 67v475h80v-700h-80l-279 517q-4 9 -9.5 7t-4.5 -10l10 -65v-449h-80z" />
    <glyph glyph-name="trademark" unicode="&#x2122;" horiz-adv-x="922" 
d="M469 346v457h82l110 -268q3 -8 9 -8t9 8l110 268h83v-457h-74v253l9 61q1 6 -3.5 8.5t-7.5 -5.5l-104 -251h-44l-103 251q-4 8 -8.5 5.5t-3.5 -8.5l9 -61l1 -253h-74zM196 346v387h-146v70h375v-70h-155v-387h-74z" />
    <glyph glyph-name="uni2153" unicode="&#x2153;" horiz-adv-x="1051" 
d="M44 245v66h111v318h-115v41l192 38v-397h109v-66h-297zM301 0l342 700h83l-340 -700h-85zM838 -6q-46 0 -82.5 11t-69.5 38l25 63q26 -24 57 -33.5t62 -9.5q50 0 73.5 18t23.5 50q0 29 -22 46.5t-65 17.5h-65v65h65q39 0 59 17.5t20 48.5q0 32 -23.5 50t-65.5 18
q-24 0 -55 -6t-56 -23l-23 60q32 22 66.5 29.5t70.5 7.5q35 0 72 -13t62 -41.5t25 -76.5q0 -42 -22.5 -66.5t-51.5 -36.5q38 -13 60.5 -39.5t22.5 -63.5q0 -47 -24.5 -76t-62 -42t-76.5 -13z" />
    <glyph glyph-name="uni2154" unicode="&#x2154;" horiz-adv-x="1074" 
d="M51 245v82q0 50 26 88.5t89 63.5l47 19q34 14 51.5 31t17.5 44q0 32 -27 49t-65 17q-29 0 -59.5 -6t-57.5 -23l-23 60q36 22 70.5 29.5t72.5 7.5q37 0 74 -13t62 -42t25 -76q0 -52 -27.5 -83t-75.5 -51l-49 -20q-35 -14 -52 -30.5t-21.5 -31.5t-4.5 -26v-19h230v-70h-303
zM324 0l342 700h83l-340 -700h-85zM861 -6q-46 0 -82.5 11t-69.5 38l25 63q26 -24 57 -33.5t62 -9.5q50 0 73.5 18t23.5 50q0 29 -22 46.5t-65 17.5h-65v65h65q39 0 59 17.5t20 48.5q0 32 -23.5 50t-65.5 18q-24 0 -55 -6t-56 -23l-23 60q32 22 66.5 29.5t70.5 7.5
q35 0 72 -13t62 -41.5t25 -76.5q0 -42 -22.5 -66.5t-51.5 -36.5q38 -13 60.5 -39.5t22.5 -63.5q0 -47 -24.5 -76t-62 -42t-76.5 -13z" />
    <glyph glyph-name="minus" unicode="&#x2212;" horiz-adv-x="540" 
d="M50 315v70h440v-70h-440z" />
    <glyph glyph-name="approxequal" unicode="&#x2248;" horiz-adv-x="600" 
d="M396 179q-38 0 -63 8.5t-44 19.5t-39 19.5t-47 8.5q-30 0 -58 -11.5t-49 -29.5l-38 50q35 30 72.5 44t77.5 14q38 0 63 -8.5t44 -19.5t39 -19.5t47 -8.5q30 0 58 11.5t49 29.5l37 -50q-35 -30 -72 -44t-77 -14zM396 379q-38 0 -63 8.5t-44 19.5t-39 19.5t-47 8.5
q-30 0 -58 -11.5t-49 -29.5l-38 50q35 30 72.5 44t77.5 14q38 0 63 -8.5t44 -19.5t39 -19.5t47 -8.5q30 0 58 11.5t49 29.5l37 -50q-35 -30 -72 -44t-77 -14z" />
    <glyph glyph-name="notequal" unicode="&#x2260;" horiz-adv-x="540" 
d="M50 430v70h440v-70h-440zM50 200v70h440v-70h-440zM52 0l342 700h83l-340 -700h-85z" />
    <glyph glyph-name="lessequal" unicode="&#x2264;" horiz-adv-x="540" 
d="M490 228l-440 149v83l440 152v-79l-349 -106q-8 -2 -8 -8.5t8 -8.5l349 -101v-81zM50 100v70h440v-70h-440z" />
    <glyph glyph-name="greaterequal" unicode="&#x2265;" horiz-adv-x="540" 
d="M50 228v81l349 101q8 2 8 8.5t-8 8.5l-349 106v79l440 -152v-83zM50 100v70h440v-70h-440z" />
    <glyph glyph-name="A.ss01" 
d="M30 0l194 700h127l195 -700h-85l-51 187h-244l-51 -187h-85zM187 261h202l-86 313l-8 53q-1 6 -6.5 6t-6.5 -6l-9 -53z" />
    <glyph glyph-name="Aacute.ss01" 
d="M30 0l194 700h127l195 -700h-85l-51 187h-244l-51 -187h-85zM187 261h202l-86 313l-8 53q-1 6 -6.5 6t-6.5 -6l-9 -53zM230 770l100 150h85l-100 -150h-85z" />
    <glyph glyph-name="Abreve.ss01" 
d="M30 0l194 700h127l195 -700h-85l-51 187h-244l-51 -187h-85zM187 261h202l-86 313l-8 53q-1 6 -6.5 6t-6.5 -6l-9 -53zM283 777q-53 0 -96.5 28t-57.5 86l60 17q12 -34 34.5 -53t59.5 -19q38 0 60 19t34 53l60 -17q-13 -58 -57 -86t-97 -28z" />
    <glyph glyph-name="uni01CD.ss01" 
d="M30 0l194 700h127l195 -700h-85l-51 187h-244l-51 -187h-85zM187 261h202l-86 313l-8 53q-1 6 -6.5 6t-6.5 -6l-9 -53zM245 770l-95 150h75l41 -67l11 -34q2 -7 6 -7t6 7l11 34l40 67h75l-95 -150h-75z" />
    <glyph glyph-name="Acircumflex.ss01" 
d="M30 0l194 700h127l195 -700h-85l-51 187h-244l-51 -187h-85zM187 261h202l-86 313l-8 53q-1 6 -6.5 6t-6.5 -6l-9 -53zM150 770l91 150h81l93 -150h-79l-36 67l-11 34q-2 8 -6 8t-6 -8l-11 -34l-37 -67h-79z" />
    <glyph glyph-name="Adieresis.ss01" 
d="M30 0l194 700h127l195 -700h-85l-51 187h-244l-51 -187h-85zM187 261h202l-86 313l-8 53q-1 6 -6.5 6t-6.5 -6l-9 -53zM328 770v100h81v-100h-81zM157 770v100h81v-100h-81z" />
    <glyph glyph-name="Agrave.ss01" 
d="M30 0l194 700h127l195 -700h-85l-51 187h-244l-51 -187h-85zM187 261h202l-86 313l-8 53q-1 6 -6.5 6t-6.5 -6l-9 -53zM250 770l-100 150h85l100 -150h-85z" />
    <glyph glyph-name="Amacron.ss01" 
d="M30 0l194 700h127l195 -700h-85l-51 187h-244l-51 -187h-85zM187 261h202l-86 313l-8 53q-1 6 -6.5 6t-6.5 -6l-9 -53zM158 780v60h250v-60h-250z" />
    <glyph glyph-name="Aogonek.ss01" 
d="M30 0l194 700h127l195 -700h-85l-51 187h-244l-51 -187h-85zM187 261h202l-86 313l-8 53q-1 6 -6.5 6t-6.5 -6l-9 -53zM575 -248q-50 5 -86 22.5t-55 50t-19 79.5q0 36 16.5 66.5t48.5 49.5l66 -20q-26 -15 -42 -38.5t-16 -53.5q0 -47 27 -66.5t74 -27.5z" />
    <glyph glyph-name="Aring.ss01" 
d="M30 0l194 700h127l195 -700h-85l-51 187h-244l-51 -187h-85zM187 261h202l-86 313l-8 53q-1 6 -6.5 6t-6.5 -6l-9 -53zM284 741q-35 0 -66.5 9.5t-50.5 32t-19 61.5q0 40 20 62t51.5 31t64.5 9t64 -9t50.5 -31t19.5 -62t-19.5 -62.5t-50.5 -31.5t-64 -9zM282 792
q33 0 56 9.5t23 42.5q0 32 -23 41.5t-56 9.5q-34 0 -55.5 -9.5t-21.5 -41.5q0 -33 23 -42.5t54 -9.5z" />
    <glyph glyph-name="Atilde.ss01" 
d="M30 0l194 700h127l195 -700h-85l-51 187h-244l-51 -187h-85zM187 261h202l-86 313l-8 53q-1 6 -6.5 6t-6.5 -6l-9 -53zM150 762l-18 54q17 26 39.5 37.5t47.5 11.5q33 0 53 -9.5t37 -19.5t39 -10q20 0 35 10t32 32l18 -54q-17 -26 -39 -37.5t-48 -11.5q-32 0 -52.5 10
t-37.5 19.5t-39 9.5q-19 0 -34.5 -10t-32.5 -32z" />
    <glyph glyph-name="AE.ss01" horiz-adv-x="849" 
d="M30 0l197 700h562v-78h-325v-233h308v-78h-308v-233h325v-78h-403v187h-220l-51 -187h-85zM187 261h199v361h-100z" />
    <glyph glyph-name="G.ss01" horiz-adv-x="561" 
d="M315 -12q-111 0 -175 58.5t-74 167.5q-2 29 -4 67t-2 69q0 32 1.5 69.5t3.5 66.5q11 116 76.5 171t174.5 55q52 0 98.5 -16t79.5 -45l-26 -71q-34 29 -69.5 41.5t-82.5 12.5q-76 0 -120 -38.5t-49 -119.5q-2 -36 -3.5 -65t-1.5 -61q0 -31 1.5 -60.5t3.5 -65.5
q5 -73 47.5 -115.5t120.5 -42.5q28 0 56.5 4.5t41.5 13.5v227h-131v78h214v-347q-37 -26 -79 -40t-102 -14z" />
    <glyph glyph-name="Gbreve.ss01" horiz-adv-x="561" 
d="M315 -12q-111 0 -175 58.5t-74 167.5q-2 29 -4 67t-2 69q0 32 1.5 69.5t3.5 66.5q11 116 76.5 171t174.5 55q52 0 98.5 -16t79.5 -45l-26 -71q-34 29 -69.5 41.5t-82.5 12.5q-76 0 -120 -38.5t-49 -119.5q-2 -36 -3.5 -65t-1.5 -61q0 -31 1.5 -60.5t3.5 -65.5
q5 -73 47.5 -115.5t120.5 -42.5q28 0 56.5 4.5t41.5 13.5v227h-131v78h214v-347q-37 -26 -79 -40t-102 -14zM281 807q-53 0 -96.5 28t-57.5 86l60 17q12 -34 34.5 -53t59.5 -19q38 0 60 19t34 53l60 -17q-13 -58 -57 -86t-97 -28z" />
    <glyph glyph-name="Gcaron.ss01" horiz-adv-x="561" 
d="M315 -12q-111 0 -175 58.5t-74 167.5q-2 29 -4 67t-2 69q0 32 1.5 69.5t3.5 66.5q11 116 76.5 171t174.5 55q52 0 98.5 -16t79.5 -45l-26 -71q-34 29 -69.5 41.5t-82.5 12.5q-76 0 -120 -38.5t-49 -119.5q-2 -36 -3.5 -65t-1.5 -61q0 -31 1.5 -60.5t3.5 -65.5
q5 -73 47.5 -115.5t120.5 -42.5q28 0 56.5 4.5t41.5 13.5v227h-131v78h214v-347q-37 -26 -79 -40t-102 -14zM243 800l-95 150h75l41 -67l11 -34q2 -7 6 -7t6 7l11 34l40 67h75l-95 -150h-75z" />
    <glyph glyph-name="uni0122.ss01" horiz-adv-x="561" 
d="M315 -12q-111 0 -175 58.5t-74 167.5q-2 29 -4 67t-2 69q0 32 1.5 69.5t3.5 66.5q11 116 76.5 171t174.5 55q52 0 98.5 -16t79.5 -45l-26 -71q-34 29 -69.5 41.5t-82.5 12.5q-76 0 -120 -38.5t-49 -119.5q-2 -36 -3.5 -65t-1.5 -61q0 -31 1.5 -60.5t3.5 -65.5
q5 -73 47.5 -115.5t120.5 -42.5q28 0 56.5 4.5t41.5 13.5v227h-131v78h214v-347q-37 -26 -79 -40t-102 -14zM206 -322l-50 40q37 24 58 52t29.5 64t8.5 84h69q0 -58 -10.5 -101t-35.5 -76t-69 -63z" />
    <glyph glyph-name="Gdotaccent.ss01" horiz-adv-x="561" 
d="M315 -12q-111 0 -175 58.5t-74 167.5q-2 29 -4 67t-2 69q0 32 1.5 69.5t3.5 66.5q11 116 76.5 171t174.5 55q52 0 98.5 -16t79.5 -45l-26 -71q-34 29 -69.5 41.5t-82.5 12.5q-76 0 -120 -38.5t-49 -119.5q-2 -36 -3.5 -65t-1.5 -61q0 -31 1.5 -60.5t3.5 -65.5
q5 -73 47.5 -115.5t120.5 -42.5q28 0 56.5 4.5t41.5 13.5v227h-131v78h214v-347q-37 -26 -79 -40t-102 -14zM241 800v100h80v-100h-80z" />
    <glyph glyph-name="I.ss01" horiz-adv-x="263" 
d="M90 0v700h83v-700h-83z" />
    <glyph glyph-name="IJ.ss01" horiz-adv-x="710" 
d="M413 -2q-34 0 -77.5 9.5t-72.5 28.5v79q35 -18 70.5 -29.5t69.5 -11.5q73 0 104 29t31 81v516h82v-516q0 -88 -56 -137t-151 -49zM90 0v700h83v-700h-83z" />
    <glyph glyph-name="Iacute.ss01" horiz-adv-x="263" 
d="M90 0v700h83v-700h-83zM79 770l100 150h85l-100 -150h-85z" />
    <glyph glyph-name="Icircumflex.ss01" horiz-adv-x="263" 
d="M90 0v700h83v-700h-83zM-1 770l91 150h81l93 -150h-79l-36 67l-11 34q-2 8 -6 8t-6 -8l-11 -34l-37 -67h-79z" />
    <glyph glyph-name="Idieresis.ss01" horiz-adv-x="263" 
d="M90 0v700h83v-700h-83zM177 770v100h81v-100h-81zM6 770v100h81v-100h-81z" />
    <glyph glyph-name="Idotaccent.ss01" horiz-adv-x="263" 
d="M90 0v700h83v-700h-83zM92 770v100h80v-100h-80z" />
    <glyph glyph-name="Igrave.ss01" horiz-adv-x="263" 
d="M90 0v700h83v-700h-83zM99 770l-100 150h85l100 -150h-85z" />
    <glyph glyph-name="Imacron.ss01" horiz-adv-x="263" 
d="M90 0v700h83v-700h-83zM7 780v60h250v-60h-250z" />
    <glyph glyph-name="Iogonek.ss01" horiz-adv-x="263" 
d="M90 0v700h83v-700h-83zM202 -248q-50 5 -86 22.5t-55 50t-19 79.5q0 36 16.5 66.5t48.5 49.5l66 -20q-26 -15 -42 -38.5t-16 -53.5q0 -47 27 -66.5t74 -27.5z" />
    <glyph glyph-name="J.ss01" horiz-adv-x="390" 
d="M148 -12q-32 0 -66.5 14t-61.5 39l37 63q18 -19 43.5 -31t50.5 -12q33 0 52.5 21t19.5 56v562h82v-562q0 -34 -11 -62t-31.5 -47.5t-49.5 -30t-65 -10.5z" />
    <glyph glyph-name="Z.ss01" horiz-adv-x="507" 
d="M45 0v48l308 564v10h-308v78h417v-48l-309 -564v-10h309v-78h-417z" />
    <glyph glyph-name="Zacute.ss01" horiz-adv-x="507" 
d="M45 0v48l308 564v10h-308v78h417v-48l-309 -564v-10h309v-78h-417zM201 770l100 150h85l-100 -150h-85z" />
    <glyph glyph-name="Zcaron.ss01" horiz-adv-x="507" 
d="M45 0v48l308 564v10h-308v78h417v-48l-309 -564v-10h309v-78h-417zM216 770l-95 150h75l41 -67l11 -34q2 -7 6 -7t6 7l11 34l40 67h75l-95 -150h-75z" />
    <glyph glyph-name="Zdotaccent.ss01" horiz-adv-x="507" 
d="M45 0v48l308 564v10h-308v78h417v-48l-309 -564v-10h309v-78h-417zM214 770v100h80v-100h-80z" />
    <glyph glyph-name="i.ss01" horiz-adv-x="250" 
d="M85 0v500h80v-500h-80zM85 600v100h80v-100h-80z" />
    <glyph glyph-name="dotlessi.ss01" horiz-adv-x="250" 
d="M85 0v500h80v-500h-80z" />
    <glyph glyph-name="iacute.ss01" horiz-adv-x="250" 
d="M85 0v500h80v-500h-80zM72 600l100 150h85l-100 -150h-85z" />
    <glyph glyph-name="icircumflex.ss01" horiz-adv-x="250" 
d="M12 600l72 150h81l72 -150h-72l-28 67l-8 34q-1 8 -4 8t-5 -8l-9 -34l-27 -67h-72zM85 0v500h80v-500h-80z" />
    <glyph glyph-name="idieresis.ss01" horiz-adv-x="250" 
d="M159 600v100h81v-100h-81zM9 600v100h81v-100h-81zM85 0v500h80v-500h-80z" />
    <glyph glyph-name="i.loclTRK" horiz-adv-x="285" 
d="M120 0v430h-70v70h150v-500h-80zM105 600v100h80v-100h-80z" />
    <glyph glyph-name="i.loclTRK.ss01" horiz-adv-x="250" 
d="M85 0v500h80v-500h-80zM85 600v100h80v-100h-80z" />
    <glyph glyph-name="igrave.ss01" horiz-adv-x="250" 
d="M85 0v500h80v-500h-80zM92 600l-100 150h85l100 -150h-85z" />
    <glyph glyph-name="ij.ss01" horiz-adv-x="501" 
d="M85 0v500h80v-500h-80zM85 600v100h80v-100h-80zM273 -262l-29 68q41 13 66 52.5t25 106.5v535h81l-1 -535q0 -48 -10 -84.5t-28.5 -64t-44.5 -47t-59 -31.5zM335 600v100h80v-100h-80z" />
    <glyph glyph-name="imacron.ss01" horiz-adv-x="250" 
d="M85 0v500h80v-500h-80zM0 610v60h250v-60h-250z" />
    <glyph glyph-name="iogonek.ss01" horiz-adv-x="250" 
d="M85 0v500h80v-500h-80zM85 600v100h80v-100h-80zM194 -248q-50 5 -86 22.5t-55 50t-19 79.5q0 36 16.5 66.5t48.5 49.5l66 -20q-26 -15 -42 -38.5t-16 -53.5q0 -47 27 -66.5t74 -27.5z" />
    <glyph glyph-name="j.ss01" horiz-adv-x="251" 
d="M23 -262l-29 68q41 13 66 52.5t25 106.5v535h81l-1 -535q0 -48 -10 -84.5t-28.5 -64t-44.5 -47t-59 -31.5zM85 600v100h80v-100h-80z" />
    <glyph glyph-name="uni0237.ss01" horiz-adv-x="251" 
d="M23 -262l-29 68q41 13 66 52.5t25 106.5v535h81l-1 -535q0 -48 -10 -84.5t-28.5 -64t-44.5 -47t-59 -31.5z" />
    <glyph glyph-name="zero.tf" horiz-adv-x="700" 
d="M350 -12q-54 0 -96.5 16t-72.5 47q-21 22 -38 55.5t-26.5 91.5t-9.5 152t9.5 152t26.5 92t38 55q30 31 72.5 47t96.5 16t96.5 -16t72.5 -47q22 -21 38.5 -55t26 -92t9.5 -152t-9.5 -152t-26 -91.5t-38.5 -55.5q-30 -31 -72.5 -47t-96.5 -16zM350 66q74 0 112.5 40
t42.5 108q3 44 4.5 74.5t1.5 61.5q0 32 -1.5 62.5t-4.5 73.5q-4 68 -42.5 108t-112.5 40t-112.5 -40t-42.5 -108q-3 -43 -4.5 -73.5t-1.5 -62.5q0 -31 1.5 -61.5t4.5 -74.5q4 -68 42.5 -108t112.5 -40zM310 270v160h80v-160h-80z" />
    <glyph glyph-name="one.tf" horiz-adv-x="700" 
d="M149 0v76h160v546h-160v38l243 52v-636h160v-76h-403z" />
    <glyph glyph-name="two.tf" horiz-adv-x="700" 
d="M148 0v114q0 83 38.5 140.5t120.5 89.5l56 22q54 20 81.5 55t27.5 89q0 44 -19.5 71t-51 39.5t-68.5 12.5q-43 0 -85 -11t-76 -40l-27 70q47 35 94 46.5t96 11.5q37 0 75 -11t70.5 -35t52.5 -62t20 -92q0 -83 -42.5 -134t-108.5 -77l-58 -23q-54 -21 -78.5 -50.5t-31 -58
t-6.5 -49.5v-40h327v-78h-407z" />
    <glyph glyph-name="three.tf" horiz-adv-x="700" 
d="M341 -9q-60 0 -109 18t-93 58l29 69q32 -33 77 -50.5t85 -17.5q78 0 114 32.5t36 90.5q0 56 -33 88t-94 32h-96v78h96q56 0 86 32t30 89q0 58 -35 90.5t-98 32.5q-38 0 -81.5 -11.5t-74.5 -38.5l-27 69q44 32 89 45t97 13q34 0 70.5 -10.5t68.5 -33.5t52 -61.5t20 -94.5
q0 -43 -16.5 -76t-41.5 -54t-53 -29q30 -8 58 -29.5t46.5 -54.5t18.5 -76q0 -56 -18.5 -94.5t-50 -61.5t-71 -33.5t-81.5 -10.5z" />
    <glyph glyph-name="four.tf" horiz-adv-x="700" 
d="M482 0v199h-347v42l210 459h90l-198 -427h245v227h82v-500h-82z" />
    <glyph glyph-name="five.tf" horiz-adv-x="700" 
d="M319 -9q-59 0 -104 16.5t-77 42.5l29 69q28 -29 72.5 -41.5t81.5 -12.5q73 0 117 40.5t44 110.5q0 68 -42.5 105t-109.5 37q-30 0 -57 -8.5t-57 -29.5l-52 40v340h367v-70h-289v-210q0 -9 6 -12t14 1l32 16q12 4 25 5t23 1q63 0 112.5 -26.5t78.5 -76t29 -117.5
q0 -66 -29.5 -115.5t-84 -77t-129.5 -27.5z" />
    <glyph glyph-name="six.tf" horiz-adv-x="700" 
d="M350 -12q-68 0 -119.5 28.5t-80.5 79t-29 116.5q0 37 9 70.5t29.5 73.5t54.5 96l151 248h100l-190 -281q-7 -10 -2.5 -16t14.5 0l43 25q11 2 20 3t19 1q49 0 97 -22.5t80 -71t32 -126.5q0 -66 -29 -116.5t-80 -79t-119 -28.5zM350 65q66 0 107 41t41 106q0 66 -41 107
t-107 41t-107.5 -41t-41.5 -107q0 -65 41.5 -106t107.5 -41z" />
    <glyph glyph-name="seven.tf" horiz-adv-x="700" 
d="M165 0l153 315h-171v74h207l115 233h-339v78h431v-48l-103 -209l-29 -34q-7 -8 -4 -14t13 -6h132v-74h-174l-153 -315h-78z" />
    <glyph glyph-name="eight.tf" horiz-adv-x="700" 
d="M352 -12q-73 0 -126 26t-82 71.5t-29 105.5q0 49 24 88t64 61l34 5q11 1 12 8t-9 11q-46 23 -72.5 65.5t-26.5 91.5q0 55 25.5 98t73 68t112.5 25q66 0 113.5 -25t73 -68.5t25.5 -99.5q0 -40 -19 -75.5t-51 -58.5l-30 -6q-10 -1 -10 -8.5t10 -11.5q54 -19 87.5 -64.5
t33.5 -102.5q0 -60 -28.5 -106t-80.5 -72t-124 -26zM352 58q72 0 113 35t41 99q0 55 -53 92t-142 44q-57 -10 -87.5 -47t-30.5 -90q2 -64 44 -98.5t115 -34.5zM382 392q50 7 77.5 41t26.5 86q-1 59 -36 91t-97 32q-61 0 -97 -31.5t-37 -89.5q2 -54 45.5 -88.5t117.5 -40.5z
" />
    </font>
</defs>
</svg>
