<?xml version="1.0" standalone="no"?>
<!DOCTYPE svg PUBLIC "-//W3C//DTD SVG 1.1//EN" "http://www.w3.org/Graphics/SVG/1.1/DTD/svg11.dtd" >
<svg xmlns="http://www.w3.org/2000/svg" xmlns:xlink="http://www.w3.org/1999/xlink" version="1.1">
<metadata>
Created by FontForge 20170731 at Thu Sep 22 17:43:48 2022
 By Aleksey,,,
Copyright 2015 The Finlandica Project Authors (https://github.com/HelsinkiTypeStudio/Finlandica)
</metadata>
<defs>
<font id="Finlandica-Italic" horiz-adv-x="566" >
  <font-face 
    font-family="Finlandica"
    font-weight="400"
    font-style="italic"
    font-stretch="normal"
    units-per-em="1000"
    panose-1="0 0 0 0 0 0 0 0 0 0"
    ascent="800"
    descent="-200"
    x-height="500"
    cap-height="700"
    bbox="-119 -323 1081 1000"
    underline-thickness="50"
    underline-position="-175"
    slope="-8"
    unicode-range="U+0020-FB02"
  />
<missing-glyph horiz-adv-x="600" 
 />
    <glyph glyph-name="fi" unicode="fi" horiz-adv-x="545" 
d="M67 0l60 430h-102l10 70h102l12 84q7 46 29.5 84.5t63.5 61.5t103 23q39 0 77 -12t73 -41l-26 -64q-37 29 -66 37t-61 8q-47 0 -79 -30t-40 -88l-9 -63h131l-10 -70h-131l-60 -430h-77zM345 0l60 430h-70l10 70h150l-70 -500h-80zM429 600l14 100h80l-14 -100h-80z" />
    <glyph glyph-name="fl" unicode="fl" horiz-adv-x="563" 
d="M67 0l60 430h-102l10 70h102l12 84q7 46 29.5 84.5t63.5 61.5t103 23q37 0 73.5 -12t67.5 -31l-26 -64q-33 19 -60.5 27t-57.5 8q-47 0 -79 -30t-40 -88l-9 -63h131l-10 -70h-131l-60 -430h-77zM454 0q-52 0 -80 30.5t-21 79.5l90 640h80l-90 -644q-2 -17 4.5 -26.5
t22.5 -9.5h43l-10 -70h-39z" />
    <glyph glyph-name="f_f" unicode="ff" horiz-adv-x="659" 
d="M339 0l60 430h-102l10 70h102l12 84q7 46 29.5 84.5t63.5 61.5t103 23q37 0 73.5 -12t67.5 -31l-26 -64q-33 19 -60.5 27t-57.5 8q-47 0 -79 -30t-40 -88l-9 -63h131l-10 -70h-131l-60 -430h-77zM67 0l60 430h-102l10 70h102l12 84q6 46 28.5 84.5t64 61.5t103.5 23
q37 0 73.5 -12t67.5 -31l-26 -64q-33 19 -60.5 27t-57.5 8q-47 0 -79.5 -30t-39.5 -88l-9 -63h131l-10 -70h-131l-60 -430h-77z" />
    <glyph glyph-name="f_f_i" unicode="ffi" horiz-adv-x="817" 
d="M339 0l60 430h-102l10 70h102l12 84q7 46 29.5 84.5t63.5 61.5t103 23q39 0 77 -12t73 -41l-26 -64q-37 29 -66 37t-61 8q-47 0 -79 -30t-40 -88l-9 -63h131l-10 -70h-131l-60 -430h-77zM67 0l60 430h-102l10 70h102l12 84q6 46 28.5 84.5t64 61.5t103.5 23
q37 0 73.5 -12t67.5 -31l-26 -64q-33 19 -60.5 27t-57.5 8q-47 0 -79.5 -30t-39.5 -88l-9 -63h131l-10 -70h-131l-60 -430h-77zM617 0l60 430h-70l10 70h150l-70 -500h-80zM701 600l14 100h80l-14 -100h-80z" />
    <glyph glyph-name="f_f_l" unicode="ffl" horiz-adv-x="835" 
d="M339 0l60 430h-102l10 70h102l12 84q7 46 29.5 84.5t63.5 61.5t103 23q37 0 73.5 -12t67.5 -31l-26 -64q-33 19 -60.5 27t-57.5 8q-47 0 -79 -30t-40 -88l-9 -63h131l-10 -70h-131l-60 -430h-77zM67 0l60 430h-102l10 70h102l12 84q6 46 28.5 84.5t64 61.5t103.5 23
q37 0 73.5 -12t67.5 -31l-26 -64q-33 19 -60.5 27t-57.5 8q-47 0 -79.5 -30t-39.5 -88l-9 -63h131l-10 -70h-131l-60 -430h-77zM726 0q-52 0 -80 30.5t-21 79.5l90 640h80l-90 -644q-2 -17 4.5 -26.5t22.5 -9.5h43l-10 -70h-39z" />
    <glyph glyph-name=".notdef" horiz-adv-x="600" 
 />
    <glyph glyph-name=".null" horiz-adv-x="0" 
 />
    <glyph glyph-name="nonmarkingreturn" horiz-adv-x="333" 
 />
    <glyph glyph-name="space" unicode=" " horiz-adv-x="260" 
 />
    <glyph glyph-name="exclam" unicode="!" horiz-adv-x="255" 
d="M92 210l56 490h85l-82 -490h-59zM50 0l13 95h85l-13 -95h-85z" />
    <glyph glyph-name="quotedbl" unicode="&#x22;" horiz-adv-x="370" 
d="M94 421l46 329h70l-46 -329h-70zM254 421l46 329h70l-46 -329h-70z" />
    <glyph glyph-name="numbersign" unicode="#" horiz-adv-x="730" 
d="M285 390l10 70l151 240h85l-151 -240h110l151 240h85l-114 -180l-47 -41q-7 -6 -7.5 -12.5t10.5 -6.5h142l-10 -70h-415zM32 0l115 180l47 40q8 6 7.5 13t-11.5 7h-141l9 70h415l-10 -70l-151 -240h-85l151 240h-110l-151 -240h-85z" />
    <glyph glyph-name="dollar" unicode="$" horiz-adv-x="530" 
d="M178 -150l26 185h70l-26 -185h-70zM293 671l25 179h70l-25 -179h-70zM201 -10q-58 0 -112 21t-82 47l30 70q31 -30 75.5 -45.5t86.5 -15.5q49 0 85.5 22t56.5 57t20 72t-22 64.5t-63 41.5l-40 14q-37 13 -68.5 35.5t-50.5 56.5t-19 80q0 48 26 94t79 76t135 30
q38 0 82 -12.5t84 -37.5l-25 -70q-37 26 -75.5 35.5t-66.5 9.5q-55 0 -90 -19t-51.5 -47.5t-16.5 -58.5q0 -34 21 -58.5t58 -37.5l35 -12q74 -25 111.5 -71t37.5 -119q0 -57 -31 -107.5t-85 -82.5t-125 -32z" />
    <glyph glyph-name="percent" unicode="%" horiz-adv-x="700" 
d="M68 0l333 456l161 244h101l-334 -457l-160 -243h-101zM490 -12q-32 0 -60 12.5t-44.5 42t-16.5 78.5q0 59 17 108.5t51.5 79.5t86.5 30q31 0 58 -13t44.5 -42.5t17.5 -80.5q0 -59 -17.5 -108t-51.5 -78t-85 -29zM489 53q34 0 53.5 21t28 55.5t8.5 73.5q1 44 -15 57.5
t-41 13.5q-34 0 -53.5 -22.5t-27.5 -57.5t-8 -73q0 -42 16 -55t39 -13zM206 361q-32 0 -60 12.5t-44.5 42t-16.5 78.5q0 59 17 108.5t51.5 79.5t86.5 30q31 0 58 -13t44.5 -42.5t17.5 -80.5q0 -59 -17.5 -108t-51.5 -78t-85 -29zM205 426q34 0 53.5 21t28 55.5t8.5 73.5
q1 44 -15 57.5t-41 13.5q-34 0 -53.5 -22.5t-27.5 -57.5t-8 -73q0 -42 16 -55t39 -13z" />
    <glyph glyph-name="ampersand" unicode="&#x26;" horiz-adv-x="740" 
d="M269 -9q-36 0 -72.5 10.5t-66 32.5t-47 56.5t-15.5 82.5q0 63 32.5 101t81.5 54q-41 7 -67 30t-38 56.5t-12 70.5q1 58 31 109t89.5 83.5t149.5 32.5q52 1 99 -17t76.5 -54.5t28.5 -94.5q0 -16 -3 -33.5t-8 -36.5l-77 -11q12 42 10 75q-1 34 -19 55t-47.5 31t-67.5 9
q-94 -1 -137.5 -46.5t-43.5 -111.5q0 -46 21 -69.5t53 -31t66 -7.5h127l-11 -78h-122q-64 0 -98 -31.5t-34 -84.5q0 -48 34 -76.5t92 -28.5q48 0 84 8.5t67 31.5l28 181h-71l11 78h318l-11 -78h-164l-30 -220q-25 -21 -61 -39t-80.5 -28.5t-95.5 -10.5z" />
    <glyph glyph-name="quotesingle" unicode="'" horiz-adv-x="210" 
d="M94 421l46 329h70l-46 -329h-70z" />
    <glyph glyph-name="parenleft" unicode="(" horiz-adv-x="421" 
d="M248 -144q-91 26 -128 88t-37 157q0 78 9.5 164t25.5 175t35 176q16 61 44.5 106t74 76t110.5 48l25 -74q-85 -26 -124 -67t-53 -108q-19 -93 -34.5 -177t-24.5 -162.5t-9 -157.5q0 -66 24.5 -110.5t97.5 -63.5z" />
    <glyph glyph-name="parenright" unicode=")" horiz-adv-x="421" 
d="M67 -146l-24 74q65 18 113.5 60.5t62.5 114.5q19 93 35 184t26 173t10 147q0 66 -26 107t-99 60l36 70q92 -26 130 -84.5t38 -153.5q0 -121 -22 -256t-51 -266q-23 -91 -77 -147.5t-152 -82.5z" />
    <glyph glyph-name="asterisk" unicode="*" horiz-adv-x="510" 
d="M184 368l-43 29l116 137h-167l7 47h168l-78 137l48 30l53 -98l8 -40q2 -8 7.5 -8t9.5 8l20 41l80 97l42 -30l-116 -137h168l-7 -47h-169l78 -137l-47 -29l-52 96l-10 39q-2 9 -7.5 8.5t-9.5 -8.5l-19 -39z" />
    <glyph glyph-name="plus" unicode="+" horiz-adv-x="580" 
d="M235 110l29 205h-205l10 70h205l29 205h70l-29 -205h205l-10 -70h-205l-29 -205h-70z" />
    <glyph glyph-name="comma" unicode="," horiz-adv-x="275" 
d="M-60 -191l11 44q61 11 100.5 50.5t50.5 98.5l-57 -2l14 100h105l-12 -88q-8 -57 -36 -99.5t-73 -69t-103 -34.5z" />
    <glyph glyph-name="hyphen" unicode="-" horiz-adv-x="330" 
d="M46 221l10 70h230l-10 -70h-230z" />
    <glyph glyph-name="period" unicode="." horiz-adv-x="265" 
d="M55 0l14 100h85l-14 -100h-85z" />
    <glyph glyph-name="slash" unicode="/" horiz-adv-x="485" 
d="M-9 0l440 700h88l-438 -700h-90z" />
    <glyph glyph-name="zero" unicode="0" horiz-adv-x="606" 
d="M270 270l22 160h70l-22 -160h-70zM278 -12q-72 0 -119.5 32t-71 84t-23.5 110q0 47 6.5 103.5t18 113t27.5 103.5q23 79 81.5 128.5t158.5 49.5q73 0 120.5 -32t71 -83.5t23.5 -110.5q0 -46 -6.5 -101.5t-18 -112.5t-27.5 -106q-23 -79 -81.5 -128.5t-159.5 -49.5z
M286 64q52 0 95 26.5t64 96.5q10 32 18.5 69.5t15 77.5t10 79t3.5 72q0 72 -37.5 111.5t-106.5 39.5q-51 0 -93.5 -26.5t-64.5 -96.5q-10 -31 -19 -69t-15 -78t-9.5 -79t-3.5 -72q0 -72 37.5 -111.5t105.5 -39.5z" />
    <glyph glyph-name="one" unicode="1" horiz-adv-x="353" 
d="M105 0l87 622h-109l8 49l197 41l-100 -712h-83z" />
    <glyph glyph-name="two" unicode="2" horiz-adv-x="550" 
d="M38 0l9 65q10 70 43.5 116.5t97.5 87.5l120 78q42 27 69 52.5t40 54.5t13 64q0 62 -41.5 89.5t-100.5 27.5q-51 0 -99.5 -23.5t-82.5 -52.5l-24 75q44 35 94 56.5t114 21.5q58 0 108 -21.5t81 -65t31 -110.5q0 -37 -9.5 -68t-29.5 -59t-51.5 -54t-74.5 -53l-115 -71
q-40 -25 -69.5 -60t-31.5 -72h347l-11 -78h-427z" />
    <glyph glyph-name="three" unicode="3" horiz-adv-x="534" 
d="M222 -9q-58 0 -109.5 19t-91.5 59l36 65q18 -22 46 -36.5t59.5 -22t59.5 -7.5q65 0 103 20t54.5 53t16.5 70q0 61 -35 92t-88 31h-98l11 78h93q68 0 107 27.5t39 94.5q0 41 -32.5 70t-89.5 29q-39 0 -80 -12.5t-77 -39.5l-21 72q50 32 91.5 44.5t91.5 12.5q36 0 71.5 -11
t64.5 -33t46 -55t15 -77q-3 -63 -38.5 -104t-89.5 -57q39 -16 60.5 -41t30.5 -55t9 -63q0 -62 -31 -113t-88.5 -80.5t-135.5 -29.5z" />
    <glyph glyph-name="four" unicode="4" horiz-adv-x="529" 
d="M312 0l28 199h-307l5 42l274 459h92l-258 -427h204l32 227h82l-32 -227h60l-10 -74h-60l-28 -199h-82z" />
    <glyph glyph-name="five" unicode="5" horiz-adv-x="515" 
d="M207 -9q-70 0 -118 23t-83 54l37 65q23 -28 70 -47.5t96 -19.5q52 0 94 23.5t66.5 64.5t22.5 94q-2 64 -40.5 97t-96.5 33q-31 0 -62 -7t-66 -27l-48 41l59 315h360l-10 -70h-282l-35 -188q-1 -9 3 -12.5t12 0.5l35 16q12 4 26.5 4.5t23.5 0.5q59 0 104.5 -24.5
t71.5 -69.5t26 -105q0 -52 -19.5 -99t-55.5 -83.5t-84.5 -57.5t-106.5 -21z" />
    <glyph glyph-name="six" unicode="6" horiz-adv-x="547" 
d="M245 -12q-59 0 -106.5 25.5t-75.5 69t-28 96.5q0 54 25 122.5t83 140.5l206 258h102l-212 -248q-6 -7 -2.5 -13t13.5 -1l44 23q11 2 20 3t17 1q55 0 97.5 -25t67 -68t23.5 -97q-1 -60 -22.5 -112.5t-59 -91.5t-87 -61t-105.5 -22zM247 65q53 0 96 27.5t68 74.5t25 104
q0 36 -17 64.5t-46.5 45t-65.5 16.5q-53 0 -96 -27.5t-68 -74t-25 -104.5q0 -35 17 -64t46.5 -45.5t65.5 -16.5z" />
    <glyph glyph-name="seven" unicode="7" horiz-adv-x="490" 
d="M-5 0l385 622h-324l11 78h431l-6 -48l-131 -209l-35 -36q-6 -7 -3.5 -12.5t9.5 -5.5h132l-11 -74h-173l-197 -315h-88z" />
    <glyph glyph-name="eight" unicode="8" horiz-adv-x="570" 
d="M276 -12q-66 0 -119.5 25t-85 67.5t-31.5 94.5q0 31 8 58t22 49t31 36l92 33q7 2 7.5 7.5t-7.5 9.5q-25 15 -44 38.5t-30 52.5t-11 59q0 55 29.5 98.5t80.5 69.5t113 26q58 0 105 -25t74.5 -67t27.5 -94q0 -30 -11.5 -57.5t-30.5 -49t-40 -34.5l-53 -14q-8 -2 -8 -7t7 -8
q33 -12 57.5 -32.5t38.5 -50t14 -69.5q0 -60 -31.5 -109t-85 -78t-119.5 -29zM272 58q46 0 82.5 18t58 49.5t21.5 69.5q0 44 -23 69.5t-60 38.5t-80 21q-37 -1 -72.5 -19t-58 -48.5t-22.5 -71.5q0 -35 20.5 -64t55.5 -46t78 -17zM316 386q74 17 109.5 56.5t35.5 85.5
q0 32 -18 58t-48.5 41t-68.5 15q-39 0 -71 -16.5t-51 -45t-19 -64.5q0 -38 19 -65t49 -43t63 -22z" />
    <glyph glyph-name="nine" unicode="9" horiz-adv-x="547" 
d="M131 0l212 248q6 7 2.5 13t-13.5 1l-44 -23q-10 -2 -19.5 -3t-17.5 -1q-54 0 -97 25t-67.5 68.5t-23.5 96.5q1 60 22.5 112.5t59 91.5t87 61t105.5 22q59 0 106.5 -25.5t75.5 -68.5t28 -97t-25 -122.5t-83 -140.5l-206 -258h-102zM275 303q53 0 96 27.5t68 74.5t25 104
q0 36 -17 64.5t-46.5 45t-65.5 16.5q-53 0 -96 -27.5t-68 -74t-25 -104.5q0 -35 17 -64t46.5 -45.5t65.5 -16.5z" />
    <glyph glyph-name="colon" unicode=":" horiz-adv-x="265" 
d="M65 0l14 100h85l-14 -100h-85zM121 400l14 100h85l-14 -100h-85z" />
    <glyph glyph-name="semicolon" unicode=";" horiz-adv-x="275" 
d="M-60 -191l11 44q61 11 100.5 50.5t50.5 98.5l-57 -2l14 100h105l-12 -88q-8 -57 -36 -99.5t-73 -69t-103 -34.5zM102 400l14 100h85l-14 -100h-85z" />
    <glyph glyph-name="less" unicode="&#x3c;" horiz-adv-x="540" 
d="M473 128l-413 189l11 83l467 192l-11 -80l-372 -145q-7 -3 -7 -9.5t7 -9.5l329 -137z" />
    <glyph glyph-name="equal" unicode="=" horiz-adv-x="540" 
d="M75 430l10 70h440l-10 -70h-440zM43 200l10 70h440l-10 -70h-440z" />
    <glyph glyph-name="greater" unicode="&#x3e;" horiz-adv-x="540" 
d="M33 128l11 83l371 141q9 3 9 9.5t-7 9.5l-330 141l11 80l413 -192l-11 -83z" />
    <glyph glyph-name="question" unicode="?" horiz-adv-x="494" 
d="M126 212q1 14 1.5 29.5t3.5 32.5q5 30 16.5 49t34.5 34t60 30l48 20q44 20 72.5 47.5t28.5 85.5q0 36 -19 56.5t-48.5 29t-62.5 8.5q-55 0 -88.5 -12.5t-69.5 -33.5l-19 72q43 25 87.5 37.5t93.5 12.5q55 0 101.5 -18.5t75 -56.5t28.5 -98q0 -59 -20 -96.5t-48.5 -59.5
t-56 -33.5t-42.5 -17.5l-40 -17q-27 -11 -41 -26t-25 -47l-9 -28h-62zM91 0l13 90h85l-13 -90h-85z" />
    <glyph glyph-name="at" unicode="@" horiz-adv-x="680" 
d="M311 -116q-73 0 -130.5 25t-91 83t-35.5 157q0 96 21 180.5t63 149.5t105.5 102t147.5 37q88 0 139 -33t69.5 -90t8.5 -130l-23 -161l57 -29l-33 -70l-91 45q-32 -24 -71.5 -36t-68.5 -12q-73 0 -110.5 40.5t-28.5 105.5t56 100t120 35l119 2q4 46 -8 80.5t-45 54.5
t-92 20q-66 0 -114 -32.5t-79 -87.5t-46.5 -124t-15.5 -142q2 -106 50 -149t129 -43q50 0 93 14t86 40l30 -64q-51 -34 -103 -51t-108 -17zM383 171q37 0 64.5 11.5t44 25t21.5 18.5l11 87q1 8 -2.5 10.5t-11.5 0.5l-59 -11h-36q-40 0 -66 -18.5t-31 -53.5
q-4 -31 13.5 -50.5t51.5 -19.5z" />
    <glyph glyph-name="A" unicode="A" 
d="M-15 0l296 700h120l110 -700h-84l-78 534l-2 89q0 6 -5.5 7t-7.5 -5l-263 -625h-86zM119 187l33 74h266l11 -74h-310zM157 627l10 73h141l-7 -73h-144z" />
    <glyph glyph-name="B" unicode="B" horiz-adv-x="563" 
d="M55 0l98 700h193q89 0 138 -46.5t49 -126.5q0 -68 -31 -114t-84 -67q33 -13 59.5 -51.5t26.5 -89.5q0 -64 -25 -110t-73 -70.5t-116 -24.5h-235zM143 70h138q144 0 144 134q0 59 -33 85.5t-87 26.5h-128zM187 386h156q56 0 84 39t28 95q0 50 -27 80t-80 30h-127z" />
    <glyph glyph-name="C" unicode="C" horiz-adv-x="503" 
d="M278 -12q-54 0 -94 18.5t-67 50.5t-40 72.5t-13 84.5q0 47 6.5 103.5t18 113t27.5 103.5q23 79 81.5 128.5t158.5 49.5q54 0 94 -18.5t67 -49.5l-34 -69q-20 28 -54 44.5t-81 16.5q-51 0 -93.5 -26.5t-64.5 -96.5q-10 -31 -19 -69t-15 -78t-9.5 -79t-3.5 -72
q0 -72 37.5 -111.5t105.5 -39.5q38 0 73.5 16t59.5 37l20 -78q-29 -24 -69.5 -37.5t-91.5 -13.5z" />
    <glyph glyph-name="D" unicode="D" horiz-adv-x="593" 
d="M55 0l98 700h186q84 0 133.5 -32.5t70.5 -86.5t16 -120q-4 -56 -13.5 -117.5t-20.5 -118.5q-13 -69 -48.5 -119.5t-93 -78t-138.5 -27.5h-190zM145 72h106q59 0 99 22t65 61t37 89q7 28 13 67t11 79.5t6 71.5q3 47 -10.5 84.5t-46.5 59t-92 21.5h-110z" />
    <glyph glyph-name="E" unicode="E" horiz-adv-x="553" 
d="M55 0l98 700h403l-11 -78h-325l-32 -233h308l-11 -78h-308l-33 -233h325l-11 -78h-403z" />
    <glyph glyph-name="F" unicode="F" horiz-adv-x="522" 
d="M55 0l98 700h392l-11 -78h-309l-32 -233h283l-11 -78h-283l-44 -311h-83z" />
    <glyph glyph-name="G" unicode="G" horiz-adv-x="600" 
d="M280 -12q-68 0 -118 26.5t-76.5 73.5t-26.5 106q0 40 6.5 95t17 111.5t20.5 99.5q21 86 60 132t93.5 63t120.5 17q54 0 97.5 -17t72.5 -46l-33 -68q-30 29 -61.5 41t-77.5 12q-47 0 -87 -12t-69 -47t-43 -104q-8 -43 -17.5 -93.5t-15 -98.5t-4.5 -85q2 -58 38 -93
t106 -35q29 0 58.5 5t44.5 14l33 226h-81l11 78h238l-11 -78h-74l-36 -270q-41 -26 -84 -39.5t-102 -13.5z" />
    <glyph glyph-name="H" unicode="H" horiz-adv-x="620" 
d="M55 0l98 700h83l-43 -311h274l43 311h83l-98 -700h-83l44 311h-274l-44 -311h-83z" />
    <glyph glyph-name="I" unicode="I" horiz-adv-x="423" 
d="M15 0l11 76h120l77 548h-120l10 76h323l-10 -76h-120l-77 -548h120l-11 -76h-323z" />
    <glyph glyph-name="J" unicode="J" horiz-adv-x="447" 
d="M138 -12q-39 0 -83.5 16.5t-72.5 47.5l25 69q26 -31 63.5 -43t68.5 -12q50 0 84 28t43 92l61 436h-160l11 78h242l-74 -528q-13 -93 -69 -138.5t-139 -45.5z" />
    <glyph glyph-name="K" unicode="K" horiz-adv-x="538" 
d="M55 0l98 700h82l-44 -312h72l214 312h93l-237 -345l139 -355h-88l-121 313h-82l-44 -313h-82z" />
    <glyph glyph-name="L" unicode="L" horiz-adv-x="452" 
d="M55 0l98 700h83l-87 -622h249l-11 -78h-332z" />
    <glyph glyph-name="M" unicode="M" horiz-adv-x="674" 
d="M55 0l98 700h69l120 -312q3 -8 10.5 -8.5t13.5 8.5l210 312h71l-98 -700h-80l59 425l25 91q3 10 -3.5 11t-11.5 -7l-173 -255h-50l-103 259q-3 8 -8.5 6t-6.5 -13l-3 -86l-59 -431h-80z" />
    <glyph glyph-name="N" unicode="N" horiz-adv-x="623" 
d="M55 0l98 700h70l213 -549q3 -7 9.5 -6t6.5 15l2 95l62 445h80l-98 -700h-82l-203 519q-4 10 -10.5 7.5t-6.5 -14.5l-3 -98l-58 -414h-80z" />
    <glyph glyph-name="O" unicode="O" horiz-adv-x="606" 
d="M278 -12q-72 0 -119.5 32t-71 84t-23.5 110q0 47 6.5 103.5t18 113t27.5 103.5q23 79 81.5 128.5t158.5 49.5q73 0 120.5 -32t71 -83.5t23.5 -110.5q0 -46 -6.5 -101.5t-18 -112.5t-27.5 -106q-23 -79 -81.5 -128.5t-159.5 -49.5zM286 64q52 0 95 26.5t64 96.5
q10 32 18.5 69.5t15 77.5t10 79t3.5 72q0 72 -37.5 111.5t-106.5 39.5q-51 0 -93.5 -26.5t-64.5 -96.5q-10 -31 -19 -69t-15 -78t-9.5 -79t-3.5 -72q0 -72 37.5 -111.5t105.5 -39.5z" />
    <glyph glyph-name="P" unicode="P" horiz-adv-x="553" 
d="M55 0l98 700h238q55 0 93 -23t58 -60.5t20 -81.5q0 -66 -27 -116.5t-76.5 -79t-117.5 -28.5h-163l-43 -311h-80zM189 384h148q69 0 108.5 33.5t39.5 117.5q0 47 -31 71t-79 24h-152z" />
    <glyph glyph-name="Q" unicode="Q" horiz-adv-x="606" 
d="M381 -118l-41 111q-15 -2 -32 -3.5t-35 -1.5q-52 0 -91.5 19.5t-65.5 53t-39.5 77t-13.5 91.5q0 42 7.5 94.5t19.5 107.5t26 103q23 79 82 128.5t161 49.5q53 0 92.5 -18.5t66 -50.5t40 -71.5t13.5 -81.5q0 -47 -6 -104t-17.5 -114t-27.5 -106q-15 -46 -39.5 -84
t-64.5 -61l39 -107zM283 64q18 0 29.5 5t11.5 14q0 5 -5.5 11t-11.5 12l-12 13l-39 104l74 33l59 -162q19 15 34 37.5t25 55.5q10 32 18 69.5t14 77.5t9 79t3 72q0 72 -37.5 111.5t-103.5 39.5q-52 0 -94.5 -25.5t-66.5 -97.5q-10 -33 -19 -71t-15 -77.5t-9.5 -76.5
t-3.5 -67q0 -76 38 -116.5t102 -40.5z" />
    <glyph glyph-name="R" unicode="R" horiz-adv-x="563" 
d="M55 0l98 700h238q55 0 93 -23.5t58 -63.5t20 -89q0 -73 -40.5 -128.5t-114.5 -76.5q-19 -5 -13 -20l31 -72l49 -227h-88l-69 311h-139l-43 -311h-80zM189 384h148q69 0 108.5 32t39.5 108q0 55 -31 80.5t-79 25.5h-152z" />
    <glyph glyph-name="S" unicode="S" horiz-adv-x="483" 
d="M191 -10q-58 0 -112 21t-82 47l30 70q31 -30 75.5 -45.5t86.5 -15.5q49 0 85.5 22t56.5 57t20 72t-22 64.5t-63 41.5l-40 14q-37 13 -68.5 35.5t-50.5 56.5t-19 80q0 48 26 94t79 76t135 30q38 0 82 -12.5t84 -37.5l-25 -70q-37 26 -75.5 35.5t-66.5 9.5q-55 0 -90 -19
t-51.5 -47.5t-16.5 -58.5q0 -34 21 -58.5t58 -37.5l35 -12q74 -25 111.5 -71t37.5 -119q0 -57 -31 -107.5t-85 -82.5t-125 -32z" />
    <glyph glyph-name="T" unicode="T" horiz-adv-x="488" 
d="M167 0l87 622h-172l11 78h428l-11 -78h-173l-87 -622h-83z" />
    <glyph glyph-name="U" unicode="U" horiz-adv-x="609" 
d="M277 -10q-68 0 -115.5 28.5t-69 83t-10.5 131.5l66 467h84l-67 -471q-12 -82 20 -122.5t94 -40.5q60 0 103 38.5t51 98.5l70 497h84l-71 -501q-9 -62 -42 -109.5t-83.5 -73.5t-113.5 -26z" />
    <glyph glyph-name="V" unicode="V" horiz-adv-x="536" 
d="M168 0l-85 700h84l59 -527l4 -96q0 -8 5.5 -9t8.5 7l249 625h86l-284 -700h-127z" />
    <glyph glyph-name="W" unicode="W" horiz-adv-x="615" 
d="M100 0l-12 700h73l9 -466l-5 -86q-1 -8 5.5 -9t8.5 6l135 355h57l35 -358q1 -7 6.5 -7t7.5 10l14 75l147 480h72l-207 -700h-85l-33 306q-1 11 -8.5 11.5t-11.5 -9.5l-123 -308h-85z" />
    <glyph glyph-name="X" unicode="X" horiz-adv-x="522" 
d="M-15 0l234 347l-134 353h87l72 -207l17 -71q2 -6 6 -6t8 6l179 278h96l-225 -334l142 -366h-83l-86 227l-14 68q-1 6 -5.5 6t-8.5 -6l-189 -295h-96z" />
    <glyph glyph-name="Y" unicode="Y" horiz-adv-x="482" 
d="M166 0l47 330l-149 370h92l77 -216l15 -77q1 -5 5.5 -5.5t8.5 5.5l188 293h96l-253 -370l-47 -330h-80z" />
    <glyph glyph-name="Z" unicode="Z" horiz-adv-x="507" 
d="M11 0l6 48l344 510l51 60q3 3 2 7.5t-6 4.5h-226l-11 -83h-73l21 153h405l-6 -48l-331 -492l-56 -69q-4 -4 -3 -8.5t5 -4.5h305l-11 -78h-416z" />
    <glyph glyph-name="bracketleft" unicode="[" horiz-adv-x="364" 
d="M35 -140l137 973h184l-10 -70h-107l-117 -833h107l-10 -70h-184z" />
    <glyph glyph-name="backslash" unicode="\" horiz-adv-x="473" 
d="M331 0l-242 700h76l244 -700h-78z" />
    <glyph glyph-name="bracketright" unicode="]" horiz-adv-x="364" 
d="M35 -140l10 70h107l117 833h-107l10 70h184l-137 -973h-184z" />
    <glyph glyph-name="asciicircum" unicode="^" horiz-adv-x="470" 
d="M43 350l214 400h93l103 -400h-81l-58 262l-6 67q-1 8 -6.5 8.5t-9.5 -7.5l-163 -330h-86z" />
    <glyph glyph-name="underscore" unicode="_" horiz-adv-x="548" 
d="M17 -250l10 70h374l-10 -70h-374z" />
    <glyph glyph-name="grave" unicode="`" horiz-adv-x="285" 
d="M200 600l-79 150h83l79 -150h-83z" />
    <glyph glyph-name="a" unicode="a" horiz-adv-x="542" 
d="M201 -10q-24 0 -50.5 7t-50 25t-38 51t-14.5 85q0 58 11.5 113t35.5 104q30 61 85.5 98t125.5 37q15 0 27.5 -0.5t25.5 -2.5l38 -9q7 -1 16 0l57 6l-58 -416l58 -28l-33 -70l-106 53q-9 5 -14 -2l-14 -15q-27 -15 -44 -23t-30 -10.5t-28 -2.5zM212 63q14 0 27 3.5t35 16
t63 37.5l43 310q-40 10 -68 10q-57 0 -96.5 -29t-58.5 -73q-16 -37 -24.5 -81t-8.5 -104q0 -52 27 -71t61 -19z" />
    <glyph glyph-name="b" unicode="b" horiz-adv-x="519" 
d="M214 -10q-16 0 -29 1t-24 2l-38 9q-7 1 -16 0l-57 -6l105 754h75l-36 -272q-1 -10 4 -12.5t13 1.5l68 37q11 3 22.5 4.5t21.5 1.5q43 0 76.5 -17t53 -53t19.5 -93q0 -61 -11.5 -117t-35.5 -105q-30 -61 -85 -98t-126 -37zM208 60q54 0 93.5 27t61.5 75q16 38 24.5 80.5
t8.5 95.5q0 41 -14 62t-33 29t-36 8q-26 0 -56 -12t-75 -43l-43 -312q19 -5 34.5 -7.5t34.5 -2.5z" />
    <glyph glyph-name="c" unicode="c" horiz-adv-x="450" 
d="M223 -10q-56 0 -95.5 25.5t-59.5 66t-19 86.5q0 38 5.5 77t16.5 80q15 52 46 94t74.5 66.5t97.5 24.5q43 0 77 -12.5t66 -33.5l-29 -63q-28 17 -54.5 27t-61.5 10q-56 0 -92 -38t-53 -97q-9 -33 -13 -60.5t-4 -56.5q0 -33 10.5 -61.5t33 -46.5t59.5 -18q18 0 33 4.5
t34.5 17.5t48.5 38l60 -29q-54 -62 -98 -81.5t-83 -19.5z" />
    <glyph glyph-name="d" unicode="d" horiz-adv-x="542" 
d="M384 470l41 280h80l-35 -246zM201 -10q-24 0 -50.5 7t-50 25t-38 51t-14.5 85q0 58 11.5 113t35.5 104q30 61 85.5 98t125.5 37q15 0 27.5 -0.5t25.5 -2.5l38 -9q7 -1 16 0l57 6l-58 -416l58 -28l-33 -70l-106 53q-9 5 -14 -2l-14 -15q-27 -15 -44 -23t-30 -10.5
t-28 -2.5zM212 63q14 0 27 3.5t35 16t63 37.5l43 310q-40 10 -68 10q-57 0 -96.5 -29t-58.5 -73q-16 -37 -24.5 -81t-8.5 -104q0 -52 27 -71t61 -19z" />
    <glyph glyph-name="e" unicode="e" horiz-adv-x="482" 
d="M227 -10q-59 0 -98.5 25t-59 65.5t-19.5 86.5q0 47 5.5 84.5t11.5 60.5q16 62 49.5 106.5t79 68t96.5 23.5q55 0 88.5 -20t50 -54t18.5 -76t-7 -87l-28 -40h-302l9 70h248q14 68 -7 102.5t-71 34.5q-48 0 -93 -39t-62 -119q-4 -21 -7 -38.5t-4 -52.5q-2 -63 26 -97
t80 -34q32 0 55 13t59 47l60 -29q-49 -58 -93 -79.5t-85 -21.5z" />
    <glyph glyph-name="f" unicode="f" horiz-adv-x="345" 
d="M67 0l60 430h-102l10 70h102l12 84q6 46 28.5 84.5t64 61.5t103.5 23q26 0 49.5 -5t51.5 -18l-26 -64q-22 8 -40 11.5t-38 3.5q-47 0 -79.5 -30t-39.5 -88l-9 -63h131l-10 -70h-131l-60 -430h-77z" />
    <glyph glyph-name="g" unicode="g" horiz-adv-x="514" 
d="M151 -204q-45 0 -87 17t-65 39l26 70q23 -25 59 -40.5t82 -15.5q59 0 101 32.5t53 90.5l6 33q2 10 -3.5 13t-13.5 -2l-68 -37q-10 -3 -21.5 -4.5t-22.5 -1.5q-24 0 -50 6.5t-48.5 24t-36.5 51t-14 86.5q0 39 5 76t15.5 73t26.5 68q30 61 85.5 98t125.5 37q31 0 53 -3
l38 -9q7 -1 16 0l57 6l-74 -487q-9 -60 -31.5 -102t-55 -68t-72.5 -38.5t-86 -12.5zM202 63q17 0 47 12t91 47l41 308q-19 5 -34 7.5t-35 2.5q-54 0 -93.5 -27t-61.5 -75q-16 -37 -24.5 -81t-8.5 -104q0 -38 12.5 -57.5t30.5 -26t35 -6.5z" />
    <glyph glyph-name="h" unicode="h" horiz-adv-x="537" 
d="M342 0l47 355q5 42 -13.5 62t-53.5 20q-19 0 -38.5 -4t-46 -16.5t-68.5 -38.5l5 73q36 23 60 35.5t46.5 18t52.5 5.5q44 0 77 -20.5t49 -56.5t9 -84l-46 -349h-80zM50 0l105 750h80l-105 -750h-80z" />
    <glyph glyph-name="i" unicode="i" horiz-adv-x="255" 
d="M55 0l60 430h-70l10 70h150l-70 -500h-80zM139 600l14 100h80l-14 -100h-80z" />
    <glyph glyph-name="j" unicode="j" horiz-adv-x="286" 
d="M-24 -223l-23 70q49 13 86 52t47 108l59 423h-70l10 70h151l-71 -497q-9 -63 -34.5 -107.5t-64.5 -73t-90 -45.5zM169 600l14 100h80l-14 -100h-80z" />
    <glyph glyph-name="k" unicode="k" horiz-adv-x="487" 
d="M50 0l105 750h82l-62 -441h54l134 191h96l-149 -215l101 -285h-88l-82 239h-76l-33 -239h-82z" />
    <glyph glyph-name="l" unicode="l" horiz-adv-x="275" 
d="M166 0q-52 0 -80 30.5t-21 79.5l90 640h80l-90 -644q-2 -17 4.5 -26.5t22.5 -9.5h43l-10 -70h-39z" />
    <glyph glyph-name="m" unicode="m" horiz-adv-x="837" 
d="M60 0l62 449l29 -53l-91 44l33 70l101 -49q9 -4 15 2l12 12q35 20 63 28t61 7q41 -1 70 -18t45 -40q8 -11 18 -1l12 12q29 18 51 28t43.5 14.5t48.5 4.5q51 0 83 -22.5t45.5 -59.5t7.5 -81l-47 -347h-80l47 351q6 46 -13 66t-54 20q-24 0 -47 -6.5t-54.5 -23t-82.5 -48.5
l51 62l-57 -421h-80l47 354q5 41 -13 62t-52 21q-23 0 -44.5 -5t-53 -21t-85.5 -49l49 61l-60 -423h-80z" />
    <glyph glyph-name="n" unicode="n" horiz-adv-x="547" 
d="M60 0l62 447l39 -56l-101 49l33 70l101 -49q9 -4 15 2l12 12q32 20 59 28t61 7q77 -1 112 -48.5t25 -121.5l-46 -340h-80l46 344q7 52 -12 72.5t-55 20.5q-21 0 -40.5 -4.5t-45 -17t-66.5 -38.5l21 47l-60 -424h-80z" />
    <glyph glyph-name="o" unicode="o" horiz-adv-x="510" 
d="M223 -11q-59 0 -97.5 26.5t-57 68.5t-18.5 89q0 30 4 65.5t11.5 70t17.5 60.5q26 68 80 105t123 37q60 0 98.5 -26.5t57 -68.5t18.5 -89q0 -29 -4 -65t-11.5 -70.5t-17.5 -60.5q-26 -68 -80 -105t-124 -37zM228 60q50 0 80 24.5t48 70.5q9 19 15 49t9.5 62.5t3.5 56.5
q0 46 -23.5 81.5t-79.5 35.5q-49 0 -79 -24.5t-48 -70.5q-8 -20 -14.5 -49.5t-10 -60.5t-3.5 -58q0 -46 23.5 -81.5t78.5 -35.5z" />
    <glyph glyph-name="p" unicode="p" horiz-adv-x="530" 
d="M32 -200l86 612l-58 28l33 70l101 -49q8 -5 15 2l13 13q24 13 42 20.5t35.5 10.5t39.5 3q23 0 48 -6.5t46.5 -24.5t35 -51.5t13.5 -87.5q0 -56 -11.5 -111t-35.5 -104q-30 -61 -85 -98t-126 -37q-15 0 -27 1t-26 2l-29 7l-30 -200h-80zM218 60q57 0 96.5 29t58.5 73
q16 38 24.5 80.5t8.5 94.5q0 43 -12.5 64.5t-31 28.5t-37.5 7q-27 0 -57 -11.5t-74 -40.5l-44 -315q40 -10 68 -10z" />
    <glyph glyph-name="q" unicode="q" horiz-adv-x="520" 
d="M297 -200l29 222q2 10 -3.5 13t-13.5 -2l-68 -37q-10 -3 -21.5 -4.5t-22.5 -1.5q-36 0 -70.5 12t-56.5 48t-22 108q0 58 11.5 113t35.5 104q30 61 85.5 98t125.5 37q17 0 29.5 -0.5t23.5 -2.5l38 -9q7 -1 16 0l57 6l-98 -704h-75zM202 63q17 0 47 12t91 47l41 308
q-19 5 -34 7.5t-35 2.5q-54 0 -93.5 -27t-61.5 -75q-16 -37 -24.5 -81t-8.5 -104q0 -38 12.5 -57.5t30.5 -26t35 -6.5z" />
    <glyph glyph-name="r" unicode="r" horiz-adv-x="407" 
d="M60 0l62 447l39 -56l-101 49l33 70l101 -49q9 -4 15 2l12 12q39 20 67.5 28t64.5 7q20 -1 36 -4.5t31 -9.5l-30 -73q-10 4 -20.5 6t-23.5 2q-23 0 -44 -3.5t-49.5 -16.5t-73.5 -40l21 53l-60 -424h-80z" />
    <glyph glyph-name="s" unicode="s" horiz-adv-x="452" 
d="M211 -12q-59 0 -108 17t-75 39l26 70q27 -25 68 -39.5t87 -14.5q47 0 75.5 21.5t28.5 57.5q0 32 -15.5 50t-48.5 30l-49 18q-58 21 -89.5 51t-31.5 79q0 43 22 75.5t61.5 51t89.5 18.5q45 0 87 -11.5t76 -32.5l-25 -64q-29 17 -64 26t-75 9q-43 0 -69.5 -18t-26.5 -49
q0 -25 14.5 -39.5t45.5 -25.5l49 -18q59 -22 91.5 -55.5t32.5 -86.5q0 -46 -22.5 -82t-62.5 -56.5t-92 -20.5z" />
    <glyph glyph-name="t" unicode="t" horiz-adv-x="330" 
d="M168 0q-52 0 -80 30.5t-21 79.5l45 320h-87l10 70h74q9 0 15.5 6.5t16 31t26.5 77.5l5 15h48l-18 -130h123l-10 -70h-123l-45 -324q-2 -17 4.5 -26.5t22.5 -9.5h91l-10 -70h-87z" />
    <glyph glyph-name="u" unicode="u" horiz-adv-x="520" 
d="M188 -11q-73 0 -110 42t-27 114l47 355h80l-47 -361q-5 -40 15.5 -58t55.5 -18q11 0 25 4t40.5 17t73.5 40l49 376h80l-71 -500h-75l4 25q2 9 -3.5 12.5t-13.5 -1.5q-22 -12 -40 -22t-33 -18q-12 -3 -25 -5t-25 -2z" />
    <glyph glyph-name="v" unicode="v" horiz-adv-x="470" 
d="M142 0l-78 500h81l50 -340l2 -87q0 -5 4.5 -6t7.5 6l182 427h85l-221 -500h-113z" />
    <glyph glyph-name="w" unicode="w" horiz-adv-x="580" 
d="M84 3l-9 497h72l5 -280l-4 -72q-1 -9 4.5 -9.5t9.5 9.5l134 352h57l33 -352q1 -10 7 -9.5t8 9.5l16 72l87 280h71l-150 -497h-77l-36 328q-1 12 -7 12t-11 -12l-131 -328h-79z" />
    <glyph glyph-name="x" unicode="x" horiz-adv-x="472" 
d="M-6 0l194 250l-122 250h92l57 -131l16 -63q2 -5 6 -5t8 5l137 194h96l-192 -250l120 -250h-92l-52 124l-19 70q-1 5 -6 5t-9 -5l-138 -194h-96z" />
    <glyph glyph-name="y" unicode="y" horiz-adv-x="470" 
d="M37 -221l-22 66q53 21 82.5 49t53.5 77l20 41l-115 488h82l64 -269l8 -98q1 -8 6 -8t9 8l165 367h85l-255 -550q-30 -65 -74 -107t-109 -64z" />
    <glyph glyph-name="z" unicode="z" horiz-adv-x="437" 
d="M-4 0l6 48l257 333l40 38q5 5 3.5 8t-6.5 3h-240l10 70h345l-6 -48l-257 -333l-40 -38q-4 -4 -2 -7.5t6 -3.5h239l-10 -70h-345z" />
    <glyph glyph-name="braceleft" unicode="{" horiz-adv-x="477" 
d="M285 -139q-64 0 -98.5 36t-23.5 116l30 215q7 36 -10.5 57.5t-53.5 22.5l-31 1l11 74l27 1q36 2 61 24.5t30 59.5l30 215q11 80 53 114t106 34h53l-10 -67h-48q-37 0 -55.5 -22.5t-24.5 -62.5l-30 -215q-6 -41 -13 -58t-19 -32l-55 -19q-7 -2 -7.5 -8t6.5 -10l44 -25
q11 -18 12.5 -38.5t-2.5 -49.5l-30 -215q-5 -40 5.5 -60.5t47.5 -20.5h52l-10 -67h-47z" />
    <glyph glyph-name="bar" unicode="|" horiz-adv-x="300" 
d="M54 -150l140 1000h80l-140 -1000h-80z" />
    <glyph glyph-name="braceright" unicode="}" horiz-adv-x="477" 
d="M35 -139l10 67h48q38 0 56 22.5t24 62.5l30 215q4 28 8.5 45t10 27t10.5 16l58 23q6 2 6.5 8t-6.5 10l-47 25q-4 14 -8 29.5t2 56.5l30 215q5 40 -5 60.5t-48 20.5h-52l10 67h47q64 0 98.5 -36t23.5 -116l-30 -215q-11 -77 64 -80l31 -1l-11 -74l-27 -1q-36 -1 -61 -23.5
t-30 -60.5l-30 -215q-11 -80 -53 -114t-106 -34h-53z" />
    <glyph glyph-name="asciitilde" unicode="~" horiz-adv-x="600" 
d="M396 189q-38 0 -63 8.5t-44 19.5t-39 19.5t-47 8.5q-30 0 -58 -11.5t-49 -29.5v77q27 16 55 23.5t57 7.5q38 0 63 -8.5t44 -19.5t39 -19.5t47 -8.5q30 0 57.5 11.5t48.5 28.5v-76q-52 -31 -111 -31z" />
    <glyph glyph-name="uni00A0" unicode="&#xa0;" horiz-adv-x="260" 
 />
    <glyph glyph-name="exclamdown" unicode="&#xa1;" horiz-adv-x="255" 
d="M163 290l-56 -490h-85l82 490h59zM205 500l-13 -95h-85l13 95h85z" />
    <glyph glyph-name="cent" unicode="&#xa2;" horiz-adv-x="450" 
d="M231 484l18 128h80l-18 -128h-80zM147 -112l18 128h80l-18 -128h-80zM223 -10q-56 0 -95.5 25.5t-59.5 66t-19 86.5q0 38 5.5 77t16.5 80q15 52 46 94t74.5 66.5t97.5 24.5q43 0 77 -12.5t66 -33.5l-29 -63q-28 17 -54.5 27t-61.5 10q-56 0 -92 -38t-53 -97
q-9 -33 -13 -60.5t-4 -56.5q0 -33 10.5 -61.5t33 -46.5t59.5 -18q18 0 33 4.5t34.5 17.5t48.5 38l60 -29q-54 -62 -98 -81.5t-83 -19.5z" />
    <glyph glyph-name="sterling" unicode="&#xa3;" horiz-adv-x="557" 
d="M25 0l8 71q42 13 68 52t35 106l12 88h-79l10 70h79l22 156q7 45 32 83.5t71.5 62t114.5 23.5q48 0 85 -15.5t60 -39.5l-39 -56q-19 22 -45 32t-58 10q-61 0 -99 -27t-45 -74l-22 -155h267l-10 -70h-267l-13 -92q-6 -45 -19.5 -80t-33.5 -57q-7 -7 -5 -12.5t8 -5.5h296
l-10 -70h-423z" />
    <glyph glyph-name="yen" unicode="&#xa5;" horiz-adv-x="602" 
d="M78 200l10 70h440l-10 -70h-440zM110 430l10 70h105l28 -70h-143zM409 430l48 70h103l-10 -70h-141zM229 0l47 330l-149 370h92l77 -216l15 -77q1 -5 5.5 -5.5t8.5 5.5l188 293h96l-253 -370l-47 -330h-80z" />
    <glyph glyph-name="section" unicode="&#xa7;" horiz-adv-x="497" 
d="M224 -12q-50 0 -99 15.5t-83 41.5l26 70q16 -17 42.5 -29.5t57 -19t57.5 -6.5q48 0 75 24t27 61q0 22 -13.5 41.5t-51.5 33.5l-60 23q-50 20 -79.5 49t-29.5 76q0 38 22.5 75t73.5 56q-19 11 -38 34t-19 63q0 36 21 68t60 52t93 20q44 0 88 -12.5t74 -32.5l-25 -63
q-21 13 -60 24t-78 11q-55 0 -76 -20.5t-21 -52.5q0 -27 25.5 -43t53.5 -27l57 -21q41 -15 69 -47t28 -86q0 -20 -6.5 -43t-23 -45t-45.5 -40q11 -9 23.5 -32t12.5 -57q0 -41 -20.5 -78t-60 -60t-97.5 -23zM293 291q37 0 55 26.5t18 54.5q0 29 -20.5 46t-47.5 25t-49 8
q-42 0 -61 -25.5t-19 -51.5q0 -23 14.5 -39t36 -25.5t42 -14t31.5 -4.5z" />
    <glyph glyph-name="dieresis" unicode="&#xa8;" horiz-adv-x="372" 
d="M270 600l14 100h81l-14 -100h-81zM99 600l14 100h81l-14 -100h-81z" />
    <glyph glyph-name="copyright" unicode="&#xa9;" horiz-adv-x="966" 
d="M443 -66q-78 0 -143.5 26.5t-114 74t-76 111t-29.5 138.5q0 100 36.5 186.5t101.5 151.5t150 101.5t182 36.5q80 0 146.5 -28t115.5 -77.5t75.5 -116t25.5 -143.5q0 -94 -37 -177t-102.5 -147t-150 -100.5t-180.5 -36.5zM445 9q82 -1 153.5 28.5t126 83.5t85 125.5
t29.5 153.5q0 81 -37.5 145.5t-103 102.5t-149.5 38q-83 1 -156.5 -31t-128.5 -88t-84.5 -128t-24.5 -151q2 -79 39.5 -142t102.5 -100t148 -37zM462 86q-56 0 -95.5 25.5t-59.5 66t-19 86.5q0 38 5.5 77t16.5 80q15 52 46 94t74.5 66.5t97.5 24.5q43 0 77 -12.5t66 -33.5
l-29 -63q-28 17 -54.5 27t-61.5 10q-56 0 -92 -38t-53 -97q-9 -33 -13 -60.5t-4 -56.5q0 -33 10.5 -61.5t33 -46.5t59.5 -18q18 0 33 4.5t34.5 17.5t48.5 38l60 -29q-54 -62 -98 -81.5t-83 -19.5z" />
    <glyph glyph-name="ordfeminine" unicode="&#xaa;" horiz-adv-x="443" 
d="M185 361q-27 0 -58.5 11.5t-54 42t-22.5 88.5q0 48 11.5 94.5t32.5 86.5q26 50 74.5 81t106.5 31q13 0 23 -0.5t21 -1.5l38 -8q5 -1 13 0l48 5l-49 -346l49 -24l-28 -58l-94 44q-7 3 -12 -2l-16 -18q-30 -17 -47 -21.5t-36 -4.5zM194 430q16 0 41.5 7.5t68.5 38.5l33 248
q-32 8 -57 8q-47 0 -80 -21t-49 -58q-13 -31 -22.5 -64.5t-9.5 -83.5q0 -29 12 -45.5t29.5 -23t33.5 -6.5z" />
    <glyph glyph-name="guillemotleft" unicode="&#xab;" horiz-adv-x="485" 
d="M319 52l-96 144l7 60l136 145h91l-169 -179q-4 -4 -4 -10t4 -9l27 -19l90 -132h-86zM129 52l-96 144l7 60l136 145h91l-169 -179q-4 -4 -4 -10t4 -9l27 -19l90 -132h-86z" />
    <glyph glyph-name="logicalnot" unicode="&#xac;" horiz-adv-x="580" 
d="M420 110l29 205h-370l10 70h440l-39 -275h-70z" />
    <glyph glyph-name="registered" unicode="&#xae;" horiz-adv-x="966" 
d="M443 -66q-78 0 -143.5 26.5t-114 74t-76 111t-29.5 138.5q0 100 36.5 186.5t101.5 151.5t150 101.5t182 36.5q80 0 146.5 -28t115.5 -77.5t75.5 -116t25.5 -143.5q0 -94 -37 -177t-102.5 -147t-150 -100.5t-180.5 -36.5zM445 9q82 -1 153.5 28.5t126 83.5t85 125.5
t29.5 153.5q0 81 -37.5 145.5t-103 102.5t-149.5 38q-83 1 -156.5 -31t-128.5 -88t-84.5 -128t-24.5 -151q2 -79 39.5 -142t102.5 -100t148 -37zM310 97l71 500h168q70 0 109 -35.5t37 -91.5q0 -32 -15 -62t-40 -52t-57 -31q-16 -4 -10 -14l16 -32l54 -182h-81l-59 213h-87
l-30 -213h-76zM426 381h82q25 0 47.5 8t37 27t14.5 51q2 33 -18 45t-56 12h-86z" />
    <glyph glyph-name="macron" unicode="&#xaf;" horiz-adv-x="350" 
d="M101 610l8 60h250l-8 -60h-250z" />
    <glyph glyph-name="degree" unicode="&#xb0;" horiz-adv-x="482" 
d="M270 415q-37 0 -69 12.5t-51 42t-19 78.5q0 59 19.5 107t59 76.5t99.5 28.5q35 0 67 -13t52 -42.5t18 -80.5q0 -56 -20 -104t-59 -76.5t-97 -28.5zM268 480q39 0 61.5 21t32.5 54t10 69q1 44 -17.5 57.5t-47.5 13.5q-39 0 -61 -21t-31.5 -54.5t-9.5 -71.5q1 -42 19 -55
t44 -13z" />
    <glyph glyph-name="plusminus" unicode="&#xb1;" horiz-adv-x="620" 
d="M260 140l24 175h-205l10 70h205l25 175h70l-25 -175h205l-10 -70h-205l-24 -175h-70zM55 0l10 70h440l-10 -70h-440z" />
    <glyph glyph-name="uni00B2" unicode="&#xb2;" horiz-adv-x="389" 
d="M45 350l12 76q8 45 41 73t95 58l41 20q31 15 51 30.5t30 33t10 37.5q0 32 -23.5 49t-62.5 17q-31 0 -60 -7t-58 -24l-19 63q40 22 72 28.5t69 6.5q39 0 74.5 -13t58 -42t22.5 -78q0 -24 -7 -45t-22 -40t-40.5 -36.5t-61.5 -35.5l-42 -21q-52 -26 -70.5 -40t-22.5 -31
l-2 -9h232l-10 -70h-307z" />
    <glyph glyph-name="uni00B3" unicode="&#xb3;" horiz-adv-x="417" 
d="M218 344q-49 0 -84.5 11t-67.5 38l31 60q23 -22 52.5 -31.5t60.5 -9.5q52 0 83.5 21t31.5 61q-1 23 -21 36.5t-59 13.5h-68l10 66h63q43 0 68.5 21t25.5 54q0 30 -20.5 44t-57.5 14q-30 0 -62.5 -7t-58.5 -24l-18 63q36 21 71 28t71 7q35 0 69.5 -11.5t57.5 -39t23 -76.5
q0 -43 -24 -68.5t-62 -39.5q29 -10 48 -34.5t17 -59.5q0 -32 -15 -57.5t-41 -43t-58 -27t-66 -9.5z" />
    <glyph glyph-name="acute" unicode="&#xb4;" horiz-adv-x="285" 
d="M98 600l121 150h87l-121 -150h-87z" />
    <glyph glyph-name="uni00B5" unicode="&#xb5;" horiz-adv-x="542" 
d="M27 -200l93 700h80l-47 -361q-5 -40 15.5 -58t55.5 -18q11 0 25 4t40.5 17t73.5 40l49 376h80l-71 -500h-75l4 25q2 9 -3.5 12.5t-13.5 -1.5q-22 -12 -40 -22t-33 -18q-12 -3 -25 -5t-25 -2q-23 0 -43 4.5t-36 13.5l-29 -207h-75z" />
    <glyph glyph-name="paragraph" unicode="&#xb6;" horiz-adv-x="620" 
d="M149 -250l73 505q-45 0 -85 15.5t-64.5 52.5t-25.5 101q0 80 25 142t77 98t131 36h322l-10 -70h-80l-123 -880h-80l123 880h-80l-123 -880h-80z" />
    <glyph glyph-name="periodcentered" unicode="&#xb7;" horiz-adv-x="265" 
d="M84 205l14 100h85l-14 -100h-85z" />
    <glyph glyph-name="cedilla" unicode="&#xb8;" horiz-adv-x="310" 
d="M-19 -250l22 62q59 0 95 15t40 40q3 19 -21.5 24t-79.5 5l46 126l58 -22l-23 -51q44 -5 68 -29t19 -60q-5 -35 -37.5 -60t-81.5 -37.5t-105 -12.5z" />
    <glyph glyph-name="uni00B9" unicode="&#xb9;" horiz-adv-x="311" 
d="M118 350l54 384h-73l7 50l154 29l-66 -463h-76z" />
    <glyph glyph-name="ordmasculine" unicode="&#xba;" horiz-adv-x="457" 
d="M248 354q-51 0 -84.5 20t-50 55t-16.5 79q0 19 1 36.5t4 37.5q2 17 6 35.5t9 41.5q11 42 35.5 74.5t62.5 50.5t87 18q51 0 84.5 -19.5t50 -54t16.5 -79.5q0 -21 -1.5 -38.5t-4.5 -38.5q-2 -16 -5.5 -33.5t-9.5 -40.5q-11 -40 -35.5 -73t-62 -52t-86.5 -19zM249 420
q46 0 74.5 27t35.5 65q6 24 10 46t7.5 45t4.5 50q2 34 -17 59t-62 25q-46 0 -76 -28t-38 -66q-6 -24 -10 -46t-6 -44.5t-4 -49.5q-1 -34 18.5 -58.5t62.5 -24.5z" />
    <glyph glyph-name="guillemotright" unicode="&#xbb;" horiz-adv-x="485" 
d="M212 52l169 177q5 5 4.5 9.5t-5.5 7.5l-26 18l-92 137h87l96 -145l-7 -60l-136 -144h-90zM22 52l169 177q5 5 4.5 9.5t-5.5 7.5l-26 18l-92 137h87l96 -145l-7 -60l-136 -144h-90z" />
    <glyph glyph-name="onequarter" unicode="&#xbc;" horiz-adv-x="989" 
d="M103 245l54 384h-73l7 50l154 29l-66 -463h-76zM182 0l440 700h88l-438 -700h-90zM767 0l17 122h-225l4 36l192 297h82l-178 -270h134l20 140h73l-20 -140h43l-8 -63h-44l-17 -122h-73z" />
    <glyph glyph-name="onehalf" unicode="&#xbd;" horiz-adv-x="955" 
d="M103 245l54 384h-73l7 50l154 29l-66 -463h-76zM182 0l440 700h88l-438 -700h-90zM562 0l12 76q8 45 41 73t95 58l41 20q31 15 51 30.5t30 33t10 37.5q0 32 -23.5 49t-62.5 17q-31 0 -60 -7t-58 -24l-19 63q40 22 72 28.5t69 6.5q39 0 74.5 -13t58 -42t22.5 -78
q0 -24 -7 -45t-22 -40t-40.5 -36.5t-61.5 -35.5l-42 -21q-52 -26 -70.5 -40t-22.5 -31l-2 -9h232l-10 -70h-307z" />
    <glyph glyph-name="threequarters" unicode="&#xbe;" horiz-adv-x="1105" 
d="M203 239q-49 0 -84.5 11t-67.5 38l31 60q23 -22 52.5 -31.5t60.5 -9.5q52 0 83.5 21t31.5 61q-1 23 -21 36.5t-59 13.5h-68l10 66h63q43 0 68.5 21t25.5 54q0 30 -20.5 44t-57.5 14q-30 0 -62.5 -7t-58.5 -24l-18 63q36 21 71 28t71 7q35 0 69.5 -11.5t57.5 -39t23 -76.5
q0 -43 -24 -68.5t-62 -39.5q29 -10 48 -34.5t17 -59.5q0 -32 -15 -57.5t-41 -43t-58 -27t-66 -9.5zM298 0l440 700h88l-438 -700h-90zM883 0l17 122h-225l4 36l192 297h82l-178 -270h134l20 140h73l-20 -140h43l-8 -63h-44l-17 -122h-73z" />
    <glyph glyph-name="questiondown" unicode="&#xbf;" horiz-adv-x="494" 
d="M348 288q-1 -14 -1.5 -29.5t-3.5 -32.5q-5 -29 -16.5 -48.5t-34 -34t-60.5 -30.5l-48 -20q-44 -19 -72.5 -46.5t-28.5 -86.5q0 -36 19 -56.5t49 -29t62 -8.5q56 0 89 12.5t69 33.5l19 -72q-43 -25 -87 -37.5t-94 -12.5q-55 0 -101.5 18.5t-75 57t-28.5 97.5t20 96.5
t48.5 59.5t56 33.5t42.5 17.5l40 17q27 11 41.5 26t24.5 47l9 28h62zM383 500l-13 -90h-85l13 90h85z" />
    <glyph glyph-name="Agrave" unicode="&#xc0;" 
d="M-15 0l296 700h120l110 -700h-84l-78 534l-2 89q0 6 -5.5 7t-7.5 -5l-263 -625h-86zM119 187l33 74h266l11 -74h-310zM157 627l10 73h141l-7 -73h-144zM324 770l-79 150h83l79 -150h-83z" />
    <glyph glyph-name="Aacute" unicode="&#xc1;" 
d="M-15 0l296 700h120l110 -700h-84l-78 534l-2 89q0 6 -5.5 7t-7.5 -5l-263 -625h-86zM119 187l33 74h266l11 -74h-310zM157 627l10 73h141l-7 -73h-144zM302 770l121 150h87l-121 -150h-87z" />
    <glyph glyph-name="Acircumflex" unicode="&#xc2;" 
d="M-15 0l296 700h120l110 -700h-84l-78 534l-2 89q0 6 -5.5 7t-7.5 -5l-263 -625h-86zM119 187l33 74h266l11 -74h-310zM157 627l10 73h141l-7 -73h-144zM222 770l112 150h81l72 -150h-77l-26 67l-2 31q-1 8 -4.5 8.5t-8.5 -7.5l-66 -99h-81z" />
    <glyph glyph-name="Atilde" unicode="&#xc3;" 
d="M-15 0l296 700h120l110 -700h-84l-78 534l-2 89q0 6 -5.5 7t-7.5 -5l-263 -625h-86zM119 187l33 74h266l11 -74h-310zM157 627l10 73h141l-7 -73h-144zM224 760l-13 58q21 26 43.5 36.5t46.5 10.5q34 0 53 -9.5t34.5 -19.5t36.5 -10t38.5 11t36.5 33l13 -58
q-21 -26 -43.5 -36.5t-46.5 -10.5q-33 0 -52.5 10t-35 19.5t-36.5 9.5t-38 -11t-37 -33z" />
    <glyph glyph-name="Adieresis" unicode="&#xc4;" 
d="M-15 0l296 700h120l110 -700h-84l-78 534l-2 89q0 6 -5.5 7t-7.5 -5l-263 -625h-86zM119 187l33 74h266l11 -74h-310zM157 627l10 73h141l-7 -73h-144zM401 770l14 100h81l-14 -100h-81zM230 770l14 100h81l-14 -100h-81z" />
    <glyph glyph-name="Aring" unicode="&#xc5;" 
d="M-15 0l296 700h120l110 -700h-84l-78 534l-2 89q0 6 -5.5 7t-7.5 -5l-263 -625h-86zM119 187l33 74h266l11 -74h-310zM157 627l10 73h141l-7 -73h-144zM357 741q-36 0 -66.5 10t-47 34t-11.5 64q6 38 28.5 59t54 29.5t63.5 8.5q34 0 64 -9.5t47.5 -33t11.5 -64.5
q-5 -38 -27.5 -59.5t-53.5 -30t-63 -8.5zM354 792q35 0 61 11t30 46q5 30 -15.5 38t-52.5 8q-36 0 -60 -11t-29 -45q-4 -31 16 -39t50 -8z" />
    <glyph glyph-name="AE" unicode="&#xc6;" horiz-adv-x="840" 
d="M-15 0l263 622h-92l11 78h676l-11 -78h-325l-32 -233h308l-11 -78h-308l-33 -233h325l-11 -78h-403l26 187h-219l-78 -187h-86zM180 261h199l50 361h-99z" />
    <glyph glyph-name="Ccedilla" unicode="&#xc7;" horiz-adv-x="503" 
d="M278 -12q-54 0 -94 18.5t-67 50.5t-40 72.5t-13 84.5q0 47 6.5 103.5t18 113t27.5 103.5q23 79 81.5 128.5t158.5 49.5q54 0 94 -18.5t67 -49.5l-34 -69q-20 28 -54 44.5t-81 16.5q-51 0 -93.5 -26.5t-64.5 -96.5q-10 -31 -19 -69t-15 -78t-9.5 -79t-3.5 -72
q0 -72 37.5 -111.5t105.5 -39.5q38 0 73.5 16t59.5 37l20 -78q-29 -24 -69.5 -37.5t-91.5 -13.5zM163 -250l22 62q59 0 95 15t40 40q3 19 -21.5 24t-79.5 5l46 126l58 -22l-23 -51q44 -5 68 -29t19 -60q-5 -35 -37.5 -60t-81.5 -37.5t-105 -12.5z" />
    <glyph glyph-name="Egrave" unicode="&#xc8;" horiz-adv-x="553" 
d="M55 0l98 700h403l-11 -78h-325l-32 -233h308l-11 -78h-308l-33 -233h325l-11 -78h-403zM338 770l-79 150h83l79 -150h-83z" />
    <glyph glyph-name="Eacute" unicode="&#xc9;" horiz-adv-x="553" 
d="M55 0l98 700h403l-11 -78h-325l-32 -233h308l-11 -78h-308l-33 -233h325l-11 -78h-403zM316 770l121 150h87l-121 -150h-87z" />
    <glyph glyph-name="Ecircumflex" unicode="&#xca;" horiz-adv-x="553" 
d="M55 0l98 700h403l-11 -78h-325l-32 -233h308l-11 -78h-308l-33 -233h325l-11 -78h-403zM236 770l112 150h81l72 -150h-77l-26 67l-2 31q-1 8 -4.5 8.5t-8.5 -7.5l-66 -99h-81z" />
    <glyph glyph-name="Edieresis" unicode="&#xcb;" horiz-adv-x="553" 
d="M55 0l98 700h403l-11 -78h-325l-32 -233h308l-11 -78h-308l-33 -233h325l-11 -78h-403zM415 770l14 100h81l-14 -100h-81zM244 770l14 100h81l-14 -100h-81z" />
    <glyph glyph-name="Igrave" unicode="&#xcc;" horiz-adv-x="423" 
d="M15 0l11 76h120l77 548h-120l10 76h323l-10 -76h-120l-77 -548h120l-11 -76h-323zM253 770l-79 150h83l79 -150h-83z" />
    <glyph glyph-name="Iacute" unicode="&#xcd;" horiz-adv-x="423" 
d="M15 0l11 76h120l77 548h-120l10 76h323l-10 -76h-120l-77 -548h120l-11 -76h-323zM231 770l121 150h87l-121 -150h-87z" />
    <glyph glyph-name="Icircumflex" unicode="&#xce;" horiz-adv-x="423" 
d="M15 0l11 76h120l77 548h-120l10 76h323l-10 -76h-120l-77 -548h120l-11 -76h-323zM151 770l112 150h81l72 -150h-77l-26 67l-2 31q-1 8 -4.5 8.5t-8.5 -7.5l-66 -99h-81z" />
    <glyph glyph-name="Idieresis" unicode="&#xcf;" horiz-adv-x="423" 
d="M15 0l11 76h120l77 548h-120l10 76h323l-10 -76h-120l-77 -548h120l-11 -76h-323zM330 770l14 100h81l-14 -100h-81zM159 770l14 100h81l-14 -100h-81z" />
    <glyph glyph-name="Eth" unicode="&#xd0;" horiz-adv-x="613" 
d="M-5 315l10 69h291l-10 -69h-291zM75 0l98 700h186q84 0 133.5 -32.5t70.5 -86.5t16 -120q-4 -56 -13.5 -117.5t-20.5 -118.5q-13 -69 -48.5 -119.5t-93 -78t-138.5 -27.5h-190zM165 72h106q59 0 99 22t65 61t37 89q7 28 13 67t11 79.5t6 71.5q3 47 -10.5 84.5t-46.5 59
t-92 21.5h-110z" />
    <glyph glyph-name="Ntilde" unicode="&#xd1;" horiz-adv-x="623" 
d="M55 0l98 700h70l213 -549q3 -7 9.5 -6t6.5 15l2 95l62 445h80l-98 -700h-82l-203 519q-4 10 -10.5 7.5t-6.5 -14.5l-3 -98l-58 -414h-80zM257 790l-13 58q21 26 43.5 36.5t46.5 10.5q34 0 53 -9.5t34.5 -19.5t36.5 -10t38.5 11t36.5 33l13 -58q-21 -26 -43.5 -36.5
t-46.5 -10.5q-33 0 -52.5 10t-35 19.5t-36.5 9.5t-38 -11t-37 -33z" />
    <glyph glyph-name="Ograve" unicode="&#xd2;" horiz-adv-x="606" 
d="M278 -12q-72 0 -119.5 32t-71 84t-23.5 110q0 47 6.5 103.5t18 113t27.5 103.5q23 79 81.5 128.5t158.5 49.5q73 0 120.5 -32t71 -83.5t23.5 -110.5q0 -46 -6.5 -101.5t-18 -112.5t-27.5 -106q-23 -79 -81.5 -128.5t-159.5 -49.5zM286 64q52 0 95 26.5t64 96.5
q10 32 18.5 69.5t15 77.5t10 79t3.5 72q0 72 -37.5 111.5t-106.5 39.5q-51 0 -93.5 -26.5t-64.5 -96.5q-10 -31 -19 -69t-15 -78t-9.5 -79t-3.5 -72q0 -72 37.5 -111.5t105.5 -39.5zM344 770l-79 150h83l79 -150h-83z" />
    <glyph glyph-name="Oacute" unicode="&#xd3;" horiz-adv-x="606" 
d="M278 -12q-72 0 -119.5 32t-71 84t-23.5 110q0 47 6.5 103.5t18 113t27.5 103.5q23 79 81.5 128.5t158.5 49.5q73 0 120.5 -32t71 -83.5t23.5 -110.5q0 -46 -6.5 -101.5t-18 -112.5t-27.5 -106q-23 -79 -81.5 -128.5t-159.5 -49.5zM286 64q52 0 95 26.5t64 96.5
q10 32 18.5 69.5t15 77.5t10 79t3.5 72q0 72 -37.5 111.5t-106.5 39.5q-51 0 -93.5 -26.5t-64.5 -96.5q-10 -31 -19 -69t-15 -78t-9.5 -79t-3.5 -72q0 -72 37.5 -111.5t105.5 -39.5zM322 770l121 150h87l-121 -150h-87z" />
    <glyph glyph-name="Ocircumflex" unicode="&#xd4;" horiz-adv-x="606" 
d="M278 -12q-72 0 -119.5 32t-71 84t-23.5 110q0 47 6.5 103.5t18 113t27.5 103.5q23 79 81.5 128.5t158.5 49.5q73 0 120.5 -32t71 -83.5t23.5 -110.5q0 -46 -6.5 -101.5t-18 -112.5t-27.5 -106q-23 -79 -81.5 -128.5t-159.5 -49.5zM286 64q52 0 95 26.5t64 96.5
q10 32 18.5 69.5t15 77.5t10 79t3.5 72q0 72 -37.5 111.5t-106.5 39.5q-51 0 -93.5 -26.5t-64.5 -96.5q-10 -31 -19 -69t-15 -78t-9.5 -79t-3.5 -72q0 -72 37.5 -111.5t105.5 -39.5zM242 770l112 150h81l72 -150h-77l-26 67l-2 31q-1 8 -4.5 8.5t-8.5 -7.5l-66 -99h-81z" />
    <glyph glyph-name="Otilde" unicode="&#xd5;" horiz-adv-x="606" 
d="M278 -12q-72 0 -119.5 32t-71 84t-23.5 110q0 47 6.5 103.5t18 113t27.5 103.5q23 79 81.5 128.5t158.5 49.5q73 0 120.5 -32t71 -83.5t23.5 -110.5q0 -46 -6.5 -101.5t-18 -112.5t-27.5 -106q-23 -79 -81.5 -128.5t-159.5 -49.5zM286 64q52 0 95 26.5t64 96.5
q10 32 18.5 69.5t15 77.5t10 79t3.5 72q0 72 -37.5 111.5t-106.5 39.5q-51 0 -93.5 -26.5t-64.5 -96.5q-10 -31 -19 -69t-15 -78t-9.5 -79t-3.5 -72q0 -72 37.5 -111.5t105.5 -39.5zM244 760l-13 58q21 26 43.5 36.5t46.5 10.5q34 0 53 -9.5t34.5 -19.5t36.5 -10t38.5 11
t36.5 33l13 -58q-21 -26 -43.5 -36.5t-46.5 -10.5q-33 0 -52.5 10t-35 19.5t-36.5 9.5t-38 -11t-37 -33z" />
    <glyph glyph-name="Odieresis" unicode="&#xd6;" horiz-adv-x="606" 
d="M278 -12q-72 0 -119.5 32t-71 84t-23.5 110q0 47 6.5 103.5t18 113t27.5 103.5q23 79 81.5 128.5t158.5 49.5q73 0 120.5 -32t71 -83.5t23.5 -110.5q0 -46 -6.5 -101.5t-18 -112.5t-27.5 -106q-23 -79 -81.5 -128.5t-159.5 -49.5zM286 64q52 0 95 26.5t64 96.5
q10 32 18.5 69.5t15 77.5t10 79t3.5 72q0 72 -37.5 111.5t-106.5 39.5q-51 0 -93.5 -26.5t-64.5 -96.5q-10 -31 -19 -69t-15 -78t-9.5 -79t-3.5 -72q0 -72 37.5 -111.5t105.5 -39.5zM421 770l14 100h81l-14 -100h-81zM250 770l14 100h81l-14 -100h-81z" />
    <glyph glyph-name="multiply" unicode="&#xd7;" horiz-adv-x="528" 
d="M107 156l-43 49l165 145l-125 145l55 49l124 -145l166 145l43 -49l-165 -145l125 -145l-55 -49l-124 145z" />
    <glyph glyph-name="Oslash" unicode="&#xd8;" horiz-adv-x="646" 
d="M298 -12q-72 0 -119.5 32t-71 84t-23.5 110q0 47 6.5 103.5t18 113t27.5 103.5q23 79 81.5 128.5t158.5 49.5q73 0 120.5 -32t71 -83.5t23.5 -110.5q0 -46 -6.5 -101.5t-18 -112.5t-27.5 -106q-23 -79 -81.5 -128.5t-159.5 -49.5zM306 64q52 0 95 26.5t64 96.5
q10 32 18.5 69.5t15 77.5t10 79t3.5 72q0 72 -37.5 111.5t-106.5 39.5q-51 0 -93.5 -26.5t-64.5 -96.5q-10 -31 -19 -69t-15 -78t-9.5 -79t-3.5 -72q0 -72 37.5 -111.5t105.5 -39.5zM-26 0l643 700h82l-643 -700h-82z" />
    <glyph glyph-name="Ugrave" unicode="&#xd9;" horiz-adv-x="609" 
d="M277 -10q-68 0 -115.5 28.5t-69 83t-10.5 131.5l66 467h84l-67 -471q-12 -82 20 -122.5t94 -40.5q60 0 103 38.5t51 98.5l70 497h84l-71 -501q-9 -62 -42 -109.5t-83.5 -73.5t-113.5 -26zM346 770l-79 150h83l79 -150h-83z" />
    <glyph glyph-name="Uacute" unicode="&#xda;" horiz-adv-x="609" 
d="M277 -10q-68 0 -115.5 28.5t-69 83t-10.5 131.5l66 467h84l-67 -471q-12 -82 20 -122.5t94 -40.5q60 0 103 38.5t51 98.5l70 497h84l-71 -501q-9 -62 -42 -109.5t-83.5 -73.5t-113.5 -26zM324 770l121 150h87l-121 -150h-87z" />
    <glyph glyph-name="Ucircumflex" unicode="&#xdb;" horiz-adv-x="609" 
d="M277 -10q-68 0 -115.5 28.5t-69 83t-10.5 131.5l66 467h84l-67 -471q-12 -82 20 -122.5t94 -40.5q60 0 103 38.5t51 98.5l70 497h84l-71 -501q-9 -62 -42 -109.5t-83.5 -73.5t-113.5 -26zM244 770l112 150h81l72 -150h-77l-26 67l-2 31q-1 8 -4.5 8.5t-8.5 -7.5l-66 -99
h-81z" />
    <glyph glyph-name="Udieresis" unicode="&#xdc;" horiz-adv-x="609" 
d="M277 -10q-68 0 -115.5 28.5t-69 83t-10.5 131.5l66 467h84l-67 -471q-12 -82 20 -122.5t94 -40.5q60 0 103 38.5t51 98.5l70 497h84l-71 -501q-9 -62 -42 -109.5t-83.5 -73.5t-113.5 -26zM423 770l14 100h81l-14 -100h-81zM252 770l14 100h81l-14 -100h-81z" />
    <glyph glyph-name="Yacute" unicode="&#xdd;" horiz-adv-x="482" 
d="M166 0l47 330l-149 370h92l77 -216l15 -77q1 -5 5.5 -5.5t8.5 5.5l188 293h96l-253 -370l-47 -330h-80zM260 770l121 150h87l-121 -150h-87z" />
    <glyph glyph-name="Thorn" unicode="&#xde;" horiz-adv-x="553" 
d="M55 0l98 700h79l-20 -146h159q55 0 93 -23t58 -61t20 -82q0 -65 -27 -115.5t-76.5 -79t-117.5 -28.5h-163l-23 -165h-80zM169 238h148q71 0 109.5 33.5t38.5 106.5q0 55 -31 80.5t-79 25.5h-152z" />
    <glyph glyph-name="germandbls" unicode="&#xdf;" horiz-adv-x="652" 
d="M411 -12q-59 0 -108 17t-75 39l26 70q27 -25 68 -39.5t87 -14.5q47 0 75.5 21.5t28.5 57.5q0 32 -15.5 50t-48.5 30l-49 18q-58 21 -89.5 51t-31.5 79q0 58 39 90.5t109 51.5l34 9q32 8 51 25.5t19 47.5q0 35 -33.5 65.5t-103.5 30.5q-53 0 -94 -18t-66 -50t-31 -76
l-76 -543h-77l76 544q9 58 41 105t89.5 75.5t142.5 28.5q64 0 110.5 -22t71.5 -57.5t25 -76.5q0 -62 -38.5 -96.5t-97.5 -51.5l-42 -12q-34 -10 -53.5 -24.5t-19.5 -40.5q0 -25 15 -39t46 -25l49 -18q59 -22 91 -56t32 -87q0 -46 -22.5 -82t-62.5 -56.5t-92 -20.5z" />
    <glyph glyph-name="agrave" unicode="&#xe0;" horiz-adv-x="542" 
d="M201 -10q-24 0 -50.5 7t-50 25t-38 51t-14.5 85q0 58 11.5 113t35.5 104q30 61 85.5 98t125.5 37q15 0 27.5 -0.5t25.5 -2.5l38 -9q7 -1 16 0l57 6l-58 -416l58 -28l-33 -70l-106 53q-9 5 -14 -2l-14 -15q-27 -15 -44 -23t-30 -10.5t-28 -2.5zM212 63q14 0 27 3.5t35 16
t63 37.5l43 310q-40 10 -68 10q-57 0 -96.5 -29t-58.5 -73q-16 -37 -24.5 -81t-8.5 -104q0 -52 27 -71t61 -19zM307 600l-79 150h83l79 -150h-83z" />
    <glyph glyph-name="aacute" unicode="&#xe1;" horiz-adv-x="542" 
d="M201 -10q-24 0 -50.5 7t-50 25t-38 51t-14.5 85q0 58 11.5 113t35.5 104q30 61 85.5 98t125.5 37q15 0 27.5 -0.5t25.5 -2.5l38 -9q7 -1 16 0l57 6l-58 -416l58 -28l-33 -70l-106 53q-9 5 -14 -2l-14 -15q-27 -15 -44 -23t-30 -10.5t-28 -2.5zM212 63q14 0 27 3.5t35 16
t63 37.5l43 310q-40 10 -68 10q-57 0 -96.5 -29t-58.5 -73q-16 -37 -24.5 -81t-8.5 -104q0 -52 27 -71t61 -19zM285 600l121 150h87l-121 -150h-87z" />
    <glyph glyph-name="acircumflex" unicode="&#xe2;" horiz-adv-x="542" 
d="M201 -10q-24 0 -50.5 7t-50 25t-38 51t-14.5 85q0 58 11.5 113t35.5 104q30 61 85.5 98t125.5 37q15 0 27.5 -0.5t25.5 -2.5l38 -9q7 -1 16 0l57 6l-58 -416l58 -28l-33 -70l-106 53q-9 5 -14 -2l-14 -15q-27 -15 -44 -23t-30 -10.5t-28 -2.5zM212 63q14 0 27 3.5t35 16
t63 37.5l43 310q-40 10 -68 10q-57 0 -96.5 -29t-58.5 -73q-16 -37 -24.5 -81t-8.5 -104q0 -52 27 -71t61 -19zM205 600l112 150h81l72 -150h-77l-26 67l-2 31q-1 8 -4.5 8.5t-8.5 -7.5l-66 -99h-81z" />
    <glyph glyph-name="atilde" unicode="&#xe3;" horiz-adv-x="542" 
d="M201 -10q-24 0 -50.5 7t-50 25t-38 51t-14.5 85q0 58 11.5 113t35.5 104q30 61 85.5 98t125.5 37q15 0 27.5 -0.5t25.5 -2.5l38 -9q7 -1 16 0l57 6l-58 -416l58 -28l-33 -70l-106 53q-9 5 -14 -2l-14 -15q-27 -15 -44 -23t-30 -10.5t-28 -2.5zM212 63q14 0 27 3.5t35 16
t63 37.5l43 310q-40 10 -68 10q-57 0 -96.5 -29t-58.5 -73q-16 -37 -24.5 -81t-8.5 -104q0 -52 27 -71t61 -19zM207 590l-13 58q21 26 43.5 36.5t46.5 10.5q34 0 53 -9.5t34.5 -19.5t36.5 -10t38.5 11t36.5 33l13 -58q-21 -26 -43.5 -36.5t-46.5 -10.5q-33 0 -52.5 10
t-35 19.5t-36.5 9.5t-38 -11t-37 -33z" />
    <glyph glyph-name="adieresis" unicode="&#xe4;" horiz-adv-x="542" 
d="M201 -10q-24 0 -50.5 7t-50 25t-38 51t-14.5 85q0 58 11.5 113t35.5 104q30 61 85.5 98t125.5 37q15 0 27.5 -0.5t25.5 -2.5l38 -9q7 -1 16 0l57 6l-58 -416l58 -28l-33 -70l-106 53q-9 5 -14 -2l-14 -15q-27 -15 -44 -23t-30 -10.5t-28 -2.5zM212 63q14 0 27 3.5t35 16
t63 37.5l43 310q-40 10 -68 10q-57 0 -96.5 -29t-58.5 -73q-16 -37 -24.5 -81t-8.5 -104q0 -52 27 -71t61 -19zM384 600l14 100h81l-14 -100h-81zM213 600l14 100h81l-14 -100h-81z" />
    <glyph glyph-name="aring" unicode="&#xe5;" horiz-adv-x="542" 
d="M201 -10q-24 0 -50.5 7t-50 25t-38 51t-14.5 85q0 58 11.5 113t35.5 104q30 61 85.5 98t125.5 37q15 0 27.5 -0.5t25.5 -2.5l38 -9q7 -1 16 0l57 6l-58 -416l58 -28l-33 -70l-106 53q-9 5 -14 -2l-14 -15q-27 -15 -44 -23t-30 -10.5t-28 -2.5zM212 63q14 0 27 3.5t35 16
t63 37.5l43 310q-40 10 -68 10q-57 0 -96.5 -29t-58.5 -73q-16 -37 -24.5 -81t-8.5 -104q0 -52 27 -71t61 -19zM340 571q-36 0 -66.5 10t-47 34t-11.5 64q6 38 28.5 59t54 29.5t63.5 8.5q34 0 64 -9.5t47.5 -33t11.5 -64.5q-5 -38 -27.5 -59.5t-53.5 -30t-63 -8.5zM337 622
q35 0 61 11t30 46q5 30 -15.5 38t-52.5 8q-36 0 -60 -11t-29 -45q-4 -31 16 -39t50 -8z" />
    <glyph glyph-name="ae" unicode="&#xe6;" horiz-adv-x="755" 
d="M178 -11q-49 0 -82 18.5t-48 51.5t-9 76q9 65 56 95.5t120 35.5l428 32q7 34 5 60t-12 44.5t-28 28t-43 9.5q-46 0 -89.5 -39t-57.5 -119q-6 -34 -9 -54.5t-3 -36.5q0 -63 24.5 -97t74.5 -34q32 0 55 13t59 47l60 -29q-49 -58 -93 -79.5t-85 -21.5q-44 0 -77 15.5
t-59 43.5q-5 6 -11 5t-11 -6l-24 -20q-37 -17 -58.5 -25.5t-39 -11t-43.5 -2.5zM183 58q24 0 43 5.5t40 16t50 23.5l32 225q8 55 -14.5 83t-81.5 28q-37 0 -69 -13t-67 -38l-19 72q42 29 81.5 40.5t79.5 11.5q85 0 129 -39l14 -27q9 -16 21 -2l25 27q26 16 56.5 27.5
t61.5 11.5q74 0 110.5 -33.5t45 -86.5t-4.5 -113l-28 -40l-473 -35q-40 -3 -66 -21t-31 -53q-4 -30 15 -50t50 -20z" />
    <glyph glyph-name="ccedilla" unicode="&#xe7;" horiz-adv-x="450" 
d="M223 -10q-56 0 -95.5 25.5t-59.5 66t-19 86.5q0 38 5.5 77t16.5 80q15 52 46 94t74.5 66.5t97.5 24.5q43 0 77 -12.5t66 -33.5l-29 -63q-28 17 -54.5 27t-61.5 10q-56 0 -92 -38t-53 -97q-9 -33 -13 -60.5t-4 -56.5q0 -33 10.5 -61.5t33 -46.5t59.5 -18q18 0 33 4.5
t34.5 17.5t48.5 38l60 -29q-54 -62 -98 -81.5t-83 -19.5zM80 -250l22 62q59 0 95 15t40 40q3 19 -21.5 24t-79.5 5l46 126l58 -22l-23 -51q44 -5 68 -29t19 -60q-5 -35 -37.5 -60t-81.5 -37.5t-105 -12.5z" />
    <glyph glyph-name="egrave" unicode="&#xe8;" horiz-adv-x="482" 
d="M227 -10q-59 0 -98.5 25t-59 65.5t-19.5 86.5q0 47 5.5 84.5t11.5 60.5q16 62 49.5 106.5t79 68t96.5 23.5q55 0 88.5 -20t50 -54t18.5 -76t-7 -87l-28 -40h-302l9 70h248q14 68 -7 102.5t-71 34.5q-48 0 -93 -39t-62 -119q-4 -21 -7 -38.5t-4 -52.5q-2 -63 26 -97
t80 -34q32 0 55 13t59 47l60 -29q-49 -58 -93 -79.5t-85 -21.5zM266 600l-79 150h83l79 -150h-83z" />
    <glyph glyph-name="eacute" unicode="&#xe9;" horiz-adv-x="482" 
d="M227 -10q-59 0 -98.5 25t-59 65.5t-19.5 86.5q0 47 5.5 84.5t11.5 60.5q16 62 49.5 106.5t79 68t96.5 23.5q55 0 88.5 -20t50 -54t18.5 -76t-7 -87l-28 -40h-302l9 70h248q14 68 -7 102.5t-71 34.5q-48 0 -93 -39t-62 -119q-4 -21 -7 -38.5t-4 -52.5q-2 -63 26 -97
t80 -34q32 0 55 13t59 47l60 -29q-49 -58 -93 -79.5t-85 -21.5zM244 600l121 150h87l-121 -150h-87z" />
    <glyph glyph-name="ecircumflex" unicode="&#xea;" horiz-adv-x="482" 
d="M227 -10q-59 0 -98.5 25t-59 65.5t-19.5 86.5q0 47 5.5 84.5t11.5 60.5q16 62 49.5 106.5t79 68t96.5 23.5q55 0 88.5 -20t50 -54t18.5 -76t-7 -87l-28 -40h-302l9 70h248q14 68 -7 102.5t-71 34.5q-48 0 -93 -39t-62 -119q-4 -21 -7 -38.5t-4 -52.5q-2 -63 26 -97
t80 -34q32 0 55 13t59 47l60 -29q-49 -58 -93 -79.5t-85 -21.5zM164 600l112 150h81l72 -150h-77l-26 67l-2 31q-1 8 -4.5 8.5t-8.5 -7.5l-66 -99h-81z" />
    <glyph glyph-name="edieresis" unicode="&#xeb;" horiz-adv-x="482" 
d="M227 -10q-59 0 -98.5 25t-59 65.5t-19.5 86.5q0 47 5.5 84.5t11.5 60.5q16 62 49.5 106.5t79 68t96.5 23.5q55 0 88.5 -20t50 -54t18.5 -76t-7 -87l-28 -40h-302l9 70h248q14 68 -7 102.5t-71 34.5q-48 0 -93 -39t-62 -119q-4 -21 -7 -38.5t-4 -52.5q-2 -63 26 -97
t80 -34q32 0 55 13t59 47l60 -29q-49 -58 -93 -79.5t-85 -21.5zM343 600l14 100h81l-14 -100h-81zM172 600l14 100h81l-14 -100h-81z" />
    <glyph glyph-name="igrave" unicode="&#xec;" horiz-adv-x="290" 
d="M85 0l60 430h-70l10 70h150l-70 -500h-80zM162 600l-79 150h83l79 -150h-83z" />
    <glyph glyph-name="iacute" unicode="&#xed;" horiz-adv-x="290" 
d="M85 0l60 430h-70l10 70h150l-70 -500h-80zM140 600l121 150h87l-121 -150h-87z" />
    <glyph glyph-name="icircumflex" unicode="&#xee;" horiz-adv-x="290" 
d="M85 0l60 430h-70l10 70h150l-70 -500h-80zM60 600l112 150h81l72 -150h-77l-26 67l-2 31q-1 8 -4.5 8.5t-8.5 -7.5l-66 -99h-81z" />
    <glyph glyph-name="idieresis" unicode="&#xef;" horiz-adv-x="290" 
d="M222 600l14 100h81l-14 -100h-81zM72 600l14 100h81l-14 -100h-81zM85 0l60 430h-70l10 70h150l-70 -500h-80z" />
    <glyph glyph-name="eth" unicode="&#xf0;" horiz-adv-x="539" 
d="M223 -11q-59 0 -97.5 26.5t-57 68.5t-18.5 89q0 30 4 65.5t11.5 70t17.5 60.5q26 68 80 105t123 37q19 0 33.5 -2.5t26.5 -7.5l33 -48q5 -5 11 -3t6 12q0 41 -15.5 83t-41.5 80q-26 39 -59.5 71.5t-69.5 53.5h112q24 -16 49 -40t47 -59q23 -40 38.5 -98.5t15.5 -142.5
q0 -49 -6 -101.5t-16 -98.5t-23 -79q-26 -68 -80 -105t-124 -37zM228 60q50 0 80 25t50 70q9 19 15 49t9.5 62.5t3.5 56.5q0 46 -24.5 81.5t-80.5 35.5q-49 0 -79 -24.5t-48 -70.5q-8 -20 -14.5 -49.5t-10 -60.5t-3.5 -58q0 -46 23.5 -81.5t78.5 -35.5zM177 551l-18 62
l364 105l18 -61z" />
    <glyph glyph-name="ntilde" unicode="&#xf1;" horiz-adv-x="547" 
d="M60 0l62 447l39 -56l-101 49l33 70l101 -49q9 -4 15 2l12 12q32 20 59 28t61 7q77 -1 112 -48.5t25 -121.5l-46 -340h-80l46 344q7 52 -12 72.5t-55 20.5q-21 0 -40.5 -4.5t-45 -17t-66.5 -38.5l21 47l-60 -424h-80zM196 590l-13 58q21 26 43.5 36.5t46.5 10.5
q34 0 53 -9.5t34.5 -19.5t36.5 -10t38.5 11t36.5 33l13 -58q-21 -26 -43.5 -36.5t-46.5 -10.5q-33 0 -52.5 10t-35 19.5t-36.5 9.5t-38 -11t-37 -33z" />
    <glyph glyph-name="ograve" unicode="&#xf2;" horiz-adv-x="510" 
d="M223 -11q-59 0 -97.5 26.5t-57 68.5t-18.5 89q0 30 4 65.5t11.5 70t17.5 60.5q26 68 80 105t123 37q60 0 98.5 -26.5t57 -68.5t18.5 -89q0 -29 -4 -65t-11.5 -70.5t-17.5 -60.5q-26 -68 -80 -105t-124 -37zM228 60q50 0 80 24.5t48 70.5q9 19 15 49t9.5 62.5t3.5 56.5
q0 46 -23.5 81.5t-79.5 35.5q-49 0 -79 -24.5t-48 -70.5q-8 -20 -14.5 -49.5t-10 -60.5t-3.5 -58q0 -46 23.5 -81.5t78.5 -35.5zM272 600l-79 150h83l79 -150h-83z" />
    <glyph glyph-name="oacute" unicode="&#xf3;" horiz-adv-x="510" 
d="M223 -11q-59 0 -97.5 26.5t-57 68.5t-18.5 89q0 30 4 65.5t11.5 70t17.5 60.5q26 68 80 105t123 37q60 0 98.5 -26.5t57 -68.5t18.5 -89q0 -29 -4 -65t-11.5 -70.5t-17.5 -60.5q-26 -68 -80 -105t-124 -37zM228 60q50 0 80 24.5t48 70.5q9 19 15 49t9.5 62.5t3.5 56.5
q0 46 -23.5 81.5t-79.5 35.5q-49 0 -79 -24.5t-48 -70.5q-8 -20 -14.5 -49.5t-10 -60.5t-3.5 -58q0 -46 23.5 -81.5t78.5 -35.5zM250 600l121 150h87l-121 -150h-87z" />
    <glyph glyph-name="ocircumflex" unicode="&#xf4;" horiz-adv-x="510" 
d="M223 -11q-59 0 -97.5 26.5t-57 68.5t-18.5 89q0 30 4 65.5t11.5 70t17.5 60.5q26 68 80 105t123 37q60 0 98.5 -26.5t57 -68.5t18.5 -89q0 -29 -4 -65t-11.5 -70.5t-17.5 -60.5q-26 -68 -80 -105t-124 -37zM228 60q50 0 80 24.5t48 70.5q9 19 15 49t9.5 62.5t3.5 56.5
q0 46 -23.5 81.5t-79.5 35.5q-49 0 -79 -24.5t-48 -70.5q-8 -20 -14.5 -49.5t-10 -60.5t-3.5 -58q0 -46 23.5 -81.5t78.5 -35.5zM170 600l112 150h81l72 -150h-77l-26 67l-2 31q-1 8 -4.5 8.5t-8.5 -7.5l-66 -99h-81z" />
    <glyph glyph-name="otilde" unicode="&#xf5;" horiz-adv-x="510" 
d="M223 -11q-59 0 -97.5 26.5t-57 68.5t-18.5 89q0 30 4 65.5t11.5 70t17.5 60.5q26 68 80 105t123 37q60 0 98.5 -26.5t57 -68.5t18.5 -89q0 -29 -4 -65t-11.5 -70.5t-17.5 -60.5q-26 -68 -80 -105t-124 -37zM228 60q50 0 80 24.5t48 70.5q9 19 15 49t9.5 62.5t3.5 56.5
q0 46 -23.5 81.5t-79.5 35.5q-49 0 -79 -24.5t-48 -70.5q-8 -20 -14.5 -49.5t-10 -60.5t-3.5 -58q0 -46 23.5 -81.5t78.5 -35.5zM172 590l-13 58q21 26 43.5 36.5t46.5 10.5q34 0 53 -9.5t34.5 -19.5t36.5 -10t38.5 11t36.5 33l13 -58q-21 -26 -43.5 -36.5t-46.5 -10.5
q-33 0 -52.5 10t-35 19.5t-36.5 9.5t-38 -11t-37 -33z" />
    <glyph glyph-name="odieresis" unicode="&#xf6;" horiz-adv-x="510" 
d="M223 -11q-59 0 -97.5 26.5t-57 68.5t-18.5 89q0 30 4 65.5t11.5 70t17.5 60.5q26 68 80 105t123 37q60 0 98.5 -26.5t57 -68.5t18.5 -89q0 -29 -4 -65t-11.5 -70.5t-17.5 -60.5q-26 -68 -80 -105t-124 -37zM228 60q50 0 80 24.5t48 70.5q9 19 15 49t9.5 62.5t3.5 56.5
q0 46 -23.5 81.5t-79.5 35.5q-49 0 -79 -24.5t-48 -70.5q-8 -20 -14.5 -49.5t-10 -60.5t-3.5 -58q0 -46 23.5 -81.5t78.5 -35.5zM349 600l14 100h81l-14 -100h-81zM178 600l14 100h81l-14 -100h-81z" />
    <glyph glyph-name="divide" unicode="&#xf7;" horiz-adv-x="580" 
d="M59 315l10 70h480l-10 -70h-480zM227 100l14 100h85l-14 -100h-85zM283 500l14 100h85l-14 -100h-85z" />
    <glyph glyph-name="oslash" unicode="&#xf8;" horiz-adv-x="510" 
d="M223 -11q-59 0 -97.5 26.5t-57 68.5t-18.5 89q0 30 4 65.5t11.5 70t17.5 60.5q26 68 80 105t123 37q60 0 98.5 -26.5t57 -68.5t18.5 -89q0 -29 -4 -65t-11.5 -70.5t-17.5 -60.5q-26 -68 -80 -105t-124 -37zM228 60q50 0 80 24.5t48 70.5q9 19 15 49t9.5 62.5t3.5 56.5
q0 46 -23.5 81.5t-79.5 35.5q-49 0 -79 -24.5t-48 -70.5q-8 -20 -14.5 -49.5t-10 -60.5t-3.5 -58q0 -46 23.5 -81.5t78.5 -35.5zM-16 0l459 500h82l-459 -500h-82z" />
    <glyph glyph-name="ugrave" unicode="&#xf9;" horiz-adv-x="520" 
d="M188 -11q-73 0 -110 42t-27 114l47 355h80l-47 -361q-5 -40 15.5 -58t55.5 -18q11 0 25 4t40.5 17t73.5 40l49 376h80l-71 -500h-75l4 25q2 9 -3.5 12.5t-13.5 -1.5q-22 -12 -40 -22t-33 -18q-12 -3 -25 -5t-25 -2zM278 600l-79 150h83l79 -150h-83z" />
    <glyph glyph-name="uacute" unicode="&#xfa;" horiz-adv-x="520" 
d="M188 -11q-73 0 -110 42t-27 114l47 355h80l-47 -361q-5 -40 15.5 -58t55.5 -18q11 0 25 4t40.5 17t73.5 40l49 376h80l-71 -500h-75l4 25q2 9 -3.5 12.5t-13.5 -1.5q-22 -12 -40 -22t-33 -18q-12 -3 -25 -5t-25 -2zM256 600l121 150h87l-121 -150h-87z" />
    <glyph glyph-name="ucircumflex" unicode="&#xfb;" horiz-adv-x="520" 
d="M188 -11q-73 0 -110 42t-27 114l47 355h80l-47 -361q-5 -40 15.5 -58t55.5 -18q11 0 25 4t40.5 17t73.5 40l49 376h80l-71 -500h-75l4 25q2 9 -3.5 12.5t-13.5 -1.5q-22 -12 -40 -22t-33 -18q-12 -3 -25 -5t-25 -2zM176 600l112 150h81l72 -150h-77l-26 67l-2 31
q-1 8 -4.5 8.5t-8.5 -7.5l-66 -99h-81z" />
    <glyph glyph-name="udieresis" unicode="&#xfc;" horiz-adv-x="520" 
d="M188 -11q-73 0 -110 42t-27 114l47 355h80l-47 -361q-5 -40 15.5 -58t55.5 -18q11 0 25 4t40.5 17t73.5 40l49 376h80l-71 -500h-75l4 25q2 9 -3.5 12.5t-13.5 -1.5q-22 -12 -40 -22t-33 -18q-12 -3 -25 -5t-25 -2zM355 600l14 100h81l-14 -100h-81zM184 600l14 100h81
l-14 -100h-81z" />
    <glyph glyph-name="yacute" unicode="&#xfd;" horiz-adv-x="470" 
d="M37 -221l-22 66q53 21 82.5 49t53.5 77l20 41l-115 488h82l64 -269l8 -98q1 -8 6 -8t9 8l165 367h85l-255 -550q-30 -65 -74 -107t-109 -64zM230 600l121 150h87l-121 -150h-87z" />
    <glyph glyph-name="thorn" unicode="&#xfe;" horiz-adv-x="520" 
d="M22 -200l28 196l58 416l42 288h66l-32 -239q40 22 74.5 35.5t70.5 13.5q23 0 48 -6.5t46.5 -24.5t35 -51.5t13.5 -87.5q0 -56 -11.5 -111t-35.5 -104q-30 -61 -85 -98t-126 -37q-26 0 -43.5 3t-38.5 7l-30 -200h-80zM208 60q57 0 96.5 29t58.5 73q16 38 24.5 80.5
t8.5 94.5q0 43 -12.5 64.5t-31 28.5t-37.5 7q-27 0 -57 -11.5t-74 -40.5l-44 -315q40 -10 68 -10z" />
    <glyph glyph-name="ydieresis" unicode="&#xff;" horiz-adv-x="470" 
d="M37 -221l-22 66q53 21 82.5 49t53.5 77l20 41l-115 488h82l64 -269l8 -98q1 -8 6 -8t9 8l165 367h85l-255 -550q-30 -65 -74 -107t-109 -64zM329 600l14 100h81l-14 -100h-81zM158 600l14 100h81l-14 -100h-81z" />
    <glyph glyph-name="Amacron" unicode="&#x100;" 
d="M-15 0l296 700h120l110 -700h-84l-78 534l-2 89q0 6 -5.5 7t-7.5 -5l-263 -625h-86zM119 187l33 74h266l11 -74h-310zM157 627l10 73h141l-7 -73h-144zM233 780l8 60h250l-8 -60h-250z" />
    <glyph glyph-name="amacron" unicode="&#x101;" horiz-adv-x="542" 
d="M201 -10q-24 0 -50.5 7t-50 25t-38 51t-14.5 85q0 58 11.5 113t35.5 104q30 61 85.5 98t125.5 37q15 0 27.5 -0.5t25.5 -2.5l38 -9q7 -1 16 0l57 6l-58 -416l58 -28l-33 -70l-106 53q-9 5 -14 -2l-14 -15q-27 -15 -44 -23t-30 -10.5t-28 -2.5zM212 63q14 0 27 3.5t35 16
t63 37.5l43 310q-40 10 -68 10q-57 0 -96.5 -29t-58.5 -73q-16 -37 -24.5 -81t-8.5 -104q0 -52 27 -71t61 -19zM216 610l8 60h250l-8 -60h-250z" />
    <glyph glyph-name="Abreve" unicode="&#x102;" 
d="M-15 0l296 700h120l110 -700h-84l-78 534l-2 89q0 6 -5.5 7t-7.5 -5l-263 -625h-86zM119 187l33 74h266l11 -74h-310zM157 627l10 73h141l-7 -73h-144zM362 777q-55 0 -96 29t-46 87l61 13q7 -34 25.5 -52t54.5 -18q39 0 65.5 20t42.5 54l58 -21q-22 -58 -68 -85t-97 -27
z" />
    <glyph glyph-name="abreve" unicode="&#x103;" horiz-adv-x="542" 
d="M201 -10q-24 0 -50.5 7t-50 25t-38 51t-14.5 85q0 58 11.5 113t35.5 104q30 61 85.5 98t125.5 37q15 0 27.5 -0.5t25.5 -2.5l38 -9q7 -1 16 0l57 6l-58 -416l58 -28l-33 -70l-106 53q-9 5 -14 -2l-14 -15q-27 -15 -44 -23t-30 -10.5t-28 -2.5zM212 63q14 0 27 3.5t35 16
t63 37.5l43 310q-40 10 -68 10q-57 0 -96.5 -29t-58.5 -73q-16 -37 -24.5 -81t-8.5 -104q0 -52 27 -71t61 -19zM345 607q-55 0 -96 29t-46 87l61 13q7 -34 25.5 -52t54.5 -18q39 0 65.5 20t42.5 54l58 -21q-22 -58 -68 -85t-97 -27z" />
    <glyph glyph-name="Aogonek" unicode="&#x104;" 
d="M-15 0l296 700h120l110 -700h-84l-78 534l-2 89q0 6 -5.5 7t-7.5 -5l-263 -625h-86zM119 187l33 74h266l11 -74h-310zM157 627l10 73h141l-7 -73h-144zM505 -247q-49 5 -83 23t-49 51.5t-8 82.5q5 34 24.5 63.5t54.5 48.5l67 -22q-28 -15 -48.5 -39.5t-25.5 -56.5
q-6 -45 17.5 -63t69.5 -26z" />
    <glyph glyph-name="aogonek" unicode="&#x105;" horiz-adv-x="542" 
d="M432 -247q-49 5 -83 23t-49 51.5t-8 82.5q5 34 24.5 63.5t54.5 48.5l67 -22q-28 -15 -48.5 -39.5t-25.5 -56.5q-6 -45 17.5 -63t69.5 -26zM201 -10q-24 0 -50.5 7t-50 25t-38 51t-14.5 85q0 58 11.5 113t35.5 104q30 61 85.5 98t125.5 37q15 0 27.5 -0.5t25.5 -2.5l38 -9
q7 -1 16 0l57 6l-58 -416l58 -28l-33 -70l-106 53q-9 5 -14 -2l-14 -15q-27 -15 -44 -23t-30 -10.5t-28 -2.5zM212 63q14 0 27 3.5t35 16t63 37.5l43 310q-40 10 -68 10q-57 0 -96.5 -29t-58.5 -73q-16 -37 -24.5 -81t-8.5 -104q0 -52 27 -71t61 -19z" />
    <glyph glyph-name="Cacute" unicode="&#x106;" horiz-adv-x="503" 
d="M278 -12q-54 0 -94 18.5t-67 50.5t-40 72.5t-13 84.5q0 47 6.5 103.5t18 113t27.5 103.5q23 79 81.5 128.5t158.5 49.5q54 0 94 -18.5t67 -49.5l-34 -69q-20 28 -54 44.5t-81 16.5q-51 0 -93.5 -26.5t-64.5 -96.5q-10 -31 -19 -69t-15 -78t-9.5 -79t-3.5 -72
q0 -72 37.5 -111.5t105.5 -39.5q38 0 73.5 16t59.5 37l20 -78q-29 -24 -69.5 -37.5t-91.5 -13.5zM302 770l121 150h87l-121 -150h-87z" />
    <glyph glyph-name="cacute" unicode="&#x107;" horiz-adv-x="450" 
d="M223 -10q-56 0 -95.5 25.5t-59.5 66t-19 86.5q0 38 5.5 77t16.5 80q15 52 46 94t74.5 66.5t97.5 24.5q43 0 77 -12.5t66 -33.5l-29 -63q-28 17 -54.5 27t-61.5 10q-56 0 -92 -38t-53 -97q-9 -33 -13 -60.5t-4 -56.5q0 -33 10.5 -61.5t33 -46.5t59.5 -18q18 0 33 4.5
t34.5 17.5t48.5 38l60 -29q-54 -62 -98 -81.5t-83 -19.5zM249 600l121 150h87l-121 -150h-87z" />
    <glyph glyph-name="Cdotaccent" unicode="&#x10a;" horiz-adv-x="503" 
d="M278 -12q-54 0 -94 18.5t-67 50.5t-40 72.5t-13 84.5q0 47 6.5 103.5t18 113t27.5 103.5q23 79 81.5 128.5t158.5 49.5q54 0 94 -18.5t67 -49.5l-34 -69q-20 28 -54 44.5t-81 16.5q-51 0 -93.5 -26.5t-64.5 -96.5q-10 -31 -19 -69t-15 -78t-9.5 -79t-3.5 -72
q0 -72 37.5 -111.5t105.5 -39.5q38 0 73.5 16t59.5 37l20 -78q-29 -24 -69.5 -37.5t-91.5 -13.5zM316 770l14 100h80l-14 -100h-80z" />
    <glyph glyph-name="cdotaccent" unicode="&#x10b;" horiz-adv-x="450" 
d="M223 -10q-56 0 -95.5 25.5t-59.5 66t-19 86.5q0 38 5.5 77t16.5 80q15 52 46 94t74.5 66.5t97.5 24.5q43 0 77 -12.5t66 -33.5l-29 -63q-28 17 -54.5 27t-61.5 10q-56 0 -92 -38t-53 -97q-9 -33 -13 -60.5t-4 -56.5q0 -33 10.5 -61.5t33 -46.5t59.5 -18q18 0 33 4.5
t34.5 17.5t48.5 38l60 -29q-54 -62 -98 -81.5t-83 -19.5zM263 600l14 100h80l-14 -100h-80z" />
    <glyph glyph-name="Ccaron" unicode="&#x10c;" horiz-adv-x="503" 
d="M278 -12q-54 0 -94 18.5t-67 50.5t-40 72.5t-13 84.5q0 47 6.5 103.5t18 113t27.5 103.5q23 79 81.5 128.5t158.5 49.5q54 0 94 -18.5t67 -49.5l-34 -69q-20 28 -54 44.5t-81 16.5q-51 0 -93.5 -26.5t-64.5 -96.5q-10 -31 -19 -69t-15 -78t-9.5 -79t-3.5 -72
q0 -72 37.5 -111.5t105.5 -39.5q38 0 73.5 16t59.5 37l20 -78q-29 -24 -69.5 -37.5t-91.5 -13.5zM319 770l-74 150h73l31 -67l3 -31q1 -6 4.5 -6t7.5 6l69 98h77l-116 -150h-75z" />
    <glyph glyph-name="ccaron" unicode="&#x10d;" horiz-adv-x="450" 
d="M223 -10q-56 0 -95.5 25.5t-59.5 66t-19 86.5q0 38 5.5 77t16.5 80q15 52 46 94t74.5 66.5t97.5 24.5q43 0 77 -12.5t66 -33.5l-29 -63q-28 17 -54.5 27t-61.5 10q-56 0 -92 -38t-53 -97q-9 -33 -13 -60.5t-4 -56.5q0 -33 10.5 -61.5t33 -46.5t59.5 -18q18 0 33 4.5
t34.5 17.5t48.5 38l60 -29q-54 -62 -98 -81.5t-83 -19.5zM266 600l-74 150h73l31 -67l3 -31q1 -6 4.5 -6t7.5 6l69 98h77l-116 -150h-75z" />
    <glyph glyph-name="Dcaron" unicode="&#x10e;" horiz-adv-x="593" 
d="M55 0l98 700h186q84 0 133.5 -32.5t70.5 -86.5t16 -120q-4 -56 -13.5 -117.5t-20.5 -118.5q-13 -69 -48.5 -119.5t-93 -78t-138.5 -27.5h-190zM145 72h106q59 0 99 22t65 61t37 89q7 28 13 67t11 79.5t6 71.5q3 47 -10.5 84.5t-46.5 59t-92 21.5h-110zM333 770l-74 150
h73l31 -67l3 -31q1 -6 4.5 -6t7.5 6l69 98h77l-116 -150h-75z" />
    <glyph glyph-name="dcaron" unicode="&#x10f;" horiz-adv-x="542" 
d="M384 470l41 280h80l-35 -246zM201 -10q-24 0 -50.5 7t-50 25t-38 51t-14.5 85q0 58 11.5 113t35.5 104q30 61 85.5 98t125.5 37q15 0 27.5 -0.5t25.5 -2.5l38 -9q7 -1 16 0l57 6l-58 -416l58 -28l-33 -70l-106 53q-9 5 -14 -2l-14 -15q-27 -15 -44 -23t-30 -10.5
t-28 -2.5zM212 63q14 0 27 3.5t35 16t63 37.5l43 310q-40 10 -68 10q-57 0 -96.5 -29t-58.5 -73q-16 -37 -24.5 -81t-8.5 -104q0 -52 27 -71t61 -19zM595 600h-67l106 150h77z" />
    <glyph glyph-name="Dcroat" unicode="&#x110;" horiz-adv-x="613" 
d="M-5 315l10 69h291l-10 -69h-291zM75 0l98 700h186q84 0 133.5 -32.5t70.5 -86.5t16 -120q-4 -56 -13.5 -117.5t-20.5 -118.5q-13 -69 -48.5 -119.5t-93 -78t-138.5 -27.5h-190zM165 72h106q59 0 99 22t65 61t37 89q7 28 13 67t11 79.5t6 71.5q3 47 -10.5 84.5t-46.5 59
t-92 21.5h-110z" />
    <glyph glyph-name="dcroat" unicode="&#x111;" horiz-adv-x="542" 
d="M384 470l41 280h80l-35 -246zM201 -10q-24 0 -50.5 7t-50 25t-38 51t-14.5 85q0 58 11.5 113t35.5 104q30 61 85.5 98t125.5 37q15 0 27.5 -0.5t25.5 -2.5l38 -9q7 -1 16 0l57 6l-58 -416l58 -28l-33 -70l-106 53q-9 5 -14 -2l-14 -15q-27 -15 -44 -23t-30 -10.5
t-28 -2.5zM212 63q14 0 27 3.5t35 16t63 37.5l43 310q-40 10 -68 10q-57 0 -96.5 -29t-58.5 -73q-16 -37 -24.5 -81t-8.5 -104q0 -52 27 -71t61 -19zM304 576l10 69h291l-10 -69h-291z" />
    <glyph glyph-name="Emacron" unicode="&#x112;" horiz-adv-x="553" 
d="M55 0l98 700h403l-11 -78h-325l-32 -233h308l-11 -78h-308l-33 -233h325l-11 -78h-403zM247 780l8 60h250l-8 -60h-250z" />
    <glyph glyph-name="emacron" unicode="&#x113;" horiz-adv-x="482" 
d="M227 -10q-59 0 -98.5 25t-59 65.5t-19.5 86.5q0 47 5.5 84.5t11.5 60.5q16 62 49.5 106.5t79 68t96.5 23.5q55 0 88.5 -20t50 -54t18.5 -76t-7 -87l-28 -40h-302l9 70h248q14 68 -7 102.5t-71 34.5q-48 0 -93 -39t-62 -119q-4 -21 -7 -38.5t-4 -52.5q-2 -63 26 -97
t80 -34q32 0 55 13t59 47l60 -29q-49 -58 -93 -79.5t-85 -21.5zM175 610l8 60h250l-8 -60h-250z" />
    <glyph glyph-name="Edotaccent" unicode="&#x116;" horiz-adv-x="553" 
d="M55 0l98 700h403l-11 -78h-325l-32 -233h308l-11 -78h-308l-33 -233h325l-11 -78h-403zM330 770l14 100h80l-14 -100h-80z" />
    <glyph glyph-name="edotaccent" unicode="&#x117;" horiz-adv-x="482" 
d="M227 -10q-59 0 -98.5 25t-59 65.5t-19.5 86.5q0 47 5.5 84.5t11.5 60.5q16 62 49.5 106.5t79 68t96.5 23.5q55 0 88.5 -20t50 -54t18.5 -76t-7 -87l-28 -40h-302l9 70h248q14 68 -7 102.5t-71 34.5q-48 0 -93 -39t-62 -119q-4 -21 -7 -38.5t-4 -52.5q-2 -63 26 -97
t80 -34q32 0 55 13t59 47l60 -29q-49 -58 -93 -79.5t-85 -21.5zM258 600l14 100h80l-14 -100h-80z" />
    <glyph glyph-name="Eogonek" unicode="&#x118;" horiz-adv-x="553" 
d="M55 0l98 700h403l-11 -78h-325l-32 -233h308l-11 -78h-308l-33 -233h325l-11 -78h-403zM452 -247q-49 5 -83 23t-49 51.5t-8 82.5q5 34 24.5 63.5t54.5 48.5l67 -22q-28 -15 -48.5 -39.5t-25.5 -56.5q-6 -45 17.5 -63t69.5 -26z" />
    <glyph glyph-name="eogonek" unicode="&#x119;" horiz-adv-x="482" 
d="M279 -247q-49 5 -83 23t-49 51.5t-8 82.5q5 34 24.5 63.5t54.5 48.5l67 -22q-28 -15 -48.5 -39.5t-25.5 -56.5q-6 -45 17.5 -63t69.5 -26zM227 -10q-59 0 -98.5 25t-59 65.5t-19.5 86.5q0 47 5.5 84.5t11.5 60.5q16 62 49.5 106.5t79 68t96.5 23.5q55 0 88.5 -20t50 -54
t18.5 -76t-7 -87l-28 -40h-302l9 70h248q14 68 -7 102.5t-71 34.5q-48 0 -93 -39t-62 -119q-4 -21 -7 -38.5t-4 -52.5q-2 -63 26 -97t80 -34q32 0 55 13t59 47l60 -29q-49 -58 -93 -79.5t-85 -21.5z" />
    <glyph glyph-name="Ecaron" unicode="&#x11a;" horiz-adv-x="553" 
d="M55 0l98 700h403l-11 -78h-325l-32 -233h308l-11 -78h-308l-33 -233h325l-11 -78h-403zM333 770l-74 150h73l31 -67l3 -31q1 -6 4.5 -6t7.5 6l69 98h77l-116 -150h-75z" />
    <glyph glyph-name="ecaron" unicode="&#x11b;" horiz-adv-x="482" 
d="M227 -10q-59 0 -98.5 25t-59 65.5t-19.5 86.5q0 47 5.5 84.5t11.5 60.5q16 62 49.5 106.5t79 68t96.5 23.5q55 0 88.5 -20t50 -54t18.5 -76t-7 -87l-28 -40h-302l9 70h248q14 68 -7 102.5t-71 34.5q-48 0 -93 -39t-62 -119q-4 -21 -7 -38.5t-4 -52.5q-2 -63 26 -97
t80 -34q32 0 55 13t59 47l60 -29q-49 -58 -93 -79.5t-85 -21.5zM261 600l-74 150h73l31 -67l3 -31q1 -6 4.5 -6t7.5 6l69 98h77l-116 -150h-75z" />
    <glyph glyph-name="Gbreve" unicode="&#x11e;" horiz-adv-x="600" 
d="M280 -12q-68 0 -118 26.5t-76.5 73.5t-26.5 106q0 40 6.5 95t17 111.5t20.5 99.5q21 86 60 132t93.5 63t120.5 17q54 0 97.5 -17t72.5 -46l-33 -68q-30 29 -61.5 41t-77.5 12q-47 0 -87 -12t-69 -47t-43 -104q-8 -43 -17.5 -93.5t-15 -98.5t-4.5 -85q2 -58 38 -93
t106 -35q29 0 58.5 5t44.5 14l33 226h-81l11 78h238l-11 -78h-74l-36 -270q-41 -26 -84 -39.5t-102 -13.5zM401 777q-55 0 -96 29t-46 87l61 13q7 -34 25.5 -52t54.5 -18q39 0 65.5 20t42.5 54l58 -21q-22 -58 -68 -85t-97 -27z" />
    <glyph glyph-name="gbreve" unicode="&#x11f;" horiz-adv-x="514" 
d="M151 -204q-45 0 -87 17t-65 39l26 70q23 -25 59 -40.5t82 -15.5q59 0 101 32.5t53 90.5l6 33q2 10 -3.5 13t-13.5 -2l-68 -37q-10 -3 -21.5 -4.5t-22.5 -1.5q-24 0 -50 6.5t-48.5 24t-36.5 51t-14 86.5q0 39 5 76t15.5 73t26.5 68q30 61 85.5 98t125.5 37q31 0 53 -3
l38 -9q7 -1 16 0l57 6l-74 -487q-9 -60 -31.5 -102t-55 -68t-72.5 -38.5t-86 -12.5zM202 63q17 0 47 12t91 47l41 308q-19 5 -34 7.5t-35 2.5q-54 0 -93.5 -27t-61.5 -75q-16 -37 -24.5 -81t-8.5 -104q0 -38 12.5 -57.5t30.5 -26t35 -6.5zM315 607q-55 0 -96 29t-46 87
l61 13q7 -34 25.5 -52t54.5 -18q39 0 65.5 20t42.5 54l58 -21q-22 -58 -68 -85t-97 -27z" />
    <glyph glyph-name="Gdotaccent" unicode="&#x120;" horiz-adv-x="600" 
d="M280 -12q-68 0 -118 26.5t-76.5 73.5t-26.5 106q0 40 6.5 95t17 111.5t20.5 99.5q21 86 60 132t93.5 63t120.5 17q54 0 97.5 -17t72.5 -46l-33 -68q-30 29 -61.5 41t-77.5 12q-47 0 -87 -12t-69 -47t-43 -104q-8 -43 -17.5 -93.5t-15 -98.5t-4.5 -85q2 -58 38 -93
t106 -35q29 0 58.5 5t44.5 14l33 226h-81l11 78h238l-11 -78h-74l-36 -270q-41 -26 -84 -39.5t-102 -13.5zM355 770l14 100h80l-14 -100h-80z" />
    <glyph glyph-name="gdotaccent" unicode="&#x121;" horiz-adv-x="514" 
d="M151 -204q-45 0 -87 17t-65 39l26 70q23 -25 59 -40.5t82 -15.5q59 0 101 32.5t53 90.5l6 33q2 10 -3.5 13t-13.5 -2l-68 -37q-10 -3 -21.5 -4.5t-22.5 -1.5q-24 0 -50 6.5t-48.5 24t-36.5 51t-14 86.5q0 39 5 76t15.5 73t26.5 68q30 61 85.5 98t125.5 37q31 0 53 -3
l38 -9q7 -1 16 0l57 6l-74 -487q-9 -60 -31.5 -102t-55 -68t-72.5 -38.5t-86 -12.5zM202 63q17 0 47 12t91 47l41 308q-19 5 -34 7.5t-35 2.5q-54 0 -93.5 -27t-61.5 -75q-16 -37 -24.5 -81t-8.5 -104q0 -38 12.5 -57.5t30.5 -26t35 -6.5zM269 600l14 100h80l-14 -100h-80z
" />
    <glyph glyph-name="uni0122" unicode="&#x122;" horiz-adv-x="600" 
d="M280 -12q-68 0 -118 26.5t-76.5 73.5t-26.5 106q0 40 6.5 95t17 111.5t20.5 99.5q21 86 60 132t93.5 63t120.5 17q54 0 97.5 -17t72.5 -46l-33 -68q-30 29 -61.5 41t-77.5 12q-47 0 -87 -12t-69 -47t-43 -104q-8 -43 -17.5 -93.5t-15 -98.5t-4.5 -85q2 -58 38 -93
t106 -35q29 0 58.5 5t44.5 14l33 226h-81l11 78h238l-11 -78h-74l-36 -270q-41 -26 -84 -39.5t-102 -13.5zM174 -323l-48 42q40 24 65.5 52t39.5 64.5t21 84.5l68 -4q-8 -58 -24 -101t-45 -75.5t-77 -62.5z" />
    <glyph glyph-name="uni0123" unicode="&#x123;" horiz-adv-x="514" 
d="M151 -204q-45 0 -87 17t-65 39l26 70q23 -25 59 -40.5t82 -15.5q59 0 101 32.5t53 90.5l6 33q2 10 -3.5 13t-13.5 -2l-68 -37q-10 -3 -21.5 -4.5t-22.5 -1.5q-24 0 -50 6.5t-48.5 24t-36.5 51t-14 86.5q0 39 5 76t15.5 73t26.5 68q30 61 85.5 98t125.5 37q31 0 53 -3
l38 -9q7 -1 16 0l57 6l-74 -487q-9 -60 -31.5 -102t-55 -68t-72.5 -38.5t-86 -12.5zM202 63q17 0 47 12t91 47l41 308q-19 5 -34 7.5t-35 2.5q-54 0 -93.5 -27t-61.5 -75q-16 -37 -24.5 -81t-8.5 -104q0 -38 12.5 -57.5t30.5 -26t35 -6.5zM447 876l-11 -44
q-61 -10 -100.5 -50t-50.5 -99l57 2l-14 -100h-105l12 88q8 57 36 99.5t73 69.5t103 34z" />
    <glyph glyph-name="Hbar" unicode="&#x126;" horiz-adv-x="620" 
d="M19 495l10 69h651l-10 -69h-651zM55 0l98 700h83l-43 -311h274l43 311h83l-98 -700h-83l44 311h-274l-44 -311h-83z" />
    <glyph glyph-name="hbar" unicode="&#x127;" horiz-adv-x="537" 
d="M342 0l47 355q5 42 -13.5 62t-53.5 20q-19 0 -38.5 -4t-46 -16.5t-68.5 -38.5l5 73q36 23 60 35.5t46.5 18t52.5 5.5q44 0 77 -20.5t49 -56.5t9 -84l-46 -349h-80zM50 0l105 750h80l-105 -750h-80zM25 575l10 69h291l-10 -69h-291z" />
    <glyph glyph-name="Imacron" unicode="&#x12a;" horiz-adv-x="423" 
d="M15 0l11 76h120l77 548h-120l10 76h323l-10 -76h-120l-77 -548h120l-11 -76h-323zM162 780l8 60h250l-8 -60h-250z" />
    <glyph glyph-name="imacron" unicode="&#x12b;" horiz-adv-x="290" 
d="M85 0l60 430h-70l10 70h150l-70 -500h-80zM71 610l8 60h250l-8 -60h-250z" />
    <glyph glyph-name="Iogonek" unicode="&#x12e;" horiz-adv-x="423" 
d="M15 0l11 76h120l77 548h-120l10 76h323l-10 -76h-120l-77 -548h120l-11 -76h-323zM332 -247q-49 5 -83 23t-49 51.5t-8 82.5q5 34 24.5 63.5t54.5 48.5l67 -22q-28 -15 -48.5 -39.5t-25.5 -56.5q-6 -45 17.5 -63t69.5 -26z" />
    <glyph glyph-name="iogonek" unicode="&#x12f;" horiz-adv-x="290" 
d="M85 0l60 430h-70l10 70h150l-70 -500h-80zM154 600l14 100h80l-14 -100h-80zM159 -247q-49 5 -83 23t-49 51.5t-8 82.5q5 34 24.5 63.5t54.5 48.5l67 -22q-28 -15 -48.5 -39.5t-25.5 -56.5q-6 -45 17.5 -63t69.5 -26z" />
    <glyph glyph-name="Idotaccent" unicode="&#x130;" horiz-adv-x="423" 
d="M15 0l11 76h120l77 548h-120l10 76h323l-10 -76h-120l-77 -548h120l-11 -76h-323zM245 770l14 100h80l-14 -100h-80z" />
    <glyph glyph-name="dotlessi" unicode="&#x131;" horiz-adv-x="290" 
d="M85 0l60 430h-70l10 70h150l-70 -500h-80z" />
    <glyph glyph-name="IJ" unicode="&#x132;" horiz-adv-x="827" 
d="M518 -12q-31 0 -58.5 5.5t-43.5 14.5l10 81q21 -13 45 -18t48 -5q50 0 84 28t43 92l61 436h-160l11 78h242l-74 -528q-13 -93 -69 -138.5t-139 -45.5zM15 0l11 76h120l77 548h-120l10 76h323l-10 -76h-120l-77 -548h120l-11 -76h-323z" />
    <glyph glyph-name="ij" unicode="&#x133;" horiz-adv-x="541" 
d="M55 0l60 430h-70l10 70h150l-70 -500h-80zM139 600l14 100h80l-14 -100h-80zM231 -223l-23 70q49 13 86 52t47 108l59 423h-70l10 70h151l-71 -497q-9 -63 -34.5 -107.5t-64.5 -73t-90 -45.5zM424 600l14 100h80l-14 -100h-80z" />
    <glyph glyph-name="uni0136" unicode="&#x136;" horiz-adv-x="538" 
d="M55 0l98 700h82l-44 -312h72l214 312h93l-237 -345l139 -355h-88l-121 313h-82l-44 -313h-82zM128 -323l-48 42q40 24 65.5 52t39.5 64.5t21 84.5l68 -4q-8 -58 -24 -101t-45 -75.5t-77 -62.5z" />
    <glyph glyph-name="uni0137" unicode="&#x137;" horiz-adv-x="487" 
d="M50 0l105 750h82l-62 -441h54l134 191h96l-149 -215l101 -285h-88l-82 239h-76l-33 -239h-82zM98 -323l-48 42q40 24 65.5 52t39.5 64.5t21 84.5l68 -4q-8 -58 -24 -101t-45 -75.5t-77 -62.5z" />
    <glyph glyph-name="Lacute" unicode="&#x139;" horiz-adv-x="452" 
d="M55 0l98 700h83l-87 -622h249l-11 -78h-332zM245 770l121 150h87l-121 -150h-87z" />
    <glyph glyph-name="lacute" unicode="&#x13a;" horiz-adv-x="275" 
d="M166 0q-52 0 -80 30.5t-21 79.5l90 640h80l-90 -644q-2 -17 4.5 -26.5t22.5 -9.5h43l-10 -70h-39zM156 850l121 150h87l-121 -150h-87z" />
    <glyph glyph-name="uni013B" unicode="&#x13b;" horiz-adv-x="452" 
d="M55 0l98 700h83l-87 -622h249l-11 -78h-332zM110 -323l-48 42q40 24 65.5 52t39.5 64.5t21 84.5l68 -4q-8 -58 -24 -101t-45 -75.5t-77 -62.5z" />
    <glyph glyph-name="uni013C" unicode="&#x13c;" horiz-adv-x="275" 
d="M166 0q-52 0 -80 30.5t-21 79.5l90 640h80l-90 -644q-2 -17 4.5 -26.5t22.5 -9.5h43l-10 -70h-39zM-3 -323l-48 42q40 24 65.5 52t39.5 64.5t21 84.5l68 -4q-8 -58 -24 -101t-45 -75.5t-77 -62.5z" />
    <glyph glyph-name="Lcaron" unicode="&#x13d;" horiz-adv-x="452" 
d="M55 0l98 700h83l-87 -622h249l-11 -78h-332zM371 550h-67l106 150h77z" />
    <glyph glyph-name="lcaron" unicode="&#x13e;" horiz-adv-x="275" 
d="M166 0q-52 0 -80 30.5t-21 79.5l90 640h80l-90 -644q-2 -17 4.5 -26.5t22.5 -9.5h43l-10 -70h-39zM325 600h-67l106 150h77z" />
    <glyph glyph-name="Lslash" unicode="&#x141;" horiz-adv-x="472" 
d="M28 247l10 74l346 217l-11 -74zM75 0l98 700h83l-87 -622h249l-11 -78h-332z" />
    <glyph glyph-name="lslash" unicode="&#x142;" horiz-adv-x="306" 
d="M35 288l11 74l280 176l-11 -74zM186 0q-52 0 -80 30.5t-21 79.5l90 640h80l-90 -644q-2 -17 4.5 -26.5t22.5 -9.5h43l-10 -70h-39z" />
    <glyph glyph-name="Nacute" unicode="&#x143;" horiz-adv-x="623" 
d="M55 0l98 700h70l213 -549q3 -7 9.5 -6t6.5 15l2 95l62 445h80l-98 -700h-82l-203 519q-4 10 -10.5 7.5t-6.5 -14.5l-3 -98l-58 -414h-80zM335 800l121 150h87l-121 -150h-87z" />
    <glyph glyph-name="nacute" unicode="&#x144;" horiz-adv-x="547" 
d="M60 0l62 447l39 -56l-101 49l33 70l101 -49q9 -4 15 2l12 12q32 20 59 28t61 7q77 -1 112 -48.5t25 -121.5l-46 -340h-80l46 344q7 52 -12 72.5t-55 20.5q-21 0 -40.5 -4.5t-45 -17t-66.5 -38.5l21 47l-60 -424h-80zM274 600l121 150h87l-121 -150h-87z" />
    <glyph glyph-name="uni0145" unicode="&#x145;" horiz-adv-x="623" 
d="M55 0l98 700h70l213 -549q3 -7 9.5 -6t6.5 15l2 95l62 445h80l-98 -700h-82l-203 519q-4 10 -10.5 7.5t-6.5 -14.5l-3 -98l-58 -414h-80zM171 -323l-48 42q40 24 65.5 52t39.5 64.5t21 84.5l68 -4q-8 -58 -24 -101t-45 -75.5t-77 -62.5z" />
    <glyph glyph-name="uni0146" unicode="&#x146;" horiz-adv-x="547" 
d="M60 0l62 447l39 -56l-101 49l33 70l101 -49q9 -4 15 2l12 12q32 20 59 28t61 7q77 -1 112 -48.5t25 -121.5l-46 -340h-80l46 344q7 52 -12 72.5t-55 20.5q-21 0 -40.5 -4.5t-45 -17t-66.5 -38.5l21 47l-60 -424h-80zM138 -323l-48 42q40 24 65.5 52t39.5 64.5t21 84.5
l68 -4q-8 -58 -24 -101t-45 -75.5t-77 -62.5z" />
    <glyph glyph-name="Ncaron" unicode="&#x147;" horiz-adv-x="623" 
d="M55 0l98 700h70l213 -549q3 -7 9.5 -6t6.5 15l2 95l62 445h80l-98 -700h-82l-203 519q-4 10 -10.5 7.5t-6.5 -14.5l-3 -98l-58 -414h-80zM352 800l-74 150h73l31 -67l3 -31q1 -6 4.5 -6t7.5 6l69 98h77l-116 -150h-75z" />
    <glyph glyph-name="ncaron" unicode="&#x148;" horiz-adv-x="547" 
d="M60 0l62 447l39 -56l-101 49l33 70l101 -49q9 -4 15 2l12 12q32 20 59 28t61 7q77 -1 112 -48.5t25 -121.5l-46 -340h-80l46 344q7 52 -12 72.5t-55 20.5q-21 0 -40.5 -4.5t-45 -17t-66.5 -38.5l21 47l-60 -424h-80zM291 600l-74 150h73l31 -67l3 -31q1 -6 4.5 -6t7.5 6
l69 98h77l-116 -150h-75z" />
    <glyph glyph-name="Eng" unicode="&#x14a;" horiz-adv-x="623" 
d="M315 -215q-34 0 -67 15t-57 40l43 59q16 -19 39 -30t47 -11q35 0 59.5 22t29.5 57l9 63h80l-10 -67q-10 -69 -56 -108.5t-117 -39.5zM55 0l98 700h70l213 -549q3 -7 9.5 -6t6.5 15l2 95l62 445h80l-98 -700h-82l-203 519q-4 10 -10.5 7.5t-6.5 -14.5l-3 -98l-58 -414h-80
z" />
    <glyph glyph-name="eng" unicode="&#x14b;" horiz-adv-x="547" 
d="M261 -223l-23 70q42 12 73.5 50.5t40.5 102.5h80q-9 -62 -32 -106t-58 -72.5t-81 -44.5zM60 0l62 447l39 -56l-101 49l33 70l101 -49q9 -4 15 2l12 12q32 20 59 28t61 7q77 -1 112 -48.5t25 -121.5l-46 -340h-80l46 344q7 52 -12 72.5t-55 20.5q-21 0 -40.5 -4.5t-45 -17
t-66.5 -38.5l21 47l-60 -424h-80z" />
    <glyph glyph-name="Omacron" unicode="&#x14c;" horiz-adv-x="606" 
d="M278 -12q-72 0 -119.5 32t-71 84t-23.5 110q0 47 6.5 103.5t18 113t27.5 103.5q23 79 81.5 128.5t158.5 49.5q73 0 120.5 -32t71 -83.5t23.5 -110.5q0 -46 -6.5 -101.5t-18 -112.5t-27.5 -106q-23 -79 -81.5 -128.5t-159.5 -49.5zM286 64q52 0 95 26.5t64 96.5
q10 32 18.5 69.5t15 77.5t10 79t3.5 72q0 72 -37.5 111.5t-106.5 39.5q-51 0 -93.5 -26.5t-64.5 -96.5q-10 -31 -19 -69t-15 -78t-9.5 -79t-3.5 -72q0 -72 37.5 -111.5t105.5 -39.5zM253 780l8 60h250l-8 -60h-250z" />
    <glyph glyph-name="omacron" unicode="&#x14d;" horiz-adv-x="510" 
d="M223 -11q-59 0 -97.5 26.5t-57 68.5t-18.5 89q0 30 4 65.5t11.5 70t17.5 60.5q26 68 80 105t123 37q60 0 98.5 -26.5t57 -68.5t18.5 -89q0 -29 -4 -65t-11.5 -70.5t-17.5 -60.5q-26 -68 -80 -105t-124 -37zM228 60q50 0 80 24.5t48 70.5q9 19 15 49t9.5 62.5t3.5 56.5
q0 46 -23.5 81.5t-79.5 35.5q-49 0 -79 -24.5t-48 -70.5q-8 -20 -14.5 -49.5t-10 -60.5t-3.5 -58q0 -46 23.5 -81.5t78.5 -35.5zM181 610l8 60h250l-8 -60h-250z" />
    <glyph glyph-name="Ohungarumlaut" unicode="&#x150;" horiz-adv-x="606" 
d="M278 -12q-72 0 -119.5 32t-71 84t-23.5 110q0 47 6.5 103.5t18 113t27.5 103.5q23 79 81.5 128.5t158.5 49.5q73 0 120.5 -32t71 -83.5t23.5 -110.5q0 -46 -6.5 -101.5t-18 -112.5t-27.5 -106q-23 -79 -81.5 -128.5t-159.5 -49.5zM286 64q52 0 95 26.5t64 96.5
q10 32 18.5 69.5t15 77.5t10 79t3.5 72q0 72 -37.5 111.5t-106.5 39.5q-51 0 -93.5 -26.5t-64.5 -96.5q-10 -31 -19 -69t-15 -78t-9.5 -79t-3.5 -72q0 -72 37.5 -111.5t105.5 -39.5zM261 770l121 150h87l-121 -150h-87zM434 770l121 150h87l-121 -150h-87z" />
    <glyph glyph-name="ohungarumlaut" unicode="&#x151;" horiz-adv-x="510" 
d="M223 -11q-59 0 -97.5 26.5t-57 68.5t-18.5 89q0 30 4 65.5t11.5 70t17.5 60.5q26 68 80 105t123 37q60 0 98.5 -26.5t57 -68.5t18.5 -89q0 -29 -4 -65t-11.5 -70.5t-17.5 -60.5q-26 -68 -80 -105t-124 -37zM228 60q50 0 80 24.5t48 70.5q9 19 15 49t9.5 62.5t3.5 56.5
q0 46 -23.5 81.5t-79.5 35.5q-49 0 -79 -24.5t-48 -70.5q-8 -20 -14.5 -49.5t-10 -60.5t-3.5 -58q0 -46 23.5 -81.5t78.5 -35.5zM189 600l121 150h87l-121 -150h-87zM362 600l121 150h87l-121 -150h-87z" />
    <glyph glyph-name="OE" unicode="&#x152;" horiz-adv-x="932" 
d="M278 -12q-72 0 -119.5 32t-71 84t-23.5 110q0 47 6.5 103.5t18 113t27.5 103.5q23 79 81.5 128.5t158.5 49.5q42 0 70 -10t41 -19l41 -40q5 -4 10 -3t6 8l8 52h403l-11 -78h-325l-32 -233h308l-11 -78h-308l-33 -233h325l-11 -78h-403l4 35q1 5 -3.5 8t-13.5 -3l-54 -34
q-7 -3 -29 -10.5t-60 -7.5zM286 64q52 0 95 26.5t64 96.5q10 32 18.5 69.5t15 77.5t10 79t3.5 72q0 72 -37.5 111.5t-106.5 39.5q-51 0 -93.5 -26.5t-64.5 -96.5q-10 -31 -19 -69t-15 -78t-9.5 -79t-3.5 -72q0 -72 37.5 -111.5t105.5 -39.5z" />
    <glyph glyph-name="oe" unicode="&#x153;" horiz-adv-x="805" 
d="M223 -11q-59 0 -97.5 26.5t-57 68.5t-18.5 89q0 30 4 65.5t11.5 70t17.5 60.5q26 68 80 105t123 37q47 0 77.5 -14.5t49.5 -36.5l19 -44q2 -6 6 -6.5t8 5.5l28 43q26 26 64 39t78 13q55 0 88.5 -20.5t50 -54.5t18.5 -76t-7 -85l-29 -42l-285 1q-1 -10 -2 -21.5t-1 -28.5
q0 -57 27.5 -90t82.5 -33q32 0 57 15t53 45l60 -29q-47 -53 -89 -77t-89 -24q-49 0 -79 15t-49 35l-21 42q-3 7 -7 6.5t-7 -5.5l-30 -46q-24 -23 -57.5 -35.5t-77.5 -12.5zM228 60q50 0 80 24.5t48 70.5q9 19 15 49t9.5 62.5t3.5 56.5q0 46 -23.5 81.5t-79.5 35.5
q-49 0 -79 -24.5t-48 -70.5q-8 -20 -14.5 -49.5t-10 -60.5t-3.5 -58q0 -46 23.5 -81.5t78.5 -35.5zM465 302l228 2q16 65 -5.5 100.5t-72.5 35.5q-45 0 -87.5 -34t-62.5 -104z" />
    <glyph glyph-name="Racute" unicode="&#x154;" horiz-adv-x="563" 
d="M55 0l98 700h238q55 0 93 -23.5t58 -63.5t20 -89q0 -73 -40.5 -128.5t-114.5 -76.5q-19 -5 -13 -20l31 -72l49 -227h-88l-69 311h-139l-43 -311h-80zM189 384h148q69 0 108.5 32t39.5 108q0 55 -31 80.5t-79 25.5h-152zM301 770l121 150h87l-121 -150h-87z" />
    <glyph glyph-name="racute" unicode="&#x155;" horiz-adv-x="407" 
d="M60 0l62 447l39 -56l-101 49l33 70l101 -49q9 -4 15 2l12 12q39 20 67.5 28t64.5 7q20 -1 36 -4.5t31 -9.5l-30 -73q-10 4 -20.5 6t-23.5 2q-23 0 -44 -3.5t-49.5 -16.5t-73.5 -40l21 53l-60 -424h-80zM199 600l121 150h87l-121 -150h-87z" />
    <glyph glyph-name="uni0156" unicode="&#x156;" horiz-adv-x="563" 
d="M55 0l98 700h238q55 0 93 -23.5t58 -63.5t20 -89q0 -73 -40.5 -128.5t-114.5 -76.5q-19 -5 -13 -20l31 -72l49 -227h-88l-69 311h-139l-43 -311h-80zM189 384h148q69 0 108.5 32t39.5 108q0 55 -31 80.5t-79 25.5h-152zM141 -323l-48 42q40 24 65.5 52t39.5 64.5t21 84.5
l68 -4q-8 -58 -24 -101t-45 -75.5t-77 -62.5z" />
    <glyph glyph-name="uni0157" unicode="&#x157;" horiz-adv-x="407" 
d="M60 0l62 447l39 -56l-101 49l33 70l101 -49q9 -4 15 2l12 12q39 20 67.5 28t64.5 7q20 -1 36 -4.5t31 -9.5l-30 -73q-10 4 -20.5 6t-23.5 2q-23 0 -44 -3.5t-49.5 -16.5t-73.5 -40l21 53l-60 -424h-80zM-10 -323l-48 42q40 24 65.5 52t39.5 64.5t21 84.5l68 -4
q-8 -58 -24 -101t-45 -75.5t-77 -62.5z" />
    <glyph glyph-name="Rcaron" unicode="&#x158;" horiz-adv-x="563" 
d="M55 0l98 700h238q55 0 93 -23.5t58 -63.5t20 -89q0 -73 -40.5 -128.5t-114.5 -76.5q-19 -5 -13 -20l31 -72l49 -227h-88l-69 311h-139l-43 -311h-80zM189 384h148q69 0 108.5 32t39.5 108q0 55 -31 80.5t-79 25.5h-152zM318 770l-74 150h73l31 -67l3 -31q1 -6 4.5 -6
t7.5 6l69 98h77l-116 -150h-75z" />
    <glyph glyph-name="rcaron" unicode="&#x159;" horiz-adv-x="407" 
d="M60 0l62 447l39 -56l-101 49l33 70l101 -49q9 -4 15 2l12 12q39 20 67.5 28t64.5 7q20 -1 36 -4.5t31 -9.5l-30 -73q-10 4 -20.5 6t-23.5 2q-23 0 -44 -3.5t-49.5 -16.5t-73.5 -40l21 53l-60 -424h-80zM216 600l-74 150h73l31 -67l3 -31q1 -6 4.5 -6t7.5 6l69 98h77
l-116 -150h-75z" />
    <glyph glyph-name="Sacute" unicode="&#x15a;" horiz-adv-x="483" 
d="M191 -10q-58 0 -112 21t-82 47l30 70q31 -30 75.5 -45.5t86.5 -15.5q49 0 85.5 22t56.5 57t20 72t-22 64.5t-63 41.5l-40 14q-37 13 -68.5 35.5t-50.5 56.5t-19 80q0 48 26 94t79 76t135 30q38 0 82 -12.5t84 -37.5l-25 -70q-37 26 -75.5 35.5t-66.5 9.5q-55 0 -90 -19
t-51.5 -47.5t-16.5 -58.5q0 -34 21 -58.5t58 -37.5l35 -12q74 -25 111.5 -71t37.5 -119q0 -57 -31 -107.5t-85 -82.5t-125 -32zM247 770l121 150h87l-121 -150h-87z" />
    <glyph glyph-name="sacute" unicode="&#x15b;" horiz-adv-x="452" 
d="M211 -12q-59 0 -108 17t-75 39l26 70q27 -25 68 -39.5t87 -14.5q47 0 75.5 21.5t28.5 57.5q0 32 -15.5 50t-48.5 30l-49 18q-58 21 -89.5 51t-31.5 79q0 43 22 75.5t61.5 51t89.5 18.5q45 0 87 -11.5t76 -32.5l-25 -64q-29 17 -64 26t-75 9q-43 0 -69.5 -18t-26.5 -49
q0 -25 14.5 -39.5t45.5 -25.5l49 -18q59 -22 91.5 -55.5t32.5 -86.5q0 -46 -22.5 -82t-62.5 -56.5t-92 -20.5zM221 600l121 150h87l-121 -150h-87z" />
    <glyph glyph-name="Scedilla" unicode="&#x15e;" horiz-adv-x="483" 
d="M191 -10q-58 0 -112 21t-82 47l30 70q31 -30 75.5 -45.5t86.5 -15.5q49 0 85.5 22t56.5 57t20 72t-22 64.5t-63 41.5l-40 14q-37 13 -68.5 35.5t-50.5 56.5t-19 80q0 48 26 94t79 76t135 30q38 0 82 -12.5t84 -37.5l-25 -70q-37 26 -75.5 35.5t-66.5 9.5q-55 0 -90 -19
t-51.5 -47.5t-16.5 -58.5q0 -34 21 -58.5t58 -37.5l35 -12q74 -25 111.5 -71t37.5 -119q0 -57 -31 -107.5t-85 -82.5t-125 -32zM54 -250l22 62q59 0 95 15t40 40q3 19 -21.5 24t-79.5 5l46 126l58 -22l-23 -51q44 -5 68 -29t19 -60q-5 -35 -37.5 -60t-81.5 -37.5t-105 -12.5
z" />
    <glyph glyph-name="scedilla" unicode="&#x15f;" horiz-adv-x="452" 
d="M211 -12q-59 0 -108 17t-75 39l26 70q27 -25 68 -39.5t87 -14.5q47 0 75.5 21.5t28.5 57.5q0 32 -15.5 50t-48.5 30l-49 18q-58 21 -89.5 51t-31.5 79q0 43 22 75.5t61.5 51t89.5 18.5q45 0 87 -11.5t76 -32.5l-25 -64q-29 17 -64 26t-75 9q-43 0 -69.5 -18t-26.5 -49
q0 -25 14.5 -39.5t45.5 -25.5l49 -18q59 -22 91.5 -55.5t32.5 -86.5q0 -46 -22.5 -82t-62.5 -56.5t-92 -20.5zM52 -250l22 62q59 0 95 15t40 40q3 19 -21.5 24t-79.5 5l46 126l58 -22l-23 -51q44 -5 68 -29t19 -60q-5 -35 -37.5 -60t-81.5 -37.5t-105 -12.5z" />
    <glyph glyph-name="Scaron" unicode="&#x160;" horiz-adv-x="483" 
d="M191 -10q-58 0 -112 21t-82 47l30 70q31 -30 75.5 -45.5t86.5 -15.5q49 0 85.5 22t56.5 57t20 72t-22 64.5t-63 41.5l-40 14q-37 13 -68.5 35.5t-50.5 56.5t-19 80q0 48 26 94t79 76t135 30q38 0 82 -12.5t84 -37.5l-25 -70q-37 26 -75.5 35.5t-66.5 9.5q-55 0 -90 -19
t-51.5 -47.5t-16.5 -58.5q0 -34 21 -58.5t58 -37.5l35 -12q74 -25 111.5 -71t37.5 -119q0 -57 -31 -107.5t-85 -82.5t-125 -32zM264 770l-74 150h73l31 -67l3 -31q1 -6 4.5 -6t7.5 6l69 98h77l-116 -150h-75z" />
    <glyph glyph-name="scaron" unicode="&#x161;" horiz-adv-x="452" 
d="M211 -12q-59 0 -108 17t-75 39l26 70q27 -25 68 -39.5t87 -14.5q47 0 75.5 21.5t28.5 57.5q0 32 -15.5 50t-48.5 30l-49 18q-58 21 -89.5 51t-31.5 79q0 43 22 75.5t61.5 51t89.5 18.5q45 0 87 -11.5t76 -32.5l-25 -64q-29 17 -64 26t-75 9q-43 0 -69.5 -18t-26.5 -49
q0 -25 14.5 -39.5t45.5 -25.5l49 -18q59 -22 91.5 -55.5t32.5 -86.5q0 -46 -22.5 -82t-62.5 -56.5t-92 -20.5zM238 600l-74 150h73l31 -67l3 -31q1 -6 4.5 -6t7.5 6l69 98h77l-116 -150h-75z" />
    <glyph glyph-name="Tcaron" unicode="&#x164;" horiz-adv-x="488" 
d="M167 0l87 622h-172l11 78h428l-11 -78h-173l-87 -622h-83zM280 770l-74 150h73l31 -67l3 -31q1 -6 4.5 -6t7.5 6l69 98h77l-116 -150h-75z" />
    <glyph glyph-name="tcaron" unicode="&#x165;" horiz-adv-x="330" 
d="M168 0q-52 0 -80 30.5t-21 79.5l45 320h-87l10 70h74q9 0 15.5 6.5t16 31t26.5 77.5l5 15h48l-18 -130h123l-10 -70h-123l-45 -324q-2 -17 4.5 -26.5t22.5 -9.5h91l-10 -70h-87zM329 600h-67l106 150h77z" />
    <glyph glyph-name="Tbar" unicode="&#x166;" horiz-adv-x="488" 
d="M167 0l87 622h-172l11 78h428l-11 -78h-173l-87 -622h-83zM107 315l10 69h291l-10 -69h-291z" />
    <glyph glyph-name="tbar" unicode="&#x167;" horiz-adv-x="330" 
d="M168 0q-52 0 -80 30.5t-21 79.5l45 320h-87l10 70h74q9 0 15.5 6.5t16 31t26.5 77.5l5 15h48l-18 -130h123l-10 -70h-123l-45 -324q-2 -17 4.5 -26.5t22.5 -9.5h91l-10 -70h-87zM9 215l10 69h291l-10 -69h-291z" />
    <glyph glyph-name="Umacron" unicode="&#x16a;" horiz-adv-x="609" 
d="M277 -10q-68 0 -115.5 28.5t-69 83t-10.5 131.5l66 467h84l-67 -471q-12 -82 20 -122.5t94 -40.5q60 0 103 38.5t51 98.5l70 497h84l-71 -501q-9 -62 -42 -109.5t-83.5 -73.5t-113.5 -26zM255 780l8 60h250l-8 -60h-250z" />
    <glyph glyph-name="umacron" unicode="&#x16b;" horiz-adv-x="520" 
d="M188 -11q-73 0 -110 42t-27 114l47 355h80l-47 -361q-5 -40 15.5 -58t55.5 -18q11 0 25 4t40.5 17t73.5 40l49 376h80l-71 -500h-75l4 25q2 9 -3.5 12.5t-13.5 -1.5q-22 -12 -40 -22t-33 -18q-12 -3 -25 -5t-25 -2zM187 610l8 60h250l-8 -60h-250z" />
    <glyph glyph-name="Ubreve" unicode="&#x16c;" horiz-adv-x="609" 
d="M277 -10q-68 0 -115.5 28.5t-69 83t-10.5 131.5l66 467h84l-67 -471q-12 -82 20 -122.5t94 -40.5q60 0 103 38.5t51 98.5l70 497h84l-71 -501q-9 -62 -42 -109.5t-83.5 -73.5t-113.5 -26zM384 777q-55 0 -96 29t-46 87l61 13q7 -34 25.5 -52t54.5 -18q39 0 65.5 20
t42.5 54l58 -21q-22 -58 -68 -85t-97 -27z" />
    <glyph glyph-name="ubreve" unicode="&#x16d;" horiz-adv-x="520" 
d="M188 -11q-73 0 -110 42t-27 114l47 355h80l-47 -361q-5 -40 15.5 -58t55.5 -18q11 0 25 4t40.5 17t73.5 40l49 376h80l-71 -500h-75l4 25q2 9 -3.5 12.5t-13.5 -1.5q-22 -12 -40 -22t-33 -18q-12 -3 -25 -5t-25 -2zM316 607q-55 0 -96 29t-46 87l61 13q7 -34 25.5 -52
t54.5 -18q39 0 65.5 20t42.5 54l58 -21q-22 -58 -68 -85t-97 -27z" />
    <glyph glyph-name="Uring" unicode="&#x16e;" horiz-adv-x="609" 
d="M277 -10q-68 0 -115.5 28.5t-69 83t-10.5 131.5l66 467h84l-67 -471q-12 -82 20 -122.5t94 -40.5q60 0 103 38.5t51 98.5l70 497h84l-71 -501q-9 -62 -42 -109.5t-83.5 -73.5t-113.5 -26zM379 741q-36 0 -66.5 10t-47 34t-11.5 64q6 38 28.5 59t54 29.5t63.5 8.5
q34 0 64 -9.5t47.5 -33t11.5 -64.5q-5 -38 -27.5 -59.5t-53.5 -30t-63 -8.5zM376 792q35 0 61 11t30 46q5 30 -15.5 38t-52.5 8q-36 0 -60 -11t-29 -45q-4 -31 16 -39t50 -8z" />
    <glyph glyph-name="uring" unicode="&#x16f;" horiz-adv-x="520" 
d="M188 -11q-73 0 -110 42t-27 114l47 355h80l-47 -361q-5 -40 15.5 -58t55.5 -18q11 0 25 4t40.5 17t73.5 40l49 376h80l-71 -500h-75l4 25q2 9 -3.5 12.5t-13.5 -1.5q-22 -12 -40 -22t-33 -18q-12 -3 -25 -5t-25 -2zM311 571q-36 0 -66.5 10t-47 34t-11.5 64q6 38 28.5 59
t54 29.5t63.5 8.5q34 0 64 -9.5t47.5 -33t11.5 -64.5q-5 -38 -27.5 -59.5t-53.5 -30t-63 -8.5zM308 622q35 0 61 11t30 46q5 30 -15.5 38t-52.5 8q-36 0 -60 -11t-29 -45q-4 -31 16 -39t50 -8z" />
    <glyph glyph-name="Uhungarumlaut" unicode="&#x170;" horiz-adv-x="609" 
d="M277 -10q-68 0 -115.5 28.5t-69 83t-10.5 131.5l66 467h84l-67 -471q-12 -82 20 -122.5t94 -40.5q60 0 103 38.5t51 98.5l70 497h84l-71 -501q-9 -62 -42 -109.5t-83.5 -73.5t-113.5 -26zM263 770l121 150h87l-121 -150h-87zM436 770l121 150h87l-121 -150h-87z" />
    <glyph glyph-name="uhungarumlaut" unicode="&#x171;" horiz-adv-x="520" 
d="M188 -11q-73 0 -110 42t-27 114l47 355h80l-47 -361q-5 -40 15.5 -58t55.5 -18q11 0 25 4t40.5 17t73.5 40l49 376h80l-71 -500h-75l4 25q2 9 -3.5 12.5t-13.5 -1.5q-22 -12 -40 -22t-33 -18q-12 -3 -25 -5t-25 -2zM195 600l121 150h87l-121 -150h-87zM368 600l121 150
h87l-121 -150h-87z" />
    <glyph glyph-name="Uogonek" unicode="&#x172;" horiz-adv-x="609" 
d="M277 -10q-68 0 -115.5 28.5t-69 83t-10.5 131.5l66 467h84l-67 -471q-12 -82 20 -122.5t94 -40.5q60 0 103 38.5t51 98.5l70 497h84l-71 -501q-9 -62 -42 -109.5t-83.5 -73.5t-113.5 -26zM340 -247q-49 5 -83 23t-49 51.5t-8 82.5q5 34 24.5 63.5t54.5 48.5l67 -22
q-28 -15 -48.5 -39.5t-25.5 -56.5q-6 -45 17.5 -63t69.5 -26z" />
    <glyph glyph-name="uogonek" unicode="&#x173;" horiz-adv-x="520" 
d="M188 -11q-73 0 -110 42t-27 114l47 355h80l-47 -361q-5 -40 15.5 -58t55.5 -18q11 0 25 4t40.5 17t73.5 40l49 376h80l-71 -500h-75l4 25q2 9 -3.5 12.5t-13.5 -1.5q-22 -12 -40 -22t-33 -18q-12 -3 -25 -5t-25 -2zM393 -247q-49 5 -83 23t-49 51.5t-8 82.5
q5 34 24.5 63.5t54.5 48.5l67 -22q-28 -15 -48.5 -39.5t-25.5 -56.5q-6 -45 17.5 -63t69.5 -26z" />
    <glyph glyph-name="Wcircumflex" unicode="&#x174;" horiz-adv-x="615" 
d="M100 0l-12 700h73l9 -466l-5 -86q-1 -8 5.5 -9t8.5 6l135 355h57l35 -358q1 -7 6.5 -7t7.5 10l14 75l147 480h72l-207 -700h-85l-33 306q-1 11 -8.5 11.5t-11.5 -9.5l-123 -308h-85zM247 770l112 150h81l72 -150h-77l-26 67l-2 31q-1 8 -4.5 8.5t-8.5 -7.5l-66 -99h-81z
" />
    <glyph glyph-name="wcircumflex" unicode="&#x175;" horiz-adv-x="580" 
d="M84 3l-9 497h72l5 -280l-4 -72q-1 -9 4.5 -9.5t9.5 9.5l134 352h57l33 -352q1 -10 7 -9.5t8 9.5l16 72l87 280h71l-150 -497h-77l-36 328q-1 12 -7 12t-11 -12l-131 -328h-79zM205 600l112 150h81l72 -150h-77l-26 67l-2 31q-1 8 -4.5 8.5t-8.5 -7.5l-66 -99h-81z" />
    <glyph glyph-name="Ycircumflex" unicode="&#x176;" horiz-adv-x="482" 
d="M166 0l47 330l-149 370h92l77 -216l15 -77q1 -5 5.5 -5.5t8.5 5.5l188 293h96l-253 -370l-47 -330h-80zM180 770l112 150h81l72 -150h-77l-26 67l-2 31q-1 8 -4.5 8.5t-8.5 -7.5l-66 -99h-81z" />
    <glyph glyph-name="ycircumflex" unicode="&#x177;" horiz-adv-x="470" 
d="M37 -221l-22 66q53 21 82.5 49t53.5 77l20 41l-115 488h82l64 -269l8 -98q1 -8 6 -8t9 8l165 367h85l-255 -550q-30 -65 -74 -107t-109 -64zM150 600l112 150h81l72 -150h-77l-26 67l-2 31q-1 8 -4.5 8.5t-8.5 -7.5l-66 -99h-81z" />
    <glyph glyph-name="Ydieresis" unicode="&#x178;" horiz-adv-x="482" 
d="M166 0l47 330l-149 370h92l77 -216l15 -77q1 -5 5.5 -5.5t8.5 5.5l188 293h96l-253 -370l-47 -330h-80zM359 770l14 100h81l-14 -100h-81zM188 770l14 100h81l-14 -100h-81z" />
    <glyph glyph-name="Zacute" unicode="&#x179;" horiz-adv-x="507" 
d="M11 0l6 48l344 510l51 60q3 3 2 7.5t-6 4.5h-226l-11 -83h-73l21 153h405l-6 -48l-331 -492l-56 -69q-4 -4 -3 -8.5t5 -4.5h305l-11 -78h-416zM273 770l121 150h87l-121 -150h-87z" />
    <glyph glyph-name="zacute" unicode="&#x17a;" horiz-adv-x="437" 
d="M-4 0l6 48l257 333l40 38q5 5 3.5 8t-6.5 3h-240l10 70h345l-6 -48l-257 -333l-40 -38q-4 -4 -2 -7.5t6 -3.5h239l-10 -70h-345zM199 600l121 150h87l-121 -150h-87z" />
    <glyph glyph-name="Zdotaccent" unicode="&#x17b;" horiz-adv-x="507" 
d="M11 0l6 48l344 510l51 60q3 3 2 7.5t-6 4.5h-226l-11 -83h-73l21 153h405l-6 -48l-331 -492l-56 -69q-4 -4 -3 -8.5t5 -4.5h305l-11 -78h-416zM287 770l14 100h80l-14 -100h-80z" />
    <glyph glyph-name="zdotaccent" unicode="&#x17c;" horiz-adv-x="437" 
d="M-4 0l6 48l257 333l40 38q5 5 3.5 8t-6.5 3h-240l10 70h345l-6 -48l-257 -333l-40 -38q-4 -4 -2 -7.5t6 -3.5h239l-10 -70h-345zM213 600l14 100h80l-14 -100h-80z" />
    <glyph glyph-name="Zcaron" unicode="&#x17d;" horiz-adv-x="507" 
d="M11 0l6 48l344 510l51 60q3 3 2 7.5t-6 4.5h-226l-11 -83h-73l21 153h405l-6 -48l-331 -492l-56 -69q-4 -4 -3 -8.5t5 -4.5h305l-11 -78h-416zM290 770l-74 150h73l31 -67l3 -31q1 -6 4.5 -6t7.5 6l69 98h77l-116 -150h-75z" />
    <glyph glyph-name="zcaron" unicode="&#x17e;" horiz-adv-x="437" 
d="M-4 0l6 48l257 333l40 38q5 5 3.5 8t-6.5 3h-240l10 70h345l-6 -48l-257 -333l-40 -38q-4 -4 -2 -7.5t6 -3.5h239l-10 -70h-345zM216 600l-74 150h73l31 -67l3 -31q1 -6 4.5 -6t7.5 6l69 98h77l-116 -150h-75z" />
    <glyph glyph-name="uni01B7" unicode="&#x1b7;" horiz-adv-x="488" 
d="M185 -6q-63 0 -111 19t-89 55l36 66q29 -28 73 -45.5t92 -17.5q84 0 130.5 42.5t46.5 115.5q-1 48 -41 76.5t-131 28.5h-65l5 46l190 205l51 32q5 4 3.5 8.5t-6.5 4.5h-281l10 70h389l-6 -48l-248 -267l-47 22q83 0 140.5 -19t88 -58t29.5 -99q0 -55 -19 -99t-53.5 -75
t-82 -47t-104.5 -16z" />
    <glyph glyph-name="uni01CD" unicode="&#x1cd;" 
d="M-15 0l296 700h120l110 -700h-84l-78 534l-2 89q0 6 -5.5 7t-7.5 -5l-263 -625h-86zM119 187l33 74h266l11 -74h-310zM157 627l10 73h141l-7 -73h-144zM319 770l-74 150h73l31 -67l3 -31q1 -6 4.5 -6t7.5 6l69 98h77l-116 -150h-75z" />
    <glyph glyph-name="uni01CE" unicode="&#x1ce;" horiz-adv-x="542" 
d="M201 -10q-24 0 -50.5 7t-50 25t-38 51t-14.5 85q0 58 11.5 113t35.5 104q30 61 85.5 98t125.5 37q15 0 27.5 -0.5t25.5 -2.5l38 -9q7 -1 16 0l57 6l-58 -416l58 -28l-33 -70l-106 53q-9 5 -14 -2l-14 -15q-27 -15 -44 -23t-30 -10.5t-28 -2.5zM212 63q14 0 27 3.5t35 16
t63 37.5l43 310q-40 10 -68 10q-57 0 -96.5 -29t-58.5 -73q-16 -37 -24.5 -81t-8.5 -104q0 -52 27 -71t61 -19zM302 600l-74 150h73l31 -67l3 -31q1 -6 4.5 -6t7.5 6l69 98h77l-116 -150h-75z" />
    <glyph glyph-name="uni01E4" unicode="&#x1e4;" horiz-adv-x="600" 
d="M280 -12q-68 0 -118 26.5t-76.5 73.5t-26.5 106q0 40 6.5 95t17 111.5t20.5 99.5q21 86 60 132t93.5 63t120.5 17q54 0 97.5 -17t72.5 -46l-33 -68q-30 29 -61.5 41t-77.5 12q-47 0 -87 -12t-69 -47t-43 -104q-8 -43 -17.5 -93.5t-15 -98.5t-4.5 -85q2 -58 38 -93
t106 -35q29 0 58.5 5t44.5 14l44 304h83l-47 -348q-41 -26 -84 -39.5t-102 -13.5zM321 196l11 78h238l-11 -78h-238z" />
    <glyph glyph-name="uni01E5" unicode="&#x1e5;" horiz-adv-x="524" 
d="M151 -204q-45 0 -87 17t-65 39l26 70q23 -25 59 -40.5t82 -15.5q50 0 82.5 24t52 65.5t28.5 91.5l6 33q2 10 -3.5 13t-13.5 -2l-68 -37q-10 -3 -21.5 -4.5t-22.5 -1.5q-24 0 -50 6.5t-48.5 24t-36.5 51t-14 86.5q0 28 3 51.5t11 49.5t24 58q30 61 85.5 98t125.5 37
q31 0 53 -3l38 -9q7 -1 16 0l57 6l-68 -454q-10 -67 -38.5 -125t-80 -93.5t-132.5 -35.5zM168 -69v69h331v-69h-331zM211 121q17 0 47 12t91 47l32 250q-19 5 -34 7.5t-35 2.5q-54 0 -93.5 -27t-61.5 -75q-16 -37 -20 -67.5t-4 -59.5q0 -38 12.5 -57.5t30.5 -26t35 -6.5z
" />
    <glyph glyph-name="Gcaron" unicode="&#x1e6;" horiz-adv-x="600" 
d="M280 -12q-68 0 -118 26.5t-76.5 73.5t-26.5 106q0 40 6.5 95t17 111.5t20.5 99.5q21 86 60 132t93.5 63t120.5 17q54 0 97.5 -17t72.5 -46l-33 -68q-30 29 -61.5 41t-77.5 12q-47 0 -87 -12t-69 -47t-43 -104q-8 -43 -17.5 -93.5t-15 -98.5t-4.5 -85q2 -58 38 -93
t106 -35q29 0 58.5 5t44.5 14l33 226h-81l11 78h238l-11 -78h-74l-36 -270q-41 -26 -84 -39.5t-102 -13.5zM358 770l-74 150h73l31 -67l3 -31q1 -6 4.5 -6t7.5 6l69 98h77l-116 -150h-75z" />
    <glyph glyph-name="gcaron" unicode="&#x1e7;" horiz-adv-x="514" 
d="M151 -204q-45 0 -87 17t-65 39l26 70q23 -25 59 -40.5t82 -15.5q59 0 101 32.5t53 90.5l6 33q2 10 -3.5 13t-13.5 -2l-68 -37q-10 -3 -21.5 -4.5t-22.5 -1.5q-24 0 -50 6.5t-48.5 24t-36.5 51t-14 86.5q0 39 5 76t15.5 73t26.5 68q30 61 85.5 98t125.5 37q31 0 53 -3
l38 -9q7 -1 16 0l57 6l-74 -487q-9 -60 -31.5 -102t-55 -68t-72.5 -38.5t-86 -12.5zM202 63q17 0 47 12t91 47l41 308q-19 5 -34 7.5t-35 2.5q-54 0 -93.5 -27t-61.5 -75q-16 -37 -24.5 -81t-8.5 -104q0 -38 12.5 -57.5t30.5 -26t35 -6.5zM272 600l-74 150h73l31 -67l3 -31
q1 -6 4.5 -6t7.5 6l69 98h77l-116 -150h-75z" />
    <glyph glyph-name="uni01E8" unicode="&#x1e8;" horiz-adv-x="538" 
d="M55 0l98 700h82l-44 -312h72l214 312h93l-237 -345l139 -355h-88l-121 313h-82l-44 -313h-82zM305 770l-74 150h73l31 -67l3 -31q1 -6 4.5 -6t7.5 6l69 98h77l-116 -150h-75z" />
    <glyph glyph-name="uni01E9" unicode="&#x1e9;" horiz-adv-x="487" 
d="M50 0l105 750h82l-62 -441h54l134 191h96l-149 -215l101 -285h-88l-82 239h-76l-33 -239h-82zM294 770l-74 150h73l31 -67l3 -31q1 -6 4.5 -6t7.5 6l69 98h77l-116 -150h-75z" />
    <glyph glyph-name="uni01EE" unicode="&#x1ee;" horiz-adv-x="488" 
d="M185 -6q-63 0 -111 19t-89 55l36 66q29 -28 73 -45.5t92 -17.5q84 0 130.5 42.5t46.5 115.5q-1 48 -41 76.5t-131 28.5h-65l5 46l190 205l51 32q5 4 3.5 8.5t-6.5 4.5h-281l10 70h389l-6 -48l-248 -267l-47 22q83 0 140.5 -19t88 -58t29.5 -99q0 -55 -19 -99t-53.5 -75
t-82 -47t-104.5 -16zM299 770l-74 150h73l31 -67l3 -31q1 -6 4.5 -6t7.5 6l69 98h77l-116 -150h-75z" />
    <glyph glyph-name="uni01EF" unicode="&#x1ef;" horiz-adv-x="478" 
d="M120 -256q-60 0 -106 19t-84 55l36 66q27 -28 68.5 -45.5t86.5 -17.5q59 0 101 25t65 67.5t23 96.5q2 60 -37.5 92t-129.5 32h-61l5 46l177 191l52 42q5 4 4.5 10.5t-8.5 6.5h-272l10 70h389l-6 -48l-248 -267l-47 22q56 4 102 -6.5t80.5 -34.5t53 -60.5t18.5 -86.5
q0 -84 -34.5 -145.5t-96 -95.5t-141.5 -34zM231 600l-74 150h73l31 -67l3 -31q1 -6 4.5 -6t7.5 6l69 98h77l-116 -150h-75z" />
    <glyph glyph-name="uni0218" unicode="&#x218;" horiz-adv-x="483" 
d="M191 -10q-58 0 -112 21t-82 47l30 70q31 -30 75.5 -45.5t86.5 -15.5q49 0 85.5 22t56.5 57t20 72t-22 64.5t-63 41.5l-40 14q-37 13 -68.5 35.5t-50.5 56.5t-19 80q0 48 26 94t79 76t135 30q38 0 82 -12.5t84 -37.5l-25 -70q-37 26 -75.5 35.5t-66.5 9.5q-55 0 -90 -19
t-51.5 -47.5t-16.5 -58.5q0 -34 21 -58.5t58 -37.5l35 -12q74 -25 111.5 -71t37.5 -119q0 -57 -31 -107.5t-85 -82.5t-125 -32zM87 -323l-48 42q40 24 65.5 52t39.5 64.5t21 84.5l68 -4q-8 -58 -24 -101t-45 -75.5t-77 -62.5z" />
    <glyph glyph-name="uni0219" unicode="&#x219;" horiz-adv-x="452" 
d="M211 -12q-59 0 -108 17t-75 39l26 70q27 -25 68 -39.5t87 -14.5q47 0 75.5 21.5t28.5 57.5q0 32 -15.5 50t-48.5 30l-49 18q-58 21 -89.5 51t-31.5 79q0 43 22 75.5t61.5 51t89.5 18.5q45 0 87 -11.5t76 -32.5l-25 -64q-29 17 -64 26t-75 9q-43 0 -69.5 -18t-26.5 -49
q0 -25 14.5 -39.5t45.5 -25.5l49 -18q59 -22 91.5 -55.5t32.5 -86.5q0 -46 -22.5 -82t-62.5 -56.5t-92 -20.5zM85 -323l-48 42q40 24 65.5 52t39.5 64.5t21 84.5l68 -4q-8 -58 -24 -101t-45 -75.5t-77 -62.5z" />
    <glyph glyph-name="uni021A" unicode="&#x21a;" horiz-adv-x="488" 
d="M167 0l87 622h-172l11 78h428l-11 -78h-173l-87 -622h-83zM103 -323l-48 42q40 24 65.5 52t39.5 64.5t21 84.5l68 -4q-8 -58 -24 -101t-45 -75.5t-77 -62.5z" />
    <glyph glyph-name="uni021B" unicode="&#x21b;" horiz-adv-x="330" 
d="M168 0q-52 0 -80 30.5t-21 79.5l45 320h-87l10 70h74q9 0 15.5 6.5t16 31t26.5 77.5l5 15h48l-18 -130h123l-10 -70h-123l-45 -324q-2 -17 4.5 -26.5t22.5 -9.5h91l-10 -70h-87zM-16 -323l-48 42q40 24 65.5 52t39.5 64.5t21 84.5l68 -4q-8 -58 -24 -101t-45 -75.5
t-77 -62.5z" />
    <glyph glyph-name="uni0237" unicode="&#x237;" horiz-adv-x="286" 
d="M-24 -223l-23 70q49 13 86 52t47 108l59 423h-70l10 70h151l-71 -497q-9 -63 -34.5 -107.5t-64.5 -73t-90 -45.5z" />
    <glyph glyph-name="uni0292" unicode="&#x292;" horiz-adv-x="478" 
d="M120 -256q-60 0 -106 19t-84 55l36 66q27 -28 68.5 -45.5t86.5 -17.5q59 0 101 25t65 67.5t23 96.5q2 60 -37.5 92t-129.5 32h-61l5 46l177 191l52 42q5 4 4.5 10.5t-8.5 6.5h-272l10 70h389l-6 -48l-248 -267l-47 22q56 4 102 -6.5t80.5 -34.5t53 -60.5t18.5 -86.5
q0 -84 -34.5 -145.5t-96 -95.5t-141.5 -34z" />
    <glyph glyph-name="uni02B9" unicode="&#x2b9;" horiz-adv-x="135" 
d="M41 400l111 350h94l-163 -350h-42z" />
    <glyph glyph-name="uni02BC" unicode="&#x2bc;" horiz-adv-x="283" 
d="M80 462l12 55q42 15 71 50t38 85l-57 -2l14 100h105l-9 -68q-9 -65 -33 -109t-59.5 -70.5t-81.5 -40.5z" />
    <glyph glyph-name="circumflex" unicode="&#x2c6;" horiz-adv-x="365" 
d="M88 600l112 150h81l72 -150h-77l-26 67l-2 31q-1 8 -4.5 8.5t-8.5 -7.5l-66 -99h-81z" />
    <glyph glyph-name="caron" unicode="&#x2c7;" horiz-adv-x="365" 
d="M195 600l-74 150h73l31 -67l3 -31q1 -6 4.5 -6t7.5 6l69 98h77l-116 -150h-75z" />
    <glyph glyph-name="uni02C8" unicode="&#x2c8;" horiz-adv-x="134" 
d="M61 400l49 350h74l-49 -350h-74z" />
    <glyph glyph-name="breve" unicode="&#x2d8;" horiz-adv-x="428" 
d="M269 607q-55 0 -96 29t-46 87l61 13q7 -34 25.5 -52t54.5 -18q39 0 65.5 20t42.5 54l58 -21q-22 -58 -68 -85t-97 -27z" />
    <glyph glyph-name="dotaccent" unicode="&#x2d9;" horiz-adv-x="180" 
d="M99 600l14 100h80l-14 -100h-80z" />
    <glyph glyph-name="ring" unicode="&#x2da;" horiz-adv-x="442" 
d="M235 571q-36 0 -66.5 10t-47 34t-11.5 64q6 38 28.5 59t54 29.5t63.5 8.5q34 0 64 -9.5t47.5 -33t11.5 -64.5q-5 -38 -27.5 -59.5t-53.5 -30t-63 -8.5zM232 622q35 0 61 11t30 46q5 30 -15.5 38t-52.5 8q-36 0 -60 -11t-29 -45q-4 -31 16 -39t50 -8z" />
    <glyph glyph-name="ogonek" unicode="&#x2db;" horiz-adv-x="318" 
d="M132 -248q-49 5 -83 23t-49 51.5t-8 82.5q5 34 24.5 63.5t54.5 48.5l67 -22q-28 -15 -48.5 -39.5t-25.5 -56.5q-6 -45 17.5 -63t69.5 -26z" />
    <glyph glyph-name="tilde" unicode="&#x2dc;" horiz-adv-x="401" 
d="M118 590l-13 58q21 26 43.5 36.5t46.5 10.5q34 0 53 -9.5t34.5 -19.5t36.5 -10t38.5 11t36.5 33l13 -58q-21 -26 -43.5 -36.5t-46.5 -10.5q-33 0 -52.5 10t-35 19.5t-36.5 9.5t-38 -11t-37 -33z" />
    <glyph glyph-name="hungarumlaut" unicode="&#x2dd;" horiz-adv-x="600" 
d="M98 600l121 150h87l-121 -150h-87zM271 600l121 150h87l-121 -150h-87z" />
    <glyph glyph-name="gravecomb" unicode="&#x300;" horiz-adv-x="0" 
d="M200 600l-79 150h83l79 -150h-83z" />
    <glyph glyph-name="acutecomb" unicode="&#x301;" horiz-adv-x="0" 
d="M98 600l121 150h87l-121 -150h-87z" />
    <glyph glyph-name="uni0302" unicode="&#x302;" horiz-adv-x="0" 
d="M98 600l112 150h81l72 -150h-77l-26 67l-2 31q-1 8 -4.5 8.5t-8.5 -7.5l-66 -99h-81z" />
    <glyph glyph-name="tildecomb" unicode="&#x303;" horiz-adv-x="0" 
d="M118 590l-13 58q21 26 43.5 36.5t46.5 10.5q34 0 53 -9.5t34.5 -19.5t36.5 -10t38.5 11t36.5 33l13 -58q-21 -26 -43.5 -36.5t-46.5 -10.5q-33 0 -52.5 10t-35 19.5t-36.5 9.5t-38 -11t-37 -33z" />
    <glyph glyph-name="uni0304" unicode="&#x304;" horiz-adv-x="0" 
d="M101 610l8 60h250l-8 -60h-250z" />
    <glyph glyph-name="uni0306" unicode="&#x306;" horiz-adv-x="0" 
d="M269 607q-55 0 -96 29t-46 87l61 13q7 -34 25.5 -52t54.5 -18q39 0 65.5 20t42.5 54l58 -21q-22 -58 -68 -85t-97 -27z" />
    <glyph glyph-name="uni0307" unicode="&#x307;" horiz-adv-x="0" 
d="M99 600l14 100h80l-14 -100h-80z" />
    <glyph glyph-name="uni0308" unicode="&#x308;" horiz-adv-x="0" 
d="M270 600l14 100h81l-14 -100h-81zM99 600l14 100h81l-14 -100h-81z" />
    <glyph glyph-name="uni030A" unicode="&#x30a;" horiz-adv-x="0" 
d="M235 571q-36 0 -66.5 10t-47 34t-11.5 64q6 38 28.5 59t54 29.5t63.5 8.5q34 0 64 -9.5t47.5 -33t11.5 -64.5q-5 -38 -27.5 -59.5t-53.5 -30t-63 -8.5zM232 622q35 0 61 11t30 46q5 30 -15.5 38t-52.5 8q-36 0 -60 -11t-29 -45q-4 -31 16 -39t50 -8z" />
    <glyph glyph-name="uni030B" unicode="&#x30b;" horiz-adv-x="0" 
d="M98 600l121 150h87l-121 -150h-87zM271 600l121 150h87l-121 -150h-87z" />
    <glyph glyph-name="uni030C" unicode="&#x30c;" horiz-adv-x="0" 
d="M195 600l-74 150h73l31 -67l3 -31q1 -6 4.5 -6t7.5 6l69 98h77l-116 -150h-75z" />
    <glyph glyph-name="uni0312" unicode="&#x312;" horiz-adv-x="0" 
d="M256 876l-11 -44q-61 -10 -100.5 -50t-50.5 -99l57 2l-14 -100h-105l12 88q8 57 36 99.5t73 69.5t103 34z" />
    <glyph glyph-name="uni0326" unicode="&#x326;" horiz-adv-x="0" 
d="M22 -323l-48 42q40 24 65.5 52t39.5 64.5t21 84.5l68 -4q-8 -58 -24 -101t-45 -75.5t-77 -62.5z" />
    <glyph glyph-name="uni0327" unicode="&#x327;" horiz-adv-x="0" 
d="M-19 -250l22 62q59 0 95 15t40 40q3 19 -21.5 24t-79.5 5l46 126l58 -22l-23 -51q44 -5 68 -29t19 -60q-5 -35 -37.5 -60t-81.5 -37.5t-105 -12.5z" />
    <glyph glyph-name="uni0328" unicode="&#x328;" horiz-adv-x="0" 
d="M132 -248q-49 5 -83 23t-49 51.5t-8 82.5q5 34 24.5 63.5t54.5 48.5l67 -22q-28 -15 -48.5 -39.5t-25.5 -56.5q-6 -45 17.5 -63t69.5 -26z" />
    <glyph glyph-name="uni0335" unicode="&#x335;" horiz-adv-x="0" 
d="M46 225l10 69h291l-10 -69h-291z" />
    <glyph glyph-name="uni0336" unicode="&#x336;" horiz-adv-x="0" 
d="M46 225l10 69h651l-10 -69h-651z" />
    <glyph glyph-name="uni0337" unicode="&#x337;" horiz-adv-x="0" 
d="M-2 0l459 500h82l-459 -500h-82z" />
    <glyph glyph-name="uni0338" unicode="&#x338;" horiz-adv-x="0" 
d="M-2 0l643 700h82l-643 -700h-82z" />
    <glyph glyph-name="uni03BC" unicode="&#x3bc;" horiz-adv-x="542" 
d="M27 -200l93 700h80l-47 -361q-5 -40 15.5 -58t55.5 -18q11 0 25 4t40.5 17t73.5 40l49 376h80l-71 -500h-75l4 25q2 9 -3.5 12.5t-13.5 -1.5q-22 -12 -40 -22t-33 -18q-12 -3 -25 -5t-25 -2q-23 0 -43 4.5t-36 13.5l-29 -207h-75z" />
    <glyph glyph-name="uni0400" unicode="&#x400;" horiz-adv-x="553" 
d="M55 0l98 700h403l-11 -78h-325l-32 -233h308l-11 -78h-308l-33 -233h325l-11 -78h-403zM338 770l-79 150h83l79 -150h-83z" />
    <glyph glyph-name="uni0401" unicode="&#x401;" horiz-adv-x="553" 
d="M55 0l98 700h403l-11 -78h-325l-32 -233h308l-11 -78h-308l-33 -233h325l-11 -78h-403zM415 770l14 100h81l-14 -100h-81zM244 770l14 100h81l-14 -100h-81z" />
    <glyph glyph-name="uni0402" unicode="&#x402;" horiz-adv-x="662" 
d="M394 -7q-22 0 -37 2.5t-24 6.5l25 64q7 -2 15.5 -3t14.5 -1q51 0 86 25.5t53 64.5t18 78q0 62 -35.5 91t-90.5 29q-34 0 -67.5 -9.5t-58.5 -23.5l14 91q-1 -11 4 -13.5t12 0.5l54 22q13 4 32 6t32 2q53 0 95 -23.5t66.5 -66.5t24.5 -103q0 -65 -28 -119.5t-80 -87
t-125 -32.5zM167 0l87 622h-172l11 78h428l-11 -78h-173l-87 -622h-83z" />
    <glyph glyph-name="uni0403" unicode="&#x403;" horiz-adv-x="432" 
d="M55 0l98 700h332l-11 -78h-249l-87 -622h-83zM249 800l121 150h87l-121 -150h-87z" />
    <glyph glyph-name="uni0404" unicode="&#x404;" horiz-adv-x="503" 
d="M278 -12q-54 0 -94 18.5t-67 50.5t-40 72.5t-13 84.5q0 47 6.5 103.5t18 113t27.5 103.5q23 79 81.5 128.5t158.5 49.5q54 0 94 -18.5t67 -49.5l-34 -69q-20 28 -54 44.5t-81 16.5q-51 0 -93.5 -26.5t-64.5 -96.5q-10 -31 -19 -69t-15 -78t-9.5 -79t-3.5 -72
q0 -72 37.5 -111.5t105.5 -39.5q38 0 73.5 16t59.5 37l20 -78q-29 -24 -69.5 -37.5t-91.5 -13.5zM127 311l11 78h278l-11 -78h-278z" />
    <glyph glyph-name="uni0405" unicode="&#x405;" horiz-adv-x="483" 
d="M191 -10q-58 0 -112 21t-82 47l30 70q31 -30 75.5 -45.5t86.5 -15.5q49 0 85.5 22t56.5 57t20 72t-22 64.5t-63 41.5l-40 14q-37 13 -68.5 35.5t-50.5 56.5t-19 80q0 48 26 94t79 76t135 30q38 0 82 -12.5t84 -37.5l-25 -70q-37 26 -75.5 35.5t-66.5 9.5q-55 0 -90 -19
t-51.5 -47.5t-16.5 -58.5q0 -34 21 -58.5t58 -37.5l35 -12q74 -25 111.5 -71t37.5 -119q0 -57 -31 -107.5t-85 -82.5t-125 -32z" />
    <glyph glyph-name="uni0406" unicode="&#x406;" horiz-adv-x="423" 
d="M15 0l11 76h120l77 548h-120l10 76h323l-10 -76h-120l-77 -548h120l-11 -76h-323z" />
    <glyph glyph-name="uni0407" unicode="&#x407;" horiz-adv-x="423" 
d="M15 0l11 76h120l77 548h-120l10 76h323l-10 -76h-120l-77 -548h120l-11 -76h-323zM330 770l14 100h81l-14 -100h-81zM159 770l14 100h81l-14 -100h-81z" />
    <glyph glyph-name="uni0408" unicode="&#x408;" horiz-adv-x="447" 
d="M138 -12q-39 0 -83.5 16.5t-72.5 47.5l25 69q26 -31 63.5 -43t68.5 -12q50 0 84 28t43 92l61 436h-160l11 78h242l-74 -528q-13 -93 -69 -138.5t-139 -45.5z" />
    <glyph glyph-name="uni0409" unicode="&#x409;" horiz-adv-x="886" 
d="M14 -16l-31 73q52 12 86 49.5t50 103.5q22 87 43.5 207t43.5 283h345l-49 -79h-229q-19 -136 -38 -247.5t-40 -194.5q-20 -79 -67 -128.5t-114 -66.5zM395 0l98 700h83l-41 -294h96q113 0 165 -51.5t52 -141.5q0 -70 -28.5 -117.5t-78 -71.5t-113.5 -24h-233zM488 70h143
q64 0 102 40t38 98q0 64 -34 96t-106 32h-106z" />
    <glyph glyph-name="uni040A" unicode="&#x40a;" horiz-adv-x="903" 
d="M55 0l98 700h83l-41 -295h304l-11 -78h-304l-46 -327h-83zM412 0l98 700h83l-41 -294h96q113 0 165 -51.5t52 -141.5q0 -70 -28.5 -117.5t-78 -71.5t-113.5 -24h-233zM505 70h143q64 0 102 40t38 98q0 64 -34 96t-106 32h-106z" />
    <glyph glyph-name="uni040B" unicode="&#x40b;" horiz-adv-x="700" 
d="M512 0l32 230q9 64 -19.5 92t-81.5 28q-45 0 -84.5 -9t-66.5 -21l15 89q-1 -10 5 -13.5t14 0.5l51 21q17 5 39 6.5t38 1.5q48 0 91 -20t67 -65t14 -120l-31 -220h-83zM167 0l87 622h-172l11 78h428l-11 -78h-173l-87 -622h-83z" />
    <glyph glyph-name="uni040C" unicode="&#x40c;" horiz-adv-x="538" 
d="M55 0l98 700h82l-44 -312h72l214 312h93l-237 -345l139 -355h-88l-121 313h-82l-44 -313h-82zM288 770l121 150h87l-121 -150h-87z" />
    <glyph glyph-name="uni040D" unicode="&#x40d;" horiz-adv-x="639" 
d="M55 0l98 700h83l-65 -466l-21 -69q-1 -7 3 -7.5t8 6.5l364 536h87l-98 -700h-83l65 466l19 67q3 8 -3.5 10.5t-12.5 -6.5l-358 -537h-86zM353 770l-79 150h83l79 -150h-83z" />
    <glyph glyph-name="uni040E" unicode="&#x40e;" horiz-adv-x="507" 
d="M25 -12q-27 0 -48 7t-35 17l28 67q14 -9 27.5 -13t30.5 -4q38 0 66 22.5t50 55.5l-51 560h81l30 -402l-8 -64q-1 -10 5.5 -11.5t10.5 5.5l275 472h88l-306 -510q-48 -81 -89.5 -124.5t-79 -60.5t-75.5 -17zM350 777q-55 0 -96 29t-46 87l61 13q7 -34 25.5 -52t54.5 -18
q39 0 65.5 20t42.5 54l58 -21q-22 -58 -68 -85t-97 -27z" />
    <glyph glyph-name="uni040F" unicode="&#x40f;" horiz-adv-x="620" 
d="M215 -140l20 140h-180l98 700h83l-87 -624h274l87 624h83l-98 -700h-187l-20 -140h-73z" />
    <glyph glyph-name="uni0410" unicode="&#x410;" 
d="M-15 0l296 700h120l110 -700h-84l-78 534l-2 89q0 6 -5.5 7t-7.5 -5l-263 -625h-86zM119 187l33 74h266l11 -74h-310zM157 627l10 73h141l-7 -73h-144z" />
    <glyph glyph-name="uni0411" unicode="&#x411;" horiz-adv-x="563" 
d="M55 0l98 700h372l-11 -78h-294l-30 -216h98q113 0 165 -51.5t52 -141.5q0 -70 -28.5 -117.5t-78 -71.5t-113.5 -24h-230zM143 70h145q64 0 102 40t38 98q0 64 -34 96t-106 32h-108z" />
    <glyph glyph-name="uni0412" unicode="&#x412;" horiz-adv-x="563" 
d="M55 0l98 700h193q89 0 138 -46.5t49 -126.5q0 -68 -31 -114t-84 -67q33 -13 59.5 -51.5t26.5 -89.5q0 -64 -25 -110t-73 -70.5t-116 -24.5h-235zM143 70h138q144 0 144 134q0 59 -33 85.5t-87 26.5h-128zM187 386h156q56 0 84 39t28 95q0 50 -27 80t-80 30h-127z" />
    <glyph glyph-name="uni0413" unicode="&#x413;" horiz-adv-x="432" 
d="M55 0l98 700h332l-11 -78h-249l-87 -622h-83z" />
    <glyph glyph-name="uni0414" unicode="&#x414;" horiz-adv-x="627" 
d="M-35 -140l31 216l37 1q32 20 58 63t41 109q17 73 37.5 185t44.5 268l376 -2l-101 -700h-431l-20 -140h-73zM148 76h272l76 546l-216 -2q-21 -137 -38.5 -233t-31.5 -152q-5 -22 -13 -45.5t-15 -46.5l-38 -51q-5 -7 -5 -11.5t9 -4.5zM469 -140l27 186l-12 30h89l-31 -216
h-73z" />
    <glyph glyph-name="uni0415" unicode="&#x415;" horiz-adv-x="553" 
d="M55 0l98 700h403l-11 -78h-325l-32 -233h308l-11 -78h-308l-33 -233h325l-11 -78h-403z" />
    <glyph glyph-name="uni0416" unicode="&#x416;" horiz-adv-x="792" 
d="M-6 0l233 353l-133 347h88l115 -313h76l44 313h82l-44 -313h74l203 313h87l-227 -344l134 -356h-88l-117 312h-76l-44 -312h-82l44 312h-74l-205 -312h-90z" />
    <glyph glyph-name="uni0417" unicode="&#x417;" horiz-adv-x="518" 
d="M205 -6q-63 0 -111 19t-89 55l36 66q29 -28 73.5 -45.5t91.5 -17.5q80 0 125 33t45 103q0 50 -31.5 78.5t-93.5 28.5h-114l11 76h109q72 0 112.5 40t40.5 102q0 46 -30 71.5t-85 25.5q-46 0 -90.5 -12t-75.5 -35l-21 71q48 27 95 40t105 13q57 0 97.5 -22.5t62.5 -61.5
t22 -87q0 -64 -35 -115t-89 -67q22 -10 43 -29.5t35.5 -48t14.5 -67.5q0 -68 -30 -116t-87 -73t-137 -25z" />
    <glyph glyph-name="uni0418" unicode="&#x418;" horiz-adv-x="639" 
d="M55 0l98 700h83l-65 -466l-21 -69q-1 -7 3 -7.5t8 6.5l364 536h87l-98 -700h-83l65 466l19 67q3 8 -3.5 10.5t-12.5 -6.5l-358 -537h-86z" />
    <glyph glyph-name="uni0419" unicode="&#x419;" horiz-adv-x="639" 
d="M55 0l98 700h83l-65 -466l-21 -69q-1 -7 3 -7.5t8 6.5l364 536h87l-98 -700h-83l65 466l19 67q3 8 -3.5 10.5t-12.5 -6.5l-358 -537h-86zM396 777q-55 0 -96 29t-46 87l61 13q7 -34 25.5 -52t54.5 -18q39 0 65.5 20t42.5 54l58 -21q-22 -58 -68 -85t-97 -27z" />
    <glyph glyph-name="uni041A" unicode="&#x41a;" horiz-adv-x="538" 
d="M55 0l98 700h82l-44 -312h72l214 312h93l-237 -345l139 -355h-88l-121 313h-82l-44 -313h-82z" />
    <glyph glyph-name="uni041B" unicode="&#x41b;" horiz-adv-x="600" 
d="M14 -16l-31 73q52 12 86 49.5t50 103.5q22 87 43.5 207.5t43.5 282.5h367l-98 -700h-83l87 622h-206q-19 -136 -38 -248t-40 -195q-20 -79 -67 -128.5t-114 -66.5z" />
    <glyph glyph-name="uni041C" unicode="&#x41c;" horiz-adv-x="674" 
d="M55 0l98 700h69l120 -312q3 -8 10.5 -8.5t13.5 8.5l210 312h71l-98 -700h-80l59 425l25 91q3 10 -3.5 11t-11.5 -7l-173 -255h-50l-103 259q-3 8 -8.5 6t-6.5 -13l-3 -86l-59 -431h-80z" />
    <glyph glyph-name="uni041D" unicode="&#x41d;" horiz-adv-x="620" 
d="M55 0l98 700h83l-43 -311h274l43 311h83l-98 -700h-83l44 311h-274l-44 -311h-83z" />
    <glyph glyph-name="uni041E" unicode="&#x41e;" horiz-adv-x="606" 
d="M278 -12q-72 0 -119.5 32t-71 84t-23.5 110q0 47 6.5 103.5t18 113t27.5 103.5q23 79 81.5 128.5t158.5 49.5q73 0 120.5 -32t71 -83.5t23.5 -110.5q0 -46 -6.5 -101.5t-18 -112.5t-27.5 -106q-23 -79 -81.5 -128.5t-159.5 -49.5zM286 64q52 0 95 26.5t64 96.5
q10 32 18.5 69.5t15 77.5t10 79t3.5 72q0 72 -37.5 111.5t-106.5 39.5q-51 0 -93.5 -26.5t-64.5 -96.5q-10 -31 -19 -69t-15 -78t-9.5 -79t-3.5 -72q0 -72 37.5 -111.5t105.5 -39.5z" />
    <glyph glyph-name="uni041F" unicode="&#x41f;" horiz-adv-x="620" 
d="M55 0l98 700h440l-98 -700h-83l88 624h-274l-88 -624h-83z" />
    <glyph glyph-name="uni0420" unicode="&#x420;" horiz-adv-x="553" 
d="M55 0l98 700h238q55 0 93 -23t58 -60.5t20 -81.5q0 -66 -27 -116.5t-76.5 -79t-117.5 -28.5h-163l-43 -311h-80zM189 384h148q69 0 108.5 33.5t39.5 117.5q0 47 -31 71t-79 24h-152z" />
    <glyph glyph-name="uni0421" unicode="&#x421;" horiz-adv-x="503" 
d="M278 -12q-54 0 -94 18.5t-67 50.5t-40 72.5t-13 84.5q0 47 6.5 103.5t18 113t27.5 103.5q23 79 81.5 128.5t158.5 49.5q54 0 94 -18.5t67 -49.5l-34 -69q-20 28 -54 44.5t-81 16.5q-51 0 -93.5 -26.5t-64.5 -96.5q-10 -31 -19 -69t-15 -78t-9.5 -79t-3.5 -72
q0 -72 37.5 -111.5t105.5 -39.5q38 0 73.5 16t59.5 37l20 -78q-29 -24 -69.5 -37.5t-91.5 -13.5z" />
    <glyph glyph-name="uni0422" unicode="&#x422;" horiz-adv-x="488" 
d="M167 0l87 622h-172l11 78h428l-11 -78h-173l-87 -622h-83z" />
    <glyph glyph-name="uni0423" unicode="&#x423;" horiz-adv-x="507" 
d="M25 -12q-27 0 -48 7t-35 17l28 67q14 -9 27.5 -13t30.5 -4q38 0 66 22.5t50 55.5l-51 560h81l30 -402l-8 -64q-1 -10 5.5 -11.5t10.5 5.5l275 472h88l-306 -510q-48 -81 -89.5 -124.5t-79 -60.5t-75.5 -17z" />
    <glyph glyph-name="uni0424" unicode="&#x424;" horiz-adv-x="713" 
d="M278 -10l11 78q3 14 -12 13l-65 -4q-77 20 -114 73t-39 117q-1 25 2 57t9 64t12 55q19 60 69.5 111t133.5 71l64 -6q8 -1 13.5 4.5t6.5 12.5l11 74h83l-11 -78q-3 -14 12 -13l65 4q78 -20 115 -72.5t38 -117.5q2 -21 -1.5 -53.5t-9 -65.5t-12.5 -57q-19 -60 -69 -111
t-133 -71l-65 6q-7 1 -13 -4t-7 -13l-11 -74h-83zM297 137l64 424q-60 0 -101 -18.5t-64.5 -49t-32.5 -65.5q-13 -44 -19 -82.5t-5 -85.5q1 -32 15.5 -60t48.5 -45.5t94 -17.5zM380 137q60 0 100.5 18.5t64 49t32.5 65.5q14 43 19 80t7 78q2 37 -13 67t-50.5 48t-95.5 18z
" />
    <glyph glyph-name="uni0425" unicode="&#x425;" horiz-adv-x="522" 
d="M-15 0l234 347l-134 353h87l72 -207l17 -71q2 -6 6 -6t8 6l179 278h96l-225 -334l142 -366h-83l-86 227l-14 68q-1 6 -5.5 6t-8.5 -6l-189 -295h-96z" />
    <glyph glyph-name="uni0426" unicode="&#x426;" horiz-adv-x="630" 
d="M55 0l98 700h83l-87 -624h275l87 624h83l-101 -700h-438zM472 -140l27 186l-12 30h89l-31 -216h-73z" />
    <glyph glyph-name="uni0427" unicode="&#x427;" horiz-adv-x="579" 
d="M370 0l42 296q1 10 -4 11.5t-13 -2.5l-54 -23q-14 -4 -37.5 -5.5t-39.5 -1.5q-44 0 -84.5 15.5t-66 49.5t-25.5 88q0 8 0.5 16.5t1.5 17.5l33 238h83l-33 -233q-1 -7 -1.5 -13.5t-0.5 -12.5q0 -49 27.5 -70t76.5 -21q45 0 84 9t62 21l47 320h84l-98 -700h-84z" />
    <glyph glyph-name="uni0428" unicode="&#x428;" horiz-adv-x="797" 
d="M55 0l98 700h83l-87 -624h184l87 624h83l-87 -624h184l87 624h83l-98 -700h-617z" />
    <glyph glyph-name="uni0429" unicode="&#x429;" horiz-adv-x="807" 
d="M55 0l98 700h83l-87 -624h184l87 624h83l-87 -624h185l87 624h83l-101 -700h-615zM649 -140l27 186l-12 30h89l-31 -216h-73z" />
    <glyph glyph-name="uni042A" unicode="&#x42a;" horiz-adv-x="606" 
d="M115 0l88 630h-120l10 70h203l-41 -294h96q113 0 165 -51.5t52 -141.5q0 -70 -28.5 -117.5t-78 -71.5t-113.5 -24h-233zM208 70h143q64 0 102 40t38 98q0 64 -34 96t-106 32h-106z" />
    <glyph glyph-name="uni042B" unicode="&#x42b;" horiz-adv-x="779" 
d="M55 0l98 700h83l-41 -294h96q113 0 165 -51.5t52 -141.5q0 -70 -28.5 -117.5t-78 -71.5t-113.5 -24h-233zM148 70h143q64 0 102 40t38 98q0 64 -34 96t-106 32h-106zM571 0l98 700h83l-98 -700h-83z" />
    <glyph glyph-name="uni042C" unicode="&#x42c;" horiz-adv-x="546" 
d="M55 0l98 700h83l-41 -294h96q113 0 165 -51.5t52 -141.5q0 -70 -28.5 -117.5t-78 -71.5t-113.5 -24h-233zM148 70h143q64 0 102 40t38 98q0 64 -34 96t-106 32h-106z" />
    <glyph glyph-name="uni042D" unicode="&#x42d;" horiz-adv-x="513" 
d="M167 -12q-43 0 -84 15t-73 45l39 73q28 -26 62.5 -40.5t74.5 -14.5q71 0 116 38.5t60 114.5q9 47 17 96.5t13.5 97t5.5 87.5q0 69 -33.5 101.5t-97.5 32.5q-37 0 -75 -13t-73 -39l-13 68q41 30 87.5 46t92.5 16q65 0 108.5 -30.5t65.5 -79t22 -102.5q0 -35 -6.5 -86.5
t-15.5 -103.5t-18 -91q-18 -83 -55.5 -134t-92.5 -74t-127 -23zM126 311l11 78h278l-11 -78h-278z" />
    <glyph glyph-name="uni042E" unicode="&#x42e;" horiz-adv-x="848" 
d="M55 0l98 700h83l-43 -311h198l-11 -78h-198l-44 -311h-83zM520 -12q-72 0 -119.5 32t-71 84t-23.5 110q0 47 6.5 103.5t18 113t27.5 103.5q23 79 81.5 128.5t158.5 49.5q73 0 120.5 -32t71 -83.5t23.5 -110.5q0 -46 -6.5 -101.5t-18 -112.5t-27.5 -106
q-23 -79 -81.5 -128.5t-159.5 -49.5zM528 64q52 0 95 26.5t64 96.5q10 32 18.5 69.5t15 77.5t10 79t3.5 72q0 72 -37.5 111.5t-106.5 39.5q-51 0 -93.5 -26.5t-64.5 -96.5q-10 -31 -19 -69t-15 -78t-9.5 -79t-3.5 -72q0 -72 37.5 -111.5t105.5 -39.5z" />
    <glyph glyph-name="uni042F" unicode="&#x42f;" horiz-adv-x="579" 
d="M14 0l135 221l54 62q8 8 5 14.5t-11 10.5q-34 15 -58 36.5t-37 52t-14 70.5q0 107 65.5 170t178.5 63h220l-98 -700h-83l41 291h-130l-174 -291h-94zM275 364h147l37 266h-132q-49 0 -84.5 -21t-54.5 -56.5t-19 -78.5q2 -52 29.5 -81t76.5 -29z" />
    <glyph glyph-name="uni0430" unicode="&#x430;" horiz-adv-x="542" 
d="M201 -10q-24 0 -50.5 7t-50 25t-38 51t-14.5 85q0 58 11.5 113t35.5 104q30 61 85.5 98t125.5 37q15 0 27.5 -0.5t25.5 -2.5l38 -9q7 -1 16 0l57 6l-58 -416l58 -28l-33 -70l-106 53q-9 5 -14 -2l-14 -15q-27 -15 -44 -23t-30 -10.5t-28 -2.5zM212 63q14 0 27 3.5t35 16
t63 37.5l43 310q-40 10 -68 10q-57 0 -96.5 -29t-58.5 -73q-16 -37 -24.5 -81t-8.5 -104q0 -52 27 -71t61 -19z" />
    <glyph glyph-name="uni0431" unicode="&#x431;" horiz-adv-x="515" 
d="M208 -12q-70 0 -111 42t-41 129q0 32 4.5 80.5t12.5 100.5t16 94q22 107 61 169.5t96.5 92.5t133.5 39q35 4 60 10t45 18l20 -64q-25 -14 -57.5 -21.5t-60.5 -10.5q-91 -10 -144.5 -59.5t-71.5 -135.5q-1 -8 3.5 -10.5t8.5 0.5l73 41q14 5 26 6.5t23 1.5q63 0 97.5 -26.5
t48.5 -67t14 -83.5q0 -45 -10 -100t-34 -106q-28 -58 -79 -99t-134 -41zM216 58q53 0 85.5 27.5t52.5 67.5t27 86.5t7 87.5q0 50 -20.5 81t-73.5 31q-52 0 -87 -26t-51 -71q-13 -37 -18 -83t-8 -99q-1 -48 22.5 -75t63.5 -27z" />
    <glyph glyph-name="uni0432" unicode="&#x432;" horiz-adv-x="463" 
d="M204 -9q-49 0 -88 20.5t-57.5 69.5t-8.5 132l10 72q5 40 19 79.5t39.5 72.5t64 53t93.5 20q45 0 78 -16.5t51 -46t17 -68.5q0 -47 -25 -78t-66 -47q34 -11 53.5 -38t18.5 -66q0 -51 -26 -86.5t-71 -54t-102 -18.5zM215 60q49 0 78.5 27t29.5 74q-1 26 -21.5 41.5
t-60.5 15.5h-129l9 66h121q46 0 73 26t27 66q0 31 -18.5 48t-56.5 17q-46 0 -82 -33.5t-47 -115.5l-12 -91q-8 -62 15.5 -101.5t73.5 -39.5z" />
    <glyph glyph-name="uni0433" unicode="&#x433;" horiz-adv-x="435" 
d="M184 -12q-82 0 -124.5 39.5t-42.5 100.5q0 50 22.5 81.5t62 50t88.5 28.5l61 13q38 8 59 24.5t21 53.5q0 30 -23.5 45.5t-67.5 15.5q-43 0 -77.5 -11t-59.5 -27l-21 67q37 23 78.5 33t81.5 10q78 0 122 -38t43 -101q0 -47 -20 -75.5t-54 -44t-78 -24.5l-63 -13
q-42 -9 -70.5 -28.5t-28.5 -58.5q-1 -33 22.5 -51t69.5 -18q28 0 54 6t51 18t51 29l22 -70q-40 -26 -86.5 -40.5t-92.5 -14.5z" />
    <glyph glyph-name="uni0434" unicode="&#x434;" horiz-adv-x="522" 
d="M223 -11q-59 0 -97.5 26.5t-57 68.5t-18.5 89q0 30 4 65.5t11.5 70t17.5 60.5q26 68 80 105t123 37q14 0 35 -4.5t35 -13.5l33 -38q5 -5 11 -3t6 12q0 70 -16.5 118.5t-57 74t-112.5 25.5h-8t-9 -1l10 69h7.5h7.5q83 0 132 -23.5t73 -64.5t31.5 -93t7.5 -109
q0 -52 -3.5 -100t-9.5 -90.5t-14 -77.5t-18 -61q-26 -68 -80 -105t-124 -37zM228 60q50 0 80 25t50 70q9 19 15 49t9.5 62.5t3.5 56.5q0 46 -24.5 81.5t-80.5 35.5q-49 0 -79 -24.5t-48 -70.5q-8 -20 -14.5 -49.5t-10 -60.5t-3.5 -58q0 -46 23.5 -81.5t78.5 -35.5z" />
    <glyph glyph-name="uni0435" unicode="&#x435;" horiz-adv-x="482" 
d="M227 -10q-59 0 -98.5 25t-59 65.5t-19.5 86.5q0 47 5.5 84.5t11.5 60.5q16 62 49.5 106.5t79 68t96.5 23.5q55 0 88.5 -20t50 -54t18.5 -76t-7 -87l-28 -40h-302l9 70h248q14 68 -7 102.5t-71 34.5q-48 0 -93 -39t-62 -119q-4 -21 -7 -38.5t-4 -52.5q-2 -63 26 -97
t80 -34q32 0 55 13t59 47l60 -29q-49 -58 -93 -79.5t-85 -21.5z" />
    <glyph glyph-name="uni0436" unicode="&#x436;" horiz-adv-x="672" 
d="M261 0l31 220h-87l9 70h88l29 210h80l-29 -210h88l-7 -70h-91l-31 -220h-80zM14 -9l10 72q35 8 57 31.5t38 60.5q9 19 15 49t9.5 62.5t3.5 56.5q0 38 -16 70t-54 43l10 72q47 -8 77 -35.5t44.5 -65.5t14.5 -80q0 -29 -4 -65t-11.5 -70.5t-17.5 -60.5q-23 -61 -69.5 -97
t-106.5 -43zM584 -7q-45 9 -75 35.5t-44.5 65t-14.5 79.5q0 30 4 65.5t11.5 70t17.5 60.5q23 62 69.5 97.5t105.5 42.5l-10 -72q-36 -7 -59 -30.5t-39 -61.5q-8 -20 -14.5 -49.5t-10 -60.5t-3.5 -58q0 -39 17 -71t55 -42z" />
    <glyph glyph-name="uni0437" unicode="&#x437;" horiz-adv-x="448" 
d="M176 -7q-61 0 -104 13t-79 43l33 63q18 -16 40 -26.5t48 -15.5t55 -5q56 0 93 19.5t37 64.5q0 31 -22.5 52t-72.5 21h-78l10 69h83q41 0 69 23.5t28 57.5q0 32 -21 50.5t-72 18.5q-34 0 -71.5 -8.5t-67.5 -26.5l-20 66q42 23 81.5 31.5t82.5 8.5q53 0 90 -17.5
t56.5 -46.5t19.5 -65q0 -49 -28.5 -81.5t-66.5 -45.5q37 -12 57.5 -41.5t20.5 -69.5q0 -51 -30 -85t-76 -50.5t-95 -16.5z" />
    <glyph glyph-name="uni0438" unicode="&#x438;" horiz-adv-x="520" 
d="M188 -11q-73 0 -110 42t-27 114l47 355h80l-47 -361q-5 -40 15.5 -58t55.5 -18q11 0 25 4t40.5 17t73.5 40l49 376h80l-71 -500h-75l4 25q2 9 -3.5 12.5t-13.5 -1.5q-22 -12 -40 -22t-33 -18q-12 -3 -25 -5t-25 -2z" />
    <glyph glyph-name="uni0439" unicode="&#x439;" horiz-adv-x="520" 
d="M188 -11q-73 0 -110 42t-27 114l47 355h80l-47 -361q-5 -40 15.5 -58t55.5 -18q11 0 25 4t40.5 17t73.5 40l49 376h80l-71 -500h-75l4 25q2 9 -3.5 12.5t-13.5 -1.5q-22 -12 -40 -22t-33 -18q-12 -3 -25 -5t-25 -2zM342 607q-55 0 -96 29t-46 87l61 13q7 -34 25.5 -52
t54.5 -18q39 0 65.5 20t42.5 54l58 -21q-22 -58 -68 -85t-97 -27z" />
    <glyph glyph-name="uni043A" unicode="&#x43a;" horiz-adv-x="487" 
d="M50 0l70 500h82l-29 -210h68l156 210h87l-189 -259l-6 50l132 -291h-88l-102 220h-68l-31 -220h-82z" />
    <glyph glyph-name="uni043B" unicode="&#x43b;" horiz-adv-x="520" 
d="M12 -11l-20 67q32 9 58 29.5t37 51.5q13 34 24.5 80.5t24.5 115.5t28 167h306l-70 -500h-80l60 430h-150q-16 -100 -35 -180.5t-35 -134.5q-19 -55 -58 -85t-90 -41z" />
    <glyph glyph-name="uni043C" unicode="&#x43c;" horiz-adv-x="664" 
d="M50 0l70 500h67l125 -288q4 -9 11 -9t13 9l209 288h69l-70 -500h-78l38 257l24 82q2 5 -3.5 8t-10.5 -5l-177 -237h-50l-110 242q-3 8 -8.5 6t-5.5 -8l2 -86l-37 -259h-78z" />
    <glyph glyph-name="uni043D" unicode="&#x43d;" horiz-adv-x="537" 
d="M50 0l70 500h80l-29 -210h207l29 210h80l-70 -500h-80l31 220h-207l-31 -220h-80z" />
    <glyph glyph-name="uni043E" unicode="&#x43e;" horiz-adv-x="510" 
d="M223 -11q-59 0 -97.5 26.5t-57 68.5t-18.5 89q0 30 4 65.5t11.5 70t17.5 60.5q26 68 80 105t123 37q60 0 98.5 -26.5t57 -68.5t18.5 -89q0 -29 -4 -65t-11.5 -70.5t-17.5 -60.5q-26 -68 -80 -105t-124 -37zM228 60q50 0 80 24.5t48 70.5q9 19 15 49t9.5 62.5t3.5 56.5
q0 46 -23.5 81.5t-79.5 35.5q-49 0 -79 -24.5t-48 -70.5q-8 -20 -14.5 -49.5t-10 -60.5t-3.5 -58q0 -46 23.5 -81.5t78.5 -35.5z" />
    <glyph glyph-name="uni043F" unicode="&#x43f;" horiz-adv-x="547" 
d="M60 0l62 447l39 -56l-101 49l33 70l101 -49q9 -4 15 2l12 12q32 20 59 28t61 7q77 -1 112 -48.5t25 -121.5l-46 -340h-80l46 344q7 52 -12 72.5t-55 20.5q-21 0 -40.5 -4.5t-45 -17t-66.5 -38.5l21 47l-60 -424h-80z" />
    <glyph glyph-name="uni0440" unicode="&#x440;" horiz-adv-x="530" 
d="M32 -200l86 612l-58 28l33 70l101 -49q8 -5 15 2l13 13q24 13 42 20.5t35.5 10.5t39.5 3q23 0 48 -6.5t46.5 -24.5t35 -51.5t13.5 -87.5q0 -56 -11.5 -111t-35.5 -104q-30 -61 -85 -98t-126 -37q-15 0 -27 1t-26 2l-29 7l-30 -200h-80zM218 60q57 0 96.5 29t58.5 73
q16 38 24.5 80.5t8.5 94.5q0 43 -12.5 64.5t-31 28.5t-37.5 7q-27 0 -57 -11.5t-74 -40.5l-44 -315q40 -10 68 -10z" />
    <glyph glyph-name="uni0441" unicode="&#x441;" horiz-adv-x="450" 
d="M223 -10q-56 0 -95.5 25.5t-59.5 66t-19 86.5q0 38 5.5 77t16.5 80q15 52 46 94t74.5 66.5t97.5 24.5q43 0 77 -12.5t66 -33.5l-29 -63q-28 17 -54.5 27t-61.5 10q-56 0 -92 -38t-53 -97q-9 -33 -13 -60.5t-4 -56.5q0 -33 10.5 -61.5t33 -46.5t59.5 -18q18 0 33 4.5
t34.5 17.5t48.5 38l60 -29q-54 -62 -98 -81.5t-83 -19.5z" />
    <glyph glyph-name="uni0442" unicode="&#x442;" horiz-adv-x="837" 
d="M60 0l62 449l29 -53l-91 44l33 70l101 -49q9 -4 15 2l12 12q35 20 63 28t61 7q41 -1 70 -18t45 -40q8 -11 18 -1l12 12q29 18 51 28t43.5 14.5t48.5 4.5q51 0 83 -22.5t45.5 -59.5t7.5 -81l-47 -347h-80l47 351q6 46 -13 66t-54 20q-24 0 -47 -6.5t-54.5 -23t-82.5 -48.5
l51 62l-57 -421h-80l47 354q5 41 -13 62t-52 21q-23 0 -44.5 -5t-53 -21t-85.5 -49l49 61l-60 -423h-80z" />
    <glyph glyph-name="uni0443" unicode="&#x443;" horiz-adv-x="470" 
d="M37 -221l-22 66q53 21 82.5 49t53.5 77l20 41l-115 488h82l64 -269l8 -98q1 -8 6 -8t9 8l165 367h85l-255 -550q-30 -65 -74 -107t-109 -64z" />
    <glyph glyph-name="uni0444" unicode="&#x444;" horiz-adv-x="792" 
d="M297 -200l29 222q2 10 -3.5 13t-13.5 -2l-68 -37q-10 -3 -21.5 -4.5t-22.5 -1.5q-36 0 -70.5 12t-56.5 48t-22 108q0 58 11.5 113t35.5 104q30 61 85.5 98t125.5 37q29 0 45.5 -3t41.5 -8l28 201h75l-29 -222q-1 -10 4 -12.5t13 1.5l68 37q11 3 22.5 4.5t21.5 1.5
q43 0 76.5 -17t53 -53t19.5 -93q0 -61 -11.5 -117t-35.5 -105q-30 -61 -85 -98t-126 -37q-18 0 -30.5 1t-24.5 3.5t-32 6.5l-28 -201h-75zM202 63q17 0 47 12t91 47l41 308q-19 5 -34 7.5t-35 2.5q-54 0 -93.5 -27t-61.5 -75q-16 -37 -24.5 -81t-8.5 -104q0 -38 12.5 -57.5
t30.5 -26t35 -6.5zM481 60q54 0 93.5 27t61.5 75q16 38 24.5 80.5t8.5 95.5q0 41 -14 62t-33 29t-36 8q-26 0 -56 -12t-75 -43l-43 -312q19 -5 34.5 -7.5t34.5 -2.5z" />
    <glyph glyph-name="uni0445" unicode="&#x445;" horiz-adv-x="472" 
d="M-6 0l194 250l-122 250h92l57 -131l16 -63q2 -5 6 -5t8 5l137 194h96l-192 -250l120 -250h-92l-52 124l-19 70q-1 5 -6 5t-9 -5l-138 -194h-96z" />
    <glyph glyph-name="uni0446" unicode="&#x446;" horiz-adv-x="537" 
d="M378 -130l24 170l-11 30h87l-28 -200h-72zM188 -11q-73 0 -110 42t-27 114l47 355h80l-47 -361q-5 -40 15.5 -58t55.5 -18q11 0 25 4t40.5 17t73.5 40l49 376h80l-71 -500h-75l4 25q2 9 -3.5 12.5t-13.5 -1.5q-22 -12 -40 -22t-33 -18q-12 -3 -25 -5t-25 -2z" />
    <glyph glyph-name="uni0447" unicode="&#x447;" horiz-adv-x="512" 
d="M312 0l28 201q2 10 -3 10.5t-14 -4.5l-55 -27q-12 -4 -26 -5t-30 -1q-41 0 -75.5 20t-52.5 59t-10 95l21 152h80l-22 -157q-7 -49 17 -73t74 -24q36 0 62 12t45 29l31 213h80l-70 -500h-80z" />
    <glyph glyph-name="uni0448" unicode="&#x448;" horiz-adv-x="836" 
d="M210 -11q-73 0 -110 42t-27 114l47 355h80l-47 -361q-5 -40 15.5 -58t55.5 -18q17 0 57.5 13.5t111.5 53.5v-77q-25 -15 -58 -29.5t-66 -24.5t-59 -10zM504 -11q-73 0 -110 42t-27 114l47 355h80l-47 -361q-5 -40 15.5 -58t55.5 -18q11 0 25 4t40.5 17t73.5 40l49 376h80
l-71 -500h-75l4 25q2 9 -3.5 12.5t-13.5 -1.5q-22 -12 -40 -22t-33 -18q-12 -3 -25 -5t-25 -2z" />
    <glyph glyph-name="uni0449" unicode="&#x449;" horiz-adv-x="854" 
d="M693 -140l24 170l-11 30h87l-28 -200h-72zM504 -11q-73 0 -110 42t-27 114l47 355h80l-47 -361q-5 -40 15.5 -58t55.5 -18q11 0 25 4t40.5 17t73.5 40l49 376h80l-71 -500h-75l4 25q2 9 -3.5 12.5t-13.5 -1.5q-22 -12 -40 -22t-33 -18q-12 -3 -25 -5t-25 -2zM210 -11
q-73 0 -110 42t-27 114l47 355h80l-47 -361q-5 -40 15.5 -58t55.5 -18q17 0 57.5 13.5t111.5 53.5v-77q-25 -15 -58 -29.5t-66 -24.5t-59 -10z" />
    <glyph glyph-name="uni044A" unicode="&#x44a;" horiz-adv-x="520" 
d="M45 430l10 70h185l-10 -70h-185zM259 -10q-90 0 -123.5 42t-26.5 105l51 363h80l-25 -182h104q77 0 119 -36.5t41 -101.5q0 -56 -31 -99t-80.5 -67t-108.5 -24zM265 60q61 0 97.5 34t36.5 88q-1 31 -22.5 48.5t-62.5 17.5h-109l-17 -121q-2 -27 13.5 -47t63.5 -20z" />
    <glyph glyph-name="uni044B" unicode="&#x44b;" horiz-adv-x="690" 
d="M490 0l70 500h80l-70 -500h-80zM219 -10q-90 0 -123.5 42t-26.5 105l51 363h80l-25 -182h104q77 0 119 -36.5t41 -101.5q0 -56 -31 -99t-80.5 -67t-108.5 -24zM225 60q61 0 97.5 34t36.5 88q-1 31 -22.5 48.5t-62.5 17.5h-109l-17 -121q-2 -27 13.5 -47t63.5 -20z" />
    <glyph glyph-name="uni044C" unicode="&#x44c;" horiz-adv-x="480" 
d="M219 -10q-90 0 -123.5 42t-26.5 105l51 363h80l-25 -182h104q77 0 119 -36.5t41 -101.5q0 -56 -31 -99t-80.5 -67t-108.5 -24zM225 60q61 0 97.5 34t36.5 88q-1 31 -22.5 48.5t-62.5 17.5h-109l-17 -121q-2 -27 13.5 -47t63.5 -20z" />
    <glyph glyph-name="uni044D" unicode="&#x44d;" horiz-adv-x="461" 
d="M178 -11q-38 0 -82 10.5t-87 45.5l25 70q31 -29 68.5 -42t74.5 -13q63 0 96 34.5t46 93.5q7 29 12 65t5 67q0 56 -25 88t-85 32q-38 0 -69 -10t-64 -28l-19 67q38 22 73 32.5t80 10.5q62 0 103 -25t61.5 -65.5t19.5 -88.5q0 -46 -6.5 -90t-17.5 -88q-20 -73 -72 -119.5
t-137 -46.5zM121 220l10 70h211l-10 -70h-211z" />
    <glyph glyph-name="uni044E" unicode="&#x44e;" horiz-adv-x="721" 
d="M50 0l70 500h80l-29 -210h131l-10 -70h-131l-31 -220h-80zM434 -11q-59 0 -97.5 26.5t-57 68.5t-18.5 89q0 30 4 65.5t11.5 70t17.5 60.5q26 68 80 105t123 37q60 0 98.5 -26.5t57 -68.5t18.5 -89q0 -29 -4 -65t-11.5 -70.5t-17.5 -60.5q-26 -68 -80 -105t-124 -37z
M439 60q50 0 80 24.5t48 70.5q9 19 15 49t9.5 62.5t3.5 56.5q0 46 -23.5 81.5t-79.5 35.5q-49 0 -79 -24.5t-48 -70.5q-8 -20 -14.5 -49.5t-10 -60.5t-3.5 -58q0 -46 23.5 -81.5t78.5 -35.5z" />
    <glyph glyph-name="uni044F" unicode="&#x44f;" horiz-adv-x="496" 
d="M-6 0l123 163l38 39q6 6 4.5 11.5t-6.5 6.5q-40 14 -66.5 42.5t-26.5 81.5q0 41 22.5 76.5t66 57.5t104.5 22h193l-70 -500h-80l28 200h-89l-150 -200h-91zM222 265h111l24 167h-110q-58 0 -83 -27t-25 -62q0 -30 13.5 -47t33 -24t36.5 -7z" />
    <glyph glyph-name="uni0450" unicode="&#x450;" horiz-adv-x="482" 
d="M227 -10q-59 0 -98.5 25t-59 65.5t-19.5 86.5q0 47 5.5 84.5t11.5 60.5q16 62 49.5 106.5t79 68t96.5 23.5q55 0 88.5 -20t50 -54t18.5 -76t-7 -87l-28 -40h-302l9 70h248q14 68 -7 102.5t-71 34.5q-48 0 -93 -39t-62 -119q-4 -21 -7 -38.5t-4 -52.5q-2 -63 26 -97
t80 -34q32 0 55 13t59 47l60 -29q-49 -58 -93 -79.5t-85 -21.5zM266 600l-79 150h83l79 -150h-83z" />
    <glyph glyph-name="uni0451" unicode="&#x451;" horiz-adv-x="482" 
d="M227 -10q-59 0 -98.5 25t-59 65.5t-19.5 86.5q0 47 5.5 84.5t11.5 60.5q16 62 49.5 106.5t79 68t96.5 23.5q55 0 88.5 -20t50 -54t18.5 -76t-7 -87l-28 -40h-302l9 70h248q14 68 -7 102.5t-71 34.5q-48 0 -93 -39t-62 -119q-4 -21 -7 -38.5t-4 -52.5q-2 -63 26 -97
t80 -34q32 0 55 13t59 47l60 -29q-49 -58 -93 -79.5t-85 -21.5zM343 600l14 100h81l-14 -100h-81zM172 600l14 100h81l-14 -100h-81z" />
    <glyph glyph-name="uni0452" unicode="&#x452;" horiz-adv-x="549" 
d="M263 -223l-23 70q42 12 73.5 51t40.5 102h80q-9 -63 -32 -107t-58 -72t-81 -44zM354 0l47 355q5 42 -13.5 62t-53.5 20q-19 0 -38.5 -4t-46 -16.5t-68.5 -38.5l5 73q36 23 60 35.5t46.5 18t52.5 5.5q44 0 77 -20.5t49 -56.5t9 -84l-46 -349h-80zM62 0l105 750h80
l-105 -750h-80zM49 595l10 69h311l-10 -69h-311z" />
    <glyph glyph-name="uni0453" unicode="&#x453;" horiz-adv-x="435" 
d="M184 -12q-82 0 -124.5 39.5t-42.5 100.5q0 50 22.5 81.5t62 50t88.5 28.5l61 13q38 8 59 24.5t21 53.5q0 30 -23.5 45.5t-67.5 15.5q-43 0 -77.5 -11t-59.5 -27l-21 67q37 23 78.5 33t81.5 10q78 0 122 -38t43 -101q0 -47 -20 -75.5t-54 -44t-78 -24.5l-63 -13
q-42 -9 -70.5 -28.5t-28.5 -58.5q-1 -33 22.5 -51t69.5 -18q28 0 54 6t51 18t51 29l22 -70q-40 -26 -86.5 -40.5t-92.5 -14.5zM220 600l121 150h87l-121 -150h-87z" />
    <glyph glyph-name="uni0454" unicode="&#x454;" horiz-adv-x="450" 
d="M121 220l10 70h211l-10 -70h-211zM223 -10q-56 0 -95.5 25.5t-59.5 66t-19 86.5q0 38 5.5 77t16.5 80q15 52 46 94t74.5 66.5t97.5 24.5q43 0 77 -12.5t66 -33.5l-29 -63q-28 17 -54.5 27t-61.5 10q-56 0 -92 -38t-53 -97q-9 -33 -13 -60.5t-4 -56.5q0 -33 10.5 -61.5
t33 -46.5t59.5 -18q18 0 33 4.5t34.5 17.5t48.5 38l60 -29q-54 -62 -98 -81.5t-83 -19.5z" />
    <glyph glyph-name="uni0455" unicode="&#x455;" horiz-adv-x="452" 
d="M211 -12q-59 0 -108 17t-75 39l26 70q27 -25 68 -39.5t87 -14.5q47 0 75.5 21.5t28.5 57.5q0 32 -15.5 50t-48.5 30l-49 18q-58 21 -89.5 51t-31.5 79q0 43 22 75.5t61.5 51t89.5 18.5q45 0 87 -11.5t76 -32.5l-25 -64q-29 17 -64 26t-75 9q-43 0 -69.5 -18t-26.5 -49
q0 -25 14.5 -39.5t45.5 -25.5l49 -18q59 -22 91.5 -55.5t32.5 -86.5q0 -46 -22.5 -82t-62.5 -56.5t-92 -20.5z" />
    <glyph glyph-name="uni0456" unicode="&#x456;" horiz-adv-x="255" 
d="M55 0l60 430h-70l10 70h150l-70 -500h-80zM139 600l14 100h80l-14 -100h-80z" />
    <glyph glyph-name="uni0457" unicode="&#x457;" horiz-adv-x="290" 
d="M222 600l14 100h81l-14 -100h-81zM72 600l14 100h81l-14 -100h-81zM85 0l60 430h-70l10 70h150l-70 -500h-80z" />
    <glyph glyph-name="uni0458" unicode="&#x458;" horiz-adv-x="286" 
d="M-24 -223l-23 70q49 13 86 52t47 108l59 423h-70l10 70h151l-71 -497q-9 -63 -34.5 -107.5t-64.5 -73t-90 -45.5zM169 600l14 100h80l-14 -100h-80z" />
    <glyph glyph-name="uni0459" unicode="&#x459;" horiz-adv-x="750" 
d="M12 -11l-20 67q32 9 58 29.5t37 51.5q13 34 24.5 80.5t24.5 115.5t28 167h306l-90 -70l-150 -2q-16 -98 -35 -178.5t-35 -134.5q-19 -55 -58 -85t-90 -41zM489 -10q-90 0 -123.5 42t-26.5 105l51 363h80l-25 -182h104q77 0 119 -36.5t41 -101.5q0 -56 -31 -99t-80.5 -67
t-108.5 -24zM495 60q61 0 97.5 34t36.5 88q-1 31 -22.5 48.5t-62.5 17.5h-109l-17 -121q-2 -27 13.5 -47t63.5 -20z" />
    <glyph glyph-name="uni045A" unicode="&#x45a;" horiz-adv-x="763" 
d="M502 -10q-90 0 -124.5 42t-25.5 105l51 363h80l-52 -373q-4 -27 12.5 -47t64.5 -20q61 0 97.5 34t36.5 88q-1 31 -22.5 48.5t-62.5 17.5h-125l10 70h120q77 0 119 -36.5t41 -101.5q0 -56 -31 -99t-80.5 -67t-108.5 -24zM50 0l70 500h80l-26 -183h217l-9 -70h-217
l-35 -247h-80z" />
    <glyph glyph-name="uni045B" unicode="&#x45b;" horiz-adv-x="538" 
d="M38 595l10 69h311l-10 -69h-311zM343 0l47 355q5 42 -13.5 62t-53.5 20q-19 0 -38.5 -4t-46 -16.5t-68.5 -38.5l5 73q36 23 60 35.5t46.5 18t52.5 5.5q44 0 77 -20.5t49 -56.5t9 -84l-46 -349h-80zM51 0l105 750h80l-105 -750h-80z" />
    <glyph glyph-name="uni045C" unicode="&#x45c;" horiz-adv-x="487" 
d="M50 0l70 500h82l-29 -210h68l156 210h87l-189 -259l-6 50l132 -291h-88l-102 220h-68l-31 -220h-82zM234 600l121 150h87l-121 -150h-87z" />
    <glyph glyph-name="uni045D" unicode="&#x45d;" horiz-adv-x="520" 
d="M188 -11q-73 0 -110 42t-27 114l47 355h80l-47 -361q-5 -40 15.5 -58t55.5 -18q11 0 25 4t40.5 17t73.5 40l49 376h80l-71 -500h-75l4 25q2 9 -3.5 12.5t-13.5 -1.5q-22 -12 -40 -22t-33 -18q-12 -3 -25 -5t-25 -2zM299 600l-79 150h83l79 -150h-83z" />
    <glyph glyph-name="uni045E" unicode="&#x45e;" horiz-adv-x="470" 
d="M37 -221l-22 66q53 21 82.5 49t53.5 77l20 41l-115 488h82l64 -269l8 -98q1 -8 6 -8t9 8l165 367h85l-255 -550q-30 -65 -74 -107t-109 -64zM290 607q-55 0 -96 29t-46 87l61 13q7 -34 25.5 -52t54.5 -18q39 0 65.5 20t42.5 54l58 -21q-22 -58 -68 -85t-97 -27z" />
    <glyph glyph-name="uni045F" unicode="&#x45f;" horiz-adv-x="542" 
d="M195 -183l29 151h62l-19 -151h-72zM210 -11q-73 0 -110 42t-27 114l47 355h80l-47 -361q-5 -40 15.5 -58t55.5 -18q11 0 25 4t40.5 17t73.5 40l49 376h80l-71 -500h-75l4 25q2 9 -3.5 12.5t-13.5 -1.5q-22 -12 -40 -22t-33 -18q-12 -3 -25 -5t-25 -2z" />
    <glyph glyph-name="uni0460" unicode="&#x460;" horiz-adv-x="799" 
d="M504 -12q-44 0 -76 16t-51 47.5t-24 80t4 112.5l33 236h83l-33 -237q-7 -52 -7.5 -91.5t15.5 -62t58 -22.5q40 0 68.5 28t47.5 75.5t31 106.5t17.5 121.5t6.5 120.5q1 46 -1.5 90t-9.5 91h80q6 -31 10.5 -76.5t2.5 -104.5q-4 -87 -13.5 -166t-27 -145.5t-45.5 -116
t-69.5 -76.5t-99.5 -27zM241 -12q-40 0 -70.5 12t-51.5 37t-32 65t-12 97t6 124t20.5 135.5t32.5 131t42 110.5h85q-33 -79 -57.5 -165t-37.5 -171.5t-13 -164.5q0 -77 22 -104.5t68 -27.5q40 0 62 22.5t33.5 62.5t18.5 92l57 -114q-17 -48 -42.5 -79.5t-58 -47t-72.5 -15.5
zM272 424l11 76h303l-11 -76h-193h-110z" />
    <glyph glyph-name="uni0461" unicode="&#x461;" horiz-adv-x="649" 
d="M186 -12q-26 0 -49.5 8t-42 26.5t-30 51.5t-14 82.5t7.5 118.5q4 24 12 55.5t19.5 64t25.5 60t29 45.5h85q-15 -20 -29.5 -49t-27 -62.5t-21 -65.5t-12.5 -58q-10 -72 -9 -114t10 -61.5t21.5 -25t25.5 -5.5q29 0 46.5 19.5t27.5 53.5t16 77l41 291h83l-42 -298
q-7 -37 -7 -70t11 -53t37 -20q14 0 30 6t31.5 27t29.5 64.5t24 118.5q5 32 5 75t-5.5 84t-18.5 66h77q10 -19 16 -47.5t9 -62t2.5 -66t-4.5 -59.5q-12 -84 -32.5 -138.5t-47.5 -84.5t-57 -42t-60 -12q-35 0 -61 11.5t-42 35.5q-22 -24 -49.5 -35.5t-60.5 -11.5z" />
    <glyph glyph-name="uni0462" unicode="&#x462;" horiz-adv-x="576" 
d="M50 532l9 69h381l-9 -69h-381zM85 0l98 700h83l-41 -294h96q113 0 165 -51.5t52 -141.5q0 -70 -28.5 -117.5t-78 -71.5t-113.5 -24h-233zM178 70h143q64 0 102 40t38 98q0 64 -34 96t-106 32h-106z" />
    <glyph glyph-name="uni0463" unicode="&#x463;" horiz-adv-x="681" 
d="M439 -10q-78 0 -107.5 42t-22.5 105l31 237q4 32 -7.5 47.5t-37.5 15.5q-24 0 -45.5 -9t-64.5 -41l-55 -387h-80l57 412l-57 28l33 70l101 -49q9 -4 15 2l12 12q26 20 46.5 28t47.5 7q68 -1 96 -42.5t20 -97.5l-6 -52h84q68 0 104 -36.5t36 -101.5q0 -54 -27 -97t-72 -68
t-101 -25zM445 60q54 0 84 35.5t30 85.5q0 31 -16.5 49t-48.5 18h-89l-17 -121q-1 -27 10.5 -47t46.5 -20z" />
    <glyph glyph-name="uni0464" unicode="&#x464;" horiz-adv-x="755" 
d="M55 0l98 700h83l-43 -311h170l-11 -78h-170l-44 -311h-83zM530 -12q-54 0 -94 18.5t-67 50.5t-40 72.5t-13 84.5q0 47 6.5 103.5t18 113t27.5 103.5q23 79 81.5 128.5t158.5 49.5q54 0 94 -18.5t67 -49.5l-34 -69q-20 28 -54 44.5t-81 16.5q-51 0 -93.5 -26.5
t-64.5 -96.5q-10 -31 -19 -69t-15 -78t-9.5 -79t-3.5 -72q0 -72 37.5 -111.5t105.5 -39.5q38 0 73.5 16t59.5 37l20 -78q-29 -24 -69.5 -37.5t-91.5 -13.5zM379 311l11 78h278l-11 -78h-278z" />
    <glyph glyph-name="uni0465" unicode="&#x465;" horiz-adv-x="628" 
d="M50 0l70 500h80l-29 -210h100l-10 -70h-100l-31 -220h-80zM401 -10q-56 0 -95.5 25.5t-59.5 66t-19 86.5q0 38 5.5 77t16.5 80q15 52 46 94t74.5 66.5t97.5 24.5q43 0 77 -12.5t66 -33.5l-29 -63q-28 17 -54.5 27t-61.5 10q-56 0 -92 -38t-53 -97q-9 -33 -13 -60.5
t-4 -56.5q0 -33 10.5 -61.5t33 -46.5t59.5 -18q18 0 33 4.5t34.5 17.5t48.5 38l60 -29q-54 -62 -98 -81.5t-83 -19.5zM299 220l10 70h211l-10 -70h-211z" />
    <glyph glyph-name="uni0466" unicode="&#x466;" horiz-adv-x="596" 
d="M-16 0l317 700h119l120 -700h-84l-86 546l-2 79q0 11 -7 11t-11 -9l-280 -627h-86zM224 0l32 223l-83 106l53 50l77 -90l103 90l41 -50l-111 -106l-32 -223h-80z" />
    <glyph glyph-name="uni0467" unicode="&#x467;" horiz-adv-x="508" 
d="M-31 0l273 500h92l133 -500h-75l-97 364l-3 58q0 7 -5.5 7t-8.5 -6l-230 -423h-79zM182 0l21 142l-63 79l36 72l61 -83q7 -11 17 -1l88 84l18 -72l-83 -79l-21 -142h-74z" />
    <glyph glyph-name="uni0468" unicode="&#x468;" horiz-adv-x="857" 
d="M55 0l98 700h83l-43 -311h270l-11 -78h-270l-44 -311h-83zM245 0l317 700h119l120 -700h-84l-86 546l-2 79q0 11 -7 11t-11 -9l-280 -627h-86zM485 0l32 223l-83 106l53 50l77 -90l103 90l41 -50l-111 -106l-32 -223h-80z" />
    <glyph glyph-name="uni0469" unicode="&#x469;" horiz-adv-x="710" 
d="M50 0l70 500h80l-29 -210h186l-10 -70h-186l-31 -220h-80zM171 0l273 500h92l133 -500h-75l-97 364l-3 58q0 7 -5.5 7t-8.5 -6l-230 -423h-79zM384 0l21 142l-63 79l36 72l61 -83q7 -11 17 -1l88 84l18 -72l-83 -79l-21 -142h-74z" />
    <glyph glyph-name="uni046A" unicode="&#x46a;" horiz-adv-x="784" 
d="M4 0l69 175q21 54 42.5 90.5t51 60t72.5 39.5l48 7q8 2 9 7.5t-4 12.5l-170 258l6 50h654l-6 -50l-237 -259q-7 -7 -6 -12t8 -7l32 -6q59 -24 83 -69t32 -126l20 -171h-84l-16 177q-6 68 -43.5 102.5t-120.5 34.5l-46 -314h-82l46 314q-82 0 -131.5 -36.5t-74.5 -104.5
l-66 -173h-86zM386 385h50l149 179l60 50q6 5 6 10.5t-7 5.5h-407q-8 0 -9.5 -5.5t4.5 -11.5l56 -56z" />
    <glyph glyph-name="uni046B" unicode="&#x46b;" horiz-adv-x="534" 
d="M-15 0q17 40 34 83.5t37 82t44.5 65t55.5 32.5q12 2 14 7.5t0 9.5l-83 170l6 50h428l-6 -50l-130 -174q-8 -12 2 -16q29 -12 46 -39t27 -63t16 -77t12 -81h-76q-4 39 -8.5 78t-14.5 71t-28.5 51.5t-49.5 19.5l-33 -220h-82l33 220q-31 0 -55 -19.5t-43.5 -51.5t-35 -71
t-30.5 -78h-80zM241 290h72l62 91l47 40q3 2 2.5 5.5t-5.5 3.5h-249q-5 0 -6.5 -3t0.5 -6l42 -47z" />
    <glyph glyph-name="uni046C" unicode="&#x46c;" horiz-adv-x="1014" 
d="M55 0l98 700h83l-43 -311h350l-11 -78h-350l-44 -311h-83zM234 0l69 175q21 54 42.5 90.5t51 60t72.5 39.5l48 7q8 2 9 7.5t-4 12.5l-170 258l6 50h654l-6 -50l-237 -259q-7 -7 -6 -12t8 -7l32 -6q59 -24 83 -69t32 -126l20 -171h-84l-16 177q-6 68 -43.5 102.5
t-120.5 34.5l-46 -314h-82l46 314q-82 0 -131.5 -36.5t-74.5 -104.5l-66 -173h-86zM616 385h50l149 179l60 50q6 5 6 10.5t-7 5.5h-407q-8 0 -9.5 -5.5t4.5 -11.5l56 -56z" />
    <glyph glyph-name="uni046D" unicode="&#x46d;" horiz-adv-x="735" 
d="M50 0l70 500h80l-29 -210h222l-10 -70h-222l-31 -220h-80zM186 0q17 40 34 83.5t37 82t44.5 65t55.5 32.5q12 2 14 7.5t0 9.5l-83 170l6 50h428l-6 -50l-130 -174q-8 -12 2 -16q29 -12 46 -39t27 -63t16 -77t12 -81h-76q-4 39 -8.5 78t-14.5 71t-28.5 51.5t-49.5 19.5
l-33 -220h-82l33 220q-31 0 -55 -19.5t-43.5 -51.5t-35 -71t-30.5 -78h-80zM442 290h72l62 91l47 40q3 2 2.5 5.5t-5.5 3.5h-249q-5 0 -6.5 -3t0.5 -6l42 -47z" />
    <glyph glyph-name="uni046E" unicode="&#x46e;" horiz-adv-x="518" 
d="M92 -224q-27 0 -59.5 14.5t-56 44t-23.5 72.5q0 87 58.5 126t152.5 39l42 -1q80 0 125 33t45 103q0 50 -31.5 78.5t-93.5 28.5h-114l11 76h109q72 0 112.5 40t40.5 102q0 46 -30 71.5t-85 25.5q-46 0 -90.5 -12t-75.5 -35l-21 71q48 27 95 40t105 13q57 0 97.5 -22.5
t62.5 -61.5t22 -87q0 -64 -35 -115t-89 -67q22 -10 43 -29.5t35.5 -48t14.5 -67.5q0 -68 -30 -116t-87 -73t-137 -25h-48q-57 0 -93 -17.5t-36 -59.5q0 -29 18.5 -48.5t67.5 -19.5q58 0 122 16t114 32l11 -76q-64 -19 -129 -32t-140 -13zM295 770l-74 150h73l31 -67l3 -31
q1 -6 4.5 -6t7.5 6l69 98h77l-116 -150h-75z" />
    <glyph glyph-name="uni046F" unicode="&#x46f;" horiz-adv-x="430" 
d="M155 -132q-45 0 -87 10.5t-66 36.5t-18 70q5 34 24 51t44.5 23t49.5 6h53q64 0 98.5 23t39.5 62q5 32 -16.5 52t-70.5 20h-107l10 69h103q42 0 68 21.5t31 59.5q5 32 -20 50.5t-75 18.5q-34 0 -71.5 -8.5t-67.5 -26.5l-20 66q42 23 81.5 31.5t82.5 8.5q31 0 62.5 -8
t57.5 -25t39.5 -45.5t7.5 -69.5q-6 -43 -33.5 -70.5t-62.5 -37.5q21 -6 40.5 -20.5t31 -38.5t6.5 -60q-7 -53 -38 -84.5t-78 -45.5t-105 -14h-40q-16 0 -30.5 -3t-17.5 -22q-1 -10 20.5 -19t70.5 -9q39 0 86.5 13t84.5 35l1 -71q-21 -13 -65.5 -31t-103.5 -18zM185 600
l-74 150h73l31 -67l3 -31q1 -6 4.5 -6t7.5 6l69 98h77l-116 -150h-75z" />
    <glyph glyph-name="uni0470" unicode="&#x470;" horiz-adv-x="723" 
d="M296 0l33 220q-78 4 -129.5 26.5t-77.5 71.5t-29 131l-9 251h84l5 -257q2 -74 41 -110.5t121 -36.5l59 404h82l-59 -404q83 0 141 38t68 113l35 253h85l-39 -255q-11 -76 -52 -124t-104 -72t-140 -29l-33 -220h-82z" />
    <glyph glyph-name="uni0471" unicode="&#x471;" horiz-adv-x="623" 
d="M202 -250l34 241q-30 3 -59 14t-53.5 35.5t-39.5 66.5t-16 108l-3 285h85l1 -286q0 -75 26 -108.5t69 -38.5l89 633h80l-89 -632q57 6 98 45.5t52 119.5l37 267h85l-43 -285q-15 -104 -81 -159t-158 -65l-34 -241h-80z" />
    <glyph glyph-name="uni0472" unicode="&#x472;" horiz-adv-x="606" 
d="M117 293l-25 64q24 26 55 37.5t67 11.5q46 0 74.5 -10t52 -19.5t53.5 -9.5q28 0 49 10t45 32l25 -64q-24 -26 -55 -37.5t-66 -11.5q-45 0 -74 9.5t-52.5 19.5t-54.5 10q-27 0 -48.5 -10t-45.5 -32zM278 -12q-72 0 -119.5 32t-71 84t-23.5 110q0 47 6.5 103.5t18 113
t27.5 103.5q23 79 81.5 128.5t158.5 49.5q73 0 120.5 -32t71 -83.5t23.5 -110.5q0 -46 -6.5 -101.5t-18 -112.5t-27.5 -106q-23 -79 -81.5 -128.5t-159.5 -49.5zM286 64q52 0 95 26.5t64 96.5q10 32 18.5 69.5t15 77.5t10 79t3.5 72q0 72 -37.5 111.5t-106.5 39.5
q-51 0 -93.5 -26.5t-64.5 -96.5q-10 -31 -19 -69t-15 -78t-9.5 -79t-3.5 -72q0 -72 37.5 -111.5t105.5 -39.5z" />
    <glyph glyph-name="uni0473" unicode="&#x473;" horiz-adv-x="510" 
d="M122 192l-18 64q17 26 39.5 37.5t47.5 11.5q33 0 53 -10t37 -19.5t39 -9.5q20 0 35 10t32 32l18 -64q-17 -26 -39 -37.5t-48 -11.5q-32 0 -52.5 10t-37.5 19.5t-39 9.5q-19 0 -34.5 -10t-32.5 -32zM223 -11q-59 0 -97.5 26.5t-57 68.5t-18.5 89q0 30 4 65.5t11.5 70
t17.5 60.5q26 68 80 105t123 37q60 0 98.5 -26.5t57 -68.5t18.5 -89q0 -29 -4 -65t-11.5 -70.5t-17.5 -60.5q-26 -68 -80 -105t-124 -37zM228 60q50 0 80 24.5t48 70.5q9 19 15 49t9.5 62.5t3.5 56.5q0 46 -23.5 81.5t-79.5 35.5q-49 0 -79 -24.5t-48 -70.5
q-8 -20 -14.5 -49.5t-10 -60.5t-3.5 -58q0 -46 23.5 -81.5t78.5 -35.5z" />
    <glyph glyph-name="uni0474" unicode="&#x474;" horiz-adv-x="578" 
d="M168 0l-85 700h84l62 -531l2 -91q0 -8 6 -9t9 6l191 489q27 68 69.5 103t107.5 35q13 0 24 -1l11 -1l-10 -70q-6 1 -11 1h-10q-40 0 -65 -22.5t-45 -74.5l-213 -534h-127z" />
    <glyph glyph-name="uni0475" unicode="&#x475;" horiz-adv-x="491" 
d="M140 0l-76 500h83l49 -346l2 -80q0 -8 6 -8.5t8 7.5l111 279q30 73 71.5 111.5t96.5 38.5q9 0 18 -2t15 -4l-12 -70q-9 3 -17 3q-35 0 -58 -29.5t-40 -68.5l-144 -331h-113z" />
    <glyph glyph-name="uni0476" unicode="&#x476;" horiz-adv-x="578" 
d="M168 0l-85 700h84l62 -531l2 -91q0 -8 6 -9t9 6l191 489q27 68 69.5 103t107.5 35q13 0 24 -1l11 -1l-10 -70q-6 1 -11 1h-10q-40 0 -65 -22.5t-45 -74.5l-213 -534h-127zM243 772l-79 150h83l79 -150h-83zM414 772l-79 150h83l79 -150h-83z" />
    <glyph glyph-name="uni0477" unicode="&#x477;" horiz-adv-x="491" 
d="M140 0l-76 500h83l49 -346l2 -80q0 -8 6 -8.5t8 7.5l111 279q30 73 71.5 111.5t96.5 38.5q9 0 18 -2t15 -4l-12 -70q-9 3 -17 3q-35 0 -58 -29.5t-40 -68.5l-144 -331h-113zM345 593l-79 150h83l79 -150h-83zM190 593l-79 150h83l79 -150h-83z" />
    <glyph glyph-name="uni0478" unicode="&#x478;" horiz-adv-x="1076" 
d="M278 -12q-72 0 -119.5 32t-71 84t-23.5 110q0 47 6.5 103.5t18 113t27.5 103.5q23 79 81.5 128.5t158.5 49.5q73 0 120.5 -32t71 -83.5t23.5 -110.5q0 -46 -6.5 -101.5t-18 -112.5t-27.5 -106q-23 -79 -81.5 -128.5t-159.5 -49.5zM286 64q52 0 95 26.5t64 96.5
q10 32 18.5 69.5t15 77.5t10 79t3.5 72q0 72 -37.5 111.5t-106.5 39.5q-51 0 -93.5 -26.5t-64.5 -96.5q-10 -31 -19 -69t-15 -78t-9.5 -79t-3.5 -72q0 -72 37.5 -111.5t105.5 -39.5zM643 -221l-22 66q53 21 82.5 49t53.5 77l20 41l-115 488h82l64 -269l8 -98q1 -8 6 -8t9 8
l165 367h85l-255 -550q-30 -65 -74 -107t-109 -64z" />
    <glyph glyph-name="uni0479" unicode="&#x479;" horiz-adv-x="932" 
d="M478 -221l-24 74q54 15 83.5 49.5t51.5 83.5l20 41l-113 473h82l76 -315l2 -56q0 -8 6 -6t8 10l19 52l75 167q29 73 71 111.5t97 38.5q9 0 18 -2t15 -4l-12 -70q-9 3 -17 3q-35 0 -58 -29.5t-40 -68.5l-178 -381q-29 -62 -74 -105.5t-108 -65.5zM223 -11
q-59 0 -97.5 26.5t-57 68.5t-18.5 89q0 30 4 65.5t11.5 70t17.5 60.5q26 68 80 105t123 37q60 0 98.5 -26.5t57 -68.5t18.5 -89q0 -29 -4 -65t-11.5 -70.5t-17.5 -60.5q-26 -68 -80 -105t-124 -37zM228 60q50 0 80 24.5t48 70.5q9 19 15 49t9.5 62.5t3.5 56.5
q0 46 -23.5 81.5t-79.5 35.5q-49 0 -79 -24.5t-48 -70.5q-8 -20 -14.5 -49.5t-10 -60.5t-3.5 -58q0 -46 23.5 -81.5t78.5 -35.5z" />
    <glyph glyph-name="uni0480" unicode="&#x480;" horiz-adv-x="502" 
d="M336 -140l22 137q-18 -5 -38.5 -7t-42.5 -2q-72 0 -119.5 32t-71 84t-23.5 110q0 47 6.5 103t18.5 112.5t27 104.5q25 78 82.5 128t157.5 50q54 0 94 -18.5t67 -49.5l-34 -69q-20 28 -54 44.5t-81 16.5q-51 0 -93.5 -26.5t-64.5 -96.5q-10 -31 -19 -69t-15 -78t-9.5 -79
t-3.5 -72q0 -72 37.5 -111.5t105.5 -39.5q38 0 74 8t77 18l2 -51l-29 -179h-73z" />
    <glyph glyph-name="uni0481" unicode="&#x481;" horiz-adv-x="450" 
d="M298 -141l23 154q-22 -14 -45.5 -18.5t-52.5 -4.5q-56 0 -95 25.5t-59 66t-20 86.5q0 38 5.5 77t16.5 80q15 52 46 94t74.5 66.5t97.5 24.5q43 0 77 -12.5t66 -33.5l-29 -63q-28 17 -54.5 27t-61.5 10q-56 0 -92 -38t-53 -97q-9 -33 -13 -60.5t-4 -56.5q0 -51 27 -88.5
t86 -37.5q34 0 60 3.5t63 13.5l43 14l-34 -232h-72z" />
    <glyph glyph-name="uni048A" unicode="&#x48a;" horiz-adv-x="634" 
d="M373 -140l137 216h70l-2 -19l-124 -197h-81zM55 0l98 700h83l-65 -466l-21 -69q-1 -7 3 -7.5t8 6.5l364 536h87l-98 -700h-83l65 466l19 67q3 8 -3.5 10.5t-12.5 -6.5l-358 -537h-86zM396 777q-55 0 -96 29t-46 87l61 13q7 -34 25.5 -52t54.5 -18q39 0 65.5 20t42.5 54
l58 -21q-22 -58 -68 -85t-97 -27z" />
    <glyph glyph-name="uni048B" unicode="&#x48b;" horiz-adv-x="530" 
d="M269 -130l128 200h68l-1 -13l-119 -187h-76zM188 -11q-73 0 -110 42t-27 114l47 355h80l-47 -361q-5 -40 15.5 -58t55.5 -18q11 0 25 4t40.5 17t73.5 40l49 376h80l-71 -500h-75l4 25q2 9 -3.5 12.5t-13.5 -1.5q-22 -12 -40 -22t-33 -18q-12 -3 -25 -5t-25 -2zM342 607
q-55 0 -96 29t-46 87l61 13q7 -34 25.5 -52t54.5 -18q39 0 65.5 20t42.5 54l58 -21q-22 -58 -68 -85t-97 -27z" />
    <glyph glyph-name="uni048C" unicode="&#x48c;" horiz-adv-x="576" 
d="M50 532l9 69h381l-9 -69h-381zM85 0l98 700h83l-41 -294h96q113 0 165 -51.5t52 -141.5q0 -70 -28.5 -117.5t-78 -71.5t-113.5 -24h-233zM178 70h143q64 0 102 40t38 98q0 64 -34 96t-106 32h-106z" />
    <glyph glyph-name="uni048D" unicode="&#x48d;" horiz-adv-x="509" 
d="M78 0l105 750h80l-60 -432h104q77 0 118.5 -36.5t41.5 -101.5q0 -83 -55.5 -131.5t-144.5 -48.5h-189zM168 70h105q53 0 83.5 31.5t30.5 78.5q0 32 -21.5 50t-63.5 18h-109zM35 431l10 69h361l-10 -69h-361z" />
    <glyph glyph-name="uni048E" unicode="&#x48e;" horiz-adv-x="551" 
d="M55 0l98 700h238q60 0 100 -25t58 -70t9 -107q-9 -61 -40.5 -104.5t-82.5 -64.5l37 -86l-64 -35l-44 104q-5 -1 -11 -1h-12h-162l-44 -311h-80zM189 384h143l-34 76l63 35l21 -47l-1 -40q0 -7 5 -9t11 1q34 17 55 43.5t26 64.5q6 38 -4.5 65t-35 42t-62.5 15h-153z" />
    <glyph glyph-name="uni048F" unicode="&#x48f;" horiz-adv-x="530" 
d="M32 -200l28 196l58 416l-58 28l33 70l101 -49q8 -5 15 2l13 13q24 13 42 20.5t35.5 10.5t39.5 3q23 0 48 -6.5t46.5 -24.5t35 -51.5t13.5 -87.5q0 -56 -11.5 -111t-35.5 -104q-13 -27 -32 -50t-42 -40l37 -89l-63 -35l-39 90q-36 -11 -72 -11q-15 0 -27 1t-26 2l-29 7
l-30 -200h-80zM218 60q14 0 26 1.5t23 5.5l-42 96l63 35l23 -54l6 -36q2 -7 5.5 -8.5t8.5 2.5q29 26 45 66.5t23 85.5t7 83q0 43 -12.5 64.5t-31 28.5t-37.5 7q-27 0 -57 -11.5t-74 -40.5l-44 -315q40 -10 68 -10z" />
    <glyph glyph-name="uni0490" unicode="&#x490;" horiz-adv-x="432" 
d="M55 0l98 700h259l20 140h73l-31 -218h-249l-87 -622h-83z" />
    <glyph glyph-name="uni0491" unicode="&#x491;" horiz-adv-x="410" 
d="M50 0l70 500h223l20 140h72l-30 -210h-215l-60 -430h-80z" />
    <glyph glyph-name="uni0492" unicode="&#x492;" horiz-adv-x="432" 
d="M24 317l10 69h291l-10 -69h-291zM55 0l98 700h332l-11 -78h-249l-87 -622h-83z" />
    <glyph glyph-name="uni0493" unicode="&#x493;" horiz-adv-x="468" 
d="M10 220l10 69h435l-10 -69h-435zM193 -12q-82 0 -124.5 39.5t-42.5 100.5q0 50 22.5 81.5t62 50t88.5 28.5l61 13q38 8 59 24.5t21 53.5q0 30 -23.5 45.5t-67.5 15.5q-43 0 -77.5 -11t-59.5 -27l-21 67q37 23 78.5 33t81.5 10q78 0 122 -38t43 -101q0 -47 -20 -75.5
t-54 -44t-78 -24.5l-63 -13q-42 -9 -70.5 -28.5t-28.5 -58.5q-1 -33 22.5 -51t69.5 -18q28 0 54 6t51 18t51 29l22 -70q-40 -26 -86.5 -40.5t-92.5 -14.5z" />
    <glyph glyph-name="uni0494" unicode="&#x494;" horiz-adv-x="569" 
d="M255 -149q-16 0 -30 3.5t-24 7.5l25 64q7 -2 16 -3t15 -1q41 0 72 24.5t52.5 65.5t32 90t10.5 98q-1 63 -29 91.5t-78 28.5q-43 0 -77.5 -9t-61.5 -23l-40 -288h-83l98 700h406l-11 -78h-323l-35 -248q-1 -8 4 -10.5t13 1.5l54 22q15 4 37 6t37 2q44 0 82.5 -18.5
t63.5 -60t26 -111.5q0 -70 -16 -134t-47.5 -113.5t-79 -78t-109.5 -28.5z" />
    <glyph glyph-name="uni0495" unicode="&#x495;" horiz-adv-x="510" 
d="M50 0l70 500h335l-10 -70h-255l-60 -430h-80zM237 -149q-16 0 -30 3.5t-24 7.5l25 64q7 -2 16 -3t15 -1q38 0 66 25.5t43.5 67t15.5 87.5q-2 55 -28 81.5t-64 26.5q-33 0 -64 -9t-53 -21l3 84l9 1q-3 -18 16 -10l58 26q15 2 25.5 3t23.5 1q36 0 72 -18t59.5 -58
t23.5 -105q0 -69 -25 -126.5t-71.5 -92t-111.5 -34.5z" />
    <glyph glyph-name="uni0496" unicode="&#x496;" horiz-adv-x="790" 
d="M662 -140l27 186l-12 30h89l-31 -216h-73zM-15 0l233 353l-133 347h88l115 -313h76l44 313h82l-44 -313h74l203 313h87l-227 -344l134 -356h-88l-117 312h-76l-44 -312h-82l44 312h-74l-205 -312h-90z" />
    <glyph glyph-name="uni0497" unicode="&#x497;" horiz-adv-x="715" 
d="M556 -130l24 170l-11 30h87l-28 -200h-72zM261 0l31 220h-87l9 70h88l29 210h80l-29 -210h88l-7 -70h-91l-31 -220h-80zM14 -9l10 72q35 8 57 31.5t38 60.5q9 19 15 49t9.5 62.5t3.5 56.5q0 38 -16 70t-54 43l10 72q47 -8 77 -35.5t44.5 -65.5t14.5 -80q0 -29 -4 -65
t-11.5 -70.5t-17.5 -60.5q-23 -61 -69.5 -97t-106.5 -43zM584 -7q-45 9 -75 35.5t-44.5 65t-14.5 79.5q0 30 4 65.5t11.5 70t17.5 60.5q23 62 69.5 97.5t105.5 42.5l-10 -72q-36 -7 -59 -30.5t-39 -61.5q-8 -20 -14.5 -49.5t-10 -60.5t-3.5 -58q0 -39 17 -71t55 -42z" />
    <glyph glyph-name="uni0498" unicode="&#x498;" horiz-adv-x="518" 
d="M205 -6q-63 0 -111 19t-89 55l36 66q29 -28 73.5 -45.5t91.5 -17.5q80 0 125 33t45 103q0 50 -31.5 78.5t-93.5 28.5h-114l11 76h109q72 0 112.5 40t40.5 102q0 46 -30 71.5t-85 25.5q-46 0 -90.5 -12t-75.5 -35l-21 71q48 27 95 40t105 13q57 0 97.5 -22.5t62.5 -61.5
t22 -87q0 -64 -35 -115t-89 -67q22 -10 43 -29.5t35.5 -48t14.5 -67.5q0 -68 -30 -116t-87 -73t-137 -25zM80 -250l22 62q59 0 95 15t40 40q3 19 -21.5 24t-79.5 5l46 126l58 -22l-23 -51q44 -5 68 -29t19 -60q-5 -35 -37.5 -60t-81.5 -37.5t-105 -12.5z" />
    <glyph glyph-name="uni0499" unicode="&#x499;" horiz-adv-x="448" 
d="M176 -7q-61 0 -104 13t-79 43l33 63q18 -16 40 -26.5t48 -15.5t55 -5q56 0 93 19.5t37 64.5q0 31 -22.5 52t-72.5 21h-78l10 69h83q41 0 69 23.5t28 57.5q0 32 -21 50.5t-72 18.5q-34 0 -71.5 -8.5t-67.5 -26.5l-20 66q42 23 81.5 31.5t82.5 8.5q53 0 90 -17.5
t56.5 -46.5t19.5 -65q0 -49 -28.5 -81.5t-66.5 -45.5q37 -12 57.5 -41.5t20.5 -69.5q0 -51 -30 -85t-76 -50.5t-95 -16.5zM50 -250l22 62q59 0 95 15t40 40q3 19 -21.5 24t-79.5 5l46 126l58 -22l-23 -51q44 -5 68 -29t19 -60q-5 -35 -37.5 -60t-81.5 -37.5t-105 -12.5z" />
    <glyph glyph-name="uni049A" unicode="&#x49a;" horiz-adv-x="552" 
d="M424 -140l27 186l-12 30h89l-31 -216h-73zM55 0l98 700h82l-44 -312h72l214 312h93l-237 -345l139 -355h-88l-121 313h-82l-44 -313h-82z" />
    <glyph glyph-name="uni049B" unicode="&#x49b;" horiz-adv-x="531" 
d="M372 -130l24 170l-11 30h87l-28 -200h-72zM50 0l70 500h82l-29 -210h68l156 210h87l-189 -259l-6 50l132 -291h-88l-102 220h-68l-31 -220h-82z" />
    <glyph glyph-name="uni049C" unicode="&#x49c;" horiz-adv-x="640" 
d="M55 0l98 700h82l-44 -312h70l25 172h74l-13 -90l-20 -66q-3 -10 4 -12t11 4l234 304h96l-280 -349q-4 -6 -2.5 -12.5t5.5 -11.5l44 -42l135 -285h-92l-149 310q-4 9 -11 6.5t-7 -12.5l-1 -78l-12 -76h-74l23 163h-70l-44 -313h-82z" />
    <glyph glyph-name="uni049D" unicode="&#x49d;" horiz-adv-x="553" 
d="M50 0l70 500h82l-30 -212h60l19 132h71l-11 -78l-18 -40q-5 -11 2.5 -13.5t14.5 7.5l153 204h94l-134 -171l-60 -64q-12 -12 -7 -22l42 -58l89 -185h-90l-96 210q-4 8 -10 7t-6 -11v-47l-9 -69h-71l17 123h-60l-30 -213h-82z" />
    <glyph glyph-name="uni049E" unicode="&#x49e;" horiz-adv-x="561" 
d="M53 553l9 66h291l-9 -66h-291zM78 0l98 700h82l-44 -312h72l214 312h93l-237 -345l139 -355h-88l-121 313h-82l-44 -313h-82z" />
    <glyph glyph-name="uni049F" unicode="&#x49f;" horiz-adv-x="467" 
d="M38 595l10 69h311l-10 -69h-311zM40 0l105 750h82l-62 -441h54l134 191h96l-149 -215l101 -285h-88l-82 239h-76l-33 -239h-82z" />
    <glyph glyph-name="uni04A0" unicode="&#x4a0;" horiz-adv-x="652" 
d="M83 630l10 70h220l-10 -70h-220zM169 0l98 700h82l-44 -312h72l214 312h93l-237 -345l139 -355h-88l-121 313h-82l-44 -313h-82z" />
    <glyph glyph-name="uni04A1" unicode="&#x4a1;" horiz-adv-x="648" 
d="M58 430l10 70h215l-10 -70h-215zM211 0l70 500h82l-29 -210h68l156 210h87l-189 -259l-6 50l132 -291h-88l-102 220h-68l-31 -220h-82z" />
    <glyph glyph-name="uni04A2" unicode="&#x4a2;" horiz-adv-x="631" 
d="M473 -140l27 186l-12 30h89l-31 -216h-73zM55 0l98 700h83l-43 -311h274l43 311h83l-98 -700h-83l44 311h-274l-44 -311h-83z" />
    <glyph glyph-name="uni04A3" unicode="&#x4a3;" horiz-adv-x="546" 
d="M387 -130l24 170l-11 30h87l-28 -200h-72zM50 0l70 500h80l-29 -210h207l29 210h80l-70 -500h-80l31 220h-207l-31 -220h-80z" />
    <glyph glyph-name="uni04A4" unicode="&#x4a4;" horiz-adv-x="759" 
d="M513 622l11 78h288l-11 -78h-288zM55 0l98 700h83l-43 -311h274l43 311h83l-98 -700h-83l44 311h-274l-44 -311h-83z" />
    <glyph glyph-name="uni04A5" unicode="&#x4a5;" horiz-adv-x="693" 
d="M425 430l10 70h250l-10 -70h-250zM50 0l70 500h80l-29 -210h207l29 210h80l-70 -500h-80l31 220h-207l-31 -220h-80z" />
    <glyph glyph-name="uni04A6" unicode="&#x4a6;" horiz-adv-x="911" 
d="M612 -149q-16 0 -30 3.5t-24 7.5l25 64q7 -2 16 -3t15 -1q41 0 72.5 24.5t52.5 65.5t32 90t10 98q-1 63 -29 91.5t-78 28.5q-43 0 -77.5 -9t-61.5 -23l12 86q-1 -8 4 -10.5t13 1.5l54 22q15 4 37 6t37 2q44 0 83 -18.5t64 -60t25 -111.5t-16 -134t-47.5 -113.5t-79 -78
t-109.5 -28.5zM55 0l98 700h440l-98 -700h-83l88 624h-274l-88 -624h-83z" />
    <glyph glyph-name="uni04A7" unicode="&#x4a7;" horiz-adv-x="826" 
d="M580 -150q-16 0 -30 3.5t-24 7.5l25 64q7 -2 16 -3t15 -1q37 0 64.5 25t43.5 63t16 77q0 63 -25.5 93t-65.5 30q-33 0 -64 -9t-53 -21l3 84l9 1q-3 -18 16 -10l58 26q15 2 25.5 3t23.5 1q38 0 73.5 -20t58.5 -63.5t23 -115.5q0 -64 -26 -117.5t-73 -85.5t-109 -32zM112 0
l62 447l39 -56l-101 49l33 70l101 -49q9 -4 15 2l12 12q32 20 59 28t61 7q77 -1 112 -48.5t25 -121.5l-46 -340h-80l46 344q7 52 -12 72.5t-55 20.5q-21 0 -40.5 -4.5t-45 -17t-66.5 -38.5l21 47l-60 -424h-80z" />
    <glyph glyph-name="uni04A8" unicode="&#x4a8;" horiz-adv-x="671" 
d="M260 -12q-94 0 -146 49t-54 146q0 51 5.5 102.5t14.5 103.5t18 102q18 74 55 123t93 73.5t129 24.5l-7 -78q-76 0 -126 -41.5t-67 -121.5q-9 -44 -17 -94.5t-13 -99.5t-5 -90q5 -121 122 -121q62 0 112.5 32t87 85t56.5 117t20 128q0 40 -14.5 68t-51.5 28q-48 0 -74 -32
t-35.5 -83t-9.5 -107q0 -77 20.5 -130.5t58.5 -81t91 -27.5q16 0 30.5 3t30.5 8l-6 -75q-18 -6 -34.5 -8t-30.5 -2q-54 0 -98.5 19.5t-76 58.5t-48.5 98t-17 137q0 87 19 154.5t63 105.5t119 38q49 0 82 -19.5t49 -57.5t13 -93q-5 -94 -33 -174.5t-75 -140.5t-110.5 -93.5
t-139.5 -33.5z" />
    <glyph glyph-name="uni04A9" unicode="&#x4a9;" horiz-adv-x="595" 
d="M423 -13q-67 0 -111 30t-65.5 80t-21.5 109q0 63 21.5 115t61.5 83t95 31q56 0 95.5 -37t39.5 -106q0 -60 -28 -114.5t-74.5 -97t-102 -67t-110.5 -24.5q-59 0 -97.5 26.5t-57 68.5t-18.5 89q0 30 4 65.5t11.5 70t17.5 60.5q26 68 80.5 105t127.5 37l-10 -71
q-49 0 -78.5 -24.5t-48.5 -70.5q-8 -20 -14.5 -49.5t-10 -60.5t-3.5 -58q0 -46 23 -82.5t75 -36.5q47 0 89 19t75 52t52 74.5t19 87.5q0 29 -15.5 48.5t-42.5 19.5q-34 0 -55.5 -22.5t-31.5 -58t-10 -74.5q0 -42 13.5 -76t42.5 -54t74 -20q18 0 37 3t39 9l-5 -67
q-25 -7 -43.5 -9.5t-38.5 -2.5z" />
    <glyph glyph-name="uni04AA" unicode="&#x4aa;" horiz-adv-x="503" 
d="M278 -12q-54 0 -94 18.5t-67 50.5t-40 72.5t-13 84.5q0 47 6.5 103.5t18 113t27.5 103.5q23 79 81.5 128.5t158.5 49.5q54 0 94 -18.5t67 -49.5l-34 -69q-20 28 -54 44.5t-81 16.5q-51 0 -93.5 -26.5t-64.5 -96.5q-10 -31 -19 -69t-15 -78t-9.5 -79t-3.5 -72
q0 -72 37.5 -111.5t105.5 -39.5q38 0 73.5 16t59.5 37l20 -78q-29 -24 -69.5 -37.5t-91.5 -13.5zM163 -250l22 62q59 0 95 15t40 40q3 19 -21.5 24t-79.5 5l46 126l58 -22l-23 -51q44 -5 68 -29t19 -60q-5 -35 -37.5 -60t-81.5 -37.5t-105 -12.5z" />
    <glyph glyph-name="uni04AB" unicode="&#x4ab;" horiz-adv-x="450" 
d="M223 -10q-56 0 -95.5 25.5t-59.5 66t-19 86.5q0 38 5.5 77t16.5 80q15 52 46 94t74.5 66.5t97.5 24.5q43 0 77 -12.5t66 -33.5l-29 -63q-28 17 -54.5 27t-61.5 10q-56 0 -92 -38t-53 -97q-9 -33 -13 -60.5t-4 -56.5q0 -33 10.5 -61.5t33 -46.5t59.5 -18q18 0 33 4.5
t34.5 17.5t48.5 38l60 -29q-54 -62 -98 -81.5t-83 -19.5zM80 -250l22 62q59 0 95 15t40 40q3 19 -21.5 24t-79.5 5l46 126l58 -22l-23 -51q44 -5 68 -29t19 -60q-5 -35 -37.5 -60t-81.5 -37.5t-105 -12.5z" />
    <glyph glyph-name="uni04AC" unicode="&#x4ac;" horiz-adv-x="488" 
d="M228 -140l27 186l-12 30h89l-31 -216h-73zM167 0l87 622h-172l11 78h428l-11 -78h-173l-87 -622h-83z" />
    <glyph glyph-name="uni04AD" unicode="&#x4ad;" horiz-adv-x="845" 
d="M686 -130l24 170l-11 30h87l-28 -200h-72zM60 0l62 449l29 -53l-91 44l33 70l101 -49q9 -4 15 2l12 12q35 20 63 28t61 7q41 -1 70 -18t45 -40q8 -11 18 -1l12 12q29 18 51 28t43.5 14.5t48.5 4.5q51 0 83 -22.5t45.5 -59.5t7.5 -81l-47 -347h-80l47 351q6 46 -13 66
t-54 20q-24 0 -47 -6.5t-54.5 -23t-82.5 -48.5l51 62l-57 -421h-80l47 354q5 41 -13 62t-52 21q-23 0 -44.5 -5t-53 -21t-85.5 -49l49 61l-60 -423h-80z" />
    <glyph glyph-name="Ustraitcy" unicode="&#x4ae;" horiz-adv-x="482" 
d="M166 0l47 330l-149 370h92l77 -216l15 -77q1 -5 5.5 -5.5t8.5 5.5l188 293h96l-253 -370l-47 -330h-80z" />
    <glyph glyph-name="ustraitcy" unicode="&#x4af;" horiz-adv-x="470" 
d="M158 0l-92 500h83l56 -333v-48q0 -7 4.5 -7.5t7.5 5.5l175 383h84l-238 -500h-80zM130 -200l28 200h80l-28 -200h-80z" />
    <glyph glyph-name="Ustraitstrokecy" unicode="&#x4b0;" horiz-adv-x="482" 
d="M78 261l9 69h330l-9 -69h-330zM166 0l47 330l-149 370h92l77 -216l15 -77q1 -5 5.5 -5.5t8.5 5.5l188 293h96l-253 -370l-47 -330h-80z" />
    <glyph glyph-name="ustraitstrokecy" unicode="&#x4b1;" horiz-adv-x="470" 
d="M28 -69l10 69h320l-10 -69h-320zM158 0l-92 500h83l56 -333v-48q0 -7 4.5 -7.5t7.5 5.5l175 383h84l-238 -500h-80zM130 -200l28 200h80l-28 -200h-80z" />
    <glyph glyph-name="uni04B2" unicode="&#x4b2;" horiz-adv-x="547" 
d="M419 -140l27 186l-12 30h89l-31 -216h-73zM-15 0l234 347l-134 353h87l72 -207l17 -71q2 -6 6 -6t8 6l179 278h96l-225 -334l142 -366h-83l-86 227l-14 68q-1 6 -5.5 6t-8.5 -6l-189 -295h-96z" />
    <glyph glyph-name="uni04B3" unicode="&#x4b3;" horiz-adv-x="513" 
d="M354 -130l24 170l-11 30h87l-28 -200h-72zM-6 0l194 250l-122 250h92l57 -131l16 -63q2 -5 6 -5t8 5l137 194h96l-192 -250l120 -250h-92l-52 124l-19 70q-1 5 -6 5t-9 -5l-138 -194h-96z" />
    <glyph glyph-name="uni04B4" unicode="&#x4b4;" horiz-adv-x="744" 
d="M83 630l10 70h410l-10 -70h-410zM169 0l98 700h83l-87 -624h275l87 624h83l-101 -700h-438zM586 -140l27 186l-12 30h89l-31 -216h-73z" />
    <glyph glyph-name="uni04B5" unicode="&#x4b5;" horiz-adv-x="635" 
d="M58 430l10 70h350l-10 -70h-350zM286 -11q-73 0 -110 42t-27 114l47 355h80l-47 -361q-5 -40 15.5 -58t55.5 -18q11 0 25 4t40.5 17t73.5 40l49 376h80l-71 -500h-75l4 25q2 9 -3.5 12.5t-13.5 -1.5q-22 -12 -40 -22t-33 -18q-12 -3 -25 -5t-25 -2zM476 -130l24 170
l-11 30h87l-28 -200h-72z" />
    <glyph glyph-name="uni04B6" unicode="&#x4b6;" horiz-adv-x="590" 
d="M432 -140l27 186l-12 30h89l-31 -216h-73zM370 0l42 296q1 10 -4 11.5t-13 -2.5l-54 -23q-14 -4 -37.5 -5.5t-39.5 -1.5q-44 0 -84.5 15.5t-66 49.5t-25.5 88q0 8 0.5 16.5t1.5 17.5l33 238h83l-33 -233q-1 -7 -1.5 -13.5t-0.5 -12.5q0 -49 27.5 -70t76.5 -21q45 0 84 9
t62 21l47 320h84l-98 -700h-84z" />
    <glyph glyph-name="uni04B7" unicode="&#x4b7;" horiz-adv-x="521" 
d="M362 -130l24 170l-11 30h87l-28 -200h-72zM312 0l28 201q2 10 -3 10.5t-14 -4.5l-55 -27q-12 -4 -26 -5t-30 -1q-41 0 -75.5 20t-52.5 59t-10 95l21 152h80l-22 -157q-7 -49 17 -73t74 -24q36 0 62 12t45 29l31 213h80l-70 -500h-80z" />
    <glyph glyph-name="uni04B8" unicode="&#x4b8;" horiz-adv-x="589" 
d="M380 0l42 296q1 10 -4 11.5t-13 -2.5l-54 -23q-7 -1 -16 -2t-20 -2l-20 -128h-70l20 126q-45 3 -84 23t-59.5 60t-11.5 103l33 238h83l-33 -233q-7 -57 14 -83t70 -33q7 0 10.5 3.5t3.5 8.5l-8 53l20 144h70l-32 -208q34 3 62.5 11t47.5 17l47 320h84l-98 -700h-84z" />
    <glyph glyph-name="uni04B9" unicode="&#x4b9;" horiz-adv-x="512" 
d="M312 0l28 201q2 10 -4 9.5t-21 -7.5q-25 -12 -38 -18t-15 -7l-13 -89h-70l12 86h-3q-36 5 -64.5 27.5t-42.5 59.5t-7 86l21 152h80l-22 -157q-5 -39 9.5 -63t45.5 -29q6 -1 9 2t2 8l-7 53l11 84h70l-21 -150q25 5 44.5 15.5t34.5 23.5l31 213h80l-70 -500h-80z" />
    <glyph glyph-name="uni04BA" unicode="&#x4ba;" horiz-adv-x="579" 
d="M237 700l-42 -296q-1 -10 4 -11.5t13 2.5l54 23q14 4 37.5 5.5t39.5 1.5q45 0 85 -15.5t65.5 -49t25.5 -88.5v-16.5t-2 -17.5l-33 -238h-83l33 233q1 7 1.5 13.5t0.5 12.5q0 49 -27.5 70t-76.5 21q-45 0 -84 -9t-62 -21l-47 -320h-84l98 700h84z" />
    <glyph glyph-name="uni04BB" unicode="&#x4bb;" horiz-adv-x="537" 
d="M342 0l47 355q5 42 -13.5 62t-53.5 20q-19 0 -38.5 -4t-46 -16.5t-68.5 -38.5l5 73q36 23 60 35.5t46.5 18t52.5 5.5q44 0 77 -20.5t49 -56.5t9 -84l-46 -349h-80zM50 0l105 750h80l-105 -750h-80z" />
    <glyph glyph-name="uni04BC" unicode="&#x4bc;" horiz-adv-x="670" 
d="M361 -12q-79 0 -126 28.5t-66.5 82t-19.5 129.5q3 108 22 197t55.5 153t92 99t130.5 35q60 0 103 -19t69 -57.5t33.5 -98t-3.5 -141.5l-38 -60h-454q-73 0 -104.5 39t-22.5 100q4 29 20 55.5t45 48.5l44 -59q-15 -9 -24 -23t-11 -30q-4 -22 8.5 -36.5t44.5 -13.5h412
q5 44 5 83t-10.5 69t-38.5 47.5t-81 17.5q-60 0 -101.5 -34t-67 -92t-37 -130.5t-11.5 -149.5q1 -51 13 -87t43.5 -55.5t88.5 -19.5q47 0 99.5 19t89.5 46l21 -72q-50 -38 -107 -54.5t-116 -16.5z" />
    <glyph glyph-name="uni04BD" unicode="&#x4bd;" horiz-adv-x="532" 
d="M115 236q-53 5 -80.5 34.5t-20.5 78.5q2 18 10.5 37t21.5 37l51 -32q-7 -12 -11.5 -23.5t-6.5 -23.5q-2 -19 7.5 -29.5t32.5 -14.5zM277 -10q-59 0 -98.5 25t-59 65.5t-19.5 86.5q0 47 5.5 84.5t11.5 60.5q16 62 49.5 106.5t79.5 68t96 23.5q55 0 88.5 -20t50 -54
t18.5 -76t-7 -87l-28 -40h-302l9 70h248q14 68 -7 102.5t-71 34.5q-48 0 -93 -39t-62 -119q-4 -21 -7 -38.5t-4 -52.5q-2 -63 26 -97t80 -34q32 0 55 13t59 47l60 -29q-49 -58 -93 -79.5t-85 -21.5z" />
    <glyph glyph-name="uni04BE" unicode="&#x4be;" horiz-adv-x="670" 
d="M361 -12q-79 0 -126 28.5t-66.5 82t-19.5 129.5q3 108 22 197t55.5 153t92 99t130.5 35q60 0 103 -19t69 -57.5t33.5 -98t-3.5 -141.5l-38 -60h-454q-73 0 -104.5 39t-22.5 100q4 29 20 55.5t45 48.5l44 -59q-15 -9 -24 -23t-11 -30q-4 -22 8.5 -36.5t44.5 -13.5h412
q5 44 5 83t-10.5 69t-38.5 47.5t-81 17.5q-60 0 -101.5 -34t-67 -92t-37 -130.5t-11.5 -149.5q1 -51 13 -87t43.5 -55.5t88.5 -19.5q47 0 99.5 19t89.5 46l21 -72q-50 -38 -107 -54.5t-116 -16.5zM401 -248q-49 5 -83 23t-49 51.5t-8 82.5q5 34 24.5 63.5t54.5 48.5l67 -22
q-28 -15 -48.5 -39.5t-25.5 -56.5q-6 -45 17.5 -63t69.5 -26z" />
    <glyph glyph-name="uni04BF" unicode="&#x4bf;" horiz-adv-x="532" 
d="M115 236q-53 5 -80.5 34.5t-20.5 78.5q2 18 10.5 37t21.5 37l51 -32q-7 -12 -11.5 -23.5t-6.5 -23.5q-2 -19 7.5 -29.5t32.5 -14.5zM277 -10q-59 0 -98.5 25t-59 65.5t-19.5 86.5q0 47 5.5 84.5t11.5 60.5q16 62 49.5 106.5t79.5 68t96 23.5q55 0 88.5 -20t50 -54
t18.5 -76t-7 -87l-28 -40h-302l9 70h248q14 68 -7 102.5t-71 34.5q-48 0 -93 -39t-62 -119q-4 -21 -7 -38.5t-4 -52.5q-2 -63 26 -97t80 -34q32 0 55 13t59 47l60 -29q-49 -58 -93 -79.5t-85 -21.5zM372 -227q-49 5 -83 23t-49 51.5t-8 82.5q5 34 24.5 63.5t54.5 48.5
l67 -22q-28 -15 -48.5 -39.5t-25.5 -56.5q-6 -45 17.5 -63t69.5 -26z" />
    <glyph glyph-name="uni04C0" unicode="&#x4c0;" horiz-adv-x="263" 
d="M55 0l98 700h83l-98 -700h-83z" />
    <glyph glyph-name="uni04C1" unicode="&#x4c1;" horiz-adv-x="792" 
d="M-6 0l233 353l-133 347h88l115 -313h76l44 313h82l-44 -313h74l203 313h87l-227 -344l134 -356h-88l-117 312h-76l-44 -312h-82l44 312h-74l-205 -312h-90zM480 777q-55 0 -96 29t-46 87l61 13q7 -34 25.5 -52t54.5 -18q39 0 65.5 20t42.5 54l58 -21q-22 -58 -68 -85
t-97 -27z" />
    <glyph glyph-name="uni04C2" unicode="&#x4c2;" horiz-adv-x="672" 
d="M261 0l31 220h-87l9 70h88l29 210h80l-29 -210h88l-7 -70h-91l-31 -220h-80zM14 -9l10 72q35 8 57 31.5t38 60.5q9 19 15 49t9.5 62.5t3.5 56.5q0 38 -16 70t-54 43l10 72q47 -8 77 -35.5t44.5 -65.5t14.5 -80q0 -29 -4 -65t-11.5 -70.5t-17.5 -60.5q-23 -61 -69.5 -97
t-106.5 -43zM584 -7q-45 9 -75 35.5t-44.5 65t-14.5 79.5q0 30 4 65.5t11.5 70t17.5 60.5q23 62 69.5 97.5t105.5 42.5l-10 -72q-36 -7 -59 -30.5t-39 -61.5q-8 -20 -14.5 -49.5t-10 -60.5t-3.5 -58q0 -39 17 -71t55 -42zM397 607q-55 0 -96 29t-46 87l61 13q7 -34 25.5 -52
t54.5 -18q39 0 65.5 20t42.5 54l58 -21q-22 -58 -68 -85t-97 -27z" />
    <glyph glyph-name="uni04C3" unicode="&#x4c3;" horiz-adv-x="567" 
d="M254 -149q-16 0 -30 3.5t-24 7.5l25 64q7 -2 16 -3t15 -1q56 0 92.5 37t54.5 96.5t18 129.5q0 68 -36.5 98.5t-110.5 30.5h-93l-44 -314h-82l98 700h82l-43 -297q-2 -14 16 -14h70l204 311h88l-211 -319q67 -14 105.5 -60.5t38.5 -133.5q0 -69 -15.5 -130t-47 -107
t-78 -72.5t-108.5 -26.5z" />
    <glyph glyph-name="uni04C4" unicode="&#x4c4;" horiz-adv-x="502" 
d="M225 -149q-16 0 -30 3.5t-24 7.5l25 64q7 -2 16 -3t15 -1q43 0 71 31t42.5 78t14.5 96t-25.5 71t-79.5 22h-45h-46l4 83l9 -1q-1 -12 15 -12h54h13.5h13.5q49 0 87 -16t60.5 -51.5t22.5 -94.5q0 -75 -24.5 -138t-72 -101t-116.5 -38zM50 0l70 500h80l-70 -500h-80z
M294 244l-65 32l167 224h92z" />
    <glyph glyph-name="uni04C5" unicode="&#x4c5;" horiz-adv-x="602" 
d="M341 -140l137 216h70l-2 -19l-124 -197h-81zM14 -16l-31 73q52 12 86 49.5t50 103.5q22 87 43.5 207.5t43.5 282.5h367l-98 -700h-83l87 622h-206q-19 -136 -38 -248t-40 -195q-20 -79 -67 -128.5t-114 -66.5z" />
    <glyph glyph-name="uni04C6" unicode="&#x4c6;" horiz-adv-x="528" 
d="M267 -130l128 200h68l-1 -13l-119 -187h-76zM12 -11l-20 67q32 9 58 29.5t37 51.5q13 34 24.5 80.5t24.5 115.5t28 167h306l-70 -500h-80l60 430h-150q-16 -100 -35 -180.5t-35 -134.5q-19 -55 -58 -85t-90 -41z" />
    <glyph glyph-name="uni04C7" unicode="&#x4c7;" horiz-adv-x="620" 
d="M322 -221l-23 70q47 17 76.5 57t36.5 94h83q-10 -79 -51.5 -135.5t-121.5 -85.5zM55 0l98 700h83l-43 -311h274l43 311h83l-98 -700h-83l44 311h-274l-44 -311h-83z" />
    <glyph glyph-name="uni04C8" unicode="&#x4c8;" horiz-adv-x="537" 
d="M246 -223l-23 70q43 13 74.5 54t39.5 99h80q-9 -64 -32 -107.5t-58 -71t-81 -44.5zM50 0l70 500h80l-29 -210h207l29 210h80l-70 -500h-80l31 220h-207l-31 -220h-80z" />
    <glyph glyph-name="uni04C9" unicode="&#x4c9;" horiz-adv-x="619" 
d="M358 -140l137 216h70l-2 -19l-124 -197h-81zM55 0l98 700h83l-43 -311h274l43 311h83l-98 -700h-83l44 311h-274l-44 -311h-83z" />
    <glyph glyph-name="uni04CA" unicode="&#x4ca;" horiz-adv-x="545" 
d="M284 -130l128 200h68l-1 -13l-119 -187h-76zM50 0l70 500h80l-29 -210h207l29 210h80l-70 -500h-80l31 220h-207l-31 -220h-80z" />
    <glyph glyph-name="uni04CB" unicode="&#x4cb;" horiz-adv-x="579" 
d="M278 -140l31 216h89l-20 -30l-27 -186h-73zM370 0l42 296q1 10 -4 11.5t-13 -2.5l-54 -23q-14 -4 -37.5 -5.5t-39.5 -1.5q-44 0 -84.5 15.5t-66 49.5t-25.5 88q0 8 0.5 16.5t1.5 17.5l33 238h83l-33 -233q-1 -7 -1.5 -13.5t-0.5 -12.5q0 -49 27.5 -70t76.5 -21q45 0 84 9
t62 21l47 320h84l-98 -700h-84z" />
    <glyph glyph-name="uni04CC" unicode="&#x4cc;" horiz-adv-x="512" 
d="M232 -130l28 200h87l-19 -30l-24 -170h-72zM312 0l28 201q2 10 -3 10.5t-14 -4.5l-55 -27q-12 -4 -26 -5t-30 -1q-41 0 -75.5 20t-52.5 59t-10 95l21 152h80l-22 -157q-7 -49 17 -73t74 -24q36 0 62 12t45 29l31 213h80l-70 -500h-80z" />
    <glyph glyph-name="uni04CD" unicode="&#x4cd;" horiz-adv-x="669" 
d="M408 -140l137 216h70l-2 -19l-124 -197h-81zM55 0l98 700h69l120 -312q3 -8 10.5 -8.5t13.5 8.5l210 312h71l-98 -700h-80l59 425l25 91q3 10 -3.5 11t-11.5 -7l-173 -255h-50l-103 259q-3 8 -8.5 6t-6.5 -13l-3 -86l-59 -431h-80z" />
    <glyph glyph-name="uni04CE" unicode="&#x4ce;" horiz-adv-x="672" 
d="M411 -130l128 200h68l-1 -13l-119 -187h-76zM50 0l70 500h67l125 -288q4 -9 11 -9t13 9l209 288h69l-70 -500h-78l38 257l24 82q2 5 -3.5 8t-10.5 -5l-177 -237h-50l-110 242q-3 8 -8.5 6t-5.5 -8l2 -86l-37 -259h-78z" />
    <glyph glyph-name="uni04CF" unicode="&#x4cf;" horiz-adv-x="250" 
d="M50 0l105 750h80l-105 -750h-80z" />
    <glyph glyph-name="uni04D0" unicode="&#x4d0;" 
d="M-15 0l296 700h120l110 -700h-84l-78 534l-2 89q0 6 -5.5 7t-7.5 -5l-263 -625h-86zM119 187l33 74h266l11 -74h-310zM157 627l10 73h141l-7 -73h-144zM367 777q-55 0 -96 29t-46 87l61 13q7 -34 25.5 -52t54.5 -18q39 0 65.5 20t42.5 54l58 -21q-22 -58 -68 -85t-97 -27
z" />
    <glyph glyph-name="uni04D1" unicode="&#x4d1;" horiz-adv-x="542" 
d="M201 -10q-24 0 -50.5 7t-50 25t-38 51t-14.5 85q0 58 11.5 113t35.5 104q30 61 85.5 98t125.5 37q15 0 27.5 -0.5t25.5 -2.5l38 -9q7 -1 16 0l57 6l-58 -416l58 -28l-33 -70l-106 53q-9 5 -14 -2l-14 -15q-27 -15 -44 -23t-30 -10.5t-28 -2.5zM212 63q14 0 27 3.5t35 16
t63 37.5l43 310q-40 10 -68 10q-57 0 -96.5 -29t-58.5 -73q-16 -37 -24.5 -81t-8.5 -104q0 -52 27 -71t61 -19zM350 607q-55 0 -96 29t-46 87l61 13q7 -34 25.5 -52t54.5 -18q39 0 65.5 20t42.5 54l58 -21q-22 -58 -68 -85t-97 -27z" />
    <glyph glyph-name="uni04D2" unicode="&#x4d2;" 
d="M-15 0l296 700h120l110 -700h-84l-78 534l-2 89q0 6 -5.5 7t-7.5 -5l-263 -625h-86zM119 187l33 74h266l11 -74h-310zM157 627l10 73h141l-7 -73h-144zM401 770l14 100h81l-14 -100h-81zM230 770l14 100h81l-14 -100h-81z" />
    <glyph glyph-name="uni04D3" unicode="&#x4d3;" horiz-adv-x="542" 
d="M201 -10q-24 0 -50.5 7t-50 25t-38 51t-14.5 85q0 58 11.5 113t35.5 104q30 61 85.5 98t125.5 37q15 0 27.5 -0.5t25.5 -2.5l38 -9q7 -1 16 0l57 6l-58 -416l58 -28l-33 -70l-106 53q-9 5 -14 -2l-14 -15q-27 -15 -44 -23t-30 -10.5t-28 -2.5zM212 63q14 0 27 3.5t35 16
t63 37.5l43 310q-40 10 -68 10q-57 0 -96.5 -29t-58.5 -73q-16 -37 -24.5 -81t-8.5 -104q0 -52 27 -71t61 -19zM384 600l14 100h81l-14 -100h-81zM213 600l14 100h81l-14 -100h-81z" />
    <glyph glyph-name="uni04D4" unicode="&#x4d4;" horiz-adv-x="840" 
d="M-15 0l263 622h-92l11 78h676l-11 -78h-325l-32 -233h308l-11 -78h-308l-33 -233h325l-11 -78h-403l26 187h-219l-78 -187h-86zM180 261h199l50 361h-99z" />
    <glyph glyph-name="uni04D5" unicode="&#x4d5;" horiz-adv-x="755" 
d="M178 -11q-49 0 -82 18.5t-48 51.5t-9 76q9 65 56 95.5t120 35.5l428 32q7 34 5 60t-12 44.5t-28 28t-43 9.5q-46 0 -89.5 -39t-57.5 -119q-6 -34 -9 -54.5t-3 -36.5q0 -63 24.5 -97t74.5 -34q32 0 55 13t59 47l60 -29q-49 -58 -93 -79.5t-85 -21.5q-44 0 -77 15.5
t-59 43.5q-5 6 -11 5t-11 -6l-24 -20q-37 -17 -58.5 -25.5t-39 -11t-43.5 -2.5zM183 58q24 0 43 5.5t40 16t50 23.5l32 225q8 55 -14.5 83t-81.5 28q-37 0 -69 -13t-67 -38l-19 72q42 29 81.5 40.5t79.5 11.5q85 0 129 -39l14 -27q9 -16 21 -2l25 27q26 16 56.5 27.5
t61.5 11.5q74 0 110.5 -33.5t45 -86.5t-4.5 -113l-28 -40l-473 -35q-40 -3 -66 -21t-31 -53q-4 -30 15 -50t50 -20z" />
    <glyph glyph-name="uni04D6" unicode="&#x4d6;" horiz-adv-x="553" 
d="M55 0l98 700h403l-11 -78h-325l-32 -233h308l-11 -78h-308l-33 -233h325l-11 -78h-403zM381 777q-55 0 -96 29t-46 87l61 13q7 -34 25.5 -52t54.5 -18q39 0 65.5 20t42.5 54l58 -21q-22 -58 -68 -85t-97 -27z" />
    <glyph glyph-name="uni04D7" unicode="&#x4d7;" horiz-adv-x="482" 
d="M227 -10q-59 0 -98.5 25t-59 65.5t-19.5 86.5q0 47 5.5 84.5t11.5 60.5q16 62 49.5 106.5t79 68t96.5 23.5q55 0 88.5 -20t50 -54t18.5 -76t-7 -87l-28 -40h-302l9 70h248q14 68 -7 102.5t-71 34.5q-48 0 -93 -39t-62 -119q-4 -21 -7 -38.5t-4 -52.5q-2 -63 26 -97
t80 -34q32 0 55 13t59 47l60 -29q-49 -58 -93 -79.5t-85 -21.5zM309 607q-55 0 -96 29t-46 87l61 13q7 -34 25.5 -52t54.5 -18q39 0 65.5 20t42.5 54l58 -21q-22 -58 -68 -85t-97 -27z" />
    <glyph glyph-name="uni04D8" unicode="&#x4d8;" horiz-adv-x="606" 
d="M270 -12q-60 0 -103.5 19t-69.5 57.5t-33.5 98t4.5 141.5l8 62h403q7 55 8.5 103.5t-10 85.5t-43 58t-90.5 21q-47 0 -99 -19t-90 -46l-21 72q50 38 107 54.5t117 16.5q105 0 158 -56t54 -165q0 -104 -15 -195t-49.5 -160.5t-92.5 -108.5t-143 -39zM272 66q82 0 131.5 59
t62.5 162h-318q-5 -45 -5.5 -85t10 -70.5t39 -48t80.5 -17.5z" />
    <glyph glyph-name="uni04D9" unicode="&#x4d9;" horiz-adv-x="482" 
d="M255 510q60 0 99 -25t58.5 -65t19.5 -87t-5.5 -84.5t-11.5 -60.5q-15 -62 -49 -106.5t-79.5 -68t-96.5 -23.5q-55 0 -88.5 20t-50 54t-18.5 76t7 87l28 40h302l-9 -70h-248q-14 -67 7.5 -102t70.5 -35q48 0 93 39t62 119q5 21 7.5 39t3.5 52q2 63 -25.5 97t-80.5 34
q-32 0 -55 -12.5t-59 -47.5l-60 29q50 59 93.5 80t84.5 21z" />
    <glyph glyph-name="uni04DA" unicode="&#x4da;" horiz-adv-x="606" 
d="M270 -12q-60 0 -103.5 19t-69.5 57.5t-33.5 98t4.5 141.5l8 62h403q7 55 8.5 103.5t-10 85.5t-43 58t-90.5 21q-47 0 -99 -19t-90 -46l-21 72q50 38 107 54.5t117 16.5q105 0 158 -56t54 -165q0 -104 -15 -195t-49.5 -160.5t-92.5 -108.5t-143 -39zM272 66q82 0 131.5 59
t62.5 162h-318q-5 -45 -5.5 -85t10 -70.5t39 -48t80.5 -17.5zM421 770l14 100h81l-14 -100h-81zM250 770l14 100h81l-14 -100h-81z" />
    <glyph glyph-name="uni04DB" unicode="&#x4db;" horiz-adv-x="481" 
d="M321 600l14 100h81l-14 -100h-81zM150 600l14 100h81l-14 -100h-81zM255 510q60 0 99 -25t58.5 -65t19.5 -87t-5.5 -84.5t-11.5 -60.5q-15 -62 -49 -106.5t-79.5 -68t-96.5 -23.5q-55 0 -88.5 20t-50 54t-18.5 76t7 87l28 40h302l-9 -70h-248q-14 -67 7.5 -102t70.5 -35
q48 0 93 39t62 119q5 21 7.5 39t3.5 52q2 63 -25.5 97t-80.5 34q-32 0 -55 -12.5t-59 -47.5l-60 29q50 59 93.5 80t84.5 21z" />
    <glyph glyph-name="uni04DC" unicode="&#x4dc;" horiz-adv-x="792" 
d="M-6 0l233 353l-133 347h88l115 -313h76l44 313h82l-44 -313h74l203 313h87l-227 -344l134 -356h-88l-117 312h-76l-44 -312h-82l44 312h-74l-205 -312h-90zM514 770l14 100h81l-14 -100h-81zM343 770l14 100h81l-14 -100h-81z" />
    <glyph glyph-name="uni04DD" unicode="&#x4dd;" horiz-adv-x="672" 
d="M261 0l31 220h-87l9 70h88l29 210h80l-29 -210h88l-7 -70h-91l-31 -220h-80zM14 -9l10 72q35 8 57 31.5t38 60.5q9 19 15 49t9.5 62.5t3.5 56.5q0 38 -16 70t-54 43l10 72q47 -8 77 -35.5t44.5 -65.5t14.5 -80q0 -29 -4 -65t-11.5 -70.5t-17.5 -60.5q-23 -61 -69.5 -97
t-106.5 -43zM584 -7q-45 9 -75 35.5t-44.5 65t-14.5 79.5q0 30 4 65.5t11.5 70t17.5 60.5q23 62 69.5 97.5t105.5 42.5l-10 -72q-36 -7 -59 -30.5t-39 -61.5q-8 -20 -14.5 -49.5t-10 -60.5t-3.5 -58q0 -39 17 -71t55 -42zM431 600l14 100h81l-14 -100h-81zM260 600l14 100
h81l-14 -100h-81z" />
    <glyph glyph-name="uni04DE" unicode="&#x4de;" horiz-adv-x="518" 
d="M205 -6q-63 0 -111 19t-89 55l36 66q29 -28 73.5 -45.5t91.5 -17.5q80 0 125 33t45 103q0 50 -31.5 78.5t-93.5 28.5h-114l11 76h109q72 0 112.5 40t40.5 102q0 46 -30 71.5t-85 25.5q-46 0 -90.5 -12t-75.5 -35l-21 71q48 27 95 40t105 13q57 0 97.5 -22.5t62.5 -61.5
t22 -87q0 -64 -35 -115t-89 -67q22 -10 43 -29.5t35.5 -48t14.5 -67.5q0 -68 -30 -116t-87 -73t-137 -25zM362 770l14 100h81l-14 -100h-81zM191 770l14 100h81l-14 -100h-81z" />
    <glyph glyph-name="uni04DF" unicode="&#x4df;" horiz-adv-x="448" 
d="M176 -7q-61 0 -104 13t-79 43l33 63q18 -16 40 -26.5t48 -15.5t55 -5q56 0 93 19.5t37 64.5q0 31 -22.5 52t-72.5 21h-78l10 69h83q41 0 69 23.5t28 57.5q0 32 -21 50.5t-72 18.5q-34 0 -71.5 -8.5t-67.5 -26.5l-20 66q42 23 81.5 31.5t82.5 8.5q53 0 90 -17.5
t56.5 -46.5t19.5 -65q0 -49 -28.5 -81.5t-66.5 -45.5q37 -12 57.5 -41.5t20.5 -69.5q0 -51 -30 -85t-76 -50.5t-95 -16.5zM298 600l14 100h81l-14 -100h-81zM127 600l14 100h81l-14 -100h-81z" />
    <glyph glyph-name="uni04E0" unicode="&#x4e0;" horiz-adv-x="488" 
d="M185 -6q-63 0 -111 19t-89 55l36 66q29 -28 73 -45.5t92 -17.5q84 0 130.5 42.5t46.5 115.5q-1 48 -41 76.5t-131 28.5h-65l5 46l190 205l51 32q5 4 3.5 8.5t-6.5 4.5h-281l10 70h389l-6 -48l-248 -267l-47 22q83 0 140.5 -19t88 -58t29.5 -99q0 -55 -19 -99t-53.5 -75
t-82 -47t-104.5 -16z" />
    <glyph glyph-name="uni04E1" unicode="&#x4e1;" horiz-adv-x="444" 
d="M137 -206q-48 0 -84.5 12t-67.5 34l23 64q26 -17 55 -25.5t65 -8.5q83 0 131.5 43t49.5 108q1 52 -35 82.5t-116 30.5h-59l5 46l158 194l51 41q5 4 4 9.5t-8 5.5h-249l10 70h359l-6 -48l-226 -269l-42 24q82 0 134 -23.5t77 -66t25 -100.5q0 -65 -32.5 -115.5t-90 -79
t-131.5 -28.5z" />
    <glyph glyph-name="uni04E2" unicode="&#x4e2;" horiz-adv-x="639" 
d="M55 0l98 700h83l-65 -466l-21 -69q-1 -7 3 -7.5t8 6.5l364 536h87l-98 -700h-83l65 466l19 67q3 8 -3.5 10.5t-12.5 -6.5l-358 -537h-86zM262 780l8 60h250l-8 -60h-250z" />
    <glyph glyph-name="uni04E3" unicode="&#x4e3;" horiz-adv-x="520" 
d="M188 -11q-73 0 -110 42t-27 114l47 355h80l-47 -361q-5 -40 15.5 -58t55.5 -18q11 0 25 4t40.5 17t73.5 40l49 376h80l-71 -500h-75l4 25q2 9 -3.5 12.5t-13.5 -1.5q-22 -12 -40 -22t-33 -18q-12 -3 -25 -5t-25 -2zM208 610l8 60h250l-8 -60h-250z" />
    <glyph glyph-name="uni04E4" unicode="&#x4e4;" horiz-adv-x="639" 
d="M55 0l98 700h83l-65 -466l-21 -69q-1 -7 3 -7.5t8 6.5l364 536h87l-98 -700h-83l65 466l19 67q3 8 -3.5 10.5t-12.5 -6.5l-358 -537h-86zM430 770l14 100h81l-14 -100h-81zM259 770l14 100h81l-14 -100h-81z" />
    <glyph glyph-name="uni04E5" unicode="&#x4e5;" horiz-adv-x="520" 
d="M188 -11q-73 0 -110 42t-27 114l47 355h80l-47 -361q-5 -40 15.5 -58t55.5 -18q11 0 25 4t40.5 17t73.5 40l49 376h80l-71 -500h-75l4 25q2 9 -3.5 12.5t-13.5 -1.5q-22 -12 -40 -22t-33 -18q-12 -3 -25 -5t-25 -2zM376 600l14 100h81l-14 -100h-81zM205 600l14 100h81
l-14 -100h-81z" />
    <glyph glyph-name="uni04E6" unicode="&#x4e6;" horiz-adv-x="606" 
d="M278 -12q-72 0 -119.5 32t-71 84t-23.5 110q0 47 6.5 103.5t18 113t27.5 103.5q23 79 81.5 128.5t158.5 49.5q73 0 120.5 -32t71 -83.5t23.5 -110.5q0 -46 -6.5 -101.5t-18 -112.5t-27.5 -106q-23 -79 -81.5 -128.5t-159.5 -49.5zM286 64q52 0 95 26.5t64 96.5
q10 32 18.5 69.5t15 77.5t10 79t3.5 72q0 72 -37.5 111.5t-106.5 39.5q-51 0 -93.5 -26.5t-64.5 -96.5q-10 -31 -19 -69t-15 -78t-9.5 -79t-3.5 -72q0 -72 37.5 -111.5t105.5 -39.5zM421 770l14 100h81l-14 -100h-81zM250 770l14 100h81l-14 -100h-81z" />
    <glyph glyph-name="uni04E7" unicode="&#x4e7;" horiz-adv-x="510" 
d="M223 -11q-59 0 -97.5 26.5t-57 68.5t-18.5 89q0 30 4 65.5t11.5 70t17.5 60.5q26 68 80 105t123 37q60 0 98.5 -26.5t57 -68.5t18.5 -89q0 -29 -4 -65t-11.5 -70.5t-17.5 -60.5q-26 -68 -80 -105t-124 -37zM228 60q50 0 80 24.5t48 70.5q9 19 15 49t9.5 62.5t3.5 56.5
q0 46 -23.5 81.5t-79.5 35.5q-49 0 -79 -24.5t-48 -70.5q-8 -20 -14.5 -49.5t-10 -60.5t-3.5 -58q0 -46 23.5 -81.5t78.5 -35.5zM349 600l14 100h81l-14 -100h-81zM178 600l14 100h81l-14 -100h-81z" />
    <glyph glyph-name="uni04E8" unicode="&#x4e8;" horiz-adv-x="606" 
d="M107 315v69h421v-69h-421zM278 -12q-72 0 -119.5 32t-71 84t-23.5 110q0 47 6.5 103.5t18 113t27.5 103.5q23 79 81.5 128.5t158.5 49.5q73 0 120.5 -32t71 -83.5t23.5 -110.5q0 -46 -6.5 -101.5t-18 -112.5t-27.5 -106q-23 -79 -81.5 -128.5t-159.5 -49.5zM286 64
q52 0 95 26.5t64 96.5q10 32 18.5 69.5t15 77.5t10 79t3.5 72q0 72 -37.5 111.5t-106.5 39.5q-51 0 -93.5 -26.5t-64.5 -96.5q-10 -31 -19 -69t-15 -78t-9.5 -79t-3.5 -72q0 -72 37.5 -111.5t105.5 -39.5z" />
    <glyph glyph-name="uni04E9" unicode="&#x4e9;" horiz-adv-x="510" 
d="M109 215v69h291v-69h-291zM223 -11q-59 0 -97.5 26.5t-57 68.5t-18.5 89q0 30 4 65.5t11.5 70t17.5 60.5q26 68 80 105t123 37q60 0 98.5 -26.5t57 -68.5t18.5 -89q0 -29 -4 -65t-11.5 -70.5t-17.5 -60.5q-26 -68 -80 -105t-124 -37zM228 60q50 0 80 24.5t48 70.5
q9 19 15 49t9.5 62.5t3.5 56.5q0 46 -23.5 81.5t-79.5 35.5q-49 0 -79 -24.5t-48 -70.5q-8 -20 -14.5 -49.5t-10 -60.5t-3.5 -58q0 -46 23.5 -81.5t78.5 -35.5z" />
    <glyph glyph-name="uni04EA" unicode="&#x4ea;" horiz-adv-x="606" 
d="M107 315v69h421v-69h-421zM278 -12q-72 0 -119.5 32t-71 84t-23.5 110q0 47 6.5 103.5t18 113t27.5 103.5q23 79 81.5 128.5t158.5 49.5q73 0 120.5 -32t71 -83.5t23.5 -110.5q0 -46 -6.5 -101.5t-18 -112.5t-27.5 -106q-23 -79 -81.5 -128.5t-159.5 -49.5zM286 64
q52 0 95 26.5t64 96.5q10 32 18.5 69.5t15 77.5t10 79t3.5 72q0 72 -37.5 111.5t-106.5 39.5q-51 0 -93.5 -26.5t-64.5 -96.5q-10 -31 -19 -69t-15 -78t-9.5 -79t-3.5 -72q0 -72 37.5 -111.5t105.5 -39.5zM425 770l14 100h81l-14 -100h-81zM254 770l14 100h81l-14 -100h-81z
" />
    <glyph glyph-name="uni04EB" unicode="&#x4eb;" horiz-adv-x="510" 
d="M109 215v69h291v-69h-291zM223 -11q-59 0 -97.5 26.5t-57 68.5t-18.5 89q0 30 4 65.5t11.5 70t17.5 60.5q26 68 80 105t123 37q60 0 98.5 -26.5t57 -68.5t18.5 -89q0 -29 -4 -65t-11.5 -70.5t-17.5 -60.5q-26 -68 -80 -105t-124 -37zM228 60q50 0 80 24.5t48 70.5
q9 19 15 49t9.5 62.5t3.5 56.5q0 46 -23.5 81.5t-79.5 35.5q-49 0 -79 -24.5t-48 -70.5q-8 -20 -14.5 -49.5t-10 -60.5t-3.5 -58q0 -46 23.5 -81.5t78.5 -35.5zM349 600l14 100h81l-14 -100h-81zM178 600l14 100h81l-14 -100h-81z" />
    <glyph glyph-name="uni04EC" unicode="&#x4ec;" horiz-adv-x="513" 
d="M167 -12q-43 0 -84 15t-73 45l39 73q28 -26 62.5 -40.5t74.5 -14.5q71 0 116 38.5t60 114.5q9 47 17 96.5t13.5 97t5.5 87.5q0 69 -33.5 101.5t-97.5 32.5q-37 0 -75 -13t-73 -39l-13 68q41 30 87.5 46t92.5 16q65 0 108.5 -30.5t65.5 -79t22 -102.5q0 -35 -6.5 -86.5
t-15.5 -103.5t-18 -91q-18 -83 -55.5 -134t-92.5 -74t-127 -23zM126 311l11 78h278l-11 -78h-278zM355 770l14 100h81l-14 -100h-81zM184 770l14 100h81l-14 -100h-81z" />
    <glyph glyph-name="uni04ED" unicode="&#x4ed;" horiz-adv-x="461" 
d="M178 -11q-38 0 -82 10.5t-87 45.5l25 70q31 -29 68.5 -42t74.5 -13q63 0 96 34.5t46 93.5q7 29 12 65t5 67q0 56 -25 88t-85 32q-38 0 -69 -10t-64 -28l-19 67q38 22 73 32.5t80 10.5q62 0 103 -25t61.5 -65.5t19.5 -88.5q0 -46 -6.5 -90t-17.5 -88q-20 -73 -72 -119.5
t-137 -46.5zM121 220l10 70h211l-10 -70h-211zM314 600l14 100h81l-14 -100h-81zM143 600l14 100h81l-14 -100h-81z" />
    <glyph glyph-name="uni04EE" unicode="&#x4ee;" horiz-adv-x="507" 
d="M25 -12q-27 0 -48 7t-35 17l28 67q14 -9 27.5 -13t30.5 -4q38 0 66 22.5t50 55.5l-51 560h81l30 -402l-8 -64q-1 -10 5.5 -11.5t10.5 5.5l275 472h88l-306 -510q-48 -81 -89.5 -124.5t-79 -60.5t-75.5 -17zM216 780l8 60h250l-8 -60h-250z" />
    <glyph glyph-name="uni04EF" unicode="&#x4ef;" horiz-adv-x="470" 
d="M37 -221l-22 66q53 21 82.5 49t53.5 77l20 41l-115 488h82l64 -269l8 -98q1 -8 6 -8t9 8l165 367h85l-255 -550q-30 -65 -74 -107t-109 -64zM156 610l8 60h250l-8 -60h-250z" />
    <glyph glyph-name="uni04F0" unicode="&#x4f0;" horiz-adv-x="507" 
d="M25 -12q-27 0 -48 7t-35 17l28 67q14 -9 27.5 -13t30.5 -4q38 0 66 22.5t50 55.5l-51 560h81l30 -402l-8 -64q-1 -10 5.5 -11.5t10.5 5.5l275 472h88l-306 -510q-48 -81 -89.5 -124.5t-79 -60.5t-75.5 -17zM384 770l14 100h81l-14 -100h-81zM213 770l14 100h81l-14 -100
h-81z" />
    <glyph glyph-name="uni04F1" unicode="&#x4f1;" horiz-adv-x="470" 
d="M37 -221l-22 66q53 21 82.5 49t53.5 77l20 41l-115 488h82l64 -269l8 -98q1 -8 6 -8t9 8l165 367h85l-255 -550q-30 -65 -74 -107t-109 -64zM324 600l14 100h81l-14 -100h-81zM153 600l14 100h81l-14 -100h-81z" />
    <glyph glyph-name="uni04F2" unicode="&#x4f2;" horiz-adv-x="507" 
d="M25 -12q-27 0 -48 7t-35 17l28 67q14 -9 27.5 -13t30.5 -4q38 0 66 22.5t50 55.5l-51 560h81l30 -402l-8 -64q-1 -10 5.5 -11.5t10.5 5.5l275 472h88l-306 -510q-48 -81 -89.5 -124.5t-79 -60.5t-75.5 -17zM224 770l121 150h87l-121 -150h-87zM397 770l121 150h87
l-121 -150h-87z" />
    <glyph glyph-name="uni04F3" unicode="&#x4f3;" horiz-adv-x="470" 
d="M37 -221l-22 66q53 21 82.5 49t53.5 77l20 41l-115 488h82l64 -269l8 -98q1 -8 6 -8t9 8l165 367h85l-255 -550q-30 -65 -74 -107t-109 -64zM164 600l121 150h87l-121 -150h-87zM337 600l121 150h87l-121 -150h-87z" />
    <glyph glyph-name="uni04F4" unicode="&#x4f4;" horiz-adv-x="579" 
d="M370 0l42 296q1 10 -4 11.5t-13 -2.5l-54 -23q-14 -4 -37.5 -5.5t-39.5 -1.5q-44 0 -84.5 15.5t-66 49.5t-25.5 88q0 8 0.5 16.5t1.5 17.5l33 238h83l-33 -233q-1 -7 -1.5 -13.5t-0.5 -12.5q0 -49 27.5 -70t76.5 -21q45 0 84 9t62 21l47 320h84l-98 -700h-84zM393 770
l14 100h81l-14 -100h-81zM222 770l14 100h81l-14 -100h-81z" />
    <glyph glyph-name="uni04F5" unicode="&#x4f5;" horiz-adv-x="512" 
d="M312 0l28 201q2 10 -3 10.5t-14 -4.5l-55 -27q-12 -4 -26 -5t-30 -1q-41 0 -75.5 20t-52.5 59t-10 95l21 152h80l-22 -157q-7 -49 17 -73t74 -24q36 0 62 12t45 29l31 213h80l-70 -500h-80zM337 600l14 100h81l-14 -100h-81zM166 600l14 100h81l-14 -100h-81z" />
    <glyph glyph-name="uni04F6" unicode="&#x4f6;" horiz-adv-x="432" 
d="M116 -140l27 186l-12 30h89l-31 -216h-73zM55 0l98 700h332l-11 -78h-249l-87 -622h-83z" />
    <glyph glyph-name="uni04F7" unicode="&#x4f7;" horiz-adv-x="424" 
d="M268 -130l19 136q-51 -18 -103 -18q-82 0 -124.5 39.5t-42.5 100.5q0 50 22.5 81.5t62 50t88.5 28.5l61 13q38 8 59 24.5t21 53.5q0 30 -23.5 45.5t-67.5 15.5q-43 0 -77.5 -11t-59.5 -27l-21 67q37 23 78.5 33t81.5 10q78 0 122 -38t43 -101q0 -47 -20 -75.5t-54 -44
t-78 -24.5l-63 -13q-42 -9 -70.5 -28.5t-28.5 -58.5q-1 -33 22.5 -51t69.5 -18q25 0 45.5 2.5t41 8t45 14.5t57.5 23l-34 -238h-72z" />
    <glyph glyph-name="uni04F8" unicode="&#x4f8;" horiz-adv-x="779" 
d="M55 0l98 700h83l-41 -294h96q113 0 165 -51.5t52 -141.5q0 -70 -28.5 -117.5t-78 -71.5t-113.5 -24h-233zM148 70h143q64 0 102 40t38 98q0 64 -34 96t-106 32h-106zM571 0l98 700h83l-98 -700h-83zM509 770l14 100h81l-14 -100h-81zM338 770l14 100h81l-14 -100h-81z
" />
    <glyph glyph-name="uni04F9" unicode="&#x4f9;" horiz-adv-x="690" 
d="M490 0l70 500h80l-70 -500h-80zM219 -10q-90 0 -123.5 42t-26.5 105l51 363h80l-25 -182h104q77 0 119 -36.5t41 -101.5q0 -56 -31 -99t-80.5 -67t-108.5 -24zM225 60q61 0 97.5 34t36.5 88q-1 31 -22.5 48.5t-62.5 17.5h-109l-17 -121q-2 -27 13.5 -47t63.5 -20z
M439 600l14 100h81l-14 -100h-81zM268 600l14 100h81l-14 -100h-81z" />
    <glyph glyph-name="uni04FA" unicode="&#x4fa;" horiz-adv-x="426" 
d="M-42 -221l-23 70q47 17 77 57.5t37 97.5l83 -4q-11 -79 -52.5 -135.5t-121.5 -85.5zM10 320l10 69h291l-10 -69h-291zM49 0l98 700h332l-11 -78h-249l-87 -622h-83z" />
    <glyph glyph-name="uni04FB" unicode="&#x4fb;" horiz-adv-x="468" 
d="M35 -224l-18 72q45 13 83.5 54.5t54.5 99.5l80 -4q-18 -64 -46.5 -107.5t-67 -70.5t-86.5 -44zM193 -12q-82 0 -124.5 39.5t-42.5 100.5q0 50 22.5 81.5t62 50t88.5 28.5l61 13q38 8 59 24.5t21 53.5q0 30 -23.5 45.5t-67.5 15.5q-43 0 -77.5 -11t-59.5 -27l-21 67
q37 23 78.5 33t81.5 10q78 0 122 -38t43 -101q0 -47 -20 -75.5t-54 -44t-78 -24.5l-63 -13q-42 -9 -70.5 -28.5t-28.5 -58.5q-1 -33 22.5 -51t69.5 -18q28 0 54 6t51 18t51 29l22 -70q-40 -26 -86.5 -40.5t-92.5 -14.5zM10 220l10 69h435l-10 -69h-435z" />
    <glyph glyph-name="uni04FC" unicode="&#x4fc;" horiz-adv-x="522" 
d="M264 -223l-23 70q62 15 94.5 56t33.5 97q0 46 -19 94l-52 133l-14 68q-1 6 -5.5 6t-8.5 -6l-189 -295h-96l236 352l-136 348h87l72 -207l17 -71q2 -6 6 -6t8 6l179 278h96l-226 -339l93 -238q12 -32 20.5 -64.5t9.5 -66.5q0 -85 -48.5 -139.5t-134.5 -75.5z" />
    <glyph glyph-name="uni04FD" unicode="&#x4fd;" horiz-adv-x="472" 
d="M217 -223l-27 65q42 10 74.5 39.5t43 75t-17.5 105.5l-29 63l-18 69q-1 5 -6 5t-9 -5l-138 -194h-96l194 250l-122 250h92l57 -131l16 -63q2 -5 6 -5t8 5l137 194h96l-192 -250l68 -151q27 -60 27 -113t-21 -96t-58.5 -72t-84.5 -41z" />
    <glyph glyph-name="uni04FE" unicode="&#x4fe;" horiz-adv-x="562" 
d="M291 323v70h201v-70h-201zM70 323v70h201v-70h-201zM5 0l234 347l-134 353h87l72 -207l17 -71q2 -6 6 -6t8 6l179 278h96l-225 -334l142 -366h-83l-86 227l-14 68q-1 6 -5.5 6t-8.5 -6l-189 -295h-96z" />
    <glyph glyph-name="uni04FF" unicode="&#x4ff;" horiz-adv-x="492" 
d="M70 213v70h161v-70h-161zM271 213v70h151v-70h-151zM4 0l194 250l-122 250h92l57 -131l16 -63q2 -5 6 -5t8 5l137 194h96l-192 -250l120 -250h-92l-52 124l-19 70q-1 5 -6 5t-9 -5l-138 -194h-96z" />
    <glyph glyph-name="Wgrave" unicode="&#x1e80;" horiz-adv-x="615" 
d="M100 0l-12 700h73l9 -466l-5 -86q-1 -8 5.5 -9t8.5 6l135 355h57l35 -358q1 -7 6.5 -7t7.5 10l14 75l147 480h72l-207 -700h-85l-33 306q-1 11 -8.5 11.5t-11.5 -9.5l-123 -308h-85zM349 770l-79 150h83l79 -150h-83z" />
    <glyph glyph-name="wgrave" unicode="&#x1e81;" horiz-adv-x="580" 
d="M84 3l-9 497h72l5 -280l-4 -72q-1 -9 4.5 -9.5t9.5 9.5l134 352h57l33 -352q1 -10 7 -9.5t8 9.5l16 72l87 280h71l-150 -497h-77l-36 328q-1 12 -7 12t-11 -12l-131 -328h-79zM307 600l-79 150h83l79 -150h-83z" />
    <glyph glyph-name="Wacute" unicode="&#x1e82;" horiz-adv-x="615" 
d="M100 0l-12 700h73l9 -466l-5 -86q-1 -8 5.5 -9t8.5 6l135 355h57l35 -358q1 -7 6.5 -7t7.5 10l14 75l147 480h72l-207 -700h-85l-33 306q-1 11 -8.5 11.5t-11.5 -9.5l-123 -308h-85zM327 770l121 150h87l-121 -150h-87z" />
    <glyph glyph-name="wacute" unicode="&#x1e83;" horiz-adv-x="580" 
d="M84 3l-9 497h72l5 -280l-4 -72q-1 -9 4.5 -9.5t9.5 9.5l134 352h57l33 -352q1 -10 7 -9.5t8 9.5l16 72l87 280h71l-150 -497h-77l-36 328q-1 12 -7 12t-11 -12l-131 -328h-79zM285 600l121 150h87l-121 -150h-87z" />
    <glyph glyph-name="Wdieresis" unicode="&#x1e84;" horiz-adv-x="615" 
d="M100 0l-12 700h73l9 -466l-5 -86q-1 -8 5.5 -9t8.5 6l135 355h57l35 -358q1 -7 6.5 -7t7.5 10l14 75l147 480h72l-207 -700h-85l-33 306q-1 11 -8.5 11.5t-11.5 -9.5l-123 -308h-85zM426 770l14 100h81l-14 -100h-81zM255 770l14 100h81l-14 -100h-81z" />
    <glyph glyph-name="wdieresis" unicode="&#x1e85;" horiz-adv-x="580" 
d="M84 3l-9 497h72l5 -280l-4 -72q-1 -9 4.5 -9.5t9.5 9.5l134 352h57l33 -352q1 -10 7 -9.5t8 9.5l16 72l87 280h71l-150 -497h-77l-36 328q-1 12 -7 12t-11 -12l-131 -328h-79zM384 600l14 100h81l-14 -100h-81zM213 600l14 100h81l-14 -100h-81z" />
    <glyph glyph-name="Ygrave" unicode="&#x1ef2;" horiz-adv-x="482" 
d="M166 0l47 330l-149 370h92l77 -216l15 -77q1 -5 5.5 -5.5t8.5 5.5l188 293h96l-253 -370l-47 -330h-80zM282 770l-79 150h83l79 -150h-83z" />
    <glyph glyph-name="ygrave" unicode="&#x1ef3;" horiz-adv-x="470" 
d="M37 -221l-22 66q53 21 82.5 49t53.5 77l20 41l-115 488h82l64 -269l8 -98q1 -8 6 -8t9 8l165 367h85l-255 -550q-30 -65 -74 -107t-109 -64zM252 600l-79 150h83l79 -150h-83z" />
    <glyph glyph-name="uni2002" unicode="&#x2002;" horiz-adv-x="540" 
 />
    <glyph glyph-name="uni2003" unicode="&#x2003;" horiz-adv-x="1040" 
 />
    <glyph glyph-name="endash" unicode="&#x2013;" horiz-adv-x="540" 
d="M46 221l10 70h440l-10 -70h-440z" />
    <glyph glyph-name="emdash" unicode="&#x2014;" horiz-adv-x="712" 
d="M46 221l10 70h612l-10 -70h-612z" />
    <glyph glyph-name="quoteleft" unicode="&#x2018;" horiz-adv-x="185" 
d="M235 748l-12 -55q-42 -15 -71 -50t-38 -85l57 2l-14 -100h-105l9 68q10 65 33.5 109t59 70.5t81.5 40.5z" />
    <glyph glyph-name="quoteright" unicode="&#x2019;" horiz-adv-x="283" 
d="M80 462l12 55q42 15 71 50t38 85l-57 -2l14 100h105l-9 -68q-9 -65 -33 -109t-59.5 -70.5t-81.5 -40.5z" />
    <glyph glyph-name="quotesinglbase" unicode="&#x201a;" horiz-adv-x="275" 
d="M-60 -191l11 44q61 11 100.5 50.5t50.5 98.5l-57 -2l14 100h105l-12 -88q-8 -57 -36 -99.5t-73 -69t-103 -34.5z" />
    <glyph glyph-name="quotedblleft" unicode="&#x201c;" horiz-adv-x="473" 
d="M283 748l-12 -55q-42 -15 -71 -50t-38 -85l47 2l-14 -100h-95l9 68q10 65 33.5 109t59 70.5t81.5 40.5zM453 748l-12 -55q-42 -15 -71 -50t-38 -85l47 2l-14 -100h-95l9 68q10 65 33.5 109t59 70.5t81.5 40.5z" />
    <glyph glyph-name="quotedblright" unicode="&#x201d;" horiz-adv-x="453" 
d="M250 462l12 55q42 15 71 50t38 85l-47 -2l14 100h95l-9 -68q-9 -65 -33 -109t-59.5 -70.5t-81.5 -40.5zM80 462l12 55q42 15 71 50t38 85l-47 -2l14 100h95l-9 -68q-9 -65 -33 -109t-59.5 -70.5t-81.5 -40.5z" />
    <glyph glyph-name="quotedblbase" unicode="&#x201e;" horiz-adv-x="405" 
d="M110 -188l12 55q42 15 71 50t38 85l-47 -2l14 100h95l-9 -68q-9 -65 -33 -109t-59.5 -70.5t-81.5 -40.5zM-60 -188l12 55q42 15 71 50t38 85l-47 -2l14 100h95l-9 -68q-9 -65 -33 -109t-59.5 -70.5t-81.5 -40.5z" />
    <glyph glyph-name="dagger" unicode="&#x2020;" horiz-adv-x="526" 
d="M248 342l35 253h-115l7 47h115l19 132h57l-19 -132h114l-7 -47h-114l-35 -253h-57z" />
    <glyph glyph-name="bullet" unicode="&#x2022;" horiz-adv-x="352" 
d="M180 253q-43 0 -60 21.5t-17 53.5q0 58 22 90.5t74 32.5q46 0 62.5 -22.5t16.5 -54.5q0 -54 -23 -87.5t-75 -33.5z" />
    <glyph glyph-name="ellipsis" unicode="&#x2026;" horiz-adv-x="665" 
d="M255 0l14 100h85l-14 -100h-85zM455 0l14 100h85l-14 -100h-85zM55 0l14 100h85l-14 -100h-85z" />
    <glyph glyph-name="guilsinglleft" unicode="&#x2039;" horiz-adv-x="295" 
d="M129 52l-96 144l7 60l136 145h91l-169 -179q-4 -4 -4 -10t4 -9l27 -19l90 -132h-86z" />
    <glyph glyph-name="guilsinglright" unicode="&#x203a;" horiz-adv-x="295" 
d="M22 52l169 177q5 5 4.5 9.5t-5.5 7.5l-26 18l-92 137h87l96 -145l-7 -60l-136 -144h-90z" />
    <glyph glyph-name="fraction" unicode="&#x2044;" horiz-adv-x="265" 
d="M-119 0l440 700h88l-438 -700h-90z" />
    <glyph glyph-name="uni2070" unicode="&#x2070;" horiz-adv-x="480" 
d="M248 519l17 117h57l-17 -117h-57zM261 342q-73 0 -117 42.5t-44 111.5q0 47 9 100.5t24 98.5q19 56 63.5 87t113.5 31q49 0 85 -19.5t56.5 -53.5t20.5 -80q0 -45 -9 -99.5t-24 -99.5q-19 -57 -64 -88t-114 -31zM267 412q36 0 62.5 16.5t39.5 51.5q6 15 11 37.5t9 47.5
t6.5 48.5t2.5 42.5q0 42 -24.5 64.5t-69.5 22.5q-37 0 -63 -17t-38 -50q-6 -16 -11.5 -38.5t-9 -47.5t-6 -48.5t-2.5 -41.5q0 -43 24 -65.5t69 -22.5z" />
    <glyph glyph-name="uni2074" unicode="&#x2074;" horiz-adv-x="453" 
d="M280 350l17 122h-225l4 36l192 297h82l-178 -270h134l20 140h73l-20 -140h43l-8 -63h-44l-17 -122h-73z" />
    <glyph glyph-name="uni2075" unicode="&#x2075;" horiz-adv-x="398" 
d="M201 344q-49 0 -85 13.5t-64 36.5l32 60q20 -20 50.5 -31.5t67.5 -11.5q52 0 86.5 28t32.5 71q-2 35 -27.5 54t-65.5 19q-25 0 -48 -8t-46 -22l-36 30l42 222h266l-9 -62h-198l-21 -104q-1 -5 2.5 -7t8.5 -1l27 11q7 2 16.5 2.5t13.5 0.5q65 0 106 -36.5t41 -95.5
q0 -48 -24 -86.5t-67.5 -60.5t-100.5 -22z" />
    <glyph glyph-name="uni2076" unicode="&#x2076;" horiz-adv-x="429" 
d="M236 342q-44 0 -80.5 18t-58 50t-21.5 73q0 36 17.5 77.5t56.5 84.5l145 160h90l-148 -154q-4 -4 -1.5 -7t8.5 -1l33 14q7 1 12.5 1.5t10.5 0.5q39 0 70.5 -17t49.5 -45.5t18 -64.5q0 -53 -27 -96t-72.5 -68.5t-102.5 -25.5zM240 410q53 0 88.5 33t35.5 79q0 33 -26 55
t-64 22q-52 0 -88.5 -32t-36.5 -79q0 -36 27 -57t64 -21z" />
    <glyph glyph-name="uni2077" unicode="&#x2077;" horiz-adv-x="378" 
d="M40 350l262 386h-230l10 69h322l-6 -44l-84 -117l-21 -22q-4 -4 -2 -7.5t6 -3.5h86l-10 -66h-121l-133 -195h-79z" />
    <glyph glyph-name="uni2078" unicode="&#x2078;" horiz-adv-x="450" 
d="M256 342q-49 0 -89 17t-63.5 45.5t-23.5 62.5q0 24 6.5 42t17.5 31t23 20l64 18q5 2 5.5 5t-5.5 6q-16 9 -31 22.5t-24.5 32t-9.5 40.5q0 38 22 67t59.5 45.5t85.5 16.5q45 0 80 -18t55 -46t20 -59t-18.5 -55t-38.5 -33l-38 -8q-7 -1 -6.5 -5t5.5 -6q25 -10 43 -26
t27.5 -35.5t9.5 -40.5q0 -42 -23.5 -73.5t-63 -48.5t-89.5 -17zM255 405q47 0 76 21t29 52q0 32 -29.5 50.5t-79.5 29.5q-37 -3 -68 -24t-31 -56q0 -31 30 -52t73 -21zM284 610q46 9 69 30t23 48q0 29 -25.5 46t-61.5 17q-40 0 -66 -18.5t-26 -50.5q0 -25 23 -44t64 -28z
" />
    <glyph glyph-name="uni2079" unicode="&#x2079;" horiz-adv-x="429" 
d="M143 350l147 154q4 5 1.5 7.5t-7.5 0.5l-33 -14q-7 -1 -13 -1.5t-11 -0.5q-38 0 -69.5 17t-49.5 45.5t-18 64.5q0 53 27 96t72.5 68.5t101.5 25.5q45 0 81.5 -18t58 -49.5t21.5 -73.5q0 -37 -18 -78t-57 -84l-144 -160h-90zM253 556q53 0 89.5 32.5t36.5 78.5
q0 36 -26.5 57t-64.5 21q-52 0 -88 -32.5t-36 -79.5q0 -34 26 -55.5t63 -21.5z" />
    </font>
</defs>
</svg>
