<svg width="689" height="606" viewBox="0 0 689 606" fill="none" xmlns="http://www.w3.org/2000/svg">
<path d="M0 0V147.572H61.4458V61.4124H147.78V0H0Z" fill="#2E404A"/>
<path d="M365.998 0V61.4124H459.077V111.494L520.79 147.572V0H365.998Z" fill="#2E404A"/>
<path d="M0 327.747V468.317H147.78L111.651 406.423H61.4458V327.747H0Z" fill="#2E404A"/>
<path d="M638.008 234.639L660.756 217.482C671.515 209.465 678.74 202.249 682.487 195.889C686.18 189.529 688.054 182.741 688.054 175.472C688.054 167.294 685.324 160.078 679.864 153.825C674.405 147.572 666.858 142.708 657.117 139.34C647.429 135.973 636.296 134.263 623.717 134.263C607.178 134.263 593.102 136.989 581.433 142.44C569.765 147.892 560.88 155.322 554.832 164.728L595.296 181.511C597.544 177.61 600.809 174.616 605.091 172.479C609.319 170.341 613.869 169.272 618.74 169.272C623.717 169.272 627.571 170.18 630.194 171.998C632.87 173.815 634.155 176.38 634.155 179.641C634.155 182.26 633.298 184.986 631.639 187.711C629.98 190.491 626.661 193.805 621.63 197.706L564.145 241.801V269.114H687.946V234.639H638.008Z" fill="#FFAF34"/>
<path d="M520.683 468.316L519.934 234.158H448.479L366.694 358.907L282.715 234.158H211.26V468.316H290.476V365.268L346.462 447.258H384.785L440.772 361.58L441.468 468.316H520.683Z" fill="#FFAF34"/>
<path d="M348.336 529.569V564.257L314.455 529.569H289.727V605.893H319.058V571.258L352.939 605.893H377.667V529.569H348.336Z" fill="#2E404A"/>
<path d="M150.831 529.569V605.893H224.962V586.491H180.377V576.443H224.962V557.95H180.377V548.97H224.962V529.569H150.831Z" fill="#2E404A"/>
<path d="M438.363 529.569V549.558H464.483V605.893H494.564V549.558H520.683V529.569H438.363Z" fill="#2E404A"/>
<path d="M53.2566 558.27C53.2566 561.103 52.2396 563.295 50.2057 564.845C48.1718 566.395 45.1209 567.196 41.0531 567.196H30.0806V549.291H41.0531C45.1209 549.291 48.1718 550.093 50.2057 551.643C52.2396 553.246 53.2566 555.438 53.2566 558.27ZM79.2693 572.595C82.1596 568.533 83.6048 563.776 83.6048 558.324C83.6048 552.498 81.9455 547.42 78.627 543.038C75.3085 538.655 70.5984 535.341 64.4967 532.989C58.3949 530.691 51.2227 529.515 42.9799 529.515H0V605.84H30.0806V586.652H38.2163V586.705C38.9656 586.705 40.1432 586.652 41.5348 586.598L51.9185 606H84.0865L68.511 581.2C69.3138 580.826 70.2237 580.505 70.9731 580.077C74.3986 577.993 77.1819 575.481 79.2693 572.595Z" fill="#2E404A"/>
</svg>
