<svg xmlns="http://www.w3.org/2000/svg" xmlns:xlink="http://www.w3.org/1999/xlink" xml:space="preserve" id="Слой_1" x="0" y="0" style="enable-background:new 0 0 622.1 550" version="1.1" viewBox="0 0 622.1 550"><style>.st2{fill:#1b1c20}.st3{clip-path:url(#SVGID_4_)}.st6{fill:#39363a}.st7{clip-path:url(#SVGID_10_)}</style><path d="M213.7 164H172v-29.3h41.6V164zM591.1 28.5H29.2v388.8h561.9V28.5z" style="fill:#a9dde1"/><defs><path id="SVGID_1_" d="M8.3 9.2h599.1v529.7H8.3z"/></defs><clipPath id="SVGID_2_"><use xlink:href="#SVGID_1_" style="overflow:visible"/></clipPath><path d="M527.5 538.9H308.8v-95.3H321v82.8h206.6v12.5zM310 537.6h216.2v-9.9H319.7v-82.8H310v92.7z" class="st2" style="clip-path:url(#SVGID_2_)"/><path d="m306.7 172.1-2.3-3.7.5-.3 57-35.6 2.3 3.7-.5.3-57 35.6zm-.6-3.3 1 1.6 55.4-34.6-1-1.6-55.4 34.6zm135 5.6-57.5-36 2.3-3.7 57.5 36-2.3 3.7zM385.4 138l55.4 34.6 1-1.6-55.4-34.6-1 1.6zm143-81.1-57.5-36 2.3-3.7 57.5 36-2.3 3.7zm-55.8-36.4L528 55.1l1-1.6L473.6 19l-1 1.5zm-68.2 423.1-2.3-3.8.5-.3 57.6-34.6 2.3 3.8-.5.3-57.6 34.6zm-.5-3.3 1 1.6 56-33.6-1-1.6-56 33.6zM233.2 125.9l-3.7-2.3 28.7-45.8 3.7 2.3-28.7 45.8zm-2-2.8 1.6 1 27.3-43.7-1.6-1-27.3 43.7zm21.9 336H94.3v-43h158.8v43zm-157.5-1.3h156.2v-40.5H95.6v40.5z" class="st2"/><path d="M253.1 440.4H94.3v-6.5h158.8v6.5zm-157.5-1.2h156.2v-4H95.6v4zM28 29.7h1.3v127.8H28zm54.5-1.2h1.3v129.7h-1.3z" class="st2"/><defs><path id="SVGID_3_" d="M8.3 9.2h599.1v529.7H8.3z"/></defs><clipPath id="SVGID_4_"><use xlink:href="#SVGID_3_" style="overflow:visible"/></clipPath><g class="st3"><path d="M72.1 147.8H40.3c-3.9 0-7.1-3.7-7.1-8.2V47c0-4.5 3.2-8.2 7.1-8.2H72c3.9 0 7.1 3.7 7.1 8.2v92.7c0 4.5-3.2 8.1-7 8.1zM40.3 40.1c-3.2 0-5.8 3.1-5.8 6.9v92.7c0 3.8 2.6 6.9 5.8 6.9H72c3.2 0 5.8-3.1 5.8-6.9V47c0-3.8-2.6-6.9-5.8-6.9H40.3zm23.6 89.6H48.6c-4.5 0-8.2-3.8-8.2-8.4V56.6c0-4.6 3.7-8.4 8.2-8.4h15.2c4.5 0 8.2 3.8 8.2 8.4v64.7c.1 4.7-3.6 8.4-8.1 8.4zM48.6 49.5c-3.8 0-6.9 3.2-6.9 7.1v64.7c0 3.9 3.1 7.1 6.9 7.1h15.2c3.8 0 6.9-3.2 6.9-7.1V56.6c0-3.9-3.1-7.1-6.9-7.1H48.6z" class="st2"/></g><g class="st3"><path d="M56.2 57.5c-1.2 0-2.2-1-2.2-2.3s1-2.3 2.2-2.3c1.2 0 2.2 1 2.2 2.3s-1 2.3-2.2 2.3zm0-3.3c-.5 0-1 .4-1 1s.4 1 1 1c.5 0 1-.4 1-1 0-.5-.5-1-1-1z" class="st2"/></g><g class="st3"><path d="M189.7 43.5h-23.4c-2.5 0-3.2-2.1-3.2-3.2v-8.9c0-2.5 2.1-3.2 3.2-3.2h23.4c2.5 0 3.2 2.1 3.2 3.2v8.9c0 2.5-2.1 3.2-3.2 3.2zm-23.3-14c-.3 0-1.9.1-1.9 1.9v8.9c0 .3.1 1.9 1.9 1.9h23.4c.3 0 1.9-.1 1.9-1.9v-8.9c0-.3-.1-1.9-1.9-1.9h-23.4z" class="st2"/></g><g class="st3"><path d="M177.5 74.8c-5.9 0-10.7-5.2-10.7-11.5 0-6.4 4.8-11.5 10.7-11.5 5.9 0 10.7 5.2 10.7 11.5 0 6.4-4.8 11.5-10.7 11.5zm0-21.8c-5.2 0-9.5 4.6-9.5 10.3 0 5.7 4.2 10.3 9.5 10.3 5.2 0 9.5-4.6 9.5-10.3 0-5.7-4.3-10.3-9.5-10.3z" class="st2"/></g><g class="st3"><path d="M177.8 77.7c-7.5 0-13.6-6.5-13.6-14.4 0-.8.1-1.7.2-2.5l.1-.4 2.9-18.1h21.7l2.1 18.3c.2.9.3 1.9.3 2.9-.1 7.7-6.2 14.2-13.7 14.2zm-11.9-18-.1.8c-.2.9-.3 1.9-.3 2.8 0 7.3 5.5 13.2 12.3 13.2s12.3-5.9 12.3-13.2c0-.9-.1-1.8-.3-2.7l-2-17.2h-19.5l-2.4 16.3z" class="st2"/></g><g class="st3"><path d="M178 35.5c-1 0-1.9-.8-1.9-1.9 0-1 .8-1.9 1.9-1.9 1 0 1.9.8 1.9 1.9 0 1-.8 1.9-1.9 1.9zm0-2.5c-.3 0-.6.3-.6.6s.3.6.6.6.6-.3.6-.6c.1-.3-.2-.6-.6-.6z" class="st2"/></g><g class="st3"><path d="M177.5 60.8c-1.6 0-2.9-1.3-2.9-2.9s1.3-2.9 2.9-2.9c1.6 0 2.9 1.3 2.9 2.9s-1.3 2.9-2.9 2.9zm0-4.5c-.9 0-1.6.7-1.6 1.6s.7 1.6 1.6 1.6c.9 0 1.6-.7 1.6-1.6s-.7-1.6-1.6-1.6z" class="st2"/></g><path d="M182.9 35.5c-.4 0-.6-.3-.6-.6v-2.5c0-.4.3-.6.6-.6s.6.3.6.6v2.5c.1.3-.2.6-.6.6z" class="st2"/><path d="M184.2 34.2h-2.5c-.4 0-.6-.3-.6-.6 0-.4.3-.6.6-.6h2.5c.4 0 .6.3.6.6s-.3.6-.6.6zm-11.1 1.3c-.4 0-.6-.3-.6-.6v-2.5c0-.4.3-.6.6-.6s.6.3.6.6v2.5c.1.3-.2.6-.6.6z" class="st2"/><path d="M174.4 34.2h-2.5c-.4 0-.6-.3-.6-.6 0-.4.3-.6.6-.6h2.5c.4 0 .6.3.6.6s-.3.6-.6.6zm-3.5 15c-.4 0-.6-.3-.6-.6V46c0-.4.3-.6.6-.6.4 0 .6.3.6.6v2.5c.1.4-.2.7-.6.7z" class="st2"/><path d="M172.2 47.9h-2.5c-.4 0-.6-.3-.6-.6s.3-.6.6-.6h2.5c.4 0 .6.3.6.6s-.3.6-.6.6zm12.9 1.3c-.4 0-.6-.3-.6-.6V46c0-.4.3-.6.6-.6s.6.3.6.6v2.5c.1.4-.2.7-.6.7z" class="st2"/><path d="M186.4 47.9h-2.5c-.4 0-.6-.3-.6-.6s.3-.6.6-.6h2.5c.4 0 .6.3.6.6s-.3.6-.6.6z" class="st2"/><defs><path id="SVGID_5_" d="M8.3 9.2h599.1v529.7H8.3z"/></defs><clipPath id="SVGID_6_"><use xlink:href="#SVGID_5_" style="overflow:visible"/></clipPath><path d="M104.3 55.8c-10 0-18.1-5-18.1-11.2v-17h36.1v16.2c0 .3.1.6.1.9 0 6-8.1 11.1-18.1 11.1zm-16.8-27v15.8c0 5.5 7.5 10 16.8 10s16.8-4.5 16.8-10V28.8H87.5zm16.8 23.8c-7.7 0-14-3.9-14-8.8s6.3-8.8 14-8.8 14 3.9 14 8.8-6.3 8.8-14 8.8zm0-16.3c-7 0-12.8 3.4-12.8 7.5s5.7 7.5 12.8 7.5c7 0 12.8-3.4 12.8-7.5s-5.8-7.5-12.8-7.5zm.4 7.2c-1.6 0-3-1.3-3-3s1.3-3 3-3c1.6 0 3 1.3 3 3s-1.3 3-3 3zm0-4.7c-.9 0-1.7.8-1.7 1.7s.8 1.7 1.7 1.7c.9 0 1.7-.8 1.7-1.7s-.7-1.7-1.7-1.7z" class="st2" style="clip-path:url(#SVGID_6_)"/><path d="M131.5 155.3H86.2v-45.2h45.3v45.2zM88.4 154h40.8l-20.4-20.4L88.4 154zm21.4-21.3 20.4 20.4v-40.7l-20.4 20.3zm-22.3-20.3v40.7l20.4-20.4-20.4-20.3zm.9-.9 20.4 20.4 20.4-20.4H88.4z" class="st2"/><defs><path id="SVGID_7_" d="M8.3 9.2h599.1v529.7H8.3z"/></defs><clipPath id="SVGID_8_"><use xlink:href="#SVGID_7_" style="overflow:visible"/></clipPath><path d="M74.3 209.9h-45V167h45v42.9zm-43.8-1.3H73v-40.3H30.5v40.3zm34.8-2.7H38.2c-2.9 0-5.2-2.3-5.2-5.2v-18.4c0-2.9 2.3-5.2 5.2-5.2h27.1c2.8 0 5.2 2.3 5.2 5.2v18.4c0 2.9-2.3 5.2-5.2 5.2zm-27.1-27.5c-2.1 0-3.9 1.7-3.9 3.9v18.4c0 2.1 1.7 3.9 3.9 3.9h27.1c2.1 0 3.9-1.7 3.9-3.9v-18.4c0-2.1-1.7-3.9-3.9-3.9H38.2zm13.7 8.8c-1.4 0-2.6-1.1-2.6-2.6 0-1.4 1.1-2.6 2.6-2.6 1.4 0 2.5 1.1 2.5 2.6.1 1.4-1.1 2.6-2.5 2.6zm0-3.8c-.7 0-1.2.6-1.2 1.3 0 .7.6 1.3 1.2 1.3.7 0 1.2-.6 1.2-1.3.1-.8-.5-1.3-1.2-1.3zm0-8.6c-1.4 0-2.6-1.1-2.6-2.6 0-1.4 1.1-2.6 2.6-2.6 1.4 0 2.5 1.1 2.5 2.6.1 1.5-1.1 2.6-2.5 2.6zm0-3.8c-.7 0-1.2.6-1.2 1.3 0 .7.6 1.3 1.2 1.3.7 0 1.2-.6 1.2-1.3.1-.7-.5-1.3-1.2-1.3z" class="st2" style="clip-path:url(#SVGID_8_)"/><path d="M362.2 131v286.2H249.4v40.5h163.1v-40.5h-41.6V217.5h11v-79.9h7.3v-6.8l-27 .2zM196 147.8h11.3V159H196v-11.2zm-19.3-8.8H188v10.5h-11.3V139zM9.5 10.4v447.4h98.1v-40.5H29.1V167h186.1v-28h79.6v-8h-59.1v-7.7h-8v7.7h-59.1v28H29.1V28h198.7v40.4h8V28h238.8V10.4H9.5zm543.1 0V28h35.8v102.7H454v8.6h134.4v278h-64.5v40.5h27.4v69.9h-27.4v10h37.7v-79.9h44.7L606 10.4h-53.4z" class="st6"/><defs><path id="SVGID_9_" d="M8.3 9.2h599.1v529.7H8.3z"/></defs><clipPath id="SVGID_10_"><use xlink:href="#SVGID_9_" style="overflow:visible"/></clipPath><g class="st7"><path d="M562.8 538.9h-40.1v-12.4h27.4V459h-27.4v-42.9h64.5V140.5H452.9v-11h134.4V29.2h-35.8v-20h55.8v1.2l.2 448.6h-44.7v79.9zm-37.7-2.4h35.3v-79.9h44.7l-.2-445h-51.1v15.3h35.8V132H455.2v6.2h134.4v280.3h-64.5v38.1h27.4v72.2h-27.4v7.7zM413.7 459H248.2v-42.9H361V129.8l29.3-.2v9.1H383v79.9h-11v197.3h41.6V459zm-163.1-2.4h160.7v-38.1h-41.6V216.4h11v-79.9h7.3v-4.4l-24.6.1v286.3H250.6v38.1zM108.9 459H8.3V9.2h467.5v20H237v40.4h-10.3V29.2H30.3v128.6h137.3v-28h59.1v-7.7H237v7.7h59.1v10.3h-79.6v28H30.3V416h78.5v43zm-98.2-2.4h95.8v-38.1H28V165.8h186.1v-28h79.6v-5.6h-59.1v-7.7H229v7.7h-59v28H28V26.8h201.1v40.4h5.6V26.8h238.8V11.6H10.7v445zm197.8-296.4h-13.7v-13.6h13.7v13.6zm-11.3-2.4h8.9V149h-8.9v8.8zm-8-7.1h-13.7v-12.9h13.7v12.9zm-11.3-2.4h8.9v-8.2h-8.9v8.2z" class="st2"/></g><g class="st7"><path d="M457.5 504.2v-17.5h-4.7l-4.4 1.7.6 3 4.1-.9c-.2.7-.2 1.4-.2 2.1v11.6h4.6zm-12-4.3c-1.2 0-1.6.4-1.6 1.6v1.1c0 1.2.4 1.6 1.6 1.6h1.1c1.2 0 1.6-.4 1.6-1.6v-1.1c0-1.2-.4-1.6-1.6-1.6h-1.1zm-15.8-9.8c1.3 0 3.1-.1 4.9-.1 1.8 0 2.3.2 2.3 1.7 0 1.2-.2 1.9-2.1 1.9h-3.3v3h3.3c1.9 0 2.3.6 2.3 2 0 1.8-.7 2.1-2.9 2.1-1.5 0-2.6 0-4.8-.2l-.2 3.4c2 .3 4.2.5 6.3.5 4.6 0 6.3-1.5 6.3-5.2 0-2.7-.8-4-3.2-4.4v-.1c2.3-.4 2.8-1.9 2.8-4.4 0-3.1-1.6-4.1-5.9-4.1-1.9 0-3.9.2-5.9.5l.1 3.4z" class="st2"/></g><g class="st7"><path d="m416.4 83 .1 2.7h5.3c-.3.4-.4.9-.6 1.3l-2.9 8.3h3.3l3.7-10.6c.3-.9-.3-1.6-1.2-1.6h-7.7zm-2.4 9.3c-.9 0-1.1.3-1.1 1.1v.8c0 .9.3 1.1 1.1 1.1h.8c.9 0 1.1-.3 1.1-1.1v-.8c0-.9-.3-1.1-1.1-1.1h-.8zm-7 .8c-1.4 0-1.6-.4-1.6-3.2.6-.3 1-.5 1.6-.5 1.2 0 1.4.3 1.4 1.6 0 1.5-.1 2.1-1.4 2.1m3.7-9.9c-1.3-.4-2.5-.4-3.2-.4-3.6 0-5.3.9-5.3 6.5 0 5 1.1 6.2 4.8 6.2 3.7 0 4.6-1.4 4.6-4.5 0-2.7-.8-3.8-3.6-3.8-1.1 0-1.8.2-2.5.7.1-2.3.5-2.7 2.1-2.7h3l.1-2z" class="st6"/></g><g class="st7"><path d="M445.4 63.5c.6-.3 1-.6 1.7-.6.8 0 1.2.3 1.2 2.3 0 2-.4 2.3-1.3 2.3-.6 0-1.1-.2-1.5-.3v-3.7zm-.6-2.8h-2.6v12.1h3.2v-1.9c0-.6 0-1.3-.1-1.9.8.6 1.8.8 2.8.8 2.2 0 3.4-1 3.4-4.5 0-3-.9-4.7-3.1-4.7-1.4 0-2.8.6-3.4 1.5l-.2-1.4zm-8.8 2.1c1.1 0 1.4.4 1.4 2.4 0 1.9-.3 2.4-1.4 2.4-1.1 0-1.4-.4-1.4-2.4s.3-2.4 1.4-2.4m0-2.3c-3.5 0-4.8 1.3-4.8 4.7 0 3.4 1.3 4.6 4.8 4.6s4.7-1.2 4.7-4.6c0-3.5-1.3-4.7-4.7-4.7m-10.2 6.9h-2.6c.4-1 .8-2.2 1-3.9.1-.5.3-.7.8-.7h.8v4.6zm4.5 0h-1.5v-6.7H424c-1.6 0-2.4.7-2.6 2.1-.2 1.5-.5 3-1 4.5h-1.1V72h2.1l.2-2.5h6.3l.2 2.5h2.1v-4.6zm-12.2 2.2v-8.8h-2.8l-2.8 4.2c-.3.4-.5.8-.7 1.3h-.1c.1-.5.1-.9.1-1.4v-4.2H409v8.8h2.8l2.8-4c.2-.4.6-1 .7-1.5h.1c-.1.6-.1 1-.1 1.6v4h2.8zm-16.8-6.1c.6-.3 1-.6 1.7-.6.8 0 1.2.3 1.2 2.3 0 2-.4 2.3-1.3 2.3-.6 0-1.1-.2-1.5-.3v-3.7zm-.6-2.8h-2.6v12.1h3.2v-1.9c0-.6 0-1.3-.1-1.9.8.6 1.8.8 2.8.8 2.2 0 3.4-1 3.4-4.5 0-3-.9-4.7-3.1-4.7-1.4 0-2.8.6-3.4 1.5l-.2-1.4zm-8.9 2.1c1.1 0 1.4.4 1.4 2.4 0 1.9-.3 2.4-1.4 2.4-1.1 0-1.4-.4-1.4-2.4s.3-2.4 1.4-2.4m0-2.3c-3.5 0-4.8 1.3-4.8 4.7 0 3.4 1.3 4.6 4.8 4.6s4.7-1.2 4.7-4.6c0-3.5-1.2-4.7-4.7-4.7m-9.6 2.6c2.4-.3 2.5-1.4 3.9-5.8h-3.4c-1 3.7-1.2 4.8-2.9 4.8h-.6c.1-.5.1-1 .1-1.5v-3.2H376v12.2h3.3v-4.1c0-.3-.1-.7-.1-1.1h.6c1.7 0 1.8.8 3.1 5.2h3.5c-1.5-5-1.7-6-4.2-6.3v-.2z" class="st6"/></g><g class="st7"><path d="M180.4 105.8h3.4c1.2 0 1.6.2 1.6 1.2 0 .8-.1 1.3-1.4 1.3h-2.3v2.1h2.3c1.3 0 1.6.4 1.6 1.4 0 1.2-.5 1.5-2 1.5-1.1 0-1.8 0-3.4-.1l-.1 2.4c1.4.2 2.9.3 4.4.3 3.2 0 4.4-1.1 4.4-3.7 0-1.9-.6-2.8-2.3-3.1v-.1c1.6-.2 2-1.3 2-3.1 0-2.2-1.1-2.9-4.1-2.9-1.3 0-2.7.1-4.1.3v2.5zm-3.6 6.9c-.9 0-1.1.3-1.1 1.1v.8c0 .9.3 1.1 1.1 1.1h.8c.9 0 1.1-.3 1.1-1.1v-.8c0-.9-.3-1.1-1.1-1.1h-.8zm-2.3-1.8H173v-5.1h-2.5l-.5 1.9v3.1h-2.4c-.3 0-.5-.2-.3-.5l2.7-6.9h-3.1l-3 7.8c-.4 1 .3 1.9 1.3 1.9h4.9v2.6h3v-2.6l1.4-.3v-1.9z" class="st6"/></g><g class="st7"><path d="M191.9 88h-3.4l-1.3 5.3c-.1.4-.2 1-.4 1.5h-.2c-.1-.5-.2-1-.2-1.5L185 88h-3.4l2.7 8.1c.1.5.5.8 1 .8h.6c-.2.4-.6.9-.9 1-.6.3-1.3.4-2.5.4l-.3 2.1c1.3.2 2.6.2 3.6-.2 1.4-.5 2.4-1.4 3-3.4l3.1-8.8zm-17.4 10.2 7-13.6h-2.6l-7 13.6h2.6zm-3.5-4.1c-1.1.1-2.1.1-3.9.1-1.5 0-1.9-.7-1.9-3.5s.4-3.5 1.9-3.5c1.6 0 2.4 0 3.6.1l.2-2.4c-1.2-.3-2-.4-3.9-.4-3.9 0-5.4 1.7-5.4 6.3 0 4.7 1.4 6.3 5.4 6.3 1.8 0 2.9-.1 4.1-.5l-.1-2.5z" class="st6"/></g><g class="st7"><path d="M486.5 298.7c2.4-.1 3.7-.1 5.5-.1 1.3 0 1.9.1 1.9.8 0 1-1.1 2.6-3.1 4.6l-3.9 4.1c-.5.6-.7 1.1-.7 1.9v2.5h13v-4.1h-5c-.8 0-1.6 0-2.5.2l4.3-4.2c2.3-2.4 2.7-3.5 2.7-5.5 0-3.4-2.5-4.2-6.2-4.2-1.9 0-3.7.1-6.3.6l.3 3.4zm-5 9.4c-1.2 0-1.6.4-1.6 1.6v1.1c0 1.2.4 1.6 1.6 1.6h1.1c1.2 0 1.6-.4 1.6-1.6v-1.1c0-1.2-.4-1.6-1.6-1.6h-1.1zm-4.8 4.3v-17.5H472l-4.4 1.7.6 3 4.1-.9c-.2.7-.2 1.4-.2 2.1v11.6h4.6zm-11.4 0v-17.5h-4.7l-4.4 1.7.6 3 4.1-.9c-.2.7-.2 1.4-.2 2.1v11.6h4.6z" class="st6"/></g><g class="st7"><path d="M568 271.3c0-.6.3-1 1.1-1h2.6v1.6c-.8.5-1.7.9-2.5.9s-1.2-.4-1.2-1v-.5zm-3.5-5c2.1-.1 4.1-.2 5.4-.2 1.3 0 1.7.4 1.7 1.4v.3h-4.2c-2.5 0-4 1.2-4 3.2v1.3c0 2.4 1.9 3.6 4.2 3.6 2.2 0 3.6-1.1 4.5-2.2l.4 1.8h3.7v-8c0-3.8-1.9-4.9-5.3-4.9-1.9 0-5 .3-6.9.6l.5 3.1zm-2.1.2V263h-12.6v3.5h4v9.1h4.6v-9.1h4zm-22.5 4.8c0-.6.3-1 1.1-1h2.6v1.6c-.8.5-1.7.9-2.5.9s-1.2-.4-1.2-1v-.5zm-3.4-5c2.1-.1 4.1-.2 5.4-.2 1.3 0 1.7.4 1.8 1.4v.3h-4.2c-2.5 0-4 1.2-4 3.2v1.3c0 2.4 1.9 3.6 4.2 3.6 2.2 0 3.6-1.1 4.5-2.2l.4 1.8h3.7v-8c0-3.8-1.9-4.9-5.3-4.9-1.9 0-5 .3-6.9.6l.4 3.1zm-3.2-3.3h-4.5v4.4h-3.9V263h-4.5v12.6h4.5v-5.1h3.9v5.1h4.5V263zm-21.3 0c-1 0-1.6.5-1.7 1.4l-1.1 4.7c-.1.6-.2 1.2-.3 1.9h-.2c-.1-.6-.1-1.2-.3-1.9l-1.1-4.7c-.2-.9-.8-1.4-1.7-1.4h-3.9c-1 0-1.6.5-1.6 1.6l-.3 11h4.2l.3-9.3h.3l1.5 6.1c.2.9.8 1.4 1.8 1.4h2.1c1 0 1.5-.5 1.7-1.4l1.5-6.1h.3l.3 9.3h4.2l-.3-11c0-1-.5-1.6-1.6-1.6H512zm-21 2.9c1.5 0 2 .6 2 3.4s-.4 3.4-2 3.4-2-.6-2-3.4c.1-2.7.5-3.4 2-3.4m0-3.2c-5 0-6.8 1.8-6.8 6.7 0 4.8 1.8 6.6 6.8 6.6 4.9 0 6.8-1.7 6.8-6.6 0-4.9-1.8-6.7-6.8-6.7m-12.6 6.3c2.9-.4 2.7-.7 4.4-6h-4.6c-1.1 4.2-1.2 4.6-3 4.6h-.6c.1-.5.2-1.1.2-1.6v-3h-4.6v12.6h4.6v-4c0-.3 0-.7-.2-1h1c1.3 0 1.4.4 2.8 5h4.8c-1.7-6-1.8-6.1-4.8-6.5v-.1zm-20.8-.3h-1.8c-1.2 0-1.4-.3-1.4-1.6 0-.9.2-1.2 1.4-1.2h1.8v2.8zm-4.9 1.6c-.8.1-2.1.3-2.4 1.4l-1 4h4.7l.8-3.4c.1-.6.4-.7 1.2-.7h1.7v4.1h4.5V263c-1.6-.2-2.9-.2-6.4-.2-4.6 0-5.8.9-5.8 4.1-.1 1.4.5 2.9 2.7 3.4zm-13.5 1c0-.6.3-1 1.1-1h2.6v1.6c-.8.5-1.7.9-2.5.9s-1.2-.4-1.2-1v-.5zm-3.4-5c2.1-.1 4.1-.2 5.4-.2 1.3 0 1.7.4 1.8 1.4v.3h-4.2c-2.5 0-4 1.2-4 3.2v1.3c0 2.4 1.9 3.6 4.2 3.6 2.2 0 3.6-1.1 4.5-2.2l.4 1.8h3.7v-8c0-3.8-1.9-4.9-5.3-4.9-1.9 0-5 .3-6.9.6l.4 3.1zm-3.2-3.3H425c-2.2 0-3.3 1.1-3.5 3.2-.2 2.3-.4 4.1-.7 5-.3 1-1 1-2.1 1.2l.5 3.4c2.8.5 5.3-.2 5.8-3.3.3-1.2.5-3.4.8-5.3.1-.7.4-1.1 1.2-1.1h1.1v9.5h4.6V263zm-15.4 12.7V263h-4l-4 6c-.4.6-.7 1.1-1 1.9h-.1c.1-.7.2-1.3.2-2V263h-4.1v12.6h4l3.9-5.8c.4-.6.8-1.4 1-2.1h.1c-.1.8-.2 1.5-.2 2.2v5.7h4.2zm-20.5-9.3c3.4-.5 3.5-2 5.3-8.3h-4.8c-1.6 5.2-1.9 6.8-3.6 6.8h-.8c.1-.7.2-1.5.2-2.2v-4.6h-4.5v4.6c0 .7.1 1.4.2 2.2h-.9c-1.7 0-2-1.6-3.5-6.8h-4.8c1.8 6.3 1.9 7.8 5.3 8.3v.2c-3.5.5-3.8 1.9-5.8 9.1h5c2-6.3 2.2-7.5 3.9-7.5h.9c-.1.6-.2 1.1-.2 1.6v5.9h4.5v-5.9c0-.5-.1-1.1-.2-1.6h.8c1.8 0 2 1.1 3.9 7.5h5c-2.1-7.2-2.3-8.5-5.8-9.1v-.2z" class="st6"/></g><g class="st7"><path d="M217.5 237.2c2.4-.1 3.7-.1 5.5-.1 1.3 0 1.9.1 1.9.8 0 1-1.1 2.6-3.1 4.6l-3.9 4.1c-.5.6-.7 1.1-.7 1.9v2.5h13v-4.1h-5c-.8 0-1.6 0-2.5.2l4.3-4.2c2.3-2.4 2.7-3.5 2.7-5.5 0-3.4-2.5-4.2-6.2-4.2-1.9 0-3.7.1-6.3.6l.3 3.4zm-5 9.4c-1.2 0-1.6.4-1.6 1.6v1.1c0 1.2.4 1.6 1.6 1.6h1.1c1.2 0 1.6-.4 1.6-1.6v-1.1c0-1.2-.4-1.6-1.6-1.6h-1.1zm-10 1.2c-2 0-2.2-.6-2.3-4.5.8-.5 1.4-.7 2.2-.7 1.7 0 2.1.4 2.1 2.3 0 2.1-.1 2.9-2 2.9m5.3-14.2c-1.8-.5-3.6-.5-4.5-.5-5.1 0-7.6 1.2-7.6 9.2 0 7.1 1.6 8.9 6.8 8.9 5.3 0 6.5-2.1 6.5-6.4 0-3.9-1.1-5.4-5.1-5.4-1.5 0-2.6.3-3.6 1 .1-3.3.8-3.9 3-3.9h4.3l.2-2.9zm-15.2 17.3v-17.5h-4.7l-4.4 1.7.6 3 4.1-.9c-.2.7-.2 1.4-.2 2.1v11.6h4.6z" class="st6"/></g><g class="st7"><path d="M302.3 207.2h-1.8c-1.2 0-1.4-.3-1.4-1.6 0-.9.2-1.2 1.4-1.2h1.8v2.8zm-4.9 1.6c-.8.1-2.1.3-2.4 1.4l-1 4h4.7l.8-3.4c.1-.6.4-.7 1.2-.7h1.7v4.1h4.5v-12.7c-1.6-.2-2.9-.2-6.4-.2-4.6 0-5.8.9-5.8 4.1 0 1.5.6 3 2.7 3.4zm-13.5 1c0-.6.3-1 1.1-1h2.6v1.6c-.8.5-1.7.9-2.5.9s-1.2-.4-1.2-1v-.5zm-3.4-5c2.1-.1 4.1-.2 5.4-.2 1.3 0 1.7.4 1.7 1.4v.3h-4.2c-2.5 0-4 1.2-4 3.2v1.3c0 2.4 1.9 3.6 4.2 3.6 2.2 0 3.6-1.1 4.5-2.2l.4 1.8h3.7v-8c0-3.8-1.9-4.9-5.3-4.9-1.9 0-5 .3-6.9.6l.5 3.1zm-10.9 6.5v-2.5h2.1c1.3 0 1.7.3 1.7 1.2 0 1-.4 1.3-1.6 1.3h-2.2zm0-4.9v-2.2h2c1.2 0 1.6.2 1.6 1s-.3 1.1-1.5 1.1h-2.1zm5.1 1.2c2-.2 2.8-1.1 2.8-2.9 0-2.6-1.5-3.3-5.7-3.3-2.9 0-4.6 0-6.5.2v12.6c2.2.1 4 .2 7.3.2 3.8 0 5.4-.7 5.4-3.3 0-2.1-.9-3.2-3.3-3.5zm-18.4-3.2c1.5 0 2 .6 2 3.4s-.4 3.4-2 3.4-2-.6-2-3.4.4-3.4 2-3.4m0-3.2c-5 0-6.8 1.8-6.8 6.7 0 4.8 1.8 6.6 6.8 6.6 4.9 0 6.8-1.7 6.8-6.6 0-4.9-1.8-6.7-6.8-6.7m-9 .3h-7.6c-2.2 0-3.3 1.1-3.5 3.2-.2 2.3-.4 4.1-.7 5-.3 1-1 1-2.1 1.2l.5 3.4c2.8.5 5.3-.2 5.8-3.3.3-1.2.5-3.4.8-5.3.1-.7.4-1.1 1.2-1.1h1.1v9.5h4.6v-12.6zm-21.5 2.9c1.5 0 2 .6 2 3.4s-.4 3.4-2 3.4-2-.6-2-3.4.4-3.4 2-3.4m0-3.2c-5 0-6.8 1.8-6.8 6.7 0 4.8 1.8 6.6 6.8 6.6 4.9 0 6.8-1.7 6.8-6.6 0-4.9-1.9-6.7-6.8-6.7m-8 3.8v-3.5h-12.6v3.5h4v9.1h4.6V205h4zm-13.9 5.6c-1.5.2-3.1.2-4 .2-1.9 0-2.5-.6-2.5-2.9s.6-2.9 2.5-2.9h3.7l.5-2.9c-1.4-.7-3.5-.9-5-.9-4.8 0-6.6 1.8-6.6 6.6 0 4.9 1.7 6.6 6.5 6.6 1.9 0 3.8-.3 5.2-1l-.3-2.8zm-13.5-4.4H183v2.8h7.5v-2.8zm-14.5 1h-1.8c-1.2 0-1.4-.3-1.4-1.6 0-.9.2-1.2 1.4-1.2h1.8v2.8zm-5 1.6c-.8.1-2.1.3-2.4 1.4l-1 4h4.7l.8-3.4c.1-.6.4-.7 1.2-.7h1.7v4.1h4.5v-12.7c-1.6-.2-2.9-.2-6.4-.2-4.6 0-5.8.9-5.8 4.1 0 1.5.6 3 2.7 3.4zm-5.2-7.3h-4.5v4.4h-3.9v-4.4h-4.5v12.6h4.5V209h3.9v5.1h4.5v-12.6zm-19 12.6h4.6l-3.8-6.4 3.4-6.2h-4.6l-2.5 4.7-2.5-4.7h-4.6l3.4 6.2-3.8 6.4h4.6l2.7-5.1 3.1 5.1zm-10.3-12.6h-4.9l-1.9 7.5c-.1.6-.3 1.4-.5 2.2h-.3c-.1-.7-.2-1.4-.4-2.2l-1.9-7.5h-4.9l3.9 11.5c.2.7.8 1.1 1.5 1.1h.8c-.3.6-.8 1.2-1.3 1.5-.8.5-1.9.6-3.5.5l-.4 3c1.8.3 3.7.4 5.2-.3 2-.7 3.4-2 4.3-4.9l4.3-12.4zm-20.7 3.4c3.5-.5 3.6-2 5.5-8.3h-4.8c-1.4 5.2-1.7 6.8-4.2 6.8h-.8c.1-.7.2-1.5.2-2.2v-4.6h-4.7v17.5h4.7v-5.9c0-.5-.1-1.1-.2-1.6h.9c2.4 0 2.6 1.1 4.4 7.5h5c-2.2-7.2-2.4-8.5-6-9.1v-.1z" class="st6"/></g><g class="st7"><path d="M206.8 337.1c-20.2 0-36.7-16.4-36.7-36.7 0-20.2 16.4-36.7 36.7-36.7s36.7 16.4 36.7 36.7c0 20.3-16.5 36.7-36.7 36.7zm0-71c-19 0-34.4 15.4-34.4 34.4s15.4 34.4 34.4 34.4 34.4-15.4 34.4-34.4-15.4-34.4-34.4-34.4z" class="st6"/></g><g class="st7"><path d="M217.2 320.5V281h-10.7l-10 3.9 1.3 6.8 9.1-2.1c-.3 1.6-.4 3.1-.4 4.7v26.1h10.7z" class="st6"/></g><g class="st7"><path d="M251.6 353.7c4.4 0 5.6 1.9 5.6 12.3 0 10.5-1.2 12.3-5.6 12.3-4.2 0-5.4-1.9-5.4-12.3s1.2-12.3 5.4-12.3m.1-8.2c-11.9 0-16.1 5.1-16.1 20.5s4.1 20.5 16.1 20.5c12 0 16.2-5.1 16.2-20.5-.1-15.3-4.2-20.5-16.2-20.5M224.8 376c-2.7 0-3.6.9-3.6 3.6v2.5c0 2.7.9 3.6 3.6 3.6h2.5c2.7 0 3.6-.9 3.6-3.6v-2.5c0-2.7-.9-3.6-3.6-3.6h-2.5zm-24.5-22.3c4.4 0 5.6 1.9 5.6 12.3 0 10.5-1.2 12.3-5.6 12.3-4.2 0-5.4-1.9-5.4-12.3-.1-10.4 1.2-12.3 5.4-12.3m0-8.2c-11.9 0-16.1 5.1-16.1 20.5s4.1 20.5 16.1 20.5c12 0 16.2-5.1 16.2-20.5 0-15.3-4.2-20.5-16.2-20.5m-19.7 24.8h-4.7V354h-8.1l-1.7 6.2v10.1h-7.7c-.9 0-1.5-.6-1-1.7l8.6-22.4h-10l-9.8 25c-1.3 3.1.9 6.1 4.2 6.1h15.8v8.3h9.8v-8.3h.1l4.6-1v-6z" class="st6"/></g></svg>