<svg xmlns="http://www.w3.org/2000/svg" xmlns:xlink="http://www.w3.org/1999/xlink" xml:space="preserve" id="Слой_1" x="0" y="0" style="enable-background:new 0 0 530.6 550" version="1.1" viewBox="0 0 530.6 550"><style>.st1{fill:#1b1c20}.st2{clip-path:url(#SVGID_2_)}.st3{clip-path:url(#SVGID_4_)}.st5{clip-path:url(#SVGID_8_)}.st6{clip-path:url(#SVGID_10_)}</style><path d="M27.5 24h482.6v376.9H27.5z" style="fill:#a9dde1"/><path d="m81.7 426.9-2.1-3.6 50.5-30.4 2.1 3.6-50.5 30.4zm-.5-3.1.9 1.5 48.5-29.1-.9-1.5-48.5 29.1zm229 3.1-2.1-3.6 50.5-30.4 2.1 3.6-50.5 30.4zm-.5-3.1.9 1.5 48.5-29.1-.9-1.5-48.5 29.1zM182.9 247.6l-2.1-3.6 53.5-32.1 2.1 3.6-53.5 32.1zm-.4-3.1.9 1.5 51.4-30.9-.9-1.5-51.4 30.9zm-31.2-49.1-3.6-2.1.3-.5 25.9-43.1 3.6 2.1-.3.5-25.9 43.1zm-1.9-2.6 1.5.9 25-41.6-1.5-.9-25 41.6zm71.3-137-.5-.3-62.9-37.8 2.1-3.6.5.3 62.9 37.8-2.1 3.6zm-61.8-38.5 61.4 36.9.9-1.5-61.4-36.9-.9 1.5zm139 103L264.7 65l3.6-2.1 33.2 55.3-3.6 2.1zm-31.6-54.9 32 53.2 1.5-.9-32-53.2-1.5.9zM510 429.7H365.7v-8.1H510v8.1zm-143.1-1.2h141.9v-5.7H366.9v5.7zm3.4-28.3h122.5v1.2H370.3z" class="st1"/><path d="M370.3 400.2h1.2v22.5h-1.2zM323 430.1H134.6v-8H323v8zm-187.2-1.2h185.9v-5.6H135.8v5.6zm3.5-28.7h122.5v1.2H139.3z" class="st1"/><path d="M139.3 400.2h1.2v22.9h-1.2z" class="st1"/><defs><path id="SVGID_1_" d="M15 13.3h505.9v524H15z"/></defs><clipPath id="SVGID_2_"><use xlink:href="#SVGID_1_" style="overflow:visible"/></clipPath><g class="st2"><path d="M270.5 537.3H15v-5.5h255.5v5.5zm-254.3-1.2h253V533h-253v3.1z" class="st1"/></g><g class="st2"><path d="m269.3 537.3-.8-5.5 249.8-35.1.8 5.5-249.8 35.1zm.6-4.4.4 3.1 247.4-34.8-.4-3.1-247.4 34.8z" class="st1"/></g><path d="M49.6 86.3H27V26.1h22.6v60.2zm-21.4-1.2h20.2V27.3H28.2v57.8z" class="st1"/><path d="M45.4 26.1h1.2v59.4h-1.2z" class="st1"/><path d="m46 83.1-15.4-1.8v-8.8L46 70.8l.1 1.2-14.3 1.6v6.6l14.3 1.7zm-.2-13.7L30.6 68V29.9l15.2-1.3.1 1.2L31.8 31v35.9l14.1 1.3zm215.4 142.5h-22.6v-60.2h22.6v60.2zm-21.3-1.2H260v-57.8h-20.2v57.8z" class="st1"/><path d="M257.1 151.7h1.2v59.4h-1.2z" class="st1"/><path d="m257.6 208.7-15.4-1.8v-8.8l15.4-1.7.1 1.2-14.3 1.6v6.6l14.3 1.7zm-.2-13.8-15.2-1.3v-38.1l15.2-1.3.2 1.2-14.2 1.2v35.9l14.2 1.2z" class="st1"/><defs><path id="SVGID_3_" d="M15 13.3h505.9v524H15z"/></defs><clipPath id="SVGID_4_"><use xlink:href="#SVGID_3_" style="overflow:visible"/></clipPath><g class="st3"><path d="M44.6 213.7h-8.7c-2.3 0-2.9-1.9-2.9-2.9v-22.4c0-2.3 1.9-2.9 2.9-2.9h8.7c2.3 0 2.9 1.9 2.9 2.9v22.4c0 2.3-1.9 2.9-2.9 2.9zm-8.7-27.1c-.3 0-1.7.1-1.7 1.7v22.4c0 .3.1 1.7 1.7 1.7h8.7c.3 0 1.7-.1 1.7-1.7v-22.4c0-.3-.1-1.7-1.7-1.7h-8.7z" class="st1"/></g><g class="st3"><path d="M66.4 210.3c-6.1 0-11-4.6-11-10.2s4.9-10.2 11-10.2 11 4.6 11 10.2c-.1 5.6-5 10.2-11 10.2zm0-19.2c-5.4 0-9.8 4-9.8 9s4.4 9 9.8 9 9.8-4 9.8-9c-.1-5-4.5-9-9.8-9z" class="st1"/></g><g class="st3"><path d="M66.3 212.7c-.8 0-1.6-.1-2.4-.2h-.4l-17.2-2.7v-20.6l17.4-2c.9-.2 1.8-.3 2.7-.3 7.6 0 13.7 5.8 13.7 12.9 0 7.1-6.2 12.9-13.8 12.9zm-3.3-1.6.7.1c.9.2 1.8.3 2.6.3 6.9 0 12.5-5.3 12.5-11.7 0-6.5-5.6-11.7-12.5-11.7-.8 0-1.7.1-2.6.3l-16.3 1.9v18.5l15.6 2.3z" class="st1"/></g><g class="st3"><path d="M38.1 201.4c-1 0-1.8-.8-1.8-1.8s.8-1.8 1.8-1.8 1.8.8 1.8 1.8c0 .9-.8 1.8-1.8 1.8zm0-2.4c-.3 0-.6.3-.6.6s.3.6.6.6.6-.3.6-.6c0-.4-.3-.6-.6-.6z" class="st1"/></g><g class="st3"><path d="M61.3 202.8c-1.5 0-2.7-1.2-2.7-2.7 0-1.5 1.2-2.7 2.7-2.7 1.5 0 2.7 1.2 2.7 2.7 0 1.5-1.2 2.7-2.7 2.7zm0-4.3c-.8 0-1.5.7-1.5 1.5s.7 1.5 1.5 1.5 1.5-.7 1.5-1.5-.7-1.5-1.5-1.5z" class="st1"/></g><path d="M39.3 195.5h-2.4c-.3 0-.6-.3-.6-.6s.3-.6.6-.6h2.4c.3 0 .6.3.6.6s-.3.6-.6.6z" class="st1"/><path d="M38.1 196.7c-.3 0-.6-.3-.6-.6v-2.4c0-.3.3-.6.6-.6s.6.3.6.6v2.4c0 .3-.2.6-.6.6zm1.2 8.1h-2.4c-.3 0-.6-.3-.6-.6s.3-.6.6-.6h2.4c.3 0 .6.3.6.6s-.3.6-.6.6z" class="st1"/><path d="M38.1 206c-.3 0-.6-.3-.6-.6V203c0-.3.3-.6.6-.6s.6.3.6.6v2.4c0 .3-.2.6-.6.6zm14.2.9H50c-.3 0-.6-.3-.6-.6s.3-.6.6-.6h2.4c.3 0 .6.3.6.6s-.3.6-.7.6z" class="st1"/><path d="M51.1 208.1c-.3 0-.6-.3-.6-.6v-2.4c0-.3.3-.6.6-.6s.6.3.6.6v2.4c.1.3-.2.6-.6.6zm1.2-14.7H50c-.3 0-.6-.3-.6-.6s.3-.6.6-.6h2.4c.3 0 .6.3.6.6s-.3.6-.7.6z" class="st1"/><path d="M51.1 194.6c-.3 0-.6-.3-.6-.6v-2.4c0-.3.3-.6.6-.6s.6.3.6.6v2.4c.1.3-.2.6-.6.6z" class="st1"/><defs><path id="SVGID_5_" d="M15 13.3h505.9v524H15z"/></defs><clipPath id="SVGID_6_"><use xlink:href="#SVGID_5_" style="overflow:visible"/></clipPath><path d="M43.2 177.3H27V143h16.2c5.9 0 10.7 7.7 10.7 17.2s-4.8 17.1-10.7 17.1zm-15-1.3h15c5.2 0 9.5-7.2 9.5-16s-4.3-16-9.5-16h-15v32zm14.3-2.6c-4.6 0-8.4-6-8.4-13.3s3.7-13.3 8.4-13.3c4.6 0 8.4 6 8.4 13.3s-3.8 13.3-8.4 13.3zm0-25.5c-3.9 0-7.2 5.4-7.2 12.1 0 6.7 3.2 12.1 7.2 12.1 3.9 0 7.1-5.4 7.1-12.1.1-6.6-3.1-12.1-7.1-12.1zm-3.1 15.4c-1.6 0-2.8-1.3-2.8-2.8 0-1.6 1.3-2.8 2.8-2.8 1.6 0 2.8 1.3 2.8 2.8 0 1.5-1.3 2.8-2.8 2.8zm0-4.4c-.9 0-1.6.7-1.6 1.6 0 .9.7 1.6 1.6 1.6.9 0 1.6-.7 1.6-1.6 0-.9-.7-1.6-1.6-1.6z" class="st1" style="clip-path:url(#SVGID_6_)"/><path d="M25.6 142.8h121.5v1.2H25.6zm0-51.8h122.1v1.2H25.6z" class="st1"/><defs><path id="SVGID_7_" d="M15 13.3h505.9v524H15z"/></defs><clipPath id="SVGID_8_"><use xlink:href="#SVGID_7_" style="overflow:visible"/></clipPath><g class="st5"><path d="M130.3 139H43c-4.2 0-7.7-3-7.7-6.7v-30.2c0-3.7 3.4-6.7 7.7-6.7h87.3c4.2 0 7.7 3 7.7 6.7v30.2c0 3.7-3.5 6.7-7.7 6.7zM43 96.6c-3.6 0-6.4 2.5-6.4 5.5v30.2c0 3 2.9 5.5 6.4 5.5h87.3c3.6 0 6.4-2.5 6.4-5.5v-30.2c0-3-2.9-5.5-6.4-5.5H43zm70 35.5H52.1c-4.4 0-7.9-3.5-7.9-7.8v-14.5c0-4.3 3.6-7.8 7.9-7.8H113c4.4 0 7.9 3.5 7.9 7.8v14.5c.1 4.3-3.5 7.8-7.9 7.8zm-60.9-28.8c-3.7 0-6.7 2.9-6.7 6.5v14.5c0 3.6 3 6.5 6.7 6.5H113c3.7 0 6.7-2.9 6.7-6.5v-14.5c0-3.6-3-6.5-6.7-6.5H52.1z" class="st1"/></g><g class="st5"><path d="M50.8 119.3c-1.2 0-2.1-1-2.1-2.1s1-2.1 2.1-2.1c1.2 0 2.1 1 2.1 2.1s-1 2.1-2.1 2.1zm0-3c-.5 0-.9.4-.9.9s.4.9.9.9.9-.4.9-.9-.4-.9-.9-.9z" class="st1"/></g><path d="M144.5 227.1h-28.2v-41.6h28.2v41.6zm-26.4-1.3h24.6l-12.3-18.5-12.3 18.5zm13-19.6 12.1 18.2v-36.3l-12.1 18.1zm-13.6-18.1v36.3l12.1-18.2-12.1-18.1zm.6-1.4 12.3 18.5 12.3-18.5h-24.6z" class="st1"/><defs><path id="SVGID_9_" d="M15 13.3h505.9v524H15z"/></defs><clipPath id="SVGID_10_"><use xlink:href="#SVGID_9_" style="overflow:visible"/></clipPath><g class="st6"><path d="M67.8 278.4H27v-42.8h40.8v42.8zm-39.5-1.2h38.3v-40.3H28.3v40.3zm30.8-2.4H41.6c-2.7 0-4.9-2.2-4.9-4.9v-25.8c0-2.7 2.2-4.9 4.9-4.9H59c2.7 0 4.9 2.2 4.9 4.9v25.8c.1 2.7-2.1 4.9-4.8 4.9zm-17.5-34.4c-2 0-3.7 1.6-3.7 3.7v25.8c0 2 1.7 3.7 3.7 3.7H59c2 0 3.7-1.6 3.7-3.7v-25.8c0-2-1.7-3.7-3.7-3.7H41.6zm2.2 18.9c-1.3 0-2.4-1.1-2.4-2.4 0-1.3 1.1-2.4 2.4-2.4 1.3 0 2.4 1.1 2.4 2.4 0 1.3-1.1 2.4-2.4 2.4zm0-3.6c-.7 0-1.2.5-1.2 1.2s.5 1.2 1.2 1.2 1.2-.5 1.2-1.2-.5-1.2-1.2-1.2zm-11.7 3.6c-1.3 0-2.4-1.1-2.4-2.4 0-1.3 1.1-2.4 2.4-2.4 1.3 0 2.4 1.1 2.4 2.4 0 1.3-1.1 2.4-2.4 2.4zm0-3.6c-.7 0-1.2.5-1.2 1.2s.5 1.2 1.2 1.2 1.2-.5 1.2-1.2-.6-1.2-1.2-1.2z" class="st1"/></g><g class="st6"><path d="M111.5 176.6h-1.4v-4.8h-2.4l-.5 1.8v3H105c-.3 0-.4-.2-.3-.5l2.6-6.6h-3l-2.9 7.4c-.4.9.3 1.8 1.2 1.8h4.7v2.4h2.9v-2.4l1.4-.3v-1.8zm-13 1.7c-.8 0-1.1.3-1.1 1.1v.7c0 .8.3 1.1 1.1 1.1h.7c.8 0 1.1-.3 1.1-1.1v-.7c0-.8-.3-1.1-1.1-1.1h-.7zM88 171.8h3.2c1.2 0 1.5.2 1.5 1.1 0 .8-.1 1.3-1.4 1.3h-2.2v2h2.2c1.2 0 1.5.4 1.5 1.4 0 1.2-.4 1.4-1.9 1.4-1 0-1.8 0-3.2-.1l-.1 2.3c1.3.2 2.8.3 4.2.3 3.1 0 4.2-1 4.2-3.5 0-1.8-.5-2.7-2.2-2.9v-.1c1.5-.2 1.9-1.3 1.9-2.9 0-2.1-1.1-2.7-3.9-2.7-1.3 0-2.6.1-3.9.3l.1 2.1z" class="st1"/></g><g class="st6"><path d="M114.1 156.7h-3.3l-1.2 5c-.1.4-.2.9-.4 1.4h-.2c-.1-.5-.2-1-.2-1.4l-1.3-5h-3.3l2.6 7.7c.1.4.5.7 1 .7h.6c-.2.4-.5.8-.9 1-.5.3-1.3.4-2.3.4l-.3 2c1.2.2 2.5.2 3.5-.2 1.3-.5 2.3-1.3 2.9-3.3l2.8-8.3zm-16.5 9.7 6.6-12.9h-2.4l-6.6 12.9h2.4zm-3.4-3.9c-1.1.1-2 .1-3.7.1-1.4 0-1.8-.7-1.8-3.3 0-2.6.4-3.3 1.8-3.3 1.6 0 2.3 0 3.4.1l.2-2.3c-1.1-.3-1.9-.4-3.7-.4-3.7 0-5.1 1.6-5.1 6s1.4 6 5.1 6c1.8 0 2.8-.1 3.9-.5l-.1-2.4z" class="st1"/></g><g class="st6"><path d="m220.1 115 .1-2.3h-7.3l-.3 5.2c0 .5.4 1 .9 1l1.8.2c1.6.1 2.1.4 2.1 1.5-.1.9-.4 1.3-1.9 1.3-.8 0-1.9 0-3-.1l-.3 2.4c1.5.2 3 .3 4.1.3 3.3 0 4.2-1.7 4.2-3.8 0-1.9-.7-3.5-3.4-3.8l-1.9-.3.1-1.6h4.8zm-10.9 6.4c-.8 0-1.1.3-1.1 1.1v.7c0 .8.3 1.1 1.1 1.1h.7c.8 0 1.1-.3 1.1-1.1v-.7c0-.8-.3-1.1-1.1-1.1h-.7zm-2.8-6.4.1-2.3h-7.3l-.3 5.2c0 .5.4 1 .9 1l1.8.2c1.6.1 2.1.4 2.1 1.5-.1.9-.4 1.3-1.9 1.3-.8 0-1.9 0-3-.1l-.3 2.4c1.5.2 3 .3 4.1.3 3.3 0 4.2-1.7 4.2-3.8 0-1.9-.7-3.5-3.4-3.8l-1.9-.3.1-1.6h4.8z" class="st1"/></g><g class="st6"><path d="M248.8 101.8h-1.2c-.8 0-.9-.2-.9-1 0-.6.2-.8.9-.8h1.2v1.8zm-3.3 1c-.5.1-1.4.2-1.6.9l-.7 2.6h3.1l.5-2.2c.1-.4.3-.5.8-.5h1.1v2.7h3v-8.5c-1-.1-1.9-.1-4.2-.1-3.1 0-3.8.6-3.8 2.7 0 1.1.4 2.1 1.8 2.4zm-8.9.7c0-.4.2-.6.7-.7h1.8v1c-.6.4-1.1.6-1.6.6-.6 0-.8-.2-.8-.7v-.2zm-2.3-3.3c1.4-.1 2.7-.1 3.6-.1.9 0 1.1.3 1.2 1v.2h-2.8c-1.7 0-2.7.8-2.7 2.1v.8c0 1.6 1.3 2.4 2.8 2.4 1.5 0 2.4-.7 3-1.4l.3 1.2h2.4V101c0-2.5-1.2-3.3-3.5-3.3-1.2 0-3.3.2-4.6.4l.3 2.1zm-4.7 1.7c2-.3 1.9-.5 3-4h-3c-.9 2.7-1 3.1-1.8 3.1h-.5c.1-.4.1-.7.1-1v-2h-2.7v2c0 .3 0 .7.1 1h-.5c-.8 0-.9-.3-1.8-3.1h-3c1.1 3.5 1 3.7 3 4v.1c-2 .3-2.1.4-3.3 4.3h3.1c1.1-3.2 1.1-3.4 1.9-3.4h.7c-.1.3-.1.5-.1.7v2.7h2.7v-2.7c0-.2 0-.5-.1-.7h.6c.8 0 .8.2 1.9 3.4h3.1c-1.3-3.8-1.4-4-3.4-4.4zm-15.7-2c1 0 1.3.4 1.3 2.3 0 1.8-.3 2.2-1.3 2.2s-1.3-.4-1.3-2.2c0-1.9.3-2.3 1.3-2.3m0-2.2c-3.3 0-4.5 1.2-4.5 4.4s1.2 4.4 4.5 4.4 4.5-1.2 4.5-4.4-1.2-4.4-4.5-4.4m-7.9 8.7h3.1l-2.5-4.3 2.3-4.1h-3.1l-1.7 3.1-1.7-3.1h-3.1l2.3 4.1-2.5 4.3h3.1l1.8-3.4 2 3.4zm-7.7 0V98h-2.7l-2.7 4c-.3.4-.5.8-.6 1.2h-.1c.1-.5.1-.9.1-1.3V98h-2.7v8.4h2.7l2.6-3.8c.2-.4.5-.9.7-1.4h.1c-.1.6-.1 1-.1 1.5v3.8h2.7zm-16-5.8c.5-.3.9-.5 1.6-.5.8 0 1.1.3 1.1 2.2 0 1.9-.3 2.2-1.2 2.2-.6 0-1-.2-1.5-.3v-3.6zm-.6-2.6h-2.5v11.5h3.1v-3.6c.7.6 1.7.8 2.7.8 2.1 0 3.2-.9 3.2-4.3 0-2.9-.8-4.5-3-4.5-1.3 0-2.6.6-3.2 1.4l-.3-1.3zm-4.4-3.3h-9.8v11.6h3.2v-9.5h3.4v9.5h3.2V94.7z" class="st1"/></g><g class="st6"><path d="M141.8 507.5h-2v-6.9h-3.4l-.7 2.6v4.3h-3.3c-.4 0-.6-.2-.4-.7l3.6-9.4h-4.2l-4.1 10.6c-.5 1.3.4 2.6 1.8 2.6h6.7v3.5h4.1v-3.5l1.9-.4v-2.7zm-18.7 2.4c-1.2 0-1.5.4-1.5 1.5v1.1c0 1.2.4 1.5 1.5 1.5h1c1.2 0 1.5-.4 1.5-1.5v-1.1c0-1.2-.4-1.5-1.5-1.5h-1zm-11.9-6.8c0-2 .2-2.7 1.9-2.7 1.9 0 2.1.7 2.1 4.3-.8.5-1.3.6-2.1.6-1.5 0-1.9-.5-1.9-2.2m-3.5 10.7c1.9.5 3.7.5 4.6.5 5.3 0 7.3-1.3 7.3-8.8 0-6.7-1.1-8.4-6.4-8.4-4.8 0-6.2 1.8-6.2 6.1 0 3 1.1 5.2 4.8 5.2 1.5 0 2.5-.2 3.4-1-.1 2.8-.7 3.7-2.9 3.7h-4.4l-.2 2.7z" class="st1"/></g><g class="st6"><path d="M166.6 472.5h-1.7c-1.1 0-1.4-.3-1.4-1.5 0-.9.2-1.1 1.4-1.1h1.7v2.6zm-4.7 1.5c-.7.1-2 .3-2.3 1.3l-.9 3.8h4.5l.7-3.2c.1-.6.4-.7 1.1-.7h1.6v3.9h4.2V467c-1.5-.2-2.8-.2-6.1-.2-4.4 0-5.5.8-5.5 3.9.1 1.4.7 2.7 2.7 3.3zm-4.9 5.1v-12h-3.8l-3.8 5.7c-.4.6-.7 1.1-.9 1.8h-.1c.1-.7.2-1.2.2-1.9v-5.6h-3.9v12h3.8l3.7-5.5c.3-.5.7-1.3 1-2h.1c-.1.8-.2 1.4-.2 2.1v5.4h3.9zm-18.6-6.4c2.8-.4 2.7-.7 4.3-5.7h-4.3c-1.3 3.9-1.4 4.4-2.6 4.4h-.8c.1-.5.1-1 .1-1.5V467h-3.8v2.9c0 .5 0 1 .1 1.5h-.8c-1.2 0-1.3-.4-2.6-4.4h-4.3c1.6 4.9 1.5 5.3 4.3 5.7v.1c-2.9.4-2.9.6-4.7 6.2h4.4c1.5-4.5 1.6-4.8 2.7-4.8h1c-.1.4-.1.7-.1 1v3.8h3.8v-3.8c0-.3 0-.7-.1-1h.9c1.1 0 1.2.3 2.7 4.8h4.4c-1.7-5.6-1.8-5.8-4.7-6.2v-.1zm-21.9 3.4H113c.6-1.4 1-3 1.4-5.3.1-.7.5-1 1.1-1h1.1v6.3zm6.1 0h-2v-9H114c-2.1 0-3.2 1-3.5 2.9-.3 2.1-.7 4.1-1.4 6.1h-1.5v6.3h2.9l.3-3.3h8.6l.3 3.3h2.9v-6.3zm-22.2-6.3c1.5 0 1.9.6 1.9 3.3 0 2.6-.4 3.2-1.9 3.2s-1.9-.6-1.9-3.2c0-2.7.4-3.3 1.9-3.3m0-3.1c-4.7 0-6.5 1.7-6.5 6.3s1.7 6.3 6.5 6.3c4.7 0 6.4-1.7 6.4-6.3s-1.7-6.3-6.4-6.3m-8.8-4.3H84c-2.6 0-4 1.3-4.2 3.9-.3 3.8-.6 6.2-1.1 7.7-.4 1.2-1.2 1.4-2.4 1.6l.3 3.5c2.9.5 5.1-.4 6.2-3.8.7-2 1-5.1 1.3-8.6 0-.8.5-1.2 1.4-1.2H87V479h4.5v-16.6z" class="st1"/></g><g class="st6"><path d="M159.7 332c1.8 0 2.2.4 2.2 2.2 0 1.7-.4 2.1-2.2 2.1-1.9 0-2.3-.4-2.3-2.1 0-1.8.4-2.2 2.3-2.2m0-6.7c1.7 0 2.1.4 2.1 2 0 1.5-.3 1.8-2 1.8s-2.1-.3-2.1-1.8c-.1-1.7.3-2 2-2m-3.6 5.3c-2.4.2-3 2.2-3 4.4 0 3.2 1.4 4.5 6.5 4.5 5.3 0 6.5-1.3 6.5-4.5 0-2.2-.6-4.2-2.9-4.4v-.1c1.8-.2 2.5-2 2.5-3.8 0-3.1-1.1-4.5-6.1-4.5s-6.1 1.3-6.1 4.5c.1 1.8.8 3.6 2.6 3.9zm-7.6 4.5c-1.2 0-1.5.4-1.5 1.5v1.1c0 1.2.4 1.5 1.5 1.5h1c1.2 0 1.5-.4 1.5-1.5v-1.1c0-1.2-.4-1.5-1.5-1.5h-1zm-10.1-3.1c1.8 0 2.2.4 2.2 2.2 0 1.7-.4 2.1-2.2 2.1-1.9 0-2.3-.4-2.3-2.1 0-1.8.4-2.2 2.3-2.2m0-6.7c1.7 0 2.1.4 2.1 2 0 1.5-.3 1.8-2 1.8s-2.1-.3-2.1-1.8c-.1-1.7.3-2 2-2m-3.6 5.3c-2.4.2-3 2.2-3 4.4 0 3.2 1.3 4.5 6.5 4.5 5.3 0 6.5-1.3 6.5-4.5 0-2.2-.6-4.2-2.9-4.4v-.1c1.8-.2 2.5-2 2.5-3.8 0-3.1-1.1-4.5-6.1-4.5s-6.1 1.3-6.1 4.5c.1 1.8.8 3.6 2.6 3.9z" class="st1"/></g><g class="st6"><path d="M179.8 297.6h-1.7c-1.1 0-1.4-.3-1.4-1.5 0-.9.2-1.1 1.4-1.1h1.7v2.6zm-4.7 1.5c-.7.1-2 .3-2.3 1.3l-.9 3.8h4.5l.7-3.2c.1-.6.4-.7 1.1-.7h1.6v3.9h4.2v-12.1c-1.5-.2-2.8-.2-6.1-.2-4.4 0-5.5.8-5.5 3.9.1 1.4.7 2.8 2.7 3.3zm-4.9-6.9h-4.3v4.2h-3.7v-4.2h-4.3v12h4.3v-4.8h3.7v4.8h4.3v-12zm-18.1 12h4.4l-3.6-6.1 3.3-5.9h-4.4l-2.4 4.5-2.4-4.5h-4.4l3.3 5.9-3.6 6.1h4.4l2.6-4.8 2.8 4.8zm-9.8-12h-4.7l-1.8 7.1c-.1.6-.3 1.4-.5 2.1h-.2l-.3-2.1-1.8-7.1h-4.7l3.7 10.9c.2.6.7 1 1.4 1h.8c-.3.6-.8 1.2-1.3 1.4-.8.4-1.8.6-3.4.5l-.4 2.8c1.7.3 3.5.3 4.9-.2 1.9-.7 3.2-1.9 4.1-4.7l4.2-11.7zm-19.6 3.3c3.3-.4 3.4-1.9 5.2-7.9h-4.6c-1.3 5-1.6 6.5-4 6.5h-.8c.1-.7.2-1.4.2-2.1v-4.4h-4.5v16.6h4.5v-5.6c0-.5-.1-1-.2-1.5h.9c2.3 0 2.5 1.1 4.2 7.1h4.7c-2.1-6.8-2.3-8.1-5.7-8.6v-.1z" class="st1"/></g><g class="st6"><path d="M402.7 294.9c1.9 0 2.4.8 2.4 5.2s-.5 5.2-2.4 5.2c-1.8 0-2.3-.8-2.3-5.2s.5-5.2 2.3-5.2m0-3.5c-5 0-6.8 2.2-6.8 8.7s1.7 8.7 6.8 8.7 6.8-2.2 6.8-8.7-1.7-8.7-6.8-8.7m-11.3 12.9c-1.2 0-1.5.4-1.5 1.5v1.1c0 1.2.4 1.5 1.5 1.5h1c1.2 0 1.5-.4 1.5-1.5v-1.1c0-1.2-.4-1.5-1.5-1.5h-1zm-11.9-6.8c0-2 .2-2.7 1.9-2.7 1.9 0 2.1.7 2.1 4.3-.8.5-1.3.6-2.1.6-1.5 0-1.9-.5-1.9-2.2m-3.6 10.7c1.9.5 3.7.5 4.6.5 5.3 0 7.3-1.3 7.3-8.8 0-6.7-1.1-8.4-6.4-8.4-4.8 0-6.2 1.8-6.2 6.1 0 3 1.1 5.2 4.8 5.2 1.5 0 2.5-.2 3.4-1-.1 2.8-.7 3.7-2.9 3.7h-4.4l-.2 2.7zm-3.4.2v-16.6H368l-4.2 1.6.5 2.9 3.9-.9c-.1.7-.2 1.3-.2 2v11h4.5z" class="st1"/></g><g class="st6"><path d="M472.5 269.3c0-.6.3-.9 1-.9h2.5v1.5c-.8.5-1.6.8-2.3.8-.8 0-1.2-.3-1.2-1v-.4zm-3.3-4.7c2-.1 3.9-.2 5.1-.2 1.3 0 1.6.4 1.7 1.4v.3h-4c-2.4 0-3.8 1.2-3.8 3.1v1.2c0 2.2 1.8 3.4 4 3.4 2.1 0 3.4-1.1 4.3-2.1l.4 1.8h3.5v-7.6c0-3.6-1.8-4.7-5-4.7-1.8 0-4.8.3-6.6.6l.4 2.8zm-1.9.2v-3.3h-12v3.3h3.8v8.7h4.4v-8.7h3.8zm-21.4 4.5c0-.6.3-.9 1-.9h2.5v1.5c-.8.5-1.6.8-2.3.8-.8 0-1.2-.3-1.2-1v-.4zm-3.3-4.7c2-.1 3.9-.2 5.1-.2 1.3 0 1.6.4 1.7 1.4v.3h-4c-2.4 0-3.8 1.2-3.8 3.1v1.2c0 2.2 1.8 3.4 4 3.4 2.1 0 3.4-1.1 4.3-2.1l.4 1.8h3.5v-7.6c0-3.6-1.8-4.7-5-4.7-1.8 0-4.8.3-6.6.6l.4 2.8zm-3-3.1h-4.3v4.2h-3.7v-4.2h-4.3v12h4.3v-4.8h3.7v4.8h4.3v-12zm-20.3 0c-.9 0-1.5.5-1.6 1.3l-1 4.5c-.1.6-.1 1.2-.2 1.8h-.2c-.1-.6-.1-1.2-.2-1.8l-1.1-4.5c-.1-.9-.7-1.3-1.6-1.3h-3.7c-1 0-1.5.5-1.5 1.5l-.3 10.5h4l.2-8.8h.3l1.4 5.8c.2.9.7 1.3 1.7 1.3h2c.9 0 1.5-.4 1.6-1.3l1.4-5.8h.3l.3 8.8h4l-.3-10.5c0-1-.5-1.5-1.5-1.5h-4zm-19.9 2.7c1.5 0 1.9.6 1.9 3.3 0 2.6-.4 3.2-1.9 3.2s-1.9-.6-1.9-3.2c0-2.7.4-3.3 1.9-3.3m0-3.1c-4.7 0-6.5 1.7-6.5 6.3s1.7 6.3 6.5 6.3c4.7 0 6.4-1.7 6.4-6.3s-1.7-6.3-6.4-6.3m-12 6c2.8-.4 2.6-.6 4.1-5.7h-4.4c-1 4-1.1 4.3-2.8 4.3h-.5c.1-.5.2-1 .2-1.5v-2.8h-4.4v12h4.4v-3.8c0-.3 0-.6-.1-1h1c1.3 0 1.4.3 2.6 4.7h4.6c-1.7-5.7-1.7-5.8-4.6-6.2zm-19.8-.2h-1.7c-1.1 0-1.4-.3-1.4-1.5 0-.9.2-1.1 1.4-1.1h1.7v2.6zm-4.7 1.5c-.7.1-2 .3-2.3 1.3l-.9 3.8h4.5l.7-3.2c.1-.6.4-.7 1.1-.7h1.6v3.9h4.2v-12.1c-1.5-.2-2.8-.2-6.1-.2-4.4 0-5.5.8-5.5 3.9.1 1.4.7 2.8 2.7 3.3zm-12.8.9c0-.6.3-.9 1-.9h2.5v1.5c-.8.5-1.6.8-2.3.8-.8 0-1.2-.3-1.2-1v-.4zm-3.2-4.7c2-.1 3.9-.2 5.1-.2 1.3 0 1.6.4 1.7 1.4v.3h-4c-2.4 0-3.8 1.2-3.8 3.1v1.2c0 2.2 1.8 3.4 4 3.4 2.1 0 3.4-1.1 4.3-2.1l.4 1.8h3.5v-7.6c0-3.6-1.8-4.7-5-4.7-1.8 0-4.8.3-6.6.6l.4 2.8zm-3.1-3.1h-7.2c-2.1 0-3.1 1.1-3.3 3.1-.2 2.2-.4 3.9-.6 4.7-.3 1-1 .9-2 1.1l.4 3.2c2.6.4 5-.2 5.5-3.1.2-1.2.5-3.2.7-5 .1-.7.4-1 1.1-1h1v9.1h4.4v-12.1zm-14.6 12v-12h-3.8l-3.8 5.7c-.4.6-.7 1.1-.9 1.8h-.1c.1-.7.2-1.2.2-1.9v-5.6h-3.9v12h3.8l3.7-5.5c.3-.5.7-1.3 1-2h.1c-.1.8-.2 1.4-.2 2.1v5.4h3.9zm-19.5-8.8c3.2-.4 3.3-1.9 5.1-7.9h-4.6c-1.5 5-1.8 6.5-3.4 6.5h-.8c.1-.7.2-1.4.2-2.1v-4.4h-4.3v4.4c0 .7.1 1.4.2 2.1h-.8c-1.6 0-1.9-1.5-3.4-6.5h-4.6c1.8 6 1.8 7.4 5.1 7.9v.1c-3.4.5-3.6 1.8-5.5 8.6h4.7c1.9-6 2-7.1 3.7-7.1h.8c-.1.5-.2 1.1-.2 1.5v5.6h4.3v-5.6c0-.5-.1-1-.2-1.5h.8c1.7 0 1.9 1.1 3.7 7.1h4.7c-2-6.8-2.2-8.1-5.5-8.6v-.1z" class="st1"/></g><g class="st6"><path d="M387.1 185.8c-19.2 0-34.9-15.6-34.9-34.9s15.6-34.9 34.9-34.9c19.2 0 34.9 15.6 34.9 34.9s-15.7 34.9-34.9 34.9zm0-67.6c-18 0-32.7 14.7-32.7 32.7 0 18 14.7 32.7 32.7 32.7 18 0 32.7-14.7 32.7-32.7 0-18-14.7-32.7-32.7-32.7z" class="st1"/></g><g class="st6"><path d="M392.7 170v-37.5h-10.2l-9.5 3.7 1.2 6.5 8.7-2c-.3 1.5-.4 3-.4 4.5V170h10.2z" class="st1"/></g><g class="st6"><path d="M439.6 217.4h-4.5v-15.5h-7.7l-1.6 5.9v9.6h-7.3c-.9 0-1.4-.5-1-1.6l8.2-21.3h-9.5l-9.3 23.8c-1.2 2.9.8 5.8 4 5.8h15v7.9h9.3v-7.9h.1l4.3-1v-5.7zm-42 5.4c-2.6 0-3.4.8-3.4 3.4v2.4c0 2.6.8 3.4 3.4 3.4h2.3c2.6 0 3.4-.8 3.4-3.4v-2.4c0-2.6-.8-3.4-3.4-3.4h-2.3zm-10.1 9.2v-37.5h-10.2l-9.5 3.7 1.2 6.5 8.7-2c-.3 1.5-.4 3-.4 4.5V232h10.2zm-20.3-14.6h-4.5v-15.5H355l-1.6 5.9v9.6h-7.3c-.9 0-1.4-.5-1-1.6l8.2-21.3h-9.5l-9.3 23.8c-1.2 2.9.8 5.8 4 5.8h15v7.9h9.3v-7.9h.1l4.3-1v-5.7z" class="st1"/></g><path d="M261.3 530.7h11V477h-11v53.7zm0-402.7v84.6h-26.9v5.4h26.9v183.3h-59.7v21.8h-6.8v5.4h127.1v-5.4H315v-21.8h-42.7V128h-11zM16.1 14.5v516.2h10.6V428.6h67.9v-5.4h-6.8v-21.8h-61V235.9h126.6V218h20v-5.4h-20v-20.9H148v38.8H26.7V92h121.2v51h5.4V86.6H26.7V26.1l136.1-1.2V14.5H16.1zm217.5 0V25h27.8v41.4h11V25h236.5v376.4H465v21.8h-6.8v5.4h50.6V502h11V14.5H233.6z" style="fill:#39363a"/><defs><path id="SVGID_11_" d="M15 13.3h505.9v524H15z"/></defs><clipPath id="SVGID_12_"><use xlink:href="#SVGID_11_" style="overflow:visible"/></clipPath><path d="M27.9 531.8H15V13.3h149V26L27.9 27.2v58.3h126.6v58.6h-7.7V93.2H27.9v136.1h118.9v-38.8h7.7v20.9h20v7.7h-20V237H27.9v163.3H89V422h6.8v7.7H27.9v102.1zm-10.6-2.3h8.4v-102h67.9v-3.2h-6.8v-21.8H25.6V234.7h126.6v-17.8h20v-3.2h-20v-20.9H149v38.8H25.6V90.9h123.5v50.9h3.2V87.7H25.6V24.9l136.1-1.2v-8.1H17.3v513.9zm256.1 2.3h-13.2v-55.9h13.2v55.9zm-10.9-2.3h8.7v-51.4h-8.7v51.4zm258.4-26.3h-13.2v-73.5h-50.6V422h6.8v-21.8h43.8V26.1H273.4v41.4h-13.2V26.1h-27.8V13.3h288.5v489.9zm-10.9-2.3h8.7V15.6h-284v8.3h27.8v41.4h8.7V23.9H510v378.6h-43.8v21.8h-6.8v3.2H510v73.4zm-187-71.2H193.6V422h6.8v-21.8h59.8v-181h-26.9v-7.7h26.9v-84.6h13.2v273.3h42.7V422h6.8v7.7zm-127.2-2.2h124.9v-3.2h-6.8v-21.8h-42.7V129.2h-8.7v84.6h-26.9v3.2h26.9v185.6h-59.8v21.8h-6.8v3.1z" class="st1" style="clip-path:url(#SVGID_12_)"/></svg>