<svg xmlns="http://www.w3.org/2000/svg" xmlns:xlink="http://www.w3.org/1999/xlink" xml:space="preserve" id="Слой_1" x="0" y="0" style="enable-background:new 0 0 443.6 602.2" version="1.1" viewBox="0 0 443.6 602.2"><style>.st1{fill:#1b1c20}.st4{clip-path:url(#SVGID_6_)}.st5{clip-path:url(#SVGID_8_)}.st9{clip-path:url(#SVGID_14_)}</style><path d="M49 408H37.1v-11.6H49V408zm365.2-78.2v-81.6h-72.9V94h-306v245.7h21.5v22.4H35.3v201.2h136.4V329.8h242.5z" style="fill:#d6e7b3"/><path d="M58.5 363.4h1.4v20.3h-1.4zm110.1-88.6-33-20.6 1.3-2.1 33 20.6-1.3 2.1zm-32-20.9 31.7 19.8.6-.9-31.7-19.8-.6.9zm-1.5 50.3-14.6-24.3 2.2-1.3 14.6 24.3-2.2 1.3zm-13.6-24 13.9 23.1.9-.5-13.9-23.1-.9.5zm1.2 93.4-2.2-1.3 15.8-26.3 2.2 1.3-15.8 26.3zm-1.2-1.5.9.5 15-25-.9-.5-15 25zm19.2 39.4-1.3-2.1 33-20.6 1.3 2.1-33 20.6zm-.3-1.9.6.9 31.7-19.8-.6-.9-31.7 19.8z" class="st1"/><defs><path id="SVGID_1_" d="M14.8 14.8h421.6v572.5H14.8z"/></defs><clipPath id="SVGID_2_"><use xlink:href="#SVGID_1_" style="overflow:visible"/></clipPath><path d="m434.2 312.9-.2-.3-22-36.5 2.2-1.3.2.3 22 36.5-2.2 1.3zm-21.1-36.6 21.4 35.6.9-.5-21.4-35.6-.9.5z" class="st1" style="clip-path:url(#SVGID_2_)"/><path d="m125.6 99.6-1.3-2.1.3-.2 32.7-20.4 1.3 2.1-33 20.6zm-.3-1.9.6.9 31.7-19.8-.6-.9-31.7 19.8zm149.3 1.9-1.3-2.1.3-.2 32.7-20.4 1.3 2.1-33 20.6zm-.3-1.9.6.9 31.7-19.8-.6-.9-31.7 19.8zm-70.4 177.1-1.3-2.1.3-.2 32.7-20.4 1.3 2.1-33 20.6zm-.3-1.9.6.9 31.7-19.8-.6-.9-31.7 19.8zM309.7 21.2H40.4v-6.4h269.3v6.4zm-268.6-.8H309v-5H41.1v5zM117.4 94H69.1V68.2h48.4V94zm-47.6-.7h46.9V68.9H69.8v24.4z" class="st1"/><path d="M117.4 82.8H69.1v-3.9h48.4v3.9zm-47.6-.7h46.9v-2.5H69.8v2.5z" class="st1"/><defs><path id="SVGID_3_" d="M14.8 14.8h421.6v572.5H14.8z"/></defs><clipPath id="SVGID_4_"><use xlink:href="#SVGID_3_" style="overflow:visible"/></clipPath><path d="M161.1 587.2H83.6v-24.6h77.5v24.6zm-76.7-.7h76.1v-23.2H84.4v23.2z" class="st1" style="clip-path:url(#SVGID_4_)"/><path d="M161.1 576.6H83.6v-3.7h77.5v3.7zm-76.7-.8h76.1v-2.3H84.4v2.3zM267.8 94h-48.1V68.2h48.1V94zm-47.4-.7h46.7V68.9h-46.7v24.4z" class="st1"/><path d="M267.8 82.8h-48.1v-3.9h48.1v3.9zm-47.4-.7h46.7v-2.5h-46.7v2.5zM66.6 263.9h.7v73.2h-.7zm-31.3-.4h.7v73.6h-.7z" class="st1"/><defs><path id="SVGID_5_" d="M14.8 14.8h421.6v572.5H14.8z"/></defs><clipPath id="SVGID_6_"><use xlink:href="#SVGID_5_" style="overflow:visible"/></clipPath><g class="st4"><path d="M60.2 331.2H42c-2.2 0-4-2.1-4-4.6V274c0-2.6 1.8-4.6 4-4.6h18.2c2.2 0 4 2.1 4 4.6v52.6c.1 2.6-1.8 4.6-4 4.6zM42 270.1c-1.8 0-3.3 1.7-3.3 3.9v52.6c0 2.1 1.5 3.9 3.3 3.9h18.2c1.8 0 3.3-1.7 3.3-3.9V274c0-2.1-1.5-3.9-3.3-3.9H42zm13.4 55.8h-8.7c-2.6 0-4.7-2.1-4.7-4.8v-36.7c0-2.6 2.1-4.8 4.7-4.8h8.7c2.6 0 4.7 2.1 4.7 4.8v36.7c0 2.6-2.1 4.8-4.7 4.8zm-8.7-45.5c-2.2 0-3.9 1.8-3.9 4v36.7c0 2.2 1.8 4 3.9 4h8.7c2.2 0 3.9-1.8 3.9-4v-36.7c0-2.2-1.8-4-3.9-4h-8.7z" class="st1"/></g><g class="st4"><path d="M51.1 323.2c-.7 0-1.3-.6-1.3-1.3 0-.7.6-1.3 1.3-1.3s1.3.6 1.3 1.3c0 .7-.6 1.3-1.3 1.3zm0-1.8c-.3 0-.6.3-.6.6s.3.6.6.6.6-.3.6-.6c0-.4-.3-.6-.6-.6z" class="st1"/></g><path d="M182 341.3h.7v73.2h-.7z" class="st1"/><defs><path id="SVGID_7_" d="M14.8 14.8h421.6v572.5H14.8z"/></defs><clipPath id="SVGID_8_"><use xlink:href="#SVGID_7_" style="overflow:visible"/></clipPath><g class="st5"><path d="M68.5 370.6h-5.1c-1.4 0-1.8-1.2-1.8-1.8v-13.4c0-1.4 1.2-1.8 1.8-1.8h5.1c1.4 0 1.8 1.2 1.8 1.8v13.4c.1 1.5-1.1 1.8-1.8 1.8zm-5-16.3c-.2 0-1.1.1-1.1 1.1v13.4c0 .2.1 1.1 1.1 1.1h5.1c.2 0 1.1-.1 1.1-1.1v-13.4c0-.2-.1-1.1-1.1-1.1h-5.1z" class="st1"/></g><g class="st5"><path d="M81.7 368.6c-3.6 0-6.6-2.8-6.6-6.2s3-6.2 6.6-6.2c3.6 0 6.6 2.8 6.6 6.2s-2.9 6.2-6.6 6.2zm0-11.6c-3.2 0-5.9 2.4-5.9 5.4 0 3 2.6 5.4 5.9 5.4 3.2 0 5.9-2.4 5.9-5.4 0-3-2.6-5.4-5.9-5.4z" class="st1"/></g><g class="st5"><path d="M81.7 370c-.5 0-1 0-1.5-.1h-.3l-10.4-1.6v-12.4l10.5-1.2c.5-.1 1.1-.2 1.7-.2 4.6 0 8.3 3.5 8.3 7.8 0 4.2-3.7 7.7-8.3 7.7zm-2-.9.4.1c4.9 1 9.1-2.5 9.1-6.9 0-3.9-3.4-7.1-7.5-7.1-.5 0-1 .1-1.5.2l-9.8 1.1v11.2l9.3 1.4z" class="st1"/></g><g class="st5"><path d="M64.7 363.2c-.6 0-1.1-.5-1.1-1.1s.5-1.1 1.1-1.1c.6 0 1.1.5 1.1 1.1s-.5 1.1-1.1 1.1zm0-1.4c-.2 0-.4.2-.4.4s.2.4.4.4.4-.2.4-.4-.2-.4-.4-.4z" class="st1"/></g><g class="st5"><path d="M78.7 364.1c-.9 0-1.6-.7-1.6-1.6 0-.9.7-1.6 1.6-1.6.9 0 1.6.7 1.6 1.6 0 .8-.7 1.6-1.6 1.6zm0-2.6c-.5 0-.9.4-.9.9s.4.9.9.9.9-.4.9-.9-.4-.9-.9-.9z" class="st1"/></g><path d="M65.4 359.7H64c-.2 0-.4-.2-.4-.4s.2-.4.4-.4h1.4c.2 0 .4.2.4.4s-.2.4-.4.4z" class="st1"/><path d="M64.7 360.4c-.2 0-.4-.2-.4-.4v-1.4c0-.2.2-.4.4-.4s.4.2.4.4v1.4c0 .2-.2.4-.4.4zm.7 4.9H64c-.2 0-.4-.2-.4-.4s.2-.4.4-.4h1.4c.2 0 .4.2.4.4s-.2.4-.4.4z" class="st1"/><path d="M64.7 366c-.2 0-.4-.2-.4-.4v-1.4c0-.2.2-.4.4-.4s.4.2.4.4v1.4c0 .2-.2.4-.4.4zm8.6.6h-1.4c-.2 0-.4-.2-.4-.4s.2-.4.4-.4h1.4c.2 0 .4.2.4.4-.1.2-.2.4-.4.4z" class="st1"/><path d="M72.6 367.3c-.2 0-.4-.2-.4-.4v-1.4c0-.2.2-.4.4-.4s.4.2.4.4v1.4c-.1.2-.2.4-.4.4zm.7-8.9h-1.4c-.2 0-.4-.2-.4-.4s.2-.4.4-.4h1.4c.2 0 .4.2.4.4-.1.3-.2.4-.4.4z" class="st1"/><path d="M72.6 359.1c-.2 0-.4-.2-.4-.4v-1.4c0-.2.2-.4.4-.4s.4.2.4.4v1.4c-.1.3-.2.4-.4.4z" class="st1"/><defs><path id="SVGID_9_" d="M14.8 14.8h421.6v572.5H14.8z"/></defs><clipPath id="SVGID_10_"><use xlink:href="#SVGID_9_" style="overflow:visible"/></clipPath><path d="M90.6 337.1H69.9v-9.8c0-3.6 4.6-6.4 10.4-6.4 5.7 0 10.4 2.9 10.4 6.4v9.8zm-19.9-.7h19.2v-9c0-3.2-4.3-5.7-9.6-5.7s-9.6 2.6-9.6 5.7v9zm9.6-3.6c-4.4 0-8-2.3-8-5 0-2.8 3.6-5 8-5s8 2.3 8 5-3.6 5-8 5zm0-9.4c-4 0-7.3 1.9-7.3 4.3s3.3 4.3 7.3 4.3 7.3-1.9 7.3-4.3c0-2.3-3.3-4.3-7.3-4.3zm-.3 7.9c-.9 0-1.7-.8-1.7-1.7 0-.9.8-1.7 1.7-1.7.9 0 1.7.8 1.7 1.7 0 1-.7 1.7-1.7 1.7zm0-2.6c-.5 0-1 .4-1 1 0 .5.4 1 1 1 .5 0 1-.4 1-1s-.4-1-1-1z" class="st1" style="clip-path:url(#SVGID_10_)"/><path d="M117.3 335.7H93.2v-25.9h24.1v25.9zm-22.8-.8h21.6l-10.8-11.6-10.8 11.6zm11.3-12.2 10.8 11.6v-23.2l-10.8 11.6zM94 311.1v23.2l10.8-11.6L94 311.1zm.5-.5 10.8 11.6 10.8-11.6H94.5z" class="st1"/><defs><path id="SVGID_11_" d="M14.8 14.8h421.6v572.5H14.8z"/></defs><clipPath id="SVGID_12_"><use xlink:href="#SVGID_11_" style="overflow:visible"/></clipPath><path d="M77.2 418.7H51.4v-24.6h25.8v24.6zm-25.1-.7h24.3v-23.1H52.1V418zm20-1.6H56.5c-1.6 0-3-1.3-3-3V403c0-1.6 1.3-3 3-3H72c1.6 0 3 1.3 3 3v10.5c0 1.6-1.3 2.9-2.9 2.9zm-15.6-15.7c-1.2 0-2.2 1-2.2 2.2v10.5c0 1.2 1 2.2 2.2 2.2H72c1.2 0 2.2-1 2.2-2.2V403c0-1.2-1-2.2-2.2-2.2H56.5zm7.9 5c-.8 0-1.5-.7-1.5-1.5s.7-1.5 1.5-1.5 1.5.7 1.5 1.5c0 .9-.7 1.5-1.5 1.5zm0-2.2c-.4 0-.7.3-.7.7 0 .4.3.7.7.7.4 0 .7-.3.7-.7 0-.3-.3-.7-.7-.7zm0-4.8c-.8 0-1.5-.7-1.5-1.5s.7-1.5 1.5-1.5 1.5.7 1.5 1.5-.7 1.5-1.5 1.5zm0-2.2c-.4 0-.7.3-.7.7 0 .4.3.7.7.7.4 0 .7-.3.7-.7 0-.4-.3-.7-.7-.7z" class="st1" style="clip-path:url(#SVGID_12_)"/><path d="M408.7 320.4v9.8H171.4v233.1h-18.7v23.2h30V340.3H419l-.1-19.9h-10.2zm-256-251.5v24.4h18.7v38.8h6.3v88.1h-6.3V270l-3.9-.1v4.9h37.1V270l-21.9-.2V93.3h39.7V68.9h-69.7zM40.9 400.2h5.6v5.6h-5.6v-5.6zm8-47.4h5.4v5.9h-5.4v-5.9zm-13.4-10.4h8.2v16.2h-8.2v-16.2zm13.4 0h5.4v5.9h-5.4v-5.9zm-33.3-327v5.1l-.1 566h73.1v-23.2H35.3V410.7h15.8v-17.2h82v-4.9h-7.8v-17.4h-4.9v10.1H35.3v-17.5h23.9V342h66.1v-31.9h-4.9v27H35.3v-71.8h85.1V281h4.9v-6h3.9v-5h-3.9v-15.8h-90V93.3h37.9V68.9H22.3V20.5H50v-5.1H15.6zm312.8 0h-27.1v5.1h27.1v48.4h-25.5v24.4h38.3V270h-98.8v4.9l105-.2v-27h61.2v28.8h10.1l.1-35.9h-72V15.4h-18.4z" style="fill:#39363a"/><defs><path id="SVGID_13_" d="M14.8 14.8h421.6v572.5H14.8z"/></defs><clipPath id="SVGID_14_"><use xlink:href="#SVGID_13_" style="overflow:visible"/></clipPath><g class="st9"><path d="M183.4 587.2H152v-24.6h18.7V329.5H408v-9.8h11.5l.1 21.3H183.3v246.2zm-30-1.4H182V339.6h236.3l-.1-18.5h-8.8v9.8H172.1V564h-18.7v21.8zm-64.1 1.4H14.8v-.7l.1-571.8h35.8v6.4H23v47h50.9V94H36v159.4h90v15.8h3.9v6.4H126v6h-6.3V266H36v70.4h83.7v-27h6.3v33.3H59.9v21.8H36v16.1h83.7v-10.1h6.3V388h7.8v6.3h-82v17.2H36v151.2h53.2v24.5zm-73.2-1.4h71.8V564H34.7V410.1h15.8v-17.2h82v-3.6h-7.8v-17.4h-3.6V382H34.7v-18.8h23.9v-21.8h66.1v-30.5h-3.6v27H34.7v-73.2h86.4v15.6h3.6v-6h3.9v-3.7h-3.9v-15.8h-90V92.6h37.9v-23h-51V19.8h27.7v-3.7h-33v4.4l-.2 565.3zm31-179.3h-6.9v-6.9h6.9v6.9zm-5.6-1.4h4.2v-4.2h-4.2v4.2zM55 359.4h-6.7v-7.3H55v7.3zm-5.4-1.4h4v-4.6h-4v4.6zm-5.3 1.3h-9.5v-17.6h9.5v17.6zm-8.1-1.4H43V343h-6.8v14.9zM55 349h-6.7v-7.3H55v7.3zm-5.4-1.4h4V343h-4v4.6zm369.9-70.3H408v-28.8h-59.8v27h-.7l-105.7.2v-6.3h98.8V94h-38.3V68.2h25.5v-47h-27.1v-6.4h47.1V240h72l-.3 37.3zm-10.1-1.4h8.8l.1-34.5h-72V16.1h-44.4v3.7H329v49.7h-25.5v23.1H342v178h-98.8v3.6l103.7-.2v-27h62.5v28.9zm-204.1-.3h-38.5v-6.3l3.9.1v-49.8h6.3v-86.7h-6.3V94H152V68.2h71.1V94h-39.7v175.1l21.9.2v6.3zm-37.1-1.4h35.7v-3.6l-21.9-.2V92.6h39.7v-23h-68.3v23.1h18.7v38.8h6.3V221h-6.3v49.8l-3.9-.1v3.5z" class="st1"/></g><g class="st9"><path d="m116.8 185.3.1-2h-6.3l-.3 4.5c0 .5.3.8.8.9l1.6.2c1.3.1 1.8.3 1.8 1.2-.1.8-.3 1.1-1.7 1.1-.7 0-1.6 0-2.6-.1l-.2 2c1.3.2 2.6.3 3.6.3 2.8 0 3.6-1.5 3.6-3.3 0-1.6-.6-3.1-2.9-3.3l-1.7-.2.1-1.4h4.1zm-9.4 5.6c-.7 0-.9.2-.9.9v.6c0 .7.2.9.9.9h.6c.7 0 .9-.2.9-.9v-.6c0-.7-.2-.9-.9-.9h-.6zm-9-5.6h2.8c1 0 1.3.1 1.3.9 0 .7-.1 1.1-1.2 1.1h-1.9v1.7h1.9c1.1 0 1.3.3 1.3 1.2 0 1-.4 1.2-1.7 1.2-.9 0-1.5 0-2.8-.1l-.1 2c1.1.2 2.4.3 3.6.3 2.7 0 3.6-.9 3.6-3 0-1.5-.5-2.3-1.9-2.5v-.1c1.3-.2 1.6-1.1 1.6-2.5 0-1.8-.9-2.3-3.4-2.3-1.1 0-2.2.1-3.4.3l.3 1.8zm-2 8.1v-10h-2.7l-2.5 1 .3 1.7 2.3-.5c-.1.4-.1.8-.1 1.2v6.6h2.7z" class="st1"/></g><g class="st9"><path d="M155.9 169.8c0-.3.2-.6.6-.6h1.5v.9c-.5.3-1 .5-1.4.5-.5 0-.7-.2-.7-.6v-.2zm-2-2.8c1.2-.1 2.4-.1 3.1-.1.8 0 1 .2 1 .8v.2h-2.4c-1.4 0-2.3.7-2.3 1.8v.7c0 1.4 1.1 2.1 2.4 2.1 1.2 0 2.1-.6 2.6-1.2l.2 1.1h2.1v-4.6c0-2.2-1.1-2.8-3-2.8-1.1 0-2.9.2-4 .4l.3 1.6zm-1.2.1v-2h-7.2v2h2.3v5.2h2.6v-5.2h2.3zm-12.9 2.7c0-.3.2-.6.6-.6h1.5v.9c-.5.3-1 .5-1.4.5-.5 0-.7-.2-.7-.6v-.2zm-2-2.8c1.2-.1 2.4-.1 3.1-.1.8 0 1 .2 1 .8v.2h-2.4c-1.4 0-2.3.7-2.3 1.8v.7c0 1.4 1.1 2.1 2.4 2.1 1.2 0 2.1-.6 2.6-1.2l.2 1.1h2.1v-4.6c0-2.2-1.1-2.8-3-2.8-1.1 0-2.9.2-4 .4l.3 1.6zm-1.8-1.9h-2.6v2.5h-2.2v-2.5h-2.6v7.2h2.6v-2.9h2.2v2.9h2.6v-7.2zm-12.2 0c-.6 0-.9.3-1 .8l-.6 2.7c-.1.4-.1.7-.1 1.1h-.1c0-.4-.1-.7-.1-1.1l-.6-2.7c-.1-.5-.4-.8-1-.8h-2.2c-.6 0-.9.3-.9.9l-.2 6.3h2.4l.1-5.3h.2l.9 3.5c.1.5.5.8 1 .8h1.2c.6 0 .9-.3 1-.8l.9-3.5h.2l.2 5.3h2.4l-.5-6.3c0-.6-.3-.9-.9-.9h-2.3zm-12 1.6c.9 0 1.1.4 1.1 2s-.2 1.9-1.1 1.9c-.9 0-1.1-.3-1.1-1.9 0-1.6.2-2 1.1-2m0-1.8c-2.8 0-3.9 1-3.9 3.8s1 3.8 3.9 3.8c2.8 0 3.9-1 3.9-3.8s-1.1-3.8-3.9-3.8m-7.2 3.6c1.7-.2 1.6-.4 2.5-3.4h-2.7c-.6 2.4-.7 2.6-1.7 2.6h-.3c.1-.3.1-.6.1-.9v-1.7h-2.6v7.2h2.6V170c0-.2 0-.4-.1-.6h.6c.8 0 .8.2 1.6 2.9h2.7c-1-3.4-1-3.5-2.7-3.8zm-12-.2h-1c-.7 0-.8-.2-.8-.9 0-.5.1-.7.8-.7h1v1.6zm-2.8.9c-.4 0-1.2.2-1.4.8l-.6 2.3h2.7l.5-1.9c.1-.3.2-.4.7-.4h1v2.4h2.6V165c-.9-.1-1.7-.1-3.6-.1-2.7 0-3.3.5-3.3 2.3-.2.9.2 1.7 1.4 2zm-7.7.6c0-.3.2-.6.6-.6h1.5v.9c-.5.3-1 .5-1.4.5-.5 0-.7-.2-.7-.6v-.2zm-2-2.8c1.2-.1 2.4-.1 3.1-.1.8 0 1 .2 1 .8v.2h-2.4c-1.4 0-2.3.7-2.3 1.8v.7c0 1.4 1.1 2.1 2.4 2.1 1.2 0 2.1-.6 2.6-1.2l.2 1.1h2.1v-4.6c0-2.2-1.1-2.8-3-2.8-1.1 0-2.9.2-4 .4l.3 1.6zm-1.8-1.9H74c-1.2 0-1.9.6-2 1.9-.1 1.3-.2 2.3-.4 2.8-.2.6-.6.6-1.2.7l.3 1.9c1.6.3 3-.1 3.3-1.9.1-.7.3-1.9.4-3 0-.4.2-.6.7-.6h.6v5.5h2.6v-7.3zm-8.8 7.2v-7.2h-2.3l-2.3 3.5c-.2.3-.4.7-.6 1.1h-.1c.1-.4.1-.7.1-1.1v-3.4H62v7.2h2.3l2.3-3.3c.2-.3.5-.8.6-1.2h.1c-.1.5-.1.9-.1 1.3v3.2h2.3zM57.8 167c1.9-.3 2-1.2 3-4.7H58c-.9 3-1.1 3.9-2 3.9h-.5c.1-.4.1-.8.1-1.2v-2.7H53v2.7c0 .4 0 .8.1 1.2h-.5c-1 0-1.1-.9-2-3.9h-2.8c1.1 3.6 1.1 4.5 3 4.7v.1c-2 .3-2.1 1.1-3.3 5.2h2.8c1.1-3.6 1.2-4.3 2.2-4.3h.5c-.1.3-.1.7-.1.9v3.4h2.6v-3.4c0-.3 0-.6-.1-.9h.6c1 0 1.1.7 2.2 4.3h2.9c-1.2-4.1-1.3-4.9-3.3-5.3z" class="st1"/></g><g class="st9"><path d="m279.2 311.8.1-2H273l-.3 4.5c0 .5.3.8.8.9l1.6.2c1.3.1 1.8.3 1.8 1.2-.1.8-.3 1.1-1.7 1.1-.7 0-1.6 0-2.6-.1l-.2 2c1.3.2 2.6.3 3.6.3 2.8 0 3.6-1.5 3.6-3.3 0-1.6-.6-3.1-2.9-3.3l-1.7-.2.1-1.4h4.1zm-9.4 5.6c-.7 0-.9.2-.9.9v.6c0 .7.2.9.9.9h.6c.7 0 .9-.2.9-.9v-.6c0-.7-.2-.9-.9-.9h-.6zm-2.7 2.4v-10h-2.7l-2.5 1 .3 1.7 2.3-.5c-.1.4-.1.8-.1 1.2v6.6h2.7zm-6.5 0v-10h-2.7l-2.5 1 .3 1.7 2.3-.5c-.1.4-.1.8-.1 1.2v6.6h2.7z" class="st1"/></g><g class="st9"><path d="M293.8 293.8c.5-.3.8-.5 1.4-.5.7 0 .9.3.9 1.9 0 1.7-.3 1.9-1 1.9-.5 0-.9-.1-1.3-.2v-3.1zm-.5-2.2h-2.1v9.9h2.6v-3.2c.6.5 1.4.7 2.3.7 1.8 0 2.7-.8 2.7-3.7 0-2.5-.7-3.9-2.6-3.9-1.1 0-2.3.5-2.8 1.2l-.1-1zm-7.3 1.6c.9 0 1.1.4 1.1 2s-.2 1.9-1.1 1.9c-.9 0-1.1-.3-1.1-1.9 0-1.6.2-2 1.1-2m0-1.8c-2.8 0-3.9 1-3.9 3.8s1 3.8 3.9 3.8c2.8 0 3.9-1 3.9-3.8s-1-3.8-3.9-3.8m-8.2 5.6h-2.1c.4-.8.6-1.8.8-3.2 0-.4.3-.6.6-.6h.7v3.8zm3.6 0h-1.2v-5.4h-4c-1.3 0-1.9.6-2.1 1.8-.2 1.2-.4 2.5-.9 3.7h-.9v3.8h1.7l.2-2h5.2l.2 2h1.7V297zm-10 1.8v-7.2h-2.3l-2.3 3.5c-.2.3-.4.7-.6 1.1h-.1c.1-.4.1-.7.1-1.1v-3.4H264v7.2h2.3l2.3-3.3c.2-.3.5-.8.6-1.2h.1c-.1.5-.1.9-.1 1.3v3.2h2.2zm-13.7-5c.5-.3.8-.5 1.4-.5.7 0 .9.3.9 1.9 0 1.7-.3 1.9-1 1.9-.5 0-.9-.1-1.3-.2v-3.1zm-.5-2.2H255v9.9h2.6v-3.2c.6.5 1.4.7 2.3.7 1.8 0 2.7-.8 2.7-3.7 0-2.5-.7-3.9-2.6-3.9-1.1 0-2.3.5-2.8 1.2v-1zm-7.3 1.6c.9 0 1.1.4 1.1 2s-.2 1.9-1.1 1.9c-.9 0-1.1-.3-1.1-1.9 0-1.6.2-2 1.1-2m0-1.8c-2.8 0-3.9 1-3.9 3.8s1 3.8 3.9 3.8c2.8 0 3.9-1 3.9-3.8s-1.1-3.8-3.9-3.8m-7.8 2.1c2-.3 2-1.2 3.2-4.7h-2.8c-.8 3-1 3.9-2.4 3.9h-.5c.1-.4.1-.8.1-1.2v-2.7H237v10h2.7v-3.4c0-.3 0-.6-.1-.9h.5c1.4 0 1.5.7 2.5 4.3h2.8c-1.1-4.1-1.3-4.9-3.3-5.3z" class="st1"/></g><g class="st9"><path d="M265.2 146.2h2.8c1 0 1.3.1 1.3.9 0 .7-.1 1.1-1.2 1.1h-1.9v1.7h1.9c1.1 0 1.3.3 1.3 1.2 0 1-.4 1.2-1.7 1.2-.9 0-1.5 0-2.8-.1l-.1 2c1.1.2 2.4.3 3.6.3 2.7 0 3.6-.9 3.6-3 0-1.5-.5-2.3-1.9-2.5v-.1c1.3-.2 1.6-1.1 1.6-2.5 0-1.8-.9-2.3-3.4-2.3-1.1 0-2.2.1-3.4.3l.3 1.8zm-2.9 5.6c-.7 0-.9.2-.9.9v.6c0 .7.2.9.9.9h.6c.7 0 .9-.2.9-.9v-.6c0-.7-.2-.9-.9-.9h-.6zm-5.7.6c-1.2 0-1.3-.4-1.3-2.6.5-.3.8-.4 1.3-.4 1 0 1.2.2 1.2 1.3 0 1.3-.1 1.7-1.2 1.7m3.1-8.1c-1-.3-2.1-.3-2.6-.3-2.9 0-4.4.7-4.4 5.3 0 4.1.9 5.1 3.9 5.1 3.1 0 3.7-1.2 3.7-3.7 0-2.2-.7-3.1-2.9-3.1-.9 0-1.5.1-2 .6.1-1.9.4-2.2 1.7-2.2h2.5l.1-1.7zm-8.8 9.9v-10h-2.7l-2.5 1 .3 1.7 2.3-.5c-.1.4-.1.8-.1 1.2v6.6h2.7z" class="st1"/></g><g class="st9"><path d="M310.6 130.7c0-.3.2-.6.6-.6h1.5v.9c-.5.3-1 .5-1.4.5-.5 0-.7-.2-.7-.6v-.2zm-1.9-2.9c1.2-.1 2.4-.1 3.1-.1.8 0 1 .2 1 .8v.2h-2.4c-1.4 0-2.3.7-2.3 1.8v.7c0 1.4 1.1 2.1 2.4 2.1 1.2 0 2.1-.6 2.6-1.2l.2 1.1h2.1v-4.6c0-2.2-1.1-2.8-3-2.8-1.1 0-2.9.2-4 .4l.3 1.6zm-1.2.2v-2h-7.2v2h2.3v5.2h2.6V128h2.3zm-12.9 2.7c0-.3.2-.6.6-.6h1.5v.9c-.5.3-1 .5-1.4.5-.5 0-.7-.2-.7-.6v-.2zm-2-2.9c1.2-.1 2.4-.1 3.1-.1.8 0 1 .2 1 .8v.2h-2.4c-1.4 0-2.3.7-2.3 1.8v.7c0 1.4 1.1 2.1 2.4 2.1 1.2 0 2.1-.6 2.6-1.2l.2 1.1h2.1v-4.6c0-2.2-1.1-2.8-3-2.8-1.1 0-2.9.2-4 .4l.3 1.6zm-1.8-1.8h-2.6v2.5H286V126h-2.6v7.2h2.6v-2.9h2.2v2.9h2.6V126zm-12.2 0c-.6 0-.9.3-1 .8l-.6 2.7c-.1.4-.1.7-.1 1.1h-.1c0-.4-.1-.7-.1-1.1l-.6-2.7c-.1-.5-.4-.8-1-.8h-2.2c-.6 0-.9.3-.9.9l-.2 6.3h2.4l.1-5.3h.2l.9 3.5c.1.5.5.8 1 .8h1.2c.6 0 .9-.3 1-.8l.9-3.5h.2l.2 5.3h2.4l-.2-6.3c0-.6-.3-.9-.9-.9h-2.6zm-12 1.6c.9 0 1.1.4 1.1 2s-.2 1.9-1.1 1.9c-.9 0-1.1-.3-1.1-1.9 0-1.6.2-2 1.1-2m0-1.8c-2.8 0-3.9 1-3.9 3.8s1 3.8 3.9 3.8c2.8 0 3.9-1 3.9-3.8s-1.1-3.8-3.9-3.8m-7.2 3.6c1.7-.2 1.6-.4 2.5-3.4h-2.7c-.6 2.4-.7 2.6-1.7 2.6h-.3c.1-.3.1-.6.1-.9V126h-2.6v7.2h2.6v-2.3c0-.2 0-.4-.1-.6h.6c.8 0 .8.2 1.6 2.9h2.7c-1-3.4-1-3.5-2.7-3.8zm-12-.2h-1c-.7 0-.8-.2-.8-.9 0-.5.1-.7.8-.7h1v1.6zm-2.8.9c-.4 0-1.2.2-1.4.8l-.6 2.3h2.7l.5-1.9c.1-.3.2-.4.7-.4h1v2.4h2.6V126c-.9-.1-1.7-.1-3.6-.1-2.7 0-3.3.5-3.3 2.3-.2.8.2 1.6 1.4 1.9zm-7.7.6c0-.3.2-.6.6-.6h1.5v.9c-.5.3-1 .5-1.4.5-.5 0-.7-.2-.7-.6v-.2zm-2-2.9c1.2-.1 2.4-.1 3.1-.1.8 0 1 .2 1 .8v.2h-2.4c-1.4 0-2.3.7-2.3 1.8v.7c0 1.4 1.1 2.1 2.4 2.1 1.2 0 2.1-.6 2.6-1.2l.2 1.1h2.1v-4.6c0-2.2-1.1-2.8-3-2.8-1.1 0-2.9.2-4 .4l.3 1.6zm-1.8-1.8h-4.4c-1.2 0-1.9.6-2 1.9-.1 1.3-.2 2.3-.4 2.8-.2.6-.6.6-1.2.7l.3 1.9c1.6.3 3-.1 3.3-1.9.1-.7.3-1.9.4-3 0-.4.2-.6.7-.6h.6v5.5h2.6V126zm-8.8 7.2V126H222l-2.3 3.5c-.2.3-.4.7-.6 1.1h-.1c.1-.4.1-.7.1-1.1V126h-2.3v7.2h2.3l2.3-3.3c.2-.3.5-.8.6-1.2h.1c-.1.5-.1.9-.1 1.3v3.2h2.3zm-11.7-5.3c1.9-.3 2-1.2 3-4.7h-2.8c-.9 3-1.1 3.9-2 3.9h-.5c.1-.4.1-.8.1-1.2v-2.7h-2.6v2.7c0 .4 0 .8.1 1.2h-.5c-1 0-1.1-.9-2-3.9h-2.8c1.1 3.6 1.1 4.5 3 4.7v.1c-2 .3-2.1 1.1-3.3 5.2h2.8c1.1-3.6 1.2-4.3 2.2-4.3h.5c-.1.3-.1.7-.1.9v3.4h2.6v-3.4c0-.3 0-.6-.1-.9h.5c1 0 1.1.7 2.2 4.3h2.9c-1.1-4.1-1.2-4.9-3.2-5.3z" class="st1"/></g><g class="st9"><path d="m189 48.9.1 2.2h4.4c-.2.3-.4.7-.5 1.1l-2.4 6.8h2.7l3-8.7c.2-.7-.2-1.3-1-1.3H189zm-2 7.5c-.7 0-.9.2-.9.9v.7c0 .7.2.9.9.9h.6c.7 0 .9-.2.9-.9v-.6c0-.7-.2-.9-.9-.9h-.6zm-6.1-1.8c1.1 0 1.3.2 1.3 1.3 0 1-.2 1.3-1.4 1.3-1.1 0-1.4-.2-1.4-1.3.1-1.1.4-1.3 1.5-1.3m0-4.1c1 0 1.2.2 1.2 1.2 0 .9-.2 1.1-1.2 1.1s-1.3-.2-1.3-1.1c.1-1 .3-1.2 1.3-1.2m-2.1 3.2c-1.4.1-1.8 1.3-1.8 2.7 0 1.9.8 2.7 3.9 2.7 3.2 0 3.9-.8 3.9-2.7 0-1.3-.3-2.5-1.8-2.7v-.1c1.1-.1 1.5-1.2 1.5-2.3 0-1.9-.6-2.7-3.7-2.7-3 0-3.7.8-3.7 2.7.1 1.2.6 2.3 1.7 2.4z" class="st1"/></g><g class="st9"><path d="M212 33.9h-1c-.7 0-.8-.2-.8-.9 0-.5.1-.7.8-.7h1v1.6zm-2.9.9c-.4 0-1.2.2-1.4.8l-.6 2.3h2.7l.5-1.9c.1-.3.2-.4.7-.4h1V38h2.6v-7.3c-.9-.1-1.7-.1-3.6-.1-2.7 0-3.3.5-3.3 2.3-.1.7.2 1.6 1.4 1.9zm-3 3.1v-7.2h-2.3l-2.3 3.5c-.2.3-.4.7-.6 1.1h-.1c.1-.4.1-.7.1-1.1v-3.4h-2.3V38h2.3l2.3-3.3c.2-.3.5-.8.6-1.2h.1c-.1.5-.1.9-.1 1.3V38h2.3zM194.9 34c1.7-.2 1.6-.4 2.6-3.4h-2.6c-.8 2.4-.8 2.6-1.6 2.6h-.5c.1-.3.1-.6.1-.9v-1.7h-2.3v1.7c0 .3 0 .6.1.9h-.5c-.7 0-.8-.2-1.6-2.6H186c1 3 .9 3.2 2.6 3.4v.1c-1.7.2-1.8.4-2.8 3.7h2.7c.9-2.7 1-2.9 1.6-2.9h.6c-.1.2-.1.4-.1.6v2.3h2.3v-2.3c0-.2 0-.4-.1-.6h.6c.7 0 .7.2 1.6 2.9h2.7c-1-3.3-1.1-3.4-2.8-3.8zm-13.1 2.1h-2.1c.4-.8.6-1.8.8-3.2 0-.4.3-.6.6-.6h.7v3.8zm3.6 0h-1.2v-5.4h-4c-1.3 0-1.9.6-2.1 1.8-.2 1.2-.4 2.5-.9 3.7h-.9V40h1.7l.2-2h5.2l.2 2h1.7v-3.9zM172 32.3c.9 0 1.1.4 1.1 2s-.2 1.9-1.1 1.9c-.9 0-1.1-.3-1.1-1.9 0-1.7.2-2 1.1-2m0-1.9c-2.8 0-3.9 1-3.9 3.8s1 3.8 3.9 3.8c2.8 0 3.9-1 3.9-3.8s-1-3.8-3.9-3.8m-5.3-2.6h-4.6c-1.6 0-2.4.8-2.5 2.4-.2 2.3-.3 3.7-.7 4.6-.2.7-.7.9-1.4 1l.2 2.1c1.8.3 3.1-.3 3.7-2.3.4-1.2.6-3.1.8-5.2 0-.5.3-.7.8-.7h.9v8.2h2.7V27.8z" class="st1"/></g><g class="st9"><path d="M105.5 298.6h-.8v-2.9h-1.4l-.3 1.1v1.8h-1.4c-.2 0-.3-.1-.2-.3l1.5-4h-1.8l-1.7 4.5c-.2.5.2 1.1.7 1.1h2.8v1.5h1.7v-1.5l.8-.2v-1.1zm-7.9 1c-.5 0-.6.2-.6.6v.4c0 .5.2.6.6.6h.4c.5 0 .6-.2.6-.6v-.4c0-.5-.2-.6-.6-.6h-.4zm-6.3-3.9h2c.7 0 .9.1.9.7 0 .5-.1.8-.8.8H92v1.2h1.3c.8 0 .9.2.9.8 0 .7-.3.8-1.2.8-.6 0-1.1 0-1.9-.1l-.1 1.4c.8.1 1.7.2 2.5.2 1.9 0 2.5-.6 2.5-2.1 0-1.1-.3-1.6-1.3-1.8.9-.1 1.1-.8 1.1-1.8 0-1.2-.7-1.6-2.4-1.6-.8 0-1.6.1-2.4.2l.3 1.3z" class="st1"/></g><g class="st9"><path d="M114.3 283.8h-.7c-.5 0-.6-.1-.6-.6 0-.4.1-.5.6-.5h.7v1.1zm-1.9.6c-.3 0-.8.1-1 .5l-.4 1.6h1.9l.3-1.4c0-.2.2-.3.5-.3h.7v1.6h1.8v-5.1c-.6-.1-1.2-.1-2.6-.1-1.9 0-2.3.4-2.3 1.6 0 .8.2 1.4 1.1 1.6zm-5.4.4c0-.2.1-.4.4-.4h1.1v.6c-.3.2-.7.3-1 .3-.3 0-.5-.1-.5-.4v-.1zm-1.4-2c.8-.1 1.7-.1 2.2-.1.5 0 .7.2.7.6v.1h-1.7c-1 0-1.6.5-1.6 1.3v.5c0 .9.8 1.4 1.7 1.4.9 0 1.5-.4 1.8-.9l.2.7h1.5v-3.2c0-1.5-.8-2-2.1-2-.7 0-2 .1-2.8.3l.1 1.3zm-1.3-1.3h-1.8v1.8H101v-1.8h-1.8v5.1h1.8v-2h1.5v2h1.8v-5.1zm-6.2 0h-1.8v1.8h-1.5v-1.8H93v5.1h1.8v-2h1.5v2h1.8v-5.1zm-9.6 3.3c0-.2.1-.4.4-.4H90v.6c-.3.2-.7.3-1 .3-.3 0-.5-.1-.5-.4v-.1zm-1.4-2c.8-.1 1.7-.1 2.2-.1.5 0 .7.2.7.6v.1h-1.7c-1 0-1.6.5-1.6 1.3v.5c0 .9.8 1.4 1.7 1.4.9 0 1.5-.4 1.8-.9l.2.7h1.5v-3.2c0-1.5-.8-2-2.1-2-.7 0-2 .1-2.8.3l.1 1.3zm-4.8 2.5v-1.8h1c.7 0 .9.2.9.9s-.2.9-.9.9h-1zm0-3v-1.5h.9c.7 0 .8.1.8.8 0 .6-.2.8-.8.8h-.9zm2.3.6c.9-.1 1.2-.6 1.2-1.6 0-1.4-.7-1.8-2.6-1.8-1.3 0-2 0-2.9.1v7c.9.1 1.7.1 3.2.1 1.7 0 2.5-.4 2.5-1.8 0-1.2-.3-1.9-1.4-2z" class="st1"/></g><g class="st9"><path d="M106.4 367.2h2c.7 0 .9.1.9.7 0 .5-.1.8-.8.8h-1.3v1.2h1.3c.8 0 .9.2.9.8 0 .7-.3.8-1.2.8-.6 0-1.1 0-1.9-.1l-.1 1.4c.8.1 1.7.2 2.5.2 1.9 0 2.5-.6 2.5-2.1 0-1.1-.3-1.6-1.3-1.8.9-.1 1.1-.8 1.1-1.8 0-1.2-.7-1.6-2.4-1.6-.8 0-1.6.1-2.4.2l.2 1.3zm-2 3.9c-.5 0-.6.2-.6.6v.4c0 .5.2.6.6.6h.4c.5 0 .6-.2.6-.6v-.4c0-.5-.2-.6-.6-.6h-.4zm-1.9 1.7v-7h-1.9l-1.8.7.2 1.2 1.6-.4c-.1.3-.1.6-.1.8v4.6h2z" class="st1"/></g><g class="st9"><path d="M114 353h-2l-.7 3c-.1.2-.1.6-.2.9h-.1c0-.3-.1-.6-.1-.9l-.8-3h-2l1.6 4.6c.1.3.3.4.6.4h.3c-.1.3-.3.5-.5.6-.3.2-.8.2-1.4.2l-.2 1.2c.7.1 1.5.1 2.1-.1.8-.3 1.4-.8 1.7-2l1.7-4.9zm-9.9 5.8 4-7.8h-1.5l-4 7.8h1.5zm-2-2.3c-.7.1-1.2.1-2.2.1-.8 0-1.1-.4-1.1-2s.2-2 1.1-2h2.1l.1-1.4c-.7-.2-1.2-.3-2.2-.3-2.2 0-3.1 1-3.1 3.6s.8 3.6 3.1 3.6c1.1 0 1.7-.1 2.4-.3l-.2-1.3z" class="st1"/></g><g class="st9"><path d="M259.2 202.8c-11.6 0-21-9.4-21-21s9.4-21 21-21 21 9.4 21 21-9.5 21-21 21zm0-40.7c-10.9 0-19.7 8.8-19.7 19.7 0 10.9 8.8 19.7 19.7 19.7 10.9 0 19.7-8.8 19.7-19.7 0-10.8-8.9-19.7-19.7-19.7z" class="st1"/></g><g class="st9"><path d="M251.2 175.6c3.1-.2 4.7-.2 7.1-.2 1.7 0 2.5.1 2.5 1 0 1.3-1.5 3.3-4 5.9l-5.1 5.2c-.7.7-.9 1.5-.9 2.5v3.2h16.8V188h-6.5c-1.1 0-2.1 0-3.2.3l5.6-5.5c3-3.1 3.5-4.6 3.5-7 0-4.4-3.2-5.5-8-5.5-2.5 0-4.8.1-8.1.8l.3 4.5z" class="st1"/></g><g class="st9"><path d="M109.9 498.8c1.1 0 1.4.5 1.4 3.1 0 2.7-.3 3.1-1.4 3.1-1.1 0-1.4-.5-1.4-3.1s.3-3.1 1.4-3.1m0-2c-3 0-4.1 1.3-4.1 5.2s1 5.2 4.1 5.2c3.1 0 4.1-1.3 4.1-5.2s-1-5.2-4.1-5.2m-6.8 7.7c-.7 0-.9.2-.9.9v.6c0 .7.2.9.9.9h.6c.7 0 .9-.2.9-.9v-.6c0-.7-.2-.9-.9-.9h-.6zm-9.1-5.6h2.8c1 0 1.3.1 1.3.9 0 .7-.1 1.1-1.2 1.1H95v1.8h1.9c1.1 0 1.3.3 1.3 1.2 0 1-.4 1.2-1.7 1.2-.9 0-1.5 0-2.8-.1l-.1 2c1.1.2 2.4.3 3.6.3 2.7 0 3.6-.9 3.6-3 0-1.5-.5-2.3-1.9-2.5v-.1c1.3-.2 1.6-1.1 1.6-2.5 0-1.8-.9-2.3-3.4-2.3-1.1 0-2.2.1-3.4.3l.3 1.7zm-2 8.1v-10h-2.7l-2.5 1 .3 1.7 2.3-.5c-.1.4-.1.8-.1 1.2v6.7H92z" class="st1"/></g><g class="st9"><path d="M119.3 481.9h-1c-.7 0-.8-.2-.8-.9 0-.5.1-.7.8-.7h1v1.6zm-2.9.9c-.4 0-1.2.2-1.4.8l-.6 2.3h2.7l.5-1.9c.1-.3.2-.4.7-.4h1v2.4h2.6v-7.3c-.9-.1-1.7-.1-3.7-.1-2.7 0-3.3.5-3.3 2.3 0 .8.3 1.6 1.5 1.9zm-3-4.1h-2.6v2.5h-2.2v-2.5H106v7.2h2.6V483h2.2v2.9h2.6v-7.2zm-10.9 7.2h2.7l-2.2-3.7 2-3.5h-2.6l-1.4 2.7-1.4-2.7H97l2 3.5-2.2 3.7h2.7l1.6-2.9 1.4 2.9zm-5.9-7.2h-2.8l-1.1 4.3c-.1.3-.2.8-.3 1.2h-.1c-.1-.4-.1-.8-.2-1.2l-1.1-4.3h-2.8l2.2 6.6c.1.4.4.6.8.6h.5c-.2.4-.5.7-.8.9-.5.3-1.1.3-2 .3l-.2 1.7c1 .2 2.1.2 3-.1 1.1-.4 2-1.1 2.5-2.8l2.4-7.2zm-11.9 1.9c2-.3 2.1-1.2 3.2-4.8h-2.8c-.8 3-1 3.9-2.4 3.9h-.5c.1-.4.1-.8.1-1.3v-2.7h-2.7v10h2.7v-3.4c0-.3 0-.6-.1-.9h.5c1.4 0 1.5.7 2.5 4.3h2.9c-1.2-3.9-1.3-4.7-3.4-5.1z" class="st1"/></g><g class="st9"><path d="M290.2 220.5h-2.7v-9.4h-4.6l-1 3.5v5.8h-4.4c-.5 0-.9-.3-.6-1l5-12.8h-5.7l-5.6 14.4c-.7 1.8.5 3.5 2.4 3.5h9.1v4.8h5.6v-4.8h.1l2.6-.6v-3.4zm-25.3 3.3c-1.6 0-2.1.5-2.1 2.1v1.4c0 1.6.5 2.1 2.1 2.1h1.4c1.6 0 2.1-.5 2.1-2.1v-1.4c0-1.6-.5-2.1-2.1-2.1h-1.4zm-20.5-12.7c1.7 0 4-.1 6.3-.1s3 .3 3 2.1c0 1.5-.2 2.5-2.7 2.5h-4.3v3.9h4.3c2.4 0 3 .7 3 2.7 0 2.3-.9 2.7-3.7 2.7-2 0-3.4 0-6.3-.2l-.2 4.4c2.6.4 5.4.6 8.1.6 6 0 8.2-2 8.1-6.8 0-3.4-1-5.2-4.2-5.7v-.1c2.9-.5 3.6-2.5 3.6-5.7 0-4-2.1-5.3-7.7-5.3-2.5 0-5 .2-7.6.6l.3 4.4zm-11.2 14.2c-2.6 0-2.9-.8-2.9-5.8 1.1-.6 1.8-.9 2.9-.9 2.2 0 2.7.6 2.7 3-.1 2.7-.2 3.7-2.7 3.7m6.9-18.3c-2.3-.7-4.7-.7-5.8-.7-6.6 0-9.9 1.6-9.9 12 0 9.2 2 11.5 8.8 11.5 6.9 0 8.4-2.7 8.4-8.3 0-5-1.5-7-6.6-7-2 0-3.4.3-4.6 1.3.2-4.2 1-5 3.9-5h5.6l.2-3.8z" class="st1"/></g></svg>