<?xml version="1.0" encoding="utf-8"?>
<!-- Generator: Adobe Illustrator 26.5.0, SVG Export Plug-In . SVG Version: 6.00 Build 0)  -->
<svg version="1.1" id="Слой_1" xmlns="http://www.w3.org/2000/svg" xmlns:xlink="http://www.w3.org/1999/xlink" x="0px" y="0px"
	 viewBox="0 0 1300 1300" style="enable-background:new 0 0 1300 1300;" xml:space="preserve">
<style type="text/css">
	.st0{fill:#B0DDDE;}
	.st1{fill:#373437;}
	.st2{fill:none;stroke:#373437;}
	.st3{fill:none;stroke:#373437;stroke-dasharray:1.959,1.959;}
</style>
<rect x="382.5" y="236.6" class="st0" width="530.7" height="481.3"/>
<rect x="382.5" y="351.8" class="st0" width="262.4" height="793.3"/>
<rect x="720" y="546.1" class="st1" width="201.4" height="13.3"/>
<rect x="720" y="546.1" class="st2" width="201.4" height="13.3"/>
<rect x="643.4" y="225.2" class="st1" width="13.3" height="366.4"/>
<rect x="643.4" y="225.2" class="st2" width="13.3" height="366.4"/>
<rect x="643.4" y="82.9" class="st1" width="13.3" height="71.3"/>
<rect x="643.4" y="82.9" class="st2" width="13.3" height="71.3"/>
<rect x="880.8" y="83.4" class="st1" width="34.5" height="152.2"/>
<rect x="914" y="83.4" class="st1" width="12.9" height="539.3"/>
<rect x="914" y="83.4" class="st2" width="12.9" height="539.3"/>
<rect x="914" y="694.5" class="st1" width="12.9" height="35.1"/>
<rect x="914" y="694.5" class="st2" width="12.9" height="35.8"/>
<path class="st1" d="M808.4,164.2c1.7,0,2.9-0.4,3.6-1.1c0.7-0.7,1.1-1.9,1.1-3.6v-12c0-1.7-0.4-2.9-1.1-3.6
	c-0.7-0.7-1.9-1.1-3.6-1.1h-1v2.9h0.8c0.6,0,0.9,0.1,1.2,0.4c0.2,0.3,0.4,0.8,0.4,1.5v11.7c0,0.7-0.1,1.2-0.4,1.5
	c-0.2,0.3-0.6,0.4-1.2,0.4h-0.8v2.9H808.4z M801.7,149.3v8h-3.4L801.7,149.3z M801.7,160.3v3.8h3.3v-3.8h1.5v-3h-1.5v-14.3h-3.6
	l-6.1,14.3v3H801.7z M793.8,161.1h-3.3v3.1h3.3V161.1z M784.1,149.3v8h-3.4L784.1,149.3z M784.1,160.3v3.8h3.3v-3.8h1.5v-3h-1.5
	v-14.3h-3.6l-6.1,14.3v3H784.1z M772.1,163.1c0.7,0.7,1.9,1.1,3.6,1.1h1v-2.9h-0.8c-0.6,0-1-0.1-1.2-0.4c-0.2-0.3-0.4-0.8-0.4-1.5
	v-11.7c0-0.7,0.1-1.2,0.4-1.5c0.2-0.3,0.6-0.4,1.2-0.4h0.8v-2.9h-1c-1.7,0-2.9,0.4-3.6,1.1c-0.7,0.7-1.1,1.9-1.1,3.6v12
	C771.1,161.2,771.4,162.4,772.1,163.1 M757,148.1c0-0.9,0.2-1.5,0.5-1.9c0.3-0.4,0.8-0.5,1.4-0.5c0.6,0,1.1,0.2,1.4,0.5
	c0.3,0.4,0.5,1,0.5,1.9v1.2c0,1.5-0.6,2.2-1.9,2.2c-1.3,0-1.9-0.7-1.9-2.2V148.1z M757,157c0-1.6,0.6-2.4,1.9-2.4
	c1.2,0,1.9,0.8,1.9,2.4v2c0,0.9-0.2,1.5-0.5,1.9c-0.3,0.4-0.8,0.5-1.4,0.5c-0.6,0-1.1-0.2-1.4-0.5c-0.3-0.4-0.5-1-0.5-1.9V157z
	 M755.1,163c0.9,0.9,2.2,1.4,3.9,1.4s3-0.5,3.9-1.4c0.9-0.9,1.3-2.2,1.3-3.9v-1.7c0-2.2-0.7-3.6-2.1-4.4c1.4-0.8,2.1-2.2,2.1-4.3
	V148c0-1.7-0.4-3-1.3-3.9c-0.9-0.9-2.2-1.4-3.9-1.4s-3,0.5-3.9,1.4c-0.9,0.9-1.3,2.2-1.3,3.9v0.7c0,2.1,0.7,3.5,2.1,4.3
	c-1.4,0.8-2.1,2.3-2.1,4.4v1.7C753.7,160.8,754.2,162.1,755.1,163 M751.8,161.1h-3.3v3.1h3.3V161.1z M739.4,148.1
	c0-0.9,0.2-1.5,0.5-1.9c0.3-0.4,0.8-0.5,1.4-0.5c0.6,0,1.1,0.2,1.4,0.5c0.3,0.4,0.5,1,0.5,1.9v1.2c0,1.5-0.6,2.2-1.9,2.2
	c-1.3,0-1.9-0.7-1.9-2.2V148.1z M739.4,157c0-1.6,0.6-2.4,1.9-2.4c1.2,0,1.9,0.8,1.9,2.4v2c0,0.9-0.2,1.5-0.5,1.9
	c-0.3,0.4-0.8,0.5-1.4,0.5c-0.6,0-1.1-0.2-1.4-0.5c-0.3-0.4-0.5-1-0.5-1.9V157z M737.4,163c0.9,0.9,2.2,1.4,3.9,1.4
	c1.7,0,3-0.5,3.9-1.4c0.9-0.9,1.3-2.2,1.3-3.9v-1.7c0-2.2-0.7-3.6-2.1-4.4c1.4-0.8,2.1-2.2,2.1-4.3V148c0-1.7-0.4-3-1.3-3.9
	c-0.9-0.9-2.2-1.4-3.9-1.4c-1.7,0-3,0.5-3.9,1.4c-0.9,0.9-1.4,2.2-1.4,3.9v0.7c0,2.1,0.7,3.5,2.1,4.3c-1.4,0.8-2.1,2.3-2.1,4.4v1.7
	C736.1,160.8,736.5,162.1,737.4,163"/>
<rect x="587.8" y="206.3" class="st1" width="124.5" height="29.3"/>
<rect x="587.8" y="206.3" class="st2" width="124.5" height="29.3"/>
<rect x="378" y="206.3" class="st1" width="63" height="29.3"/>
<rect x="378" y="206.3" class="st2" width="63" height="29.3"/>
<rect x="855.9" y="206.3" class="st1" width="68.1" height="29.3"/>
<rect x="855.9" y="206.3" class="st2" width="68.1" height="29.3"/>
<rect x="582.7" y="206.3" class="st1" width="134.8" height="6.5"/>
<rect x="582.7" y="206.3" class="st2" width="134.8" height="6.5"/>
<rect x="378" y="206.3" class="st1" width="68.1" height="6.5"/>
<rect x="378" y="206.3" class="st2" width="68.1" height="6.5"/>
<rect x="850.8" y="206.3" class="st1" width="73.2" height="6.5"/>
<rect x="850.8" y="206.3" class="st2" width="73.2" height="6.5"/>
<rect x="688.5" y="206.3" class="st2" width="118.9" height="6.5"/>
<rect x="688.5" y="212.8" class="st2" width="112.6" height="22.8"/>
<path class="st2" d="M801.8,212.2c0,0,0,7.1,3.2,16c2.7,7.4,8.1,14.3,8.1,14.3l50.3-27.9l-1.1-1.8l-50.4,27.9"/>
<rect x="417.1" y="206.3" class="st2" width="118.9" height="6.5"/>
<rect x="417.1" y="212.8" class="st2" width="112.6" height="22.8"/>
<path class="st2" d="M530.5,212.2c0,0,0,7.1,3.2,16c2.7,7.4,8.1,14.3,8.1,14.3l50.3-27.9l-1.1-1.8l-50.4,27.9"/>
<rect x="372.1" y="120" class="st1" width="14.1" height="1055.1"/>
<rect x="372.1" y="120" class="st2" width="14.1" height="1055.1"/>
<rect x="650.8" y="83.4" class="st2" width="234.7" height="10"/>
<polygon class="st2" points="383.3,120.3 383.3,130.3 645,93.4 645,83.4 "/>
<rect x="642.6" y="717.3" class="st1" width="275.1" height="12.7"/>
<rect x="642.6" y="717.3" class="st2" width="275.1" height="12.7"/>
<rect x="642.6" y="668.1" class="st1" width="12.7" height="506.7"/>
<rect x="385.1" y="499.6" class="st1" width="190.9" height="11.4"/>
<rect x="385.1" y="499.6" class="st2" width="190.9" height="11.4"/>
<rect x="385.1" y="718.6" class="st1" width="192.4" height="11.4"/>
<rect x="385.1" y="718.6" class="st2" width="192.4" height="11.4"/>
<rect x="385.1" y="644" class="st1" width="166.7" height="6.5"/>
<rect x="385.1" y="644" class="st2" width="166.7" height="6.5"/>
<rect x="548" y="509" class="st1" width="6.5" height="46.6"/>
<rect x="548" y="509" class="st2" width="6.5" height="46.6"/>
<rect x="548" y="600.4" class="st1" width="6.5" height="69.9"/>
<rect x="548" y="600.4" class="st2" width="6.5" height="69.9"/>
<line class="st3" x1="384.3" y1="864.5" x2="650.1" y2="864.5"/>
<rect x="591.3" y="1145.8" class="st1" width="56.1" height="29.3"/>
<rect x="591.3" y="1145.8" class="st2" width="56.1" height="29.3"/>
<rect x="380" y="1145.8" class="st1" width="54.7" height="29.3"/>
<rect x="380" y="1145.8" class="st2" width="54.7" height="29.3"/>
<rect x="588.8" y="1168.6" class="st1" width="61" height="6.5"/>
<rect x="588.8" y="1168.6" class="st2" width="61" height="6.5"/>
<rect x="376.8" y="1168.6" class="st1" width="63" height="6.5"/>
<rect x="376.8" y="1168.6" class="st2" width="63" height="6.5"/>
<rect x="411.5" y="1168.6" class="st2" width="201.8" height="6.5"/>
<rect x="422.1" y="1145.8" class="st2" width="191.2" height="22.8"/>
<path class="st2" d="M445.6,1175.1v73.9c0,2.2,1.8,4,4,4h129.2c2.2,0,4-1.8,4-4v-73.9H445.6z"/>
<path class="st2" d="M450.8,1175.1l4.8,63.5c0,2.4,1.9,4.3,4.3,4.3h108.7c2.4,0,4.3-1.9,4.3-4.3l4.8-63.5H450.8z"/>
<path class="st2" d="M922.3,698.6l-37.9-66.5c0,0,5.4-3.5,16.9-6.4c11.6-3,19.6-3,19.6-3"/>
<path class="st2" d="M644,553.9l66.5-37.9c0,0,3.5,5.4,6.4,16.9c3,11.6,3,19.6,3,19.6"/>
<path class="st2" d="M651.5,508.2L585,470.4c0,0-3.5,5.4-6.4,16.9c-3,11.6-3,19.6-3,19.6"/>
<path class="st2" d="M653.7,722l-66.5,37.9c0,0-3.5-5.4-6.4-16.9c-3-11.6-3-19.6-3-19.6"/>
<path class="st2" d="M548.2,723.3l26.7-46.7c0,0-3.8-2.4-11.9-4.5c-8.1-2.1-13.8-2.1-13.8-2.1"/>
<path class="st2" d="M549.5,548.4l25.9,46c0,0-3.7,2.4-11.6,4.5c-7.9,2.1-13.4,2.1-13.4,2.1"/>
<rect x="387.8" y="652.1" class="st2" width="21.1" height="64.9"/>
<line class="st2" x1="391.1" y1="652.2" x2="391.1" y2="717.4"/>
<polyline class="st2" points="391.1,655.4 406.3,656.9 406.3,698 391.1,699.8 391.1,702.5 406.5,704.3 406.5,713.5 391.1,715.5 "/>
<rect x="410.5" y="652.1" class="st2" width="21.1" height="64.9"/>
<line class="st2" x1="413.8" y1="716.9" x2="413.8" y2="651.7"/>
<polyline class="st2" points="413.8,713.7 429.1,712.2 429.1,671.1 413.8,669.3 413.8,666.6 429.2,664.8 429.2,655.6 413.8,653.6 
	"/>
<rect x="494.3" y="595.5" class="st2" width="46.3" height="45.8"/>
<line class="st2" x1="540.7" y1="640.7" x2="494.5" y2="595.7"/>
<line class="st2" x1="540.7" y1="595.1" x2="494.5" y2="640.2"/>
<path class="st1" d="M465.6,612.2c7.4,0,13.5,6.1,13.5,13.5v14.3c0,1.1-0.9,2.1-2,2.1h-30.4c-1.1,0-2-0.9-2-2.1v-14.3
	c0-7.4,6-13.5,13.5-13.5H465.6z M446.6,642.9H477c1.5,0,2.8-1.3,2.8-2.8v-14.3c0-7.9-6.4-14.3-14.2-14.3H458
	c-7.8,0-14.2,6.4-14.2,14.3v14.3C443.8,641.6,445,642.9,446.6,642.9"/>
<path class="st2" d="M465.6,612.2c7.4,0,13.5,6.1,13.5,13.5v14.3c0,1.1-0.9,2.1-2,2.1h-30.4c-1.1,0-2-0.9-2-2.1v-14.3
	c0-7.4,6-13.5,13.5-13.5H465.6z M446.6,642.9H477c1.5,0,2.8-1.3,2.8-2.8v-14.3c0-7.9-6.4-14.3-14.2-14.3H458
	c-7.8,0-14.2,6.4-14.2,14.3v14.3C443.8,641.6,445,642.9,446.6,642.9z"/>
<path class="st1" d="M465.6,615.6c5.6,0,10.1,4.5,10.1,10.1v8.4c0,1-0.8,1.8-1.8,1.8h-24.2c-1,0-1.8-0.8-1.8-1.8v-8.4
	c0-5.6,4.5-10.1,10.1-10.1H465.6z M449.6,636.6h24.2c1.4,0,2.5-1.1,2.5-2.5v-8.4c0-6-4.9-10.9-10.8-10.9H458
	c-6,0-10.8,4.9-10.8,10.9v8.4C447.1,635.5,448.3,636.6,449.6,636.6"/>
<path class="st2" d="M465.6,615.6c5.6,0,10.1,4.5,10.1,10.1v8.4c0,1-0.8,1.8-1.8,1.8h-24.2c-1,0-1.8-0.8-1.8-1.8v-8.4
	c0-5.6,4.5-10.1,10.1-10.1H465.6z M449.6,636.6h24.2c1.4,0,2.5-1.1,2.5-2.5v-8.4c0-6-4.9-10.9-10.8-10.9H458
	c-6,0-10.8,4.9-10.8,10.9v8.4C447.1,635.5,448.3,636.6,449.6,636.6z"/>
<path class="st1" d="M461.8,622.7c0.9,0,1.7,0.8,1.7,1.7c0,0.9-0.8,1.7-1.7,1.7c-0.9,0-1.7-0.8-1.7-1.7
	C460.1,623.5,460.8,622.7,461.8,622.7 M461.8,626.9c1.4,0,2.5-1.1,2.5-2.5c0-1.4-1.1-2.5-2.5-2.5c-1.4,0-2.5,1.1-2.5,2.5
	C459.3,625.7,460.4,626.9,461.8,626.9"/>
<path class="st2" d="M461.8,622.7c0.9,0,1.7,0.8,1.7,1.7c0,0.9-0.8,1.7-1.7,1.7c-0.9,0-1.7-0.8-1.7-1.7
	C460.1,623.5,460.8,622.7,461.8,622.7z M461.8,626.9c1.4,0,2.5-1.1,2.5-2.5c0-1.4-1.1-2.5-2.5-2.5c-1.4,0-2.5,1.1-2.5,2.5
	C459.3,625.7,460.4,626.9,461.8,626.9z"/>
<path class="st2" d="M414.1,619.4c-1,0-1.9-0.9-1.9-1.9c0-1.1,0.8-1.9,1.9-1.9c1,0,1.9,0.9,1.9,1.9
	C416,618.6,415.2,619.4,414.1,619.4z"/>
<path class="st2" d="M423.4,517.3c7.4,0,13.3,6,13.3,13.3v93.8c0,7.4-6,13.3-13.3,13.3h-18.5c-7.4,0-13.3-6-13.3-13.3v-93.8
	c0-7.4,6-13.3,13.3-13.3H423.4z"/>
<path class="st2" d="M419.2,525.6c7.4,0,13.3,6,13.3,13.3V616c0,7.4-6,13.3-13.3,13.3h-10.1c-7.4,0-13.3-6-13.3-13.3v-77.1
	c0-7.4,6-13.3,13.3-13.3H419.2z"/>
<path class="st2" d="M421.8,535.7c3.7,0,6.7,3,6.7,6.7v75.7c0,3.7-3,6.7-6.7,6.7h-15.3c-3.7,0-6.7-3-6.7-6.7v-75.7
	c0-3.7,3-6.7,6.7-6.7H421.8z"/>
<polygon class="st2" points="387.8,642.4 387.8,642.4 387.8,512.6 440.5,512.6 440.5,642.4 "/>
<path class="st1" d="M487.8,684.5c0-7.3-5.9-13.2-13.2-13.2h-19.1c-1.3,0-2.3,1-2.3,2.3v21.8c0,1.3,1,2.3,2.3,2.3h19.1
	C481.9,697.7,487.8,691.8,487.8,684.5 M452.4,695.4v-21.8c0-1.8,1.4-3.2,3.2-3.2h19.1c7.8,0,14.1,6.3,14.1,14.1
	c0,7.8-6.3,14.1-14.1,14.1h-19.1C453.8,698.6,452.4,697.2,452.4,695.4"/>
<path class="st2" d="M487.8,684.5c0-7.3-5.9-13.2-13.2-13.2h-19.1c-1.3,0-2.3,1-2.3,2.3v21.8c0,1.3,1,2.3,2.3,2.3h19.1
	C481.9,697.7,487.8,691.8,487.8,684.5z M452.4,695.4v-21.8c0-1.8,1.4-3.2,3.2-3.2h19.1c7.8,0,14.1,6.3,14.1,14.1
	c0,7.8-6.3,14.1-14.1,14.1h-19.1C453.8,698.6,452.4,697.2,452.4,695.4z"/>
<path class="st2" d="M459.7,675.1V694c0,0.1,0.1,0.2,0.2,0.2h14.4c5.3,0,9.7-4.4,9.7-9.7c0-5.3-4.4-9.7-9.7-9.7h-14.4
	C459.8,674.9,459.7,675,459.7,675.1z"/>
<path class="st1" d="M460.1,675.3v18.4h14.1c5.1,0,9.2-4.1,9.2-9.2c0-5.1-4.1-9.2-9.2-9.2H460.1z M459.2,694v-18.9
	c0-0.4,0.3-0.7,0.7-0.7h14.4c5.6,0,10.1,4.5,10.1,10.1c0,5.6-4.5,10.1-10.1,10.1h-14.4C459.5,694.7,459.2,694.4,459.2,694"/>
<path class="st2" d="M460.1,675.3v18.4h14.1c5.1,0,9.2-4.1,9.2-9.2c0-5.1-4.1-9.2-9.2-9.2H460.1z M459.2,694v-18.9
	c0-0.4,0.3-0.7,0.7-0.7h14.4c5.6,0,10.1,4.5,10.1,10.1c0,5.6-4.5,10.1-10.1,10.1h-14.4C459.5,694.7,459.2,694.4,459.2,694z"/>
<path class="st1" d="M474.3,684.6c0-1.4-1.1-2.5-2.5-2.5c-1.4,0-2.5,1.1-2.5,2.5c0,1.4,1.1,2.5,2.5,2.5
	C473.2,687,474.3,685.9,474.3,684.6 M468.4,684.6c0-1.9,1.5-3.4,3.4-3.4c1.9,0,3.4,1.5,3.4,3.4c0,1.9-1.5,3.4-3.4,3.4
	C469.9,687.9,468.4,686.4,468.4,684.6"/>
<path class="st2" d="M474.3,684.6c0-1.4-1.1-2.5-2.5-2.5c-1.4,0-2.5,1.1-2.5,2.5c0,1.4,1.1,2.5,2.5,2.5
	C473.2,687,474.3,685.9,474.3,684.6z M468.4,684.6c0-1.9,1.5-3.4,3.4-3.4c1.9,0,3.4,1.5,3.4,3.4c0,1.9-1.5,3.4-3.4,3.4
	C469.9,687.9,468.4,686.4,468.4,684.6z"/>
<rect x="464.3" y="675.3" transform="matrix(0.5967 -0.8025 0.8025 0.5967 -357.5037 646.8926)" class="st1" width="0.9" height="7.6"/>
<rect x="464.3" y="675.3" transform="matrix(0.5967 -0.8025 0.8025 0.5967 -357.5037 646.8926)" class="st2" width="0.9" height="7.6"/>
<rect x="461" y="689.4" transform="matrix(0.8008 -0.599 0.599 0.8008 -320.6182 415.8544)" class="st1" width="7.6" height="0.9"/>
<rect x="461" y="689.4" transform="matrix(0.8008 -0.599 0.599 0.8008 -320.6182 415.8544)" class="st2" width="7.6" height="0.9"/>
<path class="st1" d="M452.4,675.5c0-2-1.6-3.6-3.6-3.6h-5c-2,0-3.6,1.6-3.6,3.6v18.2c0,2,1.6,3.6,3.6,3.6h5c2,0,3.6-1.6,3.6-3.6
	V675.5z M439.2,693.6v-18.2c0-2.5,2-4.6,4.6-4.6h5c2.5,0,4.6,2,4.6,4.6v18.2c0,2.5-2,4.6-4.6,4.6h-5
	C441.2,698.2,439.2,696.2,439.2,693.6"/>
<path class="st2" d="M452.4,675.5c0-2-1.6-3.6-3.6-3.6h-5c-2,0-3.6,1.6-3.6,3.6v18.2c0,2,1.6,3.6,3.6,3.6h5c2,0,3.6-1.6,3.6-3.6
	V675.5z M439.2,693.6v-18.2c0-2.5,2-4.6,4.6-4.6h5c2.5,0,4.6,2,4.6,4.6v18.2c0,2.5-2,4.6-4.6,4.6h-5
	C441.2,698.2,439.2,696.2,439.2,693.6z"/>
<path class="st1" d="M447.6,684.6c0-0.8-0.6-1.4-1.4-1.4c-0.8,0-1.4,0.6-1.4,1.4c0,0.8,0.6,1.4,1.4,1.4
	C447,686,447.6,685.3,447.6,684.6 M443.9,684.6c0-1.3,1-2.3,2.3-2.3s2.3,1,2.3,2.3c0,1.3-1,2.3-2.3,2.3S443.9,685.8,443.9,684.6"/>
<path class="st2" d="M447.6,684.6c0-0.8-0.6-1.4-1.4-1.4c-0.8,0-1.4,0.6-1.4,1.4c0,0.8,0.6,1.4,1.4,1.4
	C447,686,447.6,685.3,447.6,684.6z M443.9,684.6c0-1.3,1-2.3,2.3-2.3s2.3,1,2.3,2.3c0,1.3-1,2.3-2.3,2.3S443.9,685.8,443.9,684.6z"
	/>
<rect x="431" y="731.7" class="st2" width="42.1" height="40.3"/>
<path class="st2" d="M467.6,768.7c1,0,1.8-0.8,1.8-1.8v-24.5c0-1-0.8-1.8-1.8-1.8h-31.2c-1,0-1.8,0.8-1.8,1.8v24.5
	c0,1,0.8,1.8,1.8,1.8H467.6z"/>
<path class="st2" d="M464.9,765.8c1,0,1.8-0.8,1.8-1.8v-18.6c0-1-0.8-1.8-1.8-1.8h-25.7c-1,0-1.8,0.8-1.8,1.8V764
	c0,1,0.8,1.8,1.8,1.8H464.9z"/>
<path class="st2" d="M452,747c-0.8,0-1.4,0.6-1.4,1.4c0,0.8,0.6,1.4,1.4,1.4c0.8,0,1.4-0.6,1.4-1.4C453.5,747.7,452.8,747,452,747z"
	/>
<path class="st2" d="M452,734.8c-0.8,0-1.4,0.6-1.4,1.4c0,0.8,0.6,1.4,1.4,1.4c0.8,0,1.4-0.6,1.4-1.4
	C453.5,735.4,452.8,734.8,452,734.8z"/>
<path class="st1" d="M792.1,669c0.9,0.9,2.2,1.4,3.8,1.4c1.6,0,2.9-0.5,3.7-1.4c0.8-0.9,1.3-2.2,1.3-3.9v-1.7c0-2.3-0.8-3.8-2.3-4.5
	c1.5-0.6,2.3-2.1,2.3-4.4V654c0-1.7-0.4-3-1.3-3.9c-0.8-0.9-2.1-1.4-3.7-1.4c-1.6,0-2.9,0.5-3.8,1.4c-0.9,0.9-1.3,2.2-1.3,3.9v1.2
	h3.3v-1.4c0-1.4,0.6-2.1,1.7-2.1c0.6,0,1,0.2,1.3,0.5c0.3,0.4,0.4,1,0.4,1.9v1.2c0,0.8-0.2,1.4-0.5,1.7c-0.3,0.3-0.8,0.5-1.5,0.5
	h-1.3v3h1.1c0.8,0,1.3,0.2,1.7,0.6c0.3,0.4,0.5,1.1,0.5,2.1v1.7c0,0.9-0.1,1.5-0.4,1.9c-0.3,0.4-0.7,0.5-1.3,0.5
	c-1.1,0-1.7-0.7-1.7-2.1v-2h-3.3v1.8C790.7,666.8,791.2,668.1,792.1,669 M788.6,667.1h-3.3v3.1h3.3V667.1z M779.7,652l-4.9,18.2h3.3
	l4.9-18.3v-2.9h-10v3H779.7z"/>
<path class="st1" d="M831.6,617.8c0-0.8,0.1-1.3,0.4-1.7c0.3-0.4,0.7-0.5,1.3-0.5h1.6v6.5h-1.3c-0.7,0-1.2-0.2-1.5-0.5
	c-0.3-0.3-0.5-0.9-0.5-1.7V617.8z M831.3,633.8c0.1-0.2,0.1-0.4,0.2-0.6c0-0.1,0.1-0.4,0.1-0.7c0-0.4,0.1-0.8,0.1-1.3v-3.3
	c0-1,0.2-1.7,0.5-2.1c0.3-0.4,0.9-0.6,1.7-0.6h1.2v8.6h3.3v-21.2h-5c-1.7,0-3,0.4-3.7,1.2c-0.8,0.8-1.2,2-1.2,3.7v1.7
	c0,2.2,0.7,3.6,2.2,4.3c-0.8,0.3-1.4,0.9-1.7,1.6c-0.3,0.8-0.5,1.7-0.5,2.9v3.3c0,1.1-0.1,2-0.3,2.6H831.3z M821.2,616.4l1.6,10.7
	h-3.2L821.2,616.4z M818.6,633.8l0.6-3.9h4.1l0.6,3.9h3.3l-3.4-21.2h-5.1l-3.4,21.2H818.6z M800.2,633.8l3-9.5l0.8,1.6v7.8h3.3V626
	l0.8-1.6l3,9.4h3.3l-4.1-12.6l4.1-8.7h-3.2l-4,8.6v-8.6h-3.3v8.6l-4-8.6h-3.2l4.1,8.7l-4.1,12.5H800.2z M788.9,617.4
	c0-1.4,0.6-2.1,1.7-2.1c1.1,0,1.7,0.7,1.7,2.1v11.5c0,1.4-0.6,2.1-1.7,2.1c-1.2,0-1.7-0.7-1.7-2.1V617.4z M786.9,632.6
	c0.9,0.9,2.1,1.4,3.8,1.4c1.6,0,2.9-0.5,3.8-1.4c0.9-0.9,1.3-2.2,1.3-3.9v-11c0-1.7-0.4-3-1.3-3.9c-0.9-0.9-2.1-1.4-3.8-1.4
	c-1.6,0-2.9,0.5-3.8,1.4c-0.9,0.9-1.3,2.2-1.3,3.9v11C785.6,630.4,786,631.7,786.9,632.6 M775.4,633.8l2.6-7.9l2.6,7.9h3.3
	l-3.7-10.8l3.5-10.4h-2.9l-2.6,7.9l-2.5-7.9h-3.3l3.5,10.3l-3.7,10.9H775.4z M763.3,633.8l2.8-9.7l1.3-5.2v14.9h3.3v-21.2h-4
	l-2.7,8.8l-1.2,4.7v-13.4h-3v21.2H763.3z M751.8,615.6h1.6c0.6,0,1,0.2,1.2,0.5c0.3,0.3,0.4,0.8,0.4,1.5v3.2c0,0.7-0.1,1.2-0.4,1.6
	c-0.3,0.3-0.7,0.5-1.2,0.5h-1.6V615.6z M751.8,633.8v-8h1.6c1.6,0,2.9-0.4,3.7-1.3c0.8-0.9,1.2-2.2,1.2-3.9v-2.8
	c0-1.7-0.4-3-1.2-3.9c-0.8-0.9-2.1-1.3-3.7-1.3h-4.9v21.2H751.8z M738.8,633.8v-18.2h3.8v18.2h3.3v-21.2h-10.5v21.2H738.8z"/>
<path class="st1" d="M528.3,384.6v16.2h3.3v-21.2h-2.3c-0.1,0.3-0.2,0.6-0.3,0.8c-0.1,0.2-0.2,0.5-0.4,0.7c-0.2,0.3-0.4,0.5-0.6,0.6
	c-0.2,0.1-0.5,0.3-0.9,0.4c-0.4,0.1-0.8,0.2-1.3,0.2v2.4H528.3z M521.3,397.7H518v3.1h3.3V397.7z M515.6,400.8v-3h-6.3
	c0-0.1,0-0.2,0-0.5c0-0.5,0.1-0.9,0.4-1.4c0.2-0.5,0.6-1,0.9-1.4c0.4-0.5,0.8-0.9,1.3-1.5c0.5-0.5,0.9-1.1,1.4-1.6
	c0.5-0.6,0.9-1.2,1.3-1.8c0.4-0.6,0.7-1.4,1-2.2c0.2-0.8,0.4-1.7,0.4-2.6c0-1.7-0.4-3-1.3-3.9c-0.8-0.9-2.1-1.4-3.7-1.4
	c-1.6,0-2.9,0.5-3.7,1.4c-0.9,0.9-1.3,2.2-1.3,3.9v2.1h3.2v-2.3c0-1.4,0.6-2.1,1.7-2.1c0.6,0,1,0.2,1.3,0.5c0.3,0.4,0.4,1,0.4,1.9
	c0,0.8-0.1,1.6-0.4,2.3c-0.2,0.7-0.6,1.4-0.9,1.9c-0.4,0.6-0.8,1.1-1.3,1.6c-0.5,0.5-0.9,1.1-1.4,1.6c-0.5,0.5-0.9,1.1-1.3,1.6
	c-0.4,0.6-0.7,1.2-1,2c-0.2,0.7-0.4,1.5-0.4,2.4v2.6H515.6z M498.6,384.6v16.2h3.3v-21.2h-2.2c-0.1,0.3-0.2,0.6-0.3,0.8
	c-0.1,0.2-0.2,0.5-0.4,0.7c-0.2,0.3-0.4,0.5-0.6,0.6c-0.2,0.1-0.5,0.3-0.9,0.4c-0.4,0.1-0.8,0.2-1.3,0.2v2.4H498.6z"/>
<path class="st1" d="M589.3,346.9l1.6,10.7h-3.2L589.3,346.9z M586.7,364.4l0.6-3.9h4.1l0.6,3.9h3.3l-3.4-21.2h-5.1l-3.4,21.2H586.7
	z M575.9,346.2v18.2h3.3v-18.2h3.5v-3h-10.3v3H575.9z M566.2,346.9l1.6,10.7h-3.2L566.2,346.9z M563.5,364.4l0.6-3.9h4.1l0.6,3.9
	h3.3l-3.4-21.2h-5.1l-3.4,21.2H563.5z M551.5,364.4v-9.1h3.8v9.1h3.3v-21.2h-3.3v9.1h-3.8v-9.1h-3.3v21.2H551.5z M534.6,364.4v-15
	l2.5,15h3.2l2.3-15.2v15.2h3.3v-21.2h-4.8l-2.3,15.1l-2.5-15.1h-4.6v21.2H534.6z M522.8,348c0-1.4,0.6-2.1,1.7-2.1
	c1.1,0,1.7,0.7,1.7,2.1v11.5c0,1.4-0.6,2.1-1.7,2.1c-1.2,0-1.7-0.7-1.7-2.1V348z M520.8,363.2c0.9,0.9,2.1,1.4,3.8,1.4
	c1.6,0,2.9-0.5,3.8-1.4c0.9-0.9,1.3-2.2,1.3-3.9v-11c0-1.7-0.4-3-1.3-3.9c-0.9-0.9-2.1-1.4-3.8-1.4c-1.6,0-2.9,0.5-3.8,1.4
	c-0.9,0.9-1.3,2.2-1.3,3.9v11C519.5,361,519.9,362.3,520.8,363.2 M510.5,364.4v-6.5l1-1.9l3.2,8.5h3.4l-4.6-11.8l4.6-9.5h-3.3
	l-4.4,9.3v-9.3h-3.3v21.2H510.5z M493.4,348.4c0-0.8,0.1-1.3,0.4-1.7c0.3-0.4,0.7-0.5,1.3-0.5h1.6v6.5h-1.3c-0.7,0-1.2-0.2-1.5-0.5
	c-0.3-0.3-0.5-0.9-0.5-1.7V348.4z M493.1,364.4c0.1-0.2,0.1-0.4,0.2-0.6c0-0.1,0.1-0.4,0.1-0.7c0-0.4,0.1-0.8,0.1-1.3v-3.3
	c0-1,0.2-1.7,0.5-2.1c0.3-0.4,0.9-0.6,1.7-0.6h1.2v8.6h3.3v-21.2h-5c-1.7,0-3,0.4-3.7,1.2c-0.8,0.8-1.2,2-1.2,3.7v1.7
	c0,2.2,0.7,3.6,2.2,4.3c-0.8,0.3-1.4,0.9-1.7,1.6c-0.3,0.8-0.5,1.7-0.5,2.9v3.3c0,1.1-0.1,2-0.3,2.6H493.1z M483.1,346.9l1.6,10.7
	h-3.2L483.1,346.9z M480.4,364.4l0.6-3.9h4.1l0.6,3.9h3.3l-3.4-21.2h-5.1l-3.4,21.2H480.4z M463.9,364.4c1.7,0,2.9-0.4,3.6-1.2
	c0.8-0.8,1.2-2.2,1.2-4.1l0.4-12.8h2.9v18.2h3.3v-21.2h-9.6l-0.4,16.1c0,0.5-0.1,0.9-0.1,1.2c-0.1,0.3-0.2,0.5-0.4,0.7
	c-0.2,0.2-0.4,0.2-0.6,0.3c-0.2,0-0.5,0.1-0.9,0.1v3H463.9z M454.8,364.4l2.8-9.7l1.4-5.2v14.9h3.3v-21.2h-4l-2.7,8.8l-1.2,4.7
	v-13.4h-3v21.2H454.8z M435.5,364.4l3-9.5l0.8,1.6v7.8h3.3v-7.8l0.8-1.6l3,9.4h3.3l-4.1-12.6l4.1-8.7h-3.2l-3.9,8.6v-8.6h-3.3v8.6
	l-3.9-8.6h-3.2l4.1,8.7l-4.1,12.5H435.5z"/>
<path class="st1" d="M519,705.4c0.8,0.8,2,1.3,3.5,1.3c1.5,0,2.6-0.4,3.4-1.3c0.8-0.8,1.2-2,1.2-3.6v-1.5c0-2.1-0.7-3.5-2.1-4.1
	c1.4-0.6,2.1-1.9,2.1-4v-0.5c0-1.6-0.4-2.8-1.2-3.6c-0.8-0.8-1.9-1.3-3.4-1.3c-1.5,0-2.6,0.4-3.5,1.3c-0.8,0.8-1.2,2-1.2,3.6v1.1h3
	v-1.2c0-1.3,0.5-1.9,1.6-1.9c0.5,0,0.9,0.2,1.2,0.5c0.3,0.3,0.4,0.9,0.4,1.7v1.1c0,0.7-0.2,1.3-0.5,1.6c-0.3,0.3-0.8,0.5-1.4,0.5
	H521v2.8h1c0.7,0,1.2,0.2,1.5,0.6c0.3,0.4,0.5,1,0.5,1.9v1.5c0,0.8-0.1,1.4-0.4,1.7c-0.3,0.3-0.7,0.5-1.2,0.5c-1,0-1.6-0.6-1.6-1.9
	v-1.8h-3v1.6C517.8,703.4,518.2,704.6,519,705.4 M515.9,703.6h-3v2.8h3V703.6z M506.1,691.6v14.8h3V687h-2.1
	c-0.1,0.3-0.2,0.6-0.3,0.8c-0.1,0.2-0.2,0.4-0.4,0.6c-0.2,0.2-0.4,0.4-0.6,0.6c-0.2,0.1-0.5,0.2-0.9,0.3c-0.4,0.1-0.8,0.1-1.2,0.1
	v2.2H506.1z"/>
<path class="st1" d="M523.7,674.5l0,0.2c-0.1,0.7-0.4,1.1-0.8,1.3c-0.4,0.2-1.1,0.3-1.9,0.2v2.8c0.8,0.1,1.5,0,2.2-0.1
	c0.6-0.1,1.1-0.3,1.6-0.5c0.4-0.2,0.8-0.6,1.1-1c0.3-0.4,0.5-0.9,0.7-1.4c0.2-0.5,0.4-1.2,0.5-1.9l3.3-14.4h-3l-1.4,6.7l-0.7,4.5
	l-0.9-4.5l-1.6-6.6h-3L523.7,674.5z M511.5,679l7.6-19.4h-2.6l-7.6,19.4H511.5z M500,677.9c0.8,0.8,1.9,1.3,3.4,1.3
	c1.5,0,2.6-0.4,3.5-1.3c0.8-0.8,1.2-2,1.2-3.6v-2.6h-3v2.8c0,1.3-0.5,1.9-1.6,1.9c-1.1,0-1.6-0.6-1.6-1.9V664c0-1.3,0.5-1.9,1.6-1.9
	c1.1,0,1.6,0.6,1.6,1.9v2.1h3v-1.9c0-1.6-0.4-2.8-1.2-3.6c-0.8-0.8-2-1.3-3.5-1.3c-1.5,0-2.6,0.4-3.4,1.3c-0.8,0.8-1.2,2-1.2,3.6
	v10.1C498.9,675.9,499.2,677.1,500,677.9"/>
<path class="st1" d="M505.6,563.1l-4.5,16.6h3l4.5-16.7v-2.7h-9.1v2.8H505.6z M497.7,576.9h-3v2.8h3V576.9z M484.7,578.7
	c0.8,0.8,2,1.3,3.5,1.3c1.5,0,2.6-0.4,3.4-1.3c0.8-0.8,1.2-2,1.2-3.6v-1.5c0-2.1-0.7-3.5-2.1-4.1c1.4-0.6,2.1-1.9,2.1-4V565
	c0-1.6-0.4-2.8-1.2-3.6c-0.8-0.8-1.9-1.3-3.4-1.3c-1.5,0-2.6,0.4-3.5,1.3c-0.8,0.8-1.2,2-1.2,3.6v1.1h3v-1.2c0-1.3,0.5-1.9,1.6-1.9
	c0.5,0,0.9,0.2,1.2,0.5c0.3,0.3,0.4,0.9,0.4,1.7v1.1c0,0.7-0.2,1.3-0.5,1.6c-0.3,0.3-0.8,0.5-1.4,0.5h-1.2v2.8h1
	c0.7,0,1.2,0.2,1.5,0.6c0.3,0.4,0.5,1,0.5,1.9v1.5c0,0.8-0.1,1.4-0.4,1.7c-0.3,0.3-0.7,0.5-1.2,0.5c-1,0-1.6-0.6-1.6-1.9v-1.8h-3
	v1.6C483.5,576.6,483.9,577.8,484.7,578.7"/>
<path class="st1" d="M523.2,537.6c0-0.7,0.1-1.2,0.4-1.5c0.2-0.3,0.6-0.5,1.2-0.5h1.5v6H525c-0.6,0-1.1-0.2-1.4-0.5
	c-0.3-0.3-0.5-0.8-0.5-1.6V537.6z M522.9,552.2c0.1-0.2,0.1-0.4,0.1-0.5c0-0.1,0.1-0.3,0.1-0.6c0-0.3,0-0.7,0-1.2v-3
	c0-0.9,0.2-1.5,0.5-1.9c0.3-0.4,0.8-0.6,1.5-0.6h1.1v7.9h3v-19.4h-4.6c-1.6,0-2.7,0.4-3.4,1.1c-0.7,0.7-1.1,1.9-1.1,3.4v1.5
	c0,2,0.7,3.3,2,3.9c-0.7,0.3-1.2,0.8-1.6,1.5c-0.3,0.7-0.5,1.6-0.5,2.6v3c0,1-0.1,1.8-0.3,2.4H522.9z M513.7,536.3l1.5,9.8h-2.9
	L513.7,536.3z M511.3,552.2l0.5-3.5h3.7l0.5,3.5h3l-3.1-19.4h-4.7l-3.1,19.4H511.3z M500.3,552.2v-8.3h3.5v8.3h3v-19.4h-3v8.3h-3.5
	v-8.3h-3v19.4H500.3z M488.5,552.2v-8.3h3.5v8.3h3v-19.4h-3v8.3h-3.5v-8.3h-3v19.4H488.5z M478.8,536.3l1.5,9.8h-2.9L478.8,536.3z
	 M476.4,552.2l0.5-3.5h3.7l0.5,3.5h3l-3.1-19.4h-4.7l-3.1,19.4H476.4z M465.9,535.6h1.5c0.5,0,0.9,0.2,1.2,0.5
	c0.2,0.3,0.4,0.8,0.4,1.5v1.1c0,0.7-0.2,1.3-0.5,1.6c-0.3,0.3-0.8,0.5-1.4,0.5h-1.2V535.6z M465.9,543.5h1.4c0.7,0,1.2,0.2,1.5,0.5
	c0.3,0.3,0.5,1,0.5,1.8v1.7c0,0.7-0.1,1.2-0.4,1.5c-0.3,0.3-0.7,0.4-1.2,0.4h-1.7V543.5z M467.7,552.2c1.5,0,2.7-0.4,3.5-1.2
	c0.8-0.8,1.2-1.9,1.2-3.4V546c0-2.2-0.8-3.6-2.3-4.2c1.3-0.6,2-1.9,2-3.9v-0.7c0-1.5-0.4-2.6-1.1-3.4c-0.7-0.7-1.9-1.1-3.4-1.1h-4.6
	v19.4H467.7z"/>
<path class="st1" d="M619.4,655.8c0.8,0.8,2,1.3,3.5,1.3c1.5,0,2.6-0.4,3.4-1.3c0.8-0.8,1.2-2,1.2-3.6v-1.5c0-2.1-0.7-3.5-2.1-4.1
	c1.4-0.6,2.1-1.9,2.1-4v-0.5c0-1.6-0.4-2.8-1.2-3.6c-0.8-0.8-1.9-1.3-3.4-1.3c-1.5,0-2.6,0.4-3.5,1.3c-0.8,0.8-1.2,2-1.2,3.6v1.1h3
	v-1.2c0-1.3,0.5-1.9,1.6-1.9c0.5,0,0.9,0.2,1.2,0.5c0.3,0.3,0.4,0.9,0.4,1.7v1.1c0,0.7-0.2,1.3-0.5,1.6c-0.3,0.3-0.8,0.5-1.4,0.5
	h-1.2v2.8h1c0.7,0,1.2,0.2,1.5,0.6c0.3,0.4,0.5,1,0.5,1.9v1.5c0,0.8-0.1,1.4-0.4,1.7c-0.3,0.3-0.7,0.5-1.2,0.5c-1,0-1.6-0.6-1.6-1.9
	v-1.8h-3v1.6C618.2,653.7,618.6,654.9,619.4,655.8 M616.2,654h-3v2.8h3V654z M603.3,655.8c0.8,0.8,2,1.3,3.5,1.3
	c1.5,0,2.6-0.4,3.4-1.3c0.8-0.8,1.2-2,1.2-3.6v-1.5c0-2.1-0.7-3.5-2.1-4.1c1.4-0.6,2.1-1.9,2.1-4v-0.5c0-1.6-0.4-2.8-1.2-3.6
	c-0.8-0.8-1.9-1.3-3.4-1.3c-1.5,0-2.6,0.4-3.5,1.3c-0.8,0.8-1.2,2-1.2,3.6v1.1h3v-1.2c0-1.3,0.5-1.9,1.6-1.9c0.5,0,0.9,0.2,1.2,0.5
	c0.3,0.3,0.4,0.9,0.4,1.7v1.1c0,0.7-0.2,1.3-0.5,1.6c-0.3,0.3-0.8,0.5-1.4,0.5h-1.2v2.8h1c0.7,0,1.2,0.2,1.5,0.6
	c0.3,0.4,0.5,1,0.5,1.9v1.5c0,0.8-0.1,1.4-0.4,1.7c-0.3,0.3-0.7,0.5-1.2,0.5c-1,0-1.6-0.6-1.6-1.9v-1.8h-3v1.6
	C602,653.7,602.4,654.9,603.3,655.8"/>
<path class="st1" d="M648.2,612.7h1.4c0.5,0,0.9,0.1,1.1,0.4c0.2,0.3,0.4,0.7,0.4,1.4v2.9c0,0.7-0.1,1.1-0.4,1.4
	c-0.2,0.3-0.6,0.4-1.1,0.4h-1.4V612.7z M648.2,629.4v-7.3h1.4c1.5,0,2.6-0.4,3.4-1.2c0.8-0.8,1.1-2,1.1-3.6v-2.5
	c0-1.6-0.4-2.8-1.1-3.6c-0.8-0.8-1.9-1.2-3.4-1.2h-4.5v19.4H648.2z M636.9,614.4c0-1.3,0.5-1.9,1.6-1.9c1.1,0,1.6,0.6,1.6,1.9v10.5
	c0,1.3-0.5,1.9-1.6,1.9c-1.1,0-1.6-0.6-1.6-1.9V614.4z M635.1,628.3c0.8,0.8,1.9,1.3,3.4,1.3c1.5,0,2.6-0.4,3.4-1.3
	c0.8-0.8,1.2-2,1.2-3.6v-10.1c0-1.6-0.4-2.8-1.2-3.6c-0.8-0.8-1.9-1.3-3.4-1.3c-1.5,0-2.6,0.4-3.4,1.3c-0.8,0.8-1.2,2-1.2,3.6v10.1
	C633.9,626.3,634.3,627.5,635.1,628.3 M624.7,625.7c0.1-0.4,0.2-0.9,0.3-1.6l0.6-11.3h2.6v13.9h-4
	C624.3,626.3,624.5,626,624.7,625.7 M622.9,631.9v-2.6h6.5v2.6h3v-5.3h-1.3V610h-8.7l-0.6,14.1c0,0.6-0.1,1.1-0.2,1.5
	c-0.1,0.4-0.3,0.7-0.6,1h-1.2v5.3H622.9z M611.9,629.4l2.6-8.9l1.2-4.7v13.6h3V610h-3.7l-2.5,8l-1.1,4.3V610h-2.7v19.4H611.9z
	 M601.4,612.7h1.4c0.5,0,0.9,0.1,1.1,0.4c0.2,0.3,0.4,0.7,0.4,1.4v2.9c0,0.7-0.1,1.1-0.4,1.4c-0.2,0.3-0.6,0.4-1.1,0.4h-1.4V612.7z
	 M601.4,629.4v-7.3h1.4c1.5,0,2.6-0.4,3.4-1.2c0.8-0.8,1.1-2,1.1-3.6v-2.5c0-1.6-0.4-2.8-1.1-3.6c-0.8-0.8-1.9-1.2-3.4-1.2h-4.5
	v19.4H601.4z M590.2,614.4c0-1.3,0.5-1.9,1.6-1.9c1.1,0,1.6,0.6,1.6,1.9v10.5c0,1.3-0.5,1.9-1.6,1.9c-1.1,0-1.6-0.6-1.6-1.9V614.4z
	 M588.3,628.3c0.8,0.8,1.9,1.3,3.4,1.3c1.5,0,2.6-0.4,3.4-1.3c0.8-0.8,1.2-2,1.2-3.6v-10.1c0-1.6-0.4-2.8-1.2-3.6
	c-0.8-0.8-1.9-1.3-3.4-1.3c-1.5,0-2.6,0.4-3.4,1.3c-0.8,0.8-1.2,2-1.2,3.6v10.1C587.1,626.3,587.5,627.5,588.3,628.3 M579,629.4v-6
	l0.9-1.8l3,7.7h3.1l-4.2-10.8l4.2-8.6h-3l-4,8.5V610h-3v19.4H579z"/>
<path class="st1" d="M805.3,496.1v-3H799c0-0.1,0-0.2,0-0.5c0-0.5,0.1-0.9,0.4-1.4c0.2-0.5,0.6-1,1-1.4c0.4-0.5,0.8-0.9,1.3-1.5
	c0.5-0.5,0.9-1.1,1.4-1.6c0.5-0.6,0.9-1.2,1.3-1.8c0.4-0.6,0.7-1.4,1-2.2c0.2-0.8,0.4-1.7,0.4-2.6c0-1.7-0.4-3-1.3-3.9
	c-0.8-0.9-2.1-1.4-3.7-1.4c-1.6,0-2.9,0.5-3.7,1.4c-0.9,0.9-1.3,2.2-1.3,3.9v2.1h3.2v-2.3c0-1.4,0.6-2.1,1.7-2.1
	c0.6,0,1,0.2,1.3,0.5c0.3,0.4,0.4,1,0.4,1.9c0,0.8-0.1,1.6-0.4,2.3c-0.2,0.7-0.6,1.4-0.9,1.9c-0.4,0.6-0.8,1.1-1.3,1.6
	c-0.5,0.5-0.9,1.1-1.4,1.6c-0.5,0.5-0.9,1.1-1.3,1.6c-0.4,0.6-0.7,1.2-0.9,2c-0.2,0.7-0.4,1.5-0.4,2.4v2.6H805.3z M793.4,493h-3.3
	v3.1h3.3V493z M783.7,481.2v8h-3.4L783.7,481.2z M783.7,492.2v3.9h3.3v-3.9h1.5v-3H787v-14.3h-3.6l-6.1,14.3v3H783.7z M770.7,479.9
	v16.2h3.3v-21.2h-2.2c-0.1,0.3-0.2,0.6-0.3,0.8c-0.1,0.2-0.2,0.5-0.4,0.7c-0.2,0.3-0.4,0.5-0.6,0.6c-0.2,0.1-0.5,0.3-0.9,0.4
	c-0.4,0.1-0.8,0.2-1.3,0.2v2.4H770.7z"/>
<path class="st1" d="M861.3,442.3l1.6,10.7h-3.2L861.3,442.3z M858.7,459.7l0.6-3.9h4.1l0.6,3.9h3.3l-3.4-21.2h-5.1l-3.4,21.2H858.7
	z M848,441.5v18.2h3.3v-18.2h3.5v-3h-10.3v3H848z M838.2,442.3l1.6,10.7h-3.2L838.2,442.3z M835.6,459.7l0.6-3.9h4.1l0.6,3.9h3.3
	l-3.4-21.2h-5.1l-3.4,21.2H835.6z M823.5,459.7v-9.1h3.8v9.1h3.3v-21.2h-3.3v9.1h-3.8v-9.1h-3.3v21.2H823.5z M806.7,459.7v-15
	l2.5,15h3.2l2.3-15.2v15.2h3.3v-21.2h-4.8l-2.3,15.1l-2.5-15.1h-4.6v21.2H806.7z M794.8,443.4c0-1.4,0.6-2.1,1.7-2.1
	c1.1,0,1.7,0.7,1.7,2.1v11.5c0,1.4-0.6,2.1-1.7,2.1c-1.2,0-1.7-0.7-1.7-2.1V443.4z M792.8,458.5c0.9,0.9,2.1,1.4,3.8,1.4
	c1.6,0,2.9-0.5,3.8-1.4c0.9-0.9,1.3-2.2,1.3-3.9v-11c0-1.7-0.4-3-1.3-3.9c-0.9-0.9-2.1-1.4-3.8-1.4c-1.6,0-2.9,0.5-3.8,1.4
	c-0.9,0.9-1.3,2.2-1.3,3.9v11C791.5,456.3,791.9,457.6,792.8,458.5 M782.6,459.7v-6.5l1-1.9l3.2,8.5h3.4l-4.6-11.8l4.6-9.5h-3.3
	l-4.4,9.3v-9.3h-3.3v21.2H782.6z M765.5,443.7c0-0.8,0.1-1.3,0.4-1.7c0.3-0.4,0.7-0.5,1.3-0.5h1.6v6.5h-1.3c-0.7,0-1.2-0.2-1.5-0.5
	c-0.3-0.3-0.5-0.9-0.5-1.7V443.7z M765.1,459.7c0.1-0.2,0.1-0.4,0.2-0.6c0-0.1,0.1-0.4,0.1-0.7c0-0.4,0.1-0.8,0.1-1.3v-3.3
	c0-1,0.2-1.7,0.5-2.1c0.3-0.4,0.9-0.6,1.7-0.6h1.2v8.6h3.3v-21.2h-5c-1.7,0-3,0.4-3.7,1.2c-0.8,0.8-1.2,2-1.2,3.7v1.7
	c0,2.2,0.7,3.6,2.2,4.3c-0.8,0.3-1.4,0.9-1.7,1.6c-0.3,0.8-0.5,1.7-0.5,2.9v3.3c0,1.1-0.1,2-0.3,2.6H765.1z M755.1,442.3l1.6,10.7
	h-3.2L755.1,442.3z M752.5,459.7l0.6-3.9h4.1l0.6,3.9h3.3l-3.4-21.2h-5.1l-3.4,21.2H752.5z M736,459.7c1.7,0,2.9-0.4,3.6-1.2
	c0.8-0.8,1.2-2.2,1.2-4.1l0.4-12.8h2.9v18.2h3.3v-21.2h-9.6l-0.4,16.1c0,0.5-0.1,0.9-0.1,1.2c-0.1,0.3-0.2,0.5-0.4,0.7
	c-0.2,0.2-0.4,0.2-0.6,0.3c-0.2,0-0.5,0.1-0.9,0.1v3H736z M726.9,459.7l2.8-9.7l1.4-5.2v14.9h3.3v-21.2h-4l-2.7,8.8l-1.2,4.7v-13.4
	h-3v21.2H726.9z M707.5,459.7l3-9.5l0.8,1.6v7.8h3.3v-7.8l0.8-1.6l3,9.4h3.3l-4.1-12.6l4.1-8.7h-3.2l-3.9,8.6v-8.6h-3.3v8.6
	l-3.9-8.6h-3.2l4.1,8.7l-4.1,12.5H707.5z"/>
<path class="st1" d="M527.2,1017.7c0-0.9,0.2-1.5,0.5-1.9c0.3-0.4,0.8-0.5,1.4-0.5c0.6,0,1.1,0.2,1.4,0.5c0.3,0.4,0.5,1,0.5,1.9v1.2
	c0,1.5-0.6,2.2-1.9,2.2c-1.3,0-1.9-0.7-1.9-2.2V1017.7z M527.2,1026.6c0-1.6,0.6-2.4,1.9-2.4c1.2,0,1.9,0.8,1.9,2.4v2
	c0,0.9-0.2,1.5-0.5,1.9c-0.3,0.4-0.8,0.5-1.4,0.5c-0.6,0-1.1-0.2-1.4-0.5s-0.5-1-0.5-1.9V1026.6z M525.2,1032.6
	c0.9,0.9,2.2,1.4,3.9,1.4c1.7,0,3-0.5,3.9-1.4c0.9-0.9,1.3-2.2,1.3-3.9v-1.7c0-2.2-0.7-3.6-2.1-4.4c1.4-0.8,2.1-2.2,2.1-4.3v-0.7
	c0-1.7-0.4-3-1.3-3.9c-0.9-0.9-2.2-1.4-3.9-1.4c-1.7,0-3,0.5-3.9,1.4c-0.9,0.9-1.3,2.2-1.3,3.9v0.7c0,2.1,0.7,3.5,2.1,4.3
	c-1.4,0.8-2.1,2.3-2.1,4.4v1.7C523.9,1030.3,524.3,1031.6,525.2,1032.6 M522,1030.6h-3.3v3.1h3.3V1030.6z M516.3,1033.7v-3H510
	c0-0.1,0-0.2,0-0.5c0-0.5,0.1-0.9,0.4-1.4c0.2-0.5,0.6-1,0.9-1.4c0.4-0.5,0.8-0.9,1.3-1.5c0.5-0.5,0.9-1.1,1.4-1.6
	c0.5-0.6,0.9-1.2,1.3-1.8c0.4-0.6,0.7-1.4,1-2.2c0.2-0.8,0.4-1.7,0.4-2.6c0-1.7-0.4-3-1.3-3.9c-0.8-0.9-2.1-1.4-3.7-1.4
	s-2.9,0.5-3.7,1.4c-0.9,0.9-1.3,2.2-1.3,3.9v2.1h3.2v-2.3c0-1.4,0.6-2.1,1.7-2.1c0.6,0,1,0.2,1.3,0.5c0.3,0.4,0.4,1,0.4,1.9
	c0,0.8-0.1,1.6-0.4,2.3c-0.2,0.7-0.6,1.4-0.9,1.9c-0.4,0.6-0.8,1.1-1.3,1.6c-0.5,0.5-0.9,1.1-1.4,1.6c-0.5,0.5-0.9,1.1-1.3,1.6
	c-0.4,0.6-0.7,1.2-1,2c-0.2,0.7-0.4,1.5-0.4,2.4v2.6H516.3z M499.3,1017.5v16.2h3.3v-21.2h-2.2c-0.1,0.3-0.2,0.6-0.3,0.8
	c-0.1,0.2-0.2,0.5-0.4,0.7c-0.2,0.3-0.4,0.5-0.6,0.6c-0.2,0.1-0.5,0.3-0.9,0.4c-0.4,0.1-0.8,0.2-1.3,0.2v2.4H499.3z"/>
<path class="st1" d="M589.9,979.9l1.6,10.7h-3.2L589.9,979.9z M587.3,997.3l0.6-3.9h4.1l0.6,3.9h3.3l-3.4-21.2h-5.1l-3.4,21.2H587.3
	z M576.6,979.1v18.2h3.3v-18.2h3.5v-3h-10.3v3H576.6z M566.8,979.9l1.6,10.7h-3.2L566.8,979.9z M564.2,997.3l0.6-3.9h4.1l0.6,3.9
	h3.3l-3.4-21.2h-5.1l-3.4,21.2H564.2z M552.1,997.3v-9.1h3.8v9.1h3.3v-21.2h-3.3v9.1h-3.8v-9.1h-3.3v21.2H552.1z M535.3,997.3v-15
	l2.5,15h3.2l2.3-15.2v15.2h3.3v-21.2h-4.8l-2.3,15.1l-2.5-15.1h-4.6v21.2H535.3z M523.5,981c0-1.4,0.6-2.1,1.7-2.1
	c1.1,0,1.7,0.7,1.7,2.1v11.5c0,1.4-0.6,2.1-1.7,2.1c-1.2,0-1.7-0.7-1.7-2.1V981z M521.4,996.2c0.9,0.9,2.1,1.4,3.8,1.4
	c1.6,0,2.9-0.5,3.8-1.4c0.9-0.9,1.3-2.2,1.3-3.9v-11c0-1.7-0.4-3-1.3-3.9c-0.9-0.9-2.1-1.4-3.8-1.4c-1.6,0-2.9,0.5-3.8,1.4
	c-0.9,0.9-1.3,2.2-1.3,3.9v11C520.1,993.9,520.6,995.2,521.4,996.2 M511.2,997.3v-6.5l1-1.9l3.2,8.5h3.4l-4.6-11.8l4.6-9.5h-3.3
	l-4.4,9.3v-9.3h-3.3v21.2H511.2z M494.1,981.3c0-0.8,0.1-1.3,0.4-1.7c0.3-0.4,0.7-0.5,1.3-0.5h1.6v6.5h-1.3c-0.7,0-1.2-0.2-1.5-0.5
	c-0.3-0.3-0.5-0.9-0.5-1.7V981.3z M493.8,997.3c0.1-0.2,0.1-0.4,0.2-0.6c0-0.1,0.1-0.4,0.1-0.7c0-0.4,0.1-0.8,0.1-1.3v-3.3
	c0-1,0.2-1.7,0.5-2.1c0.3-0.4,0.9-0.6,1.7-0.6h1.2v8.6h3.3v-21.2h-5c-1.7,0-3,0.4-3.7,1.2c-0.8,0.8-1.2,2-1.2,3.7v1.7
	c0,2.2,0.7,3.6,2.2,4.3c-0.8,0.3-1.4,0.9-1.7,1.6c-0.3,0.8-0.5,1.7-0.5,2.9v3.3c0,1.1-0.1,2-0.3,2.6H493.8z M483.7,979.9l1.6,10.7
	h-3.2L483.7,979.9z M481.1,997.3l0.6-3.9h4.1l0.6,3.9h3.3l-3.4-21.2h-5.1l-3.4,21.2H481.1z M464.6,997.3c1.7,0,2.9-0.4,3.6-1.2
	c0.8-0.8,1.2-2.2,1.2-4.1l0.4-12.8h2.9v18.2h3.3v-21.2h-9.6l-0.4,16.1c0,0.5-0.1,0.9-0.1,1.2c-0.1,0.3-0.2,0.5-0.4,0.7
	c-0.2,0.2-0.4,0.2-0.6,0.3c-0.2,0-0.5,0.1-0.9,0.1v3H464.6z M455.5,997.3l2.8-9.7l1.4-5.2v14.9h3.3v-21.2h-4l-2.7,8.8l-1.2,4.7
	v-13.4h-3v21.2H455.5z M436.1,997.3l3-9.5l0.8,1.6v7.8h3.3v-7.8l0.8-1.6l3,9.4h3.3l-4.1-12.6l4.1-8.7h-3.2l-3.9,8.6v-8.6H440v8.6
	l-3.9-8.6h-3.2l4.1,8.7l-4.1,12.5H436.1z"/>
<path class="st1" d="M530.5,845.5v-3h-6.3c0-0.1,0-0.3,0-0.5c0-0.5,0.1-0.9,0.4-1.4c0.2-0.5,0.6-1,0.9-1.4c0.4-0.5,0.8-1,1.3-1.5
	c0.5-0.5,0.9-1.1,1.4-1.6c0.5-0.6,0.9-1.2,1.3-1.8c0.4-0.6,0.7-1.4,0.9-2.2c0.2-0.8,0.4-1.7,0.4-2.6c0-1.7-0.4-3-1.3-3.9
	c-0.8-0.9-2.1-1.4-3.7-1.4c-1.6,0-2.9,0.5-3.7,1.4c-0.9,0.9-1.3,2.2-1.3,3.9v2.1h3.2v-2.3c0-1.4,0.6-2.1,1.7-2.1
	c0.6,0,1,0.2,1.3,0.5c0.3,0.4,0.4,1,0.4,1.9c0,0.8-0.1,1.6-0.4,2.3c-0.2,0.7-0.6,1.4-0.9,1.9c-0.4,0.6-0.8,1.1-1.3,1.6
	c-0.5,0.5-0.9,1.1-1.4,1.6c-0.5,0.5-0.9,1.1-1.3,1.6c-0.4,0.6-0.7,1.2-1,2c-0.2,0.7-0.4,1.5-0.4,2.4v2.6H530.5z M518.6,842.5h-3.3
	v3.1h3.3V842.5z M506.4,836.8c0-1.4,0.6-2.1,1.7-2.1c1.1,0,1.7,0.7,1.7,2.1v3.8c0,1.4-0.6,2.1-1.7,2.1c-1.2,0-1.7-0.7-1.7-2.1V836.8
	z M504.4,844.4c0.9,0.9,2.1,1.4,3.8,1.4c1.6,0,2.9-0.5,3.7-1.4c0.9-0.9,1.3-2.2,1.3-3.9v-3.9c0-1.6-0.3-2.8-0.9-3.6
	c-0.6-0.8-1.5-1.2-2.8-1.2c-1.5,0-2.5,0.6-3.1,1.9v-3.9c0-1,0.1-1.6,0.5-2c0.3-0.4,0.8-0.6,1.4-0.6c1.2,0,1.7,0.7,1.7,2.1v0.8h3.1
	v-0.5c0-1.7-0.4-3-1.3-3.9c-0.8-0.9-2.1-1.4-3.7-1.4c-3.4,0-5.1,1.8-5.1,5.5v10.9C503,842.1,503.5,843.5,504.4,844.4"/>
<path class="st1" d="M574.6,791.7l1.6,10.7H573L574.6,791.7z M572,809.1l0.6-3.9h4.1l0.6,3.9h3.3l-3.4-21.2h-5.1l-3.4,21.2H572z
	 M567.1,809.1v-21.2h-3.3v18.2h-2.9v-18.2h-3.3v18.2h-2.9v-18.2h-3.3v21.2H567.1z M541.9,809.1l2.8-9.7l1.3-5.2v14.9h3.3v-21.2h-4
	l-2.7,8.8l-1.2,4.7v-13.4h-3v21.2H541.9z M528.8,809.1v-9.1h3.8v9.1h3.3v-21.2h-3.3v9.1h-3.8v-9.1h-3.3v21.2H528.8z M523.2,797h-6.1
	v3h6.1V797z M508.3,793.1c0-0.8,0.1-1.3,0.4-1.7c0.3-0.4,0.7-0.5,1.3-0.5h1.6v6.5h-1.3c-0.7,0-1.2-0.2-1.5-0.5
	c-0.3-0.3-0.5-0.9-0.5-1.7V793.1z M507.9,809.1c0.1-0.2,0.1-0.4,0.2-0.6c0-0.1,0.1-0.4,0.1-0.7c0-0.4,0.1-0.8,0.1-1.3v-3.3
	c0-1,0.2-1.7,0.5-2.1c0.3-0.4,0.9-0.6,1.7-0.6h1.2v8.6h3.3v-21.2h-5c-1.7,0-3,0.4-3.7,1.2c-0.8,0.8-1.2,2-1.2,3.7v1.7
	c0,2.2,0.7,3.6,2.2,4.3c-0.8,0.3-1.4,0.9-1.7,1.6c-0.3,0.8-0.5,1.7-0.5,2.9v3.3c0,1.1-0.1,2-0.3,2.6H507.9z M495.5,809.1v-9.1h3.8
	v9.1h3.3v-21.2h-3.3v9.1h-3.8v-9.1h-3.3v21.2H495.5z M481.7,809.1l2.6-7.9l2.6,7.9h3.3l-3.7-10.8l3.5-10.4h-2.9l-2.6,7.9l-2.5-7.9
	h-3.3l3.5,10.3l-3.7,10.9H481.7z M470.4,804.3l0,0.2c-0.1,0.7-0.4,1.2-0.9,1.4c-0.5,0.2-1.2,0.3-2.1,0.3v3c0.9,0.1,1.7,0,2.3-0.1
	c0.7-0.1,1.2-0.3,1.7-0.6c0.5-0.3,0.9-0.6,1.2-1.1c0.3-0.5,0.6-1,0.8-1.6c0.2-0.6,0.4-1.3,0.6-2.1l3.6-15.8h-3.3l-1.5,7.3l-0.8,4.9
	l-1-5l-1.8-7.2h-3.3L470.4,804.3z M457.6,809.1v-6.5l1-1.9l3.2,8.5h3.4l-4.6-11.8l4.6-9.5H462l-4.4,9.3v-9.3h-3.3v21.2H457.6z"/>
<path class="st1" d="M811.2,418.2c2,2.1,4.9,3.2,8.6,3.2s6.5-1.1,8.5-3.2c1.9-2.1,2.9-5.1,2.9-9v-3.8c0-5.3-1.8-8.7-5.3-10.2
	c3.5-1.5,5.3-4.8,5.3-10v-1.3c0-3.9-1-6.9-2.9-9c-1.9-2.1-4.8-3.2-8.5-3.2s-6.6,1.1-8.6,3.2c-2.1,2.1-3.1,5.1-3.1,9v2.6h7.6v-3.1
	c0-3.2,1.3-4.8,3.9-4.8c1.3,0,2.3,0.4,2.9,1.2c0.7,0.8,1,2.3,1,4.3v2.7c0,1.9-0.4,3.2-1.1,3.9c-0.8,0.8-1.9,1.2-3.4,1.2h-3v6.9h2.6
	c1.8,0,3,0.5,3.8,1.4c0.8,0.9,1.2,2.5,1.2,4.7v3.8c0,2-0.3,3.5-1,4.3c-0.7,0.8-1.6,1.2-2.9,1.2c-2.6,0-3.9-1.6-3.9-4.8v-4.5h-7.6v4
	C808.2,413.1,809.2,416.1,811.2,418.2 M803.3,413.8h-7.6v7h7.6V413.8z M771,418.2c2.1,2.1,4.9,3.2,8.6,3.2s6.5-1.1,8.5-3.2
	c1.9-2.1,2.9-5.1,2.9-9v-10.8c0-3.6-0.7-6.4-2.1-8.2c-1.4-1.9-3.5-2.8-6.3-2.8c-3,0-5.2,1.2-6.6,3.5l0.6-11.6h13.2v-6.9h-20.4
	l-1.5,28.2h7.6V399c0-3.2,1.3-4.8,3.9-4.8c2.6,0,3.9,1.6,3.9,4.8v10.7c0,3.2-1.3,4.7-3.9,4.7c-2.6,0-3.9-1.6-3.9-4.7v-4.5h-7.6v4
	C767.9,413.1,769,416.1,771,418.2 M748,400.9c0-3.2,1.3-4.8,4-4.8c2.6,0,3.9,1.6,3.9,4.8v8.7c0,3.2-1.3,4.7-3.9,4.7
	c-2.6,0-4-1.6-4-4.7V400.9z M743.3,418.2c2,2.1,4.9,3.2,8.6,3.2c3.7,0,6.6-1.1,8.6-3.2c2-2.1,3-5.1,3-9v-8.9c0-3.6-0.7-6.4-2.1-8.3
	c-1.4-1.9-3.5-2.8-6.3-2.8c-3.4,0-5.7,1.4-7.1,4.3v-8.9c0-2.2,0.3-3.8,1-4.6c0.7-0.9,1.8-1.3,3.2-1.3c2.6,0,4,1.6,4,4.8v1.7h7.2
	v-1.3c0-3.9-1-6.9-2.9-9c-1.9-2.1-4.7-3.2-8.4-3.2c-7.8,0-11.6,4.2-11.6,12.6v24.8C740.3,413.1,741.3,416.1,743.3,418.2"/>
<ellipse transform="matrix(0.3827 -0.9239 0.9239 0.3827 193.3826 920.6907)" class="st2" cx="785.6" cy="315.6" rx="42.5" ry="42.5"/>
<path class="st1" d="M787.5,333.3c1.5,1.6,3.6,2.4,6.4,2.4c2.8,0,5-0.8,6.6-2.4c1.6-1.6,2.3-3.9,2.3-6.8v-4.9h-5.8v5.3
	c0,2.4-1,3.6-3,3.6c-2,0-3-1.2-3-3.6V307c0-2.4,1-3.6,3-3.6c2,0,3,1.2,3,3.6v3.9h5.8v-3.6c0-3-0.8-5.2-2.3-6.8
	c-1.6-1.6-3.7-2.4-6.6-2.4c-2.8,0-5,0.8-6.4,2.4c-1.5,1.6-2.2,3.9-2.2,6.8v19.1C785.3,329.5,786,331.7,787.5,333.3 M767,333.3
	c1.6,1.6,3.7,2.4,6.5,2.4c2.8,0,4.9-0.8,6.4-2.4c1.5-1.6,2.2-3.9,2.2-6.8v-2.9c0-4-1.3-6.6-4-7.7c2.7-1.1,4-3.6,4-7.6v-0.9
	c0-3-0.7-5.2-2.2-6.8c-1.5-1.6-3.6-2.4-6.4-2.4c-2.8,0-5,0.8-6.5,2.4c-1.6,1.6-2.3,3.9-2.3,6.8v2h5.8V307c0-2.4,1-3.6,3-3.6
	c1,0,1.7,0.3,2.2,0.9c0.5,0.6,0.8,1.7,0.8,3.3v2.1c0,1.4-0.3,2.4-0.9,3c-0.6,0.6-1.4,0.9-2.6,0.9h-2.3v5.3h1.9
	c1.3,0,2.3,0.4,2.9,1.1c0.6,0.7,0.9,1.9,0.9,3.6v2.9c0,1.5-0.3,2.6-0.8,3.2c-0.5,0.6-1.2,0.9-2.2,0.9c-2,0-3-1.2-3-3.6v-3.4h-5.8
	v3.1C764.7,329.5,765.5,331.7,767,333.3"/>
</svg>
