<svg xmlns="http://www.w3.org/2000/svg" xml:space="preserve" id="Слой_1" x="0" y="0" style="enable-background:new 0 0 1280 1024" version="1.1" viewBox="0 0 1280 1024"><style>.st0{fill:#dfeab4}.st1{fill:none;stroke:#373437;stroke-width:.499}.st2{fill:#373437}.st3{fill:none;stroke:#373437;stroke-width:.432}.st4{stroke-width:.214}.st4,.st5,.st6,.st7,.st8{fill:none;stroke:#373437}.st5{stroke-width:.581}.st6{stroke-width:.23}.st7{stroke-width:.18}.st8{stroke-width:.46}</style><path d="M312.15 400.35h677.01v390H312.15z" class="st0"/><path d="M647.41 464.75h341.75v390H647.41z" class="st0"/><path d="M648.39 209.74h292.33v9.6H648.39zm-7.48.16v9.6l-328.6 48.18v-9.6z" class="st1"/><path d="M899.44 360.19h88.74v9.6h-88.74z" class="st2"/><path d="M899.44 360.19h88.74v9.6h-88.74z" class="st1"/><path d="M907.76 368.04h80.42v31.33h-80.42z" class="st2"/><path d="M907.76 368.04h80.42v31.33h-80.42z" class="st1"/><path d="M562.5 360.19h88.74v9.6H562.5z" class="st2"/><path d="M562.5 360.19h88.74v9.6H562.5z" class="st1"/><path d="M570.82 368.04h80.42v31.33h-80.42z" class="st2"/><path d="M570.82 368.04h80.42v31.33h-80.42z" class="st1"/><path d="M642.93 360.19h88.74v9.6h-88.74z" class="st2"/><path d="M642.93 360.19h88.74v9.6h-88.74z" class="st1"/><path d="M642.93 368.04h80.42v31.33h-80.42z" class="st2"/><path d="M642.93 368.04h80.42v31.33h-80.42z" class="st1"/><path d="M305.02 360.19h88.74v9.6h-88.74z" class="st2"/><path d="M305.02 360.19h88.74v9.6h-88.74z" class="st1"/><path d="M305.02 368.04h80.42v31.33h-80.42z" class="st2"/><path d="M305.02 368.04h80.42v31.33h-80.42zm400.26-7.85h139.03v9.6H705.28zm-.01 9.61h130.71v29.57H705.27z" class="st1"/><path d="M836.66 370.61s3.26 13.83 6.78 23.3c3.51 9.47 7.76 14.67 7.76 14.67l61.85-35.65-1.85-2.97-62.19 35" class="st3"/><path d="M368.36 360.19h139.03v9.6H368.36zm0 9.61h130.71v29.57H368.36z" class="st1"/><path d="M499.74 370.61s3.26 13.83 6.78 23.3c3.51 9.47 7.76 14.67 7.76 14.67l61.85-35.65-1.85-2.97-62.19 35" class="st3"/><path d="M746.35 855.72h238.13v15.72H746.35z" class="st2"/><path d="M746.35 855.72h238.13v15.72H746.35z" class="st1"/><path d="M801.71 715.19h9.6V862.6h-9.6z" class="st2"/><path d="M801.71 715.19h9.6V862.6h-9.6z" class="st1"/><path d="M733.49 645.4h246.79v9.6H733.49z" class="st2"/><path d="M733.49 645.4h246.79v9.6H733.49z" class="st1"/><path d="M937.35 207h41.6v168.85h-41.6z" class="st2"/><path d="M937.35 207h41.6v168.85h-41.6z" class="st1"/><path d="M977.6 207h15.72v664H977.6zm-338.05-.05h15.72v85.8h-15.72z" class="st2"/><path d="M639.55 206.95h15.72v85.8h-15.72z" class="st1"/><path d="M310.33 788.23h338.96v15.72H310.33z" class="st2"/><path d="M310.33 788.23h338.96v15.72H310.33z" class="st1"/><path d="M301.5 253.87h15.72V804H301.5z" class="st2"/><path d="M301.5 253.87h15.72V804H301.5z" class="st1"/><path d="M639.55 377.81h15.72v288.06h-15.72z" class="st2"/><path d="M639.55 377.81h15.72v288.06h-15.72z" class="st1"/><path d="M639.55 742.01h15.72V871h-15.72z" class="st2"/><path d="M639.55 742.01h15.72V871h-15.72z" class="st1"/><path d="M974.99 530.47h-54.62v54.62h54.62v-54.62zm1.21 55.84h-57.04v-57.04h57.04v57.04z" class="st2"/><path d="M974.99 530.47h-54.62v54.62h54.62v-54.62zm1.21 55.84h-57.04v-57.04h57.04v57.04z" class="st4"/><path d="M925.35 576.92c0 1.35 1.1 2.44 2.44 2.44h28.71c1.35 0 2.45-1.1 2.45-2.44v-38.26c0-1.35-1.1-2.44-2.45-2.44h-28.71c-1.35 0-2.44 1.09-2.44 2.44v38.26zm34.81-38.26v38.26a3.66 3.66 0 0 1-3.66 3.65h-28.71c-2.01 0-3.65-1.64-3.65-3.65v-38.26c0-2.02 1.64-3.65 3.65-3.65h28.71a3.647 3.647 0 0 1 3.66 3.65" class="st2"/><path d="M925.35 576.92c0 1.35 1.1 2.44 2.44 2.44h28.71c1.35 0 2.45-1.1 2.45-2.44v-38.26c0-1.35-1.1-2.44-2.45-2.44h-28.71c-1.35 0-2.44 1.09-2.44 2.44v38.26zm34.81-38.26v38.26a3.66 3.66 0 0 1-3.66 3.65h-28.71c-2.01 0-3.65-1.64-3.65-3.65v-38.26c0-2.02 1.64-3.65 3.65-3.65h28.71a3.647 3.647 0 0 1 3.66 3.65z" class="st4"/><path d="M954.7 540.45h-25.11v34.66h25.11v-34.66zm1.21 35.87h-27.53v-37.08h27.53v37.08z" class="st2"/><path d="M954.7 540.45h-25.11v34.66h25.11v-34.66zm1.21 35.87h-27.53v-37.08h27.53v37.08z" class="st4"/><path d="M937.28 557.79c0 1.75 1.42 3.17 3.16 3.17a3.171 3.171 0 0 0 0-6.34c-1.74 0-3.16 1.42-3.16 3.17m7.55 0c0 2.41-1.96 4.38-4.38 4.38-2.41 0-4.38-1.96-4.38-4.38 0-2.41 1.96-4.38 4.38-4.38 2.41 0 4.38 1.97 4.38 4.38" class="st2"/><path d="M937.28 557.79c0 1.75 1.42 3.17 3.16 3.17a3.171 3.171 0 0 0 0-6.34c-1.74 0-3.16 1.42-3.16 3.17zm7.55 0c0 2.41-1.96 4.38-4.38 4.38-2.41 0-4.38-1.96-4.38-4.38 0-2.41 1.96-4.38 4.38-4.38 2.41 0 4.38 1.97 4.38 4.38z" class="st4"/><path d="M747.23 869.39s0-12.07-5.32-27.09c-4.45-12.57-13.31-24.31-13.31-24.31l-83.8 46.64 1.85 2.97 83.98-46.65m-76.3-155.81s-12.07 0-27.09 5.32c-12.57 4.45-24.31 13.31-24.31 13.31l46.64 83.81 2.97-1.85-46.65-83.98m128.14-28.98a98.11 98.11 0 0 0-4.43-17.64c-4.45-12.56-13.31-24.31-13.31-24.31l-72.23 40.35 1.85 2.97 72.41-40.35m89.29 101.45c-3.51-.54-8.07-1.53-13.07-3.31-9.32-3.33-18.02-9.96-18.02-9.96l29.9-54.04 2.69 1.72-29.91 54.17" class="st3"/><path d="M797.95 616.9h82.77v26.38h-82.77zm.21 4.13h83" class="st5"/><path d="m802.24 621.04 1.84 19.01h52.37l2.29-19.01h3.45l2.3 19.22h11.71l2.53-19.22m2.42-4.14h82.77v26.38h-82.77zm.22 4.13h82.99" class="st5"/><path d="m885.44 621.04 1.84 19.01h52.37l2.3-19.01h3.45l2.29 19.22h11.72l2.52-19.22" class="st5"/><path d="M903.42 690.28c0 10.17 8.27 18.44 18.45 18.44h26.72c1.76 0 3.18-1.42 3.18-3.18v-30.53c0-1.75-1.43-3.18-3.18-3.18h-26.72c-10.17 0-18.45 8.28-18.45 18.45m49.62-15.26v30.53c0 2.45-2 4.45-4.45 4.45h-26.72c-10.87 0-19.72-8.84-19.72-19.71 0-10.87 8.84-19.72 19.72-19.72h26.72c2.46-.01 4.45 1.99 4.45 4.45" class="st2"/><path d="M903.42 690.28c0 10.17 8.27 18.44 18.45 18.44h26.72c1.76 0 3.18-1.42 3.18-3.18v-30.53c0-1.75-1.43-3.18-3.18-3.18h-26.72c-10.17 0-18.45 8.28-18.45 18.45zm49.62-15.26v30.53c0 2.45-2 4.45-4.45 4.45h-26.72c-10.87 0-19.72-8.84-19.72-19.71 0-10.87 8.84-19.72 19.72-19.72h26.72c2.46-.01 4.45 1.99 4.45 4.45z" class="st6"/><path d="M942.86 703.51v-26.45c0-.18-.15-.33-.32-.33H922.4c-7.44 0-13.55 6.1-13.55 13.55 0 7.44 6.11 13.54 13.55 13.54h20.14c.17 0 .32-.14.32-.31z" class="st6"/><path d="M942.23 703.19v-25.82H922.4c-7.12 0-12.91 5.79-12.91 12.91s5.79 12.91 12.91 12.91h19.83zm1.26-26.13v26.45c0 .51-.44.95-.95.95H922.4c-7.82 0-14.18-6.36-14.18-14.18 0-7.82 6.36-14.18 14.18-14.18h20.14c.52 0 .95.44.95.96" class="st2"/><path d="M942.23 703.19v-25.82H922.4c-7.12 0-12.91 5.79-12.91 12.91s5.79 12.91 12.91 12.91h19.83zm1.26-26.13v26.45c0 .51-.44.95-.95.95H922.4c-7.82 0-14.18-6.36-14.18-14.18 0-7.82 6.36-14.18 14.18-14.18h20.14c.52 0 .95.44.95.96z" class="st6"/><path d="M922.37 690.28c0 1.92 1.56 3.49 3.49 3.49 1.92 0 3.49-1.56 3.49-3.49 0-1.93-1.56-3.49-3.49-3.49a3.5 3.5 0 0 0-3.49 3.49m8.24 0c0 2.62-2.13 4.75-4.75 4.75s-4.75-2.13-4.75-4.75 2.13-4.76 4.75-4.76 4.75 2.14 4.75 4.76" class="st2"/><path d="M922.37 690.28c0 1.92 1.56 3.49 3.49 3.49 1.92 0 3.49-1.56 3.49-3.49 0-1.93-1.56-3.49-3.49-3.49a3.5 3.5 0 0 0-3.49 3.49zm8.24 0c0 2.62-2.13 4.75-4.75 4.75s-4.75-2.13-4.75-4.75 2.13-4.76 4.75-4.76 4.75 2.14 4.75 4.76z" class="st6"/><path d="m940.3 700.59-.76 1.01-8.47-6.33.76-1.02z" class="st2"/><path d="m940.3 700.59-.76 1.01-8.47-6.33.76-1.02z" class="st6"/><path d="m931.1 685.459 8.47-6.339.762 1.017-8.472 6.339z" class="st2"/><path stroke-width=".23" d="m931.1 685.459 8.47-6.339.762 1.017-8.472 6.339z" class="st6"/><path d="M953.1 703.01c0 2.82 2.29 5.11 5.11 5.11h6.96c2.82 0 5.11-2.29 5.11-5.11v-25.47c0-2.82-2.29-5.11-5.11-5.11h-6.96c-2.82 0-5.11 2.29-5.11 5.11v25.47zm18.45-25.46v25.47c0 3.52-2.86 6.38-6.38 6.38h-6.96c-3.52 0-6.38-2.86-6.38-6.38v-25.47c0-3.52 2.86-6.38 6.38-6.38h6.96c3.52 0 6.38 2.86 6.38 6.38" class="st2"/><path d="M953.1 703.01c0 2.82 2.29 5.11 5.11 5.11h6.96c2.82 0 5.11-2.29 5.11-5.11v-25.47c0-2.82-2.29-5.11-5.11-5.11h-6.96c-2.82 0-5.11 2.29-5.11 5.11v25.47zm18.45-25.46v25.47c0 3.52-2.86 6.38-6.38 6.38h-6.96c-3.52 0-6.38-2.86-6.38-6.38v-25.47c0-3.52 2.86-6.38 6.38-6.38h6.96c3.52 0 6.38 2.86 6.38 6.38z" class="st6"/><path d="M959.71 690.28c0 1.09.89 1.98 1.98 1.98 1.09 0 1.98-.89 1.98-1.98 0-1.09-.89-1.98-1.98-1.98-1.09.01-1.98.89-1.98 1.98m5.23 0a3.24 3.24 0 0 1-3.24 3.24c-1.79 0-3.25-1.45-3.25-3.24a3.246 3.246 0 0 1 6.49 0" class="st2"/><path d="M959.71 690.28c0 1.09.89 1.98 1.98 1.98 1.09 0 1.98-.89 1.98-1.98 0-1.09-.89-1.98-1.98-1.98-1.09.01-1.98.89-1.98 1.98zm5.23 0a3.24 3.24 0 0 1-3.24 3.24c-1.79 0-3.25-1.45-3.25-3.24a3.246 3.246 0 0 1 6.49 0z" class="st6"/><path d="M936.78 753.23c0-9.29 7.56-16.85 16.86-16.85h17.89c1.41 0 2.56 1.15 2.56 2.56v38.1c0 1.41-1.15 2.56-2.56 2.56h-17.89c-9.29 0-16.86-7.56-16.86-16.86v-9.51zm38.26 23.81v-38.1c0-1.94-1.57-3.51-3.51-3.51h-17.89c-9.82 0-17.81 7.99-17.81 17.8v9.51c0 9.82 7.99 17.81 17.81 17.81h17.89c1.94 0 3.51-1.58 3.51-3.51" class="st2"/><path d="M936.78 753.23c0-9.29 7.56-16.85 16.86-16.85h17.89c1.41 0 2.56 1.15 2.56 2.56v38.1c0 1.41-1.15 2.56-2.56 2.56h-17.89c-9.29 0-16.86-7.56-16.86-16.86v-9.51zm38.26 23.81v-38.1c0-1.94-1.57-3.51-3.51-3.51h-17.89c-9.82 0-17.81 7.99-17.81 17.8v9.51c0 9.82 7.99 17.81 17.81 17.81h17.89c1.94 0 3.51-1.58 3.51-3.51z" class="st7"/><path d="M941.01 753.23c0-6.96 5.67-12.63 12.64-12.63h10.44c1.22 0 2.21.99 2.21 2.2v30.37c0 1.22-.99 2.2-2.21 2.2h-10.44c-6.97 0-12.64-5.67-12.64-12.63v-9.51zm26.23 19.94V742.8c0-1.74-1.42-3.15-3.16-3.15h-10.44c-7.49 0-13.59 6.09-13.59 13.58v9.51c0 7.49 6.1 13.58 13.59 13.58h10.44c1.75 0 3.16-1.41 3.16-3.15" class="st2"/><path d="M941.01 753.23c0-6.96 5.67-12.63 12.64-12.63h10.44c1.22 0 2.21.99 2.21 2.2v30.37c0 1.22-.99 2.2-2.21 2.2h-10.44c-6.97 0-12.64-5.67-12.64-12.63v-9.51zm26.23 19.94V742.8c0-1.74-1.42-3.15-3.16-3.15h-10.44c-7.49 0-13.59 6.09-13.59 13.58v9.51c0 7.49 6.1 13.58 13.59 13.58h10.44c1.75 0 3.16-1.41 3.16-3.15z" class="st7"/><path d="M949.85 757.99c0-1.16.95-2.11 2.11-2.11s2.11.95 2.11 2.11-.95 2.11-2.11 2.11-2.11-.95-2.11-2.11m5.18 0c0-1.69-1.38-3.07-3.07-3.07s-3.07 1.38-3.07 3.07 1.38 3.07 3.07 3.07 3.07-1.38 3.07-3.07" class="st2"/><path d="M949.85 757.99c0-1.16.95-2.11 2.11-2.11s2.11.95 2.11 2.11-.95 2.11-2.11 2.11-2.11-.95-2.11-2.11zm5.18 0c0-1.69-1.38-3.07-3.07-3.07s-3.07 1.38-3.07 3.07 1.38 3.07 3.07 3.07 3.07-1.38 3.07-3.07z" class="st7"/><path d="M944.91 820.13a2.59 2.59 0 0 1-2.6 2.58c-1.44 0-2.6-1.15-2.6-2.58a2.59 2.59 0 0 1 2.6-2.58c1.44 0 2.6 1.16 2.6 2.58z" class="st8"/><path d="M818.36 808.31c0-9.42 7.64-17.06 17.06-17.06h117.3c9.42 0 17.06 7.64 17.06 17.06v23.65c0 9.42-7.64 17.06-17.06 17.06h-117.3c-9.42 0-17.06-7.64-17.06-17.06v-23.65z" class="st8"/><path d="M828.88 813.71c0-9.42 7.64-17.06 17.06-17.06h96.27c9.42 0 17.06 7.64 17.06 17.06v12.85c0 9.42-7.64 17.06-17.06 17.06h-96.27c-9.42 0-17.06-7.64-17.06-17.06v-12.85z" class="st8"/><path d="M841.57 810.37c0-4.71 3.82-8.53 8.53-8.53h94.83c4.71 0 8.53 3.82 8.53 8.53v19.53c0 4.71-3.82 8.53-8.53 8.53H850.1c-4.71 0-8.53-3.82-8.53-8.53v-19.53z" class="st8"/><path d="M975.72 853.84h-163.3v-67.42h163.3z" class="st8"/><path d="M816.29 726.99h36.59v56.19h-36.59zm36.05 56.49-35.91-56.41m-.42 56.41 35.91-56.41" class="st3"/><path d="M963.96 616.73h14.79v30.92h-14.79z" class="st2"/><path d="M963.96 616.73h14.79v30.92h-14.79z" class="st1"/><path d="m861.45 694.27.15 2.67h5.3c-.28.42-.44.87-.6 1.29l-2.93 8.24h3.25l3.67-10.58c.3-.9-.28-1.62-1.24-1.62h-7.6zm-2.44 9.2c-.85 0-1.11.26-1.11 1.11v.78c0 .85.27 1.11 1.11 1.11h.76c.85 0 1.11-.27 1.11-1.11v-.78c0-.85-.27-1.11-1.11-1.11h-.76zm-11.02-6.82c.9-.02 2.14-.04 3.4-.04 1.24 0 1.59.16 1.59 1.15.02.83-.11 1.33-1.44 1.33h-2.33v2.13l2.33-.02c1.31-.02 1.59.39 1.59 1.43 0 1.24-.46 1.47-2.02 1.47-1.06 0-1.84-.02-3.38-.11l-.11 2.38c1.38.2 2.92.34 4.38.34 3.24 0 4.42-1.06 4.38-3.64-.02-1.85-.55-2.79-2.26-3.06v-.07c1.57-.25 1.95-1.33 1.95-3.08 0-2.17-1.13-2.84-4.12-2.84-1.35 0-2.71.11-4.09.33l.13 2.3zm26.13-20.19h-3.43l-1.29 5.24c-.09.4-.23.99-.37 1.5h-.18c-.07-.51-.16-1.01-.25-1.5l-1.33-5.24h-3.41l2.72 8.03c.14.46.53.76 1.02.76h.58c-.23.44-.56.85-.92 1.04-.57.32-1.35.41-2.46.37l-.27 2.09c1.26.23 2.58.25 3.63-.18 1.36-.49 2.37-1.36 3-3.42l2.96-8.69zm-17.31 10.13 6.95-13.55h-2.55l-6.95 13.55h2.55zm-3.51-4.1c-1.13.13-2.14.14-3.85.14-1.45 0-1.86-.74-1.86-3.49 0-2.74.4-3.48 1.86-3.48 1.63 0 2.4.02 3.61.05l.25-2.44c-1.17-.32-2.04-.44-3.85-.44-3.91 0-5.34 1.66-5.34 6.31 0 4.65 1.43 6.31 5.34 6.31 1.84 0 2.94-.14 4.12-.55l-.28-2.41zm-110.97 96.68h-1.45v-5.04h-2.49l-.53 1.91v3.13h-2.39c-.28 0-.46-.18-.32-.51l2.67-6.91h-3.1l-3.04 7.75c-.39.95.27 1.89 1.29 1.89h4.88v2.56h3.02v-2.56h.04l1.41-.32v-1.9zm-13.66 1.76c-.85 0-1.11.26-1.11 1.11v.78c0 .85.27 1.11 1.11 1.11h.76c.85 0 1.11-.27 1.11-1.11v-.78c0-.85-.27-1.11-1.11-1.11h-.76zm-11.02-6.81c.9-.02 2.14-.04 3.4-.04 1.24 0 1.59.16 1.59 1.15.02.83-.11 1.33-1.44 1.33h-2.33v2.13l2.33-.02c1.31-.02 1.59.39 1.59 1.43 0 1.24-.46 1.47-2.02 1.47-1.06 0-1.84-.02-3.38-.11l-.11 2.38c1.38.2 2.92.34 4.38.34 3.24 0 4.42-1.06 4.38-3.64-.02-1.85-.55-2.79-2.26-3.06v-.07c1.57-.25 1.95-1.33 1.95-3.08 0-2.17-1.13-2.84-4.12-2.84-1.35 0-2.71.11-4.09.33l.13 2.3zm53.18-16.23h-1.25c-.84 0-.99-.21-.99-1.1 0-.65.16-.81.99-.81h1.25v1.91zm-3.45 1.1c-.53.05-1.45.2-1.68.95l-.69 2.78h3.29l.55-2.35c.07-.41.27-.51.81-.51h1.17v2.87h3.11v-8.86c-1.09-.12-2.03-.14-4.44-.14-3.24 0-4.03.62-4.03 2.83 0 1.06.42 2.07 1.91 2.37v.06zm-9.35.68c0-.4.21-.67.74-.69h1.84v1.1c-.58.37-1.2.6-1.72.6-.58 0-.87-.25-.87-.71v-.3zm-2.4-3.46c1.47-.09 2.88-.12 3.76-.12.92 0 1.2.27 1.22 1.01v.22h-2.92c-1.75 0-2.81.85-2.81 2.24v.88c0 1.65 1.33 2.51 2.95 2.51 1.52 0 2.53-.78 3.13-1.52l.3 1.29h2.56v-5.6c0-2.62-1.31-3.43-3.68-3.43-1.29 0-3.5.2-4.81.44l.3 2.08zm-4.9 1.87c2.05-.26 1.98-.53 3.13-4.15h-3.16c-.92 2.88-1.03 3.2-1.91 3.2h-.55c.07-.37.11-.74.11-1.09v-2.11h-2.79v2.11c0 .35.04.73.11 1.09h-.56c-.89 0-.99-.3-1.93-3.2h-3.15c1.17 3.62 1.08 3.89 3.13 4.15v.09c-2.12.3-2.16.46-3.42 4.55H743c1.11-3.33 1.2-3.52 1.95-3.54h.71c-.07.27-.11.53-.11.74v2.8h2.81v-2.8c0-.21-.04-.47-.09-.74h.68c.79.02.87.21 1.96 3.54h3.26c-1.25-4.09-1.31-4.24-3.41-4.55v-.09zm-16.43-2.13c1.08 0 1.36.44 1.36 2.39 0 1.93-.28 2.35-1.36 2.35-1.1 0-1.38-.42-1.38-2.35 0-1.95.28-2.39 1.38-2.39m0-2.27c-3.47 0-4.74 1.25-4.74 4.65 0 3.38 1.27 4.6 4.74 4.6 3.45 0 4.72-1.22 4.72-4.6 0-3.39-1.27-4.65-4.72-4.65m-8.35 9.04h3.24l-2.62-4.49 2.4-4.3h-3.2l-1.73 3.29-1.73-3.29h-3.2l2.4 4.3-2.62 4.49h3.24l1.91-3.54 1.91 3.54zm-8.06.01v-8.8h-2.79l-2.8 4.21c-.27.41-.49.8-.67 1.29h-.07c.07-.51.12-.9.12-1.36v-4.14h-2.84v8.79h2.79l2.74-4.02c.25-.39.55-.99.71-1.47h.07c-.07.58-.12 1.04-.12 1.56v3.94h2.86zm-16.71-6.08c.56-.33.97-.55 1.64-.55.82 0 1.15.34 1.15 2.34 0 2.02-.36 2.32-1.26 2.32-.64 0-1.06-.16-1.54-.3v-3.81zm-.62-2.72h-2.58v12.06h3.2v-1.93c.02-.62 0-1.29-.05-1.91.76.58 1.75.79 2.82.79 2.19 0 3.34-.97 3.34-4.52 0-2.99-.88-4.71-3.11-4.71-1.4 0-2.74.64-3.36 1.45l-.26-1.23zm-4.65-3.41h-10.22v12.2H689v-9.94h3.59v9.94h3.32v-12.2zm159.21-474.87c3.89 1.66 5.31 6.75 5.31 14.15 0 7.25-1.42 12.38-5.31 14.18l.75 2.72c7.42-2.12 10.78-7.42 10.78-16.87 0-9.51-3.36-14.82-10.78-16.9l-.75 2.72zm.11 15.67h-2.9v-10.08h-4.98l-1.06 3.82v6.26h-4.78c-.57 0-.92-.35-.64-1.02l5.35-13.83h-6.2l-6.07 15.49c-.78 1.91.53 3.78 2.58 3.78h9.76v5.13h6.05v-5.13h.07l2.83-.64v-3.78zm-27.34 3.54c-1.7 0-2.23.53-2.23 2.23v1.55c0 1.7.53 2.23 2.23 2.23h1.52c1.7 0 2.23-.53 2.23-2.23v-1.55c0-1.7-.53-2.23-2.23-2.23h-1.52zm-4.56-3.54h-2.9v-10.08h-4.98l-1.06 3.82v6.26h-4.78c-.56 0-.92-.35-.64-1.02l5.35-13.83h-6.2l-6.07 15.49c-.78 1.91.53 3.78 2.58 3.78h9.76v5.13h6.04v-5.13h.07l2.83-.64v-3.78zm-21.76-18.39c-7.42 2.09-10.78 7.39-10.78 16.9 0 9.44 3.36 14.75 10.78 16.87l.75-2.72c-3.89-1.8-5.31-6.93-5.31-14.18 0-7.39 1.42-12.48 5.31-14.15l-.75-2.72zm-30.48 17.4c2.69 0 3.26.6 3.26 3.18 0 2.44-.56 3.04-3.29 3.04-2.76 0-3.4-.6-3.4-3.04 0-2.51.6-3.18 3.43-3.18m-.03-9.87c2.44 0 3.01.53 3.01 2.94 0 2.16-.46 2.69-2.94 2.69-2.51 0-3.11-.49-3.11-2.69-.01-2.41.56-2.94 3.04-2.94m-5.27 7.82c-3.5.32-4.35 3.25-4.35 6.51 0 4.74 1.98 6.61 9.58 6.57 7.75-.07 9.58-1.84 9.58-6.57 0-3.26-.81-6.19-4.31-6.51v-.14c2.65-.28 3.71-2.97 3.71-5.59 0-4.56-1.55-6.54-8.98-6.54-7.36 0-8.95 1.98-8.95 6.54 0 2.62 1.06 5.31 3.71 5.59v.14zm-11.14 6.58c-1.7 0-2.23.53-2.23 2.23v1.55c0 1.7.53 2.23 2.23 2.23h1.52c1.7 0 2.23-.53 2.23-2.23v-1.55c0-1.7-.53-2.23-2.23-2.23h-1.52zm-14.79-4.53c2.69 0 3.25.6 3.25 3.18 0 2.44-.56 3.04-3.29 3.04-2.76 0-3.4-.6-3.4-3.04.01-2.51.61-3.18 3.44-3.18m-.03-9.87c2.44 0 3.01.53 3.01 2.94 0 2.16-.46 2.69-2.94 2.69-2.51 0-3.11-.49-3.11-2.69 0-2.41.56-2.94 3.04-2.94m-5.27 7.82c-3.5.32-4.35 3.25-4.35 6.51 0 4.74 1.98 6.61 9.58 6.57 7.75-.07 9.58-1.84 9.58-6.57 0-3.26-.81-6.19-4.31-6.51v-.14c2.65-.28 3.71-2.97 3.71-5.59 0-4.56-1.56-6.54-8.98-6.54-7.36 0-8.95 1.98-8.95 6.54 0 2.62 1.06 5.31 3.71 5.59v.14zm93.7 247.1.25-4.88h-15.27l-.64 10.96c-.07 1.13.74 2.05 1.91 2.2l3.79.46c3.28.28 4.48.75 4.38 3.04-.14 1.98-.85 2.76-4.06 2.76-1.73 0-4-.11-6.34-.29l-.6 4.98c3.11.46 6.23.71 8.67.71 6.93 0 8.87-3.57 8.87-7.95.04-3.93-1.45-7.43-7.14-8.07l-4.06-.53.25-3.4h9.99zm-22.88 13.51c-1.7 0-2.23.53-2.23 2.23v1.55c0 1.7.53 2.23 2.23 2.23h1.52c1.7 0 2.23-.53 2.23-2.23v-1.55c0-1.7-.53-2.23-2.23-2.23h-1.52zm-14.79-4.53c2.69 0 3.25.6 3.25 3.18 0 2.44-.56 3.04-3.29 3.04-2.76 0-3.4-.6-3.4-3.04.01-2.51.61-3.18 3.44-3.18m-.03-9.87c2.44 0 3.01.53 3.01 2.94 0 2.16-.46 2.69-2.94 2.69-2.51 0-3.11-.49-3.11-2.69 0-2.4.56-2.94 3.04-2.94m-5.27 7.82c-3.5.32-4.35 3.25-4.35 6.51 0 4.74 1.98 6.61 9.58 6.57 7.75-.07 9.58-1.84 9.58-6.57 0-3.26-.81-6.19-4.31-6.51v-.14c2.65-.28 3.71-2.97 3.71-5.59 0-4.56-1.56-6.54-8.98-6.54-7.36 0-8.95 1.98-8.95 6.54 0 2.62 1.06 5.31 3.71 5.59v.14zm64.79-39.5h-2.51c-1.66 0-1.98-.42-1.98-2.2 0-1.31.32-1.63 1.98-1.63h2.51v3.83zm-6.89 2.19c-1.06.11-2.9.39-3.36 1.91l-1.38 5.55h6.58l1.1-4.7c.14-.82.53-1.03 1.63-1.03h2.33v5.73h6.22v-17.71c-2.19-.25-4.06-.28-8.87-.28-6.47 0-8.06 1.24-8.06 5.65 0 2.12.85 4.14 3.82 4.74v.14zm-7.29-10.11h-6.29v6.19h-5.38v-6.19h-6.33v17.57h6.33v-7.11h5.38v7.11h6.29v-17.57zm-26.49 17.57h6.47l-5.23-8.98 4.81-8.59h-6.4l-3.47 6.58-3.46-6.58h-6.4l4.81 8.59-5.24 8.98h6.47l3.82-7.07 3.82 7.07zm-14.33-17.57h-6.86l-2.58 10.47c-.18.81-.46 1.98-.75 3h-.35c-.14-1.02-.32-2.02-.49-3l-2.65-10.47h-6.82l5.44 16.05c.28.92 1.06 1.52 2.05 1.52h1.17c-.46.89-1.13 1.7-1.84 2.09-1.13.64-2.69.81-4.92.74l-.53 4.18c2.51.46 5.16.49 7.25-.35 2.72-.99 4.74-2.73 6.01-6.83l5.87-17.4zm-28.86 4.73c4.85-.64 4.99-2.83 7.67-11.56h-6.76c-1.91 7.32-2.37 9.51-5.8 9.51h-1.16c.18-.99.28-2.05.28-3.04v-6.47h-6.61v24.4h6.61v-8.17c0-.67-.11-1.49-.28-2.26h1.27c3.39 0 3.67 1.59 6.19 10.43h6.93c-3-10.01-3.32-11.92-8.35-12.62v-.22zM490.86 688.56c3.36-.18 5.13-.18 7.64-.18 1.87 0 2.69.11 2.69 1.13.04 1.38-1.59 3.57-4.35 6.36l-5.48 5.66c-.71.78-.92 1.59-.92 2.65v3.46h18.17v-5.73h-7.04c-1.16 0-2.3.04-3.43.32l6.01-5.91c3.22-3.36 3.82-4.95 3.82-7.61 0-4.77-3.43-5.9-8.63-5.9-2.65 0-5.16.11-8.73.81l.25 4.94zm-7.04 13.1c-1.7 0-2.23.53-2.23 2.23v1.55c0 1.7.53 2.23 2.23 2.23h1.52c1.7 0 2.23-.53 2.23-2.23v-1.55c0-1.7-.53-2.23-2.23-2.23h-1.52zm-4.56-3.54h-2.9v-10.08h-4.98l-1.06 3.82v6.26h-4.78c-.57 0-.92-.35-.64-1.02l5.35-13.83h-6.2l-6.07 15.49c-.78 1.91.53 3.78 2.58 3.78h9.76v5.13h6.04v-5.13h.07l2.83-.64v-3.78zm-24.97 9.54v-24.4h-6.61l-6.19 2.4.78 4.21 5.66-1.27c-.21.99-.25 1.95-.25 2.9v16.16h6.61zm85.15-48.52c0-.82.42-1.35 1.49-1.38h3.68v2.2c-1.17.75-2.41 1.2-3.44 1.2-1.17 0-1.73-.49-1.73-1.42v-.6zm-4.81-6.93c2.93-.18 5.76-.25 7.53-.25 1.84 0 2.41.53 2.44 2.02v.43h-5.84c-3.5 0-5.62 1.69-5.62 4.49v1.77c0 3.29 2.65 5.02 5.9 5.02 3.04 0 5.06-1.55 6.26-3.04l.6 2.58h5.13v-11.21c0-5.24-2.62-6.86-7.35-6.86-2.58 0-7 .39-9.62.88l.57 4.17zm-2.87.28v-4.84h-17.54v4.84h5.59v12.73h6.4v-12.73h5.55zm-31.41 6.65c0-.82.43-1.35 1.49-1.38h3.68v2.2c-1.17.75-2.41 1.2-3.43 1.2-1.17 0-1.74-.49-1.74-1.42v-.6zm-4.8-6.93c2.93-.18 5.76-.25 7.53-.25 1.84 0 2.41.53 2.44 2.02v.43h-5.84c-3.5 0-5.62 1.69-5.62 4.49v1.77c0 3.29 2.65 5.02 5.9 5.02 3.04 0 5.06-1.55 6.26-3.04l.6 2.58h5.12v-11.21c0-5.24-2.61-6.86-7.35-6.86-2.58 0-7.01.39-9.62.88l.58 4.17zm-4.42-4.56h-6.29v6.19h-5.38v-6.19h-6.33v17.57h6.33v-7.11h5.38v7.11h6.29v-17.57zm-29.73 0c-1.35 0-2.2.67-2.41 1.98l-1.53 6.54c-.18.89-.21 1.73-.35 2.62h-.28c-.11-.89-.15-1.73-.36-2.62l-1.56-6.54c-.21-1.31-1.06-1.98-2.37-1.98h-5.45c-1.45 0-2.19.74-2.22 2.19l-.42 15.38h5.79l.36-12.91h.42l2.09 8.53c.25 1.31 1.1 1.95 2.44 1.95h2.87c1.38 0 2.16-.64 2.41-1.95l2.09-8.53h.43l.46 12.91h5.8l-.46-15.38c-.04-1.45-.74-2.19-2.19-2.19h-5.56zm-29.23 4.03c2.16 0 2.73.89 2.73 4.78 0 3.86-.57 4.71-2.73 4.71-2.2 0-2.76-.85-2.76-4.71 0-3.9.57-4.78 2.76-4.78m0-4.52c-6.93 0-9.48 2.51-9.48 9.3 0 6.76 2.55 9.19 9.48 9.19 6.89 0 9.44-2.44 9.44-9.19 0-6.8-2.54-9.3-9.44-9.3m-19.1 5.23c4.85-.64 4.99-2.83 7.67-11.56h-6.76c-1.91 7.32-2.37 9.51-5.8 9.51h-1.16c.18-.99.28-2.05.28-3.04v-6.47h-6.61v24.4h6.61v-8.17c0-.67-.11-1.49-.28-2.26h1.27c3.39 0 3.67 1.59 6.19 10.43h6.93c-3-10.01-3.32-11.92-8.35-12.62v-.22zm102.38-70.3c7.68-.4 11.72-.4 17.46-.4 4.28 0 6.15.24 6.15 2.59.08 3.15-3.64 8.16-9.95 14.55l-12.53 12.93c-1.62 1.78-2.1 3.64-2.1 6.06v7.92h41.55v-13.09h-16.09c-2.67 0-5.25.08-7.84.73l13.74-13.5c7.36-7.68 8.73-11.32 8.73-17.38 0-10.91-7.84-13.5-19.72-13.5-6.06 0-11.8.24-19.97 1.86l.57 11.23zM499.37 612c-3.88 0-5.09 1.21-5.09 5.09v3.56c0 3.88 1.21 5.09 5.09 5.09h3.47c3.88 0 5.09-1.21 5.09-5.09v-3.56c0-3.88-1.21-5.09-5.09-5.09h-3.47zm-10.43-8.08h-6.63v-23.04h-11.4l-2.42 8.73v14.31h-10.91c-1.29 0-2.1-.81-1.45-2.35l12.21-31.61h-14.15l-13.91 35.41c-1.78 4.36 1.21 8.65 5.9 8.65h22.31v11.72h13.82v-11.72h.16l6.47-1.45v-8.65zm-92.39-23.04c4.12-.08 9.78-.16 15.52-.16 5.66 0 7.27.73 7.27 5.25.08 3.8-.49 6.06-6.55 6.06h-10.67v9.7l10.67-.08c5.98-.08 7.27 1.78 7.27 6.55 0 5.66-2.1 6.71-9.22 6.71-4.85 0-8.4-.08-15.44-.49l-.48 10.91c6.31.89 13.34 1.54 20.05 1.54 14.79 0 20.21-4.85 20.05-16.66-.08-8.49-2.51-12.77-10.35-13.98v-.32c7.2-1.13 8.89-6.06 8.89-14.07 0-9.94-5.18-13.01-18.84-13.01-6.15 0-12.37.48-18.67 1.53l.5 10.52z" class="st2"/><circle cx="475.6" cy="504.32" r="49.55" style="fill:none;stroke:#373437;stroke-width:.866" transform="rotate(-22.5 475.578 504.304)"/><path d="M494.45 503.53c8.38-1.1 8.63-4.89 13.28-20.01h-11.69c-3.3 12.67-4.1 16.46-10.04 16.46h-2.02c.31-1.71.49-3.55.49-5.26v-11.2h-11.44v42.22h11.44V511.6c0-1.16-.18-2.57-.49-3.92h2.2c5.87 0 6.36 2.75 10.71 18.06h12c-5.2-17.32-5.75-20.62-14.44-21.85v-.36zm-30.3 22.21v-42.22h-11.44L442 487.67l1.35 7.28 9.79-2.2c-.36 1.71-.43 3.37-.43 5.02v27.97h11.44z" class="st2"/></svg>