<?xml version="1.0" encoding="UTF-8"?>
<svg id="_Слой_1" data-name="Слой_1" xmlns="http://www.w3.org/2000/svg" version="1.1" viewBox="0 0 1000 1000">
  <!-- Generator: Adobe Illustrator 29.4.0, SVG Export Plug-In . SVG Version: 2.1.0 Build 152)  -->
  <defs>
    <style>
      .st0 {
        stroke-linejoin: round;
      }

      .st0, .st1, .st2 {
        fill: none;
        stroke: #3c3c3b;
        stroke-width: .75px;
      }

      .st0, .st2 {
        stroke-linecap: round;
      }

      .st3 {
        fill: #fff5a6;
      }

      .st2 {
        stroke-linejoin: bevel;
      }

      .st4 {
        fill: #3c3c3b;
      }
    </style>
  </defs>
  <rect class="st3" x="378.36" y="175.35" width="400.96" height="690.04"/>
  <rect class="st3" x="173.82" y="377.46" width="400.96" height="169.53"/>
  <rect class="st1" x="581.16" y="91.55" width="202.61" height="5.81"/>
  <polygon class="st1" points="376.29 62.29 376.29 68.1 575.22 97.27 575.22 91.45 376.29 62.29"/>
  <rect class="st4" x="733.23" y="153.27" width="51.94" height="5.81"/>
  <rect class="st1" x="733.23" y="153.27" width="51.94" height="5.81"/>
  <rect class="st4" x="738.27" y="158.02" width="46.9" height="18.96"/>
  <rect class="st1" x="738.27" y="158.02" width="46.9" height="18.96"/>
  <rect class="st4" x="570.6" y="153.27" width="61.5" height="5.81"/>
  <rect class="st1" x="570.6" y="153.27" width="61.5" height="5.81"/>
  <rect class="st4" x="570.6" y="158.02" width="56.46" height="18.96"/>
  <rect class="st1" x="570.6" y="158.02" width="56.46" height="18.96"/>
  <rect class="st1" x="665.23" y="153.27" width="84.16" height="5.81"/>
  <rect class="st1" x="670.27" y="159.09" width="79.13" height="17.9"/>
  <path class="st1" d="M669.86,159.57s-1.98,8.37-4.1,14.1c-2.12,5.73-4.7,8.88-4.7,8.88l-37.44-21.58,1.12-1.8,37.65,21.18"/>
  <rect class="st4" x="531.71" y="153.27" width="61.5" height="5.81"/>
  <rect class="st1" x="531.71" y="153.27" width="61.5" height="5.81"/>
  <rect class="st4" x="536.74" y="158.02" width="56.46" height="18.96"/>
  <rect class="st1" x="536.74" y="158.02" width="56.46" height="18.96"/>
  <rect class="st4" x="366.72" y="153.27" width="54.95" height="5.81"/>
  <rect class="st1" x="366.72" y="153.27" width="54.95" height="5.81"/>
  <rect class="st4" x="366.72" y="158.02" width="50.45" height="18.96"/>
  <rect class="st1" x="366.72" y="158.02" width="50.45" height="18.96"/>
  <rect class="st4" x="363.92" y="57.56" width="15" height="323.62"/>
  <rect class="st4" x="369.68" y="164.66" width="9.23" height="298.87"/>
  <rect class="st4" x="369.68" y="548.95" width="9.23" height="340.21"/>
  <rect class="st1" x="369.68" y="548.95" width="9.23" height="340.21"/>
  <rect class="st4" x="164.29" y="376.57" width="9.23" height="95.36"/>
  <rect class="st1" x="164.29" y="376.57" width="9.23" height="95.36"/>
  <rect class="st4" x="482.18" y="454.3" width="97.32" height="9.23"/>
  <rect class="st1" x="482.18" y="454.3" width="97.32" height="9.23"/>
  <rect class="st4" x="457.55" y="541.78" width="128.1" height="9.23"/>
  <rect class="st1" x="457.55" y="541.78" width="128.1" height="9.23"/>
  <rect class="st4" x="164.19" y="541.78" width="247.41" height="9.23"/>
  <rect class="st1" x="164.19" y="541.78" width="247.41" height="9.23"/>
  <rect class="st4" x="164.29" y="525.65" width="8.68" height="25.37"/>
  <rect class="st4" x="360.17" y="454.3" width="51.42" height="9.23"/>
  <rect class="st1" x="360.17" y="454.3" width="51.42" height="9.23"/>
  <rect class="st4" x="167.93" y="376.57" width="207.57" height="9.23"/>
  <rect class="st1" x="167.93" y="376.57" width="207.57" height="9.23"/>
  <rect class="st4" x="292.45" y="454.3" width="32.93" height="9.23"/>
  <rect class="st1" x="292.45" y="454.3" width="32.93" height="9.23"/>
  <rect class="st4" x="291.61" y="422.46" width="9.23" height="41.07"/>
  <rect class="st1" x="291.61" y="422.46" width="9.23" height="41.07"/>
  <rect class="st4" x="574.52" y="88.91" width="11.13" height="382.18"/>
  <rect class="st1" x="574.52" y="88.91" width="11.13" height="382.18"/>
  <rect class="st4" x="574.52" y="523.38" width="11.13" height="359.06"/>
  <rect class="st1" x="574.52" y="523.38" width="11.13" height="359.06"/>
  <rect class="st4" x="780.2" y="90.3" width="11.13" height="798.85"/>
  <rect class="st1" x="780.2" y="90.3" width="11.13" height="798.85"/>
  <g>
    <path class="st1" d="M458.02,453.26c-.4-2.42-1.08-5.46-2.26-8.79-2.35-6.62-7.03-12.8-7.03-12.8l-43.42,24.99.98,1.56,43.52-25"/>
    <path class="st1" d="M458.07,453.41c.2-1.19.55-2.7,1.15-4.34,1.19-3.27,3.56-6.33,3.56-6.33l22.02,12.35-.87,1.46-22.06-12.36"/>
    <path class="st1" d="M325.39,454.27s0,5.44,2.37,12.21c1.98,5.67,5.93,10.96,5.93,10.96l33.02-19.02-.83-1.34-33.1,19.03"/>
    <path class="st1" d="M634.96,385.38s0-7.3-3.22-16.4c-2.69-7.61-8.06-14.72-8.06-14.72l-44.83,25.54,1.13,1.8,44.94-25.55"/>
  </g>
  <rect class="st4" x="635.52" y="375.55" width="153.84" height="9.23"/>
  <rect class="st1" x="635.52" y="375.55" width="153.84" height="9.23"/>
  <path class="st1" d="M634.96,541.19s0,7.3-3.22,16.4c-2.69,7.61-8.06,14.72-8.06,14.72l-44.83-25.54,1.13-1.8,44.94,25.55"/>
  <path class="st1" d="M457.85,541.19s0,7.3-3.22,16.4c-2.69,7.61-8.06,14.72-8.06,14.72l-44.83-25.54,1.13-1.8,44.94,25.55"/>
  <path class="st1" d="M163.7,472.29s7.3,0,16.4,3.22c7.61,2.69,14.72,8.06,14.72,8.06l-25.54,44.83-1.8-1.13,25.55-44.94"/>
  <rect class="st4" x="635.52" y="541.78" width="153.84" height="9.23"/>
  <rect class="st1" x="635.52" y="541.78" width="153.84" height="9.23"/>
  <rect class="st4" x="656.79" y="435.87" width="128.38" height="6.09"/>
  <rect class="st1" x="656.79" y="435.87" width="128.38" height="6.09"/>
  <rect class="st1" x="761.99" y="386.18" width="16.93" height="48.29"/>
  <line class="st1" x1="776.26" y1="434.37" x2="776.26" y2="385.9"/>
  <polyline class="st1" points="776.27 431.97 764.05 430.9 764.05 400.34 776.27 399 776.27 396.99 763.92 395.66 763.92 388.82 776.27 387.34"/>
  <rect class="st1" x="260.37" y="387.3" width="50.39" height="16.93"/>
  <line class="st1" x1="310.62" y1="401.58" x2="260.11" y2="401.58"/>
  <polyline class="st1" points="308.15 401.58 307.03 389.36 275.15 389.36 273.75 401.58 271.65 401.58 270.25 389.23 263.12 389.23 261.58 401.58"/>
  <rect class="st1" x="260.37" y="404.25" width="50.39" height="16.93"/>
  <line class="st1" x1="260.5" y1="418.53" x2="311.02" y2="418.53"/>
  <polyline class="st1" points="262.98 418.53 264.1 406.32 295.98 406.32 297.38 418.53 299.48 418.53 300.87 406.18 308 406.18 309.54 418.53"/>
  <g>
    <path class="st4" d="M716.13,411.34c0-6.16,5.01-11.17,11.17-11.17h16.17c1.06,0,1.93.86,1.93,1.93v18.48c0,1.06-.87,1.93-1.93,1.93h-16.17c-6.16,0-11.17-5.01-11.17-11.17M746.17,420.58v-18.48c0-1.48-1.21-2.69-2.7-2.69h-16.17c-6.58,0-11.94,5.35-11.94,11.93s5.35,11.94,11.94,11.94h16.17c1.49,0,2.7-1.21,2.7-2.7"/>
    <path class="st1" d="M716.13,411.34c0-6.16,5.01-11.17,11.17-11.17h16.17c1.06,0,1.93.86,1.93,1.93v18.48c0,1.06-.87,1.93-1.93,1.93h-16.17c-6.16,0-11.17-5.01-11.17-11.17ZM746.17,420.58v-18.48c0-1.48-1.21-2.69-2.7-2.69h-16.17c-6.58,0-11.94,5.35-11.94,11.93s5.35,11.94,11.94,11.94h16.17c1.49,0,2.7-1.21,2.7-2.7Z"/>
    <path class="st1" d="M740,403.33v16.01c0,.11-.09.2-.19.2h-12.19c-4.51,0-8.2-3.69-8.2-8.2s3.69-8.2,8.2-8.2h12.19c.1,0,.19.09.19.19Z"/>
    <path class="st4" d="M739.62,403.52v15.63h-12c-4.31,0-7.82-3.51-7.82-7.82s3.51-7.82,7.82-7.82h12ZM740.39,419.35v-16.01c0-.31-.26-.57-.58-.57h-12.19c-4.73,0-8.58,3.85-8.58,8.58s3.85,8.58,8.58,8.58h12.19c.31,0,.58-.27.58-.58"/>
    <path class="st1" d="M739.62,403.52v15.63h-12c-4.31,0-7.82-3.51-7.82-7.82s3.51-7.82,7.82-7.82h12ZM740.39,419.35v-16.01c0-.31-.26-.57-.58-.57h-12.19c-4.73,0-8.58,3.85-8.58,8.58s3.85,8.58,8.58,8.58h12.19c.31,0,.58-.27.58-.58Z"/>
    <path class="st4" d="M727.6,411.34c0-1.16.95-2.11,2.11-2.11s2.11.95,2.11,2.11-.95,2.11-2.11,2.11-2.11-.95-2.11-2.11M732.59,411.34c0-1.59-1.29-2.88-2.88-2.88s-2.87,1.29-2.87,2.88,1.29,2.88,2.87,2.88,2.88-1.29,2.88-2.88"/>
    <path class="st1" d="M727.6,411.34c0-1.16.95-2.11,2.11-2.11s2.11.95,2.11,2.11-.95,2.11-2.11,2.11-2.11-.95-2.11-2.11ZM732.59,411.34c0-1.59-1.29-2.88-2.88-2.88s-2.87,1.29-2.87,2.88,1.29,2.88,2.87,2.88,2.88-1.29,2.88-2.88Z"/>
  </g>
  <rect class="st4" x="732.46" y="406.33" width="6.4" height=".77" transform="translate(-97.17 520.72) rotate(-36.73)"/>
  <rect class="st1" x="732.46" y="406.33" width="6.4" height=".77" transform="translate(-97.17 520.72) rotate(-36.73)"/>
  <rect class="st4" x="735.28" y="412.64" width=".77" height="6.4" transform="translate(-38.01 755.78) rotate(-53.2)"/>
  <rect class="st1" x="735.28" y="412.64" width=".77" height="6.4" transform="translate(-38.01 755.78) rotate(-53.2)"/>
  <g>
    <path class="st4" d="M746.2,403.63c0-1.71,1.39-3.09,3.09-3.09h4.21c1.71,0,3.1,1.39,3.1,3.09v15.42c0,1.71-1.39,3.09-3.1,3.09h-4.21c-1.71,0-3.09-1.39-3.09-3.09v-15.42ZM757.37,419.05v-15.42c0-2.13-1.73-3.86-3.86-3.86h-4.21c-2.13,0-3.86,1.73-3.86,3.86v15.42c0,2.13,1.73,3.86,3.86,3.86h4.21c2.13,0,3.86-1.73,3.86-3.86"/>
    <path class="st1" d="M746.2,403.63c0-1.71,1.39-3.09,3.09-3.09h4.21c1.71,0,3.1,1.39,3.1,3.09v15.42c0,1.71-1.39,3.09-3.1,3.09h-4.21c-1.71,0-3.09-1.39-3.09-3.09v-15.42ZM757.37,419.05v-15.42c0-2.13-1.73-3.86-3.86-3.86h-4.21c-2.13,0-3.86,1.73-3.86,3.86v15.42c0,2.13,1.73,3.86,3.86,3.86h4.21c2.13,0,3.86-1.73,3.86-3.86Z"/>
    <path class="st4" d="M750.21,411.34c0-.66.54-1.2,1.2-1.2s1.2.54,1.2,1.2-.54,1.2-1.2,1.2-1.2-.54-1.2-1.2M753.37,411.34c0-1.08-.88-1.96-1.96-1.96s-1.97.88-1.97,1.96.88,1.96,1.97,1.96,1.96-.88,1.96-1.96"/>
    <path class="st1" d="M750.21,411.34c0-.66.54-1.2,1.2-1.2s1.2.54,1.2,1.2-.54,1.2-1.2,1.2-1.2-.54-1.2-1.2ZM753.37,411.34c0-1.08-.88-1.96-1.96-1.96s-1.97.88-1.97,1.96.88,1.96,1.97,1.96,1.96-.88,1.96-1.96Z"/>
    <path class="st4" d="M347.15,427.91c-6.16,0-11.17-5.01-11.17-11.17v-16.17c0-1.06.86-1.93,1.93-1.93h18.48c1.06,0,1.93.87,1.93,1.93v16.17c0,6.16-5.01,11.17-11.17,11.17M356.39,397.87h-18.48c-1.48,0-2.69,1.21-2.69,2.7v16.17c0,6.58,5.35,11.94,11.93,11.94s11.94-5.35,11.94-11.94v-16.17c0-1.49-1.21-2.7-2.69-2.7"/>
    <path class="st1" d="M347.15,427.91c-6.16,0-11.17-5.01-11.17-11.17v-16.17c0-1.06.86-1.93,1.93-1.93h18.48c1.06,0,1.93.87,1.93,1.93v16.17c0,6.16-5.01,11.17-11.17,11.17ZM356.39,397.87h-18.48c-1.48,0-2.69,1.21-2.69,2.7v16.17c0,6.58,5.35,11.94,11.93,11.94s11.94-5.35,11.94-11.94v-16.17c0-1.49-1.21-2.7-2.69-2.7Z"/>
    <path class="st4" d="M339.33,404.42h15.63v12c0,4.31-3.51,7.82-7.82,7.82s-7.82-3.51-7.82-7.82v-12ZM355.15,403.65h-16.01c-.31,0-.57.26-.57.58v12.19c0,4.73,3.85,8.58,8.58,8.58s8.58-3.85,8.58-8.58v-12.19c0-.31-.27-.58-.58-.58"/>
    <path class="st1" d="M339.33,404.42h15.63v12c0,4.31-3.51,7.82-7.82,7.82s-7.82-3.51-7.82-7.82v-12ZM355.15,403.65h-16.01c-.31,0-.57.26-.57.58v12.19c0,4.73,3.85,8.58,8.58,8.58s8.58-3.85,8.58-8.58v-12.19c0-.31-.27-.58-.58-.58Z"/>
    <path class="st4" d="M347.15,416.44c-1.16,0-2.11-.95-2.11-2.11s.95-2.11,2.11-2.11,2.11.95,2.11,2.11-.95,2.11-2.11,2.11M347.15,411.45c-1.59,0-2.88,1.29-2.88,2.88s1.29,2.87,2.88,2.87,2.88-1.29,2.88-2.87-1.29-2.88-2.88-2.88"/>
    <path class="st1" d="M347.15,416.44c-1.16,0-2.11-.95-2.11-2.11s.95-2.11,2.11-2.11,2.11.95,2.11,2.11-.95,2.11-2.11,2.11ZM347.15,411.45c-1.59,0-2.88,1.29-2.88,2.88s1.29,2.87,2.88,2.87,2.88-1.29,2.88-2.87-1.29-2.88-2.88-2.88Z"/>
  </g>
  <polygon class="st4" points="340.91 405.59 340.29 406.04 344.13 411.17 344.74 410.71 340.91 405.59"/>
  <polygon class="st1" points="340.91 405.59 340.29 406.04 344.13 411.17 344.74 410.71 340.91 405.59"/>
  <rect class="st4" x="348.45" y="408" width="6.4" height=".77" transform="translate(-186 445.3) rotate(-53.2)"/>
  <rect class="st1" x="348.45" y="408" width="6.4" height=".77" transform="translate(-186 445.3) rotate(-53.2)"/>
  <path class="st4" d="M339.44,397.84c-1.71,0-3.09-1.39-3.09-3.09v-4.21c0-1.71,1.39-3.1,3.09-3.1h15.42c1.71,0,3.09,1.39,3.09,3.1v4.21c0,1.71-1.39,3.09-3.09,3.09h-15.42ZM354.86,386.67h-15.42c-2.13,0-3.86,1.73-3.86,3.86v4.21c0,2.13,1.73,3.86,3.86,3.86h15.42c2.13,0,3.86-1.73,3.86-3.86v-4.21c0-2.13-1.73-3.86-3.86-3.86"/>
  <path class="st1" d="M339.44,397.84c-1.71,0-3.09-1.39-3.09-3.09v-4.21c0-1.71,1.39-3.1,3.09-3.1h15.42c1.71,0,3.09,1.39,3.09,3.1v4.21c0,1.71-1.39,3.09-3.09,3.09h-15.42ZM354.86,386.67h-15.42c-2.13,0-3.86,1.73-3.86,3.86v4.21c0,2.13,1.73,3.86,3.86,3.86h15.42c2.13,0,3.86-1.73,3.86-3.86v-4.21c0-2.13-1.73-3.86-3.86-3.86Z"/>
  <path class="st4" d="M347.15,393.83c-.66,0-1.2-.54-1.2-1.2s.54-1.2,1.2-1.2,1.2.54,1.2,1.2-.54,1.2-1.2,1.2M347.15,390.67c-1.08,0-1.96.88-1.96,1.96s.88,1.97,1.96,1.97,1.96-.88,1.96-1.97-.88-1.96-1.96-1.96"/>
  <path class="st1" d="M347.15,393.83c-.66,0-1.2-.54-1.2-1.2s.54-1.2,1.2-1.2,1.2.54,1.2,1.2-.54,1.2-1.2,1.2ZM347.15,390.67c-1.08,0-1.96.88-1.96,1.96s.88,1.97,1.96,1.97,1.96-.88,1.96-1.97-.88-1.96-1.96-1.96Z"/>
  <path class="st4" d="M694.31,421.16c0-.64.26-.96.79-.96s.79.32.79.96v1.75c0,.63-.26.95-.79.95s-.79-.32-.79-.95v-1.75ZM693.39,424.62c.4.42.97.64,1.72.64s1.32-.21,1.72-.64c.4-.42.6-1.03.6-1.8v-1.78c0-.72-.14-1.28-.43-1.65-.28-.38-.7-.57-1.26-.57-.67,0-1.15.29-1.42.86v-1.78c0-.44.07-.75.21-.93.14-.18.35-.26.64-.26.53,0,.79.32.79.96v.35h1.44v-.25c0-.78-.19-1.38-.58-1.81-.39-.42-.95-.63-1.69-.63-1.56,0-2.33.84-2.33,2.53v4.97c0,.78.2,1.38.6,1.8M691.83,423.75h-1.53v1.4h1.53v-1.4ZM686.93,417.73v7.42h1.53v-9.73h-1.03c-.06.16-.11.29-.16.38-.05.1-.11.21-.2.33-.09.12-.19.21-.29.28-.11.07-.25.12-.43.17-.18.05-.38.07-.6.07v1.08h1.19Z"/>
  <path class="st4" d="M695.76,406.24v.09c-.07.33-.21.55-.42.66-.21.11-.53.15-.94.12v1.38c.41.03.77.01,1.08-.04.31-.06.57-.15.78-.27.21-.12.39-.29.54-.52.15-.22.27-.46.36-.72.09-.26.18-.58.25-.95l1.63-7.24h-1.53l-.7,3.34-.36,2.25-.47-2.27-.82-3.31h-1.53l2.12,7.48ZM689.63,408.48l3.83-9.72h-1.32l-3.83,9.72h1.32ZM683.89,407.96c.39.42.96.63,1.7.63s1.33-.21,1.74-.63c.41-.42.62-1.02.62-1.81v-1.3h-1.52v1.39c0,.63-.26.95-.79.95s-.8-.32-.8-.95v-5.25c0-.64.26-.96.8-.96s.79.32.79.96v1.04h1.52v-.95c0-.78-.21-1.38-.62-1.81-.41-.42-.99-.63-1.74-.63s-1.32.21-1.7.63c-.39.42-.58,1.02-.58,1.81v5.06c0,.78.19,1.38.58,1.81"/>
  <path class="st4" d="M346.73,460.42c.41.42.99.64,1.73.64s1.31-.21,1.7-.64c.39-.42.58-1.02.58-1.81v-.77c0-1.05-.36-1.73-1.06-2.04.71-.29,1.06-.96,1.06-2v-.25c0-.78-.19-1.38-.58-1.81-.39-.42-.95-.63-1.7-.63s-1.32.21-1.73.63c-.41.42-.62,1.03-.62,1.81v.53h1.53v-.62c0-.64.26-.96.78-.96.26,0,.46.08.59.24.13.16.2.45.2.87v.54c0,.37-.08.64-.23.79-.15.16-.38.23-.69.23h-.6v1.39h.52c.35,0,.61.09.76.28.16.19.23.51.23.95v.77c0,.41-.07.69-.2.85-.13.16-.33.24-.59.24-.52,0-.78-.32-.78-.96v-.9h-1.53v.81c0,.78.21,1.38.62,1.81M345.14,459.54h-1.53v1.4h1.53v-1.4ZM340.24,453.53v7.42h1.53v-9.73h-1.03c-.06.16-.11.29-.16.38-.05.1-.11.21-.2.33-.09.12-.19.21-.29.28-.11.07-.25.12-.43.17-.18.05-.38.07-.6.07v1.08h1.19Z"/>
  <path class="st4" d="M349.07,442.04v.09c-.07.33-.21.55-.42.66-.21.11-.53.15-.94.12v1.38c.41.03.77.01,1.08-.04.31-.06.57-.15.78-.27.21-.12.39-.29.54-.52.15-.22.27-.46.36-.72.09-.26.18-.58.25-.95l1.63-7.24h-1.53l-.7,3.34-.36,2.25-.47-2.27-.82-3.31h-1.53l2.12,7.48ZM342.94,444.28l3.83-9.72h-1.32l-3.83,9.72h1.32ZM337.2,443.75c.39.42.96.63,1.7.63s1.33-.21,1.74-.63c.41-.42.62-1.02.62-1.81v-1.3h-1.52v1.39c0,.63-.26.95-.79.95s-.8-.32-.8-.95v-5.25c0-.64.26-.96.8-.96s.79.32.79.96v1.04h1.52v-.95c0-.78-.21-1.38-.62-1.81-.41-.42-.99-.63-1.74-.63s-1.32.21-1.7.63c-.39.42-.58,1.02-.58,1.81v5.06c0,.78.19,1.38.58,1.81"/>
  <path class="st1" d="M659.47,422.63s-2.71.25-10.28-2.43c-6.34-2.24-12.26-6.71-12.26-6.71l18.1-31.15,1.5.94-18.11,31.24"/>
  <path class="st1" d="M659.47,473.92s-2.71-.25-10.28,2.43c-6.34,2.24-12.26,6.71-12.26,6.71l18.1,31.15,1.5-.94-18.11-31.24"/>
  <rect class="st4" x="652.83" y="507.78" width="6.09" height="35.44"/>
  <rect class="st1" x="652.83" y="507.78" width="6.09" height="35.44"/>
  <rect class="st4" x="652.83" y="422.9" width="6.09" height="52.26"/>
  <rect class="st1" x="652.83" y="422.9" width="6.09" height="52.26"/>
  <path class="st4" d="M702.85,515.31l-2.24,8.33h1.53l2.25-8.39v-1.33h-4.58v1.39h3.04ZM698.86,522.24h-1.53v1.4h1.53v-1.4ZM692.37,523.12c.41.42.99.63,1.73.63s1.31-.21,1.7-.63c.39-.42.58-1.02.58-1.81v-.77c0-1.05-.36-1.74-1.07-2.04.71-.29,1.07-.96,1.07-2v-.25c0-.78-.19-1.38-.58-1.81-.39-.42-.95-.63-1.7-.63s-1.32.21-1.73.63c-.41.42-.62,1.02-.62,1.81v.53h1.53v-.62c0-.64.26-.96.78-.96.26,0,.46.08.59.24.13.16.2.45.2.87v.54c0,.37-.08.63-.23.79-.15.16-.38.23-.69.23h-.6v1.39h.52c.35,0,.61.09.76.28.16.19.23.51.23.95v.77c0,.41-.07.69-.2.85-.13.16-.33.24-.59.24-.52,0-.78-.32-.78-.96v-.9h-1.53v.81c0,.78.21,1.38.62,1.81"/>
  <path class="st4" d="M711.65,499.65c0-.35.06-.6.19-.76.12-.16.32-.24.59-.24h.73v2.99h-.6c-.3,0-.53-.08-.69-.23-.15-.16-.23-.42-.23-.8v-.96ZM711.5,506.98c.04-.11.06-.2.08-.25.01-.06.03-.16.04-.33.02-.16.03-.37.03-.61v-1.52c0-.45.08-.77.24-.96.16-.19.41-.28.76-.28h.53v3.96h1.53v-9.72h-2.31c-.78,0-1.35.18-1.72.55-.36.37-.54.93-.54,1.69v.77c0,1,.33,1.66,1,1.97-.37.15-.63.4-.78.74-.15.35-.23.79-.23,1.32v1.5c0,.53-.05.92-.14,1.18h1.52ZM706.9,499l.74,4.89h-1.47l.73-4.89ZM705.7,506.98l.26-1.76h1.87l.27,1.76h1.52l-1.55-9.72h-2.36l-1.55,9.72h1.53ZM700.17,506.98v-4.16h1.74v4.16h1.52v-9.72h-1.52v4.17h-1.74v-4.17h-1.52v9.72h1.52ZM694.24,506.98v-4.16h1.74v4.16h1.52v-9.72h-1.52v4.17h-1.74v-4.17h-1.52v9.72h1.52ZM689.39,499l.74,4.89h-1.47l.73-4.89ZM688.2,506.98l.26-1.76h1.87l.26,1.76h1.53l-1.55-9.72h-2.36l-1.55,9.72h1.53ZM682.96,498.65h.74c.27,0,.47.08.59.24.12.16.18.41.18.76v.54c0,.37-.08.63-.23.79s-.38.23-.69.23h-.6v-2.57ZM682.96,502.61h.69c.35,0,.6.08.76.26.15.17.23.48.23.92v.85c0,.35-.07.59-.2.74-.13.14-.33.22-.6.22h-.87v-2.98ZM683.84,506.98c.76,0,1.34-.2,1.73-.59.39-.39.59-.97.59-1.72v-.79c0-1.09-.38-1.79-1.14-2.08.66-.31.99-.97.99-1.96v-.35c0-.76-.18-1.32-.54-1.69-.37-.37-.94-.55-1.72-.55h-2.31v9.72h2.4Z"/>
  <path class="st4" d="M321.73,435.99c0-4.83-3.93-8.76-8.76-8.76h-9.3c-.73,0-1.33.6-1.33,1.33v19.8c0,.73.6,1.33,1.33,1.33h9.3c4.83,0,8.76-3.93,8.76-8.76v-4.94ZM301.85,448.36v-19.8c0-1.01.82-1.82,1.82-1.82h9.3c5.1,0,9.26,4.15,9.26,9.25v4.94c0,5.1-4.15,9.26-9.26,9.26h-9.3c-1.01,0-1.82-.82-1.82-1.82"/>
  <path class="st1" d="M321.73,435.99c0-4.83-3.93-8.76-8.76-8.76h-9.3c-.73,0-1.33.6-1.33,1.33v19.8c0,.73.6,1.33,1.33,1.33h9.3c4.83,0,8.76-3.93,8.76-8.76v-4.94ZM301.85,448.36v-19.8c0-1.01.82-1.82,1.82-1.82h9.3c5.1,0,9.26,4.15,9.26,9.25v4.94c0,5.1-4.15,9.26-9.26,9.26h-9.3c-1.01,0-1.82-.82-1.82-1.82Z"/>
  <path class="st4" d="M319.53,435.99c0-3.62-2.95-6.56-6.57-6.56h-5.42c-.63,0-1.15.51-1.15,1.14v15.79c0,.63.52,1.15,1.15,1.15h5.42c3.62,0,6.57-2.94,6.57-6.56v-4.95ZM305.9,446.35v-15.79c0-.9.74-1.64,1.64-1.64h5.42c3.9,0,7.07,3.16,7.07,7.06v4.95c0,3.89-3.17,7.06-7.07,7.06h-5.42c-.9,0-1.64-.74-1.64-1.64"/>
  <path class="st1" d="M319.53,435.99c0-3.62-2.95-6.56-6.57-6.56h-5.42c-.63,0-1.15.51-1.15,1.14v15.79c0,.63.52,1.15,1.15,1.15h5.42c3.62,0,6.57-2.94,6.57-6.56v-4.95ZM305.9,446.35v-15.79c0-.9.74-1.64,1.64-1.64h5.42c3.9,0,7.07,3.16,7.07,7.06v4.95c0,3.89-3.17,7.06-7.07,7.06h-5.42c-.9,0-1.64-.74-1.64-1.64Z"/>
  <path class="st4" d="M314.94,438.46c0-.6-.49-1.1-1.1-1.1s-1.1.49-1.1,1.1.49,1.1,1.1,1.1,1.1-.49,1.1-1.1M312.25,438.46c0-.88.71-1.6,1.59-1.6s1.6.71,1.6,1.6-.71,1.6-1.6,1.6-1.59-.71-1.59-1.6"/>
  <path class="st1" d="M314.94,438.46c0-.6-.49-1.1-1.1-1.1s-1.1.49-1.1,1.1.49,1.1,1.1,1.1,1.1-.49,1.1-1.1ZM312.25,438.46c0-.88.71-1.6,1.59-1.6s1.6.71,1.6,1.6-.71,1.6-1.6,1.6-1.59-.71-1.59-1.6Z"/>
  <path class="st4" d="M726.77,465.93c5.62,0,10.2-4.58,10.2-10.21v-10.83c0-.85-.69-1.55-1.55-1.55h-23.06c-.85,0-1.55.69-1.55,1.55v10.83c0,5.63,4.58,10.21,10.21,10.21h5.76ZM712.36,442.77h23.06c1.17,0,2.13.95,2.13,2.12v10.83c0,5.94-4.83,10.78-10.78,10.78h-5.76c-5.94,0-10.78-4.84-10.78-10.78v-10.83c0-1.17.95-2.12,2.12-2.12"/>
  <path class="st1" d="M726.77,465.93c5.62,0,10.2-4.58,10.2-10.21v-10.83c0-.85-.69-1.55-1.55-1.55h-23.06c-.85,0-1.55.69-1.55,1.55v10.83c0,5.63,4.58,10.21,10.21,10.21h5.76ZM712.36,442.77h23.06c1.17,0,2.13.95,2.13,2.12v10.83c0,5.94-4.83,10.78-10.78,10.78h-5.76c-5.94,0-10.78-4.84-10.78-10.78v-10.83c0-1.17.95-2.12,2.12-2.12Z"/>
  <path class="st4" d="M726.77,463.37c4.22,0,7.64-3.43,7.64-7.65v-6.32c0-.74-.6-1.34-1.33-1.34h-18.38c-.74,0-1.33.6-1.33,1.34v6.32c0,4.22,3.43,7.65,7.65,7.65h5.76ZM714.7,447.49h18.38c1.05,0,1.91.86,1.91,1.91v6.32c0,4.54-3.69,8.23-8.22,8.23h-5.76c-4.54,0-8.22-3.69-8.22-8.23v-6.32c0-1.05.86-1.91,1.91-1.91"/>
  <path class="st1" d="M726.77,463.37c4.22,0,7.64-3.43,7.64-7.65v-6.32c0-.74-.6-1.34-1.33-1.34h-18.38c-.74,0-1.33.6-1.33,1.34v6.32c0,4.22,3.43,7.65,7.65,7.65h5.76ZM714.7,447.49h18.38c1.05,0,1.91.86,1.91,1.91v6.32c0,4.54-3.69,8.23-8.22,8.23h-5.76c-4.54,0-8.22-3.69-8.22-8.23v-6.32c0-1.05.86-1.91,1.91-1.91Z"/>
  <path class="st4" d="M723.89,458.02c.7,0,1.28-.57,1.28-1.28s-.57-1.28-1.28-1.28-1.28.57-1.28,1.28.57,1.28,1.28,1.28M723.89,454.88c1.02,0,1.86.83,1.86,1.86s-.83,1.86-1.86,1.86-1.86-.83-1.86-1.86.83-1.86,1.86-1.86"/>
  <path class="st1" d="M723.89,458.02c.7,0,1.28-.57,1.28-1.28s-.57-1.28-1.28-1.28-1.28.57-1.28,1.28.57,1.28,1.28,1.28ZM723.89,454.88c1.02,0,1.86.83,1.86,1.86s-.83,1.86-1.86,1.86-1.86-.83-1.86-1.86.83-1.86,1.86-1.86Z"/>
  <rect class="st1" x="663.45" y="444.47" width="35.46" height="36.31"/>
  <line class="st1" x1="663.94" y1="444.37" x2="698.78" y2="480.63"/>
  <line class="st1" x1="699.19" y1="444.37" x2="664.34" y2="480.63"/>
  <path class="st1" d="M758.65,461.51c-.86,0-1.56.69-1.56,1.55s.7,1.55,1.56,1.55,1.56-.69,1.56-1.55-.7-1.55-1.56-1.55Z"/>
  <rect class="st1" x="741.17" y="446.65" width="34.97" height="90.45" rx="10.33" ry="10.33"/>
  <rect class="st1" x="744.44" y="452.93" width="28.43" height="77.88" rx="10.33" ry="10.33"/>
  <rect class="st1" x="747.58" y="456.4" width="22.15" height="66.83" rx="5.16" ry="5.16"/>
  <polygon class="st1" points="738.25 443.1 738.25 443.1 738.25 540.64 779.06 540.64 779.06 443.1 738.25 443.1"/>
  <path class="st4" d="M516.74,452.57h33.07v-33.07h-33.07v33.07ZM550.54,453.3h-34.53v-34.53h34.53v34.53Z"/>
  <path class="st1" d="M516.74,452.57h33.07v-33.07h-33.07v33.07ZM550.54,453.3h-34.53v-34.53h34.53v34.53Z"/>
  <path class="st4" d="M521.69,422.52c-.82,0-1.48.66-1.48,1.48v17.38c0,.82.66,1.48,1.48,1.48h23.16c.82,0,1.48-.67,1.48-1.48v-17.38c0-.82-.66-1.48-1.48-1.48h-23.16ZM544.86,443.59h-23.16c-1.22,0-2.21-.99-2.21-2.22v-17.38c0-1.22.99-2.21,2.21-2.21h23.16c1.22,0,2.21.99,2.21,2.21v17.38c0,1.22-.99,2.22-2.21,2.22"/>
  <path class="st1" d="M521.69,422.52c-.82,0-1.48.66-1.48,1.48v17.38c0,.82.66,1.48,1.48,1.48h23.16c.82,0,1.48-.67,1.48-1.48v-17.38c0-.82-.66-1.48-1.48-1.48h-23.16ZM544.86,443.59h-23.16c-1.22,0-2.21-.99-2.21-2.22v-17.38c0-1.22.99-2.21,2.21-2.21h23.16c1.22,0,2.21.99,2.21,2.21v17.38c0,1.22-.99,2.22-2.21,2.22Z"/>
  <path class="st4" d="M522.79,440.29h20.98v-15.2h-20.98v15.2ZM544.5,441.02h-22.44v-16.66h22.44v16.66Z"/>
  <path class="st1" d="M522.79,440.29h20.98v-15.2h-20.98v15.2ZM544.5,441.02h-22.44v-16.66h22.44v16.66Z"/>
  <path class="st4" d="M533.27,429.74c-1.06,0-1.92.86-1.92,1.92s.86,1.92,1.92,1.92,1.92-.86,1.92-1.92-.86-1.92-1.92-1.92M533.27,434.31c-1.46,0-2.65-1.19-2.65-2.65s1.19-2.65,2.65-2.65,2.65,1.19,2.65,2.65-1.19,2.65-2.65,2.65"/>
  <path class="st1" d="M533.27,429.74c-1.06,0-1.92.86-1.92,1.92s.86,1.92,1.92,1.92,1.92-.86,1.92-1.92-.86-1.92-1.92-1.92ZM533.27,434.31c-1.46,0-2.65-1.19-2.65-2.65s1.19-2.65,2.65-2.65,2.65,1.19,2.65,2.65-1.19,2.65-2.65,2.65Z"/>
  <rect class="st1" x="383.12" y="883.31" width="167.27" height="5.81"/>
  <rect class="st1" x="554.59" y="883.31" width="203.72" height="5.81"/>
  <rect class="st4" x="369.68" y="883.31" width="52.33" height="5.81"/>
  <rect class="st1" x="369.68" y="883.31" width="52.33" height="5.81"/>
  <rect class="st4" x="369.68" y="865.4" width="48.05" height="18.96"/>
  <rect class="st1" x="369.68" y="865.4" width="48.05" height="18.96"/>
  <rect class="st4" x="566.2" y="883.31" width="61.5" height="5.81"/>
  <rect class="st1" x="566.2" y="883.31" width="61.5" height="5.81"/>
  <rect class="st4" x="566.2" y="865.4" width="56.46" height="18.96"/>
  <rect class="st1" x="566.2" y="865.4" width="56.46" height="18.96"/>
  <rect class="st4" x="736.75" y="883.31" width="49.53" height="5.81"/>
  <rect class="st1" x="736.75" y="883.31" width="49.53" height="5.81"/>
  <rect class="st4" x="741.79" y="865.4" width="44.5" height="18.96"/>
  <rect class="st1" x="741.79" y="865.4" width="44.5" height="18.96"/>
  <rect class="st4" x="532.76" y="883.31" width="49.53" height="5.81"/>
  <rect class="st1" x="532.76" y="883.31" width="49.53" height="5.81"/>
  <rect class="st4" x="537.79" y="865.4" width="44.5" height="18.96"/>
  <rect class="st1" x="537.79" y="865.4" width="44.5" height="18.96"/>
  <rect class="st1" x="393.06" y="865.4" width="157.33" height="17.9"/>
  <rect class="st1" x="566.68" y="865.4" width="191.62" height="17.9"/>
  <path class="st4" d="M484.51,716.49c0-1.06.44-1.59,1.33-1.59s1.32.53,1.32,1.59v8.75c0,1.07-.44,1.61-1.32,1.61s-1.33-.54-1.33-1.61v-8.75ZM482.97,728.09c.67.71,1.62,1.06,2.87,1.06s2.2-.35,2.86-1.06c.67-.71,1-1.71,1-3.01v-8.43c0-1.3-.33-2.3-1-3.01-.66-.71-1.62-1.06-2.86-1.06s-2.2.35-2.87,1.06c-.67.71-1,1.71-1,3.01v8.43c0,1.3.33,2.3,1,3.01M480.43,726.63h-2.54v2.34h2.54v-2.34ZM471,716.49c0-1.05.44-1.57,1.32-1.57s1.33.52,1.33,1.57v2.92c0,1.06-.44,1.59-1.33,1.59s-1.32-.53-1.32-1.59v-2.92ZM469.17,722.37c.47.63,1.18.95,2.11.95,1.13,0,1.92-.48,2.37-1.44v2.96c0,.74-.12,1.26-.35,1.55-.23.3-.59.45-1.07.45-.88,0-1.33-.54-1.33-1.61v-.58h-2.4v.42c0,1.31.32,2.31.97,3.01.65.7,1.59,1.06,2.82,1.06,2.59,0,3.89-1.4,3.89-4.2v-8.3c0-1.3-.33-2.3-1-3.01-.67-.71-1.62-1.06-2.87-1.06s-2.2.35-2.86,1.06c-.67.71-1,1.71-1,3.01v2.97c0,1.2.24,2.11.71,2.75M463.09,716.61v12.37h2.54v-16.21h-1.72c-.1.26-.19.48-.26.64-.07.16-.19.34-.33.54-.15.2-.31.35-.49.46-.18.11-.42.2-.71.28-.29.08-.63.12-1.01.12v1.8h1.98Z"/>
  <path class="st4" d="M692.63,716.49c0-1.06.44-1.59,1.33-1.59s1.32.53,1.32,1.59v8.75c0,1.07-.44,1.61-1.32,1.61s-1.33-.54-1.33-1.61v-8.75ZM691.09,728.09c.67.71,1.62,1.06,2.87,1.06s2.2-.35,2.86-1.06c.67-.71,1-1.71,1-3.01v-8.43c0-1.3-.33-2.3-1-3.01-.66-.71-1.62-1.06-2.86-1.06s-2.2.35-2.87,1.06c-.67.71-1,1.71-1,3.01v8.43c0,1.3.33,2.3,1,3.01M688.55,726.63h-2.54v2.34h2.54v-2.34ZM679.12,716.49c0-1.05.44-1.57,1.32-1.57s1.33.52,1.33,1.57v2.92c0,1.06-.44,1.59-1.33,1.59s-1.32-.53-1.32-1.59v-2.92ZM677.29,722.37c.47.63,1.17.95,2.1.95,1.13,0,1.92-.48,2.37-1.44v2.96c0,.74-.12,1.26-.35,1.55-.23.3-.59.45-1.07.45-.88,0-1.33-.54-1.33-1.61v-.58h-2.4v.42c0,1.31.32,2.31.97,3.01.65.7,1.59,1.06,2.82,1.06,2.59,0,3.89-1.4,3.89-4.2v-8.3c0-1.3-.33-2.3-1-3.01-.67-.71-1.62-1.06-2.87-1.06s-2.2.35-2.86,1.06c-.67.71-1,1.71-1,3.01v2.97c0,1.2.24,2.11.71,2.75M671.21,716.61v12.37h2.54v-16.21h-1.72c-.1.26-.19.48-.26.64-.07.16-.19.34-.33.54-.15.2-.31.35-.49.46-.18.11-.42.2-.71.28-.29.08-.63.12-1.01.12v1.8h1.98Z"/>
  <path class="st4" d="M693.84,288v12.37h2.54v-16.21h-1.72c-.1.26-.19.48-.26.64-.07.16-.19.34-.33.54-.15.2-.31.35-.49.46-.18.11-.42.2-.71.28-.29.08-.63.12-1,.12v1.8h1.98ZM688.55,298.03h-2.54v2.34h2.54v-2.34ZM684.2,300.37v-2.32h-4.79c-.01-.08-.02-.19-.02-.35,0-.36.09-.72.28-1.1.19-.38.43-.74.73-1.1.3-.35.62-.72.99-1.11.36-.39.72-.81,1.07-1.25.36-.45.68-.92.98-1.41.3-.49.54-1.05.72-1.69.19-.64.28-1.3.28-1.99,0-1.3-.32-2.31-.97-3.01-.65-.7-1.59-1.06-2.82-1.06s-2.18.35-2.83,1.06c-.66.7-.98,1.71-.98,3.01v1.58h2.43v-1.74c0-1.06.44-1.59,1.32-1.59.43,0,.76.13.98.41.22.27.33.75.33,1.45,0,.63-.09,1.23-.28,1.78-.18.55-.42,1.04-.72,1.46-.3.42-.62.83-.98,1.23-.36.4-.72.8-1.08,1.2-.36.4-.69.82-.99,1.24-.3.42-.54.92-.73,1.49-.19.57-.28,1.17-.28,1.81v1.99h7.36ZM671.21,288v12.37h2.54v-16.21h-1.72c-.1.26-.19.48-.26.64-.07.16-.19.34-.33.54-.15.2-.31.35-.49.46-.18.11-.42.2-.71.28-.29.08-.63.12-1.01.12v1.8h1.98Z"/>
  <path class="st4" d="M288.46,525c.69.7,1.65,1.06,2.89,1.06s2.18-.35,2.83-1.06c.64-.7.97-1.71.97-3.01v-1.28c0-1.76-.59-2.89-1.77-3.4,1.18-.49,1.77-1.6,1.77-3.33v-.42c0-1.3-.32-2.31-.97-3.01-.65-.7-1.59-1.06-2.83-1.06s-2.2.35-2.89,1.06c-.69.7-1.03,1.71-1.03,3.01v.88h2.54v-1.04c0-1.06.43-1.6,1.31-1.6.43,0,.76.14.99.41.22.27.33.75.33,1.45v.9c0,.62-.13,1.06-.39,1.32-.25.26-.64.39-1.14.39h-1v2.32h.86c.59,0,1.01.16,1.27.48.26.32.39.84.39,1.58v1.28c0,.68-.11,1.15-.33,1.42-.22.27-.55.41-.99.41-.87,0-1.31-.54-1.31-1.61v-1.5h-2.54v1.34c0,1.31.34,2.31,1.03,3.01M285.81,523.54h-2.54v2.34h2.54v-2.34ZM279.01,511.99l-3.73,13.89h2.54l3.75-13.98v-2.23h-7.63v2.32h5.06Z"/>
  <path class="st4" d="M318.64,485.88c0-.58.1-1,.31-1.27.21-.27.54-.4.99-.4h1.22v4.99h-1c-.5,0-.88-.13-1.14-.39-.26-.26-.38-.7-.38-1.33v-1.59ZM318.38,498.1c.06-.19.1-.33.12-.42.02-.09.05-.27.07-.54.03-.27.04-.61.04-1.02v-2.54c0-.74.13-1.28.39-1.59.26-.32.69-.47,1.27-.47h.88v6.6h2.54v-16.21h-3.84c-1.31,0-2.26.3-2.86.92-.6.61-.9,1.55-.9,2.81v1.28c0,1.67.55,2.77,1.66,3.29-.61.26-1.04.67-1.3,1.24-.26.57-.39,1.31-.39,2.21v2.5c0,.87-.08,1.53-.24,1.97h2.54ZM310.71,484.8l1.23,8.16h-2.45l1.22-8.16ZM308.72,498.1l.44-2.94h3.12l.44,2.94h2.54l-2.58-16.21h-3.93l-2.58,16.21h2.54ZM294.67,498.1l2.32-7.22.63,1.26v5.96h2.54v-5.94l.64-1.23,2.31,7.17h2.54l-3.12-9.6,3.12-6.61h-2.48l-3.01,6.55v-6.55h-2.54v6.55l-3.02-6.55h-2.48l3.16,6.65-3.16,9.56h2.54ZM286.03,485.62c0-1.06.44-1.59,1.33-1.59s1.31.53,1.31,1.59v8.75c0,1.07-.44,1.61-1.31,1.61s-1.33-.54-1.33-1.61v-8.75ZM284.49,497.22c.67.71,1.62,1.06,2.87,1.06s2.2-.36,2.86-1.06c.66-.71,1-1.71,1-3v-8.43c0-1.3-.33-2.3-1-3.01-.66-.71-1.62-1.06-2.86-1.06s-2.2.36-2.87,1.06c-.67.71-1,1.71-1,3.01v8.43c0,1.3.33,2.3,1,3M275.73,498.1l1.98-6.03,1.95,6.03h2.54l-2.83-8.26,2.66-7.95h-2.23l-1.96,6.01-1.93-6.01h-2.54l2.67,7.85-2.85,8.35h2.54ZM266.49,498.1l2.15-7.42,1.03-3.97v11.39h2.54v-16.21h-3.05l-2.08,6.69-.93,3.57v-10.26h-2.27v16.21h2.61ZM257.7,484.21h1.21c.42,0,.73.12.94.35.2.23.31.62.31,1.18v2.43c0,.56-.1.95-.31,1.19-.2.23-.52.35-.94.35h-1.21v-5.49ZM257.7,498.1v-6.09h1.21c1.25,0,2.2-.34,2.84-1.02.64-.68.95-1.67.95-2.98v-2.1c0-1.3-.32-2.3-.95-2.98-.64-.69-1.58-1.03-2.84-1.03h-3.75v16.21h2.54ZM247.82,498.1v-13.89h2.89v13.89h2.54v-16.21h-7.98v16.21h2.54Z"/>
  <path class="st4" d="M476.22,525c.69.7,1.65,1.06,2.89,1.06s2.18-.35,2.83-1.06c.64-.7.97-1.71.97-3.01v-1.28c0-1.76-.59-2.89-1.77-3.4,1.18-.49,1.77-1.6,1.77-3.33v-.42c0-1.31-.32-2.31-.97-3.01-.65-.7-1.59-1.06-2.83-1.06s-2.2.35-2.89,1.06c-.69.7-1.03,1.71-1.03,3.01v.88h2.54v-1.04c0-1.06.43-1.6,1.31-1.6.43,0,.76.14.99.41.22.27.33.75.33,1.45v.9c0,.62-.13,1.06-.39,1.32-.25.26-.64.39-1.14.39h-1v2.32h.86c.59,0,1.01.16,1.27.48.26.32.39.84.39,1.58v1.28c0,.68-.11,1.15-.33,1.42-.22.27-.55.41-.99.41-.87,0-1.31-.54-1.31-1.61v-1.5h-2.54v1.34c0,1.31.34,2.31,1.03,3.01M473.58,523.54h-2.54v2.34h2.54v-2.34ZM464.09,513.66c0-.68.13-1.16.38-1.44.25-.28.61-.42,1.06-.42s.81.14,1.06.41c.25.28.38.76.38,1.44v.9c0,1.14-.48,1.71-1.43,1.71s-1.44-.57-1.44-1.71v-.9ZM464.09,520.42c0-1.22.48-1.83,1.44-1.83s1.43.61,1.43,1.83v1.5c0,.68-.14,1.15-.39,1.42-.25.27-.6.41-1.04.41s-.81-.14-1.06-.41c-.25-.27-.38-.75-.38-1.42v-1.5ZM462.57,524.99c.69.71,1.67,1.06,2.95,1.06s2.27-.35,2.95-1.06c.68-.71,1.02-1.71,1.02-3.01v-1.28c0-1.66-.53-2.78-1.58-3.38,1.05-.59,1.58-1.67,1.58-3.26v-.52c0-1.3-.34-2.3-1.02-3.01-.68-.71-1.67-1.06-2.95-1.06s-2.27.35-2.95,1.06c-.69.71-1.03,1.71-1.03,3.01v.52c0,1.6.52,2.68,1.57,3.26-1.05.59-1.57,1.72-1.57,3.38v1.28c0,1.3.34,2.3,1.03,3.01"/>
  <path class="st4" d="M500.26,484.21h1.21c.42,0,.73.12.94.35.2.23.31.62.31,1.18v2.43c0,.56-.1.95-.31,1.19-.2.23-.52.35-.94.35h-1.21v-5.49ZM500.26,498.1v-6.09h1.21c1.26,0,2.2-.34,2.84-1.02.64-.68.95-1.67.95-2.98v-2.1c0-1.3-.32-2.3-.95-2.98-.64-.69-1.58-1.03-2.84-1.03h-3.75v16.21h2.54ZM490.88,485.62c0-1.06.44-1.59,1.33-1.59s1.32.53,1.32,1.59v8.75c0,1.07-.44,1.61-1.32,1.61s-1.33-.54-1.33-1.61v-8.75ZM489.34,497.22c.67.71,1.62,1.06,2.87,1.06s2.2-.36,2.86-1.06c.67-.71,1-1.71,1-3v-8.43c0-1.3-.33-2.3-1-3.01-.66-.71-1.62-1.06-2.86-1.06s-2.2.36-2.87,1.06c-.67.71-1,1.71-1,3.01v8.43c0,1.3.33,2.3,1,3M480.65,495.01c.12-.31.19-.76.22-1.36l.46-9.45h2.15v11.59h-3.34c.22-.21.39-.47.51-.78M479.2,500.25v-2.15h5.39v2.15h2.54v-4.45h-1.11v-13.9h-7.23l-.46,11.8c-.02.5-.08.9-.18,1.22-.09.32-.25.61-.47.87h-1.03v4.45h2.54ZM470,498.1l2.15-7.42,1.03-3.97v11.39h2.54v-16.21h-3.05l-2.08,6.69-.93,3.57v-10.26h-2.27v16.21h2.61ZM461.2,484.21h1.21c.42,0,.73.12.94.35.2.23.31.62.31,1.18v2.43c0,.56-.1.95-.31,1.19-.2.23-.52.35-.94.35h-1.21v-5.49ZM461.2,498.1v-6.09h1.21c1.25,0,2.2-.34,2.84-1.02.64-.68.95-1.67.95-2.98v-2.1c0-1.3-.32-2.3-.95-2.98-.64-.69-1.58-1.03-2.84-1.03h-3.75v16.21h2.54ZM451.82,485.62c0-1.06.44-1.59,1.33-1.59s1.32.53,1.32,1.59v8.75c0,1.07-.44,1.61-1.32,1.61s-1.33-.54-1.33-1.61v-8.75ZM450.28,497.22c.67.71,1.62,1.06,2.87,1.06s2.2-.36,2.86-1.06c.66-.71,1-1.71,1-3v-8.43c0-1.3-.33-2.3-1-3.01-.66-.71-1.62-1.06-2.86-1.06s-2.2.36-2.87,1.06c-.67.71-1,1.71-1,3.01v8.43c0,1.3.33,2.3,1,3M442.46,498.1v-4.97l.79-1.48,2.47,6.45h2.61l-3.54-8.99,3.54-7.22h-2.54l-3.33,7.06v-7.06h-2.54v16.21h2.54Z"/>
  <path class="st4" d="M707.05,133.78c1.28,0,2.2-.27,2.75-.8.55-.54.83-1.45.83-2.73v-9.12c0-1.29-.28-2.2-.83-2.74-.55-.54-1.47-.81-2.75-.81h-.78v2.2h.62c.42,0,.72.1.91.3.19.2.28.58.28,1.13v8.94c0,.55-.09.92-.28,1.13-.18.2-.49.3-.91.3h-.62v2.21h.78ZM702.56,119.89l-3.73,13.89h2.54l3.75-13.98v-2.23h-7.63v2.32h5.06ZM695.9,131.44h-2.54v2.34h2.54v-2.34ZM687.73,121.41v12.37h2.54v-16.21h-1.72c-.1.26-.18.48-.26.64-.08.16-.19.34-.33.54-.15.2-.31.35-.49.46-.18.11-.42.21-.71.28-.29.08-.63.12-1.01.12v1.8h1.98ZM679.36,132.97c.55.54,1.46.8,2.75.8h.78v-2.21h-.63c-.42,0-.73-.1-.91-.3-.18-.2-.27-.58-.27-1.13v-8.94c0-.55.09-.92.27-1.13.18-.2.49-.3.91-.3h.63v-2.2h-.78c-1.28,0-2.2.27-2.75.81-.55.54-.83,1.45-.83,2.74v9.12c0,1.29.27,2.2.83,2.73M669.94,122.43v6.09h-2.57l2.57-6.09ZM669.94,130.84v2.94h2.54v-2.94h1.16v-2.32h-1.16v-10.95h-2.78l-4.62,10.95v2.32h4.86ZM663.88,131.44h-2.54v2.34h2.54v-2.34ZM653.06,132.9c.69.7,1.65,1.06,2.89,1.06s2.18-.35,2.83-1.06c.64-.7.97-1.71.97-3.01v-1.28c0-1.76-.59-2.89-1.77-3.4,1.18-.49,1.77-1.6,1.77-3.33v-.42c0-1.3-.32-2.31-.97-3.01-.65-.7-1.59-1.06-2.83-1.06s-2.2.35-2.89,1.06c-.69.7-1.03,1.71-1.03,3.01v.88h2.54v-1.04c0-1.06.43-1.6,1.31-1.6.44,0,.76.14.99.41.22.27.33.75.33,1.45v.9c0,.62-.13,1.06-.39,1.32-.25.26-.64.39-1.14.39h-.99v2.32h.86c.59,0,1.01.16,1.27.48.26.32.39.84.39,1.58v1.28c0,.68-.11,1.15-.33,1.42-.22.27-.55.41-.99.41-.87,0-1.31-.54-1.31-1.6v-1.5h-2.54v1.34c0,1.31.34,2.31,1.03,3.01"/>
  <path class="st1" d="M477.11,287.57c17.91,0,32.43-14.52,32.43-32.43s-14.52-32.43-32.43-32.43-32.43,14.52-32.43,32.43,14.52,32.43,32.43,32.43Z"/>
  <g>
    <path class="st4" d="M632.26,266.61l2.75-8.32-2.75-5.79h2.16l2.63,5.71v-5.71h2.21v5.71l2.63-5.71h2.16l-2.72,5.76,2.72,8.35h-2.21l-2.01-6.24-.55,1.07v5.17h-2.21v-5.19l-.54-1.1-2.02,6.29h-2.21Z"/>
    <path class="st4" d="M645.07,266.61v-14.11h1.98v8.94l.81-3.11,1.81-5.83h2.66v14.11h-2.21v-9.92l-.9,3.46-1.87,6.46h-2.27Z"/>
    <path class="st4" d="M653.06,266.63v-2.02c.27,0,.48-.01.63-.04.15-.03.28-.09.4-.19.12-.1.2-.25.24-.44.04-.19.07-.45.09-.78l.25-10.67h6.35v14.11h-2.21v-12.09h-1.92l-.25,8.53c-.04,1.29-.31,2.2-.81,2.76-.5.55-1.31.83-2.42.83h-.34Z"/>
    <path class="st4" d="M662.16,266.61l2.25-14.11h3.42l2.25,14.11h-2.21l-.39-2.56h-2.71l-.38,2.56h-2.21ZM665.04,262.13h2.14l-1.07-7.1-1.07,7.1Z"/>
    <path class="st4" d="M670.57,266.61c.14-.38.21-.95.21-1.71v-2.17c0-.78.11-1.42.33-1.92.22-.5.6-.86,1.13-1.08-.96-.45-1.45-1.41-1.45-2.86v-1.11c0-1.1.26-1.92.79-2.45.53-.53,1.36-.8,2.49-.8h3.35v14.11h-2.21v-5.75h-.77c-.51,0-.87.14-1.1.41-.23.28-.34.74-.34,1.39v2.21c0,.36-.01.66-.03.89-.02.23-.04.39-.06.47-.02.08-.06.21-.11.37h-2.21ZM673.01,257.36c0,.54.11.93.33,1.16.22.23.55.34.99.34h.87v-4.34h-1.06c-.39,0-.68.12-.86.35-.18.23-.27.6-.27,1.11v1.39Z"/>
    <path class="st4" d="M682.15,266.61v-14.11h2.21v6.15l2.9-6.15h2.21l-3.08,6.29,3.08,7.82h-2.27l-2.16-5.62-.69,1.29v4.33h-2.21Z"/>
    <path class="st4" d="M690.3,263.22v-7.34c0-1.13.29-2,.87-2.62.58-.62,1.41-.92,2.5-.92s1.92.31,2.49.92.87,1.49.87,2.62v7.34c0,1.13-.29,2-.87,2.62s-1.41.92-2.49.92-1.92-.31-2.5-.92c-.58-.62-.87-1.49-.87-2.62ZM692.51,263.36c0,.93.39,1.4,1.16,1.4s1.15-.47,1.15-1.4v-7.62c0-.92-.38-1.39-1.15-1.39s-1.16.46-1.16,1.39v7.62Z"/>
    <path class="st4" d="M698.45,266.61v-14.11h3.08l1.64,10.05,1.52-10.05h3.19v14.11h-2.21v-10.12l-1.53,10.12h-2.1l-1.65-9.95v9.95h-1.93Z"/>
    <path class="st4" d="M709.36,266.61v-14.11h2.21v6.05h2.52v-6.05h2.21v14.11h-2.21v-6.04h-2.52v6.04h-2.21Z"/>
    <path class="st4" d="M717.38,266.61l2.25-14.11h3.42l2.25,14.11h-2.21l-.39-2.56h-2.71l-.38,2.56h-2.21ZM720.27,262.13h2.14l-1.07-7.1-1.07,7.1Z"/>
    <path class="st4" d="M725.51,254.51v-2.02h6.86v2.02h-2.32v12.09h-2.21v-12.09h-2.32Z"/>
    <path class="st4" d="M732.75,266.61l2.25-14.11h3.42l2.25,14.11h-2.21l-.39-2.56h-2.71l-.38,2.56h-2.21ZM735.64,262.13h2.14l-1.07-7.1-1.07,7.1Z"/>
  </g>
  <g>
    <path class="st4" d="M627.22,694.44l2.75-8.32-2.75-5.79h2.16l2.63,5.71v-5.71h2.21v5.71l2.63-5.71h2.16l-2.72,5.76,2.72,8.36h-2.21l-2.01-6.24-.55,1.07v5.17h-2.21v-5.19l-.54-1.1-2.02,6.29h-2.21Z"/>
    <path class="st4" d="M640.04,694.44v-14.11h1.98v8.94l.81-3.11,1.81-5.83h2.66v14.11h-2.21v-9.92l-.9,3.46-1.87,6.46h-2.27Z"/>
    <path class="st4" d="M648.03,694.46v-2.02c.27,0,.48-.01.63-.04.15-.03.28-.09.4-.19.12-.1.2-.25.24-.44.04-.19.07-.45.09-.78l.25-10.67h6.35v14.11h-2.21v-12.09h-1.92l-.25,8.53c-.04,1.29-.31,2.2-.81,2.76-.5.55-1.31.83-2.42.83h-.34Z"/>
    <path class="st4" d="M657.12,694.44l2.25-14.11h3.42l2.25,14.11h-2.21l-.39-2.56h-2.71l-.38,2.56h-2.21ZM660.01,689.97h2.14l-1.07-7.1-1.07,7.1Z"/>
    <path class="st4" d="M665.53,694.44c.14-.38.21-.95.21-1.71v-2.17c0-.78.11-1.42.33-1.92.22-.5.6-.86,1.13-1.08-.96-.45-1.45-1.41-1.45-2.86v-1.11c0-1.1.26-1.92.79-2.45.53-.53,1.36-.8,2.49-.8h3.35v14.11h-2.21v-5.75h-.77c-.51,0-.87.14-1.1.41s-.34.74-.34,1.39v2.21c0,.36-.01.66-.03.89-.02.23-.04.39-.06.47-.02.08-.06.21-.11.37h-2.21ZM667.97,685.19c0,.54.11.93.33,1.16.22.23.55.34.99.34h.87v-4.34h-1.06c-.39,0-.68.12-.86.35-.18.23-.27.6-.27,1.11v1.39Z"/>
    <path class="st4" d="M677.12,694.44v-14.11h2.21v6.15l2.9-6.15h2.21l-3.08,6.29,3.08,7.82h-2.27l-2.16-5.62-.69,1.29v4.33h-2.21Z"/>
    <path class="st4" d="M685.26,691.06v-7.34c0-1.13.29-2,.87-2.62.58-.62,1.41-.93,2.5-.93s1.92.31,2.49.93c.58.62.87,1.49.87,2.62v7.34c0,1.13-.29,2-.87,2.62-.58.62-1.41.92-2.49.92s-1.92-.31-2.5-.92c-.58-.62-.87-1.49-.87-2.62ZM687.48,691.2c0,.93.39,1.4,1.16,1.4s1.15-.47,1.15-1.4v-7.62c0-.92-.38-1.39-1.15-1.39s-1.16.46-1.16,1.39v7.62Z"/>
    <path class="st4" d="M693.41,694.44v-14.11h3.08l1.64,10.05,1.52-10.05h3.19v14.11h-2.21v-10.12l-1.53,10.12h-2.1l-1.65-9.96v9.96h-1.93Z"/>
    <path class="st4" d="M704.33,694.44v-14.11h2.21v6.05h2.52v-6.05h2.21v14.11h-2.21v-6.04h-2.52v6.04h-2.21Z"/>
    <path class="st4" d="M712.35,694.44l2.25-14.11h3.42l2.25,14.11h-2.21l-.39-2.56h-2.71l-.38,2.56h-2.21ZM715.23,689.97h2.14l-1.07-7.1-1.07,7.1Z"/>
    <path class="st4" d="M720.48,682.35v-2.02h6.86v2.02h-2.32v12.09h-2.21v-12.09h-2.32Z"/>
    <path class="st4" d="M727.72,694.44l2.25-14.11h3.42l2.25,14.11h-2.21l-.39-2.56h-2.71l-.38,2.56h-2.21ZM730.6,689.97h2.14l-1.07-7.1-1.07,7.1Z"/>
  </g>
  <g>
    <path class="st4" d="M422.33,696.63l2.75-8.32-2.75-5.79h2.16l2.63,5.71v-5.71h2.21v5.71l2.63-5.71h2.16l-2.72,5.76,2.72,8.36h-2.21l-2.01-6.24-.55,1.07v5.17h-2.21v-5.19l-.54-1.1-2.02,6.29h-2.21Z"/>
    <path class="st4" d="M435.15,696.63v-14.11h1.98v8.94l.81-3.11,1.81-5.83h2.66v14.11h-2.21v-9.92l-.9,3.46-1.87,6.46h-2.27Z"/>
    <path class="st4" d="M443.14,696.65v-2.02c.27,0,.48-.01.63-.04.15-.03.28-.09.4-.19.12-.1.2-.25.24-.44.05-.19.07-.45.09-.78l.25-10.67h6.35v14.11h-2.21v-12.09h-1.92l-.25,8.53c-.04,1.29-.31,2.2-.81,2.76-.5.55-1.31.83-2.42.83h-.34Z"/>
    <path class="st4" d="M452.23,696.63l2.25-14.11h3.42l2.25,14.11h-2.21l-.39-2.56h-2.71l-.38,2.56h-2.21ZM455.12,692.15h2.14l-1.07-7.1-1.06,7.1Z"/>
    <path class="st4" d="M460.65,696.63c.14-.38.21-.95.21-1.71v-2.17c0-.78.11-1.42.33-1.92.22-.5.6-.86,1.13-1.08-.96-.45-1.45-1.41-1.45-2.86v-1.11c0-1.1.26-1.92.79-2.45s1.35-.8,2.49-.8h3.35v14.11h-2.21v-5.75h-.77c-.5,0-.87.14-1.1.41s-.34.74-.34,1.39v2.21c0,.36-.01.66-.03.89-.02.23-.04.39-.06.47-.02.08-.06.21-.11.37h-2.21ZM463.09,687.38c0,.54.11.93.33,1.16.22.23.55.34.99.34h.87v-4.34h-1.06c-.39,0-.68.12-.86.35-.18.23-.27.6-.27,1.11v1.39Z"/>
    <path class="st4" d="M472.23,696.63v-14.11h2.21v6.15l2.9-6.15h2.21l-3.08,6.29,3.08,7.82h-2.27l-2.16-5.62-.69,1.29v4.33h-2.21Z"/>
    <path class="st4" d="M480.38,693.25v-7.34c0-1.13.29-2,.87-2.62.58-.62,1.41-.93,2.5-.93s1.92.31,2.49.93c.58.62.87,1.49.87,2.62v7.34c0,1.13-.29,2-.87,2.62-.58.62-1.41.92-2.49.92s-1.92-.31-2.5-.92c-.58-.62-.87-1.49-.87-2.62ZM482.59,693.38c0,.93.39,1.4,1.16,1.4s1.15-.47,1.15-1.4v-7.62c0-.92-.38-1.39-1.15-1.39s-1.16.46-1.16,1.39v7.62Z"/>
    <path class="st4" d="M488.52,696.63v-14.11h3.08l1.64,10.05,1.52-10.05h3.19v14.11h-2.21v-10.12l-1.53,10.12h-2.1l-1.65-9.96v9.96h-1.93Z"/>
    <path class="st4" d="M499.44,696.63v-14.11h2.21v6.05h2.52v-6.05h2.21v14.11h-2.21v-6.04h-2.52v6.04h-2.21Z"/>
    <path class="st4" d="M507.46,696.63l2.25-14.11h3.42l2.25,14.11h-2.21l-.39-2.56h-2.71l-.38,2.56h-2.21ZM510.34,692.15h2.14l-1.07-7.1-1.07,7.1Z"/>
    <path class="st4" d="M515.59,684.54v-2.02h6.86v2.02h-2.32v12.09h-2.21v-12.09h-2.32Z"/>
    <path class="st4" d="M522.83,696.63l2.25-14.11h3.42l2.25,14.11h-2.21l-.39-2.56h-2.71l-.38,2.56h-2.21ZM525.71,692.15h2.14l-1.07-7.1-1.07,7.1Z"/>
  </g>
  <rect class="st1" x="454.08" y="153.19" width="84.16" height="5.81"/>
  <rect class="st1" x="460.77" y="159.52" width="89.57" height="17.9"/>
  <path class="st1" d="M460.26,159.38s-1.98,8.37-4.1,14.1c-2.12,5.73-4.7,8.88-4.7,8.88l-37.44-21.58,1.12-1.8,37.65,21.18"/>
  <line class="st0" x1="427.93" y1="942.15" x2="527.06" y2="942.15"/>
  <polyline class="st2" points="527.06 942.15 528.47 941.89 529.6 940.85 530.17 939.56"/>
  <line class="st0" x1="530.45" y1="939.56" x2="533.27" y2="886.84"/>
  <polyline class="st0" points="418.04 950.16 536.95 950.16 537.79 949.12"/>
  <path class="st0" d="M416.91,949.1v-62.26M537.79,949.1v-62.26M418.04,950.16l-1.13-1.06"/>
  <polyline class="st2" points="424.82 939.56 425.39 940.85 426.52 941.89 427.93 942.15"/>
  <polyline class="st0" points="424.54 939.56 421.71 886.06 420.3 886.06"/>
  <g>
    <path class="st4" d="M438.68,320.22v-6.9c0-3.01.77-5.34,2.31-6.98,1.54-1.64,3.76-2.47,6.65-2.47s5.11.82,6.66,2.47c1.55,1.64,2.32,3.97,2.32,6.98v19.26c0,6.51-3.01,9.76-9.04,9.76-2.86,0-5.05-.82-6.55-2.45s-2.25-3.97-2.25-6.99v-.97h5.56v1.34c0,2.48,1.03,3.73,3.08,3.73,1.11,0,1.93-.35,2.48-1.04.54-.69.82-1.89.82-3.61v-6.88c-1.05,2.22-2.89,3.33-5.51,3.33-2.16,0-3.79-.73-4.89-2.2-1.1-1.47-1.65-3.6-1.65-6.38ZM444.58,319.72c0,2.47,1.02,3.7,3.06,3.7s3.08-1.23,3.08-3.7v-6.77c0-2.43-1.03-3.65-3.08-3.65s-3.06,1.22-3.06,3.65v6.77Z"/>
    <path class="st4" d="M461.64,341.92v-4.62c0-1.49.22-2.89.65-4.21.43-1.32.99-2.48,1.69-3.46.69-.99,1.46-1.95,2.29-2.89.83-.94,1.67-1.87,2.51-2.79.83-.93,1.6-1.88,2.28-2.86.69-.98,1.25-2.11,1.67-3.4.43-1.29.64-2.66.64-4.13,0-1.61-.25-2.73-.76-3.36-.51-.63-1.26-.94-2.27-.94-2.04,0-3.06,1.23-3.06,3.7v4.04h-5.64v-3.67c0-3.03.76-5.36,2.28-6.99,1.52-1.64,3.71-2.45,6.57-2.45s5.04.82,6.54,2.45c1.5,1.64,2.25,3.97,2.25,6.99,0,1.61-.22,3.15-.65,4.63-.44,1.48-1,2.79-1.69,3.92s-1.45,2.23-2.27,3.27c-.83,1.04-1.66,2.01-2.5,2.91-.84.9-1.6,1.76-2.29,2.58-.69.82-1.25,1.67-1.69,2.55-.44.88-.65,1.72-.65,2.55,0,.37.02.64.05.81h11.13v5.38h-17.08Z"/>
    <path class="st4" d="M484,341.92v-5.43h5.9v5.43h-5.9Z"/>
    <path class="st4" d="M494.44,320.22v-6.9c0-3.01.77-5.34,2.31-6.98,1.54-1.64,3.76-2.47,6.65-2.47s5.11.82,6.66,2.47c1.55,1.64,2.32,3.97,2.32,6.98v19.26c0,6.51-3.01,9.76-9.04,9.76-2.87,0-5.05-.82-6.55-2.45s-2.25-3.97-2.25-6.99v-.97h5.56v1.34c0,2.48,1.03,3.73,3.08,3.73,1.11,0,1.93-.35,2.48-1.04.54-.69.82-1.89.82-3.61v-6.88c-1.05,2.22-2.89,3.33-5.51,3.33-2.16,0-3.79-.73-4.89-2.2-1.1-1.47-1.65-3.6-1.65-6.38ZM500.35,319.72c0,2.47,1.02,3.7,3.06,3.7s3.08-1.23,3.08-3.7v-6.77c0-2.43-1.03-3.65-3.08-3.65s-3.06,1.22-3.06,3.65v6.77Z"/>
  </g>
  <g>
    <path class="st4" d="M459.16,265.57v-2.73h5.17v3.05c0,2.17.88,3.26,2.65,3.26.88,0,1.55-.28,2-.83.45-.55.67-1.52.67-2.89v-2.59c0-1.5-.26-2.57-.79-3.21-.53-.64-1.39-.96-2.58-.96h-1.75v-4.71h2.02c1.03,0,1.8-.26,2.32-.79.52-.53.78-1.42.78-2.68v-1.84c0-1.41-.23-2.39-.67-2.94-.45-.55-1.12-.83-2-.83-1.77,0-2.65,1.08-2.65,3.24v2.11h-5.17v-1.79c0-2.65.7-4.69,2.09-6.12,1.39-1.43,3.35-2.15,5.87-2.15s4.44.72,5.74,2.15c1.31,1.43,1.96,3.47,1.96,6.12v.85c0,3.52-1.2,5.78-3.61,6.77,2.4,1.04,3.61,3.35,3.61,6.91v2.59c0,2.65-.65,4.69-1.96,6.12-1.31,1.43-3.22,2.15-5.74,2.15s-4.48-.72-5.87-2.15c-1.39-1.43-2.09-3.47-2.09-6.12Z"/>
    <path class="st4" d="M479,273.47v-32.93h5.17v14.35l6.77-14.35h5.17l-7.19,14.67,7.19,18.25h-5.3l-5.03-13.11-1.61,3.01v10.1h-5.17Z"/>
  </g>
  <g>
    <path class="st4" d="M417.72,372.75v-14.11h2.21v6.15l2.9-6.15h2.21l-3.08,6.29,3.08,7.82h-2.27l-2.16-5.62-.69,1.29v4.33h-2.21Z"/>
    <path class="st4" d="M425.81,358.64h2.21l1.2,4.81.69,3.3.52-3.27,1.01-4.84h2.21l-2.37,10.5c-.11.54-.23,1-.37,1.38s-.31.73-.53,1.05c-.22.32-.48.57-.79.75-.31.18-.68.31-1.13.39-.45.08-.97.1-1.56.06v-2.01c.6.04,1.06-.02,1.37-.18.31-.16.51-.48.59-.96l.02-.13-3.08-10.86Z"/>
    <path class="st4" d="M434.58,372.75l2.48-7.27-2.32-6.84h2.21l1.68,5.23,1.71-5.23h1.94l-2.32,6.92,2.47,7.19h-2.21l-1.7-5.25-1.72,5.25h-2.21Z"/>
    <path class="st4" d="M444.14,372.75v-14.11h2.21v6.05h2.52v-6.05h2.21v14.11h-2.21v-6.04h-2.52v6.04h-2.21Z"/>
    <path class="st4" d="M452.78,372.75c.14-.38.21-.95.21-1.71v-2.17c0-.78.11-1.42.33-1.92s.6-.86,1.13-1.08c-.96-.45-1.45-1.41-1.45-2.86v-1.11c0-1.1.26-1.92.79-2.45.52-.53,1.35-.8,2.49-.8h3.35v14.11h-2.21v-5.75h-.77c-.5,0-.87.14-1.1.41-.23.28-.34.74-.34,1.39v2.21c0,.36-.01.66-.03.89s-.04.39-.06.47c-.02.08-.06.21-.11.37h-2.21ZM455.22,363.5c0,.54.11.93.33,1.16.22.23.55.34.99.34h.87v-4.34h-1.06c-.39,0-.68.12-.86.35-.18.23-.27.6-.27,1.11v1.39Z"/>
    <path class="st4" d="M461.55,366.71v-2.02h4.02v2.02h-4.02Z"/>
    <path class="st4" d="M467.3,369.37v-7.34c0-1.13.28-2.01.84-2.62.56-.61,1.39-.92,2.47-.92s1.93.31,2.52.92c.6.61.89,1.49.89,2.62v1.38h-2.21v-1.52c0-.92-.38-1.39-1.15-1.39s-1.16.46-1.16,1.39v7.62c0,.92.39,1.38,1.16,1.38s1.15-.46,1.15-1.38v-2.02h2.21v1.88c0,1.14-.3,2.01-.89,2.62-.6.61-1.44.92-2.52.92s-1.91-.31-2.47-.92c-.56-.61-.84-1.49-.84-2.62Z"/>
    <path class="st4" d="M475.01,360.66v-2.02h6.86v2.02h-2.32v12.09h-2.21v-12.09h-2.32Z"/>
    <path class="st4" d="M483.05,369.37v-7.34c0-1.13.29-2,.87-2.62.58-.62,1.41-.92,2.5-.92s1.92.31,2.49.92.87,1.49.87,2.62v7.34c0,1.13-.29,2-.87,2.62s-1.41.92-2.49.92-1.92-.31-2.5-.92c-.58-.62-.87-1.49-.87-2.62ZM485.26,369.5c0,.93.39,1.4,1.16,1.4s1.15-.47,1.15-1.4v-7.62c0-.92-.38-1.39-1.15-1.39s-1.16.46-1.16,1.39v7.62Z"/>
    <path class="st4" d="M491.01,372.77v-2.02c.27,0,.48-.01.63-.04.15-.03.28-.09.4-.19.12-.1.2-.25.24-.44.05-.19.07-.45.09-.78l.25-10.67h6.35v14.11h-2.21v-12.09h-1.92l-.25,8.53c-.04,1.29-.31,2.2-.81,2.76-.5.55-1.31.83-2.42.83h-.34Z"/>
    <path class="st4" d="M500.9,369.37v-7.34c0-1.13.29-2,.87-2.62.58-.62,1.41-.92,2.5-.92s1.92.31,2.49.92.87,1.49.87,2.62v7.34c0,1.13-.29,2-.87,2.62s-1.41.92-2.49.92-1.92-.31-2.5-.92c-.58-.62-.87-1.49-.87-2.62ZM503.11,369.5c0,.93.39,1.4,1.16,1.4s1.15-.47,1.15-1.4v-7.62c0-.92-.38-1.39-1.15-1.39s-1.16.46-1.16,1.39v7.62Z"/>
    <path class="st4" d="M509.47,372.75v-14.11h3.35c1.14,0,1.97.27,2.5.8.53.53.79,1.35.79,2.45v.5c0,1.44-.48,2.39-1.44,2.84,1.1.43,1.65,1.43,1.65,3.02v1.15c0,1.09-.29,1.92-.86,2.49-.57.57-1.41.86-2.51.86h-3.48ZM511.69,364.39h.87c.44,0,.77-.11,1-.34.22-.23.34-.61.34-1.15v-.79c0-.51-.09-.87-.27-1.11-.18-.23-.46-.35-.86-.35h-1.08v3.73ZM511.69,370.73h1.27c.39,0,.67-.1.87-.31s.29-.57.29-1.07v-1.23c0-.64-.11-1.09-.33-1.34-.22-.25-.59-.37-1.1-.37h-.99v4.33Z"/>
    <path class="st4" d="M517.47,372.75l2.25-14.11h3.42l2.25,14.11h-2.21l-.39-2.56h-2.71l-.38,2.56h-2.21ZM520.36,368.27h2.14l-1.07-7.1-1.07,7.1Z"/>
    <path class="st4" d="M526.29,372.75c.14-.38.21-.95.21-1.71v-2.17c0-.78.11-1.42.33-1.92.22-.5.6-.86,1.13-1.08-.96-.45-1.45-1.41-1.45-2.86v-1.11c0-1.1.26-1.92.79-2.45.53-.53,1.36-.8,2.49-.8h3.35v14.11h-2.21v-5.75h-.77c-.51,0-.87.14-1.1.41-.23.28-.34.74-.34,1.39v2.21c0,.36-.01.66-.03.89-.02.23-.04.39-.06.47-.02.08-.06.21-.11.37h-2.21ZM528.73,363.5c0,.54.11.93.33,1.16.22.23.55.34.99.34h.87v-4.34h-1.06c-.39,0-.68.12-.86.35-.18.23-.27.6-.27,1.11v1.39Z"/>
  </g>
  <g>
    <path class="st4" d="M463.17,387.4v-1.74c.36,0,.69-.04.97-.11.28-.08.51-.17.69-.27.18-.11.33-.25.48-.45.14-.19.25-.37.32-.52s.16-.36.25-.62h1.66v15.68h-2.46v-11.96h-1.91Z"/>
    <path class="st4" d="M470.83,395.6v-8.02c0-2.72,1.25-4.08,3.76-4.08,1.19,0,2.1.34,2.73,1.02.62.68.94,1.65.94,2.91v.4h-2.32v-.56c0-1.03-.43-1.54-1.28-1.54-.47,0-.81.14-1.03.43-.22.28-.33.78-.33,1.5v2.86c.44-.93,1.2-1.39,2.29-1.39.9,0,1.58.31,2.04.92s.69,1.5.69,2.67v2.86c0,1.25-.32,2.22-.96,2.91-.64.69-1.56,1.03-2.77,1.03s-2.13-.34-2.77-1.03c-.65-.69-.97-1.65-.97-2.91ZM473.29,395.75c0,1.02.43,1.53,1.28,1.53s1.27-.51,1.27-1.53v-2.82c0-1.03-.42-1.54-1.27-1.54s-1.28.51-1.28,1.54v2.82Z"/>
    <path class="st4" d="M480.29,399.36v-2.26h2.46v2.26h-2.46Z"/>
    <path class="st4" d="M484.74,385.92v-2.24h7.38v2.15l-3.63,13.53h-2.46l3.61-13.44h-4.9Z"/>
  </g>
  <g>
    <path class="st4" d="M446.97,127.13v-2.24l4.47-10.6h2.69v10.6h1.13v2.24h-1.13v2.84h-2.46v-2.84h-4.7ZM449.19,124.88h2.48v-5.89l-2.48,5.89Z"/>
    <path class="st4" d="M456.82,129.97v-2.26h2.46v2.26h-2.46Z"/>
    <path class="st4" d="M461.3,126.21v-1.3h2.46v1.45c0,1.04.42,1.55,1.26,1.55.42,0,.74-.13.95-.39.21-.26.32-.72.32-1.38v-1.24c0-.71-.13-1.22-.38-1.53s-.66-.46-1.23-.46h-.83v-2.24h.96c.49,0,.86-.13,1.1-.38.25-.25.37-.68.37-1.27v-.87c0-.67-.11-1.14-.32-1.4-.21-.26-.53-.39-.95-.39-.84,0-1.26.51-1.26,1.54v1.01h-2.46v-.85c0-1.26.33-2.23.99-2.91.66-.68,1.59-1.02,2.79-1.02s2.11.34,2.74,1.02c.62.68.94,1.65.94,2.91v.4c0,1.68-.57,2.75-1.72,3.23,1.14.5,1.72,1.59,1.72,3.29v1.24c0,1.26-.31,2.23-.94,2.91-.62.68-1.54,1.02-2.74,1.02s-2.13-.34-2.79-1.02-.99-1.65-.99-2.91Z"/>
    <path class="st4" d="M474.81,126.55v-8.82c0-1.25.27-2.13.8-2.65.53-.52,1.42-.78,2.66-.78h.75v2.13h-.6c-.41,0-.7.1-.88.29-.18.2-.26.56-.26,1.09v8.65c0,.53.09.89.26,1.09.18.2.47.29.88.29h.6v2.13h-.75c-1.24,0-2.12-.26-2.66-.78-.53-.52-.8-1.4-.8-2.65Z"/>
    <path class="st4" d="M480.73,129.97v-1.92c0-.62.09-1.2.27-1.75.18-.55.41-1.03.7-1.44.29-.41.61-.81.96-1.2.35-.39.7-.78,1.04-1.16.35-.39.67-.78.95-1.19s.52-.88.7-1.42.27-1.11.27-1.72c0-.67-.1-1.14-.32-1.4-.21-.26-.53-.39-.95-.39-.85,0-1.27.51-1.27,1.54v1.68h-2.35v-1.53c0-1.26.32-2.23.95-2.91.63-.68,1.55-1.02,2.74-1.02s2.1.34,2.73,1.02c.62.68.94,1.65.94,2.91,0,.67-.09,1.31-.27,1.93-.18.62-.42,1.16-.7,1.63-.29.47-.6.93-.95,1.36-.34.43-.69.84-1.04,1.21-.35.38-.67.73-.95,1.08s-.52.7-.7,1.06c-.18.36-.27.72-.27,1.06,0,.15,0,.27.02.34h4.64v2.24h-7.12Z"/>
    <path class="st4" d="M490.04,129.97v-2.26h2.46v2.26h-2.46Z"/>
    <path class="st4" d="M494.64,129.97v-1.92c0-.62.09-1.2.27-1.75.18-.55.41-1.03.7-1.44.29-.41.61-.81.96-1.2.35-.39.7-.78,1.04-1.16.35-.39.67-.78.95-1.19s.52-.88.7-1.42.27-1.11.27-1.72c0-.67-.1-1.14-.32-1.4-.21-.26-.53-.39-.95-.39-.85,0-1.27.51-1.27,1.54v1.68h-2.35v-1.53c0-1.26.32-2.23.95-2.91.63-.68,1.55-1.02,2.74-1.02s2.1.34,2.73,1.02c.62.68.94,1.65.94,2.91,0,.67-.09,1.31-.27,1.93-.18.62-.42,1.16-.7,1.63-.29.47-.6.93-.95,1.36-.34.43-.69.84-1.04,1.21-.35.38-.67.73-.95,1.08s-.52.7-.7,1.06c-.18.36-.27.72-.27,1.06,0,.15,0,.27.02.34h4.64v2.24h-7.12Z"/>
    <path class="st4" d="M503.42,129.97v-2.13h.6c.41,0,.7-.1.88-.29.18-.2.27-.56.27-1.09v-8.65c0-.53-.09-.89-.27-1.09-.18-.2-.47-.29-.88-.29h-.6v-2.13h.75c1.24,0,2.12.26,2.66.78.53.52.8,1.41.8,2.65v8.82c0,1.25-.27,2.13-.8,2.65s-1.42.78-2.66.78h-.75Z"/>
  </g>
</svg>