<?xml version="1.0" encoding="utf-8"?>
<!-- Generator: Adobe Illustrator 26.3.1, SVG Export Plug-In . SVG Version: 6.00 Build 0)  -->
<svg version="1.1" id="Слой_1" xmlns="http://www.w3.org/2000/svg" xmlns:xlink="http://www.w3.org/1999/xlink" x="0px" y="0px"
	 viewBox="0 0 40 40" style="enable-background:new 0 0 40 40;" xml:space="preserve">
<style type="text/css">
	.st0{fill:#2E404A;stroke:#2E404A;stroke-width:0.5;stroke-miterlimit:10;}
	.st1{fill:none;stroke:#2E404A;stroke-width:1.5;stroke-miterlimit:10;}
	.st2{fill:none;stroke:#2E404A;stroke-width:2;stroke-miterlimit:10;}
	.st3{fill:none;stroke:#2E404A;stroke-width:1.5;stroke-linecap:round;stroke-miterlimit:10;}
	.st4{fill:#2E404A;stroke:#2E404A;stroke-width:0.75;stroke-miterlimit:10;}
</style>
<path class="st0" d="M33.2,17.2c0.2,0.2,0.4,0.2,0.6,0.4c0.5,0.5,0.9,1,1.4,1.4c0.5,0.5,0.5,0.8,0,1.3c-0.5,0.5-0.9,1-0.8,1.8
	c0,0.4,0.2,0.7,0.3,1.1c0.3,0.9,1,1.3,1.9,1.3c0.1,0,0.3,0,0.4,0c0.5,0,0.7,0.2,0.7,0.8c0,0.8,0,1.5,0,2.3c0,0.5-0.2,0.8-0.8,0.8
	c-0.3,0-0.6,0-0.9,0c-1.1,0.2-1.6,1.3-1.7,2.4c-0.1,0.7,0.3,1.2,0.8,1.7c0.5,0.5,0.5,0.8,0,1.2c-0.5,0.5-0.9,0.9-1.4,1.4
	c-0.5,0.5-0.8,0.5-1.3,0c-0.5-0.5-1-0.9-1.7-0.8c-0.6,0.1-1.2,0.3-1.7,0.8c-0.4,0.3-0.6,0.8-0.6,1.3c0,0.2,0,0.4,0,0.6
	c0,0.5-0.2,0.8-0.7,0.8c-0.6,0-1.2,0-1.7,0c-0.9,0-1.3,0-1.2-1.2c0-0.8-0.3-1.4-1-1.8c-1.1-0.5-1.9-0.9-3.2,0.4c0,0-0.1,0.1-0.1,0.1
	c-0.3,0.2-0.6,0.3-0.9,0c-0.6-0.6-1.2-1.2-1.7-1.8c-0.3-0.3-0.2-0.6,0-0.9c0.1-0.2,0.3-0.3,0.5-0.5c0.4-0.4,0.6-0.9,0.5-1.4
	c-0.1-0.6-0.4-1.2-0.7-1.8c-0.3-0.5-0.8-0.6-1.3-0.7c-0.2,0-0.4,0-0.6,0c-0.5,0-0.7-0.2-0.7-0.7c0-0.6,0-1.2,0-1.8
	c0-1.2,0-1.2,1.2-1.2c0.9,0,1.5-0.4,1.8-1.2c0.1-0.2,0.2-0.4,0.2-0.6c0.3-0.7,0.1-1.4-0.4-2c-0.1-0.2-0.3-0.3-0.5-0.5
	c-0.3-0.3-0.3-0.6,0-1c0.5-0.6,1.1-1.2,1.7-1.7c0.3-0.3,0.6-0.3,0.9,0c0.2,0.2,0.4,0.4,0.5,0.5c1.1,1.1,3.4,0,3.6-1.2
	c0-0.2,0-0.4,0.1-0.6c0-0.2,0-0.3,0-0.5c0-0.4,0.2-0.6,0.6-0.7c0.8,0,1.6,0,2.4,0c0.4,0,0.6,0.2,0.6,0.6c0,0.2,0,0.3,0,0.5
	c0,1.4,1.3,2.6,2.7,2.3c0.6-0.1,1-0.4,1.4-0.8C32.8,17.5,33,17.3,33.2,17.2 M39,24.7c0-0.1-0.1-0.2-0.1-0.3
	c-0.3-0.7-0.8-1.2-1.6-1.2c-0.1,0-0.2,0-0.3,0c-0.9,0-1.2-0.3-1.3-1.2c0-0.2,0.1-0.4,0.2-0.6c0.2-0.2,0.4-0.4,0.6-0.6
	c0.5-0.7,0.6-1.7,0-2.3c-0.6-0.7-1.3-1.5-2.1-2.1c-0.7-0.6-1.6-0.6-2.3,0c-0.2,0.2-0.4,0.4-0.6,0.6c-0.2,0.2-0.5,0.3-0.8,0.2
	c-0.2-0.1-0.4-0.1-0.5-0.2c-0.3-0.1-0.4-0.3-0.4-0.7c0-0.2,0-0.5,0-0.7c-0.1-1-0.8-1.8-1.8-1.8c-0.9,0-1.8,0-2.6,0
	c-1,0-1.7,0.8-1.7,1.8c0,0.1,0,0.2,0,0.3c0,0.9-0.2,1.2-1.1,1.4c-0.2,0-0.4-0.1-0.6-0.2c-0.2-0.2-0.4-0.4-0.6-0.6
	c-0.7-0.6-1.6-0.6-2.3,0c-0.7,0.6-1.4,1.3-2,2c-0.6,0.7-0.6,1.7,0,2.4c0.2,0.2,0.4,0.4,0.6,0.6c0.2,0.2,0.3,0.5,0.2,0.7
	c-0.1,0.1-0.1,0.3-0.2,0.4c-0.1,0.4-0.4,0.6-0.9,0.6c-0.3,0-0.7,0-1,0.1c-0.7,0.2-1.2,0.9-1.3,1.7c0,0.9,0,1.8,0,2.7
	c0,1,0.8,1.7,1.8,1.8c0.1,0,0.2,0,0.3,0c0.9,0,1.2,0.2,1.3,1.1c0,0.2-0.1,0.4-0.2,0.6c-0.2,0.2-0.4,0.4-0.6,0.6
	c-0.5,0.7-0.6,1.6,0,2.3c0.7,0.8,1.4,1.5,2.1,2.2c0.6,0.6,1.6,0.5,2.2,0c0.2-0.2,0.4-0.4,0.6-0.6c0.2-0.2,0.5-0.3,0.8-0.2
	c0.2,0.1,0.3,0.1,0.5,0.2c0.3,0.1,0.4,0.4,0.5,0.7c0,0.2,0,0.4,0,0.6c0,0.9,0.5,1.5,1.3,1.8c0.1,0,0.1,0.1,0.1,0.1h3.2
	c0.1,0,0.1-0.1,0.2-0.1c0.9-0.3,1.3-0.9,1.4-1.9c0-0.2,0-0.4,0-0.6c0.1-0.2,0.2-0.4,0.3-0.5c0.8-0.5,1-0.5,1.7,0.2
	c0,0,0,0.1,0.1,0.1c0.8,0.8,1.9,0.8,2.7,0c0.6-0.6,1.1-1.1,1.7-1.7c0.5-0.5,0.7-1.1,0.5-1.8c-0.1-0.4-0.4-0.8-0.7-1.2
	c-0.5-0.5-0.5-0.6-0.2-1.3c0-0.1,0.1-0.1,0.1-0.2c0.1-0.3,0.4-0.5,0.7-0.5c0.2,0,0.5,0,0.7,0c0.9-0.1,1.5-0.7,1.7-1.5V24.7z"/>
<path class="st0" d="M2.1,20.4c0.1,0.3,0.2,0.5,0.4,0.7c0.4,0.6,1,0.8,1.6,0.8c0.6,0,1.1,0,1.7,0c0.4,0,0.6,0.2,0.7,0.5
	c0.2,0.5,0.4,1,0.6,1.5c0.2,0.4,0.1,0.7-0.2,0.9c-0.4,0.4-0.8,0.8-1.2,1.2c-0.9,0.9-0.9,2,0,2.9c0.8,0.8,1.6,1.7,2.4,2.5
	c0.9,0.9,1.9,0.9,2.8,0c0.6-0.6,1.2-1.2,1.8-1.9c0.3-0.3,0.4-0.7,0.1-1c-0.3-0.3-0.6-0.2-1,0.1c-0.6,0.6-1.2,1.2-1.8,1.8
	C9.7,31,9.4,31,9,30.5c-0.8-0.8-1.5-1.6-2.3-2.4c-0.4-0.4-0.4-0.7,0-1.2c0.4-0.4,0.8-0.8,1.2-1.2c0.6-0.7,0.8-1.4,0.4-2.3
	C8,23,7.8,22.5,7.6,22c-0.3-0.8-0.9-1.3-1.8-1.3c-0.6,0-1.2,0-1.7,0c-0.6,0-0.8-0.2-0.8-0.8c0-1.1,0-2.3,0-3.4
	c0-0.6,0.2-0.8,0.8-0.8c0.6,0,1.1,0,1.7,0c0.9,0,1.5-0.4,1.8-1.2c0.2-0.5,0.4-1.1,0.6-1.6c0.3-0.8,0.2-1.5-0.4-2.2
	C7.4,10.2,7,9.8,6.6,9.4c-0.4-0.4-0.4-0.7,0-1.1C7.4,7.4,8.2,6.6,9,5.8c0.4-0.4,0.7-0.4,1.1,0c0.4,0.4,0.8,0.8,1.2,1.2
	c0.6,0.7,1.4,0.8,2.2,0.4C14,7.2,14.5,7,15,6.8c0.8-0.3,1.2-1,1.3-1.9c0-0.6,0-1.2,0-1.7c0-0.6,0.2-0.8,0.8-0.8c1.1,0,2.3,0,3.4,0
	c0.5,0,0.8,0.2,0.8,0.8c0,0.6,0,1.1,0,1.7c0,1,0.4,1.6,1.3,1.9c0.5,0.2,1,0.4,1.5,0.6c0.8,0.3,1.5,0.2,2.1-0.4
	c0.4-0.4,0.8-0.9,1.3-1.3c0.4-0.4,0.7-0.4,1.1,0c0.8,0.8,1.6,1.6,2.4,2.5c0.4,0.4,0.4,0.7,0,1.1c-0.6,0.6-1.2,1.2-1.7,1.8
	c-0.1,0.1-0.2,0.2-0.3,0.3c-0.2,0.3-0.1,0.5,0.1,0.7c0.2,0.2,0.5,0.3,0.7,0.1c0.1-0.1,0.2-0.1,0.3-0.2c0.6-0.6,1.2-1.2,1.8-1.9
	c0.8-0.9,0.8-2,0-2.9c-0.8-0.8-1.6-1.7-2.4-2.5c-0.9-0.9-1.9-0.9-2.8,0C26,5.3,25.7,5.7,25.3,6c-0.4,0.4-0.5,0.4-1,0.2
	c-0.5-0.2-0.9-0.4-1.4-0.6c-0.4-0.1-0.5-0.4-0.5-0.8c0-0.6,0-1.1,0-1.7c0-1-0.4-1.6-1.4-2c0,0-0.1,0-0.1-0.1h-4.4
	c-1.1,0.4-1.6,1.2-1.5,2.4c0,0.5,0,0.9,0,1.4c0,0.4-0.2,0.6-0.5,0.7C14,5.8,13.5,6,13,6.3c-0.3,0.2-0.6,0.1-0.9-0.2
	c-0.4-0.4-0.8-0.8-1.2-1.2C10.1,4,9,4,8.2,4.9C7.3,5.7,6.5,6.5,5.7,7.4c-0.8,0.9-0.8,2,0,2.9c0.4,0.4,0.8,0.8,1.2,1.2
	c0.3,0.3,0.3,0.5,0.2,0.9c-0.2,0.5-0.4,1-0.6,1.5c-0.1,0.3-0.4,0.5-0.7,0.5c-0.6,0-1.2,0-1.7,0c-0.7,0-1.2,0.2-1.6,0.8
	c-0.1,0.2-0.2,0.5-0.3,0.7V20.4z"/>
<path class="st0" d="M10.7,17.9c0,2.4,0.8,4.3,2.3,5.9c0.3,0.3,0.7,0.4,0.9,0.1c0.3-0.3,0.3-0.6,0-1c-1-1-1.6-2.2-1.8-3.7
	c-0.5-3,0.9-5.9,3.5-7.4c2.5-1.4,5.7-1,7.7,1c0.1,0.1,0.2,0.2,0.3,0.2c0.3,0.2,0.7,0.2,0.9-0.1c0.2-0.3,0.2-0.6-0.1-0.9
	c-0.4-0.4-0.8-0.7-1.2-1c-4.8-3.2-11.2-0.4-12.2,5.4C10.7,17.2,10.7,17.7,10.7,17.9"/>
<path class="st0" d="M22.4,26.4c0-2.5,1.9-4.4,4.3-4.4c2.4,0,4.3,2,4.3,4.5c0,2.4-2,4.4-4.4,4.4C24.3,30.8,22.4,28.8,22.4,26.4
	 M26.7,20.7c-3.1,0-5.6,2.6-5.5,5.7c0.1,3.6,2.6,5.6,5.5,5.6c3.1,0,5.6-2.6,5.5-5.8C32.2,23.2,29.6,20.7,26.7,20.7"/>
<g>
	<path class="st1" d="M76.4,31.5c0,2.8,2.2,5.2,5,5.2c2.8,0,5-2.3,5-5.1c0-2.8-2.2-5.1-4.9-5.1C78.7,26.4,76.4,28.7,76.4,31.5z"/>
	<path class="st2" d="M65,17.2c0,3.4,2.6,6.1,6,6.1c3.3,0,6-2.7,6-6.1c0-3.4-2.7-6.2-5.9-6.2C67.7,11.1,65,13.8,65,17.2z"/>
	<polyline class="st3" points="79,31.4 80.6,33 83.8,29.9 	"/>
	<path class="st4" d="M86.2,14.4C85,7.1,78.9,1.6,71.7,1.3C66,1.1,61.5,3.4,58.2,8.2c-2.2,3.2-3,6.7-2.6,10.6
		c0.3,2.4,1.1,4.8,2.7,7.5c2.6,4.3,6.1,8.1,11.1,12.1c0.7,0.6,1.1,0.8,1.6,0.8c0.4,0,0.9-0.3,1.6-0.8c0.8-0.7,1.7-1.4,2.5-2.1
		l1.1-0.9l0,0c0.4-0.4,0.7-0.7,1.1-1.1l-0.6-0.9c-0.4,0.4-0.8,0.8-1.2,1.2l-1.1,0.9c-0.8,0.7-1.6,1.4-2.5,2.1
		c-0.9,0.7-0.9,0.7-1.8,0c-4.9-3.9-8.3-7.7-10.8-11.8c-1.5-2.5-2.3-4.8-2.6-7c-0.4-3.6,0.4-7,2.4-9.9c2.9-4.3,7-6.4,12-6.4
		c0.2,0,0.4,0,0.7,0C78.3,2.6,84,7.7,85.2,14.6c0.5,3.2,0,6.2-1.5,9.4l-0.2,0.4c-0.4,0.6-0.8,1.3-1.2,1.9l1,0.5
		c0.4-0.6,0.8-1.3,1.2-1.9l0.2-0.5C86.3,21.1,86.8,17.8,86.2,14.4"/>
</g>
</svg>
