<svg width="48" height="46" fill="none" xmlns="http://www.w3.org/2000/svg"><path d="M24.01 45.311c12.945 0 23.438-10.054 23.438-22.456S36.955.4 24.01.4C11.066.399.573 10.453.573 22.855s10.493 22.456 23.438 22.456z" fill="url(#paint0_linear)"/><path d="M35.937 12.539l-4.473 21.886s-.626 1.518-2.346.789l-10.323-7.68-3.753-1.76-6.32-2.064s-.97-.334-1.063-1.063c-.094-.728 1.094-1.122 1.094-1.122l25.12-9.562c0-.001 2.064-.882 2.064.576z" fill="#fff"/><path d="M18 34.174s-.3-.027-.677-1.18c-.375-1.154-2.283-7.225-2.283-7.225l15.172-9.35s.875-.516.845 0c0 0 .155.091-.313.517-.469.425-11.92 10.412-11.92 10.412" fill="#E5E5E5"/><path d="M22.752 30.476l-4.083 3.612s-.318.235-.668.088l.782-6.71" fill="#9A9293"/><defs><linearGradient id="paint0_linear" x1="24.011" y1=".399" x2="24.011" y2="45.147" gradientUnits="userSpaceOnUse"><stop stop-color="#56A4ED"/><stop offset="1" stop-color="#0087C4"/></linearGradient></defs></svg>