<svg xmlns="http://www.w3.org/2000/svg" xmlns:xlink="http://www.w3.org/1999/xlink" xml:space="preserve" id="Слой_1" x="0" y="0" style="enable-background:new 0 0 248 443" version="1.1" viewBox="0 0 248 443"><style>.st0{fill:#f6ccce}.st1{fill:#39373a}.st15,.st24,.st3{fill:none;stroke:#39373a}.st15,.st24{stroke-width:.6}.st24{clip-path:url(#SVGID_38_)}.st25,.st26{clip-path:url(#SVGID_40_);fill:#39373a}.st26{fill:none;stroke:#39373a;stroke-width:.25}.st27{fill:#39373a}.st27,.st28{clip-path:url(#SVGID_42_)}.st28,.st29{fill:none;stroke:#39373a;stroke-width:.25}.st30,.st31{clip-path:url(#SVGID_44_)}.st30{fill:#39373a}.st31{stroke:#39373a;stroke-width:.25}.st31,.st37{fill:none}</style><switch><g><path d="M25.69 78.15h100.52v335.11H25.69z" class="st0"/><path d="M62.07 78.15h160.91v177.18H62.07z" class="st0"/><path d="M23.3 65.91v11.74h23.13v-9.4h2.95V65.9z" class="st1"/><defs><path id="SVGID_1_" d="M22.8 17.78h205.95V426H22.8z"/></defs><clipPath id="SVGID_2_"><use xlink:href="#SVGID_1_" style="overflow:visible"/></clipPath><path d="m23.3 65.91 26.08-.01v2.34h-2.95v9.41H23.3z" style="clip-path:url(#SVGID_2_);fill:none;stroke:#39373a"/><path d="m125.25 65.91-26.08-.01v2.34h2.95v9.41h23.13z" class="st1"/><path d="m125.25 65.91-26.08-.01v2.34h2.95v9.41h23.13z" class="st3"/><path d="m124.5 65.91 26.08-.01v2.34h-2.95v9.41H124.5z" class="st1"/><path d="m124.5 65.91 26.08-.01v2.34h-2.95v9.41H124.5z" class="st3"/><path d="m225.37 65.91-26.08-.01v2.34h2.95v9.41h23.13z" class="st1"/><path d="m225.37 65.91-26.08-.01v2.34h2.95v9.41h23.13z" class="st3"/><path d="M124.07 255.82h104.18v4.77H124.07z" class="st1"/><defs><path id="SVGID_3_" d="M22.8 17.78h205.95V426H22.8z"/></defs><clipPath id="SVGID_4_"><use xlink:href="#SVGID_3_" style="overflow:visible"/></clipPath><path d="M124.07 255.82h104.18v4.77H124.07z" style="clip-path:url(#SVGID_4_);fill:none;stroke:#39373a"/><path d="M123.36 237.68h4.77V425.5h-4.77z" class="st1"/><defs><path id="SVGID_5_" d="M22.8 17.78h205.95V426H22.8z"/></defs><clipPath id="SVGID_6_"><use xlink:href="#SVGID_5_" style="overflow:visible"/></clipPath><path d="M123.36 237.68h4.77V425.5h-4.77z" style="clip-path:url(#SVGID_6_);fill:none;stroke:#39373a"/><path d="M223.48 249.45h4.77v11.15h-4.77z" class="st1"/><defs><path id="SVGID_7_" d="M22.8 17.78h205.95V426H22.8z"/></defs><clipPath id="SVGID_8_"><use xlink:href="#SVGID_7_" style="overflow:visible"/></clipPath><path d="M223.48 249.45h4.77v11.15h-4.77z" style="clip-path:url(#SVGID_8_);fill:none;stroke:#39373a"/><path d="M23.3 32.74h4.77V425.5H23.3z" class="st1"/><defs><path id="SVGID_9_" d="M22.8 17.78h205.95V426H22.8z"/></defs><clipPath id="SVGID_10_"><use xlink:href="#SVGID_9_" style="overflow:visible"/></clipPath><path d="M23.3 32.74h4.77V425.5H23.3z" style="clip-path:url(#SVGID_10_);fill:none;stroke:#39373a"/><path d="M123.36 18.28h4.77v27.63h-4.77z" class="st1"/><defs><path id="SVGID_11_" d="M22.8 17.78h205.95V426H22.8z"/></defs><clipPath id="SVGID_12_"><use xlink:href="#SVGID_11_" style="overflow:visible"/></clipPath><path d="M123.36 18.28h4.77v27.63h-4.77z" style="clip-path:url(#SVGID_12_);fill:none;stroke:#39373a"/><path d="M123.36 65.9h4.77v142.15h-4.77z" class="st1"/><path d="M123.36 65.9h4.77v142.15h-4.77z" class="st3"/><path d="M223.48 18.28h4.77v201.68h-4.77z" class="st1"/><defs><path id="SVGID_13_" d="M22.8 17.78h205.95V426H22.8z"/></defs><clipPath id="SVGID_14_"><use xlink:href="#SVGID_13_" style="overflow:visible"/></clipPath><path d="M223.48 18.28h4.77v201.68h-4.77z" style="clip-path:url(#SVGID_14_);fill:none;stroke:#39373a"/><path d="M211.52 18.28h13.84v52.99h-13.84z" class="st1"/><defs><path id="SVGID_15_" d="M22.8 17.78h205.95V426H22.8z"/></defs><clipPath id="SVGID_16_"><use xlink:href="#SVGID_15_" style="overflow:visible"/></clipPath><path d="M211.52 18.28h13.84v52.99h-13.84z" style="clip-path:url(#SVGID_16_);fill:none;stroke:#39373a"/><path d="M153.98 192.33h74.27v4.77h-74.27z" class="st1"/><defs><path id="SVGID_17_" d="M22.8 17.78h205.95V426H22.8z"/></defs><clipPath id="SVGID_18_"><use xlink:href="#SVGID_17_" style="overflow:visible"/></clipPath><path d="M153.98 192.33h74.27v4.77h-74.27z" style="clip-path:url(#SVGID_18_);fill:none;stroke:#39373a"/><path d="M26.19 174.19h70.38v4.77H26.19z" class="st1"/><path d="M26.19 174.19h70.38v4.77H26.19z" class="st3"/><path d="M26.19 255.82h70.38v4.77H26.19z" class="st1"/><path d="M26.19 255.82h70.38v4.77H26.19z" class="st3"/><path d="M24.44 227.85h65.05v2.54H24.44z" class="st1"/><defs><path id="SVGID_19_" d="M22.8 17.78h205.95V426H22.8z"/></defs><clipPath id="SVGID_20_"><use xlink:href="#SVGID_19_" style="overflow:visible"/></clipPath><path d="M24.44 227.85h65.05v2.54H24.44z" style="clip-path:url(#SVGID_20_);fill:none;stroke:#39373a"/><path d="M86.94 175.31h2.54v20.01h-2.54z" class="st1"/><path d="M86.94 175.31h2.54v20.01h-2.54z" class="st3"/><path d="M86.94 213.59h2.54v24.82h-2.54z" class="st1"/><path d="M86.94 213.59h2.54v24.82h-2.54z" class="st3"/><path d="M23.3 413.75v11.74l24.73.01v-2.35h-2.95v-9.4z" class="st1"/><defs><path id="SVGID_21_" d="M22.8 17.78h205.95V426H22.8z"/></defs><clipPath id="SVGID_22_"><use xlink:href="#SVGID_21_" style="overflow:visible"/></clipPath><path d="m23.3 425.49 24.73.01v-2.35h-2.95v-9.4H23.3z" style="clip-path:url(#SVGID_22_);fill:none;stroke:#39373a"/><path d="M105.34 413.75v9.4h-2.95v2.35l23.82-.01v-11.74z" class="st1"/><defs><path id="SVGID_23_" d="M22.8 17.78h205.95V426H22.8z"/></defs><clipPath id="SVGID_24_"><use xlink:href="#SVGID_23_" style="overflow:visible"/></clipPath><path d="m126.21 425.49-23.82.01v-2.35h2.95v-9.4h20.87z" style="clip-path:url(#SVGID_24_);fill:none;stroke:#39373a"/><path d="m25.953 34.694 99.43-14.418.394 2.711-99.43 14.419zM126.42 20.23h87v2.74h-87zM84.928 78.98l17.085-10.164.475.799L85.403 79.78zM48.31 65.7h35.77v2.74H48.31z" class="st15"/><path d="M45.78 68.42h35.77v9.42H45.78z" class="st15"/><defs><path id="SVGID_25_" d="M22.8 17.78h205.95V426H22.8z"/></defs><clipPath id="SVGID_26_"><use xlink:href="#SVGID_25_" style="overflow:visible"/></clipPath><path d="M84.82 78.87s-1.11-1.5-1.64-4.99c-.54-3.49-.37-5.36-.37-5.36" style="clip-path:url(#SVGID_26_);fill:none;stroke:#39373a;stroke-width:.4"/><path d="M37.95 422.95h74.04v2.74H37.95z" style="clip-path:url(#SVGID_26_);fill:none;stroke:#39373a;stroke-width:.6"/><path d="M39.01 413.55h71.93v9.42H39.01zm60.65-250.58.65-1.11 23.66 14.15-.66 1.12z" class="st15"/><defs><path id="SVGID_27_" d="M22.8 17.78h205.95V426H22.8z"/></defs><clipPath id="SVGID_28_"><use xlink:href="#SVGID_27_" style="overflow:visible"/></clipPath><path d="M99.51 163.08s-1.36 2.19-2.13 6.96c-.77 4.77-.53 7.34-.53 7.34" style="clip-path:url(#SVGID_28_);fill:none;stroke:#39373a;stroke-width:.4"/><path d="m99.66 271.86.65 1.11 23.66-14.15-.66-1.12z" class="st15"/><defs><path id="SVGID_29_" d="M22.8 17.78h205.95V426H22.8z"/></defs><clipPath id="SVGID_30_"><use xlink:href="#SVGID_29_" style="overflow:visible"/></clipPath><path d="M99.51 271.74s-1.36-2.19-2.13-6.96c-.77-4.77-.53-7.34-.53-7.34" style="clip-path:url(#SVGID_30_);fill:none;stroke:#39373a;stroke-width:.4"/><path d="m211.35 223.27-1.26.75 15.99 26.77 1.25-.74z" class="st15"/><defs><path id="SVGID_31_" d="M22.8 17.78h205.95V426H22.8z"/></defs><clipPath id="SVGID_32_"><use xlink:href="#SVGID_31_" style="overflow:visible"/></clipPath><path d="M211.5 223.18s2.46-1.56 7.82-2.44c5.37-.88 8.25-.6 8.25-.6" style="clip-path:url(#SVGID_32_);fill:none;stroke:#39373a;stroke-width:.4"/><path d="m97.64 240.78.78.46-9.89 16.67-.78-.46z" class="st15"/><defs><path id="SVGID_33_" d="M22.8 17.78h205.95V426H22.8z"/></defs><clipPath id="SVGID_34_"><use xlink:href="#SVGID_33_" style="overflow:visible"/></clipPath><path d="M97.65 240.66s-1.54-.95-4.93-1.55c-3.39-.59-5.22-.47-5.22-.47" style="clip-path:url(#SVGID_34_);fill:none;stroke:#39373a;stroke-width:.4"/><path d="m97.64 197.67.78.47-9.89 16.66-.78-.46z" class="st15"/><defs><path id="SVGID_35_" d="M22.8 17.78h205.95V426H22.8z"/></defs><clipPath id="SVGID_36_"><use xlink:href="#SVGID_35_" style="overflow:visible"/></clipPath><path d="M97.65 197.55s-1.54-.95-4.93-1.55c-3.39-.59-5.22-.47-5.22-.47" style="clip-path:url(#SVGID_36_);fill:none;stroke:#39373a;stroke-width:.4"/><path d="m150.93 181.26-.66-1.12-23.65 14.16.66 1.11z" class="st15"/><defs><path id="SVGID_37_" d="M22.8 17.78h205.95V426H22.8z"/></defs><clipPath id="SVGID_38_"><use xlink:href="#SVGID_37_" style="overflow:visible"/></clipPath><path d="M151.08 181.37s1.36 2.19 2.13 6.96c.77 4.77.53 7.34.53 7.34" style="clip-path:url(#SVGID_38_);fill:none;stroke:#39373a;stroke-width:.4"/><path d="M34.54 180.8s-5.67 0-5.67 5.67v33.86s0 5.67 5.67 5.67h7.6s5.67 0 5.67-5.67v-33.86s0-5.67-5.67-5.67h-7.6z" class="st24"/><path d="M36.32 183.95s-5.67 0-5.67 5.67v27.57s0 5.67 5.67 5.67h4.06s5.67 0 5.67-5.67v-27.57s0-5.67-5.67-5.67h-4.06z" class="st24"/><path d="M35.18 187.74s-2.83 0-2.83 2.84v27.71s0 2.83 2.83 2.83h6.32s2.83 0 2.83-2.83v-27.71s0-2.84-2.83-2.84h-6.32z" class="st24"/><path d="M38.34 217.74c.46 0 .84-.38.84-.84 0-.46-.38-.84-.84-.84-.47 0-.84.38-.84.84 0 .46.38.84.84.84z" class="st24"/><path d="M48.88 179.14v48.76" class="st15"/><defs><path id="SVGID_39_" d="M22.8 17.78h205.95V426H22.8z"/></defs><clipPath id="SVGID_40_"><use xlink:href="#SVGID_39_" style="overflow:visible"/></clipPath><path d="M55.5 215.04c-2.99 0-5.42 2.43-5.42 5.42v5.75c0 .45.37.82.82.82h12.26c.45 0 .82-.37.82-.82v-5.75c0-2.99-2.43-5.42-5.42-5.42H55.5zm7.66 12.31H50.9c-.62 0-1.13-.51-1.13-1.13v-5.75c0-3.16 2.57-5.73 5.73-5.73h3.06c3.16 0 5.73 2.57 5.73 5.73v5.75c0 .62-.51 1.13-1.13 1.13" class="st25"/><path d="M55.5 215.04c-2.99 0-5.42 2.43-5.42 5.42v5.75c0 .45.37.82.82.82h12.26c.45 0 .82-.37.82-.82v-5.75c0-2.99-2.43-5.42-5.42-5.42H55.5zm7.66 12.31H50.9c-.62 0-1.13-.51-1.13-1.13v-5.75c0-3.16 2.57-5.73 5.73-5.73h3.06c3.16 0 5.73 2.57 5.73 5.73v5.75c0 .62-.51 1.13-1.13 1.13z" class="st26"/><path d="M55.5 216.4c-2.24 0-4.06 1.82-4.06 4.06v3.35c0 .39.32.71.71.71h9.77c.39 0 .71-.32.71-.71v-3.35c0-2.24-1.82-4.06-4.06-4.06H55.5zm6.42 8.43h-9.77c-.56 0-1.01-.45-1.01-1.01v-3.35c0-2.41 1.96-4.37 4.37-4.37h3.06c2.41 0 4.37 1.96 4.37 4.37v3.35c-.01.56-.47 1.01-1.02 1.01" class="st25"/><path d="M55.5 216.4c-2.24 0-4.06 1.82-4.06 4.06v3.35c0 .39.32.71.71.71h9.77c.39 0 .71-.32.71-.71v-3.35c0-2.24-1.82-4.06-4.06-4.06H55.5zm6.42 8.43h-9.77c-.56 0-1.01-.45-1.01-1.01v-3.35c0-2.41 1.96-4.37 4.37-4.37h3.06c2.41 0 4.37 1.96 4.37 4.37v3.35c-.01.56-.47 1.01-1.02 1.01z" class="st26"/><path d="M57.03 219.25a.67.67 0 1 0 0 1.34.67.67 0 0 0 0-1.34m0 1.65c-.54 0-.98-.44-.98-.98s.44-.98.98-.98.98.44.98.98-.44.98-.98.98" class="st25"/><path d="M57.03 219.25a.67.67 0 1 0 0 1.34.67.67 0 0 0 0-1.34zm0 1.65c-.54 0-.98-.44-.98-.98s.44-.98.98-.98.98.44.98.98-.44.98-.98.98z" class="st26"/><path d="M49.95 179.46h18.46v18.46H49.95z" class="st15"/><defs><path id="SVGID_41_" d="M22.8 17.78h205.95V426H22.8z"/></defs><clipPath id="SVGID_42_"><use xlink:href="#SVGID_41_" style="overflow:visible"/></clipPath><path d="M56.48 243.13c0-2.82-2.29-5.11-5.12-5.11h-7.41c-.49 0-.88.4-.88.88v8.46c0 .49.4.88.88.88h7.41c2.83.01 5.12-2.29 5.12-5.11m-13.76 4.24v-8.46c0-.68.55-1.23 1.23-1.23h7.41c3.01 0 5.47 2.45 5.47 5.47 0 3.01-2.45 5.47-5.47 5.47h-7.41c-.67-.02-1.23-.57-1.23-1.25" class="st27"/><path d="M56.48 243.13c0-2.82-2.29-5.11-5.12-5.11h-7.41c-.49 0-.88.4-.88.88v8.46c0 .49.4.88.88.88h7.41c2.83.01 5.12-2.29 5.12-5.11zm-13.76 4.24v-8.46c0-.68.55-1.23 1.23-1.23h7.41c3.01 0 5.47 2.45 5.47 5.47 0 3.01-2.45 5.47-5.47 5.47h-7.41c-.67-.02-1.23-.57-1.23-1.25z" class="st28"/><path d="M45.55 239.47v7.33c0 .05.04.09.09.09h5.58c2.06 0 3.76-1.69 3.76-3.76 0-2.06-1.69-3.76-3.76-3.76h-5.58c-.05.01-.09.05-.09.1z" class="st28"/><path d="M45.72 239.55v7.16h5.5a3.59 3.59 0 0 0 3.58-3.58 3.59 3.59 0 0 0-3.58-3.58h-5.5zm-.35 7.25v-7.33c0-.14.12-.26.26-.26h5.58a3.93 3.93 0 0 1 0 7.86h-5.58c-.14 0-.26-.13-.26-.27" class="st27"/><path d="M45.72 239.55v7.16h5.5a3.59 3.59 0 0 0 3.58-3.58 3.59 3.59 0 0 0-3.58-3.58h-5.5zm-.35 7.25v-7.33c0-.14.12-.26.26-.26h5.58a3.93 3.93 0 0 1 0 7.86h-5.58c-.14 0-.26-.13-.26-.27z" class="st28"/><path d="M51.23 243.13a.97.97 0 0 0-1.94 0 .97.97 0 0 0 1.94 0m-2.29 0c0-.73.59-1.32 1.32-1.32.73 0 1.32.59 1.32 1.32 0 .73-.59 1.32-1.32 1.32-.73 0-1.32-.59-1.32-1.32" class="st27"/><path d="M51.23 243.13a.97.97 0 0 0-1.94 0 .97.97 0 0 0 1.94 0zm-2.29 0c0-.73.59-1.32 1.32-1.32.73 0 1.32.59 1.32 1.32 0 .73-.59 1.32-1.32 1.32-.73 0-1.32-.59-1.32-1.32z" class="st28"/><path d="m46.254 240.279.21-.28 2.346 1.753-.209.28z" class="st1"/><path d="m46.254 240.279.21-.28 2.346 1.753-.209.28z" class="st29"/><path d="m46.26 245.93 2.34-1.75.22.28-2.35 1.76z" class="st1"/><path d="m46.26 245.93 2.34-1.75.22.28-2.35 1.76z" class="st29"/><defs><path id="SVGID_43_" d="M22.8 17.78h205.95V426H22.8z"/></defs><clipPath id="SVGID_44_"><use xlink:href="#SVGID_43_" style="overflow:visible"/></clipPath><path d="M42.71 239.6c0-.78-.64-1.42-1.42-1.42h-1.93c-.78 0-1.42.64-1.42 1.42v7.06c0 .78.64 1.42 1.42 1.42h1.93c.78 0 1.42-.64 1.42-1.42v-7.06zm-5.12 7.06v-7.06c0-.97.79-1.77 1.77-1.77h1.93c.97 0 1.77.79 1.77 1.77v7.06c0 .98-.79 1.77-1.77 1.77h-1.93c-.97 0-1.77-.79-1.77-1.77" class="st30"/><path d="M42.71 239.6c0-.78-.64-1.42-1.42-1.42h-1.93c-.78 0-1.42.64-1.42 1.42v7.06c0 .78.64 1.42 1.42 1.42h1.93c.78 0 1.42-.64 1.42-1.42v-7.06zm-5.12 7.06v-7.06c0-.97.79-1.77 1.77-1.77h1.93c.97 0 1.77.79 1.77 1.77v7.06c0 .98-.79 1.77-1.77 1.77h-1.93c-.97 0-1.77-.79-1.77-1.77z" class="st31"/><path d="M40.87 243.13c0-.3-.25-.55-.55-.55-.3 0-.55.25-.55.55 0 .3.25.55.55.55.31 0 .55-.24.55-.55m-1.44 0c0-.5.4-.9.9-.9s.9.4.9.9-.4.9-.9.9-.9-.4-.9-.9" class="st30"/><path d="M40.87 243.13c0-.3-.25-.55-.55-.55-.3 0-.55.25-.55.55 0 .3.25.55.55.55.31 0 .55-.24.55-.55zm-1.44 0c0-.5.4-.9.9-.9s.9.4.9.9-.4.9-.9.9-.9-.4-.9-.9z" class="st31"/><path d="M36.24 230.89v24.43m-7.36-22.96h6.34v15.93h-6.34zm0 17.71h6.34v4.08h-6.34zm7.36 11.03v24.43m-7.36-22.96h6.34v15.93h-6.34zm0 17.71h6.34v4.08h-6.34zm7.66 5.09h-7.97" class="st15"/><path d="M52.71 260.98H36.47v16.24h16.25v-16.24zm-16.6-.36h16.96v16.96H36.11v-16.96z" class="st1"/><path d="M52.71 260.98H36.47v16.24h16.25v-16.24zm-16.6-.36h16.96v16.96H36.11v-16.96z" class="st29"/><defs><path id="SVGID_45_" d="M22.8 17.78h205.95V426H22.8z"/></defs><clipPath id="SVGID_46_"><use xlink:href="#SVGID_45_" style="overflow:visible"/></clipPath><path d="M50.28 275.75c.4 0 .73-.33.73-.73v-8.54c0-.4-.33-.73-.73-.73H38.9c-.4 0-.73.33-.73.73v8.54c0 .4.33.73.73.73h11.38zM38.9 265.39h11.38c.6 0 1.09.49 1.09 1.09v8.54c0 .6-.49 1.09-1.09 1.09H38.9c-.6 0-1.09-.49-1.09-1.09v-8.54c0-.6.49-1.09 1.09-1.09" style="clip-path:url(#SVGID_46_);fill:#39373a"/><path d="M50.28 275.75c.4 0 .73-.33.73-.73v-8.54c0-.4-.33-.73-.73-.73H38.9c-.4 0-.73.33-.73.73v8.54c0 .4.33.73.73.73h11.38zM38.9 265.39h11.38c.6 0 1.09.49 1.09 1.09v8.54c0 .6-.49 1.09-1.09 1.09H38.9c-.6 0-1.09-.49-1.09-1.09v-8.54c0-.6.49-1.09 1.09-1.09z" style="clip-path:url(#SVGID_46_);fill:none;stroke:#39373a;stroke-width:.25"/><path d="M49.74 267.02h-10.3v7.47h10.31v-7.47zm-10.66-.36H50.1v8.19H39.08v-8.19z" class="st1"/><path d="M49.74 267.02h-10.3v7.47h10.31v-7.47zm-10.66-.36H50.1v8.19H39.08v-8.19z" class="st29"/><defs><path id="SVGID_47_" d="M22.8 17.78h205.95V426H22.8z"/></defs><clipPath id="SVGID_48_"><use xlink:href="#SVGID_47_" style="overflow:visible"/></clipPath><path d="M44.59 272.2a.939.939 0 1 0 0-1.88.939.939 0 1 0 0 1.88m0-2.25c.72 0 1.3.58 1.3 1.3 0 .72-.58 1.3-1.3 1.3s-1.3-.58-1.3-1.3c0-.71.58-1.3 1.3-1.3" style="clip-path:url(#SVGID_48_);fill:#39373a"/><path d="M44.59 272.2a.939.939 0 1 0 0-1.88.939.939 0 1 0 0 1.88zm0-2.25c.72 0 1.3.58 1.3 1.3 0 .72-.58 1.3-1.3 1.3s-1.3-.58-1.3-1.3c0-.71.58-1.3 1.3-1.3z" style="clip-path:url(#SVGID_48_);fill:none;stroke:#39373a;stroke-width:.25"/><path d="M27.62 310.6h98.13" style="fill:none;stroke:#39373a;stroke-dasharray:3.925,3.925"/><path d="M187 159.41c1.21-.02 2.88-.05 4.57-.05 1.67 0 2.14.21 2.14 1.55.02 1.12-.14 1.79-1.93 1.79h-3.14v2.85l3.14-.02c1.76-.02 2.14.52 2.14 1.93 0 1.67-.62 1.97-2.71 1.97-1.43 0-2.47-.02-4.54-.14l-.14 3.21c1.86.26 3.93.45 5.9.45 4.35 0 5.95-1.43 5.9-4.9-.02-2.5-.74-3.76-3.05-4.11v-.1c2.12-.33 2.62-1.78 2.62-4.14 0-2.93-1.52-3.83-5.54-3.83-1.81 0-3.64.14-5.5.45l.14 3.09zm-4.8 9.16c-1.14 0-1.5.36-1.5 1.5v1.05c0 1.14.36 1.5 1.5 1.5h1.02c1.14 0 1.5-.36 1.5-1.5v-1.05c0-1.14-.36-1.5-1.5-1.5h-1.02zm-3.95-9.09.17-3.28h-10.28l-.43 7.38c-.05.76.5 1.38 1.29 1.47l2.54.31c2.21.19 3.02.5 2.95 2.05-.1 1.33-.57 1.86-2.74 1.86-1.17 0-2.69-.07-4.26-.19l-.41 3.35c2.09.31 4.19.48 5.83.48 4.66 0 5.97-2.4 5.97-5.35.02-2.64-.98-5-4.81-5.42l-2.74-.36.17-2.28h6.75zm-18.73 10.18c-1.9 0-2.09-.6-2.12-4.24.79-.45 1.31-.62 2.09-.62 1.57 0 1.93.4 1.93 2.16.01 1.97-.09 2.7-1.9 2.7m5-13.27c-1.69-.48-3.38-.48-4.24-.48-4.76 0-7.16 1.17-7.16 8.66 0 6.66 1.48 8.33 6.38 8.33 5.02 0 6.11-1.93 6.11-6.02 0-3.62-1.07-5.09-4.81-5.09-1.45 0-2.45.24-3.35.95.12-3.07.71-3.62 2.83-3.62 1.9 0 2.69 0 4.04.02l.2-2.75zm-51.69-32.7c0-.24.12-.4.44-.41h1.08v.65c-.34.22-.71.35-1.01.35-.34 0-.51-.15-.51-.42v-.17zm-1.41-2.04c.86-.05 1.7-.07 2.22-.07.54 0 .71.16.72.6v.12h-1.72c-1.03 0-1.65.5-1.65 1.32v.52c0 .97.78 1.48 1.74 1.48.9 0 1.49-.46 1.84-.89l.18.76h1.51v-3.3c0-1.54-.77-2.02-2.16-2.02-.76 0-2.06.11-2.83.26l.15 1.22zm-.85.09v-1.42h-5.16v1.42h1.64v3.75h1.88v-3.75h1.64zm-9.24 1.95c0-.24.12-.4.44-.41h1.08v.65c-.34.22-.71.35-1.01.35-.34 0-.51-.15-.51-.42v-.17zm-1.41-2.04c.86-.05 1.7-.07 2.22-.07.54 0 .71.16.72.6v.12h-1.72c-1.03 0-1.65.5-1.65 1.32v.52c0 .97.78 1.48 1.74 1.48.9 0 1.49-.46 1.84-.89l.18.76h1.51v-3.3c0-1.54-.77-2.02-2.16-2.02-.76 0-2.06.11-2.83.26l.15 1.22zm-1.31-1.34h-1.85v1.82h-1.58v-1.82h-1.86v5.17h1.86v-2.09h1.58v2.09h1.85v-5.17zm-8.74 0c-.4 0-.65.2-.71.58l-.45 1.93c-.05.26-.06.51-.1.77h-.08c-.03-.26-.04-.51-.1-.77l-.46-1.93c-.06-.39-.31-.58-.7-.58h-1.6c-.43 0-.64.22-.65.64l-.12 4.53h1.71l.1-3.8h.12l.61 2.51c.07.38.32.57.72.57h.85c.41 0 .64-.19.71-.57l.61-2.51h.12l.14 3.8h1.7l-.13-4.53c-.01-.43-.22-.64-.65-.64h-1.64zm-8.61 1.19c.64 0 .8.26.8 1.41 0 1.13-.17 1.38-.8 1.38-.65 0-.81-.25-.81-1.38 0-1.15.17-1.41.81-1.41m0-1.33c-2.04 0-2.79.74-2.79 2.74 0 1.99.75 2.71 2.79 2.71 2.03 0 2.78-.72 2.78-2.71 0-2-.75-2.74-2.78-2.74m-5.18 2.6c1.21-.18 1.12-.28 1.79-2.46h-1.9c-.45 1.73-.48 1.87-1.22 1.87h-.23c.04-.22.07-.45.07-.65v-1.22h-1.88v5.17h1.88v-1.63c0-.12-.02-.27-.06-.42h.42c.55.01.59.15 1.13 2.05h1.97c-.72-2.45-.74-2.49-1.97-2.66v-.05zm-8.54-.13h-.74c-.49 0-.58-.12-.58-.65 0-.39.09-.48.58-.48h.74v1.13zm-2.04.65c-.31.03-.85.11-.99.56l-.41 1.63h1.94l.32-1.39c.04-.24.16-.3.48-.3h.69v1.69h1.83v-5.21c-.64-.07-1.2-.08-2.61-.08-1.9 0-2.37.36-2.37 1.66 0 .62.25 1.22 1.12 1.4v.04zm-5.5.4c0-.24.12-.4.44-.41h1.08v.65c-.34.22-.71.35-1.01.35-.34 0-.51-.15-.51-.42v-.17zm-1.42-2.04c.86-.05 1.7-.07 2.22-.07.54 0 .71.16.72.6v.12H59.8c-1.03 0-1.65.5-1.65 1.32v.52c0 .97.78 1.48 1.74 1.48.9 0 1.49-.46 1.84-.89l.18.76h1.51v-3.3c0-1.54-.77-2.02-2.16-2.02-.76 0-2.06.11-2.83.26l.15 1.22zm-1.3-1.34h-3.12c-.9 0-1.35.46-1.43 1.33-.07.95-.17 1.67-.27 2.03-.11.42-.42.41-.87.48l.19 1.39c1.13.19 2.17-.07 2.37-1.35.1-.5.22-1.38.31-2.18.03-.3.18-.44.49-.44h.45v3.91h1.88v-5.17zm-6.33 5.19v-5.18h-1.64l-1.65 2.48c-.16.24-.29.47-.4.76h-.04c.04-.3.07-.53.07-.8v-2.44h-1.68v5.17h1.64l1.61-2.36c.15-.23.32-.58.42-.86h.04c-.04.34-.07.61-.07.92v2.32h1.7zm-8.41-3.79c1.39-.19 1.43-.83 2.19-3.4h-1.98c-.64 2.15-.77 2.8-1.47 2.8h-.33c.05-.3.08-.6.08-.89v-1.9h-1.86v1.9c0 .29.03.59.09.89h-.36c-.69 0-.82-.64-1.46-2.8h-1.98c.76 2.57.79 3.22 2.19 3.4v.06c-1.45.21-1.54.77-2.38 3.72h2.04c.8-2.6.88-3.07 1.58-3.07h.36c-.05.23-.08.47-.08.67v2.4h1.86v-2.4c0-.2-.03-.44-.08-.67h.34c.73 0 .8.47 1.59 3.07h2.05c-.84-2.95-.94-3.51-2.39-3.72v-.06zm170.07-15.43c0-.24.12-.4.44-.41h1.08v.65c-.34.22-.71.35-1.01.35-.34 0-.51-.15-.51-.42v-.17zm-1.41-2.04c.86-.05 1.7-.07 2.22-.07.54 0 .71.16.72.6v.12h-1.72c-1.03 0-1.65.5-1.65 1.32v.52c0 .97.78 1.48 1.74 1.48.9 0 1.49-.46 1.84-.89l.18.76h1.51v-3.3c0-1.54-.77-2.02-2.16-2.02-.76 0-2.06.11-2.83.26l.15 1.22zm-.85.09v-1.42h-5.16v1.42h1.65v3.75h1.88v-3.75h1.63zm-9.24 1.95c0-.24.12-.4.44-.41h1.08v.65c-.34.22-.71.35-1.01.35-.34 0-.51-.15-.51-.42v-.17zm-1.41-2.04c.86-.05 1.7-.07 2.22-.07.54 0 .71.16.72.6v.12h-1.72c-1.03 0-1.65.5-1.65 1.32v.52c0 .97.78 1.48 1.74 1.48.9 0 1.49-.46 1.84-.89l.18.76h1.51v-3.3c0-1.54-.77-2.02-2.16-2.02-.76 0-2.06.11-2.83.26l.15 1.22zm-1.31-1.34h-1.85v1.82h-1.58v-1.82h-1.86v5.17h1.86v-2.09h1.58v2.09h1.85v-5.17zm-8.74 0c-.4 0-.65.2-.71.58l-.45 1.93c-.05.26-.06.51-.1.77h-.08c-.03-.26-.04-.51-.1-.77l-.46-1.93c-.06-.39-.31-.58-.7-.58h-1.6c-.43 0-.64.22-.65.64l-.12 4.53h1.71l.1-3.8h.12l.62 2.51c.07.38.32.57.72.57h.85c.41 0 .64-.19.71-.57l.62-2.51h.12l.14 3.8h1.71l-.14-4.53c-.01-.43-.22-.64-.64-.64h-1.67zm-8.61 1.19c.64 0 .8.26.8 1.41 0 1.13-.17 1.38-.8 1.38-.65 0-.81-.25-.81-1.38 0-1.15.17-1.41.81-1.41m0-1.34c-2.04 0-2.79.74-2.79 2.74 0 1.99.75 2.71 2.79 2.71 2.03 0 2.78-.72 2.78-2.71 0-2-.75-2.74-2.78-2.74m-5.18 2.61c1.21-.18 1.12-.28 1.79-2.46h-1.9c-.45 1.73-.48 1.87-1.22 1.87h-.23c.04-.22.07-.45.07-.65v-1.22h-1.88v5.17h1.88v-1.63c0-.12-.02-.27-.06-.42h.42c.55.01.59.15 1.13 2.05h1.97c-.72-2.45-.74-2.49-1.97-2.66v-.05zm-8.54-.13h-.74c-.49 0-.58-.12-.58-.65 0-.39.09-.48.58-.48h.74v1.13zm-2.04.65c-.31.03-.85.11-.99.56l-.41 1.63h1.94l.32-1.39c.04-.24.16-.3.48-.3h.69v1.69h1.83v-5.21c-.64-.07-1.2-.08-2.61-.08-1.9 0-2.37.36-2.37 1.66 0 .62.25 1.22 1.12 1.4v.04zm-5.5.4c0-.24.12-.4.44-.41h1.08v.65c-.34.22-.71.35-1.01.35-.34 0-.51-.15-.51-.42v-.17zm-1.42-2.04c.86-.05 1.7-.07 2.22-.07.54 0 .71.16.72.6v.12h-1.72c-1.03 0-1.65.5-1.65 1.32v.52c0 .97.78 1.48 1.74 1.48.9 0 1.49-.46 1.84-.89l.18.76h1.51v-3.3c0-1.54-.77-2.02-2.16-2.02-.76 0-2.06.11-2.83.26l.15 1.22zm-1.3-1.34h-3.12c-.9 0-1.35.46-1.43 1.33-.07.95-.17 1.67-.27 2.03-.12.42-.42.41-.87.48l.19 1.39c1.13.19 2.17-.07 2.37-1.35.1-.5.22-1.38.31-2.18.03-.3.18-.44.49-.44h.45v3.91h1.88v-5.17zm-6.33 5.18v-5.18h-1.64l-1.65 2.48c-.16.24-.29.47-.39.76h-.04c.04-.3.07-.53.07-.8v-2.44h-1.68v5.17h1.64l1.61-2.36c.15-.23.32-.58.42-.86h.04c-.04.34-.07.61-.07.92v2.32h1.69zm-8.41-3.79c1.39-.19 1.43-.83 2.19-3.4h-1.98c-.65 2.15-.77 2.8-1.47 2.8h-.33c.05-.3.08-.6.08-.89v-1.9h-1.86v1.9c0 .29.03.59.09.89h-.36c-.69 0-.82-.64-1.46-2.8h-1.98c.76 2.57.79 3.22 2.19 3.4v.06c-1.45.21-1.54.77-2.38 3.72h2.04c.8-2.6.88-3.07 1.58-3.07h.36c-.05.23-.08.47-.08.67v2.4h1.86v-2.4c0-.2-.03-.44-.08-.67h.34c.73 0 .8.47 1.59 3.07h2.05c-.84-2.95-.94-3.51-2.39-3.72v-.06zm-35.72 187c0-.24.12-.4.44-.41h1.08v.65c-.34.22-.71.35-1.01.35-.34 0-.51-.15-.51-.42v-.17zm-1.41-2.04c.86-.05 1.7-.07 2.22-.07.54 0 .71.16.72.6v.12h-1.72c-1.03 0-1.65.5-1.65 1.32v.52c0 .97.78 1.48 1.74 1.48.9 0 1.49-.46 1.84-.89l.18.76h1.51v-3.3c0-1.54-.77-2.02-2.16-2.02-.76 0-2.06.11-2.83.26l.15 1.22zm-1.3-1.34h-1.82v3.9h-1.24v-3.9h-1.66v3.9h-1.23v-3.9h-1.82v5.17h7.77v-5.17zm-8.9 5.18v-5.18h-1.64l-1.65 2.48c-.16.24-.29.47-.4.76h-.04c.04-.3.07-.53.07-.8v-2.43h-1.68v5.17h1.64l1.61-2.36c.15-.23.32-.58.42-.86h.04c-.04.34-.07.61-.07.92v2.32h1.7zm-6.46-5.18h-1.85v1.82H85.1v-1.82h-1.86v5.17h1.86v-2.09h1.58v2.09h1.85v-5.17zm-6.39 1.94h-3.06v1.14h3.06v-1.14zm-5.97.39h-.74c-.49 0-.58-.12-.58-.65 0-.39.09-.48.58-.48h.74v1.13zm-2.03.65c-.31.03-.85.11-.99.56l-.41 1.63h1.94l.32-1.38c.04-.24.16-.3.48-.3h.69v1.69H78v-5.21c-.64-.07-1.2-.08-2.61-.08-1.9 0-2.37.36-2.37 1.66 0 .62.25 1.22 1.12 1.4v.03zm-2.15-2.98h-1.85v1.82h-1.58v-1.82H66.7v5.17h1.86v-2.09h1.58v2.09h1.85v-5.17zm-7.79 5.17h1.9l-1.54-2.64 1.42-2.53H64.1l-1.02 1.93-1.02-1.93h-1.88l1.42 2.53-1.54 2.64h1.9l1.12-2.08 1.12 2.08zm-4.22-5.17h-2.02l-.76 3.08c-.05.24-.14.58-.22.89h-.1c-.04-.3-.09-.59-.15-.89l-.78-3.08h-2.01l1.6 4.72c.08.27.31.45.6.45h.34c-.14.26-.33.5-.54.61-.33.19-.79.24-1.45.22l-.16 1.23c.74.13 1.52.15 2.13-.1.8-.29 1.4-.8 1.77-2.01l1.75-5.12zm-8.49 1.39c1.43-.19 1.47-.83 2.26-3.4h-1.99c-.56 2.15-.7 2.8-1.71 2.8h-.34c.05-.29.08-.6.08-.89v-1.9h-1.94v7.18h1.94v-2.4c0-.2-.03-.44-.08-.67h.38c1 0 1.08.47 1.82 3.07h2.04c-.88-2.95-.98-3.51-2.46-3.72v-.07zm31.89-153.34v-7.18h-1.94l-1.82.71.23 1.24 1.67-.37c-.06.29-.07.57-.07.85v4.76h1.93zm-4.93-1.76c-.5 0-.65.16-.65.65v.46c0 .5.16.65.65.65h.45c.5 0 .66-.16.66-.65v-.46c0-.5-.16-.65-.66-.65h-.45zm-6.7-3.86c.99-.05 1.51-.05 2.25-.05.55 0 .79.03.79.33.01.41-.47 1.05-1.28 1.88l-1.61 1.67c-.21.23-.27.47-.27.78v1.02h5.35v-1.68h-2.07c-.34 0-.68.01-1.01.09l1.77-1.74c.95-.99 1.12-1.46 1.12-2.24 0-1.4-1.01-1.74-2.54-1.74-.78 0-1.52.03-2.57.24l.07 1.44zm-1.37 5.62v-7.18h-1.95l-1.82.71.23 1.24 1.67-.37c-.06.29-.07.57-.07.85v4.76h1.94zm109.84-23.03c.99-.05 1.51-.05 2.25-.05.55 0 .79.03.79.33.01.41-.47 1.05-1.28 1.88l-1.61 1.67c-.21.23-.27.47-.27.78v1.02h5.35v-1.68h-2.07c-.34 0-.68.01-1.01.09l1.77-1.74c.95-.99 1.12-1.46 1.12-2.24 0-1.4-1.01-1.74-2.54-1.74-.78 0-1.52.03-2.57.24l.07 1.44zm-2.07 3.85c-.5 0-.65.16-.65.65v.46c0 .5.16.65.65.65h.45c.5 0 .66-.16.66-.65v-.46c0-.5-.16-.65-.66-.65h-.45zm-1.35-1.04h-.85v-2.97h-1.47l-.31 1.12v1.84h-1.41c-.17 0-.27-.1-.19-.3l1.58-4.07h-1.83l-1.79 4.56c-.23.56.16 1.11.76 1.11h2.87v1.51h1.78v-1.51h.02l.83-.19v-1.1zm-7.35 2.81v-7.18h-1.95l-1.82.71.23 1.24 1.67-.37c-.06.29-.07.57-.07.85v4.76h1.94z" class="st1"/><path d="M22.8 17.78h205.95V426H22.8z" class="st37"/><path d="M157.68 42.72h-1.96v-5.85h-.66c-.37 0-.57.18-.59.53-.12 1.5-.26 2.83-.55 3.69-.47 1.48-1.42 1.86-2.69 1.67l-.14-1.51c.49-.07.84-.19 1.02-.69.24-.67.37-1.67.49-3.33.08-1.12.69-1.7 1.8-1.7h3.27v7.19zm6.58-2.58c0 1.99-.75 2.71-2.78 2.71-2.04 0-2.79-.72-2.79-2.71 0-2 .75-2.74 2.79-2.74 2.03.01 2.78.75 2.78 2.74zm-3.59 0c0 1.13.17 1.38.81 1.38.63 0 .8-.25.8-1.38 0-1.14-.17-1.4-.8-1.4-.64 0-.81.26-.81 1.4zm10.44 4.02h-1.25l-.14-1.44h-3.7l-.12 1.44h-1.25v-2.71h.65c.31-.88.49-1.75.61-2.64.11-.83.57-1.26 1.5-1.26h2.84v3.9h.86v2.71zm-2.63-5.4h-.47c-.26 0-.43.12-.46.42-.15.97-.33 1.69-.59 2.28h1.52v-2.7zm9.42 1.29c1.24.18 1.27.27 2.01 2.67h-1.92c-.65-1.96-.69-2.07-1.15-2.08h-.39c.03.16.05.31.05.44v1.64h-1.65v-1.64c0-.12.02-.28.06-.44h-.42c-.44.01-.49.12-1.14 2.08h-1.92c.74-2.4.76-2.5 2.01-2.67V40c-1.21-.16-1.15-.31-1.84-2.45h1.85c.55 1.71.61 1.88 1.13 1.88h.33c-.04-.22-.06-.44-.06-.65v-1.24h1.64v1.24c0 .21-.02.43-.06.65h.32c.52 0 .58-.19 1.12-1.88h1.86c-.68 2.13-.63 2.29-1.84 2.45v.05zm6.35 2.69v-2.32c0-.3.03-.57.07-.92h-.04c-.09.28-.27.63-.42.86l-1.61 2.36h-1.64v-5.17h1.68v2.43c0 .27-.03.5-.07.8h.04c.1-.29.24-.52.4-.76l1.64-2.48h1.64v5.18h-1.69zm3.83-2.25c-.87-.18-1.12-.77-1.12-1.39 0-1.3.47-1.67 2.37-1.67 1.42 0 1.97.01 2.61.08v5.21h-1.83v-1.69h-.69c-.32 0-.44.06-.48.3l-.32 1.38h-1.94l.41-1.63c.14-.45.68-.53.99-.56v-.03zm2.03-1.73h-.74c-.49 0-.58.09-.58.48 0 .52.09.65.58.65h.74v-1.13zm-24.44 11.55c-.78-.08-1.09-.87-1.09-1.64 0-1.34.47-1.92 2.63-1.92 2.19 0 2.64.58 2.64 1.92 0 .77-.31 1.56-1.09 1.64v.04c1.03.09 1.27.96 1.27 1.92 0 1.39-.54 1.92-2.82 1.94-2.24.01-2.82-.54-2.82-1.94 0-.96.25-1.82 1.28-1.92v-.04zm.55 1.59c0 .72.19.9 1 .9.8 0 .97-.18.97-.9 0-.76-.17-.94-.96-.94-.83 0-1.01.2-1.01.94zm.1-2.98c0 .65.18.79.92.79.73 0 .86-.16.86-.79 0-.71-.17-.86-.88-.86-.73 0-.9.15-.9.86zm5.71 3.37c.5 0 .66.16.66.66v.46c0 .5-.16.66-.66.66h-.45c-.5 0-.66-.16-.66-.66v-.46c0-.5.16-.66.66-.66h.45zm2.83-1.98c-.78-.08-1.09-.87-1.09-1.64 0-1.34.47-1.92 2.63-1.92 2.19 0 2.64.58 2.64 1.92 0 .77-.31 1.56-1.09 1.64v.04c1.03.09 1.27.96 1.27 1.92 0 1.39-.54 1.92-2.82 1.94-2.24.01-2.82-.54-2.82-1.94 0-.96.25-1.82 1.28-1.92v-.04zm.55 1.59c0 .72.19.9 1 .9.8 0 .97-.18.97-.9 0-.76-.17-.94-.96-.94-.83 0-1.01.2-1.01.94zm.11-2.98c0 .65.18.79.92.79.73 0 .86-.16.86-.79 0-.71-.17-.86-.88-.86-.74 0-.9.15-.9.86zm-21.98 175.42h-1.96v-5.85h-2.11v5.85h-1.95v-7.18h6.02v7.18zm2.89-4.44c.36-.48 1.16-.85 1.98-.85 1.31 0 1.83 1.01 1.83 2.77 0 2.09-.68 2.66-1.97 2.66-.62 0-1.21-.12-1.65-.47.03.36.04.76.03 1.12v1.13h-1.88v-7.1h1.52l.14.74zm.21 3.11c.28.08.53.18.91.18.53 0 .74-.18.74-1.36 0-1.18-.2-1.37-.68-1.37-.4 0-.63.12-.97.32v2.23zm8.15 1.34v-2.32c0-.3.03-.57.07-.92h-.04c-.09.28-.27.63-.42.86l-1.61 2.36h-1.64v-5.17h1.68v2.43c0 .27-.03.5-.07.8h.04c.1-.29.24-.52.4-.76l1.64-2.48h1.64v5.18h-1.69zm5.31-2.09-1.12 2.08h-1.9l1.54-2.64-1.42-2.53h1.88l1.02 1.94 1.02-1.94H173l-1.42 2.53 1.54 2.64h-1.9l-1.12-2.08zm8.83-.5c0 1.99-.75 2.71-2.78 2.71-2.04 0-2.79-.72-2.79-2.71 0-2 .75-2.74 2.79-2.74 2.03 0 2.78.74 2.78 2.74zm-3.59 0c0 1.13.17 1.38.81 1.38.63 0 .8-.25.8-1.38 0-1.14-.17-1.4-.8-1.4-.65-.01-.81.25-.81 1.4zm10.48-.09c1.24.18 1.27.27 2.01 2.67h-1.92c-.65-1.96-.69-2.07-1.15-2.08h-.39c.03.16.05.31.05.44v1.64h-1.65v-1.64c0-.12.02-.28.06-.44h-.42c-.44.01-.49.12-1.14 2.08h-1.92c.74-2.4.76-2.5 2.01-2.67v-.05c-1.21-.16-1.15-.31-1.84-2.45h1.85c.55 1.71.61 1.88 1.13 1.88h.33c-.04-.22-.06-.44-.06-.65v-1.24h1.64v1.24c0 .21-.02.43-.06.65h.32c.52 0 .58-.19 1.12-1.88h1.86c-.68 2.13-.63 2.29-1.84 2.45v.05zm2.72-2.39c.77-.15 2.07-.26 2.83-.26 1.39 0 2.16.48 2.16 2.02v3.3h-1.51l-.18-.76c-.35.44-.95.9-1.84.9-.96 0-1.74-.51-1.74-1.48v-.52c0-.82.62-1.32 1.65-1.32h1.72v-.12c-.01-.44-.18-.59-.72-.59-.52 0-1.35.02-2.22.07l-.15-1.24zm1.58 3.45c0 .27.17.42.51.42.3 0 .67-.14 1.01-.35v-.64h-1.08c-.31.01-.44.17-.44.41v.16zm5.5-.63c-.87-.18-1.12-.77-1.12-1.39 0-1.3.47-1.67 2.37-1.67 1.42 0 1.97.01 2.61.08v5.21h-1.83v-1.69h-.69c-.32 0-.44.06-.48.3l-.32 1.38h-1.94l.41-1.63c.14-.45.68-.53.99-.56v-.03zm2.03-1.72h-.74c-.49 0-.58.09-.58.48 0 .52.09.65.58.65h.74v-1.13zm-26.39 6.7c.56 0 .91.43.73.96l-2.17 6.22h-1.91l1.73-4.85c.09-.25.19-.51.35-.76h-3.12l-.08-1.57h4.47zm2.03 5.41c.5 0 .66.16.66.66v.46c0 .5-.16.66-.66.66h-.45c-.5 0-.66-.16-.66-.66v-.46c0-.5.16-.66.66-.66h.45zm1.59-5.36c.81-.13 1.61-.2 2.4-.2 1.76 0 2.42.4 2.42 1.68 0 1.03-.22 1.67-1.14 1.81v.04c1.01.16 1.32.71 1.33 1.8.02 1.52-.68 2.14-2.58 2.14-.86 0-1.77-.08-2.58-.2l.06-1.41c.91.05 1.36.06 1.99.06.92 0 1.19-.13 1.19-.86 0-.61-.17-.85-.94-.84l-1.37.01v-1.25h1.37c.78 0 .85-.29.84-.78 0-.58-.21-.68-.94-.68-.74 0-1.47.01-2 .02l-.05-1.34zm-92.73 71.16c-.01-.85.07-1.19.82-1.19.81 0 .9.28.91 1.86-.34.2-.57.27-.91.27-.66.01-.83-.2-.82-.94m-1.54 4.63c.83.21 1.6.21 2 .21 2.29 0 3.13-.54 3.13-3.79 0-2.9-.48-3.64-2.75-3.64-2.09 0-2.68.79-2.67 2.63 0 1.31.46 2.23 2.06 2.23.65 0 1.08-.1 1.48-.43-.05 1.23-.3 1.58-1.25 1.58-.93 0-1.27 0-1.9-.01l-.1 1.22zm-2.18-1.69c-.5 0-.65.16-.65.66v.46c0 .5.16.66.65.66h.45c.5 0 .65-.16.65-.66v-.46c0-.5-.16-.66-.65-.66h-.45zm-1.73-3.97.07-1.43h-4.49l-.19 3.23c-.02.33.22.6.56.64l1.11.14c.97.08 1.32.22 1.29.89-.04.58-.25.81-1.19.81-.51 0-1.18-.03-1.87-.08l-.18 1.47c.92.14 1.83.21 2.55.21 2.04 0 2.61-1.05 2.61-2.34.01-1.16-.43-2.19-2.1-2.37l-1.19-.16.07-1h2.95z" class="st1"/><path d="M22.8 17.78h205.95V426H22.8z" class="st37"/><path d="M68.87 351.87c1.46.21 1.55.77 2.39 3.71h-2.05c-.79-2.6-.86-3.07-1.59-3.07h-.34c.05.23.08.47.08.67v2.4H65.5v-2.4c0-.2.03-.44.08-.67h-.36c-.7 0-.78.47-1.58 3.07H61.6c.84-2.95.94-3.51 2.38-3.71v-.06c-1.39-.19-1.43-.83-2.19-3.4h1.98c.63 2.15.77 2.8 1.46 2.8h.36c-.06-.3-.09-.6-.09-.9v-1.9h1.86v1.9c0 .29-.03.59-.08.9h.33c.7 0 .82-.65 1.47-2.8h1.98c-.76 2.57-.79 3.22-2.19 3.4v.06zm6.72 3.73v-2.32c0-.3.03-.57.07-.92h-.04c-.09.28-.27.63-.42.86l-1.61 2.36h-1.64v-5.17h1.68v2.43c0 .27-.03.5-.07.8h.04c.1-.29.24-.52.4-.76l1.64-2.48h1.64v5.18h-1.69zm8.01-.01h-1.88v-3.91h-.45c-.31 0-.46.14-.49.44-.09.8-.21 1.67-.31 2.17-.21 1.28-1.24 1.54-2.37 1.35l-.19-1.38c.46-.07.76-.06.87-.48.1-.36.2-1.08.27-2.03.07-.87.53-1.33 1.43-1.33h3.12v5.17zm1.14-5.06c.77-.15 2.07-.26 2.83-.26 1.39 0 2.16.48 2.16 2.02v3.3h-1.51l-.18-.76c-.35.44-.95.9-1.84.9-.96 0-1.74-.51-1.74-1.48v-.52c0-.82.62-1.32 1.65-1.32h1.72v-.12c-.01-.44-.18-.59-.72-.59-.52 0-1.35.02-2.22.07l-.15-1.24zm1.58 3.44c0 .27.17.42.51.42.3 0 .67-.14 1.01-.35v-.64h-1.08c-.31.01-.44.17-.44.41v.16zm5.51-.62c-.87-.18-1.12-.77-1.12-1.39 0-1.3.47-1.67 2.37-1.67 1.42 0 1.97.01 2.61.08v5.21h-1.83v-1.69h-.69c-.32 0-.44.06-.48.3l-.32 1.38h-1.94l.41-1.63c.14-.45.68-.53.99-.56v-.03zm2.03-1.73h-.74c-.49 0-.58.09-.58.48 0 .52.09.65.58.65h.74v-1.13zm-33.37 11.79c1.23.18 1.25.22 1.97 2.66h-1.97c-.54-1.9-.58-2.04-1.13-2.05h-.42c.04.15.06.29.06.42v1.63h-1.88v-5.17H59v1.22c0 .21-.03.44-.07.66h.23c.74 0 .77-.15 1.22-1.87h1.9c-.67 2.17-.58 2.28-1.79 2.46v.04zm7.97.09c0 1.99-.75 2.71-2.78 2.71-2.04 0-2.79-.72-2.79-2.71 0-2 .75-2.74 2.79-2.74 2.03 0 2.78.74 2.78 2.74zm-3.59 0c0 1.13.17 1.38.81 1.38.63 0 .8-.25.8-1.38 0-1.14-.17-1.4-.8-1.4-.64-.01-.81.25-.81 1.4zm11.04-2.59c.43 0 .63.22.65.65l.14 4.53h-1.71l-.14-3.8h-.12l-.61 2.51c-.07.38-.3.57-.71.57h-.84c-.4 0-.65-.19-.72-.57l-.61-2.51h-.14l-.1 3.8h-1.71l.12-4.53c.01-.43.23-.65.66-.65h1.6c.39 0 .63.2.7.58l.46 1.92c.06.26.07.51.1.77h.08c.04-.26.05-.51.1-.77l.45-1.92c.06-.39.31-.58.71-.58h1.64zm7.12 5.17h-1.85v-2.09H79.6v2.09h-1.86v-5.17h1.86v1.82h1.58v-1.82h1.85v5.17zm1.14-5.06c.77-.15 2.07-.26 2.83-.26 1.39 0 2.16.48 2.16 2.02v3.3h-1.51l-.18-.76c-.35.44-.95.9-1.84.9-.96 0-1.74-.51-1.74-1.48v-.52c0-.82.62-1.32 1.65-1.32h1.72v-.12c-.01-.44-.18-.59-.72-.59-.52 0-1.35.02-2.22.07l-.15-1.24zm1.58 3.44c0 .27.17.42.51.42.3 0 .67-.14 1.01-.35v-.64h-1.08c-.31.01-.44.17-.44.41v.16zm7.61-2.13v3.75h-1.88v-3.75h-1.64v-1.43H95v1.43h-1.64zm2.32-1.31c.77-.15 2.07-.26 2.83-.26 1.39 0 2.16.48 2.16 2.02v3.3h-1.51l-.18-.76c-.35.44-.95.9-1.84.9-.96 0-1.74-.51-1.74-1.48v-.52c0-.82.62-1.32 1.65-1.32h1.72v-.12c-.01-.44-.18-.59-.72-.59-.52 0-1.35.02-2.22.07l-.15-1.24zm1.58 3.44c0 .27.17.42.51.42.3 0 .67-.14 1.01-.35v-.64H97.7c-.31.01-.44.17-.44.41v.16zm-26.52 12.95v-4.76c0-.28.01-.56.07-.85l-1.67.38-.23-1.24 1.82-.71h1.95v7.18h-1.94zm3.25-7.06c1.05-.21 1.79-.24 2.57-.24 1.53 0 2.54.33 2.54 1.74 0 .78-.18 1.25-1.12 2.24l-1.77 1.74c.33-.08.67-.09 1.01-.09h2.07v1.69h-5.35v-1.02c0-.31.06-.55.27-.78l1.61-1.67c.81-.82 1.29-1.47 1.28-1.87 0-.3-.24-.33-.79-.33-.74 0-1.26 0-2.25.05l-.07-1.46zm7.22 5.29c.5 0 .66.16.66.66v.46c0 .5-.16.66-.66.66h-.45c-.5 0-.66-.16-.66-.66v-.46c0-.5.16-.66.66-.66h.45zm2.83-1.97c-.78-.08-1.09-.87-1.09-1.64 0-1.34.47-1.92 2.63-1.92 2.19 0 2.64.58 2.64 1.92 0 .77-.31 1.56-1.09 1.64v.04c1.03.09 1.27.96 1.27 1.92 0 1.39-.54 1.92-2.82 1.94-2.24.01-2.82-.54-2.82-1.94 0-.96.25-1.82 1.28-1.92v-.04zm.55 1.58c0 .72.19.89 1 .89.8 0 .97-.18.97-.89 0-.76-.17-.94-.96-.94-.83 0-1.01.2-1.01.94zm.11-2.98c0 .64.18.79.92.79.73 0 .86-.16.86-.79 0-.71-.17-.86-.88-.86-.74 0-.9.15-.9.86zm13.41-150.95c.89.12.94.46 1.47 2.23h-1.22c-.44-1.56-.49-1.84-1.09-1.84h-.22c.03.14.05.28.05.4v1.44h-1.17v-4.31h1.17v1.14c0 .17-.02.36-.05.54h.21c.6 0 .69-.39 1.02-1.68h1.19c-.47 1.54-.5 1.93-1.35 2.04v.04zm5.05.68c0 1.19-.45 1.62-1.67 1.62s-1.67-.43-1.67-1.62c0-1.2.45-1.64 1.67-1.64s1.67.44 1.67 1.64zm-2.16 0c0 .68.1.83.49.83.38 0 .48-.15.48-.83 0-.69-.1-.84-.48-.84-.39 0-.49.16-.49.84zm3.7-1.11c.22-.29.69-.51 1.19-.51.79 0 1.1.61 1.1 1.66 0 1.25-.41 1.6-1.18 1.6-.37 0-.72-.08-.99-.28.02.22.02.46.02.67v.68h-1.13v-4.26h.91l.08.44zm.13 1.86c.17.05.32.11.54.11.32 0 .44-.11.44-.82s-.12-.82-.41-.82c-.24 0-.38.08-.58.19v1.34zm4.89.81v-1.39c0-.18.02-.34.04-.55h-.02c-.06.17-.16.38-.25.52l-.97 1.42h-.99v-3.1h1v1.46c0 .16-.02.3-.04.48h.02c.06-.17.14-.31.24-.46l.99-1.49h.99v3.11h-1.01zm5.32.85h-.75l-.08-.86h-2.22l-.08.86h-.75v-1.62h.39c.19-.53.29-1.05.37-1.58.07-.5.34-.75.9-.75h1.7v2.34h.52v1.61zm-1.58-3.24h-.28c-.16 0-.26.08-.27.25-.09.58-.2 1.01-.36 1.37h.91v-1.62zm5.23.83c0 1.19-.45 1.62-1.67 1.62s-1.67-.43-1.67-1.62c0-1.2.45-1.64 1.67-1.64s1.67.44 1.67 1.64zm-2.15 0c0 .68.1.83.49.83.38 0 .48-.15.48-.83 0-.69-.1-.84-.48-.84-.39 0-.49.16-.49.84zm3.7-1.11c.22-.29.69-.51 1.19-.51.79 0 1.1.61 1.1 1.66 0 1.25-.41 1.6-1.18 1.6-.37 0-.72-.08-.99-.28.02.22.02.46.02.67v.68h-1.13v-4.26h.91l.08.44zm.13 1.86c.17.05.32.11.54.11.32 0 .44-.11.44-.82s-.12-.82-.41-.82c-.24 0-.38.08-.58.19v1.34zm-15.31 3.19c.49-.08.97-.12 1.44-.12 1.05 0 1.45.24 1.45 1 0 .62-.13 1-.69 1.09v.02c.61.09.79.42.8 1.08.01.91-.41 1.29-1.55 1.29-.52 0-1.06-.05-1.55-.12l.04-.84c.54.03.82.04 1.19.04.55 0 .71-.08.71-.52 0-.37-.1-.51-.56-.5l-.82.01v-.75h.82c.47 0 .51-.17.51-.47 0-.35-.12-.41-.56-.41-.44 0-.88.01-1.2.01l-.03-.81zm4.2 3.21c.3 0 .39.09.39.39v.27c0 .3-.09.39-.39.39h-.27c-.3 0-.39-.09-.39-.39v-.27c0-.3.09-.39.39-.39h.27zm.95-3.21c.49-.08.97-.12 1.44-.12 1.05 0 1.45.24 1.45 1 0 .62-.13 1-.69 1.09v.02c.61.09.79.42.8 1.08.01.91-.41 1.29-1.55 1.29-.52 0-1.06-.05-1.55-.12l.04-.84c.54.03.82.04 1.19.04.55 0 .71-.08.71-.52 0-.37-.1-.51-.56-.5l-.82.01v-.75h.82c.47 0 .51-.17.51-.47 0-.35-.12-.41-.56-.41-.44 0-.88.01-1.2.01l-.03-.81zm-48.04-21.75c.67.06.9.46.9 1.14 0 .89-.46 1.12-1.51 1.12-.89 0-1.37-.01-1.95-.05v-4.31c.52-.04.97-.05 1.75-.05 1.16 0 1.57.24 1.57 1.12 0 .62-.22.93-.77.98v.05zm-.83-.37c.38 0 .49-.09.49-.48 0-.38-.11-.46-.52-.46h-.55v.94h.58zm.02 1.81c.44 0 .55-.1.55-.53 0-.46-.11-.57-.56-.57h-.59v1.09l.6.01zm2.28-2.25c.46-.09 1.24-.16 1.7-.16.84 0 1.3.29 1.3 1.21v1.98h-.9l-.11-.46c-.21.26-.57.54-1.1.54-.57 0-1.04-.31-1.04-.89v-.31c0-.49.37-.79.99-.79h1.03v-.07c-.01-.26-.11-.36-.43-.36-.31 0-.81.01-1.33.04l-.11-.73zm.95 2.06c0 .16.1.25.31.25.18 0 .4-.08.61-.21v-.39h-.65c-.19.01-.26.1-.26.24v.11zm5.87.97h-1.11v-1.25h-.95v1.25h-1.12v-3.1h1.12v1.09h.95v-1.09h1.11v3.1zm3.85 0H73.2v-1.25h-.95v1.25h-1.12v-3.1h1.12v1.09h.95v-1.09h1.11v3.1zm.69-3.03c.46-.09 1.24-.16 1.7-.16.84 0 1.3.29 1.3 1.21v1.98h-.9l-.11-.46c-.21.26-.57.54-1.1.54-.57 0-1.04-.31-1.04-.89v-.31c0-.49.37-.79.99-.79h1.03v-.07c-.01-.26-.11-.36-.43-.36-.31 0-.81.01-1.33.04l-.11-.73zm.95 2.06c0 .16.1.25.31.25.18 0 .4-.08.61-.21v-.39h-.65c-.19.01-.26.1-.26.24v.11zm3.3-.37c-.52-.11-.67-.46-.67-.84 0-.78.28-1 1.42-1 .85 0 1.18.01 1.57.05v3.13h-1.1v-1.01h-.41c-.19 0-.26.04-.29.18l-.19.83h-1.16l.24-.98c.08-.27.41-.32.59-.34v-.02zm1.22-1.04h-.44c-.29 0-.35.06-.35.29 0 .31.06.39.35.39h.44v-.68zm-13.76 4.77c.49-.08.97-.12 1.44-.12 1.05 0 1.45.24 1.45 1 0 .62-.13 1-.69 1.09v.02c.61.09.79.42.8 1.08.01.91-.41 1.29-1.55 1.29-.52 0-1.06-.05-1.55-.12l.04-.84c.54.03.82.04 1.19.04.55 0 .71-.08.71-.52 0-.37-.1-.51-.56-.5l-.82.01v-.75H68c.47 0 .51-.17.51-.47 0-.35-.12-.41-.56-.41-.44 0-.88.01-1.2.01l-.04-.81zm4.2 3.21c.3 0 .39.09.39.39v.27c0 .3-.09.39-.39.39h-.27c-.3 0-.39-.09-.39-.39v-.27c0-.3.09-.39.39-.39h.27zm3.28-3.25c.34 0 .54.26.44.57l-1.3 3.73h-1.15l1.04-2.91c.06-.15.11-.31.21-.46h-1.87l-.05-.94h2.68zM62.1 241.73c-.42.14-.8.19-1.45.19-1.38 0-1.88-.59-1.88-2.23 0-1.64.51-2.23 1.88-2.23.64 0 .95.04 1.36.16l-.09.86c-.42-.01-.7-.02-1.27-.02-.51 0-.66.26-.66 1.23s.14 1.23.66 1.23c.61 0 .96-.01 1.36-.05l.09.86zm.48-2.92c.46-.09 1.24-.16 1.7-.16.84 0 1.3.29 1.3 1.21v1.98h-.9l-.11-.46c-.21.26-.57.54-1.1.54-.57 0-1.04-.31-1.04-.89v-.31c0-.49.37-.79.99-.79h1.03v-.07c-.01-.26-.11-.36-.43-.36-.31 0-.81.01-1.33.04l-.11-.73zm.95 2.07c0 .16.1.25.31.25.18 0 .4-.08.61-.21v-.39h-.65c-.19.01-.26.1-.26.24v.11zm5.87.96h-1.11v-1.25h-.95v1.25h-1.12v-3.1h1.12v1.09h.95v-1.09h1.11v3.1zm2.94-.03c-.22.72-.58 1.03-1.06 1.2-.37.15-.84.14-1.28.06l.09-.74c.39.01.67-.02.87-.13.12-.07.24-.21.32-.37h-.21c-.17 0-.31-.11-.36-.27l-.96-2.83h1.2l.47 1.85c.03.17.06.35.09.53h.06c.05-.18.1-.39.13-.53l.46-1.85h1.21l-1.03 3.08zm1.28-2.99c.42-.13.89-.16 1.16-.16 1.14 0 1.59.11 1.59.85 0 .49-.19.69-.67.72v.03c.57.04.8.31.8.81 0 .75-.51.85-1.49.85-.49 0-.97-.02-1.47-.14l.07-.75c.48.05.96.07 1.32.07.32 0 .41-.02.41-.25 0-.19-.07-.22-.41-.24l-.97-.01v-.67l.97-.02c.27-.01.35-.04.35-.22 0-.19-.08-.21-.42-.21-.41 0-.82.03-1.16.07l-.08-.73zm4.47 1.77c.06.35.22.45.62.45.26 0 .73-.02 1.21-.08l.11.69c-.41.21-.94.26-1.45.26-1.24 0-1.7-.52-1.7-1.61 0-1.22.47-1.65 1.68-1.65 1.12 0 1.55.38 1.55 1.1.01.57-.27.84-1.08.84h-.94zm.62-.59c.27 0 .31-.08.31-.27 0-.24-.11-.31-.42-.31-.38-.01-.51.08-.52.58h.63zm5.03 1.84h-1.13v-2.35h-.27c-.19 0-.27.08-.29.26-.06.48-.12 1-.19 1.3-.12.77-.74.92-1.42.81l-.11-.83c.27-.04.46-.04.52-.29.06-.22.12-.65.16-1.22.04-.52.32-.8.85-.8h1.87v3.12zm-15.47 6.67v-2.85c0-.17.01-.34.04-.51l-1 .23-.14-.74 1.09-.42h1.17v4.31h-1.16zm2.6-1.06c.3 0 .39.09.39.39v.27c0 .3-.09.39-.39.39h-.27c-.3 0-.39-.09-.39-.39v-.27c0-.3.09-.39.39-.39h.27zm3.86-2.47c-.36-.01-.56-.01-1.06-.01-.56 0-.71.14-.74.95.24-.19.5-.25.88-.25.98 0 1.26.39 1.26 1.34 0 1.07-.29 1.58-1.6 1.58-1.29 0-1.67-.44-1.67-2.18 0-1.97.63-2.27 1.88-2.27.22 0 .67 0 1.11.12l-.06.72zm-.76 2.05c0-.46-.09-.57-.51-.57-.21 0-.34.04-.55.16.01.96.06 1.11.56 1.11.47 0 .5-.19.5-.7z" class="st1"/><defs><path id="SVGID_49_" d="M22.8 17.78h205.95V426H22.8z"/></defs><clipPath id="SVGID_50_"><use xlink:href="#SVGID_49_" style="overflow:visible"/></clipPath><circle cx="175.72" cy="137.7" r="14.58" style="clip-path:url(#SVGID_50_);fill:none;stroke:#39373a"/><path d="M185.58 141.19c-1.15.13-2.18.14-3.93.14-1.48 0-1.89-.76-1.89-3.55s.42-3.55 1.89-3.55c1.66 0 2.45.02 3.67.05l.25-2.49c-1.19-.32-2.07-.45-3.93-.45-3.98 0-5.44 1.69-5.44 6.43s1.46 6.43 5.44 6.43c1.87 0 2.99-.14 4.2-.56l-.26-2.45zm-19.4-7.19c.92-.02 2.18-.04 3.46-.04 1.26 0 1.62.16 1.62 1.17.02.85-.11 1.35-1.46 1.35h-2.38v2.16l2.38-.02c1.33-.02 1.62.4 1.62 1.46 0 1.26-.47 1.49-2.05 1.49-1.08 0-1.87-.02-3.44-.11l-.11 2.43c1.4.2 2.97.34 4.47.34 3.3 0 4.5-1.08 4.47-3.71-.02-1.89-.56-2.85-2.31-3.12v-.07c1.6-.25 1.98-1.35 1.98-3.14 0-2.22-1.15-2.9-4.2-2.9-1.37 0-2.76.11-4.16.34l.11 2.37z" style="clip-path:url(#SVGID_50_);fill:#39373a"/><path d="m185.21 78.986 17.085-10.164.476.799-17.085 10.165zM148.6 65.7h35.77v2.74H148.6z" class="st15"/><path d="M146.07 68.42h35.77v9.42h-35.77z" class="st15"/><defs><path id="SVGID_51_" d="M22.8 17.78h205.95V426H22.8z"/></defs><clipPath id="SVGID_52_"><use xlink:href="#SVGID_51_" style="overflow:visible"/></clipPath><path d="M185.11 78.87s-1.11-1.5-1.64-4.99c-.54-3.49-.37-5.36-.37-5.36" style="clip-path:url(#SVGID_52_);fill:none;stroke:#39373a;stroke-width:.4"/></g></switch></svg>