<?xml version="1.0" encoding="utf-8"?>
<!-- Generator: Adobe Illustrator 26.5.0, SVG Export Plug-In . SVG Version: 6.00 Build 0)  -->
<svg version="1.1" id="Слой_1" xmlns="http://www.w3.org/2000/svg" xmlns:xlink="http://www.w3.org/1999/xlink" x="0px" y="0px"
	 viewBox="0 0 1000 1000" style="enable-background:new 0 0 1000 1000;" xml:space="preserve">
<style type="text/css">
	.st0{fill:#DEEAF8;}
	.st1{fill:#3C3C3B;}
	.st2{fill:none;stroke:#3C3C3B;}
	.st3{fill:#FFFFFF;}
</style>
<rect x="99.5" y="217.4" class="st0" width="785.8" height="530.2"/>
<rect x="307.7" y="355.6" class="st1" width="132.7" height="51.8"/>
<rect x="307.7" y="355.6" class="st2" width="133.6" height="51.8"/>
<rect x="811.6" y="191.3" class="st1" width="96.8" height="25.9"/>
<rect x="811.6" y="191.3" class="st2" width="96.8" height="25.9"/>
<rect x="883" y="213.3" class="st1" width="26" height="580.1"/>
<rect x="883" y="213.3" class="st2" width="26" height="550.2"/>
<rect x="663.5" y="191.3" class="st1" width="58.2" height="25.9"/>
<rect x="663.5" y="191.3" class="st2" width="58.2" height="25.9"/>
<rect x="91" y="191.3" class="st1" width="482.5" height="25.9"/>
<rect x="91" y="191.3" class="st2" width="482.5" height="25.9"/>
<rect x="696.4" y="355.6" class="st1" width="203.4" height="13.6"/>
<rect x="696.4" y="355.6" class="st2" width="203.4" height="13.6"/>
<rect x="553.6" y="355.6" class="st1" width="66.2" height="13.6"/>
<rect x="553.6" y="355.6" class="st2" width="66.2" height="13.6"/>
<rect x="573.2" y="366.9" class="st1" width="13.9" height="389.1"/>
<rect x="573.2" y="366.9" class="st2" width="13.9" height="389.1"/>
<rect x="366.9" y="355.6" class="st1" width="107.5" height="13.6"/>
<rect x="366.9" y="355.6" class="st2" width="107.5" height="13.6"/>
<rect x="104.1" y="393.7" class="st1" width="205.3" height="13.6"/>
<rect x="104.1" y="393.7" class="st2" width="205.3" height="13.6"/>
<rect x="319.7" y="367.3" class="st3" width="15.1" height="27.9"/>
<rect x="345.1" y="367.3" class="st3" width="15.1" height="27.9"/>
<rect x="371.4" y="367.3" class="st3" width="14.4" height="27.9"/>
<rect x="398.4" y="368" class="st3" width="33" height="27.9"/>
<rect x="390.2" y="337.2" class="st1" width="13.6" height="21.7"/>
<rect x="390.2" y="337.2" class="st2" width="13.6" height="21.7"/>
<rect x="390.2" y="215.9" class="st1" width="13.6" height="63.9"/>
<rect x="390.2" y="215.9" class="st2" width="13.6" height="63.9"/>
<rect x="91" y="208.2" class="st1" width="26.3" height="602.5"/>
<rect x="91" y="208.2" class="st2" width="26.3" height="602.5"/>
<rect x="547.3" y="191.3" class="st1" width="142.8" height="51.6"/>
<rect x="547.3" y="191.3" class="st2" width="142.8" height="51.6"/>
<rect x="574.5" y="203.8" class="st3" width="29.1" height="14.5"/>
<rect x="574.5" y="203.8" class="st2" width="29.1" height="14.5"/>
<rect x="613.8" y="203.8" class="st3" width="49.8" height="14.5"/>
<rect x="613.8" y="203.8" class="st2" width="49.8" height="14.5"/>
<rect x="91.3" y="784.4" class="st1" width="139.9" height="27"/>
<rect x="91.3" y="784.4" class="st2" width="139.9" height="27"/>
<rect x="419.5" y="784.4" class="st1" width="93.5" height="27"/>
<rect x="419.5" y="784.4" class="st2" width="93.5" height="27"/>
<rect x="97.2" y="747.8" class="st1" width="128.1" height="44.1"/>
<rect x="97.2" y="747.8" class="st2" width="128.1" height="44.1"/>
<rect x="427.8" y="747.8" class="st1" width="205.3" height="46.4"/>
<rect x="427.8" y="747.8" class="st2" width="205.3" height="46.4"/>
<rect x="625.8" y="774.1" class="st1" width="16.7" height="20.1"/>
<rect x="625.8" y="774.1" class="st2" width="16.7" height="20.1"/>
<rect x="792.8" y="774.1" class="st1" width="115.6" height="20.1"/>
<rect x="792.8" y="774.1" class="st2" width="115.6" height="20.1"/>
<rect x="797.4" y="747.8" class="st1" width="106.4" height="30.4"/>
<rect x="797.4" y="747.8" class="st2" width="106.4" height="30.4"/>
<rect x="833.2" y="790.1" class="st1" width="13.9" height="126.5"/>
<rect x="833.2" y="790.1" class="st2" width="13.9" height="126.5"/>
<rect x="782.5" y="905.3" class="st1" width="63.1" height="11.3"/>
<rect x="782.5" y="905.3" class="st2" width="63.1" height="11.3"/>
<polygon class="st2" points="839.8,905.3 512.6,905.3 512.6,810.2 507.4,810.2 507.4,905.3 507.4,916.6 512.6,916.6 839.8,916.6 "/>
<rect x="419.5" y="775.6" class="st2" width="7.6" height="7.5"/>
<rect x="223.6" y="775.6" class="st2" width="7.6" height="7.5"/>
<rect x="222.7" y="775.6" class="st2" width="212.7" height="7.5"/>
<rect x="222.7" y="747.8" class="st2" width="218.3" height="63.6"/>
<path class="st2" d="M399.8,344.5l30.2-56.6c0,0-4.3-3-13.5-5.5c-9.2-2.5-15.6-2.5-15.6-2.5"/>
<path class="st2" d="M558.5,366l-74,39.9c0,0-3.9-5.7-7.2-17.8c-3.3-12.2-3.3-20.6-3.3-20.6"/>
<path class="st2" d="M611.9,366l74,39.9c0,0,3.9-5.7,7.2-17.8c3.3-12.2,3.3-20.6,3.3-20.6"/>
<rect x="716.5" y="774.1" class="st2" width="185" height="20.1"/>
<rect x="723.8" y="747.8" class="st2" width="185" height="17.8"/>
<rect x="716.5" y="765.8" class="st2" width="149" height="8.6"/>
<rect x="632.4" y="765.8" class="st2" width="10.1" height="8.6"/>
<rect x="716.5" y="765.8" class="st2" width="7.1" height="8.6"/>
<rect x="723.8" y="765.8" class="st2" width="2.2" height="8.6"/>
<path class="st2" d="M709.5,198.8l89.3-51.1c0,0,5,7.7,9.3,24.2c4.3,16.5,4.3,28,4.3,28"/>
<path class="st2" d="M642.3,765.7l64.4-36.8c0,0,3.6,5.6,6.7,17.5c3.1,11.9,3.1,20.2,3.1,20.2"/>
<rect x="156" y="409.2" class="st2" width="60.2" height="58.2"/>
<path class="st2" d="M209,462.8c1.1,0,2.1-0.9,2.1-2.1v-36.6c0-1.1-0.9-2.1-2.1-2.1h-45.7c-1.1,0-2.1,0.9-2.1,2.1v36.6
	c0,1.1,0.9,2.1,2.1,2.1H209z"/>
<path class="st2" d="M205.1,458.5c1.1,0,2.1-0.9,2.1-2.1v-28.2c0-1.1-0.9-2.1-2.1-2.1h-37.9c-1.1,0-2.1,0.9-2.1,2.1v28.2
	c0,1.1,0.9,2.1,2.1,2.1H205.1z"/>
<path class="st2" d="M186.1,431.2c-1.3,0-2.3,1-2.3,2.3c0,1.3,1,2.3,2.3,2.3c1.3,0,2.3-1,2.3-2.3
	C188.4,432.3,187.4,431.2,186.1,431.2z"/>
<path class="st2" d="M186.1,413.7c-1.3,0-2.3,1-2.3,2.3c0,1.3,1,2.3,2.3,2.3c1.3,0,2.3-1,2.3-2.3
	C188.4,414.7,187.4,413.7,186.1,413.7z"/>
<path class="st1" d="M320.6,290.7c9.9,0,18-8.1,18-18v-26.1c0-1.7-1.4-3.1-3.1-3.1h-29.8c-1.7,0-3.1,1.4-3.1,3.1v26.1
	C302.6,282.6,310.6,290.7,320.6,290.7 M305.7,242.2h29.8c2.4,0,4.3,2,4.3,4.3v26.1c0,10.6-8.6,19.3-19.2,19.3
	c-10.6,0-19.3-8.6-19.3-19.3v-26.1C301.3,244.1,303.3,242.2,305.7,242.2"/>
<path class="st2" d="M320.6,290.7c9.9,0,18-8.1,18-18v-26.1c0-1.7-1.4-3.1-3.1-3.1h-29.8c-1.7,0-3.1,1.4-3.1,3.1v26.1
	C302.6,282.6,310.6,290.7,320.6,290.7z M305.7,242.2h29.8c2.4,0,4.3,2,4.3,4.3v26.1c0,10.6-8.6,19.3-19.2,19.3
	c-10.6,0-19.3-8.6-19.3-19.3v-26.1C301.3,244.1,303.3,242.2,305.7,242.2z"/>
<path class="st2" d="M333.5,252.1h-25.9c-0.2,0-0.3,0.1-0.3,0.3v19.7c0,7.3,6,13.2,13.2,13.2c7.3,0,13.2-6,13.2-13.2v-19.7
	C333.8,252.3,333.7,252.1,333.5,252.1z"/>
<path class="st1" d="M333.2,252.8H308v19.4c0,7,5.7,12.6,12.6,12.6c7,0,12.6-5.7,12.6-12.6V252.8z M307.7,251.5h25.8
	c0.5,0,0.9,0.4,0.9,0.9v19.7c0,7.6-6.2,13.9-13.9,13.9c-7.6,0-13.9-6.2-13.9-13.9v-19.7C306.7,251.9,307.1,251.5,307.7,251.5"/>
<path class="st2" d="M333.2,252.8H308v19.4c0,7,5.7,12.6,12.6,12.6c7,0,12.6-5.7,12.6-12.6V252.8z M307.7,251.5h25.8
	c0.5,0,0.9,0.4,0.9,0.9v19.7c0,7.6-6.2,13.9-13.9,13.9c-7.6,0-13.9-6.2-13.9-13.9v-19.7C306.7,251.9,307.1,251.5,307.7,251.5z"/>
<path class="st1" d="M320.6,272.2c1.9,0,3.4-1.5,3.4-3.4c0-1.9-1.5-3.4-3.4-3.4c-1.9,0-3.4,1.5-3.4,3.4
	C317.1,270.7,318.7,272.2,320.6,272.2 M320.6,264.1c2.6,0,4.7,2.1,4.7,4.7c0,2.6-2.1,4.7-4.7,4.7c-2.6,0-4.7-2.1-4.7-4.7
	C315.9,266.2,318,264.1,320.6,264.1"/>
<path class="st2" d="M320.6,272.2c1.9,0,3.4-1.5,3.4-3.4c0-1.9-1.5-3.4-3.4-3.4c-1.9,0-3.4,1.5-3.4,3.4
	C317.1,270.7,318.7,272.2,320.6,272.2z M320.6,264.1c2.6,0,4.7,2.1,4.7,4.7c0,2.6-2.1,4.7-4.7,4.7c-2.6,0-4.7-2.1-4.7-4.7
	C315.9,266.2,318,264.1,320.6,264.1z"/>
<polygon class="st1" points="330.7,254.6 331.7,255.4 325.4,263.7 324.4,263 "/>
<polygon class="st2" points="330.7,254.6 331.7,255.4 325.4,263.7 324.4,263 "/>
<polygon class="st1" points="310.7,254.6 317,263 316,263.7 309.7,255.4 "/>
<polygon class="st2" points="310.7,254.6 317,263 316,263.7 309.7,255.4 "/>
<path class="st1" d="M333,242.2c2.7,0,5-2.2,5-5v-6.8c0-2.8-2.2-5-5-5h-24.9c-2.8,0-5,2.3-5,5v6.8c0,2.8,2.2,5,5,5H333z
	 M308.1,224.1H333c3.4,0,6.2,2.8,6.2,6.3v6.8c0,3.4-2.8,6.2-6.2,6.2h-24.9c-3.4,0-6.2-2.8-6.2-6.2v-6.8
	C301.9,226.9,304.7,224.1,308.1,224.1"/>
<path class="st2" d="M333,242.2c2.7,0,5-2.2,5-5v-6.8c0-2.8-2.2-5-5-5h-24.9c-2.8,0-5,2.3-5,5v6.8c0,2.8,2.2,5,5,5H333z
	 M308.1,224.1H333c3.4,0,6.2,2.8,6.2,6.3v6.8c0,3.4-2.8,6.2-6.2,6.2h-24.9c-3.4,0-6.2-2.8-6.2-6.2v-6.8
	C301.9,226.9,304.7,224.1,308.1,224.1z"/>
<path class="st1" d="M320.6,235.7c1.1,0,1.9-0.9,1.9-2c0-1.1-0.9-1.9-1.9-1.9c-1.1,0-1.9,0.9-1.9,1.9
	C318.6,234.9,319.5,235.7,320.6,235.7 M320.6,230.6c1.8,0,3.2,1.4,3.2,3.2c0,1.8-1.4,3.2-3.2,3.2c-1.8,0-3.2-1.4-3.2-3.2
	C317.4,232,318.8,230.6,320.6,230.6"/>
<path class="st2" d="M320.6,235.7c1.1,0,1.9-0.9,1.9-2c0-1.1-0.9-1.9-1.9-1.9c-1.1,0-1.9,0.9-1.9,1.9
	C318.6,234.9,319.5,235.7,320.6,235.7z M320.6,230.6c1.8,0,3.2,1.4,3.2,3.2c0,1.8-1.4,3.2-3.2,3.2c-1.8,0-3.2-1.4-3.2-3.2
	C317.4,232,318.8,230.6,320.6,230.6z"/>
<rect x="197.9" y="330.7" class="st2" width="53" height="59"/>
<line class="st2" x1="251" y1="331.5" x2="198.2" y2="389.6"/>
<line class="st2" x1="251" y1="390.2" x2="198.2" y2="332.2"/>
<path class="st1" d="M224.6,259.9c10.1,0,18.3-8.2,18.3-18.3v-19.4c0-1.5-1.2-2.8-2.8-2.8h-41.3c-1.5,0-2.8,1.2-2.8,2.8v19.4
	c0,10.1,8.2,18.3,18.3,18.3H224.6z M198.8,218.4h41.3c2.1,0,3.8,1.7,3.8,3.8v19.4c0,10.6-8.7,19.3-19.3,19.3h-10.3
	c-10.7,0-19.3-8.7-19.3-19.3v-19.4C195,220.2,196.7,218.4,198.8,218.4"/>
<path class="st2" d="M224.6,259.9c10.1,0,18.3-8.2,18.3-18.3v-19.4c0-1.5-1.2-2.8-2.8-2.8h-41.3c-1.5,0-2.8,1.2-2.8,2.8v19.4
	c0,10.1,8.2,18.3,18.3,18.3H224.6z M198.8,218.4h41.3c2.1,0,3.8,1.7,3.8,3.8v19.4c0,10.6-8.7,19.3-19.3,19.3h-10.3
	c-10.7,0-19.3-8.7-19.3-19.3v-19.4C195,220.2,196.7,218.4,198.8,218.4z"/>
<path class="st1" d="M224.6,255.4c7.6,0,13.7-6.2,13.7-13.7v-11.3c0-1.3-1.1-2.4-2.4-2.4h-33c-1.3,0-2.4,1.1-2.4,2.4v11.3
	c0,7.6,6.1,13.7,13.7,13.7H224.6z M202.9,226.9h33c1.9,0,3.4,1.5,3.4,3.4v11.3c0,8.1-6.6,14.8-14.7,14.8h-10.3
	c-8.1,0-14.7-6.6-14.7-14.8v-11.3C199.5,228.4,201.1,226.9,202.9,226.9"/>
<path class="st2" d="M224.6,255.4c7.6,0,13.7-6.2,13.7-13.7v-11.3c0-1.3-1.1-2.4-2.4-2.4h-33c-1.3,0-2.4,1.1-2.4,2.4v11.3
	c0,7.6,6.1,13.7,13.7,13.7H224.6z M202.9,226.9h33c1.9,0,3.4,1.5,3.4,3.4v11.3c0,8.1-6.6,14.8-14.7,14.8h-10.3
	c-8.1,0-14.7-6.6-14.7-14.8v-11.3C199.5,228.4,201.1,226.9,202.9,226.9z"/>
<path class="st1" d="M219.4,245.8c1.3,0,2.3-1,2.3-2.3c0-1.3-1-2.3-2.3-2.3c-1.3,0-2.3,1-2.3,2.3
	C217.1,244.7,218.1,245.8,219.4,245.8 M219.4,240.1c1.9,0,3.4,1.5,3.4,3.4s-1.5,3.4-3.4,3.4c-1.9,0-3.4-1.5-3.4-3.4
	S217.6,240.1,219.4,240.1"/>
<path class="st2" d="M219.4,245.8c1.3,0,2.3-1,2.3-2.3c0-1.3-1-2.3-2.3-2.3c-1.3,0-2.3,1-2.3,2.3
	C217.1,244.7,218.1,245.8,219.4,245.8z M219.4,240.1c1.9,0,3.4,1.5,3.4,3.4s-1.5,3.4-3.4,3.4c-1.9,0-3.4-1.5-3.4-3.4
	S217.6,240.1,219.4,240.1z"/>
<path class="st2" d="M153.1,249.3c-1.5,0-2.7,1.2-2.7,2.7c0,1.5,1.2,2.7,2.7,2.7c1.5,0,2.7-1.2,2.7-2.7
	C155.8,250.5,154.6,249.3,153.1,249.3z"/>
<path class="st2" d="M170.5,387.5c8.5,0,15.4-6.9,15.4-15.4V240c0-8.5-6.9-15.4-15.4-15.4h-30.7c-8.5,0-15.4,6.9-15.4,15.4v132.1
	c0,8.5,6.9,15.4,15.4,15.4H170.5z"/>
<path class="st2" d="M164.7,376.2c8.5,0,15.4-6.9,15.4-15.4V251.3c0-8.5-6.9-15.4-15.4-15.4h-19.3c-8.5,0-15.4,6.9-15.4,15.4v109.5
	c0,8.5,6.9,15.4,15.4,15.4H164.7z"/>
<path class="st2" d="M166.9,362.6c4.2,0,7.7-3.4,7.7-7.7v-105c0-4.2-3.4-7.7-7.7-7.7h-23.7c-4.2,0-7.7,3.4-7.7,7.7v105
	c0,4.2,3.4,7.7,7.7,7.7H166.9z"/>
<polygon class="st2" points="119.3,218.3 119.3,218.3 119.3,393.8 190.9,393.8 190.9,218.3 "/>
<g>
	<path class="st1" d="M619.2,507.9c0.5,1.7,0.9,3.1,1.2,4.2c0.3,1.1,0.6,2,0.9,2.7c0.3,0.7,0.6,1.1,1,1.4c0.4,0.3,0.8,0.4,1.3,0.4
		v4.1c-0.6,0-1,0.1-1.4,0.4c-0.4,0.3-0.7,0.7-1,1.4c-0.3,0.7-0.7,1.6-1.1,2.9c-0.4,1.3-0.9,2.9-1.6,5h-6.4c0.5-1.9,1-3.4,1.4-4.7
		c0.4-1.3,0.8-2.3,1.1-3.2c0.4-0.8,0.8-1.5,1.2-2c0.4-0.5,1-0.9,1.6-1.1c0.6-0.3,1.4-0.4,2.3-0.6v-0.2c-0.9-0.1-1.6-0.3-2.2-0.6
		c-0.6-0.3-1.1-0.6-1.5-1.1c-0.4-0.5-0.7-1.1-1-1.9c-0.3-0.8-0.6-1.8-1-2.9c-0.3-1.2-0.7-2.5-1.2-4.1H619.2z M625.9,516.7v4.1h-3.2
		v-4.1H625.9z M630.4,507.9v6c0,0.8-0.1,1.6-0.2,2.4c-0.1,0.8-0.4,1.6-0.7,2.3c0.2,0.7,0.4,1.4,0.6,2.2c0.2,0.8,0.3,1.5,0.3,2.1v7.5
		h-5.9v-7.5c0-0.6,0.1-1.3,0.3-2.1s0.4-1.5,0.6-2.2c-0.3-0.7-0.5-1.5-0.7-2.3c-0.1-0.8-0.2-1.6-0.2-2.4v-6H630.4z M632.2,516.7v4.1
		h-3.1v-4.1H632.2z M642,507.9c-0.5,1.6-0.9,3-1.2,4.1c-0.3,1.2-0.7,2.1-1,2.9c-0.3,0.8-0.7,1.4-1,1.9c-0.4,0.5-0.9,0.9-1.5,1.1
		c-0.6,0.3-1.3,0.4-2.2,0.6v0.2c0.9,0.1,1.7,0.3,2.3,0.6c0.6,0.3,1.1,0.6,1.6,1.1c0.4,0.5,0.8,1.2,1.2,2c0.4,0.8,0.7,1.9,1.1,3.2
		c0.4,1.3,0.8,2.9,1.4,4.7h-6.4c-0.6-2-1.1-3.7-1.5-5c-0.4-1.3-0.7-2.2-1-2.9c-0.3-0.7-0.6-1.1-1-1.4c-0.4-0.2-0.8-0.4-1.4-0.4
		l-0.1-4.1c0.6,0,1-0.1,1.4-0.4c0.4-0.3,0.7-0.8,1-1.4c0.3-0.7,0.6-1.6,1-2.7c0.3-1.1,0.8-2.5,1.3-4.2H642z"/>
	<path class="st1" d="M661.6,514.2v16.2l-5.3,0.1v-7.4c0-0.5,0-0.9,0.1-1.4c0-0.4,0.1-0.9,0.2-1.5h-0.1c-0.2,0.5-0.4,0.9-0.6,1.4
		c-0.3,0.5-0.5,0.9-0.7,1.3l-5.1,7.5h-5.2v-16.2h5.3v7.7c0,0.4,0,0.8-0.1,1.2c0,0.4-0.1,0.8-0.2,1.3h0.1c0.2-0.5,0.3-0.9,0.6-1.3
		c0.2-0.4,0.4-0.8,0.7-1.1l5.2-7.8H661.6z"/>
	<path class="st1" d="M681.1,514.2v3.9h-6.9c-0.5,0-0.8,0.1-1.1,0.3c-0.2,0.2-0.4,0.6-0.5,1c-0.1,0.8-0.2,1.7-0.3,2.6
		c-0.1,0.9-0.2,1.7-0.3,2.4c-0.1,0.7-0.2,1.4-0.3,1.9c-0.2,1.3-0.7,2.3-1.4,3s-1.6,1.1-2.7,1.3c-1,0.2-2.2,0.1-3.3,0l-0.6-4.3
		c0.5-0.1,0.9-0.2,1.2-0.2c0.4-0.1,0.7-0.2,0.9-0.4c0.3-0.2,0.4-0.5,0.5-0.9c0.1-0.3,0.2-0.7,0.3-1.1c0.1-0.4,0.2-0.9,0.2-1.5
		c0.1-0.6,0.1-1.2,0.2-1.8c0.1-0.6,0.1-1.3,0.2-2.1c0.1-1.4,0.6-2.4,1.3-3.1c0.7-0.7,1.8-1,3.2-1H681.1z M681.5,514.2v16.2h-5.9
		v-16.2H681.5z"/>
	<path class="st1" d="M698.4,520.4l0,3h-7c-0.5,0-0.8,0.1-1.1,0.4c-0.2,0.2-0.4,0.5-0.4,0.9v0.6c0,0.4,0.1,0.7,0.4,1
		s0.7,0.3,1.2,0.3c0.5,0,1.1-0.1,1.7-0.4s1.2-0.6,1.8-1c0.6-0.4,1.1-0.9,1.5-1.3v2.1c-0.2,0.3-0.4,0.8-0.8,1.3
		c-0.4,0.5-0.8,1.1-1.4,1.6c-0.6,0.5-1.3,1-2.1,1.3c-0.8,0.4-1.7,0.5-2.8,0.5c-1,0-1.9-0.2-2.7-0.5c-0.8-0.3-1.5-0.9-2-1.5
		c-0.5-0.7-0.7-1.5-0.7-2.5v-1.6c0-1.3,0.5-2.3,1.4-3.1c0.9-0.7,2.2-1.1,3.8-1.1H698.4z M694,513.7c1.5,0,2.7,0.2,3.7,0.6
		c1,0.4,1.8,1,2.3,2c0.5,0.9,0.8,2.2,0.8,3.8v10.4H696l-0.8-3.5l-0.4-0.6V520c0-0.7-0.2-1.2-0.5-1.5c-0.3-0.3-0.9-0.4-1.7-0.4
		c-0.8,0-1.9,0-3.1,0c-1.2,0-2.5,0.1-3.9,0.2l-0.5-3.8c0.8-0.2,1.8-0.3,2.8-0.4c1.1-0.1,2.2-0.2,3.3-0.3
		C692.2,513.8,693.2,513.7,694,513.7z"/>
	<path class="st1" d="M711.2,513.8c1.5,0,2.7,0,3.7,0c1,0,1.8,0,2.5,0.1c0.7,0,1.4,0.1,2.1,0.2l-0.4,4c-0.2-0.1-0.9-0.1-2.3-0.1
		c-1.4,0-3.2,0-5.4,0c-0.7,0-1.2,0.1-1.5,0.3c-0.2,0.2-0.4,0.6-0.4,1.2c0,0.8,0.1,1.4,0.4,1.7s0.7,0.4,1.5,0.4h7.7l0.1,3.5
		c-0.4,0-0.9,0-1.5,0.1c-0.6,0-1.3,0-2.3,0s-2.2,0-3.9,0c-0.5,0-0.9,0.1-1.1,0.2c-0.2,0.1-0.4,0.4-0.4,0.7l-1,4.3h-6.1l1.3-5.1
		c0.2-0.5,0.4-0.8,0.8-1.1c0.4-0.2,0.8-0.4,1.2-0.5c0.4-0.1,0.8-0.1,1.1-0.2v-0.2c-0.9-0.2-1.7-0.5-2.2-0.9c-0.5-0.4-0.9-1-1.1-1.6
		c-0.2-0.6-0.3-1.2-0.3-1.9c0-1,0.1-1.9,0.3-2.5c0.2-0.7,0.6-1.2,1.2-1.6c0.6-0.4,1.3-0.7,2.3-0.8S709.7,513.8,711.2,513.8z
		 M719.5,514v16.4h-5.8V514H719.5z"/>
	<path class="st1" d="M735.8,514.2v3.8c0,0.6-0.1,1.3-0.2,2c-0.1,0.7-0.4,1.3-0.6,1.9c0.2,0.5,0.4,1.1,0.6,1.7
		c0.2,0.6,0.2,1.2,0.2,1.7v5.1h-5.9v-16.2H735.8z M737.7,520.1v3.9h-3.3v-3.9H737.7z M746.2,514.2c-0.4,1.3-0.8,2.5-1,3.4
		c-0.3,0.9-0.5,1.6-0.8,2.1s-0.5,0.9-0.8,1.2c-0.3,0.3-0.7,0.5-1.2,0.6c-0.5,0.1-1.1,0.3-1.8,0.4v0.2c0.8,0.1,1.4,0.2,1.9,0.4
		c0.5,0.1,0.9,0.3,1.3,0.6c0.4,0.3,0.7,0.7,0.9,1.3c0.3,0.6,0.6,1.3,0.9,2.3c0.3,1,0.7,2.2,1.2,3.8h-6.2c-0.4-1.3-0.7-2.4-0.9-3.2
		c-0.3-0.8-0.5-1.5-0.7-1.9c-0.2-0.5-0.4-0.8-0.6-1c-0.2-0.2-0.5-0.3-0.8-0.3s-0.7-0.1-1.1-0.1l-0.1-3.9c0.6,0,1.1-0.1,1.4-0.2
		c0.4-0.1,0.6-0.4,0.9-0.7c0.2-0.4,0.5-1,0.7-1.7c0.2-0.8,0.5-1.9,0.9-3.2H746.2z"/>
	<path class="st1" d="M757,513.7c2.1,0,3.8,0.3,5.1,0.8s2.2,1.5,2.8,2.7s0.8,2.9,0.8,5c0,2.1-0.3,3.8-0.8,5
		c-0.6,1.2-1.5,2.1-2.8,2.7c-1.3,0.6-3,0.8-5.1,0.8c-2.1,0-3.8-0.3-5.1-0.8c-1.3-0.6-2.2-1.4-2.8-2.7c-0.6-1.2-0.9-2.9-0.9-5
		c0-2.1,0.3-3.8,0.9-5c0.6-1.3,1.5-2.2,2.8-2.7S754.9,513.7,757,513.7z M757,517.9c-0.7,0-1.2,0.1-1.5,0.4c-0.4,0.2-0.6,0.7-0.8,1.3
		c-0.2,0.6-0.2,1.6-0.2,2.8c0,1.2,0.1,2.1,0.2,2.7c0.2,0.6,0.4,1.1,0.8,1.3c0.4,0.2,0.9,0.3,1.5,0.3c0.7,0,1.2-0.1,1.6-0.3
		c0.4-0.2,0.6-0.7,0.8-1.3c0.1-0.6,0.2-1.5,0.2-2.7c0-1.2-0.1-2.1-0.2-2.8c-0.1-0.6-0.4-1.1-0.8-1.3
		C758.2,518,757.6,517.9,757,517.9z"/>
	<path class="st1" d="M789.2,514.2c1.3,0,2,0.7,2,2l0.4,14.2h-5.4l-0.4-11.9h-0.4l-1.9,7.9c-0.1,0.6-0.4,1-0.7,1.4
		c-0.4,0.3-0.9,0.5-1.5,0.5h-2.6c-0.6,0-1.1-0.2-1.5-0.5c-0.4-0.3-0.6-0.8-0.7-1.4l-2-7.9H774l-0.3,11.9h-5.4l0.4-14.2
		c0-1.3,0.7-2,2.1-2h5c0.6,0,1.1,0.2,1.5,0.5c0.4,0.3,0.6,0.8,0.7,1.4l1.5,6c0.1,0.4,0.2,0.8,0.2,1.2c0,0.4,0.1,0.8,0.1,1.2h0.3
		c0-0.4,0.1-0.8,0.1-1.2c0-0.4,0.1-0.8,0.2-1.2l1.4-6c0.2-1.2,0.9-1.9,2.2-1.9H789.2z"/>
	<path class="st1" d="M800.7,514.2v16.2h-5.9v-16.2H800.7z M806,519.9v3.9h-5.5v-3.9H806z M811.5,514.2v16.2h-5.8v-16.2H811.5z"/>
	<path class="st1" d="M828.5,520.4l0,3h-7c-0.5,0-0.8,0.1-1.1,0.4c-0.2,0.2-0.4,0.5-0.4,0.9v0.6c0,0.4,0.1,0.7,0.4,1
		s0.7,0.3,1.2,0.3c0.5,0,1.1-0.1,1.7-0.4c0.6-0.2,1.2-0.6,1.8-1c0.6-0.4,1.1-0.9,1.5-1.3v2.1c-0.2,0.3-0.4,0.8-0.8,1.3
		c-0.4,0.5-0.8,1.1-1.4,1.6s-1.3,1-2.1,1.3c-0.8,0.4-1.7,0.5-2.8,0.5c-1,0-1.9-0.2-2.7-0.5c-0.8-0.3-1.5-0.9-2-1.5
		c-0.5-0.7-0.7-1.5-0.7-2.5v-1.6c0-1.3,0.5-2.3,1.4-3.1s2.2-1.1,3.8-1.1H828.5z M824.1,513.7c1.5,0,2.7,0.2,3.7,0.6
		c1,0.4,1.8,1,2.3,2c0.5,0.9,0.8,2.2,0.8,3.8v10.4h-4.7l-0.8-3.5l-0.4-0.6V520c0-0.7-0.2-1.2-0.5-1.5c-0.3-0.3-0.9-0.4-1.7-0.4
		c-0.8,0-1.9,0-3.1,0c-1.2,0-2.5,0.1-3.9,0.2l-0.5-3.8c0.8-0.2,1.8-0.3,2.8-0.4c1.1-0.1,2.2-0.2,3.3-0.3
		C822.3,513.8,823.2,513.7,824.1,513.7z"/>
	<path class="st1" d="M849.1,514.2v4.4h-16.3v-4.4H849.1z M844,514.2v16.2H838v-16.2H844z"/>
	<path class="st1" d="M864.7,520.4l0,3h-7c-0.5,0-0.8,0.1-1.1,0.4c-0.2,0.2-0.4,0.5-0.4,0.9v0.6c0,0.4,0.1,0.7,0.4,1
		c0.3,0.2,0.7,0.3,1.2,0.3c0.5,0,1.1-0.1,1.7-0.4c0.6-0.2,1.2-0.6,1.8-1c0.6-0.4,1.1-0.9,1.5-1.3v2.1c-0.2,0.3-0.4,0.8-0.8,1.3
		c-0.4,0.5-0.8,1.1-1.4,1.6s-1.3,1-2.1,1.3c-0.8,0.4-1.7,0.5-2.8,0.5c-1,0-1.9-0.2-2.7-0.5c-0.8-0.3-1.5-0.9-2-1.5
		c-0.5-0.7-0.7-1.5-0.7-2.5v-1.6c0-1.3,0.5-2.3,1.4-3.1s2.2-1.1,3.8-1.1H864.7z M860.3,513.7c1.5,0,2.7,0.2,3.7,0.6
		c1,0.4,1.8,1,2.3,2c0.5,0.9,0.8,2.2,0.8,3.8v10.4h-4.7l-0.8-3.5l-0.4-0.6V520c0-0.7-0.2-1.2-0.5-1.5c-0.3-0.3-0.9-0.4-1.7-0.4
		c-0.8,0-1.9,0-3.1,0c-1.2,0-2.5,0.1-3.9,0.2l-0.5-3.8c0.8-0.2,1.8-0.3,2.8-0.4c1.1-0.1,2.2-0.2,3.3-0.3
		C858.5,513.8,859.5,513.7,860.3,513.7z"/>
</g>
<g>
	<path class="st1" d="M597.3,269.1v6c0,0.8-0.1,1.6-0.2,2.4c-0.1,0.8-0.4,1.6-0.6,2.3c0.2,0.7,0.4,1.4,0.6,2.2
		c0.2,0.8,0.3,1.5,0.3,2.1v7.5h-6.1v-22.5H597.3z M599.7,277.9v4.1h-3.9v-4.1H599.7z M609.7,269.1c-0.5,1.6-0.9,3-1.3,4.2
		c-0.4,1.2-0.7,2.1-1,2.9c-0.3,0.8-0.7,1.4-1.1,1.9c-0.4,0.5-0.9,0.9-1.5,1.1c-0.6,0.3-1.3,0.4-2.2,0.6v0.2c0.9,0.1,1.7,0.3,2.3,0.6
		c0.6,0.3,1.2,0.6,1.6,1.1c0.4,0.5,0.9,1.2,1.2,2c0.4,0.8,0.7,1.9,1.1,3.2c0.4,1.3,0.9,2.9,1.4,4.7H604c-0.6-2-1.1-3.7-1.5-5
		c-0.4-1.3-0.8-2.2-1.1-2.9c-0.4-0.7-0.8-1.1-1.3-1.4c-0.5-0.2-1.1-0.4-1.9-0.4l-0.1-4.1c0.8,0,1.5-0.1,2-0.4
		c0.5-0.3,0.9-0.8,1.3-1.4c0.3-0.7,0.7-1.6,1-2.7c0.3-1.1,0.7-2.5,1.2-4.2H609.7z"/>
	<path class="st1" d="M620.6,275c2.1,0,3.8,0.3,5.1,0.8c1.3,0.6,2.2,1.5,2.8,2.7c0.6,1.3,0.8,2.9,0.8,5c0,2.1-0.3,3.8-0.8,5
		c-0.6,1.2-1.5,2.1-2.8,2.7c-1.3,0.6-3,0.8-5.1,0.8c-2.1,0-3.8-0.3-5.1-0.8c-1.3-0.6-2.2-1.4-2.8-2.7c-0.6-1.2-0.9-2.9-0.9-5
		c0-2.1,0.3-3.8,0.9-5c0.6-1.3,1.5-2.2,2.8-2.7S618.5,275,620.6,275z M620.6,279.1c-0.7,0-1.2,0.1-1.5,0.4c-0.4,0.2-0.6,0.7-0.8,1.3
		c-0.2,0.6-0.2,1.6-0.2,2.8c0,1.2,0.1,2.1,0.2,2.7c0.2,0.6,0.4,1.1,0.8,1.3c0.4,0.2,0.9,0.3,1.5,0.3c0.7,0,1.2-0.1,1.6-0.3
		c0.4-0.2,0.6-0.7,0.8-1.3c0.1-0.6,0.2-1.5,0.2-2.7c0-1.2-0.1-2.1-0.2-2.8c-0.1-0.6-0.4-1.1-0.8-1.3
		C621.8,279.2,621.3,279.1,620.6,279.1z"/>
	<path class="st1" d="M636.9,275.4l0.6,2.7l0.6,0.5v10.7l-0.2,0.4c0.1,0.7,0.1,1.4,0.1,2.2c0,0.8,0,1.5,0,2.2v3.6h-5.9v-22.3H636.9z
		 M643.6,275c2.1,0,3.6,0.8,4.5,2.3c0.9,1.5,1.3,3.6,1.3,6.4c0,2.2-0.2,3.9-0.7,5.1s-1.1,2.1-2,2.5c-0.9,0.5-2,0.7-3.4,0.7
		c-1.2,0-2.3-0.2-3.4-0.5c-1.1-0.4-2-1-2.7-1.8l0.4-2.4c0.6,0.2,1.1,0.3,1.6,0.5c0.5,0.2,1.1,0.2,1.8,0.2c0.6,0,1-0.1,1.3-0.3
		c0.3-0.2,0.6-0.6,0.7-1.2c0.2-0.6,0.2-1.6,0.2-2.8c0-1.2-0.1-2.2-0.2-2.8c-0.1-0.6-0.4-1-0.7-1.3c-0.3-0.2-0.7-0.3-1.3-0.3
		c-0.6,0-1.2,0.1-1.6,0.3c-0.4,0.2-0.9,0.5-1.5,0.8l-0.8-2.4c0.3-0.6,0.8-1.1,1.5-1.5c0.6-0.5,1.4-0.8,2.2-1.1
		C641.8,275.2,642.7,275,643.6,275z"/>
	<path class="st1" d="M669,275.4v16.2l-5.3,0.1v-7.4c0-0.5,0-0.9,0.1-1.4c0-0.4,0.1-0.9,0.2-1.5h-0.1c-0.2,0.5-0.4,0.9-0.6,1.4
		c-0.3,0.5-0.5,0.9-0.7,1.3l-5.1,7.5h-5.2v-16.2h5.3v7.7c0,0.4,0,0.8-0.1,1.2c0,0.4-0.1,0.8-0.2,1.3h0.1c0.2-0.5,0.3-0.9,0.6-1.3
		c0.2-0.4,0.4-0.8,0.7-1.1l5.2-7.8H669z"/>
	<path class="st1" d="M691.6,287.7v4h-20.3v-4H691.6z M675.6,291.5l-0.4,4.7h-3.9v-4.7H675.6z M688.5,275.4v3.7h-6.7
		c-0.8,0-1.3,0.4-1.5,1.3c-0.3,1.8-0.6,3.4-1,4.7c-0.4,1.3-0.8,2.5-1.4,3.5c-0.5,1-1.2,2-2,3h-4.5c0.8-1.4,1.4-2.8,1.9-4.1
		s0.9-2.7,1.2-4.1c0.3-1.4,0.5-2.7,0.7-4.1c0.2-1.3,0.6-2.3,1.4-2.9c0.7-0.7,1.8-1,3.2-1H688.5z M688.9,275.4v16.2h-5.6v-16.2H688.9
		z M691.6,291.5v4.7h-4l-0.4-4.7H691.6z"/>
	<path class="st1" d="M702,275c2.1,0,3.8,0.3,5.1,0.8c1.3,0.6,2.2,1.5,2.8,2.7c0.6,1.3,0.8,2.9,0.8,5c0,2.1-0.3,3.8-0.8,5
		c-0.6,1.2-1.5,2.1-2.8,2.7c-1.3,0.6-3,0.8-5.1,0.8c-2.1,0-3.8-0.3-5.1-0.8c-1.3-0.6-2.2-1.4-2.8-2.7c-0.6-1.2-0.9-2.9-0.9-5
		c0-2.1,0.3-3.8,0.9-5c0.6-1.3,1.5-2.2,2.8-2.7S699.9,275,702,275z M702,279.1c-0.7,0-1.2,0.1-1.5,0.4c-0.4,0.2-0.6,0.7-0.8,1.3
		c-0.2,0.6-0.2,1.6-0.2,2.8c0,1.2,0.1,2.1,0.2,2.7c0.2,0.6,0.4,1.1,0.8,1.3s0.9,0.3,1.5,0.3c0.7,0,1.2-0.1,1.6-0.3
		c0.4-0.2,0.6-0.7,0.8-1.3c0.1-0.6,0.2-1.5,0.2-2.7c0-1.2-0.1-2.1-0.2-2.8c-0.1-0.6-0.4-1.1-0.8-1.3
		C703.2,279.2,702.7,279.1,702,279.1z"/>
	<path class="st1" d="M718.4,275.4l0.6,2.7l0.6,0.5v10.7l-0.2,0.4c0.1,0.7,0.1,1.4,0.1,2.2c0,0.8,0,1.5,0,2.2v3.6h-5.9v-22.3H718.4z
		 M725,275c2.1,0,3.6,0.8,4.5,2.3c0.9,1.5,1.3,3.6,1.3,6.4c0,2.2-0.2,3.9-0.7,5.1c-0.5,1.2-1.1,2.1-2,2.5c-0.9,0.5-2,0.7-3.4,0.7
		c-1.2,0-2.3-0.2-3.4-0.5c-1.1-0.4-2-1-2.7-1.8l0.4-2.4c0.6,0.2,1.1,0.3,1.6,0.5s1.1,0.2,1.8,0.2c0.6,0,1-0.1,1.3-0.3
		c0.3-0.2,0.6-0.6,0.7-1.2c0.2-0.6,0.2-1.6,0.2-2.8c0-1.2-0.1-2.2-0.2-2.8c-0.1-0.6-0.4-1-0.7-1.3c-0.3-0.2-0.7-0.3-1.3-0.3
		c-0.6,0-1.2,0.1-1.6,0.3c-0.4,0.2-0.9,0.5-1.5,0.8l-0.8-2.4c0.3-0.6,0.8-1.1,1.5-1.5c0.6-0.5,1.4-0.8,2.2-1.1
		C723.2,275.2,724.1,275,725,275z"/>
</g>
<g>
	<path class="st1" d="M279.1,647.6v6c0,0.8-0.1,1.6-0.2,2.4c-0.1,0.8-0.4,1.6-0.6,2.3c0.2,0.7,0.4,1.4,0.6,2.2
		c0.2,0.8,0.3,1.5,0.3,2.1v7.5H273v-22.5H279.1z M281.5,656.4v4.1h-3.9v-4.1H281.5z M291.6,647.6c-0.5,1.6-0.9,3-1.3,4.2
		c-0.4,1.2-0.7,2.1-1,2.9c-0.3,0.8-0.7,1.4-1.1,1.9c-0.4,0.5-0.9,0.9-1.5,1.1c-0.6,0.3-1.3,0.4-2.2,0.6v0.2c0.9,0.1,1.7,0.3,2.3,0.6
		c0.6,0.3,1.2,0.6,1.6,1.1c0.4,0.5,0.9,1.2,1.2,2c0.4,0.8,0.7,1.9,1.1,3.2c0.4,1.3,0.9,2.9,1.4,4.7h-6.4c-0.6-2-1.1-3.7-1.5-5
		c-0.4-1.3-0.8-2.2-1.1-2.9c-0.4-0.7-0.8-1.1-1.3-1.4c-0.5-0.2-1.1-0.4-1.9-0.4l-0.1-4.1c0.8,0,1.5-0.1,2-0.4
		c0.5-0.3,0.9-0.8,1.3-1.4c0.3-0.7,0.7-1.6,1-2.7c0.3-1.1,0.7-2.5,1.2-4.2H291.6z"/>
	<path class="st1" d="M299,653.9l2.5,9.7c0.1,0.5,0.2,0.9,0.2,1.4c0.1,0.5,0.1,0.9,0.2,1.4h0.9l-1.9,3.8h-1.3
		c-0.5,0-0.9-0.1-1.2-0.4c-0.3-0.3-0.6-0.6-0.7-1l-5.1-14.8H299z M311.6,653.9l-5.5,16.1c-0.4,1.3-0.9,2.4-1.4,3.2
		c-0.6,0.8-1.2,1.5-1.9,2c-0.7,0.5-1.5,0.9-2.4,1.2c-1,0.3-2,0.5-3.2,0.5c-1.1,0-2.3-0.1-3.4-0.3l0.5-3.8c1,0,1.9,0,2.7-0.1
		c0.8-0.1,1.4-0.3,1.9-0.6c0.4-0.2,0.7-0.6,1.1-1c0.3-0.4,0.6-0.9,0.8-1.4l0.9-2.2c0.2-0.5,0.4-1.2,0.6-2c0.2-0.8,0.3-1.4,0.4-2
		l2.5-9.7H311.6z"/>
	<path class="st1" d="M318.1,653.9l4.2,7.9l-4.5,8.3h-5.9l4.9-8.3l-4.5-7.9H318.1z M324.4,660.1v3.5h-6v-3.5H324.4z M330.5,653.9
		l-4.5,7.9l4.9,8.3h-5.9l-4.5-8.3l4.2-7.9H330.5z"/>
	<path class="st1" d="M338.6,653.9v16.2h-5.9v-16.2H338.6z M343.9,659.7v3.9h-5.5v-3.9H343.9z M349.4,653.9v16.2h-5.8v-16.2H349.4z"
		/>
	<path class="st1" d="M360.1,653.5c1.5,0,2.7,0,3.7,0c1,0,1.8,0,2.5,0.1c0.7,0,1.4,0.1,2.1,0.2l-0.4,4c-0.2-0.1-0.9-0.1-2.3-0.1
		c-1.4,0-3.2,0-5.4,0c-0.7,0-1.2,0.1-1.5,0.3c-0.2,0.2-0.4,0.6-0.4,1.2c0,0.8,0.1,1.4,0.4,1.7c0.2,0.3,0.7,0.4,1.5,0.4h7.7l0.1,3.5
		c-0.4,0-0.9,0-1.5,0.1c-0.6,0-1.3,0-2.3,0c-1,0-2.2,0-3.9,0c-0.5,0-0.9,0.1-1.1,0.2c-0.2,0.1-0.4,0.4-0.4,0.7l-1,4.3h-6.1l1.3-5.1
		c0.2-0.5,0.4-0.8,0.8-1.1c0.4-0.2,0.8-0.4,1.2-0.5c0.4-0.1,0.8-0.1,1.1-0.2v-0.2c-0.9-0.2-1.7-0.5-2.2-0.9c-0.5-0.4-0.9-1-1.1-1.6
		c-0.2-0.6-0.3-1.2-0.3-1.9c0-1,0.1-1.9,0.3-2.5c0.2-0.7,0.6-1.2,1.2-1.6c0.6-0.4,1.3-0.7,2.3-0.8
		C357.3,653.6,358.6,653.5,360.1,653.5z M368.3,653.8v16.4h-5.8v-16.4H368.3z"/>
</g>
<g>
	<path class="st1" d="M308.4,695.4V718h-6.1v-15c0-0.5,0-0.9,0-1.4c0-0.4,0.1-0.9,0.2-1.3l-5.3,1.1l-0.7-3.8l5.8-2.2H308.4z"/>
	<path class="st1" d="M322.3,695c0.6,0,1.4,0,2.5,0.1c1.1,0.1,2.2,0.2,3.3,0.6l-0.3,3.8c-0.6,0-1.2,0-1.7,0s-1.1,0-1.7,0
		c-0.6,0-1.3,0-2.2,0c-0.9,0-1.6,0.1-2.1,0.3c-0.5,0.2-0.9,0.6-1.2,1.1c-0.3,0.5-0.5,1.3-0.5,2.4c-0.1,1-0.1,2.4-0.1,4.1
		c0,1.4,0,2.6,0.1,3.5c0.1,0.9,0.2,1.6,0.4,2c0.2,0.5,0.5,0.8,0.9,0.9c0.4,0.2,0.9,0.2,1.6,0.2c0.8,0,1.4-0.1,1.8-0.4
		c0.4-0.2,0.6-0.6,0.7-1.2c0.1-0.5,0.1-1.3,0.1-2.2c0-0.8-0.1-1.5-0.2-1.9c-0.1-0.4-0.4-0.7-0.8-0.9c-0.4-0.2-1-0.2-1.7-0.2
		c-0.5,0-1,0.1-1.5,0.2c-0.4,0.1-0.9,0.4-1.5,0.7c-0.5,0.3-1.3,0.8-2.2,1.3l-0.1-2.2c0.7-1.1,1.4-2,2.1-2.6c0.7-0.6,1.4-1,2.2-1.3
		c0.8-0.2,1.7-0.4,2.8-0.4c1.7,0,3.1,0.2,4,0.7s1.6,1.2,2,2.3c0.4,1,0.6,2.4,0.6,4c0,1.4-0.1,2.7-0.3,3.7c-0.2,1-0.7,1.9-1.3,2.6
		c-0.6,0.7-1.5,1.2-2.6,1.5c-1.1,0.3-2.5,0.5-4.3,0.5c-1.7,0-3.1-0.2-4.2-0.5c-1.1-0.3-2-0.9-2.7-1.8c-0.7-0.8-1.1-2-1.4-3.5
		c-0.3-1.5-0.4-3.4-0.4-5.7c0-2.6,0.2-4.6,0.6-6.2c0.4-1.6,1-2.8,1.8-3.6c0.8-0.8,1.8-1.4,3.1-1.7C319.2,695.2,320.7,695,322.3,695z
		"/>
	<path class="st1" d="M335.5,712.4c0.8,0,1.3,0.2,1.6,0.5c0.3,0.3,0.4,0.8,0.4,1.6v1.4c0,0.8-0.1,1.3-0.4,1.6
		c-0.3,0.3-0.8,0.5-1.6,0.5h-1.4c-0.8,0-1.3-0.2-1.6-0.5c-0.3-0.3-0.4-0.8-0.4-1.6v-1.4c0-0.8,0.1-1.3,0.4-1.6
		c0.3-0.3,0.8-0.5,1.6-0.5H335.5z"/>
	<path class="st1" d="M348,695c1.9,0,3.4,0.2,4.5,0.5c1.1,0.3,1.9,0.9,2.4,1.6c0.5,0.8,0.7,1.8,0.7,3.2c0,1.1-0.1,2-0.3,2.8
		c-0.2,0.8-0.6,1.4-1.1,1.9c-0.5,0.5-1.3,0.8-2.3,1v0.1c1.6,0.2,2.7,0.8,3.3,1.7c0.6,0.9,0.9,2.2,0.9,3.9c0,1.6-0.2,2.9-0.7,3.9
		c-0.5,1-1.4,1.7-2.6,2.2c-1.2,0.5-2.8,0.7-4.8,0.7c-1.3,0-2.7-0.1-4.1-0.2c-1.4-0.1-2.7-0.3-4.1-0.4l0.2-4.4c1,0.1,1.8,0.1,2.5,0.1
		c0.7,0,1.3,0,1.9,0c0.6,0,1.2,0,1.9,0c1,0,1.7-0.1,2.3-0.2c0.5-0.1,0.9-0.4,1.1-0.8c0.2-0.4,0.3-1,0.3-1.8c0-0.7-0.1-1.2-0.2-1.6
		s-0.4-0.7-0.9-0.9s-1.1-0.3-1.9-0.2l-4.3,0v-3.9h4.3c0.6,0,1.1-0.1,1.5-0.2s0.6-0.3,0.8-0.5c0.2-0.2,0.3-0.5,0.3-0.8
		c0.1-0.3,0.1-0.7,0.1-1c0-0.6-0.1-1.1-0.3-1.4c-0.2-0.3-0.5-0.5-0.9-0.6c-0.4-0.1-1-0.2-1.8-0.2c-1.2,0-2.3,0-3.4,0s-2,0-2.9,0
		l-0.2-4.2c1.3-0.2,2.5-0.4,3.8-0.5C345.5,695,346.8,695,348,695z"/>
</g>
<g>
	<path class="st1" d="M268.9,564.9l-12.1,31.3c-0.3,0.7-0.2,1.2,0.1,1.6c0.3,0.4,0.8,0.6,1.4,0.6h31.1v8.5l-6.4,1.4h-36.1
		c-1.5,0-2.8-0.4-3.8-1.2c-1.1-0.8-1.8-1.8-2.2-3.1c-0.4-1.3-0.3-2.6,0.2-4l13.9-35.2H268.9z M282.9,575.6V620h-13.7v-35.7l2.5-8.6
		H282.9z"/>
	<path class="st1" d="M316.9,563.7c5.6,0,10,0.9,13.3,2.7c3.3,1.8,5.7,4.8,7.1,9c1.4,4.2,2.2,9.9,2.2,17.1c0,7.2-0.7,12.9-2.2,17.1
		c-1.4,4.2-3.8,7.2-7.1,9c-3.3,1.8-7.8,2.7-13.3,2.7c-5.5,0-10-0.9-13.3-2.7c-3.3-1.8-5.7-4.8-7.1-9c-1.4-4.2-2.1-9.9-2.1-17.1
		c0-7.2,0.7-12.9,2.1-17.1c1.4-4.2,3.8-7.2,7.1-9C307,564.6,311.4,563.7,316.9,563.7z M316.9,575.1c-1.5,0-2.7,0.2-3.7,0.7
		c-1,0.5-1.8,1.3-2.3,2.5c-0.6,1.2-0.9,2.9-1.2,5.2c-0.2,2.3-0.3,5.3-0.3,9c0,3.7,0.1,6.7,0.3,9c0.2,2.3,0.6,4,1.2,5.2
		c0.6,1.2,1.3,2,2.3,2.5c1,0.5,2.2,0.7,3.7,0.7c1.5,0,2.8-0.2,3.8-0.7c1-0.5,1.8-1.3,2.4-2.5c0.6-1.2,1-2.9,1.2-5.2
		c0.2-2.3,0.4-5.3,0.4-9c0-3.7-0.1-6.7-0.4-9c-0.2-2.3-0.7-4-1.2-5.2c-0.6-1.2-1.4-2-2.4-2.5C319.7,575.3,318.4,575.1,316.9,575.1z"
		/>
	<path class="st1" d="M354.6,606.4c1.9,0,3.2,0.4,4,1.1c0.7,0.7,1.1,2.1,1.1,3.9v3.5c0,1.9-0.4,3.2-1.1,3.9c-0.7,0.7-2,1.1-4,1.1
		h-3.4c-1.9,0-3.2-0.4-4-1.1c-0.7-0.7-1.1-2.1-1.1-3.9v-3.5c0-1.9,0.4-3.2,1.1-3.9c0.7-0.7,2-1.1,4-1.1H354.6z"/>
	<path class="st1" d="M388.7,563.7c5.6,0,10,0.9,13.3,2.7c3.3,1.8,5.7,4.8,7.1,9c1.4,4.2,2.2,9.9,2.2,17.1c0,7.2-0.7,12.9-2.2,17.1
		c-1.4,4.2-3.8,7.2-7.1,9c-3.3,1.8-7.8,2.7-13.3,2.7c-5.5,0-10-0.9-13.3-2.7c-3.3-1.8-5.7-4.8-7.1-9c-1.4-4.2-2.1-9.9-2.1-17.1
		c0-7.2,0.7-12.9,2.1-17.1c1.4-4.2,3.8-7.2,7.1-9C378.7,564.6,383.2,563.7,388.7,563.7z M388.6,575.1c-1.5,0-2.7,0.2-3.7,0.7
		c-1,0.5-1.8,1.3-2.3,2.5c-0.6,1.2-0.9,2.9-1.2,5.2c-0.2,2.3-0.3,5.3-0.3,9c0,3.7,0.1,6.7,0.3,9c0.2,2.3,0.6,4,1.2,5.2
		c0.6,1.2,1.3,2,2.3,2.5c1,0.5,2.2,0.7,3.7,0.7c1.5,0,2.8-0.2,3.8-0.7c1-0.5,1.8-1.3,2.4-2.5c0.6-1.2,1-2.9,1.2-5.2
		c0.2-2.3,0.4-5.3,0.4-9c0-3.7-0.1-6.7-0.4-9c-0.2-2.3-0.7-4-1.2-5.2c-0.6-1.2-1.4-2-2.4-2.5C391.4,575.3,390.2,575.1,388.6,575.1z"
		/>
</g>
<ellipse transform="matrix(0.3827 -0.9239 0.9239 0.3827 -262.674 603.0157)" class="st2" cx="319.9" cy="498.1" rx="49" ry="49"/>
<g>
	<path class="st1" d="M307.9,479v41.8h-11.3V493c0-0.8,0-1.7,0.1-2.5c0-0.8,0.2-1.6,0.4-2.4l-9.7,2.1l-1.3-7.1l10.6-4.1H307.9z"/>
	<path class="st1" d="M327.9,479v11.1c0,1.5-0.1,2.9-0.4,4.4c-0.3,1.5-0.7,2.9-1.2,4.3c0.4,1.3,0.8,2.6,1.1,4
		c0.3,1.4,0.5,2.7,0.5,3.9v14h-11.3V479H327.9z M332.4,495.3v7.6h-7.3v-7.6H332.4z M351,479c-0.9,3-1.7,5.6-2.4,7.7
		c-0.6,2.1-1.3,3.9-1.9,5.4c-0.6,1.5-1.3,2.6-2,3.5c-0.7,0.9-1.7,1.6-2.8,2.1c-1.1,0.5-2.5,0.8-4.1,1v0.4c1.7,0.2,3.2,0.6,4.3,1.1
		c1.1,0.5,2.1,1.2,3,2.1c0.8,0.9,1.6,2.2,2.3,3.8c0.7,1.6,1.4,3.5,2.1,5.9c0.7,2.4,1.6,5.3,2.7,8.7h-11.9c-1.1-3.8-2-6.9-2.7-9.2
		c-0.7-2.4-1.4-4.2-2.1-5.4c-0.7-1.3-1.5-2.1-2.4-2.6c-0.9-0.5-2.1-0.7-3.5-0.7l-0.2-7.6c1.5,0,2.7-0.3,3.6-0.8
		c0.9-0.5,1.7-1.4,2.4-2.6c0.6-1.2,1.3-2.9,1.9-5c0.6-2.1,1.3-4.7,2.2-7.9H351z"/>
</g>
<g>
	<path class="st1" d="M708.5,573.4v22.5h-6.1v-15c0-0.5,0-0.9,0-1.4c0-0.4,0.1-0.9,0.2-1.3l-5.3,1.1l-0.7-3.8l5.8-2.2H708.5z"/>
	<path class="st1" d="M723.2,573.4v22.5h-6.1v-15c0-0.5,0-0.9,0-1.4c0-0.4,0.1-0.9,0.2-1.3l-5.3,1.1l-0.7-3.8l5.8-2.2H723.2z"/>
	<path class="st1" d="M730.7,590.4c0.8,0,1.3,0.2,1.6,0.5c0.3,0.3,0.4,0.8,0.4,1.6v1.4c0,0.8-0.1,1.3-0.4,1.6
		c-0.3,0.3-0.8,0.5-1.6,0.5h-1.4c-0.8,0-1.3-0.2-1.6-0.5c-0.3-0.3-0.4-0.8-0.4-1.6v-1.4c0-0.8,0.1-1.3,0.4-1.6
		c0.3-0.3,0.8-0.5,1.6-0.5H730.7z"/>
	<path class="st1" d="M743.2,572.9c1.9,0,3.4,0.2,4.5,0.5c1.1,0.3,1.9,0.9,2.4,1.6s0.7,1.8,0.7,3.2c0,1.1-0.1,2-0.3,2.8
		c-0.2,0.8-0.6,1.4-1.1,1.9c-0.5,0.5-1.3,0.8-2.3,1v0.1c1.6,0.2,2.7,0.8,3.3,1.7c0.6,0.9,0.9,2.2,0.9,3.9c0,1.6-0.2,2.9-0.7,3.9
		c-0.5,1-1.4,1.7-2.6,2.2c-1.2,0.5-2.8,0.7-4.8,0.7c-1.3,0-2.7-0.1-4.1-0.2c-1.4-0.1-2.7-0.3-4.1-0.4l0.2-4.4c1,0.1,1.8,0.1,2.5,0.1
		c0.7,0,1.3,0,1.9,0c0.6,0,1.2,0,1.9,0c1,0,1.7-0.1,2.3-0.2c0.5-0.1,0.9-0.4,1.1-0.8c0.2-0.4,0.3-1,0.3-1.8c0-0.7-0.1-1.2-0.2-1.6
		c-0.2-0.4-0.4-0.7-0.9-0.9c-0.4-0.2-1.1-0.3-1.9-0.2l-4.3,0v-3.9h4.3c0.6,0,1.1-0.1,1.5-0.2c0.4-0.1,0.6-0.3,0.8-0.5
		c0.2-0.2,0.3-0.5,0.3-0.8c0.1-0.3,0.1-0.7,0.1-1c0-0.6-0.1-1.1-0.3-1.4c-0.2-0.3-0.5-0.5-0.9-0.6c-0.4-0.1-1-0.2-1.8-0.2
		c-1.2,0-2.3,0-3.4,0s-2,0-2.9,0l-0.2-4.2c1.3-0.2,2.5-0.4,3.8-0.5C740.7,573,742,572.9,743.2,572.9z"/>
</g>
<g>
	<path class="st1" d="M661.2,840.4c1.9,0,3.4,0.2,4.5,0.5c1.1,0.3,1.9,0.9,2.4,1.6s0.7,1.8,0.7,3.2c0,1.1-0.1,2-0.3,2.8
		c-0.2,0.8-0.6,1.4-1.1,1.9c-0.5,0.5-1.3,0.8-2.3,1v0.1c1.6,0.2,2.7,0.8,3.3,1.7c0.6,0.9,0.9,2.2,0.9,3.9c0,1.6-0.2,2.9-0.7,3.9
		c-0.5,1-1.4,1.7-2.6,2.2c-1.2,0.5-2.8,0.7-4.8,0.7c-1.3,0-2.7-0.1-4.1-0.2c-1.4-0.1-2.7-0.3-4.1-0.4l0.2-4.4c1,0.1,1.8,0.1,2.5,0.1
		c0.7,0,1.3,0,1.9,0c0.6,0,1.2,0,1.9,0c1,0,1.7-0.1,2.3-0.2c0.5-0.1,0.9-0.4,1.1-0.8c0.2-0.4,0.3-1,0.3-1.8c0-0.7-0.1-1.2-0.2-1.6
		c-0.2-0.4-0.4-0.7-0.9-0.9s-1.1-0.3-1.9-0.2l-4.3,0v-3.9h4.3c0.6,0,1.1-0.1,1.5-0.2c0.4-0.1,0.6-0.3,0.8-0.5
		c0.2-0.2,0.3-0.5,0.3-0.8c0.1-0.3,0.1-0.7,0.1-1c0-0.6-0.1-1.1-0.3-1.4c-0.2-0.3-0.5-0.5-0.9-0.6c-0.4-0.1-1-0.2-1.8-0.2
		c-1.2,0-2.3,0-3.4,0c-1.1,0-2,0-2.9,0l-0.2-4.2c1.3-0.2,2.5-0.4,3.8-0.5C658.7,840.5,659.9,840.4,661.2,840.4z"/>
	<path class="st1" d="M675.6,857.9c0.8,0,1.3,0.2,1.6,0.5c0.3,0.3,0.4,0.8,0.4,1.6v1.4c0,0.8-0.1,1.3-0.4,1.6
		c-0.3,0.3-0.8,0.5-1.6,0.5h-1.4c-0.8,0-1.3-0.2-1.6-0.5c-0.3-0.3-0.4-0.8-0.4-1.6v-1.4c0-0.8,0.1-1.3,0.4-1.6
		c0.3-0.3,0.8-0.5,1.6-0.5H675.6z"/>
	<path class="st1" d="M688.1,840.4c1.9,0,3.4,0.2,4.5,0.5c1.1,0.3,1.9,0.9,2.4,1.6s0.7,1.8,0.7,3.2c0,1.1-0.1,2-0.3,2.8
		c-0.2,0.8-0.6,1.4-1.1,1.9c-0.5,0.5-1.3,0.8-2.3,1v0.1c1.6,0.2,2.7,0.8,3.3,1.7c0.6,0.9,0.9,2.2,0.9,3.9c0,1.6-0.2,2.9-0.7,3.9
		c-0.5,1-1.4,1.7-2.6,2.2c-1.2,0.5-2.8,0.7-4.8,0.7c-1.3,0-2.7-0.1-4.1-0.2c-1.4-0.1-2.7-0.3-4.1-0.4l0.2-4.4c1,0.1,1.8,0.1,2.5,0.1
		c0.7,0,1.3,0,1.9,0c0.6,0,1.2,0,1.9,0c1,0,1.7-0.1,2.3-0.2c0.5-0.1,0.9-0.4,1.1-0.8c0.2-0.4,0.3-1,0.3-1.8c0-0.7-0.1-1.2-0.2-1.6
		c-0.2-0.4-0.4-0.7-0.9-0.9c-0.4-0.2-1.1-0.3-1.9-0.2l-4.3,0v-3.9h4.3c0.6,0,1.1-0.1,1.5-0.2c0.4-0.1,0.6-0.3,0.8-0.5
		c0.2-0.2,0.3-0.5,0.3-0.8c0.1-0.3,0.1-0.7,0.1-1c0-0.6-0.1-1.1-0.3-1.4c-0.2-0.3-0.5-0.5-0.9-0.6c-0.4-0.1-1-0.2-1.8-0.2
		c-1.2,0-2.3,0-3.4,0c-1.1,0-2,0-2.9,0l-0.2-4.2c1.3-0.2,2.5-0.4,3.8-0.5C685.6,840.5,686.9,840.4,688.1,840.4z"/>
	<path class="st1" d="M715.7,837.6l0.7,2.5c-1.8,0.8-3.1,2.3-3.8,4.5s-1.1,5.1-1.1,8.5c0,2.2,0.2,4.2,0.5,6s0.8,3.3,1.6,4.5
		c0.7,1.2,1.7,2.1,2.9,2.7l-0.7,2.5c-3.4-1-5.9-2.7-7.5-5.3c-1.6-2.5-2.4-6-2.4-10.3c0-4.4,0.8-7.9,2.4-10.4
		C709.7,840.3,712.3,838.6,715.7,837.6z"/>
	<path class="st1" d="M728.8,840.9v22.5h-6.1v-15c0-0.5,0-0.9,0-1.4c0-0.4,0.1-0.9,0.2-1.3l-5.3,1.1l-0.7-3.8l5.8-2.2H728.8z"/>
	<path class="st1" d="M736.3,857.9c0.8,0,1.3,0.2,1.6,0.5c0.3,0.3,0.4,0.8,0.4,1.6v1.4c0,0.8-0.1,1.3-0.4,1.6
		c-0.3,0.3-0.8,0.5-1.6,0.5h-1.4c-0.8,0-1.3-0.2-1.6-0.5c-0.3-0.3-0.4-0.8-0.4-1.6v-1.4c0-0.8,0.1-1.3,0.4-1.6
		c0.3-0.3,0.8-0.5,1.6-0.5H736.3z"/>
	<path class="st1" d="M754.5,840.9c0.6,0,1.1,0.1,1.5,0.4c0.4,0.3,0.7,0.6,0.8,1.1c0.2,0.5,0.1,1-0.1,1.5l-6.8,19.5h-6l5.5-15.3
		c0.1-0.4,0.3-0.8,0.5-1.2c0.2-0.4,0.4-0.8,0.7-1.2h-9.9l-0.3-4.9H754.5z"/>
	<path class="st1" d="M758.3,837.6c3.4,1,6,2.7,7.6,5.2c1.6,2.5,2.4,6,2.4,10.4c0,4.4-0.8,7.8-2.4,10.3c-1.6,2.5-4.1,4.3-7.6,5.3
		l-0.7-2.5c1.2-0.6,2.2-1.5,2.9-2.7c0.7-1.2,1.2-2.7,1.6-4.5s0.5-3.8,0.5-6c0-3.4-0.4-6.3-1.1-8.5c-0.7-2.3-2-3.8-3.8-4.5
		L758.3,837.6z"/>
</g>
<g>
	<path class="st1" d="M645.4,311.4c0.6,0,1.4,0,2.5,0.1c1.1,0.1,2.2,0.2,3.3,0.6l-0.3,3.8c-0.6,0-1.2,0-1.7,0s-1.1,0-1.7,0
		c-0.6,0-1.3,0-2.2,0c-0.9,0-1.6,0.1-2.1,0.3c-0.5,0.2-0.9,0.6-1.2,1.1c-0.3,0.5-0.5,1.3-0.5,2.4c-0.1,1-0.1,2.4-0.1,4.1
		c0,1.4,0,2.6,0.1,3.5c0.1,0.9,0.2,1.6,0.4,2c0.2,0.5,0.5,0.8,0.9,0.9c0.4,0.2,0.9,0.2,1.6,0.2c0.8,0,1.4-0.1,1.8-0.4
		c0.4-0.2,0.6-0.6,0.7-1.2c0.1-0.5,0.1-1.3,0.1-2.2c0-0.8-0.1-1.5-0.2-1.9c-0.1-0.4-0.4-0.7-0.8-0.9c-0.4-0.2-1-0.2-1.7-0.2
		c-0.5,0-1,0.1-1.5,0.2c-0.4,0.1-0.9,0.4-1.5,0.7c-0.5,0.3-1.3,0.8-2.2,1.3l-0.1-2.2c0.7-1.1,1.4-2,2.1-2.6c0.7-0.6,1.4-1,2.2-1.3
		c0.8-0.2,1.7-0.4,2.8-0.4c1.7,0,3.1,0.2,4,0.7c1,0.5,1.6,1.2,2,2.3c0.4,1,0.6,2.4,0.6,4c0,1.4-0.1,2.7-0.3,3.7
		c-0.2,1-0.7,1.9-1.3,2.6c-0.6,0.7-1.5,1.2-2.6,1.5c-1.1,0.3-2.5,0.5-4.3,0.5c-1.7,0-3.1-0.2-4.2-0.5c-1.1-0.3-2-0.9-2.7-1.8
		c-0.7-0.8-1.1-2-1.4-3.5c-0.3-1.5-0.4-3.4-0.4-5.7c0-2.6,0.2-4.6,0.6-6.2c0.4-1.6,1-2.8,1.8-3.6c0.8-0.8,1.8-1.4,3.1-1.7
		C642.3,311.5,643.7,311.4,645.4,311.4z"/>
	<path class="st1" d="M658.6,328.8c0.8,0,1.3,0.2,1.6,0.5c0.3,0.3,0.4,0.8,0.4,1.6v1.4c0,0.8-0.1,1.3-0.4,1.6
		c-0.3,0.3-0.8,0.5-1.6,0.5h-1.4c-0.8,0-1.3-0.2-1.6-0.5c-0.3-0.3-0.4-0.8-0.4-1.6v-1.4c0-0.8,0.1-1.3,0.4-1.6
		c0.3-0.3,0.8-0.5,1.6-0.5H658.6z"/>
	<path class="st1" d="M671.1,311.3c1.9,0,3.4,0.2,4.5,0.5c1.1,0.3,1.9,0.9,2.4,1.6s0.7,1.8,0.7,3.2c0,1.1-0.1,2-0.3,2.8
		c-0.2,0.8-0.6,1.4-1.1,1.9c-0.5,0.5-1.3,0.8-2.3,1v0.1c1.6,0.2,2.7,0.8,3.3,1.7c0.6,0.9,0.9,2.2,0.9,3.9c0,1.6-0.2,2.9-0.7,3.9
		c-0.5,1-1.4,1.7-2.6,2.2c-1.2,0.5-2.8,0.7-4.8,0.7c-1.3,0-2.7-0.1-4.1-0.2c-1.4-0.1-2.7-0.3-4.1-0.4l0.2-4.4c1,0.1,1.8,0.1,2.5,0.1
		c0.7,0,1.3,0,1.9,0c0.6,0,1.2,0,1.9,0c1,0,1.7-0.1,2.3-0.2c0.5-0.1,0.9-0.4,1.1-0.8c0.2-0.4,0.3-1,0.3-1.8c0-0.7-0.1-1.2-0.2-1.6
		c-0.2-0.4-0.4-0.7-0.9-0.9c-0.4-0.2-1.1-0.3-1.9-0.2l-4.3,0v-3.9h4.3c0.6,0,1.1-0.1,1.5-0.2c0.4-0.1,0.6-0.3,0.8-0.5
		c0.2-0.2,0.3-0.5,0.3-0.8c0.1-0.3,0.1-0.7,0.1-1c0-0.6-0.1-1.1-0.3-1.4c-0.2-0.3-0.5-0.5-0.9-0.6c-0.4-0.1-1-0.2-1.8-0.2
		c-1.2,0-2.3,0-3.4,0c-1.1,0-2,0-2.9,0l-0.2-4.2c1.3-0.2,2.5-0.4,3.8-0.5C668.6,311.4,669.9,311.3,671.1,311.3z"/>
</g>
<g>
	<path class="st1" d="M297,316.2l-5,12.8c-0.1,0.3-0.1,0.5,0,0.7s0.3,0.2,0.6,0.2h12.7v3.5l-2.6,0.6H288c-0.6,0-1.1-0.2-1.6-0.5
		c-0.4-0.3-0.7-0.7-0.9-1.3c-0.2-0.5-0.1-1.1,0.1-1.6l5.7-14.4H297z M302.8,320.6v18.1h-5.6v-14.6l1-3.5H302.8z"/>
	<path class="st1" d="M310.9,333.1c0.8,0,1.3,0.2,1.6,0.5c0.3,0.3,0.4,0.8,0.4,1.6v1.4c0,0.8-0.1,1.3-0.4,1.6
		c-0.3,0.3-0.8,0.5-1.6,0.5h-1.4c-0.8,0-1.3-0.2-1.6-0.5c-0.3-0.3-0.4-0.8-0.4-1.6v-1.4c0-0.8,0.1-1.3,0.4-1.6
		c0.3-0.3,0.8-0.5,1.6-0.5H310.9z"/>
	<path class="st1" d="M326.5,316.2l-5,12.8c-0.1,0.3-0.1,0.5,0,0.7s0.3,0.2,0.6,0.2h12.7v3.5l-2.6,0.6h-14.8c-0.6,0-1.1-0.2-1.6-0.5
		c-0.4-0.3-0.7-0.7-0.9-1.3c-0.2-0.5-0.1-1.1,0.1-1.6l5.7-14.4H326.5z M332.2,320.6v18.1h-5.6v-14.6l1-3.5H332.2z"/>
</g>
<g>
	<path class="st1" d="M222.2,292c1.1,0,2.1,0,2.9,0.1c0.8,0.1,1.5,0.2,2.2,0.3c0.7,0.1,1.3,0.3,2,0.5l-0.5,4.5
		c-0.7,0-1.4-0.1-2.1-0.1c-0.6,0-1.3,0-2,0c-0.7,0-1.6,0-2.6,0c-0.9,0-1.6,0.2-2.1,0.6c-0.5,0.4-0.9,1-1.1,2c-0.2,0.9-0.3,2.3-0.3,4
		s0.1,3,0.3,4c0.2,0.9,0.6,1.6,1.1,2c0.5,0.4,1.2,0.6,2.1,0.6c1.6,0,2.9,0,4-0.1c1.1,0,2.1-0.1,3.2-0.2l0.5,4.5
		c-1.1,0.4-2.2,0.6-3.4,0.8c-1.1,0.2-2.6,0.2-4.3,0.2c-2.4,0-4.4-0.4-5.8-1.1c-1.5-0.7-2.5-2-3.1-3.7c-0.6-1.7-1-4-1-6.9
		s0.3-5.2,1-6.9c0.6-1.7,1.7-2.9,3.1-3.7C217.9,292.4,219.8,292,222.2,292z"/>
	<path class="st1" d="M248.7,292.4l-12.9,25.1h-4.7l12.9-25.1H248.7z"/>
	<path class="st1" d="M255.7,298.7l2.5,9.7c0.1,0.5,0.2,0.9,0.2,1.4c0.1,0.5,0.1,0.9,0.2,1.4h0.9l-1.9,3.8h-1.3
		c-0.5,0-0.9-0.1-1.2-0.4c-0.3-0.3-0.6-0.6-0.7-1l-5.1-14.9H255.7z M268.4,298.7l-5.5,16.1c-0.4,1.3-0.9,2.4-1.4,3.2
		c-0.6,0.8-1.2,1.5-1.9,2c-0.7,0.5-1.5,0.9-2.4,1.2c-1,0.4-2,0.5-3.2,0.5c-1.1,0-2.3-0.1-3.4-0.3l0.5-3.8c1,0,2,0,2.7-0.1
		c0.8-0.1,1.4-0.3,1.9-0.6c0.4-0.2,0.8-0.6,1.1-1c0.3-0.4,0.6-0.9,0.8-1.4l0.9-2.2c0.2-0.5,0.4-1.2,0.6-2c0.2-0.8,0.3-1.4,0.4-2
		l2.5-9.7H268.4z"/>
</g>
</svg>
