<?xml version="1.0" encoding="utf-8"?>
<!-- Generator: Adobe Illustrator 26.5.0, SVG Export Plug-In . SVG Version: 6.00 Build 0)  -->
<svg version="1.1" id="Слой_1" xmlns="http://www.w3.org/2000/svg" xmlns:xlink="http://www.w3.org/1999/xlink" x="0px" y="0px"
	 viewBox="0 0 1000 1000" style="enable-background:new 0 0 1000 1000;" xml:space="preserve">
<style type="text/css">
	.st0{fill:#FFF4A8;}
	.st1{fill:#3C3C3B;}
	.st2{fill:none;stroke:#3C3C3B;}
	.st3{fill:#FFFFFF;}
	.st4{fill:none;stroke:#3C3C3B;stroke-dasharray:1.951,1.951;}
	.st5{fill:none;stroke:#3C3C3B;stroke-dasharray:2.035,2.035;}
	.st6{fill:#9C9B9B;}
</style>
<rect x="192" y="386.2" class="st0" width="640.3" height="285.4"/>
<rect x="191.3" y="259.1" class="st0" width="701.7" height="210.9"/>
<rect x="186.2" y="459.5" class="st0" width="119.5" height="396.7"/>
<rect x="270.6" y="659" class="st0" width="119.5" height="151.1"/>
<rect x="364.8" y="558.8" class="st0" width="115.3" height="151.1"/>
<rect x="349.8" y="798.1" class="st1" width="52.6" height="16.9"/>
<rect x="300.7" y="805.5" class="st1" width="46.8" height="9.5"/>
<rect x="300.7" y="709.9" class="st1" width="7.4" height="96.1"/>
<rect x="300.7" y="709.9" class="st2" width="7.4" height="96.1"/>
<rect x="308.9" y="805.5" class="st1" width="92.9" height="10.8"/>
<rect x="461.6" y="666.6" class="st1" width="18.4" height="54.9"/>
<rect x="461.6" y="666.6" class="st2" width="21.1" height="54.9"/>
<rect x="164.3" y="228.7" class="st1" width="765.5" height="35.9"/>
<rect x="164.3" y="228.7" class="st2" width="765.5" height="35.9"/>
<rect x="914.4" y="247.2" class="st1" width="15.3" height="86"/>
<rect x="914.4" y="247.2" class="st2" width="15.3" height="86"/>
<rect x="914.4" y="326.8" class="st2" width="15.3" height="107.3"/>
<rect x="914.4" y="426.7" class="st1" width="15.3" height="57.5"/>
<rect x="914.4" y="426.7" class="st2" width="15.3" height="57.5"/>
<rect x="892.5" y="242.8" class="st1" width="30.7" height="86"/>
<rect x="892.5" y="242.8" class="st2" width="30.7" height="86"/>
<rect x="892.5" y="431.1" class="st1" width="30.7" height="53.1"/>
<rect x="892.5" y="431.1" class="st2" width="30.7" height="53.1"/>
<rect x="820.8" y="456" class="st1" width="82.2" height="28.2"/>
<rect x="820.8" y="456" class="st2" width="82.2" height="28.2"/>
<rect x="519.1" y="464" class="st1" width="311.2" height="7.7"/>
<rect x="519.1" y="464" class="st2" width="311.2" height="7.7"/>
<rect x="633.5" y="447.5" class="st1" width="8.4" height="18.3"/>
<rect x="633.5" y="447.5" class="st2" width="8.4" height="18.3"/>
<rect x="633.5" y="261" class="st1" width="8.4" height="135.1"/>
<rect x="633.5" y="261" class="st2" width="8.4" height="135.1"/>
<rect x="639.7" y="455.8" class="st1" width="54.6" height="11"/>
<rect x="639.7" y="455.8" class="st2" width="54.6" height="11"/>
<rect x="625.9" y="263.8" class="st1" width="12.1" height="65.3"/>
<rect x="625.9" y="263.8" class="st2" width="12.1" height="65.3"/>
<rect x="616" y="385.1" class="st1" width="19.6" height="8.2"/>
<rect x="616" y="385.1" class="st2" width="19.6" height="8.2"/>
<rect x="493.6" y="385.1" class="st1" width="86.1" height="8.2"/>
<rect x="493.6" y="385.1" class="st2" width="86.1" height="8.2"/>
<rect x="511.6" y="259.1" class="st1" width="8.2" height="125.8"/>
<rect x="511.6" y="259.1" class="st2" width="8.2" height="125.8"/>
<rect x="439.3" y="385.1" class="st1" width="19.6" height="8.2"/>
<rect x="439.3" y="385.1" class="st2" width="19.6" height="8.2"/>
<rect x="386.6" y="456" class="st1" width="59.3" height="15.7"/>
<rect x="386.6" y="456" class="st2" width="59.3" height="15.7"/>
<rect x="439.3" y="263.8" class="st1" width="8.2" height="207.9"/>
<rect x="439.3" y="263.8" class="st2" width="8.2" height="207.9"/>
<rect x="433.6" y="530.7" class="st1" width="93.5" height="9.2"/>
<rect x="433.6" y="530.7" class="st2" width="93.5" height="9.2"/>
<rect x="433.6" y="521.6" class="st1" width="9.2" height="18.3"/>
<rect x="433.6" y="521.6" class="st2" width="9.2" height="18.3"/>
<rect x="517.9" y="521.6" class="st1" width="9.2" height="18.3"/>
<rect x="517.9" y="521.6" class="st2" width="9.2" height="18.3"/>
<rect x="473.4" y="532.6" class="st1" width="10.6" height="194.8"/>
<rect x="473.4" y="532.6" class="st2" width="7.7" height="191.8"/>
<rect x="461.1" y="666.6" class="st1" width="385.8" height="15.8"/>
<rect x="473.2" y="666.6" class="st2" width="373.7" height="15.8"/>
<rect x="820.8" y="645.2" class="st1" width="17.2" height="31.7"/>
<rect x="836.6" y="640.8" class="st1" width="13.5" height="38.1"/>
<rect x="836.6" y="640.8" class="st2" width="13.5" height="38.1"/>
<rect x="820.8" y="475.6" class="st1" width="15.8" height="12.7"/>
<rect x="820.8" y="475.6" class="st2" width="15.8" height="12.7"/>
<rect x="837.1" y="479.5" class="st1" width="12.7" height="12.7"/>
<rect x="837.1" y="479.5" class="st2" width="12.7" height="12.7"/>
<rect x="843.6" y="672.9" class="st1" width="86" height="10.1"/>
<rect x="300.7" y="806.9" class="st1" width="16" height="66"/>
<rect x="292.4" y="857.1" class="st1" width="23.3" height="16"/>
<rect x="292.4" y="857.1" class="st2" width="23.3" height="16"/>
<rect x="175.8" y="857.1" class="st1" width="58.1" height="16"/>
<rect x="175.8" y="857.1" class="st2" width="58.1" height="16"/>
<rect x="175.8" y="449.6" class="st1" width="15.5" height="418.9"/>
<rect x="175.8" y="449.6" class="st2" width="15.5" height="418.9"/>
<rect x="188.2" y="610.2" class="st1" width="73.7" height="7.7"/>
<rect x="212.5" y="611.8" class="st1" width="49.4" height="29.9"/>
<rect x="212.5" y="611.8" class="st2" width="24.1" height="29.9"/>
<rect x="222.4" y="633.7" class="st1" width="123.2" height="8"/>
<rect x="222.4" y="633.7" class="st2" width="123.2" height="8"/>
<rect x="220" y="617.1" class="st3" width="9.1" height="17.2"/>
<rect x="234.2" y="617.1" class="st3" width="21" height="17.2"/>
<line class="st2" x1="187.5" y1="640" x2="216.9" y2="640"/>
<rect x="164.3" y="449.6" class="st1" width="21.8" height="423.3"/>
<rect x="164.3" y="449.6" class="st2" width="21.8" height="59"/>
<rect x="77.3" y="474.6" class="st1" width="95.3" height="34"/>
<rect x="444.9" y="261" class="st1" width="10.8" height="68.1"/>
<rect x="444.9" y="261" class="st2" width="10.8" height="68.1"/>
<rect x="167.4" y="508.5" class="st1" width="10.6" height="272.7"/>
<rect x="167.4" y="508.5" class="st2" width="10.6" height="272.7"/>
<rect x="164.3" y="255.1" class="st1" width="12.1" height="77.8"/>
<rect x="164.3" y="255.1" class="st2" width="12.1" height="77.8"/>
<rect x="164.3" y="326.5" class="st2" width="12.1" height="77.8"/>
<rect x="173" y="251.3" class="st1" width="18.3" height="77.8"/>
<rect x="173" y="251.3" class="st2" width="18.3" height="77.8"/>
<rect x="176.3" y="321.3" class="st2" width="15.1" height="77.8"/>
<rect x="77.2" y="228.7" class="st1" width="120.1" height="8.8"/>
<rect x="77.2" y="228.7" class="st2" width="120.1" height="8.8"/>
<rect x="77.2" y="228.7" class="st1" width="7.7" height="48.1"/>
<rect x="77.2" y="228.7" class="st2" width="7.7" height="48.1"/>
<rect x="77.2" y="267.7" class="st2" width="7.7" height="213.6"/>
<rect x="892.5" y="326.8" class="st2" width="37.3" height="107.3"/>
<rect x="832" y="485.3" class="st2" width="4.6" height="112.3"/>
<rect x="909.3" y="326.8" class="st2" width="20.4" height="107.3"/>
<rect x="909.3" y="326.8" class="st2" width="5.2" height="6.4"/>
<rect x="909.3" y="426.8" class="st2" width="5.2" height="6.4"/>
<rect x="832" y="593" class="st2" width="4.6" height="4.5"/>
<rect x="832" y="487.6" class="st2" width="4.6" height="4.5"/>
<rect x="832" y="640.8" class="st2" width="4.6" height="4.5"/>
<rect x="832" y="587.8" class="st2" width="4.6" height="9.8"/>
<polygon class="st2" points="929.8,678.9 929.8,675.7 929.8,472.8 921.6,472.8 921.6,675.7 856.5,675.7 856.5,678.9 921.6,678.9 "/>
<path class="st2" d="M371,710.9l-35.5-19.3c0,0-1.9,2.7-3.4,8.6c-1.6,5.9-1.6,10-1.6,10"/>
<path class="st2" d="M178.9,457.7l25.7-46.7c0,0-3.7-2.4-11.5-4.5c-7.8-2.1-13.3-2.1-13.3-2.1"/>
<rect x="370.7" y="709.9" class="st1" width="108.3" height="7"/>
<rect x="396.3" y="716.6" class="st1" width="87.7" height="10.8"/>
<rect x="370.7" y="709.9" class="st2" width="108.3" height="7"/>
<rect x="300.7" y="709.9" class="st1" width="29.9" height="7"/>
<rect x="300.7" y="709.9" class="st2" width="29.9" height="7"/>
<rect x="386.3" y="716.7" class="st2" width="96.4" height="9.3"/>
<rect x="386.3" y="715.3" class="st1" width="16.2" height="101"/>
<rect x="386.3" y="725.5" class="st2" width="16.2" height="76.9"/>
<rect x="385.5" y="805.4" class="st2" width="9.3" height="9.3"/>
<rect x="176.3" y="321.3" class="st2" width="5.3" height="77.8"/>
<rect x="176.3" y="321.3" class="st2" width="5.3" height="11.5"/>
<rect x="176.3" y="394.9" class="st2" width="5.3" height="9.4"/>
<path class="st2" d="M452.3,389.7l36.5,20.6c0,0,1.9-2.9,3.5-9.2c1.6-6.3,1.6-10.6,1.6-10.6"/>
<path class="st2" d="M621.1,389.7l-36.5,20.6c0,0-1.9-2.9-3.5-9.2c-1.6-6.3-1.6-10.6-1.6-10.6"/>
<path class="st2" d="M638.2,449.4l26.7-46.7c0,0-3.8-2.4-11.9-4.5c-8.1-2.1-13.8-2.1-13.8-2.1"/>
<path class="st2" d="M437.9,468.4l-26.7,46.7c0,0,3.8,2.4,11.9,4.5c8.1,2.1,13.8,2.1,13.8,2.1"/>
<path class="st2" d="M523.8,468.4l26.7,46.7c0,0-3.8,2.4-11.9,4.5c-8.1,2.1-13.8,2.1-13.8,2.1"/>
<path class="st2" d="M832.1,641.1l-21.6-37.8c0,0,3.3-2.1,10.2-3.9c7-1.8,11.9-1.8,11.9-1.8"/>
<path class="st2" d="M299,866.2L242.1,899c0,0-3.2-4.9-5.9-15.6c-2.7-10.6-2.7-18-2.7-18"/>
<rect x="309.2" y="786.7" class="st2" width="10.8" height="11"/>
<rect x="305.1" y="717.2" class="st2" width="17.7" height="6.4"/>
<polyline class="st2" points="320.1,787 311.2,789.6 309.2,797.6 "/>
<rect x="191.8" y="549.7" class="st2" width="35.4" height="36.6"/>
<path class="st2" d="M224.4,554.2c0-0.7-0.6-1.3-1.3-1.3h-22.2c-0.7,0-1.3,0.6-1.3,1.3v27.8c0,0.7,0.6,1.3,1.3,1.3h22.2
	c0.7,0,1.3-0.6,1.3-1.3V554.2z"/>
<path class="st2" d="M221.8,556.5c0-0.7-0.6-1.3-1.3-1.3h-17.1c-0.7,0-1.3,0.6-1.3,1.3v23c0,0.7,0.6,1.3,1.3,1.3h17.1
	c0.7,0,1.3-0.6,1.3-1.3V556.5z"/>
<path class="st2" d="M205.2,568c0,0.8,0.6,1.4,1.4,1.4c0.8,0,1.4-0.6,1.4-1.4c0-0.8-0.6-1.4-1.4-1.4
	C205.8,566.7,205.2,567.3,205.2,568z"/>
<path class="st2" d="M194.5,568c0,0.8,0.6,1.4,1.4,1.4c0.8,0,1.4-0.6,1.4-1.4c0-0.8-0.6-1.4-1.4-1.4
	C195.2,566.7,194.5,567.3,194.5,568z"/>
<rect x="533.1" y="348.4" class="st2" width="36.8" height="34.6"/>
<line class="st2" x1="533" y1="348.9" x2="569.7" y2="382.9"/>
<line class="st2" x1="533" y1="383.3" x2="569.7" y2="349.3"/>
<path class="st1" d="M544.9,327.2c0,5.8-4.7,10.5-10.5,10.5h-11.2c-0.9,0-1.6-0.7-1.6-1.6v-23.8c0-0.9,0.7-1.6,1.6-1.6h11.2
	c5.8,0,10.5,4.7,10.5,10.5V327.2z M521,312.3v23.8c0,1.2,1,2.2,2.2,2.2h11.2c6.1,0,11.1-5,11.1-11.1v-5.9c0-6.1-5-11.1-11.1-11.1
	h-11.2C522,310.1,521,311.1,521,312.3"/>
<path class="st2" d="M544.9,327.2c0,5.8-4.7,10.5-10.5,10.5h-11.2c-0.9,0-1.6-0.7-1.6-1.6v-23.8c0-0.9,0.7-1.6,1.6-1.6h11.2
	c5.8,0,10.5,4.7,10.5,10.5V327.2z M521,312.3v23.8c0,1.2,1,2.2,2.2,2.2h11.2c6.1,0,11.1-5,11.1-11.1v-5.9c0-6.1-5-11.1-11.1-11.1
	h-11.2C522,310.1,521,311.1,521,312.3z"/>
<path class="st1" d="M542.2,327.2c0,4.3-3.5,7.9-7.9,7.9h-6.5c-0.8,0-1.4-0.6-1.4-1.4v-19c0-0.8,0.6-1.4,1.4-1.4h6.5
	c4.4,0,7.9,3.5,7.9,7.9V327.2z M525.8,314.7v19c0,1.1,0.9,2,2,2h6.5c4.7,0,8.5-3.8,8.5-8.5v-5.9c0-4.7-3.8-8.5-8.5-8.5h-6.5
	C526.7,312.8,525.8,313.7,525.8,314.7"/>
<path class="st2" d="M542.2,327.2c0,4.3-3.5,7.9-7.9,7.9h-6.5c-0.8,0-1.4-0.6-1.4-1.4v-19c0-0.8,0.6-1.4,1.4-1.4h6.5
	c4.4,0,7.9,3.5,7.9,7.9V327.2z M525.8,314.7v19c0,1.1,0.9,2,2,2h6.5c4.7,0,8.5-3.8,8.5-8.5v-5.9c0-4.7-3.8-8.5-8.5-8.5h-6.5
	C526.7,312.8,525.8,313.7,525.8,314.7z"/>
<path class="st1" d="M536.7,324.2c0,0.7-0.6,1.3-1.3,1.3c-0.7,0-1.3-0.6-1.3-1.3c0-0.7,0.6-1.3,1.3-1.3
	C536.1,322.9,536.7,323.5,536.7,324.2 M533.5,324.2c0,1.1,0.9,1.9,1.9,1.9c1.1,0,1.9-0.9,1.9-1.9c0-1.1-0.9-1.9-1.9-1.9
	C534.3,322.3,533.5,323.1,533.5,324.2"/>
<path class="st2" d="M536.7,324.2c0,0.7-0.6,1.3-1.3,1.3c-0.7,0-1.3-0.6-1.3-1.3c0-0.7,0.6-1.3,1.3-1.3
	C536.1,322.9,536.7,323.5,536.7,324.2z M533.5,324.2c0,1.1,0.9,1.9,1.9,1.9c1.1,0,1.9-0.9,1.9-1.9c0-1.1-0.9-1.9-1.9-1.9
	C534.3,322.3,533.5,323.1,533.5,324.2z"/>
<path class="st2" d="M539.2,285.6c0-0.9,0.7-1.6,1.6-1.6c0.9,0,1.6,0.7,1.6,1.6c0,0.9-0.7,1.6-1.6,1.6
	C540,287.2,539.2,286.5,539.2,285.6z"/>
<path class="st2" d="M621.1,295.6c0,5.2-4.2,9.3-9.3,9.3H534c-5.2,0-9.3-4.2-9.3-9.3v-17.7c0-5.2,4.2-9.3,9.3-9.3h77.8
	c5.2,0,9.3,4.2,9.3,9.3V295.6z"/>
<path class="st2" d="M614.4,292.2c0,5.2-4.2,9.3-9.3,9.3h-64.4c-5.2,0-9.3-4.2-9.3-9.3v-10.9c0-5.2,4.2-9.3,9.3-9.3h64.4
	c5.2,0,9.3,4.2,9.3,9.3V292.2z"/>
<path class="st2" d="M606.3,293.7c0,2.6-2.1,4.7-4.7,4.7h-62c-2.6,0-4.7-2.1-4.7-4.7v-13.8c0-2.6,2.1-4.7,4.7-4.7h62
	c2.6,0,4.7,2.1,4.7,4.7V293.7z"/>
<polygon class="st2" points="520.9,265.6 520.9,265.6 624.8,265.6 624.8,308 520.9,308 "/>
<path class="st1" d="M483.2,321.4c6,0,10.9-4.9,10.9-11v-15.9c0-1-0.8-1.9-1.9-1.9h-18.1c-1,0-1.9,0.9-1.9,1.9v15.9
	C472.3,316.5,477.2,321.4,483.2,321.4 M474.2,292h18.1c1.5,0,2.6,1.2,2.6,2.6v15.9c0,6.5-5.2,11.7-11.7,11.7
	c-6.5,0-11.7-5.3-11.7-11.7v-15.9C471.5,293.1,472.7,292,474.2,292"/>
<path class="st2" d="M483.2,321.4c6,0,10.9-4.9,10.9-11v-15.9c0-1-0.8-1.9-1.9-1.9h-18.1c-1,0-1.9,0.9-1.9,1.9v15.9
	C472.3,316.5,477.2,321.4,483.2,321.4z M474.2,292h18.1c1.5,0,2.6,1.2,2.6,2.6v15.9c0,6.5-5.2,11.7-11.7,11.7
	c-6.5,0-11.7-5.3-11.7-11.7v-15.9C471.5,293.1,472.7,292,474.2,292z"/>
<path class="st2" d="M491.1,298h-15.7c-0.1,0-0.2,0.1-0.2,0.2v12c0,4.4,3.6,8.1,8,8.1c4.4,0,8-3.6,8-8.1v-12
	C491.3,298.1,491.2,298,491.1,298z"/>
<path class="st1" d="M490.9,298.4h-15.3v11.8c0,4.2,3.4,7.7,7.7,7.7c4.2,0,7.7-3.4,7.7-7.7V298.4z M475.4,297.6h15.7
	c0.3,0,0.6,0.3,0.6,0.6v12c0,4.6-3.8,8.4-8.4,8.4c-4.6,0-8.4-3.8-8.4-8.4v-12C474.8,297.9,475.1,297.6,475.4,297.6"/>
<path class="st2" d="M490.9,298.4h-15.3v11.8c0,4.2,3.4,7.7,7.7,7.7c4.2,0,7.7-3.4,7.7-7.7V298.4z M475.4,297.6h15.7
	c0.3,0,0.6,0.3,0.6,0.6v12c0,4.6-3.8,8.4-8.4,8.4c-4.6,0-8.4-3.8-8.4-8.4v-12C474.8,297.9,475.1,297.6,475.4,297.6z"/>
<path class="st1" d="M483.2,310.2c1.1,0,2.1-0.9,2.1-2.1c0-1.1-0.9-2.1-2.1-2.1c-1.1,0-2.1,0.9-2.1,2.1
	C481.1,309.2,482.1,310.2,483.2,310.2 M483.2,305.3c1.6,0,2.8,1.3,2.8,2.8c0,1.6-1.3,2.8-2.8,2.8c-1.6,0-2.8-1.3-2.8-2.8
	C480.4,306.5,481.7,305.3,483.2,305.3"/>
<path class="st2" d="M483.2,310.2c1.1,0,2.1-0.9,2.1-2.1c0-1.1-0.9-2.1-2.1-2.1c-1.1,0-2.1,0.9-2.1,2.1
	C481.1,309.2,482.1,310.2,483.2,310.2z M483.2,305.3c1.6,0,2.8,1.3,2.8,2.8c0,1.6-1.3,2.8-2.8,2.8c-1.6,0-2.8-1.3-2.8-2.8
	C480.4,306.5,481.7,305.3,483.2,305.3z"/>
<polygon class="st1" points="489.3,299.5 490,300 486.2,305 485.5,304.6 "/>
<polygon class="st2" points="489.3,299.5 490,300 486.2,305 485.5,304.6 "/>
<polygon class="st1" points="477.2,299.5 481,304.6 480.4,305 476.6,300 "/>
<polygon class="st2" points="477.2,299.5 481,304.6 480.4,305 476.6,300 "/>
<path class="st1" d="M490.8,292c1.7,0,3-1.4,3-3v-4.1c0-1.7-1.4-3-3-3h-15.1c-1.7,0-3,1.4-3,3v4.1c0,1.7,1.4,3,3,3H490.8z
	 M475.7,281h15.1c2.1,0,3.8,1.7,3.8,3.8v4.1c0,2.1-1.7,3.8-3.8,3.8h-15.1c-2.1,0-3.8-1.7-3.8-3.8v-4.1
	C471.9,282.7,473.6,281,475.7,281"/>
<path class="st2" d="M490.8,292c1.7,0,3-1.4,3-3v-4.1c0-1.7-1.4-3-3-3h-15.1c-1.7,0-3,1.4-3,3v4.1c0,1.7,1.4,3,3,3H490.8z
	 M475.7,281h15.1c2.1,0,3.8,1.7,3.8,3.8v4.1c0,2.1-1.7,3.8-3.8,3.8h-15.1c-2.1,0-3.8-1.7-3.8-3.8v-4.1
	C471.9,282.7,473.6,281,475.7,281z"/>
<path class="st1" d="M483.2,288c0.7,0,1.2-0.5,1.2-1.2c0-0.7-0.5-1.2-1.2-1.2c-0.7,0-1.2,0.5-1.2,1.2C482,287.5,482.6,288,483.2,288
	 M483.2,284.9c1.1,0,1.9,0.9,1.9,1.9c0,1.1-0.9,1.9-1.9,1.9c-1.1,0-1.9-0.9-1.9-1.9C481.3,285.8,482.1,284.9,483.2,284.9"/>
<path class="st2" d="M483.2,288c0.7,0,1.2-0.5,1.2-1.2c0-0.7-0.5-1.2-1.2-1.2c-0.7,0-1.2,0.5-1.2,1.2C482,287.5,482.6,288,483.2,288
	z M483.2,284.9c1.1,0,1.9,0.9,1.9,1.9c0,1.1-0.9,1.9-1.9,1.9c-1.1,0-1.9-0.9-1.9-1.9C481.3,285.8,482.1,284.9,483.2,284.9z"/>
<path class="st1" d="M355.9,751.6c-6,0-10.9,4.9-10.9,11v15.9c0,1,0.8,1.9,1.9,1.9h18.1c1,0,1.9-0.9,1.9-1.9v-15.9
	C366.8,756.5,361.9,751.6,355.9,751.6 M364.9,781.1h-18.1c-1.5,0-2.6-1.2-2.6-2.6v-15.9c0-6.5,5.2-11.7,11.7-11.7
	c6.5,0,11.7,5.3,11.7,11.7v15.9C367.6,779.9,366.4,781.1,364.9,781.1"/>
<path class="st2" d="M355.9,751.6c-6,0-10.9,4.9-10.9,11v15.9c0,1,0.8,1.9,1.9,1.9h18.1c1,0,1.9-0.9,1.9-1.9v-15.9
	C366.8,756.5,361.9,751.6,355.9,751.6z M364.9,781.1h-18.1c-1.5,0-2.6-1.2-2.6-2.6v-15.9c0-6.5,5.2-11.7,11.7-11.7
	c6.5,0,11.7,5.3,11.7,11.7v15.9C367.6,779.9,366.4,781.1,364.9,781.1z"/>
<path class="st2" d="M348,775.1h15.7c0.1,0,0.2-0.1,0.2-0.2v-12c0-4.4-3.6-8.1-8-8.1c-4.4,0-8,3.6-8,8.1v12
	C347.8,775,347.9,775.1,348,775.1z"/>
<path class="st1" d="M348.2,774.7h15.3v-11.8c0-4.2-3.4-7.7-7.7-7.7c-4.2,0-7.7,3.4-7.7,7.7V774.7z M363.7,775.4H348
	c-0.3,0-0.6-0.3-0.6-0.6v-12c0-4.6,3.8-8.4,8.4-8.4c4.6,0,8.4,3.8,8.4,8.4v12C364.3,775.2,364,775.4,363.7,775.4"/>
<path class="st2" d="M348.2,774.7h15.3v-11.8c0-4.2-3.4-7.7-7.7-7.7c-4.2,0-7.7,3.4-7.7,7.7V774.7z M363.7,775.4H348
	c-0.3,0-0.6-0.3-0.6-0.6v-12c0-4.6,3.8-8.4,8.4-8.4c4.6,0,8.4,3.8,8.4,8.4v12C364.3,775.2,364,775.4,363.7,775.4z"/>
<path class="st1" d="M355.9,762.9c-1.1,0-2.1,0.9-2.1,2.1c0,1.1,0.9,2.1,2.1,2.1c1.1,0,2.1-0.9,2.1-2.1
	C358,763.8,357,762.9,355.9,762.9 M355.9,767.8c-1.6,0-2.8-1.3-2.8-2.8c0-1.6,1.3-2.8,2.8-2.8c1.6,0,2.8,1.3,2.8,2.8
	C358.7,766.5,357.5,767.8,355.9,767.8"/>
<path class="st2" d="M355.9,762.9c-1.1,0-2.1,0.9-2.1,2.1c0,1.1,0.9,2.1,2.1,2.1c1.1,0,2.1-0.9,2.1-2.1
	C358,763.8,357,762.9,355.9,762.9z M355.9,767.8c-1.6,0-2.8-1.3-2.8-2.8c0-1.6,1.3-2.8,2.8-2.8c1.6,0,2.8,1.3,2.8,2.8
	C358.7,766.5,357.5,767.8,355.9,767.8z"/>
<polygon class="st1" points="349.8,773.6 349.2,773.1 353,768 353.6,768.5 "/>
<polygon class="st2" points="349.8,773.6 349.2,773.1 353,768 353.6,768.5 "/>
<polygon class="st1" points="361.9,773.6 358.1,768.5 358.7,768 362.5,773.1 "/>
<polygon class="st2" points="361.9,773.6 358.1,768.5 358.7,768 362.5,773.1 "/>
<path class="st1" d="M348.3,781.1c-1.7,0-3,1.4-3,3v4.1c0,1.7,1.4,3,3,3h15.1c1.7,0,3-1.4,3-3v-4.1c0-1.7-1.4-3-3-3H348.3z
	 M363.4,792.1h-15.1c-2.1,0-3.8-1.7-3.8-3.8v-4.1c0-2.1,1.7-3.8,3.8-3.8h15.1c2.1,0,3.8,1.7,3.8,3.8v4.1
	C367.2,790.4,365.5,792.1,363.4,792.1"/>
<path class="st2" d="M348.3,781.1c-1.7,0-3,1.4-3,3v4.1c0,1.7,1.4,3,3,3h15.1c1.7,0,3-1.4,3-3v-4.1c0-1.7-1.4-3-3-3H348.3z
	 M363.4,792.1h-15.1c-2.1,0-3.8-1.7-3.8-3.8v-4.1c0-2.1,1.7-3.8,3.8-3.8h15.1c2.1,0,3.8,1.7,3.8,3.8v4.1
	C367.2,790.4,365.5,792.1,363.4,792.1z"/>
<path class="st1" d="M355.9,785c-0.7,0-1.2,0.5-1.2,1.2c0,0.7,0.5,1.2,1.2,1.2c0.7,0,1.2-0.5,1.2-1.2
	C357.1,785.6,356.5,785,355.9,785 M355.9,788.2c-1.1,0-1.9-0.9-1.9-1.9c0-1.1,0.9-1.9,1.9-1.9c1.1,0,1.9,0.9,1.9,1.9
	C357.8,787.3,357,788.2,355.9,788.2"/>
<path class="st2" d="M355.9,785c-0.7,0-1.2,0.5-1.2,1.2c0,0.7,0.5,1.2,1.2,1.2c0.7,0,1.2-0.5,1.2-1.2
	C357.1,785.6,356.5,785,355.9,785z M355.9,788.2c-1.1,0-1.9-0.9-1.9-1.9c0-1.1,0.9-1.9,1.9-1.9c1.1,0,1.9,0.9,1.9,1.9
	C357.8,787.3,357,788.2,355.9,788.2z"/>
<path class="st1" d="M329.2,741c0-5-4-9-8.9-9h-9.5c-0.7,0-1.4,0.6-1.4,1.4v20.4c0,0.8,0.6,1.4,1.4,1.4h9.5c4.9,0,8.9-4.1,8.9-9V741
	z M309,753.8v-20.4c0-1,0.8-1.9,1.9-1.9h9.5c5.2,0,9.4,4.3,9.4,9.6v5.1c0,5.3-4.2,9.6-9.4,9.6h-9.5C309.8,755.7,309,754.8,309,753.8
	"/>
<path class="st2" d="M329.2,741c0-5-4-9-8.9-9h-9.5c-0.7,0-1.4,0.6-1.4,1.4v20.4c0,0.8,0.6,1.4,1.4,1.4h9.5c4.9,0,8.9-4.1,8.9-9V741
	z M309,753.8v-20.4c0-1,0.8-1.9,1.9-1.9h9.5c5.2,0,9.4,4.3,9.4,9.6v5.1c0,5.3-4.2,9.6-9.4,9.6h-9.5C309.8,755.7,309,754.8,309,753.8
	z"/>
<path class="st1" d="M327,741c0-3.7-3-6.8-6.7-6.8h-5.5c-0.6,0-1.2,0.5-1.2,1.2v16.3c0,0.7,0.5,1.2,1.2,1.2h5.5c3.7,0,6.7-3,6.7-6.8
	V741z M313.1,751.7v-16.3c0-0.9,0.7-1.7,1.7-1.7h5.5c4,0,7.2,3.3,7.2,7.3v5.1c0,4-3.2,7.3-7.2,7.3h-5.5
	C313.9,753.4,313.1,752.6,313.1,751.7"/>
<path class="st2" d="M327,741c0-3.7-3-6.8-6.7-6.8h-5.5c-0.6,0-1.2,0.5-1.2,1.2v16.3c0,0.7,0.5,1.2,1.2,1.2h5.5c3.7,0,6.7-3,6.7-6.8
	V741z M313.1,751.7v-16.3c0-0.9,0.7-1.7,1.7-1.7h5.5c4,0,7.2,3.3,7.2,7.3v5.1c0,4-3.2,7.3-7.2,7.3h-5.5
	C313.9,753.4,313.1,752.6,313.1,751.7z"/>
<path class="st1" d="M322.3,743.6c0-0.6-0.5-1.1-1.1-1.1c-0.6,0-1.1,0.5-1.1,1.1s0.5,1.1,1.1,1.1
	C321.8,744.7,322.3,744.2,322.3,743.6 M319.6,743.6c0-0.9,0.7-1.6,1.6-1.6c0.9,0,1.6,0.7,1.6,1.6s-0.7,1.6-1.6,1.6
	C320.3,745.2,319.6,744.5,319.6,743.6"/>
<path class="st2" d="M322.3,743.6c0-0.6-0.5-1.1-1.1-1.1c-0.6,0-1.1,0.5-1.1,1.1s0.5,1.1,1.1,1.1
	C321.8,744.7,322.3,744.2,322.3,743.6z M319.6,743.6c0-0.9,0.7-1.6,1.6-1.6c0.9,0,1.6,0.7,1.6,1.6s-0.7,1.6-1.6,1.6
	C320.3,745.2,319.6,744.5,319.6,743.6z"/>
<line class="st4" x1="196.3" y1="471.3" x2="340.7" y2="471.3"/>
<line class="st5" x1="345.1" y1="478" x2="345.1" y2="628.7"/>
<path class="st2" d="M345.1,630.9v2.2 M342.9,471.3h2.2v2.2 M189.9,471.3h2.2"/>
<g>
	<path class="st1" d="M693.8,340.7c0.3,1,0.6,1.9,0.8,2.6c0.2,0.7,0.4,1.2,0.6,1.6c0.2,0.4,0.4,0.7,0.6,0.9c0.2,0.2,0.5,0.3,0.8,0.3
		v2.5c-0.3,0-0.6,0.1-0.8,0.2c-0.2,0.2-0.4,0.4-0.6,0.8c-0.2,0.4-0.4,1-0.6,1.8c-0.2,0.8-0.6,1.8-0.9,3h-3.9
		c0.3-1.1,0.6-2.1,0.8-2.9c0.2-0.8,0.5-1.4,0.7-1.9s0.5-0.9,0.7-1.2c0.3-0.3,0.6-0.5,0.9-0.7c0.4-0.2,0.8-0.3,1.4-0.3v-0.1
		c-0.5-0.1-1-0.2-1.3-0.3c-0.4-0.2-0.6-0.4-0.9-0.7c-0.2-0.3-0.5-0.7-0.6-1.2s-0.4-1.1-0.6-1.8c-0.2-0.7-0.5-1.5-0.7-2.5H693.8z
		 M697.9,346.1v2.5H696v-2.5H697.9z M700.6,340.7v3.7c0,0.5,0,1-0.1,1.5c-0.1,0.5-0.2,1-0.4,1.4c0.1,0.4,0.3,0.9,0.4,1.3
		c0.1,0.5,0.2,0.9,0.2,1.3v4.6h-3.6v-4.6c0-0.4,0.1-0.8,0.2-1.3c0.1-0.5,0.2-0.9,0.4-1.3c-0.2-0.4-0.3-0.9-0.4-1.4
		c-0.1-0.5-0.1-1-0.1-1.5v-3.7H700.6z M701.7,346.1v2.5h-1.9v-2.5H701.7z M707.7,340.7c-0.3,1-0.5,1.8-0.7,2.5
		c-0.2,0.7-0.4,1.3-0.6,1.8s-0.4,0.9-0.6,1.2c-0.2,0.3-0.5,0.5-0.9,0.7c-0.3,0.2-0.8,0.3-1.3,0.3v0.1c0.6,0.1,1,0.2,1.4,0.3
		c0.4,0.2,0.7,0.4,0.9,0.7c0.3,0.3,0.5,0.7,0.7,1.2c0.2,0.5,0.4,1.2,0.7,1.9c0.2,0.8,0.5,1.7,0.8,2.9h-3.9c-0.4-1.2-0.7-2.3-0.9-3
		c-0.2-0.8-0.5-1.4-0.6-1.8c-0.2-0.4-0.4-0.7-0.6-0.8c-0.2-0.2-0.5-0.2-0.9-0.2l0-2.5c0.3,0,0.6-0.1,0.8-0.3
		c0.2-0.2,0.4-0.5,0.6-0.9c0.2-0.4,0.4-1,0.6-1.6c0.2-0.7,0.5-1.5,0.8-2.6H707.7z"/>
	<path class="st1" d="M719.6,344.6v9.9l-3.2,0V350c0-0.3,0-0.6,0-0.8c0-0.3,0.1-0.6,0.1-0.9h-0.1c-0.1,0.3-0.2,0.6-0.4,0.9
		c-0.2,0.3-0.3,0.6-0.4,0.8l-3.1,4.5h-3.2v-9.9h3.2v4.7c0,0.3,0,0.5,0,0.7c0,0.2-0.1,0.5-0.1,0.8h0.1c0.1-0.3,0.2-0.5,0.3-0.8
		c0.1-0.2,0.3-0.5,0.4-0.7l3.2-4.7H719.6z"/>
	<path class="st1" d="M731.4,344.6v2.4h-4.2c-0.3,0-0.5,0.1-0.7,0.2c-0.1,0.1-0.2,0.3-0.3,0.6c-0.1,0.5-0.1,1-0.2,1.6
		c-0.1,0.5-0.1,1-0.2,1.5c-0.1,0.5-0.1,0.8-0.2,1.2c-0.1,0.8-0.4,1.4-0.9,1.8c-0.5,0.4-1,0.7-1.6,0.8c-0.6,0.1-1.3,0.1-2,0l-0.4-2.6
		c0.3-0.1,0.5-0.1,0.8-0.1c0.2,0,0.4-0.1,0.6-0.2c0.2-0.1,0.3-0.3,0.3-0.6c0.1-0.2,0.1-0.4,0.2-0.7c0-0.3,0.1-0.5,0.1-0.9
		c0-0.3,0.1-0.7,0.1-1.1c0-0.4,0.1-0.8,0.1-1.3c0.1-0.8,0.3-1.4,0.8-1.9c0.4-0.4,1.1-0.6,1.9-0.6H731.4z M731.7,344.6v9.9h-3.6v-9.9
		H731.7z"/>
	<path class="st1" d="M741.9,348.4l0,1.8h-4.2c-0.3,0-0.5,0.1-0.7,0.2c-0.1,0.1-0.2,0.3-0.2,0.6v0.4c0,0.3,0.1,0.4,0.2,0.6
		c0.2,0.1,0.4,0.2,0.7,0.2s0.7-0.1,1.1-0.2c0.4-0.1,0.7-0.3,1.1-0.6c0.4-0.3,0.7-0.5,0.9-0.8v1.3c-0.1,0.2-0.3,0.5-0.5,0.8
		c-0.2,0.3-0.5,0.6-0.8,1c-0.3,0.3-0.8,0.6-1.3,0.8c-0.5,0.2-1.1,0.3-1.7,0.3c-0.6,0-1.1-0.1-1.6-0.3c-0.5-0.2-0.9-0.5-1.2-0.9
		c-0.3-0.4-0.4-0.9-0.4-1.5v-1c0-0.8,0.3-1.4,0.8-1.9c0.6-0.4,1.3-0.7,2.3-0.7H741.9z M739.3,344.3c0.9,0,1.6,0.1,2.2,0.4
		c0.6,0.2,1.1,0.6,1.4,1.2c0.3,0.6,0.5,1.3,0.5,2.3v6.3h-2.9l-0.5-2.1l-0.2-0.4v-3.8c0-0.4-0.1-0.7-0.3-0.9c-0.2-0.2-0.5-0.3-1-0.3
		c-0.5,0-1.2,0-1.9,0c-0.8,0-1.5,0.1-2.4,0.1l-0.3-2.3c0.5-0.1,1.1-0.2,1.7-0.2c0.7-0.1,1.3-0.1,2-0.2
		C738.2,344.3,738.8,344.3,739.3,344.3z"/>
	<path class="st1" d="M749.7,344.3c0.9,0,1.6,0,2.2,0c0.6,0,1.1,0,1.5,0c0.4,0,0.8,0.1,1.3,0.1l-0.3,2.4c-0.1,0-0.6-0.1-1.4-0.1
		c-0.8,0-1.9,0-3.3,0c-0.5,0-0.8,0.1-0.9,0.2c-0.1,0.1-0.2,0.4-0.2,0.7c0,0.5,0.1,0.8,0.2,1s0.4,0.3,0.9,0.3h4.7l0.1,2.1
		c-0.3,0-0.5,0-0.9,0c-0.3,0-0.8,0-1.4,0s-1.4,0-2.3,0c-0.3,0-0.5,0-0.7,0.1c-0.1,0.1-0.2,0.2-0.3,0.5l-0.6,2.6h-3.7l0.8-3.1
		c0.1-0.3,0.3-0.5,0.5-0.7c0.2-0.1,0.5-0.2,0.7-0.3c0.3-0.1,0.5-0.1,0.7-0.1v-0.1c-0.6-0.1-1-0.3-1.3-0.6c-0.3-0.3-0.5-0.6-0.7-1
		c-0.1-0.4-0.2-0.7-0.2-1.1c0-0.6,0.1-1.1,0.2-1.5c0.1-0.4,0.4-0.7,0.7-1c0.3-0.2,0.8-0.4,1.4-0.5
		C748.1,344.4,748.8,344.3,749.7,344.3z M754.7,344.5v9.9h-3.5v-9.9H754.7z"/>
	<path class="st1" d="M764.7,344.6v2.3c0,0.4,0,0.8-0.1,1.2c-0.1,0.4-0.2,0.8-0.4,1.2c0.1,0.3,0.3,0.7,0.4,1c0.1,0.4,0.2,0.7,0.2,1
		v3.1h-3.6v-9.9H764.7z M765.8,348.2v2.3h-2v-2.3H765.8z M771,344.6c-0.3,0.8-0.5,1.5-0.6,2c-0.2,0.5-0.3,1-0.5,1.3
		c-0.1,0.3-0.3,0.6-0.5,0.7c-0.2,0.2-0.4,0.3-0.7,0.4c-0.3,0.1-0.7,0.2-1.1,0.2v0.1c0.5,0.1,0.8,0.1,1.1,0.2
		c0.3,0.1,0.6,0.2,0.8,0.4s0.4,0.4,0.6,0.8c0.2,0.3,0.4,0.8,0.5,1.4c0.2,0.6,0.4,1.4,0.7,2.3h-3.8c-0.2-0.8-0.4-1.4-0.6-1.9
		c-0.2-0.5-0.3-0.9-0.4-1.2c-0.1-0.3-0.2-0.5-0.4-0.6c-0.1-0.1-0.3-0.2-0.5-0.2c-0.2,0-0.4,0-0.7,0l-0.1-2.3c0.4,0,0.6,0,0.9-0.1
		c0.2-0.1,0.4-0.2,0.5-0.5c0.1-0.2,0.3-0.6,0.4-1.1c0.1-0.5,0.3-1.1,0.5-2H771z"/>
	<path class="st1" d="M777.5,344.3c1.3,0,2.3,0.2,3.1,0.5c0.8,0.3,1.3,0.9,1.7,1.6c0.3,0.8,0.5,1.8,0.5,3.1c0,1.3-0.2,2.3-0.5,3
		c-0.3,0.7-0.9,1.3-1.7,1.6c-0.8,0.3-1.8,0.5-3.1,0.5c-1.3,0-2.3-0.2-3.1-0.5c-0.8-0.3-1.3-0.9-1.7-1.6c-0.3-0.7-0.5-1.8-0.5-3
		c0-1.3,0.2-2.3,0.5-3.1c0.3-0.8,0.9-1.3,1.7-1.6C775.2,344.5,776.2,344.3,777.5,344.3z M777.5,346.8c-0.4,0-0.7,0.1-0.9,0.2
		c-0.2,0.1-0.4,0.4-0.5,0.8s-0.1,0.9-0.1,1.7c0,0.7,0,1.3,0.1,1.7c0.1,0.4,0.3,0.6,0.5,0.8c0.2,0.1,0.5,0.2,0.9,0.2
		c0.4,0,0.7-0.1,1-0.2c0.2-0.1,0.4-0.4,0.5-0.8c0.1-0.4,0.1-0.9,0.1-1.7c0-0.7,0-1.3-0.1-1.7c-0.1-0.4-0.2-0.6-0.5-0.8
		C778.3,346.9,777.9,346.8,777.5,346.8z"/>
	<path class="st1" d="M797.1,344.6c0.8,0,1.2,0.4,1.2,1.2l0.3,8.6h-3.3l-0.3-7.2h-0.3l-1.2,4.8c-0.1,0.4-0.2,0.6-0.4,0.8
		c-0.2,0.2-0.5,0.3-0.9,0.3h-1.6c-0.4,0-0.7-0.1-0.9-0.3c-0.2-0.2-0.4-0.5-0.5-0.8l-1.2-4.8h-0.2l-0.2,7.2h-3.3l0.2-8.6
		c0-0.8,0.4-1.2,1.3-1.2h3c0.4,0,0.7,0.1,0.9,0.3s0.4,0.5,0.4,0.9l0.9,3.7c0.1,0.2,0.1,0.5,0.1,0.7c0,0.2,0,0.5,0.1,0.7h0.2
		c0-0.3,0-0.5,0.1-0.7c0-0.2,0.1-0.5,0.1-0.7l0.9-3.7c0.1-0.8,0.6-1.1,1.4-1.1H797.1z"/>
	<path class="st1" d="M804.1,344.6v9.9h-3.6v-9.9H804.1z M807.3,348.1v2.4H804v-2.4H807.3z M810.7,344.6v9.9h-3.5v-9.9H810.7z"/>
	<path class="st1" d="M821,348.4l0,1.8h-4.2c-0.3,0-0.5,0.1-0.7,0.2c-0.1,0.1-0.2,0.3-0.2,0.6v0.4c0,0.3,0.1,0.4,0.2,0.6
		c0.2,0.1,0.4,0.2,0.7,0.2c0.3,0,0.7-0.1,1.1-0.2c0.4-0.1,0.7-0.3,1.1-0.6c0.4-0.3,0.7-0.5,0.9-0.8v1.3c-0.1,0.2-0.3,0.5-0.5,0.8
		c-0.2,0.3-0.5,0.6-0.8,1c-0.3,0.3-0.8,0.6-1.3,0.8c-0.5,0.2-1.1,0.3-1.7,0.3c-0.6,0-1.1-0.1-1.6-0.3c-0.5-0.2-0.9-0.5-1.2-0.9
		c-0.3-0.4-0.4-0.9-0.4-1.5v-1c0-0.8,0.3-1.4,0.8-1.9c0.6-0.4,1.3-0.7,2.3-0.7H821z M818.3,344.3c0.9,0,1.6,0.1,2.2,0.4
		c0.6,0.2,1.1,0.6,1.4,1.2c0.3,0.6,0.5,1.3,0.5,2.3v6.3h-2.9l-0.5-2.1l-0.2-0.4v-3.8c0-0.4-0.1-0.7-0.3-0.9c-0.2-0.2-0.5-0.3-1-0.3
		c-0.5,0-1.1,0-1.9,0c-0.8,0-1.5,0.1-2.4,0.1l-0.3-2.3c0.5-0.1,1.1-0.2,1.7-0.2c0.7-0.1,1.3-0.1,2-0.2
		C817.2,344.3,817.8,344.3,818.3,344.3z"/>
	<path class="st1" d="M833.5,344.6v2.7h-9.9v-2.7H833.5z M830.4,344.6v9.9h-3.6v-9.9H830.4z"/>
	<path class="st1" d="M843,348.4l0,1.8h-4.2c-0.3,0-0.5,0.1-0.7,0.2c-0.1,0.1-0.2,0.3-0.2,0.6v0.4c0,0.3,0.1,0.4,0.2,0.6
		c0.2,0.1,0.4,0.2,0.7,0.2c0.3,0,0.7-0.1,1.1-0.2c0.4-0.1,0.7-0.3,1.1-0.6c0.4-0.3,0.7-0.5,0.9-0.8v1.3c-0.1,0.2-0.3,0.5-0.5,0.8
		c-0.2,0.3-0.5,0.6-0.8,1c-0.3,0.3-0.8,0.6-1.3,0.8c-0.5,0.2-1.1,0.3-1.7,0.3c-0.6,0-1.1-0.1-1.6-0.3c-0.5-0.2-0.9-0.5-1.2-0.9
		c-0.3-0.4-0.4-0.9-0.4-1.5v-1c0-0.8,0.3-1.4,0.8-1.9c0.6-0.4,1.3-0.7,2.3-0.7H843z M840.3,344.3c0.9,0,1.6,0.1,2.2,0.4
		c0.6,0.2,1.1,0.6,1.4,1.2c0.3,0.6,0.5,1.3,0.5,2.3v6.3h-2.9l-0.5-2.1l-0.2-0.4v-3.8c0-0.4-0.1-0.7-0.3-0.9c-0.2-0.2-0.5-0.3-1-0.3
		c-0.5,0-1.2,0-1.9,0c-0.8,0-1.5,0.1-2.4,0.1l-0.3-2.3c0.5-0.1,1.1-0.2,1.7-0.2c0.7-0.1,1.3-0.1,2-0.2
		C839.2,344.3,839.8,344.3,840.3,344.3z"/>
</g>
<g>
	<path class="st1" d="M557.2,326.9c1.2,0,2.2,0.1,3,0.3c0.7,0.2,1.3,0.6,1.6,1.1c0.3,0.5,0.5,1.2,0.5,2.2c0,1-0.2,1.7-0.6,2.2
		c-0.4,0.5-1,0.8-1.9,0.9v0.1c1.1,0.1,1.8,0.4,2.3,1.1c0.4,0.6,0.6,1.5,0.6,2.6c0,0.9-0.2,1.7-0.5,2.2c-0.3,0.5-0.9,0.9-1.6,1.1
		s-1.6,0.3-2.8,0.3c-0.9,0-1.8,0-2.5,0c-0.7,0-1.4,0-1.9,0c-0.6,0-1.2-0.1-1.8-0.1l0.3-2.5c0.3,0,1,0,1.9,0c1,0,2.1,0,3.3,0
		c0.5,0,0.8,0,1.1-0.1c0.3-0.1,0.4-0.3,0.5-0.5c0.1-0.3,0.2-0.6,0.2-1.1c0-0.5-0.1-0.9-0.2-1.1c-0.1-0.3-0.3-0.4-0.5-0.5
		c-0.3-0.1-0.6-0.1-1.1-0.1H552v-2.2h5.2c0.4,0,0.7,0,0.9-0.1c0.2-0.1,0.4-0.2,0.5-0.5c0.1-0.2,0.1-0.5,0.1-1c0-0.4,0-0.7-0.1-0.9
		c-0.1-0.2-0.3-0.4-0.5-0.4c-0.2-0.1-0.6-0.1-1-0.1c-0.8,0-1.5,0-2.1,0c-0.6,0-1.1,0-1.6,0c-0.5,0-0.9,0-1.4,0.1l-0.3-2.5
		c0.6-0.1,1.1-0.1,1.7-0.1c0.5,0,1.1,0,1.7,0C555.7,326.9,556.4,326.9,557.2,326.9z M555.3,327v13.7h-3.6V327H555.3z"/>
	<path class="st1" d="M572.6,334.7l0,1.8h-4.2c-0.3,0-0.5,0.1-0.7,0.2c-0.1,0.1-0.2,0.3-0.2,0.6v0.4c0,0.3,0.1,0.4,0.2,0.6
		c0.2,0.1,0.4,0.2,0.7,0.2c0.3,0,0.7-0.1,1.1-0.2c0.4-0.1,0.7-0.3,1.1-0.6c0.4-0.3,0.7-0.5,0.9-0.8v1.3c-0.1,0.2-0.3,0.5-0.5,0.8
		c-0.2,0.3-0.5,0.6-0.8,1c-0.3,0.3-0.8,0.6-1.3,0.8c-0.5,0.2-1.1,0.3-1.7,0.3c-0.6,0-1.1-0.1-1.6-0.3c-0.5-0.2-0.9-0.5-1.2-0.9
		c-0.3-0.4-0.4-0.9-0.4-1.5v-1c0-0.8,0.3-1.4,0.8-1.9c0.6-0.4,1.3-0.7,2.3-0.7H572.6z M569.9,330.6c0.9,0,1.6,0.1,2.2,0.4
		c0.6,0.2,1.1,0.6,1.4,1.2c0.3,0.6,0.5,1.3,0.5,2.3v6.3h-2.9l-0.5-2.1l-0.2-0.4v-3.8c0-0.4-0.1-0.7-0.3-0.9c-0.2-0.2-0.5-0.3-1-0.3
		c-0.5,0-1.1,0-1.9,0c-0.8,0-1.5,0.1-2.4,0.1l-0.3-2.3c0.5-0.1,1.1-0.2,1.7-0.2c0.7-0.1,1.3-0.1,2-0.2
		C568.9,330.6,569.4,330.6,569.9,330.6z"/>
	<path class="st1" d="M579.6,330.9v9.9h-3.6v-9.9H579.6z M582.8,334.4v2.4h-3.4v-2.4H582.8z M586.2,330.9v9.9h-3.5v-9.9H586.2z"/>
	<path class="st1" d="M591.9,330.9v9.9h-3.6v-9.9H591.9z M595.1,334.4v2.4h-3.4v-2.4H595.1z M598.5,330.9v9.9h-3.5v-9.9H598.5z"/>
	<path class="st1" d="M608.8,334.7l0,1.8h-4.2c-0.3,0-0.5,0.1-0.7,0.2c-0.1,0.1-0.2,0.3-0.2,0.6v0.4c0,0.3,0.1,0.4,0.2,0.6
		c0.2,0.1,0.4,0.2,0.7,0.2c0.3,0,0.7-0.1,1.1-0.2c0.4-0.1,0.7-0.3,1.1-0.6c0.4-0.3,0.7-0.5,0.9-0.8v1.3c-0.1,0.2-0.3,0.5-0.5,0.8
		c-0.2,0.3-0.5,0.6-0.8,1c-0.3,0.3-0.8,0.6-1.3,0.8c-0.5,0.2-1.1,0.3-1.7,0.3c-0.6,0-1.1-0.1-1.6-0.3c-0.5-0.2-0.9-0.5-1.2-0.9
		c-0.3-0.4-0.4-0.9-0.4-1.5v-1c0-0.8,0.3-1.4,0.8-1.9c0.6-0.4,1.3-0.7,2.3-0.7H608.8z M606.1,330.6c0.9,0,1.6,0.1,2.2,0.4
		c0.6,0.2,1.1,0.6,1.4,1.2c0.3,0.6,0.5,1.3,0.5,2.3v6.3h-2.9l-0.5-2.1l-0.2-0.4v-3.8c0-0.4-0.1-0.7-0.3-0.9c-0.2-0.2-0.5-0.3-1-0.3
		c-0.5,0-1.1,0-1.9,0c-0.8,0-1.5,0.1-2.4,0.1l-0.3-2.3c0.5-0.1,1.1-0.2,1.7-0.2c0.7-0.1,1.3-0.1,2-0.2
		C605,330.6,605.6,330.6,606.1,330.6z"/>
	<path class="st1" d="M616.5,330.6c0.9,0,1.6,0,2.2,0c0.6,0,1.1,0,1.5,0c0.4,0,0.8,0.1,1.3,0.1l-0.3,2.4c-0.1,0-0.6-0.1-1.4-0.1
		c-0.8,0-1.9,0-3.3,0c-0.5,0-0.7,0.1-0.9,0.2c-0.1,0.1-0.2,0.4-0.2,0.7c0,0.5,0.1,0.8,0.2,1c0.1,0.2,0.4,0.3,0.9,0.3h4.7l0.1,2.1
		c-0.3,0-0.5,0-0.9,0c-0.3,0-0.8,0-1.4,0s-1.4,0-2.3,0c-0.3,0-0.5,0-0.7,0.1c-0.1,0.1-0.2,0.2-0.3,0.5l-0.6,2.6h-3.7l0.8-3.1
		c0.1-0.3,0.3-0.5,0.5-0.7c0.2-0.1,0.5-0.2,0.7-0.3c0.3-0.1,0.5-0.1,0.7-0.1v-0.1c-0.6-0.1-1-0.3-1.3-0.6c-0.3-0.3-0.5-0.6-0.7-1
		c-0.1-0.4-0.2-0.7-0.2-1.1c0-0.6,0.1-1.1,0.2-1.5c0.1-0.4,0.4-0.7,0.7-1c0.3-0.2,0.8-0.4,1.4-0.5
		C614.9,330.7,615.6,330.6,616.5,330.6z M621.5,330.8v9.9H618v-9.9H621.5z"/>
</g>
<g>
	<path class="st1" d="M590.5,545.1c0.3,1,0.6,1.9,0.8,2.6s0.4,1.2,0.6,1.6c0.2,0.4,0.4,0.7,0.6,0.9c0.2,0.2,0.5,0.3,0.8,0.3v2.5
		c-0.3,0-0.6,0.1-0.8,0.2c-0.2,0.2-0.4,0.4-0.6,0.8c-0.2,0.4-0.4,1-0.6,1.8c-0.2,0.8-0.6,1.8-0.9,3h-3.9c0.3-1.1,0.6-2.1,0.8-2.9
		c0.2-0.8,0.5-1.4,0.7-1.9c0.2-0.5,0.5-0.9,0.7-1.2c0.3-0.3,0.6-0.5,0.9-0.7c0.4-0.2,0.8-0.3,1.4-0.3v-0.1c-0.5-0.1-1-0.2-1.3-0.3
		c-0.4-0.2-0.6-0.4-0.9-0.7c-0.2-0.3-0.5-0.7-0.6-1.2c-0.2-0.5-0.4-1.1-0.6-1.8c-0.2-0.7-0.5-1.5-0.7-2.5H590.5z M594.6,550.4v2.5
		h-1.9v-2.5H594.6z M597.3,545.1v3.7c0,0.5,0,1-0.1,1.5c-0.1,0.5-0.2,1-0.4,1.4c0.1,0.4,0.3,0.9,0.4,1.3c0.1,0.5,0.2,0.9,0.2,1.3
		v4.6h-3.6v-4.6c0-0.4,0.1-0.8,0.2-1.3c0.1-0.5,0.2-0.9,0.4-1.3c-0.2-0.4-0.3-0.9-0.4-1.4c-0.1-0.5-0.1-1-0.1-1.5v-3.7H597.3z
		 M598.4,550.4v2.5h-1.9v-2.5H598.4z M604.4,545.1c-0.3,1-0.5,1.8-0.7,2.5c-0.2,0.7-0.4,1.3-0.6,1.8c-0.2,0.5-0.4,0.9-0.6,1.2
		c-0.2,0.3-0.5,0.5-0.9,0.7c-0.3,0.2-0.8,0.3-1.3,0.3v0.1c0.6,0.1,1,0.2,1.4,0.3c0.4,0.2,0.7,0.4,0.9,0.7c0.3,0.3,0.5,0.7,0.7,1.2
		c0.2,0.5,0.4,1.2,0.7,1.9c0.2,0.8,0.5,1.7,0.8,2.9h-3.9c-0.4-1.2-0.7-2.3-0.9-3c-0.2-0.8-0.5-1.4-0.6-1.8c-0.2-0.4-0.4-0.7-0.6-0.8
		c-0.2-0.2-0.5-0.2-0.9-0.2l0-2.5c0.3,0,0.6-0.1,0.8-0.3c0.2-0.2,0.4-0.5,0.6-0.9c0.2-0.4,0.4-1,0.6-1.6c0.2-0.7,0.5-1.5,0.8-2.6
		H604.4z"/>
	<path class="st1" d="M616.3,548.9v9.9l-3.2,0v-4.5c0-0.3,0-0.6,0-0.8c0-0.3,0.1-0.6,0.1-0.9h-0.1c-0.1,0.3-0.2,0.6-0.4,0.9
		c-0.2,0.3-0.3,0.6-0.4,0.8l-3.1,4.5h-3.2v-9.9h3.2v4.7c0,0.3,0,0.5,0,0.7c0,0.2-0.1,0.5-0.1,0.8h0.1c0.1-0.3,0.2-0.5,0.3-0.8
		c0.1-0.2,0.3-0.5,0.4-0.7l3.2-4.7H616.3z"/>
	<path class="st1" d="M628.1,548.9v2.4h-4.2c-0.3,0-0.5,0.1-0.7,0.2s-0.2,0.3-0.3,0.6c-0.1,0.5-0.1,1-0.2,1.6
		c-0.1,0.5-0.1,1-0.2,1.5c-0.1,0.5-0.1,0.8-0.2,1.2c-0.1,0.8-0.4,1.4-0.9,1.8c-0.5,0.4-1,0.7-1.6,0.8c-0.6,0.1-1.3,0.1-2,0l-0.4-2.6
		c0.3-0.1,0.5-0.1,0.8-0.1c0.2,0,0.4-0.1,0.6-0.2c0.2-0.1,0.3-0.3,0.3-0.6c0.1-0.2,0.1-0.4,0.2-0.7c0-0.3,0.1-0.5,0.1-0.9
		c0-0.3,0.1-0.7,0.1-1.1c0-0.4,0.1-0.8,0.1-1.3c0.1-0.8,0.3-1.4,0.8-1.9c0.4-0.4,1.1-0.6,1.9-0.6H628.1z M628.4,548.9v9.9h-3.6v-9.9
		H628.4z"/>
	<path class="st1" d="M638.7,552.7l0,1.8h-4.2c-0.3,0-0.5,0.1-0.7,0.2c-0.1,0.1-0.2,0.3-0.2,0.6v0.4c0,0.3,0.1,0.4,0.2,0.6
		c0.2,0.1,0.4,0.2,0.7,0.2c0.3,0,0.7-0.1,1.1-0.2c0.4-0.1,0.7-0.3,1.1-0.6c0.4-0.3,0.7-0.5,0.9-0.8v1.3c-0.1,0.2-0.3,0.5-0.5,0.8
		c-0.2,0.3-0.5,0.6-0.8,1c-0.3,0.3-0.8,0.6-1.3,0.8c-0.5,0.2-1.1,0.3-1.7,0.3c-0.6,0-1.1-0.1-1.6-0.3c-0.5-0.2-0.9-0.5-1.2-0.9
		c-0.3-0.4-0.4-0.9-0.4-1.5v-1c0-0.8,0.3-1.4,0.8-1.9c0.6-0.4,1.3-0.7,2.3-0.7H638.7z M636,548.6c0.9,0,1.6,0.1,2.2,0.4
		c0.6,0.2,1.1,0.6,1.4,1.2c0.3,0.6,0.5,1.3,0.5,2.3v6.3h-2.9l-0.5-2.1l-0.2-0.4v-3.8c0-0.4-0.1-0.7-0.3-0.9c-0.2-0.2-0.5-0.3-1-0.3
		c-0.5,0-1.2,0-1.9,0c-0.8,0-1.5,0.1-2.4,0.1l-0.3-2.3c0.5-0.1,1.1-0.2,1.7-0.2c0.7-0.1,1.3-0.1,2-0.2
		C634.9,548.7,635.5,548.6,636,548.6z"/>
	<path class="st1" d="M646.4,548.7c0.9,0,1.6,0,2.2,0c0.6,0,1.1,0,1.5,0c0.4,0,0.8,0.1,1.3,0.1l-0.3,2.4c-0.1,0-0.6-0.1-1.4-0.1
		c-0.8,0-1.9,0-3.3,0c-0.5,0-0.8,0.1-0.9,0.2c-0.1,0.1-0.2,0.4-0.2,0.7c0,0.5,0.1,0.8,0.2,1c0.1,0.2,0.4,0.3,0.9,0.3h4.7l0.1,2.1
		c-0.3,0-0.5,0-0.9,0c-0.3,0-0.8,0-1.4,0c-0.6,0-1.4,0-2.3,0c-0.3,0-0.5,0-0.7,0.1c-0.1,0.1-0.2,0.2-0.3,0.5l-0.6,2.6h-3.7l0.8-3.1
		c0.1-0.3,0.3-0.5,0.5-0.7c0.2-0.1,0.5-0.2,0.7-0.3c0.3-0.1,0.5-0.1,0.7-0.1v-0.1c-0.6-0.1-1-0.3-1.3-0.6c-0.3-0.3-0.5-0.6-0.7-1
		c-0.1-0.4-0.2-0.7-0.2-1.1c0-0.6,0.1-1.1,0.2-1.5c0.1-0.4,0.4-0.7,0.7-1c0.3-0.2,0.8-0.4,1.4-0.5
		C644.8,548.7,645.5,548.7,646.4,548.7z M651.4,548.8v9.9h-3.5v-9.9H651.4z"/>
	<path class="st1" d="M661.4,548.9v2.3c0,0.4,0,0.8-0.1,1.2c-0.1,0.4-0.2,0.8-0.4,1.2c0.1,0.3,0.3,0.7,0.4,1c0.1,0.4,0.2,0.7,0.2,1
		v3.1h-3.6v-9.9H661.4z M662.5,552.5v2.3h-2v-2.3H662.5z M667.7,548.9c-0.3,0.8-0.5,1.5-0.6,2c-0.2,0.5-0.3,1-0.5,1.3
		c-0.1,0.3-0.3,0.6-0.5,0.7c-0.2,0.2-0.4,0.3-0.7,0.4c-0.3,0.1-0.7,0.2-1.1,0.2v0.1c0.5,0.1,0.8,0.1,1.1,0.2
		c0.3,0.1,0.6,0.2,0.8,0.4c0.2,0.2,0.4,0.4,0.6,0.8c0.2,0.3,0.4,0.8,0.5,1.4c0.2,0.6,0.4,1.4,0.7,2.3h-3.8c-0.2-0.8-0.4-1.4-0.6-1.9
		c-0.2-0.5-0.3-0.9-0.4-1.2c-0.1-0.3-0.2-0.5-0.4-0.6c-0.1-0.1-0.3-0.2-0.5-0.2s-0.4,0-0.7,0l-0.1-2.3c0.4,0,0.6,0,0.9-0.1
		c0.2-0.1,0.4-0.2,0.5-0.5c0.1-0.2,0.3-0.6,0.4-1.1c0.1-0.5,0.3-1.1,0.5-2H667.7z"/>
	<path class="st1" d="M674.2,548.6c1.3,0,2.3,0.2,3.1,0.5c0.8,0.3,1.3,0.9,1.7,1.6c0.3,0.8,0.5,1.8,0.5,3.1c0,1.3-0.2,2.3-0.5,3
		c-0.3,0.7-0.9,1.3-1.7,1.6c-0.8,0.3-1.8,0.5-3.1,0.5c-1.3,0-2.3-0.2-3.1-0.5c-0.8-0.3-1.3-0.9-1.7-1.6c-0.3-0.7-0.5-1.8-0.5-3
		c0-1.3,0.2-2.3,0.5-3.1c0.4-0.8,0.9-1.3,1.7-1.6C671.9,548.8,673,548.6,674.2,548.6z M674.2,551.2c-0.4,0-0.7,0.1-0.9,0.2
		c-0.2,0.1-0.4,0.4-0.5,0.8c-0.1,0.4-0.1,0.9-0.1,1.7c0,0.7,0,1.3,0.1,1.7c0.1,0.4,0.3,0.6,0.5,0.8c0.2,0.1,0.5,0.2,0.9,0.2
		c0.4,0,0.7-0.1,1-0.2c0.2-0.1,0.4-0.4,0.5-0.8c0.1-0.4,0.1-0.9,0.1-1.7c0-0.7,0-1.3-0.1-1.7c-0.1-0.4-0.2-0.6-0.5-0.8
		C675,551.2,674.6,551.2,674.2,551.2z"/>
	<path class="st1" d="M693.8,548.9c0.8,0,1.2,0.4,1.2,1.2l0.3,8.6H692l-0.3-7.2h-0.3l-1.2,4.8c-0.1,0.4-0.2,0.6-0.4,0.8
		c-0.2,0.2-0.5,0.3-0.9,0.3h-1.6c-0.4,0-0.7-0.1-0.9-0.3c-0.2-0.2-0.4-0.5-0.4-0.8l-1.2-4.8h-0.2l-0.2,7.2h-3.3l0.2-8.6
		c0-0.8,0.4-1.2,1.3-1.2h3c0.4,0,0.7,0.1,0.9,0.3c0.2,0.2,0.4,0.5,0.4,0.9l0.9,3.7c0.1,0.2,0.1,0.5,0.1,0.7c0,0.2,0,0.5,0.1,0.7h0.2
		c0-0.3,0-0.5,0.1-0.7c0-0.2,0.1-0.5,0.1-0.7l0.9-3.7c0.1-0.8,0.6-1.1,1.3-1.1H693.8z"/>
	<path class="st1" d="M700.8,548.9v9.9h-3.6v-9.9H700.8z M704,552.4v2.4h-3.4v-2.4H704z M707.4,548.9v9.9h-3.5v-9.9H707.4z"/>
	<path class="st1" d="M717.7,552.7l0,1.8h-4.2c-0.3,0-0.5,0.1-0.7,0.2c-0.1,0.1-0.2,0.3-0.2,0.6v0.4c0,0.3,0.1,0.4,0.2,0.6
		c0.2,0.1,0.4,0.2,0.7,0.2s0.7-0.1,1.1-0.2c0.4-0.1,0.7-0.3,1.1-0.6c0.4-0.3,0.7-0.5,0.9-0.8v1.3c-0.1,0.2-0.3,0.5-0.5,0.8
		c-0.2,0.3-0.5,0.6-0.8,1c-0.3,0.3-0.8,0.6-1.3,0.8c-0.5,0.2-1.1,0.3-1.7,0.3c-0.6,0-1.1-0.1-1.6-0.3c-0.5-0.2-0.9-0.5-1.2-0.9
		c-0.3-0.4-0.4-0.9-0.4-1.5v-1c0-0.8,0.3-1.4,0.8-1.9c0.6-0.4,1.3-0.7,2.3-0.7H717.7z M715,548.6c0.9,0,1.6,0.1,2.2,0.4
		c0.6,0.2,1.1,0.6,1.4,1.2c0.3,0.6,0.5,1.3,0.5,2.3v6.3h-2.9l-0.5-2.1l-0.2-0.4v-3.8c0-0.4-0.1-0.7-0.3-0.9c-0.2-0.2-0.5-0.3-1-0.3
		c-0.5,0-1.2,0-1.9,0c-0.8,0-1.5,0.1-2.4,0.1l-0.3-2.3c0.5-0.1,1.1-0.2,1.7-0.2c0.7-0.1,1.3-0.1,2-0.2
		C713.9,548.7,714.5,548.6,715,548.6z"/>
	<path class="st1" d="M730.2,548.9v2.7h-9.9v-2.7H730.2z M727.1,548.9v9.9h-3.6v-9.9H727.1z"/>
	<path class="st1" d="M739.7,552.7l0,1.8h-4.2c-0.3,0-0.5,0.1-0.7,0.2c-0.1,0.1-0.2,0.3-0.2,0.6v0.4c0,0.3,0.1,0.4,0.2,0.6
		c0.2,0.1,0.4,0.2,0.7,0.2c0.3,0,0.7-0.1,1.1-0.2c0.4-0.1,0.7-0.3,1.1-0.6c0.4-0.3,0.7-0.5,0.9-0.8v1.3c-0.1,0.2-0.3,0.5-0.5,0.8
		c-0.2,0.3-0.5,0.6-0.8,1c-0.3,0.3-0.8,0.6-1.3,0.8c-0.5,0.2-1.1,0.3-1.7,0.3c-0.6,0-1.1-0.1-1.6-0.3c-0.5-0.2-0.9-0.5-1.2-0.9
		c-0.3-0.4-0.4-0.9-0.4-1.5v-1c0-0.8,0.3-1.4,0.8-1.9c0.6-0.4,1.3-0.7,2.3-0.7H739.7z M737,548.6c0.9,0,1.6,0.1,2.2,0.4
		c0.6,0.2,1.1,0.6,1.4,1.2c0.3,0.6,0.5,1.3,0.5,2.3v6.3h-2.9l-0.5-2.1l-0.2-0.4v-3.8c0-0.4-0.1-0.7-0.3-0.9c-0.2-0.2-0.5-0.3-1-0.3
		c-0.5,0-1.1,0-1.9,0c-0.8,0-1.5,0.1-2.4,0.1l-0.3-2.3c0.5-0.1,1.1-0.2,1.7-0.2c0.7-0.1,1.3-0.1,2-0.2
		C736,548.7,736.5,548.6,737,548.6z"/>
</g>
<g>
	<path class="st1" d="M216.4,510v3.7c0,0.5,0,1-0.1,1.5c-0.1,0.5-0.2,1-0.4,1.4c0.1,0.4,0.3,0.9,0.4,1.3c0.1,0.5,0.2,0.9,0.2,1.3
		v4.6h-3.7V510H216.4z M217.9,515.3v2.5h-2.4v-2.5H217.9z M224,510c-0.3,1-0.6,1.8-0.8,2.5c-0.2,0.7-0.4,1.3-0.6,1.8
		c-0.2,0.5-0.4,0.9-0.7,1.2c-0.2,0.3-0.5,0.5-0.9,0.7c-0.4,0.2-0.8,0.3-1.4,0.3v0.1c0.6,0.1,1,0.2,1.4,0.3c0.4,0.2,0.7,0.4,1,0.7
		c0.3,0.3,0.5,0.7,0.7,1.2c0.2,0.5,0.5,1.2,0.7,1.9c0.2,0.8,0.5,1.7,0.9,2.9h-3.9c-0.4-1.2-0.7-2.3-0.9-3c-0.2-0.8-0.5-1.4-0.7-1.8
		c-0.2-0.4-0.5-0.7-0.8-0.8c-0.3-0.2-0.7-0.2-1.2-0.2l-0.1-2.5c0.5,0,0.9-0.1,1.2-0.3c0.3-0.2,0.6-0.5,0.8-0.9
		c0.2-0.4,0.4-1,0.6-1.6c0.2-0.7,0.4-1.5,0.7-2.6H224z"/>
	<path class="st1" d="M228.5,513.8l1.5,5.9c0.1,0.3,0.1,0.6,0.1,0.9c0,0.3,0.1,0.6,0.1,0.9h0.6l-1.1,2.3h-0.8
		c-0.3,0-0.5-0.1-0.7-0.2c-0.2-0.2-0.3-0.4-0.4-0.6l-3.1-9H228.5z M236.2,513.8l-3.3,9.8c-0.2,0.8-0.5,1.5-0.9,2s-0.7,0.9-1.2,1.2
		c-0.4,0.3-0.9,0.5-1.4,0.7c-0.6,0.2-1.2,0.3-1.9,0.3c-0.7,0-1.4-0.1-2.1-0.2l0.3-2.3c0.6,0,1.2,0,1.6-0.1c0.5-0.1,0.8-0.2,1.2-0.4
		c0.2-0.1,0.5-0.4,0.7-0.6c0.2-0.3,0.4-0.5,0.5-0.9l0.6-1.3c0.1-0.3,0.3-0.7,0.4-1.2c0.1-0.5,0.2-0.9,0.3-1.2l1.5-5.9H236.2z"/>
	<path class="st1" d="M240.1,513.8l2.5,4.8l-2.8,5h-3.6l3-5l-2.7-4.8H240.1z M243.9,517.6v2.1h-3.6v-2.1H243.9z M247.6,513.8
		l-2.7,4.8l3,5h-3.6l-2.8-5l2.6-4.8H247.6z"/>
	<path class="st1" d="M252.5,513.8v9.9H249v-9.9H252.5z M255.8,517.3v2.4h-3.4v-2.4H255.8z M259.1,513.8v9.9h-3.5v-9.9H259.1z"/>
	<path class="st1" d="M265.6,513.6c0.9,0,1.6,0,2.2,0c0.6,0,1.1,0,1.5,0c0.4,0,0.8,0.1,1.3,0.1l-0.3,2.4c-0.1,0-0.6-0.1-1.4-0.1
		c-0.8,0-1.9,0-3.3,0c-0.5,0-0.7,0.1-0.9,0.2c-0.1,0.1-0.2,0.4-0.2,0.7c0,0.5,0.1,0.8,0.2,1c0.1,0.2,0.4,0.3,0.9,0.3h4.7l0.1,2.1
		c-0.3,0-0.5,0-0.9,0c-0.3,0-0.8,0-1.4,0c-0.6,0-1.4,0-2.3,0c-0.3,0-0.5,0-0.7,0.1c-0.1,0.1-0.2,0.2-0.3,0.5l-0.6,2.6h-3.7l0.8-3.1
		c0.1-0.3,0.3-0.5,0.5-0.7c0.2-0.1,0.5-0.2,0.7-0.3c0.3-0.1,0.5-0.1,0.7-0.1v-0.1c-0.6-0.1-1-0.3-1.3-0.6c-0.3-0.3-0.5-0.6-0.7-1
		c-0.1-0.4-0.2-0.7-0.2-1.1c0-0.6,0.1-1.1,0.2-1.5c0.1-0.4,0.4-0.7,0.7-1c0.3-0.2,0.8-0.4,1.4-0.5
		C263.9,513.7,264.7,513.6,265.6,513.6z M270.6,513.8v9.9h-3.5v-9.9H270.6z"/>
	<path class="st1" d="M278.5,517.5v2.2h-5.9v-2.2H278.5z"/>
	<path class="st1" d="M284.1,513.8v9.9h-3.6v-9.9H284.1z M287.3,517.3v2.4H284v-2.4H287.3z M290.7,513.8v9.9h-3.5v-9.9H290.7z"/>
	<path class="st1" d="M303,513.8v9.9l-3.2,0v-4.5c0-0.3,0-0.6,0-0.8c0-0.3,0.1-0.6,0.1-0.9h-0.1c-0.1,0.3-0.2,0.6-0.4,0.9
		c-0.2,0.3-0.3,0.6-0.4,0.8l-3.1,4.5h-3.2v-9.9h3.2v4.7c0,0.3,0,0.5,0,0.7c0,0.2-0.1,0.5-0.1,0.8h0.1c0.1-0.3,0.2-0.5,0.3-0.8
		c0.1-0.2,0.3-0.5,0.4-0.7l3.2-4.7H303z"/>
	<path class="st1" d="M308.7,513.8v9.9h-3.5v-9.9H308.7z M317.4,521.3v2.4h-8.9v-2.4H317.4z M314.2,513.8v9.9H311v-9.9H314.2z
		 M320,513.8v9.9h-3.5v-9.9H320z"/>
	<path class="st1" d="M330.3,517.7l0,1.8h-4.2c-0.3,0-0.5,0.1-0.7,0.2c-0.1,0.1-0.2,0.3-0.2,0.6v0.4c0,0.3,0.1,0.4,0.2,0.6
		c0.2,0.1,0.4,0.2,0.7,0.2c0.3,0,0.7-0.1,1.1-0.2s0.7-0.3,1.1-0.6c0.4-0.3,0.7-0.5,0.9-0.8v1.3c-0.1,0.2-0.3,0.5-0.5,0.8
		s-0.5,0.6-0.8,1c-0.3,0.3-0.8,0.6-1.3,0.8c-0.5,0.2-1.1,0.3-1.7,0.3c-0.6,0-1.1-0.1-1.6-0.3c-0.5-0.2-0.9-0.5-1.2-0.9
		c-0.3-0.4-0.4-0.9-0.4-1.5v-1c0-0.8,0.3-1.4,0.8-1.9c0.6-0.4,1.3-0.7,2.3-0.7H330.3z M327.6,513.6c0.9,0,1.6,0.1,2.2,0.4
		c0.6,0.2,1.1,0.6,1.4,1.2c0.3,0.6,0.5,1.3,0.5,2.3v6.3h-2.9l-0.5-2.1l-0.2-0.4v-3.8c0-0.4-0.1-0.7-0.3-0.9c-0.2-0.2-0.5-0.3-1-0.3
		c-0.5,0-1.2,0-1.9,0c-0.8,0-1.5,0.1-2.4,0.1l-0.3-2.3c0.5-0.1,1.1-0.2,1.7-0.2c0.7-0.1,1.3-0.1,2-0.2
		C326.6,513.6,327.1,513.6,327.6,513.6z"/>
</g>
<g>
	<path class="st1" d="M204.6,679.4v13.7h-3.7v-13.7H204.6z M208.9,679.4v2.5h-4.4v-2.5H208.9z M212.4,679.4v13.7h-3.7v-13.7H212.4z"
		/>
	<path class="st1" d="M217.6,683.2l0.4,1.7l0.4,0.3v6.5l-0.1,0.2c0,0.4,0.1,0.9,0.1,1.3c0,0.5,0,0.9,0,1.4v2.2h-3.6v-13.5H217.6z
		 M221.6,683c1.3,0,2.2,0.5,2.7,1.4c0.5,0.9,0.8,2.2,0.8,3.9c0,1.3-0.1,2.4-0.4,3.1c-0.3,0.7-0.7,1.3-1.2,1.5
		c-0.6,0.3-1.2,0.4-2.1,0.4c-0.7,0-1.4-0.1-2.1-0.3c-0.6-0.2-1.2-0.6-1.6-1.1l0.2-1.5c0.3,0.1,0.7,0.2,1,0.3s0.7,0.1,1.1,0.1
		c0.3,0,0.6-0.1,0.8-0.2c0.2-0.1,0.3-0.4,0.4-0.8c0.1-0.4,0.1-0.9,0.1-1.7c0-0.8,0-1.3-0.1-1.7c-0.1-0.4-0.2-0.6-0.4-0.8
		c-0.2-0.1-0.4-0.2-0.8-0.2c-0.4,0-0.7,0.1-1,0.2c-0.3,0.1-0.6,0.3-0.9,0.5l-0.5-1.5c0.2-0.3,0.5-0.7,0.9-0.9
		c0.4-0.3,0.8-0.5,1.4-0.7C220.6,683.1,221.1,683,221.6,683z"/>
	<path class="st1" d="M237.1,683.2v9.9l-3.2,0v-4.5c0-0.3,0-0.6,0-0.8c0-0.3,0.1-0.6,0.1-0.9H234c-0.1,0.3-0.2,0.6-0.4,0.9
		c-0.2,0.3-0.3,0.6-0.4,0.8l-3.1,4.5h-3.2v-9.9h3.2v4.7c0,0.3,0,0.5,0,0.7c0,0.2-0.1,0.5-0.1,0.8h0.1c0.1-0.3,0.2-0.5,0.3-0.8
		c0.1-0.2,0.3-0.5,0.4-0.7l3.2-4.7H237.1z"/>
	<path class="st1" d="M242.1,683.2l2.5,4.8l-2.8,5h-3.6l3-5l-2.7-4.8H242.1z M245.9,687v2.1h-3.6V687H245.9z M249.6,683.2l-2.7,4.8
		l3,5h-3.6l-2.8-5l2.6-4.8H249.6z"/>
	<path class="st1" d="M255.9,682.9c1.3,0,2.3,0.2,3.1,0.5c0.8,0.3,1.3,0.9,1.7,1.6c0.3,0.8,0.5,1.8,0.5,3.1c0,1.3-0.2,2.3-0.5,3
		c-0.3,0.7-0.9,1.3-1.7,1.6c-0.8,0.3-1.8,0.5-3.1,0.5c-1.3,0-2.3-0.2-3.1-0.5c-0.8-0.3-1.3-0.9-1.7-1.6c-0.3-0.7-0.5-1.8-0.5-3
		c0-1.3,0.2-2.3,0.5-3.1c0.4-0.8,0.9-1.3,1.7-1.6C253.5,683.1,254.6,682.9,255.9,682.9z M255.9,685.5c-0.4,0-0.7,0.1-0.9,0.2
		c-0.2,0.1-0.4,0.4-0.5,0.8c-0.1,0.4-0.1,0.9-0.1,1.7c0,0.7,0,1.3,0.1,1.7c0.1,0.4,0.3,0.6,0.5,0.8c0.2,0.1,0.5,0.2,0.9,0.2
		c0.4,0,0.7-0.1,1-0.2c0.2-0.1,0.4-0.4,0.5-0.8c0.1-0.4,0.1-0.9,0.1-1.7c0-0.7,0-1.3-0.1-1.7c-0.1-0.4-0.2-0.6-0.5-0.8
		S256.3,685.5,255.9,685.5z"/>
	<path class="st1" d="M266,683.2c0.3,0.8,0.5,1.5,0.7,1.9c0.2,0.5,0.3,0.8,0.5,1.1c0.1,0.2,0.3,0.4,0.4,0.5c0.2,0.1,0.4,0.1,0.6,0.1
		l0,2.3c-0.2,0-0.4,0-0.6,0.1c-0.2,0.1-0.3,0.2-0.4,0.4c-0.1,0.2-0.3,0.6-0.5,1.2c-0.2,0.5-0.5,1.3-0.8,2.3h-3.7
		c0.3-0.9,0.5-1.7,0.7-2.3c0.2-0.6,0.4-1.1,0.6-1.4c0.2-0.4,0.4-0.6,0.6-0.8c0.2-0.2,0.5-0.3,0.8-0.4c0.3-0.1,0.7-0.2,1.2-0.2v-0.1
		c-0.5-0.1-0.8-0.1-1.1-0.2c-0.3-0.1-0.5-0.2-0.7-0.4c-0.2-0.2-0.4-0.4-0.5-0.8c-0.2-0.3-0.3-0.8-0.5-1.3c-0.2-0.5-0.4-1.2-0.7-2
		H266z M269.3,686.8v2.3h-1.7v-2.3H269.3z M271.8,683.2v2.4c0,0.4,0,0.8-0.1,1.2c-0.1,0.4-0.2,0.8-0.4,1.1c0.1,0.3,0.3,0.7,0.4,1
		c0.1,0.4,0.2,0.7,0.2,1v3.1h-3.2v-3.1c0-0.3,0.1-0.6,0.2-1c0.1-0.4,0.2-0.7,0.3-1c-0.2-0.3-0.3-0.7-0.4-1.1s-0.1-0.8-0.1-1.2v-2.4
		H271.8z M272.8,686.8v2.3h-1.7v-2.3H272.8z M278,683.2c-0.3,0.8-0.5,1.5-0.7,2c-0.2,0.5-0.3,1-0.5,1.3c-0.2,0.3-0.3,0.6-0.5,0.8
		c-0.2,0.2-0.4,0.3-0.7,0.4c-0.3,0.1-0.7,0.2-1.1,0.2v0.1c0.5,0.1,0.9,0.1,1.2,0.2c0.3,0.1,0.6,0.2,0.8,0.4c0.2,0.2,0.4,0.4,0.6,0.8
		c0.2,0.4,0.4,0.8,0.6,1.4c0.2,0.6,0.4,1.4,0.7,2.3h-3.6c-0.3-1-0.6-1.7-0.8-2.3c-0.2-0.5-0.4-0.9-0.5-1.2c-0.1-0.2-0.3-0.4-0.4-0.4
		c-0.2-0.1-0.4-0.1-0.6-0.1l0-2.3c0.2,0,0.5,0,0.6-0.1c0.2-0.1,0.3-0.2,0.5-0.5s0.3-0.6,0.5-1.1c0.2-0.5,0.4-1.1,0.6-1.9H278z"/>
	<path class="st1" d="M287.8,687l0,1.8h-4.2c-0.3,0-0.5,0.1-0.7,0.2c-0.1,0.1-0.2,0.3-0.2,0.6v0.4c0,0.3,0.1,0.4,0.2,0.6
		c0.2,0.1,0.4,0.2,0.7,0.2c0.3,0,0.7-0.1,1.1-0.2c0.4-0.1,0.7-0.3,1.1-0.6c0.4-0.3,0.7-0.5,0.9-0.8v1.3c-0.1,0.2-0.3,0.5-0.5,0.8
		s-0.5,0.6-0.8,1c-0.3,0.3-0.8,0.6-1.3,0.8c-0.5,0.2-1.1,0.3-1.7,0.3c-0.6,0-1.1-0.1-1.6-0.3c-0.5-0.2-0.9-0.5-1.2-0.9
		c-0.3-0.4-0.4-0.9-0.4-1.5v-1c0-0.8,0.3-1.4,0.8-1.9s1.3-0.7,2.3-0.7H287.8z M285.1,682.9c0.9,0,1.6,0.1,2.2,0.4
		c0.6,0.2,1.1,0.6,1.4,1.2c0.3,0.6,0.5,1.3,0.5,2.3v6.3h-2.9l-0.5-2.1l-0.2-0.4v-3.8c0-0.4-0.1-0.7-0.3-0.9c-0.2-0.2-0.5-0.3-1-0.3
		c-0.5,0-1.2,0-1.9,0c-0.8,0-1.5,0.1-2.4,0.1l-0.3-2.3c0.5-0.1,1.1-0.2,1.7-0.2c0.7-0.1,1.3-0.1,2-0.2
		C284,683,284.6,682.9,285.1,682.9z"/>
	<path class="st1" d="M295.5,683c0.9,0,1.6,0,2.2,0c0.6,0,1.1,0,1.5,0c0.4,0,0.8,0.1,1.3,0.1l-0.3,2.4c-0.1,0-0.6-0.1-1.4-0.1
		c-0.8,0-1.9,0-3.3,0c-0.5,0-0.7,0.1-0.9,0.2c-0.1,0.1-0.2,0.4-0.2,0.7c0,0.5,0.1,0.8,0.2,1c0.1,0.2,0.4,0.3,0.9,0.3h4.7l0.1,2.1
		c-0.3,0-0.5,0-0.9,0c-0.3,0-0.8,0-1.4,0c-0.6,0-1.4,0-2.3,0c-0.3,0-0.5,0-0.7,0.1c-0.1,0.1-0.2,0.2-0.3,0.5l-0.6,2.6h-3.7l0.8-3.1
		c0.1-0.3,0.3-0.5,0.5-0.7c0.2-0.1,0.5-0.2,0.7-0.3c0.3-0.1,0.5-0.1,0.7-0.1v-0.1c-0.6-0.1-1-0.3-1.3-0.6c-0.3-0.3-0.5-0.6-0.7-1
		c-0.1-0.4-0.2-0.7-0.2-1.1c0-0.6,0.1-1.1,0.2-1.5c0.1-0.4,0.4-0.7,0.7-1c0.3-0.2,0.8-0.4,1.4-0.5C293.9,683,294.6,683,295.5,683z
		 M300.5,683.1v9.9H297v-9.9H300.5z"/>
</g>
<g>
	<path class="st1" d="M759.4,372.2v13.7h-3.7v-9.1c0-0.3,0-0.6,0-0.8c0-0.3,0.1-0.5,0.1-0.8l-3.2,0.7l-0.4-2.3l3.5-1.4H759.4z"/>
	<path class="st1" d="M766.6,371.9c1.1,0,2,0.1,2.7,0.3c0.7,0.2,1.2,0.5,1.5,1c0.3,0.5,0.5,1.1,0.5,1.9c0,0.6-0.1,1.2-0.2,1.7
		c-0.1,0.5-0.3,0.9-0.7,1.2c-0.3,0.3-0.8,0.5-1.4,0.6v0.1c1,0.1,1.6,0.5,2,1c0.4,0.5,0.6,1.3,0.6,2.4c0,1-0.1,1.8-0.5,2.4
		c-0.3,0.6-0.8,1-1.6,1.3c-0.7,0.3-1.7,0.4-2.9,0.4c-0.8,0-1.7,0-2.5-0.1c-0.8-0.1-1.7-0.2-2.5-0.3l0.1-2.7c0.6,0,1.1,0.1,1.5,0.1
		c0.4,0,0.8,0,1.2,0c0.4,0,0.7,0,1.1,0c0.6,0,1.1,0,1.4-0.1c0.3-0.1,0.6-0.2,0.7-0.5c0.1-0.2,0.2-0.6,0.2-1.1c0-0.4,0-0.7-0.1-1
		c-0.1-0.2-0.3-0.4-0.5-0.5c-0.3-0.1-0.6-0.2-1.1-0.1l-2.6,0v-2.3h2.6c0.4,0,0.7,0,0.9-0.1c0.2-0.1,0.4-0.2,0.5-0.3
		c0.1-0.1,0.2-0.3,0.2-0.5c0-0.2,0.1-0.4,0.1-0.6c0-0.4-0.1-0.6-0.2-0.8c-0.1-0.2-0.3-0.3-0.5-0.4c-0.3-0.1-0.6-0.1-1.1-0.1
		c-0.7,0-1.4,0-2.1,0c-0.7,0-1.2,0-1.7,0l-0.1-2.5c0.8-0.1,1.5-0.2,2.3-0.3C765.1,372,765.8,371.9,766.6,371.9z"/>
	<path class="st1" d="M775.3,382.5c0.5,0,0.8,0.1,1,0.3c0.2,0.2,0.3,0.5,0.3,1v0.9c0,0.5-0.1,0.8-0.3,1c-0.2,0.2-0.5,0.3-1,0.3h-0.8
		c-0.5,0-0.8-0.1-1-0.3c-0.2-0.2-0.3-0.5-0.3-1v-0.9c0-0.5,0.1-0.8,0.3-1c0.2-0.2,0.5-0.3,1-0.3H775.3z"/>
	<path class="st1" d="M784.8,372.2l-3,7.8c-0.1,0.2-0.1,0.3,0,0.4c0.1,0.1,0.2,0.1,0.4,0.1h7.7v2.1l-1.6,0.3h-9
		c-0.4,0-0.7-0.1-1-0.3c-0.3-0.2-0.4-0.4-0.5-0.8c-0.1-0.3-0.1-0.7,0.1-1l3.5-8.7H784.8z M788.3,374.9v11h-3.4V377l0.6-2.1H788.3z"
		/>
</g>
<g>
	<path class="st1" d="M649.3,582.1v13.7h-3.7v-9.1c0-0.3,0-0.6,0-0.8c0-0.3,0.1-0.5,0.1-0.8l-3.2,0.7l-0.4-2.3l3.5-1.4H649.3z"/>
	<path class="st1" d="M659.8,582.1c0.4,0,0.7,0.1,0.9,0.2c0.3,0.2,0.4,0.4,0.5,0.7c0.1,0.3,0.1,0.6,0,0.9l-4.1,11.9h-3.6l3.3-9.3
		c0.1-0.2,0.2-0.5,0.3-0.7c0.1-0.2,0.2-0.5,0.4-0.7h-6l-0.2-3H659.8z"/>
	<path class="st1" d="M664.4,592.4c0.5,0,0.8,0.1,1,0.3c0.2,0.2,0.3,0.5,0.3,1v0.9c0,0.5-0.1,0.8-0.3,1c-0.2,0.2-0.5,0.3-1,0.3h-0.8
		c-0.5,0-0.8-0.1-1-0.3c-0.2-0.2-0.3-0.5-0.3-1v-0.9c0-0.5,0.1-0.8,0.3-1c0.2-0.2,0.5-0.3,1-0.3H664.4z"/>
	<path class="st1" d="M672,581.8c1.1,0,2,0.1,2.7,0.3c0.7,0.2,1.2,0.5,1.5,1c0.3,0.5,0.5,1.1,0.5,1.9c0,0.6-0.1,1.2-0.2,1.7
		c-0.1,0.5-0.3,0.9-0.7,1.2c-0.3,0.3-0.8,0.5-1.4,0.6v0.1c1,0.1,1.6,0.5,2,1c0.4,0.5,0.6,1.3,0.6,2.4c0,1-0.1,1.8-0.5,2.4
		c-0.3,0.6-0.8,1-1.6,1.3c-0.7,0.3-1.7,0.4-2.9,0.4c-0.8,0-1.7,0-2.5-0.1c-0.8-0.1-1.7-0.2-2.5-0.3l0.1-2.7c0.6,0,1.1,0.1,1.5,0.1
		c0.4,0,0.8,0,1.2,0c0.4,0,0.8,0,1.1,0c0.6,0,1.1,0,1.4-0.1c0.3-0.1,0.6-0.2,0.7-0.5s0.2-0.6,0.2-1.1c0-0.4,0-0.7-0.1-1
		c-0.1-0.2-0.3-0.4-0.5-0.5c-0.3-0.1-0.6-0.2-1.1-0.1l-2.6,0v-2.3h2.6c0.4,0,0.7,0,0.9-0.1s0.4-0.2,0.5-0.3c0.1-0.1,0.2-0.3,0.2-0.5
		c0-0.2,0-0.4,0-0.6c0-0.4-0.1-0.6-0.2-0.8c-0.1-0.2-0.3-0.3-0.5-0.4c-0.3-0.1-0.6-0.1-1.1-0.1c-0.7,0-1.4,0-2.1,0
		c-0.7,0-1.2,0-1.7,0l-0.1-2.5c0.8-0.1,1.5-0.2,2.3-0.3C670.5,581.9,671.3,581.8,672,581.8z"/>
</g>
<g>
	<path class="st1" d="M239.3,707.6c0.4,0,0.9,0,1.5,0c0.6,0,1.3,0.1,2,0.3l-0.2,2.3c-0.4,0-0.7,0-1,0s-0.7,0-1,0c-0.4,0-0.8,0-1.3,0
		c-0.5,0-1,0.1-1.3,0.2c-0.3,0.1-0.6,0.3-0.7,0.7c-0.2,0.3-0.3,0.8-0.3,1.4c-0.1,0.6-0.1,1.5-0.1,2.5c0,0.9,0,1.6,0,2.1
		c0,0.5,0.1,0.9,0.2,1.2c0.1,0.3,0.3,0.5,0.5,0.6c0.2,0.1,0.6,0.1,1,0.1c0.5,0,0.9-0.1,1.1-0.2c0.2-0.2,0.4-0.4,0.4-0.7
		c0.1-0.3,0.1-0.8,0.1-1.3c0-0.5,0-0.9-0.1-1.1c-0.1-0.3-0.2-0.4-0.5-0.5c-0.2-0.1-0.6-0.1-1-0.1c-0.3,0-0.6,0-0.9,0.1
		c-0.3,0.1-0.6,0.2-0.9,0.4c-0.3,0.2-0.8,0.5-1.3,0.8l-0.1-1.3c0.4-0.7,0.9-1.2,1.3-1.6c0.4-0.4,0.8-0.6,1.3-0.8
		c0.5-0.1,1.1-0.2,1.7-0.2c1,0,1.9,0.1,2.4,0.4c0.6,0.3,1,0.7,1.2,1.4c0.2,0.6,0.3,1.4,0.3,2.4c0,0.9-0.1,1.6-0.2,2.3
		s-0.4,1.1-0.8,1.6c-0.4,0.4-0.9,0.7-1.6,0.9c-0.7,0.2-1.5,0.3-2.6,0.3c-1,0-1.9-0.1-2.6-0.3c-0.7-0.2-1.2-0.6-1.6-1.1
		c-0.4-0.5-0.7-1.2-0.9-2.1c-0.2-0.9-0.3-2-0.3-3.4c0-1.6,0.1-2.8,0.4-3.8c0.2-1,0.6-1.7,1.1-2.2c0.5-0.5,1.1-0.8,1.9-1
		C237.4,707.7,238.3,707.6,239.3,707.6z"/>
	<path class="st1" d="M247.3,718.2c0.5,0,0.8,0.1,1,0.3c0.2,0.2,0.3,0.5,0.3,1v0.9c0,0.5-0.1,0.8-0.3,1c-0.2,0.2-0.5,0.3-1,0.3h-0.8
		c-0.5,0-0.8-0.1-1-0.3c-0.2-0.2-0.3-0.5-0.3-1v-0.9c0-0.5,0.1-0.8,0.3-1c0.2-0.2,0.5-0.3,1-0.3H247.3z"/>
	<path class="st1" d="M256.2,707.6c0.4,0,0.9,0,1.5,0c0.6,0,1.3,0.1,2,0.3l-0.2,2.3c-0.4,0-0.7,0-1,0s-0.7,0-1,0c-0.4,0-0.8,0-1.3,0
		c-0.5,0-1,0.1-1.3,0.2c-0.3,0.1-0.6,0.3-0.7,0.7c-0.2,0.3-0.3,0.8-0.3,1.4c-0.1,0.6-0.1,1.5-0.1,2.5c0,0.9,0,1.6,0,2.1
		c0,0.5,0.1,0.9,0.2,1.2c0.1,0.3,0.3,0.5,0.5,0.6c0.2,0.1,0.6,0.1,1,0.1c0.5,0,0.9-0.1,1.1-0.2c0.2-0.2,0.4-0.4,0.4-0.7
		c0.1-0.3,0.1-0.8,0.1-1.3c0-0.5,0-0.9-0.1-1.1c-0.1-0.3-0.2-0.4-0.5-0.5c-0.2-0.1-0.6-0.1-1-0.1c-0.3,0-0.6,0-0.9,0.1
		s-0.6,0.2-0.9,0.4c-0.3,0.2-0.8,0.5-1.3,0.8l-0.1-1.3c0.4-0.7,0.9-1.2,1.3-1.6c0.4-0.4,0.8-0.6,1.3-0.8c0.5-0.1,1.1-0.2,1.7-0.2
		c1,0,1.9,0.1,2.4,0.4c0.6,0.3,1,0.7,1.2,1.4c0.2,0.6,0.3,1.4,0.3,2.4c0,0.9-0.1,1.6-0.2,2.3s-0.4,1.1-0.8,1.6
		c-0.4,0.4-0.9,0.7-1.6,0.9c-0.7,0.2-1.5,0.3-2.6,0.3c-1,0-1.9-0.1-2.6-0.3c-0.7-0.2-1.2-0.6-1.6-1.1c-0.4-0.5-0.7-1.2-0.9-2.1
		c-0.2-0.9-0.3-2-0.3-3.4c0-1.6,0.1-2.8,0.4-3.8c0.2-1,0.6-1.7,1.1-2.2c0.5-0.5,1.1-0.8,1.9-1C254.4,707.7,255.2,707.6,256.2,707.6z
		"/>
</g>
<g>
	<path class="st1" d="M585.3,357.1c1.1,0,2,0.1,2.7,0.3c0.7,0.2,1.2,0.5,1.5,1c0.3,0.5,0.5,1.1,0.5,1.9c0,0.6-0.1,1.2-0.2,1.7
		c-0.1,0.5-0.3,0.9-0.7,1.2c-0.3,0.3-0.8,0.5-1.4,0.6v0.1c1,0.1,1.6,0.5,2,1c0.4,0.5,0.6,1.3,0.6,2.4c0,1-0.1,1.8-0.5,2.4
		c-0.3,0.6-0.8,1-1.6,1.3c-0.7,0.3-1.7,0.4-2.9,0.4c-0.8,0-1.7,0-2.5-0.1c-0.8-0.1-1.7-0.2-2.5-0.3l0.1-2.7c0.6,0,1.1,0.1,1.5,0.1
		c0.4,0,0.8,0,1.2,0c0.4,0,0.7,0,1.1,0c0.6,0,1.1,0,1.4-0.1c0.3-0.1,0.6-0.2,0.7-0.5c0.1-0.2,0.2-0.6,0.2-1.1c0-0.4,0-0.7-0.1-1
		c-0.1-0.2-0.3-0.4-0.5-0.5c-0.3-0.1-0.6-0.2-1.1-0.1l-2.6,0v-2.3h2.6c0.4,0,0.7,0,0.9-0.1c0.2-0.1,0.4-0.2,0.5-0.3
		c0.1-0.1,0.2-0.3,0.2-0.5c0-0.2,0.1-0.4,0.1-0.6c0-0.4-0.1-0.6-0.2-0.8c-0.1-0.2-0.3-0.3-0.5-0.4c-0.3-0.1-0.6-0.1-1.1-0.1
		c-0.7,0-1.4,0-2.1,0c-0.7,0-1.2,0-1.8,0l-0.1-2.5c0.8-0.1,1.5-0.2,2.3-0.3C583.8,357.1,584.5,357.1,585.3,357.1z"/>
	<path class="st1" d="M594,367.7c0.5,0,0.8,0.1,1,0.3c0.2,0.2,0.3,0.5,0.3,1v0.9c0,0.5-0.1,0.8-0.3,1c-0.2,0.2-0.5,0.3-1,0.3h-0.8
		c-0.5,0-0.8-0.1-1-0.3c-0.2-0.2-0.3-0.5-0.3-1v-0.9c0-0.5,0.1-0.8,0.3-1c0.2-0.2,0.5-0.3,1-0.3H594z"/>
	<path class="st1" d="M605.1,357.3c0.4,0,0.7,0.1,0.9,0.2c0.3,0.2,0.4,0.4,0.5,0.7c0.1,0.3,0.1,0.6,0,0.9l-4.1,11.9h-3.6l3.3-9.3
		c0.1-0.2,0.2-0.5,0.3-0.7c0.1-0.2,0.2-0.5,0.4-0.7h-6l-0.2-3H605.1z"/>
</g>
<g>
	<path class="st1" d="M267.9,541.3c0.4,0,0.9,0,1.5,0c0.6,0,1.3,0.1,2,0.3l-0.2,2.3c-0.4,0-0.7,0-1,0c-0.3,0-0.7,0-1,0
		c-0.4,0-0.8,0-1.3,0c-0.5,0-1,0.1-1.3,0.2c-0.3,0.1-0.6,0.3-0.7,0.7c-0.2,0.3-0.3,0.8-0.3,1.4c-0.1,0.6-0.1,1.5-0.1,2.5
		c0,0.9,0,1.6,0,2.1c0,0.5,0.1,0.9,0.2,1.2c0.1,0.3,0.3,0.5,0.5,0.6c0.2,0.1,0.6,0.1,1,0.1c0.5,0,0.9-0.1,1.1-0.2
		c0.2-0.2,0.4-0.4,0.4-0.7c0.1-0.3,0.1-0.8,0.1-1.3c0-0.5,0-0.9-0.1-1.1c-0.1-0.3-0.2-0.4-0.5-0.5c-0.2-0.1-0.6-0.1-1-0.1
		c-0.3,0-0.6,0-0.9,0.1c-0.3,0.1-0.6,0.2-0.9,0.4c-0.3,0.2-0.8,0.5-1.3,0.8l-0.1-1.3c0.4-0.7,0.9-1.2,1.3-1.6
		c0.4-0.4,0.8-0.6,1.3-0.8c0.5-0.1,1.1-0.2,1.7-0.2c1,0,1.9,0.1,2.4,0.4c0.6,0.3,1,0.7,1.2,1.4c0.2,0.6,0.3,1.4,0.3,2.4
		c0,0.9-0.1,1.6-0.2,2.3c-0.1,0.6-0.4,1.1-0.8,1.6c-0.4,0.4-0.9,0.7-1.6,0.9c-0.7,0.2-1.5,0.3-2.6,0.3c-1,0-1.9-0.1-2.6-0.3
		c-0.7-0.2-1.2-0.6-1.6-1.1c-0.4-0.5-0.7-1.2-0.9-2.1c-0.2-0.9-0.3-2-0.3-3.4c0-1.6,0.1-2.8,0.4-3.8c0.2-1,0.6-1.7,1.1-2.2
		c0.5-0.5,1.1-0.8,1.9-1C266,541.4,266.9,541.3,267.9,541.3z"/>
	<path class="st1" d="M275.9,551.9c0.5,0,0.8,0.1,1,0.3c0.2,0.2,0.3,0.5,0.3,1v0.9c0,0.5-0.1,0.8-0.3,1c-0.2,0.2-0.5,0.3-1,0.3h-0.8
		c-0.5,0-0.8-0.1-1-0.3c-0.2-0.2-0.3-0.5-0.3-1v-0.9c0-0.5,0.1-0.8,0.3-1c0.2-0.2,0.5-0.3,1-0.3H275.9z"/>
	<path class="st1" d="M283.5,541.3c1.1,0,2,0.1,2.7,0.3c0.7,0.2,1.2,0.5,1.5,1c0.3,0.5,0.5,1.1,0.5,1.9c0,0.6-0.1,1.2-0.2,1.7
		c-0.1,0.5-0.3,0.9-0.7,1.2c-0.3,0.3-0.8,0.5-1.4,0.6v0.1c1,0.1,1.6,0.5,2,1c0.4,0.5,0.6,1.3,0.6,2.4c0,1-0.1,1.8-0.5,2.4
		c-0.3,0.6-0.8,1-1.6,1.3c-0.7,0.3-1.7,0.4-2.9,0.4c-0.8,0-1.7,0-2.5-0.1c-0.8-0.1-1.7-0.2-2.5-0.3l0.1-2.7c0.6,0,1.1,0.1,1.5,0.1
		c0.4,0,0.8,0,1.2,0c0.4,0,0.7,0,1.1,0c0.6,0,1.1,0,1.4-0.1c0.3-0.1,0.6-0.2,0.7-0.5c0.1-0.2,0.2-0.6,0.2-1.1c0-0.4,0-0.7-0.1-1
		c-0.1-0.2-0.3-0.4-0.5-0.5s-0.6-0.2-1.1-0.1l-2.6,0V547h2.6c0.4,0,0.7,0,0.9-0.1c0.2-0.1,0.4-0.2,0.5-0.3c0.1-0.1,0.2-0.3,0.2-0.5
		c0-0.2,0.1-0.4,0.1-0.6c0-0.4-0.1-0.6-0.2-0.8s-0.3-0.3-0.5-0.4c-0.3-0.1-0.6-0.1-1.1-0.1c-0.7,0-1.4,0-2.1,0c-0.7,0-1.2,0-1.7,0
		l-0.1-2.5c0.8-0.1,1.5-0.2,2.3-0.3C282,541.3,282.8,541.3,283.5,541.3z"/>
</g>
<g>
	<path class="st1" d="M471.4,360.6c1,0,1.8,0.1,2.6,0.3c0.7,0.2,1.3,0.5,1.7,1c0.4,0.5,0.6,1.2,0.6,2.1c0,0.5-0.1,0.9-0.2,1.4
		c-0.1,0.4-0.3,0.8-0.6,1.3c-0.3,0.4-0.8,1-1.4,1.6l-3.4,3.4c0.3-0.1,0.6-0.1,0.9-0.2c0.3,0,0.6,0,1,0h4v3.2h-10.2v-1.9
		c0-0.3,0-0.6,0.1-0.8c0.1-0.2,0.2-0.5,0.4-0.7l3.1-3.2c0.8-0.8,1.4-1.5,1.8-2.1s0.7-1.1,0.7-1.5c0-0.2-0.1-0.3-0.2-0.4
		c-0.1-0.1-0.3-0.1-0.5-0.2c-0.2,0-0.5,0-0.9,0c-0.5,0-0.9,0-1.3,0c-0.4,0-0.9,0-1.3,0c-0.5,0-1,0-1.6,0.1l-0.1-2.7
		c0.7-0.1,1.3-0.2,1.8-0.3c0.6-0.1,1.1-0.1,1.6-0.1C470.4,360.6,470.9,360.6,471.4,360.6z"/>
	<path class="st1" d="M480.3,371.2c0.5,0,0.8,0.1,1,0.3c0.2,0.2,0.3,0.5,0.3,1v0.9c0,0.5-0.1,0.8-0.3,1c-0.2,0.2-0.5,0.3-1,0.3h-0.8
		c-0.5,0-0.8-0.1-1-0.3c-0.2-0.2-0.3-0.5-0.3-1v-0.9c0-0.5,0.1-0.8,0.3-1c0.2-0.2,0.5-0.3,1-0.3H480.3z"/>
	<path class="st1" d="M488.8,360.6c1.4,0,2.5,0.2,3.3,0.7c0.8,0.4,1.4,1.2,1.8,2.2c0.4,1,0.5,2.5,0.5,4.2c0,1.8-0.2,3.2-0.5,4.2
		c-0.4,1-0.9,1.8-1.8,2.2c-0.8,0.4-1.9,0.7-3.3,0.7c-1.4,0-2.5-0.2-3.3-0.7c-0.8-0.4-1.4-1.2-1.8-2.2c-0.4-1-0.5-2.5-0.5-4.2
		c0-1.8,0.2-3.2,0.5-4.2c0.4-1,0.9-1.8,1.8-2.2C486.3,360.8,487.4,360.6,488.8,360.6z M488.7,363.4c-0.4,0-0.7,0.1-0.9,0.2
		c-0.2,0.1-0.4,0.3-0.6,0.6c-0.1,0.3-0.2,0.7-0.3,1.3c-0.1,0.6-0.1,1.3-0.1,2.2c0,0.9,0,1.7,0.1,2.2c0.1,0.6,0.2,1,0.3,1.3
		c0.1,0.3,0.3,0.5,0.6,0.6c0.2,0.1,0.6,0.2,0.9,0.2c0.4,0,0.7-0.1,1-0.2s0.4-0.3,0.6-0.6c0.1-0.3,0.2-0.7,0.3-1.3
		c0.1-0.6,0.1-1.3,0.1-2.2c0-0.9,0-1.7-0.1-2.2c-0.1-0.6-0.2-1-0.3-1.3c-0.1-0.3-0.3-0.5-0.6-0.6
		C489.4,363.4,489.1,363.4,488.7,363.4z"/>
</g>
<g>
	<path class="st1" d="M347.7,735.6v13.7h-3.7v-9.1c0-0.3,0-0.6,0-0.8c0-0.3,0.1-0.5,0.1-0.8l-3.2,0.7l-0.4-2.3l3.5-1.4H347.7z"/>
	<path class="st1" d="M352.2,746c0.5,0,0.8,0.1,1,0.3c0.2,0.2,0.3,0.5,0.3,1v0.9c0,0.5-0.1,0.8-0.3,1c-0.2,0.2-0.5,0.3-1,0.3h-0.8
		c-0.5,0-0.8-0.1-1-0.3c-0.2-0.2-0.3-0.5-0.3-1v-0.9c0-0.5,0.1-0.8,0.3-1c0.2-0.2,0.5-0.3,1-0.3H352.2z"/>
	<path class="st1" d="M363.2,735.6c0.4,0,0.7,0.1,0.9,0.2c0.3,0.2,0.4,0.4,0.5,0.7c0.1,0.3,0.1,0.6,0,0.9l-4.1,11.9h-3.6l3.3-9.3
		c0.1-0.2,0.2-0.5,0.3-0.7c0.1-0.2,0.2-0.5,0.4-0.7h-6l-0.2-3H363.2z"/>
</g>
<g>
	<path class="st1" d="M247.7,404.7c0.3,1,0.6,1.9,0.8,2.6c0.2,0.7,0.4,1.2,0.6,1.6c0.2,0.4,0.4,0.7,0.6,0.9c0.2,0.2,0.5,0.3,0.8,0.3
		v2.5c-0.3,0-0.6,0.1-0.8,0.2c-0.2,0.2-0.4,0.4-0.6,0.8c-0.2,0.4-0.4,1-0.6,1.8c-0.2,0.8-0.6,1.8-0.9,3h-3.9
		c0.3-1.1,0.6-2.1,0.8-2.9c0.2-0.8,0.5-1.4,0.7-1.9c0.2-0.5,0.5-0.9,0.7-1.2c0.3-0.3,0.6-0.5,0.9-0.7c0.4-0.2,0.8-0.3,1.4-0.3v-0.1
		c-0.5-0.1-1-0.2-1.3-0.3c-0.4-0.2-0.6-0.4-0.9-0.7c-0.2-0.3-0.5-0.7-0.6-1.2c-0.2-0.5-0.4-1.1-0.6-1.8c-0.2-0.7-0.5-1.5-0.7-2.5
		H247.7z M251.9,410v2.5h-1.9V410H251.9z M254.6,404.7v3.7c0,0.5,0,1-0.1,1.5c-0.1,0.5-0.2,1-0.4,1.4c0.1,0.4,0.3,0.9,0.4,1.3
		c0.1,0.5,0.2,0.9,0.2,1.3v4.6H251v-4.6c0-0.4,0.1-0.8,0.2-1.3c0.1-0.5,0.2-0.9,0.4-1.3c-0.2-0.4-0.3-0.9-0.4-1.4
		c-0.1-0.5-0.1-1-0.1-1.5v-3.7H254.6z M255.6,410v2.5h-1.9V410H255.6z M261.6,404.7c-0.3,1-0.5,1.8-0.7,2.5
		c-0.2,0.7-0.4,1.3-0.6,1.8c-0.2,0.5-0.4,0.9-0.6,1.2c-0.2,0.3-0.5,0.5-0.9,0.7c-0.3,0.2-0.8,0.3-1.3,0.3v0.1c0.6,0.1,1,0.2,1.4,0.3
		c0.4,0.2,0.7,0.4,0.9,0.7c0.3,0.3,0.5,0.7,0.7,1.2c0.2,0.5,0.4,1.2,0.7,1.9c0.2,0.8,0.5,1.7,0.8,2.9h-3.9c-0.4-1.2-0.7-2.3-0.9-3
		c-0.2-0.8-0.5-1.4-0.6-1.8c-0.2-0.4-0.4-0.7-0.6-0.8c-0.2-0.2-0.5-0.2-0.9-0.2l0-2.5c0.3,0,0.6-0.1,0.8-0.3
		c0.2-0.2,0.4-0.5,0.6-0.9c0.2-0.4,0.4-1,0.6-1.6c0.2-0.7,0.5-1.5,0.8-2.6H261.6z"/>
	<path class="st1" d="M273.5,408.5v9.9l-3.2,0v-4.5c0-0.3,0-0.6,0-0.8c0-0.3,0.1-0.6,0.1-0.9h-0.1c-0.1,0.3-0.2,0.6-0.4,0.9
		c-0.2,0.3-0.3,0.6-0.4,0.8l-3.1,4.5h-3.2v-9.9h3.2v4.7c0,0.3,0,0.5,0,0.7c0,0.2-0.1,0.5-0.1,0.8h0.1c0.1-0.3,0.2-0.5,0.3-0.8
		c0.1-0.2,0.3-0.5,0.4-0.7l3.2-4.7H273.5z"/>
	<path class="st1" d="M285.4,408.5v2.4h-4.2c-0.3,0-0.5,0.1-0.7,0.2c-0.1,0.1-0.2,0.3-0.3,0.6c-0.1,0.5-0.1,1-0.2,1.6
		c-0.1,0.5-0.1,1-0.2,1.5c-0.1,0.5-0.1,0.8-0.2,1.2c-0.1,0.8-0.4,1.4-0.9,1.8c-0.5,0.4-1,0.7-1.6,0.8c-0.6,0.1-1.3,0.1-2,0l-0.4-2.6
		c0.3-0.1,0.5-0.1,0.8-0.1c0.2,0,0.4-0.1,0.6-0.2s0.3-0.3,0.3-0.6c0.1-0.2,0.1-0.4,0.2-0.7c0-0.3,0.1-0.5,0.1-0.9
		c0-0.3,0.1-0.7,0.1-1.1c0-0.4,0.1-0.8,0.1-1.3c0.1-0.8,0.3-1.4,0.8-1.9c0.4-0.4,1.1-0.6,1.9-0.6H285.4z M285.6,408.5v9.9H282v-9.9
		H285.6z"/>
	<path class="st1" d="M295.9,412.3l0,1.8h-4.2c-0.3,0-0.5,0.1-0.7,0.2c-0.1,0.1-0.2,0.3-0.2,0.6v0.4c0,0.3,0.1,0.4,0.2,0.6
		c0.2,0.1,0.4,0.2,0.7,0.2c0.3,0,0.7-0.1,1.1-0.2c0.4-0.1,0.7-0.3,1.1-0.6c0.4-0.3,0.7-0.5,0.9-0.8v1.3c-0.1,0.2-0.3,0.5-0.5,0.8
		c-0.2,0.3-0.5,0.6-0.8,1c-0.3,0.3-0.8,0.6-1.3,0.8c-0.5,0.2-1.1,0.3-1.7,0.3c-0.6,0-1.1-0.1-1.6-0.3c-0.5-0.2-0.9-0.5-1.2-0.9
		c-0.3-0.4-0.4-0.9-0.4-1.5v-1c0-0.8,0.3-1.4,0.8-1.9c0.6-0.4,1.3-0.7,2.3-0.7H295.9z M293.2,408.2c0.9,0,1.6,0.1,2.2,0.4
		c0.6,0.2,1.1,0.6,1.4,1.2c0.3,0.6,0.5,1.3,0.5,2.3v6.3h-2.9l-0.5-2.1l-0.2-0.4v-3.8c0-0.4-0.1-0.7-0.3-0.9c-0.2-0.2-0.5-0.3-1-0.3
		c-0.5,0-1.2,0-1.9,0c-0.8,0-1.5,0.1-2.4,0.1l-0.3-2.3c0.5-0.1,1.1-0.2,1.7-0.2c0.7-0.1,1.3-0.1,2-0.2
		C292.1,408.2,292.7,408.2,293.2,408.2z"/>
	<path class="st1" d="M303.7,408.3c0.9,0,1.6,0,2.2,0c0.6,0,1.1,0,1.5,0c0.4,0,0.8,0.1,1.3,0.1l-0.3,2.4c-0.1,0-0.6-0.1-1.4-0.1
		c-0.8,0-1.9,0-3.3,0c-0.5,0-0.7,0.1-0.9,0.2c-0.1,0.1-0.2,0.4-0.2,0.7c0,0.5,0.1,0.8,0.2,1c0.1,0.2,0.4,0.3,0.9,0.3h4.7l0.1,2.1
		c-0.3,0-0.5,0-0.9,0c-0.3,0-0.8,0-1.4,0s-1.4,0-2.3,0c-0.3,0-0.5,0-0.7,0.1c-0.1,0.1-0.2,0.2-0.3,0.5l-0.6,2.6h-3.7l0.8-3.1
		c0.1-0.3,0.3-0.5,0.5-0.7c0.2-0.1,0.5-0.2,0.7-0.3c0.3-0.1,0.5-0.1,0.7-0.1v-0.1c-0.6-0.1-1-0.3-1.3-0.6c-0.3-0.3-0.5-0.6-0.7-1
		c-0.1-0.4-0.2-0.7-0.2-1.1c0-0.6,0.1-1.1,0.2-1.5c0.1-0.4,0.4-0.7,0.7-1c0.3-0.2,0.8-0.4,1.4-0.5
		C302,408.3,302.8,408.3,303.7,408.3z M308.7,408.4v9.9h-3.5v-9.9H308.7z"/>
	<path class="st1" d="M318.6,408.5v2.3c0,0.4,0,0.8-0.1,1.2c-0.1,0.4-0.2,0.8-0.4,1.2c0.1,0.3,0.3,0.7,0.4,1c0.1,0.4,0.2,0.7,0.2,1
		v3.1H315v-9.9H318.6z M319.8,412.1v2.3h-2v-2.3H319.8z M324.9,408.5c-0.3,0.8-0.5,1.5-0.6,2c-0.2,0.5-0.3,1-0.5,1.3
		c-0.1,0.3-0.3,0.6-0.5,0.7c-0.2,0.2-0.4,0.3-0.7,0.4c-0.3,0.1-0.7,0.2-1.1,0.2v0.1c0.5,0.1,0.8,0.1,1.2,0.2
		c0.3,0.1,0.6,0.2,0.8,0.4c0.2,0.2,0.4,0.4,0.6,0.8c0.2,0.3,0.4,0.8,0.5,1.4c0.2,0.6,0.4,1.4,0.7,2.3h-3.8c-0.2-0.8-0.4-1.4-0.6-1.9
		c-0.2-0.5-0.3-0.9-0.4-1.2c-0.1-0.3-0.2-0.5-0.4-0.6c-0.1-0.1-0.3-0.2-0.5-0.2c-0.2,0-0.4,0-0.7,0l-0.1-2.3c0.4,0,0.6,0,0.9-0.1
		c0.2-0.1,0.4-0.2,0.5-0.5c0.1-0.2,0.3-0.6,0.4-1.1c0.1-0.5,0.3-1.1,0.5-2H324.9z"/>
	<path class="st1" d="M331.5,408.2c1.3,0,2.3,0.2,3.1,0.5c0.8,0.3,1.3,0.9,1.7,1.6c0.3,0.8,0.5,1.8,0.5,3.1c0,1.3-0.2,2.3-0.5,3
		c-0.3,0.7-0.9,1.3-1.7,1.6c-0.8,0.3-1.8,0.5-3.1,0.5c-1.3,0-2.3-0.2-3.1-0.5c-0.8-0.3-1.3-0.9-1.7-1.6c-0.3-0.7-0.5-1.8-0.5-3
		c0-1.3,0.2-2.3,0.5-3.1c0.4-0.8,0.9-1.3,1.7-1.6C329.2,408.4,330.2,408.2,331.5,408.2z M331.5,410.7c-0.4,0-0.7,0.1-0.9,0.2
		c-0.2,0.1-0.4,0.4-0.5,0.8c-0.1,0.4-0.1,0.9-0.1,1.7c0,0.7,0,1.3,0.1,1.7s0.3,0.6,0.5,0.8c0.2,0.1,0.5,0.2,0.9,0.2
		c0.4,0,0.7-0.1,1-0.2c0.2-0.1,0.4-0.4,0.5-0.8c0.1-0.4,0.1-0.9,0.1-1.7c0-0.7,0-1.3-0.1-1.7c-0.1-0.4-0.2-0.6-0.5-0.8
		S331.9,410.7,331.5,410.7z"/>
	<path class="st1" d="M351,408.5c0.8,0,1.2,0.4,1.2,1.2l0.3,8.6h-3.3l-0.3-7.2h-0.3l-1.2,4.8c-0.1,0.4-0.2,0.6-0.4,0.8
		c-0.2,0.2-0.5,0.3-0.9,0.3h-1.6c-0.4,0-0.7-0.1-0.9-0.3c-0.2-0.2-0.4-0.5-0.4-0.8l-1.2-4.8h-0.2l-0.2,7.2h-3.3l0.2-8.6
		c0-0.8,0.4-1.2,1.3-1.2h3c0.4,0,0.7,0.1,0.9,0.3c0.2,0.2,0.4,0.5,0.4,0.9l0.9,3.7c0.1,0.2,0.1,0.5,0.1,0.7c0,0.2,0,0.5,0.1,0.7h0.2
		c0-0.3,0-0.5,0.1-0.7c0-0.2,0.1-0.5,0.1-0.7l0.9-3.7c0.1-0.8,0.6-1.1,1.4-1.1H351z"/>
	<path class="st1" d="M358.1,408.5v9.9h-3.6v-9.9H358.1z M361.3,412v2.4h-3.4V412H361.3z M364.6,408.5v9.9h-3.5v-9.9H364.6z"/>
	<path class="st1" d="M374.9,412.3l0,1.8h-4.2c-0.3,0-0.5,0.1-0.7,0.2c-0.1,0.1-0.2,0.3-0.2,0.6v0.4c0,0.3,0.1,0.4,0.2,0.6
		c0.2,0.1,0.4,0.2,0.7,0.2c0.3,0,0.7-0.1,1.1-0.2c0.4-0.1,0.7-0.3,1.1-0.6c0.4-0.3,0.7-0.5,0.9-0.8v1.3c-0.1,0.2-0.3,0.5-0.5,0.8
		c-0.2,0.3-0.5,0.6-0.8,1c-0.3,0.3-0.8,0.6-1.3,0.8c-0.5,0.2-1.1,0.3-1.7,0.3c-0.6,0-1.1-0.1-1.6-0.3c-0.5-0.2-0.9-0.5-1.2-0.9
		c-0.3-0.4-0.4-0.9-0.4-1.5v-1c0-0.8,0.3-1.4,0.8-1.9c0.6-0.4,1.3-0.7,2.3-0.7H374.9z M372.2,408.2c0.9,0,1.6,0.1,2.2,0.4
		c0.6,0.2,1.1,0.6,1.4,1.2c0.3,0.6,0.5,1.3,0.5,2.3v6.3h-2.9l-0.5-2.1l-0.2-0.4v-3.8c0-0.4-0.1-0.7-0.3-0.9c-0.2-0.2-0.5-0.3-1-0.3
		c-0.5,0-1.2,0-1.9,0c-0.8,0-1.5,0.1-2.4,0.1l-0.3-2.3c0.5-0.1,1.1-0.2,1.7-0.2c0.7-0.1,1.3-0.1,2-0.2
		C371.2,408.2,371.7,408.2,372.2,408.2z"/>
	<path class="st1" d="M387.5,408.5v2.7h-9.9v-2.7H387.5z M384.3,408.5v9.9h-3.6v-9.9H384.3z"/>
	<path class="st1" d="M397,412.3l0,1.8h-4.2c-0.3,0-0.5,0.1-0.7,0.2c-0.1,0.1-0.2,0.3-0.2,0.6v0.4c0,0.3,0.1,0.4,0.2,0.6
		c0.2,0.1,0.4,0.2,0.7,0.2c0.3,0,0.7-0.1,1.1-0.2c0.4-0.1,0.7-0.3,1.1-0.6c0.4-0.3,0.7-0.5,0.9-0.8v1.3c-0.1,0.2-0.3,0.5-0.5,0.8
		c-0.2,0.3-0.5,0.6-0.8,1c-0.3,0.3-0.8,0.6-1.3,0.8c-0.5,0.2-1.1,0.3-1.7,0.3c-0.6,0-1.1-0.1-1.6-0.3c-0.5-0.2-0.9-0.5-1.2-0.9
		c-0.3-0.4-0.4-0.9-0.4-1.5v-1c0-0.8,0.3-1.4,0.8-1.9c0.6-0.4,1.3-0.7,2.3-0.7H397z M394.3,408.2c0.9,0,1.6,0.1,2.2,0.4
		c0.6,0.2,1.1,0.6,1.4,1.2c0.3,0.6,0.5,1.3,0.5,2.3v6.3h-2.9l-0.5-2.1l-0.2-0.4v-3.8c0-0.4-0.1-0.7-0.3-0.9c-0.2-0.2-0.5-0.3-1-0.3
		c-0.5,0-1.2,0-1.9,0c-0.8,0-1.5,0.1-2.4,0.1l-0.3-2.3c0.5-0.1,1.1-0.2,1.7-0.2s1.3-0.1,2-0.2C393.2,408.2,393.8,408.2,394.3,408.2z
		"/>
</g>
<g>
	<path class="st1" d="M291.8,429.5c1,0,1.8,0.1,2.6,0.3c0.7,0.2,1.3,0.5,1.7,1c0.4,0.5,0.6,1.2,0.6,2.1c0,0.5-0.1,0.9-0.2,1.4
		c-0.1,0.4-0.3,0.8-0.6,1.3c-0.3,0.4-0.8,1-1.4,1.6l-3.4,3.4c0.3-0.1,0.6-0.1,0.9-0.2c0.3,0,0.6,0,1,0h4v3.2h-10.2v-1.9
		c0-0.3,0-0.6,0.1-0.8c0.1-0.2,0.2-0.5,0.4-0.7l3.1-3.2c0.8-0.8,1.4-1.5,1.8-2.1c0.4-0.6,0.7-1.1,0.7-1.5c0-0.2-0.1-0.3-0.2-0.4
		c-0.1-0.1-0.3-0.1-0.5-0.2c-0.2,0-0.5,0-0.9,0c-0.5,0-0.9,0-1.3,0c-0.4,0-0.9,0-1.3,0c-0.5,0-1,0-1.6,0.1l-0.1-2.7
		c0.7-0.1,1.3-0.2,1.8-0.3c0.6-0.1,1.1-0.1,1.6-0.1C290.8,429.6,291.3,429.5,291.8,429.5z"/>
	<path class="st1" d="M303.5,429.5c1,0,1.8,0.1,2.6,0.3c0.7,0.2,1.3,0.5,1.7,1c0.4,0.5,0.6,1.2,0.6,2.1c0,0.5-0.1,0.9-0.2,1.4
		c-0.1,0.4-0.3,0.8-0.6,1.3c-0.3,0.4-0.8,1-1.4,1.6l-3.4,3.4c0.3-0.1,0.6-0.1,0.9-0.2c0.3,0,0.6,0,1,0h4v3.2h-10.2v-1.9
		c0-0.3,0-0.6,0.1-0.8c0.1-0.2,0.2-0.5,0.4-0.7l3.1-3.2c0.8-0.8,1.4-1.5,1.8-2.1c0.4-0.6,0.7-1.1,0.7-1.5c0-0.2-0.1-0.3-0.2-0.4
		c-0.1-0.1-0.3-0.1-0.5-0.2c-0.2,0-0.5,0-0.9,0c-0.5,0-0.9,0-1.3,0c-0.4,0-0.9,0-1.3,0c-0.5,0-1,0-1.6,0.1l-0.1-2.7
		c0.7-0.1,1.3-0.2,1.8-0.3c0.6-0.1,1.1-0.1,1.6-0.1C302.5,429.6,303,429.5,303.5,429.5z"/>
	<path class="st1" d="M312.4,440.1c0.5,0,0.8,0.1,1,0.3c0.2,0.2,0.3,0.5,0.3,1v0.9c0,0.5-0.1,0.8-0.3,1c-0.2,0.2-0.5,0.3-1,0.3h-0.8
		c-0.5,0-0.8-0.1-1-0.3c-0.2-0.2-0.3-0.5-0.3-1v-0.9c0-0.5,0.1-0.8,0.3-1c0.2-0.2,0.5-0.3,1-0.3H312.4z"/>
	<path class="st1" d="M320.9,429.5c1.4,0,2.5,0.2,3.3,0.7c0.8,0.4,1.4,1.2,1.8,2.2c0.4,1,0.5,2.5,0.5,4.2c0,1.8-0.2,3.2-0.5,4.2
		c-0.4,1-0.9,1.8-1.8,2.2c-0.8,0.4-1.9,0.7-3.3,0.7c-1.4,0-2.5-0.2-3.3-0.7c-0.8-0.4-1.4-1.2-1.8-2.2c-0.4-1-0.5-2.5-0.5-4.2
		c0-1.8,0.2-3.2,0.5-4.2c0.4-1,0.9-1.8,1.8-2.2C318.4,429.7,319.5,429.5,320.9,429.5z M320.8,432.3c-0.4,0-0.7,0.1-0.9,0.2
		c-0.2,0.1-0.4,0.3-0.6,0.6c-0.1,0.3-0.2,0.7-0.3,1.3c-0.1,0.6-0.1,1.3-0.1,2.2c0,0.9,0,1.7,0.1,2.2c0.1,0.6,0.2,1,0.3,1.3
		c0.1,0.3,0.3,0.5,0.6,0.6s0.6,0.2,0.9,0.2c0.4,0,0.7-0.1,1-0.2s0.4-0.3,0.6-0.6c0.1-0.3,0.2-0.7,0.3-1.3c0.1-0.6,0.1-1.3,0.1-2.2
		c0-0.9,0-1.7-0.1-2.2c-0.1-0.6-0.2-1-0.3-1.3c-0.1-0.3-0.3-0.5-0.6-0.6C321.5,432.4,321.2,432.3,320.8,432.3z"/>
</g>
<g>
	<path class="st1" d="M282.6,356.6c2.6,0,4.7,0.2,6.3,0.5c1.6,0.4,2.8,0.9,3.7,1.6c0.9,0.7,1.5,1.7,1.8,2.8c0.3,1.1,0.5,2.5,0.5,4.1
		c0,1.2-0.2,2.4-0.5,3.5c-0.4,1.1-0.9,2.1-1.7,2.8c-0.7,0.8-1.7,1.2-3,1.3v0.2c1.6,0.1,2.9,0.6,3.7,1.5c0.9,0.9,1.4,1.9,1.8,3.3
		c0.3,1.3,0.5,2.7,0.5,4.2c0,2.2-0.4,4-1.1,5.3c-0.7,1.3-2,2.3-3.9,2.8c-1.9,0.6-4.6,0.9-8.2,0.9c-3.5,0-6.2-0.3-8.1-0.9
		c-1.9-0.6-3.3-1.5-4-2.8c-0.7-1.3-1.1-3.1-1.1-5.3c0-1.5,0.2-2.9,0.5-4.2c0.3-1.3,0.9-2.4,1.8-3.3c0.9-0.9,2.1-1.4,3.7-1.5v-0.2
		c-1.2-0.1-2.2-0.6-3-1.3c-0.8-0.8-1.3-1.7-1.7-2.8c-0.3-1.1-0.5-2.3-0.5-3.5c0-1.6,0.2-2.9,0.5-4.1c0.3-1.1,1-2,1.8-2.8
		c0.9-0.7,2.1-1.3,3.8-1.6C278,356.8,280.1,356.6,282.6,356.6z M282.7,376.2c-1,0-1.8,0.1-2.4,0.2c-0.6,0.1-1.1,0.4-1.5,0.7
		c-0.3,0.3-0.6,0.8-0.7,1.4c-0.1,0.6-0.2,1.3-0.2,2.2c0,1.1,0.1,2,0.4,2.6c0.3,0.6,0.7,1,1.4,1.3c0.7,0.2,1.7,0.3,2.9,0.3
		c1.3,0,2.2-0.1,2.9-0.3c0.7-0.2,1.1-0.6,1.3-1.3c0.2-0.6,0.3-1.5,0.3-2.6c0-0.9-0.1-1.7-0.2-2.3c-0.1-0.6-0.4-1-0.7-1.3
		c-0.3-0.3-0.8-0.6-1.4-0.7C284.4,376.3,283.6,376.2,282.7,376.2z M282.6,362.6c-1.1,0-2,0.1-2.6,0.3c-0.6,0.2-1,0.6-1.3,1.2
		c-0.2,0.6-0.3,1.4-0.3,2.6c0,1,0.1,1.8,0.3,2.4c0.2,0.5,0.7,0.9,1.3,1.1c0.6,0.2,1.5,0.3,2.7,0.3c1.2,0,2-0.1,2.6-0.3
		c0.6-0.2,1-0.6,1.2-1.1s0.3-1.3,0.3-2.4c0-1.1-0.1-2-0.3-2.6c-0.2-0.6-0.6-1-1.2-1.2C284.7,362.7,283.8,362.6,282.6,362.6z"/>
	<path class="st1" d="M312.1,356.7c2.4,0,4.5,0.2,6.3,0.7c1.8,0.4,3.1,1.2,4.1,2.4c1,1.2,1.5,2.8,1.5,5.1c0,1.2-0.1,2.3-0.4,3.3
		c-0.3,1-0.8,2.1-1.5,3.2c-0.8,1.1-1.9,2.4-3.4,3.9l-8.3,8.3c0.8-0.2,1.5-0.3,2.3-0.4c0.8-0.1,1.6-0.1,2.4,0h9.8v7.8h-25.1v-4.7
		c0-0.7,0.1-1.4,0.3-2c0.2-0.6,0.5-1.1,1-1.7l7.6-7.8c1.9-1.9,3.3-3.7,4.4-5.1c1.1-1.5,1.6-2.7,1.6-3.6c0-0.5-0.2-0.8-0.4-1
		c-0.3-0.2-0.7-0.4-1.2-0.4c-0.5-0.1-1.2-0.1-2.1-0.1c-1.2,0-2.3,0-3.3,0c-1,0-2.1,0-3.3,0.1c-1.2,0-2.5,0.1-4,0.1l-0.3-6.7
		c1.7-0.3,3.1-0.6,4.5-0.7c1.3-0.2,2.6-0.3,3.9-0.3C309.6,356.7,310.9,356.7,312.1,356.7z"/>
	<path class="st1" d="M333.8,382.5c1.2,0,2,0.2,2.4,0.7s0.7,1.2,0.7,2.4v2.1c0,1.1-0.2,1.9-0.7,2.4c-0.4,0.5-1.2,0.7-2.4,0.7h-2
		c-1.2,0-2-0.2-2.4-0.7c-0.4-0.5-0.7-1.2-0.7-2.4v-2.1c0-1.1,0.2-1.9,0.7-2.4s1.2-0.7,2.4-0.7H333.8z"/>
	<path class="st1" d="M354.5,356.6c3.4,0,6.1,0.5,8.1,1.6c2,1.1,3.4,2.9,4.3,5.4c0.9,2.5,1.3,6,1.3,10.4c0,4.4-0.4,7.8-1.3,10.4
		c-0.9,2.5-2.3,4.4-4.3,5.4c-2,1.1-4.7,1.6-8.1,1.6c-3.4,0-6.1-0.5-8.1-1.6c-2-1.1-3.4-2.9-4.3-5.4s-1.3-6-1.3-10.4
		c0-4.4,0.4-7.8,1.3-10.4c0.9-2.5,2.3-4.4,4.3-5.4C348.4,357.1,351.1,356.6,354.5,356.6z M354.5,363.5c-0.9,0-1.7,0.1-2.3,0.4
		c-0.6,0.3-1.1,0.8-1.4,1.5c-0.3,0.7-0.6,1.8-0.7,3.2c-0.1,1.4-0.2,3.2-0.2,5.4c0,2.2,0.1,4,0.2,5.4c0.1,1.4,0.4,2.5,0.7,3.2
		c0.3,0.7,0.8,1.2,1.4,1.5c0.6,0.3,1.4,0.4,2.3,0.4c0.9,0,1.7-0.1,2.3-0.4c0.6-0.3,1.1-0.8,1.5-1.5s0.6-1.8,0.8-3.2
		c0.1-1.4,0.2-3.2,0.2-5.4c0-2.2-0.1-4-0.2-5.4c-0.1-1.4-0.4-2.5-0.8-3.2c-0.4-0.7-0.8-1.2-1.5-1.5
		C356.2,363.6,355.4,363.5,354.5,363.5z"/>
</g>
<ellipse transform="matrix(0.3827 -0.9239 0.9239 0.3827 -107.359 473.424)" class="st2" cx="300.6" cy="317" rx="29.8" ry="29.8"/>
<g>
	<path class="st1" d="M290.4,305c2.1,0,3.8,0.2,5,0.5c1.3,0.4,2.2,1,2.7,1.8c0.6,0.9,0.8,2,0.8,3.6c0,1.2-0.1,2.2-0.3,3.1
		c-0.2,0.9-0.6,1.6-1.2,2.2c-0.6,0.6-1.4,0.9-2.5,1.1v0.1c1.8,0.3,3,0.9,3.7,1.9c0.7,1,1,2.5,1,4.4c0,1.8-0.3,3.2-0.8,4.4
		c-0.6,1.1-1.6,1.9-2.9,2.4c-1.3,0.5-3.1,0.8-5.4,0.8c-1.5,0-3.1-0.1-4.6-0.2c-1.6-0.1-3.1-0.3-4.6-0.5l0.2-4.9
		c1.1,0.1,2,0.1,2.8,0.1s1.5,0,2.2,0.1c0.7,0,1.4,0,2.1,0c1.1,0,2-0.1,2.6-0.2c0.6-0.1,1-0.4,1.3-0.9c0.2-0.5,0.4-1.1,0.4-2
		c0-0.7-0.1-1.3-0.3-1.8c-0.2-0.4-0.5-0.8-1-1c-0.5-0.2-1.2-0.3-2.1-0.3l-4.9,0v-4.3h4.9c0.7,0,1.3-0.1,1.7-0.2
		c0.4-0.1,0.7-0.3,0.9-0.6c0.2-0.2,0.3-0.5,0.4-0.9c0.1-0.4,0.1-0.7,0.1-1.2c0-0.7-0.1-1.2-0.3-1.5c-0.2-0.3-0.5-0.6-1-0.7
		c-0.5-0.1-1.2-0.2-2-0.2c-1.3,0-2.6,0-3.8,0c-1.2,0-2.3,0-3.2,0l-0.2-4.7c1.4-0.2,2.8-0.4,4.3-0.5C287.6,305,289,305,290.4,305z"/>
	<path class="st1" d="M313.8,305c1.3,0,2.4,0,3.3,0.1c0.9,0.1,1.7,0.2,2.5,0.3c0.7,0.1,1.5,0.3,2.3,0.5l-0.5,5.1
		c-0.8,0-1.6-0.1-2.3-0.1c-0.7,0-1.5,0-2.3,0c-0.8,0-1.8,0-2.9,0c-1,0-1.8,0.2-2.4,0.6c-0.6,0.4-1,1.2-1.2,2.2
		c-0.2,1.1-0.3,2.5-0.3,4.4s0.1,3.4,0.3,4.4c0.2,1.1,0.6,1.8,1.2,2.2c0.6,0.4,1.4,0.6,2.4,0.6c1.8,0,3.3,0,4.5-0.1
		c1.2,0,2.4-0.1,3.6-0.3l0.5,5c-1.2,0.4-2.5,0.7-3.8,0.9c-1.3,0.2-2.9,0.3-4.8,0.3c-2.7,0-4.9-0.4-6.5-1.3c-1.6-0.8-2.8-2.2-3.5-4.1
		c-0.7-1.9-1.1-4.5-1.1-7.7s0.4-5.8,1.1-7.7c0.7-1.9,1.9-3.3,3.5-4.1C308.9,305.5,311.1,305,313.8,305z"/>
</g>
<g>
	<path class="st1" d="M511.3,415.8v3.7c0,0.5,0,1-0.1,1.5c-0.1,0.5-0.2,1-0.4,1.4c0.1,0.4,0.3,0.9,0.4,1.3c0.1,0.5,0.2,0.9,0.2,1.3
		v4.6h-3.7v-13.7H511.3z M512.8,421.2v2.5h-2.4v-2.5H512.8z M518.9,415.8c-0.3,1-0.6,1.8-0.8,2.5c-0.2,0.7-0.4,1.3-0.6,1.8
		c-0.2,0.5-0.4,0.9-0.7,1.2c-0.2,0.3-0.5,0.5-0.9,0.7c-0.4,0.2-0.8,0.3-1.4,0.3v0.1c0.6,0.1,1,0.2,1.4,0.3c0.4,0.2,0.7,0.4,1,0.7
		c0.3,0.3,0.5,0.7,0.7,1.2c0.2,0.5,0.5,1.2,0.7,1.9c0.2,0.8,0.5,1.7,0.9,2.9h-3.9c-0.4-1.2-0.7-2.3-0.9-3c-0.2-0.8-0.5-1.4-0.7-1.8
		c-0.2-0.4-0.5-0.7-0.8-0.8c-0.3-0.2-0.7-0.2-1.2-0.2l-0.1-2.5c0.5,0,0.9-0.1,1.2-0.3c0.3-0.2,0.6-0.5,0.8-0.9s0.4-1,0.6-1.6
		s0.4-1.5,0.7-2.6H518.9z"/>
	<path class="st1" d="M525.5,419.4c1.3,0,2.3,0.2,3.1,0.5c0.8,0.3,1.3,0.9,1.7,1.6c0.3,0.8,0.5,1.8,0.5,3.1c0,1.3-0.2,2.3-0.5,3
		c-0.3,0.7-0.9,1.3-1.7,1.6c-0.8,0.3-1.8,0.5-3.1,0.5c-1.3,0-2.3-0.2-3.1-0.5c-0.8-0.3-1.3-0.9-1.7-1.6c-0.3-0.7-0.5-1.8-0.5-3
		c0-1.3,0.2-2.3,0.5-3.1c0.4-0.8,0.9-1.3,1.7-1.6C523.2,419.6,524.2,419.4,525.5,419.4z M525.5,421.9c-0.4,0-0.7,0.1-0.9,0.2
		c-0.2,0.1-0.4,0.4-0.5,0.8c-0.1,0.4-0.1,0.9-0.1,1.7c0,0.7,0,1.3,0.1,1.7c0.1,0.4,0.3,0.6,0.5,0.8c0.2,0.1,0.5,0.2,0.9,0.2
		c0.4,0,0.7-0.1,1-0.2c0.2-0.1,0.4-0.4,0.5-0.8c0.1-0.4,0.1-0.9,0.1-1.7c0-0.7,0-1.3-0.1-1.7c-0.1-0.4-0.2-0.6-0.5-0.8
		C526.2,422,525.9,421.9,525.5,421.9z"/>
	<path class="st1" d="M535.4,419.7l0.4,1.7l0.4,0.3v6.5l-0.1,0.2c0,0.4,0.1,0.9,0.1,1.3c0,0.5,0,0.9,0,1.4v2.2h-3.6v-13.5H535.4z
		 M539.4,419.4c1.3,0,2.2,0.5,2.7,1.4c0.5,0.9,0.8,2.2,0.8,3.9c0,1.3-0.1,2.4-0.4,3.1c-0.3,0.7-0.7,1.3-1.2,1.5
		c-0.5,0.3-1.2,0.4-2.1,0.4c-0.7,0-1.4-0.1-2.1-0.3c-0.6-0.2-1.2-0.6-1.6-1.1l0.2-1.5c0.3,0.1,0.7,0.2,1,0.3
		c0.3,0.1,0.7,0.1,1.1,0.1c0.3,0,0.6-0.1,0.8-0.2c0.2-0.1,0.3-0.4,0.4-0.8c0.1-0.4,0.1-0.9,0.1-1.7c0-0.8,0-1.3-0.1-1.7
		c-0.1-0.4-0.2-0.6-0.4-0.8c-0.2-0.1-0.4-0.2-0.8-0.2c-0.4,0-0.7,0.1-1,0.2s-0.6,0.3-0.9,0.5l-0.5-1.5c0.2-0.3,0.5-0.7,0.9-0.9
		c0.4-0.3,0.8-0.5,1.4-0.7C538.4,419.5,538.9,419.4,539.4,419.4z"/>
	<path class="st1" d="M554.9,419.7v9.9l-3.2,0v-4.5c0-0.3,0-0.6,0-0.8c0-0.3,0.1-0.6,0.1-0.9h-0.1c-0.1,0.3-0.2,0.6-0.4,0.9
		c-0.2,0.3-0.3,0.6-0.4,0.8l-3.1,4.5h-3.2v-9.9h3.2v4.7c0,0.3,0,0.5,0,0.7c0,0.2-0.1,0.5-0.1,0.8h0.1c0.1-0.3,0.2-0.5,0.3-0.8
		c0.1-0.2,0.3-0.5,0.4-0.7l3.2-4.7H554.9z"/>
	<path class="st1" d="M568.6,427.1v2.4h-12.3v-2.4H568.6z M558.9,429.4l-0.3,2.8h-2.4v-2.8H558.9z M566.7,419.7v2.3h-4
		c-0.5,0-0.8,0.3-0.9,0.8c-0.2,1.1-0.4,2-0.6,2.8c-0.2,0.8-0.5,1.5-0.8,2.1c-0.3,0.6-0.7,1.2-1.2,1.8h-2.7c0.5-0.8,0.8-1.7,1.1-2.5
		c0.3-0.8,0.5-1.7,0.7-2.5c0.2-0.8,0.3-1.6,0.4-2.5c0.1-0.8,0.4-1.4,0.8-1.8c0.5-0.4,1.1-0.6,2-0.6H566.7z M567,419.7v9.9h-3.4v-9.9
		H567z M568.6,429.4v2.8h-2.4l-0.2-2.8H568.6z"/>
	<path class="st1" d="M575,419.4c1.3,0,2.3,0.2,3.1,0.5c0.8,0.3,1.3,0.9,1.7,1.6c0.3,0.8,0.5,1.8,0.5,3.1c0,1.3-0.2,2.3-0.5,3
		c-0.3,0.7-0.9,1.3-1.7,1.6c-0.8,0.3-1.8,0.5-3.1,0.5c-1.3,0-2.3-0.2-3.1-0.5c-0.8-0.3-1.3-0.9-1.7-1.6c-0.3-0.7-0.5-1.8-0.5-3
		c0-1.3,0.2-2.3,0.5-3.1c0.4-0.8,0.9-1.3,1.7-1.6C572.6,419.6,573.7,419.4,575,419.4z M575,421.9c-0.4,0-0.7,0.1-0.9,0.2
		c-0.2,0.1-0.4,0.4-0.5,0.8c-0.1,0.4-0.1,0.9-0.1,1.7c0,0.7,0,1.3,0.1,1.7c0.1,0.4,0.3,0.6,0.5,0.8c0.2,0.1,0.5,0.2,0.9,0.2
		c0.4,0,0.7-0.1,1-0.2c0.2-0.1,0.4-0.4,0.5-0.8c0.1-0.4,0.1-0.9,0.1-1.7c0-0.7,0-1.3-0.1-1.7c-0.1-0.4-0.2-0.6-0.5-0.8
		C575.7,422,575.4,421.9,575,421.9z"/>
	<path class="st1" d="M584.9,419.7l0.4,1.7l0.4,0.3v6.5l-0.1,0.2c0,0.4,0.1,0.9,0.1,1.3c0,0.5,0,0.9,0,1.4v2.2H582v-13.5H584.9z
		 M588.9,419.4c1.3,0,2.2,0.5,2.7,1.4c0.5,0.9,0.8,2.2,0.8,3.9c0,1.3-0.1,2.4-0.4,3.1c-0.3,0.7-0.7,1.3-1.2,1.5
		c-0.5,0.3-1.2,0.4-2.1,0.4c-0.7,0-1.4-0.1-2.1-0.3c-0.6-0.2-1.2-0.6-1.6-1.1l0.2-1.5c0.3,0.1,0.7,0.2,1,0.3
		c0.3,0.1,0.7,0.1,1.1,0.1c0.3,0,0.6-0.1,0.8-0.2c0.2-0.1,0.3-0.4,0.4-0.8c0.1-0.4,0.1-0.9,0.1-1.7c0-0.8,0-1.3-0.1-1.7
		c-0.1-0.4-0.2-0.6-0.4-0.8c-0.2-0.1-0.4-0.2-0.8-0.2c-0.4,0-0.7,0.1-1,0.2c-0.3,0.1-0.6,0.3-0.9,0.5l-0.5-1.5
		c0.2-0.3,0.5-0.7,0.9-0.9c0.4-0.3,0.8-0.5,1.4-0.7C587.8,419.5,588.4,419.4,588.9,419.4z"/>
</g>
<g>
	<path class="st1" d="M542.7,436.5l-3,7.8c-0.1,0.2-0.1,0.3,0,0.4c0.1,0.1,0.2,0.1,0.4,0.1h7.7v2.1l-1.6,0.3h-9
		c-0.4,0-0.7-0.1-1-0.3c-0.3-0.2-0.4-0.4-0.5-0.8c-0.1-0.3-0.1-0.7,0.1-1l3.5-8.7H542.7z M546.2,439.2v11h-3.4v-8.9l0.6-2.1H546.2z"
		/>
	<path class="st1" d="M551.2,446.8c0.5,0,0.8,0.1,1,0.3c0.2,0.2,0.3,0.5,0.3,1v0.9c0,0.5-0.1,0.8-0.3,1c-0.2,0.2-0.5,0.3-1,0.3h-0.8
		c-0.5,0-0.8-0.1-1-0.3c-0.2-0.2-0.3-0.5-0.3-1v-0.9c0-0.5,0.1-0.8,0.3-1c0.2-0.2,0.5-0.3,1-0.3H551.2z"/>
	<path class="st1" d="M562.2,436.5c0.4,0,0.7,0.1,0.9,0.2c0.3,0.2,0.4,0.4,0.5,0.7c0.1,0.3,0.1,0.6,0,0.9l-4.1,11.9h-3.6l3.3-9.3
		c0.1-0.2,0.2-0.5,0.3-0.7c0.1-0.2,0.2-0.5,0.4-0.7h-6l-0.2-3H562.2z"/>
</g>
<g>
	<path class="st1" d="M106.8,420.4l-3,7.8c-0.1,0.2-0.1,0.3,0,0.4c0.1,0.1,0.2,0.1,0.4,0.1h7.7v2.1l-1.6,0.3h-9
		c-0.4,0-0.7-0.1-1-0.3c-0.3-0.2-0.4-0.4-0.5-0.8c-0.1-0.3-0.1-0.7,0.1-1l3.5-8.7H106.8z M110.3,423v11h-3.4v-8.9l0.6-2.1H110.3z"/>
	<path class="st1" d="M115.3,430.7c0.5,0,0.8,0.1,1,0.3c0.2,0.2,0.3,0.5,0.3,1v0.9c0,0.5-0.1,0.8-0.3,1c-0.2,0.2-0.5,0.3-1,0.3h-0.8
		c-0.5,0-0.8-0.1-1-0.3c-0.2-0.2-0.3-0.5-0.3-1v-0.9c0-0.5,0.1-0.8,0.3-1c0.2-0.2,0.5-0.3,1-0.3H115.3z"/>
	<path class="st1" d="M123.1,420.1c1.1,0,2,0.1,2.7,0.3c0.7,0.2,1.2,0.6,1.6,1.1c0.4,0.5,0.6,1.2,0.8,2.1c0.1,0.9,0.2,2.1,0.2,3.5
		c0,1.5-0.1,2.8-0.3,3.8c-0.2,1-0.6,1.7-1,2.2c-0.5,0.5-1.1,0.8-1.8,1c-0.8,0.2-1.7,0.3-2.8,0.3c-0.4,0-0.9,0-1.6-0.1
		c-0.7,0-1.4-0.2-2.2-0.3l0.2-2.3c0.4,0,0.8,0,1.1,0c0.3,0,0.7,0,1.1,0c0.4,0,0.9,0,1.5,0c0.5,0,1-0.1,1.3-0.2
		c0.3-0.1,0.6-0.4,0.7-0.7c0.2-0.4,0.3-0.8,0.3-1.5c0.1-0.6,0.1-1.4,0.1-2.3c0-0.9,0-1.6,0-2.1c0-0.5-0.1-1-0.2-1.2
		c-0.1-0.3-0.3-0.5-0.5-0.6c-0.2-0.1-0.6-0.1-1-0.1c-0.5,0-0.8,0.1-1.1,0.2c-0.2,0.1-0.4,0.4-0.4,0.7c-0.1,0.3-0.1,0.8-0.1,1.3
		c0,0.5,0,0.8,0.1,1.1c0.1,0.3,0.3,0.4,0.5,0.6c0.2,0.1,0.6,0.2,1,0.2c0.3,0,0.6,0,0.9-0.1c0.3-0.1,0.6-0.2,0.9-0.4
		c0.3-0.2,0.8-0.5,1.3-0.8l0.1,1.3c-0.4,0.7-0.9,1.2-1.3,1.6c-0.4,0.4-0.8,0.6-1.3,0.8c-0.5,0.1-1,0.2-1.7,0.2c-1,0-1.8-0.2-2.4-0.5
		c-0.6-0.4-1-0.9-1.2-1.5c-0.2-0.6-0.4-1.4-0.4-2.2c0-1.2,0.1-2.1,0.4-2.9c0.3-0.7,0.8-1.3,1.6-1.6
		C120.8,420.3,121.8,420.1,123.1,420.1z"/>
	<path class="st1" d="M140.2,418.4l0.4,1.5c-1.1,0.5-1.9,1.4-2.3,2.8c-0.4,1.4-0.7,3.1-0.7,5.2c0,1.4,0.1,2.6,0.3,3.6
		c0.2,1.1,0.5,2,0.9,2.7c0.4,0.7,1,1.3,1.7,1.6l-0.4,1.5c-2.1-0.6-3.6-1.7-4.6-3.2c-1-1.5-1.5-3.6-1.5-6.3c0-2.7,0.5-4.8,1.5-6.3
		C136.6,420,138.1,418.9,140.2,418.4z"/>
	<path class="st1" d="M146.6,420.1c1,0,1.8,0.1,2.6,0.3c0.7,0.2,1.3,0.5,1.7,1c0.4,0.5,0.6,1.2,0.6,2.1c0,0.5-0.1,0.9-0.2,1.4
		c-0.1,0.4-0.3,0.8-0.6,1.3c-0.3,0.4-0.8,1-1.4,1.6l-3.4,3.4c0.3-0.1,0.6-0.1,0.9-0.2c0.3,0,0.6,0,1,0h4v3.2h-10.2v-1.9
		c0-0.3,0-0.6,0.1-0.8c0.1-0.2,0.2-0.5,0.4-0.7l3.1-3.2c0.8-0.8,1.4-1.5,1.8-2.1s0.7-1.1,0.7-1.5c0-0.2-0.1-0.3-0.2-0.4
		c-0.1-0.1-0.3-0.1-0.5-0.2c-0.2,0-0.5,0-0.9,0c-0.5,0-0.9,0-1.3,0c-0.4,0-0.9,0-1.3,0c-0.5,0-1,0-1.6,0.1l-0.1-2.7
		c0.7-0.1,1.3-0.2,1.8-0.3c0.6-0.1,1.1-0.1,1.6-0.1C145.6,420.1,146.1,420.1,146.6,420.1z"/>
	<path class="st1" d="M155.5,430.7c0.5,0,0.8,0.1,1,0.3c0.2,0.2,0.3,0.5,0.3,1v0.9c0,0.5-0.1,0.8-0.3,1c-0.2,0.2-0.5,0.3-1,0.3h-0.8
		c-0.5,0-0.8-0.1-1-0.3c-0.2-0.2-0.3-0.5-0.3-1v-0.9c0-0.5,0.1-0.8,0.3-1c0.2-0.2,0.5-0.3,1-0.3H155.5z"/>
	<path class="st1" d="M167.6,420.4l-0.1,2.7h-5.7l-0.1,1.9l2.3,0.3c0.8,0.1,1.5,0.3,2,0.5c0.5,0.3,0.9,0.6,1.2,1
		c0.3,0.4,0.5,0.9,0.6,1.4c0.1,0.5,0.2,1,0.2,1.6c0,0.6-0.1,1.2-0.2,1.7c-0.2,0.5-0.4,1-0.8,1.4c-0.4,0.4-0.9,0.7-1.5,1
		c-0.6,0.2-1.5,0.3-2.4,0.3c-0.7,0-1.5,0-2.3-0.1c-0.8-0.1-1.7-0.2-2.6-0.3l0.3-2.8c0.7,0,1.3,0.1,1.9,0.1c0.6,0,1.2,0.1,1.6,0.1
		c0.6,0,1.1-0.1,1.4-0.2c0.3-0.1,0.5-0.3,0.7-0.5c0.1-0.2,0.2-0.5,0.2-0.9c0-0.3,0-0.6-0.1-0.8c-0.1-0.2-0.2-0.4-0.4-0.5
		c-0.2-0.1-0.5-0.2-0.8-0.3c-0.3-0.1-0.7-0.1-1.2-0.1l-2.1-0.3c-0.3,0-0.6-0.2-0.8-0.4c-0.2-0.2-0.3-0.5-0.3-0.8l0.4-6.2H167.6z"/>
	<path class="st1" d="M169.4,418.4c2.1,0.6,3.6,1.6,4.6,3.2c1,1.5,1.5,3.6,1.5,6.3c0,2.6-0.5,4.7-1.5,6.3c-1,1.5-2.5,2.6-4.6,3.2
		l-0.4-1.5c0.7-0.3,1.3-0.9,1.7-1.6c0.4-0.7,0.8-1.6,0.9-2.7s0.3-2.3,0.3-3.6c0-2.1-0.2-3.8-0.7-5.2c-0.4-1.4-1.2-2.3-2.3-2.8
		L169.4,418.4z"/>
</g>
<g>
	<path class="st1" d="M846.2,609.1c1.1,0,2,0.1,2.7,0.3c0.7,0.2,1.2,0.5,1.5,1c0.3,0.5,0.5,1.1,0.5,1.9c0,0.6-0.1,1.2-0.2,1.7
		c-0.1,0.5-0.3,0.9-0.7,1.2c-0.3,0.3-0.8,0.5-1.4,0.6v0.1c1,0.1,1.6,0.5,2,1s0.6,1.3,0.6,2.4c0,1-0.1,1.8-0.5,2.4
		c-0.3,0.6-0.8,1-1.6,1.3c-0.7,0.3-1.7,0.4-2.9,0.4c-0.8,0-1.7,0-2.5-0.1s-1.7-0.2-2.5-0.3l0.1-2.7c0.6,0,1.1,0.1,1.5,0.1
		c0.4,0,0.8,0,1.2,0c0.4,0,0.8,0,1.1,0c0.6,0,1.1,0,1.4-0.1c0.3-0.1,0.6-0.2,0.7-0.5c0.1-0.2,0.2-0.6,0.2-1.1c0-0.4,0-0.7-0.1-1
		c-0.1-0.2-0.3-0.4-0.5-0.5c-0.3-0.1-0.6-0.2-1.1-0.1l-2.6,0v-2.3h2.6c0.4,0,0.7,0,0.9-0.1c0.2-0.1,0.4-0.2,0.5-0.3
		c0.1-0.1,0.2-0.3,0.2-0.5c0-0.2,0-0.4,0-0.6c0-0.4-0.1-0.6-0.2-0.8s-0.3-0.3-0.5-0.4c-0.3-0.1-0.6-0.1-1.1-0.1c-0.7,0-1.4,0-2.1,0
		c-0.7,0-1.2,0-1.7,0l-0.1-2.5c0.8-0.1,1.5-0.2,2.3-0.3C844.7,609.1,845.4,609.1,846.2,609.1z"/>
	<path class="st1" d="M854.9,619.7c0.5,0,0.8,0.1,1,0.3c0.2,0.2,0.3,0.5,0.3,1v0.9c0,0.5-0.1,0.8-0.3,1c-0.2,0.2-0.5,0.3-1,0.3h-0.8
		c-0.5,0-0.8-0.1-1-0.3c-0.2-0.2-0.3-0.5-0.3-1v-0.9c0-0.5,0.1-0.8,0.3-1c0.2-0.2,0.5-0.3,1-0.3H854.9z"/>
	<path class="st1" d="M863.9,609.1c0.4,0,0.9,0,1.5,0c0.6,0,1.3,0.1,2,0.3l-0.2,2.3c-0.4,0-0.7,0-1,0c-0.3,0-0.7,0-1,0
		c-0.4,0-0.8,0-1.3,0s-1,0.1-1.3,0.2c-0.3,0.1-0.6,0.3-0.7,0.7c-0.2,0.3-0.3,0.8-0.3,1.4c0,0.6-0.1,1.5-0.1,2.5c0,0.9,0,1.6,0,2.1
		c0,0.5,0.1,0.9,0.2,1.2c0.1,0.3,0.3,0.5,0.5,0.6c0.2,0.1,0.6,0.1,1,0.1c0.5,0,0.9-0.1,1.1-0.2c0.2-0.2,0.4-0.4,0.4-0.7
		c0.1-0.3,0.1-0.8,0.1-1.3c0-0.5,0-0.9-0.1-1.1c-0.1-0.3-0.2-0.4-0.5-0.5c-0.2-0.1-0.6-0.1-1-0.1c-0.3,0-0.6,0-0.9,0.1
		c-0.3,0.1-0.6,0.2-0.9,0.4c-0.3,0.2-0.8,0.5-1.3,0.8l-0.1-1.3c0.5-0.7,0.9-1.2,1.3-1.6c0.4-0.4,0.8-0.6,1.3-0.8
		c0.5-0.1,1.1-0.2,1.7-0.2c1,0,1.9,0.1,2.4,0.4c0.6,0.3,1,0.7,1.2,1.4c0.2,0.6,0.3,1.4,0.3,2.4c0,0.9-0.1,1.6-0.2,2.3
		c-0.1,0.6-0.4,1.1-0.8,1.6c-0.4,0.4-0.9,0.7-1.6,0.9s-1.5,0.3-2.6,0.3c-1,0-1.9-0.1-2.6-0.3c-0.7-0.2-1.2-0.6-1.6-1.1
		c-0.4-0.5-0.7-1.2-0.9-2.1c-0.2-0.9-0.3-2-0.3-3.4c0-1.6,0.1-2.8,0.4-3.8c0.2-1,0.6-1.7,1.1-2.2s1.1-0.8,1.9-1
		C862,609.2,862.9,609.1,863.9,609.1z"/>
	<path class="st1" d="M879.8,607.4l0.4,1.5c-1.1,0.5-1.9,1.4-2.3,2.8c-0.4,1.4-0.7,3.1-0.7,5.2c0,1.4,0.1,2.6,0.3,3.6s0.5,2,0.9,2.7
		c0.4,0.7,1,1.3,1.7,1.6l-0.4,1.5c-2.1-0.6-3.6-1.7-4.6-3.2c-1-1.5-1.5-3.6-1.5-6.3c0-2.7,0.5-4.8,1.5-6.3S877.8,608,879.8,607.4z"
		/>
	<path class="st1" d="M887.9,609.4v13.7h-3.7V614c0-0.3,0-0.6,0-0.8c0-0.3,0.1-0.5,0.1-0.8l-3.2,0.7l-0.4-2.3l3.5-1.4H887.9z"/>
	<path class="st1" d="M892.4,619.7c0.5,0,0.8,0.1,1,0.3c0.2,0.2,0.3,0.5,0.3,1v0.9c0,0.5-0.1,0.8-0.3,1c-0.2,0.2-0.5,0.3-1,0.3h-0.8
		c-0.5,0-0.8-0.1-1-0.3c-0.2-0.2-0.3-0.5-0.3-1v-0.9c0-0.5,0.1-0.8,0.3-1c0.2-0.2,0.5-0.3,1-0.3H892.4z"/>
	<path class="st1" d="M900.7,609.1c1.1,0,1.9,0.1,2.6,0.2c0.7,0.1,1.2,0.4,1.5,0.7c0.4,0.3,0.6,0.7,0.8,1.1c0.1,0.5,0.2,1,0.2,1.7
		c0,0.5-0.1,1-0.2,1.4c-0.2,0.5-0.4,0.9-0.7,1.2c-0.3,0.3-0.7,0.5-1.2,0.5v0.1c0.7,0.1,1.2,0.3,1.5,0.6c0.3,0.4,0.6,0.8,0.7,1.3
		c0.1,0.5,0.2,1.1,0.2,1.7c0,0.9-0.1,1.6-0.4,2.2c-0.3,0.5-0.8,0.9-1.6,1.2c-0.8,0.2-1.9,0.4-3.4,0.4c-1.4,0-2.5-0.1-3.3-0.4
		c-0.8-0.2-1.3-0.6-1.6-1.2c-0.3-0.5-0.5-1.3-0.5-2.2c0-0.6,0.1-1.2,0.2-1.7c0.1-0.5,0.4-1,0.7-1.3c0.4-0.4,0.9-0.6,1.5-0.6v-0.1
		c-0.5-0.1-0.9-0.2-1.2-0.5c-0.3-0.3-0.5-0.7-0.7-1.2c-0.1-0.5-0.2-0.9-0.2-1.4c0-0.6,0.1-1.2,0.2-1.7c0.1-0.5,0.4-0.8,0.8-1.1
		c0.4-0.3,0.9-0.5,1.5-0.7C898.9,609.2,899.7,609.1,900.7,609.1z M900.8,617.1c-0.4,0-0.7,0-1,0.1c-0.3,0.1-0.5,0.1-0.6,0.3
		c-0.1,0.1-0.2,0.3-0.3,0.6c-0.1,0.2-0.1,0.5-0.1,0.9c0,0.4,0.1,0.8,0.2,1.1c0.1,0.3,0.3,0.4,0.6,0.5c0.3,0.1,0.7,0.1,1.2,0.1
		c0.5,0,0.9,0,1.2-0.1s0.5-0.3,0.5-0.5c0.1-0.3,0.1-0.6,0.1-1.1c0-0.4,0-0.7-0.1-0.9c-0.1-0.2-0.1-0.4-0.3-0.5
		c-0.1-0.1-0.3-0.2-0.6-0.3C901.5,617.2,901.2,617.1,900.8,617.1z M900.8,611.6c-0.5,0-0.8,0-1.1,0.1c-0.3,0.1-0.4,0.3-0.5,0.5
		c-0.1,0.2-0.1,0.6-0.1,1.1c0,0.4,0,0.7,0.1,1c0.1,0.2,0.3,0.4,0.5,0.4c0.3,0.1,0.6,0.1,1.1,0.1c0.5,0,0.8,0,1.1-0.1
		c0.2-0.1,0.4-0.2,0.5-0.4c0.1-0.2,0.1-0.5,0.1-1c0-0.5,0-0.8-0.1-1.1c-0.1-0.2-0.3-0.4-0.5-0.5
		C901.6,611.6,901.2,611.6,900.8,611.6z"/>
	<path class="st1" d="M907.7,607.4c2.1,0.6,3.6,1.6,4.6,3.2c1,1.5,1.5,3.6,1.5,6.3c0,2.6-0.5,4.7-1.5,6.3c-1,1.5-2.5,2.6-4.6,3.2
		l-0.4-1.5c0.7-0.3,1.3-0.9,1.8-1.6c0.4-0.7,0.8-1.6,0.9-2.7c0.2-1.1,0.3-2.3,0.3-3.6c0-2.1-0.2-3.8-0.7-5.2
		c-0.4-1.4-1.2-2.3-2.3-2.8L907.7,607.4z"/>
</g>
<g>
	<path class="st1" d="M471.7,334.9c0.7,0,1.3,0,1.8,0.1c0.5,0,0.9,0.1,1.3,0.2c0.4,0.1,0.8,0.2,1.2,0.3l-0.3,2.7c-0.5,0-0.9,0-1.3,0
		c-0.4,0-0.8,0-1.2,0c-0.4,0-1,0-1.6,0c-0.5,0-1,0.1-1.3,0.3c-0.3,0.2-0.5,0.6-0.6,1.2c-0.1,0.6-0.2,1.4-0.2,2.4
		c0,1,0.1,1.8,0.2,2.4c0.1,0.6,0.3,1,0.6,1.2c0.3,0.2,0.7,0.3,1.3,0.3c1,0,1.8,0,2.4,0c0.6,0,1.3-0.1,1.9-0.1l0.3,2.7
		c-0.7,0.2-1.3,0.4-2,0.5c-0.7,0.1-1.6,0.1-2.6,0.1c-1.5,0-2.6-0.2-3.5-0.7c-0.9-0.5-1.5-1.2-1.9-2.2c-0.4-1-0.6-2.4-0.6-4.2
		s0.2-3.1,0.6-4.2c0.4-1,1-1.8,1.9-2.2S470.2,334.9,471.7,334.9z"/>
	<path class="st1" d="M487.7,335.1l-7.8,15.2h-2.8l7.8-15.2H487.7z"/>
	<path class="st1" d="M492,338.9l1.5,5.9c0.1,0.3,0.1,0.6,0.1,0.9c0,0.3,0.1,0.6,0.1,0.9h0.6l-1.1,2.3h-0.8c-0.3,0-0.5-0.1-0.7-0.2
		c-0.2-0.2-0.3-0.4-0.4-0.6l-3.1-9H492z M499.7,338.9l-3.3,9.8c-0.2,0.8-0.5,1.5-0.9,2c-0.3,0.5-0.7,0.9-1.2,1.2
		c-0.4,0.3-0.9,0.5-1.4,0.7c-0.6,0.2-1.2,0.3-1.9,0.3c-0.7,0-1.4-0.1-2.1-0.2l0.3-2.3c0.6,0,1.2,0,1.6-0.1c0.5-0.1,0.8-0.2,1.2-0.4
		c0.2-0.1,0.5-0.4,0.7-0.6c0.2-0.3,0.4-0.6,0.5-0.9l0.6-1.3c0.1-0.3,0.3-0.7,0.4-1.2c0.1-0.5,0.2-0.9,0.3-1.2l1.5-5.9H499.7z"/>
</g>
<g>
	<path class="st1" d="M340.3,716.3c0.7,0,1.3,0,1.8,0.1c0.5,0,0.9,0.1,1.3,0.2c0.4,0.1,0.8,0.2,1.2,0.3l-0.3,2.7c-0.5,0-0.9,0-1.3,0
		c-0.4,0-0.8,0-1.2,0c-0.4,0-1,0-1.6,0c-0.5,0-1,0.1-1.3,0.3c-0.3,0.2-0.5,0.6-0.6,1.2c-0.1,0.6-0.2,1.4-0.2,2.4
		c0,1,0.1,1.8,0.2,2.4c0.1,0.6,0.3,1,0.6,1.2c0.3,0.2,0.7,0.3,1.3,0.3c1,0,1.8,0,2.4,0c0.6,0,1.3-0.1,1.9-0.1l0.3,2.7
		c-0.7,0.2-1.3,0.4-2,0.5c-0.7,0.1-1.6,0.1-2.6,0.1c-1.5,0-2.6-0.2-3.5-0.7c-0.9-0.5-1.5-1.2-1.9-2.2c-0.4-1-0.6-2.4-0.6-4.2
		c0-1.8,0.2-3.1,0.6-4.2c0.4-1,1-1.8,1.9-2.2C337.7,716.5,338.9,716.3,340.3,716.3z"/>
	<path class="st1" d="M356.4,716.5l-7.8,15.2h-2.8l7.8-15.2H356.4z"/>
	<path class="st1" d="M360.7,720.4l1.5,5.9c0.1,0.3,0.1,0.6,0.1,0.9s0.1,0.6,0.1,0.9h0.6l-1.1,2.3h-0.8c-0.3,0-0.5-0.1-0.7-0.2
		s-0.3-0.4-0.4-0.6l-3.1-9H360.7z M368.4,720.4l-3.3,9.8c-0.2,0.8-0.5,1.5-0.9,2c-0.3,0.5-0.7,0.9-1.2,1.2c-0.4,0.3-0.9,0.5-1.4,0.7
		c-0.6,0.2-1.2,0.3-1.9,0.3c-0.7,0-1.4-0.1-2.1-0.2l0.3-2.3c0.6,0,1.2,0,1.6-0.1c0.5-0.1,0.8-0.2,1.2-0.4c0.2-0.1,0.5-0.4,0.7-0.6
		c0.2-0.3,0.4-0.6,0.5-0.9l0.6-1.3c0.1-0.3,0.3-0.7,0.4-1.2c0.1-0.5,0.2-0.9,0.3-1.2l1.5-5.9H368.4z"/>
</g>
<rect x="512.9" y="337.6" class="st1" width="19.3" height="55.4"/>
<rect x="515.9" y="340.7" class="st3" width="13" height="10.4"/>
<rect x="515.9" y="354.4" class="st3" width="13" height="34.8"/>
<polygon class="st6" points="519.1,342.3 528.8,340.7 516,340.7 516,351.1 "/>
<polygon class="st6" points="519.1,359.5 528.8,354.4 516,354.4 516,389.2 "/>
</svg>
