<svg xmlns="http://www.w3.org/2000/svg" xmlns:xlink="http://www.w3.org/1999/xlink" xml:space="preserve" id="Слой_1" x="0" y="0" style="enable-background:new 0 0 678 538" version="1.1" viewBox="0 0 678 538"><style>.st0{fill:#f3dfec}.st3{fill:#fff5a4}.st4{fill:none;stroke:#39373a;stroke-width:.803}.st5,.st6{fill:#39373a}.st6,.st7{clip-path:url(#SVGID_2_)}.st7,.st8{fill:none;stroke:#39373a;stroke-width:.335}.st10,.st9{clip-path:url(#SVGID_4_)}.st9{fill:#39373a}.st10{fill:none;stroke:#39373a;stroke-width:.335}.st11,.st12{clip-path:url(#SVGID_6_);fill:#39373a}.st12{fill:none;stroke:#39373a;stroke-width:.335}.st13,.st14{clip-path:url(#SVGID_8_);fill:#39373a}.st14{fill:none;stroke:#39373a;stroke-width:.335}.st15{fill:#39373a}.st15,.st16,.st17{clip-path:url(#SVGID_10_)}.st16{stroke-width:.335}.st16,.st17,.st20{fill:none;stroke:#39373a}.st17{stroke-width:.284}.st20{stroke-width:.774}.st21{stroke-width:.738}.st21,.st22,.st39{fill:none;stroke:#39373a}.st22{stroke-width:.253}.st39{clip-path:url(#SVGID_30_)}.st39,.st40,.st41{stroke-width:.602}.st40{fill:none;stroke:#39373a}.st41{clip-path:url(#SVGID_32_)}.st41,.st42,.st76{fill:none;stroke:#39373a}.st42{clip-path:url(#SVGID_34_);stroke-width:.602}.st76{stroke-width:.706}.st77,.st78,.st79{clip-path:url(#SVGID_96_);fill:#39373a}.st78,.st79{fill:none;stroke:#39373a;stroke-width:.965}.st79{clip-path:url(#SVGID_98_);stroke-width:.602}</style><switch><g><path d="M35.8 113.9h102.1v339H35.8z" class="st0"/><path d="M91.6 113.9h146.3v182.2H91.6z" class="st0"/><path d="M138.7 298.8h202.8v154.1H138.7z" style="fill:#b7e0e6"/><path d="M343.8 298.8h201.4v154.1H343.8z" style="fill:#f6ccce"/><path d="M444.9 112.9h202.4v183.2H444.9z" class="st3"/><path d="M545.2 150.7h102v302.1h-102z" class="st3"/><path d="M48.2 101h49.3v2.9H48.2zm101 0h49.3v2.9h-49.3zm-11.1-45.4h91v4.3h-91zm316.1 0h91v4.3h-91zM39.5 67.9v4.3l97.8-12.3v-4.3zm207-30.5h49.3v3.1h-49.3zm71.4 0h49.3v3.1h-49.3zm69.2 0h49.3v3.1h-49.3zM48.2 104h46.5v9.5H48.2zm101 0h46.5v9.5h-46.5z" class="st4"/><path d="M37.3 100.6H64v3.7H37.3zm101.1 0h26.7v3.7h-26.7z" class="st5"/><path d="M113.2 100.6h26.7v3.7h-26.7zm176-63.6h32.1v3.7h-32.1zm-61.5 0h32.1v3.7h-32.1zm-13.5 63.6h26.7v3.7h-26.7zM37.3 103h24.2v10.9H37.3z" class="st5"/><path d="M138.4 103h24.2v10.9h-24.2z" class="st5"/><path d="M115.7 103h24.2v10.9h-24.2zm176-63.6h29.6v10.9h-29.6zM364 37h28.6v13.3H364z" class="st5"/><path d="M296.5 37h28.6v13.3h-28.6zm75.6 11.6h5v13.3h-5zm0 35.4h5v13.3h-5z" class="st5"/><path d="M369.8 92.6h78.7v4.7h-78.7zm-79 0H326v4.7h-35.2zm-50.1 0h14v4.7h-14zm66.8-47h4.7v19.6h-4.7z" class="st5"/><path d="M382.6 93.3h4.1v37.4h-4.1zm0 74.5h4.1v23.8h-4.1zm-20.1 61.6H404v5.1h-41.5zm-121.8 0h85.6v5.1h-85.6z" class="st5"/><path d="M307.1 90.6h5.1v138.9h-5.1zm75.5 123.1h4.1v20.1h-4.1zm1.5-120.4h57.8v8.6h-57.8zm0 83.5h57.8v3.9h-57.8z" class="st5"/><path d="M384.1 224.6h57.8v9.9h-57.8z" class="st5"/><path d="M434.9 96.2h11.9v138.3h-11.9zM428 37h28.6v13.3H428zm-68.1 0h28.6v13.3h-28.6zm182.3 17.9h6.1v26.9h-6.1z" class="st5"/><path d="M438.7 30h19.6v83.4h-19.6zm-71.1 7h27.7v3.1h-27.7zm-67.5 0h27.7v3.1h-27.7z" class="st5"/><path d="M424.9 37h25.9v3.1h-25.9zm-68.2 0h25.9v3.1h-25.9zm-129 2.4h29.6v10.9h-29.6zm-11 63.6h24.2v10.9h-24.2zM30.2 67.5h11.2v398.7H30.2z" class="st5"/><defs><path id="SVGID_1_" d="M30.2 29.7h619.6v481.6H30.2z"/></defs><clipPath id="SVGID_2_"><use xlink:href="#SVGID_1_" style="overflow:visible"/></clipPath><path d="M72 281.2c0-3.1-2.6-5.7-5.7-5.7H58c-.5 0-1 .4-1 1v9.4c0 .5.4 1 1 1h8.3c3.2 0 5.7-2.6 5.7-5.7m-15.3 4.7v-9.4c0-.8.6-1.4 1.4-1.4h8.3c3.4 0 6.1 2.7 6.1 6.1 0 3.3-2.7 6.1-6.1 6.1H58c-.7-.1-1.3-.7-1.3-1.4" class="st6"/><path d="M72 281.2c0-3.1-2.6-5.7-5.7-5.7H58c-.5 0-1 .4-1 1v9.4c0 .5.4 1 1 1h8.3c3.2 0 5.7-2.6 5.7-5.7zm-15.3 4.7v-9.4c0-.8.6-1.4 1.4-1.4h8.3c3.4 0 6.1 2.7 6.1 6.1 0 3.3-2.7 6.1-6.1 6.1H58c-.7-.1-1.3-.7-1.3-1.4z" class="st7"/><path d="M59.8 277.1v8.1c0 .1 0 .1.1.1h6.2c2.3 0 4.2-1.9 4.2-4.2 0-2.3-1.9-4.2-4.2-4.2l-6.3.2c.1-.1 0 0 0 0z" class="st7"/><path d="M60 277.2v7.9h6.1c2.2 0 4-1.8 4-4s-1.8-4-4-4H60zm-.4 8v-8.1c0-.2.1-.3.3-.3h6.2c2.4 0 4.4 2 4.4 4.3 0 2.4-2 4.4-4.4 4.4h-6.2c-.1 0-.3-.1-.3-.3" class="st6"/><path d="M60 277.2v7.9h6.1c2.2 0 4-1.8 4-4s-1.8-4-4-4H60zm-.4 8v-8.1c0-.2.1-.3.3-.3h6.2c2.4 0 4.4 2 4.4 4.3 0 2.4-2 4.4-4.4 4.4h-6.2c-.1 0-.3-.1-.3-.3z" class="st7"/><path d="M66.1 281.2c0-.6-.5-1.1-1.1-1.1-.6 0-1.1.5-1.1 1.1 0 .6.5 1.1 1.1 1.1.7-.1 1.1-.5 1.1-1.1m-2.5 0c0-.8.7-1.4 1.4-1.4.8 0 1.4.6 1.4 1.4s-.6 1.4-1.4 1.4c-.7 0-1.4-.6-1.4-1.4" class="st6"/><path d="M66.1 281.2c0-.6-.5-1.1-1.1-1.1-.6 0-1.1.5-1.1 1.1 0 .6.5 1.1 1.1 1.1.7-.1 1.1-.5 1.1-1.1zm-2.5 0c0-.8.7-1.4 1.4-1.4.8 0 1.4.6 1.4 1.4s-.6 1.4-1.4 1.4c-.7 0-1.4-.6-1.4-1.4z" class="st7"/><path d="m60.6 278 .3-.3 2.5 1.9-.2.3z" class="st5"/><path d="m60.6 278 .3-.3 2.5 1.9-.2.3z" class="st8"/><path d="m60.6 284.3 2.6-1.9.2.3-2.5 1.9z" class="st5"/><path d="m60.6 284.3 2.6-1.9.2.3-2.5 1.9z" class="st8"/><defs><path id="SVGID_3_" d="M30.2 29.7h619.6v481.6H30.2z"/></defs><clipPath id="SVGID_4_"><use xlink:href="#SVGID_3_" style="overflow:visible"/></clipPath><path d="M56.6 277.3c0-.9-.7-1.6-1.6-1.6h-2.1c-.9 0-1.6.7-1.6 1.6v7.8c0 .9.7 1.6 1.6 1.6H55c.9 0 1.6-.7 1.6-1.6v-7.8zm-5.7 7.8v-7.8c0-1.1.9-2 2-2H55c1.1 0 2 .9 2 2v7.8c0 1.1-.9 2-2 2h-2.1c-1.1 0-2-.9-2-2" class="st9"/><path d="M56.6 277.3c0-.9-.7-1.6-1.6-1.6h-2.1c-.9 0-1.6.7-1.6 1.6v7.8c0 .9.7 1.6 1.6 1.6H55c.9 0 1.6-.7 1.6-1.6v-7.8zm-5.7 7.8v-7.8c0-1.1.9-2 2-2H55c1.1 0 2 .9 2 2v7.8c0 1.1-.9 2-2 2h-2.1c-1.1 0-2-.9-2-2z" class="st10"/><path d="M54.5 281.2c0-.3-.3-.6-.6-.6s-.6.3-.6.6.3.6.6.6c.4 0 .6-.3.6-.6m-1.5 0c0-.5.4-1 1-1 .5 0 1 .4 1 1s-.4 1-1 1-1-.5-1-1" class="st9"/><path d="M54.5 281.2c0-.3-.3-.6-.6-.6s-.6.3-.6.6.3.6.6.6c.4 0 .6-.3.6-.6zm-1.5 0c0-.5.4-1 1-1 .5 0 1 .4 1 1s-.4 1-1 1-1-.5-1-1z" class="st10"/><path d="M318.4 373.6c0 3.1 2.6 5.7 5.7 5.7h8.3c.5 0 1-.4 1-1V369c0-.5-.4-1-1-1h-8.3c-3.2 0-5.7 2.5-5.7 5.6m15.3-4.6v9.4c0 .8-.6 1.4-1.4 1.4H324c-3.4 0-6.1-2.7-6.1-6.1 0-3.3 2.7-6.1 6.1-6.1h8.3c.8 0 1.4.6 1.4 1.4" class="st9"/><path d="M318.4 373.6c0 3.1 2.6 5.7 5.7 5.7h8.3c.5 0 1-.4 1-1V369c0-.5-.4-1-1-1h-8.3c-3.2 0-5.7 2.5-5.7 5.6zm15.3-4.6v9.4c0 .8-.6 1.4-1.4 1.4H324c-3.4 0-6.1-2.7-6.1-6.1 0-3.3 2.7-6.1 6.1-6.1h8.3c.8 0 1.4.6 1.4 1.4z" class="st10"/><path d="M330.6 377.7v-8.1c0-.1 0-.1-.1-.1h-6.2c-2.3 0-4.2 1.9-4.2 4.2 0 2.3 1.9 4.2 4.2 4.2l6.3-.2c-.1.1 0 .1 0 0z" class="st10"/><path d="M330.4 377.6v-7.9h-6.1c-2.2 0-4 1.8-4 4s1.8 4 4 4h6.1zm.4-8v8.1c0 .2-.1.3-.3.3h-6.2c-2.4 0-4.4-2-4.4-4.3 0-2.4 2-4.3 4.4-4.3h6.2c.1-.1.3 0 .3.2" class="st9"/><path d="M330.4 377.6v-7.9h-6.1c-2.2 0-4 1.8-4 4s1.8 4 4 4h6.1zm.4-8v8.1c0 .2-.1.3-.3.3h-6.2c-2.4 0-4.4-2-4.4-4.3 0-2.4 2-4.3 4.4-4.3h6.2c.1-.1.3 0 .3.2z" class="st10"/><path d="M324.3 373.6c0 .6.5 1.1 1.1 1.1.6 0 1.1-.5 1.1-1.1 0-.6-.5-1.1-1.1-1.1-.7.1-1.1.6-1.1 1.1m2.5 0c0 .8-.7 1.4-1.5 1.4s-1.5-.6-1.5-1.4.7-1.4 1.5-1.4 1.5.6 1.5 1.4" class="st9"/><path d="M324.3 373.6c0 .6.5 1.1 1.1 1.1.6 0 1.1-.5 1.1-1.1 0-.6-.5-1.1-1.1-1.1-.7.1-1.1.6-1.1 1.1zm2.5 0c0 .8-.7 1.4-1.5 1.4s-1.5-.6-1.5-1.4.7-1.4 1.5-1.4 1.5.6 1.5 1.4z" class="st10"/><path d="m329.8 376.8-.3.3-2.5-1.9.2-.3z" class="st5"/><path d="m329.8 376.8-.3.3-2.5-1.9.2-.3z" class="st8"/><path d="m329.8 370.6-2.6 1.8-.2-.3 2.5-1.9z" class="st5"/><path d="m329.8 370.6-2.6 1.8-.2-.3 2.5-1.9z" class="st8"/><defs><path id="SVGID_5_" d="M30.2 29.7h619.6v481.6H30.2z"/></defs><clipPath id="SVGID_6_"><use xlink:href="#SVGID_5_" style="overflow:visible"/></clipPath><path d="M333.8 377.6c0 .9.7 1.6 1.6 1.6h2.1c.9 0 1.6-.7 1.6-1.6v-7.8c0-.9-.7-1.6-1.6-1.6h-2.1c-.9 0-1.6.7-1.6 1.6v7.8zm5.7-7.9v7.8c0 1.1-.9 2-2 2h-2.1c-1.1 0-2-.9-2-2v-7.8c0-1.1.9-2 2-2h2.1c1.1.1 2 1 2 2" class="st11"/><path d="M333.8 377.6c0 .9.7 1.6 1.6 1.6h2.1c.9 0 1.6-.7 1.6-1.6v-7.8c0-.9-.7-1.6-1.6-1.6h-2.1c-.9 0-1.6.7-1.6 1.6v7.8zm5.7-7.9v7.8c0 1.1-.9 2-2 2h-2.1c-1.1 0-2-.9-2-2v-7.8c0-1.1.9-2 2-2h2.1c1.1.1 2 1 2 2z" class="st12"/><path d="M335.9 373.6c0 .3.3.6.6.6s.6-.3.6-.6-.3-.6-.6-.6c-.4.1-.6.3-.6.6m1.5 0c0 .5-.4 1-1 1-.5 0-1-.4-1-1 0-.5.4-1 1-1 .6.1 1 .5 1 1" class="st11"/><path d="M335.9 373.6c0 .3.3.6.6.6s.6-.3.6-.6-.3-.6-.6-.6c-.4.1-.6.3-.6.6zm1.5 0c0 .5-.4 1-1 1-.5 0-1-.4-1-1 0-.5.4-1 1-1 .6.1 1 .5 1 1z" class="st12"/><path d="M366.5 373.6c0-3.1-2.6-5.7-5.7-5.7h-8.3c-.5 0-1 .4-1 1v9.4c0 .5.4 1 1 1h8.3c3.1 0 5.7-2.5 5.7-5.7m-15.4 4.7V369c0-.8.6-1.4 1.4-1.4h8.3c3.4 0 6.1 2.7 6.1 6.1 0 3.3-2.7 6.1-6.1 6.1h-8.3c-.8-.1-1.4-.7-1.4-1.5" class="st11"/><path d="M366.5 373.6c0-3.1-2.6-5.7-5.7-5.7h-8.3c-.5 0-1 .4-1 1v9.4c0 .5.4 1 1 1h8.3c3.1 0 5.7-2.5 5.7-5.7zm-15.4 4.7V369c0-.8.6-1.4 1.4-1.4h8.3c3.4 0 6.1 2.7 6.1 6.1 0 3.3-2.7 6.1-6.1 6.1h-8.3c-.8-.1-1.4-.7-1.4-1.5z" class="st12"/><path d="M354.3 369.6v8.1c0 .1 0 .1.1.1h6.2c2.3 0 4.2-1.9 4.2-4.2 0-2.3-1.9-4.2-4.2-4.2l-6.3.2c0-.1 0-.1 0 0z" class="st12"/><path d="M354.5 369.7v7.9h6.1c2.2 0 4-1.8 4-4s-1.8-4-4-4h-6.1zm-.4 8v-8.1c0-.2.1-.3.3-.3h6.2c2.4 0 4.4 2 4.4 4.3 0 2.4-2 4.4-4.4 4.4h-6.2c-.2 0-.3-.1-.3-.3" class="st11"/><path d="M354.5 369.7v7.9h6.1c2.2 0 4-1.8 4-4s-1.8-4-4-4h-6.1zm-.4 8v-8.1c0-.2.1-.3.3-.3h6.2c2.4 0 4.4 2 4.4 4.3 0 2.4-2 4.4-4.4 4.4h-6.2c-.2 0-.3-.1-.3-.3z" class="st12"/><path d="M360.6 373.6c0-.6-.5-1.1-1.1-1.1-.6 0-1.1.5-1.1 1.1 0 .6.5 1.1 1.1 1.1.6 0 1.1-.5 1.1-1.1m-2.5 0c0-.8.7-1.4 1.4-1.4.8 0 1.5.6 1.5 1.4s-.6 1.4-1.5 1.4c-.8.1-1.4-.6-1.4-1.4" class="st11"/><path d="M360.6 373.6c0-.6-.5-1.1-1.1-1.1-.6 0-1.1.5-1.1 1.1 0 .6.5 1.1 1.1 1.1.6 0 1.1-.5 1.1-1.1zm-2.5 0c0-.8.7-1.4 1.4-1.4.8 0 1.5.6 1.5 1.4s-.6 1.4-1.5 1.4c-.8.1-1.4-.6-1.4-1.4z" class="st12"/><path d="m355.1 370.5.2-.3 2.6 1.9-.2.3z" class="st5"/><path d="m355.1 370.5.2-.3 2.6 1.9-.2.3z" class="st8"/><path d="m355.1 376.7 2.6-1.9.2.3-2.6 1.9z" class="st5"/><path d="m355.1 376.7 2.6-1.9.2.3-2.6 1.9z" class="st8"/><defs><path id="SVGID_7_" d="M30.2 29.7h619.6v481.6H30.2z"/></defs><clipPath id="SVGID_8_"><use xlink:href="#SVGID_7_" style="overflow:visible"/></clipPath><path d="M351.1 369.7c0-.9-.7-1.6-1.6-1.6h-2.1c-.9 0-1.6.7-1.6 1.6v7.8c0 .9.7 1.6 1.6 1.6h2.1c.9 0 1.6-.7 1.6-1.6v-7.8zm-5.7 7.9v-7.8c0-1.1.9-2 2-2h2.1c1.1 0 2 .9 2 2v7.8c0 1.1-.9 2-2 2h-2.1c-1.2-.1-2-1-2-2" class="st13"/><path d="M351.1 369.7c0-.9-.7-1.6-1.6-1.6h-2.1c-.9 0-1.6.7-1.6 1.6v7.8c0 .9.7 1.6 1.6 1.6h2.1c.9 0 1.6-.7 1.6-1.6v-7.8zm-5.7 7.9v-7.8c0-1.1.9-2 2-2h2.1c1.1 0 2 .9 2 2v7.8c0 1.1-.9 2-2 2h-2.1c-1.2-.1-2-1-2-2z" class="st14"/><path d="M349 373.6c0-.3-.3-.6-.6-.6s-.6.3-.6.6.3.6.6.6.6-.2.6-.6m-1.6 0c0-.5.4-1 1-1 .5 0 1 .4 1 1s-.4 1-1 1c-.5 0-1-.4-1-1" class="st13"/><path d="M349 373.6c0-.3-.3-.6-.6-.6s-.6.3-.6.6.3.6.6.6.6-.2.6-.6zm-1.6 0c0-.5.4-1 1-1 .5 0 1 .4 1 1s-.4 1-1 1c-.5 0-1-.4-1-1z" class="st14"/><path d="M611.5 230c0 3.1 2.6 5.7 5.7 5.7h8.3c.5 0 1-.4 1-1v-9.4c0-.5-.4-1-1-1h-8.3c-3.2 0-5.7 2.5-5.7 5.7m15.3-4.7v9.4c0 .8-.6 1.4-1.4 1.4h-8.3c-3.4 0-6.1-2.7-6.1-6.1 0-3.3 2.7-6.1 6.1-6.1h8.3c.8 0 1.4.6 1.4 1.4" class="st13"/><path d="M611.5 230c0 3.1 2.6 5.7 5.7 5.7h8.3c.5 0 1-.4 1-1v-9.4c0-.5-.4-1-1-1h-8.3c-3.2 0-5.7 2.5-5.7 5.7zm15.3-4.7v9.4c0 .8-.6 1.4-1.4 1.4h-8.3c-3.4 0-6.1-2.7-6.1-6.1 0-3.3 2.7-6.1 6.1-6.1h8.3c.8 0 1.4.6 1.4 1.4z" class="st14"/><path d="M623.7 234v-8.1c0-.1 0-.1-.1-.1h-6.2c-2.3 0-4.2 1.9-4.2 4.2 0 2.3 1.9 4.2 4.2 4.2l6.3-.2c-.1.1 0 .1 0 0z" class="st14"/><path d="M623.5 233.9V226h-6.1c-2.2 0-4 1.8-4 4s1.8 4 4 4h6.1zm.4-8v8.1c0 .2-.1.3-.3.3h-6.2c-2.4 0-4.4-2-4.4-4.3 0-2.4 2-4.4 4.4-4.4h6.2c.1 0 .3.2.3.3" class="st13"/><path d="M623.5 233.9V226h-6.1c-2.2 0-4 1.8-4 4s1.8 4 4 4h6.1zm.4-8v8.1c0 .2-.1.3-.3.3h-6.2c-2.4 0-4.4-2-4.4-4.3 0-2.4 2-4.4 4.4-4.4h6.2c.1 0 .3.2.3.3z" class="st14"/><path d="M617.4 230c0 .6.5 1.1 1.1 1.1.6 0 1.1-.5 1.1-1.1 0-.6-.5-1.1-1.1-1.1-.7 0-1.1.5-1.1 1.1m2.5 0c0 .8-.7 1.4-1.5 1.4s-1.4-.6-1.4-1.4c0-.8.7-1.4 1.4-1.4.8-.1 1.5.6 1.5 1.4" class="st13"/><path d="M617.4 230c0 .6.5 1.1 1.1 1.1.6 0 1.1-.5 1.1-1.1 0-.6-.5-1.1-1.1-1.1-.7 0-1.1.5-1.1 1.1zm2.5 0c0 .8-.7 1.4-1.5 1.4s-1.4-.6-1.4-1.4c0-.8.7-1.4 1.4-1.4.8-.1 1.5.6 1.5 1.4z" class="st14"/><path d="m622.9 233.1-.3.3-2.5-1.9.2-.3z" class="st5"/><path d="m622.9 233.1-.3.3-2.5-1.9.2-.3z" class="st8"/><path d="m622.9 226.9-2.6 1.9-.2-.3 2.5-1.9z" class="st5"/><path d="m622.9 226.9-2.6 1.9-.2-.3 2.5-1.9z" class="st8"/><defs><path id="SVGID_9_" d="M30.2 29.7h619.6v481.6H30.2z"/></defs><clipPath id="SVGID_10_"><use xlink:href="#SVGID_9_" style="overflow:visible"/></clipPath><path d="M626.9 233.9c0 .9.7 1.6 1.6 1.6h2.1c.9 0 1.6-.7 1.6-1.6v-7.8c0-.9-.7-1.6-1.6-1.6h-2.1c-.9 0-1.6.7-1.6 1.6v7.8zm5.7-7.8v7.8c0 1.1-.9 2-2 2h-2.1c-1.1 0-2-.9-2-2v-7.8c0-1.1.9-2 2-2h2.1c1.1 0 2 .9 2 2" class="st15"/><path d="M626.9 233.9c0 .9.7 1.6 1.6 1.6h2.1c.9 0 1.6-.7 1.6-1.6v-7.8c0-.9-.7-1.6-1.6-1.6h-2.1c-.9 0-1.6.7-1.6 1.6v7.8zm5.7-7.8v7.8c0 1.1-.9 2-2 2h-2.1c-1.1 0-2-.9-2-2v-7.8c0-1.1.9-2 2-2h2.1c1.1 0 2 .9 2 2z" class="st16"/><path d="M629 230c0 .3.3.6.6.6s.6-.3.6-.6-.3-.6-.6-.6c-.4 0-.6.2-.6.6m1.5 0c0 .5-.4 1-1 1-.5 0-1-.4-1-1 0-.5.4-1 1-1s1 .4 1 1" class="st15"/><path d="M629 230c0 .3.3.6.6.6s.6-.3.6-.6-.3-.6-.6-.6c-.4 0-.6.2-.6.6zm1.5 0c0 .5-.4 1-1 1-.5 0-1-.4-1-1 0-.5.4-1 1-1s1 .4 1 1z" class="st16"/><path d="M74.1 251.9c3.4 0 6.2 2.8 6.2 6.2v6.5c0 .5-.4.9-.9.9h-14c-.5 0-.9-.4-.9-.9V258c0-3.4 2.8-6.2 6.2-6.2h3.4zm-8.7 13.9h13.9c.7 0 1.3-.6 1.3-1.3V258c0-3.6-2.9-6.5-6.5-6.5h-3.5c-3.6 0-6.5 2.9-6.5 6.5v6.5c.1.7.6 1.3 1.3 1.3" class="st15"/><path d="M74.1 251.9c3.4 0 6.2 2.8 6.2 6.2v6.5c0 .5-.4.9-.9.9h-14c-.5 0-.9-.4-.9-.9V258c0-3.4 2.8-6.2 6.2-6.2h3.4zm-8.7 13.9h13.9c.7 0 1.3-.6 1.3-1.3V258c0-3.6-2.9-6.5-6.5-6.5h-3.5c-3.6 0-6.5 2.9-6.5 6.5v6.5c.1.7.6 1.3 1.3 1.3z" class="st17"/><path d="M74.1 253.4c2.5 0 4.6 2.1 4.6 4.6v3.8c0 .4-.4.8-.8.8H66.8c-.4 0-.8-.4-.8-.8V258c0-2.5 2.1-4.6 4.6-4.6h3.5zm-7.3 9.6h11.1c.6 0 1.1-.5 1.1-1.2V258c0-2.7-2.2-5-5-5h-3.5c-2.7 0-5 2.2-5 5v3.8c.2.7.7 1.2 1.3 1.2" class="st15"/><path d="M74.1 253.4c2.5 0 4.6 2.1 4.6 4.6v3.8c0 .4-.4.8-.8.8H66.8c-.4 0-.8-.4-.8-.8V258c0-2.5 2.1-4.6 4.6-4.6h3.5zm-7.3 9.6h11.1c.6 0 1.1-.5 1.1-1.2V258c0-2.7-2.2-5-5-5h-3.5c-2.7 0-5 2.2-5 5v3.8c.2.7.7 1.2 1.3 1.2z" class="st17"/><path d="M72.4 256.6c.4 0 .8.3.8.8 0 .4-.3.8-.8.8-.4 0-.8-.3-.8-.8 0-.4.4-.8.8-.8m0 1.9c.6 0 1.1-.5 1.1-1.1 0-.6-.5-1.1-1.1-1.1-.6 0-1.1.5-1.1 1.1 0 .6.5 1.1 1.1 1.1" class="st15"/><path d="M72.4 256.6c.4 0 .8.3.8.8 0 .4-.3.8-.8.8-.4 0-.8-.3-.8-.8 0-.4.4-.8.8-.8zm0 1.9c.6 0 1.1-.5 1.1-1.1 0-.6-.5-1.1-1.1-1.1-.6 0-1.1.5-1.1 1.1 0 .6.5 1.1 1.1 1.1z" class="st17"/><path d="M325.6 356.3c0-3.4 2.8-6.1 6.2-6.1h6.5c.5 0 .9.4.9.9V365c0 .5-.4.9-.9.9h-6.5c-3.4 0-6.2-2.8-6.2-6.2v-3.4zm14 8.6V351c0-.7-.6-1.3-1.3-1.3h-6.5c-3.6 0-6.5 2.9-6.5 6.5v3.5c0 3.6 2.9 6.5 6.5 6.5h6.5c.7 0 1.3-.5 1.3-1.3" class="st15"/><path d="M325.6 356.3c0-3.4 2.8-6.1 6.2-6.1h6.5c.5 0 .9.4.9.9V365c0 .5-.4.9-.9.9h-6.5c-3.4 0-6.2-2.8-6.2-6.2v-3.4zm14 8.6V351c0-.7-.6-1.3-1.3-1.3h-6.5c-3.6 0-6.5 2.9-6.5 6.5v3.5c0 3.6 2.9 6.5 6.5 6.5h6.5c.7 0 1.3-.5 1.3-1.3z" class="st17"/><path d="M327.2 356.3c0-2.5 2.1-4.6 4.6-4.6h3.8c.4 0 .8.4.8.8v11.1c0 .4-.4.8-.8.8h-3.8c-2.5 0-4.6-2.1-4.6-4.6v-3.5zm9.5 7.2v-11.1c0-.6-.5-1.1-1.2-1.1h-3.8c-2.7 0-5 2.2-5 5v3.5c0 2.7 2.2 5 5 5h3.8c.7-.1 1.2-.6 1.2-1.3" class="st15"/><path d="M327.2 356.3c0-2.5 2.1-4.6 4.6-4.6h3.8c.4 0 .8.4.8.8v11.1c0 .4-.4.8-.8.8h-3.8c-2.5 0-4.6-2.1-4.6-4.6v-3.5zm9.5 7.2v-11.1c0-.6-.5-1.1-1.2-1.1h-3.8c-2.7 0-5 2.2-5 5v3.5c0 2.7 2.2 5 5 5h3.8c.7-.1 1.2-.6 1.2-1.3z" class="st17"/><path d="M330.4 358c0-.4.3-.8.8-.8.4 0 .8.3.8.8s-.3.8-.8.8-.8-.4-.8-.8m1.9 0c0-.6-.5-1.1-1.1-1.1-.6 0-1.1.5-1.1 1.1 0 .6.5 1.1 1.1 1.1.6 0 1.1-.5 1.1-1.1" class="st15"/><path d="M330.4 358c0-.4.3-.8.8-.8.4 0 .8.3.8.8s-.3.8-.8.8-.8-.4-.8-.8zm1.9 0c0-.6-.5-1.1-1.1-1.1-.6 0-1.1.5-1.1 1.1 0 .6.5 1.1 1.1 1.1.6 0 1.1-.5 1.1-1.1z" class="st17"/><path d="M359.2 359.7c0 3.4-2.8 6.1-6.2 6.1h-6.5c-.5 0-.9-.4-.9-.9V351c0-.5.4-.9.9-.9h6.5c3.4 0 6.2 2.8 6.2 6.2v3.4zm-13.9-8.7v13.9c0 .7.6 1.3 1.3 1.3h6.5c3.6 0 6.5-2.9 6.5-6.5v-3.5c0-3.6-2.9-6.5-6.5-6.5h-6.5c-.8.1-1.3.6-1.3 1.3" class="st15"/><path d="M359.2 359.7c0 3.4-2.8 6.1-6.2 6.1h-6.5c-.5 0-.9-.4-.9-.9V351c0-.5.4-.9.9-.9h6.5c3.4 0 6.2 2.8 6.2 6.2v3.4zm-13.9-8.7v13.9c0 .7.6 1.3 1.3 1.3h6.5c3.6 0 6.5-2.9 6.5-6.5v-3.5c0-3.6-2.9-6.5-6.5-6.5h-6.5c-.8.1-1.3.6-1.3 1.3z" class="st17"/><path d="M357.7 359.7c0 2.5-2.1 4.6-4.6 4.6h-3.8c-.4 0-.8-.4-.8-.8v-11.1c0-.4.4-.8.8-.8h3.8c2.5 0 4.6 2.1 4.6 4.6v3.5zm-9.6-7.2v11.1c0 .6.5 1.1 1.2 1.1h3.8c2.7 0 5-2.2 5-5v-3.5c0-2.7-2.2-5-5-5h-3.8c-.7.1-1.2.6-1.2 1.3" class="st15"/><path d="M357.7 359.7c0 2.5-2.1 4.6-4.6 4.6h-3.8c-.4 0-.8-.4-.8-.8v-11.1c0-.4.4-.8.8-.8h3.8c2.5 0 4.6 2.1 4.6 4.6v3.5zm-9.6-7.2v11.1c0 .6.5 1.1 1.2 1.1h3.8c2.7 0 5-2.2 5-5v-3.5c0-2.7-2.2-5-5-5h-3.8c-.7.1-1.2.6-1.2 1.3z" class="st17"/><path d="M354.5 358c0 .4-.3.8-.8.8-.4 0-.8-.3-.8-.8 0-.4.3-.8.8-.8.4 0 .8.4.8.8m-1.9 0c0 .6.5 1.1 1.1 1.1.6 0 1.1-.5 1.1-1.1s-.5-1.1-1.1-1.1c-.6 0-1.1.5-1.1 1.1" class="st15"/><path d="M354.5 358c0 .4-.3.8-.8.8-.4 0-.8-.3-.8-.8 0-.4.3-.8.8-.8.4 0 .8.4.8.8zm-1.9 0c0 .6.5 1.1 1.1 1.1.6 0 1.1-.5 1.1-1.1s-.5-1.1-1.1-1.1c-.6 0-1.1.5-1.1 1.1z" class="st17"/><path d="M606.8 258.5c-3.4 0-6.2-2.8-6.2-6.2v-6.5c0-.5.4-.9.9-.9h13.9c.5 0 .9.4.9.9v6.5c0 3.4-2.8 6.2-6.2 6.2h-3.3zm8.7-14h-13.9c-.7 0-1.3.6-1.3 1.3v6.5c0 3.6 2.9 6.5 6.5 6.5h3.5c3.6 0 6.5-2.9 6.5-6.5v-6.5c0-.7-.6-1.3-1.3-1.3" class="st15"/><path d="M606.8 258.5c-3.4 0-6.2-2.8-6.2-6.2v-6.5c0-.5.4-.9.9-.9h13.9c.5 0 .9.4.9.9v6.5c0 3.4-2.8 6.2-6.2 6.2h-3.3zm8.7-14h-13.9c-.7 0-1.3.6-1.3 1.3v6.5c0 3.6 2.9 6.5 6.5 6.5h3.5c3.6 0 6.5-2.9 6.5-6.5v-6.5c0-.7-.6-1.3-1.3-1.3z" class="st17"/><path d="M606.8 256.9c-2.5 0-4.6-2.1-4.6-4.6v-3.8c0-.4.4-.8.8-.8h11.1c.4 0 .8.4.8.8v3.8c0 2.5-2.1 4.6-4.6 4.6h-3.5zm7.3-9.5H603c-.6 0-1.1.5-1.1 1.2v3.8c0 2.7 2.2 5 5 5h3.5c2.7 0 5-2.2 5-5v-3.8c-.1-.7-.6-1.2-1.3-1.2" class="st15"/><path d="M606.8 256.9c-2.5 0-4.6-2.1-4.6-4.6v-3.8c0-.4.4-.8.8-.8h11.1c.4 0 .8.4.8.8v3.8c0 2.5-2.1 4.6-4.6 4.6h-3.5zm7.3-9.5H603c-.6 0-1.1.5-1.1 1.2v3.8c0 2.7 2.2 5 5 5h3.5c2.7 0 5-2.2 5-5v-3.8c-.1-.7-.6-1.2-1.3-1.2z" class="st17"/><path d="M608.6 253.7c-.4 0-.8-.3-.8-.8 0-.4.3-.8.8-.8.4 0 .8.3.8.8-.1.5-.4.8-.8.8m0-1.9c-.6 0-1.1.5-1.1 1.1 0 .6.5 1.1 1.1 1.1.6 0 1.1-.5 1.1-1.1 0-.6-.5-1.1-1.1-1.1" class="st15"/><path d="M608.6 253.7c-.4 0-.8-.3-.8-.8 0-.4.3-.8.8-.8.4 0 .8.3.8.8-.1.5-.4.8-.8.8zm0-1.9c-.6 0-1.1.5-1.1 1.1 0 .6.5 1.1 1.1 1.1.6 0 1.1-.5 1.1-1.1 0-.6-.5-1.1-1.1-1.1z" class="st17"/><path d="M136 55.2h6.6v27.4H136zm0 48.4h6.6v142.8H136zm0 171.5h6.6v222H136zm-94.6-63.5h70.4v5.1H41.4zM39.5 266H104v3.1H39.5zm0 27.3h71.9v5.6H39.5z" class="st5"/><path d="M137.7 293.3h20.2v5.6h-20.2z" class="st5"/><path d="M139.6 293.3h103.1v5.6H139.6zm98.3-245.9h5.6v212.1h-5.6zm0 292.9h5.6V460h-5.6z" class="st5"/><path d="M237.9 284.6h5.6v33.9h-5.6zm0 200.9h5.6v24.9h-5.6zm-71.2-256.3h74.7v5.6h-74.7zM101 215.4h3.1v17.4H101zm0 33.6h3.1v27H101zM225.9 29.7h17.6v72.8h-17.6z" class="st5"/><path d="M45.7 462.9h83.2v2.9H45.7z" class="st4"/><path d="M117.7 462.9h83.2v2.9h-83.2zm107 0h71.1v2.9h-71.1zm-179-9.6h78.6v9.5H45.7z" class="st4"/><path d="M120.2 453.3h78.6v9.5h-78.6zm102.4 0h71.1v9.5h-71.1z" class="st4"/><path d="M34.8 462.5h26.7v3.7H34.8zm102 0h26.7v3.7h-26.7zm103.8 0h31v3.7h-31zm104.6 0h26.7v3.7h-26.7zm95.2 0h26.7v3.7h-26.7zm101.2 0h26.7v3.7h-26.7z" class="st5"/><path d="M217.9 462.5h26.7v3.7h-26.7zm94.4 0h35.3v3.7h-35.3zm100.4 0h32.8v3.7h-32.8zm108.8 0h26.7v3.7h-26.7zm101.2 0h26.7v3.7h-26.7zm-506.8 0h26.7v3.7h-26.7zm-81.1-9.6H59v10.9H34.8z" class="st5"/><path d="M136.8 452.9H161v10.9h-24.2zm103.9 0h28.4v10.9h-28.4zm104.5 0h24.2v10.9h-24.2zm95.2 0h24.2v10.9h-24.2zm101.2 0h24.2v10.9h-24.2z" class="st5"/><path d="M220.4 452.9h24.2v10.9h-24.2zm94.4 0h32.8v10.9h-32.8zm100.4 0h28.7v10.9h-28.7zm108.8 0h24.2v10.9H524zm101.2 0h24.2v10.9h-24.2zm-506.8 0h24.2v10.9h-24.2z" class="st5"/><path d="M587.1 100.5h49.3v2.9h-49.3zm-102 0h49.3v2.9h-49.3zm104.7 3h46.5v9.5h-46.5zm-101.9 0h46.5v9.5h-46.5z" class="st4"/><path d="M620.5 100.1h26.7v3.7h-26.7zm-101.2 0H546v3.7h-26.7zm-76.4 0h26.7v3.7h-26.7z" class="st5"/><path d="M544.3 100.1H571v3.7h-26.7zM439.4 229.6h78v4.9h-78zm132.7-18.3h75.2v4.9h-75.2zm10.4 30.4h64v2.7h-64zm-10.7 52.2h74.7v5.1h-74.7zm-29.1-19.3h5.1v223.5h-5.1zm0-164.3h5.1v136.6h-5.1z" class="st5"/><path d="M440.9 293.9h106.9v5.1H440.9zm140.3-60.1h2.7v26.9h-2.7zm0 43.2h2.7v19.6h-2.7zM442.8 100.8H467v12.6h-24.2zm180.2 1.7h24.2v10.9H623z" class="st5"/><path d="M643.4 68.3h6.4v397.8h-6.4zm-121.6 34.2H546v10.9h-24.2z" class="st5"/><path d="M544.3 102.5h24.2v10.9h-24.2zM440.9 341.4h6v114.4h-6zm0-59.9h6v36.1h-6zm-78.4-48h4.7v12.2h-4.7zm10.1 0h4.7v12.2h-4.7z" class="st5"/><path d="M365 241h28.4v4.7H365z" class="st5"/><path d="M382.6 233.5h4.7v12.2h-4.7zm10.1 0h4.7v17.8h-4.7zm15.2 0h4.7v17.8h-4.7z" class="st5"/><path d="M395.2 246.5H443v4.7h-47.8z" class="st5"/><path d="M437.3 243.9h5.6v4.7h-5.6z" class="st5"/><path d="M440.4 232h6.5v30h-6.5zm-100.7 64.4h5.4v214.8h-5.4zm-58.6-5.4h12.2v7.8h-12.2zm-38.7 0h13.3v7.8h-13.3z" class="st5"/><path d="M315.6 291H343v7.8h-27.4z" class="st5"/><path d="M341.8 291h27.4v7.8h-27.4zm49.5 0h11.2v7.8h-11.2zm36.8 0h15v7.8h-15zm-141.9 3.9h37.4v3.9h-37.4z" class="st5"/><path d="M344.5 294.9h53.2v3.9h-53.2z" class="st5"/><defs><path id="SVGID_11_" d="M30.2 29.7h619.6v481.6H30.2z"/></defs><clipPath id="SVGID_12_"><use xlink:href="#SVGID_11_" style="overflow:visible"/></clipPath><path d="M545.4 55.7V60l104 14.3V70z" style="clip-path:url(#SVGID_12_);fill:none;stroke:#39373a;stroke-width:.803"/><path d="M640.1 244.4h4.4v52.1h-4.4z" class="st5"/><path d="M560.8 462.9h72.7v2.9h-72.7zm-77.4 0h72.7v2.9h-72.7zm-141.4 43h101.4v3.1H342z" class="st4"/><path d="M241.1 505.9h101.4v3.1H241.1zm148.1-43h72.7v2.9h-72.7zm175.7-9.6h68.7v9.5h-68.7zm-79.1 0h68.7v9.5h-68.7zm-94.2 0h68.7v9.5h-68.7z" class="st4"/><defs><path id="SVGID_13_" d="M30.2 29.7h619.6v481.6H30.2z"/></defs><clipPath id="SVGID_14_"><use xlink:href="#SVGID_13_" style="overflow:visible"/></clipPath><path d="M141.1 492.4v4.3l99.1 13.3v-4.3zm405.8 0v4.3l-101 13.7v-4.3z" style="clip-path:url(#SVGID_14_);stroke-width:.803;fill:none;stroke:#39373a"/><path d="M440.9 485.5h6v25.7h-6z" class="st5"/><path d="M457.6 220.2h25.7v9.4h-25.7z" class="st4"/><path d="M457.6 220.2h25.7v1.5h-25.7zm1.5 1.6.7 6.1h15.1l.8-6.1m.9 0 .9 6.1h3.1l.8-6.1" class="st4"/><path d="M634 216.5h9v24.8h-9z" class="st20"/><path d="M634 216.5h1.4v24.8H634zm1.6 23.3 5.8-.6v-14.5l-5.8-.9m-.1-.9 5.9-.8v-3l-5.9-.8m-204 132.2h9v24.8h-9z" class="st20"/><path d="M439 350.5h1.4v24.8H439zm-.1 1.5-5.8.6v14.6l5.8.8m.1.9-5.9.8v3l5.9.8m-93.5-74.3h9V324h-9z" class="st20"/><path d="M353.1 299.2h1.4V324h-1.4zm-.1 1.5-5.8.6v14.5l5.8.9m0 .9-5.8.8v3l5.8.8m-22.7-23h9V324h-9z" class="st20"/><path d="M337.8 299.2h1.4V324h-1.4zm-.1 1.5-5.8.6v14.5l5.8.9m.1.9-5.9.8v3l5.9.8M243.9 350h9v24.8h-9z" class="st20"/><path d="M251.4 350h1.4v24.8h-1.4zm-.1 1.5-5.8.6v14.5l5.8.9m.1.9-5.9.8v3l5.9.8" class="st20"/><path d="M41.8 269.4h8.6V293h-8.6z" class="st21"/><path d="M49 269.4h1.4V293H49zm-.1 1.4-5.6.6v13.8l5.6.8m0 .9-5.6.8v2.9l5.6.7m-7.1 8h8.6v23.6h-8.6z" class="st21"/><path d="M49 299.3h1.4v23.6H49zm-.1 1.4-5.6.7v13.8l5.6.8m0 .8-5.6.8v2.9l5.6.7" class="st21"/><path d="M67.6 299.4H51.2v16.4h16.4v-16.4zm-16.7-.3H68v17.1H50.9v-17.1z" class="st5"/><path d="M67.6 299.4H51.2v16.4h16.4v-16.4zm-16.7-.3H68v17.1H50.9v-17.1z" class="st22"/><defs><path id="SVGID_15_" d="M30.2 29.7h619.6v481.6H30.2z"/></defs><clipPath id="SVGID_16_"><use xlink:href="#SVGID_15_" style="overflow:visible"/></clipPath><path d="M65.2 314.4c.4 0 .7-.3.7-.7V305c0-.4-.3-.7-.7-.7H53.7c-.4 0-.7.3-.7.7v8.6c0 .4.3.7.7.7h11.5zm-11.5-10.5h11.5c.6 0 1.1.5 1.1 1.1v8.6c0 .6-.5 1.1-1.1 1.1H53.7c-.6 0-1.1-.5-1.1-1.1V305c0-.6.5-1.1 1.1-1.1" style="clip-path:url(#SVGID_16_);fill:#39373a"/><path d="M65.2 314.4c.4 0 .7-.3.7-.7V305c0-.4-.3-.7-.7-.7H53.7c-.4 0-.7.3-.7.7v8.6c0 .4.3.7.7.7h11.5zm-11.5-10.5h11.5c.6 0 1.1.5 1.1 1.1v8.6c0 .6-.5 1.1-1.1 1.1H53.7c-.6 0-1.1-.5-1.1-1.1V305c0-.6.5-1.1 1.1-1.1z" style="clip-path:url(#SVGID_16_);fill:none;stroke:#39373a;stroke-width:.253"/><path d="M64.6 305.5H54.2v7.5h10.4v-7.5zm-10.7-.3H65v8.3H53.9v-8.3z" class="st5"/><path d="M64.6 305.5H54.2v7.5h10.4v-7.5zm-10.7-.3H65v8.3H53.9v-8.3z" class="st22"/><defs><path id="SVGID_17_" d="M30.2 29.7h619.6v481.6H30.2z"/></defs><clipPath id="SVGID_18_"><use xlink:href="#SVGID_17_" style="overflow:visible"/></clipPath><path d="M59.4 310.8c.5 0 1-.4 1-1 0-.5-.4-1-1-1-.5 0-1 .4-1 1 .1.5.5 1 1 1m0-2.3c.7 0 1.3.6 1.3 1.3s-.6 1.3-1.3 1.3c-.7 0-1.3-.6-1.3-1.3s.6-1.3 1.3-1.3" style="clip-path:url(#SVGID_18_);fill:#39373a"/><path d="M59.4 310.8c.5 0 1-.4 1-1 0-.5-.4-1-1-1-.5 0-1 .4-1 1 .1.5.5 1 1 1zm0-2.3c.7 0 1.3.6 1.3 1.3s-.6 1.3-1.3 1.3c-.7 0-1.3-.6-1.3-1.3s.6-1.3 1.3-1.3z" style="clip-path:url(#SVGID_18_);fill:none;stroke:#39373a;stroke-width:.253"/><path d="M339.2 386.2h-16.4v16.4h16.4v-16.4zm.3 16.8h-17.1v-17.1h17.1V403z" class="st5"/><path d="M339.2 386.2h-16.4v16.4h16.4v-16.4zm.3 16.8h-17.1v-17.1h17.1V403z" class="st22"/><defs><path id="SVGID_19_" d="M30.2 29.7h619.6v481.6H30.2z"/></defs><clipPath id="SVGID_20_"><use xlink:href="#SVGID_19_" style="overflow:visible"/></clipPath><path d="M324.3 400.1c0 .4.3.7.7.7h8.6c.4 0 .7-.3.7-.7v-11.5c0-.4-.3-.7-.7-.7H325c-.4 0-.7.3-.7.7v11.5zm10.4-11.5v11.5c0 .6-.5 1.1-1.1 1.1H325c-.6 0-1.1-.5-1.1-1.1v-11.5c0-.6.5-1.1 1.1-1.1h8.6c.6 0 1.1.5 1.1 1.1" style="clip-path:url(#SVGID_20_);fill:#39373a"/><path d="M324.3 400.1c0 .4.3.7.7.7h8.6c.4 0 .7-.3.7-.7v-11.5c0-.4-.3-.7-.7-.7H325c-.4 0-.7.3-.7.7v11.5zm10.4-11.5v11.5c0 .6-.5 1.1-1.1 1.1H325c-.6 0-1.1-.5-1.1-1.1v-11.5c0-.6.5-1.1 1.1-1.1h8.6c.6 0 1.1.5 1.1 1.1z" style="clip-path:url(#SVGID_20_);fill:none;stroke:#39373a;stroke-width:.253"/><path d="M333.1 389.2h-7.5v10.4h7.5v-10.4zm.3 10.8h-8.3v-11.1h8.3V400z" class="st5"/><path d="M333.1 389.2h-7.5v10.4h7.5v-10.4zm.3 10.8h-8.3v-11.1h8.3V400z" class="st22"/><defs><path id="SVGID_21_" d="M30.2 29.7h619.6v481.6H30.2z"/></defs><clipPath id="SVGID_22_"><use xlink:href="#SVGID_21_" style="overflow:visible"/></clipPath><path d="M327.8 394.4c0 .5.4 1 1 1 .5 0 1-.4 1-1 0-.5-.4-1-1-1-.5 0-1 .5-1 1m2.3 0c0 .7-.6 1.3-1.3 1.3-.7 0-1.3-.6-1.3-1.3s.6-1.3 1.3-1.3c.7 0 1.3.6 1.3 1.3" style="clip-path:url(#SVGID_22_);fill:#39373a"/><path d="M327.8 394.4c0 .5.4 1 1 1 .5 0 1-.4 1-1 0-.5-.4-1-1-1-.5 0-1 .5-1 1zm2.3 0c0 .7-.6 1.3-1.3 1.3-.7 0-1.3-.6-1.3-1.3s.6-1.3 1.3-1.3c.7 0 1.3.6 1.3 1.3z" style="clip-path:url(#SVGID_22_);fill:none;stroke:#39373a;stroke-width:.253"/><path d="M344.8 402.6h16.4v-16.4h-16.4v16.4zm-.3-16.8h17.1V403h-17.1v-17.2z" class="st5"/><path d="M344.8 402.6h16.4v-16.4h-16.4v16.4zm-.3-16.8h17.1V403h-17.1v-17.2z" class="st22"/><defs><path id="SVGID_23_" d="M30.2 29.7h619.6v481.6H30.2z"/></defs><clipPath id="SVGID_24_"><use xlink:href="#SVGID_23_" style="overflow:visible"/></clipPath><path d="M359.8 388.6c0-.4-.3-.7-.7-.7h-8.6c-.4 0-.7.3-.7.7v11.5c0 .4.3.7.7.7h8.6c.4 0 .7-.3.7-.7v-11.5zm-10.5 11.5v-11.5c0-.6.5-1.1 1.1-1.1h8.6c.6 0 1.1.5 1.1 1.1v11.5c0 .6-.5 1.1-1.1 1.1h-8.6c-.6 0-1.1-.5-1.1-1.1" style="clip-path:url(#SVGID_24_);fill:#39373a"/><path d="M359.8 388.6c0-.4-.3-.7-.7-.7h-8.6c-.4 0-.7.3-.7.7v11.5c0 .4.3.7.7.7h8.6c.4 0 .7-.3.7-.7v-11.5zm-10.5 11.5v-11.5c0-.6.5-1.1 1.1-1.1h8.6c.6 0 1.1.5 1.1 1.1v11.5c0 .6-.5 1.1-1.1 1.1h-8.6c-.6 0-1.1-.5-1.1-1.1z" style="clip-path:url(#SVGID_24_);fill:none;stroke:#39373a;stroke-width:.253"/><path d="M350.9 399.6h7.5v-10.4h-7.5v10.4zm-.3-10.8h8.3V400h-8.3v-11.2z" class="st5"/><path d="M350.9 399.6h7.5v-10.4h-7.5v10.4zm-.3-10.8h8.3V400h-8.3v-11.2z" class="st22"/><defs><path id="SVGID_25_" d="M30.2 29.7h619.6v481.6H30.2z"/></defs><clipPath id="SVGID_26_"><use xlink:href="#SVGID_25_" style="overflow:visible"/></clipPath><path d="M356.2 394.4c0-.5-.4-1-1-1-.5 0-1 .4-1 1 0 .5.4 1 1 1 .5-.1 1-.5 1-1m-2.3 0c0-.7.6-1.3 1.3-1.3.7 0 1.3.6 1.3 1.3s-.6 1.3-1.3 1.3c-.7 0-1.3-.6-1.3-1.3" style="clip-path:url(#SVGID_26_);fill:#39373a"/><path d="M356.2 394.4c0-.5-.4-1-1-1-.5 0-1 .4-1 1 0 .5.4 1 1 1 .5-.1 1-.5 1-1zm-2.3 0c0-.7.6-1.3 1.3-1.3.7 0 1.3.6 1.3 1.3s-.6 1.3-1.3 1.3c-.7 0-1.3-.6-1.3-1.3z" style="clip-path:url(#SVGID_26_);fill:none;stroke:#39373a;stroke-width:.253"/><path d="M447.3 219.3h16.4v-16.4h-16.4v16.4zm-.3-16.8h17.1v17.1H447v-17.1z" class="st5"/><path d="M447.3 219.3h16.4v-16.4h-16.4v16.4zm-.3-16.8h17.1v17.1H447v-17.1z" class="st22"/><defs><path id="SVGID_27_" d="M30.2 29.7h619.6v481.6H30.2z"/></defs><clipPath id="SVGID_28_"><use xlink:href="#SVGID_27_" style="overflow:visible"/></clipPath><path d="M462.2 205.4c0-.4-.3-.7-.7-.7h-8.6c-.4 0-.7.3-.7.7v11.5c0 .4.3.7.7.7h8.6c.4 0 .7-.3.7-.7v-11.5zm-10.4 11.5v-11.5c0-.6.5-1.1 1.1-1.1h8.6c.6 0 1.1.5 1.1 1.1v11.5c0 .6-.5 1.1-1.1 1.1h-8.6c-.6 0-1.1-.5-1.1-1.1" style="clip-path:url(#SVGID_28_);fill:#39373a"/><path d="M462.2 205.4c0-.4-.3-.7-.7-.7h-8.6c-.4 0-.7.3-.7.7v11.5c0 .4.3.7.7.7h8.6c.4 0 .7-.3.7-.7v-11.5zm-10.4 11.5v-11.5c0-.6.5-1.1 1.1-1.1h8.6c.6 0 1.1.5 1.1 1.1v11.5c0 .6-.5 1.1-1.1 1.1h-8.6c-.6 0-1.1-.5-1.1-1.1z" style="clip-path:url(#SVGID_28_);fill:none;stroke:#39373a;stroke-width:.253"/><path d="M453.4 216.3h7.5v-10.4h-7.5v10.4zm-.3-10.8h8.3v11.1h-8.3v-11.1z" class="st5"/><path d="M453.4 216.3h7.5v-10.4h-7.5v10.4zm-.3-10.8h8.3v11.1h-8.3v-11.1z" class="st22"/><defs><path id="SVGID_29_" d="M30.2 29.7h619.6v481.6H30.2z"/></defs><clipPath id="SVGID_30_"><use xlink:href="#SVGID_29_" style="overflow:visible"/></clipPath><path d="M458.7 211.1c0-.5-.4-1-1-1-.5 0-1 .4-1 1 0 .5.4 1 1 1 .5 0 1-.5 1-1m-2.3 0c0-.7.6-1.3 1.3-1.3.7 0 1.3.6 1.3 1.3 0 .7-.6 1.3-1.3 1.3-.7 0-1.3-.6-1.3-1.3" style="clip-path:url(#SVGID_30_);fill:#39373a"/><path d="M458.7 211.1c0-.5-.4-1-1-1-.5 0-1 .4-1 1 0 .5.4 1 1 1 .5 0 1-.5 1-1zm-2.3 0c0-.7.6-1.3 1.3-1.3.7 0 1.3.6 1.3 1.3 0 .7-.6 1.3-1.3 1.3-.7 0-1.3-.6-1.3-1.3z" style="clip-path:url(#SVGID_30_);fill:none;stroke:#39373a;stroke-width:.253"/><path d="M48.3 218.6s-5.7 0-5.7 5.7v34s0 5.7 5.7 5.7H56s5.7 0 5.7-5.7v-34s0-5.7-5.7-5.7h-7.7z" class="st39"/><path d="M50.1 221.7s-5.7 0-5.7 5.7v27.7s0 5.7 5.7 5.7h4.1s5.7 0 5.7-5.7v-27.7s0-5.7-5.7-5.7h-4.1z" class="st39"/><path d="M49 225.5s-2.8 0-2.8 2.8v27.8s0 2.8 2.8 2.8h6.3s2.8 0 2.8-2.8v-27.8s0-2.8-2.8-2.8H49z" class="st39"/><path d="M52.1 255.6c.5 0 .8-.4.8-.8s-.4-.8-.8-.8c-.5 0-.8.4-.8.8s.4.8.8.8z" class="st39"/><path d="M62.7 216.1v50.6" class="st40"/><defs><path id="SVGID_31_" d="M30.2 29.7h619.6v481.6H30.2z"/></defs><clipPath id="SVGID_32_"><use xlink:href="#SVGID_31_" style="overflow:visible"/></clipPath><path d="M292.5 334.4s0-5.7 5.7-5.7h34s5.7 0 5.7 5.7v7.6s0 5.7-5.7 5.7h-34s-5.7 0-5.7-5.7v-7.6z" class="st41"/><path d="M295.6 336.1s0-5.7 5.7-5.7H329s5.7 0 5.7 5.7v4.1s0 5.7-5.7 5.7h-27.7s-5.7 0-5.7-5.7v-4.1z" class="st41"/><path d="M299.4 335s0-2.8 2.8-2.8H330s2.8 0 2.8 2.8v6.3s0 2.8-2.8 2.8h-27.8s-2.8 0-2.8-2.8V335z" class="st41"/><path d="M329.5 338.2c0 .5-.4.8-.8.8s-.8-.4-.8-.8c0-.5.4-.8.8-.8s.8.3.8.8z" class="st41"/><path d="M290 348.7h50.6" class="st40"/><defs><path id="SVGID_33_" d="M30.2 29.7h619.6v481.6H30.2z"/></defs><clipPath id="SVGID_34_"><use xlink:href="#SVGID_33_" style="overflow:visible"/></clipPath><path d="M392 334.4s0-5.7-5.7-5.7h-34s-5.7 0-5.7 5.7v7.6s0 5.7 5.7 5.7h34s5.7 0 5.7-5.7v-7.6z" class="st42"/><path d="M388.8 336.1s0-5.7-5.7-5.7h-27.7s-5.7 0-5.7 5.7v4.1s0 5.7 5.7 5.7h27.7s5.7 0 5.7-5.7v-4.1z" class="st42"/><path d="M385 335s0-2.8-2.8-2.8h-27.8s-2.8 0-2.8 2.8v6.3s0 2.8 2.8 2.8h27.8s2.8 0 2.8-2.8V335z" class="st42"/><path d="M355 338.2c0 .5.4.8.8.8s.8-.4.8-.8c0-.5-.4-.8-.8-.8s-.8.3-.8.8z" class="st42"/><path d="M394.5 348.7h-50.6" class="st40"/><path d="M64.4 213.7h16.7v20.9H64.4z" style="fill:none;stroke:#39373a;stroke-width:.681"/><path d="M243.9 234.5h17.8v10.8h-17.8z" class="st20"/><path d="M261.7 233.8h4.3v11.9h-4.3zm17.5 0h4.3v11.9h-4.3z" class="st5"/><path d="M263.9 241.8h17.5v3.9h-17.5z" class="st5"/><path d="M247.5 236.9h12.4v5.9h-12.4z" class="st20"/><path d="m430.5 172.5-39.9-66.2m0 66.2 39.9-66.2m-39.9.3h40.1v66.1h-40.1zm40.2 112.8-40.3-33.6m0 33.6 40.3-33.6m-40.2 0h40.1v33.6h-40.1z" class="st4"/><path d="m345.5 219.9-.7-1.3-20.1 12.1.8 1.3zm5.2 4.7.7-1.3 13.5 7.4v2z" style="stroke-width:.667;fill:none;stroke:#39373a"/><defs><path id="SVGID_35_" d="M30.2 29.7h619.6v481.6H30.2z"/></defs><clipPath id="SVGID_36_"><use xlink:href="#SVGID_35_" style="overflow:visible"/></clipPath><path d="M345.7 220s1.2 2.6 1.8 5c.7 2.4.8 7.7.8 7.7s.3-3.8.8-5.2c.7-2 1.7-3.2 1.7-3.2" style="clip-path:url(#SVGID_36_);fill:none;stroke:#39373a;stroke-width:.445"/><path d="m225.174 263.593 1.032-.613 13.597 22.862-1.031.613z" class="st4"/><defs><path id="SVGID_37_" d="M30.2 29.7h619.6v481.6H30.2z"/></defs><clipPath id="SVGID_38_"><use xlink:href="#SVGID_37_" style="overflow:visible"/></clipPath><path d="M226.4 262.8s2.6-1.5 7.6-2.9c4.5-1.3 9-.9 9-.9" style="clip-path:url(#SVGID_38_);fill:none;stroke:#39373a;stroke-width:.536"/><path d="m409.039 391.064 22.862-13.598.613 1.031-22.862 13.598z" class="st4"/><defs><path id="SVGID_39_" d="M30.2 29.7h619.6v481.6H30.2z"/></defs><clipPath id="SVGID_40_"><use xlink:href="#SVGID_39_" style="overflow:visible"/></clipPath><path d="M408.9 391s-1.5-2.6-2.9-7.6c-.8-2.8-1-5.6-1-7.3" style="clip-path:url(#SVGID_40_);fill:none;stroke:#39373a;stroke-width:.536"/><path d="m253.06 378.575.613-1.03 22.862 13.597-.614 1.031z" class="st4"/><defs><path id="SVGID_41_" d="M30.2 29.7h619.6v481.6H30.2z"/></defs><clipPath id="SVGID_42_"><use xlink:href="#SVGID_41_" style="overflow:visible"/></clipPath><path d="M276.8 391s1.5-2.6 2.9-7.6c.8-2.8 1-5.6 1-7.3" style="clip-path:url(#SVGID_42_);fill:none;stroke:#39373a;stroke-width:.536"/><path d="m114.944 309.29 22.862-13.598.613 1.031-22.862 13.598z" class="st4"/><defs><path id="SVGID_43_" d="M30.2 29.7h619.6v481.6H30.2z"/></defs><clipPath id="SVGID_44_"><use xlink:href="#SVGID_43_" style="overflow:visible"/></clipPath><path d="M114.8 309.2s-1.5-2.6-2.9-7.6c-.8-2.8-1-5.6-1-7.3" style="clip-path:url(#SVGID_44_);fill:none;stroke:#39373a;stroke-width:.536"/><path d="m114.974 201.013.613-1.032 22.862 13.598-.613 1.031z" class="st4"/><defs><path id="SVGID_45_" d="M30.2 29.7h619.6v481.6H30.2z"/></defs><clipPath id="SVGID_46_"><use xlink:href="#SVGID_45_" style="overflow:visible"/></clipPath><path d="M114.8 201.2s-1.5 2.6-2.9 7.6c-.8 2.8-1 5.6-1 7.3" style="clip-path:url(#SVGID_46_);fill:none;stroke:#39373a;stroke-width:.536"/><path d="m139.274 231.58 22.862-13.598.614 1.031-22.862 13.598z" class="st4"/><defs><path id="SVGID_47_" d="M30.2 29.7h619.6v481.6H30.2z"/></defs><clipPath id="SVGID_48_"><use xlink:href="#SVGID_47_" style="overflow:visible"/></clipPath><path d="M162.9 219.2s1.5 2.6 2.9 7.6c.8 2.8 1 5.6 1 7.3" style="clip-path:url(#SVGID_48_);fill:none;stroke:#39373a;stroke-width:.536"/><path d="m201.054 119.277 22.862-13.597.613 1.03-22.861 13.599z" class="st4"/><defs><path id="SVGID_49_" d="M30.2 29.7h619.6v481.6H30.2z"/></defs><clipPath id="SVGID_50_"><use xlink:href="#SVGID_49_" style="overflow:visible"/></clipPath><path d="M200.9 119.1s-1.5-2.6-2.9-7.6c-.8-2.8-1-5.6-1-7.3" style="clip-path:url(#SVGID_50_);fill:none;stroke:#39373a;stroke-width:.536"/><path d="m99.962 119.304 22.861-13.597.614 1.031-22.862 13.598z" class="st4"/><defs><path id="SVGID_51_" d="M30.2 29.7h619.6v481.6H30.2z"/></defs><clipPath id="SVGID_52_"><use xlink:href="#SVGID_51_" style="overflow:visible"/></clipPath><path d="M99.8 119.1s-1.5-2.6-2.9-7.6c-.8-2.8-1-5.6-1-7.3" style="clip-path:url(#SVGID_52_);fill:none;stroke:#39373a;stroke-width:.536"/><path d="m561.942 107.933.613-1.031 22.862 13.597-.613 1.032z" class="st4"/><defs><path id="SVGID_53_" d="M30.2 29.7h619.6v481.6H30.2z"/></defs><clipPath id="SVGID_54_"><use xlink:href="#SVGID_53_" style="overflow:visible"/></clipPath><path d="M585.6 120.3s1.5-2.6 2.9-7.6c1.3-4.5.9-9 .9-9" style="clip-path:url(#SVGID_54_);fill:none;stroke:#39373a;stroke-width:.536"/><path d="m460.019 107.89.613-1.03 22.862 13.597-.613 1.031z" class="st4"/><defs><path id="SVGID_55_" d="M30.2 29.7h619.6v481.6H30.2z"/></defs><clipPath id="SVGID_56_"><use xlink:href="#SVGID_55_" style="overflow:visible"/></clipPath><path d="M483.7 120.3s1.5-2.6 2.9-7.6c1.3-4.5.9-9 .9-9" style="clip-path:url(#SVGID_56_);fill:none;stroke:#39373a;stroke-width:.536"/><path d="m293.765 86.272 13.598-22.862 1.031.614-13.598 22.862z" class="st4"/><defs><path id="SVGID_57_" d="M30.2 29.7h619.6v481.6H30.2z"/></defs><clipPath id="SVGID_58_"><use xlink:href="#SVGID_57_" style="overflow:visible"/></clipPath><path d="M295 87s2.6 1.5 7.6 2.9c4.5 1.3 9 .9 9 .9" style="clip-path:url(#SVGID_58_);fill:none;stroke:#39373a;stroke-width:.536"/><path d="m544.842 211.922 22.862-13.597.613 1.031-22.862 13.598z" class="st4"/><defs><path id="SVGID_59_" d="M30.2 29.7h619.6v481.6H30.2z"/></defs><clipPath id="SVGID_60_"><use xlink:href="#SVGID_59_" style="overflow:visible"/></clipPath><path d="M568.5 199.5s1.5 2.6 2.9 7.6c1.3 4.5.9 9 .9 9" style="clip-path:url(#SVGID_60_);fill:none;stroke:#39373a;stroke-width:.536"/><path d="m521.738 217.648.613-1.032 22.862 13.598-.613 1.031z" class="st4"/><defs><path id="SVGID_61_" d="M30.2 29.7h619.6v481.6H30.2z"/></defs><clipPath id="SVGID_62_"><use xlink:href="#SVGID_61_" style="overflow:visible"/></clipPath><path d="M521.6 217.8s-1.5 2.6-2.9 7.6c-1.3 4.5-.9 9-.9 9" style="clip-path:url(#SVGID_62_);fill:none;stroke:#39373a;stroke-width:.536"/><path d="m544.838 298.154.613-1.032 22.862 13.598-.613 1.031z" class="st4"/><defs><path id="SVGID_63_" d="M30.2 29.7h619.6v481.6H30.2z"/></defs><clipPath id="SVGID_64_"><use xlink:href="#SVGID_63_" style="overflow:visible"/></clipPath><path d="M568.5 310.6s1.5-2.6 2.9-7.6c1.3-4.5.9-9 .9-9" style="clip-path:url(#SVGID_64_);fill:none;stroke:#39373a;stroke-width:.536"/><path d="m572.312 264.491 1.031-.613 9.304 15.642-1.031.614z" class="st4"/><defs><path id="SVGID_65_" d="M30.2 29.7h619.6v481.6H30.2z"/></defs><clipPath id="SVGID_66_"><use xlink:href="#SVGID_65_" style="overflow:visible"/></clipPath><path d="M573.6 263.8s2.6-1.5 7.6-2.9c.7-.2 1.4-.4 2.1-.5" style="clip-path:url(#SVGID_66_);fill:none;stroke:#39373a;stroke-width:.536"/><path d="m572.292 230.16 9.303-15.642 1.032.614-9.304 15.642z" class="st4"/><defs><path id="SVGID_67_" d="M30.2 29.7h619.6v481.6H30.2z"/></defs><clipPath id="SVGID_68_"><use xlink:href="#SVGID_67_" style="overflow:visible"/></clipPath><path d="M573.6 231s2.6 1.5 7.6 2.9c.7.2 1.4.4 2.1.5" style="clip-path:url(#SVGID_68_);fill:none;stroke:#39373a;stroke-width:.536"/><path d="m443.538 283.033 10.581-17.791 1.032.613-10.582 17.791z" class="st4"/><defs><path id="SVGID_69_" d="M30.2 29.7h619.6v481.6H30.2z"/></defs><clipPath id="SVGID_70_"><use xlink:href="#SVGID_69_" style="overflow:visible"/></clipPath><path d="M453.9 265.1s-2.6-1.5-7.6-2.9c-.7-.2-1.4-.4-2.1-.5" style="clip-path:url(#SVGID_70_);fill:none;stroke:#39373a;stroke-width:.536"/><path d="m394.826 370.112 10.582-17.79 1.031.613-10.581 17.79z" class="st4"/><defs><path id="SVGID_71_" d="M30.2 29.7h619.6v481.6H30.2z"/></defs><clipPath id="SVGID_72_"><use xlink:href="#SVGID_71_" style="overflow:visible"/></clipPath><path d="M405.3 352.2s-2.6-1.5-7.6-2.9c-.7-.2-1.4-.4-2.1-.5" style="clip-path:url(#SVGID_72_);fill:none;stroke:#39373a;stroke-width:.536"/><path d="m278.304 352.962 1.031-.613 10.582 17.79-1.032.614z" class="st4"/><defs><path id="SVGID_73_" d="M30.2 29.7h619.6v481.6H30.2z"/></defs><clipPath id="SVGID_74_"><use xlink:href="#SVGID_73_" style="overflow:visible"/></clipPath><path d="M279.5 352.2s2.6-1.5 7.6-2.9c.7-.2 1.4-.4 2.1-.5" style="clip-path:url(#SVGID_74_);fill:none;stroke:#39373a;stroke-width:.536"/><path d="m101.624 294.96 9.303-15.643 1.032.613-9.304 15.643z" class="st4"/><defs><path id="SVGID_75_" d="M30.2 29.7h619.6v481.6H30.2z"/></defs><clipPath id="SVGID_76_"><use xlink:href="#SVGID_75_" style="overflow:visible"/></clipPath><path d="M110.8 279.1s-2.6-1.5-7.6-2.9c-.7-.2-1.4-.4-2.1-.5" style="clip-path:url(#SVGID_76_);fill:none;stroke:#39373a;stroke-width:.536"/><path d="m101.65 230.702 1.03-.614 9.304 15.643-1.031.613z" class="st4"/><defs><path id="SVGID_77_" d="M30.2 29.7h619.6v481.6H30.2z"/></defs><clipPath id="SVGID_78_"><use xlink:href="#SVGID_77_" style="overflow:visible"/></clipPath><path d="M110.8 246.5s-2.6 1.5-7.6 2.9c-.7.2-1.4.4-2.1.5" style="clip-path:url(#SVGID_78_);fill:none;stroke:#39373a;stroke-width:.536"/><path d="m203.66 447.463.613-1.032 22.862 13.598-.613 1.031z" class="st4"/><defs><path id="SVGID_79_" d="M30.2 29.7h619.6v481.6H30.2z"/></defs><clipPath id="SVGID_80_"><use xlink:href="#SVGID_79_" style="overflow:visible"/></clipPath><path d="M203.6 447.6s-1.5 2.6-2.9 7.6c-.8 2.8-1 5.6-1 7.3" style="clip-path:url(#SVGID_80_);fill:none;stroke:#39373a;stroke-width:.536"/><path d="m227.625 336.122 13.598-22.862 1.031.614-13.597 22.862z" class="st4"/><defs><path id="SVGID_81_" d="M30.2 29.7h619.6v481.6H30.2z"/></defs><clipPath id="SVGID_82_"><use xlink:href="#SVGID_81_" style="overflow:visible"/></clipPath><path d="M228.8 336.9s2.6 1.5 7.6 2.9c2.8.8 5.6 1 7.3 1" style="clip-path:url(#SVGID_82_);fill:none;stroke:#39373a;stroke-width:.536"/><path d="m258.938 308.272 22.862-13.598.614 1.031-22.862 13.598z" class="st4"/><defs><path id="SVGID_83_" d="M30.2 29.7h619.6v481.6H30.2z"/></defs><clipPath id="SVGID_84_"><use xlink:href="#SVGID_83_" style="overflow:visible"/></clipPath><path d="M258.8 308.2s-1.5-2.6-2.9-7.6c-.8-2.8-1-5.6-1-7.3" style="clip-path:url(#SVGID_84_);fill:none;stroke:#39373a;stroke-width:.536"/><path d="m400.63 295.742.614-1.032 22.862 13.598-.613 1.031z" class="st4"/><defs><path id="SVGID_85_" d="M30.2 29.7h619.6v481.6H30.2z"/></defs><clipPath id="SVGID_86_"><use xlink:href="#SVGID_85_" style="overflow:visible"/></clipPath><path d="M424.3 308.2s1.5-2.6 2.9-7.6c.8-2.8 1-5.6 1-7.3" style="clip-path:url(#SVGID_86_);fill:none;stroke:#39373a;stroke-width:.536"/><path d="m443.272 314.688 1.032-.614 13.597 22.862-1.031.614z" class="st4"/><defs><path id="SVGID_87_" d="M30.2 29.7h619.6v481.6H30.2z"/></defs><clipPath id="SVGID_88_"><use xlink:href="#SVGID_87_" style="overflow:visible"/></clipPath><path d="M456.7 337.7s-2.6 1.5-7.6 2.9c-2.8.8-5.6 1-7.3 1" style="clip-path:url(#SVGID_88_);fill:none;stroke:#39373a;stroke-width:.536"/><path d="m298.626 447.402.613-1.03 22.862 13.597-.613 1.031z" class="st4"/><defs><path id="SVGID_89_" d="M30.2 29.7h619.6v481.6H30.2z"/></defs><clipPath id="SVGID_90_"><use xlink:href="#SVGID_89_" style="overflow:visible"/></clipPath><path d="M298.5 447.6s-1.5 2.6-2.9 7.6c-.8 2.8-1 5.6-1 7.3" style="clip-path:url(#SVGID_90_);fill:none;stroke:#39373a;stroke-width:.536"/><path d="M456.739 459.977 479.6 446.38l.613 1.031-22.862 13.598z" class="st4"/><defs><path id="SVGID_91_" d="M30.2 29.7h619.6v481.6H30.2z"/></defs><clipPath id="SVGID_92_"><use xlink:href="#SVGID_91_" style="overflow:visible"/></clipPath><path d="M480.4 447.6s1.5 2.6 2.9 7.6c.8 2.8 1 5.6 1 7.3" style="clip-path:url(#SVGID_92_);fill:none;stroke:#39373a;stroke-width:.536"/><path d="m362.538 459.976 22.862-13.598.614 1.032-22.862 13.597z" class="st4"/><defs><path id="SVGID_93_" d="M30.2 29.7h619.6v481.6H30.2z"/></defs><clipPath id="SVGID_94_"><use xlink:href="#SVGID_93_" style="overflow:visible"/></clipPath><path d="M386.2 447.6s1.5 2.6 2.9 7.6c.8 2.8 1 5.6 1 7.3" style="clip-path:url(#SVGID_94_);fill:none;stroke:#39373a;stroke-width:.536"/><path d="M40.2 349h97.5" style="fill:none;stroke:#39373a;stroke-width:1.339;stroke-dasharray:5.133,5.133"/><path d="M284.6 291.4h112.3" class="st4"/><path d="M247.4 130.5h24.5v8.3h-24.5zm26.5 0h4.2v67.3h-4.2z" class="st76"/><path d="M244.1 130.5h63.1v67.3h-63.1z" class="st76"/><path d="M247.4 138.9h24.5v8.3h-24.5zm0 8.5h24.5v8.3h-24.5zm0 8.4h24.5v8.3h-24.5zm0 8.5h24.5v8.3h-24.5zm0 8.4h24.5v8.3h-24.5zm0 8.4h24.5v8.3h-24.5zm0 8.4h24.5v8.3h-24.5zm32.7-59h24.5v8.3h-24.5zm0 8.4h24.5v8.3h-24.5zm0 8.5h24.5v8.3h-24.5zm0 8.4h24.5v8.3h-24.5zm0 8.5h24.5v8.3h-24.5zm0 8.4h24.5v8.3h-24.5zm0 8.4h24.5v8.3h-24.5zm0 8.4h24.5v8.3h-24.5zm-20.6-59.1v67.8m2-4.3-2 3.8m-2.1-3.8 2 3.8m32.7.5v-67.8m-2 4.2 2-3.7m2.1 3.7-2.1-3.7" class="st76"/><defs><path id="SVGID_95_" d="M30.2 29.7h619.6v481.6H30.2z"/></defs><clipPath id="SVGID_96_"><use xlink:href="#SVGID_95_" style="overflow:visible"/></clipPath><path d="m353.2 167.6.1 1.3h2.6l-.3.6-1.5 4.1h1.6l1.8-5.3c.1-.4-.1-.8-.6-.8h-3.7zm-1.3 4.6c-.4 0-.6.1-.6.6v.4c0 .4.1.6.6.6h.4c.4 0 .6-.1.6-.6v-.4c0-.4-.1-.6-.6-.6h-.4zm-3.6-1.2c.7 0 .8.1.8.8 0 .6-.1.8-.8.8-.7 0-.8-.1-.8-.8-.1-.6.1-.8.8-.8m0-2.4c.6 0 .7.1.7.7 0 .5-.1.7-.7.7s-.8-.1-.8-.7.2-.7.8-.7m-1.3 1.9c-.9.1-1.1.8-1.1 1.6 0 1.2.5 1.6 2.4 1.6s2.4-.5 2.4-1.6c0-.8-.2-1.5-1.1-1.6.7-.1.9-.7.9-1.4 0-1.1-.4-1.6-2.2-1.6-1.8 0-2.2.5-2.2 1.6-.1.7.2 1.3.9 1.4zm-2.2 3.2v-6.1h-1.6l-1.5.6.2 1 1.4-.3c-.1.2-.1.5-.1.7v4h1.6zm14.8-14.9H357c-.8 0-1.1.4-1.2 1.1-.1.8-.1 1.4-.2 1.7-.1.4-.4.3-.7.4l.2 1.2c1 .2 1.8-.1 2-1.1.1-.4.2-1.2.3-1.8 0-.3.2-.4.4-.4h.4v3.3h1.6v-4.4zm-5.3 0h-2.6c-.8 0-1.1.4-1.2 1.1-.1.8-.1 1.4-.2 1.7-.1.4-.4.3-.7.4l.2 1.2c1 .2 1.8-.1 2-1.1.1-.4.2-1.2.3-1.8 0-.3.1-.4.4-.4h.4v3.3h1.6v-4.4zm-7.5 1c.5 0 .7.2.7 1.2s-.1 1.2-.7 1.2c-.5 0-.7-.2-.7-1.2s.2-1.2.7-1.2m0-1.2c-1.7 0-2.4.6-2.4 2.3 0 1.7.6 2.3 2.4 2.3 1.7 0 2.3-.6 2.3-2.3.1-1.6-.6-2.3-2.3-2.3m-4.1 4.5h1.6l-1.3-2.2 1.2-2.1h-1.6l-.9 1.6-.9-1.6h-1.6l1.2 2.1-1.3 2.2h1.6l.9-1.8 1.1 1.8zm29.4-10.5v-4.4h-1.4l-1.4 2.1-.3.6c0-.3.1-.4.1-.7v-2.1h-1.4v4.4h1.4l1.4-2c.1-.2.3-.5.4-.7 0 .3-.1.5-.1.8v2h1.3zm-1.8-6.3c.1.5-.1.7-.5.7s-.6-.2-.5-.7h-1c-.1.7.5 1.4 1.5 1.4s1.6-.7 1.5-1.4h-1zm-8.3 5.3v-1h.5c.4 0 .5.1.5.5s-.1.5-.5.5h-.5zm4.6-3.4H365v4.4h1.6v-4.4zm-4.6 1.5v-1.4h-1.5v4.4c.7 0 1.2.1 2.2.1 1.3 0 1.9-.3 1.9-1.5s-.5-1.5-2.1-1.5h-.5zm-5.2 1.9v-.9h.7c.4 0 .6.1.6.4 0 .4-.1.4-.6.4h-.7zm0-1.7v-.7h.7c.4 0 .6.1.6.4 0 .3-.1.4-.5.4h-.8zm1.8.4c.7-.1 1-.4 1-1 0-.9-.5-1.2-2-1.2-1 0-1.6 0-2.3.1v4.4c.7 0 1.4.1 2.5.1 1.3 0 1.9-.2 1.9-1.1 0-.8-.3-1.2-1.1-1.3zm-6.4-1.1c.5 0 .7.2.7 1.2s-.1 1.2-.7 1.2c-.5 0-.7-.2-.7-1.2s.2-1.2.7-1.2m0-1.1c-1.7 0-2.4.6-2.4 2.3 0 1.7.6 2.3 2.4 2.3 1.7 0 2.3-.6 2.3-2.3 0-1.7-.6-2.3-2.3-2.3m-2.8 1.3v-1.2H345v1.2h1.4v3.2h1.6v-3.2h1.4zm-8.4 2.2c-.7-.1-.9-.4-.9-1.2 0-.8.2-1.1.9-1.2v2.4zm1.2-2.4c.7.1.9.4.9 1.2 0 .8-.2 1.1-.9 1.2v-2.4zm.1-2.8h-1.4v1.7c-1.7.1-2.4.8-2.4 2.3 0 1.5.6 2.1 2.4 2.3v1.5h1.4v-1.5c1.7-.1 2.4-.8 2.4-2.3 0-1.5-.7-2.1-2.4-2.3v-1.7zm-4.5 6.2v-4.4h-1.4l-1.4 2.1-.3.6c0-.3.1-.4.1-.7v-2.1h-1.4v4.4h1.4l1.4-2c.1-.2.3-.5.4-.7 0 .3-.1.5-.1.8v2h1.3zm-5.6-6.1h-2.8c-.9 0-1.4.5-1.5 1.4-.1 1.4-.2 2.2-.4 2.8-.1.4-.4.5-.9.6l.1 1.3c1.1.2 1.9-.2 2.3-1.4.2-.7.4-1.9.5-3.1 0-.3.2-.4.5-.4h.6v4.9h1.6v-6.1zM195.9 418.9c.7 0 .9.3.9 1.9 0 1.6-.2 1.9-.9 1.9s-.8-.3-.8-1.9c0-1.6.2-1.9.8-1.9m0-1.2c-1.8 0-2.5.8-2.5 3.2 0 2.4.6 3.2 2.5 3.2 1.8 0 2.5-.8 2.5-3.2 0-2.4-.6-3.2-2.5-3.2m-4.1 4.7c-.4 0-.6.1-.6.6v.4c0 .4.1.6.6.6h.4c.4 0 .6-.1.6-.6v-.4c0-.4-.1-.6-.6-.6h-.4zm-4.3-2.5c0-.7.1-1 .7-1 .7 0 .8.2.8 1.6-.3.2-.5.2-.8.2-.6 0-.7-.2-.7-.8m-1.3 3.9c.7.2 1.4.2 1.7.2 1.9 0 2.6-.5 2.6-3.2 0-2.4-.4-3.1-2.3-3.1-1.8 0-2.3.7-2.3 2.2 0 1.1.4 1.9 1.7 1.9.5 0 .9-.1 1.2-.4 0 1-.3 1.3-1.1 1.3h-1.6l.1 1.1zm-1.3.1v-6.1h-1.6l-1.5.6.2 1 1.4-.3c-.1.2-.1.5-.1.7v4h1.6zm20.8-12.1c0-.2.1-.3.4-.3h.9v.5c-.3.2-.6.3-.9.3-.3 0-.4-.1-.4-.4v-.1zm-1.2-1.7c.7 0 1.4-.1 1.9-.1s.6.1.6.5v.1h-1.4c-.9 0-1.4.4-1.4 1.1v.4c0 .8.7 1.2 1.5 1.2s1.3-.4 1.6-.8l.1.6h1.3v-2.8c0-1.3-.6-1.7-1.8-1.7-.6 0-1.7.1-2.4.2v1.3zm-.7.1V409h-4.4v1.2h1.4v3.2h1.6v-3.2h1.4zm-7.8 1.6c0-.2.1-.3.4-.3h.9v.5c-.3.2-.6.3-.9.3-.3 0-.4-.1-.4-.4v-.1zm-1.2-1.7c.7 0 1.4-.1 1.9-.1s.6.1.6.5v.1h-1.5c-.9 0-1.4.4-1.4 1.1v.4c0 .8.7 1.2 1.5 1.2s1.3-.4 1.6-.8l.2.6h1.3v-2.8c0-1.3-.6-1.7-1.8-1.7-.6 0-1.7.1-2.4.2v1.3zm-1.1-1.1h-1.6v1.5h-1.3V409h-1.6v4.4h1.6v-1.8h1.3v1.8h1.6V409zm-7.3 0c-.3 0-.5.2-.6.5l-.4 1.6c0 .2-.1.4-.1.6h-.1c0-.2 0-.4-.1-.6l-.4-1.6c-.1-.3-.3-.5-.6-.5h-1.4c-.4 0-.5.2-.6.5l-.1 3.8h1.4l.1-3.2h.1l.5 2.1c.1.3.3.5.6.5h.7c.3 0 .5-.2.6-.5l.5-2.1h.1l.1 3.2h1.4l-.1-3.8c0-.4-.2-.5-.5-.5h-1.1zm-7.3 1c.5 0 .7.2.7 1.2s-.1 1.2-.7 1.2c-.5 0-.7-.2-.7-1.2s.2-1.2.7-1.2m0-1.2c-1.7 0-2.4.6-2.4 2.3 0 1.7.6 2.3 2.4 2.3 1.7 0 2.3-.6 2.3-2.3.1-1.6-.6-2.3-2.3-2.3m-4.4 2.2c1-.1.9-.2 1.5-2.1h-1.6c-.4 1.5-.4 1.6-1 1.6h-.2c0-.2.1-.4.1-.6v-1h-1.6v4.4h1.6v-1.4c0-.1 0-.2-.1-.4h.4c.5 0 .5.1 1 1.7h1.7c-.7-1.9-.7-2-1.8-2.2zm28.2-10.6h-.6c-.4 0-.5-.1-.5-.5 0-.3.1-.4.5-.4h.6v.9zm-1.7.5c-.3 0-.7.1-.8.5l-.3 1.4h1.6l.3-1.2c0-.2.1-.3.4-.3h.6v1.4h1.5v-4.4c-.5-.1-1-.1-2.2-.1-1.6 0-2 .3-2 1.4-.1.7.1 1.2.9 1.3zm-4.7.4c0-.2.1-.3.4-.3h.9v.5c-.3.2-.6.3-.9.3-.3 0-.4-.1-.4-.4v-.1zm-1.2-1.7c.7 0 1.4-.1 1.9-.1s.6.1.6.5v.1h-1.4c-.9 0-1.4.4-1.4 1.1v.4c0 .8.7 1.2 1.5 1.2s1.3-.4 1.6-.8l.1.6h1.3V400c0-1.3-.6-1.7-1.8-1.7-.6 0-1.7.1-2.4.2v1.1zm-1.1-1.2h-2.6c-.8 0-1.1.4-1.2 1.1-.1.8-.1 1.4-.2 1.7-.1.4-.4.3-.7.4l.2 1.2c1 .2 1.8-.1 2-1.1.1-.4.2-1.2.3-1.8 0-.3.1-.4.4-.4h.4v3.3h1.6v-4.4zm-5.3 4.4v-4.4h-1.4l-1.4 2.1-.3.6c0-.3.1-.4.1-.7v-2.1h-1.4v4.4h1.4l1.4-2c.1-.2.3-.5.4-.7 0 .3-.1.5-.1.8v2h1.3zm-7.1-3.2c1.2-.2 1.2-.7 1.8-2.9H182c-.5 1.8-.7 2.4-1.2 2.4h-.3c0-.3.1-.5.1-.8v-1.6H179v1.6c0 .2 0 .5.1.8h-.3c-.6 0-.7-.5-1.2-2.4h-1.7c.6 2.2.7 2.7 1.8 2.9v.1c-1.2.2-1.3.6-2 3.1h1.7c.7-2.2.7-2.6 1.3-2.6h.3c0 .2-.1.4-.1.6v2h1.6v-2c0-.2 0-.4-.1-.6h.3c.6 0 .7.4 1.3 2.6h1.7c-.6-2.5-.7-3-1.9-3.2zm420.3-225.3v-6.1h-1.6l-1.5.6.2 1 1.4-.3c-.1.2-.1.5-.1.7v4h1.6zm-4.1-1.5c-.4 0-.6.1-.6.6v.4c0 .4.1.6.6.6h.4c.4 0 .6-.1.6-.6v-.4c0-.4-.1-.6-.6-.6h-.4zm-5.7-3.3h1.9c.5 0 .7 0 .7.3s-.4.9-1.1 1.6l-1.4 1.4c-.2.2-.2.4-.2.7v.9h4.5V173H595c-.3 0-.6 0-.9.1l1.5-1.5c.8-.8.9-1.2.9-1.9 0-1.2-.9-1.5-2.1-1.5-.7 0-1.3 0-2.2.2l.1 1.1zm-1.2 4.8v-6.1h-1.6l-1.5.6.2 1 1.4-.3c-.1.2-.1.5-.1.7v4h1.6zm19.8-12.1c0-.2.1-.3.4-.3h.9v.5c-.3.2-.6.3-.9.3-.3 0-.4-.1-.4-.4v-.1zm-1.2-1.7c.7 0 1.4-.1 1.9-.1s.6.1.6.5v.1h-1.4c-.9 0-1.4.4-1.4 1.1v.4c0 .8.7 1.2 1.5 1.2s1.3-.4 1.6-.8l.1.6h1.3V161c0-1.3-.6-1.7-1.8-1.7-.6 0-1.7.1-2.4.2v1zm-.7.1v-1.2h-4.4v1.2h1.4v3.2h1.6v-3.2h1.4zm-7.8 1.6c0-.2.1-.3.4-.3h.9v.5c-.3.2-.6.3-.9.3-.3 0-.4-.1-.4-.4v-.1zm-1.2-1.7c.7 0 1.4-.1 1.9-.1s.6.1.6.5v.1H601c-.9 0-1.4.4-1.4 1.1v.4c0 .8.7 1.2 1.5 1.2s1.3-.4 1.6-.8l.2.6h1.3V161c0-1.3-.7-1.7-1.8-1.7-.6 0-1.7.1-2.4.2v1zm-1.1-1.1h-1.6v1.5H596v-1.5h-1.6v4.4h1.6V162h1.3v1.8h1.6v-4.4zm-7.4 0c-.3 0-.5.2-.6.5l-.4 1.6c0 .2-.1.4-.1.6h-.1c0-.2 0-.4-.1-.6l-.4-1.6c-.1-.3-.3-.5-.6-.5h-1.4c-.4 0-.5.2-.6.5l-.1 3.8h1.4l.1-3.2h.1l.5 2.1c.1.3.3.5.6.5h.7c.3 0 .5-.2.6-.5l.5-2.1h.1l.1 3.2h1.4l-.1-3.8c0-.4-.2-.5-.5-.5h-1.1zm-7.3 1c.5 0 .7.2.7 1.2s-.1 1.2-.7 1.2c-.5 0-.7-.2-.7-1.2.1-1 .2-1.2.7-1.2m0-1.1c-1.7 0-2.4.6-2.4 2.3 0 1.7.6 2.3 2.4 2.3 1.7 0 2.3-.6 2.3-2.3.1-1.7-.5-2.3-2.3-2.3m-4.3 2.2c1-.1.9-.2 1.5-2.1h-1.6c-.4 1.5-.4 1.6-1 1.6h-.2c0-.2.1-.4.1-.6v-1H577v4.4h1.6v-1.4c0-.1 0-.2-.1-.4h.4c.5 0 .5.1 1 1.7h1.7c-.7-2-.7-2-1.7-2.2zm28.1-10.7h-.6c-.4 0-.5-.1-.5-.5 0-.3.1-.4.5-.4h.6v.9zm-1.7.6c-.3 0-.7.1-.8.5l-.3 1.4h1.6l.3-1.2c0-.2.1-.3.4-.3h.6v1.4h1.5v-4.4c-.5-.1-1-.1-2.2-.1-1.6 0-2 .3-2 1.4 0 .6.2 1.1.9 1.3zm-4.6.3c0-.2.1-.3.4-.3h.9v.5c-.3.2-.6.3-.9.3-.3 0-.4-.1-.4-.4v-.1zm-1.2-1.7c.7 0 1.4-.1 1.9-.1s.6.1.6.5v.1h-1.5c-.9 0-1.4.4-1.4 1.1v.4c0 .8.7 1.2 1.5 1.2s1.3-.4 1.6-.8l.1.6h1.3v-2.8c0-1.3-.6-1.7-1.8-1.7-.6 0-1.7.1-2.4.2l.1 1.3zm-1.1-1.1h-2.6c-.8 0-1.1.4-1.2 1.1-.1.8-.1 1.4-.2 1.7-.1.4-.4.3-.7.4l.2 1.2c1 .2 1.8-.1 2-1.1.1-.4.2-1.2.3-1.8 0-.3.1-.4.4-.4h.4v3.3h1.6v-4.4zm-5.4 4.3v-4.4h-1.4l-1.4 2.1-.3.6c0-.3.1-.4.1-.7v-2.1h-1.4v4.4h1.4l1.4-2c.1-.2.3-.5.4-.7 0 .3-.1.5-.1.8v2h1.3zm-7.1-3.2c1.2-.2 1.2-.7 1.8-2.9H587c-.5 1.8-.7 2.4-1.2 2.4h-.3c0-.3.1-.5.1-.8v-1.6H584v1.6c0 .2 0 .5.1.8h-.3c-.6 0-.7-.5-1.2-2.4H581c.6 2.2.7 2.7 1.8 2.9v.1c-1.2.2-1.3.6-2 3.1h1.7c.7-2.2.7-2.6 1.3-2.6h.3c0 .2-.1.4-.1.6v2h1.6v-2c0-.2 0-.4-.1-.6h.3c.6 0 .7.4 1.3 2.6h1.7c-.6-2.5-.6-2.9-1.9-3.2zM93.2 171c0-.7.1-1 .7-1 .7 0 .8.2.8 1.6-.3.2-.5.2-.8.2-.6 0-.7-.2-.7-.8m-1.3 3.9c.7.2 1.4.2 1.7.2 1.9 0 2.6-.5 2.6-3.2 0-2.4-.4-3.1-2.3-3.1-1.8 0-2.3.7-2.3 2.2 0 1.1.4 1.9 1.7 1.9.5 0 .9-.1 1.2-.4 0 1-.3 1.3-1.1 1.3h-1.6l.1 1.1zm-1.9-1.4c-.4 0-.6.1-.6.6v.4c0 .4.1.6.6.6h.4c.4 0 .6-.1.6-.6v-.4c0-.4-.1-.6-.6-.6H90zm-1.6 1.5v-6.1h-1.6l-1.5.6.2 1 1.4-.3c-.1.2-.1.5-.1.7v4h1.6zm-3.9 0v-6.1h-1.6l-1.5.6.2 1 1.4-.3c-.1.2-.1.5-.1.7v4h1.6zm19.9-12c0-.2.1-.3.4-.3h.9v.5c-.3.2-.6.3-.9.3-.3 0-.4-.1-.4-.4v-.1zm-1.2-1.8c.7 0 1.4-.1 1.9-.1s.6.1.6.5v.1h-1.4c-.9 0-1.4.4-1.4 1.1v.4c0 .8.7 1.2 1.5 1.2s1.3-.4 1.6-.8l.1.6h1.3v-2.8c0-1.3-.6-1.7-1.8-1.7-.6 0-1.7.1-2.4.2v1.3zm-.7.1v-1.2h-4.4v1.2h1.4v3.2h1.6v-3.2h1.4zm-7.8 1.7c0-.2.1-.3.4-.3h.9v.5c-.3.2-.6.3-.9.3-.3 0-.4-.1-.4-.4v-.1zm-1.2-1.8c.7 0 1.4-.1 1.9-.1s.6.1.6.5v.1h-1.5c-.9 0-1.4.4-1.4 1.1v.4c0 .8.7 1.2 1.5 1.2s1.3-.4 1.6-.8l.2.6h1.3v-2.8c0-1.3-.6-1.7-1.8-1.7-.6 0-1.7.1-2.4.2v1.3zm-1.1-1.1h-1.6v1.5h-1.3v-1.5H88v4.4h1.6v-1.8h1.3v1.8h1.6v-4.4zm-7.3 0c-.3 0-.5.2-.6.5l-.4 1.6c0 .2-.1.4-.1.6h-.1c0-.2 0-.4-.1-.6l-.4-1.6c-.1-.3-.3-.5-.6-.5h-1.4c-.4 0-.5.2-.6.5l-.1 3.8h1.4l.1-3.2h.1l.5 2.1c.1.3.3.5.6.5h.7c.3 0 .5-.2.6-.5l.5-2.1h.1l.1 3.2h1.4l-.1-3.8c0-.4-.2-.5-.5-.5h-1.1zm-7.3 1c.5 0 .7.2.7 1.2s-.1 1.2-.7 1.2c-.5 0-.7-.2-.7-1.2s.2-1.2.7-1.2m0-1.1c-1.7 0-2.4.6-2.4 2.3 0 1.7.6 2.3 2.4 2.3 1.7 0 2.3-.6 2.3-2.3 0-1.7-.6-2.3-2.3-2.3m-4.4 2.2c1-.1.9-.2 1.5-2.1h-1.6c-.4 1.5-.4 1.6-1 1.6h-.2c0-.2.1-.4.1-.6v-1h-1.6v4.4h1.6v-1.4c0-.1 0-.2-.1-.4h.4c.5 0 .5.1 1 1.7h1.7c-.7-2-.7-2-1.8-2.2zm28.2-10.7h-.6c-.4 0-.5-.1-.5-.5 0-.3.1-.4.5-.4h.6v.9zm-1.7.6c-.3 0-.7.1-.8.5l-.3 1.4h1.6l.3-1.2c0-.2.1-.3.4-.3h.6v1.4h1.5v-4.4c-.5-.1-1-.1-2.2-.1-1.6 0-2 .3-2 1.4-.1.6.1 1.1.9 1.3zm-4.7.3c0-.2.1-.3.4-.3h.9v.5c-.3.2-.6.3-.9.3-.3 0-.4-.1-.4-.4v-.1zm-1.2-1.7c.7 0 1.4-.1 1.9-.1s.6.1.6.5v.1h-1.4c-.9 0-1.4.4-1.4 1.1v.4c0 .8.7 1.2 1.5 1.2s1.3-.4 1.6-.8l.1.6h1.3v-2.8c0-1.3-.6-1.7-1.8-1.7-.6 0-1.7.1-2.4.2v1.3zm-1.1-1.1h-2.6c-.8 0-1.1.4-1.2 1.1-.1.8-.1 1.4-.2 1.7-.1.4-.4.3-.7.4l.2 1.2c1 .2 1.8-.1 2-1.1.1-.4.2-1.2.3-1.8 0-.3.1-.4.4-.4h.4v3.3h1.6v-4.4zm-5.3 4.3v-4.4h-1.4l-1.4 2.1-.3.6c0-.3.1-.4.1-.7v-2.1h-1.4v4.4h1.4l1.4-2c.1-.2.3-.5.4-.7 0 .3-.1.5-.1.8v2h1.3zm-7.1-3.2c1.2-.2 1.2-.7 1.8-2.9h-1.7c-.5 1.8-.6 2.4-1.2 2.4h-.3c0-.3.1-.5.1-.8v-1.6h-1.6v1.6c0 .2 0 .5.1.8h-.3c-.6 0-.7-.5-1.2-2.4h-1.7c.6 2.2.7 2.7 1.8 2.9v.1c-1.2.2-1.3.6-2 3.1H76c.7-2.2.7-2.6 1.3-2.6h.3c0 .2-.1.4-.1.6v2h1.6v-2c0-.2 0-.4-.1-.6h.3c.6 0 .7.4 1.3 2.6h1.7c-.5-2.5-.6-2.9-1.8-3.2zM194 206.5h1.9c.5 0 .7 0 .7.3s-.4.9-1.1 1.6l-1.4 1.4c-.2.2-.2.4-.2.7v.9h4.5V210h-1.7c-.3 0-.6 0-.9.1l1.5-1.5c.8-.8.9-1.2.9-1.9 0-1.2-.9-1.5-2.1-1.5-.7 0-1.3 0-2.2.2l.1 1.1zm-1.7 3.2c-.4 0-.6.1-.6.6v.4c0 .4.1.6.6.6h.4c.4 0 .6-.1.6-.6v-.4c0-.4-.1-.6-.6-.6h-.4zm-1.2-.9h-.7v-2.5h-1.2l-.3.9v1.6h-1.2c-.1 0-.2-.1-.2-.3l1.3-3.4h-1.5l-1.5 3.8c-.2.5.1.9.6.9h2.4v1.3h1.5v-1.3l.7-.2v-.8zm-6.2 2.4v-6.1h-1.6l-1.5.6.2 1 1.4-.3c-.1.2-.1.5-.1.7v4h1.6zm20.8-12c0-.2.1-.3.4-.3h.9v.5c-.3.2-.6.3-.9.3-.3 0-.4-.1-.4-.4v-.1zm-1.2-1.8c.7 0 1.4-.1 1.9-.1s.6.1.6.5v.1h-1.4c-.9 0-1.4.4-1.4 1.1v.4c0 .8.7 1.2 1.5 1.2s1.3-.4 1.6-.8l.1.6h1.3v-2.8c0-1.3-.6-1.7-1.8-1.7-.6 0-1.7.1-2.4.2v1.3zm-.7.1v-1.2h-4.4v1.2h1.4v3.2h1.6v-3.2h1.4zm-7.8 1.7c0-.2.1-.3.4-.3h.9v.5c-.3.2-.6.3-.9.3-.3 0-.4-.1-.4-.4v-.1zm-1.2-1.8c.7 0 1.4-.1 1.9-.1s.6.1.6.5v.1h-1.5c-.9 0-1.4.4-1.4 1.1v.4c0 .8.7 1.2 1.5 1.2s1.3-.4 1.6-.8l.2.6h1.3v-2.8c0-1.3-.6-1.7-1.8-1.7-.6 0-1.7.1-2.4.2v1.3zm-1.1-1.1h-1.6v1.5h-1.3v-1.5h-1.6v4.4h1.6v-1.8h1.3v1.8h1.6v-4.4zm-7.3 0c-.3 0-.5.2-.6.5l-.4 1.6c0 .2-.1.4-.1.6h-.1c0-.2 0-.4-.1-.6l-.4-1.6c-.1-.3-.3-.5-.6-.5h-1.4c-.4 0-.5.2-.6.5l-.1 3.8h1.4l.1-3.2h.1l.5 2.1c.1.3.3.5.6.5h.7c.3 0 .5-.2.6-.5l.5-2.1h.1l.1 3.2h1.4l-.1-3.8c0-.4-.2-.5-.5-.5h-1.1zm-7.3 1c.5 0 .7.2.7 1.2s-.1 1.2-.7 1.2c-.5 0-.7-.2-.7-1.2s.2-1.2.7-1.2m0-1.1c-1.7 0-2.4.6-2.4 2.3 0 1.7.6 2.3 2.4 2.3 1.7 0 2.3-.6 2.3-2.3.1-1.7-.6-2.3-2.3-2.3m-4.4 2.2c1-.1.9-.2 1.5-2.1h-1.6c-.4 1.5-.4 1.6-1 1.6h-.2c0-.2.1-.4.1-.6v-1h-1.6v4.4h1.6v-1.4c0-.1 0-.2-.1-.4h.4c.5 0 .5.1 1 1.7h1.7c-.7-2-.7-2-1.8-2.2zm28.2-10.7h-.6c-.4 0-.5-.1-.5-.5 0-.3.1-.4.5-.4h.6v.9zm-1.7.6c-.3 0-.7.1-.8.5l-.3 1.4h1.6l.3-1.2c0-.2.1-.3.4-.3h.6v1.4h1.5v-4.4c-.5-.1-1-.1-2.2-.1-1.6 0-2 .3-2 1.4-.1.6.1 1.1.9 1.3zm-4.7.3c0-.2.1-.3.4-.3h.9v.5c-.3.2-.6.3-.9.3-.3 0-.4-.1-.4-.4v-.1zm-1.2-1.7c.7 0 1.4-.1 1.9-.1s.6.1.6.5v.1h-1.4c-.9 0-1.4.4-1.4 1.1v.4c0 .8.7 1.2 1.5 1.2s1.3-.4 1.6-.8l.1.6h1.3v-2.8c0-1.3-.6-1.7-1.8-1.7-.6 0-1.7.1-2.4.2v1.3zm-1.1-1.1h-2.6c-.8 0-1.1.4-1.2 1.1-.1.8-.1 1.4-.2 1.7-.1.4-.4.3-.7.4l.2 1.2c1 .2 1.8-.1 2-1.1.1-.4.2-1.2.3-1.8 0-.3.1-.4.4-.4h.4v3.3h1.6v-4.4zm-5.3 4.4v-4.4h-1.4l-1.4 2.1-.3.6c0-.3.1-.4.1-.7v-2.1h-1.4v4.4h1.4l1.4-2c.1-.2.3-.5.4-.7 0 .3-.1.5-.1.8v2h1.3zm-7.1-3.2c1.2-.2 1.2-.7 1.8-2.9H182c-.5 1.8-.7 2.4-1.2 2.4h-.3c0-.3.1-.5.1-.8v-1.6H179v1.6c0 .2 0 .5.1.8h-.3c-.6 0-.7-.5-1.2-2.4h-1.7c.6 2.2.7 2.7 1.8 2.9v.1c-1.2.2-1.3.6-2 3.1h1.7c.7-2.2.7-2.6 1.3-2.6h.3c0 .2-.1.4-.1.6v2h1.6v-2c0-.2 0-.4-.1-.6h.3c.6 0 .7.4 1.3 2.6h1.7c-.6-2.5-.7-3-1.9-3.2zm419.8 222.3c.7 0 .9.3.9 1.9 0 1.6-.2 1.9-.9 1.9s-.8-.3-.8-1.9c0-1.6.1-1.9.8-1.9m0-1.2c-1.8 0-2.5.8-2.5 3.2 0 2.4.6 3.2 2.5 3.2 1.8 0 2.5-.8 2.5-3.2 0-2.5-.7-3.2-2.5-3.2m-4.1 4.6c-.4 0-.6.1-.6.6v.4c0 .4.1.6.6.6h.4c.4 0 .6-.1.6-.6v-.4c0-.4-.1-.6-.6-.6h-.4zm-4.4-2.4c0-.7.1-1 .7-1 .7 0 .8.2.8 1.6-.3.2-.5.2-.8.2-.5 0-.7-.2-.7-.8m-1.3 3.9c.7.2 1.4.2 1.7.2 1.9 0 2.6-.5 2.6-3.2 0-2.4-.4-3.1-2.3-3.1-1.8 0-2.3.7-2.3 2.2 0 1.1.4 1.9 1.7 1.9.5 0 .9-.1 1.2-.4 0 1-.3 1.3-1.1 1.3h-1.6l.1 1.1zm-1.2 0v-6.1H589l-1.5.6.2 1 1.4-.3c-.1.2-.1.5-.1.7v4h1.6zm20.8-12c0-.2.1-.3.4-.3h.9v.5c-.3.2-.6.3-.9.3-.3 0-.4-.1-.4-.4v-.1zm-1.2-1.7c.7 0 1.4-.1 1.9-.1s.6.1.6.5v.1h-1.4c-.9 0-1.4.4-1.4 1.1v.4c0 .8.7 1.2 1.5 1.2s1.3-.4 1.6-.8l.1.6h1.3v-2.8c0-1.3-.6-1.7-1.8-1.7-.6 0-1.7.1-2.4.2v1.3zm-.7 0v-1.2h-4.4v1.2h1.4v3.2h1.6v-3.2h1.4zm-7.8 1.7c0-.2.1-.3.4-.3h.9v.5c-.3.2-.6.3-.9.3-.3 0-.4-.1-.4-.4v-.1zm-1.2-1.7c.7 0 1.4-.1 1.9-.1s.6.1.6.5v.1h-1.4c-.9 0-1.4.4-1.4 1.1v.4c0 .8.7 1.2 1.5 1.2s1.3-.4 1.6-.8l.2.6h1.3v-2.8c0-1.3-.7-1.7-1.8-1.7-.6 0-1.7.1-2.4.2l-.1 1.3zm-1.1-1.2h-1.6v1.5h-1.3v-1.5h-1.6v4.4h1.6v-1.8h1.3v1.8h1.6v-4.4zm-7.4 0c-.3 0-.5.2-.6.5l-.4 1.6c0 .2-.1.4-.1.6h-.1c0-.2 0-.4-.1-.6l-.4-1.6c-.1-.3-.3-.5-.6-.5h-1.4c-.4 0-.5.2-.6.5l-.1 3.8h1.4l.1-3.2h.1l.5 2.1c.1.3.3.5.6.5h.7c.3 0 .5-.2.6-.5l.5-2.1h.1l.1 3.2h1.4l-.1-3.8c0-.4-.2-.5-.5-.5H592zm-7.2 1c.5 0 .7.2.7 1.2s-.1 1.2-.7 1.2c-.5 0-.7-.2-.7-1.2 0-.9.1-1.2.7-1.2m0-1.1c-1.7 0-2.4.6-2.4 2.3 0 1.7.6 2.3 2.4 2.3 1.7 0 2.3-.6 2.3-2.3 0-1.7-.6-2.3-2.3-2.3m-4.4 2.2c1-.1.9-.2 1.5-2.1h-1.6c-.4 1.5-.4 1.6-1 1.6h-.2c0-.2.1-.4.1-.6v-1h-1.6v4.4h1.6v-1.4c0-.1 0-.2-.1-.4h.4c.5 0 .5.1 1 1.7h1.7c-.7-2-.8-2-1.8-2.2zm28.1-10.6h-.6c-.4 0-.5-.1-.5-.5 0-.3.1-.4.5-.4h.6v.9zm-1.7.5c-.3 0-.7.1-.8.5l-.3 1.4h1.6l.3-1.2c0-.2.1-.3.4-.3h.6v1.4h1.5v-4.4c-.5-.1-1-.1-2.2-.1-1.6 0-2 .3-2 1.4 0 .6.2 1.1.9 1.3zm-4.6.4c0-.2.1-.3.4-.3h.9v.5c-.3.2-.6.3-.9.3-.3 0-.4-.1-.4-.4v-.1zm-1.2-1.8c.7 0 1.4-.1 1.9-.1s.6.1.6.5v.1H602c-.9 0-1.4.4-1.4 1.1v.4c0 .8.7 1.2 1.5 1.2s1.3-.4 1.6-.8l.1.6h1.3v-2.8c0-1.3-.6-1.7-1.8-1.7-.6 0-1.7.1-2.4.2l.1 1.3zm-1.1-1.1h-2.6c-.8 0-1.1.4-1.2 1.1-.1.8-.1 1.4-.2 1.7-.1.4-.4.3-.7.4l.2 1.2c1 .2 1.8-.1 2-1.1.1-.4.2-1.2.3-1.8 0-.3.1-.4.4-.4h.4v3.3h1.6v-4.4zm-5.3 4.4v-4.4h-1.4l-1.4 2.1-.3.6c0-.3.1-.4.1-.7v-2.1h-1.4v4.4h1.4l1.4-2c.1-.2.3-.5.4-.7 0 .3-.1.5-.1.8v2h1.3zm-7.1-3.2c1.2-.2 1.2-.7 1.8-2.9h-1.7c-.5 1.8-.7 2.4-1.2 2.4h-.3c0-.3.1-.5.1-.8v-1.6h-1.6v1.6c0 .2 0 .5.1.8h-.3c-.6 0-.7-.5-1.2-2.4h-1.7c.6 2.2.7 2.7 1.8 2.9v.1c-1.2.2-1.3.6-2 3.1h1.7c.7-2.2.7-2.6 1.3-2.6h.3c0 .2-.1.4-.1.6v2h1.6v-2c0-.2 0-.4-.1-.6h.3c.6 0 .7.4 1.3 2.6h1.7c-.5-2.5-.6-3-1.8-3.2zm-86.7 19.3c.7 0 .9.3.9 1.9 0 1.6-.2 1.9-.9 1.9-.6 0-.8-.3-.8-1.9-.1-1.6.1-1.9.8-1.9m0-1.2c-1.8 0-2.5.8-2.5 3.2 0 2.4.6 3.2 2.5 3.2 1.8 0 2.5-.8 2.5-3.2-.1-2.5-.7-3.2-2.5-3.2m-4.2 4.6c-.4 0-.6.1-.6.6v.4c0 .4.1.6.6.6h.4c.4 0 .6-.1.6-.6v-.4c0-.4-.1-.6-.6-.6h-.4zm-4.3-2.4c0-.7.1-1 .7-1 .7 0 .8.2.8 1.6-.3.2-.5.2-.8.2-.6 0-.7-.2-.7-.8m-1.3 3.9c.7.2 1.4.2 1.7.2 1.9 0 2.6-.5 2.6-3.2 0-2.4-.4-3.1-2.3-3.1-1.8 0-2.3.7-2.3 2.2 0 1.1.4 1.9 1.7 1.9.5 0 .9-.1 1.2-.4 0 1-.3 1.3-1.1 1.3h-1.6l.1 1.1zm-1.3 0v-6.1h-1.6l-1.5.6.2 1 1.4-.3c-.1.2-.1.5-.1.7v4h1.6zm20.9-12c0-.2.1-.3.4-.3h.9v.5c-.3.2-.6.3-.9.3-.3 0-.4-.1-.4-.4v-.1zm-1.2-1.7c.7 0 1.4-.1 1.9-.1s.6.1.6.5v.1h-1.4c-.9 0-1.4.4-1.4 1.1v.4c0 .8.7 1.2 1.5 1.2s1.3-.4 1.6-.8l.1.6h1.3v-2.8c0-1.3-.6-1.7-1.8-1.7-.6 0-1.7.1-2.4.2v1.3zm-.7 0v-1.2h-4.4v1.2h1.4v3.2h1.6v-3.2h1.4zm-7.8 1.7c0-.2.1-.3.4-.3h.9v.5c-.3.2-.6.3-.9.3-.3 0-.4-.1-.4-.4v-.1zm-1.2-1.7c.7 0 1.4-.1 1.9-.1s.6.1.6.5v.1h-1.5c-.9 0-1.4.4-1.4 1.1v.4c0 .8.7 1.2 1.5 1.2s1.3-.4 1.6-.8l.1.6h1.3v-2.8c0-1.3-.6-1.7-1.8-1.7-.6 0-1.7.1-2.4.2l.1 1.3zm-1.1-1.2H497v1.5h-1.3v-1.5h-1.6v4.4h1.6v-1.8h1.3v1.8h1.6v-4.4zm-7.4 0c-.3 0-.5.2-.6.5l-.4 1.6c0 .2-.1.4-.1.6h-.1c0-.2 0-.4-.1-.6l-.4-1.6c-.1-.3-.3-.5-.6-.5h-1.4c-.4 0-.5.2-.6.5l-.1 3.8h1.4l.1-3.2h.1l.5 2.1c.1.3.3.5.6.5h.7c.3 0 .5-.2.6-.5l.5-2.1h.1l.1 3.2h1.4l-.1-3.8c0-.4-.2-.5-.5-.5h-1.1zm-7.3 1c.5 0 .7.2.7 1.2s-.1 1.2-.7 1.2c-.5 0-.7-.2-.7-1.2 0-.9.2-1.2.7-1.2m0-1.1c-1.7 0-2.4.6-2.4 2.3 0 1.7.6 2.3 2.4 2.3 1.7 0 2.3-.6 2.3-2.3.1-1.7-.6-2.3-2.3-2.3m-4.3 2.2c1-.1.9-.2 1.5-2.1h-1.6c-.4 1.5-.4 1.6-1 1.6h-.2c0-.2.1-.4.1-.6v-1h-1.6v4.4h1.6v-1.4c0-.1 0-.2-.1-.4h.4c.5 0 .5.1 1 1.7h1.7c-.8-2-.8-2-1.8-2.2zm28.1-10.6h-.6c-.4 0-.5-.1-.5-.5 0-.3.1-.4.5-.4h.6v.9zm-1.7.5c-.3 0-.7.1-.8.5l-.3 1.4h1.6l.3-1.2c0-.2.1-.3.4-.3h.6v1.4h1.5v-4.4c-.5-.1-1-.1-2.2-.1-1.6 0-2 .3-2 1.4 0 .6.2 1.1.9 1.3zm-4.6.4c0-.2.1-.3.4-.3h.9v.5c-.3.2-.6.3-.9.3-.3 0-.4-.1-.4-.4v-.1zm-1.2-1.8c.7 0 1.4-.1 1.9-.1s.6.1.6.5v.1h-1.4c-.9 0-1.4.4-1.4 1.1v.4c0 .8.7 1.2 1.5 1.2s1.3-.4 1.6-.8l.1.6h1.3v-2.8c0-1.3-.6-1.7-1.8-1.7-.6 0-1.7.1-2.4.2v1.3zm-1.1-1.1h-2.6c-.8 0-1.1.4-1.2 1.1-.1.8-.1 1.4-.2 1.7-.1.4-.4.3-.7.4l.2 1.2c1 .2 1.8-.1 2-1.1.1-.4.2-1.2.3-1.8 0-.3.1-.4.4-.4h.4v3.3h1.6v-4.4zm-5.4 4.4v-4.4h-1.4l-1.4 2.1-.3.6c0-.3.1-.4.1-.7v-2.1h-1.4v4.4h1.4l1.4-2c.1-.2.3-.5.4-.7 0 .3-.1.5-.1.8v2h1.3zm-7.1-3.2c1.2-.2 1.2-.7 1.8-2.9h-1.7c-.5 1.8-.7 2.4-1.2 2.4h-.3c0-.3.1-.5.1-.8v-1.6h-1.6v1.6c0 .2 0 .5.1.8h-.3c-.6 0-.7-.5-1.2-2.4h-1.7c.6 2.2.7 2.7 1.8 2.9v.1c-1.2.2-1.3.6-2 3.1h1.7c.7-2.2.7-2.6 1.3-2.6h.3c0 .2-.1.4-.1.6v2h1.6v-2c0-.2 0-.4-.1-.6h.3c.6 0 .7.4 1.3 2.6h1.7c-.5-2.5-.5-3-1.8-3.2zm118.5-126.9.1 1.3h2.6l-.3.6-1.5 4.1h1.6l1.8-5.3c.1-.4-.1-.8-.6-.8h-3.7zm-1.3 4.6c-.4 0-.6.1-.6.6v.4c0 .4.1.6.6.6h.4c.4 0 .6-.1.6-.6v-.4c0-.4-.1-.6-.6-.6h-.4zm-5.4-3.4h1.7c.6 0 .8.1.8.6 0 .4-.1.7-.7.7H599v1.1h1.2c.6 0 .8.2.8.7 0 .6-.2.7-1 .7-.5 0-.9 0-1.7-.1l-.1 1.2c.7.1 1.4.2 2.2.2 1.6 0 2.2-.5 2.2-1.8 0-.9-.3-1.4-1.1-1.5.8-.1 1-.7 1-1.5 0-1.1-.6-1.4-2-1.4-.7 0-1.3.1-2 .2l-.1.9zm2.6-33.4c-.7 0-.8-.2-.8-1.6.3-.2.5-.2.8-.2.6 0 .7.1.7.8 0 .7 0 1-.7 1m1.8-4.9c-.6-.2-1.2-.2-1.6-.2-1.8 0-2.6.4-2.6 3.2 0 2.5.5 3.1 2.4 3.1s2.3-.7 2.3-2.2c0-1.3-.4-1.9-1.8-1.9-.5 0-.9.1-1.2.4 0-1.1.3-1.3 1-1.3h1.5V226zm-5.8 4.5c-.4 0-.6.1-.6.6v.4c0 .4.1.6.6.6h.4c.4 0 .6-.1.6-.6v-.5c0-.4-.1-.6-.6-.6h-.4zm-1.7 1.5v-6.1h-1.6l-1.5.6.2 1 1.4-.3c-.1.2-.1.5-.1.7v4h1.6zm-101 35.9h1.7c.6 0 .8.1.8.6 0 .4-.1.7-.7.7h-1.2v1.1h1.2c.6 0 .8.2.8.7 0 .6-.2.7-1 .7-.5 0-.9 0-1.7-.1l-.1 1.2c.7.1 1.4.2 2.2.2 1.6 0 2.2-.5 2.2-1.8 0-.9-.3-1.4-1.1-1.5.8-.1 1-.7 1-1.5 0-1.1-.6-1.4-2-1.4-.7 0-1.3.1-2 .2l-.1.9zm-1.8 3.4c-.4 0-.6.1-.6.6v.4c0 .4.1.6.6.6h.4c.4 0 .6-.1.6-.6v-.4c0-.4-.1-.6-.6-.6h-.4zm-5.1-4.6.1 1.3h2.6l-.3.6-1.5 4.1h1.6l1.8-5.3c.1-.4-.1-.8-.6-.8h-3.7zm26.1-6.9h-.6c-.4 0-.5-.1-.5-.5 0-.3.1-.4.5-.4h.6v.9zm-1.7.6c-.3 0-.7.1-.8.5l-.3 1.4h1.6l.3-1.2c0-.2.1-.3.4-.3h.6v1.4h1.5v-4.4c-.5-.1-1-.1-2.2-.1-1.6 0-2 .3-2 1.4-.1.6.1 1.1.9 1.3zm-4.7.3c0-.2.1-.3.4-.3h.9v.5c-.3.2-.6.3-.9.3-.3 0-.4-.1-.4-.4v-.1zm-1.2-1.7c.7 0 1.4-.1 1.9-.1s.6.1.6.5v.1H507c-.9 0-1.4.4-1.4 1.1v.4c0 .8.7 1.2 1.5 1.2s1.3-.4 1.6-.8l.1.6h1.3v-2.8c0-1.3-.6-1.7-1.8-1.7-.6 0-1.7.1-2.4.2v1.3zm-2.4.9c1-.1 1-.3 1.6-2.1h-1.6c-.5 1.4-.5 1.6-.9 1.6h-.3c0-.2.1-.4.1-.5v-1H501v1c0 .2 0 .4.1.5h-.3c-.4 0-.5-.2-1-1.6h-1.6c.6 1.8.5 1.9 1.6 2.1-1.1.1-1.1.2-1.7 2.3h1.6c.6-1.7.6-1.7 1-1.8h.4c0 .1-.1.3-.1.4v1.4h1.4v-1.8h.4c.4 0 .4.1 1 1.8h1.6c-.8-2-.9-2.1-1.9-2.3zm-8.2-1c.5 0 .7.2.7 1.2s-.1 1.2-.7 1.2c-.5 0-.7-.2-.7-1.2s.2-1.2.7-1.2m0-1.1c-1.7 0-2.4.6-2.4 2.3 0 1.7.6 2.3 2.4 2.3 1.7 0 2.3-.6 2.3-2.3.1-1.7-.6-2.3-2.3-2.3m-4.1 4.4h1.6l-1.3-2.2 1.2-2.1h-1.6l-.9 1.6-.9-1.6h-1.6l1.2 2.1-1.3 2.2h1.6l.9-1.8 1.1 1.8zm-4 0v-4.4h-1.4l-1.4 2.1-.3.6c0-.3.1-.4.1-.7v-2.1h-1.4v4.4h1.4l1.4-2c.1-.2.3-.5.4-.7 0 .3-.1.5-.1.8v2h1.3zm-8.3-3c.3-.2.5-.3.8-.3.4 0 .6.2.6 1.2s-.2 1.1-.6 1.1c-.3 0-.5-.1-.8-.1v-1.9zm-.3-1.3h-1.3v6h1.6V262c.4.3.9.4 1.4.4 1.1 0 1.7-.5 1.7-2.2 0-1.5-.4-2.3-1.5-2.3-.7 0-1.4.3-1.7.7l-.2-.7zm-2.3-1.7h-5.1v6.1h1.6v-4.9h1.8v4.9h1.6v-6.1zm88.8 4h1.7c.6 0 .8.1.8.6 0 .4-.1.7-.7.7h-1.2v1.1h1.2c.6 0 .8.2.8.7 0 .6-.2.7-1 .7-.5 0-.9 0-1.7-.1l-.1 1.2c.7.1 1.4.2 2.2.2 1.6 0 2.2-.5 2.2-1.8 0-.9-.3-1.4-1.1-1.5.8-.1 1-.7 1-1.5 0-1.1-.6-1.4-2-1.4-.7 0-1.3.1-2 .2l-.1.9zm-1.7 3.4c-.4 0-.6.1-.6.6v.4c0 .4.1.6.6.6h.4c.4 0 .6-.1.6-.6v-.4c0-.4-.1-.6-.6-.6h-.4zm-5.5-3.4h1.7c.6 0 .8.1.8.6 0 .4-.1.7-.7.7h-1.2v1.1h1.2c.6 0 .8.2.8.7 0 .6-.2.7-1 .7-.5 0-.9 0-1.7-.1l-.1 1.2c.7.1 1.4.2 2.2.2 1.6 0 2.2-.5 2.2-1.8 0-.9-.3-1.4-1.1-1.5.8-.1 1-.7 1-1.5 0-1.1-.6-1.4-2-1.4-.7 0-1.3.1-2 .2l-.1.9zm-135.2 77.7.1-1.2H419l-.2 2.7c0 .3.2.5.5.5l.9.1c.8.1 1.1.2 1.1.8 0 .5-.2.7-1 .7-.4 0-1 0-1.6-.1l-.1 1.2c.8.1 1.5.2 2.2.2 1.7 0 2.2-.9 2.2-2 0-1-.4-1.8-1.8-2l-1-.1.1-.8h2.4zm-5.7 3.4c-.4 0-.6.1-.6.6v.4c0 .4.1.6.6.6h.4c.4 0 .6-.1.6-.6v-.4c0-.4-.1-.6-.6-.6h-.4zm-1.5-3.4.1-1.2h-3.8l-.2 2.7c0 .3.2.5.5.5l.9.1c.8.1 1.1.2 1.1.8 0 .5-.2.7-1 .7-.4 0-1 0-1.6-.1l-.1 1.2c.8.1 1.5.2 2.2.2 1.7 0 2.2-.9 2.2-2 0-1-.4-1.8-1.8-2l-1-.1.1-.8h2.4zm-30.8 19.9h-.7v-2.5h-1.2l-.3.9v1.6h-1.2c-.1 0-.2-.1-.2-.3l1.3-3.4H381l-1.5 3.8c-.2.5.1.9.6.9h2.4v1.3h1.5v-1.3l.7-.2v-.8zm-6.7.9c-.4 0-.6.1-.6.6v.4c0 .4.1.6.6.6h.4c.4 0 .6-.1.6-.6v-.4c0-.4-.1-.6-.6-.6h-.4zm-5.5-3.4h1.7c.6 0 .8.1.8.6 0 .4-.1.7-.7.7h-1.2v1.1h1.2c.6 0 .8.2.8.7 0 .6-.2.7-1 .7-.5 0-.9 0-1.7-.1l-.1 1.2c.7.1 1.4.2 2.2.2 1.6 0 2.2-.5 2.2-1.8 0-.9-.3-1.4-1.1-1.5.8-.1 1-.7 1-1.5 0-1.1-.6-1.4-2-1.4-.7 0-1.3.1-2 .2l-.1.9zm-57 2.5h-.7v-2.5h-1.2l-.3.9v1.6h-1.2c-.1 0-.2-.1-.2-.3l1.3-3.4h-1.5l-1.5 3.8c-.2.5.1.9.6.9h2.4v1.3h1.5v-1.3l.7-.2v-.8zm-6.8.9c-.4 0-.6.1-.6.6v.4c0 .4.1.6.6.6h.4c.4 0 .6-.1.6-.6v-.4c0-.4-.1-.6-.6-.6h-.4zm-5.4-3.4h1.7c.6 0 .8.1.8.6 0 .4-.1.7-.7.7h-1.2v1.1h1.2c.6 0 .8.2.8.7 0 .6-.2.7-1 .7-.5 0-.9 0-1.7-.1l-.1 1.2c.7.1 1.4.2 2.2.2 1.6 0 2.2-.5 2.2-1.8 0-.9-.3-1.4-1.1-1.5.8-.1 1-.7 1-1.5 0-1.1-.6-1.4-2-1.4-.7 0-1.3.1-2 .2l-.1.9zm-31.9-17.4.1-1.2h-3.8l-.2 2.7c0 .3.2.5.5.5l.9.1c.8.1 1.1.2 1.1.8 0 .5-.2.7-1 .7-.4 0-1 0-1.6-.1l-.1 1.2c.8.1 1.5.2 2.2.2 1.7 0 2.2-.9 2.2-2 0-1-.4-1.8-1.8-2l-1-.1.1-.8h2.4zm-5.7 3.4c-.4 0-.6.1-.6.6v.4c0 .4.1.6.6.6h.4c.4 0 .6-.1.6-.6v-.4c0-.4-.1-.6-.6-.6h-.4zm-1.5-3.4.1-1.2h-3.8l-.2 2.7c0 .3.2.5.5.5l.9.1c.8.1 1.1.2 1.1.8 0 .5-.2.7-1 .7-.4 0-1 0-1.6-.1l-.1 1.2c.8.1 1.5.2 2.2.2 1.7 0 2.2-.9 2.2-2 0-1-.4-1.8-1.8-2l-1-.1.1-.8h2.4zM91.1 408l.1 1.3h2.6l-.3.6L92 414h1.6l1.8-5.3c.2-.4-.1-.8-.6-.8h-3.7zm-1.2 4.6c-.4 0-.6.1-.6.6v.4c0 .4.1.6.6.6h.4c.4 0 .6-.1.6-.6v-.4c0-.4-.1-.6-.6-.6h-.4zm-5.6-3.3h1.9c.5 0 .7 0 .7.3s-.4.9-1.1 1.6l-1.4 1.4c-.2.2-.2.4-.2.7v.9h4.5v-1.4H87c-.3 0-.6 0-.9.1l1.5-1.5c.8-.8.9-1.2.9-1.9 0-1.2-.9-1.5-2.1-1.5-.7 0-1.3 0-2.2.2l.1 1.1zm-1.2 4.8V408h-1.6l-1.5.6.2 1 1.4-.3c-.1.2-.1.5-.1.7v4h1.6zm20.2-12.1c0-.2.1-.3.4-.3h.9v.5c-.3.2-.6.3-.9.3-.3 0-.4-.1-.4-.4v-.1zm-1.2-1.7c.7 0 1.4-.1 1.9-.1s.6.1.6.5v.1h-1.4c-.9 0-1.4.4-1.4 1.1v.4c0 .8.7 1.2 1.5 1.2s1.3-.4 1.6-.8l.1.6h1.3v-2.8c0-1.3-.6-1.7-1.8-1.7-.6 0-1.7.1-2.4.2v1.3zm-.7.1v-1.2H97v1.2h1.4v3.2h1.6v-3.2h1.4zm-7.8 1.6c0-.2.1-.3.4-.3h.9v.5c-.3.2-.6.3-.9.3-.3 0-.4-.1-.4-.4v-.1zm-1.2-1.7c.7 0 1.4-.1 1.9-.1s.6.1.6.5v.1h-1.4c-.9 0-1.4.4-1.4 1.1v.4c0 .8.7 1.2 1.5 1.2s1.3-.4 1.6-.8l.2.6h1.3v-2.8c0-1.3-.6-1.7-1.8-1.7-.6 0-1.7.1-2.4.2l-.1 1.3zm-1.1-1.1h-1.6v1.5h-1.3v-1.5h-1.6v4.4h1.6v-1.8h1.3v1.8h1.6v-4.4zm-7.4 0c-.3 0-.5.2-.6.5l-.4 1.6c0 .2-.1.4-.1.6h-.1c0-.2 0-.4-.1-.6l-.4-1.6c-.1-.3-.3-.5-.6-.5h-1.4c-.4 0-.5.2-.6.5l-.1 3.8h1.4l.1-3.2h.1l.5 2.1c.1.3.3.5.6.5h.7c.3 0 .5-.2.6-.5l.5-2.1h.1l.1 3.2h1.4l-.1-3.8c0-.4-.2-.5-.5-.5h-1.1zm-7.2 1c.5 0 .7.2.7 1.2s-.1 1.2-.7 1.2c-.5 0-.7-.2-.7-1.2s.1-1.2.7-1.2m0-1.1c-1.7 0-2.4.6-2.4 2.3 0 1.7.6 2.3 2.4 2.3 1.7 0 2.3-.6 2.3-2.3 0-1.7-.6-2.3-2.3-2.3m-4.4 2.2c1-.1.9-.2 1.5-2.1h-1.6c-.4 1.5-.4 1.6-1 1.6H71c0-.2.1-.4.1-.6v-1h-1.6v4.4H71v-1.4c0-.1 0-.2-.1-.4h.4c.5 0 .5.1 1 1.7H74c-.7-2-.7-2-1.7-2.2zm28.1-10.7h-.6c-.4 0-.5-.1-.5-.5 0-.3.1-.4.5-.4h.6v.9zm-1.7.6c-.3 0-.7.1-.8.5l-.3 1.4h1.6l.3-1.2c0-.2.1-.3.4-.3h.6v1.4h1.5v-4.4c-.5-.1-1-.1-2.2-.1-1.6 0-2 .3-2 1.4 0 .6.2 1.1.9 1.3zm-4.6.3c0-.2.1-.3.4-.3h.9v.5c-.3.2-.6.3-.9.3-.3 0-.4-.1-.4-.4v-.1zm-1.2-1.7c.7 0 1.4-.1 1.9-.1s.6.1.6.5v.1H94c-.9 0-1.4.4-1.4 1.1v.4c0 .8.7 1.2 1.5 1.2s1.3-.4 1.6-.8l.1.6H97V390c0-1.3-.6-1.7-1.8-1.7-.6 0-1.7.1-2.4.2l.1 1.3zm-1.1-1.1h-2.6c-.8 0-1.1.4-1.2 1.1-.1.8-.1 1.4-.2 1.7-.1.4-.4.3-.7.4l.2 1.2c1 .2 1.8-.1 2-1.1.1-.4.2-1.2.3-1.8 0-.3.1-.4.4-.4h.4v3.3H92v-4.4zm-5.4 4.3v-4.4H85l-1.4 2.1-.3.6c0-.3.1-.4.1-.7v-2.1H82v4.4h1.4l1.4-2c.1-.2.3-.5.4-.7 0 .3-.1.5-.1.8v2h1.3zm-7-3.2c1.2-.2 1.2-.7 1.8-2.9h-1.7c-.5 1.8-.7 2.4-1.2 2.4H78c0-.3.1-.5.1-.8V387h-1.6v1.6c0 .2 0 .5.1.8h-.3c-.6 0-.7-.5-1.2-2.4h-1.7c.6 2.2.7 2.7 1.8 2.9v.1c-1.2.2-1.3.6-2 3.1h1.7c.7-2.2.7-2.6 1.3-2.6h.3c0 .2-.1.4-.1.6v2H78v-2c0-.2 0-.4-.1-.6h.3c.6 0 .7.4 1.3 2.6h1.7c-.5-2.6-.6-3-1.8-3.3zm13.7-52.1c.7 0 .8.1.8.8 0 .6-.1.8-.8.8-.7 0-.8-.1-.8-.8-.1-.7.1-.8.8-.8m0-2.5c.6 0 .7.1.7.7 0 .5-.1.7-.7.7s-.8-.1-.8-.7c0-.5.1-.7.8-.7m-1.4 2c-.9.1-1.1.8-1.1 1.6 0 1.2.5 1.6 2.4 1.6s2.4-.5 2.4-1.6c0-.8-.2-1.5-1.1-1.6.7-.1.9-.7.9-1.4 0-1.1-.4-1.6-2.2-1.6-1.8 0-2.2.5-2.2 1.6 0 .6.3 1.3.9 1.4zm-2.7 1.6c-.4 0-.6.1-.6.6v.4c0 .4.1.6.6.6h.4c.4 0 .6-.1.6-.6v-.4c0-.4-.1-.6-.6-.6H89zm-1.5-3.4.1-1.2h-3.8l-.2 2.7c0 .3.2.5.5.5l.9.1c.8.1 1.1.2 1.1.8 0 .5-.2.7-1 .7-.4 0-1 0-1.6-.1l-.1 1.2c.8.1 1.5.2 2.2.2 1.7 0 2.2-.9 2.2-2 0-1-.4-1.8-1.8-2l-1-.1.1-.8h2.4zm25.4-7.1c0-.2.1-.3.4-.3h.9v.5c-.3.2-.6.3-.9.3-.3 0-.4-.1-.4-.4v-.1zm-1.2-1.8c.7 0 1.4-.1 1.9-.1s.6.1.6.5v.1h-1.4c-.9 0-1.4.4-1.4 1.1v.4c0 .8.7 1.2 1.5 1.2s1.3-.4 1.6-.8l.1.6h1.3V327c0-1.3-.6-1.7-1.8-1.7-.6 0-1.7.1-2.4.2v1zm-1.1-1.1h-1.5v3.3h-1v-3.3h-1.4v3.3h-1v-3.3H104v4.4h6.6v-4.4zm-7.5 4.4v-4.4h-1.4l-1.4 2.1-.3.6c0-.3.1-.4.1-.7v-2.1h-1.4v4.4h1.4l1.4-2c.1-.2.3-.5.4-.7 0 .3-.1.5-.1.8v2h1.3zm-5.5-4.4H96v1.5h-1.3v-1.5h-1.6v4.4h1.6V328H96v1.8h1.6v-4.4zm-5.3 1.6h-2.6v1h2.6v-1zm-5.1.4h-.6c-.4 0-.5-.1-.5-.5 0-.3.1-.4.5-.4h.6v.9zm-1.7.5c-.3 0-.7.1-.8.5l-.3 1.4H86l.3-1.2c0-.2.1-.3.4-.3h.6v1.4h1.5v-4.4c-.5-.1-1-.1-2.2-.1-1.6 0-2 .3-2 1.4 0 .6.2 1.1.9 1.3zm-1.8-2.5h-1.6v1.5h-1.3v-1.5h-1.6v4.4h1.6V328h1.3v1.8h1.6v-4.4zm-6.6 4.4h1.6l-1.3-2.2 1.2-2.1H77l-.9 1.6-.9-1.6h-1.6l1.2 2.1-1.3 2.2h1.6l.9-1.8 1.1 1.8zm-3.5-4.4h-1.7l-.6 2.6c0 .2-.1.5-.2.7H71c0-.3-.1-.5-.1-.7l-.7-2.6h-1.7l1.4 4c.1.2.3.4.5.4h.3c-.1.2-.3.4-.5.5-.3.2-.7.2-1.2.2l-.1 1c.6.1 1.3.1 1.8-.1.7-.2 1.2-.7 1.5-1.7l1.4-4.3zm-7.2 1.2c1.2-.2 1.2-.7 1.9-2.9h-1.7c-.5 1.8-.6 2.4-1.4 2.4h-.3c0-.2.1-.5.1-.8v-1.6h-1.6v6.1H65v-2c0-.2 0-.4-.1-.6h.3c.8 0 .9.4 1.5 2.6h1.7c-.7-2.5-.8-3-2-3.2zM500 166.4c.7 0 .8.1.8.8 0 .6-.1.8-.8.8-.7 0-.8-.1-.8-.8 0-.6.1-.8.8-.8m0-2.4c.6 0 .7.1.7.7 0 .5-.1.7-.7.7s-.8-.1-.8-.7c.1-.6.2-.7.8-.7m-1.3 1.9c-.9.1-1.1.8-1.1 1.6 0 1.2.5 1.6 2.4 1.6s2.4-.5 2.4-1.6c0-.8-.2-1.5-1.1-1.6.7-.1.9-.7.9-1.4 0-1.1-.4-1.6-2.2-1.6-1.8 0-2.2.5-2.2 1.6 0 .6.3 1.3.9 1.4zm-2.7 1.6c-.4 0-.6.1-.6.6v.4c0 .4.1.6.6.6h.4c.4 0 .6-.1.6-.6v-.4c0-.4-.1-.6-.6-.6h-.4zm-5.5-3.4h1.7c.6 0 .8.1.8.6 0 .4-.1.7-.7.7h-1.2v1.1h1.2c.6 0 .8.2.8.7 0 .6-.2.7-1 .7-.5 0-.9 0-1.7-.1l-.1 1.2c.7.1 1.4.2 2.2.2 1.6 0 2.2-.5 2.2-1.8 0-.9-.3-1.4-1.1-1.5.8-.1 1-.7 1-1.5 0-1.1-.6-1.4-2-1.4-.7 0-1.3.1-2 .2l-.1.9zm-1.2 4.9v-6h-1.6l-1.5.6.2 1 1.4-.3c-.1.2-.1.5-.1.7v4h1.6zm16.3-12.9h-.6c-.4 0-.5-.1-.5-.5 0-.3.1-.4.5-.4h.6v.9zm-1.7.5c-.3 0-.7.1-.8.5l-.3 1.4h1.6l.3-1.2c0-.2.1-.3.4-.3h.6v1.4h1.5V154c-.5-.1-1-.1-2.2-.1-1.6 0-2 .3-2 1.4 0 .6.2 1.1.9 1.3zm-1.8-2.5h-1.6v1.5h-1.3v-1.5h-1.6v4.4h1.6v-1.8h1.3v1.8h1.6v-4.4zm-6.6 4.4h1.6l-1.3-2.2 1.2-2.1h-1.6l-.9 1.6-.9-1.6H492l1.2 2.1-1.3 2.2h1.6l.9-1.8 1.1 1.8zm-3.5-4.4h-1.7l-.6 2.6c0 .2-.1.5-.2.7h-.1c0-.3-.1-.5-.1-.7l-.7-2.6h-1.7l1.4 4c.1.2.3.4.5.4h.3c-.1.2-.3.4-.5.5-.3.2-.7.2-1.2.2l-.1 1c.6.1 1.3.1 1.8-.1.7-.2 1.2-.7 1.5-1.7l1.4-4.3zm-7.2 1.2c1.2-.2 1.2-.7 1.9-2.9H485c-.5 1.8-.6 2.4-1.4 2.4h-.3c0-.2.1-.5.1-.8v-1.6h-1.6v6.1h1.6v-2c0-.2 0-.4-.1-.6h.3c.8 0 .9.4 1.5 2.6h1.7c-.7-2.5-.7-3-2-3.2zm-292 114.6h1.7c.6 0 .8.1.8.6 0 .4-.1.7-.7.7h-1.2v1.1h1.2c.6 0 .8.2.8.7 0 .6-.2.7-1 .7-.5 0-.9 0-1.7-.1l-.1 1.2c.7.1 1.4.2 2.2.2 1.6 0 2.2-.5 2.2-1.8 0-.9-.3-1.4-1.1-1.5.8-.1 1-.7 1-1.5 0-1.1-.6-1.4-2-1.4-.7 0-1.3.1-2 .2l-.1.9zm-1.7 3.4c-.4 0-.6.1-.6.6v.4c0 .4.1.6.6.6h.4c.4 0 .6-.1.6-.6v-.4c0-.4-.1-.6-.6-.6h-.4zm-5.1-4.6.1 1.3h2.6l-.3.6-1.5 4.1h1.6l1.8-5.3c.1-.4-.1-.8-.6-.8H186zm26-6.8h-.6c-.4 0-.5-.1-.5-.5 0-.3.1-.4.5-.4h.6v.9zm-1.7.5c-.3 0-.7.1-.8.5l-.3 1.4h1.6l.3-1.2c0-.2.1-.3.4-.3h.6v1.4h1.5v-4.4c-.5-.1-1-.1-2.2-.1-1.6 0-2 .3-2 1.4-.1.6.1 1.1.9 1.3zm-4.7.4c0-.2.1-.3.4-.3h.9v.5c-.3.2-.6.3-.9.3-.3 0-.4-.1-.4-.4v-.1zm-1.2-1.8c.7 0 1.4-.1 1.9-.1s.6.1.6.5v.1h-1.4c-.9 0-1.4.4-1.4 1.1v.4c0 .8.7 1.2 1.5 1.2s1.3-.4 1.6-.8l.1.6h1.3v-2.8c0-1.3-.6-1.7-1.8-1.7-.6 0-1.7.1-2.4.2v1.3zm-2.4 1c1-.1 1-.3 1.6-2.1H202c-.5 1.4-.5 1.6-.9 1.6h-.3c0-.2.1-.4.1-.5v-1h-1.4v1c0 .2 0 .4.1.5h-.3c-.4 0-.5-.2-1-1.6h-1.6c.6 1.8.5 1.9 1.6 2.1-1.1.2-1.1.2-1.7 2.3h1.6c.6-1.7.6-1.7 1-1.8h.4c0 .1-.1.3-.1.4v1.4h1.4v-1.8h.4c.4 0 .4.1 1 1.8h1.6c-.8-2.1-.8-2.1-1.9-2.3zm-8.1-1.1c.5 0 .7.2.7 1.2s-.1 1.2-.7 1.2c-.5 0-.7-.2-.7-1.2s.1-1.2.7-1.2m0-1.1c-1.7 0-2.4.6-2.4 2.3 0 1.7.6 2.3 2.4 2.3 1.7 0 2.3-.6 2.3-2.3 0-1.7-.6-2.3-2.3-2.3m-4.2 4.5h1.6L190 262l1.2-2.1h-1.6l-.9 1.6-.9-1.6h-1.6l1.2 2.1-1.3 2.2h1.6l.9-1.8 1.1 1.9zm-4 0v-4.4h-1.4l-1.4 2.1-.3.6c0-.3.1-.4.1-.7v-2.1h-1.4v4.4h1.4l1.4-2c.1-.2.3-.5.4-.7 0 .3-.1.5-.1.8v2h1.3zm-8.3-3c.3-.2.5-.3.8-.3.4 0 .6.2.6 1.2s-.2 1.2-.6 1.2c-.3 0-.5-.1-.8-.1v-2zm-.3-1.4h-1.3v6h1.6V264c.4.3.9.4 1.4.4 1.1 0 1.7-.5 1.7-2.2 0-1.5-.4-2.3-1.5-2.3-.7 0-1.4.3-1.7.7l-.2-.7zm-2.3-1.7h-5.1v6.1h1.6v-4.9h1.8v4.9h1.6v-6.1zm-82 21.6.1-1.2h-3.8l-.2 2.7c0 .3.2.5.5.5l.9.1c.8.1 1.1.2 1.1.8 0 .5-.2.7-1 .7-.4 0-1 0-1.6-.1l-.1 1.2c.8.1 1.5.2 2.2.2 1.7 0 2.2-.9 2.2-2 0-1-.4-1.8-1.8-2l-1-.1.1-.8h2.4zm-5.7 3.4c-.4 0-.6.1-.6.6v.4c0 .4.1.6.6.6h.4c.4 0 .6-.1.6-.6v-.4c0-.4-.1-.6-.6-.6h-.4zm-1.6 1.4v-6.1h-1.6l-1.5.6.2 1 1.4-.3c-.1.2-.1.5-.1.7v4h1.6zm39.9-26.3h1.7c.6 0 .8.1.8.6 0 .4-.1.7-.7.7H126v1.1h1.2c.6 0 .8.2.8.7 0 .6-.2.7-1 .7-.5 0-.9 0-1.7-.1l-.1 1.2c.7.1 1.4.2 2.2.2 1.6 0 2.2-.5 2.2-1.8 0-.9-.3-1.4-1.1-1.5.8-.1 1-.7 1-1.5 0-1.1-.6-1.4-2-1.4-.7 0-1.3.1-2 .2l-.1.9zm-1.8 3.3c-.4 0-.6.1-.6.6v.4c0 .4.1.6.6.6h.4c.4 0 .6-.1.6-.6v-.4c0-.4-.1-.6-.6-.6h-.4zm-5.5-3.3h1.7c.6 0 .8.1.8.6 0 .4-.1.7-.7.7h-1.2v1.1h1.2c.6 0 .8.2.8.7 0 .6-.2.7-1 .7-.5 0-.9 0-1.7-.1l-.1 1.2c.7.1 1.4.2 2.2.2 1.6 0 2.2-.5 2.2-1.8 0-.9-.3-1.4-1.1-1.5.8-.1 1-.7 1-1.5 0-1.1-.6-1.4-2-1.4-.7 0-1.3.1-2 .2l-.1.9zm-24.8-15.6.1-1.2h-3.8l-.2 2.7c0 .3.2.5.5.5l.9.1c.8.1 1.1.2 1.1.8 0 .5-.2.7-1 .7-.4 0-1 0-1.6-.1l-.1 1.2c.8.1 1.5.2 2.2.2 1.7 0 2.2-.9 2.2-2 0-1-.4-1.8-1.8-2l-1-.1.1-.8h2.4zm-5.7 3.4c-.4 0-.6.1-.6.6v.4c0 .4.1.6.6.6h.4c.4 0 .6-.1.6-.6v-.4c0-.4-.1-.6-.6-.6h-.4zm-5.4-3.4h1.7c.6 0 .8.1.8.6 0 .4-.1.7-.7.7h-1.2v1.1H84c.6 0 .8.2.8.7 0 .6-.2.7-1 .7-.5 0-.9 0-1.7-.1l-.1 1.2c.7.1 1.4.2 2.2.2 1.6 0 2.2-.5 2.2-1.8 0-.9-.3-1.4-1.1-1.5.8-.1 1-.7 1-1.5 0-1.1-.6-1.4-2-1.4-.7 0-1.3.1-2 .2l-.1.9zm314.8 187c.7 0 .8.1.8.8 0 .6-.1.8-.8.8-.7 0-.8-.1-.8-.8-.1-.7.1-.8.8-.8m0-2.5c.6 0 .7.1.7.7 0 .5-.1.7-.7.7s-.8-.1-.8-.7.2-.7.8-.7m-1.3 2c-.9.1-1.1.8-1.1 1.6 0 1.2.5 1.6 2.4 1.6s2.4-.5 2.4-1.6c0-.8-.2-1.5-1.1-1.6.7-.1.9-.7.9-1.4 0-1.1-.4-1.6-2.2-1.6-1.8 0-2.2.5-2.2 1.6-.1.6.2 1.2.9 1.4zm-2.8 1.6c-.4 0-.6.1-.6.6v.4c0 .4.1.6.6.6h.4c.4 0 .6-.1.6-.6v-.4c0-.4-.1-.6-.6-.6h-.4zm-3.7-1.1c.7 0 .8.1.8.8 0 .6-.1.8-.8.8-.7 0-.8-.1-.8-.8 0-.7.1-.8.8-.8m0-2.5c.6 0 .7.1.7.7 0 .5-.1.7-.7.7s-.8-.1-.8-.7c.1-.6.2-.7.8-.7m-1.3 2c-.9.1-1.1.8-1.1 1.6 0 1.2.5 1.6 2.4 1.6s2.4-.5 2.4-1.6c0-.8-.2-1.5-1.1-1.6.7-.1.9-.7.9-1.4 0-1.1-.4-1.6-2.2-1.6-1.8 0-2.2.5-2.2 1.6 0 .6.3 1.2.9 1.4zm16.4-9.9h-.6c-.4 0-.5-.1-.5-.5 0-.3.1-.4.5-.4h.6v.9zm-1.7.6c-.3 0-.7.1-.8.5l-.3 1.4h1.6l.3-1.2c0-.2.1-.3.4-.3h.6v1.4h1.5v-4.4c-.5-.1-1-.1-2.2-.1-1.6 0-2 .3-2 1.4-.1.6.2 1.1.9 1.3zm-1.8-2.5h-1.6v1.5h-1.3v-1.5h-1.6v4.4h1.6V420h1.3v1.8h1.6v-4.4zm-6.6 4.3h1.6l-1.3-2.2 1.2-2.1h-1.6l-.9 1.6-.9-1.6h-1.6l1.2 2.1-1.3 2.2h1.6l.9-1.8 1.1 1.8zm-3.5-4.3H389l-.6 2.6c0 .2-.1.5-.2.7h-.2c0-.3-.1-.5-.1-.7l-.7-2.6h-1.7l1.4 4c.1.2.3.4.5.4h.3c-.1.2-.3.4-.5.5-.3.2-.7.2-1.2.2l-.1 1c.6.1 1.3.1 1.8-.1.7-.2 1.2-.7 1.5-1.7l1.5-4.3zm-7.2 1.2c1.2-.2 1.2-.7 1.9-2.9h-1.7c-.5 1.8-.6 2.4-1.4 2.4h-.3c0-.2.1-.5.1-.8v-1.6h-1.6v6.1h1.6v-2c0-.2 0-.4-.1-.6h.3c.8 0 .9.4 1.5 2.6h1.7c-.7-2.5-.8-3-2-3.2zm-88.9 11.1c.7 0 .8.1.8.8 0 .6-.1.8-.8.8-.7 0-.8-.1-.8-.8 0-.7.1-.8.8-.8m0-2.5c.6 0 .7.1.7.7 0 .5-.1.7-.7.7s-.8-.1-.8-.7c.1-.6.2-.7.8-.7m-1.3 2c-.9.1-1.1.8-1.1 1.6 0 1.2.5 1.6 2.4 1.6s2.4-.5 2.4-1.6c0-.8-.2-1.5-1.1-1.6.7-.1.9-.7.9-1.4 0-1.1-.4-1.6-2.2-1.6-1.8 0-2.2.5-2.2 1.6 0 .6.2 1.2.9 1.4zm-2.8 1.6c-.4 0-.6.1-.6.6v.4c0 .4.1.6.6.6h.4c.4 0 .6-.1.6-.6v-.4c0-.4-.1-.6-.6-.6h-.4zm-3.6-1.1c.7 0 .8.1.8.8 0 .6-.1.8-.8.8-.7 0-.8-.1-.8-.8-.1-.7.1-.8.8-.8m0-2.5c.6 0 .7.1.7.7 0 .5-.1.7-.7.7s-.8-.1-.8-.7.1-.7.8-.7m-1.4 2c-.9.1-1.1.8-1.1 1.6 0 1.2.5 1.6 2.4 1.6s2.4-.5 2.4-1.6c0-.8-.2-1.5-1.1-1.6.7-.1.9-.7.9-1.4 0-1.1-.4-1.6-2.2-1.6-1.8 0-2.2.5-2.2 1.6 0 .6.3 1.2.9 1.4zm16.4-9.9h-.6c-.4 0-.5-.1-.5-.5 0-.3.1-.4.5-.4h.6v.9zm-1.7.6c-.3 0-.7.1-.8.5l-.3 1.4h1.6l.3-1.2c0-.2.1-.3.4-.3h.6v1.4h1.5v-4.4c-.5-.1-1-.1-2.2-.1-1.6 0-2 .3-2 1.4 0 .6.2 1.1.9 1.3zm-1.8-2.5h-1.6v1.5h-1.3v-1.5H294v4.4h1.6V420h1.3v1.8h1.6v-4.4zm-6.6 4.3h1.6l-1.3-2.2 1.2-2.1h-1.6l-.9 1.6-.9-1.6h-1.6l1.2 2.1-1.3 2.2h1.6l.9-1.8 1.1 1.8zm-3.5-4.3h-1.7l-.6 2.6c0 .2-.1.5-.2.7h-.1c0-.3-.1-.5-.1-.7l-.7-2.6h-1.7l1.4 4c.1.2.3.4.5.4h.3c-.1.2-.3.4-.5.5-.3.2-.7.2-1.2.2l-.1 1c.6.1 1.3.1 1.8-.1.7-.2 1.2-.7 1.5-1.7l1.4-4.3zm-7.2 1.2c1.2-.2 1.2-.7 1.9-2.9h-1.7c-.5 1.8-.6 2.4-1.4 2.4h-.3c0-.2.1-.5.1-.8v-1.6h-1.6v6.1h1.6v-2c0-.2 0-.4-.1-.6h.3c.8 0 .9.4 1.5 2.6h1.7c-.7-2.5-.7-3-2-3.2zm62.2-146h1.7c.6 0 .8.1.8.6 0 .4-.1.7-.7.7h-1.2v1.1h1.2c.6 0 .8.2.8.7 0 .6-.2.7-1 .7-.5 0-.9 0-1.7-.1l-.1 1.2c.7.1 1.4.2 2.2.2 1.6 0 2.2-.5 2.2-1.8 0-.9-.3-1.4-1.1-1.5.8-.1 1-.7 1-1.5 0-1.1-.6-1.4-2-1.4-.7 0-1.3.1-2 .2l-.1.9zm-1.8 3.4c-.4 0-.6.1-.6.6v.4c0 .4.1.6.6.6h.4c.4 0 .6-.1.6-.6v-.4c0-.4-.1-.6-.6-.6h-.4zm-5.6-3.2h1.9c.5 0 .7 0 .7.3s-.4.9-1.1 1.6L336 276c-.2.2-.2.4-.2.7v.9h4.5v-1.4h-1.7c-.3 0-.6 0-.9.1l1.5-1.5c.8-.8.9-1.2.9-1.9 0-1.2-.9-1.5-2.1-1.5-.7 0-1.3 0-2.2.2l.1 1.2zm-1.2 4.7v-6.1h-1.6l-1.5.6.2 1 1.4-.3c-.1.2-.1.5-.1.7v4h1.6zm56.6-13.5c.3-.2.5-.3.8-.3.4 0 .6.2.6 1.2s-.2 1.1-.6 1.1c-.3 0-.5-.1-.8-.1V264zm-.4-1.4h-1.3v6h1.6v-1.9c.4.3.9.4 1.4.4 1.1 0 1.7-.5 1.7-2.2 0-1.5-.4-2.3-1.5-2.3-.7 0-1.4.3-1.7.7l-.2-.7zm-4.3 1c.5 0 .7.2.7 1.2s-.1 1.2-.7 1.2c-.5 0-.7-.2-.7-1.2s.1-1.2.7-1.2m0-1.1c-1.7 0-2.4.6-2.4 2.3 0 1.7.6 2.3 2.4 2.3 1.7 0 2.3-.6 2.3-2.3 0-1.7-.6-2.3-2.3-2.3m-5.1 3.4h-1.3c.2-.5.4-1.1.5-1.9 0-.2.2-.4.4-.4h.4v2.3zm2.3 0h-.8v-3.3h-2.4c-.8 0-1.2.4-1.3 1.1-.1.8-.3 1.5-.5 2.2h-.5v2.3h1.1l.1-1.2h3.1l.1 1.2h1.1v-2.3zm-6.1 1.1v-4.4h-1.4l-1.4 2.1-.3.6c0-.3.1-.4.1-.7v-2.1h-1.4v4.4h1.4l1.4-2c.1-.2.3-.5.4-.7 0 .3-.1.5-.1.8v2h1.3zm-8.3-3c.3-.2.5-.3.8-.3.4 0 .6.2.6 1.2s-.2 1.1-.6 1.1c-.3 0-.5-.1-.8-.1V264zm-.3-1.4h-1.3v6h1.6v-1.9c.4.3.9.4 1.4.4 1.1 0 1.7-.5 1.7-2.2 0-1.5-.4-2.3-1.5-2.3-.7 0-1.4.3-1.7.7l-.2-.7zm-4.4 1c.5 0 .7.2.7 1.2s-.1 1.2-.7 1.2c-.5 0-.7-.2-.7-1.2s.2-1.2.7-1.2m0-1.1c-1.7 0-2.4.6-2.4 2.3 0 1.7.6 2.3 2.4 2.3 1.7 0 2.3-.6 2.3-2.3.1-1.7-.6-2.3-2.3-2.3m-4.4 2.2c1-.1.9-.2 1.5-2.1h-1.6c-.4 1.5-.4 1.6-1 1.6h-.2c0-.2.1-.4.1-.6v-1h-1.6v4.4h1.6v-1.4c0-.1 0-.2-.1-.4h.4c.5 0 .5.1 1 1.7h1.7c-.7-2-.7-2-1.8-2.2zm-5.6 2.3v-4.4h-1.4l-1.4 2.1-.3.6c0-.3.1-.4.1-.7v-2.1h-1.4v4.4h1.4l1.4-2c.1-.2.3-.5.4-.7 0 .3-.1.5-.1.8v2h1.3zm-1.8-6.3c.1.5-.1.7-.5.7s-.6-.2-.5-.7h-1c-.1.7.5 1.4 1.5 1.4s1.6-.7 1.5-1.4h-1zm-8.3 5.3v-1h.5c.4 0 .5.1.5.5s-.1.5-.5.5h-.5zm4.6-3.4h-1.6v4.4h1.6v-4.4zm-4.6 1.4v-1.4H343v4.4c.7 0 1.2.1 2.2.1 1.3 0 1.9-.3 1.9-1.5s-.5-1.5-2.1-1.5h-.4zm-2.5-1.4h-1.6v1.5h-1.3v-1.5h-1.6v4.4h1.6v-1.8h1.3v1.8h1.6v-4.4zm-8.3 1.4c.3-.2.5-.3.8-.3.4 0 .6.2.6 1.2s-.2 1.1-.6 1.1c-.3 0-.5-.1-.8-.1V264zm-.3-1.4h-1.3v6h1.6v-1.9c.4.3.9.4 1.4.4 1.1 0 1.7-.5 1.7-2.2 0-1.5-.4-2.3-1.5-2.3-.7 0-1.4.3-1.7.7l-.2-.7zm-2.2 4.4v-4.4h-1.4l-1.4 2.1-.3.6c0-.3.1-.4.1-.7v-2.1h-1.4v4.4h1.4l1.4-2c.1-.2.3-.5.4-.7 0 .3-.1.5-.1.8v2h1.3zm-5.1-3.2v-1.2h-4.4v1.2h1.4v3.2h1.6v-3.2h1.4zm-7.8.2c.3-.2.5-.3.8-.3.4 0 .6.2.6 1.2s-.2 1.1-.6 1.1c-.3 0-.5-.1-.8-.1V264zm-.3-1.4h-1.3v6h1.6v-1.9c.4.3.9.4 1.4.4 1.1 0 1.7-.5 1.7-2.2 0-1.5-.4-2.3-1.5-2.3-.7 0-1.4.3-1.7.7l-.2-.7zm-5.1 2.9c0-.2.1-.3.4-.3h.9v.5c-.3.2-.6.3-.9.3-.3 0-.4-.1-.4-.4v-.1zm-1.2-1.8c.7 0 1.4-.1 1.9-.1s.6.1.6.5v.1h-1.5c-.9 0-1.4.4-1.4 1.1v.4c0 .8.7 1.2 1.5 1.2s1.3-.4 1.6-.8l.1.6h1.3v-2.8c0-1.3-.6-1.7-1.8-1.7-.6 0-1.7.1-2.4.2l.1 1.3zM308 266v-.9h.7c.4 0 .6.1.6.4 0 .4-.2.4-.6.4h-.7zm0-1.7v-.7h.7c.4 0 .6.1.6.4 0 .3-.1.4-.5.4h-.8zm1.8.4c.7-.1 1-.4 1-1 0-.9-.5-1.2-2-1.2-1 0-1.6 0-2.3.1v4.4c.7 0 1.4.1 2.5.1 1.3 0 1.9-.2 1.9-1.1 0-.8-.3-1.2-1.1-1.3zm-5.5 0c1-.1.9-.2 1.5-2.1h-1.6c-.4 1.5-.4 1.6-1 1.6h-.2c0-.2.1-.4.1-.6v-1h-1.6v4.4h1.6v-1.4c0-.1 0-.2-.1-.4h.4c.5 0 .5.1 1 1.7h1.7c-.8-2-.8-2-1.8-2.2zm-6.4-.3c0-.7.2-.8.7-.8.4 0 .6.1.6.4 0 .3-.1.4-.4.4h-.9zm1.3.8c1.1 0 1.5-.4 1.5-1.2 0-1-.6-1.5-2.2-1.5-1.7 0-2.4.6-2.4 2.3 0 1.5.6 2.3 2.4 2.3.7 0 1.5-.1 2-.4l-.1-1c-.7.1-1.3.1-1.7.1-.6 0-.8-.1-.9-.6h1.4zm-3.8-2.6h-1.6v1.5h-1.3v-1.5H291v4.4h1.6v-1.8h1.3v1.8h1.6v-4.4zm-8.5 3.3v-1.5h.8c.6 0 .8.2.8.8 0 .6-.2.7-.8.7h-.8zm0-2.6V262h.8c.6 0 .7.1.7.7 0 .5-.1.7-.7.7h-.8zm2 .5c.8-.1 1.1-.5 1.1-1.4 0-1.2-.6-1.6-2.2-1.6-1.1 0-1.7 0-2.5.1v6.1c.8.1 1.5.1 2.7.1 1.5 0 2.1-.3 2.1-1.6.1-1-.2-1.6-1.2-1.7zm-81.4-88.5c-1.8 0-2-.6-2-4.1.8-.4 1.3-.6 2-.6 1.5 0 1.9.4 1.9 2.1-.1 1.9-.2 2.6-1.9 2.6m4.8-12.8c-1.6-.5-3.3-.5-4.1-.5-4.6 0-6.9 1.1-6.9 8.4 0 6.4 1.4 8 6.2 8 4.8 0 5.9-1.9 5.9-5.8 0-3.5-1-4.9-4.6-4.9-1.4 0-2.4.2-3.2.9.1-3 .7-3.5 2.7-3.5h3.9l.1-2.6zM197 174.2c-1.1 0-1.4.3-1.4 1.4v1c0 1.1.3 1.4 1.4 1.4h1c1.1 0 1.4-.3 1.4-1.4v-1c0-1.1-.3-1.4-1.4-1.4h-1zm-3-2.2h-1.9v-6.5h-3.2l-.7 2.5v4.1h-3.1c-.4 0-.6-.2-.4-.7l3.5-9h-4l-3.9 10.1c-.5 1.2.3 2.5 1.7 2.5h6.3v3.3h3.9V175l1.8-.4V172zm-21 3.3c-1.8 0-2-.6-2-4.1.8-.4 1.3-.6 2-.6 1.5 0 1.9.4 1.9 2.1 0 1.9-.1 2.6-1.9 2.6m4.9-12.8c-1.6-.5-3.3-.5-4.1-.5-4.6 0-6.9 1.1-6.9 8.4 0 6.4 1.4 8 6.2 8 4.8 0 5.9-1.9 5.9-5.8 0-3.5-1-4.9-4.6-4.9-1.4 0-2.4.2-3.2.9.1-3 .7-3.5 2.7-3.5h3.9l.1-2.6zm20.5 217c2.2-.1 3.3-.1 5-.1 1.2 0 1.7.1 1.7.7 0 .9-1 2.3-2.8 4.1l-3.6 3.7c-.5.5-.6 1-.6 1.7v2.2H210v-3.7h-4.6c-.8 0-1.5 0-2.2.2l3.9-3.8c2.1-2.2 2.5-3.2 2.5-4.9 0-3.1-2.2-3.8-5.6-3.8-1.7 0-3.4.1-5.7.5l.1 3.2zm-4.5 8.5c-1.1 0-1.4.3-1.4 1.4v1c0 1.1.3 1.4 1.4 1.4h1c1.1 0 1.4-.3 1.4-1.4v-1c0-1.1-.3-1.4-1.4-1.4h-1zm-4.3 3.9V376h-4.3l-4 1.6.5 2.7 3.7-.8c-.1.6-.2 1.3-.2 1.9v10.5h4.3zm-8.6-6.2h-1.9v-6.5h-3.2l-.7 2.5v4.1h-3.1c-.4 0-.6-.2-.4-.7l3.5-9h-4l-3.9 10.1c-.5 1.2.3 2.5 1.7 2.5h6.3v3.3h3.9v-3.3l1.8-.4v-2.6zm424.8-16.9c2.2-.1 3.3-.1 5-.1 1.2 0 1.7.1 1.7.7 0 .9-1 2.3-2.8 4.1l-3.6 3.7c-.5.5-.6 1-.6 1.7v2.3h11.8v-3.7h-4.6c-.8 0-1.5 0-2.2.2l3.9-3.8c2.1-2.2 2.5-3.2 2.5-4.9 0-3.1-2.2-3.8-5.6-3.8-1.7 0-3.4.1-5.7.5l.2 3.1zm-4.5 8.5c-1.1 0-1.4.3-1.4 1.4v1c0 1.1.3 1.4 1.4 1.4h1c1.1 0 1.4-.3 1.4-1.4v-1c0-1.1-.3-1.4-1.4-1.4h-1zm-3.9-8.8.2-3.2h-9.9l-.4 7.1c0 .7.5 1.3 1.2 1.4l2.5.3c2.1.2 2.9.5 2.8 2-.1 1.3-.6 1.8-2.6 1.8-1.1 0-2.6-.1-4.1-.2l-.4 3.2c2 .3 4 .5 5.6.5 4.5 0 5.8-2.3 5.8-5.2 0-2.5-.9-4.8-4.6-5.2l-2.6-.3.2-2.2h6.3zm-18 9.8c-1.8 0-2-.6-2-4.1.8-.4 1.3-.6 2-.6 1.5 0 1.9.4 1.9 2.1-.1 1.9-.2 2.6-1.9 2.6m4.8-12.8c-1.6-.5-3.3-.5-4.1-.5-4.6 0-6.9 1.1-6.9 8.4 0 6.4 1.4 8 6.2 8 4.8 0 5.9-1.9 5.9-5.8 0-3.5-1-4.9-4.6-4.9-1.4 0-2.4.2-3.2.9.1-3 .7-3.5 2.7-3.5h3.9l.1-2.6zm-81 3.3c2.2-.1 3.3-.1 5-.1 1.2 0 1.7.1 1.7.7 0 .9-1 2.3-2.8 4.1l-3.6 3.7c-.5.5-.6 1-.6 1.7v2.2h11.8v-3.7h-4.6c-.8 0-1.5 0-2.2.2l3.9-3.8c2.1-2.2 2.5-3.2 2.5-4.9 0-3.1-2.2-3.8-5.6-3.8-1.7 0-3.4.1-5.7.5l.2 3.2zm-4.6 8.5c-1.1 0-1.4.3-1.4 1.4v1c0 1.1.3 1.4 1.4 1.4h1c1.1 0 1.4-.3 1.4-1.4v-1c0-1.1-.3-1.4-1.4-1.4h-1zm-4.3 3.9v-15.8H490l-4 1.6.5 2.7 3.7-.8c-.1.6-.2 1.3-.2 1.9v10.5h4.3zm-8.6-6.2h-1.9v-6.5h-3.2l-.7 2.5v4.1h-3.1c-.4 0-.6-.2-.4-.7l3.5-9h-4l-3.9 10.1c-.5 1.2.3 2.5 1.7 2.5h6.3v3.3h3.9V378l1.8-.4V375z" class="st77"/><circle cx="189.5" cy="144.5" r="14.1" class="st78"/><circle cx="190.2" cy="358.2" r="14.1" class="st78"/><circle cx="595.9" cy="347.5" r="14.1" class="st78" transform="rotate(-45.001 595.891 347.485)"/><circle cx="495.1" cy="347.5" r="14.1" class="st78" transform="rotate(-22.5 495.033 347.463)"/><path d="M199 147.8c-1.1.1-2.1.1-3.8.1-1.4 0-1.8-.7-1.8-3.4s.4-3.4 1.8-3.4c1.6 0 2.4 0 3.5.1l.2-2.4c-1.1-.3-2-.4-3.8-.4-3.8 0-5.3 1.6-5.3 6.2s1.4 6.2 5.3 6.2c1.8 0 2.9-.1 4.1-.5l-.2-2.5zm-18.7-6.9h3.3c1.2 0 1.6.2 1.6 1.1 0 .8-.1 1.3-1.4 1.3h-2.3v2.1h2.3c1.3 0 1.6.4 1.6 1.4 0 1.2-.5 1.4-2 1.4-1 0-1.8 0-3.3-.1l-.1 2.3c1.4.2 2.9.3 4.3.3 3.2 0 4.3-1 4.3-3.6 0-1.8-.5-2.7-2.2-3v-.1c1.5-.2 1.9-1.3 1.9-3 0-2.1-1.1-2.8-4.1-2.8-1.3 0-2.7.1-4 .3l.1 2.4zm13.2 218.3 2.8 5.1h3.6l-3-5.1c-.3-.5-.8-.9-1.1-1.1v-.1c.3-.2.7-.5 1-1l2.9-4.7h-3.5l-2.7 4.7h-.8c.1-.5.1-1 .1-1.5v-3.2h-3.3v12h3.3v-4c0-.3-.1-.7-.1-1.1h.8zm-6.4 5.1v-12h-3.3l-3 1.2.4 2.1 2.8-.6c-.1.5-.1 1-.1 1.4v7.9h3.2zm415.4-17c2.4-.3 2.5-1.4 3.8-5.7H603c-.9 3.6-1.2 4.7-2.9 4.7h-.6c.1-.5.1-1 .1-1.5v-3.2h-3.3v12h3.3v-4c0-.3-.1-.7-.1-1.1h.6c1.7 0 1.8.8 3 5.1h3.4c-1.5-4.9-1.6-5.9-4.1-6.2v-.1zm-16.6-3.1c1.7-.1 2.5-.1 3.8-.1.9 0 1.3.1 1.3.6 0 .7-.8 1.8-2.1 3.1l-2.7 2.8c-.3.4-.5.8-.5 1.3v1.7h8.9v-2.8h-3.5c-.6 0-1.1 0-1.7.2l3-2.9c1.6-1.7 1.9-2.4 1.9-3.7 0-2.3-1.7-2.9-4.2-2.9-1.3 0-2.5.1-4.3.4l.1 2.3zm-85.5 3.1c2.4-.3 2.5-1.4 3.8-5.7h-3.3c-.9 3.6-1.2 4.7-2.9 4.7h-.6c.1-.5.1-1 .1-1.5v-3.2h-3.3v12h3.3v-4c0-.3-.1-.7-.1-1.1h.6c1.7 0 1.8.8 3 5.1h3.4c-1.5-4.9-1.6-5.9-4.1-6.2v-.1zm-8.6 6.3v-12h-3.3l-3 1.2.4 2.1 2.8-.6c-.1.5-.1 1-.1 1.4v7.9h3.2z" class="st77"/><path d="M598.1 275.3H617v20.4h-18.9z" class="st4"/><defs><path id="SVGID_97_" d="M30.2 29.7h619.6v481.6H30.2z"/></defs><clipPath id="SVGID_98_"><use xlink:href="#SVGID_97_" style="overflow:visible"/></clipPath><path d="M633.3 292s5.7 0 5.7-5.7v-34s0-5.7-5.7-5.7h-7.6s-5.7 0-5.7 5.7v34s0 5.7 5.7 5.7h7.6z" class="st79"/><path d="M631.6 288.8s5.7 0 5.7-5.7v-27.7s0-5.7-5.7-5.7h-4.1s-5.7 0-5.7 5.7v27.7s0 5.7 5.7 5.7h4.1z" class="st79"/><path d="M632.7 285s2.8 0 2.8-2.8v-27.8s0-2.8-2.8-2.8h-6.3s-2.8 0-2.8 2.8v27.8s0 2.8 2.8 2.8h6.3z" class="st79"/><path d="M629.5 254.9c-.5 0-.8.4-.8.8s.4.8.8.8c.5 0 .8-.4.8-.8s-.3-.8-.8-.8z" class="st79"/><path d="M619 294.5v-50.6" class="st40"/><path d="M246.5 37.4h49.3v12.5h-49.3zm71.4 0h49.3v12.5h-49.3zm69.2 0h49.3v12.5h-49.3z" class="st4"/><path d="M286.8 324.4h57v3.2h-57z" class="st5"/><path d="M340.7 324.4h57v3.2h-57zm0 58.1h57v3.2h-57z" class="st5"/><path d="M286.8 382.5h57v3.2h-57zm0-56.6h3.9v23.7h-3.9z" class="st5"/><path d="M286.8 366.4h3.9v19.3h-3.9zm106.9-.8h3.9v20.1h-3.9z" class="st5"/><path d="M395.8 375.7h9.7v3.2h-9.7zm-115.8 0h8.8v3.2H280zm-37.3 0h14v3.2h-14zm186.7 0h12.8v3.2h-12.8zm-35.7-51.3h3.9v25.3h-3.9z" class="st5"/><path d="M291.8 364.3h13.1v19.6h-13.1zm87.4 0h13.1v19.6h-13.1z" class="st4"/><path d="m31.062 114.226 12.445-12.445 10.253 10.253-12.445 12.445zm.723 336.028 8.697-8.697 12.021 12.02-8.697 8.698z" class="st5"/><defs><path id="SVGID_99_" d="M30.2 29.7h619.6v481.6H30.2z"/></defs><clipPath id="SVGID_100_"><use xlink:href="#SVGID_99_" style="overflow:visible"/></clipPath><path d="M512 76.4c.8.4 1.1 1.4 1.1 3 0 1.5-.3 2.6-1.1 3l.2.6c1.6-.4 2.3-1.6 2.3-3.6s-.7-3.1-2.3-3.6l-.2.6zm0 3.3h-.6v-2.1h-1.1l-.2.8v1.3h-1c-.1 0-.2-.1-.1-.2l1.1-2.9h-1.3l-1.3 3.3c-.2.4.1.8.5.8h2.1v1.1h1.3v-1.1l.6-.1v-.9zm-5.7.8c-.4 0-.5.1-.5.5v.3c0 .4.1.5.5.5h.3c.4 0 .5-.1.5-.5V81c0-.4-.1-.5-.5-.5h-.3zm-1-.8h-.6v-2.1h-1.1l-.2.8v1.3h-1c-.1 0-.2-.1-.1-.2l1.1-2.9h-1.3l-1.3 3.3c-.2.4.1.8.5.8h2.1v1.1h1.3v-1.1l.6-.1v-.9zm-4.6-3.9c-1.6.4-2.3 1.6-2.3 3.6s.7 3.1 2.3 3.6l.2-.6c-.8-.4-1.1-1.5-1.1-3 0-1.6.3-2.6 1.1-3l-.2-.6zm-6.5 3.7c.6 0 .7.1.7.7 0 .5-.1.6-.7.6s-.7-.1-.7-.6.1-.7.7-.7m0-2.1c.5 0 .6.1.6.6s-.1.6-.6.6-.7-.1-.7-.6c.1-.5.2-.6.7-.6m-1.1 1.7c-.7.1-.9.7-.9 1.4 0 1 .4 1.4 2 1.4s2-.4 2-1.4c0-.7-.2-1.3-.9-1.4.6-.1.8-.6.8-1.2 0-1-.3-1.4-1.9-1.4-1.6 0-1.9.4-1.9 1.4 0 .5.2 1.1.8 1.2zm-2.4 1.4c-.4 0-.5.1-.5.5v.3c0 .4.1.5.5.5h.3c.4 0 .5-.1.5-.5V81c0-.4-.1-.5-.5-.5h-.3zm-3.1-1c.6 0 .7.1.7.7 0 .5-.1.6-.7.6s-.7-.1-.7-.6.1-.7.7-.7m0-2.1c.5 0 .6.1.6.6s-.1.6-.6.6-.7-.1-.7-.6c.1-.5.2-.6.7-.6m-1.1 1.7c-.7.1-.9.7-.9 1.4 0 1 .4 1.4 2 1.4s2-.4 2-1.4c0-.7-.2-1.3-.9-1.4.6-.1.8-.6.8-1.2 0-1-.3-1.4-1.9-1.4-1.6 0-1.9.4-1.9 1.4 0 .5.2 1.1.8 1.2zm-289.2-2.7c.8.4 1.1 1.4 1.1 3 0 1.5-.3 2.6-1.1 3l.2.6c1.6-.4 2.3-1.6 2.3-3.6s-.7-3.1-2.3-3.6l-.2.6zm0 3.3h-.6v-2.1h-1.1l-.2.8v1.3h-1c-.1 0-.2-.1-.1-.2l1.1-2.9h-1.3l-1.3 3.3c-.2.4.1.8.5.8h2.1v1.1h1.3v-1.1l.6-.1v-.9zm-5.8.8c-.4 0-.5.1-.5.5v.3c0 .4.1.5.5.5h.3c.4 0 .5-.1.5-.5V81c0-.4-.1-.5-.5-.5h-.3zm-1-.8h-.6v-2.1h-1.1l-.2.8v1.3h-1c-.1 0-.2-.1-.1-.2l1.1-2.9h-1.3l-1.3 3.3c-.2.4.1.8.5.8h2.1v1.1h1.3v-1.1l.6-.1v-.9zm-4.6-3.9c-1.6.4-2.3 1.6-2.3 3.6s.7 3.1 2.3 3.6l.2-.6c-.8-.4-1.1-1.5-1.1-3 0-1.6.3-2.6 1.1-3l-.2-.6zm-6.4 3.7c.6 0 .7.1.7.7 0 .5-.1.6-.7.6s-.7-.1-.7-.6.1-.7.7-.7m0-2.1c.5 0 .6.1.6.6s-.1.6-.6.6-.7-.1-.7-.6.2-.6.7-.6m-1.1 1.7c-.7.1-.9.7-.9 1.4 0 1 .4 1.4 2 1.4s2-.4 2-1.4c0-.7-.2-1.3-.9-1.4.6-.1.8-.6.8-1.2 0-1-.3-1.4-1.9-1.4-1.6 0-1.9.4-1.9 1.4 0 .5.2 1.1.8 1.2zm-2.4 1.4c-.4 0-.5.1-.5.5v.3c0 .4.1.5.5.5h.3c.4 0 .5-.1.5-.5V81c0-.4-.1-.5-.5-.5h-.3zm-3.1-1c.6 0 .7.1.7.7 0 .5-.1.6-.7.6s-.7-.1-.7-.6c-.1-.5.1-.7.7-.7m0-2.1c.5 0 .6.1.6.6s-.1.6-.6.6-.7-.1-.7-.6.1-.6.7-.6m-1.2 1.7c-.7.1-.9.7-.9 1.4 0 1 .4 1.4 2 1.4s2-.4 2-1.4c0-.7-.2-1.3-.9-1.4.6-.1.8-.6.8-1.2 0-1-.3-1.4-1.9-1.4-1.6 0-1.9.4-1.9 1.4.1.5.3 1.1.8 1.2zm231.2 404.2c.8.4 1.1 1.4 1.1 3 0 1.5-.3 2.6-1.1 3l.2.6c1.6-.4 2.3-1.6 2.3-3.6s-.7-3.1-2.3-3.6l-.2.6zm-.6 1.2.1-1h-3.2l-.1 2.3c0 .2.2.4.4.5l.8.1c.7.1.9.2.9.6 0 .4-.2.6-.9.6-.4 0-.8 0-1.3-.1l-.1 1.1c.7.1 1.3.1 1.8.1 1.5 0 1.9-.8 1.9-1.7 0-.8-.3-1.6-1.5-1.7l-.9-.1.1-.7h2zm-4.8 2.8c-.4 0-.5.1-.5.5v.3c0 .4.1.5.5.5h.3c.4 0 .5-.1.5-.5v-.3c0-.4-.1-.5-.5-.5h-.3zm-1-.7h-.6v-2.1h-1.1l-.2.8v1.3h-1c-.1 0-.2-.1-.1-.2l1.1-2.9h-1.3l-1.3 3.3c-.2.4.1.8.5.8h2.1v1.1h1.3v-1.1l.6-.1v-.9zm-4.6-3.9c-1.6.4-2.3 1.6-2.3 3.6s.7 3.1 2.3 3.6l.2-.6c-.8-.4-1.1-1.5-1.1-3 0-1.6.3-2.6 1.1-3l-.2-.6zm-7 2.5c0-.6.1-.9.6-.9.6 0 .6.2.7 1.3-.2.1-.4.2-.7.2-.5.1-.6-.1-.6-.6m-1.1 3.3c.6.1 1.2.1 1.4.1 1.6 0 2.3-.4 2.3-2.7 0-2.1-.3-2.6-2-2.6-1.5 0-1.9.6-1.9 1.9 0 .9.3 1.6 1.5 1.6.5 0 .8-.1 1.1-.3 0 .9-.2 1.1-.9 1.1h-1.4l-.1.9zm-1.6-1.2c-.4 0-.5.1-.5.5v.3c0 .4.1.5.5.5h.3c.4 0 .5-.1.5-.5v-.3c0-.4-.1-.5-.5-.5h-.3zm-3.1-.9c.6 0 .7.1.7.7 0 .5-.1.6-.7.6s-.7-.1-.7-.6c-.1-.6.1-.7.7-.7m0-2.1c.5 0 .6.1.6.6s-.1.6-.6.6-.7-.1-.7-.6.1-.6.7-.6m-1.1 1.6c-.7.1-.9.7-.9 1.4 0 1 .4 1.4 2 1.4s2-.4 2-1.4c0-.7-.2-1.3-.9-1.4.6-.1.8-.6.8-1.2 0-1-.3-1.4-1.9-1.4-1.6 0-1.9.4-1.9 1.4 0 .6.2 1.1.8 1.2zm-73.5-2.6c.8.4 1.1 1.4 1.1 3 0 1.5-.3 2.6-1.1 3l.2.6c1.6-.4 2.3-1.6 2.3-3.6s-.7-3.1-2.3-3.6l-.2.6zm-.5 1.2.1-1h-3.2l-.1 2.3c0 .2.2.4.4.5l.8.1c.7.1.9.2.9.6 0 .4-.2.6-.9.6-.4 0-.8 0-1.3-.1l-.1 1.1c.7.1 1.3.1 1.8.1 1.5 0 1.9-.8 1.9-1.7 0-.8-.3-1.6-1.5-1.7l-.9-.1.1-.7h2zm-4.8 2.8c-.4 0-.5.1-.5.5v.3c0 .4.1.5.5.5h.3c.4 0 .5-.1.5-.5v-.3c0-.4-.1-.5-.5-.5h-.3zm-1-.7h-.6v-2.1h-1.1l-.2.8v1.3h-1c-.1 0-.2-.1-.1-.2l1.1-2.9H295l-1.3 3.3c-.2.4.1.8.5.8h2.1v1.1h1.3v-1.1l.6-.1v-.9zm-4.6-3.9c-1.6.4-2.3 1.6-2.3 3.6s.7 3.1 2.3 3.6l.2-.6c-.8-.4-1.1-1.5-1.1-3 0-1.6.3-2.6 1.1-3l-.2-.6zm-7 2.5c0-.6.1-.9.6-.9.6 0 .6.2.7 1.3-.2.1-.4.2-.7.2-.5.1-.7-.1-.6-.6m-1.2 3.3c.6.1 1.2.1 1.4.1 1.6 0 2.3-.4 2.3-2.7 0-2.1-.3-2.6-2-2.6-1.5 0-1.9.6-1.9 1.9 0 .9.3 1.6 1.5 1.6.5 0 .8-.1 1.1-.3 0 .9-.2 1.1-.9 1.1h-1.4l-.1.9zm-1.5-1.2c-.4 0-.5.1-.5.5v.3c0 .4.1.5.5.5h.3c.4 0 .5-.1.5-.5v-.3c0-.4-.1-.5-.5-.5h-.3zm-3.2-.9c.6 0 .7.1.7.7 0 .5-.1.6-.7.6s-.7-.1-.7-.6c0-.6.1-.7.7-.7m0-2.1c.5 0 .6.1.6.6s-.1.6-.6.6-.7-.1-.7-.6c.1-.5.2-.6.7-.6m-1.1 1.6c-.7.1-.9.7-.9 1.4 0 1 .4 1.4 2 1.4s2-.4 2-1.4c0-.7-.2-1.3-.9-1.4.6-.1.8-.6.8-1.2 0-1-.3-1.4-1.9-1.4-1.6 0-1.9.4-1.9 1.4 0 .6.3 1.1.8 1.2z" style="clip-path:url(#SVGID_100_);fill:#39373a"/></g></switch></svg>