<?xml version="1.0" encoding="utf-8"?>
<!-- Generator: Adobe Illustrator 26.3.1, SVG Export Plug-In . SVG Version: 6.00 Build 0)  -->
<svg version="1.1" id="Слой_1" xmlns="http://www.w3.org/2000/svg" xmlns:xlink="http://www.w3.org/1999/xlink" x="0px" y="0px"
	 viewBox="0 0 443 358" style="enable-background:new 0 0 443 358;" xml:space="preserve">
<style type="text/css">
	.st0{fill:#FFF5A4;}
	.st1{fill:#39373A;}
	.st2{clip-path:url(#SVGID_00000091002016383650123670000010312304911846735750_);fill:none;stroke:#39373A;stroke-width:0.669;}
	.st3{fill:#FFFFFF;}
	.st4{fill:none;stroke:#39373A;stroke-width:0.669;}
	.st5{clip-path:url(#SVGID_00000027564575064006050920000003918323647643905705_);fill:none;stroke:#39373A;stroke-width:0.669;}
	.st6{clip-path:url(#SVGID_00000161614093417901630950000007317408807485676942_);fill:none;stroke:#39373A;stroke-width:0.446;}
	.st7{clip-path:url(#SVGID_00000115502988663699635900000009231804802751288973_);fill:none;stroke:#39373A;stroke-width:0.669;}
	.st8{fill:none;stroke:#39373A;stroke-width:1.116;stroke-dasharray:4.81,4.81;}
	.st9{fill:none;stroke:#39373A;stroke-width:1.116;stroke-dasharray:4.734,4.734;}
	.st10{fill:none;stroke:#39373A;stroke-width:1.116;}
	.st11{fill:none;stroke:#39373A;stroke-width:0.244;}
	.st12{clip-path:url(#SVGID_00000077314429401153719620000015081314063516888199_);fill:#39373A;}
	.st13{clip-path:url(#SVGID_00000077314429401153719620000015081314063516888199_);fill:none;stroke:#39373A;stroke-width:0.244;}
	.st14{clip-path:url(#SVGID_00000107582675063521938460000014511290689879518348_);fill:#39373A;}
	.st15{clip-path:url(#SVGID_00000107582675063521938460000014511290689879518348_);fill:none;stroke:#39373A;stroke-width:0.244;}
	.st16{clip-path:url(#SVGID_00000107582675063521938460000014511290689879518348_);fill:none;stroke:#39373A;stroke-width:0.236;}
	.st17{clip-path:url(#SVGID_00000151501570333216209300000000485752814069593737_);fill:#39373A;}
	.st18{clip-path:url(#SVGID_00000151501570333216209300000000485752814069593737_);fill:none;stroke:#39373A;stroke-width:0.309;}
	.st19{fill:none;stroke:#39373A;stroke-width:0.309;}
	.st20{clip-path:url(#SVGID_00000147209744063096994080000004368696768717196718_);fill:#39373A;}
	.st21{clip-path:url(#SVGID_00000147209744063096994080000004368696768717196718_);fill:none;stroke:#39373A;stroke-width:0.309;}
	.st22{clip-path:url(#SVGID_00000147209744063096994080000004368696768717196718_);fill:none;stroke:#39373A;stroke-width:0.236;}
	.st23{clip-path:url(#SVGID_00000161622104490543933150000006596615779480307106_);fill:#39373A;}
	.st24{clip-path:url(#SVGID_00000161622104490543933150000006596615779480307106_);fill:none;stroke:#39373A;stroke-width:0.309;}
	.st25{clip-path:url(#SVGID_00000161622104490543933150000006596615779480307106_);fill:none;stroke:#39373A;stroke-width:0.904;}
	.st26{clip-path:url(#SVGID_00000155112555631644739060000014228154602402220165_);fill:none;stroke:#39373A;stroke-width:0.446;}
	.st27{clip-path:url(#SVGID_00000178921030679900620730000014892154081370953644_);fill:none;stroke:#39373A;stroke-width:0.446;}
	.st28{clip-path:url(#SVGID_00000139261794752799582240000010509253583800363160_);fill:none;stroke:#39373A;stroke-width:0.446;}
	.st29{clip-path:url(#SVGID_00000140719706267819053330000009088450470448844165_);fill:none;stroke:#39373A;stroke-width:0.446;}
	.st30{clip-path:url(#SVGID_00000177468100925712639510000016081474607960908702_);fill:none;stroke:#39373A;stroke-width:0.446;}
	.st31{clip-path:url(#SVGID_00000059303744113574180630000014261023341160829078_);fill:none;stroke:#39373A;stroke-width:0.446;}
	.st32{clip-path:url(#SVGID_00000171700759184493255230000000403067958375635615_);fill:none;stroke:#39373A;stroke-width:0.446;}
	.st33{clip-path:url(#SVGID_00000161627213588753110250000014278595800968013236_);fill:none;stroke:#39373A;stroke-width:0.446;}
	.st34{clip-path:url(#SVGID_00000029040483797630074620000018119355125773432982_);fill:none;stroke:#39373A;stroke-width:0.446;}
	.st35{clip-path:url(#SVGID_00000029040483797630074620000018119355125773432982_);fill:none;stroke:#39373A;stroke-width:0.567;}
	.st36{clip-path:url(#SVGID_00000142892112760656445560000001508558028904791220_);fill:#39373A;}
</style>
<rect x="75.4" y="39.8" class="st0" width="326.8" height="99.8"/>
<rect x="75.4" y="72.2" class="st0" width="301.5" height="158.3"/>
<rect x="75.4" y="91.7" class="st0" width="128.1" height="158.3"/>
<rect x="75.4" y="135.7" class="st0" width="95.9" height="158.3"/>
<rect x="75.4" y="233.7" class="st0" width="56.4" height="94.5"/>
<rect x="199.5" y="228.6" class="st1" width="7.5" height="27.6"/>
<rect x="59.3" y="22.9" class="st1" width="360.3" height="18.7"/>
<rect x="411.2" y="33.2" class="st1" width="8.4" height="41.4"/>
<rect x="411.2" y="116.9" class="st1" width="8.4" height="31.5"/>
<rect x="401.8" y="31.4" class="st1" width="10.2" height="41.4"/>
<rect x="401.8" y="118.9" class="st1" width="10.2" height="29.5"/>
<rect x="368.9" y="129.7" class="st1" width="40.7" height="18.7"/>
<rect x="282.1" y="130.5" class="st1" width="28.6" height="6.7"/>
<rect x="278.2" y="38.3" class="st1" width="8.1" height="34.1"/>
<rect x="191.4" y="38.3" class="st1" width="8.1" height="34.1"/>
<rect x="191.4" y="70" class="st1" width="4.4" height="34.5"/>
<rect x="191.4" y="126.8" class="st1" width="4.4" height="6.7"/>
<rect x="282.1" y="69.4" class="st1" width="4.1" height="34.1"/>
<rect x="220.3" y="94.1" class="st1" width="37.1" height="4.1"/>
<rect x="192.8" y="94.1" class="st1" width="10.7" height="4.1"/>
<rect x="167.2" y="130.4" class="st1" width="28.6" height="8.1"/>
<rect x="273.6" y="94.1" class="st1" width="11.5" height="4.1"/>
<rect x="282.1" y="123.4" class="st1" width="4.1" height="11.5"/>
<rect x="224.9" y="39.8" class="st1" width="4.1" height="57"/>
<rect x="227.3" y="134.5" class="st1" width="163.3" height="4"/>
<rect x="70" y="134.5" class="st1" width="134.7" height="4"/>
<g>
	<defs>
		<rect id="SVGID_1_" x="23.9" y="22.9" width="396" height="313"/>
	</defs>
	<clipPath id="SVGID_00000054984744427050241930000014099357487575925688_">
		<use xlink:href="#SVGID_1_"  style="overflow:visible;"/>
	</clipPath>
	
		<rect x="402.1" y="67.9" style="clip-path:url(#SVGID_00000054984744427050241930000014099357487575925688_);fill:none;stroke:#39373A;stroke-width:0.669;" width="17.2" height="56.7"/>
</g>
<rect x="59.3" y="32.4" class="st1" width="8.4" height="41.4"/>
<rect x="67" y="30.6" class="st1" width="8.9" height="41.4"/>
<rect x="69.3" y="129.1" class="st1" width="6.5" height="206.8"/>
<rect x="24.2" y="134.2" class="st1" width="48.5" height="8.1"/>
<rect x="127.1" y="292.8" class="st1" width="8.2" height="43.1"/>
<rect x="127.1" y="273.4" class="st1" width="4.7" height="60.1"/>
<rect x="127.1" y="243.3" class="st1" width="4.7" height="14.7"/>
<rect x="127.1" y="213" class="st1" width="4.7" height="6.1"/>
<rect x="130.6" y="248.3" class="st1" width="48.3" height="4.1"/>
<rect x="73.4" y="213" class="st1" width="58.3" height="4.1"/>
<rect x="85.9" y="202" class="st1" width="26.8" height="12.6"/>
<rect x="75.5" y="202" class="st1" width="12.3" height="0.7"/>
<rect x="167.5" y="248.3" class="st1" width="39.5" height="7.9"/>
<rect x="368.9" y="221.6" class="st1" width="10.7" height="15"/>
<rect x="386.4" y="231.2" class="st1" width="33.4" height="4.2"/>
<rect x="376.9" y="219.8" class="st1" width="9.9" height="16.8"/>
<rect x="131.8" y="292.8" class="st1" width="42.9" height="4.8"/>
<rect x="149.3" y="289" class="st1" width="25.4" height="8.7"/>
<rect x="217.9" y="248.7" class="st3" width="8.2" height="3.5"/>
<rect x="207" y="235.4" class="st3" width="19.1" height="9.8"/>
<rect x="199.5" y="228.6" class="st1" width="187" height="7.9"/>
<rect x="167.9" y="253.3" class="st1" width="6.8" height="39.5"/>
<rect x="121.7" y="328.3" class="st1" width="11.1" height="7.7"/>
<rect x="72.6" y="328.3" class="st1" width="24" height="7.7"/>
<rect x="59.3" y="127.4" class="st1" width="10.6" height="8.1"/>
<rect x="59.7" y="67.1" class="st4" width="15.9" height="39.2"/>
<rect x="67.4" y="64.7" class="st4" width="1.6" height="41.4"/>
<rect x="89.7" y="205.7" class="st3" width="4.8" height="7.9"/>
<rect x="97" y="205.7" class="st3" width="11.5" height="7.9"/>
<rect x="377.2" y="151.1" class="st4" width="2.1" height="19.3"/>
<rect x="377.2" y="173.5" class="st4" width="2.1" height="24.1"/>
<g>
	<defs>
		<rect id="SVGID_00000023977085397255268350000002705376693943037345_" x="23.9" y="22.9" width="396" height="313"/>
	</defs>
	<clipPath id="SVGID_00000039115094867243253320000000605814369079724419_">
		<use xlink:href="#SVGID_00000023977085397255268350000002705376693943037345_"  style="overflow:visible;"/>
	</clipPath>
	
		<rect x="415.8" y="144.9" style="clip-path:url(#SVGID_00000039115094867243253320000000605814369079724419_);fill:none;stroke:#39373A;stroke-width:0.669;" width="3.5" height="88.8"/>
</g>
<rect x="377.2" y="148.7" class="st4" width="2.1" height="1.7"/>
<rect x="377.2" y="171.1" class="st4" width="2.1" height="1.7"/>
<rect x="377.2" y="198.3" class="st4" width="2.1" height="1.7"/>
<rect x="372.4" y="203" transform="matrix(0.866 -0.5 0.5 0.866 -57.1324 215.1422)" class="st4" width="1" height="22.4"/>
<g>
	<defs>
		<rect id="SVGID_00000032610451163944296900000013519763591986412991_" x="23.9" y="22.9" width="396" height="313"/>
	</defs>
	<clipPath id="SVGID_00000078767507349661539470000002477781286344246178_">
		<use xlink:href="#SVGID_00000032610451163944296900000013519763591986412991_"  style="overflow:visible;"/>
	</clipPath>
	
		<path style="clip-path:url(#SVGID_00000078767507349661539470000002477781286344246178_);fill:none;stroke:#39373A;stroke-width:0.446;" d="
		M366.6,204.9c0,0,1.8-1.6,5.7-3c3.5-1.3,7.4-1.4,7.4-1.4"/>
</g>
<rect x="23.9" y="22.9" class="st1" width="48.7" height="4.8"/>
<rect x="23.9" y="22.9" class="st1" width="3.4" height="22.8"/>
<g>
	<defs>
		<rect id="SVGID_00000024721741514347340490000007444241807190045862_" x="23.9" y="22.9" width="396" height="313"/>
	</defs>
	<clipPath id="SVGID_00000016071965898620626760000009798695215805456529_">
		<use xlink:href="#SVGID_00000024721741514347340490000007444241807190045862_"  style="overflow:visible;"/>
	</clipPath>
	
		<rect x="24.3" y="35.9" style="clip-path:url(#SVGID_00000016071965898620626760000009798695215805456529_);fill:none;stroke:#39373A;stroke-width:0.669;" width="2.7" height="101.6"/>
</g>
<rect x="198.6" y="46.4" class="st1" width="6.7" height="4.4"/>
<rect x="203.7" y="46.4" class="st1" width="21.8" height="11.6"/>
<rect x="206.7" y="49.8" class="st3" width="5" height="5"/>
<rect x="213.3" y="49.8" class="st3" width="5" height="5"/>
<rect x="219.9" y="49.8" class="st3" width="5" height="5"/>
<line class="st8" x1="137.8" y1="213.6" x2="183.5" y2="213.6"/>
<line class="st9" x1="188.3" y1="206.5" x2="188.3" y2="142.5"/>
<path class="st10" d="M188.3,140.2v-2.4 M185.9,213.6h2.4v-2.4 M130.6,213.6h2.4"/>
<path class="st1" d="M76.3,201.2h15.9v-15.9H76.3V201.2z M76,185h16.6v16.6H76V185z"/>
<path class="st11" d="M76.3,201.2h15.9v-15.9H76.3V201.2z M76,185h16.6v16.6H76V185z"/>
<g>
	<defs>
		<rect id="SVGID_00000011030852003676454770000012436489515957087639_" x="23.9" y="22.9" width="396" height="313"/>
	</defs>
	<clipPath id="SVGID_00000182502827770767725660000007366272211127531957_">
		<use xlink:href="#SVGID_00000011030852003676454770000012436489515957087639_"  style="overflow:visible;"/>
	</clipPath>
	<path style="clip-path:url(#SVGID_00000182502827770767725660000007366272211127531957_);fill:#39373A;" d="M90.8,187.7
		c0-0.4-0.3-0.7-0.7-0.7h-8.3c-0.4,0-0.7,0.3-0.7,0.7v11.1c0,0.4,0.3,0.7,0.7,0.7H90c0.4,0,0.7-0.3,0.7-0.7V187.7z M80.6,198.8
		v-11.1c0-0.6,0.5-1.1,1.1-1.1H90c0.6,0,1.1,0.5,1.1,1.1v11.1c0,0.6-0.5,1.1-1.1,1.1h-8.3C81.1,199.9,80.6,199.4,80.6,198.8"/>
	
		<path style="clip-path:url(#SVGID_00000182502827770767725660000007366272211127531957_);fill:none;stroke:#39373A;stroke-width:0.244;" d="
		M90.8,187.7c0-0.4-0.3-0.7-0.7-0.7h-8.3c-0.4,0-0.7,0.3-0.7,0.7v11.1c0,0.4,0.3,0.7,0.7,0.7H90c0.4,0,0.7-0.3,0.7-0.7V187.7z
		 M80.6,198.8v-11.1c0-0.6,0.5-1.1,1.1-1.1H90c0.6,0,1.1,0.5,1.1,1.1v11.1c0,0.6-0.5,1.1-1.1,1.1h-8.3
		C81.1,199.9,80.6,199.4,80.6,198.8z"/>
</g>
<path class="st1" d="M82.2,198.3h7.3v-10.1h-7.3V198.3z M81.9,187.9h8v10.8h-8V187.9z"/>
<path class="st11" d="M82.2,198.3h7.3v-10.1h-7.3V198.3z M81.9,187.9h8v10.8h-8V187.9z"/>
<g>
	<defs>
		<rect id="SVGID_00000022518307876692567850000009897279236874563518_" x="23.9" y="22.9" width="396" height="313"/>
	</defs>
	<clipPath id="SVGID_00000113353811347289016850000008741369983475005112_">
		<use xlink:href="#SVGID_00000022518307876692567850000009897279236874563518_"  style="overflow:visible;"/>
	</clipPath>
	<path style="clip-path:url(#SVGID_00000113353811347289016850000008741369983475005112_);fill:#39373A;" d="M87.3,193.3
		c0-0.5-0.4-0.9-0.9-0.9c-0.5,0-0.9,0.4-0.9,0.9c0,0.5,0.4,0.9,0.9,0.9C86.9,194.2,87.3,193.8,87.3,193.3 M85.1,193.3
		c0-0.7,0.6-1.3,1.3-1.3s1.3,0.6,1.3,1.3c0,0.7-0.6,1.3-1.3,1.3S85.1,194,85.1,193.3"/>
	
		<path style="clip-path:url(#SVGID_00000113353811347289016850000008741369983475005112_);fill:none;stroke:#39373A;stroke-width:0.244;" d="
		M87.3,193.3c0-0.5-0.4-0.9-0.9-0.9c-0.5,0-0.9,0.4-0.9,0.9c0,0.5,0.4,0.9,0.9,0.9C86.9,194.2,87.3,193.8,87.3,193.3z M85.1,193.3
		c0-0.7,0.6-1.3,1.3-1.3s1.3,0.6,1.3,1.3c0,0.7-0.6,1.3-1.3,1.3S85.1,194,85.1,193.3z"/>
	<path style="clip-path:url(#SVGID_00000113353811347289016850000008741369983475005112_);fill:#39373A;" d="M240.8,68
		c0-2.8-2.3-5.1-5.1-5.1h-5.4c-0.4,0-0.8,0.4-0.8,0.8v11.6c0,0.4,0.3,0.8,0.8,0.8h5.4c2.8,0,5.1-2.3,5.1-5.1V68z M229.2,75.2V63.7
		c0-0.6,0.5-1.1,1.1-1.1h5.4c3,0,5.4,2.4,5.4,5.4v2.9c0,3-2.4,5.4-5.4,5.4h-5.4C229.7,76.3,229.2,75.8,229.2,75.2"/>
	
		<path style="clip-path:url(#SVGID_00000113353811347289016850000008741369983475005112_);fill:none;stroke:#39373A;stroke-width:0.236;" d="
		M240.8,68c0-2.8-2.3-5.1-5.1-5.1h-5.4c-0.4,0-0.8,0.4-0.8,0.8v11.6c0,0.4,0.3,0.8,0.8,0.8h5.4c2.8,0,5.1-2.3,5.1-5.1V68z
		 M229.2,75.2V63.7c0-0.6,0.5-1.1,1.1-1.1h5.4c3,0,5.4,2.4,5.4,5.4v2.9c0,3-2.4,5.4-5.4,5.4h-5.4C229.7,76.3,229.2,75.8,229.2,75.2z
		"/>
	<path style="clip-path:url(#SVGID_00000113353811347289016850000008741369983475005112_);fill:#39373A;" d="M239.5,68
		c0-2.1-1.7-3.8-3.8-3.8h-3.2c-0.4,0-0.7,0.3-0.7,0.7v9.2c0,0.4,0.3,0.7,0.7,0.7h3.2c2.1,0,3.8-1.7,3.8-3.8V68z M231.6,74.1v-9.2
		c0-0.5,0.4-1,1-1h3.2c2.3,0,4.1,1.9,4.1,4.1v2.9c0,2.3-1.9,4.1-4.1,4.1h-3.2C232,75,231.6,74.6,231.6,74.1"/>
	
		<path style="clip-path:url(#SVGID_00000113353811347289016850000008741369983475005112_);fill:none;stroke:#39373A;stroke-width:0.236;" d="
		M239.5,68c0-2.1-1.7-3.8-3.8-3.8h-3.2c-0.4,0-0.7,0.3-0.7,0.7v9.2c0,0.4,0.3,0.7,0.7,0.7h3.2c2.1,0,3.8-1.7,3.8-3.8V68z
		 M231.6,74.1v-9.2c0-0.5,0.4-1,1-1h3.2c2.3,0,4.1,1.9,4.1,4.1v2.9c0,2.3-1.9,4.1-4.1,4.1h-3.2C232,75,231.6,74.6,231.6,74.1z"/>
	<path style="clip-path:url(#SVGID_00000113353811347289016850000008741369983475005112_);fill:#39373A;" d="M236.8,69.4
		c0-0.3-0.3-0.6-0.6-0.6c-0.4,0-0.6,0.3-0.6,0.6c0,0.4,0.3,0.6,0.6,0.6C236.5,70.1,236.8,69.8,236.8,69.4 M235.3,69.4
		c0-0.5,0.4-0.9,0.9-0.9c0.5,0,0.9,0.4,0.9,0.9c0,0.5-0.4,0.9-0.9,0.9C235.7,70.4,235.3,70,235.3,69.4"/>
	
		<path style="clip-path:url(#SVGID_00000113353811347289016850000008741369983475005112_);fill:none;stroke:#39373A;stroke-width:0.236;" d="
		M236.8,69.4c0-0.3-0.3-0.6-0.6-0.6c-0.4,0-0.6,0.3-0.6,0.6c0,0.4,0.3,0.6,0.6,0.6C236.5,70.1,236.8,69.8,236.8,69.4z M235.3,69.4
		c0-0.5,0.4-0.9,0.9-0.9c0.5,0,0.9,0.4,0.9,0.9c0,0.5-0.4,0.9-0.9,0.9C235.7,70.4,235.3,70,235.3,69.4z"/>
</g>
<rect x="229.4" y="77.6" class="st4" width="17.5" height="16.1"/>
<g>
	<defs>
		<rect id="SVGID_00000049906585165913016240000003570394050913813663_" x="23.9" y="22.9" width="396" height="313"/>
	</defs>
	<clipPath id="SVGID_00000096032693366305766780000001613991469452198570_">
		<use xlink:href="#SVGID_00000049906585165913016240000003570394050913813663_"  style="overflow:visible;"/>
	</clipPath>
	<path style="clip-path:url(#SVGID_00000096032693366305766780000001613991469452198570_);fill:#39373A;" d="M212.8,82.1
		c-2.9,0-5.2-2.4-5.2-5.3v-7.6c0-0.5,0.4-0.9,0.9-0.9h8.7c0.5,0,0.9,0.4,0.9,0.9v7.6C218,79.7,215.7,82.1,212.8,82.1 M217.1,67.9
		h-8.7c-0.7,0-1.3,0.6-1.3,1.3v7.6c0,3.1,2.5,5.6,5.6,5.6s5.6-2.5,5.6-5.6v-7.6C218.4,68.5,217.8,67.9,217.1,67.9"/>
	
		<path style="clip-path:url(#SVGID_00000096032693366305766780000001613991469452198570_);fill:none;stroke:#39373A;stroke-width:0.309;" d="
		M212.8,82.1c-2.9,0-5.2-2.4-5.2-5.3v-7.6c0-0.5,0.4-0.9,0.9-0.9h8.7c0.5,0,0.9,0.4,0.9,0.9v7.6C218,79.7,215.7,82.1,212.8,82.1z
		 M217.1,67.9h-8.7c-0.7,0-1.3,0.6-1.3,1.3v7.6c0,3.1,2.5,5.6,5.6,5.6s5.6-2.5,5.6-5.6v-7.6C218.4,68.5,217.8,67.9,217.1,67.9z"/>
	
		<path style="clip-path:url(#SVGID_00000096032693366305766780000001613991469452198570_);fill:none;stroke:#39373A;stroke-width:0.309;" d="
		M209,70.9h7.5c0.1,0,0.1,0,0.1,0.1v5.7c0,2.1-1.7,3.9-3.8,3.9c-2.1,0-3.8-1.7-3.8-3.9L209,70.9C208.9,70.9,209,70.9,209,70.9z"/>
	<path style="clip-path:url(#SVGID_00000096032693366305766780000001613991469452198570_);fill:#39373A;" d="M209.1,71h7.3v5.7
		c0,2-1.6,3.7-3.7,3.7c-2,0-3.7-1.7-3.7-3.7V71z M216.5,70.7H209c-0.1,0-0.3,0.1-0.3,0.3v5.7c0,2.2,1.8,4,4,4c2.2,0,4-1.8,4-4v-5.7
		C216.8,70.8,216.7,70.7,216.5,70.7"/>
	
		<path style="clip-path:url(#SVGID_00000096032693366305766780000001613991469452198570_);fill:none;stroke:#39373A;stroke-width:0.309;" d="
		M209.1,71h7.3v5.7c0,2-1.6,3.7-3.7,3.7c-2,0-3.7-1.7-3.7-3.7V71z M216.5,70.7H209c-0.1,0-0.3,0.1-0.3,0.3v5.7c0,2.2,1.8,4,4,4
		c2.2,0,4-1.8,4-4v-5.7C216.8,70.8,216.7,70.7,216.5,70.7z"/>
	<path style="clip-path:url(#SVGID_00000096032693366305766780000001613991469452198570_);fill:#39373A;" d="M212.8,76.7
		c-0.5,0-1-0.4-1-1c0-0.5,0.4-1,1-1c0.5,0,1,0.4,1,1C213.7,76.2,213.3,76.7,212.8,76.7 M212.8,74.4c-0.7,0-1.3,0.6-1.3,1.3
		s0.6,1.3,1.3,1.3c0.7,0,1.3-0.6,1.3-1.3S213.5,74.4,212.8,74.4"/>
	
		<path style="clip-path:url(#SVGID_00000096032693366305766780000001613991469452198570_);fill:none;stroke:#39373A;stroke-width:0.309;" d="
		M212.8,76.7c-0.5,0-1-0.4-1-1c0-0.5,0.4-1,1-1c0.5,0,1,0.4,1,1C213.7,76.2,213.3,76.7,212.8,76.7z M212.8,74.4
		c-0.7,0-1.3,0.6-1.3,1.3s0.6,1.3,1.3,1.3c0.7,0,1.3-0.6,1.3-1.3S213.5,74.4,212.8,74.4z"/>
</g>
<polygon class="st1" points="209.9,71.6 209.6,71.8 211.3,74.2 211.6,74 "/>
<polygon class="st19" points="209.9,71.6 209.6,71.8 211.3,74.2 211.6,74 "/>
<polygon class="st1" points="215.6,71.6 213.9,74 214.2,74.2 215.9,71.8 "/>
<polygon class="st19" points="215.6,71.6 213.9,74 214.2,74.2 215.9,71.8 "/>
<g>
	<defs>
		<rect id="SVGID_00000038385012853173243390000011178148417686297223_" x="23.9" y="22.9" width="396" height="313"/>
	</defs>
	<clipPath id="SVGID_00000175291158903646795880000013572379602685993879_">
		<use xlink:href="#SVGID_00000038385012853173243390000011178148417686297223_"  style="overflow:visible;"/>
	</clipPath>
	<path style="clip-path:url(#SVGID_00000175291158903646795880000013572379602685993879_);fill:#39373A;" d="M209.2,67.9
		c-0.8,0-1.4-0.7-1.4-1.5v-2c0-0.8,0.7-1.5,1.4-1.5h7.2c0.8,0,1.4,0.7,1.4,1.5v2c0,0.8-0.6,1.5-1.4,1.5H209.2z M216.4,62.6h-7.2
		c-1,0-1.8,0.8-1.8,1.8v2c0,1,0.8,1.8,1.8,1.8h7.2c1,0,1.8-0.8,1.8-1.8v-2C218.2,63.4,217.4,62.6,216.4,62.6"/>
	
		<path style="clip-path:url(#SVGID_00000175291158903646795880000013572379602685993879_);fill:none;stroke:#39373A;stroke-width:0.309;" d="
		M209.2,67.9c-0.8,0-1.4-0.7-1.4-1.5v-2c0-0.8,0.7-1.5,1.4-1.5h7.2c0.8,0,1.4,0.7,1.4,1.5v2c0,0.8-0.6,1.5-1.4,1.5H209.2z
		 M216.4,62.6h-7.2c-1,0-1.8,0.8-1.8,1.8v2c0,1,0.8,1.8,1.8,1.8h7.2c1,0,1.8-0.8,1.8-1.8v-2C218.2,63.4,217.4,62.6,216.4,62.6z"/>
	<path style="clip-path:url(#SVGID_00000175291158903646795880000013572379602685993879_);fill:#39373A;" d="M212.8,66
		c-0.3,0-0.5-0.2-0.5-0.6c0-0.3,0.2-0.6,0.5-0.6c0.3,0,0.5,0.2,0.5,0.6C213.3,65.7,213.1,66,212.8,66 M212.8,64.5
		c-0.5,0-0.9,0.4-0.9,0.9c0,0.5,0.4,0.9,0.9,0.9c0.5,0,0.9-0.4,0.9-0.9C213.7,64.9,213.3,64.5,212.8,64.5"/>
	
		<path style="clip-path:url(#SVGID_00000175291158903646795880000013572379602685993879_);fill:none;stroke:#39373A;stroke-width:0.309;" d="
		M212.8,66c-0.3,0-0.5-0.2-0.5-0.6c0-0.3,0.2-0.6,0.5-0.6c0.3,0,0.5,0.2,0.5,0.6C213.3,65.7,213.1,66,212.8,66z M212.8,64.5
		c-0.5,0-0.9,0.4-0.9,0.9c0,0.5,0.4,0.9,0.9,0.9c0.5,0,0.9-0.4,0.9-0.9C213.7,64.9,213.3,64.5,212.8,64.5z"/>
	<path style="clip-path:url(#SVGID_00000175291158903646795880000013572379602685993879_);fill:#39373A;" d="M156.1,263
		c0,2.8,2.3,5.1,5.1,5.1h5.4c0.4,0,0.8-0.4,0.8-0.8v-11.6c0-0.4-0.3-0.8-0.8-0.8h-5.4c-2.8,0-5.1,2.3-5.1,5.1V263z M167.8,255.7
		v11.6c0,0.6-0.5,1.1-1.1,1.1h-5.4c-3,0-5.4-2.4-5.4-5.4v-2.9c0-3,2.4-5.4,5.4-5.4h5.4C167.3,254.7,167.8,255.2,167.8,255.7"/>
	
		<path style="clip-path:url(#SVGID_00000175291158903646795880000013572379602685993879_);fill:none;stroke:#39373A;stroke-width:0.236;" d="
		M156.1,263c0,2.8,2.3,5.1,5.1,5.1h5.4c0.4,0,0.8-0.4,0.8-0.8v-11.6c0-0.4-0.3-0.8-0.8-0.8h-5.4c-2.8,0-5.1,2.3-5.1,5.1V263z
		 M167.8,255.7v11.6c0,0.6-0.5,1.1-1.1,1.1h-5.4c-3,0-5.4-2.4-5.4-5.4v-2.9c0-3,2.4-5.4,5.4-5.4h5.4
		C167.3,254.7,167.8,255.2,167.8,255.7z"/>
	<path style="clip-path:url(#SVGID_00000175291158903646795880000013572379602685993879_);fill:#39373A;" d="M157.4,263
		c0,2.1,1.7,3.8,3.8,3.8h3.2c0.4,0,0.7-0.3,0.7-0.7v-9.2c0-0.4-0.3-0.7-0.7-0.7h-3.2c-2.1,0-3.8,1.7-3.8,3.8V263z M165.4,256.9v9.2
		c0,0.5-0.4,1-1,1h-3.2c-2.3,0-4.1-1.9-4.1-4.1v-2.9c0-2.3,1.9-4.1,4.1-4.1h3.2C164.9,256,165.4,256.4,165.4,256.9"/>
	
		<path style="clip-path:url(#SVGID_00000175291158903646795880000013572379602685993879_);fill:none;stroke:#39373A;stroke-width:0.236;" d="
		M157.4,263c0,2.1,1.7,3.8,3.8,3.8h3.2c0.4,0,0.7-0.3,0.7-0.7v-9.2c0-0.4-0.3-0.7-0.7-0.7h-3.2c-2.1,0-3.8,1.7-3.8,3.8V263z
		 M165.4,256.9v9.2c0,0.5-0.4,1-1,1h-3.2c-2.3,0-4.1-1.9-4.1-4.1v-2.9c0-2.3,1.9-4.1,4.1-4.1h3.2C164.9,256,165.4,256.4,165.4,256.9
		z"/>
	<path style="clip-path:url(#SVGID_00000175291158903646795880000013572379602685993879_);fill:#39373A;" d="M160.1,261.5
		c0,0.4,0.3,0.6,0.6,0.6c0.4,0,0.6-0.3,0.6-0.6s-0.3-0.6-0.6-0.6C160.4,260.9,160.1,261.2,160.1,261.5 M161.7,261.5
		c0,0.5-0.4,0.9-0.9,0.9c-0.5,0-0.9-0.4-0.9-0.9c0-0.5,0.4-0.9,0.9-0.9C161.2,260.6,161.7,261,161.7,261.5"/>
	
		<path style="clip-path:url(#SVGID_00000175291158903646795880000013572379602685993879_);fill:none;stroke:#39373A;stroke-width:0.236;" d="
		M160.1,261.5c0,0.4,0.3,0.6,0.6,0.6c0.4,0,0.6-0.3,0.6-0.6s-0.3-0.6-0.6-0.6C160.4,260.9,160.1,261.2,160.1,261.5z M161.7,261.5
		c0,0.5-0.4,0.9-0.9,0.9c-0.5,0-0.9-0.4-0.9-0.9c0-0.5,0.4-0.9,0.9-0.9C161.2,260.6,161.7,261,161.7,261.5z"/>
	<path style="clip-path:url(#SVGID_00000175291158903646795880000013572379602685993879_);fill:#39373A;" d="M147.8,267.6
		c2.9,0,5.2,2.4,5.2,5.3v7.6c0,0.5-0.4,0.9-0.9,0.9h-8.7c-0.5,0-0.9-0.4-0.9-0.9v-7.6C142.5,270,144.9,267.6,147.8,267.6
		 M143.4,281.8h8.7c0.7,0,1.3-0.6,1.3-1.3v-7.6c0-3.1-2.5-5.6-5.6-5.6s-5.6,2.5-5.6,5.6v7.6C142.2,281.2,142.7,281.8,143.4,281.8"/>
	
		<path style="clip-path:url(#SVGID_00000175291158903646795880000013572379602685993879_);fill:none;stroke:#39373A;stroke-width:0.309;" d="
		M147.8,267.6c2.9,0,5.2,2.4,5.2,5.3v7.6c0,0.5-0.4,0.9-0.9,0.9h-8.7c-0.5,0-0.9-0.4-0.9-0.9v-7.6
		C142.5,270,144.9,267.6,147.8,267.6z M143.4,281.8h8.7c0.7,0,1.3-0.6,1.3-1.3v-7.6c0-3.1-2.5-5.6-5.6-5.6s-5.6,2.5-5.6,5.6v7.6
		C142.2,281.2,142.7,281.8,143.4,281.8z"/>
	
		<path style="clip-path:url(#SVGID_00000175291158903646795880000013572379602685993879_);fill:none;stroke:#39373A;stroke-width:0.309;" d="
		M151.5,278.9H144c-0.1,0-0.1,0-0.1-0.1V273c0-2.1,1.7-3.9,3.8-3.9c2.1,0,3.8,1.7,3.8,3.9L151.5,278.9
		C151.6,278.8,151.6,278.9,151.5,278.9z"/>
	<path style="clip-path:url(#SVGID_00000175291158903646795880000013572379602685993879_);fill:#39373A;" d="M151.4,278.7h-7.3V273
		c0-2,1.6-3.7,3.7-3.7c2,0,3.7,1.7,3.7,3.7V278.7z M144,279h7.5c0.1,0,0.3-0.1,0.3-0.3V273c0-2.2-1.8-4-4-4c-2.2,0-4,1.8-4,4v5.7
		C143.7,278.9,143.9,279,144,279"/>
	
		<path style="clip-path:url(#SVGID_00000175291158903646795880000013572379602685993879_);fill:none;stroke:#39373A;stroke-width:0.309;" d="
		M151.4,278.7h-7.3V273c0-2,1.6-3.7,3.7-3.7c2,0,3.7,1.7,3.7,3.7V278.7z M144,279h7.5c0.1,0,0.3-0.1,0.3-0.3V273c0-2.2-1.8-4-4-4
		c-2.2,0-4,1.8-4,4v5.7C143.7,278.9,143.9,279,144,279z"/>
	<path style="clip-path:url(#SVGID_00000175291158903646795880000013572379602685993879_);fill:#39373A;" d="M147.8,273
		c0.5,0,1,0.4,1,1c0,0.5-0.4,1-1,1c-0.5,0-1-0.4-1-1C146.8,273.5,147.2,273,147.8,273 M147.8,275.3c0.7,0,1.3-0.6,1.3-1.3
		s-0.6-1.3-1.3-1.3c-0.7,0-1.3,0.6-1.3,1.3S147,275.3,147.8,275.3"/>
	
		<path style="clip-path:url(#SVGID_00000175291158903646795880000013572379602685993879_);fill:none;stroke:#39373A;stroke-width:0.309;" d="
		M147.8,273c0.5,0,1,0.4,1,1c0,0.5-0.4,1-1,1c-0.5,0-1-0.4-1-1C146.8,273.5,147.2,273,147.8,273z M147.8,275.3
		c0.7,0,1.3-0.6,1.3-1.3s-0.6-1.3-1.3-1.3c-0.7,0-1.3,0.6-1.3,1.3S147,275.3,147.8,275.3z"/>
</g>
<polygon class="st1" points="150.7,278.1 151,277.9 149.2,275.5 148.9,275.8 "/>
<polygon class="st19" points="150.7,278.1 151,277.9 149.2,275.5 148.9,275.8 "/>
<polygon class="st1" points="144.9,278.1 146.7,275.8 146.4,275.5 144.6,277.9 "/>
<polygon class="st19" points="144.9,278.1 146.7,275.8 146.4,275.5 144.6,277.9 "/>
<g>
	<defs>
		<rect id="SVGID_00000021810979523254440540000006700076569700586379_" x="23.9" y="22.9" width="396" height="313"/>
	</defs>
	<clipPath id="SVGID_00000040537775132911358650000012933739975069763990_">
		<use xlink:href="#SVGID_00000021810979523254440540000006700076569700586379_"  style="overflow:visible;"/>
	</clipPath>
	<path style="clip-path:url(#SVGID_00000040537775132911358650000012933739975069763990_);fill:#39373A;" d="M151.4,281.8
		c0.8,0,1.4,0.7,1.4,1.5v2c0,0.8-0.7,1.5-1.4,1.5h-7.2c-0.8,0-1.4-0.7-1.4-1.5v-2c0-0.8,0.7-1.5,1.4-1.5H151.4z M144.2,287.1h7.2
		c1,0,1.8-0.8,1.8-1.8v-2c0-1-0.8-1.8-1.8-1.8h-7.2c-1,0-1.8,0.8-1.8,1.8v2C142.3,286.3,143.2,287.1,144.2,287.1"/>
	
		<path style="clip-path:url(#SVGID_00000040537775132911358650000012933739975069763990_);fill:none;stroke:#39373A;stroke-width:0.309;" d="
		M151.4,281.8c0.8,0,1.4,0.7,1.4,1.5v2c0,0.8-0.7,1.5-1.4,1.5h-7.2c-0.8,0-1.4-0.7-1.4-1.5v-2c0-0.8,0.7-1.5,1.4-1.5H151.4z
		 M144.2,287.1h7.2c1,0,1.8-0.8,1.8-1.8v-2c0-1-0.8-1.8-1.8-1.8h-7.2c-1,0-1.8,0.8-1.8,1.8v2C142.3,286.3,143.2,287.1,144.2,287.1z"
		/>
	<path style="clip-path:url(#SVGID_00000040537775132911358650000012933739975069763990_);fill:#39373A;" d="M147.8,283.7
		c0.3,0,0.5,0.2,0.5,0.6c0,0.3-0.2,0.6-0.5,0.6c-0.3,0-0.5-0.2-0.5-0.6C147.2,284,147.5,283.7,147.8,283.7 M147.8,285.2
		c0.5,0,0.9-0.4,0.9-0.9s-0.4-0.9-0.9-0.9c-0.5,0-0.9,0.4-0.9,0.9S147.3,285.2,147.8,285.2"/>
	
		<path style="clip-path:url(#SVGID_00000040537775132911358650000012933739975069763990_);fill:none;stroke:#39373A;stroke-width:0.309;" d="
		M147.8,283.7c0.3,0,0.5,0.2,0.5,0.6c0,0.3-0.2,0.6-0.5,0.6c-0.3,0-0.5-0.2-0.5-0.6C147.2,284,147.5,283.7,147.8,283.7z
		 M147.8,285.2c0.5,0,0.9-0.4,0.9-0.9s-0.4-0.9-0.9-0.9c-0.5,0-0.9,0.4-0.9,0.9S147.3,285.2,147.8,285.2z"/>
	<path style="clip-path:url(#SVGID_00000040537775132911358650000012933739975069763990_);fill:#39373A;" d="M142.8,117.4H142v-2.7
		h-1.3l-0.3,1v1.7h-1.3c-0.2,0-0.2-0.1-0.2-0.3l1.4-3.7h-1.6l-1.6,4.1c-0.2,0.5,0.1,1,0.7,1h2.6v1.4h1.6v-1.4h0l0.8-0.2V117.4z
		 M135.5,118.4c-0.5,0-0.6,0.1-0.6,0.6v0.4c0,0.5,0.1,0.6,0.6,0.6h0.4c0.5,0,0.6-0.1,0.6-0.6v-0.4c0-0.5-0.1-0.6-0.6-0.6H135.5z
		 M129.6,114.7c0.5,0,1.1,0,1.8,0c0.7,0,0.8,0.1,0.8,0.6c0,0.4-0.1,0.7-0.8,0.7h-1.2v1.1l1.2,0c0.7,0,0.8,0.2,0.8,0.8
		c0,0.7-0.2,0.8-1.1,0.8c-0.6,0-1,0-1.8-0.1l-0.1,1.3c0.7,0.1,1.6,0.2,2.3,0.2c1.7,0,2.4-0.6,2.3-1.9c0-1-0.3-1.5-1.2-1.6v0
		c0.8-0.1,1-0.7,1-1.6c0-1.2-0.6-1.5-2.2-1.5c-0.7,0-1.4,0.1-2.2,0.2L129.6,114.7z M128.4,120v-6.5h-1.8l-1.6,0.6l0.2,1.1l1.5-0.3
		c-0.1,0.3-0.1,0.5-0.1,0.8v4.3H128.4z"/>
	<path style="clip-path:url(#SVGID_00000040537775132911358650000012933739975069763990_);fill:#39373A;" d="M167.3,107
		c0-0.2,0.1-0.4,0.4-0.4h1v0.6c-0.3,0.2-0.6,0.3-0.9,0.3c-0.3,0-0.5-0.1-0.5-0.4V107z M166,105.2c0.8,0,1.5-0.1,2-0.1
		c0.5,0,0.6,0.1,0.6,0.5v0.1h-1.6c-0.9,0-1.5,0.5-1.5,1.2v0.5c0,0.9,0.7,1.3,1.6,1.3c0.8,0,1.3-0.4,1.7-0.8l0.2,0.7h1.4v-3
		c0-1.4-0.7-1.8-2-1.8c-0.7,0-1.9,0.1-2.6,0.2L166,105.2z M165.2,105.3V104h-4.7v1.3h1.5v3.4h1.7v-3.4H165.2z M156.9,107
		c0-0.2,0.1-0.4,0.4-0.4h1v0.6c-0.3,0.2-0.6,0.3-0.9,0.3c-0.3,0-0.5-0.1-0.5-0.4V107z M155.6,105.2c0.8,0,1.5-0.1,2-0.1
		c0.5,0,0.6,0.1,0.6,0.5v0.1h-1.6c-0.9,0-1.5,0.5-1.5,1.2v0.5c0,0.9,0.7,1.3,1.6,1.3c0.8,0,1.3-0.4,1.7-0.8l0.2,0.7h1.4v-3
		c0-1.4-0.7-1.8-2-1.8c-0.7,0-1.9,0.1-2.6,0.2L155.6,105.2z M154.4,104h-1.7v1.6h-1.4V104h-1.7v4.7h1.7v-1.9h1.4v1.9h1.7V104z
		 M146.5,104c-0.4,0-0.6,0.2-0.6,0.5l-0.4,1.7c0,0.2-0.1,0.5-0.1,0.7h-0.1c0-0.2,0-0.5-0.1-0.7l-0.4-1.7c-0.1-0.3-0.3-0.5-0.6-0.5
		h-1.4c-0.4,0-0.6,0.2-0.6,0.6l-0.1,4.1h1.5l0.1-3.4h0.1l0.6,2.3c0.1,0.3,0.3,0.5,0.6,0.5h0.8c0.4,0,0.6-0.2,0.6-0.5l0.6-2.3h0.1
		l0.1,3.4h1.5l-0.1-4.1c0-0.4-0.2-0.6-0.6-0.6H146.5z M138.8,105.1c0.6,0,0.7,0.2,0.7,1.3c0,1-0.2,1.3-0.7,1.3
		c-0.6,0-0.7-0.2-0.7-1.3C138,105.3,138.2,105.1,138.8,105.1 M138.8,103.9c-1.8,0-2.5,0.7-2.5,2.5c0,1.8,0.7,2.4,2.5,2.4
		c1.8,0,2.5-0.6,2.5-2.4C141.3,104.5,140.6,103.9,138.8,103.9 M134.1,106.2c1.1-0.2,1-0.3,1.6-2.2H134c-0.4,1.6-0.4,1.7-1.1,1.7
		h-0.2c0-0.2,0.1-0.4,0.1-0.6V104H131v4.7h1.7v-1.5c0-0.1,0-0.2-0.1-0.4h0.4c0.5,0,0.5,0.1,1,1.9h1.8
		C135.2,106.5,135.2,106.4,134.1,106.2L134.1,106.2z M126.3,106.1h-0.7c-0.4,0-0.5-0.1-0.5-0.6c0-0.3,0.1-0.4,0.5-0.4h0.7V106.1z
		 M124.5,106.7c-0.3,0-0.8,0.1-0.9,0.5l-0.4,1.5h1.7l0.3-1.3c0-0.2,0.1-0.3,0.4-0.3h0.6v1.5h1.7V104c-0.6-0.1-1.1-0.1-2.4-0.1
		c-1.7,0-2.1,0.3-2.1,1.5C123.5,105.9,123.7,106.5,124.5,106.7L124.5,106.7z M119.5,107c0-0.2,0.1-0.4,0.4-0.4h1v0.6
		c-0.3,0.2-0.6,0.3-0.9,0.3c-0.3,0-0.5-0.1-0.5-0.4V107z M118.3,105.2c0.8,0,1.5-0.1,2-0.1c0.5,0,0.6,0.1,0.6,0.5v0.1h-1.6
		c-0.9,0-1.5,0.5-1.5,1.2v0.5c0,0.9,0.7,1.3,1.6,1.3c0.8,0,1.3-0.4,1.7-0.8l0.2,0.7h1.4v-3c0-1.4-0.7-1.8-2-1.8
		c-0.7,0-1.9,0.1-2.6,0.2L118.3,105.2z M117.1,104h-2.8c-0.8,0-1.2,0.4-1.3,1.2c-0.1,0.9-0.2,1.5-0.2,1.8c-0.1,0.4-0.4,0.4-0.8,0.4
		l0.2,1.3c1,0.2,2-0.1,2.1-1.2c0.1-0.5,0.2-1.2,0.3-2c0-0.3,0.2-0.4,0.4-0.4h0.4v3.5h1.7V104z M111.4,108.7V104h-1.5l-1.5,2.2
		c-0.1,0.2-0.3,0.4-0.4,0.7h0c0-0.3,0.1-0.5,0.1-0.7V104h-1.5v4.7h1.5l1.5-2.1c0.1-0.2,0.3-0.5,0.4-0.8h0c0,0.3-0.1,0.6-0.1,0.8v2.1
		H111.4z M103.8,105.3c1.3-0.2,1.3-0.8,2-3.1H104c-0.6,1.9-0.7,2.5-1.3,2.5h-0.3c0-0.3,0.1-0.5,0.1-0.8v-1.7h-1.7v1.7
		c0,0.3,0,0.5,0.1,0.8h-0.3c-0.6,0-0.7-0.6-1.3-2.5h-1.8c0.7,2.3,0.7,2.9,2,3.1v0.1c-1.3,0.2-1.4,0.7-2.2,3.4H99
		c0.7-2.4,0.8-2.8,1.4-2.8h0.3c0,0.2-0.1,0.4-0.1,0.6v2.2h1.7v-2.2c0-0.2,0-0.4-0.1-0.6h0.3c0.7,0,0.7,0.4,1.4,2.8h1.9
		C105.2,106,105.1,105.5,103.8,105.3L103.8,105.3z"/>
	<path style="clip-path:url(#SVGID_00000040537775132911358650000012933739975069763990_);fill:#39373A;" d="M355.1,99.6h-0.8v-2.7
		H353l-0.3,1v1.7h-1.3c-0.2,0-0.2-0.1-0.2-0.3l1.4-3.7h-1.6l-1.6,4.1c-0.2,0.5,0.1,1,0.7,1h2.6v1.4h1.6v-1.4h0l0.8-0.2V99.6z
		 M347.8,100.5c-0.5,0-0.6,0.1-0.6,0.6v0.4c0,0.5,0.1,0.6,0.6,0.6h0.4c0.5,0,0.6-0.1,0.6-0.6v-0.4c0-0.5-0.1-0.6-0.6-0.6H347.8z
		 M342,96.9c0.5,0,1.1,0,1.8,0c0.7,0,0.8,0.1,0.8,0.6c0,0.4-0.1,0.7-0.8,0.7h-1.2v1.1l1.2,0c0.7,0,0.8,0.2,0.8,0.8
		c0,0.7-0.2,0.8-1.1,0.8c-0.6,0-1,0-1.8-0.1l-0.1,1.3c0.7,0.1,1.6,0.2,2.3,0.2c1.7,0,2.4-0.6,2.3-1.9c0-1-0.3-1.5-1.2-1.6v0
		c0.8-0.1,1-0.7,1-1.6c0-1.2-0.6-1.5-2.2-1.5c-0.7,0-1.4,0.1-2.2,0.2L342,96.9z M340.7,102.1v-6.5H339l-1.6,0.6l0.2,1.1l1.5-0.3
		c-0.1,0.3-0.1,0.5-0.1,0.8v4.3H340.7z"/>
	<path style="clip-path:url(#SVGID_00000040537775132911358650000012933739975069763990_);fill:#39373A;" d="M379.6,89.2
		c0-0.2,0.1-0.4,0.4-0.4h1v0.6c-0.3,0.2-0.6,0.3-0.9,0.3c-0.3,0-0.5-0.1-0.5-0.4V89.2z M378.4,87.4c0.8,0,1.5-0.1,2-0.1
		c0.5,0,0.6,0.1,0.6,0.5V88h-1.6c-0.9,0-1.5,0.5-1.5,1.2v0.5c0,0.9,0.7,1.3,1.6,1.3c0.8,0,1.3-0.4,1.7-0.8l0.2,0.7h1.4v-3
		c0-1.4-0.7-1.8-2-1.8c-0.7,0-1.9,0.1-2.6,0.2L378.4,87.4z M377.6,87.5v-1.3h-4.7v1.3h1.5v3.4h1.7v-3.4H377.6z M369.2,89.2
		c0-0.2,0.1-0.4,0.4-0.4h1v0.6c-0.3,0.2-0.6,0.3-0.9,0.3c-0.3,0-0.5-0.1-0.5-0.4V89.2z M368,87.4c0.8,0,1.5-0.1,2-0.1
		c0.5,0,0.6,0.1,0.6,0.5V88h-1.6c-0.9,0-1.5,0.5-1.5,1.2v0.5c0,0.9,0.7,1.3,1.6,1.3c0.8,0,1.3-0.4,1.7-0.8l0.2,0.7h1.4v-3
		c0-1.4-0.7-1.8-2-1.8c-0.7,0-1.9,0.1-2.6,0.2L368,87.4z M366.8,86.2h-1.7v1.6h-1.4v-1.6H362v4.7h1.7V89h1.4v1.9h1.7V86.2z
		 M358.9,86.2c-0.4,0-0.6,0.2-0.6,0.5l-0.4,1.7c0,0.2-0.1,0.5-0.1,0.7h-0.1c0-0.2,0-0.5-0.1-0.7l-0.4-1.7c-0.1-0.3-0.3-0.5-0.6-0.5
		h-1.4c-0.4,0-0.6,0.2-0.6,0.6l-0.1,4.1h1.5l0.1-3.4h0.1l0.6,2.3c0.1,0.3,0.3,0.5,0.6,0.5h0.8c0.4,0,0.6-0.2,0.6-0.5l0.6-2.3h0.1
		l0.1,3.4h1.5l-0.1-4.1c0-0.4-0.2-0.6-0.6-0.6H358.9z M351.1,87.3c0.6,0,0.7,0.2,0.7,1.3c0,1-0.1,1.3-0.7,1.3
		c-0.6,0-0.7-0.2-0.7-1.3C350.4,87.5,350.5,87.3,351.1,87.3 M351.1,86.1c-1.8,0-2.5,0.7-2.5,2.5c0,1.8,0.7,2.4,2.5,2.4
		c1.8,0,2.5-0.6,2.5-2.4C353.6,86.7,352.9,86.1,351.1,86.1 M346.4,88.4c1.1-0.2,1-0.3,1.6-2.2h-1.7c-0.4,1.6-0.4,1.7-1.1,1.7H345
		c0-0.2,0.1-0.4,0.1-0.6v-1.1h-1.7v4.7h1.7v-1.5c0-0.1,0-0.2-0.1-0.4h0.4c0.5,0,0.5,0.1,1,1.9h1.8C347.5,88.6,347.5,88.6,346.4,88.4
		L346.4,88.4z M338.7,88.3H338c-0.4,0-0.5-0.1-0.5-0.6c0-0.3,0.1-0.4,0.5-0.4h0.7V88.3z M336.9,88.9c-0.3,0-0.8,0.1-0.9,0.5
		l-0.4,1.5h1.7l0.3-1.3c0-0.2,0.1-0.3,0.4-0.3h0.6v1.5h1.7v-4.7c-0.6-0.1-1.1-0.1-2.4-0.1c-1.7,0-2.1,0.3-2.1,1.5
		C335.8,88.1,336.1,88.7,336.9,88.9L336.9,88.9z M331.9,89.2c0-0.2,0.1-0.4,0.4-0.4h1v0.6c-0.3,0.2-0.6,0.3-0.9,0.3
		c-0.3,0-0.5-0.1-0.5-0.4V89.2z M330.6,87.4c0.8,0,1.5-0.1,2-0.1c0.5,0,0.6,0.1,0.6,0.5V88h-1.6c-0.9,0-1.5,0.5-1.5,1.2v0.5
		c0,0.9,0.7,1.3,1.6,1.3c0.8,0,1.3-0.4,1.7-0.8l0.2,0.7h1.4v-3c0-1.4-0.7-1.8-2-1.8c-0.7,0-1.9,0.1-2.6,0.2L330.6,87.4z M329.4,86.2
		h-2.8c-0.8,0-1.2,0.4-1.3,1.2c-0.1,0.9-0.1,1.5-0.2,1.8c-0.1,0.4-0.4,0.4-0.8,0.4l0.2,1.3c1,0.2,2-0.1,2.1-1.2
		c0.1-0.5,0.2-1.2,0.3-2c0-0.3,0.2-0.4,0.4-0.4h0.4v3.5h1.7V86.2z M323.7,90.9v-4.7h-1.5l-1.5,2.2c-0.1,0.2-0.3,0.4-0.4,0.7h0
		c0-0.3,0.1-0.5,0.1-0.7v-2.2h-1.5v4.7h1.5l1.5-2.1c0.1-0.2,0.3-0.5,0.4-0.8h0c0,0.3-0.1,0.6-0.1,0.8v2.1H323.7z M316.1,87.4
		c1.3-0.2,1.3-0.8,2-3.1h-1.8c-0.6,1.9-0.7,2.5-1.3,2.5h-0.3c0-0.3,0.1-0.5,0.1-0.8v-1.7h-1.7v1.7c0,0.3,0,0.5,0.1,0.8h-0.3
		c-0.6,0-0.7-0.6-1.3-2.5h-1.8c0.7,2.3,0.7,2.9,2,3.1v0.1c-1.3,0.2-1.4,0.7-2.2,3.4h1.8c0.7-2.4,0.8-2.8,1.4-2.8h0.3
		c0,0.2-0.1,0.4-0.1,0.6v2.2h1.7v-2.2c0-0.2,0-0.4-0.1-0.6h0.3c0.7,0,0.7,0.4,1.4,2.8h1.9C317.5,88.2,317.4,87.7,316.1,87.4
		L316.1,87.4z"/>
	<path style="clip-path:url(#SVGID_00000040537775132911358650000012933739975069763990_);fill:#39373A;" d="M406.6,191.7
		c1,0.4,1.4,1.8,1.4,3.8c0,1.9-0.4,3.3-1.4,3.8l0.2,0.7c2-0.6,2.9-2,2.9-4.5c0-2.5-0.9-3.9-2.9-4.5L406.6,191.7z M404,197.2
		c-0.8,0-0.8-0.2-0.8-1.7c0.3-0.2,0.5-0.2,0.8-0.2c0.6,0,0.8,0.2,0.8,0.9C404.7,196.9,404.7,197.2,404,197.2 M405.9,192
		c-0.7-0.2-1.3-0.2-1.7-0.2c-1.9,0-2.8,0.5-2.8,3.4c0,2.6,0.6,3.3,2.5,3.3c2,0,2.4-0.8,2.4-2.4c0-1.4-0.4-2-1.9-2
		c-0.6,0-1,0.1-1.3,0.4c0-1.2,0.3-1.4,1.1-1.4c0.8,0,1.1,0,1.6,0L405.9,192z M399.6,196.8c-0.5,0-0.6,0.1-0.6,0.6v0.4
		c0,0.5,0.1,0.6,0.6,0.6h0.4c0.5,0,0.6-0.1,0.6-0.6v-0.4c0-0.5-0.1-0.6-0.6-0.6H399.6z M397.9,198.4v-6.5h-1.8l-1.6,0.6l0.2,1.1
		l1.5-0.3c-0.1,0.3-0.1,0.5-0.1,0.8v4.3H397.9z M394.3,191c-2,0.6-2.9,2-2.9,4.5c0,2.5,0.9,3.9,2.9,4.5l0.2-0.7
		c-1-0.5-1.4-1.8-1.4-3.8c0-2,0.4-3.3,1.4-3.8L394.3,191z"/>
	<path style="clip-path:url(#SVGID_00000040537775132911358650000012933739975069763990_);fill:#39373A;" d="M402.1,182
		c0.9,0,1.4,0,2,0c0.5,0,0.7,0,0.7,0.3c0,0.4-0.4,1-1.2,1.7l-1.5,1.5c-0.2,0.2-0.2,0.4-0.2,0.7v0.9h4.8v-1.5H405
		c-0.3,0-0.6,0-0.9,0.1l1.6-1.6c0.9-0.9,1-1.3,1-2c0-1.3-0.9-1.6-2.3-1.6c-0.7,0-1.4,0-2.3,0.2L402.1,182z M400.3,185.5
		c-0.5,0-0.6,0.1-0.6,0.6v0.4c0,0.5,0.1,0.6,0.6,0.6h0.4c0.5,0,0.6-0.1,0.6-0.6v-0.4c0-0.5-0.1-0.6-0.6-0.6H400.3z M394.4,181.9
		c0.5,0,1.1,0,1.8,0c0.7,0,0.8,0.1,0.8,0.6c0,0.4-0.1,0.7-0.8,0.7H395v1.1l1.2,0c0.7,0,0.8,0.2,0.8,0.8c0,0.7-0.2,0.8-1.1,0.8
		c-0.6,0-1,0-1.8-0.1l-0.1,1.3c0.7,0.1,1.6,0.2,2.3,0.2c1.7,0,2.4-0.6,2.3-1.9c0-1-0.3-1.5-1.2-1.6v0c0.8-0.1,1-0.7,1-1.6
		c0-1.2-0.6-1.5-2.2-1.5c-0.7,0-1.4,0.1-2.2,0.2L394.4,181.9z"/>
	<path style="clip-path:url(#SVGID_00000040537775132911358650000012933739975069763990_);fill:#39373A;" d="M284.7,191.1
		c0.7,0,0.9,0.2,0.9,0.8c0,0.6-0.2,0.8-0.9,0.8c-0.7,0-0.9-0.2-0.9-0.8C283.8,191.3,284,191.1,284.7,191.1 M284.7,188.5
		c0.7,0,0.8,0.1,0.8,0.8c0,0.6-0.1,0.7-0.8,0.7c-0.7,0-0.8-0.1-0.8-0.7C283.9,188.6,284.1,188.5,284.7,188.5 M283.3,190.5
		c-0.9,0.1-1.2,0.9-1.2,1.7c0,1.3,0.5,1.8,2.5,1.7c2.1,0,2.5-0.5,2.5-1.7c0-0.9-0.2-1.6-1.1-1.7v0c0.7-0.1,1-0.8,1-1.5
		c0-1.2-0.4-1.7-2.4-1.7c-2,0-2.4,0.5-2.4,1.7C282.3,189.7,282.6,190.4,283.3,190.5L283.3,190.5z M280.4,192.3
		c-0.5,0-0.6,0.1-0.6,0.6v0.4c0,0.5,0.1,0.6,0.6,0.6h0.4c0.5,0,0.6-0.1,0.6-0.6v-0.4c0-0.5-0.1-0.6-0.6-0.6H280.4z M274.5,188.7
		c0.5,0,1.1,0,1.8,0c0.7,0,0.8,0.1,0.8,0.6c0,0.4-0.1,0.7-0.8,0.7h-1.2v1.1l1.2,0c0.7,0,0.8,0.2,0.8,0.8c0,0.7-0.2,0.8-1.1,0.8
		c-0.6,0-1,0-1.8-0.1l-0.1,1.3c0.7,0.1,1.6,0.2,2.3,0.2c1.7,0,2.4-0.6,2.3-1.9c0-1-0.3-1.5-1.2-1.6v0c0.8-0.1,1-0.7,1-1.6
		c0-1.2-0.6-1.5-2.2-1.5c-0.7,0-1.4,0.1-2.2,0.2L274.5,188.7z M268.9,188.8c0.9,0,1.4,0,2,0c0.5,0,0.7,0,0.7,0.3
		c0,0.4-0.4,0.9-1.2,1.7l-1.5,1.5c-0.2,0.2-0.2,0.4-0.2,0.7v0.9h4.8v-1.5h-1.9c-0.3,0-0.6,0-0.9,0.1l1.6-1.6c0.9-0.9,1-1.3,1-2
		c0-1.3-0.9-1.6-2.3-1.6c-0.7,0-1.4,0-2.3,0.2L268.9,188.8z"/>
	<path style="clip-path:url(#SVGID_00000040537775132911358650000012933739975069763990_);fill:#39373A;" d="M311.4,181
		c0-0.2,0.1-0.4,0.4-0.4h1v0.6c-0.3,0.2-0.6,0.3-0.9,0.3c-0.3,0-0.5-0.1-0.5-0.4V181z M310.1,179.1c0.8,0,1.5-0.1,2-0.1
		c0.5,0,0.6,0.1,0.6,0.5v0.1h-1.6c-0.9,0-1.5,0.5-1.5,1.2v0.5c0,0.9,0.7,1.3,1.6,1.3c0.8,0,1.3-0.4,1.7-0.8l0.2,0.7h1.4v-3
		c0-1.4-0.7-1.8-2-1.8c-0.7,0-1.9,0.1-2.6,0.2L310.1,179.1z M309.4,179.2v-1.3h-4.7v1.3h1.5v3.4h1.7v-3.4H309.4z M301,181
		c0-0.2,0.1-0.4,0.4-0.4h1v0.6c-0.3,0.2-0.6,0.3-0.9,0.3c-0.3,0-0.5-0.1-0.5-0.4V181z M299.7,179.1c0.8,0,1.5-0.1,2-0.1
		c0.5,0,0.6,0.1,0.6,0.5v0.1h-1.6c-0.9,0-1.5,0.5-1.5,1.2v0.5c0,0.9,0.7,1.3,1.6,1.3c0.8,0,1.3-0.4,1.7-0.8l0.2,0.7h1.4v-3
		c0-1.4-0.7-1.8-2-1.8c-0.7,0-1.9,0.1-2.6,0.2L299.7,179.1z M298.6,177.9h-1.7v1.6h-1.4v-1.6h-1.7v4.7h1.7v-1.9h1.4v1.9h1.7V177.9z
		 M290.6,177.9c-0.4,0-0.6,0.2-0.6,0.5l-0.4,1.7c0,0.2-0.1,0.5-0.1,0.7h-0.1c0-0.2,0-0.5-0.1-0.7l-0.4-1.7c-0.1-0.3-0.3-0.5-0.6-0.5
		h-1.4c-0.4,0-0.6,0.2-0.6,0.6l-0.1,4.1h1.5l0.1-3.4h0.1l0.6,2.3c0.1,0.3,0.3,0.5,0.6,0.5h0.8c0.4,0,0.6-0.2,0.6-0.5l0.6-2.3h0.1
		l0.1,3.4h1.5l-0.1-4.1c0-0.4-0.2-0.6-0.6-0.6H290.6z M282.9,179c0.6,0,0.7,0.2,0.7,1.3c0,1-0.2,1.3-0.7,1.3c-0.6,0-0.7-0.2-0.7-1.3
		C282.1,179.2,282.3,179,282.9,179 M282.9,177.8c-1.8,0-2.5,0.7-2.5,2.5c0,1.8,0.7,2.4,2.5,2.4c1.8,0,2.5-0.6,2.5-2.4
		C285.4,178.5,284.7,177.8,282.9,177.8 M278.2,180.2c1.1-0.2,1-0.3,1.6-2.2h-1.7c-0.4,1.6-0.4,1.7-1.1,1.7h-0.2
		c0-0.2,0.1-0.4,0.1-0.6v-1.1h-1.7v4.7h1.7v-1.5c0-0.1,0-0.2-0.1-0.4h0.4c0.5,0,0.5,0.1,1,1.9h1.8
		C279.3,180.4,279.3,180.4,278.2,180.2L278.2,180.2z M270.5,180h-0.7c-0.4,0-0.5-0.1-0.5-0.6c0-0.3,0.1-0.4,0.5-0.4h0.7V180z
		 M268.6,180.6c-0.3,0-0.8,0.1-0.9,0.5l-0.4,1.5h1.7l0.3-1.3c0-0.2,0.1-0.3,0.4-0.3h0.6v1.5h1.7v-4.7c-0.6-0.1-1.1-0.1-2.4-0.1
		c-1.7,0-2.1,0.3-2.1,1.5C267.6,179.9,267.8,180.4,268.6,180.6L268.6,180.6z M263.7,181c0-0.2,0.1-0.4,0.4-0.4h1v0.6
		c-0.3,0.2-0.6,0.3-0.9,0.3c-0.3,0-0.5-0.1-0.5-0.4V181z M262.4,179.1c0.8,0,1.5-0.1,2-0.1c0.5,0,0.6,0.1,0.6,0.5v0.1h-1.6
		c-0.9,0-1.5,0.5-1.5,1.2v0.5c0,0.9,0.7,1.3,1.6,1.3c0.8,0,1.3-0.4,1.7-0.8l0.2,0.7h1.4v-3c0-1.4-0.7-1.8-2-1.8
		c-0.7,0-1.9,0.1-2.6,0.2L262.4,179.1z M261.2,177.9h-2.8c-0.8,0-1.2,0.4-1.3,1.2c-0.1,0.9-0.1,1.5-0.2,1.8
		c-0.1,0.4-0.4,0.4-0.8,0.4l0.2,1.3c1,0.2,2-0.1,2.1-1.2c0.1-0.5,0.2-1.2,0.3-2c0-0.3,0.2-0.4,0.4-0.4h0.4v3.5h1.7V177.9z
		 M255.5,182.6v-4.7H254l-1.5,2.2c-0.1,0.2-0.3,0.4-0.4,0.7h0c0-0.3,0.1-0.5,0.1-0.7v-2.2h-1.5v4.7h1.5l1.5-2.1
		c0.1-0.2,0.3-0.5,0.4-0.8h0c0,0.3-0.1,0.6-0.1,0.8v2.1H255.5z M247.9,179.2c1.3-0.2,1.3-0.8,2-3.1h-1.8c-0.6,1.9-0.7,2.5-1.3,2.5
		h-0.3c0-0.3,0.1-0.5,0.1-0.8v-1.7h-1.7v1.7c0,0.3,0,0.5,0.1,0.8h-0.3c-0.6,0-0.7-0.6-1.3-2.5h-1.8c0.7,2.3,0.7,2.9,2,3.1v0.1
		c-1.3,0.2-1.4,0.7-2.2,3.4h1.8c0.7-2.4,0.8-2.8,1.4-2.8h0.3c0,0.2-0.1,0.4-0.1,0.6v2.2h1.7v-2.2c0-0.2,0-0.4-0.1-0.6h0.3
		c0.7,0,0.7,0.4,1.4,2.8h1.9C249.3,179.9,249.2,179.4,247.9,179.2L247.9,179.2z"/>
	<path style="clip-path:url(#SVGID_00000040537775132911358650000012933739975069763990_);fill:#39373A;" d="M242.1,124.1
		c0-0.8,0.1-1.1,0.7-1.1c0.7,0,0.8,0.3,0.8,1.7c-0.3,0.2-0.5,0.2-0.8,0.2C242.3,125,242.1,124.8,242.1,124.1 M240.8,128.3
		c0.8,0.2,1.4,0.2,1.8,0.2c2.1,0,2.8-0.5,2.8-3.4c0-2.6-0.4-3.3-2.5-3.3c-1.9,0-2.4,0.7-2.4,2.4c0,1.2,0.4,2,1.9,2
		c0.6,0,1-0.1,1.3-0.4c0,1.1-0.3,1.4-1.1,1.4c-0.8,0-1.1,0-1.7,0L240.8,128.3z M238.8,126.8c-0.5,0-0.6,0.1-0.6,0.6v0.4
		c0,0.5,0.1,0.6,0.6,0.6h0.4c0.5,0,0.6-0.1,0.6-0.6v-0.4c0-0.5-0.1-0.6-0.6-0.6H238.8z M232.9,123.2c0.5,0,1.1,0,1.8,0
		c0.7,0,0.8,0.1,0.8,0.6c0,0.4-0.1,0.7-0.8,0.7h-1.2v1.1l1.2,0c0.7,0,0.8,0.2,0.8,0.8c0,0.7-0.2,0.8-1.1,0.8c-0.6,0-1,0-1.8-0.1
		l-0.1,1.3c0.7,0.1,1.6,0.2,2.3,0.2c1.7,0,2.4-0.6,2.3-1.9c0-1-0.3-1.5-1.2-1.6v0c0.8-0.1,1-0.7,1-1.6c0-1.2-0.6-1.5-2.2-1.5
		c-0.7,0-1.4,0.1-2.2,0.2L232.9,123.2z"/>
	<path style="clip-path:url(#SVGID_00000040537775132911358650000012933739975069763990_);fill:#39373A;" d="M256,113.9
		c0.3-0.2,0.5-0.3,0.9-0.3c0.4,0,0.6,0.2,0.6,1.2c0,1.1-0.2,1.2-0.7,1.2c-0.3,0-0.6-0.1-0.8-0.2V113.9z M255.7,112.4h-1.4v6.4h1.7
		v-1c0-0.3,0-0.7,0-1c0.4,0.3,0.9,0.4,1.5,0.4c1.2,0,1.8-0.5,1.8-2.4c0-1.6-0.5-2.5-1.7-2.5c-0.7,0-1.5,0.3-1.8,0.8L255.7,112.4z
		 M251,113.5c0.6,0,0.7,0.2,0.7,1.3c0,1-0.2,1.3-0.7,1.3c-0.6,0-0.7-0.2-0.7-1.3C250.3,113.8,250.4,113.5,251,113.5 M251,112.3
		c-1.8,0-2.5,0.7-2.5,2.5c0,1.8,0.7,2.4,2.5,2.4c1.8,0,2.5-0.6,2.5-2.4C253.5,113,252.8,112.3,251,112.3 M245.6,116h-1.4
		c0.2-0.5,0.4-1.2,0.5-2.1c0-0.3,0.2-0.4,0.4-0.4h0.4V116z M248,116h-0.8v-3.5h-2.6c-0.8,0-1.3,0.4-1.4,1.1
		c-0.1,0.8-0.3,1.6-0.6,2.4h-0.6v2.4h1.1l0.1-1.3h3.3l0.1,1.3h1.1V116z M241.5,117.1v-4.7H240l-1.5,2.2c-0.1,0.2-0.3,0.4-0.4,0.7h0
		c0-0.3,0.1-0.5,0.1-0.7v-2.2h-1.5v4.7h1.5l1.5-2.1c0.1-0.2,0.3-0.5,0.4-0.8h0c0,0.3-0.1,0.6-0.1,0.8v2.1H241.5z M232.6,113.9
		c0.3-0.2,0.5-0.3,0.9-0.3c0.4,0,0.6,0.2,0.6,1.2c0,1.1-0.2,1.2-0.7,1.2c-0.3,0-0.6-0.1-0.8-0.2V113.9z M232.3,112.4h-1.4v6.4h1.7
		v-1c0-0.3,0-0.7,0-1c0.4,0.3,0.9,0.4,1.5,0.4c1.2,0,1.8-0.5,1.8-2.4c0-1.6-0.5-2.5-1.7-2.5c-0.7,0-1.5,0.3-1.8,0.8L232.3,112.4z
		 M227.6,113.5c0.6,0,0.7,0.2,0.7,1.3c0,1-0.2,1.3-0.7,1.3c-0.6,0-0.7-0.2-0.7-1.3C226.9,113.8,227,113.5,227.6,113.5 M227.6,112.3
		c-1.8,0-2.5,0.7-2.5,2.5c0,1.8,0.7,2.4,2.5,2.4c1.8,0,2.5-0.6,2.5-2.4C230.1,113,229.4,112.3,227.6,112.3 M222.5,113.7
		c1.3-0.2,1.3-0.8,2-3.1h-1.8c-0.5,1.9-0.6,2.5-1.5,2.5h-0.3c0-0.3,0.1-0.5,0.1-0.8v-1.7h-1.8v6.5h1.8v-2.2c0-0.2,0-0.4-0.1-0.6h0.3
		c0.9,0,1,0.4,1.6,2.8h1.8C223.9,114.5,223.8,113.9,222.5,113.7L222.5,113.7z"/>
	<path style="clip-path:url(#SVGID_00000040537775132911358650000012933739975069763990_);fill:#39373A;" d="M48.6,84.9
		c1,0.4,1.4,1.8,1.4,3.8c0,1.9-0.4,3.3-1.4,3.8l0.2,0.7c2-0.6,2.9-2,2.9-4.5c0-2.5-0.9-3.9-2.9-4.5L48.6,84.9z M43.9,86.3
		c0.5,0,1.1,0,1.8,0c0.7,0,0.8,0.1,0.8,0.6c0,0.4-0.1,0.7-0.8,0.7h-1.2v1.1l1.2,0c0.7,0,0.8,0.2,0.8,0.8c0,0.7-0.2,0.8-1.1,0.8
		c-0.6,0-1,0-1.8-0.1l-0.1,1.3c0.7,0.1,1.6,0.2,2.3,0.2c1.7,0,2.3-0.6,2.3-1.9c0-1-0.3-1.5-1.2-1.6v0c0.8-0.1,1-0.7,1-1.6
		c0-1.2-0.6-1.5-2.2-1.5c-0.7,0-1.4,0.1-2.2,0.2L43.9,86.3z M42,90c-0.5,0-0.6,0.1-0.6,0.6V91c0,0.5,0.1,0.6,0.6,0.6h0.4
		c0.5,0,0.6-0.1,0.6-0.6v-0.4c0-0.5-0.1-0.6-0.6-0.6H42z M35.9,86.5c0.9,0,1.4,0,2,0c0.5,0,0.7,0,0.7,0.3c0,0.4-0.4,0.9-1.2,1.7
		l-1.5,1.5c-0.2,0.2-0.2,0.4-0.2,0.7v0.9h4.8V90h-1.9c-0.3,0-0.6,0-0.9,0.1l1.6-1.6c0.9-0.9,1-1.3,1-2c0-1.3-0.9-1.6-2.3-1.6
		c-0.7,0-1.4,0-2.3,0.2L35.9,86.5z M35.1,84.1c-2,0.6-2.9,2-2.9,4.5c0,2.5,0.9,3.9,2.9,4.5l0.2-0.7c-1-0.5-1.4-1.8-1.4-3.8
		c0-2,0.4-3.3,1.4-3.8L35.1,84.1z"/>
	<path style="clip-path:url(#SVGID_00000040537775132911358650000012933739975069763990_);fill:#39373A;" d="M48.3,75.1l0.1-1.3
		h-4.1l-0.2,2.9c0,0.3,0.2,0.5,0.5,0.6l1,0.1c0.9,0.1,1.2,0.2,1.2,0.8c0,0.5-0.2,0.7-1.1,0.7c-0.5,0-1.1,0-1.7-0.1l-0.2,1.3
		c0.8,0.1,1.7,0.2,2.3,0.2c1.8,0,2.4-0.9,2.4-2.1c0-1-0.4-2-1.9-2.1L45.5,76l0.1-0.9H48.3z M42.2,78.7c-0.5,0-0.6,0.1-0.6,0.6v0.4
		c0,0.5,0.1,0.6,0.6,0.6h0.4c0.5,0,0.6-0.1,0.6-0.6v-0.4c0-0.5-0.1-0.6-0.6-0.6H42.2z M41,77.7h-0.8v-2.7h-1.3l-0.3,1v1.7h-1.3
		c-0.2,0-0.2-0.1-0.2-0.3l1.4-3.7h-1.6l-1.6,4.1c-0.2,0.5,0.1,1,0.7,1h2.6v1.4h1.6v-1.4h0l0.8-0.2V77.7z"/>
	<path style="clip-path:url(#SVGID_00000040537775132911358650000012933739975069763990_);fill:#39373A;" d="M212.2,86.1
		c0.7,0,1.1,0,1.6,0c0.4,0,0.6,0,0.6,0.2c0,0.3-0.3,0.8-0.9,1.4l-1.2,1.2c-0.1,0.2-0.2,0.3-0.2,0.6v0.7h3.9V89h-1.5
		c-0.2,0-0.5,0-0.7,0.1l1.3-1.3c0.7-0.7,0.8-1.1,0.8-1.6c0-1-0.7-1.3-1.8-1.3c-0.6,0-1.1,0-1.9,0.2L212.2,86.1z M210.7,88.9
		c-0.4,0-0.5,0.1-0.5,0.5v0.3c0,0.4,0.1,0.5,0.5,0.5h0.3c0.4,0,0.5-0.1,0.5-0.5v-0.3c0-0.4-0.1-0.5-0.5-0.5H210.7z M209.3,90.2V85
		h-1.4l-1.3,0.5l0.2,0.9l1.2-0.3c0,0.2-0.1,0.4-0.1,0.6v3.4H209.3z"/>
	<path style="clip-path:url(#SVGID_00000040537775132911358650000012933739975069763990_);fill:#39373A;" d="M271.4,84.2h-0.6V82
		h-1.1l-0.2,0.8v1.3h-1c-0.1,0-0.2-0.1-0.1-0.2l1.1-2.9h-1.3l-1.3,3.3c-0.2,0.4,0.1,0.8,0.5,0.8h2.1v1.1h1.3v-1.1h0l0.6-0.1V84.2z
		 M265.5,84.9c-0.4,0-0.5,0.1-0.5,0.5v0.3c0,0.4,0.1,0.5,0.5,0.5h0.3c0.4,0,0.5-0.1,0.5-0.5v-0.3c0-0.4-0.1-0.5-0.5-0.5H265.5z
		 M260.9,82c0.4,0,0.9,0,1.4,0c0.5,0,0.7,0.1,0.7,0.5c0,0.4,0,0.6-0.6,0.6h-1v0.9l1,0c0.6,0,0.7,0.2,0.7,0.6c0,0.5-0.2,0.6-0.9,0.6
		c-0.5,0-0.8,0-1.4,0l0,1c0.6,0.1,1.2,0.1,1.9,0.1c1.4,0,1.9-0.5,1.9-1.5c0-0.8-0.2-1.2-1-1.3v0c0.7-0.1,0.8-0.6,0.8-1.3
		c0-0.9-0.5-1.2-1.8-1.2c-0.6,0-1.2,0-1.7,0.1L260.9,82z"/>
	<path style="clip-path:url(#SVGID_00000040537775132911358650000012933739975069763990_);fill:#39373A;" d="M104,288.2
		c0.4,0,0.9,0,1.4,0c0.5,0,0.7,0.1,0.7,0.5c0,0.4,0,0.6-0.6,0.6h-1v0.9l1,0c0.6,0,0.7,0.2,0.7,0.6c0,0.5-0.2,0.6-0.9,0.6
		c-0.5,0-0.8,0-1.4,0l0,1c0.6,0.1,1.2,0.1,1.9,0.1c1.4,0,1.9-0.5,1.9-1.5c0-0.8-0.2-1.2-1-1.3v0c0.7-0.1,0.8-0.6,0.8-1.3
		c0-0.9-0.5-1.2-1.8-1.2c-0.6,0-1.2,0-1.7,0.1L104,288.2z M102.5,291.1c-0.4,0-0.5,0.1-0.5,0.5v0.3c0,0.4,0.1,0.5,0.5,0.5h0.3
		c0.4,0,0.5-0.1,0.5-0.5v-0.3c0-0.4-0.1-0.5-0.5-0.5H102.5z M98.1,287.2l0.1,1.1h2.3c-0.1,0.2-0.2,0.4-0.3,0.6l-1.2,3.5h1.4l1.6-4.5
		c0.1-0.4-0.1-0.7-0.5-0.7H98.1z"/>
	<path style="clip-path:url(#SVGID_00000040537775132911358650000012933739975069763990_);fill:#39373A;" d="M120.5,281.3h-0.5
		c-0.4,0-0.4-0.1-0.4-0.5c0-0.3,0.1-0.3,0.4-0.3h0.5V281.3z M119,281.8c-0.2,0-0.6,0.1-0.7,0.4l-0.3,1.2h1.4l0.2-1
		c0-0.2,0.1-0.2,0.3-0.2h0.5v1.2h1.3v-3.8c-0.5-0.1-0.9-0.1-1.9-0.1c-1.4,0-1.7,0.3-1.7,1.2C118.2,281.2,118.4,281.6,119,281.8
		L119,281.8z M115,282.1c0-0.2,0.1-0.3,0.3-0.3h0.8v0.5c-0.2,0.2-0.5,0.3-0.7,0.3c-0.2,0-0.4-0.1-0.4-0.3V282.1z M114,280.6
		c0.6,0,1.2-0.1,1.6-0.1c0.4,0,0.5,0.1,0.5,0.4v0.1h-1.2c-0.7,0-1.2,0.4-1.2,1v0.4c0,0.7,0.6,1.1,1.3,1.1c0.6,0,1.1-0.3,1.3-0.6
		l0.1,0.5h1.1V281c0-1.1-0.6-1.5-1.6-1.5c-0.5,0-1.5,0.1-2,0.2L114,280.6z M111.9,281.4c0.9-0.1,0.8-0.2,1.3-1.8h-1.3
		c-0.4,1.2-0.4,1.4-0.8,1.4h-0.2c0-0.2,0-0.3,0-0.5v-0.9h-1.2v0.9c0,0.2,0,0.3,0,0.5h-0.2c-0.4,0-0.4-0.1-0.8-1.4h-1.3
		c0.5,1.5,0.5,1.7,1.3,1.8v0c-0.9,0.1-0.9,0.2-1.5,1.9h1.4c0.5-1.4,0.5-1.5,0.8-1.5h0.3c0,0.1,0,0.2,0,0.3v1.2h1.2v-1.2
		c0-0.1,0-0.2,0-0.3h0.2h0.1c0.3,0,0.4,0.1,0.8,1.5h1.4C112.8,281.6,112.8,281.6,111.9,281.4L111.9,281.4z M104.9,280.5
		c0.5,0,0.6,0.2,0.6,1c0,0.8-0.1,1-0.6,1c-0.5,0-0.6-0.2-0.6-1C104.3,280.7,104.4,280.5,104.9,280.5 M104.9,279.5c-1.5,0-2,0.5-2,2
		c0,1.4,0.5,2,2,2c1.5,0,2-0.5,2-2C106.9,280.1,106.4,279.5,104.9,279.5 M101.4,283.4h1.4l-1.1-1.9l1-1.8h-1.4l-0.7,1.4l-0.7-1.4
		h-1.4l1,1.8l-1.1,1.9h1.4l0.8-1.5L101.4,283.4z M97.9,283.4v-3.7h-1.2l-1.2,1.8c-0.1,0.2-0.2,0.3-0.3,0.5h0c0-0.2,0.1-0.4,0.1-0.6
		v-1.8h-1.2v3.7h1.2l1.2-1.7c0.1-0.2,0.2-0.4,0.3-0.6h0c0,0.2-0.1,0.4-0.1,0.7v1.7H97.9z M90.8,280.8c0.2-0.1,0.4-0.2,0.7-0.2
		c0.3,0,0.5,0.1,0.5,1c0,0.9-0.2,1-0.5,1c-0.3,0-0.5-0.1-0.7-0.1V280.8z M90.5,279.6h-1.1v5.1h1.4V284c0-0.3,0-0.6,0-0.8
		c0.3,0.2,0.7,0.3,1.2,0.3c0.9,0,1.4-0.4,1.4-1.9c0-1.3-0.4-2-1.3-2c-0.6,0-1.2,0.3-1.4,0.6L90.5,279.6z M88.6,278.2h-4.3v5.2h1.4
		v-4.2h1.5v4.2h1.4V278.2z"/>
	<path style="clip-path:url(#SVGID_00000040537775132911358650000012933739975069763990_);fill:#39373A;" d="M150,98.7V83.8h-4
		l-3.8,1.5l0.5,2.6l3.4-0.8c-0.1,0.6-0.1,1.2-0.1,1.8v9.8H150z M139.8,95c-1,0-1.4,0.3-1.4,1.4v0.9c0,1,0.3,1.4,1.4,1.4h0.9
		c1,0,1.4-0.3,1.4-1.4v-0.9c0-1-0.3-1.4-1.4-1.4H139.8z M126,87c2-0.1,3.1-0.1,4.6-0.1c1.1,0,1.6,0.1,1.6,0.7c0,0.8-1,2.2-2.6,3.9
		l-3.3,3.4c-0.4,0.5-0.6,1-0.6,1.6v2.1h11.1v-3.5h-4.3c-0.7,0-1.4,0-2.1,0.2l3.7-3.6c2-2,2.3-3,2.3-4.6c0-2.9-2.1-3.6-5.2-3.6
		c-1.6,0-3.1,0.1-5.3,0.5L126,87z M118.2,92.2c1.6,0,2,0.4,2,1.9c0,1.5-0.3,1.8-2,1.8c-1.7,0-2.1-0.4-2.1-1.8
		C116.1,92.7,116.4,92.2,118.2,92.2 M118.1,86.2c1.5,0,1.8,0.3,1.8,1.8c0,1.3-0.3,1.6-1.8,1.6c-1.5,0-1.9-0.3-1.9-1.6
		C116.3,86.6,116.6,86.2,118.1,86.2 M114.9,91c-2.1,0.2-2.6,2-2.6,4c0,2.9,1.2,4,5.8,4c4.7,0,5.8-1.1,5.8-4c0-2-0.5-3.8-2.6-4v-0.1
		c1.6-0.2,2.3-1.8,2.3-3.4c0-2.8-0.9-4-5.5-4c-4.5,0-5.4,1.2-5.4,4C112.7,89.1,113.3,90.7,114.9,91L114.9,91z"/>
	
		<circle style="clip-path:url(#SVGID_00000040537775132911358650000012933739975069763990_);fill:none;stroke:#39373A;stroke-width:0.904;" cx="133.9" cy="67.1" r="13.2"/>
	<path style="clip-path:url(#SVGID_00000040537775132911358650000012933739975069763990_);fill:#39373A;" d="M142.9,70.3
		c-1,0.1-2,0.1-3.5,0.1c-1.3,0-1.7-0.7-1.7-3.2c0-2.5,0.4-3.2,1.7-3.2c1.5,0,2.2,0,3.3,0l0.2-2.2c-1.1-0.3-1.9-0.4-3.5-0.4
		c-3.6,0-4.9,1.5-4.9,5.8c0,4.3,1.3,5.8,4.9,5.8c1.7,0,2.7-0.1,3.8-0.5L142.9,70.3z M125.3,63.8c0.8,0,2,0,3.1,0
		c1.1,0,1.5,0.1,1.5,1.1c0,0.8-0.1,1.2-1.3,1.2h-2.1v2l2.1,0c1.2,0,1.5,0.4,1.5,1.3c0,1.1-0.4,1.4-1.9,1.4c-1,0-1.7,0-3.1-0.1
		l-0.1,2.2c1.3,0.2,2.7,0.3,4,0.3c3,0,4.1-1,4-3.4c0-1.7-0.5-2.6-2.1-2.8v-0.1c1.4-0.2,1.8-1.2,1.8-2.8c0-2-1-2.6-3.8-2.6
		c-1.2,0-2.5,0.1-3.8,0.3L125.3,63.8z"/>
	<path style="clip-path:url(#SVGID_00000040537775132911358650000012933739975069763990_);fill:#39373A;" d="M142.6,188.3v-6.5h-1.8
		l-1.6,0.6l0.2,1.1l1.5-0.3c-0.1,0.3-0.1,0.5-0.1,0.8v4.3H142.6z M138.2,186.7c-0.5,0-0.6,0.1-0.6,0.6v0.4c0,0.5,0.1,0.6,0.6,0.6
		h0.4c0.5,0,0.6-0.1,0.6-0.6v-0.4c0-0.5-0.1-0.6-0.6-0.6H138.2z M134.1,183.1c0.7,0,0.9,0.3,0.9,2s-0.2,2-0.9,2
		c-0.7,0-0.9-0.3-0.9-2S133.4,183.1,134.1,183.1 M134.1,181.7c-2,0-2.6,0.8-2.6,3.4c0,2.5,0.7,3.4,2.6,3.4c2,0,2.7-0.8,2.7-3.4
		C136.8,182.6,136.1,181.7,134.1,181.7 M130.3,188.3v-6.5h-1.8l-1.6,0.6l0.2,1.1l1.5-0.3c-0.1,0.3-0.1,0.5-0.1,0.8v4.3H130.3z"/>
	<path style="clip-path:url(#SVGID_00000040537775132911358650000012933739975069763990_);fill:#39373A;" d="M160.2,175.4
		c0-0.2,0.1-0.4,0.4-0.4h1v0.6c-0.3,0.2-0.6,0.3-0.9,0.3c-0.3,0-0.5-0.1-0.5-0.4V175.4z M158.9,173.6c0.8,0,1.5-0.1,2-0.1
		c0.5,0,0.6,0.1,0.6,0.5v0.1H160c-0.9,0-1.5,0.5-1.5,1.2v0.5c0,0.9,0.7,1.3,1.6,1.3c0.8,0,1.3-0.4,1.7-0.8l0.2,0.7h1.4v-3
		c0-1.4-0.7-1.8-2-1.8c-0.7,0-1.9,0.1-2.6,0.2L158.9,173.6z M157.7,172.4h-1.6v3.5H155v-3.5h-1.5v3.5h-1.1v-3.5h-1.6v4.7h7V172.4z
		 M149.7,177.1v-4.7h-1.5l-1.5,2.2c-0.1,0.2-0.3,0.4-0.4,0.7h0c0-0.3,0.1-0.5,0.1-0.7v-2.2h-1.5v4.7h1.5l1.5-2.1
		c0.1-0.2,0.3-0.5,0.4-0.8h0c0,0.3-0.1,0.6-0.1,0.8v2.1H149.7z M143.9,172.4h-1.7v1.6h-1.4v-1.6h-1.7v4.7h1.7v-1.9h1.4v1.9h1.7
		V172.4z M138.1,174.1h-2.8v1h2.8V174.1z M132.7,174.5H132c-0.4,0-0.5-0.1-0.5-0.6c0-0.3,0.1-0.4,0.5-0.4h0.7V174.5z M130.9,175.1
		c-0.3,0-0.8,0.1-0.9,0.5l-0.4,1.5h1.7l0.3-1.3c0-0.2,0.1-0.3,0.4-0.3h0.6v1.5h1.7v-4.7c-0.6-0.1-1.1-0.1-2.4-0.1
		c-1.7,0-2.1,0.3-2.1,1.5C129.8,174.3,130.1,174.9,130.9,175.1L130.9,175.1z M128.9,172.4h-1.7v1.6h-1.4v-1.6h-1.7v4.7h1.7v-1.9h1.4
		v1.9h1.7V172.4z M121.9,177.1h1.7l-1.4-2.4l1.3-2.3h-1.7l-0.9,1.7l-0.9-1.7h-1.7l1.3,2.3l-1.4,2.4h1.7l1-1.9L121.9,177.1z
		 M118.1,172.4h-1.8l-0.7,2.8c0,0.2-0.1,0.5-0.2,0.8h-0.1c0-0.3-0.1-0.5-0.1-0.8l-0.7-2.8h-1.8l1.4,4.3c0.1,0.2,0.3,0.4,0.5,0.4h0.3
		c-0.1,0.2-0.3,0.5-0.5,0.6c-0.3,0.2-0.7,0.2-1.3,0.2l-0.1,1.1c0.7,0.1,1.4,0.1,1.9-0.1c0.7-0.3,1.3-0.7,1.6-1.8L118.1,172.4z
		 M110.4,173.6c1.3-0.2,1.3-0.8,2-3.1h-1.8c-0.5,1.9-0.6,2.5-1.5,2.5h-0.3c0-0.3,0.1-0.5,0.1-0.8v-1.7h-1.8v6.5h1.8v-2.2
		c0-0.2,0-0.4-0.1-0.6h0.3c0.9,0,1,0.4,1.6,2.8h1.8C111.8,174.4,111.7,173.9,110.4,173.6L110.4,173.6z"/>
</g>
<rect x="121.3" y="233.8" transform="matrix(0.5 -0.866 0.866 0.5 -135.602 233.7399)" class="st4" width="26.6" height="1"/>
<g>
	<defs>
		<rect id="SVGID_00000080904054756446791260000000561854290877256338_" x="23.9" y="22.9" width="396" height="313"/>
	</defs>
	<clipPath id="SVGID_00000113342701169648292060000007634076681920495806_">
		<use xlink:href="#SVGID_00000080904054756446791260000000561854290877256338_"  style="overflow:visible;"/>
	</clipPath>
	
		<path style="clip-path:url(#SVGID_00000113342701169648292060000007634076681920495806_);fill:none;stroke:#39373A;stroke-width:0.446;" d="
		M142,223.2c0,0-1.8-1.6-5.7-3c-3.5-1.3-7.4-1.4-7.4-1.4"/>
</g>
<rect x="60.1" y="121.1" transform="matrix(0.5 -0.866 0.866 0.5 -68.6305 124.3988)" class="st4" width="26.6" height="1"/>
<g>
	<defs>
		<rect id="SVGID_00000091696905021670704400000009715664703793262243_" x="23.9" y="22.9" width="396" height="313"/>
	</defs>
	<clipPath id="SVGID_00000179610699868891250020000007900887410563956908_">
		<use xlink:href="#SVGID_00000091696905021670704400000009715664703793262243_"  style="overflow:visible;"/>
	</clipPath>
	
		<path style="clip-path:url(#SVGID_00000179610699868891250020000007900887410563956908_);fill:none;stroke:#39373A;stroke-width:0.446;" d="
		M80.8,110.5c0,0-1.8-1.6-5.7-3c-3.5-1.3-7.4-1.4-7.4-1.4"/>
</g>
<rect x="187.8" y="106.5" transform="matrix(0.866 -0.5 0.5 0.866 -33.9025 109.9884)" class="st4" width="1" height="23.6"/>
<g>
	<defs>
		<rect id="SVGID_00000158023041773195999660000013892479852094158732_" x="23.9" y="22.9" width="396" height="313"/>
	</defs>
	<clipPath id="SVGID_00000160887257570449256130000005234256844656879519_">
		<use xlink:href="#SVGID_00000158023041773195999660000013892479852094158732_"  style="overflow:visible;"/>
	</clipPath>
	
		<path style="clip-path:url(#SVGID_00000160887257570449256130000005234256844656879519_);fill:none;stroke:#39373A;stroke-width:0.446;" d="
		M181.7,108.4c0,0,1.8-1.6,5.7-3c3.5-1.3,7.4-1.4,7.4-1.4"/>
</g>
<rect x="205.8" y="89" transform="matrix(0.5 -0.866 0.866 0.5 15.9148 229.0959)" class="st4" width="1" height="23.6"/>
<g>
	<defs>
		<rect id="SVGID_00000040556547540658864140000016612930762035175856_" x="23.9" y="22.9" width="396" height="313"/>
	</defs>
	<clipPath id="SVGID_00000080901083670557754160000005674764075862946453_">
		<use xlink:href="#SVGID_00000040556547540658864140000016612930762035175856_"  style="overflow:visible;"/>
	</clipPath>
	
		<path style="clip-path:url(#SVGID_00000080901083670557754160000005674764075862946453_);fill:none;stroke:#39373A;stroke-width:0.446;" d="
		M216.2,107.4c0,0,1.6-1.8,3-5.7c1.3-3.5,1.4-7.4,1.4-7.4"/>
</g>
<rect x="259.3" y="100.2" transform="matrix(0.866 -0.5 0.5 0.866 -14.0613 149.0503)" class="st4" width="23.6" height="1"/>
<g>
	<defs>
		<rect id="SVGID_00000139268436618964294450000000302578877481033867_" x="23.9" y="22.9" width="396" height="313"/>
	</defs>
	<clipPath id="SVGID_00000170971841743215608210000007618617891718409358_">
		<use xlink:href="#SVGID_00000139268436618964294450000000302578877481033867_"  style="overflow:visible;"/>
	</clipPath>
	
		<path style="clip-path:url(#SVGID_00000170971841743215608210000007618617891718409358_);fill:none;stroke:#39373A;stroke-width:0.446;" d="
		M261.3,107.4c0,0-1.6-1.8-3-5.7c-1.3-3.5-1.4-7.4-1.4-7.4"/>
</g>
<rect x="277.1" y="117" transform="matrix(0.5 -0.866 0.866 0.5 42.6447 308.9088)" class="st4" width="23.6" height="1"/>
<g>
	<defs>
		<rect id="SVGID_00000026861014217319759460000004355841291817296828_" x="23.9" y="22.9" width="396" height="313"/>
	</defs>
	<clipPath id="SVGID_00000141446293915613922080000012586206260105073818_">
		<use xlink:href="#SVGID_00000026861014217319759460000004355841291817296828_"  style="overflow:visible;"/>
	</clipPath>
	
		<path style="clip-path:url(#SVGID_00000141446293915613922080000012586206260105073818_);fill:none;stroke:#39373A;stroke-width:0.446;" d="
		M295.5,107.7c0,0-1.8-1.6-5.7-3c-3.5-1.3-7.4-1.4-7.4-1.4"/>
</g>
<rect x="212.9" y="129.5" transform="matrix(0.5 -0.866 0.866 0.5 -15.649 255.498)" class="st4" width="1" height="23.6"/>
<g>
	<defs>
		<rect id="SVGID_00000103947022878137004340000000889530501198100354_" x="23.9" y="22.9" width="396" height="313"/>
	</defs>
	<clipPath id="SVGID_00000111173351831136887590000006960052532188171943_">
		<use xlink:href="#SVGID_00000103947022878137004340000000889530501198100354_"  style="overflow:visible;"/>
	</clipPath>
	
		<path style="clip-path:url(#SVGID_00000111173351831136887590000006960052532188171943_);fill:none;stroke:#39373A;stroke-width:0.446;" d="
		M223.3,147.9c0,0,1.6-1.8,3-5.7c1.3-3.5,1.4-7.4,1.4-7.4"/>
</g>
<rect x="111.3" y="309.8" transform="matrix(0.5 -0.866 0.866 0.5 -223.8603 258.3756)" class="st4" width="1" height="26.6"/>
<g>
	<defs>
		<rect id="SVGID_00000054241307642191001910000005484111987896281000_" x="23.9" y="22.9" width="396" height="313"/>
	</defs>
	<clipPath id="SVGID_00000010998187546976374470000017895555934023330965_">
		<use xlink:href="#SVGID_00000054241307642191001910000005484111987896281000_"  style="overflow:visible;"/>
	</clipPath>
	
		<path style="clip-path:url(#SVGID_00000010998187546976374470000017895555934023330965_);fill:none;stroke:#39373A;stroke-width:0.446;" d="
		M100.7,315.7c0,0-1.6,1.8-3,5.7c-1.3,3.5-1.4,7.4-1.4,7.4"/>
</g>
<rect x="116.4" y="261.5" transform="matrix(0.5809 -0.814 0.814 0.5809 -161.0763 211.2525)" class="st4" width="16.5" height="1"/>
<g>
	<defs>
		<rect id="SVGID_00000112611719875535412860000012886872110210942381_" x="23.9" y="22.9" width="396" height="313"/>
	</defs>
	<clipPath id="SVGID_00000176744643540412677040000007784480082970759075_">
		<use xlink:href="#SVGID_00000112611719875535412860000012886872110210942381_"  style="overflow:visible;"/>
	</clipPath>
	
		<path style="clip-path:url(#SVGID_00000176744643540412677040000007784480082970759075_);fill:none;stroke:#39373A;stroke-width:0.446;" d="
		M119.1,268.3c0,0,1.6,1.7,5.4,3.5c3.4,1.6,7.2,2.1,7.2,2.1"/>
	
		<path style="clip-path:url(#SVGID_00000176744643540412677040000007784480082970759075_);fill:none;stroke:#39373A;stroke-width:0.567;" d="
		M239.3,51.7c0-0.4,0.3-0.7,0.7-0.7c0.4,0,0.7,0.3,0.7,0.7c0,0.4-0.3,0.7-0.7,0.7C239.6,52.4,239.3,52.1,239.3,51.7z"/>
	
		<path style="clip-path:url(#SVGID_00000176744643540412677040000007784480082970759075_);fill:none;stroke:#39373A;stroke-width:0.567;" d="
		M274.9,54.5c0,3-2.4,5.4-5.4,5.4h-31.9c-3,0-5.4-2.4-5.4-5.4v-5.5c0-3,2.4-5.4,5.4-5.4h31.9c3,0,5.4,2.4,5.4,5.4V54.5z"/>
	
		<path style="clip-path:url(#SVGID_00000176744643540412677040000007784480082970759075_);fill:none;stroke:#39373A;stroke-width:0.567;" d="
		M272,52.9c0,3-2.4,5.4-5.4,5.4h-26c-3,0-5.4-2.4-5.4-5.4v-2.5c0-3,2.4-5.4,5.4-5.4h26c3,0,5.4,2.4,5.4,5.4V52.9z"/>
	
		<path style="clip-path:url(#SVGID_00000176744643540412677040000007784480082970759075_);fill:none;stroke:#39373A;stroke-width:0.567;" d="
		M268.4,54.2c0,1.5-1.2,2.7-2.7,2.7h-26.1c-1.5,0-2.7-1.2-2.7-2.7v-4.9c0-1.5,1.2-2.7,2.7-2.7h26.1c1.5,0,2.7,1.2,2.7,2.7V54.2z"/>
</g>
<rect x="229.4" y="42" class="st4" width="48.4" height="19.4"/>
<rect x="198.2" y="39.8" class="st1" width="5.3" height="7.9"/>
<g>
	<defs>
		<rect id="SVGID_00000182501464593313734380000013579566754910855556_" x="23.9" y="22.9" width="396" height="313"/>
	</defs>
	<clipPath id="SVGID_00000170988097605125191900000010966668525784509334_">
		<use xlink:href="#SVGID_00000182501464593313734380000013579566754910855556_"  style="overflow:visible;"/>
	</clipPath>
	<path style="clip-path:url(#SVGID_00000170988097605125191900000010966668525784509334_);fill:#39373A;" d="M145.7,258.3l0.1,1.1
		h2.3c-0.1,0.2-0.2,0.4-0.3,0.5l-1.2,3.5h1.4l1.6-4.5c0.1-0.4-0.1-0.7-0.5-0.7H145.7z M144.6,262.2c-0.4,0-0.5,0.1-0.5,0.5v0.3
		c0,0.4,0.1,0.5,0.5,0.5h0.3c0.4,0,0.5-0.1,0.5-0.5v-0.3c0-0.4-0.1-0.5-0.5-0.5H144.6z M143.2,263.5v-5.2h-1.4l-1.3,0.5l0.2,0.9
		l1.2-0.3c0,0.2-0.1,0.4-0.1,0.6v3.4H143.2z"/>
</g>
<rect x="409.9" y="65.5" class="st4" width="1.6" height="58.9"/>
</svg>
