<?xml version="1.0" encoding="UTF-8"?>
<svg id="_Слой_1" data-name="Слой_1" xmlns="http://www.w3.org/2000/svg" version="1.1" viewBox="0 0 1280 1024">
  <!-- Generator: Adobe Illustrator 29.4.0, SVG Export Plug-In . SVG Version: 2.1.0 Build 152)  -->
  <defs>
    <style>
      .st0 {
        fill: #f7c7d0;
      }

      .st1 {
        fill: none;
        stroke: #3c3c3b;
        stroke-width: 1.5px;
      }

      .st2 {
        fill: #3c3c3b;
      }
    </style>
  </defs>
  <rect class="st0" x="257.73" y="100.57" width="809.78" height="633.81"/>
  <rect class="st2" x="211.11" y="80.68" width="264.18" height="18.73"/>
  <rect class="st1" x="211.11" y="80.68" width="264.18" height="18.73"/>
  <rect class="st2" x="236.85" y="629.7" width="19.72" height="338.9"/>
  <rect class="st1" x="236.85" y="629.7" width="19.72" height="338.9"/>
  <rect class="st2" x="236.85" y="91.21" width="19.72" height="420.66"/>
  <rect class="st1" x="236.85" y="91.21" width="19.72" height="420.66"/>
  <rect class="st2" x="458.86" y="68.18" width="28.11" height="31.23"/>
  <rect class="st1" x="458.86" y="68.18" width="28.11" height="31.23"/>
  <rect class="st2" x="599.23" y="68.18" width="489.16" height="36.8"/>
  <rect class="st2" x="230.9" y="68.18" width="256.08" height="31.23"/>
  <rect class="st2" x="550.96" y="733.77" width="196.42" height="45.83"/>
  <rect class="st1" x="550.96" y="733.77" width="196.42" height="45.83"/>
  <rect class="st2" x="241.52" y="735.23" width="114.23" height="45.69"/>
  <rect class="st1" x="241.52" y="735.23" width="114.23" height="45.69"/>
  <rect class="st2" x="651.94" y="267.56" width="19.72" height="499.77"/>
  <rect class="st1" x="651.94" y="267.56" width="19.72" height="499.77"/>
  <rect class="st2" x="651.94" y="68.18" width="19.72" height="98.33"/>
  <rect class="st1" x="651.94" y="68.18" width="19.72" height="98.33"/>
  <rect class="st2" x="651.94" y="859.39" width="19.72" height="106.64"/>
  <rect class="st1" x="651.94" y="859.39" width="19.72" height="106.64"/>
  <rect class="st2" x="1068.67" y="87.04" width="19.72" height="695.2"/>
  <rect class="st1" x="1068.67" y="87.04" width="19.72" height="695.2"/>
  <rect class="st2" x="661.15" y="79.69" width="416.22" height="19.72"/>
  <rect class="st1" x="661.15" y="79.69" width="416.22" height="19.72"/>
  <rect class="st2" x="1065.05" y="68.18" width="28.27" height="839.04"/>
  <rect class="st1" x="247.87" y="952.3" width="409.27" height="11.49"/>
  <rect class="st1" x="665.42" y="922.09" width="409.26" height="13.12" transform="translate(-120.91 130.29) rotate(-8.01)"/>
  <rect class="st2" x="539.12" y="770.74" width="218.38" height="8.86"/>
  <rect class="st1" x="539.12" y="770.74" width="218.38" height="8.86"/>
  <rect class="st2" x="230.9" y="772.06" width="135.85" height="8.86"/>
  <rect class="st1" x="230.9" y="772.06" width="135.85" height="8.86"/>
  <rect class="st2" x="984.14" y="770.74" width="104.24" height="8.86"/>
  <rect class="st1" x="984.14" y="770.74" width="104.24" height="8.86"/>
  <rect class="st2" x="989.7" y="733.92" width="93.12" height="45.69"/>
  <rect class="st1" x="989.7" y="733.92" width="93.12" height="45.69"/>
  <rect class="st2" x="211.11" y="68.18" width="45.45" height="900.42"/>
  <rect class="st1" x="834.24" y="733.91" width="177.36" height="36.82"/>
  <rect class="st1" x="823.05" y="770.74" width="177.36" height="8.86"/>
  <path class="st1" d="M833.96,770.17s0-10.97-4.87-24.62c-4.08-11.43-12.19-22.1-12.19-22.1l-75.94,42.96,1.7,2.7,76.1-42.97"/>
  <rect class="st1" x="444.46" y="733.91" width="177.36" height="36.82"/>
  <rect class="st1" x="433.28" y="770.74" width="177.36" height="8.86"/>
  <path class="st1" d="M444.18,770.17s0-10.97-4.87-24.62c-4.08-11.43-12.19-22.1-12.19-22.1l-75.94,42.96,1.7,2.7,76.1-42.97"/>
  <rect class="st1" x="614.61" y="314.34" width="34.83" height="99.7"/>
  <line class="st1" x1="643.99" y1="314.64" x2="643.99" y2="414.51"/>
  <polyline class="st1" points="644.03 319.5 618.83 321.71 618.83 384.79 644.03 387.56 644.03 391.71 618.55 394.48 618.55 408.58 644.03 411.63"/>
  <rect class="st1" x="259.05" y="101.9" width="37.08" height="96.41"/>
  <line class="st1" x1="290.33" y1="102.15" x2="290.33" y2="198.82"/>
  <polyline class="st1" points="290.4 106.9 263.53 109.04 263.53 170.04 290.4 172.71 290.4 176.72 263.24 179.4 263.24 193.04 290.4 195.98"/>
  <path class="st1" d="M473.15,87.04l110.73,63.87s5.77-9.08,10.73-28.55c4.95-19.48,4.95-33.01,4.95-33.01"/>
  <path class="st1" d="M604.67,417.99l-83.95,48.02s-4.38-6.82-8.13-21.47c-3.75-14.64-3.75-24.82-3.75-24.82"/>
  <path class="st1" d="M661.94,159.87l54.08,94.18s-7.69,4.91-24.18,9.12c-16.49,4.21-27.95,4.21-27.95,4.21"/>
  <path class="st2" d="M887.04,556.96c0-2.05.85-3.07,2.56-3.07s2.54,1.03,2.54,3.07v16.87c0,2.06-.85,3.09-2.54,3.09s-2.56-1.03-2.56-3.09v-16.87ZM884.07,579.32c1.29,1.36,3.13,2.05,5.53,2.05s4.24-.68,5.52-2.05c1.28-1.37,1.92-3.3,1.92-5.8v-16.25c0-2.5-.64-4.43-1.92-5.8-1.28-1.36-3.12-2.05-5.52-2.05s-4.25.68-5.53,2.05c-1.29,1.36-1.93,3.3-1.93,5.8v16.25c0,2.5.64,4.43,1.93,5.8M879.18,576.5h-4.9v4.51h4.9v-4.51ZM861.01,556.96c0-2.02.84-3.03,2.54-3.03s2.56,1.01,2.56,3.03v5.62c0,2.05-.85,3.07-2.56,3.07s-2.54-1.02-2.54-3.07v-5.62ZM857.47,568.29c.91,1.22,2.26,1.83,4.06,1.83,2.18,0,3.7-.92,4.58-2.77v5.71c0,1.42-.23,2.42-.68,3-.45.57-1.14.86-2.06.86-1.7,0-2.56-1.03-2.56-3.09v-1.11h-4.62v.81c0,2.51.62,4.45,1.87,5.81,1.24,1.36,3.06,2.04,5.44,2.04,5,0,7.51-2.7,7.51-8.1v-15.99c0-2.5-.65-4.43-1.93-5.8-1.29-1.36-3.13-2.05-5.53-2.05s-4.25.68-5.53,2.05c-1.28,1.36-1.92,3.3-1.92,5.8v5.73c0,2.31.45,4.08,1.37,5.3M845.75,557.18v23.84h4.9v-31.25h-3.31c-.19.51-.36.92-.5,1.23-.15.31-.36.66-.65,1.04-.28.39-.6.69-.95.9-.35.21-.81.39-1.37.54-.57.15-1.21.23-1.94.23v3.46h3.82Z"/>
  <path class="st2" d="M979.15,501.82l2.37,15.73h-4.73l2.36-15.73ZM975.3,527.47l.85-5.67h6.01l.85,5.67h4.9l-4.97-31.25h-7.57l-4.97,31.25h4.9ZM959.5,500.69v26.78h4.9v-26.78h5.14v-4.46h-15.19v4.46h5.14ZM945.11,501.82l2.37,15.73h-4.73l2.36-15.73ZM941.26,527.47l.85-5.67h6.01l.85,5.67h4.9l-4.97-31.25h-7.57l-4.97,31.25h4.9ZM923.51,527.47v-13.38h5.58v13.38h4.9v-31.25h-4.9v13.4h-5.58v-13.4h-4.9v31.25h4.9ZM898.71,527.47v-22.04l3.66,22.04h4.65l3.39-22.4v22.4h4.9v-31.25h-7.07l-3.37,22.26-3.63-22.26h-6.81v31.25h4.27ZM881.3,503.41c0-2.05.85-3.07,2.56-3.07s2.54,1.03,2.54,3.07v16.87c0,2.06-.85,3.09-2.54,3.09s-2.56-1.03-2.56-3.09v-16.87ZM878.33,525.77c1.29,1.36,3.13,2.05,5.53,2.05s4.24-.68,5.52-2.05c1.28-1.36,1.92-3.3,1.92-5.8v-16.25c0-2.5-.64-4.43-1.92-5.8-1.28-1.36-3.12-2.05-5.52-2.05s-4.25.68-5.53,2.05c-1.29,1.36-1.93,3.3-1.93,5.8v16.25c0,2.5.65,4.43,1.93,5.8M863.26,527.47v-9.59l1.53-2.85,4.77,12.44h5.03l-6.82-17.32,6.82-13.92h-4.9l-6.43,13.62v-13.62h-4.9v31.25h4.9ZM838.12,503.91c0-1.12.2-1.94.6-2.45.4-.52,1.03-.78,1.91-.78h2.35v9.61h-1.92c-.97,0-1.7-.25-2.2-.75-.49-.5-.74-1.36-.74-2.56v-3.07ZM837.62,527.47c.12-.36.2-.64.24-.82.05-.18.09-.53.14-1.04.05-.52.07-1.17.07-1.97v-4.9c0-1.44.26-2.46.77-3.07.51-.61,1.32-.92,2.44-.92h1.7v12.73h4.9v-31.25h-7.41c-2.52,0-4.35.59-5.51,1.76-1.16,1.18-1.75,2.99-1.75,5.43v2.46c0,3.23,1.07,5.34,3.2,6.34-1.17.49-2.01,1.29-2.5,2.39-.5,1.1-.74,2.52-.74,4.25v4.81c0,1.68-.15,2.95-.46,3.79h4.91ZM822.83,501.82l2.38,15.73h-4.73l2.36-15.73ZM818.99,527.47l.85-5.67h6.01l.85,5.67h4.9l-4.97-31.25h-7.57l-4.97,31.25h4.9ZM794.71,527.51c2.46,0,4.24-.61,5.35-1.83,1.11-1.22,1.71-3.25,1.8-6.1l.54-18.89h4.25v26.78h4.9v-31.25h-14.05l-.54,23.62c-.03.72-.09,1.3-.19,1.72-.1.42-.28.74-.54.97-.26.22-.55.37-.88.42-.33.06-.8.09-1.4.09v4.46h.76ZM781.29,527.47l4.14-14.31,1.99-7.65v21.96h4.9v-31.25h-5.89l-4.01,12.9-1.78,6.89v-19.79h-4.38v31.25h5.03ZM752.79,527.47l4.48-13.92,1.21,2.43v11.5h4.91v-11.45l1.23-2.37,4.46,13.82h4.9l-6.02-18.5,6.02-12.75h-4.78l-5.81,12.64v-12.64h-4.91v12.64l-5.81-12.64h-4.78l6.09,12.81-6.09,18.43h4.9Z"/>
  <path class="st2" d="M920.51,420.27v26.84h-11.31l11.31-26.84ZM920.51,457.33v12.95h11.2v-12.95h5.13v-10.21h-5.13v-48.26h-12.25l-20.37,48.26v10.21h21.42ZM893.82,459.97h-11.2v10.31h11.2v-10.31ZM857.81,415.79v54.48h11.2v-71.42h-7.57c-.43,1.17-.81,2.1-1.14,2.81-.33.71-.82,1.51-1.47,2.4-.65.88-1.37,1.56-2.17,2.04-.79.48-1.84.9-3.14,1.25-1.29.35-2.77.52-4.43.52v7.92h8.72ZM820.81,420.27v26.84h-11.31l11.31-26.84ZM820.81,457.33v12.95h11.2v-12.95h5.13v-10.21h-5.13v-48.26h-12.25l-20.37,48.26v10.21h21.42Z"/>
  <circle class="st1" cx="867.79" cy="315.48" r="62.51" transform="translate(244.23 996.49) rotate(-67.5)"/>
  <path class="st2" d="M876.48,344.44v-16.59l2.64-4.94,8.26,21.53h8.71l-11.8-29.98,11.8-24.09h-8.48l-11.13,23.56v-23.56h-8.48v54.07h8.48ZM849.21,303.19v41.25h8.48v-54.07h-5.73c-.32.88-.62,1.59-.87,2.13-.25.54-.62,1.14-1.11,1.81-.49.66-1.04,1.18-1.64,1.55-.6.36-1.39.68-2.38.94-.98.26-2.1.39-3.36.39v6h6.6Z"/>
  <path class="st2" d="M919.82,870.23c2.47,0,4.23-.52,5.3-1.55,1.06-1.03,1.59-2.79,1.59-5.27v-17.58c0-2.48-.53-4.25-1.59-5.29-1.06-1.03-2.83-1.55-5.3-1.55h-1.5v4.25h1.2c.82,0,1.4.19,1.75.59.36.39.53,1.11.53,2.17v17.24c0,1.05-.18,1.77-.53,2.17-.35.39-.94.58-1.75.58h-1.2v4.25h1.5ZM911.17,843.45l-7.19,26.78h4.9l7.24-26.96v-4.29h-14.71v4.46h9.76ZM898.34,865.72h-4.9v4.51h4.9v-4.51ZM884.06,848.35v11.75h-4.94l4.94-11.75ZM884.06,864.56v5.67h4.91v-5.67h2.24v-4.46h-2.24v-21.11h-5.36l-8.91,21.11v4.46h9.37ZM866.46,868.68c1.06,1.04,2.83,1.55,5.3,1.55h1.5v-4.25h-1.21c-.82,0-1.4-.19-1.75-.58-.35-.39-.52-1.11-.52-2.17v-17.24c0-1.05.18-1.78.52-2.17.35-.39.94-.59,1.75-.59h1.21v-4.25h-1.5c-2.47,0-4.23.52-5.3,1.55-1.06,1.04-1.59,2.8-1.59,5.29v17.58c0,2.48.53,4.24,1.59,5.27M848.29,848.35v11.75h-4.95l4.95-11.75ZM848.29,864.56v5.67h4.9v-5.67h2.25v-4.46h-2.25v-21.11h-5.36l-8.91,21.11v4.46h9.37ZM836.61,865.72h-4.9v4.51h4.9v-4.51ZM818.44,846.17c0-2.02.84-3.03,2.53-3.03s2.56,1.01,2.56,3.03v5.62c0,2.05-.85,3.07-2.56,3.07s-2.53-1.03-2.53-3.07v-5.62ZM814.9,857.5c.91,1.22,2.26,1.83,4.06,1.83,2.17,0,3.7-.92,4.57-2.77v5.71c0,1.42-.23,2.42-.68,3-.45.57-1.14.86-2.06.86-1.71,0-2.56-1.03-2.56-3.1v-1.11h-4.62v.81c0,2.51.62,4.45,1.87,5.81,1.25,1.36,3.06,2.04,5.44,2.04,5,0,7.51-2.7,7.51-8.11v-15.99c0-2.5-.64-4.43-1.93-5.8-1.29-1.36-3.13-2.05-5.53-2.05s-4.24.68-5.52,2.05c-1.28,1.36-1.92,3.3-1.92,5.8v5.73c0,2.31.46,4.08,1.37,5.3"/>
  <path class="st2" d="M459.39,607.64c0-1.3.24-2.23.73-2.77.49-.54,1.17-.8,2.04-.8s1.55.26,2.04.79c.48.53.72,1.46.72,2.78v1.75c0,2.2-.92,3.29-2.76,3.29s-2.78-1.1-2.78-3.29v-1.75ZM459.39,620.67c0-2.35.92-3.53,2.78-3.53s2.76,1.18,2.76,3.53v2.9c-.01,1.31-.26,2.22-.74,2.75-.48.52-1.15.78-2.01.78s-1.55-.26-2.04-.8c-.49-.53-.73-1.44-.73-2.73v-2.9ZM456.47,629.49c1.32,1.36,3.22,2.05,5.7,2.05s4.37-.68,5.69-2.05c1.32-1.36,1.97-3.3,1.97-5.8v-2.46c0-3.2-1.01-5.37-3.04-6.52,2.02-1.13,3.04-3.23,3.04-6.28v-1c0-2.5-.65-4.43-1.97-5.8-1.31-1.36-3.21-2.05-5.69-2.05s-4.37.68-5.7,2.05c-1.32,1.37-1.98,3.3-1.98,5.8v1c0,3.08,1.01,5.17,3.04,6.28-2.02,1.15-3.04,3.32-3.04,6.52v2.46c0,2.5.66,4.43,1.98,5.8M451.74,626.68h-4.9v4.51h4.9v-4.51ZM433.44,607.64c0-1.3.24-2.23.73-2.77.49-.54,1.17-.8,2.05-.8s1.55.26,2.03.79c.48.53.72,1.46.72,2.78v1.75c0,2.2-.92,3.29-2.76,3.29s-2.78-1.1-2.78-3.29v-1.75ZM433.44,620.67c0-2.35.92-3.53,2.78-3.53s2.76,1.18,2.76,3.53v2.9c-.01,1.31-.26,2.22-.74,2.75-.48.52-1.15.78-2.01.78s-1.55-.26-2.05-.8c-.49-.53-.73-1.44-.73-2.73v-2.9ZM430.52,629.49c1.32,1.36,3.22,2.05,5.69,2.05s4.37-.68,5.69-2.05c1.31-1.36,1.97-3.3,1.97-5.8v-2.46c0-3.2-1.01-5.37-3.04-6.52,2.02-1.13,3.04-3.23,3.04-6.28v-1c0-2.5-.66-4.43-1.97-5.8-1.32-1.36-3.21-2.05-5.69-2.05s-4.37.68-5.69,2.05c-1.32,1.37-1.99,3.3-1.99,5.8v1c0,3.08,1.01,5.17,3.04,6.28-2.03,1.15-3.04,3.32-3.04,6.52v2.46c0,2.5.66,4.43,1.99,5.8"/>
  <path class="st2" d="M484.04,563.37c0-1.12.2-1.94.6-2.45.4-.52,1.04-.78,1.9-.78h2.35v9.61h-1.92c-.97,0-1.7-.25-2.2-.75-.49-.5-.74-1.36-.74-2.56v-3.07ZM483.54,586.93c.12-.36.19-.64.24-.82.05-.18.09-.53.14-1.04.05-.52.07-1.17.07-1.97v-4.9c0-1.44.26-2.46.76-3.07.51-.61,1.32-.92,2.44-.92h1.7v12.73h4.91v-31.25h-7.41c-2.52,0-4.35.59-5.51,1.76-1.16,1.18-1.75,2.99-1.75,5.43v2.46c0,3.23,1.07,5.34,3.2,6.34-1.17.49-2.01,1.29-2.5,2.39-.5,1.1-.74,2.52-.74,4.25v4.81c0,1.68-.15,2.95-.46,3.79h4.91ZM465.3,586.93v-13.38h5.58v13.38h4.9v-31.25h-4.9v13.4h-5.58v-13.4h-4.9v31.25h4.9ZM445.02,586.93l3.81-11.62,3.77,11.62h4.91l-5.47-15.92,5.14-15.33h-4.31l-3.78,11.58-3.72-11.58h-4.9l5.14,15.14-5.49,16.1h4.91ZM428.41,579.72l-.04.28c-.19,1.08-.63,1.79-1.31,2.13-.68.34-1.69.47-3.03.39v4.44c1.32.09,2.47.04,3.46-.14.99-.19,1.82-.47,2.51-.87.68-.39,1.26-.94,1.75-1.65.48-.71.87-1.49,1.17-2.32.3-.84.57-1.86.81-3.06l5.24-23.25h-4.91l-2.24,10.72-1.15,7.23-1.52-7.3-2.65-10.65h-4.9l6.81,24.04ZM409.48,586.93v-9.59l1.53-2.85,4.77,12.44h5.03l-6.82-17.32,6.82-13.92h-4.9l-6.43,13.62v-13.62h-4.9v31.25h4.9Z"/>
  <path class="st2" d="M259.73,455.45h68.36v68.94h-68.36v-68.94ZM258.21,525.92h71.38v-71.99h-71.38v71.99Z"/>
  <path class="st1" d="M259.73,455.45h68.36v68.94h-68.36v-68.94ZM258.21,525.92h71.38v-71.99h-71.38v71.99Z"/>
  <g>
    <path class="st2" d="M321.86,514.07c0,1.7-1.37,3.09-3.06,3.09h-35.95c-1.69,0-3.07-1.38-3.07-3.09v-48.3c0-1.7,1.38-3.08,3.07-3.08h35.95c1.68,0,3.06,1.38,3.06,3.08v48.3ZM278.27,465.76v48.3c0,2.54,2.06,4.61,4.58,4.61h35.95c2.52,0,4.57-2.07,4.57-4.61v-48.3c0-2.54-2.05-4.61-4.57-4.61h-35.95c-2.52,0-4.58,2.07-4.58,4.61"/>
    <path class="st1" d="M321.86,514.07c0,1.7-1.37,3.09-3.06,3.09h-35.95c-1.69,0-3.07-1.38-3.07-3.09v-48.3c0-1.7,1.38-3.08,3.07-3.08h35.95c1.68,0,3.06,1.38,3.06,3.08v48.3ZM278.27,465.76v48.3c0,2.54,2.06,4.61,4.58,4.61h35.95c2.52,0,4.57-2.07,4.57-4.61v-48.3c0-2.54-2.05-4.61-4.57-4.61h-35.95c-2.52,0-4.58,2.07-4.58,4.61Z"/>
  </g>
  <path class="st2" d="M285.1,468.03h31.45v43.77h-31.45v-43.77ZM283.58,513.32h34.48v-46.82h-34.48v46.82Z"/>
  <path class="st1" d="M285.1,468.03h31.45v43.77h-31.45v-43.77ZM283.58,513.32h34.48v-46.82h-34.48v46.82Z"/>
  <g>
    <path class="st2" d="M306.93,489.92c0,2.22-1.79,4.02-3.98,4.02s-3.98-1.8-3.98-4.02,1.79-4.02,3.98-4.02,3.98,1.8,3.98,4.02M297.44,489.92c0,3.06,2.47,5.56,5.5,5.56s5.5-2.49,5.5-5.56-2.47-5.56-5.5-5.56-5.5,2.49-5.5,5.56"/>
    <path class="st1" d="M306.93,489.92c0,2.22-1.79,4.02-3.98,4.02s-3.98-1.8-3.98-4.02,1.79-4.02,3.98-4.02,3.98,1.8,3.98,4.02ZM297.44,489.92c0,3.06,2.47,5.56,5.5,5.56s5.5-2.49,5.5-5.56-2.47-5.56-5.5-5.56-5.5,2.49-5.5,5.56Z"/>
  </g>
  <rect class="st1" x="407.36" y="367.32" width="47.22" height="69.53"/>
  <line class="st1" x1="407.26" y1="368.14" x2="454.35" y2="436.76"/>
  <line class="st1" x1="407.26" y1="437.55" x2="454.35" y2="368.93"/>
  <rect class="st2" x="250.17" y="200.8" width="218.55" height="8.86"/>
  <rect class="st1" x="250.17" y="200.8" width="218.55" height="8.86"/>
  <rect class="st2" x="458.37" y="371.44" width="10.84" height="80.83"/>
  <rect class="st1" x="458.37" y="371.44" width="10.84" height="80.83"/>
  <rect class="st2" x="252.38" y="441.43" width="212.92" height="10.84"/>
  <rect class="st1" x="252.38" y="441.43" width="212.92" height="10.84"/>
  <rect class="st2" x="458.37" y="200.74" width="10.84" height="100.03"/>
  <rect class="st1" x="458.37" y="200.74" width="10.84" height="100.03"/>
  <g>
    <path class="st1" d="M461.37,381.59l40.67-71.36s-5.78-3.72-18.18-6.91c-12.4-3.19-21.02-3.19-21.02-3.19"/>
    <path class="st2" d="M585.22,274.81c1.32,1.36,3.17,2.04,5.57,2.04s4.21-.68,5.45-2.04c1.24-1.36,1.86-3.3,1.86-5.81v-6.97c0-2.33-.45-4.09-1.36-5.31-.91-1.22-2.26-1.82-4.06-1.82-1.94,0-3.37.75-4.27,2.26l.39-7.45h8.52v-4.46h-13.13l-.94,18.13h4.9v-.94c0-2.05.84-3.07,2.52-3.07s2.54,1.03,2.54,3.07v6.86c0,2.03-.84,3.05-2.54,3.05s-2.52-1.02-2.52-3.05v-2.9h-4.9v2.59c0,2.51.66,4.45,1.98,5.81M580.08,271.99h-4.9v4.51h4.9v-4.51ZM559.27,274.81c1.32,1.36,3.17,2.04,5.56,2.04s4.21-.68,5.45-2.04c1.24-1.36,1.86-3.3,1.86-5.81v-6.97c0-2.33-.45-4.09-1.36-5.31-.91-1.22-2.26-1.82-4.06-1.82-1.94,0-3.37.75-4.27,2.26l.39-7.45h8.52v-4.46h-13.13l-.94,18.13h4.9v-.94c0-2.05.84-3.07,2.52-3.07s2.54,1.03,2.54,3.07v6.86c0,2.03-.84,3.05-2.54,3.05s-2.52-1.02-2.52-3.05v-2.9h-4.9v2.59c0,2.51.66,4.45,1.98,5.81"/>
    <path class="st2" d="M643.36,208.68c0-1.12.2-1.94.6-2.45.4-.52,1.03-.78,1.91-.78h2.35v9.61h-1.92c-.97,0-1.7-.25-2.2-.75-.49-.5-.74-1.36-.74-2.56v-3.07ZM642.86,232.23c.12-.36.19-.64.24-.82.05-.18.09-.53.14-1.04.05-.52.07-1.17.07-1.97v-4.91c0-1.43.26-2.46.77-3.07.51-.61,1.32-.92,2.44-.92h1.7v12.73h4.9v-31.25h-7.41c-2.52,0-4.35.59-5.51,1.76-1.16,1.18-1.75,2.98-1.75,5.43v2.46c0,3.23,1.07,5.34,3.2,6.34-1.17.49-2.01,1.29-2.5,2.39-.5,1.1-.74,2.52-.74,4.25v4.81c0,1.68-.15,2.95-.46,3.79h4.91ZM628.08,206.59l2.38,15.73h-4.73l2.36-15.73ZM624.23,232.23l.85-5.67h6.01l.85,5.67h4.9l-4.97-31.25h-7.57l-4.97,31.25h4.9ZM597.15,232.23l4.48-13.92,1.21,2.43v11.5h4.9v-11.45l1.23-2.37,4.46,13.82h4.91l-6.02-18.5,6.02-12.75h-4.78l-5.82,12.64v-12.64h-4.9v12.64l-5.82-12.64h-4.78l6.09,12.81-6.09,18.43h4.91ZM580.5,208.18c0-2.05.85-3.07,2.56-3.07s2.54,1.03,2.54,3.07v16.87c0,2.06-.85,3.09-2.54,3.09s-2.56-1.03-2.56-3.09v-16.87ZM577.53,230.53c1.29,1.36,3.13,2.05,5.53,2.05s4.24-.68,5.52-2.05c1.28-1.36,1.92-3.3,1.92-5.8v-16.25c0-2.5-.64-4.43-1.92-5.8-1.28-1.36-3.12-2.05-5.52-2.05s-4.25.68-5.53,2.05c-1.29,1.36-1.93,3.3-1.93,5.8v16.25c0,2.5.64,4.43,1.93,5.8M560.63,232.23l3.81-11.62,3.77,11.62h4.91l-5.46-15.92,5.13-15.33h-4.31l-3.78,11.58-3.72-11.58h-4.9l5.14,15.14-5.49,16.1h4.91ZM542.83,232.23l4.14-14.31,1.98-7.65v21.96h4.91v-31.25h-5.89l-4.01,12.9-1.78,6.89v-19.79h-4.38v31.25h5.03ZM525.88,205.45h2.33c.82,0,1.42.22,1.81.67.39.44.59,1.2.59,2.27v4.69c0,1.07-.2,1.83-.59,2.28-.39.45-.99.68-1.81.68h-2.33v-10.59ZM525.88,232.23v-11.74h2.33c2.42,0,4.24-.66,5.47-1.97,1.23-1.31,1.84-3.23,1.84-5.74v-4.05c0-2.52-.61-4.43-1.84-5.76-1.23-1.32-3.05-1.98-5.47-1.98h-7.22v31.25h4.9ZM506.84,232.23v-26.78h5.58v26.78h4.9v-31.25h-15.38v31.25h4.9Z"/>
    <path class="st2" d="M345.37,392.5c0,11.87-9.66,21.52-21.54,21.52h-31.18c-2.05,0-3.72-1.66-3.72-3.71v-35.63c0-2.05,1.67-3.72,3.72-3.72h31.18c11.87,0,21.54,9.66,21.54,21.54M287.46,374.69v35.63c0,2.86,2.33,5.19,5.19,5.19h31.18c12.69,0,23.01-10.32,23.01-23s-10.32-23.01-23.01-23.01h-31.18c-2.86,0-5.19,2.33-5.19,5.19"/>
    <path class="st1" d="M345.37,392.5c0,11.87-9.66,21.52-21.54,21.52h-31.18c-2.05,0-3.72-1.66-3.72-3.71v-35.63c0-2.05,1.67-3.72,3.72-3.72h31.18c11.87,0,21.54,9.66,21.54,21.54ZM287.46,374.69v35.63c0,2.86,2.33,5.19,5.19,5.19h31.18c12.69,0,23.01-10.32,23.01-23s-10.32-23.01-23.01-23.01h-31.18c-2.86,0-5.19,2.33-5.19,5.19Z"/>
    <path class="st1" d="M299.35,407.94v-30.87c0-.2.18-.38.37-.38h23.5c8.68,0,15.81,7.12,15.81,15.81s-7.12,15.8-15.81,15.8h-23.5c-.19,0-.37-.17-.37-.37Z"/>
    <path class="st2" d="M300.09,407.57v-30.14h23.13c8.31,0,15.07,6.76,15.07,15.07s-6.76,15.07-15.07,15.07h-23.13ZM298.61,377.07v30.87c0,.6.51,1.1,1.11,1.1h23.5c9.12,0,16.55-7.42,16.55-16.54s-7.42-16.55-16.55-16.55h-23.5c-.6,0-1.11.51-1.11,1.12"/>
    <path class="st1" d="M300.09,407.57v-30.14h23.13c8.31,0,15.07,6.76,15.07,15.07s-6.76,15.07-15.07,15.07h-23.13ZM298.61,377.07v30.87c0,.6.51,1.1,1.11,1.1h23.5c9.12,0,16.55-7.42,16.55-16.54s-7.42-16.55-16.55-16.55h-23.5c-.6,0-1.11.51-1.11,1.12Z"/>
    <path class="st2" d="M323.26,392.5c0,2.24-1.82,4.07-4.07,4.07s-4.07-1.83-4.07-4.07,1.83-4.07,4.07-4.07,4.07,1.82,4.07,4.07M313.64,392.5c0,3.06,2.49,5.55,5.55,5.55s5.55-2.49,5.55-5.55-2.49-5.55-5.55-5.55-5.55,2.49-5.55,5.55"/>
    <path class="st1" d="M323.26,392.5c0,2.24-1.82,4.07-4.07,4.07s-4.07-1.83-4.07-4.07,1.83-4.07,4.07-4.07,4.07,1.82,4.07,4.07ZM313.64,392.5c0,3.06,2.49,5.55,5.55,5.55s5.55-2.49,5.55-5.55-2.49-5.55-5.55-5.55-5.55,2.49-5.55,5.55Z"/>
  </g>
  <rect class="st2" x="301.54" y="400.69" width="12.34" height="1.48" transform="translate(-178.86 263.31) rotate(-36.68)"/>
  <rect class="st1" x="301.54" y="400.69" width="12.34" height="1.48" transform="translate(-178.86 263.31) rotate(-36.68)"/>
  <polygon class="st2" points="302.33 380.71 312.21 388.11 313.1 386.93 303.22 379.53 302.33 380.71"/>
  <polygon class="st1" points="302.33 380.71 312.21 388.11 313.1 386.93 303.22 379.53 302.33 380.71"/>
  <g>
    <path class="st2" d="M287.39,407.36c0,3.29-2.67,5.96-5.96,5.96h-8.11c-3.29,0-5.97-2.68-5.97-5.96v-29.72c0-3.29,2.68-5.96,5.97-5.96h8.11c3.29,0,5.96,2.68,5.96,5.96v29.72ZM265.86,377.64v29.72c0,4.1,3.34,7.44,7.45,7.44h8.11c4.11,0,7.44-3.34,7.44-7.44v-29.72c0-4.1-3.34-7.44-7.44-7.44h-8.11c-4.11,0-7.45,3.34-7.45,7.44"/>
    <path class="st1" d="M287.39,407.36c0,3.29-2.67,5.96-5.96,5.96h-8.11c-3.29,0-5.97-2.68-5.97-5.96v-29.72c0-3.29,2.68-5.96,5.97-5.96h8.11c3.29,0,5.96,2.68,5.96,5.96v29.72ZM265.86,377.64v29.72c0,4.1,3.34,7.44,7.45,7.44h8.11c4.11,0,7.44-3.34,7.44-7.44v-29.72c0-4.1-3.34-7.44-7.44-7.44h-8.11c-4.11,0-7.45,3.34-7.45,7.44Z"/>
    <path class="st2" d="M279.68,392.5c0,1.27-1.04,2.31-2.31,2.31s-2.3-1.03-2.3-2.31,1.03-2.31,2.3-2.31,2.31,1.03,2.31,2.31M273.58,392.5c0,2.09,1.69,3.78,3.78,3.78s3.79-1.69,3.79-3.78-1.7-3.79-3.79-3.79-3.78,1.7-3.78,3.79"/>
    <path class="st1" d="M279.68,392.5c0,1.27-1.04,2.31-2.31,2.31s-2.3-1.03-2.3-2.31,1.03-2.31,2.3-2.31,2.31,1.03,2.31,2.31ZM273.58,392.5c0,2.09,1.69,3.78,3.78,3.78s3.79-1.69,3.79-3.78-1.7-3.79-3.79-3.79-3.78,1.7-3.78,3.79Z"/>
    <path class="st2" d="M304.93,318.65c0-11.14-9.09-20.21-20.26-20.21h-21.5c-1.7,0-3.08,1.38-3.08,3.07v45.68c0,1.69,1.38,3.07,3.08,3.07h21.5c11.17,0,20.26-9.07,20.26-20.21v-11.4ZM258.95,347.2v-45.68c0-2.32,1.89-4.21,4.22-4.21h21.5c11.8,0,21.41,9.58,21.41,21.35v11.4c0,11.77-9.6,21.35-21.41,21.35h-21.5c-2.33,0-4.22-1.88-4.22-4.21"/>
    <path class="st1" d="M304.93,318.65c0-11.14-9.09-20.21-20.26-20.21h-21.5c-1.7,0-3.08,1.38-3.08,3.07v45.68c0,1.69,1.38,3.07,3.08,3.07h21.5c11.17,0,20.26-9.07,20.26-20.21v-11.4ZM258.95,347.2v-45.68c0-2.32,1.89-4.21,4.22-4.21h21.5c11.8,0,21.41,9.58,21.41,21.35v11.4c0,11.77-9.6,21.35-21.41,21.35h-21.5c-2.33,0-4.22-1.88-4.22-4.21Z"/>
    <path class="st2" d="M299.86,318.64c0-8.35-6.82-15.14-15.2-15.14h-12.55c-1.46,0-2.65,1.18-2.65,2.64v36.42c0,1.46,1.19,2.65,2.65,2.65h12.55c8.38,0,15.2-6.8,15.2-15.15v-11.41ZM268.32,342.56v-36.42c0-2.08,1.7-3.78,3.8-3.78h12.55c9.01,0,16.34,7.31,16.34,16.28v11.41c0,8.99-7.33,16.29-16.34,16.29h-12.55c-2.09,0-3.8-1.7-3.8-3.78"/>
    <path class="st1" d="M299.86,318.64c0-8.35-6.82-15.14-15.2-15.14h-12.55c-1.46,0-2.65,1.18-2.65,2.64v36.42c0,1.46,1.19,2.65,2.65,2.65h12.55c8.38,0,15.2-6.8,15.2-15.15v-11.41ZM268.32,342.56v-36.42c0-2.08,1.7-3.78,3.8-3.78h12.55c9.01,0,16.34,7.31,16.34,16.28v11.41c0,8.99-7.33,16.29-16.34,16.29h-12.55c-2.09,0-3.8-1.7-3.8-3.78Z"/>
    <path class="st2" d="M289.23,324.35c0-1.4-1.14-2.54-2.54-2.54s-2.54,1.14-2.54,2.54,1.14,2.54,2.54,2.54,2.54-1.14,2.54-2.54M282.99,324.35c0-2.04,1.66-3.69,3.7-3.69s3.7,1.65,3.7,3.69-1.66,3.69-3.7,3.69-3.7-1.65-3.7-3.69"/>
    <path class="st1" d="M289.23,324.35c0-1.4-1.14-2.54-2.54-2.54s-2.54,1.14-2.54,2.54,1.14,2.54,2.54,2.54,2.54-1.14,2.54-2.54ZM282.99,324.35c0-2.04,1.66-3.69,3.7-3.69s3.7,1.65,3.7,3.69-1.66,3.69-3.7,3.69-3.7-1.65-3.7-3.69Z"/>
    <path class="st1" d="M294.34,251.9c0,1.59,1.31,2.87,2.92,2.87s2.92-1.28,2.92-2.87-1.31-2.87-2.92-2.87-2.92,1.28-2.92,2.87Z"/>
    <path class="st1" d="M449.03,237.18c0-10.82-8.77-19.59-19.59-19.59h-143.14c-10.82,0-19.59,8.77-19.59,19.59v29.45c0,10.82,8.77,19.59,19.59,19.59h143.14c10.82,0,19.59-8.77,19.59-19.59v-29.45Z"/>
    <rect class="st1" x="279.37" y="223.99" width="157.01" height="55.82" rx="19.59" ry="19.59"/>
    <rect class="st1" x="286.36" y="230.15" width="134.74" height="43.5" rx="9.79" ry="9.79"/>
  </g>
  <polygon class="st1" points="259.57 291.94 259.57 291.94 456.18 291.94 456.18 211.86 259.57 211.86 259.57 291.94"/>
  <g>
    <path class="st2" d="M387.2,363.58v11.74h-4.95l4.95-11.74ZM387.2,379.79v5.67h4.9v-5.67h2.24v-4.46h-2.24v-21.11h-5.36l-8.91,21.11v4.46h9.37ZM375.52,380.94h-4.9v4.51h4.9v-4.51ZM354.67,383.76c1.32,1.36,3.17,2.04,5.56,2.04s4.21-.68,5.45-2.04c1.24-1.36,1.86-3.3,1.86-5.81v-2.46c0-3.38-1.14-5.57-3.42-6.56,2.28-.94,3.42-3.09,3.42-6.42v-.81c0-2.52-.62-4.45-1.86-5.81-1.24-1.36-3.06-2.04-5.45-2.04s-4.25.68-5.56,2.04c-1.32,1.36-1.98,3.29-1.98,5.81v1.7h4.9v-2c0-2.05.84-3.07,2.52-3.07.84,0,1.47.26,1.9.78.43.52.64,1.45.64,2.79v1.75c0,1.19-.25,2.04-.74,2.54-.49.5-1.23.75-2.2.75h-1.92v4.46h1.66c1.13,0,1.95.31,2.45.91.5.61.75,1.63.75,3.05v2.46c0,1.3-.21,2.22-.64,2.74-.43.52-1.06.78-1.9.78-1.68,0-2.52-1.03-2.52-3.09v-2.9h-4.9v2.59c0,2.51.66,4.45,1.98,5.81"/>
    <path class="st2" d="M388.14,333.98l-.04.28c-.19,1.07-.63,1.78-1.31,2.13-.69.35-1.69.48-3.04.39v4.44c1.32.09,2.47.04,3.46-.14.99-.18,1.82-.47,2.5-.86.68-.39,1.26-.95,1.75-1.65.49-.71.88-1.49,1.17-2.33.3-.84.57-1.86.81-3.05l5.24-23.25h-4.9l-2.24,10.72-1.15,7.23-1.52-7.3-2.65-10.65h-4.9l6.81,24.04ZM368.45,341.19l12.31-31.25h-4.25l-12.31,31.25h4.25ZM350.01,339.5c1.24,1.36,3.07,2.04,5.47,2.04s4.27-.68,5.59-2.04c1.32-1.36,1.98-3.3,1.98-5.81v-4.16h-4.9v4.47c0,2.03-.84,3.05-2.54,3.05s-2.56-1.02-2.56-3.05v-16.87c0-2.05.85-3.07,2.56-3.07s2.54,1.03,2.54,3.07v3.36h4.9v-3.05c0-2.52-.66-4.45-1.98-5.81-1.32-1.36-3.18-2.04-5.59-2.04s-4.23.68-5.47,2.04c-1.24,1.36-1.87,3.29-1.87,5.81v16.25c0,2.51.62,4.45,1.87,5.81"/>
  </g>
  <rect class="st2" x="601.94" y="414.53" width="52.6" height="10.84"/>
  <rect class="st1" x="601.94" y="414.53" width="52.6" height="10.84"/>
  <rect class="st2" x="458.37" y="414.53" width="51.16" height="10.84"/>
  <rect class="st1" x="458.37" y="414.53" width="51.16" height="10.84"/>
</svg>