<?xml version="1.0" encoding="utf-8"?>
<!-- Generator: Adobe Illustrator 26.0.1, SVG Export Plug-In . SVG Version: 6.00 Build 0)  -->
<svg version="1.1" id="Слой_1" xmlns="http://www.w3.org/2000/svg" xmlns:xlink="http://www.w3.org/1999/xlink" x="0px" y="0px"
	 viewBox="0 0 30 30" style="enable-background:new 0 0 30 30;" xml:space="preserve">
<style type="text/css">
	.st0{fill:#FFFFFF;}
</style>
<g>
	<path class="st0" d="M27,13.2c-0.8,0-1.4,0-2.2,0c0-1.4,0-2.7,0-4.3c-2.2,0-4.3,0-6.6,0c0-2.3,0-4.3,0-6.6c-3.4,0-6.6-0.1-9.8,0.1
		C8,2.5,7.3,3.5,7.3,4.2c-0.1,3-0.1,6-0.1,9c-0.7,0-1.3,0-2.1,0c0-3.5-0.1-7,0.1-10.5c0.1-1.6,1.4-2.5,3.1-2.5c3.6,0,7.1-0.1,10.7,0
		c0.6,0,1.2,0.4,1.6,0.8c1.7,1.6,3.2,3.3,4.9,4.8c1.2,1,1.6,2.2,1.5,3.7C26.9,10.7,27,11.9,27,13.2z M20.5,4.4
		c0,0.7-0.1,1.4-0.1,2.2c0.9,0,1.6,0,2.4,0C22,5.9,21.4,5.2,20.5,4.4z"/>
</g>
<g>
	<path class="st0" d="M5.5,29.4L8,22.7l-2.3-5.7h2.5l0.7,2.4c0.1,0.4,0.2,0.8,0.3,1.1c0.1,0.4,0.1,0.7,0.2,1.1
		c0.1-0.4,0.1-0.8,0.2-1.2s0.2-0.8,0.4-1.2l0.8-2.2h2.4l-2.3,5.7l2.5,6.6h-2.5l-1-3.2c-0.1-0.3-0.2-0.7-0.3-1s-0.1-0.8-0.2-1.2
		c-0.1,0.5-0.1,0.9-0.2,1.2s-0.2,0.7-0.3,1l-1,3.2H5.5z"/>
	<path class="st0" d="M14.3,29.4V17.1h2.4v10.3h2.8v2H14.3z"/>
	<path class="st0" d="M19.9,26.6L22,26c0.1,0.5,0.2,0.9,0.4,1.2c0.2,0.3,0.5,0.4,0.9,0.4c0.3,0,0.6-0.1,0.8-0.3
		c0.2-0.2,0.3-0.5,0.3-0.9c0-0.3-0.1-0.7-0.3-1c-0.2-0.3-0.7-0.8-1.4-1.4c-1-0.8-1.7-1.6-2-2.1c-0.4-0.6-0.5-1.2-0.5-1.9
		c0-1,0.3-1.7,0.9-2.3c0.6-0.6,1.4-0.9,2.3-0.9c0.9,0,1.7,0.2,2.2,0.7c0.6,0.5,0.9,1.1,1.1,2l-1.9,0.7c-0.1-0.5-0.2-0.9-0.4-1.1
		c-0.2-0.3-0.5-0.4-0.8-0.4c-0.3,0-0.6,0.1-0.7,0.3c-0.2,0.2-0.3,0.5-0.3,0.8c0,0.6,0.5,1.3,1.6,2.2c0.3,0.2,0.4,0.4,0.6,0.5
		c0.7,0.7,1.3,1.3,1.6,1.8c0.3,0.5,0.5,1.2,0.5,1.8c0,1.1-0.3,1.9-0.9,2.6c-0.6,0.6-1.4,0.9-2.5,0.9c-0.9,0-1.7-0.3-2.3-0.8
		S20,27.5,19.9,26.6z"/>
</g>
</svg>
