<svg xmlns="http://www.w3.org/2000/svg" xmlns:xlink="http://www.w3.org/1999/xlink" xml:space="preserve" id="Слой_1" x="0" y="0" style="enable-background:new 0 0 246 252" version="1.1" viewBox="0 0 246 252"><style>.st0{fill:#b7e0e5}.st1{fill:#39363a}.st2,.st6{fill:none;stroke:#39363a;stroke-width:.75}.st6{stroke-width:.6}.st8{fill:#39363a;clip-path:url(#SVGID_8_)}.st10{stroke-width:.7}.st10,.st15,.st16{fill:none;stroke:#39363a}.st15{clip-path:url(#SVGID_18_);stroke-width:.7}.st16{stroke-width:.25}.st19,.st20{clip-path:url(#SVGID_22_);fill:#39363a}.st20{fill:none;stroke:#39363a;stroke-width:.25}.st21,.st22{clip-path:url(#SVGID_24_);fill:#39363a}.st22{fill:none;stroke:#39363a;stroke-width:.25}</style><switch><g><path d="M127.2 21.3H226v202.1h-98.8z" class="st0"/><path d="M28.4 21.4H226v153.3H28.4z" class="st0"/><path d="M225.1 14.3h7.4v220.5h-7.4zM122.3 62.8h7.4v172.1h-7.4zm0-48.5h7.4v23.5h-7.4z" class="st1"/><path d="M21.7 14.3h119.6v7.4H21.7zm146.5 0h64.2v7.4h-64.2z" class="st1"/><path d="M21 14.3h7.4v209.5H21zm190.1 160.4h17.4v8.8h-17.4zm-102.1 0h35.4v8.8H109z" class="st1"/><path d="M21 215.9h9.4v7.9H21zM223.1 230h9.4v7.9h-9.4zm-102 0h11.3v7.9h-11.3zm51.6-187h55v4.4h-55zm0 60.5h55v4.4h-55z" class="st1"/><path d="M172.7 43.8h4.4V70h-4.4zm0 43.4h4.4v20.7h-4.4zm-46 6.3h15v4h-15z" class="st1"/><path d="M165.2 93.5h11.3v4h-11.3z" class="st1"/><path d="M127 228.2h98.5v2.1H127z" class="st2"/><defs><path id="SVGID_1_" d="M21 14.3h211.5V238H21z"/></defs><clipPath id="SVGID_2_"><use xlink:href="#SVGID_1_" style="overflow:visible"/></clipPath><path d="M127 223.8h98.5v13.8H127z" style="clip-path:url(#SVGID_2_);fill:none;stroke:#39363a;stroke-width:.75"/><path d="m23.946 215.08.328-2.073 99.558 15.775-.328 2.074z" class="st2"/><path d="m22.962 221.956 2.19-13.828 98.572 15.609-2.19 13.827z" class="st2"/><path d="M21 14.3h211.5V238H21z" style="fill:none"/><path d="M23.8 180h65.6v2.1H23.8zm0-4.9h65.6v4.9H23.8z" class="st2"/><defs><path id="SVGID_3_" d="M21 14.3h211.5V238H21z"/></defs><clipPath id="SVGID_4_"><use xlink:href="#SVGID_3_" style="overflow:visible"/></clipPath><path d="M112.6 121c0-.2.1-.4.4-.4h1.1v.6c-.3.2-.7.4-1 .4-.3 0-.5-.1-.5-.4v-.2zm-1.4-2c.9-.1 1.7-.1 2.2-.1.5 0 .7.2.7.6v.1h-1.7c-1 0-1.7.5-1.7 1.3v.5c0 1 .8 1.5 1.7 1.5.9 0 1.5-.5 1.8-.9l.2.8h1.5v-3.3c0-1.5-.8-2-2.2-2-.8 0-2.1.1-2.8.3l.3 1.2zm-.9 0v-1.4h-5.2v1.4h1.6v3.7h1.9V119h1.7zm-9.2 2c0-.2.1-.4.4-.4h1.1v.6c-.3.2-.7.4-1 .4-.3 0-.5-.1-.5-.4v-.2zm-1.4-2c.9-.1 1.7-.1 2.2-.1.5 0 .7.2.7.6v.1h-1.7c-1 0-1.7.5-1.7 1.3v.5c0 1 .8 1.5 1.7 1.5.9 0 1.5-.5 1.8-.9l.2.8h1.5v-3.3c0-1.5-.8-2-2.2-2-.8 0-2.1.1-2.8.3l.3 1.2zm-1.3-1.4h-1.9v1.8h-1.6v-1.8H93v5.2h1.9v-2.1h1.6v2.1h1.9v-5.2zm-8.8 0c-.4 0-.6.2-.7.6l-.4 1.9c-.1.3-.1.5-.1.8h-.1c0-.3 0-.5-.1-.8l-.5-1.9c-.1-.4-.3-.6-.7-.6h-1.6c-.4 0-.6.2-.7.6l-.1 4.5h1.7l.1-3.8h.1l.6 2.5c.1.4.3.6.7.6h.8c.4 0 .6-.2.7-.6l.6-2.5h.1l.1 3.8H92l-.1-4.5c0-.4-.2-.6-.6-.6h-1.7zm-8.6 1.2c.6 0 .8.3.8 1.4 0 1.1-.2 1.4-.8 1.4-.6 0-.8-.3-.8-1.4 0-1.1.2-1.4.8-1.4m0-1.3c-2 0-2.8.7-2.8 2.7s.7 2.7 2.8 2.7c2 0 2.8-.7 2.8-2.7s-.7-2.7-2.8-2.7m-5.2 2.6c1.2-.2 1.1-.3 1.8-2.5h-1.9c-.4 1.7-.5 1.9-1.2 1.9h-.2c0-.2.1-.4.1-.7v-1.2h-1.9v5.2h1.9v-1.6c0-.1 0-.3-.1-.4h.4c.6 0 .6.1 1.1 2.1h2c-.7-2.6-.7-2.6-2-2.8zm-8.5-.1h-.7c-.5 0-.6-.1-.6-.6 0-.4.1-.5.6-.5h.7v1.1zm-2 .6c-.3 0-.9.1-1 .6l-.4 1.6h1.9l.3-1.4c0-.2.2-.3.5-.3h.7v1.7h1.8v-5.2c-.6-.1-1.2-.1-2.6-.1-1.9 0-2.4.4-2.4 1.7 0 .6.3 1.2 1.2 1.4zm-5.5.4c0-.2.1-.4.4-.4h1.1v.6c-.3.2-.7.4-1 .4-.3 0-.5-.1-.5-.4v-.2zm-1.5-2c.9-.1 1.7-.1 2.2-.1.5 0 .7.2.7.6v.1h-1.7c-1 0-1.7.5-1.7 1.3v.5c0 1 .8 1.5 1.7 1.5.9 0 1.5-.5 1.8-.9l.2.8H63v-3.3c0-1.5-.8-2-2.2-2-.8 0-2.1.1-2.8.3l.3 1.2zm-1.3-1.4h-3.1c-.9 0-1.4.5-1.4 1.3-.1.9-.2 1.7-.3 2-.1.4-.4.4-.9.5l.2 1.4c1.1.2 2.2-.1 2.4-1.4.1-.5.2-1.4.3-2.2 0-.3.2-.4.5-.4h.4v3.9H57v-5.1zm-6.3 5.2v-5.2h-1.6l-1.6 2.5c-.2.2-.3.5-.4.8 0-.3.1-.5.1-.8v-2.4h-1.7v5.2H47l1.6-2.4c.1-.2.3-.6.4-.9 0 .3-.1.6-.1.9v2.3h1.8zm-8.4-3.8c1.4-.2 1.4-.8 2.2-3.4h-2c-.6 2.2-.8 2.8-1.5 2.8h-.3c.1-.3.1-.6.1-.9v-1.9h-1.9v1.9c0 .3 0 .6.1.9h-.4c-.7 0-.8-.6-1.5-2.8h-2c.8 2.6.8 3.2 2.2 3.4v.1c-1.4.2-1.5.8-2.4 3.7h2c.8-2.6.9-3.1 1.6-3.1h.5c-.1.2-.1.5-.1.7v2.4h1.9v-2.4c0-.2 0-.4-.1-.7h.3c.7 0 .8.5 1.6 3.1h2.1c-.8-3-.9-3.5-2.4-3.8zm141.2 35.7c0-.9.1-1.2.8-1.2.8 0 .9.3.9 1.9-.3.2-.6.3-.9.3-.7 0-.9-.2-.8-1m-1.6 4.7c.8.2 1.6.2 2 .2 2.3 0 3.1-.5 3.1-3.8 0-2.9-.5-3.6-2.7-3.6-2.1 0-2.7.8-2.7 2.6 0 1.3.5 2.2 2.1 2.2.6 0 1.1-.1 1.5-.4-.1 1.2-.3 1.6-1.3 1.6H182l-.1 1.2zm-2.2-1.7c-.5 0-.7.2-.7.7v.5c0 .5.2.7.7.7h.4c.5 0 .7-.2.7-.7v-.5c0-.5-.2-.7-.7-.7h-.4zm-6.5-4h2c.7 0 .9.1.9.7 0 .5-.1.8-.8.8H174v1.3h1.4c.8 0 .9.2.9.8 0 .7-.3.9-1.2.9-.6 0-1.1 0-2-.1l-.1 1.4c.8.1 1.7.2 2.6.2 1.9 0 2.6-.6 2.6-2.1 0-1.1-.3-1.6-1.3-1.8.9-.1 1.1-.8 1.1-1.8 0-1.3-.7-1.7-2.4-1.7-.8 0-1.6.1-2.4.2v1.2zm-1.4 5.7v-7.2h-1.9l-1.8.7.2 1.2 1.7-.4c-.1.3-.1.6-.1.9v4.8h1.9zm19.3-15.3h-.7c-.5 0-.6-.1-.6-.6 0-.4.1-.5.6-.5h.7v1.1zm-2.1.7c-.3 0-.9.1-1 .6l-.4 1.6h1.9l.3-1.4c0-.2.2-.3.5-.3h.7v1.7h1.8v-5.2c-.6-.1-1.2-.1-2.6-.1-1.9 0-2.4.4-2.4 1.7.1.5.3 1.1 1.2 1.4zm-2.1-3H185v1.8h-1.6v-1.8h-1.9v5.2h1.9v-2.1h1.6v2.1h1.9v-5.2zm-7.8 5.2h1.9l-1.5-2.6 1.4-2.5H179l-1 1.9-1-1.9h-1.9l1.4 2.5-1.5 2.6h1.9l1.1-2.1 1.1 2.1zm-4.2-5.2h-2l-.8 3.1c-.1.2-.1.6-.2.9h-.1c0-.3-.1-.6-.1-.9l-.8-3.1h-2l1.6 4.7c.1.3.3.4.6.4h.3c-.1.3-.3.5-.5.6-.3.2-.8.2-1.4.2l-.2 1.2c.7.1 1.5.1 2.1-.1.8-.3 1.4-.8 1.8-2l1.7-5zm-8.5 1.4c1.4-.2 1.5-.8 2.3-3.4h-2c-.6 2.2-.7 2.8-1.7 2.8h-.3c.1-.3.1-.6.1-.9v-1.9h-1.9v7.2h1.9v-2.4c0-.2 0-.4-.1-.7h.4c1 0 1.1.5 1.8 3.1h2c-1-3-1-3.6-2.5-3.8zM85.8 132h-.9v-3h-1.5l-.3 1.1v1.8h-1.4c-.2 0-.3-.1-.2-.3l1.6-4.1h-1.8l-1.8 4.6c-.2.6.2 1.1.8 1.1h2.9v1.5H85v-1.5l.8-.2v-1zm-8.1 1c-.5 0-.7.2-.7.7v.5c0 .5.2.7.7.7h.4c.5 0 .7-.2.7-.7v-.5c0-.5-.2-.7-.7-.7h-.4zm-4.3-1.3c.8 0 1 .2 1 .9s-.2.9-1 .9-1-.2-1-.9.1-.9 1-.9m0-2.9c.7 0 .9.2.9.9 0 .6-.1.8-.9.8-.7 0-.9-.1-.9-.8 0-.8.1-.9.9-.9m-1.6 2.3c-1 .1-1.3 1-1.3 1.9 0 1.4.6 1.9 2.8 1.9 2.3 0 2.8-.5 2.8-1.9 0-1-.2-1.8-1.3-1.9.8-.1 1.1-.9 1.1-1.6 0-1.3-.5-1.9-2.6-1.9-2.2 0-2.6.6-2.6 1.9 0 .7.3 1.4 1.1 1.6zm-2.6 3.7v-7.2h-1.9l-1.8.7.2 1.2 1.7-.4c-.1.3-.1.6-.1.9v4.8h1.9zm15.1 67.8c.8 0 1 .3 1 2.2 0 1.9-.2 2.2-1 2.2s-1-.3-1-2.2c0-1.9.2-2.2 1-2.2m0-1.5c-2.2 0-2.9.9-2.9 3.7s.7 3.7 2.9 3.7 2.9-.9 2.9-3.7-.7-3.7-2.9-3.7m-4.9 5.6c-.5 0-.7.2-.7.7v.5c0 .5.2.7.7.7h.4c.5 0 .7-.2.7-.7v-.5c0-.5-.2-.7-.7-.7h-.4zm-1.3-1.1h-.9v-3h-1.5l-.3 1.1v1.8H74c-.2 0-.3-.1-.2-.3l1.6-4.1h-1.8l-1.8 4.6c-.2.6.2 1.1.8 1.1h2.9v1.5h1.8v-1.5l.8-.2v-1zm19.8-12.5h-.7c-.5 0-.6-.1-.6-.6 0-.4.1-.5.6-.5h.7v1.1zm-2 .6c-.3 0-.9.1-1 .6l-.4 1.6h1.9l.3-1.4c0-.2.2-.3.5-.3h.7v1.7h1.8v-5.2c-.6-.1-1.2-.1-2.6-.1-1.9 0-2.4.4-2.4 1.7.1.6.3 1.2 1.2 1.4zm-2.2 2.2v-5.2h-1.6l-1.6 2.5c-.2.2-.3.5-.4.8 0-.3.1-.5.1-.8v-2.4h-1.7v5.2H90l1.6-2.4c.1-.2.3-.6.4-.9 0 .3-.1.6-.1.9v2.3h1.8zm-8-2.7c1.2-.2 1.2-.3 1.8-2.4h-1.9c-.5 1.7-.6 1.9-1.1 1.9h-.3c0-.2.1-.4.1-.6v-1.2h-1.6v1.2c0 .2 0 .4.1.6h-.3c-.5 0-.6-.2-1.1-1.9h-1.9c.7 2.1.6 2.3 1.8 2.4v.1c-1.3.2-1.3.3-2 2.7h1.9c.7-2 .7-2.1 1.1-2.1h.4c0 .2-.1.3-.1.4v1.6h1.7v-1.6c0-.1 0-.3-.1-.4h.4c.5 0 .5.1 1.2 2.1h1.9c-.7-2.5-.8-2.6-2-2.8zm-9.4 1.5h-1.5c.3-.6.4-1.3.6-2.3 0-.3.2-.4.5-.4h.5v2.7zm2.6 0H78v-3.9h-2.8c-.9 0-1.4.4-1.5 1.3-.1.9-.3 1.8-.6 2.6h-.6v2.7h1.2l.1-1.4h3.7l.1 1.4h1.3v-2.7zm-9.6-2.7c.6 0 .8.3.8 1.4 0 1.1-.2 1.4-.8 1.4-.6 0-.8-.3-.8-1.4 0-1.2.1-1.4.8-1.4m0-1.4c-2 0-2.8.7-2.8 2.7s.7 2.7 2.8 2.7c2 0 2.8-.7 2.8-2.7 0-1.9-.8-2.7-2.8-2.7m-3.8-1.8h-3.3c-1.1 0-1.7.6-1.8 1.7-.1 1.7-.3 2.7-.5 3.3-.2.5-.5.6-1 .7l.1 1.5c1.3.2 2.2-.2 2.7-1.7.3-.9.4-2.2.6-3.7 0-.4.2-.5.6-.5h.7v5.9h2v-7.2z" style="clip-path:url(#SVGID_4_);fill:#39363a"/><path d="M131.2 88.1h5.6v4.1h-5.6zm43.9-.6h12.3v16.6h-12.3z" class="st6"/><defs><path id="SVGID_5_" d="M21 14.3h211.5V238H21z"/></defs><clipPath id="SVGID_6_"><use xlink:href="#SVGID_5_" style="overflow:visible"/></clipPath><path d="M201.4 88.7h-.5v-1.8h-.9l-.2.7v1.1h-.8c-.1 0-.2-.1-.1-.2l.9-2.4h-1.1l-1.1 2.7c-.1.3.1.7.5.7h1.7v.9h1.1v-.9l.5-.1v-.7zm-4.8.6c-.3 0-.4.1-.4.4v.3c0 .3.1.4.4.4h.3c.3 0 .4-.1.4-.4v-.3c0-.3-.1-.4-.4-.4h-.3zm-3.9-2.4h1.2c.4 0 .6.1.6.4 0 .3 0 .5-.5.5h-.8v.8h.8c.5 0 .6.1.6.5s-.2.5-.7.5h-1.2v.8c.5.1 1 .1 1.5.1 1.1 0 1.6-.4 1.5-1.3 0-.7-.2-1-.8-1.1.6-.1.7-.5.7-1.1 0-.8-.4-1-1.5-1-.5 0-1 0-1.4.1v.8zm9.6-7.2h-1.2l-.5 1.8c0 .1-.1.3-.1.5h-.1c0-.2-.1-.4-.1-.5l-.5-1.8h-1.2l1 2.8c.1.2.2.3.4.3h.2c-.1.2-.2.3-.3.4-.2.1-.5.1-.9.1l-.1.7c.4.1.9.1 1.3-.1.5-.2.8-.5 1.1-1.2l1-3zm-6.1 3.6 2.5-4.8h-.9l-2.5 4.8h.9zm-1.2-1.4c-.4 0-.8.1-1.4.1-.5 0-.7-.3-.7-1.2 0-1 .1-1.2.7-1.2h1.3l.1-.9c-.4-.1-.7-.2-1.4-.2-1.4 0-1.9.6-1.9 2.2s.5 2.2 1.9 2.2c.6 0 1 0 1.5-.2l-.1-.8zm-38.5-21.4h-.5v-1.8h-.9l-.2.7v1.1h-.9c-.1 0-.2-.1-.1-.2l.9-2.4h-1.1l-1.1 2.7c-.1.3.1.7.5.7h1.7v.9h1.1v-.9l.5-.1v-.7zm-4.9.7c-.3 0-.4.1-.4.4v.3c0 .3.1.4.4.4h.3c.3 0 .4-.1.4-.4v-.3c0-.3-.1-.4-.4-.4h-.3zm-1-2.4v-.9H148l-.1 1.9c0 .2.1.4.3.4l.7.1c.6 0 .8.1.8.5s-.1.5-.7.5c-.3 0-.7 0-1.1-.1l-.1.9c.6.1 1.1.1 1.5.1 1.2 0 1.6-.6 1.6-1.4 0-.7-.3-1.3-1.3-1.4l-.7-.1v-.6h1.7zm16-5.8h-.4c-.3 0-.3-.1-.3-.4 0-.2.1-.3.3-.3h.4v.7zm-1.2.4c-.2 0-.5.1-.6.3l-.2 1h1.2l.2-.8c0-.1.1-.2.3-.2h.4v1h1.1v-3.1c-.4 0-.7-.1-1.6-.1-1.1 0-1.4.2-1.4 1-.1.4 0 .8.6.9zm-3.3.3c0-.1.1-.2.3-.2h.6v.4c-.2.1-.4.2-.6.2-.2 0-.3-.1-.3-.3v-.1zm-.9-1.3h1.3c.3 0 .4.1.4.4v.1h-1c-.6 0-1 .3-1 .8v.3c0 .6.5.9 1 .9s.9-.3 1.1-.5l.1.5h.9v-2c0-.9-.5-1.2-1.3-1.2-.5 0-1.2.1-1.7.2l.2.5zm-1.7.7c.7-.1.7-.2 1.1-1.5h-1.1c-.3 1-.4 1.1-.7 1.1h-.2v-1.1h-1v1.1h-.2c-.3 0-.3-.1-.7-1.1h-1.1c.4 1.3.4 1.4 1.1 1.5-.8.1-.8.2-1.2 1.6h1.1c.4-1.2.4-1.2.7-1.3h.2v1.3h1v-1.3h.2c.3 0 .3.1.7 1.3h1.1c-.3-1.4-.3-1.5-1-1.6zm-5.8-.8c.4 0 .5.2.5.8 0 .7-.1.8-.5.8s-.5-.1-.5-.8c0-.6.1-.8.5-.8m0-.8c-1.2 0-1.7.4-1.7 1.6 0 1.2.4 1.6 1.7 1.6 1.2 0 1.7-.4 1.7-1.6-.1-1.1-.5-1.6-1.7-1.6m-3 3.2h1.1l-.9-1.6.8-1.5h-1.1l-.6 1.2-.6-1.2h-1.1l.8 1.5-.9 1.6h1.1l.7-1.2.7 1.2zm-2.8 0v-3.1h-1l-1 1.5c-.1.1-.2.3-.2.5v-2h-1v3.1h1l1-1.4c.1-.1.2-.4.3-.5v2h.9zm-5.9-2.1c.2-.1.3-.2.6-.2s.4.1.4.8c0 .7-.1.8-.4.8-.2 0-.4-.1-.5-.1v-1.3zm-.2-1h-.9v4.3h1.1v-1.4c.3.2.6.3 1 .3.8 0 1.2-.3 1.2-1.6 0-1.1-.3-1.7-1.1-1.7-.5 0-1 .2-1.2.5l-.1-.4zm-1.7-1.2h-3.6v4.3h1.2v-3.5h1.3v3.5h1.2v-4.3z" style="clip-path:url(#SVGID_6_);fill:#39363a"/><path d="M21 174.7h21.4v7.8H21z" class="st1"/><defs><path id="SVGID_7_" d="M21 14.3h211.5V238H21z"/></defs><clipPath id="SVGID_8_"><use xlink:href="#SVGID_7_" style="overflow:visible"/></clipPath><path d="M91.7 109.5V93.1h-4.4l-4.2 1.6.5 2.8 3.8-.9c-.1.7-.2 1.3-.2 2v10.9h4.5zm-11.3-4c-1.1 0-1.5.4-1.5 1.5v1c0 1.1.4 1.5 1.5 1.5h1c1.1 0 1.5-.4 1.5-1.5v-1c0-1.1-.4-1.5-1.5-1.5h-1zm-14.8-9.2h4.6c1.7 0 2.1.2 2.1 1.5 0 1.1-.1 1.8-1.9 1.8h-3.1v2.9h3.1c1.8 0 2.1.5 2.1 1.9 0 1.7-.6 2-2.7 2-1.4 0-2.5 0-4.5-.1l-.1 3.2c1.9.3 3.9.5 5.9.5 4.4 0 5.9-1.4 5.9-4.9 0-2.5-.7-3.8-3-4.1v-.1c2.1-.3 2.6-1.8 2.6-4.1 0-2.9-1.5-3.8-5.5-3.8-1.8 0-3.6.1-5.5.5v2.8zm-1.8 6.8h-2v-6.8h-3.4l-.7 2.6v4.2h-3.2c-.4 0-.6-.2-.4-.7l3.6-9.3h-4.2l-4.1 10.4c-.5 1.3.4 2.5 1.7 2.5h6.6v3.4h4.1V106l1.9-.4v-2.5z" class="st8"/><circle cx="74.2" cy="74.6" r="14.6" style="clip-path:url(#SVGID_8_);fill:none;stroke:#39363a"/><path d="M79.8 74.4c2.5-.3 2.5-1.4 3.9-5.9h-3.4c-1 3.7-1.2 4.8-3 4.8h-.6c.1-.5.1-1 .1-1.5v-3.3h-3.4v12.4h3.4v-4.2c0-.3-.1-.8-.1-1.2h.6c1.7 0 1.9.8 3.2 5.3H84c-1.5-5.1-1.7-6.1-4.3-6.4zm-8.9 6.5V68.5h-3.4l-3.2 1.2.4 2.1 2.9-.6c-.1.5-.1 1-.1 1.5v8.2h3.4z" class="st8"/><path d="m92.8 171 .7-1.2 17.4 10.4-.8 1.3z" class="st10"/><defs><path id="SVGID_9_" d="M21 14.3h211.5V238H21z"/></defs><clipPath id="SVGID_10_"><use xlink:href="#SVGID_9_" style="overflow:visible"/></clipPath><path d="M93.7 169.4s-2.1 3.1-3.3 7.6c-.6 2.4-1 4.3-1.2 5.5" style="clip-path:url(#SVGID_10_);fill:none;stroke:#39363a;stroke-width:.7"/><path d="m162.5 105.3-.6 1.3L140.6 96l.7-1.3zm-18.6-75.7.6 1.4 26.9-13.5-.6-1.3z" class="st10"/><defs><path id="SVGID_11_" d="M21 14.3h211.5V238H21z"/></defs><clipPath id="SVGID_12_"><use xlink:href="#SVGID_11_" style="overflow:visible"/></clipPath><path d="M144.6 31.3s-2-3.1-3-7.8c-.9-4.4-1.2-8-1.3-9.2" style="clip-path:url(#SVGID_12_);fill:none;stroke:#39363a;stroke-width:.7"/><path d="m114.4 59.7-1.3-.7 11.7-23.3 1.3.6z" class="st10"/><defs><path id="SVGID_13_" d="M21 14.3h211.5V238H21z"/></defs><clipPath id="SVGID_14_"><use xlink:href="#SVGID_13_" style="overflow:visible"/></clipPath><path d="M112.7 59s3.1 2 7.8 3c4.4.9 8 1.2 9.2 1.3m32.1 43.7s1.8-3.2 2.7-7.9c.5-2.5.7-4.3.8-5.5" style="fill:none;stroke:#39363a;clip-path:url(#SVGID_14_);stroke-width:.7"/><path d="m163.7 72.6-1.2.9 10.8 16.4 1.2-.8z" class="st10"/><defs><path id="SVGID_15_" d="M21 14.3h211.5V238H21z"/></defs><clipPath id="SVGID_16_"><use xlink:href="#SVGID_15_" style="overflow:visible"/></clipPath><path d="M163.6 72.7s3.2-1.8 7.9-2.7c2.5-.5 4.3-.7 5.5-.8" style="clip-path:url(#SVGID_16_);fill:none;stroke:#39363a;stroke-width:.7"/><path d="M218.7 38h5.6v4.1h-5.6zm-1.1-19.4V44m-79.7 21.7v28.4M126.7 66h11.5" class="st6"/><defs><path id="SVGID_17_" d="M21 14.3h211.5V238H21z"/></defs><clipPath id="SVGID_18_"><use xlink:href="#SVGID_17_" style="overflow:visible"/></clipPath><path d="M179 55.4s0-5.7 5.7-5.7h33.9s5.7 0 5.7 5.7v6.3s0 5.7-5.7 5.7h-33.9s-5.7 0-5.7-5.7v-6.3z" class="st15"/><path d="M182.1 57s0-5.7 5.7-5.7h27.6s5.7 0 5.7 5.7v3s0 5.7-5.7 5.7h-27.6s-5.7 0-5.7-5.7v-3z" class="st15"/><path d="M185.9 55.8s0-2.8 2.8-2.8h27.7s2.8 0 2.8 2.8v5.5s0 2.8-2.8 2.8h-27.7s-2.8 0-2.8-2.8v-5.5z" class="st15"/><path d="M215.9 58.6c0 .4-.4.8-.8.8-.5 0-.8-.3-.8-.8 0-.4.4-.8.8-.8s.8.3.8.8z" class="st15"/><path d="M175.9 68.4h51.4" class="st10"/><path d="M225.3 109.1h-15.5v14.8h15.5v-14.8zm.4 15.2h-16.1v-15.5h16.1v15.5z" class="st1"/><path d="M225.3 109.1h-15.5v14.8h15.5v-14.8zm.4 15.2h-16.1v-15.5h16.1v15.5z" class="st16"/><defs><path id="SVGID_19_" d="M21 14.3h211.5V238H21z"/></defs><clipPath id="SVGID_20_"><use xlink:href="#SVGID_19_" style="overflow:visible"/></clipPath><path d="M211.3 121.7c0 .4.3.7.7.7h8.1c.4 0 .7-.3.7-.7v-10.4c0-.4-.3-.7-.7-.7H212c-.4 0-.7.3-.7.7v10.4zm9.8-10.4v10.4c0 .5-.5 1-1 1H212c-.6 0-1-.4-1-1v-10.4c0-.5.5-1 1-1h8.1c.6.1 1 .5 1 1" style="clip-path:url(#SVGID_20_);fill:#39363a"/><path d="M211.3 121.7c0 .4.3.7.7.7h8.1c.4 0 .7-.3.7-.7v-10.4c0-.4-.3-.7-.7-.7H212c-.4 0-.7.3-.7.7v10.4zm9.8-10.4v10.4c0 .5-.5 1-1 1H212c-.6 0-1-.4-1-1v-10.4c0-.5.5-1 1-1h8.1c.6.1 1 .5 1 1z" style="clip-path:url(#SVGID_20_);fill:none;stroke:#39363a;stroke-width:.25"/><path d="M219.6 111.8h-7.1v9.4h7.1v-9.4zm.3 9.8h-7.8v-10.1h7.8v10.1z" class="st1"/><path d="M219.6 111.8h-7.1v9.4h7.1v-9.4zm.3 9.8h-7.8v-10.1h7.8v10.1z" class="st16"/><defs><path id="SVGID_21_" d="M21 14.3h211.5V238H21z"/></defs><clipPath id="SVGID_22_"><use xlink:href="#SVGID_21_" style="overflow:visible"/></clipPath><path d="M214.7 116.5c0 .5.4.9.9.9s.9-.4.9-.9-.4-.9-.9-.9c-.5.1-.9.5-.9.9m2.1 0c0 .7-.6 1.2-1.2 1.2-.7 0-1.2-.5-1.2-1.2 0-.6.6-1.2 1.2-1.2.6.1 1.2.6 1.2 1.2" class="st19"/><path d="M214.7 116.5c0 .5.4.9.9.9s.9-.4.9-.9-.4-.9-.9-.9c-.5.1-.9.5-.9.9zm2.1 0c0 .7-.6 1.2-1.2 1.2-.7 0-1.2-.5-1.2-1.2 0-.6.6-1.2 1.2-1.2.6.1 1.2.6 1.2 1.2z" class="st20"/><path d="M212.7 79.2c0 3 2.4 5.4 5.4 5.4h5.8c.5 0 .8-.4.8-.8V71.5c0-.5-.4-.8-.8-.8h-5.8c-3 0-5.4 2.4-5.4 5.4v3.1zm12.3-7.7v12.3c0 .6-.5 1.1-1.1 1.1h-5.8c-3.2 0-5.7-2.6-5.7-5.7v-3.1c0-3.2 2.6-5.7 5.7-5.7h5.8c.6 0 1.1.5 1.1 1.1" class="st19"/><path d="M212.7 79.2c0 3 2.4 5.4 5.4 5.4h5.8c.5 0 .8-.4.8-.8V71.5c0-.5-.4-.8-.8-.8h-5.8c-3 0-5.4 2.4-5.4 5.4v3.1zm12.3-7.7v12.3c0 .6-.5 1.1-1.1 1.1h-5.8c-3.2 0-5.7-2.6-5.7-5.7v-3.1c0-3.2 2.6-5.7 5.7-5.7h5.8c.6 0 1.1.5 1.1 1.1z" class="st20"/><path d="M214 79.2c0 2.2 1.8 4.1 4.1 4.1h3.4c.4 0 .7-.3.7-.7v-9.8c0-.4-.3-.7-.7-.7h-3.4c-2.2 0-4.1 1.8-4.1 4.1v3zm8.5-6.4v9.8c0 .6-.5 1-1 1h-3.4c-2.4 0-4.4-2-4.4-4.4v-3.1c0-2.4 2-4.4 4.4-4.4h3.4c.5.1 1 .5 1 1.1" class="st19"/><path d="M214 79.2c0 2.2 1.8 4.1 4.1 4.1h3.4c.4 0 .7-.3.7-.7v-9.8c0-.4-.3-.7-.7-.7h-3.4c-2.2 0-4.1 1.8-4.1 4.1v3zm8.5-6.4v9.8c0 .6-.5 1-1 1h-3.4c-2.4 0-4.4-2-4.4-4.4v-3.1c0-2.4 2-4.4 4.4-4.4h3.4c.5.1 1 .5 1 1.1z" class="st20"/><path d="M216.9 77.7c0 .4.3.7.7.7.4 0 .7-.3.7-.7 0-.4-.3-.7-.7-.7-.4 0-.7.3-.7.7m1.6 0c0 .5-.4 1-1 1-.5 0-1-.4-1-1 0-.5.4-1 1-1s1 .4 1 1" class="st19"/><path d="M216.9 77.7c0 .4.3.7.7.7.4 0 .7-.3.7-.7 0-.4-.3-.7-.7-.7-.4 0-.7.3-.7.7zm1.6 0c0 .5-.4 1-1 1-.5 0-1-.4-1-1 0-.5.4-1 1-1s1 .4 1 1z" class="st20"/><path d="M205.2 92.7c0-2.8 2.3-5.1 5.1-5.1h7.4c.5 0 .9.4.9.9V97c0 .5-.4.9-.9.9h-7.4c-2.8-.1-5.1-2.4-5.1-5.2m13.7 4.2v-8.5c0-.7-.6-1.2-1.2-1.2h-7.4c-3 0-5.5 2.5-5.5 5.5s2.5 5.5 5.5 5.5h7.4c.7 0 1.2-.6 1.2-1.3" class="st19"/><path d="M205.2 92.7c0-2.8 2.3-5.1 5.1-5.1h7.4c.5 0 .9.4.9.9V97c0 .5-.4.9-.9.9h-7.4c-2.8-.1-5.1-2.4-5.1-5.2zm13.7 4.2v-8.5c0-.7-.6-1.2-1.2-1.2h-7.4c-3 0-5.5 2.5-5.5 5.5s2.5 5.5 5.5 5.5h7.4c.7 0 1.2-.6 1.2-1.3z" class="st20"/><path d="M216.1 89v7.3s0 .1-.1.1h-5.6c-2.1 0-3.8-1.7-3.8-3.8 0-2.1 1.7-3.8 3.8-3.8l5.7.2c0-.1 0 0 0 0z" class="st20"/><path d="M215.9 89.1v7.2h-5.5c-2 0-3.6-1.6-3.6-3.6s1.6-3.6 3.6-3.6h5.5zm.4 7.3V89c0-.1-.1-.3-.3-.3h-5.6c-2.2 0-3.9 1.8-3.9 3.9 0 2.2 1.8 3.9 3.9 3.9h5.6c.2.1.3 0 .3-.1" class="st19"/><path d="M215.9 89.1v7.2h-5.5c-2 0-3.6-1.6-3.6-3.6s1.6-3.6 3.6-3.6h5.5zm.4 7.3V89c0-.1-.1-.3-.3-.3h-5.6c-2.2 0-3.9 1.8-3.9 3.9 0 2.2 1.8 3.9 3.9 3.9h5.6c.2.1.3 0 .3-.1z" class="st20"/><path d="M210.4 92.7c0-.5.4-1 1-1s1 .4 1 1c0 .5-.4 1-1 1s-1-.5-1-1m2.3 0c0-.7-.6-1.3-1.3-1.3s-1.3.6-1.3 1.3c0 .7.6 1.3 1.3 1.3s1.3-.6 1.3-1.3" class="st19"/><path d="M210.4 92.7c0-.5.4-1 1-1s1 .4 1 1c0 .5-.4 1-1 1s-1-.5-1-1zm2.3 0c0-.7-.6-1.3-1.3-1.3s-1.3.6-1.3 1.3c0 .7.6 1.3 1.3 1.3s1.3-.6 1.3-1.3z" class="st20"/><path d="m212.798 91.327 2.323-1.736.24.32-2.324 1.736z" class="st1"/><path d="m212.798 91.327 2.323-1.736.24.32-2.324 1.736z" class="st16"/><path d="m215.4 95.5-2.4-1.8-.2.3 2.4 1.8z" class="st1"/><path d="m215.4 95.5-2.4-1.8-.2.3 2.4 1.8z" class="st16"/><defs><path id="SVGID_23_" d="M21 14.3h211.5V238H21z"/></defs><clipPath id="SVGID_24_"><use xlink:href="#SVGID_23_" style="overflow:visible"/></clipPath><path d="M218.9 89.2c0-.8.6-1.4 1.4-1.4h1.9c.8 0 1.4.6 1.4 1.4v7.1c0 .8-.6 1.4-1.4 1.4h-1.9c-.8 0-1.4-.6-1.4-1.4v-7.1zm5.1 7v-7.1c0-1-.8-1.8-1.8-1.8h-1.9c-1 0-1.8.8-1.8 1.8v7.1c0 1 .8 1.8 1.8 1.8h1.9c1.1 0 1.8-.8 1.8-1.8" class="st21"/><path d="M218.9 89.2c0-.8.6-1.4 1.4-1.4h1.9c.8 0 1.4.6 1.4 1.4v7.1c0 .8-.6 1.4-1.4 1.4h-1.9c-.8 0-1.4-.6-1.4-1.4v-7.1zm5.1 7v-7.1c0-1-.8-1.8-1.8-1.8h-1.9c-1 0-1.8.8-1.8 1.8v7.1c0 1 .8 1.8 1.8 1.8h1.9c1.1 0 1.8-.8 1.8-1.8z" class="st22"/><path d="M220.8 92.7c0-.3.2-.5.5-.5s.5.2.5.5-.2.5-.5.5-.5-.2-.5-.5m1.4 0c0-.5-.4-.9-.9-.9s-.9.4-.9.9.4.9.9.9.9-.4.9-.9" class="st21"/><path d="M220.8 92.7c0-.3.2-.5.5-.5s.5.2.5.5-.2.5-.5.5-.5-.2-.5-.5zm1.4 0c0-.5-.4-.9-.9-.9s-.9.4-.9.9.4.9.9.9.9-.4.9-.9z" class="st22"/></g></switch></svg>