<?xml version="1.0" encoding="UTF-8"?>
<svg id="_Слой_1" data-name="Слой_1" xmlns="http://www.w3.org/2000/svg" version="1.1" viewBox="0 0 1000 1000">
  <!-- Generator: Adobe Illustrator 29.4.0, SVG Export Plug-In . SVG Version: 2.1.0 Build 152)  -->
  <defs>
    <style>
      .st0 {
        fill: #f7c7d0;
      }

      .st1 {
        fill: none;
        stroke: #3c3c3b;
      }

      .st2 {
        fill: #3c3c3b;
      }
    </style>
  </defs>
  <rect class="st0" x="183.17" y="191.37" width="635.32" height="502.82"/>
  <rect class="st2" x="493.78" y="175.57" width="15.67" height="70.29"/>
  <rect class="st1" x="493.78" y="175.57" width="15.67" height="70.29"/>
  <rect class="st2" x="493.78" y="322.45" width="15.67" height="409.51"/>
  <rect class="st1" x="493.78" y="322.45" width="15.67" height="409.51"/>
  <rect class="st2" x="493.78" y="790.54" width="15.67" height="88.29"/>
  <rect class="st1" x="493.78" y="790.54" width="15.67" height="88.29"/>
  <rect class="st2" x="158.85" y="165.64" width="23.39" height="669.8"/>
  <rect class="st1" x="163.7" y="165.64" width="18.54" height="669.8"/>
  <rect class="st2" x="175.19" y="175.57" width="371.89" height="14.88"/>
  <rect class="st1" x="175.19" y="175.57" width="371.89" height="14.88"/>
  <rect class="st2" x="647.71" y="175.57" width="185.24" height="14.88"/>
  <rect class="st2" x="163.7" y="165.64" width="383.38" height="24.82"/>
  <rect class="st1" x="493.78" y="165.64" width="53.3" height="24.82"/>
  <rect class="st2" x="640.91" y="165.64" width="26.64" height="24.82"/>
  <rect class="st1" x="640.91" y="165.64" width="26.64" height="24.82"/>
  <rect class="st2" x="745.45" y="165.64" width="91.72" height="24.82"/>
  <rect class="st2" x="738.13" y="695.65" width="88.98" height="36.3"/>
  <rect class="st1" x="738.13" y="695.65" width="88.98" height="36.3"/>
  <rect class="st2" x="792.56" y="724.91" width="37.56" height="7.04"/>
  <rect class="st1" x="792.56" y="724.91" width="37.56" height="7.04"/>
  <rect class="st2" x="734.21" y="724.91" width="96.82" height="7.04"/>
  <rect class="st1" x="734.21" y="724.91" width="96.82" height="7.04"/>
  <rect class="st2" x="162.66" y="694.07" width="76.82" height="30.77"/>
  <rect class="st1" x="162.66" y="694.07" width="76.82" height="30.77"/>
  <rect class="st2" x="512.07" y="694.07" width="76.82" height="30.77"/>
  <rect class="st1" x="512.07" y="694.07" width="76.82" height="30.77"/>
  <rect class="st2" x="434.34" y="694.07" width="76.82" height="30.77"/>
  <rect class="st1" x="434.34" y="694.07" width="76.82" height="30.77"/>
  <rect class="st1" x="223.81" y="694.07" width="140.93" height="30.77"/>
  <rect class="st1" x="531.41" y="694.07" width="140.93" height="30.77"/>
  <rect class="st2" x="162.66" y="724.91" width="83.69" height="7.04"/>
  <rect class="st1" x="162.66" y="724.91" width="83.69" height="7.04"/>
  <rect class="st2" x="512.07" y="724.91" width="83.69" height="7.04"/>
  <rect class="st1" x="512.07" y="724.91" width="83.69" height="7.04"/>
  <rect class="st2" x="427.47" y="724.91" width="83.69" height="7.04"/>
  <rect class="st1" x="427.47" y="724.91" width="83.69" height="7.04"/>
  <rect class="st1" x="232.7" y="724.91" width="140.93" height="7.04"/>
  <rect class="st1" x="540.3" y="724.91" width="140.93" height="7.04"/>
  <path class="st1" d="M364.96,726.03s0-8.71,3.87-19.56c3.24-9.08,9.69-17.56,9.69-17.56l60.34,34.13-1.35,2.15-60.47-34.14"/>
  <path class="st1" d="M672.56,726.03s0-8.71,3.87-19.56c3.24-9.08,9.69-17.56,9.69-17.56l60.34,34.13-1.35,2.15-60.47-34.14"/>
  <rect class="st1" x="510.64" y="356" width="27.68" height="79.21"/>
  <line class="st1" x1="533.98" y1="356.24" x2="533.98" y2="435.59"/>
  <polyline class="st1" points="534.01 360.1 514 361.86 514 411.98 534.01 414.18 534.01 417.48 513.77 419.67 513.77 430.88 534.01 433.3"/>
  <rect class="st1" x="791.06" y="192.43" width="26.37" height="73.87"/>
  <line class="st1" x1="813.3" y1="192.59" x2="813.3" y2="266.74"/>
  <polyline class="st1" points="813.32 196.27 794.27 197.91 794.27 244.64 813.32 246.69 813.32 249.77 794.06 251.82 794.06 262.27 813.32 264.53"/>
  <path class="st1" d="M640.83,181.21l-81.65,47.12s-4.26-6.7-7.91-21.06c-3.65-14.37-3.65-24.35-3.65-24.35"/>
  <path class="st1" d="M499.2,230.56l-47.12,81.65s6.7,4.26,21.06,7.91c14.37,3.65,24.35,3.65,24.35,3.65"/>
  <polygon class="st1" points="178.34 825.79 178.34 835.45 495.33 878.83 495.33 869.18 178.34 825.79"/>
  <line class="st1" x1="639.99" y1="165.64" x2="828.29" y2="165.64"/>
  <rect class="st1" x="663.51" y="400.29" width="36.96" height="55.92"/>
  <line class="st1" x1="664.06" y1="400.02" x2="700.32" y2="456.1"/>
  <line class="st1" x1="700.75" y1="400.02" x2="664.48" y2="456.1"/>
  <path class="st2" d="M353.65,556.62c0-1.63.68-2.44,2.04-2.44s2.02.82,2.02,2.44v13.4c0,1.64-.67,2.46-2.02,2.46s-2.04-.82-2.04-2.46v-13.4ZM351.29,574.38c1.02,1.08,2.49,1.63,4.4,1.63s3.37-.54,4.38-1.63c1.02-1.09,1.53-2.62,1.53-4.61v-12.91c0-1.98-.51-3.52-1.53-4.61-1.02-1.08-2.48-1.63-4.38-1.63s-3.37.54-4.4,1.63c-1.03,1.08-1.53,2.62-1.53,4.61v12.91c0,1.98.51,3.52,1.53,4.61M347.4,572.15h-3.89v3.58h3.89v-3.58ZM332.96,556.62c0-1.6.67-2.4,2.02-2.4s2.04.8,2.04,2.4v4.47c0,1.63-.68,2.44-2.04,2.44s-2.02-.81-2.02-2.44v-4.47ZM330.15,565.62c.72.97,1.8,1.46,3.22,1.46,1.73,0,2.94-.73,3.64-2.2v4.54c0,1.13-.18,1.93-.54,2.38-.36.45-.9.68-1.63.68-1.35,0-2.03-.82-2.03-2.46v-.89h-3.67v.64c0,2,.49,3.53,1.49,4.61.99,1.08,2.43,1.62,4.32,1.62,3.98,0,5.96-2.15,5.96-6.44v-12.71c0-1.98-.51-3.52-1.53-4.61-1.02-1.08-2.49-1.63-4.39-1.63s-3.37.54-4.39,1.63c-1.01,1.08-1.52,2.62-1.52,4.61v4.55c0,1.84.36,3.24,1.09,4.21M320.84,556.79v18.94h3.89v-24.83h-2.63c-.15.4-.28.73-.4.98-.12.25-.29.53-.51.83-.22.31-.48.55-.75.71-.28.17-.64.31-1.09.43-.45.12-.96.18-1.54.18v2.75h3.03Z"/>
  <path class="st2" d="M426.83,512.81l1.88,12.5h-3.76l1.87-12.5ZM423.77,533.18l.67-4.5h4.78l.68,4.5h3.89l-3.95-24.83h-6.02l-3.95,24.83h3.89ZM411.22,511.91v21.28h3.89v-21.28h4.09v-3.55h-12.07v3.55h4.09ZM399.79,512.81l1.88,12.5h-3.76l1.87-12.5ZM396.73,533.18l.67-4.5h4.78l.68,4.5h3.89l-3.95-24.83h-6.02l-3.95,24.83h3.89ZM382.62,533.18v-10.63h4.43v10.63h3.89v-24.83h-3.89v10.65h-4.43v-10.65h-3.89v24.83h3.89ZM362.92,533.18v-17.51l2.91,17.51h3.7l2.69-17.8v17.8h3.89v-24.83h-5.62l-2.67,17.68-2.88-17.68h-5.41v24.83h3.39ZM349.09,514.07c0-1.63.68-2.44,2.04-2.44s2.02.81,2.02,2.44v13.4c0,1.64-.67,2.46-2.02,2.46s-2.04-.82-2.04-2.46v-13.4ZM346.73,531.84c1.02,1.08,2.49,1.63,4.4,1.63s3.37-.54,4.38-1.63c1.02-1.08,1.53-2.62,1.53-4.61v-12.91c0-1.98-.51-3.52-1.53-4.61-1.02-1.08-2.48-1.63-4.38-1.63s-3.37.54-4.4,1.63c-1.03,1.08-1.53,2.62-1.53,4.61v12.91c0,1.98.51,3.52,1.53,4.61M334.75,533.18v-7.62l1.21-2.27,3.79,9.89h4l-5.42-13.76,5.42-11.06h-3.89l-5.11,10.82v-10.82h-3.89v24.83h3.89ZM314.77,514.47c0-.89.16-1.54.48-1.95.32-.41.82-.62,1.51-.62h1.87v7.64h-1.53c-.77,0-1.35-.2-1.75-.6-.39-.4-.59-1.08-.59-2.04v-2.44ZM314.38,533.18c.09-.29.15-.51.19-.65.04-.14.07-.42.11-.83.04-.41.06-.93.06-1.57v-3.89c0-1.14.2-1.96.61-2.44.4-.49,1.05-.73,1.94-.73h1.35v10.11h3.89v-24.83h-5.89c-2,0-3.46.47-4.38,1.4-.92.94-1.39,2.37-1.39,4.31v1.96c0,2.56.85,4.24,2.54,5.04-.93.39-1.6,1.03-1.99,1.9-.39.88-.59,2-.59,3.38v3.82c0,1.34-.12,2.35-.37,3.01h3.9ZM302.63,512.81l1.89,12.5h-3.76l1.87-12.5ZM299.57,533.18l.67-4.5h4.78l.68,4.5h3.89l-3.95-24.83h-6.02l-3.95,24.83h3.89ZM280.29,533.22c1.95,0,3.37-.48,4.25-1.45.88-.97,1.36-2.59,1.43-4.85l.43-15.01h3.38v21.28h3.89v-24.83h-11.17l-.43,18.77c-.02.58-.07,1.03-.15,1.37-.08.34-.22.59-.43.77-.2.18-.44.29-.7.34-.26.05-.63.07-1.11.07v3.55h.6ZM269.62,533.18l3.29-11.37,1.58-6.08v17.45h3.89v-24.83h-4.68l-3.19,10.25-1.42,5.47v-15.72h-3.48v24.83h4ZM246.98,533.18l3.56-11.06.96,1.93v9.13h3.9v-9.09l.97-1.88,3.54,10.98h3.89l-4.78-14.7,4.78-10.13h-3.79l-4.62,10.04v-10.04h-3.9v10.04l-4.62-10.04h-3.79l4.84,10.18-4.84,14.64h3.89Z"/>
  <path class="st2" d="M677.05,603.55c0-1.04.19-1.77.58-2.2.39-.43.93-.64,1.62-.64s1.24.21,1.62.63c.38.42.57,1.16.57,2.21v1.39c0,1.74-.73,2.61-2.19,2.61s-2.21-.87-2.21-2.61v-1.39ZM677.05,613.91c0-1.87.73-2.81,2.21-2.81s2.19.94,2.19,2.81v2.3c-.01,1.04-.21,1.77-.59,2.18-.38.41-.91.62-1.6.62s-1.24-.21-1.62-.63c-.39-.42-.58-1.14-.58-2.17v-2.3ZM674.73,620.92c1.05,1.08,2.56,1.63,4.53,1.63s3.47-.54,4.52-1.63c1.05-1.08,1.57-2.62,1.57-4.61v-1.95c0-2.54-.8-4.27-2.41-5.18,1.61-.9,2.41-2.56,2.41-4.99v-.8c0-1.98-.52-3.52-1.57-4.61-1.04-1.08-2.55-1.63-4.52-1.63s-3.47.54-4.53,1.63c-1.05,1.09-1.58,2.62-1.58,4.61v.8c0,2.45.81,4.11,2.42,4.99-1.61.91-2.42,2.64-2.42,5.18v1.95c0,1.99.53,3.52,1.58,4.61M670.98,618.68h-3.89v3.58h3.89v-3.58ZM656.43,603.55c0-1.04.19-1.77.58-2.2.39-.43.93-.64,1.63-.64s1.24.21,1.62.63c.38.42.58,1.16.58,2.21v1.39c0,1.74-.73,2.61-2.19,2.61s-2.21-.87-2.21-2.61v-1.39ZM656.43,613.91c0-1.87.73-2.81,2.21-2.81s2.19.94,2.19,2.81v2.3c-.01,1.04-.21,1.77-.59,2.18-.38.41-.91.62-1.6.62s-1.24-.21-1.63-.63c-.39-.42-.58-1.14-.58-2.17v-2.3ZM654.11,620.92c1.05,1.08,2.56,1.63,4.52,1.63s3.47-.54,4.52-1.63c1.05-1.08,1.57-2.62,1.57-4.61v-1.95c0-2.54-.8-4.27-2.41-5.18,1.61-.9,2.41-2.56,2.41-4.99v-.8c0-1.98-.52-3.52-1.57-4.61-1.05-1.08-2.55-1.63-4.52-1.63s-3.47.54-4.52,1.63c-1.05,1.09-1.58,2.62-1.58,4.61v.8c0,2.45.8,4.11,2.42,4.99-1.61.91-2.42,2.64-2.42,5.18v1.95c0,1.99.53,3.52,1.58,4.61"/>
  <path class="st2" d="M696.64,561.01c0-.89.16-1.54.48-1.95.32-.41.82-.62,1.51-.62h1.87v7.64h-1.52c-.77,0-1.35-.2-1.75-.6-.39-.4-.59-1.08-.59-2.04v-2.44ZM696.25,579.72c.09-.29.15-.51.19-.65.04-.14.07-.42.11-.83.04-.41.06-.93.06-1.57v-3.89c0-1.14.2-1.96.6-2.44.41-.49,1.05-.73,1.94-.73h1.35v10.11h3.9v-24.83h-5.89c-2,0-3.46.47-4.38,1.4-.93.94-1.39,2.37-1.39,4.31v1.96c0,2.56.85,4.24,2.54,5.04-.93.39-1.6,1.03-1.99,1.9-.39.88-.59,2-.59,3.38v3.82c0,1.34-.12,2.35-.37,3.01h3.9ZM681.75,579.72v-10.63h4.43v10.63h3.89v-24.83h-3.89v10.65h-4.43v-10.65h-3.89v24.83h3.89ZM665.64,579.72l3.03-9.23,2.99,9.23h3.9l-4.34-12.65,4.08-12.18h-3.42l-3,9.2-2.96-9.2h-3.89l4.08,12.03-4.36,12.79h3.9ZM652.44,574l-.03.22c-.15.86-.5,1.42-1.04,1.7-.54.27-1.35.38-2.41.31v3.53c1.05.07,1.97.03,2.75-.11.79-.15,1.45-.38,1.99-.69.54-.31,1-.75,1.39-1.31s.69-1.18.93-1.84c.24-.67.45-1.48.65-2.43l4.17-18.47h-3.9l-1.78,8.52-.91,5.75-1.21-5.8-2.11-8.46h-3.89l5.41,19.1ZM637.4,579.72v-7.62l1.21-2.27,3.79,9.89h4l-5.42-13.76,5.42-11.06h-3.89l-5.11,10.82v-10.82h-3.89v24.83h3.89Z"/>
  <path class="st2" d="M577.68,331.67c1.05,1.08,2.52,1.62,4.43,1.62s3.34-.54,4.33-1.62c.99-1.08,1.48-2.62,1.48-4.61v-5.54c0-1.85-.36-3.25-1.08-4.22-.72-.97-1.8-1.45-3.23-1.45-1.54,0-2.67.6-3.4,1.8l.31-5.92h6.77v-3.55h-10.43l-.75,14.4h3.89v-.74c0-1.63.67-2.44,2-2.44s2.02.82,2.02,2.44v5.45c0,1.62-.67,2.42-2.02,2.42s-2-.81-2-2.42v-2.3h-3.89v2.06c0,2,.52,3.53,1.57,4.61M573.6,329.42h-3.89v3.58h3.89v-3.58ZM557.06,331.67c1.05,1.08,2.52,1.62,4.42,1.62s3.34-.54,4.33-1.62c.98-1.08,1.48-2.62,1.48-4.61v-5.54c0-1.85-.36-3.25-1.08-4.22-.72-.97-1.8-1.45-3.23-1.45-1.54,0-2.67.6-3.4,1.8l.31-5.92h6.77v-3.55h-10.43l-.75,14.4h3.89v-.74c0-1.63.67-2.44,2-2.44s2.02.82,2.02,2.44v5.45c0,1.62-.67,2.42-2.02,2.42s-2-.81-2-2.42v-2.3h-3.89v2.06c0,2,.52,3.53,1.57,4.61"/>
  <path class="st2" d="M623.88,271.74c0-.89.16-1.54.48-1.95.32-.41.82-.62,1.52-.62h1.87v7.64h-1.53c-.77,0-1.35-.2-1.75-.6-.39-.4-.59-1.08-.59-2.04v-2.44ZM623.48,290.46c.09-.29.15-.51.19-.65.04-.14.07-.42.11-.83.04-.41.06-.93.06-1.57v-3.9c0-1.14.2-1.95.61-2.44.4-.49,1.05-.73,1.94-.73h1.35v10.11h3.89v-24.83h-5.89c-2,0-3.46.47-4.38,1.4-.92.94-1.39,2.37-1.39,4.31v1.96c0,2.56.85,4.24,2.54,5.04-.93.39-1.6,1.03-1.99,1.9-.39.88-.59,2-.59,3.38v3.82c0,1.34-.12,2.35-.37,3.01h3.9ZM611.73,270.09l1.89,12.5h-3.76l1.87-12.5ZM608.68,290.46l.67-4.5h4.78l.68,4.5h3.89l-3.95-24.83h-6.02l-3.95,24.83h3.89ZM587.16,290.46l3.56-11.06.96,1.93v9.13h3.89v-9.09l.97-1.88,3.54,10.98h3.9l-4.78-14.7,4.78-10.13h-3.79l-4.62,10.04v-10.04h-3.89v10.04l-4.62-10.04h-3.79l4.84,10.18-4.84,14.64h3.9ZM573.93,271.35c0-1.63.68-2.44,2.04-2.44s2.02.81,2.02,2.44v13.4c0,1.64-.67,2.46-2.02,2.46s-2.04-.82-2.04-2.46v-13.4ZM571.57,289.11c1.02,1.08,2.49,1.63,4.4,1.63s3.37-.54,4.38-1.63c1.02-1.08,1.53-2.62,1.53-4.61v-12.91c0-1.98-.51-3.52-1.53-4.61-1.02-1.08-2.48-1.63-4.38-1.63s-3.37.54-4.4,1.63c-1.03,1.08-1.53,2.62-1.53,4.61v12.91c0,1.98.51,3.52,1.53,4.61M558.15,290.46l3.03-9.23,2.99,9.23h3.9l-4.34-12.65,4.08-12.18h-3.42l-3,9.2-2.96-9.2h-3.89l4.08,12.03-4.36,12.79h3.9ZM544,290.46l3.29-11.37,1.57-6.08v17.45h3.9v-24.83h-4.68l-3.19,10.25-1.42,5.47v-15.72h-3.48v24.83h4ZM530.53,269.18h1.85c.65,0,1.12.18,1.44.53.31.35.47.96.47,1.81v3.72c0,.85-.16,1.46-.47,1.81-.31.36-.79.54-1.44.54h-1.85v-8.42ZM530.53,290.46v-9.33h1.85c1.93,0,3.37-.52,4.34-1.57s1.46-2.57,1.46-4.56v-3.22c0-2-.49-3.52-1.46-4.57-.97-1.05-2.42-1.57-4.35-1.57h-5.74v24.83h3.89ZM515.4,290.46v-21.28h4.43v21.28h3.89v-24.83h-12.22v24.83h3.89Z"/>
  <path class="st2" d="M754.97,370.67v9.33h-3.93l3.93-9.33ZM754.97,383.54v4.5h3.9v-4.5h1.78v-3.55h-1.78v-16.78h-4.26l-7.08,16.78v3.55h7.44ZM745.69,384.46h-3.89v3.58h3.89v-3.58ZM729.12,386.7c1.05,1.08,2.52,1.62,4.42,1.62s3.34-.54,4.33-1.62c.98-1.08,1.48-2.62,1.48-4.61v-1.96c0-2.69-.91-4.43-2.72-5.21,1.81-.75,2.72-2.45,2.72-5.1v-.64c0-2-.49-3.54-1.48-4.61-.99-1.08-2.43-1.62-4.33-1.62s-3.37.54-4.42,1.62c-1.05,1.08-1.57,2.61-1.57,4.61v1.35h3.9v-1.59c0-1.63.66-2.44,2-2.44.67,0,1.17.21,1.51.62.34.42.51,1.15.51,2.22v1.39c0,.94-.2,1.62-.59,2.02-.39.4-.97.6-1.75.6h-1.52v3.55h1.32c.9,0,1.55.24,1.95.73.4.48.6,1.29.6,2.42v1.96c0,1.04-.17,1.77-.51,2.18-.34.42-.84.62-1.51.62-1.33,0-2-.82-2-2.46v-2.3h-3.9v2.06c0,2,.53,3.53,1.57,4.61M712.08,382.32l-.03.22c-.15.85-.5,1.42-1.04,1.69-.55.28-1.35.38-2.41.31v3.53c1.05.07,1.97.03,2.75-.11.79-.14,1.45-.37,1.99-.69.54-.31,1.01-.75,1.39-1.31.38-.56.69-1.18.93-1.85.24-.67.45-1.48.64-2.43l4.17-18.47h-3.89l-1.78,8.52-.91,5.75-1.21-5.8-2.1-8.46h-3.89l5.41,19.1ZM696.43,388.05l9.78-24.83h-3.38l-9.78,24.83h3.37ZM681.78,386.7c.99,1.08,2.44,1.62,4.35,1.62s3.39-.54,4.44-1.62c1.05-1.08,1.57-2.62,1.57-4.61v-3.31h-3.89v3.55c0,1.62-.67,2.42-2.02,2.42s-2.04-.81-2.04-2.42v-13.4c0-1.63.68-2.44,2.04-2.44s2.02.82,2.02,2.44v2.67h3.89v-2.42c0-2-.52-3.54-1.57-4.61-1.05-1.08-2.53-1.62-4.44-1.62s-3.36.54-4.35,1.62c-.99,1.08-1.48,2.61-1.48,4.61v12.91c0,2,.49,3.53,1.48,4.61"/>
  <path class="st2" d="M380.24,448.01v21.33h-8.98l8.98-21.33ZM380.24,477.45v10.29h8.9v-10.29h4.08v-8.11h-4.08v-38.34h-9.73l-16.19,38.34v8.11h17.02ZM359.03,479.55h-8.9v8.19h8.9v-8.19ZM330.42,444.45v43.29h8.9v-56.74h-6.01c-.34.93-.65,1.67-.91,2.23-.27.57-.65,1.2-1.17,1.9-.51.7-1.09,1.24-1.72,1.62-.63.38-1.46.72-2.49.99-1.03.28-2.2.41-3.52.41v6.29h6.93ZM301.02,448.01v21.33h-8.98l8.98-21.33ZM301.02,477.45v10.29h8.9v-10.29h4.08v-8.11h-4.08v-38.34h-9.73l-16.19,38.34v8.11h17.02Z"/>
  <circle class="st1" cx="338.35" cy="364.75" r="49.67" transform="translate(-128.12 537.76) rotate(-67.5)"/>
  <path class="st2" d="M347.87,387.76v-13.18l2.1-3.92,6.56,17.11h6.92l-9.38-23.82,9.38-19.14h-6.74l-8.84,18.72v-18.72h-6.74v42.96h6.74ZM326.2,354.98v32.78h6.74v-42.96h-4.55c-.26.7-.49,1.26-.69,1.69-.2.43-.49.91-.88,1.44-.39.53-.83.94-1.31,1.23-.48.29-1.11.54-1.89.75-.78.21-1.67.31-2.67.31v4.76h5.24Z"/>
  <path class="st2" d="M715.95,813.48c1.96,0,3.36-.41,4.21-1.23.84-.82,1.26-2.22,1.26-4.19v-13.97c0-1.97-.42-3.37-1.26-4.2-.84-.82-2.25-1.24-4.21-1.24h-1.19v3.37h.95c.65,0,1.11.15,1.39.47.28.31.42.89.42,1.72v13.7c0,.84-.14,1.41-.42,1.72-.28.31-.74.46-1.39.46h-.95v3.38h1.19ZM709.07,792.2l-5.71,21.28h3.89l5.75-21.42v-3.41h-11.69v3.55h7.76ZM698.88,809.89h-3.89v3.58h3.89v-3.58ZM687.54,796.09v9.33h-3.93l3.93-9.33ZM687.54,808.97v4.5h3.9v-4.5h1.78v-3.55h-1.78v-16.78h-4.26l-7.08,16.78v3.55h7.44ZM673.55,812.24c.84.82,2.25,1.23,4.21,1.23h1.19v-3.38h-.96c-.65,0-1.11-.15-1.39-.46-.28-.31-.42-.89-.42-1.72v-13.7c0-.84.14-1.41.42-1.72.28-.31.74-.47,1.39-.47h.96v-3.37h-1.19c-1.96,0-3.36.41-4.21,1.24-.84.83-1.26,2.23-1.26,4.2v13.97c0,1.97.42,3.37,1.26,4.19M659.11,796.09v9.33h-3.93l3.93-9.33ZM659.11,808.97v4.5h3.89v-4.5h1.78v-3.55h-1.78v-16.78h-4.26l-7.08,16.78v3.55h7.45ZM649.83,809.89h-3.89v3.58h3.89v-3.58ZM635.4,794.36c0-1.6.67-2.41,2.02-2.41s2.03.8,2.03,2.41v4.47c0,1.63-.68,2.44-2.03,2.44s-2.02-.81-2.02-2.44v-4.47ZM632.59,803.36c.72.97,1.8,1.45,3.23,1.45,1.73,0,2.94-.73,3.63-2.2v4.54c0,1.13-.18,1.93-.54,2.38-.36.45-.9.68-1.63.68-1.36,0-2.04-.82-2.04-2.46v-.88h-3.67v.64c0,2,.49,3.53,1.49,4.61.99,1.08,2.43,1.62,4.32,1.62,3.98,0,5.96-2.15,5.96-6.44v-12.7c0-1.99-.51-3.52-1.53-4.61-1.02-1.08-2.49-1.63-4.4-1.63s-3.37.54-4.39,1.63c-1.02,1.08-1.53,2.62-1.53,4.61v4.55c0,1.84.37,3.24,1.09,4.21"/>
  <path class="st1" d="M658.29,412.36l-33.4-58.08s4.75-3.03,14.93-5.63c10.18-2.6,17.26-2.6,17.26-2.6"/>
  <path class="st1" d="M544.8,442.59l66.29,38.31s3.46-5.45,6.42-17.12c2.96-11.68,2.96-19.8,2.96-19.8"/>
  <rect class="st2" x="504.49" y="439" width="44.15" height="7.56"/>
  <rect class="st1" x="504.49" y="439" width="44.15" height="7.56"/>
  <rect class="st2" x="619.9" y="439" width="35.37" height="7.56"/>
  <rect class="st1" x="619.9" y="439" width="35.37" height="7.56"/>
  <rect class="st2" x="652.41" y="404.88" width="7.56" height="63.34"/>
  <rect class="st1" x="652.41" y="404.88" width="7.56" height="63.34"/>
  <rect class="st2" x="652.41" y="268.28" width="7.56" height="78.56"/>
  <rect class="st1" x="652.41" y="268.28" width="7.56" height="78.56"/>
  <rect class="st2" x="655.55" y="268.29" width="172.99" height="7.56"/>
  <rect class="st1" x="655.55" y="268.29" width="172.99" height="7.56"/>
  <rect class="st2" x="652.41" y="460.96" width="170.64" height="7.56"/>
  <rect class="st1" x="652.41" y="460.96" width="170.64" height="7.56"/>
  <rect class="st2" x="819.41" y="187.86" width="17.76" height="690.97"/>
  <rect class="st1" x="819.41" y="187.86" width="17.76" height="690.97"/>
  <path class="st2" d="M749.15,420.81c0-9.43,7.68-17.1,17.11-17.1h24.77c1.63,0,2.95,1.32,2.95,2.95v28.31c0,1.63-1.33,2.95-2.95,2.95h-24.77c-9.43,0-17.11-7.68-17.11-17.11M795.16,434.97v-28.31c0-2.28-1.85-4.13-4.13-4.13h-24.77c-10.08,0-18.28,8.2-18.28,18.28s8.2,18.28,18.28,18.28h24.77c2.28,0,4.13-1.85,4.13-4.13"/>
  <path class="st1" d="M749.15,420.81c0-9.43,7.68-17.1,17.11-17.1h24.77c1.63,0,2.95,1.32,2.95,2.95v28.31c0,1.63-1.33,2.95-2.95,2.95h-24.77c-9.43,0-17.11-7.68-17.11-17.11ZM795.16,434.97v-28.31c0-2.28-1.85-4.13-4.13-4.13h-24.77c-10.08,0-18.28,8.2-18.28,18.28s8.2,18.28,18.28,18.28h24.77c2.28,0,4.13-1.85,4.13-4.13Z"/>
  <path class="st1" d="M785.72,408.55v24.53c0,.16-.14.3-.3.3h-18.68c-6.9,0-12.56-5.66-12.56-12.56s5.66-12.56,12.56-12.56h18.68c.15,0,.3.14.3.29Z"/>
  <path class="st2" d="M785.13,408.84v23.95h-18.38c-6.6,0-11.97-5.37-11.97-11.97s5.37-11.97,11.97-11.97h18.38ZM786.31,433.08v-24.53c0-.48-.4-.88-.88-.88h-18.68c-7.25,0-13.15,5.9-13.15,13.14s5.9,13.15,13.15,13.15h18.68c.48,0,.88-.41.88-.89"/>
  <path class="st1" d="M785.13,408.84v23.95h-18.38c-6.6,0-11.97-5.37-11.97-11.97s5.37-11.97,11.97-11.97h18.38ZM786.31,433.08v-24.53c0-.48-.4-.88-.88-.88h-18.68c-7.25,0-13.15,5.9-13.15,13.14s5.9,13.15,13.15,13.15h18.68c.48,0,.88-.41.88-.89Z"/>
  <path class="st2" d="M766.72,420.82c0-1.78,1.45-3.23,3.23-3.23s3.23,1.45,3.23,3.23-1.45,3.23-3.23,3.23-3.23-1.45-3.23-3.23M774.36,420.82c0-2.43-1.98-4.41-4.41-4.41s-4.41,1.98-4.41,4.41,1.98,4.41,4.41,4.41,4.41-1.98,4.41-4.41"/>
  <path class="st1" d="M766.72,420.82c0-1.78,1.45-3.23,3.23-3.23s3.23,1.45,3.23,3.23-1.45,3.23-3.23,3.23-3.23-1.45-3.23-3.23ZM774.36,420.82c0-2.43-1.98-4.41-4.41-4.41s-4.41,1.98-4.41,4.41,1.98,4.41,4.41,4.41,4.41-1.98,4.41-4.41Z"/>
  <rect class="st2" x="774.17" y="413.14" width="9.81" height="1.18" transform="translate(-92.84 547.49) rotate(-36.69)"/>
  <rect class="st1" x="774.17" y="413.14" width="9.81" height="1.18" transform="translate(-92.84 547.49) rotate(-36.69)"/>
  <polygon class="st2" points="783.35 430.18 775.5 424.3 774.79 425.24 782.64 431.12 783.35 430.18"/>
  <polygon class="st1" points="783.35 430.18 775.5 424.3 774.79 425.24 782.64 431.12 783.35 430.18"/>
  <path class="st2" d="M795.22,409.01c0-2.61,2.12-4.74,4.74-4.74h6.45c2.61,0,4.74,2.13,4.74,4.74v23.62c0,2.61-2.13,4.74-4.74,4.74h-6.45c-2.61,0-4.74-2.13-4.74-4.74v-23.62ZM812.32,432.62v-23.62c0-3.26-2.66-5.91-5.92-5.91h-6.45c-3.26,0-5.92,2.65-5.92,5.91v23.62c0,3.26,2.65,5.92,5.92,5.92h6.45c3.26,0,5.92-2.66,5.92-5.92"/>
  <path class="st1" d="M795.22,409.01c0-2.61,2.12-4.74,4.74-4.74h6.45c2.61,0,4.74,2.13,4.74,4.74v23.62c0,2.61-2.13,4.74-4.74,4.74h-6.45c-2.61,0-4.74-2.13-4.74-4.74v-23.62ZM812.32,432.62v-23.62c0-3.26-2.66-5.91-5.92-5.91h-6.45c-3.26,0-5.92,2.65-5.92,5.91v23.62c0,3.26,2.65,5.92,5.92,5.92h6.45c3.26,0,5.92-2.66,5.92-5.92Z"/>
  <path class="st2" d="M801.35,420.82c0-1.01.82-1.83,1.84-1.83s1.83.82,1.83,1.83-.82,1.83-1.83,1.83-1.84-.82-1.84-1.83M806.19,420.82c0-1.66-1.35-3.01-3.01-3.01s-3.01,1.35-3.01,3.01,1.35,3.01,3.01,3.01,3.01-1.35,3.01-3.01"/>
  <path class="st1" d="M801.35,420.82c0-1.01.82-1.83,1.84-1.83s1.83.82,1.83,1.83-.82,1.83-1.83,1.83-1.84-.82-1.84-1.83ZM806.19,420.82c0-1.66-1.35-3.01-3.01-3.01s-3.01,1.35-3.01,3.01,1.35,3.01,3.01,3.01,3.01-1.35,3.01-3.01Z"/>
  <path class="st2" d="M781.28,371.48c0,8.95,7.29,16.24,16.26,16.24h17.25c1.36,0,2.47-1.11,2.47-2.47v-36.71c0-1.36-1.11-2.47-2.47-2.47h-17.25c-8.96,0-16.26,7.29-16.26,16.24v9.16ZM818.16,348.54v36.71c0,1.87-1.52,3.39-3.38,3.39h-17.25c-9.47,0-17.17-7.7-17.17-17.15v-9.16c0-9.46,7.7-17.16,17.17-17.16h17.25c1.87,0,3.38,1.52,3.38,3.38"/>
  <path class="st1" d="M781.28,371.48c0,8.95,7.29,16.24,16.26,16.24h17.25c1.36,0,2.47-1.11,2.47-2.47v-36.71c0-1.36-1.11-2.47-2.47-2.47h-17.25c-8.96,0-16.26,7.29-16.26,16.24v9.16ZM818.16,348.54v36.71c0,1.87-1.52,3.39-3.38,3.39h-17.25c-9.47,0-17.17-7.7-17.17-17.15v-9.16c0-9.46,7.7-17.16,17.17-17.16h17.25c1.87,0,3.38,1.52,3.38,3.38Z"/>
  <path class="st2" d="M785.34,371.48c0,6.71,5.47,12.17,12.19,12.17h10.06c1.17,0,2.13-.95,2.13-2.12v-29.27c0-1.17-.96-2.12-2.13-2.12h-10.06c-6.72,0-12.19,5.46-12.19,12.17v9.17ZM810.65,352.27v29.27c0,1.67-1.36,3.04-3.05,3.04h-10.06c-7.23,0-13.11-5.87-13.11-13.08v-9.17c0-7.22,5.88-13.09,13.11-13.09h10.06c1.68,0,3.05,1.36,3.05,3.04"/>
  <path class="st1" d="M785.34,371.48c0,6.71,5.47,12.17,12.19,12.17h10.06c1.17,0,2.13-.95,2.13-2.12v-29.27c0-1.17-.96-2.12-2.13-2.12h-10.06c-6.72,0-12.19,5.46-12.19,12.17v9.17ZM810.65,352.27v29.27c0,1.67-1.36,3.04-3.05,3.04h-10.06c-7.23,0-13.11-5.87-13.11-13.08v-9.17c0-7.22,5.88-13.09,13.11-13.09h10.06c1.68,0,3.05,1.36,3.05,3.04Z"/>
  <path class="st2" d="M793.87,366.9c0,1.12.92,2.04,2.04,2.04s2.04-.91,2.04-2.04-.91-2.04-2.04-2.04-2.04.91-2.04,2.04M798.88,366.9c0,1.64-1.33,2.97-2.97,2.97s-2.97-1.33-2.97-2.97,1.33-2.97,2.97-2.97,2.97,1.33,2.97,2.97"/>
  <path class="st1" d="M793.87,366.9c0,1.12.92,2.04,2.04,2.04s2.04-.91,2.04-2.04-.91-2.04-2.04-2.04-2.04.91-2.04,2.04ZM798.88,366.9c0,1.64-1.33,2.97-2.97,2.97s-2.97-1.33-2.97-2.97,1.33-2.97,2.97-2.97,2.97,1.33,2.97,2.97Z"/>
  <path class="st1" d="M790.1,306.45c0-1.25-1.04-2.26-2.31-2.26s-2.31,1.01-2.31,2.26,1.04,2.26,2.31,2.26,2.31-1.01,2.31-2.26Z"/>
  <rect class="st1" x="667.49" y="281.14" width="144.51" height="54.14" rx="15.57" ry="15.57"/>
  <rect class="st1" x="677.52" y="286.2" width="124.45" height="44.03" rx="15.57" ry="15.57"/>
  <path class="st1" d="M697.41,291.05h91.24c4.29,0,7.78,3.49,7.78,7.78v18.75c0,4.3-3.49,7.78-7.78,7.78h-91.24c-4.29,0-7.78-3.49-7.78-7.78v-18.75c0-4.29,3.49-7.78,7.78-7.78Z"/>
  <polygon class="st1" points="817.66 276.62 817.66 276.62 661.83 276.62 661.83 339.8 817.66 339.8 817.66 276.62"/>
  <path class="st2" d="M816.9,525.82h-54.31v-54.78h54.31v54.78ZM818.1,469.84h-56.72v57.2h56.72v-57.2Z"/>
  <path class="st1" d="M816.9,525.82h-54.31v-54.78h54.31v54.78ZM818.1,469.84h-56.72v57.2h56.72v-57.2Z"/>
  <path class="st2" d="M767.53,479.25c0-1.35,1.09-2.45,2.43-2.45h28.56c1.34,0,2.44,1.1,2.44,2.45v38.38c0,1.35-1.1,2.45-2.44,2.45h-28.56c-1.34,0-2.43-1.1-2.43-2.45v-38.38ZM802.16,517.63v-38.38c0-2.02-1.63-3.67-3.64-3.67h-28.56c-2,0-3.63,1.64-3.63,3.67v38.38c0,2.02,1.63,3.66,3.63,3.66h28.56c2.01,0,3.64-1.64,3.64-3.66"/>
  <path class="st1" d="M767.53,479.25c0-1.35,1.09-2.45,2.43-2.45h28.56c1.34,0,2.44,1.1,2.44,2.45v38.38c0,1.35-1.1,2.45-2.44,2.45h-28.56c-1.34,0-2.43-1.1-2.43-2.45v-38.38ZM802.16,517.63v-38.38c0-2.02-1.63-3.67-3.64-3.67h-28.56c-2,0-3.63,1.64-3.63,3.67v38.38c0,2.02,1.63,3.66,3.63,3.66h28.56c2.01,0,3.64-1.64,3.64-3.66Z"/>
  <path class="st2" d="M796.74,515.83h-24.99v-34.78h24.99v34.78ZM797.94,479.84h-27.4v37.2h27.4v-37.2Z"/>
  <path class="st1" d="M796.74,515.83h-24.99v-34.78h24.99v34.78ZM797.94,479.84h-27.4v37.2h27.4v-37.2Z"/>
  <path class="st2" d="M779.39,498.43c0-1.76,1.42-3.19,3.17-3.19s3.16,1.43,3.16,3.19-1.42,3.19-3.16,3.19-3.17-1.43-3.17-3.19M786.93,498.43c0-2.43-1.96-4.41-4.37-4.41s-4.37,1.98-4.37,4.41,1.96,4.41,4.37,4.41,4.37-1.98,4.37-4.41"/>
  <path class="st1" d="M779.39,498.43c0-1.76,1.42-3.19,3.17-3.19s3.16,1.43,3.16,3.19-1.42,3.19-3.16,3.19-3.17-1.43-3.17-3.19ZM786.93,498.43c0-2.43-1.96-4.41-4.37-4.41s-4.37,1.98-4.37,4.41,1.96,4.41,4.37,4.41,4.37-1.98,4.37-4.41Z"/>
  <rect class="st1" x="497.58" y="868.4" width="327.05" height="10.43"/>
</svg>