<svg xmlns="http://www.w3.org/2000/svg" xmlns:xlink="http://www.w3.org/1999/xlink" xml:space="preserve" id="Слой_1" x="0" y="0" style="enable-background:new 0 0 218.6 373.6" version="1.1" viewBox="0 0 218.6 373.6"><style>.st0{fill:#f6ccce}.st2{fill:none;stroke:#39373a;stroke-width:.6}.st10{fill:#39373a}.st11,.st40{fill:none;stroke:#39373a;stroke-width:.212}.st40{stroke-width:.25}</style><path d="M111.3 57.7H195v289.1h-83.8V57.7z" class="st0"/><path d="M25.2 158.9h91v187.9h-91V158.9z" class="st0"/><defs><path id="SVGID_1_" d="M19.4 16.6h184.3v342.8H19.4z"/></defs><clipPath id="SVGID_2_"><use xlink:href="#SVGID_1_" style="overflow:visible"/></clipPath><path d="M171.3 37c1.2.5 1.6 2 1.6 4.3 0 2.2-.4 3.7-1.6 4.3l.2.8c2.2-.6 3.3-2.2 3.3-5.1 0-2.9-1-4.5-3.3-5.1l-.2.8zm-3.1 6.2c-.9 0-.9-.3-.9-1.9.4-.2.6-.3.9-.3.7 0 .9.2.9 1 0 .9 0 1.2-.9 1.2m2.3-5.9c-.8-.2-1.5-.2-1.9-.2-2.1 0-3.2.5-3.2 3.9 0 3 .7 3.7 2.9 3.7 2.3 0 2.7-.9 2.7-2.7 0-1.6-.5-2.3-2.1-2.3-.6 0-1.1.1-1.5.4.1-1.4.3-1.6 1.3-1.6h1.8v-1.2zm-7.2 5.5c-.5 0-.7.2-.7.7v.5c0 .5.2.7.7.7h.5c.5 0 .7-.2.7-.7v-.5c0-.5-.2-.7-.7-.7h-.5zm-1.9 1.8v-7.4h-2l-1.9.7.2 1.3 1.7-.4c-.1.3-.1.6-.1.9v4.9h2.1zm-4.2-8.5c-2.2.6-3.3 2.2-3.3 5.1 0 2.8 1 4.5 3.3 5.1l.2-.8c-1.2-.5-1.6-2.1-1.6-4.3 0-2.2.4-3.8 1.6-4.3l-.2-.8zm-6.7 8.5v-7.4h-2l-1.9.7.2 1.3 1.7-.4c-.1.3-.1.6-.1.9v4.9h2.1zm-5.1-1.8c-.5 0-.7.2-.7.7v.5c0 .5.2.7.7.7h.5c.5 0 .7-.2.7-.7v-.5c0-.5-.2-.7-.7-.7h-.5zm-6.6-4.2h2.1c.8 0 1 .1 1 .7 0 .5-.1.8-.9.8h-1.4v1.3h1.4c.8 0 1 .2 1 .9 0 .8-.3.9-1.2.9-.6 0-1.1 0-2-.1l-.1 1.4c.8.1 1.8.2 2.6.2 1.9 0 2.7-.6 2.6-2.2 0-1.1-.3-1.7-1.4-1.8.9-.2 1.2-.8 1.2-1.9 0-1.3-.7-1.7-2.5-1.7-.8 0-1.6.1-2.5.2l.1 1.3z" style="clip-path:url(#SVGID_2_);fill:#39373a"/><path d="m22.3 210.5 11.2-18.8.8.5L23.1 211l-.8-.5z" class="st2"/><defs><path id="SVGID_3_" d="M19.4 16.6h184.3v342.8H19.4z"/></defs><clipPath id="SVGID_4_"><use xlink:href="#SVGID_3_" style="overflow:visible"/></clipPath><path d="M33.4 191.6s-1.5-1.1-5-1.6-5.4-.4-5.4-.4" style="clip-path:url(#SVGID_4_);fill:none;stroke:#39373a;stroke-width:.4"/><path d="m111.2 214.3.5-.8 18.8 11.2-.5.8-18.8-11.2z" class="st2"/><defs><path id="SVGID_5_" d="M19.4 16.6h184.3v342.8H19.4z"/></defs><clipPath id="SVGID_6_"><use xlink:href="#SVGID_5_" style="overflow:visible"/></clipPath><path d="M130.6 224.5s1.1-1.5 1.6-5 .4-5.4.4-5.4" style="clip-path:url(#SVGID_6_);fill:none;stroke:#39373a;stroke-width:.4"/><path d="m111.2 143.1 18.8-11.2.5.8-18.8 11.2-.5-.8z" class="st2"/><defs><path id="SVGID_7_" d="M19.4 16.6h184.3v342.8H19.4z"/></defs><clipPath id="SVGID_8_"><use xlink:href="#SVGID_7_" style="overflow:visible"/></clipPath><path d="M130.6 132.8s1.1 1.5 1.6 5 .4 5.4.4 5.4" style="clip-path:url(#SVGID_8_);fill:none;stroke:#39373a;stroke-width:.4"/><path d="M130.2 159.5 140 143l.8.5-9.8 16.4-.8-.4z" class="st2"/><defs><path id="SVGID_9_" d="M19.4 16.6h184.3v342.8H19.4z"/></defs><clipPath id="SVGID_10_"><use xlink:href="#SVGID_9_" style="overflow:visible"/></clipPath><path d="M131.1 160s1.5 1.1 5 1.6 5.4.4 5.4.4" style="clip-path:url(#SVGID_10_);fill:none;stroke:#39373a;stroke-width:.4"/><path d="m130.2 186.1.8-.5 9.8 16.4-.8.5-9.8-16.4z" class="st2"/><defs><path id="SVGID_11_" d="M19.4 16.6h184.3v342.8H19.4z"/></defs><clipPath id="SVGID_12_"><use xlink:href="#SVGID_11_" style="overflow:visible"/></clipPath><path d="M131.1 185.5s1.5-1.1 5-1.6 5.4-.4 5.4-.4" style="clip-path:url(#SVGID_12_);fill:none;stroke:#39373a;stroke-width:.4"/><path d="m73.4 224.1 21.2-12.6.5.8-21.2 12.6-.5-.8z" class="st2"/><defs><path id="SVGID_13_" d="M19.4 16.6h184.3v342.8H19.4z"/></defs><clipPath id="SVGID_14_"><use xlink:href="#SVGID_13_" style="overflow:visible"/></clipPath><path d="M73.3 224s-1.1-1.5-1.6-5-.4-5.4-.4-5.4" style="clip-path:url(#SVGID_14_);fill:none;stroke:#39373a;stroke-width:.4"/><defs><path id="SVGID_15_" d="M19.4 16.6h184.3v342.8H19.4z"/></defs><clipPath id="SVGID_16_"><use xlink:href="#SVGID_15_" style="overflow:visible"/></clipPath><path d="M169.5 140h13.8v-13.8h-13.8V140zm14.1.3h-14.4v-14.4h14.4v14.4z" class="st10"/><path d="M169.5 140h13.8v-13.8h-13.8V140zm14.1.3h-14.4v-14.4h14.4v14.4z" class="st11"/><defs><path id="SVGID_17_" d="M19.4 16.6h184.3v342.8H19.4z"/></defs><clipPath id="SVGID_18_"><use xlink:href="#SVGID_17_" style="overflow:visible"/></clipPath><path d="M171.5 127.5c-.3 0-.6.3-.6.6v7.3c0 .3.3.6.6.6h9.7c.3 0 .6-.3.6-.6v-7.3c0-.3-.3-.6-.6-.6h-9.7zm9.7 8.8h-9.7c-.5 0-.9-.4-.9-.9v-7.3c0-.5.4-.9.9-.9h9.7c.5 0 .9.4.9.9v7.3c0 .5-.4.9-.9.9" style="clip-path:url(#SVGID_18_);fill:#39373a"/><defs><path id="SVGID_19_" d="M19.4 16.6h184.3v342.8H19.4z"/></defs><clipPath id="SVGID_20_"><use xlink:href="#SVGID_19_" style="overflow:visible"/></clipPath><path d="M171.5 127.5c-.3 0-.6.3-.6.6v7.3c0 .3.3.6.6.6h9.7c.3 0 .6-.3.6-.6v-7.3c0-.3-.3-.6-.6-.6h-9.7zm9.7 8.8h-9.7c-.5 0-.9-.4-.9-.9v-7.3c0-.5.4-.9.9-.9h9.7c.5 0 .9.4.9.9v7.3c0 .5-.4.9-.9.9z" style="clip-path:url(#SVGID_20_);fill:none;stroke:#39373a;stroke-width:.212"/><path d="M172 134.9h8.8v-6.4H172v6.4zm9.1.3h-9.4v-7h9.4v7z" class="st10"/><path d="M172 134.9h8.8v-6.4H172v6.4zm9.1.3h-9.4v-7h9.4v7z" class="st11"/><defs><path id="SVGID_21_" d="M19.4 16.6h184.3v342.8H19.4z"/></defs><clipPath id="SVGID_22_"><use xlink:href="#SVGID_21_" style="overflow:visible"/></clipPath><path d="M176.4 130.5c-.4 0-.8.4-.8.8s.4.8.8.8.8-.4.8-.8-.4-.8-.8-.8m0 1.9c-.6 0-1.1-.5-1.1-1.1s.5-1.1 1.1-1.1 1.1.5 1.1 1.1-.5 1.1-1.1 1.1" style="clip-path:url(#SVGID_22_);fill:#39373a"/><defs><path id="SVGID_23_" d="M19.4 16.6h184.3v342.8H19.4z"/></defs><clipPath id="SVGID_24_"><use xlink:href="#SVGID_23_" style="overflow:visible"/></clipPath><path d="M176.4 130.5c-.4 0-.8.4-.8.8s.4.8.8.8.8-.4.8-.8-.4-.8-.8-.8zm0 1.9c-.6 0-1.1-.5-1.1-1.1s.5-1.1 1.1-1.1 1.1.5 1.1 1.1-.5 1.1-1.1 1.1z" style="clip-path:url(#SVGID_24_);fill:none;stroke:#39373a;stroke-width:.212"/><defs><path id="SVGID_25_" d="M19.4 16.6h184.3v342.8H19.4z"/></defs><clipPath id="SVGID_26_"><use xlink:href="#SVGID_25_" style="overflow:visible"/></clipPath><path d="M164.8 179.9c-2.5 0-4.5-2-4.5-4.5v-4.8c0-.4.3-.7.7-.7h10.1c.4 0 .7.3.7.7v4.8c0 2.5-2 4.5-4.5 4.5h-2.5zm6.3-10.1H161c-.5 0-.9.4-.9.9v4.8c0 2.6 2.1 4.7 4.7 4.7h2.5c2.6 0 4.7-2.1 4.7-4.7v-4.8c.1-.5-.3-.9-.9-.9" style="clip-path:url(#SVGID_26_);fill:#39373a"/><defs><path id="SVGID_27_" d="M19.4 16.6h184.3v342.8H19.4z"/></defs><clipPath id="SVGID_28_"><use xlink:href="#SVGID_27_" style="overflow:visible"/></clipPath><path d="M164.8 179.9c-2.5 0-4.5-2-4.5-4.5v-4.8c0-.4.3-.7.7-.7h10.1c.4 0 .7.3.7.7v4.8c0 2.5-2 4.5-4.5 4.5h-2.5zm6.3-10.1H161c-.5 0-.9.4-.9.9v4.8c0 2.6 2.1 4.7 4.7 4.7h2.5c2.6 0 4.7-2.1 4.7-4.7v-4.8c.1-.5-.3-.9-.9-.9z" style="clip-path:url(#SVGID_28_);fill:none;stroke:#39373a;stroke-width:.206"/><defs><path id="SVGID_29_" d="M19.4 16.6h184.3v342.8H19.4z"/></defs><clipPath id="SVGID_30_"><use xlink:href="#SVGID_29_" style="overflow:visible"/></clipPath><path d="M164.8 178.8c-1.9 0-3.4-1.5-3.4-3.3v-2.8c0-.3.3-.6.6-.6h8.1c.3 0 .6.3.6.6v2.8c0 1.9-1.5 3.4-3.4 3.4h-2.5v-.1zm5.3-6.9H162c-.5 0-.8.4-.8.8v2.8c0 2 1.6 3.6 3.6 3.6h2.5c2 0 3.6-1.6 3.6-3.6v-2.8c0-.5-.3-.8-.8-.8" style="clip-path:url(#SVGID_30_);fill:#39373a"/><defs><path id="SVGID_31_" d="M19.4 16.6h184.3v342.8H19.4z"/></defs><clipPath id="SVGID_32_"><use xlink:href="#SVGID_31_" style="overflow:visible"/></clipPath><path d="M164.8 178.8c-1.9 0-3.4-1.5-3.4-3.3v-2.8c0-.3.3-.6.6-.6h8.1c.3 0 .6.3.6.6v2.8c0 1.9-1.5 3.4-3.4 3.4h-2.5v-.1zm5.3-6.9H162c-.5 0-.8.4-.8.8v2.8c0 2 1.6 3.6 3.6 3.6h2.5c2 0 3.6-1.6 3.6-3.6v-2.8c0-.5-.3-.8-.8-.8z" style="clip-path:url(#SVGID_32_);fill:none;stroke:#39373a;stroke-width:.206"/><defs><path id="SVGID_33_" d="M19.4 16.6h184.3v342.8H19.4z"/></defs><clipPath id="SVGID_34_"><use xlink:href="#SVGID_33_" style="overflow:visible"/></clipPath><path d="M166.1 176.5c-.3 0-.6-.3-.6-.6s.3-.6.6-.6.6.3.6.6-.3.6-.6.6m0-1.4c-.4 0-.8.4-.8.8s.4.8.8.8.8-.4.8-.8-.4-.8-.8-.8" style="clip-path:url(#SVGID_34_);fill:#39373a"/><defs><path id="SVGID_35_" d="M19.4 16.6h184.3v342.8H19.4z"/></defs><clipPath id="SVGID_36_"><use xlink:href="#SVGID_35_" style="overflow:visible"/></clipPath><path d="M166.1 176.5c-.3 0-.6-.3-.6-.6s.3-.6.6-.6.6.3.6.6-.3.6-.6.6zm0-1.4c-.4 0-.8.4-.8.8s.4.8.8.8.8-.4.8-.8-.4-.8-.8-.8z" style="clip-path:url(#SVGID_36_);fill:none;stroke:#39373a;stroke-width:.206"/><defs><path id="SVGID_37_" d="M19.4 16.6h184.3v342.8H19.4z"/></defs><clipPath id="SVGID_38_"><use xlink:href="#SVGID_37_" style="overflow:visible"/></clipPath><path d="M39.4 353h56.9v6.1H39.4V353z" style="clip-path:url(#SVGID_38_);fill:none;stroke:#39373a;stroke-width:.6"/><defs><path id="SVGID_39_" d="M19.4 16.6h184.3v342.8H19.4z"/></defs><clipPath id="SVGID_40_"><use xlink:href="#SVGID_39_" style="overflow:visible"/></clipPath><path d="M39.4 346.9h56.9v12.2H39.4v-12.2z" style="clip-path:url(#SVGID_40_);fill:none;stroke:#39373a;stroke-width:.6"/><defs><path id="SVGID_41_" d="M19.4 16.6h184.3v342.8H19.4z"/></defs><clipPath id="SVGID_42_"><use xlink:href="#SVGID_41_" style="overflow:visible"/></clipPath><path d="M39.4 351.7h56.9v7.4H39.4v-7.4zm82.3 1.3h56.9v6.1h-56.9V353z" style="clip-path:url(#SVGID_42_);fill:none;stroke:#39373a;stroke-width:.6"/><defs><path id="SVGID_43_" d="M19.4 16.6h184.3v342.8H19.4z"/></defs><clipPath id="SVGID_44_"><use xlink:href="#SVGID_43_" style="overflow:visible"/></clipPath><path d="M121.7 346.9h56.9v12.2h-56.9v-12.2z" style="clip-path:url(#SVGID_44_);fill:none;stroke:#39373a;stroke-width:.6"/><defs><path id="SVGID_45_" d="M19.4 16.6h184.3v342.8H19.4z"/></defs><clipPath id="SVGID_46_"><use xlink:href="#SVGID_45_" style="overflow:visible"/></clipPath><path d="M121.7 351.7h56.9v7.4h-56.9v-7.4z" style="clip-path:url(#SVGID_46_);fill:none;stroke:#39373a;stroke-width:.6"/><path d="M109.3 23.4h88.4v1.8h-88.4v-1.8z" class="st2"/><defs><path id="SVGID_47_" d="M19.4 16.6h184.3v342.8H19.4z"/></defs><clipPath id="SVGID_48_"><use xlink:href="#SVGID_47_" style="overflow:visible"/></clipPath><path d="M109.3 16.9h87.6v11.9h-87.6V16.9z" style="clip-path:url(#SVGID_48_);fill:none;stroke:#39373a;stroke-width:.6"/><defs><path id="SVGID_49_" d="M19.4 16.6h184.3v342.8H19.4z"/></defs><clipPath id="SVGID_50_"><use xlink:href="#SVGID_49_" style="overflow:visible"/></clipPath><path d="M186 210.2s5 0 5-5v-29.6s0-5-5-5h-6.6s-5 0-5 5v29.6s0 5 5 5h6.6z" style="clip-path:url(#SVGID_50_);fill:none;stroke:#39373a;stroke-width:.525"/><defs><path id="SVGID_51_" d="M19.4 16.6h184.3v342.8H19.4z"/></defs><clipPath id="SVGID_52_"><use xlink:href="#SVGID_51_" style="overflow:visible"/></clipPath><path d="M184.4 207.5s5 0 5-5v-24.1s0-5-5-5h-3.6s-5 0-5 5v24.1s0 5 5 5h3.6z" style="clip-path:url(#SVGID_52_);fill:none;stroke:#39373a;stroke-width:.525"/><defs><path id="SVGID_53_" d="M19.4 16.6h184.3v342.8H19.4z"/></defs><clipPath id="SVGID_54_"><use xlink:href="#SVGID_53_" style="overflow:visible"/></clipPath><path d="M185.4 204.1s2.5 0 2.5-2.5v-24.3s0-2.5-2.5-2.5h-5.5s-2.5 0-2.5 2.5v24.3s0 2.5 2.5 2.5h5.5z" style="clip-path:url(#SVGID_54_);fill:none;stroke:#39373a;stroke-width:.525"/><defs><path id="SVGID_55_" d="M19.4 16.6h184.3v342.8H19.4z"/></defs><clipPath id="SVGID_56_"><use xlink:href="#SVGID_55_" style="overflow:visible"/></clipPath><path d="M182.6 177.9c-.4 0-.7.3-.7.7s.3.7.7.7.7-.3.7-.7c.1-.4-.3-.7-.7-.7z" style="clip-path:url(#SVGID_56_);fill:none;stroke:#39373a;stroke-width:.525"/><path d="M173.4 211.7V169" style="fill:none;stroke:#39373a;stroke-width:.525"/><path d="M156.7 196.9h14v18.4h-14v-18.4zm27.5-78.1h9.3v22.8h-9.3v-22.8z" class="st2"/><path d="M185.4 120.9h5.6v3.3h-5.6v-3.3z" class="st2"/><defs><path id="SVGID_57_" d="M19.4 16.6h184.3v342.8H19.4z"/></defs><clipPath id="SVGID_58_"><use xlink:href="#SVGID_57_" style="overflow:visible"/></clipPath><path d="M172.9 157.2c0-2.8 2.3-5.1 5.1-5.1h7.4c.5 0 .9.4.9.9v8.5c0 .5-.4.9-.9.9H178c-2.8 0-5.1-2.3-5.1-5.2m13.7 4.3V153c0-.7-.6-1.2-1.2-1.2H178c-3 0-5.5 2.4-5.5 5.5 0 3 2.4 5.5 5.5 5.5h7.4c.7-.1 1.2-.6 1.2-1.3" style="clip-path:url(#SVGID_58_);fill:#39373a"/><defs><path id="SVGID_59_" d="M19.4 16.6h184.3v342.8H19.4z"/></defs><clipPath id="SVGID_60_"><use xlink:href="#SVGID_59_" style="overflow:visible"/></clipPath><path d="M172.9 157.2c0-2.8 2.3-5.1 5.1-5.1h7.4c.5 0 .9.4.9.9v8.5c0 .5-.4.9-.9.9H178c-2.8 0-5.1-2.3-5.1-5.2zm13.7 4.3V153c0-.7-.6-1.2-1.2-1.2H178c-3 0-5.5 2.4-5.5 5.5 0 3 2.4 5.5 5.5 5.5h7.4c.7-.1 1.2-.6 1.2-1.3z" style="clip-path:url(#SVGID_60_);fill:none;stroke:#39373a;stroke-width:.25"/><defs><path id="SVGID_61_" d="M19.4 16.6h184.3v342.8H19.4z"/></defs><clipPath id="SVGID_62_"><use xlink:href="#SVGID_61_" style="overflow:visible"/></clipPath><path d="M183.8 153.6v7.3c0 .1 0 .1-.1.1h-5.6c-2.1 0-3.8-1.7-3.8-3.8 0-2.1 1.7-3.8 3.8-3.8l5.7.2c0-.1 0-.1 0 0z" style="clip-path:url(#SVGID_62_);fill:none;stroke:#39373a;stroke-width:.25"/><defs><path id="SVGID_63_" d="M19.4 16.6h184.3v342.8H19.4z"/></defs><clipPath id="SVGID_64_"><use xlink:href="#SVGID_63_" style="overflow:visible"/></clipPath><path d="M183.6 153.7v7.2h-5.5c-2 0-3.6-1.6-3.6-3.6s1.6-3.6 3.6-3.6h5.5zm.4 7.2v-7.3c0-.1-.1-.3-.3-.3h-5.6c-2.2 0-3.9 1.8-3.9 3.9 0 2.2 1.8 3.9 3.9 3.9h5.6c.2.1.3 0 .3-.2" style="clip-path:url(#SVGID_64_);fill:#39373a"/><defs><path id="SVGID_65_" d="M19.4 16.6h184.3v342.8H19.4z"/></defs><clipPath id="SVGID_66_"><use xlink:href="#SVGID_65_" style="overflow:visible"/></clipPath><path d="M183.6 153.7v7.2h-5.5c-2 0-3.6-1.6-3.6-3.6s1.6-3.6 3.6-3.6h5.5zm.4 7.2v-7.3c0-.1-.1-.3-.3-.3h-5.6c-2.2 0-3.9 1.8-3.9 3.9 0 2.2 1.8 3.9 3.9 3.9h5.6c.2.1.3 0 .3-.2z" style="clip-path:url(#SVGID_66_);fill:none;stroke:#39373a;stroke-width:.25"/><defs><path id="SVGID_67_" d="M19.4 16.6h184.3v342.8H19.4z"/></defs><clipPath id="SVGID_68_"><use xlink:href="#SVGID_67_" style="overflow:visible"/></clipPath><path d="M178.1 157.2c0-.5.4-1 1-1s1 .4 1 1-.4 1-1 1-1-.4-1-1m2.3 0c0-.7-.6-1.3-1.3-1.3s-1.3.6-1.3 1.3c0 .7.6 1.3 1.3 1.3s1.3-.5 1.3-1.3" style="clip-path:url(#SVGID_68_);fill:#39373a"/><defs><path id="SVGID_69_" d="M19.4 16.6h184.3v342.8H19.4z"/></defs><clipPath id="SVGID_70_"><use xlink:href="#SVGID_69_" style="overflow:visible"/></clipPath><path d="M178.1 157.2c0-.5.4-1 1-1s1 .4 1 1-.4 1-1 1-1-.4-1-1zm2.3 0c0-.7-.6-1.3-1.3-1.3s-1.3.6-1.3 1.3c0 .7.6 1.3 1.3 1.3s1.3-.5 1.3-1.3z" style="clip-path:url(#SVGID_70_);fill:none;stroke:#39373a;stroke-width:.25"/><path d="m180.6 155.9 2.3-1.8.2.3-2.3 1.8-.2-.3z" class="st10"/><path d="m180.6 155.9 2.3-1.8.2.3-2.3 1.8-.2-.3z" class="st40"/><path d="m183.1 160-2.3-1.8-.2.3 2.4 1.8.1-.3z" class="st10"/><path d="m183.1 160-2.3-1.8-.2.3 2.4 1.8.1-.3z" class="st40"/><defs><path id="SVGID_71_" d="M19.4 16.6h184.3v342.8H19.4z"/></defs><clipPath id="SVGID_72_"><use xlink:href="#SVGID_71_" style="overflow:visible"/></clipPath><path d="M186.6 153.7c0-.8.6-1.4 1.4-1.4h1.9c.8 0 1.4.6 1.4 1.4v7.1c0 .8-.6 1.4-1.4 1.4H188c-.8 0-1.4-.6-1.4-1.4v-7.1zm5.2 7.1v-7.1c0-1-.8-1.8-1.8-1.8h-1.9c-1 0-1.8.8-1.8 1.8v7.1c0 1 .8 1.8 1.8 1.8h1.9c1-.1 1.8-.9 1.8-1.8" style="clip-path:url(#SVGID_72_);fill:#39373a"/><defs><path id="SVGID_73_" d="M19.4 16.6h184.3v342.8H19.4z"/></defs><clipPath id="SVGID_74_"><use xlink:href="#SVGID_73_" style="overflow:visible"/></clipPath><path d="M186.6 153.7c0-.8.6-1.4 1.4-1.4h1.9c.8 0 1.4.6 1.4 1.4v7.1c0 .8-.6 1.4-1.4 1.4H188c-.8 0-1.4-.6-1.4-1.4v-7.1zm5.2 7.1v-7.1c0-1-.8-1.8-1.8-1.8h-1.9c-1 0-1.8.8-1.8 1.8v7.1c0 1 .8 1.8 1.8 1.8h1.9c1-.1 1.8-.9 1.8-1.8z" style="clip-path:url(#SVGID_74_);fill:none;stroke:#39373a;stroke-width:.25"/><defs><path id="SVGID_75_" d="M19.4 16.6h184.3v342.8H19.4z"/></defs><clipPath id="SVGID_76_"><use xlink:href="#SVGID_75_" style="overflow:visible"/></clipPath><path d="M188.5 157.2c0-.3.3-.6.6-.6s.6.3.6.6-.3.6-.6.6c-.4 0-.6-.3-.6-.6m1.4 0c0-.5-.4-.9-.9-.9s-.9.4-.9.9.4.9.9.9.9-.4.9-.9" style="clip-path:url(#SVGID_76_);fill:#39373a"/><defs><path id="SVGID_77_" d="M19.4 16.6h184.3v342.8H19.4z"/></defs><clipPath id="SVGID_78_"><use xlink:href="#SVGID_77_" style="overflow:visible"/></clipPath><path d="M188.5 157.2c0-.3.3-.6.6-.6s.6.3.6.6-.3.6-.6.6c-.4 0-.6-.3-.6-.6zm1.4 0c0-.5-.4-.9-.9-.9s-.9.4-.9.9.4.9.9.9.9-.4.9-.9z" style="clip-path:url(#SVGID_78_);fill:none;stroke:#39373a;stroke-width:.25"/><defs><path id="SVGID_79_" d="M19.4 16.6h184.3v342.8H19.4z"/></defs><clipPath id="SVGID_80_"><use xlink:href="#SVGID_79_" style="overflow:visible"/></clipPath><path d="M80.3 279.6c0-1.8.2-2.4 1.7-2.4 1.7 0 1.8.6 1.9 3.8-.7.4-1.2.6-1.9.6-1.3-.1-1.7-.5-1.7-2m-3.1 9.5c1.7.4 3.3.4 4.1.4 4.7 0 6.4-1.1 6.4-7.8 0-6-1-7.5-5.7-7.5-4.3 0-5.5 1.6-5.5 5.4 0 2.7.9 4.6 4.2 4.6 1.3 0 2.2-.2 3-.9-.1 2.5-.6 3.3-2.6 3.3h-3.9v2.5zm-4.5-3.5c-1 0-1.3.3-1.3 1.4v.9c0 1 .3 1.4 1.3 1.4h.9c1 0 1.3-.3 1.3-1.4v-.9c0-1-.3-1.4-1.3-1.4h-.9zm-2.8-2.1h-1.8v-6.1h-3l-.6 2.3v3.8h-2.9c-.3 0-.6-.2-.4-.6l3.2-8.4h-3.8l-3.7 9.4c-.5 1.2.3 2.3 1.6 2.3h5.9v3.1h3.7v-3.1l1.7-.4.1-2.3zm-19.5 3.1c-1.7 0-1.9-.5-1.9-3.8.7-.4 1.2-.6 1.9-.6 1.4 0 1.7.4 1.7 2 0 1.7-.1 2.4-1.7 2.4m4.5-12c-1.5-.4-3-.4-3.8-.4-4.3 0-6.4 1-6.4 7.8 0 6 1.3 7.5 5.7 7.5 4.5 0 5.5-1.7 5.5-5.4 0-3.3-1-4.6-4.3-4.6-1.3 0-2.2.2-3 .9.1-2.8.6-3.3 2.5-3.3h3.6l.2-2.5z" style="clip-path:url(#SVGID_80_);fill:#39373a"/><defs><path id="SVGID_81_" d="M19.4 16.6h184.3v342.8H19.4z"/></defs><clipPath id="SVGID_82_"><use xlink:href="#SVGID_81_" style="overflow:visible"/></clipPath><circle cx="66.1" cy="257.8" r="13.1" style="clip-path:url(#SVGID_82_);fill:none;stroke:#39373a;stroke-width:.9"/><defs><path id="SVGID_83_" d="M19.4 16.6h184.3v342.8H19.4z"/></defs><clipPath id="SVGID_84_"><use xlink:href="#SVGID_83_" style="overflow:visible"/></clipPath><path d="m70.3 258.7 2.6 4.8h3.4l-2.8-4.7c-.2-.4-.7-.9-1-1 .3-.2.7-.5.9-1l2.7-4.4h-3.3l-2.6 4.4h-.8c.1-.5.1-.9.1-1.4v-3h-3v11.2h3v-3.8c0-.3-.1-.7-.1-1l.9-.1zm-13.4-4c1.5-.1 2.3-.1 3.5-.1.9 0 1.2.1 1.2.5 0 .6-.7 1.6-2 2.9l-2.5 2.6c-.3.4-.4.7-.4 1.2v1.6H65v-2.6h-3.2c-.5 0-1 0-1.6.1l2.8-2.7c1.5-1.5 1.8-2.3 1.8-3.5 0-2.2-1.6-2.7-4-2.7-1.2 0-2.4.1-4 .4l.1 2.3z" style="clip-path:url(#SVGID_84_);fill:#39373a"/><path d="M19.5 346.6h20.8v6.7H19.5v-6.7zm71.4 0h35.9v6.7H90.9v-6.7zm87.2 0h25.7v6.7h-25.7v-6.7z" class="st10"/><path d="M192.2 16.6h11.6V350h-11.6V16.6zM89.1 353h39.4v6.4H89.1V353zm87.2 0h27.4v6.4h-27.4V353zm-156.7-.3h22.7v6.7H19.5l.1-6.7zm-.2-197.6h5.8v34.6h-5.8v-34.6zm0 55.5h5.8V232h-5.8v-21.4z" class="st10"/><path d="M19.4 210.6h52v5.8h-52v-5.8zm74.2 0h16.9v5.8H93.6v-5.8zm13.7-158.8h14.6v6.4h-14.6v-6.4zm76.1 0h18.7v6.4h-18.7v-6.4zm-51 88.6H195v5.7h-62.6v-5.7zm-.1 70.2H195v5.7h-62.7v-5.7zm6.1-48.7h3.9v21.8h-3.9v-21.8z" class="st10"/><path d="M138.4 198.8h3.9v15.9h-3.9v-15.9zm.4-32.8h53.7v3.6h-53.6l-.1-3.6zM19.4 155.1H109v5.7H19.4v-5.7z" class="st10"/><path d="M106.1 16.6h5.8v165h-5.8v-165zm0 187h5.8v145.6h-5.8V203.6zm-86.7 17.7h5.8v138.1h-5.8V221.3z" class="st10"/><path d="M106.1 16.6h7.7v7h-7.7v-7zm84.5 0h9.7v7h-9.7v-7zM75.2 320.5h-.8v-2.7h-1.3l-.3 1v1.7h-1.3c-.2 0-.2-.1-.2-.3l1.4-3.7h-1.6l-1.6 4.1c-.2.5.1 1 .7 1h2.6v1.4h1.6v-1.4l.8-.2v-.9zm-7.2.9c-.4 0-.6.1-.6.6v.4c0 .5.1.6.6.6h.4c.4 0 .6-.1.6-.6v-.4c0-.5-.1-.6-.6-.6H68zm-4-1.2c.7 0 .9.2.9.8 0 .6-.2.8-.9.8s-.9-.2-.9-.8c0-.6.2-.8.9-.8m0-2.6c.7 0 .8.1.8.8 0 .6-.1.7-.8.7s-.8-.1-.8-.7.2-.8.8-.8m-1.4 2.1c-.9.1-1.2.9-1.2 1.7 0 1.3.5 1.8 2.5 1.7 2.1 0 2.5-.5 2.5-1.7 0-.9-.2-1.6-1.1-1.7.7-.1 1-.8 1-1.5 0-1.2-.4-1.7-2.4-1.7s-2.4.5-2.4 1.7c.1.7.4 1.4 1.1 1.5zm-2.3 3.3v-6.5h-1.8l-1.6.6.2 1.1 1.5-.3c-.1.3-.1.5-.1.8v4.3h1.8zm22.4-12.8c0-.2.1-.4.4-.4h1v.6c-.3.2-.6.3-.9.3-.3 0-.5-.1-.5-.4v-.1zm-1.3-1.9c.8 0 1.5-.1 2-.1s.6.1.7.5v.1h-1.5c-.9 0-1.5.5-1.5 1.2v.5c0 .9.7 1.3 1.6 1.3.8 0 1.3-.4 1.7-.8l.2.7H86v-3c0-1.4-.7-1.8-1.9-1.8-.7 0-1.8.1-2.6.2l-.1 1.2zm-.8.1v-1.3H76v1.3h1.5v3.4h1.7v-3.4h1.4zm-8.3 1.8c0-.2.1-.4.4-.4h1v.6c-.3.2-.6.3-.9.3-.3 0-.5-.1-.5-.4v-.1zm-1.2-1.9c.8 0 1.5-.1 2-.1s.6.1.7.5v.1h-1.6c-.9 0-1.5.5-1.5 1.2v.5c0 .9.7 1.3 1.6 1.3.8 0 1.3-.4 1.7-.8l.2.7h1.4v-3c0-1.4-.7-1.8-1.9-1.8-.7 0-1.9.1-2.6.2v1.2zm-1.2-1.2h-1.7v1.6h-1.4v-1.6h-1.7v4.6h1.7v-1.9h1.4v1.9h1.7v-4.6zm-7.9 0c-.4 0-.6.2-.6.5l-.4 1.7c0 .2-.1.5-.1.7h-.1c0-.2 0-.5-.1-.7l-.4-1.7c-.1-.4-.3-.5-.6-.5h-1.4c-.4 0-.6.2-.6.6l-.1 4.1h1.5l.1-3.4h.1l.5 2.3c.1.4.3.5.7.5h.8c.4 0 .6-.2.6-.5l.5-2.3h.1l.1 3.4h1.5l-.1-4.1c0-.4-.2-.6-.6-.6H62zm-7.7 1.1c.6 0 .7.2.7 1.3 0 1-.2 1.3-.7 1.3-.6 0-.7-.2-.7-1.3-.1-1.1.1-1.3.7-1.3m0-1.2c-1.8 0-2.5.7-2.5 2.5s.7 2.4 2.5 2.4 2.5-.6 2.5-2.4c0-1.8-.7-2.5-2.5-2.5m-4.7 2.3c1.1-.2 1-.3 1.6-2.2h-1.7c-.4 1.5-.4 1.7-1.1 1.7h-.2c0-.2.1-.4.1-.6v-1.1h-1.7v4.6h1.7v-1.5c0-.1 0-.2-.1-.4h.4c.5 0 .5.1 1 1.9h1.8c-.7-2.1-.7-2.2-1.8-2.4zm30-11.3H79c-.4 0-.5-.1-.5-.6 0-.4.1-.4.5-.4h.7v1h-.1zm-1.8.6c-.3 0-.8.1-.9.5l-.4 1.5h1.7l.3-1.3c0-.2.1-.3.4-.3h.6v1.5h1.7v-4.7c-.6-.1-1.1-.1-2.3-.1-1.7 0-2.1.3-2.1 1.5 0 .6.2 1.2 1 1.4zm-4.9.3c0-.2.1-.4.4-.4h1v.6c-.3.2-.6.3-.9.3-.3 0-.5-.1-.5-.4v-.1zm-1.3-1.8c.8 0 1.5-.1 2-.1s.6.1.7.5v.1h-1.6c-.9 0-1.5.5-1.5 1.2v.5c0 .9.7 1.3 1.6 1.3.8 0 1.3-.4 1.7-.8l.2.7h1.4v-3c0-1.4-.7-1.8-1.9-1.8-.7 0-1.8.1-2.6.2v1.2zm-1.2-1.2h-2.8c-.8 0-1.2.4-1.3 1.2-.1.9-.2 1.5-.2 1.8-.1.4-.4.4-.8.4l.2 1.3c1 .2 1.9-.1 2.1-1.2.1-.5.2-1.2.3-2 0-.3.2-.4.4-.4h.4v3.5h1.7v-4.6zm-5.7 4.7v-4.7h-1.5l-1.5 2.2c-.1.2-.3.4-.4.7 0-.3.1-.5.1-.7v-2.2h-1.5v4.6h1.5l1.5-2.1c.1-.2.3-.5.4-.8 0 .3-.1.5-.1.8v2.1l1.5.1zm-7.6-3.5c1.3-.2 1.3-.8 2-3.1h-1.8c-.6 1.9-.7 2.5-1.3 2.5h-.3c0-.3.1-.5.1-.8V294h-1.7v1.7c0 .3 0 .5.1.8h-.3c-.6 0-.7-.6-1.3-2.5h-1.8c.7 2.3.7 2.9 2 3.1v.1c-1.3.2-1.4.7-2.2 3.3h1.8c.7-2.3.8-2.8 1.4-2.8h.3c0 .2-.1.4-.1.6v2.2h1.7v-2.2c0-.2 0-.4-.1-.6h.4c.7 0 .7.4 1.4 2.8h1.8c-.7-2.6-.7-3.1-2.1-3.4zm99.6-4.8h2c.5 0 .7 0 .7.3 0 .4-.4 1-1.1 1.7l-1.4 1.5c-.2.2-.2.4-.2.7v.9h4.8v-1.5h-1.9c-.3 0-.6 0-.9.1l1.6-1.6c.9-.9 1-1.3 1-2 0-1.3-.9-1.6-2.3-1.6-.7 0-1.4 0-2.3.2v1.3zm-1.9 3.5c-.4 0-.6.1-.6.6v.4c0 .5.1.6.6.6h.4c.4 0 .6-.1.6-.6v-.4c0-.5-.1-.6-.6-.6h-.4zm-3.9-1.2c.7 0 .9.2.9.8 0 .6-.1.8-.9.8-.7 0-.9-.2-.9-.8 0-.6.1-.8.9-.8m0-2.6c.6 0 .8.1.8.8 0 .6-.1.7-.8.7s-.8-.1-.8-.7c0-.7.1-.8.8-.8m-1.4 2.1c-.9.1-1.1.9-1.1 1.7 0 1.3.5 1.8 2.5 1.7 2.1 0 2.5-.5 2.5-1.7 0-.9-.2-1.6-1.1-1.7.7-.1 1-.8 1-1.5 0-1.2-.4-1.7-2.4-1.7-1.9 0-2.4.5-2.4 1.7 0 .6.3 1.3 1 1.5zm-2.3 3.3v-6.5h-1.8l-1.6.6.2 1.1 1.5-.3c-.1.3-.1.5-.1.8v4.3h1.8zm22.1-12.9c0-.2.1-.4.4-.4h1v.6c-.3.2-.6.3-.9.3-.3 0-.5-.1-.5-.4v-.1zm-1.3-1.8c.8 0 1.5-.1 2-.1s.6.1.6.5v.1H169c-.9 0-1.5.5-1.5 1.2v.5c0 .9.7 1.3 1.6 1.3.8 0 1.3-.4 1.7-.8l.2.7h1.4v-3c0-1.4-.7-1.8-1.9-1.8-.7 0-1.9.1-2.6.2l.1 1.2zm-.8.1v-1.3h-4.6v1.3h1.5v3.4h1.7v-3.4h1.4zm-8.3 1.7c0-.2.1-.4.4-.4h1v.6c-.3.2-.6.3-.9.3-.3 0-.5-.1-.5-.4v-.1zm-1.3-1.8c.8 0 1.5-.1 2-.1s.6.1.6.5v.1h-1.6c-.9 0-1.5.5-1.5 1.2v.5c0 .9.7 1.3 1.6 1.3.8 0 1.3-.4 1.7-.8l.2.7h1.4v-3c0-1.4-.7-1.8-1.9-1.8-.7 0-1.9.1-2.6.2l.1 1.2zm-1.1-1.2h-1.7v1.6h-1.4v-1.6h-1.7v4.6h1.7v-1.9h1.4v1.9h1.7v-4.6zm-7.9 0c-.4 0-.6.2-.6.5l-.4 1.7c-.1.2-.1.5-.1.7h-.1c0-.2 0-.5-.1-.7l-.4-1.7c-.1-.4-.3-.5-.6-.5h-1.4c-.4 0-.6.2-.6.6l-.1 4.1h1.5l.1-3.4h.1l.6 2.3c.1.4.3.5.6.5h.8c.4 0 .6-.2.6-.5l.6-2.3h.1l.1 3.4h1.5l-.1-4.1c0-.4-.2-.6-.6-.6h-1.5zm-7.7 1.1c.6 0 .7.2.7 1.3 0 1-.1 1.3-.7 1.3s-.7-.2-.7-1.3c-.1-1.1.1-1.3.7-1.3m0-1.2c-1.8 0-2.5.7-2.5 2.5s.7 2.4 2.5 2.4 2.5-.6 2.5-2.4c0-1.9-.7-2.5-2.5-2.5m-4.7 2.3c1.1-.2 1-.3 1.6-2.2h-1.7c-.4 1.5-.4 1.7-1.1 1.7h-.2c0-.2.1-.4.1-.6v-1.1h-1.7v4.6h1.7v-1.5c0-.1 0-.2-.1-.4h.4c.5 0 .5.1 1 1.8h1.8c-.7-2.1-.7-2.1-1.8-2.3zm30-11.3h-.7c-.4 0-.5-.1-.5-.6 0-.4.1-.4.5-.4h.7v1zm-1.8.5c-.3 0-.8.1-.9.5l-.4 1.5h1.7l.3-1.3c0-.2.1-.3.4-.3h.6v1.5h1.6v-4.7c-.6-.1-1.1-.1-2.4-.1-1.7 0-2.1.3-2.1 1.5.2.7.4 1.3 1.2 1.4zm-5 .4c0-.2.1-.4.4-.4h1v.6c-.3.2-.6.3-.9.3-.3 0-.5-.1-.5-.4v-.1zm-1.2-1.8c.8 0 1.5-.1 2-.1s.6.1.6.5v.1h-1.6c-.9 0-1.5.5-1.5 1.2v.5c0 .9.7 1.3 1.6 1.3.8 0 1.3-.4 1.7-.8l.2.7h1.4v-3c0-1.4-.7-1.8-1.9-1.8-.7 0-1.9.1-2.6.2l.1 1.2zm-1.2-1.2h-2.8c-.8 0-1.2.4-1.3 1.2-.1.9-.1 1.5-.2 1.8-.1.4-.4.4-.8.4l.2 1.3c1 .2 1.9-.1 2.1-1.2.1-.5.2-1.2.3-2 0-.3.2-.4.4-.4h.4v3.5h1.7v-4.6zm-5.7 4.6v-4.7h-1.5l-1.5 2.2c-.1.2-.3.4-.4.7 0-.3.1-.5.1-.7v-2.2h-1.5v4.6h1.5l1.4-2.1c.1-.2.3-.5.4-.8 0 .3-.1.5-.1.8v2.1l1.6.1zm-7.6-3.4c1.3-.2 1.3-.8 2-3.1h-1.8c-.6 1.9-.7 2.5-1.3 2.5h-.3c.1-.3.1-.5.1-.8v-1.7h-1.7v1.7c0 .3 0 .5.1.8h-.3c-.6 0-.7-.6-1.3-2.5h-1.8c.7 2.3.7 2.9 2 3.1v.1c-1.3.2-1.4.7-2.1 3.3h1.8c.7-2.3.8-2.8 1.4-2.8h.3c-.1.2-.1.4-.1.6v2.2h1.7v-2.2c0-.2 0-.4-.1-.6h.3c.7 0 .7.4 1.4 2.8h1.9c-.8-2.6-.9-3.1-2.2-3.4zM71 191.6c.8 0 1 .3 1 2.3s-.2 2.3-1 2.3-1-.3-1-2.3c0-1.9.3-2.3 1-2.3m0-1.4c-2.2 0-2.9.9-2.9 3.7s.8 3.7 2.9 3.7c2.2 0 2.9-.9 2.9-3.7.1-2.8-.7-3.7-2.9-3.7m-4.9 5.5c-.5 0-.7.2-.7.6v.5c0 .5.2.7.7.7h.4c.5 0 .7-.2.7-.7v-.5c0-.5-.2-.6-.7-.6h-.4zm-6-5.4.1 1.6h3.1c-.2.3-.3.5-.3.8l-1.7 4.9h1.9l2.2-6.2c.2-.5-.2-1-.7-1-.1-.1-4.6-.1-4.6-.1zm31.2-8.2h-.7c-.5 0-.6-.1-.6-.6 0-.4.1-.5.6-.5h.7v1.1zm-2 .7c-.3 0-.8.1-1 .6l-.4 1.6h1.9l.3-1.4c0-.2.2-.3.5-.3h.7v1.7h1.8v-5.2c-.6-.1-1.2-.1-2.6-.1-1.9 0-2.4.4-2.4 1.7.1.6.3 1.2 1.2 1.4zm-5.5.4c0-.2.1-.4.4-.4h1.1v.6c-.3.2-.7.4-1 .4-.3 0-.5-.1-.5-.4v-.2zm-1.4-2c.9-.1 1.7-.1 2.2-.1.5 0 .7.2.7.6v.1h-1.7c-1 0-1.7.5-1.7 1.3v.5c0 1 .8 1.5 1.7 1.5.9 0 1.5-.5 1.8-.9l.2.8h1.5v-3.3c0-1.5-.8-2-2.2-2-.8 0-2.1.1-2.8.3l.3 1.2zm-2.9 1.1c1.2-.2 1.2-.3 1.8-2.4h-1.9c-.5 1.7-.6 1.9-1.1 1.9H78c0-.2.1-.4.1-.6V180h-1.6v1.2c0 .2 0 .4.1.6h-.3c-.5 0-.6-.2-1.1-1.9h-1.9c.7 2.1.6 2.3 1.8 2.4v.1c-1.3.2-1.3.3-2 2.7H75c.7-2 .7-2.1 1.1-2.1h.4c0 .2-.1.3-.1.4v1.6h1.7v-1.6c0-.1 0-.3-.1-.4h.4c.5 0 .5.1 1.2 2.1h1.9c-.7-2.5-.8-2.6-2-2.8zm-9.7-1.3c.6 0 .8.3.8 1.4 0 1.1-.2 1.4-.8 1.4-.7 0-.8-.3-.8-1.4 0-1.1.2-1.4.8-1.4m0-1.3c-2 0-2.8.7-2.8 2.7s.8 2.7 2.8 2.7c2 0 2.8-.7 2.8-2.7s-.7-2.7-2.8-2.7m-4.9 5.3h1.9l-1.5-2.6 1.4-2.5h-1.9l-1 1.9-1-1.9h-1.9l1.4 2.5-1.5 2.6h1.9l1.1-2.1 1.1 2.1zm-4.7 0v-5.2h-1.6l-1.7 2.5c-.2.2-.3.5-.4.8 0-.3.1-.5.1-.8v-2.4h-1.7v5.2h1.6l1.6-2.4c.2-.2.3-.6.4-.9 0 .3-.1.6-.1.9v2.3h1.8zm-9.9-3.6c.3-.2.6-.3 1-.3.5 0 .7.2.7 1.4s-.2 1.4-.7 1.4c-.4 0-.6-.1-.9-.2v-2.3zm-.3-1.6h-1.5v7.1h1.9v-2.2c.5.3 1 .5 1.7.5 1.3 0 2-.6 2-2.7 0-1.8-.5-2.8-1.8-2.8-.8 0-1.6.4-2 .9l-.3-.8zm-2.8-2h-6v7.2h1.9v-5.9h2.1v5.9h2v-7.2zm110.3-26 .1 1.6h3.1c-.2.3-.3.5-.4.8l-1.7 4.9h1.9l2.2-6.2c.2-.5-.2-1-.7-1h-4.5zm-1.4 5.4c-.5 0-.7.2-.7.6v.5c0 .5.2.6.7.6h.4c.5 0 .6-.2.6-.6v-.5c0-.5-.2-.6-.6-.6h-.4zm-1.9 1.7v-7.2h-1.9l-1.8.7.2 1.2 1.7-.4c-.1.3-.1.6-.1.9v4.8h1.9zm9.9 27.4.1-1.4h-4.5l-.2 3.2c0 .3.2.6.6.6l1.1.1c1 .1 1.3.2 1.3.9 0 .6-.3.8-1.2.8-.5 0-1.2 0-1.9-.1l-.2 1.5c.9.1 1.8.2 2.6.2 2 0 2.6-1.1 2.6-2.3 0-1.2-.4-2.2-2.1-2.4l-1.2-.2.1-1 2.9.1zm-6.7 4c-.5 0-.6.2-.6.6v.5c0 .5.2.6.6.6h.4c.5 0 .7-.2.7-.6v-.4c0-.5-.2-.6-.7-.6h-.4zm-6.5-4h2c.7 0 .9.1.9.7 0 .5-.1.8-.8.8h-1.4v1.3h1.4c.8 0 .9.2.9.8 0 .7-.3.9-1.2.9-.6 0-1.1 0-2-.1l-.1 1.4c.8.1 1.7.2 2.6.2 1.9 0 2.6-.6 2.6-2.1 0-1.1-.3-1.6-1.3-1.8.9-.1 1.1-.8 1.1-1.8 0-1.3-.7-1.7-2.4-1.7-.8 0-1.6.1-2.4.2l.1 1.2zM129 170.6c.8 0 1 .3 1 2.3s-.2 2.3-1 2.3-1-.3-1-2.3.3-2.3 1-2.3m0-1.5c-2.2 0-2.9.9-2.9 3.7s.8 3.7 2.9 3.7c2.2 0 2.9-.9 2.9-3.7s-.7-3.7-2.9-3.7m-4.8 5.6c-.5 0-.7.2-.7.6v.5c0 .5.2.6.7.6h.4c.5 0 .7-.2.7-.6v-.5c0-.5-.2-.6-.7-.6h-.4zm-6.5-4h2c.7 0 .9.1.9.7 0 .5-.1.8-.8.8h-1.4v1.3h1.4c.8 0 .9.2.9.8 0 .7-.3.9-1.2.9-.6 0-1.1 0-2-.1l-.1 1.4c.8.1 1.7.2 2.6.2 1.9 0 2.6-.6 2.6-2.1 0-1.1-.3-1.6-1.3-1.8.9-.1 1.1-.8 1.1-1.8 0-1.3-.7-1.7-2.4-1.7-.8 0-1.6.1-2.4.2l.1 1.2zm43.7-69.6.1-1.4H157l-.2 3.2c0 .3.2.6.6.7l1.1.1c1 .1 1.3.2 1.3.9 0 .6-.3.8-1.2.8-.5 0-1.2 0-1.9-.1l-.2 1.5c.9.1 1.8.2 2.6.2 2 0 2.6-1.1 2.6-2.3 0-1.2-.4-2.2-2.1-2.4l-1.2-.2.1-1h2.9zm-6.8 4c-.5 0-.6.2-.6.7v.5c0 .5.2.7.6.7h.4c.5 0 .7-.2.7-.7v-.5c0-.5-.2-.7-.7-.7h-.4zm-1.9 1.8v-7.2h-1.9l-1.8.7.2 1.2 1.7-.4c-.1.3-.1.6-.1.8v4.8l1.9.1zm-4.7 0v-7.2h-1.9l-1.8.7.2 1.2 1.7-.4c-.1.3-.1.6-.1.8v4.8l1.9.1zm18.4-15.4h-.7c-.5 0-.6-.1-.6-.7 0-.4.1-.5.6-.5h.7v1.2zm-2 .7c-.3 0-.9.1-1 .6l-.4 1.6h1.9l.3-1.4c0-.2.2-.3.5-.3h.7v1.7h1.8v-5.2c-.6-.1-1.2-.1-2.6-.1-1.9 0-2.4.4-2.4 1.7 0 .6.3 1.2 1.2 1.4zm-2.2-3h-1.9V91h-1.6v-1.8h-1.9v5.2h1.9v-2.1h1.6v2.1h1.9v-5.2zm-7.8 5.2h1.9l-1.5-2.6 1.4-2.5h-1.9l-1 1.9-1-1.9h-1.9l1.4 2.5-1.5 2.6h1.9l1.1-2.1 1.1 2.1zm-4.2-5.2h-2l-.8 3.1c-.1.2-.1.6-.2.9h-.1c0-.3-.1-.6-.1-.9l-.8-3.1h-2l1.6 4.7c.1.3.3.4.6.4h.3c-.1.3-.3.5-.5.6-.3.2-.8.2-1.4.2l-.2 1.2c.7.1 1.5.2 2.1-.1.8-.3 1.4-.8 1.8-2l1.7-5zm-8.5 1.4c1.4-.2 1.5-.8 2.3-3.4h-2c-.6 2.2-.7 2.8-1.7 2.8h-.3c.1-.3.1-.6.1-.9v-1.9h-1.9v7.2h1.9V92c0-.2 0-.4-.1-.7h.4c1 0 1.1.5 1.8 3.1h2c-.9-3-1-3.5-2.5-3.8z" class="st10"/><path d="M19.4 16.6h184.3v342.8H19.4V16.6z" style="fill:none"/><path d="M121.5 56h20.1v1.9h-20.1zm20.1-1.8h20.2v1.9h-20.2zm20.4-2.1h21.4V54H162z" class="st2"/></svg>