<svg xmlns="http://www.w3.org/2000/svg" xmlns:xlink="http://www.w3.org/1999/xlink" xml:space="preserve" id="Слой_1" x="0" y="0" style="enable-background:new 0 0 348 257" version="1.1" viewBox="0 0 348 257"><style>.st1{fill:#39373a}.st14,.st19,.st2,.st9{fill:none;stroke:#39373a}.st9{stroke-width:.6}.st14{stroke-width:.25}.st19{clip-path:url(#SVGID_24_);stroke-width:.6}.st20,.st21{clip-path:url(#SVGID_26_);fill:#39373a}.st21{fill:none;stroke:#39373a;stroke-width:.25}.st22,.st23{clip-path:url(#SVGID_28_);fill:#39373a}.st23{fill:none;stroke:#39373a;stroke-width:.25}</style><switch><g><path d="M25.74 24.42h297.5v152.75H25.74z" style="fill:#b7e0e6"/><path d="m223.92 189.41 28.98.01v-2.35h-2.95v-9.4h-26.03z" class="st1"/><path d="m223.92 189.41 28.98.01v-2.35h-2.95v-9.4h-26.03z" class="st2"/><path d="m116.61 189.41 28.98.01v-2.35h-2.95v-9.4h-26.03z" class="st1"/><path d="m116.61 189.41 28.98.01v-2.35h-2.95v-9.4h-26.03z" class="st2"/><path d="m21.43 189.41 23.53.01v-2.35h-2.95v-9.4H21.43z" class="st1"/><defs><path id="SVGID_1_" d="M19.96 19.16h306.67v217.68H19.96z"/></defs><clipPath id="SVGID_2_"><use xlink:href="#SVGID_1_" style="overflow:visible"/></clipPath><path d="m21.43 189.41 23.53.01v-2.35h-2.95v-9.4H21.43z" style="clip-path:url(#SVGID_2_);fill:none;stroke:#39373a"/><path d="m323.24 189.41-28.98.01v-2.35h2.95v-9.4h26.03z" class="st1"/><path d="m323.24 189.41-28.98.01v-2.35h2.95v-9.4h26.03z" class="st2"/><path d="m229.35 189.41-28.98.01v-2.35h2.95v-9.4h26.03z" class="st1"/><path d="m229.35 189.41-28.98.01v-2.35h2.95v-9.4h26.03z" class="st2"/><path d="m128.72 189.41-28.98.01v-2.35h2.95v-9.4h26.03z" class="st1"/><path d="m128.72 189.41-28.98.01v-2.35h2.95v-9.4h26.03z" class="st2"/><path d="M321.36 20.77h4.77V236.2h-4.77z" class="st1"/><defs><path id="SVGID_3_" d="M19.96 19.16h306.67v217.68H19.96z"/></defs><clipPath id="SVGID_4_"><use xlink:href="#SVGID_3_" style="overflow:visible"/></clipPath><path d="M321.36 20.77h4.77V236.2h-4.77z" style="clip-path:url(#SVGID_4_);fill:none;stroke:#39373a"/><path d="M221.04 66.26h4.77v121.69h-4.77z" class="st1"/><path d="M221.04 66.26h4.77v121.69h-4.77z" class="st2"/><path d="M221.04 209.14h4.77v27.2h-4.77z" class="st1"/><defs><path id="SVGID_5_" d="M19.96 19.16h306.67v217.68H19.96z"/></defs><clipPath id="SVGID_6_"><use xlink:href="#SVGID_5_" style="overflow:visible"/></clipPath><path d="M221.04 209.14h4.77v27.2h-4.77z" style="clip-path:url(#SVGID_6_);fill:none;stroke:#39373a"/><path d="M122.14 73.07h74.26v4.77h-74.26z" class="st1"/><path d="M122.14 73.07h74.26v4.77h-74.26z" class="st2"/><path d="M221.04 21.04h4.77v19.9h-4.77z" class="st1"/><path d="M221.04 21.04h4.77v19.9h-4.77z" class="st2"/><path d="M120.28 64.85h4.77v158.59h-4.77z" class="st1"/><path d="M120.28 64.85h4.77v158.59h-4.77z" class="st2"/><path d="M120.28 21.77h4.77v19.21h-4.77z" class="st1"/><path d="M120.28 21.77h4.77v19.21h-4.77z" class="st2"/><path d="M225.04 100.6h15.72v2.23h-15.72z" class="st1"/><path d="M225.04 100.6h15.72v2.23h-15.72z" class="st2"/><path d="M263.16 100.6h58.53v2.23h-58.53z" class="st1"/><path d="M263.16 100.6h58.53v2.23h-58.53z" class="st2"/><path d="M271.52 73.46h51.72v2.23h-51.72z" class="st1"/><path d="M271.52 73.46h51.72v2.23h-51.72z" class="st2"/><path d="M270.99 57.25h2.23V82.6h-2.23z" class="st1"/><path d="M270.99 57.25h2.23V82.6h-2.23z" class="st2"/><path d="M270.99 23.45h2.23v15.79h-2.23z" class="st1"/><path d="M270.99 23.45h2.23v15.79h-2.23z" class="st2"/><path d="M22.64 19.66h214.57v4.26H22.64z" class="st1"/><defs><path id="SVGID_7_" d="M19.96 19.16h306.67v217.68H19.96z"/></defs><clipPath id="SVGID_8_"><use xlink:href="#SVGID_7_" style="overflow:visible"/></clipPath><path d="M22.64 19.66h214.57v4.26H22.64z" style="clip-path:url(#SVGID_8_);fill:none;stroke:#39373a"/><path d="M265.75 19.66h60.38v4.26h-60.38z" class="st1"/><defs><path id="SVGID_9_" d="M19.96 19.16h306.67v217.68H19.96z"/></defs><clipPath id="SVGID_10_"><use xlink:href="#SVGID_9_" style="overflow:visible"/></clipPath><path d="M265.75 19.66h60.38v4.26h-60.38z" style="clip-path:url(#SVGID_10_);fill:none;stroke:#39373a"/><path d="M20.46 19.66h4.77v169.76h-4.77z" class="st1"/><defs><path id="SVGID_11_" d="M19.96 19.16h306.67v217.68H19.96z"/></defs><clipPath id="SVGID_12_"><use xlink:href="#SVGID_11_" style="overflow:visible"/></clipPath><path d="M20.46 19.66h4.77v169.76h-4.77z" style="clip-path:url(#SVGID_12_);fill:none;stroke:#39373a"/><path d="m123.533 220.25.394-2.712 99.43 14.419-.394 2.711zM224 231.95h100.47v2.74H224zM109.039 61.958l14.352-24.123.8.475-14.353 24.124z" class="st9"/><defs><path id="SVGID_13_" d="M19.96 19.16h306.67v217.68H19.96z"/></defs><clipPath id="SVGID_14_"><use xlink:href="#SVGID_13_" style="overflow:visible"/></clipPath><path d="M109.96 62.54s1.5 1.11 4.99 1.64c3.49.54 5.36.37 5.36.37" style="clip-path:url(#SVGID_14_);fill:none;stroke:#39373a;stroke-width:.4"/><path d="m198.755 87.269 24.123-14.352.476.799-24.124 14.352z" class="st9"/><defs><path id="SVGID_15_" d="M19.96 19.16h306.67v217.68H19.96z"/></defs><clipPath id="SVGID_16_"><use xlink:href="#SVGID_15_" style="overflow:visible"/></clipPath><path d="M198.65 87.15s-1.11-1.5-1.64-4.99c-.54-3.49-.37-5.36-.37-5.36" style="clip-path:url(#SVGID_16_);fill:none;stroke:#39373a;stroke-width:.4"/><path d="M38.03 186.87h75.9v2.74h-75.9z" class="st9"/><path d="M38.54 177.47h72.5v9.42h-72.5zm93.18 9.4h52.77v2.74h-52.77z" class="st9"/><path d="M132.07 177.47h50.39v9.42h-50.39zm53.389-1.147.475-.8 18.804 11.188-.475.799z" class="st9"/><path d="M137.24 186.87h47.38v2.74h-47.38z" class="st9"/><path d="M138.31 177.47h43.78v9.42h-43.78z" class="st9"/><defs><path id="SVGID_17_" d="M19.96 19.16h306.67v217.68H19.96z"/></defs><clipPath id="SVGID_18_"><use xlink:href="#SVGID_17_" style="overflow:visible"/></clipPath><path d="M185.36 176.45s-1.11 1.5-1.64 4.99c-.54 3.49-.37 5.36-.37 5.36" style="clip-path:url(#SVGID_18_);fill:none;stroke:#39373a;stroke-width:.4"/><path d="M225.42 186.87h52.77v2.74h-52.77z" class="st9"/><path d="M225.78 177.47h50.39v9.42h-50.39zm53.381-1.14.476-.8 18.804 11.187-.476.8z" class="st9"/><path d="M230.95 186.87h47.38v2.74h-47.38z" class="st9"/><path d="M232.01 177.47h43.78v9.42h-43.78z" class="st9"/><defs><path id="SVGID_19_" d="M19.96 19.16h306.67v217.68H19.96z"/></defs><clipPath id="SVGID_20_"><use xlink:href="#SVGID_19_" style="overflow:visible"/></clipPath><path d="M279.06 176.45s-1.11 1.5-1.64 4.99c-.54 3.49-.37 5.36-.37 5.36" style="clip-path:url(#SVGID_20_);fill:none;stroke:#39373a;stroke-width:.4"/><path d="M225.9 76.71h6.34v15.93h-6.34zm0 17.7h6.34v4.08h-6.34zm7.36-19.18v24.44m.3-24.14h-7.96m7.96 24.27h-7.96m88.69-18.12h6.88v13.59h-6.88zm0-3.89h6.88v2.61h-6.88zm0 18.76h6.88v2.61h-6.88zm-1.4-20.06h8.58m-8.28 24.27V76.33m-.3 24.13h8.58" class="st9"/><path d="M320.81 103.81h-16.24v16.25h16.24v-16.25zm.35 16.61H304.2v-16.96h16.96v16.96z" class="st1"/><path d="M320.81 103.81h-16.24v16.25h16.24v-16.25zm.35 16.61H304.2v-16.96h16.96v16.96z" class="st14"/><defs><path id="SVGID_21_" d="M19.96 19.16h306.67v217.68H19.96z"/></defs><clipPath id="SVGID_22_"><use xlink:href="#SVGID_21_" style="overflow:visible"/></clipPath><path d="M306.04 117.62c0 .4.33.73.73.73h8.54c.4 0 .73-.33.73-.73v-11.38c0-.4-.33-.73-.73-.73h-8.54c-.4 0-.73.33-.73.73v11.38zm10.35-11.37v11.38c0 .6-.49 1.09-1.09 1.09h-8.54c-.6 0-1.09-.49-1.09-1.09v-11.38c0-.6.49-1.09 1.09-1.09h8.54c.61 0 1.09.49 1.09 1.09" style="clip-path:url(#SVGID_22_);fill:#39373a"/><path d="M306.04 117.62c0 .4.33.73.73.73h8.54c.4 0 .73-.33.73-.73v-11.38c0-.4-.33-.73-.73-.73h-8.54c-.4 0-.73.33-.73.73v11.38zm10.35-11.37v11.38c0 .6-.49 1.09-1.09 1.09h-8.54c-.6 0-1.09-.49-1.09-1.09v-11.38c0-.6.49-1.09 1.09-1.09h8.54c.61 0 1.09.49 1.09 1.09z" style="clip-path:url(#SVGID_22_);fill:none;stroke:#39373a;stroke-width:.25"/><path d="M314.77 106.78h-7.47v10.31h7.47v-10.31zm.36 10.67h-8.19v-11.02h8.19v11.02z" class="st1"/><path d="M314.77 106.78h-7.47v10.31h7.47v-10.31zm.36 10.67h-8.19v-11.02h8.19v11.02z" class="st14"/><defs><path id="SVGID_23_" d="M19.96 19.16h306.67v217.68H19.96z"/></defs><clipPath id="SVGID_24_"><use xlink:href="#SVGID_23_" style="overflow:visible"/></clipPath><path d="M309.59 111.94a.939.939 0 1 0 1.88 0c0-.52-.42-.94-.94-.94a.933.933 0 0 0-.94.94m2.24 0c0 .72-.58 1.3-1.3 1.3-.72 0-1.3-.58-1.3-1.3 0-.72.58-1.3 1.3-1.3.72 0 1.3.58 1.3 1.3" style="clip-path:url(#SVGID_24_);fill:#39373a"/><path d="M309.59 111.94a.939.939 0 1 0 1.88 0c0-.52-.42-.94-.94-.94a.933.933 0 0 0-.94.94zm2.24 0c0 .72-.58 1.3-1.3 1.3-.72 0-1.3-.58-1.3-1.3 0-.72.58-1.3 1.3-1.3.72 0 1.3.58 1.3 1.3z" style="clip-path:url(#SVGID_24_);fill:none;stroke:#39373a;stroke-width:.25"/><path d="M314.89 26.08s5.67 0 5.67 5.67v33.86s0 5.67-5.67 5.67h-7.6s-5.67 0-5.67-5.67V31.75s0-5.67 5.67-5.67h7.6z" class="st19"/><path d="M313.12 29.22s5.67 0 5.67 5.67v27.57s0 5.67-5.67 5.67h-4.06s-5.67 0-5.67-5.67V34.89s0-5.67 5.67-5.67h4.06z" class="st19"/><path d="M314.25 33.02s2.83 0 2.83 2.84v27.71s0 2.83-2.83 2.83h-6.32s-2.83 0-2.83-2.83V35.85s0-2.84 2.83-2.84h6.32z" class="st19"/><path d="M311.09 63.02c-.47 0-.84-.38-.84-.84 0-.46.38-.84.84-.84.46 0 .84.38.84.84 0 .46-.38.84-.84.84z" class="st19"/><path d="M300.55 24.42v48.76" class="st9"/><defs><path id="SVGID_25_" d="M19.96 19.16h306.67v217.68H19.96z"/></defs><clipPath id="SVGID_26_"><use xlink:href="#SVGID_25_" style="overflow:visible"/></clipPath><path d="M293.83 60.53c2.99 0 5.42 2.43 5.42 5.42v5.75c0 .45-.37.82-.82.82h-12.26c-.45 0-.82-.37-.82-.82v-5.75c0-2.99 2.43-5.42 5.42-5.42h3.06zm-7.66 12.31h12.26c.62 0 1.13-.51 1.13-1.13v-5.75c0-3.16-2.57-5.73-5.73-5.73h-3.06c-3.16 0-5.73 2.57-5.73 5.73v5.75c0 .62.51 1.13 1.13 1.13" class="st20"/><path d="M293.83 60.53c2.99 0 5.42 2.43 5.42 5.42v5.75c0 .45-.37.82-.82.82h-12.26c-.45 0-.82-.37-.82-.82v-5.75c0-2.99 2.43-5.42 5.42-5.42h3.06zm-7.66 12.31h12.26c.62 0 1.13-.51 1.13-1.13v-5.75c0-3.16-2.57-5.73-5.73-5.73h-3.06c-3.16 0-5.73 2.57-5.73 5.73v5.75c0 .62.51 1.13 1.13 1.13z" class="st21"/><path d="M293.83 61.89c2.24 0 4.06 1.82 4.06 4.06v3.35c0 .39-.32.71-.71.71h-9.77c-.39 0-.71-.32-.71-.71v-3.35c0-2.24 1.82-4.06 4.06-4.06h3.07zm-6.41 8.44h9.77c.56 0 1.01-.45 1.01-1.01v-3.35c0-2.41-1.96-4.37-4.37-4.37h-3.06c-2.41 0-4.37 1.96-4.37 4.37v3.35c0 .55.46 1.01 1.02 1.01" class="st20"/><path d="M293.83 61.89c2.24 0 4.06 1.82 4.06 4.06v3.35c0 .39-.32.71-.71.71h-9.77c-.39 0-.71-.32-.71-.71v-3.35c0-2.24 1.82-4.06 4.06-4.06h3.07zm-6.41 8.44h9.77c.56 0 1.01-.45 1.01-1.01v-3.35c0-2.41-1.96-4.37-4.37-4.37h-3.06c-2.41 0-4.37 1.96-4.37 4.37v3.35c0 .55.46 1.01 1.02 1.01z" class="st21"/><path d="M292.3 64.74a.67.67 0 1 1 0 1.34.67.67 0 0 1 0-1.34m0 1.65c.54 0 .98-.44.98-.98s-.44-.98-.98-.98-.98.44-.98.98.44.98.98.98" class="st20"/><path d="M292.3 64.74a.67.67 0 1 1 0 1.34.67.67 0 0 1 0-1.34zm0 1.65c.54 0 .98-.44.98-.98s-.44-.98-.98-.98-.98.44-.98.98.44.98.98.98z" class="st21"/><path d="M292.35 87.93c0-2.82 2.3-5.11 5.12-5.11h7.41c.49 0 .88.4.88.88v8.46c0 .49-.4.88-.88.88h-7.41c-2.82 0-5.12-2.29-5.12-5.11m13.76 4.23V83.7c0-.68-.55-1.23-1.23-1.23h-7.41c-3.01 0-5.47 2.45-5.47 5.47 0 3.01 2.45 5.47 5.47 5.47h7.41c.68-.01 1.23-.57 1.23-1.25" class="st20"/><path d="M292.35 87.93c0-2.82 2.3-5.11 5.12-5.11h7.41c.49 0 .88.4.88.88v8.46c0 .49-.4.88-.88.88h-7.41c-2.82 0-5.12-2.29-5.12-5.11zm13.76 4.23V83.7c0-.68-.55-1.23-1.23-1.23h-7.41c-3.01 0-5.47 2.45-5.47 5.47 0 3.01 2.45 5.47 5.47 5.47h7.41c.68-.01 1.23-.57 1.23-1.25z" class="st21"/><path d="M303.29 84.26v7.33c0 .05-.04.09-.09.09h-5.58c-2.06 0-3.76-1.69-3.76-3.76 0-2.06 1.69-3.76 3.76-3.76h5.58c.04.01.09.05.09.1z" class="st21"/><path d="M303.11 84.35v7.16h-5.5a3.59 3.59 0 0 1-3.58-3.58 3.59 3.59 0 0 1 3.58-3.58h5.5zm.35 7.25v-7.33c0-.14-.12-.26-.26-.26h-5.58a3.93 3.93 0 0 0 0 7.86h5.58c.14-.01.26-.13.26-.27" class="st20"/><path d="M303.11 84.35v7.16h-5.5a3.59 3.59 0 0 1-3.58-3.58 3.59 3.59 0 0 1 3.58-3.58h5.5zm.35 7.25v-7.33c0-.14-.12-.26-.26-.26h-5.58a3.93 3.93 0 0 0 0 7.86h5.58c.14-.01.26-.13.26-.27z" class="st21"/><path d="M297.61 87.93a.97.97 0 0 1 1.94 0 .97.97 0 0 1-1.94 0m2.28 0c0-.73-.59-1.32-1.32-1.32-.73 0-1.32.59-1.32 1.32 0 .73.59 1.32 1.32 1.32.73 0 1.32-.59 1.32-1.32" class="st20"/><path d="M297.61 87.93a.97.97 0 0 1 1.94 0 .97.97 0 0 1-1.94 0zm2.28 0c0-.73-.59-1.32-1.32-1.32-.73 0-1.32.59-1.32 1.32 0 .73.59 1.32 1.32 1.32.73 0 1.32-.59 1.32-1.32z" class="st21"/><path d="m300.021 86.541 2.347-1.754.21.28-2.347 1.754z" class="st1"/><path d="m300.021 86.541 2.347-1.754.21.28-2.347 1.754z" class="st14"/><path d="m302.58 90.73-2.35-1.76-.21.28 2.35 1.76z" class="st1"/><path d="m302.58 90.73-2.35-1.76-.21.28 2.35 1.76z" class="st14"/><defs><path id="SVGID_27_" d="M19.96 19.16h306.67v217.68H19.96z"/></defs><clipPath id="SVGID_28_"><use xlink:href="#SVGID_27_" style="overflow:visible"/></clipPath><path d="M306.13 84.4c0-.78.64-1.42 1.42-1.42h1.93c.78 0 1.42.64 1.42 1.42v7.06c0 .78-.64 1.42-1.42 1.42h-1.93c-.78 0-1.42-.64-1.42-1.42V84.4zm5.11 7.06V84.4c0-.97-.79-1.77-1.77-1.77h-1.93c-.97 0-1.77.79-1.77 1.77v7.06c0 .98.79 1.77 1.77 1.77h1.93c.98 0 1.77-.8 1.77-1.77" class="st22"/><path d="M306.13 84.4c0-.78.64-1.42 1.42-1.42h1.93c.78 0 1.42.64 1.42 1.42v7.06c0 .78-.64 1.42-1.42 1.42h-1.93c-.78 0-1.42-.64-1.42-1.42V84.4zm5.11 7.06V84.4c0-.97-.79-1.77-1.77-1.77h-1.93c-.97 0-1.77.79-1.77 1.77v7.06c0 .98.79 1.77 1.77 1.77h1.93c.98 0 1.77-.8 1.77-1.77z" class="st23"/><path d="M307.96 87.93c0-.3.25-.55.55-.55.3 0 .55.25.55.55 0 .3-.25.55-.55.55-.3 0-.55-.25-.55-.55m1.45 0c0-.5-.4-.9-.9-.9s-.9.4-.9.9.4.9.9.9.9-.41.9-.9" class="st22"/><path d="M307.96 87.93c0-.3.25-.55.55-.55.3 0 .55.25.55.55 0 .3-.25.55-.55.55-.3 0-.55-.25-.55-.55zm1.45 0c0-.5-.4-.9-.9-.9s-.9.4-.9.9.4.9.9.9.9-.41.9-.9z" class="st23"/><path d="M281.53 86.4c-.42.14-.8.19-1.45.19-1.38 0-1.88-.59-1.88-2.23s.51-2.23 1.88-2.23c.64 0 .95.04 1.36.16l-.09.86c-.42-.01-.7-.02-1.27-.02-.51 0-.66.26-.66 1.23s.14 1.23.66 1.23c.61 0 .96-.01 1.36-.05l.09.86zm.25.6 2.45-4.78h.9L282.68 87h-.9zm5.97-.51c-.22.72-.58 1.03-1.06 1.2-.37.15-.84.14-1.28.06l.09-.74c.39.01.67-.02.87-.13.12-.07.24-.21.32-.37h-.21c-.17 0-.31-.11-.36-.27l-.96-2.83h1.2l.47 1.85c.03.17.06.35.09.53h.06c.05-.18.1-.39.13-.53l.46-1.85h1.21l-1.03 3.08zm-10.22-38.23c.67.06.9.46.9 1.14 0 .89-.46 1.12-1.51 1.12-.89 0-1.37-.01-1.95-.05v-4.31c.52-.04.97-.05 1.75-.05 1.16 0 1.57.24 1.57 1.12 0 .62-.22.93-.77.98v.05zm-.84-.38c.38 0 .49-.09.49-.48 0-.38-.11-.46-.52-.46h-.55v.94h.58zm.03 1.82c.44 0 .55-.1.55-.53 0-.46-.11-.57-.56-.57h-.59v1.09l.6.01zm2.28-2.26c.46-.09 1.24-.16 1.7-.16.84 0 1.3.29 1.3 1.21v1.98h-.9l-.11-.46c-.21.26-.57.54-1.1.54-.57 0-1.04-.31-1.04-.89v-.31c0-.49.37-.79.99-.79h1.03v-.07c-.01-.26-.11-.36-.43-.36-.31 0-.81.01-1.33.04l-.11-.73zm.95 2.07c0 .16.1.25.31.25.18 0 .4-.08.61-.21v-.39h-.65c-.19.01-.26.1-.26.24v.11zm5.87.96h-1.11v-1.25h-.95v1.25h-1.12v-3.1h1.12v1.09h.95v-1.09h1.11v3.1zm3.85 0h-1.11v-1.25h-.95v1.25h-1.12v-3.1h1.12v1.09h.95v-1.09h1.11v3.1zm.68-3.03c.46-.09 1.24-.16 1.7-.16.84 0 1.3.29 1.3 1.21v1.98h-.9l-.11-.46c-.21.26-.57.54-1.1.54-.57 0-1.04-.31-1.04-.89v-.31c0-.49.37-.79.99-.79h1.03v-.07c-.01-.26-.11-.36-.43-.36-.31 0-.81.01-1.33.04l-.11-.73zm.95 2.07c0 .16.1.25.31.25.18 0 .4-.08.61-.21v-.39h-.65c-.19.01-.26.1-.26.24v.11zm3.31-.38c-.52-.11-.67-.46-.67-.84 0-.78.28-1 1.42-1 .85 0 1.18.01 1.57.05v3.13h-1.1v-1.01h-.41c-.19 0-.26.04-.29.18l-.19.83h-1.16l.24-.98c.08-.27.41-.32.59-.34v-.02zm1.21-1.03h-.44c-.29 0-.35.06-.35.29 0 .31.06.39.35.39h.44v-.68zm-57.35 21.14h-1.17v-3.51h-1.27v3.51h-1.17v-4.31h3.61v4.31zm1.73-2.67c.22-.29.69-.51 1.19-.51.79 0 1.1.61 1.1 1.66 0 1.25-.41 1.6-1.18 1.6-.37 0-.72-.08-.99-.28.02.22.02.46.02.67v.68h-1.13v-4.26h.91l.08.44zm.14 1.87c.17.05.32.11.54.11.32 0 .44-.11.44-.82s-.12-.82-.41-.82c-.24 0-.38.08-.58.19v1.34zm4.88.8v-1.39c0-.18.02-.34.04-.55h-.02c-.06.17-.16.38-.25.52l-.97 1.42h-.99v-3.1h1v1.46c0 .16-.02.3-.04.48h.03c.06-.17.14-.31.24-.46l.99-1.49h.99v3.11h-1.02zm3.19-1.25-.67 1.25h-1.14l.92-1.58-.85-1.52h1.13l.61 1.16.61-1.16h1.13l-.85 1.52.92 1.58h-1.14l-.67-1.25zm5.3-.3c0 1.19-.45 1.62-1.67 1.62s-1.67-.43-1.67-1.62c0-1.2.45-1.64 1.67-1.64s1.67.44 1.67 1.64zm-2.16 0c0 .68.1.83.49.83.38 0 .48-.15.48-.83 0-.69-.1-.84-.48-.84-.39-.01-.49.15-.49.84zm6.29-.06c.74.11.76.16 1.2 1.6h-1.15c-.39-1.17-.41-1.24-.69-1.25h-.23c.02.09.03.19.03.26v.99h-1v-.99c0-.07.01-.17.04-.26h-.25c-.26.01-.29.08-.69 1.25h-1.15c.44-1.44.46-1.5 1.2-1.6v-.03c-.72-.09-.69-.19-1.1-1.47h1.11c.33 1.02.37 1.13.68 1.13h.2c-.02-.13-.04-.26-.04-.39v-.74h1v.74c0 .12-.01.26-.04.39h.19c.31 0 .35-.11.67-1.13h1.12c-.41 1.28-.38 1.37-1.1 1.47v.03zm1.63-1.43c.46-.09 1.24-.16 1.7-.16.84 0 1.3.29 1.3 1.21v1.98h-.9l-.11-.46c-.21.26-.57.54-1.1.54-.57 0-1.04-.31-1.04-.89v-.31c0-.49.37-.79.99-.79h1.03v-.07c-.01-.26-.11-.36-.43-.36-.31 0-.81.01-1.33.04l-.11-.73zm.95 2.07c0 .16.1.25.31.25.18 0 .4-.08.61-.21v-.39h-.65c-.19.01-.26.1-.26.24v.11zm3.3-.38c-.52-.11-.67-.46-.67-.84 0-.78.28-1 1.42-1 .85 0 1.18.01 1.57.05v3.13h-1.1v-1.01h-.41c-.19 0-.26.04-.29.18l-.19.83h-1.16l.24-.98c.08-.27.41-.32.59-.34v-.02zm1.22-1.03h-.44c-.29 0-.35.06-.35.29 0 .31.06.39.35.39h.44v-.68zm15.53 26.33v-2.85c0-.17.01-.34.04-.51l-1 .23-.14-.74 1.09-.42h1.17v4.31h-1.16zm2.6-1.06c.3 0 .39.09.39.39v.27c0 .3-.09.39-.39.39h-.27c-.3 0-.39-.09-.39-.39v-.27c0-.3.09-.39.39-.39h.27zm.93-3.18c.63-.12 1.07-.14 1.54-.14.92 0 1.52.2 1.52 1.04 0 .47-.11.75-.67 1.34l-1.06 1.04c.2-.05.4-.06.61-.06h1.24v1.01h-3.21v-.61c0-.19.04-.33.16-.47l.97-1c.49-.49.77-.88.77-1.12 0-.18-.14-.2-.47-.2-.44 0-.76 0-1.35.03l-.05-.86zm-2.31-36.49c.63-.12 1.07-.14 1.54-.14.92 0 1.52.2 1.52 1.04 0 .47-.11.75-.67 1.34l-1.06 1.04c.2-.05.4-.06.61-.06h1.24v1.01h-3.21v-.61c0-.19.04-.33.16-.47l.97-1c.49-.49.77-.88.77-1.12 0-.18-.14-.2-.47-.2-.44 0-.76 0-1.35.03l-.05-.86zm4.34 3.18c.3 0 .39.09.39.39v.27c0 .3-.09.39-.39.39h-.27c-.3 0-.39-.09-.39-.39v-.27c0-.3.09-.39.39-.39h.27zm1.1.28c.38.01.59.01 1.14.01.57 0 .72-.21.75-.95-.24.19-.5.26-.89.26-.96 0-1.24-.55-1.24-1.33-.01-1.11.35-1.58 1.6-1.58 1.36 0 1.65.44 1.65 2.18 0 1.95-.51 2.27-1.88 2.27-.24 0-.7 0-1.2-.12l.07-.74zm1.36-1.48c.2 0 .34-.04.54-.16-.01-.95-.06-1.12-.54-1.12-.45 0-.5.2-.49.71-.01.45.09.57.49.57zm-38.83 20-.5.11h-.01v.91h-1.07v-.91h-1.72c-.36 0-.59-.33-.46-.67l1.07-2.73h1.09l-.94 2.44c-.05.12.01.18.11.18h.84v-1.11l.19-.67h.88v1.78h.51v.67zm1.08-.04c.3 0 .39.09.39.39v.27c0 .3-.09.39-.39.39h-.27c-.3 0-.39-.09-.39-.39v-.27c0-.3.09-.39.39-.39h.27zm.93-3.18c.63-.12 1.07-.14 1.54-.14.92 0 1.52.2 1.52 1.04 0 .47-.11.75-.67 1.34L253 74.51c.2-.05.4-.06.61-.06h1.24v1.01h-3.21v-.61c0-.19.04-.33.16-.47l.97-1c.49-.49.77-.88.77-1.12 0-.18-.14-.2-.47-.2-.44 0-.76 0-1.35.03l-.05-.87zm10.07 66.69c1.48.21 1.57.77 2.46 3.71h-2.04c-.74-2.6-.82-3.07-1.82-3.07h-.37c.05.23.08.47.08.67v2.4h-1.95v-7.18h1.95v1.9c0 .29-.03.6-.08.9h.34c1.01 0 1.15-.65 1.71-2.8H264c-.79 2.57-.83 3.22-2.26 3.4v.07zm6.76 3.67c-.37 1.21-.97 1.72-1.77 2.01-.61.25-1.39.24-2.13.1l.16-1.23c.66.02 1.11-.03 1.45-.22.21-.12.41-.35.54-.61h-.34c-.29 0-.52-.18-.6-.45l-1.6-4.72h2.01l.78 3.08c.05.29.1.58.15.88h.1c.08-.3.17-.65.22-.88l.76-3.08h2.02l-1.75 5.12zm4.82-2.03-1.12 2.08h-1.9l1.54-2.64-1.42-2.53h1.88l1.02 1.94 1.02-1.94h1.88l-1.42 2.53 1.54 2.64h-1.9l-1.12-2.08zm8.92 2.08h-1.85v-2.09h-1.58v2.09h-1.86v-5.17h1.86v1.82h1.58v-1.82h1.85v5.17zm2.15-2.24c-.87-.18-1.12-.77-1.12-1.39 0-1.3.47-1.67 2.37-1.67 1.42 0 1.97.01 2.61.08v5.21h-1.83v-1.69h-.69c-.32 0-.44.06-.48.3l-.32 1.38h-1.94l.41-1.63c.14-.45.68-.53.99-.56v-.03zm2.03-1.73h-.74c-.49 0-.58.09-.58.48 0 .52.09.65.58.65h.74v-1.13zm-26.95 69.6h-1.96v-5.85h-.66c-.37 0-.57.18-.59.53-.12 1.5-.26 2.83-.55 3.69-.47 1.48-1.42 1.86-2.69 1.67l-.14-1.51c.49-.07.84-.19 1.02-.69.24-.67.37-1.67.49-3.33.08-1.12.69-1.7 1.8-1.7h3.27v7.19zm6.58-2.59c0 1.99-.75 2.71-2.78 2.71-2.04 0-2.79-.72-2.79-2.71 0-2 .75-2.74 2.79-2.74 2.03.01 2.78.75 2.78 2.74zm-3.59 0c0 1.13.17 1.38.81 1.38.63 0 .8-.25.8-1.38 0-1.14-.17-1.4-.8-1.4-.65 0-.81.26-.81 1.4zm10.44 4.02h-1.25l-.14-1.44h-3.7l-.12 1.44h-1.25v-2.71h.65c.31-.88.49-1.75.61-2.64.11-.83.57-1.26 1.5-1.26h2.84v3.9h.86v2.71zm-2.64-5.4h-.47c-.26 0-.43.12-.46.42-.15.97-.33 1.69-.59 2.28h1.52v-2.7zm9.42 1.29c1.24.18 1.27.27 2.01 2.67h-1.92c-.65-1.96-.69-2.07-1.15-2.08h-.39c.03.16.05.31.05.44v1.64h-1.65v-1.64c0-.12.02-.28.06-.44h-.42c-.44.01-.49.12-1.14 2.08h-1.92c.74-2.4.76-2.5 2.01-2.67v-.05c-1.21-.16-1.15-.31-1.84-2.45h1.85c.55 1.71.61 1.88 1.13 1.88h.33c-.04-.22-.06-.44-.06-.65v-1.24h1.64v1.24c0 .21-.02.43-.06.65h.32c.52 0 .58-.19 1.12-1.88h1.86c-.68 2.13-.63 2.29-1.84 2.45v.05zm6.35 2.69v-2.32c0-.3.03-.57.07-.92h-.04c-.09.28-.27.63-.42.86l-1.61 2.36h-1.64v-5.17h1.68v2.43c0 .27-.03.5-.07.8h.04c.1-.29.24-.52.4-.76l1.64-2.48h1.64v5.18h-1.69zm3.83-2.25c-.87-.18-1.12-.77-1.12-1.39 0-1.3.47-1.67 2.37-1.67 1.42 0 1.97.01 2.61.08v5.21h-1.83v-1.69h-.69c-.32 0-.44.06-.48.3l-.32 1.38h-1.94l.41-1.63c.14-.45.68-.53.99-.56v-.03zm2.03-1.73h-.74c-.49 0-.58.09-.58.48 0 .52.09.65.58.65h.74v-1.13zm-25.9-52.34c.63.01.98.01 1.9.01.95 0 1.2-.35 1.25-1.58-.4.32-.83.43-1.48.43-1.6 0-2.06-.92-2.06-2.23-.01-1.84.58-2.63 2.67-2.63 2.27 0 2.75.74 2.75 3.64 0 3.25-.84 3.79-3.13 3.79-.4 0-1.17 0-2-.21l.1-1.22zm2.26-2.46c.33 0 .56-.07.91-.27-.01-1.58-.09-1.86-.91-1.86-.75 0-.83.33-.82 1.19-.01.73.16.94.82.94zm4.77 2c.5 0 .66.16.66.66v.46c0 .5-.16.66-.66.66h-.45c-.5 0-.66-.16-.66-.66v-.46c0-.5.16-.66.66-.66h.45zm1.59-5.36c.81-.13 1.61-.2 2.4-.2 1.76 0 2.42.4 2.42 1.68 0 1.03-.22 1.67-1.14 1.81v.04c1.01.16 1.32.71 1.33 1.8.02 1.52-.68 2.14-2.58 2.14-.86 0-1.77-.08-2.58-.2l.06-1.41c.91.05 1.36.06 1.99.06.92 0 1.19-.13 1.19-.86 0-.61-.17-.85-.94-.84l-1.37.01v-1.25h1.37c.78 0 .85-.29.84-.78 0-.58-.21-.68-.94-.68-.74 0-1.47.01-2 .02l-.05-1.34zm-8.1 71.45c.63.01.98.01 1.9.01.95 0 1.2-.35 1.25-1.58-.4.32-.83.43-1.48.43-1.6 0-2.06-.92-2.06-2.23-.01-1.84.58-2.63 2.67-2.63 2.27 0 2.75.74 2.75 3.64 0 3.25-.84 3.79-3.13 3.79-.4 0-1.17 0-2-.21l.1-1.22zm2.26-2.46c.33 0 .56-.07.91-.27-.01-1.58-.09-1.86-.91-1.86-.75 0-.83.33-.82 1.19-.01.73.16.94.82.94zm4.77 1.99c.5 0 .66.16.66.66v.46c0 .5-.16.66-.66.66h-.45c-.5 0-.66-.16-.66-.66v-.46c0-.5.16-.66.66-.66h.45zm7.6.08-.83.19h-.02v1.51h-1.78v-1.51h-2.87c-.6 0-.99-.55-.76-1.11l1.79-4.56h1.82l-1.57 4.07c-.08.2.02.3.19.3h1.4v-1.84l.31-1.12h1.47v2.97h.85v1.1zm-141.09-93.27c1.46.21 1.55.77 2.39 3.71h-2.05c-.79-2.6-.86-3.07-1.59-3.07h-.34c.05.23.08.47.08.67v2.4h-1.86v-2.4c0-.2.03-.44.08-.67h-.36c-.7 0-.78.47-1.58 3.07h-2.04c.84-2.95.94-3.51 2.38-3.71v-.06c-1.39-.19-1.43-.83-2.19-3.4h1.98c.63 2.15.77 2.8 1.46 2.8h.36c-.06-.3-.09-.6-.09-.9v-1.9h1.86v1.9c0 .29-.03.59-.08.9h.33c.7 0 .82-.65 1.47-2.8h1.98c-.76 2.57-.79 3.22-2.19 3.4v.06zm6.72 3.73v-2.32c0-.3.03-.57.07-.92h-.04c-.09.28-.27.63-.42.86l-1.61 2.36h-1.64v-5.17h1.68v2.43c0 .27-.03.5-.07.8h.04c.1-.29.24-.52.4-.76l1.64-2.48h1.64v5.18h-1.69zm8.02-.01h-1.88v-3.91h-.45c-.31 0-.46.14-.49.44-.09.8-.21 1.67-.31 2.17-.21 1.28-1.24 1.54-2.37 1.35l-.19-1.38c.46-.07.76-.06.87-.48.1-.36.2-1.08.27-2.03.07-.87.53-1.33 1.43-1.33h3.12v5.17zm1.13-5.06c.77-.15 2.07-.26 2.83-.26 1.39 0 2.16.48 2.16 2.02v3.3h-1.51l-.18-.76c-.35.44-.95.9-1.84.9-.96 0-1.74-.51-1.74-1.48v-.52c0-.82.62-1.32 1.65-1.32h1.72v-.12c-.01-.44-.18-.59-.72-.59-.52 0-1.35.02-2.22.07l-.15-1.24zm1.58 3.45c0 .27.17.42.51.42.3 0 .67-.14 1.01-.35v-.64h-1.08c-.31.01-.44.17-.44.41v.16zm5.51-.63c-.87-.18-1.12-.77-1.12-1.39 0-1.3.47-1.67 2.37-1.67 1.42 0 1.97.01 2.61.08v5.21h-1.83v-1.69h-.69c-.32 0-.44.06-.48.3l-.32 1.38h-1.94l.41-1.63c.14-.45.68-.53.99-.56v-.03zm2.03-1.73h-.74c-.49 0-.58.09-.58.48 0 .52.09.65.58.65h.74v-1.13zm8.54 1.3c1.23.18 1.25.22 1.97 2.66h-1.97c-.54-1.9-.58-2.04-1.13-2.05h-.42c.04.15.06.29.06.42v1.63h-1.88v-5.17h1.88v1.22c0 .21-.03.44-.07.66h.23c.74 0 .77-.15 1.22-1.87h1.9c-.67 2.17-.58 2.28-1.79 2.46v.04zm7.98.09c0 1.99-.75 2.71-2.78 2.71-2.04 0-2.79-.72-2.79-2.71 0-2 .75-2.74 2.79-2.74 2.03 0 2.78.74 2.78 2.74zm-3.59 0c0 1.13.17 1.38.81 1.38.63 0 .8-.25.8-1.38 0-1.14-.17-1.4-.8-1.4-.65-.01-.81.25-.81 1.4zm11.04-2.59c.43 0 .64.22.65.65l.14 4.53h-1.71l-.14-3.8h-.12l-.61 2.51c-.07.38-.3.57-.71.57h-.84c-.4 0-.65-.19-.72-.57l-.61-2.51h-.12l-.1 3.8h-1.71l.12-4.53c.01-.43.23-.65.66-.65h1.6c.39 0 .63.2.7.58l.46 1.92c.06.26.07.51.1.77h.08c.04-.26.05-.51.1-.77l.45-1.92c.06-.39.31-.58.71-.58h1.62zm7.12 5.17h-1.85v-2.09h-1.58v2.09h-1.86v-5.17h1.86v1.82h1.58v-1.82h1.85v5.17zm1.14-5.06c.77-.15 2.07-.26 2.83-.26 1.39 0 2.16.48 2.16 2.02v3.3h-1.51l-.18-.76c-.35.44-.95.9-1.84.9-.96 0-1.74-.51-1.74-1.48v-.52c0-.82.62-1.32 1.65-1.32h1.72v-.12c-.01-.44-.18-.59-.72-.59-.52 0-1.35.02-2.22.07l-.15-1.24zm1.58 3.45c0 .27.17.42.51.42.3 0 .67-.14 1.01-.35v-.64h-1.08c-.31.01-.44.17-.44.41v.16zm7.61-2.14v3.75h-1.88v-3.75h-1.64v-1.43h5.16v1.43h-1.64zm2.32-1.31c.77-.15 2.07-.26 2.83-.26 1.39 0 2.16.48 2.16 2.02v3.3h-1.51l-.18-.76c-.35.44-.95.9-1.84.9-.96 0-1.74-.51-1.74-1.48v-.52c0-.82.62-1.32 1.65-1.32h1.72v-.12c-.01-.44-.18-.59-.72-.59-.52 0-1.35.02-2.22.07l-.15-1.24zm1.58 3.45c0 .27.17.42.51.42.3 0 .67-.14 1.01-.35v-.64h-1.08c-.31.01-.44.17-.44.41v.16zM38.6 72.29c1.46.21 1.55.77 2.39 3.71h-2.05c-.79-2.6-.86-3.07-1.59-3.07h-.34c.05.23.08.47.08.67V76h-1.86v-2.4c0-.2.03-.44.08-.67h-.36c-.7 0-.78.47-1.58 3.07h-2.04c.84-2.95.94-3.51 2.38-3.71v-.06c-1.39-.19-1.43-.83-2.19-3.4h1.98c.63 2.15.77 2.8 1.46 2.8h.36c-.06-.3-.09-.6-.09-.9v-1.9h1.86v1.9c0 .29-.03.59-.08.9h.33c.7 0 .82-.65 1.47-2.8h1.98c-.76 2.57-.79 3.22-2.19 3.4v.06zm6.73 3.73V73.7c0-.3.03-.57.07-.92h-.04c-.09.28-.27.63-.42.86L43.33 76h-1.64v-5.17h1.68v2.43c0 .27-.03.5-.07.8h.04c.1-.29.24-.52.4-.76l1.64-2.48h1.64V76h-1.69zm8.01-.01h-1.88V72.1h-.45c-.31 0-.46.14-.49.44-.09.8-.21 1.67-.31 2.17-.21 1.28-1.24 1.54-2.37 1.35l-.19-1.38c.46-.07.76-.06.87-.48.1-.36.2-1.08.27-2.03.07-.87.53-1.33 1.43-1.33h3.12v5.17zm1.14-5.06c.77-.15 2.07-.26 2.83-.26 1.39 0 2.16.48 2.16 2.02v3.3h-1.51l-.18-.76c-.35.44-.95.9-1.84.9-.96 0-1.74-.51-1.74-1.48v-.52c0-.82.62-1.32 1.65-1.32h1.72v-.13c-.01-.44-.18-.59-.72-.59-.52 0-1.35.02-2.22.07l-.15-1.23zm1.58 3.45c0 .27.17.42.51.42.3 0 .67-.14 1.01-.35v-.64H56.5c-.31.01-.44.17-.44.41v.16zm5.5-.63c-.87-.18-1.12-.77-1.12-1.39 0-1.3.47-1.67 2.37-1.67 1.42 0 1.97.01 2.61.08V76h-1.83v-1.69h-.69c-.32 0-.44.06-.48.3l-.32 1.38h-1.94l.41-1.63c.14-.45.68-.53.99-.56v-.03zm2.03-1.73h-.74c-.49 0-.58.09-.58.48 0 .52.09.65.58.65h.74v-1.13zm8.55 1.31c1.23.18 1.25.22 1.97 2.66h-1.97c-.54-1.9-.58-2.04-1.13-2.05h-.42c.04.15.06.29.06.42v1.63h-1.88v-5.17h1.88v1.22c0 .21-.03.44-.07.66h.23c.74 0 .77-.15 1.22-1.87h1.9c-.67 2.17-.58 2.28-1.79 2.46v.04zm7.97.08c0 1.99-.75 2.71-2.78 2.71-2.04 0-2.79-.72-2.79-2.71 0-2 .75-2.74 2.79-2.74 2.03 0 2.78.74 2.78 2.74zm-3.59 0c0 1.13.17 1.38.81 1.38.63 0 .8-.25.8-1.38 0-1.14-.17-1.4-.8-1.4-.64-.01-.81.25-.81 1.4zm11.04-2.59c.43 0 .63.22.65.65l.14 4.53h-1.71l-.14-3.8h-.12l-.61 2.51c-.07.38-.3.57-.71.57h-.84c-.4 0-.65-.19-.72-.57l-.61-2.51h-.12l-.1 3.8h-1.71l.12-4.53c.01-.43.23-.65.66-.65h1.6c.39 0 .63.2.7.58l.46 1.92c.06.26.07.51.1.77h.08c.04-.26.05-.51.1-.77l.45-1.92c.06-.39.31-.58.71-.58h1.62zm7.12 5.17h-1.85v-2.09h-1.58v2.09h-1.86v-5.17h1.86v1.82h1.58v-1.82h1.85v5.17zm1.14-5.06c.77-.15 2.07-.26 2.83-.26 1.39 0 2.16.48 2.16 2.02v3.3H99.3l-.18-.76c-.35.44-.95.9-1.84.9-.96 0-1.74-.51-1.74-1.48v-.52c0-.82.62-1.32 1.65-1.32h1.72v-.13c-.01-.44-.18-.59-.72-.59-.52 0-1.35.02-2.22.07l-.15-1.23zm1.58 3.45c0 .27.17.42.51.42.3 0 .67-.14 1.01-.35v-.64h-1.08c-.31.01-.44.17-.44.41v.16zm7.61-2.14v3.75h-1.88v-3.75h-1.64v-1.43h5.16v1.43h-1.64zm2.32-1.31c.77-.15 2.07-.26 2.83-.26 1.39 0 2.16.48 2.16 2.02v3.3h-1.51l-.18-.76c-.35.44-.95.9-1.84.9-.96 0-1.74-.51-1.74-1.48v-.52c0-.82.62-1.32 1.65-1.32h1.72v-.13c-.01-.44-.18-.59-.72-.59-.52 0-1.35.02-2.22.07l-.15-1.23zm1.58 3.45c0 .27.17.42.51.42.3 0 .67-.14 1.01-.35v-.64h-1.08c-.31.01-.44.17-.44.41v.16zm56.42 64.23v-4.76c0-.28.01-.56.07-.85l-1.67.38-.23-1.24 1.82-.71h1.95v7.18h-1.94zm3.25-7.07c1.05-.21 1.79-.24 2.57-.24 1.53 0 2.54.33 2.54 1.74 0 .78-.18 1.25-1.12 2.24l-1.77 1.74c.33-.08.67-.09 1.01-.09h2.07v1.69h-5.35v-1.02c0-.31.06-.55.27-.78l1.61-1.67c.81-.82 1.29-1.47 1.28-1.87 0-.3-.24-.33-.79-.33-.74 0-1.26 0-2.25.05l-.07-1.46zm7.22 5.3c.5 0 .66.16.66.66v.46c0 .5-.16.66-.66.66h-.45c-.5 0-.66-.16-.66-.66v-.46c0-.5.16-.66.66-.66h.45zm5.48-5.41c.56 0 .91.43.73.96l-2.16 6.22h-1.92l1.73-4.85c.09-.25.19-.51.35-.76h-3.12l-.08-1.57h4.47zM63.76 88v-4.76c0-.28.01-.56.07-.85l-1.67.38-.23-1.24 1.82-.71h1.95V88h-1.94zm3.53-1.3c.63.01.98.01 1.9.01.95 0 1.2-.35 1.25-1.58-.4.32-.83.43-1.48.43-1.6 0-2.06-.92-2.06-2.23-.01-1.84.58-2.63 2.67-2.63 2.27 0 2.75.74 2.75 3.64 0 3.25-.84 3.79-3.13 3.79-.4 0-1.17 0-2-.21l.1-1.22zm2.27-2.47c.33 0 .56-.07.91-.27-.01-1.58-.09-1.86-.91-1.86-.75 0-.83.33-.82 1.19-.01.74.15.94.82.94zm4.77 2c.5 0 .66.16.66.66v.46c0 .5-.16.66-.66.66h-.45c-.5 0-.66-.16-.66-.66v-.46c0-.5.16-.66.66-.66h.45zm7.38-1.82c0 2.8-.76 3.74-2.94 3.74-2.18 0-2.92-.94-2.92-3.74 0-2.8.75-3.74 2.92-3.74 2.19 0 2.94.94 2.94 3.74zm-3.94 0c0 1.9.22 2.25.99 2.25.8 0 1.02-.34 1.02-2.25s-.22-2.25-1.02-2.25c-.77 0-.99.35-.99 2.25zm-16.2 45.96c-1.36-.02-2.14-.02-4.04-.02-2.12 0-2.71.55-2.83 3.62.9-.71 1.9-.95 3.35-.95 3.73 0 4.81 1.48 4.81 5.09 0 4.09-1.09 6.02-6.11 6.02-4.9 0-6.38-1.67-6.38-8.33 0-7.49 2.4-8.66 7.16-8.66.86 0 2.54 0 4.23.48l-.19 2.75zm-2.9 7.82c0-1.76-.36-2.17-1.93-2.17-.79 0-1.31.17-2.09.62.02 3.64.21 4.23 2.12 4.23 1.8.01 1.9-.73 1.9-2.68zm19.34-2.57c0 6.4-1.74 8.54-6.73 8.54-4.97 0-6.68-2.14-6.68-8.54s1.71-8.54 6.68-8.54c4.99 0 6.73 2.14 6.73 8.54zm-9.02 0c0 4.35.5 5.14 2.26 5.14 1.83 0 2.33-.79 2.33-5.14s-.5-5.14-2.33-5.14c-1.76.01-2.26.79-2.26 5.14zm13.49 4.17c1.14 0 1.5.36 1.5 1.5v1.05c0 1.14-.36 1.5-1.5 1.5h-1.02c-1.14 0-1.5-.36-1.5-1.5v-1.05c0-1.14.36-1.5 1.5-1.5h1.02zm5.81 4.04v-10.87c0-.64.02-1.29.17-1.95l-3.81.86-.52-2.83 4.16-1.62h4.45v16.41h-4.45z" class="st1"/><defs><path id="SVGID_29_" d="M19.96 19.16h306.67v217.68H19.96z"/></defs><clipPath id="SVGID_30_"><use xlink:href="#SVGID_29_" style="overflow:visible"/></clipPath><circle cx="72" cy="108.92" r="14.58" style="clip-path:url(#SVGID_30_);fill:none;stroke:#39373a"/><path d="M61.53 102.98c1.82-.36 3.1-.41 4.45-.41 2.65 0 4.4.58 4.4 3.01 0 1.35-.31 2.16-1.95 3.87l-3.06 3.01c.58-.14 1.15-.16 1.75-.16h3.59v2.92h-9.26v-1.77c0-.54.11-.96.47-1.35l2.79-2.88c1.41-1.42 2.23-2.54 2.22-3.24 0-.52-.41-.58-1.37-.58-1.28 0-2.18 0-3.89.09l-.14-2.51zm17.29 5.81c2.56.36 2.72 1.33 4.25 6.43h-3.53c-1.28-4.5-1.42-5.32-3.15-5.32h-.65c.09.4.14.81.14 1.15v4.16h-3.37v-12.43h3.37v3.3c0 .5-.05 1.05-.14 1.55h.59c1.75 0 1.98-1.12 2.96-4.85h3.44c-1.37 4.45-1.44 5.57-3.91 5.89v.12z" class="st1"/><path d="M282.36 24.24h17.02v17.89h-17.02zm-40.834 12.295 26.177-15.575.476.8L242 37.333z" class="st9"/><defs><path id="SVGID_31_" d="M19.96 19.16h306.67v217.68H19.96z"/></defs><clipPath id="SVGID_32_"><use xlink:href="#SVGID_31_" style="overflow:visible"/></clipPath><path d="M241.43 36.46s-2.02-2.12-3.07-6.81c-1.05-4.69-.96-7.24-.96-7.24" style="clip-path:url(#SVGID_32_);fill:none;stroke:#39373a;stroke-width:.4"/><path d="m238.676 102.275.476-.8 21.253 12.645-.476.799z" class="st9"/><defs><path id="SVGID_33_" d="M19.96 19.16h306.67v217.68H19.96z"/></defs><clipPath id="SVGID_34_"><use xlink:href="#SVGID_33_" style="overflow:visible"/></clipPath><path d="M260.51 114.01s1.28-1.71 1.91-5.67.43-6.09.43-6.09" style="clip-path:url(#SVGID_34_);fill:none;stroke:#39373a;stroke-width:.4"/><path d="m262.684 85.496.8-.476 9.862 16.578-.799.476z" class="st9"/><defs><path id="SVGID_35_" d="M19.96 19.16h306.67v217.68H19.96z"/></defs><clipPath id="SVGID_36_"><use xlink:href="#SVGID_35_" style="overflow:visible"/></clipPath><path d="M263.58 84.87s1.48-1.06 4.89-1.56c3.41-.49 5.23-.31 5.23-.31" style="clip-path:url(#SVGID_36_);fill:none;stroke:#39373a;stroke-width:.4"/><path d="m262.678 54.406 9.863-16.578.8.475-9.864 16.578z" class="st9"/><defs><path id="SVGID_37_" d="M19.96 19.16h306.67v217.68H19.96z"/></defs><clipPath id="SVGID_38_"><use xlink:href="#SVGID_37_" style="overflow:visible"/></clipPath><path d="M263.58 55.03s1.48 1.06 4.89 1.56c3.41.49 5.23.31 5.23.31" style="clip-path:url(#SVGID_38_);fill:none;stroke:#39373a;stroke-width:.4"/><path d="M156.38 44.04c1.6.23 1.7.83 2.66 4.03h-2.21c-.8-2.82-.89-3.33-1.97-3.33h-.41c.06.25.09.51.09.72v2.6h-2.11v-7.78h2.11v2.06c0 .32-.03.65-.09.97h.37c1.09 0 1.24-.7 1.85-3.03h2.15c-.86 2.79-.9 3.48-2.45 3.69v.07zm9.11 1.23c0 2.15-.81 2.93-3.01 2.93-2.21 0-3.02-.78-3.02-2.93 0-2.17.81-2.96 3.02-2.96 2.19 0 3.01.8 3.01 2.96zm-3.89 0c0 1.23.18 1.5.88 1.5.69 0 .87-.27.87-1.5 0-1.24-.18-1.52-.87-1.52-.7 0-.88.28-.88 1.52zm6.67-2.02c.39-.52 1.25-.92 2.14-.92 1.42 0 1.98 1.09 1.98 3 0 2.27-.73 2.89-2.13 2.89-.68 0-1.31-.13-1.79-.51.03.39.04.82.03 1.22v1.23h-2.04v-7.69h1.65l.16.78zm.24 3.38c.3.09.58.19.98.19.58 0 .8-.19.8-1.48 0-1.27-.21-1.49-.73-1.49-.43 0-.69.14-1.05.35v2.43zm8.83 1.45v-2.51c0-.33.03-.62.08-.99h-.05c-.1.3-.29.69-.45.94l-1.75 2.56h-1.78v-5.6h1.82v2.64c0 .29-.03.54-.08.87h.05c.11-.32.26-.56.43-.82l1.78-2.68h1.78v5.62h-1.83zm9.61 1.55h-1.35l-.15-1.56h-4.01l-.14 1.56h-1.35V46.7h.7c.34-.96.53-1.89.67-2.86.12-.9.62-1.36 1.62-1.36h3.08v4.23h.94v2.92zm-2.85-5.86h-.51c-.28 0-.46.13-.5.45-.16 1.05-.36 1.83-.64 2.47h1.65v-2.92zm9.45 1.5c0 2.15-.81 2.93-3.01 2.93-2.21 0-3.02-.78-3.02-2.93 0-2.17.81-2.96 3.02-2.96 2.2 0 3.01.8 3.01 2.96zm-3.89 0c0 1.23.18 1.5.88 1.5.69 0 .87-.27.87-1.5 0-1.24-.18-1.52-.87-1.52-.7 0-.88.28-.88 1.52zm6.68-2.02c.39-.52 1.25-.92 2.14-.92 1.42 0 1.98 1.09 1.98 3 0 2.27-.73 2.89-2.13 2.89-.68 0-1.31-.13-1.79-.51.03.39.04.82.03 1.22v1.23h-2.04v-7.69h1.65l.16.78zm.24 3.38c.3.09.58.19.98.19.58 0 .8-.19.8-1.48 0-1.27-.21-1.49-.73-1.49-.43 0-.69.14-1.05.35v2.43zm-21.61 7.09c-.64-.01-1.01-.01-1.92-.01-1 0-1.29.26-1.34 1.71.43-.34.9-.45 1.59-.45 1.77 0 2.28.7 2.28 2.41 0 1.94-.52 2.85-2.9 2.85-2.32 0-3.02-.79-3.02-3.95 0-3.55 1.14-4.1 3.39-4.1.41 0 1.21 0 2.01.23l-.09 1.31zm-1.37 3.71c0-.83-.17-1.03-.91-1.03-.37 0-.62.08-.99.29.01 1.73.1 2.01 1 2.01.85.01.9-.34.9-1.27zm4.02.76c.54 0 .71.17.71.71v.5c0 .54-.17.71-.71.71h-.48c-.54 0-.71-.17-.71-.71v-.5c0-.54.17-.71.71-.71h.48zm2.75 1.92v-5.15c0-.3.01-.61.08-.92l-1.8.41-.25-1.34 1.97-.77h2.11v7.78h-2.11z" class="st1"/></g></switch></svg>