<svg xmlns="http://www.w3.org/2000/svg" xmlns:xlink="http://www.w3.org/1999/xlink" xml:space="preserve" id="Слой_1" x="0" y="0" style="enable-background:new 0 0 255 314" version="1.1" viewBox="0 0 255 314"><style>.st0{fill:#f6ccce}.st1,.st2{fill:#39373a}.st2{clip-path:url(#SVGID_2_)}.st4{fill:#fff}.st5,.st8{fill:none;stroke:#39373a}.st5{stroke-width:.669}.st8{stroke-width:.539}.st16{clip-path:url(#SVGID_18_);fill:none;stroke:#39373a;stroke-width:.567}.st18{clip-path:url(#SVGID_20_);fill:#39373a}.st19{fill:none;stroke:#39373a;stroke-width:.236}.st19,.st20{clip-path:url(#SVGID_20_)}.st20,.st21{fill:none;stroke:#39373a;stroke-width:.279}.st22{clip-path:url(#SVGID_22_);fill:#39373a}.st23,.st24{fill:none;stroke:#39373a}.st23{clip-path:url(#SVGID_22_);stroke-width:.279}.st24{stroke-width:.244}</style><switch><g><path d="M28.4 14.3h199.2V116H28.4z" class="st0"/><path d="M90.4 69.6h137.2v101.7H90.4z" class="st0"/><path d="M90.4 163.7H198v100.4H90.4z" class="st0"/><path d="M27 17.7h7v18.7h-7z" class="st1"/><defs><path id="SVGID_1_" d="M9.4 11.1h233.7v292.1H9.4z"/></defs><clipPath id="SVGID_2_"><use xlink:href="#SVGID_1_" style="overflow:visible"/></clipPath><path d="M193.9 52.4c1.6 0 2 .7 2 4.4s-.4 4.4-2 4.4c-1.5 0-1.9-.7-1.9-4.4s.4-4.4 1.9-4.4m0-2.9c-4.2 0-5.7 1.8-5.7 7.3s1.5 7.3 5.7 7.3c4.3 0 5.7-1.8 5.7-7.3.1-5.4-1.4-7.3-5.7-7.3m-9.5 10.9c-1 0-1.3.3-1.3 1.3v.9c0 1 .3 1.3 1.3 1.3h.9c1 0 1.3-.3 1.3-1.3v-.9c0-1-.3-1.3-1.3-1.3h-.9zm-11.8-10.6.2 3.1h6.1c-.3.5-.5 1-.7 1.5l-3.4 9.5h3.7l4.2-12.1c.3-1-.3-1.9-1.4-1.9h-8.7zm-1.7 2.8.1-2.8h-8.8l-.4 6.3c0 .6.4 1.2 1.1 1.3l2.2.3c1.9.2 2.6.4 2.5 1.7-.1 1.1-.5 1.6-2.3 1.6-1 0-2.3-.1-3.6-.2l-.3 2.9c1.8.3 3.6.4 5 .4 4 0 5.1-2.1 5.1-4.6 0-2.3-.8-4.3-4.1-4.6l-2.3-.3.1-1.9h5.7z" class="st2"/><circle cx="178.2" cy="34" r="12.4" style="clip-path:url(#SVGID_2_);fill:none;stroke:#39373a;stroke-width:.854"/><path d="M184 33.8c2.1-.3 2.2-1.2 3.3-5h-2.9c-.8 3.2-1 4.1-2.5 4.1h-.5c.1-.4.1-.9.1-1.3v-2.8h-2.9v10.6h2.9v-3.6c0-.3 0-.6-.1-1h.6c1.5 0 1.6.7 2.7 4.5h3c-1.3-4.2-1.5-5.1-3.7-5.5zm-14.6-2.7c1.5-.1 2.2-.1 3.3-.1.8 0 1.2 0 1.2.5 0 .6-.7 1.6-1.9 2.8l-2.4 2.5c-.3.3-.4.7-.4 1.2v1.5h7.9V37H174c-.5 0-1 0-1.5.1l2.6-2.6c1.4-1.5 1.7-2.2 1.7-3.3 0-2.1-1.5-2.6-3.8-2.6-1.2 0-2.2 0-3.8.4l.2 2.1z" class="st2"/><path d="M28.9 19.6h3.3v10.1h-3.3zm0 11.8h3.3v3.2h-3.3z" class="st4"/><path d="M120 20.5h7V42h-7z" class="st1"/><path d="M121.9 26.7h3.3v8.7h-3.3zm0 10.3h3.3v3.1h-3.3zm0-14.5h3.3v3.1h-3.3z" class="st4"/><path d="M120 41.6h7v21.5h-7z" class="st1"/><path d="M121.9 47.9h3.3v8.7h-3.3zm0 10.2h3.3v3.1h-3.3zm0-14.5h3.3v3.1h-3.3z" class="st4"/><path d="M111.5 264.4h33.9v8h-33.9z" class="st5"/><path d="M111.5 264.4h33.9v14.8h-33.9zM228 95.4h8v58.7h-8z" class="st5"/><defs><path id="SVGID_3_" d="M9.4 11.1h233.7v292.1H9.4z"/></defs><clipPath id="SVGID_4_"><use xlink:href="#SVGID_3_" style="overflow:visible"/></clipPath><path d="M228 95.4h14.8v58.7H228z" style="clip-path:url(#SVGID_4_);fill:none;stroke:#39373a;stroke-width:.669"/><path d="M228 16.8h8v58.7h-8z" class="st5"/><defs><path id="SVGID_5_" d="M9.4 11.1h233.7v292.1H9.4z"/></defs><clipPath id="SVGID_6_"><use xlink:href="#SVGID_5_" style="overflow:visible"/></clipPath><path d="M228 16.8h14.8v58.7H228z" style="clip-path:url(#SVGID_6_);fill:none;stroke:#39373a;stroke-width:.669"/><path d="m93.25 65.91.563-.944 14.953 8.897-.562.946z" class="st8"/><defs><path id="SVGID_7_" d="M9.4 11.1h233.7v292.1H9.4z"/></defs><clipPath id="SVGID_8_"><use xlink:href="#SVGID_7_" style="overflow:visible"/></clipPath><path d="M108.9 73.8s1.2-1.7 2.5-5.6c.5-1.5.9-3 1.1-4.2" style="clip-path:url(#SVGID_8_);fill:none;stroke:#39373a;stroke-width:.539"/><path d="m128.052 89.358 10.227-17.188.946.563-10.228 17.187z" class="st8"/><defs><path id="SVGID_9_" d="M9.4 11.1h233.7v292.1H9.4z"/></defs><clipPath id="SVGID_10_"><use xlink:href="#SVGID_9_" style="overflow:visible"/></clipPath><path d="M138.1 72.1s-1.7-1.2-5.6-2.5c-1.5-.5-3-.9-4.2-1.1" style="clip-path:url(#SVGID_10_);fill:none;stroke:#39373a;stroke-width:.539"/><path d="m128.064 155.35 10.227-17.186.946.562-10.228 17.187z" class="st8"/><defs><path id="SVGID_11_" d="M9.4 11.1h233.7v292.1H9.4z"/></defs><clipPath id="SVGID_12_"><use xlink:href="#SVGID_11_" style="overflow:visible"/></clipPath><path d="M138.1 138.1s-1.7-1.2-5.6-2.5c-1.5-.5-3-.9-4.2-1.1" style="clip-path:url(#SVGID_12_);fill:none;stroke:#39373a;stroke-width:.539"/><path d="m149.184 263.539.563-.945 17.187 10.227-.563.945z" class="st8"/><defs><path id="SVGID_13_" d="M9.4 11.1h233.7v292.1H9.4z"/></defs><clipPath id="SVGID_14_"><use xlink:href="#SVGID_13_" style="overflow:visible"/></clipPath><path d="M149.1 263.7s-1.2 1.7-2.5 5.6c-.5 1.5-.9 3-1.1 4.2" style="clip-path:url(#SVGID_14_);fill:none;stroke:#39373a;stroke-width:.539"/><path d="m96.139 174.657.562-.945 17.188 10.227-.563.945z" class="st8"/><defs><path id="SVGID_15_" d="M9.4 11.1h233.7v292.1H9.4z"/></defs><clipPath id="SVGID_16_"><use xlink:href="#SVGID_15_" style="overflow:visible"/></clipPath><path d="M113.9 183.8s1.2-1.7 2.5-5.6c.5-1.5.9-3 1.1-4.2" style="clip-path:url(#SVGID_16_);fill:none;stroke:#39373a;stroke-width:.539"/><path d="m42.749 73.91 14.953-8.898.562.945-14.953 8.898z" class="st8"/><defs><path id="SVGID_17_" d="M9.4 11.1h233.7v292.1H9.4z"/></defs><clipPath id="SVGID_18_"><use xlink:href="#SVGID_17_" style="overflow:visible"/></clipPath><path d="M42.6 73.8s-1.2-1.7-2.5-5.6c-.5-1.5-.9-3-1.1-4.2" style="clip-path:url(#SVGID_18_);fill:none;stroke:#39373a;stroke-width:.539"/><path d="m9.893 74.255 1.289-.767 12.991 21.826-1.289.767zM11.3 73.4s2.4-1.7 7.7-3.4c2-.6 4.1-1.2 5.7-1.5" style="stroke-width:.732;clip-path:url(#SVGID_18_);fill:none;stroke:#39373a"/><path d="M107.5 24.5s0-5.4-5.4-5.4h-32s-5.4 0-5.4 5.4v7.2s0 5.4 5.4 5.4h32s5.4 0 5.4-5.4v-7.2z" class="st16"/><path d="M104.5 26.1s0-5.4-5.4-5.4h-26s-5.4 0-5.4 5.4V30s0 5.4 5.4 5.4h26.1s5.4 0 5.4-5.4v-3.9z" class="st16"/><path d="M101 25.1s0-2.7-2.7-2.7H72.1s-2.7 0-2.7 2.7v6s0 2.7 2.7 2.7h26.2s2.7 0 2.7-2.7v-6z" class="st16"/><path d="M72.6 28.1c0 .4.4.8.8.8s.8-.4.8-.8-.4-.8-.8-.8-.8.3-.8.8z" class="st16"/><path d="M109.5 38H59.7m49.5-20.9v20.8" style="fill:none;stroke:#39373a;stroke-width:.567"/><defs><path id="SVGID_19_" d="M9.4 11.1h233.7v292.1H9.4z"/></defs><clipPath id="SVGID_20_"><use xlink:href="#SVGID_19_" style="overflow:visible"/></clipPath><path d="M40 51.2c0-2.8-2.3-5.1-5.1-5.1h-5.4c-.4 0-.8.4-.8.8v11.6c0 .4.3.8.8.8h5.4c2.8 0 5.1-2.3 5.1-5.1v-3zm-11.6 7.2V46.8c0-.6.5-1.1 1.1-1.1h5.4c3 0 5.4 2.4 5.4 5.4V54c0 3-2.4 5.4-5.4 5.4h-5.4c-.6.1-1.1-.4-1.1-1" class="st18"/><path d="M40 51.2c0-2.8-2.3-5.1-5.1-5.1h-5.4c-.4 0-.8.4-.8.8v11.6c0 .4.3.8.8.8h5.4c2.8 0 5.1-2.3 5.1-5.1v-3zm-11.6 7.2V46.8c0-.6.5-1.1 1.1-1.1h5.4c3 0 5.4 2.4 5.4 5.4V54c0 3-2.4 5.4-5.4 5.4h-5.4c-.6.1-1.1-.4-1.1-1z" class="st19"/><path d="M38.7 51.2c0-2.1-1.7-3.8-3.8-3.8h-3.2c-.4 0-.7.3-.7.7v9.2c0 .4.3.7.7.7h3.2c2.1 0 3.8-1.7 3.8-3.8v-3zm-7.9 6.1V48c0-.5.4-1 1-1H35c2.3 0 4.1 1.9 4.1 4.1V54c0 2.3-1.9 4.1-4.1 4.1h-3.2c-.6.1-1-.3-1-.8" class="st18"/><path d="M38.7 51.2c0-2.1-1.7-3.8-3.8-3.8h-3.2c-.4 0-.7.3-.7.7v9.2c0 .4.3.7.7.7h3.2c2.1 0 3.8-1.7 3.8-3.8v-3zm-7.9 6.1V48c0-.5.4-1 1-1H35c2.3 0 4.1 1.9 4.1 4.1V54c0 2.3-1.9 4.1-4.1 4.1h-3.2c-.6.1-1-.3-1-.8z" class="st19"/><path d="M36 52.6c0-.3-.3-.6-.6-.6s-.6.3-.6.6c0 .4.3.6.6.6s.6-.2.6-.6m-1.5 0c0-.5.4-.9.9-.9s.9.4.9.9-.4.9-.9.9c-.5.1-.9-.4-.9-.9" class="st18"/><path d="M36 52.6c0-.3-.3-.6-.6-.6s-.6.3-.6.6c0 .4.3.6.6.6s.6-.2.6-.6zm-1.5 0c0-.5.4-.9.9-.9s.9.4.9.9-.4.9-.9.9c-.5.1-.9-.4-.9-.9z" class="st19"/><path d="M75.1 45.5c0-2.8-2.3-5.1-5.1-5.1h-5.4c-.4 0-.8.4-.8.8v11.6c0 .4.3.8.8.8H70c2.8 0 5.1-2.3 5.1-5.1v-3zm-11.6 7.3V41.2c0-.6.5-1.1 1.1-1.1H70c3 0 5.4 2.4 5.4 5.4v2.9c0 3-2.4 5.4-5.4 5.4h-5.4c-.6 0-1.1-.4-1.1-1" class="st18"/><path d="M75.1 45.5c0-2.8-2.3-5.1-5.1-5.1h-5.4c-.4 0-.8.4-.8.8v11.6c0 .4.3.8.8.8H70c2.8 0 5.1-2.3 5.1-5.1v-3zm-11.6 7.3V41.2c0-.6.5-1.1 1.1-1.1H70c3 0 5.4 2.4 5.4 5.4v2.9c0 3-2.4 5.4-5.4 5.4h-5.4c-.6 0-1.1-.4-1.1-1z" class="st19"/><path d="M73.9 45.5c0-2.1-1.7-3.8-3.8-3.8h-3.2c-.4 0-.7.3-.7.7v9.2c0 .4.3.7.7.7H70c2.1 0 3.8-1.7 3.8-3.8v-3zm-8 6.1v-9.2c0-.5.4-1 1-1H70c2.3 0 4.1 1.9 4.1 4.1v2.9c0 2.3-1.9 4.1-4.1 4.1h-3.2c-.5 0-.9-.4-.9-.9" class="st18"/><path d="M73.9 45.5c0-2.1-1.7-3.8-3.8-3.8h-3.2c-.4 0-.7.3-.7.7v9.2c0 .4.3.7.7.7H70c2.1 0 3.8-1.7 3.8-3.8v-3zm-8 6.1v-9.2c0-.5.4-1 1-1H70c2.3 0 4.1 1.9 4.1 4.1v2.9c0 2.3-1.9 4.1-4.1 4.1h-3.2c-.5 0-.9-.4-.9-.9z" class="st19"/><path d="M71.2 47c0-.3-.3-.6-.6-.6-.4 0-.6.3-.6.6 0 .4.3.6.6.6s.6-.3.6-.6m-1.6 0c0-.5.4-.9.9-.9s.9.4.9.9-.4.9-.9.9-.9-.4-.9-.9" class="st18"/><path d="M71.2 47c0-.3-.3-.6-.6-.6-.4 0-.6.3-.6.6 0 .4.3.6.6.6s.6-.3.6-.6zm-1.6 0c0-.5.4-.9.9-.9s.9.4.9.9-.4.9-.9.9-.9-.4-.9-.9z" class="st19"/><path d="M42.8 35.5c-2.6 0-4.7-2.1-4.7-4.8v-6.9c0-.5.4-.8.8-.8h7.8c.4 0 .8.4.8.8v6.9c.1 2.7-2.1 4.8-4.7 4.8m3.9-12.8h-7.8c-.6 0-1.1.5-1.1 1.1v6.9c0 2.8 2.3 5.1 5 5.1 2.8 0 5-2.3 5-5.1v-6.9c.1-.6-.4-1.1-1.1-1.1" class="st18"/><path d="M42.8 35.5c-2.6 0-4.7-2.1-4.7-4.8v-6.9c0-.5.4-.8.8-.8h7.8c.4 0 .8.4.8.8v6.9c.1 2.7-2.1 4.8-4.7 4.8zm3.9-12.8h-7.8c-.6 0-1.1.5-1.1 1.1v6.9c0 2.8 2.3 5.1 5 5.1 2.8 0 5-2.3 5-5.1v-6.9c.1-.6-.4-1.1-1.1-1.1z" class="st20"/><path d="M39.5 25.3h6.8s.1 0 .1.1v5.2c0 1.9-1.6 3.5-3.5 3.5s-3.5-1.6-3.5-3.5l.1-5.3c-.1.1-.1 0 0 0z" class="st20"/><path d="M39.5 25.5h6.6v5.1c0 1.8-1.5 3.3-3.3 3.3-1.8 0-3.3-1.5-3.3-3.3v-5.1zm6.7-.3h-6.8c-.1 0-.2.1-.2.2v5.2c0 2 1.6 3.7 3.6 3.7s3.6-1.6 3.6-3.7v-5.2c.1-.1 0-.2-.2-.2" class="st18"/><path d="M39.5 25.5h6.6v5.1c0 1.8-1.5 3.3-3.3 3.3-1.8 0-3.3-1.5-3.3-3.3v-5.1zm6.7-.3h-6.8c-.1 0-.2.1-.2.2v5.2c0 2 1.6 3.7 3.6 3.7s3.6-1.6 3.6-3.7v-5.2c.1-.1 0-.2-.2-.2z" class="st20"/><path d="M42.8 30.6c-.5 0-.9-.4-.9-.9s.4-.9.9-.9.9.4.9.9-.4.9-.9.9m0-2.1c-.7 0-1.2.5-1.2 1.2s.5 1.2 1.2 1.2 1.2-.5 1.2-1.2-.5-1.2-1.2-1.2" class="st18"/><path d="M42.8 30.6c-.5 0-.9-.4-.9-.9s.4-.9.9-.9.9.4.9.9-.4.9-.9.9zm0-2.1c-.7 0-1.2.5-1.2 1.2s.5 1.2 1.2 1.2 1.2-.5 1.2-1.2-.5-1.2-1.2-1.2z" class="st20"/><path d="m40.2 26-.2.2 1.5 2.1.3-.2z" class="st1"/><path d="m40.2 26-.2.2 1.5 2.1.3-.2z" class="st21"/><path d="m45.4 26-1.6 2.1.3.2 1.6-2.1z" class="st1"/><path d="m45.4 26-1.6 2.1.3.2 1.6-2.1z" class="st21"/><defs><path id="SVGID_21_" d="M9.4 11.1h233.7v292.1H9.4z"/></defs><clipPath id="SVGID_22_"><use xlink:href="#SVGID_21_" style="overflow:visible"/></clipPath><path d="M39.6 22.6c-.7 0-1.3-.6-1.3-1.3v-1.8c0-.7.6-1.3 1.3-1.3h6.5c.7 0 1.3.6 1.3 1.3v1.8c0 .7-.6 1.3-1.3 1.3h-6.5zm6.5-4.7h-6.5c-.9 0-1.6.7-1.6 1.6v1.8c0 .9.7 1.6 1.6 1.6h6.5c.9 0 1.6-.7 1.6-1.6v-1.8c0-.9-.7-1.6-1.6-1.6" class="st22"/><path d="M39.6 22.6c-.7 0-1.3-.6-1.3-1.3v-1.8c0-.7.6-1.3 1.3-1.3h6.5c.7 0 1.3.6 1.3 1.3v1.8c0 .7-.6 1.3-1.3 1.3h-6.5zm6.5-4.7h-6.5c-.9 0-1.6.7-1.6 1.6v1.8c0 .9.7 1.6 1.6 1.6h6.5c.9 0 1.6-.7 1.6-1.6v-1.8c0-.9-.7-1.6-1.6-1.6z" class="st23"/><path d="M42.8 20.9c-.3 0-.5-.2-.5-.5s.2-.5.5-.5.5.2.5.5-.2.5-.5.5m0-1.3c-.4 0-.8.4-.8.8s.4.8.8.8.8-.4.8-.8-.3-.8-.8-.8" class="st22"/><path d="M42.8 20.9c-.3 0-.5-.2-.5-.5s.2-.5.5-.5.5.2.5.5-.2.5-.5.5zm0-1.3c-.4 0-.8.4-.8.8s.4.8.8.8.8-.4.8-.8-.3-.8-.8-.8z" class="st23"/><path d="M130.2 34.1h15.9V18.2h-15.9v15.9zm-.3-16.2h16.6v16.6h-16.6V17.9z" class="st1"/><path d="M130.2 34.1h15.9V18.2h-15.9v15.9zm-.3-16.2h16.6v16.6h-16.6V17.9z" class="st24"/><defs><path id="SVGID_23_" d="M9.4 11.1h233.7v292.1H9.4z"/></defs><clipPath id="SVGID_24_"><use xlink:href="#SVGID_23_" style="overflow:visible"/></clipPath><path d="M144.6 20.6c0-.4-.3-.7-.7-.7h-8.3c-.4 0-.7.3-.7.7v11.1c0 .4.3.7.7.7h8.3c.4 0 .7-.3.7-.7V20.6zm-10.1 11.1V20.6c0-.6.5-1.1 1.1-1.1h8.3c.6 0 1.1.5 1.1 1.1v11.1c0 .6-.5 1.1-1.1 1.1h-8.3c-.6 0-1.1-.5-1.1-1.1" style="clip-path:url(#SVGID_24_);fill:#39373a"/><path d="M144.6 20.6c0-.4-.3-.7-.7-.7h-8.3c-.4 0-.7.3-.7.7v11.1c0 .4.3.7.7.7h8.3c.4 0 .7-.3.7-.7V20.6zm-10.1 11.1V20.6c0-.6.5-1.1 1.1-1.1h8.3c.6 0 1.1.5 1.1 1.1v11.1c0 .6-.5 1.1-1.1 1.1h-8.3c-.6 0-1.1-.5-1.1-1.1z" style="clip-path:url(#SVGID_24_);fill:none;stroke:#39373a;stroke-width:.244"/><path d="M136.1 31.2h7.3V21.1h-7.3v10.1zm-.3-10.4h8v10.8h-8V20.8z" class="st1"/><path d="M136.1 31.2h7.3V21.1h-7.3v10.1zm-.3-10.4h8v10.8h-8V20.8z" class="st24"/><defs><path id="SVGID_25_" d="M9.4 11.1h233.7v292.1H9.4z"/></defs><clipPath id="SVGID_26_"><use xlink:href="#SVGID_25_" style="overflow:visible"/></clipPath><path d="M141.2 26.1c0-.5-.4-.9-.9-.9s-.9.4-.9.9.4.9.9.9.9-.3.9-.9m-2.2 0c0-.7.6-1.3 1.3-1.3s1.3.6 1.3 1.3c0 .7-.6 1.3-1.3 1.3s-1.3-.6-1.3-1.3" style="clip-path:url(#SVGID_26_);fill:#39373a"/><path d="M141.2 26.1c0-.5-.4-.9-.9-.9s-.9.4-.9.9.4.9.9.9.9-.3.9-.9zm-2.2 0c0-.7.6-1.3 1.3-1.3s1.3.6 1.3 1.3c0 .7-.6 1.3-1.3 1.3s-1.3-.6-1.3-1.3z" style="clip-path:url(#SVGID_26_);fill:none;stroke:#39373a;stroke-width:.244"/><path d="M235.8 13.2h7.3v22.7h-7.3zm0 56.6h7.3v37.9h-7.3zm0 71.1h7.3v47.8h-7.3zM74.9 272.3h47.8v7.3H74.9zm87.9 0h47.8v7.3h-47.8z" class="st1"/><path d="M74.9 272.3h23.9v7.3H74.9zM227.6 13.2h11.8v20.5h-11.8z" class="st1"/><path d="M224 13.1h11.8v13.1H224zm3.6 59.2h11.8v32.9h-11.8zm0 71.1h11.8v45.3h-11.8zM74.9 264.1h45.3v11.8H74.9zm90.4 0h45.3v11.8h-45.3zM21.1 11.1h7.3v58.3h-7.3zm0 83.5h7.3v21.6h-7.3zm104.2-79.3h4.9v53.4h-4.9zM54.6 62.2h41v4.3h-41z" class="st1"/><path d="M112.2 62.2h18v4.3h-18zm-88.6 0h16v4.3h-16zm63.1 109.2h11v4.3h-11zm38.9-17h4.3v19.1h-4.3zm0-66.3h4.3v46.8h-4.3z" class="st1"/><path d="M127.3 89.5h105.4v4.3H127.3z" class="st1"/><path d="M224.8 75.9h9.1v22.7h-9.1zm0 76.7h9.1v22.7h-9.1zm-31 84.1h9.1v32.9h-9.1z" class="st1"/><path d="M117.1 171.4h114.7v4.3H117.1zm-57.9-156h4.3v48.9h-4.3z" class="st1"/><path d="M24.8 11.1h218.4v6.7H24.8zm50.1 253h23.9v11.8H74.9zm122.6-92.2h38.3v16.8h-38.3z" class="st1"/><path d="M197.5 184.4h15.6v95.1h-15.6zM21.1 112.1h71.1v7.3H21.1z" class="st1"/><path d="M84.9 114.4h7.3v151.9h-7.3z" class="st1"/><defs><path id="SVGID_27_" d="M9.4 11.1h233.7v292.1H9.4z"/></defs><clipPath id="SVGID_28_"><use xlink:href="#SVGID_27_" style="overflow:visible"/></clipPath><path d="M188.4 81.5h-.7V79h-1.3l-.3 1v1.6H185c-.1 0-.2-.1-.2-.3l1.3-3.5h-1.6l-1.5 3.9c-.2.5.1.9.6.9h2.5v1.3h1.5v-1.3l.7-.2v-.9zm-6.8.9c-.4 0-.6.1-.6.6v.4c0 .4.1.6.6.6h.4c.4 0 .6-.1.6-.6V83c0-.4-.1-.6-.6-.6h-.4zm-1.7 1.5v-6.1h-1.7l-1.6.6.2 1.1 1.4-.3c-.1.2-.1.5-.1.7V84h1.8zm-4 0v-6.1h-1.7l-1.6.6.2 1.1 1.4-.3c-.1.2-.1.5-.1.7V84h1.8zm16.1-13h-.6c-.4 0-.5-.1-.5-.6 0-.3.1-.4.5-.4h.6v1zm-1.7.5c-.3 0-.7.1-.8.5l-.3 1.4h1.7l.3-1.2c0-.2.1-.3.4-.3h.6v1.4h1.6v-4.5c-.6-.1-1-.1-2.2-.1-1.6 0-2 .3-2 1.4-.3.7-.1 1.2.7 1.4zm-1.9-2.5h-1.6v1.6h-1.4v-1.6h-1.6v4.4h1.6v-1.8h1.4v1.8h1.6v-4.4zm-6.6 4.4h1.6l-1.3-2.3 1.2-2.2h-1.6l-.9 1.7-.9-1.7h-1.6l1.2 2.2-1.3 2.3h1.6l1-1.8 1 1.8zm-3.6-4.4h-1.7l-.6 2.6c0 .2-.1.5-.2.8h-.1c0-.3-.1-.5-.1-.8l-.7-2.6H173l1.4 4c.1.2.3.4.5.4h.3c-.1.2-.3.4-.5.5-.3.2-.7.2-1.2.2l-.1 1c.6.1 1.3.1 1.8-.1.7-.2 1.2-.7 1.5-1.7l1.5-4.3zm-7.3 1.2c1.2-.2 1.3-.7 1.9-2.9h-1.7c-.5 1.8-.6 2.4-1.5 2.4h-.3c0-.2.1-.5.1-.8v-1.6h-1.7v6.1h1.7v-2.1c0-.2 0-.4-.1-.6h.3c.9 0 .9.4 1.6 2.6h1.7c-.6-2.4-.7-2.9-2-3.1zM81.5 94.3c.7 0 .9.3.9 1.9 0 1.6-.2 1.9-.9 1.9s-.8-.3-.8-1.9c-.1-1.6.1-1.9.8-1.9m0-1.3c-1.9 0-2.5.8-2.5 3.2s.6 3.2 2.5 3.2 2.5-.8 2.5-3.2-.7-3.2-2.5-3.2m-4.2 4.8c-.4 0-.6.1-.6.6v.4c0 .4.1.6.6.6h.4c.4 0 .6-.1.6-.6v-.4c0-.4-.1-.6-.6-.6h-.4zm-3.8-3.5c.7 0 .9.3.9 1.9 0 1.6-.2 1.9-.9 1.9s-.8-.3-.8-1.9c-.1-1.6.1-1.9.8-1.9m0-1.3c-1.9 0-2.5.8-2.5 3.2s.6 3.2 2.5 3.2 2.5-.8 2.5-3.2-.6-3.2-2.5-3.2m-3.6 6.3v-6.1h-1.7l-1.6.6.2 1.1 1.4-.3c-.1.2-.1.5-.1.7v4.1h1.8zm26.2-13.1h-.6c-.4 0-.5-.1-.5-.6 0-.3.1-.4.5-.4h.6v1zm-1.7.5c-.3 0-.7.1-.8.5l-.3 1.4H95l.3-1.2c0-.2.1-.3.4-.3h.6v1.4h1.6V84c-.6-.1-1-.1-2.2-.1-1.6 0-2 .3-2 1.4-.3.7 0 1.2.7 1.4zm-4.7.4c0-.2.1-.3.4-.3h.9v.6c-.3.2-.6.3-.9.3-.3 0-.4-.1-.4-.4v-.2zm-1.2-1.8c.7 0 1.4-.1 1.9-.1s.6.1.6.5v.1h-1.5c-.9 0-1.4.4-1.4 1.1v.4c0 .8.7 1.3 1.5 1.3s1.3-.4 1.6-.8l.2.6h1.3v-2.8c0-1.3-.7-1.7-1.8-1.7-.6 0-1.8.1-2.4.2v1.2zm-2.5 1c1-.1 1-.3 1.6-2.1H86c-.5 1.4-.5 1.6-1 1.6h-.3c0-.2.1-.4.1-.6v-1.1h-1.4v1.1c0 .2 0 .4.1.6h-.3c-.4 0-.5-.2-1-1.6h-1.6c.6 1.8.5 2 1.6 2.1-1.1.2-1.1.2-1.7 2.3h1.6c.6-1.7.6-1.8 1-1.8h.4c0 .1-.1.3-.1.4v1.4h1.4v-1.8h.4c.4 0 .4.1 1 1.8h1.6c-.7-2.1-.7-2.1-1.8-2.3zm-8.2-1.1c.5 0 .7.2.7 1.2s-.1 1.2-.7 1.2-.7-.2-.7-1.2.1-1.2.7-1.2m0-1.1c-1.7 0-2.4.6-2.4 2.3 0 1.7.6 2.3 2.4 2.3 1.7 0 2.4-.6 2.4-2.3 0-1.7-.7-2.3-2.4-2.3m-4.2 4.5h1.6l-1.3-2.3 1.2-2.2h-1.6l-.9 1.7-.9-1.7h-1.6l1.2 2.2-1.3 2.3h1.6l1-1.8 1 1.8zm-4.1 0v-4.4h-1.4l-1.4 2.1-.3.6c0-.3.1-.5.1-.7v-2.1H65v4.4h1.4l1.4-2c.1-.2.3-.5.4-.7 0 .3-.1.5-.1.8v2h1.4zm-8.4-3c.3-.2.5-.3.8-.3.4 0 .6.2.6 1.2s-.2 1.2-.6 1.2c-.3 0-.5-.1-.8-.2v-1.9zm-.3-1.4h-1.3v6.1h1.6v-2c.4.3.9.4 1.4.4 1.1 0 1.7-.5 1.7-2.3 0-1.5-.4-2.4-1.6-2.4-.7 0-1.4.3-1.7.7l-.1-.5zm-2.3-1.7h-5.1v6.1H55v-5h1.8v5h1.7v-6.1zm43-30.3c.5 0 .6.2.6 1.3s-.1 1.3-.6 1.3-.6-.2-.6-1.3.2-1.3.6-1.3m0-.9c-1.3 0-1.7.6-1.7 2.2s.4 2.2 1.7 2.2c1.3 0 1.8-.6 1.8-2.2s-.5-2.2-1.8-2.2m-2.9 3.3c-.3 0-.4.1-.4.4v.3c0 .3.1.4.4.4h.3c.3 0 .4-.1.4-.4V55c0-.3-.1-.4-.4-.4h-.3zm-.8-.6h-.5v-1.8h-.9l-.2.7V54h-.8c-.1 0-.2-.1-.1-.2l.9-2.4h-1.1L94 54.1c-.1.3.1.7.5.7h1.7v.9h1.1v-.9l.5-.1V54zm10.8-7.5h-.4c-.3 0-.3-.1-.3-.4 0-.2.1-.3.3-.3h.4v.7zm-1.2.4c-.2 0-.5.1-.6.3l-.2 1h1.2l.2-.8c0-.1.1-.2.3-.2h.4v1h1.1v-3.1h-1.6c-1.1 0-1.4.2-1.4 1-.1.3 0 .7.6.8zm-3.3.3c0-.1.1-.2.3-.2h.6v.4c-.2.1-.4.2-.6.2-.2 0-.3-.1-.3-.2v-.2zm-.9-1.2h1.3c.3 0 .4.1.4.4v.1h-1c-.6 0-1 .3-1 .8v.3c0 .6.5.9 1 .9s.9-.3 1.1-.5l.1.5h.9v-2c0-.9-.5-1.2-1.3-1.2-.5 0-1.2.1-1.7.2l.2.5zm-.7-.8h-1.1v1.1h-.9v-1.1h-1.1v3.1h1.1V47h.9v1.2h1.1v-3zm-3.9 0h-1.1v1.1h-.9v-1.1h-1.1v3.1h1.1V47h.9v1.2h1.1v-3zm-5.8 2c0-.1.1-.2.3-.2h.6v.4c-.2.1-.4.2-.6.2-.2 0-.3-.1-.3-.2v-.2zm-.9-1.2h1.3c.3 0 .4.1.4.4v.1h-1c-.6 0-1 .3-1 .8v.3c0 .6.5.9 1 .9s.9-.3 1.1-.5l.1.5h.9v-2c0-.9-.5-1.2-1.3-1.2-.5 0-1.2.1-1.7.2l.2.5zM89 47.5v-1.1h.6c.4 0 .6.1.6.6 0 .4-.1.5-.5.5H89zm0-1.8v-.9h.5c.4 0 .5.1.5.5s-.1.5-.5.5H89zm1.4.3c.5 0 .8-.4.8-1 0-.9-.4-1.1-1.6-1.1h-1.7v4.3h1.9c1.1 0 1.5-.2 1.5-1.1 0-.6-.3-1-.9-1.1zm-41.3 3.8v-4.3h-1.2l-1.1.4.1.7 1-.2v3.3h1.2zm-2.9-1.1c-.3 0-.4.1-.4.4v.3c0 .3.1.4.4.4h.3c.3 0 .4-.1.4-.4v-.3c0-.3-.1-.4-.4-.4h-.3zm-4.1-2.3h1.3c.3 0 .5 0 .5.2s-.3.6-.8 1.1l-1 1c-.1.1-.2.3-.2.5v.6h3.2v-1H44c-.2 0-.4 0-.6.1l1.1-1c.6-.6.7-.9.7-1.3 0-.8-.6-1-1.5-1-.5 0-.9 0-1.5.1l-.1.7zm14.2-6.3v-.9h-3.1v.9h1v2.2h1.1v-2.2h1zm-5.4.4c0-.5.1-.6.5-.6.3 0 .4.1.4.3 0 .2 0 .3-.3.3h-.6zm1 .6c.8 0 1.1-.3 1.1-.8 0-.7-.4-1.1-1.5-1.1-1.2 0-1.7.4-1.7 1.6 0 1.1.5 1.6 1.7 1.6.5 0 1-.1 1.4-.3l-.1-.7c-.5.1-.9.1-1.2.1-.4 0-.6-.1-.6-.4h.9zm-2.7-1.9h-1.9c-.5 0-.8.3-.9.8 0 .6-.1 1-.2 1.2-.1.2-.2.2-.5.3l.1.8c.7.1 1.3 0 1.4-.8.1-.3.1-.8.2-1.3 0-.2.1-.3.3-.3h.3v2.3h1.1v-3zm-5.8 2.1c0-.1.1-.2.3-.2h.6v.4c-.2.1-.4.2-.6.2-.2 0-.3-.1-.3-.2v-.2zm-.8-1.3h1.3c.3 0 .4.1.4.4v.1h-1c-.6 0-1 .3-1 .8v.3c0 .6.5.9 1 .9s.9-.3 1.1-.5l.1.5h.9v-2c0-.9-.5-1.2-1.3-1.2-.5 0-1.2.1-1.7.2l.2.5zm-.4-.8H41l-.5 1.8c0 .1-.1.3-.1.5h-.1c0-.2-.1-.4-.1-.5l-.5-1.8h-1.2l1 2.8c0 .2.2.3.4.3h.2c-.1.2-.2.3-.3.4-.2.1-.5.1-.9.1l-.1.7c.4.1.9.1 1.3-.1.5-.2.8-.5 1.1-1.2l1-3zm-3.5-.3V38h-3.6v.9h1.2v3.4h1.2v-3.4h1.2zm109.6 192.2c-.7 0-.8-.2-.8-1.6.3-.2.5-.2.8-.2.6 0 .7.2.7.8 0 .8-.1 1-.7 1m1.8-4.9c-.6-.2-1.3-.2-1.6-.2-1.8 0-2.7.4-2.7 3.2 0 2.5.6 3.1 2.4 3.1 1.9 0 2.3-.7 2.3-2.2 0-1.3-.4-1.9-1.8-1.9-.5 0-.9.1-1.3.4 0-1.1.3-1.4 1.1-1.4h1.5l.1-1zm-5.9 4.5c-.4 0-.6.1-.6.6v.4c0 .4.1.6.6.6h.4c.4 0 .6-.1.6-.6v-.4c0-.4-.1-.6-.6-.6h-.4zm-1.2-.9h-.7v-2.5H141l-.3 1v1.6h-1.2c-.1 0-.2-.1-.2-.3l1.3-3.5H139l-1.5 3.9c-.2.5.1 1 .6 1h2.5v1.3h1.5V231l.7-.2v-1zm-6.2 2.4v-6.1h-1.7l-1.6.6.2 1.1 1.4-.3c-.1.2-.1.5-.1.7v4.1h1.8zm21-12.1c0-.2.1-.3.4-.3h.9v.6c-.3.2-.6.3-.9.3-.3 0-.4-.1-.4-.4v-.2zm-1.2-1.8c.7 0 1.4-.1 1.9-.1s.6.1.6.5v.1h-1.5c-.9 0-1.4.4-1.4 1.1v.4c0 .8.7 1.3 1.5 1.3s1.3-.4 1.6-.8l.2.6h1.3v-2.8c0-1.3-.7-1.7-1.8-1.7-.6 0-1.8.1-2.4.2v1.2zm-.7.1v-1.2h-4.4v1.2h1.4v3.2h1.6v-3.2h1.4zm-7.9 1.7c0-.2.1-.3.4-.3h.9v.6c-.3.2-.6.3-.9.3-.3 0-.4-.1-.4-.4v-.2zm-1.2-1.8c.7 0 1.4-.1 1.9-.1s.6.1.6.5v.1h-1.5c-.9 0-1.4.4-1.4 1.1v.4c0 .8.7 1.3 1.5 1.3s1.3-.4 1.6-.8l.2.6h1.3v-2.8c0-1.3-.7-1.7-1.8-1.7-.7 0-1.8.1-2.4.2v1.2zm-1.1-1.1h-1.6v1.6h-1.4v-1.6h-1.6v4.4h1.6v-1.8h1.4v1.8h1.6v-4.4zm-7.5 0c-.3 0-.6.2-.6.5l-.4 1.6c0 .2-.1.4-.1.7h-.1c0-.2 0-.4-.1-.7l-.4-1.6c-.1-.3-.3-.5-.6-.5h-1.4c-.4 0-.6.2-.6.6l-.1 3.9h1.5l.1-3.2h.1l.5 2.1c.1.3.3.5.6.5h.7c.3 0 .5-.2.6-.5l.5-2.1h.1l.1 3.2h1.5l-.1-3.9c0-.4-.2-.6-.6-.6h-1.2zm-7.3 1c.5 0 .7.2.7 1.2s-.1 1.2-.7 1.2-.7-.2-.7-1.2.1-1.2.7-1.2m0-1.2c-1.7 0-2.4.6-2.4 2.3 0 1.7.6 2.3 2.4 2.3 1.7 0 2.4-.6 2.4-2.3 0-1.6-.7-2.3-2.4-2.3m-4.4 2.3c1-.2 1-.2 1.5-2.1h-1.6c-.4 1.5-.4 1.6-1 1.6h-.2c0-.2.1-.4.1-.6v-1h-1.6v4.4h1.6v-1.4c0-.1 0-.2-.1-.4h.4c.5 0 .5.1 1 1.8h1.7c-.8-2.1-.8-2.1-1.8-2.3zm28.5-10.8h-.6c-.4 0-.5-.1-.5-.6 0-.3.1-.4.5-.4h.6v1zm-1.8.6c-.3 0-.7.1-.8.5l-.3 1.4h1.7l.3-1.2c0-.2.1-.3.4-.3h.6v1.4h1.6v-4.4c-.6-.1-1-.1-2.2-.1-1.6 0-2 .3-2 1.4-.2.6 0 1.1.7 1.3zm-4.7.3c0-.2.1-.3.4-.3h.9v.6c-.3.2-.6.3-.9.3-.3 0-.4-.1-.4-.4v-.2zm-1.2-1.7c.7 0 1.4-.1 1.9-.1s.6.1.6.5v.1h-1.5c-.9 0-1.4.4-1.4 1.1v.4c0 .8.7 1.3 1.5 1.3s1.3-.4 1.6-.8l.2.6h1.3V208c0-1.3-.7-1.7-1.8-1.7-.6 0-1.8.1-2.4.2v1.2zm-1.1-1.2h-2.7c-.8 0-1.2.4-1.2 1.1-.1.8-.1 1.4-.2 1.7-.1.4-.4.3-.7.4l.2 1.2c1 .2 1.8-.1 2-1.2.1-.4.2-1.2.3-1.9 0-.3.2-.4.4-.4h.4v3.3h1.6v-4.2zm-5.4 4.4v-4.4h-1.4l-1.4 2.1-.3.6c0-.3.1-.5.1-.7v-2.1h-1.4v4.4h1.4l1.4-2c.1-.2.3-.5.4-.7 0 .3-.1.5-.1.8v2h1.3zm-7.2-3.2c1.2-.2 1.2-.7 1.9-2.9h-1.7c-.6 1.8-.7 2.4-1.3 2.4h-.3c0-.3.1-.5.1-.8v-1.6h-1.6v1.6c0 .2 0 .5.1.8h-.3c-.6 0-.7-.6-1.2-2.4h-1.7c.6 2.2.7 2.7 1.9 2.9v.1c-1.2.2-1.3.7-2 3.2h1.7c.7-2.2.8-2.6 1.4-2.6h.3c0 .2-.1.4-.1.6v2.1h1.6V209c0-.2 0-.4-.1-.6h.3c.6 0 .7.4 1.4 2.6h1.8c-.9-2.6-.9-3.1-2.2-3.3zm52.4-65.4.1-1.2h-3.8l-.2 2.8c0 .3.2.5.5.6l1 .1c.8.1 1.1.2 1.1.8 0 .5-.2.7-1 .7-.4 0-1 0-1.6-.1l-.2 1.3c.8.1 1.6.2 2.2.2 1.7 0 2.2-.9 2.2-2 0-1-.4-1.9-1.8-2l-1-.1.1-.9h2.4zm-5.8 3.4c-.4 0-.6.1-.6.6v.4c0 .4.1.6.6.6h.4c.4 0 .6-.1.6-.6v-.4c0-.4-.1-.6-.6-.6h-.4zm-5.7-3.3h1.9c.5 0 .7 0 .7.3s-.4.9-1.1 1.6l-1.4 1.4c-.2.2-.2.4-.2.7v.9h4.6v-1.4h-1.8c-.3 0-.6 0-.9.1l1.5-1.5c.8-.8 1-1.2 1-1.9 0-1.2-.9-1.5-2.2-1.5-.7 0-1.3 0-2.2.2l.1 1.1zm-1.2 4.8v-6.1h-1.7l-1.6.6.2 1.1 1.4-.3c-.1.2-.1.5-.1.7v4.1h1.8zm20.7-12.1c0-.2.1-.3.4-.3h.9v.6c-.3.2-.6.3-.9.3-.3 0-.4-.1-.4-.4v-.2zm-1.2-1.8c.7 0 1.4-.1 1.9-.1s.6.1.6.5v.1h-1.5c-.9 0-1.4.4-1.4 1.1v.4c0 .8.7 1.3 1.5 1.3s1.3-.4 1.6-.8l.2.6h1.3v-2.8c0-1.3-.7-1.7-1.8-1.7-.6 0-1.8.1-2.4.2v1.2zm-.8.1v-1.2h-4.4v1.2h1.4v3.2h1.6v-3.2h1.4zm-7.9 1.7c0-.2.1-.3.4-.3h.9v.6c-.3.2-.6.3-.9.3-.3 0-.4-.1-.4-.4v-.2zm-1.2-1.8c.7 0 1.4-.1 1.9-.1s.6.1.6.5v.1H184c-.9 0-1.4.4-1.4 1.1v.4c0 .8.7 1.3 1.5 1.3s1.3-.4 1.6-.8l.2.6h1.3v-2.8c0-1.3-.7-1.7-1.8-1.7-.7 0-1.8.1-2.4.2l-.1 1.2zm-1.1-1.1h-1.6v1.6h-1.4v-1.6h-1.6v4.4h1.6v-1.8h1.4v1.8h1.6v-4.4zm-7.4 0c-.3 0-.6.2-.6.5l-.4 1.6c0 .2-.1.4-.1.7h-.1c0-.2 0-.4-.1-.7l-.4-1.6c-.1-.3-.3-.5-.6-.5h-1.4c-.4 0-.6.2-.6.6l-.1 3.9h1.5l.1-3.2h.1l.5 2.1c.1.3.3.5.6.5h.7c.3 0 .5-.2.6-.5l.5-2.1h.1l.1 3.2h1.5l-.1-3.9c0-.4-.2-.6-.6-.6h-1.2zm-7.4 1c.5 0 .7.2.7 1.2s-.1 1.2-.7 1.2-.7-.2-.7-1.2.2-1.2.7-1.2m0-1.2c-1.7 0-2.4.6-2.4 2.3 0 1.7.6 2.3 2.4 2.3 1.7 0 2.4-.6 2.4-2.3 0-1.6-.6-2.3-2.4-2.3m-4.4 2.3c1-.2 1-.2 1.5-2.1h-1.6c-.4 1.5-.4 1.6-1 1.6h-.2c0-.2.1-.4.1-.6v-1h-1.6v4.4h1.6v-1.4c0-.1 0-.2-.1-.4h.4c.5 0 .5.1 1 1.8h1.7c-.7-2.1-.8-2.1-1.8-2.3zm28.5-10.8h-.6c-.4 0-.5-.1-.5-.6 0-.3.1-.4.5-.4h.6v1zm-1.8.5c-.3 0-.7.1-.8.5l-.3 1.4h1.7l.3-1.2c0-.2.1-.3.4-.3h.6v1.4h1.6v-4.5c-.6-.1-1-.1-2.2-.1-1.6 0-2 .3-2 1.4-.2.8 0 1.3.7 1.4zm-4.7.4c0-.2.1-.3.4-.3h.9v.6c-.3.2-.6.3-.9.3-.3 0-.4-.1-.4-.4v-.2zm-1.2-1.7c.7 0 1.4-.1 1.9-.1s.6.1.6.5v.1h-1.5c-.9 0-1.4.4-1.4 1.1v.4c0 .8.7 1.3 1.5 1.3s1.3-.4 1.6-.8l.2.6h1.3V123c0-1.3-.7-1.7-1.8-1.7-.6 0-1.8.1-2.4.2v1.2zm-1.1-1.2h-2.7c-.8 0-1.2.4-1.2 1.1-.1.8-.1 1.4-.2 1.7-.1.4-.4.3-.7.4l.2 1.2c1 .2 1.8-.1 2-1.2.1-.4.2-1.2.3-1.9 0-.3.2-.4.4-.4h.4v3.3h1.6v-4.2zm-5.4 4.4v-4.4h-1.4l-1.4 2.1-.3.6c0-.3.1-.5.1-.7v-2.1h-1.4v4.4h1.4l1.4-2c.1-.2.3-.5.4-.7 0 .3-.1.5-.1.8v2h1.3zm-7.1-3.2c1.2-.2 1.2-.7 1.9-2.9H170c-.6 1.8-.7 2.4-1.3 2.4h-.3c0-.3.1-.5.1-.8v-1.6h-1.6v1.6c0 .2 0 .5.1.8h-.3c-.6 0-.7-.6-1.2-2.4h-1.7c.6 2.2.7 2.7 1.9 2.9v.1c-1.2.2-1.3.7-2 3.2h1.7c.7-2.2.8-2.6 1.4-2.6h.3c0 .2-.1.4-.1.6v2.1h1.6V124c0-.2 0-.4-.1-.6h.3c.6 0 .7.4 1.4 2.6h1.8c-.9-2.6-1-3.1-2.2-3.3z" style="clip-path:url(#SVGID_28_);fill:#39373a"/><path d="M74.9 297H207v6.2H74.9z" class="st1"/><path d="M74.9 277.4h4.5v22.7h-4.5zm125.9-3.5h6.2v29.2h-6.2z" class="st1"/><defs><path id="SVGID_29_" d="M9.4 11.1h233.7v292.1H9.4z"/></defs><clipPath id="SVGID_30_"><use xlink:href="#SVGID_29_" style="overflow:visible"/></clipPath><path d="M153.2 288.1c.7 0 .8.2.8.8 0 .6-.1.8-.8.8-.7 0-.9-.2-.9-.8.1-.7.2-.8.9-.8m0-2.5c.6 0 .8.1.8.7 0 .5-.1.7-.7.7s-.8-.1-.8-.7.1-.7.7-.7m-1.3 2c-.9.1-1.1.8-1.1 1.6 0 1.2.5 1.7 2.4 1.7s2.4-.5 2.4-1.7c0-.8-.2-1.6-1.1-1.6.7-.1.9-.7.9-1.4 0-1.1-.4-1.6-2.3-1.6-1.8 0-2.2.5-2.2 1.6.1.6.3 1.3 1 1.4zm-2.8 1.6c-.4 0-.6.1-.6.6v.4c0 .4.1.6.6.6h.4c.4 0 .6-.1.6-.6v-.4c0-.4-.1-.6-.6-.6h-.4zm-1.1-.9h-.7v-2.5H146l-.3 1v1.6h-1.2c-.1 0-.2-.1-.2-.3l1.3-3.5H144l-1.5 3.9c-.2.5.1.9.6.9h2.5v1.3h1.5v-1.3l.7-.2v-.9z" style="clip-path:url(#SVGID_30_);fill:#39373a"/><path d="M80.9 272.6h64.5v2.1H80.9zM236 15.6h2.1V147H236z" class="st5"/></g></switch></svg>