<svg xmlns="http://www.w3.org/2000/svg" xmlns:xlink="http://www.w3.org/1999/xlink" xml:space="preserve" id="Слой_1" x="0" y="0" style="enable-background:new 0 0 334 278" version="1.1" viewBox="0 0 334 278"><style>.st0{fill:#fff5a4}.st1{fill:#39373a}.st2{stroke-width:.669}.st2,.st3,.st7{fill:none;stroke:#39373a}.st3{stroke-width:.539}.st7{stroke-width:.447}.st16{clip-path:url(#SVGID_20_);fill:none;stroke:#39373a;stroke-width:.567}.st18{clip-path:url(#SVGID_22_);fill:#39373a}.st19{fill:none;stroke:#39373a;stroke-width:.236}.st19,.st20{clip-path:url(#SVGID_22_)}.st20,.st21{fill:none;stroke:#39373a;stroke-width:.279}.st22{clip-path:url(#SVGID_24_);fill:#39373a}.st23,.st24{fill:none;stroke:#39373a}.st23{clip-path:url(#SVGID_24_);stroke-width:.279}.st24{stroke-width:.244}.st31{clip-path:url(#SVGID_32_);fill:#39373a}</style><switch><g><path d="M100.3 154.8h202.9v101.7H100.3z" class="st0"/><path d="M23.9 63.9h247.4V203H23.9z" class="st0"/><path d="M102.5 205.9h7V221h-7zm93 0h7V221h-7zm-157.1-64h19.1v8.9H38.4z" class="st1"/><path d="M38.4 135h19.1v8.9H38.4z" class="st1"/><path d="M100.6 46.3h23.1v8.3h-23.1z" class="st2"/><path d="M100.6 46.3h23.1v17.3h-23.1zm-64.2 0h37.3v8.3H36.4z" class="st2"/><path d="M36.4 46.3h37.3v17.3H36.4zm235.2 68.8h9.5v23.4h-9.5z" class="st2"/><path d="M271.6 115.1h17.3v23.4h-17.3z" class="st2"/><path d="m168.435 151.222 17.359-10.33.562.946-17.359 10.33z" class="st3"/><defs><path id="SVGID_1_" d="M16.6 15.2h302.1v246.9H16.6z"/></defs><clipPath id="SVGID_2_"><use xlink:href="#SVGID_1_" style="overflow:visible"/></clipPath><path d="M186.4 142s1.2 1.7 2.5 5.6c.5 1.5.9 3 1.1 4.2" style="clip-path:url(#SVGID_2_);fill:none;stroke:#39373a;stroke-width:.539"/><path d="m202.098 171.498.945-.563 10.33 17.36-.946.562z" class="st3"/><defs><path id="SVGID_3_" d="M16.6 15.2h302.1v246.9H16.6z"/></defs><clipPath id="SVGID_4_"><use xlink:href="#SVGID_3_" style="overflow:visible"/></clipPath><path d="M212.3 189s-1.7 1.2-5.6 2.5c-1.5.5-3 .9-4.2 1.1" style="clip-path:url(#SVGID_4_);fill:none;stroke:#39373a;stroke-width:.539"/><path d="m270.66 110.897 10.33-17.36.946.563-10.33 17.36z" class="st3"/><defs><path id="SVGID_5_" d="M16.6 15.2h302.1v246.9H16.6z"/></defs><clipPath id="SVGID_6_"><use xlink:href="#SVGID_5_" style="overflow:visible"/></clipPath><path d="M271.7 111.6s1.7 1.2 5.6 2.5c1.5.5 3 .9 4.2 1.1" style="clip-path:url(#SVGID_6_);fill:none;stroke:#39373a;stroke-width:.539"/><path d="m106.346 142.97.46-.773 14.953 8.898-.46.773z" class="st7"/><defs><path id="SVGID_7_" d="M16.6 15.2h302.1v246.9H16.6z"/></defs><clipPath id="SVGID_8_"><use xlink:href="#SVGID_7_" style="overflow:visible"/></clipPath><path d="M106.3 143s-1 1.4-2.1 4.7c-.4 1.2-.7 2.5-.9 3.5" style="clip-path:url(#SVGID_8_);fill:none;stroke:#39373a;stroke-width:.447"/><path d="m84.812 151.123 14.953-8.899.46.774-14.952 8.898z" class="st7"/><defs><path id="SVGID_9_" d="M16.6 15.2h302.1v246.9H16.6z"/></defs><clipPath id="SVGID_10_"><use xlink:href="#SVGID_9_" style="overflow:visible"/></clipPath><path d="M100.3 143s1 1.4 2.1 4.7c.4 1.2.7 2.5.9 3.5" style="clip-path:url(#SVGID_10_);fill:none;stroke:#39373a;stroke-width:.447"/><path d="M40.3 137.4h10.4v4.2H40.3zm12 0h3.3v4.2h-3.3zm-12 6.8h10.4v4.2H40.3zm12 0h3.3v4.2h-3.3zm145.1 63.2h3.3v8.2h-3.3zm0 9.5h3.3v2.6h-3.3zm-93-9.5h3.3v8.2h-3.3zm0 9.5h3.3v2.6h-3.3zm-83.5-29.8h31.8v18.8H20.9z" style="fill:#fff"/><path d="M314.1 200.6v42.7m-10.6-53.8h8v58.7h-8z" class="st2"/><defs><path id="SVGID_11_" d="M16.6 15.2h302.1v246.9H16.6z"/></defs><clipPath id="SVGID_12_"><use xlink:href="#SVGID_11_" style="overflow:visible"/></clipPath><path d="M303.5 189.5h14.8v58.7h-14.8z" style="clip-path:url(#SVGID_12_);fill:none;stroke:#39373a;stroke-width:.669"/><path d="m109.957 203.138 14.953-8.898.563.946-14.953 8.897z" class="st3"/><defs><path id="SVGID_13_" d="M16.6 15.2h302.1v246.9H16.6z"/></defs><clipPath id="SVGID_14_"><use xlink:href="#SVGID_13_" style="overflow:visible"/></clipPath><path d="M125.6 195.3s1.2 1.7 2.5 5.6c.5 1.5.9 3 1.1 4.2" style="clip-path:url(#SVGID_14_);fill:none;stroke:#39373a;stroke-width:.539"/><path d="m71.388 219.727 22.773-13.551.563.945-22.773 13.551z" class="st3"/><defs><path id="SVGID_15_" d="M16.6 15.2h302.1v246.9H16.6z"/></defs><clipPath id="SVGID_16_"><use xlink:href="#SVGID_15_" style="overflow:visible"/></clipPath><path d="M71.3 219.6s-1.2-1.7-2.5-5.6c-.5-1.5-.9-3-1.1-4.2" style="clip-path:url(#SVGID_16_);fill:none;stroke:#39373a;stroke-width:.539"/><path d="m178.574 195.154.562-.946 14.953 8.898-.562.945z" class="st3"/><defs><path id="SVGID_17_" d="M16.6 15.2h302.1v246.9H16.6z"/></defs><clipPath id="SVGID_18_"><use xlink:href="#SVGID_17_" style="overflow:visible"/></clipPath><path d="M178.5 195.3s-1.2 1.7-2.5 5.6c-.5 1.5-.9 3-1.1 4.2" style="clip-path:url(#SVGID_18_);fill:none;stroke:#39373a;stroke-width:.539"/><path d="m54.343 186.18 10.738-18.047.946.562-10.739 18.047z" class="st3"/><defs><path id="SVGID_19_" d="M16.6 15.2h302.1v246.9H16.6z"/></defs><clipPath id="SVGID_20_"><use xlink:href="#SVGID_19_" style="overflow:visible"/></clipPath><path d="M65 168.1s-1.7-1.2-5.6-2.5c-1.5-.5-3-.9-4.2-1.1" style="clip-path:url(#SVGID_20_);fill:none;stroke:#39373a;stroke-width:.539"/><path d="M153.9 211.7s5.4 0 5.4 5.4v32s0 5.4-5.4 5.4h-7.2s-5.4 0-5.4-5.4v-32s0-5.4 5.4-5.4h7.2z" class="st16"/><path d="M152.2 214.6s5.4 0 5.4 5.4v26.1s0 5.4-5.4 5.4h-3.8s-5.4 0-5.4-5.4V220s0-5.4 5.4-5.4h3.8z" class="st16"/><path d="M153.3 218.2s2.7 0 2.7 2.7v26.2s0 2.7-2.7 2.7h-6s-2.7 0-2.7-2.7v-26.2s0-2.7 2.7-2.7h6z" class="st16"/><path d="M150.3 246.6c-.4 0-.8-.4-.8-.8s.4-.8.8-.8.8.4.8.8-.3.8-.8.8z" class="st16"/><path d="M140.4 209.7v49.7m20.9-49.4h-20.8" style="fill:none;stroke:#39373a;stroke-width:.567"/><defs><path id="SVGID_21_" d="M16.6 15.2h302.1v246.9H16.6z"/></defs><clipPath id="SVGID_22_"><use xlink:href="#SVGID_21_" style="overflow:visible"/></clipPath><path d="M179.7 229.5c0-2.8-2.3-5.1-5.1-5.1h-5.4c-.4 0-.8.4-.8.8v11.6c0 .4.3.8.8.8h5.4c2.8 0 5.1-2.3 5.1-5.1v-3zm-11.6 7.2v-11.6c0-.6.5-1.1 1.1-1.1h5.4c3 0 5.4 2.4 5.4 5.4v2.9c0 3-2.4 5.4-5.4 5.4h-5.4c-.6.1-1.1-.4-1.1-1" class="st18"/><path d="M179.7 229.5c0-2.8-2.3-5.1-5.1-5.1h-5.4c-.4 0-.8.4-.8.8v11.6c0 .4.3.8.8.8h5.4c2.8 0 5.1-2.3 5.1-5.1v-3zm-11.6 7.2v-11.6c0-.6.5-1.1 1.1-1.1h5.4c3 0 5.4 2.4 5.4 5.4v2.9c0 3-2.4 5.4-5.4 5.4h-5.4c-.6.1-1.1-.4-1.1-1z" class="st19"/><path d="M178.4 229.5c0-2.1-1.7-3.8-3.8-3.8h-3.2c-.4 0-.7.3-.7.7v9.2c0 .4.3.7.7.7h3.2c2.1 0 3.8-1.7 3.8-3.8v-3zm-7.9 6.1v-9.2c0-.5.4-1 1-1h3.2c2.3 0 4.1 1.9 4.1 4.1v2.9c0 2.3-1.9 4.1-4.1 4.1h-3.2c-.6 0-1-.4-1-.9" class="st18"/><path d="M178.4 229.5c0-2.1-1.7-3.8-3.8-3.8h-3.2c-.4 0-.7.3-.7.7v9.2c0 .4.3.7.7.7h3.2c2.1 0 3.8-1.7 3.8-3.8v-3zm-7.9 6.1v-9.2c0-.5.4-1 1-1h3.2c2.3 0 4.1 1.9 4.1 4.1v2.9c0 2.3-1.9 4.1-4.1 4.1h-3.2c-.6 0-1-.4-1-.9z" class="st19"/><path d="M175.7 231c0-.3-.3-.6-.6-.6-.4 0-.6.3-.6.6 0 .4.3.6.6.6s.6-.3.6-.6m-1.5 0c0-.5.4-.9.9-.9s.9.4.9.9-.4.9-.9.9-.9-.4-.9-.9" class="st18"/><path d="M175.7 231c0-.3-.3-.6-.6-.6-.4 0-.6.3-.6.6 0 .4.3.6.6.6s.6-.3.6-.6zm-1.5 0c0-.5.4-.9.9-.9s.9.4.9.9-.4.9-.9.9-.9-.4-.9-.9z" class="st19"/><path d="M130.5 243.5c-2.8 0-5.1 2.3-5.1 5.1v5.4c0 .4.3.8.8.8h11.6c.4 0 .8-.3.8-.8v-5.4c0-2.8-2.3-5.1-5.1-5.1h-3zm7.2 11.6h-11.6c-.6 0-1.1-.5-1.1-1.1v-5.4c0-3 2.4-5.4 5.4-5.4h2.9c3 0 5.4 2.4 5.4 5.4v5.4c.1.6-.4 1.1-1 1.1" class="st18"/><path d="M130.5 243.5c-2.8 0-5.1 2.3-5.1 5.1v5.4c0 .4.3.8.8.8h11.6c.4 0 .8-.3.8-.8v-5.4c0-2.8-2.3-5.1-5.1-5.1h-3zm7.2 11.6h-11.6c-.6 0-1.1-.5-1.1-1.1v-5.4c0-3 2.4-5.4 5.4-5.4h2.9c3 0 5.4 2.4 5.4 5.4v5.4c.1.6-.4 1.1-1 1.1z" class="st19"/><path d="M130.5 244.8c-2.1 0-3.8 1.7-3.8 3.8v3.2c0 .4.3.7.7.7h9.2c.4 0 .7-.3.7-.7v-3.2c0-2.1-1.7-3.8-3.8-3.8h-3zm6 7.9h-9.2c-.5 0-1-.4-1-1v-3.2c0-2.3 1.9-4.1 4.1-4.1h2.9c2.3 0 4.1 1.9 4.1 4.1v3.2c.1.6-.3 1-.9 1" class="st18"/><path d="M130.5 244.8c-2.1 0-3.8 1.7-3.8 3.8v3.2c0 .4.3.7.7.7h9.2c.4 0 .7-.3.7-.7v-3.2c0-2.1-1.7-3.8-3.8-3.8h-3zm6 7.9h-9.2c-.5 0-1-.4-1-1v-3.2c0-2.3 1.9-4.1 4.1-4.1h2.9c2.3 0 4.1 1.9 4.1 4.1v3.2c.1.6-.3 1-.9 1z" class="st19"/><path d="M131.9 247.5c-.4 0-.6.3-.6.6s.3.6.6.6.6-.3.6-.6c0-.4-.2-.6-.6-.6m0 1.5c-.5 0-.9-.4-.9-.9s.4-.9.9-.9.9.4.9.9-.4.9-.9.9" class="st18"/><path d="M131.9 247.5c-.4 0-.6.3-.6.6s.3.6.6.6.6-.3.6-.6c0-.4-.2-.6-.6-.6zm0 1.5c-.5 0-.9-.4-.9-.9s.4-.9.9-.9.9.4.9.9-.4.9-.9.9z" class="st19"/><path d="M186.2 237.5c2.6 0 4.7 2.1 4.7 4.8v6.9c0 .5-.4.8-.8.8h-7.8c-.4 0-.8-.4-.8-.8v-6.9c0-2.7 2.1-4.8 4.7-4.8m-3.9 12.8h7.8c.6 0 1.1-.5 1.1-1.1v-6.9c0-2.8-2.3-5.1-5-5.1-2.8 0-5 2.3-5 5.1v6.9c-.1.6.4 1.1 1.1 1.1" class="st18"/><path d="M186.2 237.5c2.6 0 4.7 2.1 4.7 4.8v6.9c0 .5-.4.8-.8.8h-7.8c-.4 0-.8-.4-.8-.8v-6.9c0-2.7 2.1-4.8 4.7-4.8zm-3.9 12.8h7.8c.6 0 1.1-.5 1.1-1.1v-6.9c0-2.8-2.3-5.1-5-5.1-2.8 0-5 2.3-5 5.1v6.9c-.1.6.4 1.1 1.1 1.1z" class="st20"/><path d="M189.6 247.7h-6.8s-.1 0-.1-.1v-5.2c0-1.9 1.6-3.5 3.5-3.5s3.5 1.6 3.5 3.5l-.1 5.3c0-.1 0 0 0 0z" class="st20"/><path d="M189.5 247.5h-6.6v-5.1c0-1.8 1.5-3.3 3.3-3.3 1.8 0 3.3 1.5 3.3 3.3v5.1zm-6.7.3h6.8c.1 0 .2-.1.2-.2v-5.2c0-2-1.6-3.7-3.6-3.7s-3.6 1.6-3.6 3.7v5.2c0 .1.1.2.2.2" class="st18"/><path d="M189.5 247.5h-6.6v-5.1c0-1.8 1.5-3.3 3.3-3.3 1.8 0 3.3 1.5 3.3 3.3v5.1zm-6.7.3h6.8c.1 0 .2-.1.2-.2v-5.2c0-2-1.6-3.7-3.6-3.7s-3.6 1.6-3.6 3.7v5.2c0 .1.1.2.2.2z" class="st20"/><path d="M186.2 242.4c.5 0 .9.4.9.9s-.4.9-.9.9-.9-.4-.9-.9.4-.9.9-.9m0 2.1c.7 0 1.2-.5 1.2-1.2s-.5-1.2-1.2-1.2-1.2.5-1.2 1.2c0 .6.5 1.2 1.2 1.2" class="st18"/><path d="M186.2 242.4c.5 0 .9.4.9.9s-.4.9-.9.9-.9-.4-.9-.9.4-.9.9-.9zm0 2.1c.7 0 1.2-.5 1.2-1.2s-.5-1.2-1.2-1.2-1.2.5-1.2 1.2c0 .6.5 1.2 1.2 1.2z" class="st20"/><path d="m188.8 247 .3-.2-1.6-2.1-.3.2z" class="st1"/><path d="m188.8 247 .3-.2-1.6-2.1-.3.2z" class="st21"/><path d="m183.6 247 1.6-2.1-.3-.2-1.5 2.1z" class="st1"/><path d="m183.6 247 1.6-2.1-.3-.2-1.5 2.1z" class="st21"/><defs><path id="SVGID_23_" d="M16.6 15.2h302.1v246.9H16.6z"/></defs><clipPath id="SVGID_24_"><use xlink:href="#SVGID_23_" style="overflow:visible"/></clipPath><path d="M189.4 250.4c.7 0 1.3.6 1.3 1.3v1.8c0 .7-.6 1.3-1.3 1.3h-6.5c-.7 0-1.3-.6-1.3-1.3v-1.8c0-.7.6-1.3 1.3-1.3h6.5zm-6.5 4.7h6.5c.9 0 1.6-.7 1.6-1.6v-1.8c0-.9-.7-1.6-1.6-1.6h-6.5c-.9 0-1.6.7-1.6 1.6v1.8c0 .9.7 1.6 1.6 1.6" class="st22"/><path d="M189.4 250.4c.7 0 1.3.6 1.3 1.3v1.8c0 .7-.6 1.3-1.3 1.3h-6.5c-.7 0-1.3-.6-1.3-1.3v-1.8c0-.7.6-1.3 1.3-1.3h6.5zm-6.5 4.7h6.5c.9 0 1.6-.7 1.6-1.6v-1.8c0-.9-.7-1.6-1.6-1.6h-6.5c-.9 0-1.6.7-1.6 1.6v1.8c0 .9.7 1.6 1.6 1.6z" class="st23"/><path d="M186.2 252.1c.3 0 .5.2.5.5s-.2.5-.5.5-.5-.2-.5-.5.2-.5.5-.5m0 1.3c.4 0 .8-.4.8-.8s-.4-.8-.8-.8-.8.4-.8.8.3.8.8.8" class="st22"/><path d="M186.2 252.1c.3 0 .5.2.5.5s-.2.5-.5.5-.5-.2-.5-.5.2-.5.5-.5zm0 1.3c.4 0 .8-.4.8-.8s-.4-.8-.8-.8-.8.4-.8.8.3.8.8.8z" class="st23"/><path d="M24.4 129.6h15.9v-15.9H24.4v15.9zm-.4-16.2h16.6V130H24v-16.6z" class="st1"/><path d="M24.4 129.6h15.9v-15.9H24.4v15.9zm-.4-16.2h16.6V130H24v-16.6z" class="st24"/><defs><path id="SVGID_25_" d="M16.6 15.2h302.1v246.9H16.6z"/></defs><clipPath id="SVGID_26_"><use xlink:href="#SVGID_25_" style="overflow:visible"/></clipPath><path d="M38.8 116.1c0-.4-.3-.7-.7-.7h-8.3c-.4 0-.7.3-.7.7v11.1c0 .4.3.7.7.7h8.3c.4 0 .7-.3.7-.7v-11.1zm-10.1 11.1v-11.1c0-.6.5-1.1 1.1-1.1h8.3c.6 0 1.1.5 1.1 1.1v11.1c0 .6-.5 1.1-1.1 1.1h-8.3c-.7 0-1.1-.5-1.1-1.1" style="clip-path:url(#SVGID_26_);fill:#39373a"/><path d="M38.8 116.1c0-.4-.3-.7-.7-.7h-8.3c-.4 0-.7.3-.7.7v11.1c0 .4.3.7.7.7h8.3c.4 0 .7-.3.7-.7v-11.1zm-10.1 11.1v-11.1c0-.6.5-1.1 1.1-1.1h8.3c.6 0 1.1.5 1.1 1.1v11.1c0 .6-.5 1.1-1.1 1.1h-8.3c-.7 0-1.1-.5-1.1-1.1z" style="clip-path:url(#SVGID_26_);fill:none;stroke:#39373a;stroke-width:.244"/><path d="M30.2 126.7h7.3v-10.1h-7.3v10.1zm-.3-10.4h8V127h-8v-10.7z" class="st1"/><path d="M30.2 126.7h7.3v-10.1h-7.3v10.1zm-.3-10.4h8V127h-8v-10.7z" class="st24"/><defs><path id="SVGID_27_" d="M16.6 15.2h302.1v246.9H16.6z"/></defs><clipPath id="SVGID_28_"><use xlink:href="#SVGID_27_" style="overflow:visible"/></clipPath><path d="M35.3 121.6c0-.5-.4-.9-.9-.9s-.9.4-.9.9.4.9.9.9.9-.4.9-.9m-2.2 0c0-.7.6-1.3 1.3-1.3.7 0 1.3.6 1.3 1.3 0 .7-.6 1.3-1.3 1.3-.7 0-1.3-.6-1.3-1.3" style="clip-path:url(#SVGID_28_);fill:#39373a"/><path d="M35.3 121.6c0-.5-.4-.9-.9-.9s-.9.4-.9.9.4.9.9.9.9-.4.9-.9zm-2.2 0c0-.7.6-1.3 1.3-1.3.7 0 1.3.6 1.3 1.3 0 .7-.6 1.3-1.3 1.3-.7 0-1.3-.6-1.3-1.3z" style="clip-path:url(#SVGID_28_);fill:none;stroke:#39373a;stroke-width:.244"/><path d="m127.625 63.059 17.187-10.228.563.946-17.187 10.227z" class="st3"/><defs><path id="SVGID_29_" d="M16.6 15.2h302.1v246.9H16.6z"/></defs><clipPath id="SVGID_30_"><use xlink:href="#SVGID_29_" style="overflow:visible"/></clipPath><path d="M127.5 63s-1.2-1.7-2.5-5.6c-.5-1.5-.9-3-1.1-4.2" style="clip-path:url(#SVGID_30_);fill:none;stroke:#39373a;stroke-width:.539"/><path d="M67.4 151.9V63.2" style="fill:none;stroke:#39373a;stroke-width:1.116;stroke-dasharray:4.666,4.666"/><path d="M62.9 45.9h42.4v9H62.9zM30.2 21.1h137.9v6.2H30.2z" class="st1"/><path d="M160.4 15.2h40.5v6.2h-40.5z" class="st1"/><path d="M194.7 15.2h6.2v33.1h-6.2zM18.9 45.9h22.5v9H18.9zm262.3 4.9h8.1v46.7h-8.1zm0 80.9h8.1v22.7h-8.1zm30.2 14.5h7.3v55.2h-7.3z" class="st1"/><path d="M311.4 45.9h7.3v125.8h-7.3z" class="st1"/><path d="M268.4 45.9h50.3v7.3h-50.3zm43 193.4h7.3V260h-7.3z" class="st1"/><path d="M138.7 45.9h150.7v9H138.7zm-73.6 6.2H103v11.8H65.1zm-46.2 0h20.3v11.8H18.9zm0-31h14.2v27.2H18.9z" class="st1"/><path d="M271.3 50.8h11.8v44.7h-11.8zm0 82.9h11.8v20.7h-11.8zm31.9 15H315v50.6h-11.8zm0 92.7H315v16.8h-11.8z" class="st1"/><path d="M299.5 246.9h11.8v11h-11.8zm0-96h11.8v30.3h-11.8zM49.7 206.6h18.2v4.4H49.7z" class="st1"/><path d="M49.7 203h18.2v5.8H49.7zm46.9 2.9h7.3v52.4h-7.3z" class="st1"/><path d="M49.7 182.3h7.1v22h-7.1zm3-33.3h4.9v15.9h-4.9zm-31.8-14H39v4.9H20.9zm180 15.9h4.9v22.5h-4.9zm0 41.2h4.9v66.6h-4.9zM128.4 203h46.8v4.3h-46.8z" class="st1"/><path d="M191.9 203h12.2v4.3h-12.2zm-31.3 0h7.3v52.4h-7.3zm-64 52.5h222v6.7h-222zM93.4 203h18.7v4.3H93.4z" class="st1"/><path d="M93.4 205.9h8.7v5.1h-8.7zm-36.6-55h30.7v3.9H56.8zm62.7 0h52.1v3.9h-52.1zm70.4 0h118.4v3.9H189.9zM20.2 182.3h33.7v7.9H20.2z" class="st1"/><path d="M286.2 137.7h32.5v16.8h-32.5zM140.7 52.9h148.7v11H140.7zM16.6 21.1h7.3v169.1h-7.3z" class="st1"/><path d="M161.2 62.6h4.3v90.2h-4.3z" class="st1"/><path d="M158.2 62.6h4.3v27.8h-4.3zm0 68.7h4.3v21.5h-4.3z" class="st1"/><path d="M106.4 243.3h16.9v14h-16.9z" class="st3"/><defs><path id="SVGID_31_" d="M16.6 15.2h302.1v246.9H16.6z"/></defs><clipPath id="SVGID_32_"><use xlink:href="#SVGID_31_" style="overflow:visible"/></clipPath><path d="M224.7 118c.7 0 .9.3.9 1.9 0 1.6-.2 1.9-.9 1.9s-.8-.3-.8-1.9c-.1-1.6.1-1.9.8-1.9m0-1.3c-1.9 0-2.5.8-2.5 3.2s.6 3.2 2.5 3.2 2.5-.8 2.5-3.2-.7-3.2-2.5-3.2m-4.2 4.8c-.4 0-.6.1-.6.6v.4c0 .4.1.6.6.6h.4c.4 0 .6-.1.6-.6v-.5c0-.4-.1-.6-.6-.6h-.4zm-1.5-3.4.1-1.2h-3.8l-.2 2.8c0 .3.2.5.5.6l1 .1c.8.1 1.1.2 1.1.8 0 .5-.2.7-1 .7-.4 0-1 0-1.6-.1l-.2 1.3c.8.1 1.6.2 2.2.2 1.7 0 2.2-.9 2.2-2 0-1-.4-1.9-1.8-2l-1-.1.1-.9h2.4zm-5.1 4.9v-6.1h-1.7l-1.6.6.2 1.1 1.4-.3c-.1.2-.1.5-.1.7v4.1h1.8zm20.9-12.2c0-.2.1-.3.4-.3h.9v.6c-.3.2-.6.3-.9.3-.3 0-.4-.1-.4-.4v-.2zm-1.2-1.7c.7 0 1.4-.1 1.9-.1s.6.1.6.5v.1h-1.5c-.9 0-1.4.4-1.4 1.1v.4c0 .8.7 1.3 1.5 1.3s1.3-.4 1.6-.8l.2.6h1.3v-2.8c0-1.3-.7-1.7-1.8-1.7-.7 0-1.8.1-2.4.2v1.2zm-.8 0v-1.2h-4.4v1.2h1.4v3.2h1.6v-3.2h1.4zm-7.9 1.7c0-.2.1-.3.4-.3h.9v.6c-.3.2-.6.3-.9.3-.3 0-.4-.1-.4-.4v-.2zm-1.2-1.7c.7 0 1.4-.1 1.9-.1s.6.1.6.5v.1h-1.5c-.9 0-1.4.4-1.4 1.1v.4c0 .8.7 1.3 1.5 1.3s1.3-.4 1.6-.8l.2.6h1.3v-2.8c0-1.3-.7-1.7-1.8-1.7-.6 0-1.8.1-2.4.2v1.2zm-1.1-1.2H221v1.6h-1.4v-1.6H218v4.4h1.6v-1.8h1.4v1.8h1.6v-4.4zm-7.4 0c-.3 0-.6.2-.6.5l-.4 1.6c0 .2-.1.4-.1.7h-.1c0-.2 0-.4-.1-.7l-.4-1.6c-.1-.3-.3-.5-.6-.5h-1.4c-.4 0-.6.2-.6.6l-.1 3.9h1.5l.1-3.2h.1l.5 2.1c.1.3.3.5.6.5h.7c.3 0 .5-.2.6-.5l.5-2.1h.1l.1 3.2h1.5l-.1-3.9c0-.4-.2-.6-.6-.6h-1.2zm-7.4 1c.5 0 .7.2.7 1.2s-.1 1.2-.7 1.2-.7-.2-.7-1.2c0-.9.2-1.2.7-1.2m0-1.1c-1.7 0-2.4.6-2.4 2.3 0 1.7.6 2.3 2.4 2.3 1.7 0 2.4-.6 2.4-2.3 0-1.7-.7-2.3-2.4-2.3m-4.4 2.2c1-.2 1-.2 1.5-2.1h-1.6c-.4 1.5-.4 1.6-1 1.6h-.2c0-.2.1-.4.1-.6v-1h-1.6v4.4h1.6v-1.4c0-.1 0-.2-.1-.4h.4c.5 0 .5.1 1 1.8h1.7c-.7-2-.8-2.1-1.8-2.3zm28.5-10.7h-.6c-.4 0-.5-.1-.5-.6 0-.3.1-.4.5-.4h.6v1zm-1.8.5c-.3 0-.7.1-.8.5l-.3 1.4h1.7l.3-1.2c0-.2.1-.3.4-.3h.6v1.4h1.6v-4.5c-.6-.1-1-.1-2.2-.1-1.6 0-2 .3-2 1.4-.2.7 0 1.2.7 1.4zm-4.7.3c0-.2.1-.3.4-.3h.9v.6c-.3.2-.6.3-.9.3-.3 0-.4-.1-.4-.4v-.2zm-1.2-1.7c.7 0 1.4-.1 1.9-.1s.6.1.6.5v.2h-1.5c-.9 0-1.4.4-1.4 1.1v.4c0 .8.7 1.3 1.5 1.3s1.3-.4 1.6-.8l.2.6h1.3v-2.8c0-1.3-.7-1.7-1.8-1.7-.6 0-1.8.1-2.4.2v1.1zm-1.1-1.1h-2.7c-.8 0-1.2.4-1.2 1.1-.1.8-.1 1.4-.2 1.7-.1.4-.4.3-.7.4l.2 1.2c1 .2 1.8-.1 2-1.2.1-.4.2-1.2.3-1.9 0-.3.2-.4.4-.4h.4v3.3h1.6v-4.2zm-5.4 4.4v-4.4h-1.4l-1.4 2.1-.3.6c0-.3.1-.5.1-.7v-2.1h-1.4v4.4h1.4l1.4-2c.1-.2.3-.5.4-.7 0 .3-.1.5-.1.8v2h1.3zm-7.2-3.2c1.2-.2 1.2-.7 1.9-2.9h-1.7c-.6 1.8-.7 2.4-1.3 2.4h-.3c0-.3.1-.5.1-.8v-1.6h-1.6v1.6c0 .2 0 .5.1.8h-.3c-.6 0-.7-.6-1.2-2.4h-1.7c.6 2.2.7 2.7 1.9 2.9v.1c-1.2.2-1.3.7-2 3.2h1.7c.7-2.2.8-2.6 1.4-2.6h.3c0 .2-.1.4-.1.6v2.1h1.6v-2.1c0-.2 0-.4-.1-.6h.3c.6 0 .7.4 1.4 2.6h1.8c-.8-2.6-.9-3.1-2.2-3.3zm90.2 4.5h1.9c.5 0 .7 0 .7.3s-.4.9-1.1 1.6l-1.4 1.4c-.2.2-.2.4-.2.7v.9h4.6v-1.4h-1.8c-.3 0-.6 0-.9.1l1.5-1.5c.8-.8 1-1.2 1-1.9 0-1.2-.9-1.5-2.2-1.5-.7 0-1.3 0-2.2.2l.1 1.1zm-1.8 3.3c-.4 0-.6.1-.6.6v.4c0 .4.1.6.6.6h.4c.4 0 .6-.1.6-.6v-.4c0-.4-.1-.6-.6-.6h-.4zm-5.5-3.4h1.7c.6 0 .8.1.8.6 0 .4-.1.7-.7.7H294v1.1h1.2c.7 0 .8.2.8.7 0 .6-.2.7-1 .7-.5 0-.9 0-1.7-.1l-.1 1.2c.7.1 1.5.2 2.2.2 1.6 0 2.2-.5 2.2-1.8 0-.9-.3-1.4-1.1-1.5.8-.1 1-.7 1-1.5 0-1.1-.6-1.4-2.1-1.4-.7 0-1.4.1-2.1.2l.1.9zM114.9 35.3h1.9c.5 0 .7 0 .7.3s-.4.9-1.1 1.6l-1.4 1.4c-.2.2-.2.4-.2.7v.9h4.6v-1.4h-1.8c-.3 0-.6 0-.9.1l1.5-1.5c.8-.8 1-1.2 1-1.9 0-1.2-.9-1.5-2.2-1.5-.7 0-1.3 0-2.2.2l.1 1.1zm-1.7 3.3c-.4 0-.6.1-.6.6v.4c0 .4.1.6.6.6h.4c.4 0 .6-.1.6-.6v-.4c0-.4-.1-.6-.6-.6h-.4zm-3.5.4c-.7 0-.8-.2-.8-1.6.3-.2.5-.2.8-.2.6 0 .7.2.7.8 0 .7-.1 1-.7 1m1.8-4.9c-.6-.2-1.3-.2-1.6-.2-1.8 0-2.7.4-2.7 3.2 0 2.5.6 3.1 2.4 3.1 1.9 0 2.3-.7 2.3-2.2 0-1.4-.4-1.9-1.8-1.9-.5 0-.9.1-1.3.4 0-1.1.3-1.4 1.1-1.4h1.5l.1-1zm148 185.6v-6.1h-1.7l-1.6.6.2 1.1 1.4-.3c-.1.2-.1.5-.1.7v4.1h1.8zm-4.2-1.5c-.4 0-.6.1-.6.6v.4c0 .4.1.6.6.6h.4c.4 0 .6-.1.6-.6v-.4c0-.4-.1-.6-.6-.6h-.4zm-3.5.4c-.7 0-.8-.2-.8-1.6.3-.2.5-.2.8-.2.6 0 .7.2.7.8 0 .7 0 1-.7 1m1.9-5c-.6-.2-1.3-.2-1.6-.2-1.8 0-2.7.4-2.7 3.2 0 2.5.6 3.1 2.4 3.1 1.9 0 2.3-.7 2.3-2.2 0-1.4-.4-1.9-1.8-1.9-.5 0-.9.1-1.3.4 0-1.1.3-1.4 1.1-1.4h1.5l.1-1zm-5.4 6.1v-6.1h-1.7l-1.6.6.2 1.1 1.4-.3c-.1.2-.1.5-.1.7v4.1h1.8zm20-12.2c0-.2.1-.3.4-.3h.9v.6c-.3.2-.6.3-.9.3-.3 0-.4-.1-.4-.4v-.2zm-1.2-1.7c.7 0 1.4-.1 1.9-.1s.6.1.6.5v.1h-1.5c-.9 0-1.4.4-1.4 1.1v.4c0 .8.7 1.3 1.5 1.3s1.3-.4 1.6-.8l.2.6h1.3v-2.8c0-1.3-.7-1.7-1.8-1.7-.6 0-1.8.1-2.4.2v1.2zm-.7 0v-1.2H262v1.2h1.4v3.2h1.6v-3.2h1.4zm-7.9 1.7c0-.2.1-.3.4-.3h.9v.6c-.3.2-.6.3-.9.3-.3 0-.4-.1-.4-.4v-.2zm-1.2-1.7c.7 0 1.4-.1 1.9-.1s.6.1.6.5v.1h-1.5c-.9 0-1.4.4-1.4 1.1v.4c0 .8.7 1.3 1.5 1.3s1.3-.4 1.6-.8l.2.6h1.3v-2.8c0-1.3-.7-1.7-1.8-1.7-.6 0-1.8.1-2.4.2v1.2zm-1.1-1.2h-1.6v1.6h-1.4v-1.6h-1.6v4.4h1.6v-1.8h1.4v1.8h1.6v-4.4zm-7.5 0c-.3 0-.6.2-.6.5l-.4 1.6c0 .2-.1.4-.1.7h-.1c0-.2 0-.4-.1-.7l-.4-1.6c-.1-.3-.3-.5-.6-.5H245c-.4 0-.6.2-.6.6l-.1 3.9h1.5l.1-3.2h.1l.5 2.1c.1.3.3.5.6.5h.7c.3 0 .5-.2.6-.5l.5-2.1h.1l.1 3.2h1.5l-.1-3.9c0-.4-.2-.6-.6-.6h-1.2zm-7.3 1c.5 0 .7.2.7 1.2s-.1 1.2-.7 1.2-.7-.2-.7-1.2.1-1.2.7-1.2m0-1.1c-1.7 0-2.4.6-2.4 2.3 0 1.7.6 2.3 2.4 2.3 1.7 0 2.4-.6 2.4-2.3 0-1.7-.7-2.3-2.4-2.3m-4.4 2.2c1-.2 1-.2 1.5-2.1h-1.6c-.4 1.5-.4 1.6-1 1.6h-.2c0-.2.1-.4.1-.6v-1h-1.6v4.4h1.6v-1.4c0-.1 0-.2-.1-.4h.4c.5 0 .5.1 1 1.8h1.7c-.8-2.1-.8-2.1-1.8-2.3zm28.5-10.8h-.6c-.4 0-.5-.1-.5-.6 0-.3.1-.4.5-.4h.6v1zm-1.8.6c-.3 0-.7.1-.8.5l-.3 1.4h1.7l.3-1.2c0-.2.1-.3.4-.3h.6v1.4h1.6v-4.4c-.5-.1-1-.1-2.2-.1-1.6 0-2 .3-2 1.4-.2.6 0 1.1.7 1.3zm-4.7.3c0-.2.1-.3.4-.3h.9v.6c-.3.2-.6.3-.9.3-.3 0-.4-.1-.4-.4v-.2zm-1.2-1.7c.7 0 1.4-.1 1.9-.1s.6.1.6.5v.1h-1.5c-.9 0-1.4.4-1.4 1.1v.4c0 .8.7 1.3 1.5 1.3s1.3-.4 1.6-.8l.2.6h1.3v-2.8c0-1.3-.7-1.7-1.8-1.7-.6 0-1.8.1-2.4.2v1.2zm-1.1-1.2H254c-.8 0-1.2.4-1.2 1.1-.1.8-.1 1.4-.2 1.7-.1.4-.4.3-.7.4l.2 1.2c1 .2 1.8-.1 2-1.2.1-.4.2-1.2.3-1.9 0-.3.2-.4.4-.4h.4v3.3h1.6v-4.2zm-5.4 4.5V194h-1.4l-1.4 2.1-.3.6c0-.3.1-.5.1-.7v-2.1h-1.4v4.4h1.4l1.4-2c.1-.2.3-.5.4-.7 0 .3-.1.5-.1.8v2h1.3zm-7.2-3.3c1.2-.2 1.2-.7 1.9-2.9h-1.7c-.6 1.8-.7 2.4-1.3 2.4h-.3c0-.3.1-.5.1-.8v-1.6h-1.6v1.6c0 .2 0 .5.1.8h-.3c-.6 0-.7-.6-1.2-2.4h-1.7c.6 2.2.7 2.7 1.9 2.9v.1c-1.2.2-1.3.7-2 3.2h1.7c.7-2.2.8-2.6 1.4-2.6h.3c0 .2-.1.4-.1.6v2.1h1.6v-2.1c0-.2 0-.4-.1-.6h.3c.6 0 .7.4 1.4 2.6h1.8c-.9-2.6-.9-3-2.2-3.3zM40.2 173.5c.5 0 .6.1.6.6 0 .4-.1.5-.6.5s-.6-.1-.6-.5c0-.5.1-.6.6-.6m0-1.8c.4 0 .5.1.5.5s-.1.5-.5.5-.5-.1-.5-.5.1-.5.5-.5m-.9 1.4c-.6.1-.8.6-.8 1.1 0 .8.3 1.2 1.7 1.2s1.7-.3 1.7-1.2c0-.6-.1-1.1-.8-1.1.5-.1.7-.5.7-1 0-.8-.3-1.1-1.6-1.1s-1.6.3-1.6 1.1c.1.5.2.9.7 1zm-1.9 1.2c-.3 0-.4.1-.4.4v.3c0 .3.1.4.4.4h.3c.3 0 .4-.1.4-.4v-.3c0-.3-.1-.4-.4-.4h-.3zm-1.2 1V171H35l-1.1.4.1.7 1-.2v3.3h1.2zm5.7-9.7c.4 0 .5.1.5.8 0 .7-.1.8-.5.8s-.5-.1-.5-.8c0-.7.1-.8.5-.8m1.3-2.4c-.6.3-1.2.1-1.8.3-1 .3-1.1 1.2-1.1 2.3 0 1.1.1 2 1.7 2 1.2 0 1.6-.5 1.6-1.6 0-1-.3-1.5-1.4-1.5-.5 0-.8.2-1.1.4 0-.2 0-.3.1-.5s.2-.3.6-.4c.5-.1 1 0 1.6-.3l-.2-.7zm-5.1 2.3c.4 0 .5.2.5.8 0 .7-.1.8-.5.8s-.5-.2-.5-.8c0-.7.1-.8.5-.8m0-.8c-1.2 0-1.7.4-1.7 1.6 0 1.2.4 1.6 1.7 1.6 1.2 0 1.7-.4 1.7-1.6-.1-1.2-.5-1.6-1.7-1.6m-4.2 1c.2-.1.3-.2.6-.2s.4.1.4.8c0 .7-.1.8-.4.8-.2 0-.4-.1-.5-.1v-1.3zm-.3-.9h-.9v4.2h1.1v-1.4c.3.2.6.3 1 .3.8 0 1.2-.3 1.2-1.6 0-1.1-.3-1.7-1.1-1.7-.5 0-1 .2-1.2.5l-.1-.3zm14.2-6.3H46v.7h1.8v-.7zm-4.3.1c0-.5.1-.6.5-.6.3 0 .4.1.4.3 0 .2 0 .3-.3.3h-.6zm.9.5c.8 0 1.1-.3 1.1-.8 0-.7-.4-1.1-1.5-1.1-1.2 0-1.7.4-1.7 1.6 0 1.1.5 1.6 1.7 1.6.5 0 1-.1 1.4-.3l-.1-.7c-.5.1-.9.1-1.2.1-.4 0-.6-.1-.6-.4h.9zm-4 .5h-.9c.2-.4.3-.8.4-1.4 0-.2.1-.2.3-.2h.3v1.6zm1.6 0h-.5v-2.3h-1.7c-.6 0-.8.3-.9.8-.1.5-.2 1.1-.4 1.6h-.4v1.6h.7l.1-.9h2.2l.1.9h.8v-1.7zm-6.2-1.3c.2-.1.3-.2.6-.2s.4.1.4.8c0 .7-.1.8-.4.8-.2 0-.4-.1-.5-.1v-1.3zm-.2-1h-.9v4.2h1.1v-1.4c.3.2.6.3 1 .3.8 0 1.2-.3 1.2-1.6 0-1.1-.3-1.7-1.1-1.7-.5 0-1 .2-1.2.5l-.1-.3zm-3.6 2c0-.1.1-.2.3-.2h.6v.4c-.2.1-.4.2-.6.2-.2 0-.3-.1-.3-.2v-.2zm-.9-1.2h1.3c.3 0 .4.1.4.4v.1h-1c-.6 0-1 .3-1 .8v.3c0 .6.5.9 1 .9s.9-.3 1.1-.5l.1.5h1v-2c0-.9-.5-1.2-1.3-1.2-.5 0-1.2.1-1.7.2l.1.5zm-2.8 2.3h1.2v-3.1c0-.2.1-.3.3-.3h1.4l.1-.8c-.6-.1-1.3-.1-2-.1-.6 0-1 .4-1 .9v3.4zm21.6-52.6v-.9h-2.7l-.1 1.9c0 .2.1.4.3.4l.7.1c.6 0 .8.1.8.5 0 .3-.1.5-.7.5-.3 0-.7 0-1.1-.1l-.1.9c.5.1 1.1.1 1.5.1 1.2 0 1.6-.6 1.6-1.4 0-.7-.3-1.3-1.3-1.4l-.7-.1v-.6h1.8zm-4 2.4c-.3 0-.4.1-.4.4v.3c0 .3.1.4.4.4h.3c.3 0 .4-.1.4-.4v-.3c0-.3-.1-.4-.4-.4h-.3zm-1.1-2.4v-.9h-2.7l-.1 1.9c0 .2.1.4.3.4l.7.1c.6 0 .8.1.8.5 0 .3-.1.5-.7.5-.3 0-.7 0-1.1-.1l-.1.9c.5.1 1.1.1 1.5.1 1.2 0 1.6-.6 1.6-1.4 0-.7-.3-1.3-1.3-1.4l-.7-.1v-.6h1.8zm7.2-5.1c0-.1.1-.2.3-.2h.6v.4c-.2.1-.4.2-.6.2-.2 0-.3-.1-.3-.2v-.2zm-.9-1.2h1.3c.3 0 .4.1.4.4v.1h-1c-.6 0-1 .3-1 .8v.3c0 .6.5.9 1 .9s.9-.3 1.1-.5l.1.5h1v-2c0-.9-.5-1.2-1.3-1.2-.5 0-1.2.1-1.7.2l.1.5zm-.7-.8h-1.1v2.3h-.7v-2.3h-1v2.3h-.7v-2.3h-1.1v3.1h4.6v-3.1zm-5.4 3.1v-3.1h-1l-1 1.5c-.1.1-.2.3-.2.5v-2h-1v3.1h1l1-1.4c.1-.1.2-.3.2-.5v1.9h1zm-3.8-3.1h-1.1v1.1h-.9v-1.1H38v3.1h1.1v-1.3h.9v1.3h1.1v-3.1zm15.1-6.3h-1.8v.7h1.8v-.7zm-3.6.2h-.4c-.3 0-.3-.1-.3-.4 0-.2.1-.3.3-.3h.4v.7zm-1.2.4c-.2 0-.5.1-.6.3l-.2 1h1.2l.2-.8c0-.1.1-.2.3-.2h.4v1h1.1v-3.1c-.4 0-.7-.1-1.6-.1-1.1 0-1.4.2-1.4 1-.1.4.1.8.6.9zm-1.3-1.7h-1.1v1.1h-.9v-1.1h-1.1v3.1h1.1v-1.3h.9v1.3h1.1v-3.1zm-4.6 3h1.1l-.9-1.6.8-1.5h-1.1l-.6 1.2-.6-1.2h-1.1l.8 1.5-.9 1.6h1.1l.7-1.2.7 1.2zm-2.5-3h-1.2l-.5 1.8c0 .1-.1.3-.1.5h-.1c0-.2-.1-.4-.1-.5l-.5-1.8h-1.2l1 2.8c.1.2.2.3.4.3h.2c-.1.2-.2.3-.3.4-.2.1-.5.1-.9.1l-.1.7c.4.1.9.1 1.3-.1.5-.2.8-.5 1.1-1.2l1-3zm-5.1.8c.9-.1.9-.5 1.3-2h-1.2c-.3 1.3-.4 1.7-1 1.7h-.2v-1.6h-1.2v4.3H37v-1.8h.2c.6 0 .6.3 1.1 1.8h1.2c-.6-1.9-.6-2.3-1.5-2.4zm101.5 92.6v-6.1h-1.7l-1.6.6.2 1.1 1.4-.3c-.1.2-.1.5-.1.7v4.1h1.8zm-4.2-1.5c-.4 0-.6.1-.6.6v.4c0 .4.1.6.6.6h.4c.4 0 .6-.1.6-.6v-.4c0-.4-.1-.6-.6-.6h-.4zm-1.6 1.5v-6.1H132l-1.6.6.2 1.1 1.4-.3c-.1.2-.1.5-.1.7v4.1h1.8zm-4 0v-6.1H128l-1.6.6.2 1.1 1.4-.3c-.1.2-.1.5-.1.7v4.1h1.8zm24.3-13.1h-.6c-.4 0-.5-.1-.5-.6 0-.3.1-.4.5-.4h.6v1zm-1.7.6c-.3 0-.7.1-.8.5l-.3 1.4h1.7l.3-1.2c0-.2.1-.3.4-.3h.6v1.4h1.6v-4.4c-.6-.1-1-.1-2.2-.1-1.6 0-2 .3-2 1.4-.3.6-.1 1.1.7 1.3zm-4.7.3c0-.2.1-.3.4-.3h.9v.6c-.3.2-.6.3-.9.3-.3 0-.4-.1-.4-.4v-.2zm-1.2-1.7c.7 0 1.4-.1 1.9-.1s.6.1.6.5v.1h-1.5c-.9 0-1.4.4-1.4 1.1v.4c0 .8.7 1.3 1.5 1.3s1.3-.4 1.6-.8l.2.6h1.3v-2.8c0-1.3-.7-1.7-1.8-1.7-.6 0-1.8.1-2.4.2v1.2zm-2.5.9c1-.1 1-.3 1.6-2.1h-1.6c-.5 1.4-.5 1.6-1 1.6h-.3c0-.2.1-.4.1-.6v-1.1h-1.4v1.1c0 .2 0 .4.1.6h-.3c-.4 0-.5-.2-1-1.6h-1.6c.6 1.8.5 2 1.6 2.1-1.1.2-1.1.2-1.7 2.3h1.6c.6-1.7.6-1.8 1-1.8h.4c0 .1-.1.3-.1.4v1.4h1.4v-1.8h.4c.4 0 .4.1 1 1.8h1.6c-.7-2-.8-2.1-1.8-2.3zm-8.3-1c.5 0 .7.2.7 1.2s-.1 1.2-.7 1.2-.7-.2-.7-1.2.2-1.2.7-1.2m0-1.2c-1.7 0-2.4.6-2.4 2.3 0 1.7.6 2.3 2.4 2.3 1.7 0 2.4-.6 2.4-2.3 0-1.6-.6-2.3-2.4-2.3m-4.2 4.6h1.6l-1.3-2.3 1.2-2.2h-1.6l-.9 1.7-.9-1.7H128l1.2 2.2-1.3 2.3h1.6l1-1.8.9 1.8zm-4 0v-4.4H126l-1.4 2.1-.3.6c0-.3.1-.5.1-.7v-2.1H123v4.4h1.4l1.4-2c.1-.2.3-.5.4-.7 0 .3-.1.5-.1.8v2h1.3zM119 173c.3-.2.5-.3.8-.3.4 0 .6.2.6 1.2s-.2 1.2-.6 1.2c-.3 0-.5-.1-.8-.2V173zm-.3-1.3h-1.3v6.1h1.6v-2c.4.3.9.4 1.4.4 1.1 0 1.7-.5 1.7-2.3 0-1.5-.4-2.4-1.6-2.4-.7 0-1.4.3-1.7.7l-.1-.5zm-2.3-1.8h-5.1v6.1h1.7v-5h1.8v5h1.7v-6.1zm11.2 65h-.5v-1.8h-.9l-.2.7v1.1h-.8c-.1 0-.2-.1-.1-.2l.9-2.4h-1.1l-1.1 2.7c-.1.3.1.7.5.7h1.7v.9h1.1v-.9l.5-.1v-.7zm-4.8.6c-.3 0-.4.1-.4.4v.3c0 .3.1.4.4.4h.3c.3 0 .4-.1.4-.4v-.3c0-.3-.1-.4-.4-.4h-.3zm-.8-.6h-.5v-1.8h-.9l-.2.7v1.1h-.8c-.1 0-.2-.1-.1-.2l.9-2.4h-1.1l-1.1 2.7c-.1.3.1.7.5.7h1.7v.9h1.1v-.9l.5-.1v-.7zm10.8-7.5h-.4c-.3 0-.3-.1-.3-.4 0-.2.1-.3.3-.3h.4v.7zm-1.2.4c-.2 0-.5.1-.6.3l-.2 1h1.2l.2-.8c0-.1.1-.2.3-.2h.4v1h1.1V226c-.4 0-.7-.1-1.6-.1-1.1 0-1.4.2-1.4 1-.1.4.1.8.6.9zm-3.3.3c0-.1.1-.2.3-.2h.6v.4c-.2.1-.4.2-.6.2-.2 0-.3-.1-.3-.2v-.2zm-.8-1.3h1.3c.3 0 .4.1.4.4v.1h-1c-.6 0-1 .3-1 .8v.3c0 .6.5.9 1 .9s.9-.3 1.1-.5l.1.5h.9v-2c0-.9-.5-1.2-1.3-1.2-.5 0-1.2.1-1.7.2l.2.5zm-.8-.8h-1.1v1.1h-.9V226h-1.1v3.1h1.1v-1.3h.9v1.3h1.1V226zm-3.9 0h-1.1v1.1h-.9V226h-1.1v3.1h1.1v-1.3h.9v1.3h1.1V226zm-5.8 2.1c0-.1.1-.2.3-.2h.6v.4c-.2.1-.4.2-.6.2-.2 0-.3-.1-.3-.2v-.2zm-.9-1.3h1.3c.3 0 .4.1.4.4v.1h-1c-.6 0-1 .3-1 .8v.3c0 .6.5.9 1 .9s.9-.3 1.1-.5l.1.5h.9v-2c0-.9-.5-1.2-1.3-1.2-.5 0-1.2.1-1.7.2l.2.5zm-2.9 1.5v-1.1h.6c.4 0 .6.1.6.6 0 .4-.1.5-.5.5h-.7zm0-1.8v-.9h.5c.4 0 .5.1.5.5s-.1.5-.5.5h-.5zm1.4.4c.5-.1.8-.4.8-1 0-.9-.4-1.1-1.6-1.1h-1.7v4.3h1.9c1.1 0 1.5-.2 1.5-1.1 0-.6-.2-1-.9-1.1zm68.6-8.1h1.2c.4 0 .6.1.6.4 0 .3 0 .5-.5.5h-.8v.7h.8c.5 0 .6.1.6.5s-.2.5-.7.5h-1.2v.8c.5.1 1 .1 1.5.1 1.1 0 1.6-.4 1.5-1.3 0-.7-.2-1-.8-1.1.6-.1.7-.5.7-1.1 0-.8-.4-1-1.4-1-.5 0-1 0-1.4.1l-.1.9zm-1.3 2.4c-.3 0-.4.1-.4.4v.3c0 .3.1.4.4.4h.3c.3 0 .4-.1.4-.4v-.3c0-.3-.1-.4-.4-.4h-.3zm-4-2.3h1.3c.3 0 .5 0 .5.2s-.3.6-.8 1.1l-1 1c-.1.1-.2.3-.2.5v.6h3.2v-1h-1.2c-.2 0-.4 0-.6.1l1.1-1c.6-.6.7-.9.7-1.3 0-.8-.6-1-1.5-1-.5 0-.9 0-1.5.1v.7zm14.7-6.4v-.9h-3.1v.9h1v2.2h1.1v-2.2h1zm-5.4.4c0-.5.1-.6.5-.6.3 0 .4.1.4.3 0 .2 0 .3-.3.3h-.6zm1 .6c.8 0 1.1-.3 1.1-.8 0-.7-.4-1.1-1.5-1.1-1.2 0-1.7.4-1.7 1.6 0 1.1.5 1.6 1.7 1.6.5 0 1-.1 1.4-.3l-.1-.7c-.5.1-.9.1-1.2.1-.4 0-.6-.1-.6-.4h.9zm-2.7-1.8h-1.9c-.5 0-.8.3-.9.8 0 .6-.1 1-.2 1.2-.1.2-.2.2-.5.3l.1.8c.7.1 1.3 0 1.4-.8.1-.3.1-.8.2-1.3 0-.2.1-.3.3-.3h.3v2.3h1.1v-3zm-5.8 2c0-.1.1-.2.3-.2h.6v.4c-.2.1-.4.2-.6.2-.2 0-.3-.1-.3-.2v-.2zm-.9-1.2h1.3c.3 0 .4.1.4.4v.1h-1c-.6 0-1 .3-1 .8v.3c0 .6.5.9 1 .9s.9-.3 1.1-.5l.1.5h.9v-2c0-.9-.5-1.2-1.3-1.2-.5 0-1.2.1-1.7.2l.2.5zm-.4-.8h-1.2l-.5 1.8c0 .1-.1.3-.1.5h-.1c0-.2-.1-.4-.1-.5l-.5-1.8h-1.2l1 2.8c0 .2.2.3.4.3h.2c-.1.2-.2.3-.3.4-.2.1-.5.1-.9.1l-.1.7c.4.1.9.1 1.3-.1.5-.2.8-.5 1.1-1.2l1-3zm-3.4-.3v-.9h-3.6v.9h1.2v3.4h1.2v-3.4h1.2zm-56-77.9c0-.7.1-1 .7-1 .7 0 .8.2.8 1.6-.3.2-.5.2-.8.2-.6 0-.8-.2-.7-.8m-1.4 3.9c.7.2 1.4.2 1.7.2 2 0 2.7-.5 2.7-3.2 0-2.5-.4-3.1-2.3-3.1-1.8 0-2.3.7-2.3 2.2 0 1.1.4 1.9 1.8 1.9.6 0 .9-.1 1.3-.4 0 1-.3 1.4-1.1 1.4h-1.6l-.2 1zm-1.8-1.4c-.4 0-.6.1-.6.6v.4c0 .4.1.6.6.6h.4c.4 0 .6-.1.6-.6v-.4c0-.4-.1-.6-.6-.6h-.4zm-5.7-3.3h1.9c.5 0 .7 0 .7.3s-.4.9-1.1 1.6l-1.4 1.4c-.2.2-.2.4-.2.7v.9h4.6v-1.4h-1.8c-.3 0-.6 0-.9.1l1.5-1.5c.8-.8 1-1.2 1-1.9 0-1.2-.9-1.5-2.2-1.5-.7 0-1.3 0-2.2.2l.1 1.1zm-1.2 4.8v-6.1h-1.7l-1.6.6.2 1.1 1.4-.3c-.1.2-.1.5-.1.7v4.1h1.8zm36.6-12.2c0-.2.1-.3.4-.3h.9v.6c-.3.2-.6.3-.9.3-.3 0-.4-.1-.4-.4v-.2zm-1.2-1.7c.7 0 1.4-.1 1.9-.1s.6.1.6.5v.1h-1.5c-.9 0-1.4.4-1.4 1.1v.4c0 .8.7 1.3 1.5 1.3s1.3-.4 1.6-.8l.2.6h1.3V124c0-1.3-.7-1.7-1.8-1.7-.6 0-1.8.1-2.4.2v1.1zm-.7 0v-1.2h-4.4v1.2h1.4v3.2h1.6v-3.2h1.4zm-7.9 1.7c0-.2.1-.3.4-.3h.9v.6c-.3.2-.6.3-.9.3-.3 0-.4-.1-.4-.4v-.2zm-1.2-1.7c.7 0 1.4-.1 1.9-.1s.6.1.6.5v.1h-1.5c-.9 0-1.4.4-1.4 1.1v.4c0 .8.7 1.3 1.5 1.3s1.3-.4 1.6-.8l.2.6h1.3V124c0-1.3-.7-1.7-1.8-1.7-.6 0-1.8.1-2.4.2v1.1zm-1.1-1.2h-1.6v1.6h-1.4v-1.6h-1.6v4.4h1.6V125h1.4v1.8h1.6v-4.4zm-7.5 0c-.3 0-.6.2-.6.5l-.4 1.6c0 .2-.1.4-.1.7h-.1c0-.2 0-.4-.1-.7l-.4-1.6c-.1-.3-.3-.5-.6-.5h-1.4c-.4 0-.5.2-.6.5l-.1 3.9h1.5l.1-3.2h.1l.5 2.1c.1.3.3.5.6.5h.7c.3 0 .5-.2.6-.5l.5-2.1h.1l.1 3.2h1.5l-.1-3.9c0-.4-.2-.5-.6-.5h-1.2zm-7.3 1c.5 0 .7.2.7 1.2s-.1 1.2-.7 1.2-.7-.2-.7-1.2c0-.9.1-1.2.7-1.2m0-1.1c-1.7 0-2.4.6-2.4 2.3 0 1.7.6 2.3 2.4 2.3 1.7 0 2.4-.6 2.4-2.3-.1-1.7-.7-2.3-2.4-2.3m-4.5 2.2c1-.2 1-.2 1.5-2.1H114c-.4 1.5-.4 1.6-1 1.6h-.2c0-.2.1-.4.1-.6v-1h-1.6v4.4h1.6v-1.4c0-.1 0-.2-.1-.4h.4c.5 0 .5.1 1 1.8h1.7c-.7-2-.7-2.1-1.8-2.3zm-7.3-.1h-.6c-.4 0-.5-.1-.5-.6 0-.3.1-.4.5-.4h.6v1zm-1.7.6c-.3 0-.7.1-.8.5l-.3 1.4h1.7l.3-1.2c0-.2.1-.3.4-.3h.6v1.4h1.6v-4.5c-.6-.1-1-.1-2.2-.1-1.6 0-2 .3-2 1.4-.3.7 0 1.2.7 1.4zm-4.7.3c0-.2.1-.3.4-.3h.9v.6c-.3.2-.6.3-.9.3-.3 0-.4-.1-.4-.4v-.2zm-1.2-1.7c.7 0 1.4-.1 1.9-.1s.6.1.6.5v.1h-1.5c-.9 0-1.4.4-1.4 1.1v.4c0 .8.7 1.3 1.5 1.3s1.3-.4 1.6-.8l.2.6h1.3V124c0-1.3-.7-1.7-1.8-1.7-.6 0-1.8.1-2.4.2v1.1zm-1.1-1.2h-2.7c-.8 0-1.2.4-1.2 1.1-.1.8-.1 1.4-.2 1.7-.1.4-.4.3-.7.4l.2 1.2c1 .2 1.8-.1 2-1.2.1-.4.2-1.2.3-1.9 0-.3.2-.4.4-.4h.4v3.3h1.6v-4.2zm-5.4 4.4v-4.4h-1.4l-1.4 2.1-.3.6c0-.3.1-.5.1-.7v-2.1h-1.4v4.4h1.4l1.4-2c.1-.2.3-.5.4-.7 0 .3-.1.5-.1.8v2h1.3zm-7.2-3.2c1.2-.2 1.2-.7 1.9-2.9h-1.7c-.6 1.8-.7 2.4-1.3 2.4h-.3c0-.3.1-.5.1-.8v-1.6h-1.6v1.6c0 .2 0 .5.1.8h-.3c-.6 0-.7-.6-1.2-2.4h-1.7c.6 2.2.7 2.7 1.9 2.9v.1c-1.2.2-1.3.7-2 3.2H81c.7-2.2.8-2.6 1.4-2.6h.3c0 .2-.1.4-.1.6v2.1h1.6v-2.1c0-.2 0-.4-.1-.6h.3c.6 0 .7.4 1.4 2.6h1.8c-.8-2.6-.8-3.1-2.1-3.3zm41.2-14.5c1.5 0 1.9.3 1.9 1.8 0 1.4-.3 1.7-1.9 1.7-1.6 0-1.9-.3-1.9-1.7 0-1.5.3-1.8 1.9-1.8m0-5.7c1.4 0 1.7.3 1.7 1.7 0 1.2-.3 1.5-1.7 1.5s-1.8-.3-1.8-1.5c.1-1.4.4-1.7 1.8-1.7m-3 4.5c-2 .2-2.5 1.9-2.5 3.7 0 2.7 1.1 3.8 5.5 3.8s5.5-1.1 5.5-3.8c0-1.9-.5-3.6-2.5-3.7v-.1c1.5-.2 2.1-1.7 2.1-3.2 0-2.6-.9-3.8-5.2-3.8-4.2 0-5.1 1.1-5.1 3.8.1 1.5.7 3 2.2 3.3zm-6.4 3.7c-1 0-1.3.3-1.3 1.3v.9c0 1 .3 1.3 1.3 1.3h.9c1 0 1.3-.3 1.3-1.3v-.9c0-1-.3-1.3-1.3-1.3h-.9zm-12.6-7.8h3.9c1.4 0 1.8.2 1.8 1.3 0 1-.1 1.5-1.6 1.5h-2.7v2.4h2.7c1.5 0 1.8.4 1.8 1.6 0 1.4-.5 1.7-2.3 1.7-1.2 0-2.1 0-3.9-.1l-.1 2.7c1.6.2 3.3.4 5 .4 3.7 0 5.1-1.2 5-4.2 0-2.1-.6-3.2-2.6-3.5v-.1c1.8-.3 2.2-1.5 2.2-3.5 0-2.5-1.3-3.3-4.7-3.3-1.5 0-3.1.1-4.7.4l.2 2.7zm-11.6-2.7.2 3.1h6.1c-.3.5-.5 1-.7 1.5l-3.4 9.5H99l4.2-12.1c.3-1-.3-1.9-1.4-1.9h-8.7z" class="st31"/><circle cx="114" cy="84.6" r="12.4" style="clip-path:url(#SVGID_32_);fill:none;stroke:#39373a;stroke-width:.854"/><path d="M122.4 87.6c-1 .1-1.9.1-3.4.1-1.3 0-1.6-.6-1.6-3s.4-3 1.6-3h3.1l.2-2.1c-1-.3-1.8-.4-3.4-.4-3.4 0-4.6 1.4-4.6 5.5 0 4 1.2 5.5 4.6 5.5 1.6 0 2.6-.1 3.6-.5l-.1-2.1zm-16.5-6.2h3c1.1 0 1.4.1 1.4 1 0 .7-.1 1.2-1.2 1.2h-2v1.8h2c1.1 0 1.4.3 1.4 1.2 0 1.1-.4 1.3-1.8 1.3-.9 0-1.6 0-2.9-.1l-.1 2.1c1.2.2 2.5.3 3.8.3 2.8 0 3.8-.9 3.8-3.2 0-1.6-.5-2.4-2-2.7v-.1c1.4-.2 1.7-1.2 1.7-2.7 0-1.9-1-2.5-3.6-2.5-1.2 0-2.4.1-3.6.3l.1 2.1z" class="st31"/><path d="M281.2 115.1h2.1v30.3h-2.1zM36.4 52.5h87.3v2.1H36.4z" class="st2"/></g></switch></svg>