<svg xmlns="http://www.w3.org/2000/svg" xmlns:xlink="http://www.w3.org/1999/xlink" xml:space="preserve" id="Слой_1" x="0" y="0" style="enable-background:new 0 0 160 226" version="1.1" viewBox="0 0 160 226"><style>.st2{fill:#39373a}.st3{stroke-width:.669}.st3,.st4,.st8{fill:none;stroke:#39373a}.st4{stroke-width:.539}.st8{clip-path:url(#SVGID_4_);stroke-width:.567}.st10{clip-path:url(#SVGID_6_);fill:#39373a}.st11{fill:none;stroke:#39373a;stroke-width:.236}.st11,.st12{clip-path:url(#SVGID_6_)}.st12,.st13{fill:none;stroke:#39373a;stroke-width:.279}.st14{clip-path:url(#SVGID_8_);fill:#39373a}.st15,.st16{fill:none;stroke:#39373a}.st15{clip-path:url(#SVGID_8_);stroke-width:.279}.st16{stroke-width:.244}.st19{clip-path:url(#SVGID_12_);fill:#39373a}</style><switch><g><path d="M29.2 25.4h112.1V170H29.2z" style="fill:#b7e0e6"/><path d="M106.7 170.5V78.4" style="fill:none;stroke:#39373a;stroke-width:1.116;stroke-dasharray:4.387,4.387"/><path d="M130.2 178.1h13.6v7.3h-13.6zm-112.1 0h47.8v7.3H18.1z" class="st2"/><path d="M106.3 178.1h38.3v7.3h-38.3z" class="st2"/><path d="M130.2 169.9h14.4v11.8h-14.4zm-112.1 0h45.3v11.8H18.1zM84.5 23.1h4.3v27.5h-4.3zm0 46h4.3v10.3h-4.3z" class="st2"/><path d="M84.6 75.1h60v4.3h-60zM28 75h19.9v4.3H28zm80.9 94.9h35.8v11.8h-35.8zm-81.3-152h20.6v7.3H27.6zm44.8 0h75.1v7.3H72.4z" class="st2"/><path d="M140.2 20.3h7.3v165.2h-7.3zM24.5 17.9h7.1v159.7h-7.1z" class="st2"/><path d="M83.2 170.3h32.1v8H83.2z" class="st3"/><path d="M83.2 170.3h32.1v14.8H83.2z" class="st3"/><path d="m75.853 54.103.945-.562 10.228 17.187-.946.562z" class="st4"/><defs><path id="SVGID_1_" d="M12.5 7.7h135.1v207.6H12.5z"/></defs><clipPath id="SVGID_2_"><use xlink:href="#SVGID_1_" style="overflow:visible"/></clipPath><path d="M77 53.5s1.7-1.2 5.6-2.5c1.5-.5 3-.9 4.2-1.1" style="clip-path:url(#SVGID_2_);fill:none;stroke:#39373a;stroke-width:.539"/><path d="m61.641 178.705 17.187-10.228.563.946-17.187 10.227zM79.5 169.5s1.2 1.7 2.5 5.6c.5 1.5.9 3 1.1 4.2" class="st4"/><path d="m52.972 9.15.664-1.116 17.617 10.483-.665 1.117zm-.072.15s-1.5 2-2.9 6.6c-.6 1.7-1 3.5-1.3 4.9" style="stroke-width:.633;fill:none;stroke:#39373a"/><path d="M12.5 7.7h135.1v207.6H12.5z" style="fill:none"/><path d="M69.3 17.9h6v4h-6zm-25.9 0h6v4h-6z" class="st2"/><defs><path id="SVGID_3_" d="M12.5 7.7h135.1v207.6H12.5z"/></defs><clipPath id="SVGID_4_"><use xlink:href="#SVGID_3_" style="overflow:visible"/></clipPath><path d="M133.2 71.7s5.4 0 5.4-5.4v-32s0-5.4-5.4-5.4H126s-5.4 0-5.4 5.4v32s0 5.4 5.4 5.4h7.2z" class="st8"/><path d="M131.5 68.8s5.4 0 5.4-5.4V37.3s0-5.4-5.4-5.4h-3.8s-5.4 0-5.4 5.4v26.1s0 5.4 5.4 5.4h3.8z" class="st8"/><path d="M132.5 65.2s2.7 0 2.7-2.7V36.3s0-2.7-2.7-2.7h-6s-2.7 0-2.7 2.7v26.2s0 2.7 2.7 2.7h6z" class="st8"/><path d="M129.6 36.8c-.4 0-.8.4-.8.8s.4.8.8.8.8-.4.8-.8-.4-.8-.8-.8z" class="st8"/><path d="M119.6 76.5V24.7" style="fill:none;stroke:#39373a;stroke-width:.567"/><defs><path id="SVGID_5_" d="M12.5 7.7h135.1v207.6H12.5z"/></defs><clipPath id="SVGID_6_"><use xlink:href="#SVGID_5_" style="overflow:visible"/></clipPath><path d="M112.1 37.2c2.8 0 5.1-2.3 5.1-5.1v-5.4c0-.4-.3-.8-.8-.8h-11.6c-.4 0-.8.3-.8.8v5.4c0 2.8 2.3 5.1 5.1 5.1h3zm-7.2-11.6h11.6c.6 0 1.1.5 1.1 1.1v5.4c0 3-2.4 5.4-5.4 5.4h-2.9c-3 0-5.4-2.4-5.4-5.4v-5.4c-.1-.7.4-1.1 1-1.1" class="st10"/><path d="M112.1 37.2c2.8 0 5.1-2.3 5.1-5.1v-5.4c0-.4-.3-.8-.8-.8h-11.6c-.4 0-.8.3-.8.8v5.4c0 2.8 2.3 5.1 5.1 5.1h3zm-7.2-11.6h11.6c.6 0 1.1.5 1.1 1.1v5.4c0 3-2.4 5.4-5.4 5.4h-2.9c-3 0-5.4-2.4-5.4-5.4v-5.4c-.1-.7.4-1.1 1-1.1z" class="st11"/><path d="M112.1 35.9c2.1 0 3.8-1.7 3.8-3.8v-3.2c0-.4-.3-.7-.7-.7H106c-.4 0-.7.3-.7.7v3.2c0 2.1 1.7 3.8 3.8 3.8h3zm-6-8h9.2c.5 0 1 .4 1 1v3.2c0 2.3-1.9 4.1-4.1 4.1h-2.9c-2.3 0-4.1-1.9-4.1-4.1v-3.2c-.1-.5.3-1 .9-1" class="st10"/><path d="M112.1 35.9c2.1 0 3.8-1.7 3.8-3.8v-3.2c0-.4-.3-.7-.7-.7H106c-.4 0-.7.3-.7.7v3.2c0 2.1 1.7 3.8 3.8 3.8h3zm-6-8h9.2c.5 0 1 .4 1 1v3.2c0 2.3-1.9 4.1-4.1 4.1h-2.9c-2.3 0-4.1-1.9-4.1-4.1v-3.2c-.1-.5.3-1 .9-1z" class="st11"/><path d="M110.7 33.2c.3 0 .6-.3.6-.6 0-.4-.3-.6-.6-.6-.4 0-.6.3-.6.6-.1.3.2.6.6.6m0-1.5c.5 0 .9.4.9.9s-.4.9-.9.9-.9-.4-.9-.9c-.1-.5.4-.9.9-.9" class="st10"/><path d="M110.7 33.2c.3 0 .6-.3.6-.6 0-.4-.3-.6-.6-.6-.4 0-.6.3-.6.6-.1.3.2.6.6.6zm0-1.5c.5 0 .9.4.9.9s-.4.9-.9.9-.9-.4-.9-.9c-.1-.5.4-.9.9-.9z" class="st11"/><path d="M95.4 43.2c-2.6 0-4.7-2.1-4.7-4.8v-6.9c0-.5.4-.8.8-.8h7.8c.4 0 .8.4.8.8v6.9c0 2.7-2.1 4.8-4.7 4.8m3.9-12.8h-7.8c-.6 0-1.1.5-1.1 1.1v6.9c0 2.8 2.3 5.1 5 5.1 2.8 0 5-2.3 5-5.1v-6.9c0-.6-.5-1.1-1.1-1.1" class="st10"/><path d="M95.4 43.2c-2.6 0-4.7-2.1-4.7-4.8v-6.9c0-.5.4-.8.8-.8h7.8c.4 0 .8.4.8.8v6.9c0 2.7-2.1 4.8-4.7 4.8zm3.9-12.8h-7.8c-.6 0-1.1.5-1.1 1.1v6.9c0 2.8 2.3 5.1 5 5.1 2.8 0 5-2.3 5-5.1v-6.9c0-.6-.5-1.1-1.1-1.1z" class="st12"/><path d="M92 33h6.8s.1 0 .1.1v5.2c0 1.9-1.6 3.5-3.5 3.5s-3.5-1.6-3.5-3.5L92 33c-.1.1-.1 0 0 0z" class="st12"/><path d="M92.1 33.2h6.6v5.1c0 1.8-1.5 3.3-3.3 3.3-1.8 0-3.3-1.5-3.3-3.3v-5.1zm6.6-.3H92c-.1 0-.2.1-.2.2v5.2c0 2 1.6 3.7 3.6 3.7s3.6-1.6 3.6-3.7v-5.2c0-.1-.1-.2-.3-.2" class="st10"/><path d="M92.1 33.2h6.6v5.1c0 1.8-1.5 3.3-3.3 3.3-1.8 0-3.3-1.5-3.3-3.3v-5.1zm6.6-.3H92c-.1 0-.2.1-.2.2v5.2c0 2 1.6 3.7 3.6 3.7s3.6-1.6 3.6-3.7v-5.2c0-.1-.1-.2-.3-.2z" class="st12"/><path d="M95.4 38.3c-.5 0-.9-.4-.9-.9s.4-.9.9-.9.9.4.9.9c-.1.5-.5.9-.9.9m0-2.1c-.7 0-1.2.5-1.2 1.2s.5 1.2 1.2 1.2 1.2-.5 1.2-1.2-.6-1.2-1.2-1.2" class="st10"/><path d="M95.4 38.3c-.5 0-.9-.4-.9-.9s.4-.9.9-.9.9.4.9.9c-.1.5-.5.9-.9.9zm0-2.1c-.7 0-1.2.5-1.2 1.2s.5 1.2 1.2 1.2 1.2-.5 1.2-1.2-.6-1.2-1.2-1.2z" class="st12"/><path d="m92.7 33.7-.2.2 1.6 2.1.2-.2z" class="st2"/><path d="m92.7 33.7-.2.2 1.6 2.1.2-.2z" class="st13"/><path d="m97.9 33.7-1.5 2.1.2.2 1.6-2.1z" class="st2"/><path d="m97.9 33.7-1.5 2.1.2.2 1.6-2.1z" class="st13"/><defs><path id="SVGID_7_" d="M12.5 7.7h135.1v207.6H12.5z"/></defs><clipPath id="SVGID_8_"><use xlink:href="#SVGID_7_" style="overflow:visible"/></clipPath><path d="M92.1 30.3c-.7 0-1.3-.6-1.3-1.3v-1.8c0-.7.6-1.3 1.3-1.3h6.5c.7 0 1.3.6 1.3 1.3V29c0 .7-.6 1.3-1.3 1.3h-6.5zm6.5-4.7h-6.5c-.9 0-1.6.7-1.6 1.6V29c0 .9.7 1.6 1.6 1.6h6.5c.9 0 1.6-.7 1.6-1.6v-1.8c.1-.9-.7-1.6-1.6-1.6" class="st14"/><path d="M92.1 30.3c-.7 0-1.3-.6-1.3-1.3v-1.8c0-.7.6-1.3 1.3-1.3h6.5c.7 0 1.3.6 1.3 1.3V29c0 .7-.6 1.3-1.3 1.3h-6.5zm6.5-4.7h-6.5c-.9 0-1.6.7-1.6 1.6V29c0 .9.7 1.6 1.6 1.6h6.5c.9 0 1.6-.7 1.6-1.6v-1.8c.1-.9-.7-1.6-1.6-1.6z" class="st15"/><path d="M95.4 28.6c-.3 0-.5-.2-.5-.5s.2-.5.5-.5.5.2.5.5-.3.5-.5.5m0-1.3c-.4 0-.8.4-.8.8 0 .5.4.8.8.8s.8-.4.8-.8-.4-.8-.8-.8" class="st14"/><path d="M95.4 28.6c-.3 0-.5-.2-.5-.5s.2-.5.5-.5.5.2.5.5-.3.5-.5.5zm0-1.3c-.4 0-.8.4-.8.8 0 .5.4.8.8.8s.8-.4.8-.8-.4-.8-.8-.8z" class="st15"/><path d="M125.7 79.2h-15.9V95h15.9V79.2zm-16.2-.4h16.6v16.6h-16.6V78.8z" class="st2"/><path d="M125.7 79.2h-15.9V95h15.9V79.2zm-16.2-.4h16.6v16.6h-16.6V78.8z" class="st16"/><defs><path id="SVGID_9_" d="M12.5 7.7h135.1v207.6H12.5z"/></defs><clipPath id="SVGID_10_"><use xlink:href="#SVGID_9_" style="overflow:visible"/></clipPath><path d="M123.4 93.6c.4 0 .7-.3.7-.7v-8.3c0-.4-.3-.7-.7-.7h-11.1c-.4 0-.7.3-.7.7v8.3c0 .4.3.7.7.7h11.1zm-11.1-10.1h11.1c.6 0 1.1.5 1.1 1.1v8.3c0 .6-.5 1.1-1.1 1.1h-11.1c-.6 0-1.1-.5-1.1-1.1v-8.3c0-.6.5-1.1 1.1-1.1" style="clip-path:url(#SVGID_10_);fill:#39373a"/><path d="M123.4 93.6c.4 0 .7-.3.7-.7v-8.3c0-.4-.3-.7-.7-.7h-11.1c-.4 0-.7.3-.7.7v8.3c0 .4.3.7.7.7h11.1zm-11.1-10.1h11.1c.6 0 1.1.5 1.1 1.1v8.3c0 .6-.5 1.1-1.1 1.1h-11.1c-.6 0-1.1-.5-1.1-1.1v-8.3c0-.6.5-1.1 1.1-1.1z" style="clip-path:url(#SVGID_10_);fill:none;stroke:#39373a;stroke-width:.244"/><path d="M122.9 85.1h-10.1v7.3h10.1v-7.3zm-10.5-.4h10.8v8h-10.8v-8z" class="st2"/><path d="M122.9 85.1h-10.1v7.3h10.1v-7.3zm-10.5-.4h10.8v8h-10.8v-8z" class="st16"/><defs><path id="SVGID_11_" d="M12.5 7.7h135.1v207.6H12.5z"/></defs><clipPath id="SVGID_12_"><use xlink:href="#SVGID_11_" style="overflow:visible"/></clipPath><path d="M117.8 90.1c.5 0 .9-.4.9-.9s-.4-.9-.9-.9-.9.4-.9.9.4.9.9.9m0-2.2c.7 0 1.3.6 1.3 1.3s-.6 1.3-1.3 1.3c-.7 0-1.3-.6-1.3-1.3s.6-1.3 1.3-1.3" class="st19"/><path d="M117.8 90.1c.5 0 .9-.4.9-.9s-.4-.9-.9-.9-.9.4-.9.9.4.9.9.9zm0-2.2c.7 0 1.3.6 1.3 1.3s-.6 1.3-1.3 1.3c-.7 0-1.3-.6-1.3-1.3s.6-1.3 1.3-1.3z" style="clip-path:url(#SVGID_12_);fill:none;stroke:#39373a;stroke-width:.244"/><path d="M125.4 137.1h1.3c.3 0 .5 0 .5.2s-.3.6-.8 1.1l-1 1c-.1.1-.2.3-.2.5v.6h3.2v-1h-1.2c-.2 0-.4 0-.6.1l1.1-1c.6-.6.7-.9.7-1.3 0-.8-.6-1-1.5-1-.5 0-.9 0-1.5.1v.7zm-1.2 2.3c-.3 0-.4.1-.4.4v.3c0 .3.1.4.4.4h.3c.3 0 .4-.1.4-.4v-.3c0-.3-.1-.4-.4-.4h-.3zm-1-2.3v-.9h-2.7l-.1 1.9c0 .2.1.4.3.4l.7.1c.6 0 .8.1.8.5 0 .3-.1.5-.7.5-.3 0-.7 0-1.1-.1l-.1.9c.5.1 1.1.1 1.5.1 1.2 0 1.6-.6 1.6-1.4 0-.7-.3-1.3-1.3-1.4l-.7-.1v-.6h1.8zm7.2-5.1c0-.1.1-.2.3-.2h.6v.4c-.2.1-.4.2-.6.2-.2 0-.3-.1-.3-.2v-.2zm-.8-1.2h1.3c.3 0 .4.1.4.4v.1h-1c-.6 0-1 .3-1 .8v.3c0 .6.5.9 1 .9s.9-.3 1.1-.5l.1.5h.9v-2c0-.9-.5-1.2-1.3-1.2-.5 0-1.2.1-1.7.2l.2.5zm-.8-.8h-1.1v2.3h-.7V130h-1v2.3h-.7V130h-1.1v3.1h4.6V130zm-5.3 3v-3h-1l-1 1.5c-.1.1-.2.3-.2.5v-2h-1v3.1h1l1-1.4c.1-.1.2-.3.2-.5v1.9h1zm-3.9-3h-1.1v1.1h-.9V130h-1.1v3.1h1.1v-1.3h.9v1.3h1.1V130zm15.1-6.4h-1.8v.7h1.8v-.7zm-3.6.3h-.4c-.3 0-.3-.1-.3-.4 0-.2.1-.3.3-.3h.4v.7zm-1.2.4c-.2 0-.5.1-.6.3l-.2 1h1.2l.2-.8c0-.1.1-.2.3-.2h.4v1h1.1v-3.1c-.4 0-.7-.1-1.6-.1-1.1 0-1.4.2-1.4 1 0 .4.1.7.6.9zm-1.3-1.8h-1.1v1.1h-.9v-1.1h-1.1v3.1h1.1v-1.3h.9v1.3h1.1v-3.1zm-4.6 3.1h1.1l-.9-1.6.8-1.5h-1.1l-.6 1.2-.6-1.2h-1.1l.8 1.5-.9 1.6h1.1l.7-1.2.7 1.2zm-2.5-3.1h-1.2l-.5 1.8c0 .1-.1.3-.1.5h-.1c0-.2-.1-.4-.1-.5l-.5-1.8h-1.2l1 2.8c.1.2.2.3.4.3h.2c-.1.2-.2.3-.3.4-.2.1-.5.1-.9.1l-.1.7c.4.1.9.1 1.3-.1.5-.2.8-.5 1.1-1.2l1-3zm-5.1.8c.9-.1.9-.5 1.3-2h-1.2c-.3 1.3-.4 1.7-1 1.7h-.2v-1.6h-1.2v4.3h1.2v-1.8h.2c.6 0 .6.3 1.1 1.8h1.2c-.5-1.9-.5-2.2-1.4-2.4zM57.8 54.7H59c.4 0 .6.1.6.4 0 .3 0 .5-.5.5h-.8v.7h.8c.5 0 .6.1.6.5s-.2.5-.7.5h-1.2v.8c.5.1 1 .1 1.5.1 1.1 0 1.6-.4 1.5-1.3 0-.7-.2-1-.8-1.1.6-.1.7-.5.7-1.1 0-.8-.4-1-1.4-1-.5 0-1 0-1.4.1l-.1.9zm-1.3 2.4c-.3 0-.4.1-.4.4v.3c0 .3.1.4.4.4h.3c.3 0 .4-.1.4-.4v-.3c0-.3-.1-.4-.4-.4h-.3zm-.8-.6h-.5v-1.8h-.9l-.2.7v1.1h-.8c-.1 0-.2-.1-.1-.2l.9-2.4H53l-1 2.7c-.1.3.1.7.5.7h1.7v.9h1.1v-.9l.5-.1v-.7zM70.8 49h-.4c-.3 0-.3-.1-.3-.4 0-.2.1-.3.3-.3h.4v.7zm-1.2.4c-.2 0-.5.1-.6.3l-.2 1H70l.2-.8c0-.1.1-.2.3-.2h.4v1H72v-3.1h-1.6c-1.1 0-1.4.2-1.4 1 0 .3.1.6.6.8zm-3.3.2c0-.1.1-.2.3-.2h.6v.4c-.2.1-.4.2-.6.2-.2 0-.3-.1-.3-.2v-.2zm-.8-1.2h1.3c.3 0 .4.1.4.4v.1h-1c-.6 0-1 .3-1 .8v.3c0 .6.5.9 1 .9s.9-.3 1.1-.5l.1.5h.9v-2c0-.9-.5-1.2-1.3-1.2-.5 0-1.2.1-1.7.2l.2.5zm-1.7.6c.7-.1.7-.2 1.1-1.5h-1.1c-.3 1-.4 1.1-.7 1.1h-.2v-1.1h-1v1.1h-.2c-.3 0-.3-.1-.7-1.1h-1c.4 1.3.4 1.4 1.1 1.5-.7.1-.8.2-1.2 1.6H61c.4-1.2.4-1.2.7-1.2h.3v1.3h1v-1.3h.2c.3 0 .3.1.7 1.2H65c-.5-1.4-.5-1.4-1.2-1.6zm-5.8-.7c.4 0 .5.2.5.8 0 .7-.1.8-.5.8s-.5-.1-.5-.8c0-.6.1-.8.5-.8m0-.8c-1.2 0-1.7.4-1.7 1.6 0 1.2.4 1.6 1.7 1.6 1.2 0 1.7-.4 1.7-1.6 0-1.2-.5-1.6-1.7-1.6m-2.9 3.2h1.1l-.9-1.6.8-1.5H55l-.6 1.2-.6-1.2h-1.1l.8 1.5-.9 1.6h1.1l.7-1.2.7 1.2zm-2.9 0v-3.1h-1l-1 1.5c-.1.1-.2.3-.2.5v-2h-1v3.1h1l1-1.4c.1-.1.2-.3.2-.5v1.9h1zm-5.8-2.2c.2-.1.3-.2.6-.2s.4.1.4.8c0 .7-.1.8-.4.8-.2 0-.4-.1-.5-.1v-1.3zm-.3-.9h-.9v4.2h1.1v-1.4c.3.2.6.3 1 .3.8 0 1.2-.3 1.2-1.6 0-1.1-.3-1.7-1.1-1.7-.5 0-1 .2-1.2.5l-.1-.3zm-1.6-1.2h-3.6v4.3h1.2v-3.5h1.3v3.5h1.2v-4.3zm60.4 9.3c0-.5 0-.7.5-.7s.5.2.5 1.1c-.2.1-.3.2-.5.2-.4-.1-.5-.2-.5-.6m-.9 2.7c.5.1 1 .1 1.2.1 1.4 0 1.9-.3 1.9-2.3 0-1.7-.3-2.2-1.6-2.2s-1.6.5-1.6 1.6c0 .8.3 1.3 1.2 1.3.4 0 .6-.1.9-.3 0 .7-.2.9-.7.9h-1.1l-.2.9zm-1.3-1c-.3 0-.4.1-.4.4v.3c0 .3.1.4.4.4h.3c.3 0 .4-.1.4-.4v-.3c0-.3-.1-.4-.4-.4h-.3zM98.8 55h1.2c.4 0 .6.1.6.4 0 .3 0 .5-.5.5h-.8v.7h.8c.5 0 .6.1.6.5s-.2.5-.7.5h-1.2v.8c.5.1 1 .1 1.5.1 1.1 0 1.6-.4 1.5-1.3 0-.7-.2-1-.8-1.1.6-.1.7-.5.7-1.1 0-.8-.4-1-1.4-1-.5 0-1 0-1.4.1l-.1.9zm9.5-7.1h-1.2l-.5 1.8c0 .1-.1.3-.1.5h-.1c0-.2-.1-.4-.1-.5l-.5-1.8h-1.2l1 2.8c0 .2.2.3.4.3h.2c-.1.2-.2.3-.3.4-.2.1-.5.1-.9.1l-.1.7c.4.1.9.1 1.3-.1.5-.2.8-.5 1.1-1.2l1-3zm-6.1 3.6 2.4-4.8h-.9l-2.4 4.8h.9zM101 50c-.4 0-.8.1-1.4.1-.5 0-.7-.3-.7-1.2s.1-1.2.7-1.2h1.3l.1-.9c-.4-.1-.7-.2-1.4-.2-1.4 0-1.9.6-1.9 2.2s.5 2.2 1.9 2.2c.6 0 1-.1 1.4-.2V50zM72.9 157.4h1.9c.5 0 .7 0 .7.3s-.4.9-1.1 1.6l-1.4 1.4c-.2.2-.2.4-.2.7v.9h4.6v-1.4h-1.8c-.3 0-.6 0-.9.1l1.5-1.5c.8-.8 1-1.2 1-1.9 0-1.2-.9-1.5-2.2-1.5-.7 0-1.3 0-2.2.2l.1 1.1zm-1.8 3.3c-.4 0-.6.1-.6.6v.4c0 .4.1.6.6.6h.4c.4 0 .6-.1.6-.6v-.4c0-.4-.1-.6-.6-.6h-.4zm-1.6 1.5v-6.1h-1.7l-1.6.6.2 1.1 1.4-.3c-.1.2-.1.5-.1.7v4.1h1.8zm-4 0v-6.1h-1.7l-1.6.6.2 1.1 1.4-.3c-.1.2-.1.5-.1.7v4.1h1.8zM85.7 150c0-.2.1-.3.4-.3h.9v.6c-.3.2-.6.3-.9.3-.3 0-.4-.1-.4-.4v-.2zm-1.3-1.7c.7 0 1.4-.1 1.9-.1s.6.1.6.5v.1h-1.5c-.9 0-1.4.4-1.4 1.1v.4c0 .8.7 1.3 1.5 1.3s1.3-.4 1.6-.8l.2.6h1.3v-2.8c0-1.3-.7-1.7-1.8-1.7-.7 0-1.8.1-2.4.2v1.2zm-.7 0v-1.2h-4.4v1.2h1.4v3.2h1.6v-3.2h1.4zm-7.9 1.7c0-.2.1-.3.4-.3h.9v.6c-.3.2-.6.3-.9.3-.3 0-.4-.1-.4-.4v-.2zm-1.2-1.7c.7 0 1.4-.1 1.9-.1s.6.1.6.5v.1h-1.5c-.9 0-1.4.4-1.4 1.1v.4c0 .8.7 1.3 1.5 1.3s1.3-.4 1.6-.8l.2.6h1.3v-2.8c0-1.3-.7-1.7-1.8-1.7-.6 0-1.8.1-2.4.2v1.2zm-1.1-1.2h-1.6v1.6h-1.4v-1.6H69v4.4h1.6v-1.8H72v1.8h1.6v-4.4zm-7.5 0c-.3 0-.6.2-.6.5l-.4 1.6c0 .2-.1.4-.1.7h-.1c0-.2 0-.4-.1-.7l-.4-1.6c-.1-.3-.3-.5-.6-.5h-1.4c-.4 0-.6.2-.6.5l-.1 3.9h1.5l.1-3.2h.1l.5 2.1c.1.3.3.5.6.5h.7c.3 0 .5-.2.6-.5l.5-2.1h.1l.1 3.2h1.5l-.1-3.9c0-.4-.2-.5-.6-.5H66zm-7.3 1c.5 0 .7.2.7 1.2s-.1 1.2-.7 1.2-.7-.2-.7-1.2.2-1.2.7-1.2m0-1.1c-1.7 0-2.4.6-2.4 2.3 0 1.7.6 2.3 2.4 2.3 1.7 0 2.4-.6 2.4-2.3 0-1.7-.7-2.3-2.4-2.3m-4.4 2.2c1-.2 1-.2 1.5-2.1h-1.6c-.4 1.5-.4 1.6-1 1.6H53c0-.2.1-.4.1-.6v-1h-1.6v4.4H53v-1.4c0-.1 0-.2-.1-.4h.4c.5 0 .5.1 1 1.8H56c-.7-2.1-.7-2.1-1.7-2.3zm28.5-10.8h-.6c-.4 0-.5-.1-.5-.6 0-.3.1-.4.5-.4h.6v1zm-1.8.6c-.3 0-.7.1-.8.5l-.3 1.4h1.7l.3-1.2c0-.2.1-.3.4-.3h.6v1.4h1.6v-4.4c-.5-.1-1-.1-2.2-.1-1.6 0-2 .3-2 1.4-.2.6 0 1.1.7 1.3zm-4.7.3c0-.2.1-.3.4-.3h.9v.6c-.3.2-.6.3-.9.3-.3 0-.4-.1-.4-.4v-.2zm-1.2-1.7c.7 0 1.4-.1 1.9-.1s.6.1.6.5v.1h-1.5c-.9 0-1.4.4-1.4 1.1v.4c0 .8.7 1.3 1.5 1.3s1.3-.4 1.6-.8l.2.6h1.3v-2.8c0-1.3-.7-1.7-1.8-1.7-.6 0-1.8.1-2.4.2v1.2zm-1.1-1.1h-2.7c-.8 0-1.2.4-1.2 1.1-.1.8-.1 1.4-.2 1.7-.1.4-.4.3-.7.4l.2 1.2c1 .2 1.8-.1 2-1.2.1-.4.2-1.2.3-1.9 0-.3.2-.4.4-.4h.4v3.3H74v-4.2zm-5.4 4.4v-4.4h-1.4l-1.4 2.1-.3.6c0-.3.1-.5.1-.7v-2.1h-1.4v4.4h1.4l1.4-2c.1-.2.3-.5.4-.7 0 .3-.1.5-.1.8v2h1.3zm-7.2-3.3c1.2-.2 1.2-.7 1.9-2.9h-1.7c-.6 1.8-.7 2.4-1.3 2.4H60c0-.3.1-.5.1-.8v-1.6h-1.6v1.6c0 .2 0 .5.1.8h-.3c-.6 0-.7-.6-1.2-2.4h-1.7c.6 2.2.7 2.7 1.9 2.9v.1c-1.2.2-1.3.7-2 3.2H57c.7-2.2.8-2.6 1.4-2.6h.3c0 .2-.1.4-.1.6v2.1h1.6v-2.1c0-.2 0-.4-.1-.6h.3c.6 0 .7.4 1.4 2.6h1.8c-.8-2.5-.9-3-2.2-3.3zm20.8-18.4c0-1.7.1-2.3 1.6-2.3 1.6 0 1.7.5 1.8 3.6-.7.4-1.1.5-1.8.5-1.3.1-1.6-.3-1.6-1.8m-3 9.1c1.6.4 3.1.4 3.9.4 4.5 0 6.1-1.1 6.1-7.4 0-5.7-.9-7.1-5.4-7.1-4.1 0-5.2 1.5-5.2 5.1 0 2.6.9 4.3 4 4.3 1.3 0 2.1-.2 2.9-.8-.1 2.4-.6 3.1-2.4 3.1h-3.7l-.2 2.4zm-4.3-3.3c-1 0-1.3.3-1.3 1.3v.9c0 1 .3 1.3 1.3 1.3h.9c1 0 1.3-.3 1.3-1.3v-.9c0-1-.3-1.3-1.3-1.3h-.9zm-8 .9c-1.6 0-1.8-.5-1.8-3.6.7-.4 1.1-.5 1.8-.5 1.3 0 1.6.3 1.6 1.8.1 1.7 0 2.3-1.6 2.3m4.3-11.3c-1.4-.4-2.9-.4-3.6-.4-4.1 0-6.1 1-6.1 7.4 0 5.7 1.3 7.1 5.4 7.1 4.3 0 5.2-1.6 5.2-5.1 0-3.1-.9-4.3-4.1-4.3-1.2 0-2.1.2-2.9.8.1-2.6.6-3.1 2.4-3.1H71l.2-2.4zm-21.5 2.9c1.9-.1 2.9-.1 4.4-.1 1.1 0 1.5.1 1.5.7 0 .8-.9 2.1-2.5 3.7L50 125c-.4.4-.5.9-.5 1.5v2h10.4v-3.3h-4c-.7 0-1.3 0-2 .2l3.5-3.4c1.8-1.9 2.2-2.8 2.2-4.4 0-2.7-2-3.4-5-3.4-1.5 0-3 .1-5 .5l.1 2.8z" class="st19"/><circle cx="70" cy="98.6" r="12.4" style="clip-path:url(#SVGID_12_);fill:none;stroke:#39373a;stroke-width:.854"/><path d="M77.4 101.6c-1 .1-1.9.1-3.4.1-1.3 0-1.6-.6-1.6-3s.4-3 1.6-3h3.1l.2-2.1c-1-.3-1.8-.4-3.4-.4-3.4 0-4.6 1.4-4.6 5.5 0 4 1.2 5.5 4.6 5.5 1.6 0 2.6-.1 3.6-.5l-.1-2.1zm-9.8 2.4V93.4h-2.9l-2.7 1 .3 1.8 2.5-.6c-.1.4-.1.8-.1 1.3v7h2.9z" class="st19"/><path d="M88.2 69.5h22.5v7H88.2z" class="st2"/><path d="M95 71.4h9.1v3.3H95zm-4.9 0h3.3v3.3h-3.3zm15.2 0h3.3v3.3h-3.3z" style="fill:#fff"/><path d="M42 202.8h92.8v6.2H42zM12.5 209h33v6.2h-33z" class="st2"/><path d="M12.5 169.9h6.2v44.7h-6.2zm117.7 13.3h4.5v22.7h-4.5z" class="st2"/><defs><path id="SVGID_13_" d="M12.5 7.7h135.1v207.6H12.5z"/></defs><clipPath id="SVGID_14_"><use xlink:href="#SVGID_13_" style="overflow:visible"/></clipPath><path d="m80 191.7.1-1.2h-3.8l-.2 2.8c0 .3.2.5.5.6l1 .1c.8.1 1.1.2 1.1.8 0 .5-.2.7-1 .7-.4 0-1 0-1.6-.1l-.2 1.3c.8.1 1.6.2 2.2.2 1.7 0 2.2-.9 2.2-2 0-1-.4-1.9-1.8-2l-1-.1.1-.9H80zm-5.7 3.4c-.4 0-.6.1-.6.6v.4c0 .4.1.6.6.6h.4c.4 0 .6-.1.6-.6v-.4c0-.4-.1-.6-.6-.6h-.4zm-1.1-.9h-.7v-2.5h-1.3l-.3 1v1.6h-1.2c-.1 0-.2-.1-.2-.3l1.3-3.5h-1.6l-1.5 3.9c-.2.5.1.9.6.9h2.5v1.3h1.5v-1.3l.7-.2v-.9z" style="clip-path:url(#SVGID_14_);fill:#39373a"/><path d="M83.1 180.2h25" class="st3"/></g></switch></svg>