<svg xmlns="http://www.w3.org/2000/svg" xmlns:xlink="http://www.w3.org/1999/xlink" xml:space="preserve" id="Слой_1" x="0" y="0" style="enable-background:new 0 0 149 242" version="1.1" viewBox="0 0 149 242"><style>.st2{fill:#39373a}.st3{stroke-width:.669}.st3,.st4,.st7{fill:none;stroke:#39373a}.st4{stroke-width:.539}.st7{clip-path:url(#SVGID_4_);stroke-width:.535}.st9{clip-path:url(#SVGID_6_);fill:#39373a}.st10{fill:none;stroke:#39373a;stroke-width:.236}.st10,.st11{clip-path:url(#SVGID_6_)}.st11,.st12{fill:none;stroke:#39373a;stroke-width:.279}.st13{clip-path:url(#SVGID_8_);fill:#39373a}.st14,.st15{fill:none;stroke:#39373a}.st14{clip-path:url(#SVGID_8_);stroke-width:.279}.st15{stroke-width:.244}.st20{clip-path:url(#SVGID_14_);fill:#39373a}</style><switch><g><path d="M21.7 28.4h107v158.5h-107z" style="fill:#f3dfec"/><path d="M57.3 186.9V88.8" style="fill:none;stroke:#39373a;stroke-width:1.116;stroke-dasharray:4.674,4.674"/><path d="M17.6 195.1h25.6v7.3H17.6z" class="st2"/><path d="M17.6 186.9h23.1v11.8H17.6zm66.5 8.2h47.8v7.3H84.1z" class="st2"/><path d="M86.6 186.9h45.3v11.8H86.6zM14.5 21.1h65.6v10.7H14.5z" class="st2"/><path d="M18 30.3h62.1v4.3H18zm96.5 156.6h21.3v43.5h-21.3z" class="st2"/><path d="M14.5 29.7h7.2v172.7h-7.2zM72.3 22h9.9v6.4h-9.9z" class="st2"/><path d="M75.1 26.6h5v33.2h-5zm0 50.6h5v9.2h-5z" class="st2"/><path d="M32 82.3h46.4v4H32z" class="st2"/><path d="M20.1 79.3h17.4v4H20.1zm92.5 2.5h20.8v4.5h-20.8zm-4.7-60.7h27.3v7.3h-27.3z" class="st2"/><path d="M128.7 21.1h7.1v204.3h-7.1zm-97.4 0h50.9v2.7H31.3z" class="st2"/><path d="M61 187.2h33.1v8H61z" class="st3"/><path d="M61 187.2h33.1V202H61z" class="st3"/><path d="m77.681 77.94 8.898-14.953.945.563-8.897 14.953z" class="st4"/><defs><path id="SVGID_1_" d="M14.5 9.7h121.3v220.8H14.5z"/></defs><clipPath id="SVGID_2_"><use xlink:href="#SVGID_1_" style="overflow:visible"/></clipPath><path d="M86.5 62.9s-1.7-1.2-5.6-2.5c-1.5-.5-3-.9-4.2-1.1" style="clip-path:url(#SVGID_2_);fill:none;stroke:#39373a;stroke-width:.539"/><path d="m39.715 195.98 17.187-10.228.563.946-17.188 10.227zM57.5 186.9s1.2 1.7 2.5 5.6c.5 1.5.9 3 1.1 4.2M86.714 11.269l.716-1.203 19.68 11.711-.717 1.203zm-.114.131s-1.6 2.3-3.3 7.4c-.6 1.9-1.1 3.9-1.5 5.5" class="st4"/><path d="M14.5 9.7h121.3v220.8H14.5z" style="fill:none"/><path d="M105.9 21.1h6.7v2.4h-6.7z" class="st2"/><defs><path id="SVGID_3_" d="M14.5 9.7h121.3v220.8H14.5z"/></defs><clipPath id="SVGID_4_"><use xlink:href="#SVGID_3_" style="overflow:visible"/></clipPath><path d="M28.1 76.8s-5.1 0-5.1-5.1V41.5s0-5.1 5.1-5.1h6.8s5.1 0 5.1 5.1v30.2s0 5.1-5.1 5.1h-6.8z" class="st7"/><path d="M29.6 74s-5 0-5-5V44.3s0-5 5-5h3.7s5 0 5 5V69s0 5-5 5h-3.7z" class="st7"/><path d="M28.6 70.6s-2.5 0-2.5-2.5V43.4s0-2.5 2.5-2.5h5.6s2.5 0 2.5 2.5v24.7s0 2.5-2.5 2.5h-5.6z" class="st7"/><circle cx="31.4" cy="44.6" r=".8" class="st7"/><path d="M40.8 81.3V32.4" style="fill:none;stroke:#39373a;stroke-width:.535"/><defs><path id="SVGID_5_" d="M14.5 9.7h121.3v220.8H14.5z"/></defs><clipPath id="SVGID_6_"><use xlink:href="#SVGID_5_" style="overflow:visible"/></clipPath><path d="M49.4 46.3c-2.8 0-5.1-2.3-5.1-5.1v-5.4c0-.4.3-.8.8-.8h11.6c.4 0 .8.3.8.8v5.4c0 2.8-2.3 5.1-5.1 5.1h-3zm7.2-11.6H45.1c-.6 0-1.1.5-1.1 1.1v5.4c0 3 2.4 5.4 5.4 5.4h2.9c3 0 5.4-2.4 5.4-5.4v-5.4c0-.6-.5-1.1-1.1-1.1" class="st9"/><path d="M49.4 46.3c-2.8 0-5.1-2.3-5.1-5.1v-5.4c0-.4.3-.8.8-.8h11.6c.4 0 .8.3.8.8v5.4c0 2.8-2.3 5.1-5.1 5.1h-3zm7.2-11.6H45.1c-.6 0-1.1.5-1.1 1.1v5.4c0 3 2.4 5.4 5.4 5.4h2.9c3 0 5.4-2.4 5.4-5.4v-5.4c0-.6-.5-1.1-1.1-1.1z" class="st10"/><path d="M49.4 45c-2.1 0-3.8-1.7-3.8-3.8V38c0-.4.3-.7.7-.7h9.2c.4 0 .7.3.7.7v3.2c0 2.1-1.7 3.8-3.8 3.8h-3zm6.1-7.9h-9.2c-.5 0-1 .4-1 1v3.2c0 2.3 1.9 4.1 4.1 4.1h2.9c2.3 0 4.1-1.9 4.1-4.1V38c0-.5-.4-.9-.9-.9" class="st9"/><path d="M49.4 45c-2.1 0-3.8-1.7-3.8-3.8V38c0-.4.3-.7.7-.7h9.2c.4 0 .7.3.7.7v3.2c0 2.1-1.7 3.8-3.8 3.8h-3zm6.1-7.9h-9.2c-.5 0-1 .4-1 1v3.2c0 2.3 1.9 4.1 4.1 4.1h2.9c2.3 0 4.1-1.9 4.1-4.1V38c0-.5-.4-.9-.9-.9z" class="st10"/><path d="M50.9 42.3c-.4 0-.6-.3-.6-.6 0-.4.3-.6.6-.6s.6.3.6.6c0 .4-.3.6-.6.6m0-1.5c-.5 0-.9.4-.9.9s.4.9.9.9.9-.4.9-.9-.4-.9-.9-.9" class="st9"/><path d="M50.9 42.3c-.4 0-.6-.3-.6-.6 0-.4.3-.6.6-.6s.6.3.6.6c0 .4-.3.6-.6.6zm0-1.5c-.5 0-.9.4-.9.9s.4.9.9.9.9-.4.9-.9-.4-.9-.9-.9z" class="st10"/><path d="M66.2 52.3c2.6 0 4.7-2.1 4.7-4.8v-6.9c0-.5-.4-.8-.8-.8h-7.8c-.4 0-.8.4-.8.8v6.9c-.1 2.7 2.1 4.8 4.7 4.8m-3.9-12.8h7.8c.6 0 1.1.5 1.1 1.1v6.9c0 2.8-2.3 5.1-5 5.1-2.8 0-5-2.3-5-5.1v-6.9c-.1-.6.4-1.1 1.1-1.1" class="st9"/><path d="M66.2 52.3c2.6 0 4.7-2.1 4.7-4.8v-6.9c0-.5-.4-.8-.8-.8h-7.8c-.4 0-.8.4-.8.8v6.9c-.1 2.7 2.1 4.8 4.7 4.8zm-3.9-12.8h7.8c.6 0 1.1.5 1.1 1.1v6.9c0 2.8-2.3 5.1-5 5.1-2.8 0-5-2.3-5-5.1v-6.9c-.1-.6.4-1.1 1.1-1.1z" class="st11"/><path d="M69.5 42.1h-6.8s-.1 0-.1.1v5.2c0 1.9 1.6 3.5 3.5 3.5s3.5-1.6 3.5-3.5l-.1-5.3c.1.1.1 0 0 0z" class="st11"/><path d="M69.5 42.3h-6.6v5.1c0 1.8 1.5 3.3 3.3 3.3 1.8 0 3.3-1.5 3.3-3.3v-5.1zm-6.7-.3h6.8c.1 0 .2.1.2.2v5.2c0 2-1.6 3.7-3.6 3.7s-3.6-1.6-3.6-3.7v-5.2c-.1-.1.1-.2.2-.2" class="st9"/><path d="M69.5 42.3h-6.6v5.1c0 1.8 1.5 3.3 3.3 3.3 1.8 0 3.3-1.5 3.3-3.3v-5.1zm-6.7-.3h6.8c.1 0 .2.1.2.2v5.2c0 2-1.6 3.7-3.6 3.7s-3.6-1.6-3.6-3.7v-5.2c-.1-.1.1-.2.2-.2z" class="st11"/><path d="M66.2 47.4c.5 0 .9-.4.9-.9s-.4-.9-.9-.9-.9.4-.9.9.4.9.9.9m0-2.1c.7 0 1.2.5 1.2 1.2s-.5 1.2-1.2 1.2-1.2-.5-1.2-1.2c0-.6.5-1.2 1.2-1.2" class="st9"/><path d="M66.2 47.4c.5 0 .9-.4.9-.9s-.4-.9-.9-.9-.9.4-.9.9.4.9.9.9zm0-2.1c.7 0 1.2.5 1.2 1.2s-.5 1.2-1.2 1.2-1.2-.5-1.2-1.2c0-.6.5-1.2 1.2-1.2z" class="st11"/><path d="m68.8 42.8.2.2-1.5 2.1-.3-.2z" class="st2"/><path d="m68.8 42.8.2.2-1.5 2.1-.3-.2z" class="st12"/><path d="m63.6 42.8 1.6 2.1-.3.2-1.6-2.1z" class="st2"/><path d="m63.6 42.8 1.6 2.1-.3.2-1.6-2.1z" class="st12"/><defs><path id="SVGID_7_" d="M14.5 9.7h121.3v220.8H14.5z"/></defs><clipPath id="SVGID_8_"><use xlink:href="#SVGID_7_" style="overflow:visible"/></clipPath><path d="M69.4 39.4c.7 0 1.3-.6 1.3-1.3v-1.8c0-.7-.6-1.3-1.3-1.3h-6.5c-.7 0-1.3.6-1.3 1.3v1.8c0 .7.6 1.3 1.3 1.3h6.5zm-6.5-4.7h6.5c.9 0 1.6.7 1.6 1.6v1.8c0 .9-.7 1.6-1.6 1.6h-6.5c-.9 0-1.6-.7-1.6-1.6v-1.8c0-.9.7-1.6 1.6-1.6" class="st13"/><path d="M69.4 39.4c.7 0 1.3-.6 1.3-1.3v-1.8c0-.7-.6-1.3-1.3-1.3h-6.5c-.7 0-1.3.6-1.3 1.3v1.8c0 .7.6 1.3 1.3 1.3h6.5zm-6.5-4.7h6.5c.9 0 1.6.7 1.6 1.6v1.8c0 .9-.7 1.6-1.6 1.6h-6.5c-.9 0-1.6-.7-1.6-1.6v-1.8c0-.9.7-1.6 1.6-1.6z" class="st14"/><path d="M66.2 37.7c.3 0 .5-.2.5-.5s-.2-.5-.5-.5-.5.2-.5.5.2.5.5.5m0-1.3c.4 0 .8.4.8.8 0 .5-.4.8-.8.8s-.8-.4-.8-.8.3-.8.8-.8" class="st13"/><path d="M66.2 37.7c.3 0 .5-.2.5-.5s-.2-.5-.5-.5-.5.2-.5.5.2.5.5.5zm0-1.3c.4 0 .8.4.8.8 0 .5-.4.8-.8.8s-.8-.4-.8-.8.3-.8.8-.8z" class="st14"/><path d="M22.2 109H38V93.2H22.2V109zm-.4-16.2h16.6v16.6H21.8V92.8z" class="st2"/><path d="M22.2 109H38V93.2H22.2V109zm-.4-16.2h16.6v16.6H21.8V92.8z" class="st15"/><defs><path id="SVGID_9_" d="M14.5 9.7h121.3v220.8H14.5z"/></defs><clipPath id="SVGID_10_"><use xlink:href="#SVGID_9_" style="overflow:visible"/></clipPath><path d="M36.6 95.6c0-.4-.3-.7-.7-.7h-8.3c-.4 0-.7.3-.7.7v11.1c0 .4.3.7.7.7h8.3c.4 0 .7-.3.7-.7V95.6zm-10.1 11.1V95.6c0-.6.5-1.1 1.1-1.1h8.3c.6 0 1.1.5 1.1 1.1v11.1c0 .6-.5 1.1-1.1 1.1h-8.3c-.6-.1-1.1-.5-1.1-1.1" style="clip-path:url(#SVGID_10_);fill:#39373a"/><path d="M36.6 95.6c0-.4-.3-.7-.7-.7h-8.3c-.4 0-.7.3-.7.7v11.1c0 .4.3.7.7.7h8.3c.4 0 .7-.3.7-.7V95.6zm-10.1 11.1V95.6c0-.6.5-1.1 1.1-1.1h8.3c.6 0 1.1.5 1.1 1.1v11.1c0 .6-.5 1.1-1.1 1.1h-8.3c-.6-.1-1.1-.5-1.1-1.1z" style="clip-path:url(#SVGID_10_);fill:none;stroke:#39373a;stroke-width:.244"/><path d="M28.1 106.1h7.3v-10h-7.3v10zm-.4-10.4h8v10.8h-8V95.7z" class="st2"/><path d="M28.1 106.1h7.3v-10h-7.3v10zm-.4-10.4h8v10.8h-8V95.7z" class="st15"/><defs><path id="SVGID_11_" d="M14.5 9.7h121.3v220.8H14.5z"/></defs><clipPath id="SVGID_12_"><use xlink:href="#SVGID_11_" style="overflow:visible"/></clipPath><path d="M33.1 101.1c0-.5-.4-.9-.9-.9s-.9.4-.9.9.4.9.9.9.9-.4.9-.9m-2.2 0c0-.7.6-1.3 1.3-1.3s1.3.6 1.3 1.3c0 .7-.6 1.3-1.3 1.3s-1.3-.6-1.3-1.3" style="clip-path:url(#SVGID_12_);fill:#39373a"/><path d="M33.1 101.1c0-.5-.4-.9-.9-.9s-.9.4-.9.9.4.9.9.9.9-.4.9-.9zm-2.2 0c0-.7.6-1.3 1.3-1.3s1.3.6 1.3 1.3c0 .7-.6 1.3-1.3 1.3s-1.3-.6-1.3-1.3z" style="clip-path:url(#SVGID_12_);fill:none;stroke:#39373a;stroke-width:.244"/><path d="M41 66.6h14.8v12.5H41z" class="st4"/><defs><path id="SVGID_13_" d="M14.5 9.7h121.3v220.8H14.5z"/></defs><clipPath id="SVGID_14_"><use xlink:href="#SVGID_13_" style="overflow:visible"/></clipPath><path d="M108.1 61v-.9h-2.7l-.1 1.9c0 .2.1.4.3.4l.7.1c.6 0 .8.1.8.5 0 .3-.1.5-.7.5h-1.1l-.1.9c.5.1 1.1.1 1.5.1 1.2 0 1.6-.6 1.6-1.4 0-.7-.3-1.3-1.3-1.4l-.7-.1V61h1.8zm-4 2.4c-.3 0-.4.1-.4.4v.3c0 .3.1.4.4.4h.3c.3 0 .4-.1.4-.4v-.3c0-.3-.1-.4-.4-.4h-.3zm-.8-.6h-.5V61h-.9l-.2.7v1.1h-.8c-.1 0-.2-.1-.1-.2l.9-2.4h-1.1l-1.1 2.7c-.1.3.1.7.5.7h1.7v.9h1.1v-.9l.5-.1v-.7zm15.1-7.5h-.4c-.3 0-.3-.1-.3-.4 0-.2.1-.3.3-.3h.4v.7zm-1.2.4c-.2 0-.5.1-.6.3l-.2 1h1.2l.2-.8c0-.1.1-.2.3-.2h.4v1h1.1v-3.1H118c-1.1 0-1.4.2-1.4 1-.1.3 0 .7.6.8zm-3.3.2c0-.1.1-.2.3-.2h.6v.4c-.2.1-.4.2-.6.2-.2 0-.3-.1-.3-.2v-.2zm-.9-1.2h1.3c.3 0 .4.1.4.4v.1h-1c-.6 0-1 .3-1 .8v.3c0 .6.5.9 1 .9s.9-.3 1.1-.5l.2.3h.9v-2c0-.9-.5-1.2-1.3-1.2-.5 0-1.2.1-1.7.2l.1.7zm-1.7.7c.7-.1.7-.2 1.1-1.5h-1.1c-.3 1-.4 1.1-.7 1.1h-.2v-1.1h-1V55h-.2c-.3 0-.3-.1-.7-1.1h-1.1c.4 1.3.4 1.4 1.1 1.5-.7.1-.8.2-1.2 1.6h1.1c.4-1.2.4-1.2.7-1.2h.2v1.3h1v-1.3h.2c.3 0 .3.1.7 1.2h1.1c-.2-1.4-.3-1.5-1-1.6zm-5.8-.8c.4 0 .5.2.5.8 0 .7-.1.8-.5.8s-.5-.1-.5-.8c0-.6.1-.8.5-.8m0-.8c-1.2 0-1.7.4-1.7 1.6 0 1.2.4 1.6 1.7 1.6 1.2 0 1.7-.4 1.7-1.6 0-1.1-.5-1.6-1.7-1.6m-2.9 3.2h1.1l-.9-1.6.8-1.5h-1.1l-.6 1.2-.6-1.2h-1.1l.8 1.5-.9 1.6h1.1l.7-1.2.7 1.2zm-2.8 0v-3.1h-1l-1 1.5c-.1.1-.2.3-.2.5v-2h-1V57h1l1-1.4c.1-.1.2-.3.2-.5V57h1zm-5.9-2.1c.2-.1.3-.2.6-.2s.4.1.4.8c0 .7-.1.8-.4.8-.2 0-.4-.1-.5-.1v-1.3zm-.2-1h-.9v4.2h1.1v-1.4c.3.2.6.3 1 .3.8 0 1.2-.3 1.2-1.6 0-1.1-.3-1.7-1.1-1.7-.5 0-1 .2-1.2.5l-.1-.3zM92 52.7h-3.6V57h1.2v-3.5h1.3V57H92v-4.3zM68.5 67.6c.5 0 .6.1.6.6 0 .4-.1.5-.6.5s-.6-.1-.6-.5c0-.5.1-.6.6-.6m0-1.8c.4 0 .5.1.5.5s-.1.5-.5.5-.5-.1-.5-.5.1-.5.5-.5m-.9 1.4c-.6.1-.8.6-.8 1.1 0 .8.3 1.2 1.7 1.2s1.7-.3 1.7-1.2c0-.6-.1-1.1-.8-1.1.5-.1.7-.5.7-1 0-.8-.3-1.2-1.6-1.2s-1.6.3-1.6 1.2c0 .4.2.9.7 1zm-2 1.2c-.3 0-.4.1-.4.4v.2c0 .3.1.4.4.4h.3c.3 0 .4-.1.4-.4v-.3c0-.3-.1-.4-.4-.4h-.3zM61.7 66h1.2c.4 0 .6.1.6.4 0 .3 0 .5-.5.5h-.8v.7h.8c.5 0 .6.1.6.5s-.2.5-.7.5h-1.2v.8c.5.1 1 .1 1.5.1 1.1 0 1.6-.4 1.5-1.3 0-.7-.2-1-.8-1.1.6-.1.7-.5.7-1.1 0-.8-.4-1-1.4-1-.5 0-1 0-1.4.1l-.1.9zm9.6-7.1h-1.2l-.5 1.8c0 .1-.1.3-.1.5h-.1c0-.2-.1-.4-.1-.5l-.5-1.8h-1.2l1 2.8c.1.2.2.3.4.3h.2c-.1.2-.2.3-.3.4-.2.1-.5.1-.9.1v.7c.4.1.9.1 1.3-.1.5-.2.8-.5 1.1-1.2l.9-3zm-6.1 3.5 2.4-4.8h-.9l-2.4 4.8h.9zM64 61c-.4 0-.8.1-1.4.1-.5 0-.7-.3-.7-1.2s.1-1.2.7-1.2h1.3l.1-.9c-.4-.1-.7-.2-1.4-.2-1.4 0-1.9.6-1.9 2.2s.5 2.2 1.9 2.2c.6 0 1-.1 1.4-.2V61zm-24.6 79.6v.9h1.9c-.1.1-.2.3-.2.5l-1 2.9h1.1l1.3-3.7c.1-.3-.1-.6-.4-.6h-2.7zm-.8 3.2c-.3 0-.4.1-.4.4v.3c0 .3.1.4.4.4h.3c.3 0 .4-.1.4-.4v-.3c0-.3-.1-.4-.4-.4h-.3zm-1.1-2.3v-.9h-2.7l-.1 1.9c0 .2.1.4.3.4l.7.1c.6 0 .8.1.8.5 0 .3-.1.5-.7.5-.3 0-.7 0-1.1-.1l-.1.9c.5.1 1.1.1 1.5.1 1.2 0 1.6-.6 1.6-1.4 0-.7-.3-1.3-1.3-1.4l-.7-.1v-.6h1.8zm7-5.1c0-.1.1-.2.3-.2h.6v.4c-.2.1-.4.2-.6.2-.2 0-.3-.1-.3-.2v-.2zm-.9-1.3h1.3c.3 0 .4.1.4.4v.1h-1c-.6 0-1 .3-1 .8v.3c0 .6.5.9 1 .9s.9-.3 1.1-.5l.1.5h.9v-2c0-.9-.5-1.2-1.3-1.2-.5 0-1.2.1-1.7.2l.2.5zm-.7-.8h-1.1v2.3H41v-2.3h-1v2.3h-.7v-2.3h-1.1v3.1h4.6v-3.1zm-5.3 3.1v-3.1h-1l-1 1.5c-.1.1-.2.3-.2.5v-2h-1v3.1h1l1-1.4c.1-.1.2-.3.2-.5v1.9h1zm-3.9-3.1h-1.1v1.1h-.9v-1.1h-1.1v3.1h1.1v-1.3h.9v1.3h1.1v-3.1zm15.1-6.3H47v.7h1.8v-.7zm-3.6.3h-.4c-.3 0-.3-.1-.3-.4 0-.2.1-.3.3-.3h.4v.7zm-1.2.3c-.2 0-.5.1-.6.3l-.2 1h1.2l.2-.8c0-.1.1-.2.3-.2h.4v1h1.1v-3.1c-.4 0-.7-.1-1.6-.1-1.1 0-1.4.2-1.4 1-.1.5.1.8.6.9zm-1.3-1.7h-1.1v1.1h-.9v-1.1h-1.1v3.1h1.1v-1.3h.9v1.3h1.1v-3.1zm-4.6 3.1h1.1l-.9-1.6.8-1.5H38l-.6 1.2-.6-1.2h-1.1l.8 1.5-.9 1.6h1.1l.7-1.2.7 1.2zm-2.5-3.1h-1.2l-.5 1.8c0 .1-.1.3-.1.5h-.1c0-.2-.1-.4-.1-.5l-.5-1.8H32l1 2.8c0 .2.2.3.4.3h.2c-.1.2-.2.3-.3.4-.2.1-.5.1-.9.1l-.1.7c.4.1.9.1 1.3-.1.5-.2.8-.5 1.1-1.2l.9-3zm-5.1.8c.9-.1.9-.5 1.3-2h-1.2c-.3 1.3-.4 1.7-1 1.7h-.2v-1.6h-1.2v4.3h1.2v-1.8h.2c.6 0 .6.3 1.1 1.8H32c-.6-1.9-.6-2.2-1.5-2.4zm39.1 84h1.7c.6 0 .8.1.8.6 0 .4-.1.7-.7.7h-1.2v1.1h1.2c.7 0 .8.2.8.7 0 .6-.2.7-1 .7-.5 0-.9 0-1.7-.1l-.1 1.2c.7.1 1.5.2 2.2.2 1.6 0 2.2-.5 2.2-1.8 0-.9-.3-1.4-1.1-1.5.8-.1 1-.7 1-1.5 0-1.1-.6-1.4-2.1-1.4-.7 0-1.4.1-2.1.2l.1.9zm-1.8 3.4c-.4 0-.6.1-.6.6v.4c0 .4.1.6.6.6h.4c.4 0 .6-.1.6-.6v-.4c0-.4-.1-.6-.6-.6h-.4zm-1.2-.8h-.7v-2.5h-1.3l-.3 1v1.6h-1.2c-.1 0-.2-.1-.2-.3l1.3-3.5h-1.6l-1.5 3.9c-.2.5.1.9.6.9h2.5v1.3h1.5v-1.3l.7-.2v-.9zm35.6-43.6h-.7v-2.5h-1.3l-.3 1v1.6h-1.2c-.1 0-.2-.1-.2-.3l1.3-3.5h-1.6l-1.5 3.9c-.2.5.1.9.6.9h2.5v1.3h1.5v-1.3l.7-.2v-.9zm-6.9.9c-.4 0-.6.1-.6.6v.4c0 .4.1.6.6.6h.4c.4 0 .6-.1.6-.6v-.4c0-.4-.1-.6-.6-.6h-.4zm-1.6 1.5V167H92l-1.6.6.2 1.1 1.4-.3c-.1.2-.1.5-.1.7v4.1h1.8zm-4 0V167H88l-1.6.6.2 1.1 1.4-.3c-.1.2-.1.5-.1.7v4.1h1.8zm20.4-12.2c0-.2.1-.3.4-.3h.9v.6c-.3.2-.6.3-.9.3-.3 0-.4-.1-.4-.4v-.2zm-1.2-1.7c.7 0 1.4-.1 1.9-.1s.6.1.6.5v.1h-1.5c-.9 0-1.4.4-1.4 1.1v.4c0 .8.7 1.3 1.5 1.3s1.3-.4 1.6-.8l.2.6h1.3v-2.8c0-1.3-.7-1.7-1.8-1.7-.6 0-1.8.1-2.4.2v1.2zm-.7 0V158h-4.4v1.2h1.4v3.2h1.6v-3.2h1.4zm-7.9 1.7c0-.2.1-.3.4-.3h.9v.6c-.3.2-.6.3-.9.3-.3 0-.4-.1-.4-.4v-.2zm-1.2-1.7c.7 0 1.4-.1 1.9-.1s.6.1.6.5v.1h-1.5c-.9 0-1.4.4-1.4 1.1v.4c0 .8.7 1.3 1.5 1.3s1.3-.4 1.6-.8l.2.6h1.3v-2.8c0-1.3-.7-1.7-1.8-1.7-.7 0-1.8.1-2.4.2v1.2zM98 158h-1.6v1.6H95V158h-1.6v4.4H95v-1.8h1.4v1.8H98V158zm-7.5 0c-.3 0-.6.2-.6.5l-.4 1.6c0 .2-.1.4-.1.7h-.1c0-.2 0-.4-.1-.7l-.4-1.6c-.1-.3-.3-.5-.6-.5h-1.4c-.4 0-.6.2-.6.6l-.1 3.9h1.5l.1-3.2h.1l.5 2.1c.1.3.3.5.6.5h.7c.3 0 .5-.2.6-.5l.5-2.1h.3l.1 3.2h1.5l-.1-3.9c0-.4-.2-.6-.6-.6h-1.4zm-7.4 1c.5 0 .7.2.7 1.2s-.1 1.2-.7 1.2-.7-.2-.7-1.2.2-1.2.7-1.2m0-1.1c-1.7 0-2.4.6-2.4 2.3 0 1.7.6 2.3 2.4 2.3 1.7 0 2.4-.6 2.4-2.3 0-1.7-.6-2.3-2.4-2.3m-4.4 2.2c1-.2 1-.2 1.5-2.1h-1.6c-.4 1.5-.4 1.6-1 1.6h-.2c0-.2.1-.4.1-.6v-1h-1.6v4.4h1.6V161c0-.1 0-.2-.1-.4h.4c.5 0 .5.1 1 1.8h1.7c-.7-2.1-.7-2.1-1.8-2.3zm28.5-10.8h-.6c-.4 0-.5-.1-.5-.6 0-.3.1-.4.5-.4h.6v1zm-1.7.6c-.3 0-.7.1-.8.5l-.3 1.4h1.7l.3-1.2c0-.2.1-.3.4-.3h.6v1.4h1.6v-4.4c-.6-.1-1-.1-2.2-.1-1.6 0-2 .3-2 1.4-.3.6-.1 1.1.7 1.3zm-4.7.3c0-.2.1-.3.4-.3h.9v.6c-.3.2-.6.3-.9.3-.3 0-.4-.1-.4-.4v-.2zm-1.2-1.7c.7 0 1.4-.1 1.9-.1s.6.1.6.5v.1h-1.5c-.9 0-1.4.4-1.4 1.1v.4c0 .8.7 1.3 1.5 1.3s1.3-.4 1.6-.8l.2.6h1.3v-2.8c0-1.3-.7-1.7-1.8-1.7-.6 0-1.8.1-2.4.2v1.2zm-1.1-1.1h-2.7c-.8 0-1.2.4-1.2 1.1-.1.8-.1 1.4-.2 1.7-.1.4-.4.3-.7.4l.2 1.2c1 .2 1.8-.1 2-1.2.1-.4.2-1.2.3-1.9 0-.3.2-.4.4-.4h.4v3.3h1.6v-4.2zm-5.4 4.4v-4.4h-1.4l-1.4 2.1-.3.6c0-.3.1-.5.1-.7v-2.1h-1.4v4.4h1.4l1.4-2c.1-.2.3-.5.4-.7 0 .3-.1.5-.1.8v2h1.3zm-7.2-3.3c1.2-.2 1.2-.7 1.9-2.9h-1.7c-.6 1.8-.7 2.4-1.3 2.4h-.3c0-.3.1-.5.1-.8v-1.6H83v1.6c0 .2 0 .5.1.8h-.3c-.6 0-.7-.6-1.2-2.4h-1.7c.6 2.2.7 2.7 1.9 2.9v.1c-1.2.2-1.3.7-2 3.2h1.7c.7-2.2.8-2.6 1.4-2.6h.3c0 .2-.1.4-.1.6v2.1h1.6v-2.1c0-.2 0-.4-.1-.6h.3c.6 0 .7.4 1.4 2.6h1.8c-.9-2.5-1-3-2.2-3.3zm20.7-11.7c-1.6 0-1.8-.5-1.8-3.6.7-.4 1.1-.5 1.8-.5 1.3 0 1.6.3 1.6 1.8 0 1.7-.1 2.3-1.6 2.3m4.2-11.3c-1.4-.4-2.9-.4-3.6-.4-4.1 0-6.1 1-6.1 7.4 0 5.7 1.3 7.1 5.4 7.1 4.3 0 5.2-1.6 5.2-5.1 0-3.1-.9-4.3-4.1-4.3-1.2 0-2.1.2-2.9.8.1-2.6.6-3.1 2.4-3.1h3.5l.2-2.4zm-13.5 10.4c-1 0-1.3.3-1.3 1.3v.9c0 1 .3 1.3 1.3 1.3h.9c1 0 1.3-.3 1.3-1.3v-.9c0-1-.3-1.3-1.3-1.3h-.9zm-11.8-10.6.2 3.1h6.1c-.3.5-.5 1-.7 1.5l-3.4 9.5h3.7l4.2-12.1c.3-1-.3-1.9-1.4-1.9h-8.7zm-11.4 3.1c1.9-.1 2.9-.1 4.4-.1 1.1 0 1.5.1 1.5.6 0 .8-.9 2.1-2.5 3.7l-3.1 3.2c-.4.4-.5.9-.5 1.5v2h10.4V136h-4c-.7 0-1.3 0-2 .2l3.5-3.4c1.8-1.9 2.2-2.8 2.2-4.4 0-2.7-2-3.4-5-3.4-1.5 0-3 .1-5 .5l.1 2.9z" class="st20"/><circle cx="94.4" cy="109.5" r="12.4" style="clip-path:url(#SVGID_14_);fill:none;stroke:#39373a;stroke-width:.854" transform="rotate(-82.981 94.4 109.52)"/><path d="M101.9 112.5c-1 .1-1.9.1-3.4.1-1.3 0-1.6-.6-1.6-3s.4-3 1.6-3h3.1l.2-2.1c-1-.3-1.8-.4-3.4-.4-3.4 0-4.6 1.4-4.6 5.5 0 4 1.2 5.5 4.6 5.5 1.6 0 2.6-.1 3.6-.5l-.1-2.1zm-9.9 2.4v-10.6h-2.9l-2.7 1 .3 1.8 2.5-.6c-.1.4-.1.8-.1 1.3v7H92z" class="st20"/><path d="M31.4 79.3h22.5v7H31.4z" class="st2"/><path d="M38 81.2h9.1v3.3H38zm10.7 0H52v3.3h-3.3zm-15.2 0h3.3v3.3h-3.3z" style="fill:#fff"/><path d="M15.5 224.2h104.3v6.2H15.5z" class="st2"/><path d="M15.5 197.6h6.2v32.8h-6.2z" class="st2"/><path d="M61 195.2h73.9v2.1H61z" class="st3"/></g></switch></svg>