<?xml version="1.0" encoding="UTF-8"?>
<svg id="_Слой_1" xmlns="http://www.w3.org/2000/svg" version="1.1" viewBox="0 0 1200 1200">
  <!-- Generator: Adobe Illustrator 29.4.0, SVG Export Plug-In . SVG Version: 2.1.0 Build 152)  -->
  <defs>
    <style>
      .st0 {
        fill: none;
        stroke: #3c3c3b;
      }

      .st1 {
        fill: #3c3c3b;
      }

      .st2 {
        fill: #b1dcde;
      }
    </style>
  </defs>
  <rect class="st2" x="187.93" y="177.84" width="824.54" height="647.55"/>
  <rect class="st1" x="164.06" y="163.32" width="247.11" height="19.01"/>
  <rect class="st0" x="164.06" y="163.32" width="247.11" height="19.01"/>
  <rect class="st1" x="394.49" y="150.63" width="28.54" height="31.71"/>
  <rect class="st0" x="394.49" y="150.63" width="28.54" height="31.71"/>
  <rect class="st1" x="534.92" y="150.63" width="498.75" height="31.71"/>
  <rect class="st1" x="164.06" y="150.63" width="260.53" height="31.71"/>
  <rect class="st0" x="164.06" y="150.63" width="160.01" height="31.71"/>
  <rect class="st1" x="169.67" y="826.56" width="127.35" height="47.73"/>
  <rect class="st0" x="169.67" y="826.56" width="127.35" height="47.73"/>
  <rect class="st1" x="590.52" y="352.33" width="20.02" height="481.88"/>
  <rect class="st0" x="590.52" y="352.33" width="20.02" height="481.88"/>
  <rect class="st1" x="590.52" y="150.63" width="20.02" height="97.16"/>
  <rect class="st0" x="590.52" y="150.63" width="20.02" height="97.16"/>
  <rect class="st1" x="1013.65" y="150.63" width="20.02" height="853.24"/>
  <rect class="st0" x="1013.65" y="150.63" width="20.02" height="853.24"/>
  <rect class="st1" x="599.88" y="162.31" width="422.6" height="20.02"/>
  <rect class="st0" x="599.88" y="162.31" width="422.6" height="20.02"/>
  <rect class="st0" x="605.18" y="1017.56" width="414.58" height="13.32" transform="translate(-134.78 123.2) rotate(-8.01)"/>
  <rect class="st1" x="601.71" y="863.96" width="95.99" height="9"/>
  <rect class="st0" x="601.71" y="863.96" width="95.99" height="9"/>
  <rect class="st1" x="204.31" y="865.3" width="95.99" height="9"/>
  <rect class="st0" x="204.31" y="865.3" width="95.99" height="9"/>
  <rect class="st1" x="164.06" y="865.3" width="138.58" height="9"/>
  <rect class="st0" x="164.06" y="865.3" width="138.58" height="9"/>
  <rect class="st1" x="600.54" y="826.57" width="86.89" height="46.39"/>
  <rect class="st0" x="600.54" y="826.57" width="86.89" height="46.39"/>
  <rect class="st1" x="927.82" y="863.96" width="105.85" height="9"/>
  <rect class="st0" x="927.82" y="863.96" width="105.85" height="9"/>
  <rect class="st1" x="473.64" y="863.96" width="190" height="9"/>
  <rect class="st0" x="473.64" y="863.96" width="190" height="9"/>
  <rect class="st1" x="933.47" y="826.57" width="94.55" height="46.39"/>
  <rect class="st0" x="933.47" y="826.57" width="94.55" height="46.39"/>
  <rect class="st1" x="483.78" y="826.57" width="169.73" height="46.39"/>
  <rect class="st0" x="483.78" y="826.57" width="169.73" height="46.39"/>
  <rect class="st0" x="775.62" y="826.56" width="180.08" height="37.38"/>
  <rect class="st0" x="378.21" y="826.56" width="180.08" height="37.38"/>
  <rect class="st0" x="764.27" y="863.96" width="180.08" height="9"/>
  <rect class="st0" x="366.86" y="863.96" width="180.08" height="9"/>
  <path class="st0" d="M775.34,863.38s0-11.14-4.94-25c-4.14-11.6-12.38-22.44-12.38-22.44l-77.1,43.61,1.72,2.74,77.27-43.63"/>
  <path class="st0" d="M377.93,863.38s0-11.14-4.94-25c-4.14-11.6-12.38-22.44-12.38-22.44l-77.1,43.61,1.72,2.74,77.27-43.63"/>
  <rect class="st0" x="552.63" y="393.87" width="35.37" height="101.22"/>
  <line class="st0" x1="582.46" y1="394.18" x2="582.46" y2="495.59"/>
  <polyline class="st0" points="582.5 399.12 556.92 401.36 556.92 465.41 582.5 468.22 582.5 472.43 556.63 475.24 556.63 489.57 582.5 492.66"/>
  <rect class="st0" x="189.79" y="184.86" width="33.7" height="94.4"/>
  <line class="st0" x1="218.21" y1="185.06" x2="218.21" y2="279.81"/>
  <polyline class="st0" points="218.23 189.76 193.89 191.86 193.89 251.58 218.23 254.2 218.23 258.13 193.62 260.75 193.62 274.1 218.23 276.99"/>
  <path class="st0" d="M417.2,170.52l104.33,60.21s5.44-8.56,10.1-26.91c4.67-18.36,4.67-31.12,4.67-31.12"/>
  <path class="st0" d="M598.18,233.59l60.21,104.33s-8.56,5.44-26.91,10.1c-18.36,4.67-31.12,4.67-31.12,4.67"/>
  <rect class="st0" x="339.39" y="450.48" width="47.23" height="71.46"/>
  <line class="st0" x1="340.08" y1="450.13" x2="386.42" y2="521.8"/>
  <line class="st0" x1="386.96" y1="450.13" x2="340.62" y2="521.8"/>
  <path class="st1" d="M831.08,641.87c0-2.08.87-3.12,2.6-3.12s2.58,1.04,2.58,3.12v17.13c0,2.09-.86,3.14-2.58,3.14s-2.6-1.05-2.6-3.14v-17.13ZM828.06,664.57c1.31,1.39,3.18,2.08,5.62,2.08s4.3-.69,5.6-2.08c1.3-1.39,1.95-3.35,1.95-5.89v-16.5c0-2.54-.65-4.5-1.95-5.89-1.3-1.39-3.17-2.08-5.6-2.08s-4.31.69-5.62,2.08c-1.31,1.39-1.96,3.35-1.96,5.89v16.5c0,2.54.65,4.5,1.96,5.89M823.09,661.72h-4.98v4.58h4.98v-4.58ZM804.64,641.87c0-2.05.86-3.07,2.58-3.07s2.6,1.02,2.6,3.07v5.71c0,2.08-.87,3.12-2.6,3.12s-2.58-1.04-2.58-3.12v-5.71ZM801.05,653.37c.92,1.24,2.3,1.86,4.12,1.86,2.21,0,3.76-.94,4.65-2.81v5.8c0,1.45-.23,2.46-.69,3.04-.46.58-1.15.87-2.09.87-1.73,0-2.6-1.05-2.6-3.14v-1.13h-4.69v.82c0,2.55.63,4.51,1.9,5.9,1.26,1.38,3.11,2.07,5.52,2.07,5.08,0,7.62-2.74,7.62-8.23v-16.24c0-2.54-.66-4.5-1.96-5.89-1.31-1.39-3.18-2.08-5.61-2.08s-4.31.69-5.61,2.08c-1.3,1.39-1.95,3.35-1.95,5.89v5.82c0,2.35.46,4.14,1.39,5.38M789.15,642.09v24.2h4.98v-31.72h-3.36c-.19.51-.36.93-.51,1.25-.15.32-.37.67-.66,1.06-.29.39-.61.7-.96.91-.35.21-.82.4-1.39.55-.57.16-1.23.24-1.97.24v3.52h3.87Z"/>
  <path class="st1" d="M924.59,585.89l2.41,15.97h-4.8l2.39-15.97ZM920.69,611.93l.86-5.75h6.1l.87,5.75h4.98l-5.05-31.72h-7.69l-5.05,31.72h4.98ZM904.65,584.74v27.19h4.98v-27.19h5.22v-4.53h-15.42v4.53h5.22ZM890.04,585.89l2.41,15.97h-4.8l2.39-15.97ZM886.13,611.93l.86-5.75h6.1l.87,5.75h4.98l-5.05-31.72h-7.69l-5.05,31.72h4.98ZM868.1,611.93v-13.58h5.66v13.58h4.98v-31.72h-4.98v13.61h-5.66v-13.61h-4.98v31.72h4.98ZM842.92,611.93v-22.38l3.72,22.38h4.72l3.44-22.74v22.74h4.98v-31.72h-7.18l-3.42,22.6-3.69-22.6h-6.91v31.72h4.34ZM825.25,587.5c0-2.08.87-3.12,2.6-3.12s2.58,1.04,2.58,3.12v17.13c0,2.09-.86,3.14-2.58,3.14s-2.6-1.05-2.6-3.14v-17.13ZM822.23,610.2c1.31,1.39,3.18,2.08,5.62,2.08s4.3-.69,5.6-2.08c1.3-1.39,1.95-3.35,1.95-5.89v-16.5c0-2.54-.65-4.5-1.95-5.89-1.3-1.39-3.17-2.08-5.6-2.08s-4.31.69-5.62,2.08c-1.31,1.39-1.96,3.35-1.96,5.89v16.5c0,2.54.66,4.5,1.96,5.89M806.93,611.93v-9.74l1.55-2.9,4.84,12.63h5.11l-6.92-17.59,6.92-14.14h-4.98l-6.53,13.83v-13.83h-4.98v31.72h4.98ZM781.4,588.01c0-1.14.2-1.97.61-2.49.41-.52,1.05-.79,1.94-.79h2.39v9.76h-1.95c-.98,0-1.73-.25-2.23-.76-.5-.51-.75-1.38-.75-2.6v-3.12ZM780.89,611.93c.12-.37.2-.65.24-.83.05-.18.09-.54.15-1.06.05-.52.08-1.19.08-2v-4.98c0-1.46.26-2.5.78-3.12.51-.62,1.34-.93,2.47-.93h1.73v12.92h4.98v-31.72h-7.52c-2.55,0-4.42.6-5.6,1.79-1.18,1.2-1.77,3.03-1.77,5.51v2.5c0,3.28,1.08,5.42,3.25,6.44-1.19.5-2.04,1.31-2.54,2.43-.5,1.12-.75,2.56-.75,4.32v4.89c0,1.71-.16,3-.47,3.85h4.98ZM765.88,585.89l2.41,15.97h-4.81l2.39-15.97ZM761.98,611.93l.86-5.75h6.1l.87,5.75h4.98l-5.05-31.72h-7.69l-5.05,31.72h4.98ZM737.33,611.97c2.49,0,4.3-.62,5.43-1.86,1.13-1.24,1.73-3.3,1.82-6.19l.55-19.18h4.32v27.19h4.98v-31.72h-14.27l-.55,23.98c-.03.74-.09,1.32-.2,1.75-.1.43-.28.75-.55.98-.26.23-.56.37-.89.43-.33.06-.81.09-1.42.09v4.53h.77ZM723.7,611.93l4.2-14.53,2.02-7.77v22.3h4.98v-31.72h-5.98l-4.07,13.1-1.81,6.99v-20.09h-4.45v31.72h5.11ZM694.77,611.93l4.55-14.14,1.23,2.46v11.67h4.98v-11.62l1.24-2.41,4.53,14.03h4.98l-6.11-18.78,6.11-12.94h-4.85l-5.9,12.83v-12.83h-4.98v12.83l-5.9-12.83h-4.85l6.18,13.01-6.18,18.71h4.98Z"/>
  <path class="st1" d="M399.56,710.21c0-1.32.25-2.26.74-2.81.49-.55,1.19-.82,2.07-.82s1.58.27,2.07.81c.49.54.73,1.48.73,2.82v1.77c0,2.23-.93,3.34-2.8,3.34s-2.82-1.11-2.82-3.34v-1.77ZM399.56,723.45c0-2.39.94-3.59,2.82-3.59s2.8,1.2,2.8,3.59v2.94c-.01,1.33-.26,2.26-.75,2.79-.49.53-1.17.8-2.05.8s-1.58-.27-2.07-.81c-.5-.54-.74-1.46-.74-2.78v-2.94ZM396.59,732.4c1.34,1.39,3.27,2.08,5.78,2.08s4.44-.69,5.77-2.08c1.34-1.39,2-3.35,2-5.89v-2.5c0-3.25-1.03-5.45-3.08-6.62,2.05-1.15,3.08-3.28,3.08-6.37v-1.02c0-2.54-.66-4.5-2-5.89-1.33-1.39-3.26-2.08-5.77-2.08s-4.44.69-5.78,2.08c-1.34,1.39-2.01,3.35-2.01,5.89v1.02c0,3.13,1.03,5.25,3.08,6.37-2.05,1.16-3.08,3.37-3.08,6.62v2.5c0,2.54.67,4.5,2.01,5.89M391.79,729.55h-4.98v4.58h4.98v-4.58ZM373.21,710.21c0-1.32.25-2.26.74-2.81.5-.55,1.19-.82,2.08-.82s1.58.27,2.06.81c.49.54.74,1.48.74,2.82v1.77c0,2.23-.93,3.34-2.8,3.34s-2.82-1.11-2.82-3.34v-1.77ZM373.21,723.45c0-2.39.94-3.59,2.82-3.59s2.8,1.2,2.8,3.59v2.94c-.01,1.33-.27,2.26-.75,2.79-.49.53-1.17.8-2.05.8s-1.58-.27-2.08-.81c-.49-.54-.74-1.46-.74-2.78v-2.94ZM370.25,732.4c1.34,1.39,3.27,2.08,5.78,2.08s4.43-.69,5.77-2.08c1.33-1.39,2-3.35,2-5.89v-2.5c0-3.25-1.03-5.45-3.08-6.62,2.05-1.15,3.08-3.28,3.08-6.37v-1.02c0-2.54-.67-4.5-2-5.89-1.34-1.39-3.26-2.08-5.77-2.08s-4.44.69-5.78,2.08c-1.34,1.39-2.02,3.35-2.02,5.89v1.02c0,3.13,1.03,5.25,3.09,6.37-2.06,1.16-3.09,3.37-3.09,6.62v2.5c0,2.54.67,4.5,2.02,5.89"/>
  <path class="st1" d="M424.59,655.84c0-1.14.2-1.97.61-2.49.41-.52,1.05-.79,1.93-.79h2.39v9.76h-1.95c-.99,0-1.73-.25-2.23-.76-.5-.51-.75-1.38-.75-2.6v-3.12ZM424.08,679.76c.12-.37.2-.65.24-.83.05-.18.09-.54.15-1.06.05-.52.08-1.19.08-2v-4.98c0-1.46.26-2.5.77-3.12.52-.62,1.34-.93,2.48-.93h1.72v12.92h4.98v-31.72h-7.52c-2.55,0-4.42.6-5.6,1.79-1.18,1.2-1.77,3.03-1.77,5.51v2.5c0,3.28,1.08,5.42,3.25,6.44-1.19.5-2.04,1.31-2.54,2.43-.5,1.12-.75,2.56-.75,4.32v4.89c0,1.71-.16,3-.47,3.85h4.98ZM405.56,679.76v-13.58h5.66v13.58h4.98v-31.72h-4.98v13.61h-5.66v-13.61h-4.98v31.72h4.98ZM384.97,679.76l3.87-11.8,3.83,11.8h4.98l-5.55-16.16,5.22-15.56h-4.37l-3.84,11.76-3.78-11.76h-4.98l5.22,15.38-5.57,16.35h4.98ZM368.1,672.45l-.04.28c-.19,1.09-.64,1.81-1.33,2.17-.69.35-1.72.48-3.08.4v4.51c1.34.09,2.51.04,3.51-.14,1-.19,1.85-.48,2.54-.88.69-.4,1.28-.96,1.77-1.68s.89-1.51,1.19-2.36c.3-.85.57-1.89.82-3.11l5.33-23.6h-4.98l-2.28,10.89-1.17,7.34-1.54-7.41-2.69-10.82h-4.98l6.92,24.41ZM348.88,679.76v-9.74l1.55-2.9,4.84,12.63h5.11l-6.92-17.59,6.92-14.14h-4.98l-6.53,13.83v-13.83h-4.98v31.72h4.98Z"/>
  <path class="st1" d="M520.88,362.78c1.34,1.38,3.22,2.07,5.66,2.07s4.27-.69,5.53-2.07c1.26-1.38,1.89-3.35,1.89-5.9v-7.08c0-2.36-.46-4.16-1.38-5.39-.92-1.23-2.29-1.85-4.12-1.85-1.97,0-3.42.76-4.34,2.3l.4-7.57h8.65v-4.53h-13.33l-.96,18.41h4.98v-.95c0-2.08.85-3.12,2.55-3.12s2.58,1.04,2.58,3.12v6.97c0,2.06-.86,3.1-2.58,3.1s-2.55-1.03-2.55-3.1v-2.95h-4.98v2.63c0,2.55.67,4.51,2.01,5.9M515.66,359.92h-4.98v4.58h4.98v-4.58ZM494.53,362.78c1.34,1.38,3.22,2.07,5.65,2.07s4.27-.69,5.54-2.07c1.26-1.38,1.89-3.35,1.89-5.9v-7.08c0-2.36-.46-4.16-1.38-5.39-.92-1.23-2.29-1.85-4.12-1.85-1.97,0-3.42.76-4.34,2.3l.4-7.57h8.65v-4.53h-13.33l-.96,18.41h4.98v-.95c0-2.08.85-3.12,2.55-3.12s2.58,1.04,2.58,3.12v6.97c0,2.06-.86,3.1-2.58,3.1s-2.55-1.03-2.55-3.1v-2.95h-4.98v2.63c0,2.55.67,4.51,2.01,5.9"/>
  <path class="st1" d="M579.92,286.21c0-1.14.2-1.97.61-2.49.41-.52,1.05-.79,1.94-.79h2.39v9.76h-1.95c-.98,0-1.73-.25-2.23-.76-.5-.51-.75-1.38-.75-2.6v-3.12ZM579.41,310.13c.12-.37.2-.65.24-.83.05-.18.09-.54.15-1.06.05-.52.08-1.19.08-2v-4.98c0-1.46.26-2.5.78-3.11.51-.62,1.34-.93,2.47-.93h1.73v12.92h4.98v-31.72h-7.52c-2.55,0-4.42.6-5.6,1.79-1.18,1.2-1.77,3.03-1.77,5.51v2.5c0,3.28,1.08,5.42,3.25,6.44-1.19.5-2.04,1.31-2.54,2.43-.5,1.12-.75,2.56-.75,4.32v4.89c0,1.71-.16,3-.47,3.85h4.98ZM564.39,284.09l2.41,15.97h-4.81l2.39-15.97ZM560.49,310.13l.86-5.75h6.1l.87,5.75h4.98l-5.05-31.72h-7.69l-5.05,31.72h4.98ZM533,310.13l4.55-14.14,1.23,2.46v11.67h4.98v-11.62l1.24-2.41,4.53,14.03h4.98l-6.11-18.78,6.11-12.94h-4.85l-5.9,12.83v-12.83h-4.98v12.83l-5.9-12.83h-4.85l6.19,13.01-6.19,18.71h4.98ZM516.09,285.7c0-2.08.87-3.12,2.6-3.12s2.58,1.04,2.58,3.12v17.13c0,2.09-.86,3.14-2.58,3.14s-2.6-1.05-2.6-3.14v-17.13ZM513.08,308.4c1.31,1.39,3.18,2.08,5.62,2.08s4.3-.69,5.6-2.08c1.3-1.39,1.95-3.35,1.95-5.89v-16.5c0-2.54-.65-4.5-1.95-5.89-1.3-1.39-3.17-2.08-5.6-2.08s-4.31.69-5.62,2.08c-1.31,1.39-1.96,3.35-1.96,5.89v16.5c0,2.54.65,4.5,1.96,5.89M495.92,310.13l3.87-11.8,3.83,11.8h4.98l-5.55-16.16,5.22-15.56h-4.37l-3.84,11.76-3.78-11.76h-4.98l5.22,15.38-5.57,16.35h4.98ZM477.84,310.13l4.2-14.53,2.01-7.77v22.3h4.98v-31.72h-5.98l-4.07,13.1-1.81,6.99v-20.09h-4.44v31.72h5.11ZM460.63,282.94h2.37c.83,0,1.44.23,1.84.68.4.45.6,1.22.6,2.31v4.76c0,1.09-.2,1.86-.6,2.32-.4.46-1.01.69-1.84.69h-2.37v-10.75ZM460.63,310.13v-11.92h2.36c2.46,0,4.31-.67,5.55-2,1.24-1.33,1.87-3.28,1.87-5.83v-4.11c0-2.55-.62-4.5-1.87-5.84-1.24-1.34-3.1-2.01-5.56-2.01h-7.33v31.72h4.98ZM441.29,310.13v-27.19h5.66v27.19h4.98v-31.72h-15.62v31.72h4.98Z"/>
  <path class="st1" d="M361.22,412.62v11.92h-5.02l5.02-11.92ZM361.22,429.07v5.75h4.98v-5.75h2.28v-4.53h-2.28v-21.44h-5.44l-9.05,21.44v4.53h9.51ZM349.36,430.25h-4.98v4.58h4.98v-4.58ZM328.19,433.11c1.34,1.38,3.22,2.07,5.65,2.07s4.27-.69,5.54-2.07c1.26-1.38,1.89-3.35,1.89-5.9v-2.5c0-3.44-1.16-5.66-3.47-6.66,2.31-.96,3.47-3.13,3.47-6.52v-.82c0-2.55-.63-4.52-1.89-5.9-1.26-1.38-3.11-2.07-5.54-2.07s-4.31.69-5.65,2.07c-1.34,1.38-2.01,3.34-2.01,5.9v1.72h4.98v-2.04c0-2.08.85-3.12,2.55-3.12.85,0,1.49.27,1.93.8.43.53.65,1.47.65,2.83v1.77c0,1.21-.25,2.07-.75,2.58-.5.51-1.24.76-2.23.76h-1.95v4.53h1.68c1.15,0,1.98.31,2.49.93.51.62.76,1.65.76,3.1v2.5c0,1.32-.22,2.26-.65,2.79-.43.53-1.07.8-1.93.8-1.71,0-2.55-1.05-2.55-3.14v-2.95h-4.98v2.63c0,2.55.67,4.51,2.01,5.9M306.42,427.51l-.04.29c-.19,1.09-.64,1.81-1.33,2.16-.7.35-1.72.49-3.08.4v4.51c1.34.09,2.51.04,3.52-.15,1-.18,1.85-.48,2.54-.88.69-.4,1.28-.96,1.78-1.68.49-.72.89-1.51,1.19-2.36.3-.85.57-1.88.82-3.1l5.33-23.6h-4.98l-2.28,10.89-1.17,7.34-1.55-7.41-2.69-10.82h-4.98l6.92,24.41ZM286.42,434.83l12.5-31.72h-4.32l-12.5,31.72h4.31ZM267.7,433.11c1.26,1.38,3.11,2.07,5.56,2.07s4.33-.69,5.67-2.07c1.34-1.38,2.01-3.35,2.01-5.9v-4.23h-4.98v4.54c0,2.06-.86,3.1-2.58,3.1s-2.6-1.03-2.6-3.1v-17.13c0-2.08.87-3.12,2.6-3.12s2.58,1.04,2.58,3.12v3.41h4.98v-3.1c0-2.55-.67-4.52-2.01-5.9-1.34-1.38-3.23-2.07-5.67-2.07s-4.29.69-5.56,2.07c-1.26,1.38-1.89,3.34-1.89,5.9v16.5c0,2.55.63,4.51,1.89,5.9"/>
  <path class="st1" d="M865.05,503.09v27.25h-11.48l11.48-27.25ZM865.05,540.71v13.15h11.38v-13.15h5.21v-10.37h-5.21v-49h-12.44l-20.68,49v10.37h21.74ZM837.95,543.39h-11.38v10.47h11.38v-10.47ZM801.39,498.54v55.32h11.38v-72.51h-7.69c-.44,1.18-.82,2.13-1.16,2.86-.34.73-.83,1.54-1.49,2.43-.65.89-1.39,1.58-2.2,2.07-.81.49-1.87.91-3.19,1.27-1.31.35-2.81.53-4.5.53v8.04h8.85ZM763.83,503.09v27.25h-11.48l11.48-27.25ZM763.83,540.71v13.15h11.38v-13.15h5.21v-10.37h-5.21v-49h-12.44l-20.68,49v10.37h21.74Z"/>
  <circle class="st0" cx="811.53" cy="396.69" r="63.47" transform="translate(134.48 994.64) rotate(-67.5)"/>
  <path class="st1" d="M820.35,426.1v-16.85l2.68-5.01,8.38,21.86h8.85l-11.98-30.44,11.98-24.46h-8.61l-11.3,23.93v-23.93h-8.61v54.9h8.61ZM792.67,384.21v41.88h8.61v-54.9h-5.82c-.33.89-.63,1.61-.88,2.16-.25.55-.63,1.16-1.13,1.84-.5.67-1.06,1.2-1.67,1.57-.61.37-1.41.69-2.41.96-.99.27-2.13.4-3.41.4v6.09h6.7Z"/>
  <path class="st1" d="M464.7,978.46c2.51,0,4.3-.52,5.38-1.57,1.07-1.05,1.62-2.83,1.62-5.35v-17.85c0-2.52-.54-4.31-1.62-5.37-1.08-1.05-2.87-1.58-5.38-1.58h-1.53v4.31h1.22c.83,0,1.42.2,1.78.6.36.4.54,1.13.54,2.2v17.5c0,1.07-.18,1.8-.54,2.2-.36.4-.95.59-1.78.59h-1.22v4.32h1.53ZM455.92,951.27l-7.3,27.19h4.98l7.35-27.37v-4.35h-14.93v4.53h9.91ZM442.89,973.88h-4.98v4.58h4.98v-4.58ZM428.4,956.25v11.93h-5.02l5.02-11.93ZM428.4,972.71v5.75h4.98v-5.75h2.28v-4.53h-2.28v-21.44h-5.44l-9.05,21.44v4.53h9.51ZM410.52,976.89c1.08,1.05,2.87,1.57,5.38,1.57h1.53v-4.32h-1.23c-.83,0-1.42-.2-1.78-.59-.35-.4-.53-1.13-.53-2.2v-17.5c0-1.07.18-1.8.53-2.2.36-.4.95-.6,1.78-.6h1.23v-4.31h-1.53c-2.51,0-4.3.53-5.38,1.58-1.07,1.06-1.61,2.85-1.61,5.37v17.85c0,2.52.54,4.31,1.61,5.35M392.07,956.25v11.93h-5.02l5.02-11.93ZM392.07,972.71v5.75h4.98v-5.75h2.28v-4.53h-2.28v-21.44h-5.44l-9.05,21.44v4.53h9.51ZM380.22,973.88h-4.98v4.58h4.98v-4.58ZM361.77,954.04c0-2.05.86-3.08,2.57-3.08s2.6,1.03,2.6,3.08v5.71c0,2.08-.87,3.12-2.6,3.12s-2.57-1.04-2.57-3.12v-5.71ZM358.18,965.54c.92,1.24,2.3,1.86,4.12,1.86,2.21,0,3.76-.93,4.64-2.81v5.8c0,1.45-.23,2.46-.69,3.04-.46.58-1.15.87-2.09.87-1.73,0-2.6-1.05-2.6-3.14v-1.13h-4.69v.82c0,2.55.63,4.51,1.9,5.9,1.27,1.38,3.11,2.07,5.52,2.07,5.08,0,7.62-2.74,7.62-8.23v-16.23c0-2.54-.65-4.5-1.96-5.89-1.31-1.39-3.18-2.08-5.62-2.08s-4.31.69-5.61,2.08c-1.3,1.39-1.95,3.35-1.95,5.89v5.82c0,2.35.47,4.14,1.39,5.38"/>
  <path class="st0" d="M394.98,465.9l42.68-74.22s-6.06-3.87-19.08-7.19c-13.01-3.32-22.05-3.32-22.05-3.32"/>
  <path class="st0" d="M540,504.53l-84.7,48.95s-4.42-6.96-8.21-21.88c-3.78-14.92-3.78-25.3-3.78-25.3"/>
  <rect class="st1" x="535.09" y="499.94" width="56.42" height="9.67"/>
  <rect class="st0" x="535.09" y="499.94" width="56.42" height="9.67"/>
  <rect class="st1" x="398.84" y="499.94" width="45.2" height="9.67"/>
  <rect class="st0" x="398.84" y="499.94" width="45.2" height="9.67"/>
  <rect class="st1" x="392.83" y="456.34" width="9.67" height="80.94"/>
  <rect class="st0" x="392.83" y="456.34" width="9.67" height="80.94"/>
  <rect class="st1" x="392.83" y="281.79" width="9.67" height="100.39"/>
  <rect class="st0" x="392.83" y="281.79" width="9.67" height="100.39"/>
  <rect class="st1" x="177.42" y="281.79" width="221.06" height="9.67"/>
  <rect class="st0" x="177.42" y="281.79" width="221.06" height="9.67"/>
  <rect class="st1" x="184.43" y="528" width="218.06" height="9.67"/>
  <rect class="st0" x="184.43" y="528" width="218.06" height="9.67"/>
  <rect class="st1" x="164.06" y="179.01" width="22.69" height="882.96"/>
  <rect class="st0" x="164.06" y="179.01" width="22.69" height="882.96"/>
  <path class="st1" d="M276.54,476.7c0-12.05-9.81-21.85-21.87-21.85h-31.66c-2.08,0-3.77,1.69-3.77,3.77v36.17c0,2.08,1.7,3.77,3.77,3.77h31.66c12.05,0,21.87-9.81,21.87-21.87M217.74,494.79v-36.17c0-2.91,2.37-5.27,5.27-5.27h31.66c12.88,0,23.36,10.48,23.36,23.36s-10.48,23.36-23.36,23.36h-31.66c-2.91,0-5.27-2.37-5.27-5.27"/>
  <path class="st0" d="M276.54,476.7c0-12.05-9.81-21.85-21.87-21.85h-31.66c-2.08,0-3.77,1.69-3.77,3.77v36.17c0,2.08,1.7,3.77,3.77,3.77h31.66c12.05,0,21.87-9.81,21.87-21.87ZM217.74,494.79v-36.17c0-2.91,2.37-5.27,5.27-5.27h31.66c12.88,0,23.36,10.48,23.36,23.36s-10.48,23.36-23.36,23.36h-31.66c-2.91,0-5.27-2.37-5.27-5.27Z"/>
  <path class="st0" d="M229.81,461.03v31.34c0,.21.18.39.38.39h23.86c8.82,0,16.05-7.23,16.05-16.06s-7.23-16.05-16.05-16.05h-23.86c-.2,0-.38.17-.38.37Z"/>
  <path class="st1" d="M230.56,461.4v30.6h23.49c8.44,0,15.3-6.87,15.3-15.3s-6.87-15.3-15.3-15.3h-23.49ZM229.06,492.37v-31.34c0-.61.51-1.12,1.13-1.12h23.86c9.26,0,16.8,7.54,16.8,16.8s-7.54,16.8-16.8,16.8h-23.86c-.61,0-1.13-.52-1.13-1.14"/>
  <path class="st0" d="M230.56,461.4v30.6h23.49c8.44,0,15.3-6.87,15.3-15.3s-6.87-15.3-15.3-15.3h-23.49ZM229.06,492.37v-31.34c0-.61.51-1.12,1.13-1.12h23.86c9.26,0,16.8,7.54,16.8,16.8s-7.54,16.8-16.8,16.8h-23.86c-.61,0-1.13-.52-1.13-1.14Z"/>
  <path class="st1" d="M254.08,476.7c0-2.28-1.85-4.13-4.13-4.13s-4.13,1.86-4.13,4.13,1.86,4.13,4.13,4.13,4.13-1.85,4.13-4.13M244.32,476.7c0-3.11,2.53-5.63,5.63-5.63s5.63,2.53,5.63,5.63-2.53,5.64-5.63,5.64-5.63-2.53-5.63-5.64"/>
  <path class="st0" d="M254.08,476.7c0-2.28-1.85-4.13-4.13-4.13s-4.13,1.86-4.13,4.13,1.86,4.13,4.13,4.13,4.13-1.85,4.13-4.13ZM244.32,476.7c0-3.11,2.53-5.63,5.63-5.63s5.63,2.53,5.63,5.63-2.53,5.64-5.63,5.64-5.63-2.53-5.63-5.64Z"/>
  <rect class="st1" x="237.55" y="461.38" width="1.5" height="12.53" transform="translate(-279.07 379.34) rotate(-53.31)"/>
  <rect class="st0" x="237.55" y="461.38" width="1.5" height="12.53" transform="translate(-279.07 379.34) rotate(-53.31)"/>
  <polygon class="st1" points="232.84 488.67 242.87 481.16 243.77 482.36 233.74 489.87 232.84 488.67"/>
  <polygon class="st0" points="232.84 488.67 242.87 481.16 243.77 482.36 233.74 489.87 232.84 488.67"/>
  <path class="st1" d="M217.67,461.61c0-3.34-2.71-6.06-6.06-6.06h-8.24c-3.34,0-6.06,2.72-6.06,6.06v30.18c0,3.34,2.72,6.06,6.06,6.06h8.24c3.34,0,6.06-2.72,6.06-6.06v-30.18ZM195.81,491.79v-30.18c0-4.17,3.39-7.55,7.56-7.55h8.24c4.17,0,7.56,3.39,7.56,7.55v30.18c0,4.17-3.39,7.56-7.56,7.56h-8.24c-4.17,0-7.56-3.39-7.56-7.56"/>
  <path class="st0" d="M217.67,461.61c0-3.34-2.71-6.06-6.06-6.06h-8.24c-3.34,0-6.06,2.72-6.06,6.06v30.18c0,3.34,2.72,6.06,6.06,6.06h8.24c3.34,0,6.06-2.72,6.06-6.06v-30.18ZM195.81,491.79v-30.18c0-4.17,3.39-7.55,7.56-7.55h8.24c4.17,0,7.56,3.39,7.56,7.55v30.18c0,4.17-3.39,7.56-7.56,7.56h-8.24c-4.17,0-7.56-3.39-7.56-7.56Z"/>
  <path class="st1" d="M209.83,476.7c0-1.29-1.05-2.34-2.35-2.34s-2.34,1.05-2.34,2.34,1.05,2.34,2.34,2.34,2.35-1.05,2.35-2.34M203.65,476.7c0-2.12,1.72-3.84,3.84-3.84s3.85,1.72,3.85,3.84-1.72,3.85-3.85,3.85-3.84-1.72-3.84-3.85"/>
  <path class="st0" d="M209.83,476.7c0-1.29-1.05-2.34-2.35-2.34s-2.34,1.05-2.34,2.34,1.05,2.34,2.34,2.34,2.35-1.05,2.35-2.34ZM203.65,476.7c0-2.12,1.72-3.84,3.84-3.84s3.85,1.72,3.85,3.84-1.72,3.85-3.85,3.85-3.84-1.72-3.84-3.85Z"/>
  <path class="st1" d="M235.49,413.66c0,11.44-9.32,20.75-20.77,20.75h-22.04c-1.74,0-3.15-1.42-3.15-3.16v-46.91c0-1.74,1.41-3.15,3.15-3.15h22.04c11.45,0,20.77,9.31,20.77,20.76v11.71ZM188.35,384.35v46.91c0,2.38,1.94,4.33,4.32,4.33h22.04c12.1,0,21.94-9.84,21.94-21.92v-11.71c0-12.09-9.84-21.93-21.94-21.93h-22.04c-2.38,0-4.32,1.94-4.32,4.32"/>
  <path class="st0" d="M235.49,413.66c0,11.44-9.32,20.75-20.77,20.75h-22.04c-1.74,0-3.15-1.42-3.15-3.16v-46.91c0-1.74,1.41-3.15,3.15-3.15h22.04c11.45,0,20.77,9.31,20.77,20.76v11.71ZM188.35,384.35v46.91c0,2.38,1.94,4.33,4.32,4.33h22.04c12.1,0,21.94-9.84,21.94-21.92v-11.71c0-12.09-9.84-21.93-21.94-21.93h-22.04c-2.38,0-4.32,1.94-4.32,4.32Z"/>
  <path class="st1" d="M230.29,413.66c0,8.57-6.99,15.55-15.58,15.55h-12.86c-1.5,0-2.72-1.22-2.72-2.71v-37.4c0-1.5,1.22-2.71,2.72-2.71h12.86c8.59,0,15.58,6.98,15.58,15.56v11.72ZM197.95,389.11v37.4c0,2.14,1.74,3.88,3.89,3.88h12.86c9.24,0,16.75-7.5,16.75-16.72v-11.72c0-9.22-7.52-16.72-16.75-16.72h-12.86c-2.15,0-3.89,1.74-3.89,3.88"/>
  <path class="st0" d="M230.29,413.66c0,8.57-6.99,15.55-15.58,15.55h-12.86c-1.5,0-2.72-1.22-2.72-2.71v-37.4c0-1.5,1.22-2.71,2.72-2.71h12.86c8.59,0,15.58,6.98,15.58,15.56v11.72ZM197.95,389.11v37.4c0,2.14,1.74,3.88,3.89,3.88h12.86c9.24,0,16.75-7.5,16.75-16.72v-11.72c0-9.22-7.52-16.72-16.75-16.72h-12.86c-2.15,0-3.89,1.74-3.89,3.88Z"/>
  <path class="st1" d="M219.39,407.8c0,1.44-1.17,2.61-2.61,2.61s-2.61-1.17-2.61-2.61,1.17-2.61,2.61-2.61,2.61,1.17,2.61,2.61M212.99,407.8c0,2.09,1.7,3.79,3.79,3.79s3.79-1.7,3.79-3.79-1.7-3.79-3.79-3.79-3.79,1.7-3.79,3.79"/>
  <path class="st0" d="M219.39,407.8c0,1.44-1.17,2.61-2.61,2.61s-2.61-1.17-2.61-2.61,1.17-2.61,2.61-2.61,2.61,1.17,2.61,2.61ZM212.99,407.8c0,2.09,1.7,3.79,3.79,3.79s3.79-1.7,3.79-3.79-1.7-3.79-3.79-3.79-3.79,1.7-3.79,3.79Z"/>
  <path class="st0" d="M224.57,330.78c0-1.61,1.34-2.91,3-2.91s2.99,1.3,2.99,2.91-1.34,2.91-2.99,2.91-3-1.3-3-2.91Z"/>
  <path class="st0" d="M216.18,298.25h146.81c10.98,0,19.89,8.91,19.89,19.89v29.8c0,10.98-8.91,19.89-19.89,19.89h-146.81c-10.98,0-19.89-8.91-19.89-19.89v-29.8c0-10.98,8.91-19.89,19.89-19.89Z"/>
  <path class="st0" d="M369.93,341.44c0,10.98-8.91,19.89-19.89,19.89h-120.91c-10.98,0-19.89-8.91-19.89-19.89v-16.8c0-10.98,8.9-19.89,19.89-19.89h120.91c10.98,0,19.89,8.91,19.89,19.89v16.8Z"/>
  <path class="st0" d="M226.34,310.99h118.02c5.49,0,9.94,4.46,9.94,9.94v24.21c0,5.49-4.46,9.94-9.94,9.94h-118.02c-5.49,0-9.94-4.46-9.94-9.94v-24.21c0-5.49,4.46-9.94,9.94-9.94Z"/>
  <polygon class="st0" points="188.98 292.45 188.98 292.45 390.19 292.45 390.19 373.64 188.98 373.64 188.98 292.45"/>
  <path class="st1" d="M189.97,540.89h69.41v70h-69.41v-70ZM188.43,612.44h72.47v-73.1h-72.47v73.1Z"/>
  <path class="st0" d="M189.97,540.89h69.41v70h-69.41v-70ZM188.43,612.44h72.47v-73.1h-72.47v73.1Z"/>
  <path class="st1" d="M253.05,600.41c0,1.73-1.39,3.13-3.11,3.13h-36.5c-1.72,0-3.12-1.4-3.12-3.13v-49.04c0-1.73,1.4-3.13,3.12-3.13h36.5c1.71,0,3.11,1.4,3.11,3.13v49.04ZM208.79,551.37v49.04c0,2.58,2.09,4.68,4.65,4.68h36.5c2.56,0,4.64-2.1,4.64-4.68v-49.04c0-2.58-2.08-4.68-4.64-4.68h-36.5c-2.56,0-4.65,2.1-4.65,4.68"/>
  <path class="st0" d="M253.05,600.41c0,1.73-1.39,3.13-3.11,3.13h-36.5c-1.72,0-3.12-1.4-3.12-3.13v-49.04c0-1.73,1.4-3.13,3.12-3.13h36.5c1.71,0,3.11,1.4,3.11,3.13v49.04ZM208.79,551.37v49.04c0,2.58,2.09,4.68,4.65,4.68h36.5c2.56,0,4.64-2.1,4.64-4.68v-49.04c0-2.58-2.08-4.68-4.64-4.68h-36.5c-2.56,0-4.65,2.1-4.65,4.68Z"/>
  <path class="st1" d="M215.73,553.66h31.94v44.44h-31.94v-44.44ZM214.19,599.65h35.01v-47.54h-35.01v47.54Z"/>
  <path class="st0" d="M215.73,553.66h31.94v44.44h-31.94v-44.44ZM214.19,599.65h35.01v-47.54h-35.01v47.54Z"/>
  <path class="st1" d="M237.89,575.89c0,2.25-1.82,4.08-4.05,4.08s-4.04-1.83-4.04-4.08,1.81-4.08,4.04-4.08,4.05,1.83,4.05,4.08M228.26,575.89c0,3.11,2.51,5.64,5.59,5.64s5.59-2.53,5.59-5.64-2.51-5.64-5.59-5.64-5.59,2.53-5.59,5.64"/>
  <path class="st0" d="M237.89,575.89c0,2.25-1.82,4.08-4.05,4.08s-4.04-1.83-4.04-4.08,1.81-4.08,4.04-4.08,4.05,1.83,4.05,4.08ZM228.26,575.89c0,3.11,2.51,5.64,5.59,5.64s5.59-2.53,5.59-5.64-2.51-5.64-5.59-5.64-5.59,2.53-5.59,5.64Z"/>
  <rect class="st0" x="180.09" y="1048.65" width="416.09" height="13.33"/>
  <rect class="st1" x="584.18" y="949.16" width="25.7" height="112.82"/>
  <rect class="st0" x="584.18" y="949.16" width="25.7" height="112.82"/>
</svg>