<?xml version="1.0" encoding="UTF-8"?>
<svg id="_Слой_1" data-name="Слой_1" xmlns="http://www.w3.org/2000/svg" version="1.1" viewBox="0 0 1280 1024">
  <!-- Generator: Adobe Illustrator 29.4.0, SVG Export Plug-In . SVG Version: 2.1.0 Build 152)  -->
  <defs>
    <style>
      .st0 {
        fill: #fff5a6;
      }

      .st1 {
        fill: none;
        stroke: #3c3c3b;
      }

      .st2 {
        fill: #3c3c3b;
      }
    </style>
  </defs>
  <rect class="st2" x="416.03" y="56.22" width="26.17" height="116.29"/>
  <rect class="st1" x="416.03" y="56.22" width="26.17" height="99.63"/>
  <rect class="st2" x="405.24" y="452.02" width="10.98" height="57.99"/>
  <rect class="st1" x="405.24" y="452.02" width="10.98" height="57.99"/>
  <rect class="st0" x="415.05" y="182.98" width="441.05" height="408.17"/>
  <rect class="st0" x="636.04" y="271.79" width="220.06" height="676.05"/>
  <rect class="st2" x="855.83" y="85.95" width="14.2" height="888.85"/>
  <rect class="st1" x="855.83" y="85.95" width="14.2" height="888.85"/>
  <rect class="st1" x="438.05" y="55.8" width="198.11" height="6.45"/>
  <polygon class="st1" points="641.67 55.81 641.67 62.25 862.31 94.61 862.31 88.16 641.67 55.81"/>
  <rect class="st1" x="731.37" y="156.72" width="93.35" height="6.45"/>
  <rect class="st2" x="806.79" y="156.72" width="60.21" height="6.45"/>
  <rect class="st1" x="806.79" y="156.72" width="60.21" height="6.45"/>
  <rect class="st2" x="812.38" y="161.99" width="54.63" height="21.03"/>
  <rect class="st1" x="812.38" y="161.99" width="54.63" height="21.03"/>
  <rect class="st2" x="625.84" y="156.72" width="68.21" height="6.45"/>
  <rect class="st1" x="625.84" y="156.72" width="68.21" height="6.45"/>
  <rect class="st2" x="625.84" y="161.99" width="62.62" height="21.03"/>
  <rect class="st1" x="625.84" y="161.99" width="62.62" height="21.03"/>
  <rect class="st1" x="736.95" y="163.17" width="87.77" height="19.85"/>
  <path class="st1" d="M736.5,163.72s-2.19,9.29-4.55,15.65c-2.36,6.36-5.21,9.85-5.21,9.85l-41.53-23.94,1.25-1.99,41.76,23.5"/>
  <rect class="st1" x="505.13" y="156.72" width="93.35" height="6.45"/>
  <rect class="st2" x="580.55" y="156.72" width="60.21" height="6.45"/>
  <rect class="st1" x="580.55" y="156.72" width="60.21" height="6.45"/>
  <rect class="st2" x="586.13" y="161.99" width="54.63" height="21.03"/>
  <rect class="st1" x="586.13" y="161.99" width="54.63" height="21.03"/>
  <rect class="st2" x="399.59" y="156.72" width="68.21" height="6.45"/>
  <rect class="st1" x="399.59" y="156.72" width="68.21" height="6.45"/>
  <rect class="st2" x="399.59" y="161.99" width="62.62" height="21.03"/>
  <rect class="st1" x="399.59" y="161.99" width="62.62" height="21.03"/>
  <rect class="st1" x="510.71" y="163.17" width="87.77" height="19.85"/>
  <path class="st1" d="M510.26,163.72s-2.19,9.29-4.55,15.65c-2.36,6.36-5.21,9.85-5.21,9.85l-41.53-23.94,1.25-1.99,41.76,23.5"/>
  <rect class="st2" x="802.13" y="968.36" width="68.21" height="6.45"/>
  <rect class="st1" x="802.13" y="968.36" width="68.21" height="6.45"/>
  <rect class="st1" x="657.81" y="968.36" width="162.26" height="6.45"/>
  <rect class="st2" x="807.72" y="948.5" width="62.62" height="21.03"/>
  <rect class="st1" x="807.72" y="948.5" width="62.62" height="21.03"/>
  <rect class="st2" x="633.03" y="968.36" width="56.36" height="6.45"/>
  <rect class="st1" x="633.03" y="968.36" width="56.36" height="6.45"/>
  <rect class="st2" x="633.03" y="948.5" width="51.74" height="21.03"/>
  <rect class="st1" x="633.03" y="948.5" width="51.74" height="21.03"/>
  <rect class="st1" x="667.46" y="948.5" width="152.6" height="19.85"/>
  <path class="st1" d="M403.5,510.15s8.1,0,18.19,3.57c8.44,2.99,16.33,8.94,16.33,8.94l-28.33,49.73-1.99-1.25,28.34-49.85"/>
  <path class="st1" d="M698.77,414.99s0-8.1-3.57-18.19c-2.99-8.44-8.94-16.33-8.94-16.33l-49.73,28.33,1.25,1.99,49.85-28.34"/>
  <path class="st1" d="M577.37,452.03s0-8.1,3.57-18.19c2.99-8.44,8.94-16.33,8.94-16.33l49.73,28.33-1.25,1.99-49.85-28.34"/>
  <path class="st1" d="M699.08,589.66s0,8.1-3.57,18.19c-2.99,8.44-8.94,16.33-8.94,16.33l-49.73-28.33,1.25-1.99,49.85,28.34"/>
  <rect class="st2" x="631.7" y="168.82" width="10.24" height="306.03"/>
  <rect class="st1" x="631.7" y="168.82" width="10.24" height="306.03"/>
  <rect class="st2" x="631.7" y="547.4" width="10.24" height="427.41"/>
  <rect class="st1" x="631.7" y="547.4" width="10.24" height="427.41"/>
  <rect class="st2" x="631.7" y="50.57" width="10.24" height="61.31"/>
  <rect class="st1" x="631.7" y="50.57" width="10.24" height="61.31"/>
  <rect class="st2" x="402.05" y="444.13" width="176.27" height="10.24"/>
  <rect class="st1" x="402.05" y="444.13" width="176.27" height="10.24"/>
  <rect class="st2" x="404.15" y="444.13" width="10.24" height="65.73"/>
  <rect class="st1" x="404.15" y="444.13" width="10.24" height="65.73"/>
  <rect class="st2" x="400.09" y="570.65" width="14.3" height="28.46"/>
  <rect class="st1" x="400.09" y="570.65" width="14.3" height="28.46"/>
  <rect class="st2" x="699.4" y="404.09" width="170.64" height="10.24"/>
  <rect class="st1" x="699.4" y="404.09" width="170.64" height="10.24"/>
  <rect class="st2" x="699.4" y="588.87" width="170.64" height="10.24"/>
  <rect class="st1" x="699.4" y="588.87" width="170.64" height="10.24"/>
  <rect class="st2" x="404.15" y="588.87" width="230.92" height="10.24"/>
  <rect class="st1" x="404.15" y="588.87" width="230.92" height="10.24"/>
  <rect class="st2" x="399.59" y="55.81" width="17.53" height="454.05"/>
  <g>
    <path class="st2" d="M642,534.99c.69.71,1.67,1.07,2.93,1.07s2.22-.36,2.87-1.07c.65-.71.98-1.73.98-3.06v-1.29c0-1.78-.6-2.93-1.8-3.45,1.2-.5,1.8-1.62,1.8-3.38v-.43c0-1.32-.33-2.34-.98-3.06-.65-.71-1.61-1.07-2.87-1.07s-2.23.36-2.93,1.07c-.69.72-1.04,1.73-1.04,3.06v.9h2.58v-1.06c0-1.08.44-1.62,1.33-1.62.44,0,.77.14,1,.41.23.28.34.76.34,1.47v.92c0,.63-.13,1.07-.39,1.34-.26.26-.65.39-1.16.39h-1.01v2.35h.87c.6,0,1.03.16,1.29.48s.4.86.4,1.6v1.3c0,.69-.11,1.17-.34,1.44-.22.28-.56.41-1,.41-.88,0-1.33-.54-1.33-1.63v-1.53h-2.58v1.36c0,1.32.35,2.34,1.04,3.06M639.32,533.5h-2.58v2.37h2.58v-2.37ZM628.34,534.99c.69.71,1.67,1.07,2.93,1.07s2.21-.36,2.87-1.07c.65-.71.98-1.73.98-3.06v-1.29c0-1.78-.6-2.93-1.8-3.45,1.2-.5,1.8-1.62,1.8-3.38v-.43c0-1.32-.33-2.34-.98-3.06-.65-.71-1.61-1.07-2.87-1.07s-2.24.36-2.93,1.07c-.69.72-1.04,1.73-1.04,3.06v.9h2.58v-1.06c0-1.08.44-1.62,1.32-1.62.44,0,.77.14,1,.41.23.28.34.76.34,1.47v.92c0,.63-.13,1.07-.39,1.34-.26.26-.65.39-1.16.39h-1.01v2.35h.87c.6,0,1.03.16,1.29.48s.39.86.39,1.6v1.3c0,.69-.11,1.17-.34,1.44-.22.28-.56.41-1,.41-.88,0-1.32-.54-1.32-1.63v-1.53h-2.58v1.36c0,1.32.35,2.34,1.04,3.06"/>
    <path class="st2" d="M666.39,493.6h1.23c.43,0,.75.12.95.35.21.23.31.63.31,1.2v2.47c0,.57-.1.97-.31,1.2-.21.24-.52.36-.95.36h-1.23v-5.57ZM666.39,507.7v-6.18h1.22c1.27,0,2.23-.35,2.88-1.04.64-.69.97-1.7.97-3.02v-2.13c0-1.32-.32-2.33-.97-3.03-.64-.69-1.6-1.04-2.88-1.04h-3.8v16.44h2.58ZM656.87,495.04c0-1.08.45-1.62,1.35-1.62s1.34.54,1.34,1.62v8.87c0,1.09-.45,1.63-1.34,1.63s-1.35-.54-1.35-1.63v-8.87ZM655.31,506.8c.68.72,1.65,1.08,2.91,1.08s2.23-.36,2.9-1.08c.68-.72,1.01-1.73,1.01-3.05v-8.55c0-1.31-.34-2.33-1.01-3.05-.67-.72-1.64-1.08-2.9-1.08s-2.24.36-2.91,1.08c-.68.72-1.02,1.73-1.02,3.05v8.55c0,1.31.34,2.33,1.02,3.05M646.49,504.56c.12-.32.19-.77.22-1.38l.47-9.58h2.18v11.75h-3.38c.23-.21.4-.48.51-.79M645.02,509.87v-2.18h5.47v2.18h2.58v-4.52h-1.13v-14.1h-7.34l-.47,11.98c-.02.5-.08.92-.18,1.24-.1.32-.25.62-.47.89h-1.05v4.52h2.58ZM635.68,507.7l2.18-7.53,1.05-4.03v11.56h2.58v-16.44h-3.1l-2.11,6.79-.94,3.62v-10.41h-2.31v16.44h2.65ZM626.76,493.6h1.23c.43,0,.75.12.95.35.21.23.31.63.31,1.2v2.47c0,.57-.1.97-.31,1.2-.21.24-.53.36-.95.36h-1.23v-5.57ZM626.76,507.7v-6.18h1.22c1.28,0,2.23-.35,2.88-1.04.65-.69.97-1.7.97-3.02v-2.13c0-1.32-.32-2.33-.97-3.03-.64-.69-1.6-1.04-2.88-1.04h-3.8v16.44h2.58ZM617.24,495.04c0-1.08.45-1.62,1.35-1.62s1.34.54,1.34,1.62v8.87c0,1.09-.45,1.63-1.34,1.63s-1.35-.54-1.35-1.63v-8.87ZM615.68,506.8c.68.72,1.65,1.08,2.91,1.08s2.23-.36,2.91-1.08c.67-.72,1.01-1.73,1.01-3.05v-8.55c0-1.31-.34-2.33-1.01-3.05-.67-.72-1.64-1.08-2.91-1.08s-2.23.36-2.91,1.08c-.68.72-1.02,1.73-1.02,3.05v8.55c0,1.31.34,2.33,1.02,3.05M607.75,507.7v-5.05l.8-1.5,2.51,6.55h2.65l-3.59-9.12,3.59-7.33h-2.58l-3.38,7.17v-7.17h-2.58v16.44h2.58Z"/>
    <path class="st1" d="M724.76,455.13s-3.01.28-11.41-2.69c-7.03-2.49-13.6-7.45-13.6-7.45l20.08-34.56,1.66,1.04-20.09,34.66"/>
    <path class="st1" d="M724.76,512.02s-3.01-.28-11.41,2.69c-7.03,2.49-13.6,7.45-13.6,7.45l20.08,34.56,1.66-1.04-20.09-34.66"/>
  </g>
  <rect class="st2" x="717.4" y="549.58" width="6.76" height="39.31"/>
  <rect class="st1" x="717.4" y="549.58" width="6.76" height="39.31"/>
  <rect class="st2" x="721.43" y="469.71" width="142.39" height="6.76"/>
  <rect class="st1" x="721.43" y="469.71" width="142.39" height="6.76"/>
  <rect class="st2" x="717.4" y="455.43" width="6.76" height="57.97"/>
  <rect class="st1" x="717.4" y="455.43" width="6.76" height="57.97"/>
  <rect class="st1" x="836.56" y="414.72" width="18.77" height="53.57"/>
  <line class="st1" x1="839.5" y1="468.17" x2="839.5" y2="414.41"/>
  <polyline class="st1" points="839.5 465.5 853.05 464.32 853.05 430.43 839.5 428.94 839.5 426.71 853.2 425.23 853.2 417.65 839.5 416.01"/>
  <rect class="st1" x="442.6" y="424.15" width="55.7" height="18.77"/>
  <line class="st1" x1="442.75" y1="427.09" x2="498.6" y2="427.09"/>
  <polyline class="st1" points="445.49 427.09 446.73 440.64 481.97 440.64 483.52 427.09 485.83 427.09 487.38 440.79 495.26 440.79 496.96 427.09"/>
  <g>
    <path class="st2" d="M784.62,441.24c0,6.83,5.56,12.39,12.39,12.39h17.94c1.18,0,2.14-.96,2.14-2.14v-20.5c0-1.18-.96-2.14-2.14-2.14h-17.94c-6.83,0-12.39,5.56-12.39,12.39M817.93,430.99v20.5c0,1.65-1.34,2.99-2.99,2.99h-17.94c-7.3,0-13.24-5.94-13.24-13.24s5.94-13.24,13.24-13.24h17.94c1.65,0,2.99,1.34,2.99,2.99"/>
    <path class="st1" d="M784.62,441.24c0,6.83,5.56,12.39,12.39,12.39h17.94c1.18,0,2.14-.96,2.14-2.14v-20.5c0-1.18-.96-2.14-2.14-2.14h-17.94c-6.83,0-12.39,5.56-12.39,12.39ZM817.93,430.99v20.5c0,1.65-1.34,2.99-2.99,2.99h-17.94c-7.3,0-13.24-5.94-13.24-13.24s5.94-13.24,13.24-13.24h17.94c1.65,0,2.99,1.34,2.99,2.99Z"/>
    <path class="st1" d="M811.1,450.12v-17.76c0-.12-.1-.22-.21-.22h-13.52c-5,0-9.1,4.1-9.1,9.1s4.1,9.09,9.1,9.09h13.52c.11,0,.21-.1.21-.21Z"/>
    <path class="st2" d="M810.67,449.91v-17.34h-13.31c-4.78,0-8.67,3.89-8.67,8.67s3.89,8.67,8.67,8.67h13.31ZM811.52,432.36v17.76c0,.35-.29.64-.64.64h-13.52c-5.25,0-9.52-4.27-9.52-9.52s4.27-9.52,9.52-9.52h13.52c.35,0,.64.3.64.64"/>
    <path class="st1" d="M810.67,449.91v-17.34h-13.31c-4.78,0-8.67,3.89-8.67,8.67s3.89,8.67,8.67,8.67h13.31ZM811.52,432.36v17.76c0,.35-.29.64-.64.64h-13.52c-5.25,0-9.52-4.27-9.52-9.52s4.27-9.52,9.52-9.52h13.52c.35,0,.64.3.64.64Z"/>
    <path class="st2" d="M797.34,441.24c0,1.29,1.05,2.34,2.34,2.34s2.34-1.05,2.34-2.34-1.05-2.34-2.34-2.34-2.34,1.05-2.34,2.34M802.87,441.24c0,1.76-1.43,3.19-3.19,3.19s-3.19-1.43-3.19-3.19,1.43-3.19,3.19-3.19,3.19,1.43,3.19,3.19"/>
    <path class="st1" d="M797.34,441.24c0,1.29,1.05,2.34,2.34,2.34s2.34-1.05,2.34-2.34-1.05-2.34-2.34-2.34-2.34,1.05-2.34,2.34ZM802.87,441.24c0,1.76-1.43,3.19-3.19,3.19s-3.19-1.43-3.19-3.19,1.43-3.19,3.19-3.19,3.19,1.43,3.19,3.19Z"/>
  </g>
  <rect class="st2" x="805.86" y="442.82" width=".85" height="7.1" transform="translate(-33.95 824.98) rotate(-53.23)"/>
  <rect class="st1" x="805.86" y="442.82" width=".85" height="7.1" transform="translate(-33.95 824.98) rotate(-53.23)"/>
  <polygon class="st2" points="809.38 434.45 803.69 438.71 803.18 438.03 808.87 433.77 809.38 434.45"/>
  <polygon class="st1" points="809.38 434.45 803.69 438.71 803.18 438.03 808.87 433.77 809.38 434.45"/>
  <g>
    <path class="st2" d="M817.97,449.79c0,1.89,1.54,3.43,3.43,3.43h4.67c1.89,0,3.43-1.54,3.43-3.43v-17.1c0-1.89-1.54-3.43-3.43-3.43h-4.67c-1.89,0-3.43,1.54-3.43,3.43v17.1ZM830.36,432.69v17.1c0,2.36-1.92,4.28-4.29,4.28h-4.67c-2.36,0-4.28-1.92-4.28-4.28v-17.1c0-2.36,1.92-4.28,4.28-4.28h4.67c2.36,0,4.29,1.92,4.29,4.28"/>
    <path class="st1" d="M817.97,449.79c0,1.89,1.54,3.43,3.43,3.43h4.67c1.89,0,3.43-1.54,3.43-3.43v-17.1c0-1.89-1.54-3.43-3.43-3.43h-4.67c-1.89,0-3.43,1.54-3.43,3.43v17.1ZM830.36,432.69v17.1c0,2.36-1.92,4.28-4.29,4.28h-4.67c-2.36,0-4.28-1.92-4.28-4.28v-17.1c0-2.36,1.92-4.28,4.28-4.28h4.67c2.36,0,4.29,1.92,4.29,4.28Z"/>
    <path class="st2" d="M822.41,441.24c0,.73.6,1.33,1.33,1.33s1.33-.6,1.33-1.33-.59-1.33-1.33-1.33-1.33.6-1.33,1.33M825.92,441.24c0,1.2-.98,2.18-2.18,2.18s-2.18-.98-2.18-2.18.98-2.18,2.18-2.18,2.18.98,2.18,2.18"/>
    <path class="st1" d="M822.41,441.24c0,.73.6,1.33,1.33,1.33s1.33-.6,1.33-1.33-.59-1.33-1.33-1.33-1.33.6-1.33,1.33ZM825.92,441.24c0,1.2-.98,2.18-2.18,2.18s-2.18-.98-2.18-2.18.98-2.18,2.18-2.18,2.18.98,2.18,2.18Z"/>
    <path class="st2" d="M762.32,455.31c0-.99.41-1.49,1.23-1.49s1.22.5,1.22,1.49v2.72c0,.98-.41,1.47-1.22,1.47s-1.23-.49-1.23-1.47v-2.72ZM760.88,460.69c.62.66,1.51.99,2.67.99s2.04-.33,2.67-.99c.62-.66.93-1.59.93-2.8v-2.76c0-1.13-.22-1.98-.66-2.57-.44-.59-1.1-.88-1.96-.88-1.05,0-1.78.45-2.2,1.34v-2.76c0-.69.11-1.17.32-1.44s.55-.41,1-.41c.82,0,1.23.5,1.23,1.49v.54h2.24v-.39c0-1.21-.3-2.15-.91-2.81s-1.48-.99-2.63-.99c-2.42,0-3.62,1.31-3.62,3.93v7.72c0,1.21.31,2.15.93,2.8M758.46,459.33h-2.37v2.18h2.37v-2.18ZM750.84,449.98v11.53h2.37v-15.12h-1.6c-.09.25-.17.44-.24.6-.07.15-.17.32-.31.51-.14.19-.29.33-.46.43-.17.1-.39.19-.66.26-.27.07-.59.11-.94.11v1.67h1.84Z"/>
    <path class="st2" d="M764.57,432.12l-.02.14c-.09.52-.3.86-.63,1.03-.33.17-.82.23-1.46.19v2.15c.64.04,1.2.02,1.67-.07.47-.09.88-.23,1.21-.42.33-.19.61-.46.84-.8.23-.34.42-.72.57-1.12.14-.41.27-.9.39-1.48l2.54-11.25h-2.37l-1.09,5.19-.56,3.5-.74-3.53-1.28-5.15h-2.37l3.3,11.63ZM755.04,435.61l5.95-15.12h-2.05l-5.95,15.12h2.05ZM746.12,434.79c.6.66,1.49.99,2.65.99s2.06-.33,2.7-.99c.64-.66.96-1.59.96-2.81v-2.01h-2.37v2.16c0,.98-.41,1.47-1.23,1.47s-1.24-.49-1.24-1.47v-8.16c0-.99.41-1.49,1.24-1.49s1.23.5,1.23,1.49v1.62h2.37v-1.47c0-1.22-.32-2.15-.96-2.81-.64-.66-1.54-.98-2.7-.98s-2.05.33-2.65.98c-.6.66-.9,1.59-.9,2.81v7.86c0,1.21.3,2.15.9,2.81"/>
    <path class="st2" d="M778.23,561.03l-3.64,13.58h2.49l3.67-13.67v-2.18h-7.46v2.27h4.95ZM771.72,572.33h-2.49v2.29h2.49v-2.29ZM761.14,573.76c.67.69,1.61,1.03,2.82,1.03s2.14-.34,2.77-1.03c.63-.69.95-1.67.95-2.94v-1.25c0-1.72-.58-2.82-1.74-3.32,1.16-.48,1.74-1.57,1.74-3.26v-.41c0-1.28-.32-2.26-.95-2.95-.63-.69-1.55-1.03-2.77-1.03s-2.15.34-2.82,1.03c-.67.69-1,1.67-1,2.95v.86h2.49v-1.02c0-1.04.43-1.56,1.28-1.56.43,0,.75.13.96.4.22.26.32.74.32,1.42v.88c0,.6-.12,1.03-.37,1.29-.25.26-.63.38-1.12.38h-.97v2.26h.84c.58,0,.99.15,1.24.46.25.31.38.83.38,1.55v1.25c0,.66-.11,1.13-.32,1.39-.22.26-.54.39-.96.39-.85,0-1.28-.52-1.28-1.57v-1.47h-2.49v1.32c0,1.27.33,2.25,1,2.94"/>
    <path class="st2" d="M792.58,535.5c0-.57.1-.98.31-1.24s.52-.39.97-.39h1.19v4.87h-.97c-.49,0-.87-.12-1.12-.38-.25-.25-.38-.69-.38-1.3v-1.56ZM792.33,547.45c.06-.18.1-.32.12-.42.02-.09.05-.27.07-.53.02-.26.04-.59.04-1v-2.49c0-.73.13-1.25.39-1.56.26-.31.67-.46,1.24-.46h.86v6.45h2.49v-15.85h-3.76c-1.28,0-2.21.3-2.8.9-.59.6-.88,1.51-.88,2.75v1.25c0,1.64.54,2.71,1.63,3.22-.6.25-1.02.65-1.27,1.22-.25.56-.37,1.28-.37,2.15v2.44c0,.86-.08,1.5-.23,1.92h2.49ZM784.83,534.44l1.2,7.98h-2.4l1.2-7.98ZM782.87,547.45l.43-2.87h3.05l.43,2.87h2.49l-2.52-15.85h-3.84l-2.52,15.85h2.49ZM773.86,547.45v-6.79h2.83v6.79h2.49v-15.85h-2.49v6.8h-2.83v-6.8h-2.49v15.85h2.49ZM764.21,547.45v-6.79h2.83v6.79h2.49v-15.85h-2.49v6.8h-2.83v-6.8h-2.49v15.85h2.49ZM756.29,534.44l1.21,7.98h-2.4l1.19-7.98ZM754.35,547.45l.43-2.87h3.05l.43,2.87h2.49l-2.52-15.85h-3.84l-2.52,15.85h2.49ZM745.81,533.87h1.21c.44,0,.77.13.97.39.2.26.3.68.3,1.24v.88c0,.6-.12,1.03-.38,1.29-.25.26-.63.38-1.12.38h-.98v-4.19ZM745.81,540.32h1.12c.58,0,.98.14,1.23.42.25.28.37.78.37,1.5v1.38c0,.57-.11.97-.32,1.21-.22.24-.54.36-.97.36h-1.43v-4.86ZM747.24,547.45c1.24,0,2.18-.32,2.82-.96.64-.64.96-1.58.96-2.8v-1.29c0-1.78-.62-2.91-1.86-3.39,1.07-.51,1.61-1.57,1.61-3.19v-.57c0-1.24-.3-2.15-.89-2.75-.59-.6-1.53-.9-2.81-.9h-3.75v15.85h3.91Z"/>
    <path class="st2" d="M787.7,502.75c-6.24,0-11.31-5.08-11.31-11.32v-12.01c0-.95.77-1.72,1.72-1.72h25.58c.95,0,1.72.77,1.72,1.72v12.01c0,6.24-5.08,11.32-11.32,11.32h-6.39ZM803.69,477.06h-25.58c-1.3,0-2.36,1.06-2.36,2.36v12.01c0,6.59,5.36,11.96,11.95,11.96h6.39c6.59,0,11.96-5.36,11.96-11.96v-12.01c0-1.3-1.06-2.36-2.36-2.36"/>
    <path class="st1" d="M787.7,502.75c-6.24,0-11.31-5.08-11.31-11.32v-12.01c0-.95.77-1.72,1.72-1.72h25.58c.95,0,1.72.77,1.72,1.72v12.01c0,6.24-5.08,11.32-11.32,11.32h-6.39ZM803.69,477.06h-25.58c-1.3,0-2.36,1.06-2.36,2.36v12.01c0,6.59,5.36,11.96,11.95,11.96h6.39c6.59,0,11.96-5.36,11.96-11.96v-12.01c0-1.3-1.06-2.36-2.36-2.36Z"/>
    <path class="st2" d="M787.7,499.92c-4.67,0-8.48-3.81-8.48-8.49v-7.01c0-.82.66-1.48,1.48-1.48h20.39c.82,0,1.48.67,1.48,1.48v7.01c0,4.68-3.81,8.49-8.48,8.49h-6.39ZM801.09,482.3h-20.39c-1.17,0-2.11.95-2.11,2.12v7.01c0,5.03,4.09,9.13,9.12,9.13h6.39c5.03,0,9.12-4.09,9.12-9.13v-7.01c0-1.17-.95-2.12-2.12-2.12"/>
    <path class="st1" d="M787.7,499.92c-4.67,0-8.48-3.81-8.48-8.49v-7.01c0-.82.66-1.48,1.48-1.48h20.39c.82,0,1.48.67,1.48,1.48v7.01c0,4.68-3.81,8.49-8.48,8.49h-6.39ZM801.09,482.3h-20.39c-1.17,0-2.11.95-2.11,2.12v7.01c0,5.03,4.09,9.13,9.12,9.13h6.39c5.03,0,9.12-4.09,9.12-9.13v-7.01c0-1.17-.95-2.12-2.12-2.12Z"/>
    <path class="st2" d="M790.9,493.98c-.78,0-1.42-.64-1.42-1.42s.64-1.42,1.42-1.42,1.42.64,1.42,1.42-.64,1.42-1.42,1.42M790.9,490.5c-1.14,0-2.06.92-2.06,2.06s.92,2.06,2.06,2.06,2.06-.92,2.06-2.06-.92-2.06-2.06-2.06"/>
    <path class="st1" d="M790.9,493.98c-.78,0-1.42-.64-1.42-1.42s.64-1.42,1.42-1.42,1.42.64,1.42,1.42-.64,1.42-1.42,1.42ZM790.9,490.5c-1.14,0-2.06.92-2.06,2.06s.92,2.06,2.06,2.06,2.06-.92,2.06-2.06-.92-2.06-2.06-2.06Z"/>
  </g>
  <rect class="st1" x="733.36" y="477.4" width="39.33" height="40.27"/>
  <line class="st1" x1="733.9" y1="517.78" x2="772.55" y2="477.56"/>
  <line class="st1" x1="773" y1="517.78" x2="734.35" y2="477.56"/>
  <g>
    <path class="st1" d="M831.93,498.22c.96,0,1.73.79,1.73,1.76s-.78,1.76-1.73,1.76-1.73-.79-1.73-1.76.77-1.76,1.73-1.76Z"/>
    <path class="st1" d="M823.99,481.44h15.88c6.32,0,11.46,5.13,11.46,11.46v79.26c0,6.32-5.13,11.45-11.45,11.45h-15.88c-6.32,0-11.45-5.13-11.45-11.45v-79.26c0-6.32,5.13-11.45,11.45-11.45Z"/>
    <path class="st1" d="M827.62,488.53h8.62c6.32,0,11.46,5.13,11.46,11.46v65.06c0,6.32-5.13,11.45-11.45,11.45h-8.63c-6.32,0-11.45-5.13-11.45-11.45v-65.07c0-6.32,5.13-11.45,11.45-11.45Z"/>
    <path class="st1" d="M825.37,492.45h13.11c3.16,0,5.73,2.57,5.73,5.73v64.04c0,3.16-2.57,5.73-5.73,5.73h-13.11c-3.16,0-5.73-2.57-5.73-5.73v-64.04c0-3.16,2.57-5.73,5.73-5.73Z"/>
  </g>
  <polygon class="st1" points="854.57 477.43 854.57 477.43 854.57 587.61 809.3 587.61 809.3 477.43 854.57 477.43"/>
  <path class="st2" d="M564.46,122.16c1.42,0,2.43-.3,3.05-.89.61-.59.91-1.6.91-3.03v-10.11c0-1.43-.3-2.44-.91-3.04-.61-.6-1.63-.9-3.05-.9h-.87v2.44h.69c.47,0,.81.11,1.01.34.21.23.31.64.31,1.25v9.92c0,.6-.1,1.02-.31,1.25-.2.23-.54.34-1.01.34h-.69v2.44h.87ZM558.82,109.57v6.76h-2.85l2.85-6.76ZM558.82,118.9v3.26h2.82v-3.26h1.29v-2.57h-1.29v-12.15h-3.09l-5.13,12.15v2.57h5.39ZM552.1,119.57h-2.82v2.59h2.82v-2.59ZM543.89,109.57v6.76h-2.85l2.85-6.76ZM543.89,118.9v3.26h2.82v-3.26h1.29v-2.57h-1.29v-12.15h-3.08l-5.13,12.15v2.57h5.39ZM533.76,121.27c.61.6,1.62.89,3.05.89h.86v-2.44h-.69c-.47,0-.81-.11-1.01-.34-.2-.23-.3-.64-.3-1.25v-9.92c0-.6.1-1.02.3-1.25.2-.22.54-.34,1.01-.34h.69v-2.44h-.86c-1.42,0-2.44.3-3.05.9-.61.6-.92,1.61-.92,3.04v10.11c0,1.43.3,2.44.92,3.03M520.99,108.61c0-.75.14-1.28.42-1.59.28-.31.68-.46,1.18-.46s.89.15,1.17.46c.28.3.42.84.42,1.6v1c0,1.26-.53,1.89-1.58,1.89s-1.6-.63-1.6-1.89v-1ZM520.99,116.11c0-1.36.53-2.03,1.6-2.03s1.58.68,1.58,2.03v1.67c0,.75-.15,1.28-.43,1.58-.28.3-.66.45-1.16.45s-.9-.15-1.18-.46c-.28-.3-.42-.83-.42-1.57v-1.67ZM519.31,121.18c.76.79,1.86,1.18,3.28,1.18s2.51-.39,3.27-1.18c.75-.79,1.13-1.9,1.13-3.33v-1.42c0-1.84-.58-3.09-1.75-3.75,1.16-.65,1.75-1.85,1.75-3.61v-.58c0-1.44-.38-2.55-1.13-3.33-.76-.79-1.85-1.18-3.27-1.18s-2.52.39-3.28,1.18c-.76.78-1.14,1.9-1.14,3.33v.58c0,1.77.58,2.98,1.75,3.61-1.17.66-1.75,1.91-1.75,3.75v1.42c0,1.44.38,2.55,1.14,3.33M516.59,119.57h-2.82v2.59h2.82v-2.59ZM506.06,108.61c0-.75.14-1.28.42-1.59.28-.31.67-.46,1.18-.46s.9.15,1.17.46c.28.3.42.84.42,1.6v1c0,1.26-.53,1.89-1.59,1.89s-1.6-.63-1.6-1.89v-1ZM506.06,116.11c0-1.36.53-2.03,1.6-2.03s1.59.68,1.59,2.03v1.67c0,.75-.15,1.28-.43,1.58-.28.3-.66.45-1.16.45s-.9-.15-1.18-.46c-.28-.3-.42-.83-.42-1.57v-1.67ZM504.38,121.18c.76.79,1.85,1.18,3.28,1.18s2.51-.39,3.27-1.18c.76-.79,1.13-1.9,1.13-3.33v-1.42c0-1.84-.58-3.09-1.75-3.75,1.17-.65,1.75-1.85,1.75-3.61v-.58c0-1.44-.38-2.55-1.13-3.33-.76-.79-1.85-1.18-3.27-1.18s-2.51.39-3.28,1.18c-.76.78-1.14,1.9-1.14,3.33v.58c0,1.77.58,2.98,1.75,3.61-1.16.66-1.75,1.91-1.75,3.75v1.42c0,1.44.38,2.55,1.14,3.33"/>
  <path class="st2" d="M759.91,845.05c0-1.18.49-1.77,1.47-1.77s1.46.59,1.46,1.77v9.7c0,1.19-.49,1.78-1.46,1.78s-1.47-.59-1.47-1.78v-9.7ZM758.2,857.91c.74.79,1.8,1.18,3.18,1.18s2.44-.39,3.17-1.18c.74-.79,1.11-1.9,1.11-3.33v-9.35c0-1.44-.37-2.55-1.11-3.33-.74-.79-1.8-1.18-3.17-1.18s-2.44.39-3.18,1.18c-.74.78-1.11,1.9-1.11,3.33v9.35c0,1.44.37,2.55,1.11,3.33M755.38,856.3h-2.82v2.59h2.82v-2.59ZM744.93,845.05c0-1.16.49-1.74,1.46-1.74s1.47.58,1.47,1.74v3.24c0,1.18-.49,1.77-1.47,1.77s-1.46-.59-1.46-1.77v-3.24ZM742.89,851.57c.53.7,1.3,1.05,2.34,1.05,1.25,0,2.13-.53,2.63-1.59v3.29c0,.82-.13,1.39-.39,1.72-.26.33-.66.5-1.18.5-.98,0-1.47-.59-1.47-1.78v-.64h-2.66v.46c0,1.44.36,2.56,1.08,3.34.72.78,1.76,1.17,3.13,1.17,2.88,0,4.32-1.56,4.32-4.66v-9.2c0-1.44-.37-2.55-1.11-3.33-.74-.79-1.8-1.18-3.18-1.18s-2.44.39-3.18,1.18c-.74.78-1.1,1.9-1.1,3.33v3.3c0,1.33.26,2.34.79,3.05M736.15,845.18v13.72h2.82v-17.98h-1.91c-.11.29-.2.53-.29.71-.08.18-.21.38-.37.6-.16.22-.34.39-.54.51s-.46.23-.79.31c-.32.09-.7.13-1.12.13v1.99h2.19Z"/>
  <path class="st2" d="M812.9,813.33l1.36,9.05h-2.72l1.36-9.05ZM810.69,828.08l.49-3.26h3.46l.49,3.26h2.82l-2.86-17.98h-4.36l-2.86,17.98h2.82ZM801.6,812.68v15.41h2.82v-15.41h2.96v-2.57h-8.74v2.57h2.96ZM793.32,813.33l1.37,9.05h-2.72l1.36-9.05ZM791.1,828.08l.49-3.26h3.46l.49,3.26h2.82l-2.86-17.98h-4.36l-2.86,17.98h2.82ZM780.89,828.08v-7.7h3.21v7.7h2.82v-17.98h-2.82v7.71h-3.21v-7.71h-2.82v17.98h2.82ZM766.62,828.08v-12.68l2.11,12.68h2.68l1.95-12.89v12.89h2.82v-17.98h-4.07l-1.94,12.8-2.09-12.8h-3.92v17.98h2.46ZM756.6,814.24c0-1.18.49-1.77,1.47-1.77s1.46.59,1.46,1.77v9.7c0,1.19-.49,1.78-1.46,1.78s-1.47-.59-1.47-1.78v-9.7ZM754.89,827.1c.74.79,1.8,1.18,3.18,1.18s2.44-.39,3.18-1.18c.74-.79,1.1-1.9,1.1-3.33v-9.35c0-1.44-.37-2.55-1.1-3.33-.74-.79-1.8-1.18-3.18-1.18s-2.44.39-3.18,1.18c-.74.78-1.11,1.9-1.11,3.33v9.35c0,1.44.37,2.55,1.11,3.33M746.22,828.08v-5.52l.88-1.64,2.75,7.16h2.89l-3.92-9.97,3.92-8.01h-2.82l-3.7,7.84v-7.84h-2.82v17.98h2.82ZM731.76,814.53c0-.64.11-1.11.34-1.41.23-.3.6-.45,1.1-.45h1.36v5.53h-1.1c-.56,0-.98-.14-1.27-.43-.29-.29-.43-.78-.43-1.47v-1.77ZM731.47,828.08c.07-.21.11-.37.14-.47.03-.1.05-.3.08-.6.03-.3.04-.68.04-1.13v-2.82c0-.83.15-1.42.44-1.77.29-.35.76-.53,1.41-.53h.98v7.32h2.82v-17.98h-4.26c-1.45,0-2.5.34-3.17,1.01-.67.68-1,1.72-1,3.12v1.42c0,1.86.61,3.07,1.84,3.65-.68.29-1.16.75-1.44,1.38-.29.64-.43,1.45-.43,2.45v2.77c0,.97-.09,1.7-.26,2.18h2.82ZM722.96,813.33l1.36,9.05h-2.72l1.36-9.05ZM720.75,828.08l.49-3.26h3.46l.49,3.26h2.82l-2.86-17.98h-4.36l-2.86,17.98h2.82ZM706.78,828.11c1.41,0,2.44-.35,3.08-1.05.64-.7.98-1.87,1.03-3.51l.31-10.87h2.44v15.41h2.82v-17.98h-8.09l-.31,13.59c-.02.42-.05.75-.11.99-.06.24-.16.43-.31.56-.15.13-.32.21-.51.24-.19.03-.46.05-.8.05v2.57h.44ZM699.06,828.08l2.38-8.23,1.14-4.4v12.64h2.82v-17.98h-3.39l-2.31,7.42-1.03,3.96v-11.38h-2.52v17.98h2.9ZM682.66,828.08l2.58-8.01.69,1.4v6.62h2.82v-6.58l.7-1.36,2.57,7.95h2.82l-3.46-10.64,3.46-7.33h-2.75l-3.34,7.27v-7.27h-2.82v7.27l-3.34-7.27h-2.75l3.51,7.37-3.51,10.6h2.82Z"/>
  <path class="st2" d="M763.01,311.67v13.72h2.82v-17.98h-1.91c-.11.29-.2.53-.29.71-.08.18-.21.38-.37.6-.16.22-.34.39-.54.51-.2.12-.46.23-.79.31-.33.09-.7.13-1.12.13v1.99h2.19ZM757.14,322.79h-2.82v2.59h2.82v-2.59ZM752.32,325.38v-2.57h-5.32c-.02-.08-.02-.21-.02-.39,0-.39.1-.8.31-1.21.21-.42.48-.82.8-1.22.33-.39.69-.8,1.09-1.23.4-.43.8-.9,1.19-1.39.4-.5.76-1.02,1.09-1.56.33-.54.6-1.17.81-1.88.21-.71.31-1.44.31-2.21,0-1.45-.36-2.56-1.07-3.34-.72-.78-1.76-1.17-3.12-1.17s-2.41.39-3.14,1.17c-.73.78-1.09,1.89-1.09,3.34v1.75h2.7v-1.93c0-1.18.49-1.77,1.46-1.77.48,0,.84.15,1.08.45.24.3.36.84.36,1.6,0,.7-.1,1.36-.3,1.97-.21.61-.47,1.16-.8,1.62-.33.47-.69.92-1.09,1.37-.4.44-.8.89-1.2,1.34-.4.45-.76.91-1.1,1.38-.33.47-.6,1.02-.81,1.66-.21.63-.31,1.3-.31,2.01v2.21h8.16ZM737.91,311.67v13.72h2.82v-17.98h-1.91c-.11.29-.2.53-.29.71-.08.18-.21.38-.37.6-.16.22-.34.39-.54.51-.2.12-.46.23-.79.31-.32.09-.7.13-1.12.13v1.99h2.19Z"/>
  <path class="st2" d="M810.16,280.86l1.27,8.41h-2.53l1.26-8.41ZM808.1,294.57l.45-3.03h3.22l.46,3.03h2.62l-2.66-16.72h-4.05l-2.66,16.72h2.62ZM799.65,280.25v14.32h2.62v-14.32h2.75v-2.39h-8.13v2.39h2.75ZM791.95,280.86l1.27,8.41h-2.53l1.26-8.41ZM789.89,294.57l.45-3.03h3.22l.46,3.03h2.62l-2.66-16.72h-4.05l-2.66,16.72h2.62ZM780.39,294.57v-7.16h2.99v7.16h2.62v-16.72h-2.62v7.17h-2.99v-7.17h-2.62v16.72h2.62ZM767.13,294.57v-11.79l1.96,11.79h2.49l1.81-11.98v11.98h2.62v-16.72h-3.78l-1.8,11.91-1.94-11.91h-3.64v16.72h2.29ZM757.82,281.71c0-1.1.46-1.64,1.37-1.64s1.36.55,1.36,1.64v9.02c0,1.1-.45,1.66-1.36,1.66s-1.37-.55-1.37-1.66v-9.02ZM756.23,293.66c.69.73,1.67,1.1,2.96,1.1s2.27-.37,2.95-1.1,1.03-1.76,1.03-3.1v-8.7c0-1.34-.34-2.37-1.03-3.1-.68-.73-1.67-1.1-2.95-1.1s-2.27.37-2.96,1.1c-.69.73-1.03,1.76-1.03,3.1v8.7c0,1.34.34,2.37,1.03,3.1M748.17,294.57v-5.13l.82-1.53,2.55,6.66h2.69l-3.65-9.27,3.65-7.45h-2.62l-3.44,7.29v-7.29h-2.62v16.72h2.62ZM734.72,281.97c0-.6.11-1.04.32-1.31.21-.28.55-.41,1.02-.41h1.26v5.14h-1.03c-.52,0-.91-.13-1.18-.4-.26-.27-.39-.72-.39-1.37v-1.64ZM734.45,294.57c.06-.19.1-.34.13-.44.02-.1.05-.28.08-.56.03-.28.04-.63.04-1.06v-2.62c0-.77.14-1.32.41-1.64.27-.33.71-.49,1.31-.49h.91v6.81h2.62v-16.72h-3.96c-1.35,0-2.33.31-2.95.95-.62.63-.93,1.59-.93,2.9v1.32c0,1.73.57,2.86,1.71,3.39-.63.26-1.08.69-1.34,1.28-.26.59-.4,1.35-.4,2.27v2.58c0,.9-.08,1.58-.24,2.03h2.62ZM726.54,280.86l1.27,8.41h-2.53l1.26-8.41ZM724.48,294.57l.45-3.03h3.22l.46,3.03h2.62l-2.66-16.72h-4.05l-2.66,16.72h2.62ZM711.5,294.6c1.31,0,2.27-.33,2.86-.98.59-.65.91-1.74.96-3.26l.29-10.1h2.27v14.32h2.62v-16.72h-7.52l-.29,12.64c-.01.39-.05.69-.1.92-.05.23-.15.4-.29.52-.14.12-.3.2-.47.23s-.43.05-.75.05v2.39h.41ZM704.32,294.57l2.21-7.66,1.06-4.09v11.75h2.62v-16.72h-3.15l-2.14,6.9-.96,3.68v-10.58h-2.34v16.72h2.69ZM689.07,294.57l2.4-7.45.64,1.3v6.15h2.62v-6.12l.66-1.27,2.39,7.39h2.62l-3.22-9.9,3.22-6.82h-2.56l-3.11,6.76v-6.76h-2.62v6.76l-3.11-6.76h-2.56l3.26,6.86-3.26,9.86h2.62Z"/>
  <path class="st2" d="M535.73,311.83c0-.75.14-1.28.42-1.59.28-.31.68-.46,1.18-.46s.89.15,1.17.46c.28.3.42.84.42,1.6v1c0,1.26-.53,1.89-1.58,1.89s-1.6-.63-1.6-1.89v-1ZM535.73,319.33c0-1.36.53-2.03,1.6-2.03s1.58.68,1.58,2.03v1.67c0,.75-.15,1.28-.43,1.58-.28.3-.66.45-1.16.45s-.9-.15-1.18-.46c-.28-.3-.42-.83-.42-1.57v-1.67ZM534.05,324.41c.76.79,1.85,1.18,3.28,1.18s2.51-.39,3.27-1.18c.76-.79,1.14-1.9,1.14-3.33v-1.42c0-1.84-.58-3.09-1.75-3.75,1.16-.65,1.75-1.86,1.75-3.61v-.58c0-1.44-.38-2.55-1.14-3.33-.76-.79-1.85-1.18-3.27-1.18s-2.52.39-3.28,1.18c-.76.78-1.14,1.9-1.14,3.33v.58c0,1.77.58,2.98,1.75,3.61-1.16.66-1.75,1.91-1.75,3.75v1.42c0,1.44.38,2.55,1.14,3.33M531.33,322.79h-2.82v2.59h2.82v-2.59ZM519.33,324.41c.76.78,1.83,1.17,3.2,1.17s2.42-.39,3.14-1.17c.72-.78,1.07-1.89,1.07-3.34v-1.42c0-1.95-.66-3.2-1.97-3.77,1.31-.54,1.97-1.78,1.97-3.7v-.46c0-1.45-.36-2.56-1.07-3.34-.71-.78-1.76-1.17-3.14-1.17s-2.44.39-3.2,1.17c-.76.78-1.14,1.89-1.14,3.34v.98h2.82v-1.15c0-1.18.48-1.77,1.45-1.77.48,0,.85.15,1.09.45.25.3.37.84.37,1.6v1c0,.68-.14,1.17-.43,1.46-.28.29-.7.43-1.27.43h-1.1v2.57h.95c.65,0,1.12.18,1.41.53.29.35.43.94.43,1.75v1.42c0,.75-.12,1.28-.37,1.58-.24.3-.61.45-1.09.45-.97,0-1.45-.59-1.45-1.78v-1.67h-2.82v1.49c0,1.44.38,2.56,1.14,3.34M512.1,311.67v13.72h2.82v-17.98h-1.91c-.11.29-.2.53-.29.71-.08.18-.21.38-.37.6-.16.22-.34.39-.54.51-.2.12-.46.23-.79.31-.32.09-.7.13-1.12.13v1.99h2.19Z"/>
  <path class="st2" d="M543.42,281.97c0-.6.11-1.04.32-1.31.22-.28.55-.41,1.02-.41h1.26v5.14h-1.03c-.52,0-.91-.13-1.18-.4-.27-.27-.4-.72-.4-1.37v-1.64ZM543.15,294.57c.06-.19.1-.34.13-.44.02-.1.05-.28.08-.56.03-.28.04-.63.04-1.06v-2.62c0-.77.14-1.32.41-1.64.27-.33.71-.49,1.3-.49h.91v6.81h2.62v-16.72h-3.96c-1.35,0-2.33.31-2.95.95-.62.63-.93,1.59-.93,2.9v1.32c0,1.73.57,2.86,1.71,3.39-.63.26-1.08.69-1.34,1.28-.26.59-.4,1.35-.4,2.27v2.58c0,.9-.08,1.58-.24,2.03h2.62ZM533.4,294.57v-7.16h2.98v7.16h2.62v-16.72h-2.62v7.17h-2.98v-7.17h-2.62v16.72h2.62ZM522.55,294.57l2.04-6.22,2.02,6.22h2.62l-2.92-8.51,2.75-8.2h-2.3l-2.02,6.2-1.99-6.2h-2.62l2.75,8.1-2.94,8.61h2.62ZM513.66,290.72l-.02.15c-.1.57-.33.95-.7,1.14-.37.18-.91.25-1.62.21v2.38c.71.05,1.32.02,1.85-.08.53-.1.97-.25,1.34-.46s.68-.51.93-.89c.26-.38.47-.79.63-1.24.16-.45.3-.99.43-1.64l2.8-12.44h-2.62l-1.2,5.73-.61,3.87-.81-3.91-1.42-5.7h-2.62l3.65,12.86ZM503.53,294.57v-5.13l.82-1.53,2.55,6.66h2.69l-3.65-9.27,3.65-7.45h-2.62l-3.44,7.29v-7.29h-2.62v16.72h2.62Z"/>
  <path class="st2" d="M525,545.77c.76.78,1.83,1.17,3.2,1.17s2.42-.39,3.14-1.17c.71-.78,1.07-1.89,1.07-3.34v-1.42c0-1.95-.66-3.21-1.97-3.77,1.31-.54,1.97-1.78,1.97-3.7v-.46c0-1.44-.36-2.56-1.07-3.34-.71-.78-1.76-1.17-3.14-1.17s-2.44.39-3.2,1.17c-.76.78-1.14,1.9-1.14,3.34v.98h2.82v-1.15c0-1.18.48-1.77,1.45-1.77.48,0,.85.15,1.09.45.25.3.37.83.37,1.6v1c0,.68-.14,1.17-.43,1.46-.28.29-.71.43-1.27.43h-1.1v2.57h.95c.65,0,1.12.17,1.41.53.29.35.43.94.43,1.76v1.42c0,.75-.12,1.28-.37,1.58-.24.3-.61.45-1.09.45-.97,0-1.45-.59-1.45-1.78v-1.67h-2.82v1.49c0,1.45.38,2.56,1.14,3.34M522.07,544.15h-2.82v2.59h2.82v-2.59ZM514.52,531.33l-4.14,15.41h2.82l4.16-15.51v-2.47h-8.46v2.57h5.62Z"/>
  <path class="st2" d="M558.48,502.38c0-.64.11-1.11.34-1.41.23-.3.6-.45,1.1-.45h1.36v5.53h-1.1c-.56,0-.98-.14-1.27-.43-.29-.29-.43-.78-.43-1.47v-1.77ZM558.19,515.93c.07-.21.11-.37.14-.47.03-.1.05-.3.08-.6.03-.3.04-.68.04-1.13v-2.82c0-.83.15-1.42.44-1.77.29-.35.76-.53,1.4-.53h.98v7.32h2.82v-17.98h-4.26c-1.44,0-2.5.34-3.17,1.01-.67.68-1,1.72-1,3.12v1.42c0,1.86.61,3.07,1.84,3.65-.68.29-1.16.75-1.44,1.38-.29.64-.43,1.45-.43,2.45v2.77c0,.97-.09,1.7-.26,2.18h2.82ZM549.69,501.18l1.36,9.05h-2.72l1.36-9.05ZM547.48,515.93l.49-3.26h3.46l.49,3.26h2.82l-2.86-17.98h-4.36l-2.86,17.98h2.82ZM531.89,515.93l2.58-8.01.69,1.4v6.62h2.82v-6.58l.7-1.36,2.57,7.95h2.82l-3.46-10.64,3.46-7.33h-2.75l-3.34,7.27v-7.27h-2.82v7.27l-3.34-7.27h-2.75l3.51,7.37-3.51,10.6h2.82ZM522.32,502.09c0-1.18.49-1.77,1.47-1.77s1.46.59,1.46,1.77v9.7c0,1.19-.49,1.78-1.46,1.78s-1.47-.59-1.47-1.78v-9.7ZM520.61,514.95c.74.79,1.8,1.18,3.18,1.18s2.44-.39,3.18-1.18c.74-.79,1.11-1.9,1.11-3.33v-9.35c0-1.44-.37-2.55-1.11-3.33-.74-.79-1.8-1.18-3.18-1.18s-2.44.39-3.18,1.18c-.74.78-1.11,1.9-1.11,3.33v9.35c0,1.44.37,2.55,1.11,3.33M510.88,515.93l2.19-6.69,2.17,6.69h2.82l-3.14-9.16,2.95-8.82h-2.48l-2.17,6.66-2.14-6.66h-2.82l2.96,8.71-3.16,9.27h2.82ZM500.64,515.93l2.38-8.23,1.14-4.4v12.64h2.82v-17.98h-3.38l-2.31,7.42-1.03,3.96v-11.38h-2.52v17.98h2.9ZM490.89,500.52h1.34c.47,0,.82.13,1.04.38.23.25.34.69.34,1.31v2.7c0,.62-.11,1.06-.34,1.32-.23.26-.57.39-1.04.39h-1.34v-6.09ZM490.89,515.93v-6.76h1.34c1.39,0,2.44-.38,3.15-1.13.7-.76,1.06-1.86,1.06-3.31v-2.33c0-1.45-.35-2.55-1.06-3.31s-1.75-1.14-3.15-1.14h-4.16v17.98h2.82ZM479.93,515.93v-15.41h3.21v15.41h2.82v-17.98h-8.85v17.98h2.82Z"/>
  <path class="st2" d="M786.9,791.23v-5.88h-12.15c-.04-.19-.06-.49-.06-.89,0-.9.24-1.82.71-2.78.47-.95,1.09-1.88,1.84-2.78.75-.9,1.58-1.84,2.49-2.82.91-.98,1.82-2.04,2.72-3.18.9-1.14,1.73-2.33,2.48-3.57.75-1.24,1.36-2.67,1.84-4.29.48-1.61.71-3.3.71-5.06,0-3.3-.82-5.85-2.45-7.63-1.64-1.79-4.02-2.68-7.14-2.68s-5.52.9-7.17,2.68c-1.66,1.79-2.49,4.33-2.49,7.63v4.01h6.16v-4.41c0-2.7,1.11-4.04,3.34-4.04,1.1,0,1.93.34,2.48,1.03.55.69.83,1.91.83,3.67,0,1.6-.23,3.11-.7,4.51-.47,1.4-1.07,2.64-1.83,3.71-.75,1.07-1.58,2.11-2.49,3.12-.91,1.01-1.82,2.03-2.74,3.05-.91,1.02-1.75,2.07-2.5,3.15-.76,1.08-1.37,2.34-1.84,3.78-.47,1.44-.7,2.98-.7,4.6v5.04h18.65ZM763.8,785.29h-6.45v5.93h6.45v-5.93ZM736.44,789c1.74,1.79,4.17,2.68,7.32,2.68s5.53-.89,7.17-2.68,2.45-4.33,2.45-7.64v-9.17c0-3.06-.6-5.38-1.79-6.98-1.19-1.59-2.97-2.39-5.34-2.39-2.55,0-4.42.99-5.62,2.98l.51-9.8h11.21v-5.87h-17.27l-1.24,23.84h6.45v-1.23c0-2.69,1.1-4.04,3.31-4.04s3.34,1.35,3.34,4.04v9.03c0,2.67-1.11,4.01-3.34,4.01s-3.31-1.34-3.31-4.01v-3.81h-6.45v3.41c0,3.31.87,5.85,2.6,7.64M716.93,774.38c0-2.69,1.12-4.04,3.35-4.04s3.32,1.35,3.32,4.04v7.39c0,2.67-1.11,4.01-3.32,4.01s-3.35-1.34-3.35-4.01v-7.39ZM713.02,788.99c1.69,1.8,4.11,2.69,7.26,2.69s5.57-.9,7.25-2.69c1.68-1.8,2.53-4.34,2.53-7.62v-7.51c0-3.06-.6-5.39-1.8-6.99-1.2-1.6-2.98-2.41-5.34-2.41-2.85,0-4.84,1.21-5.99,3.64v-7.51c0-1.87.29-3.18.88-3.92.58-.75,1.48-1.12,2.71-1.12,2.23,0,3.35,1.35,3.35,4.04v1.46h6.07v-1.06c0-3.3-.82-5.85-2.46-7.63-1.64-1.79-4.02-2.68-7.14-2.68-6.57,0-9.86,3.56-9.86,10.69v21c0,3.29.84,5.83,2.54,7.62"/>
  <path class="st1" d="M748.83,742.71c19.86,0,35.97-16.1,35.97-35.97s-16.11-35.97-35.97-35.97-35.97,16.1-35.97,35.97,16.11,35.97,35.97,35.97Z"/>
  <path class="st2" d="M755.1,723.4v-9.55l1.52-2.84,4.75,12.39h5.01l-6.79-17.25,6.79-13.86h-4.88l-6.4,13.56v-13.56h-4.88v31.11h4.88ZM746.75,723.4v-4.45h-9.2c-.03-.15-.04-.37-.04-.67,0-.68.18-1.38.54-2.11.36-.72.82-1.42,1.39-2.1.57-.68,1.2-1.39,1.89-2.14.69-.74,1.38-1.55,2.06-2.41.68-.86,1.31-1.76,1.88-2.7.57-.94,1.03-2.02,1.39-3.24.36-1.22.54-2.5.54-3.83,0-2.5-.62-4.43-1.86-5.78-1.24-1.35-3.04-2.03-5.41-2.03s-4.18.68-5.43,2.03c-1.26,1.35-1.88,3.28-1.88,5.78v3.04h4.67v-3.34c0-2.04.84-3.06,2.53-3.06.84,0,1.46.26,1.88.78.42.52.63,1.45.63,2.78,0,1.22-.18,2.35-.53,3.42-.35,1.06-.81,2-1.38,2.81-.57.81-1.2,1.6-1.89,2.36-.69.77-1.38,1.54-2.07,2.31-.69.77-1.32,1.57-1.9,2.39-.57.82-1.04,1.77-1.39,2.86-.36,1.09-.53,2.25-.53,3.48v3.82h14.12Z"/>
  <path class="st2" d="M418.9,394.98h33.23v-33.64h-33.23v33.64ZM418.16,360.59h34.7v35.13h-34.7v-35.13Z"/>
  <path class="st1" d="M418.9,394.98h33.23v-33.64h-33.23v33.64ZM418.16,360.59h34.7v35.13h-34.7v-35.13Z"/>
  <g>
    <path class="st2" d="M449.09,366.38c0-.83-.67-1.51-1.49-1.51h-17.45c-.82,0-1.49.68-1.49,1.51v23.56c0,.83.67,1.5,1.49,1.5h17.45c.82,0,1.49-.67,1.49-1.5v-23.56ZM427.94,389.94v-23.56c0-1.24,1-2.25,2.22-2.25h17.45c1.22,0,2.22,1.01,2.22,2.25v23.56c0,1.24-1,2.25-2.22,2.25h-17.45c-1.23,0-2.22-1.01-2.22-2.25"/>
    <path class="st1" d="M449.09,366.38c0-.83-.67-1.51-1.49-1.51h-17.45c-.82,0-1.49.68-1.49,1.51v23.56c0,.83.67,1.5,1.49,1.5h17.45c.82,0,1.49-.67,1.49-1.5v-23.56ZM427.94,389.94v-23.56c0-1.24,1-2.25,2.22-2.25h17.45c1.22,0,2.22,1.01,2.22,2.25v23.56c0,1.24-1,2.25-2.22,2.25h-17.45c-1.23,0-2.22-1.01-2.22-2.25Z"/>
  </g>
  <path class="st2" d="M431.26,388.82h15.25v-21.33h-15.25v21.33ZM430.53,366.75h16.72v22.82h-16.72v-22.82Z"/>
  <path class="st1" d="M431.26,388.82h15.25v-21.33h-15.25v21.33ZM430.53,366.75h16.72v22.82h-16.72v-22.82Z"/>
  <g>
    <path class="st2" d="M441.83,378.16c0-1.07-.86-1.94-1.91-1.94s-1.91.87-1.91,1.94.86,1.94,1.91,1.94,1.91-.87,1.91-1.94M437.28,378.16c0-1.48,1.18-2.68,2.64-2.68s2.64,1.2,2.64,2.68-1.18,2.68-2.64,2.68-2.64-1.2-2.64-2.68"/>
    <path class="st1" d="M441.83,378.16c0-1.07-.86-1.94-1.91-1.94s-1.91.87-1.91,1.94.86,1.94,1.91,1.94,1.91-.87,1.91-1.94ZM437.28,378.16c0-1.48,1.18-2.68,2.64-2.68s2.64,1.2,2.64,2.68-1.18,2.68-2.64,2.68-2.64-1.2-2.64-2.68Z"/>
  </g>
  <line class="st1" x1="412.39" y1="424.15" x2="444.8" y2="424.15"/>
</svg>