<?xml version="1.0" encoding="utf-8"?>
<!-- Generator: Adobe Illustrator 26.5.0, SVG Export Plug-In . SVG Version: 6.00 Build 0)  -->
<svg version="1.1" id="Слой_1" xmlns="http://www.w3.org/2000/svg" xmlns:xlink="http://www.w3.org/1999/xlink" x="0px" y="0px"
	 viewBox="0 0 1000 1000" style="enable-background:new 0 0 1000 1000;" xml:space="preserve">
<style type="text/css">
	.st0{fill:#B1DCDE;}
	.st1{fill:#3C3C3B;}
	.st2{fill:none;stroke:#3C3C3B;}
</style>
<rect x="156.4" y="171.7" class="st0" width="703.7" height="544.6"/>
<g>
	<path class="st1" d="M360.3,295.4v-26.7h13.2v26.7h-4.2v-22.9h-4.8v22.9H360.3z"/>
	<path class="st1" d="M376.6,295.4v-26.7h6.2c2.1,0,3.6,0.6,4.7,1.7s1.6,2.8,1.6,4.9v3.5c0,2.2-0.5,3.8-1.6,4.9s-2.6,1.7-4.7,1.7h-2
		v10H376.6z M380.8,281.6h2c0.7,0,1.2-0.2,1.5-0.6c0.3-0.4,0.5-1,0.5-2v-4c0-0.9-0.2-1.6-0.5-1.9c-0.3-0.4-0.8-0.6-1.5-0.6h-2V281.6
		z"/>
	<path class="st1" d="M391,295.4v-26.7h3.7v16.9l1.5-5.9l3.4-11h5v26.7h-4.2v-18.8l-1.7,6.5l-3.5,12.2H391z"/>
	<path class="st1" d="M406.3,295.4l4.7-13.8l-4.4-12.9h4.2l3.2,9.9l3.2-9.9h3.7l-4.4,13.1l4.7,13.6H417l-3.2-9.9l-3.3,9.9H406.3z"/>
	<path class="st1" d="M423.3,289v-13.9c0-2.1,0.6-3.8,1.7-5c1.1-1.2,2.7-1.8,4.7-1.8c2.1,0,3.6,0.6,4.7,1.8c1.1,1.2,1.6,2.8,1.6,5
		V289c0,2.1-0.5,3.8-1.6,5c-1.1,1.2-2.7,1.8-4.7,1.8c-2.1,0-3.6-0.6-4.7-1.8C423.9,292.8,423.3,291.2,423.3,289z M427.5,289.3
		c0,1.8,0.7,2.6,2.2,2.6c1.4,0,2.2-0.9,2.2-2.6v-14.4c0-1.8-0.7-2.6-2.2-2.6c-1.5,0-2.2,0.9-2.2,2.6V289.3z"/>
	<path class="st1" d="M437.6,295.4l5.2-15.8l-5.2-11h4.1l5,10.8v-10.8h4.2v10.8l5-10.8h4.1l-5.1,10.9l5.1,15.8h-4.2l-3.8-11.8l-1,2
		v9.8h-4.2v-9.8l-1-2.1l-3.8,11.9H437.6z"/>
	<path class="st1" d="M460.7,295.4l4.3-26.7h6.5l4.3,26.7h-4.2l-0.7-4.8h-5.1l-0.7,4.8H460.7z M466.2,286.9h4l-2-13.5L466.2,286.9z"
		/>
	<path class="st1" d="M476.7,295.4c0.3-0.7,0.4-1.8,0.4-3.2v-4.1c0-1.5,0.2-2.7,0.6-3.6c0.4-0.9,1.1-1.6,2.1-2.1
		c-1.8-0.9-2.7-2.7-2.7-5.4v-2.1c0-2.1,0.5-3.6,1.5-4.6c1-1,2.6-1.5,4.7-1.5h6.3v26.7h-4.2v-10.9H484c-1,0-1.7,0.3-2.1,0.8
		c-0.4,0.5-0.7,1.4-0.7,2.6v4.2c0,0.7,0,1.2-0.1,1.7c0,0.4-0.1,0.7-0.1,0.9c0,0.2-0.1,0.4-0.2,0.7H476.7z M481.3,277.9
		c0,1,0.2,1.8,0.6,2.2c0.4,0.4,1.1,0.6,1.9,0.6h1.6v-8.2h-2c-0.7,0-1.3,0.2-1.6,0.7c-0.3,0.4-0.5,1.1-0.5,2.1V277.9z"/>
</g>
<g>
	<path class="st1" d="M407.7,326.9v-2.2h4.2v2.5c0,1.7,0.7,2.6,2.2,2.6c1.4,0,2.2-0.9,2.2-2.6v-5.9c0-1.7-0.7-2.6-2.2-2.6
		c-1.4,0-2.2,0.9-2.2,2.6v0.8h-4.2l0.8-15.5h11.2v3.8h-7.3l-0.3,6.4c0.8-1.3,2-1.9,3.7-1.9c1.5,0,2.7,0.5,3.5,1.6
		c0.8,1,1.2,2.5,1.2,4.5v6c0,2.2-0.5,3.8-1.6,5c-1.1,1.2-2.6,1.7-4.7,1.7s-3.6-0.6-4.8-1.7C408.2,330.7,407.7,329,407.7,326.9z"/>
	<path class="st1" d="M423,333.3v-3.9h4.2v3.9H423z"/>
	<path class="st1" d="M429.9,326.9v-2.2h4.2v2.5c0,1.7,0.7,2.6,2.2,2.6c1.4,0,2.2-0.9,2.2-2.6v-5.9c0-1.7-0.7-2.6-2.2-2.6
		c-1.4,0-2.2,0.9-2.2,2.6v0.8h-4.2l0.8-15.5h11.2v3.8h-7.3l-0.3,6.4c0.8-1.3,2-1.9,3.7-1.9c1.5,0,2.7,0.5,3.5,1.6
		c0.8,1,1.2,2.5,1.2,4.5v6c0,2.2-0.5,3.8-1.6,5c-1.1,1.2-2.6,1.7-4.7,1.7c-2,0-3.6-0.6-4.8-1.7C430.4,330.7,429.9,329,429.9,326.9z"
		/>
</g>
<polyline class="st1" points="154.7,173.6 351.1,173.6 351.1,157.6 154.7,157.6 "/>
<polyline class="st2" points="154.7,173.6 351.1,173.6 351.1,157.6 154.7,157.6 "/>
<rect x="142.8" y="147.1" class="st1" width="16.9" height="757.8"/>
<rect x="142.8" y="168.3" class="st2" width="16.9" height="736.6"/>
<rect x="329.3" y="146.9" class="st1" width="28.7" height="26.7"/>
<rect x="329.3" y="146.9" class="st2" width="28.7" height="26.7"/>
<rect x="455.6" y="146.9" class="st1" width="414.9" height="26.7"/>
<rect x="455.6" y="146.9" class="st2" width="52.6" height="26.7"/>
<polyline class="st1" points="143,173.6 242.6,173.6 242.6,146.9 143,146.9 "/>
<polyline class="st2" points="143,173.6 242.6,173.6 242.6,146.9 143,146.9 "/>
<rect x="497.8" y="316.8" class="st1" width="16.9" height="439.6"/>
<rect x="497.8" y="316.8" class="st2" width="16.9" height="439.6"/>
<rect x="497.8" y="165.5" class="st1" width="16.9" height="70"/>
<rect x="497.8" y="153.6" class="st2" width="16.9" height="81.9"/>
<rect x="854.1" y="156.9" class="st1" width="16.9" height="697.5"/>
<rect x="854.1" y="147.1" class="st2" width="16.9" height="707.2"/>
<rect x="505.6" y="156.8" class="st1" width="364.8" height="16.9"/>
<rect x="505.6" y="156.8" class="st2" width="364.8" height="16.9"/>
<rect x="332.2" y="260" class="st1" width="10.4" height="86.6"/>
<rect x="332.2" y="260" class="st2" width="10.4" height="86.6"/>
<rect x="332.2" y="405.7" class="st1" width="10.4" height="69.9"/>
<rect x="332.2" y="405.7" class="st2" width="10.4" height="69.9"/>
<rect x="156.4" y="260" class="st1" width="186.2" height="10.4"/>
<rect x="156.4" y="260" class="st2" width="186.2" height="10.4"/>
<rect x="336.3" y="442.8" class="st1" width="40.3" height="10.4"/>
<rect x="336.3" y="442.8" class="st2" width="40.3" height="10.4"/>
<rect x="452.2" y="442.8" class="st1" width="54.8" height="10.4"/>
<rect x="452.2" y="442.8" class="st2" width="54.8" height="10.4"/>
<rect x="156.4" y="464.8" class="st1" width="186.2" height="10.4"/>
<rect x="156.4" y="464.8" class="st2" width="186.2" height="10.4"/>
<line class="st1" x1="150.2" y1="748.8" x2="150.2" y2="715.7"/>
<line class="st2" x1="150.2" y1="748.8" x2="150.2" y2="715.7"/>
<line class="st1" x1="152.3" y1="756.4" x2="152.3" y2="748.9"/>
<line class="st2" x1="152.3" y1="756.4" x2="152.3" y2="748.9"/>
<rect x="408.8" y="715.7" class="st1" width="93.6" height="33.1"/>
<rect x="408.8" y="715.7" class="st2" width="93.6" height="33.1"/>
<rect x="152.5" y="715.7" class="st1" width="94.4" height="33.1"/>
<rect x="152.5" y="715.7" class="st2" width="94.4" height="33.1"/>
<rect x="321.8" y="715.7" class="st2" width="151.7" height="33.1"/>
<rect x="401.4" y="748.9" class="st1" width="103.8" height="7.6"/>
<rect x="401.4" y="748.9" class="st2" width="103.8" height="7.6"/>
<rect x="150.4" y="748.9" class="st1" width="103.8" height="7.6"/>
<rect x="150.4" y="748.9" class="st2" width="103.8" height="7.6"/>
<rect x="312.2" y="748.9" class="st2" width="151.7" height="7.6"/>
<g>
	<path class="st2" d="M321.5,750.1c0,0,0-9.4-4.2-21.1c-3.5-9.8-10.4-18.9-10.4-18.9L242,746.8l1.5,2.3l65.1-36.7"/>
</g>
<rect x="782.5" y="715.7" class="st1" width="80.5" height="33.1"/>
<rect x="782.5" y="715.7" class="st2" width="80.5" height="33.1"/>
<rect x="484" y="715.7" class="st1" width="94.4" height="33.1"/>
<rect x="484" y="715.7" class="st2" width="94.4" height="33.1"/>
<rect x="653.3" y="715.7" class="st2" width="151.7" height="33.1"/>
<rect x="775.1" y="748.9" class="st1" width="84.6" height="7.6"/>
<rect x="775.1" y="748.9" class="st2" width="84.6" height="7.6"/>
<rect x="482" y="748.9" class="st1" width="103.8" height="7.6"/>
<rect x="482" y="748.9" class="st2" width="103.8" height="7.6"/>
<rect x="643.7" y="748.9" class="st2" width="151.7" height="7.6"/>
<g>
	<path class="st2" d="M653.1,750.1c0,0,0-9.4-4.2-21.1c-3.5-9.8-10.4-18.9-10.4-18.9l-64.9,36.7l1.5,2.3l65.1-36.7"/>
</g>
<rect x="161.8" y="175.8" class="st2" width="29.8" height="82.1"/>
<line class="st2" x1="186.9" y1="176" x2="186.9" y2="258.3"/>
<polyline class="st2" points="186.9,180 165.4,181.9 165.4,233.8 186.9,236.1 186.9,239.5 165.2,241.8 165.2,253.4 186.9,255.9 "/>
<rect x="465.8" y="356.2" class="st2" width="29.8" height="84.4"/>
<line class="st2" x1="470.5" y1="356.5" x2="470.5" y2="441.1"/>
<polyline class="st2" points="470.5,360.6 492,362.5 492,415.9 470.5,418.2 470.5,421.8 492.3,424.1 492.3,436 470.5,438.6 "/>
<path class="st2" d="M506.4,221.3l48.4,84.1c0,0-6.9,4.4-21.6,8.1c-14.8,3.8-25,3.8-25,3.8"/>
<path class="st2" d="M338.3,409.2l31.3-55.1c0,0-4.4-2.9-14-5.3c-9.5-2.5-16.2-2.5-16.2-2.5"/>
<path class="st2" d="M459.5,448.3l-72.9,42.2c0,0-3.8-6-7.1-18.9c-3.3-12.9-3.3-21.8-3.3-21.8"/>
<path class="st2" d="M332.9,153.1l107.2,63.2c0,0,5.6-9,10.4-28.3c4.8-19.3,4.8-32.7,4.8-32.7"/>
<rect x="288.3" y="403" class="st2" width="42.2" height="60.5"/>
<line class="st2" x1="288.2" y1="403.7" x2="330.3" y2="463.4"/>
<line class="st2" x1="288.2" y1="464.1" x2="330.3" y2="404.4"/>
<path class="st1" d="M199.2,373.3c0,9.3-7.5,16.8-16.8,16.8h-17.9c-1.4,0-2.6-1.1-2.6-2.6v-38c0-1.4,1.1-2.6,2.6-2.6h17.9
	c9.3,0,16.8,7.5,16.8,16.8V373.3z M161,349.5v38c0,1.9,1.6,3.5,3.5,3.5h17.9c9.8,0,17.8-8,17.8-17.8v-9.5c0-9.8-8-17.8-17.8-17.8
	h-17.9C162.6,346,161,347.6,161,349.5"/>
<path class="st2" d="M199.2,373.3c0,9.3-7.5,16.8-16.8,16.8h-17.9c-1.4,0-2.6-1.1-2.6-2.6v-38c0-1.4,1.1-2.6,2.6-2.6h17.9
	c9.3,0,16.8,7.5,16.8,16.8V373.3z M161,349.5v38c0,1.9,1.6,3.5,3.5,3.5h17.9c9.8,0,17.8-8,17.8-17.8v-9.5c0-9.8-8-17.8-17.8-17.8
	h-17.9C162.6,346,161,347.6,161,349.5z"/>
<path class="st1" d="M195,373.3c0,6.9-5.7,12.6-12.6,12.6h-10.4c-1.2,0-2.2-1-2.2-2.2v-30.3c0-1.2,1-2.2,2.2-2.2h10.4
	c7,0,12.6,5.7,12.6,12.6V373.3z M168.8,353.4v30.3c0,1.7,1.4,3.1,3.2,3.1h10.4c7.5,0,13.6-6.1,13.6-13.6v-9.5
	c0-7.5-6.1-13.6-13.6-13.6h-10.4C170.2,350.2,168.8,351.6,168.8,353.4"/>
<path class="st2" d="M195,373.3c0,6.9-5.7,12.6-12.6,12.6h-10.4c-1.2,0-2.2-1-2.2-2.2v-30.3c0-1.2,1-2.2,2.2-2.2h10.4
	c7,0,12.6,5.7,12.6,12.6V373.3z M168.8,353.4v30.3c0,1.7,1.4,3.1,3.2,3.1h10.4c7.5,0,13.6-6.1,13.6-13.6v-9.5
	c0-7.5-6.1-13.6-13.6-13.6h-10.4C170.2,350.2,168.8,351.6,168.8,353.4z"/>
<path class="st1" d="M186.1,368.5c0,1.2-0.9,2.1-2.1,2.1c-1.2,0-2.1-0.9-2.1-2.1c0-1.2,0.9-2.1,2.1-2.1
	C185.2,366.4,186.1,367.4,186.1,368.5 M181,368.5c0,1.7,1.4,3.1,3.1,3.1c1.7,0,3.1-1.4,3.1-3.1c0-1.7-1.4-3.1-3.1-3.1
	C182.3,365.5,181,366.8,181,368.5"/>
<path class="st2" d="M186.1,368.5c0,1.2-0.9,2.1-2.1,2.1c-1.2,0-2.1-0.9-2.1-2.1c0-1.2,0.9-2.1,2.1-2.1
	C185.2,366.4,186.1,367.4,186.1,368.5z M181,368.5c0,1.7,1.4,3.1,3.1,3.1c1.7,0,3.1-1.4,3.1-3.1c0-1.7-1.4-3.1-3.1-3.1
	C182.3,365.5,181,366.8,181,368.5z"/>
<g>
	<path class="st2" d="M190.9,304.3c0-1.4,1.1-2.5,2.5-2.5c1.4,0,2.6,1.1,2.6,2.5c0,1.4-1.1,2.5-2.6,2.5
		C192,306.8,190.9,305.7,190.9,304.3z"/>
	<path class="st2" d="M325.3,319.3c0,9.3-7.5,16.8-16.8,16.8H183.6c-9.3,0-16.8-7.5-16.8-16.8v-26.1c0-9.3,7.5-16.8,16.8-16.8h124.9
		c9.3,0,16.8,7.5,16.8,16.8V319.3z"/>
	<path class="st2" d="M314.3,313.8c0,9.3-7.5,16.8-16.8,16.8H194.6c-9.3,0-16.8-7.5-16.8-16.8v-15c0-9.3,7.5-16.8,16.8-16.8h102.9
		c9.3,0,16.8,7.5,16.8,16.8V313.8z"/>
	<path class="st2" d="M301,316.8c0,4.6-3.8,8.4-8.4,8.4H192.3c-4.6,0-8.4-3.7-8.4-8.4v-21.1c0-4.6,3.8-8.4,8.4-8.4h100.3
		c4.6,0,8.4,3.8,8.4,8.4V316.8z"/>
</g>
<polygon class="st2" points="160.7,271.5 160.7,271.5 331.5,271.5 331.5,341 160.7,341 "/>
<line class="st2" x1="156.8" y1="905" x2="156.8" y2="894.6"/>
<rect x="160.1" y="894.6" class="st2" width="345.1" height="10.4"/>
<polygon class="st2" points="512.4,894.6 512.4,905 864.2,853.8 864.2,843.4 "/>
<line class="st2" x1="150.6" y1="146.9" x2="355.6" y2="146.9"/>
<g>
	<path class="st1" d="M234.7,424.9c0-10.1-8.3-18.4-18.4-18.4h-26.7c-1.8,0-3.2,1.4-3.2,3.2v30.5c0,1.8,1.4,3.2,3.2,3.2h26.7
		C226.5,443.3,234.7,435,234.7,424.9 M185.2,440.1v-30.5c0-2.4,2-4.4,4.4-4.4h26.7c10.9,0,19.7,8.8,19.7,19.7
		c0,10.9-8.8,19.7-19.7,19.7h-26.7C187.2,444.5,185.2,442.5,185.2,440.1"/>
	<path class="st2" d="M234.7,424.9c0-10.1-8.3-18.4-18.4-18.4h-26.7c-1.8,0-3.2,1.4-3.2,3.2v30.5c0,1.8,1.4,3.2,3.2,3.2h26.7
		C226.5,443.3,234.7,435,234.7,424.9z M185.2,440.1v-30.5c0-2.4,2-4.4,4.4-4.4h26.7c10.9,0,19.7,8.8,19.7,19.7
		c0,10.9-8.8,19.7-19.7,19.7h-26.7C187.2,444.5,185.2,442.5,185.2,440.1z"/>
	<path class="st2" d="M195.4,411.7v26.4c0,0.2,0.2,0.3,0.3,0.3h20.1c7.4,0,13.5-6.1,13.5-13.5c0-7.4-6.1-13.5-13.5-13.5h-20.1
		C195.5,411.3,195.4,411.5,195.4,411.7z"/>
	<path class="st1" d="M196,412v25.8h19.8c7.1,0,12.9-5.8,12.9-12.9c0-7.1-5.8-12.9-12.9-12.9H196z M194.7,438.1v-26.4
		c0-0.5,0.4-0.9,0.9-0.9h20.1c7.8,0,14.1,6.3,14.1,14.1c0,7.8-6.3,14.2-14.1,14.2h-20.1C195.2,439,194.7,438.6,194.7,438.1"/>
	<path class="st2" d="M196,412v25.8h19.8c7.1,0,12.9-5.8,12.9-12.9c0-7.1-5.8-12.9-12.9-12.9H196z M194.7,438.1v-26.4
		c0-0.5,0.4-0.9,0.9-0.9h20.1c7.8,0,14.1,6.3,14.1,14.1c0,7.8-6.3,14.2-14.1,14.2h-20.1C195.2,439,194.7,438.6,194.7,438.1z"/>
	<path class="st1" d="M215.8,424.9c0-1.9-1.6-3.5-3.5-3.5c-1.9,0-3.5,1.6-3.5,3.5c0,1.9,1.6,3.5,3.5,3.5
		C214.2,428.3,215.8,426.8,215.8,424.9 M207.6,424.9c0-2.6,2.1-4.7,4.7-4.7s4.7,2.1,4.7,4.7c0,2.6-2.1,4.7-4.7,4.7
		S207.6,427.5,207.6,424.9"/>
	<path class="st2" d="M215.8,424.9c0-1.9-1.6-3.5-3.5-3.5c-1.9,0-3.5,1.6-3.5,3.5c0,1.9,1.6,3.5,3.5,3.5
		C214.2,428.3,215.8,426.8,215.8,424.9z M207.6,424.9c0-2.6,2.1-4.7,4.7-4.7s4.7,2.1,4.7,4.7c0,2.6-2.1,4.7-4.7,4.7
		S207.6,427.5,207.6,424.9z"/>
</g>
<rect x="201.9" y="412" transform="matrix(0.5974 -0.8019 0.8019 0.5974 -253.0641 330.3767)" class="st1" width="1.3" height="10.6"/>
<rect x="201.9" y="412" transform="matrix(0.5974 -0.8019 0.8019 0.5974 -253.0641 330.3767)" class="st2" width="1.3" height="10.6"/>
<polygon class="st1" points="197.9,434.9 206.4,428.6 207.1,429.6 198.7,436 "/>
<polygon class="st2" points="197.9,434.9 206.4,428.6 207.1,429.6 198.7,436 "/>
<g>
	<path class="st1" d="M185.1,412.2c0-2.8-2.3-5.1-5.1-5.1h-6.9c-2.8,0-5.1,2.3-5.1,5.1v25.4c0,2.8,2.3,5.1,5.1,5.1h6.9
		c2.8,0,5.1-2.3,5.1-5.1V412.2z M166.7,437.6v-25.4c0-3.5,2.9-6.4,6.4-6.4h6.9c3.5,0,6.4,2.9,6.4,6.4v25.4c0,3.5-2.9,6.4-6.4,6.4
		h-6.9C169.6,443.9,166.7,441.1,166.7,437.6"/>
	<path class="st2" d="M185.1,412.2c0-2.8-2.3-5.1-5.1-5.1h-6.9c-2.8,0-5.1,2.3-5.1,5.1v25.4c0,2.8,2.3,5.1,5.1,5.1h6.9
		c2.8,0,5.1-2.3,5.1-5.1V412.2z M166.7,437.6v-25.4c0-3.5,2.9-6.4,6.4-6.4h6.9c3.5,0,6.4,2.9,6.4,6.4v25.4c0,3.5-2.9,6.4-6.4,6.4
		h-6.9C169.6,443.9,166.7,441.1,166.7,437.6z"/>
	<path class="st1" d="M178.5,424.9c0-1.1-0.9-2-2-2c-1.1,0-2,0.9-2,2c0,1.1,0.9,2,2,2C177.6,426.8,178.5,425.9,178.5,424.9
		 M173.3,424.9c0-1.8,1.4-3.2,3.2-3.2c1.8,0,3.2,1.4,3.2,3.2c0,1.8-1.5,3.2-3.2,3.2C174.8,428.1,173.3,426.6,173.3,424.9"/>
	<path class="st2" d="M178.5,424.9c0-1.1-0.9-2-2-2c-1.1,0-2,0.9-2,2c0,1.1,0.9,2,2,2C177.6,426.8,178.5,425.9,178.5,424.9z
		 M173.3,424.9c0-1.8,1.4-3.2,3.2-3.2c1.8,0,3.2,1.4,3.2,3.2c0,1.8-1.5,3.2-3.2,3.2C174.8,428.1,173.3,426.6,173.3,424.9z"/>
</g>
<path class="st1" d="M162.3,477.6h46.6v47.1h-46.6V477.6z M161.3,525.8h48.7v-49.2h-48.7V525.8z"/>
<path class="st2" d="M162.3,477.6h46.6v47.1h-46.6V477.6z M161.3,525.8h48.7v-49.2h-48.7V525.8z"/>
<g>
	<path class="st1" d="M204.6,517.7c0,1.2-0.9,2.1-2.1,2.1h-24.5c-1.2,0-2.1-0.9-2.1-2.1v-33c0-1.2,0.9-2.1,2.1-2.1h24.5
		c1.2,0,2.1,0.9,2.1,2.1V517.7z M175,484.7v33c0,1.7,1.4,3.2,3.1,3.2h24.5c1.7,0,3.1-1.4,3.1-3.2v-33c0-1.7-1.4-3.1-3.1-3.1h-24.5
		C176.4,481.6,175,483,175,484.7"/>
	<path class="st2" d="M204.6,517.7c0,1.2-0.9,2.1-2.1,2.1h-24.5c-1.2,0-2.1-0.9-2.1-2.1v-33c0-1.2,0.9-2.1,2.1-2.1h24.5
		c1.2,0,2.1,0.9,2.1,2.1V517.7z M175,484.7v33c0,1.7,1.4,3.2,3.1,3.2h24.5c1.7,0,3.1-1.4,3.1-3.2v-33c0-1.7-1.4-3.1-3.1-3.1h-24.5
		C176.4,481.6,175,483,175,484.7z"/>
</g>
<path class="st1" d="M179.6,486.3H201v29.9h-21.4V486.3z M178.6,517.2H202v-32h-23.4V517.2z"/>
<path class="st2" d="M179.6,486.3H201v29.9h-21.4V486.3z M178.6,517.2H202v-32h-23.4V517.2z"/>
<g>
	<path class="st1" d="M194.4,501.2c0,1.5-1.2,2.7-2.7,2.7s-2.7-1.2-2.7-2.7s1.2-2.7,2.7-2.7S194.4,499.7,194.4,501.2 M188.1,501.2
		c0,2.1,1.7,3.7,3.7,3.7c2,0,3.7-1.7,3.7-3.7c0-2.1-1.7-3.7-3.7-3.7C189.7,497.5,188.1,499.1,188.1,501.2"/>
	<path class="st2" d="M194.4,501.2c0,1.5-1.2,2.7-2.7,2.7s-2.7-1.2-2.7-2.7s1.2-2.7,2.7-2.7S194.4,499.7,194.4,501.2z M188.1,501.2
		c0,2.1,1.7,3.7,3.7,3.7c2,0,3.7-1.7,3.7-3.7c0-2.1-1.7-3.7-3.7-3.7C189.7,497.5,188.1,499.1,188.1,501.2z"/>
</g>
<g>
	<path class="st1" d="M291.5,596.3v-26.7h4.2v11.6l5.5-11.6h4.2l-5.8,11.9l5.8,14.8h-4.3l-4.1-10.6l-1.3,2.4v8.2H291.5z"/>
	<path class="st1" d="M306.1,569.6h4.2l2.3,9.1l1.3,6.2l1-6.2l1.9-9.2h4.2l-4.5,19.9c-0.2,1-0.4,1.9-0.7,2.6c-0.3,0.7-0.6,1.4-1,2
		c-0.4,0.6-0.9,1.1-1.5,1.4c-0.6,0.3-1.3,0.6-2.1,0.7c-0.8,0.2-1.8,0.2-3,0.1v-3.8c1.1,0.1,2,0,2.6-0.3c0.6-0.3,1-0.9,1.1-1.8l0-0.2
		L306.1,569.6z"/>
	<path class="st1" d="M321.9,596.3l4.7-13.8l-4.4-12.9h4.2l3.2,9.9l3.2-9.9h3.7l-4.4,13.1l4.7,13.6h-4.2l-3.2-9.9l-3.3,9.9H321.9z"
		/>
	<path class="st1" d="M339.3,596.3v-26.7h4.2v11.5h4.8v-11.5h4.2v26.7h-4.2v-11.4h-4.8v11.4H339.3z"/>
	<path class="st1" d="M354.9,596.3c0.3-0.7,0.4-1.8,0.4-3.2V589c0-1.5,0.2-2.7,0.6-3.6c0.4-0.9,1.1-1.6,2.1-2.1
		c-1.8-0.9-2.7-2.7-2.7-5.4v-2.1c0-2.1,0.5-3.6,1.5-4.6c1-1,2.6-1.5,4.7-1.5h6.3v26.7h-4.2v-10.9h-1.4c-1,0-1.7,0.3-2.1,0.8
		c-0.4,0.5-0.7,1.4-0.7,2.6v4.2c0,0.7,0,1.2-0.1,1.7c0,0.4-0.1,0.7-0.1,0.9c0,0.2-0.1,0.4-0.2,0.7H354.9z M359.5,578.8
		c0,1,0.2,1.8,0.6,2.2c0.4,0.4,1.1,0.6,1.9,0.6h1.6v-8.2h-2c-0.7,0-1.3,0.2-1.6,0.7c-0.3,0.4-0.5,1.1-0.5,2.1V578.8z"/>
</g>
<g>
	<path class="st1" d="M312,635.7v-2.1c0-2.7,0.9-4.6,2.6-5.6c-1.7-0.9-2.6-2.7-2.6-5.4v-0.9c0-2.1,0.6-3.8,1.7-5
		c1.1-1.2,2.8-1.8,4.9-1.8c2.1,0,3.7,0.6,4.9,1.8c1.1,1.2,1.7,2.8,1.7,5v0.9c0,2.6-0.9,4.4-2.6,5.4c1.7,1,2.6,2.8,2.6,5.6v2.1
		c0,2.1-0.6,3.8-1.7,5c-1.1,1.2-2.7,1.8-4.9,1.8c-2.1,0-3.7-0.6-4.9-1.8C312.6,639.5,312,637.8,312,635.7z M316.2,623.5
		c0,1.9,0.8,2.8,2.4,2.8c1.6,0,2.4-0.9,2.4-2.8V622c0-1.1-0.2-1.9-0.6-2.4c-0.4-0.5-1-0.7-1.7-0.7c-0.7,0-1.3,0.2-1.7,0.7
		c-0.4,0.5-0.6,1.2-0.6,2.4V623.5z M316.2,635.6c0,1.1,0.2,1.9,0.6,2.3c0.4,0.5,1,0.7,1.7,0.7c0.7,0,1.3-0.2,1.7-0.7
		c0.4-0.4,0.6-1.2,0.6-2.3v-2.5c0-2-0.8-3-2.4-3c-1.6,0-2.4,1-2.4,3V635.6z"/>
	<path class="st1" d="M327.7,642.1v-3.9h4.2v3.9H327.7z"/>
	<path class="st1" d="M334.2,635.7v-2.1c0-2.7,0.9-4.6,2.6-5.6c-1.7-0.9-2.6-2.7-2.6-5.4v-0.9c0-2.1,0.6-3.8,1.7-5
		c1.1-1.2,2.8-1.8,4.9-1.8c2.1,0,3.7,0.6,4.9,1.8c1.1,1.2,1.7,2.8,1.7,5v0.9c0,2.6-0.9,4.4-2.6,5.4c1.7,1,2.6,2.8,2.6,5.6v2.1
		c0,2.1-0.6,3.8-1.7,5c-1.1,1.2-2.7,1.8-4.9,1.8c-2.1,0-3.7-0.6-4.9-1.8S334.2,637.8,334.2,635.7z M338.4,623.5
		c0,1.9,0.8,2.8,2.4,2.8c1.6,0,2.4-0.9,2.4-2.8V622c0-1.1-0.2-1.9-0.6-2.4c-0.4-0.5-1-0.7-1.7-0.7c-0.7,0-1.3,0.2-1.7,0.7
		c-0.4,0.5-0.6,1.2-0.6,2.4V623.5z M338.4,635.6c0,1.1,0.2,1.9,0.6,2.3c0.4,0.5,1,0.7,1.7,0.7c0.7,0,1.3-0.2,1.7-0.7
		c0.4-0.4,0.6-1.2,0.6-2.3v-2.5c0-2-0.8-3-2.4-3c-1.6,0-2.4,1-2.4,3V635.6z"/>
</g>
<g>
	<path class="st1" d="M243.2,372.8v-11.1c0-1.7,0.4-3,1.3-4c0.8-0.9,2.1-1.4,3.7-1.4c1.6,0,2.9,0.5,3.8,1.4c0.9,0.9,1.4,2.3,1.4,4
		v2.1h-3.4v-2.3c0-1.4-0.6-2.1-1.7-2.1c-1.2,0-1.7,0.7-1.7,2.1v11.5c0,1.4,0.6,2.1,1.7,2.1c1.2,0,1.7-0.7,1.7-2.1V370h3.4v2.8
		c0,1.7-0.5,3-1.4,4c-0.9,0.9-2.2,1.4-3.8,1.4c-1.6,0-2.9-0.5-3.7-1.4C243.7,375.9,243.2,374.6,243.2,372.8z"/>
	<path class="st1" d="M254.2,378l8.4-21.4h2.9l-8.4,21.4H254.2z"/>
	<path class="st1" d="M266,356.6h3.4l1.8,7.3l1,5l0.8-4.9l1.5-7.3h3.4l-3.6,15.9c-0.2,0.8-0.3,1.5-0.6,2.1c-0.2,0.6-0.5,1.1-0.8,1.6
		c-0.3,0.5-0.7,0.9-1.2,1.1c-0.5,0.3-1,0.5-1.7,0.6c-0.7,0.1-1.5,0.2-2.4,0.1v-3c0.9,0.1,1.6,0,2.1-0.3c0.5-0.2,0.8-0.7,0.9-1.5
		l0-0.2L266,356.6z"/>
</g>
<g>
	<path class="st1" d="M246.4,403.1v-1.8h3.4v2c0,1.4,0.6,2.1,1.7,2.1c0.6,0,1-0.2,1.3-0.5c0.3-0.4,0.4-1,0.4-1.9v-1.7
		c0-1-0.2-1.7-0.5-2.1c-0.3-0.4-0.9-0.6-1.7-0.6h-1.1v-3.1h1.3c0.7,0,1.2-0.2,1.5-0.5c0.3-0.3,0.5-0.9,0.5-1.7v-1.2
		c0-0.9-0.1-1.6-0.4-1.9c-0.3-0.4-0.7-0.5-1.3-0.5c-1.1,0-1.7,0.7-1.7,2.1v1.4h-3.4V392c0-1.7,0.5-3,1.4-4c0.9-0.9,2.2-1.4,3.8-1.4
		c1.6,0,2.9,0.5,3.7,1.4c0.8,0.9,1.3,2.3,1.3,4v0.6c0,2.3-0.8,3.8-2.3,4.4c1.6,0.7,2.3,2.2,2.3,4.5v1.7c0,1.7-0.4,3-1.3,4
		c-0.8,0.9-2.1,1.4-3.7,1.4c-1.6,0-2.9-0.5-3.8-1.4C246.8,406.2,246.4,404.9,246.4,403.1z"/>
	<path class="st1" d="M258.6,408.3v-3.1h3.4v3.1H258.6z"/>
	<path class="st1" d="M263.6,404.4v-3.1l6.1-14.4h3.7v14.4h1.5v3.1h-1.5v3.9H270v-3.9H263.6z M266.6,401.3h3.4v-8L266.6,401.3z"/>
</g>
<g>
	<path class="st1" d="M580.2,548.1l5.2-15.8l-5.2-11h4.1l5,10.8v-10.8h4.2v10.8l5-10.8h4.1l-5.1,10.9l5.1,15.8h-4.2l-3.8-11.8l-1,2
		v9.8h-4.2v-9.8l-1-2.1l-3.8,11.9H580.2z"/>
	<path class="st1" d="M604.5,548.1v-26.7h3.7v16.9l1.5-5.9l3.4-11h5v26.7H614v-18.8l-1.7,6.5l-3.5,12.2H604.5z"/>
	<path class="st1" d="M619.6,548.1v-3.8c0.5,0,0.9,0,1.2-0.1s0.5-0.2,0.8-0.4c0.2-0.2,0.4-0.5,0.5-0.8s0.1-0.8,0.2-1.5l0.5-20.2h12
		v26.7h-4.2v-22.9h-3.6l-0.5,16.2c-0.1,2.4-0.6,4.2-1.5,5.2c-1,1-2.5,1.6-4.6,1.6H619.6z"/>
	<path class="st1" d="M636.8,548.1l4.3-26.7h6.5l4.3,26.7h-4.2l-0.7-4.8h-5.1l-0.7,4.8H636.8z M642.3,539.6h4l-2-13.4L642.3,539.6z"
		/>
	<path class="st1" d="M652.8,548.1c0.3-0.7,0.4-1.8,0.4-3.2v-4.1c0-1.5,0.2-2.7,0.6-3.6c0.4-0.9,1.1-1.6,2.1-2.1
		c-1.8-0.9-2.7-2.7-2.7-5.4v-2.1c0-2.1,0.5-3.6,1.5-4.6c1-1,2.6-1.5,4.7-1.5h6.3v26.7h-4.2v-10.9h-1.4c-1,0-1.7,0.3-2.1,0.8
		c-0.4,0.5-0.7,1.4-0.7,2.6v4.2c0,0.7,0,1.2-0.1,1.7c0,0.4-0.1,0.7-0.1,0.9c0,0.2-0.1,0.4-0.2,0.7H652.8z M657.4,530.5
		c0,1,0.2,1.8,0.6,2.2c0.4,0.4,1.1,0.6,1.9,0.6h1.6v-8.2h-2c-0.7,0-1.3,0.2-1.6,0.7c-0.3,0.4-0.5,1.1-0.5,2.1V530.5z"/>
	<path class="st1" d="M674.7,548.1v-26.7h4.2V533l5.5-11.6h4.2l-5.8,11.9l5.8,14.8h-4.3l-4.1-10.6l-1.3,2.4v8.2H674.7z"/>
	<path class="st1" d="M690.1,541.6v-13.9c0-2.1,0.6-3.8,1.7-5c1.1-1.2,2.7-1.8,4.7-1.8c2.1,0,3.6,0.6,4.7,1.8c1.1,1.2,1.6,2.8,1.6,5
		v13.9c0,2.1-0.5,3.8-1.6,5c-1.1,1.2-2.7,1.8-4.7,1.8c-2.1,0-3.6-0.6-4.7-1.8C690.7,545.4,690.1,543.8,690.1,541.6z M694.3,541.9
		c0,1.8,0.7,2.6,2.2,2.6c1.4,0,2.2-0.9,2.2-2.6v-14.4c0-1.8-0.7-2.6-2.2-2.6c-1.5,0-2.2,0.9-2.2,2.6V541.9z"/>
	<path class="st1" d="M705.6,548.1v-26.7h5.8l3.1,19l2.9-19h6v26.7h-4.2v-19.2l-2.9,19.2h-4l-3.1-18.8v18.8H705.6z"/>
	<path class="st1" d="M726.2,548.1v-26.7h4.2v11.5h4.8v-11.5h4.2v26.7h-4.2v-11.4h-4.8v11.4H726.2z"/>
	<path class="st1" d="M741.4,548.1l4.3-26.7h6.5l4.3,26.7h-4.2l-0.7-4.8h-5.1l-0.7,4.8H741.4z M746.9,539.6h4l-2-13.4L746.9,539.6z"
		/>
	<path class="st1" d="M756.8,525.2v-3.8h13v3.8h-4.4v22.9h-4.2v-22.9H756.8z"/>
	<path class="st1" d="M770.5,548.1l4.3-26.7h6.5l4.3,26.7h-4.2l-0.7-4.8h-5.1l-0.7,4.8H770.5z M776,539.6h4l-2-13.4L776,539.6z"/>
</g>
<g>
	<path class="st1" d="M660.7,573.5v-3c0.6,0,1.2-0.1,1.7-0.2c0.5-0.1,0.9-0.3,1.2-0.5s0.6-0.4,0.8-0.8c0.2-0.3,0.4-0.6,0.6-0.9
		c0.1-0.3,0.3-0.6,0.4-1.1h2.8v26.7h-4.2v-20.4H660.7z"/>
	<path class="st1" d="M672.8,578.4v-4.9c0-2.1,0.5-3.8,1.6-5c1.1-1.2,2.7-1.8,4.7-1.8s3.6,0.6,4.7,1.8c1.1,1.2,1.7,2.8,1.7,5v13.7
		c0,4.6-2.1,6.9-6.4,6.9c-2,0-3.6-0.6-4.7-1.7c-1.1-1.2-1.6-2.8-1.6-5v-0.7h3.9v1c0,1.8,0.7,2.6,2.2,2.6c0.8,0,1.4-0.2,1.8-0.7
		c0.4-0.5,0.6-1.3,0.6-2.6v-4.9c-0.7,1.6-2.1,2.4-3.9,2.4c-1.5,0-2.7-0.5-3.5-1.6C673.2,581.9,672.8,580.4,672.8,578.4z M677,578.1
		c0,1.8,0.7,2.6,2.2,2.6c1.5,0,2.2-0.9,2.2-2.6v-4.8c0-1.7-0.7-2.6-2.2-2.6c-1.4,0-2.2,0.9-2.2,2.6V578.1z"/>
	<path class="st1" d="M688.3,593.8V590h4.2v3.9H688.3z"/>
	<path class="st1" d="M695,587.4v-13.9c0-2.1,0.6-3.8,1.7-5c1.1-1.2,2.7-1.8,4.7-1.8c2.1,0,3.6,0.6,4.7,1.8c1.1,1.2,1.6,2.8,1.6,5
		v13.9c0,2.1-0.5,3.8-1.6,5c-1.1,1.2-2.7,1.8-4.7,1.8c-2.1,0-3.6-0.6-4.7-1.8C695.6,591.2,695,589.6,695,587.4z M699.2,587.7
		c0,1.8,0.7,2.6,2.2,2.6c1.4,0,2.2-0.9,2.2-2.6v-14.4c0-1.8-0.7-2.6-2.2-2.6c-1.5,0-2.2,0.9-2.2,2.6V587.7z"/>
</g>
<g>
	<path class="st1" d="M624.3,488.1v-8.7l17.4-41.3h10.5v41.3h4.4v8.7h-4.4v11.1h-9.6v-11.1H624.3z M632.9,479.3h9.7v-23L632.9,479.3
		z"/>
	<path class="st1" d="M660.1,484.5v-31.8c0-4.9,1.3-8.7,3.8-11.3c2.5-2.7,6.1-4,10.8-4c4.7,0,8.3,1.3,10.8,4
		c2.5,2.7,3.8,6.4,3.8,11.3v31.8c0,4.9-1.3,8.7-3.8,11.3c-2.5,2.7-6.1,4-10.8,4c-4.7,0-8.3-1.3-10.8-4
		C661.4,493.2,660.1,489.4,660.1,484.5z M669.7,485.1c0,4,1.7,6,5,6c3.3,0,5-2,5-6v-33c0-4-1.7-6-5-6c-3.3,0-5,2-5,6V485.1z"/>
	<path class="st1" d="M695.4,499.1v-8.8h9.6v8.8H695.4z"/>
	<path class="st1" d="M711.2,484.5v-5.1h9.6v5.7c0,4,1.6,6,4.9,6c3.3,0,5-2,5-6v-13.4c0-4-1.7-6-5-6c-3.3,0-4.9,2-4.9,6v1.8h-9.6
		l1.8-35.4h25.7v8.7h-16.7l-0.8,14.6c1.8-2.9,4.6-4.4,8.4-4.4c3.5,0,6.2,1.2,7.9,3.6c1.8,2.4,2.7,5.8,2.7,10.4v13.6
		c0,4.9-1.2,8.7-3.6,11.3c-2.4,2.7-6,4-10.7,4s-8.3-1.3-10.9-4C712.5,493.2,711.2,489.4,711.2,484.5z"/>
</g>
<ellipse transform="matrix(0.3827 -0.9239 0.9239 0.3827 82.6362 857.2171)" class="st2" cx="682.8" cy="366.8" rx="53.5" ry="53.5"/>
<g>
	<path class="st1" d="M664.1,356.3v-5.1c1.1,0,2-0.1,2.9-0.3c0.8-0.2,1.5-0.5,2-0.8c0.5-0.3,1-0.8,1.4-1.3c0.4-0.6,0.7-1.1,0.9-1.5
		c0.2-0.5,0.5-1.1,0.7-1.8h4.9v46.2h-7.3v-35.3H664.1z"/>
	<path class="st1" d="M685.8,391.5v-46.2h7.3v20.2l9.5-20.2h7.3l-10.1,20.6l10.1,25.6h-7.4l-7.1-18.4l-2.3,4.2v14.2H685.8z"/>
</g>
<g>
	<path class="st1" d="M287.5,823v-3.8H300v3.7l-6.2,23h-4.2l6.1-22.9H287.5z"/>
	<path class="st1" d="M302.8,845.9V842h4.2v3.9H302.8z"/>
	<path class="st1" d="M309.6,839.5v-13.7c0-4.6,2.1-6.9,6.4-6.9c2,0,3.6,0.6,4.6,1.7c1.1,1.2,1.6,2.8,1.6,5v0.7h-3.9v-0.9
		c0-1.8-0.7-2.6-2.2-2.6c-0.8,0-1.4,0.2-1.8,0.7c-0.4,0.5-0.6,1.3-0.6,2.6v4.9c0.7-1.6,2-2.4,3.9-2.4c1.5,0,2.7,0.5,3.5,1.6
		c0.8,1,1.2,2.6,1.2,4.5v4.9c0,2.1-0.5,3.8-1.6,5c-1.1,1.2-2.7,1.8-4.7,1.8c-2,0-3.6-0.6-4.7-1.8
		C310.2,843.3,309.6,841.6,309.6,839.5z M313.8,839.8c0,1.7,0.7,2.6,2.2,2.6c1.4,0,2.2-0.9,2.2-2.6v-4.8c0-1.7-0.7-2.6-2.2-2.6
		c-1.5,0-2.2,0.9-2.2,2.6V839.8z"/>
	<path class="st1" d="M331.2,840.1v-15c0-2.1,0.5-3.6,1.4-4.5c0.9-0.9,2.4-1.3,4.5-1.3h1.3v3.6h-1c-0.7,0-1.2,0.2-1.5,0.5
		c-0.3,0.3-0.4,0.9-0.4,1.9v14.7c0,0.9,0.2,1.5,0.4,1.9c0.3,0.3,0.8,0.5,1.5,0.5h1v3.6h-1.3c-2.1,0-3.6-0.4-4.5-1.3
		C331.6,843.7,331.2,842.2,331.2,840.1z"/>
	<path class="st1" d="M340.3,839.5v-2.2h4.2v2.5c0,1.8,0.7,2.6,2.2,2.6c0.7,0,1.3-0.2,1.6-0.7c0.4-0.4,0.5-1.2,0.5-2.3v-2.1
		c0-1.2-0.2-2.1-0.6-2.6c-0.4-0.5-1.1-0.8-2.1-0.8h-1.4v-3.8h1.6c0.8,0,1.5-0.2,1.9-0.6c0.4-0.4,0.6-1.2,0.6-2.2v-1.5
		c0-1.1-0.2-1.9-0.5-2.4c-0.4-0.4-0.9-0.7-1.6-0.7c-1.4,0-2.2,0.9-2.2,2.6v1.7h-4.2v-1.5c0-2.1,0.6-3.8,1.7-5
		c1.1-1.2,2.7-1.7,4.8-1.7c2,0,3.6,0.6,4.7,1.7c1.1,1.2,1.6,2.8,1.6,5v0.7c0,2.9-1,4.7-2.9,5.5c1.9,0.8,2.9,2.7,2.9,5.6v2.1
		c0,2.2-0.5,3.8-1.6,5c-1.1,1.2-2.6,1.7-4.7,1.7c-2,0-3.6-0.6-4.8-1.7C340.8,843.3,340.3,841.6,340.3,839.5z"/>
	<path class="st1" d="M355.6,845.9V842h4.2v3.9H355.6z"/>
	<path class="st1" d="M362.2,839.5v-2.1c0-2.7,0.9-4.6,2.6-5.6c-1.7-0.9-2.6-2.7-2.6-5.4v-0.9c0-2.1,0.6-3.8,1.7-5
		c1.1-1.2,2.8-1.8,4.9-1.8s3.7,0.6,4.9,1.8c1.1,1.2,1.7,2.8,1.7,5v0.9c0,2.6-0.9,4.4-2.6,5.4c1.7,1,2.6,2.8,2.6,5.6v2.1
		c0,2.1-0.6,3.8-1.7,5c-1.1,1.2-2.7,1.8-4.9,1.8s-3.7-0.6-4.9-1.8C362.7,843.3,362.2,841.6,362.2,839.5z M366.4,827.3
		c0,1.9,0.8,2.8,2.4,2.8c1.6,0,2.4-0.9,2.4-2.8v-1.5c0-1.1-0.2-1.9-0.6-2.4c-0.4-0.5-1-0.7-1.7-0.7s-1.3,0.2-1.7,0.7
		c-0.4,0.5-0.6,1.2-0.6,2.4V827.3z M366.4,839.4c0,1.1,0.2,1.9,0.6,2.3s1,0.7,1.7,0.7c0.7,0,1.3-0.2,1.7-0.7
		c0.4-0.4,0.6-1.2,0.6-2.3v-2.5c0-2-0.8-3-2.4-3c-1.6,0-2.4,1-2.4,3V839.4z"/>
	<path class="st1" d="M376.9,845.9v-3.6h1c0.7,0,1.2-0.2,1.5-0.5c0.3-0.3,0.5-1,0.5-1.9v-14.7c0-0.9-0.2-1.5-0.5-1.9
		c-0.3-0.3-0.8-0.5-1.5-0.5h-1v-3.6h1.3c2.1,0,3.6,0.4,4.5,1.3c0.9,0.9,1.4,2.4,1.4,4.5v15c0,2.1-0.5,3.6-1.4,4.5
		c-0.9,0.9-2.4,1.3-4.5,1.3H376.9z"/>
</g>
<rect x="497.8" y="824.3" class="st1" width="16.9" height="80.7"/>
<rect x="497.8" y="824.3" class="st2" width="16.9" height="80.7"/>
</svg>
