<svg xmlns="http://www.w3.org/2000/svg" xmlns:xlink="http://www.w3.org/1999/xlink" xml:space="preserve" id="Слой_1" x="0" y="0" style="enable-background:new 0 0 256 242.2" version="1.1" viewBox="0 0 256 242.2"><style>.st1{fill:#dfeab4}.st2{fill:none;stroke:#39373a;stroke-width:.6}.st3{fill:#39373a}.st13,.st14{fill:none;stroke:#39373a;stroke-width:.699}.st14{stroke-width:.258}.st17{fill:#39373a}.st17,.st19{clip-path:url(#SVGID_20_)}.st19,.st20{fill:none;stroke:#39373a;stroke-width:.276}.st21{fill:#39373a}.st21,.st22,.st23,.st25{clip-path:url(#SVGID_22_)}.st22{stroke-width:.276}.st22,.st23,.st25{fill:none;stroke:#39373a}.st23{stroke-width:.217}.st25{stroke-width:.554}.st28{clip-path:url(#SVGID_24_);fill:#39373a}</style><switch><g><path d="M0 0h256v242.2H0z" style="fill:#fff"/><path d="M27.2 77.7h201.7v119.1H27.2z" class="st1"/><path d="M128.7 98.5h100.2v118.8H128.7z" class="st1"/><path d="M130.1 19.9h89.6v2.9h-89.6zm-3.8 0v2.9L25.5 37.6v-2.9z" class="st2"/><path d="M216.9 18.9h17.7v46.9h-17.7z" class="st3"/><defs><path id="SVGID_1_" d="M21 18.6h214v204.9H21z"/></defs><clipPath id="SVGID_2_"><use xlink:href="#SVGID_1_" style="overflow:visible"/></clipPath><path d="M216.9 18.9h17.7v46.9h-17.7z" style="clip-path:url(#SVGID_2_);fill:none;stroke:#39373a;stroke-width:.6"/><path d="M229.3 18.9h5.4v204.3h-5.4z" class="st3"/><defs><path id="SVGID_3_" d="M21 18.6h214v204.9H21z"/></defs><clipPath id="SVGID_4_"><use xlink:href="#SVGID_3_" style="overflow:visible"/></clipPath><path d="M229.3 18.9h5.4v204.3h-5.4z" style="clip-path:url(#SVGID_4_);fill:none;stroke:#39373a;stroke-width:.6"/><path d="M124.1 65.4h32v2.9h-32z" class="st3"/><path d="M124.1 65.4h32v2.9h-32z" class="st2"/><path d="M125.1 67.8h28.5v9.6h-28.5z" class="st3"/><path d="M125.1 67.8h28.5v9.6h-28.5z" class="st2"/><path d="M206 65.4h26.3v2.9H206z" class="st3"/><path d="M206 65.4h26.3v2.9H206z" class="st2"/><path d="M208.6 67.8h24.3v9.6h-24.3z" class="st3"/><path d="M208.6 67.8h24.3v9.6h-24.3zm-62-2.4h42.6v2.9h-42.6zm0 3h40.1v9.1h-40.1z" class="st2"/><defs><path id="SVGID_5_" d="M21 18.6h214v204.9H21z"/></defs><clipPath id="SVGID_6_"><use xlink:href="#SVGID_5_" style="overflow:visible"/></clipPath><path d="M186.9 68.6s1 4.2 2.1 7.1c1.1 2.9 2.4 4.5 2.4 4.5l19-10.9-.6-.9-19.1 10.7" style="clip-path:url(#SVGID_6_);fill:none;stroke:#39373a;stroke-width:.52"/><path d="M25.3 65.4h26.3v2.9H25.3z" class="st3"/><path d="M25.3 65.4h26.3v2.9H25.3z" class="st2"/><path d="M25.3 67.8h23.8v9.6H25.3z" class="st3"/><path d="M25.3 67.8h23.8v9.6H25.3z" class="st2"/><path d="M101.5 65.4h26.3v2.9h-26.3z" class="st3"/><path d="M101.5 65.4h26.3v2.9h-26.3z" class="st2"/><path d="M104.1 67.8h24.3v9.6h-24.3z" class="st3"/><path d="M104.1 67.8h24.3v9.6h-24.3zm-62-2.4h42.6v2.9H42.1zm0 3h40.1v9.1H42.1z" class="st2"/><defs><path id="SVGID_7_" d="M21 18.6h214v204.9H21z"/></defs><clipPath id="SVGID_8_"><use xlink:href="#SVGID_7_" style="overflow:visible"/></clipPath><path d="M82.4 68.6s1 4.2 2.1 7.1c1.1 2.9 2.4 4.5 2.4 4.5l19-10.9-.6-.9-19.1 10.7" style="clip-path:url(#SVGID_8_);fill:none;stroke:#39373a;stroke-width:.52"/><path d="M125.1 18.9h5.6v27.2h-5.6z" class="st3"/><defs><path id="SVGID_9_" d="M21 18.6h214v204.9H21z"/></defs><clipPath id="SVGID_10_"><use xlink:href="#SVGID_9_" style="overflow:visible"/></clipPath><path d="M125.1 18.9h5.6v27.2h-5.6z" style="clip-path:url(#SVGID_10_);fill:none;stroke:#39373a;stroke-width:.6"/><path d="M125.1 70h5.6v89.7h-5.6z" class="st3"/><path d="M125.1 70h5.6v89.7h-5.6z" class="st2"/><path d="M125.1 182.8h5.6v40.5h-5.6z" class="st3"/><defs><path id="SVGID_11_" d="M21 18.6h214v204.9H21z"/></defs><clipPath id="SVGID_12_"><use xlink:href="#SVGID_11_" style="overflow:visible"/></clipPath><path d="M125.1 182.8h5.6v40.5h-5.6z" style="clip-path:url(#SVGID_12_);fill:none;stroke:#39373a;stroke-width:.6"/><path d="M23.8 197.1h103.9v5.6H23.8z" class="st3"/><path d="M23.8 197.1h103.9v5.6H23.8z" class="st2"/><path d="M158.4 217.6h73.2v5.6h-73.2z" class="st3"/><defs><path id="SVGID_13_" d="M21 18.6h214v204.9H21z"/></defs><clipPath id="SVGID_14_"><use xlink:href="#SVGID_13_" style="overflow:visible"/></clipPath><path d="M158.4 217.6h73.2v5.6h-73.2z" style="clip-path:url(#SVGID_14_);fill:none;stroke:#39373a;stroke-width:.6"/><path d="M154.7 153.9h76.9v2.2h-76.9z" class="st3"/><path d="M154.7 153.9h76.9v2.2h-76.9z" class="st2"/><path d="M176 174.8h2.2v44.8H176z" class="st3"/><path d="M176 174.8h2.2v44.8H176z" class="st2"/><path d="M226.2 144.6h5.5v9.2h-5.5z" class="st3"/><path d="M226.2 144.6h5.5v9.2h-5.5z" class="st2"/><path d="M21.3 32.8h5.6v169.9h-5.6z" class="st3"/><defs><path id="SVGID_15_" d="M21 18.6h214v204.9H21z"/></defs><clipPath id="SVGID_16_"><use xlink:href="#SVGID_15_" style="overflow:visible"/></clipPath><path d="M21.3 32.8h5.6v169.9h-5.6z" style="clip-path:url(#SVGID_16_);fill:none;stroke:#39373a;stroke-width:.6"/><path d="M158.8 221.1s0-3.7-1.6-8.3c-1.4-3.9-4.1-7.5-4.1-7.5l-26.8 15.3.6.9 26.9-15.3" style="clip-path:url(#SVGID_16_);fill:none;stroke:#39373a;stroke-width:.52"/><path d="M173.8 144.7h25.5v8.6h-25.5zm.1 1.3h25.5" class="st13"/><path d="m175.1 146 .6 6.2h16.1l.7-6.2h1.1l.7 6.3h3.6l.8-6.3m1.3-1.3h25.5v8.6H200zm.1 1.3h25.6" class="st13"/><path d="m201.3 146 .6 6.2H218l.7-6.2h1.1l.7 6.3h3.6l.8-6.3" class="st13"/><path d="M228.4 118.5h-16.7v16.7h16.7v-16.7zm.4 17.1h-17.5v-17.5h17.5v17.5z" class="st3"/><path d="M228.4 118.5h-16.7v16.7h16.7v-16.7zm.4 17.1h-17.5v-17.5h17.5v17.5z" class="st14"/><defs><path id="SVGID_17_" d="M21 18.6h214v204.9H21z"/></defs><clipPath id="SVGID_18_"><use xlink:href="#SVGID_17_" style="overflow:visible"/></clipPath><path d="M213.2 132.7c0 .4.3.7.8.7h8.8c.4 0 .8-.3.8-.7V121c0-.4-.3-.7-.8-.7H214c-.4 0-.8.3-.8.7v11.7zm10.7-11.7v11.7c0 .6-.5 1.1-1.1 1.1H214c-.6 0-1.1-.5-1.1-1.1V121c0-.6.5-1.1 1.1-1.1h8.8c.6 0 1.1.5 1.1 1.1" style="clip-path:url(#SVGID_18_);fill:#39373a"/><path d="M213.2 132.7c0 .4.3.7.8.7h8.8c.4 0 .8-.3.8-.7V121c0-.4-.3-.7-.8-.7H214c-.4 0-.8.3-.8.7v11.7zm10.7-11.7v11.7c0 .6-.5 1.1-1.1 1.1H214c-.6 0-1.1-.5-1.1-1.1V121c0-.6.5-1.1 1.1-1.1h8.8c.6 0 1.1.5 1.1 1.1z" style="clip-path:url(#SVGID_18_);fill:none;stroke:#39373a;stroke-width:.258"/><path d="M222.2 121.5h-7.7v10.6h7.7v-10.6zm.4 11h-8.4v-11.4h8.4v11.4z" class="st3"/><path d="M222.2 121.5h-7.7v10.6h7.7v-10.6zm.4 11h-8.4v-11.4h8.4v11.4z" class="st14"/><defs><path id="SVGID_19_" d="M21 18.6h214v204.9H21z"/></defs><clipPath id="SVGID_20_"><use xlink:href="#SVGID_19_" style="overflow:visible"/></clipPath><path d="M216.9 126.9c0 .5.4 1 1 1 .5 0 1-.4 1-1 0-.5-.4-1-1-1s-1 .4-1 1m2.3 0c0 .7-.6 1.3-1.3 1.3-.7 0-1.3-.6-1.3-1.3 0-.7.6-1.3 1.3-1.3.7-.1 1.3.5 1.3 1.3" class="st17"/><path d="M216.9 126.9c0 .5.4 1 1 1 .5 0 1-.4 1-1 0-.5-.4-1-1-1s-1 .4-1 1zm2.3 0c0 .7-.6 1.3-1.3 1.3-.7 0-1.3-.6-1.3-1.3 0-.7.6-1.3 1.3-1.3.7-.1 1.3.5 1.3 1.3z" style="clip-path:url(#SVGID_20_);fill:none;stroke:#39373a;stroke-width:.258"/><path d="M206.5 166.9c0-3.1 2.5-5.7 5.7-5.7h8.2c.5 0 1 .4 1 1v9.4c0 .5-.4 1-1 1h-8.2c-3.2 0-5.7-2.6-5.7-5.7m15.2 4.7v-9.4c0-.8-.6-1.4-1.4-1.4h-8.2c-3.3 0-6 2.7-6 6s2.7 6 6 6h8.2c.8.2 1.4-.4 1.4-1.2" class="st17"/><path d="M206.5 166.9c0-3.1 2.5-5.7 5.7-5.7h8.2c.5 0 1 .4 1 1v9.4c0 .5-.4 1-1 1h-8.2c-3.2 0-5.7-2.6-5.7-5.7zm15.2 4.7v-9.4c0-.8-.6-1.4-1.4-1.4h-8.2c-3.3 0-6 2.7-6 6s2.7 6 6 6h8.2c.8.2 1.4-.4 1.4-1.2z" class="st19"/><path d="M218.6 162.9v8.1c0 .1 0 .1-.1.1h-6.2c-2.3 0-4.2-1.9-4.2-4.2 0-2.3 1.9-4.2 4.2-4.2l6.3.2c-.1-.1 0-.1 0 0z" class="st19"/><path d="M218.4 163v7.9h-6.1c-2.2 0-4-1.8-4-4s1.8-4 4-4h6.1zm.4 8v-8.1c0-.2-.1-.3-.3-.3h-6.2c-2.4 0-4.3 1.9-4.3 4.3s1.9 4.3 4.3 4.3h6.2c.2.1.3-.1.3-.2" class="st17"/><path d="M218.4 163v7.9h-6.1c-2.2 0-4-1.8-4-4s1.8-4 4-4h6.1zm.4 8v-8.1c0-.2-.1-.3-.3-.3h-6.2c-2.4 0-4.3 1.9-4.3 4.3s1.9 4.3 4.3 4.3h6.2c.2.1.3-.1.3-.2z" class="st19"/><path d="M212.3 166.9c0-.6.5-1.1 1.1-1.1.6 0 1.1.5 1.1 1.1 0 .6-.5 1.1-1.1 1.1-.6 0-1.1-.5-1.1-1.1m2.5 0c0-.8-.7-1.5-1.5-1.5s-1.5.7-1.5 1.5.7 1.5 1.5 1.5c.9 0 1.5-.7 1.5-1.5" class="st17"/><path d="M212.3 166.9c0-.6.5-1.1 1.1-1.1.6 0 1.1.5 1.1 1.1 0 .6-.5 1.1-1.1 1.1-.6 0-1.1-.5-1.1-1.1zm2.5 0c0-.8-.7-1.5-1.5-1.5s-1.5.7-1.5 1.5.7 1.5 1.5 1.5c.9 0 1.5-.7 1.5-1.5z" class="st19"/><path d="m217.8 163.8-.2-.3-2.6 1.9.2.3z" class="st3"/><path d="m217.8 163.8-.2-.3-2.6 1.9.2.3z" class="st20"/><path d="m214.995 168.41.24-.32 2.562 1.917-.24.32z" class="st3"/><path stroke-width=".276" d="m214.995 168.41.24-.32 2.562 1.917-.24.32z" class="st20"/><defs><path id="SVGID_21_" d="M21 18.6h214v204.9H21z"/></defs><clipPath id="SVGID_22_"><use xlink:href="#SVGID_21_" style="overflow:visible"/></clipPath><path d="M221.7 163c0-.9.7-1.6 1.6-1.6h2.1c.9 0 1.6.7 1.6 1.6v7.8c0 .9-.7 1.6-1.6 1.6h-2.1c-.9 0-1.6-.7-1.6-1.6V163zm5.7 7.8V163c0-1.1-.9-2-2-2h-2.1c-1.1 0-2 .9-2 2v7.8c0 1.1.9 2 2 2h2.1c1.1 0 2-.9 2-2" class="st21"/><path d="M221.7 163c0-.9.7-1.6 1.6-1.6h2.1c.9 0 1.6.7 1.6 1.6v7.8c0 .9-.7 1.6-1.6 1.6h-2.1c-.9 0-1.6-.7-1.6-1.6V163zm5.7 7.8V163c0-1.1-.9-2-2-2h-2.1c-1.1 0-2 .9-2 2v7.8c0 1.1.9 2 2 2h2.1c1.1 0 2-.9 2-2z" class="st22"/><path d="M223.8 166.9c0-.3.3-.6.6-.6s.6.3.6.6-.3.6-.6.6c-.4 0-.6-.2-.6-.6m1.6 0c0-.5-.4-1-1-1-.5 0-1 .4-1 1 0 .5.4 1 1 1 .5 0 1-.4 1-1" class="st21"/><path d="M223.8 166.9c0-.3.3-.6.6-.6s.6.3.6.6-.3.6-.6.6c-.4 0-.6-.2-.6-.6zm1.6 0c0-.5-.4-1-1-1-.5 0-1 .4-1 1 0 .5.4 1 1 1 .5 0 1-.4 1-1z" class="st22"/><path d="M217.2 188.7c0 2.8 2.3 5.2 5.2 5.2h5.5c.4 0 .8-.4.8-.8v-11.7c0-.4-.4-.8-.8-.8h-5.5c-2.8 0-5.2 2.3-5.2 5.2v2.9zm11.7-7.3v11.7c0 .6-.5 1.1-1.1 1.1h-5.5c-3 0-5.5-2.4-5.5-5.5v-2.9c0-3 2.4-5.5 5.5-5.5h5.5c.6 0 1.1.5 1.1 1.1" class="st21"/><path d="M217.2 188.7c0 2.8 2.3 5.2 5.2 5.2h5.5c.4 0 .8-.4.8-.8v-11.7c0-.4-.4-.8-.8-.8h-5.5c-2.8 0-5.2 2.3-5.2 5.2v2.9zm11.7-7.3v11.7c0 .6-.5 1.1-1.1 1.1h-5.5c-3 0-5.5-2.4-5.5-5.5v-2.9c0-3 2.4-5.5 5.5-5.5h5.5c.6 0 1.1.5 1.1 1.1z" class="st23"/><path d="M218.4 188.7c0 2.1 1.7 3.9 3.9 3.9h3.2c.4 0 .7-.3.7-.7v-9.3c0-.4-.3-.7-.7-.7h-3.2c-2.1 0-3.9 1.7-3.9 3.9v2.9zm8.1-6.1v9.3c0 .5-.4 1-1 1h-3.2c-2.3 0-4.2-1.9-4.2-4.2v-2.9c0-2.3 1.9-4.2 4.2-4.2h3.2c.6 0 1 .4 1 1" class="st21"/><path d="M218.4 188.7c0 2.1 1.7 3.9 3.9 3.9h3.2c.4 0 .7-.3.7-.7v-9.3c0-.4-.3-.7-.7-.7h-3.2c-2.1 0-3.9 1.7-3.9 3.9v2.9zm8.1-6.1v9.3c0 .5-.4 1-1 1h-3.2c-2.3 0-4.2-1.9-4.2-4.2v-2.9c0-2.3 1.9-4.2 4.2-4.2h3.2c.6 0 1 .4 1 1z" class="st23"/><path d="M221.2 187.2c0 .4.3.6.6.6.4 0 .6-.3.6-.6 0-.4-.3-.6-.6-.6-.4 0-.6.3-.6.6m1.5 0c0 .5-.4.9-.9.9s-.9-.4-.9-.9.4-.9.9-.9.9.4.9.9" class="st21"/><path d="M221.2 187.2c0 .4.3.6.6.6.4 0 .6-.3.6-.6 0-.4-.3-.6-.6-.6-.4 0-.6.3-.6.6zm1.5 0c0 .5-.4.9-.9.9s-.9-.4-.9-.9.4-.9.9-.9.9.4.9.9z" class="st23"/><path d="M154.7 154.3s0-2.8-1.2-6.2c-1-2.9-3-5.6-3-5.6L128.6 155l.4.7 21.9-12.5M126 159.7s-2.8 0-6.2 1.2c-2.9 1-5.6 3-5.6 3l12.5 21.9.7-.4-12.5-21.9m62.7 11.5s-2.8 0-6.2-1.2c-2.9-1-5.6-3-5.6-3l9.7-16.9.7.4-9.7 17" style="fill:none;stroke:#39373a;stroke-width:.52;clip-path:url(#SVGID_22_)"/><path d="M219.3 206.7c0-.4-.4-.8-.8-.8s-.8.4-.8.8.4.8.8.8.8-.4.8-.8z" class="st25"/><path d="M180.5 210.3c0 2.9 2.3 5.2 5.2 5.2h35.9c2.9 0 5.2-2.3 5.2-5.2V203c0-2.9-2.3-5.2-5.2-5.2h-35.9c-2.9 0-5.2 2.3-5.2 5.2v7.3z" class="st25"/><path d="M183.7 208.7c0 2.9 2.3 5.2 5.2 5.2h29.5c2.9 0 5.2-2.3 5.2-5.2v-3.9c0-2.9-2.3-5.2-5.2-5.2H189c-2.9 0-5.2 2.3-5.2 5.2v3.9z" class="st25"/><path d="M187.6 209.7c0 1.4 1.2 2.6 2.6 2.6h29c1.4 0 2.6-1.2 2.6-2.6v-6c0-1.4-1.2-2.6-2.6-2.6h-29c-1.4 0-2.6 1.2-2.6 2.6v6z" class="st25"/><path d="M228.7 196.4h-50V217h50z" style="fill:none;stroke:#39373a;stroke-width:.554"/><path d="M179.7 177.9h11.9v16.8h-11.9zm11.7-.1-11.7 16.8m-.1-16.8 11.7 16.8" style="stroke-width:.52;fill:none;stroke:#39373a"/><defs><path id="SVGID_23_" d="M21 18.6h214v204.9H21z"/></defs><clipPath id="SVGID_24_"><use xlink:href="#SVGID_23_" style="overflow:visible"/></clipPath><path d="M83.3 180.1V179h-2.4v-.2c0-.2 0-.4.1-.6.1-.2.2-.4.4-.6.1-.2.3-.4.5-.6.2-.2.4-.4.5-.6.2-.2.3-.5.5-.7.2-.2.3-.5.4-.9.1-.3.1-.7.1-1 0-.7-.2-1.2-.5-1.5-.3-.4-.8-.5-1.4-.5s-1.1.2-1.4.5c-.3.4-.5.9-.5 1.5v.8h1.2v-.9c0-.5.2-.8.7-.8.2 0 .4.1.5.2.1.1.2.4.2.7 0 .3 0 .6-.1.9-.1.3-.2.5-.4.7-.2.2-.3.4-.5.6-.2.2-.4.4-.5.6-.2.2-.3.4-.5.6-.2.2-.3.5-.4.8-.1.3-.1.6-.1.9v1h3.6zm-4.6-1.2h-1.3v1.2h1.3v-1.2zm-3.7-4.5v3.1h-1.3l1.3-3.1zm0 4.2v1.5h1.3v-1.5h.6v-1.2h-.6v-5.5h-1.4l-2.3 5.5v1.2H75zm-5.1-4.7v6.3h1.3V172h-.9c-.1.1-.1.2-.1.3 0 .1-.1.2-.2.3l-.2.2c-.1.1-.2.1-.4.1-.1 0-.3.1-.5.1v.9h1zm21.7-14.6.6 4.1H91l.6-4.1zm-1 6.8.2-1.5h1.6l.2 1.5h1.3l-1.3-8.2h-2l-1.3 8.2h1.3zm-4.2-7.1v7h1.3v-7h1.4v-1.2h-4v1.2h1.3zm-3.8.3.6 4.1H82l.6-4.1zm-1 6.8.2-1.5h1.6l.2 1.5h1.3l-1.3-8.2h-2l-1.3 8.2h1.3zm-4.6 0v-3.5h1.5v3.5h1.3v-8.2h-1.3v3.5H77v-3.5h-1.3v8.2H77zm-6.6 0v-5.8l1 5.8h1.2l.9-5.9v5.9h1.3v-8.2h-1.9l-.9 5.8-1-5.8h-1.8v8.2h1.2zm-4.5-6.4c0-.5.2-.8.7-.8.4 0 .7.3.7.8v4.4c0 .5-.2.8-.7.8-.4 0-.7-.3-.7-.8v-4.4zm-.8 5.9c.3.4.8.5 1.5.5.6 0 1.1-.2 1.5-.5.3-.4.5-.9.5-1.5v-4.3c0-.7-.2-1.2-.5-1.5-.3-.4-.8-.5-1.5-.5-.6 0-1.1.2-1.5.5-.3.4-.5.9-.5 1.5v4.3c0 .6.1 1.2.5 1.5m-4 .5v-2.5l.4-.8 1.3 3.3h1.3l-1.8-4.6 1.8-3.7h-1.3l-1.7 3.6v-3.6h-1.3v8.2h1.3zm119.5-40.7c.3.4.8.5 1.5.5.6 0 1.1-.2 1.4-.5.3-.4.5-.9.5-1.5v-1.8c0-.6-.1-1.1-.4-1.4-.2-.3-.6-.5-1.1-.5-.5 0-.9.2-1.1.6l.1-2h2.2v-1.2h-3.4l-.2 4.8h1.3v-.2c0-.5.2-.8.7-.8.4 0 .7.3.7.8v1.8c0 .5-.2.8-.7.8-.4 0-.7-.3-.7-.8v-.8h-1.3v.7c0 .7.1 1.2.5 1.5m-1.4-.7h-1.3v1.2h1.3v-1.2zm-4.8-5c0-.3.1-.6.2-.7.1-.1.3-.2.5-.2s.4.1.5.2c.1.1.2.4.2.7v.5c0 .6-.2.9-.7.9-.5 0-.7-.3-.7-.9v-.5zm0 3.4c0-.6.2-.9.7-.9.5 0 .7.3.7.9v.8c0 .3-.1.6-.2.7-.1.1-.3.2-.5.2s-.4-.1-.5-.2c-.1-.1-.2-.4-.2-.7v-.8zm-.8 2.3c.3.4.8.5 1.5.5s1.1-.2 1.5-.5c.3-.4.5-.9.5-1.5v-.6c0-.8-.3-1.4-.8-1.7.5-.3.8-.8.8-1.6v-.3c0-.7-.2-1.2-.5-1.5-.3-.4-.8-.5-1.5-.5-.6 0-1.1.2-1.5.5-.3.4-.5.9-.5 1.5v.3c0 .8.3 1.4.8 1.6-.5.3-.8.9-.8 1.7v.6c0 .7.2 1.2.5 1.5m14.1-19.8c0-.3.1-.5.2-.6.1-.1.3-.2.5-.2h.6v2.5h-.5c-.3 0-.4-.1-.6-.2-.1-.1-.2-.4-.2-.7v-.8zm-.1 6.2c0-.1.1-.2.1-.2v-2.1c0-.4.1-.6.2-.8.1-.2.3-.2.6-.2h.4v3.3h1.3v-8.2h-1.9c-.7 0-1.1.2-1.4.5-.3.3-.5.8-.5 1.4v.6c0 .8.3 1.4.8 1.7-.3.1-.5.3-.7.6-.1.3-.2.7-.2 1.1v1.3c0 .4 0 .8-.1 1h1.4zm-4.8 0v-3.5h1.5v3.5h1.3v-8.2h-1.3v3.5h-1.5v-3.5h-1.3v8.2h1.3zm-5.3 0 1-3.1 1 3.1h1.3l-1.4-4.2 1.3-4h-1.1l-1 3-1-3h-1.3l1.4 4-1.4 4.2h1.2zm-4.4-1.9c-.1.4-.2.5-.4.6-.2.1-.4.1-.8.1v1.2h.9c.3 0 .5-.1.7-.2.2-.1.3-.2.5-.4l.3-.6c.1-.2.1-.5.2-.8l1.4-6.1h-1.3l-.6 2.8-.3 1.9-.4-1.9-.7-2.8h-1.3l1.8 6.2zm-5 1.9v-2.5l.4-.8 1.3 3.3h1.3l-1.8-4.6 1.8-3.7h-1.3l-1.7 3.6v-3.6h-1.3v8.2h1.3zm-12.6 75.7v1.9h-.8l.8-1.9zm0 2.5v.9h.8v-.9h.4v-.7h-.4V186h-.8l-1.4 3.3v.7h1.4zm-1.9.2h-.8v.7h.8v-.7zm-3.3.5c.2.2.5.3.9.3s.7-.1.9-.3c.2-.2.3-.5.3-.9v-.4c0-.5-.2-.9-.5-1 .4-.1.5-.5.5-1v-.1c0-.4-.1-.7-.3-.9-.2-.2-.5-.3-.9-.3s-.7.1-.9.3c-.2.2-.3.5-.3.9v.3h.8v-.3c0-.3.1-.5.4-.5.1 0 .2 0 .3.1.1.1.1.2.1.4v.3c0 .2 0 .3-.1.4-.1.1-.2.1-.3.1h-.3v.7h.3c.2 0 .3 0 .4.1.1.1.1.3.1.5v.4c0 .2 0 .3-.1.4-.1.1-.2.1-.3.1-.3 0-.4-.2-.4-.5v-.5h-.9v.4c0 .4.1.8.3 1m13.3-11.9c0-.2 0-.3.1-.4.1-.1.2-.1.3-.1h.4v1.5h-.3c-.2 0-.3 0-.3-.1-.1-.1-.1-.2-.1-.4v-.5zm-.1 3.7v-1.4c0-.2 0-.4.1-.5.1-.1.2-.1.4-.1h.3v2h.8v-4.9H164c-.4 0-.7.1-.9.3-.2.2-.3.5-.3.9v.4c0 .5.2.8.5 1-.2.1-.3.2-.4.4-.1.2-.1.4-.1.7v.8c0 .3 0 .5-.1.6h.8zm-2.3-4.1.4 2.5h-.7l.3-2.5zm-.6 4.1.1-.9h.9l.1.9h.8l-.8-4.9h-1.2l-.8 4.9h.9zm-4.3 0 .7-2.2.2.4v1.8h.8v-1.8l.2-.4.7 2.2h.8l-.9-2.9.9-2h-.8l-.9 2v-2h-.8v2l-.9-2h-.8l1 2-1 2.9h.8zm-2.6-3.8c0-.3.1-.5.4-.5.3 0 .4.2.4.5v2.7c0 .3-.1.5-.4.5-.3 0-.4-.2-.4-.5v-2.7zm-.5 3.5c.2.2.5.3.9.3s.7-.1.9-.3c.2-.2.3-.5.3-.9v-2.6c0-.4-.1-.7-.3-.9-.2-.2-.5-.3-.9-.3s-.7.1-.9.3c-.2.2-.3.5-.3.9v2.6c0 .4.1.7.3.9m-2.6.3.6-1.8.6 1.8h.8l-.9-2.5.8-2.4h-.7l-.6 1.8-.6-1.8h-.8l.8 2.4-.9 2.5h.9zm-2.8 0 .7-2.3.3-1.2v3.5h.8v-4.9h-.9l-.6 2-.3 1.1v-3.1h-.8v4.9h.8zm-2.7-4.2h.4c.1 0 .2 0 .3.1.1.1.1.2.1.4v.7c0 .2 0 .3-.1.4-.1.1-.2.1-.3.1h-.4v-1.7zm0 4.2v-1.9h.4c.4 0 .7-.1.9-.3.2-.2.3-.5.3-.9v-.6c0-.4-.1-.7-.3-.9-.2-.2-.5-.3-.9-.3h-1.1v4.9h.7zm-3 0v-4.2h.9v4.2h.8v-4.9h-2.4v4.9h.7zm45.1-132.9c.6 0 1.1-.1 1.4-.4.3-.3.4-.7.4-1.4v-4.6c0-.7-.1-1.1-.4-1.4-.3-.3-.7-.4-1.4-.4h-.4v1.1h.3c.2 0 .4.1.5.2.1.1.1.3.1.6v4.5c0 .3 0 .5-.1.6-.1.1-.2.2-.5.2h-.3v1.1h.4zm-2.6-5.8v3.1h-1.3l1.3-3.1zm0 4.3v1.5h1.3v-1.5h.6v-1.2h-.6v-5.5h-1.4l-2.3 5.5v1.2h2.4zm-3 .3h-1.3v1.2h1.3v-1.2zm-3.8-4.6v3.1h-1.3l1.3-3.1zm0 4.3v1.5h1.3v-1.5h.6v-1.2h-.6v-5.5h-1.4l-2.3 5.5v1.2h2.4zm-4.6 1.1c.3.3.7.4 1.4.4h.4v-1.1h-.3c-.2 0-.4-.1-.5-.2s-.1-.3-.1-.6v-4.5c0-.3 0-.5.1-.6s.2-.2.5-.2h.3v-1.1h-.4c-.6 0-1.1.1-1.4.4-.3.3-.4.7-.4 1.4v4.6c0 .7.1 1.2.4 1.5m-5.8-5.8c0-.3.1-.6.2-.7.1-.1.3-.2.5-.2s.4.1.5.2c.1.1.2.4.2.7v.5c0 .6-.2.9-.7.9-.5 0-.7-.3-.7-.9v-.5zm0 3.4c0-.6.2-.9.7-.9.5 0 .7.3.7.9v.8c0 .3-.1.6-.2.7-.1.1-.3.2-.5.2s-.4-.1-.5-.2c-.1-.1-.2-.4-.2-.7v-.8zm-.8 2.3c.3.4.8.5 1.5.5.6 0 1.1-.2 1.5-.5.3-.4.5-.9.5-1.5V47c0-.8-.3-1.4-.8-1.7.5-.3.8-.8.8-1.6v-.3c0-.7-.2-1.2-.5-1.5-.3-.4-.8-.5-1.5-.5s-1.1.2-1.5.5c-.3.4-.5.9-.5 1.5v.3c0 .8.3 1.4.8 1.6-.5.3-.8.9-.8 1.7v.6c0 .7.1 1.2.5 1.5m-1.3-.7H164v1.2h1.3v-1.2zm-4.8-5c0-.3.1-.6.2-.7.1-.1.3-.2.5-.2s.4.1.5.2c.1.1.2.4.2.7v.5c0 .6-.2.9-.7.9-.5 0-.7-.3-.7-.9v-.5zm0 3.4c0-.6.2-.9.7-.9.5 0 .7.3.7.9v.8c0 .3-.1.6-.2.7-.1.1-.3.2-.5.2s-.4-.1-.5-.2c-.1-.1-.2-.4-.2-.7v-.8zm-.7 2.3c.3.4.8.5 1.5.5s1.1-.2 1.5-.5c.3-.4.5-.9.5-1.5V47c0-.8-.3-1.4-.8-1.7.5-.3.8-.8.8-1.6v-.3c0-.7-.2-1.2-.5-1.5-.3-.4-.8-.5-1.5-.5-.6 0-1.1.2-1.5.5-.3.4-.5.9-.5 1.5v.3c0 .8.3 1.4.8 1.6-.5.3-.8.9-.8 1.7v.6c0 .7.1 1.2.5 1.5M93.1 151v-2.7h-5.5v-.4c0-.4.1-.8.3-1.3.2-.4.5-.9.8-1.3.3-.4.7-.8 1.1-1.3.4-.4.8-.9 1.2-1.5.4-.5.8-1.1 1.1-1.6s.6-1.2.8-2c.2-.7.3-1.5.3-2.3 0-1.5-.4-2.7-1.1-3.5-.7-.8-1.8-1.2-3.3-1.2-1.4 0-2.5.4-3.3 1.2-.8.8-1.1 2-1.1 3.5v1.8h2.8v-2c0-1.2.5-1.8 1.5-1.8.5 0 .9.2 1.1.5.3.3.4.9.4 1.7 0 .7-.1 1.4-.3 2.1-.2.6-.5 1.2-.8 1.7-.3.5-.7 1-1.1 1.4-.4.5-.8.9-1.2 1.4-.4.5-.8.9-1.1 1.4-.3.5-.6 1.1-.8 1.7-.2.7-.3 1.4-.3 2.1v2.3h8.5zm-10.5-2.7h-2.9v2.7h2.9v-2.7zM74 137.9v7.1h-3l3-7.1zm0 9.7v3.4h2.9v-3.4h1.3v-2.7h-1.3v-12.7h-3.2l-5.4 12.7v2.7H74zM59.4 150c.8.8 1.9 1.2 3.3 1.2s2.5-.4 3.3-1.2 1.1-2 1.1-3.5V145c0-2-.7-3.3-2.1-3.9 1.4-.6 2.1-1.9 2.1-3.9v-.5c0-1.5-.4-2.7-1.1-3.5-.7-.8-1.8-1.2-3.3-1.2-1.4 0-2.6.4-3.3 1.2-.8.8-1.2 2-1.2 3.5v1h2.9v-1.2c0-1.2.5-1.8 1.5-1.8.5 0 .9.2 1.1.5.3.3.4.9.4 1.7v1c0 .7-.1 1.2-.4 1.5-.3.3-.7.5-1.3.5h-1.2v2.7h1c.7 0 1.2.2 1.5.5.3.4.5 1 .5 1.8v1.5c0 .8-.1 1.3-.4 1.6-.3.3-.6.5-1.1.5-1 0-1.5-.6-1.5-1.9V145h-2.9v1.6c-.1 1.4.3 2.6 1.1 3.4" class="st28"/><path d="M75.7 126.8c9.1 0 16.4-7.4 16.4-16.4S84.7 94 75.7 94s-16.4 7.4-16.4 16.4 7.4 16.4 16.4 16.4z" style="clip-path:url(#SVGID_24_);fill:none;stroke:#39373a;stroke-width:1.126"/><path d="M77.9 118.5v-4.4l.7-1.3 2.2 5.7H83l-3.1-7.9 3.1-6.3h-2.2l-2.9 6.2v-6.2h-2.2v14.2h2.2zm-7.2-10.9v10.8H73v-14.2h-1.5c-.1.2-.2.4-.2.6s-.2.3-.3.5c-.1.2-.3.3-.4.4-.2.1-.4.2-.6.2-.3.1-.6.1-.9.1v1.6h1.6zm136.5 78.7-1.1 4.2h.8l1.1-4.2v-.7h-2.3v.7h1.5zm-2 3.6h-.8v.7h.8v-.7zm-3.3.4c.2.2.5.3.9.3s.7-.1.9-.3c.2-.2.3-.5.3-.9v-.4c0-.5-.2-.9-.5-1 .4-.1.5-.5.5-1v-.1c0-.4-.1-.7-.3-.9-.2-.2-.5-.3-.9-.3s-.7.1-.9.3c-.2.2-.3.5-.3.9v.3h.8v-.3c0-.3.1-.5.4-.5.1 0 .2 0 .3.1.1.1.1.2.1.4v.3c0 .2 0 .3-.1.4-.1.1-.2.1-.3.1h-.3v.7h.3c.2 0 .3 0 .4.1.1.1.1.3.1.5v.4c0 .2 0 .4-.1.4-.1.1-.2.1-.3.1-.3 0-.4-.2-.4-.5v-.4h-.8v.4c-.1.4 0 .7.2.9m5.2-9.3c0 .2-.1.3-.2.4-.1.1-.3.1-.5.1v.7h.5c.2 0 .3-.1.4-.1.1-.1.2-.1.3-.3.1-.1.1-.2.2-.4 0-.1.1-.3.1-.5l.8-3.7h-.7l-.4 1.7-.2 1.1-.2-1.2-.4-1.7h-.8l1.1 3.9zm-3.1 1.1 1.9-4.9h-.7l-1.9 4.9h.7zm-2.9-.2c.2.2.5.3.9.3s.7-.1.9-.3c.2-.2.3-.5.3-.9v-.7h-.8v.7c0 .3-.1.5-.4.5-.3 0-.4-.2-.4-.5v-2.7c0-.3.1-.5.4-.5.3 0 .4.2.4.5v.5h.8v-.5c0-.4-.1-.7-.3-.9-.2-.2-.5-.3-.9-.3s-.7.1-.9.3c-.2.2-.3.5-.3.9v2.6c0 .4.1.7.3 1" class="st28"/></g></switch></svg>