<svg xmlns="http://www.w3.org/2000/svg" xmlns:xlink="http://www.w3.org/1999/xlink" xml:space="preserve" id="Слой_1" x="0" y="0" style="enable-background:new 0 0 256 261.4" version="1.1" viewBox="0 0 256 261.4"><style>.st2{fill:#39373a}.st12,.st3{fill:none;stroke:#39373a}.st3{stroke-width:.6}.st12{stroke-width:.699}.st13{fill:#39373a}.st13,.st14{clip-path:url(#SVGID_16_)}.st14,.st15{fill:none;stroke:#39373a;stroke-width:.276}.st16{fill:#39373a}.st16,.st17,.st18{clip-path:url(#SVGID_18_)}.st17{fill:none;stroke:#39373a;stroke-width:.276}.st18{stroke-width:.217}.st18,.st19,.st22{fill:none;stroke:#39373a}.st19{clip-path:url(#SVGID_18_);stroke-width:.554}.st22{stroke-width:.258}.st28{clip-path:url(#SVGID_24_);fill:#39373a}</style><switch><g><path d="M0 0h256v261.4H0z" style="fill:#fff"/><path d="M26.4 25.8h203.1v158.3H26.4z" style="fill:#b7e0e6"/><path d="M125.8 22h4.7v84.2h-4.7z" class="st2"/><path d="M125.8 22h4.7v84.2h-4.7z" class="st3"/><path d="M125.8 151.8h4.7v41.7h-4.7z" class="st2"/><path d="M125.8 151.8h4.7v41.7h-4.7z" class="st3"/><path d="M125.8 215.7h4.7v25.1h-4.7z" class="st2"/><defs><path id="SVGID_1_" d="M21.3 20.4h213.4v220.7H21.3z"/></defs><clipPath id="SVGID_2_"><use xlink:href="#SVGID_1_" style="overflow:visible"/></clipPath><path d="M125.8 215.7h4.7v25.1h-4.7z" style="clip-path:url(#SVGID_2_);fill:none;stroke:#39373a;stroke-width:.6"/><path d="M76.6 23.4h2.9v45.4h-2.9z" class="st2"/><path d="M76.6 23.4h2.9v45.4h-2.9z" class="st3"/><path d="M22.9 87.2h61.2v2.9H22.9z" class="st2"/><path d="M22.9 87.2h61.2v2.9H22.9z" class="st3"/><path d="M107.2 87.2h21.9v2.9h-21.9z" class="st2"/><path d="M107.2 87.2h21.9v2.9h-21.9z" class="st3"/><path d="M229.7 23.4h4.7V226h-4.7z" class="st2"/><defs><path id="SVGID_3_" d="M21.3 20.4h213.4v220.7H21.3z"/></defs><clipPath id="SVGID_4_"><use xlink:href="#SVGID_3_" style="overflow:visible"/></clipPath><path d="M229.7 23.4h4.7V226h-4.7z" style="clip-path:url(#SVGID_4_);fill:none;stroke:#39373a;stroke-width:.6"/><path d="m82.3 150.2-1.9 7h1.3l1.9-7.1V149h-3.9v1.2h2.6zm-3.4 5.9h-1.3v1.2h1.3v-1.2zm-4.7-5.2c0-.5.2-.8.7-.8.4 0 .7.3.7.8v4.4c0 .5-.2.8-.7.8-.4 0-.7-.3-.7-.8v-4.4zm-.8 5.9c.3.4.8.5 1.5.5.6 0 1.1-.2 1.4-.5.3-.4.5-.9.5-1.5V151c0-.7-.2-1.2-.5-1.5-.3-.4-.8-.5-1.4-.5-.6 0-1.1.2-1.5.5-.3.4-.5.9-.5 1.5v4.3c0 .6.2 1.2.5 1.5m-3.2-5.8v6.3h1.3v-8.2h-.9c-.1.1-.1.2-.1.3 0 .1-.1.2-.2.3l-.2.2c-.1.1-.2.1-.4.1-.1 0-.3.1-.5.1v.9h1zm28.1-14.5.6 4.1h-1.2l.6-4.1zm-1 6.7.2-1.5h1.6l.2 1.5h1.3l-1.3-8.2h-2l-1.3 8.2h1.3zm-1.9 0V135h-1.3v7H93v-7h-1.3v7h-1.1v-7h-1.3v8.2h6.1zm-9.8 0 1.1-3.8.5-2v5.8h1.3V135H87l-1.1 3.4-.5 1.8V135h-1.2v8.2h1.4zm-5 0v-3.5H82v3.5h1.3V135H82v3.5h-1.5V135h-1.3v8.2h1.4zm-2.2-4.7h-2.3v1.2h2.3v-1.2zm-5.8-1.5c0-.3.1-.5.2-.6.1-.1.3-.2.5-.2h.6v2.5h-.5c-.3 0-.4-.1-.6-.2-.1-.1-.2-.4-.2-.7v-.8zm-.1 6.2c0-.1.1-.2.1-.2v-2.1c0-.4.1-.6.2-.8.1-.2.3-.2.6-.2h.4v3.3h1.3V135h-1.9c-.7 0-1.1.2-1.4.5-.3.3-.5.8-.5 1.4v.6c0 .8.3 1.4.8 1.7-.3.1-.5.3-.7.6-.1.3-.2.7-.2 1.1v1.3c0 .4 0 .8-.1 1h1.4zm-4.8 0v-3.5h1.5v3.5h1.3V135h-1.3v3.5h-1.5V135h-1.3v8.2h1.3zm-5.3 0 1-3.1 1 3.1h1.3l-1.4-4.2 1.3-4h-1.1l-1 3-1-3h-1.3l1.4 4-1.4 4.2h1.2zm-4.4-1.9c-.1.4-.2.5-.4.6-.2.1-.4.1-.8.1v1.2h.9c.3 0 .5-.1.7-.2.2-.1.3-.2.5-.4l.3-.6c.1-.2.1-.5.2-.8l1.4-6.1h-1.3l-.6 2.8-.3 1.9-.4-1.9-.7-2.8h-1.3l1.8 6.2zm-5 1.9v-2.5l.4-.8 1.3 3.3H56l-1.8-4.6L56 135h-1.3l-1.7 3.6V135h-1.3v8.2H53zm39.7 80c.6 0 1.1-.1 1.4-.4.3-.3.4-.7.4-1.4v-4.6c0-.7-.1-1.1-.4-1.4-.3-.3-.7-.4-1.4-.4h-.4v1.1h.3c.2 0 .4.1.5.2.1.1.1.3.1.6v4.5c0 .3 0 .5-.1.6-.1.1-.2.2-.5.2h-.3v1.1h.4zm-4.3-.5c.3.4.8.5 1.5.5.6 0 1.1-.2 1.4-.5.3-.4.5-.9.5-1.5v-.6c0-.9-.3-1.5-.9-1.7.6-.2.9-.8.9-1.7v-.2c0-.7-.2-1.2-.5-1.5-.3-.4-.8-.5-1.4-.5-.6 0-1.1.2-1.5.5-.3.4-.5.9-.5 1.5v.4h1.3v-.5c0-.5.2-.8.7-.8.2 0 .4.1.5.2.1.1.2.4.2.7v.5c0 .3-.1.5-.2.7-.1.1-.3.2-.6.2h-.5v1.2h.4c.3 0 .5.1.6.2.1.2.2.4.2.8v.6c0 .3-.1.6-.2.7-.1.1-.3.2-.5.2-.4 0-.7-.3-.7-.8v-.8h-1.3v.7c0 .7.2 1.2.6 1.5M87 222h-1.3v1.2H87V222zm-3.7-4.6v3.1H82l1.3-3.1zm0 4.3v1.5h1.3v-1.5h.6v-1.2h-.6V215h-1.4l-2.3 5.5v1.2h2.4zm-4.6 1.1c.3.3.7.4 1.4.4h.4v-1.1h-.3c-.2 0-.4-.1-.5-.2-.1-.1-.1-.3-.1-.6v-4.5c0-.3 0-.5.1-.6.1-.1.2-.2.5-.2h.3v-1H80c-.6 0-1.1.1-1.4.4s-.4.7-.4 1.4v4.6c0 .6.2 1.1.5 1.4m-5.8-3c0-.5.2-.8.7-.8.4 0 .7.3.7.8v1.5c0 .5-.2.8-.7.8-.4 0-.7-.3-.7-.8v-1.5zm-.8 2.9c.3.4.8.5 1.5.5.6 0 1.1-.2 1.4-.5.3-.4.5-.9.5-1.5v-1.5c0-.6-.1-1.1-.4-1.4-.2-.3-.6-.5-1.1-.5-.6 0-1 .2-1.2.7V217c0-.4.1-.6.2-.8.1-.1.3-.2.5-.2.4 0 .7.3.7.8v.3h1.2v-.2c0-.7-.2-1.2-.5-1.5-.3-.4-.8-.5-1.4-.5-1.3 0-2 .7-2 2.1v4.2c.1.7.3 1.2.6 1.5m-1.3-.7h-1.3v1.2h1.3V222zm-4.8-5c0-.3.1-.6.2-.7.1-.1.3-.2.5-.2s.4.1.5.2c.1.1.2.4.2.7v.5c0 .6-.2.9-.7.9-.5 0-.7-.3-.7-.9v-.5zm0 3.4c0-.6.2-.9.7-.9.5 0 .7.3.7.9v.8c0 .3-.1.6-.2.7-.1.1-.3.2-.5.2s-.4-.1-.5-.2c-.1-.1-.2-.4-.2-.7v-.8zm-.8 2.3c.3.4.8.5 1.5.5s1.1-.2 1.5-.5c.3-.4.5-.9.5-1.5v-.6c0-.8-.3-1.4-.8-1.7.5-.3.8-.8.8-1.6v-.3c0-.7-.2-1.2-.5-1.5s-.8-.5-1.5-.5-1.1.2-1.5.5c-.3.4-.5.9-.5 1.5v.3c0 .8.3 1.4.8 1.6-.5.3-.8.9-.8 1.7v.6c0 .7.2 1.2.5 1.5" style="clip-path:url(#SVGID_4_);fill:#39373a"/><path d="M194 193.5h39.1v2.9H194z" class="st2"/><path d="M194 193.5h39.1v2.9H194z" class="st3"/><path d="M196.5 184.4H233v9.6h-36.5z" class="st2"/><path d="M196.5 184.4H233v9.6h-36.5z" class="st3"/><path d="M120.1 193.5h31.1v2.9h-31.1z" class="st2"/><path d="M120.1 193.5h31.1v2.9h-31.1z" class="st3"/><path d="M120.1 184.4h28.6v9.6h-28.6z" class="st2"/><path d="M120.1 184.4h28.6v9.6h-28.6zm48 9.1h42.6v2.9h-42.6zm2.5-9.1h40.1v9.1h-40.1z" class="st3"/><defs><path id="SVGID_5_" d="M21.3 20.4h213.4v220.7H21.3z"/></defs><clipPath id="SVGID_6_"><use xlink:href="#SVGID_5_" style="overflow:visible"/></clipPath><path d="M170.4 193.2s-1-4.2-2.1-7.1c-1.1-2.9-2.4-4.5-2.4-4.5l-19 10.9.6.9 19.1-10.7" style="clip-path:url(#SVGID_6_);fill:none;stroke:#39373a;stroke-width:.52"/><path d="M70.9 193.5h42.6v2.9H70.9z" class="st3"/><path d="M96.9 193.5H128v2.9H96.9z" class="st2"/><path d="M96.9 193.5H128v2.9H96.9z" class="st3"/><path d="M99.4 184.4H128v9.6H99.4z" class="st2"/><path d="M99.4 184.4H128v9.6H99.4z" class="st3"/><path d="M23.5 193.5h31.1v2.9H23.5z" class="st2"/><path d="M23.5 193.5h31.1v2.9H23.5z" class="st3"/><path d="M23.5 184.4h28.6v9.6H23.5z" class="st2"/><path d="M23.5 184.4h28.6v9.6H23.5zm50 0h40.1v9.1H73.5z" class="st3"/><defs><path id="SVGID_7_" d="M21.3 20.4h213.4v220.7H21.3z"/></defs><clipPath id="SVGID_8_"><use xlink:href="#SVGID_7_" style="overflow:visible"/></clipPath><path d="M73.3 193.2s-1-4.2-2.1-7.1c-1.1-2.9-2.4-4.5-2.4-4.5l-19 10.9.6.9 19.1-10.7" style="clip-path:url(#SVGID_8_);fill:none;stroke:#39373a;stroke-width:.52"/><path d="M112.9 20.7h121.5v4.8H112.9z" class="st2"/><defs><path id="SVGID_9_" d="M21.3 20.4h213.4v220.7H21.3z"/></defs><clipPath id="SVGID_10_"><use xlink:href="#SVGID_9_" style="overflow:visible"/></clipPath><path d="M112.9 20.7h121.5v4.8H112.9z" style="clip-path:url(#SVGID_10_);fill:none;stroke:#39373a;stroke-width:.6"/><path d="M21.6 20.7h61.7v4.8H21.6z" class="st2"/><defs><path id="SVGID_11_" d="M21.3 20.4h213.4v220.7H21.3z"/></defs><clipPath id="SVGID_12_"><use xlink:href="#SVGID_11_" style="overflow:visible"/></clipPath><path d="M21.6 20.7h61.7v4.8H21.6z" style="clip-path:url(#SVGID_12_);fill:none;stroke:#39373a;stroke-width:.6"/><path d="M21.6 20.7h4.5v220.1h-4.5z" class="st2"/><defs><path id="SVGID_13_" d="M21.3 20.4h213.4v220.7H21.3z"/></defs><clipPath id="SVGID_14_"><use xlink:href="#SVGID_13_" style="overflow:visible"/></clipPath><path d="M21.6 20.7h4.5v220.1h-4.5z" style="clip-path:url(#SVGID_14_);fill:none;stroke:#39373a;stroke-width:.6"/><path d="M30.5 90.7H55v8.6H30.5zm24.4 1.4H30.3" class="st12"/><path d="m53.7 92.1-.6 6.2H37.6l-.6-6.2h-1.1l-.6 6.2h-3.5l-.7-6.2m23.8-1.4h24.5v8.6H54.9zm24.4 1.4H54.8" class="st12"/><path d="m78.1 92.1-.5 6.2H62.1l-.7-6.2h-1l-.7 6.2h-3.5l-.7-6.2" class="st12"/><defs><path id="SVGID_15_" d="M21.3 20.4h213.4v220.7H21.3z"/></defs><clipPath id="SVGID_16_"><use xlink:href="#SVGID_15_" style="overflow:visible"/></clipPath><path d="M47.5 75.9c0-3.1-2.5-5.7-5.7-5.7h-8.2c-.5 0-1 .4-1 1v9.4c0 .5.4 1 1 1h8.2c3.1 0 5.7-2.5 5.7-5.7m-15.3 4.7v-9.4c0-.8.6-1.4 1.4-1.4h8.2c3.3 0 6 2.7 6 6s-2.7 6-6 6h-8.2c-.7.2-1.4-.4-1.4-1.2" class="st13"/><path d="M47.5 75.9c0-3.1-2.5-5.7-5.7-5.7h-8.2c-.5 0-1 .4-1 1v9.4c0 .5.4 1 1 1h8.2c3.1 0 5.7-2.5 5.7-5.7zm-15.3 4.7v-9.4c0-.8.6-1.4 1.4-1.4h8.2c3.3 0 6 2.7 6 6s-2.7 6-6 6h-8.2c-.7.2-1.4-.4-1.4-1.2z" class="st14"/><path d="M35.4 71.9V80c0 .1 0 .1.1.1h6.2c2.3 0 4.2-1.9 4.2-4.2 0-2.3-1.9-4.2-4.2-4.2l-6.3.2c0-.1 0-.1 0 0z" class="st14"/><path d="M35.6 72v7.9h6.1c2.2 0 4-1.8 4-4s-1.8-4-4-4h-6.1zm-.4 8v-8.1c0-.2.1-.3.3-.3h6.2c2.4 0 4.3 1.9 4.3 4.3s-2 4.3-4.3 4.3h-6.2c-.2.1-.3 0-.3-.2" class="st13"/><path d="M35.6 72v7.9h6.1c2.2 0 4-1.8 4-4s-1.8-4-4-4h-6.1zm-.4 8v-8.1c0-.2.1-.3.3-.3h6.2c2.4 0 4.3 1.9 4.3 4.3s-2 4.3-4.3 4.3h-6.2c-.2.1-.3 0-.3-.2z" class="st14"/><path d="M41.6 75.9c0-.6-.5-1.1-1.1-1.1-.6 0-1.1.5-1.1 1.1 0 .6.5 1.1 1.1 1.1.7 0 1.1-.5 1.1-1.1m-2.5 0c0-.8.7-1.5 1.5-1.5s1.5.7 1.5 1.5-.7 1.5-1.5 1.5-1.5-.7-1.5-1.5" class="st13"/><path d="M41.6 75.9c0-.6-.5-1.1-1.1-1.1-.6 0-1.1.5-1.1 1.1 0 .6.5 1.1 1.1 1.1.7 0 1.1-.5 1.1-1.1zm-2.5 0c0-.8.7-1.5 1.5-1.5s1.5.7 1.5 1.5-.7 1.5-1.5 1.5-1.5-.7-1.5-1.5z" class="st14"/><path d="m36.1 72.8.3-.3 2.6 1.9-.3.3z" class="st2"/><path d="m36.1 72.8.3-.3 2.6 1.9-.3.3z" class="st15"/><path d="m36.102 79.038 2.562-1.918.24.32-2.563 1.918z" class="st2"/><path stroke-width=".276" d="m36.102 79.038 2.562-1.918.24.32-2.563 1.918z" class="st15"/><defs><path id="SVGID_17_" d="M21.3 20.4h213.4v220.7H21.3z"/></defs><clipPath id="SVGID_18_"><use xlink:href="#SVGID_17_" style="overflow:visible"/></clipPath><path d="M32.2 72c0-.9-.7-1.6-1.6-1.6h-2.1c-.9 0-1.6.7-1.6 1.6v7.8c0 .9.7 1.6 1.6 1.6h2.1c.9 0 1.6-.7 1.6-1.6V72zm-5.6 7.8V72c0-1.1.9-2 2-2h2.1c1.1 0 2 .9 2 2v7.8c0 1.1-.9 2-2 2h-2.1c-1.2 0-2-.9-2-2" class="st16"/><path d="M32.2 72c0-.9-.7-1.6-1.6-1.6h-2.1c-.9 0-1.6.7-1.6 1.6v7.8c0 .9.7 1.6 1.6 1.6h2.1c.9 0 1.6-.7 1.6-1.6V72zm-5.6 7.8V72c0-1.1.9-2 2-2h2.1c1.1 0 2 .9 2 2v7.8c0 1.1-.9 2-2 2h-2.1c-1.2 0-2-.9-2-2z" class="st17"/><path d="M30.2 75.9c0-.3-.3-.6-.6-.6s-.6.3-.6.6.3.6.6.6.6-.2.6-.6m-1.6 0c0-.5.4-1 1-1 .5 0 1 .4 1 1 0 .5-.4 1-1 1s-1-.4-1-1" class="st16"/><path d="M30.2 75.9c0-.3-.3-.6-.6-.6s-.6.3-.6.6.3.6.6.6.6-.2.6-.6zm-1.6 0c0-.5.4-1 1-1 .5 0 1 .4 1 1 0 .5-.4 1-1 1s-1-.4-1-1z" class="st17"/><path d="M38.3 57c0 2.8-2.3 5.2-5.2 5.2h-5.5c-.4 0-.8-.4-.8-.8V49.7c0-.4.4-.8.8-.8h5.5c2.9 0 5.2 2.3 5.2 5.2V57zm-11.8-7.3v11.7c0 .6.5 1.1 1.1 1.1h5.5c3 0 5.5-2.4 5.5-5.5v-2.9c0-3-2.5-5.5-5.5-5.5h-5.5c-.6 0-1.1.5-1.1 1.1" class="st16"/><path d="M38.3 57c0 2.8-2.3 5.2-5.2 5.2h-5.5c-.4 0-.8-.4-.8-.8V49.7c0-.4.4-.8.8-.8h5.5c2.9 0 5.2 2.3 5.2 5.2V57zm-11.8-7.3v11.7c0 .6.5 1.1 1.1 1.1h5.5c3 0 5.5-2.4 5.5-5.5v-2.9c0-3-2.5-5.5-5.5-5.5h-5.5c-.6 0-1.1.5-1.1 1.1z" class="st18"/><path d="M37 57c0 2.1-1.7 3.9-3.9 3.9h-3.2c-.4 0-.7-.3-.7-.7v-9.3c0-.4.3-.7.7-.7h3.2c2.1 0 3.9 1.7 3.9 3.9V57zm-8.1-6.1v9.3c0 .5.4 1 1 1h3.2c2.3 0 4.2-1.9 4.2-4.2v-2.9c0-2.3-1.9-4.2-4.2-4.2h-3.2c-.5 0-1 .5-1 1" class="st16"/><path d="M37 57c0 2.1-1.7 3.9-3.9 3.9h-3.2c-.4 0-.7-.3-.7-.7v-9.3c0-.4.3-.7.7-.7h3.2c2.1 0 3.9 1.7 3.9 3.9V57zm-8.1-6.1v9.3c0 .5.4 1 1 1h3.2c2.3 0 4.2-1.9 4.2-4.2v-2.9c0-2.3-1.9-4.2-4.2-4.2h-3.2c-.5 0-1 .5-1 1z" class="st18"/><path d="M34.3 55.6c0 .4-.3.6-.6.6-.4 0-.6-.3-.6-.6 0-.4.3-.6.6-.6.3-.1.6.2.6.6m-1.6 0c0 .5.4.9.9.9s.9-.4.9-.9-.4-.9-.9-.9c-.5-.1-.9.3-.9.9" class="st16"/><path d="M34.3 55.6c0 .4-.3.6-.6.6-.4 0-.6-.3-.6-.6 0-.4.3-.6.6-.6.3-.1.6.2.6.6zm-1.6 0c0 .5.4.9.9.9s.9-.4.9-.9-.4-.9-.9-.9c-.5-.1-.9.3-.9.9z" class="st18"/><path d="M35.9 36.4c0-.4.4-.8.8-.8s.8.4.8.8-.4.8-.8.8c-.5 0-.8-.4-.8-.8z" class="st19"/><path d="M74.5 40c0 2.9-2.3 5.2-5.2 5.2H33.5c-2.9 0-5.2-2.3-5.2-5.2v-7.3c0-2.9 2.3-5.2 5.2-5.2h35.7c2.9 0 5.2 2.3 5.2 5.2V40z" class="st19"/><path d="M71.3 38.4c0 2.9-2.3 5.2-5.2 5.2H36.7c-2.9 0-5.2-2.3-5.2-5.2v-3.9c0-2.9 2.3-5.2 5.2-5.2H66c2.9 0 5.2 2.3 5.2 5.2v3.9z" class="st19"/><path d="M67.4 39.4c0 1.4-1.2 2.6-2.6 2.6H35.9c-1.4 0-2.6-1.2-2.6-2.6v-6c0-1.4 1.2-2.6 2.6-2.6h28.9c1.4 0 2.6 1.2 2.6 2.6v6z" class="st19"/><path d="M26.5 26.1h49.8v20.6H26.5z" style="fill:none;stroke:#39373a;stroke-width:.554"/><path d="M64.4 47.7h11.2v17.2H64.4zm.2-.1 11 17.3m.1-17.3-11 17.3" style="stroke-width:.52;fill:none;stroke:#39373a"/><path d="M26.9 126.7h16.7V110H26.9v16.7zm-.3-17.2H44V127H26.6v-17.5z" class="st2"/><path d="M26.9 126.7h16.7V110H26.9v16.7zm-.3-17.2H44V127H26.6v-17.5z" class="st22"/><defs><path id="SVGID_19_" d="M21.3 20.4h213.4v220.7H21.3z"/></defs><clipPath id="SVGID_20_"><use xlink:href="#SVGID_19_" style="overflow:visible"/></clipPath><path d="M42.1 112.4c0-.4-.3-.7-.8-.7h-8.8c-.4 0-.8.3-.8.7v11.7c0 .4.3.7.8.7h8.8c.4 0 .8-.3.8-.7v-11.7zm-10.6 11.8v-11.7c0-.6.5-1.1 1.1-1.1h8.8c.6 0 1.1.5 1.1 1.1v11.7c0 .6-.5 1.1-1.1 1.1h-8.8c-.6 0-1.1-.5-1.1-1.1" style="clip-path:url(#SVGID_20_);fill:#39373a"/><path d="M42.1 112.4c0-.4-.3-.7-.8-.7h-8.8c-.4 0-.8.3-.8.7v11.7c0 .4.3.7.8.7h8.8c.4 0 .8-.3.8-.7v-11.7zm-10.6 11.8v-11.7c0-.6.5-1.1 1.1-1.1h8.8c.6 0 1.1.5 1.1 1.1v11.7c0 .6-.5 1.1-1.1 1.1h-8.8c-.6 0-1.1-.5-1.1-1.1z" style="clip-path:url(#SVGID_20_);fill:none;stroke:#39373a;stroke-width:.258"/><path d="M33.1 123.6h7.7V113h-7.7v10.6zm-.3-11h8.4V124h-8.4v-11.4z" class="st2"/><path d="M33.1 123.6h7.7V113h-7.7v10.6zm-.3-11h8.4V124h-8.4v-11.4z" class="st22"/><defs><path id="SVGID_21_" d="M21.3 20.4h213.4v220.7H21.3z"/></defs><clipPath id="SVGID_22_"><use xlink:href="#SVGID_21_" style="overflow:visible"/></clipPath><path d="M38.5 118.3c0-.5-.4-1-1-1-.5 0-1 .4-1 1 0 .5.4 1 1 1s1-.5 1-1m-2.3 0c0-.7.6-1.3 1.3-1.3.7 0 1.3.6 1.3 1.3 0 .7-.6 1.3-1.3 1.3-.7 0-1.3-.6-1.3-1.3" style="clip-path:url(#SVGID_22_);fill:#39373a"/><path d="M38.5 118.3c0-.5-.4-1-1-1-.5 0-1 .4-1 1 0 .5.4 1 1 1s1-.5 1-1zm-2.3 0c0-.7.6-1.3 1.3-1.3.7 0 1.3.6 1.3 1.3 0 .7-.6 1.3-1.3 1.3-.7 0-1.3-.6-1.3-1.3z" style="clip-path:url(#SVGID_22_);fill:none;stroke:#39373a;stroke-width:.258"/><path d="M22.6 88.6h7.5v10.7h-7.5z" class="st2"/><path d="M22.6 88.6h7.5v10.7h-7.5z" class="st3"/><defs><path id="SVGID_23_" d="M21.3 20.4h213.4v220.7H21.3z"/></defs><clipPath id="SVGID_24_"><use xlink:href="#SVGID_23_" style="overflow:visible"/></clipPath><path d="M113.1 21.6s0 3.7-1.6 8.3c-1.4 3.9-4.1 7.5-4.1 7.5L81.7 23l.6-.9L108 36.4m-.7 50.4s0 3.3-1.5 7.4c-1.2 3.5-3.7 6.7-3.7 6.7l-23-12.8.5-.8 23.1 12.8M77 68.9s2.6 0 5.8 1.2c2.7 1 5.2 2.9 5.2 2.9l-9.7 16-.6-.4 9.7-16" style="fill:none;stroke:#39373a;stroke-width:.52;clip-path:url(#SVGID_24_)"/><path d="M184.2 143.3c0-.5.2-.8.7-.8.4 0 .7.3.7.8v4.4c0 .5-.2.8-.7.8-.4 0-.7-.3-.7-.8v-4.4zm-.8 5.9c.3.4.8.5 1.5.5s1.1-.2 1.4-.5c.3-.4.5-.9.5-1.5v-4.3c0-.7-.2-1.2-.5-1.5-.3-.4-.8-.5-1.4-.5s-1.1.2-1.5.5c-.3.4-.5.9-.5 1.5v4.3c0 .6.2 1.2.5 1.5m-1.3-.7h-1.3v1.2h1.3v-1.2zm-4.7-5.2c0-.5.2-.8.7-.8.4 0 .7.3.7.8v1.5c0 .5-.2.8-.7.8-.4 0-.7-.3-.7-.8v-1.5zm-1 3c.2.3.6.5 1.1.5.6 0 1-.2 1.2-.7v1.5c0 .4-.1.6-.2.8-.1.2-.3.2-.5.2-.4 0-.7-.3-.7-.8v-.3h-1.2v.2c0 .7.2 1.2.5 1.5.3.4.8.5 1.4.5 1.3 0 2-.7 2-2.1v-4.2c0-.7-.2-1.2-.5-1.5s-.8-.5-1.5-.5c-.6 0-1.1.2-1.5.5-.3.4-.5.9-.5 1.5v1.5c.1.6.2 1.1.4 1.4m-3-2.9v6.3h1.3v-8.2h-.9c-.1.1-.1.2-.1.3 0 .1-.1.2-.2.3l-.2.2c-.1.1-.2.1-.4.1-.1 0-.3.1-.5.1v.9h1zm21.6-14.5.6 4.1h-1.2l.6-4.1zm-1 6.7.2-1.5h1.6l.2 1.5h1.3l-1.3-8.2h-2l-1.3 8.2h1.3zm-4.2-7v7h1.3v-7h1.4v-1.2h-4v1.2h1.3zm-3.7.3.6 4.1h-1.2l.6-4.1zm-1.1 6.7.2-1.5h1.6l.2 1.5h1.3l-1.3-8.2h-2l-1.3 8.2h1.3zm-4.6 0v-3.5h1.5v3.5h1.3v-8.2h-1.3v3.5h-1.5v-3.5h-1.3v8.2h1.3zm-6.5 0v-5.8l1 5.8h1.2l.9-5.9v5.9h1.3v-8.2h-1.9l-.9 5.8-1-5.8h-1.8v8.2h1.2zm-4.6-6.3c0-.5.2-.8.7-.8.4 0 .7.3.7.8v4.4c0 .5-.2.8-.7.8-.4 0-.7-.3-.7-.8v-4.4zm-.8 5.8c.3.4.8.5 1.5.5.6 0 1.1-.2 1.4-.5.3-.4.5-.9.5-1.5v-4.3c0-.7-.2-1.2-.5-1.5-.3-.4-.8-.5-1.4-.5-.6 0-1.1.2-1.5.5-.3.4-.5.9-.5 1.5v4.3c0 .7.2 1.2.5 1.5m-4 .5v-2.5l.4-.8 1.3 3.3h1.3l-1.8-4.6 1.8-3.7h-1.3l-1.7 3.6v-3.6h-1.3v8.2h1.3zm27.6-29.4v14.3h2.9v-18.8h-2c-.1.3-.2.6-.3.7-.1.2-.2.4-.4.6-.2.2-.4.4-.6.5s-.5.2-.8.3c-.3.1-.7.1-1.2.1v2.1h2.4zm-6.1 11.7h-3v2.7h2.9v-2.7zm-9.5-11.7v14.3h2.9v-18.8h-2c-.1.3-.2.6-.3.7-.1.2-.2.4-.4.6-.2.2-.4.4-.6.5-.2.1-.5.2-.8.3-.3.1-.7.1-1.2.1v2.1h2.4zm-9.7 1.2v7.1h-3l3-7.1zm0 9.8v3.4h2.9v-3.4h1.3v-2.7h-1.3v-12.7h-3.2l-5.4 12.7v2.7h5.7z" class="st28"/><path d="M179.2 95.4c9.1 0 16.4-7.4 16.4-16.4s-7.4-16.4-16.4-16.4c-9.1 0-16.4 7.4-16.4 16.4s7.3 16.4 16.4 16.4z" style="clip-path:url(#SVGID_24_);fill:none;stroke:#39373a;stroke-width:1.126"/><path d="M180 85.9c.6.6 1.4.9 2.5.9s1.9-.3 2.5-.9c.6-.6.9-1.5.9-2.6v-1.9h-2.2v2c0 .9-.4 1.4-1.2 1.4-.8 0-1.2-.5-1.2-1.4v-7.7c0-.9.4-1.4 1.2-1.4.8 0 1.2.5 1.2 1.4v1.5h2.2v-1.4c0-1.1-.3-2-.9-2.6-.6-.6-1.4-.9-2.5-.9s-1.9.3-2.5.9c-.6.6-.8 1.5-.8 2.6v7.4c0 1.2.3 2 .8 2.7m-5.6-10.1v10.8h2.2V72.4h-1.5c-.1.2-.2.4-.2.6-.1.1-.2.3-.3.5s-.3.3-.4.4c-.2.1-.4.2-.6.2-.3.1-.6.1-.9.1v1.6h1.7zM54.6 64.2l-1.1 4.2h.8l1.1-4.2v-.7H53v.7h1.6zm-2.1 3.5h-.8v.7h.8v-.7zm-3.3.5c.2.2.5.3.9.3s.7-.1.9-.3c.2-.2.3-.5.3-.9v-.4c0-.5-.2-.9-.5-1 .4-.1.5-.5.5-1v-.1c0-.4-.1-.7-.3-.9s-.5-.3-.9-.3-.7.1-.9.3-.3.5-.3.9v.2h.8v-.3c0-.3.1-.5.4-.5.1 0 .2 0 .3.1.1.1.1.2.1.4v.3c0 .2 0 .3-.1.4-.1.1-.2.1-.3.1h-.3v.7h.2c.2 0 .3 0 .4.1s.1.3.1.5v.4c0 .2 0 .3-.1.4-.1.1-.2.1-.3.1-.3 0-.4-.2-.4-.5v-.5h-.8v.4c0 .5.1.8.3 1.1m5.3-9.4c0 .2-.1.3-.2.4-.1.1-.3.1-.5.1v.7h.5c.2 0 .3-.1.4-.1.1-.1.2-.1.3-.3.1-.1.1-.2.2-.4 0-.1.1-.3.1-.5l.8-3.7h-.8l-.4 1.7-.2 1.1-.2-1.2-.4-1.7h-.8l1.2 3.9zM51.4 60l1.9-4.9h-.7L50.8 60h.6zm-2.9-.3c.2.2.5.3.9.3s.7-.1.9-.3c.2-.2.3-.5.3-.9v-.7h-.8v.7c0 .3-.1.5-.4.5-.3 0-.4-.2-.4-.5v-2.7c0-.3.1-.5.4-.5.3 0 .4.2.4.5v.5h.8v-.5c0-.4-.1-.7-.3-.9-.3-.1-.5-.2-.9-.2s-.7.1-.9.3c-.2.2-.3.5-.3.9v2.6c0 .4.1.7.3.9m56 6v1.9h-.8l.8-1.9zm0 2.5v.9h.8v-.9h.4v-.7h-.4v-3.3h-.8l-1.4 3.3v.7h1.4zm-1.9.2h-.8v.7h.8v-.7zm-3.3.4c.2.2.5.3.9.3s.7-.1.9-.3c.2-.2.3-.5.3-.9v-.4c0-.5-.2-.9-.5-1 .4-.1.5-.5.5-1v-.1c0-.4-.1-.7-.3-.9-.2-.2-.5-.3-.9-.3s-.7.1-.9.3c-.2.2-.3.5-.3.9v.3h.8v-.3c0-.3.1-.5.4-.5.1 0 .2 0 .3.1.1.1.1.2.1.4v.3c0 .2 0 .3-.1.4-.1.1-.2.1-.3.1h-.3v.7h.3c.2 0 .3 0 .4.1.1.1.1.3.1.5v.4c0 .2 0 .3-.1.4-.1.1-.2.1-.3.1-.3 0-.4-.2-.4-.5v-.5H99v.4c0 .5.1.8.3 1M112.6 57c0-.2 0-.3.1-.4.1-.1.2-.1.3-.1h.4V58h-.3c-.2 0-.3 0-.3-.1-.1-.1-.1-.2-.1-.4V57zm-.1 3.7v-1.4c0-.2 0-.4.1-.5.1-.1.2-.1.4-.1h.3v2h.8v-4.9H113c-.4 0-.7.1-.9.3-.2.2-.3.5-.3.9v.4c0 .5.2.8.5 1-.2.1-.3.2-.4.4-.1.2-.1.4-.1.7v.8c0 .3 0 .5-.1.6h.8zm-2.3-4.1.4 2.5h-.7l.3-2.5zm-.6 4.1.1-.9h.9l.1.9h.8l-.8-4.9h-1.2l-.8 4.9h.9zm-4.3 0 .7-2.2.2.4v1.8h.8v-1.8l.2-.4.7 2.2h.8l-.9-2.9.9-2h-.8l-.9 2v-2h-.8v2l-.9-2h-.8l1 2-1 2.9h.8zm-2.6-3.8c0-.3.1-.5.4-.5.3 0 .4.2.4.5v2.7c0 .3-.1.5-.4.5-.3 0-.4-.2-.4-.5v-2.7zm-.5 3.5c.2.2.5.3.9.3s.7-.1.9-.3c.2-.2.3-.5.3-.9v-2.6c0-.4-.1-.7-.3-.9-.2-.2-.5-.3-.9-.3s-.7.1-.9.3c-.2.2-.3.5-.3.9v2.6c0 .4.1.7.3.9m-2.6.3.6-1.8.6 1.8h.8l-.9-2.5.8-2.4h-.7l-.6 1.8-.6-1.8h-.8l.8 2.4-.9 2.5h.9zm-2.9 0 .7-2.3.3-1.2v3.5h.8v-4.9h-.9l-.6 2-.3 1.1v-3.1H96v4.9h.7zm-2.6-4.2h.4c.1 0 .2 0 .3.1.1.1.1.2.1.4v.7c0 .2 0 .3-.1.4-.1.1-.2.1-.3.1h-.4v-1.7zm0 4.2v-1.9h.4c.4 0 .7-.1.9-.3.2-.2.3-.5.3-.9V57c0-.4-.1-.7-.3-.9-.2-.2-.5-.3-.9-.3h-1.1v4.9h.7zm-3 0v-4.2h.9v4.2h.8v-4.9h-2.4v4.9h.7z" class="st28"/><path d="M24.8 236.2h102.6v2.9H24.8zm105.7 2.9v-2.9l100.7-14.8v3z" class="st3"/></g></switch></svg>