<?xml version="1.0" encoding="utf-8"?>
<!-- Generator: Adobe Illustrator 26.5.0, SVG Export Plug-In . SVG Version: 6.00 Build 0)  -->
<svg version="1.1" id="Слой_1" xmlns="http://www.w3.org/2000/svg" xmlns:xlink="http://www.w3.org/1999/xlink" x="0px" y="0px"
	 viewBox="0 0 1000 1000" style="enable-background:new 0 0 1000 1000;" xml:space="preserve">
<style type="text/css">
	.st0{fill:#F8D0D8;}
	.st1{fill:none;stroke:#3C3C3B;stroke-linecap:round;stroke-linejoin:round;stroke-miterlimit:10;}
	.st2{fill:#3C3C3B;}
	.st3{fill:none;stroke:#3C3C3B;}
	.st4{fill:none;stroke:#3C3C3B;stroke-miterlimit:10;}
	.st5{fill:#FFFFFF;}
	.st6{fill:#C6C6C5;}
</style>
<rect x="547.7" y="166.5" class="st0" width="199.8" height="667.6"/>
<rect x="359.5" y="397.7" class="st0" width="201.3" height="436.1"/>
<rect x="547.9" y="857.1" class="st1" width="10.9" height="54"/>
<line class="st1" x1="558.8" y1="857.1" x2="556.6" y2="857.1"/>
<line class="st1" x1="346.9" y1="633.2" x2="346.9" y2="679.3"/>
<path class="st1" d="M346.9,632v48.5 M349.1,680.5V632"/>
<polyline class="st1" points="359,506.4 359,519.3 350.1,519.3 350.1,505.4 "/>
<polygon class="st1" points="350.1,450 350.1,401.2 359,401.2 359,449 "/>
<line class="st1" x1="359" y1="506.4" x2="350.1" y2="505.4"/>
<rect x="548.7" y="530.5" class="st1" width="8.9" height="305.1"/>
<polyline class="st1" points="341.5,393 433,393 433,403.3 341.9,403.3 "/>
<line class="st1" x1="546.9" y1="834" x2="513.7" y2="834"/>
<line class="st1" x1="432" y1="856.1" x2="508.5" y2="856.1"/>
<line class="st1" x1="394.1" y1="834" x2="361" y2="834"/>
<path class="st1" d="M355,852.6L355,852.6 M355,850.9v-10.2 M355,855.3v-2.7 M508.5,856.1h43.6"/>
<polyline class="st1" points="355,850.9 354.8,851.1 354.8,852.4 "/>
<line class="st1" x1="513.7" y1="834" x2="437" y2="834"/>
<polyline class="st1" points="509.3,851.6 512,851.6 513.7,834 "/>
<line class="st1" x1="509.3" y1="851.6" x2="432.5" y2="851.6"/>
<path class="st1" d="M361.2,838.7L361,834 M355,840.7l5.7-1.5"/>
<polyline class="st1" points="360.7,839.5 361,839.2 361.2,838.7 "/>
<polyline class="st1" points="552.1,856.1 552.6,855.3 552.6,852.6 "/>
<path class="st1" d="M552.6,852.6L552.6,852.6 M552.6,850.9v-10.2"/>
<polyline class="st1" points="552.6,850.9 552.9,851.1 552.9,852.4 "/>
<line class="st1" x1="552.6" y1="840.7" x2="547.2" y2="839.5"/>
<polyline class="st1" points="546.9,834 546.7,838.7 546.9,839.2 547.2,839.5 "/>
<line class="st1" x1="508.5" y1="856.1" x2="509.3" y2="851.6"/>
<polyline class="st1" points="432.5,851.6 435.5,851.6 437,834 "/>
<line class="st1" x1="432" y1="856.1" x2="432.5" y2="851.6"/>
<line class="st1" x1="557.6" y1="164.7" x2="557.6" y2="426"/>
<polyline class="st1" points="557.6,485.4 557.6,519.3 548.7,519.3 548.7,484.6 "/>
<polyline class="st1" points="548.7,426.7 548.7,164.7 557.6,164.7 "/>
<path class="st1" d="M548.7,426.7l8.9-1 M548.7,484.6l8.9,0.7"/>
<line class="st1" x1="398.9" y1="848.2" x2="430.1" y2="830.1"/>
<line class="st1" x1="397.6" y1="846.2" x2="428.8" y2="828.1"/>
<line class="st1" x1="435.5" y1="851.1" x2="433.5" y2="851.1"/>
<rect x="395.6" y="846.2" class="st1" width="2" height="5"/>
<path class="st1" d="M429.8,830.1l-1.2-2 M397.6,846.2l1.2,2"/>
<line class="st1" x1="435.5" y1="851.1" x2="435.5" y2="851.6"/>
<line class="st1" x1="395.6" y1="851.1" x2="395.6" y2="851.6"/>
<polygon class="st1" points="359,451 354,451 354,452.9 359,452.9 359,450 "/>
<polygon class="st1" points="359,504.7 354,504.7 354,502.5 359,502.5 359,505.4 "/>
<polygon class="st1" points="359,451 354,451 354,452.9 359,452.9 359,450 "/>
<polygon class="st1" points="359,504.7 354,504.7 354,502.5 359,502.5 359,505.4 "/>
<rect x="547.9" y="857.1" class="st1" width="10.9" height="54"/>
<path class="st1" d="M745.5,834h-32.9 M558.8,857.1h-2.2"/>
<line class="st1" x1="597.9" y1="856.1" x2="707.1" y2="856.1"/>
<line class="st1" x1="592.7" y1="834" x2="559.6" y2="834"/>
<polyline class="st1" points="597.9,856.1 554.6,856.1 553.6,855.3 "/>
<path class="st1" d="M553.6,852.6L553.6,852.6 M553.6,850.9v-10.2 M553.6,855.3v-2.7 M707.1,856.1h43.6"/>
<polyline class="st1" points="553.6,850.9 553.4,851.1 553.4,852.4 "/>
<line class="st1" x1="712.6" y1="834" x2="592.7" y2="834"/>
<polyline class="st1" points="708.1,851.6 710.9,851.6 712.6,834 "/>
<polyline class="st1" points="597.9,856.1 597.2,851.6 594.2,851.6 592.7,834 "/>
<line class="st1" x1="708.1" y1="851.6" x2="597.2" y2="851.6"/>
<path class="st1" d="M559.8,838.7l-0.2-4.7 M553.6,840.7l5.7-1.5"/>
<polyline class="st1" points="559.3,839.5 559.8,839.2 559.8,838.7 "/>
<polyline class="st1" points="750.7,856.1 751.5,855.3 751.5,852.6 "/>
<path class="st1" d="M751.5,852.6L751.5,852.6 M751.5,850.9v-10.2"/>
<line class="st1" x1="751.5" y1="850.9" x2="751.5" y2="852.4"/>
<line class="st1" x1="751.5" y1="840.7" x2="746" y2="839.5"/>
<polyline class="st1" points="745.5,834 745.5,839.2 746,839.5 "/>
<line class="st1" x1="707.1" y1="856.1" x2="708.1" y2="851.6"/>
<rect x="548.7" y="530.5" class="st1" width="8.9" height="305.1"/>
<line class="st1" x1="745.5" y1="166.2" x2="707.4" y2="166.2"/>
<line class="st1" x1="635.3" y1="144.2" x2="702.2" y2="144.2"/>
<path class="st1" d="M702.2,144.2h48.3 M554.6,144.2h48.3 M597.7,166.2h-38.1"/>
<line class="st1" x1="707.4" y1="166.2" x2="640.8" y2="166.2"/>
<polyline class="st1" points="703.2,148.4 705.7,148.4 707.4,166.2 "/>
<polyline class="st1" points="602.9,144.2 602.1,148.4 599.2,148.4 597.7,166.2 "/>
<line class="st1" x1="703.2" y1="148.4" x2="636.3" y2="148.4"/>
<line class="st1" x1="702.2" y1="144.2" x2="703.2" y2="148.4"/>
<polyline class="st1" points="635.3,144.2 636.3,148.4 639.3,148.4 640.8,166.2 "/>
<polyline class="st1" points="750.7,144.2 751.5,144.9 751.5,147.9 "/>
<path class="st1" d="M751.5,147.9L751.5,147.9 M751.5,149.4v9.9"/>
<line class="st1" x1="751.5" y1="149.4" x2="751.5" y2="147.9"/>
<path class="st1" d="M745.5,161.2v5 M751.5,159.3l-5.7,1.7"/>
<polyline class="st1" points="746,160.8 745.5,161 745.5,161.2 "/>
<polyline class="st1" points="554.6,144.2 553.6,144.9 553.6,147.9 "/>
<path class="st1" d="M553.6,147.9L553.6,147.9 M553.6,149.4v9.9"/>
<polyline class="st1" points="553.6,149.4 553.4,149.1 553.4,147.9 "/>
<line class="st1" x1="553.6" y1="159.3" x2="559.3" y2="160.8"/>
<polyline class="st1" points="559.6,166.2 559.8,161.2 559.8,161 559.3,160.8 "/>
<line class="st1" x1="557.6" y1="164.7" x2="557.6" y2="426"/>
<polyline class="st1" points="557.6,485.4 557.6,519.3 548.7,519.3 548.7,484.6 "/>
<polyline class="st1" points="548.7,426.7 548.7,164.7 557.6,164.7 "/>
<path class="st1" d="M548.7,426.7l8.9-1 M548.7,484.6l8.9,0.7"/>
<path class="st1" d="M607.1,529.5h1 M607.1,524.5h-2v5h2V524.5z"/>
<path class="st1" d="M560.3,529.5h-1.2 M560.3,524.5h1.7v5h-1.7V524.5z"/>
<path class="st1" d="M602.2,152.3l31.2,17.8 M601.4,154.1l31,17.8"/>
<rect x="599.2" y="149.1" class="st1" width="2" height="5"/>
<path class="st1" d="M633.4,169.9l-1.2,2 M601.4,154.1l1-2"/>
<path class="st1" d="M639.3,149.1v-0.7 M599.2,149.1v-0.7"/>
<line class="st1" x1="745.3" y1="529.5" x2="609.6" y2="529.5"/>
<polyline class="st1" points="745.3,520.5 608.8,520.5 609.6,529.5 "/>
<line class="st1" x1="748" y1="359.8" x2="608.8" y2="359.8"/>
<polyline class="st1" points="748,368.8 609.6,368.8 608.8,359.8 "/>
<path class="st1" d="M607.6,359.8h1.2 M607.6,364.8h-1.7v-5h1.7V364.8z"/>
<polyline class="st1" points="623.9,490.8 623.9,519.3 628.4,519.3 628.4,490.8 "/>
<path class="st1" d="M623.9,407.9h4.5 M623.9,452.7h4.5 M623.9,490.8h4.5 M623.9,407.9v44.8 M628.4,452.7v-44.8"/>
<polygon class="st1" points="623.7,405.7 628.9,405.7 628.9,403.9 623.7,403.9 623.7,406.9 "/>
<polygon class="st1" points="623.7,369.7 628.9,369.7 628.9,372 623.7,372 623.7,368.8 "/>
<polygon class="st1" points="623.9,453.7 628.9,453.7 628.9,455.7 623.9,455.7 623.9,452.7 "/>
<polygon class="st1" points="623.9,489.6 628.9,489.6 628.9,487.9 623.9,487.9 623.9,490.8 "/>
<line class="st1" x1="746.5" y1="581" x2="746.5" y2="831.1"/>
<g>
	<path class="st1" d="M764.8,575L764.8,575 M763.4,575h-9.9"/>
</g>
<line class="st1" x1="753.4" y1="575" x2="751.7" y2="580.7"/>
<polyline class="st1" points="746.5,581 751.5,581 751.7,580.7 "/>
<g>
	<path class="st1" d="M767.8,856.1l0.7-0.7 M753.4,856.1l-1-0.7 M752,831.8l-5.7-0.7 M767.8,856.1h-14.4"/>
</g>
<polyline class="st1" points="752.5,832.3 752.2,832.1 752,831.8 "/>
<line class="st1" x1="752.5" y1="855.3" x2="752.5" y2="832.3"/>
<polyline class="st1" points="746.5,568.1 746.5,370.7 751.2,371 "/>
<polyline class="st1" points="751.7,568.6 751.5,568.1 751.2,568.1 "/>
<g>
	<path class="st1" d="M764.8,364.8L764.8,364.8 M763.4,364.8h-9.9 M767.8,364.8h-2.7"/>
</g>
<line class="st1" x1="753.4" y1="364.8" x2="751.7" y2="370.5"/>
<polyline class="st1" points="751.2,371 751.5,370.7 751.7,370.5 "/>
<g>
	<path class="st1" d="M764.8,574.3L764.8,574.3 M763.4,574.3h-9.9"/>
</g>
<path class="st1" d="M746.5,358.1V169.4 M751.2,568.1h-4.7 M753.4,574.3l-1.7-5.7"/>
<g>
	<path class="st1" d="M764.8,363.8L764.8,363.8 M763.4,363.8h-9.9"/>
</g>
<path class="st1" d="M751.2,357.9l-4.7,0.2 M753.4,363.8l-1.7-5.7"/>
<polyline class="st1" points="751.7,358.4 751.5,357.9 751.2,357.9 "/>
<g>
	<path class="st1" d="M752.5,144.9v22.8 M746.5,89.9v53.5 M767.8,88.9h-20.3"/>
</g>
<polyline class="st1" points="752,168.2 752.2,167.9 752.5,167.7 "/>
<path class="st1" d="M746.5,143.4l5.7,1 M746.5,169.2l5.7-1.2"/>
<polyline class="st1" points="752.5,144.9 752.2,144.4 752,144.2 "/>
<g>
	<path class="st1" d="M747.3,88.9l-1,1 M767.8,88.9l0.7,1"/>
</g>
<line class="st1" x1="748" y1="368.8" x2="748" y2="359.8"/>
<line class="st1" x1="742.1" y1="417.3" x2="742.1" y2="371"/>
<polyline class="st1" points="744.3,369.7 727.7,369.7 727.7,418.3 744.3,418.3 "/>
<polyline class="st1" points="742.1,415.6 729.9,414.6 729.9,384.6 742.1,383.6 "/>
<polyline class="st1" points="742.1,381.4 729.9,380.4 729.9,373.7 742.1,372.5 "/>
<path class="st1" d="M742.1,418.3v-48.5 M744.3,369.7v48.5"/>
<rect x="350.1" y="530.5" class="st1" width="8.9" height="305.1"/>
<polygon class="st1" points="349.1,939 360,939 360,894.7 360,857.1 349.1,857.1 "/>
<line class="st1" x1="751.2" y1="88.9" x2="554.6" y2="60.7"/>
<polyline class="st1" points="752,82.3 555.6,54 554.6,60.7 "/>
<polyline class="st1" points="552.1,144.2 552.6,144.9 552.6,147.9 "/>
<path class="st1" d="M552.6,147.9L552.6,147.9 M552.6,149.4v9.9"/>
<polyline class="st1" points="552.6,149.4 552.9,149.1 552.9,147.9 "/>
<path class="st1" d="M546.7,161.2l0.2,5 M552.6,159.3l-5.7,1.7"/>
<polyline class="st1" points="547.2,160.8 546.9,161 546.7,161.2 "/>
<line class="st1" x1="547.9" y1="394.8" x2="547.9" y2="403.4"/>
<line class="st1" x1="367.5" y1="834" x2="346.8" y2="834"/>
<line class="st1" x1="343.5" y1="856.1" x2="370.5" y2="856.1"/>
<polyline class="st1" points="353.3,856.1 354,855.3 354,852.6 "/>
<path class="st1" d="M354,852.6L354,852.6 M354,850.9v-10.2"/>
<polyline class="st1" points="354,850.9 354.3,851.1 354.3,852.4 "/>
<path class="st1" d="M348.1,838.7l0.2-4.7 M354,840.7l-5.7-1.5"/>
<polyline class="st1" points="348.6,839.5 348.3,839.2 348.1,838.7 "/>
<polyline class="st1" points="343.5,856.1 344,851.6 345.7,851.6 346.8,834 "/>
<path class="st1" d="M350.1,690.2l-2.2-2.2 M350.1,695.1l-2.7-2.7 M350.1,699.8l-2.7-2.5 M350.1,705l-2.7-2.7 M350.1,710l-2.7-2.7
	 M350.1,714.9l-2.7-2.7 M350.1,719.9l-2.7-2.7 M350.1,724.6l-2.7-2.5 M350.1,729.8l-2.7-2.7 M350.1,734.7l-2.7-2.7 M350.1,739.7
	l-2.7-2.7 M350.1,744.6l-2.7-2.7 M350.1,749.4l-2.7-2.5 M350.1,754.6l-2.7-2.7 M350.1,759.5l-2.7-2.7 M350.1,764.5l-2.7-2.7
	 M350.1,769.4l-2.7-2.5 M350.1,774.4l-2.7-2.7 M350.1,779.3l-2.7-2.7 M350.1,784.3l-2.7-2.7 M350.1,789.2l-2.7-2.7 M350.1,794.2
	l-2.7-2.5 M350.1,799.1l-2.7-2.7 M350.1,804.1l-2.7-2.7 M350.1,809l-2.7-2.7 M350.1,814l-2.7-2.7 M350.1,818.9l-2.7-2.5
	 M350.1,823.9l-2.7-2.7 M350.1,828.8l-2.7-2.7 M350.1,833.8l-2.7-2.7 M347.8,834l2.2-2.2 M347.3,829.6l2.7-2.7 M347.3,824.4l2.7-2.5
	 M347.3,819.7l2.7-2.7 M347.3,814.7l2.7-2.7 M347.3,809.8l2.7-2.7 M347.3,804.8l2.7-2.7 M347.3,799.6l2.7-2.5 M347.3,794.7l2.7-2.7
	 M347.3,790l2.7-2.7 M347.3,785l2.7-2.7 M347.3,780.1l2.7-2.7 M347.3,774.9l2.7-2.5 M347.3,769.9l2.7-2.7 M347.3,765.2l2.7-2.7
	 M347.3,760.2l2.7-2.7 M347.3,755l2.7-2.5 M347.3,750.1l2.7-2.7 M347.3,745.1l2.7-2.7 M347.3,740.4l2.7-2.7 M347.3,735.5l2.7-2.7
	 M347.3,730.3l2.7-2.5 M347.3,725.3l2.7-2.7 M347.3,720.4l2.7-2.7 M347.3,715.7l2.7-2.7 M347.3,710.7l2.7-2.7 M347.3,705.5l2.7-2.5
	 M347.3,700.6l2.7-2.7 M347.3,695.6l2.7-2.7 M347.3,690.9l2.7-2.7"/>
<path class="st1" d="M340.9,529.5v59.2 M347.3,529.5v59.2"/>
<path class="st1" d="M340.9,834V687.7 M347.3,834V681.3"/>
<line class="st1" x1="752" y1="82.3" x2="751.2" y2="88.9"/>
<polyline class="st1" points="708.9,348.9 709.1,348.9 709.4,348.7 709.6,348.7 709.9,348.5 709.9,348.2 709.9,347.7 "/>
<polyline class="st1" points="709.9,331.1 709.9,330.6 709.6,330.4 709.4,330.4 709.1,330.1 708.9,330.1 "/>
<polyline class="st1" points="711.6,331.1 711.6,330.6 711.4,330.4 711.1,329.6 710.9,329.4 710.4,328.9 709.9,328.6 709.6,328.4 
	708.9,328.4 "/>
<polyline class="st1" points="708.9,350.7 709.6,350.4 709.9,350.4 710.4,350.2 710.9,349.7 711.1,349.2 711.4,348.7 711.6,348.2 
	711.6,347.7 "/>
<path class="st1" d="M714.3,325.7h-33.2 M714.3,355.9h-33.2"/>
<polyline class="st1" points="681.1,358.9 714.3,358.9 714.3,325.7 "/>
<path class="st1" d="M711.6,347.7v-16.6 M709.9,347.7v-16.6"/>
<polygon class="st1" points="696.7,353.9 696.7,354.1 697,354.4 697.2,354.6 697.2,354.9 697.5,354.9 697.7,355.1 698,355.1 
	698.2,354.9 698.5,354.6 698.7,354.6 698.7,354.4 699,354.1 699,353.7 698.7,353.4 698.7,353.2 698.5,352.9 698.2,352.9 
	698.2,352.7 697.5,352.7 697.5,352.9 697.2,352.9 697.2,353.2 697,353.2 697,353.4 696.7,353.7 "/>
<path class="st1" d="M708.9,350.7h-22 M708.9,328.4h-22 M708.9,348.9h-22 M708.9,330.1h-22 M681.1,358.9v-33.2"/>
<polygon class="st1" points="696.7,344.5 696.7,344.7 697,344.7 697,345 697.2,345.2 697.2,345.5 697.5,345.5 698.2,345.5 
	698.5,345.2 698.7,345.2 698.7,345 699,344.7 699,344 698.7,344 698.7,343.7 698.5,343.5 698.2,343.5 698.2,343.3 697.5,343.3 
	697.2,343.5 697,343.7 697,344 696.7,344.2 "/>
<polyline class="st1" points="686.8,330.1 686.6,330.1 686.3,330.4 686.1,330.4 686.1,330.6 685.8,330.6 685.6,330.9 685.6,348 
	685.8,348.2 685.8,348.5 686.1,348.5 686.1,348.7 686.3,348.7 686.6,348.9 686.8,348.9 "/>
<polyline class="st1" points="686.8,328.4 686.3,328.4 685.6,328.6 685.1,328.9 685.1,329.4 684.6,329.6 684.4,330.4 684.1,330.6 
	684.1,331.1 "/>
<polyline class="st1" points="684.1,347.7 684.1,348.2 684.4,348.7 684.6,349.2 685.1,349.7 685.1,350.2 685.6,350.4 686.3,350.4 
	686.8,350.7 "/>
<line class="st1" x1="684.1" y1="347.7" x2="684.1" y2="331.1"/>
<line class="st1" x1="356.8" y1="520.5" x2="470.2" y2="520.5"/>
<polyline class="st1" points="520.9,520.5 551.1,520.5 551.1,529.5 520.2,529.5 "/>
<polyline class="st1" points="470.9,529.5 356.8,529.5 356.8,520.6 "/>
<path class="st1" d="M470.2,520.5l0.7,8.9 M520.9,520.5l-0.7,8.9"/>
<line class="st1" x1="472.1" y1="529.5" x2="470.9" y2="529.5"/>
<path class="st1" d="M519.2,529.5h1 M519.2,524.5h-2v5h2V524.5z"/>
<line class="st1" x1="611.1" y1="907.3" x2="694" y2="907.3"/>
<line class="st1" x1="597.4" y1="856.1" x2="597.4" y2="921.2"/>
<line class="st1" x1="611.1" y1="856.1" x2="611.1" y2="907.6"/>
<line class="st1" x1="707.9" y1="856.1" x2="707.9" y2="921.2"/>
<line class="st1" x1="694" y1="856.1" x2="694" y2="907.6"/>
<line class="st1" x1="597.4" y1="921.2" x2="707.9" y2="921.2"/>
<line class="st1" x1="745.3" y1="520.5" x2="745.3" y2="529.5"/>
<polygon class="st1" points="633.8,425.7 667.9,425.7 667.9,458.9 633.8,458.9 667.9,458.9 "/>
<polygon class="st1" points="666.9,458.4 632.8,458.4 632.8,425.2 666.9,425.2 632.8,425.2 "/>
<line class="st1" x1="667" y1="425.7" x2="633.8" y2="458.9"/>
<rect x="340" y="390.9" class="st2" width="217.6" height="13.3"/>
<rect x="340" y="391.8" class="st2" width="19.5" height="61.9"/>
<rect x="604.6" y="359.6" class="st2" width="146.1" height="9.9"/>
<rect x="604.6" y="518.1" class="st2" width="148.6" height="12.4"/>
<rect x="624.4" y="416.5" class="st2" width="123.8" height="7.4"/>
<rect x="624.4" y="404.2" class="st2" width="5" height="52"/>
<rect x="624.4" y="489.3" class="st2" width="5" height="36.2"/>
<rect x="547.7" y="480.9" class="st2" width="14.9" height="443.2"/>
<rect x="508.1" y="833.1" class="st2" width="89.1" height="24"/>
<path class="st2" d="M685.1,393.3c0,5.2,4.2,9.4,9.7,9.4h13.9c1,0,1.7-0.7,1.7-1.5v-15.4c0-1-0.7-1.5-1.7-1.5h-13.9
	C689.3,384.1,685.1,388.3,685.1,393.3 M710.9,385.6v15.4c0,1.2-1,2.2-2.2,2.2h-13.9c-5.7,0-10.2-4.5-10.2-9.9
	c0-5.4,4.5-9.9,10.2-9.9h13.9C709.9,383.4,710.9,384.4,710.9,385.6"/>
<path class="st3" d="M685.1,393.3c0,5.2,4.2,9.4,9.7,9.4h13.9c1,0,1.7-0.7,1.7-1.5v-15.4c0-1-0.7-1.5-1.7-1.5h-13.9
	C689.3,384.1,685.1,388.3,685.1,393.3z M710.9,385.6v15.4c0,1.2-1,2.2-2.2,2.2h-13.9c-5.7,0-10.2-4.5-10.2-9.9
	c0-5.4,4.5-9.9,10.2-9.9h13.9C709.9,383.4,710.9,384.4,710.9,385.6z"/>
<path class="st2" d="M705.2,400v-13.1H695c-3.7,0-6.7,3-6.7,6.4c0,3.5,3,6.4,6.7,6.4h10.2V400z M705.9,386.8v13.4
	c0,0.2-0.2,0.5-0.5,0.5H695c-4,0-7.4-3.2-7.4-7.2c0-4,3.2-7.2,7.4-7.2h10.4C705.7,386.3,705.9,386.3,705.9,386.8"/>
<path class="st3" d="M705.2,400v-13.1H695c-3.7,0-6.7,3-6.7,6.4c0,3.5,3,6.4,6.7,6.4h10.2V400z M705.9,386.8v13.4
	c0,0.2-0.2,0.5-0.5,0.5H695c-4,0-7.4-3.2-7.4-7.2c0-4,3.2-7.2,7.4-7.2h10.4C705.7,386.3,705.9,386.3,705.9,386.8"/>
<path class="st2" d="M695,393.3c0,1,0.7,1.7,1.7,1.7c1,0,1.7-0.7,1.7-1.7c0-1-0.7-1.7-1.7-1.7C695.8,391.5,695,392.5,695,393.3
	 M699.2,393.3c0,1.2-1,2.5-2.5,2.5c-1.2,0-2.5-1-2.5-2.5c0-1.2,1-2.5,2.5-2.5C698,391,699.2,392,699.2,393.3"/>
<path class="st3" d="M695,393.3c0,1,0.7,1.7,1.7,1.7c1,0,1.7-0.7,1.7-1.7c0-1-0.7-1.7-1.7-1.7C695.8,391.5,695,392.5,695,393.3z
	 M699.2,393.3c0,1.2-1,2.5-2.5,2.5c-1.2,0-2.5-1-2.5-2.5c0-1.2,1-2.5,2.5-2.5C698,391,699.2,392,699.2,393.3z"/>
<polygon class="st2" points="704.2,398.5 703.9,399.2 699.5,396 699.7,395.5 "/>
<polygon class="st3" points="704.2,398.5 703.9,399.2 699.5,396 699.7,395.5 "/>
<polygon class="st2" points="704.2,388.3 699.7,391.5 699.5,391 703.7,387.8 "/>
<polygon class="st3" points="704.2,388.3 699.7,391.5 699.5,391 703.7,387.8 "/>
<path class="st2" d="M710.9,399.7c0,1.5,1.2,2.5,2.7,2.5h3.7c1.5,0,2.7-1.2,2.7-2.5v-12.9c0-1.5-1.2-2.5-2.7-2.5h-3.7
	c-1.5,0-2.7,1.2-2.7,2.5V399.7z M720.3,387.1V400c0,1.7-1.5,3.2-3.2,3.2h-3.7c-1.7,0-3.2-1.5-3.2-3.2v-12.9c0-1.7,1.5-3.2,3.2-3.2
	h3.7C718.8,383.9,720.3,385.1,720.3,387.1"/>
<path class="st3" d="M710.9,399.7c0,1.5,1.2,2.5,2.7,2.5h3.7c1.5,0,2.7-1.2,2.7-2.5v-12.9c0-1.5-1.2-2.5-2.7-2.5h-3.7
	c-1.5,0-2.7,1.2-2.7,2.5V399.7z M720.3,387.1V400c0,1.7-1.5,3.2-3.2,3.2h-3.7c-1.7,0-3.2-1.5-3.2-3.2v-12.9c0-1.7,1.5-3.2,3.2-3.2
	h3.7C718.8,383.9,720.3,385.1,720.3,387.1z"/>
<path class="st2" d="M714.3,393.3c0,0.5,0.5,1,1,1c0.5,0,1-0.5,1-1c0-0.5-0.5-1-1-1C714.6,392.3,714.3,392.8,714.3,393.3 M717,393.3
	c0,1-0.7,1.7-1.7,1.7c-1,0-1.7-0.7-1.7-1.7c0-1,0.7-1.7,1.7-1.7C716.1,391.8,717,392.5,717,393.3"/>
<path class="st3" d="M714.3,393.3c0,0.5,0.5,1,1,1c0.5,0,1-0.5,1-1c0-0.5-0.5-1-1-1C714.6,392.3,714.3,392.8,714.3,393.3z
	 M717,393.3c0,1-0.7,1.7-1.7,1.7c-1,0-1.7-0.7-1.7-1.7c0-1,0.7-1.7,1.7-1.7C716.1,391.8,717,392.5,717,393.3z"/>
<path class="st2" d="M685.8,448.5c5.2,0,9.4-4.2,9.4-9.7v-9.9c0-0.7-0.7-1.5-1.5-1.5h-21.5c-0.7,0-1.5,0.7-1.5,1.5v10.2
	c0,5.2,4.2,9.7,9.7,9.7h5.4V448.5z M672.5,426.9H694c1,0,2,1,2,2v10.2c0,5.4-4.5,10.2-10.2,10.2h-5.4c-5.4,0-10.2-4.5-10.2-10.2
	v-10.2C670.5,427.7,671.2,426.9,672.5,426.9"/>
<path class="st3" d="M685.8,448.5c5.2,0,9.4-4.2,9.4-9.7v-9.9c0-0.7-0.7-1.5-1.5-1.5h-21.5c-0.7,0-1.5,0.7-1.5,1.5v10.2
	c0,5.2,4.2,9.7,9.7,9.7h5.4V448.5z M672.5,426.9H694c1,0,2,1,2,2v10.2c0,5.4-4.5,10.2-10.2,10.2h-5.4c-5.4,0-10.2-4.5-10.2-10.2
	v-10.2C670.5,427.7,671.2,426.9,672.5,426.9z"/>
<path class="st2" d="M685.8,446.3c4,0,7.2-3.2,7.2-7.2v-5.9c0-0.7-0.5-1.2-1.2-1.2h-17.1c-0.7,0-1.2,0.5-1.2,1.2v5.9
	c0,4,3.2,7.2,7.2,7.2H685.8z M674.5,431.4h17.1c1,0,1.7,0.7,1.7,1.7v5.9c0,4.2-3.5,7.7-7.7,7.7h-5.4c-4.2,0-7.7-3.5-7.7-7.7v-5.9
	C672.7,432.1,673.7,431.4,674.5,431.4"/>
<path class="st3" d="M685.8,446.3c4,0,7.2-3.2,7.2-7.2v-5.9c0-0.7-0.5-1.2-1.2-1.2h-17.1c-0.7,0-1.2,0.5-1.2,1.2v5.9
	c0,4,3.2,7.2,7.2,7.2H685.8z M674.5,431.4h17.1c1,0,1.7,0.7,1.7,1.7v5.9c0,4.2-3.5,7.7-7.7,7.7h-5.4c-4.2,0-7.7-3.5-7.7-7.7v-5.9
	C672.7,432.1,673.7,431.4,674.5,431.4z"/>
<path class="st2" d="M683.1,441.1c0.7,0,1.2-0.5,1.2-1.2c0-0.7-0.5-1.2-1.2-1.2c-0.7,0-1.2,0.5-1.2,1.2
	C681.9,440.6,682.6,441.1,683.1,441.1 M683.1,438.3c1,0,1.7,0.7,1.7,1.7c0,1-0.7,1.7-1.7,1.7c-1,0-1.7-0.7-1.7-1.7
	C681.4,439.1,682.1,438.3,683.1,438.3"/>
<path class="st3" d="M683.1,441.1c0.7,0,1.2-0.5,1.2-1.2c0-0.7-0.5-1.2-1.2-1.2c-0.7,0-1.2,0.5-1.2,1.2
	C681.9,440.6,682.6,441.1,683.1,441.1z M683.1,438.3c1,0,1.7,0.7,1.7,1.7c0,1-0.7,1.7-1.7,1.7c-1,0-1.7-0.7-1.7-1.7
	C681.4,439.1,682.1,438.3,683.1,438.3z"/>
<rect x="357.1" y="923.9" transform="matrix(0.9953 -9.698834e-02 9.698834e-02 0.9953 -87.8348 48.6854)" class="st4" width="199.6" height="7.9"/>
<path class="st3" d="M731.7,430.7c5.7,0,10.4,4.7,10.4,10.4v61.7c0,5.7-4.7,10.4-10.4,10.4h-13.9c-5.7,0-10.4-4.7-10.4-10.4v-61.7
	c0-5.7,4.7-10.4,10.4-10.4H731.7z"/>
<path class="st3" d="M728.4,436.4c5.7,0,10.4,4.7,10.4,10.4v50c0,5.7-4.7,10.4-10.4,10.4H721c-5.7,0-10.4-4.7-10.4-10.4v-50
	c0-5.7,4.7-10.4,10.4-10.4H728.4z"/>
<path class="st3" d="M730.4,443.3c2.7,0,5.2,2.2,5.2,5.2v50.3c0,2.7-2.2,5.2-5.2,5.2H719c-2.7,0-5.2-2.2-5.2-5.2v-50.3
	c0-2.7,2.2-5.2,5.2-5.2H730.4z"/>
<path class="st3" d="M724.7,494.8c0.8,0,1.5,0.7,1.5,1.5c0,0.8-0.7,1.5-1.5,1.5c-0.8,0-1.5-0.7-1.5-1.5
	C723.2,495.5,723.9,494.8,724.7,494.8z"/>
<line class="st3" x1="704.2" y1="424" x2="704.2" y2="519.6"/>
<rect x="548" y="144.2" class="st2" width="54.1" height="24.8"/>
<rect x="544.1" y="52.4" class="st2" width="15.9" height="374.6"/>
<rect x="547.7" y="166.4" class="st2" width="9.9" height="237.7"/>
<rect x="547.7" y="391.8" class="st2" width="9.9" height="37.1"/>
<rect x="701.2" y="144.2" class="st2" width="57" height="22.3"/>
<rect x="745.8" y="82.3" class="st2" width="24.8" height="775.1"/>
<rect x="707.1" y="833.1" class="st2" width="61.4" height="24"/>
<rect x="342" y="832.6" class="st2" width="57.1" height="24.8"/>
<rect x="349.6" y="503.2" class="st2" width="9.9" height="437.8"/>
<rect x="340" y="502" class="st2" width="12.1" height="439"/>
<rect x="347.1" y="519.4" class="st2" width="126.3" height="9.9"/>
<rect x="518" y="519.9" class="st2" width="39.6" height="9.9"/>
<polyline class="st1" points="727.4,368.3 744,368.3 744,416.8 727.4,416.8 "/>
<polyline class="st1" points="729.4,414.1 741.6,412.8 741.6,383.1 729.4,382.1 "/>
<polyline class="st1" points="729.4,379.7 741.6,378.7 741.6,372 729.4,371 "/>
<rect x="727.9" y="368.5" class="st2" width="19.6" height="49.3"/>
<rect x="730.9" y="371.2" class="st5" width="11.1" height="9.8"/>
<polygon class="st6" points="730.9,378.2 730.9,371.2 742.1,371.2 733.6,372.7 "/>
<rect x="730.9" y="384.1" class="st5" width="11.1" height="31.4"/>
<polygon class="st6" points="730.9,409.4 730.9,384.1 742.1,384.1 733.6,387.8 "/>
<path class="st2" d="M384.5,676.1c0.2,1,0.5,2,0.7,2.5c0.2,0.5,0.5,1.2,0.5,1.7c0.2,0.5,0.5,0.7,0.5,0.7c0.2,0.2,0.5,0.2,0.7,0.2
	v2.5c-0.2,0-0.7,0-0.7,0.2c-0.2,0.2-0.5,0.5-0.5,0.7c-0.2,0.5-0.5,1-0.7,1.7c-0.2,0.7-0.5,1.7-1,3h-4c0.2-1.2,0.5-2,0.7-3
	c0.2-0.7,0.5-1.5,0.7-2c0.2-0.5,0.5-1,0.7-1.2c0.2-0.2,0.5-0.5,1-0.7c0.5-0.2,0.7-0.2,1.5-0.2c-0.5,0-1-0.2-1.2-0.2
	c-0.2-0.2-0.7-0.5-1-0.7c-0.2-0.2-0.5-0.7-0.7-1.2c-0.2-0.5-0.5-1-0.5-1.7c-0.2-0.7-0.5-1.5-0.7-2.5h4V676.1z M388.7,684h-2v-2.5h2
	V684z M391.4,676.1v3.7v1.5c0,0.5-0.2,1-0.5,1.5c0.2,0.5,0.2,0.7,0.2,1.2c0,0.5,0.2,1,0.2,1.2v4.5H388v-4.5c0-0.5,0-0.7,0.2-1.2
	c0-0.5,0.2-1,0.2-1.2c-0.2-0.5-0.2-1-0.5-1.5c0-0.5-0.2-1-0.2-1.5v-3.7H391.4z M392.4,684h-2v-2.5h2V684z M398.4,676.1
	c-0.2,1-0.5,1.7-0.7,2.5c-0.2,0.7-0.5,1.2-0.5,1.7c-0.2,0.5-0.5,0.7-0.7,1.2c-0.2,0.2-0.5,0.5-1,0.7c-0.2,0.2-0.7,0.2-1.2,0.2
	c0.5,0,1,0.2,1.5,0.2s0.7,0.5,1,0.7s0.5,0.7,0.7,1.2c0.2,0.5,0.5,1.2,0.7,2c0.2,0.7,0.5,1.7,0.7,3h-4c-0.5-1.2-0.7-2.2-1-3
	c-0.2-0.7-0.5-1.5-0.7-1.7c-0.2-0.5-0.5-0.7-0.5-0.7c-0.2-0.2-0.5-0.2-0.7-0.2v-2.5c0.2,0,0.7,0,0.7-0.2c0.2-0.2,0.5-0.5,0.5-0.7
	c0.2-0.5,0.5-1,0.5-1.7c0-0.7,0.5-1.5,0.7-2.5h4V676.1z"/>
<path class="st2" d="M410.2,680v9.9H407v-4.5v-0.7v-1c0,0.2-0.2,0.5-0.2,1s-0.2,0.5-0.5,0.7l-3,4.5h-3.2V680h3.2v4.7v0.7v0.7
	c0-0.2,0.2-0.5,0.2-0.7c0.2-0.2,0.2-0.5,0.5-0.7l3.2-4.7H410.2z"/>
<path class="st2" d="M422.1,680v2.5h-4.2c-0.2,0-0.5,0-0.7,0.2c-0.2,0.2-0.2,0.2-0.2,0.5c0,0.5,0,1-0.2,1.5c0,0.5-0.2,1-0.2,1.5
	s-0.2,0.7-0.2,1.2c-0.2,0.7-0.5,1.5-1,1.7c-0.5,0.2-1,0.7-1.7,0.7h-2l-0.2-2.7c0.2,0,0.5,0,0.7-0.2c0.2,0,0.5,0,0.5-0.2
	c0.2,0,0.2-0.2,0.2-0.5c0-0.2,0-0.5,0.2-0.7c0-0.2,0-0.5,0.2-1c0.2-0.5,0-0.7,0-1v-1.2c0-0.7,0.2-1.5,0.7-2c0.5-0.5,1-0.7,2-0.7h6.2
	V680z M422.4,689.9h-3.5V680h3.5V689.9z"/>
<path class="st2" d="M432.5,683.7v1.7h-4.2c-0.2,0-0.5,0-0.7,0.2c-0.2,0.2-0.2,0.2-0.2,0.5v0.5c0,0.2,0,0.5,0.2,0.5
	c0.2,0.2,0.5,0.2,0.7,0.2c0.2,0,0.7,0,1-0.2c0.2-0.2,0.7-0.2,1-0.5c0.2-0.2,0.7-0.5,1-0.7v1.2c0,0.2-0.2,0.5-0.5,0.7
	c-0.2,0.2-0.5,0.7-0.7,1c-0.2,0.2-0.7,0.5-1.2,0.7c-0.5,0.2-1,0.2-1.7,0.2c-0.5,0-1.2,0-1.7-0.2c-0.5-0.2-1-0.5-1.2-1
	c-0.2-0.5-0.5-1-0.5-1.5v-1c0-0.7,0.2-1.5,0.7-1.7c0.5-0.2,1.2-0.7,2.2-0.7H432.5z M429.8,679.5c1,0,1.7,0,2.2,0.2
	c0.5,0.2,1,0.7,1.5,1.2c0.5,0.5,0.5,1.2,0.5,2.2v6.2h-3l-0.5-2.2l-0.2-0.2v-3.7c0-0.5,0-0.7-0.2-1c-0.2-0.2-0.5-0.2-1-0.2h-2h-2.5
	l-0.2-2.2c0.5,0,1-0.2,1.7-0.2c0.7,0,1.2-0.2,2-0.2C428.8,679.8,429.3,679.5,429.8,679.5"/>
<path class="st2" d="M440.2,679.8h2.2h1.5h1.2l-0.2,2.5h-1.5h-3.2c-0.5,0-0.7,0-1,0.2c-0.2,0.2-0.2,0.2-0.2,0.7s0,0.7,0.2,1
	c0.2,0.2,0.5,0.2,1,0.2h4.7v2.2h-1h-1.5h-2.2h-0.7c-0.2,0-0.2,0.2-0.2,0.5l-0.5,2.7H435l0.7-3.2c0-0.2,0.2-0.5,0.5-0.7
	c0.2-0.2,0.5-0.2,0.7-0.2h0.7c-0.5,0-1-0.2-1.2-0.5c-0.2-0.2-0.5-0.5-0.7-1c-0.2-0.2-0.2-0.7-0.2-1.2c0-0.5,0-1.2,0.2-1.5
	c0.2-0.5,0.2-0.7,0.7-1c0.5-0.2,0.7-0.5,1.5-0.5C438.7,680,439.5,679.8,440.2,679.8 M445.4,689.7h-3.5v-9.9h3.5V689.7z"/>
<path class="st2" d="M455.3,680v2.2c0,0.5,0,0.7-0.2,1.2c0,0.5-0.2,0.7-0.5,1.2c0.2,0.2,0.2,0.7,0.2,1c0,0.5,0.2,0.7,0.2,1v3.2h-3.5
	V680H455.3z M456.3,685.7h-2v-2.2h2V685.7z M461.5,680c-0.2,0.7-0.5,1.5-0.7,2c-0.2,0.5-0.2,1-0.5,1.2c-0.2,0.2-0.2,0.5-0.5,0.7
	c-0.2,0.2-0.5,0.2-0.7,0.5c-0.2,0-0.7,0.2-1,0.2c0.5,0,0.7,0.2,1.2,0.2c0.2,0,0.5,0.2,0.7,0.5c0.2,0.2,0.5,0.5,0.5,0.7
	c0,0.2,0.2,0.7,0.5,1.5c0.2,0.5,0.5,1.5,0.7,2.2H458c-0.2-0.7-0.5-1.5-0.5-2c-0.2-0.5-0.2-1-0.5-1.2c0-0.2-0.2-0.5-0.5-0.5
	c-0.2,0-0.2-0.2-0.5-0.2h-0.7v-2.2h0.7c0.2,0,0.5-0.2,0.5-0.5c0.2-0.2,0.2-0.5,0.5-1c0.2-0.5,0.2-1.2,0.5-2h4V680z"/>
<path class="st2" d="M467.9,679.5c1.2,0,2.2,0.2,3.2,0.5c1,0.2,1.2,1,1.7,1.7c0.5,0.7,0.5,1.7,0.5,3c0,1.2-0.2,2.2-0.5,3
	c-0.2,0.7-1,1.2-1.7,1.7c-0.7,0.2-1.7,0.5-3.2,0.5c-1.2,0-2.2-0.2-3-0.5c-0.7-0.2-1.2-1-1.7-1.7c-0.2-0.7-0.5-1.7-0.5-3
	c0-1.2,0.2-2.2,0.5-3c0.2-0.7,1-1.2,1.7-1.7C465.7,679.5,466.7,679.5,467.9,679.5 M467.9,682.2c-0.5,0-0.7,0-1,0.2
	c-0.2,0.2-0.5,0.5-0.5,0.7c0,0.5-0.2,1-0.2,1.7c0,0.7,0,1.2,0.2,1.7c0,0.5,0.2,0.7,0.5,0.7c0.2,0.2,0.5,0.2,1,0.2c0.5,0,0.7,0,1-0.2
	c0.2-0.2,0.5-0.5,0.5-0.7c0-0.5,0.2-1,0.2-1.7c0-0.7,0-1.2-0.2-1.7c0-0.5-0.2-0.7-0.5-0.7C468.7,682.5,468.4,682.2,467.9,682.2"/>
<path class="st2" d="M487.5,680c0.7,0,1.2,0.5,1.2,1.2l0.2,8.7h-3.2l-0.2-7.2h-0.2l-1.2,4.7c0,0.2-0.2,0.7-0.5,0.7
	c-0.2,0.2-0.5,0.2-1,0.2h-1.5c-0.2,0-0.7,0-1-0.2c-0.2-0.2-0.5-0.5-0.5-0.7l-1.2-4.7h-0.2l-0.2,7.2h-3.2l0.2-8.7
	c0-0.7,0.5-1.2,1.2-1.2h3c0.2,0,0.7,0,1,0.2c0.2,0.2,0.5,0.5,0.5,0.7l1,3.7c0,0.2,0,0.5,0.2,0.7c0.2,0.2,0,0.5,0,0.7h0.2v-0.7
	c0-0.2,0-0.5,0.2-0.7l1-3.7c0-0.7,0.5-1.2,1.2-1.2h3V680z"/>
<path class="st2" d="M494.4,689.9H491V680h3.5V689.9z M497.7,686h-3.5v-2.5h3.5V686z M500.9,689.9h-3.5V680h3.5V689.9z"/>
<path class="st2" d="M511.3,683.7v1.7h-4.2c-0.2,0-0.5,0-0.7,0.2c-0.2,0.2-0.2,0.2-0.2,0.5v0.5c0,0.2,0,0.5,0.2,0.5
	c0.2,0.2,0.5,0.2,0.7,0.2c0.2,0,0.7,0,1-0.2c0.2-0.2,0.7-0.2,1-0.5c0.2-0.2,0.7-0.5,1-0.7v1.2c0,0.2-0.2,0.5-0.5,0.7
	c-0.2,0.2-0.5,0.7-0.7,1c-0.2,0.2-0.7,0.5-1.2,0.7c-0.5,0.2-1,0.2-1.7,0.2c-0.5,0-1.2,0-1.7-0.2c-0.5-0.2-1-0.5-1.2-1
	c-0.2-0.5-0.5-1-0.5-1.5v-1c0-0.7,0.2-1.5,0.7-1.7c0.5-0.2,1.2-0.7,2.2-0.7H511.3z M508.5,679.5c1,0,1.7,0,2.2,0.2
	c0.5,0.2,1,0.7,1.5,1.2c0.5,0.5,0.5,1.2,0.5,2.2v6.2h-3l-0.5-2.2L509,687v-3.7c0-0.5,0-0.7-0.2-1c-0.2-0.2-0.5-0.2-1-0.2h-2h-2.5
	l-0.2-2.2c0.5,0,1-0.2,1.7-0.2c0.7,0,1.2-0.2,2-0.2C507.6,679.8,508.1,679.5,508.5,679.5"/>
<path class="st2" d="M523.7,682.7h-9.9V680h9.9V682.7z M520.7,689.9h-3.5V680h3.5V689.9z"/>
<path class="st2" d="M533.3,683.7v1.7h-4.2c-0.2,0-0.5,0-0.7,0.2c-0.2,0.2-0.2,0.2-0.2,0.5v0.5c0,0.2,0,0.5,0.2,0.5
	c0.2,0.2,0.5,0.2,0.7,0.2c0.2,0,0.7,0,1-0.2c0.2-0.2,0.7-0.2,1-0.5c0.2-0.2,0.7-0.5,1-0.7v1.2c0,0.2-0.2,0.5-0.5,0.7
	c-0.2,0.2-0.5,0.7-0.7,1c-0.2,0.2-0.7,0.5-1.2,0.7c-0.5,0.2-1,0.2-1.7,0.2c-0.5,0-1.2,0-1.7-0.2c-0.5-0.2-1-0.5-1.2-1
	c-0.2-0.5-0.5-1-0.5-1.5v-1c0-0.7,0.2-1.5,0.7-1.7c0.5-0.2,1.2-0.7,2.2-0.7H533.3z M530.6,679.5c1,0,1.7,0,2.2,0.2
	c0.5,0.2,1,0.7,1.5,1.2c0.5,0.5,0.5,1.2,0.5,2.2v6.2h-3l-0.5-2.2l-0.2-0.2v-3.7c0-0.5,0-0.7-0.2-1c-0.2-0.2-0.5-0.2-1-0.2h-2h-2.5
	l-0.2-2.2c0.5,0,1-0.2,1.7-0.2c0.7,0,1.2-0.2,2-0.2C529.6,679.8,530.1,679.5,530.6,679.5"/>
<path class="st2" d="M583.1,728.8c0.2,1,0.5,2,0.7,2.5c0.2,0.5,0.5,1.2,0.5,1.7c0.2,0.5,0.5,0.7,0.5,0.7c0.2,0.2,0.5,0.2,0.7,0.2
	v2.5c-0.2,0-0.7,0-0.7,0.2c-0.2,0.2-0.5,0.5-0.5,0.7c-0.2,0.5-0.5,1-0.7,1.7c-0.2,0.7-0.5,1.7-1,3h-4c0.2-1.2,0.5-2,0.7-3
	c0.2-0.7,0.5-1.5,0.7-2c0.2-0.5,0.5-1,0.7-1.2c0.2-0.2,0.5-0.5,1-0.7c0.5-0.2,0.7-0.2,1.5-0.2c-0.5,0-1-0.2-1.2-0.2
	c-0.2-0.2-0.7-0.5-1-0.7c-0.2-0.2-0.5-0.7-0.7-1.2c-0.2-0.5-0.5-1-0.5-1.7c-0.2-0.7-0.5-1.5-0.7-2.5h4V728.8z M587.4,736.7h-2v-2.5
	h2V736.7z M590.1,728.8v3.7v1.5c0,0.5-0.2,1-0.5,1.5c0.2,0.5,0.2,0.7,0.2,1.2s0.2,1,0.2,1.2v4.5h-3.5V738c0-0.5,0-0.7,0.2-1.2
	c0-0.5,0.2-1,0.2-1.2c-0.2-0.5-0.2-1-0.5-1.5c0-0.5-0.2-1-0.2-1.5v-3.7H590.1z M591.1,736.7h-2v-2.5h2V736.7z M597,728.8
	c-0.2,1-0.5,1.7-0.7,2.5c-0.2,0.7-0.5,1.2-0.5,1.7c-0.2,0.5-0.5,0.7-0.7,1.2c-0.2,0.2-0.5,0.5-1,0.7c-0.2,0.2-0.7,0.2-1.2,0.2
	c0.5,0,1,0.2,1.5,0.2c0.5,0,0.7,0.5,1,0.7c0.2,0.2,0.5,0.7,0.7,1.2c0.2,0.5,0.5,1.2,0.7,2c0.2,0.7,0.5,1.7,0.7,3h-4
	c-0.5-1.2-0.7-2.2-1-3c-0.2-0.7-0.5-1.5-0.7-1.7c-0.2-0.5-0.5-0.7-0.5-0.7c-0.2-0.2-0.5-0.2-0.7-0.2v-2.5c0.2,0,0.7,0,0.7-0.2
	c0.2-0.2,0.5-0.5,0.5-0.7c0.2-0.5,0.5-1,0.5-1.7c0-0.7,0.5-1.5,0.7-2.5h4V728.8z"/>
<path class="st2" d="M608.9,732.8v9.9h-3.2v-4.5v-0.7v-1c0,0.2-0.2,0.5-0.2,1c0,0.5-0.2,0.5-0.5,0.7l-3,4.5h-3.2v-9.9h3.2v4.7v0.7
	v0.7c0-0.2,0.2-0.5,0.2-0.7c0.2-0.2,0.2-0.5,0.5-0.7l3.2-4.7H608.9z"/>
<path class="st2" d="M620.8,732.8v2.5h-4.2c-0.2,0-0.5,0-0.7,0.2c-0.2,0.2-0.2,0.2-0.2,0.5c0,0.5,0,1-0.2,1.5c0,0.5-0.2,1-0.2,1.5
	c0,0.5-0.2,0.7-0.2,1.2c-0.2,0.7-0.5,1.5-1,1.7c-0.5,0.2-1,0.7-1.7,0.7h-2l-0.2-2.7c0.2,0,0.5,0,0.7-0.2c0.2,0,0.5,0,0.5-0.2
	c0.2,0,0.2-0.2,0.2-0.5c0-0.2,0-0.5,0.2-0.7c0-0.2,0-0.5,0.2-1c0.2-0.5,0-0.7,0-1V735c0-0.7,0.2-1.5,0.7-2c0.5-0.5,1-0.7,2-0.7h6.2
	V732.8z M621,742.7h-3.5v-9.9h3.5V742.7z"/>
<path class="st2" d="M631.2,736.5v1.7H627c-0.2,0-0.5,0-0.7,0.2c-0.2,0.2-0.2,0.2-0.2,0.5v0.5c0,0.2,0,0.5,0.2,0.5
	c0.2,0.2,0.5,0.2,0.7,0.2c0.2,0,0.7,0,1-0.2c0.2-0.2,0.7-0.2,1-0.5c0.2-0.2,0.7-0.5,1-0.7v1.2c0,0.2-0.2,0.5-0.5,0.7
	c-0.2,0.2-0.5,0.7-0.7,1c-0.2,0.2-0.7,0.5-1.2,0.7c-0.5,0.2-1,0.2-1.7,0.2c-0.5,0-1.2,0-1.7-0.2c-0.5-0.2-1-0.5-1.2-1
	c-0.2-0.5-0.5-1-0.5-1.5v-1c0-0.7,0.2-1.5,0.7-1.7c0.5-0.2,1.2-0.7,2.2-0.7H631.2z M628.5,732.3c1,0,1.7,0,2.2,0.2
	c0.5,0.2,1,0.7,1.5,1.2c0.5,0.5,0.5,1.2,0.5,2.2v6.2h-3l-0.5-2.2l-0.2-0.2V736c0-0.5,0-0.7-0.2-1c-0.2-0.2-0.5-0.2-1-0.2h-2h-2.5
	l-0.2-2.2c0.5,0,1-0.2,1.7-0.2c0.7,0,1.2-0.2,2-0.2C627.5,732.5,628,732.3,628.5,732.3"/>
<path class="st2" d="M638.9,732.5h2.2h1.5h1.2l-0.2,2.5h-1.5h-3.2c-0.5,0-0.7,0-1,0.2c-0.2,0.2-0.2,0.2-0.2,0.7c0,0.5,0,0.7,0.2,1
	c0.2,0.2,0.5,0.2,1,0.2h4.7v2.2h-1h-1.5h-2.2h-0.7c-0.2,0-0.2,0.2-0.2,0.5l-0.5,2.7h-3.7l0.7-3.2c0-0.2,0.2-0.5,0.5-0.7
	c0.2-0.2,0.5-0.2,0.7-0.2h0.7c-0.5,0-1-0.2-1.2-0.5c-0.2-0.2-0.5-0.5-0.7-1c-0.2-0.2-0.2-0.7-0.2-1.2c0-0.5,0-1.2,0.2-1.5
	c0.2-0.5,0.2-0.7,0.7-1c0.5-0.2,0.7-0.5,1.5-0.5C637.4,732.8,638.1,732.5,638.9,732.5 M644.1,742.4h-3.5v-9.9h3.5V742.4z"/>
<path class="st2" d="M654,732.8v2.2c0,0.5,0,0.7-0.2,1.2c0,0.5-0.2,0.7-0.5,1.2c0.2,0.2,0.2,0.7,0.2,1c0,0.5,0.2,0.7,0.2,1v3.2h-3.5
	v-9.9H654z M655,738.5h-2v-2.2h2V738.5z M660.2,732.8c-0.2,0.7-0.5,1.5-0.7,2c-0.2,0.5-0.2,1-0.5,1.2c-0.2,0.2-0.2,0.5-0.5,0.7
	c-0.2,0.2-0.5,0.2-0.7,0.5c-0.2,0-0.7,0.2-1,0.2c0.5,0,0.7,0.2,1.2,0.2c0.2,0,0.5,0.2,0.7,0.5c0.2,0.2,0.5,0.5,0.5,0.7
	c0,0.2,0.2,0.7,0.5,1.5c0.2,0.5,0.5,1.5,0.7,2.2h-3.7c-0.2-0.7-0.5-1.5-0.5-2c-0.2-0.5-0.2-1-0.5-1.2c0-0.2-0.2-0.5-0.5-0.5
	c-0.2,0-0.2-0.2-0.5-0.2H654v-2.2h0.7c0.2,0,0.5-0.2,0.5-0.5c0.2-0.2,0.2-0.5,0.5-1c0.2-0.5,0.2-1.2,0.5-2h4V732.8z"/>
<path class="st2" d="M666.6,732.3c1.2,0,2.2,0.2,3.2,0.5c1,0.2,1.2,1,1.7,1.7c0.5,0.7,0.5,1.7,0.5,3c0,1.2-0.2,2.2-0.5,3
	c-0.2,0.7-1,1.2-1.7,1.7c-0.7,0.2-1.7,0.5-3.2,0.5c-1.2,0-2.2-0.2-3-0.5c-0.7-0.2-1.2-1-1.7-1.7c-0.2-0.7-0.5-1.7-0.5-3
	c0-1.2,0.2-2.2,0.5-3c0.2-0.7,1-1.2,1.7-1.7C664.4,732.3,665.4,732.3,666.6,732.3 M666.6,735c-0.5,0-0.7,0-1,0.2
	c-0.2,0.2-0.5,0.5-0.5,0.7c0,0.5-0.2,1-0.2,1.7c0,0.7,0,1.2,0.2,1.7c0,0.5,0.2,0.7,0.5,0.7c0.2,0.2,0.5,0.2,1,0.2c0.5,0,0.7,0,1-0.2
	c0.2-0.2,0.5-0.5,0.5-0.7c0-0.5,0.2-1,0.2-1.7c0-0.7,0-1.2-0.2-1.7c0-0.5-0.2-0.7-0.5-0.7C667.3,735.2,667.1,735,666.6,735"/>
<path class="st2" d="M686.2,732.8c0.7,0,1.2,0.5,1.2,1.2l0.2,8.7h-3.2l-0.2-7.2h-0.2l-1.2,4.7c0,0.2-0.2,0.7-0.5,0.7
	c-0.2,0.2-0.5,0.2-1,0.2h-1.5c-0.2,0-0.7,0-1-0.2c-0.2-0.2-0.5-0.5-0.5-0.7l-1.2-4.7h-0.2l-0.2,7.2h-3.2l0.2-8.7
	c0-0.7,0.5-1.2,1.2-1.2h3c0.2,0,0.7,0,1,0.2c0.2,0.2,0.5,0.5,0.5,0.7l1,3.7c0,0.2,0,0.5,0.2,0.7c0.2,0.2,0,0.5,0,0.7h0.2v-0.7
	c0-0.2,0-0.5,0.2-0.7l1-3.7c0-0.7,0.5-1.2,1.2-1.2h3V732.8z"/>
<path class="st2" d="M693.1,742.7h-3.5v-9.9h3.5V742.7z M696.3,738.7h-3.5v-2.5h3.5V738.7z M699.5,742.7h-3.5v-9.9h3.5V742.7z"/>
<path class="st2" d="M709.9,736.5v1.7h-4.2c-0.2,0-0.5,0-0.7,0.2c-0.2,0.2-0.2,0.2-0.2,0.5v0.5c0,0.2,0,0.5,0.2,0.5
	c0.2,0.2,0.5,0.2,0.7,0.2c0.2,0,0.7,0,1-0.2c0.2-0.2,0.7-0.2,1-0.5c0.2-0.2,0.7-0.5,1-0.7v1.2c0,0.2-0.2,0.5-0.5,0.7
	c-0.2,0.2-0.5,0.7-0.7,1c-0.2,0.2-0.7,0.5-1.2,0.7c-0.5,0.2-1,0.2-1.7,0.2c-0.5,0-1.2,0-1.7-0.2c-0.5-0.2-1-0.5-1.2-1
	c-0.2-0.5-0.5-1-0.5-1.5v-1c0-0.7,0.2-1.5,0.7-1.7c0.5-0.2,1.2-0.7,2.2-0.7H709.9z M707.2,732.3c1,0,1.7,0,2.2,0.2
	c0.5,0.2,1,0.7,1.5,1.2c0.5,0.5,0.5,1.2,0.5,2.2v6.2h-3l-0.5-2.2l-0.2-0.2V736c0-0.5,0-0.7-0.2-1c-0.2-0.2-0.5-0.2-1-0.2h-2H702
	l-0.2-2.2c0.5,0,1-0.2,1.7-0.2c0.7,0,1.2-0.2,2-0.2C706.2,732.5,706.7,732.3,707.2,732.3"/>
<path class="st2" d="M722.3,735.5h-9.9v-2.7h9.9V735.5z M719.3,742.7h-3.5v-9.9h3.5V742.7z"/>
<path class="st2" d="M732,736.5v1.7h-4.2c-0.2,0-0.5,0-0.7,0.2c-0.2,0.2-0.2,0.2-0.2,0.5v0.5c0,0.2,0,0.5,0.2,0.5
	c0.2,0.2,0.5,0.2,0.7,0.2c0.2,0,0.7,0,1-0.2c0.2-0.2,0.7-0.2,1-0.5c0.2-0.2,0.7-0.5,1-0.7v1.2c0,0.2-0.2,0.5-0.5,0.7
	c-0.2,0.2-0.5,0.7-0.7,1c-0.2,0.2-0.7,0.5-1.2,0.7c-0.5,0.2-1,0.2-1.7,0.2c-0.5,0-1.2,0-1.7-0.2c-0.5-0.2-1-0.5-1.2-1
	c-0.2-0.5-0.5-1-0.5-1.5v-1c0-0.7,0.2-1.5,0.7-1.7c0.5-0.2,1.2-0.7,2.2-0.7H732z M729.2,732.3c1,0,1.7,0,2.2,0.2
	c0.5,0.2,1,0.7,1.5,1.2c0.5,0.5,0.5,1.2,0.5,2.2v6.2h-3l-0.5-2.2l-0.2-0.2V736c0-0.5,0-0.7-0.2-1c-0.2-0.2-0.5-0.2-1-0.2h-2H724
	l-0.2-2.2c0.5,0,1-0.2,1.7-0.2c0.7,0,1.2-0.2,2-0.2C728.3,732.5,728.7,732.3,729.2,732.3"/>
<path class="st2" d="M409.3,463.3h-3.7v-13.6h3.7V463.3z M413.5,452.2H409v-2.5h4.5V452.2z M416.9,463.3h-3.7v-13.6h3.7V463.3z"/>
<path class="st2" d="M422.1,453.7l0.2,1.7l0.2,0.2v6.4v0.2v1.2v1.2v2.2h-3.5v-13.4H422.1z M426.3,453.4c1.2,0,2.2,0.5,2.7,1.5
	c0.5,1,0.7,2.2,0.7,4c0,1.2-0.2,2.5-0.5,3.2c-0.2,0.7-0.7,1.2-1.2,1.5c-0.5,0.2-1.2,0.5-2,0.5c-0.7,0-1.5,0-2-0.2
	c-0.7-0.2-1.2-0.5-1.7-1l0.2-1.5c0.2,0,0.7,0.2,1,0.2c0.2,0,0.7,0.2,1,0.2c0.2,0,0.5,0,0.7-0.2c0.2-0.2,0.2-0.5,0.5-0.7
	c0.2-0.2,0.2-1,0.2-1.7c0-0.7,0-1.2-0.2-1.7c0-0.5-0.2-0.7-0.5-0.7c-0.2,0-0.5-0.2-0.7-0.2c-0.5,0-0.7,0-1,0.2c-0.2,0-0.5,0.2-1,0.5
	l-0.5-1.5c0.2-0.2,0.5-0.7,1-1c0.5-0.2,0.7-0.5,1.2-0.7C425.1,453.4,425.6,453.4,426.3,453.4"/>
<path class="st2" d="M441.7,453.7v9.9h-3.2v-4.5v-0.7v-1c0,0.2-0.2,0.5-0.2,1c-0.2,0.2-0.2,0.5-0.5,0.7l-3,4.5h-3.2v-9.9h3.2v4.7
	v0.7v0.7c0-0.2,0.2-0.5,0.2-0.7c0.2-0.2,0.2-0.5,0.5-0.7l3.2-4.7H441.7z"/>
<path class="st2" d="M446.6,453.7l2.5,4.7l-2.7,5h-3.7l3-5l-2.7-4.7H446.6z M450.4,459.4h-3.7v-2h3.7V459.4z M454.1,453.7l-2.7,4.7
	l3,5h-3.7l-2.7-5l2.5-4.7H454.1z"/>
<path class="st2" d="M460,453.2c1.2,0,2.2,0.2,3.2,0.5c1,0.2,1.2,1,1.7,1.7c0.5,0.7,0.5,1.7,0.5,3c0,1.2-0.2,2.2-0.5,3
	c-0.2,0.7-1,1.2-1.7,1.7c-0.7,0.2-1.7,0.5-3.2,0.5c-1.2,0-2.2-0.2-3-0.5c-0.7-0.2-1.2-1-1.7-1.7c-0.2-0.7-0.5-1.7-0.5-3
	c0-1.2,0.2-2.2,0.5-3c0.2-0.7,1-1.2,1.7-1.7C457.8,453.2,458.8,453.2,460,453.2 M460,455.9c-0.5,0-0.7,0-1,0.2
	c-0.2,0.2-0.5,0.5-0.5,0.7c0,0.5-0.2,1-0.2,1.7c0,0.7,0,1.2,0.2,1.7c0,0.5,0.2,0.7,0.5,0.7c0.2,0,0.5,0.2,1,0.2c0.5,0,0.7,0,1-0.2
	c0.2-0.2,0.5-0.5,0.5-0.7c0-0.5,0.2-1,0.2-1.7c0-0.7,0-1.2-0.2-1.7c0-0.5-0.2-0.7-0.5-0.7C460.8,455.9,460.5,455.9,460,455.9"/>
<path class="st2" d="M469.9,453.7c0.2,0.7,0.5,1.5,0.7,2c0.2,0.5,0.2,0.7,0.5,1c0.2,0.2,0.2,0.5,0.5,0.5h0.5v2.2h-0.5
	c-0.2,0-0.2,0.2-0.5,0.5c-0.2,0.2-0.2,0.7-0.5,1.2c-0.2,0.5-0.5,1.2-0.7,2.2h-3.7c0.2-1,0.5-1.7,0.7-2.2c0.2-0.5,0.5-1,0.5-1.5
	c0.2-0.2,0.5-0.5,0.5-0.7c0.2-0.2,0.5-0.2,0.7-0.5c0.2,0,0.7-0.2,1.2-0.2c-0.5,0-0.7-0.2-1.2-0.2c-0.2,0-0.5-0.2-0.7-0.5
	c-0.2-0.2-0.2-0.5-0.5-0.7c-0.2-0.2-0.2-0.7-0.5-1.2c-0.2-0.5-0.5-1.2-0.7-2h3.7V453.7z M473.4,459.4h-1.7v-2.2h1.7V459.4z
	 M475.9,453.7v2.5c0,0.5,0,0.7-0.2,1.2c0,0.5-0.2,0.7-0.5,1.2c0.2,0.2,0.2,0.7,0.2,1c0,0.5,0.2,0.7,0.2,1v3.2h-3.2v-3.2
	c0-0.2,0-0.7,0.2-1c0.2-0.2,0.2-0.7,0.2-1c-0.2-0.2-0.2-0.7-0.2-1.2v-1.2v-2.5H475.9z M476.9,459.4h-1.7v-2.2h1.7V459.4z
	 M482.1,453.7c-0.2,0.7-0.5,1.5-0.7,2c-0.2,0.5-0.2,1-0.5,1.2c-0.2,0.2-0.2,0.5-0.5,0.7c-0.2,0.2-0.5,0.2-0.7,0.5
	c-0.2,0-0.7,0.2-1.2,0.2c0.5,0,1,0.2,1.2,0.2c0.2,0,0.5,0.2,0.7,0.5c0.2,0.2,0.5,0.5,0.5,0.7c0.2,0.2,0.2,0.7,0.5,1.5
	c0.2,0.7,0.5,1.2,0.7,2.2h-3.7c-0.2-1-0.5-1.7-0.7-2.2c-0.2-0.5-0.2-1-0.5-1.2c-0.2-0.2-0.2-0.5-0.5-0.5h-0.5v-2.2h0.7
	c0.2,0,0.2-0.2,0.5-0.5c0.2-0.2,0.2-0.5,0.5-1c0.2-0.5,0.5-1.2,0.7-2h3.5V453.7z"/>
<path class="st2" d="M491.7,457.4v1.7h-4.2c-0.2,0-0.5,0-0.7,0.2c-0.2,0.2-0.2,0.2-0.2,0.5v0.5c0,0.2,0,0.5,0.2,0.5
	c0.2,0,0.5,0.2,0.7,0.2c0.2,0,0.7,0,1-0.2c0.2-0.2,0.7-0.2,1-0.5c0.2-0.2,0.7-0.5,1-0.7v1.2c0,0.2-0.2,0.5-0.5,0.7
	c-0.2,0.2-0.5,0.7-0.7,1c-0.2,0.2-0.7,0.5-1.2,0.7c-0.5,0.2-1,0.2-1.7,0.2c-0.5,0-1.2,0-1.7-0.2c-0.5-0.2-1-0.5-1.2-1
	c-0.2-0.5-0.5-1-0.5-1.5v-1c0-0.7,0.2-1.5,0.7-1.7c0.5-0.2,1.2-0.7,2.2-0.7H491.7z M489,453.2c1,0,1.7,0,2.2,0.2
	c0.5,0.2,1,0.7,1.5,1.2c0.2,0.5,0.5,1.2,0.5,2.2v6.2h-3l-0.5-2.2l-0.2-0.2v-3.7c0-0.5,0-0.7-0.2-1c-0.2-0.2-0.5-0.2-1-0.2h-2h-2.5
	l-0.2-2.2c0.5,0,1-0.2,1.7-0.2c0.7,0,1.2-0.2,2-0.2C488,453.2,488.5,453.2,489,453.2"/>
<path class="st2" d="M499.6,453.4h2.2h1.5h1.2l-0.2,2.5h-1.5h-3.2c-0.5,0-0.7,0-1,0.2c-0.2,0.2-0.2,0.2-0.2,0.7c0,0.5,0,0.7,0.2,1
	c0.2,0.2,0.5,0.2,1,0.2h4.7v2.2h-1h-1.5h-2.2h-0.7c-0.2,0-0.2,0.2-0.2,0.5l-0.5,2.7h-3.7l0.7-3.2c0-0.2,0.2-0.5,0.5-0.7
	c0.2-0.2,0.5-0.2,0.7-0.2h0.7c-0.5,0-1-0.2-1.2-0.5c-0.2-0.2-0.5-0.5-0.7-1c-0.2-0.2-0.2-0.7-0.2-1.2c0-0.7,0-1.2,0.2-1.5
	c0.2-0.5,0.2-0.7,0.7-1c0.2-0.2,0.7-0.5,1.5-0.5C498.1,453.7,498.6,453.4,499.6,453.4 M504.6,463.3h-3.5v-9.9h3.5V463.3z"/>
<path class="st2" d="M539.3,438.3v3.7c0,0.5,0,1-0.2,1.5c0,0.5-0.2,1-0.5,1.5c0.2,0.5,0.2,0.7,0.2,1.2c0,0.5,0.2,1,0.2,1.2v4.5h-3.7
	v-13.6H539.3z M540.7,446h-2.5v-2.5h2.5V446z M546.9,438.3c-0.2,1-0.5,1.7-0.7,2.5c-0.2,0.7-0.5,1.2-0.5,1.7
	c-0.2,0.5-0.5,0.7-0.7,1.2c-0.2,0.2-0.5,0.5-1,0.7c-0.2,0.2-0.7,0.2-1.2,0.2c0.5,0,1,0.2,1.5,0.2c0.5,0.2,0.7,0.5,1,0.7
	c0.2,0.2,0.5,0.7,0.7,1.2c0.2,0.5,0.5,1.2,0.7,2c0.2,0.7,0.5,1.7,1,3h-4c-0.2-1.2-0.7-2.2-1-3c-0.2-0.7-0.5-1.5-0.7-1.7
	c-0.2-0.5-0.5-0.7-0.7-0.7c-0.2-0.2-0.7-0.2-1.2-0.2v-2.5c0.5,0,1,0,1.2-0.2c0.2-0.2,0.5-0.5,0.7-0.7c0.2-0.5,0.5-1,0.5-1.7
	c0-0.7,0.5-1.5,0.7-2.5h3.7V438.3z"/>
<path class="st2" d="M553.4,441.8c1.2,0,2.2,0.2,3.2,0.5c1,0.2,1.2,1,1.7,1.7c0.5,0.7,0.5,1.7,0.5,3c0,1.2-0.2,2.2-0.5,3
	c-0.2,0.7-1,1.2-1.7,1.7c-0.7,0.2-1.7,0.5-3.2,0.5c-1.2,0-2.2-0.2-3-0.5c-0.7-0.2-1.2-1-1.7-1.7c-0.2-0.7-0.5-1.7-0.5-3
	c0-1.2,0.2-2.2,0.5-3c0.2-0.7,1-1.2,1.7-1.7C551.1,441.8,551.9,441.8,553.4,441.8 M553.4,444.3c-0.5,0-0.7,0-1,0.2
	c-0.2,0.2-0.5,0.5-0.5,0.7c0,0.5-0.2,1-0.2,1.7c0,0.7,0,1.2,0.2,1.7c0,0.5,0.2,0.7,0.5,0.7c0.2,0,0.5,0.2,1,0.2c0.5,0,0.7,0,1-0.2
	c0.2-0.2,0.5-0.5,0.5-0.7c0-0.5,0.2-1,0.2-1.7c0-0.7,0-1.2-0.2-1.7c0-0.5-0.2-0.7-0.5-0.7C554.1,444.3,553.6,444.3,553.4,444.3"/>
<path class="st2" d="M563.3,442.1l0.2,1.7l0.2,0.2v6.4v0.2v1.2v1.2v2.2h-3.5v-13.6h3V442.1z M567.2,441.8c1.2,0,2.2,0.5,2.7,1.5
	c0.5,1,0.7,2.2,0.7,4c0,1.2-0.2,2.5-0.5,3.2c-0.2,0.7-0.7,1.2-1.2,1.5c-0.5,0.2-1.2,0.5-2,0.5c-0.7,0-1.5,0-2-0.2
	c-0.7-0.2-1.2-0.5-1.7-1l0.2-1.5c0.2,0,0.7,0.2,1,0.2c0.2,0,0.7,0.2,1,0.2c0.2,0,0.5,0,0.7-0.2c0.2-0.2,0.2-0.5,0.5-0.7
	c0.2-0.2,0.2-1,0.2-1.7c0-0.7,0-1.2-0.2-1.7c0-0.5-0.2-0.7-0.5-0.7c-0.2,0-0.5-0.2-0.7-0.2c-0.5,0-0.7,0-1,0.2c-0.2,0-0.5,0.2-1,0.5
	L563,444c0.2-0.2,0.5-0.7,1-1c0.5-0.2,0.7-0.5,1.2-0.7C566.2,441.8,566.7,441.8,567.2,441.8"/>
<path class="st2" d="M582.6,442.1v9.9h-3.2v-4.5v-0.7v-1c0,0.2-0.2,0.5-0.2,1c-0.2,0.2-0.2,0.5-0.5,0.7l-3,4.5h-3.2v-9.9h3.2v4.7
	v0.7v0.7c0-0.2,0.2-0.5,0.2-0.7c0.2-0.2,0.2-0.5,0.5-0.7l3.2-4.7H582.6z"/>
<path class="st2" d="M596.2,452h-12.4v-2.5h12.4V452z M586.5,451.7l-0.2,2.7h-2.5v-2.7H586.5z M594.5,442.1v2.2h-4
	c-0.5,0-0.7,0.2-1,0.7c-0.2,1-0.2,2-0.5,2.7c-0.2,0.7-0.5,1.5-0.7,2.2c-0.2,0.5-0.7,1.2-1.2,1.7h-2.7c0.5-0.7,0.7-1.7,1.2-2.5
	c0.5-0.7,0.5-1.7,0.7-2.5c0.2-0.7,0.2-1.7,0.5-2.5c0-0.7,0.5-1.5,0.7-1.7c0.5-0.5,1-0.5,2-0.5H594.5z M594.7,452h-3.5v-9.9h3.5V452z
	 M596.2,451.7v2.7h-2.5l-0.2-2.7H596.2z"/>
<path class="st2" d="M602.6,441.8c1.2,0,2.2,0.2,3.2,0.5c1,0.2,1.2,1,1.7,1.7c0.5,0.7,0.5,1.7,0.5,3c0,1.2-0.2,2.2-0.5,3
	c-0.2,0.7-1,1.2-1.7,1.7c-0.7,0.2-1.7,0.5-3.2,0.5c-1.2,0-2.2-0.2-3-0.5c-0.7-0.2-1.2-1-1.7-1.7c-0.2-0.7-0.5-1.7-0.5-3
	c0-1.2,0.2-2.2,0.5-3c0.2-0.7,1-1.2,1.7-1.7C600.4,441.8,601.4,441.8,602.6,441.8 M602.6,444.3c-0.5,0-0.7,0-1,0.2
	c-0.2,0.2-0.5,0.5-0.5,0.7c0,0.5-0.2,1-0.2,1.7c0,0.7,0,1.2,0.2,1.7c0,0.5,0.2,0.7,0.5,0.7c0.2,0,0.5,0.2,1,0.2c0.5,0,0.7,0,1-0.2
	c0.2-0.2,0.5-0.5,0.5-0.7c0-0.5,0.2-1,0.2-1.7c0-0.7,0-1.2-0.2-1.7c0-0.5-0.2-0.7-0.5-0.7C603.4,444.3,603.1,444.3,602.6,444.3"/>
<path class="st2" d="M612.6,442.1l0.2,1.7l0.2,0.2v6.4v0.2v1.2v1.2v2.2h-3.5v-13.6h3V442.1z M616.5,441.8c1.2,0,2.2,0.5,2.7,1.5
	c0.5,1,0.7,2.2,0.7,4c0,1.2-0.2,2.5-0.5,3.2c-0.2,0.7-0.7,1.2-1.2,1.5c-0.5,0.2-1.2,0.5-2,0.5c-0.7,0-1.5,0-2-0.2
	c-0.7-0.2-1.2-0.5-1.7-1l0.2-1.5c0.2,0,0.7,0.2,1,0.2c0.2,0,0.7,0.2,1,0.2c0.2,0,0.5,0,0.7-0.2c0.2-0.2,0.2-0.5,0.5-0.7
	c0.2-0.2,0.2-1,0.2-1.7c0-0.7,0-1.2-0.2-1.7c0-0.5-0.2-0.7-0.5-0.7c-0.2,0-0.5-0.2-0.7-0.2c-0.5,0-0.7,0-1,0.2c-0.2,0-0.5,0.2-1,0.5
	l-0.5-1.5c0.2-0.2,0.5-0.7,1-1c0.5-0.2,0.7-0.5,1.2-0.7C615.5,441.8,616,441.8,616.5,441.8"/>
<path class="st1" d="M558.6,359.6h-1 M558.6,364.8h2.2v-5.2h-2.2V364.8z"/>
<path class="st3" d="M656.5,668.4c15.1,0,27.4-12.3,27.4-27.4c0-15.1-12.3-27.4-27.4-27.4c-15.1,0-27.4,12.3-27.4,27.4
	C629.1,656.2,641.4,668.4,656.5,668.4z"/>
<path class="st2" d="M665.5,643l5.6,10.2h7.2l-5.9-10.1c-0.5-0.9-1.6-1.9-2.2-2.2v-0.1c0.7-0.4,1.4-1.1,1.9-2l5.8-9.4h-7l-5.5,9.3
	h-1.6c0.2-1,0.3-2,0.3-3v-6.3h-6.5v23.9h6.5v-8c0-0.7-0.1-1.5-0.3-2.2H665.5z"/>
<path class="st4" d="M556.3,361l43.8-20.2c0,0,3.6,4.5,5.6,11.4c2,6.9,1.6,12.3,1.6,12.3"/>
<path class="st4" d="M358.8,503.2l20.2-43.8c0,0-4.5-3.6-11.4-5.6c-6.9-2-12.3-1.6-12.3-1.6"/>
<path class="st4" d="M624.2,367.7l-15.6,30.4c0,0,3.1,2.7,7.9,4.3c4.8,1.6,8.7,1.5,8.7,1.5"/>
<path class="st4" d="M561.3,529.3l36.3,19.4c0,0,3.1-4.1,4.9-10.4c1.8-6.3,1.6-11.3,1.6-11.3"/>
<path class="st4" d="M517.2,529.3L479,548.2c0,0-3.3-3.9-5.2-10c-1.9-6-1.7-10.9-1.7-10.9"/>
<path class="st4" d="M623.9,488.1l-16.8-27.9c0,0,3.8-2.3,9.5-3.5c5.7-1.3,10.3-1,10.3-1"/>
<g>
	<g>
		<path class="st2" d="M641.8,376.5c0.7,0,1.2,0,1.7,0.1c0.5,0,0.9,0.1,1.3,0.2c0.4,0.1,0.8,0.2,1.2,0.3l-0.3,3c-0.4,0-0.8,0-1.2,0
			c-0.4,0-0.8,0-1.2,0s-0.9,0-1.5,0c-0.4,0-0.8,0.1-1,0.3c-0.2,0.2-0.4,0.5-0.5,1c-0.1,0.5-0.1,1.1-0.1,2s0,1.5,0.1,2
			c0.1,0.5,0.2,0.8,0.5,1c0.2,0.2,0.6,0.3,1,0.3c0.9,0,1.7,0,2.4,0c0.6,0,1.3-0.1,1.9-0.1l0.3,3c-0.7,0.2-1.3,0.4-2,0.5
			c-0.7,0.1-1.5,0.1-2.5,0.1c-1.4,0-2.6-0.2-3.4-0.6c-0.9-0.4-1.5-1.1-1.9-2.1c-0.4-1-0.6-2.3-0.6-3.9c0-1.6,0.2-3,0.6-3.9
			c0.4-1,1-1.7,1.9-2.1C639.2,376.7,640.4,376.5,641.8,376.5z"/>
		<path class="st2" d="M657.8,376.7l-7.4,14.4h-3.1l7.4-14.4H657.8z"/>
		<path class="st2" d="M662.6,380.3l1.1,5.2c0,0.3,0.1,0.6,0.1,0.9c0,0.3,0.1,0.6,0.1,0.9h0.6l-1.2,2.4h-0.9c-0.3,0-0.6-0.1-0.8-0.3
			c-0.2-0.2-0.4-0.4-0.5-0.7l-2.8-8.5H662.6z M669.8,380.3l-3,9.1c-0.3,0.9-0.6,1.6-1,2.1c-0.4,0.5-0.8,0.9-1.3,1.2
			c-0.5,0.3-1,0.5-1.5,0.6c-0.6,0.2-1.2,0.2-1.9,0.2c-0.7,0-1.3-0.1-2-0.2l0.3-2.5c0.7,0,1.2,0,1.7-0.1s0.8-0.2,1.1-0.3
			c0.2-0.1,0.4-0.3,0.6-0.5c0.2-0.2,0.3-0.5,0.4-0.7l0.6-1.3c0.1-0.3,0.3-0.7,0.4-1.2c0.1-0.5,0.2-0.9,0.3-1.2l1.1-5.2H669.8z"/>
	</g>
</g>
<g>
	<g>
		<path class="st2" d="M634.5,466.4c1.2,0,2.2,0.1,2.9,0.3c0.7,0.2,1.2,0.5,1.5,1c0.3,0.5,0.5,1.2,0.5,2.1c0,0.9-0.2,1.6-0.5,2.1
			c-0.4,0.5-1,0.8-1.8,0.8v0.1c1,0.1,1.8,0.4,2.2,1c0.4,0.6,0.6,1.4,0.6,2.4c0,0.9-0.2,1.6-0.5,2.1c-0.3,0.5-0.8,0.8-1.5,1
			c-0.7,0.2-1.6,0.3-2.7,0.3c-0.9,0-1.7,0-2.4,0c-0.7,0-1.4,0-2,0c-0.6,0-1.2-0.1-1.8-0.1l0.3-2.7c0.3,0,1,0,1.9,0c0.9,0,2,0,3.3,0
			c0.4,0,0.7,0,0.9-0.1c0.2-0.1,0.3-0.2,0.4-0.4c0.1-0.2,0.1-0.5,0.1-0.9c0-0.4,0-0.7-0.1-0.9c-0.1-0.2-0.2-0.4-0.4-0.4
			c-0.2-0.1-0.5-0.1-0.9-0.1h-5.2v-2.4h5.1c0.3,0,0.6,0,0.7-0.1c0.2-0.1,0.3-0.2,0.3-0.4c0.1-0.2,0.1-0.4,0.1-0.8
			c0-0.3,0-0.6-0.1-0.8c-0.1-0.2-0.2-0.3-0.4-0.3c-0.2-0.1-0.4-0.1-0.8-0.1c-0.8,0-1.5,0-2.1,0c-0.6,0-1.1,0-1.6,0
			c-0.5,0-0.9,0-1.4,0.1l-0.3-2.7c0.6,0,1.1-0.1,1.7-0.1c0.5,0,1.1,0,1.8,0C632.9,466.4,633.7,466.4,634.5,466.4z M632.9,466.5v12.9
			h-4v-12.9H632.9z"/>
		<path class="st2" d="M649.5,473.7l0,1.9h-3.9c-0.2,0-0.4,0.1-0.5,0.2c-0.1,0.1-0.2,0.2-0.2,0.4v0.3c0,0.2,0.1,0.3,0.2,0.4
			c0.1,0.1,0.3,0.2,0.6,0.2c0.3,0,0.6-0.1,0.9-0.2s0.6-0.3,0.9-0.6c0.3-0.2,0.6-0.5,0.8-0.7v1.2c-0.1,0.2-0.2,0.5-0.4,0.8
			c-0.2,0.3-0.4,0.6-0.8,1c-0.3,0.3-0.7,0.6-1.2,0.8c-0.5,0.2-1,0.3-1.7,0.3c-0.6,0-1.1-0.1-1.6-0.3c-0.5-0.2-0.9-0.5-1.2-0.9
			c-0.3-0.4-0.4-0.9-0.4-1.5v-0.9c0-0.8,0.3-1.3,0.8-1.8c0.6-0.4,1.3-0.6,2.3-0.6H649.5z M646.9,469.8c0.9,0,1.6,0.1,2.2,0.3
			c0.6,0.2,1.1,0.6,1.4,1.2c0.3,0.6,0.5,1.3,0.5,2.3v5.8h-3.1l-0.5-2l-0.3-0.4v-3.4c0-0.3-0.1-0.6-0.3-0.7c-0.2-0.2-0.4-0.2-0.9-0.2
			c-0.5,0-1.1,0-1.8,0c-0.7,0-1.5,0-2.3,0.1l-0.4-2.5c0.5-0.1,1-0.2,1.7-0.2c0.7-0.1,1.3-0.1,2-0.2
			C645.9,469.8,646.5,469.8,646.9,469.8z"/>
		<path class="st2" d="M656.9,470.1v9.4H653v-9.4H656.9z M659.4,473.3v2.5h-2.6v-2.5H659.4z M663.1,470.1v9.4h-3.9v-9.4H663.1z"/>
		<path class="st2" d="M669.1,470.1v9.4h-3.9v-9.4H669.1z M671.5,473.3v2.5h-2.6v-2.5H671.5z M675.2,470.1v9.4h-3.9v-9.4H675.2z"/>
		<path class="st2" d="M685.3,473.7l0,1.9h-3.9c-0.2,0-0.4,0.1-0.5,0.2c-0.1,0.1-0.2,0.2-0.2,0.4v0.3c0,0.2,0.1,0.3,0.2,0.4
			c0.1,0.1,0.3,0.2,0.6,0.2c0.3,0,0.6-0.1,0.9-0.2s0.6-0.3,0.9-0.6c0.3-0.2,0.6-0.5,0.8-0.7v1.2c-0.1,0.2-0.2,0.5-0.4,0.8
			s-0.4,0.6-0.8,1c-0.3,0.3-0.7,0.6-1.2,0.8c-0.5,0.2-1,0.3-1.7,0.3c-0.6,0-1.1-0.1-1.6-0.3c-0.5-0.2-0.9-0.5-1.2-0.9
			c-0.3-0.4-0.4-0.9-0.4-1.5v-0.9c0-0.8,0.3-1.3,0.8-1.8c0.6-0.4,1.3-0.6,2.3-0.6H685.3z M682.7,469.8c0.9,0,1.6,0.1,2.2,0.3
			s1.1,0.6,1.4,1.2c0.3,0.6,0.5,1.3,0.5,2.3v5.8h-3.1l-0.5-2l-0.3-0.4v-3.4c0-0.3-0.1-0.6-0.3-0.7c-0.2-0.2-0.4-0.2-0.9-0.2
			c-0.5,0-1.1,0-1.8,0c-0.7,0-1.5,0-2.3,0.1l-0.4-2.5c0.5-0.1,1-0.2,1.7-0.2c0.7-0.1,1.3-0.1,2-0.2
			C681.7,469.8,682.3,469.8,682.7,469.8z"/>
		<path class="st2" d="M693.2,469.8c0.9,0,1.6,0,2.2,0c0.6,0,1.1,0,1.5,0c0.4,0,0.8,0.1,1.2,0.1l-0.2,2.6c-0.1,0-0.5-0.1-1.3-0.1
			c-0.8,0-1.9,0-3.3,0c-0.3,0-0.5,0-0.6,0.1c-0.1,0.1-0.2,0.3-0.2,0.5c0,0.4,0.1,0.7,0.2,0.9c0.1,0.1,0.3,0.2,0.6,0.2h4.6l0.1,2.2
			c-0.3,0-0.6,0-0.9,0c-0.3,0-0.8,0-1.3,0c-0.6,0-1.3,0-2.3,0c-0.3,0-0.4,0-0.5,0.1c-0.1,0.1-0.2,0.2-0.2,0.4l-0.5,2.5h-4l0.7-3
			c0.1-0.3,0.2-0.5,0.5-0.6c0.2-0.1,0.5-0.2,0.7-0.3s0.5-0.1,0.6-0.1v-0.1c-0.5-0.1-1-0.3-1.2-0.6c-0.3-0.3-0.5-0.6-0.6-0.9
			s-0.2-0.7-0.2-1c0-0.6,0.1-1.2,0.2-1.6c0.1-0.4,0.4-0.7,0.7-0.9c0.3-0.2,0.8-0.4,1.4-0.5C691.5,469.9,692.3,469.8,693.2,469.8z
			 M698.1,470v9.5h-3.8V470H698.1z"/>
	</g>
</g>
<g>
	<g>
		<path class="st2" d="M624.4,250.8v3.3c0,0.5,0,1-0.1,1.5c-0.1,0.5-0.2,1-0.4,1.4c0.1,0.4,0.3,0.8,0.4,1.3c0.1,0.5,0.2,0.9,0.2,1.3
			v4.2h-4.1v-12.9H624.4z M625.6,255.7v2.6h-2.2v-2.6H625.6z M631.6,250.8c-0.3,1-0.5,1.8-0.7,2.5c-0.2,0.7-0.4,1.2-0.6,1.7
			c-0.2,0.4-0.4,0.8-0.6,1c-0.2,0.3-0.5,0.5-0.8,0.6c-0.3,0.1-0.8,0.2-1.3,0.3v0.1c0.5,0.1,1,0.2,1.4,0.3c0.4,0.1,0.7,0.3,0.9,0.6
			c0.2,0.3,0.5,0.6,0.7,1.1c0.2,0.5,0.4,1.1,0.6,1.8c0.2,0.8,0.5,1.7,0.8,2.8h-4.2c-0.3-1.2-0.6-2.2-0.8-2.9
			c-0.2-0.7-0.4-1.3-0.6-1.6c-0.2-0.4-0.4-0.6-0.6-0.7c-0.3-0.1-0.6-0.2-1-0.2l-0.1-2.6c0.4,0,0.8-0.1,1-0.2
			c0.3-0.1,0.5-0.4,0.6-0.7c0.2-0.4,0.3-0.8,0.5-1.5c0.2-0.6,0.4-1.5,0.6-2.5H631.6z"/>
		<path class="st2" d="M636.5,254.4l1.1,5.2c0,0.3,0.1,0.6,0.1,0.9s0.1,0.6,0.1,0.9h0.6l-1.2,2.4h-0.9c-0.3,0-0.6-0.1-0.8-0.3
			c-0.2-0.2-0.4-0.4-0.5-0.7l-2.8-8.5H636.5z M643.8,254.4l-3,9.1c-0.3,0.9-0.6,1.6-1,2.1c-0.4,0.5-0.8,0.9-1.3,1.2
			c-0.5,0.3-1,0.5-1.5,0.6c-0.6,0.2-1.2,0.2-1.9,0.2c-0.7,0-1.3-0.1-2-0.2l0.3-2.5c0.7,0,1.2,0,1.7-0.1c0.4-0.1,0.8-0.2,1.1-0.3
			c0.2-0.1,0.4-0.3,0.6-0.5c0.2-0.2,0.3-0.5,0.4-0.7l0.6-1.3c0.1-0.3,0.3-0.7,0.4-1.2c0.1-0.5,0.2-0.9,0.3-1.2l1.1-5.2H643.8z"/>
		<path class="st2" d="M648.1,254.4l2.3,4.6l-2.5,4.8H644l2.7-4.8l-2.5-4.6H648.1z M651.7,257.8v2.2h-3.9v-2.2H651.7z M655.3,254.4
			l-2.5,4.6l2.7,4.8h-3.9l-2.5-4.8l2.3-4.6H655.3z"/>
		<path class="st2" d="M660.6,254.4v9.4h-3.9v-9.4H660.6z M663,257.6v2.5h-2.6v-2.5H663z M666.7,254.4v9.4h-3.9v-9.4H666.7z"/>
		<path class="st2" d="M673.2,254.1c0.9,0,1.6,0,2.2,0c0.6,0,1.1,0,1.5,0c0.4,0,0.8,0.1,1.2,0.1l-0.2,2.6c-0.1,0-0.5-0.1-1.3-0.1
			c-0.8,0-1.9,0-3.3,0c-0.3,0-0.5,0-0.6,0.1c-0.1,0.1-0.2,0.3-0.2,0.5c0,0.4,0.1,0.7,0.2,0.9c0.1,0.1,0.3,0.2,0.6,0.2h4.6l0.1,2.2
			c-0.3,0-0.6,0-0.9,0c-0.3,0-0.8,0-1.3,0s-1.3,0-2.3,0c-0.3,0-0.4,0-0.5,0.1c-0.1,0.1-0.2,0.2-0.2,0.4l-0.5,2.5h-4l0.7-3
			c0.1-0.3,0.2-0.5,0.5-0.6c0.2-0.1,0.5-0.2,0.7-0.3c0.2,0,0.5-0.1,0.6-0.1v-0.1c-0.5-0.1-1-0.3-1.2-0.6c-0.3-0.3-0.5-0.6-0.6-0.9
			c-0.1-0.3-0.2-0.7-0.2-1c0-0.6,0.1-1.2,0.2-1.6c0.1-0.4,0.4-0.7,0.7-0.9c0.3-0.2,0.8-0.4,1.4-0.5
			C671.5,254.2,672.3,254.1,673.2,254.1z M678.1,254.3v9.5h-3.8v-9.5H678.1z"/>
	</g>
</g>
<g>
	<g>
		<path class="st2" d="M644.9,279.1V292h-4.1v-8.1c0-0.3,0-0.6,0-0.8c0-0.3,0.1-0.6,0.1-0.8l-3,0.6l-0.5-2.5l3.3-1.3H644.9z"/>
		<path class="st2" d="M652.2,278.8c1,0,1.8,0.1,2.5,0.3c0.7,0.2,1.3,0.5,1.7,1c0.4,0.5,0.6,1.1,0.6,2c0,0.5,0,0.9-0.1,1.2
			c-0.1,0.4-0.3,0.7-0.6,1.1c-0.3,0.4-0.7,0.9-1.3,1.5l-3.1,2.9c0.3-0.1,0.6-0.1,0.8-0.2c0.3,0,0.6,0,0.9,0h3.6v3.4h-10v-2
			c0-0.3,0-0.6,0.1-0.9c0.1-0.3,0.2-0.5,0.4-0.7l2.7-2.6c0.7-0.7,1.3-1.3,1.7-1.9c0.4-0.5,0.6-1,0.6-1.2c0-0.1,0-0.2-0.1-0.3
			s-0.2-0.1-0.4-0.1c-0.2,0-0.4,0-0.7,0c-0.5,0-0.9,0-1.3,0c-0.4,0-0.8,0-1.3,0c-0.5,0-1,0-1.6,0l-0.1-3c0.7-0.1,1.2-0.2,1.8-0.3
			c0.5-0.1,1.1-0.1,1.6-0.1C651.2,278.8,651.7,278.8,652.2,278.8z"/>
		<path class="st2" d="M661.1,288.5c0.5,0,0.9,0.1,1.1,0.3c0.2,0.2,0.3,0.5,0.3,1.1v0.8c0,0.5-0.1,0.9-0.3,1.1
			c-0.2,0.2-0.5,0.3-1.1,0.3h-0.9c-0.5,0-0.9-0.1-1.1-0.3c-0.2-0.2-0.3-0.5-0.3-1.1v-0.8c0-0.5,0.1-0.9,0.3-1.1
			c0.2-0.2,0.5-0.3,1.1-0.3H661.1z"/>
		<path class="st2" d="M670.8,279.1V292h-4.1v-8.1c0-0.3,0-0.6,0-0.8c0-0.3,0.1-0.6,0.1-0.8l-3,0.6l-0.5-2.5l3.3-1.3H670.8z"/>
	</g>
</g>
<g>
	<g>
		<path class="st2" d="M627.3,681.7c0.9,0,1.6,0.2,2.3,0.6c0.6,0.4,1.1,1,1.3,1.7c0.2,0.7,0.2,1.4-0.1,2.3l-10.3,29.4h-9l8.2-23
			c0.2-0.6,0.4-1.2,0.7-1.8c0.3-0.6,0.6-1.2,1-1.7h-14.9l-0.4-7.4H627.3z"/>
		<path class="st2" d="M648.3,681c3.4,0,6.2,0.6,8.2,1.7c2,1.1,3.5,2.9,4.4,5.5c0.9,2.6,1.3,6.1,1.3,10.5c0,4.4-0.4,7.9-1.3,10.5
			c-0.9,2.6-2.3,4.4-4.4,5.5c-2,1.1-4.8,1.6-8.2,1.6c-3.4,0-6.1-0.5-8.2-1.6c-2-1.1-3.5-2.9-4.4-5.5c-0.9-2.6-1.3-6.1-1.3-10.5
			c0-4.4,0.4-7.9,1.3-10.5c0.9-2.6,2.3-4.4,4.4-5.5C642.1,681.6,644.9,681,648.3,681z M648.2,688c-0.9,0-1.7,0.1-2.3,0.4
			c-0.6,0.3-1.1,0.8-1.4,1.5c-0.3,0.7-0.6,1.8-0.7,3.2c-0.1,1.4-0.2,3.2-0.2,5.5c0,2.3,0.1,4.1,0.2,5.5c0.1,1.4,0.4,2.5,0.7,3.2
			c0.3,0.7,0.8,1.2,1.4,1.5c0.6,0.3,1.4,0.4,2.3,0.4c0.9,0,1.7-0.1,2.4-0.4c0.6-0.3,1.1-0.8,1.5-1.5c0.4-0.7,0.6-1.8,0.8-3.2
			c0.1-1.4,0.2-3.2,0.2-5.5c0-2.3-0.1-4.1-0.2-5.5c-0.1-1.4-0.4-2.5-0.8-3.2c-0.4-0.7-0.9-1.2-1.5-1.5
			C650,688.2,649.2,688,648.2,688z"/>
		<path class="st2" d="M672.4,707.3c1.2,0,2,0.2,2.4,0.7c0.4,0.5,0.7,1.3,0.7,2.4v2.2c0,1.1-0.2,2-0.7,2.4c-0.4,0.5-1.3,0.7-2.4,0.7
			h-2.1c-1.2,0-2-0.2-2.4-0.7c-0.4-0.5-0.7-1.3-0.7-2.4v-2.2c0-1.1,0.2-2,0.7-2.4c0.4-0.5,1.3-0.7,2.4-0.7H672.4z"/>
		<path class="st2" d="M696.7,681.7l-7.5,19.3c-0.2,0.4-0.1,0.8,0,1c0.2,0.2,0.5,0.4,0.9,0.4h19.1v5.2l-3.9,0.8h-22.2
			c-0.9,0-1.7-0.2-2.4-0.7c-0.7-0.5-1.1-1.1-1.3-1.9c-0.2-0.8-0.2-1.6,0.1-2.4l8.6-21.7H696.7z M705.3,688.4v27.3h-8.5v-22l1.5-5.3
			H705.3z"/>
	</g>
</g>
<g>
	<g>
		<path class="st2" d="M646.7,628.9c1.8,0,3.3,0.2,4.6,0.5c1.3,0.3,2.3,0.9,3,1.7c0.7,0.8,1.1,2.1,1.1,3.7c0,0.9-0.1,1.7-0.3,2.4
			c-0.2,0.7-0.6,1.5-1.1,2.3c-0.5,0.8-1.4,1.7-2.4,2.8l-6,6c0.6-0.1,1.1-0.2,1.7-0.3c0.5,0,1.1-0.1,1.7,0h7.1v5.6h-18.1v-3.4
			c0-0.5,0.1-1,0.2-1.4c0.1-0.4,0.4-0.8,0.7-1.2l5.5-5.6c1.4-1.4,2.4-2.6,3.2-3.7c0.8-1.1,1.2-2,1.2-2.6c0-0.4-0.1-0.6-0.3-0.8
			c-0.2-0.2-0.5-0.3-0.9-0.3c-0.4-0.1-0.9-0.1-1.5-0.1c-0.8,0-1.6,0-2.4,0c-0.7,0-1.5,0-2.4,0.1c-0.8,0-1.8,0.1-2.9,0.1l-0.2-4.8
			c1.2-0.2,2.3-0.4,3.3-0.5c1-0.1,1.9-0.2,2.8-0.2C645,628.9,645.9,628.9,646.7,628.9z"/>
	</g>
</g>
<g>
	<g>
		<path class="st2" d="M609.3,103.7l-2.6,7.3c0,0.1,0,0.2,0,0.3c0.1,0.1,0.2,0.1,0.3,0.1h7.2v2.2l-1.4,0.4h-8.9
			c-0.4,0-0.7-0.1-0.9-0.3c-0.3-0.2-0.4-0.4-0.5-0.7c-0.1-0.3-0.1-0.6,0-0.9l3.1-8.4H609.3z M612.7,106.3v10.4H609v-8.4l0.7-2H612.7
			z"/>
		<path class="st2" d="M617.7,113.2c0.5,0,0.9,0.1,1.1,0.3c0.2,0.2,0.3,0.5,0.3,1.1v0.8c0,0.5-0.1,0.8-0.3,1.1
			c-0.2,0.2-0.5,0.3-1.1,0.3h-0.9c-0.5,0-0.9-0.1-1.1-0.3c-0.2-0.2-0.3-0.5-0.3-1.1v-0.8c0-0.5,0.1-0.9,0.3-1.1
			c0.2-0.2,0.5-0.3,1.1-0.3H617.7z"/>
		<path class="st2" d="M625.5,103.5c1.1,0,2,0.1,2.7,0.3c0.7,0.2,1.1,0.5,1.4,0.9c0.3,0.4,0.4,1,0.4,1.8c0,0.6-0.1,1.2-0.2,1.6
			c-0.1,0.5-0.3,0.8-0.6,1.1c-0.3,0.3-0.8,0.4-1.3,0.5v0.1c0.9,0.1,1.6,0.5,1.9,1c0.4,0.5,0.5,1.3,0.5,2.3c0,0.9-0.1,1.7-0.4,2.2
			c-0.3,0.6-0.8,1-1.5,1.2c-0.7,0.3-1.7,0.4-2.8,0.4c-0.8,0-1.6,0-2.4-0.1c-0.8-0.1-1.6-0.2-2.4-0.3l0.1-2.8c0.6,0,1.1,0,1.5,0.1
			c0.4,0,0.8,0,1.1,0c0.3,0,0.7,0,1,0c0.5,0,0.9,0,1.2-0.1c0.3-0.1,0.5-0.2,0.6-0.4c0.1-0.2,0.2-0.5,0.2-0.9c0-0.3,0-0.6-0.1-0.8
			c-0.1-0.2-0.2-0.3-0.4-0.4c-0.2-0.1-0.5-0.1-0.9-0.1l-2.5,0v-2.5h2.5c0.3,0,0.6,0,0.7-0.1c0.2-0.1,0.3-0.1,0.4-0.2
			s0.1-0.2,0.2-0.4c0-0.2,0-0.3,0-0.5c0-0.3,0-0.5-0.1-0.7c-0.1-0.2-0.2-0.3-0.4-0.3c-0.2-0.1-0.5-0.1-0.9-0.1c-0.7,0-1.4,0-2,0
			c-0.6,0-1.2,0-1.7,0l-0.1-2.7c0.8-0.1,1.5-0.2,2.3-0.3C624,103.5,624.7,103.5,625.5,103.5z"/>
		<path class="st2" d="M642,101.9l0.4,1.6c-1,0.4-1.7,1.2-2,2.5c-0.4,1.3-0.6,2.9-0.6,4.8c0,1.2,0.1,2.4,0.2,3.4
			c0.2,1,0.4,1.8,0.8,2.5c0.4,0.7,0.9,1.2,1.5,1.4l-0.4,1.6c-2.1-0.5-3.6-1.5-4.5-3c-1-1.5-1.4-3.4-1.4-6c0-2.5,0.5-4.5,1.4-6
			C638.5,103.4,640,102.4,642,101.9z"/>
		<path class="st2" d="M648.6,103.5c1,0,1.8,0.1,2.5,0.3c0.7,0.2,1.3,0.5,1.7,1s0.6,1.1,0.6,2c0,0.5,0,0.9-0.1,1.2
			c-0.1,0.4-0.3,0.7-0.6,1.1c-0.3,0.4-0.7,0.9-1.3,1.5l-3.1,2.9c0.3-0.1,0.6-0.1,0.8-0.2c0.3,0,0.6,0,0.9,0h3.6v3.4h-10v-2
			c0-0.3,0-0.6,0.1-0.9c0.1-0.3,0.2-0.5,0.4-0.7l2.7-2.6c0.7-0.7,1.3-1.3,1.7-1.9c0.4-0.5,0.6-1,0.6-1.2c0-0.1,0-0.2-0.1-0.3
			c-0.1-0.1-0.2-0.1-0.4-0.1c-0.2,0-0.4,0-0.7,0c-0.5,0-0.9,0-1.3,0c-0.4,0-0.8,0-1.3,0c-0.5,0-1,0-1.6,0l-0.1-3
			c0.7-0.1,1.2-0.2,1.8-0.3c0.5-0.1,1.1-0.1,1.6-0.1C647.6,103.5,648.1,103.5,648.6,103.5z"/>
		<path class="st2" d="M657.5,113.2c0.5,0,0.9,0.1,1.1,0.3c0.2,0.2,0.3,0.5,0.3,1.1v0.8c0,0.5-0.1,0.8-0.3,1.1
			c-0.2,0.2-0.5,0.3-1.1,0.3h-0.9c-0.5,0-0.9-0.1-1.1-0.3c-0.2-0.2-0.3-0.5-0.3-1.1v-0.8c0-0.5,0.1-0.9,0.3-1.1
			c0.2-0.2,0.5-0.3,1.1-0.3H657.5z"/>
		<path class="st2" d="M665.4,103.5c1,0,1.8,0.1,2.5,0.3c0.7,0.2,1.3,0.5,1.7,1c0.4,0.5,0.6,1.1,0.6,2c0,0.5,0,0.9-0.1,1.2
			c-0.1,0.4-0.3,0.7-0.6,1.1c-0.3,0.4-0.7,0.9-1.3,1.5l-3.1,2.9c0.3-0.1,0.6-0.1,0.8-0.2c0.3,0,0.6,0,0.9,0h3.6v3.4h-10v-2
			c0-0.3,0-0.6,0.1-0.9c0.1-0.3,0.2-0.5,0.4-0.7l2.7-2.6c0.7-0.7,1.3-1.3,1.7-1.9c0.4-0.5,0.6-1,0.6-1.2c0-0.1,0-0.2-0.1-0.3
			c-0.1-0.1-0.2-0.1-0.4-0.1c-0.2,0-0.4,0-0.7,0c-0.5,0-0.9,0-1.3,0c-0.4,0-0.8,0-1.3,0c-0.5,0-1,0-1.6,0l-0.1-3
			c0.6-0.1,1.2-0.2,1.8-0.3c0.5-0.1,1.1-0.1,1.6-0.1C664.4,103.5,664.9,103.5,665.4,103.5z"/>
		<path class="st2" d="M672,101.9c2,0.5,3.6,1.5,4.5,3c1,1.5,1.4,3.4,1.4,6c0,2.5-0.5,4.5-1.4,6c-1,1.5-2.5,2.4-4.5,3l-0.5-1.6
			c0.7-0.3,1.2-0.8,1.5-1.4c0.4-0.7,0.6-1.5,0.8-2.5c0.2-1,0.2-2.1,0.2-3.4c0-1.9-0.2-3.5-0.6-4.8c-0.4-1.3-1.1-2.1-2-2.5L672,101.9
			z"/>
	</g>
</g>
<g>
	<g>
		<path class="st2" d="M417.4,882.8l-2.6,7.3c0,0.1,0,0.2,0,0.3c0.1,0.1,0.2,0.1,0.3,0.1h7.2v2.2l-1.4,0.4h-8.9
			c-0.4,0-0.7-0.1-0.9-0.3c-0.3-0.2-0.4-0.4-0.5-0.7s-0.1-0.6,0-0.9l3.1-8.4H417.4z M420.8,885.3v10.4h-3.7v-8.4l0.7-2H420.8z"/>
		<path class="st2" d="M425.8,892.2c0.5,0,0.9,0.1,1.1,0.3c0.2,0.2,0.3,0.5,0.3,1.1v0.8c0,0.5-0.1,0.9-0.3,1.1
			c-0.2,0.2-0.5,0.3-1.1,0.3H425c-0.5,0-0.9-0.1-1.1-0.3c-0.2-0.2-0.3-0.5-0.3-1.1v-0.8c0-0.5,0.1-0.9,0.3-1.1
			c0.2-0.2,0.5-0.3,1.1-0.3H425.8z"/>
		<path class="st2" d="M433.5,882.5c1.1,0,2,0.1,2.7,0.3c0.7,0.2,1.1,0.5,1.4,0.9c0.3,0.4,0.4,1,0.4,1.8c0,0.6-0.1,1.2-0.2,1.6
			c-0.1,0.5-0.3,0.8-0.6,1.1c-0.3,0.3-0.8,0.4-1.3,0.5v0.1c0.9,0.1,1.6,0.5,1.9,1c0.4,0.5,0.5,1.3,0.5,2.3c0,0.9-0.1,1.7-0.4,2.2
			c-0.3,0.6-0.8,1-1.5,1.2c-0.7,0.3-1.7,0.4-2.8,0.4c-0.8,0-1.6,0-2.4-0.1s-1.6-0.2-2.4-0.3l0.1-2.8c0.6,0,1.1,0,1.5,0.1
			c0.4,0,0.8,0,1.1,0c0.3,0,0.7,0,1,0c0.5,0,0.9,0,1.2-0.1c0.3-0.1,0.5-0.2,0.6-0.4c0.1-0.2,0.2-0.5,0.2-0.9c0-0.3,0-0.6-0.1-0.8
			c-0.1-0.2-0.2-0.3-0.4-0.4c-0.2-0.1-0.5-0.1-0.9-0.1l-2.5,0v-2.5h2.5c0.3,0,0.6,0,0.7-0.1c0.2-0.1,0.3-0.1,0.4-0.2
			s0.1-0.2,0.2-0.4c0-0.2,0-0.3,0-0.5c0-0.3,0-0.5-0.1-0.7c-0.1-0.2-0.2-0.3-0.4-0.3c-0.2-0.1-0.5-0.1-0.9-0.1c-0.7,0-1.4,0-2,0
			c-0.6,0-1.2,0-1.7,0l-0.1-2.7c0.8-0.1,1.5-0.2,2.3-0.3C432.1,882.5,432.8,882.5,433.5,882.5z"/>
		<path class="st2" d="M450.1,880.9l0.4,1.6c-1,0.4-1.7,1.2-2,2.5c-0.4,1.3-0.6,2.9-0.6,4.8c0,1.2,0.1,2.4,0.2,3.4
			c0.2,1,0.4,1.8,0.8,2.5c0.4,0.7,0.9,1.2,1.5,1.4l-0.4,1.7c-2.1-0.5-3.6-1.5-4.5-3c-1-1.4-1.4-3.4-1.4-6c0-2.5,0.5-4.5,1.4-6
			C446.6,882.4,448.1,881.4,450.1,880.9z"/>
		<path class="st2" d="M456.6,882.5c1,0,1.8,0.1,2.5,0.3c0.7,0.2,1.3,0.5,1.7,1s0.6,1.1,0.6,2c0,0.5,0,0.9-0.1,1.2
			c-0.1,0.4-0.3,0.7-0.6,1.1s-0.7,0.9-1.3,1.5l-3.1,2.9c0.3-0.1,0.6-0.1,0.8-0.2c0.3,0,0.6,0,0.9,0h3.6v3.4h-10v-2
			c0-0.3,0-0.6,0.1-0.9c0.1-0.3,0.2-0.5,0.4-0.7l2.7-2.6c0.7-0.7,1.3-1.3,1.7-1.9c0.4-0.5,0.6-1,0.6-1.2c0-0.1,0-0.2-0.1-0.3
			s-0.2-0.1-0.4-0.1c-0.2,0-0.4,0-0.7,0c-0.5,0-0.9,0-1.3,0c-0.4,0-0.8,0-1.3,0c-0.5,0-1,0-1.6,0l-0.1-3c0.6-0.1,1.2-0.2,1.8-0.3
			c0.5-0.1,1.1-0.1,1.6-0.1C455.7,882.5,456.2,882.5,456.6,882.5z"/>
		<path class="st2" d="M465.6,892.2c0.5,0,0.9,0.1,1.1,0.3c0.2,0.2,0.3,0.5,0.3,1.1v0.8c0,0.5-0.1,0.9-0.3,1.1
			c-0.2,0.2-0.5,0.3-1.1,0.3h-0.9c-0.5,0-0.9-0.1-1.1-0.3c-0.2-0.2-0.3-0.5-0.3-1.1v-0.8c0-0.5,0.1-0.9,0.3-1.1
			c0.2-0.2,0.5-0.3,1.1-0.3H465.6z"/>
		<path class="st2" d="M473.5,882.5c1,0,1.8,0.1,2.5,0.3c0.7,0.2,1.3,0.5,1.7,1s0.6,1.1,0.6,2c0,0.5,0,0.9-0.1,1.2
			c-0.1,0.4-0.3,0.7-0.6,1.1s-0.7,0.9-1.3,1.5l-3.1,2.9c0.3-0.1,0.6-0.1,0.8-0.2c0.3,0,0.6,0,0.9,0h3.6v3.4h-10v-2
			c0-0.3,0-0.6,0.1-0.9c0.1-0.3,0.2-0.5,0.4-0.7l2.7-2.6c0.7-0.7,1.3-1.3,1.7-1.9c0.4-0.5,0.6-1,0.6-1.2c0-0.1,0-0.2-0.1-0.3
			s-0.2-0.1-0.4-0.1c-0.2,0-0.4,0-0.7,0c-0.5,0-0.9,0-1.3,0c-0.4,0-0.8,0-1.3,0c-0.5,0-1,0-1.6,0l-0.1-3c0.6-0.1,1.2-0.2,1.8-0.3
			c0.5-0.1,1.1-0.1,1.6-0.1C472.5,882.5,473,882.5,473.5,882.5z"/>
		<path class="st2" d="M480.1,880.9c2,0.5,3.6,1.5,4.5,3c1,1.5,1.4,3.4,1.4,6c0,2.5-0.5,4.5-1.4,6c-1,1.5-2.5,2.4-4.5,3l-0.5-1.7
			c0.6-0.3,1.2-0.8,1.5-1.4c0.4-0.7,0.6-1.5,0.8-2.5c0.2-1,0.2-2.1,0.2-3.4c0-1.9-0.2-3.5-0.6-4.8c-0.4-1.3-1.1-2.1-2-2.5
			L480.1,880.9z"/>
	</g>
</g>
<g>
	<g>
		<path class="st2" d="M652.9,489.3c1.1,0,2,0.1,2.7,0.3c0.7,0.2,1.1,0.5,1.4,0.9c0.3,0.4,0.4,1,0.4,1.8c0,0.6-0.1,1.2-0.2,1.6
			c-0.1,0.5-0.3,0.8-0.6,1.1c-0.3,0.3-0.8,0.4-1.3,0.5v0.1c0.9,0.1,1.6,0.5,1.9,1c0.4,0.5,0.5,1.3,0.5,2.3c0,0.9-0.1,1.7-0.4,2.2
			c-0.3,0.6-0.8,1-1.5,1.2c-0.7,0.3-1.7,0.4-2.8,0.4c-0.8,0-1.6,0-2.4-0.1s-1.6-0.2-2.4-0.3l0.1-2.8c0.6,0,1.1,0,1.5,0.1
			c0.4,0,0.8,0,1.1,0c0.3,0,0.7,0,1,0c0.5,0,0.9,0,1.2-0.1c0.3-0.1,0.5-0.2,0.6-0.4c0.1-0.2,0.2-0.5,0.2-0.9c0-0.3,0-0.6-0.1-0.8
			s-0.2-0.3-0.4-0.4s-0.5-0.1-0.9-0.1l-2.5,0v-2.5h2.5c0.3,0,0.6,0,0.7-0.1c0.2-0.1,0.3-0.1,0.4-0.2s0.1-0.2,0.2-0.4
			c0-0.1,0-0.3,0-0.5c0-0.3,0-0.5-0.1-0.7c-0.1-0.1-0.2-0.3-0.4-0.3c-0.2-0.1-0.5-0.1-0.9-0.1c-0.7,0-1.4,0-2,0c-0.6,0-1.2,0-1.7,0
			l-0.1-2.7c0.8-0.1,1.5-0.2,2.3-0.3C651.4,489.3,652.2,489.3,652.9,489.3z"/>
		<path class="st2" d="M661.7,499c0.5,0,0.9,0.1,1.1,0.3c0.2,0.2,0.3,0.5,0.3,1.1v0.8c0,0.5-0.1,0.8-0.3,1.1
			c-0.2,0.2-0.5,0.3-1.1,0.3h-0.9c-0.5,0-0.9-0.1-1.1-0.3c-0.2-0.2-0.3-0.6-0.3-1.1v-0.8c0-0.5,0.1-0.9,0.3-1.1
			c0.2-0.2,0.5-0.3,1.1-0.3H661.7z"/>
		<path class="st2" d="M672.6,489.5c0.4,0,0.7,0.1,0.9,0.3c0.3,0.2,0.4,0.4,0.5,0.7c0.1,0.3,0.1,0.6,0,0.9l-3.9,11h-4l3-8.2
			c0.1-0.3,0.2-0.5,0.3-0.8c0.1-0.2,0.2-0.5,0.4-0.7h-5.4l-0.2-3.2H672.6z"/>
	</g>
</g>
<g>
	<g>
		<path class="st2" d="M645,755.6v12.9H641v-8.1c0-0.3,0-0.6,0-0.8c0-0.3,0.1-0.6,0.1-0.8l-3,0.6l-0.5-2.5l3.3-1.3H645z"/>
		<path class="st2" d="M652.3,755.4c1.1,0,1.9,0.1,2.6,0.3c0.7,0.2,1.2,0.5,1.6,1c0.4,0.5,0.6,1.1,0.8,2c0.1,0.9,0.2,2,0.2,3.3
			c0,1.5-0.1,2.7-0.3,3.6c-0.2,0.9-0.5,1.6-1,2.1c-0.5,0.5-1.1,0.8-1.8,0.9c-0.7,0.2-1.7,0.2-2.7,0.2c-0.4,0-0.9,0-1.6-0.1
			c-0.7,0-1.4-0.2-2.2-0.4l0.2-2.4c0.4,0,0.8,0,1.1,0c0.3,0,0.7,0,1.1,0s0.9,0,1.5,0c0.5,0,0.8-0.1,1.1-0.2c0.3-0.1,0.5-0.4,0.6-0.7
			c0.1-0.3,0.2-0.8,0.2-1.3c0-0.5,0-1.2,0-2.1c0-0.8,0-1.4,0-1.9c0-0.5-0.1-0.8-0.2-1.1c-0.1-0.2-0.2-0.4-0.4-0.5
			c-0.2-0.1-0.4-0.1-0.7-0.1c-0.4,0-0.6,0.1-0.8,0.2c-0.2,0.1-0.3,0.3-0.3,0.6c0,0.3-0.1,0.7-0.1,1.2c0,0.4,0,0.7,0.1,0.9
			c0.1,0.2,0.2,0.3,0.4,0.4c0.2,0.1,0.4,0.1,0.8,0.1c0.3,0,0.5,0,0.8-0.1c0.2-0.1,0.5-0.2,0.8-0.4s0.7-0.4,1.2-0.7l0.1,1.4
			c-0.4,0.6-0.8,1.2-1.2,1.5c-0.4,0.4-0.8,0.6-1.2,0.7c-0.4,0.1-1,0.2-1.6,0.2c-1,0-1.8-0.2-2.3-0.5c-0.6-0.3-0.9-0.8-1.2-1.4
			c-0.2-0.6-0.3-1.3-0.3-2.1c0-1.1,0.1-2.1,0.4-2.8c0.3-0.7,0.8-1.2,1.5-1.6C649.9,755.5,651,755.4,652.3,755.4z"/>
		<path class="st2" d="M661.4,765.1c0.5,0,0.9,0.1,1.1,0.3c0.2,0.2,0.3,0.5,0.3,1.1v0.8c0,0.5-0.1,0.9-0.3,1.1
			c-0.2,0.2-0.5,0.3-1.1,0.3h-0.9c-0.5,0-0.9-0.1-1.1-0.3c-0.2-0.2-0.3-0.5-0.3-1.1v-0.8c0-0.5,0.1-0.9,0.3-1.1
			c0.2-0.2,0.5-0.3,1.1-0.3H661.4z"/>
		<path class="st2" d="M669.9,755.3c1.4,0,2.5,0.2,3.3,0.6c0.8,0.4,1.4,1.1,1.7,2.1c0.4,1,0.5,2.3,0.5,4c0,1.7-0.2,3.1-0.5,4
			c-0.4,1-0.9,1.7-1.7,2.1c-0.8,0.4-1.9,0.6-3.3,0.6c-1.4,0-2.4-0.2-3.3-0.6c-0.8-0.4-1.4-1.1-1.7-2.1c-0.4-1-0.5-2.3-0.5-4
			c0-1.7,0.2-3.1,0.5-4c0.4-1,0.9-1.7,1.7-2.1C667.5,755.5,668.6,755.3,669.9,755.3z M669.9,758.4c-0.3,0-0.5,0-0.7,0.1
			c-0.2,0.1-0.3,0.2-0.4,0.5c-0.1,0.2-0.2,0.6-0.2,1.1c0,0.5-0.1,1.2-0.1,2c0,0.8,0,1.5,0.1,2c0,0.5,0.1,0.9,0.2,1.1
			c0.1,0.2,0.3,0.4,0.4,0.5c0.2,0.1,0.4,0.1,0.7,0.1c0.3,0,0.6,0,0.8-0.1c0.2-0.1,0.4-0.2,0.5-0.5c0.1-0.2,0.2-0.6,0.2-1.1
			c0-0.5,0.1-1.2,0.1-2c0-0.8,0-1.5-0.1-2c0-0.5-0.1-0.9-0.2-1.1c-0.1-0.2-0.3-0.4-0.5-0.5C670.5,758.4,670.2,758.4,669.9,758.4z"/>
	</g>
</g>
<g>
	<g>
		<path class="st2" d="M442.4,710.4v12.9h-4.1v-8.1c0-0.3,0-0.6,0-0.8c0-0.3,0.1-0.5,0.1-0.8l-3,0.6l-0.5-2.5l3.3-1.3H442.4z"/>
		<path class="st2" d="M449.7,710.2c1.1,0,1.9,0.1,2.6,0.3c0.7,0.2,1.2,0.5,1.6,1c0.4,0.5,0.6,1.1,0.8,2c0.1,0.9,0.2,2,0.2,3.3
			c0,1.5-0.1,2.7-0.3,3.6c-0.2,0.9-0.5,1.6-1,2.1c-0.5,0.5-1.1,0.8-1.8,0.9c-0.7,0.2-1.7,0.2-2.7,0.2c-0.4,0-0.9,0-1.6-0.1
			c-0.7,0-1.4-0.2-2.2-0.4l0.2-2.4c0.4,0,0.8,0,1.1,0c0.3,0,0.7,0,1.1,0c0.4,0,0.9,0,1.5,0c0.5,0,0.8-0.1,1.1-0.2
			c0.3-0.1,0.5-0.4,0.6-0.7s0.2-0.8,0.2-1.3c0-0.5,0-1.2,0-2.1c0-0.8,0-1.4,0-1.9c0-0.5-0.1-0.8-0.2-1.1c-0.1-0.2-0.2-0.4-0.4-0.5
			c-0.2-0.1-0.4-0.1-0.7-0.1c-0.4,0-0.6,0.1-0.8,0.2c-0.2,0.1-0.3,0.3-0.3,0.6c0,0.3-0.1,0.7-0.1,1.2c0,0.4,0,0.7,0.1,0.9
			c0.1,0.2,0.2,0.3,0.4,0.4c0.2,0.1,0.4,0.1,0.8,0.1c0.3,0,0.5,0,0.8-0.1c0.2-0.1,0.5-0.2,0.8-0.4c0.3-0.2,0.7-0.4,1.2-0.7l0.1,1.4
			c-0.4,0.7-0.8,1.2-1.2,1.5c-0.4,0.4-0.8,0.6-1.2,0.7c-0.4,0.1-1,0.2-1.6,0.2c-1,0-1.8-0.2-2.3-0.5c-0.6-0.3-0.9-0.8-1.2-1.4
			c-0.2-0.6-0.3-1.3-0.3-2.1c0-1.2,0.1-2.1,0.4-2.8c0.3-0.7,0.8-1.2,1.5-1.6C447.3,710.4,448.3,710.2,449.7,710.2z"/>
		<path class="st2" d="M458.8,719.9c0.5,0,0.9,0.1,1.1,0.3c0.2,0.2,0.3,0.5,0.3,1.1v0.8c0,0.5-0.1,0.8-0.3,1.1
			c-0.2,0.2-0.5,0.3-1.1,0.3h-0.9c-0.5,0-0.9-0.1-1.1-0.3c-0.2-0.2-0.3-0.6-0.3-1.1v-0.8c0-0.5,0.1-0.9,0.3-1.1
			c0.2-0.2,0.5-0.3,1.1-0.3H458.8z"/>
		<path class="st2" d="M467.3,710.2c1.4,0,2.5,0.2,3.3,0.6c0.8,0.4,1.4,1.1,1.7,2.1c0.4,1,0.5,2.3,0.5,4c0,1.7-0.2,3.1-0.5,4
			c-0.4,1-0.9,1.7-1.7,2.1c-0.8,0.4-1.9,0.6-3.3,0.6c-1.4,0-2.4-0.2-3.3-0.6c-0.8-0.4-1.4-1.1-1.7-2.1c-0.4-1-0.5-2.3-0.5-4
			c0-1.7,0.2-3.1,0.5-4c0.4-1,0.9-1.7,1.7-2.1C464.8,710.4,465.9,710.2,467.3,710.2z M467.3,713.2c-0.3,0-0.5,0-0.7,0.1
			c-0.2,0.1-0.3,0.2-0.4,0.5c-0.1,0.2-0.2,0.6-0.2,1.1c0,0.5-0.1,1.2-0.1,2c0,0.8,0,1.5,0.1,2c0,0.5,0.1,0.9,0.2,1.1
			c0.1,0.2,0.3,0.4,0.4,0.5c0.2,0.1,0.4,0.1,0.7,0.1c0.3,0,0.6,0,0.8-0.1c0.2-0.1,0.4-0.2,0.5-0.5c0.1-0.2,0.2-0.6,0.2-1.1
			c0-0.5,0.1-1.2,0.1-2c0-0.8,0-1.5-0.1-2c0-0.5-0.1-0.9-0.2-1.1c-0.1-0.2-0.3-0.4-0.5-0.5C467.8,713.2,467.6,713.2,467.3,713.2z"/>
	</g>
</g>
<g>
	<g>
		<path class="st2" d="M582.9,484.6c1.1,0,2,0.1,2.7,0.3c0.7,0.2,1.1,0.5,1.4,0.9c0.3,0.4,0.4,1,0.4,1.8c0,0.6-0.1,1.2-0.2,1.6
			c-0.1,0.5-0.3,0.8-0.6,1.1c-0.3,0.3-0.8,0.4-1.3,0.5v0.1c0.9,0.1,1.6,0.5,1.9,1c0.4,0.5,0.5,1.3,0.5,2.3c0,0.9-0.1,1.7-0.4,2.2
			c-0.3,0.6-0.8,1-1.5,1.2c-0.7,0.3-1.7,0.4-2.8,0.4c-0.8,0-1.6,0-2.4-0.1s-1.6-0.2-2.4-0.3l0.1-2.8c0.6,0,1.1,0,1.5,0.1
			c0.4,0,0.8,0,1.1,0c0.3,0,0.7,0,1,0c0.5,0,0.9,0,1.2-0.1c0.3-0.1,0.5-0.2,0.6-0.4c0.1-0.2,0.2-0.5,0.2-0.9c0-0.3,0-0.6-0.1-0.8
			c-0.1-0.2-0.2-0.3-0.4-0.4c-0.2-0.1-0.5-0.1-0.9-0.1l-2.5,0v-2.5h2.5c0.3,0,0.6,0,0.7-0.1c0.2-0.1,0.3-0.1,0.4-0.2
			c0.1-0.1,0.1-0.2,0.2-0.4c0-0.2,0-0.3,0-0.5c0-0.3,0-0.5-0.1-0.7c-0.1-0.2-0.2-0.3-0.4-0.3c-0.2-0.1-0.5-0.1-0.9-0.1
			c-0.7,0-1.4,0-2,0c-0.6,0-1.2,0-1.7,0l-0.1-2.7c0.8-0.1,1.5-0.2,2.3-0.3C581.4,484.6,582.1,484.6,582.9,484.6z"/>
		<path class="st2" d="M591.6,494.3c0.5,0,0.9,0.1,1.1,0.3c0.2,0.2,0.3,0.5,0.3,1.1v0.8c0,0.5-0.1,0.9-0.3,1.1
			c-0.2,0.2-0.5,0.3-1.1,0.3h-0.9c-0.5,0-0.9-0.1-1.1-0.3c-0.2-0.2-0.3-0.5-0.3-1.1v-0.8c0-0.5,0.1-0.9,0.3-1.1
			c0.2-0.2,0.5-0.3,1.1-0.3H591.6z"/>
		<path class="st2" d="M599.3,484.6c1.1,0,2,0.1,2.7,0.3c0.7,0.2,1.1,0.5,1.4,0.9c0.3,0.4,0.4,1,0.4,1.8c0,0.6-0.1,1.2-0.2,1.6
			c-0.1,0.5-0.3,0.8-0.6,1.1c-0.3,0.3-0.8,0.4-1.3,0.5v0.1c0.9,0.1,1.6,0.5,1.9,1c0.4,0.5,0.5,1.3,0.5,2.3c0,0.9-0.1,1.7-0.4,2.2
			c-0.3,0.6-0.8,1-1.5,1.2c-0.7,0.3-1.7,0.4-2.8,0.4c-0.8,0-1.6,0-2.4-0.1s-1.6-0.2-2.4-0.3l0.1-2.8c0.6,0,1.1,0,1.5,0.1
			c0.4,0,0.8,0,1.1,0c0.3,0,0.7,0,1,0c0.5,0,0.9,0,1.2-0.1c0.3-0.1,0.5-0.2,0.6-0.4c0.1-0.2,0.2-0.5,0.2-0.9c0-0.3,0-0.6-0.1-0.8
			c-0.1-0.2-0.2-0.3-0.4-0.4c-0.2-0.1-0.5-0.1-0.9-0.1l-2.5,0v-2.5h2.5c0.3,0,0.6,0,0.7-0.1c0.2-0.1,0.3-0.1,0.4-0.2
			s0.1-0.2,0.2-0.4c0-0.2,0-0.3,0-0.5c0-0.3,0-0.5-0.1-0.7c-0.1-0.2-0.2-0.3-0.4-0.3c-0.2-0.1-0.5-0.1-0.9-0.1c-0.7,0-1.4,0-2,0
			c-0.6,0-1.2,0-1.7,0l-0.1-2.7c0.8-0.1,1.5-0.2,2.3-0.3C597.8,484.6,598.6,484.6,599.3,484.6z"/>
	</g>
</g>
<g>
	<g>
		<path class="st2" d="M451.2,480.1c0.4,0,0.7,0.1,0.9,0.3c0.3,0.2,0.4,0.4,0.5,0.7c0.1,0.3,0.1,0.6,0,0.9l-3.9,11h-4l3-8.2
			c0.1-0.3,0.2-0.5,0.3-0.8c0.1-0.2,0.2-0.5,0.4-0.7h-5.4l-0.2-3.2H451.2z"/>
		<path class="st2" d="M456.1,489.6c0.5,0,0.9,0.1,1.1,0.3c0.2,0.2,0.3,0.5,0.3,1.1v0.8c0,0.5-0.1,0.8-0.3,1.1
			c-0.2,0.2-0.5,0.3-1.1,0.3h-0.9c-0.5,0-0.9-0.1-1.1-0.3c-0.2-0.2-0.3-0.6-0.3-1.1v-0.8c0-0.5,0.1-0.9,0.3-1.1
			c0.2-0.2,0.5-0.3,1.1-0.3H456.1z"/>
		<path class="st2" d="M463.8,479.9c1.1,0,2,0.1,2.7,0.3c0.7,0.2,1.1,0.5,1.4,0.9c0.3,0.4,0.4,1,0.4,1.8c0,0.6-0.1,1.2-0.2,1.6
			c-0.1,0.5-0.3,0.8-0.6,1.1c-0.3,0.3-0.8,0.4-1.3,0.5v0.1c0.9,0.1,1.6,0.5,1.9,1c0.4,0.5,0.5,1.3,0.5,2.3c0,0.9-0.1,1.7-0.4,2.2
			c-0.3,0.6-0.8,1-1.5,1.2c-0.7,0.3-1.7,0.4-2.8,0.4c-0.8,0-1.6,0-2.4-0.1c-0.8-0.1-1.6-0.2-2.4-0.3l0.1-2.8c0.6,0,1.1,0,1.5,0.1
			c0.4,0,0.8,0,1.1,0c0.3,0,0.7,0,1,0c0.5,0,0.9,0,1.2-0.1c0.3-0.1,0.5-0.2,0.6-0.4c0.1-0.2,0.2-0.5,0.2-0.9c0-0.3,0-0.6-0.1-0.8
			s-0.2-0.3-0.4-0.4c-0.2-0.1-0.5-0.1-0.9-0.1l-2.5,0v-2.5h2.5c0.3,0,0.6,0,0.7-0.1c0.2-0.1,0.3-0.1,0.4-0.2s0.1-0.2,0.2-0.4
			c0-0.1,0-0.3,0-0.5c0-0.3,0-0.5-0.1-0.7c-0.1-0.1-0.2-0.3-0.4-0.3c-0.2-0.1-0.5-0.1-0.9-0.1c-0.7,0-1.4,0-2,0c-0.6,0-1.2,0-1.7,0
			l-0.1-2.7c0.8-0.1,1.5-0.2,2.3-0.3C462.3,479.9,463.1,479.9,463.8,479.9z"/>
	</g>
</g>
<g>
	<g>
		<path class="st2" d="M643.8,395.7v12.9h-4.1v-8.1c0-0.3,0-0.6,0-0.8c0-0.3,0.1-0.5,0.1-0.8l-3,0.6l-0.5-2.5l3.3-1.3H643.8z"/>
		<path class="st2" d="M648.4,405.2c0.5,0,0.9,0.1,1.1,0.3c0.2,0.2,0.3,0.5,0.3,1.1v0.8c0,0.5-0.1,0.8-0.3,1.1
			c-0.2,0.2-0.5,0.3-1.1,0.3h-0.9c-0.5,0-0.9-0.1-1.1-0.3c-0.2-0.2-0.3-0.6-0.3-1.1v-0.8c0-0.5,0.1-0.9,0.3-1.1
			c0.2-0.2,0.5-0.3,1.1-0.3H648.4z"/>
		<path class="st2" d="M657.3,395.5c0.4,0,0.9,0,1.5,0c0.7,0,1.3,0.2,2,0.4l-0.2,2.4c-0.4,0-0.7,0-1,0c-0.3,0-0.6,0-1,0
			c-0.4,0-0.8,0-1.3,0c-0.5,0-0.8,0.1-1.1,0.1c-0.3,0.1-0.5,0.3-0.6,0.6c-0.1,0.3-0.2,0.7-0.2,1.3c0,0.6,0,1.3,0,2.2
			c0,0.8,0,1.4,0,1.9c0,0.5,0.1,0.8,0.2,1.1c0.1,0.2,0.2,0.4,0.4,0.5c0.2,0.1,0.4,0.1,0.8,0.1c0.4,0,0.7-0.1,0.9-0.2
			c0.2-0.1,0.3-0.3,0.3-0.6c0-0.3,0.1-0.7,0.1-1.1c0-0.4,0-0.7-0.1-0.9c-0.1-0.2-0.2-0.3-0.4-0.4c-0.2-0.1-0.5-0.1-0.8-0.1
			c-0.3,0-0.5,0-0.8,0.1c-0.2,0.1-0.5,0.2-0.8,0.4c-0.3,0.2-0.7,0.4-1.2,0.7l-0.1-1.4c0.4-0.6,0.8-1.2,1.2-1.5s0.8-0.6,1.2-0.7
			c0.5-0.1,1-0.2,1.6-0.2c1,0,1.8,0.1,2.4,0.4c0.6,0.3,0.9,0.7,1.2,1.3c0.2,0.6,0.3,1.3,0.3,2.3c0,0.9-0.1,1.6-0.2,2.2
			c-0.1,0.6-0.4,1.1-0.8,1.5c-0.4,0.4-0.9,0.7-1.5,0.9s-1.5,0.3-2.5,0.3c-1,0-1.8-0.1-2.5-0.3c-0.7-0.2-1.2-0.5-1.6-1
			c-0.4-0.5-0.7-1.1-0.9-2c-0.2-0.9-0.3-2-0.3-3.3c0-1.5,0.1-2.7,0.4-3.6c0.2-0.9,0.6-1.6,1.1-2.1c0.5-0.5,1.1-0.8,1.8-0.9
			C655.5,395.5,656.3,395.5,657.3,395.5z"/>
	</g>
</g>
</svg>
