<?xml version="1.0" encoding="utf-8"?>
<!-- Generator: Adobe Illustrator 27.4.1, SVG Export Plug-In . SVG Version: 6.00 Build 0)  -->
<svg version="1.1" id="Слой_1" xmlns="http://www.w3.org/2000/svg" xmlns:xlink="http://www.w3.org/1999/xlink" x="0px" y="0px"
	 viewBox="0 0 1280 1024" style="enable-background:new 0 0 1280 1024;" xml:space="preserve">
<style type="text/css">
	.st0{fill:#B7E0E6;}
	.st1{fill:#373437;}
	.st2{fill:none;stroke:#373437;}
	.st3{fill:none;stroke:#373437;stroke-miterlimit:3.9999;}
	.st4{fill:none;stroke:#373437;stroke-miterlimit:4.0001;}
</style>
<rect x="333" y="230.9" class="st0" width="614.7" height="485"/>
<rect x="314.6" y="744.5" class="st1" width="94.9" height="9"/>
<rect x="314.6" y="744.5" class="st2" width="94.9" height="9"/>
<rect x="384.6" y="744.5" class="st2" width="129.9" height="9"/>
<rect x="314.6" y="716.8" class="st1" width="87.2" height="29.3"/>
<rect x="314.6" y="716.8" class="st2" width="87.2" height="29.3"/>
<rect x="566.5" y="744.5" class="st1" width="94.9" height="9"/>
<rect x="566.5" y="744.5" class="st2" width="94.9" height="9"/>
<rect x="574.3" y="716.8" class="st1" width="87.2" height="29.3"/>
<rect x="574.3" y="716.8" class="st2" width="87.2" height="29.3"/>
<rect x="384.6" y="716.8" class="st2" width="122.2" height="27.6"/>
<path class="st2" d="M507.4,743.7c0,0,3.1-12.9,6.3-21.8c3.3-8.8,7.3-13.7,7.3-13.7l57.8,33.3l-1.7,2.8L519,711.6"/>
<rect x="642.2" y="744.5" class="st1" width="94.9" height="9"/>
<rect x="642.2" y="744.5" class="st2" width="94.9" height="9"/>
<rect x="684.1" y="744.5" class="st2" width="129.9" height="9"/>
<rect x="642.2" y="716.8" class="st1" width="87.2" height="29.3"/>
<rect x="642.2" y="716.8" class="st2" width="87.2" height="29.3"/>
<rect x="865.9" y="744.5" class="st1" width="94.9" height="9"/>
<rect x="865.9" y="744.5" class="st2" width="94.9" height="9"/>
<rect x="873.7" y="716.8" class="st1" width="87.2" height="29.3"/>
<rect x="873.7" y="716.8" class="st2" width="87.2" height="29.3"/>
<rect x="684.1" y="716.8" class="st2" width="122.2" height="27.6"/>
<path class="st2" d="M806.8,743.7c0,0,3.1-12.9,6.3-21.8c3.3-8.8,7.3-13.7,7.3-13.7l57.8,33.3l-1.7,2.8l-58.1-32.7"/>
<path class="st2" d="M798.2,381.7c0,0-4.2-0.4-15.9,3.7c-9.8,3.5-18.9,10.4-18.9,10.4l28,48.1l2.3-1.4l-28-48.2"/>
<path class="st2" d="M689.7,221.7c0,0,0,11.3,5,25.3c4.2,11.7,12.4,22.7,12.4,22.7l84.6-48.6l-1.7-2.8L705.2,267"/>
<path class="st2" d="M644.2,359.8c0,0-11.3,0-25.3-5c-11.7-4.2-22.7-12.4-22.7-12.4l48.6-84.6l2.8,1.7L599,344.3"/>
<rect x="313.2" y="206.1" class="st1" width="19" height="637.5"/>
<rect x="631.3" y="217.6" class="st1" width="16.8" height="71.6"/>
<rect x="631.3" y="217.6" class="st2" width="16.8" height="71.6"/>
<rect x="317.9" y="206.1" class="st1" width="371.7" height="24.4"/>
<rect x="317.9" y="215.3" class="st1" width="320.9" height="15.3"/>
<rect x="317.9" y="215.3" class="st2" width="320.9" height="15.3"/>
<rect x="768.3" y="208.3" class="st1" width="33.6" height="22.2"/>
<rect x="768.3" y="208.3" class="st2" width="33.6" height="22.2"/>
<rect x="768.3" y="204.7" class="st1" width="198.2" height="25.9"/>
<rect x="631.3" y="358.7" class="st1" width="16.8" height="372.3"/>
<rect x="631.3" y="358.7" class="st2" width="16.8" height="372.3"/>
<rect x="631.3" y="811.7" class="st1" width="16.8" height="79.1"/>
<rect x="631.3" y="811.7" class="st2" width="16.8" height="79.1"/>
<rect x="949.7" y="208.3" class="st1" width="16.8" height="682.5"/>
<rect x="949.7" y="208.3" class="st2" width="16.8" height="682.5"/>
<path class="st2" d="M757.8,469.6c0,0,0.5,5-4.5,19.1c-4.2,11.7-12.4,22.7-12.4,22.7l-57.7-33.6l1.7-2.8l57.9,33.6"/>
<rect x="636.6" y="470.5" class="st1" width="50.5" height="9.7"/>
<rect x="636.6" y="470.5" class="st2" width="50.5" height="9.7"/>
<rect x="755.7" y="470.5" class="st1" width="37.9" height="9.7"/>
<rect x="755.7" y="470.5" class="st2" width="37.9" height="9.7"/>
<rect x="794.1" y="491" class="st1" width="160.8" height="9.7"/>
<rect x="794.1" y="491" class="st2" width="160.8" height="9.7"/>
<rect x="788.3" y="437.5" class="st1" width="9.7" height="63.2"/>
<rect x="788.3" y="437.5" class="st2" width="9.7" height="63.2"/>
<rect x="788.3" y="307.9" class="st1" width="9.7" height="75.2"/>
<rect x="788.3" y="307.9" class="st2" width="9.7" height="75.2"/>
<rect x="790" y="307.9" class="st1" width="165.7" height="9.7"/>
<rect x="790" y="307.9" class="st2" width="165.7" height="9.7"/>
<rect x="643.2" y="875.8" class="st2" width="313.9" height="9"/>
<polygon class="st2" points="635.2,884.7 635.2,875.8 328.1,830.7 328.1,839.7 "/>
<rect x="922.3" y="232.5" class="st2" width="25.4" height="73.4"/>
<line class="st2" x1="943.7" y1="232.6" x2="943.7" y2="306.4"/>
<polyline class="st2" points="943.7,236.3 925.4,237.9 925.4,284.4 943.7,286.4 943.7,289.5 925.2,291.5 925.2,301.9 943.7,304.2 
	"/>
<rect x="650.1" y="395.1" class="st2" width="25.4" height="73.4"/>
<line class="st2" x1="671.5" y1="395.2" x2="671.5" y2="469"/>
<polyline class="st2" points="671.5,398.9 653.2,400.5 653.2,447 671.5,449 671.5,452.1 653,454.1 653,464.5 671.5,466.8 "/>
<path class="st1" d="M873,424.2v5.6h-2.4L873,424.2z M873,431.9v2.7h2.4v-2.7h1.1v-2.1h-1.1v-10.1h-2.6l-4.3,10.1v2.1H873z
	 M867.4,432.5H865v2.2h2.4V432.5z M857.4,433.9c0.6,0.7,1.5,1,2.7,1c1.1,0,2-0.3,2.6-1s0.9-1.6,0.9-2.8v-1.2c0-1.6-0.5-2.7-1.6-3.2
	c1.1-0.5,1.6-1.5,1.6-3.1v-0.4c0-1.2-0.3-2.1-0.9-2.8c-0.6-0.7-1.5-1-2.6-1s-2,0.3-2.7,1c-0.6,0.7-1,1.6-1,2.8v0.8h2.4v-1
	c0-1,0.4-1.5,1.2-1.5c0.4,0,0.7,0.1,0.9,0.4s0.3,0.7,0.3,1.3v0.8c0,0.6-0.1,1-0.4,1.2c-0.2,0.2-0.6,0.4-1.1,0.4h-0.9v2.1h0.8
	c0.5,0,0.9,0.1,1.2,0.4c0.2,0.3,0.4,0.8,0.4,1.5v1.2c0,0.6-0.1,1.1-0.3,1.3c-0.2,0.3-0.5,0.4-0.9,0.4c-0.8,0-1.2-0.5-1.2-1.5v-1.4
	h-2.4v1.2C856.4,432.3,856.8,433.2,857.4,433.9"/>
<path class="st1" d="M873.5,405.5v0.1c-0.1,0.5-0.3,0.9-0.6,1c-0.3,0.2-0.8,0.2-1.5,0.2v2.1c0.6,0,1.2,0,1.7-0.1s0.9-0.2,1.2-0.4
	c0.3-0.2,0.6-0.5,0.8-0.8s0.4-0.7,0.6-1.1c0.1-0.4,0.3-0.9,0.4-1.5l2.5-11.2h-2.4l-1.1,5.2l-0.6,3.5l-0.7-3.5l-1.3-5.1h-2.4
	L873.5,405.5z M864,408.9l5.9-15h-2l-5.9,15H864z M855.1,408.1c0.6,0.7,1.5,1,2.6,1c1.2,0,2.1-0.3,2.7-1c0.6-0.7,1-1.6,1-2.8v-2H859
	v2.1c0,1-0.4,1.5-1.2,1.5s-1.2-0.5-1.2-1.5v-8.1c0-1,0.4-1.5,1.2-1.5s1.2,0.5,1.2,1.5v1.6h2.4v-1.5c0-1.2-0.3-2.1-1-2.8
	c-0.6-0.7-1.5-1-2.7-1s-2,0.3-2.6,1s-0.9,1.6-0.9,2.8v7.8C854.3,406.5,854.5,407.5,855.1,408.1"/>
<path class="st1" d="M948.3,549.9H902v-46.8h46.2L948.3,549.9L948.3,549.9z M949.3,502H901v48.9h48.3V502z"/>
<path class="st2" d="M948.3,549.9H902v-46.8h46.2L948.3,549.9L948.3,549.9z M949.3,502H901v48.9h48.3V502z"/>
<path class="st1" d="M906.3,510.1c0-1.2,0.9-2.1,2.1-2.1h24.3c1.1,0,2.1,0.9,2.1,2.1v32.8c0,1.2-0.9,2.1-2.1,2.1h-24.3
	c-1.1,0-2.1-0.9-2.1-2.1V510.1z M935.7,542.9v-32.8c0-1.7-1.4-3.1-3.1-3.1h-24.3c-1.7,0-3.1,1.4-3.1,3.1v32.8c0,1.7,1.4,3.1,3.1,3.1
	h24.3C934.3,546,935.7,544.6,935.7,542.9"/>
<path class="st2" d="M906.3,510.1c0-1.2,0.9-2.1,2.1-2.1h24.3c1.1,0,2.1,0.9,2.1,2.1v32.8c0,1.2-0.9,2.1-2.1,2.1h-24.3
	c-1.1,0-2.1-0.9-2.1-2.1V510.1z M935.7,542.9v-32.8c0-1.7-1.4-3.1-3.1-3.1h-24.3c-1.7,0-3.1,1.4-3.1,3.1v32.8c0,1.7,1.4,3.1,3.1,3.1
	h24.3C934.3,546,935.7,544.6,935.7,542.9z"/>
<path class="st1" d="M931.1,541.3h-21.2v-29.7h21.2V541.3z M932.1,510.6h-23.3v31.8h23.3V510.6z"/>
<path class="st2" d="M931.1,541.3h-21.2v-29.7h21.2V541.3z M932.1,510.6h-23.3v31.8h23.3V510.6z"/>
<path class="st1" d="M916.4,526.5c0-1.5,1.2-2.7,2.7-2.7s2.7,1.2,2.7,2.7s-1.2,2.7-2.7,2.7S916.4,527.9,916.4,526.5 M922.7,526.5
	c0-2.1-1.6-3.7-3.7-3.7c-2,0-3.7,1.7-3.7,3.7c0,2.1,1.6,3.7,3.7,3.7C921.1,530.2,922.7,528.5,922.7,526.5"/>
<path class="st2" d="M916.4,526.5c0-1.5,1.2-2.7,2.7-2.7s2.7,1.2,2.7,2.7s-1.2,2.7-2.7,2.7S916.4,527.9,916.4,526.5z M922.7,526.5
	c0-2.1-1.6-3.7-3.7-3.7c-2,0-3.7,1.7-3.7,3.7c0,2.1,1.6,3.7,3.7,3.7C921.1,530.2,922.7,528.5,922.7,526.5z"/>
<path class="st1" d="M913.6,401c0-8.7,7.1-15.8,15.8-15.8h16.7c1.3,0,2.4,1.1,2.4,2.4v35.6c0,1.3-1.1,2.4-2.4,2.4h-16.7
	c-8.7,0-15.8-7.1-15.8-15.8V401z M949.4,423.3v-35.6c0-1.8-1.5-3.3-3.3-3.3h-16.7c-9.2,0-16.6,7.5-16.6,16.6v8.9
	c0,9.2,7.5,16.6,16.6,16.6h16.7C947.9,426.5,949.4,425.1,949.4,423.3"/>
<path class="st2" d="M913.6,401c0-8.7,7.1-15.8,15.8-15.8h16.7c1.3,0,2.4,1.1,2.4,2.4v35.6c0,1.3-1.1,2.4-2.4,2.4h-16.7
	c-8.7,0-15.8-7.1-15.8-15.8V401z M949.4,423.3v-35.6c0-1.8-1.5-3.3-3.3-3.3h-16.7c-9.2,0-16.6,7.5-16.6,16.6v8.9
	c0,9.2,7.5,16.6,16.6,16.6h16.7C947.9,426.5,949.4,425.1,949.4,423.3z"/>
<path class="st1" d="M917.6,401c0-6.5,5.3-11.8,11.8-11.8h9.8c1.1,0,2.1,0.9,2.1,2.1v28.4c0,1.1-0.9,2.1-2.1,2.1h-9.8
	c-6.5,0-11.8-5.3-11.8-11.8V401z M942.1,419.6v-28.4c0-1.6-1.3-2.9-3-2.9h-9.8c-7,0-12.7,5.7-12.7,12.7v8.9c0,7,5.7,12.7,12.7,12.7
	h9.8C940.8,422.6,942.1,421.3,942.1,419.6"/>
<path class="st2" d="M917.6,401c0-6.5,5.3-11.8,11.8-11.8h9.8c1.1,0,2.1,0.9,2.1,2.1v28.4c0,1.1-0.9,2.1-2.1,2.1h-9.8
	c-6.5,0-11.8-5.3-11.8-11.8V401z M942.1,419.6v-28.4c0-1.6-1.3-2.9-3-2.9h-9.8c-7,0-12.7,5.7-12.7,12.7v8.9c0,7,5.7,12.7,12.7,12.7
	h9.8C940.8,422.6,942.1,421.3,942.1,419.6z"/>
<path class="st1" d="M925.8,405.5c0-1.1,0.9-2,2-2s2,0.9,2,2s-0.9,2-2,2C926.7,407.4,925.8,406.5,925.8,405.5 M930.7,405.5
	c0-1.6-1.3-2.9-2.9-2.9c-1.6,0-2.9,1.3-2.9,2.9s1.3,2.9,2.9,2.9C929.4,408.3,930.7,407,930.7,405.5"/>
<path class="st2" d="M925.8,405.5c0-1.1,0.9-2,2-2s2,0.9,2,2s-0.9,2-2,2C926.7,407.4,925.8,406.5,925.8,405.5z M930.7,405.5
	c0-1.6-1.3-2.9-2.9-2.9c-1.6,0-2.9,1.3-2.9,2.9s1.3,2.9,2.9,2.9C929.4,408.3,930.7,407,930.7,405.5z"/>
<rect x="799.9" y="434.7" class="st2" width="36.3" height="54.5"/>
<line class="st2" x1="835.6" y1="434.5" x2="800" y2="489.2"/>
<line class="st2" x1="799.6" y1="434.5" x2="835.2" y2="489.2"/>
<path class="st2" d="M920.7,350.4c0,1.3-1.1,2.4-2.4,2.4c-1.3,0-2.4-1.1-2.4-2.4s1.1-2.4,2.4-2.4C919.7,348,920.7,349.1,920.7,350.4
	z"/>
<path class="st2" d="M805.2,339.5c0-8.7,7-15.7,15.7-15.7h106.9c8.7,0,15.7,7,15.7,15.7v21.7c0,8.7-7,15.7-15.7,15.7H820.9
	c-8.7,0-15.7-7-15.7-15.7V339.5z"/>
<path class="st2" d="M814.8,344.5c0-8.7,7-15.7,15.7-15.7h87.7c8.7,0,15.7,7,15.7,15.7v11.8c0,8.7-7,15.7-15.7,15.7h-87.7
	c-8.7,0-15.7-7-15.7-15.7V344.5z"/>
<path class="st2" d="M826.4,341.4c0-4.3,3.5-7.8,7.8-7.8h86.5c4.3,0,7.8,3.5,7.8,7.8v18c0,4.3-3.5,7.8-7.8,7.8h-86.5
	c-4.3,0-7.8-3.5-7.8-7.8V341.4z"/>
<polygon class="st2" points="948.9,381.4 948.9,381.4 799.8,381.4 799.8,319.4 948.9,319.4 "/>
<path class="st1" d="M885.6,455.5c0,9.5,7.7,17.2,17.2,17.2h25c1.6,0,3-1.3,3-3v-28.5c0-1.6-1.3-3-3-3h-25
	C893.3,438.2,885.6,445.9,885.6,455.5 M932,441.2v28.5c0,2.3-1.9,4.2-4.2,4.2h-25c-10.2,0-18.4-8.3-18.4-18.4
	c0-10.2,8.3-18.4,18.4-18.4h25C930.1,437,932,438.9,932,441.2"/>
<path class="st2" d="M885.6,455.5c0,9.5,7.7,17.2,17.2,17.2h25c1.6,0,3-1.3,3-3v-28.5c0-1.6-1.3-3-3-3h-25
	C893.3,438.2,885.6,445.9,885.6,455.5z M932,441.2v28.5c0,2.3-1.9,4.2-4.2,4.2h-25c-10.2,0-18.4-8.3-18.4-18.4
	c0-10.2,8.3-18.4,18.4-18.4h25C930.1,437,932,438.9,932,441.2z"/>
<path class="st2" d="M922.5,467.8v-24.7c0-0.2-0.1-0.3-0.3-0.3h-18.8c-7,0-12.7,5.7-12.7,12.7s5.7,12.7,12.7,12.7h18.8
	C922.3,468.1,922.5,468,922.5,467.8z"/>
<path class="st1" d="M921.9,467.5v-24.1h-18.5c-6.7,0-12.1,5.4-12.1,12.1s5.4,12.1,12.1,12.1h18.5V467.5z M923.1,443.1v24.7
	c0,0.5-0.4,0.9-0.9,0.9h-18.8c-7.3,0-13.3-5.9-13.3-13.2c0-7.3,5.9-13.3,13.3-13.3h18.8C922.7,442.2,923.1,442.6,923.1,443.1"/>
<path class="st2" d="M921.9,467.5v-24.1h-18.5c-6.7,0-12.1,5.4-12.1,12.1s5.4,12.1,12.1,12.1h18.5V467.5z M923.1,443.1v24.7
	c0,0.5-0.4,0.9-0.9,0.9h-18.8c-7.3,0-13.3-5.9-13.3-13.2c0-7.3,5.9-13.3,13.3-13.3h18.8C922.7,442.2,923.1,442.6,923.1,443.1z"/>
<path class="st1" d="M903.3,455.5c0,1.8,1.5,3.3,3.3,3.3s3.3-1.5,3.3-3.3s-1.5-3.3-3.3-3.3S903.3,453.7,903.3,455.5 M911,455.5
	c0,2.4-2,4.4-4.4,4.4s-4.4-2-4.4-4.4c0-2.5,2-4.4,4.4-4.4S911,453,911,455.5"/>
<path class="st2" d="M903.3,455.5c0,1.8,1.5,3.3,3.3,3.3s3.3-1.5,3.3-3.3s-1.5-3.3-3.3-3.3S903.3,453.7,903.3,455.5z M911,455.5
	c0,2.4-2,4.4-4.4,4.4s-4.4-2-4.4-4.4c0-2.5,2-4.4,4.4-4.4S911,453,911,455.5z"/>
<rect x="915.2" y="457.6" transform="matrix(0.5977 -0.8017 0.8017 0.5977 -2.4379 920.2927)" class="st1" width="1.2" height="9.9"/>
<rect x="915.2" y="457.6" transform="matrix(0.5977 -0.8017 0.8017 0.5977 -2.4379 920.2927)" class="st3" width="1.2" height="9.9"/>
<polygon class="st1" points="920.1,446 912.2,451.9 911.5,451 919.4,445.1 "/>
<polygon class="st2" points="920.1,446 912.2,451.9 911.5,451 919.4,445.1 "/>
<path class="st1" d="M932,467.4c0,2.6,2.1,4.8,4.8,4.8h6.5c2.6,0,4.8-2.1,4.8-4.8v-23.8c0-2.6-2.1-4.8-4.8-4.8h-6.5
	c-2.6,0-4.8,2.1-4.8,4.8V467.4z M949.3,443.6v23.8c0,3.3-2.7,6-6,6h-6.5c-3.3,0-6-2.7-6-6v-23.8c0-3.3,2.7-6,6-6h6.5
	C946.6,437.6,949.3,440.3,949.3,443.6"/>
<path class="st2" d="M932,467.4c0,2.6,2.1,4.8,4.8,4.8h6.5c2.6,0,4.8-2.1,4.8-4.8v-23.8c0-2.6-2.1-4.8-4.8-4.8h-6.5
	c-2.6,0-4.8,2.1-4.8,4.8V467.4z M949.3,443.6v23.8c0,3.3-2.7,6-6,6h-6.5c-3.3,0-6-2.7-6-6v-23.8c0-3.3,2.7-6,6-6h6.5
	C946.6,437.6,949.3,440.3,949.3,443.6z"/>
<path class="st1" d="M938.2,455.5c0,1,0.8,1.8,1.9,1.8c1,0,1.8-0.8,1.8-1.8s-0.8-1.8-1.8-1.8C939.1,453.6,938.2,454.4,938.2,455.5
	 M943.1,455.5c0,1.7-1.4,3-3,3c-1.7,0-3-1.4-3-3c0-1.7,1.4-3,3-3C941.7,452.4,943.1,453.8,943.1,455.5"/>
<path class="st2" d="M938.2,455.5c0,1,0.8,1.8,1.9,1.8c1,0,1.8-0.8,1.8-1.8s-0.8-1.8-1.8-1.8C939.1,453.6,938.2,454.4,938.2,455.5z
	 M943.1,455.5c0,1.7-1.4,3-3,3c-1.7,0-3-1.4-3-3c0-1.7,1.4-3,3-3C941.7,452.4,943.1,453.8,943.1,455.5z"/>
<path class="st1" d="M493.8,581.8c0-1.6,0.7-2.5,2.1-2.5s2,0.8,2,2.5v13.5c0,1.7-0.7,2.5-2,2.5c-1.4,0-2.1-0.8-2.1-2.5V581.8z
	 M491.4,599.7c1,1.1,2.5,1.6,4.4,1.6s3.4-0.5,4.4-1.6s1.5-2.6,1.5-4.6v-13c0-2-0.5-3.5-1.5-4.6s-2.5-1.6-4.4-1.6s-3.4,0.5-4.4,1.6
	s-1.5,2.6-1.5,4.6v13C489.8,597.1,490.4,598.6,491.4,599.7 M487.5,597.5h-3.9v3.6h3.9V597.5z M472.9,581.8c0-1.6,0.7-2.4,2-2.4
	c1.4,0,2,0.8,2,2.4v4.5c0,1.6-0.7,2.5-2,2.5c-1.4,0-2-0.8-2-2.5V581.8z M470.1,590.9c0.7,1,1.8,1.5,3.3,1.5c1.7,0,3-0.7,3.7-2.2v4.6
	c0,1.1-0.2,1.9-0.5,2.4c-0.4,0.5-0.9,0.7-1.6,0.7c-1.4,0-2.1-0.8-2.1-2.5v-0.9h-3.7v0.6c0,2,0.5,3.6,1.5,4.6c1,1.1,2.4,1.6,4.4,1.6
	c4,0,6-2.2,6-6.5V582c0-2-0.5-3.5-1.5-4.6s-2.5-1.6-4.4-1.6s-3.4,0.5-4.4,1.6s-1.5,2.6-1.5,4.6v4.6
	C469,588.5,469.3,589.9,470.1,590.9 M460.7,582v19.1h3.9v-25H462c-0.2,0.4-0.3,0.7-0.4,1c-0.1,0.2-0.3,0.5-0.5,0.8s-0.5,0.5-0.8,0.7
	s-0.6,0.3-1.1,0.4c-0.5,0.1-1,0.2-1.6,0.2v2.8H460.7z"/>
<path class="st1" d="M567.5,537.6l1.9,12.6h-3.8L567.5,537.6z M564.4,558.2l0.7-4.5h4.8l0.7,4.5h3.9l-4-25h-6.1l-4,25H564.4z
	 M551.8,536.7v21.4h3.9v-21.4h4.1v-3.6h-12.2v3.6H551.8z M540.3,537.6l1.9,12.6h-3.8L540.3,537.6z M537.2,558.2l0.7-4.5h4.8l0.7,4.5
	h3.9l-4-25h-6.1l-4,25H537.2z M523,558.2v-10.7h4.5v10.7h3.9v-25h-3.9v10.7H523v-10.7h-4v25H523z M503.1,558.2v-17.7l2.9,17.7h3.7
	l2.7-17.9v17.9h3.9v-25h-5.7L508,551l-2.9-17.8h-5.5v25H503.1z M489.2,538.9c0-1.6,0.7-2.5,2.1-2.5s2,0.8,2,2.5v13.5
	c0,1.7-0.7,2.5-2,2.5c-1.4,0-2.1-0.8-2.1-2.5V538.9z M486.8,556.8c1,1.1,2.5,1.6,4.4,1.6s3.4-0.5,4.4-1.6s1.5-2.6,1.5-4.6v-13
	c0-2-0.5-3.5-1.5-4.6s-2.5-1.6-4.4-1.6s-3.4,0.5-4.4,1.6s-1.5,2.6-1.5,4.6v13C485.2,554.2,485.8,555.7,486.8,556.8 M474.7,558.2
	v-7.7l1.2-2.3l3.8,10h4l-5.5-13.9l5.5-11.2h-3.9l-5.1,10.9v-10.9h-3.9v25h3.9V558.2z M454.6,539.3c0-0.9,0.2-1.6,0.5-2
	s0.8-0.6,1.5-0.6h1.9v7.7H457c-0.8,0-1.4-0.2-1.8-0.6c-0.4-0.4-0.6-1.1-0.6-2.1V539.3z M454.2,558.2c0.1-0.3,0.2-0.5,0.2-0.7
	c0-0.1,0.1-0.4,0.1-0.8c0-0.4,0.1-0.9,0.1-1.6v-3.9c0-1.2,0.2-2,0.6-2.5s1.1-0.7,2-0.7h1.4v10.2h3.9v-25h-5.9c-2,0-3.5,0.5-4.4,1.4
	s-1.4,2.4-1.4,4.3v2c0,2.6,0.9,4.3,2.6,5.1c-0.9,0.4-1.6,1-2,1.9s-0.6,2-0.6,3.4v3.9c0,1.3-0.1,2.4-0.4,3L454.2,558.2L454.2,558.2z
	 M442.3,537.6l1.9,12.6h-3.8L442.3,537.6z M439.3,558.2l0.7-4.5h4.8l0.7,4.5h3.9l-4-25h-6.1l-4,25H439.3z M419.8,558.2
	c2,0,3.4-0.5,4.3-1.5s1.4-2.6,1.4-4.9l0.4-15.1h3.4v21.4h3.9v-25h-11.3l-0.4,18.9c0,0.6-0.1,1-0.2,1.4c-0.1,0.3-0.2,0.6-0.4,0.8
	c-0.2,0.2-0.4,0.3-0.7,0.3c-0.3,0-0.6,0.1-1.1,0.1v3.6H419.8z M409.1,558.2l3.3-11.5l1.6-6.1v17.6h3.9v-25h-4.7l-3.2,10.3l-1.4,5.5
	v-15.8H405v25H409.1z M386.2,558.2l3.6-11.2l1,1.9v9.2h3.9V549l1-1.9l3.6,11.1h3.9l-4.8-14.8l4.8-10.2h-3.8l-4.7,10.1v-10.1h-3.9
	v10.1l-4.7-10.1h-3.8l4.9,10.3l-4.9,14.8L386.2,558.2L386.2,558.2z"/>
<path class="st1" d="M843.1,827.6c2,0,3.4-0.4,4.2-1.2c0.9-0.8,1.3-2.2,1.3-4.2v-14.1c0-2-0.4-3.4-1.3-4.2c-0.8-0.8-2.3-1.2-4.2-1.2
	h-1.2v3.4h1c0.7,0,1.1,0.2,1.4,0.5s0.4,0.9,0.4,1.7V822c0,0.8-0.1,1.4-0.4,1.7c-0.3,0.3-0.8,0.5-1.4,0.5h-1v3.4L843.1,827.6
	L843.1,827.6z M830,826.3c1.1,1.1,2.5,1.6,4.5,1.6s3.4-0.5,4.4-1.6s1.5-2.6,1.5-4.6v-2c0-2.7-0.9-4.5-2.7-5.3
	c1.8-0.8,2.7-2.5,2.7-5.1v-0.6c0-2-0.5-3.6-1.5-4.6c-1-1.1-2.4-1.6-4.4-1.6s-3.4,0.5-4.5,1.6s-1.6,2.6-1.6,4.6v1.4h3.9v-1.6
	c0-1.6,0.7-2.5,2-2.5c0.7,0,1.2,0.2,1.5,0.6c0.3,0.4,0.5,1.2,0.5,2.2v1.4c0,1-0.2,1.6-0.6,2c-0.4,0.4-1,0.6-1.8,0.6h-1.5v3.6h1.3
	c0.9,0,1.6,0.2,2,0.7s0.6,1.3,0.6,2.4v2c0,1-0.2,1.8-0.5,2.2s-0.9,0.6-1.5,0.6c-1.3,0-2-0.8-2-2.5v-2.3h-3.9v2.1
	C828.4,823.6,829,825.2,830,826.3 M825.9,824H822v3.6h3.9V824z M814.5,810.1v9.4h-4L814.5,810.1z M814.5,823.1v4.5h3.9v-4.5h1.8
	v-3.6h-1.8v-16.9h-4.3l-7.1,16.9v3.6H814.5z M800.4,826.4c0.8,0.8,2.3,1.2,4.2,1.2h1.2v-3.4h-1c-0.7,0-1.1-0.2-1.4-0.5
	c-0.3-0.3-0.4-0.9-0.4-1.7v-13.8c0-0.8,0.1-1.4,0.4-1.7c0.3-0.3,0.7-0.5,1.4-0.5h1v-3.4h-1.2c-2,0-3.4,0.4-4.2,1.2
	c-0.9,0.8-1.3,2.2-1.3,4.2v14.1C799.1,824.1,799.6,825.6,800.4,826.4 M782.9,817.4c0-1.6,0.7-2.5,2-2.5s2,0.8,2,2.5v4.5
	c0,1.6-0.7,2.4-2,2.4c-1.4,0-2-0.8-2-2.4V817.4z M780.5,826.3c1,1.1,2.5,1.6,4.4,1.6s3.4-0.5,4.4-1.6s1.5-2.6,1.5-4.6V817
	c0-1.9-0.4-3.3-1.1-4.3c-0.7-1-1.8-1.5-3.2-1.5c-1.7,0-3,0.7-3.6,2.2V809c0-1.1,0.2-1.9,0.5-2.4c0.4-0.5,0.9-0.7,1.6-0.7
	c1.4,0,2,0.8,2,2.5v0.9h3.7v-0.6c0-2-0.5-3.6-1.5-4.6c-1-1.1-2.4-1.6-4.3-1.6c-4,0-6,2.2-6,6.5v12.8
	C779,823.6,779.5,825.2,780.5,826.3 M776.5,824h-3.9v3.6h3.9V824z M761.9,808.8c0-1,0.2-1.8,0.6-2.2c0.4-0.4,0.9-0.6,1.6-0.6
	c0.7,0,1.2,0.2,1.6,0.6s0.6,1.2,0.6,2.2v1.4c0,1.8-0.7,2.6-2.2,2.6s-2.2-0.9-2.2-2.6L761.9,808.8L761.9,808.8z M761.9,819.2
	c0-1.9,0.7-2.8,2.2-2.8s2.2,0.9,2.2,2.8v2.3c0,1-0.2,1.8-0.6,2.2c-0.4,0.4-0.9,0.6-1.6,0.6c-0.7,0-1.2-0.2-1.6-0.6
	c-0.4-0.4-0.6-1.2-0.6-2.2L761.9,819.2L761.9,819.2z M759.5,826.3c1.1,1.1,2.6,1.6,4.6,1.6s3.5-0.5,4.6-1.6s1.6-2.6,1.6-4.6v-2
	c0-2.6-0.8-4.3-2.4-5.2c1.6-0.9,2.4-2.6,2.4-5v-0.8c0-2-0.5-3.5-1.6-4.6s-2.6-1.6-4.6-1.6s-3.5,0.5-4.6,1.6s-1.6,2.6-1.6,4.6v0.8
	c0,2.5,0.8,4.1,2.4,5c-1.6,0.9-2.4,2.7-2.4,5.2v2C757.9,823.6,758.5,825.2,759.5,826.3"/>
<path class="st1" d="M806.5,626.9c0-1,0.2-1.8,0.6-2.2c0.4-0.4,0.9-0.6,1.6-0.6c0.7,0,1.2,0.2,1.6,0.6c0.4,0.4,0.6,1.2,0.6,2.2v1.4
	c0,1.8-0.7,2.6-2.2,2.6s-2.2-0.9-2.2-2.6L806.5,626.9L806.5,626.9z M806.5,637.3c0-1.9,0.7-2.8,2.2-2.8s2.2,0.9,2.2,2.8v2.3
	c0,1-0.2,1.8-0.6,2.2c-0.4,0.4-0.9,0.6-1.6,0.6c-0.7,0-1.2-0.2-1.6-0.6c-0.4-0.4-0.6-1.2-0.6-2.2L806.5,637.3L806.5,637.3z
	 M804.1,644.4c1.1,1.1,2.6,1.6,4.6,1.6s3.5-0.5,4.6-1.6s1.6-2.6,1.6-4.6v-2c0-2.6-0.8-4.3-2.4-5.2c1.6-0.9,2.4-2.6,2.4-5v-0.8
	c0-2-0.5-3.5-1.6-4.6s-2.6-1.6-4.6-1.6s-3.5,0.5-4.6,1.6s-1.6,2.6-1.6,4.6v0.8c0,2.5,0.8,4.1,2.4,5c-1.6,0.9-2.4,2.7-2.4,5.2v2
	C802.6,641.7,803.1,643.3,804.1,644.4 M800.4,642.1h-3.9v3.6h3.9V642.1z M785.7,626.9c0-1,0.2-1.8,0.6-2.2c0.4-0.4,0.9-0.6,1.6-0.6
	c0.7,0,1.2,0.2,1.6,0.6c0.4,0.4,0.6,1.2,0.6,2.2v1.4c0,1.8-0.7,2.6-2.2,2.6s-2.2-0.9-2.2-2.6L785.7,626.9L785.7,626.9z M785.7,637.3
	c0-1.9,0.7-2.8,2.2-2.8s2.2,0.9,2.2,2.8v2.3c0,1-0.2,1.8-0.6,2.2c-0.4,0.4-0.9,0.6-1.6,0.6c-0.7,0-1.2-0.2-1.6-0.6
	c-0.4-0.4-0.6-1.2-0.6-2.2L785.7,637.3L785.7,637.3z M783.4,644.4c1.1,1.1,2.6,1.6,4.6,1.6s3.5-0.5,4.6-1.6s1.6-2.6,1.6-4.6v-2
	c0-2.6-0.8-4.3-2.4-5.2c1.6-0.9,2.4-2.6,2.4-5v-0.8c0-2-0.5-3.5-1.6-4.6s-2.6-1.6-4.6-1.6s-3.5,0.5-4.6,1.6s-1.6,2.6-1.6,4.6v0.8
	c0,2.5,0.8,4.1,2.4,5c-1.6,0.9-2.4,2.7-2.4,5.2v2C781.8,641.7,782.3,643.3,783.4,644.4"/>
<path class="st1" d="M826.2,584c0-0.9,0.2-1.6,0.5-2s0.8-0.6,1.5-0.6h1.9v7.7h-1.5c-0.8,0-1.4-0.2-1.8-0.6c-0.4-0.4-0.6-1.1-0.6-2.1
	L826.2,584L826.2,584z M825.8,602.9c0.1-0.3,0.2-0.5,0.2-0.7c0-0.1,0.1-0.4,0.1-0.8c0-0.4,0.1-0.9,0.1-1.6v-3.9c0-1.2,0.2-2,0.6-2.5
	s1.1-0.7,2-0.7h1.4v10.2h3.9v-25h-5.9c-2,0-3.5,0.5-4.4,1.4s-1.4,2.4-1.4,4.3v2c0,2.6,0.9,4.3,2.6,5.1c-0.9,0.4-1.6,1-2,1.9
	s-0.6,2-0.6,3.4v3.9c0,1.3-0.1,2.4-0.4,3L825.8,602.9L825.8,602.9z M811.2,602.9v-10.7h4.5v10.7h3.9v-25h-3.9v10.7h-4.5v-10.7h-3.9
	v25H811.2z M795,602.9l3.1-9.3l3,9.3h3.9l-4.4-12.7l4.1-12.3h-3.4l-3,9.3l-3-9.3h-3.9l4.1,12.1l-4.4,12.9H795z M781.7,597.1v0.2
	c-0.2,0.9-0.5,1.4-1,1.7s-1.4,0.4-2.4,0.3v3.6c1.1,0.1,2,0,2.8-0.1s1.5-0.4,2-0.7s1-0.8,1.4-1.3c0.4-0.6,0.7-1.2,0.9-1.9
	s0.5-1.5,0.6-2.4l4.2-18.6h-3.9l-1.8,8.6l-0.9,5.8l-1.2-5.8l-2.1-8.5h-3.9L781.7,597.1z M766.5,602.9v-7.7l1.2-2.3l3.8,10h4L770,589
	l5.5-11.2h-3.9l-5.1,10.9v-10.9h-3.9v25h3.9V602.9z"/>
<path class="st1" d="M513.6,468.4c0-3.7,1.6-5.6,4.7-5.6c3.1,0,4.6,1.9,4.6,5.6v30.9c0,3.8-1.5,5.7-4.6,5.7s-4.7-1.9-4.7-5.7V468.4z
	 M508.1,509.3c2.4,2.5,5.7,3.7,10.1,3.7s7.8-1.2,10.1-3.7s3.5-6,3.5-10.6v-29.8c0-4.6-1.2-8.1-3.5-10.6s-5.7-3.7-10.1-3.7
	c-4.4,0-7.8,1.2-10.1,3.7c-2.4,2.5-3.5,6-3.5,10.6v29.8C504.6,503.2,505.8,506.8,508.1,509.3 M499.2,504.1h-9v8.3h9V504.1z
	 M470.3,468.8v43.6h9v-57.2h-6.1c-0.3,0.9-0.7,1.7-0.9,2.3c-0.3,0.6-0.7,1.2-1.2,1.9c-0.5,0.7-1.1,1.2-1.7,1.6s-1.5,0.7-2.5,1
	s-2.2,0.4-3.5,0.4v6.3h6.9V468.8z M440.7,472.3v21.5h-9.1L440.7,472.3z M440.7,502v10.4h9V502h4.1v-8.2h-4.1v-38.6h-9.8l-16.3,38.6
	v8.2H440.7z"/>
<ellipse transform="matrix(0.7071 -0.7071 0.7071 0.7071 -134.5779 452.0014)" class="st4" cx="478.3" cy="388.5" rx="50.1" ry="50.1"/>
<path class="st1" d="M487.1,413.2v-13.3l2.1-4l6.6,17.2h7l-9.5-24l9.5-19.3H496l-8.9,18.9v-18.9h-6.8v43.3L487.1,413.2L487.1,413.2z
	 M465.2,380.1v33h6.8v-43.3h-4.6c-0.3,0.7-0.5,1.3-0.7,1.7c-0.2,0.4-0.5,0.9-0.9,1.5c-0.4,0.5-0.8,0.9-1.3,1.2
	c-0.5,0.3-1.1,0.5-1.9,0.8c-0.8,0.2-1.7,0.3-2.7,0.3v4.8H465.2z"/>
<path class="st1" d="M715.6,351.1c0.6,0.7,1.5,1,2.7,1c1.1,0,2-0.3,2.6-1s0.9-1.6,0.9-2.8V345c0-1.1-0.2-2-0.7-2.5
	c-0.4-0.6-1.1-0.9-2-0.9s-1.6,0.4-2.1,1.1l0.2-3.6h4.1V337H715l-0.5,8.7h2.4v-0.4c0-1,0.4-1.5,1.2-1.5s1.2,0.5,1.2,1.5v3.3
	c0,1-0.4,1.5-1.2,1.5s-1.2-0.5-1.2-1.5v-1.4h-2.4v1.2C714.6,349.5,714.9,350.5,715.6,351.1 M713.1,349.8h-2.4v2.2h2.4V349.8z
	 M703.1,351.1c0.6,0.7,1.5,1,2.7,1c1.1,0,2-0.3,2.6-1s0.9-1.6,0.9-2.8V345c0-1.1-0.2-2-0.7-2.5c-0.4-0.6-1.1-0.9-2-0.9
	s-1.6,0.4-2.1,1.1l0.2-3.6h4.1V337h-6.3l-0.5,8.7h2.4v-0.4c0-1,0.4-1.5,1.2-1.5s1.2,0.5,1.2,1.5v3.3c0,1-0.4,1.5-1.2,1.5
	s-1.2-0.5-1.2-1.5v-1.4H702v1.2C702.1,349.5,702.5,350.5,703.1,351.1"/>
<path class="st1" d="M743.5,314.9c0-0.5,0.1-0.9,0.3-1.2c0.2-0.2,0.5-0.4,0.9-0.4h1.1v4.6h-0.9c-0.5,0-0.8-0.1-1.1-0.4
	c-0.2-0.2-0.4-0.6-0.4-1.2v-1.4H743.5z M743.3,326.2c0.1-0.2,0.1-0.3,0.1-0.4s0-0.3,0.1-0.5c0-0.2,0-0.6,0-0.9V322
	c0-0.7,0.1-1.2,0.4-1.5c0.2-0.3,0.6-0.4,1.2-0.4h0.8v6.1h2.4v-15h-3.6c-1.2,0-2.1,0.3-2.6,0.8c-0.6,0.6-0.8,1.4-0.8,2.6v1.2
	c0,1.5,0.5,2.6,1.5,3c-0.6,0.2-1,0.6-1.2,1.2c-0.2,0.5-0.4,1.2-0.4,2v2.3c0,0.8-0.1,1.4-0.2,1.8h2.3V326.2z M736.2,313.9l1.1,7.6
	H735L736.2,313.9z M734.3,326.2l0.4-2.7h2.9l0.4,2.7h2.4l-2.4-15h-3.6l-2.4,15H734.3z M721.3,326.2l2.2-6.7l0.6,1.2v5.5h2.4v-5.5
	l0.6-1.1l2.1,6.6h2.4l-2.9-8.9l2.9-6.1h-2.3l-2.8,6.1v-6.1H724v6.1l-2.8-6.1h-2.3l2.9,6.2l-2.9,8.9h2.4V326.2z M713.3,314.6
	c0-1,0.4-1.5,1.2-1.5s1.2,0.5,1.2,1.5v8.1c0,1-0.4,1.5-1.2,1.5s-1.2-0.5-1.2-1.5V314.6z M711.9,325.4c0.6,0.7,1.5,1,2.7,1
	s2-0.3,2.7-1c0.6-0.7,0.9-1.6,0.9-2.8v-7.8c0-1.2-0.3-2.1-0.9-2.8c-0.6-0.7-1.5-1-2.7-1s-2,0.3-2.7,1c-0.6,0.7-0.9,1.6-0.9,2.8v7.8
	C710.9,323.8,711.2,324.7,711.9,325.4 M703.7,326.2l1.8-5.6l1.8,5.6h2.4l-2.6-7.6l2.5-7.4h-2.1l-1.8,5.6l-1.8-5.6h-2.4l2.5,7.3
	l-2.6,7.7H703.7z M695.2,326.2l2-6.9l1-3.7v10.6h2.4v-15h-2.8l-1.9,6.2l-0.9,3.3v-9.5h-2.1v15H695.2z M687,313.3h1.1
	c0.4,0,0.7,0.1,0.9,0.3s0.3,0.6,0.3,1.1v2.3c0,0.5-0.1,0.9-0.3,1.1s-0.5,0.3-0.9,0.3H687V313.3z M687,326.2v-5.6h1.1
	c1.2,0,2-0.3,2.6-0.9s0.9-1.6,0.9-2.8V315c0-1.2-0.3-2.1-0.9-2.8c-0.6-0.6-1.5-1-2.6-1h-3.5v15L687,326.2L687,326.2z M677.9,326.2
	v-12.9h2.7v12.9h2.4v-15h-7.4v15H677.9z"/>
</svg>
