
<?xml version="1.0" encoding="utf-8"?>

<svg class="svg-source desktop" width="1920" height="1080" viewBox="0 0 1920 1080" fill="none" xmlns="http://www.w3.org/2000/svg"> 

<path data-id="986" d="M408.5 800.5V785L437 787L438 806.5L414 806C414 806 412.01 805.334 411 804.5C409.58 803.327 408.5 800.5 408.5 800.5Z"></path>
		<path data-id="987" d="M436.5 770L408 768L408.5 785L437 787L436.5 770Z"></path>
		<path data-id="988" d="M408 768L407.5 750.5L436 752.5L436.5 770L408 768Z"></path>
		<path data-id="989" d="M407.5 750.5L406.5 733L435 735L436 752.5L407.5 750.5Z"></path>
		<path data-id="990" d="M406.5 733L406 715.5L435 718V735L406.5 733Z"></path>
		<path data-id="991" d="M406 715.5L405.5 698L434 700.5L435 718L406 715.5Z"></path>
		<path data-id="992" d="M405.5 698L405 680.5L433.5 683L434 700.5L405.5 698Z"></path>
		<path data-id="993" d="M405 680.5L404.5 663.5L433 665.5L433.5 683L405 680.5Z"></path>
		<path data-id="994" d="M404.5 663.5L404 646L432.5 648L433 665.5L404.5 663.5Z"></path>
		<path data-id="995" d="M404 646L403 629L431.5 631L432.5 648L404 646Z"></path>
		<path data-id="996" d="M403 629L402.5 611.5L431 613.5L431.5 631L403 629Z"></path>
		<path data-id="997" d="M402.5 611.5L401.5 594L430 596L431 613.5L402.5 611.5Z"></path>
		<path data-id="998" d="M401.5 594L401 577L430 578V596L401.5 594Z"></path>
		<path data-id="999" d=""></path>
		<path data-id="1000" d="M400 541L399.5 523.5L427.75 527.5L428.25 546.25L405 544.25L400 541Z"></path>
		<path data-id="1001" d="M399.5 523.5L399 506L427.25 510L427.75 527.5L399.5 523.5Z"></path>
		<path data-id="1002" d="M399 506L398 488.5L426.75 492.5L427.25 510L399 506Z"></path>
		<path data-id="1003" d="M398 488.5V471L426.25 475L426.75 492.5L398 488.5Z"></path>
		<path data-id="1004" d="M398 471L397.25 453.75L425.75 457.5L426.25 475L398 471Z"></path>
		<path data-id="1005" d="M397.25 453.5L396.5 436.25L425 440L425.5 457.5L397.25 453.5Z"></path>
		<path data-id="1006" d="M396.5 436.25L396 416.5L424.5 418.5L425 440L396.5 436.25Z"></path>
		<path data-id="1007" d="M396 416.5L398.25 398.5L426.5 401L424.75 418.5L396 416.5Z"></path>
		<path data-id="1008" d="M398.25 398.75L400.25 381.5L428.5 383.75L426.5 401L398.25 398.75Z"></path>
		<path data-id="1009" d="M400.25 381.5L402 364.5L430.5 366.75L428.5 383.75L400.25 381.5Z"></path>
		<path data-id="1010" d="M402 364.5L404 347.75L432.25 349.25L430.5 366.75L402 364.5Z"></path>
		<path data-id="1011" d="M404 347.75L406 329.5L434.25 331.75L432.25 349.25L404 347.75Z"></path>
		<path data-id="1012" d="M406 329.5L408 312.25L436.25 314.5L434.25 331.75L406 329.5Z"></path>
		<path data-id="1013" d="M408 312.25L410 295.25L438.5 297.75L436.25 314.5L408 312.25Z"></path>
		<path data-id="1953" d="M410 295.5L411.75 277.25L441 280L438.75 297.75L410 295.5Z"></path>
		<path data-id="1955" d="M411.75 277.5L414 261L442 262.75L441 280L411.75 277.5Z"></path>
		<path data-id="1017" d="M441.25 280L442.25 262.75L471 265L469.25 282.25L441.25 280Z"></path>
		<path data-id="1018" d=""></path>
		<path data-id="1019" d="M436.25 314.75L438.25 297.75L467.25 299.75L465 316.75L436.25 314.75Z"></path>
		<path data-id="1020" d="M434.25 332L436.25 314.75L465 316.75L462.5 334.25L434.25 332Z"></path>
		<path data-id="1021" d="M432.25 350.25L434.25 332L462.5 334.25L460.5 351.75L432.25 350.25Z"></path>
		<path data-id="1022" d="M430.5 366.75L432.25 349.25L460.5 351.75L458.75 369.25L430.5 366.75Z"></path>
		<path data-id="1023" d="M428.5 383.75L430.5 366.75L458.75 369.25L456.75 386.25L428.5 383.75Z"></path>
		<path data-id="1024" d="M426.5 401L428.5 383.75L456.75 386.25L454.75 403.5L426.5 401Z"></path>
		<path data-id="1025" d="M424.75 418.5L426.5 401L454.75 403.75L453.25 420.25L424.75 418.5Z"></path>
		<path data-id="1026" d="M425 440L424.75 418.75L453.25 420.75L454 444L425 440Z"></path>
		<path data-id="1027" d="M425.5 457.5L425.25 440L454 444L454.5 461.5L425.5 457.5Z"></path>
		<path data-id="1028" d="M426.25 475L426 457.5L454.5 461.5L455.5 479L426.25 475Z"></path>
		<path data-id="1029" d="M426.75 492.5L426.5 475L455.5 479V496.5L426.75 492.5Z"></path>
		<path data-id="1030" d="M427.25 510L427 492.5L455.5 496.5L456.25 514L427.25 510Z"></path>
		<path data-id="1031" d="M427.75 527.5L427.5 510L456.25 514L457 531.5L427.75 527.5Z"></path>
		<path data-id="1032" d="M428.25 546.25L428 527.5L457 531.5L457.5 543.5L453 547.5L428.25 546.25Z"></path>
		<path data-id="1033" d="M430 578L429.5 558.5L452.5 560C452.5 560 455.224 560.807 456.5 562C457.529 562.962 458.5 565 458.5 565L459 581L430 578Z"></path>
		<path data-id="1034" d="M459 581L430 578V596L459.5 598L459 581Z"></path>
		<path data-id="1035" d="M431 613.5L430 596L459.5 598V616L431 613.5Z"></path>
		<path data-id="1036" d="M460 616L431 613.5L431.5 631L460.5 633L460 616Z"></path>
		<path data-id="1037" d="M432.5 648L431.5 631L460.5 633L461.5 650L432.5 648Z"></path>
		<path data-id="1038" d="M461.5 650L432.5 648L433 665.5L462 667.5L461.5 650Z"></path>
		<path data-id="1039" d="M433.5 683L433 665.5L462 667.5L462.5 685L433.5 683Z"></path>
		<path data-id="1040" d="M462.5 685L433.5 683L434 700.5L463 702L462.5 685Z"></path>
		<path data-id="1041" d="M435 718L434 700.5L463 702L463.5 720L435 718Z"></path>
		<path data-id="1042" d="M463.5 720L435 718V735L464 737L463.5 720Z"></path>
		<path data-id="1043" d="M436 752.5L435 735L464 737L464.5 754.5L436 752.5Z"></path>
		<path data-id="1044" d="M464.5 754.5L436 752.5L436.5 770L465.5 771.5L464.5 754.5Z"></path>
		<path data-id="1045" d="M437 787L436.5 770L465.5 771.5L466 789.5L437 787Z"></path>
		<path data-id="1046" d="M466 789.5L437 787L438 806.5H461.5C461.5 806.5 463.557 806.298 464.5 805.5C465.5 804.654 466 802.5 466 802.5V789.5Z"></path>
		<path data-id="1047" d="M475 806.5L474.5 789.5L504 790.5L504.5 807.5L475 806.5Z"></path>
		<path data-id="1048" d="M474.5 789.5L474 772L503 773L504 790.5L474.5 789.5Z"></path>
		<path data-id="1049" d="M473.5 755L502.5 755.5L503 773L474 772L473.5 755Z"></path>
		<path data-id="1050" d="M473.5 755L473 737.5L501.5 738.5L502.5 755.5L473.5 755Z"></path>
		<path data-id="1051" d="M472.5 720.5L501 721.5L501.5 738.5L473 737.5L472.5 720.5Z"></path>
		<path data-id="1052" d="M472.5 720.5L472 702.5L500.5 703.5L501 721.5L472.5 720.5Z"></path>
		<path data-id="1053" d="M472 702.5L471.5 685.5L499.5 686L500.5 703.5L472 702.5Z"></path>
		<path data-id="1054" d="M471.5 685.5L470.5 668L499 669L499.5 686L471.5 685.5Z"></path>
		<path data-id="1055" d="M470.5 668L470 650.5L498.5 651.5L499 669L470.5 668Z"></path>
		<path data-id="1056" d="M470 650.5L469.5 633.5L498 634L498.5 651.5L470 650.5Z"></path>
		<path data-id="1057" d="M497.5 617L469 616L469.5 633.5L498 634L497.5 617Z"></path>
		<path data-id="1058" d="M469 616L468 598.5L496.5 599L497.5 617L469 616Z"></path>
		<path data-id="1059" d="M468 598.5V581.5L496 582L496.5 599L468 598.5Z"></path>
		<path data-id="1060" d="M468 567V581.5L496 582L495.5 564L472.5 562.5C472.5 562.5 470.426 563.074 469.5 564C468.574 564.926 468 567 468 567Z"></path>
		<path data-id="1061" d="M465.5 544.5V532L494 533.5L494.5 551.5L469.5 549L465.5 544.5Z"></path>
		<path data-id="1062" d="M465.5 532L464.5 514.5L493 516.5L494 533.5L465.5 532Z"></path>
		<path data-id="1063" d="M464.5 514.5L464 497L492.5 499L493 516.5L464.5 514.5Z"></path>
		<path data-id="1064" d="M464 497L463.5 479.5L492 481.5L492.5 499L464 497Z"></path>
		<path data-id="1065" d="M463.5 479.5L462.5 462L491.5 464.5L492 481.5L463.5 479.5Z"></path>
		<path data-id="1066" d="M462.5 462V444.5L491 446.5L491.5 464.5L462.5 462Z"></path>
		<path data-id="1067" d="M462.5 444.5L462 421L490.5 422.5L491 446.5L462.5 444.5Z"></path>
		<path data-id="1068" d="M462 420.75L464.5 403.5L493 405.5L490.5 422.5L462 420.75Z"></path>
		<path data-id="1069" d="M464.25 403.25L466.25 386.5L494.75 387.75L493 405.25L464.25 403.25Z"></path>
		<path data-id="1070" d="M466.25 386.5L468.25 369.5L496.75 370.5L494.75 387.75L466.25 386.5Z"></path>
		<path data-id="1071" d="M468.25 369.5L470.25 351.25L498.75 353.5L496.75 370.5L468.25 369.5Z"></path>
		<path data-id="1072" d="M470.25 351.25L472.25 334.5L500.5 336L498.75 353.5L470.25 351.25Z"></path>
		<path data-id="1073" d="M472.25 334.5L474 317.5L502.5 318.25L500.5 336L472.25 334.5Z"></path>
		<path data-id="1074" d="M474 317.5L476.25 299L504.5 301.25L502.5 318.25L474 317.5Z"></path>
		<path data-id="1075" d="M476.25 299L478.25 282.75L507 283.75L504.5 301.25L476.25 299Z"></path>
		<path data-id="1076" d="M478.5 282.75L479.75 265.5L509.25 266.75L507 283.75L478.5 282.75Z"></path>
		<path data-id="1077" d="M509.25 266.75L479.75 265.5L482.5 244L485.5 242L511 244.75L509.25 266.75Z"></path>
		<path data-id="1078" d="M509.5 266.75L511 244.75L531 246.75L536.5 248.5L538.5 251L537.5 267.75L509.5 266.75Z"></path>
		<path data-id="1079" d="M507 283.75L509.5 266.75L537.5 267.75L535.75 284.25L507 283.75Z"></path>
		<path data-id="1080" d="M504.5 301.5L507 283.75L535.75 284.25L533.25 302.25L504.5 301.5Z"></path>
		<path data-id="1081" d="M502.5 318.25L504.5 301.5L533.25 302.25L531 319.25L502.5 318.25Z"></path>
		<path data-id="1082" d="M500.5 336L502.5 318.25L531 319.25L529 336.75L500.5 336Z"></path>
		<path data-id="1083" d="M498.75 353.5L500.5 336L529 336.75L527.25 354L498.75 353.5Z"></path>
		<path data-id="1084" d="M496.75 370.5L498.75 353.5L527.25 354L525.25 371.75L496.75 370.5Z"></path>
		<path data-id="1085" d="M494.75 387.75L496.75 370.5L525.25 371.75L523.25 388.75L494.75 387.75Z"></path>
		<path data-id="1086" d="M493 405.25L494.75 387.75L523.25 388.75L521.5 407L493 405.25Z"></path>
		<path data-id="1087" d="M521.5 407L519.5 423L490.5 422.5L493 405.5L521.5 407Z"></path>
		<path data-id="1088" d="M519.5 423L520 448.5L491 446.5L490.5 422.5L519.5 423Z"></path>
		<path data-id="1089" d="M491.5 464.5L491 446.5L520 448.5L521 467L491.5 464.5Z"></path>
		<path data-id="1090" d="M492 481.5L491.5 464.5L521 467L521.5 484L492 481.5Z"></path>
		<path data-id="1091" d="M492.5 499L492 481.5L521.5 484L522 501.5L492.5 499Z"></path>
		<path data-id="1092" d="M493 516.5L492.5 499L522 501.5V519L493 516.5Z"></path>
		<path data-id="1093" d="M494 533.5L493 516.5L522 519L522.5 536L494 533.5Z"></path>
		<path data-id="1094" d="M494.5 551.5L494 533.5L522.5 536L523 550L519.5 553L494.5 551.5Z"></path>
		<path data-id="1095" d="M520 566L495.5 564L496 582L525 582.5V571C525 571 524.373 568.976 523.5 568C522.45 566.827 520 566 520 566Z"></path>
		<path data-id="1096" d="M525 582.5L496 582L496.5 599L525.5 600L525 582.5Z"></path>
		<path data-id="1097" d="M525.5 600L496.5 599L497.5 617L526.5 617.5L525.5 600Z"></path>
		<path data-id="1098" d="M498 634L497.5 617L526.5 617.5L527 634.5L498 634Z"></path>
		<path data-id="1099" d="M527 634.5L498 634L498.5 651.5L528 652L527 634.5Z"></path>
		<path data-id="1100" d="M499 669L498.5 651.5L528 652L528.5 670L499 669Z"></path>
		<path data-id="1101" d="M528.5 670L499 669L499.5 686L529 687L528.5 670Z"></path>
		<path data-id="1102" d="M500.5 703.5L499.5 686L529 687L529.5 704.5L500.5 703.5Z"></path>
		<path data-id="1103" d="M529.5 704.5L500.5 703.5L501 721.5L530 722L529.5 704.5Z"></path>
		<path data-id="1104" d="M501.5 738.5L501 721.5L530 722L531 739L501.5 738.5Z"></path>
		<path data-id="1105" d="M531 739L501.5 738.5L502.5 755.5L531.5 756L531 739Z"></path>
		<path data-id="1106" d="M503 773L502.5 755.5L531.5 756L532 774L503 773Z"></path>
		<path data-id="1107" d="M532 774L503 773L504 790.5L532.5 791L532 774Z"></path>
		<path data-id="1108" d="M532.5 791L504 790.5L504.5 807.5L527 808C527 808 530.19 807.81 531.5 806.5C532.426 805.574 533 803.5 533 803.5L532.5 791Z"></path>
		<path data-id="1109" d="M540.5 809.25L540 792L569.5 792.75L570 810L540.5 809.25Z"></path>
		<path data-id="1110" d="M540 792L540.5 774L570 775.5V793L540 792Z"></path>
		<path data-id="1111" d="M540.5 774L540 756.5L569 758L570 775.5L540.5 774Z"></path>
		<path data-id="1112" d="M539 739L568.5 740.5L569 758L540 756.5L539 739Z"></path>
		<path data-id="1113" d="M539 739V722L568 723L568.5 740.5L539 739Z"></path>
		<path data-id="1114" d="M538 704.5L567.5 705.5L568 723L539 722L538 704.5Z"></path>
		<path data-id="1115" d="M538 704.5L537.5 687L567 688L567.5 705.5L538 704.5Z"></path>
		<path data-id="1116" d="M537.5 687L537 670L566 671L567 688L537.5 687Z"></path>
		<path data-id="1117" d="M537 670L536.5 652.5L565.5 653.5L566 671L537 670Z"></path>
		<path data-id="1118" d="M564.5 636L536 635.5L536.5 652.5L565.5 653.5L564.5 636Z"></path>
		<path data-id="1119" d="M536 635.5L535.5 618L564.5 618.5V636L536 635.5Z"></path>
		<path data-id="1120" d="M534.5 600.5L564 601.5L564.5 618.5L535.5 618L534.5 600.5Z"></path>
		<path data-id="1121" d="M538 568L551.5 569L552 601L534.5 600.5L534 572.5C534 572.5 534.365 569.961 535.5 569C536.303 568.321 538 568 538 568Z"></path>
		<path data-id="1122" d="M573 570.5L551.5 569L552 601L564 601.5H573V570.5Z"></path>
		<path data-id="1123" d="M538.5 556L537.5 538L561.5 539.5L562.5 557.5L538.5 556Z"></path>
		<path data-id="1124" d="M531.5 520L561 522.5L561.5 539.5L532 537.5L531.5 520Z"></path>
		<path data-id="1125" d="M531.5 520L531 502.5L560 505L561 522.5L531.5 520Z"></path>
		<path data-id="1126" d="M531 502.5L530.5 485L559.5 487.5L560 505L531 502.5Z"></path>
		<path data-id="1127" d="M529.5 467.5L559 470.5L559.5 487.5L530.5 485L529.5 467.5Z"></path>
		<path data-id="1128" d="M529.5 450L558 452.5L559 470.5L529.5 467.5V450Z"></path>
		<path data-id="1129" d="M528.5 424L557.5 425L558 452.5L529.5 450L528.5 424Z"></path>
		<path data-id="1130" d="M530 407L559 408L557.5 425L528.5 424L530 407Z"></path>
		<path data-id="1131" d="M532.5 389L561 390.5L559 408L530 407L532.5 389Z"></path>
		<path data-id="1132" d="M534 372L562.5 373.5L561 390.5L532.5 389L534 372Z"></path>
		<path data-id="1133" d="M536 354.5L564.5 355.5L562.5 373.5L534 372L536 354.5Z"></path>
		<path data-id="1134" d="M538 337.5L566.5 339L564.5 355.5L536 354.5L538 337.5Z"></path>
		<path data-id="1135" d="M540 320L568.5 321L566.5 339L538 337.5L540 320Z"></path>
		<path data-id="1136" d="M542 303L571 304L568.5 321L540 320L542 303Z"></path>
		<path data-id="1137" d="M544 285.5L572.5 286.5L571 304L542 303L544 285.5Z"></path>
		<path data-id="1138" d="M551 254L575.5 262.5L572.5 286.5L544 285.5L547.5 256C547.5 256 547.944 254.932 548.5 254.5C549.286 253.889 551 254 551 254Z"></path>
		<path data-id="1139" d="M572.5 286.5L575.5 262.5L596.5 270C596.5 270 599.25 270.78 600.5 272C601.626 273.1 602.5 275.5 602.5 275.5L601.5 287L572.5 286.5Z"></path>
		<path data-id="1140" d="M571 304L572.5 286.5L601.5 287L599.5 304.5L571 304Z"></path>
		<path data-id="1141" d="M599.5 304.5L571 304L568.5 321L597.5 322L599.5 304.5Z"></path>
		<path data-id="1142" d="M597.5 322L568.5 321L566.5 339L595.5 340L597.5 322Z"></path>
		<path data-id="1143" d="M595.5 340L566.5 339L564.5 355.5L593.5 356.5L595.5 340Z"></path>
		<path data-id="1144" d="M593.5 356.5L564.5 355.5L562.5 373.5L591 374L593.5 356.5Z"></path>
		<path data-id="1145" d="M591 374L562.5 373.5L561 390.5L589 391.5L591 374Z"></path>
		<path data-id="1146" d="M559 408L561 390.5L589 391.5L587 408.5L559 408Z"></path>
		<path data-id="1147" d="M557.5 425L559 408L587 408.5L585 425.5L557.5 425Z"></path>
		<path data-id="1148" d="M558 452.5L557.5 425L585 425.5L586 454.5L558 452.5Z"></path>
		<path data-id="1149" d="M559 470.5L558 452.5L586 454.5L587 473L559 470.5Z"></path>
		<path data-id="1150" d="M559.5 487.5L559 470.5L587 473L587.5 490L559.5 487.5Z"></path>
		<path data-id="1151" d="M587.5 490L559.5 487.5L560 505L588 507L587.5 490Z"></path>
		<path data-id="1152" d="M561 522.5L560 505L588 507L589 524.5L561 522.5Z"></path>
		<path data-id="1153" d="M561.5 539.5L561 522.5L589 524.5L589.5 541L561.5 539.5Z"></path>
		<path data-id="1154" d="M589.5 541L561.5 539.5L562.5 557.5L585.5 559C586 559 586.833 558.5 588 558C589.167 557.5 589.5 555 589.5 555V541Z"></path>
		<path data-id="1155" d="M573 601.5V570.5L585 571.5C585 571.5 587.305 572.115 588.5 573C589.726 573.908 591 576 591 576L591.5 601.5H573Z"></path>
		<path data-id="1156" d="M564.5 618.5L564 601.5H591.5L592.5 619.5L564.5 618.5Z"></path>
		<path data-id="1157" d="M592.5 619.5L564.5 618.5V636L593 636.5L592.5 619.5Z"></path>
		<path data-id="1158" d="M565.5 653.5L564.5 636L593 636.5L593.5 654.5L565.5 653.5Z"></path>
		<path data-id="1159" d="M593.5 654.5L565.5 653.5L566 671H594.5L593.5 654.5Z"></path>
		<path data-id="1160" d="M567 688L566 671H594.5L595 689L567 688Z"></path>
		<path data-id="1161" d="M595 689L567 688L567.5 705.5L595.5 706L595 689Z"></path>
		<path data-id="1162" d="M568 723L567.5 705.5L595.5 706L596 723.5L568 723Z"></path>
		<path data-id="1163" d="M596 723.5L568 723L568.5 740.5L596.5 741.5L596 723.5Z"></path>
		<path data-id="1164" d="M569 758L568.5 740.5L596.5 741.5L597.5 759L569 758Z"></path>
		<path data-id="1165" d="M597.5 759L569 758L570 775.5L597.5 776.5V759Z"></path>
		<path data-id="1166" d="M597.5 776.5L570 775.5V793H598L597.5 776.5Z"></path>
		<path data-id="1167" d="M598 793H569.5L570.509 809.676L591.877 809.99C591.877 809.99 595.366 810.13 596.965 809.362C598.096 808.819 598.5 807 598.5 807L598 793Z"></path>
		<path data-id="1168" d="M640 794L607.5 793V806C607.5 806 608.087 808.326 609 809.5C610.031 810.826 612.5 812 612.5 812H640.5L640 794Z"></path>
		<path data-id="1169" d="M639.5 777.5L607 776.5L607.5 793L640 794L639.5 777.5Z"></path>
		<path data-id="1170" d="M607 776.5L606.5 759L639 760L639.5 777.5L607 776.5Z"></path>
		<path data-id="1171" d="M606.5 759L606 741.5L638.5 742.5L639 760L606.5 759Z"></path>
		<path data-id="1172" d="M605 724.5L637.5 725.5L638.5 742.5L606 741.5L605 724.5Z"></path>
		<path data-id="1173" d="M605 724.5L604.5 707L637 708L637.5 725.5L605 724.5Z"></path>
		<path data-id="1174" d="M604 689.5L636 690.5L637 708L604.5 707L604 689.5Z"></path>
		<path data-id="1175" d="M604 689.5L603.5 672L635.5 673L636 690.5L604 689.5Z"></path>
		<path data-id="1176" d="M603.5 672L603 654.5L635 655.5L635.5 673L603.5 672Z"></path>
		<path data-id="1177" d="M603 654.5L602.5 637L634 638L635 655.5L603 654.5Z"></path>
		<path data-id="1178" d="M602.5 637L602 620L633.5 621L634 638L602.5 637Z"></path>
		<path data-id="1179" d="M602 620L601.5 602.5L633 603.5L633.5 621L602 620Z"></path>
		<path data-id="1180" d="M604.5 574L619.5 575L619 603L601.5 602.5L600.5 578.5C600.5 578.5 600.865 575.961 602 575C602.803 574.321 604.5 574 604.5 574Z"></path>
		<path data-id="1181" d="M619.5 575L643.5 577.5L643 603.5L619 603L619.5 575Z"></path>
		<path data-id="1182" d="M631 546L599 543V555.5C599 555.5 599.448 557.948 600.5 559C601.552 560.052 604 560.5 604 560.5L631.5 563L631 546Z"></path>
		<path data-id="1183" d="M598.5 525.5L630 529L631 546L599 543L598.5 525.5Z"></path>
		<path data-id="1184" d="M597.5 508L629.5 511.5L630 529L598.5 525.5L597.5 508Z"></path>
		<path data-id="1185" d="M597 490.5L629 494L629.5 511.5L597.5 508L597 490.5Z"></path>
		<path data-id="1186" d="M596.5 473.5L628.5 476.5L629 494L597 490.5L596.5 473.5Z"></path>
		<path data-id="1187" d="M595.5 456L627.5 459L628.5 476.5L596.5 473.5L595.5 456Z"></path>
		<path data-id="1188" d="M595.5 456L594.5 426L626.5 427.5L627.5 459L595.5 456Z"></path>
		<path data-id="1189" d="M594.5 426L596.5 409L628.5 410L626.5 427.5L594.5 426Z"></path>
		<path data-id="1190" d="M630.5 393L598.5 392L596.5 409L628.5 410L630.5 393Z"></path>
		<path data-id="1191" d="M632.5 376L600.5 375L598.5 392L630.5 393L632.5 376Z"></path>
		<path data-id="1192" d="M634.5 358.5L602.5 357L600.5 375L632.5 376L634.5 358.5Z"></path>
		<path data-id="1193" d="M636.5 339.5L605 336.5L602.5 357L634.5 358.5L636.5 339.5Z"></path>
		<path data-id="1194" d="M631.5 319L607.5 316.5L605 336.5L629.5 338.5L631.5 319Z"></path>
		<path data-id="1195" d="M614.5 283.5L633.5 299.5L631.5 319L607.5 316.5L611 285C611 285 611.731 283.808 612.5 283.5C613.225 283.21 614.5 283.5 614.5 283.5Z"></path>
		<path data-id="1196" d="M633.5 299.5L647 310.5L644.5 340L629.5 338.5L633.5 299.5Z"></path>
		<path data-id="1197" d="M644.5 340L647 310.5L663 323.5C663 323.5 666.254 326.155 667.5 328C668.433 329.383 669 332 669 332L668.5 342L644.5 340Z"></path>
		<path data-id="1198" d="M634.5 358.5L636.5 339.5L668.5 342L666.5 359.5L634.5 358.5Z"></path>
		<path data-id="1199" d="M632.5 376L634.5 358.5L666.5 359.5L664.5 377L632.5 376Z"></path>
		<path data-id="1200" d="M630.5 393L632.5 376L664.5 377L662.5 393.5L630.5 393Z"></path>
		<path data-id="1201" d="M628.5 410L630.5 393L662.5 393.5L660.5 411.5L628.5 410Z"></path>
		<path data-id="1202" d="M626.5 427.5L628.5 410L660.5 411.5L658.5 428.5L626.5 427.5Z"></path>
		<path data-id="1203" d="M627 442L626.5 427.5L658.5 428.5L659 445.5L627 442Z"></path>
		<path data-id="1204" d="M627.5 459L627 442L659 445.5V462L627.5 459Z"></path>
		<path data-id="1205" d="M628.5 476.5L627.5 459L659 462L660 480L628.5 476.5Z"></path>
		<path data-id="1206" d="M629 494L628.5 476.5L660 480L660.5 497.5L629 494Z"></path>
		<path data-id="1207" d="M629.5 511.5L629 494L660.5 497.5L661 514.5L629.5 511.5Z"></path>
		<path data-id="1208" d="M630 529L629.5 511.5L661 514.5L661.5 532.5L630 529Z"></path>
		<path data-id="1209" d="M631 546L630 529L661.5 532.5V549L631 546Z"></path>
		<path data-id="1210" d="M661.5 549L631 546.5L631.5 563L657.5 565.5C657.5 565.5 659.525 565.258 660.5 564.5C661.271 563.901 662 562.5 662 562.5L661.5 549Z"></path>
		<path data-id="1211" d="M643 603.5L643.5 577.5L659 579L664 584V604L643 603.5Z"></path>
		<path data-id="1212" d="M664 604L633 603.5L633.5 621L665 621.5L664 604Z"></path>
		<path data-id="1213" d="M634 638L633.5 621L665 621.5L665.5 639L634 638Z"></path>
		<path data-id="1214" d="M666 639L634 638L635 655.5L666.5 656.5L666 639Z"></path>
		<path data-id="1215" d="M666.5 656.5L635 655.5L635.5 673L667 674L666.5 656.5Z"></path>
		<path data-id="1216" d="M667 674L635.5 673L636 690.5L667.5 691.5L667 674Z"></path>
		<path data-id="1217" d="M637 708L636 690.5L667.5 691.5L668 708.5L637 708Z"></path>
		<path data-id="1218" d="M668 708.5L637 708L637.5 725.5L668.5 726L668 708.5Z"></path>
		<path data-id="1219" d="M638.5 742.5L637.5 725.5L668.5 726L669 743L638.5 742.5Z"></path>
		<path data-id="1220" d="M669 743L638.5 742.5L639 760L669.5 760.5L669 743Z"></path>
		<path data-id="1221" d="M639.5 777.5L639 760L669.5 760.5L670.5 778L639.5 777.5Z"></path>
		<path data-id="1222" d="M670.5 778L639.5 777.5L640 794L671 794.5L670.5 778Z"></path>
		<path data-id="1223" d="M671 794.5L640 794L640.5 812L666 812.5C666 812.5 668.814 812.174 670 811C670.931 810.079 671.5 808 671.5 808L671 794.5Z"></path>
		<path data-id="1224" d="M681 813.5L680 793.5L712.5 794.5L713 814L681 813.5Z"></path>
		<path data-id="1225" d="M712 779L679.5 778L680 793.5L712.5 794.5L712 779Z"></path>
		<path data-id="1226" d="M679.5 778L679 761.5L711 762.5L712 779L679.5 778Z"></path>
		<path data-id="1227" d="M679 761.5L678.5 744L710.5 745L711 762.5L679 761.5Z"></path>
		<path data-id="1228" d="M677.5 726L709.5 727L710.5 745L678.5 744L677.5 726Z"></path>
		<path data-id="1229" d="M677 709L709 710L709.5 727L677.5 726L677 709Z"></path>
		<path data-id="1230" d="M709 692.5L676.5 691.5L677 709L709 710V692.5Z"></path>
		<path data-id="1231" d="M676.5 691.5L676 674L707.5 675L708.5 692.5L676.5 691.5Z"></path>
		<path data-id="1232" d="M676 674L675.5 656.5L707.5 657.5V675L676 674Z"></path>
		<path data-id="1233" d="M674.5 639L706.5 640L707.5 657.5L675.5 656.5L674.5 639Z"></path>
		<path data-id="1234" d="M706 623L674 622L674.5 639L706.5 640L706 623Z"></path>
		<path data-id="1235" d="M705.5 606L673.5 605L674 622L706 623L705.5 606Z"></path>
		<path data-id="1236" d="M705.5 606L673.5 605L673 588C673 588 673.066 584.673 674.5 583.5C675.456 582.718 677.5 582.5 677.5 582.5L705 586L705.5 606Z"></path>
		<path data-id="1237" d="M671.5 568V550L704.5 554.5V573L671.5 568Z"></path>
		<path data-id="1238" d="M670.5 533.5L703.5 538L704.5 554.5L671.5 550L670.5 533.5Z"></path>
		<path data-id="1239" d="M670 516.5L702.5 520.5L703.5 538L670.5 533.5L670 516.5Z"></path>
		<path data-id="1240" d="M669.5 498.5L701.5 503L702.5 520.5L670 516.5L669.5 498.5Z"></path>
		<path data-id="1241" d="M669 481L701 485.5L701.5 503L669.5 498.5L669 481Z"></path>
		<path data-id="1242" d="M668.5 464L700.5 468.5L701 485.5L669 481L668.5 464Z"></path>
		<path data-id="1243" d="M668 446.5L700 451L700.5 468.5L668.5 464L668 446.5Z"></path>
		<path data-id="1244" d="M667.5 429L699 430L700 451L668 446.5L667.5 429Z"></path>
		<path data-id="1245" d="M667.5 429L669.5 412L700.5 413L699 430L667.5 429Z"></path>
		<path data-id="1246" d="M669.5 412L671 394.5L703 395.5L700.5 413L669.5 412Z"></path>
		<path data-id="1247" d="M699.5 376L673.5 373.5L671 394.5L697.5 395L699.5 376Z"></path>
		<path data-id="1248" d="M680.5 340.5L701.5 357L699.5 376L673.5 373.5L676.5 342C676.5 342 677.246 340.843 678 340.5C678.889 340.096 680.5 340.5 680.5 340.5Z"></path>
		<path data-id="1249" d="M719.5 365.5L701.5 357L697.5 395L716 395.5L719.5 365.5Z"></path>
		<path data-id="1250" d="M716 395.5L719.5 365.5L733 372C733 372 734.773 372.623 735.5 373.5C736.171 374.31 736.5 376 736.5 376L734.5 396.5L716 395.5Z"></path>
		<path data-id="1251" d="M734.5 396.5L703 395.5L700.5 413L732.5 414L734.5 396.5Z"></path>
		<path data-id="1252" d="M699 430L700.5 413L732.5 414L731 431L699 430Z"></path>
		<path data-id="1253" d="M700 451L699 430L731 431L731.5 455.5L700 451Z"></path>
		<path data-id="1254" d="M700.5 468.5L700 451L731.5 455.5L732 473L700.5 468.5Z"></path>
		<path data-id="1255" d="M701 485.5L700.5 468.5L732 473L732.5 490.5L701 485.5Z"></path>
		<path data-id="1256" d="M701.5 503L701 485.5L732.5 490.5L733.5 507.5L701.5 503Z"></path>
		<path data-id="1257" d="M702.5 520.5L701.5 503L733.5 507.5L734 525L702.5 520.5Z"></path>
		<path data-id="1258" d="M703.5 538L702.5 520.5L734 525L735 542L703.5 538Z"></path>
		<path data-id="1259" d="M704.5 554.5L703.5 538L735 542L735.5 558.5L704.5 554.5Z"></path>
		<path data-id="1260" d="M735.5 558.5L704.5 554.5V573L728.5 576.5C728.5 576.5 731.9 576.263 733.5 575C734.481 574.225 735.5 572.5 735.5 572.5V558.5Z"></path>
		<path data-id="1261" d="M705.5 606L705 586L729.5 589C729.5 589 732.528 589.376 734 590.5C735.335 591.519 736.5 594 736.5 594L737 606.5L705.5 606Z"></path>
		<path data-id="1262" d="M706 623L705.5 606L737 606.5L737.5 623.5L706 623Z"></path>
		<path data-id="1263" d="M706.5 640L706 623L737.5 623.5L738.5 641L706.5 640Z"></path>
		<path data-id="1264" d="M707.5 657.5L706.5 640L738.5 641L739 658L707.5 657.5Z"></path>
		<path data-id="1265" d="M739 658L707.5 657.5V675H739.5L739 658Z"></path>
		<path data-id="1266" d="M708.5 692.5L707.5 675H739.5L740 693L708.5 692.5Z"></path>
		<path data-id="1267" d="M740 693L709 692.5V710L741 710.5L740 693Z"></path>
		<path data-id="1268" d="M709.5 727L709 710L741 710.5L741.5 728L709.5 727Z"></path>
		<path data-id="1269" d="M741.5 728L709.5 727L710.5 745L742 745.5L741.5 728Z"></path>
		<path data-id="1270" d="M742 745.5L710.5 745L711 762.5L743 763L742 745.5Z"></path>
		<path data-id="1271" d="M712 779L711 762.5L743 763V780L712 779Z"></path>
		<path data-id="1272" d="M743 780L712 779L712.5 794.5L743.5 795.5L743 780Z"></path>
		<path data-id="1273" d="M743.5 795.5L712.5 794.5L713 814L738.5 814.5C738.5 814.5 741.314 814.174 742.5 813C743.431 812.079 744 810 744 810L743.5 795.5Z"></path>
		<path data-id="1274" d="M753 816L752.5 796H783.5V816.5L753 816Z"></path>
		<path data-id="1275" d="M752.5 796L752 780.5L783 781L783.5 796H752.5Z"></path>
		<path data-id="1276" d="M752 780.5L751.5 763.5L782.5 764L783 781L752 780.5Z"></path>
		<path data-id="1277" d="M750.5 746L781.5 746.5L782.5 764L751.5 763.5L750.5 746Z"></path>
		<path data-id="1278" d="M750.5 746L750 728.5L781 729L781.5 746.5L750.5 746Z"></path>
		<path data-id="1279" d="M749.5 711L780.5 712L781 729L750 728.5L749.5 711Z"></path>
		<path data-id="1280" d="M749.5 711L749 693.5L780.5 694V712L749.5 711Z"></path>
		<path data-id="1281" d="M748 677H779.5L780.5 694L749 693.5L748 677Z"></path>
		<path data-id="1282" d="M748 677V658.5L779.5 659.5V677H748Z"></path>
		<path data-id="1283" d="M747 642H779V659.5L748 658.5L747 642Z"></path>
		<path data-id="1284" d="M747 642L746.5 624L778.5 625L779 642H747Z"></path>
		<path data-id="1285" d="M750.5 593L765.5 595.5L764 624.5L746.5 624L745.5 598.5C745.5 598.5 745.959 595.151 747.5 594C748.49 593.261 750.5 593 750.5 593Z"></path>
		<path data-id="1286" d="M787.5 599.5L765.5 595.5L764 624.5L786 625L787.5 599.5Z"></path>
		<path data-id="1287" d="M776.5 567L744.5 561V574.5C744.5 574.5 745.534 576.757 746.5 578C747.348 579.09 749 580.5 749 580.5L776.5 584.5V567Z"></path>
		<path data-id="1288" d="M743.5 543.5L776 549.5L776.5 567L744.5 561L743.5 543.5Z"></path>
		<path data-id="1289" d="M743 526.5L775.5 532L776 549.5L743.5 543.5L743 526.5Z"></path>
		<path data-id="1290" d="M743 526.5L742.5 509L774.5 515L775.5 532L743 526.5Z"></path>
		<path data-id="1291" d="M742.5 509L742 492L774 497.5L774.5 515L742.5 509Z"></path>
		<path data-id="1292" d="M741.5 474.5L773.5 480L774 497.5L742 492L741.5 474.5Z"></path>
		<path data-id="1293" d="M740.5 457L773 462.5L773.5 480L741.5 474.5L740.5 457Z"></path>
		<path data-id="1294" d="M740.5 457L739.5 432L772.5 441.5V462.5L740.5 457Z"></path>
		<path data-id="1295" d="M739.5 432L742 415L773 424L772.5 441.5L739.5 432Z"></path>
		<path data-id="1296" d="M742 415L743.5 397.5L773.5 407L773 424L742 415Z"></path>
		<path data-id="1297" d="M764.5 404L765.5 380L750.5 376.5C750.5 376.5 748.523 376.397 747.5 377C746.786 377.42 746 378.5 746 378.5L743.5 397.5L764.5 404Z"></path>
		<path data-id="1956" d="M785 384.5L765.5 380L764.5 404L785 410.5V384.5Z"></path>
		<path data-id="1957" d="M801.5 388.5L785 384.5V410.5L805.5 416.5L805 393C805 393 804.373 390.976 803.5 390C802.849 389.272 801.5 388.5 801.5 388.5Z"></path>
		<path data-id="1958" d="M773 424L773.5 407L805.5 416.5V433.5L773 424Z"></path>
		<path data-id="1959" d="M805.5 433.5L773 424L772.5 441.5L806 451.5L805.5 433.5Z"></path>
		<path data-id="1960" d="M772.5 462.5V441.5L806 451.5L806.5 468.5L772.5 462.5Z"></path>
		<path data-id="1961" d="M773.5 480L773 462.5L806.5 468.5V485.5L773.5 480Z"></path>
		<path data-id="1962" d="M774 497.5L773.5 480L806.5 485.5V503.5L774 497.5Z"></path>
		<path data-id="1963" d="M774.5 515L774 497.5L806.5 503.5L807.5 521L774.5 515Z"></path>
		<path data-id="1964" d="M775.5 532L774.5 515L807.5 521L808 538L775.5 532Z"></path>
		<path data-id="1965" d="M776 549.5L775.5 532L808 538V555L776 549.5Z"></path>
		<path data-id="1967" d="M776.5 567L776 549.5L808 555L808.5 572.5H803.5L776.5 567Z"></path>
		<path data-id="1968" d="M776.5 584.5V567L803.5 572.5V590L776.5 584.5Z"></path>
		<path data-id="1969" d="M786 625L787.5 599.5L804 602C804 602 806.387 602.887 807.5 604C808.613 605.113 809.5 607.5 809.5 607.5V626L786 625Z"></path>
		<path data-id="1970" d="M809.5 626L778.5 625L779 642L810 643L809.5 626Z"></path>
		<path data-id="1298" d="M810 643L779 642V659.5L810.5 660.5L810 643Z"></path>
		<path data-id="1973" d="M810.5 660.5L779.5 659.5V677L811 677.5L810.5 660.5Z"></path>
		<path data-id="1974" d="M780.5 694L779.5 677L811 677.5V695L780.5 694Z"></path>
		<path data-id="1975" d="M811 695L780.5 694V712L811 713V695Z"></path>
		<path data-id="1976" d="M781 729L780.5 712L811 713L812 730L781 729Z"></path>
		<path data-id="1977" d="M812 730L781 729L781.5 746.5L812.5 747.5L812 730Z"></path>
		<path data-id="1299" d="M782.5 764L781.5 746.5L812.5 747.5V764.5L782.5 764Z"></path>
		<path data-id="1300" d="M812.5 764.5L782.5 764L783 781L812.5 781.5V764.5Z"></path>
		<path data-id="1978" d="M812.5 781.5L783 781L783.5 796L813 796.5L812.5 781.5Z"></path>
		<path data-id="1301" d="M813 796.5L783.5 796V816.5L807 817.5C807 817.5 810.603 817.072 812 815.5C813.231 814.115 813.5 811 813.5 811L813 796.5Z"></path>
		<path data-id="1979" d="M826 818L825.5 797L858 798V819L826 818Z"></path>
		<path data-id="1980" d="M825.5 797L825 782.5L858.5 783.5L858 798L825.5 797Z"></path>
		<path data-id="1981" d="M824.5 765L858.5 766V783.5L825 782.5L824.5 765Z"></path>
		<path data-id="1982" d="M824.5 748L858 749L858.5 766L824.5 765V748Z"></path>
		<path data-id="1983" d="M824.5 730.5L858.5 731.5V749L824.5 748V730.5Z"></path>
		<path data-id="1984" d="M824 713L858.5 714V731.5L824.5 730.5L824 713Z"></path>
		<path data-id="1985" d="M823.5 695.5L858.5 696.5V714L824 713L823.5 695.5Z"></path>
		<path data-id="1986" d="M859 679L823 678.5L823.5 695.5L858.5 696.5L859 679Z"></path>
		<path data-id="1987" d="M859 661.5L822.5 661L823 678.5L859 679V661.5Z"></path>
		<path data-id="1988" d="M859 644.5L822.5 644V661L859 661.5V644.5Z"></path>
		<path data-id="1989" d="M859 627L822 626L822.5 644L859 644.5V627Z"></path>
		<path data-id="1990" d="M826.5 607.5L859 614.5V627L822 626V613.5C822 613.5 822.08 610.297 823.5 609C824.467 608.117 826.5 607.5 826.5 607.5Z"></path>
		<path data-id="1991" d="M859.5 584L821 575V590.5C821 590.5 821.019 591.854 821.5 592.5C821.92 593.065 823 593.5 823 593.5L859.5 601V584Z"></path>
		<path data-id="1992" d="M820.5 558L859.5 566.5V584L821 575L820.5 558Z"></path>
		<path data-id="1993" d="M820.5 558V540.5L859.5 549.5V566.5L820.5 558Z"></path>
		<path data-id="1994" d="M820.5 540.5L820 523.5L859.5 531.5V549.5L820.5 540.5Z"></path>
		<path data-id="1995" d="M820 523.5L819.5 506L859.5 514.5V531.5L820 523.5Z"></path>
		<path data-id="1996" d="M819.5 506L819 488.5L859.5 497V514.5L819.5 506Z"></path>
		<path data-id="1997" d="M819 488.5V471.5L860 479.5L859.5 497L819 488.5Z"></path>
		<path data-id="1998" d="M818 453.5L860 462V479.5L819 471.5L818 453.5Z"></path>
		<path data-id="1999" d="M818 453.5V436L860 444.5V462L818 453.5Z"></path>
		<path data-id="2000" d="M818 436L817.5 419L838.5 423.5L860 427V444.5L818 436Z"></path>
		<path data-id="2001" d="M820.5 393L838.5 396.5V423.5L817.5 419L817 396C817 396 817.539 394.111 818.5 393.5C819.179 393.068 820.5 393 820.5 393Z"></path>
		<path data-id="2002" d="M838.5 396.5L860 401V427L838.5 423.5V396.5Z"></path>
		<path data-id="1302" d="M880.5 405.5L860 401V427L880.5 431V405.5Z"></path>
		<path data-id="1303" d="M880.5 431V405.5L900 409.5C900 409.5 901.349 410.272 902 411C902.469 411.525 903 412.5 903 412.5L902 435.5L880.5 431Z"></path>
		<path data-id="1304" d="M860 444.5V427L902 435.5V453L860 444.5Z"></path>
		<path data-id="1305" d="M902 453L860 444.5V462L901 470.5L902 453Z"></path>
		<path data-id="1306" d="M860 479.5V462L901 470.5L900.5 487.5L860 479.5Z"></path>
		<path data-id="1307" d="M859.5 497L860 479.5L900.5 487.5L900 505L859.5 497Z"></path>
		<path data-id="1308" d="M859.5 514.5V497L900 505L899 523L859.5 514.5Z"></path>
		<path data-id="1309" d="M859.5 531.5V514.5L899 523L898.5 540L859.5 531.5Z"></path>
		<path data-id="1310" d="M859.5 549.5V531.5L898.5 540L898 557.5L859.5 549.5Z"></path>
		<path data-id="1311" d="M859.5 566.5V549.5L898 557.5L897.5 574.5L859.5 566.5Z"></path>
		<path data-id="1312" d="M859.5 584V566.5L897.5 574.5L897 592.5L859.5 584Z"></path>
		<path data-id="1313" d="M897 592.5L859.5 584V601L888.5 607C888.5 607 892.054 607.431 894 606.5C895.376 605.842 897 604 897 604V592.5Z"></path>
		<path data-id="1314" d="M876.5 618L859 614.5V644.5H876.5V618Z"></path>
		<path data-id="1315" d="M876.5 644.5V618L891 621C891 621 893.449 622.19 894.5 623.5C895.32 624.521 896 626.5 896 626.5L895.5 645L876.5 644.5Z"></path>
		<path data-id="1316" d="M859 661.5V644.5L895.5 645L895 662.5L859 661.5Z"></path>
		<path data-id="1317" d="M859 679V661.5L895 662.5L894.5 679.5L859 679Z"></path>
		<path data-id="1318" d="M858.5 696.5L859 679L894.5 679.5L893.5 697L858.5 696.5Z"></path>
		<path data-id="1319" d="M858.5 714V696.5L894 697L893.5 715L858.5 714Z"></path>
		<path data-id="1320" d="M858.5 731.5V714L893.5 715L892.5 732L858.5 731.5Z"></path>
		<path data-id="1321" d="M858.5 749V731.5L892.5 732V749.5L858.5 749Z"></path>
		<path data-id="1322" d="M892.5 749.5L858 749L858.5 766L892 767L892.5 749.5Z"></path>
		<path data-id="1323" d="M858.5 783.5V766L892 767L891 784L858.5 783.5Z"></path>
		<path data-id="1324" d="M891 784L858.5 783.5L858 798L891 798.5V784Z"></path>
		<path data-id="1325" d="M891 798.5L858 798V819L883.5 819.5C883.5 819.5 886.605 819.218 888 818C889.186 816.965 890 814.5 890 814.5L891 798.5Z"></path>
		<path data-id="1326" d="M900.5 815V799L930.5 800L929.5 820.5L906.5 820C906.5 820 903.3 819.82 902 818.5C900.956 817.441 900.5 815 900.5 815Z"></path>
		<path data-id="1327" d="M931.5 785.5L900.5 785V799L930.5 800L931.5 785.5Z"></path>
		<path data-id="1328" d="M901.5 768L932.5 768.5L931.5 785.5L900.5 785L901.5 768Z"></path>
		<path data-id="1329" d="M901.5 768L902 750L933.5 751L932.5 768.5L901.5 768Z"></path>
		<path data-id="1330" d="M902 750L902.5 732.5L934.5 733.5L933.5 751L902 750Z"></path>
		<path data-id="1331" d="M903 715.5L935 716.5L934.5 733.5L902.5 732.5L903 715.5Z"></path>
		<path data-id="1332" d="M903.5 698.5L936 699L935 716.5L903 715.5L903.5 698.5Z"></path>
		<path data-id="1333" d="M904 680.5L936.5 681.5L936 699L903.5 698.5L904 680.5Z"></path>
		<path data-id="1334" d="M937 681.5L937.5 664L905 663L904 680.5L937 681.5Z"></path>
		<path data-id="1335" d="M905 663L905.5 646L935.5 647L935 664L905 663Z"></path>
		<path data-id="1336" d="M935.5 647L905.5 646V630.5C905.5 630.5 906.757 628.602 908 628C909.069 627.482 911 627.5 911 627.5L936 633.5L935.5 647Z"></path>
		<path data-id="1337" d="M935 664L936 633.5L952.5 638L951.5 664.5L935 664Z"></path>
		<path data-id="1338" d="M906 609V594L941 603.5L940 621L913 614C913 614 909.549 613.423 908 612C906.963 611.047 906 609 906 609Z"></path>
		<path data-id="1339" d="M906 594L906.5 576.5L942 586.5L941 603.5L906 594Z"></path>
		<path data-id="1340" d="M907 559.5L943 569L942 586.5L906.5 576.5L907 559.5Z"></path>
		<path data-id="1341" d="M907.5 542L944 551.5L943 569L907 559.5L907.5 542Z"></path>
		<path data-id="1342" d="M908 525L945.5 534.5L944 551.5L907.5 542L908 525Z"></path>
		<path data-id="1343" d="M908 525L908.5 507.5L946.5 517L945.5 534.5L908 525Z"></path>
		<path data-id="1344" d="M908.5 507.5L909 490.5L947.5 500L946.5 517L908.5 507.5Z"></path>
		<path data-id="1345" d="M909 490.5L909.5 472.5L948.5 482.5L947.5 500L909 490.5Z"></path>
		<path data-id="1346" d="M909.5 472.5L910 455L950 464.5L948.5 482.5L909.5 472.5Z"></path>
		<path data-id="1347" d="M951 447.5L910.5 438L910 455L950 464.5L951 447.5Z"></path>
		<path data-id="1348" d="M914.5 414L932 417.5L931 442.5L910.5 438L911 417.5C911 417.5 911.636 415.741 912.5 415C913.163 414.432 914.5 414 914.5 414Z"></path>
		<path data-id="1349" d="M945 420L952.5 425.5L951 447.5L931 442.5L932 417.5L945 420Z"></path>
		<path data-id="1350" d="M952.5 425.5L971 438L970 469.5L950 464.5L952.5 425.5Z"></path>
		<path data-id="1351" d="M970 469.5L971 438L987.5 449C987.5 449 989.209 450.032 990 451C990.829 452.014 991.5 454 991.5 454L989.5 474L970 469.5Z"></path>
		<path data-id="1352" d="M948.5 482.5L950 464.5L989.5 474L987.5 492.5L948.5 482.5Z"></path>
		<path data-id="1353" d="M947.5 500L948.5 482.5L987.5 492.5L986.5 509.5L947.5 500Z"></path>
		<path data-id="1354" d="M946.5 517L947.5 500L986.5 509.5L985 526.5L946.5 517Z"></path>
		<path data-id="1355" d="M945.5 534.5L946.5 517L985 526.5L983.5 544L945.5 534.5Z"></path>
		<path data-id="1356" d="M944 551.5L945.5 534.5L983.5 544L982 561L944 551.5Z"></path>
		<path data-id="1357" d="M943 569L944 551.5L982 561L980 578.5L943 569Z"></path>
		<path data-id="1358" d="M942 586.5L943 569L980 578.5L978.5 596L942 586.5Z"></path>
		<path data-id="1359" d="M941 603.5L942 586.5L978.5 596L977.5 613L941 603.5Z"></path>
		<path data-id="1360" d="M977.5 613L941 603.5L940 621L967 628.5C967 628.5 970.844 629.418 973 628.5C974.656 627.794 976.5 625.5 976.5 625.5L977.5 613Z"></path>
		<path data-id="1361" d="M951.5 664L952.5 638L968 642C968 642 970.363 642.911 971.5 644C972.517 644.974 973.5 647 973.5 647L972 665L951.5 664Z"></path>
		<path data-id="1362" d="M937 681.5L937.5 664L972 665L970.5 682L937 681.5Z"></path>
		<path data-id="1363" d="M936 699L936.5 681.5L970.5 682L969 699.5L936 699Z"></path>
		<path data-id="1364" d="M935 716.5L936 699L969 699.5L967.5 716.5H935Z"></path>
		<path data-id="1365" d="M934.5 733.5L935 716.5H967.5L966 734.5L934.5 733.5Z"></path>
		<path data-id="1366" d="M966 734.5L934.5 733.5L933.5 751L964.5 752L966 734.5Z"></path>
		<path data-id="1367" d="M932.5 768.5L933.5 751L964.5 752L963 769.5L932.5 768.5Z"></path>
		<path data-id="1368" d="M931.5 785.5L932.5 768.5L963 769.5L961.5 786L931.5 785.5Z"></path>
		<path data-id="1369" d="M961.5 786L931.5 785.5L930.5 800L960.5 800.5L961.5 786Z"></path>
		<path data-id="1370" d="M960.5 800.5L930.5 800L929.5 820.5L952 821.5C952 821.5 955.877 821.109 957.5 819.5C958.74 818.27 959.5 815.5 959.5 815.5L960.5 800.5Z"></path>
		<path data-id="1371" d="M1002 802.5L969 802L968.5 817C968.5 817 968.392 818.98 969 820C969.721 821.21 972 822 972 822L999.5 822.5L1002 802.5Z"></path>
		<path data-id="1372" d="M1004 787L971 786.5L969 802L1002 802.5L1004 787Z"></path>
		<path data-id="1373" d="M971 786.5L972 769.5H1006.5L1004 787L971 786.5Z"></path>
		<path data-id="1374" d="M972 769.5L973.5 752.5H1008.5L1006.5 769.5H972Z"></path>
		<path data-id="1375" d="M973.5 752.5L975 735H1010.5L1008.5 752.5H973.5Z"></path>
		<path data-id="1376" d="M975 735L977 717.5H1013L1010.5 735H975Z"></path>
		<path data-id="1377" d="M977 717.5L978.5 700H1015L1012.5 717.5H977Z"></path>
		<path data-id="1378" d="M978.5 700L980 683L1017.5 683.5L1015 700H978.5Z"></path>
		<path data-id="1379" d="M980 683L981 665.5L1011 669L1009.5 683H980Z"></path>
		<path data-id="1380" d="M989 649L1013 656L1011 669L1000 668L981 665.5L982 652L989 649Z"></path>
		<path data-id="1381" d="M1013 656L1030.5 661.5L1028.5 683.5H1009.5L1011 669L1013 656Z"></path>
		<path data-id="1382" d="M984.5 630L985.5 616L1024.5 626.5L1021.5 644.5L988.5 634.5L984.5 630Z"></path>
		<path data-id="1383" d="M987 598.5L1026.5 609L1024.5 626.5L985.5 616L987 598.5Z"></path>
		<path data-id="1384" d="M988.5 581.5L1028.5 592L1026.5 609L987 598.5L988.5 581.5Z"></path>
		<path data-id="1385" d="M990 563.5L1031 574.5L1028.5 592L988.5 581.5L990 563.5Z"></path>
		<path data-id="1386" d="M990 563.5L992 546L1033.5 557.5L1031 574.5L990 563.5Z"></path>
		<path data-id="1387" d="M993 529L1035.5 540L1033.5 557.5L992 546L993 529Z"></path>
		<path data-id="1388" d="M995 511.5L1037.5 523L1035.5 540L993 529L995 511.5Z"></path>
		<path data-id="1389" d="M995 511.5L996.5 495L1040 506L1037.5 523L995 511.5Z"></path>
		<path data-id="1390" d="M1002.5 461L1022.5 475L1018.5 500.5L996.5 495L999.5 462C999.5 462 1000.01 461.247 1000.5 461C1001.2 460.651 1002.5 461 1002.5 461Z"></path>
		<path data-id="1391" d="M1042.5 488.5L1022.5 475L1018.5 500.5L1040 506L1042.5 488.5Z"></path>
		<path data-id="1392" d="M1063 502.5L1042.5 488.5L1037.5 523L1059 528.5L1063 502.5Z"></path>
		<path data-id="1393" d="M1059 528.5L1063 502.5L1078.5 513C1078.5 513 1080.68 514.216 1081.5 515.5C1082.37 516.856 1082.5 519.5 1082.5 519.5L1080 534L1059 528.5Z"></path>
		<path data-id="1394" d="M1035.5 540L1037.5 523L1080 534L1077 550.5L1035.5 540Z"></path>
		<path data-id="1395" d="M1033.5 557.5L1035.5 540L1077 550.5L1074 568L1033.5 557.5Z"></path>
		<path data-id="1396" d="M1031 574.5L1033.5 557.5L1074 568L1071 585L1031 574.5Z"></path>
		<path data-id="1397" d="M1028.5 592L1031 574.5L1071 585L1068 601.5L1028.5 592Z"></path>
		<path data-id="1398" d="M1026.5 609L1028.5 592L1068 601.5L1065 619L1026.5 609Z"></path>
		<path data-id="1399" d="M1024.5 626.5L1026.5 609L1065 619L1062 636.5L1024.5 626.5Z"></path>
		<path data-id="1400" d="M1021.5 644.5L1024.5 626.5L1062 636.5L1060 648L1054.5 646.5L1053 654.5L1021.5 644.5Z"></path>
		<path data-id="1401" d="M1028.5 683.5L1030.5 661.5L1050.5 667C1050.5 667 1052.86 667.911 1054 669C1055.02 669.974 1056 672 1056 672L1054.5 683.5H1028.5Z"></path>
		<path data-id="1402" d="M1015 700L1017.5 683.5H1054L1051.5 700H1015Z"></path>
		<path data-id="1403" d="M1012.5 717.5L1015 700H1051.5L1049 717.5H1012.5Z"></path>
		<path data-id="1404" d="M1010.5 735L1013 717.5H1049L1046 735H1010.5Z"></path>
		<path data-id="1405" d="M1008.5 752.5L1010.5 735H1046L1043 752.5H1008.5Z"></path>
		<path data-id="1406" d="M1006.5 769.5L1008.5 752.5H1043.5L1040.5 769.5H1006.5Z"></path>
		<path data-id="1407" d="M1040.5 769.5H1006.5L1004 787H1037.5L1040.5 769.5Z"></path>
		<path data-id="1408" d="M1037.5 787H1004L1002 802.5H1035.5L1037.5 787Z"></path>
		<path data-id="1409" d="M1035.5 802.5H1002L999.5 822.5L1026 823C1026 823 1028.64 822.868 1030 822C1031.28 821.178 1032.5 819 1032.5 819L1035.5 802.5Z"></path>
		<path data-id="1410" d="M1069.5 858L1040.5 850L1047.5 886.5L1052.5 891L1064 890.5L1069.5 858Z"></path>
		<path data-id="1411" d="M1039.5 847L1042.5 831.5L1072.5 841L1069.5 858L1040.5 850L1039.5 847Z"></path>
		<path data-id="1412" d="M1042.5 831.5L1045.5 814L1075.5 823.5L1072.5 841L1042.5 831.5Z"></path>
		<path data-id="1413" d="M1045.5 814L1048.5 797L1078 806L1075.5 823.5L1045.5 814Z"></path>
		<path data-id="1414" d="M1048.5 797L1051.5 780L1081 788.5L1078 806L1048.5 797Z"></path>
		<path data-id="1415" d="M1051.5 780L1054.5 762.5L1084 771.5L1081 788.5L1051.5 780Z"></path>
		<path data-id="1416" d="M1054.5 762.5L1057.5 745.5L1087 754.5L1084 771.5L1054.5 762.5Z"></path>
		<path data-id="1417" d="M1057.5 745.5L1060.5 728L1090 737L1087 754.5L1057.5 745.5Z"></path>
		<path data-id="1418" d="M1060.5 728L1063 711L1093 719.5L1090 737L1060.5 728Z"></path>
		<path data-id="1419" d="M1063 711L1066 693.5L1095.5 702.5L1093 719.5L1063 711Z"></path>
		<path data-id="1420" d="M1069 676L1098.5 685L1095.5 702.5L1066 693.5L1069 676Z"></path>
		<path data-id="1421" d="M1072 659L1101.5 668L1098.5 685L1069 676L1072 659Z"></path>
		<path data-id="1422" d="M1072 659L1075 641L1104.5 650L1101.5 668L1072 659Z"></path>
		<path data-id="1423" d="M1075 641L1078 624L1107.5 633.5L1104.5 650L1075 641Z"></path>
		<path data-id="1424" d="M1078 624L1081 607L1110.5 616L1107.5 633.5L1078 624Z"></path>
		<path data-id="1425" d="M1081 607L1083.5 589L1113.5 598L1110.5 616L1081 607Z"></path>
		<path data-id="1426" d="M1083.5 589L1086.5 572.5L1116 581.5L1113.5 598L1083.5 589Z"></path>
		<path data-id="1427" d="M1086.5 572.5L1090 555L1119 564L1116 581.5L1086.5 572.5Z"></path>
		<path data-id="1428" d="M1094.5 528L1090 555L1110 561L1114 537.5L1099 527C1099 527 1097.47 526.276 1096.5 526.5C1095.55 526.72 1094.5 528 1094.5 528Z"></path>
		<path data-id="1429" d="M1110 561L1114 537.5L1145 559C1145 559 1147.1 560.608 1148 562C1148.9 563.402 1149.5 566 1149.5 566L1148 573.5L1110 561Z"></path>
		<path data-id="1430" d="M1116 581.5L1119 564L1148 573.5L1145.5 590L1116 581.5Z"></path>
		<path data-id="1431" d="M1113.5 598L1116 581.5L1145.5 590L1142.5 607L1113.5 598Z"></path>
		<path data-id="1432" d="M1110.5 616L1113.5 598L1142.5 607L1139.5 624.5L1110.5 616Z"></path>
		<path data-id="1433" d="M1107.5 633.5L1110.5 616L1139.5 624.5L1136.5 642L1107.5 633.5Z"></path>
		<path data-id="1434" d="M1104.5 650L1107.5 633.5L1136.5 642L1134 659L1104.5 650Z"></path>
		<path data-id="1435" d="M1101.5 668L1104.5 650L1134 659L1131 677L1101.5 668Z"></path>
		<path data-id="1436" d="M1098.5 685L1101.5 668L1131 677L1128 694L1098.5 685Z"></path>
		<path data-id="1437" d="M1095.5 702.5L1098.5 685L1128 694L1125 711.5L1095.5 702.5Z"></path>
		<path data-id="1438" d="M1093 719.5L1095.5 702.5L1125 711.5L1122 728L1093 719.5Z"></path>
		<path data-id="1439" d="M1090 737L1093 719.5L1122 728L1119 746L1090 737Z"></path>
		<path data-id="1440" d="M1087 754.5L1090 737L1119 746L1116 763.5L1087 754.5Z"></path>
		<path data-id="1441" d="M1116 763.5L1087 754.5L1084 771.5L1113.5 780L1116 763.5Z"></path>
		<path data-id="1442" d="M1081 788.5L1084 771.5L1113.5 780L1110.5 797.5L1081 788.5Z"></path>
		<path data-id="1443" d="M1110.5 797.5L1081 788.5L1078 806L1107.5 815L1110.5 797.5Z"></path>
		<path data-id="1444" d="M1075.5 823.5L1078 806L1107.5 815L1105 832L1075.5 823.5Z"></path>
		<path data-id="1445" d="M1105 832L1075.5 823.5L1072.5 841L1102 850L1105 832Z"></path>
		<path data-id="1446" d="M1069.5 858L1072.5 841L1102 850L1099 866.5L1069.5 858Z"></path>
		<path data-id="1447" d="M1099 866.5L1069.5 858L1064 890.5L1095 889L1099 866.5Z"></path>
		<path data-id="1448" d="M1104.5 887.5L1108.5 862.5L1168 880.5L1167.5 885L1104.5 887.5Z"></path>
		<path data-id="1449" d="M1108.5 862.5L1111.5 845L1142 854.5L1139 871.5L1108.5 862.5Z"></path>
		<path data-id="1450" d="M1114.5 827.5L1145 837L1142 854.5L1111.5 845L1114.5 827.5Z"></path>
		<path data-id="1451" d="M1117.5 810.5L1147.5 820L1145 837L1114.5 827.5L1117.5 810.5Z"></path>
		<path data-id="1452" d="M1120 793L1150.5 802.5L1147.5 820L1117.5 810.5L1120 793Z"></path>
		<path data-id="1453" d="M1123 776L1153.5 785L1150.5 802.5L1120 793L1123 776Z"></path>
		<path data-id="1454" d="M1126.5 759L1156.5 768L1153.5 785L1123 776L1126.5 759Z"></path>
		<path data-id="1455" d="M1129 741L1159.5 750.5L1156.5 768L1126.5 759L1129 741Z"></path>
		<path data-id="1456" d="M1132 724L1162 733.5L1159.5 750.5L1129 741L1132 724Z"></path>
		<path data-id="1457" d="M1135 707L1165.5 716.5L1162 733.5L1132 724L1135 707Z"></path>
		<path data-id="1458" d="M1138 690L1168 699L1165.5 716.5L1135 707L1138 690Z"></path>
		<path data-id="1459" d="M1171 681.5L1141.5 672.5L1138 690L1168 699L1171 681.5Z"></path>
		<path data-id="1460" d="M1144 655L1174 664L1171 681.5L1141.5 673L1144 655Z"></path>
		<path data-id="1461" d="M1144 655L1147 637.5L1177 646.5L1174 664L1144 655Z"></path>
		<path data-id="1462" d="M1147 637.5L1150 621L1180 629.5L1177 646.5L1147 637.5Z"></path>
		<path data-id="1463" d="M1150 621L1153.5 603L1183 612L1180 629.5L1150 621Z"></path>
		<path data-id="1464" d="M1163 573.5L1187 589.5L1183 612L1153.5 603L1158 575C1158 575 1159.08 573.837 1160 573.5C1161.1 573.096 1163 573.5 1163 573.5Z"></path>
		<path data-id="1465" d="M1183 612L1187 589.5L1211 604.5C1211 604.5 1212.38 605.912 1213 607C1213.52 607.915 1214 609.5 1214 609.5L1212 621L1183 612Z"></path>
		<path data-id="1466" d="M1212 621L1183 612L1180 629.5L1208.5 638L1212 621Z"></path>
		<path data-id="1467" d="M1177 646.5L1180 629.5L1208.5 638L1206 655.5L1177 646.5Z"></path>
		<path data-id="1468" d="M1174 664L1177 646.5L1206 655.5L1203.5 672.5L1174 664Z"></path>
		<path data-id="1469" d="M1171 681.5L1174 664L1203.5 672.5L1200.5 690L1171 681.5Z"></path>
		<path data-id="1470" d="M1168 699L1171 681.5L1200.5 690L1197 707L1168 699Z"></path>
		<path data-id="1471" d="M1165.5 716.5L1168 699L1197 707L1194.5 725L1165.5 716.5Z"></path>
		<path data-id="1472" d="M1162 733.5L1165.5 716.5L1194.5 725L1191.5 742L1162 733.5Z"></path>
		<path data-id="1473" d="M1159.5 750.5L1162 733.5L1191.5 742L1188.5 760L1159.5 750.5Z"></path>
		<path data-id="1474" d="M1156.5 768L1159.5 750.5L1188.5 760L1185.5 777L1156.5 768Z"></path>
		<path data-id="1475" d="M1153.5 785L1156.5 768L1185.5 777L1182.5 793.5L1153.5 785Z"></path>
		<path data-id="1476" d="M1150.5 802.5L1153.5 785L1182.5 793.5L1180 811L1150.5 802.5Z"></path>
		<path data-id="1477" d="M1147.5 820L1150.5 802.5L1180 811L1177 828.5L1147.5 820Z"></path>
		<path data-id="1478" d="M1145 837L1147.5 820L1177 828.5L1174 846L1145 837Z"></path>
		<path data-id="1479" d="M1142 854.5L1145 837L1174 846L1171 863.5L1142 854.5Z"></path>
		<path data-id="1480" d="M1171 863.5L1142 854.5L1139 871.5L1168 880.5L1171 863.5Z"></path>
		<path data-id="1481" d="M1177.5 884.5L1182 859.5L1240.5 876L1239.5 881.5L1177.5 884.5Z"></path>
		<path data-id="1482" d="M1182 859.5L1185 842L1214 850.5L1210.5 867.5L1182 859.5Z"></path>
		<path data-id="1483" d="M1187.5 824L1216.5 833L1214 850.5L1185 842L1187.5 824Z"></path>
		<path data-id="1484" d="M1187.5 824L1190.5 807L1220 815.5L1216.5 833L1187.5 824Z"></path>
		<path data-id="1485" d="M1193 790L1222.5 799L1220 815.5L1190.5 807L1193 790Z"></path>
		<path data-id="1486" d="M1193 790L1196.5 772.5L1226 781.5L1222.5 799L1193 790Z"></path>
		<path data-id="1487" d="M1196.5 772.5L1199 755.5L1228.5 764L1226 781.5L1196.5 772.5Z"></path>
		<path data-id="1488" d="M1199 755.5L1202 737.5L1231.5 746.5L1228.5 764L1199 755.5Z"></path>
		<path data-id="1489" d="M1204.5 720.5L1234.5 729.5L1231.5 746.5L1202 737.5L1204.5 720.5Z"></path>
		<path data-id="1490" d="M1204.5 720.5L1208 702.5L1237.5 712L1234.5 729.5L1204.5 720.5Z"></path>
		<path data-id="1491" d="M1208 702.5L1211 685.5L1240.5 695L1237.5 712L1208 702.5Z"></path>
		<path data-id="1492" d="M1211 685.5L1214 669L1243.5 678L1240.5 695L1211 685.5Z"></path>
		<path data-id="1493" d="M1216.5 651L1246.5 660.5L1243.5 678L1214 669L1216.5 651Z"></path>
		<path data-id="1494" d="M1225.5 616.5L1238.5 625.5L1233.5 656.5L1216.5 651L1222 619L1225.5 616.5Z"></path>
		<path data-id="1495" d="M1238.5 625.5L1255 636.5L1250.5 661.5L1233.5 656.5L1238.5 625.5Z"></path>
		<path data-id="1496" d="M1250.5 661.5L1255 636.5L1276 650C1276 650 1277.03 651.462 1277.5 652.5C1278.08 653.796 1278.5 656 1278.5 656L1276 669.5L1250.5 661.5Z"></path>
		<path data-id="1497" d="M1243.5 678L1246.5 660.5L1276 669.5L1273 686.5L1243.5 678Z"></path>
		<path data-id="1498" d="M1240.5 695L1243.5 678L1273 686.5L1270 704L1240.5 695Z"></path>
		<path data-id="1499" d="M1237.5 712L1240.5 695L1270 704L1267 721.5L1237.5 712Z"></path>
		<path data-id="1500" d="M1267 721.5L1237.5 712L1234.5 729.5L1264 738.5L1267 721.5Z"></path>
		<path data-id="1501" d="M1231.5 746.5L1234.5 729.5L1264 738.5L1261 755L1231.5 746.5Z"></path>
		<path data-id="1502" d="M1228.5 764L1231.5 746.5L1261 755L1258 772.5L1228.5 764Z"></path>
		<path data-id="1503" d="M1226 781.5L1228.5 764L1258 772.5L1255 790L1226 781.5Z"></path>
		<path data-id="1504" d="M1222.5 799L1226 781.5L1255 790L1252 807.5L1222.5 799Z"></path>
		<path data-id="1505" d="M1220 815.5L1222.5 799L1252 807.5L1249.5 824.5L1220 815.5Z"></path>
		<path data-id="1506" d="M1249.5 824.5L1220 815.5L1216.5 833L1246 842L1249.5 824.5Z"></path>
		<path data-id="1507" d="M1214 850.5L1216.5 833L1246 842L1243.5 859.5L1214 850.5Z"></path>
		<path data-id="1508" d="M1243.5 859.5L1214 850.5L1210.5 867.5L1240.5 876L1243.5 859.5Z"></path>
		<path data-id="1509" d="M1051 901.5L1034.5 902L1041.5 944H1053.5L1051 901.5Z"></path>
		<path data-id="1510" d="M1065.5 900.5L1051 901.5L1053.5 944L1067 943L1065.5 900.5Z"></path>
		<path data-id="1511" d="M1083.5 900L1065.5 900.5L1067 943L1085 942L1083.5 900Z"></path>
		<path data-id="1512" d="M1100.5 899L1083.5 900L1085 942L1102 941L1100.5 899Z"></path>
		<path data-id="1513" d="M1118 898L1100.5 899L1102 941L1120 939.5L1118 898Z"></path>
		<path data-id="1514" d="M1135.5 897L1118 898L1120 939.5L1137 939L1135.5 897Z"></path>
		<path data-id="1515" d="M1153 896L1135.5 897L1137 939L1155 938L1153 896Z"></path>
		<path data-id="1516" d="M1170 895L1153 896L1155 938L1172 937L1170 895Z"></path>
		<path data-id="1517" d="M1187.5 894L1170 895L1172 937L1189.5 936L1187.5 894Z"></path>
		<path data-id="1518" d="M1205 893.5L1187.5 894L1189.5 936L1207 935L1205 893.5Z"></path>
		<path data-id="1519" d="M1222.5 892.5L1205 893.5L1207 935L1218 934.5L1224.5 933L1222.5 892.5Z"></path>
		<path data-id="1520" d="M1240 892L1222.5 892.5L1224.5 933L1251 926.5L1240 892Z"></path>
		<path data-id="1521" d="M1248 891.5L1250.5 876.5L1299 915.5L1251 926.5L1240 892L1248 891.5Z"></path>
		<path data-id="1522" d="M1250.5 876.5L1253.5 858L1281.5 870.5L1277 898L1250.5 876.5Z"></path>
		<path data-id="1523" d="M1253.5 858L1256.5 840L1285 853L1281.5 870.5L1253.5 858Z"></path>
		<path data-id="1524" d="M1256.5 840L1259.5 821.5L1288.5 834L1285 853L1256.5 840Z"></path>
		<path data-id="1525" d="M1259.5 821.5L1262 805L1291.5 817.5L1288.5 834L1259.5 821.5Z"></path>
		<path data-id="1526" d="M1262 805L1265 786L1294.5 799L1291.5 817.5L1262 805Z"></path>
		<path data-id="1527" d="M1268 773L1265 786L1294.5 799L1297.5 782L1275.5 771C1275.5 771 1272.66 770.435 1271 771C1269.67 771.453 1268 773 1268 773Z"></path>
		<path data-id="1528" d="M1271 755.5L1273 742L1302.5 754.5L1299 772.5L1274.5 761.5C1274.5 761.5 1272.72 759.847 1272 758.5C1271.42 757.409 1271 755.5 1271 755.5Z"></path>
		<path data-id="1529" d="M1306 737L1276 725L1273 742L1302.5 754.5L1306 737Z"></path>
		<path data-id="1530" d="M1309 719.893L1279.53 707L1276 724.851L1305.98 737L1309 719.893Z"></path>
		<path data-id="1531" d="M1312.5 702L1282.93 691L1279.5 707L1309 720L1312.5 702Z"></path>
		<path data-id="1532" d="M1283 691.141L1285.22 677L1316 684.828L1312.55 702L1283 691.141Z"></path>
		<path data-id="1533" d="M1285 677.172L1288.25 660L1320 664.293L1316.25 685L1285 677.172Z"></path>
		<path data-id="1534" d="M1289.49 649.75L1312.42 608L1361 634.5L1349.04 668L1288 660.25L1289.49 649.75Z"></path>
		<path data-id="1535" d="M1349 667.782L1319.72 664L1316 684.672L1342.55 694L1344.04 682.908L1349 667.782Z"></path>
		<path data-id="1536" d="M1342.31 694.165L1316.42 685L1313 701.844L1342.31 712L1345 697.633L1342.31 697.138V694.165Z"></path>
		<path data-id="1537" d="M1339 732.5L1342 712L1312.78 702L1309 720.104L1339 732.5Z"></path>
		<path data-id="1538" d="M1339 732.787L1309.18 720L1306 737.213L1335.82 750L1339 732.787Z"></path>
		<path data-id="1539" d="M1335.5 750L1306 737.5L1302.5 754.5L1333.5 768L1335.5 750Z"></path>
		<path data-id="1540" d="M1333.5 768L1302.5 754.5L1299 772.5L1323 783.5C1323 783.5 1325.83 783.568 1327.5 783C1328.99 782.494 1331 781 1331 781L1333.5 768Z"></path>
		<path data-id="1541" d="M1320 792.5L1297.5 782L1294.5 799L1323 812.5L1325 800L1320 792.5Z"></path>
		<path data-id="1542" d="M1323 812.5L1294.5 799L1291.5 817.5L1320.5 830L1323 812.5Z"></path>
		<path data-id="1543" d="M1320.5 830L1291.5 817.5L1288.5 834L1317.5 846.5L1320.5 830Z"></path>
		<path data-id="1544" d="M1317.5 846.5L1288.5 834L1281.5 870.5L1311 865L1313.5 851.5H1317L1317.5 846.5Z"></path>
		<path data-id="1545" d="M1311 865L1325.5 868L1326 912.5L1317 911L1299 915.5L1277 898L1281.5 870.5L1311 865Z"></path>
		<path data-id="1546" d="M1325.5 868.5L1329 854.5L1355.5 860L1344 915L1326 912.5L1325.5 868.5Z"></path>
		<path data-id="1547" d="M1325.5 853.5L1329 836.5L1359 844.5L1355.5 860L1325.5 853.5Z"></path>
		<path data-id="1548" d="M1329 836.5L1332.5 817.5L1362 828.5L1359 844.5L1329 836.5Z"></path>
		<path data-id="1549" d="M1335 804.5L1332.5 817.5L1362 828.5L1366 813L1343.5 802C1343.5 802 1340.34 801.36 1338.5 802C1336.91 802.551 1335 804.5 1335 804.5Z"></path>
		<path data-id="1550" d="M1339.5 786L1341.5 772.5L1370.5 786L1367.5 804L1344 793C1344 793 1341.9 791.392 1341 790C1340.1 788.598 1339.5 786 1339.5 786Z"></path>
		<path data-id="1551" d="M1341.5 772.5L1344.5 754.5L1373.5 767.5L1370.5 786L1341.5 772.5Z"></path>
		<path data-id="1552" d="M1344.5 754.5L1347.5 737L1377.5 746.5L1373.5 767.5L1344.5 754.5Z"></path>
		<path data-id="1553" d="M1380.5 726L1351 718.5L1347.5 737L1377 746.5L1380.5 726Z"></path>
		<path data-id="1554" d="M1384 706.065L1356.91 699H1353.96L1351 718.682L1380.55 726L1384 706.065Z"></path>
		<path data-id="1555" d="M1390 675.437L1386.5 671L1359.5 685.296L1357 699.099L1384.5 706L1390 675.437Z"></path>
		<path data-id="1556" d="M1387 670.429L1361.05 634L1344 682.739L1359.27 685L1387 670.429Z"></path>
		<path data-id="1557" d="M1409.5 704.5L1390 675.5L1377 746.5L1404 754.5L1406 747.5L1399.5 731L1409.5 704.5Z"></path>
		<path data-id="1558" d="M1404 754.5L1377.5 746.5L1373.5 767.5L1403 778L1406.5 762.5L1402.5 761.5L1404 754.5Z"></path>
		<path data-id="1559" d="M1370.5 786L1373.5 767.5L1403 778L1399.5 800L1370.5 786Z"></path>
		<path data-id="1560" d="M1399.5 800L1370.5 786L1367.5 804L1389 814C1389 814 1392.09 814.966 1394 814.5C1395.27 814.189 1397 813 1397 813L1399.5 800Z"></path>
		<path data-id="1561" d="M1394.5 826.5L1366 813L1362 828.5L1392.5 840L1394.5 826.5Z"></path>
		<path data-id="1562" d="M1392.5 840L1362 828.5L1359 844.5L1390.5 853.5L1392.5 840Z"></path>
		<path data-id="1563" d="M1355.5 860L1359 844.5L1390.5 853.5L1390 859H1386.5L1385 866.5L1355.5 860Z"></path>
		<path data-id="1564" d="M1385 866.5L1355.5 860L1344 915L1369 918.5L1384 873L1385 866.5Z"></path>
		<path data-id="1565" d="M1399 875.5L1384 873L1368.5 918.5L1422.5 925L1399 875.5Z"></path>
		<path data-id="1566" d="M1399 875.5L1401 863L1439.5 877.5L1431.5 924.5L1422.5 925L1399 875.5Z"></path>
		<path data-id="1567" d="M1408.5 832.5L1423.5 839.5L1418 869L1401.5 863C1401.5 863 1399.83 862.275 1399 861.5C1398.28 860.835 1397.5 859.5 1397.5 859.5L1402.5 835.5C1402.5 835.5 1404.09 833.589 1405.5 833C1406.6 832.542 1408.5 832.5 1408.5 832.5Z"></path>
		<path data-id="1568" d="M1406 817L1408 804L1432.5 809.5L1427.5 831.5L1409.5 824C1409.5 824 1407.7 822.355 1407 821C1406.26 819.569 1406 817 1406 817Z"></path>
		<path data-id="1569" d="M1408 804L1411 785.5L1437 792L1432.5 809.5L1408 804Z"></path>
		<path data-id="1570" d="M1455.5 776.5L1413.5 770L1411 785.5L1452 795.5L1455.5 776.5Z"></path>
		<path data-id="1571" d="M1458.5 762L1419 757L1418 764.5H1414.5L1413.5 770L1455.5 776.5L1458.5 762Z"></path>
		<path data-id="1572" d="M1458.5 762L1464 735.5L1420 750.5L1419 757L1458.5 762Z"></path>
		<path data-id="1573" d="M1464 735.5L1434 718.5L1413.5 749L1420 750.5L1464 735.5Z"></path>
		<path data-id="1574" d="M1434 718.5L1409.5 704.5L1399.5 731L1406 747.5L1413.5 749L1434 718.5Z"></path>
		<path data-id="1575" d="M1473.5 741L1464 735.5L1443 839L1462.5 848L1479.5 750.5L1473.5 741Z"></path>
		<path data-id="1576" d="M1452 795.5L1437 792L1427.5 831.5L1443 839L1452 795.5Z"></path>
		<path data-id="1577" d="M1423.5 839.5L1444.5 849.5L1439.5 877.5L1418 869L1423.5 839.5Z"></path>
		<path data-id="1578" d="M1444.5 849.5L1461.5 857.5L1450 924L1431.5 924.5L1444.5 849.5Z"></path>
		<path data-id="1579" d="M1488 869.5V874L1469.5 923.5L1450 924L1461.5 857.5L1488 869.5Z"></path>
		<path data-id="1580" d="M1501.5 879L1488 874L1469.5 923.5L1528.5 911L1501.5 879Z"></path>
		<path data-id="1581" d="M1501.5 879L1505 871.5L1561 896.5L1528.5 911L1501.5 879Z"></path>
		<path data-id="1582" d="M1572 891.5L1536.5 837L1507.5 864.5L1505 871.5L1561 896.5L1572 891.5Z"></path>
		<path data-id="1583" d="M1536.5 837L1521 814.5L1495 859L1507.5 865L1536.5 837Z"></path>
		<path data-id="1584" d="M1521 814.5L1494.5 773.5L1492.5 795L1479 855.5L1493 862L1521 814.5Z"></path>
		<path data-id="1585" d="M1494.5 773.5L1479.5 750.5L1462.5 848L1479 855.5L1492.5 794.5L1494.5 773.5Z"></path>
		<path data-id="1586" d="M1313 607.651L1294.01 597L1274 637.574L1287.68 647.211L1289.7 650L1313 607.651Z"></path>
		<path data-id="1587" d="M1294 597.199L1276.38 587L1258 625.806L1273.86 637L1294 597.199Z"></path>
		<path data-id="1588" d="M1277 587.366L1260.25 579L1245 616.649L1258.75 626L1277 587.366Z"></path>
		<path data-id="1589" d="M1260 578.356L1243.37 568L1229 605.634L1244.63 617L1260 578.356Z"></path>
		<path data-id="1590" d="M1243 568.559L1227.5 557L1212 594.441L1228.5 606L1243 568.559Z"></path>
		<path data-id="1591" d="M1228 556.546L1217.09 548L1196 582.437L1212.62 594L1228 556.546Z"></path>
		<path data-id="1592" d="M1217 547.941L1203.56 536L1181 572.838L1195.45 583L1217 547.941Z"></path>
		<path data-id="1593" d="M1200 542.172L1186.29 533L1167 563.064L1181.47 573L1200 542.172Z"></path>
		<path data-id="1594" d="M1190 526.942L1175.7 516L1154 552.804L1167.56 563L1190 526.942Z"></path>
		<path data-id="1595" d="M1176 515.611L1162.16 505L1139 543.147L1153.85 553L1176 515.611Z"></path>
		<path data-id="1596" d="M1162 504.869L1146.11 493L1125 532.899L1139.15 543L1162 504.869Z"></path>
		<path data-id="1597" d="M1146 493.062L1129.38 480L1110 522.953L1124.6 533L1146 493.062Z"></path>
		<path data-id="1598" d="M1096.25 513.157L1110.36 523L1130 479.843L1117.41 470.757C1117.41 470.757 1116.56 470 1115.9 470C1115.24 470 1114.39 470.757 1114.39 470.757L1096.25 509.876C1096.25 509.876 1095.98 510.946 1096 511.643C1096.01 512.242 1096.25 513.157 1096.25 513.157Z"></path>
		<path data-id="1599" d=""></path>
		<path data-id="1600" d="M1085.63 505L1068 492.695L1088.36 449L1104 460.803L1085.63 505Z"></path>
		<path data-id="1601" d="M1067.5 492L1047 477.808L1079.5 431L1084.5 437.473L1088 448.678L1067.5 492Z"></path>
		<path data-id="1602" d="M1047.33 478L1033 468.25L1069.19 417L1080 431L1047.33 478Z"></path>
		<path data-id="1603" d="M1032.82 468L1018 458L1057.69 402L1069 416.5L1032.82 468Z"></path>
		<path data-id="1604" d="M1018.32 458L1004 448L1046.95 388L1058 402L1018.32 458Z"></path>
		<path data-id="1605" d="M1003.88 448L989 437.965L1032.12 377L1044.23 383.774L1047 387.788L1003.88 448Z"></path>
		<path data-id="1606" d="M989.44 438L976 428.285L1016.82 369L1032 377.469L989.44 438Z"></path>
		<path data-id="1607" d="M975.565 429L961 418.674L1002.43 361L1017 369.059L975.565 429Z"></path>
		<path data-id="1608" d="M1002 360.963L984 351L945 410.03L951.5 411.773L960.75 418L1002 360.963Z"></path>
		<path data-id="1609" d="M929 405.805L936.75 372L966 378.909L945.25 410L929 405.805Z"></path>
		<path data-id="1610" d="M928.5 371L916.75 368L909 401L920.5 404L928.5 371Z"></path>
		<path data-id="1611" d="M916.5 368L903.25 365L895.5 398L909 401L916.5 368Z"></path>
		<path data-id="1612" d="M903 364.776L885.75 361L878 394.224L895.75 398L903 364.776Z"></path>
		<path data-id="1613" d="M886 361L869.163 357L861 390.25L878.347 394L886 361Z"></path>
		<path data-id="2003" d="M869 356.75L852.333 353L844 386.25L860.919 390L869 356.75Z"></path>
		<path data-id="2004" d="M853 353.098L831.25 348L824 382.157L844.75 387L853 353.098Z"></path>
		<path data-id="2005" d="M831 348.076L805 342L805.505 378.203L823.68 382L831 348.076Z"></path>
		<path data-id="2006" d="M805.49 342.478L789.163 339L781 372.287L806 378L805.49 342.478Z"></path>
		<path data-id="1614" d="M789 338.812L768.675 334L760 368.188L781.068 373L789 338.812Z"></path>
		<path data-id="1615" d="M768 334.026L750.282 330L743 364.225L759.505 368L768 334.026Z"></path>
		<path data-id="1616" d="M750 330.228L734.86 327L723 359.034L742.43 364L750 330.228Z"></path>
		<path data-id="1617" d="M735 326.95L725.5 319L703 344.839L714.5 354.776L723.25 359L735 326.95Z"></path>
		<path data-id="1618" d="M726 318.653L712.909 307L690 333.853L703.343 345L726 318.653Z"></path>
		<path data-id="1619" d="M713 307.147L699.476 296L676 322.347L689.779 334L713 307.147Z"></path>
		<path data-id="1620" d="M699 296.531L686 286L663 311.224L676 322L699 296.531Z"></path>
		<path data-id="1621" d="M687 285.593L673.408 274L650 299.9L663.592 311L687 285.593Z"></path>
		<path data-id="1622" d="M673 273.576L659.25 262L636 288.424L649.5 300L673 273.576Z"></path>
		<path data-id="1623" d="M659 262.75L646.178 252L623 278L636.068 289L659 262.75Z"></path>
		<path data-id="1624" d="M646 251.653L632.531 240L610 266.6L622.98 278L646 251.653Z"></path>
		<path data-id="1625" d="M619.573 228.952L606.147 225L595 257.355L609.693 266L633 240.066L619.573 228.952Z"></path>
		<path data-id="1626" d="M606 224.353L589.899 219L579 252.392L595.101 258L606 224.353Z"></path>
		<path data-id="1627" d="M590 219.25L573.5 214L562 246.25L579 252L590 219.25Z"></path>
		<path data-id="1628" d="M573 214.391L556 209L545 240.364L561.5 246L573 214.391Z"></path>
		<path data-id="1629" d="M556 208.584L536.915 202L527 235.682L545.094 241L556 208.584Z"></path>
		<path data-id="1630" d="M537 202.448L514 200L510 233.287L527 235L537 202.448Z"></path>
		<path data-id="1631" d="M514 199.297L496.663 197L493 231.959L510.093 234L514 199.297Z"></path>
		<path data-id="1632" d="M496 197.281L474.676 195L471 229.973L492.324 232L496 197.281Z"></path>
		<path data-id="1633" d="M475 195.265L457.552 193L453 227.986L471.207 230L475 195.265Z"></path>
		<path data-id="1634" d="M457 193.014L440.373 191L437 226.238L452.663 228L457 193.014Z"></path>
		<path data-id="1636" d="M401.453 248L381 246L383 238L399.5 209L406 210L401.453 248Z"></path>
		<path data-id="1637" d="M375 266.968L380.858 246L402 248.526L399.453 270L375 266.968Z"></path>
		<path data-id="1638" d="M373.459 273.788L375.649 267L399 269.909L396.568 291L372 288.576L373.459 273.788Z"></path>
		<path data-id="1639" d="M369 311L371.973 289L397 291.5L394.522 313L369 311Z"></path>
		<path data-id="1640" d="M367 332.022L368.946 311L394 312.978L391.811 334L367 332.022Z"></path>
		<path data-id="1641" d="M364 356.681L366.947 332L392 334.267L388.07 366L364 356.681Z"></path>
		<path data-id="1642" d="M360 389.483L363.717 356L388 365.315L385.027 392L360 389.483Z"></path>
		<path data-id="1643" d="M357 419L360.193 390L385 392.5L382.053 419H357Z"></path>
		<path data-id="1644" d="M355 430.25L356.514 419H382.243L383 443.75L355.505 445L355 430.25Z"></path>
		<path data-id="1645" d="M382.772 444L356 445.237L356.737 467L384 465.763L382.772 444Z"></path>
		<path data-id="1646" d="M384.487 466L356 467.222L357.027 488L385 487.756L384.487 466Z"></path>
		<path data-id="1647" d="M384.973 488L357 488.244L357.77 509L386 508.512L384.973 488Z"></path>
		<path data-id="1648" d="M385.257 509L358 509.505L358.743 532L386 530.989L385.257 509Z"></path>
		<path data-id="1649" d="M386.257 531L359 531.978L359.991 553L387 552.267L386.257 531Z"></path>
		<path data-id="1650" d="M387.009 552L360 552.775L360.743 575L388 574.742L387.009 552Z"></path>
		<path data-id="1651" d="M388.5 574L361 574.25L361.5 596L389 594.75L388.5 574Z"></path>
		<path data-id="1652" d="M388.982 595L361 596.237L361.763 618L390 617.258L388.982 595Z"></path>
		<path data-id="1653" d="M389.263 618L362 618.733L362.982 640L390 639.511L389.263 618Z"></path>
		<path data-id="1654" d="M390.257 640L363 640.489L363.743 662L391 660.778L390.257 640Z"></path>
		<path data-id="1655" d="M391.018 661L364 662.468L364.737 684L392 682.287L391.018 661Z"></path>
		<path data-id="1656" d="M392.487 682L364 683.75L364.77 705L393 704L392.487 682Z"></path>
		<path data-id="1657" d="M392.982 704L365 705L366.018 727L394 725.75L392.982 704Z"></path>
		<path data-id="1658" d="M393.5 726L366 727.264L366.75 749L394 747.989L393.5 726Z"></path>
		<path data-id="1659" d="M395 770H367.496L367 748.978L394.009 748L395 770Z"></path>
		<path data-id="1663" d="M432 816L411 815.5V850.5L431 851L432 816Z"></path>
		<path data-id="1664" d="M453.5 817L432 816L431 851L452.5 852L453.5 817Z"></path>
		<path data-id="1665" d="M475 817.5L453.5 817L452.5 852L474 852.5L475 817.5Z"></path>
		<path data-id="1666" d="M493.5 818L475 817.5L474 852.5L492.5 853L493.5 818Z"></path>
		<path data-id="1667" d="M493.5 818L475 817.5L474 852.5L492.5 853L493.5 818Z"></path>
		<path data-id="1668" d="M511 818.5L493.5 818L492.5 853L510 853.5L511 818.5Z"></path>
		<path data-id="1669" d="M529 819L511 818.5L510 853.5L528 854L529 819Z"></path>
		<path data-id="1670" d="M548 819.5L529 819L528 854L547 854.5L548 819.5Z"></path>
		<path data-id="1671" d="M548 819.5L570 820.5L569 855.5L547 854.5L548 819.5Z"></path>
		<path data-id="1672" d="M570 820.5L592 821L591 856L569 855.5L570 820.5Z"></path>
		<path data-id="1673" d="M592 821L614 821.5L613 856.5L591 856L592 821Z"></path>
		<path data-id="1674" d="M614 821.5L639.5 822.5L638.5 857.5L613 856.5L614 821.5Z"></path>
		<path data-id="1675" d="M639.5 822.5L661 823L660 858L638.5 857.5L639.5 822.5Z"></path>
		<path data-id="1676" d="M661 823L683.5 823.5L681.5 859L660 858L661 823Z"></path>
		<path data-id="1677" d="M683.5 823.5L705 824L704.5 859.5L681.5 859L683.5 823.5Z"></path>
		<path data-id="1678" d="M705 824L730 825L729.5 860L704.5 859.5L705 824Z"></path>
		<path data-id="1679" d="M730 825L752.5 826L751.5 861L729.5 860L730 825Z"></path>
		<path data-id="1680" d="M752.5 826L774.5 826.5L774 861.5L751.5 861L752.5 826Z"></path>
		<path data-id="1681" d="M774.5 826.5L795 827L794.5 862L774 861.5L774.5 826.5Z"></path>
		<path data-id="1682" d="M794.5 862L795 827H810C810 827 812.442 827.455 813.5 828.5C814.432 829.42 815 831.5 815 831.5V862.5L794.5 862Z"></path>
		<path data-id="2007" d="M829.5 828L847 828.5L845.5 863.5L825.5 863V832.5C825.5 832.5 826.091 830.443 827 829.5C827.79 828.681 829.5 828 829.5 828Z"></path>
		<path data-id="2008" d="M847 828.5L866 829L863.5 864L845.5 863.5L847 828.5Z"></path>
		<path data-id="1683" d="M866 829L888.5 829.5L886.5 864.5L863.5 864L866 829Z"></path>
		<path data-id="1684" d="M888.5 829.5L910.5 830.5L907.5 865L886.5 864.5L888.5 829.5Z"></path>
		<path data-id="1685" d="M910.5 830.5L931.5 831L929 866L907.5 865L910.5 830.5Z"></path>
		<path data-id="1686" d="M931.5 831L953.5 832L951 866.5L929 866L931.5 831Z"></path>
		<path data-id="1687" d="M953.5 832L975 832.5L972.5 867L951 866.5L953.5 832Z"></path>
		<path data-id="1688" d="M1000.5 833L975 832.5L972.5 867L997.5 868L1000.5 833Z"></path>
		<path data-id="1689" d="M1029 838.5L1024 868H997.5L1000.5 833L1024 833.5C1024 833.5 1026.45 833.948 1027.5 835C1028.55 836.052 1029 838.5 1029 838.5Z"></path>
		<path data-id="1690" d="M923.122 369.737L908 349.784L935.724 322L939 327.304L928.415 371L923.122 369.737Z"></path>
		<path data-id="1691" d="M908.5 350L897 334.903L916.5 311L931.75 316.032L936 322.071L908.5 350Z"></path>
		<path data-id="1692" d="M897.333 335L852 277L884.63 293.5L920 304.25L916.762 311L897.333 335Z"></path>
		<path data-id="1693" d="M937 371.855L943.377 342L976 361.903L965.698 379L937 371.855Z"></path>
		<path data-id="1694" d="M943 342.61L948.5 318L984 351.062L976.25 362L943 342.61Z"></path>
		</svg>