<?xml version="1.0" encoding="UTF-8"?>
<svg id="_Слой_1" xmlns="http://www.w3.org/2000/svg" version="1.1" viewBox="0 0 1200 1200">
  <!-- Generator: Adobe Illustrator 29.4.0, SVG Export Plug-In . SVG Version: 2.1.0 Build 152)  -->
  <defs>
    <style>
      .st0 {
        fill: none;
        stroke: #3c3c3b;
        stroke-width: 1.3px;
      }

      .st1 {
        fill: #3c3c3b;
      }

      .st2 {
        fill: #b1dcde;
      }
    </style>
  </defs>
  <rect class="st2" x="131.8" y="301.56" width="962.95" height="497.84"/>
  <rect class="st1" x="1021.14" y="828.72" width="85.01" height="9.21"/>
  <rect class="st0" x="1021.14" y="828.72" width="85.01" height="9.21"/>
  <rect class="st0" x="801.66" y="828.72" width="231.81" height="9.21"/>
  <rect class="st1" x="1028.11" y="800.34" width="78.05" height="30.05"/>
  <rect class="st0" x="1028.11" y="800.34" width="78.05" height="30.05"/>
  <rect class="st1" x="749.33" y="828.72" width="97.45" height="9.21"/>
  <rect class="st0" x="749.33" y="828.72" width="97.45" height="9.21"/>
  <rect class="st1" x="749.33" y="800.34" width="89.47" height="30.05"/>
  <rect class="st0" x="749.33" y="800.34" width="89.47" height="30.05"/>
  <rect class="st0" x="815.45" y="800.34" width="218.01" height="28.37"/>
  <rect class="st1" x="683.71" y="828.72" width="97.45" height="9.21"/>
  <rect class="st0" x="683.71" y="828.72" width="97.45" height="9.21"/>
  <rect class="st0" x="575.95" y="828.72" width="133.37" height="9.21"/>
  <rect class="st1" x="691.69" y="800.34" width="89.47" height="30.05"/>
  <rect class="st0" x="691.69" y="800.34" width="89.47" height="30.05"/>
  <rect class="st1" x="425.19" y="828.72" width="97.45" height="9.21"/>
  <rect class="st0" x="425.19" y="828.72" width="97.45" height="9.21"/>
  <rect class="st1" x="425.19" y="800.34" width="89.47" height="30.05"/>
  <rect class="st0" x="425.19" y="800.34" width="89.47" height="30.05"/>
  <rect class="st0" x="583.94" y="800.34" width="125.38" height="28.37"/>
  <path class="st0" d="M583.29,827.93s-3.13-13.27-6.5-22.35c-3.37-9.08-7.45-14.07-7.45-14.07l-59.33,34.2,1.78,2.85,59.65-33.57"/>
  <rect class="st1" x="347.53" y="828.72" width="97.45" height="9.21"/>
  <rect class="st0" x="347.53" y="828.72" width="97.45" height="9.21"/>
  <rect class="st0" x="268.6" y="828.72" width="133.37" height="9.21"/>
  <rect class="st1" x="355.52" y="800.34" width="89.47" height="30.05"/>
  <rect class="st0" x="355.52" y="800.34" width="89.47" height="30.05"/>
  <rect class="st1" x="117.85" y="828.72" width="97.45" height="9.21"/>
  <rect class="st0" x="117.85" y="828.72" width="97.45" height="9.21"/>
  <rect class="st1" x="117.85" y="800.34" width="89.47" height="30.05"/>
  <rect class="st0" x="117.85" y="800.34" width="89.47" height="30.05"/>
  <rect class="st0" x="276.59" y="800.34" width="125.38" height="28.37"/>
  <path class="st0" d="M275.94,827.93s-3.13-13.27-6.5-22.35c-3.37-9.08-7.45-14.07-7.45-14.07l-59.33,34.2,1.78,2.85,59.65-33.57"/>
  <path class="st0" d="M395.32,292.14s0,11.57-5.1,25.98c-4.27,12.06-12.77,23.33-12.77,23.33l-86.82-49.9,1.78-2.85,86.99,49.91"/>
  <path class="st0" d="M286.17,489.69s4.29-.4,16.3,3.84c10.04,3.56,19.43,10.64,19.43,10.64l-28.69,49.37-2.37-1.48,28.7-49.51"/>
  <path class="st0" d="M286.17,411.88s4.29.4,16.3-3.84c10.04-3.56,19.43-10.64,19.43-10.64l-28.69-49.37-2.37,1.48,28.7,49.51"/>
  <path class="st0" d="M769.68,434.62s11.57,0,25.98-5.1c12.06-4.27,23.33-12.77,23.33-12.77l-44.48-76.5-2.85,1.78,44.49,76.67"/>
  <rect class="st1" x="1091.52" y="278.44" width="14.63" height="559.49"/>
  <rect class="st0" x="1091.52" y="278.44" width="14.63" height="559.49"/>
  <rect class="st1" x="759.92" y="433.19" width="21.28" height="496.97"/>
  <rect class="st0" x="759.92" y="433.19" width="21.28" height="496.97"/>
  <rect class="st1" x="759.92" y="291.64" width="21.28" height="65.38"/>
  <rect class="st0" x="759.92" y="291.64" width="21.28" height="65.38"/>
  <rect class="st1" x="112.53" y="278.44" width="199.93" height="22.76"/>
  <rect class="st0" x="112.53" y="278.44" width="199.93" height="22.76"/>
  <rect class="st1" x="394.6" y="278.44" width="711.56" height="22.76"/>
  <rect class="st0" x="394.6" y="278.44" width="51.06" height="22.76"/>
  <rect class="st1" x="187.02" y="290.76" width="108.09" height="10.44"/>
  <rect class="st0" x="187.02" y="290.76" width="108.09" height="10.44"/>
  <rect class="st1" x="112.53" y="278.44" width="17.24" height="700.5"/>
  <rect class="st0" x="112.53" y="278.44" width="17.24" height="700.5"/>
  <rect class="st1" x="439.28" y="278.44" width="14.63" height="74.12"/>
  <rect class="st0" x="439.28" y="278.44" width="14.63" height="74.12"/>
  <rect class="st1" x="439.28" y="437.22" width="14.63" height="381.65"/>
  <rect class="st0" x="439.28" y="437.22" width="14.63" height="381.65"/>
  <rect class="st1" x="439.28" y="897.73" width="14.63" height="81.21"/>
  <rect class="st0" x="439.28" y="897.73" width="14.63" height="81.21"/>
  <rect class="st1" x="439.28" y="286.57" width="661.42" height="14.63"/>
  <rect class="st0" x="439.28" y="286.57" width="661.42" height="14.63"/>
  <path class="st0" d="M324.04,546.6s-.48,5.15,4.62,19.56c4.27,12.06,12.77,23.33,12.77,23.33l59.25-34.44-1.78-2.85-59.42,34.45"/>
  <rect class="st1" x="396.54" y="547.54" width="51.88" height="9.98"/>
  <rect class="st0" x="396.54" y="547.54" width="51.88" height="9.98"/>
  <rect class="st1" x="125.44" y="547.46" width="198.99" height="9.98"/>
  <rect class="st0" x="125.44" y="547.46" width="198.99" height="9.98"/>
  <rect class="st1" x="286.4" y="411.92" width="9.98" height="79.89"/>
  <rect class="st0" x="286.4" y="411.92" width="9.98" height="79.89"/>
  <rect class="st1" x="286.4" y="293.35" width="9.98" height="60.36"/>
  <rect class="st0" x="286.4" y="293.35" width="9.98" height="60.36"/>
  <rect class="st1" x="123.67" y="458.12" width="166.78" height="9.98"/>
  <rect class="st0" x="123.67" y="458.12" width="166.78" height="9.98"/>
  <rect class="st0" x="117.84" y="963.49" width="322.24" height="9.21"/>
  <polygon class="st0" points="452.6 972.7 452.6 963.49 767.82 917.27 767.82 926.48 452.6 972.7"/>
  <rect class="st0" x="411.18" y="467.63" width="26.07" height="77.88"/>
  <line class="st0" x1="415.26" y1="467.81" x2="415.26" y2="545.94"/>
  <polyline class="st0" points="415.26 471.67 434.06 473.39 434.06 522.67 415.26 524.83 415.26 528.07 434.27 530.23 434.27 541.26 415.26 543.63"/>
  <rect class="st0" x="131.8" y="470.13" width="26.07" height="75.38"/>
  <line class="st0" x1="135.88" y1="470.27" x2="135.88" y2="545.96"/>
  <polyline class="st0" points="135.88 474.04 154.69 475.71 154.69 523.4 135.88 525.49 135.88 528.63 154.9 530.72 154.9 541.39 135.88 543.69"/>
  <path class="st1" d="M271.95,534.4v-2.76h-5.7c-.02-.09-.03-.23-.03-.42,0-.42.11-.85.34-1.31.22-.45.51-.88.86-1.3.35-.42.74-.87,1.17-1.33.43-.46.86-.96,1.28-1.49.43-.54.81-1.09,1.17-1.68.35-.58.64-1.25.87-2.01.22-.76.34-1.55.34-2.38,0-1.55-.39-2.75-1.15-3.58-.77-.84-1.88-1.26-3.35-1.26s-2.59.42-3.37,1.26c-.77.84-1.17,2.03-1.17,3.58v1.88h2.89v-2.07c0-1.27.52-1.9,1.57-1.9.52,0,.91.16,1.17.49.26.32.39.9.39,1.72,0,.75-.11,1.46-.33,2.12-.22.66-.5,1.24-.86,1.74-.35.5-.74.99-1.17,1.47-.43.48-.86.95-1.29,1.44-.43.48-.82.97-1.17,1.48-.36.5-.64,1.1-.87,1.78-.22.67-.33,1.4-.33,2.16v2.37h8.76ZM261.11,531.61h-3.03v2.78h3.03v-2.78ZM251.38,519.68v14.72h3.03v-19.29h-2.05c-.12.31-.22.57-.31.76-.09.19-.22.4-.4.64-.17.24-.37.42-.58.55-.22.13-.5.24-.85.34-.35.1-.75.14-1.2.14v2.14h2.35Z"/>
  <path class="st1" d="M268.9,496.89l-.03.17c-.12.67-.39,1.1-.81,1.32-.42.21-1.04.3-1.87.24v2.75c.81.05,1.53.02,2.14-.09.61-.11,1.13-.29,1.54-.54.42-.24.78-.58,1.08-1.02.3-.44.54-.91.72-1.43.18-.52.35-1.15.5-1.89l3.24-14.35h-3.02l-1.39,6.62-.71,4.46-.94-4.51-1.64-6.57h-3.03l4.21,14.84ZM256.74,501.34l7.6-19.29h-2.62l-7.6,19.29h2.62ZM245.36,500.3c.77.84,1.89,1.26,3.38,1.26s2.64-.42,3.45-1.26c.81-.84,1.22-2.03,1.22-3.59v-2.57h-3.03v2.75c0,1.26-.52,1.88-1.57,1.88s-1.58-.63-1.58-1.88v-10.41c0-1.27.53-1.9,1.58-1.9s1.57.63,1.57,1.9v2.07h3.03v-1.88c0-1.55-.41-2.75-1.22-3.59-.81-.84-1.96-1.26-3.45-1.26s-2.61.42-3.38,1.26c-.77.84-1.15,2.04-1.15,3.59v10.03c0,1.55.39,2.75,1.15,3.59"/>
  <path class="st1" d="M132.16,607.98h47.47v-48.06h-47.47v48.06ZM131.11,558.86h49.57v50.19h-49.57v-50.19Z"/>
  <path class="st0" d="M132.16,607.98h47.47v-48.06h-47.47v48.06ZM131.11,558.86h49.57v50.19h-49.57v-50.19Z"/>
  <g>
    <path class="st1" d="M175.3,567.13c0-1.19-.95-2.15-2.12-2.15h-24.92c-1.17,0-2.13.96-2.13,2.15v33.65c0,1.19.96,2.15,2.13,2.15h24.92c1.17,0,2.12-.96,2.12-2.15v-33.65ZM145.07,600.78v-33.65c0-1.77,1.43-3.21,3.18-3.21h24.92c1.75,0,3.17,1.44,3.17,3.21v33.65c0,1.77-1.42,3.21-3.17,3.21h-24.92c-1.75,0-3.18-1.44-3.18-3.21"/>
    <path class="st0" d="M175.3,567.13c0-1.19-.95-2.15-2.12-2.15h-24.92c-1.17,0-2.13.96-2.13,2.15v33.65c0,1.19.96,2.15,2.13,2.15h24.92c1.17,0,2.12-.96,2.12-2.15v-33.65ZM145.07,600.78v-33.65c0-1.77,1.43-3.21,3.18-3.21h24.92c1.75,0,3.17,1.44,3.17,3.21v33.65c0,1.77-1.42,3.21-3.17,3.21h-24.92c-1.75,0-3.18-1.44-3.18-3.21Z"/>
  </g>
  <path class="st1" d="M149.82,599.19h21.79v-30.47h-21.79v30.47ZM148.77,567.66h23.88v32.6h-23.88v-32.6Z"/>
  <path class="st0" d="M149.82,599.19h21.79v-30.47h-21.79v30.47ZM148.77,567.66h23.88v32.6h-23.88v-32.6Z"/>
  <g>
    <path class="st1" d="M164.92,583.95c0-1.53-1.23-2.77-2.73-2.77s-2.73,1.24-2.73,2.77,1.22,2.77,2.73,2.77,2.73-1.24,2.73-2.77M158.42,583.95c0-2.11,1.69-3.82,3.77-3.82s3.77,1.71,3.77,3.82-1.69,3.82-3.77,3.82-3.77-1.71-3.77-3.82"/>
    <path class="st0" d="M164.92,583.95c0-1.53-1.23-2.77-2.73-2.77s-2.73,1.24-2.73,2.77,1.22,2.77,2.73,2.77,2.73-1.24,2.73-2.77ZM158.42,583.95c0-2.11,1.69-3.82,3.77-3.82s3.77,1.71,3.77,3.82-1.69,3.82-3.77,3.82-3.77-1.71-3.77-3.82Z"/>
  </g>
  <path class="st0" d="M163.37,427.39c1.35,0,2.43-1.09,2.43-2.44s-1.09-2.44-2.43-2.44-2.43,1.1-2.43,2.44,1.09,2.44,2.43,2.44Z"/>
  <path class="st0" d="M152.21,308.56h22.31c8.89,0,16.11,7.22,16.11,16.11v109.99c0,8.89-7.21,16.1-16.1,16.1h-22.32c-8.89,0-16.1-7.21-16.1-16.1v-109.99c0-8.89,7.21-16.1,16.1-16.1Z"/>
  <rect class="st0" x="141.21" y="318.44" width="44.33" height="122.44" rx="16.1" ry="16.1"/>
  <path class="st0" d="M154.16,330.36h18.43c4.45,0,8.05,3.61,8.05,8.05v88.96c0,4.44-3.61,8.05-8.05,8.05h-18.43c-4.44,0-8.05-3.61-8.05-8.05v-88.97c0-4.44,3.61-8.05,8.05-8.05Z"/>
  <polygon class="st0" points="195.19 456.33 195.19 456.33 195.19 302.99 131.56 302.99 131.56 456.33 195.19 456.33"/>
  <g>
    <path class="st1" d="M237.12,506.57c0,9.75-7.94,17.69-17.7,17.69h-25.63c-1.68,0-3.05-1.37-3.05-3.05v-29.29c0-1.68,1.37-3.06,3.05-3.06h25.63c9.76,0,17.7,7.94,17.7,17.7M189.52,491.93v29.29c0,2.35,1.92,4.27,4.27,4.27h25.63c10.43,0,18.92-8.48,18.92-18.91s-8.49-18.91-18.92-18.91h-25.63c-2.35,0-4.27,1.92-4.27,4.27"/>
    <path class="st0" d="M237.12,506.57c0,9.75-7.94,17.69-17.7,17.69h-25.63c-1.68,0-3.05-1.37-3.05-3.05v-29.29c0-1.68,1.37-3.06,3.05-3.06h25.63c9.76,0,17.7,7.94,17.7,17.7ZM189.52,491.93v29.29c0,2.35,1.92,4.27,4.27,4.27h25.63c10.43,0,18.92-8.48,18.92-18.91s-8.49-18.91-18.92-18.91h-25.63c-2.35,0-4.27,1.92-4.27,4.27Z"/>
    <path class="st0" d="M199.29,519.26v-25.37c0-.17.15-.31.31-.31h19.32c7.14,0,12.99,5.85,12.99,13s-5.85,12.99-12.99,12.99h-19.32c-.16,0-.31-.14-.31-.3Z"/>
    <path class="st1" d="M199.9,518.95v-24.77h19.01c6.83,0,12.39,5.56,12.39,12.39s-5.56,12.38-12.39,12.38h-19.01ZM198.68,493.89v25.37c0,.49.42.91.91.91h19.32c7.5,0,13.6-6.1,13.6-13.6s-6.1-13.6-13.6-13.6h-19.32c-.49,0-.91.42-.91.92"/>
    <path class="st0" d="M199.9,518.95v-24.77h19.01c6.83,0,12.39,5.56,12.39,12.39s-5.56,12.38-12.39,12.38h-19.01ZM198.68,493.89v25.37c0,.49.42.91.91.91h19.32c7.5,0,13.6-6.1,13.6-13.6s-6.1-13.6-13.6-13.6h-19.32c-.49,0-.91.42-.91.92Z"/>
    <path class="st1" d="M218.94,506.57c0,1.84-1.5,3.34-3.34,3.34s-3.34-1.5-3.34-3.34,1.5-3.35,3.34-3.35,3.34,1.5,3.34,3.35M211.03,506.57c0,2.51,2.05,4.56,4.56,4.56s4.56-2.05,4.56-4.56-2.04-4.56-4.56-4.56-4.56,2.04-4.56,4.56"/>
    <path class="st0" d="M218.94,506.57c0,1.84-1.5,3.34-3.34,3.34s-3.34-1.5-3.34-3.34,1.5-3.35,3.34-3.35,3.34,1.5,3.34,3.35ZM211.03,506.57c0,2.51,2.05,4.56,4.56,4.56s4.56-2.05,4.56-4.56-2.04-4.56-4.56-4.56-4.56,2.04-4.56,4.56Z"/>
  </g>
  <rect class="st1" x="201.09" y="513.3" width="10.14" height="1.21" transform="translate(-266.43 225.36) rotate(-36.73)"/>
  <rect class="st0" x="201.09" y="513.3" width="10.14" height="1.21" transform="translate(-266.43 225.36) rotate(-36.73)"/>
  <rect class="st1" x="205.56" y="494.36" width="1.22" height="10.15" transform="translate(-317.22 365.24) rotate(-53.19)"/>
  <rect class="st0" x="205.56" y="494.36" width="1.22" height="10.15" transform="translate(-317.22 365.24) rotate(-53.19)"/>
  <path class="st1" d="M189.46,518.78c0,2.7-2.2,4.9-4.9,4.9h-6.67c-2.7,0-4.9-2.2-4.9-4.9v-24.43c0-2.7,2.2-4.9,4.9-4.9h6.67c2.7,0,4.9,2.2,4.9,4.9v24.43ZM171.77,494.35v24.43c0,3.37,2.75,6.12,6.12,6.12h6.67c3.38,0,6.12-2.75,6.12-6.12v-24.43c0-3.37-2.74-6.12-6.12-6.12h-6.67c-3.38,0-6.12,2.75-6.12,6.12"/>
  <path class="st0" d="M189.46,518.78c0,2.7-2.2,4.9-4.9,4.9h-6.67c-2.7,0-4.9-2.2-4.9-4.9v-24.43c0-2.7,2.2-4.9,4.9-4.9h6.67c2.7,0,4.9,2.2,4.9,4.9v24.43ZM171.77,494.35v24.43c0,3.37,2.75,6.12,6.12,6.12h6.67c3.38,0,6.12-2.75,6.12-6.12v-24.43c0-3.37-2.74-6.12-6.12-6.12h-6.67c-3.38,0-6.12,2.75-6.12,6.12Z"/>
  <path class="st1" d="M183.12,506.57c0,1.05-.85,1.89-1.9,1.89s-1.89-.85-1.89-1.89.85-1.9,1.89-1.9,1.9.85,1.9,1.9M178.11,506.57c0,1.72,1.39,3.11,3.11,3.11s3.11-1.39,3.11-3.11-1.4-3.11-3.11-3.11-3.11,1.39-3.11,3.11"/>
  <path class="st0" d="M183.12,506.57c0,1.05-.85,1.89-1.9,1.89s-1.89-.85-1.89-1.89.85-1.9,1.89-1.9,1.9.85,1.9,1.9ZM178.11,506.57c0,1.72,1.39,3.11,3.11,3.11s3.11-1.39,3.11-3.11-1.4-3.11-3.11-3.11-3.11,1.39-3.11,3.11Z"/>
  <path class="st1" d="M227.02,419.86c8.91,0,16.16,7.25,16.16,16.17v17.16c0,1.35-1.1,2.45-2.46,2.45h-36.54c-1.35,0-2.45-1.1-2.45-2.45v-17.16c0-8.92,7.25-16.17,16.17-16.17h9.12ZM204.18,456.55h36.54c1.86,0,3.37-1.51,3.37-3.36v-17.16c0-9.42-7.66-17.08-17.08-17.08h-9.12c-9.42,0-17.08,7.66-17.08,17.08v17.16c0,1.86,1.51,3.36,3.36,3.36"/>
  <path class="st0" d="M227.02,419.86c8.91,0,16.16,7.25,16.16,16.17v17.16c0,1.35-1.1,2.45-2.46,2.45h-36.54c-1.35,0-2.45-1.1-2.45-2.45v-17.16c0-8.92,7.25-16.17,16.17-16.17h9.12ZM204.18,456.55h36.54c1.86,0,3.37-1.51,3.37-3.36v-17.16c0-9.42-7.66-17.08-17.08-17.08h-9.12c-9.42,0-17.08,7.66-17.08,17.08v17.16c0,1.86,1.51,3.36,3.36,3.36Z"/>
  <path class="st1" d="M227.02,423.91c6.68,0,12.11,5.44,12.11,12.12v10.01c0,1.16-.95,2.12-2.11,2.12h-29.13c-1.16,0-2.11-.95-2.11-2.12v-10.01c0-6.68,5.43-12.12,12.12-12.12h9.12ZM207.89,449.07h29.13c1.67,0,3.02-1.36,3.02-3.03v-10.01c0-7.19-5.84-13.04-13.03-13.04h-9.12c-7.19,0-13.03,5.85-13.03,13.04v10.01c0,1.67,1.36,3.03,3.03,3.03"/>
  <path class="st0" d="M227.02,423.91c6.68,0,12.11,5.44,12.11,12.12v10.01c0,1.16-.95,2.12-2.11,2.12h-29.13c-1.16,0-2.11-.95-2.11-2.12v-10.01c0-6.68,5.43-12.12,12.12-12.12h9.12ZM207.89,449.07h29.13c1.67,0,3.02-1.36,3.02-3.03v-10.01c0-7.19-5.84-13.04-13.03-13.04h-9.12c-7.19,0-13.03,5.85-13.03,13.04v10.01c0,1.67,1.36,3.03,3.03,3.03Z"/>
  <path class="st1" d="M222.45,432.39c1.12,0,2.02.91,2.02,2.03s-.91,2.02-2.02,2.02-2.02-.91-2.02-2.02.91-2.03,2.02-2.03M222.45,437.36c1.62,0,2.94-1.32,2.94-2.94s-1.32-2.94-2.94-2.94-2.94,1.32-2.94,2.94,1.32,2.94,2.94,2.94"/>
  <path class="st0" d="M222.45,432.39c1.12,0,2.02.91,2.02,2.03s-.91,2.02-2.02,2.02-2.02-.91-2.02-2.02.91-2.03,2.02-2.03ZM222.45,437.36c1.62,0,2.94-1.32,2.94-2.94s-1.32-2.94-2.94-2.94-2.94,1.32-2.94,2.94,1.32,2.94,2.94,2.94Z"/>
  <rect class="st0" x="201.5" y="302.95" width="56.19" height="55.98"/>
  <line class="st0" x1="256.92" y1="302.8" x2="201.69" y2="358.7"/>
  <line class="st0" x1="201.05" y1="302.8" x2="256.28" y2="358.7"/>
  <path class="st1" d="M290.5,721.57c1.08,1.12,2.61,1.67,4.57,1.67s3.46-.56,4.48-1.67c1.02-1.12,1.53-2.71,1.53-4.77v-2.03c0-2.78-.94-4.58-2.81-5.39,1.88-.78,2.81-2.54,2.81-5.28v-.66c0-2.06-.51-3.66-1.53-4.77-1.02-1.12-2.52-1.68-4.48-1.68s-3.49.56-4.57,1.68c-1.08,1.12-1.63,2.71-1.63,4.77v1.4h4.03v-1.65c0-1.68.69-2.53,2.07-2.53.69,0,1.21.22,1.56.65.35.43.52,1.19.52,2.29v1.44c0,.98-.2,1.67-.61,2.09-.41.41-1.01.62-1.81.62h-1.58v3.67h1.36c.93,0,1.6.25,2.01.75.41.5.62,1.34.62,2.51v2.03c0,1.07-.17,1.82-.52,2.26-.35.43-.87.64-1.56.64-1.38,0-2.07-.85-2.07-2.54v-2.38h-4.03v2.13c0,2.06.54,3.65,1.63,4.77M286.32,719.25h-4.03v3.71h4.03v-3.71ZM271.38,703.19c0-1.66.7-2.49,2.09-2.49s2.1.83,2.1,2.49v4.62c0,1.68-.7,2.53-2.1,2.53s-2.09-.84-2.09-2.53v-4.62ZM268.47,712.5c.75,1,1.86,1.51,3.34,1.51,1.79,0,3.04-.76,3.76-2.28v4.69c0,1.17-.18,1.99-.56,2.46-.37.47-.94.71-1.69.71-1.4,0-2.11-.85-2.11-2.54v-.91h-3.8v.66c0,2.06.51,3.65,1.54,4.77,1.03,1.12,2.51,1.67,4.47,1.67,4.11,0,6.17-2.22,6.17-6.66v-13.15c0-2.05-.53-3.64-1.59-4.76-1.06-1.12-2.57-1.69-4.55-1.69s-3.49.56-4.54,1.69c-1.05,1.12-1.58,2.71-1.58,4.76v4.71c0,1.9.37,3.35,1.12,4.35"/>
  <path class="st1" d="M312.87,659.59c0-.92.16-1.59.49-2.02.33-.42.85-.64,1.57-.64h1.94v7.9h-1.58c-.8,0-1.4-.21-1.81-.62-.41-.41-.61-1.11-.61-2.1v-2.52ZM312.45,678.94c.1-.3.16-.52.2-.67.03-.15.07-.44.11-.86.04-.42.06-.96.06-1.62v-4.03c0-1.18.21-2.02.63-2.52.42-.5,1.08-.75,2.01-.75h1.4v10.46h4.03v-25.68h-6.09c-2.06,0-3.58.48-4.53,1.45-.96.97-1.44,2.45-1.44,4.46v2.02c0,2.65.88,4.39,2.63,5.21-.97.41-1.65,1.06-2.06,1.97-.4.91-.61,2.07-.61,3.49v3.96c0,1.38-.13,2.42-.38,3.11h4.03ZM297.46,678.94v-11h4.59v11h4.03v-25.68h-4.03v11.01h-4.59v-11.01h-4.03v25.68h4.03ZM280.79,678.94l3.14-9.55,3.1,9.55h4.03l-4.49-13.08,4.22-12.6h-3.54l-3.1,9.52-3.06-9.52h-4.03l4.23,12.44-4.51,13.24h4.03ZM267.14,673.02l-.03.23c-.16.88-.51,1.47-1.08,1.75-.56.29-1.39.39-2.49.32v3.65c1.08.07,2.03.03,2.84-.11.81-.15,1.5-.39,2.06-.71.56-.32,1.04-.78,1.44-1.36.4-.58.72-1.22.96-1.91.25-.69.47-1.53.67-2.51l4.31-19.11h-4.03l-1.85,8.81-.95,5.94-1.25-6-2.18-8.75h-4.03l5.6,19.76ZM251.58,678.94v-7.88l1.25-2.35,3.92,10.23h4.14l-5.61-14.24,5.61-11.44h-4.03l-5.28,11.19v-11.19h-4.03v25.68h4.03Z"/>
  <path class="st1" d="M950.03,654.47c0-1.68.7-2.52,2.11-2.52s2.09.84,2.09,2.52v13.86c0,1.7-.7,2.54-2.09,2.54s-2.11-.85-2.11-2.54v-13.86ZM947.59,672.85c1.06,1.12,2.57,1.68,4.55,1.68s3.49-.56,4.54-1.68c1.05-1.12,1.58-2.71,1.58-4.77v-13.36c0-2.05-.52-3.64-1.58-4.77-1.05-1.12-2.57-1.68-4.54-1.68s-3.49.56-4.55,1.68c-1.06,1.12-1.59,2.71-1.59,4.77v13.36c0,2.05.53,3.64,1.59,4.77M943.57,670.54h-4.03v3.71h4.03v-3.71ZM928.63,654.47c0-1.66.7-2.49,2.09-2.49s2.1.83,2.1,2.49v4.62c0,1.68-.7,2.52-2.1,2.52s-2.09-.84-2.09-2.52v-4.62ZM925.73,663.79c.75,1,1.86,1.5,3.34,1.5,1.79,0,3.04-.76,3.76-2.27v4.69c0,1.17-.18,1.99-.56,2.46-.37.47-.94.71-1.69.71-1.4,0-2.1-.85-2.1-2.54v-.91h-3.8v.66c0,2.06.51,3.66,1.54,4.77,1.03,1.12,2.52,1.68,4.47,1.68,4.12,0,6.17-2.22,6.17-6.66v-13.14c0-2.05-.53-3.64-1.59-4.77-1.06-1.12-2.57-1.68-4.55-1.68s-3.49.56-4.54,1.68c-1.05,1.12-1.58,2.71-1.58,4.77v4.71c0,1.9.38,3.35,1.13,4.35M916.09,654.65v19.59h4.03v-25.68h-2.72c-.16.42-.29.76-.41,1.01-.12.26-.3.55-.53.86-.23.32-.49.56-.78.73-.29.17-.66.32-1.13.45-.47.13-1,.19-1.6.19v2.85h3.14Z"/>
  <path class="st1" d="M1025.74,609.16l1.95,12.93h-3.89l1.94-12.93ZM1022.58,630.23l.7-4.66h4.94l.7,4.66h4.03l-4.09-25.68h-6.23l-4.08,25.68h4.03ZM1009.59,608.22v22.01h4.03v-22.01h4.23v-3.67h-12.48v3.67h4.22ZM997.76,609.16l1.95,12.93h-3.89l1.94-12.93ZM994.6,630.23l.7-4.66h4.94l.7,4.66h4.03l-4.09-25.68h-6.22l-4.09,25.68h4.03ZM980,630.23v-11h4.59v11h4.03v-25.68h-4.03v11.01h-4.59v-11.01h-4.03v25.68h4.03ZM959.62,630.23v-18.12l3.01,18.12h3.82l2.79-18.41v18.41h4.03v-25.68h-5.81l-2.77,18.29-2.99-18.29h-5.6v25.68h3.51ZM945.31,610.46c0-1.68.7-2.52,2.11-2.52s2.09.84,2.09,2.52v13.86c0,1.7-.7,2.54-2.09,2.54s-2.11-.84-2.11-2.54v-13.86ZM942.87,628.83c1.06,1.12,2.57,1.68,4.55,1.68s3.49-.56,4.54-1.68c1.05-1.12,1.58-2.71,1.58-4.76v-13.36c0-2.05-.52-3.64-1.58-4.76-1.05-1.12-2.57-1.69-4.54-1.69s-3.49.56-4.55,1.69c-1.06,1.12-1.59,2.71-1.59,4.76v13.36c0,2.05.53,3.64,1.59,4.76M930.48,630.23v-7.88l1.25-2.35,3.92,10.23h4.14l-5.61-14.24,5.61-11.44h-4.03l-5.28,11.19v-11.19h-4.03v25.68h4.03ZM909.82,610.87c0-.92.16-1.59.49-2.02.33-.42.85-.64,1.56-.64h1.94v7.9h-1.58c-.8,0-1.4-.21-1.81-.62-.41-.41-.61-1.11-.61-2.1v-2.52ZM909.4,630.23c.1-.3.16-.52.2-.67s.07-.44.11-.86c.04-.42.07-.96.07-1.62v-4.03c0-1.18.21-2.02.63-2.52.42-.5,1.08-.75,2.01-.75h1.4v10.46h4.03v-25.68h-6.09c-2.06,0-3.58.48-4.53,1.45-.96.97-1.43,2.45-1.43,4.46v2.02c0,2.65.88,4.39,2.63,5.21-.97.41-1.65,1.06-2.06,1.97-.4.91-.61,2.07-.61,3.49v3.96c0,1.38-.13,2.42-.38,3.11h4.03ZM897.25,609.16l1.95,12.93h-3.89l1.94-12.93ZM894.09,630.23l.7-4.66h4.94l.7,4.66h4.03l-4.08-25.68h-6.23l-4.09,25.68h4.03ZM874.14,630.27c2.02,0,3.48-.5,4.4-1.5.91-1,1.4-2.68,1.48-5.02l.44-15.53h3.49v22.01h4.03v-25.68h-11.55l-.45,19.41c-.02.6-.08,1.07-.16,1.41-.08.34-.23.61-.44.8-.21.18-.46.3-.72.35-.27.05-.65.07-1.15.07v3.67h.63ZM863.11,630.23l3.4-11.76,1.63-6.29v18.05h4.03v-25.68h-4.84l-3.3,10.6-1.47,5.66v-16.26h-3.6v25.68h4.14ZM839.68,630.23l3.68-11.44.99,1.99v9.45h4.03v-9.41l1.01-1.95,3.67,11.36h4.03l-4.95-15.2,4.95-10.48h-3.92l-4.78,10.39v-10.39h-4.03v10.39l-4.78-10.39h-3.92l5.01,10.53-5.01,15.15h4.03Z"/>
  <path class="st1" d="M621.22,392.37v19.6h4.03v-25.68h-2.72c-.16.42-.29.75-.41,1.01-.12.26-.3.54-.53.86-.23.32-.49.56-.78.73-.29.17-.66.32-1.13.45-.47.13-1,.19-1.6.19v2.85h3.14ZM612.84,408.26h-4.03v3.71h4.03v-3.71ZM598.07,401.43c0-1.68.7-2.52,2.1-2.52s2.08.84,2.08,2.52v4.62c0,1.67-.7,2.51-2.08,2.51s-2.1-.83-2.1-2.51v-4.62ZM595.62,410.57c1.06,1.12,2.57,1.68,4.54,1.68s3.48-.56,4.53-1.68c1.05-1.12,1.58-2.71,1.58-4.76v-4.69c0-1.91-.38-3.37-1.12-4.37-.75-1-1.86-1.51-3.34-1.51-1.78,0-3.03.76-3.74,2.27v-4.69c0-1.17.18-1.99.55-2.45.36-.47.93-.7,1.69-.7,1.4,0,2.1.84,2.1,2.53v.91h3.8v-.66c0-2.06-.51-3.66-1.53-4.77-1.03-1.12-2.51-1.68-4.47-1.68-4.11,0-6.16,2.23-6.16,6.68v13.13c0,2.05.53,3.64,1.59,4.76"/>
  <path class="st1" d="M655.13,345.94h1.92c.67,0,1.16.18,1.49.55s.48.99.48,1.87v3.85c0,.88-.16,1.51-.48,1.88-.32.37-.82.56-1.49.56h-1.92v-8.7ZM655.13,367.95v-9.65h1.91c1.99,0,3.49-.54,4.49-1.62,1.01-1.08,1.51-2.66,1.51-4.72v-3.33c0-2.06-.5-3.64-1.51-4.73-1.01-1.09-2.51-1.63-4.5-1.63h-5.94v25.68h4.03ZM640.26,348.18c0-1.68.7-2.52,2.1-2.52s2.09.84,2.09,2.52v13.86c0,1.7-.7,2.54-2.09,2.54s-2.1-.84-2.1-2.54v-13.86ZM637.82,366.55c1.06,1.12,2.58,1.68,4.55,1.68s3.49-.56,4.54-1.68c1.05-1.12,1.58-2.71,1.58-4.76v-13.36c0-2.05-.53-3.64-1.58-4.76-1.05-1.12-2.57-1.69-4.54-1.69s-3.49.56-4.55,1.69c-1.06,1.12-1.59,2.71-1.59,4.76v13.36c0,2.05.53,3.64,1.59,4.76M624.05,363.06c.18-.49.3-1.21.35-2.15l.73-14.96h3.4v18.36h-5.28c.35-.33.62-.75.8-1.24M621.75,371.35v-3.4h8.54v3.4h4.03v-7.06h-1.76v-22.03h-11.46l-.73,18.71c-.04.79-.13,1.43-.28,1.94-.15.5-.4.97-.74,1.38h-1.63v7.06h4.03ZM607.17,367.95l3.4-11.76,1.63-6.29v18.05h4.03v-25.68h-4.84l-3.3,10.6-1.47,5.66v-16.26h-3.6v25.68h4.14ZM593.23,345.94h1.92c.67,0,1.16.18,1.48.55.32.37.48.99.48,1.87v3.85c0,.88-.16,1.51-.48,1.88-.32.37-.82.56-1.48.56h-1.92v-8.7ZM593.23,367.95v-9.65h1.91c1.99,0,3.49-.54,4.49-1.62,1.01-1.08,1.51-2.66,1.51-4.72v-3.33c0-2.06-.5-3.64-1.51-4.73-1.01-1.09-2.51-1.63-4.5-1.63h-5.94v25.68h4.03ZM578.37,348.18c0-1.68.7-2.52,2.1-2.52s2.09.84,2.09,2.52v13.86c0,1.7-.7,2.54-2.09,2.54s-2.1-.84-2.1-2.54v-13.86ZM575.92,366.55c1.06,1.12,2.58,1.68,4.55,1.68s3.49-.56,4.54-1.68c1.05-1.12,1.58-2.71,1.58-4.76v-13.36c0-2.05-.53-3.64-1.58-4.76-1.05-1.12-2.57-1.69-4.54-1.69s-3.49.56-4.55,1.69c-1.06,1.12-1.59,2.71-1.59,4.76v13.36c0,2.05.53,3.64,1.59,4.76M563.54,367.95v-7.88l1.25-2.35,3.92,10.23h4.14l-5.6-14.24,5.6-11.44h-4.03l-5.28,11.19v-11.19h-4.03v25.68h4.03Z"/>
  <path class="st1" d="M628.44,651.77l-5.91,22.01h4.03l5.95-22.15v-3.53h-12.09v3.67h8.02ZM617.89,670.08h-4.03v3.71h4.03v-3.71ZM610.99,673.78v-3.67h-7.6c-.02-.12-.03-.3-.03-.55,0-.56.15-1.14.44-1.74.3-.6.68-1.17,1.15-1.74.47-.56.99-1.15,1.56-1.76.57-.62,1.14-1.28,1.7-1.99.56-.71,1.08-1.45,1.55-2.23.47-.78.85-1.67,1.15-2.68.3-1.01.44-2.06.44-3.16,0-2.07-.51-3.66-1.53-4.77-1.02-1.12-2.51-1.68-4.46-1.68s-3.45.56-4.48,1.68c-1.04,1.12-1.55,2.7-1.55,4.77v2.51h3.85v-2.76c0-1.68.7-2.52,2.09-2.52.69,0,1.21.22,1.55.65.34.43.52,1.19.52,2.29,0,1-.15,1.94-.44,2.82-.29.88-.67,1.65-1.14,2.32-.47.67-.99,1.32-1.56,1.95-.57.63-1.14,1.27-1.71,1.91-.57.64-1.09,1.3-1.56,1.97-.47.67-.86,1.46-1.15,2.36-.3.9-.44,1.86-.44,2.87v3.15h11.66ZM590.41,654.19v19.59h4.03v-25.68h-2.72c-.16.42-.29.76-.41,1.01-.12.26-.3.55-.53.86-.23.32-.49.56-.78.73-.29.17-.66.32-1.13.45-.47.13-1,.19-1.6.19v2.85h3.14Z"/>
  <path class="st1" d="M700.06,608.69l1.95,12.93h-3.89l1.94-12.93ZM696.9,629.77l.7-4.66h4.94l.7,4.66h4.03l-4.09-25.68h-6.23l-4.08,25.68h4.03ZM683.91,607.76v22.01h4.03v-22.01h4.23v-3.67h-12.48v3.67h4.22ZM672.08,608.69l1.95,12.93h-3.89l1.94-12.93ZM668.92,629.77l.7-4.66h4.94l.7,4.66h4.03l-4.09-25.68h-6.22l-4.09,25.68h4.03ZM654.33,629.77v-11h4.59v11h4.03v-25.68h-4.03v11.01h-4.59v-11.01h-4.03v25.68h4.03ZM633.94,629.77v-18.12l3.01,18.12h3.82l2.79-18.41v18.41h4.03v-25.68h-5.81l-2.77,18.29-2.99-18.29h-5.6v25.68h3.51ZM619.63,610c0-1.68.7-2.52,2.11-2.52s2.09.84,2.09,2.52v13.86c0,1.7-.7,2.54-2.09,2.54s-2.11-.84-2.11-2.54v-13.86ZM617.19,628.37c1.06,1.12,2.57,1.68,4.55,1.68s3.49-.56,4.54-1.68c1.05-1.12,1.58-2.71,1.58-4.76v-13.36c0-2.05-.52-3.64-1.58-4.76-1.05-1.12-2.57-1.69-4.54-1.69s-3.49.56-4.55,1.69c-1.06,1.12-1.59,2.71-1.59,4.76v13.36c0,2.05.53,3.64,1.59,4.76M604.8,629.77v-7.88l1.25-2.35,3.92,10.23h4.14l-5.61-14.24,5.61-11.44h-4.03l-5.28,11.19v-11.19h-4.03v25.68h4.03ZM584.14,610.41c0-.92.16-1.59.49-2.02.33-.42.85-.64,1.56-.64h1.94v7.9h-1.58c-.8,0-1.4-.21-1.81-.62-.41-.41-.61-1.11-.61-2.1v-2.52ZM583.72,629.77c.1-.3.16-.52.2-.67s.07-.44.11-.86c.04-.42.06-.96.06-1.62v-4.03c0-1.18.21-2.02.63-2.52.42-.5,1.08-.75,2.01-.75h1.4v10.46h4.03v-25.68h-6.09c-2.06,0-3.58.48-4.53,1.45-.96.97-1.43,2.45-1.43,4.46v2.02c0,2.65.88,4.39,2.63,5.21-.97.41-1.65,1.06-2.06,1.97-.4.91-.61,2.07-.61,3.49v3.96c0,1.38-.13,2.42-.38,3.11h4.03ZM571.57,608.69l1.95,12.93h-3.89l1.94-12.93ZM568.41,629.77l.7-4.66h4.94l.7,4.66h4.03l-4.08-25.68h-6.23l-4.09,25.68h4.03ZM548.46,629.81c2.02,0,3.48-.5,4.4-1.5.91-1,1.4-2.68,1.48-5.02l.44-15.53h3.49v22.01h4.03v-25.68h-11.55l-.45,19.41c-.02.6-.08,1.07-.16,1.41-.08.34-.23.61-.44.8-.21.18-.46.3-.72.35-.27.05-.65.07-1.15.07v3.67h.63ZM537.43,629.77l3.4-11.76,1.63-6.29v18.05h4.03v-25.68h-4.84l-3.3,10.6-1.47,5.66v-16.26h-3.6v25.68h4.14ZM514,629.77l3.68-11.44.99,1.99v9.45h4.03v-9.41l1.01-1.95,3.67,11.36h4.03l-4.95-15.2,4.95-10.48h-3.92l-4.78,10.39v-10.39h-4.03v10.39l-4.78-10.39h-3.92l5.01,10.53-5.01,15.15h4.03Z"/>
  <path class="st1" d="M375.29,479.7v-2.94h-6.07c-.02-.1-.03-.25-.03-.45,0-.45.12-.91.36-1.39.24-.48.55-.94.92-1.39.38-.45.79-.92,1.25-1.41.46-.49.91-1.02,1.36-1.59.45-.57.87-1.16,1.24-1.78.38-.62.68-1.33.92-2.14.24-.81.36-1.65.36-2.53,0-1.65-.41-2.93-1.22-3.82-.82-.89-2.01-1.34-3.57-1.34s-2.76.45-3.59,1.34c-.83.89-1.24,2.17-1.24,3.82v2.01h3.08v-2.21c0-1.35.56-2.02,1.67-2.02.55,0,.96.17,1.24.51.28.35.42.95.42,1.84,0,.8-.12,1.55-.35,2.26-.23.7-.54,1.32-.91,1.85-.38.54-.79,1.06-1.25,1.56-.45.51-.91,1.02-1.37,1.53-.45.51-.87,1.04-1.25,1.58-.38.54-.69,1.17-.92,1.9-.24.72-.35,1.49-.35,2.3v2.52h9.33ZM363.74,476.73h-3.23v2.97h3.23v-2.97ZM354.36,465.31v7.72h-3.25l3.25-7.72ZM354.36,475.97v3.73h3.23v-3.73h1.47v-2.94h-1.47v-13.88h-3.53l-5.86,13.88v2.94h6.16Z"/>
  <path class="st1" d="M405.36,428.99c0-.73.13-1.27.39-1.61.26-.34.68-.51,1.26-.51h1.54v6.32h-1.26c-.64,0-1.12-.16-1.45-.5-.32-.33-.49-.89-.49-1.68v-2.02ZM405.03,444.48c.07-.24.13-.42.16-.54.03-.12.06-.35.09-.69.03-.34.05-.77.05-1.3v-3.23c0-.95.17-1.62.5-2.02.33-.4.87-.6,1.6-.6h1.12v8.37h3.23v-20.55h-4.87c-1.65,0-2.86.39-3.62,1.16-.76.77-1.15,1.97-1.15,3.57v1.62c0,2.12.7,3.51,2.11,4.17-.77.32-1.33.85-1.65,1.58-.32.73-.49,1.66-.49,2.8v3.17c0,1.11-.1,1.94-.3,2.49h3.23ZM395.31,427.62l1.56,10.34h-3.11l1.55-10.34ZM392.78,444.48l.56-3.73h3.95l.56,3.73h3.23l-3.27-20.55h-4.98l-3.27,20.55h3.23ZM374.97,444.48l2.95-9.15.79,1.59v7.56h3.23v-7.53l.81-1.56,2.93,9.09h3.22l-3.96-12.17,3.96-8.38h-3.14l-3.82,8.31v-8.31h-3.23v8.31l-3.82-8.31h-3.14l4.01,8.43-4.01,12.12h3.22ZM364.02,428.66c0-1.34.56-2.02,1.68-2.02s1.67.68,1.67,2.02v11.09c0,1.36-.56,2.03-1.67,2.03s-1.68-.68-1.68-2.03v-11.09ZM362.07,443.37c.85.9,2.06,1.34,3.64,1.34s2.79-.45,3.63-1.34c.84-.9,1.27-2.17,1.27-3.81v-10.69c0-1.64-.42-2.91-1.27-3.81-.84-.89-2.05-1.34-3.63-1.34s-2.79.45-3.64,1.34c-.85.9-1.27,2.17-1.27,3.81v10.69c0,1.64.42,2.91,1.27,3.81M350.95,444.48l2.51-7.64,2.48,7.64h3.23l-3.59-10.47,3.37-10.08h-2.83l-2.48,7.62-2.45-7.62h-3.23l3.38,9.96-3.61,10.59h3.22ZM339.25,444.48l2.72-9.41,1.3-5.03v14.44h3.23v-20.55h-3.87l-2.64,8.48-1.17,4.53v-13.01h-2.88v20.55h3.31ZM328.1,426.87h1.53c.53,0,.93.14,1.19.44.26.29.39.79.39,1.5v3.08c0,.7-.13,1.21-.39,1.5-.26.3-.65.44-1.19.44h-1.53v-6.96ZM328.1,444.48v-7.72h1.53c1.59,0,2.79-.43,3.59-1.3.81-.86,1.21-2.12,1.21-3.78v-2.67c0-1.65-.4-2.91-1.21-3.78-.81-.87-2-1.3-3.6-1.3h-4.75v20.55h3.23ZM315.57,444.48v-17.61h3.67v17.61h3.23v-20.55h-10.12v20.55h3.23Z"/>
  <path class="st1" d="M249.99,401c0-1.15.48-1.73,1.45-1.73s1.46.58,1.46,1.73v3.21c0,1.17-.49,1.76-1.46,1.76s-1.45-.59-1.45-1.76v-3.21ZM247.97,407.47c.52.7,1.3,1.04,2.32,1.04,1.24,0,2.11-.52,2.61-1.58v3.26c0,.81-.13,1.38-.39,1.71-.26.33-.65.49-1.18.49-.97,0-1.46-.59-1.46-1.77v-.64h-2.64v.46c0,1.43.35,2.54,1.07,3.31.71.78,1.75,1.16,3.11,1.16,2.86,0,4.29-1.54,4.29-4.63v-9.14c0-1.43-.37-2.53-1.1-3.31-.73-.78-1.79-1.17-3.16-1.17s-2.42.39-3.15,1.17c-.73.78-1.1,1.88-1.1,3.31v3.28c0,1.32.26,2.33.78,3.02M245.55,412.16h-2.8v2.58h2.8v-2.58ZM240.76,414.74v-2.55h-5.28c-.02-.08-.02-.21-.02-.39,0-.39.1-.79.31-1.2s.47-.82.8-1.21c.33-.39.68-.8,1.08-1.23.39-.43.79-.89,1.18-1.38.39-.49.75-1.01,1.07-1.55.33-.54.6-1.16.8-1.86.21-.7.31-1.43.31-2.2,0-1.43-.35-2.54-1.07-3.31-.71-.78-1.74-1.16-3.1-1.16s-2.4.39-3.12,1.16c-.72.77-1.08,1.88-1.08,3.31v1.74h2.67v-1.92c0-1.17.48-1.76,1.45-1.76.48,0,.84.15,1.08.45.24.3.36.83.36,1.59,0,.7-.1,1.35-.3,1.96-.2.61-.47,1.15-.79,1.61-.33.46-.69.91-1.08,1.35-.39.44-.79.88-1.19,1.33-.4.44-.76.9-1.09,1.37-.33.47-.6,1.01-.8,1.64-.21.62-.31,1.29-.31,2v2.19h8.1Z"/>
  <path class="st1" d="M269.03,370.7c0-.64.12-1.1.34-1.4.23-.3.59-.44,1.09-.44h1.34v5.49h-1.09c-.56,0-.97-.14-1.26-.43-.29-.29-.43-.77-.43-1.46v-1.76ZM268.74,384.16c.07-.21.11-.36.14-.47.03-.1.05-.3.08-.6.03-.29.04-.67.04-1.13v-2.8c0-.82.14-1.4.43-1.75.29-.35.76-.52,1.4-.52h.97v7.27h2.8v-17.84h-4.23c-1.43,0-2.48.34-3.15,1.01-.66.67-.99,1.71-.99,3.1v1.41c0,1.84.61,3.05,1.83,3.62-.67.28-1.15.74-1.43,1.37-.28.63-.42,1.44-.42,2.43v2.75c0,.96-.09,1.68-.26,2.17h2.8ZM260.3,369.51l1.36,8.98h-2.71l1.35-8.98ZM258.1,384.16l.49-3.24h3.43l.49,3.24h2.8l-2.84-17.84h-4.33l-2.84,17.84h2.8ZM247.96,384.16v-7.64h3.18v7.64h2.8v-17.84h-2.8v7.65h-3.18v-7.65h-2.8v17.84h2.8ZM237.08,384.16v-7.64h3.18v7.64h2.8v-17.84h-2.8v7.65h-3.18v-7.65h-2.8v17.84h2.8ZM228.18,369.51l1.36,8.98h-2.7l1.34-8.98ZM225.99,384.16l.48-3.24h3.43l.49,3.24h2.8l-2.84-17.84h-4.32l-2.84,17.84h2.8ZM216.38,368.86h1.36c.5,0,.86.14,1.09.44.23.29.34.76.34,1.4v1c0,.68-.14,1.16-.43,1.45-.28.29-.7.43-1.26.43h-1.1v-4.71ZM216.38,376.13h1.26c.65,0,1.11.16,1.39.48.28.31.42.88.42,1.69v1.55c0,.64-.12,1.09-.36,1.36-.24.27-.6.4-1.09.4h-1.61v-5.47ZM217.98,384.16c1.39,0,2.45-.36,3.17-1.08.72-.72,1.08-1.77,1.08-3.15v-1.46c0-2-.7-3.28-2.09-3.82,1.21-.57,1.82-1.77,1.82-3.59v-.64c0-1.39-.33-2.43-1-3.1-.67-.67-1.72-1.01-3.15-1.01h-4.23v17.84h4.4Z"/>
  <circle class="st0" cx="934.21" cy="464.42" r="51.38" transform="translate(-104.64 560.5) rotate(-31.72)"/>
  <path class="st1" d="M943.17,488.23v-13.64l2.17-4.06,6.79,17.7h7.16l-9.7-24.64,9.7-19.8h-6.97l-9.14,19.37v-19.37h-6.97v44.45h6.97ZM931.23,488.23v-6.35h-13.14c-.04-.21-.06-.52-.06-.96,0-.97.26-1.97.77-3.01.51-1.03,1.18-2.04,1.99-3.01.81-.97,1.71-1.99,2.7-3.05s1.97-2.21,2.94-3.44c.98-1.23,1.87-2.52,2.69-3.86.81-1.35,1.47-2.89,1.99-4.63.51-1.74.77-3.57.77-5.47,0-3.57-.88-6.33-2.65-8.26-1.77-1.93-4.35-2.9-7.72-2.9s-5.97.97-7.76,2.9c-1.79,1.93-2.69,4.69-2.69,8.26v4.34h6.66v-4.77c0-2.91,1.21-4.37,3.61-4.37,1.2,0,2.09.37,2.69,1.12.59.74.89,2.06.89,3.97,0,1.74-.25,3.36-.75,4.88-.51,1.52-1.16,2.85-1.98,4.01-.81,1.16-1.71,2.28-2.7,3.38-.99,1.09-1.97,2.2-2.96,3.3-.99,1.11-1.89,2.24-2.71,3.41-.82,1.17-1.48,2.53-1.99,4.09-.51,1.56-.76,3.22-.76,4.97v5.45h20.18Z"/>
  <path class="st0" d="M535.45,453.21s0,11.57-5.1,25.98c-4.27,12.06-12.77,23.33-12.77,23.33l-76.5-44.48,1.78-2.85,76.67,44.49"/>
  <rect class="st1" x="533.63" y="449.79" width="238.26" height="21.28"/>
  <rect class="st0" x="533.63" y="449.79" width="238.26" height="21.28"/>
  <g>
    <path class="st1" d="M880.45,576.47v-4.98h9.41v5.56c0,3.9,1.61,5.86,4.83,5.86s4.87-1.95,4.87-5.86v-13.18c0-3.93-1.62-5.9-4.87-5.9s-4.83,1.97-4.83,5.9v1.8h-9.41l1.81-34.8h25.21v8.58h-16.36l-.75,14.31c1.75-2.9,4.48-4.35,8.2-4.35,3.46,0,6.06,1.16,7.8,3.49s2.61,5.72,2.61,10.18v13.39c0,4.82-1.19,8.54-3.58,11.15-2.38,2.61-5.87,3.91-10.46,3.91s-8.15-1.3-10.69-3.91c-2.54-2.61-3.8-6.32-3.8-11.15Z"/>
    <path class="st1" d="M913.83,556.27v-11c0-4.8,1.23-8.51,3.69-11.13,2.45-2.62,5.99-3.93,10.6-3.93s8.15,1.31,10.62,3.93,3.7,6.33,3.7,11.13v30.7c0,10.37-4.8,15.56-14.41,15.56-4.57,0-8.05-1.3-10.44-3.91-2.39-2.61-3.59-6.32-3.59-11.15v-1.55h8.87v2.14c0,3.96,1.64,5.94,4.91,5.94,1.77,0,3.08-.55,3.95-1.65.87-1.1,1.3-3.02,1.3-5.75v-10.96c-1.68,3.54-4.61,5.31-8.78,5.31-3.45,0-6.05-1.17-7.8-3.51-1.75-2.34-2.62-5.73-2.62-10.16ZM923.25,555.47c0,3.93,1.62,5.9,4.87,5.9s4.92-1.97,4.92-5.9v-10.79c0-3.87-1.64-5.81-4.92-5.81s-4.87,1.94-4.87,5.81v10.79Z"/>
    <path class="st1" d="M948.72,590.86v-8.66h9.41v8.66h-9.41Z"/>
    <path class="st1" d="M963.65,556.27v-11c0-4.8,1.23-8.51,3.69-11.13,2.45-2.62,5.99-3.93,10.6-3.93s8.15,1.31,10.62,3.93,3.7,6.33,3.7,11.13v30.7c0,10.37-4.8,15.56-14.41,15.56-4.57,0-8.05-1.3-10.44-3.91-2.39-2.61-3.59-6.32-3.59-11.15v-1.55h8.87v2.14c0,3.96,1.64,5.94,4.91,5.94,1.77,0,3.08-.55,3.95-1.65.87-1.1,1.3-3.02,1.3-5.75v-10.96c-1.68,3.54-4.61,5.31-8.78,5.31-3.45,0-6.05-1.17-7.8-3.51-1.75-2.34-2.62-5.73-2.62-10.16ZM973.07,555.47c0,3.93,1.62,5.9,4.87,5.9s4.92-1.97,4.92-5.9v-10.79c0-3.87-1.64-5.81-4.92-5.81s-4.87,1.94-4.87,5.81v10.79Z"/>
  </g>
  <g>
    <path class="st1" d="M223.59,901.33v-5.07c0-2.21.57-3.92,1.7-5.13,1.13-1.21,2.76-1.81,4.88-1.81s3.75.6,4.89,1.81c1.14,1.21,1.7,2.92,1.7,5.13v14.14c0,4.78-2.21,7.17-6.64,7.17-2.1,0-3.71-.6-4.81-1.8s-1.65-2.91-1.65-5.14v-.71h4.08v.98c0,1.82.75,2.74,2.26,2.74.81,0,1.42-.25,1.82-.76.4-.51.6-1.39.6-2.65v-5.05c-.77,1.63-2.12,2.45-4.04,2.45-1.59,0-2.78-.54-3.59-1.62-.8-1.08-1.21-2.64-1.21-4.68ZM227.92,900.97c0,1.81.75,2.72,2.24,2.72s2.26-.9,2.26-2.72v-4.97c0-1.79-.75-2.68-2.26-2.68s-2.24.89-2.24,2.68v4.97Z"/>
    <path class="st1" d="M239.65,917.27v-3.99h4.34v3.99h-4.34Z"/>
    <path class="st1" d="M246.61,910.64v-14.37c0-2.21.57-3.92,1.71-5.13,1.14-1.21,2.77-1.81,4.89-1.81s3.75.6,4.88,1.81c1.13,1.21,1.7,2.92,1.7,5.13v14.37c0,2.21-.57,3.92-1.7,5.13-1.13,1.21-2.76,1.81-4.88,1.81s-3.75-.6-4.89-1.81c-1.14-1.21-1.71-2.92-1.71-5.13ZM250.95,910.91c0,1.82.75,2.74,2.26,2.74s2.24-.91,2.24-2.74v-14.91c0-1.81-.75-2.72-2.24-2.72s-2.26.91-2.26,2.72v14.91Z"/>
    <path class="st1" d="M268.98,911.24v-15.55c0-2.2.47-3.75,1.41-4.67.94-.92,2.5-1.37,4.68-1.37h1.33v3.75h-1.07c-.72,0-1.24.17-1.55.52s-.47.99-.47,1.92v15.24c0,.93.16,1.57.47,1.92s.83.52,1.55.52h1.07v3.76h-1.33c-2.19,0-3.75-.45-4.68-1.37s-1.41-2.47-1.41-4.66Z"/>
    <path class="st1" d="M277.67,912.26v-3.95l7.88-18.67h4.74v18.67h1.99v3.95h-1.99v5.01h-4.34v-5.01h-8.29ZM281.59,908.31h4.37v-10.39l-4.37,10.39Z"/>
    <path class="st1" d="M294.24,917.27v-3.99h4.34v3.99h-4.34Z"/>
    <path class="st1" d="M301.37,910.64v-2.29h4.34v2.56c0,1.8.74,2.7,2.22,2.7s2.25-.9,2.25-2.7v-6.07c0-1.81-.75-2.72-2.25-2.72s-2.22.9-2.22,2.72v.83h-4.34l.84-16.03h11.61v3.95h-7.54l-.34,6.59c.8-1.33,2.06-2,3.78-2,1.59,0,2.79.54,3.59,1.61.8,1.07,1.21,2.64,1.21,4.69v6.16c0,2.22-.55,3.93-1.65,5.14-1.1,1.2-2.7,1.8-4.82,1.8s-3.76-.6-4.93-1.8c-1.16-1.2-1.75-2.91-1.75-5.14Z"/>
    <path class="st1" d="M316.25,917.27v-3.76h1.06c.72,0,1.24-.17,1.55-.52.32-.35.47-.98.47-1.92v-15.24c0-.93-.16-1.57-.47-1.92-.31-.35-.83-.52-1.55-.52h-1.06v-3.75h1.33c2.18,0,3.74.46,4.68,1.37.94.92,1.41,2.48,1.41,4.67v15.55c0,2.2-.47,3.75-1.41,4.66s-2.5,1.37-4.68,1.37h-1.33Z"/>
  </g>
</svg>