<?xml version="1.0" encoding="utf-8"?>
<!-- Generator: Adobe Illustrator 27.4.1, SVG Export Plug-In . SVG Version: 6.00 Build 0)  -->
<svg version="1.1" id="Слой_1" xmlns="http://www.w3.org/2000/svg" xmlns:xlink="http://www.w3.org/1999/xlink" x="0px" y="0px"
	 viewBox="0 0 1280 1024" style="enable-background:new 0 0 1280 1024;" xml:space="preserve">
<style type="text/css">
	.st0{fill:#DFEAF7;}
	.st1{fill:none;stroke:#373437;stroke-width:0.75;}
	.st2{fill:#373437;}
	.st3{fill:none;stroke:#373437;stroke-width:0.75;stroke-dasharray:3.514,3.514;}
	.st4{fill:#FFFFFF;}
</style>
<rect x="429.5" y="241" class="st0" width="395.5" height="364.4"/>
<rect x="429.5" y="297.3" class="st0" width="192.6" height="632.7"/>
<rect x="631.4" y="126.1" class="st1" width="186.2" height="5.8"/>
<polygon class="st1" points="623.5,126.1 623.5,131.9 424.6,161 424.6,155.2 "/>
<rect x="578.1" y="948.5" class="st2" width="61.5" height="5.8"/>
<rect x="578.1" y="948.5" class="st1" width="61.5" height="5.8"/>
<rect x="448" y="948.5" class="st1" width="146.2" height="5.8"/>
<rect x="583.1" y="930.6" class="st2" width="56.4" height="19"/>
<rect x="583.1" y="930.6" class="st1" width="56.4" height="19"/>
<rect x="415" y="948.5" class="st2" width="61.5" height="5.8"/>
<rect x="415" y="948.5" class="st1" width="61.5" height="5.8"/>
<rect x="415" y="930.6" class="st2" width="56.4" height="19"/>
<rect x="415" y="930.6" class="st1" width="56.4" height="19"/>
<rect x="456.7" y="930.6" class="st1" width="137.5" height="17.9"/>
<rect x="620.6" y="930.6" class="st2" width="56.4" height="19"/>
<rect x="620.6" y="930.6" class="st1" width="56.4" height="19"/>
<rect x="420.9" y="217" class="st2" width="54.6" height="5.8"/>
<rect x="420.9" y="217" class="st1" width="54.6" height="5.8"/>
<rect x="618.5" y="217" class="st2" width="61.5" height="5.8"/>
<rect x="618.5" y="217" class="st1" width="61.5" height="5.8"/>
<rect x="459.4" y="217" class="st1" width="84.1" height="5.8"/>
<rect x="663.8" y="217" class="st1" width="84.1" height="5.8"/>
<rect x="418.2" y="221.8" class="st2" width="52.2" height="19"/>
<rect x="418.2" y="221.8" class="st1" width="52.2" height="19"/>
<rect x="618.5" y="221.8" class="st2" width="56.4" height="19"/>
<rect x="618.5" y="221.8" class="st1" width="56.4" height="19"/>
<rect x="577.1" y="217" class="st2" width="61.5" height="5.8"/>
<rect x="577.1" y="217" class="st1" width="61.5" height="5.8"/>
<rect x="582.2" y="221.8" class="st2" width="56.4" height="19"/>
<rect x="582.2" y="221.8" class="st1" width="56.4" height="19"/>
<rect x="781.6" y="217" class="st2" width="53.5" height="5.8"/>
<rect x="781.6" y="217" class="st1" width="53.5" height="5.8"/>
<rect x="786.7" y="221.8" class="st2" width="48.5" height="19"/>
<rect x="786.7" y="221.8" class="st1" width="48.5" height="19"/>
<rect x="459.4" y="222.8" class="st1" width="79.1" height="17.9"/>
<rect x="663.8" y="222.8" class="st1" width="79.1" height="17.9"/>
<path class="st1" d="M538.9,223.3c0,0,2,8.4,4.1,14.1s4.7,8.9,4.7,8.9l37.4-21.6l-1.1-1.8l-37.6,21.2"/>
<path class="st1" d="M743.4,223.3c0,0,2,8.4,4.1,14.1c2.1,5.7,4.7,8.9,4.7,8.9l37.4-21.6l-1.1-1.8l-37.6,21.2"/>
<path class="st1" d="M682,484.4c0,0,0-7.3-3.2-16.4c-2.7-7.6-8.1-14.7-8.1-14.7l-44.8,25.5l1.1,1.8l44.9-25.5"/>
<path class="st1" d="M573.3,449.5c0,0,0-7.3,3.2-16.4c2.7-7.6,8.1-14.7,8.1-14.7l44.8,25.5l-1.1,1.8l-44.9-25.5"/>
<path class="st1" d="M573.4,607.2c0,0,0,7.3,3.2,16.4c2.7,7.6,8.1,14.7,8.1,14.7l50.3-29.2l-1.1-1.8l-50.4,29.2"/>
<path class="st1" d="M833.3,535.1c0,0-7.3,0-16.4,3.2c-7.6,2.7-14.7,8.1-14.7,8.1l31.5,54.8l1.8-1.1L804,545.1"/>
<rect x="622.7" y="568.9" class="st2" width="9.2" height="385.1"/>
<rect x="622.7" y="568.9" class="st1" width="9.2" height="380.1"/>
<rect x="622.7" y="228.2" class="st2" width="9.2" height="281.6"/>
<rect x="622.7" y="228.2" class="st1" width="9.2" height="281.6"/>
<rect x="622.7" y="124.1" class="st2" width="9.2" height="54.3"/>
<rect x="622.7" y="124.1" class="st1" width="9.2" height="54.3"/>
<rect x="415" y="152.7" class="st2" width="13.9" height="801.6"/>
<rect x="415" y="152.7" class="st1" width="13.9" height="801.6"/>
<rect x="681.6" y="476.1" class="st2" width="335.1" height="9.2"/>
<rect x="681.6" y="476.1" class="st1" width="335.1" height="9.2"/>
<rect x="422.7" y="439.7" class="st2" width="150.3" height="9.2"/>
<rect x="422.7" y="439.7" class="st1" width="150.3" height="9.2"/>
<rect x="802.7" y="72.5" class="st2" width="23.4" height="150.3"/>
<rect x="802.7" y="72.5" class="st1" width="23.4" height="150.3"/>
<rect x="825.7" y="87.5" class="st2" width="10.9" height="447.8"/>
<rect x="825.7" y="87.5" class="st1" width="10.9" height="447.8"/>
<rect x="825.7" y="587.5" class="st2" width="10.9" height="66.4"/>
<rect x="825.7" y="587.5" class="st1" width="10.9" height="66.4"/>
<rect x="834.9" y="601.4" class="st2" width="28.5" height="14.4"/>
<rect x="834.9" y="601.4" class="st1" width="28.5" height="14.4"/>
<rect x="622.7" y="605.9" class="st2" width="207.8" height="9.9"/>
<rect x="622.7" y="605.9" class="st1" width="207.8" height="9.9"/>
<rect x="422.7" y="605.9" class="st2" width="150.9" height="9.9"/>
<rect x="422.7" y="605.9" class="st1" width="150.9" height="9.9"/>
<rect x="446.4" y="556.3" class="st1" width="16.2" height="48.3"/>
<line class="st1" x1="448.9" y1="604.5" x2="448.9" y2="556"/>
<polyline class="st1" points="448.9,602.1 460.6,601 460.6,570.5 448.9,569.1 448.9,567.1 460.7,565.8 460.7,558.9 448.9,557.5 "/>
<rect x="430.1" y="556.3" class="st1" width="16.2" height="48.3"/>
<line class="st1" x1="432.7" y1="556.4" x2="432.7" y2="604.9"/>
<polyline class="st1" points="432.7,558.8 444.3,559.9 444.3,590.4 432.7,591.8 432.7,593.8 444.5,595.1 444.5,601.9 432.7,603.4 
	"/>
<path class="st2" d="M527.8,592.4c0.4,0.4,1,0.6,1.7,0.6c0.7,0,1.3-0.2,1.7-0.6c0.4-0.4,0.6-1,0.6-1.8v-0.8c0-1.1-0.4-1.7-1.1-2
	c0.7-0.3,1.1-1,1.1-2v-0.3c0-0.8-0.2-1.4-0.6-1.8c-0.4-0.4-1-0.6-1.7-0.6c-0.7,0-1.3,0.2-1.7,0.6c-0.4,0.4-0.6,1-0.6,1.8v0.5h1.5
	v-0.6c0-0.6,0.3-1,0.8-1c0.3,0,0.5,0.1,0.6,0.2c0.1,0.2,0.2,0.5,0.2,0.9v0.5c0,0.4-0.1,0.6-0.2,0.8s-0.4,0.2-0.7,0.2h-0.6v1.4h0.5
	c0.4,0,0.6,0.1,0.8,0.3c0.2,0.2,0.2,0.5,0.2,0.9v0.8c0,0.4-0.1,0.7-0.2,0.9c-0.1,0.2-0.3,0.2-0.6,0.2c-0.5,0-0.8-0.3-0.8-1v-0.9
	h-1.5v0.8C527.2,591.4,527.4,592,527.8,592.4 M526.2,591.5h-1.5v1.4h1.5V591.5z M521.3,585.5v7.4h1.5v-9.7h-1
	c-0.1,0.2-0.1,0.3-0.2,0.4c0,0.1-0.1,0.2-0.2,0.3c-0.1,0.1-0.2,0.2-0.3,0.3c-0.1,0.1-0.2,0.1-0.4,0.2c-0.2,0-0.4,0.1-0.6,0.1v1.1
	H521.3z"/>
<path class="st2" d="M530.1,574L530.1,574c-0.1,0.4-0.2,0.6-0.4,0.8c-0.2,0.1-0.5,0.1-0.9,0.1v1.4c0.4,0,0.8,0,1.1,0
	c0.3-0.1,0.6-0.1,0.8-0.3c0.2-0.1,0.4-0.3,0.5-0.5c0.2-0.2,0.3-0.5,0.4-0.7c0.1-0.3,0.2-0.6,0.3-1l1.6-7.2h-1.5l-0.7,3.3l-0.4,2.3
	l-0.5-2.3l-0.8-3.3H528L530.1,574z M524,576.3l3.8-9.7h-1.3l-3.8,9.7H524z M518.3,575.7c0.4,0.4,1,0.6,1.7,0.6
	c0.8,0,1.3-0.2,1.7-0.6c0.4-0.4,0.6-1,0.6-1.8v-1.3h-1.5v1.4c0,0.6-0.3,0.9-0.8,0.9c-0.5,0-0.8-0.3-0.8-0.9v-5.2c0-0.6,0.3-1,0.8-1
	c0.5,0,0.8,0.3,0.8,1v1h1.5v-0.9c0-0.8-0.2-1.4-0.6-1.8c-0.4-0.4-1-0.6-1.7-0.6c-0.7,0-1.3,0.2-1.7,0.6c-0.4,0.4-0.6,1-0.6,1.8v5.1
	C517.7,574.7,517.9,575.3,518.3,575.7"/>
<path class="st2" d="M454.5,617.3h30.3v29.9h-30.3V617.3z M485.5,616.6h-31.7v31.3h31.7V616.6z"/>
<path class="st1" d="M454.5,617.3h30.3v29.9h-30.3V617.3z M485.5,616.6h-31.7v31.3h31.7V616.6z"/>
<path class="st2" d="M459,644.5c-0.7,0-1.4-0.6-1.4-1.3v-15.7c0-0.7,0.6-1.3,1.4-1.3h21.2c0.7,0,1.4,0.6,1.4,1.3v15.7
	c0,0.7-0.6,1.3-1.4,1.3H459z M480.3,625.4H459c-1.1,0-2,0.9-2,2v15.7c0,1.1,0.9,2,2,2h21.2c1.1,0,2-0.9,2-2v-15.7
	C482.3,626.3,481.4,625.4,480.3,625.4"/>
<path class="st1" d="M459,644.5c-0.7,0-1.4-0.6-1.4-1.3v-15.7c0-0.7,0.6-1.3,1.4-1.3h21.2c0.7,0,1.4,0.6,1.4,1.3v15.7
	c0,0.7-0.6,1.3-1.4,1.3H459z M480.3,625.4H459c-1.1,0-2,0.9-2,2v15.7c0,1.1,0.9,2,2,2h21.2c1.1,0,2-0.9,2-2v-15.7
	C482.3,626.3,481.4,625.4,480.3,625.4z"/>
<path class="st2" d="M460,628.4h19.2v13.7H460V628.4z M479.9,627.7h-20.6v15.1h20.6V627.7z"/>
<path class="st1" d="M460,628.4h19.2v13.7H460V628.4z M479.9,627.7h-20.6v15.1h20.6V627.7z"/>
<path class="st2" d="M469.7,637.9c-1,0-1.7-0.8-1.7-1.7c0-0.9,0.8-1.7,1.7-1.7c1,0,1.7,0.8,1.7,1.7
	C471.4,637.1,470.6,637.9,469.7,637.9 M469.7,633.8c-1.3,0-2.4,1.1-2.4,2.4s1.1,2.4,2.4,2.4c1.3,0,2.4-1.1,2.4-2.4
	S471,633.8,469.7,633.8"/>
<path class="st1" d="M469.7,637.9c-1,0-1.7-0.8-1.7-1.7c0-0.9,0.8-1.7,1.7-1.7c1,0,1.7,0.8,1.7,1.7
	C471.4,637.1,470.6,637.9,469.7,637.9z M469.7,633.8c-1.3,0-2.4,1.1-2.4,2.4s1.1,2.4,2.4,2.4c1.3,0,2.4-1.1,2.4-2.4
	S471,633.8,469.7,633.8z"/>
<path class="st2" d="M507.6,580.3c0,6.2-5,11.2-11.2,11.2h-16.2c-1.1,0-1.9-0.9-1.9-1.9v-18.5c0-1.1,0.9-1.9,1.9-1.9h16.2
	C502.6,569.1,507.6,574.2,507.6,580.3 M477.5,571.1v18.5c0,1.5,1.2,2.7,2.7,2.7h16.2c6.6,0,11.9-5.4,11.9-11.9
	c0-6.6-5.4-11.9-11.9-11.9h-16.2C478.7,568.4,477.5,569.6,477.5,571.1"/>
<path class="st1" d="M507.6,580.3c0,6.2-5,11.2-11.2,11.2h-16.2c-1.1,0-1.9-0.9-1.9-1.9v-18.5c0-1.1,0.9-1.9,1.9-1.9h16.2
	C502.6,569.1,507.6,574.2,507.6,580.3z M477.5,571.1v18.5c0,1.5,1.2,2.7,2.7,2.7h16.2c6.6,0,11.9-5.4,11.9-11.9
	c0-6.6-5.4-11.9-11.9-11.9h-16.2C478.7,568.4,477.5,569.6,477.5,571.1z"/>
<path class="st1" d="M483.7,588.3v-16c0-0.1,0.1-0.2,0.2-0.2h12.2c4.5,0,8.2,3.7,8.2,8.2c0,4.5-3.7,8.2-8.2,8.2h-12.2
	C483.8,588.5,483.7,588.4,483.7,588.3z"/>
<path class="st2" d="M484.1,588.1v-15.6h12c4.3,0,7.8,3.5,7.8,7.8c0,4.3-3.5,7.8-7.8,7.8H484.1z M483.3,572.3v16
	c0,0.3,0.3,0.6,0.6,0.6h12.2c4.7,0,8.6-3.8,8.6-8.6c0-4.7-3.8-8.6-8.6-8.6h-12.2C483.6,571.7,483.3,572,483.3,572.3"/>
<path class="st1" d="M484.1,588.1v-15.6h12c4.3,0,7.8,3.5,7.8,7.8c0,4.3-3.5,7.8-7.8,7.8H484.1z M483.3,572.3v16
	c0,0.3,0.3,0.6,0.6,0.6h12.2c4.7,0,8.6-3.8,8.6-8.6c0-4.7-3.8-8.6-8.6-8.6h-12.2C483.6,571.7,483.3,572,483.3,572.3z"/>
<path class="st2" d="M496.1,580.3c0,1.2-0.9,2.1-2.1,2.1c-1.2,0-2.1-0.9-2.1-2.1c0-1.2,0.9-2.1,2.1-2.1
	C495.2,578.2,496.1,579.1,496.1,580.3 M491.1,580.3c0,1.6,1.3,2.9,2.9,2.9c1.6,0,2.9-1.3,2.9-2.9c0-1.6-1.3-2.9-2.9-2.9
	C492.4,577.4,491.1,578.7,491.1,580.3"/>
<path class="st1" d="M496.1,580.3c0,1.2-0.9,2.1-2.1,2.1c-1.2,0-2.1-0.9-2.1-2.1c0-1.2,0.9-2.1,2.1-2.1
	C495.2,578.2,496.1,579.1,496.1,580.3z M491.1,580.3c0,1.6,1.3,2.9,2.9,2.9c1.6,0,2.9-1.3,2.9-2.9c0-1.6-1.3-2.9-2.9-2.9
	C492.4,577.4,491.1,578.7,491.1,580.3z"/>
<rect x="484.8" y="584.6" transform="matrix(0.8014 -0.5981 0.5981 0.8014 -252.9454 408.0764)" class="st2" width="6.4" height="0.8"/>
<rect x="484.8" y="584.6" transform="matrix(0.8014 -0.5981 0.5981 0.8014 -252.9454 408.0764)" class="st1" width="6.4" height="0.8"/>
<polygon class="st2" points="485.2,574.2 490.4,578 490.8,577.4 485.7,573.6 "/>
<polygon class="st1" points="485.2,574.2 490.4,578 490.8,577.4 485.7,573.6 "/>
<path class="st2" d="M477.5,588c0,1.7-1.4,3.1-3.1,3.1h-4.2c-1.7,0-3.1-1.4-3.1-3.1v-15.4c0-1.7,1.4-3.1,3.1-3.1h4.2
	c1.7,0,3.1,1.4,3.1,3.1V588z M466.3,572.6V588c0,2.1,1.7,3.9,3.9,3.9h4.2c2.1,0,3.9-1.7,3.9-3.9v-15.4c0-2.1-1.7-3.9-3.9-3.9h-4.2
	C468.1,568.7,466.3,570.5,466.3,572.6"/>
<path class="st1" d="M477.5,588c0,1.7-1.4,3.1-3.1,3.1h-4.2c-1.7,0-3.1-1.4-3.1-3.1v-15.4c0-1.7,1.4-3.1,3.1-3.1h4.2
	c1.7,0,3.1,1.4,3.1,3.1V588z M466.3,572.6V588c0,2.1,1.7,3.9,3.9,3.9h4.2c2.1,0,3.9-1.7,3.9-3.9v-15.4c0-2.1-1.7-3.9-3.9-3.9h-4.2
	C468.1,568.7,466.3,570.5,466.3,572.6z"/>
<path class="st2" d="M473.5,580.3c0,0.7-0.5,1.2-1.2,1.2c-0.7,0-1.2-0.5-1.2-1.2c0-0.7,0.5-1.2,1.2-1.2
	C473,579.1,473.5,579.7,473.5,580.3 M470.3,580.3c0,1.1,0.9,2,2,2s2-0.9,2-2c0-1.1-0.9-2-2-2S470.3,579.2,470.3,580.3"/>
<path class="st1" d="M473.5,580.3c0,0.7-0.5,1.2-1.2,1.2c-0.7,0-1.2-0.5-1.2-1.2c0-0.7,0.5-1.2,1.2-1.2
	C473,579.1,473.5,579.7,473.5,580.3z M470.3,580.3c0,1.1,0.9,2,2,2s2-0.9,2-2c0-1.1-0.9-2-2-2S470.3,579.2,470.3,580.3z"/>
<path class="st2" d="M489.4,524.9c5.6,0,10.2,4.6,10.2,10.2V546c0,0.9-0.7,1.5-1.6,1.5H475c-0.9,0-1.5-0.7-1.5-1.5v-10.8
	c0-5.6,4.6-10.2,10.2-10.2H489.4z M475,548.1H498c1.2,0,2.1-1,2.1-2.1v-10.8c0-5.9-4.8-10.8-10.8-10.8h-5.8
	c-5.9,0-10.8,4.8-10.8,10.8V546C472.8,547.1,473.8,548.1,475,548.1"/>
<path class="st1" d="M489.4,524.9c5.6,0,10.2,4.6,10.2,10.2V546c0,0.9-0.7,1.5-1.6,1.5H475c-0.9,0-1.5-0.7-1.5-1.5v-10.8
	c0-5.6,4.6-10.2,10.2-10.2H489.4z M475,548.1H498c1.2,0,2.1-1,2.1-2.1v-10.8c0-5.9-4.8-10.8-10.8-10.8h-5.8
	c-5.9,0-10.8,4.8-10.8,10.8V546C472.8,547.1,473.8,548.1,475,548.1z"/>
<path class="st2" d="M489.4,527.5c4.2,0,7.6,3.4,7.6,7.6v6.3c0,0.7-0.6,1.3-1.3,1.3h-18.4c-0.7,0-1.3-0.6-1.3-1.3v-6.3
	c0-4.2,3.4-7.6,7.6-7.6H489.4z M477.3,543.4h18.4c1.1,0,1.9-0.9,1.9-1.9v-6.3c0-4.5-3.7-8.2-8.2-8.2h-5.8c-4.5,0-8.2,3.7-8.2,8.2
	v6.3C475.4,542.5,476.2,543.4,477.3,543.4"/>
<path class="st1" d="M489.4,527.5c4.2,0,7.6,3.4,7.6,7.6v6.3c0,0.7-0.6,1.3-1.3,1.3h-18.4c-0.7,0-1.3-0.6-1.3-1.3v-6.3
	c0-4.2,3.4-7.6,7.6-7.6H489.4z M477.3,543.4h18.4c1.1,0,1.9-0.9,1.9-1.9v-6.3c0-4.5-3.7-8.2-8.2-8.2h-5.8c-4.5,0-8.2,3.7-8.2,8.2
	v6.3C475.4,542.5,476.2,543.4,477.3,543.4z"/>
<path class="st2" d="M486.5,532.8c0.7,0,1.3,0.6,1.3,1.3c0,0.7-0.6,1.3-1.3,1.3s-1.3-0.6-1.3-1.3
	C485.2,533.4,485.8,532.8,486.5,532.8 M486.5,536c1,0,1.9-0.8,1.9-1.9c0-1-0.8-1.9-1.9-1.9c-1,0-1.9,0.8-1.9,1.9
	C484.6,535.1,485.5,536,486.5,536"/>
<path class="st1" d="M486.5,532.8c0.7,0,1.3,0.6,1.3,1.3c0,0.7-0.6,1.3-1.3,1.3s-1.3-0.6-1.3-1.3
	C485.2,533.4,485.8,532.8,486.5,532.8z M486.5,536c1,0,1.9-0.8,1.9-1.9c0-1-0.8-1.9-1.9-1.9c-1,0-1.9,0.8-1.9,1.9
	C484.6,535.1,485.5,536,486.5,536z"/>
<path class="st1" d="M450.1,529.3c-0.8,0-1.5-0.7-1.5-1.6s0.7-1.6,1.5-1.6c0.8,0,1.5,0.7,1.5,1.6S450.9,529.3,450.1,529.3z"/>
<path class="st1" d="M457.1,453.5c5.6,0,10.2,4.5,10.2,10.2v70.4c0,5.6-4.5,10.2-10.2,10.2H443c-5.6,0-10.2-4.5-10.2-10.2v-70.4
	c0-5.6,4.5-10.2,10.2-10.2H457.1z"/>
<path class="st1" d="M453.9,459.8c5.6,0,10.2,4.5,10.2,10.2v57.8c0,5.6-4.5,10.2-10.2,10.2h-7.6c-5.6,0-10.2-4.5-10.2-10.2V470
	c0-5.6,4.5-10.2,10.2-10.2H453.9z"/>
<path class="st1" d="M455.9,467.4c2.8,0,5.1,2.3,5.1,5.1v56.8c0,2.8-2.3,5.1-5.1,5.1h-11.6c-2.8,0-5.1-2.3-5.1-5.1v-56.8
	c0-2.8,2.3-5.1,5.1-5.1H455.9z"/>
<polygon class="st1" points="430,547.8 430,547.8 430,450 470.1,450 470.1,547.8 "/>
<rect x="422.1" y="548.9" class="st2" width="128.3" height="6.1"/>
<rect x="422.1" y="548.9" class="st1" width="128.3" height="6.1"/>
<path class="st1" d="M547.4,568.1c0,0,2.7-0.3,10.3,2.4c6.3,2.2,12.3,6.7,12.3,6.7l-18.1,31.1l-1.5-0.9l18.1-31.2"/>
<path class="st1" d="M547.4,516.8c0,0,2.7,0.3,10.3-2.4c6.3-2.2,12.3-6.7,12.3-6.7l-18.1-31.1l-1.5,0.9l18.1,31.2"/>
<rect x="548" y="447.6" class="st2" width="6.1" height="35.4"/>
<rect x="548" y="447.6" class="st1" width="6.1" height="35.4"/>
<rect x="548" y="515.6" class="st2" width="6.1" height="52.2"/>
<rect x="548" y="515.6" class="st1" width="6.1" height="52.2"/>
<path class="st2" d="M608.7,557c0.5,0.6,1.3,0.8,2.3,0.8c1,0,1.7-0.3,2.2-0.8c0.5-0.5,0.8-1.3,0.8-2.3v-1c0-1.4-0.5-2.3-1.4-2.7
	c0.9-0.4,1.4-1.2,1.4-2.6v-0.3c0-1-0.3-1.8-0.8-2.3c-0.5-0.5-1.2-0.8-2.2-0.8c-1,0-1.7,0.3-2.3,0.8c-0.5,0.6-0.8,1.3-0.8,2.3v0.7h2
	v-0.8c0-0.8,0.3-1.2,1-1.2c0.3,0,0.6,0.1,0.8,0.3c0.2,0.2,0.3,0.6,0.3,1.1v0.7c0,0.5-0.1,0.8-0.3,1c-0.2,0.2-0.5,0.3-0.9,0.3H610
	v1.8h0.7c0.5,0,0.8,0.1,1,0.4c0.2,0.2,0.3,0.7,0.3,1.2v1c0,0.5-0.1,0.9-0.3,1.1c-0.2,0.2-0.4,0.3-0.8,0.3c-0.7,0-1-0.4-1-1.3v-1.2
	h-2v1C607.9,555.7,608.2,556.4,608.7,557 M606.6,555.9h-2v1.8h2V555.9z M598.2,557c0.5,0.6,1.3,0.8,2.3,0.8c1,0,1.7-0.3,2.2-0.8
	c0.5-0.5,0.8-1.3,0.8-2.3v-1c0-1.4-0.5-2.3-1.4-2.7c0.9-0.4,1.4-1.2,1.4-2.6v-0.3c0-1-0.3-1.8-0.8-2.3c-0.5-0.5-1.2-0.8-2.2-0.8
	c-1,0-1.7,0.3-2.3,0.8c-0.5,0.6-0.8,1.3-0.8,2.3v0.7h2v-0.8c0-0.8,0.3-1.2,1-1.2c0.3,0,0.6,0.1,0.8,0.3c0.2,0.2,0.3,0.6,0.3,1.1v0.7
	c0,0.5-0.1,0.8-0.3,1c-0.2,0.2-0.5,0.3-0.9,0.3h-0.8v1.8h0.7c0.5,0,0.8,0.1,1,0.4c0.2,0.2,0.3,0.7,0.3,1.2v1c0,0.5-0.1,0.9-0.3,1.1
	c-0.2,0.2-0.4,0.3-0.8,0.3c-0.7,0-1-0.4-1-1.3v-1.2h-2v1C597.4,555.7,597.7,556.4,598.2,557"/>
<path class="st2" d="M627.4,525.2h0.9c0.3,0,0.6,0.1,0.7,0.3c0.2,0.2,0.2,0.5,0.2,0.9v1.9c0,0.4-0.1,0.7-0.2,0.9
	c-0.2,0.2-0.4,0.3-0.7,0.3h-0.9V525.2z M627.4,536v-4.8h0.9c1,0,1.7-0.3,2.2-0.8c0.5-0.5,0.7-1.3,0.7-2.3v-1.6c0-1-0.2-1.8-0.7-2.3
	c-0.5-0.5-1.2-0.8-2.2-0.8h-2.9V536H627.4z M620.1,526.3c0-0.8,0.3-1.2,1-1.2c0.7,0,1,0.4,1,1.2v6.8c0,0.8-0.3,1.3-1,1.3
	c-0.7,0-1-0.4-1-1.3V526.3z M618.9,535.3c0.5,0.6,1.3,0.8,2.2,0.8c1,0,1.7-0.3,2.2-0.8c0.5-0.6,0.8-1.3,0.8-2.3v-6.6
	c0-1-0.3-1.8-0.8-2.3c-0.5-0.6-1.3-0.8-2.2-0.8c-1,0-1.7,0.3-2.2,0.8c-0.5,0.6-0.8,1.3-0.8,2.3v6.6
	C618.1,534,618.4,534.8,618.9,535.3 M612.1,533.6c0.1-0.2,0.1-0.6,0.2-1.1l0.4-7.4h1.7v9h-2.6C611.9,534.1,612.1,533.9,612.1,533.6
	 M611,537.7V536h4.2v1.7h2v-3.5h-0.9v-10.8h-5.6l-0.4,9.2c0,0.4-0.1,0.7-0.1,1c-0.1,0.2-0.2,0.5-0.4,0.7H609v3.5H611z M603.8,536
	l1.7-5.8l0.8-3.1v8.9h2v-12.6h-2.4l-1.6,5.2l-0.7,2.8v-8h-1.8V536H603.8z M597,525.2h0.9c0.3,0,0.6,0.1,0.7,0.3
	c0.2,0.2,0.2,0.5,0.2,0.9v1.9c0,0.4-0.1,0.7-0.2,0.9c-0.2,0.2-0.4,0.3-0.7,0.3H597V525.2z M597,536v-4.8h0.9c1,0,1.7-0.3,2.2-0.8
	c0.5-0.5,0.7-1.3,0.7-2.3v-1.6c0-1-0.2-1.8-0.7-2.3c-0.5-0.5-1.2-0.8-2.2-0.8H595V536H597z M589.7,526.3c0-0.8,0.3-1.2,1-1.2
	c0.7,0,1,0.4,1,1.2v6.8c0,0.8-0.3,1.3-1,1.3c-0.7,0-1-0.4-1-1.3V526.3z M588.5,535.3c0.5,0.6,1.3,0.8,2.2,0.8c1,0,1.7-0.3,2.2-0.8
	c0.5-0.6,0.8-1.3,0.8-2.3v-6.6c0-1-0.3-1.8-0.8-2.3c-0.5-0.6-1.3-0.8-2.2-0.8c-1,0-1.7,0.3-2.2,0.8c-0.5,0.6-0.8,1.3-0.8,2.3v6.6
	C587.7,534,587.9,534.8,588.5,535.3 M582.4,536v-3.9l0.6-1.2l1.9,5h2l-2.8-7l2.8-5.6h-2l-2.6,5.5v-5.5h-2V536H582.4z"/>
<path class="st2" d="M515.4,489.4l-2.2,8.3h1.5l2.3-8.4V488h-4.6v1.4H515.4z M511.4,496.3h-1.5v1.4h1.5V496.3z M504.9,497.2
	c0.4,0.4,1,0.6,1.7,0.6c0.7,0,1.3-0.2,1.7-0.6c0.4-0.4,0.6-1,0.6-1.8v-0.8c0-1.1-0.4-1.7-1.1-2c0.7-0.3,1.1-1,1.1-2v-0.2
	c0-0.8-0.2-1.4-0.6-1.8c-0.4-0.4-1-0.6-1.7-0.6c-0.7,0-1.3,0.2-1.7,0.6c-0.4,0.4-0.6,1-0.6,1.8v0.5h1.5v-0.6c0-0.6,0.3-1,0.8-1
	c0.3,0,0.5,0.1,0.6,0.2c0.1,0.2,0.2,0.5,0.2,0.9v0.5c0,0.4-0.1,0.6-0.2,0.8c-0.2,0.2-0.4,0.2-0.7,0.2h-0.6v1.4h0.5
	c0.4,0,0.6,0.1,0.8,0.3c0.2,0.2,0.2,0.5,0.2,0.9v0.8c0,0.4-0.1,0.7-0.2,0.9c-0.1,0.2-0.3,0.2-0.6,0.2c-0.5,0-0.8-0.3-0.8-1v-0.9
	h-1.5v0.8C504.3,496.2,504.5,496.8,504.9,497.2"/>
<path class="st2" d="M524.2,473.7c0-0.3,0.1-0.6,0.2-0.8c0.1-0.2,0.3-0.2,0.6-0.2h0.7v3h-0.6c-0.3,0-0.5-0.1-0.7-0.2
	c-0.2-0.2-0.2-0.4-0.2-0.8V473.7z M524,481.1c0-0.1,0.1-0.2,0.1-0.3c0-0.1,0-0.2,0-0.3c0-0.2,0-0.4,0-0.6v-1.5c0-0.4,0.1-0.8,0.2-1
	c0.2-0.2,0.4-0.3,0.8-0.3h0.5v4h1.5v-9.7h-2.3c-0.8,0-1.4,0.2-1.7,0.5c-0.4,0.4-0.5,0.9-0.5,1.7v0.8c0,1,0.3,1.7,1,2
	c-0.4,0.2-0.6,0.4-0.8,0.7c-0.2,0.3-0.2,0.8-0.2,1.3v1.5c0,0.5,0,0.9-0.1,1.2H524z M519.4,473.1l0.7,4.9h-1.5L519.4,473.1z
	 M518.2,481.1l0.3-1.8h1.9l0.3,1.8h1.5l-1.5-9.7h-2.4l-1.5,9.7H518.2z M512.7,481.1v-4.2h1.7v4.2h1.5v-9.7h-1.5v4.2h-1.7v-4.2h-1.5
	v9.7H512.7z M506.8,481.1v-4.2h1.7v4.2h1.5v-9.7h-1.5v4.2h-1.7v-4.2h-1.5v9.7H506.8z M501.9,473.1l0.7,4.9h-1.5L501.9,473.1z
	 M500.7,481.1l0.3-1.8h1.9l0.3,1.8h1.5l-1.5-9.7h-2.4l-1.5,9.7H500.7z M495.5,472.7h0.7c0.3,0,0.5,0.1,0.6,0.2
	c0.1,0.2,0.2,0.4,0.2,0.8v0.5c0,0.4-0.1,0.6-0.2,0.8c-0.2,0.2-0.4,0.2-0.7,0.2h-0.6V472.7z M495.5,476.7h0.7c0.4,0,0.6,0.1,0.8,0.3
	c0.2,0.2,0.2,0.5,0.2,0.9v0.8c0,0.3-0.1,0.6-0.2,0.7c-0.1,0.1-0.3,0.2-0.6,0.2h-0.9V476.7z M496.4,481.1c0.8,0,1.3-0.2,1.7-0.6
	c0.4-0.4,0.6-1,0.6-1.7V478c0-1.1-0.4-1.8-1.1-2.1c0.7-0.3,1-1,1-2v-0.3c0-0.8-0.2-1.3-0.5-1.7c-0.4-0.4-0.9-0.5-1.7-0.5H494v9.7
	H496.4z"/>
<rect x="510.6" y="511.4" class="st1" width="35.4" height="36.3"/>
<line class="st1" x1="545.5" y1="511.3" x2="510.7" y2="547.6"/>
<line class="st1" x1="510.3" y1="511.3" x2="545.1" y2="547.6"/>
<path class="st2" d="M538.1,822.1c0-0.7,0.1-1.2,0.4-1.4c0.3-0.3,0.6-0.4,1.1-0.4s0.8,0.1,1.1,0.4c0.2,0.3,0.4,0.8,0.4,1.4v0.9
	c0,1.1-0.5,1.7-1.4,1.7c-1,0-1.4-0.6-1.4-1.7V822.1z M538.1,828.9c0-1.2,0.5-1.8,1.4-1.8c1,0,1.4,0.6,1.4,1.8v1.5
	c0,0.7-0.1,1.2-0.4,1.4c-0.2,0.3-0.6,0.4-1,0.4c-0.5,0-0.8-0.1-1.1-0.4c-0.3-0.3-0.4-0.7-0.4-1.4V828.9z M536.6,833.5
	c0.7,0.7,1.7,1.1,3,1.1c1.3,0,2.3-0.4,2.9-1.1c0.7-0.7,1-1.7,1-3v-1.3c0-1.7-0.5-2.8-1.6-3.4c1-0.6,1.6-1.7,1.6-3.3V822
	c0-1.3-0.3-2.3-1-3s-1.7-1.1-2.9-1.1c-1.3,0-2.3,0.4-3,1.1c-0.7,0.7-1,1.7-1,3v0.5c0,1.6,0.5,2.7,1.6,3.3c-1.1,0.6-1.6,1.7-1.6,3.4
	v1.3C535.6,831.8,535.9,832.8,536.6,833.5 M534.2,832h-2.5v2.3h2.5V832z M529.8,834.4V832H525c0-0.1,0-0.2,0-0.3
	c0-0.4,0.1-0.7,0.3-1.1c0.2-0.4,0.4-0.7,0.7-1.1c0.3-0.4,0.6-0.7,1-1.1c0.4-0.4,0.7-0.8,1.1-1.3c0.4-0.4,0.7-0.9,1-1.4
	c0.3-0.5,0.5-1.1,0.7-1.7c0.2-0.6,0.3-1.3,0.3-2c0-1.3-0.3-2.3-1-3c-0.6-0.7-1.6-1.1-2.8-1.1s-2.2,0.4-2.8,1.1c-0.7,0.7-1,1.7-1,3
	v1.6h2.4v-1.7c0-1.1,0.4-1.6,1.3-1.6c0.4,0,0.8,0.1,1,0.4c0.2,0.3,0.3,0.8,0.3,1.4c0,0.6-0.1,1.2-0.3,1.8c-0.2,0.6-0.4,1-0.7,1.5
	c-0.3,0.4-0.6,0.8-1,1.2c-0.4,0.4-0.7,0.8-1.1,1.2c-0.4,0.4-0.7,0.8-1,1.2c-0.3,0.4-0.5,0.9-0.7,1.5c-0.2,0.6-0.3,1.2-0.3,1.8v2
	H529.8z M516.8,822v12.4h2.5v-16.2h-1.7c-0.1,0.3-0.2,0.5-0.3,0.6c-0.1,0.2-0.2,0.3-0.3,0.5c-0.1,0.2-0.3,0.4-0.5,0.5
	c-0.2,0.1-0.4,0.2-0.7,0.3s-0.6,0.1-1,0.1v1.8H516.8z"/>
<path class="st2" d="M586,793.3l1.2,8.2h-2.5L586,793.3z M584,806.6l0.4-2.9h3.1l0.4,2.9h2.5l-2.6-16.2h-3.9l-2.6,16.2H584z
	 M575.8,792.7v13.9h2.5v-13.9h2.7v-2.3h-7.9v2.3H575.8z M568.4,793.3l1.2,8.2h-2.5L568.4,793.3z M566.4,806.6l0.4-2.9h3.1l0.4,2.9
	h2.5l-2.6-16.2h-3.9l-2.6,16.2H566.4z M557.2,806.6v-6.9h2.9v6.9h2.5v-16.2h-2.5v6.9h-2.9v-6.9h-2.5v16.2H557.2z M544.3,806.6v-11.4
	l1.9,11.4h2.4l1.8-11.6v11.6h2.5v-16.2h-3.7l-1.7,11.5l-1.9-11.5h-3.5v16.2H544.3z M535.3,794.1c0-1.1,0.4-1.6,1.3-1.6
	c0.9,0,1.3,0.5,1.3,1.6v8.7c0,1.1-0.4,1.6-1.3,1.6c-0.9,0-1.3-0.5-1.3-1.6V794.1z M533.7,805.7c0.7,0.7,1.6,1.1,2.9,1.1
	c1.2,0,2.2-0.4,2.9-1.1c0.7-0.7,1-1.7,1-3v-8.4c0-1.3-0.3-2.3-1-3c-0.7-0.7-1.6-1.1-2.9-1.1c-1.2,0-2.2,0.4-2.9,1.1
	c-0.7,0.7-1,1.7-1,3v8.4C532.7,804,533.1,805,533.7,805.7 M525.9,806.6v-5l0.8-1.5l2.5,6.5h2.6l-3.5-9l3.5-7.2h-2.5l-3.3,7.1v-7.1
	h-2.5v16.2H525.9z M512.9,794.4c0-0.6,0.1-1,0.3-1.3c0.2-0.3,0.5-0.4,1-0.4h1.2v5h-1c-0.5,0-0.9-0.1-1.1-0.4
	c-0.3-0.3-0.4-0.7-0.4-1.3V794.4z M512.6,806.6c0.1-0.2,0.1-0.3,0.1-0.4c0-0.1,0-0.3,0.1-0.5c0-0.3,0-0.6,0-1v-2.5
	c0-0.7,0.1-1.3,0.4-1.6c0.3-0.3,0.7-0.5,1.3-0.5h0.9v6.6h2.5v-16.2h-3.8c-1.3,0-2.3,0.3-2.9,0.9c-0.6,0.6-0.9,1.5-0.9,2.8v1.3
	c0,1.7,0.6,2.8,1.7,3.3c-0.6,0.3-1,0.7-1.3,1.2c-0.3,0.6-0.4,1.3-0.4,2.2v2.5c0,0.9-0.1,1.5-0.2,2H512.6z M505,793.3l1.2,8.2h-2.5
	L505,793.3z M503,806.6l0.4-2.9h3.1l0.4,2.9h2.5l-2.6-16.2H503l-2.6,16.2H503z M490.4,806.6c1.3,0,2.2-0.3,2.8-0.9
	c0.6-0.6,0.9-1.7,0.9-3.2l0.3-9.8h2.2v13.9h2.5v-16.2h-7.3l-0.3,12.2c0,0.4,0,0.7-0.1,0.9c-0.1,0.2-0.1,0.4-0.3,0.5
	c-0.1,0.1-0.3,0.2-0.5,0.2c-0.2,0-0.4,0-0.7,0v2.3H490.4z M483.4,806.6l2.1-7.4l1-4v11.4h2.5v-16.2h-3.1l-2.1,6.7l-0.9,3.6v-10.3
	h-2.3v16.2H483.4z M468.6,806.6l2.3-7.2l0.6,1.3v6h2.5v-5.9l0.6-1.2l2.3,7.2h2.5l-3.1-9.6l3.1-6.6h-2.5l-3,6.6v-6.6h-2.5v6.6l-3-6.6
	h-2.5l3.2,6.6l-3.2,9.6H468.6z"/>
<path class="st2" d="M747.6,185.4c1.3,0,2.2-0.3,2.7-0.8c0.5-0.5,0.8-1.4,0.8-2.7v-9.1c0-1.3-0.3-2.2-0.8-2.7
	c-0.6-0.5-1.5-0.8-2.7-0.8h-0.8v2.2h0.6c0.4,0,0.7,0.1,0.9,0.3c0.2,0.2,0.3,0.6,0.3,1.1v8.9c0,0.5-0.1,0.9-0.3,1.1
	c-0.2,0.2-0.5,0.3-0.9,0.3h-0.6v2.2H747.6z M742.5,174.1v6.1H740L742.5,174.1z M742.5,182.5v2.9h2.5v-2.9h1.2v-2.3h-1.2v-10.9h-2.8
	l-4.6,10.9v2.3H742.5z M736.5,183.1h-2.5v2.3h2.5V183.1z M729.1,174.1v6.1h-2.6L729.1,174.1z M729.1,182.5v2.9h2.5v-2.9h1.2v-2.3
	h-1.2v-10.9h-2.8l-4.6,10.9v2.3H729.1z M719.9,184.6c0.6,0.5,1.5,0.8,2.7,0.8h0.8v-2.2h-0.6c-0.4,0-0.7-0.1-0.9-0.3
	c-0.2-0.2-0.3-0.6-0.3-1.1v-8.9c0-0.5,0.1-0.9,0.3-1.1c0.2-0.2,0.5-0.3,0.9-0.3h0.6v-2.2h-0.8c-1.3,0-2.2,0.3-2.7,0.8
	c-0.6,0.5-0.8,1.5-0.8,2.7v9.1C719.1,183.2,719.4,184.1,719.9,184.6 M708.4,173.2c0-0.7,0.1-1.2,0.4-1.4c0.3-0.3,0.6-0.4,1.1-0.4
	s0.8,0.1,1.1,0.4c0.2,0.3,0.4,0.8,0.4,1.4v0.9c0,1.1-0.5,1.7-1.4,1.7c-1,0-1.4-0.6-1.4-1.7V173.2z M708.4,179.9
	c0-1.2,0.5-1.8,1.4-1.8c1,0,1.4,0.6,1.4,1.8v1.5c0,0.7-0.1,1.2-0.4,1.4c-0.3,0.3-0.6,0.4-1,0.4c-0.5,0-0.8-0.1-1.1-0.4
	c-0.3-0.3-0.4-0.7-0.4-1.4V179.9z M706.9,184.5c0.7,0.7,1.7,1.1,3,1.1c1.3,0,2.3-0.4,2.9-1.1c0.7-0.7,1-1.7,1-3v-1.3
	c0-1.7-0.5-2.8-1.6-3.4c1.1-0.6,1.6-1.7,1.6-3.3v-0.5c0-1.3-0.3-2.3-1-3c-0.7-0.7-1.7-1.1-2.9-1.1c-1.3,0-2.3,0.4-3,1.1
	c-0.7,0.7-1,1.7-1,3v0.5c0,1.6,0.5,2.7,1.6,3.3c-1.1,0.6-1.6,1.7-1.6,3.4v1.3C705.9,182.8,706.2,183.8,706.9,184.5 M704.5,183.1
	h-2.5v2.3h2.5V183.1z M695,173.2c0-0.7,0.1-1.2,0.4-1.4c0.3-0.3,0.6-0.4,1.1-0.4s0.8,0.1,1.1,0.4c0.3,0.3,0.4,0.8,0.4,1.4v0.9
	c0,1.1-0.5,1.7-1.4,1.7c-1,0-1.4-0.6-1.4-1.7V173.2z M695,179.9c0-1.2,0.5-1.8,1.4-1.8c1,0,1.4,0.6,1.4,1.8v1.5
	c0,0.7-0.1,1.2-0.4,1.4c-0.3,0.3-0.6,0.4-1,0.4c-0.5,0-0.8-0.1-1.1-0.4c-0.3-0.3-0.4-0.7-0.4-1.4V179.9z M693.5,184.5
	c0.7,0.7,1.7,1.1,3,1.1s2.3-0.4,2.9-1.1c0.7-0.7,1-1.7,1-3v-1.3c0-1.7-0.5-2.8-1.6-3.4c1-0.6,1.6-1.7,1.6-3.3v-0.5
	c0-1.3-0.3-2.3-1-3c-0.7-0.7-1.7-1.1-2.9-1.1s-2.3,0.4-3,1.1c-0.7,0.7-1,1.7-1,3v0.5c0,1.6,0.5,2.7,1.6,3.3
	c-1.1,0.6-1.6,1.7-1.6,3.4v1.3C692.4,182.8,692.8,183.8,693.5,184.5"/>
<path class="st2" d="M742.5,439.9v-2.3h-4.8c0-0.1,0-0.2,0-0.3c0-0.4,0.1-0.7,0.3-1.1c0.2-0.4,0.4-0.7,0.7-1.1
	c0.3-0.4,0.6-0.7,1-1.1c0.4-0.4,0.7-0.8,1.1-1.3c0.4-0.4,0.7-0.9,1-1.4c0.3-0.5,0.5-1.1,0.7-1.7c0.2-0.6,0.3-1.3,0.3-2
	c0-1.3-0.3-2.3-1-3c-0.6-0.7-1.6-1.1-2.8-1.1s-2.2,0.4-2.8,1.1c-0.7,0.7-1,1.7-1,3v1.6h2.4v-1.7c0-1.1,0.4-1.6,1.3-1.6
	c0.4,0,0.8,0.1,1,0.4c0.2,0.3,0.3,0.8,0.3,1.4c0,0.6-0.1,1.2-0.3,1.8c-0.2,0.6-0.4,1-0.7,1.5c-0.3,0.4-0.6,0.8-1,1.2
	c-0.4,0.4-0.7,0.8-1.1,1.2c-0.4,0.4-0.7,0.8-1,1.2c-0.3,0.4-0.5,0.9-0.7,1.5c-0.2,0.6-0.3,1.2-0.3,1.8v2H742.5z M733.4,437.5h-2.5
	v2.3h2.5V437.5z M726,428.5v6.1h-2.6L726,428.5z M726,436.9v2.9h2.5v-2.9h1.2v-2.3h-1.2v-10.9h-2.8l-4.6,10.9v2.3H726z M716,427.5
	v12.4h2.5v-16.2h-1.7c-0.1,0.3-0.2,0.5-0.3,0.6c-0.1,0.2-0.2,0.3-0.3,0.5c-0.1,0.2-0.3,0.4-0.5,0.5c-0.2,0.1-0.4,0.2-0.7,0.3
	s-0.6,0.1-1,0.1v1.8H716z"/>
<path class="st2" d="M785.2,398.8l1.2,8.2H784L785.2,398.8z M783.2,412.1l0.4-2.9h3.1l0.4,2.9h2.5l-2.6-16.2h-3.9l-2.6,16.2H783.2z
	 M775,398.2v13.9h2.5v-13.9h2.7v-2.3h-7.9v2.3H775z M767.6,398.8l1.2,8.2h-2.5L767.6,398.8z M765.6,412.1l0.4-2.9h3.1l0.4,2.9h2.5
	l-2.6-16.2h-3.9l-2.6,16.2H765.6z M756.4,412.1v-6.9h2.9v6.9h2.5v-16.2h-2.5v6.9h-2.9v-6.9h-2.5v16.2H756.4z M743.5,412.1v-11.4
	l1.9,11.4h2.4l1.8-11.6v11.6h2.5v-16.2h-3.7l-1.7,11.5l-1.9-11.5h-3.5v16.2H743.5z M734.5,399.6c0-1.1,0.4-1.6,1.3-1.6
	c0.9,0,1.3,0.5,1.3,1.6v8.7c0,1.1-0.4,1.6-1.3,1.6c-0.9,0-1.3-0.5-1.3-1.6V399.6z M732.9,411.2c0.7,0.7,1.6,1.1,2.9,1.1
	c1.2,0,2.2-0.4,2.9-1.1c0.7-0.7,1-1.7,1-3v-8.4c0-1.3-0.3-2.3-1-3c-0.7-0.7-1.6-1.1-2.9-1.1c-1.2,0-2.2,0.4-2.9,1.1
	c-0.7,0.7-1,1.7-1,3v8.4C731.9,409.5,732.3,410.5,732.9,411.2 M725.1,412.1v-5l0.8-1.5l2.5,6.5h2.6l-3.5-9l3.5-7.2h-2.5l-3.3,7.1
	v-7.1h-2.5v16.2H725.1z M712.1,399.9c0-0.6,0.1-1,0.3-1.3c0.2-0.3,0.5-0.4,1-0.4h1.2v5h-1c-0.5,0-0.9-0.1-1.1-0.4
	c-0.3-0.3-0.4-0.7-0.4-1.3V399.9z M711.8,412.1c0.1-0.2,0.1-0.3,0.1-0.4c0-0.1,0-0.3,0.1-0.5c0-0.3,0-0.6,0-1v-2.5
	c0-0.7,0.1-1.3,0.4-1.6c0.3-0.3,0.7-0.5,1.3-0.5h0.9v6.6h2.5v-16.2h-3.8c-1.3,0-2.3,0.3-2.9,0.9c-0.6,0.6-0.9,1.5-0.9,2.8v1.3
	c0,1.7,0.6,2.8,1.7,3.3c-0.6,0.3-1,0.7-1.3,1.2c-0.3,0.6-0.4,1.3-0.4,2.2v2.5c0,0.9-0.1,1.5-0.2,2H711.8z M704.2,398.8l1.2,8.2h-2.5
	L704.2,398.8z M702.2,412.1l0.4-2.9h3.1l0.4,2.9h2.5l-2.6-16.2h-3.9l-2.6,16.2H702.2z M689.6,412.1c1.3,0,2.2-0.3,2.8-0.9
	c0.6-0.6,0.9-1.7,0.9-3.2l0.3-9.8h2.2v13.9h2.5v-16.2H691l-0.3,12.2c0,0.4,0,0.7-0.1,0.9c-0.1,0.2-0.1,0.4-0.3,0.5
	c-0.1,0.1-0.3,0.2-0.5,0.2c-0.2,0-0.4,0-0.7,0v2.3H689.6z M682.6,412.1l2.1-7.4l1-4v11.4h2.5v-16.2h-3.1l-2.1,6.7l-0.9,3.6v-10.3
	H680v16.2H682.6z M667.8,412.1l2.3-7.2l0.6,1.3v6h2.5v-5.9l0.6-1.2l2.3,7.2h2.5l-3.1-9.6l3.1-6.6h-2.5l-3,6.6v-6.6h-2.5v6.6l-3-6.6
	h-2.5l3.2,6.6l-3.2,9.6H667.8z"/>
<path class="st2" d="M537,356.1v12.4h2.5v-16.2h-1.7c-0.1,0.3-0.2,0.5-0.3,0.6c-0.1,0.2-0.2,0.3-0.3,0.5c-0.1,0.2-0.3,0.4-0.5,0.5
	c-0.2,0.1-0.4,0.2-0.7,0.3c-0.3,0.1-0.6,0.1-1,0.1v1.8H537z M531.7,366.1h-2.5v2.3h2.5V366.1z M527.3,368.4v-2.3h-4.8
	c0-0.1,0-0.2,0-0.3c0-0.4,0.1-0.7,0.3-1.1c0.2-0.4,0.4-0.7,0.7-1.1c0.3-0.4,0.6-0.7,1-1.1c0.4-0.4,0.7-0.8,1.1-1.3
	c0.4-0.4,0.7-0.9,1-1.4c0.3-0.5,0.5-1.1,0.7-1.7c0.2-0.6,0.3-1.3,0.3-2c0-1.3-0.3-2.3-1-3c-0.6-0.7-1.6-1.1-2.8-1.1
	s-2.2,0.4-2.8,1.1c-0.7,0.7-1,1.7-1,3v1.6h2.4V356c0-1.1,0.4-1.6,1.3-1.6c0.4,0,0.8,0.1,1,0.4c0.2,0.3,0.3,0.8,0.3,1.4
	c0,0.6-0.1,1.2-0.3,1.8c-0.2,0.6-0.4,1-0.7,1.5c-0.3,0.4-0.6,0.8-1,1.2c-0.4,0.4-0.7,0.8-1.1,1.2c-0.4,0.4-0.7,0.8-1,1.2
	c-0.3,0.4-0.5,0.9-0.7,1.5c-0.2,0.6-0.3,1.2-0.3,1.8v2H527.3z M514.3,356.1v12.4h2.5v-16.2h-1.7c-0.1,0.3-0.2,0.5-0.3,0.6
	c-0.1,0.2-0.2,0.3-0.3,0.5c-0.1,0.2-0.3,0.4-0.5,0.5c-0.2,0.1-0.4,0.2-0.7,0.3c-0.3,0.1-0.6,0.1-1,0.1v1.8H514.3z"/>
<path class="st2" d="M583.5,327.4l1.2,8.2h-2.5L583.5,327.4z M581.5,340.7l0.4-2.9h3.1l0.4,2.9h2.5l-2.6-16.2h-3.9l-2.6,16.2H581.5z
	 M573.3,326.8v13.9h2.5v-13.9h2.7v-2.3h-7.9v2.3H573.3z M565.9,327.4l1.2,8.2h-2.5L565.9,327.4z M563.9,340.7l0.4-2.9h3.1l0.4,2.9
	h2.5l-2.6-16.2h-3.9l-2.6,16.2H563.9z M554.7,340.7v-6.9h2.9v6.9h2.5v-16.2h-2.5v6.9h-2.9v-6.9h-2.5v16.2H554.7z M541.8,340.7v-11.4
	l1.9,11.4h2.4l1.8-11.6v11.6h2.5v-16.2h-3.7L545,336l-1.9-11.5h-3.5v16.2H541.8z M532.8,328.2c0-1.1,0.4-1.6,1.3-1.6
	c0.9,0,1.3,0.5,1.3,1.6v8.7c0,1.1-0.4,1.6-1.3,1.6c-0.9,0-1.3-0.5-1.3-1.6V328.2z M531.2,339.8c0.7,0.7,1.6,1.1,2.9,1.1
	c1.2,0,2.2-0.4,2.9-1.1c0.7-0.7,1-1.7,1-3v-8.4c0-1.3-0.3-2.3-1-3c-0.7-0.7-1.6-1.1-2.9-1.1c-1.2,0-2.2,0.4-2.9,1.1
	c-0.7,0.7-1,1.7-1,3v8.4C530.2,338.1,530.6,339.1,531.2,339.8 M523.4,340.7v-5l0.8-1.5l2.5,6.5h2.6l-3.5-9l3.5-7.2h-2.5l-3.3,7.1
	v-7.1h-2.5v16.2H523.4z M510.4,328.5c0-0.6,0.1-1,0.3-1.3c0.2-0.3,0.5-0.4,1-0.4h1.2v5h-1c-0.5,0-0.9-0.1-1.1-0.4
	c-0.3-0.3-0.4-0.7-0.4-1.3V328.5z M510.1,340.7c0.1-0.2,0.1-0.3,0.1-0.4c0-0.1,0-0.3,0.1-0.5c0-0.3,0-0.6,0-1v-2.5
	c0-0.7,0.1-1.3,0.4-1.6c0.3-0.3,0.7-0.5,1.3-0.5h0.9v6.6h2.5v-16.2h-3.8c-1.3,0-2.3,0.3-2.9,0.9c-0.6,0.6-0.9,1.5-0.9,2.8v1.3
	c0,1.7,0.6,2.8,1.7,3.3c-0.6,0.3-1,0.7-1.3,1.2c-0.3,0.6-0.4,1.3-0.4,2.2v2.5c0,0.9-0.1,1.5-0.2,2H510.1z M502.5,327.4l1.2,8.2h-2.5
	L502.5,327.4z M500.5,340.7l0.4-2.9h3.1l0.4,2.9h2.5l-2.6-16.2h-3.9l-2.6,16.2H500.5z M487.9,340.7c1.3,0,2.2-0.3,2.8-0.9
	c0.6-0.6,0.9-1.7,0.9-3.2l0.3-9.8h2.2v13.9h2.5v-16.2h-7.3l-0.3,12.2c0,0.4,0,0.7-0.1,0.9c-0.1,0.2-0.1,0.4-0.3,0.5
	c-0.1,0.1-0.3,0.2-0.5,0.2c-0.2,0-0.4,0-0.7,0v2.3H487.9z M480.9,340.7l2.1-7.4l1-4v11.4h2.5v-16.2h-3.1l-2.1,6.7l-0.9,3.6v-10.3
	h-2.3v16.2H480.9z M466.1,340.7l2.3-7.2l0.6,1.3v6h2.5v-5.9l0.6-1.2l2.3,7.2h2.5l-3.1-9.6l3.1-6.6h-2.5l-3,6.6v-6.6h-2.5v6.6l-3-6.6
	h-2.5l3.2,6.6l-3.2,9.6H466.1z"/>
<path class="st2" d="M747,379c1.6,1.6,3.8,2.4,6.6,2.4c2.8,0,5-0.8,6.5-2.4c1.5-1.6,2.2-3.9,2.2-6.9v-2.9c0-4-1.4-6.6-4.1-7.8
	c2.7-1.1,4.1-3.7,4.1-7.6v-1c0-3-0.7-5.3-2.2-6.9c-1.5-1.6-3.6-2.4-6.5-2.4c-2.8,0-5,0.8-6.6,2.4c-1.6,1.6-2.3,3.9-2.3,6.9v2h5.8
	v-2.4c0-2.4,1-3.6,3-3.6c1,0,1.7,0.3,2.3,0.9c0.5,0.6,0.8,1.7,0.8,3.3v2.1c0,1.4-0.3,2.4-0.9,3c-0.6,0.6-1.5,0.9-2.6,0.9h-2.3v5.3h2
	c1.3,0,2.3,0.4,2.9,1.1c0.6,0.7,0.9,1.9,0.9,3.6v2.9c0,1.6-0.3,2.6-0.8,3.3c-0.5,0.6-1.3,0.9-2.3,0.9c-2,0-3-1.2-3-3.7v-3.4h-5.8
	v3.1C744.7,375.1,745.4,377.4,747,379 M741,375.7h-5.8v5.3h5.8V375.7z M716.3,379c1.6,1.6,3.8,2.4,6.6,2.4c2.8,0,5-0.8,6.5-2.4
	c1.5-1.6,2.2-3.9,2.2-6.9v-8.3c0-2.8-0.5-4.8-1.6-6.3c-1.1-1.4-2.7-2.2-4.8-2.2c-2.3,0-4,0.9-5.1,2.7l0.5-8.8h10.1V344h-15.6
	l-1.1,21.5h5.8v-1.1c0-2.4,1-3.6,3-3.6c2,0,3,1.2,3,3.6v8.1c0,2.4-1,3.6-3,3.6c-2,0-3-1.2-3-3.6v-3.4H714v3.1
	C714,375.1,714.7,377.4,716.3,379 M698.7,365.9c0-2.4,1-3.6,3-3.6c2,0,3,1.2,3,3.6v6.7c0,2.4-1,3.6-3,3.6c-2,0-3-1.2-3-3.6V365.9z
	 M695.2,379c1.5,1.6,3.7,2.4,6.5,2.4c2.8,0,5-0.8,6.5-2.4c1.5-1.6,2.3-3.9,2.3-6.9v-6.8c0-2.8-0.5-4.9-1.6-6.3
	c-1.1-1.4-2.7-2.2-4.8-2.2c-2.6,0-4.4,1.1-5.4,3.3v-6.8c0-1.7,0.3-2.9,0.8-3.5c0.5-0.7,1.3-1,2.4-1c2,0,3,1.2,3,3.6v1.3h5.5v-1
	c0-3-0.7-5.3-2.2-6.9c-1.5-1.6-3.6-2.4-6.4-2.4c-5.9,0-8.9,3.2-8.9,9.6v18.9C692.9,375.1,693.7,377.4,695.2,379"/>
<ellipse transform="matrix(0.9732 -0.2298 0.2298 0.9732 -49.9662 175.2241)" class="st1" cx="727.5" cy="302.2" rx="32.4" ry="32.4"/>
<path class="st2" d="M730.6,315.7c1.1,1.2,2.8,1.8,4.9,1.8c2.2,0,3.8-0.6,5-1.8c1.2-1.2,1.8-3,1.8-5.2v-3.7h-4.4v4
	c0,1.8-0.8,2.7-2.3,2.7c-1.5,0-2.3-0.9-2.3-2.7v-15.1c0-1.8,0.8-2.8,2.3-2.8c1.5,0,2.3,0.9,2.3,2.8v3h4.4v-2.7c0-2.3-0.6-4-1.8-5.2
	s-2.9-1.8-5-1.8c-2.2,0-3.8,0.6-4.9,1.8s-1.7,3-1.7,5.2v14.6C728.9,312.7,729.5,314.5,730.6,315.7 M715,315.7c1.2,1.2,2.8,1.8,5,1.8
	c2.1,0,3.8-0.6,4.9-1.8c1.1-1.2,1.7-3,1.7-5.2v-2.2c0-3-1-5-3.1-5.9c2-0.8,3.1-2.8,3.1-5.8v-0.7c0-2.3-0.6-4-1.7-5.2
	c-1.1-1.2-2.7-1.8-4.9-1.8c-2.1,0-3.8,0.6-5,1.8s-1.8,3-1.8,5.2v1.5h4.4v-1.8c0-1.8,0.8-2.8,2.3-2.8c0.8,0,1.3,0.2,1.7,0.7
	c0.4,0.5,0.6,1.3,0.6,2.5v1.6c0,1.1-0.2,1.8-0.7,2.3c-0.4,0.4-1.1,0.7-2,0.7h-1.7v4h1.5c1,0,1.8,0.3,2.2,0.8
	c0.4,0.5,0.7,1.5,0.7,2.7v2.2c0,1.2-0.2,2-0.6,2.5c-0.4,0.5-1,0.7-1.7,0.7c-1.5,0-2.3-0.9-2.3-2.8v-2.6h-4.4v2.3
	C713.2,312.7,713.8,314.5,715,315.7"/>
<path class="st2" d="M536.4,703.9v-2.3h-4.8c0-0.1,0-0.2,0-0.4c0-0.4,0.1-0.7,0.3-1.1c0.2-0.4,0.4-0.7,0.7-1.1
	c0.3-0.4,0.6-0.7,1-1.1c0.4-0.4,0.7-0.8,1.1-1.3c0.4-0.4,0.7-0.9,1-1.4c0.3-0.5,0.5-1.1,0.7-1.7c0.2-0.6,0.3-1.3,0.3-2
	c0-1.3-0.3-2.3-1-3c-0.6-0.7-1.6-1.1-2.8-1.1s-2.2,0.4-2.8,1.1c-0.7,0.7-1,1.7-1,3v1.6h2.4v-1.7c0-1.1,0.4-1.6,1.3-1.6
	c0.4,0,0.8,0.1,1,0.4c0.2,0.3,0.3,0.8,0.3,1.4c0,0.6-0.1,1.2-0.3,1.8c-0.2,0.6-0.4,1-0.7,1.5c-0.3,0.4-0.6,0.8-1,1.2
	c-0.4,0.4-0.7,0.8-1.1,1.2c-0.4,0.4-0.7,0.8-1,1.2c-0.3,0.4-0.5,0.9-0.7,1.5c-0.2,0.6-0.3,1.2-0.3,1.8v2H536.4z M527.3,701.5h-2.5
	v2.3h2.5V701.5z M518,697.2c0-1.1,0.4-1.6,1.3-1.6c0.9,0,1.3,0.5,1.3,1.6v2.9c0,1.1-0.4,1.6-1.3,1.6c-0.9,0-1.3-0.5-1.3-1.6V697.2z
	 M516.4,703c0.7,0.7,1.6,1.1,2.9,1.1c1.2,0,2.2-0.4,2.9-1.1s1-1.7,1-3v-3c0-1.2-0.2-2.1-0.7-2.8c-0.5-0.6-1.2-0.9-2.1-0.9
	c-1.1,0-1.9,0.5-2.4,1.4v-3c0-0.7,0.1-1.3,0.3-1.5c0.2-0.3,0.6-0.4,1.1-0.4c0.9,0,1.3,0.5,1.3,1.6v0.6h2.4v-0.4c0-1.3-0.3-2.3-1-3
	c-0.6-0.7-1.6-1.1-2.8-1.1c-2.6,0-3.9,1.4-3.9,4.2v8.3C515.4,701.3,515.8,702.3,516.4,703"/>
<path class="st2" d="M570,662.8l1.2,8.2h-2.5L570,662.8z M568.1,676.1l0.4-2.9h3.1l0.4,2.9h2.5l-2.6-16.2h-3.9l-2.6,16.2H568.1z
	 M564.3,676.1v-16.2h-2.5v13.9h-2.2v-13.9H557v13.9h-2.2v-13.9h-2.5v16.2H564.3z M545,676.1l2.1-7.4l1-4v11.4h2.5v-16.2h-3.1
	l-2.1,6.7l-0.9,3.6v-10.3h-2.3v16.2H545z M535.1,676.1v-6.9h2.9v6.9h2.5v-16.2H538v6.9h-2.9v-6.9h-2.5v16.2H535.1z M530.8,666.8
	h-4.6v2.3h4.6V666.8z M519.4,663.9c0-0.6,0.1-1,0.3-1.3c0.2-0.3,0.5-0.4,1-0.4h1.2v5h-1c-0.5,0-0.9-0.1-1.1-0.4
	c-0.3-0.3-0.4-0.7-0.4-1.3V663.9z M519.1,676.1c0.1-0.2,0.1-0.3,0.1-0.4c0-0.1,0-0.3,0.1-0.5c0-0.3,0-0.6,0-1v-2.5
	c0-0.7,0.1-1.3,0.4-1.6c0.3-0.3,0.7-0.5,1.3-0.5h0.9v6.6h2.5v-16.2h-3.8c-1.3,0-2.3,0.3-2.9,0.9c-0.6,0.6-0.9,1.5-0.9,2.8v1.3
	c0,1.7,0.6,2.8,1.7,3.3c-0.6,0.3-1,0.7-1.3,1.2c-0.3,0.6-0.4,1.3-0.4,2.2v2.5c0,0.9-0.1,1.5-0.2,2H519.1z M509.7,676.1v-6.9h2.9v6.9
	h2.5v-16.2h-2.5v6.9h-2.9v-6.9h-2.5v16.2H509.7z M499.2,676.1l2-6l2,6h2.5l-2.8-8.3l2.7-7.9h-2.2l-2,6l-1.9-6h-2.5l2.7,7.9l-2.8,8.4
	H499.2z M490.6,672.4l0,0.1c-0.1,0.6-0.3,0.9-0.7,1.1c-0.4,0.2-0.9,0.2-1.6,0.2v2.3c0.7,0,1.3,0,1.8-0.1c0.5-0.1,0.9-0.2,1.3-0.4
	c0.4-0.2,0.7-0.5,0.9-0.9c0.2-0.4,0.5-0.8,0.6-1.2c0.2-0.4,0.3-1,0.4-1.6l2.7-12.1h-2.5l-1.2,5.6l-0.6,3.8l-0.8-3.8l-1.4-5.5H487
	L490.6,672.4z M480.7,676.1v-5l0.8-1.5l2.5,6.5h2.6l-3.5-9l3.5-7.2h-2.5l-3.3,7.1v-7.1h-2.5v16.2H480.7z"/>
<path class="st2" d="M729,565.7c0.7,0.7,1.6,1.1,2.9,1.1c1.2,0,2.2-0.4,2.8-1.1c0.6-0.7,1-1.7,1-3v-1.3c0-1.8-0.6-2.9-1.8-3.4
	c1.2-0.5,1.8-1.6,1.8-3.3v-0.4c0-1.3-0.3-2.3-1-3c-0.6-0.7-1.6-1.1-2.8-1.1c-1.2,0-2.2,0.4-2.9,1.1c-0.7,0.7-1,1.7-1,3v0.9h2.5v-1
	c0-1.1,0.4-1.6,1.3-1.6c0.4,0,0.8,0.1,1,0.4c0.2,0.3,0.3,0.8,0.3,1.4v0.9c0,0.6-0.1,1.1-0.4,1.3c-0.3,0.3-0.6,0.4-1.1,0.4h-1v2.3
	h0.9c0.6,0,1,0.2,1.3,0.5c0.3,0.3,0.4,0.8,0.4,1.6v1.3c0,0.7-0.1,1.2-0.3,1.4c-0.2,0.3-0.6,0.4-1,0.4c-0.9,0-1.3-0.5-1.3-1.6v-1.5
	H728v1.3C728,564,728.3,565,729,565.7 M726.4,564.2h-2.5v2.3h2.5V564.2z M719.6,552.7l-3.7,13.9h2.5l3.8-14v-2.2h-7.6v2.3H719.6z"/>
<path class="st2" d="M759.2,526.6c0-0.6,0.1-1,0.3-1.3c0.2-0.3,0.5-0.4,1-0.4h1.2v5h-1c-0.5,0-0.9-0.1-1.1-0.4
	c-0.3-0.3-0.4-0.7-0.4-1.3V526.6z M758.9,538.8c0.1-0.2,0.1-0.3,0.1-0.4c0-0.1,0-0.3,0.1-0.5c0-0.3,0-0.6,0-1v-2.5
	c0-0.7,0.1-1.3,0.4-1.6c0.3-0.3,0.7-0.5,1.3-0.5h0.9v6.6h2.5v-16.2h-3.8c-1.3,0-2.3,0.3-2.9,0.9c-0.6,0.6-0.9,1.5-0.9,2.8v1.3
	c0,1.7,0.6,2.8,1.7,3.3c-0.6,0.3-1,0.7-1.3,1.2s-0.4,1.3-0.4,2.2v2.5c0,0.9-0.1,1.5-0.2,2H758.9z M751.3,525.5l1.2,8.2h-2.5
	L751.3,525.5z M749.3,538.8l0.4-2.9h3.1l0.4,2.9h2.5l-2.6-16.2h-3.9l-2.6,16.2H749.3z M735.2,538.8l2.3-7.2l0.6,1.3v6h2.5v-5.9
	l0.6-1.2l2.3,7.2h2.5l-3.1-9.6l3.1-6.6h-2.5l-3,6.6v-6.6h-2.5v6.6l-3-6.6h-2.5l3.2,6.6l-3.2,9.6H735.2z M726.6,526.3
	c0-1.1,0.4-1.6,1.3-1.6c0.9,0,1.3,0.5,1.3,1.6v8.7c0,1.1-0.4,1.6-1.3,1.6c-0.9,0-1.3-0.5-1.3-1.6V526.3z M725.1,537.9
	c0.7,0.7,1.6,1.1,2.9,1.1c1.2,0,2.2-0.4,2.9-1.1c0.7-0.7,1-1.7,1-3v-8.4c0-1.3-0.3-2.3-1-3c-0.7-0.7-1.6-1.1-2.9-1.1
	c-1.2,0-2.2,0.4-2.9,1.1c-0.7,0.7-1,1.7-1,3v8.4C724.1,536.2,724.4,537.2,725.1,537.9 M716.3,538.8l2-6l2,6h2.5l-2.8-8.3l2.7-7.9
	h-2.2l-2,6l-1.9-6h-2.5l2.7,7.9l-2.8,8.4H716.3z M707.1,538.8l2.1-7.4l1-4v11.4h2.5v-16.2h-3.1l-2.1,6.7l-0.9,3.6v-10.3h-2.3v16.2
	H707.1z M698.3,524.9h1.2c0.4,0,0.7,0.1,0.9,0.3c0.2,0.2,0.3,0.6,0.3,1.2v2.4c0,0.6-0.1,1-0.3,1.2c-0.2,0.2-0.5,0.4-0.9,0.4h-1.2
	V524.9z M698.3,538.8v-6.1h1.2c1.3,0,2.2-0.3,2.8-1c0.6-0.7,1-1.7,1-3v-2.1c0-1.3-0.3-2.3-1-3c-0.6-0.7-1.6-1-2.8-1h-3.7v16.2H698.3
	z M688.4,538.8v-13.9h2.9v13.9h2.5v-16.2h-8v16.2H688.4z"/>
<line class="st3" x1="429.5" y1="719.1" x2="622.1" y2="719.1"/>
<rect x="748" y="60" class="st4" width="164" height="64"/>
<rect x="836" y="253" class="st4" width="237" height="495"/>
<rect x="776" y="616" class="st4" width="99" height="174"/>
<rect x="632" y="892" class="st4" width="73" height="112"/>
</svg>
