<?xml version="1.0" encoding="utf-8"?>
<!-- Generator: Adobe Illustrator 27.4.1, SVG Export Plug-In . SVG Version: 6.00 Build 0)  -->
<svg version="1.1" id="Слой_1" xmlns="http://www.w3.org/2000/svg" xmlns:xlink="http://www.w3.org/1999/xlink" x="0px" y="0px"
	 viewBox="0 0 1280 1024" style="enable-background:new 0 0 1280 1024;" xml:space="preserve">
<style type="text/css">
	.st0{fill:#FFF5A4;}
	.st1{fill:#373437;}
	.st2{fill:none;stroke:#373437;}
	.st3{fill:none;stroke:#373437;stroke-miterlimit:4;}
	.st4{fill:none;stroke:#373437;stroke-miterlimit:3.9999;}
	.st5{fill:none;stroke:#373437;stroke-miterlimit:4.0001;}
</style>
<rect x="447.9" y="220.6" class="st0" width="393.3" height="361.2"/>
<rect x="652.6" y="344.3" class="st0" width="188.6" height="558.8"/>
<rect x="841.7" y="133" class="st1" width="24.9" height="794.2"/>
<rect x="841.7" y="133" class="st2" width="24.9" height="794.2"/>
<rect x="457.9" y="106.1" class="st2" width="184.6" height="5.8"/>
<polygon class="st2" points="650.4,106.1 650.4,111.8 847.5,140.8 847.5,135 "/>
<rect x="797.9" y="196.3" class="st1" width="60.9" height="5.8"/>
<rect x="797.9" y="196.3" class="st2" width="60.9" height="5.8"/>
<rect x="595.2" y="196.3" class="st1" width="60.9" height="5.8"/>
<rect x="595.2" y="196.3" class="st2" width="60.9" height="5.8"/>
<rect x="730.5" y="196.3" class="st2" width="83.4" height="5.8"/>
<rect x="527.8" y="196.3" class="st2" width="83.4" height="5.8"/>
<rect x="802.9" y="201" class="st1" width="56" height="18.8"/>
<rect x="802.9" y="201" class="st2" width="56" height="18.8"/>
<rect x="600.2" y="201" class="st1" width="56" height="18.8"/>
<rect x="600.2" y="201" class="st2" width="56" height="18.8"/>
<rect x="636.2" y="196.3" class="st1" width="60.9" height="5.8"/>
<rect x="636.2" y="196.3" class="st2" width="60.9" height="5.8"/>
<rect x="636.2" y="201" class="st1" width="56" height="18.8"/>
<rect x="636.2" y="201" class="st2" width="56" height="18.8"/>
<rect x="433.5" y="196.3" class="st1" width="60.9" height="5.8"/>
<rect x="433.5" y="196.3" class="st2" width="60.9" height="5.8"/>
<rect x="433.5" y="201" class="st1" width="56" height="18.8"/>
<rect x="433.5" y="201" class="st2" width="56" height="18.8"/>
<rect x="735.5" y="202" class="st2" width="78.4" height="17.7"/>
<rect x="532.8" y="202" class="st2" width="78.4" height="17.7"/>
<rect x="830.5" y="206" transform="matrix(0.7071 -0.7071 0.7071 0.7071 87.9419 659.4069)" class="st1" width="18.8" height="35.1"/>
<rect x="830.5" y="206" transform="matrix(0.7071 -0.7071 0.7071 0.7071 87.9419 659.4069)" class="st3" width="18.8" height="35.1"/>
<path class="st2" d="M735.1,202.5c0,0-2,8.3-4.1,14s-4.7,8.8-4.7,8.8l-37.1-21.4l1.1-1.8l37.3,21"/>
<path class="st2" d="M532.4,202.5c0,0-2,8.3-4.1,14s-4.7,8.8-4.7,8.8l-37.1-21.4l1.1-1.8l37.3,21"/>
<rect x="793.8" y="921.5" class="st1" width="60.9" height="5.8"/>
<rect x="793.8" y="921.5" class="st2" width="60.9" height="5.8"/>
<rect x="664.8" y="921.5" class="st2" width="145" height="5.8"/>
<rect x="798.8" y="903.7" class="st1" width="56" height="18.8"/>
<rect x="798.8" y="903.7" class="st2" width="56" height="18.8"/>
<rect x="641.5" y="921.5" class="st1" width="51.5" height="5.8"/>
<rect x="638.7" y="921.5" class="st2" width="54.3" height="5.8"/>
<rect x="641.5" y="903.7" class="st1" width="46.6" height="18.8"/>
<rect x="647.5" y="903.7" class="st2" width="40.6" height="18.8"/>
<rect x="673.4" y="903.7" class="st2" width="136.4" height="17.7"/>
<rect x="818.2" y="890.5" transform="matrix(0.7071 -0.7071 0.7071 0.7071 -391.5642 854.5597)" class="st1" width="35.1" height="18.8"/>
<rect x="818.2" y="890.5" transform="matrix(0.7071 -0.7071 0.7071 0.7071 -391.5642 854.5597)" class="st3" width="35.1" height="18.8"/>
<path class="st2" d="M588.4,461.4c0,0,0-7.2,3.2-16.3c2.7-7.5,8-14.6,8-14.6l44.4,25.3l-1.1,1.8l-44.5-25.3"/>
<path class="st2" d="M437.6,512.1c0,0,7.2,0,16.3,3.2c7.5,2.7,14.6,8,14.6,8l-25.3,44.4l-1.8-1.1l25.3-44.5"/>
<path class="st2" d="M701.4,427c0,0,0-7.2-3.2-16.3c-2.7-7.5-8-14.6-8-14.6l-44.4,25.3l1.1,1.8l44.5-25.3"/>
<path class="st2" d="M701.7,583.1c0,0,0,7.2-3.2,16.3c-2.7,7.5-8,14.6-8,14.6l-44.4-25.3l1.1-1.8l44.5,25.3"/>
<rect x="641.5" y="207.1" class="st1" width="9.2" height="279.2"/>
<rect x="641.5" y="207.1" class="st2" width="9.2" height="279.2"/>
<rect x="641.5" y="101.4" class="st1" width="9.2" height="56"/>
<rect x="641.5" y="101.4" class="st2" width="9.2" height="56"/>
<rect x="638.7" y="544.3" class="st1" width="13.3" height="383"/>
<rect x="638.7" y="544.3" class="st2" width="13.3" height="383"/>
<rect x="436.3" y="453.1" class="st1" width="152.5" height="9.2"/>
<rect x="436.3" y="453.1" class="st2" width="152.5" height="9.2"/>
<rect x="432.8" y="101.4" class="st1" width="14.6" height="410.4"/>
<rect x="436.2" y="562.8" class="st1" width="11.2" height="28.8"/>
<rect x="702" y="417.3" class="st1" width="152.5" height="9.2"/>
<rect x="702" y="417.3" class="st2" width="152.5" height="9.2"/>
<rect x="702" y="582.4" class="st1" width="152.5" height="9.2"/>
<rect x="702" y="582.4" class="st2" width="152.5" height="9.2"/>
<rect x="438.2" y="582.4" class="st1" width="205.9" height="9.2"/>
<rect x="438.2" y="582.4" class="st2" width="205.9" height="9.2"/>
<rect x="836.5" y="480" class="st1" width="18" height="101.2"/>
<rect x="836.5" y="480" class="st2" width="18" height="101.2"/>
<rect x="437.7" y="101.4" class="st1" width="33" height="104.5"/>
<path class="st1" d="M655.7,533.8c0.5,0.5,1.3,0.8,2.2,0.8s1.7-0.3,2.2-0.8s0.7-1.3,0.7-2.3v-1c0-1.4-0.5-2.2-1.4-2.6
	c0.9-0.4,1.4-1.2,1.4-2.6V525c0-1-0.2-1.8-0.7-2.3s-1.2-0.8-2.2-0.8s-1.7,0.3-2.2,0.8s-0.8,1.3-0.8,2.3v0.7h2v-0.8
	c0-0.8,0.3-1.2,1-1.2c0.3,0,0.6,0.1,0.8,0.3s0.3,0.6,0.3,1.1v0.7c0,0.5-0.1,0.8-0.3,1s-0.5,0.3-0.9,0.3H657v1.8h0.7
	c0.5,0,0.8,0.1,1,0.4c0.2,0.2,0.3,0.7,0.3,1.2v1c0,0.5-0.1,0.9-0.3,1.1c-0.2,0.2-0.4,0.3-0.8,0.3c-0.7,0-1-0.4-1-1.2v-1.2h-2v1
	C654.9,532.5,655.1,533.2,655.7,533.8 M653.6,532.6h-2v1.8h2V532.6z M645.3,533.8c0.5,0.5,1.3,0.8,2.2,0.8s1.7-0.3,2.2-0.8
	s0.7-1.3,0.7-2.3v-1c0-1.4-0.5-2.2-1.4-2.6c0.9-0.4,1.4-1.2,1.4-2.6V525c0-1-0.2-1.8-0.7-2.3s-1.2-0.8-2.2-0.8s-1.7,0.3-2.2,0.8
	s-0.8,1.3-0.8,2.3v0.7h2v-0.8c0-0.8,0.3-1.2,1-1.2c0.3,0,0.6,0.1,0.8,0.3s0.3,0.6,0.3,1.1v0.7c0,0.5-0.1,0.8-0.3,1s-0.5,0.3-0.9,0.3
	h-0.8v1.8h0.7c0.5,0,0.8,0.1,1,0.4c0.2,0.2,0.3,0.7,0.3,1.2v1c0,0.5-0.1,0.9-0.3,1.1c-0.2,0.2-0.4,0.3-0.8,0.3c-0.7,0-1-0.4-1-1.2
	v-1.2h-2v1C644.5,532.5,644.7,533.2,645.3,533.8"/>
<path class="st1" d="M674.3,502.2h0.9c0.3,0,0.6,0.1,0.7,0.3c0.2,0.2,0.2,0.5,0.2,0.9v1.9c0,0.4-0.1,0.7-0.2,0.9
	c-0.2,0.2-0.4,0.3-0.7,0.3h-0.9V502.2z M674.3,513v-4.7h0.9c1,0,1.7-0.3,2.2-0.8s0.7-1.3,0.7-2.3v-1.6c0-1-0.2-1.8-0.7-2.3
	s-1.2-0.8-2.2-0.8h-2.9V513H674.3z M667,503.3c0-0.8,0.3-1.2,1-1.2s1,0.4,1,1.2v6.8c0,0.8-0.3,1.2-1,1.2s-1-0.4-1-1.2V503.3z
	 M665.8,512.3c0.5,0.5,1.3,0.8,2.2,0.8c1,0,1.7-0.3,2.2-0.8s0.8-1.3,0.8-2.3v-6.5c0-1-0.3-1.8-0.8-2.3s-1.3-0.8-2.2-0.8
	c-1,0-1.7,0.3-2.2,0.8s-0.8,1.3-0.8,2.3v6.5C665,511,665.3,511.8,665.8,512.3 M659.1,510.6c0.1-0.2,0.1-0.6,0.2-1.1l0.4-7.3h1.7v9
	h-2.6C658.9,511,659,510.8,659.1,510.6 M658,514.6V513h4.2v1.7h2v-3.4h-0.9v-10.7h-5.6l-0.4,9.1c0,0.4-0.1,0.7-0.1,0.9
	c-0.1,0.2-0.2,0.5-0.4,0.7H656v3.4h2V514.6z M650.9,513l1.7-5.7l0.8-3.1v8.8h2v-12.5H653l-1.6,5.2l-0.7,2.8v-7.9h-1.8V513H650.9z
	 M644.1,502.2h0.9c0.3,0,0.6,0.1,0.7,0.3c0.2,0.2,0.2,0.5,0.2,0.9v1.9c0,0.4-0.1,0.7-0.2,0.9c-0.2,0.2-0.4,0.3-0.7,0.3h-0.9V502.2z
	 M644.1,513v-4.7h0.9c1,0,1.7-0.3,2.2-0.8s0.7-1.3,0.7-2.3v-1.6c0-1-0.2-1.8-0.7-2.3s-1.2-0.8-2.2-0.8h-2.9V513H644.1z M636.8,503.3
	c0-0.8,0.3-1.2,1-1.2s1,0.4,1,1.2v6.8c0,0.8-0.3,1.2-1,1.2s-1-0.4-1-1.2V503.3z M635.6,512.3c0.5,0.5,1.3,0.8,2.2,0.8
	s1.7-0.3,2.2-0.8s0.8-1.3,0.8-2.3v-6.5c0-1-0.3-1.8-0.8-2.3s-1.3-0.8-2.2-0.8s-1.7,0.3-2.2,0.8s-0.8,1.3-0.8,2.3v6.5
	C634.8,511,635.1,511.8,635.6,512.3 M629.6,513v-3.8l0.6-1.1l1.9,5h2l-2.7-6.9l2.7-5.6h-2l-2.6,5.5v-5.5h-2V513H629.6z"/>
<path class="st2" d="M724.6,462.9c0,0-2.7,0.3-10.2-2.4c-6.3-2.2-12.2-6.7-12.2-6.7l17.9-30.9l1.5,0.9l-17.9,31"/>
<path class="st2" d="M724.6,513.7c0,0-2.7-0.3-10.2,2.4c-6.3,2.2-12.2,6.7-12.2,6.7l17.9,30.9l1.5-0.9l-17.9-31"/>
<rect x="718.1" y="547.3" class="st1" width="6" height="35.1"/>
<rect x="718.1" y="547.3" class="st2" width="6" height="35.1"/>
<rect x="721.7" y="475.9" class="st1" width="127.2" height="6"/>
<rect x="721.7" y="475.9" class="st2" width="127.2" height="6"/>
<rect x="718.1" y="463.2" class="st1" width="6" height="51.8"/>
<rect x="718.1" y="463.2" class="st2" width="6" height="51.8"/>
<rect x="824.5" y="426.8" class="st2" width="16.8" height="47.9"/>
<line class="st2" x1="838.7" y1="474.5" x2="838.7" y2="426.5"/>
<polyline class="st2" points="838.7,472.2 826.6,471.1 826.6,440.8 838.7,439.5 838.7,437.5 826.4,436.2 826.4,429.4 838.7,427.9 
	"/>
<rect x="469.8" y="435.2" class="st2" width="49.8" height="16.8"/>
<line class="st2" x1="469.9" y1="437.8" x2="519.8" y2="437.8"/>
<polyline class="st2" points="472.3,437.8 473.4,449.9 504.9,449.9 506.3,437.8 508.4,437.8 509.8,450.1 516.8,450.1 518.3,437.8 
	"/>
<path class="st1" d="M778.1,450.5c0,6.1,5,11.1,11.1,11.1h16c1.1,0,1.9-0.9,1.9-1.9v-18.3c0-1.1-0.9-1.9-1.9-1.9h-16
	C783.1,439.4,778.1,444.4,778.1,450.5 M807.9,441.3v18.3c0,1.5-1.2,2.7-2.7,2.7h-16c-6.5,0-11.8-5.3-11.8-11.8s5.3-11.8,11.8-11.8
	h16C806.7,438.7,807.9,439.8,807.9,441.3"/>
<path class="st2" d="M778.1,450.5c0,6.1,5,11.1,11.1,11.1h16c1.1,0,1.9-0.9,1.9-1.9v-18.3c0-1.1-0.9-1.9-1.9-1.9h-16
	C783.1,439.4,778.1,444.4,778.1,450.5z M807.9,441.3v18.3c0,1.5-1.2,2.7-2.7,2.7h-16c-6.5,0-11.8-5.3-11.8-11.8s5.3-11.8,11.8-11.8
	h16C806.7,438.7,807.9,439.8,807.9,441.3z"/>
<path class="st2" d="M801.8,458.4v-15.9c0-0.1-0.1-0.2-0.2-0.2h-12.1c-4.5,0-8.1,3.7-8.1,8.1c0,4.5,3.7,8.1,8.1,8.1h12.1
	C801.7,458.6,801.8,458.5,801.8,458.4z"/>
<path class="st1" d="M801.4,458.2v-15.5h-11.9c-4.3,0-7.7,3.5-7.7,7.7c0,4.3,3.5,7.7,7.7,7.7L801.4,458.2L801.4,458.2z M802.2,442.5
	v15.9c0,0.3-0.3,0.6-0.6,0.6h-12.1c-4.7,0-8.5-3.8-8.5-8.5s3.8-8.5,8.5-8.5h12.1C801.9,442,802.2,442.2,802.2,442.5"/>
<path class="st2" d="M801.4,458.2v-15.5h-11.9c-4.3,0-7.7,3.5-7.7,7.7c0,4.3,3.5,7.7,7.7,7.7L801.4,458.2L801.4,458.2z M802.2,442.5
	v15.9c0,0.3-0.3,0.6-0.6,0.6h-12.1c-4.7,0-8.5-3.8-8.5-8.5s3.8-8.5,8.5-8.5h12.1C801.9,442,802.2,442.2,802.2,442.5z"/>
<path class="st1" d="M789.5,450.5c0,1.2,0.9,2.1,2.1,2.1c1.2,0,2.1-0.9,2.1-2.1s-0.9-2.1-2.1-2.1S789.5,449.3,789.5,450.5
	 M794.4,450.5c0,1.6-1.3,2.9-2.9,2.9c-1.6,0-2.9-1.3-2.9-2.9s1.3-2.9,2.9-2.9C793.1,447.6,794.4,448.9,794.4,450.5"/>
<path class="st2" d="M789.5,450.5c0,1.2,0.9,2.1,2.1,2.1c1.2,0,2.1-0.9,2.1-2.1s-0.9-2.1-2.1-2.1S789.5,449.3,789.5,450.5z
	 M794.4,450.5c0,1.6-1.3,2.9-2.9,2.9c-1.6,0-2.9-1.3-2.9-2.9s1.3-2.9,2.9-2.9C793.1,447.6,794.4,448.9,794.4,450.5z"/>
<rect x="797" y="451.9" transform="matrix(0.5977 -0.8017 0.8017 0.5977 -43.9779 822.3655)" class="st1" width="0.8" height="6.3"/>
<rect x="797" y="451.9" transform="matrix(0.5977 -0.8017 0.8017 0.5977 -43.9779 822.3655)" class="st4" width="0.8" height="6.3"/>
<polygon class="st1" points="800.2,444.4 795.2,448.2 794.7,447.6 799.8,443.8 "/>
<polygon class="st2" points="800.2,444.4 795.2,448.2 794.7,447.6 799.8,443.8 "/>
<path class="st1" d="M807.9,458.1c0,1.7,1.4,3.1,3.1,3.1h4.2c1.7,0,3.1-1.4,3.1-3.1v-15.3c0-1.7-1.4-3.1-3.1-3.1H811
	c-1.7,0-3.1,1.4-3.1,3.1V458.1z M819,442.8v15.3c0,2.1-1.7,3.8-3.8,3.8H811c-2.1,0-3.8-1.7-3.8-3.8v-15.3c0-2.1,1.7-3.8,3.8-3.8h4.2
	C817.3,439,819,440.7,819,442.8"/>
<path class="st2" d="M807.9,458.1c0,1.7,1.4,3.1,3.1,3.1h4.2c1.7,0,3.1-1.4,3.1-3.1v-15.3c0-1.7-1.4-3.1-3.1-3.1H811
	c-1.7,0-3.1,1.4-3.1,3.1V458.1z M819,442.8v15.3c0,2.1-1.7,3.8-3.8,3.8H811c-2.1,0-3.8-1.7-3.8-3.8v-15.3c0-2.1,1.7-3.8,3.8-3.8h4.2
	C817.3,439,819,440.7,819,442.8z"/>
<path class="st1" d="M811.9,450.5c0,0.7,0.5,1.2,1.2,1.2s1.2-0.5,1.2-1.2s-0.5-1.2-1.2-1.2S811.9,449.8,811.9,450.5 M815,450.5
	c0,1.1-0.9,1.9-1.9,1.9c-1.1,0-1.9-0.9-1.9-1.9c0-1.1,0.9-1.9,1.9-1.9C814.1,448.5,815,449.4,815,450.5"/>
<path class="st2" d="M811.9,450.5c0,0.7,0.5,1.2,1.2,1.2s1.2-0.5,1.2-1.2s-0.5-1.2-1.2-1.2S811.9,449.8,811.9,450.5z M815,450.5
	c0,1.1-0.9,1.9-1.9,1.9c-1.1,0-1.9-0.9-1.9-1.9c0-1.1,0.9-1.9,1.9-1.9C814.1,448.5,815,449.4,815,450.5z"/>
<path class="st1" d="M753.7,462.8c0.4,0.4,1,0.6,1.7,0.6s1.3-0.2,1.7-0.6s0.6-1,0.6-1.8v-2.2c0-0.7-0.1-1.3-0.4-1.6
	c-0.3-0.4-0.7-0.6-1.3-0.6s-1,0.2-1.3,0.7l0.1-2.3h2.6v-1.4h-4.1l-0.3,5.6h1.5V459c0-0.6,0.3-0.9,0.8-0.9s0.8,0.3,0.8,0.9v2.1
	c0,0.6-0.3,0.9-0.8,0.9s-0.8-0.3-0.8-0.9v-0.9H753v0.8C753.1,461.8,753.3,462.4,753.7,462.8 M752.2,462h-1.5v1.4h1.5V462z
	 M747.3,456v7.4h1.5v-9.6h-1c-0.1,0.2-0.1,0.3-0.2,0.4c0,0.1-0.1,0.2-0.2,0.3c-0.1,0.1-0.2,0.2-0.3,0.3c-0.1,0.1-0.2,0.1-0.4,0.2
	c-0.2,0-0.4,0.1-0.6,0.1v1.1h1.2V456z"/>
<path class="st1" d="M756,444.6L756,444.6c-0.1,0.4-0.2,0.6-0.4,0.7s-0.5,0.1-0.9,0.1v1.4c0.4,0,0.8,0,1.1,0
	c0.3-0.1,0.6-0.1,0.8-0.3c0.2-0.1,0.4-0.3,0.5-0.5s0.3-0.5,0.4-0.7c0.1-0.3,0.2-0.6,0.3-0.9l1.6-7.2h-1.5l-0.7,3.3l-0.4,2.2
	l-0.5-2.3l-0.8-3.3H754L756,444.6z M750,446.8l3.8-9.6h-1.3l-3.8,9.6H750z M744.3,446.3c0.4,0.4,0.9,0.6,1.7,0.6s1.3-0.2,1.7-0.6
	s0.6-1,0.6-1.8v-1.3h-1.5v1.4c0,0.6-0.3,0.9-0.8,0.9s-0.8-0.3-0.8-0.9v-5.2c0-0.6,0.3-0.9,0.8-0.9s0.8,0.3,0.8,0.9v1h1.5v-0.9
	c0-0.8-0.2-1.4-0.6-1.8c-0.4-0.4-1-0.6-1.7-0.6s-1.3,0.2-1.7,0.6s-0.6,1-0.6,1.8v5C743.7,445.3,743.9,445.9,744.3,446.3"/>
<path class="st1" d="M764.2,560.1c0.4,0.4,1,0.6,1.7,0.6s1.3-0.2,1.7-0.6c0.4-0.4,0.6-1,0.6-1.8v-2.2c0-0.7-0.1-1.3-0.4-1.6
	c-0.3-0.4-0.7-0.6-1.3-0.6s-1,0.2-1.3,0.7l0.1-2.3h2.6V551h-4.1l-0.3,5.6h1.5v-0.3c0-0.6,0.3-0.9,0.8-0.9s0.8,0.3,0.8,0.9v2.1
	c0,0.6-0.3,0.9-0.8,0.9s-0.8-0.3-0.8-0.9v-0.9h-1.5v0.8C763.6,559.1,763.8,559.7,764.2,560.1 M762.6,559.2h-1.5v1.4h1.5V559.2z
	 M756.2,560.1c0.4,0.4,1,0.6,1.7,0.6s1.3-0.2,1.7-0.6c0.4-0.4,0.6-1,0.6-1.8v-0.8c0-1-0.4-1.7-1.1-2c0.7-0.3,1.1-1,1.1-2v-0.2
	c0-0.8-0.2-1.4-0.6-1.8c-0.4-0.4-0.9-0.6-1.7-0.6c-0.7,0-1.3,0.2-1.7,0.6c-0.4,0.4-0.6,1-0.6,1.8v0.5h1.5v-0.6
	c0-0.6,0.3-0.9,0.8-0.9c0.3,0,0.5,0.1,0.6,0.2c0.1,0.2,0.2,0.4,0.2,0.9v0.5c0,0.4-0.1,0.6-0.2,0.8c-0.2,0.2-0.4,0.2-0.7,0.2h-0.6
	v1.4h0.5c0.4,0,0.6,0.1,0.8,0.3s0.2,0.5,0.2,0.9v0.8c0,0.4-0.1,0.7-0.2,0.8c-0.1,0.2-0.3,0.2-0.6,0.2c-0.5,0-0.8-0.3-0.8-1v-0.9
	h-1.5v0.8C755.6,559.1,755.8,559.7,756.2,560.1"/>
<path class="st1" d="M775.3,536.8c0-0.3,0.1-0.6,0.2-0.8c0.1-0.2,0.3-0.2,0.6-0.2h0.7v3h-0.6c-0.3,0-0.5-0.1-0.7-0.2
	c-0.2-0.2-0.2-0.4-0.2-0.8V536.8z M775.1,544.1c0-0.1,0.1-0.2,0.1-0.3s0-0.2,0-0.3c0-0.2,0-0.4,0-0.6v-1.5c0-0.4,0.1-0.8,0.2-0.9
	c0.2-0.2,0.4-0.3,0.8-0.3h0.5v3.9h1.5v-9.6H776c-0.8,0-1.3,0.2-1.7,0.5c-0.4,0.4-0.5,0.9-0.5,1.7v0.8c0,1,0.3,1.6,1,2
	c-0.4,0.2-0.6,0.4-0.8,0.7s-0.2,0.8-0.2,1.3v1.5c0,0.5,0,0.9-0.1,1.2h1.4V544.1z M770.6,536.2l0.7,4.9h-1.5L770.6,536.2z
	 M769.4,544.1l0.3-1.7h1.9l0.3,1.7h1.5l-1.5-9.6h-2.3l-1.5,9.6H769.4z M763.9,544.1V540h1.7v4.1h1.5v-9.6h-1.5v4.1h-1.7v-4.1h-1.5
	v9.6H763.9z M758,544.1V540h1.7v4.1h1.5v-9.6h-1.5v4.1H758v-4.1h-1.5v9.6H758z M753.2,536.2l0.7,4.9h-1.5L753.2,536.2z M752,544.1
	l0.3-1.7h1.9l0.3,1.7h1.5l-1.5-9.6h-2.3l-1.5,9.6H752z M746.8,535.8h0.7c0.3,0,0.5,0.1,0.6,0.2c0.1,0.2,0.2,0.4,0.2,0.8v0.5
	c0,0.4-0.1,0.6-0.2,0.8c-0.2,0.2-0.4,0.2-0.7,0.2h-0.6V535.8z M746.8,539.8h0.7c0.4,0,0.6,0.1,0.7,0.3c0.2,0.2,0.2,0.5,0.2,0.9v0.8
	c0,0.3-0.1,0.6-0.2,0.7c-0.1,0.1-0.3,0.2-0.6,0.2h-0.9L746.8,539.8L746.8,539.8z M747.7,544.1c0.8,0,1.3-0.2,1.7-0.6
	c0.4-0.4,0.6-1,0.6-1.7V541c0-1.1-0.4-1.8-1.1-2.1c0.7-0.3,1-1,1-1.9v-0.3c0-0.8-0.2-1.3-0.5-1.7c-0.4-0.4-0.9-0.5-1.7-0.5h-2.3v9.6
	H747.7z"/>
<path class="st1" d="M776.7,505.4c-5.6,0-10.1-4.5-10.1-10.1v-10.7c0-0.8,0.7-1.5,1.5-1.5H791c0.8,0,1.5,0.7,1.5,1.5v10.7
	c0,5.6-4.5,10.1-10.1,10.1H776.7z M791,482.5h-22.9c-1.2,0-2.1,0.9-2.1,2.1v10.7c0,5.9,4.8,10.7,10.7,10.7h5.7
	c5.9,0,10.7-4.8,10.7-10.7v-10.7C793.1,483.4,792.2,482.5,791,482.5"/>
<path class="st2" d="M776.7,505.4c-5.6,0-10.1-4.5-10.1-10.1v-10.7c0-0.8,0.7-1.5,1.5-1.5H791c0.8,0,1.5,0.7,1.5,1.5v10.7
	c0,5.6-4.5,10.1-10.1,10.1H776.7z M791,482.5h-22.9c-1.2,0-2.1,0.9-2.1,2.1v10.7c0,5.9,4.8,10.7,10.7,10.7h5.7
	c5.9,0,10.7-4.8,10.7-10.7v-10.7C793.1,483.4,792.2,482.5,791,482.5z"/>
<path class="st1" d="M776.7,502.9c-4.2,0-7.6-3.4-7.6-7.6V489c0-0.7,0.6-1.3,1.3-1.3h18.2c0.7,0,1.3,0.6,1.3,1.3v6.3
	c0,4.2-3.4,7.6-7.6,7.6H776.7z M788.7,487.2h-18.2c-1,0-1.9,0.9-1.9,1.9v6.3c0,4.5,3.7,8.2,8.1,8.2h5.7c4.5,0,8.1-3.7,8.1-8.2v-6.3
	C790.6,488,789.7,487.2,788.7,487.2"/>
<path class="st2" d="M776.7,502.9c-4.2,0-7.6-3.4-7.6-7.6V489c0-0.7,0.6-1.3,1.3-1.3h18.2c0.7,0,1.3,0.6,1.3,1.3v6.3
	c0,4.2-3.4,7.6-7.6,7.6H776.7z M788.7,487.2h-18.2c-1,0-1.9,0.9-1.9,1.9v6.3c0,4.5,3.7,8.2,8.1,8.2h5.7c4.5,0,8.1-3.7,8.1-8.2v-6.3
	C790.6,488,789.7,487.2,788.7,487.2z"/>
<path class="st1" d="M779.6,497.6c-0.7,0-1.3-0.6-1.3-1.3c0-0.7,0.6-1.3,1.3-1.3s1.3,0.6,1.3,1.3C780.9,497,780.3,497.6,779.6,497.6
	 M779.6,494.5c-1,0-1.8,0.8-1.8,1.8s0.8,1.8,1.8,1.8s1.8-0.8,1.8-1.8C781.4,495.3,780.6,494.5,779.6,494.5"/>
<path class="st2" d="M779.6,497.6c-0.7,0-1.3-0.6-1.3-1.3c0-0.7,0.6-1.3,1.3-1.3s1.3,0.6,1.3,1.3C780.9,497,780.3,497.6,779.6,497.6
	z M779.6,494.5c-1,0-1.8,0.8-1.8,1.8s0.8,1.8,1.8,1.8s1.8-0.8,1.8-1.8C781.4,495.3,780.6,494.5,779.6,494.5z"/>
<rect x="726" y="482.8" class="st2" width="35.1" height="36"/>
<line class="st2" x1="726.5" y1="518.9" x2="761" y2="482.9"/>
<line class="st2" x1="761.4" y1="518.9" x2="726.9" y2="482.9"/>
<path class="st2" d="M816.4,501.4c0.9,0,1.5,0.7,1.5,1.6s-0.7,1.6-1.5,1.6c-0.9,0-1.5-0.7-1.5-1.6S815.5,501.4,816.4,501.4z"/>
<path class="st2" d="M809.3,577.7c-5.7,0-10.2-4.6-10.2-10.2v-70.8c0-5.7,4.6-10.2,10.2-10.2h14.2c5.7,0,10.2,4.6,10.2,10.2v70.8
	c0,5.7-4.6,10.2-10.2,10.2H809.3z"/>
<path class="st2" d="M812.5,571.3c-5.7,0-10.2-4.6-10.2-10.2V503c0-5.7,4.6-10.2,10.2-10.2h7.7c5.7,0,10.2,4.6,10.2,10.2v58.1
	c0,5.7-4.6,10.2-10.2,10.2H812.5z"/>
<path class="st2" d="M810.5,563.7c-2.8,0-5.1-2.3-5.1-5.1v-57.2c0-2.8,2.3-5.1,5.1-5.1h11.7c2.8,0,5.1,2.3,5.1,5.1v57.2
	c0,2.8-2.3,5.1-5.1,5.1H810.5z"/>
<polygon class="st2" points="836.6,482.8 836.6,482.8 836.6,581.3 796.2,581.3 796.2,482.8 "/>
<path class="st1" d="M448.9,411.9h32.8v-32.8h-32.8V411.9z M448.2,378.4h34.2v34.2h-34.2V378.4z"/>
<path class="st2" d="M448.9,411.9h32.8v-32.8h-32.8V411.9z M448.2,378.4h34.2v34.2h-34.2V378.4z"/>
<path class="st1" d="M478.7,384c0-0.8-0.7-1.5-1.5-1.5H460c-0.8,0-1.5,0.7-1.5,1.5v23c0,0.8,0.7,1.5,1.5,1.5h17.2
	c0.8,0,1.5-0.7,1.5-1.5V384z M457.8,407v-23c0-1.2,1-2.2,2.2-2.2h17.2c1.2,0,2.2,1,2.2,2.2v23c0,1.2-1,2.2-2.2,2.2H460
	C458.8,409.2,457.8,408.2,457.8,407"/>
<path class="st2" d="M478.7,384c0-0.8-0.7-1.5-1.5-1.5H460c-0.8,0-1.5,0.7-1.5,1.5v23c0,0.8,0.7,1.5,1.5,1.5h17.2
	c0.8,0,1.5-0.7,1.5-1.5V384z M457.8,407v-23c0-1.2,1-2.2,2.2-2.2h17.2c1.2,0,2.2,1,2.2,2.2v23c0,1.2-1,2.2-2.2,2.2H460
	C458.8,409.2,457.8,408.2,457.8,407z"/>
<path class="st1" d="M461,405.9h15.1v-20.8H461V405.9z M460.3,384.4h16.5v22.2h-16.5V384.4z"/>
<path class="st2" d="M461,405.9h15.1v-20.8H461V405.9z M460.3,384.4h16.5v22.2h-16.5V384.4z"/>
<path class="st1" d="M471.5,395.5c0-1-0.9-1.9-1.9-1.9s-1.9,0.9-1.9,1.9s0.9,1.9,1.9,1.9S471.5,396.6,471.5,395.5 M467,395.5
	c0-1.4,1.2-2.6,2.6-2.6s2.6,1.2,2.6,2.6s-1.2,2.6-2.6,2.6C468.2,398.2,467,397,467,395.5"/>
<path class="st2" d="M471.5,395.5c0-1-0.9-1.9-1.9-1.9s-1.9,0.9-1.9,1.9s0.9,1.9,1.9,1.9S471.5,396.6,471.5,395.5z M467,395.5
	c0-1.4,1.2-2.6,2.6-2.6s2.6,1.2,2.6,2.6s-1.2,2.6-2.6,2.6C468.2,398.2,467,397,467,395.5z"/>
<path class="st1" d="M578.4,164.9c1.3,0,2.2-0.3,2.7-0.8s0.8-1.4,0.8-2.7v-9c0-1.3-0.3-2.2-0.8-2.7s-1.5-0.8-2.7-0.8h-0.8v2.2h0.6
	c0.4,0,0.7,0.1,0.9,0.3s0.3,0.6,0.3,1.1v8.9c0,0.5-0.1,0.9-0.3,1.1c-0.2,0.2-0.5,0.3-0.9,0.3h-0.6v2.2h0.8V164.9z M573.3,153.7v6
	h-2.5L573.3,153.7z M573.3,162v2.9h2.5V162h1.2v-2.3h-1.2v-10.9H573l-4.6,10.9v2.3H573.3z M567.3,162.6h-2.5v2.3h2.5V162.6z
	 M560,153.7v6h-2.5L560,153.7z M560,162v2.9h2.5V162h1.2v-2.3h-1.2v-10.9h-2.8l-4.6,10.9v2.3H560z M550.9,164.1
	c0.5,0.5,1.5,0.8,2.7,0.8h0.8v-2.2h-0.6c-0.4,0-0.7-0.1-0.9-0.3s-0.3-0.6-0.3-1.1v-8.9c0-0.5,0.1-0.9,0.3-1.1
	c0.2-0.2,0.5-0.3,0.9-0.3h0.6v-2.2h-0.8c-1.3,0-2.2,0.3-2.7,0.8s-0.8,1.4-0.8,2.7v9C550.1,162.7,550.4,163.6,550.9,164.1
	 M539.5,152.8c0-0.7,0.1-1.1,0.4-1.4c0.3-0.3,0.6-0.4,1.1-0.4s0.8,0.1,1,0.4c0.2,0.3,0.4,0.7,0.4,1.4v0.9c0,1.1-0.5,1.7-1.4,1.7
	c-1,0-1.4-0.6-1.4-1.7L539.5,152.8L539.5,152.8z M539.5,159.5c0-1.2,0.5-1.8,1.4-1.8s1.4,0.6,1.4,1.8v1.5c0,0.7-0.1,1.1-0.4,1.4
	c-0.2,0.3-0.6,0.4-1,0.4c-0.5,0-0.8-0.1-1.1-0.4c-0.3-0.3-0.4-0.7-0.4-1.4L539.5,159.5L539.5,159.5z M538,164
	c0.7,0.7,1.7,1.1,2.9,1.1c1.3,0,2.2-0.4,2.9-1.1c0.7-0.7,1-1.7,1-3v-1.3c0-1.6-0.5-2.8-1.6-3.3c1-0.6,1.6-1.7,1.6-3.2v-0.5
	c0-1.3-0.3-2.3-1-3s-1.7-1.1-2.9-1.1c-1.3,0-2.2,0.4-2.9,1.1c-0.7,0.7-1,1.7-1,3v0.5c0,1.6,0.5,2.7,1.6,3.2c-1,0.6-1.6,1.7-1.6,3.3
	v1.3C537,162.3,537.3,163.3,538,164 M535.6,162.6h-2.5v2.3h2.5V162.6z M526.2,152.8c0-0.7,0.1-1.1,0.4-1.4c0.3-0.3,0.6-0.4,1.1-0.4
	s0.8,0.1,1,0.4c0.2,0.3,0.4,0.7,0.4,1.4v0.9c0,1.1-0.5,1.7-1.4,1.7c-1,0-1.4-0.6-1.4-1.7L526.2,152.8L526.2,152.8z M526.2,159.5
	c0-1.2,0.5-1.8,1.4-1.8s1.4,0.6,1.4,1.8v1.5c0,0.7-0.1,1.1-0.4,1.4c-0.2,0.3-0.6,0.4-1,0.4c-0.5,0-0.8-0.1-1.1-0.4
	c-0.3-0.3-0.4-0.7-0.4-1.4L526.2,159.5L526.2,159.5z M524.7,164c0.7,0.7,1.7,1.1,2.9,1.1c1.3,0,2.2-0.4,2.9-1.1c0.7-0.7,1-1.7,1-3
	v-1.3c0-1.6-0.5-2.8-1.6-3.3c1-0.6,1.6-1.7,1.6-3.2v-0.5c0-1.3-0.3-2.3-1-3s-1.7-1.1-2.9-1.1c-1.3,0-2.2,0.4-2.9,1.1
	c-0.7,0.7-1,1.7-1,3v0.5c0,1.6,0.5,2.7,1.6,3.2c-1,0.6-1.6,1.7-1.6,3.3v1.3C523.7,162.3,524,163.3,524.7,164"/>
<path class="st1" d="M552.7,352.8c0-0.7,0.1-1.1,0.4-1.4c0.3-0.3,0.6-0.4,1.1-0.4s0.8,0.1,1,0.4s0.4,0.7,0.4,1.4v0.9
	c0,1.1-0.5,1.7-1.4,1.7c-1,0-1.4-0.6-1.4-1.7L552.7,352.8L552.7,352.8z M552.7,359.5c0-1.2,0.5-1.8,1.4-1.8s1.4,0.6,1.4,1.8v1.5
	c0,0.7-0.1,1.1-0.4,1.4c-0.2,0.3-0.6,0.4-1,0.4c-0.5,0-0.8-0.1-1.1-0.4s-0.4-0.7-0.4-1.4L552.7,359.5L552.7,359.5z M551.2,364.1
	c0.7,0.7,1.7,1.1,2.9,1.1c1.3,0,2.2-0.4,2.9-1.1s1-1.7,1-3v-1.3c0-1.6-0.5-2.8-1.6-3.3c1-0.6,1.6-1.7,1.6-3.2v-0.5
	c0-1.3-0.3-2.3-1-3s-1.7-1.1-2.9-1.1c-1.3,0-2.2,0.4-2.9,1.1s-1,1.7-1,3v0.5c0,1.6,0.5,2.7,1.6,3.2c-1,0.6-1.6,1.7-1.6,3.3v1.3
	C550.2,362.4,550.5,363.4,551.2,364.1 M548.7,362.6h-2.5v2.3h2.5V362.6z M538,364.1c0.7,0.7,1.6,1,2.9,1c1.2,0,2.2-0.3,2.8-1
	s1-1.7,1-3v-1.3c0-1.7-0.6-2.9-1.8-3.4c1.2-0.5,1.8-1.6,1.8-3.3v-0.4c0-1.3-0.3-2.3-1-3c-0.6-0.7-1.6-1-2.8-1s-2.2,0.4-2.9,1
	c-0.7,0.7-1,1.7-1,3v0.9h2.5v-1c0-1.1,0.4-1.6,1.3-1.6c0.4,0,0.8,0.1,1,0.4s0.3,0.7,0.3,1.4v0.9c0,0.6-0.1,1-0.4,1.3
	c-0.3,0.3-0.6,0.4-1.1,0.4h-1v2.3h0.9c0.6,0,1,0.2,1.3,0.5s0.4,0.8,0.4,1.6v1.3c0,0.7-0.1,1.1-0.3,1.4s-0.5,0.4-1,0.4
	c-0.9,0-1.3-0.5-1.3-1.6v-1.5H537v1.3C537,362.4,537.3,363.4,538,364.1 M531.6,352.7V365h2.5v-16.1h-1.7c-0.1,0.3-0.2,0.5-0.3,0.6
	c-0.1,0.2-0.2,0.3-0.3,0.5s-0.3,0.4-0.5,0.5s-0.4,0.2-0.7,0.3c-0.3,0.1-0.6,0.1-1,0.1v1.8L531.6,352.7L531.6,352.7z"/>
<path class="st1" d="M560.8,325.3c0-0.6,0.1-1,0.3-1.3s0.5-0.4,1-0.4h1.2v4.9h-1c-0.5,0-0.9-0.1-1.1-0.4c-0.3-0.3-0.4-0.7-0.4-1.3
	V325.3z M560.6,337.4c0.1-0.2,0.1-0.3,0.1-0.4s0-0.3,0.1-0.5c0-0.3,0-0.6,0-1V333c0-0.7,0.1-1.3,0.4-1.6c0.3-0.3,0.7-0.5,1.3-0.5
	h0.9v6.5h2.5v-16.1H562c-1.3,0-2.2,0.3-2.8,0.9s-0.9,1.5-0.9,2.8v1.3c0,1.7,0.5,2.7,1.6,3.3c-0.6,0.3-1,0.7-1.3,1.2
	c-0.3,0.6-0.4,1.3-0.4,2.2v2.5c0,0.9-0.1,1.5-0.2,1.9L560.6,337.4L560.6,337.4z M551.2,337.4v-6.9h2.9v6.9h2.5v-16.1H554v6.9h-2.9
	v-6.9h-2.5v16.1H551.2z M540.8,337.4l2-6l1.9,6h2.5l-2.8-8.2l2.6-7.9h-2.2l-1.9,6l-1.9-6h-2.5l2.6,7.8l-2.8,8.3L540.8,337.4
	L540.8,337.4z M532.2,333.7v0.1c-0.1,0.6-0.3,0.9-0.7,1.1s-0.9,0.2-1.6,0.2v2.3c0.7,0,1.3,0,1.8-0.1s0.9-0.2,1.3-0.4
	c0.4-0.2,0.6-0.5,0.9-0.9c0.2-0.4,0.4-0.8,0.6-1.2c0.2-0.4,0.3-1,0.4-1.6l2.7-12h-2.5l-1.2,5.5l-0.6,3.7l-0.8-3.8l-1.4-5.5h-2.5
	L532.2,333.7z M522.5,337.4v-4.9l0.8-1.5l2.5,6.4h2.6l-3.5-8.9l3.5-7.2h-2.5l-3.3,7v-7H520v16.1H522.5z"/>
<path class="st1" d="M757.5,817.3c0-0.7,0.1-1.1,0.4-1.4c0.3-0.3,0.6-0.4,1.1-0.4s0.8,0.1,1,0.4c0.2,0.3,0.4,0.7,0.4,1.4v0.9
	c0,1.1-0.5,1.7-1.4,1.7c-1,0-1.4-0.6-1.4-1.7L757.5,817.3L757.5,817.3z M757.5,824c0-1.2,0.5-1.8,1.4-1.8s1.4,0.6,1.4,1.8v1.5
	c0,0.7-0.1,1.1-0.4,1.4c-0.2,0.3-0.6,0.4-1,0.4c-0.5,0-0.8-0.1-1.1-0.4c-0.3-0.3-0.4-0.7-0.4-1.4L757.5,824L757.5,824z M756,828.5
	c0.7,0.7,1.7,1.1,2.9,1.1c1.3,0,2.2-0.4,2.9-1.1c0.7-0.7,1-1.7,1-3v-1.3c0-1.6-0.5-2.8-1.6-3.3c1-0.6,1.6-1.7,1.6-3.2v-0.5
	c0-1.3-0.3-2.3-1-3s-1.7-1.1-2.9-1.1c-1.3,0-2.2,0.4-2.9,1.1c-0.7,0.7-1,1.7-1,3v0.5c0,1.6,0.5,2.7,1.6,3.2c-1,0.6-1.6,1.7-1.6,3.3
	v1.3C755,826.9,755.3,827.8,756,828.5 M753.6,827.1H751v2.3h2.5L753.6,827.1L753.6,827.1z M744.2,817.3c0-0.7,0.1-1.1,0.4-1.4
	c0.3-0.3,0.6-0.4,1.1-0.4s0.8,0.1,1,0.4c0.2,0.3,0.4,0.7,0.4,1.4v0.9c0,1.1-0.5,1.7-1.4,1.7c-1,0-1.4-0.6-1.4-1.7L744.2,817.3
	L744.2,817.3z M744.2,824c0-1.2,0.5-1.8,1.4-1.8s1.4,0.6,1.4,1.8v1.5c0,0.7-0.1,1.1-0.4,1.4c-0.2,0.3-0.6,0.4-1,0.4
	c-0.5,0-0.8-0.1-1.1-0.4c-0.3-0.3-0.4-0.7-0.4-1.4L744.2,824L744.2,824z M742.7,828.5c0.7,0.7,1.7,1.1,2.9,1.1
	c1.3,0,2.2-0.4,2.9-1.1c0.7-0.7,1-1.7,1-3v-1.3c0-1.6-0.5-2.8-1.6-3.3c1-0.6,1.6-1.7,1.6-3.2v-0.5c0-1.3-0.3-2.3-1-3
	s-1.7-1.1-2.9-1.1c-1.3,0-2.2,0.4-2.9,1.1c-0.7,0.7-1,1.7-1,3v0.5c0,1.6,0.5,2.7,1.6,3.2c-1,0.6-1.6,1.7-1.6,3.3v1.3
	C741.6,826.9,742,827.8,742.7,828.5 M736.4,817.2v12.3h2.5v-16.1h-1.7c-0.1,0.3-0.2,0.5-0.3,0.6c-0.1,0.2-0.2,0.3-0.3,0.5
	s-0.3,0.4-0.5,0.5s-0.4,0.2-0.7,0.3s-0.6,0.1-1,0.1v1.8L736.4,817.2L736.4,817.2z"/>
<path class="st1" d="M805,788.7l1.2,8.1h-2.4L805,788.7z M803,801.9l0.4-2.9h3.1l0.4,2.9h2.5l-2.6-16.1H803l-2.6,16.1H803z
	 M794.9,788.1v13.8h2.5v-13.8h2.6v-2.3h-7.8v2.3H794.9z M787.5,788.7l1.2,8.1h-2.4L787.5,788.7z M785.5,801.9l0.4-2.9h3.1l0.4,2.9
	h2.5l-2.6-16.1h-3.9l-2.6,16.1H785.5z M776.4,801.9V795h2.9v6.9h2.5v-16.1h-2.5v6.9h-2.9v-6.9h-2.5v16.1H776.4z M763.6,801.9v-11.3
	l1.9,11.3h2.4l1.7-11.5v11.5h2.5v-16.1h-3.6l-1.7,11.4l-1.9-11.4h-3.5v16.1H763.6z M754.7,789.5c0-1.1,0.4-1.6,1.3-1.6
	c0.9,0,1.3,0.5,1.3,1.6v8.7c0,1.1-0.4,1.6-1.3,1.6c-0.9,0-1.3-0.5-1.3-1.6V789.5z M753.1,801c0.7,0.7,1.6,1.1,2.8,1.1
	s2.2-0.4,2.8-1.1c0.7-0.7,1-1.7,1-3v-8.4c0-1.3-0.3-2.3-1-3s-1.6-1.1-2.8-1.1s-2.2,0.4-2.8,1.1c-0.7,0.7-1,1.7-1,3v8.4
	C752.1,799.3,752.5,800.3,753.1,801 M745.4,801.9V797l0.8-1.5l2.5,6.4h2.6l-3.5-8.9l3.5-7.2h-2.5l-3.3,7v-7H743v16.1L745.4,801.9
	L745.4,801.9z M732.5,789.8c0-0.6,0.1-1,0.3-1.3s0.5-0.4,1-0.4h1.2v4.9h-1c-0.5,0-0.9-0.1-1.1-0.4c-0.3-0.3-0.4-0.7-0.4-1.3V789.8z
	 M732.2,801.9c0.1-0.2,0.1-0.3,0.1-0.4c0-0.1,0-0.3,0.1-0.5c0-0.3,0-0.6,0-1v-2.5c0-0.7,0.1-1.3,0.4-1.6c0.3-0.3,0.7-0.5,1.3-0.5
	h0.9v6.5h2.5v-16.1h-3.8c-1.3,0-2.2,0.3-2.8,0.9c-0.6,0.6-0.9,1.5-0.9,2.8v1.3c0,1.7,0.5,2.7,1.6,3.3c-0.6,0.3-1,0.7-1.3,1.2
	s-0.4,1.3-0.4,2.2v2.5c0,0.9-0.1,1.5-0.2,1.9L732.2,801.9L732.2,801.9z M724.6,788.7l1.2,8.1h-2.4L724.6,788.7z M722.6,801.9
	l0.4-2.9h3.1l0.4,2.9h2.5l-2.6-16.1h-3.9l-2.6,16.1H722.6z M710.1,801.9c1.3,0,2.2-0.3,2.7-0.9c0.6-0.6,0.9-1.7,0.9-3.1l0.3-9.7h2.2
	V802h2.5v-16.1h-7.2l-0.3,12.1c0,0.4,0,0.7-0.1,0.9s-0.1,0.4-0.3,0.5c-0.1,0.1-0.3,0.2-0.5,0.2s-0.4,0-0.7,0v2.3H710.1z
	 M703.2,801.9l2.1-7.4l1-3.9v11.3h2.5v-16.1h-3l-2.1,6.6l-0.9,3.5v-10.2h-2.3v16.1h2.7V801.9z M688.6,801.9l2.3-7.2l0.6,1.2v5.9h2.5
	V796l0.6-1.2l2.3,7.1h2.5l-3.1-9.5l3.1-6.6H697l-3,6.5v-6.5h-2.5v6.5l-3-6.5H686l3.1,6.6l-3.1,9.5L688.6,801.9L688.6,801.9z"/>
<path class="st1" d="M754.8,332.2c0-1,0.4-1.6,1.3-1.6c0.9,0,1.3,0.5,1.3,1.6v2.9c0,1.1-0.4,1.6-1.3,1.6c-0.9,0-1.3-0.5-1.3-1.6
	V332.2z M753,338c0.5,0.6,1.2,0.9,2.1,0.9c1.1,0,1.9-0.5,2.3-1.4v2.9c0,0.7-0.1,1.2-0.3,1.5s-0.6,0.4-1.1,0.4
	c-0.9,0-1.3-0.5-1.3-1.6v-0.6h-2.4v0.4c0,1.3,0.3,2.3,1,3c0.6,0.7,1.6,1,2.8,1c2.6,0,3.9-1.4,3.9-4.2v-8.2c0-1.3-0.3-2.3-1-3
	s-1.6-1.1-2.8-1.1s-2.2,0.4-2.8,1.1c-0.7,0.7-1,1.7-1,3v2.9C752.3,336.5,752.5,337.4,753,338 M750.8,342.3h-2.5v2.3h2.5V342.3z
	 M742.7,332.3v12.3h2.5v-16.1h-1.7c-0.1,0.3-0.2,0.5-0.3,0.6c-0.1,0.2-0.2,0.3-0.3,0.5s-0.3,0.4-0.5,0.5s-0.4,0.2-0.7,0.3
	c-0.3,0.1-0.6,0.1-1,0.1v1.8L742.7,332.3L742.7,332.3z M733.6,332.3v12.3h2.5v-16.1h-1.7c-0.1,0.3-0.2,0.5-0.3,0.6
	c-0.1,0.2-0.2,0.3-0.3,0.5s-0.3,0.4-0.5,0.5s-0.4,0.2-0.7,0.3c-0.3,0.1-0.6,0.1-1,0.1v1.8L733.6,332.3L733.6,332.3z"/>
<path class="st1" d="M802.2,303.9l1.2,8.1H801L802.2,303.9z M800.2,317l0.4-2.9h3.1l0.4,2.9h2.5l-2.6-16.1h-3.9l-2.6,16.1H800.2z
	 M792.1,303.3V317h2.5v-13.8h2.6V301h-7.8v2.3H792.1z M784.7,303.9l1.2,8.1h-2.4L784.7,303.9z M782.7,317l0.4-2.9h3.1l0.4,2.9h2.5
	l-2.6-16.1h-3.9L780,317H782.7z M773.6,317v-6.9h2.9v6.9h2.5v-16h-2.5v6.9h-2.9V301h-2.5v16H773.6z M760.8,317v-11.3l1.9,11.3h2.4
	l1.7-11.5V317h2.5v-16h-3.6l-1.7,11.4l-1.9-11.4h-3.5v16H760.8z M751.9,304.7c0-1.1,0.4-1.6,1.3-1.6c0.9,0,1.3,0.5,1.3,1.6v8.7
	c0,1.1-0.4,1.6-1.3,1.6c-0.9,0-1.3-0.5-1.3-1.6V304.7z M750.4,316.2c0.7,0.7,1.6,1.1,2.8,1.1s2.2-0.4,2.8-1.1c0.7-0.7,1-1.7,1-3
	v-8.4c0-1.3-0.3-2.3-1-3s-1.6-1.1-2.8-1.1s-2.2,0.4-2.8,1.1c-0.7,0.7-1,1.7-1,3v8.4C749.4,314.5,749.7,315.5,750.4,316.2 M742.6,317
	v-4.9l0.8-1.5l2.5,6.4h2.6l-3.5-8.9l3.5-7.2H746l-3.3,7v-7h-2.5V317H742.6z M729.7,304.9c0-0.6,0.1-1,0.3-1.3s0.5-0.4,1-0.4h1.2v4.9
	h-1c-0.5,0-0.9-0.1-1.1-0.4c-0.3-0.3-0.4-0.7-0.4-1.3V304.9z M729.4,317c0.1-0.2,0.1-0.3,0.1-0.4s0-0.3,0.1-0.5c0-0.3,0-0.6,0-1
	v-2.5c0-0.7,0.1-1.3,0.4-1.6c0.3-0.3,0.7-0.5,1.3-0.5h0.9v6.5h2.5v-16h-3.8c-1.3,0-2.2,0.3-2.8,0.9s-0.9,1.5-0.9,2.8v1.3
	c0,1.7,0.5,2.7,1.6,3.3c-0.6,0.3-1,0.7-1.3,1.2c-0.3,0.6-0.4,1.3-0.4,2.2v2.5c0,0.9-0.1,1.5-0.2,1.9L729.4,317L729.4,317z
	 M721.8,303.9l1.2,8.1h-2.4L721.8,303.9z M719.8,317l0.4-2.9h3.1l0.4,2.9h2.5l-2.6-16.1h-3.9l-2.6,16.1H719.8z M707.4,317.1
	c1.3,0,2.2-0.3,2.7-0.9c0.6-0.6,0.9-1.7,0.9-3.1l0.3-9.7h2.2V317h2.5v-16h-7.2l-0.3,12.1c0,0.4,0,0.7-0.1,0.9
	c-0.1,0.2-0.1,0.4-0.3,0.5c-0.1,0.1-0.3,0.2-0.5,0.2s-0.4,0-0.7,0v2.3h0.5V317.1z M700.5,317l2.1-7.4l1-3.9V317h2.5v-16h-3l-2.1,6.6
	l-0.9,3.5V301h-2.3v16H700.5z M685.8,317l2.3-7.2l0.6,1.2v5.9h2.5V311l0.6-1.2l2.3,7.1h2.5l-3.1-9.5l3.1-6.6h-2.5l-3,6.5V301h-2.5
	v6.5l-3-6.5h-2.5l3.1,6.6l-3.1,9.5h2.7V317z"/>
<path class="st1" d="M548.5,538.7c0.7,0.7,1.6,1,2.9,1c1.2,0,2.2-0.3,2.8-1s1-1.7,1-3v-1.3c0-1.7-0.6-2.9-1.8-3.4
	c1.2-0.5,1.8-1.6,1.8-3.3v-0.4c0-1.3-0.3-2.3-1-3c-0.6-0.7-1.6-1-2.8-1s-2.2,0.4-2.9,1c-0.7,0.7-1,1.7-1,3v0.9h2.5v-1
	c0-1.1,0.4-1.6,1.3-1.6c0.4,0,0.8,0.1,1,0.4c0.2,0.3,0.3,0.7,0.3,1.4v0.9c0,0.6-0.1,1-0.4,1.3c-0.3,0.3-0.6,0.4-1.1,0.4h-1v2.3h0.9
	c0.6,0,1,0.2,1.3,0.5s0.4,0.8,0.4,1.6v1.3c0,0.7-0.1,1.1-0.3,1.4c-0.2,0.3-0.5,0.4-1,0.4c-0.9,0-1.3-0.5-1.3-1.6v-1.5h-2.5v1.3
	C547.4,537,547.8,538,548.5,538.7 M545.8,537.2h-2.5v2.3h2.5V537.2z M539.1,525.8l-3.7,13.8h2.5l3.7-13.9v-2.2H534v2.3L539.1,525.8
	L539.1,525.8z"/>
<path class="st1" d="M578.4,499.9c0-0.6,0.1-1,0.3-1.3s0.5-0.4,1-0.4h1.2v4.9h-1c-0.5,0-0.9-0.1-1.1-0.4c-0.3-0.3-0.4-0.7-0.4-1.3
	V499.9z M578.1,512c0.1-0.2,0.1-0.3,0.1-0.4s0-0.3,0.1-0.5c0-0.3,0-0.6,0-1v-2.5c0-0.7,0.1-1.3,0.4-1.6c0.3-0.3,0.7-0.5,1.3-0.5h0.9
	v6.5h2.5v-16h-3.8c-1.3,0-2.2,0.3-2.8,0.9s-0.9,1.5-0.9,2.8v1.3c0,1.7,0.5,2.7,1.6,3.3c-0.6,0.3-1,0.7-1.3,1.2
	c-0.3,0.6-0.4,1.3-0.4,2.2v2.5c0,0.9-0.1,1.5-0.2,1.9L578.1,512L578.1,512z M570.5,498.8l1.2,8.1h-2.4L570.5,498.8z M568.5,512
	l0.4-2.9h3.1l0.4,2.9h2.5l-2.6-16.1h-3.9L566,512H568.5z M554.6,512l2.3-7.2l0.6,1.2v5.9h2.5V506l0.6-1.2l2.3,7.1h2.5l-3.1-9.5
	l3.1-6.6H563l-3,6.5V496h-2.5v6.5l-3-6.5H552l3.1,6.6l-3.1,9.5L554.6,512L554.6,512z M546.1,499.7c0-1.1,0.4-1.6,1.3-1.6
	c0.9,0,1.3,0.5,1.3,1.6v8.7c0,1.1-0.4,1.6-1.3,1.6c-0.9,0-1.3-0.5-1.3-1.6V499.7z M544.5,511.2c0.7,0.7,1.6,1.1,2.8,1.1
	s2.2-0.4,2.8-1.1c0.7-0.7,1-1.7,1-3v-8.4c0-1.3-0.3-2.3-1-3s-1.6-1.1-2.8-1.1s-2.2,0.4-2.8,1.1c-0.7,0.7-1,1.7-1,3v8.4
	C543.5,509.5,543.9,510.4,544.5,511.2 M535.8,512l2-6l1.9,6h2.5l-2.8-8.2l2.6-7.9h-2.2l-1.9,6l-1.9-6h-2.5l2.6,7.8l-2.8,8.3
	L535.8,512L535.8,512z M526.7,512l2.1-7.4l1-3.9V512h2.5v-16h-3l-2.1,6.6l-0.9,3.5V496H524v16H526.7z M518,498.3h1.2
	c0.4,0,0.7,0.1,0.9,0.3c0.2,0.2,0.3,0.6,0.3,1.2v2.4c0,0.6-0.1,0.9-0.3,1.2c-0.2,0.2-0.5,0.3-0.9,0.3H518V498.3z M518,512v-6h1.2
	c1.2,0,2.2-0.3,2.8-1s0.9-1.7,0.9-3v-2.1c0-1.3-0.3-2.3-0.9-3c-0.6-0.7-1.6-1-2.8-1h-3.7V512H518z M508.2,512v-13.8h2.9V512h2.5v-16
	h-7.9v16H508.2z"/>
<path class="st1" d="M767.1,770.5c1.6,1.6,3.7,2.4,6.5,2.4s4.9-0.8,6.4-2.4c1.5-1.6,2.2-3.9,2.2-6.8v-8.2c0-2.7-0.5-4.8-1.6-6.2
	s-2.7-2.1-4.8-2.1c-2.3,0-4,0.9-5,2.7l0.5-8.8h10v-5.2h-15.4l-1.1,21.3h5.8V756c0-2.4,1-3.6,3-3.6s3,1.2,3,3.6v8.1
	c0,2.4-1,3.6-3,3.6s-3-1.2-3-3.6v-3.4h-5.8v3C764.8,766.6,765.6,768.9,767.1,770.5 M761.1,767.2h-5.8v5.3h5.8V767.2z M744.3,746.8
	v13.8h-5.8L744.3,746.8z M744.3,765.8v6.7h5.8v-6.7h2.6v-5.2h-2.6v-24.8h-6.3l-10.5,24.8v5.2H744.3z M719.2,757.4c0-2.4,1-3.6,3-3.6
	s3,1.2,3,3.6v6.6c0,2.4-1,3.6-3,3.6s-3-1.2-3-3.6V757.4z M715.7,770.5c1.5,1.6,3.7,2.4,6.5,2.4s5-0.8,6.5-2.4
	c1.5-1.6,2.3-3.9,2.3-6.8V757c0-2.7-0.5-4.8-1.6-6.2s-2.7-2.2-4.8-2.2c-2.5,0-4.3,1.1-5.4,3.3v-6.7c0-1.7,0.3-2.8,0.8-3.5
	s1.3-1,2.4-1c2,0,3,1.2,3,3.6v1.3h5.4v-0.9c0-3-0.7-5.2-2.2-6.8s-3.6-2.4-6.4-2.4c-5.9,0-8.8,3.2-8.8,9.6v18.8
	C713.4,766.6,714.2,768.9,715.7,770.5"/>
<ellipse class="st5" cx="747.7" cy="692.9" rx="32.1" ry="32.1"/>
<path class="st1" d="M753.3,708.8v-8.5l1.4-2.5l4.2,11.1h4.5l-6.1-15.4l6.1-12.4H759l-5.7,12.1V681H749v27.8H753.3z M745.8,708.8v-4
	h-8.2c0-0.1,0-0.3,0-0.6c0-0.6,0.2-1.2,0.5-1.9c0.3-0.6,0.7-1.3,1.2-1.9c0.5-0.6,1.1-1.2,1.7-1.9c0.6-0.7,1.2-1.4,1.8-2.2
	s1.2-1.6,1.7-2.4c0.5-0.8,0.9-1.8,1.2-2.9c0.3-1.1,0.5-2.2,0.5-3.4c0-2.2-0.6-4-1.7-5.2c-1.1-1.2-2.7-1.8-4.8-1.8s-3.7,0.6-4.9,1.8
	c-1.1,1.2-1.7,2.9-1.7,5.2v2.7h4.2v-3c0-1.8,0.8-2.7,2.3-2.7c0.7,0,1.3,0.2,1.7,0.7s0.6,1.3,0.6,2.5c0,1.1-0.2,2.1-0.5,3.1
	s-0.7,1.8-1.2,2.5s-1.1,1.4-1.7,2.1c-0.6,0.7-1.2,1.4-1.9,2.1c-0.6,0.7-1.2,1.4-1.7,2.1c-0.5,0.7-0.9,1.6-1.2,2.6s-0.5,2-0.5,3.1
	v3.4L745.8,708.8L745.8,708.8z"/>
<line class="st2" x1="445.4" y1="435.2" x2="474.8" y2="435.2"/>
</svg>
