<?xml version="1.0" standalone="no"?>
<!DOCTYPE svg PUBLIC "-//W3C//DTD SVG 1.1//EN" "http://www.w3.org/Graphics/SVG/1.1/DTD/svg11.dtd" >
<svg xmlns="http://www.w3.org/2000/svg" xmlns:xlink="http://www.w3.org/1999/xlink" version="1.1">
<metadata>
Created by FontForge 20170731 at Thu Sep 22 17:43:48 2022
 By Aleksey,,,
Copyright 2015 The Finlandica Project Authors (https://github.com/HelsinkiTypeStudio/Finlandica)
</metadata>
<defs>
<font id="Finlandica-SemiBoldItalic" horiz-adv-x="599" >
  <font-face 
    font-family="Finlandica SemiBold"
    font-weight="600"
    font-style="italic"
    font-stretch="normal"
    units-per-em="1000"
    panose-1="0 0 0 0 0 0 0 0 0 0"
    ascent="800"
    descent="-200"
    x-height="508"
    cap-height="700"
    bbox="-121 -331 1123 992"
    underline-thickness="50"
    underline-position="-175"
    slope="-8"
    unicode-range="U+0020-FB02"
  />
<missing-glyph horiz-adv-x="600" 
 />
    <glyph glyph-name="fi" unicode="fi" horiz-adv-x="621" 
d="M62 0l55 397h-90l17 111h89l9 65q8 56 37.5 96.5t78.5 62t113 21.5q50 0 92.5 -14t72.5 -38l-47 -94q-30 22 -53.5 29.5t-54.5 7.5q-51 0 -77.5 -23t-32.5 -66l-6 -47h112l-17 -111h-111l-55 -397h-132zM379 0l55 397h-85l16 111h218l-71 -508h-133zM461 583l17 117h132
l-17 -117h-132z" />
    <glyph glyph-name="fl" unicode="fl" horiz-adv-x="610" 
d="M62 0l55 397h-90l17 111h89l9 65q8 56 37.5 96.5t78.5 62t113 21.5q47 0 86 -13t67 -33l-38 -98q-28 20 -58 27.5t-54 7.5q-47 0 -72 -23t-31 -66l-6 -47h112l-17 -111h-111l-55 -397h-132zM471 1q-52 0 -81.5 34t-22.5 86l89 629h129l-87 -610q-2 -14 3.5 -19.5
t17.5 -5.5h47l-16 -114h-79z" />
    <glyph glyph-name="f_f" unicode="ff" horiz-adv-x="738" 
d="M368 0l56 397h-90l17 111h89l9 65q8 56 37.5 96.5t78.5 62t113 21.5q47 0 86 -13t66 -33l-37 -98q-28 20 -58 27.5t-55 7.5q-46 0 -71 -23t-31 -66l-6 -47h111l-16 -111h-111l-56 -397h-132zM62 0l55 397h-90l17 111h89l9 65q8 56 38 96.5t78.5 62t112.5 21.5
q47 0 86 -13t67 -33l-38 -98q-28 20 -58 27.5t-54 7.5q-47 0 -72 -23t-31 -66l-6 -47h112l-17 -111h-111l-55 -397h-132z" />
    <glyph glyph-name="f_f_i" unicode="ffi" horiz-adv-x="928" 
d="M368 0l56 397h-90l17 111h89l9 65q8 56 37.5 96.5t78.5 62t113 21.5q50 0 92.5 -14t71.5 -38l-47 -94q-29 22 -52.5 29.5t-54.5 7.5q-52 0 -78 -23t-32 -66l-6 -47h111l-16 -111h-111l-56 -397h-132zM62 0l55 397h-90l17 111h89l9 65q8 56 38 96.5t78.5 62t112.5 21.5
q47 0 86 -13t67 -33l-38 -98q-28 20 -58 27.5t-54 7.5q-47 0 -72 -23t-31 -66l-6 -47h112l-17 -111h-111l-55 -397h-132zM686 0l55 397h-85l16 111h218l-72 -508h-132zM767 583l17 117h133l-17 -117h-133z" />
    <glyph glyph-name="f_f_l" unicode="ffl" horiz-adv-x="916" 
d="M368 0l56 397h-90l17 111h89l9 65q8 56 37 96.5t74.5 62t103.5 21.5q50 0 85 -19.5t58 -50.5l-14 -74q-28 20 -58 27.5t-55 7.5q-46 0 -71 -23t-31 -66l-6 -47h111l-16 -111h-111l-56 -397h-132zM62 0l55 397h-90l17 111h89l9 65q8 56 38 96.5t78.5 62t112.5 21.5
q47 0 86 -13t67 -33l-38 -98q-28 20 -58 27.5t-54 7.5q-47 0 -72 -23t-31 -66l-6 -47h112l-17 -111h-111l-55 -397h-132zM778 1q-52 0 -82 34t-23 86l89 629h129l-87 -610q-2 -14 3.5 -19.5t17.5 -5.5h48l-16 -114h-79z" />
    <glyph glyph-name=".notdef" horiz-adv-x="600" 
 />
    <glyph glyph-name=".null" horiz-adv-x="0" 
 />
    <glyph glyph-name="nonmarkingreturn" horiz-adv-x="333" 
 />
    <glyph glyph-name="space" unicode=" " horiz-adv-x="290" 
 />
    <glyph glyph-name="exclam" unicode="!" horiz-adv-x="297" 
d="M93 225l36 475h165l-96 -475h-105zM44 0l19 133h139l-19 -133h-139z" />
    <glyph glyph-name="quotedbl" unicode="&#x22;" horiz-adv-x="438" 
d="M86 421l46 329h108l-47 -329h-107zM291 421l46 329h108l-47 -329h-107z" />
    <glyph glyph-name="numbersign" unicode="#" horiz-adv-x="768" 
d="M247 385l15 113l109 202h144l-109 -202h118l109 202h144l-72 -134l-49 -51q-7 -7 -5 -12t10 -5h86l-16 -113h-484zM18 0l72 134l48 51q8 7 5.5 12t-11.5 5h-84l16 113h484l-15 -113l-110 -202h-143l109 202h-118l-110 -202h-143z" />
    <glyph glyph-name="dollar" unicode="$" horiz-adv-x="542" 
d="M149 -150l29 204h122l-29 -204h-122zM263 663l26 187h123l-26 -187h-123zM218 -10q-67 0 -118 17.5t-92 47.5l42 112q43 -28 83 -41t89 -13q38 0 66.5 14.5t44.5 38.5t16 53q0 25 -15 45t-50 30l-33 9q-44 13 -82 38t-61 63.5t-23 91.5q0 63 32.5 111.5t89.5 76.5t131 28
q63 0 110 -17t77 -39l-39 -107q-33 21 -69 30.5t-71 9.5q-45 0 -73.5 -13.5t-41.5 -34.5t-13 -42q0 -23 13.5 -39t43.5 -25l29 -8q86 -25 131.5 -75t46.5 -129q1 -73 -34 -125t-95 -80t-135 -28z" />
    <glyph glyph-name="percent" unicode="%" horiz-adv-x="700" 
d="M42 0l326 452l143 248h170l-319 -441l-151 -259h-169zM512 -12q-35 0 -65 13.5t-48 44.5t-18 83q0 61 20.5 107.5t57 73t85.5 26.5q34 0 63 -13.5t47.5 -45t18.5 -87.5q0 -63 -21.5 -108.5t-57.5 -69.5t-82 -24zM512 81q27 0 42.5 15.5t21.5 40.5t7 55q1 28 -11.5 39.5
t-31.5 11.5q-26 0 -41 -16.5t-21.5 -43t-6.5 -54.5q0 -27 12 -37.5t29 -10.5zM181 364q-35 0 -65 13.5t-48 44.5t-18 83q0 61 20.5 107.5t57 73t85.5 26.5q34 0 63 -13.5t47.5 -45t18.5 -87.5q0 -63 -21.5 -108.5t-57.5 -69.5t-82 -24zM181 457q27 0 42.5 15.5t21.5 41
t7 54.5q1 28 -11 39.5t-31 11.5q-27 0 -42 -16.5t-21.5 -42.5t-6.5 -55q0 -27 12.5 -37.5t28.5 -10.5z" />
    <glyph glyph-name="ampersand" unicode="&#x26;" horiz-adv-x="747" 
d="M272 -10q-38 0 -78 10.5t-73.5 32.5t-53.5 56t-19 79q0 60 33 106t87 65q-25 7 -49 25.5t-39 50t-15 75.5q0 65 35 115t96.5 78.5t139.5 28.5q63 0 116 -21t85 -59t31 -92q0 -14 -3 -29.5t-8 -32.5l-132 -19q10 33 9 58q-1 28 -17 44.5t-38.5 23.5t-46.5 7
q-65 -1 -102 -34.5t-37 -83.5q0 -28 13.5 -47.5t38 -29t59.5 -9.5h91l-16 -113h-85q-59 0 -88 -25.5t-27 -67.5q1 -31 30.5 -51.5t77.5 -20.5q41 0 74.5 8.5t64.5 26.5l20 130h-76l15 113h339l-16 -113h-143l-26 -205q-40 -27 -80 -45t-85.5 -26.5t-101.5 -8.5z" />
    <glyph glyph-name="quotesingle" unicode="'" horiz-adv-x="233" 
d="M86 421l46 329h108l-47 -329h-107z" />
    <glyph glyph-name="parenleft" unicode="(" horiz-adv-x="455" 
d="M265 -178q-100 28 -143 92t-43 167q0 90 11 185t28.5 189t37.5 182q20 72 57.5 124.5t88 82.5t105.5 36l33 -113q-61 -19 -103 -61.5t-58 -114.5q-18 -84 -34 -169.5t-26 -168t-10 -158.5q0 -65 22 -105t86 -59z" />
    <glyph glyph-name="parenright" unicode=")" horiz-adv-x="455" 
d="M75 -180l-33 113q66 18 106 61.5t54 114.5q20 93 36 180.5t25.5 170.5t9.5 160q0 52 -22 91t-87 58l53 109q101 -28 144.5 -91t41.5 -166q-3 -131 -24.5 -276t-52.5 -282q-26 -98 -86.5 -160t-164.5 -83z" />
    <glyph glyph-name="asterisk" unicode="*" horiz-adv-x="525" 
d="M189 350l-58 39l115 136h-166l9 65h168l-78 136l64 40l54 -108l6 -43q1 -10 7 -10t10 10l18 43l84 108l57 -40l-114 -136h166l-9 -65h-169l78 -136l-63 -39l-54 106l-6 42q-2 10 -8 10t-10 -10l-18 -42z" />
    <glyph glyph-name="plus" unicode="+" horiz-adv-x="595" 
d="M216 102l27 188h-188l17 120h188l26 188h119l-26 -188h188l-17 -120h-187l-27 -188h-120z" />
    <glyph glyph-name="comma" unicode="," horiz-adv-x="303" 
d="M-69 -205l16 68q70 4 115 43t54 98l-82 -4l20 134h157l-15 -111q-11 -77 -50 -126.5t-95.5 -74.5t-119.5 -27z" />
    <glyph glyph-name="hyphen" unicode="-" horiz-adv-x="345" 
d="M43 204l17 120h245l-17 -120h-245z" />
    <glyph glyph-name="period" unicode="." horiz-adv-x="289" 
d="M39 0l19 138h140l-20 -138h-139z" />
    <glyph glyph-name="slash" unicode="/" horiz-adv-x="485" 
d="M-11 0l382 700h148l-381 -700h-149z" />
    <glyph glyph-name="zero" unicode="0" horiz-adv-x="617" 
d="M262 255l26 190h93l-27 -190h-92zM283 -12q-78 0 -129 33t-76 85t-25 109q0 48 5.5 102.5t16.5 108.5t26 100q25 82 88.5 134t170.5 52q78 0 129.5 -33t76.5 -85t25 -109q0 -47 -5.5 -102t-16.5 -109t-26 -100q-24 -82 -88 -134t-172 -52zM292 113q42 0 73 24t46 67
q9 23 16.5 59t13.5 76t9.5 77t3.5 61q0 51 -26.5 80.5t-76.5 29.5q-42 0 -73 -23.5t-46 -67.5q-8 -22 -15.5 -59t-13.5 -78t-9.5 -77.5t-3.5 -58.5q0 -51 26.5 -80.5t75.5 -29.5z" />
    <glyph glyph-name="one" unicode="1" horiz-adv-x="355" 
d="M85 0l81 573h-89l12 92l238 47l-102 -712h-140z" />
    <glyph glyph-name="two" unicode="2" horiz-adv-x="542" 
d="M15 0l12 80q10 79 46.5 139t109.5 96l81 42q39 19 69 38t47.5 44.5t17.5 61.5q0 46 -32.5 68.5t-84.5 22.5q-41 0 -85.5 -18.5t-92.5 -56.5l-38 116q44 35 98.5 57t118.5 22q68 0 123 -23.5t87.5 -70.5t32.5 -118q0 -50 -18.5 -88t-48.5 -66.5t-63.5 -49t-64.5 -36.5
l-82 -41q-39 -19 -59 -47t-23 -47h328l-18 -125h-461z" />
    <glyph glyph-name="three" unicode="3" horiz-adv-x="531" 
d="M220 -10q-66 0 -122 17.5t-104 59.5l54 108q25 -24 51 -38t56.5 -20.5t67.5 -6.5q44 0 74.5 15t46 41t15.5 58q0 41 -26.5 65.5t-79.5 24.5h-84l15 113h78q61 0 91 25t28 69q-1 30 -30 50.5t-77 20.5q-43 0 -78.5 -12.5t-77.5 -39.5l-30 110q54 36 100 49t101 13
q38 0 77 -9.5t72 -30t54 -54.5t21 -83q-1 -59 -35 -106t-89 -66q25 -9 47.5 -28.5t37 -49.5t14.5 -74q0 -66 -35.5 -116t-96 -77.5t-136.5 -27.5z" />
    <glyph glyph-name="four" unicode="4" horiz-adv-x="554" 
d="M304 0l25 180h-322l8 63l271 457h144l-246 -408h161l29 208h129l-29 -208h61l-16 -112h-61l-25 -180h-129z" />
    <glyph glyph-name="five" unicode="5" horiz-adv-x="522" 
d="M210 -10q-65 0 -116 19.5t-96 57.5l55 107q33 -32 70 -48t90 -16q43 0 76 17.5t51.5 48t18.5 70.5q-1 49 -30.5 75t-81.5 26q-37 0 -71 -16t-62 -37l-52 50l67 356h381l-16 -110h-263l-29 -145q-1 -7 3.5 -9.5t9.5 -0.5l43 17q7 3 15 3.5t13 0.5q63 0 108 -25.5t69 -70.5
t24 -106q0 -59 -19 -107.5t-55 -83.5t-87.5 -54t-115.5 -19z" />
    <glyph glyph-name="six" unicode="6" horiz-adv-x="588" 
d="M265 -12q-67 0 -120.5 29t-85.5 80.5t-32 117.5q0 59 25.5 120.5t80.5 125.5l204 239h157l-203 -231q-5 -6 -2.5 -9.5t8.5 -1.5l50 21q7 1 13.5 2t12.5 1q53 0 95.5 -26.5t67.5 -71t25 -101.5q0 -62 -23 -115.5t-63.5 -93.5t-94 -63t-115.5 -23zM273 108q45 0 81 21.5
t56.5 58t20.5 79.5q0 31 -15 55.5t-40.5 38t-57.5 13.5q-45 0 -81.5 -20.5t-58.5 -56t-22 -79.5q0 -34 15.5 -59t42.5 -38t59 -13z" />
    <glyph glyph-name="seven" unicode="7" horiz-adv-x="510" 
d="M-7 0l355 579h-311l17 121h470l-9 -78l-106 -165l-23 -32q-6 -7 -3 -11.5t9 -4.5h100l-19 -117h-161l-179 -292h-140z" />
    <glyph glyph-name="eight" unicode="8" horiz-adv-x="587" 
d="M284 -12q-76 0 -133 26.5t-88 70.5t-31 96q0 40 12.5 69t30.5 48t34 29l86 23q8 2 8 8t-8 10q-19 12 -41 31.5t-37 47t-15 61.5q0 61 33.5 107t90 71.5t126.5 25.5q69 0 119 -28t76 -71t26 -88q0 -31 -11.5 -59.5t-29.5 -49t-37 -28.5l-53 -11q-9 -1 -10 -7t6 -9
q40 -18 63.5 -45t34.5 -56t10 -55q0 -69 -35 -118t-94.5 -74t-132.5 -25zM286 100q40 0 68.5 13t44 36t15.5 54q0 27 -15 48.5t-44 38t-71 28.5q-30 -4 -58 -18.5t-45.5 -39t-17.5 -60.5q0 -29 15.5 -51.5t43.5 -35.5t64 -13zM333 408q49 12 79 41.5t30 68.5
q0 28 -12.5 46.5t-33.5 28.5t-50 10q-33 0 -58 -11.5t-39.5 -33.5t-14.5 -54q0 -23 12 -41.5t34.5 -31.5t52.5 -23z" />
    <glyph glyph-name="nine" unicode="9" horiz-adv-x="588" 
d="M117 0l203 231q6 6 3 10t-8 1l-50 -21q-7 -1 -13.5 -2t-13.5 -1q-52 0 -95 26.5t-68 71.5t-25 101q0 62 23 115.5t63.5 93.5t94.5 63t116 23q66 0 120 -29t85.5 -80t31.5 -118q0 -59 -25.5 -120t-80.5 -126l-204 -239h-157zM293 326q46 0 82.5 20.5t58 56t21.5 79.5
q0 35 -15.5 59.5t-42 37.5t-59.5 13q-44 0 -80 -21.5t-57 -57.5t-21 -80q0 -31 15 -55.5t41 -38t57 -13.5z" />
    <glyph glyph-name="colon" unicode=":" horiz-adv-x="289" 
d="M49 0l19 138h140l-20 -138h-139zM102 370l19 138h140l-20 -138h-139z" />
    <glyph glyph-name="semicolon" unicode=";" horiz-adv-x="303" 
d="M-69 -205l16 68q70 4 115 43t54 98l-82 -4l20 134h157l-15 -111q-11 -77 -50 -126.5t-95.5 -74.5t-119.5 -27zM88 370l19 138h140l-20 -138h-139z" />
    <glyph glyph-name="less" unicode="&#x3c;" horiz-adv-x="540" 
d="M471 113l-416 172l21 151l464 171l-17 -121l-347 -122q-8 -3 -8.5 -9t6.5 -9l313 -117z" />
    <glyph glyph-name="equal" unicode="=" horiz-adv-x="555" 
d="M70 397l16 111h455l-16 -111h-455zM41 192l16 111h455l-15 -111h-456z" />
    <glyph glyph-name="greater" unicode="&#x3e;" horiz-adv-x="540" 
d="M31 113l16 122l347 121q9 3 9.5 9t-6.5 8l-314 119l17 115l415 -173l-20 -151z" />
    <glyph glyph-name="question" unicode="?" horiz-adv-x="496" 
d="M123 229q-1 14 -0.5 26.5t1.5 27.5q4 26 16.5 49t34.5 42t54 33l53 24q32 15 50 36t17 59q-1 23 -15 36.5t-35.5 20.5t-45.5 7q-49 0 -84 -11t-71 -32l-29 111q42 25 91 39.5t100 14.5q64 0 113.5 -20.5t78 -60t28.5 -99.5q0 -42 -11.5 -73t-31 -54t-44.5 -40t-54 -32
l-41 -21q-23 -11 -39.5 -23t-23.5 -38l-5 -22h-107zM80 0l19 131h140l-19 -131h-140z" />
    <glyph glyph-name="at" unicode="@" horiz-adv-x="733" 
d="M354 -124q-99 0 -167.5 32.5t-104 98.5t-35.5 167q0 94 25 178.5t73.5 151t120.5 105t166 38.5t151.5 -34.5t80.5 -92.5t12 -128l-23 -149l52 -20l-47 -107l-99 40q-25 -16 -62.5 -29t-79.5 -13q-75 0 -113 44t-28 112q10 69 63 104.5t126 35.5l92 4q1 34 -12 59t-41 38
t-72 13q-68 0 -116 -31t-77.5 -81.5t-43.5 -109.5t-14 -116q-1 -99 48.5 -145.5t130.5 -46.5q53 0 88 13t72 34l51 -97q-54 -34 -105 -51t-112 -17zM443 216q28 0 50 11t35.5 28.5t16.5 36.5l5 31q1 6 -2.5 6.5t-11.5 -1.5l-46 -10h-27q-28 0 -46.5 -15.5t-21.5 -41.5
q-3 -19 10 -32t38 -13z" />
    <glyph glyph-name="A" unicode="A" 
d="M-16 0l275 700h195l89 -700h-139l-48 431l-1 139q0 9 -7 10t-9 -7l-213 -573h-142zM167 168l45 116h183l11 -116h-239zM136 584l17 116h125l-30 -116h-112z" />
    <glyph glyph-name="B" unicode="B" horiz-adv-x="585" 
d="M40 0l98 700h233q87 0 140 -45.5t53 -125.5q0 -58 -30.5 -104t-89.5 -68q48 -22 71.5 -65.5t23.5 -89.5q0 -71 -29.5 -115.5t-84.5 -65.5t-130 -21h-255zM184 115h117q108 0 108 100q0 37 -21 57.5t-59 20.5h-120zM225 408h110q50 0 75 30.5t25 70.5q0 34 -20 55t-56 21
h-109z" />
    <glyph glyph-name="C" unicode="C" horiz-adv-x="504" 
d="M284 -12q-57 0 -100.5 19.5t-72.5 53t-43.5 73.5t-14.5 81q0 51 5.5 104t16.5 106.5t26 100.5q24 82 88 134t171 52q53 0 94 -16t69 -43l-41 -107q-25 22 -54 32t-71 10q-40 0 -74.5 -21.5t-50.5 -70.5q-5 -19 -12.5 -55t-14 -78t-11 -80.5t-4.5 -61.5q0 -51 27 -79.5
t75 -28.5q39 0 66.5 11.5t51.5 28.5l40 -113q-33 -25 -71.5 -38.5t-94.5 -13.5z" />
    <glyph glyph-name="D" unicode="D" horiz-adv-x="607" 
d="M39 0l99 700h197q86 0 141 -27t81 -79t25 -127q-1 -60 -11.5 -128.5t-23.5 -127.5q-18 -83 -60 -129t-103.5 -64t-140.5 -18h-204zM196 116h57q45 0 76.5 10t53.5 38t34 82q7 26 14 67t12 82.5t5 69.5q1 39 -10.5 65.5t-38.5 40t-74 13.5h-64z" />
    <glyph glyph-name="E" unicode="E" horiz-adv-x="551" 
d="M39 0l99 700h423l-18 -125h-294l-24 -166h278l-16 -118h-278l-24 -166h295l-17 -125h-424z" />
    <glyph glyph-name="F" unicode="F" horiz-adv-x="528" 
d="M39 0l99 700h421l-18 -125h-280l-23 -163h261l-17 -124h-261l-41 -288h-141z" />
    <glyph glyph-name="G" unicode="G" horiz-adv-x="598" 
d="M288 -12q-74 0 -127.5 28.5t-81.5 78t-28 113.5q0 36 5 87t14 104t20 97q23 86 65 133t101.5 65t130.5 18q58 0 105 -17t82 -47l-55 -106q-27 22 -61.5 33.5t-74.5 11.5q-44 0 -75.5 -11t-53.5 -39.5t-34 -79.5q-9 -38 -17.5 -83t-13 -88.5t-4.5 -77.5q0 -41 26.5 -68
t73.5 -27q25 0 48.5 3.5t42.5 9.5l26 162h-71l17 124h255l-17 -124h-65l-32 -247q-36 -23 -84.5 -38t-116.5 -15z" />
    <glyph glyph-name="H" unicode="H" horiz-adv-x="635" 
d="M39 0l99 700h141l-41 -288h203l41 288h141l-99 -700h-141l41 288h-203l-41 -288h-141z" />
    <glyph glyph-name="I" unicode="I" horiz-adv-x="438" 
d="M14 0l17 117h98l66 466h-99l17 117h338l-17 -117h-99l-65 -466h99l-17 -117h-338z" />
    <glyph glyph-name="J" unicode="J" horiz-adv-x="471" 
d="M141 -12q-50 0 -88.5 15t-72.5 41l51 109q25 -21 52 -30.5t62 -9.5q46 0 75.5 25t37.5 77l51 368h-145l17 117h286l-71 -495q-14 -107 -83 -162t-172 -55z" />
    <glyph glyph-name="K" unicode="K" horiz-adv-x="574" 
d="M39 0l99 700h138l-41 -292h54l174 292h152l-209 -343l105 -357h-145l-83 292h-65l-41 -292h-138z" />
    <glyph glyph-name="L" unicode="L" horiz-adv-x="446" 
d="M39 0l99 700h141l-81 -575h208l-18 -125h-349z" />
    <glyph glyph-name="M" unicode="M" horiz-adv-x="679" 
d="M39 0l99 700h113l100 -261q3 -8 10 -7.5t12 8.5l177 260h117l-99 -700h-133l43 303l31 109q3 10 -4 12t-13 -6l-132 -180h-50l-75 181q-3 8 -10 6.5t-7 -10.5l-1 -105l-45 -310h-133z" />
    <glyph glyph-name="N" unicode="N" horiz-adv-x="636" 
d="M39 0l99 700h114l179 -434q3 -7 9.5 -6t6.5 11l1 120l43 309h133l-99 -700h-117l-173 422q-4 8 -10 6.5t-7 -12.5l-5 -126l-41 -290h-133z" />
    <glyph glyph-name="O" unicode="O" horiz-adv-x="617" 
d="M283 -12q-78 0 -129 33t-76 85t-25 109q0 48 5.5 102.5t16.5 108.5t26 100q25 82 88.5 134t170.5 52q78 0 129.5 -33t76.5 -85t25 -109q0 -47 -5.5 -102t-16.5 -109t-26 -100q-24 -82 -88 -134t-172 -52zM292 113q42 0 73 24t46 67q9 23 16.5 59t13.5 76t9.5 77t3.5 61
q0 51 -26.5 80.5t-76.5 29.5q-42 0 -73 -23.5t-46 -67.5q-8 -22 -15.5 -59t-13.5 -78t-9.5 -77.5t-3.5 -58.5q0 -51 26.5 -80.5t75.5 -29.5z" />
    <glyph glyph-name="P" unicode="P" horiz-adv-x="573" 
d="M39 0l99 700h247q59 0 102 -23.5t67 -65t24 -96.5q0 -69 -29.5 -120t-82.5 -79t-125 -28h-122l-40 -288h-140zM236 404h112q48 0 75 29t27 76q0 32 -17.5 54t-59.5 22h-112z" />
    <glyph glyph-name="Q" unicode="Q" horiz-adv-x="617" 
d="M348 -116l-34 105q-6 0 -13.5 -0.5t-18.5 -0.5q-56 0 -99 20t-72 53.5t-44 74t-15 82.5q0 50 6 102.5t17.5 105t25.5 100.5q24 82 88 134t172 52q56 0 99.5 -19.5t72.5 -53t43.5 -73t14.5 -80.5q0 -50 -6 -104.5t-16.5 -108t-25.5 -99.5q-15 -48 -42.5 -85.5t-71.5 -60.5
l33 -94zM288 108q11 0 16 3.5t5 8.5q0 3 -2.5 6.5t-7.5 7.5l-38 25l-22 71l108 48l43 -127q9 9 15.5 20.5t11.5 25.5q7 23 15 60t14.5 79.5t10.5 80t4 62.5q0 52 -30 81t-80 29q-38 0 -73.5 -22.5t-51.5 -70.5q-5 -20 -12.5 -55.5t-14.5 -78t-11.5 -80t-4.5 -59.5
q0 -52 29.5 -83.5t75.5 -31.5z" />
    <glyph glyph-name="R" unicode="R" horiz-adv-x="591" 
d="M39 0l99 700h245q67 0 113.5 -24.5t71 -67t24.5 -98.5q0 -76 -43 -132t-115 -80q-15 -4 -10 -19l30 -52l51 -227h-140l-65 288h-80l-41 -288h-140zM236 404h130q45 0 72.5 26t27.5 71q0 42 -24 63t-67 21h-114z" />
    <glyph glyph-name="S" unicode="S" horiz-adv-x="511" 
d="M208 -10q-67 0 -118 17.5t-92 47.5l42 112q43 -28 83 -41t89 -13q38 0 66.5 14.5t44.5 38.5t16 53q0 25 -15 45t-50 30l-33 9q-44 13 -82 38t-61 63.5t-23 91.5q0 63 32.5 111.5t89.5 76.5t131 28q63 0 110 -17t77 -39l-39 -107q-33 21 -69 30.5t-71 9.5
q-45 0 -73.5 -13.5t-41.5 -34.5t-13 -42q0 -23 13.5 -39t43.5 -25l29 -8q86 -25 131.5 -75t46.5 -129q1 -73 -34 -125t-95 -80t-135 -28z" />
    <glyph glyph-name="T" unicode="T" horiz-adv-x="505" 
d="M146 0l81 575h-159l17 125h460l-18 -125h-159l-81 -575h-141z" />
    <glyph glyph-name="U" unicode="U" horiz-adv-x="605" 
d="M279 -10q-72 0 -124 30t-77 85.5t-14 132.5l65 462h141l-67 -473q-8 -57 17 -84.5t66 -27.5q43 0 72 28t34 71l69 486h141l-72 -491q-9 -66 -43.5 -115.5t-87 -76.5t-120.5 -27z" />
    <glyph glyph-name="V" unicode="V" horiz-adv-x="555" 
d="M145 0l-62 700h137l35 -441l-7 -132q-1 -10 6.5 -11t10.5 9l190 575h143l-251 -700h-202z" />
    <glyph glyph-name="W" unicode="W" horiz-adv-x="634" 
d="M71 0l13 700h125l-3 -318l-16 -121q-1 -10 5.5 -10t9.5 8l105 249h69l30 -251q2 -10 9 -10t8 10l22 122l86 321h127l-183 -700h-134l-22 243q-1 9 -8 10t-11 -9l-98 -244h-134z" />
    <glyph glyph-name="X" unicode="X" horiz-adv-x="558" 
d="M-16 0l203 353l-88 347h141l37 -197l-2 -87q0 -8 5.5 -8.5t9.5 7.5l154 285h153l-202 -335l91 -365h-143l-40 210l-1 80q0 8 -5 8t-10 -8l-151 -290h-152z" />
    <glyph glyph-name="Y" unicode="Y" horiz-adv-x="502" 
d="M144 0l40 273l-121 427h143l44 -166l9 -119q1 -8 6.5 -8.5t10.5 8.5l144 285h145l-241 -427l-40 -273h-140z" />
    <glyph glyph-name="Z" unicode="Z" horiz-adv-x="530" 
d="M3 0l11 86l278 396l79 89q5 5 3 9.5t-7 4.5h-153l-9 -70h-127l26 185h449l-11 -86l-275 -390l-74 -84q-4 -5 -3 -10t6 -5h278l-18 -125h-453z" />
    <glyph glyph-name="bracketleft" unicode="[" horiz-adv-x="424" 
d="M26 -176l147 1045h248l-15 -105h-112l-118 -834h113l-15 -106h-248z" />
    <glyph glyph-name="backslash" unicode="\" horiz-adv-x="468" 
d="M271 0l-184 700h130l186 -700h-132z" />
    <glyph glyph-name="bracketright" unicode="]" horiz-adv-x="424" 
d="M30 -176l14 106h113l117 834h-112l15 105h248l-147 -1045h-248z" />
    <glyph glyph-name="asciicircum" unicode="^" horiz-adv-x="493" 
d="M27 350l206 400h161l96 -400h-138l-38 224l-4 64q-1 9 -7.5 10.5t-11.5 -9.5l-121 -289h-143z" />
    <glyph glyph-name="underscore" unicode="_" horiz-adv-x="548" 
d="M16 -250l10 70h374l-10 -70h-374z" />
    <glyph glyph-name="grave" unicode="`" horiz-adv-x="364" 
d="M228 583l-107 167h131l107 -167h-131z" />
    <glyph glyph-name="a" unicode="a" horiz-adv-x="550" 
d="M206 -9q-29 0 -59.5 8.5t-56 29t-41.5 55.5t-16 87q0 56 11 111.5t34 101.5q35 65 91 99.5t128 34.5q12 0 24 -0.5t28 -2.5l37 -12q6 -2 16 -1l90 10l-52 -383l61 -30l-57 -109l-102 50q-9 4 -14 -2l-17 -19q-25 -10 -41.5 -16.5t-31 -9t-32.5 -2.5zM226 107q10 0 20.5 3
t26 10.5t40.5 21.5l36 261q-28 5 -51 5q-37 0 -67 -17t-45 -50q-16 -33 -23 -72.5t-7 -87.5q0 -39 20 -56.5t50 -17.5z" />
    <glyph glyph-name="b" unicode="b" horiz-adv-x="529" 
d="M237 -12q-16 0 -28.5 1t-28.5 4l-37 12q-7 2 -16 1l-90 -10l104 754h127l-35 -258q-1 -7 3 -9.5t10 0.5l57 31q6 1 11 2t11 1q42 0 81 -17t64.5 -56t25.5 -106q0 -57 -10.5 -113t-34.5 -102q-33 -64 -88 -99.5t-126 -35.5zM231 99q36 0 66 17t46 50q16 34 23 73.5t7 87.5
q0 27 -9.5 43t-25.5 23t-33 7q-21 0 -41 -8t-48 -26l-36 -261q15 -3 26.5 -4.5t24.5 -1.5z" />
    <glyph glyph-name="c" unicode="c" horiz-adv-x="458" 
d="M229 -10q-63 0 -107 25.5t-66.5 70t-22.5 100.5q0 36 5.5 71t15.5 70q16 61 48.5 103.5t79 65t104.5 22.5q53 0 89 -11t68 -29l-38 -97q-22 12 -48 20t-56 8q-53 0 -84.5 -30.5t-46.5 -80.5q-6 -24 -9.5 -50.5t-5.5 -57.5q-1 -29 9.5 -50t29.5 -32.5t45 -11.5
q13 0 26.5 5.5t27.5 18t28 32.5l91 -48q-37 -66 -85 -90t-98 -24z" />
    <glyph glyph-name="d" unicode="d" horiz-adv-x="550" 
d="M352 442l44 308h130l-42 -299zM206 -9q-29 0 -59.5 8.5t-56 29t-41.5 55.5t-16 87q0 56 11 111.5t34 101.5q35 65 91 99.5t128 34.5q12 0 24 -0.5t28 -2.5l37 -12q6 -2 16 -1l90 10l-52 -383l61 -30l-57 -109l-102 50q-9 4 -14 -2l-17 -19q-25 -10 -41.5 -16.5t-31 -9
t-32.5 -2.5zM226 107q10 0 20.5 3t26 10.5t40.5 21.5l36 261q-28 5 -51 5q-37 0 -67 -17t-45 -50q-16 -33 -23 -72.5t-7 -87.5q0 -39 20 -56.5t50 -17.5z" />
    <glyph glyph-name="e" unicode="e" horiz-adv-x="497" 
d="M230 -10q-64 0 -108 25.5t-66.5 70t-22.5 100.5q0 38 5.5 72.5t14.5 64.5q16 65 48.5 108t79 65t105.5 22q56 0 94 -18.5t59.5 -50.5t27.5 -74.5t-2 -90.5l-33 -62h-300l12 92h208q12 48 -7 74t-61 26q-44 0 -73.5 -32t-42.5 -89q-4 -21 -7.5 -45t-5.5 -57
q-2 -46 22.5 -70.5t61.5 -24.5q26 0 50.5 13t47.5 43l97 -48q-40 -65 -94 -89.5t-110 -24.5z" />
    <glyph glyph-name="f" unicode="f" horiz-adv-x="389" 
d="M62 0l55 397h-90l17 111h89l9 65q8 56 38 96.5t78.5 62t112.5 21.5q35 0 63 -7t50 -19l-38 -98q-18 8 -37 11.5t-35 3.5q-47 0 -72 -23t-31 -66l-6 -47h112l-17 -111h-111l-55 -397h-132z" />
    <glyph glyph-name="g" unicode="g" horiz-adv-x="522" 
d="M170 -207q-61 0 -107 15.5t-81 41.5l38 99q34 -25 67.5 -36t76.5 -11q52 0 85.5 22.5t40.5 58.5l4 21q2 8 -3 11t-13 1l-63 -24q-5 -1 -10.5 -1h-11.5q-29 1 -57.5 10.5t-51.5 29.5t-37 54t-14 86q0 36 5 74t14.5 74.5t25.5 64.5q35 65 91 99.5t128 34.5q23 0 52 -3
l37 -12q6 -2 16 -1l90 10l-67 -475q-10 -72 -35 -119t-59 -74.5t-75.5 -39t-85.5 -11.5zM223 107q19 0 39 8t52 27l35 261q-14 3 -25.5 4t-25.5 1q-36 0 -66 -16.5t-46 -50.5q-17 -35 -23.5 -73t-6.5 -81q0 -35 10.5 -52t26 -22.5t30.5 -5.5z" />
    <glyph glyph-name="h" unicode="h" horiz-adv-x="545" 
d="M315 0l45 332q5 35 -7.5 52t-41.5 17q-16 0 -31 -4t-32.5 -12t-40.5 -22l8 105q29 20 51.5 31t44.5 15t49 4q46 0 78.5 -19t47.5 -57t7 -96l-48 -346h-130zM35 0l106 751h129l-105 -751h-130z" />
    <glyph glyph-name="i" unicode="i" horiz-adv-x="304" 
d="M62 0l55 397h-85l16 111h218l-71 -508h-133zM144 583l17 117h132l-17 -117h-132z" />
    <glyph glyph-name="j" unicode="j" horiz-adv-x="319" 
d="M-17 -222l-23 116q46 12 78.5 39.5t39.5 77.5l55 387h-85l15 110h218l-70 -500q-11 -76 -46.5 -124.5t-84 -73.5t-97.5 -32zM158 583l17 117h132l-17 -117h-132z" />
    <glyph glyph-name="k" unicode="k" horiz-adv-x="515" 
d="M35 0l106 750h130l-58 -408h45l107 166h147l-142 -214l79 -294h-140l-51 227h-61l-32 -227h-130z" />
    <glyph glyph-name="l" unicode="l" horiz-adv-x="295" 
d="M157 1q-52 0 -82 34t-23 86l89 629h129l-87 -610q-2 -14 3.5 -19.5t17.5 -5.5h48l-16 -114h-79z" />
    <glyph glyph-name="m" unicode="m" horiz-adv-x="845" 
d="M55 0l60 434l49 -89l-127 62l55 111l106 -52q10 -5 17 2l15 17q39 21 67.5 28t67.5 6q40 -1 68.5 -15t47.5 -35q8 -8 17 2l15 17q26 13 46 20t40 9.5t45 1.5q52 -1 87.5 -24.5t51 -65t7.5 -96.5l-47 -333h-130l47 337q5 32 -9.5 48t-42.5 16q-18 0 -38 -7t-46 -22.5
t-65 -42.5l61 68l-56 -397h-130l47 338q4 31 -10 47t-42 16q-20 0 -39.5 -7.5t-45 -22.5t-64.5 -39l66 98l-61 -430h-130z" />
    <glyph glyph-name="n" unicode="n" horiz-adv-x="565" 
d="M55 0l62 448l56 -108l-136 67l55 111l106 -52q10 -5 17 2l15 17q38 22 66.5 28.5t67.5 5.5q80 -1 119.5 -50.5t26.5 -137.5l-46 -331h-130l47 336q4 33 -10.5 49t-41.5 16q-17 0 -32.5 -4.5t-34 -14.5t-43.5 -26l22 36l-56 -392h-130z" />
    <glyph glyph-name="o" unicode="o" horiz-adv-x="517" 
d="M228 -12q-66 0 -109 29t-64.5 73.5t-21.5 93.5q0 27 4 58t10 62t15 57q23 70 79.5 114t144.5 44q68 0 111 -28t64.5 -73t21.5 -94q0 -27 -3.5 -58.5t-10 -61.5t-15.5 -56q-23 -71 -80 -115.5t-146 -44.5zM237 97q36 0 61 21.5t38 56.5q6 16 11.5 41.5t8.5 52.5t3 48
q0 40 -20.5 67t-61.5 27q-36 0 -60 -21.5t-37 -56.5q-5 -15 -10.5 -39.5t-8.5 -51.5t-3 -51q0 -41 19 -67.5t60 -26.5z" />
    <glyph glyph-name="p" unicode="p" horiz-adv-x="538" 
d="M20 -200l78 578l-61 30l58 110l100 -49q9 -5 14 2l17 18q25 11 41.5 17t32 8.5t35.5 2.5q31 0 61 -8t54.5 -28.5t39.5 -55.5t15 -89q0 -55 -10.5 -111t-33.5 -102q-36 -64 -91 -99t-129 -35q-12 0 -24 1t-28 3l-12 3l-27 -196h-130zM240 99q37 0 67 18t46 50
q16 33 23 71.5t7 79.5q0 34 -9 52t-24.5 24t-35.5 6q-16 0 -35.5 -7.5t-52.5 -25.5l-37 -262q28 -6 51 -6z" />
    <glyph glyph-name="q" unicode="q" horiz-adv-x="531" 
d="M266 -200l30 216q1 7 -3 9.5t-10 -0.5l-57 -31q-6 -2 -11 -2.5t-10 -0.5q-42 0 -81.5 15t-65 54t-25.5 111q0 56 11 111.5t34 101.5q33 65 87 100t124 35q17 0 30.5 -1t29.5 -3l37 -12q7 -2 16 -1l90 10l-98 -712h-128zM223 107q19 0 39 8t52 27l35 261q-14 3 -25.5 4
t-25.5 1q-36 0 -66 -16.5t-46 -49.5q-16 -34 -23 -73t-7 -82q0 -33 8.5 -50t24 -23.5t34.5 -6.5z" />
    <glyph glyph-name="r" unicode="r" horiz-adv-x="402" 
d="M55 0l62 448l56 -108l-136 67l55 111l106 -52q10 -5 17 2l15 17q31 18 60.5 26t68.5 8q20 0 36 -3t30 -9l-28 -123q-14 2 -27 4t-26 2q-20 0 -39 -4.5t-40 -15t-46 -28.5l22 50l-56 -392h-130z" />
    <glyph glyph-name="s" unicode="s" horiz-adv-x="463" 
d="M198 -12q-54 0 -100 15.5t-82 42.5l38 98q35 -25 69.5 -35.5t78.5 -10.5q41 0 64 15.5t23 38.5q0 18 -10.5 30t-37.5 20l-39 11q-68 19 -101 53.5t-33 84.5q0 56 26 93.5t73 56.5t108 19q51 0 91.5 -14.5t65.5 -32.5l-38 -97q-26 17 -56.5 26t-71.5 9q-39 0 -59.5 -13
t-20.5 -32q0 -15 8.5 -24.5t27.5 -15.5l37 -11q71 -22 108.5 -54.5t37.5 -93.5q1 -61 -25.5 -100.5t-73.5 -59t-108 -19.5z" />
    <glyph glyph-name="t" unicode="t" horiz-adv-x="404" 
d="M182 1q-52 0 -81.5 33.5t-22.5 86.5l39 276h-90l16 111h89q5 0 9 2.5t8.5 11t9.5 23.5l35 100h89l-21 -137h121l-17 -111h-121l-36 -257q-2 -14 3.5 -19.5t17.5 -5.5h85l-16 -114h-117z" />
    <glyph glyph-name="u" unicode="u" horiz-adv-x="544" 
d="M181 -10q-70 0 -107.5 42t-25.5 128l48 348h130l-45 -334q-5 -35 9 -51.5t47 -16.5q11 0 23.5 3t28.5 11.5t37 20.5l50 367h130l-72 -508h-128l2 18q2 7 -3 8.5t-11 -1.5l-31 -15.5t-30 -13.5q-12 -3 -25 -4.5t-27 -1.5z" />
    <glyph glyph-name="v" unicode="v" horiz-adv-x="488" 
d="M113 0l-55 508h129l20 -291l-2 -109q0 -8 7 -9t10 8l146 401h134l-200 -508h-189z" />
    <glyph glyph-name="w" unicode="w" horiz-adv-x="655" 
d="M84 1l-8 507h122l1 -208l-12 -110q-1 -10 6 -9.5t10 8.5l117 319h83l26 -317q1 -11 8.5 -11t9.5 12l20 109l60 207h124l-151 -507h-132l-30 260q-1 9 -7 9t-9 -9l-106 -260h-132z" />
    <glyph glyph-name="x" unicode="x" horiz-adv-x="499" 
d="M-14 0l168 254l-94 254h138l37 -122l7 -69q2 -8 7 -8t10 8l113 191h141l-167 -254l93 -254h-136l-38 124l-6 62q0 9 -6.5 8.5t-11.5 -8.5l-112 -186h-143z" />
    <glyph glyph-name="y" unicode="y" horiz-adv-x="480" 
d="M7 -216l-25 112q53 9 90.5 28t53.5 60l10 25l-94 499h134l37 -193l3 -119q0 -8 6.5 -8t10.5 8l117 312h136l-223 -514q-44 -103 -109.5 -152.5t-146.5 -57.5z" />
    <glyph glyph-name="z" unicode="z" horiz-adv-x="469" 
d="M6 0l12 98l220 251l45 38q5 5 4 9t-7 4h-218l15 108h378l-11 -97l-217 -248l-50 -43q-4 -4 -2.5 -8t6.5 -4h218l-15 -108h-378z" />
    <glyph glyph-name="braceleft" unicode="{" horiz-adv-x="537" 
d="M325 -177q-84 0 -130 46t-33 146l26 192q6 36 -9.5 56.5t-51.5 21.5l-33 1l17 120l27 1q36 2 61 25.5t30 59.5l27 193q15 100 70 142t139 42h69l-15 -105h-47q-37 0 -56 -23.5t-25 -63.5l-28 -199q-5 -41 -12 -63t-22 -41l-55 -19q-7 -2 -7.5 -8t6.5 -10l44 -25
q12 -20 12.5 -45t-5.5 -67l-27 -193q-5 -40 4.5 -59.5t46.5 -19.5h54l-15 -105h-62z" />
    <glyph glyph-name="bar" unicode="|" horiz-adv-x="330" 
d="M38 -150l141 1000h140l-141 -1000h-140z" />
    <glyph glyph-name="braceright" unicode="}" horiz-adv-x="537" 
d="M30 -177l14 105h47q38 0 57 23.5t24 63.5l26 184q6 37 10.5 58.5t10.5 34.5t13 24l59 23q5 2 5 8t-5 9l-48 26q-7 17 -8.5 39t4.5 71l27 193q6 40 -3.5 59.5t-47.5 19.5h-53l15 105h61q84 0 130 -45.5t33 -146.5l-27 -192q-11 -75 63 -78l32 -1l-17 -120l-26 -1
q-36 -1 -61.5 -25t-30.5 -60l-27 -193q-15 -99 -70 -141.5t-139 -42.5h-68z" />
    <glyph glyph-name="asciitilde" unicode="~" horiz-adv-x="600" 
d="M396 185q-40 0 -65 8.5t-45.5 19.5t-41 19.5t-50.5 8.5q-32 0 -58 -11t-48 -29v124q27 13 54.5 18.5t54.5 5.5q40 0 65.5 -8.5t45.5 -19.5t41.5 -19.5t51.5 -8.5q33 0 59.5 11t48.5 30v-124q-53 -25 -113 -25z" />
    <glyph glyph-name="uni00A0" unicode="&#xa0;" horiz-adv-x="290" 
 />
    <glyph glyph-name="exclamdown" unicode="&#xa1;" horiz-adv-x="297" 
d="M204 282l-36 -474h-165l96 474h105zM253 508l-19 -133h-139l19 133h139z" />
    <glyph glyph-name="cent" unicode="&#xa2;" horiz-adv-x="458" 
d="M214 469l21 154h126l-22 -154h-125zM132 -116l22 155h125l-22 -155h-125zM229 -10q-63 0 -107 25.5t-66.5 70t-22.5 100.5q0 36 5.5 71t15.5 70q16 61 48.5 103.5t79 65t104.5 22.5q53 0 89 -11t68 -29l-38 -97q-22 12 -48 20t-56 8q-53 0 -84.5 -30.5t-46.5 -80.5
q-6 -24 -9.5 -50.5t-5.5 -57.5q-1 -29 9.5 -50t29.5 -32.5t45 -11.5q13 0 26.5 5.5t27.5 18t28 32.5l91 -48q-37 -66 -85 -90t-98 -24z" />
    <glyph glyph-name="sterling" unicode="&#xa3;" horiz-adv-x="592" 
d="M32 0l13 113q42 13 71.5 49t36.5 88l6 41h-84l17 119h84l18 123q7 56 37.5 96.5t80.5 62t115 21.5q51 0 91 -15.5t66 -40.5l-59 -86q-17 18 -43 24t-47 6q-52 0 -78.5 -21t-32.5 -53l-16 -117h237l-17 -119h-237l-5 -38q-7 -41 -21 -70t-33 -48q-5 -5 -3.5 -10t8.5 -5
h267l-17 -120h-455z" />
    <glyph glyph-name="yen" unicode="&#xa5;" horiz-adv-x="607" 
d="M69 192l15 111h455l-15 -111h-455zM97 397l16 111h75l30 -111h-121zM431 397l61 111h76l-16 -111h-121zM198 0l40 273l-121 427h143l44 -166l9 -119q1 -8 6.5 -8.5t10.5 8.5l144 285h145l-241 -427l-40 -273h-140z" />
    <glyph glyph-name="section" unicode="&#xa7;" horiz-adv-x="501" 
d="M209 -11q-59 0 -103 14.5t-86 43.5l38 98q24 -18 49 -28t51 -14.5t50 -4.5q40 0 62.5 16.5t22.5 39.5q0 15 -10 28t-44 24l-42 13q-63 19 -94 53.5t-31 82.5q0 36 18 76t66 63q-12 9 -25 29t-13 51q0 52 28 88t73.5 54t97.5 18q56 0 94.5 -12t70.5 -34l-37 -97
q-27 17 -58 26t-64 9q-49 0 -67.5 -14.5t-18.5 -35.5q0 -18 22 -28t48 -19l34 -11q52 -17 83.5 -49.5t31.5 -90.5q0 -22 -9.5 -47.5t-27 -47t-42.5 -32.5q12 -14 22.5 -35.5t10.5 -55.5q0 -50 -23.5 -88.5t-68 -60.5t-109.5 -22zM282 312q30 0 44.5 17t14.5 43
q0 20 -15 31.5t-35 17.5t-38 6q-34 0 -49.5 -16t-15.5 -41q0 -15 10 -26t25 -18t31.5 -10.5t27.5 -3.5z" />
    <glyph glyph-name="dieresis" unicode="&#xa8;" horiz-adv-x="422" 
d="M292 583l17 117h121l-17 -117h-121zM96 583l17 117h121l-17 -117h-121z" />
    <glyph glyph-name="copyright" unicode="&#xa9;" horiz-adv-x="922" 
d="M420 -66q-78 0 -143.5 26.5t-114 74t-76 111t-29.5 138.5q0 100 36.5 186.5t101.5 151.5t150 101.5t182 36.5q80 0 146.5 -28t115.5 -77.5t75.5 -116t25.5 -143.5q0 -94 -37 -177t-102.5 -147t-150 -100.5t-180.5 -36.5zM422 9q82 -1 153.5 28.5t126 83.5t85 125.5
t29.5 153.5q0 81 -37.5 145.5t-103 102.5t-149.5 38q-83 1 -156.5 -31t-128.5 -88t-84.5 -128t-24.5 -151q2 -79 39.5 -142t102.5 -100t148 -37zM442 86q-63 0 -107 25.5t-66.5 70t-22.5 100.5q0 36 5.5 71t14.5 70q17 61 50 103.5t79 65t104 22.5q52 0 88 -11t69 -29
l-39 -97q-21 12 -47 20t-56 8q-54 0 -85.5 -30.5t-45.5 -80.5q-6 -24 -10 -50.5t-5 -57.5q-1 -29 9 -50t29 -32.5t45 -11.5q14 0 27.5 5.5t27.5 18t28 32.5l90 -48q-37 -66 -85 -90t-97 -24z" />
    <glyph glyph-name="ordfeminine" unicode="&#xaa;" horiz-adv-x="449" 
d="M172 355q-31 0 -66.5 15.5t-60 50.5t-24.5 93q0 46 9.5 94.5t29.5 86.5q30 54 79.5 83t109.5 29q10 0 20 -0.5t24 -2.5l32 -10q5 -2 13 -1l75 8l-43 -326l51 -26l-48 -94l-86 41q-8 4 -11 -1l-16 -17q-30 -13 -47 -18t-41 -5zM189 464q13 0 30 5t44 22l30 204
q-23 5 -42 5q-30 0 -56 -13t-38 -40q-13 -28 -18.5 -58.5t-5.5 -63.5q0 -22 7.5 -35.5t20 -19.5t28.5 -6z" />
    <glyph glyph-name="guillemotleft" unicode="&#xab;" horiz-adv-x="628" 
d="M405 50l-116 138l11 90l154 137h147l-210 -179q-7 -5 -6.5 -11t4.5 -9l42 -26l117 -140h-143zM155 50l-116 138l11 90l154 137h147l-210 -179q-7 -5 -6.5 -11t4.5 -9l42 -26l117 -140h-143z" />
    <glyph glyph-name="logicalnot" unicode="&#xac;" horiz-adv-x="595" 
d="M384 102l27 188h-336l17 120h455l-43 -308h-120z" />
    <glyph glyph-name="registered" unicode="&#xae;" horiz-adv-x="922" 
d="M420 -66q-78 0 -143.5 26.5t-114 74t-76 111t-29.5 138.5q0 100 36.5 186.5t101.5 151.5t150 101.5t182 36.5q80 0 146.5 -28t115.5 -77.5t75.5 -116t25.5 -143.5q0 -94 -37 -177t-102.5 -147t-150 -100.5t-180.5 -36.5zM422 9q82 -1 153.5 28.5t126 83.5t85 125.5
t29.5 153.5q0 81 -37.5 145.5t-103 102.5t-149.5 38q-83 1 -156.5 -31t-128.5 -88t-84.5 -128t-24.5 -151q2 -79 39.5 -142t102.5 -100t148 -37zM260 97l71 500h210q73 0 114 -38.5t40 -101.5q0 -37 -14 -72.5t-39 -61t-59 -36.5q-16 -4 -8 -16l24 -38l41 -136h-141l-49 174
h-42l-24 -174h-124zM424 383h73q19 0 33 8t22.5 22t8.5 33q1 19 -10 27.5t-33 8.5h-80z" />
    <glyph glyph-name="macron" unicode="&#xaf;" horiz-adv-x="388" 
d="M96 584l15 101h288l-14 -101h-289z" />
    <glyph glyph-name="degree" unicode="&#xb0;" horiz-adv-x="482" 
d="M269 398q-41 0 -77 14t-57 46.5t-21 87.5q0 63 21 111t64 75.5t108 27.5q40 0 76 -14t57.5 -47t19.5 -92q0 -59 -21.5 -107t-64.5 -75t-105 -27zM266 488q36 0 55.5 18t28.5 46t10 61q1 32 -15 44.5t-40 12.5q-35 0 -54.5 -18.5t-28 -47.5t-8.5 -61q0 -31 16 -43t36 -12z
" />
    <glyph glyph-name="plusminus" unicode="&#xb1;" horiz-adv-x="635" 
d="M249 191l22 158h-187l16 120h188l22 157h120l-22 -157h187l-16 -120h-188l-23 -158h-119zM54 2l18 119h455l-18 -119h-455z" />
    <glyph glyph-name="uni00B2" unicode="&#xb2;" horiz-adv-x="375" 
d="M34 350l9 68q8 57 34 93t73 60l44 23q24 12 44.5 23t33 23.5t12.5 28.5q0 20 -15 30t-39 10q-28 0 -54.5 -5.5t-61.5 -19.5l-28 95q43 20 80 25.5t78 5.5t77.5 -13.5t59.5 -42.5t23 -78q0 -30 -13 -53.5t-33.5 -41.5t-44 -32t-43.5 -23l-46 -22q-28 -14 -37.5 -24
t-10.5 -18v-4h191l-15 -108h-318z" />
    <glyph glyph-name="uni00B3" unicode="&#xb3;" horiz-adv-x="399" 
d="M207 343q-53 0 -92.5 11t-75.5 39l45 93q27 -22 55.5 -31t61.5 -9q36 0 59.5 13.5t23.5 37.5q-1 12 -12.5 22.5t-48.5 10.5h-57l13 94h51q31 0 50.5 12.5t19.5 34.5q0 19 -17.5 28t-43.5 9q-29 0 -58.5 -5.5t-57.5 -19.5l-26 94q37 21 75 27.5t75 6.5q43 0 81.5 -14
t62.5 -43t24 -76q0 -34 -20.5 -59.5t-53.5 -37.5q27 -14 40.5 -38.5t12.5 -59.5q0 -35 -17 -61.5t-45.5 -43.5t-61 -26t-63.5 -9z" />
    <glyph glyph-name="acute" unicode="&#xb4;" horiz-adv-x="364" 
d="M93 583l153 167h137l-153 -167h-137z" />
    <glyph glyph-name="uni00B5" unicode="&#xb5;" horiz-adv-x="554" 
d="M9 -200l97 708h130l-45 -334q-5 -35 9 -51.5t47 -16.5q11 0 23.5 3t28 11.5t37.5 20.5l50 367h130l-72 -508h-128l2 18q2 7 -3 8.5t-11 -1.5l-31 -15.5t-30 -13.5q-12 -3 -25 -4.5t-27 -1.5q-8 0 -14.5 1t-13.5 3l-26 -194h-128z" />
    <glyph glyph-name="paragraph" unicode="&#xb6;" horiz-adv-x="723" 
d="M157 -250l75 505q-47 0 -87 16.5t-64.5 56.5t-24.5 108q0 77 26 136.5t77.5 93.5t128.5 34h444l-18 -120h-80l-116 -830h-140l116 830h-80l-116 -830h-141z" />
    <glyph glyph-name="periodcentered" unicode="&#xb7;" horiz-adv-x="289" 
d="M66 195l19 138h140l-20 -138h-139z" />
    <glyph glyph-name="cedilla" unicode="&#xb8;" horiz-adv-x="332" 
d="M-19 -258l26 78q56 0 91 13.5t38 35.5q3 13 -19 16t-81 3l52 144l73 -27l-25 -51q46 -6 70.5 -32.5t19.5 -64.5q-5 -39 -38.5 -65t-86.5 -38t-120 -12z" />
    <glyph glyph-name="uni00B9" unicode="&#xb9;" horiz-adv-x="305" 
d="M99 350l49 343h-54l11 86l186 34l-68 -463h-124z" />
    <glyph glyph-name="ordmasculine" unicode="&#xba;" horiz-adv-x="470" 
d="M240 347q-57 0 -96 24t-59 61.5t-20 78.5q0 18 2 39t6 44q3 21 7.5 40.5t10.5 36.5q13 38 36.5 69.5t64.5 50.5t104 19q59 0 98 -23.5t59 -60.5t20 -79q0 -17 -1.5 -37t-5.5 -41t-8.5 -42t-10.5 -40q-13 -38 -39 -70.5t-67 -51t-101 -18.5zM248 452q34 0 52.5 17t29.5 46
q6 14 10.5 35.5t7.5 45.5t4 43q0 31 -18 48.5t-46 17.5q-25 0 -47.5 -16t-32.5 -48q-5 -14 -9.5 -35.5t-8 -44t-3.5 -39.5q0 -33 16.5 -51.5t44.5 -18.5z" />
    <glyph glyph-name="guillemotright" unicode="&#xbb;" horiz-adv-x="628" 
d="M270 50l214 181q6 5 5.5 11t-5.5 9l-43 24l-117 140h143l116 -137l-11 -90l-154 -138h-148zM20 50l214 181q6 5 5.5 11t-5.5 9l-43 24l-117 140h143l116 -137l-11 -90l-154 -138h-148z" />
    <glyph glyph-name="onequarter" unicode="&#xbc;" horiz-adv-x="972" 
d="M84 245l49 343h-54l11 86l186 34l-68 -463h-124zM182 0l382 700h148l-381 -700h-149zM752 0l14 106h-233l6 54l186 295h125l-164 -254h94l17 124h112l-17 -124h43l-14 -95h-43l-14 -106h-112z" />
    <glyph glyph-name="onehalf" unicode="&#xbd;" horiz-adv-x="928" 
d="M84 245l49 343h-54l11 86l186 34l-68 -463h-124zM182 0l382 700h148l-381 -700h-149zM537 0l9 68q8 57 34 93t73 60l44 23q24 12 44.5 23t33 23.5t12.5 28.5q0 20 -15 30t-39 10q-28 0 -54.5 -5.5t-61.5 -19.5l-28 95q43 20 80 25.5t78 5.5t77.5 -13.5t59.5 -42.5t23 -78
q0 -30 -13 -53.5t-33.5 -41.5t-44 -32t-43.5 -23l-46 -22q-28 -14 -37.5 -24t-10.5 -18v-4h191l-15 -108h-318z" />
    <glyph glyph-name="threequarters" unicode="&#xbe;" horiz-adv-x="1061" 
d="M192 238q-53 0 -92.5 11t-75.5 39l45 93q27 -22 55.5 -31t61.5 -9q36 0 59.5 13.5t23.5 37.5q-1 12 -12.5 22.5t-48.5 10.5h-57l13 94h51q31 0 50.5 12.5t19.5 34.5q0 19 -17.5 28t-43.5 9q-29 0 -58.5 -5.5t-57.5 -19.5l-26 94q37 21 75 27.5t75 6.5q43 0 81.5 -14
t62.5 -43t24 -76q0 -34 -20.5 -59.5t-53.5 -37.5q27 -14 40.5 -38.5t12.5 -59.5q0 -35 -17 -61.5t-45.5 -43.5t-61 -26t-63.5 -9zM270 0l382 700h148l-381 -700h-149zM840 0l14 106h-233l6 54l186 295h125l-164 -254h94l17 124h112l-17 -124h43l-14 -95h-43l-14 -106h-112z
" />
    <glyph glyph-name="questiondown" unicode="&#xbf;" horiz-adv-x="496" 
d="M368 279q1 -15 1 -27t-2 -28q-3 -25 -16 -48t-35 -42t-54 -34l-52 -24q-32 -14 -50 -34.5t-17 -59.5q0 -23 14 -37t36 -20.5t46 -6.5q48 0 83 11.5t71 30.5l29 -110q-42 -26 -91 -40t-100 -14q-63 0 -112.5 20t-78 60t-28.5 99q0 42 11 73.5t30.5 54t45 39.5t53.5 33
l41 20q23 11 40 24t23 37l5 23h107zM411 508l-19 -132h-139l19 132h139z" />
    <glyph glyph-name="Agrave" unicode="&#xc0;" 
d="M-16 0l275 700h195l89 -700h-139l-48 431l-1 139q0 9 -7 10t-9 -7l-213 -573h-142zM167 168l45 116h183l11 -116h-239zM136 584l17 116h125l-30 -116h-112zM320 768l-107 167h131l107 -167h-131z" />
    <glyph glyph-name="Aacute" unicode="&#xc1;" 
d="M-16 0l275 700h195l89 -700h-139l-48 431l-1 139q0 9 -7 10t-9 -7l-213 -573h-142zM167 168l45 116h183l11 -116h-239zM136 584l17 116h125l-30 -116h-112zM282 768l153 167h137l-153 -167h-137z" />
    <glyph glyph-name="Acircumflex" unicode="&#xc2;" 
d="M-16 0l275 700h195l89 -700h-139l-48 431l-1 139q0 9 -7 10t-9 -7l-213 -573h-142zM167 168l45 116h183l11 -116h-239zM136 584l17 116h125l-30 -116h-112zM217 768l113 167h133l68 -167h-107l-23 59l-1 29q0 7 -4 8t-9 -6l-57 -90h-113z" />
    <glyph glyph-name="Atilde" unicode="&#xc3;" 
d="M-16 0l275 700h195l89 -700h-139l-48 431l-1 139q0 9 -7 10t-9 -7l-213 -573h-142zM167 168l45 116h183l11 -116h-239zM136 584l17 116h125l-30 -116h-112zM239 753l-28 88q24 24 49.5 33.5t53.5 9.5q39 0 59.5 -9t37 -17.5t38.5 -8.5q24 0 43 11t36 28l27 -88
q-23 -23 -48.5 -33t-53.5 -10q-38 0 -59.5 9t-37 18t-37.5 9q-24 0 -43.5 -11t-36.5 -29z" />
    <glyph glyph-name="Adieresis" unicode="&#xc4;" 
d="M-16 0l275 700h195l89 -700h-139l-48 431l-1 139q0 9 -7 10t-9 -7l-213 -573h-142zM167 168l45 116h183l11 -116h-239zM136 584l17 116h125l-30 -116h-112zM417 768l17 117h121l-17 -117h-121zM221 768l17 117h121l-17 -117h-121z" />
    <glyph glyph-name="Aring" unicode="&#xc5;" 
d="M-16 0l275 700h195l89 -700h-139l-48 431l-1 139q0 9 -7 10t-9 -7l-213 -573h-142zM167 168l45 116h183l11 -116h-239zM136 584l17 116h125l-30 -116h-112zM380 748q-48 0 -82 13.5t-49.5 40.5t-10.5 66q5 35 26.5 57.5t56 33.5t78.5 11q48 0 81 -13t49 -39t10 -66
q-5 -35 -26 -58t-55 -34.5t-78 -11.5zM383 816q28 0 46.5 10.5t20.5 33.5q4 23 -11.5 32.5t-45.5 9.5q-28 0 -45.5 -10t-20.5 -33q-3 -22 12 -32.5t44 -10.5z" />
    <glyph glyph-name="AE" unicode="&#xc6;" horiz-adv-x="856" 
d="M-16 0l229 579h-77l17 121h713l-17 -121h-295l-24 -170h278l-16 -118h-278l-23 -166h294l-17 -125h-424l24 168h-179l-62 -168h-143zM231 284h153l42 295h-85z" />
    <glyph glyph-name="Ccedilla" unicode="&#xc7;" horiz-adv-x="504" 
d="M284 -12q-57 0 -100.5 19.5t-72.5 53t-43.5 73.5t-14.5 81q0 51 5.5 104t16.5 106.5t26 100.5q24 82 88 134t171 52q53 0 94 -16t69 -43l-41 -107q-25 22 -54 32t-71 10q-40 0 -74.5 -21.5t-50.5 -70.5q-5 -19 -12.5 -55t-14 -78t-11 -80.5t-4.5 -61.5q0 -51 27 -79.5
t75 -28.5q39 0 66.5 11.5t51.5 28.5l40 -113q-33 -25 -71.5 -38.5t-94.5 -13.5zM125 -258l26 78q56 0 91 13.5t38 35.5q3 13 -19 16t-81 3l52 144l73 -27l-25 -51q46 -6 70.5 -32.5t19.5 -64.5q-5 -39 -38.5 -65t-86.5 -38t-120 -12z" />
    <glyph glyph-name="Egrave" unicode="&#xc8;" horiz-adv-x="551" 
d="M39 0l99 700h423l-18 -125h-294l-24 -166h278l-16 -118h-278l-24 -166h295l-17 -125h-424zM313 768l-107 167h131l107 -167h-131z" />
    <glyph glyph-name="Eacute" unicode="&#xc9;" horiz-adv-x="551" 
d="M39 0l99 700h423l-18 -125h-294l-24 -166h278l-16 -118h-278l-24 -166h295l-17 -125h-424zM275 768l153 167h137l-153 -167h-137z" />
    <glyph glyph-name="Ecircumflex" unicode="&#xca;" horiz-adv-x="551" 
d="M39 0l99 700h423l-18 -125h-294l-24 -166h278l-16 -118h-278l-24 -166h295l-17 -125h-424zM210 768l113 167h133l68 -167h-107l-23 59l-1 29q0 7 -4 8t-9 -6l-57 -90h-113z" />
    <glyph glyph-name="Edieresis" unicode="&#xcb;" horiz-adv-x="551" 
d="M39 0l99 700h423l-18 -125h-294l-24 -166h278l-16 -118h-278l-24 -166h295l-17 -125h-424zM409 768l17 117h121l-17 -117h-121zM213 768l17 117h121l-17 -117h-121z" />
    <glyph glyph-name="Igrave" unicode="&#xcc;" horiz-adv-x="438" 
d="M14 0l17 117h98l66 466h-99l17 117h338l-17 -117h-99l-65 -466h99l-17 -117h-338zM237 768l-107 167h131l107 -167h-131z" />
    <glyph glyph-name="Iacute" unicode="&#xcd;" horiz-adv-x="438" 
d="M14 0l17 117h98l66 466h-99l17 117h338l-17 -117h-99l-65 -466h99l-17 -117h-338zM199 768l153 167h137l-153 -167h-137z" />
    <glyph glyph-name="Icircumflex" unicode="&#xce;" horiz-adv-x="438" 
d="M14 0l17 117h98l66 466h-99l17 117h338l-17 -117h-99l-65 -466h99l-17 -117h-338zM134 768l113 167h133l68 -167h-107l-23 59l-1 29q0 7 -4 8t-9 -6l-57 -90h-113z" />
    <glyph glyph-name="Idieresis" unicode="&#xcf;" horiz-adv-x="438" 
d="M14 0l17 117h98l66 466h-99l17 117h338l-17 -117h-99l-65 -466h99l-17 -117h-338zM333 768l17 117h121l-17 -117h-121zM137 768l17 117h121l-17 -117h-121z" />
    <glyph glyph-name="Eth" unicode="&#xd0;" horiz-adv-x="627" 
d="M-7 298l14 103h328l-14 -103h-328zM59 0l99 700h197q86 0 141 -27t81 -79t25 -127q-1 -60 -11.5 -128.5t-23.5 -127.5q-18 -83 -60 -129t-103.5 -64t-140.5 -18h-204zM216 116h57q45 0 76.5 10t53.5 38t34 82q7 26 14 67t12 82.5t5 69.5q1 39 -10.5 65.5t-38.5 40
t-74 13.5h-64z" />
    <glyph glyph-name="Ntilde" unicode="&#xd1;" horiz-adv-x="636" 
d="M39 0l99 700h114l179 -434q3 -7 9.5 -6t6.5 11l1 120l43 309h133l-99 -700h-117l-173 422q-4 8 -10 6.5t-7 -12.5l-5 -126l-41 -290h-133zM254 760l-28 88q24 24 49.5 33.5t53.5 9.5q39 0 59.5 -9t37 -17.5t38.5 -8.5q24 0 43 11t36 28l27 -88q-23 -23 -48.5 -33
t-53.5 -10q-38 0 -59.5 9t-37 18t-37.5 9q-24 0 -43.5 -11t-36.5 -29z" />
    <glyph glyph-name="Ograve" unicode="&#xd2;" horiz-adv-x="617" 
d="M283 -12q-78 0 -129 33t-76 85t-25 109q0 48 5.5 102.5t16.5 108.5t26 100q25 82 88.5 134t170.5 52q78 0 129.5 -33t76.5 -85t25 -109q0 -47 -5.5 -102t-16.5 -109t-26 -100q-24 -82 -88 -134t-172 -52zM292 113q42 0 73 24t46 67q9 23 16.5 59t13.5 76t9.5 77t3.5 61
q0 51 -26.5 80.5t-76.5 29.5q-42 0 -73 -23.5t-46 -67.5q-8 -22 -15.5 -59t-13.5 -78t-9.5 -77.5t-3.5 -58.5q0 -51 26.5 -80.5t75.5 -29.5zM325 768l-107 167h131l107 -167h-131z" />
    <glyph glyph-name="Oacute" unicode="&#xd3;" horiz-adv-x="617" 
d="M283 -12q-78 0 -129 33t-76 85t-25 109q0 48 5.5 102.5t16.5 108.5t26 100q25 82 88.5 134t170.5 52q78 0 129.5 -33t76.5 -85t25 -109q0 -47 -5.5 -102t-16.5 -109t-26 -100q-24 -82 -88 -134t-172 -52zM292 113q42 0 73 24t46 67q9 23 16.5 59t13.5 76t9.5 77t3.5 61
q0 51 -26.5 80.5t-76.5 29.5q-42 0 -73 -23.5t-46 -67.5q-8 -22 -15.5 -59t-13.5 -78t-9.5 -77.5t-3.5 -58.5q0 -51 26.5 -80.5t75.5 -29.5zM287 768l153 167h137l-153 -167h-137z" />
    <glyph glyph-name="Ocircumflex" unicode="&#xd4;" horiz-adv-x="617" 
d="M283 -12q-78 0 -129 33t-76 85t-25 109q0 48 5.5 102.5t16.5 108.5t26 100q25 82 88.5 134t170.5 52q78 0 129.5 -33t76.5 -85t25 -109q0 -47 -5.5 -102t-16.5 -109t-26 -100q-24 -82 -88 -134t-172 -52zM292 113q42 0 73 24t46 67q9 23 16.5 59t13.5 76t9.5 77t3.5 61
q0 51 -26.5 80.5t-76.5 29.5q-42 0 -73 -23.5t-46 -67.5q-8 -22 -15.5 -59t-13.5 -78t-9.5 -77.5t-3.5 -58.5q0 -51 26.5 -80.5t75.5 -29.5zM222 768l113 167h133l68 -167h-107l-23 59l-1 29q0 7 -4 8t-9 -6l-57 -90h-113z" />
    <glyph glyph-name="Otilde" unicode="&#xd5;" horiz-adv-x="617" 
d="M283 -12q-78 0 -129 33t-76 85t-25 109q0 48 5.5 102.5t16.5 108.5t26 100q25 82 88.5 134t170.5 52q78 0 129.5 -33t76.5 -85t25 -109q0 -47 -5.5 -102t-16.5 -109t-26 -100q-24 -82 -88 -134t-172 -52zM292 113q42 0 73 24t46 67q9 23 16.5 59t13.5 76t9.5 77t3.5 61
q0 51 -26.5 80.5t-76.5 29.5q-42 0 -73 -23.5t-46 -67.5q-8 -22 -15.5 -59t-13.5 -78t-9.5 -77.5t-3.5 -58.5q0 -51 26.5 -80.5t75.5 -29.5zM244 753l-28 88q24 24 49.5 33.5t53.5 9.5q39 0 59.5 -9t37 -17.5t38.5 -8.5q24 0 43 11t36 28l27 -88q-23 -23 -48.5 -33
t-53.5 -10q-38 0 -59.5 9t-37 18t-37.5 9q-24 0 -43.5 -11t-36.5 -29z" />
    <glyph glyph-name="Odieresis" unicode="&#xd6;" horiz-adv-x="617" 
d="M283 -12q-78 0 -129 33t-76 85t-25 109q0 48 5.5 102.5t16.5 108.5t26 100q25 82 88.5 134t170.5 52q78 0 129.5 -33t76.5 -85t25 -109q0 -47 -5.5 -102t-16.5 -109t-26 -100q-24 -82 -88 -134t-172 -52zM292 113q42 0 73 24t46 67q9 23 16.5 59t13.5 76t9.5 77t3.5 61
q0 51 -26.5 80.5t-76.5 29.5q-42 0 -73 -23.5t-46 -67.5q-8 -22 -15.5 -59t-13.5 -78t-9.5 -77.5t-3.5 -58.5q0 -51 26.5 -80.5t75.5 -29.5zM422 768l17 117h121l-17 -117h-121zM226 768l17 117h121l-17 -117h-121z" />
    <glyph glyph-name="multiply" unicode="&#xd7;" horiz-adv-x="582" 
d="M143 133l-74 84l151 133l-114 133l94 84l114 -133l152 133l74 -84l-151 -133l114 -133l-94 -84l-114 133z" />
    <glyph glyph-name="Oslash" unicode="&#xd8;" horiz-adv-x="657" 
d="M303 -12q-78 0 -129 33t-76 85t-25 109q0 48 5.5 102.5t16.5 108.5t26 100q25 82 88.5 134t170.5 52q78 0 129.5 -33t76.5 -85t25 -109q0 -47 -5.5 -102t-16.5 -109t-26 -100q-24 -82 -88 -134t-172 -52zM312 113q42 0 73 24t46 67q9 23 16.5 59t13.5 76t9.5 77t3.5 61
q0 51 -26.5 80.5t-76.5 29.5q-42 0 -73 -23.5t-46 -67.5q-8 -22 -15.5 -59t-13.5 -78t-9.5 -77.5t-3.5 -58.5q0 -51 26.5 -80.5t75.5 -29.5zM-34 0l632 700h119l-632 -700h-119z" />
    <glyph glyph-name="Ugrave" unicode="&#xd9;" horiz-adv-x="605" 
d="M279 -10q-72 0 -124 30t-77 85.5t-14 132.5l65 462h141l-67 -473q-8 -57 17 -84.5t66 -27.5q43 0 72 28t34 71l69 486h141l-72 -491q-9 -66 -43.5 -115.5t-87 -76.5t-120.5 -27zM320 768l-107 167h131l107 -167h-131z" />
    <glyph glyph-name="Uacute" unicode="&#xda;" horiz-adv-x="605" 
d="M279 -10q-72 0 -124 30t-77 85.5t-14 132.5l65 462h141l-67 -473q-8 -57 17 -84.5t66 -27.5q43 0 72 28t34 71l69 486h141l-72 -491q-9 -66 -43.5 -115.5t-87 -76.5t-120.5 -27zM282 768l153 167h137l-153 -167h-137z" />
    <glyph glyph-name="Ucircumflex" unicode="&#xdb;" horiz-adv-x="605" 
d="M279 -10q-72 0 -124 30t-77 85.5t-14 132.5l65 462h141l-67 -473q-8 -57 17 -84.5t66 -27.5q43 0 72 28t34 71l69 486h141l-72 -491q-9 -66 -43.5 -115.5t-87 -76.5t-120.5 -27zM217 768l113 167h133l68 -167h-107l-23 59l-1 29q0 7 -4 8t-9 -6l-57 -90h-113z" />
    <glyph glyph-name="Udieresis" unicode="&#xdc;" horiz-adv-x="605" 
d="M279 -10q-72 0 -124 30t-77 85.5t-14 132.5l65 462h141l-67 -473q-8 -57 17 -84.5t66 -27.5q43 0 72 28t34 71l69 486h141l-72 -491q-9 -66 -43.5 -115.5t-87 -76.5t-120.5 -27zM416 768l17 117h121l-17 -117h-121zM220 768l17 117h121l-17 -117h-121z" />
    <glyph glyph-name="Yacute" unicode="&#xdd;" horiz-adv-x="502" 
d="M144 0l40 273l-121 427h143l44 -166l9 -119q1 -8 6.5 -8.5t10.5 8.5l144 285h145l-241 -427l-40 -273h-140zM230 768l153 167h137l-153 -167h-137z" />
    <glyph glyph-name="Thorn" unicode="&#xde;" horiz-adv-x="573" 
d="M39 0l99 700h139l-19 -134h108q58 0 101.5 -23.5t67.5 -65t24 -96.5q0 -69 -30 -120t-82.5 -79t-124.5 -28h-122l-21 -154h-140zM216 270h113q48 0 75 29t27 74q0 33 -17.5 55.5t-60.5 22.5h-112z" />
    <glyph glyph-name="germandbls" unicode="&#xdf;" horiz-adv-x="709" 
d="M444 -12q-54 0 -100 15.5t-82 42.5l38 98q35 -25 69.5 -35.5t78.5 -10.5q41 0 64 15.5t23 38.5q0 18 -10.5 30t-37.5 20l-39 11q-64 18 -103 53t-39 95q0 61 40.5 98t109.5 52l34 8q20 5 33 18.5t13 30.5q0 24 -27.5 48t-90.5 24q-55 0 -92 -19.5t-56.5 -51t-25.5 -70.5
l-70 -499h-139l71 505q12 77 52.5 132.5t107.5 85.5t155 30q78 0 131.5 -25.5t80.5 -66t27 -87.5q0 -65 -39 -102.5t-111 -57.5l-30 -8q-27 -8 -39 -17.5t-12 -25.5q0 -12 9 -21.5t27 -15.5l49 -15q65 -20 101 -55t36 -97q1 -57 -25.5 -95t-73.5 -57t-108 -19z" />
    <glyph glyph-name="agrave" unicode="&#xe0;" horiz-adv-x="550" 
d="M206 -9q-29 0 -59.5 8.5t-56 29t-41.5 55.5t-16 87q0 56 11 111.5t34 101.5q35 65 91 99.5t128 34.5q12 0 24 -0.5t28 -2.5l37 -12q6 -2 16 -1l90 10l-52 -383l61 -30l-57 -109l-102 50q-9 4 -14 -2l-17 -19q-25 -10 -41.5 -16.5t-31 -9t-32.5 -2.5zM226 107q10 0 20.5 3
t26 10.5t40.5 21.5l36 261q-28 5 -51 5q-37 0 -67 -17t-45 -50q-16 -33 -23 -72.5t-7 -87.5q0 -39 20 -56.5t50 -17.5zM275 583l-107 167h131l107 -167h-131z" />
    <glyph glyph-name="aacute" unicode="&#xe1;" horiz-adv-x="550" 
d="M206 -9q-29 0 -59.5 8.5t-56 29t-41.5 55.5t-16 87q0 56 11 111.5t34 101.5q35 65 91 99.5t128 34.5q12 0 24 -0.5t28 -2.5l37 -12q6 -2 16 -1l90 10l-52 -383l61 -30l-57 -109l-102 50q-9 4 -14 -2l-17 -19q-25 -10 -41.5 -16.5t-31 -9t-32.5 -2.5zM226 107q10 0 20.5 3
t26 10.5t40.5 21.5l36 261q-28 5 -51 5q-37 0 -67 -17t-45 -50q-16 -33 -23 -72.5t-7 -87.5q0 -39 20 -56.5t50 -17.5zM237 583l153 167h137l-153 -167h-137z" />
    <glyph glyph-name="acircumflex" unicode="&#xe2;" horiz-adv-x="550" 
d="M206 -9q-29 0 -59.5 8.5t-56 29t-41.5 55.5t-16 87q0 56 11 111.5t34 101.5q35 65 91 99.5t128 34.5q12 0 24 -0.5t28 -2.5l37 -12q6 -2 16 -1l90 10l-52 -383l61 -30l-57 -109l-102 50q-9 4 -14 -2l-17 -19q-25 -10 -41.5 -16.5t-31 -9t-32.5 -2.5zM226 107q10 0 20.5 3
t26 10.5t40.5 21.5l36 261q-28 5 -51 5q-37 0 -67 -17t-45 -50q-16 -33 -23 -72.5t-7 -87.5q0 -39 20 -56.5t50 -17.5zM172 583l113 167h133l68 -167h-107l-23 59l-1 29q0 7 -4 8t-9 -6l-57 -90h-113z" />
    <glyph glyph-name="atilde" unicode="&#xe3;" horiz-adv-x="550" 
d="M206 -9q-29 0 -59.5 8.5t-56 29t-41.5 55.5t-16 87q0 56 11 111.5t34 101.5q35 65 91 99.5t128 34.5q12 0 24 -0.5t28 -2.5l37 -12q6 -2 16 -1l90 10l-52 -383l61 -30l-57 -109l-102 50q-9 4 -14 -2l-17 -19q-25 -10 -41.5 -16.5t-31 -9t-32.5 -2.5zM226 107q10 0 20.5 3
t26 10.5t40.5 21.5l36 261q-28 5 -51 5q-37 0 -67 -17t-45 -50q-16 -33 -23 -72.5t-7 -87.5q0 -39 20 -56.5t50 -17.5zM193 568l-28 88q24 24 49.5 33.5t53.5 9.5q39 0 59.5 -9t37 -17.5t38.5 -8.5q24 0 43 11t36 28l27 -88q-23 -23 -48.5 -33t-53.5 -10q-38 0 -59.5 9
t-37 18t-37.5 9q-24 0 -43.5 -11t-36.5 -29z" />
    <glyph glyph-name="adieresis" unicode="&#xe4;" horiz-adv-x="550" 
d="M206 -9q-29 0 -59.5 8.5t-56 29t-41.5 55.5t-16 87q0 56 11 111.5t34 101.5q35 65 91 99.5t128 34.5q12 0 24 -0.5t28 -2.5l37 -12q6 -2 16 -1l90 10l-52 -383l61 -30l-57 -109l-102 50q-9 4 -14 -2l-17 -19q-25 -10 -41.5 -16.5t-31 -9t-32.5 -2.5zM226 107q10 0 20.5 3
t26 10.5t40.5 21.5l36 261q-28 5 -51 5q-37 0 -67 -17t-45 -50q-16 -33 -23 -72.5t-7 -87.5q0 -39 20 -56.5t50 -17.5zM371 583l17 117h121l-17 -117h-121zM175 583l17 117h121l-17 -117h-121z" />
    <glyph glyph-name="aring" unicode="&#xe5;" horiz-adv-x="550" 
d="M206 -9q-29 0 -59.5 8.5t-56 29t-41.5 55.5t-16 87q0 56 11 111.5t34 101.5q35 65 91 99.5t128 34.5q12 0 24 -0.5t28 -2.5l37 -12q6 -2 16 -1l90 10l-52 -383l61 -30l-57 -109l-102 50q-9 4 -14 -2l-17 -19q-25 -10 -41.5 -16.5t-31 -9t-32.5 -2.5zM226 107q10 0 20.5 3
t26 10.5t40.5 21.5l36 261q-28 5 -51 5q-37 0 -67 -17t-45 -50q-16 -33 -23 -72.5t-7 -87.5q0 -39 20 -56.5t50 -17.5zM334 563q-48 0 -82 13.5t-49.5 40.5t-10.5 66q5 35 26.5 57.5t56 33.5t78.5 11q48 0 81 -13t49 -39t10 -66q-5 -35 -26 -58t-55 -34.5t-78 -11.5z
M337 631q28 0 46.5 10.5t20.5 33.5q4 23 -11.5 32.5t-45.5 9.5q-28 0 -45.5 -10t-20.5 -33q-3 -22 12 -32.5t44 -10.5z" />
    <glyph glyph-name="ae" unicode="&#xe6;" horiz-adv-x="767" 
d="M180 -9q-53 0 -90.5 20t-55 56t-11.5 80q11 70 62.5 103.5t125.5 37.5l411 27q2 15 1.5 32t-6.5 32t-21.5 24t-42.5 9q-46 0 -75 -34t-37 -91q-4 -25 -6.5 -45.5t-5.5 -41.5q-5 -54 19.5 -79t60.5 -25q30 0 51 12.5t49 43.5l97 -48q-38 -56 -90 -84.5t-117 -28.5
q-47 0 -84.5 17t-61.5 42q-5 5 -9.5 5.5t-10.5 -6.5l-18 -21q-38 -16 -58.5 -24t-36 -10.5t-40.5 -2.5zM191 88q18 0 33.5 5t32.5 14t40 20l26 203q5 36 -15.5 58t-68.5 22q-37 0 -70 -12t-66 -32l-29 105q42 25 86.5 37t89.5 12q80 0 129 -33l17 -26q10 -14 20 0l22 25
q31 18 60 25t51 7q78 0 122 -31t58.5 -85.5t3.5 -126.5l-28 -46l-492 -32q-32 -2 -50 -16t-21 -36q-4 -24 11.5 -40.5t37.5 -16.5z" />
    <glyph glyph-name="ccedilla" unicode="&#xe7;" horiz-adv-x="458" 
d="M229 -10q-63 0 -107 25.5t-66.5 70t-22.5 100.5q0 36 5.5 71t15.5 70q16 61 48.5 103.5t79 65t104.5 22.5q53 0 89 -11t68 -29l-38 -97q-22 12 -48 20t-56 8q-53 0 -84.5 -30.5t-46.5 -80.5q-6 -24 -9.5 -50.5t-5.5 -57.5q-1 -29 9.5 -50t29.5 -32.5t45 -11.5
q13 0 26.5 5.5t27.5 18t28 32.5l91 -48q-37 -66 -85 -90t-98 -24zM60 -258l26 78q56 0 91 13.5t38 35.5q3 13 -19 16t-81 3l52 144l73 -27l-25 -51q46 -6 70.5 -32.5t19.5 -64.5q-5 -39 -38.5 -65t-86.5 -38t-120 -12z" />
    <glyph glyph-name="egrave" unicode="&#xe8;" horiz-adv-x="497" 
d="M230 -10q-64 0 -108 25.5t-66.5 70t-22.5 100.5q0 38 5.5 72.5t14.5 64.5q16 65 48.5 108t79 65t105.5 22q56 0 94 -18.5t59.5 -50.5t27.5 -74.5t-2 -90.5l-33 -62h-300l12 92h208q12 48 -7 74t-61 26q-44 0 -73.5 -32t-42.5 -89q-4 -21 -7.5 -45t-5.5 -57
q-2 -46 22.5 -70.5t61.5 -24.5q26 0 50.5 13t47.5 43l97 -48q-40 -65 -94 -89.5t-110 -24.5zM241 583l-107 167h131l107 -167h-131z" />
    <glyph glyph-name="eacute" unicode="&#xe9;" horiz-adv-x="497" 
d="M230 -10q-64 0 -108 25.5t-66.5 70t-22.5 100.5q0 38 5.5 72.5t14.5 64.5q16 65 48.5 108t79 65t105.5 22q56 0 94 -18.5t59.5 -50.5t27.5 -74.5t-2 -90.5l-33 -62h-300l12 92h208q12 48 -7 74t-61 26q-44 0 -73.5 -32t-42.5 -89q-4 -21 -7.5 -45t-5.5 -57
q-2 -46 22.5 -70.5t61.5 -24.5q26 0 50.5 13t47.5 43l97 -48q-40 -65 -94 -89.5t-110 -24.5zM203 583l153 167h137l-153 -167h-137z" />
    <glyph glyph-name="ecircumflex" unicode="&#xea;" horiz-adv-x="497" 
d="M230 -10q-64 0 -108 25.5t-66.5 70t-22.5 100.5q0 38 5.5 72.5t14.5 64.5q16 65 48.5 108t79 65t105.5 22q56 0 94 -18.5t59.5 -50.5t27.5 -74.5t-2 -90.5l-33 -62h-300l12 92h208q12 48 -7 74t-61 26q-44 0 -73.5 -32t-42.5 -89q-4 -21 -7.5 -45t-5.5 -57
q-2 -46 22.5 -70.5t61.5 -24.5q26 0 50.5 13t47.5 43l97 -48q-40 -65 -94 -89.5t-110 -24.5zM138 583l113 167h133l68 -167h-107l-23 59l-1 29q0 7 -4 8t-9 -6l-57 -90h-113z" />
    <glyph glyph-name="edieresis" unicode="&#xeb;" horiz-adv-x="497" 
d="M230 -10q-64 0 -108 25.5t-66.5 70t-22.5 100.5q0 38 5.5 72.5t14.5 64.5q16 65 48.5 108t79 65t105.5 22q56 0 94 -18.5t59.5 -50.5t27.5 -74.5t-2 -90.5l-33 -62h-300l12 92h208q12 48 -7 74t-61 26q-44 0 -73.5 -32t-42.5 -89q-4 -21 -7.5 -45t-5.5 -57
q-2 -46 22.5 -70.5t61.5 -24.5q26 0 50.5 13t47.5 43l97 -48q-40 -65 -94 -89.5t-110 -24.5zM338 583l17 117h121l-17 -117h-121zM142 583l17 117h121l-17 -117h-121z" />
    <glyph glyph-name="igrave" unicode="&#xec;" horiz-adv-x="316" 
d="M77 0l55 397h-85l16 111h218l-72 -508h-132zM151 583l-107 167h131l107 -167h-131z" />
    <glyph glyph-name="iacute" unicode="&#xed;" horiz-adv-x="316" 
d="M77 0l55 397h-85l16 111h218l-72 -508h-132zM113 583l153 167h137l-153 -167h-137z" />
    <glyph glyph-name="icircumflex" unicode="&#xee;" horiz-adv-x="316" 
d="M77 0l55 397h-85l16 111h218l-72 -508h-132zM48 583l113 167h133l68 -167h-107l-23 59l-1 29q0 7 -4 8t-9 -6l-57 -90h-113z" />
    <glyph glyph-name="idieresis" unicode="&#xef;" horiz-adv-x="320" 
d="M220 583l17 117h110l-16 -117h-111zM61 583l17 117h110l-16 -117h-111zM77 0l55 397h-85l16 111h218l-72 -508h-132z" />
    <glyph glyph-name="eth" unicode="&#xf0;" horiz-adv-x="526" 
d="M228 -12q-66 0 -109 29t-64.5 73.5t-21.5 93.5q0 27 4 58t10 62t15 57q23 70 79 114t139 44q12 0 27.5 -4t25.5 -11l21 -21q8 -6 14 -3t6 13q0 21 -16.5 50t-38.5 58q-27 36 -67 74.5t-88 74.5h159q31 -26 61 -58t57 -73q24 -39 38.5 -89.5t14.5 -114.5q0 -40 -3.5 -84
t-12 -90t-24.5 -93q-23 -71 -80 -115.5t-146 -44.5zM237 97q36 0 61 21.5t38 56.5q7 16 12 41.5t8.5 52.5t3.5 48q0 40 -21 67t-62 27q-36 0 -60 -21.5t-37 -56.5q-5 -15 -10.5 -39.5t-8.5 -51.5t-3 -51q0 -41 19 -67.5t60 -26.5zM154 546l-23 86l375 98l23 -92z" />
    <glyph glyph-name="ntilde" unicode="&#xf1;" horiz-adv-x="565" 
d="M55 0l62 448l56 -108l-136 67l55 111l106 -52q10 -5 17 2l15 17q38 22 66.5 28.5t67.5 5.5q80 -1 119.5 -50.5t26.5 -137.5l-46 -331h-130l47 336q4 33 -10.5 49t-41.5 16q-17 0 -32.5 -4.5t-34 -14.5t-43.5 -26l22 36l-56 -392h-130zM221 568l-28 88q24 24 49.5 33.5
t53.5 9.5q39 0 59.5 -9t37 -17.5t38.5 -8.5q24 0 43 11t36 28l27 -88q-23 -23 -48.5 -33t-53.5 -10q-38 0 -59.5 9t-37 18t-37.5 9q-24 0 -43.5 -11t-36.5 -29z" />
    <glyph glyph-name="ograve" unicode="&#xf2;" horiz-adv-x="517" 
d="M228 -12q-66 0 -109 29t-64.5 73.5t-21.5 93.5q0 27 4 58t10 62t15 57q23 70 79.5 114t144.5 44q68 0 111 -28t64.5 -73t21.5 -94q0 -27 -3.5 -58.5t-10 -61.5t-15.5 -56q-23 -71 -80 -115.5t-146 -44.5zM237 97q36 0 61 21.5t38 56.5q6 16 11.5 41.5t8.5 52.5t3 48
q0 40 -20.5 67t-61.5 27q-36 0 -60 -21.5t-37 -56.5q-5 -15 -10.5 -39.5t-8.5 -51.5t-3 -51q0 -41 19 -67.5t60 -26.5zM253 583l-107 167h131l107 -167h-131z" />
    <glyph glyph-name="oacute" unicode="&#xf3;" horiz-adv-x="517" 
d="M228 -12q-66 0 -109 29t-64.5 73.5t-21.5 93.5q0 27 4 58t10 62t15 57q23 70 79.5 114t144.5 44q68 0 111 -28t64.5 -73t21.5 -94q0 -27 -3.5 -58.5t-10 -61.5t-15.5 -56q-23 -71 -80 -115.5t-146 -44.5zM237 97q36 0 61 21.5t38 56.5q6 16 11.5 41.5t8.5 52.5t3 48
q0 40 -20.5 67t-61.5 27q-36 0 -60 -21.5t-37 -56.5q-5 -15 -10.5 -39.5t-8.5 -51.5t-3 -51q0 -41 19 -67.5t60 -26.5zM215 583l153 167h137l-153 -167h-137z" />
    <glyph glyph-name="ocircumflex" unicode="&#xf4;" horiz-adv-x="517" 
d="M228 -12q-66 0 -109 29t-64.5 73.5t-21.5 93.5q0 27 4 58t10 62t15 57q23 70 79.5 114t144.5 44q68 0 111 -28t64.5 -73t21.5 -94q0 -27 -3.5 -58.5t-10 -61.5t-15.5 -56q-23 -71 -80 -115.5t-146 -44.5zM237 97q36 0 61 21.5t38 56.5q6 16 11.5 41.5t8.5 52.5t3 48
q0 40 -20.5 67t-61.5 27q-36 0 -60 -21.5t-37 -56.5q-5 -15 -10.5 -39.5t-8.5 -51.5t-3 -51q0 -41 19 -67.5t60 -26.5zM150 583l113 167h133l68 -167h-107l-23 59l-1 29q0 7 -4 8t-9 -6l-57 -90h-113z" />
    <glyph glyph-name="otilde" unicode="&#xf5;" horiz-adv-x="517" 
d="M228 -12q-66 0 -109 29t-64.5 73.5t-21.5 93.5q0 27 4 58t10 62t15 57q23 70 79.5 114t144.5 44q68 0 111 -28t64.5 -73t21.5 -94q0 -27 -3.5 -58.5t-10 -61.5t-15.5 -56q-23 -71 -80 -115.5t-146 -44.5zM237 97q36 0 61 21.5t38 56.5q6 16 11.5 41.5t8.5 52.5t3 48
q0 40 -20.5 67t-61.5 27q-36 0 -60 -21.5t-37 -56.5q-5 -15 -10.5 -39.5t-8.5 -51.5t-3 -51q0 -41 19 -67.5t60 -26.5zM172 568l-28 88q24 24 49.5 33.5t53.5 9.5q39 0 59.5 -9t37 -17.5t38.5 -8.5q24 0 43 11t36 28l27 -88q-23 -23 -48.5 -33t-53.5 -10q-38 0 -59.5 9
t-37 18t-37.5 9q-24 0 -43.5 -11t-36.5 -29z" />
    <glyph glyph-name="odieresis" unicode="&#xf6;" horiz-adv-x="517" 
d="M228 -12q-66 0 -109 29t-64.5 73.5t-21.5 93.5q0 27 4 58t10 62t15 57q23 70 79.5 114t144.5 44q68 0 111 -28t64.5 -73t21.5 -94q0 -27 -3.5 -58.5t-10 -61.5t-15.5 -56q-23 -71 -80 -115.5t-146 -44.5zM237 97q36 0 61 21.5t38 56.5q6 16 11.5 41.5t8.5 52.5t3 48
q0 40 -20.5 67t-61.5 27q-36 0 -60 -21.5t-37 -56.5q-5 -15 -10.5 -39.5t-8.5 -51.5t-3 -51q0 -41 19 -67.5t60 -26.5zM350 583l17 117h121l-17 -117h-121zM154 583l17 117h121l-17 -117h-121z" />
    <glyph glyph-name="divide" unicode="&#xf7;" horiz-adv-x="595" 
d="M55 290l17 120h465l-17 -120h-465zM187 66l19 138h140l-20 -138h-139zM248 496l19 138h139l-19 -138h-139z" />
    <glyph glyph-name="oslash" unicode="&#xf8;" horiz-adv-x="517" 
d="M228 -12q-66 0 -109 29t-64.5 73.5t-21.5 93.5q0 27 4 58t10 62t15 57q23 70 79.5 114t144.5 44q68 0 111 -28t64.5 -73t21.5 -94q0 -27 -3.5 -58.5t-10 -61.5t-15.5 -56q-23 -71 -80 -115.5t-146 -44.5zM237 97q36 0 61 21.5t38 56.5q6 16 11.5 41.5t8.5 52.5t3 48
q0 40 -20.5 67t-61.5 27q-36 0 -60 -21.5t-37 -56.5q-5 -15 -10.5 -39.5t-8.5 -51.5t-3 -51q0 -41 19 -67.5t60 -26.5zM-26 0l458 508h119l-458 -508h-119z" />
    <glyph glyph-name="ugrave" unicode="&#xf9;" horiz-adv-x="544" 
d="M181 -10q-70 0 -107.5 42t-25.5 128l48 348h130l-45 -334q-5 -35 9 -51.5t47 -16.5q11 0 23.5 3t28.5 11.5t37 20.5l50 367h130l-72 -508h-128l2 18q2 7 -3 8.5t-11 -1.5l-31 -15.5t-30 -13.5q-12 -3 -25 -4.5t-27 -1.5zM271 583l-107 167h131l107 -167h-131z" />
    <glyph glyph-name="uacute" unicode="&#xfa;" horiz-adv-x="544" 
d="M181 -10q-70 0 -107.5 42t-25.5 128l48 348h130l-45 -334q-5 -35 9 -51.5t47 -16.5q11 0 23.5 3t28.5 11.5t37 20.5l50 367h130l-72 -508h-128l2 18q2 7 -3 8.5t-11 -1.5l-31 -15.5t-30 -13.5q-12 -3 -25 -4.5t-27 -1.5zM233 583l153 167h137l-153 -167h-137z" />
    <glyph glyph-name="ucircumflex" unicode="&#xfb;" horiz-adv-x="544" 
d="M181 -10q-70 0 -107.5 42t-25.5 128l48 348h130l-45 -334q-5 -35 9 -51.5t47 -16.5q11 0 23.5 3t28.5 11.5t37 20.5l50 367h130l-72 -508h-128l2 18q2 7 -3 8.5t-11 -1.5l-31 -15.5t-30 -13.5q-12 -3 -25 -4.5t-27 -1.5zM168 583l113 167h133l68 -167h-107l-23 59l-1 29
q0 7 -4 8t-9 -6l-57 -90h-113z" />
    <glyph glyph-name="udieresis" unicode="&#xfc;" horiz-adv-x="544" 
d="M181 -10q-70 0 -107.5 42t-25.5 128l48 348h130l-45 -334q-5 -35 9 -51.5t47 -16.5q11 0 23.5 3t28.5 11.5t37 20.5l50 367h130l-72 -508h-128l2 18q2 7 -3 8.5t-11 -1.5l-31 -15.5t-30 -13.5q-12 -3 -25 -4.5t-27 -1.5zM367 583l17 117h121l-17 -117h-121zM171 583
l17 117h121l-17 -117h-121z" />
    <glyph glyph-name="yacute" unicode="&#xfd;" horiz-adv-x="480" 
d="M7 -216l-25 112q53 9 90.5 28t53.5 60l10 25l-94 499h134l37 -193l3 -119q0 -8 6.5 -8t10.5 8l117 312h136l-223 -514q-44 -103 -109.5 -152.5t-146.5 -57.5zM186 583l153 167h137l-153 -167h-137z" />
    <glyph glyph-name="thorn" unicode="&#xfe;" horiz-adv-x="527" 
d="M8 -200l27 196l64 454l36 250h129l-36 -208q18 8 41 16.5t55 8.5q30 0 60 -8t55 -28.5t40 -55.5t15 -89q0 -55 -11 -111t-34 -102q-35 -64 -90.5 -99t-128.5 -35q-21 0 -33 2t-32 5l-27 -196h-130zM228 99q38 0 68 18t45 50q16 33 23 71.5t7 79.5q0 34 -8.5 52t-24 24
t-35.5 6q-17 0 -36 -7.5t-53 -25.5l-36 -262q28 -6 50 -6z" />
    <glyph glyph-name="ydieresis" unicode="&#xff;" horiz-adv-x="480" 
d="M7 -216l-25 112q53 9 90.5 28t53.5 60l10 25l-94 499h134l37 -193l3 -119q0 -8 6.5 -8t10.5 8l117 312h136l-223 -514q-44 -103 -109.5 -152.5t-146.5 -57.5zM320 583l17 117h121l-17 -117h-121zM124 583l17 117h121l-17 -117h-121z" />
    <glyph glyph-name="Amacron" unicode="&#x100;" 
d="M-16 0l275 700h195l89 -700h-139l-48 431l-1 139q0 9 -7 10t-9 -7l-213 -573h-142zM167 168l45 116h183l11 -116h-239zM136 584l17 116h125l-30 -116h-112zM231 769l15 101h288l-14 -101h-289z" />
    <glyph glyph-name="amacron" unicode="&#x101;" horiz-adv-x="550" 
d="M206 -9q-29 0 -59.5 8.5t-56 29t-41.5 55.5t-16 87q0 56 11 111.5t34 101.5q35 65 91 99.5t128 34.5q12 0 24 -0.5t28 -2.5l37 -12q6 -2 16 -1l90 10l-52 -383l61 -30l-57 -109l-102 50q-9 4 -14 -2l-17 -19q-25 -10 -41.5 -16.5t-31 -9t-32.5 -2.5zM226 107q10 0 20.5 3
t26 10.5t40.5 21.5l36 261q-28 5 -51 5q-37 0 -67 -17t-45 -50q-16 -33 -23 -72.5t-7 -87.5q0 -39 20 -56.5t50 -17.5zM185 584l15 101h288l-14 -101h-289z" />
    <glyph glyph-name="Abreve" unicode="&#x102;" 
d="M-16 0l275 700h195l89 -700h-139l-48 431l-1 139q0 9 -7 10t-9 -7l-213 -573h-142zM167 168l45 116h183l11 -116h-239zM136 584l17 116h125l-30 -116h-112zM385 781q-76 0 -114 34.5t-49 92.5l92 16q6 -29 23.5 -43t45.5 -14q34 0 59.5 17.5t38.5 46.5l89 -30
q-26 -58 -70.5 -89t-114.5 -31z" />
    <glyph glyph-name="abreve" unicode="&#x103;" horiz-adv-x="550" 
d="M206 -9q-29 0 -59.5 8.5t-56 29t-41.5 55.5t-16 87q0 56 11 111.5t34 101.5q35 65 91 99.5t128 34.5q12 0 24 -0.5t28 -2.5l37 -12q6 -2 16 -1l90 10l-52 -383l61 -30l-57 -109l-102 50q-9 4 -14 -2l-17 -19q-25 -10 -41.5 -16.5t-31 -9t-32.5 -2.5zM226 107q10 0 20.5 3
t26 10.5t40.5 21.5l36 261q-28 5 -51 5q-37 0 -67 -17t-45 -50q-16 -33 -23 -72.5t-7 -87.5q0 -39 20 -56.5t50 -17.5zM339 596q-76 0 -114 34.5t-49 92.5l92 16q6 -29 23.5 -43t45.5 -14q34 0 59.5 17.5t38.5 46.5l89 -30q-26 -58 -70.5 -89t-114.5 -31z" />
    <glyph glyph-name="Aogonek" unicode="&#x104;" 
d="M-16 0l275 700h195l89 -700h-139l-48 431l-1 139q0 9 -7 10t-9 -7l-213 -573h-142zM167 168l45 116h183l11 -116h-239zM136 584l17 116h125l-30 -116h-112zM539 -259q-62 2 -108 19.5t-68.5 54t-14.5 93.5q6 42 31 72.5t69 48.5l95 -29q-39 -19 -59.5 -41t-25.5 -56
q-4 -36 23 -50t80 -17z" />
    <glyph glyph-name="aogonek" unicode="&#x105;" horiz-adv-x="550" 
d="M442 -257q-63 2 -109 19.5t-68 55.5t-14 100q5 41 30.5 71.5t69.5 49.5l93 -47q-39 -9 -59 -28.5t-23 -46.5q-6 -44 21 -60t81 -19zM206 -9q-29 0 -59.5 8.5t-56 29t-41.5 55.5t-16 87q0 56 11 111.5t34 101.5q35 65 91 99.5t128 34.5q12 0 24 -0.5t28 -2.5l37 -12
q6 -2 16 -1l90 10l-52 -383l61 -30l-57 -109l-102 50q-9 4 -14 -2l-17 -19q-25 -10 -41.5 -16.5t-31 -9t-32.5 -2.5zM226 107q10 0 20.5 3t26 10.5t40.5 21.5l36 261q-28 5 -51 5q-37 0 -67 -17t-45 -50q-16 -33 -23 -72.5t-7 -87.5q0 -39 20 -56.5t50 -17.5z" />
    <glyph glyph-name="Cacute" unicode="&#x106;" horiz-adv-x="504" 
d="M284 -12q-57 0 -100.5 19.5t-72.5 53t-43.5 73.5t-14.5 81q0 51 5.5 104t16.5 106.5t26 100.5q24 82 88 134t171 52q53 0 94 -16t69 -43l-41 -107q-25 22 -54 32t-71 10q-40 0 -74.5 -21.5t-50.5 -70.5q-5 -19 -12.5 -55t-14 -78t-11 -80.5t-4.5 -61.5q0 -51 27 -79.5
t75 -28.5q39 0 66.5 11.5t51.5 28.5l40 -113q-33 -25 -71.5 -38.5t-94.5 -13.5zM261 768l153 167h137l-153 -167h-137z" />
    <glyph glyph-name="cacute" unicode="&#x107;" horiz-adv-x="458" 
d="M229 -10q-63 0 -107 25.5t-66.5 70t-22.5 100.5q0 36 5.5 71t15.5 70q16 61 48.5 103.5t79 65t104.5 22.5q53 0 89 -11t68 -29l-38 -97q-22 12 -48 20t-56 8q-53 0 -84.5 -30.5t-46.5 -80.5q-6 -24 -9.5 -50.5t-5.5 -57.5q-1 -29 9.5 -50t29.5 -32.5t45 -11.5
q13 0 26.5 5.5t27.5 18t28 32.5l91 -48q-37 -66 -85 -90t-98 -24zM196 575l153 167h137l-153 -167h-137z" />
    <glyph glyph-name="Cdotaccent" unicode="&#x10a;" horiz-adv-x="504" 
d="M284 -12q-57 0 -100.5 19.5t-72.5 53t-43.5 73.5t-14.5 81q0 51 5.5 104t16.5 106.5t26 100.5q24 82 88 134t171 52q53 0 94 -16t69 -43l-41 -107q-25 22 -54 32t-71 10q-40 0 -74.5 -21.5t-50.5 -70.5q-5 -19 -12.5 -55t-14 -78t-11 -80.5t-4.5 -61.5q0 -51 27 -79.5
t75 -28.5q39 0 66.5 11.5t51.5 28.5l40 -113q-33 -25 -71.5 -38.5t-94.5 -13.5zM288 768l17 117h133l-17 -117h-133z" />
    <glyph glyph-name="cdotaccent" unicode="&#x10b;" horiz-adv-x="458" 
d="M229 -10q-63 0 -107 25.5t-66.5 70t-22.5 100.5q0 36 5.5 71t15.5 70q16 61 48.5 103.5t79 65t104.5 22.5q53 0 89 -11t68 -29l-38 -97q-22 12 -48 20t-56 8q-53 0 -84.5 -30.5t-46.5 -80.5q-6 -24 -9.5 -50.5t-5.5 -57.5q-1 -29 9.5 -50t29.5 -32.5t45 -11.5
q13 0 26.5 5.5t27.5 18t28 32.5l91 -48q-37 -66 -85 -90t-98 -24zM223 575l17 117h133l-17 -117h-133z" />
    <glyph glyph-name="Ccaron" unicode="&#x10c;" horiz-adv-x="504" 
d="M284 -12q-57 0 -100.5 19.5t-72.5 53t-43.5 73.5t-14.5 81q0 51 5.5 104t16.5 106.5t26 100.5q24 82 88 134t171 52q53 0 94 -16t69 -43l-41 -107q-25 22 -54 32t-71 10q-40 0 -74.5 -21.5t-50.5 -70.5q-5 -19 -12.5 -55t-14 -78t-11 -80.5t-4.5 -61.5q0 -51 27 -79.5
t75 -28.5q39 0 66.5 11.5t51.5 28.5l40 -113q-33 -25 -71.5 -38.5t-94.5 -13.5zM290 768l-68 167h106l21 -54l2 -36q0 -6 5 -6.5t9 6.5l59 90h112l-115 -167h-131z" />
    <glyph glyph-name="ccaron" unicode="&#x10d;" horiz-adv-x="458" 
d="M229 -10q-63 0 -107 25.5t-66.5 70t-22.5 100.5q0 36 5.5 71t15.5 70q16 61 48.5 103.5t79 65t104.5 22.5q53 0 89 -11t68 -29l-38 -97q-22 12 -48 20t-56 8q-53 0 -84.5 -30.5t-46.5 -80.5q-6 -24 -9.5 -50.5t-5.5 -57.5q-1 -29 9.5 -50t29.5 -32.5t45 -11.5
q13 0 26.5 5.5t27.5 18t28 32.5l91 -48q-37 -66 -85 -90t-98 -24zM225 575l-68 167h106l21 -54l2 -36q0 -6 5 -6.5t9 6.5l59 90h112l-115 -167h-131z" />
    <glyph glyph-name="Dcaron" unicode="&#x10e;" horiz-adv-x="607" 
d="M39 0l99 700h197q86 0 141 -27t81 -79t25 -127q-1 -60 -11.5 -128.5t-23.5 -127.5q-18 -83 -60 -129t-103.5 -64t-140.5 -18h-204zM196 116h57q45 0 76.5 10t53.5 38t34 82q7 26 14 67t12 82.5t5 69.5q1 39 -10.5 65.5t-38.5 40t-74 13.5h-64zM308 768l-68 167h106
l21 -54l2 -36q0 -6 5 -6.5t9 6.5l59 90h112l-115 -167h-131z" />
    <glyph glyph-name="dcaron" unicode="&#x10f;" horiz-adv-x="550" 
d="M352 442l44 308h130l-42 -299zM206 -9q-29 0 -59.5 8.5t-56 29t-41.5 55.5t-16 87q0 56 11 111.5t34 101.5q35 65 91 99.5t128 34.5q12 0 24 -0.5t28 -2.5l37 -12q6 -2 16 -1l90 10l-52 -383l61 -30l-57 -109l-102 50q-9 4 -14 -2l-17 -19q-25 -10 -41.5 -16.5t-31 -9
t-32.5 -2.5zM226 107q10 0 20.5 3t26 10.5t40.5 21.5l36 261q-28 5 -51 5q-37 0 -67 -17t-45 -50q-16 -33 -23 -72.5t-7 -87.5q0 -39 20 -56.5t50 -17.5zM650 583h-101l90 167h127z" />
    <glyph glyph-name="Dcroat" unicode="&#x110;" horiz-adv-x="627" 
d="M-7 298l14 103h328l-14 -103h-328zM59 0l99 700h197q86 0 141 -27t81 -79t25 -127q-1 -60 -11.5 -128.5t-23.5 -127.5q-18 -83 -60 -129t-103.5 -64t-140.5 -18h-204zM216 116h57q45 0 76.5 10t53.5 38t34 82q7 26 14 67t12 82.5t5 69.5q1 39 -10.5 65.5t-38.5 40
t-74 13.5h-64z" />
    <glyph glyph-name="dcroat" unicode="&#x111;" horiz-adv-x="550" 
d="M352 442l44 308h130l-42 -299zM206 -9q-29 0 -59.5 8.5t-56 29t-41.5 55.5t-16 87q0 56 11 111.5t34 101.5q35 65 91 99.5t128 34.5q12 0 24 -0.5t28 -2.5l37 -12q6 -2 16 -1l90 10l-52 -383l61 -30l-57 -109l-102 50q-9 4 -14 -2l-17 -19q-25 -10 -41.5 -16.5t-31 -9
t-32.5 -2.5zM226 107q10 0 20.5 3t26 10.5t40.5 21.5l36 261q-28 5 -51 5q-37 0 -67 -17t-45 -50q-16 -33 -23 -72.5t-7 -87.5q0 -39 20 -56.5t50 -17.5zM281 561l15 103h328l-15 -103h-328z" />
    <glyph glyph-name="Emacron" unicode="&#x112;" horiz-adv-x="551" 
d="M39 0l99 700h423l-18 -125h-294l-24 -166h278l-16 -118h-278l-24 -166h295l-17 -125h-424zM223 769l15 101h288l-14 -101h-289z" />
    <glyph glyph-name="emacron" unicode="&#x113;" horiz-adv-x="497" 
d="M230 -10q-64 0 -108 25.5t-66.5 70t-22.5 100.5q0 38 5.5 72.5t14.5 64.5q16 65 48.5 108t79 65t105.5 22q56 0 94 -18.5t59.5 -50.5t27.5 -74.5t-2 -90.5l-33 -62h-300l12 92h208q12 48 -7 74t-61 26q-44 0 -73.5 -32t-42.5 -89q-4 -21 -7.5 -45t-5.5 -57
q-2 -46 22.5 -70.5t61.5 -24.5q26 0 50.5 13t47.5 43l97 -48q-40 -65 -94 -89.5t-110 -24.5zM152 584l15 101h288l-14 -101h-289z" />
    <glyph glyph-name="Edotaccent" unicode="&#x116;" horiz-adv-x="551" 
d="M39 0l99 700h423l-18 -125h-294l-24 -166h278l-16 -118h-278l-24 -166h295l-17 -125h-424zM301 768l17 117h133l-17 -117h-133z" />
    <glyph glyph-name="edotaccent" unicode="&#x117;" horiz-adv-x="497" 
d="M230 -10q-64 0 -108 25.5t-66.5 70t-22.5 100.5q0 38 5.5 72.5t14.5 64.5q16 65 48.5 108t79 65t105.5 22q56 0 94 -18.5t59.5 -50.5t27.5 -74.5t-2 -90.5l-33 -62h-300l12 92h208q12 48 -7 74t-61 26q-44 0 -73.5 -32t-42.5 -89q-4 -21 -7.5 -45t-5.5 -57
q-2 -46 22.5 -70.5t61.5 -24.5q26 0 50.5 13t47.5 43l97 -48q-40 -65 -94 -89.5t-110 -24.5zM230 583l17 117h133l-17 -117h-133z" />
    <glyph glyph-name="Eogonek" unicode="&#x118;" horiz-adv-x="551" 
d="M39 0l99 700h423l-18 -125h-294l-24 -166h278l-16 -118h-278l-24 -166h295l-17 -125h-424zM459 -259q-62 2 -108 19.5t-68.5 54t-14.5 93.5q6 42 31 72.5t69 48.5l95 -29q-39 -19 -59.5 -41t-25.5 -56q-4 -36 23 -50t80 -17z" />
    <glyph glyph-name="eogonek" unicode="&#x119;" horiz-adv-x="497" 
d="M320 -259q-62 2 -108 19.5t-68.5 55.5t-14.5 99q6 42 31 72.5t69 48.5l95 -28q-38 -20 -59 -42t-25 -56q-5 -41 22 -56t80 -18zM230 -10q-64 0 -108 25.5t-66.5 70t-22.5 100.5q0 38 5.5 72.5t14.5 64.5q16 65 48.5 108t79 65t105.5 22q56 0 94 -18.5t59.5 -50.5
t27.5 -74.5t-2 -90.5l-33 -62h-300l12 92h208q12 48 -7 74t-61 26q-44 0 -73.5 -32t-42.5 -89q-4 -21 -7.5 -45t-5.5 -57q-2 -46 22.5 -70.5t61.5 -24.5q26 0 50.5 13t47.5 43l97 -48q-40 -65 -94 -89.5t-110 -24.5z" />
    <glyph glyph-name="Ecaron" unicode="&#x11a;" horiz-adv-x="551" 
d="M39 0l99 700h423l-18 -125h-294l-24 -166h278l-16 -118h-278l-24 -166h295l-17 -125h-424zM304 768l-68 167h106l21 -54l2 -36q0 -6 5 -6.5t9 6.5l59 90h112l-115 -167h-131z" />
    <glyph glyph-name="ecaron" unicode="&#x11b;" horiz-adv-x="497" 
d="M230 -10q-64 0 -108 25.5t-66.5 70t-22.5 100.5q0 38 5.5 72.5t14.5 64.5q16 65 48.5 108t79 65t105.5 22q56 0 94 -18.5t59.5 -50.5t27.5 -74.5t-2 -90.5l-33 -62h-300l12 92h208q12 48 -7 74t-61 26q-44 0 -73.5 -32t-42.5 -89q-4 -21 -7.5 -45t-5.5 -57
q-2 -46 22.5 -70.5t61.5 -24.5q26 0 50.5 13t47.5 43l97 -48q-40 -65 -94 -89.5t-110 -24.5zM232 583l-68 167h106l21 -54l2 -36q0 -6 5 -6.5t9 6.5l59 90h112l-115 -167h-131z" />
    <glyph glyph-name="Gbreve" unicode="&#x11e;" horiz-adv-x="598" 
d="M288 -12q-74 0 -127.5 28.5t-81.5 78t-28 113.5q0 36 5 87t14 104t20 97q23 86 65 133t101.5 65t130.5 18q58 0 105 -17t82 -47l-55 -106q-27 22 -61.5 33.5t-74.5 11.5q-44 0 -75.5 -11t-53.5 -39.5t-34 -79.5q-9 -38 -17.5 -83t-13 -88.5t-4.5 -77.5q0 -41 26.5 -68
t73.5 -27q25 0 48.5 3.5t42.5 9.5l26 162h-71l17 124h255l-17 -124h-65l-32 -247q-36 -23 -84.5 -38t-116.5 -15zM401 781q-76 0 -114 34.5t-49 92.5l92 16q6 -29 23.5 -43t45.5 -14q34 0 59.5 17.5t38.5 46.5l89 -30q-26 -58 -70.5 -89t-114.5 -31z" />
    <glyph glyph-name="gbreve" unicode="&#x11f;" horiz-adv-x="522" 
d="M170 -207q-61 0 -107 15.5t-81 41.5l38 99q34 -25 67.5 -36t76.5 -11q52 0 85.5 22.5t40.5 58.5l4 21q2 8 -3 11t-13 1l-63 -24q-5 -1 -10.5 -1h-11.5q-29 1 -57.5 10.5t-51.5 29.5t-37 54t-14 86q0 36 5 74t14.5 74.5t25.5 64.5q35 65 91 99.5t128 34.5q23 0 52 -3
l37 -12q6 -2 16 -1l90 10l-67 -475q-10 -72 -35 -119t-59 -74.5t-75.5 -39t-85.5 -11.5zM223 107q19 0 39 8t52 27l35 261q-14 3 -25.5 4t-25.5 1q-36 0 -66 -16.5t-46 -50.5q-17 -35 -23.5 -73t-6.5 -81q0 -35 10.5 -52t26 -22.5t30.5 -5.5zM325 596q-76 0 -114 34.5
t-49 92.5l92 16q6 -29 23.5 -43t45.5 -14q34 0 59.5 17.5t38.5 46.5l89 -30q-26 -58 -70.5 -89t-114.5 -31z" />
    <glyph glyph-name="Gdotaccent" unicode="&#x120;" horiz-adv-x="598" 
d="M288 -12q-74 0 -127.5 28.5t-81.5 78t-28 113.5q0 36 5 87t14 104t20 97q23 86 65 133t101.5 65t130.5 18q58 0 105 -17t82 -47l-55 -106q-27 22 -61.5 33.5t-74.5 11.5q-44 0 -75.5 -11t-53.5 -39.5t-34 -79.5q-9 -38 -17.5 -83t-13 -88.5t-4.5 -77.5q0 -41 26.5 -68
t73.5 -27q25 0 48.5 3.5t42.5 9.5l26 162h-71l17 124h255l-17 -124h-65l-32 -247q-36 -23 -84.5 -38t-116.5 -15zM326 768l17 117h133l-17 -117h-133z" />
    <glyph glyph-name="gdotaccent" unicode="&#x121;" horiz-adv-x="522" 
d="M170 -207q-61 0 -107 15.5t-81 41.5l38 99q34 -25 67.5 -36t76.5 -11q52 0 85.5 22.5t40.5 58.5l4 21q2 8 -3 11t-13 1l-63 -24q-5 -1 -10.5 -1h-11.5q-29 1 -57.5 10.5t-51.5 29.5t-37 54t-14 86q0 36 5 74t14.5 74.5t25.5 64.5q35 65 91 99.5t128 34.5q23 0 52 -3
l37 -12q6 -2 16 -1l90 10l-67 -475q-10 -72 -35 -119t-59 -74.5t-75.5 -39t-85.5 -11.5zM223 107q19 0 39 8t52 27l35 261q-14 3 -25.5 4t-25.5 1q-36 0 -66 -16.5t-46 -50.5q-17 -35 -23.5 -73t-6.5 -81q0 -35 10.5 -52t26 -22.5t30.5 -5.5zM249 583l17 117h133l-17 -117
h-133z" />
    <glyph glyph-name="uni0122" unicode="&#x122;" horiz-adv-x="598" 
d="M288 -12q-74 0 -127.5 28.5t-81.5 78t-28 113.5q0 36 5 87t14 104t20 97q23 86 65 133t101.5 65t130.5 18q58 0 105 -17t82 -47l-55 -106q-27 22 -61.5 33.5t-74.5 11.5q-44 0 -75.5 -11t-53.5 -39.5t-34 -79.5q-9 -38 -17.5 -83t-13 -88.5t-4.5 -77.5q0 -41 26.5 -68
t73.5 -27q25 0 48.5 3.5t42.5 9.5l26 162h-71l17 124h255l-17 -124h-65l-32 -247q-36 -23 -84.5 -38t-116.5 -15zM208 -331l-80 61q39 27 62.5 55.5t36.5 63.5t19 82l111 -7q-8 -59 -24 -104t-45.5 -81t-79.5 -70z" />
    <glyph glyph-name="uni0123" unicode="&#x123;" horiz-adv-x="522" 
d="M170 -207q-61 0 -107 15.5t-81 41.5l38 99q34 -25 67.5 -36t76.5 -11q52 0 85.5 22.5t40.5 58.5l4 21q2 8 -3 11t-13 1l-63 -24q-5 -1 -10.5 -1h-11.5q-29 1 -57.5 10.5t-51.5 29.5t-37 54t-14 86q0 36 5 74t14.5 74.5t25.5 64.5q35 65 91 99.5t128 34.5q23 0 52 -3
l37 -12q6 -2 16 -1l90 10l-67 -475q-10 -72 -35 -119t-59 -74.5t-75.5 -39t-85.5 -11.5zM223 107q19 0 39 8t52 27l35 261q-14 3 -25.5 4t-25.5 1q-36 0 -66 -16.5t-46 -50.5q-17 -35 -23.5 -73t-6.5 -81q0 -35 10.5 -52t26 -22.5t30.5 -5.5zM480 928l-16 -68
q-70 -4 -115 -43t-53 -98l81 4l-20 -134h-157l15 110q11 78 50 127.5t95.5 74.5t119.5 27z" />
    <glyph glyph-name="Hbar" unicode="&#x126;" horiz-adv-x="635" 
d="M2 493l15 103h696l-14 -103h-697zM39 0l99 700h141l-41 -288h203l41 288h141l-99 -700h-141l41 288h-203l-41 -288h-141z" />
    <glyph glyph-name="hbar" unicode="&#x127;" horiz-adv-x="545" 
d="M315 0l45 332q5 35 -7.5 52t-41.5 17q-16 0 -31 -4t-32.5 -12t-40.5 -22l8 105q29 20 51.5 31t44.5 15t49 4q46 0 78.5 -19t47.5 -57t7 -96l-48 -346h-130zM35 0l106 751h129l-105 -751h-130zM14 559l15 103h328l-15 -103h-328z" />
    <glyph glyph-name="Imacron" unicode="&#x12a;" horiz-adv-x="438" 
d="M14 0l17 117h98l66 466h-99l17 117h338l-17 -117h-99l-65 -466h99l-17 -117h-338zM147 769l15 101h288l-14 -101h-289z" />
    <glyph glyph-name="imacron" unicode="&#x12b;" horiz-adv-x="316" 
d="M77 0l55 397h-85l16 111h218l-72 -508h-132zM61 584l15 101h288l-14 -101h-289z" />
    <glyph glyph-name="Iogonek" unicode="&#x12e;" horiz-adv-x="438" 
d="M14 0l17 117h98l66 466h-99l17 117h338l-17 -117h-99l-65 -466h99l-17 -117h-338zM348 -259q-62 2 -108 19.5t-68.5 54t-14.5 93.5q6 42 31 72.5t69 48.5l95 -29q-39 -19 -59.5 -41t-25.5 -56q-4 -36 23 -50t80 -17z" />
    <glyph glyph-name="iogonek" unicode="&#x12f;" horiz-adv-x="316" 
d="M77 0l55 397h-85l16 111h218l-72 -508h-132zM140 583l17 117h133l-17 -117h-133zM205 -259q-62 2 -108 19.5t-68.5 54t-14.5 93.5q6 42 31 72.5t69 48.5l95 -29q-39 -19 -59.5 -41t-25.5 -56q-4 -36 23 -50t80 -17z" />
    <glyph glyph-name="Idotaccent" unicode="&#x130;" horiz-adv-x="438" 
d="M14 0l17 117h98l66 466h-99l17 117h338l-17 -117h-99l-65 -466h99l-17 -117h-338zM225 768l17 117h133l-17 -117h-133z" />
    <glyph glyph-name="dotlessi" unicode="&#x131;" horiz-adv-x="316" 
d="M77 0l55 397h-85l16 111h218l-72 -508h-132z" />
    <glyph glyph-name="IJ" unicode="&#x132;" horiz-adv-x="857" 
d="M527 -12q-29 0 -50.5 3.5t-40.5 10.5l18 128q16 -9 32 -13t38 -4q47 0 79.5 25t40.5 77l51 368h-145l17 117h286l-70 -495q-16 -107 -84.5 -162t-171.5 -55zM14 0l17 117h98l66 466h-99l17 117h338l-17 -117h-99l-65 -466h99l-17 -117h-338z" />
    <glyph glyph-name="ij" unicode="&#x133;" horiz-adv-x="623" 
d="M62 0l55 397h-85l16 111h218l-71 -508h-133zM144 583l17 117h132l-17 -117h-132zM287 -222l-23 116q46 12 78.5 39.5t39.5 77.5l55 387h-85l15 110h218l-70 -500q-11 -76 -46.5 -124.5t-84 -73.5t-97.5 -32zM462 583l17 117h132l-17 -117h-132z" />
    <glyph glyph-name="uni0136" unicode="&#x136;" horiz-adv-x="574" 
d="M39 0l99 700h138l-41 -292h54l174 292h152l-209 -343l105 -357h-145l-83 292h-65l-41 -292h-138zM171 -331l-80 61q39 27 62.5 55.5t36.5 63.5t19 82l111 -7q-8 -59 -24 -104t-45.5 -81t-79.5 -70z" />
    <glyph glyph-name="uni0137" unicode="&#x137;" horiz-adv-x="515" 
d="M35 0l106 750h130l-58 -408h45l107 166h147l-142 -214l79 -294h-140l-51 227h-61l-32 -227h-130zM139 -331l-80 61q39 27 62.5 55.5t36.5 63.5t19 82l111 -7q-8 -59 -24 -104t-45.5 -81t-79.5 -70z" />
    <glyph glyph-name="Lacute" unicode="&#x139;" horiz-adv-x="446" 
d="M39 0l99 700h141l-81 -575h208l-18 -125h-349zM202 768l153 167h137l-153 -167h-137z" />
    <glyph glyph-name="lacute" unicode="&#x13a;" horiz-adv-x="295" 
d="M157 1q-52 0 -82 34t-23 86l89 629h129l-87 -610q-2 -14 3.5 -19.5t17.5 -5.5h48l-16 -114h-79zM182 825l153 167h137l-153 -167h-137z" />
    <glyph glyph-name="uni013B" unicode="&#x13b;" horiz-adv-x="446" 
d="M39 0l99 700h141l-81 -575h208l-18 -125h-349zM111 -331l-80 61q39 27 62.5 55.5t36.5 63.5t19 82l111 -7q-8 -59 -24 -104t-45.5 -81t-79.5 -70z" />
    <glyph glyph-name="uni013C" unicode="&#x13c;" horiz-adv-x="295" 
d="M157 1q-52 0 -82 34t-23 86l89 629h129l-87 -610q-2 -14 3.5 -19.5t17.5 -5.5h48l-16 -114h-79zM7 -331l-80 61q39 27 62.5 55.5t36.5 63.5t19 82l111 -7q-8 -59 -24 -104t-45.5 -81t-79.5 -70z" />
    <glyph glyph-name="Lcaron" unicode="&#x13d;" horiz-adv-x="446" 
d="M39 0l99 700h141l-81 -575h208l-18 -125h-349zM430 533h-101l90 167h127z" />
    <glyph glyph-name="lcaron" unicode="&#x13e;" horiz-adv-x="295" 
d="M157 1q-52 0 -82 34t-23 86l89 629h129l-87 -610q-2 -14 3.5 -19.5t17.5 -5.5h48l-16 -114h-79zM394 583h-101l90 167h127z" />
    <glyph glyph-name="Lslash" unicode="&#x141;" horiz-adv-x="466" 
d="M15 217l18 123l377 238l-17 -123zM59 0l99 700h141l-81 -575h208l-18 -125h-349z" />
    <glyph glyph-name="lslash" unicode="&#x142;" horiz-adv-x="329" 
d="M24 252l17 123l322 203l-18 -123zM175 1q-52 0 -81.5 34t-22.5 86l89 629h129l-87 -610q-2 -14 3.5 -19.5t17.5 -5.5h47l-16 -114h-79z" />
    <glyph glyph-name="Nacute" unicode="&#x143;" horiz-adv-x="636" 
d="M39 0l99 700h114l179 -434q3 -7 9.5 -6t6.5 11l1 120l43 309h133l-99 -700h-117l-173 422q-4 8 -10 6.5t-7 -12.5l-5 -126l-41 -290h-133zM298 775l153 167h137l-153 -167h-137z" />
    <glyph glyph-name="nacute" unicode="&#x144;" horiz-adv-x="565" 
d="M55 0l62 448l56 -108l-136 67l55 111l106 -52q10 -5 17 2l15 17q38 22 66.5 28.5t67.5 5.5q80 -1 119.5 -50.5t26.5 -137.5l-46 -331h-130l47 336q4 33 -10.5 49t-41.5 16q-17 0 -32.5 -4.5t-34 -14.5t-43.5 -26l22 36l-56 -392h-130zM265 583l153 167h137l-153 -167
h-137z" />
    <glyph glyph-name="uni0145" unicode="&#x145;" horiz-adv-x="636" 
d="M39 0l99 700h114l179 -434q3 -7 9.5 -6t6.5 11l1 120l43 309h133l-99 -700h-117l-173 422q-4 8 -10 6.5t-7 -12.5l-5 -126l-41 -290h-133zM200 -331l-80 61q39 27 62.5 55.5t36.5 63.5t19 82l111 -7q-8 -59 -24 -104t-45.5 -81t-79.5 -70z" />
    <glyph glyph-name="uni0146" unicode="&#x146;" horiz-adv-x="565" 
d="M55 0l62 448l56 -108l-136 67l55 111l106 -52q10 -5 17 2l15 17q38 22 66.5 28.5t67.5 5.5q80 -1 119.5 -50.5t26.5 -137.5l-46 -331h-130l47 336q4 33 -10.5 49t-41.5 16q-17 0 -32.5 -4.5t-34 -14.5t-43.5 -26l22 36l-56 -392h-130zM194 -331l-80 61q39 27 62.5 55.5
t36.5 63.5t19 82l111 -7q-8 -59 -24 -104t-45.5 -81t-79.5 -70z" />
    <glyph glyph-name="Ncaron" unicode="&#x147;" horiz-adv-x="636" 
d="M39 0l99 700h114l179 -434q3 -7 9.5 -6t6.5 11l1 120l43 309h133l-99 -700h-117l-173 422q-4 8 -10 6.5t-7 -12.5l-5 -126l-41 -290h-133zM327 775l-68 167h106l21 -54l2 -36q0 -6 5 -6.5t9 6.5l59 90h112l-115 -167h-131z" />
    <glyph glyph-name="ncaron" unicode="&#x148;" horiz-adv-x="565" 
d="M55 0l62 448l56 -108l-136 67l55 111l106 -52q10 -5 17 2l15 17q38 22 66.5 28.5t67.5 5.5q80 -1 119.5 -50.5t26.5 -137.5l-46 -331h-130l47 336q4 33 -10.5 49t-41.5 16q-17 0 -32.5 -4.5t-34 -14.5t-43.5 -26l22 36l-56 -392h-130zM294 583l-68 167h106l21 -54l2 -36
q0 -6 5 -6.5t9 6.5l59 90h112l-115 -167h-131z" />
    <glyph glyph-name="Eng" unicode="&#x14a;" horiz-adv-x="636" 
d="M292 -215q-41 0 -72 12.5t-58 34.5l55 105q17 -14 36 -20.5t44 -7.5q38 -1 70 18t38 51l4 22h116l-5 -29q-15 -90 -74 -138t-154 -48zM39 0l99 700h114l179 -434q3 -7 9.5 -6t6.5 11l1 120l43 309h133l-99 -700h-117l-173 422q-4 8 -10 6.5t-7 -12.5l-5 -126l-41 -290
h-133z" />
    <glyph glyph-name="eng" unicode="&#x14b;" horiz-adv-x="565" 
d="M241 -222l-23 116q47 12 77.5 35t38.5 71h130q-11 -72 -45 -119t-81 -71.5t-97 -31.5zM55 0l62 448l56 -108l-136 67l55 111l106 -52q10 -5 17 2l15 17q38 22 66.5 28.5t67.5 5.5q80 -1 119.5 -50.5t26.5 -137.5l-46 -331h-130l47 336q4 33 -10.5 49t-41.5 16
q-17 0 -32.5 -4.5t-34 -14.5t-43.5 -26l22 36l-56 -392h-130z" />
    <glyph glyph-name="Omacron" unicode="&#x14c;" horiz-adv-x="617" 
d="M283 -12q-78 0 -129 33t-76 85t-25 109q0 48 5.5 102.5t16.5 108.5t26 100q25 82 88.5 134t170.5 52q78 0 129.5 -33t76.5 -85t25 -109q0 -47 -5.5 -102t-16.5 -109t-26 -100q-24 -82 -88 -134t-172 -52zM292 113q42 0 73 24t46 67q9 23 16.5 59t13.5 76t9.5 77t3.5 61
q0 51 -26.5 80.5t-76.5 29.5q-42 0 -73 -23.5t-46 -67.5q-8 -22 -15.5 -59t-13.5 -78t-9.5 -77.5t-3.5 -58.5q0 -51 26.5 -80.5t75.5 -29.5zM236 769l15 101h288l-14 -101h-289z" />
    <glyph glyph-name="omacron" unicode="&#x14d;" horiz-adv-x="517" 
d="M228 -12q-66 0 -109 29t-64.5 73.5t-21.5 93.5q0 27 4 58t10 62t15 57q23 70 79.5 114t144.5 44q68 0 111 -28t64.5 -73t21.5 -94q0 -27 -3.5 -58.5t-10 -61.5t-15.5 -56q-23 -71 -80 -115.5t-146 -44.5zM237 97q36 0 61 21.5t38 56.5q6 16 11.5 41.5t8.5 52.5t3 48
q0 40 -20.5 67t-61.5 27q-36 0 -60 -21.5t-37 -56.5q-5 -15 -10.5 -39.5t-8.5 -51.5t-3 -51q0 -41 19 -67.5t60 -26.5zM164 584l15 101h288l-14 -101h-289z" />
    <glyph glyph-name="Ohungarumlaut" unicode="&#x150;" horiz-adv-x="617" 
d="M283 -12q-78 0 -129 33t-76 85t-25 109q0 48 5.5 102.5t16.5 108.5t26 100q25 82 88.5 134t170.5 52q78 0 129.5 -33t76.5 -85t25 -109q0 -47 -5.5 -102t-16.5 -109t-26 -100q-24 -82 -88 -134t-172 -52zM292 113q42 0 73 24t46 67q9 23 16.5 59t13.5 76t9.5 77t3.5 61
q0 51 -26.5 80.5t-76.5 29.5q-42 0 -73 -23.5t-46 -67.5q-8 -22 -15.5 -59t-13.5 -78t-9.5 -77.5t-3.5 -58.5q0 -51 26.5 -80.5t75.5 -29.5zM208 768l153 167h137l-153 -167h-137zM417 768l153 167h137l-153 -167h-137z" />
    <glyph glyph-name="ohungarumlaut" unicode="&#x151;" horiz-adv-x="517" 
d="M228 -12q-66 0 -109 29t-64.5 73.5t-21.5 93.5q0 27 4 58t10 62t15 57q23 70 79.5 114t144.5 44q68 0 111 -28t64.5 -73t21.5 -94q0 -27 -3.5 -58.5t-10 -61.5t-15.5 -56q-23 -71 -80 -115.5t-146 -44.5zM237 97q36 0 61 21.5t38 56.5q6 16 11.5 41.5t8.5 52.5t3 48
q0 40 -20.5 67t-61.5 27q-36 0 -60 -21.5t-37 -56.5q-5 -15 -10.5 -39.5t-8.5 -51.5t-3 -51q0 -41 19 -67.5t60 -26.5zM136 583l153 167h137l-153 -167h-137zM345 583l153 167h137l-153 -167h-137z" />
    <glyph glyph-name="OE" unicode="&#x152;" horiz-adv-x="917" 
d="M283 -12q-78 0 -129 33t-76 85t-25 109q0 48 5.5 102.5t16.5 108.5t26 100q25 82 88.5 134t170.5 52q27 0 53.5 -5t39.5 -11l33 -33q6 -6 11.5 -4t6.5 9l6 32h417l-17 -125h-295l-24 -166h278l-16 -118h-278l-23 -166h294l-17 -125h-422l3 26q1 5 -2.5 7.5t-12.5 -2.5
l-49 -33q-9 -3 -23 -6.5t-40 -3.5zM292 113q42 0 73 24t46 67q9 23 16.5 59t13.5 76t9.5 77t3.5 61q0 51 -26.5 80.5t-76.5 29.5q-42 0 -73 -23.5t-46 -67.5q-8 -22 -15.5 -59t-13.5 -78t-9.5 -77.5t-3.5 -58.5q0 -51 26.5 -80.5t75.5 -29.5z" />
    <glyph glyph-name="oe" unicode="&#x153;" horiz-adv-x="806" 
d="M227 -12q-66 0 -109 29t-64 73.5t-21 93.5q0 27 4 58t10 62t15 57q23 70 79 114t143 44q43 0 75.5 -11t56.5 -29l14 -31q3 -4 6.5 -4.5t7.5 4.5l21 30q23 18 58.5 29t70.5 11q57 0 95 -19t59 -51t27 -74.5t-1 -88.5l-34 -63h-272q-1 -7 -1.5 -15t-0.5 -18
q-2 -44 23.5 -68.5t67.5 -24.5q23 0 45.5 13.5t41.5 42.5l97 -48q-39 -64 -92 -89t-109 -25q-41 0 -72 11t-55 28l-13 27q-4 7 -7.5 6.5t-6.5 -5.5l-22 -29q-32 -22 -63.5 -31t-73.5 -9zM236 97q36 0 60.5 21.5t37.5 56.5q7 16 12 41.5t8.5 52.5t3.5 48q0 40 -20.5 67
t-61.5 27q-36 0 -60 -21.5t-37 -56.5q-6 -15 -11.5 -39.5t-8.5 -51.5t-3 -51q0 -41 19.5 -67.5t60.5 -26.5zM485 314l176 1q11 46 -7 72.5t-56 26.5q-42 0 -71 -26t-42 -74z" />
    <glyph glyph-name="Racute" unicode="&#x154;" horiz-adv-x="591" 
d="M39 0l99 700h245q67 0 113.5 -24.5t71 -67t24.5 -98.5q0 -76 -43 -132t-115 -80q-15 -4 -10 -19l30 -52l51 -227h-140l-65 288h-80l-41 -288h-140zM236 404h130q45 0 72.5 26t27.5 71q0 42 -24 63t-67 21h-114zM275 768l153 167h137l-153 -167h-137z" />
    <glyph glyph-name="racute" unicode="&#x155;" horiz-adv-x="402" 
d="M55 0l62 448l56 -108l-136 67l55 111l106 -52q10 -5 17 2l15 17q31 18 60.5 26t68.5 8q20 0 36 -3t30 -9l-28 -123q-14 2 -27 4t-26 2q-20 0 -39 -4.5t-40 -15t-46 -28.5l22 50l-56 -392h-130zM154 583l153 167h137l-153 -167h-137z" />
    <glyph glyph-name="uni0156" unicode="&#x156;" horiz-adv-x="591" 
d="M39 0l99 700h245q67 0 113.5 -24.5t71 -67t24.5 -98.5q0 -76 -43 -132t-115 -80q-15 -4 -10 -19l30 -52l51 -227h-140l-65 288h-80l-41 -288h-140zM236 404h130q45 0 72.5 26t27.5 71q0 42 -24 63t-67 21h-114zM178 -331l-80 61q39 27 62.5 55.5t36.5 63.5t19 82l111 -7
q-8 -59 -24 -104t-45.5 -81t-79.5 -70z" />
    <glyph glyph-name="uni0157" unicode="&#x157;" horiz-adv-x="402" 
d="M55 0l62 448l56 -108l-136 67l55 111l106 -52q10 -5 17 2l15 17q31 18 60.5 26t68.5 8q20 0 36 -3t30 -9l-28 -123q-14 2 -27 4t-26 2q-20 0 -39 -4.5t-40 -15t-46 -28.5l22 50l-56 -392h-130zM42 -331l-80 61q39 27 62.5 55.5t36.5 63.5t19 82l111 -7q-8 -59 -24 -104
t-45.5 -81t-79.5 -70z" />
    <glyph glyph-name="Rcaron" unicode="&#x158;" horiz-adv-x="591" 
d="M39 0l99 700h245q67 0 113.5 -24.5t71 -67t24.5 -98.5q0 -76 -43 -132t-115 -80q-15 -4 -10 -19l30 -52l51 -227h-140l-65 288h-80l-41 -288h-140zM236 404h130q45 0 72.5 26t27.5 71q0 42 -24 63t-67 21h-114zM304 768l-68 167h106l21 -54l2 -36q0 -6 5 -6.5t9 6.5
l59 90h112l-115 -167h-131z" />
    <glyph glyph-name="rcaron" unicode="&#x159;" horiz-adv-x="402" 
d="M55 0l62 448l56 -108l-136 67l55 111l106 -52q10 -5 17 2l15 17q31 18 60.5 26t68.5 8q20 0 36 -3t30 -9l-28 -123q-14 2 -27 4t-26 2q-20 0 -39 -4.5t-40 -15t-46 -28.5l22 50l-56 -392h-130zM183 583l-68 167h106l21 -54l2 -36q0 -6 5 -6.5t9 6.5l59 90h112l-115 -167
h-131z" />
    <glyph glyph-name="Sacute" unicode="&#x15a;" horiz-adv-x="511" 
d="M208 -10q-67 0 -118 17.5t-92 47.5l42 112q43 -28 83 -41t89 -13q38 0 66.5 14.5t44.5 38.5t16 53q0 25 -15 45t-50 30l-33 9q-44 13 -82 38t-61 63.5t-23 91.5q0 63 32.5 111.5t89.5 76.5t131 28q63 0 110 -17t77 -39l-39 -107q-33 21 -69 30.5t-71 9.5
q-45 0 -73.5 -13.5t-41.5 -34.5t-13 -42q0 -23 13.5 -39t43.5 -25l29 -8q86 -25 131.5 -75t46.5 -129q1 -73 -34 -125t-95 -80t-135 -28zM221 768l153 167h137l-153 -167h-137z" />
    <glyph glyph-name="sacute" unicode="&#x15b;" horiz-adv-x="463" 
d="M198 -12q-54 0 -100 15.5t-82 42.5l38 98q35 -25 69.5 -35.5t78.5 -10.5q41 0 64 15.5t23 38.5q0 18 -10.5 30t-37.5 20l-39 11q-68 19 -101 53.5t-33 84.5q0 56 26 93.5t73 56.5t108 19q51 0 91.5 -14.5t65.5 -32.5l-38 -97q-26 17 -56.5 26t-71.5 9q-39 0 -59.5 -13
t-20.5 -32q0 -15 8.5 -24.5t27.5 -15.5l37 -11q71 -22 108.5 -54.5t37.5 -93.5q1 -61 -25.5 -100.5t-73.5 -59t-108 -19.5zM188 584l153 167h137l-153 -167h-137z" />
    <glyph glyph-name="Scedilla" unicode="&#x15e;" horiz-adv-x="511" 
d="M208 -10q-67 0 -118 17.5t-92 47.5l42 112q43 -28 83 -41t89 -13q38 0 66.5 14.5t44.5 38.5t16 53q0 25 -15 45t-50 30l-33 9q-44 13 -82 38t-61 63.5t-23 91.5q0 63 32.5 111.5t89.5 76.5t131 28q63 0 110 -17t77 -39l-39 -107q-33 21 -69 30.5t-71 9.5
q-45 0 -73.5 -13.5t-41.5 -34.5t-13 -42q0 -23 13.5 -39t43.5 -25l29 -8q86 -25 131.5 -75t46.5 -129q1 -73 -34 -125t-95 -80t-135 -28zM57 -258l26 78q56 0 91 13.5t38 35.5q3 13 -19 16t-81 3l52 144l73 -27l-25 -51q46 -6 70.5 -32.5t19.5 -64.5q-5 -39 -38.5 -65
t-86.5 -38t-120 -12z" />
    <glyph glyph-name="scedilla" unicode="&#x15f;" horiz-adv-x="463" 
d="M198 -12q-54 0 -100 15.5t-82 42.5l38 98q35 -25 69.5 -35.5t78.5 -10.5q41 0 64 15.5t23 38.5q0 18 -10.5 30t-37.5 20l-39 11q-68 19 -101 53.5t-33 84.5q0 56 26 93.5t73 56.5t108 19q51 0 91.5 -14.5t65.5 -32.5l-38 -97q-26 17 -56.5 26t-71.5 9q-39 0 -59.5 -13
t-20.5 -32q0 -15 8.5 -24.5t27.5 -15.5l37 -11q71 -22 108.5 -54.5t37.5 -93.5q1 -61 -25.5 -100.5t-73.5 -59t-108 -19.5zM50 -258l26 78q56 0 91 13.5t38 35.5q3 13 -19 16t-81 3l52 144l73 -27l-25 -51q46 -6 70.5 -32.5t19.5 -64.5q-5 -39 -38.5 -65t-86.5 -38t-120 -12
z" />
    <glyph glyph-name="Scaron" unicode="&#x160;" horiz-adv-x="511" 
d="M208 -10q-67 0 -118 17.5t-92 47.5l42 112q43 -28 83 -41t89 -13q38 0 66.5 14.5t44.5 38.5t16 53q0 25 -15 45t-50 30l-33 9q-44 13 -82 38t-61 63.5t-23 91.5q0 63 32.5 111.5t89.5 76.5t131 28q63 0 110 -17t77 -39l-39 -107q-33 21 -69 30.5t-71 9.5
q-45 0 -73.5 -13.5t-41.5 -34.5t-13 -42q0 -23 13.5 -39t43.5 -25l29 -8q86 -25 131.5 -75t46.5 -129q1 -73 -34 -125t-95 -80t-135 -28zM250 768l-68 167h106l21 -54l2 -36q0 -6 5 -6.5t9 6.5l59 90h112l-115 -167h-131z" />
    <glyph glyph-name="scaron" unicode="&#x161;" horiz-adv-x="463" 
d="M198 -12q-54 0 -100 15.5t-82 42.5l38 98q35 -25 69.5 -35.5t78.5 -10.5q41 0 64 15.5t23 38.5q0 18 -10.5 30t-37.5 20l-39 11q-68 19 -101 53.5t-33 84.5q0 56 26 93.5t73 56.5t108 19q51 0 91.5 -14.5t65.5 -32.5l-38 -97q-26 17 -56.5 26t-71.5 9q-39 0 -59.5 -13
t-20.5 -32q0 -15 8.5 -24.5t27.5 -15.5l37 -11q71 -22 108.5 -54.5t37.5 -93.5q1 -61 -25.5 -100.5t-73.5 -59t-108 -19.5zM217 584l-68 167h106l21 -54l2 -36q0 -6 5 -6.5t9 6.5l59 90h112l-115 -167h-131z" />
    <glyph glyph-name="Tcaron" unicode="&#x164;" horiz-adv-x="505" 
d="M146 0l81 575h-159l17 125h460l-18 -125h-159l-81 -575h-141zM260 768l-68 167h106l21 -54l2 -36q0 -6 5 -6.5t9 6.5l59 90h112l-115 -167h-131z" />
    <glyph glyph-name="tcaron" unicode="&#x165;" horiz-adv-x="404" 
d="M182 1q-52 0 -81.5 33.5t-22.5 86.5l39 276h-90l16 111h89q5 0 9 2.5t8.5 11t9.5 23.5l35 100h89l-21 -137h121l-17 -111h-121l-36 -257q-2 -14 3.5 -19.5t17.5 -5.5h85l-16 -114h-117zM416 583h-101l90 167h127z" />
    <glyph glyph-name="Tbar" unicode="&#x166;" horiz-adv-x="505" 
d="M146 0l81 575h-159l17 125h460l-18 -125h-159l-81 -575h-141zM94 298l15 103h328l-15 -103h-328z" />
    <glyph glyph-name="tbar" unicode="&#x167;" horiz-adv-x="404" 
d="M182 1q-52 0 -81.5 33.5t-22.5 86.5l39 276h-90l16 111h89q5 0 9 2.5t8.5 11t9.5 23.5l35 100h89l-21 -137h121l-17 -111h-121l-36 -257q-2 -14 3.5 -19.5t17.5 -5.5h85l-16 -114h-117zM28 202l15 103h328l-15 -103h-328z" />
    <glyph glyph-name="Umacron" unicode="&#x16a;" horiz-adv-x="605" 
d="M279 -10q-72 0 -124 30t-77 85.5t-14 132.5l65 462h141l-67 -473q-8 -57 17 -84.5t66 -27.5q43 0 72 28t34 71l69 486h141l-72 -491q-9 -66 -43.5 -115.5t-87 -76.5t-120.5 -27zM230 769l15 101h288l-14 -101h-289z" />
    <glyph glyph-name="umacron" unicode="&#x16b;" horiz-adv-x="544" 
d="M181 -10q-70 0 -107.5 42t-25.5 128l48 348h130l-45 -334q-5 -35 9 -51.5t47 -16.5q11 0 23.5 3t28.5 11.5t37 20.5l50 367h130l-72 -508h-128l2 18q2 7 -3 8.5t-11 -1.5l-31 -15.5t-30 -13.5q-12 -3 -25 -4.5t-27 -1.5zM181 584l15 101h288l-14 -101h-289z" />
    <glyph glyph-name="Ubreve" unicode="&#x16c;" horiz-adv-x="605" 
d="M279 -10q-72 0 -124 30t-77 85.5t-14 132.5l65 462h141l-67 -473q-8 -57 17 -84.5t66 -27.5q43 0 72 28t34 71l69 486h141l-72 -491q-9 -66 -43.5 -115.5t-87 -76.5t-120.5 -27zM384 781q-76 0 -114 34.5t-49 92.5l92 16q6 -29 23.5 -43t45.5 -14q34 0 59.5 17.5
t38.5 46.5l89 -30q-26 -58 -70.5 -89t-114.5 -31z" />
    <glyph glyph-name="ubreve" unicode="&#x16d;" horiz-adv-x="544" 
d="M181 -10q-70 0 -107.5 42t-25.5 128l48 348h130l-45 -334q-5 -35 9 -51.5t47 -16.5q11 0 23.5 3t28.5 11.5t37 20.5l50 367h130l-72 -508h-128l2 18q2 7 -3 8.5t-11 -1.5l-31 -15.5t-30 -13.5q-12 -3 -25 -4.5t-27 -1.5zM335 596q-76 0 -114 34.5t-49 92.5l92 16
q6 -29 23.5 -43t45.5 -14q34 0 59.5 17.5t38.5 46.5l89 -30q-26 -58 -70.5 -89t-114.5 -31z" />
    <glyph glyph-name="Uring" unicode="&#x16e;" horiz-adv-x="605" 
d="M279 -10q-72 0 -124 30t-77 85.5t-14 132.5l65 462h141l-67 -473q-8 -57 17 -84.5t66 -27.5q43 0 72 28t34 71l69 486h141l-72 -491q-9 -66 -43.5 -115.5t-87 -76.5t-120.5 -27zM379 748q-48 0 -82 13.5t-49.5 40.5t-10.5 66q5 35 26.5 57.5t56 33.5t78.5 11q48 0 81 -13
t49 -39t10 -66q-5 -35 -26 -58t-55 -34.5t-78 -11.5zM382 816q28 0 46.5 10.5t20.5 33.5q4 23 -11.5 32.5t-45.5 9.5q-28 0 -45.5 -10t-20.5 -33q-3 -22 12 -32.5t44 -10.5z" />
    <glyph glyph-name="uring" unicode="&#x16f;" horiz-adv-x="544" 
d="M181 -10q-70 0 -107.5 42t-25.5 128l48 348h130l-45 -334q-5 -35 9 -51.5t47 -16.5q11 0 23.5 3t28.5 11.5t37 20.5l50 367h130l-72 -508h-128l2 18q2 7 -3 8.5t-11 -1.5l-31 -15.5t-30 -13.5q-12 -3 -25 -4.5t-27 -1.5zM330 563q-48 0 -82 13.5t-49.5 40.5t-10.5 66
q5 35 26.5 57.5t56 33.5t78.5 11q48 0 81 -13t49 -39t10 -66q-5 -35 -26 -58t-55 -34.5t-78 -11.5zM333 631q28 0 46.5 10.5t20.5 33.5q4 23 -11.5 32.5t-45.5 9.5q-28 0 -45.5 -10t-20.5 -33q-3 -22 12 -32.5t44 -10.5z" />
    <glyph glyph-name="Uhungarumlaut" unicode="&#x170;" horiz-adv-x="605" 
d="M279 -10q-72 0 -124 30t-77 85.5t-14 132.5l65 462h141l-67 -473q-8 -57 17 -84.5t66 -27.5q43 0 72 28t34 71l69 486h141l-72 -491q-9 -66 -43.5 -115.5t-87 -76.5t-120.5 -27zM203 768l153 167h137l-153 -167h-137zM412 768l153 167h137l-153 -167h-137z" />
    <glyph glyph-name="uhungarumlaut" unicode="&#x171;" horiz-adv-x="544" 
d="M181 -10q-70 0 -107.5 42t-25.5 128l48 348h130l-45 -334q-5 -35 9 -51.5t47 -16.5q11 0 23.5 3t28.5 11.5t37 20.5l50 367h130l-72 -508h-128l2 18q2 7 -3 8.5t-11 -1.5l-31 -15.5t-30 -13.5q-12 -3 -25 -4.5t-27 -1.5zM154 583l153 167h137l-153 -167h-137zM363 583
l153 167h137l-153 -167h-137z" />
    <glyph glyph-name="Uogonek" unicode="&#x172;" horiz-adv-x="605" 
d="M279 -10q-72 0 -124 30t-77 85.5t-14 132.5l65 462h141l-67 -473q-8 -57 17 -84.5t66 -27.5q43 0 72 28t34 71l69 486h141l-72 -491q-9 -66 -43.5 -115.5t-87 -76.5t-120.5 -27zM349 -259q-62 2 -108 19.5t-68.5 54t-14.5 93.5q6 42 31 72.5t69 48.5l95 -29
q-39 -19 -59.5 -41t-25.5 -56q-4 -36 23 -50t80 -17z" />
    <glyph glyph-name="uogonek" unicode="&#x173;" horiz-adv-x="544" 
d="M181 -10q-70 0 -107.5 42t-25.5 128l48 348h130l-45 -334q-5 -35 9 -51.5t47 -16.5q11 0 23.5 3t28.5 11.5t37 20.5l50 367h130l-72 -508h-128l2 18q2 7 -3 8.5t-11 -1.5l-31 -15.5t-30 -13.5q-12 -3 -25 -4.5t-27 -1.5zM430 -259q-62 2 -108 19.5t-68.5 54t-14.5 93.5
q6 42 31 72.5t69 48.5l95 -29q-39 -19 -59.5 -41t-25.5 -56q-4 -36 23 -50t80 -17z" />
    <glyph glyph-name="Wcircumflex" unicode="&#x174;" horiz-adv-x="634" 
d="M71 0l13 700h125l-3 -318l-16 -121q-1 -10 5.5 -10t9.5 8l105 249h69l30 -251q2 -10 9 -10t8 10l22 122l86 321h127l-183 -700h-134l-22 243q-1 9 -8 10t-11 -9l-98 -244h-134zM231 768l113 167h133l68 -167h-107l-23 59l-1 29q0 7 -4 8t-9 -6l-57 -90h-113z" />
    <glyph glyph-name="wcircumflex" unicode="&#x175;" horiz-adv-x="655" 
d="M84 1l-8 507h122l1 -208l-12 -110q-1 -10 6 -9.5t10 8.5l117 319h83l26 -317q1 -11 8.5 -11t9.5 12l20 109l60 207h124l-151 -507h-132l-30 260q-1 9 -7 9t-9 -9l-106 -260h-132zM216 583l113 167h133l68 -167h-107l-23 59l-1 29q0 7 -4 8t-9 -6l-57 -90h-113z" />
    <glyph glyph-name="Ycircumflex" unicode="&#x176;" horiz-adv-x="502" 
d="M144 0l40 273l-121 427h143l44 -166l9 -119q1 -8 6.5 -8.5t10.5 8.5l144 285h145l-241 -427l-40 -273h-140zM165 768l113 167h133l68 -167h-107l-23 59l-1 29q0 7 -4 8t-9 -6l-57 -90h-113z" />
    <glyph glyph-name="ycircumflex" unicode="&#x177;" horiz-adv-x="480" 
d="M7 -216l-25 112q53 9 90.5 28t53.5 60l10 25l-94 499h134l37 -193l3 -119q0 -8 6.5 -8t10.5 8l117 312h136l-223 -514q-44 -103 -109.5 -152.5t-146.5 -57.5zM121 583l113 167h133l68 -167h-107l-23 59l-1 29q0 7 -4 8t-9 -6l-57 -90h-113z" />
    <glyph glyph-name="Ydieresis" unicode="&#x178;" horiz-adv-x="502" 
d="M144 0l40 273l-121 427h143l44 -166l9 -119q1 -8 6.5 -8.5t10.5 8.5l144 285h145l-241 -427l-40 -273h-140zM364 768l17 117h121l-17 -117h-121zM168 768l17 117h121l-17 -117h-121z" />
    <glyph glyph-name="Zacute" unicode="&#x179;" horiz-adv-x="530" 
d="M3 0l11 86l278 396l79 89q5 5 3 9.5t-7 4.5h-153l-9 -70h-127l26 185h449l-11 -86l-275 -390l-74 -84q-4 -5 -3 -10t6 -5h278l-18 -125h-453zM241 768l153 167h137l-153 -167h-137z" />
    <glyph glyph-name="zacute" unicode="&#x17a;" horiz-adv-x="469" 
d="M6 0l12 98l220 251l45 38q5 5 4 9t-7 4h-218l15 108h378l-11 -97l-217 -248l-50 -43q-4 -4 -2.5 -8t6.5 -4h218l-15 -108h-378zM184 583l153 167h137l-153 -167h-137z" />
    <glyph glyph-name="Zdotaccent" unicode="&#x17b;" horiz-adv-x="530" 
d="M3 0l11 86l278 396l79 89q5 5 3 9.5t-7 4.5h-153l-9 -70h-127l26 185h449l-11 -86l-275 -390l-74 -84q-4 -5 -3 -10t6 -5h278l-18 -125h-453zM267 768l17 117h133l-17 -117h-133z" />
    <glyph glyph-name="zdotaccent" unicode="&#x17c;" horiz-adv-x="469" 
d="M6 0l12 98l220 251l45 38q5 5 4 9t-7 4h-218l15 108h378l-11 -97l-217 -248l-50 -43q-4 -4 -2.5 -8t6.5 -4h218l-15 -108h-378zM211 583l17 117h133l-17 -117h-133z" />
    <glyph glyph-name="Zcaron" unicode="&#x17d;" horiz-adv-x="530" 
d="M3 0l11 86l278 396l79 89q5 5 3 9.5t-7 4.5h-153l-9 -70h-127l26 185h449l-11 -86l-275 -390l-74 -84q-4 -5 -3 -10t6 -5h278l-18 -125h-453zM270 768l-68 167h106l21 -54l2 -36q0 -6 5 -6.5t9 6.5l59 90h112l-115 -167h-131z" />
    <glyph glyph-name="zcaron" unicode="&#x17e;" horiz-adv-x="469" 
d="M6 0l12 98l220 251l45 38q5 5 4 9t-7 4h-218l15 108h378l-11 -97l-217 -248l-50 -43q-4 -4 -2.5 -8t6.5 -4h218l-15 -108h-378zM213 583l-68 167h106l21 -54l2 -36q0 -6 5 -6.5t9 6.5l59 90h112l-115 -167h-131z" />
    <glyph glyph-name="uni01B7" unicode="&#x1b7;" horiz-adv-x="523" 
d="M211 -9q-70 0 -123 17.5t-99 58.5l54 108q36 -35 73.5 -48.5t90.5 -13.5q64 0 102 31.5t38 86.5q-1 35 -27.5 57t-90.5 22h-98l10 79l120 135l58 46q7 4 5 9.5t-9 5.5h-234l17 115h410l-11 -86l-241 -238l-16 43q74 5 128 -15.5t83 -64t28 -106.5q0 -58 -23 -103t-61 -76
t-86 -47t-98 -16z" />
    <glyph glyph-name="uni01CD" unicode="&#x1cd;" 
d="M-16 0l275 700h195l89 -700h-139l-48 431l-1 139q0 9 -7 10t-9 -7l-213 -573h-142zM167 168l45 116h183l11 -116h-239zM136 584l17 116h125l-30 -116h-112zM311 768l-68 167h106l21 -54l2 -36q0 -6 5 -6.5t9 6.5l59 90h112l-115 -167h-131z" />
    <glyph glyph-name="uni01CE" unicode="&#x1ce;" horiz-adv-x="550" 
d="M206 -9q-29 0 -59.5 8.5t-56 29t-41.5 55.5t-16 87q0 56 11 111.5t34 101.5q35 65 91 99.5t128 34.5q12 0 24 -0.5t28 -2.5l37 -12q6 -2 16 -1l90 10l-52 -383l61 -30l-57 -109l-102 50q-9 4 -14 -2l-17 -19q-25 -10 -41.5 -16.5t-31 -9t-32.5 -2.5zM226 107q10 0 20.5 3
t26 10.5t40.5 21.5l36 261q-28 5 -51 5q-37 0 -67 -17t-45 -50q-16 -33 -23 -72.5t-7 -87.5q0 -39 20 -56.5t50 -17.5zM266 583l-68 167h106l21 -54l2 -36q0 -6 5 -6.5t9 6.5l59 90h112l-115 -167h-131z" />
    <glyph glyph-name="uni01E4" unicode="&#x1e4;" horiz-adv-x="598" 
d="M288 -12q-74 -1 -127.5 27.5t-81.5 78.5t-28 114q0 36 5 87t14 104t20 97q23 86 65 133t101.5 65t130.5 18q58 0 105 -17t82 -47l-55 -106q-27 22 -61.5 33.5t-74.5 11.5q-44 0 -75.5 -11t-53.5 -39.5t-34 -79.5q-9 -38 -17.5 -83t-13 -88.5t-4.5 -77.5q0 -41 26.5 -68
t73.5 -27q25 0 48.5 3.5t42.5 9.5l47 286h118l-52 -371q-36 -23 -84.5 -37.5t-116.5 -15.5zM319 201l18 125h254l-17 -125h-255z" />
    <glyph glyph-name="uni01E5" unicode="&#x1e5;" horiz-adv-x="558" 
d="M169 -212q-61 0 -107 15.5t-81 42.5l38 99q34 -25 67.5 -36t77.5 -11q45 0 70.5 10t37.5 26t15 35l13 92q2 9 -2.5 12t-12.5 0l-63 -24q-3 0 -7 -0.5t-8 -0.5q-30 1 -59.5 8.5t-54 26t-39 50.5t-14.5 80q0 22 3 51t11 60.5t23 59.5q35 65 91 99.5t128 34.5q24 0 52 -3
l37 -12q6 -2 16 -1l90 10l-75 -542q-7 -57 -42 -97.5t-88 -62.5t-117 -22zM146 -66l10 88h365l-10 -88h-365zM230 165q18 0 38.5 7.5t51.5 27.5l29 203q-15 3 -26.5 4t-24.5 1q-37 0 -67 -16.5t-46 -50.5q-13 -27 -18 -59t-5 -53q0 -28 11 -42t26.5 -18t30.5 -4z" />
    <glyph glyph-name="Gcaron" unicode="&#x1e6;" horiz-adv-x="598" 
d="M288 -12q-74 0 -127.5 28.5t-81.5 78t-28 113.5q0 36 5 87t14 104t20 97q23 86 65 133t101.5 65t130.5 18q58 0 105 -17t82 -47l-55 -106q-27 22 -61.5 33.5t-74.5 11.5q-44 0 -75.5 -11t-53.5 -39.5t-34 -79.5q-9 -38 -17.5 -83t-13 -88.5t-4.5 -77.5q0 -41 26.5 -68
t73.5 -27q25 0 48.5 3.5t42.5 9.5l26 162h-71l17 124h255l-17 -124h-65l-32 -247q-36 -23 -84.5 -38t-116.5 -15zM328 768l-68 167h106l21 -54l2 -36q0 -6 5 -6.5t9 6.5l59 90h112l-115 -167h-131z" />
    <glyph glyph-name="gcaron" unicode="&#x1e7;" horiz-adv-x="522" 
d="M170 -207q-61 0 -107 15.5t-81 41.5l38 99q34 -25 67.5 -36t76.5 -11q52 0 85.5 22.5t40.5 58.5l4 21q2 8 -3 11t-13 1l-63 -24q-5 -1 -10.5 -1h-11.5q-29 1 -57.5 10.5t-51.5 29.5t-37 54t-14 86q0 36 5 74t14.5 74.5t25.5 64.5q35 65 91 99.5t128 34.5q23 0 52 -3
l37 -12q6 -2 16 -1l90 10l-67 -475q-10 -72 -35 -119t-59 -74.5t-75.5 -39t-85.5 -11.5zM223 107q19 0 39 8t52 27l35 261q-14 3 -25.5 4t-25.5 1q-36 0 -66 -16.5t-46 -50.5q-17 -35 -23.5 -73t-6.5 -81q0 -35 10.5 -52t26 -22.5t30.5 -5.5zM252 583l-68 167h106l21 -54
l2 -36q0 -6 5 -6.5t9 6.5l59 90h112l-115 -167h-131z" />
    <glyph glyph-name="uni01E8" unicode="&#x1e8;" horiz-adv-x="574" 
d="M39 0l99 700h138l-41 -292h54l174 292h152l-209 -343l105 -357h-145l-83 292h-65l-41 -292h-138zM297 768l-68 167h106l21 -54l2 -36q0 -6 5 -6.5t9 6.5l59 90h112l-115 -167h-131z" />
    <glyph glyph-name="uni01E9" unicode="&#x1e9;" horiz-adv-x="515" 
d="M35 0l106 750h130l-58 -408h45l107 166h147l-142 -214l79 -294h-140l-51 227h-61l-32 -227h-130zM287 768l-68 167h106l21 -54l2 -36q0 -6 5 -6.5t9 6.5l59 90h112l-115 -167h-131z" />
    <glyph glyph-name="uni01EE" unicode="&#x1ee;" horiz-adv-x="523" 
d="M211 -9q-70 0 -123 17.5t-99 58.5l54 108q36 -35 73.5 -48.5t90.5 -13.5q64 0 102 31.5t38 86.5q-1 35 -27.5 57t-90.5 22h-98l10 79l120 135l58 46q7 4 5 9.5t-9 5.5h-234l17 115h410l-11 -86l-241 -238l-16 43q74 5 128 -15.5t83 -64t28 -106.5q0 -58 -23 -103t-61 -76
t-86 -47t-98 -16zM257 768l-68 167h106l21 -54l2 -36q0 -6 5 -6.5t9 6.5l59 90h112l-115 -167h-131z" />
    <glyph glyph-name="uni01EF" unicode="&#x1ef;" horiz-adv-x="505" 
d="M131 -259q-63 0 -110 17.5t-87 58.5l52 100q31 -30 66 -42t75 -12q47 0 85 20t61 55.5t23 82.5q2 43 -25.5 69.5t-95.5 26.5h-90l10 80l131 147l48 31q7 5 5 11t-8 6h-236l16 116h410l-11 -86l-235 -238l-16 51q38 3 78 -9t75 -37t56 -62.5t21 -87.5q0 -87 -38.5 -154
t-106 -105.5t-153.5 -38.5zM222 583l-68 167h106l21 -54l2 -36q0 -6 5 -6.5t9 6.5l59 90h112l-115 -167h-131z" />
    <glyph glyph-name="uni0218" unicode="&#x218;" horiz-adv-x="511" 
d="M208 -10q-67 0 -118 17.5t-92 47.5l42 112q43 -28 83 -41t89 -13q38 0 66.5 14.5t44.5 38.5t16 53q0 25 -15 45t-50 30l-33 9q-44 13 -82 38t-61 63.5t-23 91.5q0 63 32.5 111.5t89.5 76.5t131 28q63 0 110 -17t77 -39l-39 -107q-33 21 -69 30.5t-71 9.5
q-45 0 -73.5 -13.5t-41.5 -34.5t-13 -42q0 -23 13.5 -39t43.5 -25l29 -8q86 -25 131.5 -75t46.5 -129q1 -73 -34 -125t-95 -80t-135 -28zM124 -331l-80 61q39 27 62.5 55.5t36.5 63.5t19 82l111 -7q-8 -59 -24 -104t-45.5 -81t-79.5 -70z" />
    <glyph glyph-name="uni0219" unicode="&#x219;" horiz-adv-x="463" 
d="M198 -12q-54 0 -100 15.5t-82 42.5l38 98q35 -25 69.5 -35.5t78.5 -10.5q41 0 64 15.5t23 38.5q0 18 -10.5 30t-37.5 20l-39 11q-68 19 -101 53.5t-33 84.5q0 56 26 93.5t73 56.5t108 19q51 0 91.5 -14.5t65.5 -32.5l-38 -97q-26 17 -56.5 26t-71.5 9q-39 0 -59.5 -13
t-20.5 -32q0 -15 8.5 -24.5t27.5 -15.5l37 -11q71 -22 108.5 -54.5t37.5 -93.5q1 -61 -25.5 -100.5t-73.5 -59t-108 -19.5zM117 -331l-80 61q39 27 62.5 55.5t36.5 63.5t19 82l111 -7q-8 -59 -24 -104t-45.5 -81t-79.5 -70z" />
    <glyph glyph-name="uni021A" unicode="&#x21a;" horiz-adv-x="505" 
d="M146 0l81 575h-159l17 125h460l-18 -125h-159l-81 -575h-141zM134 -331l-80 61q39 27 62.5 55.5t36.5 63.5t19 82l111 -7q-8 -59 -24 -104t-45.5 -81t-79.5 -70z" />
    <glyph glyph-name="uni021B" unicode="&#x21b;" horiz-adv-x="404" 
d="M182 1q-52 0 -81.5 33.5t-22.5 86.5l39 276h-90l16 111h89q5 0 9 2.5t8.5 11t9.5 23.5l35 100h89l-21 -137h121l-17 -111h-121l-36 -257q-2 -14 3.5 -19.5t17.5 -5.5h85l-16 -114h-117zM73 -331l-80 61q39 27 62.5 55.5t36.5 63.5t19 82l111 -7q-8 -59 -24 -104
t-45.5 -81t-79.5 -70z" />
    <glyph glyph-name="uni0237" unicode="&#x237;" horiz-adv-x="319" 
d="M-17 -222l-23 116q46 12 78.5 39.5t39.5 77.5l55 387h-85l15 110h218l-70 -500q-11 -76 -46.5 -124.5t-84 -73.5t-97.5 -32z" />
    <glyph glyph-name="uni0292" unicode="&#x292;" horiz-adv-x="505" 
d="M131 -259q-63 0 -110 17.5t-87 58.5l52 100q31 -30 66 -42t75 -12q47 0 85 20t61 55.5t23 82.5q2 43 -25.5 69.5t-95.5 26.5h-90l10 80l131 147l48 31q7 5 5 11t-8 6h-236l16 116h410l-11 -86l-235 -238l-16 51q38 3 78 -9t75 -37t56 -62.5t21 -87.5q0 -87 -38.5 -154
t-106 -105.5t-153.5 -38.5z" />
    <glyph glyph-name="uni02B9" unicode="&#x2b9;" horiz-adv-x="171" 
d="M33 400l129 350h148l-204 -350h-73z" />
    <glyph glyph-name="uni02BC" unicode="&#x2bc;" horiz-adv-x="312" 
d="M42 412l16 70q56 8 92 45t43 93l-80 -4l19 134h157l-14 -106q-11 -79 -45.5 -128.5t-83.5 -74t-104 -29.5z" />
    <glyph glyph-name="circumflex" unicode="&#x2c6;" horiz-adv-x="414" 
d="M93 583l113 167h133l68 -167h-107l-23 59l-1 29q0 7 -4 8t-9 -6l-57 -90h-113z" />
    <glyph glyph-name="caron" unicode="&#x2c7;" horiz-adv-x="414" 
d="M189 583l-68 167h106l21 -54l2 -36q0 -6 5 -6.5t9 6.5l59 90h112l-115 -167h-131z" />
    <glyph glyph-name="uni02C8" unicode="&#x2c8;" horiz-adv-x="178" 
d="M53 400l49 350h119l-50 -350h-118z" />
    <glyph glyph-name="breve" unicode="&#x2d8;" horiz-adv-x="466" 
d="M288 596q-76 0 -114 34.5t-49 92.5l92 16q6 -29 23.5 -43t45.5 -14q34 0 59.5 17.5t38.5 46.5l89 -30q-26 -58 -70.5 -89t-114.5 -31z" />
    <glyph glyph-name="dotaccent" unicode="&#x2d9;" horiz-adv-x="248" 
d="M96 583l17 117h133l-17 -117h-133z" />
    <glyph glyph-name="ring" unicode="&#x2da;" horiz-adv-x="421" 
d="M252 563q-48 0 -82 13.5t-49.5 40.5t-10.5 66q5 35 26.5 57.5t56 33.5t78.5 11q48 0 81 -13t49 -39t10 -66q-5 -35 -26 -58t-55 -34.5t-78 -11.5zM255 631q28 0 46.5 10.5t20.5 33.5q4 23 -11.5 32.5t-45.5 9.5q-28 0 -45.5 -10t-20.5 -33q-3 -22 12 -32.5t44 -10.5z" />
    <glyph glyph-name="ogonek" unicode="&#x2db;" horiz-adv-x="378" 
d="M186 -261q-62 2 -108 19.5t-68.5 54t-14.5 93.5q6 42 31 72.5t69 48.5l95 -29q-39 -19 -59.5 -41t-25.5 -56q-4 -36 23 -50t80 -17z" />
    <glyph glyph-name="tilde" unicode="&#x2dc;" horiz-adv-x="445" 
d="M132 568l-28 88q24 24 49.5 33.5t53.5 9.5q39 0 59.5 -9t37 -17.5t38.5 -8.5q24 0 43 11t36 28l27 -88q-23 -23 -48.5 -33t-53.5 -10q-38 0 -59.5 9t-37 18t-37.5 9q-24 0 -43.5 -11t-36.5 -29z" />
    <glyph glyph-name="hungarumlaut" unicode="&#x2dd;" horiz-adv-x="608" 
d="M95 583l153 167h137l-153 -167h-137zM304 583l153 167h137l-153 -167h-137z" />
    <glyph glyph-name="gravecomb" unicode="&#x300;" horiz-adv-x="0" 
d="M228 583l-107 167h131l107 -167h-131z" />
    <glyph glyph-name="acutecomb" unicode="&#x301;" horiz-adv-x="0" 
d="M95 583l153 167h137l-153 -167h-137z" />
    <glyph glyph-name="uni0302" unicode="&#x302;" horiz-adv-x="0" 
d="M95 583l113 167h133l68 -167h-107l-23 59l-1 29q0 7 -4 8t-9 -6l-57 -90h-113z" />
    <glyph glyph-name="tildecomb" unicode="&#x303;" horiz-adv-x="0" 
d="M132 568l-28 88q24 24 49.5 33.5t53.5 9.5q39 0 59.5 -9t37 -17.5t38.5 -8.5q24 0 43 11t36 28l27 -88q-23 -23 -48.5 -33t-53.5 -10q-38 0 -59.5 9t-37 18t-37.5 9q-24 0 -43.5 -11t-36.5 -29z" />
    <glyph glyph-name="uni0304" unicode="&#x304;" horiz-adv-x="0" 
d="M96 584l15 101h288l-14 -101h-289z" />
    <glyph glyph-name="uni0306" unicode="&#x306;" horiz-adv-x="0" 
d="M288 596q-76 0 -114 34.5t-49 92.5l92 16q6 -29 23.5 -43t45.5 -14q34 0 59.5 17.5t38.5 46.5l89 -30q-26 -58 -70.5 -89t-114.5 -31z" />
    <glyph glyph-name="uni0307" unicode="&#x307;" horiz-adv-x="0" 
d="M96 583l17 117h133l-17 -117h-133z" />
    <glyph glyph-name="uni0308" unicode="&#x308;" horiz-adv-x="0" 
d="M292 583l17 117h121l-17 -117h-121zM96 583l17 117h121l-17 -117h-121z" />
    <glyph glyph-name="uni030A" unicode="&#x30a;" horiz-adv-x="0" 
d="M252 563q-48 0 -82 13.5t-49.5 40.5t-10.5 66q5 35 26.5 57.5t56 33.5t78.5 11q48 0 81 -13t49 -39t10 -66q-5 -35 -26 -58t-55 -34.5t-78 -11.5zM255 631q28 0 46.5 10.5t20.5 33.5q4 23 -11.5 32.5t-45.5 9.5q-28 0 -45.5 -10t-20.5 -33q-3 -22 12 -32.5t44 -10.5z" />
    <glyph glyph-name="uni030B" unicode="&#x30b;" horiz-adv-x="0" 
d="M95 583l153 167h137l-153 -167h-137zM304 583l153 167h137l-153 -167h-137z" />
    <glyph glyph-name="uni030C" unicode="&#x30c;" horiz-adv-x="0" 
d="M189 583l-68 167h106l21 -54l2 -36q0 -6 5 -6.5t9 6.5l59 90h112l-115 -167h-131z" />
    <glyph glyph-name="uni0312" unicode="&#x312;" horiz-adv-x="0" 
d="M325 898l-17 -68q-70 -4 -114.5 -43t-53.5 -98l81 4l-19 -134h-158l16 110q11 78 50 127.5t95 74t120 27.5z" />
    <glyph glyph-name="uni0326" unicode="&#x326;" horiz-adv-x="0" 
d="M54 -331l-80 61q39 27 62.5 55.5t36.5 63.5t19 82l111 -7q-8 -59 -24 -104t-45.5 -81t-79.5 -70z" />
    <glyph glyph-name="uni0327" unicode="&#x327;" horiz-adv-x="0" 
d="M-19 -258l26 78q56 0 91 13.5t38 35.5q3 13 -19 16t-81 3l52 144l73 -27l-25 -51q46 -6 70.5 -32.5t19.5 -64.5q-5 -39 -38.5 -65t-86.5 -38t-120 -12z" />
    <glyph glyph-name="uni0328" unicode="&#x328;" horiz-adv-x="0" 
d="M186 -261q-62 2 -108 19.5t-68.5 54t-14.5 93.5q6 42 31 72.5t69 48.5l95 -29q-39 -19 -59.5 -41t-25.5 -56q-4 -36 23 -50t80 -17z" />
    <glyph glyph-name="uni0335" unicode="&#x335;" horiz-adv-x="0" 
d="M44 217l15 103h328l-15 -103h-328z" />
    <glyph glyph-name="uni0336" unicode="&#x336;" horiz-adv-x="0" 
d="M-31 217l15 103h801l-14 -103h-802z" />
    <glyph glyph-name="uni0337" unicode="&#x337;" horiz-adv-x="0" 
d="M2 0l458 508h119l-458 -508h-119z" />
    <glyph glyph-name="uni0338" unicode="&#x338;" horiz-adv-x="0" 
d="M2 0l632 700h119l-632 -700h-119z" />
    <glyph glyph-name="uni03BC" unicode="&#x3bc;" horiz-adv-x="554" 
d="M9 -200l97 708h130l-45 -334q-5 -35 9 -51.5t47 -16.5q11 0 23.5 3t28 11.5t37.5 20.5l50 367h130l-72 -508h-128l2 18q2 7 -3 8.5t-11 -1.5l-31 -15.5t-30 -13.5q-12 -3 -25 -4.5t-27 -1.5q-8 0 -14.5 1t-13.5 3l-26 -194h-128z" />
    <glyph glyph-name="uni0400" unicode="&#x400;" horiz-adv-x="551" 
d="M39 0l99 700h423l-18 -125h-294l-24 -166h278l-16 -118h-278l-24 -166h295l-17 -125h-424zM313 768l-107 167h131l107 -167h-131z" />
    <glyph glyph-name="uni0401" unicode="&#x401;" horiz-adv-x="551" 
d="M39 0l99 700h423l-18 -125h-294l-24 -166h278l-16 -118h-278l-24 -166h295l-17 -125h-424zM409 768l17 117h121l-17 -117h-121zM213 768l17 117h121l-17 -117h-121z" />
    <glyph glyph-name="uni0402" unicode="&#x402;" horiz-adv-x="682" 
d="M426 -9q-25 0 -46 3.5t-34 7.5l35 108q7 -2 16 -3t14 -1q32 0 56.5 16t38 41.5t13.5 54.5q0 48 -29.5 69.5t-68.5 21.5q-25 0 -51 -7.5t-48 -17.5l23 132q-1 -10 4 -13.5t16 0.5l55 22q13 3 27 4t25 1q53 0 95.5 -25t68 -68.5t25.5 -102.5q0 -67 -29 -122t-81 -88
t-125 -33zM146 0l81 575h-159l17 125h460l-18 -125h-159l-81 -575h-141z" />
    <glyph glyph-name="uni0403" unicode="&#x403;" horiz-adv-x="464" 
d="M39 0l99 700h371l-18 -125h-230l-81 -575h-141zM233 775l153 167h137l-153 -167h-137z" />
    <glyph glyph-name="uni0404" unicode="&#x404;" horiz-adv-x="504" 
d="M284 -12q-57 0 -100.5 19.5t-72.5 53t-43.5 73.5t-14.5 81q0 51 5.5 104t16.5 106.5t26 100.5q24 82 88 134t171 52q53 0 94 -16t69 -43l-41 -107q-25 22 -54 32t-71 10q-40 0 -74.5 -21.5t-50.5 -70.5q-5 -19 -12.5 -55t-14 -78t-11 -80.5t-4.5 -61.5q0 -51 27 -79.5
t75 -28.5q39 0 66.5 11.5t51.5 28.5l40 -113q-33 -25 -71.5 -38.5t-94.5 -13.5zM123 291l17 118h285l-16 -118h-286z" />
    <glyph glyph-name="uni0405" unicode="&#x405;" horiz-adv-x="511" 
d="M208 -10q-67 0 -118 17.5t-92 47.5l42 112q43 -28 83 -41t89 -13q38 0 66.5 14.5t44.5 38.5t16 53q0 25 -15 45t-50 30l-33 9q-44 13 -82 38t-61 63.5t-23 91.5q0 63 32.5 111.5t89.5 76.5t131 28q63 0 110 -17t77 -39l-39 -107q-33 21 -69 30.5t-71 9.5
q-45 0 -73.5 -13.5t-41.5 -34.5t-13 -42q0 -23 13.5 -39t43.5 -25l29 -8q86 -25 131.5 -75t46.5 -129q1 -73 -34 -125t-95 -80t-135 -28z" />
    <glyph glyph-name="uni0406" unicode="&#x406;" horiz-adv-x="438" 
d="M14 0l17 117h98l66 466h-99l17 117h338l-17 -117h-99l-65 -466h99l-17 -117h-338z" />
    <glyph glyph-name="uni0407" unicode="&#x407;" horiz-adv-x="438" 
d="M14 0l17 117h98l66 466h-99l17 117h338l-17 -117h-99l-65 -466h99l-17 -117h-338zM333 768l17 117h121l-17 -117h-121zM137 768l17 117h121l-17 -117h-121z" />
    <glyph glyph-name="uni0408" unicode="&#x408;" horiz-adv-x="471" 
d="M141 -12q-50 0 -88.5 15t-72.5 41l51 109q25 -21 52 -30.5t62 -9.5q46 0 75.5 25t37.5 77l51 368h-145l17 117h286l-71 -495q-14 -107 -83 -162t-172 -55z" />
    <glyph glyph-name="uni0409" unicode="&#x409;" horiz-adv-x="916" 
d="M16 -14l-27 119q45 9 75.5 40t43.5 85q20 83 41 199t42 271h339l-65 -125h-162q-17 -121 -33 -222t-38 -177q-23 -77 -78.5 -125t-137.5 -65zM368 0l99 700h141l-39 -272h79q113 0 172 -52t59 -148q0 -74 -28 -124.5t-79 -77t-124 -26.5h-280zM525 115h123q49 0 76 28
t27 76q0 45 -26 69.5t-77 24.5h-95z" />
    <glyph glyph-name="uni040A" unicode="&#x40a;" horiz-adv-x="932" 
d="M39 0l99 700h141l-38 -269h286l-18 -124h-286l-43 -307h-141zM383 0l99 700h141l-39 -272h80q113 0 171.5 -52t58.5 -148q0 -74 -27.5 -124.5t-79 -77t-124.5 -26.5h-280zM540 115h124q49 0 75.5 28t26.5 76q0 45 -25.5 69.5t-76.5 24.5h-96z" />
    <glyph glyph-name="uni040B" unicode="&#x40b;" horiz-adv-x="711" 
d="M480 0l29 210q7 51 -16 75t-59 24q-32 0 -60.5 -7.5t-48.5 -16.5l20 126q-1 -9 3.5 -11t12.5 1l59 24q14 3 29 4t26 1q53 0 96.5 -24.5t66 -73.5t11.5 -125l-28 -207h-141zM146 0l81 575h-159l17 125h460l-18 -125h-159l-81 -575h-141z" />
    <glyph glyph-name="uni040C" unicode="&#x40c;" horiz-adv-x="574" 
d="M39 0l99 700h138l-41 -292h54l174 292h152l-209 -343l105 -357h-145l-83 292h-65l-41 -292h-138zM268 768l153 167h137l-153 -167h-137z" />
    <glyph glyph-name="uni040D" unicode="&#x40d;" horiz-adv-x="644" 
d="M39 0l99 700h137l-48 -345l-27 -86q-1 -7 4 -9.5t9 4.5l279 436h140l-99 -700h-137l48 345l24 86q3 8 -2.5 10.5t-10.5 -4.5l-277 -437h-139zM337 768l-107 167h131l107 -167h-131z" />
    <glyph glyph-name="uni040E" unicode="&#x40e;" horiz-adv-x="532" 
d="M56 -12q-34 0 -61 10t-45 20l42 111q13 -9 28 -14t31 -5q29 0 49 14t39 41l-58 535h135l21 -313l-15 -82q-2 -15 5 -16.5t13 9.5l227 402h148l-297 -490q-53 -88 -95.5 -136t-82 -67t-84.5 -19zM368 781q-76 0 -114 34.5t-49 92.5l92 16q6 -29 23.5 -43t45.5 -14
q34 0 59.5 17.5t38.5 46.5l89 -30q-26 -58 -70.5 -89t-114.5 -31z" />
    <glyph glyph-name="uni040F" unicode="&#x40f;" horiz-adv-x="631" 
d="M193 -140l20 140h-174l99 700h141l-81 -576h199l81 576h141l-98 -700h-177l-20 -140h-131z" />
    <glyph glyph-name="uni0410" unicode="&#x410;" 
d="M-16 0l275 700h195l89 -700h-139l-48 431l-1 139q0 9 -7 10t-9 -7l-213 -573h-142zM167 168l45 116h183l11 -116h-239zM136 584l17 116h125l-30 -116h-112z" />
    <glyph glyph-name="uni0411" unicode="&#x411;" horiz-adv-x="578" 
d="M39 0l99 700h422l-17 -125h-294l-21 -147h77q113 0 171.5 -52t58.5 -148q0 -74 -27.5 -124.5t-79 -77t-124.5 -26.5h-265zM184 115h121q49 0 75.5 28t26.5 76q0 45 -26 69.5t-76 24.5h-93z" />
    <glyph glyph-name="uni0412" unicode="&#x412;" horiz-adv-x="585" 
d="M40 0l98 700h233q87 0 140 -45.5t53 -125.5q0 -58 -30.5 -104t-89.5 -68q48 -22 71.5 -65.5t23.5 -89.5q0 -71 -29.5 -115.5t-84.5 -65.5t-130 -21h-255zM184 115h117q108 0 108 100q0 37 -21 57.5t-59 20.5h-120zM225 408h110q50 0 75 30.5t25 70.5q0 34 -20 55t-56 21
h-109z" />
    <glyph glyph-name="uni0413" unicode="&#x413;" horiz-adv-x="464" 
d="M39 0l99 700h371l-18 -125h-230l-81 -575h-141z" />
    <glyph glyph-name="uni0414" unicode="&#x414;" horiz-adv-x="671" 
d="M-36 -140l38 264l33 3q32 20 59 63t42 110q15 64 33.5 164t39.5 240l422 -4l-100 -700h-416l-20 -140h-131zM201 124h212l63 451h-157q-16 -105 -30.5 -177.5t-24.5 -117.5q-5 -20 -12.5 -43.5t-14.5 -46.5l-38 -51q-6 -7 -6.5 -11t8.5 -4zM451 -140l34 231l-10 33h145
l-38 -264h-131z" />
    <glyph glyph-name="uni0415" unicode="&#x415;" horiz-adv-x="551" 
d="M39 0l99 700h423l-18 -125h-294l-24 -166h278l-16 -118h-278l-24 -166h295l-17 -125h-424z" />
    <glyph glyph-name="uni0416" unicode="&#x416;" horiz-adv-x="855" 
d="M-14 0l199 341l-95 359h144l74 -292h73l41 292h137l-41 -292h61l167 292h149l-198 -339l95 -361h-145l-74 292h-71l-41 -292h-138l41 292h-58l-169 -292h-151z" />
    <glyph glyph-name="uni0417" unicode="&#x417;" horiz-adv-x="534" 
d="M227 -9q-63 0 -119.5 18.5t-97.5 55.5l44 112q34 -30 75 -47t101 -17q58 0 92.5 24.5t34.5 74.5q0 37 -25.5 61t-85.5 24h-103l16 117h112q58 0 85.5 27t27.5 70q0 35 -23 57.5t-70 22.5q-46 0 -81.5 -10t-72.5 -32l-37 106q54 33 104.5 44.5t104.5 11.5q67 0 113.5 -23
t70 -64t23.5 -97q0 -58 -29.5 -103.5t-79.5 -68.5q22 -12 40.5 -33t30 -49t11.5 -63q0 -71 -33.5 -119.5t-93 -74t-135.5 -25.5z" />
    <glyph glyph-name="uni0418" unicode="&#x418;" horiz-adv-x="644" 
d="M39 0l99 700h137l-48 -345l-27 -86q-1 -7 4 -9.5t9 4.5l279 436h140l-99 -700h-137l48 345l24 86q3 8 -2.5 10.5t-10.5 -4.5l-277 -437h-139z" />
    <glyph glyph-name="uni0419" unicode="&#x419;" horiz-adv-x="644" 
d="M39 0l99 700h137l-48 -345l-27 -86q-1 -7 4 -9.5t9 4.5l279 436h140l-99 -700h-137l48 345l24 86q3 8 -2.5 10.5t-10.5 -4.5l-277 -437h-139zM407 781q-76 0 -114 34.5t-49 92.5l92 16q6 -29 23.5 -43t45.5 -14q34 0 59.5 17.5t38.5 46.5l89 -30q-26 -58 -70.5 -89
t-114.5 -31z" />
    <glyph glyph-name="uni041A" unicode="&#x41a;" horiz-adv-x="574" 
d="M39 0l99 700h138l-41 -292h54l174 292h152l-209 -343l105 -357h-145l-83 292h-65l-41 -292h-138z" />
    <glyph glyph-name="uni041B" unicode="&#x41b;" horiz-adv-x="630" 
d="M16 -14l-27 119q45 9 75.5 40t43.5 85q20 83 41 199t42 271h427l-99 -700h-141l81 575h-156q-17 -121 -33 -222t-38 -177q-23 -77 -78.5 -125t-137.5 -65z" />
    <glyph glyph-name="uni041C" unicode="&#x41c;" horiz-adv-x="679" 
d="M39 0l99 700h113l100 -261q3 -8 10 -7.5t12 8.5l177 260h117l-99 -700h-133l43 303l31 109q3 10 -4 12t-13 -6l-132 -180h-50l-75 181q-3 8 -10 6.5t-7 -10.5l-1 -105l-45 -310h-133z" />
    <glyph glyph-name="uni041D" unicode="&#x41d;" horiz-adv-x="635" 
d="M39 0l99 700h141l-41 -288h203l41 288h141l-99 -700h-141l41 288h-203l-41 -288h-141z" />
    <glyph glyph-name="uni041E" unicode="&#x41e;" horiz-adv-x="617" 
d="M283 -12q-78 0 -129 33t-76 85t-25 109q0 48 5.5 102.5t16.5 108.5t26 100q25 82 88.5 134t170.5 52q78 0 129.5 -33t76.5 -85t25 -109q0 -47 -5.5 -102t-16.5 -109t-26 -100q-24 -82 -88 -134t-172 -52zM292 113q42 0 73 24t46 67q9 23 16.5 59t13.5 76t9.5 77t3.5 61
q0 51 -26.5 80.5t-76.5 29.5q-42 0 -73 -23.5t-46 -67.5q-8 -22 -15.5 -59t-13.5 -78t-9.5 -77.5t-3.5 -58.5q0 -51 26.5 -80.5t75.5 -29.5z" />
    <glyph glyph-name="uni041F" unicode="&#x41f;" horiz-adv-x="631" 
d="M39 0l99 700h481l-98 -700h-141l81 576h-200l-81 -576h-141z" />
    <glyph glyph-name="uni0420" unicode="&#x420;" horiz-adv-x="573" 
d="M39 0l99 700h247q59 0 102 -23.5t67 -65t24 -96.5q0 -69 -29.5 -120t-82.5 -79t-125 -28h-122l-40 -288h-140zM236 404h112q48 0 75 29t27 76q0 32 -17.5 54t-59.5 22h-112z" />
    <glyph glyph-name="uni0421" unicode="&#x421;" horiz-adv-x="504" 
d="M284 -12q-57 0 -100.5 19.5t-72.5 53t-43.5 73.5t-14.5 81q0 51 5.5 104t16.5 106.5t26 100.5q24 82 88 134t171 52q53 0 94 -16t69 -43l-41 -107q-25 22 -54 32t-71 10q-40 0 -74.5 -21.5t-50.5 -70.5q-5 -19 -12.5 -55t-14 -78t-11 -80.5t-4.5 -61.5q0 -51 27 -79.5
t75 -28.5q39 0 66.5 11.5t51.5 28.5l40 -113q-33 -25 -71.5 -38.5t-94.5 -13.5z" />
    <glyph glyph-name="uni0422" unicode="&#x422;" horiz-adv-x="505" 
d="M146 0l81 575h-159l17 125h460l-18 -125h-159l-81 -575h-141z" />
    <glyph glyph-name="uni0423" unicode="&#x423;" horiz-adv-x="532" 
d="M56 -12q-34 0 -61 10t-45 20l42 111q13 -9 28 -14t31 -5q29 0 49 14t39 41l-58 535h135l21 -313l-15 -82q-2 -15 5 -16.5t13 9.5l227 402h148l-297 -490q-53 -88 -95.5 -136t-82 -67t-84.5 -19z" />
    <glyph glyph-name="uni0424" unicode="&#x424;" horiz-adv-x="799" 
d="M292 -10l11 76q3 17 -13 14l-64 -6q-92 18 -134.5 72t-43.5 128q0 30 2.5 60t8.5 59t12 57q20 67 75.5 118t152.5 68l67 -9q8 -1 12.5 3t5.5 10l10 70h141l-11 -70q-1 -15 13 -13l64 7q93 -17 135.5 -71.5t42.5 -128.5q1 -26 -2.5 -56.5t-8.5 -61.5t-12 -58
q-20 -67 -75 -117.5t-152 -68.5l-68 10q-7 2 -11.5 -1.5t-5.5 -11.5l-11 -79h-141zM314 172l58 363q-42 0 -74 -12.5t-53.5 -36t-34.5 -60.5q-15 -36 -21.5 -76.5t-3.5 -84.5q4 -29 17.5 -50t40.5 -32t71 -11zM455 172q42 0 74 12.5t54.5 37t33.5 59.5q15 36 21.5 76.5
t4.5 82.5q-2 31 -17.5 52t-43.5 32t-69 11z" />
    <glyph glyph-name="uni0425" unicode="&#x425;" horiz-adv-x="558" 
d="M-16 0l203 353l-88 347h141l37 -197l-2 -87q0 -8 5.5 -8.5t9.5 7.5l154 285h153l-202 -335l91 -365h-143l-40 210l-1 80q0 8 -5 8t-10 -8l-151 -290h-152z" />
    <glyph glyph-name="uni0426" unicode="&#x426;" horiz-adv-x="660" 
d="M39 0l99 700h141l-81 -576h200l81 576h141l-100 -700h-481zM440 -140l33 231l-9 33h144l-37 -264h-131z" />
    <glyph glyph-name="uni0427" unicode="&#x427;" horiz-adv-x="602" 
d="M350 0l40 279q1 8 -2.5 9t-13.5 -4l-60 -25q-13 -2 -28.5 -3t-27.5 -1q-48 0 -89 19t-65 56.5t-24 93.5q0 10 0.5 20.5t1.5 22.5l33 233h141l-33 -231q-1 -5 -1 -10.5v-10.5q0 -39 20.5 -55.5t57.5 -16.5q32 0 59.5 7t43.5 14l46 303h141l-98 -700h-142z" />
    <glyph glyph-name="uni0428" unicode="&#x428;" horiz-adv-x="905" 
d="M39 0l99 700h141l-81 -576h166l81 576h141l-81 -576h166l81 576h141l-99 -700h-755z" />
    <glyph glyph-name="uni0429" unicode="&#x429;" horiz-adv-x="934" 
d="M39 0l99 700h141l-81 -576h166l81 576h141l-81 -576h166l81 576h141l-99 -700h-755zM713 -140l34 231l-10 33h145l-38 -264h-131z" />
    <glyph glyph-name="uni042A" unicode="&#x42a;" horiz-adv-x="663" 
d="M114 0l84 592h-120l15 108h261l-39 -272h80q113 0 171.5 -52t58.5 -148q0 -74 -27.5 -124.5t-79 -77t-124.5 -26.5h-280zM271 115h124q49 0 75.5 28t26.5 76q0 45 -25.5 69.5t-76.5 24.5h-96z" />
    <glyph glyph-name="uni042B" unicode="&#x42b;" horiz-adv-x="841" 
d="M39 0l99 700h141l-39 -272h80q113 0 171.5 -52t58.5 -148q0 -74 -27.5 -124.5t-79 -77t-124.5 -26.5h-280zM196 115h124q49 0 75.5 28t26.5 76q0 45 -25.5 69.5t-76.5 24.5h-96zM589 0l99 700h141l-99 -700h-141z" />
    <glyph glyph-name="uni042C" unicode="&#x42c;" horiz-adv-x="587" 
d="M39 0l99 700h141l-39 -272h80q113 0 171.5 -52t58.5 -148q0 -74 -27.5 -124.5t-79 -77t-124.5 -26.5h-280zM196 115h124q49 0 75.5 28t26.5 76q0 45 -25.5 69.5t-76.5 24.5h-96z" />
    <glyph glyph-name="uni042D" unicode="&#x42d;" horiz-adv-x="521" 
d="M181 -12q-50 0 -97.5 13t-84.5 39l65 116q27 -18 56.5 -30.5t73.5 -12.5q49 0 82.5 25t44.5 72q9 46 17 97t13.5 100t5.5 88q0 48 -28 70t-79 22q-37 0 -67 -8t-65 -29l-17 112q45 24 90 37t102 13q69 0 113.5 -29.5t66.5 -78t22 -109.5q0 -50 -4.5 -100t-12.5 -99
t-19 -97q-16 -80 -57.5 -126t-99.5 -65.5t-121 -19.5zM123 291l16 118h286l-16 -118h-286z" />
    <glyph glyph-name="uni042E" unicode="&#x42e;" horiz-adv-x="880" 
d="M39 0l99 700h141l-41 -288h185l-17 -124h-185l-41 -288h-141zM547 -12q-78 0 -129 33t-76 85t-25 109q0 48 5.5 102.5t16.5 108.5t26 100q25 82 88.5 134t170.5 52q78 0 129 -33t76.5 -85t25.5 -109q0 -47 -5.5 -102t-16.5 -109t-26 -100q-25 -82 -88.5 -134t-171.5 -52z
M556 113q42 0 73 24t46 67q8 23 16 59t13.5 76t9 77t3.5 61q0 51 -26 80.5t-76 29.5q-42 0 -73 -23.5t-46 -67.5q-8 -22 -15.5 -59t-13.5 -78t-9.5 -77.5t-3.5 -58.5q0 -51 26.5 -80.5t75.5 -29.5z" />
    <glyph glyph-name="uni042F" unicode="&#x42f;" horiz-adv-x="604" 
d="M6 0l124 201l66 71q8 8 6.5 14t-7.5 8q-24 10 -51 31.5t-46 57t-19 85.5q-1 108 69 170t205 62h239l-99 -700h-141l38 271h-64l-171 -271h-149zM318 387h89l27 198h-79q-42 0 -73 -13t-48 -38t-17 -60q1 -43 27.5 -65t73.5 -22z" />
    <glyph glyph-name="uni0430" unicode="&#x430;" horiz-adv-x="550" 
d="M206 -9q-29 0 -59.5 8.5t-56 29t-41.5 55.5t-16 87q0 56 11 111.5t34 101.5q35 65 91 99.5t128 34.5q12 0 24 -0.5t28 -2.5l37 -12q6 -2 16 -1l90 10l-52 -383l61 -30l-57 -109l-102 50q-9 4 -14 -2l-17 -19q-25 -10 -41.5 -16.5t-31 -9t-32.5 -2.5zM226 107q10 0 20.5 3
t26 10.5t40.5 21.5l36 261q-28 5 -51 5q-37 0 -67 -17t-45 -50q-16 -33 -23 -72.5t-7 -87.5q0 -39 20 -56.5t50 -17.5z" />
    <glyph glyph-name="uni0431" unicode="&#x431;" horiz-adv-x="547" 
d="M242 -12q-96 0 -145 55t-49 159q0 33 4.5 79t13 94.5t18.5 89.5q22 86 56.5 141t90 85.5t141.5 41.5q44 7 75 14t55 23l35 -101q-28 -20 -59.5 -28.5t-71.5 -13.5q-84 -8 -134 -42t-59 -103q-1 -7 4 -9.5t10 1.5l61 39q14 4 25.5 5t19.5 1q63 0 100.5 -27.5t54.5 -69.5
t16 -86q-1 -50 -9.5 -99t-26.5 -92q-29 -69 -84.5 -113t-141.5 -44zM246 99q40 0 65 21.5t40 55.5q15 31 21.5 69t6.5 75t-17 61t-56 24q-43 0 -71 -24.5t-38 -60.5q-10 -34 -14.5 -68t-6.5 -77q-1 -33 16.5 -54.5t53.5 -21.5z" />
    <glyph glyph-name="uni0432" unicode="&#x432;" horiz-adv-x="483" 
d="M193 -9q-58 0 -97 22.5t-56 69t-8 119.5l11 85q8 63 27.5 106.5t49 71.5t69 40.5t87.5 12.5q57 0 98 -19t62.5 -51t20.5 -71q0 -36 -19.5 -63.5t-51.5 -43.5q25 -17 38 -43.5t13 -57.5q0 -56 -34 -96t-89.5 -61t-120.5 -21zM209 93q38 0 66 24t28 61q-1 20 -15 31t-41 11
h-97l13 85h90q33 0 52 14t19 44q1 23 -14.5 35.5t-39.5 12.5q-36 0 -59.5 -22.5t-30.5 -65.5l-22 -162q-4 -33 8.5 -50.5t42.5 -17.5z" />
    <glyph glyph-name="uni0433" unicode="&#x433;" horiz-adv-x="433" 
d="M186 -11q-92 0 -140 44.5t-38 120.5q4 44 25.5 73.5t60.5 48t97 29.5l56 12q25 6 40 17t15 35q0 18 -14.5 30.5t-45.5 12.5q-43 0 -76.5 -9.5t-67.5 -27.5l-29 101q44 23 85.5 33.5t92.5 10.5q81 0 131 -39.5t47 -107.5q-1 -51 -23 -84.5t-61.5 -53.5t-93.5 -31l-57 -11
q-27 -7 -42.5 -17.5t-16.5 -29.5t12 -34t45 -15q28 0 52 3.5t50.5 14t59.5 30.5l29 -101q-49 -29 -94.5 -42t-98.5 -13z" />
    <glyph glyph-name="uni0434" unicode="&#x434;" horiz-adv-x="518" 
d="M228 -12q-66 0 -109 29t-64.5 73.5t-21.5 93.5q0 27 4 58t10 62t15 57q23 70 79 114t139 44q12 0 31 -3.5t32 -9.5l21 -19q8 -5 14 -2.5t6 12.5q0 42 -18.5 71t-49.5 44t-67 15q-6 0 -19 -0.5t-28 -2.5l17 122q12 2 21 3t17 1q66 0 111.5 -21t74 -57.5t41 -80.5t12.5 -90
q0 -40 -3 -89.5t-8.5 -99.5t-13.5 -93t-17 -71q-23 -71 -80 -115.5t-146 -44.5zM237 97q36 0 61 21.5t38 56.5q7 16 12 41.5t8.5 52.5t3.5 48q0 40 -21 67t-62 27q-36 0 -60 -21.5t-37 -56.5q-5 -15 -10.5 -39.5t-8.5 -51.5t-3 -51q0 -41 19 -67.5t60 -26.5z" />
    <glyph glyph-name="uni0435" unicode="&#x435;" horiz-adv-x="497" 
d="M230 -10q-64 0 -108 25.5t-66.5 70t-22.5 100.5q0 38 5.5 72.5t14.5 64.5q16 65 48.5 108t79 65t105.5 22q56 0 94 -18.5t59.5 -50.5t27.5 -74.5t-2 -90.5l-33 -62h-300l12 92h208q12 48 -7 74t-61 26q-44 0 -73.5 -32t-42.5 -89q-4 -21 -7.5 -45t-5.5 -57
q-2 -46 22.5 -70.5t61.5 -24.5q26 0 50.5 13t47.5 43l97 -48q-40 -65 -94 -89.5t-110 -24.5z" />
    <glyph glyph-name="uni0436" unicode="&#x436;" horiz-adv-x="691" 
d="M241 0l29 201h-63l12 108h66l28 199h130l-29 -199h64l-12 -108h-66l-29 -201h-130zM-1 -11l15 112q26 8 43 27t29 47q7 16 12 41.5t8 52.5t3 48q0 32 -13 56t-39 33l15 111q55 -8 91 -37.5t53.5 -70.5t17.5 -85q0 -27 -4 -58.5t-10.5 -61.5t-15.5 -56
q-20 -67 -72.5 -110.5t-132.5 -48.5zM619 -8q-57 7 -94.5 36t-55 71t-17.5 87q0 28 3.5 59t9.5 62t15 56q22 68 76 112t137 46l-16 -110q-29 -4 -48 -24.5t-32 -51.5q-5 -15 -10.5 -39.5t-8.5 -51t-3 -50.5q0 -36 14 -61t44 -31z" />
    <glyph glyph-name="uni0437" unicode="&#x437;" horiz-adv-x="459" 
d="M184 -8q-64 0 -110.5 12.5t-88.5 44.5l49 99q22 -18 42 -27.5t44.5 -12.5t56.5 -3q43 0 72.5 14t29.5 46q0 23 -18 35t-62 12h-67l12 90h63q37 0 63.5 14t26.5 45q-1 20 -17.5 34t-58.5 14q-35 0 -71 -7t-70 -25l-28 100q47 23 91 33t90 10q68 0 110.5 -22.5t62 -56.5
t18.5 -70q0 -42 -21.5 -71t-58.5 -46q27 -10 46 -35t18 -66q0 -52 -33 -88t-84.5 -54.5t-106.5 -18.5z" />
    <glyph glyph-name="uni0438" unicode="&#x438;" horiz-adv-x="544" 
d="M181 -10q-70 0 -107.5 42t-25.5 128l48 348h130l-45 -334q-5 -35 9 -51.5t47 -16.5q11 0 23.5 3t28.5 11.5t37 20.5l50 367h130l-72 -508h-128l2 18q2 7 -3 8.5t-11 -1.5l-31 -15.5t-30 -13.5q-12 -3 -25 -4.5t-27 -1.5z" />
    <glyph glyph-name="uni0439" unicode="&#x439;" horiz-adv-x="544" 
d="M181 -10q-70 0 -107.5 42t-25.5 128l48 348h130l-45 -334q-5 -35 9 -51.5t47 -16.5q11 0 23.5 3t28.5 11.5t37 20.5l50 367h130l-72 -508h-128l2 18q2 7 -3 8.5t-11 -1.5l-31 -15.5t-30 -13.5q-12 -3 -25 -4.5t-27 -1.5zM338 596q-76 0 -114 34.5t-49 92.5l92 16
q6 -29 23.5 -43t45.5 -14q34 0 59.5 17.5t38.5 46.5l89 -30q-26 -58 -70.5 -89t-114.5 -31z" />
    <glyph glyph-name="uni043A" unicode="&#x43a;" horiz-adv-x="514" 
d="M34 0l72 508h130l-28 -199h44l130 199h140l-176 -271v53l109 -290h-142l-74 201h-46l-29 -201h-130z" />
    <glyph glyph-name="uni043B" unicode="&#x43b;" horiz-adv-x="564" 
d="M20 -13l-24 116q33 6 60 25t39 53q13 33 24 77t22 105.5t22 144.5h366l-71 -508h-133l57 398h-107q-12 -76 -26.5 -136t-28.5 -109q-22 -79 -75 -117.5t-125 -48.5z" />
    <glyph glyph-name="uni043C" unicode="&#x43c;" horiz-adv-x="664" 
d="M34 0l72 507h117l100 -233q2 -7 8.5 -4t11.5 10l166 227h121l-72 -507h-125l27 194l30 89q3 8 -3 11.5t-13 -5.5l-139 -183h-51l-81 181q-5 12 -12.5 9.5t-6.5 -13.5l3 -89l-27 -194h-126z" />
    <glyph glyph-name="uni043D" unicode="&#x43d;" horiz-adv-x="559" 
d="M34 0l72 508h132l-28 -199h154l28 199h133l-72 -508h-133l29 201h-153l-29 -201h-133z" />
    <glyph glyph-name="uni043E" unicode="&#x43e;" horiz-adv-x="517" 
d="M228 -12q-66 0 -109 29t-64.5 73.5t-21.5 93.5q0 27 4 58t10 62t15 57q23 70 79.5 114t144.5 44q68 0 111 -28t64.5 -73t21.5 -94q0 -27 -3.5 -58.5t-10 -61.5t-15.5 -56q-23 -71 -80 -115.5t-146 -44.5zM237 97q36 0 61 21.5t38 56.5q6 16 11.5 41.5t8.5 52.5t3 48
q0 40 -20.5 67t-61.5 27q-36 0 -60 -21.5t-37 -56.5q-5 -15 -10.5 -39.5t-8.5 -51.5t-3 -51q0 -41 19 -67.5t60 -26.5z" />
    <glyph glyph-name="uni043F" unicode="&#x43f;" horiz-adv-x="565" 
d="M55 0l62 448l56 -108l-136 67l55 111l106 -52q10 -5 17 2l15 17q38 22 66.5 28.5t67.5 5.5q80 -1 119.5 -50.5t26.5 -137.5l-46 -331h-130l47 336q4 33 -10.5 49t-41.5 16q-17 0 -32.5 -4.5t-34 -14.5t-43.5 -26l22 36l-56 -392h-130z" />
    <glyph glyph-name="uni0440" unicode="&#x440;" horiz-adv-x="538" 
d="M20 -200l78 578l-61 30l58 110l100 -49q9 -5 14 2l17 18q25 11 41.5 17t32 8.5t35.5 2.5q31 0 61 -8t54.5 -28.5t39.5 -55.5t15 -89q0 -55 -10.5 -111t-33.5 -102q-36 -64 -91 -99t-129 -35q-12 0 -24 1t-28 3l-12 3l-27 -196h-130zM240 99q37 0 67 18t46 50
q16 33 23 71.5t7 79.5q0 34 -9 52t-24.5 24t-35.5 6q-16 0 -35.5 -7.5t-52.5 -25.5l-37 -262q28 -6 51 -6z" />
    <glyph glyph-name="uni0441" unicode="&#x441;" horiz-adv-x="458" 
d="M229 -10q-63 0 -107 25.5t-66.5 70t-22.5 100.5q0 36 5.5 71t15.5 70q16 61 48.5 103.5t79 65t104.5 22.5q53 0 89 -11t68 -29l-38 -97q-22 12 -48 20t-56 8q-53 0 -84.5 -30.5t-46.5 -80.5q-6 -24 -9.5 -50.5t-5.5 -57.5q-1 -29 9.5 -50t29.5 -32.5t45 -11.5
q13 0 26.5 5.5t27.5 18t28 32.5l91 -48q-37 -66 -85 -90t-98 -24z" />
    <glyph glyph-name="uni0442" unicode="&#x442;" horiz-adv-x="845" 
d="M55 0l60 434l49 -89l-127 62l55 111l106 -52q10 -5 17 2l15 17q39 21 67.5 28t67.5 6q40 -1 68.5 -15t47.5 -35q8 -8 17 2l15 17q26 13 46 20t40 9.5t45 1.5q52 -1 87.5 -24.5t51 -65t7.5 -96.5l-47 -333h-130l47 337q5 32 -9.5 48t-42.5 16q-18 0 -38 -7t-46 -22.5
t-65 -42.5l61 68l-56 -397h-130l47 338q4 31 -10 47t-42 16q-20 0 -39.5 -7.5t-45 -22.5t-64.5 -39l66 98l-61 -430h-130z" />
    <glyph glyph-name="uni0443" unicode="&#x443;" horiz-adv-x="480" 
d="M7 -216l-25 112q53 9 90.5 28t53.5 60l10 25l-94 499h134l37 -193l3 -119q0 -8 6.5 -8t10.5 8l117 312h136l-223 -514q-44 -103 -109.5 -152.5t-146.5 -57.5z" />
    <glyph glyph-name="uni0444" unicode="&#x444;" horiz-adv-x="786" 
d="M266 -200l30 216q1 7 -3 9.5t-10 -0.5l-57 -31q-6 -2 -11 -2.5t-10 -0.5q-42 0 -81.5 15t-65 54t-25.5 111q0 56 11 111.5t34 101.5q33 65 87 100t124 35q23 0 40.5 -2.5t35.5 -6.5l27 198h128l-30 -216q-1 -7 3 -9.5t11 0.5l56 31q6 1 11 2t11 1q42 0 81 -17t64.5 -56
t25.5 -106q0 -57 -10.5 -113t-33.5 -102q-34 -64 -87.5 -99.5t-124.5 -35.5q-15 0 -27.5 1t-24 3.5t-24.5 5.5l-27 -198h-128zM223 107q19 0 39 8t52 27l35 261q-14 3 -25.5 4t-25.5 1q-36 0 -66 -16.5t-46 -49.5q-16 -34 -23 -73t-7 -82q0 -33 8.5 -50t24 -23.5t34.5 -6.5z
M488 99q36 0 66.5 17t45.5 50q16 34 23.5 74t7.5 90q0 27 -10 42t-25.5 21.5t-33.5 6.5q-21 0 -41 -8t-48 -26l-36 -261q15 -3 27 -4.5t24 -1.5z" />
    <glyph glyph-name="uni0445" unicode="&#x445;" horiz-adv-x="499" 
d="M-14 0l168 254l-94 254h138l37 -122l7 -69q2 -8 7 -8t10 8l113 191h141l-167 -254l93 -254h-136l-38 124l-6 62q0 9 -6.5 8.5t-11.5 -8.5l-112 -186h-143z" />
    <glyph glyph-name="uni0446" unicode="&#x446;" horiz-adv-x="572" 
d="M367 -130l30 205l-10 33h137l-33 -238h-124zM181 -10q-70 0 -107.5 42t-25.5 128l48 348h130l-45 -334q-5 -35 9 -51.5t47 -16.5q11 0 23.5 3t28.5 11.5t37 20.5l50 367h130l-72 -508h-128l2 18q2 7 -3 8.5t-11 -1.5l-31 -15.5t-30 -13.5q-12 -3 -25 -4.5t-27 -1.5z" />
    <glyph glyph-name="uni0447" unicode="&#x447;" horiz-adv-x="538" 
d="M298 0l28 192q1 8 -3.5 8.5t-13.5 -5.5l-58 -30q-9 -3 -18.5 -3.5t-18.5 -0.5q-51 0 -87 23.5t-52.5 63t-10.5 88.5l24 172h133l-23 -160q-5 -36 12.5 -54t50.5 -18t51.5 13.5t30.5 28.5l28 190h133l-71 -508h-135z" />
    <glyph glyph-name="uni0448" unicode="&#x448;" horiz-adv-x="830" 
d="M190 -10q-70 0 -107.5 42t-25.5 128l49 348h129l-45 -334q-4 -35 9.5 -51.5t46.5 -16.5q18 0 41.5 8.5t55.5 28.5l33 -85q-28 -18 -59.5 -34t-63.5 -25t-63 -9zM471 -10q-70 0 -108 42t-25 128l48 348h130l-46 -334q-4 -35 10 -51.5t46 -16.5q12 0 24.5 3t28 11.5
t37.5 20.5l50 367h130l-72 -508h-128l2 18q1 7 -3.5 8.5t-11.5 -1.5l-31 -15.5t-29 -13.5q-13 -3 -26 -4.5t-26 -1.5z" />
    <glyph glyph-name="uni0449" unicode="&#x449;" horiz-adv-x="877" 
d="M670 -140l30 205l-10 33h137l-33 -238h-124zM471 -10q-70 0 -108 42t-25 128l48 348h130l-46 -334q-4 -35 10 -51.5t46 -16.5q12 0 24.5 3t28 11.5t37.5 20.5l50 367h130l-72 -508h-128l2 18q1 7 -3.5 8.5t-11.5 -1.5l-31 -15.5t-29 -13.5q-13 -3 -26 -4.5t-26 -1.5z
M190 -10q-70 0 -107.5 42t-25.5 128l49 348h129l-45 -334q-4 -35 9.5 -51.5t46.5 -16.5q18 0 41.5 8.5t55.5 28.5l33 -85q-28 -18 -59.5 -34t-63.5 -25t-63 -9z" />
    <glyph glyph-name="uni044A" unicode="&#x44a;" horiz-adv-x="552" 
d="M25 400l16 108h245l-15 -108h-246zM269 -9q-91 0 -132.5 44t-34.5 109l51 364h133l-23 -162h71q88 0 136.5 -39t48.5 -108q0 -66 -33.5 -112.5t-90 -71t-126.5 -24.5zM281 93q46 0 75 24.5t29 71.5q0 26 -16.5 39.5t-41.5 13.5h-78l-14 -95q-2 -25 8 -39.5t38 -14.5z" />
    <glyph glyph-name="uni044B" unicode="&#x44b;" horiz-adv-x="743" 
d="M505 0l72 508h132l-71 -508h-133zM221 -9q-90 0 -131.5 44t-34.5 109l51 364h132l-22 -162h71q88 0 136.5 -39t47.5 -108q0 -66 -33.5 -112.5t-89.5 -71t-127 -24.5zM233 93q46 0 75.5 24.5t29.5 71.5q0 26 -17 39.5t-42 13.5h-78l-13 -95q-2 -25 8 -39.5t37 -14.5z" />
    <glyph glyph-name="uni044C" unicode="&#x44c;" horiz-adv-x="504" 
d="M221 -9q-90 0 -131.5 44t-34.5 109l51 364h132l-22 -162h71q88 0 136.5 -39t47.5 -108q0 -66 -33.5 -112.5t-89.5 -71t-127 -24.5zM233 93q46 0 75.5 24.5t29.5 71.5q0 26 -17 39.5t-42 13.5h-78l-13 -95q-2 -25 8 -39.5t37 -14.5z" />
    <glyph glyph-name="uni044D" unicode="&#x44d;" horiz-adv-x="457" 
d="M165 -12q-45 0 -87.5 13.5t-79.5 43.5l38 99q32 -26 62.5 -36t61.5 -10q52 0 83 27t40 68q8 33 13 64.5t5 61.5q0 41 -20.5 66.5t-71.5 25.5q-35 0 -61.5 -10t-56.5 -27l-28 101q38 22 75 33t79 11q67 0 113 -25.5t69.5 -68t23.5 -95.5q0 -41 -5.5 -83.5t-19.5 -89.5
q-21 -73 -78.5 -121t-154.5 -48zM109 207l14 100h197l-14 -100h-197z" />
    <glyph glyph-name="uni044E" unicode="&#x44e;" horiz-adv-x="742" 
d="M34 0l72 508h132l-28 -199h146l-14 -108h-146l-29 -201h-133zM454 -12q-67 0 -110 29t-64 73.5t-21 93.5q0 27 3.5 58t10 62t14.5 57q23 70 79.5 114t144.5 44q68 0 111.5 -28t65 -73t21.5 -94q0 -27 -4 -58.5t-10.5 -61.5t-15.5 -56q-23 -71 -80 -115.5t-145 -44.5z
M462 97q37 0 61.5 21.5t37.5 56.5q7 16 12 41.5t8 52.5t3 48q0 40 -20.5 67t-60.5 27q-37 0 -61 -21.5t-36 -56.5q-6 -15 -11.5 -39.5t-8.5 -51.5t-3 -51q0 -41 19.5 -67.5t59.5 -26.5z" />
    <glyph glyph-name="uni044F" unicode="&#x44f;" horiz-adv-x="538" 
d="M6 0l97 140l40 44q5 5 3.5 11.5t-6.5 7.5q-33 14 -57.5 44.5t-24.5 76.5q0 57 26.5 98t75.5 63.5t114 22.5h230l-71 -508h-129l25 181h-62l-121 -181h-140zM246 277h98l18 126h-92q-49 0 -67.5 -21t-18.5 -47q0 -20 8.5 -32.5t23 -19t30.5 -6.5z" />
    <glyph glyph-name="uni0450" unicode="&#x450;" horiz-adv-x="497" 
d="M230 -10q-64 0 -108 25.5t-66.5 70t-22.5 100.5q0 38 5.5 72.5t14.5 64.5q16 65 48.5 108t79 65t105.5 22q56 0 94 -18.5t59.5 -50.5t27.5 -74.5t-2 -90.5l-33 -62h-300l12 92h208q12 48 -7 74t-61 26q-44 0 -73.5 -32t-42.5 -89q-4 -21 -7.5 -45t-5.5 -57
q-2 -46 22.5 -70.5t61.5 -24.5q26 0 50.5 13t47.5 43l97 -48q-40 -65 -94 -89.5t-110 -24.5zM241 583l-107 167h131l107 -167h-131z" />
    <glyph glyph-name="uni0451" unicode="&#x451;" horiz-adv-x="497" 
d="M230 -10q-64 0 -108 25.5t-66.5 70t-22.5 100.5q0 38 5.5 72.5t14.5 64.5q16 65 48.5 108t79 65t105.5 22q56 0 94 -18.5t59.5 -50.5t27.5 -74.5t-2 -90.5l-33 -62h-300l12 92h208q12 48 -7 74t-61 26q-44 0 -73.5 -32t-42.5 -89q-4 -21 -7.5 -45t-5.5 -57
q-2 -46 22.5 -70.5t61.5 -24.5q26 0 50.5 13t47.5 43l97 -48q-40 -65 -94 -89.5t-110 -24.5zM338 583l17 117h121l-17 -117h-121zM142 583l17 117h121l-17 -117h-121z" />
    <glyph glyph-name="uni0452" unicode="&#x452;" horiz-adv-x="566" 
d="M240 -219l-23 116q48 11 80 35.5t39 67.5h130q-11 -72 -45.5 -118.5t-82.5 -70t-98 -30.5zM336 0l45 332q5 35 -7.5 52t-41.5 17q-15 0 -30.5 -4t-33 -12t-40.5 -22l8 105q29 20 51.5 31t44.5 15t49 4q46 0 78.5 -19t47.5 -57t7 -96l-48 -346h-130zM56 0l106 751h129
l-105 -751h-130zM54 572l13 96h348l-13 -96h-348z" />
    <glyph glyph-name="uni0453" unicode="&#x453;" horiz-adv-x="433" 
d="M186 -11q-92 0 -140 44.5t-38 120.5q4 44 25.5 73.5t60.5 48t97 29.5l56 12q25 6 40 17t15 35q0 18 -14.5 30.5t-45.5 12.5q-43 0 -76.5 -9.5t-67.5 -27.5l-29 101q44 23 85.5 33.5t92.5 10.5q81 0 131 -39.5t47 -107.5q-1 -51 -23 -84.5t-61.5 -53.5t-93.5 -31l-57 -11
q-27 -7 -42.5 -17.5t-16.5 -29.5t12 -34t45 -15q28 0 52 3.5t50.5 14t59.5 30.5l29 -101q-49 -29 -94.5 -42t-98.5 -13zM171 583l153 167h137l-153 -167h-137z" />
    <glyph glyph-name="uni0454" unicode="&#x454;" horiz-adv-x="458" 
d="M146 215l14 100h197l-14 -100h-197zM229 -10q-63 0 -107 25.5t-66.5 70t-22.5 100.5q0 36 5.5 71t15.5 70q16 61 48.5 103.5t79 65t104.5 22.5q53 0 89 -11t68 -29l-38 -97q-22 12 -48 20t-56 8q-53 0 -84.5 -30.5t-46.5 -80.5q-6 -24 -9.5 -50.5t-5.5 -57.5
q-1 -29 9.5 -50t29.5 -32.5t45 -11.5q13 0 26.5 5.5t27.5 18t28 32.5l91 -48q-37 -66 -85 -90t-98 -24z" />
    <glyph glyph-name="uni0455" unicode="&#x455;" horiz-adv-x="463" 
d="M198 -12q-54 0 -100 15.5t-82 42.5l38 98q35 -25 69.5 -35.5t78.5 -10.5q41 0 64 15.5t23 38.5q0 18 -10.5 30t-37.5 20l-39 11q-68 19 -101 53.5t-33 84.5q0 56 26 93.5t73 56.5t108 19q51 0 91.5 -14.5t65.5 -32.5l-38 -97q-26 17 -56.5 26t-71.5 9q-39 0 -59.5 -13
t-20.5 -32q0 -15 8.5 -24.5t27.5 -15.5l37 -11q71 -22 108.5 -54.5t37.5 -93.5q1 -61 -25.5 -100.5t-73.5 -59t-108 -19.5z" />
    <glyph glyph-name="uni0456" unicode="&#x456;" horiz-adv-x="304" 
d="M62 0l55 397h-85l16 111h218l-71 -508h-133zM144 583l17 117h132l-17 -117h-132z" />
    <glyph glyph-name="uni0457" unicode="&#x457;" horiz-adv-x="320" 
d="M220 583l17 117h110l-16 -117h-111zM61 583l17 117h110l-16 -117h-111zM77 0l55 397h-85l16 111h218l-72 -508h-132z" />
    <glyph glyph-name="uni0458" unicode="&#x458;" horiz-adv-x="319" 
d="M-17 -222l-23 116q46 12 78.5 39.5t39.5 77.5l55 387h-85l15 110h218l-70 -500q-11 -76 -46.5 -124.5t-84 -73.5t-97.5 -32zM158 583l17 117h132l-17 -117h-132z" />
    <glyph glyph-name="uni0459" unicode="&#x459;" horiz-adv-x="795" 
d="M20 -13l-24 116q33 6 60 25t39 53q13 33 24.5 77t22.5 105.5t22 144.5h366l-148 -110h-107q-12 -76 -26.5 -136t-28.5 -109q-22 -79 -75 -117.5t-125 -48.5zM512 -9q-90 0 -131.5 44t-34.5 109l51 364h133l-23 -162h71q88 0 136.5 -39t47.5 -108q0 -66 -33.5 -112.5
t-89.5 -71t-127 -24.5zM524 93q46 0 75.5 24.5t29.5 71.5q0 26 -16.5 39.5t-42.5 13.5h-78l-13 -95q-2 -25 8 -39.5t37 -14.5z" />
    <glyph glyph-name="uni045A" unicode="&#x45a;" horiz-adv-x="791" 
d="M507 -9q-90 0 -132.5 44t-33.5 109l51 364h132l-50 -361q-4 -27 8.5 -40.5t41.5 -13.5q43 0 72 26t29 61q0 22 -16.5 33.5t-46.5 11.5h-95l16 107h87q90 0 139 -36t48 -102q0 -62 -34 -108t-90 -70.5t-126 -24.5zM34 0l72 508h132l-24 -176h188l-15 -108h-188l-32 -224
h-133z" />
    <glyph glyph-name="uni045B" unicode="&#x45b;" horiz-adv-x="555" 
d="M43 572l13 96h347l-13 -96h-347zM324 0l46 332q5 35 -7.5 52t-41.5 17q-16 0 -31.5 -4t-33 -12t-40.5 -22l8 105q29 20 51.5 31t44.5 15t49 4q46 0 78.5 -19t48 -57t6.5 -96l-48 -346h-130zM44 0l106 751h130l-106 -751h-130z" />
    <glyph glyph-name="uni045C" unicode="&#x45c;" horiz-adv-x="514" 
d="M34 0l72 508h130l-28 -199h44l130 199h140l-176 -271v53l109 -290h-142l-74 201h-46l-29 -201h-130zM209 583l153 167h137l-153 -167h-137z" />
    <glyph glyph-name="uni045D" unicode="&#x45d;" horiz-adv-x="544" 
d="M181 -10q-70 0 -107.5 42t-25.5 128l48 348h130l-45 -334q-5 -35 9 -51.5t47 -16.5q11 0 23.5 3t28.5 11.5t37 20.5l50 367h130l-72 -508h-128l2 18q2 7 -3 8.5t-11 -1.5l-31 -15.5t-30 -13.5q-12 -3 -25 -4.5t-27 -1.5zM268 583l-107 167h131l107 -167h-131z" />
    <glyph glyph-name="uni045E" unicode="&#x45e;" horiz-adv-x="480" 
d="M7 -216l-25 112q53 9 90.5 28t53.5 60l10 25l-94 499h134l37 -193l3 -119q0 -8 6.5 -8t10.5 8l117 312h136l-223 -514q-44 -103 -109.5 -152.5t-146.5 -57.5zM303 596q-76 0 -114 34.5t-49 92.5l92 16q6 -29 23.5 -43t45.5 -14q34 0 59.5 17.5t38.5 46.5l89 -30
q-26 -58 -70.5 -89t-114.5 -31z" />
    <glyph glyph-name="uni045F" unicode="&#x45f;" horiz-adv-x="550" 
d="M160 -196l35 167h113l-25 -167h-123zM190 -10q-70 0 -107.5 42t-25.5 128l49 348h129l-45 -334q-4 -35 9.5 -51.5t46.5 -16.5q12 0 24.5 3t28 11.5t36.5 20.5l51 367h129l-71 -508h-129l3 18q1 7 -4 8.5t-11 -1.5l-31 -15.5t-29 -13.5q-13 -3 -26 -4.5t-27 -1.5z" />
    <glyph glyph-name="uni0460" unicode="&#x460;" horiz-adv-x="823" 
d="M521 -12q-33 0 -67.5 13t-62.5 42.5t-41.5 79t-3.5 123.5l33 234h127l-34 -239q-5 -39 -6 -68.5t10.5 -46t43.5 -16.5q31 0 54.5 24.5t38.5 66.5t24 94.5t13 109t4 109.5q1 49 -2 95.5t-9 90.5h134q5 -32 10 -79t4 -107q-1 -80 -9 -157t-25.5 -144t-48 -117.5t-76.5 -79
t-111 -28.5zM253 -12q-39 0 -74.5 11t-62.5 38t-42.5 74.5t-14.5 120.5q1 56 9.5 117t23 123t34 120t42.5 108h137q-31 -77 -56.5 -161.5t-40 -168.5t-14.5 -162q0 -59 17 -78.5t45 -19.5q32 0 49.5 17t26.5 48t14 71l94 -121q-24 -56 -56.5 -86t-66.5 -40.5t-64 -10.5z
M281 391l16 117h296l-16 -117h-210h-86z" />
    <glyph glyph-name="uni0461" unicode="&#x461;" horiz-adv-x="735" 
d="M214 -12q-25 0 -53 6.5t-54 24t-45.5 49t-26.5 81t3 121.5q4 24 12 57t19.5 67.5t25.5 65t29 48.5h136q-15 -20 -30.5 -50.5t-29 -65.5t-22.5 -69t-13 -61q-8 -55 -6.5 -87.5t10.5 -48t21.5 -19.5t25.5 -4q29 0 45 18t24.5 49t14.5 67l38 271h131l-39 -277
q-5 -29 -7 -58.5t6 -49.5t34 -20q16 0 32.5 5.5t31 22.5t27.5 52.5t21 94.5q5 31 4.5 75.5t-6.5 87t-20 67.5h118q10 -19 16.5 -50.5t10.5 -68t4 -72.5t-4 -63q-12 -86 -39.5 -139t-62.5 -80.5t-71 -37t-65 -9.5q-41 0 -70.5 12t-49.5 32q-24 -21 -55 -32.5t-71 -11.5z" />
    <glyph glyph-name="uni0462" unicode="&#x462;" horiz-adv-x="602" 
d="M41 524l14 103h396l-15 -103h-395zM54 0l99 700h141l-39 -272h80q113 0 171.5 -52t58.5 -148q0 -74 -27.5 -124.5t-79 -77t-124.5 -26.5h-280zM211 115h124q48 0 75 28t27 76q0 45 -26 69.5t-76 24.5h-96z" />
    <glyph glyph-name="uni0463" unicode="&#x463;" horiz-adv-x="712" 
d="M448 -9q-80 0 -117 44t-30 109l28 199q3 28 -7.5 43t-31.5 15q-14 0 -28 -6.5t-34 -22.5l-53 -372h-130l51 373l-69 34l55 111l106 -52q10 -5 17 2l15 17q28 19 51.5 26.5t60.5 7.5q70 0 104 -46.5t24 -113.5l-3 -27h53q82 0 125 -36.5t43 -102.5q0 -60 -30.5 -105.5
t-82.5 -71t-117 -25.5zM465 93q36 0 58 26.5t22 61.5q0 21 -10.5 34t-31.5 13h-60l-11 -81q-2 -27 6 -40.5t27 -13.5z" />
    <glyph glyph-name="uni0464" unicode="&#x464;" horiz-adv-x="787" 
d="M39 0l99 700h141l-42 -291h171l-16 -118h-171l-41 -291h-141zM568 -12q-57 0 -100.5 19.5t-73 53t-44 73.5t-14.5 81q0 51 6 104t17 106.5t26 100.5q24 82 88 134t170 52q54 0 94.5 -16t69.5 -43l-41 -107q-25 22 -54.5 32t-70.5 10t-75 -21.5t-50 -70.5
q-6 -19 -13.5 -55t-13.5 -78t-10.5 -80.5t-4.5 -61.5q0 -51 26.5 -79.5t75.5 -28.5q38 0 66 11.5t52 28.5l40 -113q-34 -25 -72.5 -38.5t-93.5 -13.5zM407 291l16 118h286l-17 -118h-285z" />
    <glyph glyph-name="uni0465" unicode="&#x465;" horiz-adv-x="663" 
d="M34 0l72 508h132l-28 -203h78l-14 -100h-78l-29 -205h-133zM435 -10q-63 0 -107 25.5t-66.5 70t-22.5 100.5q0 36 5.5 71t15.5 70q16 61 49 103.5t79 65t104 22.5q53 0 88.5 -11t68.5 -29l-39 -97q-21 12 -47 20t-56 8q-54 0 -85.5 -30.5t-45.5 -80.5q-6 -24 -9.5 -50.5
t-5.5 -57.5q-1 -29 9.5 -50t29.5 -32.5t44 -11.5q14 0 27.5 5.5t27.5 18t28 32.5l90 -48q-36 -66 -84.5 -90t-97.5 -24zM352 215l14 100h197l-15 -100h-196z" />
    <glyph glyph-name="uni0466" unicode="&#x466;" horiz-adv-x="674" 
d="M-24 0l328 700h192l130 -700h-142l-74 486l-3 95q0 8 -7.5 9.5t-12.5 -9.5l-265 -581h-146zM243 0l28 190l-48 73l63 118l59 -90l101 102l30 -117l-77 -86l-29 -190h-127z" />
    <glyph glyph-name="uni0467" unicode="&#x467;" horiz-adv-x="538" 
d="M-51 0l272 508h166l128 -508h-122l-81 321l-6 82q-1 8 -7.5 8.5t-9.5 -6.5l-212 -405h-128zM171 0l18 123l-66 58l47 112l75 -72q12 -11 26 -1l103 73l18 -112l-80 -58l-18 -123h-123z" />
    <glyph glyph-name="uni0468" unicode="&#x468;" horiz-adv-x="958" 
d="M39 0l99 700h141l-42 -291h271l-16 -118h-271l-41 -291h-141zM260 0l328 700h192l129 -700h-142l-73 486l-3 95q0 8 -8 9.5t-12 -9.5l-265 -581h-146zM526 0l29 190l-49 73l63 118l60 -90l101 102l29 -117l-77 -86l-28 -190h-128z" />
    <glyph glyph-name="uni0469" unicode="&#x469;" horiz-adv-x="808" 
d="M34 0l72 508h132l-28 -203h185l-15 -100h-184l-29 -205h-133zM219 0l272 508h166l128 -508h-122l-82 321l-6 82q0 8 -6.5 8.5t-10.5 -6.5l-212 -405h-127zM441 0l18 123l-66 58l47 112l75 -72q12 -11 25 -1l103 73l19 -112l-80 -58l-19 -123h-122z" />
    <glyph glyph-name="uni046A" unicode="&#x46a;" horiz-adv-x="784" 
d="M-19 0l66 179q21 54 41.5 92.5t47.5 65t64 42.5l48 7q10 2 11.5 8.5t-4.5 14.5l-138 205l11 86h654l-11 -86l-197 -211q-7 -7 -6 -13.5t11 -8.5l35 -5q50 -24 70.5 -75t27.5 -131l18 -170h-140l-15 180q-5 54 -27 83.5t-77 29.5l-44 -293h-141l44 293q-55 0 -88 -33
t-53 -87l-65 -173h-143zM392 403h39l101 128l44 37q6 5 4.5 11t-9.5 6h-277q-10 0 -11.5 -6.5t3.5 -11.5l40 -38z" />
    <glyph glyph-name="uni046B" unicode="&#x46b;" horiz-adv-x="587" 
d="M-31 0q17 40 34 85.5t37.5 86t46.5 68t61 31.5q9 1 11.5 4.5t-0.5 9.5l-86 173l6 50h503l-6 -50l-131 -178q-9 -12 2 -15q31 -6 48.5 -33t27 -66t14.5 -82.5t11 -83.5h-121q-3 41 -6.5 78.5t-11 68t-21.5 48t-40 17.5l-33 -212h-112l33 212q-26 0 -46 -17.5t-36.5 -48
t-31 -68t-29.5 -78.5h-124zM257 313h90l34 49l43 33q4 4 4 8t-6 4h-218q-4 0 -6.5 -3.5t1.5 -6.5l35 -34z" />
    <glyph glyph-name="uni046C" unicode="&#x46c;" horiz-adv-x="1071" 
d="M39 0l99 700h141l-42 -291h336l-16 -118h-336l-41 -291h-141zM267 0l67 179q20 54 41 92.5t47.5 65t63.5 42.5l48 7q11 2 12 8.5t-4 14.5l-139 205l12 86h654l-12 -86l-196 -211q-7 -7 -6 -13.5t10 -8.5l35 -5q50 -24 70.5 -75t28.5 -131l17 -170h-139l-16 180
q-4 54 -26 83.5t-77 29.5l-45 -293h-141l45 293q-55 0 -88.5 -33t-52.5 -87l-66 -173h-143zM679 403h39l101 128l43 37q6 5 4.5 11t-9.5 6h-277q-10 0 -11.5 -6.5t4.5 -11.5l40 -38z" />
    <glyph glyph-name="uni046D" unicode="&#x46d;" horiz-adv-x="828" 
d="M34 0l72 508h132l-28 -203h215l-15 -100h-214l-29 -205h-133zM211 0q17 40 34 85.5t37.5 86t46.5 68t60 31.5q9 1 12 4.5t-1 9.5l-86 173l6 50h504l-6 -50l-132 -178q-9 -12 2 -15q31 -6 49 -33t27 -66t14 -82.5t11 -83.5h-120q-3 41 -6.5 78.5t-11 68t-22 48t-39.5 17.5
l-33 -212h-113l33 212q-25 0 -45 -17.5t-36.5 -48t-31 -68t-29.5 -78.5h-124zM499 313h90l34 49l42 33q5 4 4.5 8t-5.5 4h-218q-5 0 -7 -3.5t1 -6.5l36 -34z" />
    <glyph glyph-name="uni046E" unicode="&#x46e;" horiz-adv-x="534" 
d="M115 -228q-48 0 -88 19t-63.5 55t-23.5 87q0 85 59 132.5t169 47.5h62q58 0 92.5 24.5t34.5 74.5q0 37 -25.5 61t-85.5 24h-103l16 117h112q58 0 85.5 27t27.5 70q0 35 -23 57.5t-70 22.5q-46 0 -81.5 -10t-72.5 -32l-37 106q54 33 104.5 44.5t104.5 11.5q67 0 113.5 -23
t70 -64t23.5 -97q0 -58 -29.5 -103.5t-79.5 -68.5q22 -12 40.5 -33t30 -49t11.5 -63q0 -71 -33.5 -119.5t-93 -74t-135.5 -25.5h-70q-40 0 -68.5 -13t-28.5 -42q0 -20 14 -33t43 -13q59 0 123.5 16t114.5 32l6 -121q-64 -19 -126 -32t-120 -13zM281 768l-68 167h107l21 -54
l1 -36q1 -6 6 -6.5t9 6.5l59 90h111l-114 -167h-132z" />
    <glyph glyph-name="uni046F" unicode="&#x46f;" horiz-adv-x="453" 
d="M173 -165q-66 0 -112 18.5t-68 55t-15 87.5q5 34 22.5 58t48.5 37.5t73 13.5h55q43 0 70 17t31 48q3 14 -14 28t-65 14h-96l12 90h90q44 0 66 17.5t26 43.5q2 21 -17 33.5t-60 12.5q-36 0 -72 -7t-69 -25l-29 100q47 23 91.5 33t89.5 10q39 0 76 -9.5t66.5 -28
t44.5 -48.5t9 -71q-6 -45 -28 -70t-57 -39q19 -7 35 -22t24.5 -38.5t3.5 -58.5q-7 -47 -41 -78.5t-83.5 -48t-105.5 -16.5h-42q-16 0 -29.5 -3.5t-15.5 -18.5q-1 -7 15.5 -13t65.5 -6q39 0 85 9t85 29l2 -117q-28 -12 -73.5 -24.5t-94.5 -12.5zM188 583l-68 167h106l21 -54
l2 -36q0 -6 5 -6.5t9 6.5l59 90h112l-114 -167h-132z" />
    <glyph glyph-name="uni0470" unicode="&#x470;" horiz-adv-x="760" 
d="M281 0l31 201q-65 1 -116.5 23t-81 76t-32.5 150l-6 250h140l4 -260q2 -57 25 -86.5t78 -29.5l57 376h140l-56 -376q54 0 97.5 32.5t51.5 90.5l36 253h141l-34 -236q-12 -84 -52 -142.5t-104.5 -89t-146.5 -31.5l-31 -201h-141z" />
    <glyph glyph-name="uni0471" unicode="&#x471;" horiz-adv-x="690" 
d="M213 -250l37 244q-33 1 -67.5 13t-63.5 40t-46.5 75t-18.5 119l-3 267h133l2 -275q-1 -63 22.5 -91.5t52.5 -31.5l91 628h132l-91 -629q43 1 79.5 36t44.5 99l37 264h127l-36 -252q-18 -123 -88.5 -191.5t-174.5 -70.5l-37 -244h-132z" />
    <glyph glyph-name="uni0472" unicode="&#x472;" horiz-adv-x="617" 
d="M161 275l-28 105q24 23 51.5 33t58.5 10q42 0 65 -9t41 -18t42 -9q26 0 46.5 11t37.5 28l29 -104q-24 -23 -51.5 -33t-58.5 -10q-41 0 -64.5 8.5t-41.5 17.5t-42 9q-26 0 -46.5 -11t-38.5 -28zM283 -12q-78 0 -129 33t-76 85t-25 109q0 48 5.5 102.5t16.5 108.5t26 100
q25 82 88.5 134t170.5 52q78 0 129.5 -33t76.5 -85t25 -109q0 -47 -5.5 -102t-16.5 -109t-26 -100q-24 -82 -88 -134t-172 -52zM292 113q42 0 73 24t46 67q9 23 16.5 59t13.5 76t9.5 77t3.5 61q0 51 -26.5 80.5t-76.5 29.5q-42 0 -73 -23.5t-46 -67.5q-8 -22 -15.5 -59
t-13.5 -78t-9.5 -77.5t-3.5 -58.5q0 -51 26.5 -80.5t75.5 -29.5z" />
    <glyph glyph-name="uni0473" unicode="&#x473;" horiz-adv-x="517" 
d="M150 181l-17 98q17 24 35.5 33.5t39.5 9.5q27 0 42.5 -9t27.5 -18t27 -9q18 0 33 11.5t26 28.5l17 -99q-17 -23 -35.5 -32.5t-38.5 -9.5q-28 0 -43.5 9t-27 17.5t-27.5 8.5q-18 0 -32.5 -11t-26.5 -28zM228 -12q-66 0 -109 29t-64.5 73.5t-21.5 93.5q0 27 4 58t10 62
t15 57q23 70 79.5 114t144.5 44q68 0 111 -28t64.5 -73t21.5 -94q0 -27 -3.5 -58.5t-10 -61.5t-15.5 -56q-23 -71 -80 -115.5t-146 -44.5zM237 97q36 0 61 21.5t38 56.5q6 16 11.5 41.5t8.5 52.5t3 48q0 40 -20.5 67t-61.5 27q-36 0 -60 -21.5t-37 -56.5q-5 -15 -10.5 -39.5
t-8.5 -51.5t-3 -51q0 -41 19 -67.5t60 -26.5z" />
    <glyph glyph-name="uni0474" unicode="&#x474;" horiz-adv-x="601" 
d="M145 0l-62 700h139l30 -415l-10 -151q-1 -14 7 -16t11 11l142 409q30 90 80 128.5t121 38.5q17 0 33.5 -2.5t28.5 -6.5l-16 -112q-8 2 -15.5 2.5t-14.5 0.5q-33 0 -55 -19t-39 -63l-189 -505h-191z" />
    <glyph glyph-name="uni0475" unicode="&#x475;" horiz-adv-x="526" 
d="M113 0l-55 508h130l25 -319l-3 -79q-1 -12 6.5 -13t11.5 10l82 245q28 78 75 119t111 41q17 0 31 -1.5t28 -4.5l-17 -102q-9 3 -23 3q-35 0 -57.5 -26t-40.5 -75l-119 -306h-185z" />
    <glyph glyph-name="uni0476" unicode="&#x476;" horiz-adv-x="601" 
d="M145 0l-62 700h139l30 -415l-10 -151q-1 -14 7 -16t11 11l142 409q30 90 80 128.5t121 38.5q17 0 33.5 -2.5t28.5 -6.5l-16 -112q-8 2 -15.5 2.5t-14.5 0.5q-33 0 -55 -19t-39 -63l-189 -505h-191zM221 771l-107 167h131l107 -167h-131zM432 771l-107 167h131l107 -167
h-131z" />
    <glyph glyph-name="uni0477" unicode="&#x477;" horiz-adv-x="526" 
d="M113 0l-55 508h130l25 -319l-3 -79q-1 -12 6.5 -13t11.5 10l82 245q28 78 75 119t111 41q17 0 31 -1.5t28 -4.5l-17 -102q-9 3 -23 3q-35 0 -57.5 -26t-40.5 -75l-119 -306h-185zM373 576l-107 167h131l107 -167h-131zM165 576l-107 167h131l107 -167h-131z" />
    <glyph glyph-name="uni0478" unicode="&#x478;" horiz-adv-x="1096" 
d="M283 -12q-78 0 -129 33t-76 85t-25 109q0 48 5.5 102.5t16.5 108.5t26 100q25 82 88.5 134t170.5 52q78 0 129.5 -33t76.5 -85t25 -109q0 -47 -5.5 -102t-16.5 -109t-26 -100q-24 -82 -88 -134t-172 -52zM292 113q42 0 73 24t46 67q9 23 16.5 59t13.5 76t9.5 77t3.5 61
q0 51 -26.5 80.5t-76.5 29.5q-42 0 -73 -23.5t-46 -67.5q-8 -22 -15.5 -59t-13.5 -78t-9.5 -77.5t-3.5 -58.5q0 -51 26.5 -80.5t75.5 -29.5zM624 -216l-25 112q53 9 90.5 28t53.5 60l10 25l-94 499h134l37 -193l3 -119q0 -8 6.5 -8t10.5 8l117 312h136l-223 -514
q-44 -103 -109.5 -152.5t-146.5 -57.5z" />
    <glyph glyph-name="uni0479" unicode="&#x479;" horiz-adv-x="974" 
d="M476 -216l-26 110q53 8 87.5 38t52.5 69l23 48l-102 459h134l38 -238l-2 -87q0 -9 6.5 -9t9.5 9l24 67l38 102q28 78 76 119t112 41q15 0 29 -1.5t27 -4.5l-17 -102q-10 3 -22 3q-31 0 -55.5 -22t-47.5 -77l-151 -356q-31 -71 -92 -115.5t-142 -52.5zM228 -12
q-66 0 -109 29t-64.5 73.5t-21.5 93.5q0 27 4 58t10 62t15 57q23 70 79.5 114t144.5 44q68 0 111 -28t64.5 -73t21.5 -94q0 -27 -3.5 -58.5t-10 -61.5t-15.5 -56q-23 -71 -80 -115.5t-146 -44.5zM237 97q36 0 61 21.5t38 56.5q6 16 11.5 41.5t8.5 52.5t3 48q0 40 -20.5 67
t-61.5 27q-36 0 -60 -21.5t-37 -56.5q-5 -15 -10.5 -39.5t-8.5 -51.5t-3 -51q0 -41 19 -67.5t60 -26.5z" />
    <glyph glyph-name="uni0480" unicode="&#x480;" horiz-adv-x="496" 
d="M285 -140l19 130q-24 -1 -46 1.5t-42 7.5q-54 14 -90.5 47.5t-55 78t-18.5 90.5q0 51 6 104t17 106t26 101q25 82 88.5 134t170.5 52q53 0 93.5 -16t69.5 -43l-41 -107q-25 22 -54 32t-71 10q-41 0 -75 -21.5t-50 -70.5q-6 -19 -13.5 -55t-13.5 -78t-10.5 -80.5
t-4.5 -61.5q0 -51 26.5 -79.5t75.5 -28.5q45 0 82 6.5t77 16.5l-8 -85l-27 -191h-131z" />
    <glyph glyph-name="uni0481" unicode="&#x481;" horiz-adv-x="457" 
d="M243 -141l21 137q-9 -4 -17 -5t-18 -1q-63 0 -107 25.5t-66.5 70t-22.5 100.5q0 36 5.5 71t15.5 70q16 61 48.5 103.5t79 65t104.5 22.5q53 0 89 -11t68 -29l-38 -97q-22 12 -48 20t-56 8q-53 0 -84.5 -30.5t-46.5 -80.5q-6 -24 -10.5 -50.5t-4.5 -57.5q0 -47 28 -74
t75 -27q34 0 61.5 5t56.5 18l39 23l-43 -276h-129z" />
    <glyph glyph-name="uni048A" unicode="&#x48a;" horiz-adv-x="654" 
d="M337 -140l156 264h121l-3 -27l-140 -237h-134zM39 0l99 700h137l-48 -345l-27 -86q-1 -7 4 -9.5t9 4.5l279 436h140l-99 -700h-137l48 345l24 86q3 8 -2.5 10.5t-10.5 -4.5l-277 -437h-139zM407 781q-76 0 -114 34.5t-48 92.5l91 16q6 -29 23.5 -43t46.5 -14
q33 0 58.5 17.5t39.5 46.5l89 -30q-27 -58 -71 -89t-115 -31z" />
    <glyph glyph-name="uni048B" unicode="&#x48b;" horiz-adv-x="564" 
d="M273 -130l137 238h114l-3 -26l-122 -212h-126zM181 -10q-70 0 -107.5 42t-25.5 128l48 348h130l-45 -334q-5 -35 9 -51.5t47 -16.5q11 0 23.5 3t28.5 11.5t37 20.5l50 367h130l-72 -508h-128l2 18q2 7 -3 8.5t-11 -1.5l-31 -15.5t-30 -13.5q-12 -3 -25 -4.5t-27 -1.5z
M338 596q-76 0 -114 34.5t-48 92.5l91 16q6 -29 23.5 -43t45.5 -14q34 0 59.5 17.5t39.5 46.5l89 -30q-27 -58 -71 -89t-115 -31z" />
    <glyph glyph-name="uni048C" unicode="&#x48c;" horiz-adv-x="602" 
d="M41 524l14 103h396l-15 -103h-395zM54 0l99 700h141l-39 -272h80q113 0 171.5 -52t58.5 -148q0 -74 -27.5 -124.5t-79 -77t-124.5 -26.5h-280zM211 115h124q48 0 75 28t27 76q0 45 -26 69.5t-76 24.5h-96z" />
    <glyph glyph-name="uni048D" unicode="&#x48d;" horiz-adv-x="535" 
d="M64 0l105 750h133l-57 -404h71q88 0 136.5 -38.5t48.5 -108.5q0 -97 -62.5 -148t-163.5 -51h-211zM211 104h72q41 0 64 28t23 63q0 22 -15.5 34.5t-45.5 12.5h-78zM46 405l15 103h383l-15 -103h-383z" />
    <glyph glyph-name="uni048E" unicode="&#x48e;" horiz-adv-x="589" 
d="M39 1l99 700h264q64 0 109.5 -29.5t67 -80t11.5 -116.5q-8 -58 -37 -102t-78 -70l34 -80l-94 -52l-43 102h-11h-12h-130l-40 -272h-140zM236 389h83l-30 66l95 51l21 -51l-6 -42q-1 -9 4.5 -13t13.5 2q22 14 33.5 39.5t13.5 52.5q1 24 -5 45t-22 34t-47 13h-129z" />
    <glyph glyph-name="uni048F" unicode="&#x48f;" horiz-adv-x="538" 
d="M20 -200l26 196l52 382l-61 30l58 110l100 -49q9 -5 14 2l17 18q25 11 41.5 17t32 8.5t35.5 2.5q31 0 61 -8t54.5 -28.5t39.5 -55.5t15 -89q0 -55 -10.5 -111t-33.5 -102q-12 -20 -26 -38.5t-31 -33.5l38 -88l-93 -51l-37 87q-32 -10 -71 -10q-12 0 -24 1t-28 3l-12 3
l-27 -196h-130zM240 99q8 0 15 1l14 2l-41 98l89 47l15 -33l2 -47q0 -9 5.5 -8.5t9.5 9.5q13 20 20 45t10.5 52.5t3.5 52.5q0 34 -9 52t-24.5 24t-35.5 6q-16 0 -35.5 -7.5t-52.5 -25.5l-37 -262q28 -6 51 -6z" />
    <glyph glyph-name="uni0490" unicode="&#x490;" horiz-adv-x="464" 
d="M39 0l99 700h240l19 140h131l-37 -265h-230l-81 -575h-141z" />
    <glyph glyph-name="uni0491" unicode="&#x491;" horiz-adv-x="427" 
d="M34 0l72 508h203l20 140h123l-35 -247h-194l-56 -401h-133z" />
    <glyph glyph-name="uni0492" unicode="&#x492;" horiz-adv-x="471" 
d="M10 300l15 103h328l-15 -103h-328zM47 0l98 700h372l-18 -125h-230l-81 -575h-141z" />
    <glyph glyph-name="uni0493" unicode="&#x493;" horiz-adv-x="487" 
d="M16 203l15 103h446l-15 -103h-446zM213 -11q-91 0 -139 44.5t-38 120.5q4 44 25.5 73.5t60.5 48t97 29.5l56 12q25 6 40 17t15 35q0 18 -14.5 30.5t-45.5 12.5q-44 0 -77 -9.5t-67 -27.5l-29 101q44 23 85.5 33.5t91.5 10.5q82 0 131.5 -39.5t47.5 -107.5
q-2 -51 -23.5 -84.5t-61 -53.5t-93.5 -31l-57 -11q-27 -7 -42.5 -17.5t-16.5 -29.5t11.5 -34t45.5 -15q28 0 52 3.5t50 14t60 30.5l29 -101q-49 -29 -94.5 -42t-99.5 -13z" />
    <glyph glyph-name="uni0494" unicode="&#x494;" horiz-adv-x="594" 
d="M297 -149q-23 0 -43 3.5t-34 7.5l35 108q7 -2 16 -3t13 -1q28 0 50 21.5t37.5 55t24 71.5t8.5 72q1 52 -21 76.5t-61 24.5q-32 0 -58.5 -7t-43.5 -15l-40 -265h-141l99 700h453l-17 -125h-313l-27 -183q-1 -8 4.5 -12t15.5 0l56 23q13 2 28 3t27 1q52 0 93.5 -22
t65.5 -70t22 -125q-3 -69 -20.5 -130t-48.5 -108t-76.5 -74t-103.5 -27z" />
    <glyph glyph-name="uni0495" unicode="&#x495;" horiz-adv-x="537" 
d="M34 0l72 508h359l-15 -108h-227l-56 -400h-133zM264 -149q-23 0 -43 3.5t-34 7.5l35 108q7 -2 16 -3t13 -1q30 0 49 21t28.5 52t9.5 61q-1 36 -18 56.5t-46 20.5q-24 0 -45.5 -6t-40.5 -15l12 126l6 -3q-3 -18 18 -9l55 24q15 2 27 2.5t22 0.5q36 0 71 -19.5t58 -58.5
t23 -97q0 -75 -26.5 -136.5t-74.5 -98t-115 -36.5z" />
    <glyph glyph-name="uni0496" unicode="&#x496;" horiz-adv-x="871" 
d="M676 -140l34 231l-10 33h145l-38 -264h-131zM-16 0l199 341l-94 359h144l73 -292h73l41 292h138l-41 -292h60l167 292h150l-199 -339l96 -361h-145l-74 292h-72l-41 -292h-138l41 292h-58l-168 -292h-152z" />
    <glyph glyph-name="uni0497" unicode="&#x497;" horiz-adv-x="758" 
d="M554 -130l29 205l-9 33h136l-33 -238h-123zM241 0l29 201h-63l12 108h66l28 199h130l-29 -199h64l-12 -108h-66l-29 -201h-130zM-1 -11l15 112q26 8 43 27t29 47q7 16 12 41.5t8 52.5t3 48q0 32 -13 56t-39 33l15 111q55 -8 91 -37.5t53.5 -70.5t17.5 -85q0 -27 -4 -58.5
t-10.5 -61.5t-15.5 -56q-20 -67 -72.5 -110.5t-132.5 -48.5zM619 -8q-57 7 -94.5 36t-55 71t-17.5 87q0 28 3.5 59t9.5 62t15 56q22 68 76 112t137 46l-16 -110q-29 -4 -48 -24.5t-32 -51.5q-5 -15 -10.5 -39.5t-8.5 -51t-3 -50.5q0 -36 14 -61t44 -31z" />
    <glyph glyph-name="uni0498" unicode="&#x498;" horiz-adv-x="534" 
d="M227 -9q-63 0 -119.5 18.5t-97.5 55.5l44 112q34 -30 75 -47t101 -17q58 0 92.5 24.5t34.5 74.5q0 37 -25.5 61t-85.5 24h-103l16 117h112q58 0 85.5 27t27.5 70q0 35 -23 57.5t-70 22.5q-46 0 -81.5 -10t-72.5 -32l-37 106q54 33 104.5 44.5t104.5 11.5q67 0 113.5 -23
t70 -64t23.5 -97q0 -58 -29.5 -103.5t-79.5 -68.5q22 -12 40.5 -33t30 -49t11.5 -63q0 -71 -33.5 -119.5t-93 -74t-135.5 -25.5zM101 -258l26 78q56 0 91 13.5t38 35.5q3 13 -19 16t-81 3l52 144l73 -27l-25 -51q46 -6 70.5 -32.5t19.5 -64.5q-5 -39 -38.5 -65t-86.5 -38
t-120 -12z" />
    <glyph glyph-name="uni0499" unicode="&#x499;" horiz-adv-x="459" 
d="M184 -8q-64 0 -110.5 12.5t-88.5 44.5l49 99q22 -18 42 -27.5t44.5 -12.5t56.5 -3q43 0 72.5 14t29.5 46q0 23 -18 35t-62 12h-67l12 90h63q37 0 63.5 14t26.5 45q-1 20 -17.5 34t-58.5 14q-35 0 -71 -7t-70 -25l-28 100q47 23 91 33t90 10q68 0 110.5 -22.5t62 -56.5
t18.5 -70q0 -42 -21.5 -71t-58.5 -46q27 -10 46 -35t18 -66q0 -52 -33 -88t-84.5 -54.5t-106.5 -18.5zM45 -258l26 78q56 0 91 13.5t38 35.5q3 13 -19 16t-81 3l52 144l73 -27l-25 -51q46 -6 70.5 -32.5t19.5 -64.5q-5 -39 -38.5 -65t-86.5 -38t-120 -12z" />
    <glyph glyph-name="uni049A" unicode="&#x49a;" horiz-adv-x="600" 
d="M406 -140l34 231l-10 33h145l-38 -264h-131zM39 0l99 700h138l-41 -292h54l174 292h152l-209 -343l105 -357h-145l-83 292h-65l-41 -292h-138z" />
    <glyph glyph-name="uni049B" unicode="&#x49b;" horiz-adv-x="551" 
d="M347 -130l29 205l-9 33h137l-34 -238h-123zM34 0l72 508h130l-28 -199h44l130 199h140l-176 -271v53l109 -290h-142l-74 201h-46l-29 -201h-130z" />
    <glyph glyph-name="uni049C" unicode="&#x49c;" horiz-adv-x="698" 
d="M39 0l99 700h138l-42 -292h47l23 160h112l-11 -83l-25 -65q-5 -12 3.5 -15t15.5 8l189 287h151l-249 -347q-5 -6 -5.5 -12.5t3.5 -11.5l44 -56l103 -273h-145l-104 288q-4 12 -12 10t-8 -14l1 -68l-13 -89h-112l23 165h-47l-41 -292h-138z" />
    <glyph glyph-name="uni049D" unicode="&#x49d;" horiz-adv-x="622" 
d="M34 0l72 508h130l-29 -200h45l19 127h98l-10 -76l-16 -47q-4 -10 4 -13.5t13 5.5l126 204h148l-125 -175l-62 -69q-10 -9 -4 -19l38 -58l73 -187h-143l-67 195q-3 9 -10 6.5t-7 -11.5v-49l-8 -66h-99l16 117h-45l-27 -192h-130z" />
    <glyph glyph-name="uni049E" unicode="&#x49e;" horiz-adv-x="595" 
d="M48 529l15 102h302l-14 -102h-303zM60 0l99 700h137l-41 -292h55l174 292h152l-209 -343l105 -357h-145l-84 292h-64l-41 -292h-138z" />
    <glyph glyph-name="uni049F" unicode="&#x49f;" horiz-adv-x="506" 
d="M43 572l13 96h347l-13 -96h-347zM32 0l106 750h130l-57 -408h45l106 166h147l-142 -214l80 -294h-140l-51 227h-61l-32 -227h-131z" />
    <glyph glyph-name="uni04A0" unicode="&#x4a0;" horiz-adv-x="703" 
d="M70 592l15 108h205l-15 -108h-205zM168 0l99 700h138l-41 -292h54l175 292h151l-209 -343l105 -357h-145l-83 292h-65l-41 -292h-138z" />
    <glyph glyph-name="uni04A1" unicode="&#x4a1;" horiz-adv-x="610" 
d="M36 400l15 108h234l-15 -108h-234zM130 0l72 508h130l-28 -199h44l130 199h141l-177 -271v53l109 -290h-142l-74 201h-46l-28 -201h-131z" />
    <glyph glyph-name="uni04A2" unicode="&#x4a2;" horiz-adv-x="664" 
d="M444 -140l33 231l-9 33h144l-37 -264h-131zM39 0l99 700h141l-41 -288h203l41 288h141l-99 -700h-141l41 288h-203l-41 -288h-141z" />
    <glyph glyph-name="uni04A3" unicode="&#x4a3;" horiz-adv-x="584" 
d="M379 -130l30 205l-10 33h137l-33 -238h-124zM34 0l72 508h132l-28 -199h154l28 199h133l-72 -508h-133l29 201h-153l-29 -201h-133z" />
    <glyph glyph-name="uni04A4" unicode="&#x4a4;" horiz-adv-x="776" 
d="M476 575l17 125h327l-17 -125h-327zM39 0l99 700h141l-41 -288h203l41 288h141l-99 -700h-141l41 288h-203l-41 -288h-141z" />
    <glyph glyph-name="uni04A5" unicode="&#x4a5;" horiz-adv-x="689" 
d="M406 400l15 108h281l-16 -108h-280zM34 0l72 508h132l-28 -199h154l28 199h133l-72 -508h-133l29 201h-153l-29 -201h-133z" />
    <glyph glyph-name="uni04A6" unicode="&#x4a6;" horiz-adv-x="917" 
d="M638 -149q-23 0 -43.5 3.5t-34.5 7.5l36 108q6 -2 15 -3t14 -1q28 0 49.5 21.5t37 55t24 71.5t8.5 72q1 52 -21 76.5t-61 24.5q-32 0 -59 -7t-48 -15l21 132q-2 -11 3.5 -15.5t16.5 -0.5l54 22q14 2 29 3t27 1q52 0 94.5 -22t66 -70t20.5 -125q-3 -69 -20.5 -130
t-49 -108t-76.5 -74t-103 -27zM39 0l99 700h481l-98 -700h-141l81 576h-200l-81 -576h-141z" />
    <glyph glyph-name="uni04A7" unicode="&#x4a7;" horiz-adv-x="875" 
d="M605 -149q-23 0 -43.5 3.5t-33.5 7.5l35 108q6 -2 15 -3t14 -1q29 0 48 22.5t28.5 54.5t9.5 60q0 38 -17 56t-46 18q-25 0 -46 -6t-40 -15l12 126l6 -4q-3 -16 17 -8l56 24q14 2 26 2.5t23 0.5q37 0 71.5 -21t57 -63t22.5 -106q0 -68 -26.5 -126.5t-75 -94t-113.5 -35.5z
M110 0l61 448l56 -108l-135 67l55 111l105 -52q11 -5 17 2l15 17q38 22 66.5 28.5t67.5 5.5q80 -1 119.5 -50.5t27.5 -137.5l-47 -331h-130l47 336q5 33 -9.5 49t-42.5 16q-16 0 -32 -4.5t-34.5 -14.5t-43.5 -26l22 36l-56 -392h-129z" />
    <glyph glyph-name="uni04A8" unicode="&#x4a8;" horiz-adv-x="722" 
d="M277 -12q-105 0 -166.5 54.5t-61.5 153.5q0 41 5.5 93.5t14.5 105.5t17 96q15 68 55.5 117.5t101.5 76.5t135 27l-11 -125q-51 0 -91 -32t-53 -89q-8 -37 -16.5 -85t-14 -94t-5.5 -80q2 -99 110 -99q57 0 104 24.5t81.5 67.5t53 99t18.5 120q0 27 -9.5 48t-34.5 21
q-33 0 -52.5 -27t-27.5 -67.5t-8 -79.5q-1 -60 16.5 -106.5t55 -73.5t96.5 -27q15 0 26.5 2.5t24.5 5.5l-10 -117q-16 -4 -35.5 -6.5t-32.5 -2.5q-66 0 -117.5 24.5t-87.5 68.5t-54 103t-15 129q4 83 27.5 147.5t72 101.5t126.5 37q57 0 96 -23.5t58.5 -64t17.5 -93.5
q-3 -86 -37 -164t-91 -138t-129.5 -94.5t-152.5 -34.5z" />
    <glyph glyph-name="uni04A9" unicode="&#x4a9;" horiz-adv-x="627" 
d="M468 -11q-67 0 -116 30t-76 83t-27 119t22.5 117.5t66 81.5t104.5 30q65 0 106 -41t41 -111q0 -63 -31.5 -119.5t-84 -99t-116.5 -67t-129 -24.5q-66 0 -109 29t-64.5 73.5t-21.5 93.5q0 27 4 58t10 62t15 57q24 70 82 114t150 44l-17 -108q-36 0 -60 -21.5t-37 -56.5
q-5 -15 -10.5 -39.5t-8.5 -51.5t-3 -51q0 -41 19 -68t59 -27q48 0 91.5 15.5t77.5 43t53.5 64.5t19.5 80q0 23 -11 36.5t-30 13.5q-28 0 -44.5 -22t-23.5 -55t-7 -65q0 -34 10.5 -62.5t37 -46t74.5 -17.5q19 0 39 2.5t42 5.5l-13 -90q-22 -7 -43.5 -8.5t-40.5 -1.5z" />
    <glyph glyph-name="uni04AA" unicode="&#x4aa;" horiz-adv-x="504" 
d="M284 -12q-57 0 -100.5 19.5t-72.5 53t-43.5 73.5t-14.5 81q0 51 5.5 104t16.5 106.5t26 100.5q24 82 88 134t171 52q53 0 94 -16t69 -43l-41 -107q-25 22 -54 32t-71 10q-40 0 -74.5 -21.5t-50.5 -70.5q-5 -19 -12.5 -55t-14 -78t-11 -80.5t-4.5 -61.5q0 -51 27 -79.5
t75 -28.5q39 0 66.5 11.5t51.5 28.5l40 -113q-33 -25 -71.5 -38.5t-94.5 -13.5zM125 -258l26 78q56 0 91 13.5t38 35.5q3 13 -19 16t-81 3l52 144l73 -27l-25 -51q46 -6 70.5 -32.5t19.5 -64.5q-5 -39 -38.5 -65t-86.5 -38t-120 -12z" />
    <glyph glyph-name="uni04AB" unicode="&#x4ab;" horiz-adv-x="458" 
d="M229 -10q-63 0 -107 25.5t-66.5 70t-22.5 100.5q0 36 5.5 71t15.5 70q16 61 48.5 103.5t79 65t104.5 22.5q53 0 89 -11t68 -29l-38 -97q-22 12 -48 20t-56 8q-53 0 -84.5 -30.5t-46.5 -80.5q-6 -24 -9.5 -50.5t-5.5 -57.5q-1 -29 9.5 -50t29.5 -32.5t45 -11.5
q13 0 26.5 5.5t27.5 18t28 32.5l91 -48q-37 -66 -85 -90t-98 -24zM60 -258l26 78q56 0 91 13.5t38 35.5q3 13 -19 16t-81 3l52 144l73 -27l-25 -51q46 -6 70.5 -32.5t19.5 -64.5q-5 -39 -38.5 -65t-86.5 -38t-120 -12z" />
    <glyph glyph-name="uni04AC" unicode="&#x4ac;" horiz-adv-x="505" 
d="M206 -140l34 231l-10 33h145l-38 -264h-131zM146 0l81 575h-159l17 125h460l-18 -125h-159l-81 -575h-141z" />
    <glyph glyph-name="uni04AD" unicode="&#x4ad;" horiz-adv-x="865" 
d="M660 -139l29 205l-10 33h137l-33 -238h-123zM55 0l60 434l49 -89l-127 62l55 111l106 -52q10 -5 17 2l15 17q39 21 67.5 28t67.5 6q40 -1 68.5 -15t47.5 -35q8 -8 17 2l15 17q26 13 46 20t40 9.5t45 1.5q52 -1 87.5 -24.5t51 -65t7.5 -96.5l-47 -333h-130l47 337
q5 32 -9.5 48t-42.5 16q-18 0 -38 -7t-46 -22.5t-65 -42.5l61 68l-56 -397h-130l47 338q4 31 -10 47t-42 16q-20 0 -39.5 -7.5t-45 -22.5t-64.5 -39l66 98l-61 -430h-130z" />
    <glyph glyph-name="Ustraitcy" unicode="&#x4ae;" horiz-adv-x="502" 
d="M144 0l40 273l-121 427h143l44 -166l9 -119q1 -8 6.5 -8.5t10.5 8.5l144 285h145l-241 -427l-40 -273h-140z" />
    <glyph glyph-name="ustraitcy" unicode="&#x4af;" horiz-adv-x="488" 
d="M141 0l-89 508h132l32 -228v-105q0 -9 6.5 -10t9.5 8l126 335h144l-228 -508h-133zM113 -200l28 200h133l-28 -200h-133z" />
    <glyph glyph-name="Ustraitstrokecy" unicode="&#x4b0;" horiz-adv-x="502" 
d="M60 204l14 103h368l-14 -103h-368zM144 0l40 273l-121 427h143l44 -166l9 -119q1 -8 6.5 -8.5t10.5 8.5l144 285h145l-241 -427l-40 -273h-140z" />
    <glyph glyph-name="ustraitstrokecy" unicode="&#x4b1;" horiz-adv-x="488" 
d="M11 -103l14 103h365l-14 -103h-365zM141 0l-89 508h132l32 -228v-105q0 -9 6.5 -10t9.5 8l126 335h144l-228 -508h-133zM113 -200l28 200h133l-28 -200h-133z" />
    <glyph glyph-name="uni04B2" unicode="&#x4b2;" horiz-adv-x="591" 
d="M396 -140l34 231l-10 33h145l-38 -264h-131zM-16 0l203 353l-88 347h141l37 -197l-2 -87q0 -8 5.5 -8.5t9.5 7.5l154 285h153l-202 -335l91 -365h-143l-40 210l-1 80q0 8 -5 8t-10 -8l-151 -290h-152z" />
    <glyph glyph-name="uni04B3" unicode="&#x4b3;" horiz-adv-x="539" 
d="M335 -130l29 205l-9 33h137l-34 -238h-123zM-14 0l168 254l-94 254h138l37 -122l7 -69q2 -8 7 -8t10 8l113 191h141l-167 -254l93 -254h-136l-38 124l-6 62q0 9 -6.5 8.5t-11.5 -8.5l-112 -186h-143z" />
    <glyph glyph-name="uni04B4" unicode="&#x4b4;" horiz-adv-x="767" 
d="M68 577l17 123h418l-18 -123h-417zM146 0l98 700h141l-81 -576h200l81 576h141l-99 -700h-481zM546 -140l34 231l-10 33h145l-38 -264h-131z" />
    <glyph glyph-name="uni04B5" unicode="&#x4b5;" horiz-adv-x="652" 
d="M36 400l15 108h350l-15 -108h-350zM262 -10q-70 0 -108 42t-25 128l48 348h130l-46 -334q-4 -35 10 -51.5t46 -16.5q12 0 24.5 3t28 11.5t37.5 20.5l50 367h130l-72 -508h-128l2 18q1 7 -3.5 8.5t-11.5 -1.5l-31 -15.5t-29 -13.5q-13 -3 -26 -4.5t-26 -1.5zM448 -130
l29 205l-9 33h137l-34 -238h-123z" />
    <glyph glyph-name="uni04B6" unicode="&#x4b6;" horiz-adv-x="631" 
d="M411 -140l34 231l-10 33h145l-38 -264h-131zM350 0l40 279q1 8 -2.5 9t-13.5 -4l-60 -25q-13 -2 -28.5 -3t-27.5 -1q-48 0 -89 19t-65 56.5t-24 93.5q0 10 0.5 20.5t1.5 22.5l33 233h141l-33 -231q-1 -5 -1 -10.5v-10.5q0 -39 20.5 -55.5t57.5 -16.5q32 0 59.5 7t43.5 14
l46 303h141l-98 -700h-142z" />
    <glyph glyph-name="uni04B7" unicode="&#x4b7;" horiz-adv-x="564" 
d="M360 -130l29 205l-9 33h136l-33 -238h-123zM298 0l28 192q1 8 -3.5 8.5t-13.5 -5.5l-58 -30q-9 -3 -18.5 -3.5t-18.5 -0.5q-51 0 -87 23.5t-52.5 63t-10.5 88.5l24 172h133l-23 -160q-5 -36 12.5 -54t50.5 -18t51.5 13.5t30.5 28.5l28 190h133l-71 -508h-135z" />
    <glyph glyph-name="uni04B8" unicode="&#x4b8;" horiz-adv-x="635" 
d="M383 0l38 266q1 8 -2.5 11t-11.5 -2l-24 -11q-4 -1 -9 -2.5t-11 -3.5l-20 -131h-107l20 122q-55 4 -98.5 28t-64.5 69t-11 113l33 241h141l-33 -238q-6 -42 8.5 -64.5t46.5 -24.5q11 0 13.5 5t0.5 12l-11 52l16 126h108l-31 -196q19 3 34.5 8t26.5 9l47 311h141l-99 -700
h-141z" />
    <glyph glyph-name="uni04B9" unicode="&#x4b9;" horiz-adv-x="574" 
d="M334 0l27 187q2 10 -4 10t-16 -3q-11 -4 -17 -6t-10 -3l-13 -90h-96l9 66h-9q-37 2 -72.5 23t-55.5 61t-12 98l23 165h133l-21 -147q-4 -33 3 -51.5t31 -25.5q9 -2 15 2t5 13l-12 55l8 65h96l-17 -130q16 5 29 12.5t20 16.5l29 190h133l-72 -508h-134z" />
    <glyph glyph-name="uni04BA" unicode="&#x4ba;" horiz-adv-x="602" 
d="M279 700l-40 -279q-1 -8 3 -8.5t14 3.5l60 25q13 2 28 3t28 1q48 0 88.5 -18.5t65 -56.5t24.5 -94q0 -10 -0.5 -20.5t-2.5 -22.5l-33 -233h-141l33 231q1 5 1 11v10q0 39 -20 55.5t-57 16.5q-32 0 -59.5 -7t-43.5 -14l-47 -303h-141l99 700h141z" />
    <glyph glyph-name="uni04BB" unicode="&#x4bb;" horiz-adv-x="545" 
d="M315 0l45 332q5 35 -7.5 52t-41.5 17q-16 0 -31 -4t-32.5 -12t-40.5 -22l8 105q29 20 51.5 31t44.5 15t49 4q46 0 78.5 -19t47.5 -57t7 -96l-48 -346h-130zM35 0l106 751h129l-105 -751h-130z" />
    <glyph glyph-name="uni04BC" unicode="&#x4bc;" horiz-adv-x="735" 
d="M425 -12q-78 0 -134 28.5t-85 83t-29 132.5q1 94 18 180.5t54 154t96.5 106.5t144.5 39q54 0 99.5 -16.5t77 -54t44 -99.5t0.5 -154l-48 -78h-478q-82 0 -123 46.5t-30 122.5q4 29 18.5 60.5t42.5 60.5l80 -64q-12 -14 -19.5 -28.5t-9.5 -29.5q-4 -25 6 -35.5t38 -10.5
l385 3q5 38 2 66.5t-13.5 47t-29.5 28.5t-47 10q-51 0 -83.5 -31.5t-51 -83t-26 -113.5t-7.5 -123q0 -42 13.5 -69.5t40.5 -40.5t69 -13q56 0 105.5 20t75.5 41l35 -116q-42 -29 -98.5 -49.5t-132.5 -20.5z" />
    <glyph glyph-name="uni04BD" unicode="&#x4bd;" horiz-adv-x="575" 
d="M132 222q-62 2 -94 37.5t-24 94.5q3 20 13.5 43.5t28.5 45.5l65 -47q-8 -12 -13 -24t-7 -25q-2 -17 6.5 -23.5t31.5 -7.5zM308 -10q-64 0 -108 25.5t-66.5 70t-22.5 100.5q0 38 5.5 72.5t14.5 64.5q16 65 48.5 108t79 65t105.5 22q56 0 94 -18.5t59 -50.5t27.5 -74.5
t-2.5 -90.5l-32 -62h-300l11 92h209q12 48 -7 74t-61 26q-44 0 -73.5 -32t-42.5 -89q-4 -21 -7.5 -45t-5.5 -57q-2 -46 22 -70.5t62 -24.5q25 0 50 13t48 43l97 -48q-40 -65 -94 -89.5t-110 -24.5z" />
    <glyph glyph-name="uni04BE" unicode="&#x4be;" horiz-adv-x="735" 
d="M425 -12q-78 0 -134 28.5t-85 83t-29 132.5q1 94 18 180.5t54 154t96.5 106.5t144.5 39q54 0 99.5 -16.5t77 -54t44 -99.5t0.5 -154l-48 -78h-478q-82 0 -123 46.5t-30 122.5q4 29 18.5 60.5t42.5 60.5l80 -64q-12 -14 -19.5 -28.5t-9.5 -29.5q-4 -25 6 -35.5t38 -10.5
l385 3q5 38 2 66.5t-13.5 47t-29.5 28.5t-47 10q-51 0 -83.5 -31.5t-51 -83t-26 -113.5t-7.5 -123q0 -42 13.5 -69.5t40.5 -40.5t69 -13q56 0 105.5 20t75.5 41l35 -116q-42 -29 -98.5 -49.5t-132.5 -20.5zM481 -255q-62 2 -108 19.5t-68.5 54t-14.5 93.5q6 42 31 72.5
t69 48.5l95 -29q-39 -19 -59.5 -41t-25.5 -56q-4 -36 23 -50t80 -17z" />
    <glyph glyph-name="uni04BF" unicode="&#x4bf;" horiz-adv-x="575" 
d="M132 222q-62 2 -94 37.5t-24 94.5q3 20 13.5 43.5t28.5 45.5l65 -47q-8 -12 -13 -24t-7 -25q-2 -17 6.5 -23.5t31.5 -7.5zM308 -10q-64 0 -108 25.5t-66.5 70t-22.5 100.5q0 38 5.5 72.5t14.5 64.5q16 65 48.5 108t79 65t105.5 22q56 0 94 -18.5t59 -50.5t27.5 -74.5
t-2.5 -90.5l-32 -62h-300l11 92h209q12 48 -7 74t-61 26q-44 0 -73.5 -32t-42.5 -89q-4 -21 -7.5 -45t-5.5 -57q-2 -46 22 -70.5t62 -24.5q25 0 50 13t48 43l97 -48q-40 -65 -94 -89.5t-110 -24.5zM424 -239q-62 2 -108 19.5t-68.5 54t-14.5 93.5q6 42 31 72.5t69 48.5
l95 -29q-39 -19 -59.5 -41t-25.5 -56q-4 -36 23 -50t80 -17z" />
    <glyph glyph-name="uni04C0" unicode="&#x4c0;" horiz-adv-x="290" 
d="M39 0l99 700h140l-99 -700h-140z" />
    <glyph glyph-name="uni04C1" unicode="&#x4c1;" horiz-adv-x="855" 
d="M-14 0l199 341l-95 359h144l74 -292h73l41 292h137l-41 -292h61l167 292h149l-198 -339l95 -361h-145l-74 292h-71l-41 -292h-138l41 292h-58l-169 -292h-151zM515 781q-76 0 -114 34.5t-49 92.5l92 16q6 -29 23.5 -43t45.5 -14q34 0 59.5 17.5t38.5 46.5l89 -30
q-26 -58 -70.5 -89t-114.5 -31z" />
    <glyph glyph-name="uni04C2" unicode="&#x4c2;" horiz-adv-x="691" 
d="M241 0l29 201h-63l12 108h66l28 199h130l-29 -199h64l-12 -108h-66l-29 -201h-130zM-1 -11l15 112q26 8 43 27t29 47q7 16 12 41.5t8 52.5t3 48q0 32 -13 56t-39 33l15 111q55 -8 91 -37.5t53.5 -70.5t17.5 -85q0 -27 -4 -58.5t-10.5 -61.5t-15.5 -56
q-20 -67 -72.5 -110.5t-132.5 -48.5zM619 -8q-57 7 -94.5 36t-55 71t-17.5 87q0 28 3.5 59t9.5 62t15 56q22 68 76 112t137 46l-16 -110q-29 -4 -48 -24.5t-32 -51.5q-5 -15 -10.5 -39.5t-8.5 -51t-3 -50.5q0 -36 14 -61t44 -31zM401 596q-76 0 -114 34.5t-49 92.5l92 16
q6 -29 23.5 -43t45.5 -14q34 0 59.5 17.5t38.5 46.5l89 -30q-26 -58 -70.5 -89t-114.5 -31z" />
    <glyph glyph-name="uni04C3" unicode="&#x4c3;" horiz-adv-x="594" 
d="M297 -149q-23 0 -43.5 3.5t-33.5 7.5l35 108q6 -2 15 -3t14 -1q38 0 64.5 32.5t40.5 82.5t14 102q0 53 -27 77.5t-88 24.5h-68l-40 -285h-141l99 700h141l-41 -282q-2 -12 13 -12h69l145 294h150l-169 -319q47 -23 72.5 -70.5t25.5 -122.5q0 -67 -16.5 -127.5
t-48.5 -107.5t-77.5 -74.5t-104.5 -27.5z" />
    <glyph glyph-name="uni04C4" unicode="&#x4c4;" horiz-adv-x="550" 
d="M269 -149q-23 0 -43.5 3.5t-34.5 7.5l36 108q6 -2 15 -3t14 -1q31 0 49.5 24t28 58.5t9.5 64.5q0 34 -17 50t-50 16q-22 0 -41 -3.5t-38 -9.5l12 126l6 -4q-3 -15 17 -9l55 17q12 2 23 2h21q39 0 74 -19.5t57.5 -59.5t22.5 -100q0 -72 -26 -133t-74.5 -98t-115.5 -37z
M34 0l72 508h140l-72 -508h-140zM376 236l-98 49l122 223h151z" />
    <glyph glyph-name="uni04C5" unicode="&#x4c5;" horiz-adv-x="642" 
d="M325 -140l156 264h121l-3 -27l-139 -237h-135zM16 -14l-27 119q45 9 75.5 40t43.5 85q20 83 41 199t42 271h427l-99 -700h-141l81 575h-156q-17 -121 -33 -222t-38 -177q-23 -77 -78.5 -125t-137.5 -65z" />
    <glyph glyph-name="uni04C6" unicode="&#x4c6;" horiz-adv-x="569" 
d="M278 -130l137 238h114l-2 -26l-122 -212h-127zM20 -13l-24 116q33 6 60 25t39 53q13 33 24 77t22 105.5t22 144.5h366l-71 -508h-133l57 398h-107q-12 -76 -26.5 -136t-28.5 -109q-22 -79 -75 -117.5t-125 -48.5z" />
    <glyph glyph-name="uni04C7" unicode="&#x4c7;" horiz-adv-x="635" 
d="M304 -219l-25 118q42 10 71 37t33 64h141q-12 -90 -68 -144t-152 -75zM39 0l99 700h141l-41 -288h203l41 288h141l-99 -700h-141l41 288h-203l-41 -288h-141z" />
    <glyph glyph-name="uni04C8" unicode="&#x4c8;" horiz-adv-x="559" 
d="M228 -222l-23 116q47 12 78.5 38.5t36.5 67.5h133q-10 -74 -45 -120.5t-82.5 -70.5t-97.5 -31zM34 0l72 508h132l-28 -199h154l28 199h133l-72 -508h-133l29 201h-153l-29 -201h-133z" />
    <glyph glyph-name="uni04C9" unicode="&#x4c9;" horiz-adv-x="639" 
d="M322 -140l156 264h121l-3 -27l-140 -237h-134zM39 0l99 700h141l-41 -288h203l41 288h141l-99 -700h-141l41 288h-203l-41 -288h-141z" />
    <glyph glyph-name="uni04CA" unicode="&#x4ca;" horiz-adv-x="565" 
d="M273 -130l137 238h114l-2 -26l-122 -212h-127zM34 0l72 508h132l-28 -199h154l28 199h133l-72 -508h-133l29 201h-153l-29 -201h-133z" />
    <glyph glyph-name="uni04CB" unicode="&#x4cb;" horiz-adv-x="602" 
d="M260 -140l38 264h146l-19 -33l-33 -231h-132zM350 0l40 279q1 8 -2.5 9t-13.5 -4l-60 -25q-13 -2 -28.5 -3t-27.5 -1q-48 0 -89 19t-65 56.5t-24 93.5q0 10 0.5 20.5t1.5 22.5l33 233h141l-33 -231q-1 -5 -1 -10.5v-10.5q0 -39 20.5 -55.5t57.5 -16.5q32 0 59.5 7
t43.5 14l46 303h141l-98 -700h-142z" />
    <glyph glyph-name="uni04CC" unicode="&#x4cc;" horiz-adv-x="538" 
d="M202 -130l33 238h138l-19 -33l-29 -205h-123zM298 0l28 192q1 8 -3.5 8.5t-13.5 -5.5l-58 -30q-9 -3 -18.5 -3.5t-18.5 -0.5q-51 0 -87 23.5t-52.5 63t-10.5 88.5l24 172h133l-23 -160q-5 -36 12.5 -54t50.5 -18t51.5 13.5t30.5 28.5l28 190h133l-71 -508h-135z" />
    <glyph glyph-name="uni04CD" unicode="&#x4cd;" horiz-adv-x="689" 
d="M372 -140l156 264h121l-3 -27l-140 -237h-134zM39 0l99 700h113l100 -261q3 -8 10 -7.5t12 8.5l177 260h117l-99 -700h-133l43 303l31 109q3 10 -4 12t-13 -6l-132 -180h-50l-75 181q-3 8 -10 6.5t-7 -10.5l-1 -105l-45 -310h-133z" />
    <glyph glyph-name="uni04CE" unicode="&#x4ce;" horiz-adv-x="670" 
d="M379 -130l137 238h114l-3 -26l-122 -212h-126zM34 0l72 507h117l100 -233q2 -7 8.5 -4t11.5 10l166 227h121l-72 -507h-125l27 194l30 89q3 8 -3 11.5t-13 -5.5l-139 -183h-51l-81 181q-5 12 -12.5 9.5t-6.5 -13.5l3 -89l-27 -194h-126z" />
    <glyph glyph-name="uni04CF" unicode="&#x4cf;" horiz-adv-x="273" 
d="M34 0l106 750h133l-106 -750h-133z" />
    <glyph glyph-name="uni04D0" unicode="&#x4d0;" 
d="M-16 0l275 700h195l89 -700h-139l-48 431l-1 139q0 9 -7 10t-9 -7l-213 -573h-142zM167 168l45 116h183l11 -116h-239zM136 584l17 116h125l-30 -116h-112zM391 781q-76 0 -114 34.5t-49 92.5l92 16q6 -29 23.5 -43t45.5 -14q34 0 59.5 17.5t38.5 46.5l89 -30
q-26 -58 -70.5 -89t-114.5 -31z" />
    <glyph glyph-name="uni04D1" unicode="&#x4d1;" horiz-adv-x="550" 
d="M206 -9q-29 0 -59.5 8.5t-56 29t-41.5 55.5t-16 87q0 56 11 111.5t34 101.5q35 65 91 99.5t128 34.5q12 0 24 -0.5t28 -2.5l37 -12q6 -2 16 -1l90 10l-52 -383l61 -30l-57 -109l-102 50q-9 4 -14 -2l-17 -19q-25 -10 -41.5 -16.5t-31 -9t-32.5 -2.5zM226 107q10 0 20.5 3
t26 10.5t40.5 21.5l36 261q-28 5 -51 5q-37 0 -67 -17t-45 -50q-16 -33 -23 -72.5t-7 -87.5q0 -39 20 -56.5t50 -17.5zM345 596q-76 0 -114 34.5t-49 92.5l92 16q6 -29 23.5 -43t45.5 -14q34 0 59.5 17.5t38.5 46.5l89 -30q-26 -58 -70.5 -89t-114.5 -31z" />
    <glyph glyph-name="uni04D2" unicode="&#x4d2;" 
d="M-16 0l275 700h195l89 -700h-139l-48 431l-1 139q0 9 -7 10t-9 -7l-213 -573h-142zM167 168l45 116h183l11 -116h-239zM136 584l17 116h125l-30 -116h-112zM417 768l17 117h121l-17 -117h-121zM221 768l17 117h121l-17 -117h-121z" />
    <glyph glyph-name="uni04D3" unicode="&#x4d3;" horiz-adv-x="550" 
d="M206 -9q-29 0 -59.5 8.5t-56 29t-41.5 55.5t-16 87q0 56 11 111.5t34 101.5q35 65 91 99.5t128 34.5q12 0 24 -0.5t28 -2.5l37 -12q6 -2 16 -1l90 10l-52 -383l61 -30l-57 -109l-102 50q-9 4 -14 -2l-17 -19q-25 -10 -41.5 -16.5t-31 -9t-32.5 -2.5zM226 107q10 0 20.5 3
t26 10.5t40.5 21.5l36 261q-28 5 -51 5q-37 0 -67 -17t-45 -50q-16 -33 -23 -72.5t-7 -87.5q0 -39 20 -56.5t50 -17.5zM371 583l17 117h121l-17 -117h-121zM175 583l17 117h121l-17 -117h-121z" />
    <glyph glyph-name="uni04D4" unicode="&#x4d4;" horiz-adv-x="856" 
d="M-16 0l229 579h-77l17 121h713l-17 -121h-295l-24 -170h278l-16 -118h-278l-23 -166h294l-17 -125h-424l24 168h-179l-62 -168h-143zM231 284h153l42 295h-85z" />
    <glyph glyph-name="uni04D5" unicode="&#x4d5;" horiz-adv-x="767" 
d="M180 -9q-53 0 -90.5 20t-55 56t-11.5 80q11 70 62.5 103.5t125.5 37.5l411 27q2 15 1.5 32t-6.5 32t-21.5 24t-42.5 9q-46 0 -75 -34t-37 -91q-4 -25 -6.5 -45.5t-5.5 -41.5q-5 -54 19.5 -79t60.5 -25q30 0 51 12.5t49 43.5l97 -48q-38 -56 -90 -84.5t-117 -28.5
q-47 0 -84.5 17t-61.5 42q-5 5 -9.5 5.5t-10.5 -6.5l-18 -21q-38 -16 -58.5 -24t-36 -10.5t-40.5 -2.5zM191 88q18 0 33.5 5t32.5 14t40 20l26 203q5 36 -15.5 58t-68.5 22q-37 0 -70 -12t-66 -32l-29 105q42 25 86.5 37t89.5 12q80 0 129 -33l17 -26q10 -14 20 0l22 25
q31 18 60 25t51 7q78 0 122 -31t58.5 -85.5t3.5 -126.5l-28 -46l-492 -32q-32 -2 -50 -16t-21 -36q-4 -24 11.5 -40.5t37.5 -16.5z" />
    <glyph glyph-name="uni04D6" unicode="&#x4d6;" horiz-adv-x="551" 
d="M39 0l99 700h423l-18 -125h-294l-24 -166h278l-16 -118h-278l-24 -166h295l-17 -125h-424zM383 781q-76 0 -114 34.5t-49 92.5l92 16q6 -29 23.5 -43t45.5 -14q34 0 59.5 17.5t38.5 46.5l89 -30q-26 -58 -70.5 -89t-114.5 -31z" />
    <glyph glyph-name="uni04D7" unicode="&#x4d7;" horiz-adv-x="497" 
d="M230 -10q-64 0 -108 25.5t-66.5 70t-22.5 100.5q0 38 5.5 72.5t14.5 64.5q16 65 48.5 108t79 65t105.5 22q56 0 94 -18.5t59.5 -50.5t27.5 -74.5t-2 -90.5l-33 -62h-300l12 92h208q12 48 -7 74t-61 26q-44 0 -73.5 -32t-42.5 -89q-4 -21 -7.5 -45t-5.5 -57
q-2 -46 22.5 -70.5t61.5 -24.5q26 0 50.5 13t47.5 43l97 -48q-40 -65 -94 -89.5t-110 -24.5zM311 596q-76 0 -114 34.5t-49 92.5l92 16q6 -29 23.5 -43t45.5 -14q34 0 59.5 17.5t38.5 46.5l89 -30q-26 -58 -70.5 -89t-114.5 -31z" />
    <glyph glyph-name="uni04D8" unicode="&#x4d8;" horiz-adv-x="617" 
d="M278 -12q-54 0 -100 16.5t-77.5 54t-44 99.5t0.5 154l11 79l377 3q7 49 4 85.5t-16.5 60t-39.5 35.5t-66 12q-53 0 -100.5 -20t-73.5 -41l-36 116q42 29 97 49.5t128 20.5q116 0 181.5 -63t66.5 -181q0 -92 -16.5 -178.5t-52.5 -154t-96 -107.5t-147 -40zM282 113
q54 0 93.5 39.5t50.5 119.5l-232 -6q-5 -38 -2 -67t13.5 -47.5t30 -28.5t46.5 -10z" />
    <glyph glyph-name="uni04D9" unicode="&#x4d9;" horiz-adv-x="497" 
d="M267 518q64 0 108 -25.5t66.5 -70t22.5 -100.5q0 -38 -5.5 -72.5t-14.5 -65.5q-16 -64 -48 -107.5t-79 -65t-106 -21.5q-56 0 -94 18t-59 50t-27 74.5t1 90.5l33 63h300l-12 -92h-208q-11 -48 7.5 -74t60.5 -26q45 0 74 32t42 88q5 23 8.5 47t4.5 56q2 46 -22 70t-62 24
q-25 0 -50 -12.5t-48 -42.5l-97 48q41 66 94.5 90t109.5 24z" />
    <glyph glyph-name="uni04DA" unicode="&#x4da;" horiz-adv-x="617" 
d="M278 -12q-54 0 -100 16.5t-77.5 54t-44 99.5t0.5 154l11 79l377 3q7 49 4 85.5t-16.5 60t-39.5 35.5t-66 12q-53 0 -100.5 -20t-73.5 -41l-36 116q42 29 97 49.5t128 20.5q116 0 181.5 -63t66.5 -181q0 -92 -16.5 -178.5t-52.5 -154t-96 -107.5t-147 -40zM282 113
q54 0 93.5 39.5t50.5 119.5l-232 -6q-5 -38 -2 -67t13.5 -47.5t30 -28.5t46.5 -10zM414 768l17 117h121l-17 -117h-121zM218 768l17 117h121l-17 -117h-121z" />
    <glyph glyph-name="uni04DB" unicode="&#x4db;" horiz-adv-x="510" 
d="M338 583l17 117h121l-17 -117h-121zM142 583l17 117h121l-17 -117h-121zM267 518q64 0 108 -25.5t66.5 -70t22.5 -100.5q0 -38 -5.5 -72.5t-14.5 -65.5q-16 -64 -48 -107.5t-79 -65t-106 -21.5q-56 0 -94 18t-59 50t-27 74.5t1 90.5l33 63h300l-12 -92h-208
q-11 -48 7.5 -74t60.5 -26q45 0 74 32t42 88q5 23 8.5 47t4.5 56q2 46 -22 70t-62 24q-25 0 -50 -12.5t-48 -42.5l-97 48q41 66 94.5 90t109.5 24z" />
    <glyph glyph-name="uni04DC" unicode="&#x4dc;" horiz-adv-x="855" 
d="M-14 0l199 341l-95 359h144l74 -292h73l41 292h137l-41 -292h61l167 292h149l-198 -339l95 -361h-145l-74 292h-71l-41 -292h-138l41 292h-58l-169 -292h-151zM541 768l17 117h121l-17 -117h-121zM345 768l17 117h121l-17 -117h-121z" />
    <glyph glyph-name="uni04DD" unicode="&#x4dd;" horiz-adv-x="691" 
d="M241 0l29 201h-63l12 108h66l28 199h130l-29 -199h64l-12 -108h-66l-29 -201h-130zM-1 -11l15 112q26 8 43 27t29 47q7 16 12 41.5t8 52.5t3 48q0 32 -13 56t-39 33l15 111q55 -8 91 -37.5t53.5 -70.5t17.5 -85q0 -27 -4 -58.5t-10.5 -61.5t-15.5 -56
q-20 -67 -72.5 -110.5t-132.5 -48.5zM619 -8q-57 7 -94.5 36t-55 71t-17.5 87q0 28 3.5 59t9.5 62t15 56q22 68 76 112t137 46l-16 -110q-29 -4 -48 -24.5t-32 -51.5q-5 -15 -10.5 -39.5t-8.5 -51t-3 -50.5q0 -36 14 -61t44 -31zM427 583l17 117h121l-17 -117h-121zM231 583
l17 117h121l-17 -117h-121z" />
    <glyph glyph-name="uni04DE" unicode="&#x4de;" horiz-adv-x="534" 
d="M227 -9q-63 0 -119.5 18.5t-97.5 55.5l44 112q34 -30 75 -47t101 -17q58 0 92.5 24.5t34.5 74.5q0 37 -25.5 61t-85.5 24h-103l16 117h112q58 0 85.5 27t27.5 70q0 35 -23 57.5t-70 22.5q-46 0 -81.5 -10t-72.5 -32l-37 106q54 33 104.5 44.5t104.5 11.5q67 0 113.5 -23
t70 -64t23.5 -97q0 -58 -29.5 -103.5t-79.5 -68.5q22 -12 40.5 -33t30 -49t11.5 -63q0 -71 -33.5 -119.5t-93 -74t-135.5 -25.5zM382 768l17 117h121l-17 -117h-121zM186 768l17 117h121l-17 -117h-121z" />
    <glyph glyph-name="uni04DF" unicode="&#x4df;" horiz-adv-x="459" 
d="M184 -8q-64 0 -110.5 12.5t-88.5 44.5l49 99q22 -18 42 -27.5t44.5 -12.5t56.5 -3q43 0 72.5 14t29.5 46q0 23 -18 35t-62 12h-67l12 90h63q37 0 63.5 14t26.5 45q-1 20 -17.5 34t-58.5 14q-35 0 -71 -7t-70 -25l-28 100q47 23 91 33t90 10q68 0 110.5 -22.5t62 -56.5
t18.5 -70q0 -42 -21.5 -71t-58.5 -46q27 -10 46 -35t18 -66q0 -52 -33 -88t-84.5 -54.5t-106.5 -18.5zM305 583l17 117h121l-17 -117h-121zM109 583l17 117h121l-17 -117h-121z" />
    <glyph glyph-name="uni04E0" unicode="&#x4e0;" horiz-adv-x="523" 
d="M211 -9q-70 0 -123 17.5t-99 58.5l54 108q36 -35 73.5 -48.5t90.5 -13.5q64 0 102 31.5t38 86.5q-1 35 -27.5 57t-90.5 22h-98l10 79l120 135l58 46q7 4 5 9.5t-9 5.5h-234l17 115h410l-11 -86l-241 -238l-16 43q74 5 128 -15.5t83 -64t28 -106.5q0 -58 -23 -103t-61 -76
t-86 -47t-98 -16z" />
    <glyph glyph-name="uni04E1" unicode="&#x4e1;" horiz-adv-x="471" 
d="M144 -212q-53 0 -93 12t-75 38l46 91q26 -19 51.5 -25t62.5 -6q67 0 110.5 34.5t43.5 93.5q0 41 -23.5 63.5t-72.5 22.5h-95l10 79l115 147l49 39q6 5 4.5 10t-9.5 5h-202l16 116h364l-11 -86l-218 -249l-9 49q60 2 107 -20t74.5 -67t27.5 -112q0 -70 -37 -123.5
t-98.5 -82.5t-137.5 -29z" />
    <glyph glyph-name="uni04E2" unicode="&#x4e2;" horiz-adv-x="644" 
d="M39 0l99 700h137l-48 -345l-27 -86q-1 -7 4 -9.5t9 4.5l279 436h140l-99 -700h-137l48 345l24 86q3 8 -2.5 10.5t-10.5 -4.5l-277 -437h-139zM248 769l15 101h288l-14 -101h-289z" />
    <glyph glyph-name="uni04E3" unicode="&#x4e3;" horiz-adv-x="544" 
d="M181 -10q-70 0 -107.5 42t-25.5 128l48 348h130l-45 -334q-5 -35 9 -51.5t47 -16.5q11 0 23.5 3t28.5 11.5t37 20.5l50 367h130l-72 -508h-128l2 18q2 7 -3 8.5t-11 -1.5l-31 -15.5t-30 -13.5q-12 -3 -25 -4.5t-27 -1.5zM179 584l15 101h288l-14 -101h-289z" />
    <glyph glyph-name="uni04E4" unicode="&#x4e4;" horiz-adv-x="644" 
d="M39 0l99 700h137l-48 -345l-27 -86q-1 -7 4 -9.5t9 4.5l279 436h140l-99 -700h-137l48 345l24 86q3 8 -2.5 10.5t-10.5 -4.5l-277 -437h-139zM434 768l17 117h121l-17 -117h-121zM238 768l17 117h121l-17 -117h-121z" />
    <glyph glyph-name="uni04E5" unicode="&#x4e5;" horiz-adv-x="544" 
d="M181 -10q-70 0 -107.5 42t-25.5 128l48 348h130l-45 -334q-5 -35 9 -51.5t47 -16.5q11 0 23.5 3t28.5 11.5t37 20.5l50 367h130l-72 -508h-128l2 18q2 7 -3 8.5t-11 -1.5l-31 -15.5t-30 -13.5q-12 -3 -25 -4.5t-27 -1.5zM365 583l17 117h121l-17 -117h-121zM169 583
l17 117h121l-17 -117h-121z" />
    <glyph glyph-name="uni04E6" unicode="&#x4e6;" horiz-adv-x="617" 
d="M283 -12q-78 0 -129 33t-76 85t-25 109q0 48 5.5 102.5t16.5 108.5t26 100q25 82 88.5 134t170.5 52q78 0 129.5 -33t76.5 -85t25 -109q0 -47 -5.5 -102t-16.5 -109t-26 -100q-24 -82 -88 -134t-172 -52zM292 113q42 0 73 24t46 67q9 23 16.5 59t13.5 76t9.5 77t3.5 61
q0 51 -26.5 80.5t-76.5 29.5q-42 0 -73 -23.5t-46 -67.5q-8 -22 -15.5 -59t-13.5 -78t-9.5 -77.5t-3.5 -58.5q0 -51 26.5 -80.5t75.5 -29.5zM422 768l17 117h121l-17 -117h-121zM226 768l17 117h121l-17 -117h-121z" />
    <glyph glyph-name="uni04E7" unicode="&#x4e7;" horiz-adv-x="517" 
d="M228 -12q-66 0 -109 29t-64.5 73.5t-21.5 93.5q0 27 4 58t10 62t15 57q23 70 79.5 114t144.5 44q68 0 111 -28t64.5 -73t21.5 -94q0 -27 -3.5 -58.5t-10 -61.5t-15.5 -56q-23 -71 -80 -115.5t-146 -44.5zM237 97q36 0 61 21.5t38 56.5q6 16 11.5 41.5t8.5 52.5t3 48
q0 40 -20.5 67t-61.5 27q-36 0 -60 -21.5t-37 -56.5q-5 -15 -10.5 -39.5t-8.5 -51.5t-3 -51q0 -41 19 -67.5t60 -26.5zM350 583l17 117h121l-17 -117h-121zM154 583l17 117h121l-17 -117h-121z" />
    <glyph glyph-name="uni04E8" unicode="&#x4e8;" horiz-adv-x="617" 
d="M97 298v103h436v-103h-436zM283 -12q-78 0 -129 33t-76 85t-25 109q0 48 5.5 102.5t16.5 108.5t26 100q25 82 88.5 134t170.5 52q78 0 129.5 -33t76.5 -85t25 -109q0 -47 -5.5 -102t-16.5 -109t-26 -100q-24 -82 -88 -134t-172 -52zM292 113q42 0 73 24t46 67
q9 23 16.5 59t13.5 76t9.5 77t3.5 61q0 51 -26.5 80.5t-76.5 29.5q-42 0 -73 -23.5t-46 -67.5q-8 -22 -15.5 -59t-13.5 -78t-9.5 -77.5t-3.5 -58.5q0 -51 26.5 -80.5t75.5 -29.5z" />
    <glyph glyph-name="uni04E9" unicode="&#x4e9;" horiz-adv-x="517" 
d="M106 202v103h328v-103h-328zM228 -12q-66 0 -109 29t-64.5 73.5t-21.5 93.5q0 27 4 58t10 62t15 57q23 70 79.5 114t144.5 44q68 0 111 -28t64.5 -73t21.5 -94q0 -27 -3.5 -58.5t-10 -61.5t-15.5 -56q-23 -71 -80 -115.5t-146 -44.5zM237 97q36 0 61 21.5t38 56.5
q6 16 11.5 41.5t8.5 52.5t3 48q0 40 -20.5 67t-61.5 27q-36 0 -60 -21.5t-37 -56.5q-5 -15 -10.5 -39.5t-8.5 -51.5t-3 -51q0 -41 19 -67.5t60 -26.5z" />
    <glyph glyph-name="uni04EA" unicode="&#x4ea;" horiz-adv-x="617" 
d="M97 298v103h436v-103h-436zM283 -12q-78 0 -129 33t-76 85t-25 109q0 48 5.5 102.5t16.5 108.5t26 100q25 82 88.5 134t170.5 52q78 0 129.5 -33t76.5 -85t25 -109q0 -47 -5.5 -102t-16.5 -109t-26 -100q-24 -82 -88 -134t-172 -52zM292 113q42 0 73 24t46 67
q9 23 16.5 59t13.5 76t9.5 77t3.5 61q0 51 -26.5 80.5t-76.5 29.5q-42 0 -73 -23.5t-46 -67.5q-8 -22 -15.5 -59t-13.5 -78t-9.5 -77.5t-3.5 -58.5q0 -51 26.5 -80.5t75.5 -29.5zM423 768l17 117h121l-17 -117h-121zM227 768l17 117h121l-17 -117h-121z" />
    <glyph glyph-name="uni04EB" unicode="&#x4eb;" horiz-adv-x="517" 
d="M106 202v103h328v-103h-328zM228 -12q-66 0 -109 29t-64.5 73.5t-21.5 93.5q0 27 4 58t10 62t15 57q23 70 79.5 114t144.5 44q68 0 111 -28t64.5 -73t21.5 -94q0 -27 -3.5 -58.5t-10 -61.5t-15.5 -56q-23 -71 -80 -115.5t-146 -44.5zM237 97q36 0 61 21.5t38 56.5
q6 16 11.5 41.5t8.5 52.5t3 48q0 40 -20.5 67t-61.5 27q-36 0 -60 -21.5t-37 -56.5q-5 -15 -10.5 -39.5t-8.5 -51.5t-3 -51q0 -41 19 -67.5t60 -26.5zM357 583l17 117h121l-17 -117h-121zM161 583l17 117h121l-17 -117h-121z" />
    <glyph glyph-name="uni04EC" unicode="&#x4ec;" horiz-adv-x="521" 
d="M181 -12q-50 0 -97.5 13t-84.5 39l65 116q27 -18 56.5 -30.5t73.5 -12.5q49 0 82.5 25t44.5 72q9 46 17 97t13.5 100t5.5 88q0 48 -28 70t-79 22q-37 0 -67 -8t-65 -29l-17 112q45 24 90 37t102 13q69 0 113.5 -29.5t66.5 -78t22 -109.5q0 -50 -4.5 -100t-12.5 -99
t-19 -97q-16 -80 -57.5 -126t-99.5 -65.5t-121 -19.5zM123 291l16 118h286l-16 -118h-286zM354 768l17 117h121l-17 -117h-121zM158 768l17 117h121l-17 -117h-121z" />
    <glyph glyph-name="uni04ED" unicode="&#x4ed;" horiz-adv-x="457" 
d="M165 -12q-45 0 -87.5 13.5t-79.5 43.5l38 99q32 -26 62.5 -36t61.5 -10q52 0 83 27t40 68q8 33 13 64.5t5 61.5q0 41 -20.5 66.5t-71.5 25.5q-35 0 -61.5 -10t-56.5 -27l-28 101q38 22 75 33t79 11q67 0 113 -25.5t69.5 -68t23.5 -95.5q0 -41 -5.5 -83.5t-19.5 -89.5
q-21 -73 -78.5 -121t-154.5 -48zM109 207l14 100h197l-14 -100h-197zM310 583l17 117h121l-17 -117h-121zM114 583l17 117h121l-17 -117h-121z" />
    <glyph glyph-name="uni04EE" unicode="&#x4ee;" horiz-adv-x="532" 
d="M56 -12q-34 0 -61 10t-45 20l42 111q13 -9 28 -14t31 -5q29 0 49 14t39 41l-58 535h135l21 -313l-15 -82q-2 -15 5 -16.5t13 9.5l227 402h148l-297 -490q-53 -88 -95.5 -136t-82 -67t-84.5 -19zM209 769l15 101h288l-14 -101h-289z" />
    <glyph glyph-name="uni04EF" unicode="&#x4ef;" horiz-adv-x="480" 
d="M7 -216l-25 112q53 9 90.5 28t53.5 60l10 25l-94 499h134l37 -193l3 -119q0 -8 6.5 -8t10.5 8l117 312h136l-223 -514q-44 -103 -109.5 -152.5t-146.5 -57.5zM143 584l15 101h288l-14 -101h-289z" />
    <glyph glyph-name="uni04F0" unicode="&#x4f0;" horiz-adv-x="532" 
d="M56 -12q-34 0 -61 10t-45 20l42 111q13 -9 28 -14t31 -5q29 0 49 14t39 41l-58 535h135l21 -313l-15 -82q-2 -15 5 -16.5t13 9.5l227 402h148l-297 -490q-53 -88 -95.5 -136t-82 -67t-84.5 -19zM395 768l17 117h121l-17 -117h-121zM199 768l17 117h121l-17 -117h-121z
" />
    <glyph glyph-name="uni04F1" unicode="&#x4f1;" horiz-adv-x="480" 
d="M7 -216l-25 112q53 9 90.5 28t53.5 60l10 25l-94 499h134l37 -193l3 -119q0 -8 6.5 -8t10.5 8l117 312h136l-223 -514q-44 -103 -109.5 -152.5t-146.5 -57.5zM329 583l17 117h121l-17 -117h-121zM133 583l17 117h121l-17 -117h-121z" />
    <glyph glyph-name="uni04F2" unicode="&#x4f2;" horiz-adv-x="532" 
d="M56 -12q-34 0 -61 10t-45 20l42 111q13 -9 28 -14t31 -5q29 0 49 14t39 41l-58 535h135l21 -313l-15 -82q-2 -15 5 -16.5t13 9.5l227 402h148l-297 -490q-53 -88 -95.5 -136t-82 -67t-84.5 -19zM181 768l153 167h137l-153 -167h-137zM390 768l153 167h137l-153 -167h-137
z" />
    <glyph glyph-name="uni04F3" unicode="&#x4f3;" horiz-adv-x="480" 
d="M7 -216l-25 112q53 9 90.5 28t53.5 60l10 25l-94 499h134l37 -193l3 -119q0 -8 6.5 -8t10.5 8l117 312h136l-223 -514q-44 -103 -109.5 -152.5t-146.5 -57.5zM116 583l153 167h137l-153 -167h-137zM325 583l153 167h137l-153 -167h-137z" />
    <glyph glyph-name="uni04F4" unicode="&#x4f4;" horiz-adv-x="602" 
d="M350 0l40 279q1 8 -2.5 9t-13.5 -4l-60 -25q-13 -2 -28.5 -3t-27.5 -1q-48 0 -89 19t-65 56.5t-24 93.5q0 10 0.5 20.5t1.5 22.5l33 233h141l-33 -231q-1 -5 -1 -10.5v-10.5q0 -39 20.5 -55.5t57.5 -16.5q32 0 59.5 7t43.5 14l46 303h141l-98 -700h-142zM392 768l17 117
h121l-17 -117h-121zM196 768l17 117h121l-17 -117h-121z" />
    <glyph glyph-name="uni04F5" unicode="&#x4f5;" horiz-adv-x="538" 
d="M298 0l28 192q1 8 -3.5 8.5t-13.5 -5.5l-58 -30q-9 -3 -18.5 -3.5t-18.5 -0.5q-51 0 -87 23.5t-52.5 63t-10.5 88.5l24 172h133l-23 -160q-5 -36 12.5 -54t50.5 -18t51.5 13.5t30.5 28.5l28 190h133l-71 -508h-135zM347 583l17 117h121l-17 -117h-121zM151 583l17 117
h121l-17 -117h-121z" />
    <glyph glyph-name="uni04F6" unicode="&#x4f6;" horiz-adv-x="464" 
d="M99 -140l34 231l-10 33h145l-38 -264h-131zM39 0l99 700h371l-18 -125h-230l-81 -575h-141z" />
    <glyph glyph-name="uni04F7" unicode="&#x4f7;" horiz-adv-x="430" 
d="M232 -130l17 125q-30 -6 -63 -6q-92 0 -140 44.5t-38 120.5q4 44 25.5 73.5t60.5 48t97 29.5l56 12q25 6 40 17t15 35q0 18 -14.5 30.5t-45.5 12.5q-43 0 -76.5 -9.5t-67.5 -27.5l-29 101q44 23 85.5 33.5t92.5 10.5q81 0 131 -39.5t47 -107.5q-1 -51 -23 -84.5
t-61.5 -53.5t-93.5 -31l-57 -11q-27 -7 -42.5 -17.5t-16.5 -29.5t12 -34t45 -15q30 0 51.5 1.5t41.5 4.5t46 9t64 16l-36 -258h-123z" />
    <glyph glyph-name="uni04F8" unicode="&#x4f8;" horiz-adv-x="841" 
d="M39 0l99 700h141l-39 -272h80q113 0 171.5 -52t58.5 -148q0 -74 -27.5 -124.5t-79 -77t-124.5 -26.5h-280zM196 115h124q49 0 75.5 28t26.5 76q0 45 -25.5 69.5t-76.5 24.5h-96zM589 0l99 700h141l-99 -700h-141zM533 768l17 117h121l-17 -117h-121zM337 768l17 117h121
l-17 -117h-121z" />
    <glyph glyph-name="uni04F9" unicode="&#x4f9;" horiz-adv-x="743" 
d="M505 0l72 508h132l-71 -508h-133zM221 -9q-90 0 -131.5 44t-34.5 109l51 364h132l-22 -162h71q88 0 136.5 -39t47.5 -108q0 -66 -33.5 -112.5t-89.5 -71t-127 -24.5zM233 93q46 0 75.5 24.5t29.5 71.5q0 26 -17 39.5t-42 13.5h-78l-13 -95q-2 -25 8 -39.5t37 -14.5z
M432 583l17 117h121l-17 -117h-121zM236 583l17 117h121l-17 -117h-121z" />
    <glyph glyph-name="uni04FA" unicode="&#x4fa;" horiz-adv-x="495" 
d="M-10 -223l-24 119q42 10 70.5 37.5t34.5 67.5l141 -1q-13 -93 -69.5 -147t-152.5 -76zM39 302l14 103h328l-14 -103h-328zM71 0l99 700h371l-18 -125h-230l-81 -575h-141z" />
    <glyph glyph-name="uni04FB" unicode="&#x4fb;" horiz-adv-x="487" 
d="M22 -222l-13 117q48 12 85 39.5t48 69.5l133 -8q-21 -73 -61 -119t-90.5 -69t-101.5 -30zM213 -11q-91 0 -139 44.5t-38 120.5q4 44 25.5 73.5t60.5 48t97 29.5l56 12q25 6 40 17t15 35q0 18 -14.5 30.5t-45.5 12.5q-44 0 -77 -9.5t-67 -27.5l-29 101q44 23 85.5 33.5
t91.5 10.5q82 0 131.5 -39.5t47.5 -107.5q-2 -51 -23.5 -84.5t-61 -53.5t-93.5 -31l-57 -11q-27 -7 -42.5 -17.5t-16.5 -29.5t11.5 -34t45.5 -15q28 0 52 3.5t50 14t60 30.5l29 -101q-49 -29 -94.5 -42t-99.5 -13zM16 203l15 103h446l-15 -103h-446z" />
    <glyph glyph-name="uni04FC" unicode="&#x4fc;" horiz-adv-x="558" 
d="M245 -223l-24 118q41 8 67.5 36.5t35.5 70.5q11 48 1 106l-22 109l-1 73q0 8 -5 8t-10 -8l-151 -290h-152l203 347l-88 353h141l37 -205l-2 -79q0 -8 5.5 -8.5t9.5 7.5l154 285h153l-202 -328l60 -239q9 -36 12 -70t0 -65q-12 -90 -71.5 -146.5t-150.5 -74.5z" />
    <glyph glyph-name="uni04FD" unicode="&#x4fd;" horiz-adv-x="499" 
d="M218 -222l-26 116q37 6 64 29t36.5 59.5t-7.5 81.5l-20 60l-6 62q0 9 -6.5 8.5t-11.5 -8.5l-112 -186h-143l168 254l-94 254h138l37 -122l7 -69q2 -8 7 -8t10 8l113 191h141l-167 -254l55 -153q18 -50 16.5 -101.5t-23 -97t-65.5 -78.5t-111 -46z" />
    <glyph glyph-name="uni04FE" unicode="&#x4fe;" horiz-adv-x="568" 
d="M327 304v103h194v-103h-194zM55 304v103h186v-103h-186zM-11 0l203 353l-88 347h141l37 -197l-2 -87q0 -8 5.5 -8.5t9.5 7.5l154 285h153l-202 -335l91 -365h-143l-40 210l-1 80q0 8 -5 8t-10 -8l-151 -290h-152z" />
    <glyph glyph-name="uni04FF" unicode="&#x4ff;" horiz-adv-x="504" 
d="M59 202v103h149v-103h-149zM300 202v103h147v-103h-147zM-11 0l168 254l-95 254h138l38 -122l7 -69q1 -8 6 -8t10 8l114 191h140l-167 -254l94 -254h-137l-38 124l-6 62q0 9 -6.5 8.5t-11.5 -8.5l-111 -186h-143z" />
    <glyph glyph-name="Wgrave" unicode="&#x1e80;" horiz-adv-x="634" 
d="M71 0l13 700h125l-3 -318l-16 -121q-1 -10 5.5 -10t9.5 8l105 249h69l30 -251q2 -10 9 -10t8 10l22 122l86 321h127l-183 -700h-134l-22 243q-1 9 -8 10t-11 -9l-98 -244h-134zM334 768l-107 167h131l107 -167h-131z" />
    <glyph glyph-name="wgrave" unicode="&#x1e81;" horiz-adv-x="655" 
d="M84 1l-8 507h122l1 -208l-12 -110q-1 -10 6 -9.5t10 8.5l117 319h83l26 -317q1 -11 8.5 -11t9.5 12l20 109l60 207h124l-151 -507h-132l-30 260q-1 9 -7 9t-9 -9l-106 -260h-132zM318 583l-107 167h131l107 -167h-131z" />
    <glyph glyph-name="Wacute" unicode="&#x1e82;" horiz-adv-x="634" 
d="M71 0l13 700h125l-3 -318l-16 -121q-1 -10 5.5 -10t9.5 8l105 249h69l30 -251q2 -10 9 -10t8 10l22 122l86 321h127l-183 -700h-134l-22 243q-1 9 -8 10t-11 -9l-98 -244h-134zM296 768l153 167h137l-153 -167h-137z" />
    <glyph glyph-name="wacute" unicode="&#x1e83;" horiz-adv-x="655" 
d="M84 1l-8 507h122l1 -208l-12 -110q-1 -10 6 -9.5t10 8.5l117 319h83l26 -317q1 -11 8.5 -11t9.5 12l20 109l60 207h124l-151 -507h-132l-30 260q-1 9 -7 9t-9 -9l-106 -260h-132zM280 583l153 167h137l-153 -167h-137z" />
    <glyph glyph-name="Wdieresis" unicode="&#x1e84;" horiz-adv-x="634" 
d="M71 0l13 700h125l-3 -318l-16 -121q-1 -10 5.5 -10t9.5 8l105 249h69l30 -251q2 -10 9 -10t8 10l22 122l86 321h127l-183 -700h-134l-22 243q-1 9 -8 10t-11 -9l-98 -244h-134zM431 768l17 117h121l-17 -117h-121zM235 768l17 117h121l-17 -117h-121z" />
    <glyph glyph-name="wdieresis" unicode="&#x1e85;" horiz-adv-x="655" 
d="M84 1l-8 507h122l1 -208l-12 -110q-1 -10 6 -9.5t10 8.5l117 319h83l26 -317q1 -11 8.5 -11t9.5 12l20 109l60 207h124l-151 -507h-132l-30 260q-1 9 -7 9t-9 -9l-106 -260h-132zM415 583l17 117h121l-17 -117h-121zM219 583l17 117h121l-17 -117h-121z" />
    <glyph glyph-name="Ygrave" unicode="&#x1ef2;" horiz-adv-x="502" 
d="M144 0l40 273l-121 427h143l44 -166l9 -119q1 -8 6.5 -8.5t10.5 8.5l144 285h145l-241 -427l-40 -273h-140zM268 768l-107 167h131l107 -167h-131z" />
    <glyph glyph-name="ygrave" unicode="&#x1ef3;" horiz-adv-x="480" 
d="M7 -216l-25 112q53 9 90.5 28t53.5 60l10 25l-94 499h134l37 -193l3 -119q0 -8 6.5 -8t10.5 8l117 312h136l-223 -514q-44 -103 -109.5 -152.5t-146.5 -57.5zM223 583l-107 167h131l107 -167h-131z" />
    <glyph glyph-name="uni2002" unicode="&#x2002;" horiz-adv-x="585" 
 />
    <glyph glyph-name="uni2003" unicode="&#x2003;" horiz-adv-x="1161" 
 />
    <glyph glyph-name="endash" unicode="&#x2013;" horiz-adv-x="585" 
d="M43 204l17 120h485l-17 -120h-485z" />
    <glyph glyph-name="emdash" unicode="&#x2014;" horiz-adv-x="757" 
d="M43 204l17 120h657l-17 -120h-657z" />
    <glyph glyph-name="quoteleft" unicode="&#x2018;" horiz-adv-x="243" 
d="M294 753l-17 -71q-55 -7 -91 -43.5t-44 -93.5l80 4l-18 -134h-158l14 105q12 80 46.5 129t83.5 74t104 30z" />
    <glyph glyph-name="quoteright" unicode="&#x2019;" horiz-adv-x="312" 
d="M42 412l16 70q56 8 92 45t43 93l-80 -4l19 134h157l-14 -106q-11 -79 -45.5 -128.5t-83.5 -74t-104 -29.5z" />
    <glyph glyph-name="quotesinglbase" unicode="&#x201a;" horiz-adv-x="303" 
d="M-69 -205l16 68q70 4 115 43t54 98l-82 -4l20 134h157l-15 -111q-11 -77 -50 -126.5t-95.5 -74.5t-119.5 -27z" />
    <glyph glyph-name="quotedblleft" unicode="&#x201c;" horiz-adv-x="502" 
d="M306 753l-17 -71q-55 -7 -91 -43.5t-44 -93.5l78 4l-19 -134h-155l14 105q12 80 46 129t83.5 74t104.5 30zM536 753l-17 -71q-55 -7 -91 -43.5t-44 -93.5l78 4l-19 -134h-155l14 105q12 80 46.5 129t83.5 74t104 30z" />
    <glyph glyph-name="quotedblright" unicode="&#x201d;" horiz-adv-x="543" 
d="M272 412l16 70q56 8 92 45t44 93l-78 -4l18 134h156l-15 -106q-11 -79 -45.5 -128.5t-83.5 -74t-104 -29.5zM42 412l16 70q56 8 92 45t43 93l-77 -4l18 134h155l-14 -106q-11 -79 -45.5 -128.5t-83.5 -74t-104 -29.5z" />
    <glyph glyph-name="quotedblbase" unicode="&#x201e;" horiz-adv-x="501" 
d="M161 -204l16 70q56 8 92 45t44 93l-78 -4l18 134h156l-15 -106q-11 -79 -45.5 -128.5t-83.5 -74t-104 -29.5zM-69 -204l16 70q56 8 92 45t43 93l-77 -4l18 134h155l-14 -106q-11 -79 -45.5 -128.5t-83.5 -74t-104 -29.5z" />
    <glyph glyph-name="dagger" unicode="&#x2020;" horiz-adv-x="541" 
d="M247 334l35 252h-116l10 65h116l18 131h70l-18 -131h115l-9 -65h-115l-35 -252h-71z" />
    <glyph glyph-name="bullet" unicode="&#x2022;" horiz-adv-x="382" 
d="M191 212q-61 0 -82.5 32t-21.5 79q0 77 31 123t99 46q60 0 83 -30t23 -75q0 -78 -31 -126.5t-101 -48.5z" />
    <glyph glyph-name="ellipsis" unicode="&#x2026;" horiz-adv-x="795" 
d="M292 0l19 138h140l-20 -138h-139zM544 0l19 138h140l-20 -138h-139zM39 0l19 138h140l-20 -138h-139z" />
    <glyph glyph-name="guilsinglleft" unicode="&#x2039;" horiz-adv-x="378" 
d="M155 50l-116 138l11 90l154 137h147l-210 -179q-7 -5 -6.5 -11t4.5 -9l42 -26l117 -140h-143z" />
    <glyph glyph-name="guilsinglright" unicode="&#x203a;" horiz-adv-x="378" 
d="M20 50l214 181q6 5 5.5 11t-5.5 9l-43 24l-117 140h143l116 -137l-11 -90l-154 -138h-148z" />
    <glyph glyph-name="fraction" unicode="&#x2044;" horiz-adv-x="265" 
d="M-121 0l382 700h148l-381 -700h-149z" />
    <glyph glyph-name="uni2070" unicode="&#x2070;" horiz-adv-x="478" 
d="M237 507l20 141h75l-20 -141h-75zM260 342q-76 0 -123.5 43t-47.5 111q0 48 8 99t22 93q19 58 67.5 91.5t121.5 33.5q51 0 89.5 -19.5t60.5 -54t22 -79.5q0 -46 -7.5 -97.5t-22.5 -96.5q-19 -56 -67 -90t-123 -34zM267 453q24 0 41 13t23 27q6 10 10.5 31t8 46t5.5 47.5
t2 34.5q0 23 -14.5 36.5t-40.5 13.5t-43 -13.5t-23 -26.5q-4 -10 -8 -32t-7.5 -48t-6 -48.5t-2.5 -31.5q0 -22 14 -35.5t41 -13.5z" />
    </font>
</defs>
</svg>
