<svg xmlns="http://www.w3.org/2000/svg" xmlns:xlink="http://www.w3.org/1999/xlink" xml:space="preserve" id="Слой_1" x="0" y="0" style="enable-background:new 0 0 245 254" version="1.1" viewBox="0 0 245 254"><style>.st1{fill:#39373a}.st2,.st4{fill:none;stroke:#39373a;stroke-width:.977}.st4{stroke-width:.586}.st6{fill:#39373a}.st6,.st7{clip-path:url(#SVGID_6_)}.st7,.st8{fill:none;stroke:#39373a;stroke-width:.244}.st10,.st9{clip-path:url(#SVGID_8_)}.st9{fill:#39373a}.st10,.st12{fill:none;stroke:#39373a;stroke-width:.244}.st12{clip-path:url(#SVGID_12_);stroke-width:.586}.st13{clip-path:url(#SVGID_14_);fill:#39373a}.st14,.st16{fill:none;stroke:#39373a}.st14{clip-path:url(#SVGID_14_);stroke-width:.244}.st16{stroke-width:.653}</style><switch><g><path d="M28.3 25.9h192.4v151H28.3z" style="fill:#b7e0e6"/><path d="M124.8 188.8h28.4v-2.3h-2.9v-9.2h-25.5z" class="st1"/><path d="M124.8 188.8h28.4v-2.3h-2.9v-9.2h-25.5z" class="st2"/><path d="M25.2 188.8h21.9v-2.3h-2.9v-9.2h-19z" class="st1"/><path d="M25.2 188.8h21.9v-2.3h-2.9v-9.2h-19z" class="st2"/><path d="M220.7 188.8h-27.6v-2.3h2.2v-9.2h25.4z" class="st1"/><path d="M220.7 188.8h-27.6v-2.3h2.2v-9.2h25.4z" class="st2"/><path d="M128.9 188.8h-28.3v-2.3h2.9v-9.2h25.4z" class="st1"/><path d="M128.9 188.8h-28.3v-2.3h2.9v-9.2h25.4z" class="st2"/><path d="M23.2 21.6h4.7v195.2h-4.7z" class="st1"/><defs><path id="SVGID_1_" d="M21 21.1h205.9v209.6H21z"/></defs><clipPath id="SVGID_2_"><use xlink:href="#SVGID_1_" style="overflow:visible"/></clipPath><path d="M23.2 21.6h4.7v195.2h-4.7z" style="clip-path:url(#SVGID_2_);fill:none;stroke:#39373a;stroke-width:.977"/><path d="M27.3 21.1h112.9v4.8H27.3zm133 0h64v4.8h-64z" class="st1"/><path d="M120.3 21.9h5.4v21.5h-5.4zm1 44.5h4.8v114.1h-4.8zm0 140.2h4.8v24.2h-4.8zm98.2-184.2h4.8v208.3h-4.8z" class="st1"/><path stroke-width=".586" d="m25.486 214.478.387-2.672 97.179 14.092-.388 2.672z" class="st4"/><path d="M123.4 225.4h98.2v2.7h-98.2z" class="st4"/><path stroke-width=".586" d="m178.523 176.022.46-.774 18.394 10.938-.46.773z" class="st4"/><path d="M131.4 186.3h46.3v2.7h-46.3zm1-9.2h42.8v9.2h-42.8z" class="st4"/><defs><path id="SVGID_3_" d="M21 21.1h205.9v209.6H21z"/></defs><clipPath id="SVGID_4_"><use xlink:href="#SVGID_3_" style="overflow:visible"/></clipPath><path d="M178.4 176.1s-1.1 1.5-1.6 4.9c-.5 3.4-.4 5.2-.4 5.2" style="clip-path:url(#SVGID_4_);fill:none;stroke:#39373a;stroke-width:.391"/><path d="M33.5 186.3h51.6v2.7H33.5zm.4-9.2h49.2v9.2H33.9z" class="st4"/><defs><path id="SVGID_5_" d="M21 21.1h205.9v209.6H21z"/></defs><clipPath id="SVGID_6_"><use xlink:href="#SVGID_5_" style="overflow:visible"/></clipPath><path d="M200.9 97.1c0-2.8 2.2-5 5-5h7.2c.5 0 .9.4.9.9v8.3c0 .5-.4.9-.9.9h-7.2c-2.7-.1-5-2.3-5-5.1m13.5 4.2V93c0-.7-.5-1.2-1.2-1.2H206c-2.9 0-5.3 2.4-5.3 5.3s2.4 5.3 5.3 5.3h7.2c.6.1 1.2-.5 1.2-1.1" class="st6"/><path d="M200.9 97.1c0-2.8 2.2-5 5-5h7.2c.5 0 .9.4.9.9v8.3c0 .5-.4.9-.9.9h-7.2c-2.7-.1-5-2.3-5-5.1zm13.5 4.2V93c0-.7-.5-1.2-1.2-1.2H206c-2.9 0-5.3 2.4-5.3 5.3s2.4 5.3 5.3 5.3h7.2c.6.1 1.2-.5 1.2-1.1z" class="st7"/><path d="M211.6 93.6v7.2s0 .1-.1.1H206c-2 0-3.7-1.7-3.7-3.7s1.7-3.7 3.7-3.7l5.6.1c0-.1 0-.1 0 0z" class="st7"/><path d="M211.5 93.6v7h-5.4c-1.9 0-3.5-1.6-3.5-3.5s1.6-3.5 3.5-3.5h5.4zm.3 7.1v-7.2c0-.1-.1-.3-.3-.3H206c-2.1 0-3.8 1.7-3.8 3.8 0 2.1 1.7 3.8 3.8 3.8h5.5c.2.2.3.1.3-.1" class="st6"/><path d="M211.5 93.6v7h-5.4c-1.9 0-3.5-1.6-3.5-3.5s1.6-3.5 3.5-3.5h5.4zm.3 7.1v-7.2c0-.1-.1-.3-.3-.3H206c-2.1 0-3.8 1.7-3.8 3.8 0 2.1 1.7 3.8 3.8 3.8h5.5c.2.2.3.1.3-.1z" class="st7"/><path d="M206.1 97.1c0-.5.4-.9.9-.9s.9.4.9.9-.4.9-.9.9-.9-.3-.9-.9m2.2 0c0-.7-.6-1.3-1.3-1.3-.7 0-1.3.6-1.3 1.3 0 .7.6 1.3 1.3 1.3.7 0 1.3-.5 1.3-1.3" class="st6"/><path d="M206.1 97.1c0-.5.4-.9.9-.9s.9.4.9.9-.4.9-.9.9-.9-.3-.9-.9zm2.2 0c0-.7-.6-1.3-1.3-1.3-.7 0-1.3.6-1.3 1.3 0 .7.6 1.3 1.3 1.3.7 0 1.3-.5 1.3-1.3z" class="st7"/><path d="m210.9 94.4-.2-.3-2.3 1.7.2.3z" class="st1"/><path d="m210.9 94.4-.2-.3-2.3 1.7.2.3z" class="st8"/><path d="m210.9 99.9-2.3-1.7-.2.2 2.3 1.8z" class="st1"/><path d="m210.9 99.9-2.3-1.7-.2.2 2.3 1.8z" class="st8"/><defs><path id="SVGID_7_" d="M21 21.1h205.9v209.6H21z"/></defs><clipPath id="SVGID_8_"><use xlink:href="#SVGID_7_" style="overflow:visible"/></clipPath><path d="M214.4 93.7c0-.8.6-1.4 1.4-1.4h1.9c.8 0 1.4.6 1.4 1.4v6.9c0 .8-.6 1.4-1.4 1.4h-1.9c-.8 0-1.4-.6-1.4-1.4v-6.9zm5 6.9v-6.9c0-1-.8-1.7-1.7-1.7h-1.9c-1 0-1.7.8-1.7 1.7v6.9c0 1 .8 1.7 1.7 1.7h1.9c.9 0 1.7-.8 1.7-1.7" class="st9"/><path d="M214.4 93.7c0-.8.6-1.4 1.4-1.4h1.9c.8 0 1.4.6 1.4 1.4v6.9c0 .8-.6 1.4-1.4 1.4h-1.9c-.8 0-1.4-.6-1.4-1.4v-6.9zm5 6.9v-6.9c0-1-.8-1.7-1.7-1.7h-1.9c-1 0-1.7.8-1.7 1.7v6.9c0 1 .8 1.7 1.7 1.7h1.9c.9 0 1.7-.8 1.7-1.7z" class="st10"/><path d="M216.2 97.1c0-.3.2-.5.5-.5s.5.2.5.5-.2.5-.5.5c-.3.1-.5-.2-.5-.5m1.4 0c0-.5-.4-.9-.9-.9s-.9.4-.9.9.4.9.9.9.9-.4.9-.9" class="st9"/><path d="M216.2 97.1c0-.3.2-.5.5-.5s.5.2.5.5-.2.5-.5.5c-.3.1-.5-.2-.5-.5zm1.4 0c0-.5-.4-.9-.9-.9s-.9.4-.9.9.4.9.9.9.9-.4.9-.9z" class="st10"/><path d="M63.6 206.5h1.8c.9 0 1.1-.3 1.2-1.5-.4.3-.8.4-1.4.4-1.5 0-1.9-.8-1.9-2.1 0-1.7.5-2.4 2.5-2.4 2.1 0 2.5.7 2.5 3.4 0 3-.8 3.5-2.9 3.5-.4 0-1.1 0-1.8-.2v-1.1zm2.1-2.3c.3 0 .5-.1.8-.2 0-1.5-.1-1.7-.8-1.7-.7 0-.8.3-.8 1.1.1.6.2.8.8.8zm4.4 1.9c.5 0 .6.1.6.6v.4c0 .5-.1.6-.6.6h-.4c-.5 0-.6-.1-.6-.6v-.4c0-.5.1-.6.6-.6h.4zm7 .1-.8.2v1.4h-1.6v-1.4h-2.6c-.6 0-.9-.5-.7-1l1.7-4.2h1.7l-1.4 3.8c-.1.2 0 .3.2.3h1.3v-1.7l.3-1h1.4v2.7h.8v.9zm5.7-5.3c-1.1.5-1.4 1.8-1.4 3.8 0 2 .4 3.4 1.4 3.8l-.2.7c-2-.6-2.9-2-2.9-4.6 0-2.6.9-4 2.9-4.6l.2.9z" class="st1"/><path d="m88.5 206.2-.8.2v1.4h-1.6v-1.4h-2.6c-.6 0-.9-.5-.7-1l1.7-4.2h1.7l-1.4 3.8c-.1.2 0 .3.2.3h1.3v-1.7l.3-1H88v2.7h.8v.9zm1.7-.1c.5 0 .6.1.6.6v.4c0 .5-.1.6-.6.6h-.4c-.5 0-.6-.1-.6-.6v-.4c0-.5.1-.6.6-.6h.4zm5-5c.5 0 .8.4.7.9l-2 5.7h-1.8l1.6-4.5c.1-.2.2-.5.3-.7h-2.9l-.1-1.4h4.2zm1.2-1c2 .6 2.9 2 2.9 4.6 0 2.6-.9 4-2.9 4.6l-.2-.7c1.1-.5 1.4-1.9 1.4-3.8 0-2-.4-3.4-1.4-3.8l.2-.9zm-31.3-83.5c1.3.2 1.4.7 2.2 3.4h-1.9c-.7-2.4-.8-2.8-1.5-2.8h-.3c0 .2.1.4.1.6v2.2H62v-2.2c0-.2 0-.4.1-.6h-.3c-.6 0-.7.4-1.5 2.8h-1.9c.8-2.7.9-3.2 2.2-3.4v-.1c-1.3-.2-1.3-.8-2-3.1h1.8c.6 2 .7 2.6 1.3 2.6h.3c-.1-.3-.1-.6-.1-.8v-1.8h1.7v1.8c0 .3 0 .5-.1.8h.3c.6 0 .8-.6 1.4-2.6H67c-.6 2.4-.6 3-1.9 3.2zm6.2 3.5V118c0-.3 0-.5.1-.8-.1.3-.2.6-.4.8l-1.5 2.2H68v-4.8h1.5v2.2c0 .2 0 .5-.1.7.1-.3.2-.5.4-.7l1.5-2.3h1.5v4.8h-1.5zm7.4 0H77v-3.6h-.4c-.3 0-.4.1-.5.4-.1.7-.2 1.5-.3 2-.2 1.2-1.1 1.4-2.2 1.2l-.2-1.3c.4-.1.7-.1.8-.4.1-.3.2-1 .2-1.9.1-.8.5-1.2 1.3-1.2h2.9v4.8zm1-4.7c.7-.1 1.9-.2 2.6-.2 1.3 0 2 .4 2 1.9v3h-1.4l-.2-.7c-.3.4-.9.8-1.7.8-.9 0-1.6-.5-1.6-1.4v-.5c0-.8.6-1.2 1.5-1.2h1.6v-.1c0-.4-.2-.5-.7-.5-.5 0-1.2 0-2 .1l-.1-1.2zm1.5 3.2c0 .2.2.4.5.4s.6-.1.9-.3v-.6h-1c-.3 0-.4.2-.4.4v.1zm5.1-.6c-.8-.2-1-.7-1-1.3 0-1.2.4-1.5 2.2-1.5 1.3 0 1.8 0 2.4.1v4.8h-1.7v-1.6h-.6c-.3 0-.4.1-.4.3l-.3 1.3H85l.4-1.5c.1-.4.6-.5.9-.6zm1.8-1.6h-.7c-.5 0-.5.1-.5.4 0 .5.1.6.5.6h.7v-1zm-30.7 12.7c1.1.2 1.2.2 1.8 2.5h-1.8c-.5-1.8-.5-1.9-1-1.9H56c0 .1.1.3.1.4v1.5h-1.7v-4.8H56v1.1c0 .2 0 .4-.1.6h.2c.7 0 .7-.1 1.1-1.7H59c-.6 2-.5 2.1-1.6 2.3zm7.3.1c0 1.8-.7 2.5-2.6 2.5-1.9 0-2.6-.7-2.6-2.5s.7-2.5 2.6-2.5c1.9 0 2.6.7 2.6 2.5zm-3.3 0c0 1 .2 1.3.7 1.3.6 0 .7-.2.7-1.3s-.2-1.3-.7-1.3c-.5 0-.7.3-.7 1.3zm10.2-2.4c.4 0 .6.2.6.6l.1 4.2h-1.6l-.1-3.5h-.1l-.6 2.3c-.1.4-.3.5-.7.5h-.8c-.4 0-.6-.2-.7-.5l-.6-2.3H67l-.1 3.5h-1.6l.1-4.2c0-.4.2-.6.6-.6h1.5c.4 0 .6.2.6.5l.4 1.8c.1.2.1.5.1.7h.1c0-.2 0-.5.1-.7l.4-1.8c.1-.4.3-.5.7-.5h1.7zm6.6 4.8h-1.7v-1.9H75v1.9h-1.7v-4.8H75v1.7h1.5v-1.7h1.7v4.8zm1-4.7c.7-.1 1.9-.2 2.6-.2 1.3 0 2 .4 2 1.9v3h-1.4l-.2-.7c-.3.4-.9.8-1.7.8-.9 0-1.6-.5-1.6-1.4v-.5c0-.8.6-1.2 1.5-1.2H82v-.1c0-.4-.2-.5-.7-.5-.5 0-1.2 0-2 .1l-.1-1.2zm1.5 3.2c0 .2.2.4.5.4s.6-.1.9-.3v-.6h-1c-.3 0-.4.2-.4.4v.1zm7-2v3.5H86v-3.5h-1.5v-1.3h4.8v1.3h-1.6zm2.1-1.2c.7-.1 1.9-.2 2.6-.2 1.3 0 2 .4 2 1.9v3H93l-.2-.7c-.3.4-.9.8-1.7.8-.9 0-1.6-.5-1.6-1.4v-.5c0-.8.6-1.2 1.5-1.2h1.6v-.1c0-.4-.2-.5-.7-.5-.5 0-1.2 0-2 .1l-.1-1.2zm1.5 3.2c0 .2.2.4.5.4s.6-.1.9-.3v-.6h-1c-.3 0-.4.2-.4.4v.1zm-24.6 13v-4.4c0-.3 0-.5.1-.8l-1.5.3-.2-1.1 1.7-.7h1.8v6.6h-1.9zm3.3-1.2h1.8c.9 0 1.1-.3 1.2-1.5-.4.3-.8.4-1.4.4-1.5 0-1.9-.8-1.9-2.1 0-1.7.5-2.4 2.5-2.4 2.1 0 2.5.7 2.5 3.4 0 3-.8 3.5-2.9 3.5-.4 0-1.1 0-1.8-.2v-1.1zm2.1-2.3c.3 0 .5-.1.8-.2 0-1.5-.1-1.7-.8-1.7-.7 0-.8.3-.8 1.1 0 .6.1.8.8.8zm4.3 1.9c.5 0 .6.1.6.6v.4c0 .5-.1.6-.6.6H76c-.5 0-.6-.1-.6-.6v-.4c0-.5.1-.6.6-.6h.4zm6.9-1.7c0 2.6-.7 3.4-2.7 3.4s-2.7-.9-2.7-3.4c0-2.6.7-3.4 2.7-3.4 2-.1 2.7.8 2.7 3.4zm-3.7 0c0 1.8.2 2.1.9 2.1s.9-.3.9-2.1-.2-2.1-.9-2.1-.9.3-.9 2.1zm63-79.6-.1.9 1.1.1c1.5.2 1.9 1.1 1.9 2.2 0 1.2-.5 2.2-2.4 2.2-.7 0-1.5-.1-2.4-.2l.2-1.4c.6 0 1.2.1 1.7.1.9 0 1.1-.2 1.1-.7 0-.6-.3-.7-1.2-.8l-1-.1c-.3 0-.5-.3-.5-.6l.2-3h4.1l-.1 1.3h-2.6zm4.7 3.7c.5 0 .6.1.6.6v.4c0 .5-.1.6-.6.6h-.4c-.5 0-.6-.1-.6-.6v-.4c0-.5.1-.6.6-.6h.4zm3.1-3.7-.1.9 1.1.1c1.5.2 1.9 1.1 1.9 2.2 0 1.2-.5 2.2-2.4 2.2-.7 0-1.5-.1-2.4-.2l.2-1.4c.6 0 1.2.1 1.7.1.9 0 1.1-.2 1.1-.7 0-.6-.3-.7-1.2-.8l-1-.1c-.3 0-.5-.3-.5-.6l.2-3h4.1l-.1 1.3h-2.6zM186 80c.7-.1 1.5-.2 2.2-.2 1.6 0 2.2.4 2.2 1.5 0 1-.2 1.5-1.1 1.7.9.1 1.2.7 1.2 1.7 0 1.4-.6 2-2.4 2-.8 0-1.6-.1-2.4-.2l.1-1.3c.8 0 1.3.1 1.8.1.8 0 1.1-.1 1.1-.8 0-.6-.2-.8-.9-.8h-1.3v-1.2h1.3c.7 0 .8-.3.8-.7 0-.5-.2-.6-.9-.6h-1.8l.1-1.2zm6.5 4.9c.5 0 .6.1.6.6v.4c0 .5-.1.6-.6.6h-.4c-.5 0-.6-.1-.6-.6v-.4c0-.5.1-.6.6-.6h.4zm7 .1-.8.2v1.4H197v-1.4h-2.6c-.6 0-.9-.5-.7-1l1.7-4.2h1.7l-1.4 3.8c-.1.2 0 .3.2.3h1.3v-1.7l.3-1h1.4V84h.8v1zm-36.3 54.2c1.4.2 1.4.7 2.3 3.4h-1.9c-.7-2.4-.8-2.8-1.7-2.8h-.3c0 .2.1.4.1.6v2.2h-1.8V136h1.8v1.8c0 .3 0 .6-.1.8h.3c.9 0 1.1-.6 1.6-2.6h1.8c-.7 2.3-.8 2.9-2.1 3.2zm6.3 3.3c-.3 1.1-.9 1.6-1.6 1.9-.6.2-1.3.2-2 .1l.1-1.1c.6 0 1 0 1.3-.2.2-.1.4-.3.5-.6h-.3c-.3 0-.5-.2-.6-.4l-1.5-4.4h1.9l.7 2.8c0 .3.1.5.1.8h.1c.1-.3.2-.6.2-.8l.7-2.8h1.9l-1.5 4.7zm4.4-1.8-1 1.9h-1.8l1.4-2.4-1.3-2.3h1.7l.9 1.8.9-1.8h1.7l-1.3 2.3 1.4 2.4h-1.8l-.8-1.9zm8.2 1.9h-1.7v-1.9H179v1.9h-1.7v-4.8h1.7v1.7h1.5v-1.7h1.7v4.8zm2-2.1c-.8-.2-1-.7-1-1.3 0-1.2.4-1.5 2.2-1.5 1.3 0 1.8 0 2.4.1v4.8H186V141h-.6c-.3 0-.4.1-.4.3l-.3 1.3h-1.8l.4-1.5c0-.4.5-.5.8-.6zm1.9-1.6h-.7c-.5 0-.5.1-.5.4 0 .5.1.6.5.6h.7v-1zm-18 11.8c-.7-.1-1-.8-1-1.5 0-1.2.4-1.8 2.4-1.8s2.4.5 2.4 1.8c0 .7-.3 1.4-1 1.5.9.1 1.2.9 1.2 1.8 0 1.3-.5 1.8-2.6 1.8s-2.6-.5-2.6-1.8c.1-.9.3-1.7 1.2-1.8zm.5 1.4c0 .7.2.8.9.8s.9-.2.9-.8c0-.7-.2-.9-.9-.9s-.9.2-.9.9zm.1-2.7c0 .6.2.7.8.7.7 0 .8-.1.8-.7 0-.7-.2-.8-.8-.8-.6 0-.8.1-.8.8zm5.3 3.1c.5 0 .6.1.6.6v.4c0 .5-.1.6-.6.6h-.4c-.5 0-.6-.1-.6-.6v-.4c0-.5.1-.6.6-.6h.4zm2.6-1.8c-.7-.1-1-.8-1-1.5 0-1.2.4-1.8 2.4-1.8s2.4.5 2.4 1.8c0 .7-.3 1.4-1 1.5 1 .1 1.2.9 1.2 1.8 0 1.3-.5 1.8-2.6 1.8s-2.6-.5-2.6-1.8c0-.9.3-1.7 1.2-1.8zm.5 1.4c0 .7.2.8.9.8s.9-.2.9-.8c0-.7-.2-.9-.9-.9s-.9.2-.9.9zm.1-2.7c0 .6.2.7.8.7.7 0 .8-.1.8-.7 0-.7-.2-.8-.8-.8-.6 0-.8.1-.8.8zM66.5 101.3l-1.9.4v3.4h-4v-3.4h-6.4c-1.3 0-2.2-1.2-1.7-2.5l4-10.2h4.1l-3.5 9.1c-.2.4 0 .7.4.7h3.1v-4.1l.7-2.5h3.3v6.6h1.9v2.5zm4.4 3.8V94.5c0-.6 0-1.3.2-1.9l-3.7.8-.5-2.8L71 89h4.3v16h-4.4zm9.6-4c1.1 0 1.5.3 1.5 1.5v1c0 1.1-.3 1.5-1.5 1.5h-1c-1.1 0-1.5-.3-1.5-1.5v-1c0-1.1.3-1.5 1.5-1.5h1zm17 .2-1.9.4v3.4h-4v-3.4h-6.4c-1.3 0-2.2-1.2-1.7-2.5l4-10.2h4.1L88 98.1c-.2.4 0 .7.4.7h3.1v-4.1l.7-2.5h3.3v6.6h1.9v2.5z" class="st1"/><defs><path id="SVGID_9_" d="M21 21.1h205.9v209.6H21z"/></defs><clipPath id="SVGID_10_"><use xlink:href="#SVGID_9_" style="overflow:visible"/></clipPath><path d="M74.3 85.2c7.9 0 14.2-6.4 14.2-14.2 0-7.9-6.4-14.2-14.2-14.2S60.1 63.1 60.1 71c0 7.9 6.3 14.2 14.2 14.2z" style="clip-path:url(#SVGID_10_);fill:none;stroke:#39373a;stroke-width:.976"/><path d="M67.7 77.2v-8c0-.5 0-.9.1-1.4l-2.8.5-.4-2.1 3.1-1.2H71v12.1h-3.3zm12-6.3c2.5.4 2.7 1.3 4.1 6.3h-3.4C79.2 72.8 79 72 77.3 72h-.6c.1.4.1.8.1 1.1v4.1h-3.3V65h3.3v3.2c0 .5-.1 1-.1 1.5h.6c1.7 0 1.9-1.1 2.9-4.7h3.4c-1.3 4.3-1.4 5.4-3.8 5.7v.2z" class="st1"/><defs><path id="SVGID_11_" d="M21 21.1h205.9v209.6H21z"/></defs><clipPath id="SVGID_12_"><use xlink:href="#SVGID_11_" style="overflow:visible"/></clipPath><path d="M173.7 59.8c0-3.1 2.5-5.5 5.5-5.5h33.1c3.1 0 5.5 2.5 5.5 5.5v7.4c0 3.1-2.5 5.5-5.5 5.5h-33.1c-3.1 0-5.5-2.5-5.5-5.5v-7.4z" class="st12"/><path d="M176.8 61.5c0-3.1 2.5-5.5 5.5-5.5h26.9c3.1 0 5.5 2.5 5.5 5.5v4c0 3.1-2.5 5.5-5.5 5.5h-26.9c-3.1 0-5.5-2.5-5.5-5.5v-4z" class="st12"/><path d="M180.5 60.4c0-1.5 1.2-2.8 2.8-2.8h27.1c1.5 0 2.8 1.2 2.8 2.8v6.2c0 1.5-1.2 2.8-2.8 2.8h-27.1c-1.5 0-2.8-1.2-2.8-2.8v-6.2z" class="st12"/><path d="M209.8 63.5c0 .5-.4.8-.8.8-.5 0-.8-.4-.8-.8 0-.5.4-.8.8-.8s.8.3.8.8z" class="st12"/><path d="M170.8 73.8h48.9" class="st4"/><defs><path id="SVGID_13_" d="M21 21.1h205.9v209.6H21z"/></defs><clipPath id="SVGID_14_"><use xlink:href="#SVGID_13_" style="overflow:visible"/></clipPath><path d="M207.4 84.1c0 2.9 2.4 5.3 5.3 5.3h5.6c.4 0 .8-.4.8-.8v-12c0-.4-.4-.8-.8-.8h-5.6c-2.9 0-5.3 2.4-5.3 5.3v3zm12-7.5v12c0 .6-.5 1.1-1.1 1.1h-5.6c-3.1 0-5.6-2.5-5.6-5.6v-3c0-3.1 2.5-5.6 5.6-5.6h5.6c.6 0 1.1.5 1.1 1.1" class="st13"/><path d="M207.4 84.1c0 2.9 2.4 5.3 5.3 5.3h5.6c.4 0 .8-.4.8-.8v-12c0-.4-.4-.8-.8-.8h-5.6c-2.9 0-5.3 2.4-5.3 5.3v3zm12-7.5v12c0 .6-.5 1.1-1.1 1.1h-5.6c-3.1 0-5.6-2.5-5.6-5.6v-3c0-3.1 2.5-5.6 5.6-5.6h5.6c.6 0 1.1.5 1.1 1.1z" class="st14"/><path d="M208.7 84.1c0 2.2 1.8 4 4 4h3.3c.4 0 .7-.3.7-.7v-9.5c0-.4-.3-.7-.7-.7h-3.3c-2.2 0-4 1.8-4 4v2.9zm8.2-6.3v9.5c0 .5-.4 1-1 1h-3.3c-2.4 0-4.3-1.9-4.3-4.3v-3c0-2.4 1.9-4.3 4.3-4.3h3.3c.6.1 1 .6 1 1.1" class="st13"/><path d="M208.7 84.1c0 2.2 1.8 4 4 4h3.3c.4 0 .7-.3.7-.7v-9.5c0-.4-.3-.7-.7-.7h-3.3c-2.2 0-4 1.8-4 4v2.9zm8.2-6.3v9.5c0 .5-.4 1-1 1h-3.3c-2.4 0-4.3-1.9-4.3-4.3v-3c0-2.4 1.9-4.3 4.3-4.3h3.3c.6.1 1 .6 1 1.1z" class="st14"/><path d="M211.5 82.6c0 .4.3.7.7.7s.7-.3.7-.7c0-.4-.3-.7-.7-.7s-.7.3-.7.7m1.6 0c0 .5-.4 1-1 1-.5 0-1-.4-1-1 0-.5.4-1 1-1s1 .5 1 1" class="st13"/><path d="M211.5 82.6c0 .4.3.7.7.7s.7-.3.7-.7c0-.4-.3-.7-.7-.7s-.7.3-.7.7zm1.6 0c0 .5-.4 1-1 1-.5 0-1-.4-1-1 0-.5.4-1 1-1s1 .5 1 1z" class="st14"/><path stroke-width=".586" d="m86.03 176.034.46-.774 18.394 10.938-.46.773z" class="st4"/><path d="M38.9 186.3h46.3v2.7H38.9zm1.1-9.2h42.8v9.2H40z" class="st4"/><defs><path id="SVGID_15_" d="M21 21.1h205.9v209.6H21z"/></defs><clipPath id="SVGID_16_"><use xlink:href="#SVGID_15_" style="overflow:visible"/></clipPath><path d="M85.9 176.1s-1.1 1.5-1.6 4.9c-.5 3.4-.4 5.2-.4 5.2" style="clip-path:url(#SVGID_16_);fill:none;stroke:#39373a;stroke-width:.391"/><path d="M126.4 76.6h8.1v24.2h-8.1z" class="st16"/><path d="M133.2 76.6h1.3v24.2h-1.3zm-.1 1.5-5.2.6v14.2l5.2.8m0 .8-5.2.8v3l5.2.7m78-72.8h8.1v24.2h-8.1z" class="st16"/><path d="M217.9 26.2h1.3v24.2h-1.3zm-.1 1.4-5.2.7v14.2l5.2.8m0 .7-5.2.8v3.1l5.2.7" class="st16"/><path d="M169.6 51.2h2.3v24.1h-2.3z" class="st1"/><path d="M169.6 51.2h2.3v24.1h-2.3z" class="st2"/><path d="M169.6 91.2h2.3v19.2h-2.3z" class="st1"/><path d="M169.6 91.2h2.3v19.2h-2.3z" class="st2"/><path d="M170.1 51.2H219v2.3h-48.9z" class="st1"/><path d="M170.1 51.2H219v2.3h-48.9z" class="st2"/><path d="M170.1 108.1H219v2.3h-48.9z" class="st1"/><path d="M170.1 108.1H219v2.3h-48.9z" class="st2"/><path d="M171.7 91h15.2v17.5h-15.2z" class="st4"/><path d="M123.7 101.1h15.1v3.1h-15.1zm35.8 0h12v3.1h-12zm59.6 10.2h-15.9v15.9h15.9v-15.9zm.3 16.2h-16.6V111h16.6v16.5z" class="st1"/><path d="M219.1 111.3h-15.9v15.9h15.9v-15.9zm.3 16.2h-16.6V111h16.6v16.5z" class="st8"/><defs><path id="SVGID_17_" d="M21 21.1h205.9v209.6H21z"/></defs><clipPath id="SVGID_18_"><use xlink:href="#SVGID_17_" style="overflow:visible"/></clipPath><path d="M204.6 124.8c0 .4.3.7.7.7h8.3c.4 0 .7-.3.7-.7v-11.1c0-.4-.3-.7-.7-.7h-8.3c-.4 0-.7.3-.7.7v11.1zm10.1-11.1v11.1c0 .6-.5 1.1-1.1 1.1h-8.3c-.6 0-1.1-.5-1.1-1.1v-11.1c0-.6.5-1.1 1.1-1.1h8.3c.7 0 1.1.5 1.1 1.1" style="clip-path:url(#SVGID_18_);fill:#39373a"/><path d="M204.6 124.8c0 .4.3.7.7.7h8.3c.4 0 .7-.3.7-.7v-11.1c0-.4-.3-.7-.7-.7h-8.3c-.4 0-.7.3-.7.7v11.1zm10.1-11.1v11.1c0 .6-.5 1.1-1.1 1.1h-8.3c-.6 0-1.1-.5-1.1-1.1v-11.1c0-.6.5-1.1 1.1-1.1h8.3c.7 0 1.1.5 1.1 1.1z" style="clip-path:url(#SVGID_18_);fill:none;stroke:#39373a;stroke-width:.244"/><path d="M213.2 114.2h-7.3v10.1h7.3v-10.1zm.3 10.4h-8v-10.8h8v10.8z" class="st1"/><path d="M213.2 114.2h-7.3v10.1h7.3v-10.1zm.3 10.4h-8v-10.8h8v10.8z" class="st8"/><defs><path id="SVGID_19_" d="M21 21.1h205.9v209.6H21z"/></defs><clipPath id="SVGID_20_"><use xlink:href="#SVGID_19_" style="overflow:visible"/></clipPath><path d="M208.1 119.2c0 .5.4.9.9.9s.9-.4.9-.9-.4-.9-.9-.9-.9.4-.9.9m2.2 0c0 .7-.6 1.3-1.3 1.3-.7 0-1.3-.6-1.3-1.3 0-.7.6-1.3 1.3-1.3.7.1 1.3.6 1.3 1.3" style="clip-path:url(#SVGID_20_);fill:#39373a"/><path d="M208.1 119.2c0 .5.4.9.9.9s.9-.4.9-.9-.4-.9-.9-.9-.9.4-.9.9zm2.2 0c0 .7-.6 1.3-1.3 1.3-.7 0-1.3-.6-1.3-1.3 0-.7.6-1.3 1.3-1.3.7.1 1.3.6 1.3 1.3z" style="clip-path:url(#SVGID_20_);fill:none;stroke:#39373a;stroke-width:.244"/><path d="m162.8 77.3-1.2.7 8.8 14.4 1.2-.7z" class="st4"/><defs><path id="SVGID_21_" d="M21 21.1h205.9v209.6H21z"/></defs><clipPath id="SVGID_22_"><use xlink:href="#SVGID_21_" style="overflow:visible"/></clipPath><path d="M162.3 77.5s2.3-1.5 7.3-1.9" style="clip-path:url(#SVGID_22_);fill:none;stroke:#39373a;stroke-width:.391"/><path d="m156.2 113.6-.4.8-20.5-12.3.5-.8z" class="st4"/><defs><path id="SVGID_23_" d="M21 21.1h205.9v209.6H21z"/></defs><clipPath id="SVGID_24_"><use xlink:href="#SVGID_23_" style="overflow:visible"/></clipPath><path d="M156.3 113.6s1.4-1.8 2.6-6.3c1.2-4.5 1.2-6.2 1.2-6.2" style="clip-path:url(#SVGID_24_);fill:none;stroke:#39373a;stroke-width:.391"/><path d="m112 62.9-.8-.5 12.3-20.5.8.5z" class="st4"/><defs><path id="SVGID_25_" d="M21 21.1h205.9v209.6H21z"/></defs><clipPath id="SVGID_26_"><use xlink:href="#SVGID_25_" style="overflow:visible"/></clipPath><path d="M112.1 62.9s1.8 1.4 6.3 2.6c4.5 1.2 6.2 1.2 6.2 1.2" style="clip-path:url(#SVGID_26_);fill:none;stroke:#39373a;stroke-width:.391"/><path d="m143.4 35.7.5.9 20.5-12.3-.5-.9z" class="st4"/><defs><path id="SVGID_27_" d="M21 21.1h205.9v209.6H21z"/></defs><clipPath id="SVGID_28_"><use xlink:href="#SVGID_27_" style="overflow:visible"/></clipPath><path d="M143.4 35.7s-1.4-1.8-2.6-6.3c-1.2-4.5-1.2-6.2-1.2-6.2" style="clip-path:url(#SVGID_28_);fill:none;stroke:#39373a;stroke-width:.391"/></g></switch></svg>