<?xml version="1.0" encoding="utf-8"?>
<!-- Generator: Adobe Illustrator 26.5.0, SVG Export Plug-In . SVG Version: 6.00 Build 0)  -->
<svg version="1.1" id="Слой_1" xmlns="http://www.w3.org/2000/svg" xmlns:xlink="http://www.w3.org/1999/xlink" x="0px" y="0px"
	 viewBox="0 0 1000 1000" style="enable-background:new 0 0 1000 1000;" xml:space="preserve">
<style type="text/css">
	.st0{fill:#DFEAF7;}
	.st1{fill:#FFFFFF;}
	.st2{fill:none;stroke:#373437;stroke-miterlimit:10;}
	.st3{fill:#373437;}
	.st4{fill:none;stroke:#373437;}
	.st5{fill:none;stroke:#373437;stroke-miterlimit:10;stroke-dasharray:2.408,2.408;}
</style>
<rect x="418.4" y="641.3" class="st0" width="287.9" height="226"/>
<rect x="539.6" y="303" class="st0" width="287.9" height="185.4"/>
<rect x="445.9" y="179.9" class="st0" width="287.9" height="185.4"/>
<rect x="263.6" y="180.1" class="st0" width="442.7" height="465.6"/>
<rect x="263.6" y="129.4" class="st0" width="342.7" height="465.6"/>
<rect x="221.1" y="470.2" class="st1" width="17.4" height="132.6"/>
<rect x="221.1" y="470.2" class="st2" width="17.4" height="132.6"/>
<rect x="245.3" y="470.2" class="st1" width="17.9" height="132.6"/>
<rect x="245.3" y="470.2" class="st2" width="17.9" height="132.6"/>
<rect x="238.7" y="475.7" class="st1" width="6.4" height="5.4"/>
<rect x="238.7" y="475.7" class="st2" width="6.4" height="5.4"/>
<rect x="238.7" y="590.6" class="st1" width="6.4" height="5.4"/>
<rect x="238.7" y="590.6" class="st2" width="6.4" height="5.4"/>
<polygon class="st2" points="238.5,404.9 149.6,404.9 149.6,155.7 141.1,155.7 141.1,404.9 141.1,413.3 149.6,413.3 238.5,413.3 "/>
<polygon class="st2" points="238.5,404.9 149.6,404.9 149.6,155.7 141.1,155.7 141.1,404.9 141.1,413.3 149.6,413.3 238.5,413.3 "/>
<path class="st2" d="M843.3,480.7L877,422c0,0-7.4-4.7-18.5-7.2c-11.1-2.6-20-2.1-20-2.1"/>
<path class="st2" d="M635.5,301l46.4,26.6c0,0,3.7-5.8,5.7-14.6c2-8.8,1.6-15.8,1.6-15.8"/>
<path class="st2" d="M601.8,398.9l-26.6-46.4c0,0,5.8-3.7,14.6-5.7s15.8-1.6,15.8-1.6"/>
<path class="st2" d="M601.8,448.9l-26.6,46.4c0,0,5.8,3.7,14.6,5.7s15.8,1.6,15.8,1.6"/>
<path class="st2" d="M680.1,642.4L626.8,673c0,0-4.2-6.7-6.6-16.7c-2.3-10.1-1.9-18.1-1.9-18.1"/>
<path class="st2" d="M720.8,380.5l-24.4-42c0,0,5.3-3.3,13.4-5.2c8.1-1.8,14.5-1.5,14.5-1.5"/>
<rect x="648.5" y="892.8" class="st3" width="67.9" height="16.9"/>
<rect x="648.5" y="892.8" class="st2" width="67.9" height="16.9"/>
<rect x="467" y="892.8" class="st3" width="67.9" height="16.9"/>
<rect x="467" y="892.8" class="st2" width="67.9" height="16.9"/>
<rect x="653.1" y="868.1" class="st3" width="66.7" height="29.6"/>
<rect x="653.1" y="868.1" class="st2" width="66.7" height="29.6"/>
<rect x="411.8" y="868.1" class="st3" width="118.5" height="41.7"/>
<rect x="411.8" y="868.1" class="st2" width="118.5" height="41.7"/>
<rect x="523" y="868.1" class="st2" width="138.8" height="41.7"/>
<rect x="523" y="886.2" class="st2" width="138.8" height="5"/>
<rect x="530.1" y="886.2" class="st2" width="4.8" height="5"/>
<rect x="648.5" y="886.2" class="st2" width="4.8" height="5"/>
<rect x="411.8" y="638.9" class="st3" width="41.7" height="249.2"/>
<rect x="411.8" y="638.9" class="st2" width="41.7" height="249.2"/>
<rect x="221.1" y="638.9" class="st3" width="222.8" height="41.5"/>
<rect x="221.1" y="638.9" class="st2" width="222.8" height="41.5"/>
<rect x="221.1" y="596.7" class="st3" width="42.1" height="72.2"/>
<rect x="221.1" y="596.7" class="st2" width="42.1" height="72.2"/>
<rect x="232.2" y="319.4" class="st3" width="31" height="154.9"/>
<rect x="232.2" y="319.4" class="st2" width="31" height="154.9"/>
<rect x="231.2" y="124.5" class="st3" width="31.6" height="57.3"/>
<rect x="231.2" y="124.5" class="st2" width="31.6" height="57.3"/>
<rect x="141.1" y="121.8" class="st3" width="96.5" height="8.5"/>
<rect x="141.1" y="121.8" class="st2" width="96.5" height="8.5"/>
<rect x="141.1" y="115" class="st3" width="8.5" height="49.5"/>
<rect x="141.1" y="124.3" class="st2" width="8.5" height="40.1"/>
<rect x="257.8" y="425.7" class="st3" width="347.7" height="8.5"/>
<rect x="257.8" y="425.7" class="st2" width="347.7" height="8.5"/>
<rect x="141" y="114.9" class="st3" width="464" height="17.2"/>
<rect x="255.9" y="114.9" class="st2" width="349.1" height="17.2"/>
<rect x="221.1" y="590.6" class="st3" width="16.7" height="73.7"/>
<rect x="221.1" y="590.6" class="st2" width="16.7" height="73.7"/>
<rect x="221.1" y="405.1" class="st3" width="16.7" height="76.1"/>
<rect x="221.1" y="405.1" class="st2" width="16.7" height="76.1"/>
<rect x="232.2" y="314.3" class="st3" width="14.4" height="73.8"/>
<rect x="232.2" y="314.3" class="st2" width="14.4" height="73.8"/>
<rect x="231.2" y="121.4" class="st3" width="14.4" height="63.9"/>
<rect x="231.2" y="121.4" class="st2" width="14.4" height="63.9"/>
<rect x="395.7" y="638.9" class="st3" width="222.8" height="8.5"/>
<rect x="395.7" y="638.9" class="st2" width="222.8" height="8.5"/>
<rect x="679.5" y="638.9" class="st3" width="44.7" height="8.5"/>
<rect x="679.5" y="638.9" class="st2" width="44.7" height="8.5"/>
<rect x="706.9" y="489.4" class="st3" width="139.6" height="16.9"/>
<rect x="716" y="489.4" class="st2" width="130.5" height="16.9"/>
<rect x="707" y="489.4" class="st3" width="17.2" height="420.6"/>
<rect x="682.7" y="868.1" class="st2" width="41.7" height="40.7"/>
<rect x="714.8" y="306" class="st3" width="8.7" height="25.3"/>
<rect x="714.8" y="306" class="st2" width="8.7" height="25.3"/>
<rect x="828.4" y="479.4" class="st3" width="17.6" height="25.3"/>
<rect x="828.4" y="479.4" class="st2" width="17.6" height="25.3"/>
<rect x="601.1" y="163.1" class="st3" width="149.2" height="18.6"/>
<rect x="601.1" y="163.1" class="st2" width="149.2" height="18.6"/>
<rect x="601.1" y="114.8" class="st3" width="52.7" height="60"/>
<rect x="601.1" y="114.8" class="st2" width="52.7" height="60"/>
<rect x="645.1" y="115" class="st3" width="8.7" height="44.5"/>
<rect x="645.1" y="115" class="st2" width="8.7" height="44.5"/>
<rect x="828.4" y="270.8" class="st3" width="17.6" height="142.2"/>
<rect x="828.4" y="270.8" class="st2" width="17.6" height="142.2"/>
<rect x="793.8" y="270.8" class="st3" width="40.3" height="35.1"/>
<rect x="793.8" y="270.8" class="st2" width="40.3" height="35.1"/>
<rect x="760.1" y="270.8" class="st3" width="40.3" height="35.1"/>
<rect x="760.1" y="270.8" class="st2" width="40.3" height="35.1"/>
<rect x="609.4" y="162" class="st1" width="18.9" height="10.5"/>
<rect x="609.4" y="162" class="st2" width="18.9" height="10.5"/>
<rect x="618.2" y="123.1" class="st1" width="27.5" height="22.8"/>
<rect x="618.2" y="123.1" class="st2" width="27.5" height="22.8"/>
<rect x="520" y="415" class="st3" width="85.5" height="14.2"/>
<rect x="520" y="415" class="st2" width="85.5" height="14.2"/>
<rect x="601.1" y="180" class="st3" width="9.4" height="164.8"/>
<rect x="601.1" y="180" class="st2" width="9.4" height="164.8"/>
<rect x="601.1" y="398.7" class="st3" width="9.4" height="51.5"/>
<rect x="601.1" y="398.7" class="st2" width="9.4" height="51.5"/>
<rect x="714.8" y="376.2" class="st3" width="121.9" height="9.4"/>
<rect x="714.8" y="376.2" class="st2" width="121.9" height="9.4"/>
<rect x="689.2" y="296.5" class="st3" width="43.5" height="9.4"/>
<rect x="689.2" y="296.5" class="st2" width="43.5" height="9.4"/>
<rect x="733.6" y="262.3" class="st3" width="112.9" height="43.6"/>
<rect x="733.6" y="262.3" class="st2" width="112.9" height="43.6"/>
<rect x="733.6" y="163.6" class="st3" width="16.7" height="106.3"/>
<rect x="733.6" y="176.4" class="st2" width="16.7" height="85.2"/>
<rect x="603.9" y="296.5" class="st3" width="40.6" height="9.4"/>
<rect x="603.9" y="296.5" class="st2" width="40.6" height="9.4"/>
<rect x="601.1" y="502.7" class="st3" width="9.4" height="139.6"/>
<rect x="601.1" y="502.7" class="st2" width="9.4" height="139.6"/>
<rect x="741.2" y="269.4" class="st1" width="10.5" height="10.5"/>
<rect x="741.2" y="269.4" class="st2" width="10.5" height="10.5"/>
<rect x="802.1" y="278.9" class="st1" width="10.5" height="18.6"/>
<rect x="802.1" y="278.9" class="st2" width="10.5" height="18.6"/>
<rect x="819.2" y="278.9" class="st1" width="7.6" height="18.6"/>
<rect x="819.2" y="278.9" class="st2" width="7.6" height="18.6"/>
<rect x="741.2" y="287.7" class="st1" width="10.5" height="10.5"/>
<rect x="741.2" y="287.7" class="st2" width="10.5" height="10.5"/>
<rect x="232.2" y="235.7" class="st2" width="18.9" height="93.8"/>
<rect x="251.1" y="240.3" class="st2" width="12.3" height="97.4"/>
<rect x="247" y="235.7" class="st2" width="4.2" height="4.6"/>
<rect x="247" y="240.3" class="st2" width="4.2" height="4.6"/>
<rect x="247" y="180.7" class="st2" width="4.2" height="4.6"/>
<rect x="247" y="235.7" class="st2" width="4.2" height="87.7"/>
<rect x="247" y="308.9" class="st2" width="4.2" height="4.6"/>
<path class="st2" d="M250.9,185.1l24.9,43.7c0,0-5.4,3.5-13.7,5.4c-8.2,1.9-14.8,1.5-14.8,1.5"/>
<rect x="247" y="121.4" class="st2" width="4.2" height="3"/>
<rect x="693.2" y="237.6" class="st2" width="39.6" height="39.7"/>
<line class="st2" x1="692.9" y1="237.5" x2="733" y2="277.4"/>
<line class="st2" x1="733" y1="237.5" x2="692.9" y2="277.4"/>
<rect x="560.4" y="159.7" class="st2" width="39.1" height="39"/>
<path class="st2" d="M572.8,179.2c0,1.1,0.9,2,2,2s2-0.9,2-2s-0.9-2-2-2S572.8,178.1,572.8,179.2z"/>
<path class="st2" d="M588.1,166.6c0-1.5-1.2-2.7-2.8-2.7h-18.2c-1.5,0-2.8,1.2-2.8,2.7v25.2c0,1.5,1.2,2.8,2.8,2.8h18.2
	c1.5,0,2.8-1.2,2.8-2.8V166.6z"/>
<path class="st2" d="M585,169.5c0-1.5-1.2-2.8-2.8-2.8h-12.6c-1.5,0-2.7,1.2-2.7,2.8v19.4c0,1.5,1.2,2.7,2.7,2.7h12.6
	c1.5,0,2.8-1.2,2.8-2.7V169.5z"/>
<path class="st2" d="M818.7,354.4c2,0,3.7-1.6,3.7-3.7v-17.6c0-2-1.6-3.7-3.7-3.7h-4.3c-2,0-3.7,1.6-3.7,3.7v17.6
	c0,2,1.6,3.7,3.7,3.7H818.7z"/>
<path class="st2" d="M776.2,341.9c0,6.9,5.6,12.5,12.6,12.5h18.5c1.8,0,3.2-1.4,3.2-3.2v-18.5c0-1.8-1.4-3.2-3.2-3.2h-18.5
	C781.8,329.5,776.2,335,776.2,341.9z"/>
<path class="st2" d="M780.6,341.7c0,5,4.1,9,9.1,9h13.4l0,0v-17.9l0,0h-13.4C784.7,332.7,780.6,336.8,780.6,341.7z"/>
<path class="st2" d="M816.7,340.5c-0.8,0-1.4,0.6-1.4,1.4c0,0.7,0.6,1.4,1.4,1.4c0.8,0,1.4-0.6,1.4-1.4
	C818.1,341.2,817.5,340.5,816.7,340.5z"/>
<path class="st2" d="M791.9,339.3c-1.4,0-2.5,1.1-2.5,2.4s1.1,2.4,2.5,2.4s2.5-1.1,2.5-2.4S793.2,339.3,791.9,339.3z"/>
<line class="st2" x1="801.4" y1="348.9" x2="795.3" y2="344.8"/>
<line class="st2" x1="801.4" y1="334.5" x2="795.3" y2="338.6"/>
<path class="st4" d="M728.2,199.1c0-8.8-7.1-15.9-15.9-15.9h-80.7c-8.8,0-15.9,7.1-15.9,15.9v15.4c0,8.8,7.1,15.9,15.9,15.9h80.7
	c8.8,0,15.9-7.1,15.9-15.9V199.1z"/>
<path class="st4" d="M720.4,203.5c0-8.8-7.1-15.9-15.9-15.9h-65c-8.8,0-15.9,7.1-15.9,15.9v6.5c0,8.8,7.1,15.9,15.9,15.9h65
	c8.8,0,15.9-7.1,15.9-15.9V203.5z"/>
<path class="st4" d="M711,199.9c0-4.4-3.6-7.9-7.9-7.9H636c-4.4,0-7.9,3.6-7.9,7.9v13.9c0,4.4,3.6,7.9,7.9,7.9h67
	c4.4,0,7.9-3.6,7.9-7.9L711,199.9L711,199.9z"/>
<path class="st4" d="M636.4,206.8c0,1.1,0.9,2,2,2s2-0.9,2-2s-0.9-2-2-2C637.3,204.8,636.4,205.7,636.4,206.8z"/>
<line class="st2" x1="733.7" y1="233.1" x2="610.4" y2="233.1"/>
<path class="st2" d="M613.4,237c-1.3,0-2.3,1-2.3,2.3v11.6v4.4v11.6c0,1.3,1,2.3,2.3,2.3c0,0,14.2,0,14.5-0.1
	c6.4-1.3,11.1-7,11.1-13.7V251c0-6.7-4.7-12.5-11.1-13.8C627.7,236.9,613.4,237,613.4,237z"/>
<path class="st2" d="M617.8,240.2c-1,0-1.8,0.8-1.8,1.8v9.3v3.5v9.3c0,1,0.8,1.8,1.8,1.8c0,0,9.4,0,9.7-0.1c5.1-1,8.8-5.6,8.8-11
	v-3.5c0-5.4-3.8-10-8.8-11C627.2,240.2,617.8,240.2,617.8,240.2z"/>
<path class="st2" d="M628.5,253.1c0-0.6-0.5-1.1-1.2-1.1c-0.6,0-1.2,0.5-1.2,1.1s0.5,1.1,1.2,1.1C628,254.2,628.5,253.7,628.5,253.1
	z"/>
<path class="st2" d="M759.5,309.3c0-1-0.8-1.8-1.8-1.8h-9.4h-3.6h-9.4c-1,0-1.8,0.8-1.8,1.8c0,0,0,11.6,0.1,11.8c1,5.2,5.7,9,11.2,9
	h3.6c5.5,0,10.2-3.8,11.2-9C759.6,320.9,759.5,309.3,759.5,309.3z"/>
<path class="st2" d="M756.8,312.9c0-0.8-0.7-1.5-1.5-1.5h-7.5H745h-7.5c-0.8,0-1.5,0.7-1.5,1.5c0,0,0,7.6,0.1,7.8
	c0.8,4.1,4.5,7.2,8.9,7.2h2.8c4.4,0,8.1-3,8.9-7.2C756.9,320.5,756.8,312.9,756.8,312.9z"/>
<path class="st2" d="M746.4,321.5c0.4,0,0.8-0.4,0.8-0.8s-0.4-0.8-0.8-0.8c-0.4,0-0.8,0.4-0.8,0.8
	C745.6,321.1,746,321.5,746.4,321.5z"/>
<path class="st3" d="M757.1,358.2l0.1-2.4h-7.6l-0.3,5.5c0,0.6,0.4,1,1,1.1l1.9,0.2c1.6,0.1,2.2,0.4,2.2,1.5c-0.1,1-0.4,1.4-2,1.4
	c-0.9,0-2-0.1-3.2-0.1l-0.3,2.5c1.6,0.2,3.1,0.4,4.3,0.4c3.5,0,4.4-1.8,4.4-4c0-2-0.7-3.7-3.6-4l-2-0.3l0.1-1.7h5V358.2z M745.7,365
	c-0.8,0-1.1,0.3-1.1,1.1v0.8c0,0.8,0.3,1.1,1.1,1.1h0.8c0.8,0,1.1-0.3,1.1-1.1v-0.8c0-0.8-0.3-1.1-1.1-1.1H745.7z M742.4,368v-12.2
	h-3.3L736,357l0.4,2.1l2.8-0.6c-0.1,0.5-0.1,1-0.1,1.4v8.1H742.4z"/>
<path class="st3" d="M762.3,338.1h-3.4l-1.3,5.2c-0.1,0.4-0.2,1-0.4,1.5H757c-0.1-0.5-0.2-1-0.2-1.5l-1.3-5.2h-3.4l2.7,8
	c0.1,0.5,0.5,0.8,1,0.8h0.6c-0.2,0.4-0.6,0.8-0.9,1c-0.6,0.3-1.3,0.4-2.5,0.4l-0.3,2.1c1.3,0.2,2.6,0.2,3.6-0.2
	c1.4-0.5,2.4-1.4,3-3.4L762.3,338.1z M745.1,348.2l6.9-13.5h-2.5l-6.9,13.5H745.1z M741.6,344.1c-1.1,0.1-2.1,0.1-3.8,0.1
	c-1.4,0-1.9-0.7-1.9-3.5c0-2.7,0.4-3.5,1.9-3.5c1.6,0,2.4,0,3.6,0.1l0.2-2.4c-1.2-0.3-2-0.4-3.8-0.4c-3.9,0-5.3,1.7-5.3,6.3
	c0,4.6,1.4,6.3,5.3,6.3c1.8,0,2.9-0.1,4.1-0.5L741.6,344.1z"/>
<path class="st3" d="M667.9,293.6c1.4,0,1.7,0.6,1.7,3.8c0,3.2-0.4,3.8-1.7,3.8s-1.7-0.6-1.7-3.8S666.6,293.6,667.9,293.6
	 M667.9,291.1c-3.7,0-5,1.6-5,6.3c0,4.7,1.3,6.3,5,6.3s5-1.6,5-6.3S671.6,291.1,667.9,291.1 M659.6,300.5c-0.8,0-1.1,0.3-1.1,1.1
	v0.8c0,0.8,0.3,1.1,1.1,1.1h0.8c0.8,0,1.1-0.3,1.1-1.1v-0.8c0-0.8-0.3-1.1-1.1-1.1H659.6z M648.7,293.7c0.9,0,2.1,0,3.4,0
	c1.2,0,1.6,0.2,1.6,1.1c0,0.8-0.1,1.3-1.4,1.3H650v2.1h2.3c1.3,0,1.6,0.4,1.6,1.4c0,1.2-0.5,1.5-2,1.5c-1.1,0-1.8,0-3.4-0.1
	l-0.1,2.4c1.4,0.2,2.9,0.3,4.4,0.3c3.2,0,4.4-1.1,4.4-3.6c0-1.8-0.5-2.8-2.3-3V297c1.6-0.2,1.9-1.3,1.9-3.1c0-2.2-1.1-2.8-4.1-2.8
	c-1.3,0-2.7,0.1-4.1,0.3L648.7,293.7z"/>
<path class="st3" d="M688.6,277.5h-1.3c-0.8,0-1-0.2-1-1.1c0-0.7,0.2-0.8,1-0.8h1.3V277.5z M685.2,278.6c-0.5,0.1-1.4,0.2-1.7,1
	l-0.7,2.8h3.3l0.5-2.3c0.1-0.4,0.3-0.5,0.8-0.5h1.2v2.9h3.1v-8.8c-1.1-0.1-2-0.1-4.4-0.1c-3.2,0-4,0.6-4,2.8
	C683.3,277.2,683.7,278.2,685.2,278.6L685.2,278.6z M675.9,279.3c0-0.4,0.2-0.7,0.7-0.7h1.8v1.1c-0.6,0.4-1.2,0.6-1.7,0.6
	c-0.6,0-0.9-0.2-0.9-0.7v-0.3H675.9z M673.5,275.8c1.5-0.1,2.9-0.1,3.8-0.1c0.9,0,1.2,0.3,1.2,1v0.2h-2.9c-1.7,0-2.8,0.8-2.8,2.2
	v0.9c0,1.6,1.3,2.5,2.9,2.5c1.5,0,2.5-0.8,3.1-1.5l0.3,1.3h2.6v-5.6c0-2.6-1.3-3.4-3.7-3.4c-1.3,0-3.5,0.2-4.8,0.4L673.5,275.8z
	 M671.3,273.6h-3.1v3.1h-2.7v-3.1h-3.2v8.8h3.2v-3.5h2.7v3.5h3.1V273.6z M660.4,273.6h-3.1v3.1h-2.7v-3.1h-3.2v8.8h3.2v-3.5h2.7v3.5
	h3.1V273.6z M643.8,279.3c0-0.4,0.2-0.7,0.7-0.7h1.8v1.1c-0.6,0.4-1.2,0.6-1.7,0.6c-0.6,0-0.9-0.2-0.9-0.7v-0.3H643.8z M641.4,275.8
	c1.5-0.1,2.9-0.1,3.8-0.1c0.9,0,1.2,0.3,1.2,1v0.2h-2.9c-1.7,0-2.8,0.8-2.8,2.2v0.9c0,1.6,1.3,2.5,2.9,2.5c1.5,0,2.5-0.8,3.1-1.5
	l0.3,1.3h2.6v-5.6c0-2.6-1.3-3.4-3.7-3.4c-1.3,0-3.5,0.2-4.8,0.4L641.4,275.8z M633,280.1V277h1.7c1.3,0,1.6,0.3,1.6,1.6
	c0,1.2-0.3,1.5-1.6,1.5H633z M633,275v-2.7h1.6c1.1,0,1.5,0.2,1.5,1.3c0,1.1-0.3,1.4-1.4,1.4L633,275L633,275z M637,276
	c1.5-0.1,2.2-1,2.2-2.8c0-2.5-1.2-3.2-4.4-3.2c-2.2,0-3.5,0-5,0.1v12.2c1.6,0.1,3,0.1,5.5,0.1c3,0,4.3-0.7,4.3-3.2
	C639.6,277.3,638.9,276.1,637,276L637,276z"/>
<path class="st3" d="M553.7,292.3c0.9,0,2.1,0,3.4,0c1.2,0,1.6,0.2,1.6,1.1c0,0.8-0.1,1.3-1.4,1.3H555v2.1h2.3
	c1.3,0,1.6,0.4,1.6,1.4c0,1.2-0.5,1.5-2,1.5c-1.1,0-1.8,0-3.4-0.1l-0.1,2.4c1.4,0.2,2.9,0.3,4.4,0.3c3.2,0,4.4-1.1,4.4-3.6
	c0-1.8-0.5-2.8-2.3-3v-0.1c1.6-0.2,1.9-1.3,1.9-3.1c0-2.2-1.1-2.8-4.1-2.8c-1.3,0-2.7,0.1-4.1,0.3L553.7,292.3z M550.1,299.1
	c-0.8,0-1.1,0.3-1.1,1.1v0.8c0,0.8,0.3,1.1,1.1,1.1h0.8c0.8,0,1.1-0.3,1.1-1.1v-0.8c0-0.8-0.3-1.1-1.1-1.1H550.1z M543.2,299.9
	c-1.4,0-1.6-0.4-1.6-3.1c0.6-0.3,1-0.5,1.6-0.5c1.2,0,1.4,0.3,1.4,1.6C544.6,299.3,544.5,299.9,543.2,299.9 M546.9,290
	c-1.3-0.4-2.5-0.4-3.1-0.4c-3.5,0-5.3,0.9-5.3,6.4c0,4.9,1.1,6.2,4.7,6.2c3.7,0,4.5-1.4,4.5-4.5c0-2.7-0.8-3.8-3.6-3.8
	c-1.1,0-1.8,0.2-2.5,0.7c0.1-2.3,0.5-2.7,2.1-2.7c1.4,0,2,0,3,0L546.9,290z"/>
<path class="st3" d="M572.8,276.1h-1.3c-0.8,0-1-0.2-1-1.1c0-0.7,0.2-0.8,1-0.8h1.3V276.1z M569.4,277.2c-0.5,0.1-1.4,0.2-1.7,1
	L567,281h3.3l0.5-2.3c0.1-0.4,0.3-0.5,0.8-0.5h1.2v2.9h3.1v-8.8c-1.1-0.1-2-0.1-4.4-0.1c-3.2,0-4,0.6-4,2.8
	C567.5,275.8,567.9,276.8,569.4,277.2L569.4,277.2z M565.7,272.1h-3.1v3.1h-2.7v-3.1h-3.2v8.8h3.2v-3.5h2.7v3.5h3.1V272.1z
	 M552.5,280.9h3.2l-2.6-4.5l2.4-4.3h-3.2l-1.7,3.3l-1.7-3.3h-3.2l2.4,4.3l-2.6,4.5h3.2l1.9-3.5L552.5,280.9z M545.4,272.1H542
	l-1.3,5.2c-0.1,0.4-0.2,1-0.4,1.5h-0.2c-0.1-0.5-0.2-1-0.2-1.5l-1.3-5.2h-3.4l2.7,8c0.1,0.5,0.5,0.8,1,0.8h0.6
	c-0.2,0.4-0.6,0.8-0.9,1c-0.6,0.3-1.3,0.4-2.4,0.4l-0.3,2.1c1.3,0.2,2.6,0.2,3.6-0.2c1.4-0.5,2.4-1.4,3-3.4L545.4,272.1z M531,274.5
	c2.4-0.3,2.5-1.4,3.8-5.8h-3.4c-1,3.6-1.2,4.7-2.9,4.7H528c0.1-0.5,0.1-1,0.1-1.5v-3.2h-3.3v12.2h3.3v-4.1c0-0.3-0.1-0.7-0.1-1.1
	h0.6c1.7,0,1.8,0.8,3.1,5.2h3.5c-1.5-5-1.7-5.9-4.2-6.3L531,274.5L531,274.5z"/>
<path class="st3" d="M200.8,282.8c1.9,0.8,2.6,3.4,2.6,7.1c0,3.6-0.7,6.2-2.6,7.1l0.4,1.4c3.7-1.1,5.4-3.7,5.4-8.4
	c0-4.7-1.7-7.4-5.4-8.4L200.8,282.8z M191.4,285.8c1.7-0.1,2.6-0.1,3.8-0.1c0.9,0,1.3,0.1,1.3,0.6c0,0.7-0.8,1.8-2.2,3.2l-2.7,2.8
	c-0.4,0.4-0.5,0.8-0.5,1.3v1.7h9.1v-2.9h-3.5c-0.6,0-1.1,0-1.7,0.2l3-2.9c1.6-1.7,1.9-2.5,1.9-3.8c0-2.4-1.7-2.9-4.3-2.9
	c-1.3,0-2.6,0.1-4.4,0.4L191.4,285.8z M187.9,292.4c-0.8,0-1.1,0.3-1.1,1.1v0.8c0,0.8,0.3,1.1,1.1,1.1h0.8c0.8,0,1.1-0.3,1.1-1.1
	v-0.8c0-0.8-0.3-1.1-1.1-1.1H187.9z M176.6,285.8c1.7-0.1,2.6-0.1,3.8-0.1c0.9,0,1.3,0.1,1.3,0.6c0,0.7-0.8,1.8-2.2,3.2l-2.7,2.8
	c-0.4,0.4-0.5,0.8-0.5,1.3v1.7h9.1v-2.9h-3.5c-0.6,0-1.1,0-1.7,0.2l3-2.9c1.6-1.7,1.9-2.5,1.9-3.8c0-2.4-1.7-2.9-4.3-2.9
	c-1.3,0-2.6,0.1-4.4,0.4L176.6,285.8z M175.1,281.4c-3.7,1-5.4,3.7-5.4,8.4c0,4.7,1.7,7.4,5.4,8.4l0.4-1.4c-1.9-0.9-2.6-3.5-2.6-7.1
	c0-3.7,0.7-6.2,2.6-7.1L175.1,281.4z"/>
<path class="st3" d="M192,264.4c0.9,0,2.1,0,3.4,0c1.2,0,1.6,0.2,1.6,1.1c0,0.8-0.1,1.3-1.4,1.3h-2.3v2.1h2.3c1.3,0,1.6,0.4,1.6,1.4
	c0,1.2-0.5,1.5-2,1.5c-1.1,0-1.8,0-3.4-0.1l-0.1,2.4c1.4,0.2,2.9,0.3,4.4,0.3c3.2,0,4.4-1.1,4.4-3.6c0-1.8-0.5-2.8-2.3-3v-0.1
	c1.6-0.2,1.9-1.3,1.9-3.1c0-2.2-1.1-2.8-4.1-2.8c-1.3,0-2.7,0.1-4.1,0.3L192,264.4z M188.4,271.2c-0.8,0-1.1,0.3-1.1,1.1v0.8
	c0,0.8,0.3,1.1,1.1,1.1h0.8c0.8,0,1.1-0.3,1.1-1.1v-0.8c0-0.8-0.3-1.1-1.1-1.1H188.4z M186.2,269.4h-1.4v-5h-2.5l-0.5,1.9v3.1h-2.4
	c-0.3,0-0.5-0.2-0.3-0.5l2.7-6.9h-3.1l-3,7.7c-0.4,1,0.3,1.9,1.3,1.9h4.9v2.6h3v-2.6l0,0l1.4-0.3L186.2,269.4L186.2,269.4z"/>
<line class="st5" x1="499.4" y1="132.9" x2="499.4" y2="424.9"/>
<circle class="st4" cx="381.8" cy="209" r="38.8"/>
<path class="st3" d="M408.7,218.5c-3.1,0.3-5.9,0.4-10.7,0.4c-4,0-5.2-2.1-5.2-9.7s1.1-9.7,5.2-9.7c4.5,0,6.7,0,10,0.1l0.7-6.8
	c-3.2-0.9-5.6-1.2-10.7-1.2c-10.8,0-14.8,4.6-14.8,17.5s4,17.5,14.8,17.5c5.1,0,8.1-0.4,11.4-1.5L408.7,218.5z M355.9,199
	c2.5,0,5.9-0.1,9.4-0.1c3.4,0,4.4,0.4,4.4,3.2c0,2.3-0.3,3.7-4,3.7h-6.5v5.9h6.5c3.6,0,4.4,1.1,4.4,4c0,3.4-1.3,4.1-5.6,4.1
	c-2.9,0-5.1,0-9.4-0.3l-0.3,6.6c3.8,0.5,8.1,0.9,12.2,0.9c9,0,12.3-2.9,12.2-10.1c-0.1-5.2-1.5-7.7-6.3-8.5v-0.2
	c4.4-0.7,5.4-3.7,5.4-8.5c0-6-3.1-7.9-11.4-7.9c-3.7,0-7.5,0.3-11.3,0.9L355.9,199z"/>
<path class="st3" d="M446.5,284.3h-5.3V266h-9.1l-1.9,6.9v11.4h-8.7c-1,0-1.7-0.6-1.2-1.9l9.7-25.1h-11.2l-11,28.1
	c-1.4,3.5,1,6.9,4.7,6.9h17.7v9.3h11v-9.3h0.1l5.1-1.2L446.5,284.3L446.5,284.3z M396.8,290.7c-3.1,0-4,1-4,4v2.8c0,3.1,1,4,4,4h2.8
	c3.1,0,4-1,4-4v-2.8c0-3.1-1-4-4-4H396.8z M386.2,266.2l0.4-8.9h-27.8l-1.2,19.9c-0.1,2.1,1.3,3.7,3.5,4l6.9,0.8
	c6,0.5,8.2,1.3,8,5.5c-0.3,3.6-1.5,5-7.4,5c-3.1,0-7.3-0.2-11.5-0.5l-1.1,9.1c5.7,0.8,11.3,1.3,15.7,1.3c12.6,0,16.1-6.5,16.1-14.5
	c0.1-7.1-2.6-13.5-13-14.6l-7.4-1l0.4-6.2h18.4V266.2z M335.6,293.7c-5.1,0-5.7-1.6-5.7-11.4c2.1-1.2,3.5-1.7,5.7-1.7
	c4.2,0,5.2,1.1,5.2,5.8C340.8,291.7,340.5,293.7,335.6,293.7 M349.1,257.8c-4.6-1.3-9.1-1.3-11.4-1.3c-12.8,0-19.3,3.1-19.3,23.4
	c0,18,4,22.5,17.2,22.5c13.6,0,16.5-5.2,16.5-16.3c0-9.8-2.9-13.7-13-13.7c-3.9,0-6.6,0.6-9.1,2.6c0.3-8.3,1.9-9.8,7.6-9.8
	c5.1,0,7.3,0,10.9,0.1L349.1,257.8z"/>
<path class="st3" d="M391.6,348.6c2.4-0.1,3.7-0.1,5.4-0.1c1.3,0,1.9,0.1,1.9,0.8c0,1-1.1,2.5-3.1,4.5l-3.9,4
	c-0.5,0.6-0.7,1.1-0.7,1.9v2.5h12.9v-4.1h-5c-0.8,0-1.6,0-2.4,0.2l4.3-4.2c2.3-2.4,2.7-3.5,2.7-5.4c0-3.4-2.4-4.2-6.1-4.2
	c-1.9,0-3.7,0.1-6.2,0.6L391.6,348.6z M386.6,357.9c-1.2,0-1.6,0.4-1.6,1.6v1.1c0,1.2,0.4,1.6,1.6,1.6h1.1c1.2,0,1.6-0.4,1.6-1.6
	v-1.1c0-1.2-0.4-1.6-1.6-1.6H386.6z M382.4,348.3l0.2-3.5h-10.9l-0.5,7.8c0,0.8,0.5,1.5,1.4,1.6l2.7,0.3c2.3,0.2,3.2,0.5,3.1,2.2
	c-0.1,1.4-0.6,2-2.9,2c-1.2,0-2.8-0.1-4.5-0.2l-0.4,3.5c2.2,0.3,4.4,0.5,6.2,0.5c4.9,0,6.3-2.5,6.3-5.7c0-2.8-1-5.3-5.1-5.7
	l-2.9-0.4l0.2-2.4L382.4,348.3L382.4,348.3z M367.8,362.2v-17.4h-4.7l-4.4,1.7l0.6,3l4-0.9c-0.2,0.7-0.2,1.4-0.2,2.1v11.5
	L367.8,362.2L367.8,362.2z"/>
<path class="st3" d="M471.1,327.7c0-0.6,0.3-1,1.1-1h2.6v1.6c-0.8,0.5-1.7,0.9-2.4,0.9c-0.8,0-1.2-0.4-1.2-1v-0.5H471.1z
	 M467.7,322.7c2.1-0.1,4.1-0.2,5.4-0.2s1.7,0.4,1.7,1.4v0.3h-4.2c-2.5,0-4,1.2-4,3.2v1.3c0,2.3,1.9,3.6,4.2,3.6
	c2.2,0,3.6-1.1,4.5-2.2l0.4,1.8h3.6v-8c0-3.7-1.9-4.9-5.2-4.9c-1.8,0-5,0.3-6.9,0.6L467.7,322.7z M465.6,322.9v-3.4h-12.5v3.4h4v9.1
	h4.6v-9.1H465.6z M443.3,327.7c0-0.6,0.3-1,1.1-1h2.6v1.6c-0.8,0.5-1.7,0.9-2.4,0.9c-0.8,0-1.2-0.4-1.2-1v-0.5H443.3z M439.8,322.7
	c2.1-0.1,4.1-0.2,5.4-0.2s1.7,0.4,1.7,1.4v0.3h-4.2c-2.5,0-4,1.2-4,3.2v1.3c0,2.3,1.9,3.6,4.2,3.6c2.2,0,3.6-1.1,4.5-2.2l0.4,1.8
	h3.6v-8c0-3.7-1.9-4.9-5.2-4.9c-1.8,0-5,0.3-6.9,0.6L439.8,322.7z M436.7,319.5h-4.5v4.4h-3.8v-4.4h-4.5V332h4.5v-5.1h3.8v5.1h4.5
	V319.5z M415.5,319.5c-1,0-1.6,0.5-1.7,1.4l-1.1,4.7c-0.1,0.6-0.2,1.2-0.3,1.9h-0.2c-0.1-0.6-0.1-1.2-0.3-1.9l-1.1-4.7
	c-0.2-0.9-0.8-1.4-1.7-1.4h-3.9c-1,0-1.6,0.5-1.6,1.6l-0.3,11h4.1l0.3-9.2h0.3l1.5,6.1c0.2,0.9,0.8,1.4,1.7,1.4h2
	c1,0,1.5-0.5,1.7-1.4l1.5-6.1h0.3l0.3,9.2h4.1l-0.3-11c0-1-0.5-1.6-1.6-1.6H415.5z M394.7,322.3c1.5,0,1.9,0.6,1.9,3.4
	c0,2.7-0.4,3.4-1.9,3.4c-1.6,0-2-0.6-2-3.4C392.7,323,393.1,322.3,394.7,322.3 M394.7,319.1c-4.9,0-6.7,1.8-6.7,6.6
	c0,4.8,1.8,6.5,6.7,6.5c4.9,0,6.7-1.7,6.7-6.5C401.4,320.9,399.6,319.1,394.7,319.1 M382.2,325.4c2.9-0.4,2.7-0.7,4.3-5.9h-4.6
	c-1.1,4.2-1.2,4.5-2.9,4.5h-0.6c0.1-0.5,0.2-1.1,0.2-1.6v-2.9H374V332h4.6v-4c0-0.3,0-0.7-0.2-1h1c1.3,0,1.4,0.4,2.7,5h4.8
	c-1.7-5.9-1.8-6-4.8-6.4v-0.2H382.2z M361.5,325.1h-1.8c-1.2,0-1.4-0.3-1.4-1.6c0-0.9,0.2-1.2,1.4-1.2h1.8V325.1z M356.6,326.7
	c-0.8,0.1-2.1,0.3-2.4,1.4l-1,4h4.7l0.8-3.4c0.1-0.6,0.4-0.7,1.2-0.7h1.7v4.1h4.4v-12.6c-1.6-0.2-2.9-0.2-6.3-0.2
	c-4.6,0-5.7,0.9-5.7,4C353.9,324.7,354.5,326.2,356.6,326.7L356.6,326.7z M343.3,327.7c0-0.6,0.3-1,1.1-1h2.6v1.6
	c-0.8,0.5-1.7,0.9-2.4,0.9c-0.8,0-1.2-0.4-1.2-1v-0.5H343.3z M339.8,322.7c2.1-0.1,4.1-0.2,5.4-0.2s1.7,0.4,1.7,1.4v0.3h-4.2
	c-2.5,0-4,1.2-4,3.2v1.3c0,2.3,1.9,3.6,4.2,3.6c2.2,0,3.6-1.1,4.5-2.2l0.4,1.8h3.6v-8c0-3.7-1.9-4.9-5.2-4.9c-1.8,0-5,0.3-6.9,0.6
	L339.8,322.7z M336.7,319.5h-7.6c-2.2,0-3.3,1.1-3.4,3.2c-0.2,2.3-0.4,4-0.7,4.9c-0.3,1-1,1-2.1,1.2l0.5,3.4
	c2.7,0.5,5.2-0.2,5.7-3.3c0.3-1.2,0.5-3.3,0.8-5.3c0.1-0.7,0.4-1.1,1.2-1.1h1.1v9.5h4.6v-12.5H336.7z M321.4,332v-12.5h-4l-4,6
	c-0.4,0.6-0.7,1.1-1,1.8h-0.1c0.1-0.7,0.2-1.3,0.2-1.9v-5.9h-4.1V332h4l3.9-5.7c0.4-0.6,0.8-1.4,1-2.1h0.1c-0.1,0.8-0.2,1.5-0.2,2.2
	v5.6H321.4z M301,322.9c3.4-0.5,3.4-2,5.3-8.2h-4.8c-1.6,5.2-1.9,6.8-3.6,6.8h-0.8c0.1-0.7,0.2-1.5,0.2-2.2v-4.6h-4.5v4.6
	c0,0.7,0.1,1.4,0.2,2.2h-0.9c-1.7,0-2-1.6-3.5-6.8h-4.8c1.8,6.2,1.9,7.8,5.3,8.2v0.2c-3.5,0.5-3.7,1.9-5.8,9h4.9
	c1.9-6.3,2.1-7.4,3.8-7.4h0.9c-0.1,0.6-0.2,1.1-0.2,1.6v5.8h4.5v-5.8c0-0.5-0.1-1.1-0.2-1.6h0.8c1.8,0,1.9,1.1,3.9,7.4h5
	c-2-7.1-2.3-8.5-5.8-9v-0.2H301z"/>
<path class="st3" d="M437.4,566v-17.4h-4.7l-4.4,1.7l0.6,3l4-0.9c-0.2,0.7-0.2,1.4-0.2,2.1V566H437.4z M425.5,561.7
	c-1.2,0-1.6,0.4-1.6,1.6v1.1c0,1.2,0.4,1.6,1.6,1.6h1.1c1.2,0,1.6-0.4,1.6-1.6v-1.1c0-1.2-0.4-1.6-1.6-1.6H425.5z M421.3,552.1
	l0.2-3.5h-10.9l-0.5,7.8c0,0.8,0.5,1.5,1.4,1.6l2.7,0.3c2.3,0.2,3.2,0.5,3.1,2.2c-0.1,1.4-0.6,2-2.9,2c-1.2,0-2.8-0.1-4.5-0.2
	l-0.4,3.5c2.2,0.3,4.4,0.5,6.2,0.5c4.9,0,6.3-2.5,6.3-5.7c0-2.8-1-5.3-5.1-5.7l-2.9-0.4l0.2-2.4L421.3,552.1L421.3,552.1z
	 M406.7,566v-17.4H402l-4.4,1.7l0.6,3l4-0.9c-0.2,0.7-0.2,1.4-0.2,2.1V566H406.7z"/>
<path class="st3" d="M507.7,531.4c0-0.6,0.3-1,1.1-1h2.6v1.6c-0.8,0.5-1.7,0.9-2.4,0.9c-0.8,0-1.2-0.4-1.2-1v-0.5H507.7z
	 M504.2,526.5c2.1-0.1,4.1-0.2,5.4-0.2s1.7,0.4,1.7,1.4v0.3h-4.2c-2.5,0-4,1.2-4,3.2v1.3c0,2.3,1.9,3.6,4.2,3.6
	c2.2,0,3.6-1.1,4.5-2.2l0.4,1.8h3.6v-8c0-3.7-1.9-4.9-5.2-4.9c-1.8,0-5,0.3-6.9,0.6L504.2,526.5z M502.2,526.7v-3.4h-12.5v3.4h4v9.1
	h4.6v-9.1H502.2z M479.8,531.4c0-0.6,0.3-1,1.1-1h2.6v1.6c-0.8,0.5-1.7,0.9-2.4,0.9c-0.8,0-1.2-0.4-1.2-1v-0.5H479.8z M476.4,526.5
	c2.1-0.1,4.1-0.2,5.4-0.2s1.7,0.4,1.7,1.4v0.3h-4.2c-2.5,0-4,1.2-4,3.2v1.3c0,2.3,1.9,3.6,4.2,3.6c2.2,0,3.6-1.1,4.5-2.2l0.4,1.8
	h3.6v-8c0-3.7-1.9-4.9-5.2-4.9c-1.8,0-5,0.3-6.9,0.6L476.4,526.5z M473.3,523.2h-4.5v4.4H465v-4.4h-4.5v12.5h4.5v-5.1h3.8v5.1h4.5
	V523.2z M452.1,523.2c-1,0-1.6,0.5-1.7,1.4l-1.1,4.7c-0.1,0.6-0.2,1.2-0.3,1.9h-0.2c-0.1-0.6-0.1-1.2-0.3-1.9l-1.1-4.7
	c-0.2-0.9-0.8-1.4-1.7-1.4h-3.9c-1,0-1.6,0.5-1.6,1.6l-0.3,11h4.1l0.3-9.2h0.3l1.5,6.1c0.2,0.9,0.8,1.4,1.7,1.4h2
	c1,0,1.5-0.5,1.7-1.4l1.5-6.1h0.3l0.3,9.2h4.1l-0.3-11c0-1-0.5-1.6-1.6-1.6H452.1z M431.3,526.1c1.5,0,1.9,0.6,1.9,3.4
	c0,2.7-0.4,3.4-1.9,3.4c-1.6,0-2-0.6-2-3.4C429.3,526.7,429.7,526.1,431.3,526.1 M431.3,522.9c-4.9,0-6.7,1.8-6.7,6.6
	s1.8,6.5,6.7,6.5c4.9,0,6.7-1.7,6.7-6.5S436.2,522.9,431.3,522.9 M418.7,529.2c2.9-0.4,2.7-0.7,4.3-5.9h-4.6
	c-1.1,4.2-1.2,4.5-2.9,4.5H415c0.1-0.5,0.2-1.1,0.2-1.6v-2.9h-4.6v12.5h4.6v-4c0-0.3,0-0.7-0.2-1h1c1.3,0,1.4,0.4,2.7,5h4.8
	c-1.7-5.9-1.8-6-4.8-6.4V529.2z M398.1,528.9h-1.8c-1.2,0-1.4-0.3-1.4-1.6c0-0.9,0.2-1.2,1.4-1.2h1.8V528.9z M393.1,530.4
	c-0.8,0.1-2.1,0.3-2.4,1.4l-1,4h4.7l0.8-3.4c0.1-0.6,0.4-0.7,1.2-0.7h1.7v4.1h4.4v-12.6c-1.6-0.2-2.9-0.2-6.3-0.2
	c-4.6,0-5.7,0.9-5.7,4C390.4,528.5,391,529.9,393.1,530.4L393.1,530.4z M379.8,531.4c0-0.6,0.3-1,1.1-1h2.6v1.6
	c-0.8,0.5-1.7,0.9-2.4,0.9c-0.8,0-1.2-0.4-1.2-1v-0.5H379.8z M376.4,526.5c2.1-0.1,4.1-0.2,5.4-0.2s1.7,0.4,1.7,1.4v0.3h-4.2
	c-2.5,0-4,1.2-4,3.2v1.3c0,2.3,1.9,3.6,4.2,3.6c2.2,0,3.6-1.1,4.5-2.2l0.4,1.8h3.6v-8c0-3.7-1.9-4.9-5.2-4.9c-1.8,0-5,0.3-6.9,0.6
	L376.4,526.5z M373.2,523.2h-7.6c-2.2,0-3.3,1.1-3.4,3.2c-0.2,2.3-0.4,4-0.7,4.9c-0.3,1-1,1-2.1,1.2l0.5,3.4
	c2.7,0.5,5.2-0.2,5.7-3.3c0.3-1.2,0.5-3.3,0.8-5.3c0.1-0.7,0.4-1.1,1.2-1.1h1.1v9.5h4.6v-12.5H373.2z M357.9,535.8v-12.5h-4l-4,6
	c-0.4,0.6-0.7,1.1-1,1.8h-0.1c0.1-0.7,0.2-1.3,0.2-1.9v-5.9h-4v12.5h4l3.9-5.7c0.4-0.6,0.8-1.4,1-2.1h0.1c-0.1,0.8-0.2,1.5-0.2,2.2
	v5.6L357.9,535.8L357.9,535.8z M337.6,526.6c3.4-0.5,3.4-2,5.3-8.2h-4.8c-1.6,5.2-1.9,6.8-3.6,6.8h-0.8c0.1-0.7,0.2-1.5,0.2-2.2
	v-4.6h-4.5v4.6c0,0.7,0.1,1.4,0.2,2.2h-0.9c-1.7,0-2-1.6-3.5-6.8h-4.8c1.8,6.2,1.9,7.8,5.3,8.2v0.2c-3.5,0.5-3.7,1.9-5.8,9h4.9
	c1.9-6.3,2.1-7.4,3.8-7.4h0.9c-0.1,0.6-0.2,1.1-0.2,1.6v5.8h4.5V530c0-0.5-0.1-1.1-0.2-1.6h0.8c1.8,0,1.9,1.1,3.9,7.4h5
	c-2-7.1-2.3-8.5-5.8-9v-0.2H337.6z"/>
<path class="st3" d="M590.8,781c2.4-0.1,3.7-0.1,5.4-0.1c1.3,0,1.9,0.1,1.9,0.8c0,1-1.1,2.5-3.1,4.5l-3.9,4
	c-0.5,0.6-0.7,1.1-0.7,1.9v2.5h12.9v-4.1h-5c-0.8,0-1.6,0-2.4,0.2l4.3-4.2c2.3-2.4,2.7-3.5,2.7-5.4c0-3.4-2.4-4.2-6.1-4.2
	c-1.9,0-3.7,0.1-6.2,0.6L590.8,781z M585.8,790.3c-1.2,0-1.6,0.4-1.6,1.6v1.1c0,1.2,0.4,1.6,1.6,1.6h1.1c1.2,0,1.6-0.4,1.6-1.6v-1.1
	c0-1.2-0.4-1.6-1.6-1.6H585.8z M569.6,781c2.4-0.1,3.7-0.1,5.4-0.1c1.3,0,1.9,0.1,1.9,0.8c0,1-1.1,2.5-3.1,4.5l-3.9,4
	c-0.5,0.6-0.7,1.1-0.7,1.9v2.5h12.9v-4.1h-5c-0.8,0-1.6,0-2.4,0.2l4.3-4.2c2.3-2.4,2.7-3.5,2.7-5.4c0-3.4-2.4-4.2-6.1-4.2
	c-1.9,0-3.7,0.1-6.2,0.6L569.6,781z M566.3,794.6v-17.4h-4.7l-4.4,1.7l0.6,3l4-0.9c-0.2,0.7-0.2,1.4-0.2,2.1v11.5L566.3,794.6
	L566.3,794.6z"/>
<path class="st3" d="M670,760c0-0.6,0.3-1,1.1-1h2.6v1.6c-0.8,0.5-1.7,0.9-2.4,0.9c-0.8,0-1.2-0.4-1.2-1L670,760L670,760z
	 M666.6,755.1c2.1-0.1,4.1-0.2,5.4-0.2c1.3,0,1.7,0.4,1.7,1.4v0.3h-4.2c-2.5,0-4,1.2-4,3.2v1.3c0,2.3,1.9,3.6,4.2,3.6
	c2.2,0,3.6-1.1,4.5-2.2l0.4,1.8h3.6v-8c0-3.7-1.9-4.9-5.2-4.9c-1.8,0-5,0.3-6.9,0.6L666.6,755.1z M664.5,755.3v-3.4H652v3.4h4v9.1
	h4.6v-9.1H664.5z M642.1,760c0-0.6,0.3-1,1.1-1h2.6v1.6c-0.8,0.5-1.7,0.9-2.4,0.9c-0.8,0-1.2-0.4-1.2-1L642.1,760L642.1,760z
	 M638.7,755.1c2.1-0.1,4.1-0.2,5.4-0.2c1.3,0,1.7,0.4,1.7,1.4v0.3h-4.2c-2.5,0-4,1.2-4,3.2v1.3c0,2.3,1.9,3.6,4.2,3.6
	c2.2,0,3.6-1.1,4.5-2.2l0.4,1.8h3.6v-8c0-3.7-1.9-4.9-5.2-4.9c-1.8,0-5,0.3-6.9,0.6L638.7,755.1z M635.6,751.9h-4.5v4.4h-3.8v-4.4
	h-4.5v12.5h4.5v-5.1h3.8v5.1h4.5V751.9z M614.4,751.9c-1,0-1.6,0.5-1.7,1.4l-1.1,4.7c-0.1,0.6-0.2,1.2-0.3,1.9h-0.2
	c-0.1-0.6-0.1-1.2-0.3-1.9l-1.1-4.7c-0.2-0.9-0.8-1.4-1.7-1.4h-3.9c-1,0-1.6,0.5-1.6,1.6l-0.3,11h4.1l0.3-9.2h0.3l1.5,6.1
	c0.2,0.9,0.8,1.4,1.7,1.4h2c1,0,1.5-0.5,1.7-1.4l1.5-6.1h0.3l0.3,9.2h4.1l-0.3-11c0-1-0.5-1.6-1.6-1.6H614.4z M593.6,754.7
	c1.5,0,1.9,0.6,1.9,3.4c0,2.7-0.4,3.4-1.9,3.4c-1.6,0-2-0.6-2-3.4C591.6,755.4,592,754.7,593.6,754.7 M593.6,751.5
	c-4.9,0-6.7,1.8-6.7,6.6s1.8,6.5,6.7,6.5s6.7-1.7,6.7-6.5S598.5,751.5,593.6,751.5 M581,757.8c2.9-0.4,2.7-0.7,4.3-5.9h-4.6
	c-1.1,4.2-1.2,4.5-2.9,4.5h-0.6c0.1-0.5,0.2-1.1,0.2-1.6v-2.9h-4.6v12.5h4.6v-4c0-0.3,0-0.7-0.2-1h1c1.3,0,1.4,0.4,2.7,5h4.8
	c-1.7-5.9-1.8-6-4.8-6.4L581,757.8L581,757.8z M560.4,757.5h-1.8c-1.2,0-1.4-0.3-1.4-1.6c0-0.9,0.2-1.2,1.4-1.2h1.8V757.5z
	 M555.5,759.1c-0.8,0.1-2.1,0.3-2.4,1.4l-1,4h4.7l0.8-3.4c0.1-0.6,0.4-0.7,1.2-0.7h1.7v4.1h4.4v-12.6c-1.6-0.2-2.9-0.2-6.3-0.2
	c-4.6,0-5.7,0.9-5.7,4C552.7,757.1,553.3,758.5,555.5,759.1L555.5,759.1z M542.1,760c0-0.6,0.3-1,1.1-1h2.6v1.6
	c-0.8,0.5-1.7,0.9-2.4,0.9c-0.8,0-1.2-0.4-1.2-1L542.1,760L542.1,760z M538.7,755.1c2.1-0.1,4.1-0.2,5.4-0.2c1.3,0,1.7,0.4,1.7,1.4
	v0.3h-4.2c-2.5,0-4,1.2-4,3.2v1.3c0,2.3,1.9,3.6,4.2,3.6c2.2,0,3.6-1.1,4.5-2.2l0.4,1.8h3.6v-8c0-3.7-1.9-4.9-5.2-4.9
	c-1.8,0-5,0.3-6.9,0.6L538.7,755.1z M535.6,751.9H528c-2.2,0-3.3,1.1-3.4,3.2c-0.2,2.3-0.4,4-0.7,4.9c-0.3,1-1,1-2.1,1.2l0.5,3.4
	c2.7,0.5,5.2-0.2,5.7-3.3c0.3-1.2,0.5-3.3,0.8-5.3c0.1-0.7,0.4-1.1,1.2-1.1h1.1v9.5h4.6L535.6,751.9L535.6,751.9z M520.2,764.4
	v-12.5h-4l-4,6c-0.4,0.6-0.7,1.1-1,1.8h-0.1c0.1-0.7,0.2-1.3,0.2-1.9v-5.9h-4.1v12.5h4l3.9-5.7c0.4-0.6,0.8-1.4,1-2.1h0.1
	c-0.1,0.8-0.2,1.5-0.2,2.2v5.6L520.2,764.4L520.2,764.4z M499.9,755.2c3.4-0.5,3.4-2,5.3-8.2h-4.8c-1.6,5.2-1.9,6.8-3.6,6.8H496
	c0.1-0.7,0.2-1.5,0.2-2.2V747h-4.5v4.6c0,0.7,0.1,1.4,0.2,2.2H491c-1.7,0-2-1.6-3.5-6.8h-4.8c1.8,6.2,1.9,7.8,5.3,8.2v0.2
	c-3.5,0.5-3.7,1.9-5.8,9h4.9c1.9-6.3,2.1-7.4,3.8-7.4h0.9c-0.1,0.6-0.2,1.1-0.2,1.6v5.8h4.5v-5.8c0-0.5-0.1-1.1-0.2-1.6h0.8
	c1.8,0,1.9,1.1,3.9,7.4h5c-2-7.1-2.3-8.5-5.8-9v-0.2H499.9z"/>
<path class="st3" d="M725,449.6c0-1.4,0.1-2,1.4-2c1.4,0,1.5,0.5,1.5,3.2c-0.6,0.3-1,0.5-1.5,0.5C725.3,451.2,725,450.9,725,449.6
	 M722.4,457.5c1.4,0.4,2.7,0.4,3.4,0.4c3.9,0,5.3-0.9,5.3-6.4c0-4.9-0.8-6.2-4.7-6.2c-3.5,0-4.5,1.3-4.5,4.5c0,2.2,0.8,3.8,3.5,3.8
	c1.1,0,1.8-0.2,2.5-0.7c-0.1,2.1-0.5,2.7-2.1,2.7s-2.2,0-3.2,0L722.4,457.5z M718.7,454.6c-0.8,0-1.1,0.3-1.1,1.1v0.8
	c0,0.8,0.3,1.1,1.1,1.1h0.8c0.8,0,1.1-0.3,1.1-1.1v-0.8c0-0.8-0.3-1.1-1.1-1.1H718.7z M710,449.6c0-1.4,0.1-2,1.4-2
	c1.4,0,1.5,0.5,1.5,3.2c-0.6,0.3-1,0.5-1.5,0.5C710.2,451.2,710,450.9,710,449.6 M707.4,457.5c1.4,0.4,2.7,0.4,3.4,0.4
	c3.9,0,5.3-0.9,5.3-6.4c0-4.9-0.8-6.2-4.7-6.2c-3.5,0-4.5,1.3-4.5,4.5c0,2.2,0.8,3.8,3.5,3.8c1.1,0,1.8-0.2,2.5-0.7
	c-0.1,2.1-0.5,2.7-2.1,2.7s-2.2,0-3.2,0L707.4,457.5z"/>
<path class="st3" d="M750.8,430.4c0.6-0.3,1-0.5,1.6-0.5c0.8,0,1.1,0.3,1.1,2.3s-0.4,2.3-1.3,2.3c-0.6,0-1.1-0.2-1.5-0.3v-3.8H750.8
	z M750.2,427.7h-2.6v12h3.2v-1.9c0-0.6,0-1.3-0.1-1.9c0.8,0.6,1.7,0.8,2.8,0.8c2.2,0,3.3-1,3.3-4.5c0-3-0.9-4.7-3.1-4.7
	c-1.4,0-2.7,0.6-3.4,1.4L750.2,427.7z M741.4,429.7c1.1,0,1.4,0.4,1.4,2.4c0,1.9-0.3,2.3-1.4,2.3c-1.1,0-1.4-0.4-1.4-2.3
	C740,430.1,740.3,429.7,741.4,429.7 M741.4,427.4c-3.5,0-4.7,1.3-4.7,4.6c0,3.4,1.3,4.6,4.7,4.6s4.7-1.2,4.7-4.6
	C746.1,428.7,744.8,427.4,741.4,427.4 M731.3,434.3h-2.6c0.4-1,0.8-2.2,1-3.9c0.1-0.5,0.3-0.7,0.8-0.7h0.8V434.3z M735.7,434.3h-1.5
	v-6.6h-4.8c-1.6,0-2.3,0.7-2.5,2.1c-0.2,1.5-0.5,3-1,4.5h-1.1v4.6h2.1l0.2-2.4h6.3l0.2,2.4h2.1V434.3z M723.6,436.5v-8.8h-2.8
	l-2.8,4.2c-0.3,0.4-0.5,0.8-0.7,1.3h-0.1c0.1-0.5,0.1-0.9,0.1-1.4v-4.1h-2.8v8.8h2.8l2.7-4c0.2-0.4,0.5-1,0.7-1.5h0.1
	c-0.1,0.6-0.1,1-0.1,1.6v3.9H723.6z M706.9,430.4c0.6-0.3,1-0.5,1.6-0.5c0.8,0,1.1,0.3,1.1,2.3s-0.4,2.3-1.3,2.3
	c-0.6,0-1.1-0.2-1.5-0.3v-3.8H706.9z M706.3,427.7h-2.6v12h3.2v-1.9c0-0.6,0-1.3-0.1-1.9c0.8,0.6,1.7,0.8,2.8,0.8
	c2.2,0,3.3-1,3.3-4.5c0-3-0.9-4.7-3.1-4.7c-1.4,0-2.7,0.6-3.4,1.4L706.3,427.7z M697.5,429.7c1.1,0,1.4,0.4,1.4,2.4
	c0,1.9-0.3,2.3-1.4,2.3c-1.1,0-1.4-0.4-1.4-2.3C696.1,430.1,696.4,429.7,697.5,429.7 M697.5,427.4c-3.5,0-4.7,1.3-4.7,4.6
	c0,3.4,1.3,4.6,4.7,4.6s4.7-1.2,4.7-4.6C702.2,428.7,700.9,427.4,697.5,427.4 M688,430c2.4-0.3,2.5-1.4,3.8-5.8h-3.4
	c-1,3.6-1.2,4.7-2.9,4.7h-0.6c0.1-0.5,0.1-1,0.1-1.5v-3.2h-3.3v12.2h3.3v-4.1c0-0.3-0.1-0.7-0.1-1.1h0.6c1.7,0,1.8,0.8,3.1,5.2h3.5
	c-1.5-5-1.7-5.9-4.2-6.3V430H688z"/>
</svg>
