<svg xmlns="http://www.w3.org/2000/svg" xml:space="preserve" id="Слой_1" x="0" y="0" style="enable-background:new 0 0 1000 1000" version="1.1" viewBox="0 0 1000 1000"><style>.st0{fill:#b7e0e6}.st1{fill:#373437}.st2{stroke-width:.834}.st2,.st3,.st4{fill:none;stroke:#373437}.st3{stroke-width:.5}.st4{stroke-width:.334}.st10{fill:none;stroke:#373437}.st5{stroke-width:.477}.st5,.st7,.st8,.st9{fill:none;stroke:#373437}.st7{stroke-width:.208}.st8{stroke-width:.156}.st9{stroke-width:.536}.st10{stroke-width:.549}</style><path d="M420.8 240.1h374v324.7h-374z" class="st0"/><path d="M251.2 240.1h368.1v614.7H251.2z" class="st0"/><path d="M625.1 877.2H572v-4.3h5.4v-17.2h47.7z" class="st1"/><path d="M621.7 877.2H572v-4.3h5.1v-17.2h44.6z" class="st2"/><path d="M442.3 877.2h-53.1v-4.3h5.4v-17.2h47.7z" class="st1"/><path d="M442.3 877.2h-53.1v-4.3h5.4v-17.2h47.7z" class="st2"/><path d="M618.8 218.2h-79v4.3h5.4v17.2h73.6z" class="st1"/><path d="M618.8 218.2h-79v4.3h5.4v17.2h73.6z" class="st2"/><path d="M802.5 218.2h-53.1v4.3h5.4v17.2h47.7z" class="st1"/><path d="M802.5 218.2h-53.1v4.3h5.4v17.2h47.7z" class="st2"/><path d="M430.2 877.2h46.3v-4.3h-5.4v-17.2h-40.9z" class="st1"/><path d="M430.2 877.2h46.3v-4.3h-5.4v-17.2h-40.9z" class="st2"/><path d="M247.3 877.2h46.4v-4.3h-5.4v-17.2h-41z" class="st1"/><path d="M247.3 877.2h46.4v-4.3h-5.4v-17.2h-41z" class="st2"/><path d="M429.2 218.2h46.3v4.3h-5.4v17.2h-40.9z" class="st1"/><path d="M429.2 218.2h46.3v4.3h-5.4v17.2h-40.9z" class="st2"/><path d="M614.8 218.2h46.4v4.3h-5.4v17.2h-41z" class="st1"/><path d="M614.8 218.2h46.4v4.3h-5.4v17.2h-41z" class="st2"/><path d="M243.1 218.2h66.5v4.3h-5.4v17.2h-61.1z" class="st1"/><path d="M243.1 218.2h66.5v4.3h-5.4v17.2h-61.1z" class="st2"/><path d="M440.3 218.2h-66.5v4.3h5.4v17.2h61.1z" class="st1"/><path d="M440.3 218.2h-66.5v4.3h5.4v17.2h61.1z" class="st2"/><path d="M238 218.2h18.5v659.1H238z" class="st1"/><path d="M238 218.2h18.5v659.1H238z" class="st2"/><path d="M431.3 156.2h10.2v342.4h-10.2z" class="st1"/><path d="M431.3 156.2h10.2v342.4h-10.2z" class="st2"/><path d="M431.3 542.4h10.2v327.8h-10.2z" class="st1"/><path d="M431.3 542.4h10.2v327.8h-10.2z" class="st2"/><path d="M613 566.9h8.7v310.4H613z" class="st1"/><path d="M613 566.9h8.7v310.4H613z" class="st2"/><path d="M584.6 564.2h219v6.8h-219z" class="st1"/><path d="M584.6 564.2h219v6.8h-219z" class="st2"/><path d="M433.9 564.2h109.2v6.8H433.9z" class="st1"/><path d="M433.9 564.2h109.2v6.8H433.9z" class="st2"/><path d="M255.3 561h132.6v8.7H255.3z" class="st1"/><path d="M255.3 561h132.6v8.7H255.3z" class="st2"/><path d="M255.3 418.9h133v6.5h-133z" class="st1"/><path d="M255.3 418.9h133v6.5h-133z" class="st2"/><path d="M432.7 485.8h88.6v6.5h-88.6z" class="st1"/><path d="M432.7 485.8h88.6v6.5h-88.6z" class="st2"/><path d="M582.4 485.8h47.4v6.5h-47.4z" class="st1"/><path d="M582.4 485.8h47.4v6.5h-47.4z" class="st2"/><path d="M662.3 485.8h26.5v6.5h-26.5z" class="st1"/><path d="M662.3 485.8h26.5v6.5h-26.5z" class="st2"/><path d="M682.3 457.3h6.5v28.3h-6.5z" class="st1"/><path d="M682.3 457.3h6.5v28.3h-6.5z" class="st2"/><path d="M612.3 382.7h6.5v105.5h-6.5z" class="st1"/><path d="M612.3 382.7h6.5v105.5h-6.5z" class="st2"/><path d="M612.3 232.3h6.5v72.6h-6.5z" class="st1"/><path d="M612.3 232.3h6.5v72.6h-6.5z" class="st2"/><path stroke-width=".5" d="m430.4 161.425 182.203-26.381.717 4.948-182.204 26.382z" class="st3"/><path d="M617.2 134.9h161.5v5H617.2z" class="st3"/><path stroke-width=".5" d="m512.284 242.164 34.458-20.507.87 1.461-34.459 20.507zm211.696.016 34.458-20.508.87 1.461-34.458 20.507z" class="st3"/><path d="M445.2 217.8h65.5v5h-65.5zm211.7 0h65.5v5h-65.5zm-377.4 0h116.6v5H279.5zm161 5H506v17.3h-65.5zm211.8 0h65.5v17.3h-65.5zm-372.8 0h116.6v17.3H279.5z" class="st3"/><path d="M512.1 241.9s-2-2.8-3-9.1c-1-6.4-.7-9.8-.7-9.8m215.4 18.9s-2-2.8-3-9.1c-1-6.4-.7-9.8-.7-9.8" class="st4"/><path d="m391.9 399.5 1.4-2.3 42.4 25.7-1.3 2.2z" class="st3"/><path d="M392.3 398.5s-2.7 4.2-3.5 13.7c-.8 9.5-.2 11.9-.2 11.9" class="st4"/><path d="m391.9 589.4 1.4 2.3 42.4-25.7-1.3-2.3z" class="st3"/><path d="M392.3 590.4s-2.7-4.2-3.5-13.7c-.8-9.5-.2-11.9-.2-11.9" class="st4"/><path d="m774.5 508.1-2.3 1.3 25.7 42.5 2.3-1.4z" class="st3"/><path d="M773.5 508.4s4.2-2.7 13.7-3.5c9.5-.8 11.9-.2 11.9-.2" class="st4"/><path d="m546.2 591.5 1.4 2.3 42.4-25.7-1.3-2.2z" class="st3"/><path d="M546.6 592.5s-2.7-4.2-3.5-13.7c-.8-9.5-.2-11.9-.2-11.9" class="st4"/><path d="m658.3 509.9-1.3 2.3-42.4-25.7 1.3-2.3z" class="st3"/><path d="M658 510.9s2.7-4.2 3.5-13.7c.8-9.5.2-11.9.2-11.9" class="st4"/><path d="M443 872.6h168.7v5H443z" class="st3"/><path d="M445.4 855.4h163.9v17.3H445.4zM261 872.6h156.3v5H261z" class="st3"/><path d="M262 855.4h149.3v17.3H262z" class="st3"/><path d="M273.1 558.7c-5.5 0-9.9-4.4-9.9-9.9v-60.9c0-5.5 4.4-9.9 9.9-9.9h13.3c5.5 0 9.9 4.4 9.9 9.9v60.9c0 5.5-4.4 9.9-9.9 9.9h-13.3z" class="st5"/><path d="M276.2 553.1c-5.5 0-9.9-4.4-9.9-9.9v-49.7c0-5.5 4.4-9.9 9.9-9.9h7.1c5.5 0 9.9 4.4 9.9 9.9v49.7c0 5.5-4.4 9.9-9.9 9.9h-7.1z" class="st5"/><path d="M274.2 546.3c-2.7 0-4.9-2.2-4.9-4.9v-49.7c0-2.7 2.2-4.9 4.9-4.9h11c2.7 0 4.9 2.2 4.9 4.9v49.7c0 2.7-2.2 4.9-4.9 4.9h-11z" class="st5"/><path d="M279.8 492.7c.8 0 1.5.7 1.5 1.5s-.7 1.5-1.5 1.5-1.5-.7-1.5-1.5.6-1.5 1.5-1.5zm18.3 68.9v-87" class="st5"/><path d="M302.3 532.1h28.4v31.2h-28.4z" style="fill:none;stroke:#373437;stroke-width:.509"/><path d="M772.2 116.7h22.6v107.1h-22.6z" class="st1"/><path d="M794.8 116.7h8.7V505h-8.7zm0 433.1h8.7V571h-8.7zm-543.3-313 17.7-5 7.5 7.5-19.5 19.4zm3.3 627.2-5.1-17.7 7.5-7.5 19.5 19.4zm-3.6-392.9h10.1v92.2h-10.1zM364 457.6h4.1v45.6H364z" class="st1"/><path d="M364 457.6h4.1v45.6H364z" class="st2"/><path d="M255.3 470.9h109.2v4.1H255.3z" class="st1"/><path d="M255.3 470.9h109.2v4.1H255.3z" class="st2"/><path d="M364 532.7h4.1v36.6H364z" class="st1"/><path d="M364 532.7h4.1v36.6H364z" class="st2"/><path d="m382.1 507.1 2.3 1.3-18 29.5-2.3-1.4z" class="st3"/><path d="M383.1 507.4s-4.2-2.7-13.7-3.5c-2.2-.2-4-.3-5.5-.3" class="st4"/><path d="m382.1 453.7 2.3-1.3-18-29.5-2.3 1.4z" class="st3"/><path d="M383.1 453.4s-4.2 2.7-13.7 3.5c-2.2.2-4 .3-5.5.3" class="st4"/><path d="M312.5 448.7c0 5.2-4.2 9.4-9.4 9.4h-13.6c-.9 0-1.6-.7-1.6-1.6V441c0-.9.7-1.6 1.6-1.6h13.6c5.2-.1 9.4 4.2 9.4 9.3m-25.2-7.7v15.5c0 1.2 1 2.3 2.3 2.3h13.6c5.5 0 10-4.5 10-10s-4.5-10-10-10h-13.6c-1.3-.1-2.3.9-2.3 2.2" class="st1"/><path d="M312.5 448.7c0 5.2-4.2 9.4-9.4 9.4h-13.6c-.9 0-1.6-.7-1.6-1.6V441c0-.9.7-1.6 1.6-1.6h13.6c5.2-.1 9.4 4.2 9.4 9.3zm-25.2-7.7v15.5c0 1.2 1 2.3 2.3 2.3h13.6c5.5 0 10-4.5 10-10s-4.5-10-10-10h-13.6c-1.3-.1-2.3.9-2.3 2.2z" class="st7"/><path d="M292.4 455.4V442c0-.1.1-.2.2-.2h10.2c3.8 0 6.9 3.1 6.9 6.9 0 3.8-3.1 6.9-6.9 6.9h-10.2c-.1 0-.2-.1-.2-.2z" class="st7"/><path d="M292.8 455.3v-13.1h10.1c3.6 0 6.6 2.9 6.6 6.6s-2.9 6.6-6.6 6.6h-10.1zm-.7-13.3v13.4c0 .3.2.5.5.5h10.2c4 0 7.2-3.2 7.2-7.2s-3.2-7.2-7.2-7.2h-10.2c-.3 0-.5.2-.5.5" class="st1"/><path d="M292.8 455.3v-13.1h10.1c3.6 0 6.6 2.9 6.6 6.6s-2.9 6.6-6.6 6.6h-10.1zm-.7-13.3v13.4c0 .3.2.5.5.5h10.2c4 0 7.2-3.2 7.2-7.2s-3.2-7.2-7.2-7.2h-10.2c-.3 0-.5.2-.5.5z" class="st7"/><path d="M302.9 448.7c0 1-.8 1.8-1.8 1.8s-1.8-.8-1.8-1.8.8-1.8 1.8-1.8 1.8.8 1.8 1.8m-4.2 0c0 1.3 1.1 2.4 2.4 2.4 1.3 0 2.4-1.1 2.4-2.4 0-1.3-1.1-2.4-2.4-2.4-1.4 0-2.4 1.1-2.4 2.4" class="st1"/><path d="M302.9 448.7c0 1-.8 1.8-1.8 1.8s-1.8-.8-1.8-1.8.8-1.8 1.8-1.8 1.8.8 1.8 1.8zm-4.2 0c0 1.3 1.1 2.4 2.4 2.4 1.3 0 2.4-1.1 2.4-2.4 0-1.3-1.1-2.4-2.4-2.4-1.4 0-2.4 1.1-2.4 2.4z" class="st7"/><path d="m293.782 453.981 4.325-3.234.36.48-4.326 3.235z" class="st1"/><path stroke-width=".208" d="m293.782 453.981 4.325-3.234.36.48-4.326 3.235z" class="st7"/><path d="m293.7 443.6 4.3 3.2.4-.5-4.3-3.2z" class="st1"/><path d="m293.7 443.6 4.3 3.2.4-.5-4.3-3.2z" class="st7"/><path d="M287.2 455.2c0 1.4-1.2 2.6-2.6 2.6h-3.5c-1.4 0-2.6-1.2-2.6-2.6v-12.9c0-1.4 1.2-2.6 2.6-2.6h3.5c1.4 0 2.6 1.2 2.6 2.6v12.9zm-9.3-12.9v12.9c0 1.8 1.5 3.2 3.2 3.2h3.5c1.8 0 3.2-1.5 3.2-3.2v-12.9c0-1.8-1.5-3.2-3.2-3.2h-3.5c-1.8-.1-3.2 1.4-3.2 3.2" class="st1"/><path d="M287.2 455.2c0 1.4-1.2 2.6-2.6 2.6h-3.5c-1.4 0-2.6-1.2-2.6-2.6v-12.9c0-1.4 1.2-2.6 2.6-2.6h3.5c1.4 0 2.6 1.2 2.6 2.6v12.9zm-9.3-12.9v12.9c0 1.8 1.5 3.2 3.2 3.2h3.5c1.8 0 3.2-1.5 3.2-3.2v-12.9c0-1.8-1.5-3.2-3.2-3.2h-3.5c-1.8-.1-3.2 1.4-3.2 3.2z" class="st7"/><path d="M283.9 448.7c0 .6-.5 1-1 1-.6 0-1-.5-1-1 0-.6.5-1 1-1s1 .5 1 1m-2.7 0c0 .9.7 1.6 1.6 1.6.9 0 1.6-.7 1.6-1.6 0-.9-.7-1.6-1.6-1.6-.8 0-1.6.7-1.6 1.6" class="st1"/><path d="M283.9 448.7c0 .6-.5 1-1 1-.6 0-1-.5-1-1 0-.6.5-1 1-1s1 .5 1 1zm-2.7 0c0 .9.7 1.6 1.6 1.6.9 0 1.6-.7 1.6-1.6 0-.9-.7-1.6-1.6-1.6-.8 0-1.6.7-1.6 1.6z" class="st7"/><path d="M646.4 464.2c-5.2 0-9.4-4.2-9.4-9.4v-13.6c0-.9.7-1.6 1.6-1.6h15.5c.9 0 1.6.7 1.6 1.6v13.6c.1 5.2-4.1 9.4-9.3 9.4m7.8-25.2h-15.5c-1.2 0-2.3 1-2.3 2.3v13.6c0 5.5 4.5 10 10 10s10-4.5 10-10v-13.6c.1-1.2-.9-2.3-2.2-2.3" class="st1"/><path d="M646.4 464.2c-5.2 0-9.4-4.2-9.4-9.4v-13.6c0-.9.7-1.6 1.6-1.6h15.5c.9 0 1.6.7 1.6 1.6v13.6c.1 5.2-4.1 9.4-9.3 9.4zm7.8-25.2h-15.5c-1.2 0-2.3 1-2.3 2.3v13.6c0 5.5 4.5 10 10 10s10-4.5 10-10v-13.6c.1-1.2-.9-2.3-2.2-2.3z" class="st7"/><path d="M639.7 444.2h13.4c.1 0 .2.1.2.2v10.2c0 3.8-3.1 6.9-6.9 6.9-3.8 0-6.9-3.1-6.9-6.9v-10.2c.1-.1.1-.2.2-.2z" class="st7"/><path d="M639.9 444.5H653v10.1c0 3.6-2.9 6.6-6.6 6.6-3.6 0-6.6-2.9-6.6-6.6v-10.1zm13.3-.6h-13.4c-.3 0-.5.2-.5.5v10.2c0 4 3.2 7.2 7.2 7.2s7.2-3.2 7.2-7.2v-10.2c0-.3-.3-.5-.5-.5" class="st1"/><path d="M639.9 444.5H653v10.1c0 3.6-2.9 6.6-6.6 6.6-3.6 0-6.6-2.9-6.6-6.6v-10.1zm13.3-.6h-13.4c-.3 0-.5.2-.5.5v10.2c0 4 3.2 7.2 7.2 7.2s7.2-3.2 7.2-7.2v-10.2c0-.3-.3-.5-.5-.5z" class="st7"/><path d="M646.4 454.6c-1 0-1.8-.8-1.8-1.8s.8-1.8 1.8-1.8 1.8.8 1.8 1.8-.8 1.8-1.8 1.8m0-4.2c-1.3 0-2.4 1.1-2.4 2.4 0 1.3 1.1 2.4 2.4 2.4 1.3 0 2.4-1.1 2.4-2.4.1-1.3-1-2.4-2.4-2.4" class="st1"/><path d="M646.4 454.6c-1 0-1.8-.8-1.8-1.8s.8-1.8 1.8-1.8 1.8.8 1.8 1.8-.8 1.8-1.8 1.8zm0-4.2c-1.3 0-2.4 1.1-2.4 2.4 0 1.3 1.1 2.4 2.4 2.4 1.3 0 2.4-1.1 2.4-2.4.1-1.3-1-2.4-2.4-2.4z" class="st7"/><path d="m640.67 445.965.481-.36 3.234 4.325-.48.36z" class="st1"/><path stroke-width=".208" d="m640.67 445.965.481-.36 3.234 4.325-.48.36z" class="st7"/><path d="m651.6 445.5-3.2 4.3.5.4 3.2-4.3z" class="st1"/><path d="m651.6 445.5-3.2 4.3.5.4 3.2-4.3z" class="st7"/><path d="M640 439c-1.4 0-2.6-1.2-2.6-2.6v-3.5c0-1.4 1.2-2.6 2.6-2.6h12.9c1.4 0 2.6 1.2 2.6 2.6v3.5c0 1.4-1.2 2.6-2.6 2.6H640zm12.9-9.4H640c-1.8 0-3.2 1.5-3.2 3.2v3.5c0 1.8 1.5 3.2 3.2 3.2h12.9c1.8 0 3.2-1.5 3.2-3.2v-3.5c.1-1.7-1.4-3.2-3.2-3.2" class="st1"/><path d="M640 439c-1.4 0-2.6-1.2-2.6-2.6v-3.5c0-1.4 1.2-2.6 2.6-2.6h12.9c1.4 0 2.6 1.2 2.6 2.6v3.5c0 1.4-1.2 2.6-2.6 2.6H640zm12.9-9.4H640c-1.8 0-3.2 1.5-3.2 3.2v3.5c0 1.8 1.5 3.2 3.2 3.2h12.9c1.8 0 3.2-1.5 3.2-3.2v-3.5c.1-1.7-1.4-3.2-3.2-3.2z" class="st7"/><path d="M646.4 435.6c-.6 0-1-.5-1-1 0-.6.5-1 1-1 .6 0 1 .5 1 1 .1.6-.4 1-1 1m0-2.6c-.9 0-1.6.7-1.6 1.6 0 .9.7 1.6 1.6 1.6.9 0 1.6-.7 1.6-1.6.1-.9-.6-1.6-1.6-1.6" class="st1"/><path d="M646.4 435.6c-.6 0-1-.5-1-1 0-.6.5-1 1-1 .6 0 1 .5 1 1 .1.6-.4 1-1 1zm0-2.6c-.9 0-1.6.7-1.6 1.6 0 .9.7 1.6 1.6 1.6.9 0 1.6-.7 1.6-1.6.1-.9-.6-1.6-1.6-1.6z" class="st7"/><path d="M312.5 498.7c-5.5 0-9.9-4.5-9.9-9.9v-10.5c0-.8.7-1.5 1.5-1.5h22.5c.8 0 1.5.7 1.5 1.5v10.5c0 5.5-4.5 9.9-9.9 9.9h-5.7zm14-22.5H304c-1.1 0-2.1.9-2.1 2.1v10.5c0 5.8 4.7 10.5 10.5 10.5h5.6c5.8 0 10.5-4.7 10.5-10.5v-10.5c.1-1.2-.8-2.1-2-2.1" class="st1"/><path d="M312.5 498.7c-5.5 0-9.9-4.5-9.9-9.9v-10.5c0-.8.7-1.5 1.5-1.5h22.5c.8 0 1.5.7 1.5 1.5v10.5c0 5.5-4.5 9.9-9.9 9.9h-5.7zm14-22.5H304c-1.1 0-2.1.9-2.1 2.1v10.5c0 5.8 4.7 10.5 10.5 10.5h5.6c5.8 0 10.5-4.7 10.5-10.5v-10.5c.1-1.2-.8-2.1-2-2.1z" class="st7"/><path d="M312.5 496.2c-4.1 0-7.4-3.3-7.4-7.4v-6.1c0-.7.6-1.3 1.3-1.3h17.9c.7 0 1.3.6 1.3 1.3v6.1c0 4.1-3.3 7.4-7.4 7.4h-5.7zm11.8-15.4h-17.9c-1 0-1.9.8-1.9 1.9v6.1c0 4.4 3.6 8 8 8h5.6c4.4 0 8-3.6 8-8v-6.1c0-1.1-.8-1.9-1.8-1.9" class="st1"/><path d="M312.5 496.2c-4.1 0-7.4-3.3-7.4-7.4v-6.1c0-.7.6-1.3 1.3-1.3h17.9c.7 0 1.3.6 1.3 1.3v6.1c0 4.1-3.3 7.4-7.4 7.4h-5.7zm11.8-15.4h-17.9c-1 0-1.9.8-1.9 1.9v6.1c0 4.4 3.6 8 8 8h5.6c4.4 0 8-3.6 8-8v-6.1c0-1.1-.8-1.9-1.8-1.9z" class="st7"/><path d="M315.3 491c-.7 0-1.2-.6-1.2-1.2 0-.7.6-1.2 1.2-1.2.7 0 1.2.6 1.2 1.2 0 .7-.5 1.2-1.2 1.2m0-3c-1 0-1.8.8-1.8 1.8s.8 1.8 1.8 1.8 1.8-.8 1.8-1.8-.8-1.8-1.8-1.8" class="st1"/><path d="M315.3 491c-.7 0-1.2-.6-1.2-1.2 0-.7.6-1.2 1.2-1.2.7 0 1.2.6 1.2 1.2 0 .7-.5 1.2-1.2 1.2zm0-3c-1 0-1.8.8-1.8 1.8s.8 1.8 1.8 1.8 1.8-.8 1.8-1.8-.8-1.8-1.8-1.8z" class="st7"/><path d="M664 470.3c0-4.2 3.3-7.6 7.5-7.6h7.9c.6 0 1.1.5 1.1 1.2V481c0 .6-.5 1.2-1.1 1.2h-7.9c-4.1 0-7.5-3.4-7.5-7.6v-4.3zm16.9 10.7v-17.2c0-.9-.7-1.6-1.6-1.6h-7.9c-4.3 0-7.9 3.6-7.9 8v4.3c0 4.4 3.5 8 7.9 8h7.9c.9.1 1.6-.6 1.6-1.5" class="st1"/><path d="M664 470.3c0-4.2 3.3-7.6 7.5-7.6h7.9c.6 0 1.1.5 1.1 1.2V481c0 .6-.5 1.2-1.1 1.2h-7.9c-4.1 0-7.5-3.4-7.5-7.6v-4.3zm16.9 10.7v-17.2c0-.9-.7-1.6-1.6-1.6h-7.9c-4.3 0-7.9 3.6-7.9 8v4.3c0 4.4 3.5 8 7.9 8h7.9c.9.1 1.6-.6 1.6-1.5z" class="st8"/><path d="M665.8 470.3c0-3.1 2.5-5.7 5.6-5.7h4.6c.5 0 1 .4 1 1v13.7c0 .5-.4 1-1 1h-4.6c-3.1 0-5.6-2.6-5.6-5.7v-4.3zm11.7 9v-13.7c0-.8-.6-1.4-1.4-1.4h-4.6c-3.3 0-6 2.7-6 6.1v4.3c0 3.4 2.7 6.1 6 6.1h4.6c.7 0 1.4-.7 1.4-1.4" class="st1"/><path d="M665.8 470.3c0-3.1 2.5-5.7 5.6-5.7h4.6c.5 0 1 .4 1 1v13.7c0 .5-.4 1-1 1h-4.6c-3.1 0-5.6-2.6-5.6-5.7v-4.3zm11.7 9v-13.7c0-.8-.6-1.4-1.4-1.4h-4.6c-3.3 0-6 2.7-6 6.1v4.3c0 3.4 2.7 6.1 6 6.1h4.6c.7 0 1.4-.7 1.4-1.4z" class="st8"/><path d="M669.8 472.4c0-.5.4-.9.9-.9s.9.4.9.9-.4.9-.9.9c-.5.1-.9-.4-.9-.9m2.2 0c0-.8-.6-1.4-1.3-1.4-.7 0-1.3.6-1.3 1.4 0 .8.6 1.4 1.3 1.4.7 0 1.3-.6 1.3-1.4" class="st1"/><path d="M669.8 472.4c0-.5.4-.9.9-.9s.9.4.9.9-.4.9-.9.9c-.5.1-.9-.4-.9-.9zm2.2 0c0-.8-.6-1.4-1.3-1.4-.7 0-1.3.6-1.3 1.4 0 .8.6 1.4 1.3 1.4.7 0 1.3-.6 1.3-1.4z" class="st8"/><path d="M256.9 426.9h16.7v42.5h-16.7z" class="st9"/><path d="M256.9 423.5h2.9v44.3h-2.9zm2.9 41.6 10.8-1.2v-26l-10.8-1.4" class="st9"/><path d="m259.7 435 10.9-1.4V428l-10.9-1.3" class="st9"/><path d="M688.8 409.3H659v-29.8h29.8v29.8zm-30.4.6h31.1v-31.1h-31.1v31.1z" class="st1"/><path d="M688.8 409.3H659v-29.8h29.8v29.8zm-30.4.6h31.1v-31.1h-31.1v31.1z" class="st7"/><path d="M684.4 382.2c.7 0 1.3.6 1.3 1.3v15.6c0 .7-.6 1.3-1.3 1.3h-20.8c-.7 0-1.3-.6-1.3-1.3v-15.6c0-.7.6-1.3 1.3-1.3h20.8zm-20.9 19h20.8c1.1 0 2-.9 2-2v-15.6c0-1.1-.9-2-2-2h-20.8c-1.1 0-2 .9-2 2v15.6c0 1.1.9 2 2 2" class="st1"/><path d="M684.4 382.2c.7 0 1.3.6 1.3 1.3v15.6c0 .7-.6 1.3-1.3 1.3h-20.8c-.7 0-1.3-.6-1.3-1.3v-15.6c0-.7.6-1.3 1.3-1.3h20.8zm-20.9 19h20.8c1.1 0 2-.9 2-2v-15.6c0-1.1-.9-2-2-2h-20.8c-1.1 0-2 .9-2 2v15.6c0 1.1.9 2 2 2z" class="st7"/><path d="M683.4 398.2h-18.9v-13.7h18.9v13.7zm-19.6.7H684v-15h-20.2v15z" class="st1"/><path d="M683.4 398.2h-18.9v-13.7h18.9v13.7zm-19.6.7H684v-15h-20.2v15z" class="st7"/><path d="M673.9 388.7c1 0 1.7.8 1.7 1.7 0 1-.8 1.7-1.7 1.7s-1.7-.8-1.7-1.7c0-.9.8-1.7 1.7-1.7m0 4.1c1.3 0 2.4-1.1 2.4-2.4 0-1.3-1.1-2.4-2.4-2.4s-2.4 1.1-2.4 2.4c.1 1.4 1.1 2.4 2.4 2.4" class="st1"/><path d="M673.9 388.7c1 0 1.7.8 1.7 1.7 0 1-.8 1.7-1.7 1.7s-1.7-.8-1.7-1.7c0-.9.8-1.7 1.7-1.7zm0 4.1c1.3 0 2.4-1.1 2.4-2.4 0-1.3-1.1-2.4-2.4-2.4s-2.4 1.1-2.4 2.4c.1 1.4 1.1 2.4 2.4 2.4z" class="st7"/><path d="m552 463.9.8-1.4 37.8 25.4-.8 1.5zm-7.9 8.5-.8-1.5-20.5 13.5v1.9z" class="st3"/><path d="M544.3 472.4s1.4 3.1 1.7 5.8c.4 2.7.7 7.4.7 7.4s.3-8.7 1.9-13.6c1.5-4.9 3.1-8.1 3.1-8.1" class="st4"/><path d="M672.8 442.1H718v14.2h-45.2z" class="st10"/><path d="M672.8 454H718v2.3h-45.2zm42.5-.2-1.2-9.1h-26.5l-1.5 9.1m-1.5.1-1.5-9.2h-5.6l-1.4 9.2m-3.3-27.2H718v14.2h-45.2z" class="st10"/><path d="M672.8 438.6H718v2.3h-45.2zm2.7-.2 1.2-9.1h26.5l1.5 9.1m1.5.1 1.5-9.2h5.7l1.3 9.2" class="st10"/><path d="M620.3 411.2h178.3v13.3H620.3z" class="st1"/><path d="M620.3 411.2h178.3v13.3H620.3z" class="st2"/><path d="M611.6 130.6h10.1v51.7h-10.1z" class="st1"/><path d="M611.6 130.6h10.1v51.7h-10.1z" class="st2"/><path d="m532.7 431.6.1 2.7h5.4c-.3.4-.5.9-.6 1.3l-3 8.4h3.3l3.7-10.8c.3-.9-.3-1.7-1.3-1.7h-7.6zm-2.5 9.3c-.9 0-1.1.3-1.1 1.1v.8c0 .9.3 1.1 1.1 1.1h.8c.9 0 1.1-.3 1.1-1.1v-.8c0-.9-.3-1.1-1.1-1.1h-.8zm-7 .9c-1.4 0-1.6-.5-1.6-3.2.6-.3 1-.5 1.6-.5 1.2 0 1.5.3 1.5 1.6-.1 1.5-.2 2.1-1.5 2.1m3.7-10.1c-1.3-.4-2.6-.4-3.2-.4-3.6 0-5.4.9-5.4 6.5 0 5 1.1 6.3 4.8 6.3 3.8 0 4.6-1.5 4.6-4.5 0-2.7-.8-3.8-3.6-3.8-1.1 0-1.9.2-2.5.7.1-2.3.5-2.7 2.1-2.7h3.1l.1-2.1zM516.1 444v-12.4h-3.4l-3.1 1.2.4 2.1 2.9-.6c-.1.5-.1 1-.1 1.5v8.2h3.3zm41.4-24.7c0-.4.2-.7.8-.7h1.9v1.1c-.6.4-1.2.6-1.7.6-.6 0-.9-.3-.9-.7v-.3zm-2.5-3.5c1.5-.1 2.9-.1 3.8-.1.9 0 1.2.3 1.2 1v.2h-3c-1.8 0-2.9.9-2.9 2.3v.9c0 1.7 1.3 2.6 3 2.6 1.5 0 2.6-.8 3.2-1.5l.3 1.3h2.6v-5.7c0-2.7-1.3-3.5-3.7-3.5-1.3 0-3.6.2-4.9.4l.4 2.1zm-1.4.1v-2.5h-8.9v2.5h2.8v6.5h3.3v-6.5h2.8zm-16 3.4c0-.4.2-.7.8-.7h1.9v1.1c-.6.4-1.2.6-1.7.6-.6 0-.9-.3-.9-.7v-.3zm-2.4-3.5c1.5-.1 2.9-.1 3.8-.1.9 0 1.2.3 1.2 1v.2h-3c-1.8 0-2.9.9-2.9 2.3v.9c0 1.7 1.3 2.6 3 2.6 1.5 0 2.6-.8 3.2-1.5l.3 1.3h2.6v-5.7c0-2.7-1.3-3.5-3.7-3.5-1.3 0-3.6.2-4.9.4l.4 2.1zm-2.3-2.3h-3.2v3.1H527v-3.1h-3.2v8.9h3.2v-3.6h2.7v3.6h3.2v-8.9zm-15.1 0c-.7 0-1.1.3-1.2 1l-.8 3.3c-.1.5-.1.9-.2 1.3h-.1c-.1-.5-.1-.9-.2-1.3l-.8-3.3c-.1-.7-.5-1-1.2-1h-2.8c-.7 0-1.1.4-1.1 1.1l-.2 7.8h2.9l.2-6.6h.2l1.1 4.3c.1.7.6 1 1.2 1h1.5c.7 0 1.1-.3 1.2-1l1.1-4.3h.2l.2 6.6h2.9l-.2-7.8c0-.7-.4-1.1-1.1-1.1h-2.8zm-14.9 2c1.1 0 1.4.5 1.4 2.4 0 2-.3 2.4-1.4 2.4-1.1 0-1.4-.4-1.4-2.4 0-1.9.3-2.4 1.4-2.4m0-2.3c-3.5 0-4.8 1.3-4.8 4.7 0 3.4 1.3 4.7 4.8 4.7s4.8-1.2 4.8-4.7c0-3.4-1.3-4.7-4.8-4.7m-8.9 4.5c2.1-.3 1.9-.5 3.1-4.2h-3.3c-.8 3-.8 3.2-2.1 3.2h-.4c.1-.4.1-.8.1-1.1v-2.1h-3.3v8.9h3.3v-2.8c0-.2 0-.5-.1-.7h.7c1 0 1 .3 2 3.5h3.4c-1.3-4.2-1.3-4.3-3.4-4.7zm57.7-21.8h-1.3c-.8 0-1-.2-1-1.1 0-.7.2-.8 1-.8h1.3v1.9zm-3.6 1.1c-.5.1-1.5.2-1.7 1l-.7 2.8h3.3l.6-2.4c.1-.4.3-.5.8-.5h1.2v2.9h3.2v-9c-1.1-.1-2.1-.1-4.5-.1-3.3 0-4.1.6-4.1 2.9 0 1 .4 2.1 1.9 2.4zm-9.5.7c0-.4.2-.7.8-.7h1.9v1.1c-.6.4-1.2.6-1.7.6-.6 0-.9-.3-.9-.7v-.3zm-2.4-3.5c1.5-.1 2.9-.1 3.8-.1.9 0 1.2.3 1.2 1v.2h-3c-1.8 0-2.9.9-2.9 2.3v.9c0 1.7 1.3 2.6 3 2.6 1.5 0 2.6-.8 3.2-1.5l.3 1.3h2.6v-5.7c0-2.7-1.3-3.5-3.7-3.5-1.3 0-3.6.2-4.9.4l.4 2.1zm-2.3-2.3h-5.4c-1.5 0-2.3.8-2.5 2.3-.1 1.6-.3 2.9-.5 3.5-.2.7-.7.7-1.5.8l.3 2.4c2 .3 3.7-.1 4.1-2.3.2-.9.4-2.4.5-3.8.1-.5.3-.8.8-.8h.8v6.8h3.3v-8.9zm-10.9 8.9v-9h-2.8l-2.8 4.3c-.3.4-.5.8-.7 1.3h-.1c.1-.5.1-.9.1-1.4v-4.2h-2.9v8.9h2.8l2.8-4.1c.3-.4.6-1 .7-1.5h.1c-.1.6-.1 1.1-.1 1.6v4h2.9zm-14.5-6.5c2.4-.3 2.5-1.4 3.8-5.9h-3.4c-1.1 3.7-1.3 4.8-2.5 4.8h-.6c.1-.5.1-1 .1-1.5v-3.3h-3.2v3.3c0 .5.1 1 .2 1.5h-.6c-1.2 0-1.4-1.1-2.5-4.8h-3.4c1.3 4.4 1.4 5.6 3.8 5.9v.1c-2.5.4-2.7 1.3-4.1 6.4h3.5c1.4-4.5 1.5-5.3 2.7-5.3h.6c-.1.4-.1.8-.1 1.2v4.2h3.2v-4.2c0-.3-.1-.8-.1-1.2h.6c1.3 0 1.4.8 2.8 5.3h3.5c-1.5-5.1-1.6-6.1-4.1-6.4v-.1zM354.9 723.1c1.4 0 1.7.3 1.7 1.6 0 1.2-.3 1.5-1.7 1.5s-1.7-.3-1.7-1.5c-.1-1.2.2-1.6 1.7-1.6m-.1-5c1.2 0 1.5.3 1.5 1.5 0 1.1-.2 1.4-1.5 1.4s-1.6-.3-1.6-1.4c.1-1.2.4-1.5 1.6-1.5m-2.6 4c-1.8.2-2.2 1.7-2.2 3.3 0 2.4 1 3.4 4.9 3.3 3.9 0 4.9-.9 4.9-3.3 0-1.7-.4-3.1-2.2-3.3v-.1c1.3-.1 1.9-1.5 1.9-2.8 0-2.3-.8-3.3-4.6-3.3-3.7 0-4.5 1-4.5 3.3-.1 1.3.4 2.7 1.8 2.9zm-5.7 3.3c-.9 0-1.1.3-1.1 1.1v.8c0 .9.3 1.1 1.1 1.1h.8c.9 0 1.1-.3 1.1-1.1v-.8c0-.9-.3-1.1-1.1-1.1h-.8zm-7.5-2.3c1.4 0 1.7.3 1.7 1.6 0 1.2-.3 1.5-1.7 1.5s-1.7-.3-1.7-1.5c-.1-1.2.2-1.6 1.7-1.6m0-5c1.2 0 1.5.3 1.5 1.5 0 1.1-.2 1.4-1.5 1.4s-1.6-.3-1.6-1.4c0-1.2.3-1.5 1.6-1.5m-2.7 4c-1.8.2-2.2 1.7-2.2 3.3 0 2.4 1 3.4 4.9 3.3 3.9 0 4.9-.9 4.9-3.3 0-1.7-.4-3.1-2.2-3.3v-.1c1.3-.1 1.9-1.5 1.9-2.8 0-2.3-.8-3.3-4.6-3.3-3.7 0-4.5 1-4.5 3.3-.1 1.3.4 2.7 1.8 2.9zm-4.5 6.4v-12.4h-3.4l-3.1 1.2.4 2.1 2.9-.6c-.1.5-.1 1-.1 1.5v8.2h3.3zm42.8-24.7c0-.4.2-.7.8-.7h1.9v1.1c-.6.4-1.2.6-1.7.6-.6 0-.9-.3-.9-.7v-.3zm-2.4-3.5c1.5-.1 2.9-.1 3.8-.1.9 0 1.2.3 1.2 1v.2h-3c-1.8 0-2.9.9-2.9 2.3v.9c0 1.7 1.3 2.6 3 2.6 1.5 0 2.6-.8 3.2-1.5l.3 1.3h2.6v-5.7c0-2.7-1.3-3.5-3.7-3.5-1.3 0-3.6.2-4.9.4l.4 2.1zm-1.5.1V698h-8.9v2.5h2.8v6.5h3.3v-6.5h2.8zm-16 3.4c0-.4.2-.7.8-.7h1.9v1.1c-.6.4-1.2.6-1.7.6-.6 0-.9-.3-.9-.7v-.3zm-2.4-3.5c1.5-.1 2.9-.1 3.8-.1.9 0 1.2.3 1.2 1v.2h-3c-1.8 0-2.9.9-2.9 2.3v.9c0 1.7 1.3 2.6 3 2.6 1.5 0 2.6-.8 3.2-1.5l.3 1.3h2.6v-5.7c0-2.7-1.3-3.5-3.7-3.5-1.3 0-3.6.2-4.9.4l.4 2.1zM350 698h-3.2v3.1h-2.7V698h-3.2v8.9h3.2v-3.6h2.7v3.6h3.2V698zm-15.1 0c-.7 0-1.1.3-1.2 1l-.8 3.3c-.1.5-.1.9-.2 1.3h-.1c-.1-.5-.1-.9-.2-1.3l-.8-3.3c-.1-.7-.5-1-1.2-1h-2.8c-.7 0-1.1.4-1.1 1.1l-.2 7.8h2.9l.2-6.6h.2l1.1 4.3c.1.7.6 1 1.2 1h1.5c.7 0 1.1-.3 1.2-1l1.1-4.3h.2l.2 6.6h2.9l-.2-7.8c0-.7-.4-1.1-1.1-1.1h-2.8zm-14.9 2c1.1 0 1.4.5 1.4 2.4 0 2-.3 2.4-1.4 2.4-1.1 0-1.4-.4-1.4-2.4 0-1.9.3-2.4 1.4-2.4m0-2.3c-3.5 0-4.8 1.3-4.8 4.7 0 3.4 1.3 4.7 4.8 4.7s4.8-1.2 4.8-4.7c0-3.4-1.2-4.7-4.8-4.7m-8.9 4.5c2.1-.3 1.9-.5 3.1-4.2h-3.3c-.8 3-.8 3.2-2.1 3.2h-.4c.1-.4.1-.8.1-1.1V698h-3.3v8.9h3.3v-2.8c0-.2 0-.5-.1-.7h.7c1 0 1 .3 2 3.5h3.4c-1.3-4.2-1.3-4.3-3.4-4.7zm57.7-21.8h-1.3c-.8 0-1-.2-1-1.1 0-.7.2-.8 1-.8h1.3v1.9zm-3.5 1.1c-.5.1-1.5.2-1.7 1l-.7 2.8h3.3l.6-2.4c.1-.4.3-.5.8-.5h1.2v2.9h3.2v-9c-1.1-.1-2.1-.1-4.5-.1-3.3 0-4.1.6-4.1 2.9-.1 1 .4 2.1 1.9 2.4zm-9.6.7c0-.4.2-.7.8-.7h1.9v1.1c-.6.4-1.2.6-1.7.6-.6 0-.9-.3-.9-.7v-.3zm-2.4-3.5c1.5-.1 2.9-.1 3.8-.1.9 0 1.2.3 1.2 1v.2h-3c-1.8 0-2.9.9-2.9 2.3v.9c0 1.7 1.3 2.6 3 2.6 1.5 0 2.6-.8 3.2-1.5l.3 1.3h2.6v-5.7c0-2.7-1.3-3.5-3.7-3.5-1.3 0-3.6.2-4.9.4l.4 2.1zm-2.3-2.3h-5.4c-1.5 0-2.3.8-2.5 2.3-.1 1.6-.3 2.9-.5 3.5-.2.7-.7.7-1.5.8l.3 2.4c2 .3 3.7-.1 4.1-2.3.2-.9.4-2.4.5-3.8.1-.5.3-.8.8-.8h.8v6.8h3.3v-8.9zm-10.9 8.9v-9h-2.8l-2.8 4.3c-.3.4-.5.8-.7 1.3h-.1c.1-.5.1-.9.1-1.4v-4.2h-2.9v8.9h2.8l2.8-4.1c.3-.4.6-1 .7-1.5h.1c-.1.6-.1 1.1-.1 1.6v4h2.9zm-14.5-6.5c2.4-.3 2.5-1.4 3.8-5.9H326c-1.1 3.7-1.3 4.8-2.5 4.8h-.6c.1-.5.1-1 .1-1.5v-3.3h-3.2v3.3c0 .5.1 1 .2 1.5h-.6c-1.2 0-1.4-1.1-2.5-4.8h-3.4c1.3 4.4 1.4 5.6 3.8 5.9v.1c-2.5.4-2.7 1.3-4.1 6.4h3.5c1.4-4.5 1.5-5.3 2.7-5.3h.6c-.1.4-.1.8-.1 1.2v4.2h3.2v-4.2c0-.3-.1-.8-.1-1.2h.6c1.3 0 1.4.8 2.8 5.3h3.5c-1.5-5.1-1.6-6.1-4.1-6.4v-.1zm212.2 39.6c1.4 0 1.8.6 1.8 3.9s-.4 3.9-1.8 3.9c-1.3 0-1.7-.6-1.7-3.9s.4-3.9 1.7-3.9m0-2.6c-3.8 0-5.1 1.6-5.1 6.5 0 4.8 1.3 6.5 5.1 6.5s5.1-1.6 5.1-6.5c0-4.8-1.3-6.5-5.1-6.5m-8.4 9.6c-.9 0-1.1.3-1.1 1.1v.8c0 .9.3 1.1 1.1 1.1h.8c.9 0 1.1-.3 1.1-1.1v-.8c0-.9-.3-1.1-1.1-1.1h-.8zm-8.9-5c0-1.5.1-2.1 1.4-2.1 1.4 0 1.5.5 1.6 3.2-.6.3-1 .5-1.6.5-1.1 0-1.4-.4-1.4-1.6m-2.7 8c1.4.4 2.8.4 3.5.4 4 0 5.4-.9 5.4-6.5 0-5-.8-6.3-4.7-6.3-3.6 0-4.6 1.4-4.6 4.6 0 2.3.8 3.8 3.6 3.8 1.1 0 1.9-.2 2.6-.7-.1 2.1-.5 2.7-2.2 2.7h-3.3l-.3 2zm-2.5.1v-12.4h-3.4l-3.1 1.2.4 2.1 2.9-.6c-.1.5-.1 1-.1 1.5v8.2h3.3zm42.6-24.7c0-.4.2-.7.8-.7h1.9v1.1c-.6.4-1.2.6-1.7.6-.6 0-.9-.3-.9-.7v-.3zm-2.4-3.5c1.5-.1 2.9-.1 3.8-.1.9 0 1.2.3 1.2 1v.2h-3c-1.8 0-2.9.9-2.9 2.3v.9c0 1.7 1.3 2.6 3 2.6 1.5 0 2.6-.8 3.2-1.5l.3 1.3h2.6v-5.7c0-2.7-1.3-3.5-3.7-3.5-1.3 0-3.6.2-4.9.4l.4 2.1zm-1.5.1V698h-8.9v2.5h2.8v6.5h3.3v-6.5h2.8zm-16 3.4c0-.4.2-.7.8-.7h1.9v1.1c-.6.4-1.2.6-1.7.6-.6 0-.9-.3-.9-.7v-.3zm-2.4-3.5c1.5-.1 2.9-.1 3.8-.1.9 0 1.2.3 1.2 1v.2h-3c-1.8 0-2.9.9-2.9 2.3v.9c0 1.7 1.3 2.6 3 2.6 1.5 0 2.6-.8 3.2-1.5l.3 1.3h2.6v-5.7c0-2.7-1.3-3.5-3.7-3.5-1.3 0-3.6.2-4.9.4l.4 2.1zm-2.3-2.3h-3.2v3.1h-2.7V698h-3.2v8.9h3.2v-3.6h2.7v3.6h3.2V698zm-15.1 0c-.7 0-1.1.3-1.2 1l-.8 3.3c-.1.5-.1.9-.2 1.3h-.1c-.1-.5-.1-.9-.2-1.3l-.8-3.3c-.1-.7-.5-1-1.2-1h-2.8c-.7 0-1.1.4-1.1 1.1l-.2 7.8h2.9l.2-6.6h.2l1.1 4.3c.1.7.6 1 1.2 1h1.5c.7 0 1.1-.3 1.2-1l1.1-4.3h.2l.2 6.6h2.9l-.2-7.8c0-.7-.4-1.1-1.1-1.1h-2.8zm-14.8 2c1.1 0 1.4.5 1.4 2.4 0 2-.3 2.4-1.4 2.4-1.1 0-1.4-.4-1.4-2.4 0-1.9.2-2.4 1.4-2.4m0-2.3c-3.5 0-4.8 1.3-4.8 4.7 0 3.4 1.3 4.7 4.8 4.7s4.8-1.2 4.8-4.7c0-3.4-1.3-4.7-4.8-4.7m-9 4.5c2.1-.3 1.9-.5 3.1-4.2h-3.3c-.8 3-.8 3.2-2.1 3.2h-.4c.1-.4.1-.8.1-1.1V698h-3.3v8.9h3.3v-2.8c0-.2 0-.5-.1-.7h.7c1 0 1 .3 2 3.5h3.4c-1.2-4.2-1.3-4.3-3.4-4.7zm57.7-21.8h-1.3c-.8 0-1-.2-1-1.1 0-.7.2-.8 1-.8h1.3v1.9zm-3.5 1.1c-.5.1-1.5.2-1.7 1l-.7 2.8h3.3l.6-2.4c.1-.4.3-.5.8-.5h1.2v2.9h3.2v-9c-1.1-.1-2.1-.1-4.5-.1-3.3 0-4.1.6-4.1 2.9-.1 1 .4 2.1 1.9 2.4zm-9.5.7c0-.4.2-.7.8-.7h1.9v1.1c-.6.4-1.2.6-1.7.6-.6 0-.9-.3-.9-.7v-.3zm-2.5-3.5c1.5-.1 2.9-.1 3.8-.1.9 0 1.2.3 1.2 1v.2h-3c-1.8 0-2.9.9-2.9 2.3v.9c0 1.7 1.3 2.6 3 2.6 1.5 0 2.6-.8 3.2-1.5l.3 1.3h2.6v-5.7c0-2.7-1.3-3.5-3.7-3.5-1.3 0-3.6.2-4.9.4l.4 2.1zm-2.2-2.3H529c-1.5 0-2.3.8-2.5 2.3-.1 1.6-.3 2.9-.5 3.5-.2.7-.7.7-1.5.8l.3 2.4c2 .3 3.7-.1 4.1-2.3.2-.9.4-2.4.5-3.8.1-.5.3-.8.8-.8h.8v6.8h3.3v-8.9zm-11 8.9v-9h-2.8l-2.8 4.3c-.3.4-.5.8-.7 1.3h-.1c.1-.5.1-.9.1-1.4v-4.2h-2.9v8.9h2.8l2.8-4.1c.3-.4.6-1 .7-1.5h.1c-.1.6-.1 1.1-.1 1.6v4h2.9zm-14.5-6.5c2.4-.3 2.5-1.4 3.8-5.9h-3.4c-1.1 3.7-1.3 4.8-2.5 4.8h-.6c.1-.5.1-1 .1-1.5v-3.3h-3.2v3.3c0 .5.1 1 .2 1.5h-.6c-1.2 0-1.4-1.1-2.5-4.8h-3.4c1.3 4.4 1.4 5.6 3.8 5.9v.1c-2.5.4-2.7 1.3-4.1 6.4h3.5c1.4-4.5 1.5-5.3 2.7-5.3h.6c-.1.4-.1.8-.1 1.2v4.2h3.2v-4.2c0-.3-.1-.8-.1-1.2h.6c1.3 0 1.4.8 2.8 5.3h3.5c-1.5-5.1-1.6-6.1-4.1-6.4v-.1zm48.8-331.9.3 6.6h13.1c-.7 1-1.1 2.1-1.5 3.2l-7.2 20.3h8l9.1-26c.7-2.2-.7-4-3-4h-18.8zm-6 22.6c-2.1 0-2.7.7-2.7 2.7v1.9c0 2.1.7 2.7 2.7 2.7h1.9c2.1 0 2.7-.7 2.7-2.7v-1.9c0-2.1-.7-2.7-2.7-2.7h-1.9zm-5.6-4.3h-3.6v-12.4h-6.1l-1.3 4.7v7.7h-5.9c-.7 0-1.1-.4-.8-1.3l6.6-17h-7.6l-7.5 19.1c-1 2.3.7 4.7 3.2 4.7h12v6.3h7.4v-6.3h.1l3.5-.8v-4.7zm-41.3-12.7c3.4 0 4.3 1.4 4.3 9.4s-.9 9.4-4.3 9.4c-3.2 0-4.1-1.4-4.1-9.4s.9-9.4 4.1-9.4m.1-6.2c-9.1 0-12.2 3.9-12.2 15.6s3.1 15.6 12.2 15.6 12.3-3.9 12.3-15.6-3.2-15.6-12.3-15.6m-17.6 30.6v-30h-8.1l-7.6 3 1 5.2 7-1.6c-.3 1.2-.3 2.4-.3 3.6V377h8z" class="st1"/><path d="M525.7 339.1c14.7 0 26.7-11.9 26.7-26.7 0-14.7-11.9-26.7-26.7-26.7-14.7 0-26.7 11.9-26.7 26.7 0 14.7 12 26.7 26.7 26.7z" style="fill:none;stroke:#373437;stroke-width:.833"/><path d="m535.3 314.2 5.3 9.7h6.9l-5.6-9.6c-.5-.9-1.5-1.8-2.1-2.1v-.1c.6-.4 1.3-1 1.8-1.9l5.5-9h-6.7l-5.2 8.9h-1.5c.2-1 .3-1.9.3-2.8v-6h-6.2V324h6.2v-7.6c0-.6-.1-1.4-.3-2.1h1.6zm-10.3.8h-2.7v-9.4h-4.6l-1 3.6v5.8h-4.5c-.5 0-.9-.3-.6-1l5-12.9h-5.8l-5.7 14.4c-.7 1.8.5 3.5 2.4 3.5h9.1v4.8h5.6V319h.1l2.6-.6V315zm204.1-137c2 .8 2.7 3.4 2.7 7.2 0 3.7-.7 6.3-2.7 7.2l.4 1.4c3.8-1.1 5.5-3.8 5.5-8.6s-1.7-7.5-5.5-8.6l-.4 1.4zm0 8h-1.5v-5.1h-2.5l-.5 1.9v3.2h-2.4c-.3 0-.5-.2-.3-.5l2.7-7h-3.2l-3.1 7.9c-.4 1 .3 1.9 1.3 1.9h5v2.6h3.1v-2.6l1.4-.3v-2zm-13.9 1.8c-.9 0-1.1.3-1.1 1.1v.8c0 .9.3 1.1 1.1 1.1h.8c.9 0 1.1-.3 1.1-1.1v-.8c0-.9-.3-1.1-1.1-1.1h-.8zm-2.3-1.8h-1.5v-5.1h-2.5l-.5 1.9v3.2H706c-.3 0-.5-.2-.3-.5l2.7-7h-3.2l-3.1 7.9c-.4 1 .3 1.9 1.3 1.9h5v2.6h3.1v-2.6l1.4-.3v-2zm-11.1-9.4c-3.8 1.1-5.5 3.8-5.5 8.6s1.7 7.5 5.5 8.6l.4-1.4c-2-.9-2.7-3.5-2.7-7.2 0-3.8.7-6.3 2.7-7.2l-.4-1.4zm-15.5 8.9c1.4 0 1.7.3 1.7 1.6 0 1.2-.3 1.5-1.7 1.5s-1.7-.3-1.7-1.5c0-1.3.3-1.6 1.7-1.6m0-5c1.2 0 1.5.3 1.5 1.5 0 1.1-.2 1.4-1.5 1.4s-1.6-.3-1.6-1.4c.1-1.3.3-1.5 1.6-1.5m-2.7 3.9c-1.8.2-2.2 1.7-2.2 3.3 0 2.4 1 3.4 4.9 3.3 3.9 0 4.9-.9 4.9-3.3 0-1.7-.4-3.1-2.2-3.3v-.1c1.3-.1 1.9-1.5 1.9-2.8 0-2.3-.8-3.3-4.6-3.3-3.7 0-4.6 1-4.6 3.3 0 1.4.6 2.7 1.9 2.9zm-5.6 3.4c-.9 0-1.1.3-1.1 1.1v.8c0 .9.3 1.1 1.1 1.1h.8c.9 0 1.1-.3 1.1-1.1v-.8c0-.9-.3-1.1-1.1-1.1h-.8zm-7.6-2.3c1.4 0 1.7.3 1.7 1.6 0 1.2-.3 1.5-1.7 1.5s-1.7-.3-1.7-1.5c0-1.3.3-1.6 1.7-1.6m0-5c1.2 0 1.5.3 1.5 1.5 0 1.1-.2 1.4-1.5 1.4s-1.6-.3-1.6-1.4c.1-1.3.4-1.5 1.6-1.5m-2.7 3.9c-1.8.2-2.2 1.7-2.2 3.3 0 2.4 1 3.4 4.9 3.3 3.9 0 4.9-.9 4.9-3.3 0-1.7-.4-3.1-2.2-3.3v-.1c1.3-.1 1.9-1.5 1.9-2.8 0-2.3-.8-3.3-4.6-3.3-3.7 0-4.6 1-4.6 3.3.1 1.4.6 2.7 1.9 2.9zm22.5 359.8c1.7-.1 2.6-.1 3.9-.1 1 0 1.4.1 1.4.6 0 .7-.8 1.8-2.2 3.2l-2.8 2.9c-.4.4-.5.8-.5 1.3v1.8h9.2V551h-3.6c-.6 0-1.2 0-1.7.2l3.1-3c1.6-1.7 1.9-2.5 1.9-3.9 0-2.4-1.7-3-4.4-3-1.3 0-2.6.1-4.4.4l.1 2.5zm-3.6 6.6c-.9 0-1.1.3-1.1 1.1v.8c0 .9.3 1.1 1.1 1.1h.8c.9 0 1.1-.3 1.1-1.1v-.8c0-.9-.3-1.1-1.1-1.1h-.8zm-10.4-9.3.1 2.7h5.4c-.3.4-.4.9-.6 1.3l-3 8.4h3.3l3.7-10.8c.3-.9-.3-1.7-1.3-1.7h-7.6zm53.5-14.1h-1.3c-.8 0-1-.2-1-1.1 0-.7.2-.8 1-.8h1.3v1.9zm-3.5 1.1c-.5.1-1.5.2-1.7 1l-.7 2.8h3.3l.6-2.4c.1-.4.3-.5.8-.5h1.2v2.9h3.2v-9c-1.1-.1-2.1-.1-4.5-.1-3.3 0-4.1.6-4.1 2.9-.1 1 .4 2 1.9 2.4zm-9.5.7c0-.4.2-.7.8-.7h1.9v1.1c-.6.4-1.2.6-1.7.6-.6 0-.9-.3-.9-.7v-.3zm-2.5-3.5c1.5-.1 2.9-.1 3.8-.1.9 0 1.2.3 1.2 1v.2h-3c-1.8 0-2.9.9-2.9 2.3v.9c0 1.7 1.3 2.6 3 2.6 1.5 0 2.6-.8 3.2-1.5l.3 1.3h2.6v-5.7c0-2.7-1.3-3.5-3.7-3.5-1.3 0-3.6.2-4.9.5l.4 2zm-5 1.9c2.1-.3 2-.5 3.2-4.2h-3.2c-.9 2.9-1 3.3-1.9 3.3h-.6c.1-.4.1-.8.1-1.1v-2.1H704v2.1c0 .4 0 .7.1 1.1h-.6c-.9 0-1-.3-2-3.3h-3.2c1.2 3.7 1.1 4 3.2 4.2v.1c-2.2.3-2.2.5-3.5 4.6h3.3c1.1-3.4 1.2-3.6 2-3.6h.7c-.1.3-.1.5-.1.8v2.8h2.9v-2.8c0-.2 0-.5-.1-.8h.7c.8 0 .9.2 2 3.6h3.3c-1.3-4.2-1.3-4.3-3.5-4.7zm-16.7-2.2c1.1 0 1.4.5 1.4 2.4 0 2-.3 2.4-1.4 2.4-1.1 0-1.4-.4-1.4-2.4s.3-2.4 1.4-2.4m0-2.3c-3.5 0-4.8 1.3-4.8 4.7 0 3.4 1.3 4.7 4.8 4.7s4.8-1.2 4.8-4.7c0-3.4-1.3-4.7-4.8-4.7m-8.5 9.2h3.3l-2.7-4.6 2.4-4.4h-3.3l-1.8 3.3-1.8-3.3h-3.3l2.4 4.4-2.7 4.6h3.3l1.9-3.6 2.3 3.6zm-8.2 0v-9H673l-2.8 4.3c-.3.4-.5.8-.7 1.3h-.1c.1-.5.1-.9.1-1.4v-4.2h-2.9v8.9h2.8l2.8-4.1c.3-.4.6-1 .7-1.5h.1c-.1.6-.1 1.1-.1 1.6v4h2.9zm-17-6.2c.6-.3 1-.6 1.7-.6.8 0 1.2.3 1.2 2.4s-.4 2.4-1.3 2.4c-.6 0-1.1-.2-1.6-.3v-3.9zm-.6-2.8h-2.6v12.3h3.3v-2c0-.6 0-1.3-.1-1.9.8.6 1.8.8 2.9.8 2.2 0 3.4-1 3.4-4.6 0-3-.9-4.8-3.2-4.8-1.4 0-2.8.6-3.4 1.5l-.3-1.3zm-4.7-3.4h-10.4v12.4h3.4v-10.1h3.7v10.1h3.4v-12.4zm-126.9 13.7h3.5c1.3 0 1.6.2 1.6 1.2 0 .8-.1 1.4-1.5 1.4h-2.4v2.2h2.4c1.3 0 1.6.4 1.6 1.5 0 1.3-.5 1.5-2.1 1.5-1.1 0-1.9 0-3.4-.1l-.1 2.4c1.4.2 3 .3 4.5.3 3.3 0 4.5-1.1 4.5-3.7 0-1.9-.6-2.8-2.3-3.1v-.2c1.6-.3 2-1.3 2-3.1 0-2.2-1.2-2.9-4.2-2.9-1.4 0-2.8.1-4.2.3l.1 2.3zm-3.6 7c-.9 0-1.1.3-1.1 1.1v.8c0 .9.3 1.1 1.1 1.1h.8c.9 0 1.1-.3 1.1-1.1v-.8c0-.9-.3-1.1-1.1-1.1h-.8zm-7.6-2.3c1.4 0 1.7.3 1.7 1.6 0 1.2-.3 1.5-1.7 1.5s-1.7-.3-1.7-1.5c0-1.3.3-1.6 1.7-1.6m0-5.1c1.2 0 1.5.3 1.5 1.5 0 1.1-.2 1.4-1.5 1.4s-1.6-.3-1.6-1.4c.1-1.2.4-1.5 1.6-1.5m-2.7 4c-1.8.2-2.2 1.7-2.2 3.3 0 2.4 1 3.4 4.9 3.3 3.9 0 4.9-.9 4.9-3.3 0-1.7-.4-3.1-2.2-3.3v-.1c1.3-.1 1.9-1.5 1.9-2.8 0-2.3-.8-3.3-4.6-3.3-3.7 0-4.6 1-4.6 3.3.1 1.3.6 2.7 1.9 2.9zm42.5-21.3c.6-.3 1-.6 1.7-.6.8 0 1.2.3 1.2 2.4s-.4 2.4-1.3 2.4c-.6 0-1.1-.2-1.6-.3v-3.9zm-.6-2.8H552v12.3h3.3v-2c0-.6 0-1.3-.1-1.9.8.6 1.8.8 2.9.8 2.2 0 3.4-1 3.4-4.6 0-3-.9-4.8-3.2-4.8-1.4 0-2.8.6-3.4 1.5l-.3-1.3zm-9 2c1.1 0 1.4.4 1.4 2.4s-.3 2.4-1.4 2.4c-1.1 0-1.4-.4-1.4-2.4 0-1.9.2-2.4 1.4-2.4m0-2.3c-3.5 0-4.8 1.3-4.8 4.7 0 3.4 1.3 4.7 4.8 4.7s4.8-1.2 4.8-4.7c0-3.4-1.3-4.7-4.8-4.7m-10.3 7h-2.6c.5-1 .8-2.3 1-3.9.1-.5.3-.7.8-.7h.8v4.6zm4.5 0h-1.5v-6.7h-4.9c-1.6 0-2.4.7-2.6 2.2-.2 1.5-.5 3-1.1 4.6h-1.1v4.7h2.2l.2-2.5h6.4l.2 2.5h2.2v-4.8zm-12.4 2.2v-9h-2.8l-2.8 4.3c-.3.4-.5.8-.7 1.3h-.1c.1-.5.1-.9.1-1.4V513h-2.9v8.9h2.8l2.8-4.1c.3-.4.6-1 .7-1.5h.1c-.1.6-.1 1.1-.1 1.6v4h2.9zm-17-6.1c.6-.3 1-.6 1.7-.6.8 0 1.2.3 1.2 2.4s-.4 2.4-1.3 2.4c-.6 0-1.1-.2-1.6-.3v-3.9zm-.6-2.8h-2.6v12.3h3.3v-2c0-.6 0-1.3-.1-1.9.8.6 1.8.8 2.9.8 2.2 0 3.4-1 3.4-4.6 0-3-.9-4.8-3.2-4.8-1.4 0-2.8.6-3.4 1.5l-.3-1.3zm-9 2c1.1 0 1.4.4 1.4 2.4s-.3 2.4-1.4 2.4c-1.1 0-1.4-.4-1.4-2.4 0-1.9.3-2.4 1.4-2.4m0-2.3c-3.5 0-4.8 1.3-4.8 4.7 0 3.4 1.3 4.7 4.8 4.7s4.8-1.2 4.8-4.7c0-3.4-1.3-4.7-4.8-4.7m-9.7 2.7c2.5-.3 2.5-1.4 3.9-5.9h-3.4c-1 3.7-1.2 4.8-3 4.8h-.6c.1-.5.1-1 .1-1.5v-3.3h-3.4V522h3.4v-4.2c0-.3-.1-.8-.1-1.2h.6c1.7 0 1.9.8 3.1 5.3h3.5c-1.5-5.1-1.7-6.1-4.2-6.4zm-147.9-72.9.1-2.5h-7.8l-.3 5.6c0 .6.4 1 1 1.1l1.9.2c1.7.1 2.3.4 2.2 1.5-.1 1-.4 1.4-2.1 1.4-.9 0-2-.1-3.2-.1l-.3 2.5c1.6.2 3.2.4 4.4.4 3.5 0 4.5-1.8 4.5-4 0-2-.7-3.8-3.6-4.1l-2.1-.3.1-1.7h5.2zm-11.6 6.8c-.9 0-1.1.3-1.1 1.1v.8c0 .9.3 1.1 1.1 1.1h.8c.9 0 1.1-.3 1.1-1.1v-.8c0-.9-.3-1.1-1.1-1.1h-.8zm-3.4 3.1v-12.4h-3.4l-3.1 1.2.4 2.1 2.9-.6c-.1.5-.1 1-.1 1.5v8.2h3.3zm10.9 56.8.1-2.5h-7.8l-.3 5.6c0 .6.4 1 1 1.1l1.9.2c1.7.1 2.3.4 2.2 1.5-.1 1-.4 1.4-2.1 1.4-.9 0-2-.1-3.2-.1l-.3 2.5c1.6.2 3.2.4 4.4.4 3.5 0 4.5-1.8 4.5-4 0-2-.7-3.8-3.6-4.1l-2.1-.3.1-1.7h5.2zm-11.6 6.9c-.9 0-1.1.3-1.1 1.1v.8c0 .9.3 1.1 1.1 1.1h.8c.9 0 1.1-.3 1.1-1.1v-.8c0-.9-.3-1.1-1.1-1.1h-.8zm-11.2-6.9h3.5c1.3 0 1.6.2 1.6 1.2 0 .8-.1 1.3-1.5 1.3h-2.4v2.2h2.4c1.3 0 1.6.4 1.6 1.5 0 1.3-.5 1.5-2.1 1.5-1.1 0-1.9 0-3.4-.1l-.1 2.4c1.4.2 3 .3 4.5.3 3.3 0 4.5-1.1 4.5-3.7 0-1.9-.6-2.8-2.3-3.1v-.1c1.6-.3 2-1.4 2-3.1 0-2.2-1.1-2.9-4.2-2.9-1.4 0-2.8.1-4.2.3l.1 2.3zm35.3-153.1c0-1.5.1-2.1 1.4-2.1 1.4 0 1.5.5 1.6 3.2-.6.3-1 .5-1.6.5-1.2.1-1.4-.3-1.4-1.6m-2.7 8c1.4.4 2.8.4 3.5.4 4 0 5.4-.9 5.4-6.5 0-5-.8-6.3-4.7-6.3-3.6 0-4.6 1.4-4.6 4.6 0 2.3.8 3.8 3.6 3.8 1.1 0 1.9-.2 2.6-.7-.1 2.1-.5 2.7-2.2 2.7h-3.3l-.3 2zm-3.8-2.9c-.9 0-1.1.3-1.1 1.1v.8c0 .9.3 1.1 1.1 1.1h.8c.9 0 1.1-.3 1.1-1.1v-.8c0-.9-.3-1.1-1.1-1.1h-.8zm-3.3 3.1V352h-3.4l-3.1 1.2.4 2.1 2.9-.6c-.1.5-.1 1-.1 1.5v8.2h3.3zm-8.1 0V352h-3.4l-3.1 1.2.4 2.1 2.9-.6c-.1.5-.1 1-.1 1.5v8.2h3.3zm40.9-24.7c0-.4.2-.7.8-.7h1.9v1.1c-.6.4-1.2.6-1.7.6-.6 0-.9-.3-.9-.7v-.3zm-2.4-3.5c1.5-.1 2.9-.1 3.8-.1.9 0 1.2.3 1.2 1v.2h-3c-1.8 0-2.9.9-2.9 2.3v.9c0 1.7 1.3 2.6 3 2.6 1.5 0 2.6-.8 3.2-1.5l.3 1.3h2.6v-5.7c0-2.7-1.3-3.5-3.7-3.5-1.3 0-3.6.2-4.9.4l.4 2.1zm-1.5.1v-2.5h-8.9v2.5h2.8v6.5h3.3v-6.5h2.8zm-16 3.4c0-.4.2-.7.8-.7h1.9v1.1c-.6.4-1.2.6-1.7.6-.6 0-.9-.3-.9-.7v-.3zm-2.4-3.5c1.5-.1 2.9-.1 3.8-.1.9 0 1.2.3 1.2 1v.2h-3c-1.8 0-2.9.9-2.9 2.3v.9c0 1.7 1.3 2.6 3 2.6 1.5 0 2.6-.8 3.2-1.5l.3 1.3h2.6v-5.7c0-2.7-1.3-3.5-3.7-3.5-1.3 0-3.6.2-4.9.4l.4 2.1zm-2.3-2.3h-3.2v3.1h-2.7v-3.1h-3.2v8.9h3.2v-3.6h2.7v3.6h3.2v-8.9zm-15.1 0c-.7 0-1.1.3-1.2 1l-.8 3.3c-.1.5-.1.9-.2 1.3h-.1c-.1-.5-.1-.9-.2-1.3l-.8-3.3c-.1-.7-.5-1-1.2-1h-2.8c-.7 0-1.1.4-1.1 1.1l-.2 7.8h2.9l.2-6.6h.2l1.1 4.3c.1.7.6 1 1.2 1h1.5c.7 0 1.1-.3 1.2-1l1.1-4.3h.2l.2 6.6h2.9l-.2-7.8c0-.7-.4-1.1-1.1-1.1h-2.8zm-14.9 2c1.1 0 1.4.5 1.4 2.4 0 2-.3 2.4-1.4 2.4-1.1 0-1.4-.4-1.4-2.4 0-1.9.3-2.4 1.4-2.4m0-2.3c-3.5 0-4.8 1.3-4.8 4.7 0 3.4 1.3 4.7 4.8 4.7s4.8-1.2 4.8-4.7c0-3.4-1.2-4.7-4.8-4.7m-8.9 4.5c2.1-.3 1.9-.5 3.1-4.2h-3.3c-.8 3-.8 3.2-2.1 3.2h-.4c.1-.4.1-.8.1-1.1v-2.1h-3.3v8.9h3.3V340c0-.2 0-.5-.1-.7h.7c1 0 1 .3 2 3.5h3.4c-1.3-4.2-1.3-4.3-3.4-4.7zm57.7-21.8h-1.3c-.8 0-1-.2-1-1.1 0-.7.2-.8 1-.8h1.3v1.9zm-3.5 1.1c-.5.1-1.5.2-1.7 1l-.7 2.8h3.3l.6-2.4c.1-.4.3-.5.8-.5h1.2v2.9h3.2v-9c-1.1-.1-2.1-.1-4.5-.1-3.3 0-4.1.6-4.1 2.9-.1 1 .4 2 1.9 2.4zm-9.6.7c0-.4.2-.7.8-.7h1.9v1.1c-.6.4-1.2.6-1.7.6-.6 0-.9-.3-.9-.7v-.3zm-2.4-3.5c1.5-.1 2.9-.1 3.8-.1.9 0 1.2.3 1.2 1v.2h-3c-1.8 0-2.9.9-2.9 2.3v.9c0 1.7 1.3 2.6 3 2.6 1.5 0 2.6-.8 3.2-1.5l.3 1.3h2.6v-5.7c0-2.7-1.3-3.5-3.7-3.5-1.3 0-3.6.2-4.9.4l.4 2.1zm-2.3-2.3h-5.4c-1.5 0-2.3.8-2.5 2.3-.1 1.6-.3 2.9-.5 3.5-.2.7-.7.7-1.5.8l.3 2.4c2 .3 3.7-.1 4.1-2.3.2-.9.4-2.4.5-3.8.1-.5.3-.8.8-.8h.8v6.8h3.3v-8.9zm-10.9 8.9v-9h-2.8l-2.8 4.3c-.3.4-.5.8-.7 1.3h-.1c.1-.5.1-.9.1-1.4v-4.2h-2.9v8.9h2.8l2.8-4.1c.3-.4.6-1 .7-1.5h.1c-.1.6-.1 1.1-.1 1.6v4h2.9zm-14.5-6.5c2.4-.3 2.5-1.4 3.8-5.9H326c-1.1 3.7-1.3 4.8-2.5 4.8h-.6c.1-.5.1-1 .1-1.5v-3.3h-3.2v3.3c0 .5.1 1 .2 1.5h-.6c-1.2 0-1.4-1.1-2.5-4.8h-3.4c1.3 4.4 1.4 5.6 3.8 5.9v.1c-2.5.4-2.7 1.3-4.1 6.4h3.5c1.4-4.5 1.5-5.3 2.7-5.3h.6c-.1.4-.1.8-.1 1.2v4.2h3.2v-4.2c0-.3-.1-.8-.1-1.2h.6c1.3 0 1.4.8 2.8 5.3h3.5c-1.5-5.1-1.6-6.1-4.1-6.4v-.1zm391.5 32v-12.4h-3.4l-3.1 1.2.4 2.1 2.9-.6c-.1.5-.1 1-.1 1.5v8.2h3.3zm-8.5-3c-.9 0-1.1.3-1.1 1.1v.8c0 .9.3 1.1 1.1 1.1h.8c.9 0 1.1-.3 1.1-1.1v-.8c0-.9-.3-1.1-1.1-1.1h-.8zM697 337c1.7-.1 2.6-.1 3.9-.1 1 0 1.4.1 1.4.6 0 .7-.8 1.8-2.2 3.2l-2.8 2.9c-.4.4-.5.8-.5 1.3v1.8h9.2v-2.9h-3.6c-.6 0-1.2 0-1.7.2l3.1-3c1.6-1.7 1.9-2.5 1.9-3.9 0-2.4-1.7-3-4.4-3-1.3 0-2.6.1-4.4.4l.1 2.5zm-2.4 9.7v-12.4h-3.4l-3.1 1.2.4 2.1 2.9-.6c-.1.5-.1 1-.1 1.5v8.2h3.3zm31.6-26.5H725c-.8 0-1-.2-1-1.1 0-.7.2-.8 1-.8h1.3v1.9zm-3.5 1.1c-.5.1-1.5.2-1.7 1l-.7 2.8h3.3l.6-2.4c.1-.4.3-.5.8-.5h1.2v2.9h3.2v-9c-1.1-.1-2.1-.1-4.5-.1-3.3 0-4.1.6-4.1 2.9 0 1 .4 2 1.9 2.4zm-3.7-5.1h-3.2v3.1h-2.7v-3.1h-3.2v8.9h3.2v-3.6h2.7v3.6h3.2v-8.9zm-13.5 8.9h3.3l-2.7-4.6 2.4-4.4h-3.3l-1.8 3.3-1.8-3.3h-3.3l2.4 4.4-2.7 4.6h3.3l1.9-3.6 2.3 3.6zm-7.2-8.9h-3.5l-1.3 5.3c-.1.4-.2 1-.4 1.5h-.2l-.3-1.5-1.3-5.3h-3.5l2.8 8.2c.1.5.5.8 1 .8h.6c-.2.5-.6.9-.9 1.1-.6.3-1.4.4-2.5.4l-.3 2.1c1.3.2 2.6.3 3.7-.2 1.4-.5 2.4-1.4 3.1-3.5l3-8.9zm-14.7 2.4c2.5-.3 2.5-1.4 3.9-5.9h-3.4c-1 3.7-1.2 4.8-3 4.8h-.6c.1-.5.1-1 .1-1.5v-3.3h-3.4v12.4h3.4V321c0-.3-.1-.8-.1-1.2h.6c1.7 0 1.9.8 3.1 5.3h3.5c-1.5-5.1-1.7-6.1-4.2-6.4v-.1z" class="st1"/></svg>