<svg xmlns="http://www.w3.org/2000/svg" xml:space="preserve" id="Слой_1" x="0" y="0" style="enable-background:new 0 0 1000 1000" version="1.1" viewBox="0 0 1000 1000"><style>.st0{fill:#fff5a4}.st1{fill:#373437}.st2{stroke-width:.834}.st2,.st3,.st4,.st5,.st6,.st9{fill:none;stroke:#373437}.st4{stroke-width:.5}.st5{stroke-width:.334}.st6{stroke-width:.208}.st9{stroke-width:.549}</style><path d="M488 201.6h205.3V885H488z" class="st0"/><path d="M285.4 435.6h205.3v126.2H285.4z" class="st0"/><path d="M285.4 408.9h75.3v126.2h-75.3z" class="st0"/><path d="M684.1 908.9h-48.6v-4.7h6V885h42.6z" class="st1"/><path d="M684.1 908.9h-48.6v-4.7h6V885h42.6z" class="st2"/><path d="M682.7 176.7h-53.5v4.7h6v19.2h47.5z" class="st1"/><path d="M682.7 176.7h-53.5v4.7h6v19.2h47.5z" class="st2"/><path d="M476.4 908.9h59v-4.7h-6V885h-53z" class="st1"/><path d="M476.4 908.9h59v-4.7h-6V885h-53z" class="st2"/><path d="M462.9 176.7h70.2v4.7H526v19.2h-63.1z" class="st1"/><path d="M474.1 176.7h59v4.7h-6v19.2h-53z" class="st2"/><path d="M274.9 405.1h9.7v87.4h-9.7z" class="st1"/><path d="M274.9 405.1h9.7v87.4h-9.7z" class="st2"/><path d="M541.8 563.3h148.3v9.7H541.8z" class="st1"/><path d="M541.8 563.3h148.3v9.7H541.8z" class="st2"/><path d="M552.1 445.3h4v53.4h-4z" class="st1"/><path d="M552.1 445.3h4v53.4h-4z" class="st2"/><path d="M552.1 533.7h4v38.8h-4z" class="st1"/><path d="M552.1 533.7h4v38.8h-4z" class="st2"/><path d="M555.8 461.4h131.3v4H555.8z" class="st1"/><path d="M555.8 461.4h131.3v4H555.8z" class="st2"/><path d="M274.6 558.8h210.5v9.7H274.6z" class="st1"/><path d="M274.6 558.8h210.5v9.7H274.6z" class="st2"/><path d="M538.1 400.1h154.3v9.7H538.1z" class="st1"/><path d="M538.1 400.1h154.3v9.7H538.1z" class="st2"/><path d="M307.1 432.1h174.2v9.7H307.1z" class="st1"/><path d="M307.1 432.1h174.2v9.7H307.1z" class="st2"/><path d="M283.3 405.1h80.1v6.3h-80.1z" class="st1"/><path d="M283.3 405.1h80.1v6.3h-80.1z" class="st2"/><path d="M357.5 405.1h6.3v28.6h-6.3z" class="st1"/><path d="M357.5 405.1h6.3v28.6h-6.3z" class="st2"/><path d="M357.4 424.4h128v9.7h-128z" class="st1"/><path d="M357.4 424.4h128v9.7h-128z" class="st2"/><path d="M471.5 198.4h9.7v229.8h-9.7z" class="st1"/><path d="M471.5 198.4h9.7v229.8h-9.7z" class="st2"/><path d="M679.2 108.5h17.6V909h-17.6z" class="st1"/><path d="M679.2 108.5h17.6V909h-17.6z" class="st3"/><path stroke-width=".5" d="m484.16 89.37.802-5.543L692.6 113.891l-.803 5.543z" class="st4"/><path d="M566.9 176.2h90.9v5.6h-90.9zm5.1 5.6h94V201h-94z" class="st4"/><path stroke-width=".5" d="m523.793 182.72.972-1.632 38.067 22.66-.972 1.632z" class="st4"/><path d="M563 203.6s2.3-3.1 3.3-10.2c1.1-7.1.7-10.9.7-10.9" class="st5"/><path stroke-width=".5" d="m483.144 409.937 49.066-29.207.972 1.633-49.066 29.207z" class="st4"/><path d="M533.4 382.6s2.3 3.1 3.3 10.2c1.1 7.1.7 10.9.7 10.9" class="st5"/><path stroke-width=".5" d="m486.93 564.702.972-1.633 49.066 29.207-.971 1.633z" class="st4"/><path d="M537.2 592s2.3-3.1 3.3-10.2c1.1-7.1.7-10.9.7-10.9" class="st5"/><path d="M506.5 903.7H661v5.6H506.5z" class="st4"/><path d="M512.4 884.6H660v19.2H512.4z" class="st4"/><path d="M614.3 434.7c0 5.7 4.7 10.4 10.4 10.4h15.1c1 0 1.8-.8 1.8-1.8v-17.2c0-1-.8-1.8-1.8-1.8h-15.1c-5.7 0-10.4 4.7-10.4 10.4m28-8.6v17.2c0 1.4-1.1 2.5-2.5 2.5h-15.1c-6.1 0-11.1-5-11.1-11.1s5-11.1 11.1-11.1h15.1c1.4 0 2.5 1.1 2.5 2.5" class="st1"/><path d="M614.3 434.7c0 5.7 4.7 10.4 10.4 10.4h15.1c1 0 1.8-.8 1.8-1.8v-17.2c0-1-.8-1.8-1.8-1.8h-15.1c-5.7 0-10.4 4.7-10.4 10.4zm28-8.6v17.2c0 1.4-1.1 2.5-2.5 2.5h-15.1c-6.1 0-11.1-5-11.1-11.1s5-11.1 11.1-11.1h15.1c1.4 0 2.5 1.1 2.5 2.5z" class="st6"/><path d="M636.6 442.2v-14.9c0-.1-.1-.2-.2-.2H625c-4.2 0-7.6 3.4-7.6 7.6 0 4.2 3.4 7.6 7.6 7.6h11.4c.1.1.2 0 .2-.1z" class="st6"/><path d="M636.2 442v-14.6H625c-4 0-7.3 3.3-7.3 7.3s3.3 7.3 7.3 7.3h11.2zm.7-14.7v14.9c0 .3-.2.5-.5.5H625c-4.4 0-8-3.6-8-8s3.6-8 8-8h11.4c.3 0 .5.3.5.6" class="st1"/><path d="M636.2 442v-14.6H625c-4 0-7.3 3.3-7.3 7.3s3.3 7.3 7.3 7.3h11.2zm.7-14.7v14.9c0 .3-.2.5-.5.5H625c-4.4 0-8-3.6-8-8s3.6-8 8-8h11.4c.3 0 .5.3.5.6z" class="st6"/><path d="M625 434.7c0 1.1.9 2 2 2s2-.9 2-2-.9-2-2-2c-1.1.1-2 .9-2 2m4.6 0c0 1.5-1.2 2.7-2.7 2.7-1.5 0-2.7-1.2-2.7-2.7 0-1.5 1.2-2.7 2.7-2.7 1.5 0 2.7 1.2 2.7 2.7" class="st1"/><path d="M625 434.7c0 1.1.9 2 2 2s2-.9 2-2-.9-2-2-2c-1.1.1-2 .9-2 2zm4.6 0c0 1.5-1.2 2.7-2.7 2.7-1.5 0-2.7-1.2-2.7-2.7 0-1.5 1.2-2.7 2.7-2.7 1.5 0 2.7 1.2 2.7 2.7z" class="st6"/><path d="m629.99 437.5.419-.561 4.805 3.594-.42.56z" class="st1"/><path stroke-width=".208" d="m629.99 437.5.419-.561 4.805 3.594-.42.56z" class="st6"/><path d="m635.1 429-4.8 3.6-.4-.6 4.8-3.5z" class="st1"/><path d="m635.1 429-4.8 3.6-.4-.6 4.8-3.5z" class="st6"/><path d="M642.3 441.9c0 1.6 1.3 2.9 2.9 2.9h3.9c1.6 0 2.9-1.3 2.9-2.9v-14.4c0-1.6-1.3-2.9-2.9-2.9h-3.9c-1.6 0-2.9 1.3-2.9 2.9v14.4zm10.5-14.4v14.4c0 2-1.6 3.6-3.6 3.6h-3.9c-2 0-3.6-1.6-3.6-3.6v-14.4c0-2 1.6-3.6 3.6-3.6h3.9c1.9 0 3.6 1.7 3.6 3.6" class="st1"/><path d="M642.3 441.9c0 1.6 1.3 2.9 2.9 2.9h3.9c1.6 0 2.9-1.3 2.9-2.9v-14.4c0-1.6-1.3-2.9-2.9-2.9h-3.9c-1.6 0-2.9 1.3-2.9 2.9v14.4zm10.5-14.4v14.4c0 2-1.6 3.6-3.6 3.6h-3.9c-2 0-3.6-1.6-3.6-3.6v-14.4c0-2 1.6-3.6 3.6-3.6h3.9c1.9 0 3.6 1.7 3.6 3.6z" class="st6"/><path d="M646.1 434.7c0 .6.5 1.1 1.1 1.1.6 0 1.1-.5 1.1-1.1 0-.6-.5-1.1-1.1-1.1-.6 0-1.1.5-1.1 1.1m2.9 0c0 1-.8 1.8-1.8 1.8s-1.8-.8-1.8-1.8.8-1.8 1.8-1.8 1.8.8 1.8 1.8" class="st1"/><path d="M646.1 434.7c0 .6.5 1.1 1.1 1.1.6 0 1.1-.5 1.1-1.1 0-.6-.5-1.1-1.1-1.1-.6 0-1.1.5-1.1 1.1zm2.9 0c0 1-.8 1.8-1.8 1.8s-1.8-.8-1.8-1.8.8-1.8 1.8-1.8 1.8.8 1.8 1.8z" class="st6"/><path d="M656.4 560.1c6.3 0 11.4-5.1 11.4-11.4v-68.2c0-6.3-5.1-11.4-11.4-11.4h-15.3c-6.3 0-11.4 5.1-11.4 11.4v68.2c0 6.3 5.1 11.4 11.4 11.4h15.3z" class="st3"/><path d="M652.8 553.8c6.3 0 11.4-5.1 11.4-11.4v-55.6c0-6.3-5.1-11.4-11.4-11.4h-8.2c-6.3 0-11.4 5.1-11.4 11.4v55.6c0 6.3 5.1 11.4 11.4 11.4h8.2z" class="st3"/><path d="M655.1 546.1c3.2 0 5.7-2.6 5.7-5.7v-55.8c0-3.2-2.6-5.7-5.7-5.7h-12.7c-3.2 0-5.7 2.6-5.7 5.7v55.8c0 3.2 2.6 5.7 5.7 5.7h12.7z" class="st3"/><path d="M648.7 485.7c-.9 0-1.7.8-1.7 1.7 0 .9.8 1.7 1.7 1.7.9 0 1.7-.8 1.7-1.7 0-1-.7-1.7-1.7-1.7z" style="fill:none;stroke:#373437;stroke-width:.495"/><path d="M627.5 563.4v-98.2" class="st3"/><path d="M613.9 491.8c6.1 0 11-5 11-11V469c0-.9-.8-1.7-1.7-1.7h-25c-.9 0-1.7.8-1.7 1.7v11.7c0 6.1 5 11 11 11h6.4zm-15.6-25.1h25c1.3 0 2.3 1 2.3 2.3v11.7c0 6.4-5.2 11.7-11.7 11.7h-6.2c-6.4 0-11.7-5.2-11.7-11.7V469c0-1.3 1.1-2.3 2.3-2.3" class="st1"/><path d="M613.9 491.8c6.1 0 11-5 11-11V469c0-.9-.8-1.7-1.7-1.7h-25c-.9 0-1.7.8-1.7 1.7v11.7c0 6.1 5 11 11 11h6.4zm-15.6-25.1h25c1.3 0 2.3 1 2.3 2.3v11.7c0 6.4-5.2 11.7-11.7 11.7h-6.2c-6.4 0-11.7-5.2-11.7-11.7V469c0-1.3 1.1-2.3 2.3-2.3z" class="st6"/><path d="M613.9 489c4.6 0 8.3-3.7 8.3-8.3v-6.8c0-.8-.6-1.4-1.4-1.4h-19.9c-.8 0-1.4.6-1.4 1.4v6.8c0 4.6 3.7 8.3 8.3 8.3h6.1zm-13-17.2h19.9c1.1 0 2.1.9 2.1 2.1v6.8c0 4.9-4 8.9-8.9 8.9h-6.2c-4.9 0-8.9-4-8.9-8.9v-6.8c-.1-1.1.8-2.1 2-2.1" class="st1"/><path d="M613.9 489c4.6 0 8.3-3.7 8.3-8.3v-6.8c0-.8-.6-1.4-1.4-1.4h-19.9c-.8 0-1.4.6-1.4 1.4v6.8c0 4.6 3.7 8.3 8.3 8.3h6.1zm-13-17.2h19.9c1.1 0 2.1.9 2.1 2.1v6.8c0 4.9-4 8.9-8.9 8.9h-6.2c-4.9 0-8.9-4-8.9-8.9v-6.8c-.1-1.1.8-2.1 2-2.1z" class="st6"/><path d="M610.8 483.2c.8 0 1.4-.6 1.4-1.4 0-.8-.6-1.4-1.4-1.4-.8 0-1.4.6-1.4 1.4 0 .8.6 1.4 1.4 1.4m0-3.4c1.1 0 2 .9 2 2s-.9 2-2 2-2-.9-2-2 .9-2 2-2" class="st1"/><path d="M610.8 483.2c.8 0 1.4-.6 1.4-1.4 0-.8-.6-1.4-1.4-1.4-.8 0-1.4.6-1.4 1.4 0 .8.6 1.4 1.4 1.4zm0-3.4c1.1 0 2 .9 2 2s-.9 2-2 2-2-.9-2-2 .9-2 2-2z" class="st6"/><path d="M590 528.9h33.3v33.9H590z" class="st3"/><path d="m313.6 500.9 1.7 1-30.5 50.7-1.7-1zm-10.5-49.8-1 1.6-17.4-10.5 1-1.7z" class="st4"/><path d="M313.4 500.8s-3.7-2.9-13-5.4c-9.3-2.5-14.4-2.9-14.4-2.9m17.2-41.6s1.9-3.8 4.3-13.1" class="st5"/><path d="M274.6 543.4h11.8v22.5h-11.8z" class="st1"/><path d="M258.6 443.3h9.9v14.4h-9.9z" style="fill:#fff"/><path d="m680.8 892.9 5.6-19.7-8.3-8.3-21.6 21.6zm4.4-699.1 5.6 19.7-8.3 8.3-21.6-21.6z" class="st1"/><path stroke-width=".5" d="m533.645 503.69 1.632-.972 19.638 32.997-1.633.972z" class="st4"/><path d="M535.5 502.6s3.1-2.3 10.2-3.3c7.1-1.1 10.9-.7 10.9-.7" class="st5"/><path stroke-width=".5" d="m533.615 439.55 20.609-34.63 1.633.972-20.61 34.63z" class="st4"/><path d="M535.5 440.7s3.1 2.3 10.2 3.3c7.1 1.1 10.9.7 10.9.7" class="st5"/><path d="M669.5 463.4h11.2v102.5h-11.2z" class="st1"/><path d="M306.7 412.8h49.7v19.1h-49.7z" class="st9"/><path d="M306.7 412.8h49.7v3.3h-49.7zm3 3.4 1.3 12.2h29.2l1.6-12.2" class="st9"/><path d="m343.4 416 1.7 12.4h6.2l1.5-12.4" class="st9"/><path d="M659.3 411.5h18.3v48.3h-18.3z" class="st3"/><path d="M674.4 411.5h3.1v48.3h-3.1zm-.1 45.4-11.8-1.3v-28.3l11.8-1.6m.1-1.6-11.9-1.6v-6l11.9-1.5" class="st3"/><path d="M644.9 398.1h-33.1V365h33.1v33.1zm-33.8.7h34.5v-34.5h-34.5v34.5z" class="st1"/><path d="M644.9 398.1h-33.1V365h33.1v33.1zm-33.8.7h34.5v-34.5h-34.5v34.5z" class="st6"/><path d="M639.9 368.1c.8 0 1.5.7 1.5 1.5V387c0 .8-.7 1.5-1.5 1.5h-23.2c-.8 0-1.5-.7-1.5-1.5v-17.4c0-.8.7-1.5 1.5-1.5h23.2zm-23.2 21h23.2c1.2 0 2.2-1 2.2-2.2v-17.4c0-1.2-1-2.2-2.2-2.2h-23.2c-1.2 0-2.2 1-2.2 2.2v17.4c0 1.2 1 2.2 2.2 2.2" class="st1"/><path d="M639.9 368.1c.8 0 1.5.7 1.5 1.5V387c0 .8-.7 1.5-1.5 1.5h-23.2c-.8 0-1.5-.7-1.5-1.5v-17.4c0-.8.7-1.5 1.5-1.5h23.2zm-23.2 21h23.2c1.2 0 2.2-1 2.2-2.2v-17.4c0-1.2-1-2.2-2.2-2.2h-23.2c-1.2 0-2.2 1-2.2 2.2v17.4c0 1.2 1 2.2 2.2 2.2z" class="st6"/><path d="M638.8 385.8h-21v-15.2h21v15.2zm-21.7.8h22.4v-16.7h-22.4v16.7z" class="st1"/><path d="M638.8 385.8h-21v-15.2h21v15.2zm-21.7.8h22.4v-16.7h-22.4v16.7z" class="st6"/><path d="M628.3 375.3c1.1 0 1.9.9 1.9 1.9 0 1.1-.9 1.9-1.9 1.9-1.1 0-1.9-.9-1.9-1.9 0-1.1.9-1.9 1.9-1.9m0 4.5c1.5 0 2.6-1.2 2.6-2.6 0-1.5-1.2-2.6-2.6-2.6-1.5 0-2.6 1.2-2.6 2.6 0 1.5 1.2 2.6 2.6 2.6" class="st1"/><path d="M628.3 375.3c1.1 0 1.9.9 1.9 1.9 0 1.1-.9 1.9-1.9 1.9-1.1 0-1.9-.9-1.9-1.9 0-1.1.9-1.9 1.9-1.9zm0 4.5c1.5 0 2.6-1.2 2.6-2.6 0-1.5-1.2-2.6-2.6-2.6-1.5 0-2.6 1.2-2.6 2.6 0 1.5 1.2 2.6 2.6 2.6z" class="st6"/><path d="M476.4 525h10.3v384.3h-10.3z" class="st1"/><path d="M476.4 525h10.3v384.3h-10.3z" class="st2"/><path d="M476.4 79.4h10.3v386.1h-10.3z" class="st1"/><path d="M476.4 79.4h10.3v386.1h-10.3z" class="st2"/><path d="M596.2 809.6c1.5 0 1.8.3 1.8 1.8 0 1.4-.3 1.7-1.9 1.7-1.6 0-1.9-.3-1.9-1.7.1-1.4.4-1.8 2-1.8m0-5.6c1.4 0 1.7.3 1.7 1.7 0 1.2-.3 1.5-1.7 1.5s-1.8-.3-1.8-1.5c.1-1.4.4-1.7 1.8-1.7m-3 4.4c-2 .2-2.5 1.8-2.5 3.7 0 2.7 1.1 3.7 5.4 3.7 4.4 0 5.4-1 5.4-3.7 0-1.8-.5-3.5-2.4-3.7v-.1c1.5-.2 2.1-1.7 2.1-3.2 0-2.6-.9-3.7-5.1-3.7-4.2 0-5.1 1.1-5.1 3.7.1 1.6.7 3.1 2.2 3.3zm-6.3 3.8c-1 0-1.3.3-1.3 1.3v.9c0 1 .3 1.3 1.3 1.3h.9c1 0 1.3-.3 1.3-1.3v-.9c0-1-.3-1.3-1.3-1.3h-.9zm-8.3-2.6c1.5 0 1.8.3 1.8 1.8 0 1.4-.3 1.7-1.9 1.7-1.6 0-1.9-.3-1.9-1.7s.4-1.8 2-1.8m-.1-5.6c1.4 0 1.7.3 1.7 1.7 0 1.2-.3 1.5-1.7 1.5s-1.8-.3-1.8-1.5c.1-1.4.4-1.7 1.8-1.7m-2.9 4.4c-2 .2-2.5 1.8-2.5 3.7 0 2.7 1.1 3.7 5.4 3.7 4.4 0 5.4-1 5.4-3.7 0-1.8-.5-3.5-2.4-3.7v-.1c1.5-.2 2.1-1.7 2.1-3.2 0-2.6-.9-3.7-5.1-3.7-4.2 0-5.1 1.1-5.1 3.7.1 1.6.7 3.1 2.2 3.3zm-5 7.2v-13.8h-3.7l-3.5 1.4.4 2.4 3.2-.7c-.1.6-.1 1.1-.1 1.6v9.1h3.7zm47.6-27.5c0-.5.2-.8.8-.8h2.1v1.2c-.7.4-1.4.7-1.9.7-.7 0-1-.3-1-.8v-.3zm-2.8-3.9c1.7-.1 3.3-.1 4.3-.1s1.4.3 1.4 1.1v.2h-3.3c-2 0-3.2 1-3.2 2.5v1c0 1.9 1.5 2.8 3.3 2.8 1.7 0 2.9-.9 3.5-1.7l.3 1.5h2.9v-6.3c0-3-1.5-3.9-4.2-3.9-1.5 0-4 .2-5.4.5l.4 2.4zm-1.6.2v-2.7h-9.9v2.7h3.2v7.2h3.6v-7.2h3.1zm-17.7 3.7c0-.5.2-.8.8-.8h2.1v1.2c-.7.4-1.4.7-1.9.7-.7 0-1-.3-1-.8v-.3zm-2.7-3.9c1.7-.1 3.3-.1 4.3-.1s1.4.3 1.4 1.1v.2h-3.3c-2 0-3.2 1-3.2 2.5v1c0 1.9 1.5 2.8 3.3 2.8 1.7 0 2.9-.9 3.5-1.7l.3 1.5h2.9v-6.3c0-3-1.5-3.9-4.2-3.9-1.5 0-4 .2-5.4.5l.4 2.4zm-2.5-2.6h-3.6v3.5h-3v-3.5h-3.6v9.9h3.6v-4h3v4h3.6v-9.9zm-16.8 0c-.8 0-1.2.4-1.4 1.1l-.9 3.7c-.1.5-.1 1-.2 1.5h-.2c-.1-.5-.1-1-.2-1.5l-.9-3.7c-.1-.7-.6-1.1-1.3-1.1h-3c-.8 0-1.2.4-1.3 1.2l-.2 8.7h3.3l.2-7.3h.2l1.2 4.8c.1.7.6 1.1 1.4 1.1h1.6c.8 0 1.2-.4 1.4-1.1l1.2-4.8h.2l.3 7.3h3.3l-.3-8.7c0-.8-.4-1.2-1.2-1.2h-3.2zm-16.6 2.3c1.2 0 1.5.5 1.5 2.7s-.3 2.7-1.5 2.7-1.6-.5-1.6-2.7c.1-2.2.4-2.7 1.6-2.7m0-2.5c-3.9 0-5.4 1.4-5.4 5.3 0 3.8 1.4 5.2 5.4 5.2 3.9 0 5.3-1.4 5.3-5.2.1-3.9-1.4-5.3-5.3-5.3m-9.9 5c2.3-.3 2.2-.5 3.4-4.7h-3.7c-.9 3.3-.9 3.6-2.3 3.6h-.4c.1-.4.1-.9.1-1.3v-2.3h-3.6v9.9h3.6v-3.1c0-.2 0-.5-.1-.8h.8c1.1 0 1.1.3 2.2 3.9h3.8c-1.4-4.7-1.4-4.8-3.8-5.1v-.1zm64.1-24.3h-1.4c-.9 0-1.1-.2-1.1-1.2 0-.7.2-.9 1.1-.9h1.4v2.1zm-3.9 1.3c-.6.1-1.6.2-1.9 1.1l-.8 3.1h3.7l.6-2.7c.1-.5.3-.6.9-.6h1.3v3.2h3.5v-10c-1.2-.1-2.3-.2-5-.2-3.7 0-4.6.7-4.6 3.2.1 1.3.6 2.5 2.3 2.9zm-10.6.8c0-.5.2-.8.8-.8h2.1v1.2c-.7.4-1.4.7-1.9.7-.7 0-1-.3-1-.8v-.3zm-2.7-4c1.7-.1 3.3-.1 4.3-.1s1.4.3 1.4 1.1v.2h-3.3c-2 0-3.2 1-3.2 2.5v1c0 1.9 1.5 2.8 3.3 2.8 1.7 0 2.9-.9 3.5-1.7l.3 1.5h2.9v-6.3c0-3-1.5-3.9-4.2-3.9-1.5 0-4 .2-5.4.5l.4 2.4zm-2.5-2.5h-6c-1.7 0-2.6.9-2.7 2.6-.1 1.8-.3 3.2-.5 3.9-.2.8-.8.8-1.7.9l.4 2.7c2.2.4 4.2-.1 4.6-2.6.2-1 .4-2.6.6-4.2.1-.6.3-.8.9-.8h.9v7.5h3.6v-10zm-12.2 9.9v-9.9h-3.2l-3.2 4.8c-.3.5-.6.9-.8 1.5h-.1c.1-.6.1-1 .1-1.5v-4.7h-3.2v9.9h3.2l3.1-4.5c.3-.4.6-1.1.8-1.7h.1c-.1.7-.1 1.2-.1 1.8v4.5h3.3zm-16.1-7.3c2.7-.4 2.7-1.6 4.2-6.5h-3.8c-1.2 4.1-1.5 5.4-2.8 5.4h-.6c.1-.6.2-1.2.2-1.7v-3.7h-3.6v3.7c0 .6.1 1.1.2 1.7h-.7c-1.3 0-1.6-1.2-2.8-5.4h-3.8c1.5 4.9 1.5 6.2 4.2 6.5v.1c-2.8.4-3 1.5-4.6 7.1h3.9c1.5-5 1.7-5.9 3-5.9h.7c-.1.4-.2.9-.2 1.3v4.6h3.6V763c0-.4-.1-.8-.2-1.3h.7c1.4 0 1.5.9 3.1 5.9h3.9c-1.6-5.7-1.8-6.7-4.6-7.1v-.2zm71.4-46 .3-6.7h-20.9l-.9 15c-.1 1.5 1 2.8 2.6 3l5.2.6c4.5.4 6.1 1 6 4.2-.2 2.7-1.2 3.8-5.6 3.8-2.4 0-5.5-.1-8.7-.4l-.8 6.8c4.3.6 8.5 1 11.9 1 9.5 0 12.1-4.9 12.1-10.9 0-5.4-2-10.2-9.8-11l-5.5-.7.3-4.6h13.8zm-31.3 18.5c-2.3 0-3 .7-3 3v2.1c0 2.3.7 3 3 3h2.1c2.3 0 3-.7 3-3v-2.1c0-2.3-.7-3-3-3h-2.1zm-20.2-6.2c3.7 0 4.5.8 4.5 4.4 0 3.3-.8 4.2-4.5 4.2-3.8 0-4.6-.8-4.6-4.2-.1-3.5.7-4.4 4.6-4.4m-.1-13.5c3.3 0 4.1.7 4.1 4 0 3-.6 3.7-4 3.7s-4.3-.7-4.3-3.7c.1-3.3.8-4 4.2-4m-7.2 10.7c-4.8.4-5.9 4.5-5.9 8.9 0 6.5 2.7 9 13.1 9 10.6-.1 13.1-2.5 13.1-9 0-4.4-1.1-8.5-5.9-8.9v-.2c3.6-.4 5.1-4.1 5.1-7.6 0-6.2-2.1-8.9-12.3-8.9-10.1 0-12.2 2.7-12.2 8.9 0 3.6 1.5 7.3 5.1 7.6v.2zm-9.2 4.1h-4v-13.8h-6.8l-1.5 5.2v8.6h-6.5c-.8 0-1.3-.5-.9-1.4l7.3-18.9h-8.5l-8.3 21.2c-1.1 2.6.7 5.2 3.5 5.2h13.4v7h8.3v-7h.1l3.9-.9v-5.2z" class="st1"/><path d="M582.9 699c16.4 0 29.6-13.3 29.6-29.6 0-16.4-13.3-29.6-29.6-29.6-16.4 0-29.6 13.3-29.6 29.6-.1 16.3 13.2 29.6 29.6 29.6z" style="fill:none;stroke:#373437;stroke-width:.833"/><path d="M603.2 676.4c-2.3.3-4.4.3-8 .3-3 0-3.8-1.5-3.8-7.2s.8-7.2 3.8-7.2c3.4 0 5 0 7.5.1l.5-5.1c-2.4-.7-4.2-.9-8-.9-8.1 0-11.1 3.4-11.1 13.1 0 9.6 3 13.1 11.1 13.1 3.8 0 6.1-.3 8.5-1.1l-.5-5.1zm-40.2-14c3.5-.2 5.3-.2 7.9-.2 1.9 0 2.8.1 2.8 1.2 0 1.4-1.6 3.7-4.5 6.6l-5.7 5.9c-.7.8-1 1.6-1 2.7v3.6h18.8v-5.9H574c-1.2 0-2.4 0-3.6.3l6.2-6.1c3.3-3.5 4-5.1 4-7.9 0-4.9-3.6-6.1-8.9-6.1-2.7 0-5.3.1-9 .8l.3 5.1zm51.9-530.3c2.2.9 3 3.8 3 8 0 4.1-.8 7-3 8l.4 1.5c4.2-1.2 6.1-4.2 6.1-9.5 0-5.4-1.9-8.4-6.1-9.6l-.4 1.6zm-10.7 3.4c1.9-.1 2.9-.1 4.3-.1 1.1 0 1.5.1 1.5.6 0 .8-.9 2-2.5 3.6l-3.1 3.2c-.4.4-.5.9-.5 1.5v2h10.3v-3.2h-4c-.7 0-1.3 0-1.9.2l3.4-3.3c1.8-1.9 2.2-2.8 2.2-4.3 0-2.7-1.9-3.3-4.9-3.3-1.5 0-2.9.1-4.9.5l.1 2.6zm-4 7.4c-1 0-1.3.3-1.3 1.3v.9c0 1 .3 1.3 1.3 1.3h.9c1 0 1.3-.3 1.3-1.3v-.9c0-1-.3-1.3-1.3-1.3h-.9zm-12.8-7.4c1.9-.1 2.9-.1 4.3-.1 1.1 0 1.5.1 1.5.6 0 .8-.9 2-2.5 3.6l-3.1 3.2c-.4.4-.5.9-.5 1.5v2h10.3v-3.2h-4c-.7 0-1.3 0-1.9.2l3.4-3.3c1.8-1.9 2.2-2.8 2.2-4.3 0-2.7-1.9-3.3-4.9-3.3-1.5 0-2.9.1-4.9.5l.1 2.6zm-1.7-5c-4.2 1.2-6.1 4.2-6.1 9.6 0 5.3 1.9 8.3 6.1 9.5l.4-1.5c-2.2-1-3-3.9-3-8 0-4.2.8-7.1 3-8l-.4-1.6zm-21.3 4.7h3.8c1.4 0 1.8.2 1.8 1.3 0 .9-.1 1.5-1.6 1.5h-2.6v2.4h2.6c1.5 0 1.8.4 1.8 1.6 0 1.4-.5 1.7-2.3 1.7-1.2 0-2.1 0-3.8-.1l-.1 2.7c1.6.2 3.3.4 5 .4 3.7 0 5-1.2 5-4.1 0-2.1-.6-3.2-2.6-3.5v-.1c1.8-.3 2.2-1.5 2.2-3.5 0-2.5-1.3-3.2-4.7-3.2-1.5 0-3.1.1-4.6.4l.1 2.5zm-4.1 7.7c-1 0-1.3.3-1.3 1.3v.9c0 1 .3 1.3 1.3 1.3h.9c1 0 1.3-.3 1.3-1.3v-.9c0-1-.3-1.3-1.3-1.3h-.9zm-2.5-2h-1.6v-5.7h-2.8l-.6 2.2v3.5H550c-.3 0-.5-.2-.4-.6l3-7.8h-3.5l-3.4 8.8c-.4 1.1.3 2.1 1.5 2.1h5.5v2.9h3.4v-2.9l1.6-.4v-2.1zm35 182.6c0-1.6.1-2.3 1.6-2.3 1.6 0 1.7.5 1.7 3.6-.7.4-1.1.5-1.7.5-1.3 0-1.6-.4-1.6-1.8m-3 8.9c1.6.4 3.1.4 3.8.4 4.4 0 6-1 6-7.3 0-5.6-.9-7-5.3-7-4 0-5.2 1.5-5.1 5.1 0 2.5.9 4.3 4 4.3 1.2 0 2.1-.2 2.8-.8-.1 2.4-.6 3-2.4 3h-3.7l-.1 2.3zm-4.2-3.2c-1 0-1.3.3-1.3 1.3v.9c0 1 .3 1.3 1.3 1.3h.9c1 0 1.3-.3 1.3-1.3v-.9c0-1-.3-1.3-1.3-1.3h-.9zm-3.7 3.4v-13.8h-3.7l-3.5 1.4.4 2.4 3.2-.7c-.1.6-.1 1.1-.1 1.6v9.1h3.7zm-8.9 0v-13.8h-3.7l-3.5 1.4.4 2.4 3.2-.7c-.1.6-.1 1.1-.1 1.6v9.1h3.7zm50.7-29.5h-1.4c-.9 0-1.1-.2-1.1-1.2 0-.7.2-.9 1.1-.9h1.4v2.1zm-3.9 1.3c-.6.1-1.6.2-1.9 1.1l-.8 3.1h3.7l.6-2.7c.1-.5.3-.6.9-.6h1.3v3.2h3.5v-10c-1.2-.1-2.3-.2-5-.2-3.7 0-4.6.7-4.6 3.2.2 1.3.7 2.4 2.3 2.9zm-10.5.7c0-.5.2-.8.8-.8h2.1v1.2c-.7.4-1.4.7-1.9.7-.7 0-1-.3-1-.8v-.3zm-2.7-3.9c1.7-.1 3.3-.1 4.3-.1s1.4.3 1.4 1.1v.2H609c-2 0-3.2 1-3.2 2.5v1c0 1.9 1.5 2.8 3.3 2.8 1.7 0 2.9-.9 3.5-1.7l.3 1.5h2.9v-6.3c0-3-1.5-3.9-4.2-3.9-1.5 0-4 .2-5.4.5l.4 2.4zm-2.5-2.6h-3.6v3.5h-3v-3.5h-3.6v9.9h3.6v-4h3v4h3.6v-9.9zm-12.4 10v-9.9h-3.2l-3.2 4.8c-.3.5-.6.9-.8 1.5h-.1c.1-.6.1-1 .1-1.5v-4.7h-3.2v9.9h3.2l3.1-4.5c.3-.4.6-1.1.8-1.7h.1c-.1.7-.1 1.2-.1 1.8v4.5h3.3zm-11.6-7.2v-2.7h-9.9v2.7h3.2v7.2h3.6v-7.2h3.1zm-11 4.4c-1.2.1-2.5.2-3.1.2-1.5 0-2-.5-2-2.3 0-1.8.5-2.3 2-2.3h2.9l.4-2.3c-1.1-.5-2.8-.7-3.9-.7-3.8 0-5.2 1.4-5.2 5.2 0 3.8 1.4 5.2 5.1 5.2 1.5 0 3-.2 4.1-.8l-.3-2.2zm-15.6-4.9c1.2 0 1.5.5 1.5 2.7s-.3 2.7-1.5 2.7-1.6-.5-1.6-2.7c.1-2.2.4-2.7 1.6-2.7m0-2.5c-3.9 0-5.4 1.4-5.4 5.3 0 3.8 1.4 5.2 5.4 5.2 3.9 0 5.3-1.4 5.3-5.2.1-3.9-1.4-5.3-5.3-5.3m-14.7 10.2h3.6v-6.5c0-.5.2-.7.8-.7h4l.2-2.5c-1.6-.3-3.9-.3-5.8-.3s-2.7.8-2.7 2.5v7.5zm77.3-30.2h-5.9v2.2h5.9v-2.2zm-11.4.7h-1.4c-.9 0-1.1-.2-1.1-1.2 0-.7.2-.9 1.1-.9h1.4v2.1zm-3.9 1.3c-.6.1-1.6.2-1.9 1.1l-.8 3.1h3.7l.6-2.7c.1-.5.3-.6.9-.6h1.3v3.2h3.5v-10c-1.2-.1-2.3-.2-5-.2-3.7 0-4.6.7-4.6 3.2.1 1.3.6 2.5 2.3 2.9zm-4.1-5.7h-3.6v3.5h-3v-3.5h-3.6v9.9h3.6v-4h3v4h3.6v-9.9zm-15 9.9h3.7l-3-5.1 2.7-4.9h-3.6l-2 3.7-2-3.7H574l2.7 4.9-3 5.1h3.7l2.2-4 2.1 4zm-8.1-9.9h-3.9l-1.5 5.9c-.1.5-.3 1.1-.4 1.7h-.2c-.1-.6-.2-1.1-.3-1.7l-1.5-5.9H562l3.1 9.1c.2.5.6.9 1.2.9h.7c-.3.5-.6 1-1 1.2-.6.4-1.5.5-2.8.4l-.3 2.4c1.4.3 2.9.3 4.1-.2 1.5-.6 2.7-1.5 3.4-3.9l3.2-9.9zm-16.3 2.6c2.7-.4 2.8-1.6 4.3-6.5h-3.8c-1.1 4.1-1.3 5.4-3.3 5.4h-.7c.1-.6.2-1.2.2-1.7v-3.7h-3.7v13.8h3.7V280c0-.4-.1-.8-.2-1.3h.7c1.9 0 2.1.9 3.5 5.9h3.9c-1.7-5.7-1.9-6.7-4.7-7.1v-.2zm-173 225.9h3.8c1.4 0 1.8.2 1.8 1.3 0 .9-.1 1.5-1.6 1.5h-2.6v2.4h2.6c1.5 0 1.8.4 1.8 1.6 0 1.4-.5 1.7-2.3 1.7-1.2 0-2.1 0-3.8-.1l-.1 2.7c1.6.2 3.3.4 5 .4 3.7 0 5-1.2 5-4.1 0-2.1-.6-3.2-2.6-3.5v-.1c1.8-.3 2.2-1.5 2.2-3.5 0-2.5-1.3-3.2-4.7-3.2-1.5 0-3.1.1-4.6.4l.1 2.5zm-4.1 7.7c-1 0-1.3.3-1.3 1.3v.9c0 1 .3 1.3 1.3 1.3h.9c1 0 1.3-.3 1.3-1.3v-.9c0-1-.3-1.3-1.3-1.3h-.9zm-11.6-10.4.2 3h6c-.3.5-.5 1-.7 1.5l-3.3 9.3h3.7l4.2-11.9c.3-1-.3-1.8-1.4-1.8h-8.7zm59.3-15.6h-1.4c-.9 0-1.1-.2-1.1-1.2 0-.7.2-.9 1.1-.9h1.4v2.1zm-3.9 1.2c-.6.1-1.6.2-1.9 1.1l-.8 3.1h3.7l.6-2.7c.1-.5.3-.6.9-.6h1.3v3.2h3.5v-10c-1.2-.1-2.3-.2-5-.2-3.7 0-4.6.7-4.6 3.2.1 1.4.6 2.5 2.3 2.9zm-10.6.8c0-.5.2-.8.8-.8h2.1v1.2c-.7.4-1.4.7-1.9.7-.7 0-1-.3-1-.8v-.3zm-2.7-3.9c1.7-.1 3.3-.1 4.3-.1s1.4.3 1.4 1.1v.2H413c-2 0-3.2 1-3.2 2.5v1c0 1.9 1.5 2.8 3.3 2.8 1.7 0 2.9-.9 3.5-1.7l.3 1.5h2.9V484c0-3-1.5-3.9-4.2-3.9-1.5 0-4 .2-5.4.5l.5 2.4zm-5.5 2.1c2.3-.3 2.2-.6 3.5-4.7h-3.6c-1 3.3-1.2 3.6-2.2 3.6h-.6c.1-.4.1-.8.1-1.2v-2.4h-3.2v2.4c0 .4 0 .8.1 1.2h-.6c-1 0-1.1-.3-2.2-3.6h-3.6c1.3 4.1 1.2 4.4 3.5 4.7v.1c-2.4.3-2.4.5-3.9 5.1h3.7c1.3-3.8 1.4-4 2.2-4h.8c-.1.3-.1.6-.1.8v3.2h3.2v-3.2c0-.2 0-.5-.1-.8h.7c.9 0 1 .2 2.2 4h3.7c-1.4-4.6-1.5-4.8-3.9-5.1v-.1zm-18.6-2.4c1.2 0 1.5.5 1.5 2.7s-.3 2.7-1.5 2.7-1.6-.5-1.6-2.7.4-2.7 1.6-2.7m0-2.6c-3.9 0-5.4 1.4-5.4 5.3 0 3.8 1.4 5.2 5.4 5.2 3.9 0 5.3-1.4 5.3-5.2 0-3.9-1.4-5.3-5.3-5.3m-9.4 10.2h3.7l-3-5.1 2.7-4.9H377l-2 3.7-2-3.7h-3.6l2.7 4.9-3 5.1h3.7l2.2-4 2.2 4zm-9.1.1v-10h-3.2l-3.2 4.8c-.3.5-.6.9-.8 1.5h-.1c.1-.6.1-1 .1-1.5v-4.7h-3.2v9.9h3.2l3.1-4.5c.3-.4.6-1.1.8-1.7h.1c-.1.7-.1 1.2-.1 1.8v4.5h3.3zm-18.9-6.9c.6-.4 1.1-.6 1.9-.6.9 0 1.3.4 1.3 2.6 0 2.3-.4 2.6-1.4 2.6-.7 0-1.2-.2-1.7-.3v-4.3zm-.7-3.1h-2.9V494h3.6v-2.2c0-.7 0-1.5-.1-2.2.9.7 2 .9 3.2.9 2.5 0 3.8-1.1 3.8-5.1 0-3.4-1-5.3-3.5-5.3-1.6 0-3.1.7-3.8 1.6l-.3-1.3zm-5.3-3.9h-11.6v13.8h3.7v-11.2h4.1v11.2h3.8v-13.8zM503 500.2h2.7c1 0 1.3.1 1.3.9 0 .7-.1 1-1.1 1H504v1.7h1.8c1 0 1.3.3 1.3 1.1 0 1-.4 1.2-1.6 1.2-.8 0-1.5 0-2.7-.1l-.1 1.9c1.1.2 2.3.3 3.5.3 2.6 0 3.5-.8 3.5-2.9 0-1.5-.4-2.2-1.8-2.4v-.1c1.2-.2 1.5-1.1 1.5-2.4 0-1.7-.9-2.3-3.3-2.3-1.1 0-2.1.1-3.2.3l.1 1.8zm-2.8 5.4c-.7 0-.9.2-.9.9v.6c0 .7.2.9.9.9h.6c.7 0 .9-.2.9-.9v-.6c0-.7-.2-.9-.9-.9h-.6zm-8.7-5.4h2.7c1 0 1.3.1 1.3.9 0 .7-.1 1-1.1 1h-1.8v1.7h1.8c1 0 1.3.3 1.3 1.1 0 1-.4 1.2-1.6 1.2-.8 0-1.5 0-2.7-.1l-.1 1.9c1.1.2 2.3.3 3.5.3 2.6 0 3.5-.8 3.5-2.9 0-1.5-.4-2.2-1.8-2.4v-.1c1.2-.2 1.5-1.1 1.5-2.4 0-1.7-.9-2.3-3.3-2.3-1.1 0-2.1.1-3.2.3v1.8zm34.2-13.8c.4-.3.8-.4 1.3-.4.6 0 .9.3.9 1.8 0 1.6-.3 1.8-1 1.8-.5 0-.8-.1-1.2-.2v-3zm-.5-2.1h-2v9.5h2.5v-3c.6.5 1.4.6 2.2.6 1.7 0 2.6-.8 2.6-3.6 0-2.4-.7-3.7-2.5-3.7-1.1 0-2.2.5-2.7 1.1l-.1-.9zm-7 1.6c.9 0 1.1.3 1.1 1.9 0 1.5-.2 1.9-1.1 1.9-.9 0-1.1-.3-1.1-1.9 0-1.6.2-1.9 1.1-1.9m0-1.8c-2.7 0-3.8 1-3.8 3.7s1 3.6 3.8 3.6c2.7 0 3.7-1 3.7-3.6 0-2.7-1-3.7-3.7-3.7m-8 5.4h-2c.3-.8.6-1.8.8-3.1 0-.4.3-.6.6-.6h.6v3.7zm3.5 0h-1.2v-5.2h-3.8c-1.2 0-1.9.6-2 1.7-.2 1.2-.4 2.4-.8 3.6h-.9v3.6h1.7l.2-1.9h5l.2 1.9h1.7v-3.7zm-9.6 1.7v-7h-2.2l-2.2 3.3c-.2.3-.4.6-.5 1h-.1c.1-.4.1-.7.1-1.1v-3.3h-2.3v7h2.2l2.2-3.2c.2-.3.4-.8.6-1.2h.1c-.1.5-.1.8-.1 1.2v3.1h2.2zm-13.2-4.8c.4-.3.8-.4 1.3-.4.6 0 .9.3.9 1.8 0 1.6-.3 1.8-1 1.8-.5 0-.8-.1-1.2-.2v-3zm-.5-2.1h-2v9.5h2.5v-3c.6.5 1.4.6 2.2.6 1.7 0 2.6-.8 2.6-3.6 0-2.4-.7-3.7-2.5-3.7-1.1 0-2.2.5-2.7 1.1l-.1-.9zm-7 1.6c.9 0 1.1.3 1.1 1.9 0 1.5-.2 1.9-1.1 1.9-.9 0-1.1-.3-1.1-1.9 0-1.6.2-1.9 1.1-1.9m0-1.8c-2.7 0-3.8 1-3.8 3.7s1 3.6 3.8 3.6c2.7 0 3.7-1 3.7-3.6 0-2.7-1-3.7-3.7-3.7m-7.6 2c1.9-.3 2-1.1 3-4.6h-2.7c-.8 2.9-.9 3.8-2.3 3.8h-.5c.1-.4.1-.8.1-1.2v-2.6h-2.6v9.7h2.6V488c0-.3 0-.6-.1-.9h.5c1.3 0 1.5.6 2.4 4.1h2.7c-1-3.9-1.1-4.7-3.1-5.1zm123-55.4.1-2.8h-8.6l-.4 6.2c0 .6.4 1.2 1.1 1.2l2.1.3c1.9.2 2.5.4 2.5 1.7-.1 1.1-.5 1.6-2.3 1.6-1 0-2.3-.1-3.6-.2l-.3 2.8c1.8.3 3.5.4 4.9.4 3.9 0 5-2 5-4.5 0-2.2-.8-4.2-4-4.6l-2.3-.3.1-1.9h5.7zm-12.9 7.6c-1 0-1.3.3-1.3 1.3v.9c0 1 .3 1.3 1.3 1.3h.9c1 0 1.3-.3 1.3-1.3v-.9c0-1-.3-1.3-1.3-1.3h-.9zm-3.7 3.4v-13.8h-3.7l-3.5 1.4.4 2.4 3.2-.7c-.1.6-.1 1.1-.1 1.6v9.1h3.7zm25.1 62.2.1-2.8h-8.6l-.4 6.2c0 .6.4 1.2 1.1 1.2l2.1.3c1.9.2 2.5.4 2.5 1.7-.1 1.1-.5 1.6-2.3 1.6-1 0-2.3-.1-3.6-.2l-.3 2.8c1.8.3 3.5.4 4.9.4 3.9 0 5-2 5-4.5 0-2.2-.8-4.2-4-4.6l-2.3-.3.1-1.9h5.7zm-12.9 7.7c-1 0-1.3.3-1.3 1.3v.9c0 1 .3 1.3 1.3 1.3h.9c1 0 1.3-.3 1.3-1.3v-.9c0-1-.3-1.3-1.3-1.3h-.9zm-12.4-7.7h3.8c1.4 0 1.8.2 1.8 1.3 0 .9-.1 1.5-1.6 1.5h-2.6v2.4h2.6c1.5 0 1.8.4 1.8 1.6 0 1.4-.5 1.7-2.3 1.7-1.2 0-2.1 0-3.8-.1l-.1 2.7c1.6.2 3.3.4 5 .4 3.7 0 5-1.2 5-4.1 0-2.1-.6-3.2-2.6-3.5v-.1c1.8-.3 2.2-1.5 2.2-3.5 0-2.5-1.3-3.2-4.7-3.2-1.5 0-3.1.1-4.6.4l.1 2.5zM462.9 197.4h13.7v234.2h-13.7z" class="st1"/><path d="M462.9 197.4h13.7v234.2h-13.7z" class="st2"/></svg>