<svg xmlns="http://www.w3.org/2000/svg" xmlns:xlink="http://www.w3.org/1999/xlink" xml:space="preserve" id="Слой_1" x="0" y="0" style="enable-background:new 0 0 364.51 385.51" version="1.1" viewBox="0 0 364.51 385.51"><style>.st1,.st5{fill:none;stroke:#39373a;stroke-width:.496}.st5{clip-path:url(#SVGID_6_)}.st12{clip-path:url(#SVGID_12_);fill:#39373a}</style><switch><g><path d="M144.94 158.97v-4.23h140.47V32.18H144.19v22.06H89.47v50.19H74.16v-.94h-4.34v-3.37H54.85v2.83H49.2v78.21H100v159.23h105.42v-96.06h79.99v-85.36z" style="fill:#f6ccce"/><path d="M114.72 347.76h66.81v2.18h-66.81z" class="st1"/><defs><path id="SVGID_1_" d="M27.86 24.45h308.99v333.37H27.86z"/></defs><clipPath id="SVGID_2_"><use xlink:href="#SVGID_1_" style="overflow:visible"/></clipPath><path d="M114.72 340.64h66.81v16.93h-66.81z" style="clip-path:url(#SVGID_2_);fill:none;stroke:#39373a;stroke-width:.496"/><path d="M285.37 139.35h18.8v122.58h-18.8z" class="st1"/><path d="M293.74 170.72h2.43v66.81h-2.43z" class="st1"/><defs><path id="SVGID_3_" d="M27.86 24.45h308.99v333.37H27.86z"/></defs><clipPath id="SVGID_4_"><use xlink:href="#SVGID_3_" style="overflow:visible"/></clipPath><path d="M35.65 151.78h1.22v28.88h-1.22z" style="clip-path:url(#SVGID_4_);fill:none;stroke:#39373a;stroke-width:.496" transform="rotate(-31.501 36.267 166.231)"/><path d="m106.503 112.517 18.095-10.87.629 1.045-18.096 10.871zM94.371 134.28l10.084-16.784 1.045.629-10.083 16.784zm46.725 12.288 13.91-23.153 1.046.628-13.91 23.153zM281.549 61.54l13.91-23.154 1.045.629-13.91 23.152zM141.59 164.918l1.045-.628 13.42 22.339-1.045.628zm-32.314 80.723.61-1.056 22.562 13.042-.61 1.056zM285.28 66.78h16.71v88h-16.71z" class="st1"/><path d="M292.5 66.78h2.23v36.6h-2.23z" class="st1"/><defs><path id="SVGID_5_" d="M27.86 24.45h308.99v333.37H27.86z"/></defs><clipPath id="SVGID_6_"><use xlink:href="#SVGID_5_" style="overflow:visible"/></clipPath><path d="M336.6 138.85V28.83h-4.21v105.81h-32.58v4.21h32.58z" style="clip-path:url(#SVGID_6_);fill:none;stroke:#1b1c20;stroke-width:.496"/><path d="M54.56 115.42c-1.51 0-2.74 1.23-2.74 2.74v5.66c0 1.51 1.23 2.74 2.74 2.74s2.74-1.23 2.74-2.74v-5.66c0-1.52-1.23-2.74-2.74-2.74z" class="st5"/><ellipse cx="65.3" cy="121.2" class="st5" rx="4.27" ry="3.95"/><path d="M70.7 121.06c0-2.8-2.42-5.08-5.41-5.08-.38 0-.75.04-1.1.11l-6.93.8v8.05l6.89 1.09v-.01c.37.07.74.12 1.13.12 3 0 5.42-2.27 5.42-5.08zm-17.02.42a.49.49 0 1 0-.002-.982.49.49 0 0 0 .002.982z" class="st5"/><path d="M63.21 122.08c.48 0 .88-.39.88-.88s-.39-.88-.88-.88-.88.39-.88.88.39.88.88.88z" class="st5"/><path d="M53.19 119.07h.98m-.49-.49v.98m-.49 3.35h.98m-.49-.49v.98m4.87.37h.98m-.49-.49v.98m-.49-6.05h.98m-.49-.49v.98" style="stroke-linecap:round;fill:none;stroke:#39373a;stroke-width:.496"/><defs><path id="SVGID_7_" d="M27.86 24.45h308.99v333.37H27.86z"/></defs><clipPath id="SVGID_8_"><use xlink:href="#SVGID_7_" style="overflow:visible"/></clipPath><path d="M81.37 108.71c.5 0 .91.41.91.91 0 .51-.41.91-.91.91-.51 0-.91-.41-.91-.91s.41-.91.91-.91zm-.17-.99c2.9 0 5.25 1.43 5.25 3.19s-2.35 3.19-5.25 3.19-5.24-1.43-5.24-3.19 2.35-3.19 5.24-3.19zm6.81 3.16c.01.11.02.21.02.32 0 2.29-3.06 4.15-6.83 4.15s-6.83-1.86-6.83-4.15v-6.42h13.64v6.1zm5.59-27.72c0-.5.41-.91.91-.91s.91.41.91.91c0 .51-.41.91-.91.91s-.91-.4-.91-.91zm-.98.17c0-2.9 1.43-5.25 3.19-5.25S99 80.43 99 83.33s-1.43 5.24-3.19 5.24c-1.76.01-3.19-2.34-3.19-5.24zm3.15-6.81c.11-.01.21-.02.32-.02 2.29 0 4.15 3.05 4.15 6.83 0 3.77-1.86 6.83-4.15 6.83h-6.42V76.52h6.1z" style="clip-path:url(#SVGID_8_);stroke-miterlimit:22.926;fill:none;stroke:#39373a;stroke-width:.496"/><path d="M122.14 76.51h17.22v17.16h-17.22V76.51zm17.22 17.16-17.22-17.16m0 17.16 17.22-17.16" style="fill:none;stroke:#39373a;stroke-width:.51;stroke-miterlimit:22.926"/><defs><path id="SVGID_9_" d="M27.86 24.45h308.99v333.37H27.86z"/></defs><clipPath id="SVGID_10_"><use xlink:href="#SVGID_9_" style="overflow:visible"/></clipPath><path d="M157.27 59.35h-7.18c-.98 0-1.78-.79-1.78-1.77V46.97c0-.97.8-1.77 1.78-1.77h7.18c.98 0 1.78.8 1.78 1.77v10.61c0 .97-.8 1.77-1.78 1.77zm-6.29-6.41c-.41 0-.75-.33-.75-.74s.33-.74.75-.74c.41 0 .75.33.75.74s-.34.74-.75.74zm-4.83 0c-.41 0-.75-.33-.75-.74s.33-.74.75-.74.75.33.75.74-.34.74-.75.74zm14.46 7.89h-16.28V43.71h16.28v17.12z" style="clip-path:url(#SVGID_10_);fill:none;stroke:#39373a;stroke-width:.51;stroke-miterlimit:22.926"/><path d="M89.42 74.88h51.53" class="st1"/><defs><path id="SVGID_11_" d="M27.86 24.45h308.99v333.37H27.86z"/></defs><clipPath id="SVGID_12_"><use xlink:href="#SVGID_11_" style="overflow:visible"/></clipPath><path d="M93.78 58.12v12.42c0 1.38 1.34 2.51 2.98 2.51h36.85c1.64 0 2.98-1.13 2.98-2.51V58.12c0-1.38-1.34-2.51-2.98-2.51H96.76c-1.64 0-2.98 1.13-2.98 2.51zm3.75 3.26v5.96c0 1.62 1.39 2.95 3.09 2.95h25.71c1.7 0 3.09-1.33 3.09-2.95v-5.96c0-1.62-1.39-2.95-3.09-2.95h-25.71c-1.71 0-3.09 1.33-3.09 2.95z" style="clip-path:url(#SVGID_12_);fill:none;stroke:#39373a;stroke-width:.51;stroke-miterlimit:22.926"/><path d="M100.71 64.33c0 .35-.29.63-.65.63-.36 0-.65-.28-.65-.63s.29-.63.65-.63c.36 0 .65.28.65.63z" style="clip-path:url(#SVGID_12_);fill:none;stroke:#39373a;stroke-width:.496"/><path d="M99.23 166.03c-.01-.82.07-1.13.78-1.13.78 0 .85.27.86 1.78-.33.19-.55.26-.86.26-.63-.01-.79-.21-.78-.91m-1.47 4.42c.79.2 1.53.2 1.9.2 2.18 0 2.99-.52 2.99-3.61 0-2.77-.46-3.47-2.62-3.47-2 0-2.56.75-2.55 2.51 0 1.25.44 2.12 1.96 2.12.62 0 1.03-.1 1.41-.41-.05 1.17-.29 1.51-1.19 1.51-.88 0-1.21 0-1.82-.01l-.08 1.16zm-2.09-1.61c-.48 0-.62.15-.62.62v.44c0 .48.15.62.62.62h.43c.48 0 .62-.15.62-.62v-.44c0-.48-.15-.62-.62-.62h-.43zm-4.9-2.81c-.01-.82.07-1.13.79-1.13.77 0 .85.27.86 1.78-.33.19-.55.26-.86.26-.64-.01-.8-.21-.79-.91m-1.47 4.42c.79.2 1.53.2 1.9.2 2.18 0 2.99-.52 2.99-3.61 0-2.77-.46-3.47-2.62-3.47-1.99 0-2.56.75-2.55 2.51 0 1.25.44 2.12 1.97 2.12.61 0 1.03-.1 1.41-.41-.05 1.17-.29 1.51-1.19 1.51-.88 0-1.21 0-1.82-.01l-.09 1.16zm24.44-17.72c.32-.19.55-.31.92-.31.46 0 .65.19.65 1.31 0 1.13-.2 1.3-.71 1.3-.36 0-.6-.09-.86-.17v-2.13zm-.34-1.53h-1.45v6.77h1.79v-1.08c.01-.35 0-.73-.03-1.07.43.33.98.45 1.58.45 1.23 0 1.88-.55 1.88-2.54 0-1.68-.5-2.64-1.75-2.64-.78 0-1.54.36-1.89.81l-.13-.7zm-4.97 1.13c.61 0 .76.25.76 1.34 0 1.08-.16 1.32-.76 1.32-.62 0-.78-.24-.78-1.32.01-1.09.17-1.34.78-1.34m0-1.27c-1.94 0-2.66.71-2.66 2.61s.72 2.58 2.66 2.58c1.94 0 2.65-.68 2.65-2.58s-.71-2.61-2.65-2.61m-5.66 3.86h-1.45c.25-.57.43-1.25.57-2.18.03-.28.19-.4.44-.4h.45v2.58zm2.51 0h-.82v-3.72h-2.71c-.88 0-1.32.41-1.43 1.2-.12.85-.29 1.68-.58 2.52h-.61v2.58h1.19l.12-1.37h3.53l.13 1.37h1.19v-2.58zm-6.85 1.22v-4.94h-1.57l-1.57 2.36c-.15.23-.28.45-.38.73h-.04c.04-.29.07-.51.07-.76v-2.32h-1.6v4.93h1.57l1.54-2.25c.14-.22.31-.56.4-.82h.04c-.04.33-.07.59-.07.87v2.21h1.61zm-9.38-3.41c.32-.19.55-.31.92-.31.46 0 .64.19.64 1.31 0 1.13-.2 1.3-.7 1.3-.36 0-.6-.09-.86-.17v-2.13zm-.35-1.53h-1.45v6.77h1.8v-1.08c.01-.35 0-.73-.03-1.07.43.33.98.45 1.58.45 1.23 0 1.87-.55 1.87-2.54 0-1.68-.5-2.64-1.75-2.64-.78 0-1.54.36-1.89.81l-.13-.7zm-4.96 1.13c.61 0 .76.25.76 1.34 0 1.08-.16 1.32-.76 1.32-.62 0-.78-.24-.78-1.32 0-1.09.16-1.34.78-1.34m0-1.27c-1.95 0-2.66.71-2.66 2.61s.71 2.58 2.66 2.58c1.93 0 2.65-.68 2.65-2.58s-.72-2.61-2.65-2.61m-5.36 1.47c1.36-.18 1.4-.79 2.15-3.24h-1.9c-.54 2.05-.67 2.67-1.63 2.67h-.33c.05-.28.08-.58.08-.85v-1.82H74.9v6.85h1.86v-2.29c0-.19-.03-.42-.08-.64h.36c.95 0 1.03.45 1.74 2.93h1.95c-.84-2.81-.93-3.35-2.34-3.54v-.07zm7.3-24.78.05-.96h-3l-.12 2.15c-.01.22.15.4.38.43l.74.09c.64.06.88.15.86.6-.03.39-.17.54-.8.54-.34 0-.79-.02-1.24-.06l-.12.98c.61.09 1.22.14 1.7.14 1.36 0 1.74-.7 1.74-1.56.01-.77-.28-1.46-1.4-1.59l-.8-.1.05-.67h1.96zm-4.49 2.65c-.33 0-.44.1-.44.44v.31c0 .33.1.44.44.44h.3c.33 0 .44-.1.44-.44v-.31c0-.33-.1-.44-.44-.44h-.3zm-1.29 1.18v-4.79h-1.3l-1.22.47.15.83 1.11-.25c-.04.19-.05.38-.05.57v3.17h1.31zm7.84-10.83H86.4l-.51 2.06c-.03.16-.09.39-.14.59h-.07c-.03-.2-.06-.4-.1-.59l-.52-2.06h-1.34l1.07 3.15c.06.18.21.3.4.3h.23c-.09.17-.22.33-.36.41-.22.12-.53.16-.97.15l-.1.82c.49.09 1.01.1 1.42-.07.53-.19.93-.54 1.18-1.34l1.15-3.42zm-6.8 3.98 2.73-5.32h-1l-2.73 5.32h1zm-1.37-1.61c-.44.05-.84.06-1.51.06-.57 0-.73-.29-.73-1.37s.16-1.37.73-1.37c.64 0 .94.01 1.42.02l.1-.96c-.46-.12-.8-.17-1.51-.17-1.54 0-2.1.65-2.1 2.48s.56 2.48 2.1 2.48c.72 0 1.15-.05 1.62-.21l-.12-.96zm77.81 174.2c.94-.05 1.44-.05 2.14-.05.53 0 .75.03.75.32.01.39-.45 1-1.22 1.79l-1.54 1.59c-.2.22-.26.45-.26.74v.97h5.1v-1.61h-1.97c-.33 0-.65.01-.96.09l1.69-1.66c.9-.94 1.07-1.39 1.07-2.13 0-1.34-.96-1.66-2.42-1.66-.74 0-1.45.03-2.45.23l.07 1.38zm-1.97 3.68c-.48 0-.62.15-.62.62v.44c0 .48.15.62.62.62h.43c.48 0 .62-.15.62-.62v-.44c0-.48-.15-.62-.62-.62h-.43zm-6.39-3.68c.94-.05 1.44-.05 2.14-.05.53 0 .76.03.76.32.01.39-.45 1-1.22 1.79l-1.54 1.59c-.2.22-.26.45-.26.74v.97h5.1v-1.61h-1.97c-.33 0-.64.01-.96.09l1.69-1.66c.9-.94 1.07-1.39 1.07-2.13 0-1.34-.96-1.66-2.42-1.66-.74 0-1.45.03-2.45.23l.06 1.38zm-1.32 5.36v-6.85h-1.86l-1.74.68.22 1.18 1.59-.36c-.06.28-.07.55-.07.81v4.54h1.86zm40.87-16.1c0-.23.12-.38.42-.39h1.03v.62c-.33.21-.68.34-.96.34-.33 0-.49-.14-.49-.4v-.17zm-1.35-1.94c.82-.05 1.62-.07 2.11-.07.52 0 .68.15.68.57v.12h-1.64c-.98 0-1.58.48-1.58 1.26v.5c0 .92.74 1.41 1.66 1.41.85 0 1.42-.44 1.76-.85l.17.72h1.44v-3.15c0-1.47-.73-1.93-2.06-1.93-.73 0-1.97.11-2.7.25l.16 1.17zm-.8.08v-1.36h-4.92v1.36h1.57v3.57h1.8v-3.57h1.55zm-8.82 1.86c0-.23.12-.38.42-.39h1.03v.62c-.33.21-.68.34-.96.34-.33 0-.49-.14-.49-.4v-.17zm-1.35-1.94c.82-.05 1.62-.07 2.11-.07.52 0 .68.15.68.57v.12h-1.64c-.98 0-1.58.48-1.58 1.26v.5c0 .92.74 1.41 1.66 1.41.85 0 1.42-.44 1.76-.85l.17.72h1.44v-3.15c0-1.47-.73-1.93-2.06-1.93-.73 0-1.97.11-2.7.25l.16 1.17zm-1.24-1.28h-1.77v1.74h-1.51v-1.74h-1.77v4.93h1.77v-2h1.51v2h1.77v-4.93zm-8.34 0c-.38 0-.62.19-.68.56l-.43 1.84c-.05.25-.06.49-.1.74h-.08c-.03-.25-.04-.49-.1-.74l-.44-1.84c-.06-.37-.3-.56-.67-.56h-1.53c-.41 0-.62.21-.62.61l-.12 4.32h1.63l.1-3.62h.12l.59 2.39c.07.37.31.55.69.55h.81c.39 0 .61-.18.68-.55l.59-2.39h.12l.13 3.62h1.63l-.13-4.32c-.01-.41-.21-.61-.62-.61h-1.57zm-8.2 1.13c.61 0 .77.25.77 1.34 0 1.08-.16 1.32-.77 1.32-.62 0-.77-.24-.77-1.32-.01-1.09.15-1.34.77-1.34m0-1.27c-1.95 0-2.66.71-2.66 2.61s.71 2.58 2.66 2.58c1.94 0 2.65-.68 2.65-2.58-.01-1.91-.72-2.61-2.65-2.61m-4.95 2.48c1.15-.17 1.07-.27 1.71-2.34h-1.82c-.43 1.65-.46 1.79-1.16 1.79h-.22c.04-.21.07-.43.07-.62v-1.16h-1.79v4.93h1.79v-1.56c0-.12-.02-.26-.06-.4h.4c.53.01.57.14 1.08 1.96h1.88c-.69-2.33-.71-2.37-1.88-2.54v-.06zm-8.15-.12h-.71c-.47 0-.56-.12-.56-.62 0-.37.09-.46.56-.46h.71v1.08zm-1.93.62c-.3.03-.81.11-.94.54l-.39 1.56h1.85l.31-1.32c.04-.23.15-.29.46-.29h.65v1.61h1.75v-4.97c-.61-.07-1.14-.08-2.49-.08-1.82 0-2.26.35-2.26 1.59 0 .6.24 1.16 1.07 1.33v.03zm-5.25.38c0-.23.12-.38.42-.39h1.03v.62c-.33.21-.68.34-.96.34-.33 0-.49-.14-.49-.4v-.17zm-1.35-1.94c.82-.05 1.62-.07 2.11-.07.52 0 .68.15.68.57v.12H138c-.98 0-1.58.48-1.58 1.26v.5c0 .92.74 1.41 1.66 1.41.85 0 1.42-.44 1.76-.85l.17.72h1.44v-3.15c0-1.47-.73-1.93-2.06-1.93-.73 0-1.97.11-2.7.25l.15 1.17zm-1.25-1.28h-2.98c-.85 0-1.29.44-1.36 1.27-.07.9-.16 1.59-.26 1.94-.11.4-.4.39-.83.46l.18 1.32c1.08.18 2.06-.07 2.26-1.29.1-.48.21-1.31.3-2.08.03-.29.17-.42.47-.42h.43v3.73h1.79v-4.93zm-6.03 4.94v-4.94h-1.57l-1.57 2.36c-.15.23-.28.45-.38.73H126c.04-.29.07-.51.07-.77v-2.32h-1.6v4.93h1.57l1.54-2.25c.14-.22.31-.56.4-.82h.04c-.04.33-.07.59-.07.87v2.21h1.61zm-8.02-3.61c1.33-.18 1.36-.79 2.08-3.24h-1.89c-.62 2.05-.74 2.67-1.4 2.67h-.32c.05-.29.08-.58.08-.85v-1.82h-1.78v1.82c0 .28.03.57.09.85h-.35c-.65 0-.78-.62-1.39-2.67h-1.89c.72 2.45.75 3.07 2.08 3.24v.06c-1.38.2-1.47.73-2.27 3.54h1.94c.76-2.48.84-2.93 1.51-2.93h.35c-.05.22-.08.45-.08.64v2.29h1.78V286c0-.19-.03-.42-.08-.64h.33c.69 0 .76.45 1.52 2.93h1.96c-.8-2.81-.89-3.35-2.28-3.54v-.06zm105.48-75.68v-6.85h-1.85l-1.74.68.22 1.18 1.59-.36c-.06.28-.07.55-.07.81v4.54h1.85zm-4.69-1.69c-.48 0-.62.15-.62.62v.44c0 .48.15.62.62.62h.43c.48 0 .62-.15.62-.62v-.44c0-.48-.15-.62-.62-.62h-.43zm-1.65-3.79.07-1.37h-4.29l-.18 3.08c-.02.32.21.57.54.62l1.06.13c.92.08 1.26.21 1.23.85-.04.56-.24.77-1.14.77-.49 0-1.12-.03-1.78-.08l-.17 1.4c.87.13 1.75.2 2.43.2 1.94 0 2.49-1 2.49-2.23.01-1.1-.41-2.09-2-2.26l-1.14-.15.07-.95h2.81zm-5.76 5.48v-6.85h-1.86l-1.74.68.22 1.18 1.59-.36c-.06.28-.07.55-.07.81v4.54h1.86zm39.81-16.11c0-.23.12-.38.42-.39h1.03v.62c-.33.21-.68.34-.96.34-.33 0-.49-.14-.49-.4v-.17zm-1.35-1.94c.82-.05 1.62-.07 2.11-.07.52 0 .68.15.69.57v.12h-1.64c-.98 0-1.58.48-1.58 1.26v.5c0 .92.74 1.41 1.66 1.41.85 0 1.42-.44 1.76-.85l.17.72h1.44v-3.15c0-1.47-.73-1.93-2.06-1.93-.72 0-1.97.11-2.7.25l.15 1.17zm-.81.08v-1.36h-4.92v1.36h1.57v3.57h1.8v-3.57h1.55zm-8.81 1.86c0-.23.12-.38.42-.39h1.03v.62c-.33.21-.68.34-.96.34-.33 0-.49-.14-.49-.4v-.17zm-1.35-1.94c.82-.05 1.62-.07 2.11-.07.52 0 .68.15.69.57v.12h-1.64c-.98 0-1.58.48-1.58 1.26v.5c0 .92.74 1.41 1.66 1.41.86 0 1.42-.44 1.76-.85l.17.72h1.44v-3.15c0-1.47-.73-1.93-2.06-1.93-.73 0-1.97.11-2.7.25l.15 1.17zm-1.24-1.28h-1.77v1.74h-1.51v-1.74h-1.78v4.93h1.78v-2h1.51v2h1.77v-4.93zm-8.34 0c-.38 0-.62.19-.68.56l-.43 1.84c-.05.25-.06.49-.1.74h-.08c-.03-.25-.04-.49-.1-.74l-.44-1.84c-.06-.37-.3-.56-.67-.56h-1.53c-.41 0-.61.21-.62.61l-.12 4.32h1.63l.1-3.62h.12l.59 2.39c.07.37.31.55.69.55h.8c.39 0 .61-.18.68-.55l.59-2.39h.12l.13 3.62h1.63l-.13-4.32c-.01-.41-.21-.61-.62-.61h-1.56zm-8.21 1.13c.61 0 .76.25.76 1.34 0 1.08-.16 1.32-.76 1.32-.62 0-.77-.24-.77-1.32 0-1.09.16-1.34.77-1.34m0-1.27c-1.95 0-2.66.71-2.66 2.61s.71 2.58 2.66 2.58c1.93 0 2.65-.68 2.65-2.58s-.71-2.61-2.65-2.61m-4.94 2.48c1.15-.17 1.07-.27 1.71-2.34h-1.82c-.43 1.65-.46 1.79-1.16 1.79h-.22c.04-.21.07-.43.07-.62v-1.16h-1.79v4.93h1.79v-1.56c0-.12-.02-.26-.06-.4h.4c.53.01.57.14 1.08 1.96h1.88c-.69-2.33-.71-2.37-1.88-2.54v-.06zm-8.15-.12h-.71c-.47 0-.56-.12-.56-.62 0-.37.09-.46.56-.46h.71v1.08zm-1.94.62c-.3.03-.81.11-.94.54l-.39 1.56h1.85l.31-1.32c.04-.23.15-.29.46-.29h.65v1.61h1.75v-4.97c-.61-.07-1.14-.08-2.49-.08-1.82 0-2.26.35-2.26 1.59 0 .6.24 1.16 1.07 1.33v.03zm-5.25.38c0-.23.12-.38.42-.39h1.03v.62c-.33.21-.68.34-.96.34-.33 0-.49-.14-.49-.4v-.17zm-1.35-1.94c.82-.05 1.62-.07 2.11-.07.52 0 .68.15.68.57v.12h-1.64c-.98 0-1.58.48-1.58 1.26v.5c0 .92.74 1.41 1.66 1.41.85 0 1.42-.44 1.76-.85l.17.72h1.44v-3.15c0-1.47-.73-1.93-2.06-1.93-.73 0-1.97.11-2.7.25l.16 1.17zm-1.24-1.28h-2.98c-.85 0-1.29.44-1.36 1.27-.07.9-.16 1.59-.26 1.94-.11.4-.4.39-.83.46l.18 1.32c1.08.18 2.06-.07 2.26-1.29.1-.48.21-1.31.3-2.08.03-.29.17-.42.47-.42h.43v3.73h1.79v-4.93zm-6.03 4.94v-4.94h-1.57l-1.57 2.36c-.15.23-.28.45-.38.73h-.04c.04-.29.07-.51.07-.76v-2.32h-1.6v4.93h1.57l1.54-2.25c.14-.22.31-.56.4-.82h.04c-.04.33-.07.59-.07.87v2.21h1.61zm-8.02-3.61c1.33-.18 1.36-.79 2.08-3.24h-1.89c-.62 2.05-.74 2.67-1.4 2.67h-.32c.05-.29.08-.58.08-.85v-1.82h-1.78v1.82c0 .28.03.57.09.85h-.35c-.65 0-.78-.62-1.39-2.67h-1.89c.73 2.45.76 3.07 2.09 3.24v.06c-1.38.2-1.47.73-2.27 3.54h1.95c.76-2.48.84-2.93 1.51-2.93h.35c-.05.22-.08.45-.08.64v2.29h1.78v-2.29c0-.19-.03-.42-.08-.64h.33c.7 0 .76.45 1.52 2.93h1.96c-.8-2.81-.89-3.35-2.28-3.54v-.06zm41.28-125.05h-.81v-2.83h-1.4l-.3 1.07v1.76h-1.34c-.16 0-.26-.1-.18-.29l1.5-3.88h-1.74l-1.7 4.35c-.22.54.15 1.06.72 1.06h2.74v1.44h1.7V67.2h.02l.79-.18v-1.06zm-7.67 1c-.48 0-.62.15-.62.62v.44c0 .48.15.62.62.62h.43c.48 0 .62-.15.62-.62v-.44c0-.48-.15-.62-.62-.62h-.43zm-1.85 1.68v-6.85h-1.86l-1.74.67.22 1.18 1.59-.36c-.06.28-.07.55-.07.81v4.54h1.86zm-9-5.36c.94-.05 1.44-.05 2.14-.05.53 0 .75.03.75.32.01.39-.45 1-1.22 1.79l-1.54 1.59c-.2.22-.26.45-.26.74v.97h5.1v-1.61h-1.97c-.33 0-.65.01-.96.09l1.69-1.66c.9-.94 1.07-1.39 1.07-2.13 0-1.34-.96-1.66-2.42-1.66-.74 0-1.45.03-2.45.23l.07 1.38zm46.56-11.74h-.71c-.47 0-.56-.12-.56-.62 0-.37.09-.46.56-.46h.71v1.08zm-1.94.62c-.3.03-.81.11-.94.54l-.39 1.56h1.85l.31-1.32c.04-.23.15-.29.46-.29h.65v1.61h1.74v-4.97c-.61-.07-1.14-.08-2.49-.08-1.82 0-2.26.35-2.26 1.59 0 .6.24 1.16 1.07 1.33v.03zm-5.25.38c0-.23.12-.38.42-.39h1.03v.62c-.33.21-.68.34-.96.34-.33 0-.49-.14-.49-.4v-.17zm-1.35-1.94c.82-.05 1.62-.07 2.11-.07.52 0 .68.15.69.57v.12h-1.64c-.98 0-1.58.48-1.58 1.26v.5c0 .92.74 1.41 1.66 1.41.85 0 1.42-.44 1.76-.85l.17.72h1.44V51.1c0-1.47-.73-1.93-2.06-1.93-.72 0-1.97.11-2.7.25l.15 1.18zm-4.27 2.56v-.98h.83c.5 0 .67.11.67.49 0 .41-.17.5-.65.5h-.85zm0-1.92v-.84l.78.01c.49 0 .64.08.64.41s-.13.43-.59.43h-.83zm2 .45c.78-.06 1.09-.42 1.09-1.12 0-1.03-.58-1.31-2.22-1.31-1.13 0-1.8.01-2.55.06l-.01 4.95c.84.05 1.58.06 2.85.06 1.47 0 2.12-.27 2.12-1.3 0-.79-.34-1.23-1.28-1.3v-.04zm-7.2-1.24c.61 0 .76.25.76 1.34 0 1.08-.16 1.32-.76 1.32-.62 0-.77-.24-.77-1.32 0-1.09.16-1.34.77-1.34m0-1.27c-1.94 0-2.66.71-2.66 2.61s.72 2.58 2.66 2.58c1.93 0 2.65-.68 2.65-2.58 0-1.91-.71-2.61-2.65-2.61m-3.52.14h-2.98c-.85 0-1.29.44-1.36 1.27-.07.9-.16 1.59-.26 1.94-.11.4-.4.39-.83.46l.18 1.32c1.08.18 2.07-.07 2.26-1.29.1-.48.21-1.31.3-2.08.03-.29.17-.42.47-.42h.43v3.73h1.8v-4.93zm-8.42 1.13c.61 0 .76.25.76 1.34 0 1.08-.16 1.32-.76 1.32-.62 0-.78-.24-.78-1.32.01-1.09.16-1.34.78-1.34m0-1.27c-1.95 0-2.66.71-2.66 2.61s.71 2.58 2.66 2.58c1.93 0 2.65-.68 2.65-2.58 0-1.91-.71-2.61-2.65-2.61m-3.13 1.5v-1.36h-4.92v1.36h1.57v3.57h1.79v-3.57h1.56zm-5.46 2.17c-.6.07-1.23.08-1.56.08-.74 0-.99-.24-.99-1.15 0-.91.25-1.15.99-1.15l1.46.01.19-1.12c-.57-.26-1.39-.34-1.96-.34-1.88 0-2.57.7-2.57 2.6 0 1.9.68 2.59 2.55 2.59.73 0 1.49-.1 2.04-.38l-.15-1.14zm-5.27-1.69h-2.92v1.09h2.92v-1.09zm-5.69.38h-.71c-.47 0-.56-.12-.56-.62 0-.37.09-.46.56-.46h.71v1.08zm-1.94.62c-.3.03-.81.11-.94.54l-.39 1.56h1.85l.31-1.32c.04-.23.15-.29.46-.29h.65v1.61h1.75v-4.97c-.62-.07-1.14-.08-2.49-.08-1.82 0-2.26.35-2.26 1.59 0 .6.24 1.16 1.07 1.33v.03zm-2.04-2.84h-1.77v1.74h-1.51v-1.74h-1.78v4.93h1.78v-2h1.51v2h1.77v-4.93zm-7.44 4.93h1.82l-1.47-2.52 1.35-2.41H196l-.97 1.85-.97-1.85h-1.8l1.35 2.41-1.47 2.52h1.82l1.07-1.99 1.07 1.99zm-4.02-4.93h-1.93l-.72 2.94c-.05.23-.13.56-.21.84h-.1c-.04-.29-.09-.57-.14-.84l-.75-2.94h-1.91l1.53 4.51c.08.26.3.43.58.43h.33c-.13.25-.32.48-.52.59-.32.18-.75.23-1.38.21l-.15 1.17c.71.13 1.45.14 2.03-.1.76-.28 1.33-.76 1.69-1.92l1.65-4.89zm-8.1 1.33c1.36-.18 1.4-.79 2.15-3.24h-1.9c-.54 2.05-.67 2.67-1.63 2.67h-.33c.05-.28.08-.58.08-.85V47.4h-1.85v6.85h1.85v-2.29c0-.19-.03-.42-.08-.64h.36c.95 0 1.03.45 1.74 2.93h1.95c-.84-2.81-.93-3.35-2.34-3.54v-.06zm139.65 37.46v-6.85h-1.85l-1.74.67.22 1.18 1.59-.36c-.06.28-.07.55-.07.81v4.54h1.85zm-4.69-1.69c-.48 0-.62.15-.62.62v.44c0 .48.15.62.62.62h.43c.48 0 .62-.15.62-.62v-.44c0-.48-.15-.62-.62-.62h-.43zm-1.28-.99h-.81V82.6h-1.4l-.3 1.07v1.76h-1.34c-.16 0-.26-.1-.18-.29l1.5-3.88h-1.74l-1.7 4.35c-.22.54.15 1.06.72 1.06h2.74v1.44h1.7v-1.44h.02l.79-.18v-1.06z" class="st12"/><circle cx="219.59" cy="91.34" r="13.91" style="clip-path:url(#SVGID_12_);fill:none;stroke:#39373a;stroke-width:.884"/><path d="M214.13 87.09c2.13-.11 3.24-.11 4.83-.11 1.19 0 1.7.07 1.7.72.02.87-1.01 2.26-2.75 4.03l-3.47 3.58c-.45.49-.58 1.01-.58 1.68v2.19h11.5v-3.63h-4.45c-.74 0-1.46.02-2.17.2l3.8-3.74c2.04-2.13 2.42-3.13 2.42-4.81 0-3.02-2.17-3.74-5.46-3.74-1.68 0-3.27.07-5.53.51l.16 3.12zm15.8 25.56c2.13-.11 3.24-.11 4.83-.11 1.19 0 1.7.07 1.7.72.02.87-1.01 2.26-2.75 4.03l-3.47 3.58c-.45.49-.58 1.01-.58 1.68v2.19h11.5v-3.62h-4.45c-.74 0-1.45.02-2.17.2l3.8-3.74c2.04-2.13 2.42-3.13 2.42-4.81 0-3.02-2.17-3.74-5.46-3.74-1.68 0-3.27.07-5.53.51l.16 3.11zm-4.46 8.28c-1.07 0-1.41.34-1.41 1.41v.99c0 1.07.34 1.41 1.41 1.41h.96c1.07 0 1.41-.34 1.41-1.41v-.99c0-1.07-.34-1.41-1.41-1.41h-.96zm-3.71-8.55.16-3.09h-9.67l-.4 6.94c-.04.72.47 1.3 1.21 1.39l2.4.29c2.08.18 2.84.47 2.78 1.92-.09 1.25-.54 1.75-2.57 1.75-1.1 0-2.53-.07-4.01-.18l-.38 3.15c1.97.29 3.94.45 5.48.45 4.39 0 5.62-2.26 5.62-5.04.02-2.48-.92-4.7-4.52-5.1l-2.57-.33.16-2.15h6.31zm-17.62 9.57c-1.79 0-1.97-.56-1.99-3.98.74-.43 1.23-.58 1.97-.58 1.48 0 1.81.38 1.81 2.04.01 1.83-.08 2.52-1.79 2.52m4.7-12.48c-1.59-.45-3.18-.45-3.98-.45-4.48 0-6.74 1.1-6.74 8.15 0 6.27 1.39 7.83 6 7.83 4.72 0 5.75-1.81 5.75-5.66 0-3.4-1.01-4.79-4.52-4.79-1.36 0-2.3.22-3.16.9.11-2.89.67-3.4 2.66-3.4 1.79 0 2.53 0 3.8.02l.19-2.6z" class="st12"/><path d="M140.94 192.16v51.76h-3.44v4.05h68v92.74h-29.34v16.64h47.79v-95.59h79.92v-36.64h-18.19v18.79H144.11v-51.76h-3.17zM41.32 177.9l-.25 10.83h51.4v168.63h35.88v-16.64H99.67v-92.74h11.28v-4.05H99.67v-62.09H48.52v-3.92h-7.2zm244.36-80.63v57.88H175.96v-4.6h-31.84v-4.3h-3.18v18.82h3.18v-6.25h141.57v18.14h18.18v-43.91h-2.1V97.27h-16.09zm-204.05-.15h4V101h-4v-3.88zm-36.14-.47h8.15v4.7h-8.15v-4.7zm26.27-6.69h7.38v11.07h-7.38V89.96zm9.87-.11h4v3.89h-4v-3.89zM134.36 43h7.5v2.45h-7.5V43zm0-14.54H142v11.07h-7.65V28.46zm-4.71-3.47.01 21.35H81.83l-.08 40.08H67.82l.01 8.06h-26.5v53.91h7.9v-11.01h47.3v-3.11h-47.3v-29.73h7.5v-4.44h11.09v4.47h25.17v9.45h3.54v-9.45h6.96v-3.54H89.42V53.74h51.52v47.28H123.9v3.54h17.04v13.42h3.18V32.44h141.56v9.83h16.09V31.59h30.94v10.6h3.67V27.92h-34.61v-3.01l-172.12.08z" style="fill:#39373a"/><defs><path id="SVGID_13_" d="M27.86 24.45h308.99v333.37H27.86z"/></defs><clipPath id="SVGID_14_"><use xlink:href="#SVGID_13_" style="overflow:visible"/></clipPath><path d="M140.94 243.91h-3.44v4.05h68v92.74h-29.34v16.64h47.79v-95.59h79.92v-36.64h-18.19v18.79H144.11v-51.76h-3.18v51.77zM285.68 97.27v57.89H175.96v-4.6h-31.84v-4.3h-3.18v18.82h3.18v-6.25h141.57v18.14h18.18v-43.91h-2.1V97.27h-16.09zM41.33 177.9l-.26 10.83h51.4v168.63h35.88v-16.64H99.67v-92.74h11.28v-4.05H99.67v-62.1H48.52v-3.92h-7.19zM142.01 39.53h-7.65V28.46h7.65v11.07zM134.36 43h7.5v2.45h-7.5V43zm-48.73 58h-4v-3.89h4V101zm0-7.26h-4v-3.89h4v3.89zm-6.49 7.29h-7.38V89.96h7.38v11.07zm-25.51.32h-8.15v-4.7h8.15v4.7zm282.75-59.16V27.92h-34.61v-3.01l-172.12.07.01 21.35H81.83l-.08 40.08H67.82l.01 8.06h-26.5v53.91h7.9v-11.01h47.3v-3.11h-47.3v-29.73h7.5v-4.44h11.09v4.47h25.17V114h3.54v-9.44h6.96v-3.54H89.42V53.74h51.52v47.28H123.9v3.54h17.04v13.42h3.18V32.44h141.56v9.83h16.09V31.59h30.94v10.6h3.67z" style="clip-path:url(#SVGID_14_);fill:none;stroke:#39373a;stroke-width:.931"/><path d="M118.79 91.55c.53 0 .68.23.68 1.5s-.15 1.5-.68 1.5c-.51 0-.66-.23-.66-1.5s.14-1.5.66-1.5m0-.99c-1.45 0-1.95.62-1.95 2.49 0 1.86.5 2.49 1.95 2.49 1.46 0 1.96-.62 1.96-2.49 0-1.86-.5-2.49-1.96-2.49m-3.25 3.71c-.33 0-.44.1-.44.44v.3c0 .33.1.44.44.44h.3c.33 0 .44-.1.44-.44v-.3c0-.33-.1-.44-.44-.44h-.3zm-4.32-2.67c.35-.01.84-.01 1.33-.01.49 0 .62.06.62.45.01.33-.04.52-.56.52h-.92v.83l.92-.01c.51-.01.62.15.62.56 0 .48-.18.57-.79.57-.42 0-.72-.01-1.32-.04l-.04.93c.54.08 1.14.13 1.72.13 1.27 0 1.73-.42 1.72-1.43-.01-.73-.21-1.1-.89-1.2v-.03c.62-.1.76-.52.76-1.21 0-.85-.44-1.11-1.61-1.11-.53 0-1.06.04-1.6.13l.04.92zm15.71-5.41h-.49c-.33 0-.39-.08-.39-.43 0-.26.06-.32.39-.32h.49v.75zm-1.35.43c-.21.02-.57.08-.66.37l-.27 1.09h1.29l.21-.92c.03-.16.1-.2.32-.2h.46v1.12h1.22v-3.47c-.43-.05-.8-.06-1.74-.06-1.27 0-1.58.24-1.58 1.11 0 .42.17.81.75.93v.03zm-3.67.27c0-.16.08-.26.29-.27h.72v.43c-.23.15-.47.24-.67.24-.23 0-.34-.1-.34-.28v-.12zm-.94-1.36c.58-.04 1.13-.05 1.48-.05.36 0 .47.1.48.39v.08h-1.15c-.69 0-1.1.33-1.1.88v.35c0 .65.52.98 1.16.98.6 0 .99-.3 1.23-.6l.12.51h1v-2.2c0-1.03-.51-1.34-1.44-1.34-.51 0-1.37.08-1.89.17l.11.83zm-.87-.89h-1.23v1.21h-1.06v-1.21h-1.24v3.44h1.24v-1.39h1.06v1.39h1.23v-3.44zm-4.27 0h-1.23v1.21h-1.05v-1.21h-1.24v3.44h1.24v-1.39h1.05v1.39h1.23v-3.44zm-6.52 2.25c0-.16.08-.26.29-.27h.72v.43c-.23.15-.47.24-.67.24-.23 0-.34-.1-.34-.28v-.12zm-.94-1.36c.57-.04 1.13-.05 1.48-.05.36 0 .47.1.48.39v.08h-1.15c-.69 0-1.1.33-1.1.88v.35c0 .65.52.98 1.16.98.6 0 .99-.3 1.23-.6l.12.51h1v-2.2c0-1.03-.51-1.34-1.44-1.34-.51 0-1.37.08-1.89.17l.11.83zm-3.31 1.69V86h.66c.5 0 .62.12.62.63 0 .48-.12.59-.61.59h-.67zm0-2.01v-1.05h.61c.45 0 .58.1.58.51 0 .43-.12.53-.54.53h-.65zm1.57.37c.61-.05.85-.4.85-1.09 0-.98-.46-1.25-1.75-1.25-.87 0-1.37.01-1.95.05v4.78c.64.05 1.18.05 2.17.05 1.17 0 1.68-.26 1.68-1.25 0-.76-.26-1.21-1-1.27v-.02z" style="clip-path:url(#SVGID_14_);fill:#39373a"/></g></switch></svg>