<svg xmlns="http://www.w3.org/2000/svg" xmlns:xlink="http://www.w3.org/1999/xlink" xml:space="preserve" id="Слой_1" x="0" y="0" style="enable-background:new 0 0 264.5 248.5" version="1.1" viewBox="0 0 264.5 248.5"><style>.st2,.st6{fill:none;stroke:#39373a;stroke-width:.495}.st6{clip-path:url(#SVGID_4_)}.st11{clip-path:url(#SVGID_8_);fill:#39373a}</style><path d="M111.5 88.5H74.1V76h37.4v12.5zm132.7-53.2H24.5v151.8h219.7V35.3z" style="fill:#f3dfec"/><defs><path id="SVGID_1_" d="M16.1 14.6h234.2v219.6H16.1z"/></defs><clipPath id="SVGID_2_"><use xlink:href="#SVGID_1_" style="overflow:visible"/></clipPath><path d="M218.8 230h-81.3v-32.4h-3.6v35.9h84.9z" style="clip-path:url(#SVGID_2_);fill:none;stroke:#39373a;stroke-width:.495"/><path d="m132.336 89.96 22.054-13.77.635 1.018-22.054 13.77zm30.912-11.841.636-1.018 22.054 13.77-.636 1.018zm7.205 117.871 22.289-13.387.618 1.028-22.29 13.387zM103.058 72.358l10.91-17.474 1.018.636-10.91 17.474zm101.81-56.356.635-1.018 24.43 15.254-.636 1.017z" class="st2"/><path d="M16.1 14.6h234.2v219.6H16.1z" style="fill:none"/><path d="M50.2 186.9h61.5v16.3H50.2z" class="st2"/><path d="M50.2 193.8h61.5v2.1H50.2zm147.8-6.9h47.9v16.3H198z" class="st2"/><path d="M198 193.8h47.9v2.1H198z" class="st2"/><path d="M24.3 35.7v49.9" style="fill:none;stroke:#1b1c20;stroke-width:.495"/><path d="M45.6 35.3v50.6" class="st2"/><defs><path id="SVGID_3_" d="M16.1 14.6h234.2v219.6H16.1z"/></defs><clipPath id="SVGID_4_"><use xlink:href="#SVGID_3_" style="overflow:visible"/></clipPath><path d="M28.9 39.6h12.4c1.4 0 2.5 1.3 2.5 2.9v36.2c0 1.6-1.1 2.9-2.5 2.9H28.9c-1.4 0-2.5-1.3-2.5-2.9V42.5c0-1.6 1.1-2.9 2.5-2.9zm3.2 3.6H38c1.6 0 2.9 1.4 2.9 3v25.3c0 1.7-1.3 3-2.9 3h-5.9c-1.6 0-2.9-1.4-2.9-3V46.3c0-1.7 1.3-3.1 2.9-3.1z" style="clip-path:url(#SVGID_4_);fill:none;stroke:#39373a;stroke-width:.509;stroke-miterlimit:22.926"/><path d="M35.1 46.4c.3 0 .6-.3.6-.6 0-.4-.3-.6-.6-.6s-.6.3-.6.6c-.1.3.2.6.6.6zM88 39.5c0-1.5-1.2-2.7-2.7-2.7h-5.6c-1.5 0-2.7 1.2-2.7 2.7 0 1.5 1.2 2.7 2.7 2.7h5.6c1.5.1 2.7-1.2 2.7-2.7zm-9.7 10.7c0 2.4 1.8 4.3 3.9 4.3 2.2 0 3.9-1.9 3.9-4.3s-1.8-4.3-3.9-4.3c-2.1.1-3.9 2-3.9 4.3z" class="st6"/><path d="M82.4 55.6c2.8 0 5.1-2.4 5.1-5.4 0-.4 0-.7-.1-1.1l-.8-6.9h-8l-1.1 6.9c-.1.4-.1.7-.1 1.1-.1 3 2.2 5.4 5 5.4zm-.4-17c0 .3.2.5.5.5s.5-.2.5-.5-.2-.5-.5-.5c-.3.1-.5.3-.5.5z" class="st6"/><circle cx="82.3" cy="48.2" r=".9" class="st6"/><path d="M84.4 38.2v.9m.5-.5h-1m-3.3-.4v.9m.4-.5h-.9m-.4 4.9v1m.5-.5h-1m6-.5v1m.5-.5h-1" style="stroke-linecap:round;fill:none;stroke:#39373a;stroke-width:.495"/><defs><path id="SVGID_5_" d="M16.1 14.6h234.2v219.6H16.1z"/></defs><clipPath id="SVGID_6_"><use xlink:href="#SVGID_5_" style="overflow:visible"/></clipPath><path d="M54 39.1c.5 0 .9.4.9.9s-.4.9-.9.9-.9-.4-.9-.9.4-.9.9-.9zm-.2-1c2.9 0 5.2 1.4 5.2 3.2 0 1.8-2.3 3.2-5.2 3.2-2.9 0-5.2-1.4-5.2-3.2 0-1.8 2.4-3.2 5.2-3.2zm6.8 3.1v.3c0 2.3-3 4.1-6.8 4.1S47 43.7 47 41.5v-6.4h13.6v6.1z" style="clip-path:url(#SVGID_6_);fill:none;stroke:#39373a;stroke-width:.495;stroke-miterlimit:22.926"/><path d="M47 67.4h17.2v17.1H47V67.4zm17.2 17.1L47 67.4m0 17.1 17.2-17.1" style="fill:none;stroke:#39373a;stroke-width:.509;stroke-miterlimit:22.926"/><defs><path id="SVGID_7_" d="M16.1 14.6h234.2v219.6H16.1z"/></defs><clipPath id="SVGID_8_"><use xlink:href="#SVGID_7_" style="overflow:visible"/></clipPath><path d="M26.3 102.5v-7.2c0-1 .8-1.8 1.8-1.8h10.6c1 0 1.8.8 1.8 1.8v7.2c0 1-.8 1.8-1.8 1.8H28c-.9 0-1.7-.8-1.7-1.8zm6.4-6.3c0-.4.3-.7.7-.7.4 0 .7.3.7.7 0 .4-.3.7-.7.7-.4.1-.7-.3-.7-.7zm0-4.8c0-.4.3-.7.7-.7.4 0 .7.3.7.7 0 .4-.3.7-.7.7-.4.1-.7-.3-.7-.7zm-7.9-1.8h17.1v16.2H24.8V89.6z" style="clip-path:url(#SVGID_8_);fill:none;stroke:#39373a;stroke-width:.509;stroke-miterlimit:22.926"/><path d="m176.9 59.6.1 1.5h2.9c-.2.2-.2.5-.3.7l-1.6 4.5h1.8l2-5.8c.2-.5-.2-.9-.7-.9h-4.2zm-1.3 5.1c-.5 0-.6.1-.6.6v.4c0 .5.1.6.6.6h.4c.5 0 .6-.1.6-.6v-.4c0-.5-.1-.6-.6-.6h-.4zm-3.8.4c-.8 0-.9-.2-.9-1.7.3-.2.5-.3.9-.3.6 0 .8.2.8.9-.1.8-.1 1.1-.8 1.1m2-5.4c-.7-.2-1.4-.2-1.7-.2-1.9 0-2.9.5-2.9 3.5 0 2.7.6 3.4 2.6 3.4s2.5-.8 2.5-2.5c0-1.5-.4-2.1-2-2.1-.6 0-1 .1-1.4.4 0-1.3.3-1.5 1.2-1.5h1.6l.1-1zm19-10.8c.3-.2.5-.3.9-.3s.6.2.6 1.3-.2 1.3-.7 1.3c-.4 0-.6-.1-.8-.2v-2.1zm-.4-1.5H191V54h1.8v-2c.4.3 1 .4 1.5.4 1.2 0 1.8-.5 1.8-2.5 0-1.6-.5-2.6-1.7-2.6-.8 0-1.5.3-1.8.8l-.2-.7zm-4.8 1.1c.6 0 .7.2.7 1.3s-.2 1.3-.7 1.3c-.6 0-.8-.2-.8-1.3 0-1 .2-1.3.8-1.3m0-1.2c-1.9 0-2.6.7-2.6 2.6 0 1.9.7 2.5 2.6 2.5 1.9 0 2.6-.7 2.6-2.5 0-1.9-.7-2.6-2.6-2.6m-5.6 3.8h-1.4c.2-.6.4-1.2.6-2.1 0-.3.2-.4.4-.4h.4v2.5zm2.5 0h-.8v-3.6H181c-.9 0-1.3.4-1.4 1.2-.1.8-.3 1.6-.6 2.5h-.6v2.5h1.2l.1-1.3h3.5l.1 1.3h1.2v-2.6zm-6.7 1.1v-4.8h-1.5l-1.5 2.3c-.1.2-.3.4-.4.7 0-.3.1-.5.1-.7v-2.3h-1.6v4.8h1.5l1.5-2.2c.1-.2.3-.5.4-.8 0 .3-.1.6-.1.9v2.2h1.6zm-9.2-3.3c.3-.2.5-.3.9-.3s.6.2.6 1.3-.2 1.3-.7 1.3c-.3 0-.6-.1-.8-.2v-2.1zm-.3-1.5h-1.4V54h1.8v-2c.4.3 1 .4 1.5.4 1.2 0 1.8-.5 1.8-2.5 0-1.6-.5-2.6-1.7-2.6-.8 0-1.5.3-1.8.8l-.2-.7zm-4.9 1.1c.6 0 .7.2.7 1.3s-.2 1.3-.7 1.3c-.6 0-.8-.2-.8-1.3.1-1 .2-1.3.8-1.3m0-1.2c-1.9 0-2.6.7-2.6 2.6 0 1.9.7 2.5 2.6 2.5 1.9 0 2.6-.7 2.6-2.5 0-1.9-.7-2.6-2.6-2.6m-5.2 1.4c1.3-.2 1.4-.8 2.1-3.2h-1.9c-.5 2-.7 2.6-1.6 2.6h-.3c0-.3.1-.6.1-.8v-1.8h-1.8v6.7h1.8V50c0-.2 0-.4-.1-.6h.3c.9 0 1 .4 1.7 2.9h1.9c-.7-2.8-.8-3.3-2.2-3.6zM84.3 67.5h1.3c.5 0 .6.1.6.5 0 .3 0 .5-.6.5h-.9v.8h.9c.5 0 .6.2.6.6 0 .5-.2.6-.8.6h-1.3v.9c.5.1 1.1.1 1.7.1 1.3 0 1.7-.4 1.7-1.4 0-.7-.2-1.1-.9-1.2.6-.1.8-.5.8-1.2 0-.9-.4-1.1-1.6-1.1-.5 0-1.1 0-1.6.1l.1.8zm-1.4 2.6c-.3 0-.4.1-.4.4v.3c0 .3.1.4.4.4h.3c.3 0 .4-.1.4-.4v-.3c0-.3-.1-.4-.4-.4h-.3zm-.9-.6h-.6v-2h-1l-.2.7v1.2h-.9c-.1 0-.2-.1-.1-.2l1-2.7H79l-1.2 3c-.2.4.1.7.5.7h1.9v1h1.2v-1l.6-.1v-.6zm6.8-9h-1.3l-.5 2.1c0 .2-.1.4-.1.6h-.1c0-.2-.1-.4-.1-.6l-.5-2.1h-1.3l1.1 3.1c.1.2.2.3.4.3h.2c-.1.2-.2.3-.4.4-.2.1-.5.2-1 .1l-.1.8c.5.1 1 .1 1.4-.1.5-.2.9-.5 1.2-1.3l1.1-3.3zm-6.8 4 2.7-5.3h-1L81 64.5h1zm-1.3-1.6c-.4 0-.8.1-1.5.1-.6 0-.7-.3-.7-1.4 0-1.1.2-1.4.7-1.4h1.4l.1-1c-.5-.1-.8-.2-1.5-.2-1.5 0-2.1.7-2.1 2.5s.6 2.5 2.1 2.5c.7 0 1.2-.1 1.6-.2l-.1-.9zm123.2 81.3c.9-.1 1.4-.1 2.1-.1.5 0 .8 0 .8.3 0 .4-.4 1-1.2 1.8l-1.5 1.6c-.2.2-.3.4-.3.7v1h5.1v-1.6h-2c-.3 0-.6 0-1 .1l1.7-1.7c.9-.9 1.1-1.4 1.1-2.1 0-1.3-1-1.7-2.4-1.7-.7 0-1.4 0-2.4.2v1.5zm-2 3.7c-.5 0-.6.1-.6.6v.4c0 .5.1.6.6.6h.4c.5 0 .6-.1.6-.6v-.4c0-.5-.1-.6-.6-.6h-.4zm-1.9 1.7v-6.8h-1.9l-1.7.7.2 1.2 1.6-.4c-.1.3-.1.5-.1.8v4.5h1.9zm-4.4 0v-6.8h-1.9l-1.7.7.2 1.2 1.6-.4c-.1.3-.1.5-.1.8v4.5h1.9zm40.1-16.1c0-.2.1-.4.4-.4h1v.6c-.3.2-.7.3-1 .3-.3 0-.5-.1-.5-.4v-.1zm-1.4-1.9c.8-.1 1.6-.1 2.1-.1s.7.1.7.6v.1h-1.6c-1 0-1.6.5-1.6 1.3v.5c0 .9.7 1.4 1.7 1.4.9 0 1.4-.4 1.8-.9l.2.7h1.4v-3.1c0-1.5-.7-1.9-2.1-1.9-.7 0-2 .1-2.7.2l.1 1.2zm-.8 0v-1.4h-4.9v1.4h1.6v3.6h1.8v-3.6h1.5zm-8.8 1.9c0-.2.1-.4.4-.4h1v.6c-.3.2-.7.3-1 .3-.3 0-.5-.1-.5-.4v-.1zm-1.3-1.9c.8-.1 1.6-.1 2.1-.1s.7.1.7.6v.1h-1.6c-1 0-1.6.5-1.6 1.3v.5c0 .9.7 1.4 1.7 1.4.9 0 1.4-.4 1.8-.9l.2.7h1.4v-3.1c0-1.5-.7-1.9-2.1-1.9-.7 0-2 .1-2.7.2l.1 1.2zm-1.3-1.3h-1.8v1.7h-1.5v-1.7H217v4.9h1.8v-2h1.5v2h1.8v-4.9zm-8.3 0c-.4 0-.6.2-.7.6l-.4 1.8c-.1.2-.1.5-.1.7h-.1c0-.2 0-.5-.1-.7l-.4-1.8c-.1-.4-.3-.6-.7-.6h-1.5c-.4 0-.6.2-.6.6l-.1 4.3h1.6l.1-3.6h.1l.6 2.4c.1.4.3.5.7.5h.8c.4 0 .6-.2.7-.5l.6-2.4h.1l.1 3.6h1.6l-.1-4.3c0-.4-.2-.6-.6-.6h-1.6zm-8.2 1.1c.6 0 .8.2.8 1.3s-.2 1.3-.8 1.3c-.6 0-.8-.2-.8-1.3.1-1 .2-1.3.8-1.3m0-1.3c-1.9 0-2.7.7-2.7 2.6 0 1.9.7 2.6 2.7 2.6 1.9 0 2.6-.7 2.6-2.6.1-1.9-.6-2.6-2.6-2.6m-4.9 2.5c1.1-.2 1.1-.3 1.7-2.3h-1.8c-.4 1.6-.5 1.8-1.2 1.8h-.2c0-.2.1-.4.1-.6v-1.2h-1.8v4.9h1.8v-1.6c0-.1 0-.3-.1-.4h.4c.5 0 .6.1 1.1 1.9h1.9c-.7-2.2-.7-2.3-1.9-2.5zm-8.1-.1h-.7c-.5 0-.6-.1-.6-.6 0-.4.1-.5.6-.5h.7v1.1zm-2 .6c-.3 0-.8.1-.9.5l-.4 1.6h1.8l.3-1.3c0-.2.1-.3.5-.3h.7v1.6h1.7v-5c-.6-.1-1.1-.1-2.5-.1-1.8 0-2.3.3-2.3 1.6.1.6.3 1.2 1.1 1.4zm-5.2.4c0-.2.1-.4.4-.4h1v.6c-.3.2-.7.3-1 .3-.3 0-.5-.1-.5-.4v-.1zm-1.3-1.9c.8-.1 1.6-.1 2.1-.1s.7.1.7.6v.1h-1.6c-1 0-1.6.5-1.6 1.3v.5c0 .9.7 1.4 1.7 1.4.9 0 1.4-.4 1.8-.9l.2.7h1.4v-3.1c0-1.5-.7-1.9-2.1-1.9-.7 0-2 .1-2.7.2l.1 1.2zm-1.3-1.3h-3c-.9 0-1.3.4-1.4 1.3-.1.9-.2 1.6-.3 1.9-.1.4-.4.4-.8.5l.2 1.3c1.1.2 2.1-.1 2.3-1.3.1-.5.2-1.3.3-2.1 0-.3.2-.4.5-.4h.4v3.7h1.8v-4.9zm-6 4.9v-4.9h-1.6l-1.6 2.4c-.1.2-.3.4-.4.7 0-.3.1-.5.1-.8v-2.3h-1.6v4.9h1.6l1.5-2.2.4-.8c0 .3-.1.6-.1.9v2.2h1.7zm-8-3.6c1.3-.2 1.4-.8 2.1-3.2H169c-.6 2-.7 2.7-1.4 2.7h-.3c.1-.3.1-.6.1-.9v-1.8h-1.8v1.8c0 .3 0 .6.1.9h-.3c-.7 0-.8-.6-1.4-2.7h-1.9c.7 2.4.8 3.1 2.1 3.2v.1c-1.4.2-1.5.7-2.3 3.5h1.9c.8-2.5.8-2.9 1.5-2.9h.3c0 .2-.1.4-.1.6v2.3h1.8v-2.3c0-.2 0-.4-.1-.6h.3c.7 0 .8.4 1.5 2.9h1.9c-.6-2.8-.7-3.3-2.1-3.6zM93 115.9c.9-.1 1.4-.1 2.1-.1.5 0 .8 0 .8.3 0 .4-.4 1-1.2 1.8l-1.5 1.6c-.2.2-.3.4-.3.7v1H98v-1.6h-2c-.3 0-.6 0-1 .1l1.7-1.7c.9-.9 1.1-1.4 1.1-2.1 0-1.3-1-1.7-2.4-1.7-.7 0-1.4 0-2.4.2v1.5zm-2 3.7c-.5 0-.6.1-.6.6v.4c0 .5.1.6.6.6h.4c.5 0 .6-.1.6-.6v-.4c0-.5-.1-.6-.6-.6H91zm-3.9.5c-.8 0-.9-.2-.9-1.8.3-.2.5-.3.9-.3.7 0 .8.2.8.9 0 .8-.1 1.2-.8 1.2m2.1-5.6c-.7-.2-1.4-.2-1.8-.2-2 0-3 .5-3 3.6 0 2.8.6 3.5 2.7 3.5s2.5-.8 2.5-2.5c0-1.5-.4-2.1-2-2.1-.6 0-1 .1-1.4.4 0-1.3.3-1.5 1.2-1.5h1.7l.1-1.2zm-6 6.8v-6.8h-1.9l-1.7.7.2 1.2 1.6-.4c-.1.3-.1.5-.1.8v4.5h1.9zm43.1-17.1h-.7c-.5 0-.6-.1-.6-.6 0-.4.1-.5.6-.5h.7v1.1zm-2 .6c-.3 0-.8.1-.9.5l-.4 1.6h1.8l.3-1.3c0-.2.1-.3.5-.3h.7v1.6h1.7v-5c-.6-.1-1.1-.1-2.5-.1-1.8 0-2.3.3-2.3 1.6.1.7.3 1.2 1.1 1.4zm-5.2.4c0-.2.1-.4.4-.4h1v.6c-.3.2-.7.3-1 .3-.3 0-.5-.1-.5-.4v-.1zm-1.3-1.9c.8-.1 1.6-.1 2.1-.1s.7.1.7.6v.1H119c-1 0-1.6.5-1.6 1.3v.5c0 .9.7 1.4 1.7 1.4.9 0 1.4-.4 1.8-.9l.2.7h1.4v-3.1c0-1.5-.7-1.9-2.1-1.9-.7 0-2 .1-2.7.2l.1 1.2zm-4.3 2.5v-1h.8c.5 0 .7.1.7.5s-.2.5-.6.5h-.9zm0-1.9v-.8h.8c.5 0 .6.1.6.4 0 .3-.1.4-.6.4h-.8zm2 .5c.8-.1 1.1-.4 1.1-1.1 0-1-.6-1.3-2.2-1.3-1.1 0-1.8 0-2.5.1v4.9c.8 0 1.6.1 2.8.1 1.5 0 2.1-.3 2.1-1.3 0-.9-.4-1.3-1.3-1.4zm-7.2-1.3c.6 0 .8.2.8 1.3s-.2 1.3-.8 1.3c-.6 0-.8-.2-.8-1.3 0-1 .2-1.3.8-1.3m0-1.2c-1.9 0-2.7.7-2.7 2.6 0 1.9.7 2.6 2.7 2.6 1.9 0 2.6-.7 2.6-2.6.1-1.9-.7-2.6-2.6-2.6m-3.5.1h-3c-.9 0-1.3.4-1.4 1.3-.1.9-.2 1.6-.3 1.9-.1.4-.4.4-.8.5l.2 1.3c1.1.2 2.1-.1 2.3-1.3.1-.5.2-1.3.3-2.1 0-.3.2-.4.5-.4h.4v3.7h1.8V102zm-8.4 1.1c.6 0 .8.2.8 1.3s-.2 1.3-.8 1.3c-.6 0-.8-.2-.8-1.3 0-1 .2-1.3.8-1.3m0-1.2c-1.9 0-2.7.7-2.7 2.6 0 1.9.7 2.6 2.7 2.6 1.9 0 2.6-.7 2.6-2.6 0-1.9-.7-2.6-2.6-2.6m-3.1 1.5V102h-4.9v1.4H90v3.6h1.8v-3.6h1.5zm-5.5 2.1c-.6.1-1.2.1-1.6.1-.7 0-1-.2-1-1.1 0-.9.2-1.1 1-1.1h1.5l.2-1.1c-.6-.3-1.4-.3-2-.3-1.9 0-2.6.7-2.6 2.6 0 1.9.7 2.6 2.5 2.6.7 0 1.5-.1 2-.4v-1.3zm-5.2-1.7h-2.9v1.1h2.9v-1.1zm-5.7.4h-.7c-.5 0-.6-.1-.6-.6 0-.4.1-.5.6-.5h.7v1.1zm-1.9.6c-.3 0-.8.1-.9.5l-.4 1.6h1.8l.3-1.3c0-.2.1-.3.5-.3h.7v1.6h1.7v-5c-.6-.1-1.1-.1-2.5-.1-1.8 0-2.3.3-2.3 1.6 0 .7.2 1.2 1.1 1.4zm-2.1-2.8h-1.8v1.7h-1.5V102h-1.8v4.9h1.8v-2h1.5v2h1.8V102zm-7.4 4.9h1.8l-1.5-2.5 1.3-2.4h-1.8l-1 1.8-1-1.8h-1.8l1.3 2.4-1.5 2.5h1.8l1.1-2 1.3 2zm-4-4.9h-1.9l-.7 2.9c0 .2-.1.6-.2.8h-.1c0-.3-.1-.6-.1-.8l-.7-2.9h-1.9l1.5 4.5c.1.3.3.4.6.4h.3c-.1.2-.3.5-.5.6-.3.2-.8.2-1.4.2l-.1 1.2c.7.1 1.4.1 2-.1.8-.3 1.3-.8 1.7-1.9l1.5-4.9zm-8.1 1.3c1.4-.2 1.4-.8 2.1-3.2h-1.9c-.5 2-.7 2.7-1.6 2.7h-.3c0-.3.1-.6.1-.9v-1.8H50v6.8h1.8v-2.3c0-.2 0-.4-.1-.6h.4c1 0 1 .4 1.7 2.9h1.9c-.8-2.8-.9-3.3-2.3-3.6zM191.7 221v-6.8h-1.8l-1.7.7.2 1.2 1.6-.4c-.1.3-.1.5-.1.8v4.5h1.8zm-4.6-1.7c-.5 0-.6.1-.6.6v.4c0 .5.1.6.6.6h.4c.5 0 .6-.1.6-.6v-.4c0-.5-.1-.6-.6-.6h-.4zm-6.2-3.8h1.9c.7 0 .9.1.9.6s-.1.7-.8.7h-1.3v1.2h1.3c.7 0 .9.2.9.8 0 .7-.3.8-1.1.8-.6 0-1 0-1.9-.1l-.1 1.3c.8.1 1.6.2 2.5.2 1.8 0 2.5-.6 2.5-2 0-1-.3-1.6-1.3-1.7.9-.1 1.1-.7 1.1-1.7 0-1.2-.6-1.6-2.3-1.6-.8 0-1.5.1-2.3.2v1.3z" class="st11"/><path d="M88.9 154.5c7.7 0 13.9-6.2 13.9-13.9s-6.2-13.9-13.9-13.9S75 132.9 75 140.6s6.3 13.9 13.9 13.9z" style="clip-path:url(#SVGID_8_);fill:none;stroke:#39373a;stroke-width:.882"/><path d="M92.1 148.4V133H88l-3.9 1.5.5 2.7 3.6-.8c-.1.6-.2 1.2-.2 1.8v10.2h4.1zm15.8 13c1.7 0 2.2.7 2.2 4.8s-.5 4.8-2.2 4.8c-1.7 0-2.1-.7-2.1-4.8 0-4 .5-4.8 2.1-4.8m0-3.2c-4.7 0-6.3 2-6.3 8s1.6 8 6.3 8c4.7 0 6.3-2 6.3-8 .1-6-1.6-8-6.3-8m-10.5 11.9c-1.1 0-1.4.3-1.4 1.4v1c0 1.1.3 1.4 1.4 1.4h1c1.1 0 1.4-.3 1.4-1.4v-1c0-1.1-.3-1.4-1.4-1.4h-1zm-9.5-8.7c1.7 0 2.2.7 2.2 4.8s-.5 4.8-2.2 4.8c-1.7 0-2.1-.7-2.1-4.8 0-4 .4-4.8 2.1-4.8m0-3.2c-4.7 0-6.3 2-6.3 8s1.6 8 6.3 8c4.7 0 6.3-2 6.3-8s-1.6-8-6.3-8m-7.7 9.7h-1.8v-6.4h-3.1l-.7 2.4v4h-3c-.4 0-.6-.2-.4-.6l3.4-8.7h-3.9l-3.8 9.8c-.5 1.2.3 2.4 1.6 2.4h6.2v3.2h3.8v-3.2l1.8-.4v-2.5z" class="st11"/><path d="M154.6 75.3v111.8h-44.1v15.8h63.7v-15.8h-16.3v-78h4.3V77.9h2.9v-2.5h-2.9v-.1h-7.6zm-64.9 6.6h4.4v4.4h-4.4v-4.4zm-14.1-3H79v7.4h-3.4v-7.4zm6.5-.5h4.4v4.1h-4.4v-4.1zm15.1 0h11.7v7.5H97.2v-7.5zM16.9 28.2l-.3 174.7h38.6v-15.8H24.5V89.4h87.8V78.5h15.9v-3.1h-23.1v-3H102v3H71.6v11H24.5V35.1h77.6v15.8h3.1V35.1h93.2v-6.9H16.9zm226 0h-14v6.9h14v40.1h-52.5v3.4h52.5v108.5h-25.2v15.8h10.7v27.3h-10.7v3.6h14.7v-30.9h17.5l-.1-174.7h-6.9z" style="fill:#39373a"/><defs><path id="SVGID_9_" d="M16.1 14.6h234.2v219.6H16.1z"/></defs><clipPath id="SVGID_10_"><use xlink:href="#SVGID_9_" style="overflow:visible"/></clipPath><path d="M154.6 187.1h-44.1v15.8h63.7v-15.8h-16.3v-78h4.3V77.9h2.9v-2.5h-2.9v-.1h-7.7v111.8zm-79-108.2H79v7.4h-3.4v-7.4zm6.5-.5h4.4v4.1h-4.4v-4.1zm7.6 3.5h4.4v4.4h-4.4v-4.4zm7.5-3.5h11.7v7.5H97.2v-7.5zM24.5 187.1V89.4h87.8V78.5h15.9v-3.1h-23.1v-3H102v3H71.6v11H24.5V35.1h77.6v15.8h3.1V35.1h93.2v-6.9H16.9l-.3 174.7h38.6v-15.8H24.5zM249.7 28.2h-20.9v6.9h14v40.1h-52.5v3.4h52.5v108.5h-25.2v15.8h10.7v27.3h-10.7v3.6h14.7v-30.9h17.5l-.1-174.7z" style="clip-path:url(#SVGID_10_);fill:none;stroke:#39373a;stroke-width:.928"/></svg>