<svg width="32" height="22" viewBox="0 0 32 22" fill="none" xmlns="http://www.w3.org/2000/svg">
<path d="M3.47253 16.7143V3.24762C3.47253 2.26985 4.29671 1.4762 5.31209 1.4762H26.6813C27.6967 1.4762 28.5209 2.26985 28.5209 3.24762V16.7143" stroke="black" stroke-miterlimit="10" stroke-linecap="round" stroke-linejoin="round"/>
<path d="M5.45056 16.7143V3.99051C5.45056 3.654 5.73408 3.38098 6.08353 3.38098H25.9099C26.2594 3.38098 26.5429 3.654 26.5429 3.99051V16.7143" stroke="black" stroke-miterlimit="10" stroke-linecap="round" stroke-linejoin="round"/>
<path d="M9.40662 14.1746H22.5934" stroke="black" stroke-miterlimit="10" stroke-linecap="round" stroke-linejoin="round"/>
<path d="M30.5055 16.7143H1.49451V18.9873C1.49451 19.8318 2.20659 20.5238 3.09011 20.5238H28.9165C29.7934 20.5238 30.5121 19.8381 30.5121 18.9873V16.7143H30.5055Z" stroke="black" stroke-miterlimit="10" stroke-linecap="round" stroke-linejoin="round"/>
<path d="M12.0439 16.7143V17.8064C12.0439 18.2508 12.4198 18.6191 12.8879 18.6191H19.1187C19.5802 18.6191 19.9626 18.2572 19.9626 17.8064V16.7143" stroke="black" stroke-miterlimit="10" stroke-linecap="round" stroke-linejoin="round"/>
</svg>
