<?xml version="1.0" encoding="utf-8"?>
<!-- Generator: Adobe Illustrator 26.5.0, SVG Export Plug-In . SVG Version: 6.00 Build 0)  -->
<svg version="1.1" id="Слой_1" xmlns="http://www.w3.org/2000/svg" xmlns:xlink="http://www.w3.org/1999/xlink" x="0px" y="0px"
	 viewBox="0 0 1000 1000" style="enable-background:new 0 0 1000 1000;" xml:space="preserve">
<style type="text/css">
	.st0{fill:#B1DCDE;}
	.st1{fill:#3C3C3B;}
	.st2{fill:none;stroke:#3C3C3B;}
</style>
<rect x="138.7" y="269.2" class="st0" width="747" height="384.5"/>
<g>
	<path class="st1" d="M221.9,425v-7.9c0-1.2,0.3-2.2,0.9-2.8c0.6-0.7,1.5-1,2.7-1c1.2,0,2.1,0.3,2.7,1c0.6,0.7,1,1.6,1,2.8v1.5h-2.4
		V417c0-1-0.4-1.5-1.2-1.5c-0.8,0-1.2,0.5-1.2,1.5v8.2c0,1,0.4,1.5,1.2,1.5c0.8,0,1.2-0.5,1.2-1.5V423h2.4v2c0,1.2-0.3,2.2-1,2.8
		c-0.6,0.7-1.5,1-2.7,1c-1.2,0-2.1-0.3-2.7-1C222.2,427.2,221.9,426.2,221.9,425z"/>
	<path class="st1" d="M229.7,428.7l6-15.2h2.1l-6,15.2H229.7z"/>
	<path class="st1" d="M238.1,413.5h2.4l1.3,5.2l0.7,3.6l0.6-3.5l1.1-5.2h2.4l-2.6,11.3c-0.1,0.6-0.2,1.1-0.4,1.5
		c-0.1,0.4-0.3,0.8-0.6,1.1c-0.2,0.3-0.5,0.6-0.8,0.8c-0.3,0.2-0.7,0.3-1.2,0.4c-0.5,0.1-1,0.1-1.7,0.1v-2.2c0.7,0,1.1,0,1.5-0.2
		c0.3-0.2,0.5-0.5,0.6-1l0-0.1L238.1,413.5z"/>
</g>
<g>
	<path class="st1" d="M224.3,441.2v-1.7c0.4,0,0.7,0,0.9-0.1s0.5-0.2,0.7-0.3c0.2-0.1,0.3-0.2,0.5-0.4c0.1-0.2,0.2-0.4,0.3-0.5
		c0.1-0.2,0.2-0.4,0.2-0.6h1.6v15.2h-2.4v-11.6H224.3z"/>
	<path class="st1" d="M231.4,452.8v-2.2h2.4v2.2H231.4z"/>
	<path class="st1" d="M235.4,452.8v-1.9c0-0.6,0.1-1.2,0.3-1.7c0.2-0.5,0.4-1,0.7-1.4c0.3-0.4,0.6-0.8,0.9-1.2
		c0.3-0.4,0.7-0.8,1-1.1c0.3-0.4,0.6-0.8,0.9-1.2c0.3-0.4,0.5-0.9,0.7-1.4c0.2-0.5,0.3-1.1,0.3-1.7c0-0.7-0.1-1.1-0.3-1.4
		c-0.2-0.3-0.5-0.4-0.9-0.4c-0.8,0-1.2,0.5-1.2,1.5v1.6h-2.3v-1.5c0-1.2,0.3-2.2,0.9-2.8c0.6-0.7,1.5-1,2.7-1c1.2,0,2,0.3,2.6,1
		c0.6,0.7,0.9,1.6,0.9,2.8c0,0.7-0.1,1.3-0.3,1.9c-0.2,0.6-0.4,1.1-0.7,1.6c-0.3,0.5-0.6,0.9-0.9,1.3c-0.3,0.4-0.7,0.8-1,1.2
		c-0.3,0.4-0.6,0.7-0.9,1c-0.3,0.3-0.5,0.7-0.7,1c-0.2,0.4-0.3,0.7-0.3,1c0,0.1,0,0.3,0,0.3h4.5v2.2H235.4z"/>
</g>
<g>
	<path class="st1" d="M473.2,331.1v-19h3v8.3l3.9-8.3h3l-4.1,8.5l4.1,10.5H480l-2.9-7.6l-0.9,1.7v5.8H473.2z"/>
	<path class="st1" d="M484.2,326.6v-9.9c0-1.5,0.4-2.7,1.2-3.5c0.8-0.8,1.9-1.2,3.4-1.2c1.5,0,2.6,0.4,3.4,1.2
		c0.8,0.8,1.2,2,1.2,3.5v9.9c0,1.5-0.4,2.7-1.2,3.5c-0.8,0.8-1.9,1.2-3.4,1.2c-1.5,0-2.6-0.4-3.4-1.2
		C484.6,329.3,484.2,328.1,484.2,326.6z M487.2,326.8c0,1.3,0.5,1.9,1.6,1.9c1,0,1.5-0.6,1.5-1.9v-10.3c0-1.2-0.5-1.9-1.5-1.9
		c-1,0-1.6,0.6-1.6,1.9V326.8z"/>
	<path class="st1" d="M495.2,331.1v-19h4.4c1.5,0,2.6,0.4,3.3,1.2c0.7,0.8,1.1,2,1.1,3.5v2.5c0,1.5-0.4,2.7-1.1,3.5
		s-1.9,1.2-3.3,1.2h-1.4v7.1H495.2z M498.2,321.3h1.4c0.5,0,0.9-0.1,1.1-0.4c0.2-0.3,0.4-0.7,0.4-1.4v-2.9c0-0.7-0.1-1.1-0.4-1.4
		c-0.2-0.3-0.6-0.4-1.1-0.4h-1.4V321.3z"/>
	<path class="st1" d="M505.4,331.1v-19h2.7v12l1.1-4.2l2.4-7.8h3.6v19h-3v-13.4l-1.2,4.7l-2.5,8.7H505.4z"/>
	<path class="st1" d="M516.3,333.7v-5.2h1.2c0.3-0.3,0.4-0.6,0.5-1c0.1-0.4,0.2-0.9,0.2-1.4l0.5-13.8h8.5v16.3h1.3v5.2h-3v-2.5h-6.3
		v2.5H516.3z M520.4,328.4h3.9v-13.6h-2.5l-0.5,11.1c0,0.7-0.1,1.2-0.3,1.6C520.8,327.9,520.6,328.2,520.4,328.4z"/>
	<path class="st1" d="M530,326.6v-9.9c0-1.5,0.4-2.7,1.2-3.5c0.8-0.8,1.9-1.2,3.4-1.2c1.5,0,2.6,0.4,3.4,1.2c0.8,0.8,1.2,2,1.2,3.5
		v9.9c0,1.5-0.4,2.7-1.2,3.5c-0.8,0.8-1.9,1.2-3.4,1.2c-1.5,0-2.6-0.4-3.4-1.2C530.4,329.3,530,328.1,530,326.6z M533,326.8
		c0,1.3,0.5,1.9,1.6,1.9c1,0,1.5-0.6,1.5-1.9v-10.3c0-1.2-0.5-1.9-1.5-1.9c-1,0-1.6,0.6-1.6,1.9V326.8z"/>
	<path class="st1" d="M541,331.1v-19h4.4c1.5,0,2.6,0.4,3.3,1.2c0.7,0.8,1.1,2,1.1,3.5v2.5c0,1.5-0.4,2.7-1.1,3.5s-1.9,1.2-3.3,1.2
		H544v7.1H541z M544,321.3h1.4c0.5,0,0.9-0.1,1.1-0.4c0.2-0.3,0.4-0.7,0.4-1.4v-2.9c0-0.7-0.1-1.1-0.4-1.4c-0.2-0.3-0.6-0.4-1.1-0.4
		H544V321.3z"/>
</g>
<g>
	<path class="st1" d="M498.8,353.5v-9.7c0-3.3,1.5-4.9,4.6-4.9c1.4,0,2.5,0.4,3.3,1.2c0.8,0.8,1.1,2,1.1,3.5v0.5h-2.8v-0.7
		c0-1.2-0.5-1.9-1.6-1.9c-0.6,0-1,0.2-1.3,0.5c-0.3,0.3-0.4,0.9-0.4,1.8v3.5c0.5-1.1,1.5-1.7,2.8-1.7c1.1,0,1.9,0.4,2.5,1.1
		c0.6,0.7,0.8,1.8,0.8,3.2v3.5c0,1.5-0.4,2.7-1.2,3.5c-0.8,0.8-1.9,1.2-3.4,1.2c-1.5,0-2.6-0.4-3.4-1.2
		C499.1,356.2,498.8,355,498.8,353.5z M501.7,353.7c0,1.2,0.5,1.9,1.6,1.9c1,0,1.5-0.6,1.5-1.9v-3.4c0-1.2-0.5-1.9-1.5-1.9
		c-1,0-1.6,0.6-1.6,1.9V353.7z"/>
	<path class="st1" d="M509.7,358.1v-2.7h3v2.7H509.7z"/>
	<path class="st1" d="M516.6,343.6v-2.1c0.4,0,0.8,0,1.2-0.1c0.3-0.1,0.6-0.2,0.8-0.3s0.4-0.3,0.6-0.5c0.2-0.2,0.3-0.4,0.4-0.6
		c0.1-0.2,0.2-0.4,0.3-0.7h2v19h-3v-14.5H516.6z"/>
</g>
<g>
	<path class="st1" d="M214.3,336.6v-15.2h3.6c1.2,0,2.1,0.3,2.7,0.9c0.6,0.6,0.9,1.5,0.9,2.6v0.5c0,1.6-0.5,2.6-1.5,3.1
		c1.2,0.5,1.8,1.5,1.8,3.3v1.2c0,1.2-0.3,2.1-0.9,2.7c-0.6,0.6-1.5,0.9-2.7,0.9H214.3z M216.7,327.6h0.9c0.5,0,0.8-0.1,1.1-0.4
		c0.2-0.2,0.4-0.7,0.4-1.2v-0.8c0-0.5-0.1-0.9-0.3-1.2c-0.2-0.3-0.5-0.4-0.9-0.4h-1.2V327.6z M216.7,334.5h1.4
		c0.4,0,0.7-0.1,0.9-0.3c0.2-0.2,0.3-0.6,0.3-1.2v-1.3c0-0.7-0.1-1.2-0.4-1.4c-0.2-0.3-0.6-0.4-1.2-0.4h-1.1V334.5z"/>
	<path class="st1" d="M222.5,336.6l2.4-15.2h3.7l2.4,15.2h-2.4l-0.4-2.8h-2.9l-0.4,2.8H222.5z M225.6,331.8h2.3l-1.2-7.7
		L225.6,331.8z"/>
	<path class="st1" d="M232,336.6v-15.2h2.4v6.5h2.7v-6.5h2.4v15.2h-2.4v-6.5h-2.7v6.5H232z"/>
	<path class="st1" d="M241.2,336.6v-15.2h2.4v6.5h2.7v-6.5h2.4v15.2h-2.4v-6.5h-2.7v6.5H241.2z"/>
	<path class="st1" d="M249.9,336.6l2.4-15.2h3.7l2.4,15.2H256l-0.4-2.8h-2.9l-0.4,2.8H249.9z M253,331.8h2.3l-1.2-7.7L253,331.8z"/>
	<path class="st1" d="M258.9,336.6c0.1-0.4,0.2-1,0.2-1.8v-2.3c0-0.8,0.1-1.5,0.4-2.1c0.2-0.5,0.6-0.9,1.2-1.2
		c-1-0.5-1.6-1.5-1.6-3.1v-1.2c0-1.2,0.3-2.1,0.8-2.6c0.6-0.6,1.5-0.9,2.7-0.9h3.6v15.2h-2.4v-6.2h-0.8c-0.5,0-0.9,0.1-1.2,0.4
		c-0.2,0.3-0.4,0.8-0.4,1.5v2.4c0,0.4,0,0.7,0,1c0,0.3,0,0.4-0.1,0.5c0,0.1-0.1,0.2-0.1,0.4H258.9z M261.6,326.7
		c0,0.6,0.1,1,0.4,1.2c0.2,0.2,0.6,0.4,1.1,0.4h0.9v-4.7h-1.1c-0.4,0-0.7,0.1-0.9,0.4c-0.2,0.3-0.3,0.6-0.3,1.2V326.7z"/>
</g>
<g>
	<path class="st1" d="M228.9,355.1v-1.9c0-0.6,0.1-1.2,0.3-1.7s0.4-1,0.7-1.4c0.3-0.4,0.6-0.8,0.9-1.2c0.3-0.4,0.7-0.8,1-1.1
		c0.3-0.4,0.6-0.8,0.9-1.2c0.3-0.4,0.5-0.9,0.7-1.4c0.2-0.5,0.3-1.1,0.3-1.7c0-0.7-0.1-1.1-0.3-1.4c-0.2-0.3-0.5-0.4-0.9-0.4
		c-0.8,0-1.2,0.5-1.2,1.5v1.6h-2.3v-1.5c0-1.2,0.3-2.2,0.9-2.8c0.6-0.7,1.5-1,2.7-1c1.2,0,2,0.3,2.6,1c0.6,0.7,0.9,1.6,0.9,2.8
		c0,0.7-0.1,1.3-0.3,1.9c-0.2,0.6-0.4,1.1-0.7,1.6c-0.3,0.5-0.6,0.9-0.9,1.3c-0.3,0.4-0.7,0.8-1,1.2c-0.3,0.4-0.6,0.7-0.9,1
		c-0.3,0.3-0.5,0.7-0.7,1c-0.2,0.4-0.3,0.7-0.3,1c0,0.1,0,0.3,0,0.3h4.5v2.2H228.9z"/>
	<path class="st1" d="M237.5,355.1v-2.2h2.4v2.2H237.5z"/>
	<path class="st1" d="M241.3,346.3v-2.8c0-1.2,0.3-2.2,0.9-2.8c0.6-0.7,1.5-1,2.7-1c1.2,0,2.1,0.3,2.7,1s0.9,1.6,0.9,2.8v7.8
		c0,2.6-1.2,3.9-3.7,3.9c-1.2,0-2-0.3-2.6-1c-0.6-0.7-0.9-1.6-0.9-2.8V351h2.2v0.5c0,1,0.4,1.5,1.2,1.5c0.4,0,0.8-0.1,1-0.4
		c0.2-0.3,0.3-0.8,0.3-1.5v-2.8c-0.4,0.9-1.2,1.3-2.2,1.3c-0.9,0-1.5-0.3-2-0.9C241.5,348.3,241.3,347.4,241.3,346.3z M243.6,346.1
		c0,1,0.4,1.5,1.2,1.5c0.8,0,1.2-0.5,1.2-1.5v-2.7c0-1-0.4-1.5-1.2-1.5c-0.8,0-1.2,0.5-1.2,1.5V346.1z"/>
</g>
<g>
	<path class="st1" d="M229.1,561.6v-19h3v8.3l3.9-8.3h3l-4.1,8.5l4.1,10.5h-3.1L233,554l-0.9,1.7v5.8H229.1z"/>
	<path class="st1" d="M239.4,542.6h3l1.6,6.5l0.9,4.4l0.7-4.4l1.4-6.5h3l-3.2,14.1c-0.1,0.7-0.3,1.3-0.5,1.9c-0.2,0.5-0.4,1-0.7,1.4
		c-0.3,0.4-0.6,0.8-1.1,1c-0.4,0.2-0.9,0.4-1.5,0.5c-0.6,0.1-1.3,0.1-2.1,0.1v-2.7c0.8,0.1,1.4,0,1.8-0.2c0.4-0.2,0.7-0.6,0.8-1.3
		l0-0.2L239.4,542.6z"/>
	<path class="st1" d="M250.7,561.6l3.3-9.8l-3.1-9.2h3l2.3,7l2.3-7h2.6l-3.1,9.3l3.3,9.7h-3l-2.3-7.1l-2.3,7.1H250.7z"/>
	<path class="st1" d="M263,561.6v-19h3v8.2h3.4v-8.2h3v19h-3v-8.1H266v8.1H263z"/>
	<path class="st1" d="M274.1,561.6c0.2-0.5,0.3-1.3,0.3-2.3v-2.9c0-1.1,0.1-1.9,0.4-2.6c0.3-0.7,0.8-1.2,1.5-1.5
		c-1.3-0.6-1.9-1.9-1.9-3.9V547c0-1.5,0.4-2.6,1.1-3.3c0.7-0.7,1.8-1.1,3.4-1.1h4.5v19h-3v-7.7h-1c-0.7,0-1.2,0.2-1.5,0.6
		c-0.3,0.4-0.5,1-0.5,1.9v3c0,0.5,0,0.9,0,1.2s-0.1,0.5-0.1,0.6c0,0.1-0.1,0.3-0.1,0.5H274.1z M277.4,549.1c0,0.7,0.2,1.3,0.5,1.6
		c0.3,0.3,0.7,0.5,1.3,0.5h1.2v-5.8H279c-0.5,0-0.9,0.2-1.2,0.5c-0.2,0.3-0.4,0.8-0.4,1.5V549.1z"/>
</g>
<g>
	<path class="st1" d="M243.3,586.9v-3.5c0-1.5,0.4-2.7,1.2-3.5c0.8-0.8,1.9-1.2,3.4-1.2c1.5,0,2.6,0.4,3.4,1.2
		c0.8,0.8,1.2,2,1.2,3.5v9.7c0,3.3-1.5,4.9-4.6,4.9c-1.4,0-2.6-0.4-3.3-1.2c-0.8-0.8-1.1-2-1.1-3.5v-0.5h2.8v0.7
		c0,1.3,0.5,1.9,1.6,1.9c0.6,0,1-0.2,1.2-0.5c0.3-0.3,0.4-1,0.4-1.8v-3.5c-0.5,1.1-1.5,1.7-2.8,1.7c-1.1,0-1.9-0.4-2.5-1.1
		C243.6,589.3,243.3,588.3,243.3,586.9z M246.3,586.6c0,1.2,0.5,1.9,1.5,1.9c1,0,1.6-0.6,1.6-1.9v-3.4c0-1.2-0.5-1.8-1.6-1.8
		c-1,0-1.5,0.6-1.5,1.8V586.6z"/>
	<path class="st1" d="M254.4,597.8v-2.7h3v2.7H254.4z"/>
	<path class="st1" d="M259.3,593.3v-1.6h3v1.8c0,1.3,0.5,1.9,1.5,1.9c0.5,0,0.9-0.2,1.2-0.5c0.3-0.3,0.4-0.9,0.4-1.7v-1.5
		c0-0.9-0.2-1.5-0.5-1.9c-0.3-0.4-0.8-0.6-1.5-0.6h-1v-2.7h1.2c0.6,0,1-0.2,1.3-0.5c0.3-0.3,0.4-0.8,0.4-1.5v-1.1
		c0-0.8-0.1-1.4-0.4-1.7c-0.3-0.3-0.6-0.5-1.2-0.5c-1,0-1.5,0.6-1.5,1.9v1.2h-3v-1c0-1.5,0.4-2.7,1.2-3.5c0.8-0.8,1.9-1.2,3.4-1.2
		c1.5,0,2.6,0.4,3.3,1.2c0.8,0.8,1.1,2,1.1,3.5v0.5c0,2-0.7,3.3-2.1,3.9c1.4,0.6,2.1,1.9,2.1,4v1.5c0,1.5-0.4,2.7-1.1,3.5
		c-0.8,0.8-1.9,1.2-3.3,1.2c-1.5,0-2.6-0.4-3.4-1.2C259.7,596,259.3,594.8,259.3,593.3z"/>
</g>
<g>
	<path class="st1" d="M205.4,741.6v-3.5c0-1.5,0.4-2.7,1.2-3.5c0.8-0.8,1.9-1.2,3.4-1.2s2.6,0.4,3.4,1.2c0.8,0.8,1.2,2,1.2,3.5v9.7
		c0,3.3-1.5,4.9-4.6,4.9c-1.4,0-2.6-0.4-3.3-1.2c-0.8-0.8-1.1-2-1.1-3.5v-0.5h2.8v0.7c0,1.3,0.5,1.9,1.6,1.9c0.6,0,1-0.2,1.2-0.5
		c0.3-0.3,0.4-1,0.4-1.8v-3.5c-0.5,1.1-1.5,1.7-2.8,1.7c-1.1,0-1.9-0.4-2.5-1.1C205.7,744,205.4,743,205.4,741.6z M208.4,741.3
		c0,1.2,0.5,1.9,1.5,1.9c1,0,1.6-0.6,1.6-1.9v-3.4c0-1.2-0.5-1.8-1.6-1.8c-1,0-1.5,0.6-1.5,1.8V741.3z"/>
	<path class="st1" d="M216.5,752.5v-2.7h3v2.7H216.5z"/>
	<path class="st1" d="M220.8,749.1v-2.7l5.4-12.8h3.3v12.8h1.4v2.7h-1.4v3.4h-3v-3.4H220.8z M223.5,746.4h3v-7.1L223.5,746.4z"/>
	<path class="st1" d="M236.6,748.4v-10.7c0-1.5,0.3-2.6,1-3.2s1.7-0.9,3.2-0.9h0.9v2.6H241c-0.5,0-0.9,0.1-1.1,0.4
		c-0.2,0.2-0.3,0.7-0.3,1.3v10.5c0,0.6,0.1,1.1,0.3,1.3c0.2,0.2,0.6,0.4,1.1,0.4h0.7v2.6h-0.9c-1.5,0-2.6-0.3-3.2-0.9
		C237,751,236.6,749.9,236.6,748.4z"/>
	<path class="st1" d="M242.6,749.1v-2.7l5.4-12.8h3.3v12.8h1.4v2.7h-1.4v3.4h-3v-3.4H242.6z M245.3,746.4h3v-7.1L245.3,746.4z"/>
	<path class="st1" d="M254,752.5v-2.7h3v2.7H254z"/>
	<path class="st1" d="M258.9,736.2v-2.7h8.9v2.6l-4.4,16.4h-3l4.4-16.3H258.9z"/>
	<path class="st1" d="M269.2,752.5v-2.6h0.7c0.5,0,0.8-0.1,1.1-0.4c0.2-0.2,0.3-0.7,0.3-1.3v-10.5c0-0.6-0.1-1.1-0.3-1.3
		c-0.2-0.2-0.6-0.4-1.1-0.4h-0.7v-2.6h0.9c1.5,0,2.6,0.3,3.2,0.9c0.6,0.6,1,1.7,1,3.2v10.7c0,1.5-0.3,2.6-1,3.2
		c-0.6,0.6-1.7,0.9-3.2,0.9H269.2z"/>
</g>
<g>
	<path class="st1" d="M297.7,348.6v-19h9.4v19h-3v-16.3h-3.4v16.3H297.7z"/>
	<path class="st1" d="M309.3,348.6v-19h4.4c1.5,0,2.6,0.4,3.3,1.2c0.7,0.8,1.1,2,1.1,3.5v2.5c0,1.5-0.4,2.7-1.1,3.5
		s-1.9,1.2-3.3,1.2h-1.4v7.1H309.3z M312.3,338.7h1.4c0.5,0,0.9-0.1,1.1-0.4c0.2-0.3,0.4-0.7,0.4-1.4v-2.9c0-0.7-0.1-1.1-0.4-1.4
		c-0.2-0.3-0.6-0.4-1.1-0.4h-1.4V338.7z"/>
	<path class="st1" d="M319.5,348.6v-19h2.7v12l1.1-4.2l2.4-7.8h3.6v19h-3v-13.4l-1.2,4.7l-2.5,8.7H319.5z"/>
	<path class="st1" d="M330.4,348.6l3.3-9.8l-3.1-9.2h3l2.3,7l2.3-7h2.6l-3.1,9.3l3.3,9.7h-3l-2.3-7.1l-2.3,7.1H330.4z"/>
	<path class="st1" d="M342.5,344v-9.9c0-1.5,0.4-2.7,1.2-3.5c0.8-0.8,1.9-1.2,3.4-1.2c1.5,0,2.6,0.4,3.4,1.2c0.8,0.8,1.2,2,1.2,3.5
		v9.9c0,1.5-0.4,2.7-1.2,3.5c-0.8,0.8-1.9,1.2-3.4,1.2c-1.5,0-2.6-0.4-3.4-1.2C342.9,346.7,342.5,345.5,342.5,344z M345.5,344.2
		c0,1.3,0.5,1.9,1.6,1.9c1,0,1.5-0.6,1.5-1.9v-10.3c0-1.2-0.5-1.9-1.5-1.9c-1,0-1.6,0.6-1.6,1.9V344.2z"/>
	<path class="st1" d="M352.6,348.6l3.7-11.2l-3.7-7.8h2.9l3.5,7.7v-7.7h3v7.7l3.5-7.7h2.9l-3.7,7.8l3.7,11.3h-3l-2.7-8.4l-0.7,1.4v7
		h-3v-7l-0.7-1.5l-2.7,8.5H352.6z"/>
	<path class="st1" d="M369.1,348.6l3-19h4.6l3,19h-3l-0.5-3.4h-3.7l-0.5,3.4H369.1z M373,342.5h2.9l-1.4-9.6L373,342.5z"/>
	<path class="st1" d="M380.4,348.6c0.2-0.5,0.3-1.3,0.3-2.3v-2.9c0-1.1,0.2-1.9,0.5-2.6c0.3-0.7,0.8-1.2,1.5-1.5
		c-1.3-0.6-1.9-1.9-1.9-3.9v-1.5c0-1.5,0.4-2.6,1.1-3.3c0.7-0.7,1.8-1.1,3.4-1.1h4.5v19h-3v-7.7h-1c-0.7,0-1.2,0.2-1.5,0.6
		c-0.3,0.4-0.5,1-0.5,1.9v3c0,0.5,0,0.9,0,1.2s-0.1,0.5-0.1,0.6c0,0.1-0.1,0.3-0.1,0.5H380.4z M383.7,336.1c0,0.7,0.2,1.3,0.5,1.6
		c0.3,0.3,0.7,0.5,1.3,0.5h1.2v-5.8h-1.4c-0.5,0-0.9,0.2-1.2,0.5c-0.2,0.3-0.4,0.8-0.4,1.5V336.1z"/>
</g>
<g>
	<path class="st1" d="M331,375.8v-2.7l5.4-12.8h3.3v12.8h1.4v2.7h-1.4v3.4h-3v-3.4H331z M333.7,373.1h3V366L333.7,373.1z"/>
	<path class="st1" d="M342.4,379.3v-2.7h3v2.7H342.4z"/>
	<path class="st1" d="M347.5,379.3v-2.3c0-0.7,0.1-1.5,0.3-2.1c0.2-0.7,0.5-1.2,0.9-1.7c0.4-0.5,0.7-1,1.2-1.5
		c0.4-0.5,0.8-0.9,1.3-1.4c0.4-0.5,0.8-0.9,1.2-1.4c0.3-0.5,0.6-1.1,0.8-1.7c0.2-0.7,0.3-1.3,0.3-2.1c0-0.8-0.1-1.4-0.4-1.7
		c-0.3-0.3-0.6-0.5-1.1-0.5c-1,0-1.5,0.6-1.5,1.9v2h-2.9v-1.9c0-1.5,0.4-2.7,1.1-3.5c0.8-0.8,1.9-1.2,3.3-1.2c1.4,0,2.5,0.4,3.3,1.2
		c0.8,0.8,1.1,2,1.1,3.5c0,0.8-0.1,1.6-0.3,2.3c-0.2,0.7-0.5,1.4-0.9,2c-0.3,0.6-0.7,1.1-1.1,1.7c-0.4,0.5-0.8,1-1.3,1.5
		c-0.4,0.5-0.8,0.9-1.2,1.3s-0.6,0.8-0.9,1.3c-0.2,0.4-0.3,0.9-0.3,1.3c0,0.2,0,0.3,0,0.4h5.6v2.7H347.5z"/>
</g>
<g>
	<path class="st1" d="M689.5,524.2l3.7-11.2l-3.7-7.8h2.9l3.5,7.7v-7.7h3v7.7l3.5-7.7h2.9l-3.7,7.8l3.7,11.3h-3l-2.7-8.4l-0.7,1.4v7
		h-3v-7l-0.7-1.5l-2.7,8.5H689.5z"/>
	<path class="st1" d="M706.8,524.2v-19h2.7v12l1.1-4.2l2.4-7.8h3.6v19h-3v-13.4l-1.2,4.7l-2.5,8.7H706.8z"/>
	<path class="st1" d="M717.5,524.2v-2.7c0.4,0,0.6,0,0.8-0.1c0.2,0,0.4-0.1,0.5-0.3c0.2-0.1,0.3-0.3,0.3-0.6s0.1-0.6,0.1-1l0.3-14.4
		h8.5v19h-3v-16.3h-2.6l-0.3,11.5c-0.1,1.7-0.4,3-1.1,3.7c-0.7,0.7-1.8,1.1-3.3,1.1H717.5z"/>
	<path class="st1" d="M729.8,524.2l3-19h4.6l3,19h-3l-0.5-3.4h-3.7l-0.5,3.4H729.8z M733.7,518.2h2.9l-1.4-9.6L733.7,518.2z"/>
	<path class="st1" d="M741.1,524.2c0.2-0.5,0.3-1.3,0.3-2.3V519c0-1.1,0.2-1.9,0.5-2.6c0.3-0.7,0.8-1.2,1.5-1.5
		c-1.3-0.6-1.9-1.9-1.9-3.9v-1.5c0-1.5,0.4-2.6,1.1-3.3c0.7-0.7,1.8-1.1,3.4-1.1h4.5v19h-3v-7.7h-1c-0.7,0-1.2,0.2-1.5,0.6
		c-0.3,0.4-0.5,1-0.5,1.9v3c0,0.5,0,0.9,0,1.2c0,0.3-0.1,0.5-0.1,0.6c0,0.1-0.1,0.3-0.1,0.5H741.1z M744.4,511.7
		c0,0.7,0.2,1.3,0.5,1.6c0.3,0.3,0.7,0.5,1.3,0.5h1.2v-5.8h-1.4c-0.5,0-0.9,0.2-1.2,0.5c-0.2,0.3-0.4,0.8-0.4,1.5V511.7z"/>
	<path class="st1" d="M756.7,524.2v-19h3v8.3l3.9-8.3h3l-4.1,8.5l4.1,10.5h-3.1l-2.9-7.6l-0.9,1.7v5.8H756.7z"/>
	<path class="st1" d="M767.7,519.6v-9.9c0-1.5,0.4-2.7,1.2-3.5c0.8-0.8,1.9-1.2,3.4-1.2c1.5,0,2.6,0.4,3.4,1.2
		c0.8,0.8,1.2,2,1.2,3.5v9.9c0,1.5-0.4,2.7-1.2,3.5c-0.8,0.8-1.9,1.2-3.4,1.2c-1.5,0-2.6-0.4-3.4-1.2
		C768.1,522.3,767.7,521.2,767.7,519.6z M770.7,519.8c0,1.3,0.5,1.9,1.6,1.9c1,0,1.5-0.6,1.5-1.9v-10.3c0-1.2-0.5-1.9-1.5-1.9
		c-1,0-1.6,0.6-1.6,1.9V519.8z"/>
	<path class="st1" d="M778.7,524.2v-19h4.1l2.2,13.5l2-13.5h4.3v19h-3v-13.6l-2.1,13.6h-2.8l-2.2-13.4v13.4H778.7z"/>
	<path class="st1" d="M793.4,524.2v-19h3v8.2h3.4v-8.2h3v19h-3v-8.1h-3.4v8.1H793.4z"/>
	<path class="st1" d="M804.2,524.2l3-19h4.6l3,19h-3l-0.5-3.4h-3.7l-0.5,3.4H804.2z M808.1,518.2h2.9l-1.4-9.6L808.1,518.2z"/>
	<path class="st1" d="M815.1,507.9v-2.7h9.2v2.7h-3.1v16.3h-3v-16.3H815.1z"/>
	<path class="st1" d="M824.9,524.2l3-19h4.6l3,19h-3l-0.5-3.4h-3.7l-0.5,3.4H824.9z M828.8,518.2h2.9l-1.4-9.6L828.8,518.2z"/>
</g>
<g>
	<path class="st1" d="M748.4,542.1V540c0.4,0,0.8,0,1.2-0.1c0.3-0.1,0.6-0.2,0.8-0.3c0.2-0.1,0.4-0.3,0.6-0.5
		c0.2-0.2,0.3-0.4,0.4-0.6c0.1-0.2,0.2-0.4,0.3-0.7h2v19h-3v-14.5H748.4z"/>
	<path class="st1" d="M757,545.6v-3.5c0-1.5,0.4-2.7,1.2-3.5c0.8-0.8,1.9-1.2,3.4-1.2c1.5,0,2.6,0.4,3.4,1.2c0.8,0.8,1.2,2,1.2,3.5
		v9.7c0,3.3-1.5,4.9-4.6,4.9c-1.4,0-2.6-0.4-3.3-1.2c-0.8-0.8-1.1-2-1.1-3.5v-0.5h2.8v0.7c0,1.3,0.5,1.9,1.6,1.9
		c0.6,0,1-0.2,1.2-0.5c0.3-0.3,0.4-1,0.4-1.8v-3.5c-0.5,1.1-1.5,1.7-2.8,1.7c-1.1,0-1.9-0.4-2.5-1.1C757.3,548.1,757,547,757,545.6z
		 M760,545.3c0,1.2,0.5,1.9,1.5,1.9c1,0,1.6-0.6,1.6-1.9v-3.4c0-1.2-0.5-1.8-1.6-1.8c-1,0-1.5,0.6-1.5,1.8V545.3z"/>
	<path class="st1" d="M768,556.6v-2.7h3v2.7H768z"/>
	<path class="st1" d="M772.8,552v-9.9c0-1.5,0.4-2.7,1.2-3.5c0.8-0.8,1.9-1.2,3.4-1.2c1.5,0,2.6,0.4,3.4,1.2c0.8,0.8,1.2,2,1.2,3.5
		v9.9c0,1.5-0.4,2.7-1.2,3.5c-0.8,0.8-1.9,1.2-3.4,1.2c-1.5,0-2.6-0.4-3.4-1.2C773.2,554.7,772.8,553.5,772.8,552z M775.8,552.2
		c0,1.3,0.5,1.9,1.6,1.9c1,0,1.5-0.6,1.5-1.9v-10.3c0-1.2-0.5-1.9-1.5-1.9c-1,0-1.6,0.6-1.6,1.9V552.2z"/>
</g>
<g>
	<path class="st1" d="M440.9,508l3.7-11.2l-3.7-7.8h2.9l3.5,7.7V489h3v7.7l3.5-7.7h2.9l-3.7,7.8l3.7,11.3h-3l-2.7-8.4l-0.7,1.4v7h-3
		v-7l-0.7-1.5l-2.7,8.5H440.9z"/>
	<path class="st1" d="M458.2,508v-19h2.7v12l1.1-4.2l2.4-7.8h3.6v19h-3v-13.4l-1.2,4.7l-2.5,8.7H458.2z"/>
	<path class="st1" d="M468.9,508.1v-2.7c0.4,0,0.6,0,0.8-0.1c0.2,0,0.4-0.1,0.5-0.3c0.2-0.1,0.3-0.3,0.3-0.6c0.1-0.3,0.1-0.6,0.1-1
		l0.3-14.4h8.5v19h-3v-16.3h-2.6l-0.3,11.5c-0.1,1.7-0.4,3-1.1,3.7c-0.7,0.7-1.8,1.1-3.3,1.1H468.9z"/>
	<path class="st1" d="M481.2,508l3-19h4.6l3,19h-3l-0.5-3.4h-3.7l-0.5,3.4H481.2z M485.1,502h2.9l-1.4-9.6L485.1,502z"/>
	<path class="st1" d="M492.5,508c0.2-0.5,0.3-1.3,0.3-2.3v-2.9c0-1.1,0.2-1.9,0.5-2.6c0.3-0.7,0.8-1.2,1.5-1.5
		c-1.3-0.6-1.9-1.9-1.9-3.9v-1.5c0-1.5,0.4-2.6,1.1-3.3c0.7-0.7,1.8-1.1,3.4-1.1h4.5v19h-3v-7.7h-1c-0.7,0-1.2,0.2-1.5,0.6
		c-0.3,0.4-0.5,1-0.5,1.9v3c0,0.5,0,0.9,0,1.2c0,0.3-0.1,0.5-0.1,0.6c0,0.1-0.1,0.3-0.1,0.5H492.5z M495.8,495.6
		c0,0.7,0.2,1.3,0.5,1.6c0.3,0.3,0.7,0.5,1.3,0.5h1.2v-5.8h-1.4c-0.5,0-0.9,0.2-1.2,0.5c-0.2,0.3-0.4,0.8-0.4,1.5V495.6z"/>
	<path class="st1" d="M508.1,508v-19h3v8.3l3.9-8.3h3l-4.1,8.5L518,508h-3.1l-2.9-7.6l-0.9,1.7v5.8H508.1z"/>
	<path class="st1" d="M519.1,503.5v-9.9c0-1.5,0.4-2.7,1.2-3.5c0.8-0.8,1.9-1.2,3.4-1.2c1.5,0,2.6,0.4,3.4,1.2
		c0.8,0.8,1.2,2,1.2,3.5v9.9c0,1.5-0.4,2.7-1.2,3.5c-0.8,0.8-1.9,1.2-3.4,1.2c-1.5,0-2.6-0.4-3.4-1.2
		C519.5,506.2,519.1,505,519.1,503.5z M522.1,503.7c0,1.3,0.5,1.9,1.6,1.9c1,0,1.5-0.6,1.5-1.9v-10.3c0-1.2-0.5-1.9-1.5-1.9
		c-1,0-1.6,0.6-1.6,1.9V503.7z"/>
	<path class="st1" d="M530.1,508v-19h4.1l2.2,13.5l2-13.5h4.3v19h-3v-13.6l-2.1,13.6h-2.8l-2.2-13.4V508H530.1z"/>
	<path class="st1" d="M544.8,508v-19h3v8.2h3.4V489h3v19h-3v-8.1h-3.4v8.1H544.8z"/>
	<path class="st1" d="M555.6,508l3-19h4.6l3,19h-3l-0.5-3.4h-3.7l-0.5,3.4H555.6z M559.4,502h2.9l-1.4-9.6L559.4,502z"/>
	<path class="st1" d="M566.5,491.7V489h9.2v2.7h-3.1V508h-3v-16.3H566.5z"/>
	<path class="st1" d="M576.3,508l3-19h4.6l3,19h-3l-0.5-3.4h-3.7l-0.5,3.4H576.3z M580.1,502h2.9l-1.4-9.6L580.1,502z"/>
</g>
<g>
	<path class="st1" d="M499.8,525.9v-2.1c0.4,0,0.8,0,1.2-0.1c0.3-0.1,0.6-0.2,0.8-0.3s0.4-0.3,0.6-0.5c0.2-0.2,0.3-0.4,0.4-0.6
		s0.2-0.4,0.3-0.7h2v19h-3v-14.5H499.8z"/>
	<path class="st1" d="M508.7,540.4V538c0-0.7,0.1-1.5,0.3-2.1c0.2-0.7,0.5-1.2,0.9-1.7c0.4-0.5,0.7-1,1.2-1.5
		c0.4-0.5,0.8-0.9,1.3-1.4c0.4-0.5,0.8-0.9,1.2-1.4c0.3-0.5,0.6-1.1,0.8-1.7c0.2-0.7,0.3-1.3,0.3-2.1c0-0.8-0.1-1.4-0.4-1.7
		c-0.3-0.3-0.6-0.5-1.1-0.5c-1,0-1.5,0.6-1.5,1.9v2h-2.9v-1.9c0-1.5,0.4-2.7,1.1-3.5c0.8-0.8,1.9-1.2,3.3-1.2c1.4,0,2.5,0.4,3.3,1.2
		s1.1,2,1.1,3.5c0,0.8-0.1,1.6-0.3,2.3s-0.5,1.4-0.9,2c-0.3,0.6-0.7,1.1-1.1,1.7c-0.4,0.5-0.8,1-1.3,1.5c-0.4,0.5-0.8,0.9-1.2,1.3
		c-0.3,0.4-0.6,0.8-0.9,1.3c-0.2,0.4-0.3,0.9-0.3,1.3c0,0.2,0,0.3,0,0.4h5.6v2.7H508.7z"/>
	<path class="st1" d="M519.4,540.4v-2.7h3v2.7H519.4z"/>
	<path class="st1" d="M524.3,524.1v-2.7h8.9v2.6l-4.4,16.4h-3l4.4-16.3H524.3z"/>
</g>
<g>
	<path class="st1" d="M723.1,477.8v-22.2c0-7.5,3.5-11.3,10.4-11.3c3.3,0,5.8,0.9,7.5,2.8c1.7,1.9,2.6,4.6,2.6,8.1v1.1h-6.4v-1.5
		c0-2.8-1.2-4.3-3.5-4.3c-1.3,0-2.2,0.4-2.9,1.2c-0.6,0.8-0.9,2.2-0.9,4.1v7.9c1.2-2.6,3.3-3.8,6.3-3.8c2.5,0,4.4,0.8,5.6,2.5
		c1.3,1.7,1.9,4.2,1.9,7.4v7.9c0,3.5-0.9,6.2-2.7,8.1c-1.8,1.9-4.3,2.8-7.7,2.8c-3.3,0-5.9-0.9-7.7-2.8
		C724,483.9,723.1,481.2,723.1,477.8z M729.9,478.2c0,2.8,1.2,4.2,3.5,4.2c2.3,0,3.5-1.4,3.5-4.2v-7.8c0-2.8-1.2-4.3-3.5-4.3
		c-2.4,0-3.5,1.4-3.5,4.3V478.2z"/>
	<path class="st1" d="M747.6,477.8v-22.6c0-3.5,0.9-6.2,2.7-8.1c1.8-1.9,4.4-2.8,7.7-2.8c3.3,0,5.9,0.9,7.7,2.8
		c1.8,1.9,2.7,4.6,2.7,8.1v22.6c0,3.5-0.9,6.2-2.7,8.1c-1.8,1.9-4.3,2.8-7.7,2.8c-3.3,0-5.9-0.9-7.7-2.8S747.6,481.2,747.6,477.8z
		 M754.4,478.2c0,2.9,1.2,4.3,3.6,4.3c2.4,0,3.5-1.4,3.5-4.3v-23.4c0-2.8-1.2-4.3-3.5-4.3c-2.4,0-3.6,1.4-3.6,4.3V478.2z"/>
	<path class="st1" d="M772.7,488.2v-6.3h6.8v6.3H772.7z"/>
	<path class="st1" d="M788.4,455v-4.8c1,0,1.9-0.1,2.7-0.3c0.8-0.2,1.4-0.5,1.9-0.8s0.9-0.7,1.3-1.2c0.4-0.5,0.7-1,0.9-1.5
		c0.2-0.4,0.4-1,0.7-1.7h4.6v43.4h-6.8V455H788.4z"/>
</g>
<g>
	<ellipse transform="matrix(0.3827 -0.9239 0.9239 0.3827 109.1548 948.1949)" class="st2" cx="764.1" cy="392.4" rx="38" ry="38"/>
</g>
<g>
	<path class="st1" d="M745.6,410v-4c0-1.3,0.2-2.5,0.6-3.7c0.4-1.2,0.9-2.2,1.5-3c0.6-0.9,1.3-1.7,2-2.5c0.7-0.8,1.5-1.6,2.2-2.4
		c0.7-0.8,1.4-1.6,2-2.5c0.6-0.9,1.1-1.8,1.5-3c0.4-1.1,0.6-2.3,0.6-3.6c0-1.4-0.2-2.4-0.7-2.9c-0.4-0.6-1.1-0.8-2-0.8
		c-1.8,0-2.7,1.1-2.7,3.2v3.5h-4.9V385c0-2.6,0.7-4.7,2-6.1c1.3-1.4,3.2-2.1,5.7-2.1s4.4,0.7,5.7,2.1c1.3,1.4,2,3.5,2,6.1
		c0,1.4-0.2,2.8-0.6,4c-0.4,1.3-0.9,2.4-1.5,3.4c-0.6,1-1.3,1.9-2,2.9c-0.7,0.9-1.5,1.8-2.2,2.5c-0.7,0.8-1.4,1.5-2,2.3
		c-0.6,0.7-1.1,1.5-1.5,2.2c-0.4,0.8-0.6,1.5-0.6,2.2c0,0.3,0,0.6,0,0.7h9.7v4.7H745.6z"/>
	<path class="st1" d="M764.2,410v-32.9h5.2v14.3l6.8-14.3h5.2l-7.2,14.7l7.2,18.2H776l-5-13.1l-1.6,3V410H764.2z"/>
</g>
<rect x="881.5" y="253.2" class="st1" width="14.1" height="429.3"/>
<rect x="881.5" y="253.2" class="st2" width="14.1" height="429.3"/>
<rect x="834.4" y="653.7" class="st1" width="51.5" height="28.8"/>
<rect x="834.4" y="653.7" class="st2" width="51.5" height="28.8"/>
<rect x="585.9" y="653.7" class="st1" width="101.2" height="28.8"/>
<rect x="585.9" y="653.7" class="st2" width="101.2" height="28.8"/>
<rect x="317.9" y="653.7" class="st1" width="101.2" height="28.8"/>
<rect x="317.9" y="653.7" class="st2" width="101.2" height="28.8"/>
<rect x="832.2" y="676.2" class="st1" width="55.9" height="6.4"/>
<rect x="832.2" y="676.2" class="st2" width="55.9" height="6.4"/>
<rect x="581.6" y="676.2" class="st1" width="109.8" height="6.4"/>
<rect x="581.6" y="676.2" class="st2" width="109.8" height="6.4"/>
<rect x="313.7" y="676.2" class="st1" width="109.8" height="6.4"/>
<rect x="313.7" y="676.2" class="st2" width="109.8" height="6.4"/>
<rect x="662.8" y="676.2" class="st2" width="196.5" height="6.4"/>
<rect x="662.8" y="653.7" class="st2" width="196.5" height="28.8"/>
<rect x="633" y="258" class="st1" width="254.8" height="11.7"/>
<rect x="633" y="258" class="st2" width="254.8" height="11.7"/>
<rect x="380.6" y="258" class="st1" width="256.2" height="11.7"/>
<rect x="380.6" y="258" class="st2" width="256.2" height="11.7"/>
<rect x="380.6" y="253.2" class="st1" width="12.1" height="61.2"/>
<rect x="380.6" y="373.2" class="st1" width="12.1" height="292.2"/>
<rect x="380.6" y="373.2" class="st2" width="12.1" height="292.2"/>
<rect x="128" y="671.4" class="st1" width="15.2" height="117.7"/>
<rect x="123.6" y="252.7" class="st1" width="15.6" height="536.1"/>
<rect x="135.3" y="261.7" class="st1" width="131.9" height="7.5"/>
<rect x="135.3" y="261.7" class="st2" width="131.9" height="7.5"/>
<rect x="258" y="252.7" class="st1" width="23.5" height="16.5"/>
<rect x="258" y="252.7" class="st2" width="23.5" height="16.5"/>
<rect x="349.6" y="252.7" class="st1" width="546.4" height="16.5"/>
<rect x="129.7" y="252.7" class="st1" width="71.1" height="16.5"/>
<rect x="134.1" y="252.7" class="st2" width="66.7" height="16.5"/>
<line class="st2" x1="136.2" y1="252.7" x2="272.4" y2="252.7"/>
<rect x="140.9" y="779.2" class="st2" width="244.9" height="7.3"/>
<polygon class="st2" points="390.8,779.2 390.8,786.4 637.1,751.1 637.1,743.8 "/>
<path class="st2" d="M277.3,264.6l63,36.3c0,0,3.3-5.2,6.1-16.2c2.8-11.1,2.8-18.8,2.8-18.8"/>
<path class="st2" d="M261.3,302.1L286,345c0,0-3.5,2.2-11.1,4.2c-7.5,1.9-12.8,1.9-12.8,1.9"/>
<path class="st2" d="M261.3,463.5l24.8-42.9c0,0-3.5-2.2-11.1-4.2c-7.5-1.9-12.8-1.9-12.8-1.9"/>
<path class="st2" d="M344.2,462.3l-51.5,30.1c0,0-2.7-4.3-5-13.5c-2.3-9.2-2.3-15.6-2.3-15.6"/>
<path class="st2" d="M630.1,296.6l38.3,65.5c0,0-5.4,3.4-17.1,6.3c-11.7,2.9-19.8,2.9-19.8,2.9"/>
<path class="st2" d="M381.8,393l59.1,34.5c0,0,3.1-4.9,5.7-15.4c2.6-10.5,2.6-17.8,2.6-17.8"/>
<rect x="140.7" y="398.7" class="st2" width="21.4" height="57.9"/>
<line class="st2" x1="144.1" y1="456.5" x2="144.1" y2="398.3"/>
<polyline class="st2" points="144.1,453.5 159.6,452.3 159.6,415.6 144.1,414 144.1,411.6 159.7,410 159.7,401.8 144.1,400.1 "/>
<rect x="356.4" y="397.2" class="st2" width="22.7" height="59.4"/>
<line class="st2" x1="360" y1="397.3" x2="360" y2="456.9"/>
<polyline class="st2" points="359.9,400.3 376.3,401.6 376.3,439.1 359.9,440.8 359.9,443.3 376.5,444.9 376.5,453.3 359.9,455.1 
	"/>
<rect x="140.7" y="465.8" class="st2" width="39.6" height="41.5"/>
<g>
	<path class="st2" d="M177.2,471.2c0-1-0.8-1.8-1.8-1.8h-24.1c-1,0-1.8,0.8-1.8,1.8v30.7c0,1,0.8,1.8,1.8,1.8h24.1
		c1,0,1.8-0.8,1.8-1.8V471.2z"/>
	<path class="st2" d="M174.3,473.9c0-1-0.8-1.8-1.8-1.8h-18.3c-1,0-1.8,0.8-1.8,1.8v25.3c0,1,0.8,1.8,1.8,1.8h18.3
		c1,0,1.8-0.8,1.8-1.8V473.9z"/>
	<path class="st2" d="M155.9,486.5c0,0.8,0.6,1.4,1.4,1.4c0.8,0,1.4-0.6,1.4-1.4c0-0.8-0.6-1.4-1.4-1.4
		C156.5,485.1,155.9,485.8,155.9,486.5z"/>
	<path class="st2" d="M143.8,486.5c0,0.8,0.6,1.4,1.4,1.4c0.8,0,1.4-0.6,1.4-1.4c0-0.8-0.6-1.4-1.4-1.4
		C144.4,485.1,143.8,485.8,143.8,486.5z"/>
</g>
<g>
	<path class="st1" d="M214.9,427.5c0-7.1-5.8-13-13-13h-18.8c-1.2,0-2.2,1-2.2,2.2v21.5c0,1.2,1,2.2,2.2,2.2h18.8
		C209.1,440.5,214.9,434.6,214.9,427.5 M180,438.2v-21.5c0-1.7,1.4-3.1,3.1-3.1h18.8c7.6,0,13.9,6.2,13.9,13.9
		c0,7.6-6.2,13.9-13.9,13.9h-18.8C181.4,441.3,180,439.9,180,438.2"/>
	<path class="st2" d="M214.9,427.5c0-7.1-5.8-13-13-13h-18.8c-1.2,0-2.2,1-2.2,2.2v21.5c0,1.2,1,2.2,2.2,2.2h18.8
		C209.1,440.5,214.9,434.6,214.9,427.5z M180,438.2v-21.5c0-1.7,1.4-3.1,3.1-3.1h18.8c7.6,0,13.9,6.2,13.9,13.9
		c0,7.6-6.2,13.9-13.9,13.9h-18.8C181.4,441.3,180,439.9,180,438.2z"/>
	<path class="st2" d="M187.2,418.2v18.6c0,0.1,0.1,0.2,0.2,0.2h14.2c5.2,0,9.5-4.3,9.5-9.5c0-5.2-4.3-9.5-9.5-9.5h-14.2
		C187.3,418,187.2,418.1,187.2,418.2z"/>
	<path class="st1" d="M187.6,418.4v18.1h13.9c5,0,9.1-4.1,9.1-9.1c0-5-4.1-9.1-9.1-9.1H187.6z M186.7,436.8v-18.6
		c0-0.4,0.3-0.7,0.7-0.7h14.2c5.5,0,10,4.5,10,10c0,5.5-4.5,10-10,10h-14.2C187,437.5,186.7,437.1,186.7,436.8"/>
	<path class="st2" d="M187.6,418.4v18.1h13.9c5,0,9.1-4.1,9.1-9.1c0-5-4.1-9.1-9.1-9.1H187.6z M186.7,436.8v-18.6
		c0-0.4,0.3-0.7,0.7-0.7h14.2c5.5,0,10,4.5,10,10c0,5.5-4.5,10-10,10h-14.2C187,437.5,186.7,437.1,186.7,436.8z"/>
	<path class="st1" d="M201.6,427.5c0-1.3-1.1-2.5-2.5-2.5c-1.3,0-2.5,1.1-2.5,2.5c0,1.4,1.1,2.5,2.5,2.5
		C200.5,429.9,201.6,428.8,201.6,427.5 M195.8,427.5c0-1.8,1.5-3.3,3.3-3.3c1.8,0,3.3,1.5,3.3,3.3c0,1.8-1.5,3.3-3.3,3.3
		C197.3,430.8,195.8,429.3,195.8,427.5"/>
	<path class="st2" d="M201.6,427.5c0-1.3-1.1-2.5-2.5-2.5c-1.3,0-2.5,1.1-2.5,2.5c0,1.4,1.1,2.5,2.5,2.5
		C200.5,429.9,201.6,428.8,201.6,427.5z M195.8,427.5c0-1.8,1.5-3.3,3.3-3.3c1.8,0,3.3,1.5,3.3,3.3c0,1.8-1.5,3.3-3.3,3.3
		C197.3,430.8,195.8,429.3,195.8,427.5z"/>
</g>
<rect x="191.8" y="418.4" transform="matrix(0.5964 -0.8027 0.8027 0.5964 -261.2401 324.6434)" class="st1" width="0.9" height="7.4"/>
<rect x="191.8" y="418.4" transform="matrix(0.5964 -0.8027 0.8027 0.5964 -261.2401 324.6434)" class="st2" width="0.9" height="7.4"/>
<polygon class="st1" points="189,434.6 194.9,430.1 195.5,430.8 189.5,435.3 "/>
<polygon class="st2" points="189,434.6 194.9,430.1 195.5,430.8 189.5,435.3 "/>
<g>
	<path class="st1" d="M180,418.5c0-2-1.6-3.6-3.6-3.6h-4.9c-2,0-3.6,1.6-3.6,3.6v17.9c0,2,1.6,3.6,3.6,3.6h4.9c2,0,3.6-1.6,3.6-3.6
		V418.5z M167,436.4v-17.9c0-2.5,2-4.5,4.5-4.5h4.9c2.5,0,4.5,2,4.5,4.5v17.9c0,2.5-2,4.5-4.5,4.5h-4.9
		C169,440.9,167,438.9,167,436.4"/>
	<path class="st2" d="M180,418.5c0-2-1.6-3.6-3.6-3.6h-4.9c-2,0-3.6,1.6-3.6,3.6v17.9c0,2,1.6,3.6,3.6,3.6h4.9c2,0,3.6-1.6,3.6-3.6
		V418.5z M167,436.4v-17.9c0-2.5,2-4.5,4.5-4.5h4.9c2.5,0,4.5,2,4.5,4.5v17.9c0,2.5-2,4.5-4.5,4.5h-4.9
		C169,440.9,167,438.9,167,436.4z"/>
	<path class="st1" d="M175.3,427.5c0-0.8-0.6-1.4-1.4-1.4c-0.8,0-1.4,0.6-1.4,1.4c0,0.8,0.6,1.4,1.4,1.4
		C174.7,428.9,175.3,428.3,175.3,427.5 M171.7,427.5c0-1.3,1-2.3,2.3-2.3c1.3,0,2.3,1,2.3,2.3c0,1.3-1,2.3-2.3,2.3
		C172.7,429.8,171.7,428.7,171.7,427.5"/>
	<path class="st2" d="M175.3,427.5c0-0.8-0.6-1.4-1.4-1.4c-0.8,0-1.4,0.6-1.4,1.4c0,0.8,0.6,1.4,1.4,1.4
		C174.7,428.9,175.3,428.3,175.3,427.5z M171.7,427.5c0-1.3,1-2.3,2.3-2.3c1.3,0,2.3,1,2.3,2.3c0,1.3-1,2.3-2.3,2.3
		C172.7,429.8,171.7,428.7,171.7,427.5z"/>
</g>
<rect x="192.8" y="272" class="st2" width="41.7" height="41.8"/>
<line class="st2" x1="192.6" y1="272.5" x2="234.3" y2="313.7"/>
<line class="st2" x1="192.6" y1="314.1" x2="234.3" y2="273"/>
<g>
	<path class="st1" d="M217.4,359.1c7.3,0,13.2,5.9,13.2,13.2v14c0,1.1-0.9,2-2,2h-29.7c-1.1,0-2-0.9-2-2v-14
		c0-7.3,5.9-13.2,13.2-13.2H217.4z M198.8,389h29.7c1.5,0,2.7-1.2,2.7-2.7v-14c0-7.7-6.2-13.9-13.9-13.9H210
		c-7.7,0-13.9,6.2-13.9,13.9v14C196.1,387.8,197.3,389,198.8,389"/>
	<path class="st2" d="M217.4,359.1c7.3,0,13.2,5.9,13.2,13.2v14c0,1.1-0.9,2-2,2h-29.7c-1.1,0-2-0.9-2-2v-14
		c0-7.3,5.9-13.2,13.2-13.2H217.4z M198.8,389h29.7c1.5,0,2.7-1.2,2.7-2.7v-14c0-7.7-6.2-13.9-13.9-13.9H210
		c-7.7,0-13.9,6.2-13.9,13.9v14C196.1,387.8,197.3,389,198.8,389z"/>
	<path class="st1" d="M217.4,362.4c5.4,0,9.9,4.4,9.9,9.9v8.1c0,0.9-0.8,1.7-1.7,1.7h-23.7c-0.9,0-1.7-0.8-1.7-1.7v-8.1
		c0-5.4,4.4-9.9,9.9-9.9H217.4z M201.8,382.9h23.7c1.4,0,2.5-1.1,2.5-2.5v-8.1c0-5.9-4.8-10.6-10.6-10.6H210
		c-5.8,0-10.6,4.8-10.6,10.6v8.1C199.4,381.8,200.5,382.9,201.8,382.9"/>
	<path class="st2" d="M217.4,362.4c5.4,0,9.9,4.4,9.9,9.9v8.1c0,0.9-0.8,1.7-1.7,1.7h-23.7c-0.9,0-1.7-0.8-1.7-1.7v-8.1
		c0-5.4,4.4-9.9,9.9-9.9H217.4z M201.8,382.9h23.7c1.4,0,2.5-1.1,2.5-2.5v-8.1c0-5.9-4.8-10.6-10.6-10.6H210
		c-5.8,0-10.6,4.8-10.6,10.6v8.1C199.4,381.8,200.5,382.9,201.8,382.9z"/>
	<path class="st1" d="M213.7,369.3c0.9,0,1.6,0.7,1.6,1.6c0,0.9-0.7,1.6-1.6,1.6c-0.9,0-1.6-0.7-1.6-1.6
		C212,370.1,212.8,369.3,213.7,369.3 M213.7,373.4c1.3,0,2.4-1.1,2.4-2.4c0-1.3-1.1-2.4-2.4-2.4c-1.3,0-2.4,1.1-2.4,2.4
		C211.3,372.3,212.4,373.4,213.7,373.4"/>
	<path class="st2" d="M213.7,369.3c0.9,0,1.6,0.7,1.6,1.6c0,0.9-0.7,1.6-1.6,1.6c-0.9,0-1.6-0.7-1.6-1.6
		C212,370.1,212.8,369.3,213.7,369.3z M213.7,373.4c1.3,0,2.4-1.1,2.4-2.4c0-1.3-1.1-2.4-2.4-2.4c-1.3,0-2.4,1.1-2.4,2.4
		C211.3,372.3,212.4,373.4,213.7,373.4z"/>
</g>
<g>
	<path class="st2" d="M163.6,367.4c-0.9,0-1.7-0.8-1.7-1.7c0-0.9,0.7-1.7,1.7-1.7c0.9,0,1.7,0.8,1.7,1.7
		C165.2,366.6,164.5,367.4,163.6,367.4z"/>
	<path class="st2" d="M172.5,273.8c7.2,0,13.1,5.9,13.1,13.1V371c0,7.2-5.9,13.1-13.1,13.1h-15.2c-7.2,0-13.1-5.9-13.1-13.1v-84.2
		c0-7.2,5.9-13.1,13.1-13.1H172.5z"/>
	<path class="st2" d="M168.7,281.4c7.2,0,13.1,5.9,13.1,13.1v68.8c0,7.2-5.9,13.1-13.1,13.1h-7.5c-7.2,0-13.1-5.9-13.1-13.1v-68.8
		c0-7.2,5.9-13.1,13.1-13.1H168.7z"/>
	<path class="st2" d="M171.5,290.7c3.6,0,6.6,2.9,6.6,6.6v68.4c0,3.6-2.9,6.6-6.6,6.6h-13.1c-3.6,0-6.6-2.9-6.6-6.6v-68.4
		c0-3.6,2.9-6.6,6.6-6.6H171.5z"/>
</g>
<polygon class="st2" points="140.7,388.5 140.7,388.5 140.7,269.4 189.1,269.4 189.1,388.5 "/>
<rect x="628.1" y="266.5" class="st1" width="14.1" height="48.8"/>
<rect x="628.1" y="266.5" class="st2" width="14.1" height="48.8"/>
<rect x="628.1" y="370.7" class="st1" width="14.1" height="381.9"/>
<rect x="628.1" y="370.7" class="st2" width="14.1" height="381.9"/>
<rect x="449.3" y="390" class="st1" width="182.1" height="6.4"/>
<rect x="449.3" y="390" class="st2" width="182.1" height="6.4"/>
<rect x="258" y="269.4" class="st1" width="7" height="40.3"/>
<rect x="258" y="269.4" class="st2" width="7" height="40.3"/>
<rect x="258" y="350.7" class="st1" width="7" height="64.2"/>
<rect x="258" y="350.7" class="st2" width="7" height="64.2"/>
<rect x="137.6" y="390.1" class="st1" width="120.7" height="7"/>
<rect x="137.6" y="390.1" class="st2" width="120.7" height="7"/>
<rect x="137.6" y="458.1" class="st1" width="148.1" height="7"/>
<rect x="137.6" y="458.1" class="st2" width="148.1" height="7"/>
<rect x="341" y="458.1" class="st1" width="47.7" height="7"/>
<rect x="341" y="458.1" class="st2" width="47.7" height="7"/>
<rect x="378.7" y="653.7" class="st1" width="55.9" height="28.8"/>
<rect x="378.7" y="653.7" class="st2" width="55.9" height="28.8"/>
<rect x="383.7" y="676.2" class="st1" width="55.9" height="6.4"/>
<rect x="383.7" y="676.2" class="st2" width="55.9" height="6.4"/>
<rect x="485" y="676.2" class="st2" width="117" height="6.4"/>
<rect x="491.1" y="653.7" class="st2" width="110.9" height="22.5"/>
<g>
	<path class="st2" d="M490.4,676.8c0,0,0-7-3.2-15.7c-2.7-7.3-8-14.1-8-14.1l-49.5,27.4l1.1,1.7l49.6-27.4"/>
</g>
<rect x="129.7" y="653.7" class="st1" width="70.1" height="28.8"/>
<rect x="143.8" y="653.7" class="st2" width="55.9" height="28.8"/>
<rect x="148.7" y="676.2" class="st1" width="55.9" height="6.4"/>
<rect x="148.7" y="676.2" class="st2" width="55.9" height="6.4"/>
<rect x="250" y="676.2" class="st2" width="117" height="6.4"/>
<rect x="256.2" y="653.7" class="st2" width="110.9" height="22.5"/>
<g>
	<path class="st2" d="M255.5,676.8c0,0,0-7-3.2-15.7c-2.7-7.3-8-14.1-8-14.1l-49.5,27.4l1.1,1.7l49.6-27.4"/>
</g>
<rect x="375.8" y="729" class="st1" width="16.9" height="60.1"/>
<rect x="375.8" y="729" class="st2" width="16.9" height="60.1"/>
</svg>
