<svg xmlns="http://www.w3.org/2000/svg" xmlns:xlink="http://www.w3.org/1999/xlink" xml:space="preserve" id="Слой_1" x="0" y="0" style="enable-background:new 0 0 276 288" version="1.1" viewBox="0 0 276 288"><style>.st1{fill:#39373a}.st2,.st8{fill:none;stroke:#39373a;stroke-width:1.279}.st8{stroke-width:.768}.st15{fill:#39373a}.st15,.st16{clip-path:url(#SVGID_24_)}.st16,.st17{fill:none;stroke:#39373a;stroke-width:.28}.st18{clip-path:url(#SVGID_26_);fill:#39373a}.st19{fill:none;stroke:#39373a;stroke-width:.28}.st19,.st20{clip-path:url(#SVGID_26_)}.st20,.st21{fill:none;stroke:#39373a;stroke-width:.65}.st22,.st23{clip-path:url(#SVGID_28_);fill:#39373a}.st23{fill:none;stroke:#39373a;stroke-width:.271}.st28{clip-path:url(#SVGID_34_);fill:#39373a}</style><switch><g><path d="M24.76 22.72h225.19v176.13H24.76z" style="fill:#f6ccce"/><path d="M135.3 18.09h5.48v23.65h-5.48z" class="st1"/><path d="M135.3 18.09h5.48v23.65h-5.48z" class="st2"/><path d="M250.6 16.61h5.48v234.54h-5.48z" class="st1"/><defs><path id="SVGID_1_" d="M18.99 15.96h237.73v252.17H18.99z"/></defs><clipPath id="SVGID_2_"><use xlink:href="#SVGID_1_" style="overflow:visible"/></clipPath><path d="M250.6 16.61h5.48v234.54h-5.48z" style="clip-path:url(#SVGID_2_);fill:none;stroke:#39373a;stroke-width:1.279"/><path d="M135.3 234.8h5.48v32.69h-5.48z" class="st1"/><defs><path id="SVGID_3_" d="M18.99 15.96h237.73v252.17H18.99z"/></defs><clipPath id="SVGID_4_"><use xlink:href="#SVGID_3_" style="overflow:visible"/></clipPath><path d="M135.3 234.79h5.48v32.69h-5.48z" style="clip-path:url(#SVGID_4_);fill:none;stroke:#39373a;stroke-width:1.279"/><path d="M19.63 21.1h5.48v246.39h-5.48z" class="st1"/><defs><path id="SVGID_5_" d="M18.99 15.96h237.73v252.17H18.99z"/></defs><clipPath id="SVGID_6_"><use xlink:href="#SVGID_5_" style="overflow:visible"/></clipPath><path d="M19.63 21.1h5.48v246.39h-5.48z" style="clip-path:url(#SVGID_6_);fill:none;stroke:#39373a;stroke-width:1.279"/><path d="M135.3 69.49h5.48v142.14h-5.48z" class="st1"/><path d="M135.3 69.49h5.48v142.14h-5.48z" class="st2"/><path d="M122.12 16.6h131.66v5.48H122.12z" class="st1"/><defs><path id="SVGID_7_" d="M18.99 15.96h237.73v252.17H18.99z"/></defs><clipPath id="SVGID_8_"><use xlink:href="#SVGID_7_" style="overflow:visible"/></clipPath><path d="M122.12 16.6h131.66v5.48H122.12z" style="clip-path:url(#SVGID_8_);fill:none;stroke:#39373a;stroke-width:1.279"/><path d="M19.63 16.6h72.45v5.48H19.63z" class="st1"/><defs><path id="SVGID_9_" d="M18.99 15.96h237.73v252.17H18.99z"/></defs><clipPath id="SVGID_10_"><use xlink:href="#SVGID_9_" style="overflow:visible"/></clipPath><path d="M19.63 16.6h72.45v5.48H19.63z" style="clip-path:url(#SVGID_10_);fill:none;stroke:#39373a;stroke-width:1.279"/><path d="M23.55 50.32h60.14v2.46H23.55zm-2 68H84V122H21.55z" class="st1"/><path d="M23.55 50.32h60.14v2.46H23.55z" class="st2"/><path d="M81.42 50.32h2.46V77.7h-2.46z" class="st1"/><path d="M81.42 50.32h2.46V77.7h-2.46z" class="st2"/><path d="M81.42 98.7h2.46v22.25h-2.46z" class="st1"/><path d="M81.42 98.7h2.46v22.25h-2.46z" class="st2"/><path stroke-width=".768" d="m138.976 261.096 113.408-16.445.504 3.473L139.48 264.57z" class="st8"/><path d="M22.59 261.11h115.06v3.51H22.59z" class="st8"/><path d="M146.11 211.62h-41.52v-2.42h2.97v-9.71h38.55z" class="st1"/><path d="M146.11 211.62h-41.52v-2.42h2.97v-9.71h38.55z" class="st2"/><path d="M22.13 211.62h34.88v-2.42h-2.97v-9.71H22.13z" class="st1"/><path d="M22.13 211.62h34.88v-2.42h-2.97v-9.71H22.13z" class="st2"/><path d="M75.71 208.93h58.03v2.95H75.71zm2.72-9.7h58.03v9.66H78.43z" class="st8"/><path d="M254.15 211.62h-28.11v-2.42h2.98v-9.71h25.13z" class="st1"/><path d="M254.15 211.62h-28.11v-2.42h2.98v-9.71h25.13z" class="st2"/><path d="M131.33 211.62h34.88v-2.42h-2.97v-9.71h-31.91z" class="st1"/><path d="M131.33 211.62h34.88v-2.42h-2.97v-9.71h-31.91z" class="st2"/><path d="M184.91 208.93h58.03v2.95h-58.03zm2.72-9.7h58.03v9.66h-58.03z" class="st8"/><path stroke-width=".768" d="m161.877 207.404 21.86-13.012.61 1.022-21.861 13.013z" class="st8"/><defs><path id="SVGID_11_" d="M18.99 15.96h237.73v252.17H18.99z"/></defs><clipPath id="SVGID_12_"><use xlink:href="#SVGID_11_" style="overflow:visible"/></clipPath><path d="M184.48 195.54s1.41 1.92 2.1 6.38c.69 4.46.47 6.85.47 6.85" style="clip-path:url(#SVGID_12_);fill:none;stroke:#39373a;stroke-width:.512"/><path stroke-width=".768" d="m52.674 207.4 21.86-13.013.609 1.022-21.86 13.013z" class="st8"/><defs><path id="SVGID_13_" d="M18.99 15.96h237.73v252.17H18.99z"/></defs><clipPath id="SVGID_14_"><use xlink:href="#SVGID_13_" style="overflow:visible"/></clipPath><path d="M75.28 195.54s1.41 1.92 2.1 6.38c.69 4.46.47 6.85.47 6.85" style="clip-path:url(#SVGID_14_);fill:none;stroke:#39373a;stroke-width:.512"/><path d="m151.83 65.27 1.23-.74-15.65-26.52-1.23.74z" class="st8"/><defs><path id="SVGID_15_" d="M18.99 15.96h237.73v252.17H18.99z"/></defs><clipPath id="SVGID_16_"><use xlink:href="#SVGID_15_" style="overflow:visible"/></clipPath><path d="M153.45 64.63s-3.91 2.84-9.77 3.78c-5.86.94-9 .64-9 .64" style="clip-path:url(#SVGID_16_);fill:none;stroke:#39373a;stroke-width:.512"/><path d="m117.88 33.59-.74 1.23-26.51-15.65.73-1.23z" class="st8"/><defs><path id="SVGID_17_" d="M18.99 15.96h237.73v252.17H18.99z"/></defs><clipPath id="SVGID_18_"><use xlink:href="#SVGID_17_" style="overflow:visible"/></clipPath><path d="M117.24 35.21s2.84-3.9 3.78-9.77c.94-5.86.64-9.01.64-9.01" style="clip-path:url(#SVGID_18_);fill:none;stroke:#39373a;stroke-width:.512"/><path d="m92.22 81.69 1.23.74-10.07 17.15-1.23-.74z" class="st8"/><defs><path id="SVGID_19_" d="M18.99 15.96h237.73v252.17H18.99z"/></defs><clipPath id="SVGID_20_"><use xlink:href="#SVGID_19_" style="overflow:visible"/></clipPath><path d="M93.84 82.33s-3.91-2.84-9.77-3.78c-1.17-.19-2.23-.33-3.18-.43" style="clip-path:url(#SVGID_20_);fill:none;stroke:#39373a;stroke-width:.512"/><path d="M82.47 110.39h13.24v2.46H82.47z" class="st1"/><path d="M82.47 110.39h13.24v2.46H82.47z" class="st2"/><path d="M116.88 110.39h22.39v2.46h-22.39z" class="st1"/><path d="M116.88 110.39h22.39v2.46h-22.39z" class="st2"/><path d="m99.55 121.23.74 1.24 17.14-10.08-.73-1.23z" class="st8"/><defs><path id="SVGID_21_" d="M18.99 15.96h237.73v252.17H18.99z"/></defs><clipPath id="SVGID_22_"><use xlink:href="#SVGID_21_" style="overflow:visible"/></clipPath><path d="M100.19 122.86s-2.84-3.9-3.78-9.77c-.19-1.17-.33-2.23-.43-3.18" style="clip-path:url(#SVGID_22_);fill:none;stroke:#39373a;stroke-width:.512"/><path d="M125.18 83.35h8.11v18.59h-8.11zm0 20.73h8.11v4.71h-8.11zm-1.3-22.12v28.61m-.39-28.61h11.17m-11.17 28.23h11.17M25.9 24.4h8.11v17.23H25.9zm0 19.27h8.11v4.32H25.9zm9.42-20.59v26.6m.38-26.58H24.54M35.7 49.3H24.54" class="st8"/><defs><path id="SVGID_23_" d="M18.99 15.96h237.73v252.17H18.99z"/></defs><clipPath id="SVGID_24_"><use xlink:href="#SVGID_23_" style="overflow:visible"/></clipPath><path d="M48.53 104.31c0-3.15-2.57-5.72-5.73-5.72h-8.29c-.54 0-.99.44-.99.99v9.47c0 .54.44.99.99.99h8.29c3.16 0 5.73-2.57 5.73-5.73m-15.39 4.74v-9.47c0-.76.62-1.38 1.38-1.38h8.29c3.37 0 6.12 2.74 6.12 6.12 0 3.37-2.74 6.12-6.12 6.12h-8.29c-.76-.01-1.38-.63-1.38-1.39" class="st15"/><path d="M48.53 104.31c0-3.15-2.57-5.72-5.73-5.72h-8.29c-.54 0-.99.44-.99.99v9.47c0 .54.44.99.99.99h8.29c3.16 0 5.73-2.57 5.73-5.73zm-15.39 4.74v-9.47c0-.76.62-1.38 1.38-1.38h8.29c3.37 0 6.12 2.74 6.12 6.12 0 3.37-2.74 6.12-6.12 6.12h-8.29c-.76-.01-1.38-.63-1.38-1.39z" class="st16"/><path d="M36.29 100.21v8.21c0 .06.05.1.1.1h6.25c2.31 0 4.2-1.89 4.2-4.2 0-2.31-1.89-4.2-4.2-4.2h-6.25c-.05-.01-.1.04-.1.09z" class="st16"/><path d="M36.49 100.31v8.01h6.15c2.21 0 4.01-1.8 4.01-4.01s-1.8-4.01-4.01-4.01h-6.15zm-.39 8.11v-8.21c0-.16.13-.3.29-.3h6.25a4.4 4.4 0 0 1 0 8.8h-6.25a.29.29 0 0 1-.29-.29" class="st15"/><path d="M36.49 100.31v8.01h6.15c2.21 0 4.01-1.8 4.01-4.01s-1.8-4.01-4.01-4.01h-6.15zm-.39 8.11v-8.21c0-.16.13-.3.29-.3h6.25a4.4 4.4 0 0 1 0 8.8h-6.25a.29.29 0 0 1-.29-.29z" class="st16"/><path d="M42.65 104.31c0-.6-.49-1.08-1.08-1.08-.6 0-1.08.49-1.08 1.08 0 .6.49 1.08 1.08 1.08.6.01 1.08-.48 1.08-1.08m-2.56 0c0-.81.66-1.47 1.47-1.47.81 0 1.47.66 1.47 1.47 0 .81-.66 1.48-1.47 1.48-.8 0-1.47-.66-1.47-1.48" class="st15"/><path d="M42.65 104.31c0-.6-.49-1.08-1.08-1.08-.6 0-1.08.49-1.08 1.08 0 .6.49 1.08 1.08 1.08.6.01 1.08-.48 1.08-1.08zm-2.56 0c0-.81.66-1.47 1.47-1.47.81 0 1.47.66 1.47 1.47 0 .81-.66 1.48-1.47 1.48-.8 0-1.47-.66-1.47-1.48z" class="st16"/><path d="m37.09 101.12.23-.32 2.63 1.97-.23.31z" class="st1"/><path d="m37.09 101.12.23-.32 2.63 1.97-.23.31z" class="st17"/><path d="m37.085 107.445 2.626-1.966.233.313-2.626 1.965z" class="st1"/><path d="m37.085 107.445 2.626-1.966.233.313-2.626 1.965z" class="st17"/><defs><path id="SVGID_25_" d="M18.99 15.96h237.73v252.17H18.99z"/></defs><clipPath id="SVGID_26_"><use xlink:href="#SVGID_25_" style="overflow:visible"/></clipPath><path d="M33.12 100.36c0-.87-.71-1.59-1.59-1.59h-2.16c-.88 0-1.59.71-1.59 1.59v7.9c0 .87.71 1.59 1.59 1.59h2.16c.87 0 1.59-.71 1.59-1.59v-7.9zm-5.73 7.9v-7.9c0-1.09.89-1.98 1.98-1.98h2.16c1.09 0 1.98.89 1.98 1.98v7.9c0 1.09-.89 1.98-1.98 1.98h-2.16c-1.09 0-1.98-.88-1.98-1.98" class="st18"/><path d="M33.12 100.36c0-.87-.71-1.59-1.59-1.59h-2.16c-.88 0-1.59.71-1.59 1.59v7.9c0 .87.71 1.59 1.59 1.59h2.16c.87 0 1.59-.71 1.59-1.59v-7.9zm-5.73 7.9v-7.9c0-1.09.89-1.98 1.98-1.98h2.16c1.09 0 1.98.89 1.98 1.98v7.9c0 1.09-.89 1.98-1.98 1.98h-2.16c-1.09 0-1.98-.88-1.98-1.98z" class="st19"/><path d="M31.06 104.31c0-.34-.27-.61-.61-.61-.34 0-.61.27-.61.61 0 .34.27.61.61.61a.6.6 0 0 0 .61-.61m-1.62 0c0-.55.45-1.01 1.01-1.01s1.01.45 1.01 1.01-.45 1.01-1.01 1.01c-.55 0-1.01-.45-1.01-1.01" class="st18"/><path d="M31.06 104.31c0-.34-.27-.61-.61-.61-.34 0-.61.27-.61.61 0 .34.27.61.61.61a.6.6 0 0 0 .61-.61zm-1.62 0c0-.55.45-1.01 1.01-1.01s1.01.45 1.01 1.01-.45 1.01-1.01 1.01c-.55 0-1.01-.45-1.01-1.01z" class="st19"/><path d="M77.79 60.7c0-3.39-2.75-6.14-6.14-6.14h-36.7c-3.39 0-6.14 2.75-6.14 6.14v8.24c0 3.39 2.75 6.14 6.14 6.14h36.7c3.39 0 6.14-2.75 6.14-6.14V60.7z" class="st20"/><path d="M74.39 62.62c0-3.39-2.75-6.14-6.14-6.14H38.36c-3.39 0-6.14 2.75-6.14 6.14v4.4c0 3.39 2.75 6.14 6.14 6.14h29.89c3.39 0 6.14-2.75 6.14-6.14v-4.4z" class="st20"/><path d="M70.27 61.39c0-1.7-1.38-3.07-3.07-3.07H37.16a3.07 3.07 0 0 0-3.07 3.07v6.85c0 1.7 1.38 3.07 3.07 3.07H67.2c1.7 0 3.07-1.38 3.07-3.07v-6.85z" class="st20"/><path d="M37.76 64.82c0 .5.41.91.91.91s.91-.41.91-.91-.41-.91-.91-.91-.91.41-.91.91z" class="st20"/><path d="M81.83 76.24H24.76" class="st21"/><defs><path id="SVGID_27_" d="M18.99 15.96h237.73v252.17H18.99z"/></defs><clipPath id="SVGID_28_"><use xlink:href="#SVGID_27_" style="overflow:visible"/></clipPath><path d="M39.1 84.69a5.89 5.89 0 0 0-5.88-5.88h-6.24c-.49 0-.89.4-.89.89v13.28c0 .49.4.89.89.89h6.24a5.89 5.89 0 0 0 5.88-5.88v-3.3zm-13.33 8.3V79.7c0-.68.55-1.23 1.22-1.23h6.24c3.42 0 6.21 2.79 6.21 6.21V88c0 3.42-2.78 6.21-6.21 6.21h-6.24c-.67 0-1.22-.55-1.22-1.22" class="st22"/><path d="M39.1 84.69a5.89 5.89 0 0 0-5.88-5.88h-6.24c-.49 0-.89.4-.89.89v13.28c0 .49.4.89.89.89h6.24a5.89 5.89 0 0 0 5.88-5.88v-3.3zm-13.33 8.3V79.7c0-.68.55-1.23 1.22-1.23h6.24c3.42 0 6.21 2.79 6.21 6.21V88c0 3.42-2.78 6.21-6.21 6.21h-6.24c-.67 0-1.22-.55-1.22-1.22z" class="st23"/><path d="M37.63 84.69c0-2.43-1.98-4.4-4.4-4.4h-3.64a.77.77 0 0 0-.77.77v10.59c0 .42.35.77.77.77h3.64c2.43 0 4.4-1.98 4.4-4.4v-3.33zm-9.14 6.95V81.05c0-.61.49-1.1 1.1-1.1h3.64c2.61 0 4.74 2.12 4.74 4.73V88c0 2.61-2.12 4.74-4.74 4.74h-3.64c-.61 0-1.1-.5-1.1-1.1" class="st22"/><path d="M37.63 84.69c0-2.43-1.98-4.4-4.4-4.4h-3.64a.77.77 0 0 0-.77.77v10.59c0 .42.35.77.77.77h3.64c2.43 0 4.4-1.98 4.4-4.4v-3.33zm-9.14 6.95V81.05c0-.61.49-1.1 1.1-1.1h3.64c2.61 0 4.74 2.12 4.74 4.73V88c0 2.61-2.12 4.74-4.74 4.74h-3.64c-.61 0-1.1-.5-1.1-1.1z" class="st23"/><path d="M34.54 86.34c0-.4-.33-.73-.73-.73-.4 0-.73.33-.73.73 0 .4.33.73.73.73.41 0 .73-.32.73-.73m-1.78 0c0-.58.47-1.06 1.06-1.06.58 0 1.06.48 1.06 1.06 0 .59-.47 1.06-1.06 1.06-.59 0-1.06-.47-1.06-1.06" class="st22"/><path d="M34.54 86.34c0-.4-.33-.73-.73-.73-.4 0-.73.33-.73.73 0 .4.33.73.73.73.41 0 .73-.32.73-.73zm-1.78 0c0-.58.47-1.06 1.06-1.06.58 0 1.06.48 1.06 1.06 0 .59-.47 1.06-1.06 1.06-.59 0-1.06-.47-1.06-1.06z" class="st23"/><path d="M26.17 139.66h18.18v-18.18H26.17v18.18zm-.4-18.58h18.98v18.98H25.77v-18.98z" class="st1"/><path d="M26.17 139.66h18.18v-18.18H26.17v18.18zm-.4-18.58h18.98v18.98H25.77v-18.98z" class="st17"/><defs><path id="SVGID_29_" d="M18.99 15.96h237.73v252.17H18.99z"/></defs><clipPath id="SVGID_30_"><use xlink:href="#SVGID_29_" style="overflow:visible"/></clipPath><path d="M42.69 124.21c0-.45-.36-.81-.81-.81h-9.55c-.45 0-.82.37-.82.81v12.73c0 .45.37.81.82.81h9.55c.45 0 .81-.36.81-.81v-12.73zm-11.58 12.73v-12.73c0-.67.55-1.22 1.22-1.22h9.55c.67 0 1.22.55 1.22 1.22v12.73c0 .67-.54 1.22-1.22 1.22h-9.55c-.67-.01-1.22-.55-1.22-1.22" style="clip-path:url(#SVGID_30_);fill:#39373a"/><path d="M42.69 124.21c0-.45-.36-.81-.81-.81h-9.55c-.45 0-.82.37-.82.81v12.73c0 .45.37.81.82.81h9.55c.45 0 .81-.36.81-.81v-12.73zm-11.58 12.73v-12.73c0-.67.55-1.22 1.22-1.22h9.55c.67 0 1.22.55 1.22 1.22v12.73c0 .67-.54 1.22-1.22 1.22h-9.55c-.67-.01-1.22-.55-1.22-1.22z" style="clip-path:url(#SVGID_30_);fill:none;stroke:#39373a;stroke-width:.28"/><path d="M32.93 136.34h8.36v-11.53h-8.36v11.53zm-.41-11.94h9.16v12.34h-9.16V124.4z" class="st1"/><path d="M32.93 136.34h8.36v-11.53h-8.36v11.53zm-.41-11.94h9.16v12.34h-9.16V124.4z" class="st17"/><defs><path id="SVGID_31_" d="M18.99 15.96h237.73v252.17H18.99z"/></defs><clipPath id="SVGID_32_"><use xlink:href="#SVGID_31_" style="overflow:visible"/></clipPath><path d="M38.72 130.57a1.05 1.05 0 1 0-1.05 1.05c.58.01 1.05-.47 1.05-1.05m-2.51 0c0-.8.65-1.46 1.46-1.46.8 0 1.46.65 1.46 1.46 0 .8-.65 1.46-1.46 1.46-.8 0-1.46-.66-1.46-1.46" style="clip-path:url(#SVGID_32_);fill:#39373a"/><path d="M38.72 130.57a1.05 1.05 0 1 0-1.05 1.05c.58.01 1.05-.47 1.05-1.05zm-2.51 0c0-.8.65-1.46 1.46-1.46.8 0 1.46.65 1.46 1.46 0 .8-.65 1.46-1.46 1.46-.8 0-1.46-.66-1.46-1.46z" style="clip-path:url(#SVGID_32_);fill:none;stroke:#39373a;stroke-width:.28"/><path d="M66.04 98.38h15.74v21.25H66.04z" class="st21"/><defs><path id="SVGID_33_" d="M18.99 15.96h237.73v252.17H18.99z"/></defs><clipPath id="SVGID_34_"><use xlink:href="#SVGID_33_" style="overflow:visible"/></clipPath><path d="m114.48 74.12.05-1.04h-3.25l-.14 2.33c-.01.24.16.44.41.47l.81.1c.7.06.95.16.93.65-.03.42-.18.59-.86.59-.37 0-.85-.02-1.35-.06l-.13 1.06c.66.1 1.33.15 1.84.15 1.47 0 1.89-.76 1.89-1.69.01-.84-.31-1.58-1.52-1.72l-.86-.11.05-.72h2.13zM109.61 77c-.36 0-.47.11-.47.47v.33c0 .36.11.47.47.47h.32c.36 0 .47-.11.47-.47v-.33c0-.36-.11-.47-.47-.47h-.32zm-1.25-2.88.05-1.04h-3.25l-.13 2.33c-.01.24.16.44.41.47l.81.1c.7.06.95.16.93.65-.03.42-.18.59-.86.59-.37 0-.85-.02-1.35-.06l-.13 1.06c.66.1 1.33.15 1.84.15 1.47 0 1.89-.76 1.89-1.69.01-.84-.31-1.58-1.52-1.72l-.86-.11.05-.72h2.12zm18.91-6.93h-.53c-.35 0-.42-.09-.42-.47 0-.28.07-.35.42-.35h.53v.82zm-1.47.47c-.23.02-.62.08-.72.41l-.29 1.18h1.4l.23-1c.03-.17.11-.22.35-.22h.5v1.22h1.32v-3.77c-.47-.05-.87-.06-1.89-.06-1.38 0-1.72.26-1.72 1.2 0 .45.18.88.81 1.01v.03zm-3.98.29c0-.17.09-.29.32-.29h.78v.47c-.25.16-.51.26-.73.26-.25 0-.37-.11-.37-.3v-.14zm-1.02-1.47c.62-.04 1.23-.05 1.6-.05.39 0 .51.11.52.43v.09h-1.24c-.74 0-1.19.36-1.19.95v.38c0 .7.56 1.07 1.26 1.07.65 0 1.08-.33 1.33-.65l.13.55h1.09v-2.38c0-1.11-.56-1.46-1.57-1.46-.55 0-1.49.08-2.05.19l.12.88zm-2.09.8c.87-.11.84-.23 1.33-1.77h-1.35c-.39 1.23-.44 1.36-.81 1.36h-.23c.03-.16.05-.32.05-.47v-.9h-1.19v.9c0 .15.02.31.05.47h-.24c-.38 0-.42-.13-.82-1.36h-1.34c.5 1.54.46 1.65 1.33 1.77v.04c-.9.13-.92.19-1.45 1.93h1.38c.47-1.41.51-1.5.83-1.51h.3c-.03.11-.04.23-.04.32v1.19h1.2v-1.19c0-.09-.01-.2-.04-.32h.28c.34.01.37.09.83 1.51h1.39c-.53-1.74-.56-1.81-1.45-1.93v-.04zm-6.99-.91c.46 0 .58.19.58 1.02 0 .82-.12 1-.58 1-.47 0-.59-.18-.59-1 0-.84.12-1.02.59-1.02m0-.97c-1.47 0-2.02.53-2.02 1.98 0 1.44.54 1.96 2.02 1.96 1.47 0 2.01-.52 2.01-1.96s-.54-1.98-2.01-1.98m-3.55 3.85h1.38l-1.11-1.91 1.02-1.83h-1.36l-.74 1.4-.74-1.4h-1.36l1.02 1.83-1.11 1.91h1.38l.81-1.5.81 1.5zm-3.43.01v-3.75h-1.19l-1.19 1.79c-.11.17-.21.34-.29.55h-.03c.03-.22.05-.38.05-.58v-1.76h-1.21v3.74h1.19l1.17-1.71c.11-.16.23-.42.3-.62h.03c-.03.25-.05.44-.05.66v1.68h1.22zm-7.12-2.59c.24-.14.42-.23.7-.23.35 0 .49.14.49.99 0 .86-.15.99-.53.99-.27 0-.45-.07-.66-.13v-1.62zm-.26-1.16h-1.1v5.13h1.36v-.82c.01-.26 0-.55-.02-.81.32.25.75.34 1.2.34.93 0 1.42-.41 1.42-1.92 0-1.27-.38-2-1.32-2-.6 0-1.17.27-1.43.62l-.11-.54zm-1.98-1.45h-4.35v5.19h1.41v-4.23h1.53v4.23h1.41v-5.19zM64.16 89.45h-.62V87.3h-1.06l-.23.81v1.33h-1.02c-.12 0-.2-.08-.14-.22l1.14-2.94h-1.32l-1.29 3.3c-.17.41.11.8.55.8h2.08v1.09h1.29v-1.09h.02l.6-.14v-.79zm-5.81.75c-.36 0-.47.11-.47.47V91c0 .36.11.47.47.47h.32c.36 0 .47-.11.47-.47v-.33c0-.36-.11-.47-.47-.47h-.32zm-4.69-2.9c.38-.01.91-.01 1.44-.01.53 0 .68.07.68.49.01.35-.04.57-.61.57h-.99v.9l.99-.01c.56-.01.68.16.68.61 0 .53-.2.62-.86.62-.45 0-.78-.01-1.44-.04l-.05 1.01c.59.08 1.24.14 1.87.14 1.38 0 1.88-.45 1.86-1.55-.01-.79-.23-1.19-.96-1.3v-.03c.67-.11.83-.57.83-1.31 0-.93-.48-1.21-1.75-1.21-.57 0-1.15.04-1.74.14l.05.98zm148.37 59.58c.73 0 .92.31.92 2.03s-.2 2.03-.92 2.03c-.7 0-.89-.31-.89-2.03s.19-2.03.89-2.03m.01-1.35c-1.97 0-2.64.85-2.64 3.38s.68 3.38 2.64 3.38c1.97 0 2.66-.85 2.66-3.38s-.69-3.38-2.66-3.38m-4.42 5.03c-.45 0-.59.14-.59.59v.41c0 .45.14.59.59.59h.4c.45 0 .59-.14.59-.59v-.41c0-.45-.14-.59-.59-.59h-.4zm-4.65-2.67c-.01-.77.07-1.07.74-1.07.73 0 .81.26.82 1.69-.31.18-.52.24-.82.24-.6 0-.75-.19-.74-.86m-1.39 4.19c.75.19 1.45.19 1.8.19 2.07 0 2.83-.49 2.83-3.42 0-2.62-.43-3.29-2.48-3.29-1.89 0-2.43.71-2.42 2.38 0 1.18.41 2.01 1.86 2.01.58 0 .98-.09 1.34-.38-.05 1.11-.27 1.43-1.13 1.43-.84 0-1.15 0-1.72-.01l-.08 1.09zm-1.35.08v-6.49h-1.76l-1.65.64.21 1.12 1.51-.34c-.06.26-.07.52-.07.77v4.3h1.76zm39.03-12.91c0-.22.11-.36.4-.37h.98v.58c-.31.2-.64.32-.91.32-.31 0-.46-.13-.46-.38v-.15zm-1.28-1.84c.78-.05 1.53-.07 2-.07.49 0 .64.14.65.54v.11h-1.55c-.93 0-1.49.45-1.49 1.19v.47c0 .88.71 1.34 1.57 1.34.81 0 1.35-.41 1.66-.81l.16.69h1.36v-2.98c0-1.39-.7-1.83-1.96-1.83-.69 0-1.86.1-2.56.24l.16 1.11zm-.76.07v-1.29h-4.66v1.29h1.49v3.39h1.7v-3.39h1.47zm-8.36 1.77c0-.22.11-.36.39-.37h.98v.58c-.31.2-.64.32-.91.32-.31 0-.46-.13-.46-.38v-.15zm-1.27-1.84c.78-.05 1.53-.07 2-.07.49 0 .64.14.65.54v.11h-1.55c-.93 0-1.49.45-1.49 1.19v.47c0 .88.7 1.34 1.57 1.34.81 0 1.35-.41 1.67-.81l.16.69h1.36v-2.98c0-1.39-.7-1.83-1.96-1.83-.69 0-1.86.1-2.56.24l.15 1.11zm-1.18-1.22h-1.67v1.65h-1.43v-1.65h-1.68v4.67h1.68v-1.89h1.43v1.89h1.67v-4.67zm-7.91 0c-.36 0-.58.18-.64.53l-.4 1.74c-.05.24-.06.46-.1.7h-.08c-.03-.24-.04-.46-.09-.7l-.41-1.74c-.06-.35-.28-.53-.63-.53h-1.45c-.39 0-.58.2-.59.58l-.11 4.09h1.54l.1-3.43h.11l.56 2.27c.07.35.29.52.65.52h.76c.37 0 .57-.17.64-.52l.56-2.27h.11l.12 3.43h1.54l-.12-4.09c-.01-.39-.2-.58-.58-.58h-1.49zm-7.77 1.07c.57 0 .72.24.72 1.27s-.15 1.25-.72 1.25c-.58 0-.73-.23-.73-1.25-.01-1.03.15-1.27.73-1.27m0-1.2c-1.84 0-2.52.67-2.52 2.47 0 1.8.68 2.45 2.52 2.45 1.83 0 2.51-.65 2.51-2.45 0-1.8-.68-2.47-2.51-2.47m-4.69 2.35c1.09-.16 1.02-.25 1.62-2.22h-1.72c-.4 1.56-.43 1.69-1.1 1.69h-.21c.04-.2.07-.4.07-.59v-1.1H193v4.67h1.7v-1.48c0-.11-.02-.24-.06-.38h.38c.5.01.54.13 1.03 1.85h1.78c-.65-2.21-.67-2.25-1.78-2.41v-.03zm-7.72-.11h-.67c-.44 0-.53-.11-.53-.58 0-.35.08-.43.53-.43h.67v1.01zm-1.83.58c-.28.03-.77.1-.89.51l-.37 1.48h1.75l.29-1.25c.04-.22.14-.27.43-.27h.62v1.52h1.65v-4.71c-.58-.07-1.08-.07-2.36-.07-1.72 0-2.14.33-2.14 1.5 0 .57.23 1.1 1.01 1.26v.03zm-4.98.37c0-.22.11-.36.4-.37h.98v.58c-.31.2-.64.32-.91.32-.31 0-.46-.13-.46-.38v-.15zm-1.28-1.84c.78-.05 1.53-.07 2-.07.49 0 .64.14.65.54v.11h-1.55c-.93 0-1.49.45-1.49 1.19v.47c0 .88.71 1.34 1.57 1.34.81 0 1.35-.41 1.67-.81l.16.69h1.36v-2.98c0-1.39-.7-1.83-1.96-1.83-.69 0-1.86.1-2.56.24l.15 1.11zm-1.17-1.22h-2.82c-.81 0-1.22.41-1.29 1.2-.07.86-.15 1.51-.24 1.84-.1.38-.38.37-.79.43l.17 1.25c1.03.17 1.96-.07 2.15-1.22.09-.45.2-1.24.28-1.97.03-.27.16-.4.44-.4h.4v3.54h1.7v-4.67zm-5.72 4.69v-4.68h-1.49l-1.49 2.24c-.14.22-.26.42-.36.69h-.04c.04-.27.07-.48.07-.72v-2.2h-1.51v4.67h1.49l1.46-2.13c.13-.21.29-.53.38-.78h.04c-.04.31-.07.56-.07.83v2.1h1.52zm-7.6-3.43c1.26-.17 1.29-.75 1.97-3.07h-1.79c-.58 1.95-.7 2.53-1.33 2.53h-.3c.05-.27.07-.55.07-.81v-1.72h-1.68v1.72c0 .26.03.54.09.81h-.33c-.62 0-.74-.58-1.32-2.53h-1.79c.69 2.32.71 2.91 1.97 3.07v.06c-1.31.19-1.39.7-2.15 3.36h1.84c.72-2.35.8-2.77 1.43-2.77h.33c-.05.21-.08.42-.08.6v2.17h1.68v-2.17c0-.18-.03-.4-.07-.6h.31c.66 0 .73.42 1.44 2.77h1.85c-.76-2.66-.85-3.17-2.16-3.36v-.06zm-80.25 28.19c.72 0 .87.16.87.85 0 .65-.15.81-.88.81-.74 0-.9-.16-.9-.81-.01-.67.15-.85.91-.85m-.01-2.62c.65 0 .8.14.8.78 0 .57-.12.72-.78.72-.67 0-.83-.13-.83-.72 0-.64.15-.78.81-.78m-1.4 2.08c-.93.09-1.16.87-1.16 1.73 0 1.26.53 1.76 2.55 1.75 2.06-.02 2.55-.49 2.55-1.75 0-.87-.22-1.65-1.15-1.73v-.04c.71-.08.99-.79.99-1.49 0-1.21-.41-1.74-2.39-1.74-1.96 0-2.38.53-2.38 1.74 0 .7.28 1.41.99 1.49v.04zm-2.97 1.75c-.45 0-.59.14-.59.59v.41c0 .45.14.59.59.59h.4c.45 0 .59-.14.59-.59v-.41c0-.45-.14-.59-.59-.59h-.4zm-3.93-1.21c.72 0 .87.16.87.85 0 .65-.15.81-.88.81s-.9-.16-.9-.81c0-.67.16-.85.91-.85m-.01-2.62c.65 0 .8.14.8.78 0 .57-.12.72-.78.72-.67 0-.83-.13-.83-.72 0-.64.15-.78.81-.78m-1.4 2.08c-.93.09-1.16.87-1.16 1.73 0 1.26.53 1.76 2.55 1.75 2.06-.02 2.55-.49 2.55-1.75 0-.87-.22-1.65-1.15-1.73v-.04c.71-.08.99-.79.99-1.49 0-1.21-.41-1.74-2.39-1.74-1.96 0-2.38.53-2.38 1.74 0 .7.28 1.41.99 1.49v.04zm17.56-10.51h-.67c-.44 0-.53-.11-.53-.58 0-.35.08-.43.53-.43h.67v1.01zm-1.83.58c-.28.03-.77.1-.89.51l-.37 1.48h1.75l.29-1.25c.04-.22.14-.27.43-.27h.62v1.52h1.65v-4.71c-.58-.07-1.08-.07-2.36-.07-1.72 0-2.14.33-2.14 1.5 0 .57.23 1.1 1.01 1.26v.03zm-1.94-2.69h-1.67v1.65h-1.43v-1.65h-1.68v4.67h1.68v-1.89h1.43v1.89h1.67v-4.67zm-7.05 4.68h1.72l-1.39-2.39 1.28-2.29h-1.7l-.92 1.75-.92-1.75h-1.7l1.28 2.29-1.39 2.39h1.72l1.01-1.88 1.01 1.88zm-3.81-4.68h-1.83l-.69 2.78c-.05.22-.12.53-.2.8h-.08c-.04-.27-.08-.54-.13-.8l-.71-2.78h-1.82l1.45 4.27c.08.24.28.4.55.4h.31c-.12.24-.3.45-.49.56-.3.17-.71.22-1.31.2l-.14 1.11c.67.12 1.37.13 1.93-.09.72-.26 1.26-.72 1.6-1.82l1.56-4.63zm-7.67 1.26c1.29-.17 1.33-.75 2.04-3.07h-1.8c-.51 1.95-.63 2.53-1.54 2.53h-.31c.05-.26.08-.55.08-.81v-1.72h-1.76v6.49h1.76v-2.17c0-.18-.03-.4-.08-.6h.34c.9 0 .98.42 1.65 2.77h1.84c-.8-2.66-.88-3.17-2.22-3.36v-.06zm144.38-30.11h-1.76v-6.13h-3.03l-.65 2.32v3.81h-2.9c-.34 0-.56-.21-.39-.62l3.25-8.41h-3.76l-3.7 9.42c-.47 1.16.32 2.3 1.57 2.3h5.93v3.12h3.68v-3.12h.04l1.72-.39v-2.3zm-16.62 2.15c-1.03 0-1.35.32-1.35 1.35v.95c0 1.03.32 1.35 1.35 1.35h.92c1.03 0 1.36-.32 1.36-1.35v-.95c0-1.03-.32-1.35-1.36-1.35h-.92zm-4 3.66V114.6h-4.02l-3.76 1.46.47 2.56 3.44-.77c-.13.6-.15 1.18-.15 1.76v9.83h4.02zm-8.04-5.81h-1.76v-6.13h-3.03l-.64 2.32v3.81h-2.9c-.34 0-.56-.21-.39-.62l3.25-8.41h-3.76l-3.7 9.42c-.47 1.16.32 2.3 1.57 2.3h5.93v3.12H185v-3.12h.04l1.72-.39v-2.3z" class="st28"/><circle cx="195.92" cy="97.17" r="13.18" style="clip-path:url(#SVGID_34_);fill:none;stroke:#39373a;stroke-width:.904"/><path d="m199.01 98.07 2.64 4.8h3.39l-2.77-4.74c-.24-.44-.73-.88-1.04-1.06v-.05c.31-.2.65-.51.91-.96l2.72-4.43h-3.29L199 96.01h-.76c.1-.47.13-.94.13-1.4v-2.98h-3.04v11.23h3.04V99.1c0-.31-.05-.68-.13-1.04h.77zm-6.01 4.8V91.64h-3.04l-2.85 1.11.36 1.94 2.6-.59c-.1.46-.11.9-.11 1.34v7.44H193zM96.91 232.32c1.03.44 1.41 1.8 1.41 3.76 0 1.93-.38 3.29-1.41 3.77l.2.72c1.98-.56 2.87-1.98 2.87-4.49 0-2.53-.89-3.94-2.87-4.5l-.2.74zm-4.96.22.08 1.42h2.82c-.15.23-.24.46-.32.69l-1.56 4.38h1.73l1.96-5.62c.16-.48-.15-.86-.66-.86h-4.05zm-1.3 4.89c-.45 0-.59.14-.59.59v.41c0 .45.14.59.59.59h.4c.45 0 .59-.14.59-.59v-.41c0-.45-.14-.59-.59-.59h-.4zm-1.21-.94h-.77v-2.68h-1.33l-.28 1.02v1.66h-1.27c-.15 0-.24-.09-.17-.27l1.42-3.68h-1.65l-1.61 4.12c-.21.51.14 1.01.68 1.01h2.6v1.36h1.61v-1.36h.02l.75-.17v-1.01zm-5.79-4.89c-1.97.55-2.87 1.97-2.87 4.5 0 2.51.89 3.92 2.87 4.49l.2-.72c-1.03-.48-1.41-1.84-1.41-3.77 0-1.97.38-3.32 1.41-3.76l-.2-.74zm-7.39 4.89h-.77v-2.68h-1.32l-.28 1.02v1.66h-1.27c-.15 0-.25-.09-.17-.27l1.42-3.68h-1.65l-1.61 4.12c-.21.51.14 1.01.69 1.01h2.6v1.36h1.61v-1.36h.02l.75-.17v-1.01zm-7.27.94c-.45 0-.59.14-.59.59v.41c0 .45.14.59.59.59h.4c.45 0 .59-.14.59-.59v-.41c0-.45-.14-.59-.59-.59h-.4zm-4.65-2.66c-.01-.77.07-1.07.74-1.07.73 0 .81.25.82 1.68-.31.18-.52.25-.82.25-.6 0-.75-.19-.74-.86m-1.39 4.18c.75.19 1.45.19 1.8.19 2.07 0 2.83-.49 2.83-3.42 0-2.62-.43-3.29-2.48-3.29-1.89 0-2.43.71-2.42 2.38 0 1.19.41 2.01 1.86 2.01.58 0 .98-.09 1.34-.39-.05 1.11-.27 1.43-1.13 1.43-.84 0-1.15 0-1.72-.01l-.08 1.1z" class="st28"/></g></switch></svg>