<svg xmlns="http://www.w3.org/2000/svg" xmlns:xlink="http://www.w3.org/1999/xlink" xml:space="preserve" id="Слой_1" x="0" y="0" style="enable-background:new 0 0 350 259" version="1.1" viewBox="0 0 350 259"><style>.st1{fill:#3c3c3b}.st3{fill:none;stroke:#3c3c3b;stroke-width:.7}.st4{clip-path:url(#SVGID_2_);fill:#3c3c3b}.st6{stroke:#3c3c3b;stroke-width:.6}.st6,.st9{fill:none}.st10,.st15{clip-path:url(#SVGID_8_);fill:none;stroke:#3c3c3b;stroke-width:.7}.st15{clip-path:url(#SVGID_14_)}.st17,.st18{clip-path:url(#SVGID_16_)}.st17{fill:none;stroke:#3c3c3b;stroke-width:.25}.st18{fill:#3c3c3b}.st19{fill:none;stroke:#3c3c3b;stroke-width:.25}.st20,.st21{clip-path:url(#SVGID_18_);fill:#3c3c3b}.st21{fill:none;stroke:#3c3c3b;stroke-width:.25}</style><path d="M.4 0h350v259H.4z" style="fill:#fff"/><path d="M223.4 186.8h13.4v40.3h-13.4z" class="st1"/><path d="M24 22.8h301.7v154.7H24z" style="fill:#f9cfd1"/><path d="M121.9 64.7h4.8v118.5h-4.8zm0 144h4.8v32.7h-4.8zM19.9 17.5h4.8v223.9h-4.8zm102 1.1h4.8v21.2h-4.8zm181.9 168.5h27.1v4h-27.1z" class="st1"/><path d="M305.3 177.5H331V188h-25.7zm-87.6 9.6h32v4h-32z" class="st1"/><path d="M217.7 177.5h30.5V188h-30.5zm-100 9.6h32v4h-32z" class="st1"/><path d="M117.7 177.5h30.5V188h-30.5zm-97.1 9.6h32v4h-32z" class="st1"/><path d="M20.6 177.5h30.5V188H20.6zm179 9.6h32v4h-32z" class="st1"/><path d="M201.1 177.5h30.5V188h-30.5zm-107.7 9.6h32v4h-32z" class="st1"/><path d="M94.8 177.5h30.5V188H94.8z" class="st1"/><path d="M237.8 177.9h78v12.9h-78z" class="st3"/><path d="M237.8 187.5h78v3.3h-78zm-68.6-9.6h57.3v12.9h-57.3z" class="st3"/><path d="M169.2 187.5h57.3v3.3h-57.3zm-98-9.6h57.3v12.9H71.2z" class="st3"/><path d="M71.2 187.5h57.3v3.3H71.2z" class="st3"/><path d="M22.5 72h51.6v3H22.5zm0 27.5H84v3H22.5zm83.7 0h20.6v3h-20.6z" class="st1"/><path d="M72.9 55.2h3v26.1h-3zm0-36.6h3v18.3h-3zm252.8-1.1h5.2v171.4h-5.2zM223.4 64.7h5.2v155.9h-5.2zm0-47.2h5.2v22.2h-5.2z" class="st1"/><path d="M109.4 17.5h219v5.2h-219zm-89.5 0H87v5.2H19.9z" class="st1"/><defs><path id="SVGID_1_" d="M19.9 17.5H331v223.9H19.9z"/></defs><clipPath id="SVGID_2_"><use xlink:href="#SVGID_1_" style="overflow:visible"/></clipPath><path d="M288.9 98.9c2.3-.1 3.4-.1 5.1-.1 1.3 0 1.8.1 1.8.8 0 .9-1.1 2.4-2.9 4.3l-3.7 3.8c-.5.5-.6 1.1-.6 1.8v2.3h12.2v-3.9h-4.7c-.8 0-1.5 0-2.3.2l4-4c2.2-2.3 2.6-3.3 2.6-5.1 0-3.2-2.3-4-5.8-4-1.8 0-3.5.1-5.9.5l.2 3.4zm-4.8 8.8c-1.1 0-1.5.4-1.5 1.5v1c0 1.1.4 1.5 1.5 1.5h1c1.1 0 1.5-.4 1.5-1.5v-1c0-1.1-.4-1.5-1.5-1.5h-1zm-11.7-6.7c0-2 .2-2.7 1.9-2.7 1.9 0 2 .6 2.1 4.3-.8.5-1.3.6-2.1.6-1.6-.1-1.9-.6-1.9-2.2m-3.5 10.5c1.9.5 3.7.5 4.6.5 5.2 0 7.2-1.2 7.2-8.7 0-6.6-1.1-8.3-6.3-8.3-4.8 0-6.1 1.8-6.1 6 0 3 1 5.1 4.7 5.1 1.5 0 2.5-.2 3.4-1-.1 2.8-.7 3.6-2.9 3.6h-4.4l-.2 2.8zm-3-12.9.2-3.3h-10.3l-.4 7.4c0 .8.5 1.4 1.3 1.5l2.5.3c2.2.2 3 .5 3 2-.1 1.3-.6 1.9-2.7 1.9-1.2 0-2.7-.1-4.3-.2l-.4 3.4c2.1.3 4.2.5 5.8.5 4.7 0 6-2.4 6-5.4 0-2.6-1-5-4.8-5.4l-2.7-.4.2-2.3h6.6z" class="st4"/><circle cx="277.9" cy="76.8" r="14.6" style="clip-path:url(#SVGID_2_);fill:none;stroke:#3c3c3b" transform="rotate(-10.9 277.887 76.822)"/><path d="M284.7 76.6c2.5-.3 2.5-1.4 3.9-5.9h-3.4c-1 3.7-1.2 4.8-3 4.8h-.6c.1-.5.1-1 .1-1.6v-3.3h-3.4V83h3.4v-4c0-.3-.1-.8-.1-1.2h.6c1.7 0 1.9.8 3.2 5.3h3.5c-1.5-5.1-1.7-6.1-4.3-6.4v-.1zm-17.2-3.2c1.7-.1 2.6-.1 3.9-.1 1 0 1.4.1 1.4.6 0 .7-.8 1.8-2.2 3.2l-2.8 2.9c-.4.4-.5.8-.5 1.4v1.8h9.3v-2.9H273c-.6 0-1.2 0-1.7.2l3.1-3c1.6-1.7 1.9-2.5 1.9-3.9 0-2.4-1.7-3-4.4-3-1.4 0-2.6.1-4.4.4v2.4zm-85.6-18.2V48H180l-1.8.7.2 1.2 1.7-.4c-.1.3-.1.6-.1.9v4.8h1.9zm-4.9-1.8c-.5 0-.7.2-.7.7v.5c0 .5.2.7.7.7h.4c.5 0 .7-.2.7-.7v-.5c0-.5-.2-.7-.7-.7h-.4zm-4.1.5c-.8 0-.9-.3-.9-1.9.3-.2.6-.3.9-.3.7 0 .8.2.8.9 0 1 0 1.3-.8 1.3m2.2-5.8c-.7-.2-1.5-.2-1.9-.2-2.1 0-3.1.5-3.1 3.8 0 2.9.6 3.6 2.8 3.6 2.2 0 2.7-.8 2.7-2.6 0-1.6-.5-2.2-2.1-2.2-.6 0-1.1.1-1.5.4.1-1.3.3-1.6 1.2-1.6h1.8l.1-1.2zm19.8-7c.3-.2.6-.3 1-.3.5 0 .7.2.7 1.4s-.2 1.4-.7 1.4c-.4 0-.6-.1-.9-.2v-2.3zm-.4-1.6H193v7.1h1.9v-2.2c.4.3 1 .5 1.7.5 1.3 0 2-.6 2-2.7 0-1.8-.5-2.8-1.8-2.8-.8 0-1.6.4-2 .9l-.3-.8zm-5.2 1.2c.6 0 .8.3.8 1.4 0 1.1-.2 1.4-.8 1.4-.6 0-.8-.3-.8-1.4 0-1.1.2-1.4.8-1.4m0-1.3c-2 0-2.8.7-2.8 2.7s.7 2.7 2.8 2.7c2 0 2.8-.7 2.8-2.7s-.7-2.7-2.8-2.7m-5.9 4h-1.5c.3-.6.4-1.3.6-2.3 0-.3.2-.4.5-.4h.5v2.7zm2.6 0h-.9v-3.9h-2.8c-.9 0-1.4.4-1.5 1.3-.1.9-.3 1.8-.6 2.6h-.6v2.7h1.2l.1-1.4h3.7l.1 1.4h1.3v-2.7zm-7.1 1.3v-5.2h-1.6l-1.6 2.5c-.2.2-.3.5-.4.8 0-.3.1-.5.1-.8v-2.4h-1.7v5.2h1.6l1.6-2.4c.1-.2.3-.6.4-.9 0 .3-.1.6-.1.9v2.3h1.7zm-9.9-3.6c.3-.2.6-.3 1-.3.5 0 .7.2.7 1.4s-.2 1.4-.7 1.4c-.4 0-.6-.1-.9-.2v-2.3zm-.3-1.6h-1.5v7.1h1.9v-2.2c.4.3 1 .5 1.7.5 1.3 0 2-.6 2-2.7 0-1.8-.5-2.8-1.8-2.8-.8 0-1.6.4-2 .9l-.3-.8zm-5.3 1.2c.6 0 .8.3.8 1.4 0 1.1-.2 1.4-.8 1.4-.6 0-.8-.3-.8-1.4 0-1.1.2-1.4.8-1.4m0-1.3c-2 0-2.8.7-2.8 2.7s.7 2.7 2.8 2.7c2 0 2.8-.7 2.8-2.7s-.7-2.7-2.8-2.7m-5.6 1.5c1.4-.2 1.5-.8 2.3-3.4h-2c-.6 2.2-.7 2.8-1.7 2.8h-.4c.1-.3.1-.6.1-.9v-1.9h-1.9v7.2h1.9v-2.4c0-.2 0-.4-.1-.7h.4c1 0 1.1.5 1.8 3.1h2c-.8-2.9-.9-3.5-2.4-3.8zM72.9 146.8h2c.7 0 .9.1.9.7 0 .5-.1.8-.8.8h-1.4v1.3H75c.8 0 .9.2.9.8 0 .7-.3.9-1.2.9-.6 0-1.1 0-2-.1l-.1 1.4c.8.1 1.7.2 2.6.2 1.9 0 2.6-.6 2.6-2.1 0-1.1-.3-1.6-1.3-1.8.9-.1 1.1-.8 1.1-1.8 0-1.3-.7-1.7-2.4-1.7-.8 0-1.6.1-2.4.2l.1 1.2zm-2.1 4c-.5 0-.7.2-.7.7v.5c0 .5.2.7.7.7h.4c.5 0 .7-.2.7-.7v-.5c0-.5-.2-.7-.7-.7h-.4zm-5.2-2.9c0-.9.1-1.2.8-1.2.8 0 .9.3.9 1.9-.3.2-.6.3-.9.3-.6-.1-.8-.3-.8-1m-1.5 4.6c.8.2 1.6.2 2 .2 2.3 0 3.1-.5 3.1-3.8 0-2.9-.5-3.6-2.7-3.6-2.1 0-2.7.8-2.7 2.6 0 1.3.5 2.2 2.1 2.2.6 0 1.1-.1 1.5-.4-.1 1.2-.3 1.6-1.3 1.6h-1.9l-.1 1.2zm20-15.2h-.7c-.5 0-.6-.1-.6-.6 0-.4.1-.5.6-.5h.7v1.1zm-2 .6c-.3 0-.9.1-1 .6l-.4 1.6h1.9l.3-1.4c0-.2.2-.3.5-.3h.7v1.7H86v-5.2c-.6-.1-1.2-.1-2.6-.1-1.9 0-2.4.4-2.4 1.7 0 .6.2 1.2 1.1 1.4zm-2.1-3h-1.9v1.8h-1.6v-1.8h-1.9v5.2h1.9V138h1.6v2.1H80v-5.2zm-7.8 5.2h1.9l-1.5-2.6L74 135h-1.9l-1 1.9-1-1.9h-1.9l1.4 2.5-1.5 2.6H70l1-2.1 1.2 2.1zm-4.3-5.2h-2l-.8 3.1c-.1.2-.1.6-.2.9h-.1c0-.3-.1-.6-.1-.9l-.8-3.1h-2l1.6 4.7c.1.3.3.4.6.4h.3c-.1.3-.3.5-.5.6-.3.2-.8.2-1.4.2l-.2 1.2c.7.1 1.5.1 2.1-.1.8-.3 1.4-.8 1.8-2l1.7-5zm-8.4 1.4c1.4-.2 1.5-.8 2.3-3.4h-2c-.6 2.2-.7 2.8-1.7 2.8h-.3c.1-.3.1-.6.1-.9v-1.9H56v7.2h1.9v-2.4c0-.2 0-.4-.1-.7h.2c1 0 1.1.5 1.8 3.1h2c-.8-3-.9-3.5-2.3-3.8z" class="st4"/><path d="M34.1 99.3V73.8m-7.9 19.7h6.1v4.1h-6.1zm0-17.8h6.1v15.5h-6.1z" class="st6"/><defs><path id="SVGID_3_" d="M19.9 17.5H331v223.9H19.9z"/></defs><clipPath id="SVGID_4_"><use xlink:href="#SVGID_3_" style="overflow:visible"/></clipPath><path d="M285 129.2c.8 0 1 .3 1 2.2 0 1.9-.2 2.2-1 2.2s-1-.3-1-2.2c0-1.9.2-2.2 1-2.2m0-1.5c-2.2 0-2.9.9-2.9 3.7 0 2.8.7 3.7 2.9 3.7s2.9-.9 2.9-3.7c0-2.8-.7-3.7-2.9-3.7m-4.9 5.5c-.5 0-.7.2-.7.7v.5c0 .5.2.7.7.7h.4c.5 0 .7-.2.7-.7v-.5c0-.5-.2-.7-.7-.7h-.4zm-5.1-2.9c0-.9.1-1.2.8-1.2.8 0 .9.3.9 1.9-.3.2-.6.3-.9.3-.7-.1-.9-.3-.8-1m-1.6 4.6c.8.2 1.6.2 2 .2 2.3 0 3.1-.5 3.1-3.8 0-2.9-.5-3.6-2.7-3.6-2.1 0-2.7.8-2.7 2.6 0 1.3.5 2.2 2.1 2.2.6 0 1.1-.1 1.5-.4-.1 1.2-.3 1.6-1.3 1.6h-1.9l-.1 1.2zm-1.5.1v-7.2H270l-1.8.7.2 1.2 1.7-.4c-.1.3-.1.6-.1.9v4.8h1.9zm43.2-12.3c0-.2.1-.4.4-.4h1.1v.6c-.3.2-.7.4-1 .4-.3 0-.5-.1-.5-.4v-.2zm-1.4-2c.9-.1 1.7-.1 2.2-.1.5 0 .7.2.7.6v.1h-1.7c-1 0-1.7.5-1.7 1.3v.5c0 1 .8 1.5 1.7 1.5.9 0 1.5-.5 1.8-.9l.2.8h1.5v-3.3c0-1.5-.8-2-2.2-2-.8 0-2.1.1-2.8.3l.3 1.2zm-.8.1v-1.4h-5.2v1.4h1.6v3.7h1.9v-3.7h1.7zm-9.3 1.9c0-.2.1-.4.4-.4h1.1v.6c-.3.2-.7.4-1 .4-.3 0-.5-.1-.5-.4v-.2zm-1.4-2c.9-.1 1.7-.1 2.2-.1.5 0 .7.2.7.6v.1h-1.7c-1 0-1.7.5-1.7 1.3v.5c0 1 .8 1.5 1.7 1.5.9 0 1.5-.5 1.8-.9l.2.8h1.5v-3.3c0-1.5-.8-2-2.2-2-.8 0-2.1.1-2.8.3l.3 1.2zm-1.3-1.4H299v1.8h-1.6v-1.8h-1.9v5.2h1.9v-2.1h1.6v2.1h1.9v-5.2zm-8.8 0c-.4 0-.6.2-.7.6l-.4 1.9c-.1.3-.1.5-.1.8h-.1c0-.3 0-.5-.1-.8l-.5-1.9c-.1-.4-.3-.6-.7-.6h-1.6c-.4 0-.6.2-.7.6l-.1 4.5h1.7l.1-3.8h.1l.6 2.5c.1.4.3.6.7.6h.8c.4 0 .6-.2.7-.6l.6-2.5h.1l.1 3.8h1.7l-.1-4.5c0-.4-.2-.6-.6-.6h-1.5zm-8.6 1.2c.6 0 .8.3.8 1.4 0 1.1-.2 1.4-.8 1.4-.6 0-.8-.3-.8-1.4 0-1.1.2-1.4.8-1.4m0-1.3c-2 0-2.8.7-2.8 2.7s.7 2.7 2.8 2.7c2 0 2.8-.7 2.8-2.7s-.7-2.7-2.8-2.7m-5.1 2.6c1.2-.2 1.1-.3 1.8-2.5h-1.9c-.4 1.7-.5 1.9-1.2 1.9h-.2c0-.2.1-.4.1-.7v-1.2h-2v5.2h1.9v-1.6c0-.1 0-.3-.1-.4h.4c.6 0 .6.1 1.1 2.1h2c-.7-2.5-.7-2.6-1.9-2.8zm-8.6-.1h-.7c-.5 0-.6-.1-.6-.6 0-.4.1-.5.6-.5h.7v1.1zm-2 .6c-.3 0-.9.1-1 .6l-.4 1.6h1.9l.3-1.4c0-.2.2-.3.5-.3h.7v1.7h1.8v-5.2c-.6-.1-1.2-.1-2.6-.1-1.9 0-2.4.4-2.4 1.7.1.6.3 1.2 1.2 1.4zm-5.5.4c0-.2.1-.4.4-.4h1.1v.6c-.3.2-.7.4-1 .4-.3 0-.5-.1-.5-.4v-.2zm-1.4-2c.9-.1 1.7-.1 2.2-.1.5 0 .7.2.7.6v.1h-1.7c-1 0-1.7.5-1.7 1.3v.5c0 1 .8 1.5 1.7 1.5.9 0 1.5-.5 1.8-.9l.2.8h1.5v-3.3c0-1.5-.8-2-2.2-2-.8 0-2.1.1-2.8.3l.3 1.2zm-1.3-1.4h-3.1c-.9 0-1.4.5-1.4 1.3-.1.9-.2 1.7-.3 2-.1.4-.4.4-.9.5l.2 1.4c1.1.2 2.2-.1 2.4-1.4.1-.5.2-1.4.3-2.2 0-.3.2-.4.5-.4h.4v3.9h1.9v-5.1zm-6.4 5.2v-5.2h-1.6l-1.6 2.5c-.2.2-.3.5-.4.8 0-.3.1-.5.1-.8v-2.4H248v5.2h1.6l1.6-2.4c.1-.2.3-.6.4-.9 0 .3-.1.6-.1.9v2.3h1.7zm-8.4-3.8c1.4-.2 1.4-.8 2.2-3.4h-2c-.6 2.2-.8 2.8-1.5 2.8h-.3c.1-.3.1-.6.1-.9v-1.9h-1.9v1.9c0 .3 0 .6.1.9h-.4c-.7 0-.8-.6-1.5-2.8h-2c.8 2.6.8 3.2 2.2 3.4v.1c-1.4.2-1.5.8-2.4 3.7h2c.8-2.6.9-3.1 1.6-3.1h.4c-.1.2-.1.5-.1.7v2.4h1.9v-2.4c0-.2 0-.4-.1-.7h.3c.7 0 .8.5 1.6 3.1h2.1c-.7-2.9-.8-3.5-2.3-3.8zm-64.9 1.4.1 1.6h3.1c-.2.2-.3.5-.4.8l-1.7 4.9h1.9l2.2-6.2c.2-.5-.2-1-.7-1h-4.5zm-1.4 5.4c-.5 0-.7.2-.7.7v.5c0 .5.2.7.7.7h.4c.5 0 .7-.2.7-.7v-.5c0-.5-.2-.7-.7-.7h-.4zm-6.7-3.9c1-.1 1.5-.1 2.2-.1.6 0 .8 0 .8.3 0 .4-.5 1.1-1.3 1.9l-1.6 1.7c-.2.2-.3.5-.3.8v1h5.3v-1.7h-2.1c-.3 0-.7 0-1 .1l1.8-1.7c.9-1 1.1-1.5 1.1-2.2 0-1.4-1-1.7-2.5-1.7-.8 0-1.5 0-2.6.2l.2 1.4zm-1.4 5.6V122h-1.9l-1.8.7.2 1.2 1.7-.4c-.1.3-.1.6-.1.9v4.8h1.9zm42.4-12.2c0-.2.1-.4.4-.4h1.1v.6c-.3.2-.7.4-1 .4-.3 0-.5-.1-.5-.4v-.2zm-1.4-2.1c.9-.1 1.7-.1 2.2-.1.5 0 .7.2.7.6v.1h-1.7c-1 0-1.7.5-1.7 1.3v.5c0 1 .8 1.5 1.7 1.5.9 0 1.5-.5 1.8-.9l.2.8h1.5v-3.3c0-1.5-.8-2-2.2-2-.8 0-2.1.1-2.8.3l.3 1.2zm-.9.1v-1.4h-5.2v1.4h1.6v3.7h1.9V115h1.7zm-9.2 2c0-.2.1-.4.4-.4h1.1v.6c-.3.2-.7.4-1 .4-.3 0-.5-.1-.5-.4v-.2zm-1.4-2.1c.9-.1 1.7-.1 2.2-.1.5 0 .7.2.7.6v.1h-1.7c-1 0-1.7.5-1.7 1.3v.5c0 1 .8 1.5 1.7 1.5.9 0 1.5-.5 1.8-.9l.2.8h1.5v-3.3c0-1.5-.8-2-2.2-2-.8 0-2.1.1-2.8.3l.3 1.2zm-1.3-1.3h-1.9v1.8h-1.6v-1.8h-1.9v5.2h1.9v-2.1h1.6v2.1h1.9v-5.2zm-8.8 0c-.4 0-.6.2-.7.6l-.4 1.9c-.1.3-.1.5-.1.8h-.1c0-.3 0-.5-.1-.8l-.5-1.9c-.1-.4-.3-.6-.7-.6h-1.6c-.4 0-.6.2-.7.6l-.1 4.5h1.7l.1-3.8h.1l.6 2.5c.1.4.3.6.7.6h.8c.4 0 .6-.2.7-.6l.6-2.5h.1l.1 3.8h1.7l-.1-4.5c0-.4-.2-.6-.6-.6h-1.5zm-8.6 1.2c.6 0 .8.3.8 1.4 0 1.1-.2 1.4-.8 1.4-.6 0-.8-.3-.8-1.4 0-1.2.2-1.4.8-1.4m0-1.4c-2 0-2.8.7-2.8 2.7s.7 2.7 2.8 2.7c2 0 2.8-.7 2.8-2.7 0-1.9-.7-2.7-2.8-2.7M176 116c1.2-.2 1.1-.3 1.8-2.5h-1.9c-.4 1.7-.5 1.9-1.2 1.9h-.2c0-.2.1-.4.1-.7v-1.2h-1.9v5.2h1.9v-1.6c0-.1 0-.3-.1-.4h.4c.6 0 .6.1 1.1 2.1h2c-.7-2.5-.7-2.5-2-2.8zm-8.5-.1h-.7c-.5 0-.6-.1-.6-.6 0-.4.1-.5.6-.5h.7v1.1zm-2 .7c-.3 0-.9.1-1 .6l-.4 1.6h1.9l.3-1.4c0-.2.2-.3.5-.3h.7v1.7h1.8v-5.2c-.6-.1-1.2-.1-2.6-.1-1.9 0-2.4.4-2.4 1.7 0 .5.3 1.1 1.2 1.4zm-5.5.4c0-.2.1-.4.4-.4h1.1v.6c-.3.2-.7.4-1 .4-.3 0-.5-.1-.5-.4v-.2zm-1.5-2.1c.9-.1 1.7-.1 2.2-.1.5 0 .7.2.7.6v.1h-1.7c-1 0-1.7.5-1.7 1.3v.5c0 1 .8 1.5 1.7 1.5.9 0 1.5-.5 1.8-.9l.2.8h1.5v-3.3c0-1.5-.8-2-2.2-2-.8 0-2.1.1-2.8.3l.3 1.2zm-1.3-1.3h-3.1c-.9 0-1.4.5-1.4 1.3-.1.9-.2 1.7-.3 2-.1.4-.4.4-.9.5l.2 1.4c1.1.2 2.2-.1 2.4-1.4.1-.5.2-1.4.3-2.2 0-.3.2-.4.5-.4h.4v3.9h1.9v-5.1zm-6.3 5.2v-5.2h-1.6l-1.6 2.5c-.2.2-.3.5-.4.8 0-.3.1-.5.1-.8v-2.4h-1.7v5.2h1.6l1.6-2.4c.1-.2.3-.6.4-.9 0 .3-.1.6-.1.9v2.3h1.7zm-8.4-3.8c1.4-.2 1.4-.8 2.2-3.4h-2c-.6 2.2-.8 2.8-1.5 2.8h-.3c.1-.3.1-.6.1-.9v-1.9h-1.9v1.9c0 .3 0 .6.1.9h-.4c-.7 0-.8-.6-1.5-2.8h-2c.8 2.6.8 3.2 2.2 3.4v.1c-1.4.2-1.5.8-2.4 3.7h2c.8-2.6.9-3.1 1.6-3.1h.4c-.1.2-.1.5-.1.7v2.4h1.9v-2.4c0-.2 0-.4-.1-.7h.3c.7 0 .8.5 1.6 3.1h2.1c-.7-3-.8-3.6-2.3-3.8z" style="clip-path:url(#SVGID_4_);fill:#3c3c3b"/><path d="M150.5 71.3h74v3.1h-74z" class="st1"/><path d="M49.5 22.1H66v16.5H49.5zm63.9 52.3v25.5m-.3-.1h8.8m-8.8-25.1h8.8" class="st6"/><path d="M23.4 232.1H124v2.8H23.4zm101.334.06 101.24-14.691.401 2.77-101.24 14.693z" class="st3"/><defs><path id="SVGID_5_" d="M19.9 17.5H331v223.9H19.9z"/></defs><clipPath id="SVGID_6_"><use xlink:href="#SVGID_5_" style="overflow:visible"/></clipPath><path d="M71 46.1h-.4c-.3 0-.3-.1-.3-.4 0-.2.1-.3.3-.3h.4v.7zm-1.2.4c-.2 0-.5.1-.6.3l-.2 1h1.2l.2-.8c0-.1.1-.2.3-.2h.3v1h1.1v-3.1c-.4 0-.7-.1-1.6-.1-1.1 0-1.4.2-1.4 1 0 .4.2.8.7.9zm-3.3.3c0-.1.1-.2.3-.2h.7v.4c-.2.1-.4.2-.6.2-.2 0-.3-.1-.3-.3v-.1zm-.9-1.3h1.3c.3 0 .4.1.4.4v.1h-1c-.6 0-1 .3-1 .8v.2c0 .6.5.9 1 .9s.9-.3 1.1-.5l.1.5h.9v-2c0-.9-.5-1.2-1.3-1.2-.5 0-1.2.1-1.7.2l.2.6zm-.8-.8h-1.1v1.1h-1v-1.1h-1.1v3.1h1.1v-1.3h1v1.3h1.1v-3.1zm-3.8 0h-1.1v1.1h-1v-1.1h-1.1v3.1h1.1v-1.3h1v1.3H61v-3.1zm-5.9 2.1c0-.1.1-.2.3-.2h.6v.4c-.2.1-.4.2-.6.2-.2 0-.3-.1-.3-.3v-.1zm-.8-1.3h1.3c.3 0 .4.1.4.4v.1h-1c-.6 0-1 .3-1 .8v.2c0 .6.5.9 1 .9s.9-.3 1.1-.5l.1.5h.9v-2c0-.9-.5-1.2-1.3-1.2-.5 0-1.2.1-1.7.2l.2.6zm-3 1.6V46h.6c.5 0 .6.1.6.6 0 .4-.1.5-.5.5h-.7zm0-1.9v-.9h.5c.4 0 .5.1.5.5s-.1.5-.5.5h-.5zm1.4.4c.5 0 .8-.4.8-1 0-.9-.4-1.1-1.6-1.1-.8 0-1.2 0-1.8.1v4.3h2c1.1 0 1.5-.2 1.5-1.1 0-.7-.2-1.1-.9-1.2zm10.5 6.1c0-.5 0-.7.5-.7s.5.2.5 1.1c-.2.1-.3.2-.5.2-.4-.1-.5-.2-.5-.6m-1 2.7c.5.1 1 .1 1.2.1 1.4 0 1.9-.3 1.9-2.3 0-1.7-.3-2.2-1.6-2.2s-1.6.5-1.6 1.6c0 .8.3 1.3 1.2 1.3.4 0 .7-.1.9-.3 0 .7-.2 1-.8 1h-1.1l-.1.8zm-1.3-1c-.3 0-.4.1-.4.4v.3c0 .3.1.4.4.4h.3c.3 0 .4-.1.4-.4v-.3c0-.3-.1-.4-.4-.4h-.3zm-4-2.3h1.3c.3 0 .5 0 .5.2s-.3.6-.8 1.1l-1 1c-.1.1-.2.3-.2.5v.6H60v-1h-1.2c-.2 0-.4 0-.6.1l1.1-1c.6-.6.7-.9.7-1.3 0-.8-.6-1-1.5-1-.5 0-.9 0-1.5.1l-.1.7zM99.5 69h1.3c.3 0 .5 0 .5.2s-.3.6-.8 1.1l-1 1c-.1.1-.2.3-.2.5v.6h3.2v-1h-1.2c-.2 0-.4 0-.6.1l1.1-1c.6-.6.7-.9.7-1.3 0-.8-.6-1-1.5-1-.5 0-.9 0-1.5.1v.7zm-1.3 2.3c-.3 0-.4.1-.4.4v.3c0 .3.1.4.4.4h.3c.3 0 .4-.1.4-.4v-.3c0-.3-.1-.4-.4-.4h-.3zm-.8-.7h-.5v-1.8H96l-.2.7v1.1H95c-.1 0-.2-.1-.1-.2l.9-2.4h-1.1l-1.1 2.7c-.1.3.1.7.5.7h1.7v.9h1.1v-.9l.5-.1v-.7zm15.3-7.5h-.4c-.3 0-.3-.1-.3-.4 0-.2.1-.3.3-.3h.4v.7zm-1.2.4c-.2 0-.5.1-.6.3l-.2 1h1.2l.1-.8c0-.1.1-.2.3-.2h.4v1h1.1v-3.1c-.4 0-.7-.1-1.6-.1-1.1 0-1.4.2-1.4 1 0 .4.2.8.7.9zm-3.3.3c0-.1.1-.2.3-.2h.7v.4c-.2.1-.4.2-.6.2-.2 0-.3-.1-.3-.3v-.1zm-.9-1.3h1.3c.3 0 .4.1.4.4v.1h-1c-.6 0-1 .3-1 .8v.2c0 .6.5.9 1 .9s.9-.3 1.1-.5l.1.5h.9v-2c0-.9-.5-1.2-1.3-1.2-.5 0-1.2.1-1.7.2l.2.6zm-1.7.7c.7-.1.7-.2 1.1-1.5h-1.1c-.3 1-.4 1.1-.7 1.1h-.2v-1.1h-1v1.1h-.2c-.3 0-.3-.1-.7-1.1h-1.1c.4 1.3.4 1.4 1.1 1.5-.8.1-.8.2-1.2 1.6h1.1c.4-1.2.4-1.2.7-1.3h.2v1.3h1v-1.3h.2c.3 0 .3.1.7 1.3h1.1c-.2-1.4-.2-1.5-1-1.6zm-5.8-.8c.4 0 .5.2.5.8 0 .7-.1.8-.5.8s-.5-.1-.5-.8c0-.6.1-.8.5-.8m0-.8c-1.2 0-1.7.4-1.7 1.6 0 1.2.5 1.6 1.7 1.6s1.7-.4 1.7-1.6c0-1.1-.5-1.6-1.7-1.6m-2.9 3.2H98l-.9-1.6.8-1.5h-1.1l-.6 1.2-.6-1.2h-1.1l.8 1.5-.9 1.6h1.1l.7-1.2.7 1.2zm-2.9 0v-3.1h-1l-1 1.5c-.1.1-.2.3-.2.5v-2h-1v3.1h1l1-1.4c.1-.1.2-.4.3-.5v2h.9zm-5.9-2.1c.2-.1.3-.2.6-.2s.4.1.4.8c0 .7-.1.8-.4.8-.2 0-.4-.1-.5-.1v-1.3zm-.2-1H87V66h1.1v-1.4c.3.2.6.3 1 .3.8 0 1.2-.3 1.2-1.6 0-1.1-.3-1.7-1.1-1.7-.5 0-1 .2-1.2.5l-.1-.4zm-1.6-1.2h-3.6v4.3h1.2v-3.5h1.3v3.5h1.2v-4.3zM64 89.5h1.3c.3 0 .5 0 .5.2s-.3.6-.8 1.1l-1 1v1.1h3.2v-1H66c-.2 0-.4 0-.6.1l1.1-1c.6-.6.7-.9.7-1.3 0-.8-.6-1-1.5-1-.5 0-.9 0-1.5.1l-.2.7zm-1.2 2.3c-.3 0-.4.1-.4.4v.3c0 .3.1.4.4.4h.3c.3 0 .4-.1.4-.4v-.3c0-.3-.1-.4-.4-.4h-.3zm-1.2 1.1v-4.3h-1.2l-1 .4.1.7 1-.2v3.4h1.1zm7.2-10.6h-1.2l-.5 1.8c0 .1-.1.3-.1.5h-.1c0-.2-.1-.4-.1-.5l-.5-1.8h-1.2l1 2.8c0 .2.2.3.4.3h.2c-.1.2-.2.3-.3.4-.2.1-.5.1-.9.1l-.1.7c.4.1.9.1 1.3-.1.5-.2.8-.5 1.1-1.2l1-3zm-6.1 3.6 2.5-4.8h-.9l-2.5 4.8h.9zm-1.3-1.5c-.4 0-.8.1-1.4.1-.5 0-.7-.3-.7-1.2 0-1 .1-1.2.7-1.2h1.3l.1-.9c-.4-.2-.7-.2-1.3-.2-1.4 0-1.9.6-1.9 2.2s.5 2.2 1.9 2.2c.6 0 1 0 1.5-.2l-.2-.8zm15.5 136.7c-.8 0-.9-.3-.9-1.9.3-.2.6-.3.9-.3.7 0 .8.2.8.9 0 1 0 1.3-.8 1.3m2.2-5.8c-.7-.2-1.5-.2-1.9-.2-2.1 0-3.1.5-3.1 3.8 0 2.9.6 3.6 2.8 3.6 2.2 0 2.7-.8 2.7-2.6 0-1.6-.5-2.2-2.1-2.2-.6 0-1.1.1-1.5.4.1-1.3.3-1.6 1.2-1.6H79l.1-1.2zm-7 5.4c-.5 0-.7.2-.7.7v.5c0 .5.2.7.7.7h.4c.5 0 .7-.2.7-.7v-.5c0-.5-.2-.7-.7-.7h-.4zm-6-5.5.1 1.6h3.1c-.2.3-.3.5-.4.8l-1.7 4.9h1.9l2.2-6.2c.2-.5-.2-1-.7-1h-4.5zm25.1-8.1h-.7c-.5 0-.6-.1-.6-.6 0-.4.1-.5.6-.5h.7v1.1zm-2 .6c-.3 0-.9.1-1 .6l-.4 1.6h1.9l.3-1.4c0-.2.2-.3.5-.3h.7v1.7H93v-5.2c-.6-.1-1.2-.1-2.6-.1-1.9 0-2.4.4-2.4 1.7 0 .6.3 1.2 1.2 1.4zm-2.2 2.2v-5.2h-1.6l-1.6 2.5c-.2.2-.3.5-.4.8 0-.3.1-.5.1-.8v-2.4h-1.7v5.2h1.6l1.6-2.4c.1-.2.3-.6.4-.9 0 .3-.1.6-.1.9v2.3H87zm-8-2.7c1.2-.2 1.2-.3 1.8-2.4H79c-.5 1.7-.6 1.9-1.1 1.9h-.3c0-.2.1-.4.1-.6v-1.2h-1.6v1.2c0 .2 0 .4.1.6h-.3c-.5 0-.6-.2-1.1-1.9h-1.9c.7 2.1.6 2.3 1.8 2.4v.1c-1.3.2-1.3.3-2 2.7h1.9c.7-2 .7-2.1 1.1-2.1h.3c0 .2-.1.3-.1.4v1.6h1.7v-1.6c0-.1 0-.3-.1-.4h.4c.5 0 .5.1 1.2 2.1H81c-.8-2.5-.8-2.6-2-2.8zm-9.4 1.5H68c.3-.6.4-1.3.6-2.3 0-.3.2-.4.5-.4h.5v2.7zm2.6 0h-.9v-3.9h-2.8c-.9 0-1.4.4-1.5 1.3-.1.9-.3 1.8-.6 2.6h-.6v2.7H67l.1-1.4h3.7l.1 1.4h1.3v-2.7zm-9.6-2.8c.6 0 .8.3.8 1.4 0 1.1-.2 1.4-.8 1.4-.6 0-.8-.3-.8-1.4 0-1.1.1-1.4.8-1.4m0-1.3c-2 0-2.8.7-2.8 2.7s.7 2.7 2.8 2.7c2 0 2.8-.7 2.8-2.7 0-1.9-.8-2.7-2.8-2.7m-3.8-1.8h-3.3c-1.1 0-1.7.6-1.8 1.7-.1 1.7-.3 2.7-.5 3.3-.2.5-.5.6-1 .7l.1 1.5c1.3.2 2.2-.2 2.7-1.7.3-.9.4-2.2.6-3.7 0-.4.2-.5.6-.5h.7v5.9h2v-7.2z" style="clip-path:url(#SVGID_6_);fill:#3c3c3b"/><path d="M21.4 227.2h102.9l102.5-15.3M19.9 241.1h106.8l99.3-14.9" class="st3"/><path d="M19.9 17.5H331v223.9H19.9z" class="st9"/><path d="m87.5 112.9.8 1.3 19.8-12-.8-1.3z" class="st3"/><defs><path id="SVGID_7_" d="M19.9 17.5H331v223.9H19.9z"/></defs><clipPath id="SVGID_8_"><use xlink:href="#SVGID_7_" style="overflow:visible"/></clipPath><path d="M88.4 114.5s-2.1-3.1-3.3-7.6c-1.2-4.6-1.4-7.1-1.4-7.1m22.1-65.9-.8 1.2-25.8-15.5.7-1.3z" class="st10"/><path d="M104.9 35.5s2.1-3.1 3.3-7.6c1.2-4.6 1.4-7.1 1.4-7.1" class="st10"/><path d="m83.7 84.7 1.3.8-9.7 16-1.3-.8zm62.8-.3-.7 1.3-23.4-14.1.7-1.3zm-62.8-32 1.3-.7-10.4-17.1-1.3.7z" class="st3"/><defs><path id="SVGID_9_" d="M19.9 17.5H331v223.9H19.9z"/></defs><clipPath id="SVGID_10_"><use xlink:href="#SVGID_9_" style="overflow:visible"/></clipPath><path d="M85.3 51.5s-3.1 2.1-7.6 3.3c-2 .5-3.6.9-4.7 1.1M145.6 86s2.1-3.1 3.3-7.6c1.2-4.6 1.4-7.1 1.4-7.1" style="clip-path:url(#SVGID_10_);fill:none;stroke:#3c3c3b;stroke-width:.7"/><path d="m237.9 61.7 1.3-.7-14.1-23.4-1.2.7z" class="st3"/><defs><path id="SVGID_11_" d="M19.9 17.5H331v223.9H19.9z"/></defs><clipPath id="SVGID_12_"><use xlink:href="#SVGID_11_" style="overflow:visible"/></clipPath><path d="M239.6 60.8s-3.1 2.1-7.6 3.3c-4.6 1.2-7.1 1.4-7.1 1.4M85.3 85.6s-3.1-2.1-7.6-3.3c-2-.5-3.6-.9-4.7-1.1" style="clip-path:url(#SVGID_12_);fill:none;stroke:#3c3c3b;stroke-width:.7"/><path d="M54.2 86.5c0 2.8-2.3 5.1-5.1 5.1h-7.4c-.5 0-.9-.4-.9-.9v-8.5c0-.5.4-.9.9-.9h7.4c2.8 0 5.1 2.3 5.1 5.2m-13.7-4.3v8.5c0 .7.6 1.2 1.2 1.2h7.4c3 0 5.5-2.5 5.5-5.5s-2.5-5.5-5.5-5.5h-7.4c-.7.1-1.2.6-1.2 1.3" style="clip-path:url(#SVGID_12_);fill:#3c3c3b"/><path d="M54.2 86.5c0 2.8-2.3 5.1-5.1 5.1h-7.4c-.5 0-.9-.4-.9-.9v-8.5c0-.5.4-.9.9-.9h7.4c2.8 0 5.1 2.3 5.1 5.2zm-13.7-4.3v8.5c0 .7.6 1.2 1.2 1.2h7.4c3 0 5.5-2.5 5.5-5.5s-2.5-5.5-5.5-5.5h-7.4c-.7.1-1.2.6-1.2 1.3z" style="clip-path:url(#SVGID_12_);fill:none;stroke:#3c3c3b;stroke-width:.25"/><path d="m165.7 176.7-.8-1.3-17.3 10.5.7 1.3z" class="st3"/><defs><path id="SVGID_13_" d="M19.9 17.5H331v223.9H19.9z"/></defs><clipPath id="SVGID_14_"><use xlink:href="#SVGID_13_" style="overflow:visible"/></clipPath><path d="M164.8 175s2.1 3.1 3.3 7.6c.6 2.4 1 4.3 1.2 5.5M31.7 24.9s-5.7 0-5.7 5.7v33.9s0 5.7 5.7 5.7h7.6s5.7 0 5.7-5.7V30.6s0-5.7-5.7-5.7h-7.6z" class="st15"/><path d="M33.5 28.1s-5.7 0-5.7 5.7v27.6s0 5.7 5.7 5.7h4.1s5.7 0 5.7-5.7V33.7s0-5.7-5.7-5.7h-4.1z" class="st15"/><path d="M32.3 31.9s-2.8 0-2.8 2.8v27.7s0 2.8 2.8 2.8h6.3s2.8 0 2.8-2.8V34.7s0-2.8-2.8-2.8h-6.3z" class="st15"/><path d="M35.5 61.9c.5 0 .8-.4.8-.8 0-.5-.4-.8-.8-.8s-.8.4-.8.8.3.8.8.8z" class="st15"/><path d="M46 21.8v52.4m21.8 102.5-.8-1.3-17.3 10.5.7 1.3z" class="st3"/><defs><path id="SVGID_15_" d="M19.9 17.5H331v223.9H19.9z"/></defs><clipPath id="SVGID_16_"><use xlink:href="#SVGID_15_" style="overflow:visible"/></clipPath><path d="M66.9 175s2.1 3.1 3.3 7.6c.6 2.4 1 4.3 1.2 5.5" style="clip-path:url(#SVGID_16_);fill:none;stroke:#3c3c3b;stroke-width:.7"/><path d="M43.3 90.1v-7.3s0-.1.1-.1H49c2.1 0 3.8 1.7 3.8 3.8 0 2.1-1.7 3.8-3.8 3.8l-5.7-.2c.1.1 0 .1 0 0z" class="st17"/><path d="M43.5 90v-7.2H49c2 0 3.6 1.6 3.6 3.6S51 90 49 90h-5.5zm-.4-7.2v7.3c0 .1.1.3.3.3H49c2.2 0 3.9-1.8 3.9-3.9 0-2.2-1.8-3.9-3.9-3.9h-5.6c-.1-.1-.3 0-.3.2" class="st18"/><path d="M43.5 90v-7.2H49c2 0 3.6 1.6 3.6 3.6S51 90 49 90h-5.5zm-.4-7.2v7.3c0 .1.1.3.3.3H49c2.2 0 3.9-1.8 3.9-3.9 0-2.2-1.8-3.9-3.9-3.9h-5.6c-.1-.1-.3 0-.3.2z" class="st17"/><path d="M49 86.5c0 .5-.4 1-1 1s-1-.4-1-1c0-.5.4-1 1-1s1 .4 1 1m-2.3 0c0 .7.6 1.3 1.3 1.3s1.3-.6 1.3-1.3c0-.7-.6-1.3-1.3-1.3s-1.3.5-1.3 1.3" class="st18"/><path d="M49 86.5c0 .5-.4 1-1 1s-1-.4-1-1c0-.5.4-1 1-1s1 .4 1 1zm-2.3 0c0 .7.6 1.3 1.3 1.3s1.3-.6 1.3-1.3c0-.7-.6-1.3-1.3-1.3s-1.3.5-1.3 1.3z" class="st17"/><path d="m43.99 89.334 2.322-1.736.24.32-2.323 1.737z" class="st1"/><path d="m43.99 89.334 2.322-1.736.24.32-2.323 1.737z" class="st19"/><path d="m44 83.7 2.4 1.7.2-.3-2.4-1.7z" class="st1"/><path d="m44 83.7 2.4 1.7.2-.3-2.4-1.7z" class="st19"/><defs><path id="SVGID_17_" d="M19.9 17.5H331v223.9H19.9z"/></defs><clipPath id="SVGID_18_"><use xlink:href="#SVGID_17_" style="overflow:visible"/></clipPath><path d="M40.5 90c0 .8-.6 1.4-1.4 1.4h-1.9c-.8 0-1.4-.6-1.4-1.4v-7.1c0-.8.6-1.4 1.4-1.4h1.9c.8 0 1.4.6 1.4 1.4V90zm-5.1-7.1V90c0 1 .8 1.8 1.8 1.8h1.9c1 0 1.8-.8 1.8-1.8v-7.1c0-1-.8-1.8-1.8-1.8h-1.9c-1.1.1-1.8.9-1.8 1.8" class="st20"/><path d="M40.5 90c0 .8-.6 1.4-1.4 1.4h-1.9c-.8 0-1.4-.6-1.4-1.4v-7.1c0-.8.6-1.4 1.4-1.4h1.9c.8 0 1.4.6 1.4 1.4V90zm-5.1-7.1V90c0 1 .8 1.8 1.8 1.8h1.9c1 0 1.8-.8 1.8-1.8v-7.1c0-1-.8-1.8-1.8-1.8h-1.9c-1.1.1-1.8.9-1.8 1.8z" class="st21"/><path d="M38.6 86.5c0 .3-.2.5-.5.5s-.5-.2-.5-.5.2-.5.5-.5c.3-.1.5.2.5.5m-1.4 0c0 .5.4.9.9.9s.9-.4.9-.9-.4-.9-.9-.9-.9.4-.9.9" class="st20"/><path d="M38.6 86.5c0 .3-.2.5-.5.5s-.5-.2-.5-.5.2-.5.5-.5c.3-.1.5.2.5.5zm-1.4 0c0 .5.4.9.9.9s.9-.4.9-.9-.4-.9-.9-.9-.9.4-.9.9z" class="st21"/><path d="M24.9 118.1h16.2V103H24.9v15.1zm-.4-15.5h17v15.8h-17v-15.8z" class="st1"/><path d="M24.9 118.1h16.2V103H24.9v15.1zm-.4-15.5h17v15.8h-17v-15.8z" class="st19"/><defs><path id="SVGID_19_" d="M19.9 17.5H331v223.9H19.9z"/></defs><clipPath id="SVGID_20_"><use xlink:href="#SVGID_19_" style="overflow:visible"/></clipPath><path d="M39.6 105.2c0-.4-.3-.7-.7-.7h-8.5c-.4 0-.7.3-.7.7v10.6c0 .4.3.7.7.7h8.5c.4 0 .7-.3.7-.7v-10.6zm-10.3 10.7v-10.6c0-.6.5-1 1.1-1h8.5c.6 0 1.1.5 1.1 1v10.6c0 .6-.5 1-1.1 1h-8.5c-.6 0-1.1-.5-1.1-1" style="clip-path:url(#SVGID_20_);fill:#3c3c3b"/><path d="M39.6 105.2c0-.4-.3-.7-.7-.7h-8.5c-.4 0-.7.3-.7.7v10.6c0 .4.3.7.7.7h8.5c.4 0 .7-.3.7-.7v-10.6zm-10.3 10.7v-10.6c0-.6.5-1 1.1-1h8.5c.6 0 1.1.5 1.1 1v10.6c0 .6-.5 1-1.1 1h-8.5c-.6 0-1.1-.5-1.1-1z" style="clip-path:url(#SVGID_20_);fill:none;stroke:#3c3c3b;stroke-width:.25"/><path d="M30.9 115.4h7.5v-9.6h-7.5v9.6zm-.4-10h8.2v10.3h-8.2v-10.3z" class="st1"/><path d="M30.9 115.4h7.5v-9.6h-7.5v9.6zm-.4-10h8.2v10.3h-8.2v-10.3z" class="st19"/><path d="M36.1 110.6c0-.5-.4-.9-.9-.9s-.9.4-.9.9.4.9.9.9.9-.5.9-.9m-2.3 0c0-.7.6-1.2 1.3-1.2.7 0 1.3.5 1.3 1.2s-.6 1.2-1.3 1.2c-.7 0-1.3-.6-1.3-1.2" class="st1"/><path d="M36.1 110.6c0-.5-.4-.9-.9-.9s-.9.4-.9.9.4.9.9.9.9-.5.9-.9zm-2.3 0c0-.7.6-1.2 1.3-1.2.7 0 1.3.5 1.3 1.2s-.6 1.2-1.3 1.2c-.7 0-1.3-.6-1.3-1.2z" class="st19"/><path d="M58.1 60.3c3 0 5.4 2.4 5.4 5.4v5.8c0 .5-.4.8-.8.8H50.5c-.5 0-.8-.4-.8-.8v-5.8c0-3 2.4-5.4 5.4-5.4h3zm-7.6 12.3h12.3c.6 0 1.1-.5 1.1-1.1v-5.8c0-3.2-2.6-5.7-5.7-5.7h-3.1c-3.2 0-5.7 2.6-5.7 5.7v5.8c-.1.6.4 1.1 1.1 1.1" class="st1"/><path d="M58.1 60.3c3 0 5.4 2.4 5.4 5.4v5.8c0 .5-.4.8-.8.8H50.5c-.5 0-.8-.4-.8-.8v-5.8c0-3 2.4-5.4 5.4-5.4h3zm-7.6 12.3h12.3c.6 0 1.1-.5 1.1-1.1v-5.8c0-3.2-2.6-5.7-5.7-5.7h-3.1c-3.2 0-5.7 2.6-5.7 5.7v5.8c-.1.6.4 1.1 1.1 1.1z" class="st19"/><path d="M58.1 61.7c2.2 0 4.1 1.8 4.1 4.1v3.4c0 .4-.3.7-.7.7h-9.8c-.4 0-.7-.3-.7-.7v-3.4c0-2.2 1.8-4.1 4.1-4.1h3zm-6.4 8.4h9.8c.6 0 1-.5 1-1v-3.4c0-2.4-2-4.4-4.4-4.4H55c-2.4 0-4.4 2-4.4 4.4v3.4c.1.5.6 1 1.1 1" class="st1"/><path d="M58.1 61.7c2.2 0 4.1 1.8 4.1 4.1v3.4c0 .4-.3.7-.7.7h-9.8c-.4 0-.7-.3-.7-.7v-3.4c0-2.2 1.8-4.1 4.1-4.1h3zm-6.4 8.4h9.8c.6 0 1-.5 1-1v-3.4c0-2.4-2-4.4-4.4-4.4H55c-2.4 0-4.4 2-4.4 4.4v3.4c.1.5.6 1 1.1 1z" class="st19"/><path d="M56.6 64.5c.4 0 .7.3.7.7 0 .4-.3.7-.7.7-.4 0-.7-.3-.7-.7 0-.4.3-.7.7-.7m0 1.7c.5 0 1-.4 1-1 0-.5-.4-1-1-1-.5 0-1 .4-1 1 0 .5.5 1 1 1" class="st1"/><path d="M56.6 64.5c.4 0 .7.3.7.7 0 .4-.3.7-.7.7-.4 0-.7-.3-.7-.7 0-.4.3-.7.7-.7zm0 1.7c.5 0 1-.4 1-1 0-.5-.4-1-1-1-.5 0-1 .4-1 1 0 .5.5 1 1 1z" class="st19"/><path d="M19.9 17.5H331v223.9H19.9z" class="st9"/><path d="M114.5 75.8h6.3v16.8h-6.3zm0 18.6h6.3v4.3h-6.3z" class="st6"/></svg>