<?xml version="1.0" encoding="UTF-8"?>
<svg id="_Слой_1" data-name="Слой_1" xmlns="http://www.w3.org/2000/svg" version="1.1" viewBox="0 0 1280 1024">
  <!-- Generator: Adobe Illustrator 29.4.0, SVG Export Plug-In . SVG Version: 2.1.0 Build 152)  -->
  <defs>
    <style>
      .st0 {
        stroke-dasharray: 1.96 1.96;
      }

      .st0, .st1 {
        fill: none;
        stroke: #3c3c3b;
      }

      .st2 {
        fill: #deeaf8;
      }

      .st3 {
        fill: #3c3c3b;
      }
    </style>
  </defs>
  <rect class="st2" x="438.67" y="195.33" width="384.49" height="658.94"/>
  <rect class="st3" x="800.1" y="84.09" width="27.73" height="91.68"/>
  <rect class="st1" x="800.1" y="84.09" width="27.73" height="91.68"/>
  <rect class="st3" x="823.71" y="84.09" width="11.69" height="393.72"/>
  <rect class="st3" x="823.71" y="527.22" width="9.34" height="63.42"/>
  <rect class="st1" x="823.71" y="527.22" width="9.34" height="63.42"/>
  <rect class="st3" x="823.71" y="550.36" width="9.34" height="327.05"/>
  <rect class="st1" x="823.71" y="550.36" width="9.34" height="327.05"/>
  <rect class="st3" x="823.71" y="526.86" width="11.99" height="438.14"/>
  <rect class="st3" x="434.66" y="176.43" width="45.81" height="18.35"/>
  <rect class="st1" x="434.66" y="176.43" width="45.81" height="18.35"/>
  <rect class="st3" x="587.33" y="176.43" width="45.81" height="18.35"/>
  <rect class="st1" x="587.33" y="176.43" width="45.81" height="18.35"/>
  <rect class="st1" x="479.43" y="176.43" width="66.38" height="18.35"/>
  <rect class="st3" x="434.66" y="172.19" width="49.91" height="4.2"/>
  <rect class="st1" x="434.66" y="172.19" width="49.91" height="4.2"/>
  <rect class="st3" x="583.23" y="172.19" width="49.91" height="4.2"/>
  <rect class="st1" x="583.23" y="172.19" width="49.91" height="4.2"/>
  <rect class="st3" x="633.1" y="176.43" width="45.81" height="18.35"/>
  <rect class="st1" x="633.1" y="176.43" width="45.81" height="18.35"/>
  <rect class="st1" x="669.26" y="176.43" width="73.87" height="18.35"/>
  <rect class="st3" x="783.34" y="176.43" width="45.81" height="18.35"/>
  <rect class="st1" x="783.34" y="176.43" width="45.81" height="18.35"/>
  <rect class="st3" x="633.1" y="172.19" width="49.91" height="4.2"/>
  <rect class="st1" x="633.1" y="172.19" width="49.91" height="4.2"/>
  <rect class="st1" x="668.01" y="172.19" width="79.21" height="4.2"/>
  <rect class="st3" x="779.24" y="172.19" width="49.91" height="4.2"/>
  <rect class="st1" x="779.24" y="172.19" width="49.91" height="4.2"/>
  <rect class="st1" x="479.43" y="172.19" width="71.68" height="4.2"/>
  <rect class="st3" x="626.87" y="84.09" width="11.06" height="50.53"/>
  <rect class="st1" x="626.87" y="84.09" width="11.06" height="50.53"/>
  <rect class="st3" x="626.87" y="194.32" width="11.06" height="257.93"/>
  <rect class="st1" x="626.87" y="194.32" width="11.06" height="257.93"/>
  <rect class="st3" x="626.87" y="508.83" width="11.06" height="430.3"/>
  <rect class="st1" x="626.87" y="508.83" width="11.06" height="430.3"/>
  <rect class="st3" x="431.12" y="109.9" width="9.5" height="767.5"/>
  <rect class="st1" x="431.12" y="109.9" width="9.5" height="767.5"/>
  <rect class="st1" x="635.6" y="84.09" width="168.16" height="5.65"/>
  <polygon class="st1" points="437.66 110.21 437.66 115.86 629.82 89.73 629.82 84.09 437.66 110.21"/>
  <g>
    <path class="st1" d="M546.36,175.88s0,5.2,2.31,11.67c1.93,5.41,5.78,10.47,5.78,10.47l35.98-20.35-.8-1.28-36.06,20.36"/>
    <path class="st1" d="M743.68,175.88s0,5.2,2.31,11.67c1.93,5.41,5.78,10.47,5.78,10.47l35.98-20.35-.8-1.28-36.06,20.36"/>
    <path class="st3" d="M746.43,138.58c1.17,0,2.01-.24,2.51-.73.5-.49.75-1.32.75-2.5v-8.33c0-1.18-.25-2.01-.75-2.5-.5-.49-1.34-.74-2.51-.74h-.71v2.01h.57c.38,0,.66.09.83.28.17.19.25.53.25,1.03v8.17c0,.5-.08.84-.25,1.03-.17.19-.44.28-.83.28h-.57v2.01h.71ZM741.79,128.22v5.56h-2.34l2.34-5.56ZM741.79,135.9v2.68h2.32v-2.68h1.06v-2.12h-1.06v-10h-2.54l-4.22,10v2.12h4.44ZM736.25,136.44h-2.32v2.14h2.32v-2.14ZM729.49,128.22v5.56h-2.34l2.34-5.56ZM729.49,135.9v2.68h2.32v-2.68h1.06v-2.12h-1.06v-10h-2.54l-4.22,10v2.12h4.44ZM721.15,137.85c.5.49,1.34.73,2.51.73h.71v-2.01h-.57c-.39,0-.66-.09-.83-.28-.16-.18-.25-.53-.25-1.03v-8.17c0-.5.08-.84.25-1.03.17-.18.44-.28.83-.28h.57v-2.01h-.71c-1.17,0-2.01.25-2.51.74-.5.49-.75,1.33-.75,2.5v8.33c0,1.18.25,2.01.75,2.5M710.63,127.42c0-.62.11-1.06.35-1.31.23-.26.55-.38.97-.38s.74.13.97.38c.23.25.34.69.34,1.32v.83c0,1.04-.44,1.56-1.31,1.56s-1.32-.52-1.32-1.56v-.83ZM710.63,133.6c0-1.12.44-1.67,1.32-1.67s1.31.56,1.31,1.67v1.37c0,.62-.12,1.05-.35,1.3-.23.25-.55.37-.95.37s-.74-.13-.97-.38c-.23-.25-.35-.68-.35-1.3v-1.37ZM709.24,137.78c.63.65,1.53.97,2.7.97s2.07-.32,2.69-.97c.62-.65.93-1.56.93-2.75v-1.17c0-1.52-.48-2.54-1.44-3.09.96-.54,1.44-1.53,1.44-2.97v-.48c0-1.18-.31-2.1-.93-2.75-.62-.65-1.52-.97-2.69-.97s-2.07.32-2.7.97c-.63.65-.94,1.56-.94,2.75v.48c0,1.46.48,2.45,1.44,2.97-.96.54-1.44,1.57-1.44,3.09v1.17c0,1.19.31,2.1.94,2.75M707,136.44h-2.32v2.14h2.32v-2.14ZM698.33,127.42c0-.62.11-1.06.35-1.31.23-.26.56-.38.97-.38s.74.13.96.38c.23.25.34.69.34,1.32v.83c0,1.04-.44,1.56-1.31,1.56s-1.32-.52-1.32-1.56v-.83ZM698.33,133.6c0-1.12.44-1.67,1.32-1.67s1.31.56,1.31,1.67v1.37c0,.62-.13,1.05-.35,1.3-.23.25-.55.37-.95.37s-.74-.13-.97-.38c-.23-.25-.35-.68-.35-1.3v-1.37ZM696.95,137.78c.63.65,1.53.97,2.7.97s2.07-.32,2.69-.97c.62-.65.93-1.56.93-2.75v-1.17c0-1.52-.48-2.54-1.44-3.09.96-.54,1.44-1.53,1.44-2.97v-.48c0-1.18-.31-2.1-.93-2.75-.62-.65-1.52-.97-2.69-.97s-2.07.32-2.7.97c-.63.65-.94,1.56-.94,2.75v.48c0,1.46.48,2.45,1.44,2.97-.96.54-1.44,1.57-1.44,3.09v1.17c0,1.19.31,2.1.94,2.75"/>
  </g>
  <rect class="st3" x="683.75" y="420.15" width="139.96" height="9.34"/>
  <rect class="st1" x="683.75" y="420.15" width="139.96" height="9.34"/>
  <rect class="st3" x="439.22" y="386.33" width="138.54" height="8.87"/>
  <rect class="st1" x="439.22" y="386.33" width="138.54" height="8.87"/>
  <rect class="st3" x="439.22" y="545.61" width="138.54" height="8.87"/>
  <rect class="st1" x="439.22" y="545.61" width="138.54" height="8.87"/>
  <rect class="st3" x="712.12" y="545.61" width="117.59" height="10.68"/>
  <rect class="st1" x="712.12" y="545.61" width="117.59" height="10.68"/>
  <rect class="st3" x="629.13" y="545.61" width="38.32" height="8.87"/>
  <rect class="st1" x="629.13" y="545.61" width="38.32" height="8.87"/>
  <rect class="st3" x="439.22" y="491.35" width="122.65" height="4.2"/>
  <rect class="st1" x="439.22" y="491.35" width="122.65" height="4.2"/>
  <rect class="st3" x="626.25" y="854.82" width="45.81" height="18.35"/>
  <rect class="st1" x="626.25" y="854.82" width="45.81" height="18.35"/>
  <rect class="st3" x="430.9" y="854.82" width="45.81" height="18.35"/>
  <rect class="st1" x="430.9" y="854.82" width="45.81" height="18.35"/>
  <rect class="st3" x="788.27" y="854.82" width="45.81" height="18.35"/>
  <rect class="st1" x="788.27" y="854.82" width="45.81" height="18.35"/>
  <rect class="st3" x="590.09" y="854.82" width="45.81" height="18.35"/>
  <rect class="st1" x="590.09" y="854.82" width="45.81" height="18.35"/>
  <rect class="st1" x="662.71" y="854.82" width="84.04" height="18.35"/>
  <rect class="st1" x="467.37" y="854.82" width="158.59" height="18.35"/>
  <rect class="st3" x="626.25" y="873.21" width="49.91" height="4.2"/>
  <rect class="st1" x="626.25" y="873.21" width="49.91" height="4.2"/>
  <rect class="st3" x="430.9" y="873.21" width="49.91" height="4.2"/>
  <rect class="st1" x="430.9" y="873.21" width="49.91" height="4.2"/>
  <rect class="st3" x="784.17" y="873.21" width="49.91" height="4.2"/>
  <rect class="st1" x="784.17" y="873.21" width="49.91" height="4.2"/>
  <rect class="st3" x="585.99" y="873.21" width="49.91" height="4.2"/>
  <rect class="st1" x="585.99" y="873.21" width="49.91" height="4.2"/>
  <rect class="st1" x="668.01" y="873.21" width="84.04" height="4.2"/>
  <rect class="st1" x="477.31" y="873.21" width="158.59" height="4.2"/>
  <path class="st1" d="M746.89,873.87s0-5.2,2.31-11.67c1.93-5.41,5.78-10.47,5.78-10.47l35.98,20.35-.8,1.28-36.06-20.36"/>
  <path class="st1" d="M826.94,533.11l-28.1-48.69s3.99-2.54,12.56-4.72c8.57-2.18,14.52-2.18,14.52-2.18"/>
  <path class="st1" d="M628.62,426.53l48.69-28.1s2.54,3.99,4.72,12.56c2.18,8.57,2.18,14.52,2.18,14.52"/>
  <rect class="st3" x="558.22" y="392.72" width="5.14" height="33.97"/>
  <rect class="st1" x="558.22" y="392.72" width="5.14" height="33.97"/>
  <rect class="st3" x="558.22" y="458.33" width="5.14" height="51.73"/>
  <rect class="st1" x="558.22" y="458.33" width="5.14" height="51.73"/>
  <g>
    <path class="st1" d="M559.63,420.49l19.27,33.81s-2.74,1.76-8.62,3.27c-5.87,1.51-9.96,1.51-9.96,1.51"/>
    <path class="st1" d="M559.63,548.53l19.27-33.81s-2.74-1.76-8.62-3.27c-5.87-1.51-9.96-1.51-9.96-1.51"/>
    <path class="st1" d="M627.99,552.24l-43.92,25.15s-2.29-3.57-4.26-11.24c-1.96-7.67-1.96-13-1.96-13"/>
    <path class="st1" d="M662.04,552.24l43.92,25.15s2.29-3.57,4.26-11.24c1.96-7.67,1.96-13,1.96-13"/>
    <path class="st1" d="M632.89,392.17l-48.69-28.1s-2.54,3.99-4.72,12.56c-2.18,8.57-2.18,14.52-2.18,14.52"/>
  </g>
  <path class="st3" d="M628.79,497.22c.62.64,1.5.97,2.64.97s1.99-.32,2.58-.97c.59-.64.88-1.56.88-2.75v-1.17c0-1.6-.54-2.64-1.62-3.11,1.08-.45,1.62-1.46,1.62-3.04v-.38c0-1.19-.29-2.11-.88-2.75-.59-.64-1.45-.97-2.58-.97s-2.01.32-2.64.97c-.62.64-.94,1.56-.94,2.75v.8h2.32v-.95c0-.97.4-1.46,1.19-1.46.4,0,.7.13.9.37.2.25.3.69.3,1.32v.83c0,.56-.12.97-.35,1.2-.23.24-.58.36-1.04.36h-.91v2.12h.79c.54,0,.92.15,1.16.43.24.29.36.77.36,1.44v1.17c0,.62-.1,1.05-.3,1.3-.2.25-.5.37-.9.37-.79,0-1.19-.49-1.19-1.46v-1.37h-2.32v1.23c0,1.19.31,2.11.94,2.75M626.37,495.88h-2.32v2.14h2.32v-2.14ZM616.49,497.22c.62.64,1.5.97,2.64.97s1.99-.32,2.58-.97c.59-.64.88-1.56.88-2.75v-1.17c0-1.6-.54-2.64-1.62-3.11,1.08-.45,1.62-1.46,1.62-3.04v-.38c0-1.19-.29-2.11-.88-2.75-.59-.64-1.45-.97-2.58-.97s-2.01.32-2.64.97c-.62.64-.94,1.56-.94,2.75v.8h2.32v-.95c0-.97.4-1.46,1.19-1.46.4,0,.7.13.9.37.2.25.3.69.3,1.32v.83c0,.56-.12.97-.35,1.2-.23.24-.58.36-1.04.36h-.91v2.12h.79c.54,0,.92.15,1.16.43.24.29.36.77.36,1.44v1.17c0,.62-.1,1.05-.3,1.3-.2.25-.5.37-.9.37-.79,0-1.19-.49-1.19-1.46v-1.37h-2.32v1.23c0,1.19.31,2.11.94,2.75"/>
  <path class="st3" d="M650.75,464.35h1.1c.38,0,.67.11.86.32.18.21.28.57.28,1.08v2.22c0,.51-.09.87-.28,1.08-.19.22-.47.32-.86.32h-1.1v-5.02ZM650.75,477.04v-5.56h1.1c1.15,0,2.01-.31,2.59-.93s.87-1.53.87-2.72v-1.92c0-1.19-.29-2.1-.87-2.73-.58-.62-1.44-.94-2.59-.94h-3.42v14.81h2.32ZM642.18,465.64c0-.97.4-1.46,1.21-1.46s1.2.49,1.2,1.46v7.99c0,.98-.4,1.46-1.2,1.46s-1.21-.49-1.21-1.46v-7.99ZM640.77,476.24c.61.65,1.48.97,2.62.97s2.01-.32,2.61-.97c.61-.65.91-1.56.91-2.75v-7.7c0-1.18-.3-2.1-.91-2.75-.6-.65-1.48-.97-2.61-.97s-2.01.32-2.62.97c-.61.65-.91,1.56-.91,2.75v7.7c0,1.18.31,2.1.91,2.75M632.83,474.22c.11-.28.17-.7.2-1.24l.42-8.63h1.96v10.58h-3.05c.2-.19.36-.43.46-.71M631.5,479v-1.96h4.92v1.96h2.32v-4.07h-1.01v-12.7h-6.61l-.42,10.78c-.02.45-.07.83-.16,1.12-.09.29-.23.56-.43.8h-.94v4.07h2.32ZM623.1,477.04l1.96-6.78.94-3.63v10.41h2.32v-14.81h-2.79l-1.9,6.11-.85,3.26v-9.38h-2.08v14.81h2.39ZM615.07,464.35h1.11c.38,0,.67.11.86.32.19.21.28.57.28,1.08v2.22c0,.51-.09.87-.28,1.08-.18.22-.47.32-.86.32h-1.11v-5.02ZM615.07,477.04v-5.56h1.1c1.15,0,2.01-.31,2.59-.93.58-.62.87-1.53.87-2.72v-1.92c0-1.19-.29-2.1-.87-2.73-.58-.62-1.44-.94-2.59-.94h-3.42v14.81h2.32ZM606.5,465.64c0-.97.4-1.46,1.21-1.46s1.2.49,1.2,1.46v7.99c0,.98-.4,1.46-1.2,1.46s-1.21-.49-1.21-1.46v-7.99ZM605.09,476.24c.61.65,1.48.97,2.62.97s2.01-.32,2.61-.97c.61-.65.91-1.56.91-2.75v-7.7c0-1.18-.3-2.1-.91-2.75-.61-.65-1.48-.97-2.61-.97s-2.01.32-2.62.97c-.61.65-.91,1.56-.91,2.75v7.7c0,1.18.3,2.1.91,2.75M597.95,477.04v-4.54l.72-1.35,2.26,5.9h2.38l-3.23-8.21,3.23-6.6h-2.32l-3.05,6.45v-6.45h-2.32v14.81h2.32Z"/>
  <g>
    <path class="st1" d="M483.14,877.26v53.9c0,1.72,1.4,3.12,3.12,3.12h94.28c1.72,0,3.12-1.4,3.12-3.12v-53.9h-100.52Z"/>
    <path class="st1" d="M486.95,877.26l3.54,46.45c0,1.72,1.39,3.12,3.12,3.12h79.58c1.72,0,3.12-1.39,3.12-3.12l3.54-46.45h-92.89Z"/>
  </g>
  <polygon class="st1" points="635.6 933.37 635.6 939.13 824.64 965 824.64 959.24 635.6 933.37"/>
  <rect class="st1" x="441.8" y="496.73" width="16.51" height="47.7"/>
  <line class="st1" x1="444.38" y1="496.88" x2="444.38" y2="544.65"/>
  <polyline class="st1" points="444.36 499.2 456.3 500.26 456.3 530.44 444.36 531.76 444.36 533.75 456.43 535.07 456.43 541.82 444.36 543.28"/>
  <rect class="st1" x="458.38" y="496.73" width="16.51" height="47.7"/>
  <line class="st1" x1="460.97" y1="544.28" x2="460.97" y2="496.5"/>
  <polyline class="st1" points="460.95 541.96 472.88 540.9 472.88 510.72 460.95 509.39 460.95 507.41 473.02 506.09 473.02 499.33 460.95 497.88"/>
  <rect class="st1" x="516.13" y="458.07" width="33.97" height="32.39"/>
  <line class="st1" x1="516.04" y1="490" x2="549.97" y2="458.18"/>
  <line class="st1" x1="516.04" y1="457.81" x2="549.97" y2="489.63"/>
  <g>
    <path class="st3" d="M515.87,520.58c0,5.62-4.58,10.2-10.2,10.2h-14.77c-.97,0-1.76-.79-1.76-1.76v-16.88c0-.97.79-1.76,1.76-1.76h14.77c5.63,0,10.2,4.58,10.2,10.2M488.43,512.14v16.88c0,1.36,1.1,2.46,2.46,2.46h14.77c6.01,0,10.9-4.89,10.9-10.9s-4.89-10.9-10.9-10.9h-14.77c-1.36,0-2.46,1.1-2.46,2.46"/>
    <path class="st1" d="M515.87,520.58c0,5.62-4.58,10.2-10.2,10.2h-14.77c-.97,0-1.76-.79-1.76-1.76v-16.88c0-.97.79-1.76,1.76-1.76h14.77c5.63,0,10.2,4.58,10.2,10.2ZM488.43,512.14v16.88c0,1.36,1.1,2.46,2.46,2.46h14.77c6.01,0,10.9-4.89,10.9-10.9s-4.89-10.9-10.9-10.9h-14.77c-1.36,0-2.46,1.1-2.46,2.46Z"/>
    <path class="st1" d="M494.06,527.89v-14.63c0-.1.08-.18.18-.18h11.14c4.11,0,7.49,3.37,7.49,7.49s-3.38,7.49-7.49,7.49h-11.14c-.09,0-.18-.08-.18-.17Z"/>
    <path class="st3" d="M494.41,527.72v-14.28h10.96c3.94,0,7.14,3.2,7.14,7.14s-3.2,7.14-7.14,7.14h-10.96ZM493.71,513.27v14.63c0,.28.24.52.53.52h11.14c4.32,0,7.84-3.52,7.84-7.84s-3.52-7.84-7.84-7.84h-11.14c-.29,0-.53.24-.53.53"/>
    <path class="st1" d="M494.41,527.72v-14.28h10.96c3.94,0,7.14,3.2,7.14,7.14s-3.2,7.14-7.14,7.14h-10.96ZM493.71,513.27v14.63c0,.28.24.52.53.52h11.14c4.32,0,7.84-3.52,7.84-7.84s-3.52-7.84-7.84-7.84h-11.14c-.29,0-.53.24-.53.53Z"/>
    <path class="st3" d="M505.39,520.58c0,1.06-.86,1.93-1.93,1.93s-1.93-.87-1.93-1.93.86-1.93,1.93-1.93,1.93.86,1.93,1.93M500.83,520.58c0,1.45,1.18,2.63,2.63,2.63s2.63-1.18,2.63-2.63-1.18-2.63-2.63-2.63-2.63,1.18-2.63,2.63"/>
    <path class="st1" d="M505.39,520.58c0,1.06-.86,1.93-1.93,1.93s-1.93-.87-1.93-1.93.86-1.93,1.93-1.93,1.93.86,1.93,1.93ZM500.83,520.58c0,1.45,1.18,2.63,2.63,2.63s2.63-1.18,2.63-2.63-1.18-2.63-2.63-2.63-2.63,1.18-2.63,2.63Z"/>
  </g>
  <rect class="st3" x="495.1" y="524.46" width="5.85" height=".7" transform="translate(-214.89 401.48) rotate(-36.69)"/>
  <rect class="st1" x="495.1" y="524.46" width="5.85" height=".7" transform="translate(-214.89 401.48) rotate(-36.69)"/>
  <polygon class="st3" points="495.48 514.99 500.16 518.5 500.58 517.94 495.9 514.43 495.48 514.99"/>
  <polygon class="st1" points="495.48 514.99 500.16 518.5 500.58 517.94 495.9 514.43 495.48 514.99"/>
  <g>
    <path class="st3" d="M488.4,527.62c0,1.56-1.27,2.83-2.83,2.83h-3.84c-1.56,0-2.83-1.27-2.83-2.83v-14.08c0-1.56,1.27-2.83,2.83-2.83h3.84c1.56,0,2.83,1.27,2.83,2.83v14.08ZM478.2,513.54v14.08c0,1.94,1.58,3.53,3.53,3.53h3.84c1.95,0,3.53-1.58,3.53-3.53v-14.08c0-1.94-1.58-3.53-3.53-3.53h-3.84c-1.95,0-3.53,1.58-3.53,3.53"/>
    <path class="st1" d="M488.4,527.62c0,1.56-1.27,2.83-2.83,2.83h-3.84c-1.56,0-2.83-1.27-2.83-2.83v-14.08c0-1.56,1.27-2.83,2.83-2.83h3.84c1.56,0,2.83,1.27,2.83,2.83v14.08ZM478.2,513.54v14.08c0,1.94,1.58,3.53,3.53,3.53h3.84c1.95,0,3.53-1.58,3.53-3.53v-14.08c0-1.94-1.58-3.53-3.53-3.53h-3.84c-1.95,0-3.53,1.58-3.53,3.53Z"/>
    <path class="st3" d="M484.74,520.58c0,.6-.49,1.09-1.1,1.09s-1.09-.49-1.09-1.09.49-1.09,1.09-1.09,1.1.49,1.1,1.09M481.85,520.58c0,.99.8,1.79,1.79,1.79s1.8-.8,1.8-1.79-.81-1.79-1.8-1.79-1.79.8-1.79,1.79"/>
    <path class="st1" d="M484.74,520.58c0,.6-.49,1.09-1.1,1.09s-1.09-.49-1.09-1.09.49-1.09,1.09-1.09,1.1.49,1.1,1.09ZM481.85,520.58c0,.99.8,1.79,1.79,1.79s1.8-.8,1.8-1.79-.81-1.79-1.8-1.79-1.79.8-1.79,1.79Z"/>
    <path class="st3" d="M492.25,468.82c-5.28,0-9.58,4.31-9.58,9.6v10.19c0,.8.65,1.46,1.46,1.46h21.65c.8,0,1.45-.65,1.45-1.46v-10.19c0-5.29-4.3-9.6-9.58-9.6h-5.4ZM505.77,490.6h-21.65c-1.1,0-1.99-.9-1.99-2v-10.19c0-5.59,4.54-10.14,10.11-10.14h5.4c5.58,0,10.12,4.55,10.12,10.14v10.19c0,1.1-.89,2-1.99,2"/>
    <path class="st1" d="M492.25,468.82c-5.28,0-9.58,4.31-9.58,9.6v10.19c0,.8.65,1.46,1.46,1.46h21.65c.8,0,1.45-.65,1.45-1.46v-10.19c0-5.29-4.3-9.6-9.58-9.6h-5.4ZM505.77,490.6h-21.65c-1.1,0-1.99-.9-1.99-2v-10.19c0-5.59,4.54-10.14,10.11-10.14h5.4c5.58,0,10.12,4.55,10.12,10.14v10.19c0,1.1-.89,2-1.99,2Z"/>
    <path class="st3" d="M492.24,471.22c-3.96,0-7.17,3.23-7.17,7.2v5.94c0,.69.56,1.26,1.25,1.26h17.26c.69,0,1.25-.57,1.25-1.26v-5.94c0-3.97-3.22-7.2-7.18-7.2h-5.41ZM503.58,486.17h-17.26c-.99,0-1.79-.81-1.79-1.8v-5.94c0-4.27,3.46-7.74,7.71-7.74h5.41c4.26,0,7.72,3.47,7.72,7.74v5.94c0,.99-.8,1.8-1.79,1.8"/>
    <path class="st1" d="M492.24,471.22c-3.96,0-7.17,3.23-7.17,7.2v5.94c0,.69.56,1.26,1.25,1.26h17.26c.69,0,1.25-.57,1.25-1.26v-5.94c0-3.97-3.22-7.2-7.18-7.2h-5.41ZM503.58,486.17h-17.26c-.99,0-1.79-.81-1.79-1.8v-5.94c0-4.27,3.46-7.74,7.71-7.74h5.41c4.26,0,7.72,3.47,7.72,7.74v5.94c0,.99-.8,1.8-1.79,1.8Z"/>
    <path class="st3" d="M494.95,476.26c-.66,0-1.2.54-1.2,1.21s.54,1.21,1.2,1.21,1.2-.54,1.2-1.21-.54-1.21-1.2-1.21M494.95,479.21c-.97,0-1.75-.79-1.75-1.75s.78-1.75,1.75-1.75,1.75.79,1.75,1.75-.78,1.75-1.75,1.75"/>
    <path class="st1" d="M494.95,476.26c-.66,0-1.2.54-1.2,1.21s.54,1.21,1.2,1.21,1.2-.54,1.2-1.21-.54-1.21-1.2-1.21ZM494.95,479.21c-.97,0-1.75-.79-1.75-1.75s.78-1.75,1.75-1.75,1.75.79,1.75,1.75-.78,1.75-1.75,1.75Z"/>
    <path class="st1" d="M460.82,473.68c.76,0,1.38-.63,1.38-1.4s-.62-1.4-1.38-1.4-1.38.63-1.38,1.4.62,1.4,1.38,1.4Z"/>
    <rect class="st1" x="444.4" y="399.66" width="32.84" height="87.23" rx="9.28" ry="9.28"/>
    <path class="st1" d="M456.74,405.71h8.15c5.12,0,9.28,4.16,9.28,9.28v56.56c0,5.12-4.16,9.28-9.28,9.28h-8.15c-5.12,0-9.28-4.16-9.28-9.28v-56.56c0-5.12,4.16-9.28,9.28-9.28Z"/>
    <path class="st1" d="M455.05,413.02h11.54c2.56,0,4.64,2.08,4.64,4.64v55.19c0,2.56-2.08,4.64-4.64,4.64h-11.54c-2.56,0-4.64-2.08-4.64-4.64v-55.19c0-2.56,2.08-4.64,4.64-4.64Z"/>
  </g>
  <polygon class="st1" points="479.98 490.31 479.98 490.31 479.98 396.24 441.66 396.24 441.66 490.31 479.98 490.31"/>
  <path class="st3" d="M524.27,436.1l-3.41,12.69h2.32l3.43-12.77v-2.03h-6.97v2.12h4.62ZM518.19,446.65h-2.32v2.14h2.32v-2.14ZM508.31,447.99c.62.64,1.5.97,2.64.97s1.99-.32,2.58-.97c.59-.64.88-1.56.88-2.75v-1.17c0-1.6-.54-2.64-1.62-3.11,1.08-.45,1.62-1.46,1.62-3.04v-.38c0-1.19-.29-2.11-.88-2.75-.59-.64-1.45-.97-2.58-.97s-2.01.32-2.64.97c-.62.64-.94,1.56-.94,2.75v.8h2.32v-.95c0-.97.4-1.46,1.19-1.46.4,0,.7.13.9.37.2.25.3.69.3,1.32v.83c0,.56-.12.97-.35,1.2-.23.24-.58.36-1.04.36h-.91v2.12h.79c.54,0,.92.15,1.16.43.24.29.36.77.36,1.44v1.17c0,.62-.1,1.05-.3,1.3-.2.25-.5.37-.9.37-.79,0-1.19-.49-1.19-1.46v-1.37h-2.32v1.23c0,1.19.31,2.11.94,2.75"/>
  <path class="st3" d="M537.67,412.25c0-.53.09-.92.28-1.16.19-.24.49-.37.9-.37h1.11v4.55h-.91c-.46,0-.81-.12-1.04-.36-.23-.24-.35-.64-.35-1.21v-1.46ZM537.44,423.41c.05-.17.09-.3.11-.39.02-.09.04-.25.07-.49.02-.24.04-.56.04-.93v-2.32c0-.68.12-1.17.36-1.45.24-.29.62-.44,1.15-.44h.81v6.03h2.32v-14.81h-3.51c-1.19,0-2.06.28-2.61.84-.55.56-.82,1.41-.82,2.57v1.17c0,1.53.51,2.53,1.52,3-.56.23-.95.61-1.19,1.13-.24.52-.35,1.19-.35,2.01v2.28c0,.8-.07,1.4-.22,1.8h2.32ZM530.43,411.26l1.12,7.45h-2.24l1.12-7.45ZM528.61,423.41l.4-2.69h2.85l.4,2.69h2.32l-2.36-14.81h-3.59l-2.36,14.81h2.32ZM520.19,423.41v-6.34h2.64v6.34h2.32v-14.81h-2.32v6.35h-2.64v-6.35h-2.32v14.81h2.32ZM511.17,423.41v-6.34h2.64v6.34h2.32v-14.81h-2.32v6.35h-2.64v-6.35h-2.32v14.81h2.32ZM503.78,411.26l1.12,7.45h-2.24l1.12-7.45ZM501.96,423.41l.4-2.69h2.85l.4,2.69h2.32l-2.36-14.81h-3.59l-2.36,14.81h2.32ZM493.99,410.72h1.13c.42,0,.72.12.9.37.19.24.28.63.28,1.16v.83c0,.56-.12.97-.35,1.2-.24.24-.58.36-1.05.36h-.91v-3.91ZM493.99,416.75h1.04c.54,0,.92.13,1.15.39.23.26.35.73.35,1.41v1.29c0,.53-.1.9-.3,1.12-.2.22-.5.33-.91.33h-1.33v-4.54ZM495.32,423.41c1.16,0,2.03-.3,2.63-.9.6-.6.9-1.47.9-2.61v-1.21c0-1.67-.58-2.72-1.73-3.17,1.01-.48,1.51-1.47,1.51-2.98v-.53c0-1.16-.28-2.01-.83-2.57-.55-.56-1.43-.84-2.62-.84h-3.51v14.81h3.66Z"/>
  <path class="st3" d="M539.03,538.2c.62.64,1.5.97,2.64.97s1.99-.32,2.58-.97c.59-.64.88-1.56.88-2.75v-1.17c0-1.6-.54-2.64-1.62-3.11,1.08-.45,1.62-1.46,1.62-3.05v-.38c0-1.19-.29-2.11-.88-2.75-.59-.64-1.45-.97-2.58-.97s-2.01.32-2.64.97c-.62.64-.94,1.56-.94,2.75v.8h2.32v-.95c0-.97.4-1.46,1.19-1.46.4,0,.7.12.9.37.2.25.3.69.3,1.32v.83c0,.56-.12.97-.35,1.2-.23.24-.58.35-1.04.35h-.91v2.12h.79c.54,0,.92.15,1.16.43.24.29.36.77.36,1.44v1.17c0,.62-.1,1.05-.3,1.3-.2.25-.5.37-.9.37-.8,0-1.19-.49-1.19-1.46v-1.37h-2.32v1.23c0,1.19.31,2.11.94,2.75M536.61,536.86h-2.32v2.14h2.32v-2.14ZM529.15,527.7v11.3h2.32v-14.81h-1.57c-.09.24-.17.44-.24.58-.07.15-.17.31-.31.49-.13.18-.28.33-.45.42-.16.1-.38.18-.65.26-.27.07-.57.11-.92.11v1.64h1.81Z"/>
  <path class="st3" d="M542.59,514.61l-.02.13c-.09.51-.3.84-.62,1.01-.33.16-.8.23-1.44.19v2.1c.63.04,1.17.02,1.64-.07.47-.09.86-.22,1.19-.41.32-.19.6-.45.83-.78.23-.34.41-.7.55-1.1.14-.4.27-.88.38-1.45l2.49-11.02h-2.32l-1.06,5.08-.55,3.43-.72-3.46-1.25-5.05h-2.32l3.23,11.39ZM533.26,518.02l5.83-14.81h-2.01l-5.83,14.81h2.01ZM524.53,517.22c.59.64,1.45.97,2.59.97s2.02-.32,2.65-.97c.62-.64.94-1.56.94-2.75v-1.97h-2.32v2.12c0,.96-.4,1.44-1.2,1.44s-1.21-.48-1.21-1.44v-7.99c0-.97.4-1.46,1.21-1.46s1.2.49,1.2,1.46v1.59h2.32v-1.44c0-1.19-.31-2.11-.94-2.75-.63-.64-1.51-.97-2.65-.97s-2,.32-2.59.97c-.59.64-.88,1.56-.88,2.75v7.7c0,1.19.29,2.11.88,2.75"/>
  <path class="st3" d="M543.95,306.19v11.3h2.32v-14.81h-1.57c-.09.24-.17.44-.24.58-.07.15-.17.31-.3.49-.13.18-.28.33-.45.42-.16.1-.38.18-.65.26-.27.07-.58.11-.92.11v1.64h1.81ZM539.12,315.35h-2.32v2.14h2.32v-2.14ZM535.14,317.48v-2.12h-4.38c-.02-.07-.02-.17-.02-.32,0-.32.09-.66.26-1,.17-.35.39-.68.66-1,.27-.32.57-.66.9-1.02.33-.35.66-.74.98-1.15.33-.41.62-.84.89-1.29.27-.45.49-.96.66-1.54.17-.58.26-1.19.26-1.82,0-1.19-.29-2.11-.88-2.75-.59-.64-1.45-.97-2.57-.97s-1.99.32-2.59.97c-.6.64-.9,1.56-.9,2.75v1.44h2.22v-1.59c0-.97.4-1.46,1.2-1.46.4,0,.69.12.9.37.2.25.3.69.3,1.32,0,.58-.08,1.12-.25,1.63-.17.51-.39.95-.66,1.34-.27.39-.57.76-.9,1.13-.33.37-.66.73-.99,1.1-.33.37-.63.75-.9,1.13-.27.39-.49.84-.66,1.36-.17.52-.25,1.07-.25,1.66v1.82h6.72ZM523.28,306.19v11.3h2.32v-14.81h-1.57c-.09.24-.17.44-.24.58-.07.15-.17.31-.31.49-.13.18-.28.33-.45.42-.16.1-.38.18-.65.26-.27.07-.57.11-.92.11v1.64h1.81Z"/>
  <path class="st3" d="M586.49,279.96l1.12,7.45h-2.24l1.12-7.45ZM584.66,292.11l.4-2.69h2.85l.4,2.69h2.32l-2.36-14.81h-3.59l-2.36,14.81h2.32ZM577.18,279.42v12.69h2.32v-12.69h2.44v-2.12h-7.2v2.12h2.44ZM570.36,279.96l1.12,7.45h-2.24l1.12-7.45ZM568.54,292.11l.4-2.69h2.85l.4,2.69h2.32l-2.36-14.81h-3.59l-2.36,14.81h2.32ZM560.12,292.11v-6.34h2.64v6.34h2.32v-14.81h-2.32v6.35h-2.64v-6.35h-2.32v14.81h2.32ZM548.37,292.11v-10.44l1.74,10.44h2.2l1.61-10.61v10.61h2.32v-14.81h-3.35l-1.59,10.55-1.72-10.55h-3.23v14.81h2.02ZM540.12,280.71c0-.97.4-1.46,1.21-1.46s1.2.49,1.2,1.46v7.99c0,.98-.4,1.46-1.2,1.46s-1.21-.49-1.21-1.46v-7.99ZM538.72,291.3c.61.65,1.48.97,2.62.97s2.01-.32,2.61-.97c.61-.65.91-1.56.91-2.75v-7.7c0-1.18-.3-2.1-.91-2.75-.61-.65-1.48-.97-2.61-.97s-2.01.32-2.62.97c-.61.65-.91,1.56-.91,2.75v7.7c0,1.18.3,2.1.91,2.75M531.57,292.11v-4.54l.72-1.35,2.26,5.9h2.38l-3.23-8.21,3.23-6.6h-2.32l-3.05,6.45v-6.45h-2.32v14.81h2.32ZM519.66,280.95c0-.53.09-.92.28-1.16.19-.24.49-.37.9-.37h1.11v4.55h-.91c-.46,0-.81-.12-1.04-.36-.23-.24-.35-.64-.35-1.21v-1.46ZM519.42,292.11c.06-.17.09-.3.11-.39.02-.09.04-.25.07-.49.02-.24.04-.56.04-.93v-2.32c0-.68.12-1.17.36-1.45.24-.29.62-.44,1.15-.44h.8v6.03h2.32v-14.81h-3.51c-1.19,0-2.06.28-2.61.84-.55.56-.83,1.41-.83,2.57v1.17c0,1.53.51,2.53,1.52,3-.56.23-.95.61-1.19,1.13-.24.52-.35,1.19-.35,2.01v2.28c0,.8-.07,1.4-.22,1.8h2.32ZM512.42,279.96l1.13,7.45h-2.24l1.12-7.45ZM510.6,292.11l.4-2.69h2.85l.4,2.69h2.32l-2.36-14.81h-3.59l-2.36,14.81h2.32ZM499.09,292.13c1.16,0,2.01-.29,2.54-.87.53-.58.81-1.54.85-2.89l.26-8.95h2.01v12.69h2.32v-14.81h-6.66l-.26,11.19c-.01.34-.04.62-.09.82-.05.2-.13.35-.26.46-.12.11-.26.17-.42.2-.16.03-.38.04-.66.04v2.12h.36ZM492.73,292.11l1.96-6.78.94-3.63v10.41h2.32v-14.81h-2.79l-1.9,6.11-.84,3.26v-9.38h-2.08v14.81h2.38ZM479.23,292.11l2.12-6.6.57,1.15v5.45h2.32v-5.42l.58-1.12,2.11,6.55h2.32l-2.85-8.77,2.85-6.04h-2.26l-2.75,5.99v-5.99h-2.32v5.99l-2.75-5.99h-2.26l2.89,6.07-2.89,8.73h2.32Z"/>
  <path class="st3" d="M542.78,757.23c0-.62.12-1.06.35-1.31.23-.26.55-.38.97-.38s.73.13.96.38c.23.25.34.69.34,1.32v.83c0,1.04-.44,1.56-1.31,1.56s-1.32-.52-1.32-1.56v-.83ZM542.78,763.41c0-1.12.44-1.67,1.32-1.67s1.31.56,1.31,1.67v1.37c0,.62-.13,1.05-.35,1.3-.23.25-.55.37-.95.37s-.74-.13-.97-.38c-.23-.25-.35-.68-.35-1.3v-1.37ZM541.39,767.59c.63.65,1.53.97,2.7.97s2.07-.32,2.69-.97c.62-.65.94-1.56.94-2.75v-1.17c0-1.51-.48-2.54-1.44-3.09.96-.54,1.44-1.53,1.44-2.97v-.48c0-1.18-.31-2.1-.94-2.75-.62-.65-1.52-.97-2.69-.97s-2.07.32-2.7.97c-.63.65-.94,1.56-.94,2.75v.48c0,1.46.48,2.45,1.44,2.97-.96.54-1.44,1.57-1.44,3.09v1.17c0,1.18.31,2.1.94,2.75M539.15,766.26h-2.32v2.14h2.32v-2.14ZM535.18,768.39v-2.12h-4.38c-.02-.07-.02-.17-.02-.32,0-.32.09-.66.26-1,.17-.35.39-.68.66-1,.27-.32.57-.66.9-1.02.33-.35.66-.74.98-1.15.33-.41.62-.84.89-1.29.27-.45.49-.96.66-1.54.17-.58.26-1.19.26-1.82,0-1.19-.29-2.11-.88-2.75-.59-.64-1.45-.97-2.57-.97s-1.99.32-2.59.97c-.6.64-.9,1.56-.9,2.75v1.44h2.22v-1.59c0-.97.4-1.46,1.2-1.46.4,0,.69.12.9.37.2.25.3.69.3,1.32,0,.58-.08,1.12-.25,1.63-.17.51-.39.95-.66,1.34-.27.39-.57.76-.9,1.13s-.66.73-.99,1.1c-.33.37-.63.75-.9,1.13-.27.39-.49.84-.66,1.36-.17.52-.25,1.07-.25,1.66v1.82h6.72ZM523.32,757.1v11.3h2.32v-14.81h-1.57c-.09.24-.17.44-.24.58-.07.15-.17.31-.31.49-.13.18-.28.33-.45.42-.16.1-.38.18-.65.26-.27.07-.57.11-.92.11v1.64h1.81Z"/>
  <path class="st3" d="M586.52,730.87l1.12,7.45h-2.24l1.12-7.45ZM584.7,743.02l.4-2.69h2.85l.4,2.69h2.32l-2.36-14.81h-3.59l-2.36,14.81h2.32ZM577.22,730.33v12.69h2.32v-12.69h2.44v-2.12h-7.2v2.12h2.44ZM570.4,730.87l1.12,7.45h-2.24l1.12-7.45ZM568.57,743.02l.4-2.69h2.85l.4,2.69h2.32l-2.36-14.81h-3.59l-2.36,14.81h2.32ZM560.16,743.02v-6.34h2.64v6.34h2.32v-14.81h-2.32v6.35h-2.64v-6.35h-2.32v14.81h2.32ZM548.41,743.02v-10.44l1.74,10.44h2.2l1.61-10.61v10.61h2.32v-14.81h-3.35l-1.59,10.55-1.72-10.55h-3.23v14.81h2.02ZM540.16,731.62c0-.97.4-1.46,1.21-1.46s1.2.49,1.2,1.46v7.99c0,.98-.4,1.46-1.2,1.46s-1.21-.49-1.21-1.46v-7.99ZM538.75,742.22c.61.65,1.48.97,2.62.97s2.01-.32,2.61-.97c.61-.65.91-1.56.91-2.75v-7.7c0-1.18-.3-2.1-.91-2.75s-1.48-.97-2.61-.97-2.01.32-2.62.97c-.61.65-.91,1.56-.91,2.75v7.7c0,1.18.3,2.1.91,2.75M531.61,743.02v-4.54l.72-1.35,2.26,5.9h2.38l-3.23-8.21,3.23-6.6h-2.32l-3.05,6.45v-6.45h-2.32v14.81h2.32ZM519.7,731.86c0-.53.09-.92.28-1.16.19-.24.49-.37.9-.37h1.12v4.55h-.91c-.46,0-.81-.12-1.04-.36-.23-.24-.35-.64-.35-1.21v-1.46ZM519.46,743.02c.06-.17.09-.3.11-.39.02-.09.04-.25.07-.49.02-.24.04-.56.04-.93v-2.32c0-.68.12-1.17.36-1.46.24-.29.62-.44,1.15-.44h.8v6.03h2.32v-14.81h-3.51c-1.19,0-2.06.28-2.61.84-.55.56-.83,1.41-.83,2.57v1.17c0,1.53.51,2.53,1.52,3-.56.23-.95.61-1.19,1.13-.24.52-.35,1.19-.35,2.01v2.28c0,.8-.07,1.4-.22,1.8h2.32ZM512.45,730.87l1.13,7.45h-2.24l1.12-7.45ZM510.63,743.02l.4-2.69h2.85l.4,2.69h2.32l-2.36-14.81h-3.59l-2.36,14.81h2.32ZM499.13,743.04c1.16,0,2.01-.29,2.54-.87.53-.58.81-1.54.85-2.89l.26-8.95h2.01v12.69h2.32v-14.81h-6.66l-.26,11.19c-.01.34-.04.62-.09.82-.05.2-.13.35-.26.46-.12.11-.26.17-.42.2-.16.03-.38.04-.66.04v2.12h.36ZM492.77,743.02l1.96-6.78.94-3.63v10.41h2.32v-14.81h-2.79l-1.9,6.11-.84,3.26v-9.38h-2.08v14.81h2.38ZM479.27,743.02l2.12-6.6.57,1.15v5.45h2.32v-5.42l.58-1.12,2.11,6.55h2.32l-2.85-8.77,2.85-6.04h-2.26l-2.75,5.99v-5.99h-2.32v5.99l-2.75-5.99h-2.26l2.89,6.07-2.89,8.73h2.32Z"/>
  <path class="st3" d="M543.29,638.3v-2.12h-4.38c-.01-.07-.02-.18-.02-.32,0-.32.09-.66.26-1,.17-.35.39-.68.66-1,.27-.33.57-.66.9-1.02.33-.35.66-.74.98-1.15s.62-.84.9-1.28c.27-.45.49-.96.66-1.54.17-.58.26-1.19.26-1.82,0-1.19-.29-2.11-.88-2.75-.59-.64-1.45-.97-2.57-.97s-1.99.32-2.58.97c-.6.64-.9,1.56-.9,2.75v1.44h2.22v-1.59c0-.97.4-1.45,1.2-1.45.4,0,.69.12.89.37.2.25.3.69.3,1.32,0,.58-.08,1.12-.25,1.63-.17.51-.39.95-.66,1.34-.27.38-.57.76-.9,1.12-.33.37-.66.73-.99,1.1-.33.37-.63.75-.9,1.14-.27.39-.49.84-.66,1.36-.17.52-.26,1.07-.26,1.66v1.82h6.72ZM534.97,636.16h-2.32v2.14h2.32v-2.14ZM526.45,632.23c0-.97.4-1.46,1.21-1.46s1.2.49,1.2,1.46v2.66c0,.96-.4,1.44-1.2,1.44s-1.21-.48-1.21-1.44v-2.66ZM525.04,637.5c.61.65,1.48.97,2.62.97s2-.32,2.61-.97c.61-.65.91-1.56.91-2.75v-2.71c0-1.1-.22-1.94-.65-2.52-.43-.58-1.07-.87-1.92-.87-1.02,0-1.74.44-2.16,1.31v-2.71c0-.68.1-1.15.31-1.41.21-.27.53-.4.98-.4.8,0,1.21.48,1.21,1.45v.53h2.19v-.38c0-1.19-.29-2.11-.88-2.75-.59-.64-1.45-.97-2.58-.97-2.37,0-3.55,1.28-3.55,3.85v7.57c0,1.19.3,2.1.91,2.75"/>
  <path class="st3" d="M574.04,600.78l1.12,7.45h-2.24l1.12-7.45ZM572.22,612.93l.4-2.69h2.85l.4,2.69h2.32l-2.36-14.81h-3.59l-2.36,14.81h2.32ZM568.82,612.93v-14.81h-2.32v12.69h-2.01v-12.69h-2.32v12.69h-2.01v-12.69h-2.32v14.81h11ZM551.19,612.93l1.96-6.78.94-3.63v10.41h2.32v-14.81h-2.79l-1.9,6.11-.84,3.26v-9.38h-2.08v14.81h2.38ZM542.1,612.93v-6.34h2.64v6.34h2.32v-14.81h-2.32v6.35h-2.64v-6.35h-2.32v14.81h2.32ZM538.2,604.47h-4.22v2.12h4.22v-2.12ZM527.76,601.77c0-.53.09-.92.28-1.16.19-.24.49-.37.9-.37h1.12v4.55h-.91c-.46,0-.81-.12-1.04-.36-.23-.24-.35-.64-.35-1.21v-1.46ZM527.53,612.93c.06-.17.09-.3.11-.39.02-.09.04-.25.07-.49.02-.24.04-.56.04-.93v-2.32c0-.68.12-1.17.36-1.45.24-.29.63-.44,1.16-.44h.8v6.03h2.32v-14.81h-3.51c-1.19,0-2.06.28-2.61.84-.55.56-.83,1.41-.83,2.57v1.17c0,1.53.51,2.53,1.52,3-.56.23-.95.61-1.19,1.13-.23.52-.35,1.19-.35,2.01v2.28c0,.8-.07,1.4-.22,1.8h2.32ZM518.88,612.93v-6.34h2.64v6.34h2.32v-14.81h-2.32v6.35h-2.64v-6.35h-2.32v14.81h2.32ZM509.27,612.93l1.81-5.51,1.79,5.51h2.32l-2.59-7.54,2.43-7.26h-2.04l-1.79,5.49-1.76-5.49h-2.32l2.43,7.18-2.6,7.63h2.32ZM501.4,609.51l-.02.13c-.09.51-.3.85-.62,1.01-.32.16-.8.23-1.44.19v2.1c.62.04,1.17.02,1.64-.07.47-.09.86-.22,1.19-.41.32-.19.6-.45.83-.78.23-.34.41-.7.55-1.1.14-.4.27-.88.38-1.45l2.49-11.02h-2.32l-1.06,5.08-.55,3.43-.72-3.46-1.26-5.05h-2.32l3.23,11.39ZM492.43,612.93v-4.54l.72-1.35,2.26,5.9h2.38l-3.23-8.21,3.23-6.6h-2.32l-3.05,6.45v-6.45h-2.32v14.81h2.32Z"/>
  <path class="st3" d="M742.87,710.23c0-.97.4-1.46,1.21-1.46s1.2.49,1.2,1.46v7.99c0,.98-.4,1.46-1.2,1.46s-1.21-.49-1.21-1.46v-7.99ZM741.46,720.83c.61.65,1.48.97,2.62.97s2.01-.32,2.61-.97c.61-.65.91-1.56.91-2.75v-7.7c0-1.18-.3-2.1-.91-2.75-.61-.65-1.48-.97-2.61-.97s-2.01.32-2.62.97c-.61.65-.91,1.56-.91,2.75v7.7c0,1.18.3,2.1.91,2.75M739.14,719.49h-2.32v2.14h2.32v-2.14ZM730.53,710.23c0-.96.4-1.43,1.2-1.43s1.21.48,1.21,1.43v2.66c0,.97-.4,1.46-1.21,1.46s-1.2-.48-1.2-1.46v-2.66ZM728.86,715.6c.43.58,1.07.87,1.92.87,1.03,0,1.75-.44,2.17-1.31v2.71c0,.68-.11,1.15-.32,1.42-.21.27-.54.41-.97.41-.81,0-1.21-.49-1.21-1.46v-.53h-2.19v.38c0,1.19.29,2.11.89,2.75.59.64,1.45.97,2.58.97,2.37,0,3.56-1.28,3.56-3.84v-7.58c0-1.18-.31-2.1-.91-2.75-.61-.65-1.48-.97-2.62-.97s-2.01.32-2.62.97c-.6.65-.91,1.56-.91,2.75v2.71c0,1.1.22,1.93.65,2.51M723.31,710.34v11.3h2.32v-14.81h-1.57c-.09.24-.17.44-.24.58-.07.15-.17.31-.31.49-.13.18-.28.33-.45.42-.16.1-.38.18-.65.26-.27.07-.57.11-.92.11v1.64h1.81Z"/>
  <path class="st3" d="M786.51,684.11l1.12,7.45h-2.24l1.12-7.45ZM784.69,696.26l.4-2.69h2.85l.4,2.69h2.32l-2.36-14.81h-3.59l-2.36,14.81h2.32ZM777.2,683.57v12.69h2.32v-12.69h2.44v-2.12h-7.2v2.12h2.44ZM770.38,684.11l1.12,7.45h-2.24l1.12-7.45ZM768.56,696.26l.4-2.69h2.85l.4,2.69h2.32l-2.36-14.81h-3.59l-2.36,14.81h2.32ZM760.15,696.26v-6.34h2.64v6.34h2.32v-14.81h-2.32v6.35h-2.64v-6.35h-2.32v14.81h2.32ZM748.4,696.26v-10.44l1.74,10.44h2.2l1.61-10.61v10.61h2.32v-14.81h-3.35l-1.59,10.55-1.72-10.55h-3.23v14.81h2.02ZM740.15,684.86c0-.97.4-1.46,1.21-1.46s1.2.49,1.2,1.46v7.99c0,.98-.4,1.46-1.2,1.46s-1.21-.49-1.21-1.46v-7.99ZM738.74,695.45c.61.65,1.48.97,2.62.97s2.01-.32,2.61-.97c.61-.65.91-1.56.91-2.75v-7.7c0-1.18-.3-2.1-.91-2.75-.61-.65-1.48-.97-2.61-.97s-2.01.32-2.62.97c-.61.65-.91,1.56-.91,2.75v7.7c0,1.18.3,2.1.91,2.75M731.6,696.26v-4.54l.72-1.35,2.26,5.9h2.38l-3.23-8.21,3.23-6.6h-2.32l-3.05,6.45v-6.45h-2.32v14.81h2.32ZM719.69,685.1c0-.53.09-.92.28-1.16.19-.24.49-.37.9-.37h1.12v4.55h-.91c-.46,0-.81-.12-1.04-.36-.23-.24-.35-.64-.35-1.21v-1.46ZM719.45,696.26c.06-.17.09-.3.11-.39.02-.09.04-.25.07-.49.02-.24.04-.56.04-.93v-2.32c0-.68.12-1.17.36-1.45.24-.29.62-.44,1.15-.44h.81v6.03h2.32v-14.81h-3.51c-1.19,0-2.06.28-2.61.84-.55.56-.83,1.41-.83,2.57v1.17c0,1.53.51,2.53,1.52,3-.56.23-.95.61-1.19,1.13-.24.52-.35,1.19-.35,2.01v2.28c0,.8-.07,1.4-.22,1.8h2.32ZM712.44,684.11l1.13,7.45h-2.24l1.12-7.45ZM710.62,696.26l.4-2.69h2.85l.4,2.69h2.32l-2.36-14.81h-3.59l-2.36,14.81h2.32ZM699.12,696.28c1.16,0,2.01-.29,2.54-.87.53-.58.81-1.54.85-2.89l.26-8.95h2.01v12.69h2.32v-14.81h-6.66l-.26,11.19c-.01.34-.04.62-.09.82-.05.2-.13.35-.26.46-.12.11-.26.17-.42.2-.16.03-.38.04-.66.04v2.12h.36ZM692.76,696.26l1.96-6.78.94-3.63v10.41h2.32v-14.81h-2.79l-1.9,6.11-.84,3.26v-9.38h-2.08v14.81h2.38ZM679.26,696.26l2.12-6.6.57,1.15v5.45h2.32v-5.42l.58-1.12,2.11,6.55h2.32l-2.85-8.77,2.85-6.04h-2.26l-2.75,5.99v-5.99h-2.32v5.99l-2.75-5.99h-2.26l2.89,6.07-2.89,8.73h2.32Z"/>
  <path class="st3" d="M747.36,321.89c1.43,1.47,3.44,2.21,6.03,2.21s4.56-.74,5.9-2.21c1.34-1.47,2.02-3.57,2.02-6.29v-7.55c0-2.52-.49-4.43-1.47-5.74-.98-1.32-2.45-1.97-4.4-1.97-2.1,0-3.64.82-4.63,2.45l.42-8.07h9.23v-4.84h-14.22l-1.02,19.63h5.31v-1.02c0-2.22.91-3.33,2.72-3.33s2.75,1.11,2.75,3.33v7.43c0,2.2-.92,3.3-2.75,3.3s-2.72-1.1-2.72-3.3v-3.14h-5.31v2.81c0,2.72.71,4.82,2.14,6.29M741.79,318.83h-5.31v4.88h5.31v-4.88ZM722.33,309.84c0-2.22.92-3.33,2.76-3.33s2.74,1.11,2.74,3.33v6.09c0,2.2-.91,3.3-2.74,3.3s-2.76-1.1-2.76-3.3v-6.09ZM719.1,321.88c1.39,1.48,3.38,2.22,5.98,2.22s4.58-.74,5.97-2.22c1.39-1.48,2.08-3.57,2.08-6.28v-6.18c0-2.52-.49-4.44-1.48-5.76-.99-1.32-2.45-1.98-4.39-1.98-2.34,0-3.99,1-4.93,3v-6.18c0-1.54.24-2.62.72-3.23.48-.61,1.22-.92,2.23-.92,1.84,0,2.76,1.11,2.76,3.33v1.2h5v-.87c0-2.72-.68-4.82-2.02-6.29s-3.31-2.21-5.88-2.21c-5.41,0-8.12,2.93-8.12,8.8v17.3c0,2.71.7,4.8,2.09,6.28M702.83,298.21c0-1.42.26-2.41.79-3,.53-.58,1.27-.87,2.21-.87s1.68.29,2.2.86c.52.57.78,1.58.78,3.01v1.89c0,2.38-.99,3.56-2.98,3.56s-3.01-1.19-3.01-3.56v-1.89ZM702.83,312.32c0-2.55,1-3.82,3.01-3.82s2.98,1.28,2.98,3.82v3.14c-.02,1.42-.28,2.41-.8,2.97-.52.57-1.25.85-2.18.85s-1.69-.29-2.21-.86c-.53-.57-.79-1.56-.79-2.96v-3.14ZM699.67,321.88c1.43,1.48,3.49,2.22,6.17,2.22s4.73-.74,6.16-2.22c1.43-1.48,2.14-3.57,2.14-6.28v-2.67c0-3.46-1.1-5.81-3.29-7.06,2.19-1.23,3.29-3.49,3.29-6.8v-1.09c0-2.71-.71-4.8-2.14-6.28-1.43-1.48-3.48-2.22-6.16-2.22s-4.74.74-6.17,2.22c-1.43,1.48-2.15,3.57-2.15,6.28v1.09c0,3.34,1.1,5.6,3.29,6.8-2.19,1.24-3.29,3.6-3.29,7.06v2.67c0,2.71.71,4.8,2.15,6.28"/>
  <circle class="st1" cx="729.46" cy="250.37" r="29.62" transform="translate(219 828.49) rotate(-67.5)"/>
  <path class="st3" d="M730.75,262.71c1.02,1.11,2.52,1.67,4.49,1.67s3.5-.56,4.58-1.67c1.08-1.11,1.62-2.7,1.62-4.76v-3.41h-4.02v3.66c0,1.67-.69,2.5-2.08,2.5s-2.1-.83-2.1-2.5v-13.83c0-1.68.7-2.52,2.1-2.52s2.08.84,2.08,2.52v2.75h4.02v-2.5c0-2.06-.54-3.65-1.62-4.76-1.08-1.11-2.61-1.67-4.58-1.67s-3.47.56-4.49,1.67c-1.02,1.11-1.53,2.7-1.53,4.76v13.33c0,2.06.51,3.65,1.53,4.76M721.87,246.15v9.63h-4.06l4.06-9.63ZM721.87,259.45v4.64h4.02v-4.64h1.84v-3.66h-1.84v-17.31h-4.4l-7.31,17.31v3.66h7.68Z"/>
  <path class="st3" d="M758.15,919.73c1.17,0,2.01-.24,2.51-.73.5-.49.75-1.32.75-2.5v-8.33c0-1.18-.25-2.01-.75-2.5-.5-.49-1.34-.74-2.51-.74h-.71v2.01h.57c.39,0,.66.09.83.28.17.18.25.53.25,1.03v8.17c0,.5-.08.84-.25,1.03-.17.18-.44.28-.83.28h-.57v2.01h.71ZM756.29,919.73v-2.12h-4.38c-.02-.07-.02-.18-.02-.32,0-.32.09-.66.26-1,.17-.34.39-.68.66-1,.27-.32.57-.66.9-1.02.33-.36.66-.74.98-1.15.33-.41.62-.84.89-1.28.27-.45.49-.96.66-1.54.17-.58.26-1.19.26-1.82,0-1.19-.29-2.11-.88-2.75-.59-.64-1.45-.96-2.57-.96s-1.99.32-2.59.96c-.6.64-.9,1.56-.9,2.75v1.44h2.22v-1.59c0-.97.4-1.46,1.2-1.46.4,0,.7.12.9.37.2.25.3.69.3,1.32,0,.58-.08,1.12-.25,1.63-.17.51-.39.95-.66,1.34-.27.38-.57.76-.9,1.13-.33.37-.66.73-.99,1.1-.33.37-.63.75-.9,1.13-.27.39-.49.84-.66,1.36-.17.52-.26,1.07-.26,1.66v1.82h6.72ZM747.97,917.59h-2.32v2.14h2.32v-2.14ZM744,919.73v-2.12h-4.38c-.02-.07-.02-.18-.02-.32,0-.32.09-.66.26-1,.17-.34.39-.68.66-1,.27-.32.57-.66.9-1.02.33-.36.66-.74.98-1.15.33-.41.62-.84.89-1.28.27-.45.49-.96.66-1.54.17-.58.26-1.19.26-1.82,0-1.19-.29-2.11-.88-2.75-.59-.64-1.45-.96-2.57-.96s-1.99.32-2.59.96c-.6.64-.9,1.56-.9,2.75v1.44h2.22v-1.59c0-.97.4-1.46,1.2-1.46.4,0,.69.12.9.37.2.25.3.69.3,1.32,0,.58-.08,1.12-.25,1.63-.17.51-.39.95-.66,1.34-.27.38-.57.76-.9,1.13-.33.37-.66.73-.99,1.1-.33.37-.63.75-.9,1.13-.27.39-.49.84-.66,1.36-.17.52-.25,1.07-.25,1.66v1.82h6.72ZM732.87,918.99c.5.49,1.34.73,2.51.73h.71v-2.01h-.57c-.39,0-.66-.09-.83-.28-.16-.19-.25-.53-.25-1.03v-8.17c0-.5.08-.84.25-1.03.17-.19.44-.28.83-.28h.57v-2.01h-.71c-1.17,0-2.01.25-2.51.74-.5.49-.75,1.33-.75,2.5v8.33c0,1.18.25,2.01.75,2.5M727.04,919.73v-2.12h-4.38c-.01-.07-.02-.18-.02-.32,0-.32.09-.66.26-1,.17-.34.39-.68.66-1,.27-.32.57-.66.9-1.02.33-.36.66-.74.98-1.15.33-.41.62-.84.9-1.28.27-.45.49-.96.66-1.54.17-.58.26-1.19.26-1.82,0-1.19-.29-2.11-.88-2.75-.59-.64-1.45-.96-2.57-.96s-1.99.32-2.58.96c-.6.64-.9,1.56-.9,2.75v1.44h2.22v-1.59c0-.97.4-1.46,1.2-1.46.4,0,.69.12.89.37.2.25.3.69.3,1.32,0,.58-.08,1.12-.25,1.63-.17.51-.39.95-.66,1.34-.27.38-.57.76-.9,1.13-.33.37-.66.73-.99,1.1-.33.37-.63.75-.9,1.13-.27.39-.49.84-.66,1.36-.17.52-.25,1.07-.25,1.66v1.82h6.72ZM718.72,917.59h-2.32v2.14h2.32v-2.14ZM711.96,909.36v5.57h-2.34l2.34-5.57ZM711.96,917.04v2.69h2.32v-2.69h1.06v-2.12h-1.06v-10h-2.54l-4.22,10v2.12h4.44Z"/>
  <path class="st3" d="M743.18,373.86v-2.12h-4.38c-.02-.07-.02-.17-.02-.32,0-.32.09-.66.26-1,.17-.35.39-.68.66-1,.27-.32.57-.66.9-1.02.33-.35.66-.74.98-1.15.33-.41.62-.84.89-1.29.27-.45.49-.96.66-1.54.17-.58.26-1.19.26-1.82,0-1.19-.29-2.11-.88-2.75-.59-.64-1.45-.97-2.57-.97s-1.99.32-2.59.97c-.6.64-.9,1.56-.9,2.75v1.44h2.22v-1.59c0-.97.4-1.46,1.2-1.46.4,0,.7.12.9.37.2.25.3.69.3,1.32,0,.58-.08,1.12-.25,1.63-.17.51-.39.95-.66,1.34-.27.39-.57.76-.9,1.13-.33.37-.66.73-.99,1.1-.33.37-.63.75-.9,1.13-.27.39-.49.84-.66,1.36-.17.52-.26,1.07-.26,1.66v1.82h6.72ZM734.86,371.73h-2.32v2.14h2.32v-2.14ZM728.09,363.5v5.56h-2.34l2.34-5.56ZM728.09,371.18v2.69h2.32v-2.69h1.06v-2.12h-1.06v-10h-2.54l-4.22,10v2.12h4.44ZM719.02,362.57v11.3h2.32v-14.81h-1.57c-.09.24-.17.44-.24.58-.07.15-.17.31-.31.49-.13.18-.28.33-.45.42-.16.1-.38.18-.65.26-.27.07-.57.11-.92.11v1.64h1.81Z"/>
  <path class="st3" d="M782.23,336.34l1.12,7.45h-2.24l1.12-7.45ZM780.4,348.49l.4-2.69h2.85l.4,2.69h2.32l-2.36-14.81h-3.59l-2.36,14.81h2.32ZM772.92,335.8v12.69h2.32v-12.69h2.44v-2.12h-7.2v2.12h2.44ZM766.1,336.34l1.12,7.45h-2.24l1.12-7.45ZM764.28,348.49l.4-2.69h2.85l.4,2.69h2.32l-2.36-14.81h-3.59l-2.36,14.81h2.32ZM755.86,348.49v-6.34h2.64v6.34h2.32v-14.81h-2.32v6.35h-2.64v-6.35h-2.32v14.81h2.32ZM744.11,348.49v-10.44l1.74,10.44h2.2l1.61-10.61v10.61h2.32v-14.81h-3.35l-1.59,10.55-1.72-10.55h-3.23v14.81h2.02ZM735.86,337.09c0-.97.4-1.46,1.21-1.46s1.2.49,1.2,1.46v7.99c0,.98-.4,1.46-1.2,1.46s-1.21-.49-1.21-1.46v-7.99ZM734.46,347.69c.61.65,1.48.97,2.62.97s2.01-.32,2.61-.97c.61-.65.91-1.56.91-2.75v-7.7c0-1.18-.3-2.1-.91-2.75-.61-.65-1.48-.97-2.61-.97s-2.01.32-2.62.97c-.61.65-.91,1.56-.91,2.75v7.7c0,1.18.3,2.1.91,2.75M727.31,348.49v-4.54l.72-1.35,2.26,5.9h2.38l-3.23-8.21,3.23-6.6h-2.32l-3.05,6.45v-6.45h-2.32v14.81h2.32ZM715.4,337.33c0-.53.09-.92.28-1.16.19-.24.49-.37.9-.37h1.12v4.55h-.91c-.46,0-.81-.12-1.04-.36-.23-.24-.35-.64-.35-1.21v-1.46ZM715.16,348.49c.06-.17.09-.3.11-.39.02-.09.04-.25.07-.49.02-.24.04-.56.04-.93v-2.32c0-.68.12-1.17.36-1.45.24-.29.62-.44,1.15-.44h.81v6.03h2.32v-14.81h-3.51c-1.19,0-2.06.28-2.61.84-.55.56-.83,1.41-.83,2.57v1.17c0,1.53.51,2.53,1.52,3-.56.23-.95.61-1.19,1.13-.24.52-.35,1.19-.35,2.01v2.28c0,.8-.07,1.4-.22,1.8h2.32ZM708.16,336.34l1.13,7.45h-2.24l1.12-7.45ZM706.34,348.49l.4-2.69h2.85l.4,2.69h2.32l-2.36-14.81h-3.59l-2.36,14.81h2.32ZM694.83,348.51c1.16,0,2.01-.29,2.54-.87.53-.58.81-1.54.85-2.89l.26-8.95h2.01v12.69h2.32v-14.81h-6.66l-.26,11.19c-.01.34-.04.62-.09.82-.05.2-.13.35-.26.46-.12.11-.26.17-.42.2-.16.03-.38.04-.66.04v2.12h.36ZM688.47,348.49l1.96-6.78.94-3.63v10.41h2.32v-14.81h-2.79l-1.9,6.11-.84,3.26v-9.38h-2.08v14.81h2.38ZM674.97,348.49l2.12-6.6.57,1.15v5.45h2.32v-5.42l.58-1.12,2.11,6.55h2.32l-2.85-8.77,2.85-6.04h-2.26l-2.75,5.99v-5.99h-2.32v5.99l-2.75-5.99h-2.26l2.89,6.07-2.89,8.73h2.32Z"/>
  <path class="st3" d="M734.64,508.87c.62.64,1.5.97,2.64.97s1.99-.32,2.58-.97c.59-.64.88-1.56.88-2.75v-1.17c0-1.6-.54-2.64-1.62-3.11,1.08-.45,1.62-1.46,1.62-3.05v-.38c0-1.19-.29-2.11-.88-2.75-.59-.64-1.45-.96-2.58-.96s-2.01.32-2.64.96c-.62.64-.94,1.56-.94,2.75v.8h2.32v-.95c0-.97.4-1.46,1.19-1.46.4,0,.7.12.9.37.2.25.3.69.3,1.32v.82c0,.57-.12.97-.35,1.2-.23.24-.58.36-1.04.36h-.91v2.12h.79c.54,0,.92.14,1.16.43.24.29.36.77.36,1.44v1.17c0,.62-.1,1.05-.3,1.3-.2.25-.5.37-.9.37-.8,0-1.19-.49-1.19-1.47v-1.37h-2.32v1.23c0,1.19.31,2.11.94,2.75M732.23,507.53h-2.32v2.14h2.32v-2.14ZM726.01,496.98l-3.41,12.69h2.32l3.43-12.77v-2.03h-6.97v2.12h4.63Z"/>
  <path class="st3" d="M762.22,477.54c0-.53.09-.92.28-1.16.19-.24.49-.37.9-.37h1.11v4.55h-.91c-.46,0-.81-.12-1.04-.36-.23-.24-.35-.64-.35-1.21v-1.46ZM761.98,488.7c.05-.17.09-.3.11-.39.02-.09.04-.25.07-.49.02-.24.04-.56.04-.93v-2.32c0-.68.12-1.17.36-1.45.24-.29.62-.44,1.15-.44h.81v6.03h2.32v-14.81h-3.51c-1.19,0-2.06.28-2.61.84-.55.56-.83,1.41-.83,2.57v1.17c0,1.53.51,2.53,1.52,3-.56.23-.95.61-1.19,1.13-.24.52-.35,1.19-.35,2.01v2.28c0,.8-.07,1.4-.22,1.8h2.32ZM754.97,476.55l1.13,7.45h-2.24l1.12-7.45ZM753.15,488.7l.4-2.69h2.85l.4,2.69h2.32l-2.36-14.81h-3.59l-2.36,14.81h2.32ZM740.32,488.7l2.12-6.6.57,1.15v5.45h2.32v-5.42l.58-1.12,2.11,6.55h2.32l-2.85-8.77,2.85-6.04h-2.26l-2.76,5.99v-5.99h-2.32v5.99l-2.76-5.99h-2.26l2.89,6.07-2.89,8.73h2.32ZM732.43,477.3c0-.97.4-1.46,1.21-1.46s1.2.49,1.2,1.46v7.99c0,.98-.4,1.46-1.2,1.46s-1.21-.49-1.21-1.46v-7.99ZM731.02,487.89c.61.65,1.48.97,2.62.97s2.01-.32,2.61-.97c.61-.65.91-1.56.91-2.75v-7.7c0-1.18-.3-2.1-.91-2.75-.61-.65-1.48-.97-2.61-.97s-2.01.32-2.62.97c-.61.65-.91,1.56-.91,2.75v7.7c0,1.18.3,2.1.91,2.75M723.01,488.7l1.81-5.51,1.79,5.51h2.32l-2.59-7.54,2.43-7.26h-2.04l-1.79,5.49-1.76-5.49h-2.32l2.43,7.18-2.6,7.63h2.32ZM714.58,488.7l1.96-6.78.94-3.63v10.41h2.32v-14.81h-2.79l-1.9,6.11-.85,3.26v-9.38h-2.07v14.81h2.38ZM706.55,476.01h1.1c.39,0,.67.11.86.32.18.21.28.57.28,1.08v2.22c0,.51-.09.87-.28,1.08-.19.22-.47.32-.86.32h-1.1v-5.02ZM706.55,488.7v-5.56h1.1c1.15,0,2.01-.31,2.59-.93.58-.62.87-1.53.87-2.72v-1.92c0-1.19-.29-2.1-.87-2.73-.58-.62-1.44-.94-2.59-.94h-3.42v14.81h2.32ZM697.52,488.7v-12.69h2.64v12.69h2.32v-14.81h-7.29v14.81h2.32Z"/>
  <path class="st3" d="M459.15,556.14h31.59v31.94h-31.59v-31.94ZM491.44,555.43h-32.99v33.36h32.99v-33.36Z"/>
  <path class="st1" d="M459.15,556.14h31.59v31.94h-31.59v-31.94ZM491.44,555.43h-32.99v33.36h32.99v-33.36Z"/>
  <g>
    <path class="st3" d="M463.88,585.17c-.78,0-1.41-.64-1.41-1.43v-16.8c0-.79.63-1.43,1.41-1.43h22.13c.78,0,1.41.64,1.41,1.43v16.8c0,.79-.63,1.43-1.41,1.43h-22.13ZM486.01,564.8h-22.13c-1.17,0-2.11.96-2.11,2.14v16.8c0,1.18.95,2.14,2.11,2.14h22.13c1.17,0,2.11-.96,2.11-2.14v-16.8c0-1.18-.95-2.14-2.11-2.14"/>
    <path class="st1" d="M463.88,585.17c-.78,0-1.41-.64-1.41-1.43v-16.8c0-.79.63-1.43,1.41-1.43h22.13c.78,0,1.41.64,1.41,1.43v16.8c0,.79-.63,1.43-1.41,1.43h-22.13ZM486.01,564.8h-22.13c-1.17,0-2.11.96-2.11,2.14v16.8c0,1.18.95,2.14,2.11,2.14h22.13c1.17,0,2.11-.96,2.11-2.14v-16.8c0-1.18-.95-2.14-2.11-2.14Z"/>
  </g>
  <path class="st3" d="M464.92,568h20.05v14.7h-20.05v-14.7ZM485.67,567.29h-21.45v16.11h21.45v-16.11Z"/>
  <path class="st1" d="M464.92,568h20.05v14.7h-20.05v-14.7ZM485.67,567.29h-21.45v16.11h21.45v-16.11Z"/>
  <g>
    <path class="st3" d="M474.94,578.19c-1.01,0-1.84-.83-1.84-1.86s.82-1.86,1.84-1.86,1.84.83,1.84,1.86-.82,1.86-1.84,1.86M474.94,573.77c-1.4,0-2.54,1.15-2.54,2.57s1.14,2.57,2.54,2.57,2.54-1.15,2.54-2.57-1.14-2.57-2.54-2.57"/>
    <path class="st1" d="M474.94,578.19c-1.01,0-1.84-.83-1.84-1.86s.82-1.86,1.84-1.86,1.84.83,1.84,1.86-.82,1.86-1.84,1.86ZM474.94,573.77c-1.4,0-2.54,1.15-2.54,2.57s1.14,2.57,2.54,2.57,2.54-1.15,2.54-2.57-1.14-2.57-2.54-2.57Z"/>
  </g>
  <line class="st0" x1="438.67" y1="651.66" x2="632.4" y2="651.66"/>
</svg>