<svg xmlns="http://www.w3.org/2000/svg" xmlns:xlink="http://www.w3.org/1999/xlink" xml:space="preserve" id="Слой_1" x="0" y="0" style="enable-background:new 0 0 219 207" version="1.1" viewBox="0 0 219 207"><style>.st0{fill:#f2d09e}.st2,.st3{fill:none;stroke:#39373a;stroke-width:.6}.st3{clip-path:url(#SVGID_4_)}.st10,.st11,.st12{clip-path:url(#SVGID_18_);fill:#39373a}.st11,.st12{fill:none;stroke:#39373a;stroke-width:.206}.st12{stroke-width:.514}.st14,.st15{clip-path:url(#SVGID_20_);fill:#39373a}.st15{fill:none;stroke:#39373a;stroke-width:.25}.st16{fill:#39373a}.st17{fill:none;stroke:#39373a;stroke-width:.25}.st18{clip-path:url(#SVGID_22_);fill:#39373a}.st19,.st20{fill:none;stroke:#39373a}.st19{clip-path:url(#SVGID_22_);stroke-width:.25}.st20{stroke-width:.212}.st25{clip-path:url(#SVGID_28_);fill:#39373a}</style><switch><g><path d="M25.63 69.46H196.7V170.2H25.63z" class="st0"/><path d="M110.03 84.97h86.67v100.74h-86.67z" class="st0"/><defs><path id="SVGID_1_" d="M20.95 20.72h178.02v169.53H20.95z"/></defs><clipPath id="SVGID_2_"><use xlink:href="#SVGID_1_" style="overflow:visible"/></clipPath><path d="M168.26 39.2c1.17.5 1.6 2.04 1.6 4.27 0 2.19-.43 3.74-1.6 4.28l.22.82c2.24-.64 3.25-2.24 3.25-5.09 0-2.87-1.01-4.47-3.25-5.1l-.22.82zm.04 4.73h-.88v-3.04h-1.5l-.32 1.15v1.89h-1.44c-.17 0-.28-.11-.19-.31l1.62-4.17h-1.87l-1.83 4.68c-.23.58.16 1.14.78 1.14h2.95v1.55h1.82v-1.55h.02l.85-.19v-1.15zm-8.26 1.06c-.51 0-.67.16-.67.67v.47c0 .51.16.67.67.67h.46c.51 0 .67-.16.67-.67v-.47c0-.51-.16-.67-.67-.67h-.46zm-1.37-1.06h-.88v-3.04h-1.5l-.32 1.15v1.89h-1.44c-.17 0-.28-.11-.19-.31l1.61-4.17h-1.87l-1.83 4.68c-.24.58.16 1.14.78 1.14h2.95v1.55h1.82v-1.55h.02l.85-.19v-1.15zm-6.57-5.56c-2.24.63-3.25 2.23-3.25 5.1 0 2.85 1.01 4.45 3.25 5.09l.22-.82c-1.17-.54-1.6-2.09-1.6-4.28 0-2.23.43-3.77 1.6-4.27l-.22-.82zm-9.2 5.25c.81 0 .98.18.98.96 0 .74-.17.92-.99.92-.83 0-1.03-.18-1.03-.92.01-.75.19-.96 1.04-.96m-.01-2.97c.74 0 .91.16.91.89 0 .65-.14.81-.89.81-.76 0-.94-.15-.94-.81 0-.73.17-.89.92-.89m-1.59 2.36c-1.06.1-1.31.98-1.31 1.96 0 1.43.6 2 2.89 1.99 2.34-.02 2.89-.55 2.89-1.99 0-.98-.25-1.87-1.3-1.96v-.04c.8-.08 1.12-.9 1.12-1.69 0-1.38-.47-1.97-2.71-1.97-2.22 0-2.7.6-2.7 1.97 0 .79.32 1.6 1.12 1.69v.04zm-3.36 1.98c-.51 0-.67.16-.67.67v.47c0 .51.16.67.67.67h.46c.51 0 .67-.16.67-.67v-.47c0-.51-.16-.67-.67-.67h-.46zm-4.46-1.37c.81 0 .98.18.98.96 0 .74-.17.92-.99.92-.83 0-1.03-.18-1.03-.92 0-.75.18-.96 1.04-.96m-.01-2.97c.74 0 .91.16.91.89 0 .65-.14.81-.89.81-.76 0-.94-.15-.94-.81 0-.73.17-.89.92-.89m-1.6 2.36c-1.06.1-1.31.98-1.31 1.96 0 1.43.6 2 2.89 1.99 2.34-.02 2.89-.55 2.89-1.99 0-.98-.24-1.87-1.3-1.96v-.04c.8-.08 1.12-.9 1.12-1.69 0-1.38-.47-1.97-2.71-1.97-2.22 0-2.7.6-2.7 1.97 0 .79.32 1.6 1.12 1.69v.04z" style="clip-path:url(#SVGID_2_);fill:#39373a"/><path d="M116.5 59.33h44.15v2.8H116.5zm-84.9 0h44.15v2.8H31.6z" class="st2"/><defs><path id="SVGID_3_" d="M20.95 20.72h178.02v169.53H20.95z"/></defs><clipPath id="SVGID_4_"><use xlink:href="#SVGID_3_" style="overflow:visible"/></clipPath><path d="M110.33 21.06h80.97v2.24h-80.97z" class="st3"/><path d="M110.44 21.06v2.24L23.29 35.64v-2.23z" class="st3"/><path d="M111.47 62.16h46.91v7.2h-46.91zm-87.1 0h49.11v7.2H24.37zm51.747 10.593 18.804-11.188.475.8-18.803 11.187z" class="st2"/><defs><path id="SVGID_5_" d="M20.95 20.72h178.02v169.53H20.95z"/></defs><clipPath id="SVGID_6_"><use xlink:href="#SVGID_5_" style="overflow:visible"/></clipPath><path d="M76.02 72.64s-1.11-1.5-1.64-4.99c-.55-3.49-.38-5.36-.38-5.36" style="clip-path:url(#SVGID_6_);fill:none;stroke:#39373a;stroke-width:.4"/><path d="m110.686 188.238 21.262-12.65.475.8-21.261 12.65z" class="st2"/><defs><path id="SVGID_7_" d="M20.95 20.72h178.02v169.53H20.95z"/></defs><clipPath id="SVGID_8_"><use xlink:href="#SVGID_7_" style="overflow:visible"/></clipPath><path d="M131.96 175.34s1.64 2.41 2.61 5.9c.59 2.15.99 6.32.99 6.32" style="clip-path:url(#SVGID_8_);fill:none;stroke:#39373a;stroke-width:.4"/><path d="m110.697 133.523 18.417-10.958.476.8-18.417 10.957z" class="st2"/><defs><path id="SVGID_9_" d="M20.95 20.72h178.02v169.53H20.95z"/></defs><clipPath id="SVGID_10_"><use xlink:href="#SVGID_9_" style="overflow:visible"/></clipPath><path d="M129.12 122.31s1.64 2.41 2.61 5.9c.59 2.14.99 6.32.99 6.32" style="clip-path:url(#SVGID_10_);fill:none;stroke:#39373a;stroke-width:.4"/><path d="m140.28 147.252 8.666-14.567.8.476-8.667 14.567z" class="st2"/><defs><path id="SVGID_11_" d="M20.95 20.72h178.02v169.53H20.95z"/></defs><clipPath id="SVGID_12_"><use xlink:href="#SVGID_11_" style="overflow:visible"/></clipPath><path d="M140.03 147.27s2.41 1.64 5.9 2.61c2.15.59 6.32.99 6.32.99" style="clip-path:url(#SVGID_12_);fill:none;stroke:#39373a;stroke-width:.4"/><path d="m97.88 140.235.8-.475 12.65 21.261-.8.476z" class="st2"/><defs><path id="SVGID_13_" d="M20.95 20.72h178.02v169.53H20.95z"/></defs><clipPath id="SVGID_14_"><use xlink:href="#SVGID_13_" style="overflow:visible"/></clipPath><path d="M97.64 140.22s2.41-1.64 5.9-2.61c2.15-.59 6.32-.99 6.32-.99" style="clip-path:url(#SVGID_14_);fill:none;stroke:#39373a;stroke-width:.4"/><path d="m160.629 72.757 18.803-11.187.476.8-18.804 11.186z" class="st2"/><defs><path id="SVGID_15_" d="M20.95 20.72h178.02v169.53H20.95z"/></defs><clipPath id="SVGID_16_"><use xlink:href="#SVGID_15_" style="overflow:visible"/></clipPath><path d="M160.53 72.64s-1.11-1.5-1.64-4.99c-.54-3.49-.37-5.36-.37-5.36" style="clip-path:url(#SVGID_16_);fill:none;stroke:#39373a;stroke-width:.4"/><path d="M169.83 124.65h21.47v6.65h-21.47z" class="st2"/><path d="m190.11 131.2-.68-5.27h-2.72l-.74 5.27m-.79.04-.68-5.31h-12.82l-.51 5.31m-22.79-6.59h21.47v6.65h-21.47z" class="st2"/><path d="m168.66 131.2-.68-5.27h-2.72l-.74 5.27m-.79.04-.68-5.31h-12.81l-.51 5.31" class="st2"/><defs><path id="SVGID_17_" d="M20.95 20.72h178.02v169.53H20.95z"/></defs><clipPath id="SVGID_18_"><use xlink:href="#SVGID_17_" style="overflow:visible"/></clipPath><path d="M184.18 159.43c0-2.47 2.01-4.47 4.47-4.47h4.75c.37 0 .68.3.68.68v10.11c0 .38-.3.68-.68.68h-4.75c-2.47 0-4.47-2.01-4.47-4.47v-2.53zm10.15 6.32v-10.11c0-.51-.42-.93-.93-.93h-4.75a4.73 4.73 0 0 0-4.73 4.72v2.52c0 2.61 2.12 4.73 4.73 4.73h4.75c.51 0 .93-.41.93-.93" class="st10"/><path d="M184.18 159.43c0-2.47 2.01-4.47 4.47-4.47h4.75c.37 0 .68.3.68.68v10.11c0 .38-.3.68-.68.68h-4.75c-2.47 0-4.47-2.01-4.47-4.47v-2.53zm10.15 6.32v-10.11c0-.51-.42-.93-.93-.93h-4.75a4.73 4.73 0 0 0-4.73 4.72v2.52c0 2.61 2.12 4.73 4.73 4.73h4.75c.51 0 .93-.41.93-.93z" class="st11"/><path d="M185.3 159.43c0-1.85 1.5-3.35 3.35-3.35h2.77c.32 0 .58.26.58.58v8.06c0 .32-.26.59-.58.59h-2.77a3.35 3.35 0 0 1-3.35-3.35v-2.53zm6.96 5.3v-8.06c0-.46-.38-.84-.84-.84h-2.77c-1.99 0-3.61 1.62-3.61 3.6v2.52c0 1.99 1.62 3.6 3.61 3.6h2.77c.46.01.84-.36.84-.82" class="st10"/><path d="M185.3 159.43c0-1.85 1.5-3.35 3.35-3.35h2.77c.32 0 .58.26.58.58v8.06c0 .32-.26.59-.58.59h-2.77a3.35 3.35 0 0 1-3.35-3.35v-2.53zm6.96 5.3v-8.06c0-.46-.38-.84-.84-.84h-2.77c-1.99 0-3.61 1.62-3.61 3.6v2.52c0 1.99 1.62 3.6 3.61 3.6h2.77c.46.01.84-.36.84-.82z" class="st11"/><path d="M187.65 160.7c0-.31.25-.56.55-.56.31 0 .55.25.55.56s-.25.55-.55.55c-.3 0-.55-.25-.55-.55m1.36 0c0-.45-.36-.81-.81-.81-.44 0-.81.36-.81.81 0 .44.36.81.81.81a.82.82 0 0 0 .81-.81" class="st10"/><path d="M187.65 160.7c0-.31.25-.56.55-.56.31 0 .55.25.55.56s-.25.55-.55.55c-.3 0-.55-.25-.55-.55zm1.36 0c0-.45-.36-.81-.81-.81-.44 0-.81.36-.81.81 0 .44.36.81.81.81a.82.82 0 0 0 .81-.81z" class="st11"/><path d="M154.12 179.89s0 4.85 4.85 4.85h28.99s4.85 0 4.85-4.85v-6.5s0-4.85-4.85-4.85h-28.99s-4.85 0-4.85 4.85v6.5z" class="st12"/><path d="M156.81 178.38s0 4.85 4.85 4.85h23.61s4.85 0 4.85-4.85v-3.47s0-4.85-4.85-4.85h-23.61s-4.85 0-4.85 4.85v3.47z" class="st12"/><path d="M160.06 179.35s0 2.43 2.43 2.43h23.73s2.43 0 2.43-2.43v-5.41s0-2.43-2.43-2.43h-23.73s-2.43 0-2.43 2.43v5.41z" class="st12"/><path d="M185.74 176.64c0-.4-.32-.72-.72-.72-.4 0-.72.32-.72.72s.32.72.72.72c.4 0 .72-.32.72-.72z" class="st12"/><path d="M152.7 167.62h41.74" style="fill:none;stroke:#39373a;stroke-width:.514"/><path d="M151.51 152h11.16v14.45h-11.16z" class="st2"/><defs><path id="SVGID_19_" d="M20.95 20.72h178.02v169.53H20.95z"/></defs><clipPath id="SVGID_20_"><use xlink:href="#SVGID_19_" style="overflow:visible"/></clipPath><path d="M175.42 143.73c0-2.82 2.29-5.11 5.12-5.11h7.41c.49 0 .88.4.88.88v8.46c0 .49-.4.88-.88.88h-7.41c-2.82.01-5.12-2.29-5.12-5.11m13.76 4.24v-8.46c0-.68-.55-1.23-1.23-1.23h-7.41c-3.01 0-5.47 2.45-5.47 5.46s2.45 5.47 5.47 5.47h7.41a1.25 1.25 0 0 0 1.23-1.24" class="st14"/><path d="M175.42 143.73c0-2.82 2.29-5.11 5.12-5.11h7.41c.49 0 .88.4.88.88v8.46c0 .49-.4.88-.88.88h-7.41c-2.82.01-5.12-2.29-5.12-5.11zm13.76 4.24v-8.46c0-.68-.55-1.23-1.23-1.23h-7.41c-3.01 0-5.47 2.45-5.47 5.46s2.45 5.47 5.47 5.47h7.41a1.25 1.25 0 0 0 1.23-1.24z" class="st15"/><path d="M186.36 140.07v7.33c0 .05-.04.09-.09.09h-5.58c-2.06 0-3.76-1.69-3.76-3.76 0-2.06 1.69-3.76 3.76-3.76h5.58c.04.01.09.05.09.1z" class="st15"/><path d="M186.18 140.15v7.16h-5.5c-1.97 0-3.58-1.61-3.58-3.58s1.61-3.58 3.58-3.58h5.5zm.35 7.25v-7.33c0-.14-.12-.26-.26-.26h-5.58a3.93 3.93 0 0 0 0 7.86h5.58c.14 0 .26-.13.26-.27" class="st14"/><path d="M186.18 140.15v7.16h-5.5c-1.97 0-3.58-1.61-3.58-3.58s1.61-3.58 3.58-3.58h5.5zm.35 7.25v-7.33c0-.14-.12-.26-.26-.26h-5.58a3.93 3.93 0 0 0 0 7.86h5.58c.14 0 .26-.13.26-.27z" class="st15"/><path d="M180.68 143.73a.97.97 0 0 1 1.94 0 .97.97 0 0 1-1.94 0m2.28 0c0-.73-.59-1.32-1.32-1.32s-1.32.59-1.32 1.32c0 .73.59 1.32 1.32 1.32s1.32-.59 1.32-1.32" class="st14"/><path d="M180.68 143.73a.97.97 0 0 1 1.94 0 .97.97 0 0 1-1.94 0zm2.28 0c0-.73-.59-1.32-1.32-1.32s-1.32.59-1.32 1.32c0 .73.59 1.32 1.32 1.32s1.32-.59 1.32-1.32z" class="st15"/><path d="m183.086 142.365 2.347-1.754.21.28-2.348 1.754z" class="st16"/><path d="m183.086 142.365 2.347-1.754.21.28-2.348 1.754z" class="st17"/><path d="m185.65 146.53-2.35-1.75-.21.28 2.35 1.76z" class="st16"/><path d="m185.65 146.53-2.35-1.75-.21.28 2.35 1.76z" class="st17"/><defs><path id="SVGID_21_" d="M20.95 20.72h178.02v169.53H20.95z"/></defs><clipPath id="SVGID_22_"><use xlink:href="#SVGID_21_" style="overflow:visible"/></clipPath><path d="M189.2 140.2c0-.78.64-1.42 1.42-1.42h1.93c.78 0 1.42.64 1.42 1.42v7.06c0 .78-.64 1.42-1.42 1.42h-1.93c-.78 0-1.42-.64-1.42-1.42v-7.06zm5.11 7.07v-7.06c0-.98-.79-1.77-1.77-1.77h-1.93c-.97 0-1.77.79-1.77 1.77v7.06c0 .97.79 1.77 1.77 1.77h1.93c.98-.01 1.77-.8 1.77-1.77" class="st18"/><path d="M189.2 140.2c0-.78.64-1.42 1.42-1.42h1.93c.78 0 1.42.64 1.42 1.42v7.06c0 .78-.64 1.42-1.42 1.42h-1.93c-.78 0-1.42-.64-1.42-1.42v-7.06zm5.11 7.07v-7.06c0-.98-.79-1.77-1.77-1.77h-1.93c-.97 0-1.77.79-1.77 1.77v7.06c0 .97.79 1.77 1.77 1.77h1.93c.98-.01 1.77-.8 1.77-1.77z" class="st19"/><path d="M191.03 143.73c0-.3.25-.55.55-.55.3 0 .55.25.55.55 0 .3-.25.55-.55.55-.31 0-.55-.24-.55-.55m1.45 0c0-.5-.4-.9-.9-.9s-.9.4-.9.9.4.9.9.9c.49 0 .9-.4.9-.9" class="st18"/><path d="M191.03 143.73c0-.3.25-.55.55-.55.3 0 .55.25.55.55 0 .3-.25.55-.55.55-.31 0-.55-.24-.55-.55zm1.45 0c0-.5-.4-.9-.9-.9s-.9.4-.9.9.4.9.9.9c.49 0 .9-.4.9-.9z" class="st19"/><path d="M194.02 103.09h-13.81v13.81h13.81v-13.81zm.31 14.12h-14.42v-14.42h14.42v14.42z" class="st16"/><path d="M194.02 103.09h-13.81v13.81h13.81v-13.81zm.31 14.12h-14.42v-14.42h14.42v14.42z" class="st20"/><defs><path id="SVGID_23_" d="M20.95 20.72h178.02v169.53H20.95z"/></defs><clipPath id="SVGID_24_"><use xlink:href="#SVGID_23_" style="overflow:visible"/></clipPath><path d="M181.47 114.84c0 .34.28.62.62.62h7.26c.34 0 .62-.28.62-.62v-9.67c0-.34-.28-.62-.62-.62h-7.26c-.34 0-.62.28-.62.62v9.67zm8.8-9.68v9.67c0 .51-.42.92-.93.92h-7.26c-.51 0-.92-.41-.92-.92v-9.67c0-.51.41-.92.92-.92h7.26c.52 0 .93.41.93.92" style="clip-path:url(#SVGID_24_);fill:#39373a"/><path d="M181.47 114.84c0 .34.28.62.62.62h7.26c.34 0 .62-.28.62-.62v-9.67c0-.34-.28-.62-.62-.62h-7.26c-.34 0-.62.28-.62.62v9.67zm8.8-9.68v9.67c0 .51-.42.92-.93.92h-7.26c-.51 0-.92-.41-.92-.92v-9.67c0-.51.41-.92.92-.92h7.26c.52 0 .93.41.93.92z" style="clip-path:url(#SVGID_24_);fill:none;stroke:#39373a;stroke-width:.212"/><path d="M188.89 105.62h-6.35v8.76h6.35v-8.76zm.31 9.06h-6.96v-9.37h6.96v9.37z" class="st16"/><path d="M188.89 105.62h-6.35v8.76h6.35v-8.76zm.31 9.06h-6.96v-9.37h6.96v9.37z" class="st20"/><defs><path id="SVGID_25_" d="M20.95 20.72h178.02v169.53H20.95z"/></defs><clipPath id="SVGID_26_"><use xlink:href="#SVGID_25_" style="overflow:visible"/></clipPath><path d="M184.49 110c0 .44.36.8.8.8.44 0 .8-.36.8-.8 0-.44-.36-.8-.8-.8-.44 0-.8.36-.8.8m1.91 0c0 .61-.5 1.11-1.11 1.11s-1.11-.5-1.11-1.11c0-.61.5-1.11 1.11-1.11s1.11.5 1.11 1.11" style="clip-path:url(#SVGID_26_);fill:#39373a"/><path d="M184.49 110c0 .44.36.8.8.8.44 0 .8-.36.8-.8 0-.44-.36-.8-.8-.8-.44 0-.8.36-.8.8zm1.91 0c0 .61-.5 1.11-1.11 1.11s-1.11-.5-1.11-1.11c0-.61.5-1.11 1.11-1.11s1.11.5 1.11 1.11z" style="clip-path:url(#SVGID_26_);fill:none;stroke:#39373a;stroke-width:.212"/><path d="M132.5 131.6h64.21v2.98H132.5zM23.29 168.79h86.74v4.19H23.29zm126.43-18.48h2.98v36.96h-2.98z" class="st16"/><path d="M135.33 185.71h61.37v4.53h-61.37z" class="st16"/><path d="M194.43 48.64h4.54v141.61h-4.54zM20.95 32.81h4.68v140.17h-4.68zm86.74-12.05h4.68v22.11h-4.68zm0 44.29h4.68v72.07h-4.68zm0 92.55h4.68v32.64h-4.68z" class="st16"/><path d="M184.23 20.72h14.74v48.8h-14.74zM90.62 58.89h40.25v3.4H90.62zm-67.33 0h20.13v3.4H23.29z" class="st16"/><path d="M173.6 58.89h24.38v3.4H173.6zm-80.01 1.7h34.3v8.93h-34.3zm-70.6 0h17.45v8.93H22.99z" class="st16"/><path d="M176.58 60.59h20.13v8.93h-20.13z" class="st16"/><defs><path id="SVGID_27_" d="M20.95 20.72h178.02v169.53H20.95z"/></defs><clipPath id="SVGID_28_"><use xlink:href="#SVGID_27_" style="overflow:visible"/></clipPath><path d="M78.03 114.65c1.83-.1 2.79-.1 4.16-.1 1.02 0 1.46.06 1.46.62.02.75-.87 1.95-2.37 3.47l-2.99 3.08c-.39.42-.5.87-.5 1.45v1.89h9.9v-3.12h-3.83c-.64 0-1.25.02-1.87.17l3.28-3.22c1.75-1.83 2.08-2.7 2.08-4.14 0-2.6-1.87-3.22-4.7-3.22-1.44 0-2.81.06-4.76.44l.14 2.68zm-3.83 7.13c-.92 0-1.21.29-1.21 1.21v.85c0 .93.29 1.21 1.21 1.21h.83c.92 0 1.21-.29 1.21-1.21v-.85c0-.93-.29-1.21-1.21-1.21h-.83zm-2.49-1.93h-1.58v-5.49h-2.72l-.58 2.08v3.41h-2.6c-.31 0-.5-.19-.35-.56l2.91-7.54h-3.37l-3.32 8.44c-.42 1.04.29 2.06 1.41 2.06h5.32v2.79h3.3v-2.79h.04l1.54-.35v-2.05zm-22.02-5.49c.98-.02 2.33-.04 3.7-.04 1.35 0 1.73.17 1.73 1.25.02.91-.12 1.44-1.56 1.44h-2.54v2.31l2.54-.02c1.43-.02 1.74.42 1.74 1.56 0 1.35-.5 1.6-2.2 1.6-1.16 0-2-.02-3.68-.12l-.11 2.6c1.5.21 3.18.37 4.78.37 3.53 0 4.82-1.16 4.78-3.97-.02-2.02-.6-3.04-2.47-3.33v-.08c1.72-.27 2.12-1.45 2.12-3.35 0-2.37-1.23-3.1-4.49-3.1-1.47 0-2.95.11-4.45.37l.11 2.51z" class="st25"/><path d="M68.53 108.58c6.52 0 11.81-5.29 11.81-11.81 0-6.52-5.29-11.81-11.81-11.81s-11.81 5.29-11.81 11.81c0 6.53 5.29 11.81 11.81 11.81z" style="clip-path:url(#SVGID_28_);fill:none;stroke:#39373a;stroke-width:.81"/><path d="m71.3 97.57 2.36 4.3h3.04l-2.48-4.25c-.22-.39-.66-.79-.93-.95v-.04c.28-.17.58-.45.82-.86l2.44-3.97H73.6l-2.31 3.92h-.69c.09-.42.12-.85.12-1.25V91.8h-2.73v10.07h2.73V98.5c0-.28-.04-.61-.12-.93h.7zm-5.39 4.31V91.81h-2.73l-2.55.99.32 1.74 2.33-.53c-.09.41-.1.8-.1 1.2v6.67h2.73zm6.26 48.33c.8-.04 1.22-.04 1.82-.04.45 0 .64.02.64.27.01.33-.38.85-1.04 1.52l-1.31 1.35c-.17.19-.22.38-.22.63v.83h4.33v-1.37h-1.68c-.28 0-.55.01-.82.08l1.43-1.41c.77-.8.91-1.18.91-1.81 0-1.14-.82-1.41-2.06-1.41-.63 0-1.23.03-2.08.19l.08 1.17zm-1.68 3.12c-.4 0-.53.13-.53.53v.37c0 .4.13.53.53.53h.36c.4 0 .53-.13.53-.53v-.37c0-.4-.13-.53-.53-.53h-.36zm-1.09-.84h-.69v-2.4h-1.19l-.25.91v1.49h-1.14c-.13 0-.22-.08-.15-.24l1.27-3.3h-1.48l-1.45 3.69c-.19.46.13.9.61.9h2.33v1.22h1.44v-1.22h.02l.67-.15v-.9zm-5.95 2.28v-5.82h-1.58l-1.48.57.19 1 1.35-.3c-.05.24-.06.46-.06.69v3.85h1.58zm19.97-11.57c0-.19.1-.32.36-.33h.88v.52c-.28.18-.57.29-.82.29-.28 0-.41-.12-.41-.34v-.14zm-1.14-1.65c.7-.04 1.37-.06 1.8-.06.44 0 .57.13.58.48v.1h-1.39c-.83 0-1.34.4-1.34 1.07v.42c0 .78.63 1.2 1.41 1.2.73 0 1.21-.37 1.49-.73l.14.62h1.22v-2.67c0-1.25-.62-1.64-1.75-1.64-.62 0-1.67.09-2.29.21l.13 1zm-.69.06v-1.15h-4.18v1.15h1.33v3.04h1.53v-3.04h1.32zm-7.48 1.59c0-.19.1-.32.35-.33h.88v.52c-.28.18-.57.29-.82.29-.28 0-.41-.12-.41-.34v-.14zm-1.15-1.65c.7-.04 1.37-.06 1.8-.06.44 0 .57.13.58.48v.1h-1.39c-.83 0-1.34.4-1.34 1.07v.42c0 .78.63 1.2 1.41 1.2.73 0 1.21-.37 1.49-.73l.14.62h1.22v-2.67c0-1.25-.62-1.64-1.75-1.64-.62 0-1.67.09-2.29.21l.13 1zm-1.06-1.09h-1.5v1.48h-1.28v-1.48h-1.51v4.19h1.51v-1.7h1.28v1.7h1.5v-4.19zm-7.08 0c-.32 0-.52.16-.57.47l-.36 1.56c-.04.21-.05.41-.08.62h-.07c-.03-.21-.03-.41-.08-.62l-.37-1.56c-.05-.31-.25-.47-.57-.47h-1.3c-.35 0-.52.18-.53.52l-.1 3.67h1.38l.08-3.08h.1l.5 2.03c.06.31.26.46.58.46h.68c.33 0 .51-.15.57-.46l.5-2.03h.1l.11 3.08h1.38l-.11-3.67c-.01-.35-.18-.52-.52-.52h-1.32zm-6.97.96c.51 0 .65.21.65 1.14 0 .92-.14 1.12-.65 1.12-.52 0-.66-.2-.66-1.12 0-.93.14-1.14.66-1.14m0-1.08c-1.65 0-2.26.6-2.26 2.22 0 1.61.61 2.19 2.26 2.19 1.64 0 2.25-.58 2.25-2.19 0-1.62-.61-2.22-2.25-2.22m-4.2 2.11c.98-.14.91-.23 1.45-1.99h-1.54c-.36 1.4-.39 1.52-.99 1.52h-.19c.03-.18.06-.36.06-.53v-.99h-1.53v4.19h1.53v-1.32c0-.1-.02-.22-.05-.34h.34c.45.01.48.12.92 1.66h1.59c-.58-1.98-.6-2.01-1.59-2.16v-.04zm27.04-10.22h-.6c-.4 0-.47-.1-.47-.52 0-.31.08-.39.47-.39h.6v.91zm-1.65.52c-.25.02-.69.09-.8.46l-.33 1.32h1.57l.26-1.12c.03-.19.13-.24.39-.24h.56v1.37h1.48v-4.22c-.52-.06-.97-.07-2.12-.07-1.54 0-1.92.29-1.92 1.35 0 .51.2.99.91 1.13v.02zm-4.46.33c0-.19.1-.32.35-.33h.88v.52c-.28.18-.57.29-.82.29-.28 0-.41-.12-.41-.34v-.14zm-1.14-1.65c.7-.04 1.37-.06 1.8-.06.44 0 .57.13.58.48v.1h-1.39c-.83 0-1.34.4-1.34 1.07v.42c0 .78.63 1.2 1.41 1.2.73 0 1.21-.37 1.49-.73l.14.62h1.22v-2.67c0-1.25-.62-1.64-1.75-1.64-.62 0-1.67.09-2.29.21l.13 1zm-1.06-1.09h-2.53c-.72 0-1.1.37-1.15 1.08-.06.77-.14 1.35-.22 1.65-.09.34-.34.33-.71.39l.15 1.12c.92.15 1.75-.06 1.92-1.1.08-.41.18-1.12.25-1.76.03-.24.14-.35.4-.35h.36v3.17h1.53v-4.2zm-5.13 4.2v-4.2h-1.33l-1.33 2.01c-.13.19-.24.38-.32.62h-.03c.03-.24.06-.43.06-.65v-1.97h-1.36v4.19h1.33l1.31-1.91c.12-.18.26-.47.34-.7h.03c-.03.28-.06.5-.06.74v1.88h1.36zm-6.81-3.07c1.13-.15 1.15-.67 1.77-2.76h-1.6c-.52 1.75-.62 2.27-1.19 2.27h-.27c.04-.24.07-.49.07-.73v-1.54h-1.51v1.54c0 .24.03.48.08.73h-.29c-.56 0-.67-.52-1.18-2.27h-1.6c.62 2.08.64 2.6 1.77 2.76v.05c-1.17.17-1.25.62-1.93 3.01h1.65c.65-2.11.72-2.49 1.28-2.49h.29c-.04.18-.07.38-.07.54v1.95h1.51v-1.95c0-.16-.02-.35-.07-.54h.28c.59 0 .65.38 1.29 2.49h1.66c-.68-2.39-.76-2.84-1.94-3.01v-.05zm94.31-26.52.07-1.44h-4.49l-.19 3.23c-.02.33.22.6.56.65l1.12.14c.97.08 1.32.22 1.29.89-.04.58-.25.81-1.19.81-.51 0-1.18-.03-1.86-.08l-.18 1.47c.92.14 1.83.21 2.55.21 2.04 0 2.61-1.05 2.61-2.34.01-1.16-.43-2.19-2.1-2.37l-1.19-.16.07-1h2.93zm-6.74 3.97c-.5 0-.65.16-.65.65v.46c0 .5.16.65.65.65h.45c.5 0 .65-.16.65-.65v-.46c0-.5-.16-.65-.65-.65h-.45zm-4.35-1.33c.79 0 .96.18.96.94 0 .72-.17.9-.97.9-.81 0-1-.18-1-.9 0-.74.18-.94 1.01-.94m-.01-2.9c.72 0 .89.16.89.86 0 .64-.14.79-.86.79-.74 0-.92-.15-.92-.79 0-.71.16-.86.89-.86m-1.55 2.3c-1.03.09-1.28.96-1.28 1.92 0 1.39.58 1.94 2.82 1.94 2.28-.02 2.82-.54 2.82-1.94 0-.96-.24-1.82-1.27-1.92v-.04c.78-.08 1.09-.87 1.09-1.64 0-1.34-.46-1.93-2.64-1.93-2.16 0-2.63.58-2.63 1.93 0 .77.31 1.56 1.09 1.64v.04zm19.07-11.63h-.74c-.49 0-.58-.12-.58-.65 0-.38.09-.48.58-.48h.74v1.13zm-2.03.65c-.31.03-.85.11-.99.56l-.41 1.63h1.94l.32-1.39c.04-.24.16-.3.48-.3h.69v1.69H163v-5.21c-.64-.07-1.2-.08-2.61-.08-1.9 0-2.37.36-2.37 1.66 0 .62.25 1.22 1.12 1.4v.04zM157 93.03h-1.85v1.82h-1.58v-1.82h-1.86v5.17h1.86v-2.09h1.58v2.09H157v-5.17zm-7.8 5.17h1.9l-1.54-2.64 1.42-2.53h-1.88l-1.02 1.93-1.02-1.93h-1.88l1.42 2.53-1.54 2.64h1.9l1.12-2.08 1.12 2.08zm-4.22-5.17h-2.02l-.76 3.08c-.05.24-.13.58-.22.89h-.1c-.04-.3-.09-.59-.15-.89l-.78-3.08h-2.01l1.6 4.72c.08.27.31.45.6.45h.34c-.14.26-.33.5-.54.61-.33.19-.79.24-1.45.22l-.16 1.23c.74.14 1.52.15 2.13-.1.8-.29 1.4-.8 1.77-2.01l1.75-5.12zm-8.49 1.39c1.43-.19 1.47-.83 2.26-3.4h-1.99c-.56 2.16-.7 2.8-1.71 2.8h-.34c.05-.29.08-.6.08-.89v-1.91h-1.94v7.18h1.94v-2.4c0-.2-.03-.44-.08-.67h.38c1 0 1.08.47 1.82 3.07h2.04c-.88-2.95-.98-3.51-2.46-3.72v-.06zm28.39 46.05.08 1.57h3.12c-.17.25-.26.51-.35.76l-1.73 4.85h1.91l2.16-6.22c.18-.53-.17-.96-.73-.96h-4.46zm-1.44 5.41c-.5 0-.65.16-.65.65v.46c0 .5.16.65.65.65h.45c.5 0 .66-.16.66-.65v-.46c0-.5-.16-.65-.66-.65h-.45zm-6.48-4.01c.53-.01 1.26-.02 2-.02.73 0 .94.09.94.68.01.49-.06.78-.84.78h-1.37v1.25l1.37-.01c.77-.01.94.23.94.84 0 .73-.27.86-1.19.86-.62 0-1.08-.01-1.99-.06l-.06 1.4c.81.11 1.72.2 2.58.2 1.9 0 2.6-.62 2.58-2.14-.01-1.09-.32-1.64-1.33-1.8v-.04c.93-.15 1.14-.78 1.14-1.81 0-1.28-.67-1.68-2.42-1.68-.79 0-1.59.06-2.4.2l.05 1.35zm-19.5 17.99h-.85v-2.97h-1.47l-.31 1.12v1.84h-1.41c-.17 0-.27-.1-.19-.3l1.57-4.07h-1.82l-1.79 4.56c-.23.56.16 1.11.76 1.11h2.87v1.51h1.78v-1.51h.02l.83-.19v-1.1zm-8.04 1.04c-.5 0-.65.16-.65.65v.46c0 .5.16.65.65.65h.45c.5 0 .66-.16.66-.65v-.46c0-.5-.16-.65-.66-.65h-.45zm-6.49-4.01c.53-.01 1.26-.02 2-.02.73 0 .94.09.94.68.01.49-.06.78-.84.78h-1.37v1.25l1.37-.01c.77-.01.94.23.94.84 0 .73-.27.86-1.19.86-.62 0-1.08-.01-1.99-.06l-.06 1.4c.81.11 1.72.2 2.58.2 1.9 0 2.6-.62 2.58-2.14-.01-1.09-.32-1.64-1.33-1.8v-.04c.93-.15 1.14-.78 1.14-1.81 0-1.28-.67-1.67-2.42-1.67-.79 0-1.59.06-2.4.2l.05 1.34z" class="st25"/></g></switch></svg>