<?xml version="1.0" encoding="utf-8"?>
<!-- Generator: Adobe Illustrator 26.5.0, SVG Export Plug-In . SVG Version: 6.00 Build 0)  -->
<svg version="1.1" id="Слой_1" xmlns="http://www.w3.org/2000/svg" xmlns:xlink="http://www.w3.org/1999/xlink" x="0px" y="0px"
	 viewBox="0 0 1000 1000" style="enable-background:new 0 0 1000 1000;" xml:space="preserve">
<style type="text/css">
	.st0{fill:#F7CFD6;}
	.st1{fill:#FFFFFF;}
	.st2{fill:none;stroke:#373437;stroke-width:1;stroke-miterlimit:10.0003;}
	.st3{fill:none;stroke:#373437;stroke-miterlimit:10;}
	.st4{fill:#373437;}
	.st5{fill:none;stroke:#373437;}
</style>
<rect x="225.3" y="223.6" class="st0" width="568.2" height="445.4"/>
<rect x="427.4" y="646.5" transform="matrix(0.5152 -0.8571 0.8571 0.5152 -374.7064 697.5311)" class="st1" width="3.6" height="66.9"/>
<rect x="427.4" y="646.5" transform="matrix(0.5152 -0.8571 0.8571 0.5152 -374.7064 697.5311)" class="st2" width="3.6" height="66.9"/>
<path class="st3" d="M399.7,664.1c0,0-5.2,8.3-6.8,20.8c-1,7.3-0.8,13-0.8,13"/>
<rect x="698.2" y="646.5" transform="matrix(0.5152 -0.8571 0.8571 0.5152 -243.4129 929.6192)" class="st1" width="3.6" height="66.9"/>
<rect x="698.2" y="646.5" transform="matrix(0.5152 -0.8571 0.8571 0.5152 -243.4129 929.6192)" class="st2" width="3.6" height="66.9"/>
<path class="st3" d="M670.5,664.1c0,0-5.2,8.3-6.8,20.8c-1,7.3-0.8,13-0.8,13"/>
<rect x="459.9" y="670" class="st3" width="199.4" height="33.6"/>
<rect x="225" y="670" class="st3" width="163.9" height="33.6"/>
<rect x="468.1" y="695.6" class="st1" width="199.4" height="8"/>
<rect x="468.1" y="695.6" class="st3" width="199.4" height="8"/>
<rect x="231.8" y="695.6" class="st1" width="163.9" height="8"/>
<rect x="231.8" y="695.6" class="st3" width="163.9" height="8"/>
<rect x="506.7" y="823.4" class="st3" width="297" height="11.3"/>
<rect x="355" y="659.6" transform="matrix(0.1435 -0.9897 0.9897 0.1435 -491.553 1048.2599)" class="st3" width="9.6" height="297"/>
<rect x="509.5" y="670" class="st4" width="78.5" height="33.6"/>
<rect x="509.5" y="670" class="st3" width="78.5" height="33.6"/>
<rect x="448.5" y="670" class="st4" width="60" height="33.6"/>
<rect x="448.5" y="670" class="st3" width="60" height="33.6"/>
<rect x="792" y="200" class="st4" width="35.1" height="635"/>
<rect x="722.5" y="670" class="st4" width="86.9" height="33.6"/>
<rect x="722.5" y="670" class="st3" width="86.9" height="33.6"/>
<rect x="714.8" y="695.6" class="st4" width="65.4" height="8"/>
<rect x="714.8" y="695.6" class="st3" width="65.4" height="8"/>
<rect x="528.9" y="695.6" class="st4" width="65.4" height="8"/>
<rect x="528.9" y="695.6" class="st3" width="65.4" height="8"/>
<rect x="218.9" y="670" class="st4" width="59.1" height="33.6"/>
<rect x="218.9" y="670" class="st3" width="59.1" height="33.6"/>
<rect x="218.9" y="695.6" class="st4" width="65.4" height="8"/>
<rect x="218.9" y="695.6" class="st3" width="65.4" height="8"/>
<rect x="203.4" y="200" class="st4" width="21" height="593.9"/>
<rect x="501.5" y="759.5" class="st4" width="15.9" height="75.2"/>
<rect x="501.5" y="759.5" class="st3" width="15.9" height="75.2"/>
<rect x="501.5" y="340.6" class="st4" width="15.9" height="363.6"/>
<rect x="501.5" y="340.6" class="st3" width="15.9" height="363.6"/>
<rect x="501.5" y="200" class="st4" width="15.9" height="77.1"/>
<rect x="442.1" y="695.6" class="st4" width="65.4" height="8"/>
<rect x="442.1" y="695.6" class="st3" width="65.4" height="8"/>
<rect x="216.2" y="211.3" class="st4" width="333.9" height="10.4"/>
<rect x="216.2" y="211.3" class="st3" width="333.9" height="10.4"/>
<rect x="208" y="200" class="st4" width="343.1" height="25"/>
<rect x="514.8" y="204.7" class="st3" width="36.2" height="17"/>
<rect x="629.4" y="204.7" class="st4" width="25.3" height="17"/>
<rect x="629.4" y="204.7" class="st3" width="25.3" height="17"/>
<rect x="644.8" y="296.6" class="st4" width="153.7" height="5.5"/>
<rect x="644.8" y="296.6" class="st3" width="153.7" height="5.5"/>
<rect x="644.8" y="465.2" class="st4" width="153.7" height="5.5"/>
<rect x="644.8" y="465.2" class="st3" width="153.7" height="5.5"/>
<rect x="644.8" y="303" class="st4" width="5.5" height="62.7"/>
<rect x="644.8" y="303" class="st3" width="5.5" height="62.7"/>
<rect x="644.8" y="415.5" class="st4" width="5.5" height="55.4"/>
<rect x="644.8" y="415.5" class="st3" width="5.5" height="55.4"/>
<rect x="619.3" y="445.1" class="st4" width="30.3" height="5.5"/>
<rect x="619.3" y="445.1" class="st3" width="30.3" height="5.5"/>
<rect x="518.7" y="445.1" class="st4" width="31.6" height="5.5"/>
<rect x="518.7" y="445.1" class="st3" width="31.6" height="5.5"/>
<rect x="794.5" y="221.7" class="st4" width="9.3" height="269.3"/>
<rect x="794.5" y="221.7" class="st3" width="9.3" height="269.3"/>
<rect x="625" y="200" class="st4" width="202" height="24"/>
<rect x="519.3" y="372.6" class="st3" width="22.9" height="69.7"/>
<line class="st3" x1="522.7" y1="443.2" x2="522.7" y2="371.6"/>
<polyline class="st3" points="522.6,438.1 538.6,436.4 538.6,427.2 522.6,425.2 "/>
<polyline class="st3" points="523,422.4 538.6,420.5 538.6,378.7 522.6,377.4 "/>
<rect x="768.7" y="224.6" class="st3" width="22.9" height="69.7"/>
<line class="st3" x1="772.1" y1="295.3" x2="772.1" y2="223.6"/>
<polyline class="st3" points="772,290.1 788,288.4 788,279.2 772,277.3 "/>
<polyline class="st3" points="772.4,274.5 788,272.6 788,230.8 772,229.4 "/>
<line class="st3" x1="810.1" y1="295.3" x2="810.1" y2="223.6"/>
<rect x="655.1" y="412.9" class="st3" width="32.3" height="47"/>
<line class="st3" x1="654.9" y1="412.6" x2="687.6" y2="460.2"/>
<line class="st3" x1="687.6" y1="412.6" x2="654.9" y2="460.2"/>
<path class="st3" d="M648.5,418.9l-28.2-45c0,0,5.8-3.7,14.7-5.8c8.8-2,15.9-1.7,15.9-1.7"/>
<path class="st3" d="M506.3,271.8l-37.4,59.1c0,0,7.7,4.9,19.5,7.6c11.7,2.7,21,2.2,21,2.2"/>
<path class="st3" d="M631.4,215.5L562.9,259c0,0-5.7-9-8.8-22.6s-2.5-24.4-2.5-24.4"/>
<path class="st3" d="M548.6,450.4l59.9,34.5c0,0,4.9-7.7,7.6-19.5c2.7-11.7,2.2-21.1,2.2-21.1"/>
<path class="st3" d="M787.7,446.2c2.4,0,4.4-2,4.4-4.4v-21.1c0-2.4-2-4.4-4.4-4.4h-5.2c-2.4,0-4.4,2-4.4,4.4v21.1
	c0,2.4,2,4.4,4.4,4.4H787.7z"/>
<path class="st3" d="M736.6,431.2c0,8.3,6.8,15,15.2,15H774c2.1,0,3.9-1.7,3.9-3.8v-22.3c0-2.1-1.7-3.8-3.9-3.8h-22.3
	C743.4,416.3,736.6,423,736.6,431.2z"/>
<path class="st3" d="M741.9,431c0,6,4.9,10.8,11,10.8H769l0,0v-21.6l0,0h-16.1C746.8,420.2,741.9,425.1,741.9,431z"/>
<path class="st3" d="M785.3,429.6c-0.9,0-1.7,0.7-1.7,1.6s0.7,1.6,1.7,1.6c0.9,0,1.7-0.7,1.7-1.6
	C786.9,430.3,786.2,429.6,785.3,429.6z"/>
<path class="st3" d="M755.4,428.1c-1.6,0-3,1.3-3,2.9s1.3,2.9,3,2.9c1.6,0,3-1.3,3-2.9S757.1,428.1,755.4,428.1z"/>
<line class="st3" x1="766.9" y1="439.6" x2="759.6" y2="434.8"/>
<line class="st3" x1="766.9" y1="422.4" x2="759.6" y2="427.3"/>
<path class="st5" d="M657.3,325.8c0-10.5,8.5-19.1,19.1-19.1h94.4c10.5,0,19.1,8.5,19.1,19.1v17.4c0,10.5-8.5,19.1-19.1,19.1h-94.4
	c-10.5,0-19.1-8.5-19.1-19.1V325.8z"/>
<path class="st5" d="M666.5,331c0-10.5,8.5-19.1,19.1-19.1h75.9c10.5,0,19.1,8.5,19.1,19.1v6.9c0,10.5-8.5,19.1-19.1,19.1h-75.9
	c-10.5,0-19.1-8.5-19.1-19.1V331z"/>
<path class="st5" d="M677.7,326.5c0-5.3,4.3-9.5,9.5-9.5H766c5.3,0,9.5,4.3,9.5,9.5v16c0,5.3-4.3,9.5-9.5,9.5h-78.8
	c-5.3,0-9.5-4.3-9.5-9.5V326.5z"/>
<path class="st5" d="M765.6,334.5c0,1.3-1.1,2.4-2.3,2.4s-2.3-1.1-2.3-2.4s1.1-2.4,2.3-2.4S765.6,333.2,765.6,334.5z"/>
<line class="st3" x1="650.9" y1="365.5" x2="796.3" y2="365.5"/>
<path class="st3" d="M789.4,409.2c1.5,0,2.7-1.2,2.7-2.7v-14v-5.3v-14c0-1.5-1.2-2.7-2.7-2.7c0,0-17.1,0-17.5,0.2
	c-7.7,1.5-13.4,8.4-13.4,16.5v5.3c0,8.1,5.7,15,13.4,16.6C772.3,409.3,789.4,409.2,789.4,409.2z"/>
<path class="st3" d="M784.2,405.4c1.2,0,2.2-1,2.2-2.2V392v-4.2v-11.2c0-1.2-1-2.2-2.2-2.2c0,0-11.4,0-11.7,0.1
	c-6.1,1.2-10.6,6.7-10.6,13.2v4.2c0,6.5,4.5,12,10.6,13.2C772.8,405.4,784.2,405.4,784.2,405.4z"/>
<path class="st3" d="M771.3,389.9c0,0.8,0.6,1.4,1.4,1.4c0.8,0,1.4-0.6,1.4-1.4s-0.6-1.4-1.4-1.4
	C771.9,388.6,771.3,389.2,771.3,389.9z"/>
<rect x="744.6" y="474.5" class="st3" width="47" height="46.9"/>
<path class="st3" d="M759.6,497.9c0,1.3,1.1,2.4,2.5,2.4s2.5-1.1,2.5-2.4s-1.1-2.4-2.5-2.4C760.7,495.5,759.6,496.6,759.6,497.9z"/>
<path class="st3" d="M777.9,482.8c0-1.8-1.5-3.3-3.3-3.3h-21.9c-1.8,0-3.3,1.5-3.3,3.3v30.3c0,1.8,1.5,3.3,3.3,3.3h21.9
	c1.8,0,3.3-1.5,3.3-3.3V482.8z"/>
<path class="st3" d="M774.2,486.2c0-1.8-1.5-3.3-3.3-3.3h-15.1c-1.8,0-3.3,1.5-3.3,3.3v23.4c0,1.8,1.5,3.3,3.3,3.3h15.1
	c1.8,0,3.3-1.5,3.3-3.3V486.2z"/>
<path class="st5" d="M369.7,409.3c25.8,0,46.7-20.9,46.7-46.7c0-25.8-20.9-46.6-46.7-46.6c-25.8,0-46.7,20.9-46.7,46.6
	C323,388.4,343.9,409.3,369.7,409.3z"/>
<path class="st4" d="M380.8,365.9l9.5,17.4h12.3l-10-17.1c-0.9-1.6-2.7-3.2-3.8-3.8v-0.2c1.1-0.7,2.4-1.8,3.3-3.5l9.8-16H390
	l-9.3,15.9H378c0.4-1.7,0.5-3.4,0.5-5.1v-10.8h-11v40.7h11v-13.6c0-1.1-0.2-2.5-0.5-3.8h2.8V365.9z M359.1,383.3v-40.7h-11l-10.3,4
	l1.3,7l9.4-2.1c-0.4,1.7-0.4,3.2-0.4,4.8v26.9h11V383.3z"/>
<path class="st4" d="M444.3,453.1H438v-22h-10.9l-2.3,8.3v13.7h-10.4c-1.2,0-2-0.8-1.4-2.2l11.7-30.2h-13.5l-13.3,33.8
	c-1.7,4.2,1.2,8.3,5.6,8.3h21.3V474H438v-11.2h0.2l6.2-1.4v-8.3H444.3z M384.7,460.9c-3.7,0-4.9,1.2-4.9,4.9v3.4
	c0,3.7,1.2,4.9,4.9,4.9h3.3c3.7,0,4.9-1.2,4.9-4.9v-3.4c0-3.7-1.2-4.9-4.9-4.9H384.7z M370.3,474v-53.3h-14.4l-13.5,5.2l1.7,9.2
	l12.4-2.8c-0.5,2.2-0.5,4.2-0.5,6.3V474H370.3z M341.4,453.1h-6.3v-22h-10.9l-2.3,8.3v13.7h-10.4c-1.2,0-2-0.8-1.4-2.2l11.7-30.2
	h-13.5L295,454.5c-1.7,4.2,1.2,8.3,5.6,8.3h21.3V474h13.2v-11.2h0.2l6.2-1.4v-8.3H341.4z"/>
<path class="st4" d="M382.6,529.8c2.3,0,3,1,3,6.5s-0.6,6.5-3,6.5c-2.2,0-2.9-1-2.9-6.5S380.3,529.8,382.6,529.8 M382.6,525.5
	c-6.3,0-8.5,2.7-8.5,10.9c0,8.1,2.2,10.9,8.5,10.9c6.4,0,8.6-2.7,8.6-10.9S389,525.5,382.6,525.5 M368.4,541.6
	c-1.5,0-1.9,0.5-1.9,1.9v1.3c0,1.5,0.5,1.9,1.9,1.9h1.3c1.5,0,1.9-0.5,1.9-1.9v-1.3c0-1.5-0.5-1.9-1.9-1.9H368.4z M353.4,533.1
	c0-2.5,0.2-3.5,2.4-3.5c2.4,0,2.6,0.8,2.6,5.4c-1,0.6-1.7,0.8-2.6,0.8C353.9,535.8,353.4,535.2,353.4,533.1 M349,546.5
	c2.4,0.6,4.7,0.6,5.8,0.6c6.7,0,9.1-1.6,9.1-11c0-8.4-1.4-10.6-8-10.6c-6.1,0-7.8,2.3-7.8,7.7c0,3.8,1.3,6.5,6,6.5
	c1.9,0,3.2-0.3,4.3-1.2c-0.2,3.6-0.9,4.6-3.6,4.6s-3.7,0-5.5,0L349,546.5z M344.6,546.8v-20.9H339l-5.3,2.1l0.7,3.6l4.8-1.1
	c-0.2,0.8-0.2,1.7-0.2,2.5v13.8L344.6,546.8L344.6,546.8z"/>
<path class="st4" d="M470.2,505.2c0-0.7,0.4-1.2,1.3-1.2h3.2v1.9c-1,0.6-2.1,1-2.9,1c-1,0-1.5-0.4-1.5-1.2v-0.5H470.2z M466.1,499.3
	c2.5-0.2,4.9-0.2,6.4-0.2c1.6,0,2.1,0.5,2.1,1.7v0.4h-5c-3,0-4.8,1.4-4.8,3.8v1.5c0,2.8,2.3,4.3,5.1,4.3c2.6,0,4.3-1.3,5.4-2.6
	l0.5,2.2h4.4v-9.6c0-4.5-2.2-5.9-6.3-5.9c-2.2,0-6,0.3-8.2,0.8L466.1,499.3z M463.6,499.6v-4.1h-15v4.1h4.8v10.9h5.5v-10.9H463.6z
	 M436.8,505.2c0-0.7,0.4-1.2,1.3-1.2h3.2v1.9c-1,0.6-2.1,1-2.9,1c-1,0-1.5-0.4-1.5-1.2v-0.5H436.8z M432.7,499.3
	c2.5-0.2,4.9-0.2,6.4-0.2c1.6,0,2.1,0.5,2.1,1.7v0.4h-5c-3,0-4.8,1.4-4.8,3.8v1.5c0,2.8,2.3,4.3,5.1,4.3c2.6,0,4.3-1.3,5.4-2.6
	l0.5,2.2h4.4v-9.6c0-4.5-2.2-5.9-6.3-5.9c-2.2,0-6,0.3-8.2,0.8L432.7,499.3z M428.9,495.4h-5.4v5.3h-4.6v-5.3h-5.4v15h5.4v-6.1h4.6
	v6.1h5.4V495.4z M403.4,495.4c-1.2,0-1.9,0.6-2.1,1.7l-1.3,5.6c-0.2,0.8-0.2,1.5-0.3,2.2h-0.2c-0.1-0.8-0.1-1.5-0.3-2.2l-1.3-5.6
	c-0.2-1.1-0.9-1.7-2-1.7h-4.7c-1.2,0-1.9,0.6-1.9,1.9l-0.4,13.2h5l0.3-11h0.4l1.8,7.3c0.2,1.1,0.9,1.7,2.1,1.7h2.5
	c1.2,0,1.8-0.5,2.1-1.7l1.8-7.3h0.4l0.4,11h5l-0.4-13.2c0-1.2-0.6-1.9-1.9-1.9H403.4z M378.4,498.9c1.8,0,2.3,0.8,2.3,4.1
	c0,3.3-0.5,4-2.3,4c-1.9,0-2.4-0.7-2.4-4C376.1,499.6,376.5,498.9,378.4,498.9 M378.4,495c-5.9,0-8.1,2.1-8.1,8
	c0,5.8,2.2,7.9,8.1,7.9s8.1-2.1,8.1-7.9C386.5,497.1,384.3,495,378.4,495 M363.3,502.6c3.5-0.5,3.3-0.8,5.2-7.1H363
	c-1.3,5-1.4,5.4-3.5,5.4h-0.7c0.1-0.6,0.2-1.3,0.2-1.9v-3.5h-5.5v15h5.5v-4.8c0-0.4-0.1-0.8-0.2-1.2h1.2c1.6,0,1.7,0.4,3.3,6h5.7
	c-2.1-7.1-2.2-7.2-5.7-7.7V502.6z M338.5,502.2h-2.2c-1.4,0-1.7-0.4-1.7-1.9c0-1.1,0.3-1.4,1.7-1.4h2.2V502.2z M332.6,504.1
	c-0.9,0.1-2.5,0.3-2.9,1.6l-1.2,4.7h5.6l0.9-4c0.1-0.7,0.5-0.9,1.4-0.9h2v4.9h5.3v-15.2c-1.9-0.2-3.5-0.2-7.6-0.2
	c-5.5,0-6.9,1.1-6.9,4.8c0,1.8,0.7,3.5,3.3,4.1v0.2H332.6z M316.6,505.2c0-0.7,0.4-1.2,1.3-1.2h3.1v1.9c-1,0.6-2.1,1-2.9,1
	c-1,0-1.5-0.4-1.5-1.2V505.2z M312.5,499.3c2.5-0.2,4.9-0.2,6.4-0.2c1.6,0,2.1,0.5,2.1,1.7v0.4h-5c-3,0-4.8,1.4-4.8,3.8v1.5
	c0,2.8,2.3,4.3,5,4.3c2.6,0,4.3-1.3,5.4-2.6l0.5,2.2h4.4v-9.6c0-4.5-2.2-5.9-6.3-5.9c-2.2,0-6,0.3-8.2,0.8L312.5,499.3z
	 M308.7,495.4h-9.1c-2.6,0-3.9,1.3-4.1,3.9c-0.2,2.8-0.5,4.9-0.8,5.9c-0.3,1.2-1.2,1.2-2.5,1.4l0.5,4c3.3,0.5,6.3-0.2,6.9-3.9
	c0.3-1.5,0.6-4,0.9-6.3c0.1-0.9,0.5-1.3,1.4-1.3h1.3v11.4h5.5L308.7,495.4L308.7,495.4z M290.3,510.5v-15.1h-4.8l-4.8,7.2
	c-0.5,0.7-0.8,1.4-1.2,2.2h-0.1c0.1-0.9,0.2-1.5,0.2-2.3v-7.1h-4.9v15h4.8l4.7-6.9c0.4-0.7,0.9-1.7,1.2-2.5h0.1
	c-0.1,1-0.2,1.8-0.2,2.7v6.8L290.3,510.5L290.3,510.5z M265.8,499.5c4.1-0.5,4.1-2.4,6.4-9.9h-5.8c-1.9,6.3-2.2,8.1-4.3,8.1h-1
	c0.2-0.9,0.2-1.8,0.2-2.6v-5.5H256v5.5c0,0.8,0.1,1.7,0.3,2.6h-1.1c-2,0-2.4-1.9-4.2-8.1h-5.8c2.2,7.5,2.3,9.4,6.4,9.9v0.2
	c-4.2,0.6-4.5,2.2-6.9,10.8h5.9c2.3-7.6,2.6-8.9,4.6-8.9h1.1c-0.2,0.7-0.2,1.4-0.2,1.9v7h5.4v-7c0-0.6-0.1-1.3-0.2-1.9h1
	c2.1,0,2.3,1.4,4.6,8.9h6c-2.5-8.6-2.7-10.2-7-10.8L265.8,499.5L265.8,499.5z"/>
<path class="st4" d="M669.4,591.8c2.3,0,2.8,0.5,2.8,2.7c0,2.1-0.5,2.6-2.8,2.6c-2.4,0-2.9-0.5-2.9-2.6
	C666.5,592.3,667,591.8,669.4,591.8 M669.4,583.3c2.1,0,2.6,0.5,2.6,2.5c0,1.8-0.4,2.3-2.5,2.3c-2.2,0-2.7-0.4-2.7-2.3
	C666.8,583.8,667.3,583.3,669.4,583.3 M664.9,590c-3,0.3-3.7,2.8-3.7,5.6c0,4.1,1.7,5.7,8.2,5.6c6.6-0.1,8.2-1.6,8.2-5.6
	c0-2.8-0.7-5.3-3.7-5.6v-0.1c2.3-0.2,3.2-2.5,3.2-4.8c0-3.9-1.3-5.6-7.7-5.6c-6.3,0-7.7,1.7-7.7,5.6
	C661.7,587.3,662.6,589.6,664.9,590L664.9,590z M655.3,595.6c-1.5,0-1.9,0.5-1.9,1.9v1.3c0,1.5,0.5,1.9,1.9,1.9h1.3
	c1.5,0,1.9-0.5,1.9-1.9v-1.3c0-1.5-0.5-1.9-1.9-1.9H655.3z M642.7,591.8c2.3,0,2.8,0.5,2.8,2.7c0,2.1-0.5,2.6-2.8,2.6
	c-2.4,0-2.9-0.5-2.9-2.6C639.7,592.3,640.3,591.8,642.7,591.8 M642.6,583.3c2.1,0,2.6,0.5,2.6,2.5c0,1.8-0.4,2.3-2.5,2.3
	c-2.2,0-2.7-0.4-2.7-2.3C640,583.8,640.5,583.3,642.6,583.3 M638.1,590c-3,0.3-3.7,2.8-3.7,5.6c0,4.1,1.7,5.7,8.2,5.6
	c6.6-0.1,8.2-1.6,8.2-5.6c0-2.8-0.7-5.3-3.7-5.6v-0.1c2.3-0.2,3.2-2.5,3.2-4.8c0-3.9-1.3-5.6-7.7-5.6c-6.3,0-7.7,1.7-7.7,5.6
	C634.9,587.3,635.8,589.6,638.1,590L638.1,590z"/>
<path class="st4" d="M694.6,556.2h-2.2c-1.4,0-1.7-0.4-1.7-1.9c0-1.1,0.3-1.4,1.7-1.4h2.2V556.2z M688.7,558.1
	c-0.9,0.1-2.5,0.3-2.9,1.6l-1.2,4.7h5.6l0.9-4c0.1-0.7,0.5-0.9,1.4-0.9h2v4.9h5.3v-15.2c-1.9-0.2-3.5-0.2-7.6-0.2
	c-5.5,0-6.9,1.1-6.9,4.8c0,1.8,0.7,3.5,3.3,4.1v0.2H688.7z M682.5,549.4h-5.4v5.3h-4.6v-5.3h-5.4v15h5.4v-6.1h4.6v6.1h5.4V549.4z
	 M659.8,564.5h5.5l-4.5-7.7l4.1-7.4h-5.5l-3,5.6l-3-5.6h-5.5l4.1,7.4l-4.5,7.7h5.5l3.3-6.1L659.8,564.5z M647.6,549.4h-5.9l-2.2,9
	c-0.2,0.7-0.4,1.7-0.6,2.6h-0.3c-0.1-0.9-0.3-1.7-0.4-2.6l-2.3-9H630l4.7,13.7c0.2,0.8,0.9,1.3,1.8,1.3h1c-0.4,0.8-1,1.5-1.6,1.8
	c-1,0.5-2.3,0.7-4.2,0.6l-0.5,3.6c2.1,0.4,4.4,0.4,6.2-0.3c2.3-0.8,4.1-2.3,5.1-5.8L647.6,549.4z M622.9,553.5
	c4.1-0.5,4.3-2.4,6.6-9.9h-5.8c-1.6,6.3-2,8.1-5,8.1h-1c0.2-0.8,0.2-1.8,0.2-2.6v-5.5h-5.7v20.9h5.7v-7c0-0.6-0.1-1.3-0.2-1.9h1.1
	c2.9,0,3.1,1.4,5.3,8.9h5.9c-2.6-8.6-2.8-10.2-7.1-10.8V553.5z"/>
<path class="st4" d="M705.7,750.6c3.3,1.4,4.5,5.8,4.5,12.1c0,6.2-1.2,10.6-4.5,12.1l0.6,2.3c6.4-1.8,9.2-6.4,9.2-14.4
	c0-8.1-2.9-12.7-9.2-14.5L705.7,750.6z M689.7,751.3l0.2,4.6h9.1c-0.5,0.7-0.8,1.5-1,2.2l-5,14.1h5.6l6.3-18.1
	c0.5-1.5-0.5-2.8-2.1-2.8H689.7z M685.6,767.1c-1.5,0-1.9,0.5-1.9,1.9v1.3c0,1.5,0.5,1.9,1.9,1.9h1.3c1.5,0,1.9-0.5,1.9-1.9V769
	c0-1.5-0.5-1.9-1.9-1.9H685.6z M681.6,764h-2.5v-8.6h-4.3l-0.9,3.3v5.4h-4.1c-0.5,0-0.8-0.3-0.5-0.9l4.6-11.8h-5.3l-5.2,13.3
	c-0.7,1.6,0.5,3.2,2.2,3.2h8.4v4.4h5.2v-4.4h0.1l2.4-0.5V764H681.6z M663,748.3c-6.4,1.8-9.2,6.3-9.2,14.5c0,8.1,2.9,12.6,9.2,14.4
	l0.6-2.3c-3.3-1.5-4.5-5.9-4.5-12.1c0-6.3,1.2-10.7,4.5-12.1L663,748.3z M645.7,764h-2.5v-8.6h-4.3l-0.9,3.3v5.4h-4.1
	c-0.5,0-0.8-0.3-0.5-0.9l4.6-11.8h-5.3l-5.2,13.3c-0.7,1.6,0.5,3.2,2.2,3.2h8.4v4.4h5.2v-4.4h0.1l2.4-0.5V764H645.7z M622.3,767.1
	c-1.4,0-1.9,0.5-1.9,1.9v1.3c0,1.5,0.5,1.9,1.9,1.9h1.3c1.5,0,1.9-0.5,1.9-1.9V769c0-1.5-0.5-1.9-1.9-1.9H622.3z M607.3,758.5
	c0-2.5,0.2-3.5,2.4-3.5c2.4,0,2.6,0.8,2.6,5.4c-1,0.6-1.7,0.8-2.6,0.8C607.8,761.3,607.3,760.7,607.3,758.5 M602.9,772
	c2.4,0.6,4.7,0.6,5.8,0.6c6.7,0,9.1-1.6,9.1-11c0-8.4-1.4-10.6-8-10.6c-6.1,0-7.8,2.3-7.8,7.7c0,3.8,1.3,6.5,6,6.5
	c1.9,0,3.1-0.3,4.3-1.2c-0.2,3.6-0.9,4.6-3.6,4.6c-2.7,0-3.7,0-5.5,0L602.9,772z"/>
<path class="st4" d="M588,329.9l0.1-2.9H579l-0.4,6.6c0,0.7,0.4,1.2,1.1,1.3l2.3,0.3c2,0.2,2.7,0.4,2.6,1.8
	c-0.1,1.2-0.5,1.7-2.4,1.7c-1,0-2.4-0.1-3.8-0.2l-0.4,3c1.9,0.3,3.7,0.4,5.2,0.4c4.1,0,5.3-2.1,5.3-4.8c0-2.3-0.9-4.4-4.3-4.8
	l-2.4-0.3l0.1-2h6.1V329.9z M574.3,338c-1,0-1.3,0.3-1.3,1.3v0.9c0,1,0.3,1.3,1.3,1.3h0.9c1,0,1.3-0.3,1.3-1.3v-0.9
	c0-1-0.3-1.3-1.3-1.3H574.3z M570.8,329.9l0.1-2.9h-9.1l-0.4,6.6c0,0.7,0.4,1.2,1.1,1.3l2.3,0.3c2,0.2,2.7,0.4,2.6,1.8
	c-0.1,1.2-0.5,1.7-2.4,1.7c-1,0-2.4-0.1-3.8-0.2l-0.4,3c1.9,0.3,3.7,0.4,5.2,0.4c4.1,0,5.3-2.1,5.3-4.8c0-2.3-0.9-4.4-4.3-4.8
	l-2.4-0.3l0.1-2h6.1V329.9z"/>
<path class="st4" d="M624.1,310.4h-1.5c-1,0-1.2-0.3-1.2-1.3c0-0.8,0.2-1,1.2-1h1.5V310.4z M619.9,311.7c-0.6,0.1-1.7,0.2-2,1.1
	l-0.8,3.3h3.9l0.7-2.8c0.1-0.5,0.3-0.6,1-0.6h1.4v3.4h3.7v-10.6c-1.3-0.1-2.4-0.2-5.3-0.2c-3.9,0-4.8,0.7-4.8,3.4
	C617.6,310.1,618.1,311.3,619.9,311.7L619.9,311.7z M608.7,312.6c0-0.5,0.3-0.8,0.9-0.8h2.2v1.3c-0.7,0.4-1.4,0.7-2.1,0.7
	c-0.7,0-1-0.3-1-0.8L608.7,312.6L608.7,312.6z M605.8,308.4c1.8-0.1,3.5-0.1,4.5-0.1c1.1,0,1.4,0.3,1.5,1.2v0.3h-3.5
	c-2.1,0-3.4,1-3.4,2.7v1.1c0,2,1.6,3,3.5,3c1.8,0,3-0.9,3.8-1.8l0.4,1.5h3.1v-6.7c0-3.1-1.6-4.1-4.4-4.1c-1.6,0-4.2,0.2-5.8,0.5
	L605.8,308.4z M600,310.7c2.5-0.3,2.4-0.6,3.7-5h-3.8c-1.1,3.5-1.2,3.8-2.3,3.8H597c0.1-0.4,0.1-0.9,0.1-1.3v-2.5h-3.3v2.5
	c0,0.4,0,0.9,0.1,1.3h-0.7c-1.1,0-1.2-0.4-2.3-3.8h-3.8c1.4,4.3,1.3,4.7,3.7,5v0.1c-2.5,0.4-2.6,0.6-4.1,5.4h3.9
	c1.3-4,1.4-4.2,2.3-4.2h0.8c-0.1,0.3-0.1,0.6-0.1,0.9v3.3h3.4v-3.3c0-0.3,0-0.6-0.1-0.9h0.7h0.1c1,0,1,0.3,2.4,4.2h3.9
	c-1.5-4.9-1.6-5.1-4.1-5.4L600,310.7L600,310.7z M580.3,308.1c1.3,0,1.6,0.5,1.6,2.9c0,2.3-0.3,2.8-1.6,2.8s-1.7-0.5-1.7-2.8
	C578.6,308.6,579,308.1,580.3,308.1 M580.3,305.4c-4.2,0-5.7,1.5-5.7,5.6c0,4,1.5,5.5,5.7,5.5c4.1,0,5.7-1.5,5.7-5.5
	C585.9,306.9,584.4,305.4,580.3,305.4 M570.3,316.2h3.9l-3.1-5.4l2.9-5.1h-3.8l-2.1,3.9l-2.1-3.9h-3.8l2.9,5.1l-3.1,5.4h3.9l2.3-4.2
	L570.3,316.2z M560.6,316.2v-10.6h-3.3l-3.3,5c-0.3,0.5-0.6,1-0.8,1.5H553c0.1-0.6,0.1-1.1,0.1-1.6v-5h-3.4V316h3.3l3.3-4.8
	c0.3-0.5,0.7-1.2,0.8-1.8h0.1c-0.1,0.7-0.1,1.3-0.1,1.9v4.7h3.5V316.2z M540.6,308.9c0.7-0.4,1.2-0.7,2-0.7c1,0,1.4,0.4,1.4,2.8
	s-0.4,2.8-1.5,2.8c-0.8,0-1.3-0.2-1.8-0.4v-4.5H540.6z M539.8,305.7h-3.1v14.4h3.8v-2.3c0-0.7,0-1.5-0.1-2.3c0.9,0.7,2.1,1,3.4,1
	c2.6,0,4-1.2,4-5.4c0-3.6-1.1-5.6-3.7-5.6c-1.7,0-3.3,0.8-4,1.7L539.8,305.7z M534.3,301.6H522v14.6h4v-11.9h4.3v11.9h4V301.6z"/>
<path class="st4" d="M723.1,409h-1.7v-6h-3l-0.6,2.3v3.8h-2.9c-0.3,0-0.6-0.2-0.4-0.6l3.2-8.3H714l-3.6,9.3
	c-0.5,1.1,0.3,2.3,1.5,2.3h5.9v3.1h3.6v-3.1l0,0l1.7-0.4L723.1,409L723.1,409z M706.7,411.1c-1,0-1.3,0.3-1.3,1.3v0.9
	c0,1,0.3,1.3,1.3,1.3h0.9c1,0,1.3-0.3,1.3-1.3v-0.9c0-1-0.3-1.3-1.3-1.3H706.7z M693.5,402.9c1.1,0,2.6,0,4.1,0s1.9,0.2,1.9,1.4
	c0,1-0.1,1.6-1.7,1.6H695v2.5h2.8c1.6,0,1.9,0.5,1.9,1.7c0,1.5-0.6,1.8-2.4,1.8c-1.3,0-2.2,0-4-0.1l-0.1,2.9
	c1.7,0.2,3.5,0.4,5.3,0.4c3.9,0,5.3-1.3,5.3-4.4c0-2.2-0.7-3.3-2.7-3.7v-0.1c1.9-0.3,2.3-1.6,2.3-3.7c0-2.6-1.4-3.4-4.9-3.4
	c-1.6,0-3.2,0.1-4.9,0.4L693.5,402.9z"/>
<path class="st4" d="M726.3,378.7h-4.1l-1.5,6.3c-0.1,0.5-0.3,1.2-0.4,1.8H720c-0.1-0.6-0.2-1.2-0.3-1.8l-1.6-6.3H714l3.3,9.6
	c0.2,0.6,0.6,0.9,1.2,0.9h0.7c-0.3,0.5-0.7,1-1.1,1.3c-0.7,0.4-1.6,0.5-2.9,0.4l-0.3,2.5c1.5,0.3,3.1,0.3,4.3-0.2
	c1.6-0.6,2.8-1.6,3.6-4.1L726.3,378.7z M705.6,390.9l8.3-16.2h-3l-8.3,16.2H705.6z M701.4,386c-1.4,0.1-2.6,0.2-4.6,0.2
	c-1.7,0-2.2-0.9-2.2-4.2c0-3.3,0.5-4.2,2.2-4.2c1.9,0,2.9,0,4.3,0.1l0.3-2.9c-1.4-0.4-2.4-0.5-4.6-0.5c-4.7,0-6.4,2-6.4,7.6
	s1.7,7.6,6.4,7.6c2.2,0,3.5-0.2,4.9-0.7L701.4,386z"/>
</svg>
