<?xml version="1.0" encoding="utf-8"?>
<!-- Generator: Adobe Illustrator 26.5.0, SVG Export Plug-In . SVG Version: 6.00 Build 0)  -->
<svg version="1.1" id="Слой_1" xmlns="http://www.w3.org/2000/svg" xmlns:xlink="http://www.w3.org/1999/xlink" x="0px" y="0px"
	 viewBox="0 0 1000 1000" style="enable-background:new 0 0 1000 1000;" xml:space="preserve">
<style type="text/css">
	.st0{fill:#FFF5A6;}
	.st1{fill:#3C3C3B;}
	.st2{fill:none;stroke:#3C3C3B;}
	.st3{fill:none;stroke:#3C3C3B;stroke-width:1;stroke-miterlimit:4.0001;}
</style>
<rect x="250.7" y="187.2" class="st0" width="429.7" height="394.9"/>
<rect x="469.1" y="523.8" class="st0" width="214.9" height="397.1"/>
<rect x="676.8" y="93.5" class="st1" width="22.7" height="851.9"/>
<rect x="676.8" y="93.5" class="st2" width="22.7" height="851.9"/>
<rect x="633" y="166.9" class="st1" width="50.9" height="20.4"/>
<rect x="633" y="166.9" class="st2" width="50.9" height="20.4"/>
<rect x="463.3" y="166.9" class="st1" width="50.9" height="20.4"/>
<rect x="463.3" y="166.9" class="st2" width="50.9" height="20.4"/>
<rect x="560.4" y="166.9" class="st2" width="73.8" height="20.4"/>
<rect x="628.5" y="162.2" class="st1" width="55.5" height="4.7"/>
<rect x="628.5" y="162.2" class="st2" width="55.5" height="4.7"/>
<rect x="463.3" y="162.2" class="st1" width="55.5" height="4.7"/>
<rect x="463.3" y="162.2" class="st2" width="55.5" height="4.7"/>
<rect x="554.5" y="162.2" class="st2" width="79.7" height="4.7"/>
<g>
	<path class="st2" d="M560.2,166.2c0,0,0,5.8-2.6,13c-2.1,6-6.4,11.6-6.4,11.6l-40-22.6l0.9-1.4l40.1,22.6"/>
</g>
<rect x="413.9" y="166.9" class="st1" width="50.9" height="20.4"/>
<rect x="413.9" y="166.9" class="st2" width="50.9" height="20.4"/>
<rect x="244.2" y="166.9" class="st1" width="50.9" height="20.4"/>
<rect x="244.2" y="166.9" class="st2" width="50.9" height="20.4"/>
<rect x="341.3" y="166.9" class="st2" width="73.8" height="20.4"/>
<rect x="409.4" y="162.2" class="st1" width="55.5" height="4.7"/>
<rect x="409.4" y="162.2" class="st2" width="55.5" height="4.7"/>
<rect x="244.2" y="162.2" class="st1" width="55.5" height="4.7"/>
<rect x="244.2" y="162.2" class="st2" width="55.5" height="4.7"/>
<rect x="335.4" y="162.2" class="st2" width="79.7" height="4.7"/>
<g>
	<path class="st2" d="M341.2,166.2c0,0,0,5.8-2.6,13c-2.1,6-6.4,11.6-6.4,11.6l-40-22.6l0.9-1.4l40.1,22.6"/>
</g>
<rect x="458.5" y="164.3" class="st1" width="11.6" height="309.4"/>
<rect x="458.5" y="164.3" class="st2" width="11.6" height="309.4"/>
<rect x="246.6" y="438.4" class="st1" width="158" height="9.7"/>
<rect x="244.5" y="438.4" class="st2" width="160.1" height="9.7"/>
<rect x="240.9" y="64" class="st1" width="35.5" height="100"/>
<rect x="275.2" y="63.7" class="st2" width="192.6" height="7.4"/>
<polygon class="st2" points="469,63.7 469,71.1 677.7,100.7 677.7,93.3 "/>
<rect x="240.2" y="557.1" class="st1" width="10.4" height="30.3"/>
<rect x="240.2" y="557.1" class="st2" width="10.4" height="30.3"/>
<rect x="459.7" y="535.9" class="st1" width="10.4" height="409.6"/>
<rect x="459.7" y="535.9" class="st2" width="10.4" height="409.6"/>
<rect x="245" y="576.6" class="st1" width="224.7" height="10.4"/>
<rect x="245" y="576.6" class="st2" width="224.7" height="10.4"/>
<rect x="240.2" y="64" class="st1" width="10.4" height="437.1"/>
<rect x="633.6" y="940.6" class="st1" width="55.4" height="4.7"/>
<rect x="633.6" y="940.6" class="st2" width="55.4" height="4.7"/>
<rect x="500.5" y="940.6" class="st2" width="145.7" height="4.7"/>
<rect x="638.9" y="921.2" class="st1" width="44.6" height="24.1"/>
<rect x="638.9" y="921.2" class="st2" width="44.6" height="24.1"/>
<rect x="497.2" y="921.2" class="st2" width="152.4" height="24.1"/>
<rect x="467.2" y="920.9" class="st1" width="42.8" height="20.4"/>
<rect x="467.2" y="920.9" class="st2" width="42.8" height="20.4"/>
<rect x="465.9" y="941.3" class="st1" width="47.5" height="4.7"/>
<rect x="465.9" y="941.3" class="st2" width="47.5" height="4.7"/>
<rect x="522.6" y="400.1" class="st1" width="157.8" height="8.3"/>
<rect x="522.6" y="400.1" class="st2" width="157.8" height="8.3"/>
<rect x="522.6" y="577.5" class="st1" width="160.9" height="8.3"/>
<rect x="522.6" y="577.5" class="st2" width="160.9" height="8.3"/>
<rect x="540.2" y="449" class="st1" width="6.7" height="56.2"/>
<rect x="540.2" y="449" class="st2" width="6.7" height="56.2"/>
<rect x="540.2" y="540.3" class="st1" width="6.7" height="43.2"/>
<rect x="540.2" y="540.3" class="st2" width="6.7" height="43.2"/>
<rect x="544.2" y="463.5" class="st1" width="134.6" height="6.1"/>
<rect x="544.2" y="463.5" class="st2" width="134.6" height="6.1"/>
<line class="st2" x1="672.6" y1="522.7" x2="672.6" y2="575.3"/>
<rect x="618.4" y="409.3" class="st2" width="18.3" height="52.5"/>
<line class="st2" x1="634.2" y1="409.6" x2="634.2" y2="462.2"/>
<polyline class="st2" points="633.9,412 620.7,413.2 620.7,446.4 633.9,447.8 633.9,450 620.5,451.5 620.5,458.9 633.9,460.5 "/>
<path class="st2" d="M463.4,406.6l51.8-29.8c0,0,2.7,4.2,5,13.3c2.3,9.1,2.3,15.4,2.3,15.4"/>
<path class="st2" d="M463.9,443l-51.8-29.8c0,0-2.7,4.2-5,13.3c-2.3,9.1-2.3,15.4-2.3,15.4"/>
<path class="st2" d="M463.6,579.2l51.8,29.8c0,0,2.7-4.2,5-13.3s2.3-15.4,2.3-15.4"/>
<path class="st2" d="M245,567.8l33.6-58.3c0,0-4.8-3-15-5.6c-10.3-2.6-17.4-2.6-17.4-2.6"/>
<path class="st2" d="M547.2,401.1l-24.1,42.3c0,0,3.4,2.2,10.8,4.1c7.3,1.9,12.4,1.9,12.4,1.9"/>
<path class="st2" d="M547.2,552.8l-24.1-42.3c0,0,3.4-2.2,10.8-4.1c7.3-1.9,12.4-1.9,12.4-1.9"/>
<rect x="552.9" y="470.7" class="st2" width="35.7" height="37.3"/>
<line class="st2" x1="552.8" y1="471.2" x2="588.4" y2="507.8"/>
<line class="st2" x1="552.8" y1="508.2" x2="588.4" y2="471.6"/>
<g>
	<path class="st1" d="M572.6,435.4c0-6.3,5.1-11.3,11.3-11.3h16.4c1.1,0,2,0.9,2,2v18.8c0,1.1-0.9,2-2,2h-16.4
		C577.7,446.7,572.6,441.7,572.6,435.4 M603.1,426c0-1.5-1.2-2.7-2.7-2.7H584c-6.7,0-12.1,5.4-12.1,12.1s5.4,12.1,12.1,12.1h16.4
		c1.5,0,2.7-1.2,2.7-2.7V426"/>
	<path class="st2" d="M583.9,424.1h16.4c1.1,0,2,0.9,2,2v18.8c0,1.1-0.9,2-2,2h-16.4c-6.3,0-11.3-5.1-11.3-11.3
		C572.6,429.1,577.7,424.1,583.9,424.1z M600.3,423.3h-16.4c-6.7,0-12.1,5.4-12.1,12.1s5.4,12.1,12.1,12.1h16.4
		c1.5,0,2.7-1.2,2.7-2.7V426C603.1,424.5,601.8,423.3,600.3,423.3z"/>
	<path class="st2" d="M596.8,443.5v-16.3c0-0.1-0.1-0.2-0.2-0.2h-12.4c-4.6,0-8.3,3.8-8.3,8.3c0,4.6,3.8,8.3,8.3,8.3h12.4
		C596.7,443.7,596.8,443.6,596.8,443.5z"/>
	<path class="st1" d="M584.2,443.3c-4.4,0-7.9-3.6-7.9-7.9c0-4.4,3.6-7.9,7.9-7.9h12.2v15.9h-12.2V443.3z M597.2,427.3
		c0-0.3-0.3-0.6-0.6-0.6h-12.4c-4.8,0-8.7,3.9-8.7,8.7c0,4.8,3.9,8.7,8.7,8.7h12.4c0.3,0,0.6-0.3,0.6-0.6V427.3"/>
	<path class="st2" d="M584.2,443.3c-4.4,0-7.9-3.6-7.9-7.9c0-4.4,3.6-7.9,7.9-7.9h12.2v15.9h-12.2V443.3z M596.6,426.7h-12.4
		c-4.8,0-8.7,3.9-8.7,8.7c0,4.8,3.9,8.7,8.7,8.7h12.4c0.3,0,0.6-0.3,0.6-0.6v-16.3C597.2,426.9,596.9,426.7,596.6,426.7z"/>
	<path class="st1" d="M584.2,435.4c0-1.2,1-2.1,2.1-2.1c1.2,0,2.1,1,2.1,2.1c0,1.2-1,2.1-2.1,2.1S584.2,436.6,584.2,435.4
		 M589.3,435.4c0-1.6-1.3-2.9-2.9-2.9c-1.6,0-2.9,1.3-2.9,2.9s1.3,2.9,2.9,2.9S589.3,437,589.3,435.4"/>
	<path class="st2" d="M586.4,433.3c1.2,0,2.1,1,2.1,2.1c0,1.2-1,2.1-2.1,2.1c-1.2,0-2.1-1-2.1-2.1
		C584.2,434.2,585.2,433.3,586.4,433.3z M586.4,432.5c-1.6,0-2.9,1.3-2.9,2.9s1.3,2.9,2.9,2.9c1.6,0,2.9-1.3,2.9-2.9
		C589.3,433.8,588,432.5,586.4,432.5z"/>
</g>
<rect x="592" y="436.8" transform="matrix(0.5975 -0.8019 0.8019 0.5975 -114.4179 652.1331)" class="st1" width="0.8" height="6.5"/>
<rect x="592" y="436.8" transform="matrix(0.5975 -0.8019 0.8019 0.5975 -114.4179 652.1331)" class="st3" width="0.8" height="6.5"/>
<polygon class="st1" points="595.2,429.2 590,433.1 589.6,432.5 594.8,428.6 "/>
<polygon class="st2" points="595.2,429.2 590,433.1 589.6,432.5 594.8,428.6 "/>
<path class="st1" d="M603.1,427.6c0-1.7,1.4-3.1,3.1-3.1h4.3c1.7,0,3.1,1.4,3.1,3.1v15.7c0,1.7-1.4,3.1-3.1,3.1h-4.3
	c-1.7,0-3.1-1.4-3.1-3.1V427.6z M614.5,427.6c0-2.2-1.8-3.9-3.9-3.9h-4.3c-2.2,0-3.9,1.8-3.9,3.9v15.7c0,2.2,1.8,3.9,3.9,3.9h4.3
	c2.2,0,3.9-1.8,3.9-3.9V427.6"/>
<path class="st2" d="M603.1,427.6c0-1.7,1.4-3.1,3.1-3.1h4.3c1.7,0,3.1,1.4,3.1,3.1v15.7c0,1.7-1.4,3.1-3.1,3.1h-4.3
	c-1.7,0-3.1-1.4-3.1-3.1V427.6z M610.5,423.6h-4.3c-2.2,0-3.9,1.8-3.9,3.9v15.7c0,2.2,1.8,3.9,3.9,3.9h4.3c2.2,0,3.9-1.8,3.9-3.9
	v-15.7C614.5,425.4,612.7,423.6,610.5,423.6z"/>
<path class="st1" d="M607.2,435.4c0-0.7,0.5-1.2,1.2-1.2s1.2,0.5,1.2,1.2s-0.5,1.2-1.2,1.2S607.2,436.1,607.2,435.4 M610.4,435.4
	c0-1.1-0.9-2-2-2s-2,0.9-2,2s0.9,2,2,2S610.4,436.5,610.4,435.4"/>
<path class="st2" d="M608.4,434.2c0.7,0,1.2,0.5,1.2,1.2s-0.5,1.2-1.2,1.2s-1.2-0.5-1.2-1.2S607.7,434.2,608.4,434.2z M608.4,433.4
	c-1.1,0-2,0.9-2,2s0.9,2,2,2s2-0.9,2-2S609.5,433.4,608.4,433.4z"/>
<path class="st1" d="M612.4,493.9c5.7,0,10.4-4.6,10.4-10.4v-11c0-0.9-0.7-1.6-1.6-1.6h-23.4c-0.9,0-1.6,0.7-1.6,1.6v11
	c0,5.7,4.6,10.4,10.4,10.4H612.4z M621.2,470.4c1.2,0,2.2,1,2.2,2.2v11c0,6-4.9,10.9-10.9,10.9h-5.8c-6,0-10.9-4.9-10.9-10.9v-11
	c0-1.2,1-2.2,2.2-2.2H621.2"/>
<path class="st2" d="M612.4,493.9c5.7,0,10.4-4.6,10.4-10.4v-11c0-0.9-0.7-1.6-1.6-1.6h-23.4c-0.9,0-1.6,0.7-1.6,1.6v11
	c0,5.7,4.6,10.4,10.4,10.4H612.4z M623.4,472.5v11c0,6-4.9,10.9-10.9,10.9h-5.8c-6,0-10.9-4.9-10.9-10.9v-11c0-1.2,1-2.2,2.2-2.2
	h23.4C622.4,470.4,623.4,471.3,623.4,472.5z"/>
<path class="st1" d="M612.4,491.3c4.3,0,7.8-3.5,7.8-7.8v-6.4c0-0.7-0.6-1.4-1.4-1.4h-18.7c-0.7,0-1.4,0.6-1.4,1.4v6.4
	c0,4.3,3.5,7.8,7.8,7.8H612.4z M618.9,475.2c1.1,0,1.9,0.9,1.9,1.9v6.4c0,4.6-3.7,8.4-8.3,8.4h-5.8c-4.6,0-8.3-3.7-8.3-8.4v-6.4
	c0-1.1,0.9-1.9,1.9-1.9H618.9"/>
<path class="st2" d="M612.4,491.3c4.3,0,7.8-3.5,7.8-7.8v-6.4c0-0.7-0.6-1.4-1.4-1.4h-18.7c-0.7,0-1.4,0.6-1.4,1.4v6.4
	c0,4.3,3.5,7.8,7.8,7.8H612.4z M620.8,477.1v6.4c0,4.6-3.7,8.4-8.3,8.4h-5.8c-4.6,0-8.3-3.7-8.3-8.4v-6.4c0-1.1,0.9-1.9,1.9-1.9H619
	C619.9,475.2,620.8,476,620.8,477.1z"/>
<path class="st1" d="M609.5,485.8c0.7,0,1.3-0.6,1.3-1.3c0-0.7-0.6-1.3-1.3-1.3s-1.3,0.6-1.3,1.3
	C608.2,485.3,608.8,485.8,609.5,485.8 M609.5,482.7c1,0,1.9,0.8,1.9,1.9c0,1-0.8,1.9-1.9,1.9c-1,0-1.9-0.8-1.9-1.9
	S608.5,482.7,609.5,482.7"/>
<path class="st2" d="M610.8,484.5c0-0.7-0.6-1.3-1.3-1.3s-1.3,0.6-1.3,1.3c0,0.7,0.6,1.3,1.3,1.3S610.8,485.3,610.8,484.5z
	 M611.4,484.5c0,1-0.8,1.9-1.9,1.9c-1,0-1.9-0.8-1.9-1.9c0-1,0.8-1.9,1.9-1.9C610.6,482.7,611.4,483.5,611.4,484.5z"/>
<path class="st2" d="M648.1,489.4c0.9,0,1.6,0.7,1.6,1.6s-0.7,1.6-1.6,1.6c-0.9,0-1.6-0.7-1.6-1.6S647.2,489.4,648.1,489.4z"/>
<path class="st2" d="M638.7,572.8c-5.7,0-10.3-4.6-10.3-10.3v-77.6c0-5.7,4.6-10.3,10.3-10.3h16.4c5.7,0,10.3,4.6,10.3,10.3v77.6
	c0,5.7-4.6,10.3-10.3,10.3H638.7z"/>
<path class="st2" d="M642.1,566c-5.7,0-10.3-4.6-10.3-10.3v-64c0-5.7,4.6-10.3,10.3-10.3h9.5c5.7,0,10.3,4.6,10.3,10.3v64
	c0,5.7-4.6,10.3-10.3,10.3H642.1z"/>
<path class="st2" d="M640.3,557.8c-2.9,0-5.2-2.3-5.2-5.2v-62.3c0-2.8,2.3-5.2,5.2-5.2h13.2c2.8,0,5.2,2.3,5.2,5.2v62.3
	c0,2.8-2.3,5.2-5.2,5.2H640.3z"/>
<polygon class="st2" points="668.5,470.7 668.5,470.7 668.5,576.7 625.3,576.7 625.3,470.7 "/>
<g>
	<path class="st1" d="M547.5,425.5v-6.8c0-1.1,0.3-1.9,0.8-2.4c0.5-0.6,1.3-0.9,2.3-0.9s1.8,0.3,2.4,0.9c0.6,0.6,0.8,1.4,0.8,2.4
		v1.3h-2.1v-1.4c0-0.9-0.4-1.3-1.1-1.3c-0.7,0-1.1,0.4-1.1,1.3v7.1c0,0.9,0.4,1.3,1.1,1.3c0.7,0,1.1-0.4,1.1-1.3v-1.9h2.1v1.8
		c0,1.1-0.3,1.9-0.8,2.4c-0.6,0.6-1.3,0.9-2.4,0.9c-1,0-1.8-0.3-2.3-0.9S547.5,426.5,547.5,425.5z"/>
	<path class="st1" d="M554.3,428.6l5.2-13.2h1.8l-5.2,13.2H554.3z"/>
	<path class="st1" d="M561.5,415.5h2.1l1.1,4.5l0.6,3.1l0.5-3l0.9-4.5h2.1l-2.2,9.8c-0.1,0.5-0.2,0.9-0.3,1.3s-0.3,0.7-0.5,1
		s-0.4,0.5-0.7,0.7s-0.6,0.3-1.1,0.4c-0.4,0.1-0.9,0.1-1.5,0.1V427c0.6,0,1,0,1.3-0.2c0.3-0.1,0.5-0.4,0.6-0.9v-0.1L561.5,415.5z"/>
</g>
<g>
	<path class="st1" d="M549.5,439.5V438c0.3,0,0.6,0,0.8-0.1s0.4-0.1,0.6-0.2c0.1-0.1,0.3-0.2,0.4-0.4c0.1-0.2,0.2-0.3,0.3-0.4
		s0.1-0.3,0.2-0.5h1.4v13.2h-2.1v-10h-1.6V439.5z"/>
	<path class="st1" d="M555.7,449.5v-1.9h2.1v1.9H555.7z"/>
	<path class="st1" d="M560.4,439.5V438c0.3,0,0.6,0,0.8-0.1s0.4-0.1,0.6-0.2c0.1-0.1,0.3-0.2,0.4-0.4c0.1-0.2,0.2-0.3,0.3-0.4
		s0.1-0.3,0.2-0.5h1.4v13.2H562v-10h-1.6V439.5z"/>
</g>
<g>
	<path class="st1" d="M563.5,530.9v-13.2h3.1c1.1,0,1.8,0.2,2.3,0.7s0.7,1.3,0.7,2.3v0.5c0,1.3-0.4,2.2-1.3,2.7
		c1,0.4,1.5,1.3,1.5,2.8v1.1c0,1-0.3,1.8-0.8,2.3s-1.3,0.8-2.3,0.8L563.5,530.9L563.5,530.9z M565.5,523.1h0.8
		c0.4,0,0.7-0.1,0.9-0.3s0.3-0.6,0.3-1.1V521c0-0.5-0.1-0.8-0.2-1c-0.2-0.2-0.4-0.3-0.8-0.3h-1V523.1z M565.5,529h1.2
		c0.4,0,0.6-0.1,0.8-0.3s0.3-0.5,0.3-1v-1.1c0-0.6-0.1-1-0.3-1.2s-0.5-0.4-1-0.4h-0.9L565.5,529L565.5,529z"/>
	<path class="st1" d="M570.5,530.9l2.1-13.2h3.2l2.1,13.2h-2.1l-0.4-2.4H573l-0.4,2.4H570.5z M573.2,526.7h2l-1-6.6L573.2,526.7z"/>
	<path class="st1" d="M578.7,530.9v-13.2h2.1v5.6h2.3v-5.6h2.1v13.2h-2.1v-5.6h-2.3v5.6H578.7z"/>
	<path class="st1" d="M586.8,530.9v-13.2h2.1v5.6h2.3v-5.6h2.1v13.2h-2.1v-5.6h-2.3v5.6H586.8z"/>
	<path class="st1" d="M594.2,530.9l2.1-13.2h3.2l2.1,13.2h-2.1l-0.4-2.4h-2.5l-0.4,2.4H594.2z M596.9,526.7h2l-1-6.6L596.9,526.7z"
		/>
	<path class="st1" d="M602.1,530.9c0.1-0.4,0.2-0.9,0.2-1.6v-2c0-0.7,0.1-1.3,0.3-1.8s0.6-0.8,1.1-1c-0.9-0.4-1.3-1.3-1.3-2.7v-1
		c0-1,0.2-1.8,0.7-2.3s1.3-0.7,2.3-0.7h3.1V531h-2.1v-5.4h-0.7c-0.5,0-0.8,0.1-1,0.4c-0.2,0.3-0.3,0.7-0.3,1.3v2.1
		c0,0.3,0,0.6,0,0.8s0,0.4-0.1,0.4c0,0.1-0.1,0.2-0.1,0.3H602.1z M604.4,522.2c0,0.5,0.1,0.9,0.3,1.1c0.2,0.2,0.5,0.3,0.9,0.3h0.8
		v-4h-1c-0.4,0-0.6,0.1-0.8,0.3s-0.3,0.6-0.3,1L604.4,522.2L604.4,522.2z"/>
</g>
<g>
	<path class="st1" d="M563.4,557.3v-1.1h2.1v1.2c0,0.9,0.4,1.3,1.1,1.3c0.4,0,0.6-0.1,0.8-0.3s0.3-0.6,0.3-1.2v-1
		c0-0.6-0.1-1-0.3-1.3s-0.6-0.4-1-0.4h-0.7v-1.9h0.8c0.4,0,0.7-0.1,0.9-0.3s0.3-0.6,0.3-1.1v-0.7c0-0.6-0.1-1-0.3-1.2
		s-0.4-0.3-0.8-0.3c-0.7,0-1.1,0.4-1.1,1.3v0.8h-2.1v-0.7c0-1.1,0.3-1.9,0.8-2.4c0.6-0.6,1.3-0.9,2.3-0.9s1.8,0.3,2.3,0.9
		c0.5,0.6,0.8,1.4,0.8,2.4v0.3c0,1.4-0.5,2.3-1.4,2.7c1,0.4,1.4,1.3,1.4,2.8v1c0,1.1-0.3,1.9-0.8,2.4c-0.5,0.6-1.3,0.9-2.3,0.9
		s-1.8-0.3-2.3-0.9C563.6,559.2,563.4,558.4,563.4,557.3z"/>
	<path class="st1" d="M570.9,560.5v-1.9h2.1v1.9H570.9z"/>
	<path class="st1" d="M574.3,549.2v-1.9h6.2v1.8l-3,11.4h-2.1l3-11.3H574.3z"/>
</g>
<g>
	<path class="st1" d="M444.8,502.7v-16.5h2.6v7.2l3.4-7.2h2.6l-3.6,7.3l3.6,9.1h-2.7l-2.5-6.6l-0.8,1.5v5h-2.6V502.7z"/>
	<path class="st1" d="M454.3,498.7v-8.6c0-1.3,0.3-2.3,1-3.1c0.7-0.7,1.6-1.1,2.9-1.1s2.2,0.4,2.9,1.1c0.7,0.7,1,1.7,1,3.1v8.6
		c0,1.3-0.3,2.3-1,3.1c-0.7,0.7-1.6,1.1-2.9,1.1s-2.2-0.4-2.9-1.1S454.3,500,454.3,498.7z M456.9,498.9c0,1.1,0.5,1.6,1.3,1.6
		c0.9,0,1.3-0.5,1.3-1.6V490c0-1.1-0.4-1.6-1.3-1.6s-1.3,0.5-1.3,1.6V498.9z"/>
	<path class="st1" d="M463.8,502.7v-16.5h3.8c1.3,0,2.2,0.3,2.9,1c0.6,0.7,1,1.7,1,3v2.1c0,1.3-0.3,2.3-1,3c-0.6,0.7-1.6,1-2.9,1
		h-1.2v6.2h-2.6V502.7z M466.4,494.1h1.2c0.4,0,0.7-0.1,1-0.4c0.2-0.2,0.3-0.6,0.3-1.2V490c0-0.6-0.1-1-0.3-1.2
		c-0.2-0.2-0.5-0.4-1-0.4h-1.2V494.1z"/>
	<path class="st1" d="M472.7,502.7v-16.5h2.3v10.4l0.9-3.6l2.1-6.8h3.1v16.5h-2.6v-11.6l-1,4l-2.2,7.5h-2.6V502.7z"/>
	<path class="st1" d="M482.1,504.9v-4.5h1c0.2-0.3,0.4-0.6,0.5-0.9s0.2-0.7,0.2-1.2l0.5-12h7.3v14.1h1.1v4.5h-2.6v-2.2h-5.5v2.2
		H482.1z M485.6,500.3h3.4v-11.8h-2.2l-0.5,9.6c0,0.6-0.1,1.1-0.2,1.4C486,499.9,485.9,500.1,485.6,500.3z"/>
	<path class="st1" d="M494,498.7v-8.6c0-1.3,0.3-2.3,1-3.1c0.7-0.7,1.6-1.1,2.9-1.1s2.2,0.4,2.9,1.1c0.7,0.7,1,1.7,1,3.1v8.6
		c0,1.3-0.3,2.3-1,3.1c-0.7,0.7-1.6,1.1-2.9,1.1s-2.2-0.4-2.9-1.1C494.3,501.1,494,500,494,498.7z M496.5,498.9
		c0,1.1,0.5,1.6,1.3,1.6c0.9,0,1.3-0.5,1.3-1.6V490c0-1.1-0.4-1.6-1.3-1.6s-1.3,0.5-1.3,1.6V498.9z"/>
	<path class="st1" d="M503.5,502.7v-16.5h3.8c1.3,0,2.2,0.3,2.9,1c0.6,0.7,1,1.7,1,3v2.1c0,1.3-0.3,2.3-1,3s-1.6,1-2.9,1h-1.2v6.2
		h-2.6V502.7z M506.1,494.1h1.2c0.4,0,0.7-0.1,1-0.4c0.2-0.2,0.3-0.6,0.3-1.2V490c0-0.6-0.1-1-0.3-1.2c-0.2-0.2-0.5-0.4-1-0.4h-1.2
		V494.1z"/>
</g>
<g>
	<path class="st1" d="M466.9,522v-1.4h2.6v1.5c0,1.1,0.4,1.6,1.3,1.6c0.4,0,0.8-0.1,1-0.4c0.2-0.3,0.3-0.8,0.3-1.4v-1.3
		c0-0.7-0.1-1.3-0.4-1.6s-0.7-0.5-1.3-0.5h-0.9v-2.4h1c0.5,0,0.9-0.1,1.2-0.4c0.3-0.3,0.4-0.7,0.4-1.3v-0.9c0-0.7-0.1-1.2-0.3-1.5
		c-0.2-0.3-0.6-0.4-1-0.4c-0.9,0-1.3,0.5-1.3,1.6v1.1h-2.6v-0.9c0-1.3,0.3-2.3,1-3.1c0.7-0.7,1.7-1.1,2.9-1.1c1.3,0,2.2,0.4,2.9,1.1
		c0.7,0.7,1,1.7,1,3.1v0.4c0,1.8-0.6,2.9-1.8,3.4c1.2,0.5,1.8,1.7,1.8,3.5v1.3c0,1.3-0.3,2.3-1,3.1c-0.7,0.7-1.6,1.1-2.9,1.1
		s-2.2-0.4-2.9-1.1C467.3,524.4,466.9,523.4,466.9,522z"/>
	<path class="st1" d="M476.4,526v-2.4h2.6v2.4H476.4z"/>
	<path class="st1" d="M480.6,522v-1.4h2.6v1.5c0,1.1,0.4,1.6,1.3,1.6c0.4,0,0.8-0.1,1-0.4c0.2-0.3,0.3-0.8,0.3-1.4v-1.3
		c0-0.7-0.1-1.3-0.4-1.6s-0.7-0.5-1.3-0.5h-0.9v-2.4h1c0.5,0,0.9-0.1,1.2-0.4c0.3-0.3,0.4-0.7,0.4-1.3v-0.9c0-0.7-0.1-1.2-0.3-1.5
		c-0.2-0.3-0.6-0.4-1-0.4c-0.9,0-1.3,0.5-1.3,1.6v1.1h-2.6v-0.9c0-1.3,0.3-2.3,1-3.1s1.7-1.1,2.9-1.1c1.3,0,2.2,0.4,2.9,1.1
		c0.7,0.7,1,1.7,1,3.1v0.4c0,1.8-0.6,2.9-1.8,3.4c1.2,0.5,1.8,1.7,1.8,3.5v1.3c0,1.3-0.3,2.3-1,3.1c-0.7,0.7-1.6,1.1-2.9,1.1
		s-2.2-0.4-2.9-1.1C481,524.4,480.6,523.4,480.6,522z"/>
</g>
<g>
	<path class="st1" d="M519.4,131.1v-1.3c0-1.7,0.5-2.8,1.6-3.4c-1.1-0.6-1.6-1.7-1.6-3.3v-0.5c0-1.3,0.3-2.3,1-3.1
		c0.7-0.7,1.7-1.1,3-1.1s2.3,0.4,3,1.1s1,1.7,1,3.1v0.5c0,1.6-0.5,2.7-1.6,3.3c1.1,0.6,1.6,1.7,1.6,3.4v1.3c0,1.3-0.3,2.3-1,3.1
		c-0.7,0.7-1.7,1.1-3,1.1s-2.3-0.4-3-1.1C519.8,133.4,519.4,132.4,519.4,131.1z M522,123.5c0,1.2,0.5,1.7,1.5,1.7s1.5-0.6,1.5-1.7
		v-0.9c0-0.7-0.1-1.2-0.4-1.5s-0.6-0.4-1.1-0.4s-0.8,0.1-1.1,0.4s-0.4,0.8-0.4,1.5V123.5z M522,131c0,0.7,0.1,1.2,0.4,1.4
		c0.3,0.3,0.6,0.4,1.1,0.4s0.8-0.1,1.1-0.4c0.3-0.3,0.4-0.8,0.4-1.4v-1.5c0-1.2-0.5-1.9-1.5-1.9s-1.5,0.6-1.5,1.9V131z"/>
	<path class="st1" d="M529.1,135v-2.4h2.6v2.4H529.1z"/>
	<path class="st1" d="M533.1,131.1v-1.3c0-1.7,0.5-2.8,1.6-3.4c-1.1-0.6-1.6-1.7-1.6-3.3v-0.5c0-1.3,0.3-2.3,1-3.1
		c0.7-0.7,1.7-1.1,3-1.1s2.3,0.4,3,1.1s1,1.7,1,3.1v0.5c0,1.6-0.5,2.7-1.6,3.3c1.1,0.6,1.6,1.7,1.6,3.4v1.3c0,1.3-0.3,2.3-1,3.1
		c-0.7,0.7-1.7,1.1-3,1.1s-2.3-0.4-3-1.1C533.4,133.4,533.1,132.4,533.1,131.1z M535.7,123.5c0,1.2,0.5,1.7,1.5,1.7s1.5-0.6,1.5-1.7
		v-0.9c0-0.7-0.1-1.2-0.4-1.5s-0.6-0.4-1.1-0.4s-0.8,0.1-1.1,0.4s-0.4,0.8-0.4,1.5V123.5z M535.7,131c0,0.7,0.1,1.2,0.4,1.4
		c0.3,0.3,0.6,0.4,1.1,0.4s0.8-0.1,1.1-0.4c0.3-0.3,0.4-0.8,0.4-1.4v-1.5c0-1.2-0.5-1.9-1.5-1.9s-1.5,0.6-1.5,1.9V131z"/>
	<path class="st1" d="M546.5,131.4v-9.3c0-1.3,0.3-2.2,0.8-2.8c0.6-0.5,1.5-0.8,2.8-0.8h0.8v2.2h-0.6c-0.4,0-0.7,0.1-0.9,0.3
		c-0.2,0.2-0.3,0.6-0.3,1.1v9.1c0,0.6,0.1,0.9,0.3,1.1c0.2,0.2,0.5,0.3,0.9,0.3h0.6v2.2h-0.8c-1.3,0-2.2-0.3-2.8-0.8
		C546.8,133.7,546.5,132.7,546.5,131.4z"/>
	<path class="st1" d="M551.7,132v-2.4l4.7-11.1h2.8v11.1h1.2v2.4h-1.2v3h-2.6v-3H551.7z M554,129.7h2.6v-6.2L554,129.7z"/>
	<path class="st1" d="M561.6,135v-2.4h2.6v2.4H561.6z"/>
	<path class="st1" d="M565.4,132v-2.4l4.7-11.1h2.8v11.1h1.2v2.4h-1.2v3h-2.6v-3H565.4z M567.7,129.7h2.6v-6.2L567.7,129.7z"/>
	<path class="st1" d="M574.7,135v-2.2h0.6c0.4,0,0.7-0.1,0.9-0.3s0.3-0.6,0.3-1.1v-9.1c0-0.6-0.1-0.9-0.3-1.1s-0.5-0.3-0.9-0.3h-0.6
		v-2.2h0.8c1.3,0,2.2,0.3,2.8,0.8s0.8,1.5,0.8,2.8v9.3c0,1.3-0.3,2.2-0.8,2.8c-0.6,0.5-1.5,0.8-2.8,0.8h-0.8V135z"/>
</g>
<g>
	<path class="st1" d="M322.2,290.2v-16.5h2.6v7.2l3.4-7.2h2.6l-3.6,7.3l3.6,9.1h-2.7l-2.5-6.6l-0.8,1.5v5h-2.6V290.2z"/>
	<path class="st1" d="M331.1,273.7h2.6l1.4,5.6l0.8,3.8l0.6-3.8l1.2-5.6h2.6l-2.8,12.2c-0.1,0.6-0.3,1.2-0.4,1.6
		c-0.2,0.4-0.4,0.8-0.6,1.2c-0.3,0.4-0.6,0.7-0.9,0.9c-0.4,0.2-0.8,0.4-1.3,0.5s-1.1,0.1-1.8,0.1v-2.3c0.7,0,1.2,0,1.6-0.2
		s0.6-0.6,0.7-1.1v-0.2L331.1,273.7z"/>
	<path class="st1" d="M340.9,290.2l2.9-8.5l-2.7-8h2.6l2,6.1l2-6.1h2.3l-2.7,8.1l2.9,8.4h-2.6l-2-6.1l-2,6.1H340.9z"/>
	<path class="st1" d="M351.6,290.2v-16.5h2.6v7.1h2.9v-7.1h2.6v16.5h-2.6v-7h-2.9v7H351.6z"/>
	<path class="st1" d="M361.2,290.2c0.2-0.4,0.2-1.1,0.2-2v-2.5c0-0.9,0.1-1.7,0.4-2.2c0.3-0.6,0.7-1,1.3-1.3
		c-1.1-0.5-1.7-1.6-1.7-3.3v-1.3c0-1.3,0.3-2.2,0.9-2.9c0.6-0.6,1.6-0.9,2.9-0.9h3.9v16.5h-2.6v-6.7h-0.9c-0.6,0-1,0.2-1.3,0.5
		s-0.4,0.9-0.4,1.6v2.6c0,0.4,0,0.8,0,1c0,0.3-0.1,0.5-0.1,0.6s-0.1,0.2-0.1,0.4h-2.5V290.2z M364,279.4c0,0.6,0.1,1.1,0.4,1.3
		c0.3,0.3,0.6,0.4,1.2,0.4h1V276h-1.2c-0.5,0-0.8,0.1-1,0.4s-0.3,0.7-0.3,1.3v1.7H364z"/>
</g>
<g>
	<path class="st1" d="M511.3,801.2l3.2-9.7l-3.2-6.7h2.5l3.1,6.7v-6.7h2.6v6.7l3.1-6.7h2.5l-3.2,6.7l3.2,9.7h-2.6l-2.3-7.3l-0.6,1.2
		v6H517V795l-0.6-1.3L514,801h-2.7V801.2z"/>
	<path class="st1" d="M526.3,801.2v-16.5h2.3v10.4l0.9-3.6l2.1-6.8h3.1v16.5h-2.6v-11.6l-1,4l-2.2,7.5L526.3,801.2L526.3,801.2z"/>
	<path class="st1" d="M535.6,801.2v-2.4c0.3,0,0.6,0,0.7,0c0.2,0,0.3-0.1,0.5-0.2c0.1-0.1,0.2-0.3,0.3-0.5s0.1-0.5,0.1-0.9l0.3-12.4
		h7.4v16.5h-2.6v-14.1H540l-0.3,10c0,1.5-0.4,2.6-0.9,3.2c-0.6,0.6-1.5,1-2.8,1h-0.4V801.2z"/>
	<path class="st1" d="M546.2,801.2l2.6-16.5h4l2.6,16.5h-2.6l-0.4-3h-3.2l-0.4,3H546.2z M549.6,796h2.5l-1.2-8.3L549.6,796z"/>
	<path class="st1" d="M556,801.2c0.2-0.4,0.2-1.1,0.2-2v-2.5c0-0.9,0.1-1.7,0.4-2.2c0.3-0.6,0.7-1,1.3-1.3c-1.1-0.5-1.7-1.6-1.7-3.3
		v-1.3c0-1.3,0.3-2.2,0.9-2.9c0.6-0.6,1.6-0.9,2.9-0.9h3.9v16.5h-2.6v-6.7h-0.9c-0.6,0-1,0.2-1.3,0.5s-0.4,0.9-0.4,1.6v2.6
		c0,0.4,0,0.8,0,1c0,0.3-0.1,0.5-0.1,0.6s-0.1,0.2-0.1,0.4L556,801.2L556,801.2z M558.8,790.4c0,0.6,0.1,1.1,0.4,1.3
		c0.3,0.3,0.6,0.4,1.2,0.4h1V787h-1.2c-0.5,0-0.8,0.1-1,0.4c-0.2,0.3-0.3,0.7-0.3,1.3v1.7H558.8z"/>
	<path class="st1" d="M569.5,801.2v-16.5h2.6v7.2l3.4-7.2h2.6l-3.6,7.3l3.6,9.1h-2.7l-2.5-6.6l-0.8,1.5v5h-2.6V801.2z"/>
	<path class="st1" d="M579,797.2v-8.6c0-1.3,0.3-2.3,1-3.1c0.7-0.7,1.6-1.1,2.9-1.1c1.3,0,2.2,0.4,2.9,1.1c0.7,0.7,1,1.7,1,3.1v8.6
		c0,1.3-0.3,2.3-1,3.1c-0.7,0.7-1.6,1.1-2.9,1.1c-1.3,0-2.2-0.4-2.9-1.1C579.3,799.6,579,798.6,579,797.2z M581.6,797.4
		c0,1.1,0.5,1.6,1.3,1.6c0.9,0,1.3-0.5,1.3-1.6v-8.9c0-1.1-0.4-1.6-1.3-1.6c-0.9,0-1.3,0.5-1.3,1.6V797.4z"/>
	<path class="st1" d="M588.5,801.2v-16.5h3.6l1.9,11.7l1.8-11.7h3.7v16.5h-2.6v-11.8l-1.8,11.8h-2.5l-1.9-11.6v11.6H588.5z"/>
	<path class="st1" d="M601.2,801.2v-16.5h2.6v7.1h2.9v-7.1h2.6v16.5h-2.6v-7h-2.9v7H601.2z"/>
	<path class="st1" d="M610.6,801.2l2.6-16.5h4l2.6,16.5h-2.6l-0.4-3h-3.2l-0.4,3H610.6z M614,796h2.5l-1.2-8.3L614,796z"/>
	<path class="st1" d="M620.1,787.1v-2.4h8v2.4h-2.7v14.1h-2.6v-14.1H620.1z"/>
	<path class="st1" d="M628.5,801.2l2.6-16.5h4l2.6,16.5h-2.6l-0.4-3h-3.2l-0.4,3H628.5z M631.9,796h2.5l-1.2-8.3L631.9,796z"/>
</g>
<g>
	<path class="st1" d="M562.3,816.6v-1.8c0.4,0,0.7,0,1-0.1s0.5-0.2,0.7-0.3s0.4-0.3,0.5-0.5c0.2-0.2,0.3-0.4,0.3-0.6
		c0.1-0.2,0.2-0.4,0.3-0.6h1.7v16.5h-2.6v-12.6L562.3,816.6L562.3,816.6z"/>
	<path class="st1" d="M569.7,819.7v-3c0-1.3,0.3-2.3,1-3.1c0.7-0.7,1.6-1.1,2.9-1.1c1.3,0,2.2,0.4,2.9,1.1c0.7,0.7,1,1.7,1,3.1v8.4
		c0,2.8-1.3,4.3-4,4.3c-1.3,0-2.2-0.4-2.9-1.1c-0.7-0.7-1-1.7-1-3.1v-0.4h2.4v0.6c0,1.1,0.4,1.6,1.3,1.6c0.5,0,0.8-0.2,1.1-0.5
		c0.2-0.3,0.4-0.8,0.4-1.6v-3c-0.5,1-1.3,1.5-2.4,1.5c-0.9,0-1.7-0.3-2.1-1C570,821.9,569.7,820.9,569.7,819.7z M572.3,819.5
		c0,1.1,0.4,1.6,1.3,1.6c0.9,0,1.3-0.5,1.3-1.6v-3c0-1.1-0.4-1.6-1.3-1.6c-0.9,0-1.3,0.5-1.3,1.6V819.5z"/>
	<path class="st1" d="M579.3,829.2v-2.4h2.6v2.4H579.3z"/>
	<path class="st1" d="M583.5,825.3v-8.6c0-1.3,0.3-2.3,1-3.1c0.7-0.7,1.6-1.1,2.9-1.1c1.3,0,2.2,0.4,2.9,1.1c0.7,0.7,1,1.7,1,3.1
		v8.6c0,1.3-0.3,2.3-1,3.1c-0.7,0.7-1.6,1.1-2.9,1.1c-1.3,0-2.2-0.4-2.9-1.1C583.8,827.6,583.5,826.6,583.5,825.3z M586,825.4
		c0,1.1,0.5,1.6,1.3,1.6c0.9,0,1.3-0.5,1.3-1.6v-8.9c0-1.1-0.4-1.6-1.3-1.6c-0.9,0-1.3,0.5-1.3,1.6V825.4z"/>
</g>
<g>
	<path class="st1" d="M510.2,290l3.2-9.7l-3.2-6.8h2.5l3.1,6.7v-6.7h2.6v6.7l3.1-6.7h2.5l-3.2,6.7l3.2,9.7h-2.6l-2.3-7.3l-0.6,1.2v6
		h-2.6v-6.1l-0.6-1.3l-2.4,7.3h-2.7V290z"/>
	<path class="st1" d="M525.1,290v-16.5h2.3v10.4l0.9-3.6l2.1-6.8h3.1V290H531v-11.6l-1,4l-2.2,7.5h-2.7V290z"/>
	<path class="st1" d="M534.5,290v-2.4c0.3,0,0.6,0,0.7,0c0.2,0,0.3-0.1,0.5-0.2c0.1-0.1,0.2-0.3,0.3-0.5s0.1-0.5,0.1-0.9l0.3-12.4
		h7.4V290h-2.6v-14.1H539l-0.3,10c0,1.5-0.4,2.6-0.9,3.2c-0.6,0.6-1.5,1-2.8,1h-0.5V290z"/>
	<path class="st1" d="M545.1,290l2.6-16.5h4l2.6,16.5h-2.6l-0.4-3h-3.2l-0.4,3H545.1z M548.4,284.7h2.5l-1.2-8.3L548.4,284.7z"/>
	<path class="st1" d="M554.9,290c0.2-0.4,0.2-1.1,0.2-2v-2.5c0-0.9,0.1-1.7,0.4-2.2c0.3-0.6,0.7-1,1.3-1.3c-1.1-0.5-1.7-1.6-1.7-3.3
		v-1.3c0-1.3,0.3-2.2,0.9-2.9c0.6-0.6,1.6-0.9,2.9-0.9h3.9V290h-2.6v-6.7h-0.9c-0.6,0-1,0.2-1.3,0.5s-0.4,0.9-0.4,1.6v2.6
		c0,0.4,0,0.8,0,1c0,0.3-0.1,0.5-0.1,0.6s-0.1,0.2-0.1,0.4H554.9z M557.7,279.2c0,0.6,0.1,1.1,0.4,1.3c0.3,0.3,0.6,0.4,1.2,0.4h1
		v-5.1H559c-0.5,0-0.8,0.1-1,0.4s-0.3,0.7-0.3,1.3V279.2z"/>
	<path class="st1" d="M568.4,290v-16.5h2.6v7.2l3.4-7.2h2.6l-3.6,7.3l3.6,9.1h-2.7l-2.5-6.6l-0.8,1.5v5h-2.6V290z"/>
	<path class="st1" d="M577.9,286v-8.6c0-1.3,0.3-2.3,1-3.1c0.7-0.7,1.6-1.1,2.9-1.1c1.3,0,2.2,0.4,2.9,1.1s1,1.7,1,3.1v8.6
		c0,1.3-0.3,2.3-1,3.1c-0.7,0.7-1.6,1.1-2.9,1.1c-1.3,0-2.2-0.4-2.9-1.1C578.2,288.3,577.9,287.3,577.9,286z M580.5,286.2
		c0,1.1,0.5,1.6,1.3,1.6c0.9,0,1.3-0.5,1.3-1.6v-8.9c0-1.1-0.4-1.6-1.3-1.6c-0.9,0-1.3,0.5-1.3,1.6V286.2z"/>
	<path class="st1" d="M587.4,290v-16.5h3.6l1.9,11.7l1.8-11.7h3.7V290h-2.6v-11.8L594,290h-2.5l-1.9-11.6V290H587.4z"/>
	<path class="st1" d="M600.1,290v-16.5h2.6v7.1h2.9v-7.1h2.6V290h-2.6v-7h-2.9v7H600.1z"/>
	<path class="st1" d="M609.5,290l2.6-16.5h4l2.6,16.5h-2.6l-0.4-3h-3.2l-0.4,3H609.5z M612.8,284.7h2.5l-1.2-8.3L612.8,284.7z"/>
	<path class="st1" d="M619,275.9v-2.4h8v2.4h-2.7V290h-2.6v-14.1H619z"/>
	<path class="st1" d="M627.4,290l2.6-16.5h4l2.6,16.5H634l-0.4-3h-3.2l-0.4,3H627.4z M630.8,284.7h2.5l-1.2-8.3L630.8,284.7z"/>
</g>
<g>
	<path class="st1" d="M559.7,305.6v-1.8c0.4,0,0.7,0,1-0.1s0.5-0.2,0.7-0.3c0.2-0.1,0.4-0.3,0.5-0.5c0.2-0.2,0.3-0.4,0.3-0.6
		c0.1-0.2,0.2-0.4,0.3-0.6h1.7v16.5h-2.6v-12.6H559.7z"/>
	<path class="st1" d="M567.5,318.2v-2c0-0.7,0.1-1.3,0.3-1.8c0.2-0.6,0.4-1.1,0.7-1.5s0.6-0.9,1-1.3s0.7-0.8,1.1-1.2
		c0.4-0.4,0.7-0.8,1-1.3c0.3-0.4,0.5-0.9,0.7-1.5s0.3-1.2,0.3-1.8c0-0.7-0.1-1.2-0.3-1.5s-0.6-0.4-1-0.4c-0.9,0-1.3,0.5-1.3,1.6v1.8
		h-2.5v-1.6c0-1.3,0.3-2.3,1-3.1c0.7-0.7,1.6-1.1,2.9-1.1c1.3,0,2.2,0.4,2.9,1.1s1,1.7,1,3.1c0,0.7-0.1,1.4-0.3,2s-0.4,1.2-0.7,1.7
		s-0.6,1-1,1.4c-0.4,0.5-0.7,0.9-1.1,1.3c-0.4,0.4-0.7,0.8-1,1.1s-0.5,0.7-0.7,1.1s-0.3,0.8-0.3,1.1c0,0.2,0,0.3,0,0.4h4.9v2.4
		L567.5,318.2L567.5,318.2z"/>
	<path class="st1" d="M576.8,318.2v-2.4h2.6v2.4H576.8z"/>
	<path class="st1" d="M582.7,305.6v-1.8c0.4,0,0.7,0,1-0.1s0.5-0.2,0.7-0.3c0.2-0.1,0.4-0.3,0.5-0.5c0.2-0.2,0.3-0.4,0.3-0.6
		c0.1-0.2,0.2-0.4,0.3-0.6h1.7v16.5h-2.6v-12.6H582.7z"/>
</g>
<g>
	<path class="st1" d="M332.9,312.4v-1.8c0.4,0,0.7,0,1-0.1s0.5-0.2,0.7-0.3c0.2-0.1,0.4-0.3,0.5-0.5c0.2-0.2,0.3-0.4,0.3-0.6
		c0.1-0.2,0.2-0.4,0.3-0.6h1.7V325h-2.6v-12.6H332.9z"/>
	<path class="st1" d="M340.5,321v-1.4h2.6v1.5c0,1.1,0.4,1.6,1.3,1.6c0.4,0,0.8-0.1,1-0.4s0.3-0.8,0.3-1.4v-1.3
		c0-0.8-0.1-1.3-0.4-1.6c-0.3-0.3-0.7-0.5-1.3-0.5h-0.9v-2.4h1c0.5,0,0.9-0.1,1.2-0.4c0.3-0.3,0.4-0.7,0.4-1.3v-0.9
		c0-0.7-0.1-1.2-0.3-1.5c-0.2-0.3-0.6-0.4-1-0.4c-0.9,0-1.3,0.5-1.3,1.6v1.1h-2.6v-0.9c0-1.3,0.3-2.3,1-3.1c0.7-0.7,1.7-1.1,2.9-1.1
		c1.3,0,2.2,0.4,2.9,1.1c0.7,0.7,1,1.7,1,3.1v0.4c0,1.8-0.6,2.9-1.8,3.4c1.2,0.5,1.8,1.7,1.8,3.5v1.3c0,1.3-0.3,2.3-1,3.1
		c-0.7,0.7-1.6,1.1-2.9,1.1s-2.2-0.4-2.9-1.1C340.8,323.3,340.5,322.3,340.5,321z"/>
	<path class="st1" d="M349.9,324.9v-2.4h2.6v2.4H349.9z"/>
	<path class="st1" d="M354,321v-1.3c0-1.7,0.5-2.8,1.6-3.4c-1.1-0.6-1.6-1.7-1.6-3.3v-0.5c0-1.3,0.3-2.3,1-3.1
		c0.7-0.7,1.7-1.1,3-1.1s2.3,0.4,3,1.1s1,1.7,1,3.1v0.5c0,1.6-0.5,2.7-1.6,3.3c1.1,0.6,1.6,1.7,1.6,3.4v1.3c0,1.3-0.3,2.3-1,3.1
		c-0.7,0.7-1.7,1.1-3,1.1s-2.3-0.4-3-1.1C354.3,323.3,354,322.3,354,321z M356.6,313.4c0,1.2,0.5,1.7,1.5,1.7s1.5-0.6,1.5-1.7v-0.9
		c0-0.7-0.1-1.2-0.4-1.5s-0.6-0.4-1.1-0.4s-0.8,0.1-1.1,0.4s-0.4,0.8-0.4,1.5V313.4z M356.6,320.9c0,0.7,0.1,1.2,0.4,1.4
		s0.6,0.4,1.1,0.4s0.8-0.1,1.1-0.4c0.3-0.3,0.4-0.8,0.4-1.4v-1.5c0-1.2-0.5-1.9-1.5-1.9s-1.5,0.6-1.5,1.9V320.9z"/>
</g>
<g>
	<path class="st1" d="M315,512.2v-16.5h8.1v16.5h-2.6v-14.1h-2.9v14.1H315z"/>
	<path class="st1" d="M325,512.2v-16.5h3.8c1.3,0,2.2,0.3,2.9,1c0.6,0.7,1,1.7,1,3v2.1c0,1.3-0.3,2.3-1,3c-0.6,0.7-1.6,1-2.9,1h-1.2
		v6.2H325V512.2z M327.6,503.6h1.2c0.4,0,0.7-0.1,1-0.4c0.2-0.2,0.3-0.6,0.3-1.2v-2.5c0-0.6-0.1-1-0.3-1.2c-0.2-0.2-0.5-0.4-1-0.4
		h-1.2V503.6z"/>
	<path class="st1" d="M333.9,512.2v-16.5h2.3v10.4l0.9-3.6l2.1-6.8h3.1v16.5h-2.6v-11.6l-1,4l-2.2,7.5h-2.6V512.2z"/>
	<path class="st1" d="M343.3,512.2l2.9-8.5l-2.7-8h2.6l2,6.1l2-6.1h2.3l-2.7,8.1l2.9,8.4H350l-2-6.1l-2,6.1H343.3z"/>
	<path class="st1" d="M353.8,508.2v-8.6c0-1.3,0.3-2.3,1-3.1c0.7-0.7,1.6-1.1,2.9-1.1s2.2,0.4,2.9,1.1c0.7,0.7,1,1.7,1,3.1v8.6
		c0,1.3-0.3,2.3-1,3.1c-0.7,0.7-1.6,1.1-2.9,1.1s-2.2-0.4-2.9-1.1C354.2,510.6,353.8,509.5,353.8,508.2z M356.4,508.4
		c0,1.1,0.5,1.6,1.3,1.6c0.9,0,1.3-0.5,1.3-1.6v-8.9c0-1.1-0.4-1.6-1.3-1.6s-1.3,0.5-1.3,1.6V508.4z"/>
	<path class="st1" d="M362.6,512.2l3.2-9.7l-3.2-6.7h2.5l3.1,6.7v-6.7h2.6v6.7l3.1-6.7h2.5l-3.2,6.7l3.2,9.7h-2.6l-2.3-7.3l-0.6,1.2
		v6h-2.6V506l-0.6-1.3l-2.4,7.3h-2.7V512.2z"/>
	<path class="st1" d="M376.9,512.2l2.6-16.5h4l2.6,16.5h-2.6l-0.4-3h-3.2l-0.4,3H376.9z M380.2,506.9h2.5l-1.2-8.3L380.2,506.9z"/>
	<path class="st1" d="M386.7,512.2c0.2-0.4,0.2-1.1,0.2-2v-2.5c0-0.9,0.1-1.7,0.4-2.2c0.3-0.6,0.7-1,1.3-1.3
		c-1.1-0.5-1.7-1.6-1.7-3.3v-1.3c0-1.3,0.3-2.2,0.9-2.9c0.6-0.6,1.6-0.9,2.9-0.9h3.9v16.5H392v-6.7h-0.9c-0.6,0-1,0.2-1.3,0.5
		s-0.4,0.9-0.4,1.6v2.6c0,0.4,0,0.8,0,1c0,0.3-0.1,0.5-0.1,0.6s-0.1,0.2-0.1,0.4h-2.5V512.2z M389.5,501.4c0,0.6,0.1,1.1,0.4,1.3
		c0.3,0.3,0.6,0.4,1.2,0.4h1V498h-1.2c-0.5,0-0.8,0.1-1,0.4s-0.3,0.7-0.3,1.3v1.7H389.5z"/>
</g>
<g>
	<path class="st1" d="M344.1,521.4V519h7.7v2.3l-3.8,14.2h-2.6l3.8-14.1H344.1z"/>
	<path class="st1" d="M353.6,535.5v-2.4h2.6v2.4H353.6z"/>
	<path class="st1" d="M357.8,531.5v-1.4h2.6v1.5c0,1.1,0.4,1.6,1.3,1.6c0.4,0,0.8-0.1,1-0.4c0.2-0.3,0.3-0.8,0.3-1.4v-1.3
		c0-0.7-0.1-1.3-0.4-1.6s-0.7-0.5-1.3-0.5h-0.9v-2.4h1c0.5,0,0.9-0.1,1.2-0.4c0.3-0.3,0.4-0.7,0.4-1.3V523c0-0.7-0.1-1.2-0.3-1.5
		c-0.2-0.3-0.6-0.4-1-0.4c-0.9,0-1.3,0.5-1.3,1.6v1.1h-2.6V523c0-1.3,0.3-2.3,1-3.1c0.7-0.7,1.7-1.1,2.9-1.1c1.3,0,2.2,0.4,2.9,1.1
		c0.7,0.7,1,1.7,1,3.1v0.4c0,1.8-0.6,2.9-1.8,3.4c1.2,0.5,1.8,1.7,1.8,3.5v1.3c0,1.3-0.3,2.3-1,3.1c-0.7,0.7-1.6,1.1-2.9,1.1
		s-2.2-0.4-2.9-1.1C358.2,533.9,357.8,532.9,357.8,531.5z"/>
</g>
<rect x="669.6" y="467.1" class="st1" width="9.2" height="110.9"/>
<rect x="669.6" y="467.1" class="st2" width="9.2" height="110.9"/>
<rect x="458.5" y="63.7" class="st1" width="11.6" height="55.8"/>
<rect x="458.5" y="63.7" class="st2" width="11.6" height="55.8"/>
<g>
	<path class="st1" d="M540.4,761v-19.2c0-6.5,3-9.8,9-9.8c2.9,0,5,0.8,6.5,2.5c1.5,1.6,2.3,4,2.3,7v1h-5.6V741c0-2.5-1-3.7-3.1-3.7
		c-1.1,0-1.9,0.3-2.5,1c-0.5,0.7-0.8,1.9-0.8,3.6v6.9c1.1-2.2,2.9-3.3,5.5-3.3c2.2,0,3.8,0.7,4.9,2.2c1.1,1.5,1.6,3.6,1.6,6.4v6.9
		c0,3-0.8,5.3-2.3,7c-1.5,1.6-3.8,2.5-6.6,2.5c-2.9,0-5.1-0.8-6.6-2.5C541.2,766.3,540.4,764,540.4,761z M546.3,761.3
		c0,2.4,1,3.7,3.1,3.7c2,0,3-1.2,3-3.7v-6.8c0-2.5-1-3.7-3-3.7s-3.1,1.2-3.1,3.7V761.3z"/>
	<path class="st1" d="M560.8,763.2v-5.4l10.7-25.4h6.5v25.4h2.7v5.4H578v6.8h-5.9v-6.8H560.8z M566.1,757.8h6v-14.1L566.1,757.8z"/>
	<path class="st1" d="M583.3,770v-5.4h5.9v5.4H583.3z"/>
	<path class="st1" d="M592.9,737.8v-5.4h17.7v5.2l-8.7,32.4H596l8.7-32.2H592.9z"/>
</g>
<g>
	<ellipse class="st3" cx="576" cy="687.1" rx="32.9" ry="32.9"/>
</g>
<g>
	<path class="st1" d="M559.9,702.3v-3.5c0-1.1,0.2-2.2,0.5-3.2s0.8-1.9,1.3-2.6c0.5-0.7,1.1-1.5,1.7-2.2c0.6-0.7,1.3-1.4,1.9-2.1
		c0.6-0.7,1.2-1.4,1.7-2.2c0.5-0.7,0.9-1.6,1.3-2.6c0.3-1,0.5-2,0.5-3.1c0-1.2-0.2-2.1-0.6-2.5c-0.4-0.5-1-0.7-1.7-0.7
		c-1.5,0-2.3,0.9-2.3,2.8v3.1h-4.3v-2.8c0-2.3,0.6-4.1,1.7-5.3c1.1-1.2,2.8-1.9,5-1.9s3.8,0.6,5,1.9c1.1,1.2,1.7,3,1.7,5.3
		c0,1.2-0.2,2.4-0.5,3.5s-0.8,2.1-1.3,3s-1.1,1.7-1.7,2.5c-0.6,0.8-1.3,1.5-1.9,2.2c-0.6,0.7-1.2,1.3-1.7,2
		c-0.5,0.6-0.9,1.3-1.3,1.9c-0.3,0.7-0.5,1.3-0.5,1.9c0,0.3,0,0.5,0,0.6h8.4v4.1h-12.9V702.3z"/>
	<path class="st1" d="M576,702.3v-28.5h4.5v12.4l5.9-12.4h4.5l-6.2,12.7l6.2,15.8h-4.6L582,691l-1.4,2.6v8.7H576z"/>
</g>
<rect x="641.5" y="413.2" class="st2" width="28.1" height="28.2"/>
<polyline class="st2" points="641.5,441.4 648.8,415.8 669.5,412.6 "/>
<path class="st1" d="M254.2,359.5h35.5v35.1h-35.5L254.2,359.5L254.2,359.5z M253.4,395.4h37.1v-36.7h-37.1V395.4z"/>
<path class="st2" d="M254.2,359.5h35.5v35.1h-35.5L254.2,359.5L254.2,359.5z M253.4,395.4h37.1v-36.7h-37.1V395.4z"/>
<g>
	<path class="st1" d="M286.5,389.4c0,0.9-0.7,1.6-1.6,1.6h-18.7c-0.9,0-1.6-0.7-1.6-1.6v-24.6c0-0.9,0.7-1.6,1.6-1.6h18.7
		c0.9,0,1.6,0.7,1.6,1.6V389.4z M263.9,389.4c0,1.3,1.1,2.3,2.4,2.3H285c1.3,0,2.4-1.1,2.4-2.3v-24.6c0-1.3-1.1-2.3-2.4-2.3h-18.7
		c-1.3,0-2.4,1.1-2.4,2.3V389.4"/>
	<path class="st2" d="M286.5,389.4c0,0.9-0.7,1.6-1.6,1.6h-18.7c-0.9,0-1.6-0.7-1.6-1.6v-24.6c0-0.9,0.7-1.6,1.6-1.6h18.7
		c0.9,0,1.6,0.7,1.6,1.6V389.4z M266.2,391.7h18.7c1.3,0,2.4-1.1,2.4-2.3v-24.6c0-1.3-1.1-2.3-2.4-2.3h-18.7c-1.3,0-2.4,1.1-2.4,2.3
		v24.6C263.9,390.7,264.9,391.7,266.2,391.7z"/>
</g>
<path class="st1" d="M267.4,365.9h16.3v22.3h-16.3V365.9z M266.6,389h17.9v-23.8h-17.9V389z"/>
<path class="st2" d="M267.4,365.9h16.3v22.3h-16.3V365.9z M266.6,389h17.9v-23.8h-17.9V389z"/>
<g>
	<path class="st1" d="M278.7,377.1c0,1.1-0.9,2-2.1,2c-1.1,0-2.1-0.9-2.1-2s0.9-2,2.1-2C277.8,375,278.7,375.9,278.7,377.1
		 M273.8,377.1c0,1.6,1.3,2.8,2.9,2.8s2.9-1.3,2.9-2.8c0-1.6-1.3-2.8-2.9-2.8C275.1,374.2,273.8,375.5,273.8,377.1"/>
	<path class="st2" d="M276.7,379.1c-1.1,0-2.1-0.9-2.1-2s0.9-2,2.1-2c1.1,0,2.1,0.9,2.1,2C278.7,378.2,277.8,379.1,276.7,379.1z
		 M276.7,379.9c1.6,0,2.9-1.3,2.9-2.8c0-1.6-1.3-2.8-2.9-2.8s-2.9,1.3-2.9,2.8C273.8,378.6,275.1,379.9,276.7,379.9z"/>
</g>
<rect x="279.1" y="417.6" class="st2" width="52.5" height="18.4"/>
<polyline class="st2" points="281.9,433 283,419.8 316.3,419.8 317.7,433 319.9,433 321.4,419.6 328.8,419.6 330.4,433 "/>
<line class="st2" x1="280.2" y1="417.5" x2="249.7" y2="417.5"/>
</svg>
