<svg xmlns="http://www.w3.org/2000/svg" xmlns:xlink="http://www.w3.org/1999/xlink" xml:space="preserve" id="Слой_1" x="0" y="0" style="enable-background:new 0 0 286 299" version="1.1" viewBox="0 0 286 299"><style>.st1{fill:#38383b}.st4,.st9{fill:none;stroke:#38383b;stroke-width:1.279}.st9{stroke-width:.768}.st17{fill:#38383b}.st17,.st18{clip-path:url(#SVGID_28_)}.st18,.st19{fill:none;stroke:#38383b;stroke-width:.28}.st20,.st21,.st23{clip-path:url(#SVGID_30_);fill:#38383b}.st21,.st23{fill:none;stroke:#38383b;stroke-width:.28}.st23{stroke-width:.271}.st29{clip-path:url(#SVGID_36_);fill:#38383b}</style><switch><g><path d="M32.72 30.33h226.51v176H32.72z" style="fill:#b8e0e5"/><path d="M143.07 242.41h5.48v32.69h-5.48z" class="st1"/><defs><path id="SVGID_1_" d="M26.88 23.57h237.88V274.8H26.88z"/></defs><clipPath id="SVGID_2_"><use xlink:href="#SVGID_1_" style="overflow:visible"/></clipPath><path d="M143.07 242.41h5.48v32.69h-5.48z" style="clip-path:url(#SVGID_2_);fill:none;stroke:#38383b;stroke-width:1.279"/><path d="M258.83 28.72h5.48v246.39h-5.48z" class="st1"/><defs><path id="SVGID_3_" d="M26.88 23.57h237.88V274.8H26.88z"/></defs><clipPath id="SVGID_4_"><use xlink:href="#SVGID_3_" style="overflow:visible"/></clipPath><path d="M258.83 28.72h5.48v246.39h-5.48z" style="clip-path:url(#SVGID_4_);fill:none;stroke:#38383b;stroke-width:1.279"/><path d="M143.07 77.1h5.48v140.28h-5.48z" class="st1"/><path d="M143.07 77.1h5.48v140.28h-5.48z" class="st4"/><path d="M143.07 25.51h5.48v23.85h-5.48z" class="st1"/><defs><path id="SVGID_5_" d="M26.88 23.57h237.88V275.1H26.88z"/></defs><clipPath id="SVGID_6_"><use xlink:href="#SVGID_5_" style="overflow:visible"/></clipPath><path d="M143.07 25.51h5.48v23.85h-5.48z" style="clip-path:url(#SVGID_6_);fill:none;stroke:#38383b;stroke-width:1.279"/><path d="M27.52 24.21H33v234.56h-5.48z" class="st1"/><defs><path id="SVGID_7_" d="M26.88 23.57h237.88V274.8H26.88z"/></defs><clipPath id="SVGID_8_"><use xlink:href="#SVGID_7_" style="overflow:visible"/></clipPath><path d="M27.52 24.21H33v234.56h-5.48z" style="clip-path:url(#SVGID_8_);fill:none;stroke:#38383b;stroke-width:1.279"/><path d="M27.97 24.21h135.74v5.48H27.97z" class="st1"/><defs><path id="SVGID_9_" d="M26.88 23.57h237.88V274.8H26.88z"/></defs><clipPath id="SVGID_10_"><use xlink:href="#SVGID_9_" style="overflow:visible"/></clipPath><path d="M27.97 24.21h135.74v5.48H27.97z" style="clip-path:url(#SVGID_10_);fill:none;stroke:#38383b;stroke-width:1.279"/><path d="M191.36 24.21h72.95v5.48h-72.95z" class="st1"/><defs><path id="SVGID_11_" d="M26.88 23.57h237.88V274.8H26.88z"/></defs><clipPath id="SVGID_12_"><use xlink:href="#SVGID_11_" style="overflow:visible"/></clipPath><path d="M191.36 24.21h72.95v5.48h-72.95z" style="clip-path:url(#SVGID_12_);fill:none;stroke:#38383b;stroke-width:1.279"/><path d="M199.68 57.94h2.46V86.1h-2.46z" class="st1"/><path d="M199.68 57.94h2.46V86.1h-2.46z" class="st4"/><path d="M145.25 268.73h115.06v3.51H145.25v-3.51zM30.69 255.74l.5-3.48L144.6 268.7l-.5 3.48-113.41-16.44z" class="st9"/><path d="m137.86 219.23 41.52.01v-2.42h-2.97v-9.72h-38.55z" class="st1"/><path d="m137.86 219.23 41.52.01v-2.42h-2.97v-9.72h-38.55z" class="st4"/><path d="m29.67 219.23 26.38.01v-2.42h-2.97v-9.72H29.67z" class="st1"/><path d="m29.67 219.23 26.38.01v-2.42h-2.97v-9.72H29.67z" class="st4"/><path d="m263.1 219.23-34.88.01v-2.42h2.97v-9.72h31.91z" class="st1"/><defs><path id="SVGID_13_" d="M26.88 23.57h237.88V275.1H26.88z"/></defs><clipPath id="SVGID_14_"><use xlink:href="#SVGID_13_" style="overflow:visible"/></clipPath><path d="m263.1 219.23-34.88.01v-2.42h2.97v-9.72h31.91z" style="clip-path:url(#SVGID_14_);fill:none;stroke:#38383b;stroke-width:1.279"/><path d="m154.87 219.23-34.88.01v-2.42h2.97v-9.72h31.91z" class="st1"/><path d="m154.87 219.23-34.88.01v-2.42h2.97v-9.72h31.91z" class="st4"/><path d="m100.24 203.02.61-1.02 21.86 13-.61 1.02-21.86-13zm105.87 3.83h-58.03v9.66h58.03v-9.66zm-109.16 0H38.92v9.66h58.03v-9.66zm111.88 9.69H150.8v2.96h58.03v-2.96zm-109.16 0H41.64v2.96h58.03v-2.96z" class="st9"/><defs><path id="SVGID_15_" d="M26.88 23.57h237.88V275.1H26.88z"/></defs><clipPath id="SVGID_16_"><use xlink:href="#SVGID_15_" style="overflow:visible"/></clipPath><path d="M100.11 203.16s-1.41 1.92-2.1 6.38c-.69 4.46-.47 6.85-.47 6.85" style="clip-path:url(#SVGID_16_);fill:none;stroke:#38383b;stroke-width:.512"/><path stroke-width=".768" d="m209.402 203 .608-1.023 21.86 13.013-.608 1.023z" class="st9"/><defs><path id="SVGID_17_" d="M26.88 23.57h237.88V275.1H26.88z"/></defs><clipPath id="SVGID_18_"><use xlink:href="#SVGID_17_" style="overflow:visible"/></clipPath><path d="M209.27 203.16s-1.41 1.92-2.1 6.38c-.69 4.46-.47 6.85-.47 6.85" style="clip-path:url(#SVGID_18_);fill:none;stroke:#38383b;stroke-width:.512"/><path d="m131.78 72.88-1.23-.73 15.64-26.52 1.23.74z" class="st9"/><defs><path id="SVGID_19_" d="M26.88 23.57h237.88V275.1H26.88z"/></defs><clipPath id="SVGID_20_"><use xlink:href="#SVGID_19_" style="overflow:visible"/></clipPath><path d="M130.15 72.25s3.9 2.84 9.77 3.78c5.86.94 9.01.64 9.01.64" style="clip-path:url(#SVGID_20_);fill:none;stroke:#38383b;stroke-width:.512"/><path d="m167.91 42.04.74 1.23 26.52-15.64-.74-1.24z" class="st9"/><defs><path id="SVGID_21_" d="M26.88 23.57h237.88V275.1H26.88z"/></defs><clipPath id="SVGID_22_"><use xlink:href="#SVGID_21_" style="overflow:visible"/></clipPath><path d="M168.55 43.66s-2.84-3.9-3.78-9.77c-.94-5.86-.64-9.01-.64-9.01" style="clip-path:url(#SVGID_22_);fill:none;stroke:#38383b;stroke-width:.512"/><path d="m191.42 89.31-1.23.74 10.08 17.15 1.23-.74z" class="st9"/><defs><path id="SVGID_23_" d="M26.88 23.57h237.88V275.1H26.88z"/></defs><clipPath id="SVGID_24_"><use xlink:href="#SVGID_23_" style="overflow:visible"/></clipPath><path d="M189.8 89.95s3.9-2.84 9.77-3.78c1.17-.19 2.23-.33 3.18-.43" style="clip-path:url(#SVGID_24_);fill:none;stroke:#38383b;stroke-width:.512"/><path d="M187.6 118.01h13.24v2.46H187.6z" class="st1"/><path d="M187.6 118.01h13.24v2.46H187.6z" class="st4"/><path d="M144.05 118.01h22.39v2.46h-22.39z" class="st1"/><path d="M144.05 118.01h22.39v2.46h-22.39z" class="st4"/><path d="m183.76 128.85-.73 1.23-17.15-10.07.73-1.23z" class="st9"/><defs><path id="SVGID_25_" d="M26.88 23.57h237.88V275.1H26.88z"/></defs><clipPath id="SVGID_26_"><use xlink:href="#SVGID_25_" style="overflow:visible"/></clipPath><path d="M183.13 130.47s2.84-3.91 3.78-9.77c.19-1.17.33-2.23.43-3.18" style="clip-path:url(#SVGID_26_);fill:none;stroke:#38383b;stroke-width:.512"/><path d="M158.53 117.06h-9.35m9.35-26.86h-9.35m8.97-.01v27.25m-7.76-1.71h6.67v-4.45h-6.67v4.45zm0-6.53h6.67V91.53h-6.67v17.67zm96.64-52.29h11.16m-11.16-26.19h11.16m-10.78-.02v26.6m9.42-1.68h-8.11V51.3h8.11v4.32zm0-6.38h-8.11V32.02h8.11v17.22z" class="st9"/><defs><path id="SVGID_27_" d="M26.88 23.57h237.88V275.1H26.88z"/></defs><clipPath id="SVGID_28_"><use xlink:href="#SVGID_27_" style="overflow:visible"/></clipPath><path d="M250.86 116.67v-9.47c0-.76-.62-1.38-1.38-1.38h-8.29c-3.37 0-6.12 2.74-6.12 6.12 0 3.37 2.74 6.12 6.12 6.12h8.29c.76-.01 1.38-.63 1.38-1.39m-15.4-4.74c0-3.15 2.57-5.72 5.73-5.72h8.29c.54 0 .99.44.99.99v9.47c0 .54-.44.99-.99.99h-8.29c-3.16 0-5.73-2.57-5.73-5.73" class="st17"/><path d="M247.7 107.83v8.21c0 .05-.05.1-.1.1h-6.25c-2.31 0-4.2-1.89-4.2-4.2 0-2.31 1.89-4.2 4.2-4.2h6.25c.05-.01.1.03.1.09zm3.16 8.84v-9.47c0-.76-.62-1.38-1.38-1.38h-8.29c-3.37 0-6.12 2.74-6.12 6.12 0 3.37 2.74 6.12 6.12 6.12h8.29c.76-.01 1.38-.63 1.38-1.39zm-15.4-4.74c0-3.15 2.57-5.72 5.73-5.72h8.29c.54 0 .99.44.99.99v9.47c0 .54-.44.99-.99.99h-8.29c-3.16 0-5.73-2.57-5.73-5.73z" class="st18"/><path d="M247.89 116.03v-8.21a.29.29 0 0 0-.29-.29h-6.25a4.4 4.4 0 0 0 0 8.8h6.25c.16 0 .29-.14.29-.3m-.39-8.11v8.01h-6.15c-2.21 0-4.01-1.8-4.01-4.01s1.8-4.01 4.01-4.01h6.15z" class="st17"/><path d="M247.89 116.03v-8.21a.29.29 0 0 0-.29-.29h-6.25a4.4 4.4 0 0 0 0 8.8h6.25c.16 0 .29-.14.29-.3zm-.39-8.11v8.01h-6.15c-2.21 0-4.01-1.8-4.01-4.01s1.8-4.01 4.01-4.01h6.15z" class="st18"/><path d="M243.9 111.93c0-.81-.66-1.47-1.48-1.47s-1.47.66-1.47 1.47c0 .81.66 1.48 1.47 1.48s1.48-.67 1.48-1.48m-2.56 0c0-.6.48-1.08 1.08-1.08.6 0 1.08.49 1.08 1.08 0 .6-.49 1.08-1.08 1.08-.6 0-1.08-.48-1.08-1.08" class="st17"/><path d="M243.9 111.93c0-.81-.66-1.47-1.48-1.47s-1.47.66-1.47 1.47c0 .81.66 1.48 1.47 1.48s1.48-.67 1.48-1.48zm-2.56 0c0-.6.48-1.08 1.08-1.08.6 0 1.08.49 1.08 1.08 0 .6-.49 1.08-1.08 1.08-.6 0-1.08-.48-1.08-1.08z" class="st18"/><path d="m246.9 108.73-.23-.31-2.63 1.96.23.32z" class="st1"/><path d="m246.9 108.73-.23-.31-2.63 1.96.23.32z" class="st19"/><path d="m244.036 113.412.233-.312 2.626 1.965-.233.313z" class="st1"/><path d="m244.036 113.412.233-.312 2.626 1.965-.233.313z" class="st19"/><defs><path id="SVGID_29_" d="M26.88 23.57h237.88V275.1H26.88z"/></defs><clipPath id="SVGID_30_"><use xlink:href="#SVGID_29_" style="overflow:visible"/></clipPath><path d="M256.6 115.88v-7.9c0-1.09-.89-1.98-1.98-1.98h-2.16c-1.09 0-1.98.89-1.98 1.98v7.9c0 1.09.89 1.98 1.98 1.98h2.16c1.09 0 1.98-.89 1.98-1.98m-5.73-7.9c0-.87.71-1.59 1.59-1.59h2.16c.88 0 1.59.71 1.59 1.59v7.9c0 .87-.71 1.59-1.59 1.59h-2.16c-.87 0-1.59-.71-1.59-1.59v-7.9z" class="st20"/><path d="M256.6 115.88v-7.9c0-1.09-.89-1.98-1.98-1.98h-2.16c-1.09 0-1.98.89-1.98 1.98v7.9c0 1.09.89 1.98 1.98 1.98h2.16c1.09 0 1.98-.89 1.98-1.98zm-5.73-7.9c0-.87.71-1.59 1.59-1.59h2.16c.88 0 1.59.71 1.59 1.59v7.9c0 .87-.71 1.59-1.59 1.59h-2.16c-.87 0-1.59-.71-1.59-1.59v-7.9z" class="st21"/><path d="M254.55 111.93c0-.55-.45-1.01-1.01-1.01s-1.01.45-1.01 1.01.45 1.01 1.01 1.01c.55 0 1.01-.45 1.01-1.01m-1.62 0c0-.34.27-.61.61-.61.34 0 .61.27.61.61 0 .34-.27.61-.61.61-.34 0-.61-.27-.61-.61" class="st20"/><path d="M254.55 111.93c0-.55-.45-1.01-1.01-1.01s-1.01.45-1.01 1.01.45 1.01 1.01 1.01c.55 0 1.01-.45 1.01-1.01zm-1.62 0c0-.34.27-.61.61-.61.34 0 .61.27.61.61 0 .34-.27.61-.61.61-.34 0-.61-.27-.61-.61z" class="st21"/><path d="M202.16 83.86h57.07m-13-11.42c0 .5-.41.91-.91.91s-.91-.41-.91-.91.41-.91.91-.91c.5-.01.91.4.91.91zm-32.51-3.43c0-1.7 1.38-3.07 3.07-3.07h30.04c1.7 0 3.07 1.38 3.07 3.07v6.85c0 1.7-1.38 3.07-3.07 3.07h-30.04a3.07 3.07 0 0 1-3.07-3.07v-6.85zm-4.12 1.23c0-3.39 2.75-6.14 6.14-6.14h29.89c3.39 0 6.14 2.75 6.14 6.14v4.4c0 3.39-2.75 6.14-6.14 6.14h-29.89c-3.39 0-6.14-2.75-6.14-6.14v-4.4zm-3.4-1.92c0-3.39 2.75-6.14 6.14-6.14h36.7c3.39 0 6.14 2.75 6.14 6.14v8.24c0 3.39-2.75 6.14-6.14 6.14h-36.7c-3.39 0-6.14-2.75-6.14-6.14v-8.24z" style="clip-path:url(#SVGID_30_);fill:none;stroke:#38383b;stroke-width:.65"/><path d="M258.22 100.6V87.32c0-.68-.55-1.23-1.22-1.23h-6.24c-3.42 0-6.21 2.79-6.21 6.21v3.32c0 3.42 2.79 6.21 6.21 6.21H257c.67 0 1.22-.55 1.22-1.23m-13.33-8.3a5.89 5.89 0 0 1 5.88-5.88H257c.49 0 .89.4.89.89v13.28c0 .49-.4.89-.89.89h-6.24a5.89 5.89 0 0 1-5.88-5.88v-3.3z" class="st20"/><path d="M258.22 100.6V87.32c0-.68-.55-1.23-1.22-1.23h-6.24c-3.42 0-6.21 2.79-6.21 6.21v3.32c0 3.42 2.79 6.21 6.21 6.21H257c.67 0 1.22-.55 1.22-1.23zm-13.33-8.3a5.89 5.89 0 0 1 5.88-5.88H257c.49 0 .89.4.89.89v13.28c0 .49-.4.89-.89.89h-6.24a5.89 5.89 0 0 1-5.88-5.88v-3.3z" class="st23"/><path d="M255.5 99.25V88.67c0-.61-.49-1.1-1.1-1.1h-3.63c-2.61 0-4.74 2.12-4.74 4.73v3.32c0 2.61 2.12 4.74 4.74 4.74h3.63c.61-.01 1.1-.5 1.1-1.11m-9.14-6.95c0-2.43 1.98-4.4 4.4-4.4h3.63c.42 0 .77.34.77.77v10.59c0 .42-.35.77-.77.77h-3.63c-2.43 0-4.4-1.98-4.4-4.4V92.3z" class="st20"/><path d="M255.5 99.25V88.67c0-.61-.49-1.1-1.1-1.1h-3.63c-2.61 0-4.74 2.12-4.74 4.73v3.32c0 2.61 2.12 4.74 4.74 4.74h3.63c.61-.01 1.1-.5 1.1-1.11zm-9.14-6.95c0-2.43 1.98-4.4 4.4-4.4h3.63c.42 0 .77.34.77.77v10.59c0 .42-.35.77-.77.77h-3.63c-2.43 0-4.4-1.98-4.4-4.4V92.3z" class="st23"/><path d="M251.24 93.96c0-.58-.48-1.06-1.06-1.06-.58 0-1.06.48-1.06 1.06a1.06 1.06 0 0 0 2.12 0m-1.79 0c0-.4.33-.73.73-.73.4 0 .73.33.73.73 0 .4-.33.73-.73.73-.41 0-.73-.33-.73-.73" class="st20"/><path d="M251.24 93.96c0-.58-.48-1.06-1.06-1.06-.58 0-1.06.48-1.06 1.06a1.06 1.06 0 0 0 2.12 0zm-1.79 0c0-.4.33-.73.73-.73.4 0 .73.33.73.73 0 .4-.33.73-.73.73-.41 0-.73-.33-.73-.73z" class="st23"/><path d="M257.72 147.68h-18.98V128.7h18.98v18.98zm-.41-18.58h-18.18v18.18h18.18V129.1z" class="st1"/><path d="M257.72 147.68h-18.98V128.7h18.98v18.98zm-.41-18.58h-18.18v18.18h18.18V129.1z" class="st19"/><defs><path id="SVGID_31_" d="M26.88 23.57h237.88V275.1H26.88z"/></defs><clipPath id="SVGID_32_"><use xlink:href="#SVGID_31_" style="overflow:visible"/></clipPath><path d="M252.38 131.82v12.73c0 .67-.55 1.22-1.22 1.22h-9.56c-.67 0-1.21-.55-1.21-1.22v-12.73c0-.67.54-1.22 1.21-1.22h9.56c.67.01 1.22.55 1.22 1.22m-11.59 12.74c0 .45.36.81.81.81h9.56c.45 0 .82-.37.82-.81v-12.73c0-.45-.37-.81-.82-.81h-9.56c-.45 0-.81.36-.81.81v12.73z" style="clip-path:url(#SVGID_32_);fill:#38383b"/><path d="M252.38 131.82v12.73c0 .67-.55 1.22-1.22 1.22h-9.56c-.67 0-1.21-.55-1.21-1.22v-12.73c0-.67.54-1.22 1.21-1.22h9.56c.67.01 1.22.55 1.22 1.22zm-11.59 12.74c0 .45.36.81.81.81h9.56c.45 0 .82-.37.82-.81v-12.73c0-.45-.37-.81-.82-.81h-9.56c-.45 0-.81.36-.81.81v12.73z" style="clip-path:url(#SVGID_32_);fill:none;stroke:#38383b;stroke-width:.28"/><path d="M250.96 144.36h-9.16v-12.34h9.16v12.34zm-.4-11.94h-8.36v11.53h8.36v-11.53z" class="st1"/><path d="M250.96 144.36h-9.16v-12.34h9.16v12.34zm-.4-11.94h-8.36v11.53h8.36v-11.53z" class="st19"/><defs><path id="SVGID_33_" d="M26.88 23.57h237.88V275.1H26.88z"/></defs><clipPath id="SVGID_34_"><use xlink:href="#SVGID_33_" style="overflow:visible"/></clipPath><path d="M247.27 138.19c0 .8-.65 1.46-1.46 1.46-.8 0-1.46-.65-1.46-1.46 0-.8.65-1.46 1.46-1.46.81 0 1.46.66 1.46 1.46m-2.51 0a1.05 1.05 0 1 0 2.1 0 1.05 1.05 0 0 0-2.1 0" style="clip-path:url(#SVGID_34_);fill:#38383b"/><path d="M247.27 138.19c0 .8-.65 1.46-1.46 1.46-.8 0-1.46-.65-1.46-1.46 0-.8.65-1.46 1.46-1.46.81 0 1.46.66 1.46 1.46zm-2.51 0a1.05 1.05 0 1 0 2.1 0 1.05 1.05 0 0 0-2.1 0z" style="clip-path:url(#SVGID_34_);fill:none;stroke:#38383b;stroke-width:.28"/><path d="M201.24 106h15.74v21.25h-15.74z" style="fill:none;stroke:#38383b;stroke-width:.65"/><defs><path id="SVGID_35_" d="M26.88 23.57h237.88V275.1H26.88z"/></defs><clipPath id="SVGID_36_"><use xlink:href="#SVGID_35_" style="overflow:visible"/></clipPath><path d="m173.84 81.74.05-1.04h-3.25l-.14 2.33c-.01.24.16.44.41.47l.81.1c.7.06.95.16.93.65-.03.42-.18.59-.86.59-.37 0-.85-.02-1.35-.06l-.13 1.06c.66.1 1.33.15 1.84.15 1.47 0 1.89-.76 1.89-1.69.01-.84-.31-1.58-1.52-1.72l-.86-.11.05-.72h2.13zm1.25 2.88c-.36 0-.47.11-.47.47v.33c0 .36.11.47.47.47h.32c.36 0 .47-.11.47-.47v-.33c0-.36-.11-.47-.47-.47h-.32zm4.86-2.88.05-1.04h-3.25l-.13 2.33c-.01.24.16.44.41.47l.81.1c.7.06.95.16.93.65-.03.42-.18.59-.86.59-.37 0-.85-.02-1.35-.06l-.13 1.06c.66.1 1.33.15 1.84.15 1.47 0 1.89-.76 1.89-1.69.01-.84-.31-1.58-1.52-1.72l-.86-.11.05-.72h2.12zm-19.09-10.07h-4.35v5.19h1.41v-4.23h1.53v4.23h1.41v-5.19zm1.97 1.46h-1.1v5.13h1.36v-.82c.01-.26 0-.55-.02-.81.32.25.74.34 1.2.34.93 0 1.42-.41 1.42-1.92 0-1.27-.38-2-1.32-2-.6 0-1.17.27-1.43.62l-.11-.54zm.27 1.15c.24-.14.42-.23.7-.23.35 0 .49.14.49.99 0 .86-.15.99-.53.99-.27 0-.45-.07-.66-.13v-1.62zm7.11 2.59v-3.75h-1.19l-1.19 1.79c-.11.17-.21.34-.29.55h-.03c.03-.22.05-.38.05-.58v-1.76h-1.21v3.74h1.19l1.17-1.71c.11-.16.23-.42.3-.62h.03c-.03.25-.05.44-.05.66v1.68h1.22zm3.43 0h1.38l-1.11-1.91 1.02-1.83h-1.36l-.74 1.4-.74-1.4h-1.36l1.02 1.83-1.11 1.91h1.38l.81-1.5.81 1.5zm3.55-3.85c-1.48 0-2.02.53-2.02 1.98 0 1.44.54 1.96 2.02 1.96 1.47 0 2.01-.52 2.01-1.96s-.54-1.98-2.01-1.98m0 .96c.46 0 .58.19.58 1.02 0 .82-.12 1-.58 1-.47 0-.59-.18-.59-1 .01-.83.13-1.02.59-1.02m6.99.91c.87-.11.84-.23 1.33-1.77h-1.35c-.39 1.23-.44 1.36-.81 1.36h-.23c.03-.16.05-.32.05-.47v-.9h-1.19v.9c0 .15.02.31.05.47h-.24c-.38 0-.42-.13-.82-1.36h-1.34c.5 1.54.46 1.65 1.33 1.77v.04c-.9.13-.92.19-1.45 1.93h1.38c.47-1.41.51-1.5.83-1.51h.3c-.03.11-.04.23-.04.32v1.19h1.2v-1.19c0-.09-.01-.2-.04-.32h.28c.34.01.37.09.84 1.51h1.38c-.53-1.74-.56-1.81-1.45-1.93v-.04zm2.09-.79c.62-.04 1.23-.05 1.6-.05.39 0 .51.11.52.43v.09h-1.24c-.74 0-1.2.36-1.2.95v.38c0 .7.56 1.07 1.26 1.07.65 0 1.08-.33 1.33-.65l.13.55h1.09v-2.38c0-1.11-.56-1.46-1.57-1.46-.55 0-1.49.08-2.05.19l.13.88zm1.02 1.47c0-.17.09-.29.32-.29h.78v.47c-.25.16-.51.26-.73.26-.25 0-.37-.1-.37-.3v-.14zm3.98-.29c-.23.02-.62.08-.72.41l-.29 1.18h1.4l.23-1c.03-.17.11-.22.35-.22h.5v1.22h1.32V73.1c-.47-.05-.87-.06-1.89-.06-1.38 0-1.72.26-1.72 1.2 0 .45.18.88.81 1.01v.03zm1.47-.47h-.54c-.35 0-.42-.09-.42-.47 0-.28.07-.35.42-.35h.54v.82zm27.27 20.11c.38-.01.91-.01 1.45-.01.53 0 .68.07.68.49.01.35-.04.57-.61.57h-.99v.9l.99-.01c.56-.01.68.17.68.61 0 .52-.2.62-.86.62-.45 0-.78-.01-1.44-.04l-.05 1.01c.59.08 1.24.14 1.87.14 1.38 0 1.88-.45 1.87-1.55-.01-.79-.23-1.19-.96-1.3v-.03c.67-.11.83-.57.83-1.31 0-.92-.48-1.21-1.75-1.21-.57 0-1.15.04-1.74.14l.03.98zm4.68 2.89c-.36 0-.47.11-.47.47v.33c0 .36.11.47.47.47h.32c.36 0 .47-.11.47-.47v-.33c0-.36-.11-.47-.47-.47h-.32zm5.82-.75h-.62v-2.14h-1.06l-.23.81v1.33h-1.02c-.12 0-.2-.08-.14-.22l1.14-2.94h-1.32l-1.29 3.3c-.16.41.11.8.55.8h2.08v1.09h1.29V98h.01l.6-.14v-.8zM86.17 159.77v-6.49h-1.76l-1.65.64.21 1.12 1.5-.34c-.06.26-.07.52-.07.77v4.3h1.77zm1.34-.07c.75.19 1.45.19 1.81.19 2.07 0 2.83-.49 2.83-3.42 0-2.62-.43-3.29-2.48-3.29-1.89 0-2.43.71-2.42 2.38 0 1.19.41 2.01 1.86 2.01.58 0 .98-.09 1.34-.38-.05 1.11-.27 1.43-1.13 1.43-.84 0-1.15 0-1.72-.01l-.09 1.09zm1.39-4.19c-.01-.77.07-1.07.74-1.07.73 0 .81.26.82 1.68-.31.18-.52.24-.82.24-.6.01-.75-.18-.74-.85m4.65 2.66c-.45 0-.59.14-.59.59v.41c0 .45.14.59.59.59h.4c.45 0 .59-.14.59-.59v-.41c0-.45-.14-.59-.59-.59h-.4zm4.42-5.02c-1.97 0-2.64.85-2.64 3.38s.68 3.38 2.64 3.38c1.97 0 2.66-.85 2.66-3.38s-.68-3.38-2.66-3.38m-.01 1.35c.72 0 .92.31.92 2.03s-.2 2.03-.92 2.03c-.7 0-.89-.31-.89-2.03s.2-2.03.89-2.03m-36.29-9.43c1.26-.17 1.29-.75 1.97-3.07h-1.79c-.58 1.95-.7 2.53-1.33 2.53h-.3c.05-.27.07-.55.07-.81V142h-1.68v1.72c0 .26.03.54.08.81h-.33c-.62 0-.74-.58-1.32-2.53h-1.79c.69 2.32.71 2.91 1.97 3.07v.06c-1.31.19-1.39.7-2.15 3.36h1.84c.72-2.35.8-2.77 1.43-2.77h.33c-.05.21-.08.42-.08.6v2.17h1.68v-2.17c0-.18-.03-.4-.07-.6h.31c.66 0 .73.42 1.44 2.77h1.85c-.76-2.66-.85-3.17-2.16-3.36v-.06zm7.6 3.42v-4.68h-1.49l-1.49 2.24c-.14.22-.26.42-.36.69h-.03c.04-.27.07-.48.07-.73v-2.2h-1.51v4.67h1.49l1.46-2.13c.13-.21.29-.53.38-.78h.04c-.04.31-.07.55-.07.83v2.1h1.51zm5.72-4.68h-2.82c-.81 0-1.22.41-1.29 1.2-.07.86-.15 1.51-.24 1.84-.1.38-.38.37-.79.43l.17 1.25c1.03.17 1.96-.07 2.14-1.22.09-.45.2-1.24.28-1.97.03-.27.16-.4.44-.4h.4v3.54h1.7v-4.67zm1.18 1.21c.78-.05 1.53-.07 2-.07.49 0 .64.14.65.54v.11h-1.55c-.93 0-1.49.45-1.49 1.19v.47c0 .88.71 1.34 1.57 1.34.81 0 1.35-.41 1.67-.81l.16.69h1.36v-2.98c0-1.39-.69-1.82-1.96-1.82-.69 0-1.86.1-2.56.24l.15 1.1zm1.28 1.85c0-.22.11-.36.39-.37h.98v.58c-.31.2-.64.32-.91.32-.31 0-.46-.13-.46-.38v-.15zm4.97-.37c-.28.03-.77.1-.89.51l-.37 1.48h1.75l.29-1.25c.04-.22.14-.27.43-.27h.62v1.52h1.65v-4.71c-.58-.07-1.08-.07-2.36-.07-1.72 0-2.14.33-2.14 1.5 0 .57.23 1.1 1.01 1.26v.03zm1.84-.58h-.67c-.44 0-.53-.11-.53-.58 0-.35.08-.43.53-.43h.67v1.01zm7.72.11c1.09-.16 1.02-.25 1.62-2.22h-1.72c-.4 1.56-.43 1.69-1.1 1.69h-.21c.04-.2.07-.4.07-.59v-1.1h-1.7v4.67h1.7V147c0-.11-.02-.24-.06-.38h.38c.5.01.54.13 1.03 1.85h1.78c-.65-2.21-.67-2.25-1.78-2.41v-.03zm4.68-2.35c-1.84 0-2.52.67-2.52 2.47 0 1.8.68 2.44 2.52 2.44 1.83 0 2.51-.65 2.51-2.44.01-1.8-.67-2.47-2.51-2.47m0 1.2c.58 0 .73.23.73 1.27 0 1.03-.15 1.25-.73 1.25s-.73-.23-.73-1.25c0-1.03.15-1.27.73-1.27m7.78-1.07c-.36 0-.58.18-.64.53l-.4 1.74c-.05.24-.06.46-.1.7h-.07c-.03-.24-.04-.46-.09-.7l-.42-1.74c-.06-.35-.28-.53-.63-.53h-1.45c-.38 0-.58.2-.59.58l-.11 4.09h1.54l.1-3.43h.11l.56 2.27c.07.35.29.52.65.52h.76c.37 0 .58-.17.64-.52l.56-2.27h.11l.12 3.43h1.54l-.12-4.09c-.01-.39-.2-.58-.58-.58h-1.49zm7.9 0h-1.67v1.65h-1.43v-1.65h-1.68v4.67h1.68v-1.89h1.43v1.89h1.67v-4.67zm1.18 1.21c.78-.05 1.53-.07 2-.07.49 0 .64.14.65.54v.11h-1.55c-.93 0-1.49.45-1.49 1.19v.47c0 .88.7 1.34 1.57 1.34.81 0 1.35-.41 1.67-.81l.16.69h1.36v-2.98c0-1.39-.7-1.82-1.96-1.82-.69 0-1.86.1-2.56.24l.15 1.1zm1.28 1.85c0-.22.11-.36.4-.37h.98v.58c-.31.2-.64.32-.91.32-.31 0-.46-.13-.46-.38v-.15zm8.35-1.77v-1.29h-4.67v1.29h1.49v3.39h1.7v-3.39h1.48zm.77-.08c.78-.05 1.53-.07 2-.07.49 0 .64.14.65.54v.11h-1.55c-.93 0-1.49.45-1.49 1.19v.47c0 .88.71 1.34 1.57 1.34.81 0 1.35-.41 1.67-.81l.16.69h1.36v-2.98c0-1.39-.69-1.82-1.96-1.82-.69 0-1.86.1-2.56.24l.15 1.1zm1.27 1.85c0-.22.11-.36.39-.37h.98v.58c-.31.2-.64.32-.91.32-.31 0-.46-.13-.46-.38v-.15zm72.77 25.84c-.93.09-1.16.87-1.16 1.73 0 1.26.53 1.76 2.55 1.75 2.06-.02 2.55-.49 2.55-1.75 0-.87-.22-1.65-1.15-1.73v-.04c.71-.07.99-.79.99-1.49 0-1.21-.41-1.74-2.39-1.74-1.96 0-2.38.53-2.38 1.74 0 .7.28 1.41.99 1.49v.04zm1.41-2.08c.65 0 .8.14.8.78 0 .57-.12.71-.78.71-.67 0-.83-.13-.83-.71 0-.63.15-.78.81-.78m0 2.63c.72 0 .87.16.87.85 0 .65-.15.81-.88.81s-.9-.16-.9-.81c0-.67.16-.85.91-.85m3.94 1.2c-.45 0-.59.14-.59.59v.41c0 .45.14.59.59.59h.4c.45 0 .59-.14.59-.59v-.41c0-.45-.14-.59-.59-.59h-.4zm2.96-1.75c-.93.09-1.16.87-1.16 1.73 0 1.26.53 1.76 2.55 1.75 2.06-.02 2.55-.49 2.55-1.75 0-.87-.22-1.65-1.15-1.73v-.04c.71-.07.99-.79.99-1.49 0-1.21-.41-1.74-2.39-1.74-1.96 0-2.38.53-2.38 1.74 0 .7.28 1.41.99 1.49v.04zm1.4-2.08c.65 0 .8.14.8.78 0 .57-.12.71-.78.71-.67 0-.83-.13-.83-.71 0-.63.15-.78.81-.78m.01 2.63c.71 0 .87.16.87.85 0 .65-.15.81-.88.81-.74 0-.9-.16-.9-.81 0-.67.16-.85.91-.85m-14.46-11.9c1.29-.17 1.33-.75 2.04-3.07h-1.8c-.51 1.95-.63 2.53-1.54 2.53h-.31c.05-.26.08-.55.08-.81v-1.72h-1.76v6.49h1.76v-2.17c0-.18-.03-.4-.08-.6h.34c.9 0 .98.42 1.65 2.77h1.84c-.8-2.66-.88-3.17-2.22-3.36v-.06zm7.68-1.26h-1.82l-.69 2.78c-.05.22-.12.53-.2.8h-.09c-.04-.27-.08-.54-.13-.8l-.71-2.78h-1.82l1.45 4.27c.07.24.28.4.54.4h.31c-.12.24-.3.45-.49.55-.3.17-.71.22-1.31.2l-.14 1.11c.67.12 1.37.13 1.93-.09.72-.26 1.26-.73 1.6-1.82l1.57-4.62zm3.81 4.67h1.72l-1.39-2.39 1.28-2.28h-1.7l-.92 1.75-.92-1.75h-1.7l1.28 2.28-1.39 2.39h1.72l1.02-1.88 1 1.88zm7.04-4.67h-1.67v1.65h-1.43v-1.65h-1.68v4.67h1.68v-1.89h1.43v1.89h1.67v-4.67zm1.94 2.69c-.28.03-.77.1-.89.51l-.37 1.48h1.75l.29-1.25c.04-.22.14-.27.43-.27h.62v1.52h1.65v-4.71c-.58-.07-1.08-.07-2.36-.07-1.72 0-2.14.33-2.14 1.5 0 .57.23 1.1 1.01 1.26v.03zm1.84-.58h-.67c-.44 0-.53-.11-.53-.58 0-.35.08-.43.53-.43h.67v1.01zM82.69 131.25h-1.76v-6.13H77.9l-.64 2.32v3.81h-2.9c-.34 0-.56-.21-.39-.62l3.25-8.41h-3.76l-3.7 9.42c-.47 1.16.32 2.3 1.57 2.3h5.93v3.12h3.68v-3.12h.04l1.72-.39v-2.3zm8.04 5.8v-14.83h-4.02l-3.76 1.46.47 2.56 3.44-.77c-.13.6-.15 1.18-.15 1.76v9.83h4.02zm4-3.65c-1.03 0-1.36.32-1.36 1.36v.95c0 1.03.32 1.35 1.36 1.35h.92c1.03 0 1.36-.32 1.36-1.35v-.95c0-1.03-.32-1.36-1.36-1.36h-.92zm4.28-7.96c2.04-.11 3.12-.11 4.64-.11 1.14 0 1.63.06 1.63.69.02.84-.97 2.17-2.64 3.87l-3.33 3.44c-.43.47-.56.97-.56 1.61v2.11h11.05v-3.48h-4.28c-.71 0-1.4.02-2.09.19l3.66-3.59c1.96-2.04 2.32-3.01 2.32-4.62 0-2.9-2.08-3.59-5.25-3.59-1.61 0-3.14.06-5.31.49l.16 2.99z" class="st29"/><circle cx="91.86" cy="104.79" r="13.18" style="clip-path:url(#SVGID_36_);fill:none;stroke:#38383b;stroke-width:.904"/><path d="M88.94 110.49V99.26H85.9l-2.85 1.11.36 1.94 2.6-.59c-.1.46-.11.9-.11 1.34v7.44h3.04zm6-4.8 2.64 4.8h3.39l-2.77-4.74c-.24-.44-.73-.88-1.04-1.06v-.05c.31-.2.65-.51.91-.96l2.72-4.43H97.5l-2.57 4.38h-.76c.1-.47.13-.94.13-1.4v-2.98h-3.04v11.23h3.04v-3.76c0-.31-.05-.68-.13-1.04h.77zm90.16 140.88c.75.19 1.45.19 1.81.19 2.07 0 2.83-.49 2.83-3.42 0-2.62-.43-3.29-2.48-3.29-1.89 0-2.43.71-2.42 2.38 0 1.19.41 2.01 1.86 2.01.58 0 .98-.09 1.34-.39-.05 1.11-.27 1.43-1.13 1.43-.84 0-1.15 0-1.72-.01l-.09 1.1zm1.39-4.18c-.01-.77.07-1.07.74-1.07.73 0 .81.25.82 1.68-.31.18-.52.24-.82.24-.6 0-.75-.18-.74-.85m4.65 2.66c-.45 0-.59.14-.59.59v.41c0 .45.14.59.59.59h.4c.45 0 .59-.14.59-.59v-.41c0-.45-.14-.59-.59-.59h-.4zm4.42-5.02c-1.97 0-2.64.85-2.64 3.38s.68 3.38 2.64 3.38c1.97 0 2.66-.85 2.66-3.38 0-2.54-.69-3.38-2.66-3.38m-.01 1.34c.72 0 .92.31.92 2.03 0 1.72-.2 2.03-.92 2.03-.7 0-.89-.31-.89-2.03-.01-1.72.19-2.03.89-2.03m10.21-2.15c-1.98.56-2.87 1.97-2.87 4.5 0 2.51.89 3.92 2.87 4.49l.2-.72c-1.04-.48-1.41-1.84-1.41-3.77 0-1.97.38-3.32 1.41-3.76l-.2-.74zm5.79 4.89h-.77v-2.68h-1.32l-.28 1.02v1.66h-1.27c-.15 0-.25-.09-.17-.27l1.42-3.68h-1.65l-1.62 4.12c-.21.51.14 1.01.68 1.01h2.6v1.36h1.61v-1.36h.02l.75-.17v-1.01zm1.21.94c-.45 0-.59.14-.59.59v.41c0 .45.14.59.59.59h.4c.45 0 .59-.14.59-.59v-.41c0-.45-.14-.59-.59-.59h-.4zm6.09-3.59.07-1.3h-4.06l-.17 2.91c-.02.3.2.55.51.58l1.01.12c.87.08 1.19.2 1.16.81-.04.53-.23.73-1.08.73-.46 0-1.06-.03-1.68-.07l-.16 1.32c.83.12 1.66.19 2.3.19 1.84 0 2.36-.95 2.36-2.11.01-1.05-.39-1.98-1.9-2.15l-1.08-.14.07-.9h2.65zm.66-1.52c1.03.44 1.41 1.8 1.41 3.76 0 1.93-.38 3.29-1.41 3.77l.2.72c1.97-.56 2.87-1.98 2.87-4.49 0-2.53-.89-3.94-2.87-4.5l-.2.74z" class="st29"/><path d="M199.77 124.81h62v4h-62zm0-67.55h62v4h-62z" class="st1"/><path d="M199.04 104.61h4v24.2h-4z" class="st1"/></g></switch></svg>