<?xml version="1.0" encoding="utf-8"?>
<!-- Generator: Adobe Illustrator 24.3.0, SVG Export Plug-In . SVG Version: 6.00 Build 0)  -->
<svg version="1.1" id="Слой_1" xmlns="http://www.w3.org/2000/svg" xmlns:xlink="http://www.w3.org/1999/xlink" x="0px" y="0px"
	 viewBox="0 0 226.4 245.5" style="enable-background:new 0 0 226.4 245.5;" xml:space="preserve">
<style type="text/css">
	.st0{clip-path:url(#SVGID_4_);}
	.st1{fill:none;stroke:#373437;stroke-width:0.669;}
	.st2{clip-path:url(#SVGID_138_);fill:none;stroke:#373437;stroke-width:0.446;}
	.st3{fill:#F3DFEC;}
	.st4{fill:#373437;}
	.st5{fill:none;stroke:#373437;stroke-width:1.116;stroke-dasharray:4.478,4.478;}
	.st6{fill:none;stroke:#373437;stroke-width:0.904;}
	.st7{fill:none;stroke:#373437;stroke-width:0.446;}
	.st8{fill:none;stroke:#373437;stroke-width:0.244;}
	.st9{fill:none;stroke:#373437;stroke-width:0.236;}
	.st10{fill:none;stroke:#373437;stroke-width:0.567;}
	.st11{fill:none;stroke:#373437;stroke-width:0.279;}
</style>
<g>
	<defs>
		<polyline id="SVGID_1_" points="-497.4,446.4 693.2,446.4 693.2,-395.5 -497.4,-395.5 		"/>
	</defs>
	<clipPath id="SVGID_2_">
		<use xlink:href="#SVGID_1_"  style="overflow:visible;"/>
	</clipPath>
</g>
<g>
	<defs>
		<rect id="SVGID_3_" x="-497.4" y="-395.5" width="1190.6" height="43.3"/>
	</defs>
	<clipPath id="SVGID_4_">
		<use xlink:href="#SVGID_3_"  style="overflow:visible;"/>
	</clipPath>
	<g class="st0">
		<defs>
			<rect id="SVGID_5_" x="-499.4" y="-397.9" width="1195.4" height="48.7"/>
		</defs>
		<clipPath id="SVGID_6_">
			<use xlink:href="#SVGID_5_"  style="overflow:visible;"/>
		</clipPath>
	</g>
</g>
<g>
	<defs>
		<polyline id="SVGID_7_" points="-497.4,446.4 693.2,446.4 693.2,-395.5 -497.4,-395.5 		"/>
	</defs>
	<clipPath id="SVGID_8_">
		<use xlink:href="#SVGID_7_"  style="overflow:visible;"/>
	</clipPath>
</g>
<g>
	<defs>
		<polyline id="SVGID_9_" points="-497.4,446.4 693.2,446.4 693.2,-395.5 -497.4,-395.5 		"/>
	</defs>
	<clipPath id="SVGID_10_">
		<use xlink:href="#SVGID_9_"  style="overflow:visible;"/>
	</clipPath>
</g>
<g>
	<defs>
		<polyline id="SVGID_11_" points="-497.4,446.4 693.2,446.4 693.2,-395.5 -497.4,-395.5 		"/>
	</defs>
	<clipPath id="SVGID_12_">
		<use xlink:href="#SVGID_11_"  style="overflow:visible;"/>
	</clipPath>
</g>
<g>
	<defs>
		<polyline id="SVGID_13_" points="-497.4,446.4 693.2,446.4 693.2,-395.5 -497.4,-395.5 		"/>
	</defs>
	<clipPath id="SVGID_14_">
		<use xlink:href="#SVGID_13_"  style="overflow:visible;"/>
	</clipPath>
</g>
<g>
	<defs>
		<polyline id="SVGID_15_" points="-497.4,446.4 693.2,446.4 693.2,-395.5 -497.4,-395.5 		"/>
	</defs>
	<clipPath id="SVGID_16_">
		<use xlink:href="#SVGID_15_"  style="overflow:visible;"/>
	</clipPath>
</g>
<g>
	<defs>
		<polyline id="SVGID_17_" points="-497.4,446.4 693.2,446.4 693.2,-395.5 -497.4,-395.5 		"/>
	</defs>
	<clipPath id="SVGID_18_">
		<use xlink:href="#SVGID_17_"  style="overflow:visible;"/>
	</clipPath>
</g>
<g>
	<defs>
		<polyline id="SVGID_19_" points="-497.4,446.4 693.2,446.4 693.2,-395.5 -497.4,-395.5 		"/>
	</defs>
	<clipPath id="SVGID_20_">
		<use xlink:href="#SVGID_19_"  style="overflow:visible;"/>
	</clipPath>
</g>
<g>
	<defs>
		<polyline id="SVGID_21_" points="-497.4,446.4 693.2,446.4 693.2,-395.5 -497.4,-395.5 		"/>
	</defs>
	<clipPath id="SVGID_22_">
		<use xlink:href="#SVGID_21_"  style="overflow:visible;"/>
	</clipPath>
</g>
<g>
	<defs>
		<polyline id="SVGID_23_" points="-497.4,446.4 693.2,446.4 693.2,-395.5 -497.4,-395.5 		"/>
	</defs>
	<clipPath id="SVGID_24_">
		<use xlink:href="#SVGID_23_"  style="overflow:visible;"/>
	</clipPath>
</g>
<g>
	<defs>
		<polyline id="SVGID_25_" points="-497.4,446.4 693.2,446.4 693.2,-395.5 -497.4,-395.5 		"/>
	</defs>
	<clipPath id="SVGID_26_">
		<use xlink:href="#SVGID_25_"  style="overflow:visible;"/>
	</clipPath>
</g>
<g>
	<defs>
		<polyline id="SVGID_27_" points="-497.4,446.4 693.2,446.4 693.2,-395.5 -497.4,-395.5 		"/>
	</defs>
	<clipPath id="SVGID_28_">
		<use xlink:href="#SVGID_27_"  style="overflow:visible;"/>
	</clipPath>
</g>
<g>
	<defs>
		<polyline id="SVGID_29_" points="-497.4,446.4 693.2,446.4 693.2,-395.5 -497.4,-395.5 		"/>
	</defs>
	<clipPath id="SVGID_30_">
		<use xlink:href="#SVGID_29_"  style="overflow:visible;"/>
	</clipPath>
</g>
<g>
	<defs>
		<polyline id="SVGID_31_" points="-497.4,446.4 693.2,446.4 693.2,-395.5 -497.4,-395.5 		"/>
	</defs>
	<clipPath id="SVGID_32_">
		<use xlink:href="#SVGID_31_"  style="overflow:visible;"/>
	</clipPath>
</g>
<g>
	<defs>
		<polyline id="SVGID_33_" points="-497.4,446.4 693.2,446.4 693.2,-395.5 -497.4,-395.5 		"/>
	</defs>
	<clipPath id="SVGID_34_">
		<use xlink:href="#SVGID_33_"  style="overflow:visible;"/>
	</clipPath>
</g>
<g>
	<defs>
		<polyline id="SVGID_35_" points="-497.4,446.4 693.2,446.4 693.2,-395.5 -497.4,-395.5 		"/>
	</defs>
	<clipPath id="SVGID_36_">
		<use xlink:href="#SVGID_35_"  style="overflow:visible;"/>
	</clipPath>
</g>
<g>
	<defs>
		<polyline id="SVGID_37_" points="-497.4,446.4 693.2,446.4 693.2,-395.5 -497.4,-395.5 		"/>
	</defs>
	<clipPath id="SVGID_38_">
		<use xlink:href="#SVGID_37_"  style="overflow:visible;"/>
	</clipPath>
</g>
<g>
	<defs>
		<polyline id="SVGID_39_" points="-497.4,446.4 693.2,446.4 693.2,-395.5 -497.4,-395.5 		"/>
	</defs>
	<clipPath id="SVGID_40_">
		<use xlink:href="#SVGID_39_"  style="overflow:visible;"/>
	</clipPath>
</g>
<g>
	<defs>
		<polyline id="SVGID_41_" points="-497.4,446.4 693.2,446.4 693.2,-395.5 -497.4,-395.5 		"/>
	</defs>
	<clipPath id="SVGID_42_">
		<use xlink:href="#SVGID_41_"  style="overflow:visible;"/>
	</clipPath>
</g>
<g>
	<defs>
		<polyline id="SVGID_43_" points="-497.4,446.4 693.2,446.4 693.2,-395.5 -497.4,-395.5 		"/>
	</defs>
	<clipPath id="SVGID_44_">
		<use xlink:href="#SVGID_43_"  style="overflow:visible;"/>
	</clipPath>
</g>
<g>
	<defs>
		<polyline id="SVGID_45_" points="-497.4,446.4 693.2,446.4 693.2,-395.5 -497.4,-395.5 		"/>
	</defs>
	<clipPath id="SVGID_46_">
		<use xlink:href="#SVGID_45_"  style="overflow:visible;"/>
	</clipPath>
</g>
<g>
	<defs>
		<polyline id="SVGID_47_" points="-497.4,446.4 693.2,446.4 693.2,-395.5 -497.4,-395.5 		"/>
	</defs>
	<clipPath id="SVGID_48_">
		<use xlink:href="#SVGID_47_"  style="overflow:visible;"/>
	</clipPath>
</g>
<g>
	<defs>
		<polyline id="SVGID_49_" points="-497.4,446.4 693.2,446.4 693.2,-395.5 -497.4,-395.5 		"/>
	</defs>
	<clipPath id="SVGID_50_">
		<use xlink:href="#SVGID_49_"  style="overflow:visible;"/>
	</clipPath>
</g>
<g>
	<defs>
		<polyline id="SVGID_51_" points="-497.4,446.4 693.2,446.4 693.2,-395.5 -497.4,-395.5 		"/>
	</defs>
	<clipPath id="SVGID_52_">
		<use xlink:href="#SVGID_51_"  style="overflow:visible;"/>
	</clipPath>
</g>
<g>
	<defs>
		<polyline id="SVGID_53_" points="-497.4,446.4 693.2,446.4 693.2,-395.5 -497.4,-395.5 		"/>
	</defs>
	<clipPath id="SVGID_54_">
		<use xlink:href="#SVGID_53_"  style="overflow:visible;"/>
	</clipPath>
</g>
<g>
	<defs>
		<polyline id="SVGID_55_" points="-497.4,446.4 693.2,446.4 693.2,-395.5 -497.4,-395.5 		"/>
	</defs>
	<clipPath id="SVGID_56_">
		<use xlink:href="#SVGID_55_"  style="overflow:visible;"/>
	</clipPath>
</g>
<g>
	<defs>
		<polyline id="SVGID_57_" points="-497.4,446.4 693.2,446.4 693.2,-395.5 -497.4,-395.5 		"/>
	</defs>
	<clipPath id="SVGID_58_">
		<use xlink:href="#SVGID_57_"  style="overflow:visible;"/>
	</clipPath>
</g>
<g>
	<defs>
		<polyline id="SVGID_59_" points="-497.4,446.4 693.2,446.4 693.2,-395.5 -497.4,-395.5 		"/>
	</defs>
	<clipPath id="SVGID_60_">
		<use xlink:href="#SVGID_59_"  style="overflow:visible;"/>
	</clipPath>
</g>
<g>
	<defs>
		<polyline id="SVGID_61_" points="-497.4,446.4 693.2,446.4 693.2,-395.5 -497.4,-395.5 		"/>
	</defs>
	<clipPath id="SVGID_62_">
		<use xlink:href="#SVGID_61_"  style="overflow:visible;"/>
	</clipPath>
</g>
<g>
	<defs>
		<polyline id="SVGID_63_" points="-497.4,446.4 693.2,446.4 693.2,-395.5 -497.4,-395.5 		"/>
	</defs>
	<clipPath id="SVGID_64_">
		<use xlink:href="#SVGID_63_"  style="overflow:visible;"/>
	</clipPath>
</g>
<g>
	<defs>
		<polyline id="SVGID_65_" points="-497.4,446.4 693.2,446.4 693.2,-395.5 -497.4,-395.5 		"/>
	</defs>
	<clipPath id="SVGID_66_">
		<use xlink:href="#SVGID_65_"  style="overflow:visible;"/>
	</clipPath>
</g>
<g>
	<defs>
		<polyline id="SVGID_67_" points="-497.4,446.4 693.2,446.4 693.2,-395.5 -497.4,-395.5 		"/>
	</defs>
	<clipPath id="SVGID_68_">
		<use xlink:href="#SVGID_67_"  style="overflow:visible;"/>
	</clipPath>
</g>
<g>
	<defs>
		<polyline id="SVGID_69_" points="-497.4,446.4 693.2,446.4 693.2,-395.5 -497.4,-395.5 		"/>
	</defs>
	<clipPath id="SVGID_70_">
		<use xlink:href="#SVGID_69_"  style="overflow:visible;"/>
	</clipPath>
</g>
<g>
	<defs>
		<polyline id="SVGID_71_" points="-497.4,446.4 693.2,446.4 693.2,-395.5 -497.4,-395.5 		"/>
	</defs>
	<clipPath id="SVGID_72_">
		<use xlink:href="#SVGID_71_"  style="overflow:visible;"/>
	</clipPath>
</g>
<g>
	<defs>
		<polyline id="SVGID_73_" points="-497.4,446.4 693.2,446.4 693.2,-395.5 -497.4,-395.5 		"/>
	</defs>
	<clipPath id="SVGID_74_">
		<use xlink:href="#SVGID_73_"  style="overflow:visible;"/>
	</clipPath>
</g>
<g>
	<defs>
		<polyline id="SVGID_75_" points="-497.4,446.4 693.2,446.4 693.2,-395.5 -497.4,-395.5 		"/>
	</defs>
	<clipPath id="SVGID_76_">
		<use xlink:href="#SVGID_75_"  style="overflow:visible;"/>
	</clipPath>
</g>
<g>
	<defs>
		<polyline id="SVGID_77_" points="-497.4,446.4 693.2,446.4 693.2,-395.5 -497.4,-395.5 		"/>
	</defs>
	<clipPath id="SVGID_78_">
		<use xlink:href="#SVGID_77_"  style="overflow:visible;"/>
	</clipPath>
</g>
<g>
	<defs>
		<polyline id="SVGID_79_" points="-497.4,446.4 693.2,446.4 693.2,-395.5 -497.4,-395.5 		"/>
	</defs>
	<clipPath id="SVGID_80_">
		<use xlink:href="#SVGID_79_"  style="overflow:visible;"/>
	</clipPath>
</g>
<g>
	<defs>
		<polyline id="SVGID_81_" points="-497.4,446.4 693.2,446.4 693.2,-395.5 -497.4,-395.5 		"/>
	</defs>
	<clipPath id="SVGID_82_">
		<use xlink:href="#SVGID_81_"  style="overflow:visible;"/>
	</clipPath>
</g>
<g>
	<defs>
		<polyline id="SVGID_83_" points="-497.4,446.4 693.2,446.4 693.2,-395.5 -497.4,-395.5 		"/>
	</defs>
	<clipPath id="SVGID_84_">
		<use xlink:href="#SVGID_83_"  style="overflow:visible;"/>
	</clipPath>
</g>
<g>
	<defs>
		<polyline id="SVGID_85_" points="-497.4,446.4 693.2,446.4 693.2,-395.5 -497.4,-395.5 		"/>
	</defs>
	<clipPath id="SVGID_86_">
		<use xlink:href="#SVGID_85_"  style="overflow:visible;"/>
	</clipPath>
</g>
<g>
	<defs>
		<polyline id="SVGID_87_" points="-497.4,446.4 693.2,446.4 693.2,-395.5 -497.4,-395.5 		"/>
	</defs>
	<clipPath id="SVGID_88_">
		<use xlink:href="#SVGID_87_"  style="overflow:visible;"/>
	</clipPath>
</g>
<g>
	<defs>
		<polyline id="SVGID_89_" points="-497.4,446.4 693.2,446.4 693.2,-395.5 -497.4,-395.5 		"/>
	</defs>
	<clipPath id="SVGID_90_">
		<use xlink:href="#SVGID_89_"  style="overflow:visible;"/>
	</clipPath>
</g>
<g>
	<defs>
		<polyline id="SVGID_91_" points="-497.4,446.4 693.2,446.4 693.2,-395.5 -497.4,-395.5 		"/>
	</defs>
	<clipPath id="SVGID_92_">
		<use xlink:href="#SVGID_91_"  style="overflow:visible;"/>
	</clipPath>
</g>
<g>
	<defs>
		<polyline id="SVGID_93_" points="-497.4,446.4 693.2,446.4 693.2,-395.5 -497.4,-395.5 		"/>
	</defs>
	<clipPath id="SVGID_94_">
		<use xlink:href="#SVGID_93_"  style="overflow:visible;"/>
	</clipPath>
</g>
<g>
	<defs>
		<polyline id="SVGID_95_" points="-497.4,446.4 693.2,446.4 693.2,-395.5 -497.4,-395.5 		"/>
	</defs>
	<clipPath id="SVGID_96_">
		<use xlink:href="#SVGID_95_"  style="overflow:visible;"/>
	</clipPath>
</g>
<g>
	<defs>
		<polyline id="SVGID_97_" points="-497.4,446.4 693.2,446.4 693.2,-395.5 -497.4,-395.5 		"/>
	</defs>
	<clipPath id="SVGID_98_">
		<use xlink:href="#SVGID_97_"  style="overflow:visible;"/>
	</clipPath>
</g>
<g>
	<defs>
		<polyline id="SVGID_99_" points="-497.4,446.4 693.2,446.4 693.2,-395.5 -497.4,-395.5 		"/>
	</defs>
	<clipPath id="SVGID_100_">
		<use xlink:href="#SVGID_99_"  style="overflow:visible;"/>
	</clipPath>
</g>
<g>
	<defs>
		<polyline id="SVGID_101_" points="-634.5,300.4 556.1,300.4 556.1,-541.5 -634.5,-541.5 		"/>
	</defs>
	<clipPath id="SVGID_102_">
		<use xlink:href="#SVGID_101_"  style="overflow:visible;"/>
	</clipPath>
</g>
<g>
	<defs>
		<polyline id="SVGID_103_" points="-634.5,300.4 556.1,300.4 556.1,-541.5 -634.5,-541.5 		"/>
	</defs>
	<clipPath id="SVGID_104_">
		<use xlink:href="#SVGID_103_"  style="overflow:visible;"/>
	</clipPath>
</g>
<g>
	<defs>
		<polyline id="SVGID_105_" points="-634.5,300.4 556.1,300.4 556.1,-541.5 -634.5,-541.5 		"/>
	</defs>
	<clipPath id="SVGID_106_">
		<use xlink:href="#SVGID_105_"  style="overflow:visible;"/>
	</clipPath>
</g>
<g>
	<defs>
		<polyline id="SVGID_107_" points="-634.5,300.4 556.1,300.4 556.1,-541.5 -634.5,-541.5 		"/>
	</defs>
	<clipPath id="SVGID_108_">
		<use xlink:href="#SVGID_107_"  style="overflow:visible;"/>
	</clipPath>
</g>
<g>
	<defs>
		<polyline id="SVGID_109_" points="-634.5,300.4 556.1,300.4 556.1,-541.5 -634.5,-541.5 		"/>
	</defs>
	<clipPath id="SVGID_110_">
		<use xlink:href="#SVGID_109_"  style="overflow:visible;"/>
	</clipPath>
</g>
<g>
	<defs>
		<polyline id="SVGID_111_" points="-634.5,300.4 556.1,300.4 556.1,-541.5 -634.5,-541.5 		"/>
	</defs>
	<clipPath id="SVGID_112_">
		<use xlink:href="#SVGID_111_"  style="overflow:visible;"/>
	</clipPath>
</g>
<g>
	<defs>
		<polyline id="SVGID_113_" points="-634.5,300.4 556.1,300.4 556.1,-541.5 -634.5,-541.5 		"/>
	</defs>
	<clipPath id="SVGID_114_">
		<use xlink:href="#SVGID_113_"  style="overflow:visible;"/>
	</clipPath>
</g>
<g>
	<defs>
		<polyline id="SVGID_115_" points="-634.5,300.4 556.1,300.4 556.1,-541.5 -634.5,-541.5 		"/>
	</defs>
	<clipPath id="SVGID_116_">
		<use xlink:href="#SVGID_115_"  style="overflow:visible;"/>
	</clipPath>
</g>
<g>
	<defs>
		<polyline id="SVGID_117_" points="-634.5,300.4 556.1,300.4 556.1,-541.5 -634.5,-541.5 		"/>
	</defs>
	<clipPath id="SVGID_118_">
		<use xlink:href="#SVGID_117_"  style="overflow:visible;"/>
	</clipPath>
</g>
<g>
	<defs>
		<polyline id="SVGID_119_" points="-634.5,300.4 556.1,300.4 556.1,-541.5 -634.5,-541.5 		"/>
	</defs>
	<clipPath id="SVGID_120_">
		<use xlink:href="#SVGID_119_"  style="overflow:visible;"/>
	</clipPath>
</g>
<g>
	<defs>
		<polyline id="SVGID_121_" points="-634.5,300.4 556.1,300.4 556.1,-541.5 -634.5,-541.5 		"/>
	</defs>
	<clipPath id="SVGID_122_">
		<use xlink:href="#SVGID_121_"  style="overflow:visible;"/>
	</clipPath>
</g>
<g>
	<defs>
		<polyline id="SVGID_123_" points="-634.5,300.4 556.1,300.4 556.1,-541.5 -634.5,-541.5 		"/>
	</defs>
	<clipPath id="SVGID_124_">
		<use xlink:href="#SVGID_123_"  style="overflow:visible;"/>
	</clipPath>
</g>
<g>
	<defs>
		<polyline id="SVGID_125_" points="-634.5,300.4 556.1,300.4 556.1,-541.5 -634.5,-541.5 		"/>
	</defs>
	<clipPath id="SVGID_126_">
		<use xlink:href="#SVGID_125_"  style="overflow:visible;"/>
	</clipPath>
</g>
<g>
	<defs>
		<polyline id="SVGID_127_" points="-634.5,300.4 556.1,300.4 556.1,-541.5 -634.5,-541.5 		"/>
	</defs>
	<clipPath id="SVGID_128_">
		<use xlink:href="#SVGID_127_"  style="overflow:visible;"/>
	</clipPath>
</g>
<g>
	<defs>
		<polyline id="SVGID_129_" points="-497.4,446.4 693.2,446.4 693.2,-395.5 -497.4,-395.5 		"/>
	</defs>
	<clipPath id="SVGID_130_">
		<use xlink:href="#SVGID_129_"  style="overflow:visible;"/>
	</clipPath>
</g>
<g>
	<defs>
		<polyline id="SVGID_131_" points="-497.4,446.4 693.2,446.4 693.2,-395.5 -497.4,-395.5 		"/>
	</defs>
	<clipPath id="SVGID_132_">
		<use xlink:href="#SVGID_131_"  style="overflow:visible;"/>
	</clipPath>
</g>
<g>
	<defs>
		<polyline id="SVGID_133_" points="-497.4,446.4 693.2,446.4 693.2,-395.5 -497.4,-395.5 		"/>
	</defs>
	<clipPath id="SVGID_134_">
		<use xlink:href="#SVGID_133_"  style="overflow:visible;"/>
	</clipPath>
</g>
<g>
	<defs>
		<rect id="SVGID_135_" x="-399" y="-492.3" width="1190.6" height="841.9"/>
	</defs>
	<clipPath id="SVGID_136_">
		<use xlink:href="#SVGID_135_"  style="overflow:visible;"/>
	</clipPath>
</g>
<path class="st1" d="M129.6,13.4"/>
<g>
	<defs>
		<rect id="SVGID_137_" x="-399" y="-492.3" width="1190.6" height="841.9"/>
	</defs>
	<clipPath id="SVGID_138_">
		<use xlink:href="#SVGID_137_"  style="overflow:visible;"/>
	</clipPath>
	<path class="st2" d="M129.3,13.5"/>
</g>
<g>
	<defs>
		<rect id="SVGID_139_" x="-399" y="-492.3" width="1190.6" height="841.9"/>
	</defs>
	<clipPath id="SVGID_140_">
		<use xlink:href="#SVGID_139_"  style="overflow:visible;"/>
	</clipPath>
</g>
<g>
	<defs>
		<rect id="SVGID_141_" x="-399" y="-492.3" width="1190.6" height="841.9"/>
	</defs>
	<clipPath id="SVGID_142_">
		<use xlink:href="#SVGID_141_"  style="overflow:visible;"/>
	</clipPath>
</g>
<g>
	<defs>
		<rect id="SVGID_143_" x="-399" y="-492.3" width="1190.6" height="841.9"/>
	</defs>
	<clipPath id="SVGID_144_">
		<use xlink:href="#SVGID_143_"  style="overflow:visible;"/>
	</clipPath>
</g>
<g>
	<defs>
		<rect id="SVGID_145_" x="-399" y="-492.3" width="1190.6" height="841.9"/>
	</defs>
	<clipPath id="SVGID_146_">
		<use xlink:href="#SVGID_145_"  style="overflow:visible;"/>
	</clipPath>
</g>
<g>
	<defs>
		<rect id="SVGID_147_" x="-399" y="-492.3" width="1190.6" height="841.9"/>
	</defs>
	<clipPath id="SVGID_148_">
		<use xlink:href="#SVGID_147_"  style="overflow:visible;"/>
	</clipPath>
</g>
<g>
	<defs>
		<rect id="SVGID_149_" x="-399" y="-492.3" width="1190.6" height="841.9"/>
	</defs>
	<clipPath id="SVGID_150_">
		<use xlink:href="#SVGID_149_"  style="overflow:visible;"/>
	</clipPath>
</g>
<g>
	<defs>
		<rect id="SVGID_151_" x="-399" y="-492.3" width="1190.6" height="841.9"/>
	</defs>
	<clipPath id="SVGID_152_">
		<use xlink:href="#SVGID_151_"  style="overflow:visible;"/>
	</clipPath>
</g>
<g>
	<rect x="57.6" y="36.9" class="st3" width="111.8" height="165.2"/>
	<line class="st4" x1="170.8" y1="143.7" x2="170.8" y2="135.7"/>
	<rect x="168.8" y="29.1" class="st4" width="8.8" height="191.3"/>
	<line class="st4" x1="169.9" y1="200.4" x2="169.9" y2="195.8"/>
	<rect x="152.5" y="96.1" class="st4" width="23.8" height="4.5"/>
	<rect x="49.4" y="96.1" class="st4" width="68" height="4.5"/>
	<line class="st4" x1="56" y1="147.1" x2="56" y2="156.1"/>
	<rect x="49.2" y="151.6" class="st4" width="6.8" height="53.6"/>
	<rect x="147.7" y="29" class="st4" width="28.6" height="7.9"/>
	<rect x="109.9" y="29" class="st4" width="12" height="7.9"/>
	<rect x="50.5" y="36.3" class="st4" width="65.6" height="7.9"/>
	<rect x="113.7" y="34.9" class="st4" width="3.7" height="34.1"/>
	<rect x="113.7" y="87.8" class="st4" width="3.7" height="12.8"/>
	<rect x="48.9" y="36.3" class="st4" width="8.7" height="168.7"/>
	<rect x="155.7" y="202.1" class="st4" width="17.5" height="18"/>
	<rect x="125.4" y="202.1" class="st4" width="37.9" height="12"/>
	<rect x="48.9" y="202.1" class="st4" width="28.1" height="12"/>
	<rect x="123.7" y="211.5" class="st4" width="49.5" height="8.8"/>
	<rect x="48.9" y="211.2" class="st4" width="30.4" height="9.1"/>
	<rect x="73.5" y="202.5" class="st1" width="54.5" height="17.6"/>
	<rect x="70.7" y="209.9" class="st1" width="60.1" height="1.6"/>
	<path class="st1" d="M40.6,218.3"/>
	<line class="st5" x1="94.5" y1="202.1" x2="94.5" y2="99.1"/>
	<path class="st4" d="M143.9,66.1l0.1,1.1h2.2c-0.1,0.2-0.2,0.4-0.2,0.5l-1.2,3.4h1.3l1.5-4.4c0.1-0.4-0.1-0.7-0.5-0.7H143.9z
		 M142.9,69.9c-0.4,0-0.5,0.1-0.5,0.5v0.3c0,0.4,0.1,0.5,0.5,0.5h0.3c0.4,0,0.5-0.1,0.5-0.5v-0.3c0-0.4-0.1-0.5-0.5-0.5H142.9z
		 M142,69.2h-0.6v-2.1h-1l-0.2,0.8v1.3h-1c-0.1,0-0.2-0.1-0.1-0.2l1.1-2.9h-1.3l-1.3,3.2c-0.2,0.4,0.1,0.8,0.5,0.8h2v1.1h1.3v-1.1h0
		L142,70V69.2z"/>
	<path class="st4" d="M159.5,60.4H159c-0.3,0-0.4-0.1-0.4-0.5c0-0.3,0.1-0.3,0.4-0.3h0.5V60.4z M158.1,60.8c-0.2,0-0.6,0.1-0.7,0.4
		l-0.3,1.1h1.4l0.2-1c0-0.2,0.1-0.2,0.3-0.2h0.5v1.2h1.3v-3.7c-0.5-0.1-0.8-0.1-1.8-0.1c-1.3,0-1.7,0.3-1.7,1.2
		C157.3,60.3,157.5,60.7,158.1,60.8L158.1,60.8z M154.2,61.1c0-0.2,0.1-0.3,0.3-0.3h0.8v0.5c-0.2,0.2-0.5,0.2-0.7,0.2
		c-0.2,0-0.4-0.1-0.4-0.3V61.1z M153.3,59.7c0.6,0,1.2-0.1,1.6-0.1c0.4,0,0.5,0.1,0.5,0.4v0.1h-1.2c-0.7,0-1.2,0.4-1.2,0.9v0.4
		c0,0.7,0.5,1,1.2,1c0.6,0,1-0.3,1.3-0.6l0.1,0.5h1.1v-2.3c0-1.1-0.5-1.4-1.5-1.4c-0.5,0-1.4,0.1-2,0.2L153.3,59.7z M151.2,60.5
		c0.8-0.1,0.8-0.2,1.3-1.7h-1.3c-0.4,1.2-0.4,1.3-0.8,1.3h-0.2c0-0.2,0-0.3,0-0.5v-0.9h-1.2v0.9c0,0.1,0,0.3,0,0.5h-0.2
		c-0.4,0-0.4-0.1-0.8-1.3h-1.3c0.5,1.5,0.4,1.6,1.3,1.7v0c-0.9,0.1-0.9,0.2-1.4,1.9h1.3c0.5-1.4,0.5-1.5,0.8-1.5h0.3
		c0,0.1,0,0.2,0,0.3v1.2h1.2v-1.2c0-0.1,0-0.2,0-0.3h0.2h0.1c0.3,0,0.4,0.1,0.8,1.5h1.3C152.1,60.7,152.1,60.6,151.2,60.5
		L151.2,60.5z M144.4,59.6c0.4,0,0.6,0.2,0.6,1c0,0.8-0.1,1-0.6,1c-0.5,0-0.6-0.2-0.6-1C143.9,59.8,144,59.6,144.4,59.6 M144.4,58.6
		c-1.4,0-2,0.5-2,1.9c0,1.4,0.5,1.9,2,1.9c1.4,0,2-0.5,2-1.9C146.4,59.2,145.9,58.6,144.4,58.6 M141,62.4h1.3l-1.1-1.9l1-1.8h-1.3
		l-0.7,1.4l-0.7-1.4h-1.3l1,1.8l-1.1,1.9h1.3l0.8-1.5L141,62.4z M137.6,62.4v-3.6h-1.2l-1.2,1.7c-0.1,0.2-0.2,0.3-0.3,0.5h0
		c0-0.2,0.1-0.4,0.1-0.6v-1.7h-1.2v3.6h1.2l1.1-1.7c0.1-0.2,0.2-0.4,0.3-0.6h0c0,0.2-0.1,0.4-0.1,0.6v1.6H137.6z M130.7,59.9
		c0.2-0.1,0.4-0.2,0.7-0.2c0.3,0,0.5,0.1,0.5,1c0,0.8-0.1,1-0.5,1c-0.3,0-0.4-0.1-0.6-0.1V59.9z M130.5,58.7h-1.1v5h1.3v-0.8
		c0-0.3,0-0.5,0-0.8c0.3,0.2,0.7,0.3,1.2,0.3c0.9,0,1.4-0.4,1.4-1.9c0-1.2-0.4-1.9-1.3-1.9c-0.6,0-1.1,0.3-1.4,0.6L130.5,58.7z
		 M128.5,57.3h-4.2v5h1.4v-4.1h1.5v4.1h1.4V57.3z"/>
	<path class="st4" d="M96.5,74.6c0.4,0,0.9,0,1.4,0c0.5,0,0.7,0.1,0.7,0.5c0,0.3,0,0.5-0.6,0.5h-1v0.9l1,0c0.5,0,0.7,0.2,0.7,0.6
		c0,0.5-0.2,0.6-0.8,0.6c-0.4,0-0.8,0-1.4,0l0,1c0.6,0.1,1.2,0.1,1.8,0.1c1.3,0,1.8-0.4,1.8-1.5c0-0.8-0.2-1.2-0.9-1.3v0
		c0.7-0.1,0.8-0.5,0.8-1.3c0-0.9-0.5-1.2-1.7-1.2c-0.6,0-1.1,0-1.7,0.1L96.5,74.6z M95,77.4c-0.4,0-0.5,0.1-0.5,0.5v0.3
		c0,0.4,0.1,0.5,0.5,0.5h0.3c0.4,0,0.5-0.1,0.5-0.5v-0.3c0-0.4-0.1-0.5-0.5-0.5H95z M94.1,76.7h-0.6v-2.1h-1l-0.2,0.8v1.3h-1
		c-0.1,0-0.2-0.1-0.1-0.2l1.1-2.9h-1.3l-1.3,3.2c-0.2,0.4,0.1,0.8,0.5,0.8h2v1.1h1.3v-1.1h0l0.6-0.1V76.7z"/>
	<path class="st4" d="M101.3,66.3h-1.4l-0.5,2.2c0,0.2-0.1,0.4-0.2,0.6h-0.1c0-0.2-0.1-0.4-0.1-0.6l-0.5-2.2H97l1.1,3.3
		c0.1,0.2,0.2,0.3,0.4,0.3h0.2c-0.1,0.2-0.2,0.4-0.4,0.4c-0.2,0.1-0.6,0.2-1,0.2l-0.1,0.9c0.5,0.1,1.1,0.1,1.5-0.1
		c0.6-0.2,1-0.6,1.2-1.4L101.3,66.3z M94.1,70.5l2.9-5.6h-1.1L93,70.5H94.1z M92.6,68.8c-0.5,0.1-0.9,0.1-1.6,0.1
		c-0.6,0-0.8-0.3-0.8-1.4c0-1.1,0.2-1.4,0.8-1.4c0.7,0,1,0,1.5,0l0.1-1c-0.5-0.1-0.8-0.2-1.6-0.2c-1.6,0-2.2,0.7-2.2,2.6
		c0,1.9,0.6,2.6,2.2,2.6c0.8,0,1.2-0.1,1.7-0.2L92.6,68.8z"/>
	<path class="st4" d="M138,188.7v-6.5h-1.8l-1.6,0.6l0.2,1.1l1.5-0.3c-0.1,0.3-0.1,0.5-0.1,0.8v4.3H138z M133.5,187.1
		c-0.5,0-0.6,0.1-0.6,0.6v0.4c0,0.5,0.1,0.6,0.6,0.6h0.4c0.5,0,0.6-0.1,0.6-0.6v-0.4c0-0.5-0.1-0.6-0.6-0.6H133.5z M131.8,188.7
		v-6.5H130l-1.6,0.6l0.2,1.1l1.5-0.3c-0.1,0.3-0.1,0.5-0.1,0.8v4.3H131.8z M127.5,188.7v-6.5h-1.8l-1.6,0.6l0.2,1.1l1.5-0.3
		c-0.1,0.3-0.1,0.5-0.1,0.8v4.3H127.5z"/>
	<path class="st4" d="M148,175.8c0-0.2,0.1-0.4,0.4-0.4h1v0.6c-0.3,0.2-0.6,0.3-0.9,0.3c-0.3,0-0.5-0.1-0.5-0.4V175.8z M146.7,174
		c0.8,0,1.5-0.1,2-0.1c0.5,0,0.6,0.1,0.6,0.5v0.1h-1.6c-0.9,0-1.5,0.5-1.5,1.2v0.5c0,0.9,0.7,1.3,1.6,1.3c0.8,0,1.3-0.4,1.7-0.8
		l0.2,0.7h1.4v-3c0-1.4-0.7-1.8-2-1.8c-0.7,0-1.9,0.1-2.6,0.2L146.7,174z M146,174.1v-1.3h-4.7v1.3h1.5v3.4h1.7v-3.4H146z
		 M137.6,175.8c0-0.2,0.1-0.4,0.4-0.4h1v0.6c-0.3,0.2-0.6,0.3-0.9,0.3c-0.3,0-0.5-0.1-0.5-0.4V175.8z M136.3,174
		c0.8,0,1.5-0.1,2-0.1c0.5,0,0.6,0.1,0.6,0.5v0.1h-1.6c-0.9,0-1.5,0.5-1.5,1.2v0.5c0,0.9,0.7,1.3,1.6,1.3c0.8,0,1.3-0.4,1.7-0.8
		l0.2,0.7h1.4v-3c0-1.4-0.7-1.8-2-1.8c-0.7,0-1.9,0.1-2.6,0.2L136.3,174z M135.2,172.8h-1.7v1.6h-1.4v-1.6h-1.7v4.7h1.7v-1.9h1.4
		v1.9h1.7V172.8z M127.3,172.8c-0.4,0-0.6,0.2-0.6,0.5l-0.4,1.7c0,0.2-0.1,0.5-0.1,0.7H126c0-0.2,0-0.5-0.1-0.7l-0.4-1.7
		c-0.1-0.3-0.3-0.5-0.6-0.5h-1.4c-0.4,0-0.6,0.2-0.6,0.6l-0.1,4.1h1.5l0.1-3.4h0.1l0.6,2.3c0.1,0.3,0.3,0.5,0.7,0.5h0.8
		c0.4,0,0.6-0.2,0.6-0.5l0.6-2.3h0.1l0.1,3.4h1.5l-0.1-4.1c0-0.4-0.2-0.6-0.6-0.6H127.3z M119.5,173.8c0.6,0,0.7,0.2,0.7,1.3
		c0,1-0.2,1.3-0.7,1.3c-0.6,0-0.7-0.2-0.7-1.3C118.7,174.1,118.9,173.8,119.5,173.8 M119.5,172.6c-1.8,0-2.5,0.7-2.5,2.5
		c0,1.8,0.7,2.4,2.5,2.4c1.8,0,2.5-0.6,2.5-2.4C122,173.3,121.3,172.6,119.5,172.6 M114.8,175c1.1-0.2,1-0.3,1.6-2.2h-1.7
		c-0.4,1.6-0.4,1.7-1.1,1.7h-0.2c0-0.2,0.1-0.4,0.1-0.6v-1.1h-1.7v4.7h1.7V176c0-0.1,0-0.2-0.1-0.4h0.4c0.5,0,0.5,0.1,1,1.9h1.8
		C115.9,175.2,115.9,175.2,114.8,175L114.8,175z"/>
	<path class="st4" d="M145,163.6h-0.7c-0.4,0-0.5-0.1-0.5-0.6c0-0.3,0.1-0.4,0.5-0.4h0.7V163.6z M143.1,164.2
		c-0.3,0-0.8,0.1-0.9,0.5l-0.4,1.5h1.7l0.3-1.3c0-0.2,0.1-0.3,0.4-0.3h0.6v1.5h1.7v-4.7c-0.6-0.1-1.1-0.1-2.4-0.1
		c-1.7,0-2.1,0.3-2.1,1.5C142.1,163.4,142.3,164,143.1,164.2L143.1,164.2z M138.1,164.5c0-0.2,0.1-0.4,0.4-0.4h1v0.6
		c-0.3,0.2-0.6,0.3-0.9,0.3c-0.3,0-0.5-0.1-0.5-0.4V164.5z M136.9,162.7c0.8,0,1.5-0.1,2-0.1c0.5,0,0.6,0.1,0.6,0.5v0.1H138
		c-0.9,0-1.5,0.5-1.5,1.2v0.5c0,0.9,0.7,1.3,1.6,1.3c0.8,0,1.3-0.4,1.7-0.8l0.2,0.7h1.4v-3c0-1.4-0.7-1.8-2-1.8
		c-0.7,0-1.9,0.1-2.6,0.2L136.9,162.7z M135.7,161.5h-2.8c-0.8,0-1.2,0.4-1.3,1.2c-0.1,0.9-0.1,1.5-0.2,1.8
		c-0.1,0.4-0.4,0.4-0.8,0.4l0.2,1.3c1,0.2,2-0.1,2.1-1.2c0.1-0.5,0.2-1.2,0.3-2c0-0.3,0.2-0.4,0.4-0.4h0.4v3.5h1.7V161.5z
		 M130,166.2v-4.7h-1.5l-1.5,2.2c-0.1,0.2-0.3,0.4-0.4,0.7h0c0-0.3,0.1-0.5,0.1-0.7v-2.2h-1.5v4.7h1.5l1.5-2.1
		c0.1-0.2,0.3-0.5,0.4-0.8h0c0,0.3-0.1,0.6-0.1,0.8v2.1H130z M122.4,162.7c1.3-0.2,1.3-0.8,2-3.1h-1.8c-0.6,1.9-0.7,2.5-1.3,2.5
		h-0.3c0-0.3,0.1-0.5,0.1-0.8v-1.7h-1.7v1.7c0,0.3,0,0.5,0.1,0.8h-0.3c-0.6,0-0.7-0.6-1.3-2.5H116c0.7,2.3,0.7,2.9,2,3.1v0.1
		c-1.3,0.2-1.4,0.7-2.2,3.4h1.8c0.7-2.4,0.8-2.8,1.4-2.8h0.3c0,0.2-0.1,0.4-0.1,0.6v2.2h1.7V164c0-0.2,0-0.4-0.1-0.6h0.3
		c0.7,0,0.7,0.4,1.4,2.8h1.9C123.8,163.5,123.7,163,122.4,162.7L122.4,162.7z"/>
	<path class="st4" d="M145.3,152.4c-1.7,0-1.9-0.5-1.9-3.8c0.7-0.4,1.2-0.6,1.9-0.6c1.4,0,1.7,0.4,1.7,2
		C147,151.7,147,152.4,145.3,152.4 M149.8,140.4c-1.5-0.4-3.1-0.4-3.8-0.4c-4.3,0-6.5,1.1-6.5,7.8c0,6,1.3,7.5,5.8,7.5
		c4.5,0,5.5-1.7,5.5-5.4c0-3.3-1-4.6-4.3-4.6c-1.3,0-2.2,0.2-3,0.9c0.1-2.8,0.6-3.3,2.6-3.3c1.7,0,2.4,0,3.7,0L149.8,140.4z
		 M135.5,151.4c-1,0-1.4,0.3-1.4,1.4v0.9c0,1,0.3,1.4,1.4,1.4h0.9c1,0,1.4-0.3,1.4-1.4v-0.9c0-1-0.3-1.4-1.4-1.4H135.5z
		 M131.9,143.2l0.2-3h-9.3l-0.4,6.7c0,0.7,0.5,1.2,1.2,1.3l2.3,0.3c2,0.2,2.7,0.5,2.7,1.8c-0.1,1.2-0.5,1.7-2.5,1.7
		c-1.1,0-2.4-0.1-3.8-0.2l-0.4,3c1.9,0.3,3.8,0.4,5.3,0.4c4.2,0,5.4-2.2,5.4-4.8c0-2.4-0.9-4.5-4.3-4.9l-2.5-0.3l0.2-2.1H131.9z
		 M109.6,143.4c2-0.1,3.1-0.1,4.6-0.1c1.1,0,1.6,0.1,1.6,0.7c0,0.8-1,2.2-2.6,3.9l-3.3,3.4c-0.4,0.5-0.6,1-0.6,1.6v2.1h11.1v-3.5
		h-4.3c-0.7,0-1.4,0-2.1,0.2l3.7-3.6c2-2,2.3-3,2.3-4.6c0-2.9-2.1-3.6-5.2-3.6c-1.6,0-3.1,0.1-5.3,0.5L109.6,143.4z"/>
	
		<ellipse transform="matrix(0.7071 -0.7071 0.7071 0.7071 -48.8269 129.077)" class="st6" cx="131.4" cy="123.5" rx="13.2" ry="13.2"/>
	<path class="st4" d="M139.3,126.6c-1,0.1-2,0.1-3.5,0.1c-1.3,0-1.7-0.7-1.7-3.2c0-2.5,0.4-3.2,1.7-3.2c1.5,0,2.2,0,3.3,0l0.2-2.2
		c-1.1-0.3-1.9-0.4-3.5-0.4c-3.6,0-4.9,1.5-4.9,5.8c0,4.3,1.3,5.8,4.9,5.8c1.7,0,2.7-0.1,3.8-0.5L139.3,126.6z M128.9,129.2v-11.2
		h-3L123,119l0.4,1.9l2.6-0.6c-0.1,0.5-0.1,0.9-0.1,1.3v7.4H128.9z"/>
	<path class="st4" d="M82.2,165.7l0.1-1.3h-4.1l-0.2,2.9c0,0.3,0.2,0.5,0.5,0.6l1,0.1c0.9,0.1,1.2,0.2,1.2,0.8
		c0,0.5-0.2,0.7-1.1,0.7c-0.5,0-1.1,0-1.7-0.1l-0.2,1.3c0.8,0.1,1.7,0.2,2.3,0.2c1.8,0,2.4-0.9,2.4-2.1c0-1-0.4-2-1.9-2.1l-1.1-0.1
		l0.1-0.9H82.2z M76.1,169.3c-0.5,0-0.6,0.1-0.6,0.6v0.4c0,0.5,0.1,0.6,0.6,0.6h0.4c0.5,0,0.6-0.1,0.6-0.6v-0.4
		c0-0.5-0.1-0.6-0.6-0.6H76.1z M74.5,165.7l0.1-1.3h-4.1l-0.2,2.9c0,0.3,0.2,0.5,0.5,0.6l1,0.1c0.9,0.1,1.2,0.2,1.2,0.8
		c0,0.5-0.2,0.7-1.1,0.7c-0.5,0-1.1,0-1.7-0.1l-0.2,1.3c0.8,0.1,1.7,0.2,2.3,0.2c1.8,0,2.4-0.9,2.4-2.1c0-1-0.4-2-1.9-2.1l-1.1-0.1
		l0.1-0.9H74.5z"/>
	<path class="st4" d="M85.3,158c0-0.2,0.1-0.4,0.4-0.4h1v0.6c-0.3,0.2-0.6,0.3-0.9,0.3c-0.3,0-0.5-0.1-0.5-0.4V158z M84.1,156.1
		c0.8,0,1.5-0.1,2-0.1c0.5,0,0.6,0.1,0.6,0.5v0.1h-1.6c-0.9,0-1.5,0.5-1.5,1.2v0.5c0,0.9,0.7,1.3,1.6,1.3c0.8,0,1.3-0.4,1.7-0.8
		l0.2,0.7h1.4v-3c0-1.4-0.7-1.8-2-1.8c-0.7,0-1.9,0.1-2.6,0.2L84.1,156.1z M82.9,154.9h-1.6v3.5h-1.1v-3.5h-1.5v3.5h-1.1v-3.5h-1.6
		v4.7h7V154.9z M74.8,159.6v-4.7h-1.5l-1.5,2.2c-0.1,0.2-0.3,0.4-0.4,0.7h0c0-0.3,0.1-0.5,0.1-0.7v-2.2H70v4.7h1.5l1.5-2.1
		c0.1-0.2,0.3-0.5,0.4-0.8h0c0,0.3-0.1,0.6-0.1,0.8v2.1H74.8z M69,154.9h-1.7v1.6h-1.4v-1.6h-1.7v4.7h1.7v-1.9h1.4v1.9H69V154.9z"/>
	<path class="st4" d="M91.9,145.4h-2.8v1h2.8V145.4z M86.5,145.7h-0.7c-0.4,0-0.5-0.1-0.5-0.6c0-0.3,0.1-0.4,0.5-0.4h0.7V145.7z
		 M84.6,146.3c-0.3,0-0.8,0.1-0.9,0.5l-0.4,1.5h1.7l0.3-1.3c0-0.2,0.1-0.3,0.4-0.3h0.6v1.5h1.7v-4.7c-0.6-0.1-1.1-0.1-2.4-0.1
		c-1.7,0-2.1,0.3-2.1,1.5C83.6,145.6,83.8,146.1,84.6,146.3L84.6,146.3z M82.7,143.6H81v1.6h-1.4v-1.6h-1.7v4.7h1.7v-1.9H81v1.9h1.7
		V143.6z M75.6,148.3h1.7l-1.4-2.4l1.3-2.3h-1.7l-0.9,1.7l-0.9-1.7H72l1.3,2.3l-1.4,2.4h1.7l1-1.9L75.6,148.3z M71.8,143.6H70
		l-0.7,2.8c0,0.2-0.1,0.5-0.2,0.8H69c0-0.3-0.1-0.5-0.1-0.8l-0.7-2.8h-1.8l1.4,4.3c0.1,0.2,0.3,0.4,0.5,0.4h0.3
		c-0.1,0.2-0.3,0.5-0.5,0.6c-0.3,0.2-0.7,0.2-1.3,0.2l-0.1,1.1c0.7,0.1,1.4,0.1,1.9-0.1c0.7-0.3,1.3-0.7,1.6-1.8L71.8,143.6z
		 M64.2,144.9c1.3-0.2,1.3-0.8,2-3.1h-1.8c-0.5,1.9-0.6,2.5-1.5,2.5h-0.3c0-0.3,0.1-0.5,0.1-0.8v-1.7h-1.8v6.5h1.8v-2.2
		c0-0.2,0-0.4-0.1-0.6h0.3c0.9,0,1,0.4,1.6,2.8h1.8C65.6,145.6,65.5,145.1,64.2,144.9L64.2,144.9z"/>
	<polygon class="st1" points="122.7,13.5 123.2,12.6 149.7,32.2 149.1,33 	"/>
	<path class="st7" d="M123,12.7c-0.2,0.1-4.3,7.8-1.2,16.5"/>
	<rect x="111.8" y="80.9" transform="matrix(0.7608 -0.649 0.649 0.7608 -23.2432 99.7069)" class="st1" width="23.6" height="1"/>
	<path class="st7" d="M133.2,74.2c0,0-2.3-3-7.5-4.8c-4.7-1.7-8.6-0.7-8.6-0.7"/>
	<path class="st1" d="M50.5,29.3"/>
	<path class="st1" d="M115.6,29.3"/>
	<path class="st1" d="M75,29.3"/>
	<path class="st1" d="M115.6,31.4"/>
	<path class="st1" d="M75,31.4"/>
	<path class="st4" d="M58.1,116.5h15.9v-15.9H58.1V116.5z M57.7,100.2h16.6v16.6H57.7V100.2z"/>
	<path class="st8" d="M58.1,116.5h15.9v-15.9H58.1V116.5z M57.7,100.2h16.6v16.6H57.7V100.2z"/>
	<path class="st4" d="M72.5,103c0-0.4-0.3-0.7-0.7-0.7h-8.3c-0.4,0-0.7,0.3-0.7,0.7v11.1c0,0.4,0.3,0.7,0.7,0.7h8.3
		c0.4,0,0.7-0.3,0.7-0.7V103z M62.4,114.1V103c0-0.6,0.5-1.1,1.1-1.1h8.3c0.6,0,1.1,0.5,1.1,1.1v11.1c0,0.6-0.5,1.1-1.1,1.1h-8.3
		C62.9,115.1,62.4,114.7,62.4,114.1"/>
	<path class="st8" d="M72.5,103c0-0.4-0.3-0.7-0.7-0.7h-8.3c-0.4,0-0.7,0.3-0.7,0.7v11.1c0,0.4,0.3,0.7,0.7,0.7h8.3
		c0.4,0,0.7-0.3,0.7-0.7V103z M62.4,114.1V103c0-0.6,0.5-1.1,1.1-1.1h8.3c0.6,0,1.1,0.5,1.1,1.1v11.1c0,0.6-0.5,1.1-1.1,1.1h-8.3
		C62.9,115.1,62.4,114.7,62.4,114.1z"/>
	<path class="st4" d="M64,113.6h7.3v-10.1H64V113.6z M63.6,103.1h8v10.8h-8V103.1z"/>
	<path class="st8" d="M64,113.6h7.3v-10.1H64V113.6z M63.6,103.1h8v10.8h-8V103.1z"/>
	<path class="st4" d="M69,108.5c0-0.5-0.4-0.9-0.9-0.9c-0.5,0-0.9,0.4-0.9,0.9c0,0.5,0.4,0.9,0.9,0.9C68.6,109.4,69,109,69,108.5
		 M66.8,108.5c0-0.7,0.6-1.3,1.3-1.3c0.7,0,1.3,0.6,1.3,1.3c0,0.7-0.6,1.3-1.3,1.3C67.4,109.8,66.8,109.2,66.8,108.5"/>
	<path class="st8" d="M69,108.5c0-0.5-0.4-0.9-0.9-0.9c-0.5,0-0.9,0.4-0.9,0.9c0,0.5,0.4,0.9,0.9,0.9C68.6,109.4,69,109,69,108.5z
		 M66.8,108.5c0-0.7,0.6-1.3,1.3-1.3c0.7,0,1.3,0.6,1.3,1.3c0,0.7-0.6,1.3-1.3,1.3C67.4,109.8,66.8,109.2,66.8,108.5z"/>
	<path class="st4" d="M85.8,56c2.8,0,5.1-2.3,5.1-5.1v-5.4c0-0.4-0.4-0.8-0.8-0.8H78.6c-0.4,0-0.8,0.3-0.8,0.8v5.4
		c0,2.8,2.3,5.1,5.1,5.1H85.8z M78.6,44.4h11.6c0.6,0,1.1,0.5,1.1,1.1v5.4c0,3-2.4,5.4-5.4,5.4h-2.9c-3,0-5.4-2.4-5.4-5.4v-5.4
		C77.5,44.8,78,44.4,78.6,44.4"/>
	<path class="st9" d="M85.8,56c2.8,0,5.1-2.3,5.1-5.1v-5.4c0-0.4-0.4-0.8-0.8-0.8H78.6c-0.4,0-0.8,0.3-0.8,0.8v5.4
		c0,2.8,2.3,5.1,5.1,5.1H85.8z M78.6,44.4h11.6c0.6,0,1.1,0.5,1.1,1.1v5.4c0,3-2.4,5.4-5.4,5.4h-2.9c-3,0-5.4-2.4-5.4-5.4v-5.4
		C77.5,44.8,78,44.4,78.6,44.4z"/>
	<path class="st4" d="M85.8,54.7c2.1,0,3.8-1.7,3.8-3.8v-3.2c0-0.4-0.3-0.7-0.7-0.7h-9.2c-0.4,0-0.7,0.3-0.7,0.7v3.2
		c0,2.1,1.7,3.8,3.8,3.8H85.8z M79.7,46.7H89c0.5,0,1,0.4,1,1v3.2c0,2.3-1.9,4.1-4.1,4.1h-2.9c-2.3,0-4.1-1.9-4.1-4.1v-3.2
		C78.8,47.2,79.2,46.7,79.7,46.7"/>
	<path class="st9" d="M85.8,54.7c2.1,0,3.8-1.7,3.8-3.8v-3.2c0-0.4-0.3-0.7-0.7-0.7h-9.2c-0.4,0-0.7,0.3-0.7,0.7v3.2
		c0,2.1,1.7,3.8,3.8,3.8H85.8z M79.7,46.7H89c0.5,0,1,0.4,1,1v3.2c0,2.3-1.9,4.1-4.1,4.1h-2.9c-2.3,0-4.1-1.9-4.1-4.1v-3.2
		C78.8,47.2,79.2,46.7,79.7,46.7z"/>
	<path class="st4" d="M84.4,52c0.3,0,0.6-0.3,0.6-0.6s-0.3-0.6-0.6-0.6c-0.4,0-0.6,0.3-0.6,0.6S84,52,84.4,52 M84.4,50.4
		c0.5,0,0.9,0.4,0.9,0.9s-0.4,0.9-0.9,0.9c-0.5,0-0.9-0.4-0.9-0.9S83.8,50.4,84.4,50.4"/>
	<path class="st9" d="M84.4,52c0.3,0,0.6-0.3,0.6-0.6s-0.3-0.6-0.6-0.6c-0.4,0-0.6,0.3-0.6,0.6S84,52,84.4,52z M84.4,50.4
		c0.5,0,0.9,0.4,0.9,0.9s-0.4,0.9-0.9,0.9c-0.5,0-0.9-0.4-0.9-0.9S83.8,50.4,84.4,50.4z"/>
	<rect x="77.9" y="84" class="st10" width="15.1" height="14.1"/>
	<path class="st10" d="M64.9,86c-3,0-5.4-2.4-5.4-5.4V52c0-3,2.4-5.4,5.4-5.4h5.5c3,0,5.4,2.4,5.4,5.4v28.6c0,3-2.4,5.4-5.4,5.4
		H64.9z"/>
	<path class="st10" d="M66.4,83.2c-3,0-5.4-2.4-5.4-5.4V54.8c0-3,2.4-5.4,5.4-5.4h2.5c3,0,5.4,2.4,5.4,5.4v23.1c0,3-2.4,5.4-5.4,5.4
		H66.4z"/>
	<path class="st10" d="M65.2,79.9c-1.5,0-2.7-1.2-2.7-2.7V53.6c0-1.5,1.2-2.7,2.7-2.7h4.9c1.5,0,2.7,1.2,2.7,2.7v23.7
		c0,1.5-1.2,2.7-2.7,2.7H65.2z"/>
	<path class="st10" d="M67.7,53.9c0.4,0,0.7,0.3,0.7,0.7c0,0.4-0.3,0.7-0.7,0.7c-0.4,0-0.7-0.3-0.7-0.7C67,54.2,67.3,53.9,67.7,53.9
		z"/>
	<rect x="58" y="44" class="st1" width="19.4" height="44.6"/>
	<path class="st4" d="M100.5,62c-2.6,0-4.7-2.1-4.7-4.8v-6.9c0-0.5,0.4-0.8,0.8-0.8h7.8c0.4,0,0.8,0.4,0.8,0.8v6.9
		C105.2,59.8,103.1,62,100.5,62 M104.4,49.2h-7.8c-0.6,0-1.1,0.5-1.1,1.1v6.9c0,2.8,2.3,5.1,5,5.1c2.8,0,5-2.3,5-5.1v-6.9
		C105.5,49.7,105,49.2,104.4,49.2"/>
	<path class="st11" d="M100.5,62c-2.6,0-4.7-2.1-4.7-4.8v-6.9c0-0.5,0.4-0.8,0.8-0.8h7.8c0.4,0,0.8,0.4,0.8,0.8v6.9
		C105.2,59.8,103.1,62,100.5,62z M104.4,49.2h-7.8c-0.6,0-1.1,0.5-1.1,1.1v6.9c0,2.8,2.3,5.1,5,5.1c2.8,0,5-2.3,5-5.1v-6.9
		C105.5,49.7,105,49.2,104.4,49.2z"/>
	<path class="st11" d="M97.1,51.8h6.8c0,0,0.1,0,0.1,0.1v5.2c0,1.9-1.6,3.5-3.5,3.5c-1.9,0-3.5-1.6-3.5-3.5L97.1,51.8
		C97,51.8,97.1,51.8,97.1,51.8z"/>
	<path class="st4" d="M97.2,52h6.6v5.1c0,1.8-1.5,3.3-3.3,3.3c-1.8,0-3.3-1.5-3.3-3.3V52z M103.9,51.6h-6.8c-0.1,0-0.2,0.1-0.2,0.2
		v5.2c0,2,1.6,3.7,3.6,3.7c2,0,3.6-1.6,3.6-3.7v-5.2C104.1,51.8,104,51.6,103.9,51.6"/>
	<path class="st11" d="M97.2,52h6.6v5.1c0,1.8-1.5,3.3-3.3,3.3c-1.8,0-3.3-1.5-3.3-3.3V52z M103.9,51.6h-6.8c-0.1,0-0.2,0.1-0.2,0.2
		v5.2c0,2,1.6,3.7,3.6,3.7c2,0,3.6-1.6,3.6-3.7v-5.2C104.1,51.8,104,51.6,103.9,51.6z"/>
	<path class="st4" d="M100.5,57.1c-0.5,0-0.9-0.4-0.9-0.9c0-0.5,0.4-0.9,0.9-0.9c0.5,0,0.9,0.4,0.9,0.9
		C101.4,56.7,101,57.1,100.5,57.1 M100.5,55c-0.7,0-1.2,0.5-1.2,1.2c0,0.7,0.5,1.2,1.2,1.2c0.7,0,1.2-0.5,1.2-1.2
		C101.7,55.5,101.1,55,100.5,55"/>
	<path class="st11" d="M100.5,57.1c-0.5,0-0.9-0.4-0.9-0.9c0-0.5,0.4-0.9,0.9-0.9c0.5,0,0.9,0.4,0.9,0.9
		C101.4,56.7,101,57.1,100.5,57.1z M100.5,55c-0.7,0-1.2,0.5-1.2,1.2c0,0.7,0.5,1.2,1.2,1.2c0.7,0,1.2-0.5,1.2-1.2
		C101.7,55.5,101.1,55,100.5,55z"/>
	<polygon class="st4" points="97.9,52.5 97.6,52.7 99.2,54.8 99.4,54.6 	"/>
	<polygon class="st11" points="97.9,52.5 97.6,52.7 99.2,54.8 99.4,54.6 	"/>
	<polygon class="st4" points="103.1,52.5 101.5,54.6 101.7,54.8 103.3,52.7 	"/>
	<polygon class="st11" points="103.1,52.5 101.5,54.6 101.7,54.8 103.3,52.7 	"/>
	<path class="st4" d="M97.2,49.1c-0.7,0-1.3-0.6-1.3-1.3V46c0-0.7,0.6-1.3,1.3-1.3h6.5c0.7,0,1.3,0.6,1.3,1.3v1.8
		c0,0.7-0.6,1.3-1.3,1.3H97.2z M103.7,44.4h-6.5c-0.9,0-1.6,0.7-1.6,1.6v1.8c0,0.9,0.7,1.6,1.6,1.6h6.5c0.9,0,1.6-0.7,1.6-1.6V46
		C105.4,45.1,104.6,44.4,103.7,44.4"/>
	<path class="st11" d="M97.2,49.1c-0.7,0-1.3-0.6-1.3-1.3V46c0-0.7,0.6-1.3,1.3-1.3h6.5c0.7,0,1.3,0.6,1.3,1.3v1.8
		c0,0.7-0.6,1.3-1.3,1.3H97.2z M103.7,44.4h-6.5c-0.9,0-1.6,0.7-1.6,1.6v1.8c0,0.9,0.7,1.6,1.6,1.6h6.5c0.9,0,1.6-0.7,1.6-1.6V46
		C105.4,45.1,104.6,44.4,103.7,44.4z"/>
	<path class="st4" d="M100.5,47.4c-0.3,0-0.5-0.2-0.5-0.5s0.2-0.5,0.5-0.5c0.3,0,0.5,0.2,0.5,0.5S100.8,47.4,100.5,47.4 M100.5,46.1
		c-0.4,0-0.8,0.4-0.8,0.8s0.4,0.8,0.8,0.8c0.4,0,0.8-0.4,0.8-0.8S100.9,46.1,100.5,46.1"/>
	<path class="st11" d="M100.5,47.4c-0.3,0-0.5-0.2-0.5-0.5s0.2-0.5,0.5-0.5c0.3,0,0.5,0.2,0.5,0.5S100.8,47.4,100.5,47.4z
		 M100.5,46.1c-0.4,0-0.8,0.4-0.8,0.8s0.4,0.8,0.8,0.8c0.4,0,0.8-0.4,0.8-0.8S100.9,46.1,100.5,46.1z"/>
</g>
</svg>
