<svg xmlns="http://www.w3.org/2000/svg" xmlns:xlink="http://www.w3.org/1999/xlink" xml:space="preserve" id="Слой_1" x="0" y="0" style="enable-background:new 0 0 217 208" version="1.1" viewBox="0 0 217 208"><style>.st0{fill:#fff5a4}.st1,.st3{fill:none;stroke:#39373a;stroke-width:.6}.st3{stroke-width:.4}.st7{fill:#39373a}.st8{fill:none;stroke:#39373a;stroke-width:.212}.st11,.st13,.st15{clip-path:url(#SVGID_10_);fill:#39373a}.st13,.st15{fill:none;stroke:#39373a;stroke-width:.206}.st15{clip-path:url(#SVGID_12_);stroke-width:.525}.st17{fill:#39373a}.st17,.st18{clip-path:url(#SVGID_14_)}.st18,.st19{fill:none;stroke:#39373a;stroke-width:.25}.st20,.st21{clip-path:url(#SVGID_16_);fill:#39373a}.st21{fill:none;stroke:#39373a;stroke-width:.25}.st22{clip-path:url(#SVGID_18_);fill:#39373a}</style><switch><g><path d="M25.58 71.8h173.49v100.21H25.58z" class="st0"/><path d="M25.58 30.84h85.11v161.73H25.58z" class="st0"/><path d="m110.612 158.918 11.187-18.803.8.475-11.188 18.804z" class="st1"/><defs><path id="SVGID_1_" d="M21.4 18.32h178.75v174.25H21.4z"/></defs><clipPath id="SVGID_2_"><use xlink:href="#SVGID_1_" style="overflow:visible"/></clipPath><path d="M121.68 140.03s-1.5-1.11-4.99-1.64c-3.49-.54-5.36-.37-5.36-.37" style="clip-path:url(#SVGID_2_);fill:none;stroke:#39373a;stroke-width:.4"/><path d="m89.447 124.12.476-.8 18.804 11.187-.476.8z" class="st1"/><path d="M89.35 124.24s-1.11 1.5-1.64 4.99c-.54 3.49-.37 5.36-.37 5.36" class="st3"/><path d="m85.885 177.689.475-.8 23.419 13.933-.476.8z" class="st1"/><path d="M85.78 177.81s-1.11 1.5-1.64 4.99c-.54 3.49-.37 5.36-.37 5.36" class="st3"/><path d="M21.4 18.32h178.75v174.25H21.4z" style="fill:none"/><path d="m70.618 133.52.8-.476 9.786 16.45-.8.475z" class="st1"/><defs><path id="SVGID_3_" d="M21.4 18.32h178.75v174.25H21.4z"/></defs><clipPath id="SVGID_4_"><use xlink:href="#SVGID_3_" style="overflow:visible"/></clipPath><path d="M80.3 150.07s-1.5 1.11-4.99 1.64c-3.49.54-5.36.37-5.36.37" style="clip-path:url(#SVGID_4_);fill:none;stroke:#39373a;stroke-width:.4"/><path d="M142.53 65.72h45.25v2.08h-45.25zm0 2.3h45.25v3.48h-45.25zm-21.402-.14.476-.8 18.804 11.188-.476.799z" class="st1"/><defs><path id="SVGID_5_" d="M21.4 18.32h178.75v174.25H21.4z"/></defs><clipPath id="SVGID_6_"><use xlink:href="#SVGID_5_" style="overflow:visible"/></clipPath><path d="M140.51 78.16s1.11-1.5 1.64-4.99c.54-3.49.37-5.36.37-5.36" style="clip-path:url(#SVGID_6_);fill:none;stroke:#39373a;stroke-width:.4"/><path d="M27.68 119.08h13.81v-13.81H27.68v13.81zm-.31-14.11h14.42v14.42H27.37v-14.42z" class="st7"/><path d="M27.68 119.08h13.81v-13.81H27.68v13.81zm-.31-14.11h14.42v14.42H27.37v-14.42z" class="st8"/><defs><path id="SVGID_7_" d="M21.4 18.32h178.75v174.25H21.4z"/></defs><clipPath id="SVGID_8_"><use xlink:href="#SVGID_7_" style="overflow:visible"/></clipPath><path d="M40.23 107.34c0-.34-.28-.62-.62-.62h-7.26c-.34 0-.62.28-.62.62v9.67c0 .34.28.62.62.62h7.26c.34 0 .62-.28.62-.62v-9.67zm-8.8 9.67v-9.67c0-.51.41-.92.92-.92h7.26c.51 0 .92.41.92.92v9.67c0 .51-.41.92-.92.92h-7.26a.911.911 0 0 1-.92-.92" style="clip-path:url(#SVGID_8_);fill:#39373a"/><path d="M40.23 107.34c0-.34-.28-.62-.62-.62h-7.26c-.34 0-.62.28-.62.62v9.67c0 .34.28.62.62.62h7.26c.34 0 .62-.28.62-.62v-9.67zm-8.8 9.67v-9.67c0-.51.41-.92.92-.92h7.26c.51 0 .92.41.92.92v9.67c0 .51-.41.92-.92.92h-7.26a.911.911 0 0 1-.92-.92z" style="clip-path:url(#SVGID_8_);fill:none;stroke:#39373a;stroke-width:.212"/><path d="M32.81 116.56h6.35v-8.76h-6.35v8.76zm-.31-9.07h6.96v9.37H32.5v-9.37z" class="st7"/><path d="M32.81 116.56h6.35v-8.76h-6.35v8.76zm-.31-9.07h6.96v9.37H32.5v-9.37z" class="st8"/><defs><path id="SVGID_9_" d="M21.4 18.32h178.75v174.25H21.4z"/></defs><clipPath id="SVGID_10_"><use xlink:href="#SVGID_9_" style="overflow:visible"/></clipPath><path d="M37.21 112.18c0-.44-.36-.8-.8-.8-.44 0-.8.36-.8.8 0 .44.36.8.8.8.44 0 .8-.36.8-.8m-1.9 0c0-.61.5-1.11 1.11-1.11s1.11.5 1.11 1.11c0 .61-.5 1.11-1.11 1.11s-1.11-.5-1.11-1.11" class="st11"/><path d="M37.21 112.18c0-.44-.36-.8-.8-.8-.44 0-.8.36-.8.8 0 .44.36.8.8.8.44 0 .8-.36.8-.8zm-1.9 0c0-.61.5-1.11 1.11-1.11s1.11.5 1.11 1.11c0 .61-.5 1.11-1.11 1.11s-1.11-.5-1.11-1.11z" style="clip-path:url(#SVGID_10_);fill:none;stroke:#39373a;stroke-width:.212"/><path d="M37.39 162.49c0 2.47-2.01 4.47-4.47 4.47h-4.75a.68.68 0 0 1-.68-.68v-10.11c0-.38.31-.68.68-.68h4.75c2.47 0 4.47 2.01 4.47 4.47v2.53zm-10.16-6.32v10.11c0 .51.42.93.93.93h4.75a4.73 4.73 0 0 0 4.73-4.72v-2.53c0-2.61-2.12-4.73-4.73-4.73h-4.75a.95.95 0 0 0-.93.94" class="st11"/><path d="M37.39 162.49c0 2.47-2.01 4.47-4.47 4.47h-4.75a.68.68 0 0 1-.68-.68v-10.11c0-.38.31-.68.68-.68h4.75c2.47 0 4.47 2.01 4.47 4.47v2.53zm-10.16-6.32v10.11c0 .51.42.93.93.93h4.75a4.73 4.73 0 0 0 4.73-4.72v-2.53c0-2.61-2.12-4.73-4.73-4.73h-4.75a.95.95 0 0 0-.93.94z" class="st13"/><path d="M36.26 162.49c0 1.85-1.5 3.35-3.35 3.35h-2.77c-.32 0-.59-.26-.59-.58v-8.06c0-.32.26-.59.59-.59h2.77c1.85 0 3.35 1.5 3.35 3.35v2.53zm-6.95-5.29v8.06c0 .46.38.84.84.84h2.77c1.99 0 3.6-1.62 3.6-3.6v-2.52c0-1.99-1.62-3.6-3.6-3.6h-2.77a.81.81 0 0 0-.84.82" class="st11"/><path d="M36.26 162.49c0 1.85-1.5 3.35-3.35 3.35h-2.77c-.32 0-.59-.26-.59-.58v-8.06c0-.32.26-.59.59-.59h2.77c1.85 0 3.35 1.5 3.35 3.35v2.53zm-6.95-5.29v8.06c0 .46.38.84.84.84h2.77c1.99 0 3.6-1.62 3.6-3.6v-2.52c0-1.99-1.62-3.6-3.6-3.6h-2.77a.81.81 0 0 0-.84.82z" class="st13"/><path d="M33.91 161.23c0 .31-.25.55-.56.55-.31 0-.55-.25-.55-.55s.25-.56.55-.56c.32 0 .56.25.56.56m-1.36 0c0 .44.36.81.81.81.44 0 .81-.36.81-.81 0-.45-.36-.81-.81-.81-.44 0-.81.36-.81.81" class="st11"/><path d="M33.91 161.23c0 .31-.25.55-.56.55-.31 0-.55-.25-.55-.55s.25-.56.55-.56c.32 0 .56.25.56.56zm-1.36 0c0 .44.36.81.81.81.44 0 .81-.36.81-.81 0-.45-.36-.81-.81-.81-.44 0-.81.36-.81.81z" class="st13"/><path d="M29.37 25.14h80.31v1.76H29.37zM196.28 39.4v-1.76l-85.22-12.5v1.76z" class="st1"/><defs><path id="SVGID_11_" d="M21.4 18.32h178.75v174.25H21.4z"/></defs><clipPath id="SVGID_12_"><use xlink:href="#SVGID_11_" style="overflow:visible"/></clipPath><path d="M29.37 18.67h79.6v11.87h-79.6zm166.91 24.37V31.17l-84.51-12.5v11.87z" style="clip-path:url(#SVGID_12_);stroke-width:.6;fill:none;stroke:#39373a"/><path d="M67.89 181.04s0 4.96-4.96 4.96H33.3s-4.96 0-4.96-4.96v-6.65s0-4.96 4.96-4.96h29.63s4.96 0 4.96 4.96v6.65z" class="st15"/><path d="M65.14 179.49s0 4.96-4.96 4.96H36.05s-4.96 0-4.96-4.96v-3.55s0-4.96 4.96-4.96h24.13s4.96 0 4.96 4.96v3.55z" class="st15"/><path d="M61.82 180.48s0 2.48-2.48 2.48H35.09s-2.48 0-2.48-2.48v-5.53s0-2.48 2.48-2.48h24.25s2.48 0 2.48 2.48v5.53z" class="st15"/><path d="M35.57 177.72c0-.41.33-.74.74-.74s.74.33.74.74-.33.74-.74.74a.751.751 0 0 1-.74-.74z" class="st15"/><path d="M69.35 168.5H26.68" style="fill:none;stroke:#39373a;stroke-width:.525"/><path d="M57.58 155.44h13.24v12.16H57.58z" class="st1"/><defs><path id="SVGID_13_" d="M21.4 18.32h178.75v174.25H21.4z"/></defs><clipPath id="SVGID_14_"><use xlink:href="#SVGID_13_" style="overflow:visible"/></clipPath><path d="M46.37 144.67c0 2.82-2.3 5.11-5.12 5.11h-7.41c-.49 0-.88-.39-.88-.88v-8.47c0-.49.4-.88.88-.88h7.41c2.83 0 5.12 2.3 5.12 5.12m-13.76-4.24v8.47c0 .68.55 1.23 1.23 1.23h7.41c3.01 0 5.47-2.45 5.47-5.47 0-3.01-2.45-5.47-5.47-5.47h-7.41c-.67.01-1.23.56-1.23 1.24" class="st17"/><path d="M46.37 144.67c0 2.82-2.3 5.11-5.12 5.11h-7.41c-.49 0-.88-.39-.88-.88v-8.47c0-.49.4-.88.88-.88h7.41c2.83 0 5.12 2.3 5.12 5.12zm-13.76-4.24v8.47c0 .68.55 1.23 1.23 1.23h7.41c3.01 0 5.47-2.45 5.47-5.47 0-3.01-2.45-5.47-5.47-5.47h-7.41c-.67.01-1.23.56-1.23 1.24z" class="st18"/><path d="M35.44 148.33V141c0-.05.04-.09.09-.09h5.58c2.06 0 3.76 1.69 3.76 3.76 0 2.06-1.69 3.75-3.76 3.75h-5.58a.09.09 0 0 1-.09-.09z" class="st18"/><path d="M35.61 148.25v-7.16h5.5c1.97 0 3.58 1.61 3.58 3.58s-1.61 3.58-3.58 3.58h-5.5zm-.35-7.25v7.33c0 .14.12.26.26.26h5.58a3.93 3.93 0 0 0 0-7.86h-5.58c-.14 0-.26.13-.26.27" class="st17"/><path d="M35.61 148.25v-7.16h5.5c1.97 0 3.58 1.61 3.58 3.58s-1.61 3.58-3.58 3.58h-5.5zm-.35-7.25v7.33c0 .14.12.26.26.26h5.58a3.93 3.93 0 0 0 0-7.86h-5.58c-.14 0-.26.13-.26.27z" class="st18"/><path d="M41.12 144.67a.97.97 0 0 1-1.94 0 .97.97 0 0 1 1.94 0m-2.29 0c0 .73.59 1.32 1.32 1.32.73 0 1.32-.59 1.32-1.32s-.59-1.32-1.32-1.32c-.73 0-1.32.59-1.32 1.32" class="st17"/><path d="M41.12 144.67a.97.97 0 0 1-1.94 0 .97.97 0 0 1 1.94 0zm-2.29 0c0 .73.59 1.32 1.32 1.32.73 0 1.32-.59 1.32-1.32s-.59-1.32-1.32-1.32c-.73 0-1.32.59-1.32 1.32z" class="st18"/><path d="m36.142 147.524 2.347-1.754.21.28-2.347 1.754z" class="st7"/><path d="m36.142 147.524 2.347-1.754.21.28-2.347 1.754z" class="st19"/><path d="m36.14 141.87 2.35 1.75.21-.28-2.35-1.76z" class="st7"/><path d="m36.14 141.87 2.35 1.75.21-.28-2.35-1.76z" class="st19"/><defs><path id="SVGID_15_" d="M21.4 18.32h178.75v174.25H21.4z"/></defs><clipPath id="SVGID_16_"><use xlink:href="#SVGID_15_" style="overflow:visible"/></clipPath><path d="M32.6 148.2c0 .78-.64 1.42-1.42 1.42h-1.93c-.78 0-1.42-.64-1.42-1.42v-7.06c0-.78.64-1.42 1.42-1.42h1.93c.78 0 1.42.64 1.42 1.42v7.06zm-5.12-7.06v7.06c0 .98.79 1.77 1.77 1.77h1.93c.97 0 1.77-.79 1.77-1.77v-7.06c0-.98-.79-1.77-1.77-1.77h-1.93c-.98 0-1.77.79-1.77 1.77" class="st20"/><path d="M32.6 148.2c0 .78-.64 1.42-1.42 1.42h-1.93c-.78 0-1.42-.64-1.42-1.42v-7.06c0-.78.64-1.42 1.42-1.42h1.93c.78 0 1.42.64 1.42 1.42v7.06zm-5.12-7.06v7.06c0 .98.79 1.77 1.77 1.77h1.93c.97 0 1.77-.79 1.77-1.77v-7.06c0-.98-.79-1.77-1.77-1.77h-1.93c-.98 0-1.77.79-1.77 1.77z" class="st21"/><path d="M30.76 144.67c0 .3-.25.55-.55.55-.3 0-.55-.25-.55-.55s.25-.55.55-.55c.31 0 .55.24.55.55m-1.45 0c0 .5.4.9.9.9s.9-.4.9-.9-.4-.9-.9-.9-.9.4-.9.9" class="st20"/><path d="M30.76 144.67c0 .3-.25.55-.55.55-.3 0-.55-.25-.55-.55s.25-.55.55-.55c.31 0 .55.24.55.55zm-1.45 0c0 .5.4.9.9.9s.9-.4.9-.9-.4-.9-.9-.9-.9.4-.9.9z" class="st21"/><path d="M30.76 127.53h3.83v5.64h-3.83zm21.08 0h3.83v5.64h-3.83z" class="st7"/><defs><path id="SVGID_17_" d="M21.4 18.32h178.75v174.25H21.4z"/></defs><clipPath id="SVGID_18_"><use xlink:href="#SVGID_17_" style="overflow:visible"/></clipPath><path d="M166.15 116.79c-.02-1.76.15-2.44 1.69-2.44 1.67 0 1.84.58 1.86 3.83-.71.41-1.18.56-1.86.56-1.37-.01-1.71-.43-1.69-1.95m-3.17 9.52c1.71.43 3.3.43 4.11.43 4.71 0 6.44-1.11 6.44-7.79 0-5.97-.99-7.49-5.65-7.49-4.3 0-5.52 1.63-5.5 5.42 0 2.7.94 4.58 4.24 4.58 1.33 0 2.23-.21 3.04-.88-.11 2.53-.62 3.25-2.57 3.25-1.91 0-2.61 0-3.92-.02l-.19 2.5zm-4.5-3.47c-1.03 0-1.35.32-1.35 1.35v.94c0 1.03.32 1.35 1.35 1.35h.92c1.03 0 1.35-.32 1.35-1.35v-.94c0-1.03-.32-1.35-1.35-1.35h-.92zm-3.55-8.17.15-2.96h-9.25l-.39 6.64c-.04.69.45 1.24 1.16 1.33l2.29.28c1.99.17 2.72.45 2.65 1.84-.09 1.2-.51 1.67-2.46 1.67-1.05 0-2.42-.06-3.83-.17l-.36 3.02c1.88.28 3.77.43 5.25.43 4.2 0 5.37-2.16 5.37-4.82.02-2.38-.88-4.5-4.32-4.88l-2.46-.32.15-2.06h6.05zm-21.78-.07c1.09-.02 2.59-.04 4.11-.04 1.5 0 1.93.19 1.93 1.39.02 1.01-.13 1.61-1.73 1.61h-2.83v2.57l2.83-.02c1.58-.02 1.93.47 1.93 1.73 0 1.5-.56 1.78-2.44 1.78-1.28 0-2.23-.02-4.09-.13l-.13 2.89c1.67.24 3.53.41 5.31.41 3.92 0 5.35-1.29 5.31-4.41-.02-2.25-.66-3.38-2.74-3.7v-.08c1.91-.3 2.35-1.61 2.35-3.73 0-2.63-1.37-3.45-4.99-3.45-1.63 0-3.28.13-4.95.41l.13 2.77z" class="st22"/><circle cx="154.44" cy="95.06" r="13.12" style="clip-path:url(#SVGID_18_);fill:none;stroke:#39373a;stroke-width:.9"/><path d="m157.51 95.95 2.63 4.78h3.37l-2.76-4.72c-.24-.44-.73-.88-1.04-1.05v-.05c.31-.19.65-.5.91-.96l2.71-4.41h-3.27l-2.56 4.36h-.76c.1-.47.13-.94.13-1.39v-2.97h-3.03v11.19h3.03v-3.74c0-.31-.05-.68-.13-1.04h.77zm-5.98 4.78V89.55h-3.03l-2.84 1.1.36 1.93 2.59-.58c-.1.45-.11.89-.11 1.33v7.41h3.03z" class="st22"/><path d="M21.4 18.32h20v8.88h-20z" class="st7"/><path d="M21.4 19.43h15.34V71.8H21.4z" class="st7"/><path d="M21.4 59.26h5.95v133.3H21.4zm86.32-40.89h5.77v119.82h-5.77zm0 139.75h5.77v34.44h-5.77zm-38.37-6.38h3.54v40.53h-3.54z" class="st7"/><path d="M25.58 186.6H83.9v5.95H25.58zm-.49-54.42h62.57v3.26H25.09zm72.99-66.76h25.23v6.38H98.08zm86.88 0h14.11v6.38h-14.11zm-77.24 103.33h89.55v5.74h-89.55z" class="st7"/><path d="M194.39 30.27h5.76v144.21h-5.76zm-88.53-11.9h9.66v6.98h-9.66z" class="st7"/><path d="M192.44 30.27h7.71v6.98h-7.71z" class="st7"/><defs><path id="SVGID_19_" d="M21.4 18.32h178.75v174.25H21.4z"/></defs><clipPath id="SVGID_20_"><use xlink:href="#SVGID_19_" style="overflow:visible"/></clipPath><path d="m157.95 153.79.07 1.41h2.81c-.15.22-.23.46-.32.68l-1.55 4.37h1.72l1.95-5.6c.16-.48-.15-.86-.66-.86h-4.02zm-1.3 4.88c-.45 0-.59.14-.59.59v.41c0 .45.14.59.59.59h.4c.45 0 .59-.14.59-.59v-.41c0-.45-.14-.59-.59-.59h-.4zm-5.83-3.61c.48-.01 1.13-.02 1.8-.02.66 0 .84.08.84.61.01.44-.06.7-.76.7h-1.24v1.13l1.24-.01c.69-.01.84.21.84.76 0 .65-.24.78-1.07.78-.56 0-.97-.01-1.79-.06l-.06 1.26c.73.1 1.55.18 2.32.18 1.71 0 2.34-.56 2.32-1.93-.01-.98-.29-1.48-1.2-1.62v-.04c.83-.13 1.03-.7 1.03-1.63 0-1.15-.6-1.51-2.18-1.51-.71 0-1.43.06-2.16.18l.07 1.22zm-1.27 5.2v-6.46h-1.75l-1.64.64.21 1.11 1.5-.34c-.06.26-.07.52-.07.77v4.28h1.75zm21.43-12.86c0-.21.11-.36.39-.36h.98v.58c-.31.2-.64.32-.91.32-.31 0-.46-.13-.46-.38v-.16zm-1.27-1.83c.78-.05 1.53-.07 1.99-.07.49 0 .64.14.65.54v.11h-1.55c-.93 0-1.49.45-1.49 1.19v.47c0 .87.7 1.33 1.56 1.33.81 0 1.34-.41 1.66-.8l.16.68h1.36v-2.97c0-1.39-.69-1.82-1.95-1.82-.68 0-1.85.1-2.55.23l.16 1.11zm-.76.07v-1.28h-4.65v1.28h1.48v3.37h1.69v-3.37h1.48zm-8.32 1.76c0-.21.11-.36.39-.36h.98v.58c-.31.2-.64.32-.91.32-.31 0-.46-.13-.46-.38v-.16zm-1.28-1.83c.78-.05 1.53-.07 1.99-.07.49 0 .64.14.65.54v.11h-1.55c-.93 0-1.49.45-1.49 1.19v.47c0 .87.7 1.33 1.56 1.33.81 0 1.34-.41 1.66-.8l.16.68h1.36v-2.97c0-1.39-.69-1.82-1.95-1.82-.68 0-1.86.1-2.55.23l.16 1.11zm-1.17-1.21h-1.67V146h-1.43v-1.64h-1.68v4.65h1.68v-1.88h1.43v1.88h1.67v-4.65zm-7.87 0c-.36 0-.58.18-.64.52l-.4 1.73c-.05.23-.06.46-.09.69h-.07c-.03-.24-.04-.46-.09-.69l-.41-1.73c-.06-.35-.28-.52-.63-.52h-1.44c-.38 0-.58.2-.59.58l-.11 4.07h1.54l.09-3.42h.11l.55 2.26c.07.35.29.51.65.51h.76c.37 0 .57-.17.64-.51l.55-2.26h.11l.12 3.42h1.53l-.12-4.07c-.01-.38-.2-.58-.58-.58h-1.48zm-7.74 1.07c.57 0 .72.24.72 1.27 0 1.02-.15 1.25-.72 1.25-.58 0-.73-.22-.73-1.25 0-1.04.15-1.27.73-1.27m0-1.2c-1.84 0-2.51.66-2.51 2.46 0 1.79.67 2.44 2.51 2.44 1.83 0 2.5-.65 2.5-2.44 0-1.8-.68-2.46-2.5-2.46m-4.67 2.34c1.09-.16 1.01-.25 1.61-2.21h-1.71c-.4 1.56-.43 1.69-1.1 1.69h-.21c.04-.2.07-.4.07-.59v-1.1h-1.69v4.65h1.69v-1.47c0-.11-.02-.24-.06-.38h.38c.5.01.53.13 1.02 1.85h1.77c-.65-2.2-.67-2.24-1.77-2.4v-.04zm30.04-11.35h-.66c-.44 0-.53-.11-.53-.58 0-.35.08-.43.53-.43h.66v1.01zm-1.83.58c-.28.03-.77.1-.89.51l-.37 1.47h1.74l.29-1.25c.04-.21.14-.27.43-.27h.62v1.52h1.65v-4.69c-.58-.07-1.08-.07-2.35-.07-1.71 0-2.14.33-2.14 1.5 0 .56.23 1.1 1.01 1.26v.02zm-4.95.36c0-.22.11-.36.39-.37h.97v.58c-.31.2-.64.32-.91.32-.31 0-.46-.13-.46-.38v-.15zm-1.28-1.83c.78-.05 1.53-.07 2-.07.49 0 .64.14.65.54v.11h-1.55c-.93 0-1.49.45-1.49 1.19v.47c0 .87.7 1.33 1.56 1.33.81 0 1.34-.41 1.66-.81l.16.68h1.36v-2.97c0-1.39-.69-1.82-1.95-1.82-.68 0-1.86.1-2.55.23l.15 1.12zm-1.17-1.21h-2.81c-.81 0-1.22.41-1.28 1.2-.07.85-.15 1.5-.24 1.83-.1.38-.38.37-.79.43l.17 1.25c1.02.17 1.95-.06 2.14-1.22.09-.45.2-1.24.28-1.96.03-.27.16-.39.44-.39h.4v3.52h1.69v-4.66zm-5.69 4.66v-4.66h-1.48l-1.48 2.23c-.14.22-.26.42-.36.68h-.04c.04-.27.07-.48.07-.72v-2.19h-1.51v4.65h1.48l1.45-2.13c.13-.21.29-.52.38-.78h.04c-.04.31-.07.55-.07.82v2.09h1.52zm-7.57-3.41c1.25-.17 1.28-.75 1.97-3.06h-1.78c-.58 1.94-.69 2.52-1.32 2.52h-.3c.05-.27.08-.54.08-.81v-1.71h-1.68v1.71c0 .26.03.53.08.81h-.33c-.62 0-.74-.58-1.31-2.52h-1.78c.68 2.31.71 2.9 1.97 3.06v.06c-1.3.19-1.39.69-2.15 3.34h1.84c.72-2.34.8-2.76 1.42-2.76h.33c-.05.21-.07.42-.07.6v2.16h1.68v-2.16c0-.18-.03-.39-.08-.6h.31c.66 0 .72.42 1.43 2.76h1.85c-.76-2.65-.84-3.16-2.15-3.34v-.06zm-68.47-29.81h-.85v-2.97h-1.47l-.31 1.12v1.84h-1.41c-.17 0-.27-.1-.19-.3l1.57-4.07H72.5l-1.79 4.56c-.23.56.16 1.11.76 1.11h2.87v1.51h1.78v-1.51h.02l.83-.19v-1.1zm-8.05 1.04c-.5 0-.66.16-.66.65v.46c0 .5.16.65.66.65h.45c.5 0 .65-.16.65-.65v-.46c0-.5-.16-.65-.65-.65h-.45zm-6.48-4.01c.53-.01 1.26-.02 2-.02.73 0 .94.09.94.68.01.49-.06.78-.84.78h-1.37v1.25l1.37-.01c.77-.01.94.23.94.84 0 .73-.27.86-1.19.86-.62 0-1.08-.01-1.99-.06l-.06 1.4c.81.11 1.72.2 2.58.2 1.9 0 2.6-.62 2.58-2.14-.01-1.09-.32-1.64-1.33-1.8v-.04c.93-.15 1.14-.78 1.14-1.81 0-1.28-.67-1.68-2.42-1.68-.79 0-1.59.06-2.4.2l.05 1.35zm-1.41 5.78v-7.18H59.1l-1.82.71.23 1.24 1.67-.37c-.06.29-.07.57-.07.85v4.76h1.93zm19.48-15.33h-.74c-.49 0-.58-.12-.58-.65 0-.38.09-.48.58-.48h.74v1.13zm-2.03.65c-.31.03-.85.11-.99.56l-.41 1.63h1.94l.32-1.39c.04-.24.16-.3.48-.3h.69v1.69h1.83v-5.21c-.65-.07-1.2-.08-2.61-.08-1.9 0-2.37.36-2.37 1.66 0 .62.25 1.22 1.12 1.4v.04zm-2.15-2.98h-1.85v1.82h-1.58v-1.82h-1.86v5.17h1.86v-2.09h1.58v2.09h1.85v-5.17zm-7.79 5.17h1.9l-1.54-2.64 1.42-2.53h-1.88l-1.02 1.93-1.02-1.93h-1.88l1.42 2.53-1.54 2.64h1.9l1.12-2.08 1.12 2.08zm-4.22-5.17h-2.02l-.76 3.08c-.05.24-.14.58-.22.89h-.1c-.04-.3-.09-.59-.15-.89l-.78-3.08h-2.01l1.6 4.72c.08.27.31.45.6.45h.34c-.14.26-.33.5-.54.61-.33.19-.79.24-1.45.22l-.16 1.23c.74.14 1.52.15 2.13-.1.8-.29 1.4-.8 1.77-2.01l1.75-5.12zm-8.49 1.39c1.43-.19 1.47-.83 2.26-3.4h-1.99c-.56 2.16-.7 2.8-1.71 2.8h-.34c.05-.29.08-.6.08-.89V87.7H52.2v7.18h1.94v-2.41c0-.2-.03-.44-.08-.67h.38c1 0 1.08.47 1.82 3.07h2.04c-.88-2.95-.98-3.51-2.46-3.72v-.05zm4.77 50.52.08 1.57h3.12c-.17.25-.26.51-.35.76l-1.73 4.85h1.91l2.16-6.22c.18-.53-.17-.96-.73-.96h-4.46zm-1.44 5.41c-.5 0-.66.16-.66.65v.46c0 .5.16.65.66.65h.45c.5 0 .66-.16.66-.65v-.46c0-.5-.16-.65-.66-.65h-.45zm-6.48-4.01c.53-.01 1.26-.02 2-.02.73 0 .94.09.94.68.01.49-.06.78-.84.78h-1.37v1.25l1.37-.01c.77-.01.94.23.94.84 0 .73-.27.86-1.19.86-.62 0-1.08-.01-1.99-.06l-.06 1.4c.81.11 1.72.2 2.58.2 1.9 0 2.6-.62 2.58-2.14-.01-1.09-.32-1.64-1.33-1.8v-.04c.93-.15 1.14-.78 1.14-1.81 0-1.28-.67-1.68-2.42-1.68-.79 0-1.59.06-2.4.2l.05 1.35zm43.33 21.85v-7.18h-1.95l-1.82.71.23 1.24 1.67-.38c-.06.29-.07.57-.07.85v4.76h1.94zm-4.92-1.77c-.5 0-.65.16-.65.66v.46c0 .5.16.65.65.65h.45c.5 0 .66-.16.66-.65v-.46c0-.5-.16-.66-.66-.66h-.45zm-6.48-4c.53-.01 1.26-.02 2-.02.73 0 .94.09.94.68.01.49-.06.78-.84.78h-1.37v1.25l1.37-.01c.77-.01.94.23.94.84 0 .73-.27.86-1.19.86-.62 0-1.08-.01-1.99-.06l-.06 1.4c.81.11 1.72.2 2.58.2 1.9 0 2.6-.62 2.58-2.14-.01-1.09-.32-1.64-1.33-1.8v-.04c.93-.15 1.14-.78 1.14-1.81 0-1.28-.67-1.68-2.42-1.68-.79 0-1.59.06-2.4.2l.05 1.35zm74.4-106.89c.8 0 1.02.34 1.02 2.25 0 1.9-.22 2.25-1.02 2.25-.77 0-.99-.34-.99-2.25 0-1.9.22-2.25.99-2.25m.01-1.48c-2.17 0-2.92.94-2.92 3.74s.75 3.74 2.92 3.74c2.19 0 2.95-.94 2.95-3.74s-.76-3.74-2.95-3.74m-4.89 5.55c-.5 0-.65.16-.65.66v.46c0 .5.16.65.65.65h.45c.5 0 .66-.16.66-.65v-.46c0-.5-.16-.66-.66-.66h-.45zm-1.34-1.04h-.85v-2.97h-1.47l-.31 1.12v1.84h-1.41c-.17 0-.27-.1-.19-.3l1.57-4.07h-1.82l-1.79 4.56c-.23.56.16 1.11.76 1.11h2.87v1.51h1.78v-1.51h.02l.83-.19v-1.1z" style="clip-path:url(#SVGID_20_);fill:#39373a"/></g></switch></svg>