<?xml version="1.0" encoding="utf-8"?>
<!-- Generator: Adobe Illustrator 27.4.1, SVG Export Plug-In . SVG Version: 6.00 Build 0)  -->
<svg version="1.1" id="Слой_1" xmlns="http://www.w3.org/2000/svg" xmlns:xlink="http://www.w3.org/1999/xlink" x="0px" y="0px"
	 viewBox="0 0 1280 1024" style="enable-background:new 0 0 1280 1024;" xml:space="preserve">
<style type="text/css">
	.st0{fill:#F7CFD6;}
	.st1{fill:#373437;}
	.st2{fill:none;stroke:#373437;}
	.st3{fill:none;stroke:#373437;stroke-miterlimit:3.9999;}
	.st4{fill:none;stroke:#373437;stroke-miterlimit:4;}
	.st5{fill:none;stroke:#373437;stroke-miterlimit:4.0001;}
</style>
<rect x="158.7" y="203" class="st0" width="982.2" height="508.8"/>
<rect x="1069.9" y="741.8" class="st1" width="87" height="9.4"/>
<rect x="1069.9" y="741.8" class="st2" width="79.5" height="9.4"/>
<rect x="845.3" y="741.8" class="st2" width="237.2" height="9.4"/>
<rect x="1078" y="712.8" class="st1" width="78.9" height="30.7"/>
<rect x="791.7" y="741.8" class="st1" width="99.7" height="9.4"/>
<rect x="791.7" y="741.8" class="st2" width="99.7" height="9.4"/>
<rect x="791.7" y="712.8" class="st1" width="91.6" height="30.7"/>
<rect x="791.7" y="712.8" class="st2" width="91.6" height="30.7"/>
<rect x="859.4" y="712.8" class="st2" width="223.1" height="29"/>
<rect x="724.6" y="741.8" class="st1" width="99.7" height="9.4"/>
<rect x="724.6" y="741.8" class="st2" width="99.7" height="9.4"/>
<rect x="614.3" y="741.8" class="st2" width="136.5" height="9.4"/>
<rect x="732.7" y="712.8" class="st1" width="91.6" height="30.7"/>
<rect x="732.7" y="712.8" class="st2" width="91.6" height="30.7"/>
<rect x="460" y="741.8" class="st1" width="99.7" height="9.4"/>
<rect x="460" y="741.8" class="st2" width="99.7" height="9.4"/>
<rect x="460" y="712.8" class="st1" width="91.6" height="30.7"/>
<rect x="460" y="712.8" class="st2" width="91.6" height="30.7"/>
<rect x="622.5" y="712.8" class="st2" width="128.3" height="29"/>
<path class="st2" d="M621.8,741c0,0-3.2-13.6-6.7-22.9c-3.4-9.3-7.6-14.4-7.6-14.4l-60.7,35l1.8,2.9l61-34.4"/>
<rect x="380.6" y="741.8" class="st1" width="99.7" height="9.4"/>
<rect x="380.6" y="741.8" class="st2" width="99.7" height="9.4"/>
<rect x="299.8" y="741.8" class="st2" width="136.5" height="9.4"/>
<rect x="388.7" y="712.8" class="st1" width="91.6" height="30.7"/>
<rect x="388.7" y="712.8" class="st2" width="91.6" height="30.7"/>
<rect x="145.5" y="741.8" class="st1" width="99.7" height="9.4"/>
<rect x="145.5" y="741.8" class="st2" width="99.7" height="9.4"/>
<rect x="145.5" y="712.8" class="st1" width="91.6" height="30.7"/>
<rect x="145.5" y="712.8" class="st2" width="91.6" height="30.7"/>
<rect x="308" y="712.8" class="st2" width="128.3" height="29"/>
<path class="st2" d="M307.3,741c0,0-3.2-13.6-6.7-22.9c-3.4-9.3-7.6-14.4-7.6-14.4l-60.7,35l1.8,2.9l61-34.4"/>
<path class="st2" d="M429.5,192.7c0,0,0,11.8-5.2,26.6c-4.4,12.3-13.1,23.9-13.1,23.9l-88.8-51.1l1.8-2.9l89,51.1"/>
<path class="st2" d="M317.8,394.9c0,0,4.4-0.4,16.7,3.9c10.3,3.6,19.9,10.9,19.9,10.9L325,460.2l-2.4-1.5L352,408"/>
<path class="st2" d="M317.8,315.3c0,0,4.4,0.4,16.7-3.9c10.3-3.6,19.9-10.9,19.9-10.9L325,249.9l-2.4,1.5l29.4,50.7"/>
<path class="st2" d="M812.5,338.5c0,0,11.8,0,26.6-5.2c12.3-4.4,23.9-13.1,23.9-13.1L817.5,242l-2.9,1.8l45.5,78.5"/>
<rect x="1141.9" y="187" class="st1" width="15" height="564.3"/>
<rect x="1141.9" y="187" class="st2" width="15" height="564.3"/>
<rect x="802.6" y="337.1" class="st1" width="21.8" height="508.5"/>
<rect x="802.6" y="337.1" class="st2" width="21.8" height="508.5"/>
<rect x="802.6" y="187" class="st1" width="21.8" height="72.1"/>
<rect x="802.6" y="187" class="st2" width="21.8" height="72.1"/>
<rect x="140.1" y="178.7" class="st1" width="204.6" height="23.3"/>
<rect x="428.7" y="178.7" class="st1" width="728.2" height="23.3"/>
<rect x="428.7" y="178.7" class="st2" width="52.2" height="23.3"/>
<rect x="140.1" y="178.7" class="st1" width="93.4" height="23.3"/>
<rect x="140.1" y="178.7" class="st2" width="93.4" height="23.3"/>
<rect x="216.3" y="191.3" class="st1" width="110.6" height="10.7"/>
<rect x="216.3" y="191.3" class="st2" width="110.6" height="10.7"/>
<rect x="140.1" y="178.7" class="st1" width="17.6" height="716.8"/>
<rect x="140.1" y="178.7" class="st2" width="17.6" height="716.8"/>
<rect x="474.4" y="187" class="st1" width="15" height="72.1"/>
<rect x="474.4" y="178.7" class="st2" width="15" height="80.4"/>
<rect x="474.4" y="347.4" class="st1" width="15" height="384.3"/>
<rect x="474.4" y="347.4" class="st2" width="15" height="384.3"/>
<rect x="474.4" y="812.4" class="st1" width="15" height="83.1"/>
<rect x="474.4" y="812.4" class="st2" width="15" height="83.1"/>
<rect x="474.4" y="187" class="st1" width="336.9" height="15"/>
<rect x="474.4" y="187" class="st2" width="336.9" height="15"/>
<rect x="820.9" y="187" class="st1" width="330.2" height="15"/>
<rect x="820.9" y="187" class="st2" width="330.2" height="15"/>
<path class="st2" d="M356.5,453.1c0,0-0.5,5.3,4.7,20c4.4,12.3,13.1,23.9,13.1,23.9l60.6-35.2l-1.8-2.9l-60.8,35.3"/>
<rect x="430.7" y="454.1" class="st1" width="53.1" height="10.2"/>
<rect x="430.7" y="454.1" class="st2" width="53.1" height="10.2"/>
<rect x="153.3" y="454" class="st1" width="203.6" height="10.2"/>
<rect x="153.3" y="454" class="st2" width="203.6" height="10.2"/>
<rect x="318" y="315.3" class="st1" width="10.2" height="81.7"/>
<rect x="318" y="315.3" class="st2" width="10.2" height="81.7"/>
<rect x="318" y="194" class="st1" width="10.2" height="61.8"/>
<rect x="318" y="194" class="st2" width="10.2" height="61.8"/>
<rect x="151.5" y="362.6" class="st1" width="170.7" height="10.2"/>
<rect x="151.5" y="362.6" class="st2" width="170.7" height="10.2"/>
<rect x="145.5" y="879.7" class="st2" width="329.7" height="9.4"/>
<polygon class="st2" points="488.1,889.1 488.1,879.7 810.6,832.4 810.6,841.9 "/>
<rect x="445.7" y="372.3" class="st2" width="26.7" height="79.7"/>
<line class="st2" x1="468.2" y1="372.5" x2="468.2" y2="452.5"/>
<polyline class="st2" points="468.2,376.4 448.9,378.2 448.9,428.6 468.2,430.9 468.2,434.2 448.7,436.4 448.7,447.7 468.2,450.1 
	"/>
<rect x="159.8" y="374.9" class="st2" width="26.7" height="77.1"/>
<line class="st2" x1="182.3" y1="375" x2="182.3" y2="452.5"/>
<polyline class="st2" points="182.3,378.9 163.1,380.6 163.1,429.4 182.3,431.5 182.3,434.7 162.8,436.9 162.8,447.8 182.3,450.1 
	"/>
<path class="st1" d="M307.3,442.5v-2.3h-4.7c0-0.1,0-0.2,0-0.3c0-0.3,0.1-0.7,0.3-1.1c0.2-0.4,0.4-0.7,0.7-1.1
	c0.3-0.3,0.6-0.7,1-1.1s0.7-0.8,1-1.2c0.3-0.4,0.7-0.9,1-1.4s0.5-1,0.7-1.6s0.3-1.3,0.3-1.9c0-1.3-0.3-2.2-0.9-2.9
	c-0.6-0.7-1.5-1-2.7-1s-2.1,0.3-2.8,1c-0.6,0.7-1,1.7-1,2.9v1.5h2.4v-1.7c0-1,0.4-1.6,1.3-1.6c0.4,0,0.7,0.1,1,0.4
	c0.2,0.3,0.3,0.7,0.3,1.4c0,0.6-0.1,1.2-0.3,1.7c-0.2,0.5-0.4,1-0.7,1.4c-0.3,0.4-0.6,0.8-1,1.2c-0.4,0.4-0.7,0.8-1.1,1.2
	c-0.3,0.4-0.7,0.8-1,1.2c-0.3,0.4-0.5,0.9-0.7,1.5s-0.3,1.1-0.3,1.8v1.9h7.2V442.5z M298.4,440.3h-2.5v2.3h2.5V440.3z M290.5,430.5
	v12h2.5v-15.8h-1.7c-0.1,0.3-0.2,0.5-0.3,0.6c-0.1,0.2-0.2,0.3-0.3,0.5c-0.1,0.2-0.3,0.3-0.5,0.5c-0.2,0.1-0.4,0.2-0.7,0.3
	c-0.3,0.1-0.6,0.1-1,0.1v1.8H290.5z"/>
<path class="st1" d="M304.8,411.9v0.1c-0.1,0.5-0.3,0.9-0.7,1.1c-0.3,0.2-0.9,0.2-1.5,0.2v2.2c0.7,0,1.2,0,1.7-0.1s0.9-0.2,1.3-0.4
	c0.3-0.2,0.6-0.5,0.9-0.8c0.2-0.4,0.4-0.7,0.6-1.2c0.1-0.4,0.3-0.9,0.4-1.5l2.6-11.7h-2.5l-1.1,5.4l-0.6,3.6l-0.8-3.7l-1.3-5.4h-2.5
	L304.8,411.9z M294.8,415.5l6.2-15.8h-2.1l-6.2,15.8H294.8z M285.5,414.7c0.6,0.7,1.5,1,2.8,1c1.2,0,2.2-0.3,2.8-1
	c0.7-0.7,1-1.7,1-2.9v-2.1h-2.5v2.3c0,1-0.4,1.5-1.3,1.5S287,413,287,412v-8.5c0-1,0.4-1.6,1.3-1.6s1.3,0.5,1.3,1.6v1.7h2.5v-1.5
	c0-1.3-0.3-2.2-1-2.9c-0.7-0.7-1.6-1-2.8-1c-1.2,0-2.1,0.3-2.8,1c-0.6,0.7-0.9,1.7-0.9,2.9v8.2C284.6,413,284.9,414,285.5,414.7"/>
<path class="st1" d="M160.2,515.9h48.6v-49.2h-48.6L160.2,515.9L160.2,515.9z M159.1,465.7h50.7V517h-50.7V465.7z"/>
<path class="st2" d="M160.2,515.9h48.6v-49.2h-48.6L160.2,515.9L160.2,515.9z M159.1,465.7h50.7V517h-50.7V465.7z"/>
<path class="st1" d="M204.3,474.1c0-1.2-1-2.2-2.2-2.2h-25.5c-1.2,0-2.2,1-2.2,2.2v34.4c0,1.2,1,2.2,2.2,2.2h25.5
	c1.2,0,2.2-1,2.2-2.2V474.1z M173.4,508.6v-34.4c0-1.8,1.5-3.3,3.3-3.3h25.5c1.8,0,3.2,1.5,3.2,3.3v34.4c0,1.8-1.5,3.3-3.2,3.3
	h-25.5C174.8,511.9,173.4,510.4,173.4,508.6"/>
<path class="st2" d="M204.3,474.1c0-1.2-1-2.2-2.2-2.2h-25.5c-1.2,0-2.2,1-2.2,2.2v34.4c0,1.2,1,2.2,2.2,2.2h25.5
	c1.2,0,2.2-1,2.2-2.2V474.1z M173.4,508.6v-34.4c0-1.8,1.5-3.3,3.3-3.3h25.5c1.8,0,3.2,1.5,3.2,3.3v34.4c0,1.8-1.5,3.3-3.2,3.3
	h-25.5C174.8,511.9,173.4,510.4,173.4,508.6z"/>
<path class="st1" d="M178.2,506.9h22.3v-31.2h-22.3V506.9z M177.2,474.7h24.4V508h-24.4V474.7z"/>
<path class="st2" d="M178.2,506.9h22.3v-31.2h-22.3V506.9z M177.2,474.7h24.4V508h-24.4V474.7z"/>
<path class="st1" d="M193.7,491.3c0-1.6-1.3-2.8-2.8-2.8s-2.8,1.3-2.8,2.8c0,1.6,1.3,2.8,2.8,2.8
	C192.4,494.2,193.7,492.9,193.7,491.3 M187,491.3c0-2.2,1.7-3.9,3.9-3.9c2.1,0,3.9,1.8,3.9,3.9c0,2.2-1.7,3.9-3.9,3.9
	C188.8,495.3,187,493.5,187,491.3"/>
<path class="st2" d="M193.7,491.3c0-1.6-1.3-2.8-2.8-2.8s-2.8,1.3-2.8,2.8c0,1.6,1.3,2.8,2.8,2.8
	C192.4,494.2,193.7,492.9,193.7,491.3z M187,491.3c0-2.2,1.7-3.9,3.9-3.9c2.1,0,3.9,1.8,3.9,3.9c0,2.2-1.7,3.9-3.9,3.9
	C188.8,495.3,187,493.5,187,491.3z"/>
<path class="st2" d="M192.1,331.1c1.4,0,2.5-1.1,2.5-2.5s-1.1-2.5-2.5-2.5s-2.5,1.1-2.5,2.5S190.7,331.1,192.1,331.1z"/>
<path class="st2" d="M180.7,209.5c-9.1,0-16.5,7.4-16.5,16.5v112.5c0,9.1,7.4,16.5,16.5,16.5h22.8c9.1,0,16.5-7.4,16.5-16.5V226
	c0-9.1-7.4-16.5-16.5-16.5H180.7z"/>
<path class="st2" d="M185.9,219.7c-9.1,0-16.5,7.4-16.5,16.5v92.3c0,9.1,7.4,16.5,16.5,16.5h12.4c9.1,0,16.5-7.4,16.5-16.5v-92.3
	c0-9.1-7.4-16.5-16.5-16.5H185.9z"/>
<path class="st2" d="M182.7,231.8c-4.5,0-8.2,3.7-8.2,8.2v91c0,4.6,3.7,8.2,8.2,8.2h18.9c4.5,0,8.2-3.7,8.2-8.2v-91
	c0-4.5-3.7-8.2-8.2-8.2H182.7z"/>
<polygon class="st2" points="224.7,360.8 224.7,360.8 224.7,203.8 159.6,203.8 159.6,360.8 "/>
<path class="st1" d="M267.6,412.2c0,10-8.1,18.1-18.1,18.1h-26.2c-1.7,0-3.1-1.4-3.1-3.1v-30c0-1.7,1.4-3.1,3.1-3.1h26.2
	C259.5,394.1,267.6,402.2,267.6,412.2 M218.9,397.2v30c0,2.4,2,4.4,4.4,4.4h26.2c10.7,0,19.4-8.7,19.4-19.3
	c0-10.7-8.7-19.4-19.4-19.4h-26.2C220.8,392.8,218.9,394.8,218.9,397.2"/>
<path class="st2" d="M267.6,412.2c0,10-8.1,18.1-18.1,18.1h-26.2c-1.7,0-3.1-1.4-3.1-3.1v-30c0-1.7,1.4-3.1,3.1-3.1h26.2
	C259.5,394.1,267.6,402.2,267.6,412.2z M218.9,397.2v30c0,2.4,2,4.4,4.4,4.4h26.2c10.7,0,19.4-8.7,19.4-19.3
	c0-10.7-8.7-19.4-19.4-19.4h-26.2C220.8,392.8,218.9,394.8,218.9,397.2z"/>
<path class="st2" d="M228.9,425.1v-26c0-0.2,0.1-0.3,0.3-0.3H249c7.3,0,13.3,6,13.3,13.3s-6,13.3-13.3,13.3h-19.8
	C229,425.5,228.9,425.3,228.9,425.1z"/>
<path class="st1" d="M229.5,424.8v-25.3H249c7,0,12.7,5.7,12.7,12.7s-5.7,12.7-12.7,12.7h-19.5V424.8z M228.2,399.2v26
	c0,0.5,0.4,0.9,0.9,0.9h19.8c7.7,0,13.9-6.2,13.9-13.9c0-7.7-6.2-13.9-13.9-13.9h-19.8C228.7,398.2,228.2,398.7,228.2,399.2"/>
<path class="st2" d="M229.5,424.8v-25.3H249c7,0,12.7,5.7,12.7,12.7s-5.7,12.7-12.7,12.7h-19.5V424.8z M228.2,399.2v26
	c0,0.5,0.4,0.9,0.9,0.9h19.8c7.7,0,13.9-6.2,13.9-13.9c0-7.7-6.2-13.9-13.9-13.9h-19.8C228.7,398.2,228.2,398.7,228.2,399.2z"/>
<path class="st1" d="M249,412.2c0,1.9-1.5,3.4-3.4,3.4s-3.4-1.5-3.4-3.4s1.5-3.4,3.4-3.4S249,410.3,249,412.2 M240.9,412.2
	c0,2.6,2.1,4.7,4.7,4.7c2.6,0,4.7-2.1,4.7-4.7s-2.1-4.7-4.7-4.7S240.9,409.6,240.9,412.2"/>
<path class="st2" d="M249,412.2c0,1.9-1.5,3.4-3.4,3.4s-3.4-1.5-3.4-3.4s1.5-3.4,3.4-3.4S249,410.3,249,412.2z M240.9,412.2
	c0,2.6,2.1,4.7,4.7,4.7c2.6,0,4.7-2.1,4.7-4.7s-2.1-4.7-4.7-4.7S240.9,409.6,240.9,412.2z"/>
<rect x="230.7" y="419" transform="matrix(0.8014 -0.5981 0.5981 0.8014 -204.1326 224.3942)" class="st1" width="10.4" height="1.2"/>
<rect x="230.7" y="419" transform="matrix(0.8014 -0.5981 0.5981 0.8014 -204.1326 224.3942)" class="st3" width="10.4" height="1.2"/>
<rect x="235.3" y="399.7" transform="matrix(0.5992 -0.8006 0.8006 0.5992 -229.596 351.1671)" class="st1" width="1.2" height="10.4"/>
<rect x="235.3" y="399.7" transform="matrix(0.5992 -0.8006 0.8006 0.5992 -229.596 351.1671)" class="st4" width="1.2" height="10.4"/>
<path class="st1" d="M218.8,424.7c0,2.8-2.3,5-5,5H207c-2.8,0-5-2.3-5-5v-25c0-2.8,2.3-5,5-5h6.8c2.8,0,5,2.3,5,5V424.7z
	 M200.7,399.7v25c0,3.5,2.8,6.3,6.3,6.3h6.8c3.5,0,6.3-2.8,6.3-6.3v-25c0-3.5-2.8-6.3-6.3-6.3H207
	C203.5,393.4,200.7,396.2,200.7,399.7"/>
<path class="st2" d="M218.8,424.7c0,2.8-2.3,5-5,5H207c-2.8,0-5-2.3-5-5v-25c0-2.8,2.3-5,5-5h6.8c2.8,0,5,2.3,5,5V424.7z
	 M200.7,399.7v25c0,3.5,2.8,6.3,6.3,6.3h6.8c3.5,0,6.3-2.8,6.3-6.3v-25c0-3.5-2.8-6.3-6.3-6.3H207
	C203.5,393.4,200.7,396.2,200.7,399.7z"/>
<path class="st1" d="M212.3,412.2c0,1.1-0.9,1.9-1.9,1.9s-1.9-0.9-1.9-1.9c0-1.1,0.9-1.9,1.9-1.9S212.3,411.1,212.3,412.2
	 M207.2,412.2c0,1.8,1.4,3.2,3.2,3.2s3.2-1.4,3.2-3.2c0-1.8-1.4-3.2-3.2-3.2C208.6,409,207.2,410.4,207.2,412.2"/>
<path class="st2" d="M212.3,412.2c0,1.1-0.9,1.9-1.9,1.9s-1.9-0.9-1.9-1.9c0-1.1,0.9-1.9,1.9-1.9S212.3,411.1,212.3,412.2z
	 M207.2,412.2c0,1.8,1.4,3.2,3.2,3.2s3.2-1.4,3.2-3.2c0-1.8-1.4-3.2-3.2-3.2C208.6,409,207.2,410.4,207.2,412.2z"/>
<path class="st1" d="M257.2,323.4c9.1,0,16.5,7.4,16.5,16.5v17.6c0,1.4-1.1,2.5-2.5,2.5h-37.4c-1.4,0-2.5-1.1-2.5-2.5V340
	c0-9.1,7.4-16.5,16.5-16.5h9.4V323.4z M233.9,361h37.4c1.9,0,3.4-1.5,3.4-3.4V340c0-9.6-7.8-17.5-17.5-17.5h-9.3
	c-9.6,0-17.5,7.8-17.5,17.5v17.6C230.4,359.4,232,361,233.9,361"/>
<path class="st2" d="M257.2,323.4c9.1,0,16.5,7.4,16.5,16.5v17.6c0,1.4-1.1,2.5-2.5,2.5h-37.4c-1.4,0-2.5-1.1-2.5-2.5V340
	c0-9.1,7.4-16.5,16.5-16.5h9.4V323.4z M233.9,361h37.4c1.9,0,3.4-1.5,3.4-3.4V340c0-9.6-7.8-17.5-17.5-17.5h-9.3
	c-9.6,0-17.5,7.8-17.5,17.5v17.6C230.4,359.4,232,361,233.9,361z"/>
<path class="st1" d="M257.2,327.6c6.8,0,12.4,5.6,12.4,12.4v10.2c0,1.2-1,2.2-2.2,2.2h-29.8c-1.2,0-2.2-1-2.2-2.2V340
	c0-6.8,5.6-12.4,12.4-12.4H257.2z M237.7,353.3h29.8c1.7,0,3.1-1.4,3.1-3.1V340c0-7.4-6-13.3-13.3-13.3H248c-7.4,0-13.3,6-13.3,13.3
	v10.2C234.6,351.9,236,353.3,237.7,353.3"/>
<path class="st2" d="M257.2,327.6c6.8,0,12.4,5.6,12.4,12.4v10.2c0,1.2-1,2.2-2.2,2.2h-29.8c-1.2,0-2.2-1-2.2-2.2V340
	c0-6.8,5.6-12.4,12.4-12.4H257.2z M237.7,353.3h29.8c1.7,0,3.1-1.4,3.1-3.1V340c0-7.4-6-13.3-13.3-13.3H248c-7.4,0-13.3,6-13.3,13.3
	v10.2C234.6,351.9,236,353.3,237.7,353.3z"/>
<path class="st1" d="M252.6,336.3c1.1,0,2.1,0.9,2.1,2.1c0,1.1-0.9,2.1-2.1,2.1c-1.1,0-2.1-0.9-2.1-2.1
	C250.5,337.2,251.4,336.3,252.6,336.3 M252.6,341.3c1.7,0,3-1.4,3-3c0-1.7-1.4-3-3-3c-1.7,0-3,1.3-3,3S250.9,341.3,252.6,341.3"/>
<path class="st2" d="M252.6,336.3c1.1,0,2.1,0.9,2.1,2.1c0,1.1-0.9,2.1-2.1,2.1c-1.1,0-2.1-0.9-2.1-2.1
	C250.5,337.2,251.4,336.3,252.6,336.3z M252.6,341.3c1.7,0,3-1.4,3-3c0-1.7-1.4-3-3-3c-1.7,0-3,1.3-3,3S250.9,341.3,252.6,341.3z"/>
<rect x="231.1" y="203.8" class="st2" width="57.5" height="57.3"/>
<line class="st2" x1="287.8" y1="203.6" x2="231.3" y2="260.8"/>
<line class="st2" x1="230.7" y1="203.6" x2="287.2" y2="260.8"/>
<path class="st1" d="M322.2,632.2c1.1,1.1,2.7,1.7,4.7,1.7s3.5-0.6,4.6-1.7c1-1.1,1.6-2.8,1.6-4.9v-2.1c0-2.8-1-4.7-2.9-5.5
	c1.9-0.8,2.9-2.6,2.9-5.4v-0.7c0-2.1-0.5-3.7-1.6-4.9c-1-1.1-2.6-1.7-4.6-1.7s-3.6,0.6-4.7,1.7c-1.1,1.1-1.7,2.8-1.7,4.9v1.4h4.1
	v-1.7c0-1.7,0.7-2.6,2.1-2.6c0.7,0,1.2,0.2,1.6,0.7c0.4,0.4,0.5,1.2,0.5,2.3v1.5c0,1-0.2,1.7-0.6,2.1c-0.4,0.4-1,0.6-1.8,0.6h-1.6
	v3.8h1.4c1,0,1.6,0.3,2.1,0.8c0.4,0.5,0.6,1.4,0.6,2.6v2.1c0,1.1-0.2,1.9-0.5,2.3c-0.4,0.4-0.9,0.7-1.6,0.7c-1.4,0-2.1-0.9-2.1-2.6
	v-2.4h-4.1v2.2C320.5,629.4,321.1,631,322.2,632.2 M317.9,629.8h-4.1v3.8h4.1V629.8z M302.6,613.4c0-1.7,0.7-2.5,2.1-2.5
	s2.2,0.8,2.2,2.5v4.7c0,1.7-0.7,2.6-2.2,2.6c-1.4,0-2.1-0.9-2.1-2.6V613.4z M299.7,622.9c0.8,1,1.9,1.5,3.4,1.5
	c1.8,0,3.1-0.8,3.8-2.3v4.8c0,1.2-0.2,2-0.6,2.5s-1,0.7-1.7,0.7c-1.4,0-2.2-0.9-2.2-2.6v-0.9h-3.9v0.7c0,2.1,0.5,3.7,1.6,4.9
	c1,1.1,2.6,1.7,4.6,1.7c4.2,0,6.3-2.3,6.3-6.8v-13.5c0-2.1-0.5-3.7-1.6-4.9c-1.1-1.1-2.6-1.7-4.7-1.7c-2,0-3.6,0.6-4.6,1.7
	c-1.1,1.1-1.6,2.8-1.6,4.9v4.8C298.5,620.4,298.9,621.9,299.7,622.9"/>
<path class="st1" d="M345.1,568.7c0-0.9,0.2-1.6,0.5-2.1c0.3-0.4,0.9-0.7,1.6-0.7h2v8.1h-1.6c-0.8,0-1.4-0.2-1.8-0.6
	c-0.4-0.4-0.6-1.1-0.6-2.2v-2.5H345.1z M344.7,588.6c0.1-0.3,0.2-0.5,0.2-0.7s0.1-0.4,0.1-0.9c0-0.4,0.1-1,0.1-1.7v-4.1
	c0-1.2,0.2-2.1,0.6-2.6s1.1-0.8,2.1-0.8h1.4v10.7h4.1v-26.3h-6.2c-2.1,0-3.7,0.5-4.6,1.5c-1,1-1.5,2.5-1.5,4.6v2.1
	c0,2.7,0.9,4.5,2.7,5.3c-1,0.4-1.7,1.1-2.1,2s-0.6,2.1-0.6,3.6v4.1c0,1.4-0.1,2.5-0.4,3.2L344.7,588.6L344.7,588.6z M329.3,588.6
	v-11.3h4.7v11.3h4.1v-26.3H334v11.3h-4.7v-11.3h-4.1v26.3H329.3z M312.3,588.6l3.2-9.8l3.2,9.8h4.1l-4.6-13.4l4.3-12.9h-3.6
	l-3.2,9.7l-3.1-9.7h-4.1l4.3,12.7l-4.6,13.5h4.1V588.6z M298.3,582.5v0.2c-0.2,0.9-0.5,1.5-1.1,1.8s-1.4,0.4-2.6,0.3v3.7
	c1.1,0.1,2.1,0,2.9-0.1c0.8-0.2,1.5-0.4,2.1-0.7s1.1-0.8,1.5-1.4c0.4-0.6,0.7-1.2,1-2c0.3-0.7,0.5-1.6,0.7-2.6l4.4-19.6H303l-1.9,9
	l-1,6.1l-1.3-6.1l-2.2-9h-4.1L298.3,582.5z M282.4,588.6v-8.1l1.3-2.4l4,10.5h4.2l-5.7-14.6l5.7-11.7h-4.1l-5.4,11.5v-11.5h-4.1
	v26.3H282.4z"/>
<path class="st1" d="M357.6,829.2c2.1,0,3.6-0.4,4.5-1.3c0.9-0.9,1.3-2.3,1.3-4.4v-14.8c0-2.1-0.4-3.6-1.3-4.4
	c-0.9-0.9-2.4-1.3-4.5-1.3h-1.3v3.6h1c0.7,0,1.2,0.2,1.5,0.5s0.5,0.9,0.5,1.8v14.5c0,0.9-0.1,1.5-0.5,1.8c-0.3,0.3-0.8,0.5-1.5,0.5
	h-1v3.6L357.6,829.2L357.6,829.2z M350.3,806.6l-6,22.5h4.1l6.1-22.7v-3.6h-12.4v3.8H350.3z M339.5,825.4h-4.1v3.8h4.1V825.4z
	 M327.5,810.8v9.9h-4.2L327.5,810.8z M327.5,824.4v4.8h4.1v-4.8h1.9v-3.8h-1.9v-17.8h-4.5l-7.5,17.8v3.8H327.5z M312.7,827.9
	c0.9,0.9,2.4,1.3,4.5,1.3h1.3v-3.6h-1c-0.7,0-1.2-0.2-1.5-0.5s-0.4-0.9-0.4-1.8v-14.5c0-0.9,0.1-1.5,0.4-1.8s0.8-0.5,1.5-0.5h1v-3.6
	h-1.3c-2.1,0-3.6,0.4-4.5,1.3c-0.9,0.9-1.3,2.4-1.3,4.4v14.8C311.4,825.5,311.8,827,312.7,827.9 M297.4,810.8v9.9h-4.2L297.4,810.8z
	 M297.4,824.4v4.8h4.1v-4.8h1.9v-3.8h-1.9v-17.8H297l-7.5,17.8v3.8H297.4z M287.6,825.4h-4.1v3.8h4.1V825.4z M272.3,808.9
	c0-1.7,0.7-2.5,2.1-2.5s2.2,0.8,2.2,2.5v4.7c0,1.7-0.7,2.6-2.2,2.6c-1.4,0-2.1-0.9-2.1-2.6V808.9z M269.4,818.5
	c0.8,1,1.9,1.5,3.4,1.5c1.8,0,3.1-0.8,3.8-2.3v4.8c0,1.2-0.2,2-0.6,2.5s-1,0.7-1.7,0.7c-1.4,0-2.2-0.9-2.2-2.6v-0.9h-3.9v0.7
	c0,2.1,0.5,3.7,1.6,4.9c1,1.1,2.6,1.7,4.6,1.7c4.2,0,6.3-2.3,6.3-6.8v-13.5c0-2.1-0.5-3.7-1.6-4.9c-1.1-1.1-2.6-1.7-4.7-1.7
	c-2,0-3.6,0.6-4.6,1.7c-1.1,1.1-1.6,2.8-1.6,4.9v4.8C268.2,815.9,268.6,817.4,269.4,818.5"/>
<path class="st1" d="M997.1,563.5c0-1.7,0.7-2.6,2.2-2.6c1.4,0,2.1,0.9,2.1,2.6v14.2c0,1.7-0.7,2.6-2.1,2.6c-1.4,0-2.2-0.9-2.2-2.6
	V563.5z M994.6,582.3c1.1,1.1,2.6,1.7,4.7,1.7c2,0,3.6-0.6,4.6-1.7c1.1-1.1,1.6-2.8,1.6-4.9v-13.7c0-2.1-0.5-3.7-1.6-4.9
	c-1.1-1.1-2.6-1.7-4.6-1.7s-3.6,0.6-4.7,1.7c-1.1,1.1-1.6,2.8-1.6,4.9v13.7C993,579.5,993.5,581.2,994.6,582.3 M990.5,580h-4.1v3.8
	h4.1V580z M975.2,563.5c0-1.7,0.7-2.5,2.1-2.5c1.4,0,2.2,0.9,2.2,2.5v4.7c0,1.7-0.7,2.6-2.2,2.6c-1.4,0-2.1-0.9-2.1-2.6V563.5z
	 M972.2,573c0.8,1,1.9,1.5,3.4,1.5c1.8,0,3.1-0.8,3.8-2.3v4.8c0,1.2-0.2,2-0.6,2.5c-0.4,0.5-1,0.7-1.7,0.7c-1.4,0-2.2-0.9-2.2-2.6
	v-0.9H971v0.7c0,2.1,0.5,3.7,1.6,4.9c1,1.1,2.6,1.7,4.6,1.7c4.2,0,6.3-2.3,6.3-6.8v-13.4c0-2.1-0.5-3.7-1.6-4.9
	c-1.1-1.1-2.6-1.7-4.7-1.7s-3.6,0.6-4.6,1.7c-1.1,1.1-1.6,2.8-1.6,4.9v4.8C971.1,570.5,971.5,572,972.2,573 M962.4,563.7v20h4.1
	v-26.3h-2.8c-0.2,0.4-0.3,0.8-0.4,1c-0.1,0.3-0.3,0.6-0.5,0.9c-0.2,0.3-0.5,0.6-0.8,0.8s-0.7,0.3-1.2,0.5c-0.5,0.1-1,0.2-1.6,0.2
	v2.9L962.4,563.7L962.4,563.7z"/>
<path class="st1" d="M1074.6,517.1l2,13.2h-4L1074.6,517.1z M1071.3,538.7l0.7-4.8h5.1l0.7,4.8h4.1l-4.2-26.3h-6.4l-4.2,26.3H1071.3
	z M1058,516.2v22.5h4.1v-22.5h4.3v-3.8h-12.8v3.8H1058z M1045.9,517.1l2,13.2h-4L1045.9,517.1z M1042.7,538.7l0.7-4.8h5.1l0.7,4.8
	h4.1l-4.2-26.3h-6.4l-4.2,26.3H1042.7z M1027.8,538.7v-11.3h4.7v11.3h4.1v-26.3h-4.1v11.3h-4.7v-11.3h-4.1v26.3H1027.8z
	 M1006.9,538.7v-18.5l3.1,18.5h3.9l2.9-18.8v18.8h4.1v-26.3h-5.9l-2.8,18.7l-3.1-18.7h-5.7v26.3H1006.9z M992.3,518.5
	c0-1.7,0.7-2.6,2.2-2.6c1.4,0,2.1,0.9,2.1,2.6v14.2c0,1.7-0.7,2.6-2.1,2.6c-1.4,0-2.2-0.9-2.2-2.6V518.5z M989.8,537.3
	c1.1,1.1,2.6,1.7,4.7,1.7c2,0,3.6-0.6,4.6-1.7c1.1-1.1,1.6-2.8,1.6-4.9v-13.7c0-2.1-0.5-3.7-1.6-4.9c-1.1-1.1-2.6-1.7-4.6-1.7
	s-3.6,0.6-4.7,1.7c-1.1,1.1-1.6,2.8-1.6,4.9v13.7C988.1,534.5,988.7,536.1,989.8,537.3 M977.1,538.7v-8.1l1.3-2.4l4,10.5h4.2
	l-5.7-14.6l5.7-11.7h-4.1l-5.4,11.5v-11.5H973v26.3H977.1z M955.9,518.9c0-0.9,0.2-1.6,0.5-2.1c0.3-0.4,0.9-0.7,1.6-0.7h2v8.1h-1.6
	c-0.8,0-1.4-0.2-1.8-0.6c-0.4-0.4-0.6-1.1-0.6-2.2v-2.5H955.9z M955.5,538.7c0.1-0.3,0.2-0.5,0.2-0.7s0.1-0.4,0.1-0.9
	c0-0.4,0.1-1,0.1-1.7v-4.1c0-1.2,0.2-2.1,0.6-2.6c0.4-0.5,1.1-0.8,2.1-0.8h1.4v10.7h4.1v-26.3h-6.2c-2.1,0-3.7,0.5-4.6,1.5
	c-1,1-1.5,2.5-1.5,4.6v2.1c0,2.7,0.9,4.5,2.7,5.3c-1,0.4-1.7,1.1-2.1,2c-0.4,0.9-0.6,2.1-0.6,3.6v4.1c0,1.4-0.1,2.5-0.4,3.2
	L955.5,538.7L955.5,538.7z M943.1,517.1l2,13.2h-4L943.1,517.1z M939.9,538.7l0.7-4.8h5.1l0.7,4.8h4.1l-4.2-26.3h-6.4l-4.2,26.3
	H939.9z M919.4,538.7c2.1,0,3.6-0.5,4.5-1.5s1.4-2.7,1.5-5.1l0.5-15.9h3.6v22.5h4.1v-26.3h-11.8l-0.5,19.9c0,0.6-0.1,1.1-0.2,1.4
	c-0.1,0.4-0.2,0.6-0.5,0.8c-0.2,0.2-0.5,0.3-0.7,0.4c-0.3,0-0.7,0.1-1.2,0.1v3.8h0.7V538.7z M908.1,538.7l3.5-12l1.7-6.4v18.5h4.1
	v-26.3h-4.9l-3.4,10.8l-1.5,5.8v-16.6h-3.7v26.3L908.1,538.7L908.1,538.7z M884.2,538.7L888,527l1,2v9.7h4.1v-9.6l1-2l3.8,11.6h4.1
	l-5.1-15.6l5.1-10.7h-4l-4.9,10.6v-10.6H889V523l-4.9-10.6h-4l5.1,10.8l-5.1,15.5H884.2z"/>
<path class="st1" d="M660.6,296.1v20.1h4.1v-26.3H662c-0.2,0.4-0.3,0.8-0.4,1c-0.1,0.3-0.3,0.6-0.5,0.9s-0.5,0.6-0.8,0.8
	c-0.3,0.2-0.7,0.3-1.2,0.5c-0.5,0.1-1,0.2-1.6,0.2v2.9h3.1V296.1z M652.1,312.3H648v3.8h4.1V312.3z M636.9,305.3
	c0-1.7,0.7-2.6,2.1-2.6c1.4,0,2.1,0.9,2.1,2.6v4.7c0,1.7-0.7,2.6-2.1,2.6c-1.4,0-2.1-0.9-2.1-2.6V305.3z M634.4,314.7
	c1.1,1.1,2.6,1.7,4.6,1.7s3.6-0.6,4.6-1.7c1.1-1.1,1.6-2.8,1.6-4.9V305c0-2-0.4-3.4-1.1-4.5c-0.8-1-1.9-1.5-3.4-1.5
	c-1.8,0-3.1,0.8-3.8,2.3v-4.8c0-1.2,0.2-2,0.6-2.5c0.4-0.5,0.9-0.7,1.7-0.7c1.4,0,2.1,0.9,2.1,2.6v0.9h3.9v-0.7
	c0-2.1-0.5-3.7-1.6-4.9c-1-1.1-2.6-1.7-4.6-1.7c-4.2,0-6.3,2.3-6.3,6.8v13.4C632.8,311.9,633.3,313.5,634.4,314.7"/>
<path class="st1" d="M695.3,248.6h2c0.7,0,1.2,0.2,1.5,0.6s0.5,1,0.5,1.9v3.9c0,0.9-0.2,1.5-0.5,1.9s-0.8,0.6-1.5,0.6h-2V248.6z
	 M695.3,271.1v-9.9h2c2,0,3.6-0.6,4.6-1.7s1.5-2.7,1.5-4.8v-3.4c0-2.1-0.5-3.7-1.5-4.8s-2.6-1.7-4.6-1.7h-6.1v26.3H695.3z
	 M680.1,250.8c0-1.7,0.7-2.6,2.2-2.6c1.4,0,2.1,0.9,2.1,2.6V265c0,1.7-0.7,2.6-2.1,2.6c-1.4,0-2.2-0.9-2.2-2.6V250.8z M677.6,269.6
	c1.1,1.1,2.6,1.7,4.7,1.7c2,0,3.6-0.6,4.6-1.7c1.1-1.1,1.6-2.8,1.6-4.9V251c0-2.1-0.5-3.7-1.6-4.9c-1.1-1.1-2.6-1.7-4.6-1.7
	s-3.6,0.6-4.7,1.7s-1.6,2.8-1.6,4.9v13.7C676,266.9,676.5,268.5,677.6,269.6 M663.5,266.1c0.2-0.5,0.3-1.2,0.4-2.2l0.8-15.3h3.5
	v18.8h-5.4C663.1,267,663.3,266.6,663.5,266.1 M661.2,274.6v-3.5h8.7v3.5h4.1v-7.2h-1.8v-22.5h-11.7l-0.8,19.1c0,0.8-0.1,1.5-0.3,2
	s-0.4,1-0.8,1.4H657v7.2H661.2z M646.2,271.1l3.5-12l1.7-6.4v18.5h4.1v-26.3h-4.9l-3.4,10.8l-1.5,5.8v-16.6H642v26.3L646.2,271.1
	L646.2,271.1z M632,248.6h2c0.7,0,1.2,0.2,1.5,0.6c0.3,0.4,0.5,1,0.5,1.9v3.9c0,0.9-0.2,1.5-0.5,1.9s-0.8,0.6-1.5,0.6h-2V248.6z
	 M632,271.1v-9.9h2c2,0,3.6-0.6,4.6-1.7s1.5-2.7,1.5-4.8v-3.4c0-2.1-0.5-3.7-1.5-4.8s-2.6-1.7-4.6-1.7h-6.1v26.3H632z M616.8,250.8
	c0-1.7,0.7-2.6,2.2-2.6c1.4,0,2.1,0.9,2.1,2.6V265c0,1.7-0.7,2.6-2.1,2.6c-1.4,0-2.2-0.9-2.2-2.6V250.8z M614.3,269.6
	c1.1,1.1,2.6,1.7,4.7,1.7c2,0,3.6-0.6,4.6-1.7c1.1-1.1,1.6-2.8,1.6-4.9V251c0-2.1-0.5-3.7-1.6-4.9c-1.1-1.1-2.6-1.7-4.6-1.7
	s-3.6,0.6-4.7,1.7c-1.1,1.1-1.6,2.8-1.6,4.9v13.7C612.6,266.9,613.2,268.5,614.3,269.6 M601.6,271.1V263l1.3-2.4l4,10.5h4.2
	l-5.7-14.6l5.7-11.7H607l-5.4,11.5v-11.5h-4.1v26.3L601.6,271.1L601.6,271.1z"/>
<path class="st1" d="M668,560.7l-6,22.5h4.1l6.1-22.7V557h-12.4v3.8L668,560.7L668,560.7z M657.2,579.5h-4.1v3.8h4.1V579.5z
	 M650.2,583.3v-3.8h-7.8c0-0.1,0-0.3,0-0.6c0-0.6,0.2-1.2,0.5-1.8s0.7-1.2,1.2-1.8s1-1.2,1.6-1.8s1.2-1.3,1.7-2
	c0.6-0.7,1.1-1.5,1.6-2.3s0.9-1.7,1.2-2.7s0.5-2.1,0.5-3.2c0-2.1-0.5-3.7-1.6-4.9c-1-1.1-2.6-1.7-4.6-1.7s-3.5,0.6-4.6,1.7
	c-1.1,1.1-1.6,2.8-1.6,4.9v2.6h3.9V563c0-1.7,0.7-2.6,2.1-2.6c0.7,0,1.2,0.2,1.6,0.7c0.4,0.4,0.5,1.2,0.5,2.3c0,1-0.1,2-0.4,2.9
	c-0.3,0.9-0.7,1.7-1.2,2.4s-1,1.3-1.6,2c-0.6,0.6-1.2,1.3-1.7,2c-0.6,0.7-1.1,1.3-1.6,2s-0.9,1.5-1.2,2.4s-0.5,1.9-0.5,2.9v3.2
	L650.2,583.3L650.2,583.3z M629.1,563.2v20h4.1V557h-2.8c-0.2,0.4-0.3,0.8-0.4,1c-0.1,0.3-0.3,0.6-0.5,0.9c-0.2,0.3-0.5,0.6-0.8,0.8
	s-0.7,0.3-1.2,0.5c-0.5,0.1-1,0.2-1.6,0.2v2.9h3.2V563.2z"/>
<path class="st1" d="M741.3,516.7l2,13.2h-4L741.3,516.7z M738.1,538.2l0.7-4.8h5.1l0.7,4.8h4.1l-4.2-26.3h-6.4l-4.2,26.3H738.1z
	 M724.8,515.7v22.5h4.1v-22.5h4.3V512h-12.8v3.8L724.8,515.7L724.8,515.7z M712.7,516.7l2,13.2h-4L712.7,516.7z M709.4,538.2
	l0.7-4.8h5.1l0.7,4.8h4.1l-4.2-26.3h-6.4l-4.2,26.3H709.4z M694.5,538.2V527h4.7v11.3h4.1V512h-4.1v11.3h-4.7V512h-4.1v26.3
	L694.5,538.2L694.5,538.2z M673.6,538.2v-18.5l3.1,18.5h3.9l2.9-18.8v18.8h4.1V512h-5.9l-2.8,18.7l-3.1-18.7h-5.7v26.3L673.6,538.2
	L673.6,538.2z M659,518c0-1.7,0.7-2.6,2.2-2.6c1.4,0,2.1,0.9,2.1,2.6v14.2c0,1.7-0.7,2.6-2.1,2.6c-1.4,0-2.2-0.9-2.2-2.6V518z
	 M656.5,536.8c1.1,1.1,2.6,1.7,4.7,1.7c2,0,3.6-0.6,4.6-1.7c1.1-1.1,1.6-2.8,1.6-4.9v-13.7c0-2.1-0.5-3.7-1.6-4.9
	c-1.1-1.1-2.6-1.7-4.6-1.7s-3.6,0.6-4.7,1.7c-1.1,1.1-1.6,2.8-1.6,4.9v13.7C654.9,534,655.4,535.7,656.5,536.8 M643.8,538.2v-8.1
	l1.3-2.4l4,10.5h4.2l-5.7-14.6l5.7-11.7h-4.1l-5.4,11.5V512h-4.1v26.3L643.8,538.2L643.8,538.2z M622.7,518.4c0-0.9,0.2-1.6,0.5-2.1
	c0.3-0.4,0.9-0.7,1.6-0.7h2v8.1h-1.6c-0.8,0-1.4-0.2-1.8-0.6c-0.4-0.4-0.6-1.1-0.6-2.2v-2.5H622.7z M622.3,538.2
	c0.1-0.3,0.2-0.5,0.2-0.7s0.1-0.4,0.1-0.9c0-0.4,0.1-1,0.1-1.7v-4.1c0-1.2,0.2-2.1,0.6-2.6c0.4-0.5,1.1-0.8,2.1-0.8h1.4v10.7h4.1
	V512h-6.2c-2.1,0-3.7,0.5-4.6,1.5c-1,1-1.5,2.5-1.5,4.6v2.1c0,2.7,0.9,4.5,2.7,5.3c-1,0.4-1.7,1.1-2.1,2c-0.4,0.9-0.6,2.1-0.6,3.6
	v4.1c0,1.4-0.1,2.5-0.4,3.2h4.1V538.2z M609.8,516.7l2,13.2h-4L609.8,516.7z M606.6,538.2l0.7-4.8h5.1l0.7,4.8h4.1L613,512h-6.4
	l-4.2,26.3L606.6,538.2L606.6,538.2z M586.2,538.3c2.1,0,3.6-0.5,4.5-1.5s1.4-2.7,1.5-5.1l0.5-15.9h3.6v22.5h4.1V512h-11.8
	l-0.5,19.9c0,0.6-0.1,1.1-0.2,1.4c-0.1,0.4-0.2,0.6-0.5,0.8c-0.2,0.2-0.5,0.3-0.7,0.4c-0.3,0-0.7,0.1-1.2,0.1v3.8h0.7V538.3z
	 M574.9,538.2l3.5-12l1.7-6.4v18.5h4.1V512h-4.9l-3.4,10.8l-1.5,5.8V512h-3.7v26.3L574.9,538.2L574.9,538.2z M550.9,538.2l3.8-11.7
	l1,2v9.7h4.1v-9.6l1-2l3.8,11.6h4.1l-5.1-15.6l5.1-10.7h-4l-4.9,10.6V512h-4.1v10.6l-4.9-10.6h-4l5.1,10.8l-5.1,15.5L550.9,538.2
	L550.9,538.2z"/>
<path class="st1" d="M430.3,335.8v-2.3h-4.7c0-0.1,0-0.2,0-0.3c0-0.3,0.1-0.7,0.3-1.1c0.2-0.4,0.4-0.7,0.7-1.1
	c0.3-0.3,0.6-0.7,1-1.1s0.7-0.8,1-1.2c0.3-0.4,0.7-0.9,1-1.4s0.5-1,0.7-1.6s0.3-1.3,0.3-1.9c0-1.3-0.3-2.2-0.9-2.9
	c-0.6-0.7-1.5-1-2.7-1s-2.1,0.3-2.8,1c-0.6,0.7-1,1.7-1,2.9v1.5h2.4v-1.7c0-1,0.4-1.6,1.3-1.6c0.4,0,0.7,0.1,0.9,0.4
	c0.2,0.3,0.3,0.7,0.3,1.4c0,0.6-0.1,1.2-0.3,1.7c-0.2,0.5-0.4,1-0.7,1.4c-0.3,0.4-0.6,0.8-1,1.2c-0.3,0.4-0.7,0.8-1,1.2
	c-0.3,0.4-0.7,0.8-1,1.2c-0.3,0.4-0.5,0.9-0.7,1.5s-0.3,1.1-0.3,1.8v1.9h7.2V335.8z M421.4,333.5h-2.5v2.3h2.5V333.5z M414.2,324.8
	v5.9h-2.5L414.2,324.8z M414.2,333v2.9h2.5V333h1.1v-2.3h-1.1V320H414l-4.5,10.7v2.3H414.2z"/>
<path class="st1" d="M453.3,296.9c0-0.6,0.1-1,0.3-1.2c0.2-0.3,0.5-0.4,1-0.4h1.2v4.8h-1c-0.5,0-0.9-0.1-1.1-0.4s-0.4-0.7-0.4-1.3
	V296.9z M453.1,308.8c0.1-0.2,0.1-0.3,0.1-0.4s0-0.3,0.1-0.5c0-0.3,0-0.6,0-1v-2.5c0-0.7,0.1-1.2,0.4-1.5s0.7-0.5,1.2-0.5h0.9v6.4
	h2.5V293h-3.7c-1.3,0-2.2,0.3-2.8,0.9c-0.6,0.6-0.9,1.5-0.9,2.7v1.2c0,1.6,0.5,2.7,1.6,3.2c-0.6,0.2-1,0.7-1.3,1.2
	c-0.2,0.6-0.4,1.3-0.4,2.1v2.4c0,0.9-0.1,1.5-0.2,1.9h2.5V308.8z M445.6,295.8l1.2,7.9h-2.4L445.6,295.8z M443.7,308.8l0.4-2.9h3
	l0.4,2.9h2.5l-2.5-15.8h-3.8l-2.5,15.8H443.7z M430,308.8l2.3-7l0.6,1.2v5.8h2.5V303l0.6-1.2l2.3,7h2.5l-3-9.3l3-6.4h-2.4l-2.9,6.4
	V293H433v6.4l-2.9-6.4h-2.4l3.1,6.5l-3.1,9.3H430z M421.6,296.6c0-1,0.4-1.6,1.3-1.6s1.3,0.5,1.3,1.6v8.5c0,1-0.4,1.6-1.3,1.6
	s-1.3-0.5-1.3-1.6V296.6z M420.1,307.9c0.7,0.7,1.6,1,2.8,1c1.2,0,2.1-0.3,2.8-1c0.6-0.7,1-1.7,1-2.9v-8.2c0-1.3-0.3-2.2-1-2.9
	c-0.6-0.7-1.6-1-2.8-1c-1.2,0-2.1,0.3-2.8,1c-0.7,0.7-1,1.7-1,2.9v8.2C419.1,306.3,419.5,307.2,420.1,307.9 M411.6,308.8l1.9-5.9
	l1.9,5.9h2.5l-2.8-8l2.6-7.7h-2.2l-1.9,5.8l-1.9-5.8h-2.5l2.6,7.6l-2.8,8.1H411.6z M402.6,308.8l2.1-7.2l1-3.9v11.1h2.5V293h-3
	l-2,6.5l-0.9,3.5v-10h-2.2v15.8H402.6z M394,295.3h1.2c0.4,0,0.7,0.1,0.9,0.3s0.3,0.6,0.3,1.1v2.4c0,0.5-0.1,0.9-0.3,1.2
	c-0.2,0.2-0.5,0.3-0.9,0.3H394V295.3z M394,308.8v-5.9h1.2c1.2,0,2.1-0.3,2.8-1c0.6-0.7,0.9-1.6,0.9-2.9v-2c0-1.3-0.3-2.2-0.9-2.9
	c-0.6-0.7-1.5-1-2.8-1h-3.6v15.8h2.4V308.8z M384.4,308.8v-13.5h2.8v13.5h2.5V293h-7.8v15.8H384.4z"/>
<path class="st1" d="M285.6,302.5c0-1,0.4-1.5,1.3-1.5s1.3,0.5,1.3,1.5v2.8c0,1-0.4,1.6-1.3,1.6s-1.3-0.5-1.3-1.6V302.5z
	 M283.8,308.2c0.5,0.6,1.1,0.9,2,0.9c1.1,0,1.9-0.5,2.3-1.4v2.9c0,0.7-0.1,1.2-0.3,1.5c-0.2,0.3-0.6,0.4-1,0.4
	c-0.9,0-1.3-0.5-1.3-1.6v-0.6h-2.3v0.4c0,1.3,0.3,2.2,0.9,2.9c0.6,0.7,1.5,1,2.7,1c2.5,0,3.8-1.4,3.8-4.1v-8.1c0-1.3-0.3-2.2-1-2.9
	c-0.6-0.7-1.6-1-2.8-1c-1.2,0-2.1,0.3-2.8,1c-0.6,0.7-1,1.7-1,2.9v2.9C283.1,306.7,283.3,307.6,283.8,308.2 M281.7,312.3h-2.5v2.3
	h2.5V312.3z M277.4,314.6v-2.3h-4.7c0-0.1,0-0.2,0-0.3c0-0.3,0.1-0.7,0.3-1.1c0.2-0.4,0.4-0.7,0.7-1.1c0.3-0.3,0.6-0.7,1-1.1
	c0.3-0.4,0.7-0.8,1-1.2c0.3-0.4,0.7-0.9,0.9-1.4c0.3-0.5,0.5-1,0.7-1.6s0.3-1.3,0.3-1.9c0-1.3-0.3-2.2-0.9-2.9c-0.6-0.7-1.5-1-2.7-1
	s-2.1,0.3-2.8,1c-0.6,0.7-1,1.7-1,2.9v1.5h2.4v-1.7c0-1,0.4-1.6,1.3-1.6c0.4,0,0.7,0.1,1,0.4c0.2,0.3,0.3,0.7,0.3,1.4
	c0,0.6-0.1,1.2-0.3,1.7c-0.2,0.5-0.4,1-0.7,1.4c-0.3,0.4-0.6,0.8-1,1.2c-0.3,0.4-0.7,0.8-1,1.2c-0.4,0.4-0.7,0.8-1,1.2
	c-0.3,0.4-0.5,0.9-0.7,1.5s-0.3,1.1-0.3,1.8v1.9h7.2V314.6z"/>
<path class="st1" d="M302.4,275.7c0-0.6,0.1-1,0.3-1.2c0.2-0.3,0.5-0.4,1-0.4h1.2v4.8h-1c-0.5,0-0.9-0.1-1.1-0.4
	c-0.3-0.3-0.4-0.7-0.4-1.3V275.7z M302.2,287.6c0.1-0.2,0.1-0.3,0.1-0.4s0-0.3,0.1-0.5c0-0.3,0-0.6,0-1v-2.5c0-0.7,0.1-1.2,0.4-1.5
	s0.7-0.5,1.2-0.5h0.9v6.4h2.5v-15.8h-3.7c-1.3,0-2.2,0.3-2.8,0.9c-0.6,0.6-0.9,1.5-0.9,2.7v1.2c0,1.6,0.5,2.7,1.6,3.2
	c-0.6,0.2-1,0.7-1.3,1.2c-0.2,0.6-0.4,1.3-0.4,2.1v2.4c0,0.9-0.1,1.5-0.2,1.9h2.5V287.6z M294.7,274.6l1.2,7.9h-2.4L294.7,274.6z
	 M292.8,287.6l0.4-2.9h3l0.4,2.9h2.5l-2.5-15.8h-3.8l-2.5,15.8H292.8z M283.8,287.6v-6.8h2.8v6.8h2.5v-15.8h-2.5v6.8h-2.8v-6.8h-2.5
	v15.8H283.8z M274.2,287.6v-6.8h2.8v6.8h2.5v-15.8H277v6.8h-2.8v-6.8h-2.5v15.8H274.2z M266.3,274.6l1.2,7.9h-2.4L266.3,274.6z
	 M264.4,287.6l0.4-2.9h3l0.4,2.9h2.5l-2.5-15.8h-3.8l-2.5,15.8H264.4z M255.9,274.1h1.2c0.4,0,0.8,0.1,1,0.4s0.3,0.7,0.3,1.2v0.9
	c0,0.6-0.1,1-0.4,1.3c-0.2,0.3-0.6,0.4-1.1,0.4h-1V274.1z M255.9,280.5h1.1c0.6,0,1,0.1,1.2,0.4s0.4,0.8,0.4,1.5v1.4
	c0,0.6-0.1,1-0.3,1.2c-0.2,0.2-0.5,0.4-1,0.4h-1.4L255.9,280.5L255.9,280.5z M257.3,287.6c1.2,0,2.2-0.3,2.8-1c0.6-0.6,1-1.6,1-2.8
	v-1.3c0-1.8-0.6-2.9-1.8-3.4c1.1-0.5,1.6-1.6,1.6-3.2v-0.6c0-1.2-0.3-2.1-0.9-2.7s-1.5-0.9-2.8-0.9h-3.7v15.8h3.8V287.6z"/>
<path class="st1" d="M1019.8,448.9v45.8h9.4v-60.1h-6.4c-0.4,1-0.7,1.8-1,2.4s-0.7,1.3-1.2,2s-1.2,1.3-1.8,1.7
	c-0.7,0.4-1.6,0.8-2.6,1c-1.1,0.3-2.3,0.4-3.7,0.4v6.7h7.3V448.9z M1005.4,486H996v8.7h9.4V486z M970.6,448.4c0-3.9,1.6-5.9,4.9-5.9
	c3.3,0,4.9,2,4.9,5.9v32.4c0,4-1.6,5.9-4.9,5.9c-3.3,0-4.9-2-4.9-5.9V448.4z M964.9,491.4c2.5,2.6,6,3.9,10.6,3.9s8.2-1.3,10.6-3.9
	c2.5-2.6,3.7-6.3,3.7-11.1V449c0-4.8-1.2-8.5-3.7-11.1s-6-3.9-10.6-3.9s-8.2,1.3-10.6,3.9c-2.5,2.6-3.7,6.3-3.7,11.1v31.2
	C961.2,485.1,962.4,488.8,964.9,491.4 M936.8,470.1c0-3.9,1.6-5.9,4.9-5.9c3.2,0,4.9,2,4.9,5.9v10.8c0,3.9-1.6,5.9-4.9,5.9
	c-3.3,0-4.9-2-4.9-5.9V470.1z M931.1,491.4c2.5,2.6,6,3.9,10.6,3.9s8.1-1.3,10.6-3.9s3.7-6.3,3.7-11.1v-11c0-4.5-0.9-7.9-2.6-10.2
	c-1.8-2.3-4.4-3.5-7.8-3.5c-4.2,0-7.1,1.8-8.8,5.3v-11c0-2.7,0.4-4.6,1.3-5.7c0.9-1.1,2.2-1.6,4-1.6c3.3,0,4.9,2,4.9,5.9v2.1h8.9
	V449c0-4.8-1.2-8.6-3.6-11.2c-2.4-2.6-5.9-3.9-10.4-3.9c-9.6,0-14.4,5.2-14.4,15.6v30.7C927.4,485.1,928.6,488.8,931.1,491.4"/>
<ellipse transform="matrix(0.7071 -0.7071 0.7071 0.7071 26.3433 801.7083)" class="st5" cx="980.9" cy="369.1" rx="52.6" ry="52.6"/>
<path class="st1" d="M990.1,393.4v-14l2.2-4.2l6.9,18.1h7.3l-9.9-25.2l9.9-20.3h-7.1l-9.4,19.8v-19.8h-7.1v45.5h7.2V393.4z
	 M977.9,393.4v-6.5h-13.4c0-0.2-0.1-0.5-0.1-1c0-1,0.3-2,0.8-3.1s1.2-2.1,2-3.1s1.8-2,2.8-3.1s2-2.3,3-3.5c1-1.3,1.9-2.6,2.7-3.9
	c0.8-1.4,1.5-3,2-4.7c0.5-1.8,0.8-3.7,0.8-5.6c0-3.7-0.9-6.5-2.7-8.5s-4.4-3-7.9-3s-6.1,1-7.9,3c-1.8,2-2.8,4.8-2.8,8.5v4.4h6.8
	v-4.9c0-3,1.2-4.5,3.7-4.5c1.2,0,2.1,0.4,2.7,1.1c0.6,0.8,0.9,2.1,0.9,4.1c0,1.8-0.3,3.4-0.8,5s-1.2,2.9-2,4.1s-1.8,2.3-2.8,3.5
	c-1,1.1-2,2.2-3,3.4c-1,1.1-1.9,2.3-2.8,3.5c-0.8,1.2-1.5,2.6-2,4.2s-0.8,3.3-0.8,5.1v5.6h20.8V393.4z"/>
<path class="st2" d="M572.9,357.6c0,0,0,11.8-5.2,26.6c-4.4,12.3-13.1,23.9-13.1,23.9l-78.3-45.5l1.8-2.9l78.5,45.5"/>
<rect x="571" y="354.1" class="st1" width="243.8" height="21.8"/>
<rect x="571" y="354.1" class="st2" width="243.8" height="21.8"/>
</svg>
