<?xml version="1.0" encoding="utf-8"?>
<!-- Generator: Adobe Illustrator 26.5.0, SVG Export Plug-In . SVG Version: 6.00 Build 0)  -->
<svg version="1.1" id="Слой_1" xmlns="http://www.w3.org/2000/svg" xmlns:xlink="http://www.w3.org/1999/xlink" x="0px" y="0px"
	 viewBox="0 0 1000 1000" style="enable-background:new 0 0 1000 1000;" xml:space="preserve">
<style type="text/css">
	.st0{fill:#DFEAF7;}
	.st1{fill:#FFFFFF;}
	.st2{fill:none;stroke:#373437;stroke-miterlimit:10.0001;}
	.st3{fill:none;stroke:#373437;stroke-miterlimit:10;}
	.st4{fill:none;stroke:#373437;stroke-miterlimit:10.0005;}
	.st5{fill:#373437;}
	.st6{fill:none;stroke:#373437;}
	.st7{fill:none;stroke:#373437;stroke-miterlimit:4.0001;}
</style>
<rect x="186.3" y="184.8" class="st0" width="634.8" height="497.5"/>
<rect x="412" y="657.2" transform="matrix(0.515 -0.8572 0.8572 0.515 -394.6039 691.7089)" class="st1" width="3.9" height="74.8"/>
<rect x="412" y="657.2" transform="matrix(0.515 -0.8572 0.8572 0.515 -394.6039 691.7089)" class="st2" width="3.9" height="74.8"/>
<path class="st3" d="M381,676.7c0,0-5.8,9.3-7.6,23.3c-1.1,8.1-0.8,14.5-0.8,14.5"/>
<rect x="714.5" y="657.2" transform="matrix(0.515 -0.8572 0.8572 0.515 -247.9385 950.993)" class="st1" width="3.9" height="74.8"/>
<rect x="714.5" y="657.2" transform="matrix(0.515 -0.8572 0.8572 0.515 -247.9385 950.993)" class="st2" width="3.9" height="74.8"/>
<path class="st3" d="M683.5,676.7c0,0-5.8,9.3-7.6,23.3c-1.1,8.1-0.8,14.5-0.8,14.5"/>
<rect x="448.3" y="683.3" class="st3" width="222.7" height="37.5"/>
<rect x="179.4" y="683.3" class="st3" width="189.2" height="37.5"/>
<rect x="457.4" y="711.9" class="st1" width="222.7" height="8.8"/>
<rect x="457.4" y="711.9" class="st3" width="222.7" height="8.8"/>
<rect x="187.2" y="711.9" class="st1" width="189.2" height="8.8"/>
<rect x="187.2" y="711.9" class="st3" width="189.2" height="8.8"/>
<rect x="500.5" y="854.6" class="st3" width="331.8" height="12.6"/>
<rect x="331.1" y="671.8" transform="matrix(0.1435 -0.9897 0.9897 0.1435 -540.8726 1050.4454)" class="st4" width="10.7" height="331.8"/>
<rect x="819.6" y="158.3" class="st5" width="17.7" height="709"/>
<rect x="503.6" y="683.3" class="st5" width="87.7" height="37.5"/>
<rect x="503.6" y="683.3" class="st3" width="87.7" height="37.5"/>
<rect x="435.5" y="683.3" class="st5" width="67.1" height="37.5"/>
<rect x="435.5" y="683.3" class="st3" width="67.1" height="37.5"/>
<rect x="741.6" y="683.3" class="st5" width="90.4" height="37.5"/>
<rect x="741.6" y="683.3" class="st3" width="87.6" height="37.5"/>
<rect x="732.9" y="711.9" class="st5" width="73" height="8.8"/>
<rect x="732.9" y="711.9" class="st3" width="73" height="8.8"/>
<rect x="525.3" y="711.9" class="st5" width="73" height="8.8"/>
<rect x="525.3" y="711.9" class="st3" width="73" height="8.8"/>
<rect x="179.1" y="683.3" class="st5" width="66" height="37.5"/>
<rect x="179.1" y="683.3" class="st3" width="66" height="37.5"/>
<rect x="179.1" y="711.9" class="st5" width="73" height="8.8"/>
<rect x="179.1" y="711.9" class="st3" width="73" height="8.8"/>
<rect x="167.4" y="158.3" class="st5" width="17.7" height="663.4"/>
<rect x="167.4" y="170.9" class="st3" width="17.7" height="650.8"/>
<rect x="494.7" y="783.2" class="st5" width="17.7" height="83.9"/>
<rect x="494.7" y="783.2" class="st3" width="17.7" height="83.9"/>
<rect x="494.7" y="315.3" class="st5" width="17.7" height="406.1"/>
<rect x="494.7" y="315.3" class="st3" width="17.7" height="406.1"/>
<rect x="494.7" y="163.9" class="st5" width="17.7" height="80.6"/>
<rect x="494.7" y="170.9" class="st3" width="17.7" height="73.5"/>
<rect x="428.3" y="711.9" class="st5" width="73" height="8.8"/>
<rect x="428.3" y="711.9" class="st3" width="73" height="8.8"/>
<rect x="166.7" y="158.3" class="st5" width="382.2" height="24.3"/>
<rect x="509.6" y="163.5" class="st3" width="40.4" height="19.1"/>
<rect x="637.6" y="163.5" class="st5" width="28.2" height="19.1"/>
<rect x="637.6" y="163.5" class="st3" width="28.2" height="19.1"/>
<rect x="654.9" y="266.3" class="st5" width="171.6" height="6.2"/>
<rect x="654.9" y="266.3" class="st3" width="171.6" height="6.2"/>
<rect x="654.9" y="451.4" class="st5" width="171.6" height="6.2"/>
<rect x="654.9" y="451.4" class="st3" width="171.6" height="6.2"/>
<rect x="654.9" y="273.4" class="st5" width="6.2" height="70"/>
<rect x="654.9" y="273.4" class="st3" width="6.2" height="70"/>
<rect x="654.9" y="399.1" class="st5" width="6.2" height="58"/>
<rect x="654.9" y="399.1" class="st3" width="6.2" height="58"/>
<rect x="626.2" y="432.1" class="st5" width="33.8" height="6.2"/>
<rect x="626.2" y="432.1" class="st3" width="33.8" height="6.2"/>
<rect x="513.9" y="432.1" class="st5" width="35.4" height="6.2"/>
<rect x="513.9" y="432.1" class="st3" width="35.4" height="6.2"/>
<rect x="822" y="182.6" class="st5" width="10.4" height="506.6"/>
<rect x="822" y="158.3" class="st3" width="10.4" height="531.1"/>
<rect x="632.7" y="158.3" class="st5" width="199.3" height="26.7"/>
<rect x="657.9" y="175.3" class="st5" width="174" height="7.3"/>
<rect x="514.7" y="351.1" class="st3" width="25.5" height="77.7"/>
<line class="st3" x1="518.3" y1="430" x2="518.3" y2="350"/>
<polyline class="st3" points="518.3,424.2 536.1,422.4 536.1,412 518.3,409.9 "/>
<polyline class="st3" points="518.7,406.8 536.1,404.6 536.1,358 518.3,356.4 "/>
<rect x="793.1" y="185.8" class="st3" width="25.5" height="77.7"/>
<line class="st3" x1="796.9" y1="264.8" x2="796.9" y2="184.8"/>
<polyline class="st3" points="796.9,259 814.7,257.1 814.7,246.8 796.9,244.6 "/>
<polyline class="st3" points="797.3,241.5 814.7,239.4 814.7,192.8 796.9,191.3 "/>
<rect x="663.4" y="395.7" class="st3" width="36.3" height="52.9"/>
<line class="st3" x1="663.3" y1="395.4" x2="700" y2="448.9"/>
<line class="st3" x1="700" y1="395.4" x2="663.3" y2="448.9"/>
<path class="st3" d="M658.9,402.9l-31.6-50.2c0,0,6.5-4.2,16.4-6.5c9.8-2.2,17.7-1.8,17.7-1.8"/>
<path class="st3" d="M500.1,238.5l-41.8,66c0,0,8.7,5.5,21.8,8.4c13.1,2.9,23.4,2.4,23.4,2.4"/>
<path class="st3" d="M639.7,175.7l-76.3,48.6c0,0-6.3-10.1-9.8-25.3c-3.5-15.2-2.8-27.4-2.8-27.4"/>
<path class="st3" d="M547.3,438l66.9,38.5c0,0,5.5-8.7,8.6-21.8c3.1-13.1,2.4-23.6,2.4-23.6"/>
<path class="st3" d="M814.4,433.3c2.7,0,4.9-2.2,4.9-4.9v-23.6c0-2.7-2.2-4.9-4.9-4.9h-5.8c-2.7,0-4.9,2.2-4.9,4.9v23.6
	c0,2.7,2.2,4.9,4.9,4.9H814.4z"/>
<path class="st3" d="M757.3,416.6c0,9.3,7.6,16.7,17,16.7h24.8c2.4,0,4.4-2,4.4-4.2v-24.8c0-2.4-2-4.2-4.4-4.2h-24.8
	C764.9,399.9,757.3,407.4,757.3,416.6z"/>
<path class="st3" d="M763.2,416.4c0,6.6,5.5,12.1,12.2,12.1h18l0,0v-24.1l0,0h-18C768.7,404.3,763.2,409.8,763.2,416.4z"/>
<path class="st3" d="M811.6,414.8c-1,0-1.8,0.8-1.8,1.8c0,1,0.8,1.8,1.8,1.8c1,0,1.8-0.8,1.8-1.8
	C813.4,415.7,812.7,414.8,811.6,414.8z"/>
<path class="st3" d="M778.4,413.1c-1.8,0-3.4,1.4-3.4,3.2s1.5,3.2,3.4,3.2c1.8,0,3.4-1.4,3.4-3.2
	C781.6,414.5,780.2,413.1,778.4,413.1z"/>
<line class="st3" x1="791.1" y1="426" x2="783" y2="420.6"/>
<line class="st3" x1="791.1" y1="406.7" x2="783" y2="412.1"/>
<path class="st6" d="M668.7,298.9c0-11.8,9.5-21.3,21.3-21.3h105.4c11.8,0,21.3,9.5,21.3,21.3v19.4c0,11.8-9.5,21.3-21.3,21.3H690.1
	c-11.8,0-21.3-9.5-21.3-21.3V298.9z"/>
<path class="st6" d="M679,304.6c0-11.8,9.5-21.3,21.3-21.3h84.8c11.8,0,21.3,9.5,21.3,21.3v7.7c0,11.8-9.5,21.3-21.3,21.3h-84.8
	c-11.8,0-21.3-9.5-21.3-21.3V304.6z"/>
<path class="st6" d="M691.5,299.6c0-5.9,4.8-10.7,10.7-10.7h88c5.9,0,10.7,4.8,10.7,10.7v17.8c0,5.9-4.8,10.7-10.7,10.7h-88
	c-5.9,0-10.7-4.8-10.7-10.7V299.6z"/>
<path class="st6" d="M789.7,308.6c0,1.4-1.1,2.7-2.7,2.7c-1.4,0-2.7-1.1-2.7-2.7c0-1.4,1.1-2.7,2.7-2.7
	C788.5,305.9,789.7,307,789.7,308.6z"/>
<line class="st3" x1="661.6" y1="343.2" x2="824" y2="343.2"/>
<path class="st3" d="M816.2,392.1c1.7,0,3.1-1.4,3.1-3.1v-15.6v-5.9v-15.6c0-1.7-1.4-3.1-3.1-3.1c0,0-19.1,0-19.5,0.1
	c-8.6,1.7-14.9,9.4-14.9,18.4v5.9c0,9,6.3,16.8,14.9,18.5C797.2,392.1,816.2,392.1,816.2,392.1z"/>
<path class="st3" d="M810.5,387.7c1.4,0,2.4-1.1,2.4-2.4v-12.5v-4.8v-12.5c0-1.4-1.1-2.4-2.4-2.4c0,0-12.6,0-13.1,0.1
	c-6.9,1.4-11.9,7.6-11.9,14.7v4.8c0,7.2,5.1,13.5,11.9,14.7C797.7,387.7,810.5,387.7,810.5,387.7z"/>
<path class="st3" d="M796,370.5c0,0.8,0.7,1.5,1.5,1.5c0.8,0,1.5-0.7,1.5-1.5c0-0.8-0.7-1.5-1.5-1.5
	C796.7,368.9,796,369.6,796,370.5z"/>
<rect x="766.1" y="464.9" class="st3" width="52.5" height="52.3"/>
<path class="st3" d="M783,491c0,1.5,1.3,2.7,2.8,2.7c1.5,0,2.8-1.3,2.8-2.7c0-1.5-1.3-2.7-2.8-2.7C784.1,488.4,783,489.6,783,491z"
	/>
<path class="st3" d="M803.5,474.2c0-2.1-1.7-3.6-3.6-3.6h-24.4c-2.1,0-3.6,1.7-3.6,3.6V508c0,2.1,1.7,3.6,3.6,3.6h24.3
	c2.1,0,3.6-1.7,3.6-3.6v-33.8H803.5z"/>
<path class="st3" d="M799.3,478.1c0-2.1-1.7-3.6-3.6-3.6h-17c-2.1,0-3.6,1.7-3.6,3.6v26.1c0,2.1,1.7,3.6,3.6,3.6h17
	c2.1,0,3.6-1.7,3.6-3.6L799.3,478.1L799.3,478.1z"/>
<ellipse class="st7" cx="347.5" cy="355.3" rx="52.1" ry="52.1"/>
<path class="st5" d="M359.9,359l10.7,19.4h13.8L373,359.2c-1-1.8-2.9-3.5-4.2-4.2v-0.3c1.3-0.8,2.7-2.1,3.6-3.9l10.9-18h-13.2
	l-10.4,17.7h-3.1c0.4-2,0.6-3.8,0.6-5.6v-12.1H345v45.5h12.4v-15.2c0-1.3-0.1-2.8-0.6-4.2H359.9z M335.6,378.5V333h-12.4l-11.5,4.5
	l1.4,7.9l10.5-2.4c-0.4,1.8-0.4,3.6-0.4,5.3v30h12.4V378.5z"/>
<path class="st5" d="M430.9,456.5h-7v-24.6h-12.2l-2.5,9.3v15.3h-11.6c-1.4,0-2.2-0.8-1.5-2.5l13.1-33.7h-15.2L378.9,458
	c-2,4.6,1.3,9.3,6.3,9.3h23.9v12.5h14.7v-12.5h0.1l6.9-1.5V456.5z M364.2,465.1c-4.1,0-5.5,1.3-5.5,5.5v3.8c0,4.1,1.3,5.5,5.5,5.5
	h3.6c4.1,0,5.5-1.3,5.5-5.5v-3.8c0-4.2-1.3-5.5-5.5-5.5H364.2z M348.1,479.8v-59.5h-16.1l-15.2,5.9l2,10.2l13.8-3.1
	c-0.6,2.4-0.6,4.8-0.6,7v39.4H348.1z M315.9,456.5h-7v-24.6h-12.2l-2.5,9.3v15.3h-11.6c-1.4,0-2.2-0.8-1.5-2.5l13.1-33.7h-15.2
	L264,458c-2,4.6,1.3,9.3,6.3,9.3h23.9v12.5h14.7v-12.5h0.1l6.9-1.5V456.5z"/>
<path class="st5" d="M361.8,542.1c2.7,0,3.4,1.1,3.4,7.3s-0.7,7.3-3.4,7.3c-2.5,0-3.2-1.1-3.2-7.3S359.4,542.1,361.8,542.1
	 M362,537.2c-7,0-9.5,3.1-9.5,12.1c0,9.1,2.4,12.1,9.5,12.1c7.2,0,9.5-3.1,9.5-12.1S369,537.2,362,537.2 M346,555.3
	c-1.7,0-2.1,0.6-2.1,2.1v1.5c0,1.7,0.6,2.1,2.1,2.1h1.4c1.7,0,2.1-0.6,2.1-2.1v-1.5c0-1.7-0.6-2.1-2.1-2.1H346z M329.3,545.8
	c0-2.8,0.3-3.8,2.7-3.8c2.7,0,2.9,0.8,2.9,6c-1.1,0.7-1.8,0.8-2.9,0.8C329.8,548.8,329.3,548.1,329.3,545.8 M324.3,560.8
	c2.7,0.7,5.2,0.7,6.5,0.7c7.4,0,10.2-1.7,10.2-12.4c0-9.4-1.5-11.8-9-11.8c-6.7,0-8.7,2.5-8.7,8.6c0,4.2,1.5,7.3,6.7,7.3
	c2.1,0,3.5-0.3,4.8-1.4c-0.1,3.9-1,5.2-4.1,5.2c-2.9,0-4.1,0-6.2,0L324.3,560.8z M319.4,561.1v-23.3h-6.3l-5.9,2.2l0.7,4.1l5.5-1.3
	c-0.1,1-0.3,1.8-0.3,2.8v15.4H319.4z"/>
<path class="st5" d="M459.8,514.6c0-0.8,0.4-1.3,1.4-1.3h3.5v2.1c-1.1,0.7-2.2,1.1-3.2,1.1c-1.1,0-1.7-0.4-1.7-1.4V514.6z
	 M455.1,508c2.8-0.1,5.5-0.3,7.2-0.3c1.8,0,2.2,0.6,2.4,2v0.4h-5.6c-3.4,0-5.3,1.7-5.3,4.4v1.7c0,3.1,2.5,4.8,5.6,4.8
	c2.9,0,4.8-1.5,6-2.9l0.6,2.5h4.9v-10.7c0-5.1-2.5-6.6-7-6.6c-2.5,0-6.7,0.4-9.3,0.8L455.1,508z M452.3,508.3v-4.6h-16.7v4.6h5.3
	v12.2h6.2v-12.2L452.3,508.3L452.3,508.3z M422.4,514.6c0-0.8,0.4-1.3,1.4-1.3h3.5v2.1c-1.1,0.7-2.2,1.1-3.2,1.1
	c-1.1,0-1.7-0.4-1.7-1.4V514.6z M417.8,508c2.8-0.1,5.5-0.3,7.2-0.3c1.8,0,2.2,0.6,2.4,2v0.4h-5.6c-3.4,0-5.3,1.7-5.3,4.4v1.7
	c0,3.1,2.5,4.8,5.6,4.8c2.9,0,4.8-1.5,6-2.9l0.6,2.5h4.9v-10.7c0-5.1-2.5-6.6-7-6.6c-2.5,0-6.7,0.4-9.3,0.8L417.8,508z M413.6,503.7
	h-6v5.9h-5.2v-5.9h-6v16.8h6v-6.7h5.2v6.7h6V503.7z M385.1,503.7c-1.3,0-2.1,0.7-2.2,1.8l-1.4,6.3c-0.1,0.8-0.1,1.7-0.3,2.5h-0.3
	c-0.1-0.8-0.1-1.7-0.3-2.5l-1.5-6.3c-0.1-1.3-1-1.8-2.2-1.8h-5.2c-1.4,0-2.1,0.7-2.1,2.1l-0.4,14.7h5.5l0.3-12.4h0.4l2,8.1
	c0.3,1.3,1,1.8,2.4,1.8h2.8c1.3,0,2.1-0.6,2.2-1.8l2-8.1h0.4l0.4,12.4h5.5l-0.4-14.7c0-1.4-0.7-2.1-2.1-2.1L385.1,503.7L385.1,503.7
	z M357.2,507.6c2.1,0,2.7,0.8,2.7,4.6c0,3.6-0.6,4.5-2.7,4.5s-2.7-0.8-2.7-4.5C354.5,508.4,355.1,507.6,357.2,507.6 M357.2,503.2
	c-6.6,0-9.1,2.4-9.1,8.8c0,6.5,2.4,8.8,9.1,8.8c6.6,0,9-2.4,9-8.8C366.2,505.6,363.8,503.2,357.2,503.2 M340.3,511.7
	c3.9-0.6,3.6-0.8,5.8-8h-6.2c-1.4,5.6-1.5,6-3.9,6h-0.7c0.1-0.7,0.3-1.4,0.3-2.1v-3.9h-6.2v16.8h6.2v-5.3c0-0.4,0-0.8-0.1-1.4h1.4
	c1.8,0,2,0.4,3.6,6.6h6.5c-2.4-8-2.4-8.1-6.5-8.7l0,0H340.3z M312.6,511.2h-2.4c-1.5,0-2-0.4-2-2.1c0-1.3,0.3-1.5,2-1.5h2.4V511.2z
	 M306,513.3c-1,0.1-2.8,0.4-3.2,1.8l-1.3,5.3h6.3l1-4.5c0.1-0.8,0.6-1,1.5-1h2.2v5.5h5.9v-17c-2.1-0.3-3.9-0.3-8.4-0.3
	c-6.2,0-7.7,1.1-7.7,5.5C302.3,510.7,303.2,512.6,306,513.3L306,513.3z M288.1,514.6c0-0.8,0.4-1.3,1.4-1.3h3.5v2.1
	c-1.1,0.7-2.2,1.1-3.2,1.1c-1.1,0-1.7-0.4-1.7-1.4V514.6z M283.5,508c2.8-0.1,5.5-0.3,7.2-0.3c1.8,0,2.2,0.6,2.4,2v0.4h-5.6
	c-3.4,0-5.3,1.7-5.3,4.4v1.7c0,3.1,2.5,4.8,5.6,4.8c2.9,0,4.8-1.5,6-2.9l0.6,2.5h4.9v-10.7c0-5.1-2.5-6.6-7-6.6
	c-2.5,0-6.7,0.4-9.3,0.8L283.5,508z M279.3,503.7h-10.1c-2.9,0-4.4,1.5-4.6,4.4c-0.3,3.1-0.6,5.5-0.8,6.6c-0.4,1.4-1.4,1.3-2.8,1.5
	l0.6,4.5c3.6,0.6,7-0.3,7.7-4.4c0.3-1.7,0.7-4.5,1-7c0.1-1,0.6-1.4,1.5-1.4h1.4v12.8h6.2V503.7z M258.8,520.5v-16.8h-5.3l-5.3,8
	c-0.6,0.8-1,1.5-1.3,2.5h-0.1c0.1-1,0.3-1.7,0.3-2.7v-7.9h-5.5v16.8h5.3l5.2-7.7c0.4-0.7,1-1.8,1.4-2.8h0.1c-0.1,1.1-0.3,2-0.3,2.9
	v7.6H258.8z M231.4,508.1c4.5-0.6,4.6-2.7,7.2-11.1h-6.5c-2.1,7-2.5,9.1-4.8,9.1h-1.1c0.1-1,0.3-2,0.3-2.9v-6.2h-6v6.2
	c0,1,0.1,2,0.3,2.9h-1.1c-2.2,0-2.7-2.1-4.8-9.1h-6.5c2.5,8.4,2.5,10.4,7.2,11.1v0.1c-4.6,0.7-5.1,2.5-7.7,12.1h6.6
	c2.7-8.4,2.8-10,5.2-10h1.1c-0.1,0.7-0.3,1.5-0.3,2.1v7.9h6v-7.9c0-0.7-0.1-1.4-0.3-2.1h1.1c2.4,0,2.7,1.5,5.2,10h6.6
	c-2.8-9.5-3.1-11.4-7.7-12.1L231.4,508.1L231.4,508.1z"/>
<path class="st5" d="M682.2,595.9c2.5,0,3.1,0.6,3.1,3.1c0,2.4-0.6,2.9-3.1,2.9c-2.7,0-3.2-0.6-3.2-2.9
	C679,596.6,679.6,595.9,682.2,595.9 M682.2,586.5c2.4,0,2.8,0.6,2.8,2.8c0,2.1-0.4,2.5-2.8,2.5s-2.9-0.4-2.9-2.5
	C679.3,587,679.8,586.5,682.2,586.5 M677.2,593.9c-3.4,0.3-4.2,3.1-4.2,6.2c0,4.5,1.8,6.3,9.1,6.3c7.4,0,9.1-1.8,9.1-6.3
	c0-3.1-0.8-5.9-4.1-6.2v-0.1c2.5-0.3,3.5-2.8,3.5-5.3c0-4.4-1.5-6.3-8.6-6.3s-8.6,1.8-8.6,6.3C673.7,590.9,674.6,593.5,677.2,593.9
	L677.2,593.9z M666.5,600.2c-1.7,0-2.1,0.6-2.1,2.1v1.5c0,1.7,0.6,2.1,2.1,2.1h1.4c1.7,0,2.1-0.6,2.1-2.1v-1.5
	c0-1.7-0.6-2.1-2.1-2.1H666.5z M652.3,595.9c2.5,0,3.1,0.6,3.1,3.1c0,2.4-0.6,2.9-3.1,2.9c-2.7,0-3.2-0.6-3.2-2.9
	C649.1,596.6,649.7,595.9,652.3,595.9 M652.3,586.5c2.4,0,2.8,0.6,2.8,2.8c0,2.1-0.4,2.5-2.8,2.5c-2.4,0-2.9-0.4-2.9-2.5
	C649.4,587,649.9,586.5,652.3,586.5 M647.3,593.9c-3.4,0.3-4.2,3.1-4.2,6.2c0,4.5,1.8,6.3,9.1,6.3c7.4,0,9.1-1.8,9.1-6.3
	c0-3.1-0.8-5.9-4.1-6.2v-0.1c2.5-0.3,3.5-2.8,3.5-5.3c0-4.4-1.5-6.3-8.6-6.3s-8.6,1.8-8.6,6.3C643.8,590.9,644.7,593.5,647.3,593.9
	L647.3,593.9z"/>
<path class="st5" d="M710.4,556.1H708c-1.5,0-1.8-0.4-1.8-2.1c0-1.3,0.3-1.5,1.8-1.5h2.4V556.1z M703.8,558.2
	c-1,0.1-2.8,0.4-3.2,1.8l-1.3,5.3h6.3l1-4.5c0.1-0.8,0.6-1,1.5-1h2.2v5.5h5.9v-17c-2.1-0.3-3.9-0.3-8.4-0.3c-6.2,0-7.7,1.1-7.7,5.5
	C700.2,555.6,701,557.5,703.8,558.2L703.8,558.2z M696.8,548.6h-6v5.9h-5.2v-5.9h-6v16.8h6v-6.7h5.2v6.7h6V548.6z M671.6,565.4h6.2
	l-5.1-8.6l4.6-8.3h-6.2l-3.4,6.3l-3.4-6.3h-6.2l4.6,8.3l-5.1,8.6h6.2l3.6-6.7L671.6,565.4z M657.8,548.6h-6.6l-2.5,10
	c-0.1,0.8-0.4,1.8-0.7,2.8h-0.3c-0.1-1-0.3-2-0.4-2.8l-2.5-10h-6.5l5.2,15.3c0.3,0.8,1,1.4,2,1.4h1.1c-0.4,0.8-1.1,1.7-1.8,2
	c-1.1,0.6-2.5,0.8-4.6,0.7l-0.6,3.9c2.4,0.4,4.9,0.4,6.9-0.3c2.7-1,4.5-2.7,5.8-6.6L657.8,548.6z M630.3,553.2
	c4.6-0.6,4.8-2.7,7.3-11.1h-6.5c-1.8,7-2.2,9.1-5.5,9.1h-1.1c0.1-1,0.3-2,0.3-2.9v-6.2h-6.3v23.3h6.3v-7.9c0-0.7-0.1-1.4-0.3-2.1
	h1.3c3.2,0,3.5,1.5,5.9,10h6.6c-2.8-9.5-3.2-11.4-8-12.1L630.3,553.2L630.3,553.2z"/>
<path class="st5" d="M722.8,773.4c3.8,1.5,5.1,6.5,5.1,13.5c0,6.9-1.4,11.8-5.1,13.6l0.7,2.7c7.2-2,10.2-7.2,10.2-16.1
	c0-9.1-3.2-14.2-10.2-16.1L722.8,773.4z M705,774.1l0.3,5.1h10.1c-0.6,0.8-0.8,1.7-1.1,2.5l-5.6,15.7h6.2l7-20.2
	c0.6-1.7-0.6-3.1-2.4-3.1L705,774.1L705,774.1z M700.3,791.8c-1.7,0-2.1,0.6-2.1,2.1v1.5c0,1.7,0.6,2.1,2.1,2.1h1.4
	c1.7,0,2.1-0.6,2.1-2.1v-1.5c0-1.7-0.6-2.1-2.1-2.1H700.3z M695.8,788.4H693v-9.7h-4.8l-1,3.6v6h-4.6c-0.6,0-0.8-0.3-0.6-1l5.1-13.2
	h-5.9l-5.8,14.9c-0.7,1.8,0.6,3.6,2.5,3.6h9.4v4.9h5.8v-5.1l0,0l2.7-0.6L695.8,788.4L695.8,788.4z M675.1,770.7
	c-7.2,2-10.2,7-10.2,16.1c0,9,3.2,14,10.2,16.1l0.7-2.7c-3.8-1.7-5.1-6.6-5.1-13.6s1.4-11.9,5.1-13.5L675.1,770.7z M655.7,788.4
	h-2.8v-9.7h-4.8l-1,3.6v6h-4.6c-0.6,0-0.8-0.3-0.6-1l5.1-13.2h-5.9l-5.8,14.9c-0.7,1.8,0.6,3.6,2.5,3.6h9.4v4.9h5.8v-5.1l0,0
	l2.7-0.6L655.7,788.4L655.7,788.4z M629.6,791.8c-1.7,0-2.1,0.6-2.1,2.1v1.5c0,1.7,0.6,2.1,2.1,2.1h1.4c1.7,0,2.1-0.6,2.1-2.1v-1.5
	c0-1.7-0.6-2.1-2.1-2.1H629.6z M612.9,782.1c0-2.8,0.3-3.8,2.7-3.8c2.7,0,2.9,0.8,2.9,6c-1.1,0.7-1.8,0.8-2.9,0.8
	C613.5,785.2,612.9,784.6,612.9,782.1 M607.8,797.2c2.7,0.7,5.2,0.7,6.5,0.7c7.4,0,10.2-1.7,10.2-12.4c0-9.4-1.5-11.8-9-11.8
	c-6.7,0-8.7,2.5-8.7,8.6c0,4.2,1.5,7.3,6.7,7.3c2.1,0,3.5-0.3,4.8-1.4c-0.1,3.9-1,5.2-4.1,5.2c-2.9,0-4.1,0-6.2,0L607.8,797.2z"/>
<path class="st5" d="M591.4,303.5l0.1-3.2h-10.2l-0.4,7.3c0,0.7,0.6,1.4,1.3,1.4l2.5,0.3c2.2,0.1,2.9,0.6,2.9,2.1
	c-0.1,1.3-0.6,1.8-2.7,1.8c-1.1,0-2.7-0.1-4.2-0.1l-0.4,3.4c2.1,0.3,4.2,0.4,5.8,0.4c4.6,0,5.9-2.4,5.9-5.3c0-2.7-1-4.9-4.8-5.3
	l-2.7-0.4l0.1-2.2L591.4,303.5L591.4,303.5z M576,312.5c-1.1,0-1.5,0.4-1.5,1.5v1c0,1.1,0.4,1.5,1.5,1.5h1c1.1,0,1.5-0.4,1.5-1.5v-1
	c0-1.1-0.4-1.5-1.5-1.5H576z M572,303.5l0.1-3.2h-10.2l-0.4,7.3c0,0.7,0.6,1.4,1.3,1.4l2.5,0.3c2.2,0.1,2.9,0.6,2.9,2.1
	c-0.1,1.3-0.6,1.8-2.7,1.8c-1.1,0-2.7-0.1-4.2-0.1l-0.4,3.4c2.1,0.3,4.2,0.4,5.8,0.4c4.6,0,5.9-2.4,5.9-5.3c0-2.7-1-4.9-4.8-5.3
	l-2.7-0.4l0.1-2.2L572,303.5L572,303.5z"/>
<path class="st5" d="M631.6,281.6h-1.7c-1.1,0-1.3-0.3-1.3-1.4c0-0.8,0.3-1.1,1.3-1.1h1.7V281.6z M626.9,283.2c-0.7,0-2,0.3-2.2,1.3
	l-1,3.6h4.4l0.7-3.1c0.1-0.6,0.4-0.7,1.1-0.7h1.5v3.8h4.2v-11.8c-1.4-0.1-2.7-0.1-5.9-0.1c-4.4,0-5.3,0.8-5.3,3.8
	C624.4,281.4,625,282.6,626.9,283.2L626.9,283.2z M614.4,284c0-0.6,0.3-0.8,1-1h2.5v1.4c-0.8,0.6-1.5,0.8-2.2,0.8
	c-0.8,0-1.1-0.3-1.1-1V284H614.4z M611.2,279.4c2-0.1,3.8-0.1,5.1-0.1c1.3,0,1.5,0.4,1.7,1.4v0.3H614c-2.4,0-3.8,1.1-3.8,2.9v1.1
	c0,2.2,1.8,3.4,3.9,3.4c2.1,0,3.4-1,4.2-2l0.4,1.7h3.4v-7.4c0-3.5-1.7-4.6-4.9-4.6c-1.7,0-4.6,0.3-6.5,0.6L611.2,279.4z
	 M604.6,281.9c2.8-0.4,2.7-0.7,4.2-5.6h-4.2c-1.3,3.8-1.4,4.4-2.5,4.4h-0.7c0.1-0.6,0.1-1,0.1-1.4v-2.8h-3.8v2.8c0,0.4,0,1,0.1,1.4
	h-0.7c-1.1,0-1.3-0.4-2.5-4.4h-4.2c1.5,4.9,1.4,5.2,4.2,5.6v0.1c-2.8,0.4-2.9,0.6-4.6,6h4.4c1.5-4.5,1.5-4.8,2.7-4.8h1
	c-0.1,0.4-0.1,0.7-0.1,1v3.8h3.8v-3.8c0-0.3,0-0.7-0.1-1h0.7h0.1c1.1,0,1.1,0.3,2.7,4.8h4.4C607.6,282.6,607.4,282.5,604.6,281.9
	L604.6,281.9z M582.7,279.1c1.4,0,1.8,0.6,1.8,3.2c0,2.5-0.4,3.1-1.8,3.1c-1.4,0-1.8-0.6-1.8-3.1
	C580.9,279.7,581.2,279.1,582.7,279.1 M582.7,276c-4.6,0-6.3,1.7-6.3,6.2s1.7,6.2,6.3,6.2c4.6,0,6.3-1.7,6.3-6.2
	C589,277.7,587.3,276,582.7,276 M571.5,288.1h4.4l-3.5-6l3.2-5.8h-4.4l-2.4,4.4l-2.4-4.4h-4.4l3.2,5.8l-3.5,6h4.4l2.5-4.8
	L571.5,288.1z M560.7,288.2v-11.8h-3.8l-3.8,5.6c-0.4,0.6-0.7,1.1-0.8,1.7h-0.1c0.1-0.7,0.1-1.3,0.1-1.8v-5.5h-3.8v11.8h3.8l3.6-5.3
	c0.3-0.6,0.7-1.3,1-2h0.1c-0.1,0.8-0.1,1.4-0.1,2.1v5.3h3.8V288.2z M538.4,280.1c0.7-0.4,1.3-0.7,2.2-0.7c1.1,0,1.5,0.4,1.5,3.1
	c0,2.7-0.4,3.1-1.7,3.1c-0.8,0-1.4-0.3-2.1-0.4L538.4,280.1L538.4,280.1z M537.5,276.4H534v16.1h4.4v-2.5c0-0.8,0-1.7-0.1-2.5
	c1,0.8,2.4,1.1,3.8,1.1c2.9,0,4.5-1.3,4.5-6c0-4.1-1.1-6.3-4.2-6.3c-1.8,0-3.6,0.8-4.5,2L537.5,276.4z M531.4,271.8h-13.8v16.3h4.5
	v-13.3h4.8v13.3h4.5L531.4,271.8L531.4,271.8z"/>
<path class="st5" d="M753.4,391.8h-2v-6.7H748l-0.7,2.5v4.2h-3.2c-0.4,0-0.6-0.3-0.4-0.7l3.6-9.3h-4.2l-4.1,10.4
	c-0.6,1.3,0.4,2.5,1.7,2.5h6.6v3.4h4.1v-3.4l0,0l1.8-0.4v-2.5H753.4z M735.1,394c-1.1,0-1.5,0.4-1.5,1.5v1c0,1.1,0.4,1.5,1.5,1.5h1
	c1.1,0,1.5-0.4,1.5-1.5v-1c0-1.1-0.4-1.5-1.5-1.5H735.1z M720.4,384.9c1.3,0,2.8,0,4.5,0c1.7,0,2.1,0.3,2.1,1.5c0,1.1-0.1,1.8-2,1.8
	h-3.1v2.8h3.1c1.7,0,2.1,0.6,2.1,2c0,1.7-0.6,2-2.7,2c-1.4,0-2.5,0-4.5-0.1l-0.1,3.2c1.8,0.3,3.9,0.4,5.9,0.4c4.4,0,5.9-1.4,5.9-4.9
	c0-2.5-0.7-3.8-3.1-4.1v-0.1c2.1-0.3,2.7-1.8,2.7-4.1c0-2.9-1.5-3.8-5.5-3.8c-1.8,0-3.6,0.1-5.5,0.4L720.4,384.9z"/>
<path class="st5" d="M757,358h-4.6l-1.7,7c-0.1,0.6-0.3,1.3-0.6,2h-0.3c-0.1-0.7-0.3-1.4-0.3-2l-1.8-7h-4.6l3.6,10.8
	c0.1,0.6,0.7,1,1.4,1h0.8c-0.3,0.6-0.7,1.1-1.3,1.4c-0.7,0.4-1.8,0.6-3.2,0.6l-0.4,2.8c1.7,0.3,3.5,0.3,4.9-0.3
	c1.8-0.7,3.2-1.8,4.1-4.6L757,358z M733.9,371.6l9.3-18.1h-3.4l-9.3,18.1H733.9z M729.2,366c-1.5,0.1-2.8,0.1-5.2,0.1
	c-2,0-2.5-1-2.5-4.6c0-3.6,0.6-4.6,2.5-4.6c2.2,0,3.2,0,4.8,0l0.3-3.2c-1.5-0.4-2.7-0.6-5.2-0.6c-5.2,0-7.2,2.2-7.2,8.4
	c0,6.2,2,8.4,7.2,8.4c2.5,0,3.9-0.1,5.5-0.7L729.2,366z"/>
</svg>
