<?xml version="1.0" encoding="utf-8"?>
<!-- Generator: Adobe Illustrator 26.5.0, SVG Export Plug-In . SVG Version: 6.00 Build 0)  -->
<svg version="1.1" id="Слой_1" xmlns="http://www.w3.org/2000/svg" xmlns:xlink="http://www.w3.org/1999/xlink" x="0px" y="0px"
	 viewBox="0 0 1000 1000" style="enable-background:new 0 0 1000 1000;" xml:space="preserve">
<style type="text/css">
	.st0{fill:#F7CFD6;}
	.st1{fill:#FFFFFF;}
	.st2{fill:none;stroke:#373437;stroke-width:0.75;stroke-miterlimit:10.0001;}
	.st3{fill:none;stroke:#373437;stroke-width:0.75;stroke-miterlimit:10;}
	.st4{fill:none;stroke:#373437;stroke-miterlimit:10;}
	.st5{fill:#373437;}
	.st6{fill:none;stroke:#373437;stroke-width:0.75;stroke-miterlimit:9.9999;}
	.st7{fill:none;stroke:#373437;stroke-width:0.75;stroke-miterlimit:10;stroke-dasharray:2.669,2.669;}
	.st8{fill:none;stroke:#373437;stroke-width:0.75;}
	.st9{fill:none;stroke:#373437;stroke-width:0.75;stroke-miterlimit:4.0001;}
</style>
<rect x="506.4" y="225.3" class="st0" width="179.5" height="639"/>
<rect x="314.9" y="447" class="st0" width="212.8" height="417.3"/>
<rect x="550" y="198.4" transform="matrix(0.515 -0.8572 0.8572 0.515 78.6089 579.221)" class="st1" width="2.3" height="43.5"/>
<rect x="550" y="198.4" transform="matrix(0.515 -0.8572 0.8572 0.515 78.6089 579.221)" class="st2" width="2.3" height="43.5"/>
<path class="st3" d="M570.3,230.5c0,0,3.4-5.4,4.4-13.5c0.6-4.8,0.5-8.5,0.5-8.5"/>
<rect x="495.4" y="146.9" class="st4" width="200.2" height="5.9"/>
<rect x="495.4" y="146.9" class="st3" width="200.2" height="5.9"/>
<rect x="578.3" y="203.4" class="st3" width="120.4" height="21.8"/>
<rect x="574.2" y="203.4" class="st1" width="129.7" height="5.2"/>
<rect x="574.2" y="203.4" class="st3" width="129.7" height="5.2"/>
<rect x="684.2" y="146.8" class="st5" width="21.8" height="739.4"/>
<rect x="684.2" y="146.8" class="st3" width="21.8" height="739.4"/>
<rect x="651.1" y="864.3" class="st5" width="54.9" height="21.8"/>
<rect x="651.1" y="864.3" class="st3" width="54.9" height="21.8"/>
<rect x="624.2" y="203.4" class="st5" width="67" height="21.8"/>
<rect x="624.2" y="203.4" class="st3" width="67" height="21.8"/>
<rect x="309.3" y="864.3" class="st5" width="39.1" height="21.8"/>
<rect x="309.3" y="864.3" class="st3" width="39.1" height="21.8"/>
<rect x="500.4" y="864.3" class="st5" width="37.5" height="21.8"/>
<rect x="500.4" y="864.3" class="st3" width="37.5" height="21.8"/>
<rect x="499.3" y="203.4" class="st5" width="37.5" height="21.8"/>
<rect x="499.3" y="203.4" class="st3" width="37.5" height="21.8"/>
<rect x="461.6" y="864.3" class="st5" width="37.5" height="21.8"/>
<rect x="461.6" y="864.3" class="st3" width="37.5" height="21.8"/>
<rect x="533.2" y="864.3" class="st3" width="129.7" height="21.8"/>
<rect x="336.5" y="864.3" class="st3" width="129.7" height="21.8"/>
<rect x="500.4" y="881" class="st5" width="42.5" height="5.2"/>
<rect x="500.4" y="881" class="st3" width="42.5" height="5.2"/>
<rect x="499.3" y="203.4" class="st5" width="42.5" height="5.2"/>
<rect x="499.3" y="203.4" class="st3" width="42.5" height="5.2"/>
<rect x="305.4" y="443" class="st5" width="9.1" height="68.2"/>
<rect x="305.4" y="443" class="st3" width="9.1" height="68.2"/>
<rect x="305" y="563" class="st5" width="9.9" height="323"/>
<rect x="305.7" y="565.6" class="st3" width="9.1" height="320.4"/>
<rect x="456.5" y="881" class="st5" width="42.5" height="5.2"/>
<rect x="456.5" y="881" class="st3" width="42.5" height="5.2"/>
<rect x="647" y="881" class="st5" width="59" height="5.2"/>
<rect x="647" y="881" class="st3" width="59" height="5.2"/>
<rect x="620.1" y="203.4" class="st5" width="59" height="5.2"/>
<rect x="620.1" y="203.4" class="st3" width="59" height="5.2"/>
<rect x="309.9" y="881" class="st5" width="42.5" height="5.2"/>
<rect x="306" y="881" class="st3" width="46.5" height="5.2"/>
<rect x="495.4" y="146.8" class="st5" width="10.3" height="351.5"/>
<rect x="495.4" y="146.8" class="st3" width="10.3" height="351.5"/>
<rect x="495.4" y="545.5" class="st5" width="10.3" height="340.7"/>
<rect x="495.4" y="545.5" class="st3" width="10.3" height="340.7"/>
<rect x="550.5" y="563.4" class="st5" width="155.5" height="10.3"/>
<rect x="550.5" y="563.4" class="st3" width="155.5" height="10.3"/>
<rect x="306" y="563.4" class="st5" width="116.6" height="10.3"/>
<rect x="305" y="563.4" class="st3" width="117.6" height="10.3"/>
<rect x="468.5" y="563.4" class="st5" width="37.3" height="10.3"/>
<rect x="468.5" y="563.4" class="st3" width="37.3" height="10.3"/>
<rect x="550.5" y="410.4" class="st5" width="155.5" height="10.3"/>
<rect x="550.5" y="410.4" class="st3" width="155.5" height="10.3"/>
<rect x="567.4" y="417.9" class="st5" width="4.8" height="33.1"/>
<rect x="567.4" y="417.9" class="st3" width="4.8" height="33.1"/>
<rect x="568.1" y="482" class="st5" width="4.8" height="48.9"/>
<rect x="568.1" y="482" class="st3" width="4.8" height="48.9"/>
<rect x="305" y="441.1" class="st5" width="195" height="13.1"/>
<rect x="570.4" y="512.3" class="st5" width="119" height="4.8"/>
<rect x="570.4" y="512.3" class="st3" width="119" height="4.8"/>
<rect x="678.1" y="417.9" class="st5" width="9.2" height="99.2"/>
<rect x="678.1" y="417.9" class="st3" width="9.2" height="99.2"/>
<rect x="533.2" y="881" class="st3" width="129.7" height="5.2"/>
<rect x="336.5" y="881" class="st3" width="129.7" height="5.2"/>
<rect x="664.5" y="854.3" transform="matrix(0.7071 -0.7071 0.7071 0.7071 -410.3764 732.4902)" class="st5" width="29" height="14.7"/>
<rect x="664.5" y="854.3" transform="matrix(0.7071 -0.7071 0.7071 0.7071 -410.3764 732.4902)" class="st6" width="29" height="14.7"/>
<rect x="674.4" y="214.9" transform="matrix(0.7071 -0.7071 0.7071 0.7071 37.4638 549.2375)" class="st5" width="14.7" height="29"/>
<rect x="674.4" y="214.9" transform="matrix(0.7071 -0.7071 0.7071 0.7071 37.4638 549.2375)" class="st6" width="14.7" height="29"/>
<rect x="666.2" y="518.4" class="st3" width="16.7" height="43.8"/>
<line class="st3" x1="680.4" y1="562.8" x2="680.4" y2="517.8"/>
<polyline class="st3" points="680.4,559.5 668.8,558.5 668.8,552.7 680.4,551.5 "/>
<polyline class="st3" points="680.2,549.7 668.8,548.5 668.8,522.3 680.4,521.4 "/>
<rect x="649.4" y="518.4" class="st3" width="16.7" height="43.8"/>
<line class="st3" x1="663.7" y1="517.8" x2="663.7" y2="562.8"/>
<polyline class="st3" points="663.7,521 652,522.1 652,527.8 663.7,529 "/>
<polyline class="st3" points="663.4,530.8 652,532 652,558.3 663.7,559.1 "/>
<rect x="573.5" y="482" class="st3" width="32.3" height="29"/>
<line class="st3" x1="573.3" y1="482" x2="605.9" y2="511.1"/>
<line class="st3" x1="605.9" y1="482" x2="573.3" y2="511.1"/>
<path class="st3" d="M311.7,565.6l27-47c0,0-6.1-3.9-15.2-6c-9.2-2.1-16.5-1.7-16.5-1.7"/>
<path class="st3" d="M476.6,568.4l-47,27c0,0-3.9-6.1-6-15.2c-2.1-9.2-1.7-16.5-1.7-16.5"/>
<path class="st3" d="M505.2,413l39.2-22.7c0,0,3.2,5.1,5,12.8c1.8,7.7,1.4,13.9,1.4,13.9"/>
<path class="st3" d="M570.2,443.9l-19,32.5c0,0,4.3,2.7,10.7,4.1c6.5,1.5,11.6,1.2,11.6,1.2"/>
<path class="st3" d="M570.2,568.3l-19-32.5c0,0,4.3-2.7,10.7-4.1c6.5-1.5,11.6-1.2,11.6-1.2"/>
<path class="st3" d="M504.4,569.9l40.1,23.5c0,0,3.3-5.3,5.1-13.3s1.5-14.4,1.5-14.4"/>
<line class="st7" x1="504.1" y1="668.5" x2="685.9" y2="668.5"/>
<path class="st3" d="M645.3,551.7c1.6,0,2.9-1.3,2.9-2.9v-13.7c0-1.6-1.3-2.9-2.9-2.9h-3.4c-1.6,0-2.9,1.3-2.9,2.9v13.7
	c0,1.6,1.3,2.9,2.9,2.9H645.3z"/>
<path class="st3" d="M612,542c0,5.4,4.4,9.7,9.9,9.7h14.5c1.4,0,2.5-1.1,2.5-2.5v-14.5c0-1.4-1.1-2.5-2.5-2.5h-14.5
	C616.4,532.2,612,536.6,612,542z"/>
<path class="st3" d="M615.4,541.8c0,3.9,3.2,7,7.1,7H633l0,0v-14l0,0h-10.5C618.6,534.8,615.4,537.9,615.4,541.8z"/>
<path class="st3" d="M643.7,540.9c-0.6,0-1.1,0.5-1.1,1.1s0.5,1.1,1.1,1.1s1.1-0.5,1.1-1.1C644.7,541.4,644.3,540.9,643.7,540.9z"/>
<path class="st3" d="M624.3,539.9c-1.1,0-1.9,0.9-1.9,1.9c0,1.1,0.9,1.9,1.9,1.9c1.1,0,1.9-0.9,1.9-1.9
	C626.2,540.8,625.3,539.9,624.3,539.9z"/>
<line class="st3" x1="631.7" y1="547.4" x2="627" y2="544.2"/>
<line class="st3" x1="631.7" y1="536.2" x2="627" y2="539.4"/>
<path class="st8" d="M663.4,423.2c6.9,0,12.4,5.6,12.4,12.4V497c0,6.9-5.6,12.4-12.4,12.4h-11.3c-6.9,0-12.4-5.6-12.4-12.4v-61.4
	c0-6.9,5.6-12.4,12.4-12.4H663.4z"/>
<path class="st8" d="M660,429.2c6.9,0,12.4,5.6,12.4,12.4V491c0,6.9-5.6,12.4-12.4,12.4h-4.5c-6.9,0-12.4-5.6-12.4-12.4v-49.4
	c0-6.9,5.6-12.4,12.4-12.4H660z"/>
<path class="st8" d="M662.9,436.5c3.4,0,6.2,2.8,6.2,6.2v51.2c0,3.4-2.8,6.2-6.2,6.2h-10.4c-3.4,0-6.2-2.8-6.2-6.2v-51.2
	c0-3.4,2.8-6.2,6.2-6.2H662.9z"/>
<path class="st8" d="M657.7,493.7c-0.8,0-1.5-0.7-1.5-1.5s0.7-1.5,1.5-1.5s1.5,0.7,1.5,1.5C659.3,493,658.6,493.7,657.7,493.7z"/>
<line class="st3" x1="637.5" y1="419" x2="637.5" y2="513.7"/>
<path class="st3" d="M609.1,509.5c0,1,0.8,1.8,1.8,1.8h9.1h3.4h9.1c1,0,1.8-0.8,1.8-1.8c0,0,0-11.1-0.1-11.4c-1-5-5.5-8.7-10.7-8.7
	h-3.4c-5.3,0-9.8,3.7-10.8,8.7C609,498.3,609.1,509.5,609.1,509.5z"/>
<path class="st3" d="M611.6,506.1c0,0.8,0.6,1.4,1.4,1.4h7.3h2.7h7.3c0.8,0,1.4-0.6,1.4-1.4c0,0,0-7.4-0.1-7.6
	c-0.8-4-4.4-6.9-8.6-6.9h-2.7c-4.2,0-7.8,2.9-8.6,6.9C611.6,498.7,611.6,506.1,611.6,506.1z"/>
<path class="st3" d="M621.6,497.7c-0.5,0-0.9,0.4-0.9,0.9s0.4,0.9,0.9,0.9s0.9-0.4,0.9-0.9S622.1,497.7,621.6,497.7z"/>
<rect x="634.4" y="575" class="st3" width="30.5" height="30.6"/>
<path class="st3" d="M649.6,595.9c0.9,0,1.6-0.7,1.6-1.6s-0.7-1.6-1.6-1.6c-0.9,0-1.6,0.7-1.6,1.6S648.8,595.9,649.6,595.9z"/>
<path class="st3" d="M639.8,583.9c-1.2,0-2.1,1-2.1,2.2v14.2c0,1.2,1,2.1,2.1,2.1h19.7c1.2,0,2.2-1,2.2-2.1v-14.2
	c0-1.2-1-2.2-2.2-2.2H639.8z"/>
<path class="st3" d="M642,586.3c-1.2,0-2.2,1-2.2,2.1v9.9c0,1.2,1,2.2,2.2,2.2h15.2c1.2,0,2.2-1,2.2-2.2v-9.9c0-1.2-1-2.1-2.2-2.1
	H642z"/>
<ellipse transform="matrix(0.9239 -0.3827 0.3827 0.9239 -226.7751 206.1643)" class="st9" cx="404.8" cy="673.1" rx="30.4" ry="30.4"/>
<path class="st5" d="M425.8,680.5c-2.5,0.3-4.6,0.3-8.4,0.3c-3.1,0-4-1.6-4-7.6c0-5.9,0.9-7.6,4-7.6c3.5,0,5.2,0,7.8,0.1l0.5-5.3
	c-2.5-0.7-4.4-1-8.4-1c-8.5,0-11.6,3.6-11.6,13.7S409,687,417.4,687c4,0,6.4-0.3,8.9-1.2L425.8,680.5z M384.5,665.2
	c2,0,4.6-0.1,7.4-0.1c2.7,0,3.5,0.3,3.5,2.5c0,1.8-0.2,2.9-3.1,2.9h-5.1v4.6h5.1c2.8,0,3.5,0.8,3.5,3.1c0,2.7-1,3.2-4.4,3.2
	c-2.3,0-4,0-7.3-0.2l-0.2,5.2c3,0.4,6.3,0.7,9.5,0.7c7,0,9.6-2.3,9.5-7.9c0-4-1.2-6.1-4.9-6.6v-0.2c3.4-0.5,4.2-2.9,4.2-6.7
	c0-4.7-2.5-6.2-8.9-6.2c-2.9,0-5.9,0.2-8.9,0.7L384.5,665.2z"/>
<path class="st5" d="M436.8,723.9c0-4.1,0.4-5.7,4-5.7c3.9,0,4.3,1.4,4.4,9c-1.7,1-2.8,1.3-4.4,1.3
	C437.5,728.5,436.7,727.5,436.8,723.9 M429.3,746.3c4,1,7.7,1,9.6,1c11,0,15.1-2.6,15.1-18.3c0-14-2.3-17.6-13.3-17.6
	c-10.1,0-13,3.8-12.9,12.7c0,6.3,2.2,10.8,9.9,10.8c3.1,0,5.2-0.5,7.1-2.1c-0.3,5.9-1.5,7.6-6,7.6s-6.1,0-9.2-0.1L429.3,746.3z
	 M418.8,738.1c-2.4,0-3.2,0.8-3.2,3.2v2.2c0,2.4,0.8,3.2,3.2,3.2h2.2c2.4,0,3.2-0.8,3.2-3.2v-2.2c0-2.4-0.8-3.2-3.2-3.2H418.8z
	 M399,740.4c-4,0-4.4-1.3-4.5-8.9c1.7-1,2.8-1.3,4.4-1.3c3.3,0,4.1,0.9,4.1,4.6C403.1,738.9,402.9,740.4,399,740.4 M409.6,712.4
	c-3.6-1-7.1-1-8.9-1c-10,0-15.1,2.5-15.1,18.3c0,14.1,3.1,17.6,13.5,17.6c10.6,0,12.9-4.1,12.9-12.7c0-7.6-2.3-10.8-10.1-10.8
	c-3.1,0-5.2,0.5-7.1,2c0.3-6.5,1.5-7.6,6-7.6c4,0,5.7,0,8.5,0.1L409.6,712.4z M368.9,740.4c-4,0-4.4-1.3-4.5-8.9
	c1.7-1,2.8-1.3,4.4-1.3c3.3,0,4.1,0.9,4.1,4.6C373,738.9,372.8,740.4,368.9,740.4 M379.5,712.4c-3.6-1-7.1-1-8.9-1
	c-10,0-15.1,2.5-15.1,18.3c0,14.1,3.1,17.6,13.5,17.6c10.6,0,12.9-4.1,12.9-12.7c0-7.6-2.3-10.8-10.1-10.8c-3.1,0-5.2,0.5-7.1,2
	c0.3-6.5,1.5-7.6,6-7.6c4,0,5.7,0,8.5,0.1L379.5,712.4z"/>
<path class="st5" d="M408.3,523.3c1,0,2.4,0,3.8,0s1.8,0.2,1.8,1.3c0,0.9-0.1,1.5-1.6,1.5h-2.6v2.4h2.6c1.5,0,1.8,0.4,1.8,1.6
	c0,1.4-0.5,1.6-2.2,1.6c-1.2,0-2,0-3.8-0.1l-0.1,2.7c1.5,0.2,3.3,0.4,4.9,0.4c3.6,0,4.9-1.2,4.9-4.1c0-2.1-0.6-3.1-2.5-3.4V527
	c1.8-0.3,2.2-1.5,2.2-3.4c0-2.4-1.3-3.2-4.6-3.2c-1.5,0-3,0.1-4.6,0.4L408.3,523.3z M404.4,530.9c-0.9,0-1.2,0.3-1.2,1.2v0.9
	c0,0.9,0.3,1.2,1.2,1.2h0.8c0.9,0,1.2-0.3,1.2-1.2v-0.9c0-0.9-0.3-1.2-1.2-1.2H404.4z M392.9,520.7l0.2,3h5.9
	c-0.3,0.5-0.5,1-0.7,1.4l-3.3,9.2h3.6l4.1-11.8c0.3-1-0.3-1.8-1.4-1.8L392.9,520.7L392.9,520.7z"/>
<path class="st5" d="M451.3,505.2h-1.4c-0.9,0-1.1-0.2-1.1-1.2c0-0.7,0.2-0.9,1.1-0.9h1.4V505.2z M447.5,506.5
	c-0.6,0.1-1.6,0.2-1.9,1.1l-0.8,3.1h3.7l0.6-2.6c0.1-0.5,0.3-0.6,0.9-0.6h1.3v3.2h3.5v-9.9c-1.2-0.1-2.3-0.2-4.9-0.2
	c-3.6,0-4.5,0.7-4.5,3.1C445.3,504.9,445.8,506,447.5,506.5L447.5,506.5z M437,507.2c0-0.5,0.2-0.7,0.8-0.8h2.1v1.2
	c-0.6,0.4-1.3,0.7-1.9,0.7s-1-0.3-1-0.8V507.2z M434.4,503.4c1.6-0.1,3.2-0.1,4.2-0.1s1.3,0.3,1.4,1.1v0.2h-3.3
	c-1.9,0-3.1,0.9-3.1,2.5v1c0,1.8,1.5,2.8,3.3,2.8c1.7,0,2.8-0.9,3.5-1.7l0.3,1.4h2.9v-6.2c0-2.9-1.5-3.8-4.1-3.8
	c-1.4,0-3.9,0.2-5.4,0.5L434.4,503.4z M428.9,505.5c2.3-0.3,2.2-0.6,3.5-4.6h-3.5c-1,3.2-1.1,3.6-2.1,3.6h-0.6
	c0.1-0.4,0.1-0.8,0.1-1.2V501h-3.1v2.3c0,0.4,0,0.8,0.1,1.2h-0.6c-1,0-1.1-0.3-2.1-3.6H417c1.3,4,1.2,4.3,3.5,4.6v0.1
	c-2.4,0.3-2.4,0.5-3.8,5.1h3.6c1.2-3.7,1.3-3.9,2.2-3.9h0.8c-0.1,0.3-0.1,0.6-0.1,0.8v3.1h3.1v-3.1c0-0.2,0-0.5-0.1-0.8h0.6h0.1
	c0.9,0,1,0.2,2.2,3.9h3.6C431.3,506.1,431.3,505.9,428.9,505.5L428.9,505.5z M410.6,503.1c1.2,0,1.5,0.5,1.5,2.7
	c0,2.1-0.3,2.6-1.5,2.6s-1.5-0.5-1.5-2.6C409.1,503.6,409.4,503.1,410.6,503.1 M410.6,500.5c-3.9,0-5.3,1.4-5.3,5.2
	c0,3.8,1.4,5.1,5.3,5.1c3.8,0,5.3-1.4,5.3-5.1C415.9,501.9,414.5,500.5,410.6,500.5 M401.3,510.6h3.6l-2.9-5l2.7-4.8h-3.6l-1.9,3.7
	l-1.9-3.7h-3.6l2.7,4.8l-2.9,5h3.6l2.1-3.9L401.3,510.6z M392.3,510.6v-9.8h-3.1l-3.1,4.7c-0.3,0.5-0.6,0.9-0.7,1.4h-0.1
	c0.1-0.6,0.1-1,0.1-1.5v-4.6h-3.2v9.8h3.1l3.1-4.5c0.3-0.4,0.6-1.1,0.8-1.6h0.1c-0.1,0.6-0.1,1.2-0.1,1.7v4.4H392.3z M373.7,503.9
	c0.6-0.4,1.1-0.6,1.8-0.6c0.9,0,1.3,0.4,1.3,2.6s-0.4,2.6-1.4,2.6c-0.7,0-1.2-0.2-1.7-0.3L373.7,503.9L373.7,503.9z M373,500.8h-2.9
	v13.4h3.6v-2.1c0-0.7,0-1.4-0.1-2.1c0.8,0.6,2,0.9,3.1,0.9c2.4,0,3.7-1.1,3.7-5c0-3.3-1-5.2-3.5-5.2c-1.6,0-3.1,0.7-3.7,1.6
	L373,500.8z M367.9,497h-11.4v13.6h3.7v-11.1h4v11.1h3.7L367.9,497L367.9,497z"/>
<path class="st5" d="M614.6,461.1l0.1-1.9h-6l-0.2,4.3c0,0.4,0.3,0.8,0.7,0.9l1.5,0.2c1.3,0.1,1.7,0.3,1.7,1.2
	c-0.1,0.8-0.3,1.1-1.6,1.1c-0.7,0-1.6,0-2.5-0.1l-0.2,1.9c1.2,0.2,2.4,0.3,3.4,0.3c2.7,0,3.5-1.4,3.5-3.1c0-1.5-0.6-2.9-2.8-3.1
	l-1.6-0.2l0.1-1.3h3.9V461.1z M605.7,466.4c-0.7,0-0.9,0.2-0.9,0.9v0.6c0,0.7,0.2,0.9,0.9,0.9h0.6c0.7,0,0.9-0.2,0.9-0.9v-0.6
	c0-0.7-0.2-0.9-0.9-0.9H605.7z M597.1,461.1c0.7,0,1.7,0,2.6,0c1,0,1.2,0.1,1.2,0.9c0,0.6-0.1,1-1.1,1H598v1.7h1.8
	c1,0,1.2,0.3,1.2,1.1c0,1-0.4,1.1-1.6,1.1c-0.8,0-1.4,0-2.6-0.1l-0.1,1.9c1.1,0.2,2.3,0.3,3.4,0.3c2.5,0,3.4-0.8,3.4-2.8
	c0-1.4-0.4-2.2-1.8-2.4v-0.1c1.2-0.2,1.5-1,1.5-2.4c0-1.7-0.9-2.2-3.2-2.2c-1,0-2.1,0.1-3.2,0.3L597.1,461.1z"/>
<path class="st5" d="M627.7,448.4h-1c-0.6,0-0.8-0.2-0.8-0.9c0-0.5,0.1-0.6,0.8-0.6h1V448.4z M625.1,449.3c-0.4,0-1.1,0.2-1.3,0.7
	l-0.5,2.2h2.6l0.4-1.8c0.1-0.3,0.2-0.4,0.6-0.4h0.9v2.2h2.4v-6.9c-0.9-0.1-1.6-0.1-3.5-0.1c-2.5,0-3.1,0.5-3.1,2.2
	C623.6,448.2,623.9,449,625.1,449.3L625.1,449.3z M617.8,449.8c0-0.3,0.2-0.5,0.6-0.5h1.4v0.9c-0.5,0.3-0.9,0.5-1.3,0.5
	c-0.5,0-0.7-0.2-0.7-0.6V449.8z M615.9,447.1c1.1-0.1,2.2-0.1,2.9-0.1s0.9,0.2,1,0.8v0.2h-2.3c-1.4,0-2.2,0.7-2.2,1.7v0.7
	c0,1.3,1,2,2.3,2c1.2,0,2-0.6,2.4-1.2l0.2,1h2v-4.4c0-2-1-2.7-2.9-2.7c-1,0-2.7,0.2-3.8,0.3L615.9,447.1z M614.2,445.4h-2.5v2.4
	h-2.1v-2.4h-2.5v6.8h2.5v-2.8h2.1v2.8h2.5V445.4z M605.7,445.4h-2.5v2.4h-2.1v-2.4h-2.5v6.8h2.5v-2.8h2.1v2.8h2.5V445.4z
	 M592.7,449.8c0-0.3,0.2-0.5,0.6-0.5h1.4v0.9c-0.5,0.3-0.9,0.5-1.3,0.5c-0.5,0-0.7-0.2-0.7-0.6V449.8z M590.8,447.1
	c1.1-0.1,2.2-0.1,2.9-0.1s0.9,0.2,1,0.8v0.2h-2.3c-1.4,0-2.2,0.7-2.2,1.7v0.7c0,1.3,1,2,2.3,2c1.2,0,2-0.6,2.4-1.2l0.2,1h2v-4.4
	c0-2-1-2.7-2.9-2.7c-1,0-2.7,0.2-3.7,0.3L590.8,447.1z M584.2,450.5v-2.4h1.3c1,0,1.2,0.2,1.2,1.3c0,1-0.2,1.2-1.2,1.2L584.2,450.5z
	 M584.2,446.5v-2.1h1.2c0.9,0,1.1,0.2,1.1,1c0,0.9-0.2,1.1-1.1,1.1H584.2z M587.4,447.2c1.2-0.1,1.7-0.8,1.7-2.2
	c0-2-0.9-2.5-3.5-2.5c-1.7,0-2.7,0-3.9,0.1v9.5c1.3,0.1,2.4,0.1,4.3,0.1c2.3,0,3.3-0.5,3.3-2.5C589.4,448.3,588.8,447.4,587.4,447.2
	L587.4,447.2z"/>
<path class="st5" d="M514.4,528.1c0.7,0,1.7,0,2.6,0c1,0,1.2,0.1,1.2,0.9c0,0.6-0.1,1-1.1,1h-1.8v1.7h1.8c1,0,1.2,0.3,1.2,1.1
	c0,1-0.4,1.1-1.6,1.1c-0.8,0-1.4,0-2.6-0.1l-0.1,1.9c1.1,0.2,2.3,0.3,3.4,0.3c2.5,0,3.4-0.8,3.4-2.8c0-1.4-0.4-2.2-1.8-2.4v-0.1
	c1.2-0.2,1.5-1,1.5-2.4c0-1.7-0.9-2.2-3.2-2.2c-1,0-2.1,0.1-3.2,0.3L514.4,528.1z M511.7,533.5c-0.7,0-0.9,0.2-0.9,0.9v0.6
	c0,0.7,0.2,0.9,0.9,0.9h0.6c0.7,0,0.9-0.2,0.9-0.9v-0.6c0-0.7-0.2-0.9-0.9-0.9H511.7z M503.1,528.1c0.7,0,1.7,0,2.6,0
	c1,0,1.2,0.1,1.2,0.9c0,0.6-0.1,1-1.1,1H504v1.7h1.8c1,0,1.2,0.3,1.2,1.1c0,1-0.4,1.1-1.6,1.1c-0.8,0-1.4,0-2.6-0.1l-0.1,1.9
	c1.1,0.2,2.3,0.3,3.4,0.3c2.5,0,3.4-0.8,3.4-2.8c0-1.4-0.4-2.2-1.8-2.4v-0.1c1.2-0.2,1.5-1,1.5-2.4c0-1.7-0.9-2.2-3.2-2.2
	c-1,0-2.1,0.1-3.2,0.3L503.1,528.1z"/>
<path class="st5" d="M536.8,514.5c0.4-0.3,0.8-0.4,1.3-0.4c0.6,0,0.9,0.3,0.9,1.8c0,1.6-0.3,1.8-1,1.8c-0.5,0-0.8-0.1-1.2-0.2V514.5
	z M536.3,512.4h-2v9.4h2.5v-1.5c0-0.5,0-1,0-1.5c0.6,0.5,1.4,0.6,2.2,0.6c1.7,0,2.6-0.8,2.6-3.5c0-2.3-0.7-3.7-2.4-3.7
	c-1.1,0-2.1,0.5-2.6,1.1L536.3,512.4z M529.4,514c0.8,0,1.1,0.3,1.1,1.9c0,1.5-0.2,1.8-1.1,1.8c-0.9,0-1.1-0.3-1.1-1.8
	C528.3,514.3,528.5,514,529.4,514 M529.4,512.2c-2.7,0-3.7,1-3.7,3.6s1,3.6,3.7,3.6s3.7-0.9,3.7-3.6
	C533.1,513.2,532.1,512.2,529.4,512.2 M521.5,517.6h-2c0.3-0.8,0.6-1.7,0.8-3c0-0.4,0.3-0.6,0.6-0.6h0.6L521.5,517.6L521.5,517.6z
	 M525,517.6h-1.1v-5.2h-3.8c-1.2,0-1.8,0.6-2,1.7c-0.2,1.2-0.4,2.3-0.8,3.5h-0.9v3.6h1.7l0.2-1.9h4.9l0.2,1.9h1.7v-3.6H525z
	 M515.5,519.3v-6.9h-2.2l-2.2,3.3c-0.2,0.3-0.4,0.6-0.5,1h-0.1c0.1-0.4,0.1-0.7,0.1-1.1v-3.2h-2.2v6.8h2.2l2.1-3.1
	c0.2-0.3,0.4-0.8,0.6-1.1h0.1c-0.1,0.5-0.1,0.8-0.1,1.2v3.1H515.5z M502.5,514.5c0.4-0.3,0.8-0.4,1.3-0.4c0.6,0,0.9,0.3,0.9,1.8
	c0,1.6-0.3,1.8-1,1.8c-0.5,0-0.8-0.1-1.2-0.2L502.5,514.5L502.5,514.5z M502,512.4h-2v9.4h2.5v-1.5c0-0.5,0-1,0-1.5
	c0.6,0.5,1.4,0.6,2.2,0.6c1.7,0,2.6-0.8,2.6-3.5c0-2.3-0.7-3.7-2.4-3.7c-1.1,0-2.1,0.5-2.6,1.1L502,512.4z M495.1,514
	c0.8,0,1.1,0.3,1.1,1.9c0,1.5-0.2,1.8-1.1,1.8s-1.1-0.3-1.1-1.8C494,514.3,494.2,514,495.1,514 M495.1,512.2c-2.7,0-3.7,1-3.7,3.6
	s1,3.6,3.7,3.6s3.7-0.9,3.7-3.6C498.8,513.2,497.8,512.2,495.1,512.2 M487.6,514.3c1.9-0.2,1.9-1.1,3-4.5H488
	c-0.7,2.9-0.9,3.7-2.3,3.7h-0.5c0.1-0.4,0.1-0.8,0.1-1.2v-2.5h-2.6v9.5h2.6v-3.2c0-0.3,0-0.6-0.1-0.9h0.5c1.3,0,1.4,0.6,2.4,4.1h2.7
	C489.7,515.4,489.6,514.6,487.6,514.3L487.6,514.3z"/>
<path class="st5" d="M596.2,545.7c0.7,0,1.7,0,2.6,0c1,0,1.2,0.1,1.2,0.9c0,0.6-0.1,1-1.1,1h-1.8v1.7h1.8c1,0,1.2,0.3,1.2,1.1
	c0,1-0.4,1.1-1.6,1.1c-0.8,0-1.4,0-2.6-0.1l-0.1,1.9c1.1,0.2,2.3,0.3,3.4,0.3c2.5,0,3.4-0.8,3.4-2.8c0-1.4-0.4-2.2-1.8-2.4v-0.1
	c1.2-0.2,1.5-1,1.5-2.4c0-1.7-0.9-2.2-3.2-2.2c-1,0-2.1,0.1-3.2,0.3L596.2,545.7z M593.4,551c-0.7,0-0.9,0.2-0.9,0.9v0.6
	c0,0.7,0.2,0.9,0.9,0.9h0.6c0.7,0,0.9-0.2,0.9-0.9v-0.6c0-0.7-0.2-0.9-0.9-0.9H593.4z M590.8,553.4v-9.5h-2.6l-2.4,0.9l0.3,1.6
	l2.2-0.5c-0.1,0.4-0.1,0.8-0.1,1.1v6.3h2.6V553.4z"/>
<path class="st5" d="M606.5,530h-2.7l-1,4.1c-0.1,0.3-0.2,0.8-0.3,1.2h-0.1c-0.1-0.4-0.1-0.8-0.2-1.2l-1-4.1h-2.7l2.1,6.3
	c0.1,0.4,0.4,0.6,0.8,0.6h0.5c-0.2,0.3-0.4,0.7-0.7,0.8c-0.4,0.2-1,0.3-1.9,0.3l-0.2,1.6c1,0.2,2,0.2,2.8-0.1
	c1.1-0.4,1.8-1.1,2.3-2.7L606.5,530z M593,537.9l5.4-10.6h-2l-5.4,10.6H593z M590.3,534.7c-0.9,0.1-1.7,0.1-3,0.1
	c-1.1,0-1.4-0.6-1.4-2.7s0.3-2.7,1.4-2.7c1.3,0,1.9,0,2.8,0l0.2-1.9c-0.9-0.2-1.6-0.3-3-0.3c-3,0-4.2,1.3-4.2,4.9
	c0,3.6,1.1,4.9,4.2,4.9c1.4,0,2.3-0.1,3.2-0.4L590.3,534.7z"/>
<path class="st5" d="M603.7,331.3c0-1.6,0.1-2.2,1.6-2.2s1.7,0.5,1.7,3.5c-0.6,0.4-1.1,0.5-1.7,0.5
	C604,333.1,603.7,332.7,603.7,331.3 M600.8,340c1.6,0.4,3,0.4,3.8,0.4c4.3,0,5.9-1,5.9-7.2c0-5.5-0.9-6.9-5.2-6.9
	c-4,0-5.1,1.5-5.1,5c0,2.5,0.9,4.2,3.9,4.2c1.2,0,2-0.2,2.8-0.8c-0.1,2.3-0.6,3-2.4,3c-1.8,0-2.4,0-3.6,0L600.8,340z M596.7,336.8
	c-0.9,0-1.2,0.3-1.2,1.2v0.9c0,0.9,0.3,1.2,1.2,1.2h0.8c0.9,0,1.2-0.3,1.2-1.2V338c0-0.9-0.3-1.2-1.2-1.2H596.7z M593,340.2v-13.6
	h-3.7l-3.4,1.3l0.4,2.3l3.1-0.7c-0.1,0.6-0.1,1.1-0.1,1.6v9h3.7V340.2z M584.1,340.2v-13.6h-3.7l-3.4,1.3l0.4,2.3l3.2-0.7
	c-0.1,0.6-0.1,1.1-0.1,1.6v9h3.6V340.2z"/>
<path class="st5" d="M663.9,313.2c0-0.5,0.2-0.7,0.8-0.8h2.1v1.2c-0.6,0.4-1.3,0.7-1.9,0.7c-0.6,0-1-0.3-1-0.8L663.9,313.2
	L663.9,313.2z M661.3,309.3c1.6-0.1,3.2-0.1,4.2-0.1s1.3,0.3,1.4,1.1v0.2h-3.3c-1.9,0-3.1,0.9-3.1,2.5v1c0,1.8,1.5,2.8,3.3,2.8
	c1.7,0,2.8-0.9,3.5-1.7l0.3,1.4h2.9v-6.2c0-2.9-1.5-3.8-4.1-3.8c-1.4,0-3.9,0.2-5.4,0.5L661.3,309.3z M659.7,309.5v-2.7h-9.8v2.7
	h3.1v7.1h3.6v-7.1H659.7z M642.2,313.2c0-0.5,0.2-0.7,0.8-0.8h2v1.2c-0.6,0.4-1.3,0.7-1.9,0.7c-0.6,0-1-0.3-1-0.8v-0.3H642.2z
	 M639.5,309.3c1.6-0.1,3.2-0.1,4.2-0.1s1.3,0.3,1.4,1.1v0.2h-3.3c-1.9,0-3.1,0.9-3.1,2.5v1c0,1.8,1.5,2.8,3.3,2.8
	c1.7,0,2.8-0.9,3.5-1.7l0.3,1.4h2.9v-6.2c0-2.9-1.5-3.8-4.1-3.8c-1.4,0-3.9,0.2-5.4,0.5L639.5,309.3z M637,306.8h-3.5v3.4h-3v-3.4
	H627v9.8h3.5v-4h3v4h3.5V306.8z M620.5,306.8c-0.7,0-1.2,0.4-1.3,1.1l-0.8,3.6c-0.1,0.5-0.1,1-0.2,1.5H618c-0.1-0.5-0.1-1-0.2-1.5
	l-0.9-3.6c-0.1-0.7-0.6-1.1-1.3-1.1h-3c-0.8,0-1.2,0.4-1.2,1.2l-0.2,8.6h3.2l0.2-7.2h0.2l1.2,4.7c0.1,0.7,0.6,1.1,1.4,1.1h1.6
	c0.8,0,1.2-0.4,1.3-1.1l1.2-4.7h0.2l0.3,7.2h3.2l-0.3-8.6c0-0.8-0.4-1.2-1.2-1.2H620.5z M604.2,309c1.2,0,1.5,0.5,1.5,2.7
	c0,2.1-0.3,2.6-1.5,2.6s-1.5-0.5-1.5-2.6C602.7,309.5,603,309,604.2,309 M604.2,306.5c-3.9,0-5.3,1.4-5.3,5.2c0,3.8,1.4,5.1,5.3,5.1
	c3.8,0,5.3-1.4,5.3-5.1C609.5,307.9,608,306.5,604.2,306.5 M594.4,311.4c2.3-0.3,2.1-0.5,3.4-4.6h-3.6c-0.8,3.3-0.9,3.5-2.3,3.5
	h-0.4c0.1-0.4,0.1-0.8,0.1-1.2v-2.3H588v9.8h3.6v-3.1c0-0.2,0-0.5-0.1-0.8h0.8c1,0,1.1,0.3,2.1,3.9h3.7
	C596.8,311.9,596.7,311.8,594.4,311.4L594.4,311.4z M578.2,311.2h-1.4c-0.9,0-1.1-0.2-1.1-1.2c0-0.7,0.2-0.9,1.1-0.9h1.4V311.2z
	 M574.4,312.4c-0.6,0.1-1.6,0.2-1.9,1.1l-0.8,3.1h3.7l0.6-2.6c0.1-0.5,0.3-0.6,0.9-0.6h1.3v3.2h3.5v-9.9c-1.2-0.1-2.3-0.2-4.9-0.2
	c-3.6,0-4.5,0.7-4.5,3.1C572.3,310.9,572.7,312,574.4,312.4L574.4,312.4z M564,313.2c0-0.5,0.2-0.7,0.8-0.8h2.1v1.2
	c-0.7,0.4-1.3,0.7-1.9,0.7c-0.6,0-1-0.3-1-0.8L564,313.2L564,313.2z M561.3,309.3c1.6-0.1,3.2-0.1,4.2-0.1s1.3,0.3,1.4,1.1v0.2h-3.3
	c-1.9,0-3.1,0.9-3.1,2.5v1c0,1.8,1.5,2.8,3.3,2.8c1.7,0,2.8-0.9,3.5-1.7l0.3,1.4h2.9v-6.2c0-2.9-1.5-3.8-4.1-3.8
	c-1.4,0-3.9,0.2-5.4,0.5L561.3,309.3z M558.8,306.8h-5.9c-1.7,0-2.6,0.9-2.7,2.5c-0.1,1.8-0.3,3.2-0.5,3.8c-0.2,0.8-0.8,0.8-1.7,0.9
	l0.4,2.6c2.1,0.4,4.1-0.1,4.5-2.6c0.2-0.9,0.4-2.6,0.6-4.1c0.1-0.6,0.3-0.8,0.9-0.8h0.8v7.4h3.6L558.8,306.8L558.8,306.8z
	 M546.8,316.6v-9.8h-3.1l-3.1,4.7c-0.3,0.5-0.6,0.9-0.7,1.4h-0.1c0.1-0.6,0.1-1,0.1-1.5v-4.6h-3.2v9.8h3.1l3.1-4.5
	c0.3-0.4,0.6-1.1,0.8-1.6h0.1c-0.1,0.6-0.1,1.2-0.1,1.7v4.4H546.8z M530.9,309.4c2.6-0.4,2.7-1.6,4.1-6.4h-3.7
	c-1.2,4.1-1.5,5.3-2.8,5.3h-0.6c0.1-0.6,0.2-1.1,0.2-1.7V303h-3.5v3.6c0,0.6,0.1,1.1,0.2,1.7H524c-1.3,0-1.6-1.2-2.8-5.3h-3.7
	c1.4,4.9,1.5,6.1,4.1,6.4v0.1c-2.7,0.4-2.9,1.5-4.5,7h3.9c1.5-4.9,1.7-5.8,3-5.8h0.7c-0.1,0.4-0.2,0.9-0.2,1.3v4.5h3.5V312
	c0-0.4-0.1-0.8-0.2-1.3h0.6c1.4,0,1.5,0.9,3,5.8h3.9c-1.6-5.6-1.8-6.6-4.5-7v-0.1H530.9z"/>
<path class="st5" d="M602.5,759.8l0.2,3h5.9c-0.3,0.5-0.5,1-0.7,1.4l-3.3,9.2h3.6l4.1-11.8c0.3-1-0.3-1.8-1.4-1.8L602.5,759.8
	L602.5,759.8z M599.8,770c-0.9,0-1.2,0.3-1.2,1.2v0.9c0,0.9,0.3,1.2,1.2,1.2h0.8c0.9,0,1.2-0.3,1.2-1.2v-0.9c0-0.9-0.3-1.2-1.2-1.2
	H599.8z M587.1,762.8c1.9-0.1,2.9-0.1,4.3-0.1c1,0,1.5,0.1,1.5,0.6c0,0.8-0.9,2-2.4,3.5l-3.1,3.2c-0.4,0.4-0.5,0.9-0.5,1.5v1.9H597
	v-3.2h-3.9c-0.6,0-1.3,0-1.9,0.2l3.3-3.3c1.8-1.9,2.1-2.8,2.1-4.2c0-2.7-1.9-3.3-4.8-3.3c-1.5,0-2.9,0.1-4.9,0.5L587.1,762.8z
	 M584.5,773.4v-13.6h-3.7l-3.4,1.3l0.4,2.3l3.2-0.7c-0.1,0.6-0.1,1.1-0.1,1.6v9h3.6V773.4z"/>
<path class="st5" d="M664.8,746.4c0-0.5,0.2-0.7,0.8-0.8h2.1v1.2c-0.6,0.4-1.3,0.7-1.9,0.7c-0.6,0-1-0.3-1-0.8L664.8,746.4
	L664.8,746.4z M662.1,742.5c1.6-0.1,3.2-0.1,4.2-0.1s1.3,0.3,1.4,1.1v0.2h-3.3c-1.9,0-3.1,0.9-3.1,2.5v1c0,1.8,1.5,2.8,3.3,2.8
	c1.7,0,2.8-0.9,3.5-1.7l0.3,1.4h2.9v-6.2c0-2.9-1.5-3.8-4.1-3.8c-1.4,0-3.9,0.2-5.4,0.5L662.1,742.5z M660.5,742.7V740h-9.8v2.7h3.1
	v7.1h3.6v-7.1H660.5z M643,746.4c0-0.5,0.2-0.7,0.8-0.8h2v1.2c-0.6,0.4-1.3,0.7-1.9,0.7c-0.6,0-1-0.3-1-0.8v-0.3H643z M640.3,742.5
	c1.6-0.1,3.2-0.1,4.2-0.1s1.3,0.3,1.4,1.1v0.2h-3.3c-1.9,0-3.1,0.9-3.1,2.5v1c0,1.8,1.5,2.8,3.3,2.8c1.7,0,2.8-0.9,3.5-1.7l0.3,1.4
	h2.9v-6.2c0-2.9-1.5-3.8-4.1-3.8c-1.4,0-3.9,0.2-5.4,0.5L640.3,742.5z M637.9,740h-3.5v3.4h-3V740h-3.5v9.8h3.5v-4h3v4h3.5V740z
	 M621.3,740c-0.7,0-1.2,0.4-1.3,1.1l-0.8,3.6c-0.1,0.5-0.1,1-0.2,1.5h-0.2c-0.1-0.5-0.1-1-0.2-1.5l-0.9-3.6
	c-0.1-0.7-0.6-1.1-1.3-1.1h-3c-0.8,0-1.2,0.4-1.2,1.2l-0.2,8.6h3.2l0.2-7.2h0.2l1.2,4.7c0.1,0.7,0.6,1.1,1.4,1.1h1.6
	c0.8,0,1.2-0.4,1.3-1.1l1.2-4.7h0.2l0.3,7.2h3.2l-0.3-8.6c0-0.8-0.4-1.2-1.2-1.2H621.3z M605.1,742.2c1.2,0,1.5,0.5,1.5,2.7
	c0,2.1-0.3,2.6-1.5,2.6s-1.5-0.5-1.5-2.6C603.5,742.7,603.8,742.2,605.1,742.2 M605.1,739.7c-3.9,0-5.3,1.4-5.3,5.2s1.4,5.1,5.3,5.1
	c3.8,0,5.3-1.4,5.3-5.1C610.3,741.1,608.9,739.7,605.1,739.7 M595.2,744.6c2.3-0.3,2.1-0.5,3.4-4.6H595c-0.8,3.3-0.9,3.5-2.3,3.5
	h-0.4c0.1-0.4,0.1-0.8,0.1-1.2V740h-3.6v9.8h3.6v-3.1c0-0.2,0-0.5-0.1-0.8h0.8c1,0,1.1,0.3,2.1,3.9h3.7
	C597.6,745.1,597.6,745.1,595.2,744.6L595.2,744.6z M579.1,744.4h-1.4c-0.9,0-1.1-0.2-1.1-1.2c0-0.7,0.2-0.9,1.1-0.9h1.4V744.4z
	 M575.2,745.6c-0.6,0.1-1.6,0.2-1.9,1.1l-0.8,3.1h3.7l0.6-2.6c0.1-0.5,0.3-0.6,0.9-0.6h1.3v3.2h3.5v-9.9c-1.2-0.1-2.3-0.2-4.9-0.2
	c-3.6,0-4.5,0.7-4.5,3.1C573.1,744.1,573.6,745.2,575.2,745.6L575.2,745.6z M564.8,746.4c0-0.5,0.2-0.7,0.8-0.8h2.1v1.2
	c-0.7,0.4-1.3,0.7-1.9,0.7c-0.6,0-1-0.3-1-0.8L564.8,746.4L564.8,746.4z M562.1,742.5c1.6-0.1,3.2-0.1,4.2-0.1s1.3,0.3,1.4,1.1v0.2
	h-3.3c-1.9,0-3.1,0.9-3.1,2.5v1c0,1.8,1.5,2.8,3.3,2.8c1.7,0,2.8-0.9,3.5-1.7l0.3,1.4h2.9v-6.2c0-2.9-1.5-3.8-4.1-3.8
	c-1.4,0-3.9,0.2-5.4,0.5L562.1,742.5z M559.7,740h-5.9c-1.7,0-2.6,0.9-2.7,2.5c-0.1,1.8-0.3,3.2-0.5,3.8c-0.2,0.8-0.8,0.8-1.7,0.9
	l0.4,2.6c2.1,0.4,4.1-0.1,4.5-2.6c0.2-0.9,0.4-2.6,0.6-4.1c0.1-0.6,0.3-0.8,0.9-0.8h0.8v7.4h3.6L559.7,740L559.7,740z M547.7,749.8
	V740h-3.1l-3.1,4.7c-0.3,0.5-0.6,0.9-0.7,1.4h-0.1c0.1-0.6,0.1-1,0.1-1.5V740h-3.2v9.8h3.1l3.1-4.5c0.3-0.4,0.6-1.1,0.8-1.6h0.1
	c-0.1,0.6-0.1,1.2-0.1,1.7v4.4L547.7,749.8L547.7,749.8z M531.8,742.6c2.6-0.4,2.7-1.6,4.1-6.4h-3.7c-1.2,4.1-1.5,5.3-2.8,5.3h-0.6
	c0.1-0.6,0.2-1.1,0.2-1.7v-3.6h-3.5v3.6c0,0.6,0.1,1.1,0.2,1.7H525c-1.3,0-1.6-1.2-2.8-5.3h-3.7c1.4,4.9,1.5,6.1,4.1,6.4v0.1
	c-2.7,0.4-2.9,1.5-4.5,7h3.9c1.5-4.9,1.7-5.8,3-5.8h0.7c-0.1,0.4-0.2,0.9-0.2,1.3v4.5h3.5v-4.5c0-0.4-0.1-0.8-0.2-1.3h0.6
	c1.4,0,1.5,0.9,3,5.8h3.9C534.7,744.1,534.5,743.1,531.8,742.6L531.8,742.6z"/>
<path class="st5" d="M417.6,782.1c1.5,0,1.9,0.7,1.9,4.3s-0.4,4.3-1.9,4.3s-1.9-0.6-1.9-4.3C415.7,782.7,416.1,782.1,417.6,782.1
	 M417.6,779.2c-4.1,0-5.5,1.8-5.5,7.1s1.4,7.1,5.5,7.1s5.6-1.8,5.6-7.1S421.7,779.2,417.6,779.2 M408.4,789.8
	c-0.9,0-1.2,0.3-1.2,1.2v0.9c0,0.9,0.3,1.2,1.2,1.2h0.8c0.9,0,1.2-0.3,1.2-1.2V791c0-0.9-0.3-1.2-1.2-1.2H408.4z M398.6,784.2
	c0-1.6,0.1-2.2,1.6-2.2s1.7,0.5,1.7,3.5c-0.7,0.4-1.1,0.5-1.7,0.5C398.9,786,398.6,785.6,398.6,784.2 M395.7,793
	c1.6,0.4,3,0.4,3.8,0.4c4.3,0,5.9-1,5.9-7.2c0-5.5-0.9-6.9-5.2-6.9c-4,0-5.1,1.5-5.1,5c0,2.5,0.9,4.2,3.9,4.2c1.2,0,2.1-0.2,2.8-0.8
	c-0.1,2.3-0.6,3-2.4,3s-2.4,0-3.6,0L395.7,793z M392.9,793.1v-13.6h-3.7l-3.4,1.3l0.4,2.3l3.2-0.7c-0.1,0.6-0.1,1.1-0.1,1.6v9h3.6
	V793.1z"/>
<path class="st5" d="M474.6,766.1c0-0.5,0.2-0.7,0.8-0.8h2.1v1.2c-0.6,0.4-1.3,0.7-1.9,0.7s-1-0.3-1-0.8V766.1z M471.9,762.2
	c1.6-0.1,3.2-0.1,4.2-0.1s1.3,0.3,1.4,1.1v0.2h-3.3c-1.9,0-3.1,0.9-3.1,2.5v1c0,1.8,1.5,2.8,3.3,2.8c1.7,0,2.8-0.9,3.5-1.7l0.3,1.4
	h2.9v-6.2c0-2.9-1.5-3.8-4.1-3.8c-1.4,0-3.9,0.2-5.4,0.5L471.9,762.2z M470.3,762.4v-2.7h-9.8v2.7h3.1v7.1h3.6v-7.1H470.3z
	 M452.8,766.1c0-0.5,0.2-0.7,0.8-0.8h2v1.2c-0.6,0.4-1.3,0.7-1.9,0.7c-0.7,0-1-0.3-1-0.8v-0.3H452.8z M450.2,762.2
	c1.6-0.1,3.2-0.1,4.2-0.1s1.3,0.3,1.4,1.1v0.2h-3.3c-1.9,0-3.1,0.9-3.1,2.5v1c0,1.8,1.5,2.8,3.3,2.8c1.7,0,2.8-0.9,3.5-1.7l0.3,1.4
	h2.9v-6.2c0-2.9-1.5-3.8-4.1-3.8c-1.4,0-3.9,0.2-5.4,0.5L450.2,762.2z M447.7,759.7h-3.5v3.4h-3v-3.4h-3.5v9.8h3.5v-4h3v4h3.5V759.7
	z M431.2,759.7c-0.7,0-1.2,0.4-1.3,1.1l-0.8,3.6c-0.1,0.5-0.1,1-0.2,1.5h-0.2c-0.1-0.5-0.1-1-0.2-1.5l-0.9-3.6
	c-0.1-0.7-0.6-1.1-1.3-1.1h-3c-0.8,0-1.2,0.4-1.2,1.2l-0.2,8.6h3.2l0.2-7.2h0.2l1.2,4.7c0.1,0.7,0.6,1.1,1.4,1.1h1.6
	c0.8,0,1.2-0.4,1.3-1.1l1.2-4.7h0.2l0.3,7.2h3.2l-0.3-8.6c0-0.8-0.4-1.2-1.2-1.2H431.2z M414.9,761.9c1.2,0,1.5,0.5,1.5,2.7
	c0,2.1-0.3,2.6-1.5,2.6s-1.5-0.5-1.5-2.6C413.3,762.4,413.7,761.9,414.9,761.9 M414.9,759.4c-3.9,0-5.3,1.4-5.3,5.2s1.4,5.1,5.3,5.1
	c3.8,0,5.3-1.4,5.3-5.1C420.1,760.8,418.7,759.4,414.9,759.4 M405.1,764.3c2.3-0.3,2.1-0.5,3.4-4.6h-3.6c-0.8,3.3-0.9,3.5-2.3,3.5
	h-0.4c0.1-0.4,0.1-0.8,0.1-1.2v-2.3h-3.6v9.8h3.6v-3.1c0-0.2,0-0.5-0.1-0.8h0.8c1,0,1.1,0.3,2.1,3.9h3.7
	C407.4,764.8,407.4,764.8,405.1,764.3L405.1,764.3z M388.9,764.1h-1.4c-0.9,0-1.1-0.2-1.1-1.2c0-0.7,0.2-0.9,1.1-0.9h1.4V764.1z
	 M385.1,765.3c-0.6,0.1-1.6,0.2-1.9,1.1l-0.8,3.1h3.7l0.6-2.6c0.1-0.5,0.3-0.6,0.9-0.6h1.3v3.2h3.5v-9.9c-1.2-0.1-2.3-0.2-4.9-0.2
	c-3.6,0-4.5,0.7-4.5,3.1C382.9,763.8,383.4,764.9,385.1,765.3L385.1,765.3z M374.6,766.1c0-0.5,0.2-0.7,0.8-0.8h2.1v1.2
	c-0.7,0.4-1.3,0.7-1.9,0.7s-1-0.3-1-0.8V766.1z M372,762.2c1.6-0.1,3.2-0.1,4.2-0.1s1.3,0.3,1.4,1.1v0.2h-3.3
	c-1.9,0-3.1,0.9-3.1,2.5v1c0,1.8,1.5,2.8,3.3,2.8c1.7,0,2.8-0.9,3.5-1.7l0.3,1.4h2.9v-6.2c0-2.9-1.5-3.8-4.1-3.8
	c-1.4,0-3.9,0.2-5.4,0.5L372,762.2z M369.5,759.7h-5.9c-1.7,0-2.6,0.9-2.7,2.5c-0.1,1.8-0.3,3.2-0.5,3.8c-0.2,0.8-0.8,0.8-1.7,0.9
	l0.4,2.6c2.1,0.4,4.1-0.1,4.5-2.6c0.2-0.9,0.4-2.6,0.6-4.1c0.1-0.6,0.3-0.8,0.9-0.8h0.8v7.4h3.6L369.5,759.7L369.5,759.7z
	 M357.5,769.5v-9.8h-3.1l-3.1,4.7c-0.3,0.5-0.6,0.9-0.7,1.4h-0.1c0.1-0.6,0.1-1,0.1-1.5v-4.6h-3.2v9.8h3.1l3.1-4.5
	c0.3-0.4,0.6-1.1,0.8-1.6h0.1c-0.1,0.6-0.1,1.2-0.1,1.7v4.4L357.5,769.5L357.5,769.5z M341.6,762.3c2.6-0.4,2.7-1.6,4.1-6.4H342
	c-1.2,4.1-1.5,5.3-2.8,5.3h-0.6c0.1-0.6,0.2-1.1,0.2-1.7v-3.6h-3.5v3.6c0,0.6,0.1,1.1,0.2,1.7h-0.7c-1.3,0-1.6-1.2-2.8-5.3h-3.7
	c1.4,4.9,1.5,6.1,4.1,6.4v0.1c-2.7,0.4-2.9,1.5-4.5,7h3.9c1.5-4.9,1.7-5.8,3-5.8h0.7c-0.1,0.4-0.2,0.9-0.2,1.3v4.5h3.5v-4.5
	c0-0.4-0.1-0.8-0.2-1.3h0.6c1.4,0,1.5,0.9,3,5.8h3.9C344.5,763.8,344.3,762.8,341.6,762.3L341.6,762.3z"/>
<path class="st5" d="M598.6,646c1.9-0.1,2.9-0.1,4.3-0.1c1,0,1.5,0.1,1.5,0.6c0,0.8-0.9,2-2.4,3.5l-3.1,3.2
	c-0.4,0.4-0.5,0.9-0.5,1.5v1.9h10.1v-3.2h-3.9c-0.6,0-1.3,0-1.9,0.2l3.3-3.3c1.8-1.9,2.1-2.8,2.1-4.2c0-2.7-1.9-3.3-4.8-3.3
	c-1.5,0-2.9,0.1-4.9,0.5L598.6,646z M594.7,653.3c-0.9,0-1.2,0.3-1.2,1.2v0.9c0,0.9,0.3,1.2,1.2,1.2h0.8c0.9,0,1.2-0.3,1.2-1.2v-0.9
	c0-0.9-0.3-1.2-1.2-1.2H594.7z M586.9,654.2c-1.6,0-1.7-0.5-1.8-3.5c0.6-0.4,1.1-0.5,1.7-0.5c1.3,0,1.6,0.3,1.6,1.8
	C588.5,653.6,588.4,654.2,586.9,654.2 M591,643.2c-1.4-0.4-2.8-0.4-3.5-0.4c-3.9,0-5.9,1-5.9,7.2c0,5.5,1.2,6.9,5.3,6.9
	c4.2,0,5.1-1.6,5.1-5c0-3-0.9-4.2-4-4.2c-1.2,0-2,0.2-2.8,0.8c0.1-2.5,0.6-3,2.3-3c1.6,0,2.2,0,3.3,0L591,643.2z"/>
<path class="st5" d="M647.5,629.6c0-0.5,0.2-0.7,0.8-0.8h2.1v1.2c-0.7,0.4-1.3,0.7-1.9,0.7c-0.6,0-1-0.3-1-0.8L647.5,629.6
	L647.5,629.6z M644.8,625.7c1.6-0.1,3.2-0.1,4.2-0.1s1.3,0.3,1.4,1.1v0.2h-3.3c-1.9,0-3.1,0.9-3.1,2.5v1c0,1.8,1.5,2.8,3.3,2.8
	c1.7,0,2.8-0.9,3.5-1.7l0.3,1.4h2.9v-6.2c0-2.9-1.5-3.8-4.1-3.8c-1.4,0-3.9,0.2-5.4,0.5L644.8,625.7z M642.4,623.2H639v7.4h-2.3
	v-7.4h-3.1v7.4h-2.3v-7.4h-3.4v9.8h14.7v-9.8H642.4z M625.5,633v-9.8h-3.1l-3.1,4.7c-0.3,0.5-0.6,0.9-0.7,1.4h-0.1
	c0.1-0.6,0.1-1,0.1-1.5v-4.6h-3.2v9.8h3.1l3.1-4.5c0.3-0.4,0.6-1.1,0.8-1.6h0.1c-0.1,0.6-0.1,1.2-0.1,1.7v4.4L625.5,633L625.5,633z
	 M613.3,623.2h-3.5v3.4h-3v-3.4h-3.5v9.8h3.5v-4h3v4h3.5V623.2z M601.2,626.8h-5.8v2.2h5.8V626.8z M589.9,627.6h-1.4
	c-0.9,0-1.1-0.2-1.1-1.2c0-0.7,0.2-0.9,1.1-0.9h1.4V627.6z M586.1,628.8c-0.6,0.1-1.6,0.2-1.9,1.1l-0.8,3.1h3.7l0.6-2.6
	c0.1-0.5,0.3-0.6,0.9-0.6h1.3v3.2h3.5v-9.9c-1.2-0.1-2.3-0.2-4.9-0.2c-3.6,0-4.5,0.7-4.5,3.1C583.9,627.3,584.4,628.4,586.1,628.8
	L586.1,628.8z M582,623.2h-3.5v3.4h-3v-3.4H572v9.8h3.5v-4h3v4h3.5V623.2z M567.3,633h3.6l-2.9-5l2.7-4.8h-3.6l-1.9,3.7l-1.9-3.7
	h-3.6l2.7,4.8l-2.9,5h3.6l2.1-3.9L567.3,633z M559.3,623.2h-3.8L554,629c-0.1,0.5-0.3,1.1-0.4,1.7h-0.2c-0.1-0.6-0.2-1.1-0.3-1.7
	l-1.5-5.8h-3.8l3,8.9c0.2,0.5,0.6,0.8,1.1,0.8h0.6c-0.3,0.5-0.6,0.9-1,1.2c-0.6,0.4-1.5,0.5-2.7,0.4l-0.3,2.3c1.4,0.3,2.9,0.3,4-0.2
	c1.5-0.6,2.6-1.5,3.3-3.8L559.3,623.2z M543.2,625.8c2.7-0.4,2.8-1.6,4.3-6.4h-3.8c-1.1,4.1-1.3,5.3-3.2,5.3h-0.6
	c0.1-0.6,0.2-1.1,0.2-1.7v-3.6h-3.7V633h3.7v-4.5c0-0.4-0.1-0.8-0.2-1.3h0.7c1.9,0,2,0.9,3.4,5.8h3.9c-1.7-5.6-1.9-6.6-4.6-7v-0.2
	H543.2z"/>
<path class="st5" d="M624.1,171.7c2.2,0.9,3,3.8,3,7.9c0,4-0.8,6.9-3,7.9l0.4,1.5c4.1-1.2,6-4.1,6-9.4c0-5.3-1.9-8.3-6-9.4
	L624.1,171.7z M613.7,172.2l0.2,3h5.9c-0.3,0.5-0.5,1-0.7,1.4l-3.3,9.2h3.6l4.1-11.8c0.3-1-0.3-1.8-1.4-1.8L613.7,172.2L613.7,172.2
	z M611,182.4c-0.9,0-1.2,0.3-1.2,1.2v0.9c0,0.9,0.3,1.2,1.2,1.2h0.8c0.9,0,1.2-0.3,1.2-1.2v-0.9c0-0.9-0.3-1.2-1.2-1.2H611z
	 M607.3,185.7v-13.6h-3.7l-3.4,1.3l0.4,2.3l3.2-0.7c-0.1,0.6-0.1,1.1-0.1,1.6v9L607.3,185.7L607.3,185.7z M599.7,170.2
	c-4.1,1.2-6,4.1-6,9.4c0,5.3,1.9,8.2,6,9.4l0.4-1.5c-2.2-1-3-3.9-3-7.9c0-4.1,0.8-7,3-7.9L599.7,170.2z M588.4,180.4h-1.6v-5.6H584
	l-0.6,2.1v3.5h-2.7c-0.3,0-0.5-0.2-0.4-0.6l3-7.7H580l-3.4,8.6c-0.4,1.1,0.3,2.1,1.4,2.1h5.4v2.9h3.4v-2.9l0,0l1.6-0.4V180.4z
	 M573.2,182.4c-0.9,0-1.2,0.3-1.2,1.2v0.9c0,0.9,0.3,1.2,1.2,1.2h0.8c0.9,0,1.2-0.3,1.2-1.2v-0.9c0-0.9-0.3-1.2-1.2-1.2H573.2z
	 M560.9,174.8c1,0,2.4,0,3.8,0c1.4,0,1.8,0.2,1.8,1.3c0,0.9-0.1,1.5-1.6,1.5h-2.6v2.4h2.6c1.5,0,1.8,0.4,1.8,1.6
	c0,1.4-0.5,1.6-2.2,1.6c-1.2,0-2,0-3.8-0.1l-0.1,2.7c1.5,0.2,3.3,0.4,4.9,0.4c3.6,0,4.9-1.2,4.9-4.1c0-2.1-0.6-3.1-2.5-3.4v-0.1
	c1.8-0.3,2.2-1.5,2.2-3.4c0-2.4-1.3-3.2-4.6-3.2c-1.5,0-3,0.1-4.6,0.4L560.9,174.8z"/>
</svg>
