<svg xmlns="http://www.w3.org/2000/svg" xml:space="preserve" id="Слой_1" x="0" y="0" style="enable-background:new 0 0 1280 1024" version="1.1" viewBox="0 0 1280 1024"><style>.st1{fill:#39373a}.st2{stroke-width:.6}.st2,.st3,.st4,.st5{fill:none;stroke:#39373a}.st3{stroke-width:.52}.st4{stroke-width:.347}.st5{stroke-width:.217}</style><path d="M460.3 199.5h391V852h-391z" style="fill:#fbf4a6"/><path d="M450.4 426.9h9.3V480h-9.3z" class="st1"/><path d="M450.4 426.9h9.3V480h-9.3z" class="st2"/><path d="M450.4 528.2h10.2V975h-10.2z" class="st1"/><path d="M450.4 528.2h9.3V975h-9.3z" class="st2"/><path d="M839.1 113.4h20.5V874h-20.5z" class="st1"/><path d="M839.1 113.4h20.5V874h-20.5z" class="st2"/><path d="M793.3 177.5h53.5v3.4h-53.5z" class="st1"/><path d="M793.3 177.5h53.5v3.4h-53.5z" class="st2"/><path d="M730.5 177.5h69v3.4h-69z" class="st2"/><path d="M798.2 180.7h48.6v18.1h-48.6z" class="st1"/><path d="M798.2 180.7h48.6v18.1h-48.6z" class="st2"/><path d="M701.4 387.9h141.7v9.3H701.4z" class="st1"/><path d="M701.4 387.9h141.7v9.3H701.4z" class="st2"/><path d="M455.7 422.4h144v9.3h-144z" class="st1"/><path d="M455.7 422.4h144v9.3h-144z" class="st2"/><path d="M439.2 177h21.1v303h-21.1zm261.7 368.7h142.2v8H700.9z" class="st1"/><path d="M700.9 545.7h142.2v8H700.9z" class="st2"/><path d="M721.5 445.5h121.6v4.9H721.5z" class="st1"/><path d="M721.5 445.5h121.6v4.9H721.5z" class="st2"/><path d="M717.4 431.8h6.8v51h-6.8z" class="st1"/><path d="M717.4 431.8h6.8v51h-6.8z" class="st2"/><path d="M832 447.5h6.8v99.7H832z" class="st1"/><path d="M832 447.5h6.8v99.7H832z" class="st2"/><path d="M717.4 514.2h6.8v38.5h-6.8z" class="st1"/><path d="M717.4 514.2h6.8v38.5h-6.8z" class="st2"/><path d="M643.4 89.4h12.1v49.7h-12.1z" class="st1"/><path d="M643.4 89.4h12.1v49.7h-12.1z" class="st2"/><path d="M643.4 192.1h12.1v262.6h-12.1z" class="st1"/><path d="M643.4 192.1h12.1v262.6h-12.1z" class="st2"/><path d="M643.4 511.2h12.1v425.9h-12.1z" class="st1"/><path d="M643.4 511.2h12.1v425.9h-12.1zM477.2 89.4h171.6v6.8H477.2z" class="st2"/><path stroke-width=".6" d="m651.826 96.654.977-6.73 194.16 28.175-.977 6.73z" class="st2"/><path d="M735.6 181h69v17.8h-69zm-200.8-3.5h69v3.4h-69zm5.2 3.5h69v17.8h-69z" class="st2"/><path d="M600.1 177.5h50.4v3.4h-50.4z" class="st1"/><path d="M600.1 177.5h50.4v3.4h-50.4z" class="st2"/><path d="M604.6 180.7h45.9v18.1h-45.9z" class="st1"/><path d="M604.6 180.7h45.9v18.1h-45.9z" class="st2"/><path d="M647.8 177.5h50.4v3.4h-50.4z" class="st1"/><path d="M647.8 177.5h50.4v3.4h-50.4z" class="st2"/><path d="M647.8 180.7h45.9v18.1h-45.9z" class="st1"/><path d="M647.8 180.7h45.9v18.1h-45.9z" class="st2"/><path d="M453.6 177.5H504v3.4h-50.4z" class="st1"/><path d="M453.6 177.5H504v3.4h-50.4z" class="st2"/><path d="M453.6 180.7h45.9v18.1h-45.9z" class="st1"/><path d="M453.6 180.7h45.9v18.1h-45.9z" class="st2"/><path d="M448 545.7h123.6v8H448z" class="st1"/><path d="M441 545.7h130.6v8H441z" class="st2"/><path d="M616.3 545.7h33.1v8h-33.1z" class="st1"/><path d="M616.3 545.7h33.1v8h-33.1z" class="st2"/><path d="M441.1 551.9h14.6v66.5h-14.6z" class="st1"/><path d="M441.1 551.9h14.6v66.5h-14.6z" class="st2"/><path d="M445.6 852.6h47.7v21.3h-47.7z" class="st1"/><path d="M445.6 852.6h47.7v21.3h-47.7z" class="st2"/><path d="M640.2 852.6h47.7v21.3h-47.7z" class="st1"/><path d="M640.2 852.6h47.7v21.3h-47.7z" class="st2"/><path d="M610.6 852.6h47.7v21.3h-47.7z" class="st1"/><path d="M610.6 852.6h47.7v21.3h-47.7z" class="st2"/><path d="M805.7 852.6h47.7v21.3h-47.7z" class="st1"/><path d="M805.7 852.6h47.7v21.3h-47.7z" class="st2"/><path d="M439 528h16.2v446.8H439z" class="st1"/><path d="M441.1 702.8h14.2v156.6h-14.2z" class="st1"/><path d="M441.1 702.8h14.2v156.6h-14.2z" class="st2"/><path d="M450.8 869h47.7v4.9h-47.7z" class="st1"/><path d="M450.8 869h47.7v4.9h-47.7z" class="st2"/><path d="M645.4 870.5h47.7v3.4h-47.7z" class="st1"/><path d="M645.4 870.5h47.7v3.4h-47.7z" class="st2"/><path d="M605.4 870.5h47.7v3.4h-47.7z" class="st1"/><path d="M605.4 870.5h47.7v3.4h-47.7z" class="st2"/><path d="M800.5 869h47.7v4.9h-47.7z" class="st1"/><path d="M800.5 869h47.7v4.9h-47.7z" class="st2"/><path d="M457.9 405.6h22.3v16.9h-22.3z" class="st1"/><path d="M457.9 405.6h22.3v16.9h-22.3z" class="st2"/><path d="M450.4 83h31.7v100.3h-31.7zm368.553 770.884 20.294-20.294 14.778 14.779-20.294 20.294z" class="st1"/><path stroke-width=".6" d="m818.953 853.884 20.294-20.294 14.778 14.779-20.294 20.294z" class="st2"/><path d="m817.589 197.18 19.657-19.658 21.779 21.779-19.658 19.657z" class="st1"/><path stroke-width=".6" d="m817.589 197.18 19.657-19.658 21.779 21.779-19.658 19.657z" class="st2"/><path d="M531.4 870.5h83.7v3.4h-83.7zm133.5 0h164v3.4h-164zm-129.7-17.9h79.9v17.8h-79.9zm135.3 0h152.8v17.8H670.5z" class="st2"/><path stroke-width=".6" d="m455.802 956.737 193.367-28.06.977 6.73-193.368 28.059z" class="st2"/><path stroke-width=".52" d="m495.715 183.38 1.177-1.977 36.09 21.483-1.176 1.976z" class="st3"/><path d="M531.7 205.2s3.3-4.9 4.3-11.6c1-6.6.6-12.8.6-12.8" class="st4"/><path stroke-width=".52" d="m603.578 402.45 1.177-1.977 41.332 24.599-1.176 1.976z" class="st3"/><path d="M604.9 400.1s-3.3 4.9-4.3 11.6c-1 6.6-.6 12.8-.6 12.8" class="st4"/><path stroke-width=".52" d="m654.909 391.11 41.332-24.603 1.177 1.977-41.333 24.603z" class="st3"/><path d="M696.1 366.2s3.3 4.9 4.3 11.6c1 6.6.6 12.8.6 12.8" class="st4"/><path stroke-width=".52" d="m703.451 426.694 21.223-35.66 1.977 1.175-21.223 35.661z" class="st3"/><path d="M703.1 426.7s4.9 3.3 11.6 4.3c6.6 1 9.5.6 9.5.6" class="st4"/><path stroke-width=".52" d="m703.496 487.69 1.977-1.176 17.595 29.56-1.976 1.176z" class="st3"/><path d="M703.1 487.8s4.9-3.3 11.6-4.3c6.6-1 9.5-.6 9.5-.6" class="st4"/><path stroke-width=".52" d="m456.14 528.787 25.728-43.223 1.977 1.177-25.729 43.223z" class="st3"/><path d="M484.4 486.6s-6.5-3.8-13.1-5c-8.4-1.6-13.3-1.3-13.3-1.3" class="st4"/><path stroke-width=".52" d="m577.184 573.603 43.223-25.723 1.176 1.976-43.222 25.724z" class="st3"/><path d="M578.2 576.3s-3.8-6.5-5-13.1c-1.6-8.4-1.3-13.3-1.3-13.3" class="st4"/><path stroke-width=".52" d="m651.205 549.99 1.177-1.977 43.222 25.729-1.176 1.976z" class="st3"/><path d="M694.5 576.3s3.8-6.5 5-13.1c1.6-8.4 1.3-13.3 1.3-13.3" class="st4"/><path stroke-width=".52" d="m691.126 183.384 1.176-1.976 36.091 21.483-1.176 1.976z" class="st3"/><path d="M727.1 205.2s3.3-4.9 4.3-11.6c1-6.6.6-12.8.6-12.8" class="st4"/><path stroke-width=".52" d="m487.222 870.894 40.559-24.143 1.176 1.976-40.559 24.143z" class="st3"/><path d="M527.6 846.5s3.3 4.9 4.3 11.6c1 6.6.6 12.8.6 12.8" class="st4"/><path d="M446.6 654.7v47.1m34.9-296.4h47.6v15.7h-47.6zm.2 2.5h47.7" class="st2"/><path d="m484 407.9 1.1 11.3h30.1l1.3-11.3h2l1.3 11.4h6.8l1.4-11.4m292.1-9.4h17.7v45.6h-17.7zm14.9 45.6v-45.8" class="st2"/><path d="m835 441.8-12.7-1v-28.9l12.7-1.3v-1.9l-12.9-1.2V401l12.9-1.4" class="st2"/><path d="M461.9 382.3h30.9v-30.9h-30.9v30.9zm-.7-31.6h32.3V383h-32.3v-32.3z" class="st1"/><path d="M461.9 382.3h30.9v-30.9h-30.9v30.9zm-.7-31.6h32.3V383h-32.3v-32.3z" class="st5"/><path d="M490 356.1c0-.8-.6-1.4-1.4-1.4h-16.2c-.8 0-1.4.6-1.4 1.4v21.6c0 .8.6 1.4 1.4 1.4h16.2c.8 0 1.4-.6 1.4-1.4v-21.6zm-19.7 21.6v-21.6c0-1.1.9-2.1 2.1-2.1h16.2c1.1 0 2.1.9 2.1 2.1v21.6c0 1.1-.9 2.1-2.1 2.1h-16.2c-1.2 0-2.1-1-2.1-2.1" class="st1"/><path d="M490 356.1c0-.8-.6-1.4-1.4-1.4h-16.2c-.8 0-1.4.6-1.4 1.4v21.6c0 .8.6 1.4 1.4 1.4h16.2c.8 0 1.4-.6 1.4-1.4v-21.6zm-19.7 21.6v-21.6c0-1.1.9-2.1 2.1-2.1h16.2c1.1 0 2.1.9 2.1 2.1v21.6c0 1.1-.9 2.1-2.1 2.1h-16.2c-1.2 0-2.1-1-2.1-2.1z" class="st5"/><path d="M473.4 376.7h14.2v-19.6h-14.2v19.6zm-.7-20.3h15.6v21h-15.6v-21z" class="st1"/><path d="M473.4 376.7h14.2v-19.6h-14.2v19.6zm-.7-20.3h15.6v21h-15.6v-21z" class="st5"/><path d="M483.2 366.9c0-1-.8-1.8-1.8-1.8s-1.8.8-1.8 1.8.8 1.8 1.8 1.8 1.8-.8 1.8-1.8m-4.3 0c0-1.4 1.1-2.5 2.5-2.5s2.5 1.1 2.5 2.5-1.1 2.5-2.5 2.5c-1.3 0-2.5-1.2-2.5-2.5" class="st1"/><path d="M483.2 366.9c0-1-.8-1.8-1.8-1.8s-1.8.8-1.8 1.8.8 1.8 1.8 1.8 1.8-.8 1.8-1.8zm-4.3 0c0-1.4 1.1-2.5 2.5-2.5s2.5 1.1 2.5 2.5-1.1 2.5-2.5 2.5c-1.3 0-2.5-1.2-2.5-2.5z" class="st5"/><path d="M819.9 541.8c6 0 10.8-4.8 10.8-10.8v-65.6c0-6-4.8-10.8-10.8-10.8H805c-6 0-10.8 4.8-10.8 10.8V531c0 6 4.8 10.8 10.8 10.8h14.9z" class="st3"/><path d="M816.5 535.8c6 0 10.8-4.8 10.8-10.8v-53.5c0-6-4.8-10.8-10.8-10.8h-8.1c-6 0-10.8 4.8-10.8 10.8V525c0 6 4.8 10.8 10.8 10.8h8.1z" class="st3"/><path d="M818.6 528.4c3 0 5.4-2.4 5.4-5.4v-53.6c0-3-2.4-5.4-5.4-5.4h-12.3c-3 0-5.4 2.4-5.4 5.4V523c0 3 2.4 5.4 5.4 5.4h12.3z" class="st3"/><path d="M812.5 470.6c-.9 0-1.6.7-1.6 1.6s.7 1.6 1.6 1.6c.9 0 1.6-.7 1.6-1.6s-.7-1.6-1.6-1.6zM792.1 545v-94" class="st3"/><path d="M779.5 474.7c5.7 0 10.3-4.6 10.3-10.3v-10.9c0-.9-.7-1.6-1.6-1.6H765c-.9 0-1.6.7-1.6 1.6v10.9c0 5.7 4.6 10.3 10.3 10.3h5.8zM765 451.3h23.3c1.2 0 2.1 1 2.1 2.1v10.9c0 6-4.9 10.9-10.9 10.9h-5.8c-6 0-10.9-4.9-10.9-10.9v-10.9c0-1.2 1-2.1 2.2-2.1" class="st1"/><path d="M779.5 474.7c5.7 0 10.3-4.6 10.3-10.3v-10.9c0-.9-.7-1.6-1.6-1.6H765c-.9 0-1.6.7-1.6 1.6v10.9c0 5.7 4.6 10.3 10.3 10.3h5.8zM765 451.3h23.3c1.2 0 2.1 1 2.1 2.1v10.9c0 6-4.9 10.9-10.9 10.9h-5.8c-6 0-10.9-4.9-10.9-10.9v-10.9c0-1.2 1-2.1 2.2-2.1z" class="st5"/><path d="M779.5 472.1c4.3 0 7.7-3.5 7.7-7.7V458c0-.7-.6-1.3-1.3-1.3h-18.6c-.7 0-1.4.6-1.4 1.3v6.4c0 4.3 3.5 7.7 7.7 7.7h5.9zM767.3 456h18.6c1.1 0 1.9.9 1.9 1.9v6.4c0 4.6-3.7 8.3-8.3 8.3h-5.8c-4.6 0-8.3-3.7-8.3-8.3V458c0-1.1.9-2 1.9-2" class="st1"/><path d="M779.5 472.1c4.3 0 7.7-3.5 7.7-7.7V458c0-.7-.6-1.3-1.3-1.3h-18.6c-.7 0-1.4.6-1.4 1.3v6.4c0 4.3 3.5 7.7 7.7 7.7h5.9zM767.3 456h18.6c1.1 0 1.9.9 1.9 1.9v6.4c0 4.6-3.7 8.3-8.3 8.3h-5.8c-4.6 0-8.3-3.7-8.3-8.3V458c0-1.1.9-2 1.9-2z" class="st5"/><path d="M776.6 466.7c.7 0 1.3-.6 1.3-1.3s-.6-1.3-1.3-1.3c-.7 0-1.3.6-1.3 1.3s.6 1.3 1.3 1.3m0-3.2c1 0 1.9.8 1.9 1.9s-.8 1.9-1.9 1.9c-1 0-1.9-.8-1.9-1.9s.9-1.9 1.9-1.9" class="st1"/><path d="M776.6 466.7c.7 0 1.3-.6 1.3-1.3s-.6-1.3-1.3-1.3c-.7 0-1.3.6-1.3 1.3s.6 1.3 1.3 1.3zm0-3.2c1 0 1.9.8 1.9 1.9s-.8 1.9-1.9 1.9c-1 0-1.9-.8-1.9-1.9s.9-1.9 1.9-1.9z" class="st5"/><path d="M779.5 420.5c0-5.4 4.4-9.7 9.7-9.7h14.1c.9 0 1.7.8 1.7 1.7v16.1c0 .9-.8 1.7-1.7 1.7h-14.1c-5.3-.1-9.7-4.5-9.7-9.8m26.2 8v-16.1c0-1.3-1.1-2.3-2.3-2.3h-14.1c-5.7 0-10.4 4.7-10.4 10.4s4.7 10.4 10.4 10.4h14.1c1.2 0 2.3-1.1 2.3-2.4" class="st1"/><path d="M779.5 420.5c0-5.4 4.4-9.7 9.7-9.7h14.1c.9 0 1.7.8 1.7 1.7v16.1c0 .9-.8 1.7-1.7 1.7h-14.1c-5.3-.1-9.7-4.5-9.7-9.8zm26.2 8v-16.1c0-1.3-1.1-2.3-2.3-2.3h-14.1c-5.7 0-10.4 4.7-10.4 10.4s4.7 10.4 10.4 10.4h14.1c1.2 0 2.3-1.1 2.3-2.4z" class="st5"/><path d="M800.3 413.5v14c0 .1-.1.2-.2.2h-10.6c-3.9 0-7.1-3.2-7.1-7.1 0-3.9 3.2-7.1 7.1-7.1h10.6c.1-.2.2-.1.2 0z" class="st5"/><path d="M800 413.7v13.6h-10.5c-3.8 0-6.8-3.1-6.8-6.8 0-3.8 3.1-6.8 6.8-6.8H800zm.7 13.7v-14c0-.3-.2-.5-.5-.5h-10.6c-4.1 0-7.5 3.4-7.5 7.5s3.4 7.5 7.5 7.5h10.6c.2.1.5-.2.5-.5" class="st1"/><path d="M800 413.7v13.6h-10.5c-3.8 0-6.8-3.1-6.8-6.8 0-3.8 3.1-6.8 6.8-6.8H800zm.7 13.7v-14c0-.3-.2-.5-.5-.5h-10.6c-4.1 0-7.5 3.4-7.5 7.5s3.4 7.5 7.5 7.5h10.6c.2.1.5-.2.5-.5z" class="st5"/><path d="M789.5 420.5c0-1 .8-1.8 1.8-1.8s1.8.8 1.8 1.8-.8 1.8-1.8 1.8-1.8-.8-1.8-1.8m4.4 0c0-1.4-1.1-2.5-2.5-2.5s-2.5 1.1-2.5 2.5 1.1 2.5 2.5 2.5 2.5-1.1 2.5-2.5" class="st1"/><path d="M789.5 420.5c0-1 .8-1.8 1.8-1.8s1.8.8 1.8 1.8-.8 1.8-1.8 1.8-1.8-.8-1.8-1.8zm4.4 0c0-1.4-1.1-2.5-2.5-2.5s-2.5 1.1-2.5 2.5 1.1 2.5 2.5 2.5 2.5-1.1 2.5-2.5z" class="st5"/><path d="m799 415-.4-.5-4.5 3.3.4.6z" class="st1"/><path d="m799 415-.4-.5-4.5 3.3.4.6z" class="st5"/><path d="m794.111 423.021.42-.56 4.483 3.356-.42.56z" class="st1"/><path d="m794.111 423.021.42-.56 4.483 3.356-.42.56z" class="st5"/><path d="M805.7 413.8c0-1.5 1.2-2.7 2.7-2.7h3.7c1.5 0 2.7 1.2 2.7 2.7v13.4c0 1.5-1.2 2.7-2.7 2.7h-3.7c-1.5 0-2.7-1.2-2.7-2.7v-13.4zm9.8 13.4v-13.4c0-1.9-1.5-3.4-3.4-3.4h-3.7c-1.9 0-3.4 1.5-3.4 3.4v13.4c0 1.9 1.5 3.4 3.4 3.4h3.7c1.8 0 3.4-1.6 3.4-3.4" class="st1"/><path d="M805.7 413.8c0-1.5 1.2-2.7 2.7-2.7h3.7c1.5 0 2.7 1.2 2.7 2.7v13.4c0 1.5-1.2 2.7-2.7 2.7h-3.7c-1.5 0-2.7-1.2-2.7-2.7v-13.4zm9.8 13.4v-13.4c0-1.9-1.5-3.4-3.4-3.4h-3.7c-1.9 0-3.4 1.5-3.4 3.4v13.4c0 1.9 1.5 3.4 3.4 3.4h3.7c1.8 0 3.4-1.6 3.4-3.4z" class="st5"/><path d="M809.2 420.5c0-.6.5-1 1-1 .6 0 1 .5 1 1 0 .6-.5 1-1 1s-1-.5-1-1m2.8 0c0-.9-.8-1.7-1.7-1.7-.9 0-1.7.8-1.7 1.7 0 .9.8 1.7 1.7 1.7.9 0 1.7-.8 1.7-1.7" class="st1"/><path d="M809.2 420.5c0-.6.5-1 1-1 .6 0 1 .5 1 1 0 .6-.5 1-1 1s-1-.5-1-1zm2.8 0c0-.9-.8-1.7-1.7-1.7-.9 0-1.7.8-1.7 1.7 0 .9.8 1.7 1.7 1.7.9 0 1.7-.8 1.7-1.7z" class="st5"/><path d="M728.1 451.6h33v33.7h-33zm.4-.1 32.4 33.7m.4-33.7-32.4 33.7" class="st3"/><path d="M761.7 771.5c1.5 0 1.8.3 1.8 1.8 0 1.4-.3 1.7-1.8 1.7s-1.9-.3-1.9-1.7c-.1-1.5.3-1.8 1.9-1.8m0-5.6c1.4 0 1.7.3 1.7 1.6 0 1.2-.3 1.5-1.6 1.5-1.4 0-1.7-.3-1.7-1.5-.2-1.3.2-1.6 1.6-1.6m-3 4.4c-2 .2-2.4 1.8-2.4 3.6 0 2.7 1.1 3.7 5.4 3.7 4.3 0 5.4-1 5.4-3.7 0-1.8-.5-3.5-2.4-3.6v-.1c1.5-.2 2.1-1.7 2.1-3.1 0-2.6-.9-3.7-5-3.7s-5 1.1-5 3.7c-.2 1.5.4 3 1.9 3.2zm-6.2 3.7c-1 0-1.2.3-1.2 1.2v.9c0 1 .3 1.2 1.2 1.2h.8c1 0 1.2-.3 1.2-1.2v-.9c0-1-.3-1.2-1.2-1.2h-.8zm-8.3-2.5c1.5 0 1.8.3 1.8 1.8 0 1.4-.3 1.7-1.8 1.7s-1.9-.3-1.9-1.7c0-1.5.3-1.8 1.9-1.8m0-5.6c1.4 0 1.7.3 1.7 1.6 0 1.2-.3 1.5-1.6 1.5-1.4 0-1.7-.3-1.7-1.5-.1-1.3.2-1.6 1.6-1.6m-3 4.4c-2 .2-2.4 1.8-2.4 3.6 0 2.7 1.1 3.7 5.4 3.7 4.3 0 5.4-1 5.4-3.7 0-1.8-.5-3.5-2.4-3.6v-.1c1.5-.2 2.1-1.7 2.1-3.1 0-2.6-.9-3.7-5-3.7s-5 1.1-5 3.7c-.2 1.5.4 3 1.9 3.2zm-4.9 7.1v-13.7h-3.7l-3.5 1.3.4 2.4 3.2-.7c-.1.6-.1 1.1-.1 1.6v9h3.7zm82.3-27.2c0-.5.2-.8.8-.8h2.1v1.2c-.7.4-1.3.7-1.9.7-.7 0-1-.3-1-.8v-.3zm-2.7-3.9c1.6-.1 3.2-.1 4.2-.1s1.3.3 1.4 1.1v.2h-3.3c-2 0-3.1.9-3.1 2.5v1c0 1.8 1.5 2.8 3.3 2.8 1.7 0 2.8-.9 3.5-1.7l.3 1.4h2.9v-6.3c0-2.9-1.5-3.8-4.1-3.8-1.4 0-3.9.2-5.4.5l.3 2.4zm-1.6.2v-2.7h-9.8v2.7h3.1v7.1h3.6v-7.1h3.1zm-17.6 3.7c0-.5.2-.8.8-.8h2.1v1.2c-.7.4-1.3.7-1.9.7-.7 0-1-.3-1-.8v-.3zm-2.7-3.9c1.6-.1 3.2-.1 4.2-.1s1.3.3 1.4 1.1v.2h-3.3c-2 0-3.1.9-3.1 2.5v1c0 1.8 1.5 2.8 3.3 2.8 1.7 0 2.8-.9 3.5-1.7l.3 1.4h2.9v-6.3c0-2.9-1.5-3.8-4.1-3.8-1.4 0-3.9.2-5.4.5l.3 2.4zm-2.4-2.5H788v3.5h-3v-3.5h-3.5v9.8h3.5v-4h3v4h3.5v-9.8zm-16.7 0c-.8 0-1.2.4-1.3 1.1l-.9 3.7c-.1.5-.1 1-.2 1.5h-.2c-.1-.5-.1-1-.2-1.5l-.9-3.7c-.1-.7-.6-1.1-1.3-1.1h-3c-.8 0-1.2.4-1.2 1.2l-.2 8.6h3.2l.2-7.2h.2l1.2 4.8c.1.7.6 1.1 1.4 1.1h1.6c.8 0 1.2-.4 1.3-1.1l1.2-4.8h.2l.3 7.2h3.2l-.3-8.6c0-.8-.4-1.2-1.2-1.2h-3.1zm-16.3 2.2c1.2 0 1.5.5 1.5 2.7s-.3 2.6-1.5 2.6-1.5-.5-1.5-2.6c-.1-2.2.2-2.7 1.5-2.7m0-2.5c-3.9 0-5.3 1.4-5.3 5.2 0 3.8 1.4 5.1 5.3 5.1s5.3-1.4 5.3-5.1c-.1-3.8-1.5-5.2-5.3-5.2m-9.9 4.9c2.3-.3 2.1-.5 3.4-4.7h-3.6c-.9 3.3-.9 3.6-2.3 3.6h-.4c.1-.4.1-.8.1-1.2v-2.3h-3.6v9.8h3.6v-3.1c0-.2 0-.5-.1-.8h.8c1 0 1.1.3 2.2 3.9h3.7c-1.4-4.7-1.5-4.7-3.8-5.2zm-16.3-.2H731c-.9 0-1.1-.2-1.1-1.2 0-.7.2-.9 1.1-.9h1.4v2.1zm-3.8 1.2c-.6.1-1.6.2-1.9 1.1l-.8 3.1h3.7l.6-2.6c.1-.5.3-.6.9-.6h1.3v3.2h3.5v-9.9c-1.2-.1-2.3-.2-5-.2-3.6 0-4.5.7-4.5 3.2 0 1.2.5 2.3 2.2 2.7zm-10.5.8c0-.5.2-.8.8-.8h2.1v1.2c-.7.4-1.3.7-1.9.7-.7 0-1-.3-1-.8v-.3zm-2.7-3.9c1.6-.1 3.2-.1 4.2-.1s1.3.3 1.4 1.1v.2h-3.3c-2 0-3.1.9-3.1 2.5v1c0 1.8 1.5 2.8 3.3 2.8 1.7 0 2.8-.9 3.5-1.7l.3 1.4h2.9v-6.3c0-2.9-1.5-3.8-4.1-3.8-1.4 0-3.9.2-5.4.5l.3 2.4zm-2.5-2.5H707c-1.7 0-2.6.9-2.7 2.5-.1 1.8-.3 3.2-.5 3.9-.2.8-.8.8-1.7.9l.4 2.6c2.2.4 4.1-.1 4.5-2.6.2-1 .4-2.6.6-4.1.1-.6.3-.8.9-.8h.9v7.4h3.6v-9.8zm-12 9.8v-9.9h-3.1l-3.1 4.7c-.3.5-.6.9-.8 1.4h-.1c.1-.6.1-1 .1-1.5v-4.6h-3.2v9.8h3.1l3.1-4.5c.3-.4.6-1.1.8-1.6h.1c-.1.7-.1 1.2-.1 1.7v4.4h3.2zm-16-7.2c2.7-.4 2.7-1.6 4.2-6.5h-3.8c-1.2 4.1-1.5 5.3-2.8 5.3h-.6c.1-.6.2-1.1.2-1.7v-3.6h-3.5v3.6c0 .6.1 1.1.2 1.7h-.8c-1.3 0-1.6-1.2-2.8-5.3h-3.8c1.4 4.9 1.5 6.1 4.2 6.5v.1c-2.8.4-2.9 1.5-4.5 7.1h3.9c1.5-5 1.7-5.8 3-5.8h.7c-.1.4-.2.9-.2 1.3v4.6h3.5V749c0-.4-.1-.8-.2-1.3h.7c1.4 0 1.5.9 3 5.8h3.9c-1.6-5.6-1.8-6.7-4.6-7.1zm-118.1-36.3c1.5 0 1.9.7 1.9 4.3 0 3.6-.4 4.3-1.9 4.3s-1.9-.7-1.9-4.3c0-3.6.4-4.3 1.9-4.3m0-2.8c-4.1 0-5.6 1.8-5.6 7.1s1.4 7.1 5.6 7.1c4.2 0 5.6-1.8 5.6-7.1s-1.5-7.1-5.6-7.1m-9.3 10.6c-.9 0-1.2.3-1.2 1.2v.9c0 1 .3 1.2 1.2 1.2h.9c.9 0 1.2-.3 1.2-1.2v-.9c0-1-.3-1.2-1.2-1.2h-.9zm-9.8-5.6c0-1.6.1-2.3 1.6-2.3s1.7.5 1.7 3.5c-.7.4-1.1.5-1.7.5-1.3.1-1.6-.3-1.6-1.7m-2.9 8.8c1.6.4 3 .4 3.8.4 4.4 0 6-1 6-7.2 0-5.5-.9-6.9-5.2-6.9-4 0-5.1 1.5-5.1 5 0 2.5.9 4.2 3.9 4.2 1.2 0 2.1-.2 2.8-.8-.1 2.3-.6 3-2.4 3H545l-.2 2.3zm-2.9.1v-13.7h-3.7l-3.5 1.3.4 2.4 3.2-.7c-.1.6-.1 1.1-.1 1.6v9h3.7zm82.2-27.1c0-.5.2-.8.8-.8h2.1v1.2c-.7.4-1.3.7-1.9.7-.7 0-1-.3-1-.8v-.3zm-2.7-3.9c1.6-.1 3.2-.1 4.2-.1s1.3.3 1.4 1.1v.2h-3.3c-2 0-3.1.9-3.1 2.5v1c0 1.8 1.5 2.8 3.3 2.8 1.7 0 2.8-.9 3.5-1.7l.3 1.4h2.9v-6.3c0-2.9-1.5-3.8-4.1-3.8-1.4 0-3.9.2-5.4.5l.3 2.4zm-1.6.1v-2.7H610v2.7h3.1v7.1h3.6v-7.1h3.1zm-17.6 3.8c0-.5.2-.8.8-.8h2.1v1.2c-.7.4-1.3.7-1.9.7-.7 0-1-.3-1-.8v-.3zm-2.7-3.9c1.6-.1 3.2-.1 4.2-.1s1.3.3 1.4 1.1v.2h-3.3c-2 0-3.1.9-3.1 2.5v1c0 1.8 1.5 2.8 3.3 2.8 1.7 0 2.8-.9 3.5-1.7l.3 1.4h2.9v-6.3c0-2.9-1.5-3.8-4.1-3.8-1.4 0-3.9.2-5.4.5l.3 2.4zm-2.5-2.6h-3.5v3.5h-3v-3.5H587v9.8h3.5v-4h3v4h3.5v-9.8zm-16.6 0c-.8 0-1.2.4-1.3 1.1l-.9 3.7c-.1.5-.1 1-.2 1.5h-.2c-.1-.5-.1-1-.2-1.5l-.9-3.7c-.1-.7-.6-1.1-1.3-1.1h-3c-.8 0-1.2.4-1.2 1.2l-.2 8.6h3.2l.2-7.2h.2l1.2 4.8c.1.7.6 1.1 1.4 1.1h1.6c.8 0 1.2-.4 1.3-1.1l1.2-4.8h.2l.3 7.2h3.2l-.3-8.6c0-.8-.4-1.2-1.2-1.2h-3.1zm-16.4 2.3c1.2 0 1.5.5 1.5 2.7s-.3 2.6-1.5 2.6-1.5-.5-1.5-2.6c0-2.2.3-2.7 1.5-2.7m0-2.5c-3.9 0-5.3 1.4-5.3 5.2 0 3.8 1.4 5.1 5.3 5.1s5.3-1.4 5.3-5.1c0-3.8-1.4-5.2-5.3-5.2m-9.8 4.9c2.3-.3 2.1-.5 3.4-4.7H554c-.9 3.3-.9 3.6-2.3 3.6h-.4c.1-.4.1-.8.1-1.2v-2.3h-3.6v9.8h3.6v-3.1c0-.2 0-.5-.1-.8h.8c1 0 1.1.3 2.2 3.9h3.7c-1.5-4.7-1.5-4.8-3.8-5.2zm-16.3-.2h-1.4c-.9 0-1.1-.2-1.1-1.2 0-.7.2-.9 1.1-.9h1.4v2.1zm-3.9 1.2c-.6.1-1.6.2-1.9 1.1l-.8 3.1h3.7l.6-2.6c.1-.5.3-.6.9-.6h1.3v3.2h3.5v-9.9c-1.2-.1-2.3-.2-5-.2-3.6 0-4.5.7-4.5 3.2.1 1.2.6 2.3 2.2 2.7zm-10.4.8c0-.5.2-.8.8-.8h2.1v1.2c-.7.4-1.3.7-1.9.7-.7 0-1-.3-1-.8v-.3zm-2.7-3.9c1.6-.1 3.2-.1 4.2-.1s1.3.3 1.4 1.1v.2h-3.3c-2 0-3.1.9-3.1 2.5v1c0 1.8 1.5 2.8 3.3 2.8 1.7 0 2.8-.9 3.5-1.7l.3 1.4h2.9v-6.3c0-2.9-1.5-3.8-4.1-3.8-1.4 0-3.9.2-5.4.5l.3 2.4zm-2.5-2.6h-5.9c-1.7 0-2.6.9-2.7 2.5-.1 1.8-.3 3.2-.5 3.9-.2.8-.8.8-1.7.9l.4 2.6c2.2.4 4.1-.1 4.5-2.6.2-1 .4-2.6.6-4.1.1-.6.3-.8.9-.8h.9v7.4h3.6v-9.8zm-12 9.9v-9.9h-3.1l-3.1 4.7c-.3.5-.6.9-.8 1.4h-.1c.1-.6.1-1 .1-1.5v-4.6h-3.2v9.8h3.1l3.1-4.5c.3-.4.6-1.1.8-1.6h.1c-.1.7-.1 1.2-.1 1.7v4.4h3.2zm-16-7.2c2.7-.4 2.7-1.6 4.2-6.5h-3.8c-1.2 4.1-1.5 5.3-2.8 5.3h-.6c.1-.6.2-1.1.2-1.7v-3.6h-3.5v3.6c0 .6.1 1.1.2 1.7h-.7c-1.3 0-1.6-1.2-2.8-5.3H477c1.4 4.9 1.5 6.1 4.2 6.5v.1c-2.8.4-2.9 1.5-4.5 7.1h3.9c1.5-5 1.7-5.8 3-5.8h.7c-.1.4-.2.9-.2 1.3v4.6h3.5V693c0-.4-.1-.8-.2-1.3h.7c1.4 0 1.5.9 3 5.8h3.9c-1.6-5.6-1.8-6.7-4.6-7.1v-.1zm95.1 210.8c2.2.9 3 3.8 3 7.9 0 4.1-.8 6.9-3 7.9l.4 1.5c4.2-1.2 6-4.2 6-9.4 0-5.3-1.9-8.3-6-9.5l-.4 1.6zm-10.6 3.4c1.9-.1 2.9-.1 4.3-.1 1 0 1.5.1 1.5.6 0 .8-.9 2-2.4 3.6l-3.1 3.2c-.4.4-.5.9-.5 1.5v1.9h10.2V912H581c-.7 0-1.3 0-1.9.2l3.4-3.3c1.8-1.9 2.1-2.8 2.1-4.3 0-2.7-1.9-3.3-4.8-3.3-1.5 0-2.9.1-4.9.5v2.7zm-3.9 7.3c-1 0-1.2.3-1.2 1.2v.9c0 1 .3 1.2 1.2 1.2h.8c1 0 1.2-.3 1.2-1.2v-.9c0-1-.3-1.2-1.2-1.2h-.8zm-12.8-7.3c1.9-.1 2.9-.1 4.3-.1 1 0 1.5.1 1.5.6 0 .8-.9 2-2.4 3.6l-3.1 3.2c-.4.4-.5.9-.5 1.5v1.9h10.2V912h-3.9c-.7 0-1.3 0-1.9.2l3.4-3.3c1.8-1.9 2.1-2.8 2.1-4.3 0-2.7-1.9-3.3-4.8-3.3-1.5 0-2.9.1-4.9.5v2.7zm-1.7-5c-4.2 1.2-6 4.1-6 9.5 0 5.3 1.9 8.3 6 9.4l.4-1.5c-2.2-1-3-3.9-3-7.9 0-4.1.8-7 3-7.9l-.4-1.6zm-21.1 4.7h3.8c1.4 0 1.8.2 1.8 1.3 0 .9-.1 1.5-1.6 1.5h-2.6v2.4h2.6c1.5 0 1.8.4 1.8 1.6 0 1.4-.5 1.6-2.3 1.6-1.2 0-2.1 0-3.8-.1l-.1 2.7c1.5.2 3.3.4 4.9.4 3.6 0 4.9-1.2 4.9-4.1 0-2.1-.6-3.1-2.5-3.4v-.1c1.8-.3 2.2-1.5 2.2-3.5 0-2.4-1.3-3.2-4.6-3.2-1.5 0-3 .1-4.6.4l.1 2.5zm-4 7.6c-1 0-1.2.3-1.2 1.2v.9c0 1 .3 1.2 1.2 1.2h.9c.9 0 1.2-.3 1.2-1.2v-.9c0-1-.3-1.2-1.2-1.2h-.9zm-2.5-2h-1.6v-5.6h-2.8l-.6 2.1v3.5h-2.7c-.3 0-.5-.2-.4-.6l3-7.7h-3.5l-3.4 8.7c-.4 1.1.3 2.1 1.4 2.1h5.5v2.9h3.4v-2.9l1.6-.4v-2.1zM758.1 296c0-1.6.1-2.3 1.6-2.3s1.7.5 1.7 3.5c-.7.4-1.1.5-1.7.5-1.3.1-1.7-.3-1.6-1.7m-3 8.8c1.6.4 3 .4 3.8.4 4.4 0 6-1 6-7.2 0-5.5-.9-6.9-5.2-6.9-4 0-5.1 1.5-5.1 5 0 2.5.9 4.2 3.9 4.2 1.2 0 2.1-.2 2.8-.8-.1 2.3-.6 3-2.4 3h-3.6l-.2 2.3zm-4.1-3.2c-.9 0-1.2.3-1.2 1.2v.9c0 1 .3 1.2 1.2 1.2h.9c.9 0 1.2-.3 1.2-1.2v-.9c0-1-.3-1.2-1.2-1.2h-.9zm-3.7 3.4v-13.7h-3.7l-3.5 1.3.4 2.4 3.2-.7c-.1.6-.1 1.1-.1 1.6v9h3.7zm-8.9 0v-13.7h-3.7l-3.5 1.3.4 2.4 3.2-.7c-.1.6-.1 1.1-.1 1.6v9h3.7zm80.2-27.2c0-.5.2-.8.8-.8h2.1v1.2c-.7.4-1.3.7-1.9.7-.7 0-1-.3-1-.8v-.3zm-2.7-3.9c1.6-.1 3.2-.1 4.2-.1s1.3.3 1.4 1.1v.2h-3.3c-2 0-3.1.9-3.1 2.5v1c0 1.8 1.5 2.8 3.3 2.8 1.7 0 2.8-.9 3.5-1.7l.3 1.4h2.9v-6.3c0-2.9-1.5-3.8-4.1-3.8-1.4 0-3.9.2-5.4.5l.3 2.4zm-1.6.2v-2.7h-9.8v2.7h3.1v7.1h3.6v-7.1h3.1zm-17.6 3.7c0-.5.2-.8.8-.8h2.1v1.2c-.7.4-1.3.7-1.9.7-.7 0-1-.3-1-.8v-.3zm-2.7-3.9c1.6-.1 3.2-.1 4.2-.1s1.3.3 1.4 1.1v.2h-3.3c-2 0-3.1.9-3.1 2.5v1c0 1.8 1.5 2.8 3.3 2.8 1.7 0 2.8-.9 3.5-1.7l.3 1.4h2.9v-6.3c0-2.9-1.5-3.8-4.1-3.8-1.4 0-3.9.2-5.4.5l.3 2.4zm-2.4-2.6H788v3.5h-3v-3.5h-3.5v9.8h3.5v-4h3v4h3.5v-9.8zm-16.7 0c-.8 0-1.2.4-1.3 1.1l-.9 3.7c-.1.5-.1 1-.2 1.5h-.2c-.1-.5-.1-1-.2-1.5l-.9-3.7c-.1-.7-.6-1.1-1.3-1.1h-3c-.8 0-1.2.4-1.2 1.2l-.2 8.6h3.2l.2-7.2h.2l1.2 4.8c.1.7.6 1.1 1.4 1.1h1.6c.8 0 1.2-.4 1.3-1.1l1.2-4.8h.2l.3 7.2h3.2l-.3-8.6c0-.8-.4-1.2-1.2-1.2h-3.1zm-16.3 2.3c1.2 0 1.5.5 1.5 2.7s-.3 2.6-1.5 2.6-1.5-.5-1.5-2.6c-.1-2.2.2-2.7 1.5-2.7m0-2.5c-3.9 0-5.3 1.4-5.3 5.2 0 3.8 1.4 5.1 5.3 5.1s5.3-1.4 5.3-5.1c-.1-3.8-1.5-5.2-5.3-5.2m-9.9 4.9c2.3-.3 2.1-.5 3.4-4.7h-3.6c-.9 3.3-.9 3.6-2.3 3.6h-.4c.1-.4.1-.8.1-1.2v-2.3h-3.6v9.8h3.6v-3.1c0-.2 0-.5-.1-.8h.8c1 0 1.1.3 2.2 3.9h3.7c-1.4-4.7-1.5-4.7-3.8-5.2zm-16.3-.2H731c-.9 0-1.1-.2-1.1-1.2 0-.7.2-.9 1.1-.9h1.4v2.1zm-3.8 1.2c-.6.1-1.6.2-1.9 1.1l-.8 3.1h3.7l.6-2.6c.1-.5.3-.6.9-.6h1.3v3.2h3.5v-9.9c-1.2-.1-2.3-.2-5-.2-3.6 0-4.5.7-4.5 3.2 0 1.2.5 2.3 2.2 2.7zm-10.5.8c0-.5.2-.8.8-.8h2.1v1.2c-.7.4-1.3.7-1.9.7-.7 0-1-.3-1-.8v-.3zm-2.7-3.9c1.6-.1 3.2-.1 4.2-.1s1.3.3 1.4 1.1v.2h-3.3c-2 0-3.1.9-3.1 2.5v1c0 1.8 1.5 2.8 3.3 2.8 1.7 0 2.8-.9 3.5-1.7l.3 1.4h2.9v-6.3c0-2.9-1.5-3.8-4.1-3.8-1.4 0-3.9.2-5.4.5l.3 2.4zm-2.5-2.6H707c-1.7 0-2.6.9-2.7 2.5-.1 1.8-.3 3.2-.5 3.9-.2.8-.8.8-1.7.9l.4 2.6c2.2.4 4.1-.1 4.5-2.6.2-1 .4-2.6.6-4.1.1-.6.3-.8.9-.8h.9v7.4h3.6v-9.8zm-12 9.9v-9.9h-3.1l-3.1 4.7c-.3.5-.6.9-.8 1.4h-.1c.1-.6.1-1 .1-1.5v-4.6h-3.2v9.8h3.1l3.1-4.5c.3-.4.6-1.1.8-1.6h.1c-.1.7-.1 1.2-.1 1.7v4.4h3.2zm-16-7.2c2.7-.4 2.7-1.6 4.2-6.5h-3.8c-1.2 4.1-1.5 5.3-2.8 5.3h-.6c.1-.6.2-1.1.2-1.7v-3.6h-3.5v3.6c0 .6.1 1.1.2 1.7h-.8c-1.3 0-1.6-1.2-2.8-5.3h-3.8c1.4 4.9 1.5 6.1 4.2 6.5v.1c-2.8.4-2.9 1.5-4.5 7.1h3.9c1.5-5 1.7-5.8 3-5.8h.7c-.1.4-.2.9-.2 1.3v4.6h3.5v-4.6c0-.4-.1-.8-.2-1.3h.7c1.4 0 1.5.9 3 5.8h3.9c-1.6-5.6-1.8-6.7-4.6-7.1v-.1zM564 299.1c1.5 0 1.8.3 1.8 1.8 0 1.4-.3 1.7-1.8 1.7s-1.9-.3-1.9-1.7c0-1.5.4-1.8 1.9-1.8m0-5.6c1.4 0 1.7.3 1.7 1.6 0 1.2-.3 1.5-1.6 1.5-1.4 0-1.7-.3-1.7-1.5-.1-1.3.2-1.6 1.6-1.6m-2.9 4.4c-2 .2-2.4 1.8-2.4 3.6 0 2.7 1.1 3.7 5.4 3.7 4.3 0 5.4-1 5.4-3.7 0-1.8-.5-3.5-2.4-3.6v-.1c1.5-.2 2.1-1.7 2.1-3.1 0-2.6-.9-3.7-5-3.7s-5 1.1-5 3.7c-.2 1.5.4 3 1.9 3.2zm-6.3 3.7c-1 0-1.2.3-1.2 1.2v.9c0 1 .3 1.2 1.2 1.2h.8c1 0 1.2-.3 1.2-1.2v-.9c0-1-.3-1.2-1.2-1.2h-.8zm-12.3-7.6h3.8c1.4 0 1.8.2 1.8 1.3 0 .9-.1 1.5-1.6 1.5h-2.6v2.4h2.6c1.5 0 1.8.4 1.8 1.6 0 1.4-.5 1.6-2.3 1.6-1.2 0-2.1 0-3.8-.1l-.1 2.7c1.5.2 3.3.4 4.9.4 3.6 0 4.9-1.2 4.9-4.1 0-2.1-.6-3.1-2.5-3.4v-.1c1.8-.3 2.2-1.5 2.2-3.5 0-2.4-1.3-3.2-4.6-3.2-1.5 0-3 .1-4.6.4l.1 2.5zm-2.7 11v-13.7h-3.7l-3.5 1.3.4 2.4 3.2-.7c-.1.6-.1 1.1-.1 1.6v9h3.7zm36.9-29.2h-1.4c-.9 0-1.1-.2-1.1-1.2 0-.7.2-.9 1.1-.9h1.4v2.1zm-3.9 1.2c-.6.1-1.6.2-1.9 1.1l-.8 3.1h3.7l.6-2.6c.1-.5.3-.6.9-.6h1.3v3.2h3.5v-9.9c-1.2-.1-2.3-.2-5-.2-3.6 0-4.5.7-4.5 3.2.1 1.2.6 2.3 2.2 2.7zm-4.1-5.7h-3.5v3.5h-3v-3.5h-3.5v9.8h3.5v-4h3v4h3.5v-9.8zm-14.8 9.9h3.6l-2.9-5 2.7-4.8h-3.6l-1.9 3.7-1.9-3.7h-3.6l2.7 4.8-2.9 5h3.6l2.1-4 2.1 4zm-8-9.9H542l-1.4 5.9c-.1.5-.3 1.1-.4 1.7h-.2c-.1-.6-.2-1.1-.3-1.7l-1.5-5.9h-3.8l3 9c.2.5.6.9 1.1.9h.7c-.3.5-.6 1-1 1.2-.6.4-1.5.5-2.8.4l-.3 2.3c1.4.3 2.9.3 4.1-.2 1.5-.6 2.7-1.5 3.4-3.8l3.3-9.8zm-16.2 2.7c2.7-.4 2.8-1.6 4.3-6.5h-3.8c-1.1 4.1-1.3 5.3-3.2 5.3h-.7c.1-.6.2-1.1.2-1.7v-3.6h-3.7v13.7h3.7v-4.6c0-.4-.1-.8-.2-1.3h.7c1.9 0 2.1.9 3.5 5.8h3.9c-1.7-5.6-1.9-6.7-4.7-7.1zm33.2 219.7h3.8c1.4 0 1.8.2 1.8 1.3 0 .9-.1 1.5-1.6 1.5h-2.6v2.4h2.6c1.5 0 1.8.4 1.8 1.6 0 1.4-.5 1.6-2.3 1.6-1.2 0-2.1 0-3.8-.1l-.1 2.7c1.5.2 3.3.4 4.9.4 3.6 0 4.9-1.2 4.9-4.1 0-2.1-.6-3.1-2.5-3.4v-.1c1.8-.3 2.2-1.5 2.2-3.4 0-2.4-1.3-3.2-4.6-3.2-1.5 0-3 .1-4.6.4l.1 2.4zm-4 7.6c-.9 0-1.2.3-1.2 1.2v.9c0 .9.3 1.2 1.2 1.2h.9c.9 0 1.2-.3 1.2-1.2v-.9c0-.9-.3-1.2-1.2-1.2h-.9zM547.4 491l.2 3h5.9c-.3.5-.5 1-.7 1.4l-3.3 9.2h3.6l4.1-11.8c.3-1-.3-1.8-1.4-1.8h-8.4zm58.7-15.5h-1.4c-.9 0-1.1-.2-1.1-1.2 0-.7.2-.9 1.1-.9h1.4v2.1zm-3.8 1.3c-.6.1-1.6.2-1.9 1.1l-.8 3.1h3.7l.6-2.6c.1-.5.3-.6.9-.6h1.3v3.2h3.5v-10c-1.2-.1-2.3-.2-5-.2-3.6 0-4.5.7-4.5 3.2 0 1.2.5 2.3 2.2 2.8zm-10.5.7c0-.5.2-.8.8-.8h2.1v1.2c-.7.4-1.3.7-1.9.7-.7 0-1-.3-1-.8v-.3zm-2.7-3.9c1.6-.1 3.2-.1 4.2-.1s1.3.3 1.4 1.1v.2h-3.3c-2 0-3.1.9-3.1 2.5v1c0 1.8 1.5 2.8 3.3 2.8 1.7 0 2.8-.9 3.5-1.7l.3 1.4h2.9v-6.3c0-2.9-1.5-3.8-4.1-3.8-1.4 0-3.9.2-5.4.5l.3 2.4zm-5.5 2.1c2.3-.3 2.2-.6 3.5-4.7h-3.5c-1 3.2-1.1 3.6-2.1 3.6h-.6c.1-.4.1-.8.1-1.2V471h-3.1v2.4c0 .4 0 .8.1 1.2h-.6c-1 0-1.1-.3-2.2-3.6h-3.5c1.3 4.1 1.2 4.4 3.5 4.7v.1c-2.4.3-2.4.5-3.8 5.1h3.6c1.2-3.7 1.3-3.9 2.2-4h.8c-.1.3-.1.6-.1.8v3.1h3.1v-3.1c0-.2 0-.5-.1-.8h.7c.9 0 1 .2 2.2 4h3.6c-1.4-4.5-1.4-4.7-3.8-5.2zm-18.4-2.4c1.2 0 1.5.5 1.5 2.7s-.3 2.6-1.5 2.6-1.5-.5-1.5-2.6c0-2.2.3-2.7 1.5-2.7m0-2.5c-3.9 0-5.3 1.4-5.3 5.2 0 3.8 1.4 5.1 5.3 5.1s5.3-1.4 5.3-5.1c0-3.8-1.4-5.2-5.3-5.2m-9.3 10.1h3.6l-2.9-5 2.7-4.8h-3.6l-1.9 3.7-1.9-3.7h-3.6l2.7 4.8-2.9 5h3.6l2.1-4 2.1 4zm-9.1.1v-9.9h-3.1l-3.1 4.7c-.3.5-.6.9-.8 1.4h-.1c.1-.6.1-1 .1-1.5v-4.6h-3.2v9.8h3.1l3.1-4.5c.3-.4.6-1.1.8-1.6h.1c-.1.7-.1 1.2-.1 1.7v4.4h3.2zm-18.7-6.9c.6-.4 1.1-.6 1.8-.6.9 0 1.3.4 1.3 2.6 0 2.3-.4 2.6-1.4 2.6-.7 0-1.2-.2-1.7-.3v-4.3zm-.7-3h-2.9v13.5h3.6v-2.2c0-.7 0-1.4-.1-2.1.9.7 2 .9 3.2.9 2.5 0 3.7-1.1 3.7-5.1 0-3.3-1-5.3-3.5-5.3-1.6 0-3.1.7-3.8 1.6l-.2-1.3zm-5.2-3.8h-11.4V481h3.7v-11.1h4V481h3.7v-13.7zm153.2 23.3h2.3c.8 0 1.1.1 1.1.8 0 .6-.1.9-1 .9h-1.6v1.4h1.6c.9 0 1.1.3 1.1 1 0 .8-.3 1-1.4 1-.7 0-1.2 0-2.3-.1l-.1 1.6c.9.1 2 .2 2.9.2 2.2 0 3-.7 2.9-2.4 0-1.2-.4-1.9-1.5-2.1 1.1-.2 1.3-.9 1.3-2.1 0-1.5-.8-1.9-2.8-1.9-.9 0-1.8.1-2.7.2l.2 1.5zm-2.4 4.6c-.6 0-.7.2-.7.7v.5c0 .6.2.7.7.7h.5c.6 0 .7-.2.7-.7v-.5c0-.6-.2-.7-.7-.7h-.5zm-7.4-4.6h2.3c.8 0 1.1.1 1.1.8 0 .6-.1.9-1 .9h-1.6v1.4h1.6c.9 0 1.1.3 1.1 1 0 .8-.3 1-1.4 1-.7 0-1.2 0-2.3-.1l-.1 1.6c.9.1 2 .2 2.9.2 2.2 0 3-.7 2.9-2.4 0-1.2-.4-1.9-1.5-2.1 1.1-.2 1.3-.9 1.3-2.1 0-1.5-.8-1.9-2.8-1.9-.9 0-1.8.1-2.7.2l.2 1.5zm29.1-11.8c.4-.2.7-.4 1.1-.4.5 0 .8.2.8 1.6 0 1.4-.2 1.6-.8 1.6-.4 0-.7-.1-1-.2v-2.6zm-.5-1.8h-1.7v8.1h2.1v-2.6c.5.4 1.2.5 1.9.5 1.5 0 2.2-.7 2.2-3 0-2-.6-3.2-2.1-3.2-.9 0-1.8.4-2.3 1l-.1-.8zm-5.9 1.4c.7 0 .9.3.9 1.6s-.2 1.6-.9 1.6-.9-.3-.9-1.6.2-1.6.9-1.6m0-1.6c-2.3 0-3.2.8-3.2 3.1s.9 3.1 3.2 3.1c2.3 0 3.2-.8 3.2-3.1 0-2.2-.9-3.1-3.2-3.1m-6.8 4.7h-1.7c.3-.7.5-1.5.7-2.6 0-.3.2-.5.5-.5h.5v3.1zm3 0h-1V477h-3.2c-1.1 0-1.6.5-1.7 1.4-.1 1-.3 2-.7 3h-.7v3.1h1.4l.1-1.6h4.2l.2 1.6h1.4v-3zm-8.2 1.4V477h-1.9l-1.9 2.8c-.2.3-.3.5-.5.9 0-.3.1-.6.1-.9V477h-1.9v5.9h1.9l1.8-2.7c.2-.3.4-.7.5-1 0 .4-.1.7-.1 1v2.6h2zm-11.2-4.1c.4-.2.7-.4 1.1-.4.5 0 .8.2.8 1.6 0 1.4-.2 1.6-.8 1.6-.4 0-.7-.1-1-.2v-2.6zm-.4-1.8H663v8.1h2.1v-2.6c.5.4 1.2.5 1.9.5 1.5 0 2.2-.7 2.2-3 0-2-.6-3.2-2.1-3.2-.9 0-1.8.4-2.3 1l-.1-.8zm-6 1.4c.7 0 .9.3.9 1.6s-.2 1.6-.9 1.6-.9-.3-.9-1.6.2-1.6.9-1.6m0-1.6c-2.3 0-3.2.8-3.2 3.1s.9 3.1 3.2 3.1c2.3 0 3.2-.8 3.2-3.1 0-2.2-.8-3.1-3.2-3.1m-6.4 1.8c1.6-.2 1.7-1 2.6-3.9h-2.3c-.6 2.5-.8 3.2-1.9 3.2h-.4c.1-.3.1-.7.1-1v-2.2h-2.2v8.2h2.2v-2.7c0-.2 0-.5-.1-.8h.4c1.1 0 1.2.5 2.1 3.5h2.3c-1-3.3-1.1-4-2.8-4.3zm106.4-52.5.1-1.6h-5.1l-.2 3.7c0 .4.3.7.6.7l1.3.2c1.1.1 1.5.3 1.5 1s-.3.9-1.4.9c-.6 0-1.3 0-2.1-.1l-.2 1.7c1 .2 2.1.2 2.9.2 2.3 0 3-1.2 3-2.7 0-1.3-.5-2.5-2.4-2.7l-1.4-.2.1-1.1h3.3zm-7.7 4.5c-.6 0-.7.2-.7.7v.5c0 .6.2.7.7.7h.5c.6 0 .7-.2.7-.7v-.5c0-.6-.2-.7-.7-.7h-.5zm-2.2 2.1v-8.2h-2.2l-2.1.8.3 1.4 1.9-.4c-.1.3-.1.7-.1 1v5.4h2.2zm13.4-20.2h-2.3l-.9 3.5c-.1.3-.2.7-.2 1h-.1c0-.3-.1-.7-.2-1l-.9-3.5h-2.3l1.8 5.4c.1.3.4.5.7.5h.4c-.2.3-.4.6-.6.7-.4.2-.9.3-1.7.3l-.2 1.4c.8.2 1.7.2 2.4-.1.9-.3 1.6-.9 2-2.3l2.1-5.9zm-11.6 6.8 4.7-9.1h-1.7l-4.7 9.1h1.7zm-2.4-2.7c-.8.1-1.4.1-2.6.1-1 0-1.2-.5-1.2-2.3 0-1.8.3-2.3 1.2-2.3h2.4l.2-1.6c-.8-.2-1.4-.3-2.6-.3-2.6 0-3.6 1.1-3.6 4.2s1 4.2 3.6 4.2c1.2 0 2-.1 2.8-.4l-.2-1.6zM766.8 518l.1-1.6h-5.1l-.2 3.7c0 .4.3.7.6.7l1.3.2c1.1.1 1.5.3 1.5 1s-.3.9-1.4.9c-.6 0-1.3 0-2.1-.1l-.2 1.7c1 .2 2.1.2 2.9.2 2.3 0 3-1.2 3-2.7 0-1.3-.5-2.5-2.4-2.7l-1.4-.2.1-1.1h3.3zm-7.7 4.5c-.6 0-.7.2-.7.7v.5c0 .6.2.7.7.7h.5c.6 0 .7-.2.7-.7v-.5c0-.6-.2-.7-.7-.7h-.5zm-7.4-4.5h2.3c.8 0 1.1.1 1.1.8 0 .6-.1.9-1 .9h-1.6v1.4h1.6c.9 0 1.1.3 1.1 1 0 .8-.3 1-1.4 1-.7 0-1.2 0-2.3-.1l-.1 1.6c.9.1 2 .2 2.9.2 2.2 0 3-.7 2.9-2.4 0-1.2-.4-1.9-1.5-2.1 1.1-.2 1.3-.9 1.3-2.1 0-1.5-.8-1.9-2.8-1.9-.9 0-1.8.1-2.7.2l.2 1.5zm26.5-10.9h-.8c-.6 0-.7-.1-.7-.7 0-.4.1-.5.7-.5h.8v1.2zm-2.3.7c-.4 0-1 .1-1.1.6l-.5 1.9h2.2l.4-1.6c0-.3.2-.3.5-.3h.8v1.9h2.1v-6c-.7-.1-1.4-.1-3-.1-2.2 0-2.7.4-2.7 1.9 0 .8.3 1.5 1.3 1.7zm-6.3.5c0-.3.1-.5.5-.5h1.2v.7c-.4.3-.8.4-1.2.4-.4 0-.6-.2-.6-.5v-.1zm-1.6-2.4c1-.1 1.9-.1 2.5-.1.6 0 .8.2.8.7v.1h-2c-1.2 0-1.9.6-1.9 1.5v.6c0 1.1.9 1.7 2 1.7 1 0 1.7-.5 2.1-1l.2.9h1.7v-3.8c0-1.8-.9-2.3-2.5-2.3-.9 0-2.4.1-3.2.3l.3 1.4zm-1.5-1.5h-2.1v2.1h-1.8v-2.1h-2.1v5.9h2.1v-2.4h1.8v2.4h2.1v-5.9zm-7.4 0H757v2.1h-1.8v-2.1h-2.1v5.9h2.1v-2.4h1.8v2.4h2.1v-5.9zm-11.1 3.9c0-.3.1-.5.5-.5h1.2v.7c-.4.3-.8.4-1.2.4-.4 0-.6-.2-.6-.5v-.1zm-1.6-2.4c1-.1 1.9-.1 2.5-.1.6 0 .8.2.8.7v.1h-2c-1.2 0-1.9.6-1.9 1.5v.6c0 1.1.9 1.7 2 1.7 1 0 1.7-.5 2.1-1l.2.9h1.7v-3.8c0-1.8-.9-2.3-2.5-2.3-.9 0-2.4.1-3.2.3l.3 1.4zm-5.7 2.9v-2.1h1.1c.9 0 1.1.2 1.1 1.1 0 .8-.2 1-1 1h-1.2zm0-3.4v-1.8h1c.8 0 1 .2 1 .9s-.2.9-.9.9h-1.1zm2.7.6c1-.1 1.5-.7 1.5-1.9 0-1.7-.8-2.1-3-2.1-1.5 0-2.3 0-3.3.1v8.2c1.1.1 2 .1 3.7.1 2 0 2.9-.5 2.9-2.1-.1-1.3-.5-2.1-1.8-2.3zm36.9-366.4c2.2.9 3 3.8 3 7.9 0 4.1-.8 6.9-3 7.9l.4 1.5c4.2-1.2 6-4.2 6-9.4 0-5.3-1.9-8.3-6-9.5l-.4 1.6zm.1 8.7h-1.6v-5.6H776l-.6 2.1v3.5h-2.7c-.3 0-.5-.2-.4-.6l3-7.7h-3.5l-3.4 8.7c-.4 1.1.3 2.1 1.4 2.1h5.5v2.9h3.4v-2.9l1.6-.4v-2.1zm-15.3 2c-1 0-1.2.3-1.2 1.2v.9c0 1 .3 1.2 1.2 1.2h.8c1 0 1.2-.3 1.2-1.2v-.9c0-1-.3-1.2-1.2-1.2h-.8zm-2.6-2h-1.6v-5.6h-2.8l-.6 2.1v3.5h-2.7c-.3 0-.5-.2-.4-.6l3-7.7H754l-3.4 8.7c-.4 1.1.3 2.1 1.4 2.1h5.5v2.9h3.4v-2.9l1.6-.4v-2.1zM750.3 138c-4.2 1.2-6 4.1-6 9.5 0 5.3 1.9 8.3 6 9.4l.4-1.5c-2.2-1-3-3.9-3-7.9 0-4.1.8-7 3-7.9l-.4-1.6zm-17 9.8c1.5 0 1.8.3 1.8 1.8 0 1.4-.3 1.7-1.8 1.7s-1.9-.3-1.9-1.7c-.1-1.5.3-1.8 1.9-1.8m-.1-5.6c1.4 0 1.7.3 1.7 1.6 0 1.2-.3 1.5-1.6 1.5-1.4 0-1.7-.3-1.7-1.5-.1-1.3.3-1.6 1.6-1.6m-2.9 4.4c-2 .2-2.4 1.8-2.4 3.6 0 2.7 1.1 3.7 5.4 3.7 4.3 0 5.4-1 5.4-3.7 0-1.8-.5-3.5-2.4-3.6v-.1c1.5-.2 2.1-1.7 2.1-3.1 0-2.6-.9-3.7-5-3.7s-5 1.1-5 3.7c-.2 1.5.4 3 1.9 3.2zm-6.2 3.7c-1 0-1.2.3-1.2 1.2v.9c0 1 .3 1.2 1.2 1.2h.8c1 0 1.2-.3 1.2-1.2v-.9c0-1-.3-1.2-1.2-1.2h-.8zm-8.3-2.5c1.5 0 1.8.3 1.8 1.8 0 1.4-.3 1.7-1.8 1.7s-1.9-.3-1.9-1.7c0-1.5.3-1.8 1.9-1.8m0-5.6c1.4 0 1.7.3 1.7 1.6 0 1.2-.3 1.5-1.6 1.5-1.4 0-1.7-.3-1.7-1.5-.1-1.3.2-1.6 1.6-1.6m-3 4.4c-2 .2-2.4 1.8-2.4 3.6 0 2.7 1.1 3.7 5.4 3.7 4.3 0 5.4-1 5.4-3.7 0-1.8-.5-3.5-2.4-3.6v-.1c1.5-.2 2.1-1.7 2.1-3.1 0-2.6-.9-3.7-5-3.7s-5 1.1-5 3.7c-.2 1.5.4 3 1.9 3.2zm56.4 549.1.4 6.8h13.6c-.7 1.1-1.1 2.2-1.5 3.3l-7.5 21.1h8.3l9.4-27.1c.8-2.3-.7-4.2-3.2-4.2h-19.5zm-6.2 23.6c-2.2 0-2.9.7-2.9 2.9v2c0 2.2.7 2.9 2.9 2.9h1.9c2.2 0 2.9-.7 2.9-2.9v-2c0-2.2-.7-2.9-2.9-2.9H763zm-7.5-17.3.3-6.2h-19.6l-.8 14c-.1 1.4 1 2.6 2.4 2.8l4.8.6c4.2.4 5.7 1 5.6 3.9-.2 2.5-1.1 3.5-5.2 3.5-2.2 0-5.1-.1-8.1-.4l-.8 6.4c4 .6 8 .9 11.1.9 8.9 0 11.4-4.6 11.4-10.2 0-5-1.9-9.5-9.1-10.3l-5.2-.7.3-4.3h12.9zm-36.8 11.5c3.4 0 4.2.8 4.2 4.1 0 3.1-.7 3.9-4.2 3.9s-4.3-.8-4.3-3.9c-.1-3.3.7-4.1 4.3-4.1m0-12.7c3.1 0 3.8.7 3.8 3.8 0 2.8-.6 3.4-3.8 3.4-3.2 0-4-.6-4-3.4.1-3.1.8-3.8 4-3.8m-6.8 10c-4.5.4-5.6 4.2-5.6 8.3 0 6.1 2.5 8.5 12.3 8.4 9.9-.1 12.3-2.4 12.3-8.4 0-4.2-1-7.9-5.5-8.3v-.2c3.4-.4 4.8-3.8 4.8-7.2 0-5.8-2-8.4-11.5-8.4-9.4 0-11.5 2.5-11.5 8.4 0 3.3 1.4 6.8 4.8 7.2v.2z" class="st1"/><circle cx="748.4" cy="660.5" r="27.7" style="fill:none;stroke:#39373a;stroke-width:.866" transform="rotate(-31.714 748.508 660.543)"/><path d="M761.1 660.1c4.7-.6 4.8-2.7 7.4-11.2H762c-1.9 7.1-2.3 9.2-5.6 9.2h-1.1c.2-1 .3-2 .3-2.9v-6.3h-6.4v23.6h6.4v-7.9c0-.7-.1-1.4-.3-2.2h1.2c3.3 0 3.6 1.5 6 10.1h6.7c-2.9-9.7-3.2-11.5-8.1-12.2v-.2zm-31.9-6.6c1.7 0 4.1-.1 6.6-.1 2.4 0 3.1.3 3.1 2.2 0 1.6-.2 2.6-2.8 2.6h-4.5v4.1h4.5c2.5 0 3.1.8 3.1 2.8 0 2.4-.9 2.8-3.9 2.8-2.1 0-3.6 0-6.5-.2l-.2 4.6c2.7.4 5.7.6 8.5.6 6.3 0 8.6-2.1 8.5-7.1 0-3.6-1.1-5.4-4.4-5.9v-.1c3-.5 3.8-2.6 3.8-6 0-4.2-2.2-5.5-8-5.5-2.6 0-5.2.2-7.9.7l.1 4.5z" class="st1"/></svg>