<svg xmlns="http://www.w3.org/2000/svg" xmlns:xlink="http://www.w3.org/1999/xlink" xml:space="preserve" id="Слой_1" x="0" y="0" style="enable-background:new 0 0 269.6 468.6" version="1.1" viewBox="0 0 269.6 468.6"><style>.st0{fill:#fff5a4}.st1{clip-path:url(#SVGID_2_);fill:none;stroke:#39373a;stroke-width:.596}.st3,.st4{clip-path:url(#SVGID_4_);fill:#39373a}.st4{fill:none;stroke:#39373a;stroke-width:.268}.st5{fill:#39373a}.st6{fill:none;stroke:#39373a;stroke-width:.268}.st7{clip-path:url(#SVGID_6_);fill:#39373a}.st10,.st18,.st23,.st8{fill:none;stroke:#39373a}.st8{clip-path:url(#SVGID_6_);stroke-width:.268}.st10{stroke-width:.6}.st18{stroke-width:.247}.st23{stroke-width:.543}.st24,.st25{clip-path:url(#SVGID_28_);fill:#39373a}.st25{fill:none;stroke:#39373a;stroke-width:.233}.st26{clip-path:url(#SVGID_30_);fill:#39373a}</style><switch><g><path d="M35.54 93.09h196.37v176.74H35.54z" class="st0"/><path d="M231.91 59.21 136.6 45.68v381.33h95.31z" class="st0"/><defs><path id="SVGID_1_" d="M29.02 28.17h214.44v414.14H29.02z"/></defs><clipPath id="SVGID_2_"><use xlink:href="#SVGID_1_" style="overflow:visible"/></clipPath><path d="M222.67 268.18s5.63 0 5.63-5.63v-33.62s0-5.63-5.63-5.63h-7.54s-5.63 0-5.63 5.63v33.62s0 5.63 5.63 5.63h7.54z" class="st1"/><path d="M220.92 265.06s5.63 0 5.63-5.63v-27.37s0-5.63-5.63-5.63h-4.03s-5.63 0-5.63 5.63v27.37s0 5.63 5.63 5.63h4.03z" class="st1"/><path d="M222.04 261.29s2.81 0 2.81-2.81v-27.51s0-2.81-2.81-2.81h-6.28s-2.81 0-2.81 2.81v27.51s0 2.81 2.81 2.81h6.28z" class="st1"/><path d="M218.9 231.51c-.46 0-.84.37-.84.84 0 .46.38.83.84.83.46 0 .84-.37.84-.83 0-.47-.38-.84-.84-.84z" class="st1"/><path d="M208.44 269.83v-48.4" style="fill:none;stroke:#39373a;stroke-width:.596"/><defs><path id="SVGID_3_" d="M29.02 28.17h214.44v414.14H29.02z"/></defs><clipPath id="SVGID_4_"><use xlink:href="#SVGID_3_" style="overflow:visible"/></clipPath><path d="M198.02 206.42c0-3.02 2.46-5.48 5.48-5.48h7.93c.52 0 .95.42.95.94v9.06c0 .52-.42.95-.95.95h-7.93a5.467 5.467 0 0 1-5.48-5.47m14.72 4.53v-9.06c0-.73-.59-1.32-1.32-1.32h-7.93a5.851 5.851 0 0 0 0 11.7h7.93c.73 0 1.32-.59 1.32-1.32" class="st3"/><path d="M198.02 206.42c0-3.02 2.46-5.48 5.48-5.48h7.93c.52 0 .95.42.95.94v9.06c0 .52-.42.95-.95.95h-7.93a5.467 5.467 0 0 1-5.48-5.47zm14.72 4.53v-9.06c0-.73-.59-1.32-1.32-1.32h-7.93a5.851 5.851 0 0 0 0 11.7h7.93c.73 0 1.32-.59 1.32-1.32z" class="st4"/><path d="M209.72 202.5v7.85c0 .05-.05.1-.09.1h-5.98c-2.21 0-4.02-1.81-4.02-4.02 0-2.21 1.81-4.02 4.02-4.02h5.98c.05-.01.09.04.09.09z" class="st4"/><path d="M209.53 202.59v7.66h-5.88c-2.11 0-3.83-1.72-3.83-3.83 0-2.11 1.72-3.83 3.83-3.83h5.88zm.38 7.76v-7.85c0-.15-.13-.28-.28-.28h-5.98c-2.32 0-4.21 1.89-4.21 4.21 0 2.32 1.89 4.21 4.21 4.21h5.98c.15-.01.28-.14.28-.29" class="st3"/><path d="M209.53 202.59v7.66h-5.88c-2.11 0-3.83-1.72-3.83-3.83 0-2.11 1.72-3.83 3.83-3.83h5.88zm.38 7.76v-7.85c0-.15-.13-.28-.28-.28h-5.98c-2.32 0-4.21 1.89-4.21 4.21 0 2.32 1.89 4.21 4.21 4.21h5.98c.15-.01.28-.14.28-.29z" class="st4"/><path d="M203.64 206.42c0-.57.46-1.03 1.03-1.03.57 0 1.04.46 1.04 1.03 0 .57-.46 1.04-1.04 1.04-.56 0-1.03-.47-1.03-1.04m2.45 0c0-.78-.63-1.41-1.41-1.41s-1.41.63-1.41 1.41c0 .78.63 1.41 1.41 1.41s1.41-.63 1.41-1.41" class="st3"/><path d="M203.64 206.42c0-.57.46-1.03 1.03-1.03.57 0 1.04.46 1.04 1.03 0 .57-.46 1.04-1.04 1.04-.56 0-1.03-.47-1.03-1.04zm2.45 0c0-.78-.63-1.41-1.41-1.41s-1.41.63-1.41 1.41c0 .78.63 1.41 1.41 1.41s1.41-.63 1.41-1.41z" class="st4"/><path d="m206.213 204.952 2.515-1.88.228.304-2.515 1.88z" class="st5"/><path d="m206.213 204.952 2.515-1.88.228.304-2.515 1.88z" class="st6"/><path d="m208.96 209.42-2.51-1.88-.23.3 2.52 1.88z" class="st5"/><path d="m208.96 209.42-2.51-1.88-.23.3 2.52 1.88z" class="st6"/><defs><path id="SVGID_5_" d="M29.02 28.17h214.44v414.14H29.02z"/></defs><clipPath id="SVGID_6_"><use xlink:href="#SVGID_5_" style="overflow:visible"/></clipPath><path d="M212.76 202.64c0-.84.68-1.52 1.52-1.52h2.07c.84 0 1.52.68 1.52 1.52v7.56c0 .84-.68 1.52-1.52 1.52h-2.07c-.84 0-1.52-.68-1.52-1.52v-7.56zm5.48 7.56v-7.56c0-1.04-.85-1.89-1.89-1.89h-2.07c-1.04 0-1.89.85-1.89 1.89v7.56c0 1.04.85 1.89 1.89 1.89h2.07c1.04 0 1.89-.84 1.89-1.89" class="st7"/><path d="M212.76 202.64c0-.84.68-1.52 1.52-1.52h2.07c.84 0 1.52.68 1.52 1.52v7.56c0 .84-.68 1.52-1.52 1.52h-2.07c-.84 0-1.52-.68-1.52-1.52v-7.56zm5.48 7.56v-7.56c0-1.04-.85-1.89-1.89-1.89h-2.07c-1.04 0-1.89.85-1.89 1.89v7.56c0 1.04.85 1.89 1.89 1.89h2.07c1.04 0 1.89-.84 1.89-1.89z" class="st8"/><path d="M214.73 206.42a.591.591 0 0 1 1.18 0 .591.591 0 0 1-1.18 0m1.55 0a.96.96 0 1 0-.96.96c.52 0 .96-.43.96-.96" class="st7"/><path d="M214.73 206.42a.591.591 0 0 1 1.18 0 .591.591 0 0 1-1.18 0zm1.55 0a.96.96 0 1 0-.96.96c.52 0 .96-.43.96-.96z" class="st8"/><path d="M41.92 28.17h11.05v17.29H41.92zM31.64 206.19h74.66v6.24H31.64zm128.26-18h80.73v6.24H159.9zm0 81.64h80.73v6.24H159.9z" class="st5"/><path d="M29.02 28.17h18v64.91h-18z" class="st5"/><path d="M41.3 30.24h14.17v7.88H41.3z" class="st5"/><path d="M39.93 37.24H54.1v8.43H39.93zm90.15-7h6.52v192.39h-6.52zm0 220.6h6.52v191.48h-6.52z" class="st5"/><path d="M118.74 85.29h28.63v7.8h-28.63zm93.54 0h28.63v7.8h-28.63z" class="st5"/><path d="M229.86 49.86h13.61v392.46h-13.61zM128.8 30.24h9.07v8.21h-9.07z" class="st5"/><path d="M228.12 44.33h15.34v8.22h-15.34zM185.28 217.1h46.63v4.46h-46.63z" class="st5"/><path d="M167.21 218.75h46.63v2.82h-46.63z" class="st5"/><path d="M167.21 211.93h4.22v25.81h-4.22zm0 41.6h4.22v20.17h-4.22zm43.66 181.13h27.07v7.65h-27.07zm-79.66 0h24.52v7.65h-24.52z" class="st5"/><path d="M212.71 427.01h27.07v8.08h-27.07zm-80.17 0h21.76v8.08h-21.76zM29.73 269.4h102.9v6.38H29.73zm-.71-180.21h6.52v147.33h-6.52z" class="st5"/><path d="M29.16 258.42h6.52v17.36h-6.52z" class="st5"/><defs><path id="SVGID_7_" d="M29.02 28.17h214.44v414.14H29.02z"/></defs><clipPath id="SVGID_8_"><use xlink:href="#SVGID_7_" style="overflow:visible"/></clipPath><path d="M151.48 427.31h63.49v14.71h-63.49z" style="clip-path:url(#SVGID_8_);fill:none;stroke:#39373a;stroke-width:.6"/><path d="M151.48 432.57h63.49v2.22h-63.49zM49.59 30.67h83.45v14.71H49.59zm83.77 14.71V30.67l101.03 14.12V59.5z" class="st10"/><path d="M49.59 35.93h83.45v2.22H49.59zm83.77 2.22v-2.22l101.03 14.12v2.22zM66 85.45h63.49v7.48H66z" class="st10"/><path d="M66 85.45h63.49v2.66H66zM33.34 259.208 45.422 238.9l.8.475-12.082 20.308z" class="st10"/><defs><path id="SVGID_9_" d="M29.02 28.17h214.44v414.14H29.02z"/></defs><clipPath id="SVGID_10_"><use xlink:href="#SVGID_9_" style="overflow:visible"/></clipPath><path d="M46.38 239.35s-3.12-1.76-6.58-2.44c-3.46-.68-6.32-.51-6.32-.51" style="clip-path:url(#SVGID_10_);fill:none;stroke:#39373a;stroke-width:.4"/><path d="m158.446 240.22.799-.476 10.82 18.184-.8.476z" class="st10"/><defs><path id="SVGID_11_" d="M29.02 28.17h214.44v414.14H29.02z"/></defs><clipPath id="SVGID_12_"><use xlink:href="#SVGID_11_" style="overflow:visible"/></clipPath><path d="M158.29 240.17s3.12-1.76 6.58-2.44c3.46-.68 6.32-.51 6.32-.51" style="clip-path:url(#SVGID_12_);fill:none;stroke:#39373a;stroke-width:.4"/><path d="m158.454 209.195 10.819-18.185.799.475-10.819 18.185z" class="st10"/><defs><path id="SVGID_13_" d="M29.02 28.17h214.44v414.14H29.02z"/></defs><clipPath id="SVGID_14_"><use xlink:href="#SVGID_13_" style="overflow:visible"/></clipPath><path d="M158.29 209.24s3.12 1.76 6.58 2.44c3.46.68 6.32.51 6.32.51" style="clip-path:url(#SVGID_14_);fill:none;stroke:#39373a;stroke-width:.4"/><path d="m134.085 190.875 23.058-13.719.475.8-23.057 13.718z" class="st10"/><defs><path id="SVGID_15_" d="M29.02 28.17h214.44v414.14H29.02z"/></defs><clipPath id="SVGID_16_"><use xlink:href="#SVGID_15_" style="overflow:visible"/></clipPath><path d="M157.18 176.98s1.76 3.12 2.44 6.58c.68 3.46.51 6.32.51 6.32" style="clip-path:url(#SVGID_16_);fill:none;stroke:#39373a;stroke-width:.4"/><path d="m134.085 272.89.476-.799 23.058 13.718-.476.8z" class="st10"/><defs><path id="SVGID_17_" d="M29.02 28.17h214.44v414.14H29.02z"/></defs><clipPath id="SVGID_18_"><use xlink:href="#SVGID_17_" style="overflow:visible"/></clipPath><path d="M157.18 286.79s1.76-3.12 2.44-6.58c.68-3.46.51-6.32.51-6.32" style="clip-path:url(#SVGID_18_);fill:none;stroke:#39373a;stroke-width:.4"/><path d="m108.503 196.684.475-.8 23.058 13.719-.475.799z" class="st10"/><defs><path id="SVGID_19_" d="M29.02 28.17h214.44v414.14H29.02z"/></defs><clipPath id="SVGID_20_"><use xlink:href="#SVGID_19_" style="overflow:visible"/></clipPath><path d="M108.94 195.74s-1.76 3.12-2.44 6.58c-.68 3.46-.51 6.32-.51 6.32" style="clip-path:url(#SVGID_20_);fill:none;stroke:#39373a;stroke-width:.4"/><path d="m39.775 84.092.475-.799 23.419 13.933-.476.8z" class="st10"/><defs><path id="SVGID_21_" d="M29.02 28.17h214.44v414.14H29.02z"/></defs><clipPath id="SVGID_22_"><use xlink:href="#SVGID_21_" style="overflow:visible"/></clipPath><path d="M63.24 98.19s1.76-3.12 2.44-6.58c.68-3.46.51-6.32.51-6.32" style="clip-path:url(#SVGID_22_);fill:none;stroke:#39373a;stroke-width:.4"/><path d="M36.02 196.77h16.02v-16.02H36.02v16.02zm-.35-16.37H52.4v16.73H35.67V180.4z" class="st5"/><path d="M36.02 196.77h16.02v-16.02H36.02v16.02zm-.35-16.37H52.4v16.73H35.67V180.4z" class="st18"/><defs><path id="SVGID_23_" d="M29.02 28.17h214.44v414.14H29.02z"/></defs><clipPath id="SVGID_24_"><use xlink:href="#SVGID_23_" style="overflow:visible"/></clipPath><path d="M50.58 183.16c0-.39-.32-.72-.72-.72h-8.42c-.4 0-.72.32-.72.72v11.22c0 .4.32.72.72.72h8.42c.4 0 .72-.32.72-.72v-11.22zm-10.21 11.21v-11.22c0-.59.48-1.07 1.07-1.07h8.42c.59 0 1.07.48 1.07 1.07v11.22c0 .59-.48 1.07-1.07 1.07h-8.42c-.59.01-1.07-.47-1.07-1.07" style="clip-path:url(#SVGID_24_);fill:#39373a"/><path d="M50.58 183.16c0-.39-.32-.72-.72-.72h-8.42c-.4 0-.72.32-.72.72v11.22c0 .4.32.72.72.72h8.42c.4 0 .72-.32.72-.72v-11.22zm-10.21 11.21v-11.22c0-.59.48-1.07 1.07-1.07h8.42c.59 0 1.07.48 1.07 1.07v11.22c0 .59-.48 1.07-1.07 1.07h-8.42c-.59.01-1.07-.47-1.07-1.07z" style="clip-path:url(#SVGID_24_);fill:none;stroke:#39373a;stroke-width:.247"/><path d="M41.97 193.85h7.36v-10.16h-7.36v10.16zm-.35-10.52h8.07v10.87h-8.07v-10.87z" class="st5"/><path d="M41.97 193.85h7.36v-10.16h-7.36v10.16zm-.35-10.52h8.07v10.87h-8.07v-10.87z" class="st18"/><defs><path id="SVGID_25_" d="M29.02 28.17h214.44v414.14H29.02z"/></defs><clipPath id="SVGID_26_"><use xlink:href="#SVGID_25_" style="overflow:visible"/></clipPath><path d="M47.08 188.76c0-.51-.42-.93-.93-.93s-.93.42-.93.93.42.93.93.93.93-.41.93-.93m-2.21 0c0-.71.58-1.28 1.28-1.28s1.28.58 1.28 1.28c0 .71-.58 1.28-1.28 1.28s-1.28-.57-1.28-1.28" style="clip-path:url(#SVGID_26_);fill:#39373a"/><path d="M47.08 188.76c0-.51-.42-.93-.93-.93s-.93.42-.93.93.42.93.93.93.93-.41.93-.93zm-2.21 0c0-.71.58-1.28 1.28-1.28s1.28.58 1.28 1.28c0 .71-.58 1.28-1.28 1.28s-1.28-.57-1.28-1.28z" style="clip-path:url(#SVGID_26_);fill:none;stroke:#39373a;stroke-width:.247"/><path d="M46.9 197.52h24.24v8.4H46.9z" class="st23"/><path d="M65.33 199.19h3.63v5.06h-3.63z" class="st23"/><defs><path id="SVGID_27_" d="M29.02 28.17h214.44v414.14H29.02z"/></defs><clipPath id="SVGID_28_"><use xlink:href="#SVGID_27_" style="overflow:visible"/></clipPath><path d="M198.58 233.14c-2.78 0-5.05-2.27-5.05-5.05v-5.36c0-.42.35-.77.77-.77h11.42c.42 0 .77.34.77.77v5.36c0 2.78-2.27 5.05-5.05 5.05h-2.86zm7.14-11.46H194.3c-.58 0-1.05.47-1.05 1.05v5.36c0 2.94 2.39 5.33 5.33 5.33h2.85c2.94 0 5.34-2.39 5.34-5.33v-5.36c0-.58-.47-1.05-1.05-1.05" class="st24"/><path d="M198.58 233.14c-2.78 0-5.05-2.27-5.05-5.05v-5.36c0-.42.35-.77.77-.77h11.42c.42 0 .77.34.77.77v5.36c0 2.78-2.27 5.05-5.05 5.05h-2.86zm7.14-11.46H194.3c-.58 0-1.05.47-1.05 1.05v5.36c0 2.94 2.39 5.33 5.33 5.33h2.85c2.94 0 5.34-2.39 5.34-5.33v-5.36c0-.58-.47-1.05-1.05-1.05z" class="st25"/><path d="M198.58 231.88c-2.09 0-3.78-1.7-3.78-3.78v-3.12c0-.36.3-.66.66-.66h9.1c.36 0 .66.3.66.66v3.12c0 2.09-1.7 3.78-3.78 3.78h-2.86zm5.98-7.86h-9.1c-.52 0-.94.42-.94.95v3.12c0 2.24 1.82 4.07 4.07 4.07h2.85c2.24 0 4.07-1.82 4.07-4.07v-3.12a.963.963 0 0 0-.95-.95" class="st24"/><path d="M198.58 231.88c-2.09 0-3.78-1.7-3.78-3.78v-3.12c0-.36.3-.66.66-.66h9.1c.36 0 .66.3.66.66v3.12c0 2.09-1.7 3.78-3.78 3.78h-2.86zm5.98-7.86h-9.1c-.52 0-.94.42-.94.95v3.12c0 2.24 1.82 4.07 4.07 4.07h2.85c2.24 0 4.07-1.82 4.07-4.07v-3.12a.963.963 0 0 0-.95-.95z" class="st25"/><path d="M200.01 229.22c-.35 0-.63-.28-.63-.63s.28-.63.63-.63c.34 0 .63.28.63.63s-.29.63-.63.63m0-1.53c-.5 0-.91.41-.91.91s.41.91.91.91.91-.41.91-.91-.41-.91-.91-.91" class="st24"/><path d="M200.01 229.22c-.35 0-.63-.28-.63-.63s.28-.63.63-.63c.34 0 .63.28.63.63s-.29.63-.63.63zm0-1.53c-.5 0-.91.41-.91.91s.41.91.91.91.91-.41.91-.91-.41-.91-.91-.91z" class="st25"/><path d="M220.8 194.73h8.75v22.08h-8.75zm-32.1 57.82h16.91v19.74H188.7z" class="st10"/><path d="M222.37 196H228v4.76h-5.63z" class="st10"/><defs><path id="SVGID_29_" d="M29.02 28.17h214.44v414.14H29.02z"/></defs><clipPath id="SVGID_30_"><use xlink:href="#SVGID_29_" style="overflow:visible"/></clipPath><path d="m94.69 147.99.07-1.44h-4.49l-.19 3.23c-.02.33.22.6.56.65l1.11.14c.97.08 1.32.22 1.29.89-.04.58-.25.81-1.19.81-.51 0-1.18-.03-1.86-.08l-.18 1.47c.92.13 1.83.21 2.55.21 2.04 0 2.61-1.05 2.61-2.34.01-1.16-.43-2.19-2.1-2.37l-1.19-.16.07-1h2.94zm-6.73 3.98c-.5 0-.66.16-.66.65v.46c0 .5.16.65.66.65h.45c.5 0 .66-.16.66-.65v-.46c0-.5-.16-.65-.66-.65h-.45zm-6.49-4.01c.53-.01 1.26-.02 2-.02.73 0 .94.09.94.68.01.49-.06.78-.84.78H82.2v1.25l1.37-.01c.77-.01.94.23.94.84 0 .73-.27.86-1.19.86-.62 0-1.08-.01-1.99-.06l-.06 1.4c.81.11 1.72.2 2.58.2 1.9 0 2.6-.62 2.58-2.14-.01-1.09-.32-1.64-1.33-1.8v-.04c.93-.15 1.14-.78 1.14-1.81 0-1.28-.66-1.68-2.42-1.68-.79 0-1.59.06-2.4.2l.05 1.35zm-1.4 5.78v-7.18h-1.94l-1.82.71.23 1.24 1.67-.37c-.06.29-.07.57-.07.85v4.76h1.93zm19.01-15.33h-.74c-.49 0-.58-.12-.58-.65 0-.39.09-.48.58-.48h.74v1.13zm-2.03.64c-.31.03-.85.11-.99.56l-.41 1.63h1.94l.32-1.39c.04-.24.16-.3.48-.3h.69v1.69h1.83v-5.21c-.65-.07-1.2-.08-2.61-.08-1.9 0-2.37.36-2.37 1.66 0 .62.25 1.22 1.12 1.4v.04zm-2.15-2.97h-1.85v1.82h-1.58v-1.82h-1.86v5.17h1.86v-2.09h1.58v2.09h1.85v-5.17zm-7.79 5.17h1.9l-1.54-2.64 1.42-2.53H87l-1.02 1.93-1.02-1.93h-1.88l1.42 2.53-1.54 2.64h1.9l1.12-2.08 1.13 2.08zm-4.22-5.17h-2.02l-.76 3.08c-.05.24-.14.58-.22.89h-.1c-.04-.3-.09-.59-.15-.89l-.78-3.08h-2.01l1.6 4.72c.08.27.31.45.6.45h.34c-.14.26-.33.5-.54.61-.33.19-.79.24-1.45.22l-.16 1.23c.74.13 1.52.15 2.13-.1.8-.29 1.39-.8 1.77-2.01l1.75-5.12zm-8.49 1.39c1.43-.19 1.47-.83 2.26-3.4h-1.99c-.56 2.15-.7 2.8-1.71 2.8h-.34c.05-.29.08-.6.08-.89v-1.9h-1.94v7.18h1.94v-2.4c0-.2-.03-.44-.08-.67H73c1 0 1.08.47 1.82 3.07h2.04c-.88-2.95-.98-3.51-2.46-3.72v-.07zm116.46 22.51v-7.18h-1.95l-1.82.71.23 1.24 1.67-.37c-.06.29-.07.57-.07.85v4.76h1.94zm-4.92-1.76c-.5 0-.66.16-.66.65v.46c0 .5.16.65.66.65h.45c.5 0 .65-.16.65-.65v-.46c0-.5-.16-.65-.65-.65h-.45zm-4.09.48c-.83 0-.92-.26-.93-1.85.34-.2.57-.27.92-.27.69 0 .84.18.84.95 0 .84-.04 1.17-.83 1.17m2.19-5.81c-.74-.21-1.48-.21-1.85-.21-2.08 0-3.13.51-3.13 3.79 0 2.91.65 3.64 2.79 3.64 2.2 0 2.68-.84 2.68-2.63 0-1.58-.47-2.23-2.1-2.23-.63 0-1.07.1-1.47.42.05-1.34.31-1.58 1.24-1.58.83 0 1.18 0 1.77.01l.07-1.21zm-6.27 7.09v-7.18h-1.95l-1.82.71.23 1.24 1.67-.37c-.06.29-.07.57-.07.85v4.76h1.94zm23.43-14.28c0-.24.12-.4.44-.41h1.08v.65c-.34.22-.71.35-1.01.35-.34 0-.51-.15-.51-.42v-.17zm-1.41-2.04c.86-.05 1.7-.07 2.22-.07.54 0 .71.16.72.59v.12h-1.72c-1.03 0-1.65.5-1.65 1.32v.52c0 .97.78 1.48 1.74 1.48.9 0 1.49-.46 1.84-.89l.18.76h1.51v-3.3c0-1.54-.77-2.02-2.16-2.02-.76 0-2.06.11-2.83.26l.15 1.23zm-.84.09v-1.43h-5.16v1.43h1.65v3.75h1.88v-3.75h1.63zm-9.25 1.95c0-.24.12-.4.44-.41h1.08v.65c-.34.22-.71.35-1.01.35-.34 0-.51-.15-.51-.42v-.17zm-1.41-2.04c.86-.05 1.7-.07 2.22-.07.54 0 .71.16.72.59v.12h-1.72c-1.03 0-1.65.5-1.65 1.32v.52c0 .97.78 1.48 1.74 1.48.9 0 1.49-.46 1.84-.89l.18.76h1.51v-3.3c0-1.54-.77-2.02-2.16-2.02-.76 0-2.06.11-2.83.26l.15 1.23zm-1.3-1.34h-1.85v1.82h-1.58v-1.82h-1.86v5.17h1.86v-2.09h1.58v2.09h1.85v-5.17zm-8.75 0c-.4 0-.65.2-.71.58l-.45 1.93c-.05.26-.06.51-.1.77h-.08c-.03-.26-.04-.51-.1-.77l-.46-1.93c-.06-.38-.31-.58-.7-.58h-1.6c-.43 0-.65.22-.65.65l-.12 4.53h1.71l.1-3.8h.12l.62 2.51c.07.38.32.57.72.57h.85c.41 0 .64-.19.71-.57l.61-2.51h.12l.14 3.8h1.71l-.13-4.53c-.01-.43-.22-.65-.65-.65h-1.66zm-8.6 1.19c.64 0 .8.26.8 1.41 0 1.14-.17 1.39-.8 1.39-.65 0-.81-.25-.81-1.39-.01-1.15.16-1.41.81-1.41m0-1.33c-2.04 0-2.79.74-2.79 2.74 0 1.99.75 2.71 2.79 2.71 2.03 0 2.78-.72 2.78-2.71-.01-2.01-.75-2.74-2.78-2.74m-5.19 2.6c1.21-.18 1.12-.28 1.79-2.46h-1.9c-.45 1.73-.48 1.87-1.22 1.87h-.23c.04-.22.07-.45.07-.66v-1.22h-1.88v5.17h1.88v-1.63c0-.12-.02-.27-.06-.42h.42c.55.01.59.15 1.14 2.05h1.97c-.72-2.45-.74-2.49-1.97-2.66v-.04zm33.38-12.62h-.74c-.49 0-.58-.12-.58-.65 0-.39.09-.48.58-.48h.74v1.13zm-2.03.65c-.31.03-.85.11-.99.56l-.41 1.63h1.94l.32-1.39c.04-.24.16-.3.48-.3h.69V135h1.83v-5.21c-.64-.07-1.2-.08-2.61-.08-1.9 0-2.37.36-2.37 1.66 0 .62.25 1.22 1.12 1.4v.04zm-5.51.4c0-.24.12-.4.44-.41h1.08v.65c-.34.22-.71.35-1.01.35-.34 0-.51-.15-.51-.42v-.17zm-1.41-2.04c.86-.05 1.7-.07 2.22-.07.54 0 .71.16.72.6v.12h-1.72c-1.03 0-1.65.5-1.65 1.32v.52c0 .97.78 1.48 1.74 1.48.9 0 1.49-.46 1.84-.89l.18.76h1.51v-3.3c0-1.54-.77-2.02-2.16-2.02-.76 0-2.06.11-2.83.26l.15 1.22zm-1.3-1.34h-3.12c-.9 0-1.35.46-1.43 1.33-.07.95-.17 1.67-.27 2.03-.11.42-.42.41-.87.48l.19 1.39c1.13.19 2.16-.07 2.37-1.35.1-.5.22-1.38.31-2.18.03-.3.18-.44.49-.44h.45V135h1.88v-5.17zm-6.33 5.18v-5.18h-1.64l-1.65 2.48c-.16.24-.29.47-.39.76h-.04c.04-.3.07-.53.07-.8v-2.44h-1.68V135h1.64l1.61-2.36c.15-.23.32-.58.42-.86h.04c-.04.34-.07.61-.07.92v2.32h1.69zm-8.41-3.78c1.39-.19 1.43-.83 2.19-3.4h-1.98c-.65 2.15-.77 2.8-1.47 2.8h-.33c.05-.3.08-.6.08-.89v-1.9h-1.86v1.9c0 .29.03.59.09.89h-.36c-.69 0-.82-.64-1.46-2.8h-1.98c.76 2.57.79 3.22 2.19 3.4v.06c-1.45.21-1.54.77-2.38 3.72h2.04c.8-2.6.88-3.07 1.58-3.07h.36c-.05.23-.08.47-.08.67v2.4h1.86v-2.4c0-.2-.03-.44-.08-.67h.34c.73 0 .8.47 1.59 3.07h2.05c-.84-2.95-.94-3.51-2.39-3.72v-.06zm14.38 257.98c.99-.05 1.51-.05 2.25-.05.55 0 .79.03.79.33.01.41-.47 1.05-1.28 1.88l-1.61 1.67c-.21.23-.27.47-.27.78v1.02h5.35v-1.68h-2.07c-.34 0-.68.01-1.01.09l1.77-1.74c.95-.99 1.12-1.46 1.12-2.24 0-1.4-1.01-1.74-2.54-1.74-.78 0-1.52.03-2.57.24l.07 1.44zm-2.07 3.86c-.5 0-.65.16-.65.65v.46c0 .5.16.65.65.65h.45c.5 0 .66-.16.66-.65v-.46c0-.5-.16-.65-.66-.65h-.45zm-4.36-1.34c.79 0 .96.18.96.94 0 .72-.17.9-.97.9-.81 0-1-.18-1-.9 0-.74.18-.94 1.01-.94m-.01-2.9c.72 0 .88.16.88.86 0 .64-.13.79-.86.79-.74 0-.92-.14-.92-.79.01-.71.18-.86.9-.86m-1.55 2.3c-1.03.09-1.28.96-1.28 1.92 0 1.39.58 1.95 2.82 1.93 2.28-.02 2.82-.54 2.82-1.93 0-.96-.24-1.82-1.27-1.92v-.04c.78-.08 1.09-.87 1.09-1.64 0-1.34-.46-1.93-2.64-1.93-2.16 0-2.63.58-2.63 1.93 0 .77.31 1.56 1.09 1.64v.04zm-2.58 3.7v-7.18h-1.95l-1.82.71.23 1.24 1.67-.37c-.06.29-.07.57-.07.85v4.76h1.94zm24.55-14.28c0-.24.12-.4.44-.41h1.08v.65c-.34.22-.71.35-1.01.35-.34 0-.51-.15-.51-.42v-.17zm-1.41-2.04c.86-.05 1.7-.07 2.22-.07.54 0 .71.16.72.59v.12h-1.72c-1.03 0-1.65.5-1.65 1.32v.53c0 .97.78 1.48 1.74 1.48.9 0 1.49-.46 1.84-.89l.18.76h1.51v-3.3c0-1.54-.77-2.02-2.16-2.02-.76 0-2.06.11-2.83.26l.15 1.22zm-.84.09v-1.42h-5.16v1.42h1.65v3.75h1.88v-3.75h1.63zm-9.25 1.95c0-.24.12-.4.44-.41h1.08v.65c-.34.22-.71.35-1.01.35-.34 0-.51-.15-.51-.42v-.17zm-1.41-2.04c.86-.05 1.7-.07 2.22-.07.54 0 .71.16.72.59v.12h-1.72c-1.03 0-1.65.5-1.65 1.32v.53c0 .97.78 1.48 1.74 1.48.9 0 1.49-.46 1.84-.89l.18.76h1.51v-3.3c0-1.54-.77-2.02-2.16-2.02-.76 0-2.06.11-2.83.26l.15 1.22zm-1.3-1.34h-1.85v1.82h-1.58v-1.82h-1.86v5.17h1.86v-2.09h1.58v2.09h1.85v-5.17zm-8.75 0c-.4 0-.65.2-.71.58l-.45 1.93c-.05.26-.06.51-.1.77h-.08c-.03-.26-.04-.51-.1-.77l-.46-1.93c-.06-.38-.31-.58-.7-.58h-1.6c-.43 0-.65.22-.65.64l-.12 4.53h1.71l.1-3.8h.12l.62 2.51c.07.39.32.57.72.57h.85c.41 0 .64-.19.71-.57l.61-2.51h.12l.14 3.8h1.71l-.13-4.53c-.01-.43-.22-.64-.65-.64h-1.66zm-8.6 1.19c.64 0 .8.26.8 1.41 0 1.13-.17 1.38-.8 1.38-.65 0-.81-.25-.81-1.38-.01-1.15.16-1.41.81-1.41m0-1.33c-2.04 0-2.79.74-2.79 2.74 0 1.99.75 2.71 2.79 2.71 2.03 0 2.78-.72 2.78-2.71-.01-2.01-.75-2.74-2.78-2.74m-5.19 2.6c1.21-.18 1.12-.28 1.79-2.46h-1.9c-.45 1.73-.48 1.87-1.22 1.87h-.23c.04-.22.07-.45.07-.66v-1.22h-1.88v5.17h1.88v-1.63c0-.12-.02-.27-.06-.42h.42c.55.01.59.15 1.14 2.05h1.97c-.72-2.45-.74-2.49-1.97-2.66v-.04zm33.38-12.62h-.74c-.49 0-.58-.12-.58-.65 0-.39.09-.48.58-.48h.74v1.13zm-2.03.65c-.31.03-.85.11-.99.56l-.41 1.63h1.94l.32-1.39c.04-.24.16-.3.48-.3h.69v1.69h1.83v-5.21c-.64-.07-1.2-.08-2.61-.08-1.9 0-2.37.36-2.37 1.66 0 .62.25 1.22 1.12 1.4v.04zm-5.51.4c0-.24.12-.39.44-.41h1.08v.65c-.34.22-.71.35-1.01.35-.34 0-.51-.15-.51-.42v-.17zm-1.41-2.04c.86-.05 1.7-.07 2.22-.07.54 0 .71.16.72.6v.12h-1.72c-1.03 0-1.65.5-1.65 1.32v.52c0 .97.78 1.48 1.74 1.48.9 0 1.49-.46 1.84-.89l.18.76h1.51v-3.3c0-1.54-.77-2.02-2.16-2.02-.76 0-2.06.11-2.83.26l.15 1.22zm-1.3-1.34h-3.12c-.9 0-1.35.46-1.43 1.33-.07.95-.17 1.67-.27 2.03-.11.42-.42.41-.87.48l.19 1.39c1.13.19 2.16-.07 2.37-1.35.1-.5.22-1.38.31-2.18.03-.3.18-.44.49-.44h.45v3.91h1.88v-5.17zm-6.33 5.18v-5.18h-1.64l-1.65 2.48c-.16.24-.29.47-.39.76h-.04c.04-.3.07-.53.07-.8v-2.43h-1.68v5.17h1.64l1.61-2.36c.15-.23.32-.58.42-.86h.04c-.04.34-.07.61-.07.92v2.32h1.69zm-8.41-3.78c1.39-.19 1.43-.83 2.19-3.4h-1.98c-.65 2.15-.77 2.8-1.47 2.8h-.33c.05-.3.08-.6.08-.89v-1.9h-1.86v1.9c0 .29.03.59.09.89h-.36c-.69 0-.82-.64-1.46-2.8h-1.98c.76 2.57.79 3.22 2.19 3.4v.06c-1.45.21-1.54.77-2.38 3.72h2.04c.8-2.6.88-3.07 1.58-3.07h.36c-.05.23-.08.47-.08.67v2.4h1.86v-2.4c0-.2-.03-.44-.08-.67h.34c.73 0 .8.47 1.59 3.07h2.05c-.84-2.95-.94-3.51-2.39-3.72v-.06zm13.37-164.92.08 1.57h3.12c-.17.25-.26.51-.35.76l-1.73 4.85h1.91l2.16-6.22c.18-.53-.17-.96-.73-.96h-4.46zm-1.44 5.41c-.5 0-.66.16-.66.65v.46c0 .5.16.65.66.65h.45c.5 0 .65-.16.65-.65v-.46c0-.5-.16-.65-.65-.65h-.45zm-1.94 1.77v-7.18h-1.95l-1.82.71.23 1.24 1.67-.37c-.06.29-.07.57-.07.85v4.76h1.94zm11.68 36c-.83 0-.92-.26-.93-1.85.34-.2.57-.27.92-.27.69 0 .84.18.84.95 0 .84-.04 1.17-.83 1.17m2.18-5.81c-.74-.21-1.48-.21-1.85-.21-2.08 0-3.13.51-3.13 3.79 0 2.92.65 3.64 2.79 3.64 2.2 0 2.68-.84 2.68-2.63 0-1.58-.47-2.23-2.1-2.23-.63 0-1.07.1-1.47.42.05-1.34.31-1.58 1.24-1.58.83 0 1.18 0 1.77.01l.07-1.21zm-6.96 5.33c-.5 0-.65.16-.65.65v.46c0 .5.16.65.65.65h.45c.5 0 .66-.16.66-.65v-.46c0-.5-.16-.65-.66-.65h-.45zm-6.48-4.01c.53-.01 1.26-.02 2-.02.73 0 .94.09.94.68.01.49-.06.78-.84.78h-1.37v1.25l1.37-.01c.77-.01.94.23.94.84 0 .73-.27.86-1.19.86-.62 0-1.08-.01-1.99-.06l-.06 1.4c.81.11 1.72.2 2.58.2 1.9 0 2.6-.62 2.58-2.14-.01-1.09-.32-1.64-1.33-1.8v-.04c.93-.15 1.14-.78 1.14-1.81 0-1.28-.67-1.67-2.42-1.67-.79 0-1.59.06-2.4.2l.05 1.34zm-33.47-5.04c.8 0 1.02.34 1.02 2.25s-.22 2.25-1.02 2.25c-.77 0-.99-.34-.99-2.25s.22-2.25.99-2.25m.01-1.49c-2.18 0-2.92.94-2.92 3.74 0 2.8.75 3.74 2.92 3.74 2.19 0 2.94-.94 2.94-3.74 0-2.81-.76-3.74-2.94-3.74m-4.89 5.56c-.5 0-.65.16-.65.65v.46c0 .5.16.65.65.65h.45c.5 0 .66-.16.66-.65v-.46c0-.5-.16-.65-.66-.65h-.45zm-6.49-4.01c.53-.01 1.26-.02 2-.02.73 0 .94.09.94.68.01.49-.06.78-.84.78h-1.37v1.25l1.37-.01c.77-.01.94.23.94.84 0 .73-.27.86-1.19.86-.62 0-1.08-.01-1.99-.06l-.06 1.4c.81.11 1.72.2 2.58.2 1.9 0 2.6-.62 2.58-2.14-.01-1.09-.32-1.64-1.33-1.8v-.04c.93-.15 1.14-.78 1.14-1.81 0-1.28-.67-1.67-2.42-1.67-.79 0-1.59.06-2.4.2l.05 1.34zM99.14 64.75h-.85v-2.97h-1.47l-.31 1.12v1.84H95.1c-.17 0-.27-.1-.19-.3l1.57-4.07h-1.82l-1.79 4.56c-.23.56.16 1.11.76 1.11h2.87v1.51h1.78v-1.51h.02l.83-.19v-1.1zm-8.05 1.04c-.5 0-.65.16-.65.65v.46c0 .5.16.65.65.65h.45c.5 0 .65-.16.65-.65v-.46c0-.5-.16-.65-.65-.65h-.45zm-1.34-1.04h-.85v-2.97h-1.47l-.31 1.12v1.84h-1.41c-.17 0-.27-.1-.19-.3l1.57-4.07h-1.82l-1.79 4.56c-.23.56.16 1.11.76 1.11h2.87v1.51h1.78v-1.51h.02l.83-.19v-1.1zm-.47 184.2c-.01-.85.07-1.19.82-1.19.81 0 .9.28.91 1.86-.34.2-.57.27-.91.27-.66 0-.83-.2-.82-.94m-1.54 4.63c.83.21 1.6.21 2 .21 2.29 0 3.13-.54 3.13-3.79 0-2.9-.48-3.64-2.75-3.64-2.09 0-2.68.79-2.67 2.63 0 1.31.46 2.23 2.06 2.23.65 0 1.08-.1 1.48-.43-.05 1.23-.3 1.58-1.25 1.58-.93 0-1.27 0-1.9-.01l-.1 1.22zm-2.18-1.69c-.5 0-.65.16-.65.65v.46c0 .5.16.66.65.66H86c.5 0 .66-.16.66-.66v-.46c0-.5-.16-.65-.66-.65h-.44zm-4.09.48c-.83 0-.92-.26-.93-1.85.34-.2.57-.27.92-.27.69 0 .84.18.84.95 0 .85-.04 1.17-.83 1.17m2.18-5.81c-.74-.21-1.48-.21-1.85-.21-2.08 0-3.13.51-3.13 3.79 0 2.91.65 3.64 2.79 3.64 2.2 0 2.67-.84 2.67-2.63 0-1.58-.47-2.23-2.1-2.23-.64 0-1.07.1-1.47.42.05-1.34.31-1.58 1.24-1.58.83 0 1.18 0 1.77.01l.08-1.21zm26.33-8.23h-.74c-.49 0-.58-.13-.58-.65 0-.38.09-.48.58-.48h.74v1.13zm-2.03.65c-.31.03-.85.11-.99.56l-.41 1.63h1.94l.32-1.39c.04-.24.16-.3.48-.3h.69v1.69h1.83v-5.21c-.64-.07-1.2-.08-2.61-.08-1.9 0-2.37.36-2.37 1.67 0 .62.25 1.22 1.12 1.39v.04zm-5.51.4c0-.24.12-.4.44-.41h1.08v.65c-.34.22-.71.35-1.01.35-.34 0-.51-.15-.51-.42v-.17zm-1.42-2.04c.86-.05 1.7-.07 2.22-.07.54 0 .71.16.72.6v.12h-1.72c-1.03 0-1.65.5-1.65 1.32v.52c0 .97.78 1.48 1.74 1.48.9 0 1.49-.46 1.84-.89l.18.76h1.51v-3.3c0-1.54-.77-2.02-2.16-2.02-.76 0-2.06.12-2.83.26l.15 1.22zm-2.88 1.1c1.21-.16 1.17-.31 1.84-2.45h-1.86c-.54 1.7-.6 1.88-1.13 1.88h-.32c.04-.22.06-.44.06-.65V236h-1.64v1.24c0 .21.02.43.06.65h-.33c-.52 0-.58-.18-1.13-1.88h-1.85c.69 2.13.64 2.29 1.84 2.45v.05c-1.25.18-1.27.27-2.01 2.68h1.92c.65-1.96.71-2.07 1.14-2.08h.42c-.04.16-.06.31-.06.44v1.65h1.65v-1.65c0-.12-.02-.28-.05-.44h.39c.47.01.51.12 1.16 2.08h1.92c-.74-2.41-.77-2.5-2.01-2.68v-.07zm-9.67-1.26c.64 0 .8.26.8 1.41 0 1.13-.17 1.38-.8 1.38-.65 0-.81-.25-.81-1.38 0-1.15.16-1.41.81-1.41m0-1.33c-2.04 0-2.79.74-2.79 2.74 0 1.99.75 2.71 2.79 2.71 2.03 0 2.78-.72 2.78-2.71 0-2-.75-2.74-2.78-2.74m-4.91 5.32h1.9l-1.54-2.64 1.42-2.53h-1.88l-1.02 1.93-1.03-1.93h-1.88l1.42 2.53-1.54 2.64h1.9l1.12-2.08 1.13 2.08zm-4.75.01V236h-1.64l-1.65 2.48c-.16.24-.29.47-.4.76h-.04c.04-.3.07-.53.07-.8V236h-1.68v5.17h1.64l1.61-2.36c.15-.23.32-.58.42-.86h.04c-.04.34-.07.61-.07.92v2.32h1.7zm-9.84-3.58c.33-.2.57-.32.97-.32.48 0 .68.2.68 1.38 0 1.19-.21 1.36-.74 1.36-.38 0-.62-.09-.91-.18v-2.24zm-.36-1.6h-1.52v7.1h1.88v-1.13c.01-.36 0-.76-.03-1.12.45.34 1.03.47 1.66.47 1.29 0 1.97-.57 1.97-2.66 0-1.76-.52-2.77-1.83-2.77-.82 0-1.61.37-1.98.85l-.15-.74zm-2.74-2.01h-6.02v7.18h1.94v-5.85h2.11v5.85h1.96v-7.18zm126.85 112.15c2.03-.11 3.1-.11 4.62-.11 1.14 0 1.63.06 1.63.69.02.84-.96 2.16-2.63 3.85l-3.32 3.43c-.43.47-.56.96-.56 1.61v2.1h11.01v-3.47h-4.26c-.71 0-1.39.02-2.08.19l3.64-3.58c1.95-2.03 2.31-3 2.31-4.6 0-2.89-2.08-3.58-5.22-3.58-1.61 0-3.13.06-5.29.49l.15 2.98zm-4.26 7.92c-1.03 0-1.35.32-1.35 1.35v.94c0 1.03.32 1.35 1.35 1.35h.92c1.03 0 1.35-.32 1.35-1.35v-.94c0-1.03-.32-1.35-1.35-1.35h-.92zm-3.56-8.18.15-2.95h-9.25l-.39 6.64c-.04.68.45 1.24 1.16 1.33l2.29.28c1.99.17 2.72.45 2.65 1.84-.09 1.2-.51 1.67-2.46 1.67-1.05 0-2.42-.06-3.83-.17l-.36 3.02c1.88.28 3.77.43 5.25.43 4.2 0 5.38-2.16 5.38-4.82.02-2.38-.88-4.5-4.33-4.88l-2.46-.32.15-2.06h6.05zm-16.85 9.16c-1.71 0-1.89-.54-1.91-3.81.71-.41 1.18-.56 1.88-.56 1.41 0 1.73.36 1.73 1.95.01 1.76-.07 2.42-1.7 2.42m4.5-11.94c-1.52-.43-3.04-.43-3.81-.43-4.28 0-6.45 1.05-6.45 7.79 0 5.99 1.33 7.49 5.74 7.49 4.52 0 5.5-1.73 5.5-5.42 0-3.25-.96-4.58-4.32-4.58-1.31 0-2.21.22-3.02.86.11-2.76.64-3.26 2.55-3.26 1.71 0 2.42 0 3.64.02l.17-2.47z" class="st26"/><circle cx="182.82" cy="326.27" r="13.12" style="clip-path:url(#SVGID_30_);fill:none;stroke:#39373a;stroke-width:.9"/><path d="m187.04 327.17 2.63 4.78h3.37l-2.76-4.72c-.24-.44-.73-.88-1.04-1.05v-.05c.31-.19.65-.5.91-.96l2.71-4.41h-3.28l-2.56 4.36h-.76c.1-.47.13-.94.13-1.39v-2.97h-3.03v11.19h3.03v-3.74c0-.31-.05-.68-.13-1.04h.78zm-13.41-3.98c1.54-.08 2.35-.08 3.5-.08.86 0 1.23.05 1.23.52.02.63-.73 1.64-1.99 2.92l-2.51 2.59c-.32.36-.42.73-.42 1.22v1.59h8.33v-2.63h-3.23c-.53 0-1.05.02-1.57.15l2.76-2.71c1.48-1.54 1.75-2.27 1.75-3.49 0-2.19-1.57-2.71-3.96-2.71-1.22 0-2.37.05-4 .37l.11 2.26z" class="st26"/></g></switch></svg>