<svg xmlns="http://www.w3.org/2000/svg" xmlns:xlink="http://www.w3.org/1999/xlink" xml:space="preserve" id="Слой_1" x="0" y="0" style="enable-background:new 0 0 350 259" version="1.1" viewBox="0 0 350 259"><style>.st1{fill:#f9cfd1}.st2{fill:#3c3c3b}.st3{stroke:#3c3c3b;stroke-width:.75}.st3,.st6{fill:none}.st14,.st15,.st7{fill:none;stroke:#3c3c3b}.st7{stroke-width:.7}.st14{stroke-width:.6}.st15{stroke-width:.25}</style><path d="M0 0h350v259H0V0z" style="fill:#fff"/><path d="M25 24.7h299.5v153.9H25V24.7z" class="st1"/><path d="M25.8 72.9h95.4v153.9H25.8V72.9z" class="st1"/><path d="M324.5 17.7h7.1v173.8h-7.1V17.7z" class="st2"/><path d="M110.4 17.7h221.2v7.1H110.4v-7.1z" class="st2"/><path d="M222.8 21.2h7.1v20.7h-7.1V21.2zm0 44.1h7.1v126.1h-7.1V65.3zm82 120.8h26.8v6.2h-26.8v-6.2z" class="st2"/><path d="M307.1 178.7h24.5v10.5h-24.5v-10.5z" class="st2"/><path d="M321.2 186.1h10.4v6.2h-10.4v-6.2z" class="st2"/><path d="M321.2 178.7h10.4v10.5h-10.4v-10.5zm-97.2 7.4h26.2v6.2H224v-6.2z" class="st2"/><path d="M224 178.7h24v10.5h-24v-10.5zm-1.2 10.8h13.1v37.7h-13.1v-37.7z" class="st2"/><path d="M208.5 178.6h37.7v7.4h-37.7v-7.4zm-102.1-.5h35.4v8.8h-35.4v-8.8z" class="st2"/><path d="M121.1 66.7h7.4v171.5h-7.4V66.7zm-102.7-49h7.4v220.5h-7.4V17.7zm102.7 0h7.4v23.2h-7.4V17.7z" class="st2"/><path d="M18.6 178.1h21.2v8.8H18.6v-8.8zm100.6 55.3h11.3v7.9h-11.3v-7.9zm-100.8 0h9.4v7.9h-9.4v-7.9zM150.8 71.5h76.5v4.7h-76.5v-4.7zM21.5 73h55.6v3.2H21.5V73zm-3.1-55.3h62.9v7H18.4v-7zm3.1 83.2h65.8v4.4H21.5v-4.4zm88.2 0h15.7v4.4h-15.7v-4.4z" class="st2"/><path d="M21.5 74.6h37v3.2h-37v-3.2zm51.2-18.2h4.4v27.2h-4.4V56.4zm0-35.7h4.4V41h-4.4V20.7z" class="st2"/><path d="M244.4 183.5H310v2.1h-65.6v-2.1z" class="st3"/><path d="M242.1 179.1H310V192h-67.9v-12.9zM24.9 231.5h97.7v2.1H24.9v-2.1z" class="st3"/><defs><path id="SVGID_1_" d="M18.4 17.7h313.2v223.7H18.4z"/></defs><clipPath id="SVGID_2_"><use xlink:href="#SVGID_1_" style="overflow:visible"/></clipPath><path d="M24.9 227.2h97.7V241H24.9v-13.8z" style="clip-path:url(#SVGID_2_);fill:none;stroke:#3c3c3b;stroke-width:.75"/><path d="m127.3 231.9 98.3-15.6.3 2.1-98.2 15.6-.4-2.1z" class="st3"/><path d="m126.4 227.1 98.3-15.6 2.2 13.6-98.3 15.6-2.2-13.6z" class="st3"/><path d="M179.5 134.5c1-.1 1.5-.1 2.2-.1.6 0 .8 0 .8.3 0 .4-.5 1.1-1.3 1.9l-1.6 1.7c-.2.2-.3.5-.3.8v1h5.3v-1.7h-2.1c-.3 0-.7 0-1 .1l1.8-1.7c.9-1 1.1-1.5 1.1-2.2 0-1.4-1-1.7-2.5-1.7-.8 0-1.5 0-2.6.2l.2 1.4zm-2.1 3.8c-.5 0-.7.2-.7.7v.5c0 .5.2.7.7.7h.4c.5 0 .7-.2.7-.7v-.5c0-.5-.2-.7-.7-.7h-.4zm-6.7-3.8c1-.1 1.5-.1 2.2-.1.6 0 .8 0 .8.3 0 .4-.5 1.1-1.3 1.9l-1.6 1.7c-.2.2-.3.5-.3.8v1h5.3v-1.7h-2.1c-.3 0-.7 0-1 .1l1.8-1.7c.9-1 1.1-1.5 1.1-2.2 0-1.4-1-1.7-2.5-1.7-.8 0-1.5 0-2.6.2l.2 1.4zm-1.4 5.6v-7.2h-1.9l-1.8.7.2 1.2 1.7-.4c-.1.3-.1.6-.1.9v4.8h1.9zm42.9-12.3c0-.2.1-.4.4-.4h1.1v.6c-.3.2-.7.4-1 .4s-.5-.1-.5-.4v-.2zm-1.4-2c.9-.1 1.7-.1 2.2-.1s.7.2.7.6v.1H212c-1 0-1.7.5-1.7 1.3v.5c0 1 .8 1.5 1.7 1.5s1.5-.5 1.8-.9l.2.8h1.5v-3.3c0-1.5-.8-2-2.2-2-.8 0-2.1.1-2.8.3l.3 1.2zm-.9.1v-1.4h-5.2v1.4h1.6v3.7h1.9v-3.7h1.7zm-9.2 1.9c0-.2.1-.4.4-.4h1.1v.6c-.3.2-.7.4-1 .4s-.5-.1-.5-.4v-.2zm-1.4-2c.9-.1 1.7-.1 2.2-.1s.7.2.7.6v.1h-1.7c-1 0-1.7.5-1.7 1.3v.5c0 1 .8 1.5 1.7 1.5s1.5-.5 1.8-.9l.2.8h1.5v-3.3c0-1.5-.8-2-2.2-2-.8 0-2.1.1-2.8.3l.3 1.2zm-1.3-1.4h-1.9v1.8h-1.6v-1.8h-1.9v5.2h1.9v-2.1h1.6v2.1h1.9v-5.2zm-8.8 0c-.4 0-.6.2-.7.6l-.5 2c-.1.3-.1.5-.1.8h-.1c0-.3 0-.5-.1-.8l-.5-1.9c-.1-.4-.3-.6-.7-.6H185c-.4 0-.6.2-.7.6l-.1 4.5h1.7l.1-3.8h.1l.6 2.5c.1.4.3.6.7.6h.8c.4 0 .6-.2.7-.6l.6-2.5h.1l.1 3.8h1.7l-.1-4.5c0-.4-.2-.6-.6-.6h-1.5v-.1zm-8.6 1.2c.6 0 .8.3.8 1.4 0 1.1-.2 1.4-.8 1.4s-.8-.3-.8-1.4.2-1.4.8-1.4m0-1.3c-2 0-2.8.7-2.8 2.7s.7 2.7 2.8 2.7c2 0 2.8-.7 2.8-2.7s-.8-2.7-2.8-2.7m-5.2 2.6c1.2-.2 1.1-.3 1.8-2.5h-1.9c-.4 1.7-.5 1.9-1.2 1.9h-.2c0-.2.1-.4.1-.7v-1.2h-2v5.2h1.9V128c0-.1 0-.3-.1-.4h.4c.6 0 .6.1 1.1 2.1h2c-.6-2.5-.7-2.6-1.9-2.8zm-8.5-.1h-.7c-.5 0-.6-.1-.6-.6 0-.4.1-.5.6-.5h.7v1.1zm-2.1.6c-.3 0-.9.1-1 .6l-.4 1.6h1.9l.3-1.4c0-.2.2-.3.5-.3h.7v1.7h1.8v-5.2c-.6-.1-1.2-.1-2.6-.1-1.9 0-2.4.4-2.4 1.7.1.6.4 1.2 1.2 1.4zm-5.5.4c0-.2.1-.4.4-.4h1.1v.6c-.3.2-.7.4-1 .4s-.5-.1-.5-.4v-.2zm-1.4-2c.9-.1 1.7-.1 2.2-.1s.7.2.7.6v.1h-1.7c-1 0-1.7.5-1.7 1.3v.5c0 1 .8 1.5 1.7 1.5s1.5-.5 1.8-.9l.2.8h1.5v-3.3c0-1.5-.8-2-2.2-2-.8 0-2.1.1-2.8.3l.3 1.2zm-1.3-1.4h-3.1c-.9 0-1.4.5-1.4 1.3-.1.9-.2 1.7-.3 2-.1.4-.4.4-.9.5l.2 1.4c1.1.2 2.2-.1 2.4-1.4.1-.5.2-1.4.3-2.2 0-.3.2-.4.5-.4h.4v3.9h1.9v-5.1zm-6.3 5.2v-5.2h-1.6l-1.6 2.5c-.2.2-.3.5-.4.8 0-.3.1-.5.1-.8v-2.4H145v5.2h1.6l1.6-2.4c.1-.2.3-.6.4-.9 0 .3-.1.6-.1.9v2.3h1.8zm-8.4-3.8c1.4-.2 1.4-.8 2.2-3.4h-2c-.6 2.2-.8 2.8-1.5 2.8h-.3c.1-.3.1-.6.1-.9v-1.9h-1.9v1.9c0 .3 0 .6.1.9h-.4c-.7 0-.8-.6-1.5-2.8h-2c.8 2.6.8 3.2 2.2 3.4v.1c-1.4.2-1.5.8-2.4 3.7h2c.8-2.6.9-3.1 1.6-3.1h.4c-.1.2-.1.5-.1.7v2.4h1.9v-2.4c0-.2 0-.4-.1-.7h.3c.7 0 .8.5 1.6 3.1h2.1c-.8-2.9-.9-3.5-2.3-3.8zM288 137.3h-.9v-3h-1.5l-.3 1.1v1.8h-1.4c-.2 0-.3-.1-.2-.3l1.6-4.1h-1.8l-1.8 4.6c-.2.6.2 1.1.8 1.1h2.9v1.5h1.8v-1.5l.8-.2v-1zm-8.1 1c-.5 0-.7.2-.7.7v.5c0 .5.2.7.7.7h.4c.5 0 .7-.2.7-.7v-.5c0-.5-.2-.7-.7-.7h-.4zm-4.3-1.3c.8 0 1 .2 1 .9s-.2.9-1 .9-1-.2-1-.9.1-.9 1-.9m0-2.9c.7 0 .9.2.9.9 0 .6-.1.8-.9.8-.7 0-.9-.1-.9-.8s.1-.9.9-.9m-1.6 2.3c-1 .1-1.3 1-1.3 1.9 0 1.4.6 1.9 2.8 1.9 2.3 0 2.8-.5 2.8-1.9 0-1-.2-1.8-1.3-1.9.8-.1 1.1-.9 1.1-1.6 0-1.3-.5-1.9-2.6-1.9-2.2 0-2.6.6-2.6 1.9 0 .7.3 1.5 1.1 1.6zm-2.6 3.7v-7.2h-1.9l-1.8.7.2 1.2 1.7-.4c-.1.3-.1.6-.1.9v4.8h1.9zm43.4-12.3c0-.2.1-.4.4-.4h1.1v.6c-.3.2-.7.4-1 .4s-.5-.1-.5-.4v-.2zm-1.4-2c.9-.1 1.7-.1 2.2-.1s.7.2.7.6v.1h-1.7c-1 0-1.7.5-1.7 1.3v.5c0 1 .8 1.5 1.7 1.5.9 0 1.5-.5 1.8-.9l.2.8h1.5v-3.3c0-1.5-.8-2-2.2-2-.8 0-2.1.1-2.8.3l.3 1.2zm-.9.1v-1.4h-5.2v1.4h1.6v3.7h1.9v-3.7h1.7zm-9.2 1.9c0-.2.1-.4.4-.4h1.1v.6c-.3.2-.7.4-1 .4s-.5-.1-.5-.4v-.2zm-1.4-2c.9-.1 1.7-.1 2.2-.1s.7.2.7.6v.1h-1.7c-1 0-1.7.5-1.7 1.3v.5c0 1 .8 1.5 1.7 1.5.9 0 1.5-.5 1.8-.9l.2.8h1.5v-3.3c0-1.5-.8-2-2.2-2-.8 0-2.1.1-2.8.3l.3 1.2zm-1.3-1.4h-1.9v1.8h-1.6v-1.8h-1.9v5.2h1.9v-2.1h1.6v2.1h1.9v-5.2zm-8.8 0c-.4 0-.6.2-.7.6l-.4 1.9c-.1.3-.1.5-.1.8h-.1c0-.3 0-.5-.1-.8l-.5-1.9c-.1-.4-.3-.6-.7-.6h-1.6c-.4 0-.6.2-.7.6l-.1 4.5h1.7l.1-3.8h.1l.6 2.5c.1.4.3.6.7.6h.8c.4 0 .6-.2.7-.6l.6-2.5h.1l.1 3.8h1.7l-.1-4.5c0-.4-.2-.6-.6-.6h-1.5zm-8.6 1.2c.6 0 .8.3.8 1.4 0 1.1-.2 1.4-.8 1.4-.6 0-.8-.3-.8-1.4s.2-1.4.8-1.4m0-1.3c-2 0-2.8.7-2.8 2.7s.7 2.7 2.8 2.7c2 0 2.8-.7 2.8-2.7s-.8-2.7-2.8-2.7m-5.2 2.6c1.2-.2 1.1-.3 1.8-2.5h-1.9c-.4 1.7-.5 1.9-1.2 1.9h-.2c0-.2.1-.4.1-.7v-1.2h-1.9v5.2h1.9V128c0-.1 0-.3-.1-.4h.4c.6 0 .6.1 1.1 2.1h2c-.7-2.5-.7-2.6-2-2.8zm-8.5-.1h-.7c-.5 0-.6-.1-.6-.6 0-.4.1-.5.6-.5h.7v1.1zm-2 .6c-.3 0-.9.1-1 .6l-.4 1.6h1.9l.3-1.4c0-.2.2-.3.5-.3h.7v1.7h1.8v-5.2c-.6-.1-1.2-.1-2.6-.1-1.9 0-2.4.4-2.4 1.7 0 .6.3 1.2 1.2 1.4zm-5.5.4c0-.2.1-.4.4-.4h1.1v.6c-.3.2-.7.4-1 .4s-.5-.1-.5-.4v-.2zm-1.5-2c.9-.1 1.7-.1 2.2-.1s.7.2.7.6v.1h-1.7c-1 0-1.7.5-1.7 1.3v.5c0 1 .8 1.5 1.7 1.5.9 0 1.5-.5 1.8-.9l.2.8h1.5v-3.3c0-1.5-.8-2-2.2-2-.8 0-2.1.1-2.8.3l.3 1.2zm-1.3-1.4h-3.1c-.9 0-1.4.5-1.4 1.3-.1.9-.2 1.7-.3 2-.1.4-.4.4-.9.5l.2 1.4c1.1.2 2.2-.1 2.4-1.4.1-.5.2-1.4.3-2.2 0-.3.2-.4.5-.4h.4v3.9h1.9v-5.1zm-6.3 5.2v-5.2h-1.6l-1.6 2.5c-.2.2-.3.5-.4.8 0-.3.1-.5.1-.8v-2.4h-1.7v5.2h1.6l1.6-2.4c.1-.2.3-.6.4-.9 0 .3-.1.6-.1.9v2.3h1.7zm-8.4-3.8c1.4-.2 1.4-.8 2.2-3.4h-2c-.6 2.2-.8 2.8-1.5 2.8h-.3c.1-.3.1-.6.1-.9v-1.9h-1.9v1.9c0 .3 0 .6.1.9h-.4c-.7 0-.8-.6-1.5-2.8h-2c.8 2.6.8 3.2 2.2 3.4v.1c-1.4.2-1.5.8-2.4 3.7h2c.8-2.6.9-3.1 1.6-3.1h.4c-.1.2-.1.5-.1.7v2.4h1.9v-2.4c0-.2 0-.4-.1-.7h.3c.7 0 .8.5 1.6 3.1h2.1c-.8-2.9-.8-3.5-2.3-3.8zm-69.8-73.7.1 1.6h3.1c-.2.3-.3.5-.4.8l-1.7 4.9h1.9l2.2-6.2c.2-.5-.2-1-.7-1l-4.5-.1zm-1.5 5.4c-.5 0-.7.2-.7.7v.5c0 .5.2.7.7.7h.4c.5 0 .7-.2.7-.7v-.5c0-.5-.2-.7-.7-.7h-.4zm-1.7-4 .1-1.4h-4.5l-.2 3.2c0 .3.2.6.6.6l1.1.1c1 .1 1.3.2 1.3.9 0 .6-.3.8-1.2.8-.5 0-1.2 0-1.9-.1l-.2 1.5c.9.1 1.8.2 2.6.2 2 0 2.6-1.1 2.6-2.3s-.4-2.2-2.1-2.4l-1.2-.2.1-1h2.9v.1zm20.4-8.3c.3-.2.6-.3 1-.3.5 0 .7.2.7 1.4s-.2 1.4-.7 1.4c-.4 0-.6-.1-.9-.2v-2.3h-.1zm-.4-1.6H190v7.1h1.9v-2.2c.4.3 1 .5 1.7.5 1.3 0 2-.6 2-2.7 0-1.8-.5-2.8-1.8-2.8-.8 0-1.6.4-2 .9l-.3-.8zm-5.2 1.2c.6 0 .8.3.8 1.4 0 1.1-.2 1.4-.8 1.4s-.8-.3-.8-1.4c0-1.1.2-1.4.8-1.4m0-1.3c-2 0-2.8.7-2.8 2.7s.7 2.7 2.8 2.7c2 0 2.8-.7 2.8-2.7s-.8-2.7-2.8-2.7m-5.9 4h-1.5c.3-.6.4-1.3.6-2.3 0-.3.2-.4.5-.4h.5v2.7h-.1zm2.6 0h-.9v-3.9h-2.8c-.9 0-1.4.4-1.5 1.3-.1.9-.3 1.8-.6 2.6h-.6v2.7h1.2l.1-1.4h3.7l.1 1.4h1.3v-2.7zm-7.2 1.3v-5.2h-1.6l-1.6 2.5c-.2.2-.3.5-.4.8 0-.3.1-.5.1-.8v-2.4h-1.7v5.2h1.6l1.6-2.4c.1-.2.3-.6.4-.9 0 .3-.1.6-.1.9v2.3h1.7zm-9.8-3.6c.3-.2.6-.3 1-.3.5 0 .7.2.7 1.4s-.2 1.4-.7 1.4c-.4 0-.6-.1-.9-.2v-2.3h-.1zm-.4-1.6h-1.5v7.1h1.9v-2.2c.4.3 1 .5 1.7.5 1.3 0 2-.6 2-2.7 0-1.8-.5-2.8-1.8-2.8-.8 0-1.6.4-2 .9l-.3-.8zm-5.2 1.2c.6 0 .8.3.8 1.4 0 1.1-.2 1.4-.8 1.4s-.8-.3-.8-1.4c0-1.1.2-1.4.8-1.4m0-1.3c-2 0-2.8.7-2.8 2.7s.7 2.7 2.8 2.7c2 0 2.8-.7 2.8-2.7s-.8-2.7-2.8-2.7m-5.6 1.5c1.4-.2 1.5-.8 2.3-3.4h-2c-.6 2.2-.7 2.8-1.7 2.8h-.4c.1-.3.1-.6.1-.9v-1.9h-1.9v7.2h1.9v-2.4c0-.2 0-.4-.1-.7h.4c1 0 1.1.5 1.8 3.1h2c-.8-3-.9-3.5-2.4-3.8zM81 162.3v-7.2h-2l-1.8.7.2 1.2 1.7-.4c-.1.3-.1.6-.1.9v4.8h2zm-5-1.7c-.5 0-.7.2-.7.7v.5c0 .5.2.7.7.7h.4c.5 0 .7-.2.7-.7v-.5c0-.5-.2-.7-.7-.7H76zm-1.3-1.1h-.9v-3h-1.5l-.3 1.1v1.8h-1.4c-.2 0-.3-.1-.2-.3L72 155h-1.8l-1.8 4.6c-.2.6.2 1.1.8 1.1h2.9v1.5h1.8v-1.5l.8-.2v-1zm-7.3 2.8v-7.2h-1.9l-1.8.7.2 1.2 1.7-.4c-.1.3-.1.6-.1.9v4.8h1.9zM86 147h-.7c-.5 0-.6-.1-.6-.6 0-.4.1-.5.6-.5h.7v1.1zm-2.1.7c-.3 0-.9.1-1 .6l-.4 1.6h1.9l.3-1.4c0-.2.2-.3.5-.3h.8v1.7h1.8v-5.2c-.6-.1-1.2-.1-2.6-.1-1.9 0-2.4.4-2.4 1.7 0 .6.3 1.1 1.1 1.4zm-2.1-3h-1.9v1.8h-1.6v-1.8h-1.9v5.2h1.9v-2.1h1.6v2.1h1.9v-5.2zm-7.8 5.2h1.9l-1.5-2.6 1.4-2.5h-1.9l-1 1.9-1-1.9H70l1.4 2.5-1.5 2.6h1.9l1.1-2.1 1.1 2.1zm-4.2-5.2h-2l-.8 3.1c-.1.2-.1.6-.2.9h-.1c0-.3-.1-.6-.1-.9l-.8-3.1h-2l1.6 4.7c.1.3.3.4.6.4h.3c-.1.3-.3.5-.5.6-.3.2-.8.2-1.4.2l-.2 1.2c.7.1 1.5.1 2.1-.1.8-.3 1.4-.8 1.8-2l1.7-5zm-8.5 1.4c1.4-.2 1.5-.8 2.3-3.4h-2c-.6 2.2-.7 2.8-1.7 2.8h-.3c.1-.3.1-.6.1-.9v-1.9h-1.9v7.2h1.9v-2.4c0-.2 0-.4-.1-.7h.4c1 0 1.1.5 1.8 3.1h2c-.9-3-1-3.5-2.5-3.8zM180 206.2c.8 0 1 .3 1 2.2s-.2 2.2-1 2.2-1-.3-1-2.2c0-1.8.2-2.2 1-2.2m0-1.5c-2.2 0-2.9.9-2.9 3.7s.7 3.7 2.9 3.7 2.9-.9 2.9-3.7-.7-3.7-2.9-3.7m-4.9 5.6c-.5 0-.7.2-.7.7v.5c0 .5.2.7.7.7h.4c.5 0 .7-.2.7-.7v-.5c0-.5-.2-.7-.7-.7h-.4zm-1.4-1h-.9v-3h-1.5l-.3 1.1v1.8h-1.4c-.2 0-.3-.1-.2-.3l1.6-4.1h-1.8l-1.8 4.6c-.2.6.2 1.1.8 1.1h2.9v1.5h1.8v-1.5l.8-.2v-1zm19.9-12.6h-.7c-.5 0-.6-.1-.6-.6 0-.4.1-.5.6-.5h.7v1.1zm-2 .7c-.3 0-.9.1-1 .6l-.4 1.6h1.9l.3-1.4c0-.2.2-.3.5-.3h.7v1.7h1.8v-5.2c-.6-.1-1.2-.1-2.6-.1-1.9 0-2.4.4-2.4 1.7 0 .6.3 1.2 1.2 1.4zm-2.2 2.2v-5.2h-1.6l-1.6 2.5c-.2.2-.3.5-.4.8 0-.3.1-.5.1-.8v-2.4h-1.7v5.2h1.6l1.6-2.4c.1-.2.3-.6.4-.9 0 .3-.1.6-.1.9v2.3h1.7zm-8-2.8c1.2-.2 1.2-.3 1.8-2.4h-1.9c-.5 1.7-.6 1.9-1.1 1.9h-.3c0-.2.1-.4.1-.6v-1.2h-1.6v1.2c0 .2 0 .4.1.6h-.3c-.5 0-.6-.2-1.1-1.9h-1.9c.7 2.1.6 2.3 1.8 2.4v.1c-1.3.2-1.3.3-2 2.7h1.9c.7-2 .7-2.1 1.1-2.1h.4c0 .2-.1.3-.1.4v1.6h1.7v-1.6c0-.1 0-.3-.1-.4h.4c.5 0 .5.1 1.2 2.1h1.9c-.8-2.4-.8-2.5-2-2.8zm-9.4 1.5h-1.5c.3-.6.4-1.3.6-2.3 0-.3.2-.4.5-.4h.5v2.7h-.1zm2.6 0h-.9v-3.9h-2.8c-.9 0-1.4.4-1.5 1.3-.1.9-.3 1.8-.6 2.6h-.6v2.7h1.2l.1-1.4h3.7l.1 1.4h1.3v-2.7zm-9.6-2.7c.6 0 .8.3.8 1.4 0 1.1-.2 1.4-.8 1.4s-.8-.3-.8-1.4c0-1.2.1-1.4.8-1.4m0-1.3c-2 0-2.8.7-2.8 2.7s.7 2.7 2.8 2.7c2 0 2.8-.7 2.8-2.7-.1-2-.8-2.7-2.8-2.7m-3.8-1.9h-3.3c-1.1 0-1.7.6-1.8 1.7-.1 1.7-.3 2.7-.5 3.3-.2.5-.5.6-1 .7l.1 1.5c1.3.2 2.2-.2 2.7-1.7.3-.9.4-2.2.6-3.7 0-.4.2-.5.6-.5h.7v5.8h2v-7.1h-.1zm134.6-83.5c1.8 0 2.2.4 2.2 2.1 0 1.6-.4 2-2.2 2-1.9 0-2.3-.4-2.3-2-.1-1.6.3-2.1 2.3-2.1m-.1-6.6c1.6 0 2 .4 2 2 0 1.5-.3 1.8-2 1.8s-2.1-.3-2.1-1.8c.1-1.7.5-2 2.1-2m-3.5 5.2c-2.4.2-2.9 2.2-2.9 4.4 0 3.2 1.3 4.4 6.4 4.4 5.2 0 6.4-1.2 6.4-4.4 0-2.2-.5-4.2-2.9-4.4v-.1c1.8-.2 2.5-2 2.5-3.8 0-3.1-1-4.4-6-4.4-4.9 0-6 1.3-6 4.4 0 1.8.7 3.6 2.5 3.9zm-7.5 4.5c-1.1 0-1.5.4-1.5 1.5v1c0 1.1.4 1.5 1.5 1.5h1c1.1 0 1.5-.4 1.5-1.5v-1c0-1.1-.4-1.5-1.5-1.5h-1zm-10.2-9.3c1.8 0 2.3.8 2.3 5.1 0 4.4-.5 5.1-2.3 5.1s-2.3-.8-2.3-5.1c0-4.4.5-5.1 2.3-5.1m0-3.4c-5 0-6.7 2.1-6.7 8.5s1.7 8.5 6.7 8.5 6.7-2.1 6.7-8.5-1.7-8.5-6.7-8.5M260 113.1c-1.9 0-2.1-.6-2.1-4.2.8-.5 1.3-.6 2.1-.6 1.6 0 1.9.4 1.9 2.2 0 1.8-.1 2.6-1.9 2.6m5-13.3c-1.7-.5-3.4-.5-4.2-.5-4.8 0-7.2 1.2-7.2 8.7 0 6.7 1.5 8.3 6.4 8.3 5 0 6.1-1.9 6.1-6 0-3.6-1.1-5.1-4.8-5.1-1.5 0-2.5.2-3.4 1 .1-3.1.7-3.6 2.8-3.6h4l.3-2.8z" class="st2"/><circle cx="277.9" cy="81.1" r="14.6" style="fill:none;stroke:#3c3c3b"/><path d="M284.7 80.9c2.5-.3 2.5-1.4 3.9-5.9h-3.4c-1 3.7-1.2 4.8-3 4.8h-.6c.1-.5.1-1 .1-1.6V75h-3.4v12.4h3.4v-4.2c0-.3-.1-.8-.1-1.2h.6c1.7 0 1.9.8 3.2 5.3h3.5c-1.5-5.1-1.7-6.1-4.2-6.4zm-17.2-3.2c1.7-.1 2.6-.1 3.9-.1 1 0 1.4.1 1.4.6 0 .7-.8 1.8-2.2 3.2l-2.8 2.9c-.4.4-.5.8-.5 1.4v1.8h9.3v-2.9H273c-.6 0-1.2 0-1.7.2l3.1-3c1.6-1.7 1.9-2.5 1.9-3.9 0-2.4-1.7-3-4.4-3-1.4 0-2.6.1-4.4.4v2.4z" class="st2"/><path d="M18.4 17.7h313.2v223.7H18.4V17.7z" class="st6"/><path d="m239.2 62.3 1.3-.7-14-23.4-1.3.8 14 23.3z" class="st7"/><defs><path id="SVGID_3_" d="M18.4 17.7h313.2v223.7H18.4z"/></defs><clipPath id="SVGID_4_"><use xlink:href="#SVGID_3_" style="overflow:visible"/></clipPath><path d="M240.9 61.4s-3.1 2.1-7.6 3.3c-4.6 1.2-7.1 1.4-7.1 1.4" style="clip-path:url(#SVGID_4_);fill:none;stroke:#3c3c3b;stroke-width:.7"/><path d="m147.8 85.1-.8 1.3-23.3-14.1.7-1.3 23.4 14.1z" class="st7"/><defs><path id="SVGID_5_" d="M18.4 17.7h313.2v223.7H18.4z"/></defs><clipPath id="SVGID_6_"><use xlink:href="#SVGID_5_" style="overflow:visible"/></clipPath><path d="M146.9 86.7s2.1-3.1 3.3-7.6c1.2-4.6 1.4-7.1 1.4-7.1" style="clip-path:url(#SVGID_6_);fill:none;stroke:#3c3c3b;stroke-width:.7"/><path d="m106.9 35-.8 1.2-26.7-16.1.7-1.2L106.9 35z" class="st7"/><defs><path id="SVGID_7_" d="M18.4 17.7h313.2v223.7H18.4z"/></defs><clipPath id="SVGID_8_"><use xlink:href="#SVGID_7_" style="overflow:visible"/></clipPath><path d="M106 36.6s2.1-3.1 3.3-7.6c1.2-4.6 1.4-7.1 1.4-7.1" style="clip-path:url(#SVGID_8_);fill:none;stroke:#3c3c3b;stroke-width:.7"/><path d="m90.5 114.8.7 1.3 20.1-12.1-.7-1.3-20.1 12.1z" class="st7"/><defs><path id="SVGID_9_" d="M18.4 17.7h313.2v223.7H18.4z"/></defs><clipPath id="SVGID_10_"><use xlink:href="#SVGID_9_" style="overflow:visible"/></clipPath><path d="M91.3 116.5s-2.1-3.1-3.3-7.6c-1.2-4.6-1.4-7.1-1.4-7.1" style="clip-path:url(#SVGID_10_);fill:none;stroke:#3c3c3b;stroke-width:.7"/><path d="m83 85.7 1.2.8-10 16.5-1.3-.7L83 85.7z" class="st7"/><defs><path id="SVGID_11_" d="M18.4 17.7h313.2v223.7H18.4z"/></defs><clipPath id="SVGID_12_"><use xlink:href="#SVGID_11_" style="overflow:visible"/></clipPath><path d="M84.6 86.6s-3.1-2.1-7.6-3.3c-1.4-.4-2.6-.7-3.6-.9" style="clip-path:url(#SVGID_12_);fill:none;stroke:#3c3c3b;stroke-width:.7"/><path d="m84.4 53.8 1.2-.7-10-16.6-1.3.8 10.1 16.5z" class="st7"/><defs><path id="SVGID_13_" d="M18.4 17.7h313.2v223.7H18.4z"/></defs><clipPath id="SVGID_14_"><use xlink:href="#SVGID_13_" style="overflow:visible"/></clipPath><path d="M86 53s-3.1 2.1-7.6 3.3c-1.4.4-2.6.7-3.6.9" style="clip-path:url(#SVGID_14_);fill:none;stroke:#3c3c3b;stroke-width:.7"/><defs><path id="SVGID_15_" d="M18.4 17.7h313.2v223.7H18.4z"/></defs><clipPath id="SVGID_16_"><use xlink:href="#SVGID_15_" style="overflow:visible"/></clipPath><path d="M114.6 95.4h5.6v4.1h-5.6v-4.1zm-1.1-19v25m11.3-24.7h-11.6" class="st14"/><path d="M25.5 123.8H41V109H25.5v14.8zm-.3-15.2h16.1v15.5H25.2v-15.5z" class="st2"/><path d="M25.5 123.8H41V109H25.5v14.8zm-.3-15.2h16.1v15.5H25.2v-15.5z" class="st15"/><defs><path id="SVGID_17_" d="M18.4 17.7h313.2v223.7H18.4z"/></defs><clipPath id="SVGID_18_"><use xlink:href="#SVGID_17_" style="overflow:visible"/></clipPath><path d="M39.6 111.2c0-.4-.3-.7-.7-.7h-8.1c-.4 0-.7.3-.7.7v10.4c0 .4.3.7.7.7h8.1c.4 0 .7-.3.7-.7v-10.4zm-9.9 10.3v-10.4c0-.5.5-1 1-1h8.1c.6 0 1 .4 1 1v10.4c0 .5-.5 1-1 1h-8.1c-.5 0-1-.4-1-1" style="clip-path:url(#SVGID_18_);fill:#3c3c3b"/><defs><path id="SVGID_19_" d="M18.4 17.7h313.2v223.7H18.4z"/></defs><clipPath id="SVGID_20_"><use xlink:href="#SVGID_19_" style="overflow:visible"/></clipPath><path d="M39.6 111.2c0-.4-.3-.7-.7-.7h-8.1c-.4 0-.7.3-.7.7v10.4c0 .4.3.7.7.7h8.1c.4 0 .7-.3.7-.7v-10.4zm-9.9 10.3v-10.4c0-.5.5-1 1-1h8.1c.6 0 1 .4 1 1v10.4c0 .5-.5 1-1 1h-8.1c-.5 0-1-.4-1-1z" style="clip-path:url(#SVGID_20_);fill:none;stroke:#3c3c3b;stroke-width:.25"/><path d="M31.3 121.1h7.1v-9.4h-7.1v9.4zm-.4-9.8h7.8v10.1h-7.8v-10.1z" class="st2"/><path d="M31.3 121.1h7.1v-9.4h-7.1v9.4zm-.4-9.8h7.8v10.1h-7.8v-10.1z" class="st15"/><defs><path id="SVGID_21_" d="M18.4 17.7h313.2v223.7H18.4z"/></defs><clipPath id="SVGID_22_"><use xlink:href="#SVGID_21_" style="overflow:visible"/></clipPath><path d="M36.2 116.4c0-.5-.4-.9-.9-.9s-.9.4-.9.9.4.9.9.9.9-.5.9-.9m-2.1 0c0-.6.6-1.2 1.2-1.2s1.2.5 1.2 1.2-.6 1.2-1.2 1.2-1.2-.6-1.2-1.2" style="clip-path:url(#SVGID_22_);fill:#3c3c3b"/><defs><path id="SVGID_23_" d="M18.4 17.7h313.2v223.7H18.4z"/></defs><clipPath id="SVGID_24_"><use xlink:href="#SVGID_23_" style="overflow:visible"/></clipPath><path d="M36.2 116.4c0-.5-.4-.9-.9-.9s-.9.4-.9.9.4.9.9.9.9-.5.9-.9zm-2.1 0c0-.6.6-1.2 1.2-1.2s1.2.5 1.2 1.2-.6 1.2-1.2 1.2-1.2-.6-1.2-1.2z" style="clip-path:url(#SVGID_24_);fill:none;stroke:#3c3c3b;stroke-width:.25"/><path d="M48.5 24.2h15.1v15.1H48.5V24.2z" class="st14"/><defs><path id="SVGID_25_" d="M18.4 17.7h313.2v223.7H18.4z"/></defs><clipPath id="SVGID_26_"><use xlink:href="#SVGID_25_" style="overflow:visible"/></clipPath><path d="M32.3 25.8s-5.7 0-5.7 5.7v33.9s0 5.7 5.7 5.7h7.6s5.7 0 5.7-5.7V31.5s0-5.7-5.7-5.7h-7.6z" style="clip-path:url(#SVGID_26_);fill:none;stroke:#3c3c3b;stroke-width:.7"/><defs><path id="SVGID_27_" d="M18.4 17.7h313.2v223.7H18.4z"/></defs><clipPath id="SVGID_28_"><use xlink:href="#SVGID_27_" style="overflow:visible"/></clipPath><path d="M34 28.9s-5.7 0-5.7 5.7v27.6s0 5.7 5.7 5.7h4.1s5.7 0 5.7-5.7V34.6s0-5.7-5.7-5.7H34z" style="clip-path:url(#SVGID_28_);fill:none;stroke:#3c3c3b;stroke-width:.7"/><defs><path id="SVGID_29_" d="M18.4 17.7h313.2v223.7H18.4z"/></defs><clipPath id="SVGID_30_"><use xlink:href="#SVGID_29_" style="overflow:visible"/></clipPath><path d="M32.9 32.7s-2.8 0-2.8 2.8v27.7s0 2.8 2.8 2.8h6.3s2.8 0 2.8-2.8V35.6s0-2.8-2.8-2.8l-6.3-.1z" style="clip-path:url(#SVGID_30_);fill:none;stroke:#3c3c3b;stroke-width:.7"/><defs><path id="SVGID_31_" d="M18.4 17.7h313.2v223.7H18.4z"/></defs><clipPath id="SVGID_32_"><use xlink:href="#SVGID_31_" style="overflow:visible"/></clipPath><path d="M36.1 62.7c.5 0 .8-.4.8-.8 0-.5-.4-.8-.8-.8-.5 0-.8.4-.8.8-.1.5.3.8.8.8z" style="clip-path:url(#SVGID_32_);fill:none;stroke:#3c3c3b;stroke-width:.7"/><path d="M46.6 22.7v51.4" class="st7"/><defs><path id="SVGID_33_" d="M18.4 17.7h313.2v223.7H18.4z"/></defs><clipPath id="SVGID_34_"><use xlink:href="#SVGID_33_" style="overflow:visible"/></clipPath><path d="M57.1 60.9c3 0 5.4 2.4 5.4 5.4v5.8c0 .5-.4.8-.8.8H49.4c-.5 0-.8-.4-.8-.8v-5.8c0-3 2.4-5.4 5.4-5.4h3.1zm-7.7 12.3h12.3c.6 0 1.1-.5 1.1-1.1v-5.8c0-3.2-2.6-5.7-5.7-5.7H54c-3.2 0-5.7 2.6-5.7 5.7v5.8c0 .6.5 1.1 1.1 1.1" style="clip-path:url(#SVGID_34_);fill:#3c3c3b"/><defs><path id="SVGID_35_" d="M18.4 17.7h313.2v223.7H18.4z"/></defs><clipPath id="SVGID_36_"><use xlink:href="#SVGID_35_" style="overflow:visible"/></clipPath><path d="M57.1 60.9c3 0 5.4 2.4 5.4 5.4v5.8c0 .5-.4.8-.8.8H49.4c-.5 0-.8-.4-.8-.8v-5.8c0-3 2.4-5.4 5.4-5.4h3.1zm-7.7 12.3h12.3c.6 0 1.1-.5 1.1-1.1v-5.8c0-3.2-2.6-5.7-5.7-5.7H54c-3.2 0-5.7 2.6-5.7 5.7v5.8c0 .6.5 1.1 1.1 1.1z" style="clip-path:url(#SVGID_36_);fill:none;stroke:#3c3c3b;stroke-width:.25"/><defs><path id="SVGID_37_" d="M18.4 17.7h313.2v223.7H18.4z"/></defs><clipPath id="SVGID_38_"><use xlink:href="#SVGID_37_" style="overflow:visible"/></clipPath><path d="M57.1 62.3c2.2 0 4.1 1.8 4.1 4.1v3.4c0 .4-.3.7-.7.7h-9.8c-.4 0-.7-.3-.7-.7v-3.4c0-2.2 1.8-4.1 4.1-4.1h3zm-6.4 8.4h9.8c.6 0 1-.5 1-1v-3.4c0-2.4-2-4.4-4.4-4.4H54c-2.4 0-4.4 2-4.4 4.4v3.4c.1.6.5 1 1.1 1" style="clip-path:url(#SVGID_38_);fill:#3c3c3b"/><defs><path id="SVGID_39_" d="M18.4 17.7h313.2v223.7H18.4z"/></defs><clipPath id="SVGID_40_"><use xlink:href="#SVGID_39_" style="overflow:visible"/></clipPath><path d="M57.1 62.3c2.2 0 4.1 1.8 4.1 4.1v3.4c0 .4-.3.7-.7.7h-9.8c-.4 0-.7-.3-.7-.7v-3.4c0-2.2 1.8-4.1 4.1-4.1h3zm-6.4 8.4h9.8c.6 0 1-.5 1-1v-3.4c0-2.4-2-4.4-4.4-4.4H54c-2.4 0-4.4 2-4.4 4.4v3.4c.1.6.5 1 1.1 1z" style="clip-path:url(#SVGID_40_);fill:none;stroke:#3c3c3b;stroke-width:.25"/><defs><path id="SVGID_41_" d="M18.4 17.7h313.2v223.7H18.4z"/></defs><clipPath id="SVGID_42_"><use xlink:href="#SVGID_41_" style="overflow:visible"/></clipPath><path d="M55.6 65.2c.4 0 .7.3.7.7 0 .4-.3.7-.7.7s-.7-.3-.7-.7c0-.4.3-.7.7-.7m0 1.6c.5 0 1-.4 1-1 0-.5-.4-1-1-1-.5 0-1 .4-1 1s.4 1 1 1" style="clip-path:url(#SVGID_42_);fill:#3c3c3b"/><defs><path id="SVGID_43_" d="M18.4 17.7h313.2v223.7H18.4z"/></defs><clipPath id="SVGID_44_"><use xlink:href="#SVGID_43_" style="overflow:visible"/></clipPath><path d="M55.6 65.2c.4 0 .7.3.7.7 0 .4-.3.7-.7.7s-.7-.3-.7-.7c0-.4.3-.7.7-.7zm0 1.6c.5 0 1-.4 1-1 0-.5-.4-1-1-1-.5 0-1 .4-1 1s.4 1 1 1z" style="clip-path:url(#SVGID_44_);fill:none;stroke:#3c3c3b;stroke-width:.25"/><defs><path id="SVGID_45_" d="M18.4 17.7h313.2v223.7H18.4z"/></defs><clipPath id="SVGID_46_"><use xlink:href="#SVGID_45_" style="overflow:visible"/></clipPath><path d="M65.2 54.6c.5 0 .6.1.6.6 0 .4-.1.5-.6.5s-.6-.1-.6-.5c0-.5.1-.6.6-.6m0-1.7c.4 0 .5.1.5.5s-.1.5-.5.5-.6-.1-.6-.5.1-.5.6-.5m-1 1.4c-.6.1-.8.6-.8 1.2 0 .8.3 1.2 1.7 1.2s1.7-.3 1.7-1.2c0-.6-.1-1.1-.8-1.2.5 0 .7-.5.7-1 0-.8-.3-1.2-1.6-1.2s-1.6.3-1.6 1.2c.1.4.3.9.7 1zm-1.9 1.1c-.3 0-.4.1-.4.4v.3c0 .3.1.4.4.4h.3c.3 0 .4-.1.4-.4v-.3c0-.3-.1-.4-.4-.4h-.3zm-4.1-2.3h1.3c.3 0 .5 0 .5.2s-.3.6-.8 1.1l-1 1c-.1.1-.2.3-.2.5v.6h3.2v-1H60c-.2 0-.4 0-.6.1l1.1-1c.6-.6.7-.9.7-1.3 0-.8-.6-1-1.5-1-.5 0-.9 0-1.5.1v.7zm14.2-5.8H72c-.3 0-.3-.1-.3-.4 0-.2.1-.3.3-.3h.4v.7zm-1.2.4c-.2 0-.5.1-.6.3l-.2 1h1.2l.2-.8c0-.1.1-.2.3-.2h.4v1h1.1v-3.1c-.4 0-.7-.1-1.6-.1-1.1 0-1.4.2-1.4 1-.1.4.1.7.6.9zm-3.3.2c0-.1.1-.2.3-.2h.7v.4c-.2.1-.4.2-.6.2s-.3-.1-.3-.3l-.1-.1zm-.9-1.2h1.3c.3 0 .4.1.4.4v.1h-1c-.6 0-1 .3-1 .8v.3c0 .6.5.9 1 .9s.9-.3 1.1-.5l.2.3h.9v-2c0-.9-.5-1.2-1.3-1.2-.5 0-1.2.1-1.7.2l.1.7zm-.7-.8h-1.1V47h-1v-1.1h-1.1V49h1.1v-1.3h1V49h1.1v-3.1zm-3.9 0h-1.1V47h-1v-1.1h-1.1V49h1.1v-1.3h1V49h1.1v-3.1zm-5.9 2c0-.1.1-.2.3-.2h.7v.4c-.2.1-.4.2-.6.2-.2 0-.3-.1-.3-.3v-.1h-.1zm-.8-1.2H57c.3 0 .4.1.4.4v.1h-1c-.6 0-1 .3-1 .8v.3c0 .6.5.9 1 .9s.9-.3 1.1-.5l.1.5h.9v-2c0-.9-.5-1.2-1.3-1.2-.5 0-1.2.1-1.7.2l.2.5zm-3 1.5v-1.1h.6c.5 0 .6.1.6.6 0 .4-.1.5-.5.5h-.7zm0-1.8v-.9h.6c.4 0 .5.1.5.5s-.1.5-.5.5l-.6-.1zm1.4.3c.5 0 .8-.4.8-1 0-.9-.4-1.1-1.6-1.1-.8 0-1.2 0-1.8.1V49h2c1.1 0 1.5-.2 1.5-1.1 0-.7-.2-1.1-.9-1.2zM63 92.8h-.5V91h-.9l-.2.7v1.1h-.8c-.1 0-.2-.1-.1-.2l.9-2.4h-1.1l-1.1 2.7c-.1.3.1.7.5.7h1.7v.9h1.1v-.9l.5-.1v-.7zm-4.8.6c-.3 0-.4.1-.4.4v.3c0 .3.1.4.4.4h.3c.3 0 .4-.1.4-.4v-.3c0-.3-.1-.4-.4-.4h-.3zm-1.1 1.1v-4.3h-1.2l-1.1.4.1.7 1-.2v3.4h1.2zm7.3-10.6h-1.2l-.5 1.8c0 .1-.1.3-.1.5h-.1c0-.2-.1-.4-.1-.5l-.4-1.8h-1.2l1 2.8c0 .2.2.3.4.3h.2c-.1.2-.2.3-.3.4-.2.1-.5.1-.9.1l-.2.7c.4.1.9.1 1.3-.1.5-.2.8-.5 1.1-1.2l1-3zm-6.1 3.6 2.5-4.8h-.9l-2.5 4.8h.9zM57 86c-.4 0-.8.1-1.4.1-.5 0-.7-.3-.7-1.2 0-1 .1-1.2.7-1.2h1.3l.1-.9c-.4-.1-.7-.2-1.4-.2-1.4 0-1.9.6-1.9 2.2s.5 2.2 1.9 2.2c.6 0 1 0 1.5-.2L57 86zm-9.8 1.4c0 2.8-2.3 5.1-5.1 5.1h-7.4c-.5 0-.9-.4-.9-.9v-8.5c0-.5.4-.9.9-.9h7.4c2.8 0 5.1 2.3 5.1 5.2m-13.8-4.3v8.5c0 .7.6 1.2 1.2 1.2H42c3 0 5.5-2.5 5.5-5.5S45 81.8 42 81.8h-7.4c-.6.1-1.2.7-1.2 1.3" style="clip-path:url(#SVGID_46_);fill:#3c3c3b"/><defs><path id="SVGID_47_" d="M18.4 17.7h313.2v223.7H18.4z"/></defs><clipPath id="SVGID_48_"><use xlink:href="#SVGID_47_" style="overflow:visible"/></clipPath><path d="M47.2 87.4c0 2.8-2.3 5.1-5.1 5.1h-7.4c-.5 0-.9-.4-.9-.9v-8.5c0-.5.4-.9.9-.9h7.4c2.8 0 5.1 2.3 5.1 5.2zm-13.8-4.3v8.5c0 .7.6 1.2 1.2 1.2H42c3 0 5.5-2.5 5.5-5.5S45 81.8 42 81.8h-7.4c-.6.1-1.2.7-1.2 1.3z" style="clip-path:url(#SVGID_48_);fill:none;stroke:#3c3c3b;stroke-width:.25"/><defs><path id="SVGID_49_" d="M18.4 17.7h313.2v223.7H18.4z"/></defs><clipPath id="SVGID_50_"><use xlink:href="#SVGID_49_" style="overflow:visible"/></clipPath><path d="M36.3 91v-7.3s0-.1.1-.1H42c2.1 0 3.8 1.7 3.8 3.8 0 2.1-1.7 3.8-3.8 3.8l-5.7-.2c0 .1 0 .1 0 0z" style="clip-path:url(#SVGID_50_);fill:none;stroke:#3c3c3b;stroke-width:.25"/><defs><path id="SVGID_51_" d="M18.4 17.7h313.2v223.7H18.4z"/></defs><clipPath id="SVGID_52_"><use xlink:href="#SVGID_51_" style="overflow:visible"/></clipPath><path d="M36.4 90.9v-7.2h5.5c2 0 3.6 1.6 3.6 3.6s-1.6 3.6-3.6 3.6h-5.5zm-.3-7.2V91c0 .1.1.3.3.3H42c2.2 0 3.9-1.8 3.9-3.9 0-2.2-1.8-3.9-3.9-3.9h-5.6c-.2-.1-.3.1-.3.2" style="clip-path:url(#SVGID_52_);fill:#3c3c3b"/><defs><path id="SVGID_53_" d="M18.4 17.7h313.2v223.7H18.4z"/></defs><clipPath id="SVGID_54_"><use xlink:href="#SVGID_53_" style="overflow:visible"/></clipPath><path d="M36.4 90.9v-7.2h5.5c2 0 3.6 1.6 3.6 3.6s-1.6 3.6-3.6 3.6h-5.5zm-.3-7.2V91c0 .1.1.3.3.3H42c2.2 0 3.9-1.8 3.9-3.9 0-2.2-1.8-3.9-3.9-3.9h-5.6c-.2-.1-.3.1-.3.2z" style="clip-path:url(#SVGID_54_);fill:none;stroke:#3c3c3b;stroke-width:.25"/><defs><path id="SVGID_55_" d="M18.4 17.7h313.2v223.7H18.4z"/></defs><clipPath id="SVGID_56_"><use xlink:href="#SVGID_55_" style="overflow:visible"/></clipPath><path d="M41.9 87.4c0 .5-.4 1-1 1-.5 0-1-.4-1-1 0-.5.4-1 1-1s1 .4 1 1m-2.3 0c0 .7.6 1.3 1.3 1.3s1.3-.6 1.3-1.3c0-.7-.6-1.3-1.3-1.3-.7-.1-1.3.5-1.3 1.3" style="clip-path:url(#SVGID_56_);fill:#3c3c3b"/><defs><path id="SVGID_57_" d="M18.4 17.7h313.2v223.7H18.4z"/></defs><clipPath id="SVGID_58_"><use xlink:href="#SVGID_57_" style="overflow:visible"/></clipPath><path d="M41.9 87.4c0 .5-.4 1-1 1-.5 0-1-.4-1-1 0-.5.4-1 1-1s1 .4 1 1zm-2.3 0c0 .7.6 1.3 1.3 1.3s1.3-.6 1.3-1.3c0-.7-.6-1.3-1.3-1.3-.7-.1-1.3.5-1.3 1.3z" style="clip-path:url(#SVGID_58_);fill:none;stroke:#3c3c3b;stroke-width:.25"/><path d="m37 90.2 2.3-1.7.2.3-2.3 1.7-.2-.3z" class="st2"/><path d="m37 90.2 2.3-1.7.2.3-2.3 1.7-.2-.3z" class="st15"/><path d="m37 84.6 2.3 1.7.2-.3-2.3-1.7-.2.3z" class="st2"/><path d="m37 84.6 2.3 1.7.2-.3-2.3-1.7-.2.3z" class="st15"/><defs><path id="SVGID_59_" d="M18.4 17.7h313.2v223.7H18.4z"/></defs><clipPath id="SVGID_60_"><use xlink:href="#SVGID_59_" style="overflow:visible"/></clipPath><path d="M33.4 90.9c0 .8-.6 1.4-1.4 1.4h-1.9c-.8 0-1.4-.6-1.4-1.4v-7.1c0-.8.6-1.4 1.4-1.4H32c.8 0 1.4.6 1.4 1.4v7.1zm-5.1-7.1v7.1c0 1 .8 1.8 1.8 1.8H32c1 0 1.8-.8 1.8-1.8v-7.1c0-1-.8-1.8-1.8-1.8h-1.9c-1 .1-1.8.9-1.8 1.8" style="clip-path:url(#SVGID_60_);fill:#3c3c3b"/><defs><path id="SVGID_61_" d="M18.4 17.7h313.2v223.7H18.4z"/></defs><clipPath id="SVGID_62_"><use xlink:href="#SVGID_61_" style="overflow:visible"/></clipPath><path d="M33.4 90.9c0 .8-.6 1.4-1.4 1.4h-1.9c-.8 0-1.4-.6-1.4-1.4v-7.1c0-.8.6-1.4 1.4-1.4H32c.8 0 1.4.6 1.4 1.4v7.1zm-5.1-7.1v7.1c0 1 .8 1.8 1.8 1.8H32c1 0 1.8-.8 1.8-1.8v-7.1c0-1-.8-1.8-1.8-1.8h-1.9c-1 .1-1.8.9-1.8 1.8z" style="clip-path:url(#SVGID_62_);fill:none;stroke:#3c3c3b;stroke-width:.25"/><defs><path id="SVGID_63_" d="M18.4 17.7h313.2v223.7H18.4z"/></defs><clipPath id="SVGID_64_"><use xlink:href="#SVGID_63_" style="overflow:visible"/></clipPath><path d="M31.6 87.4c0 .3-.2.5-.5.5s-.5-.2-.5-.5.2-.5.5-.5c.2-.1.5.2.5.5m-1.5 0c0 .5.4.9.9.9s.9-.4.9-.9-.4-.9-.9-.9-.9.4-.9.9" style="clip-path:url(#SVGID_64_);fill:#3c3c3b"/><defs><path id="SVGID_65_" d="M18.4 17.7h313.2v223.7H18.4z"/></defs><clipPath id="SVGID_66_"><use xlink:href="#SVGID_65_" style="overflow:visible"/></clipPath><path d="M31.6 87.4c0 .3-.2.5-.5.5s-.5-.2-.5-.5.2-.5.5-.5c.2-.1.5.2.5.5zm-1.5 0c0 .5.4.9.9.9s.9-.4.9-.9-.4-.9-.9-.9-.9.4-.9.9z" style="clip-path:url(#SVGID_66_);fill:none;stroke:#3c3c3b;stroke-width:.25"/><path d="M33.5 100.8V76.4m-6.9 19H32v4.1h-5.4v-4.1z" class="st14"/><path d="M106.5 62.9h1.3c.3 0 .5 0 .5.2s-.3.6-.8 1.1l-1 1c-.1.1-.2.3-.2.5v.6h3.2v-1h-1.2c-.2 0-.4 0-.6.1l1.1-1c.6-.6.7-.9.7-1.3 0-.8-.6-1-1.5-1-.5 0-.9 0-1.5.1v.7zm-1.3 2.3c-.3 0-.4.1-.4.4v.3c0 .3.1.4.4.4h.3c.3 0 .4-.1.4-.4v-.3c0-.3-.1-.4-.4-.4h-.3zm-.8-.6h-.5v-1.8h-.9l-.2.7v1.1h-.8c-.1 0-.2-.1-.1-.2l.9-2.4h-1.1l-1.1 2.7c-.1.3.1.7.5.7h1.7v.9h1.1v-.9l.5-.1v-.7zm15.3-7.5h-.4c-.3 0-.3-.1-.3-.4 0-.2.1-.3.3-.3h.4v.7zm-1.2.4c-.2 0-.5.1-.6.3l-.2 1h1.2l.1-.8c0-.1.1-.2.3-.2h.4v1h1.1v-3.1c-.4 0-.7-.1-1.6-.1-1.1 0-1.4.2-1.4 1 0 .4.2.8.7.9zm-3.3.2c0-.1.1-.2.3-.2h.7v.4c-.2.1-.4.2-.6.2s-.3-.1-.3-.3l-.1-.1zm-.9-1.2h1.3c.3 0 .4.1.4.4v.1h-1c-.6 0-1 .3-1 .8v.2c0 .6.5.9 1 .9s.9-.3 1.1-.5l.1.5h.9v-2c0-.9-.5-1.2-1.3-1.2-.5 0-1.2.1-1.7.2l.2.6zm-1.7.7c.7-.1.7-.2 1.1-1.5h-1.1c-.3 1-.4 1.1-.7 1.1h-.2v-1.1h-1v1.1h-.2c-.3 0-.3-.1-.7-1.1h-1.1c.4 1.3.4 1.4 1.1 1.5-.8.1-.8.2-1.2 1.6h1.1c.4-1.2.4-1.2.7-1.3h.2v1.3h1v-1.3h.2c.3 0 .3.1.7 1.3h1.1c-.2-1.4-.3-1.5-1-1.6zm-5.8-.8c.4 0 .5.2.5.8 0 .7-.1.8-.5.8s-.5-.1-.5-.8c0-.6.1-.8.5-.8m0-.8c-1.2 0-1.7.4-1.7 1.6 0 1.2.5 1.6 1.7 1.6s1.7-.4 1.7-1.6c0-1.1-.5-1.6-1.7-1.6m-2.9 3.2h1.1l-.9-1.6.8-1.5h-1.1l-.6 1.2-.6-1.2h-1.1l.8 1.5-.9 1.6h1.1l.7-1.2.7 1.2zm-2.9 0v-3.1h-1l-1 1.5c-.1.1-.2.3-.2.5v-2h-1v3.1h1l1-1.4c.1-.1.2-.4.3-.5v2l.9-.1zm-5.9-2.1c.2-.1.3-.2.6-.2s.4.1.4.8-.1.8-.4.8c-.2 0-.4-.1-.5-.1l-.1-1.3zm-.2-1H94V60h1.1v-1.4c.3.2.6.3 1 .3.8 0 1.2-.3 1.2-1.6 0-1.1-.3-1.7-1.1-1.7-.5 0-1 .2-1.2.5l-.1-.4zm-1.7-1.2h-3.6v4.3h1.2v-3.5h1.3v3.5h1.2l-.1-4.3z" class="st2"/><path d="M18.4 17.7h313.2v223.7H18.4V17.7z" class="st6"/><path d="M141.6 184.3h21.6v2.6h-21.6zm21.7-2.5h21.8v2.6h-21.8zm22-2.9h23.1v2.6h-23.1z" style="stroke:#39373a;stroke-width:.6;fill:none"/></svg>