<?xml version="1.0" encoding="utf-8"?>
<!-- Generator: Adobe Illustrator 27.4.1, SVG Export Plug-In . SVG Version: 6.00 Build 0)  -->
<svg version="1.1" id="Слой_1" xmlns="http://www.w3.org/2000/svg" xmlns:xlink="http://www.w3.org/1999/xlink" x="0px" y="0px"
	 viewBox="0 0 1280 1024" style="enable-background:new 0 0 1280 1024;" xml:space="preserve">
<style type="text/css">
	.st0{fill:#F6CCCE;}
	.st1{fill:#373437;}
	.st2{fill:none;stroke:#373437;}
	.st3{fill:#FFFFFF;}
	.st4{fill:none;stroke:#373437;stroke-dasharray:2.381,2.381;}
	.st5{fill:none;stroke:#373437;stroke-dasharray:2.342,2.342;}
	.st6{fill:none;stroke:#373437;stroke-miterlimit:3.9999;}
</style>
<rect x="263.9" y="212.3" class="st0" width="799.5" height="552.7"/>
<rect x="1064.6" y="184.2" class="st1" width="26.2" height="646.6"/>
<rect x="586.4" y="184.2" class="st1" width="504.5" height="28.6"/>
<rect x="586.4" y="184.2" class="st2" width="504.5" height="28.6"/>
<rect x="431" y="184.2" class="st1" width="61.8" height="28.6"/>
<rect x="431" y="184.2" class="st2" width="61.8" height="28.6"/>
<rect x="464.2" y="210.4" class="st1" width="148.9" height="28.6"/>
<rect x="464.2" y="210.4" class="st2" width="148.9" height="28.6"/>
<rect x="946.3" y="804.7" class="st1" width="141.8" height="26.1"/>
<rect x="946.3" y="804.7" class="st2" width="141.8" height="26.1"/>
<rect x="515.2" y="805" class="st1" width="232" height="25.8"/>
<rect x="515.2" y="805" class="st2" width="232" height="25.8"/>
<rect x="235.9" y="806.3" class="st1" width="119.2" height="24.4"/>
<rect x="300.1" y="824.2" class="st1" width="15" height="117.2"/>
<rect x="300.1" y="824.2" class="st2" width="15" height="117.2"/>
<rect x="305.1" y="929.2" class="st1" width="62.2" height="12.2"/>
<rect x="305.1" y="929.2" class="st2" width="62.2" height="12.2"/>
<rect x="571.9" y="356.6" class="st1" width="15" height="412.1"/>
<rect x="571.9" y="356.6" class="st2" width="15" height="412.1"/>
<rect x="559.6" y="356.6" class="st1" width="21.7" height="124.9"/>
<rect x="559.6" y="356.6" class="st2" width="21.7" height="124.9"/>
<rect x="249.3" y="356.6" class="st1" width="206.4" height="13.8"/>
<rect x="249.3" y="356.6" class="st2" width="206.4" height="13.8"/>
<rect x="539.8" y="356.6" class="st1" width="66.3" height="13.8"/>
<rect x="539.8" y="356.6" class="st2" width="66.3" height="13.8"/>
<rect x="764.9" y="210.1" class="st1" width="13.8" height="65"/>
<rect x="764.9" y="210.1" class="st2" width="13.8" height="65"/>
<rect x="764.9" y="337.3" class="st1" width="13.8" height="29.1"/>
<rect x="764.9" y="337.3" class="st2" width="13.8" height="29.1"/>
<rect x="690.2" y="356.6" class="st1" width="201.3" height="13.8"/>
<rect x="690.2" y="356.6" class="st2" width="201.3" height="13.8"/>
<rect x="741.5" y="368.9" class="st1" width="150" height="42.3"/>
<rect x="741.5" y="368.9" class="st2" width="150" height="42.3"/>
<rect x="741.5" y="397.3" class="st1" width="335" height="13.8"/>
<rect x="741.5" y="397.3" class="st2" width="335" height="13.8"/>
<rect x="235.9" y="184.2" class="st1" width="98.6" height="28.6"/>
<rect x="229.8" y="184.2" class="st1" width="32.9" height="645.3"/>
<rect x="954.7" y="766.2" class="st1" width="136.2" height="47.3"/>
<rect x="523.3" y="766.2" class="st1" width="215.8" height="47.3"/>
<rect x="523.3" y="766.2" class="st2" width="215.8" height="47.3"/>
<rect x="235.9" y="766.2" class="st1" width="110.1" height="47.3"/>
<rect x="808.8" y="371.6" class="st3" width="15.7" height="24.6"/>
<rect x="808.8" y="371.6" class="st2" width="15.7" height="24.6"/>
<rect x="835.8" y="371.6" class="st3" width="15.7" height="24.6"/>
<rect x="835.8" y="371.6" class="st2" width="15.7" height="24.6"/>
<rect x="862.8" y="371.6" class="st3" width="15.7" height="24.6"/>
<rect x="862.8" y="371.6" class="st2" width="15.7" height="24.6"/>
<rect x="756.5" y="371.6" class="st3" width="41" height="24.6"/>
<rect x="756.5" y="371.6" class="st2" width="41" height="24.6"/>
<polygon class="st2" points="661,941.5 661,929.2 661,829.5 648.8,829.5 648.8,929.2 306.8,929.2 306.8,941.5 648.8,941.5 "/>
<rect x="736.5" y="795.2" class="st2" width="237" height="35.6"/>
<rect x="736.5" y="766.2" class="st2" width="237" height="37.5"/>
<rect x="734" y="795.2" class="st2" width="13.2" height="8.5"/>
<rect x="946.3" y="795.2" class="st2" width="13.2" height="8.5"/>
<rect x="346.3" y="796.2" class="st2" width="8.9" height="8.5"/>
<rect x="291.2" y="805.2" class="st2" width="143.8" height="25.5"/>
<rect x="296.2" y="766.2" class="st2" width="133.9" height="38.6"/>
<rect x="296.2" y="796.2" class="st2" width="133.9" height="8.5"/>
<rect x="421.2" y="796.2" class="st2" width="8.9" height="8.5"/>
<path class="st2" d="M335.1,185.5c0,0,0-10.9,4.7-24.5c4-11.3,11.9-21.9,11.9-21.9l88.2,51l-1.9,3.6l-88.3-51"/>
<path class="st2" d="M455.1,363.9c0,0,0,10.9,4.7,24.5c4,11.3,11.9,21.9,11.9,21.9l80.9-47.5l-1.9-3.6l-81.1,47.5"/>
<path class="st2" d="M691.1,363.9c0,0,0,10.9-4.7,24.5c-4,11.3-11.9,21.9-11.9,21.9l-84.3-48.7l1.9-3.6l84.5,48.7"/>
<path class="st2" d="M772.9,274.8c0,0-8.9,0-20,3.9c-9.3,3.2-18,9.7-18,9.7l39.8,68.9l2.9-1.5l-39.8-69"/>
<rect x="518.2" y="195.2" class="st1" width="15.1" height="23"/>
<rect x="518.2" y="195.2" class="st2" width="15.1" height="23"/>
<line class="st2" x1="484.2" y1="195" x2="601.4" y2="195"/>
<path class="st2" d="M431.6,806.5c0,0,0-11.6,5-26c4.2-12.1,12.6-23.3,12.6-23.3l81,47.2l-1.8,2.9L447.3,760"/>
<line class="st4" x1="741.5" y1="425.7" x2="741.5" y2="533.5"/>
<line class="st5" x1="755.3" y1="542.8" x2="1064.2" y2="542.8"/>
<path class="st2" d="M1068.9,542.8h4.6 M741.5,538.2v4.7h4.6 M741.5,411.7v4.7"/>
<path class="st1" d="M1023.2,414.8h-60.6v61.3h60.6V414.8z M961.3,413.4h63.2v64h-63.2V413.4z"/>
<path class="st2" d="M1023.2,414.8h-60.6v61.3h60.6V414.8z M961.3,413.4h63.2v64h-63.2V413.4z"/>
<path class="st1" d="M1014.1,470.4c1.5,0,2.7-1.2,2.7-2.7v-32.2c0-1.5-1.2-2.7-2.7-2.7h-42.4c-1.5,0-2.7,1.2-2.7,2.7v32.2
	c0,1.5,1.2,2.7,2.7,2.7H1014.1z M971.7,431.4h42.4c2.2,0,4,1.8,4,4.1v32.2c0,2.3-1.8,4.1-4,4.1h-42.4c-2.2,0-4-1.8-4-4.1v-32.2
	C967.7,433.3,969.5,431.4,971.7,431.4"/>
<path class="st2" d="M1014.1,470.4c1.5,0,2.7-1.2,2.7-2.7v-32.2c0-1.5-1.2-2.7-2.7-2.7h-42.4c-1.5,0-2.7,1.2-2.7,2.7v32.2
	c0,1.5,1.2,2.7,2.7,2.7H1014.1z M971.7,431.4h42.4c2.2,0,4,1.8,4,4.1v32.2c0,2.3-1.8,4.1-4,4.1h-42.4c-2.2,0-4-1.8-4-4.1v-32.2
	C967.7,433.3,969.5,431.4,971.7,431.4z"/>
<path class="st1" d="M1012.1,437.6h-38.4v28.1h38.4V437.6z M972.4,436.2h41.1V467h-41.1V436.2z"/>
<path class="st2" d="M1012.1,437.6h-38.4v28.1h38.4V437.6z M972.4,436.2h41.1V467h-41.1V436.2z"/>
<path class="st1" d="M992.9,457.1c1.9,0,3.5-1.6,3.5-3.5s-1.6-3.5-3.5-3.5s-3.5,1.6-3.5,3.5C989.4,455.5,991,457.1,992.9,457.1
	 M992.9,448.6c2.7,0,4.8,2.2,4.8,4.9c0,2.7-2.2,4.9-4.8,4.9c-2.7,0-4.8-2.2-4.8-4.9S990.3,448.6,992.9,448.6"/>
<path class="st2" d="M992.9,457.1c1.9,0,3.5-1.6,3.5-3.5s-1.6-3.5-3.5-3.5s-3.5,1.6-3.5,3.5C989.4,455.5,991,457.1,992.9,457.1z
	 M992.9,448.6c2.7,0,4.8,2.2,4.8,4.9c0,2.7-2.2,4.9-4.8,4.9c-2.7,0-4.8-2.2-4.8-4.9S990.3,448.6,992.9,448.6z"/>
<path class="st1" d="M848.1,290.4c-10.3,0-18.7-8.4-18.7-18.7v-27.1c0-1.8,1.4-3.2,3.2-3.2h31c1.8,0,3.2,1.5,3.2,3.2v27.1
	C866.8,282,858.4,290.4,848.1,290.4 M863.5,240h-31c-2.5,0-4.5,2-4.5,4.5v27.1c0,11,9,20,20,20s20-9,20-20v-27.1
	C868,242.1,866,240,863.5,240"/>
<path class="st2" d="M848.1,290.4c-10.3,0-18.7-8.4-18.7-18.7v-27.1c0-1.8,1.4-3.2,3.2-3.2h31c1.8,0,3.2,1.5,3.2,3.2v27.1
	C866.8,282,858.4,290.4,848.1,290.4z M863.5,240h-31c-2.5,0-4.5,2-4.5,4.5v27.1c0,11,9,20,20,20s20-9,20-20v-27.1
	C868,242.1,866,240,863.5,240z"/>
<path class="st2" d="M834.6,250.4h26.8c0.2,0,0.3,0.2,0.3,0.3v20.4c0,7.6-6.2,13.7-13.7,13.7s-13.7-6.2-13.7-13.7v-20.4
	C834.3,250.5,834.5,250.4,834.6,250.4z"/>
<path class="st1" d="M835,251h26.2v20.1c0,7.2-5.9,13.1-13.1,13.1c-7.2,0-13.1-5.9-13.1-13.1L835,251L835,251z M861.5,249.7h-26.8
	c-0.5,0-1,0.4-1,1v20.4c0,7.9,6.5,14.4,14.4,14.4s14.4-6.4,14.4-14.4v-20.4C862.4,250.2,862,249.7,861.5,249.7"/>
<path class="st2" d="M835,251h26.2v20.1c0,7.2-5.9,13.1-13.1,13.1c-7.2,0-13.1-5.9-13.1-13.1L835,251L835,251z M861.5,249.7h-26.8
	c-0.5,0-1,0.4-1,1v20.4c0,7.9,6.5,14.4,14.4,14.4s14.4-6.4,14.4-14.4v-20.4C862.4,250.2,862,249.7,861.5,249.7z"/>
<path class="st1" d="M848.1,271.2c-1.9,0-3.5-1.6-3.5-3.5s1.6-3.5,3.5-3.5c2,0,3.5,1.6,3.5,3.5S850,271.2,848.1,271.2 M848.1,262.8
	c-2.7,0-4.8,2.2-4.8,4.8s2.2,4.8,4.8,4.8c2.7,0,4.8-2.2,4.8-4.8S850.7,262.8,848.1,262.8"/>
<path class="st2" d="M848.1,271.2c-1.9,0-3.5-1.6-3.5-3.5s1.6-3.5,3.5-3.5c2,0,3.5,1.6,3.5,3.5S850,271.2,848.1,271.2z M848.1,262.8
	c-2.7,0-4.8,2.2-4.8,4.8s2.2,4.8,4.8,4.8c2.7,0,4.8-2.2,4.8-4.8S850.7,262.8,848.1,262.8z"/>
<rect x="839.7" y="252.2" transform="matrix(0.8011 -0.5985 0.5985 0.8011 12.9894 554.1508)" class="st1" width="1.3" height="10.7"/>
<rect x="839.7" y="252.2" transform="matrix(0.8011 -0.5985 0.5985 0.8011 12.9894 554.1508)" class="st6" width="1.3" height="10.7"/>
<polygon class="st1" points="858.3,253 851.9,261.6 852.9,262.3 859.3,253.7 "/>
<polygon class="st2" points="858.3,253 851.9,261.6 852.9,262.3 859.3,253.7 "/>
<path class="st1" d="M835.1,240c-2.9,0-5.2-2.3-5.2-5.2v-7.1c0-2.9,2.3-5.2,5.2-5.2h25.8c2.9,0,5.2,2.3,5.2,5.2v7.1
	c0,2.9-2.3,5.2-5.2,5.2H835.1z M861,221.3h-25.8c-3.6,0-6.5,2.9-6.5,6.5v7.1c0,3.6,2.9,6.5,6.5,6.5H861c3.6,0,6.5-2.9,6.5-6.5v-7.1
	C867.4,224.2,864.5,221.3,861,221.3"/>
<path class="st2" d="M835.1,240c-2.9,0-5.2-2.3-5.2-5.2v-7.1c0-2.9,2.3-5.2,5.2-5.2h25.8c2.9,0,5.2,2.3,5.2,5.2v7.1
	c0,2.9-2.3,5.2-5.2,5.2H835.1z M861,221.3h-25.8c-3.6,0-6.5,2.9-6.5,6.5v7.1c0,3.6,2.9,6.5,6.5,6.5H861c3.6,0,6.5-2.9,6.5-6.5v-7.1
	C867.4,224.2,864.5,221.3,861,221.3z"/>
<path class="st1" d="M848.1,233.3c-1.1,0-2-0.9-2-2s0.9-2,2-2s2,0.9,2,2S849.2,233.3,848.1,233.3 M848.1,228c-1.8,0-3.3,1.5-3.3,3.3
	c0,1.8,1.5,3.3,3.3,3.3s3.3-1.5,3.3-3.3C851.3,229.5,849.9,228,848.1,228"/>
<path class="st2" d="M848.1,233.3c-1.1,0-2-0.9-2-2s0.9-2,2-2s2,0.9,2,2S849.2,233.3,848.1,233.3z M848.1,228
	c-1.8,0-3.3,1.5-3.3,3.3c0,1.8,1.5,3.3,3.3,3.3s3.3-1.5,3.3-3.3C851.3,229.5,849.9,228,848.1,228z"/>
<path class="st1" d="M959.9,255.1c9.7,0,17.7-7.9,17.7-17.6v-18.7c0-1.5-1.2-2.7-2.7-2.7H935c-1.5,0-2.7,1.2-2.7,2.7v18.7
	c0,9.7,7.9,17.6,17.7,17.6H959.9z M934.9,215.1h39.9c2,0,3.7,1.6,3.7,3.7v18.7c0,10.3-8.4,18.6-18.7,18.6h-10
	c-10.3,0-18.7-8.3-18.7-18.6v-18.7C931.2,216.7,932.9,215.1,934.9,215.1"/>
<path class="st2" d="M959.9,255.1c9.7,0,17.7-7.9,17.7-17.6v-18.7c0-1.5-1.2-2.7-2.7-2.7H935c-1.5,0-2.7,1.2-2.7,2.7v18.7
	c0,9.7,7.9,17.6,17.7,17.6H959.9z M934.9,215.1h39.9c2,0,3.7,1.6,3.7,3.7v18.7c0,10.3-8.4,18.6-18.7,18.6h-10
	c-10.3,0-18.7-8.3-18.7-18.6v-18.7C931.2,216.7,932.9,215.1,934.9,215.1z"/>
<path class="st1" d="M959.9,250.6c7.3,0,13.2-5.9,13.2-13.2v-10.9c0-1.3-1-2.3-2.3-2.3H939c-1.3,0-2.3,1-2.3,2.3v10.9
	c0,7.3,5.9,13.2,13.2,13.2H959.9z M939,223.2h31.8c1.8,0,3.3,1.5,3.3,3.3v10.9c0,7.8-6.4,14.2-14.2,14.2h-10
	c-7.9,0-14.2-6.4-14.2-14.2v-10.9C935.7,224.7,937.1,223.2,939,223.2"/>
<path class="st2" d="M959.9,250.6c7.3,0,13.2-5.9,13.2-13.2v-10.9c0-1.3-1-2.3-2.3-2.3H939c-1.3,0-2.3,1-2.3,2.3v10.9
	c0,7.3,5.9,13.2,13.2,13.2H959.9z M939,223.2h31.8c1.8,0,3.3,1.5,3.3,3.3v10.9c0,7.8-6.4,14.2-14.2,14.2h-10
	c-7.9,0-14.2-6.4-14.2-14.2v-10.9C935.7,224.7,937.1,223.2,939,223.2z"/>
<path class="st1" d="M954.9,241.4c1.2,0,2.2-1,2.2-2.2c0-1.2-1-2.2-2.2-2.2s-2.2,1-2.2,2.2C952.7,240.4,953.6,241.4,954.9,241.4
	 M954.9,236c1.8,0,3.2,1.4,3.2,3.2c0,1.8-1.5,3.2-3.2,3.2c-1.8,0-3.2-1.4-3.2-3.2C951.6,237.4,953.1,236,954.9,236"/>
<path class="st2" d="M954.9,241.4c1.2,0,2.2-1,2.2-2.2c0-1.2-1-2.2-2.2-2.2s-2.2,1-2.2,2.2C952.7,240.4,953.6,241.4,954.9,241.4z
	 M954.9,236c1.8,0,3.2,1.4,3.2,3.2c0,1.8-1.5,3.2-3.2,3.2c-1.8,0-3.2-1.4-3.2-3.2C951.6,237.4,953.1,236,954.9,236z"/>
<rect x="920" y="329.4" class="st2" width="63.6" height="66.2"/>
<line class="st2" x1="920.8" y1="329.2" x2="983.4" y2="395.4"/>
<line class="st2" x1="984.1" y1="329.2" x2="921.6" y2="395.4"/>
<path class="st2" d="M1025,248.8c-1.5,0-2.8,1.2-2.8,2.8c0,1.5,1.2,2.8,2.8,2.8c1.5,0,2.8-1.2,2.8-2.8
	C1027.8,250.1,1026.6,248.8,1025,248.8z"/>
<path class="st2" d="M1036.3,388.9c11.4,0,20.7-9.3,20.7-20.7V241.9c0-11.4-9.3-20.7-20.7-20.7h-22.5c-11.4,0-20.7,9.3-20.7,20.7
	v126.4c0,11.4,9.3,20.7,20.7,20.7h22.5V388.9z"/>
<path class="st2" d="M1030.3,377.3c11.4,0,20.7-9.3,20.7-20.7v-103c0-11.4-9.3-20.7-20.7-20.7h-10.5c-11.4,0-20.7,9.3-20.7,20.7v103
	c0,11.4,9.3,20.7,20.7,20.7H1030.3z"/>
<path class="st2" d="M1034.9,363.2c5.7,0,10.3-4.6,10.3-10.3V249.7c0-5.7-4.6-10.3-10.3-10.3h-19.7c-5.7,0-10.3,4.6-10.3,10.3v103.2
	c0,5.7,4.6,10.3,10.3,10.3L1034.9,363.2L1034.9,363.2z"/>
<polygon class="st2" points="987.7,214.7 987.7,214.7 987.7,395.5 1062.3,395.5 1062.3,214.7 "/>
<path class="st1" d="M853.6,670.2v11.2h-4.7L853.6,670.2z M853.6,685.7v5.4h4.7v-5.4h2.1v-4.3h-2.1v-20.2h-5.1l-8.5,20.2v4.3H853.6z
	 M842.5,686.8h-4.7v4.3h4.7V686.8z M834.5,691v-4.3h-8.8c0-0.1,0-0.4,0-0.6c0-0.7,0.2-1.3,0.5-2s0.8-1.4,1.3-2
	c0.5-0.7,1.1-1.3,1.8-2.1c0.7-0.7,1.3-1.5,2-2.3s1.3-1.7,1.8-2.6c0.5-0.9,1-1.9,1.3-3.1c0.3-1.2,0.5-2.4,0.5-3.7
	c0-2.4-0.6-4.2-1.8-5.5s-2.9-1.9-5.2-1.9s-4,0.6-5.2,1.9c-1.2,1.3-1.8,3.1-1.8,5.5v2.9h4.5v-3.2c0-2,0.8-2.9,2.4-2.9
	c0.8,0,1.4,0.2,1.8,0.7c0.4,0.5,0.6,1.4,0.6,2.7c0,1.2-0.2,2.3-0.5,3.3s-0.8,1.9-1.3,2.7s-1.1,1.5-1.8,2.3c-0.7,0.7-1.3,1.5-2,2.2
	s-1.3,1.5-1.8,2.3c-0.6,0.8-1,1.7-1.3,2.7s-0.5,2.2-0.5,3.3v3.7L834.5,691L834.5,691z M810.6,668.2V691h4.7v-29.8h-3.2
	c-0.2,0.5-0.3,0.9-0.5,1.2c-0.1,0.3-0.3,0.6-0.6,1s-0.6,0.6-0.9,0.9c-0.3,0.2-0.8,0.4-1.3,0.5s-1.2,0.2-1.9,0.2v3.3h3.7V668.2z"/>
<path class="st1" d="M937.9,615.5l2.3,15h-4.5L937.9,615.5z M934.3,639.8l0.8-5.4h5.7l0.8,5.4h4.7l-4.7-29.8h-7.3l-4.7,29.8H934.3z
	 M919.2,614.3v25.6h4.7v-25.6h4.9V610h-14.5v4.3H919.2z M905.4,615.5l2.3,15h-4.5L905.4,615.5z M901.8,639.8l0.8-5.4h5.7l0.8,5.4
	h4.7l-4.7-29.8h-7.2l-4.7,29.8H901.8z M884.8,639.8V627h5.3v12.8h4.7V610h-4.7v12.8h-5.3V610h-4.7v29.8H884.8z M861.1,639.8v-21
	l3.5,21h4.4l3.2-21.4v21.4h4.7V610h-6.7l-3.2,21.3l-3.5-21.3H857v29.8H861.1z M844.5,617c0-2,0.8-2.9,2.4-2.9c1.6,0,2.4,1,2.4,2.9
	V633c0,2-0.8,3-2.4,3c-1.6,0-2.4-1-2.4-3V617z M841.7,638.2c1.2,1.3,3,2,5.3,2s4.1-0.7,5.3-2s1.8-3.1,1.8-5.5v-15.5
	c0-2.4-0.6-4.2-1.8-5.5s-3-2-5.3-2s-4.1,0.6-5.3,2c-1.2,1.3-1.8,3.1-1.8,5.5v15.5C839.8,635.2,840.4,637,841.7,638.2 M827.3,639.8
	v-9.2l1.5-2.7l4.6,11.9h4.8l-6.5-16.5l6.5-13.3h-4.7l-6.1,13v-13h-4.7v29.8H827.3z M803.3,617.5c0-1.1,0.2-1.9,0.6-2.3
	c0.4-0.5,1-0.7,1.8-0.7h2.2v9.2h-1.8c-0.9,0-1.6-0.2-2.1-0.7s-0.7-1.3-0.7-2.4V617.5z M802.8,639.8c0.1-0.3,0.2-0.6,0.2-0.8
	s0.1-0.5,0.1-1s0.1-1.1,0.1-1.9v-4.7c0-1.4,0.2-2.4,0.7-2.9c0.5-0.6,1.3-0.9,2.3-0.9h1.6v12.2h4.7V610h-7.1c-2.4,0-4.2,0.6-5.3,1.7
	c-1.1,1.1-1.7,2.9-1.7,5.2v2.4c0,3.1,1,5.1,3.1,6.1c-1.1,0.5-1.9,1.2-2.4,2.3s-0.7,2.4-0.7,4.1v4.6c0,1.6-0.1,2.8-0.4,3.6h4.8V639.8
	z M788.7,615.5l2.3,15h-4.5L788.7,615.5z M785,639.8l0.8-5.4h5.7l0.8,5.4h4.7l-4.7-29.8h-7.2l-4.7,29.8H785z M761.8,640
	c2.3,0,4-0.6,5.1-1.7c1.1-1.2,1.6-3.1,1.7-5.8l0.5-18h4.1V640h4.7v-29.8h-13.4l-0.5,22.6c0,0.7-0.1,1.2-0.2,1.6
	c-0.1,0.4-0.3,0.7-0.5,0.9s-0.5,0.4-0.8,0.4c-0.3,0.1-0.8,0.1-1.3,0.1v4.3h0.6V640z M749,639.8l3.9-13.7l1.9-7.3v21h4.7V610h-5.6
	l-3.8,12.3l-1.7,6.6V610h-4.2v29.8L749,639.8L749,639.8z M721.8,639.8l4.3-13.3l1.1,2.3v11h4.7v-10.9l1.2-2.3l4.3,13.2h4.7
	l-5.8-17.6L742,610h-4.6l-5.6,12.1V610h-4.7v12.1l-5.6-12.1h-4.6l5.8,12.2l-5.8,17.6H721.8z"/>
<path class="st1" d="M446.7,725.8v-4.3h-8.8c0-0.1,0-0.4,0-0.6c0-0.7,0.2-1.3,0.5-2s0.8-1.4,1.3-2c0.5-0.7,1.1-1.3,1.8-2.1
	c0.7-0.7,1.3-1.5,2-2.3s1.3-1.7,1.8-2.6c0.5-0.9,1-1.9,1.3-3.1c0.3-1.2,0.5-2.4,0.5-3.7c0-2.4-0.6-4.2-1.8-5.5
	c-1.2-1.3-2.9-1.9-5.2-1.9c-2.3,0-4,0.6-5.2,1.9c-1.2,1.3-1.8,3.1-1.8,5.5v2.9h4.5v-3.2c0-2,0.8-2.9,2.4-2.9c0.8,0,1.4,0.2,1.8,0.7
	s0.6,1.4,0.6,2.7c0,1.2-0.2,2.3-0.5,3.3s-0.8,1.9-1.3,2.7s-1.1,1.5-1.8,2.3c-0.7,0.7-1.3,1.5-2,2.2s-1.3,1.5-1.8,2.3
	c-0.6,0.8-1,1.7-1.3,2.7s-0.5,2.2-0.5,3.3v3.7L446.7,725.8L446.7,725.8z M429.9,721.5h-4.7v4.3h4.7V721.5z M414.9,703.2V726h4.7
	v-29.8h-3.2c-0.2,0.5-0.3,0.9-0.5,1.2c-0.1,0.3-0.3,0.6-0.6,1c-0.3,0.4-0.6,0.6-0.9,0.9c-0.3,0.2-0.8,0.4-1.3,0.5s-1.2,0.2-1.9,0.2
	v3.3h3.7V703.2z M398,703.2V726h4.7v-29.8h-3.2c-0.2,0.5-0.3,0.9-0.5,1.2c-0.1,0.3-0.3,0.6-0.6,1c-0.3,0.4-0.6,0.6-0.9,0.9
	c-0.3,0.2-0.8,0.4-1.3,0.5s-1.2,0.2-1.9,0.2v3.3h3.7V703.2z"/>
<path class="st1" d="M525.4,650.2l2.3,15h-4.5L525.4,650.2z M521.7,674.8l0.8-5.4h5.7l0.8,5.4h4.7L529,645h-7.2l-4.7,29.8H521.7z
	 M506.6,649.2v25.6h4.7v-25.6h4.9v-4.3h-14.5v4.3H506.6z M492.9,650.2l2.3,15h-4.5L492.9,650.2z M489.2,674.8l0.8-5.4h5.7l0.8,5.4
	h4.7l-4.7-29.8h-7.2l-4.7,29.8H489.2z M472.3,674.8V662h5.3v12.8h4.7V645h-4.7v12.8h-5.3V645h-4.7v29.8H472.3z M448.6,674.8v-21
	l3.5,21h4.4l3.2-21.4v21.4h4.7V645h-6.7l-3.2,21.3L451,645h-6.5v29.8H448.6z M432,651.8c0-2,0.8-2.9,2.4-2.9s2.4,1,2.4,2.9v16.1
	c0,2-0.8,3-2.4,3s-2.4-1-2.4-3V651.8z M429.1,673.2c1.2,1.3,3,2,5.3,2s4.1-0.7,5.3-2c1.2-1.3,1.8-3.1,1.8-5.5v-15.5
	c0-2.4-0.6-4.2-1.8-5.5c-1.2-1.3-3-2-5.3-2s-4.1,0.6-5.3,2c-1.2,1.3-1.8,3.1-1.8,5.5v15.5C427.3,670,427.9,671.8,429.1,673.2
	 M414.7,674.8v-9.2l1.5-2.7l4.6,11.9h4.8l-6.5-16.5l6.5-13.3h-4.7l-6.1,13v-13h-4.7v29.8H414.7z M390.7,652.2c0-1.1,0.2-1.9,0.6-2.3
	c0.4-0.5,1-0.7,1.8-0.7h2.2v9.2h-1.8c-0.9,0-1.6-0.2-2.1-0.7s-0.7-1.3-0.7-2.4V652.2z M390.2,674.8c0.1-0.3,0.2-0.6,0.2-0.8
	s0.1-0.5,0.1-1s0.1-1.1,0.1-1.9v-4.7c0-1.4,0.2-2.4,0.7-2.9c0.5-0.6,1.3-0.9,2.3-0.9h1.6v12.2h4.7v-29.8h-7.1
	c-2.4,0-4.2,0.6-5.3,1.7c-1.1,1.1-1.7,2.9-1.7,5.2v2.4c0,3.1,1,5.1,3.1,6.1c-1.1,0.5-1.9,1.2-2.4,2.3s-0.7,2.4-0.7,4.1v4.6
	c0,1.6-0.1,2.8-0.4,3.6h4.8V674.8z M376.1,650.2l2.3,15h-4.5L376.1,650.2z M372.5,674.8l0.8-5.4h5.7l0.8,5.4h4.7l-4.7-29.8h-7.2
	l-4.7,29.8H372.5z M349.3,674.8c2.3,0,4-0.6,5.1-1.7c1.1-1.2,1.6-3.1,1.7-5.8l0.5-18h4.1v25.6h4.7V645H352l-0.5,22.6
	c0,0.7-0.1,1.2-0.2,1.6c-0.1,0.4-0.3,0.7-0.5,0.9s-0.5,0.4-0.8,0.4c-0.3,0.1-0.8,0.1-1.3,0.1v4.3h0.6V674.8z M336.5,674.8l3.9-13.7
	l1.9-7.3v21h4.7V645h-5.6l-3.8,12.3l-1.7,6.6v-18.9h-4.2v29.8L336.5,674.8L336.5,674.8z M309.2,674.8l4.3-13.3l1.1,2.3v11h4.7v-10.9
	l1.2-2.3l4.3,13.2h4.7l-5.7-17.7l5.7-12.2h-4.6l-5.6,12.1v-12.1h-4.7v12.1l-5.6-12.1h-4.6l5.8,12.2l-5.8,17.6h4.8V674.8z"/>
<path class="st1" d="M521.5,338.2c1.3,1.3,3,1.9,5.3,1.9s4-0.6,5.2-1.9s1.8-3.1,1.8-5.5v-2.4c0-3.2-1.1-5.3-3.3-6.3
	c2.2-0.9,3.3-2.9,3.3-6.1v-0.8c0-2.4-0.6-4.2-1.8-5.5s-2.9-1.9-5.2-1.9s-4.1,0.6-5.3,1.9c-1.3,1.3-1.9,3.1-1.9,5.5v1.6h4.7v-1.9
	c0-2,0.8-2.9,2.4-2.9c0.8,0,1.4,0.3,1.8,0.7c0.4,0.5,0.6,1.4,0.6,2.7v1.7c0,1.1-0.2,1.9-0.7,2.4s-1.2,0.7-2.1,0.7h-1.8v4.3h1.6
	c1.1,0,1.9,0.3,2.3,0.9c0.5,0.6,0.7,1.6,0.7,2.9v2.4c0,1.2-0.2,2.1-0.6,2.6c-0.4,0.5-1,0.7-1.8,0.7c-1.6,0-2.4-1-2.4-3v-2.8h-4.7
	v2.5C519.7,335.1,520.3,336.9,521.5,338.2 M516.7,335.5H512v4.3h4.7V335.5z M499.5,327.6c0-2,0.8-2.9,2.4-2.9c1.6,0,2.4,1,2.4,2.9
	v5.4c0,1.9-0.8,2.9-2.4,2.9c-1.6,0-2.4-1-2.4-2.9V327.6z M496.7,338.2c1.2,1.3,3,2,5.3,2s4-0.7,5.3-2c1.2-1.3,1.8-3.1,1.8-5.5v-5.4
	c0-2.2-0.4-3.9-1.3-5.1c-0.9-1.2-2.2-1.7-3.9-1.7c-2.1,0-3.5,0.9-4.4,2.6v-5.5c0-1.4,0.2-2.3,0.6-2.9c0.4-0.5,1.1-0.8,2-0.8
	c1.6,0,2.4,1,2.4,2.9v1.1h4.4v-0.8c0-2.4-0.6-4.2-1.8-5.5s-2.9-1.9-5.2-1.9c-4.8,0-7.2,2.6-7.2,7.8v15.2
	C494.8,335.1,495.5,336.9,496.7,338.2"/>
<path class="st1" d="M565.8,263.2h2.2c0.8,0,1.4,0.2,1.7,0.6c0.4,0.4,0.6,1.1,0.6,2.2v4.5c0,1-0.2,1.8-0.6,2.2
	c-0.4,0.4-1,0.6-1.7,0.6h-2.2V263.2z M565.8,288.7v-11.2h2.2c2.3,0,4.1-0.6,5.2-1.9c1.2-1.3,1.8-3.1,1.8-5.5v-3.8
	c0-2.4-0.6-4.2-1.8-5.5s-2.9-1.9-5.2-1.9h-6.9v29.8H565.8z M548.5,265.8c0-2,0.8-2.9,2.4-2.9c1.6,0,2.4,1,2.4,2.9v16.1
	c0,2-0.8,3-2.4,3c-1.6,0-2.4-1-2.4-3V265.8z M545.7,287.1c1.2,1.3,3,2,5.3,2s4-0.7,5.3-2c1.2-1.3,1.8-3.1,1.8-5.5v-15.5
	c0-2.4-0.6-4.2-1.8-5.5s-3-2-5.3-2s-4.1,0.6-5.3,2c-1.2,1.3-1.8,3.1-1.8,5.5v15.5C543.9,284,544.5,285.8,545.7,287.1 M529.7,283
	c0.2-0.6,0.3-1.4,0.4-2.5l0.9-17.4h4v21.3h-6.1C529.2,284.1,529.5,283.6,529.7,283 M527,292.7v-4h9.9v4h4.7v-8.2h-2v-25.6h-13.3
	l-0.9,21.7c0,0.9-0.1,1.7-0.3,2.2c-0.2,0.6-0.5,1.1-0.9,1.6h-1.9v8.2L527,292.7L527,292.7z M510.1,288.7l4-13.7l1.9-7.3v21h4.7
	v-29.8h-5.6l-3.8,12.3l-1.7,6.6v-18.9h-4.3v29.8H510.1z M493.9,263.2h2.2c0.8,0,1.4,0.2,1.7,0.6c0.4,0.4,0.6,1.1,0.6,2.2v4.5
	c0,1-0.2,1.8-0.6,2.2c-0.4,0.4-0.9,0.6-1.7,0.6h-2.2V263.2z M493.9,288.7v-11.2h2.2c2.3,0,4-0.6,5.2-1.9s1.8-3.1,1.8-5.5v-3.8
	c0-2.4-0.6-4.2-1.8-5.5s-2.9-1.9-5.2-1.9h-6.9v29.8H493.9z M476.6,265.8c0-2,0.8-2.9,2.4-2.9s2.4,1,2.4,2.9v16.1c0,2-0.8,3-2.4,3
	s-2.4-1-2.4-3V265.8z M473.8,287.1c1.2,1.3,3,2,5.3,2s4.1-0.7,5.3-2c1.2-1.3,1.8-3.1,1.8-5.5v-15.5c0-2.4-0.6-4.2-1.8-5.5
	c-1.2-1.3-3-2-5.3-2s-4.1,0.6-5.3,2c-1.2,1.3-1.8,3.1-1.8,5.5v15.5C472,284,472.6,285.8,473.8,287.1 M459.4,288.7v-9.2l1.5-2.7
	l4.6,11.9h4.8l-6.5-16.5l6.5-13.3h-4.7l-6.1,13v-13h-4.7v29.8L459.4,288.7L459.4,288.7z"/>
<path class="st1" d="M862,510.6c0-1.5,0.6-2.3,1.9-2.3c1.2,0,1.9,0.8,1.9,2.3V523c0,1.5-0.6,2.3-1.9,2.3c-1.3,0-1.9-0.8-1.9-2.3
	V510.6z M859.8,527c0.9,1,2.3,1.5,4.1,1.5s3.1-0.5,4.1-1.5c0.9-1,1.4-2.4,1.4-4.3v-11.9c0-1.8-0.5-3.2-1.4-4.3
	c-0.9-1-2.3-1.5-4.1-1.5s-3.1,0.5-4.1,1.5c-0.9,1-1.4,2.4-1.4,4.3v11.9C858.4,524.5,858.9,526,859.8,527 M856.2,525h-3.6v3.3h3.6
	V525z M845.8,512.2v8.6h-3.6L845.8,512.2z M845.8,524v4.2h3.6V524h1.6v-3.3h-1.6v-15.5h-3.9l-6.5,15.5v3.3H845.8z"/>
<path class="st1" d="M916.7,470.2l1.7,11.5h-3.5L916.7,470.2z M913.9,489l0.6-4.2h4.4l0.6,4.2h3.6l-3.6-22.9h-5.6l-3.6,22.9H913.9z
	 M908.7,489v-22.9h-3.6v19.6H902v-19.6h-3.7v19.6h-3.1v-19.6h-3.6V489H908.7z M881.4,489l3-10.5l1.5-5.6V489h3.6v-22.9h-4.3
	l-2.9,9.5l-1.3,5.1v-14.5h-3.2v22.9h3.6V489z M867.3,489v-9.8h4.1v9.8h3.6v-22.9h-3.6v9.8h-4.1v-9.8h-3.6V489H867.3z M861.2,475.9
	h-6.5v3.3h6.5V475.9z M845.1,471.7c0-0.8,0.1-1.4,0.4-1.8c0.3-0.4,0.8-0.6,1.4-0.6h1.7v7.1h-1.4c-0.7,0-1.3-0.2-1.6-0.6
	c-0.4-0.4-0.5-1-0.5-1.9L845.1,471.7L845.1,471.7z M844.7,489c0.1-0.3,0.1-0.5,0.2-0.6c0-0.1,0.1-0.4,0.1-0.8s0.1-0.9,0.1-1.4v-3.6
	c0-1.1,0.2-1.8,0.6-2.3c0.4-0.4,1-0.7,1.8-0.7h1.2v9.3h3.6V466h-5.4c-1.8,0-3.2,0.4-4,1.3c-0.9,0.9-1.3,2.2-1.3,4v1.8
	c0,2.4,0.8,3.9,2.4,4.6c-0.9,0.4-1.5,0.9-1.8,1.8c-0.4,0.8-0.5,1.8-0.5,3.1v3.5c0,1.2-0.1,2.2-0.3,2.8h3.3V489z M831.3,489v-9.8h4.1
	v9.8h3.6v-22.9h-3.6v9.8h-4.1v-9.8h-3.6V489H831.3z M816.5,489l2.8-8.5l2.8,8.5h3.6l-4-11.7l3.8-11.2h-3.2l-2.8,8.5l-2.7-8.5h-3.6
	l3.8,11.1l-4,11.8L816.5,489L816.5,489z M804.3,483.7v0.2c-0.1,0.8-0.5,1.3-1,1.6c-0.5,0.3-1.2,0.4-2.2,0.3v3.3c1,0.1,1.8,0,2.5-0.1
	s1.3-0.3,1.8-0.6c0.5-0.3,0.9-0.7,1.3-1.2c0.4-0.5,0.6-1.1,0.9-1.7c0.2-0.6,0.4-1.4,0.6-2.2l3.8-17.1h-3.6l-1.6,7.9l-0.8,5.3
	l-1.1-5.4l-1.9-7.8h-3.7L804.3,483.7z M790.4,489v-7l1.1-2.1l3.5,9.1h3.7l-5-12.7l5-10.2h-3.6l-4.7,10v-10h-3.6V489L790.4,489
	L790.4,489z"/>
<path class="st1" d="M929.1,308c1.3,1.3,3,1.9,5.3,1.9s4-0.6,5.2-1.9s1.8-3.1,1.8-5.5v-2.4c0-3.2-1.1-5.3-3.3-6.3
	c2.2-0.9,3.3-2.9,3.3-6.1v-0.8c0-2.4-0.6-4.2-1.8-5.5s-2.9-1.9-5.2-1.9s-4.1,0.6-5.3,1.9c-1.3,1.3-1.9,3.1-1.9,5.5v1.6h4.7v-1.9
	c0-2,0.8-2.9,2.4-2.9c0.8,0,1.4,0.2,1.8,0.7c0.4,0.5,0.6,1.4,0.6,2.7v1.7c0,1.1-0.2,1.9-0.7,2.4s-1.2,0.7-2.1,0.7h-1.8v4.3h1.6
	c1.1,0,1.9,0.3,2.3,0.9c0.5,0.6,0.7,1.6,0.7,2.9v2.4c0,1.2-0.2,2.1-0.6,2.6c-0.4,0.5-1,0.7-1.8,0.7c-1.6,0-2.4-1-2.4-3v-2.8h-4.7
	v2.5C927.2,304.8,927.8,306.7,929.1,308 M924.2,305.3h-4.7v4.3h4.7V305.3z M910.6,288.7v11.2h-4.7L910.6,288.7z M910.6,304.2v5.4
	h4.7v-5.4h2.1v-4.3h-2.1v-20.2h-5.1l-8.5,20.2v4.3H910.6z"/>
<path class="st1" d="M452,572c0-2.9,0.5-4.9,1.6-6c1.1-1.2,2.6-1.8,4.5-1.8s3.4,0.6,4.4,1.7c1.1,1.2,1.6,3.2,1.6,6.1v3.8
	c0,4.8-2,7.2-6,7.2s-6.1-2.4-6.1-7.2V572z M452,600.3c0-5.1,2-7.7,6.1-7.7c4,0,6,2.6,6,7.7v6.3c0,2.9-0.6,4.9-1.6,6
	c-1.1,1.1-2.5,1.7-4.4,1.7s-3.4-0.6-4.5-1.7c-1.1-1.2-1.6-3.1-1.6-6V600.3z M445.6,619.7c2.9,3,7,4.5,12.4,4.5s9.5-1.5,12.4-4.5
	s4.3-7.2,4.3-12.7v-5.4c0-7-2.2-11.7-6.6-14.2c4.4-2.5,6.6-7,6.6-13.7v-2.2c0-5.5-1.4-9.7-4.3-12.6c-2.9-3-7-4.5-12.4-4.5
	s-9.5,1.5-12.4,4.5s-4.3,7.2-4.3,12.6v2.2c0,6.7,2.2,11.3,6.6,13.7c-4.4,2.5-6.6,7.2-6.6,14.2v5.4
	C441.3,612.5,442.7,616.7,445.6,619.7 M435.3,613.5h-10.7v9.8h10.7V613.5z M395.6,570.8c0-4.4,1.8-6.6,5.5-6.6s5.6,2.2,5.6,6.6v12.3
	c0,4.5-1.9,6.7-5.6,6.7s-5.5-2.2-5.5-6.7V570.8z M387.9,595.5c2,2.7,4.9,4,8.9,4c4.7,0,8.1-2,10-6V606c0,3.1-0.5,5.3-1.5,6.5
	c-1,1.3-2.5,1.9-4.5,1.9c-3.7,0-5.6-2.2-5.6-6.8v-2.4h-10.1v1.8c0,5.5,1.4,9.7,4.1,12.7s6.7,4.4,11.9,4.4c10.9,0,16.4-5.9,16.4-17.7
	v-34.9c0-5.5-1.4-9.7-4.2-12.6c-2.8-3-6.8-4.5-12.1-4.5c-5.2,0-9.3,1.5-12.1,4.5c-2.8,3-4.2,7.2-4.2,12.6V584
	C384.9,589,385.9,592.8,387.9,595.5 M351.2,619.7c2.9,3,6.9,4.4,12.2,4.4c5.2,0,9.2-1.5,11.9-4.4c2.7-3,4.1-7.2,4.1-12.7v-5.4
	c0-7.4-2.5-12.2-7.5-14.3c5-2.1,7.5-6.7,7.5-14v-1.8c0-5.5-1.4-9.7-4.1-12.7s-6.7-4.4-11.9-4.4c-5.2,0-9.3,1.5-12.2,4.4
	c-2.9,3-4.3,7.2-4.3,12.7v3.7h10.7v-4.4c0-4.5,1.8-6.7,5.5-6.7c1.8,0,3.2,0.6,4.1,1.7c0.9,1.1,1.4,3.2,1.4,6.1v3.8
	c0,2.6-0.5,4.4-1.6,5.5s-2.7,1.6-4.8,1.6H358v9.7h3.6c2.5,0,4.3,0.7,5.4,2s1.6,3.6,1.6,6.7v5.4c0,2.9-0.5,4.9-1.4,6
	s-2.3,1.7-4.1,1.7c-3.7,0-5.5-2.2-5.5-6.8v-6.2h-10.7v5.7C346.9,612.5,348.3,616.7,351.2,619.7"/>
<ellipse class="st6" cx="410.5" cy="475.5" rx="59.7" ry="59.7"/>
<path class="st1" d="M417.1,502.3c2.1,2.2,5.1,3.4,9,3.4c4,0,7.1-1.1,9.2-3.4c2.2-2.2,3.3-5.4,3.3-9.6v-6.9h-8.1v7.4
	c0,3.4-1.4,5-4.2,5c-2.8,0-4.2-1.7-4.2-5v-27.9c0-3.4,1.4-5.1,4.2-5.1c2.8,0,4.2,1.7,4.2,5.1v5.5h8.1v-5c0-4.2-1.1-7.4-3.3-9.6
	c-2.2-2.2-5.3-3.4-9.2-3.4c-4,0-7,1.1-9,3.4c-2.1,2.2-3.1,5.4-3.1,9.6v26.9C414,496.8,415,500,417.1,502.3 M408.9,505.1v-7.4h-15.3
	c0-0.2-0.1-0.6-0.1-1.1c0-1.1,0.3-2.3,0.9-3.5s1.4-2.4,2.3-3.5s2-2.3,3.1-3.5s2.3-2.6,3.4-4s2.2-2.9,3.1-4.5s1.7-3.4,2.3-5.4
	c0.6-2,0.9-4.1,0.9-6.4c0-4.2-1-7.4-3.1-9.6s-5-3.4-9-3.4c-3.9,0-6.9,1.1-9,3.4c-2.1,2.2-3.1,5.4-3.1,9.6v5h7.7v-5.5
	c0-3.4,1.4-5.1,4.2-5.1c1.4,0,2.4,0.4,3.1,1.3s1,2.4,1,4.6c0,2-0.3,3.9-0.9,5.7c-0.6,1.8-1.4,3.3-2.3,4.7c-0.9,1.3-2,2.6-3.1,3.9
	s-2.3,2.5-3.4,3.8s-2.2,2.6-3.1,4c-1,1.4-1.7,2.9-2.3,4.8c-0.6,1.8-0.9,3.7-0.9,5.8v6.3L408.9,505.1L408.9,505.1z"/>
<path class="st1" d="M546.6,897.5c2.4,0,4-0.5,5.1-1.5c1-1,1.5-2.7,1.5-5v-16.8c0-2.4-0.5-4.1-1.5-5c-1-1-2.7-1.5-5.1-1.5h-1.4v4.1
	h1.1c0.8,0,1.3,0.2,1.7,0.6c0.3,0.4,0.5,1.1,0.5,2.1v16.5c0,1-0.2,1.7-0.5,2.1c-0.3,0.4-0.9,0.6-1.7,0.6h-1.1v4.1h1.4V897.5z
	 M533.8,885.2c0-2,0.8-2.9,2.4-2.9c1.6,0,2.4,1,2.4,2.9v5.4c0,1.9-0.8,2.9-2.4,2.9c-1.6,0-2.4-1-2.4-2.9V885.2z M530.9,895.8
	c1.2,1.3,3,2,5.3,2s4-0.6,5.3-2c1.2-1.3,1.8-3.1,1.8-5.5v-5.5c0-2.2-0.4-3.9-1.3-5.1c-0.9-1.2-2.2-1.7-3.9-1.7
	c-2.1,0-3.5,0.9-4.4,2.6v-5.4c0-1.4,0.2-2.3,0.6-2.9c0.4-0.5,1.1-0.8,2-0.8c1.6,0,2.4,1,2.4,2.9v1.1h4.4v-0.8c0-2.4-0.6-4.2-1.8-5.5
	s-2.9-1.9-5.2-1.9c-4.8,0-7.2,2.6-7.2,7.8v15.2C529.1,892.7,529.7,894.5,530.9,895.8 M526.1,893h-4.7v4.3h4.7V893z M511.1,874.7
	v22.8h4.7v-29.8h-3.2c-0.2,0.5-0.3,0.9-0.5,1.2c-0.1,0.3-0.3,0.6-0.6,1s-0.6,0.7-0.9,0.9c-0.3,0.2-0.8,0.4-1.3,0.5s-1.2,0.2-1.9,0.2
	v3.3h3.7V874.7z M495.7,896c1,1,2.7,1.5,5.1,1.5h1.4v-4.1h-1.1c-0.8,0-1.3-0.2-1.7-0.6c-0.3-0.4-0.5-1.1-0.5-2.1v-16.4
	c0-1,0.2-1.7,0.5-2.1c0.3-0.4,0.9-0.6,1.7-0.6h1.1v-4.1h-1.4c-2.4,0-4,0.5-5.1,1.5c-1,1-1.5,2.7-1.5,5v16.8
	C494.2,893.2,494.7,895,495.7,896 M476.9,874.7v22.8h4.7v-29.8h-3.2c-0.2,0.5-0.3,0.9-0.5,1.2c-0.1,0.3-0.3,0.6-0.6,1
	c-0.3,0.4-0.6,0.7-0.9,0.9s-0.8,0.4-1.3,0.5s-1.2,0.2-1.9,0.2v3.3h3.7V874.7z M467.2,893h-4.7v4.3h4.7V893z M447.3,895.8
	c1.3,1.3,3,1.9,5.3,1.9s4-0.6,5.2-1.9c1.2-1.3,1.8-3.1,1.8-5.5v-2.4c0-3.2-1.1-5.3-3.3-6.3c2.2-0.9,3.3-2.9,3.3-6.1v-0.8
	c0-2.4-0.6-4.2-1.8-5.5c-1.2-1.3-2.9-1.9-5.2-1.9s-4.1,0.6-5.3,1.9c-1.3,1.3-1.9,3.1-1.9,5.5v1.6h4.7v-1.9c0-2,0.8-2.9,2.4-2.9
	c0.8,0,1.4,0.2,1.8,0.7s0.6,1.4,0.6,2.7v1.7c0,1.1-0.2,1.9-0.7,2.4s-1.2,0.7-2.1,0.7h-1.8v4.3h1.6c1.1,0,1.9,0.3,2.3,0.9
	c0.5,0.6,0.7,1.6,0.7,2.9v2.4c0,1.2-0.2,2.1-0.6,2.6s-1,0.7-1.8,0.7c-1.6,0-2.4-1-2.4-3v-2.8h-4.7v2.5
	C445.4,892.7,446,894.5,447.3,895.8"/>
</svg>
