<?xml version="1.0" encoding="utf-8"?>
<!-- Generator: Adobe Illustrator 26.5.0, SVG Export Plug-In . SVG Version: 6.00 Build 0)  -->
<svg version="1.1" id="Слой_1" xmlns="http://www.w3.org/2000/svg" xmlns:xlink="http://www.w3.org/1999/xlink" x="0px" y="0px"
	 viewBox="0 0 1000 1000" style="enable-background:new 0 0 1000 1000;" xml:space="preserve">
<style type="text/css">
	.st0{fill:#D8E6AD;}
	.st1{fill:none;stroke:#373437;}
	.st2{fill:#373437;}
	.st3{fill:#FFFFFF;}
	.st4{fill:none;stroke:#373437;stroke-dasharray:2.044,2.044;}
	.st5{fill:none;stroke:#373437;stroke-dasharray:1.99,1.99;}
</style>
<rect x="810.1" y="381.2" class="st0" width="17.7" height="64.3"/>
<rect x="185.1" y="442.5" class="st0" width="648.5" height="205.4"/>
<rect x="537.9" y="481.9" class="st0" width="286.6" height="206.7"/>
<rect x="617.5" y="579.5" class="st0" width="214" height="206.7"/>
<rect x="709.1" y="629" class="st0" width="124.8" height="205.5"/>
<rect x="126.6" y="247.8" class="st0" width="690.4" height="196.9"/>
<path class="st1" d="M829.9,430.3l-22.1-38.9c0,0,3.1-2,9.9-3.8c6.7-1.7,11.4-1.7,11.4-1.7"/>
<rect x="743.8" y="589.4" class="st2" width="54.1" height="31.5"/>
<rect x="743.8" y="589.4" class="st1" width="54.1" height="31.5"/>
<rect x="793.8" y="589.4" class="st2" width="31.3" height="8"/>
<rect x="793.8" y="589.4" class="st1" width="31.3" height="8"/>
<rect x="665.8" y="613" class="st2" width="112.6" height="8"/>
<rect x="665.8" y="613" class="st1" width="112.6" height="8"/>
<path class="st1" d="M182.8,625.2l24.6-43.2c0,0-3.5-2.3-11-4.2c-7.5-1.9-12.7-1.9-12.7-1.9"/>
<rect x="182.3" y="620" class="st3" width="3.7" height="9.5"/>
<rect x="182.3" y="620" class="st1" width="3.7" height="9.5"/>
<rect x="182.3" y="650" class="st3" width="3.7" height="3.7"/>
<rect x="520.4" y="645.4" class="st2" width="19.9" height="58.6"/>
<rect x="532.9" y="511.3" class="st2" width="7.5" height="156"/>
<rect x="532.9" y="511.3" class="st1" width="7.5" height="156"/>
<rect x="833.5" y="213.3" class="st2" width="12.8" height="102.9"/>
<rect x="833.5" y="213.3" class="st1" width="12.8" height="102.9"/>
<rect x="833.5" y="429.9" class="st2" width="12.8" height="414.2"/>
<rect x="820.6" y="433.8" class="st2" width="22.9" height="410.3"/>
<rect x="820.6" y="433.8" class="st1" width="22.9" height="324.7"/>
<rect x="833.5" y="283.7" class="st1" width="12.8" height="102.2"/>
<rect x="817.6" y="213.3" class="st2" width="28.8" height="98.8"/>
<rect x="817.6" y="213.3" class="st1" width="28.8" height="98.8"/>
<rect x="840.5" y="213.3" class="st2" width="91.5" height="8.1"/>
<rect x="840.5" y="213.3" class="st1" width="91.5" height="8.1"/>
<rect x="923.9" y="213.3" class="st2" width="8.1" height="46.5"/>
<rect x="923.9" y="213.3" class="st1" width="8.1" height="46.5"/>
<rect x="923.9" y="258.7" class="st1" width="8.1" height="202.3"/>
<rect x="90" y="213.3" class="st2" width="729.4" height="35"/>
<rect x="90" y="213.3" class="st1" width="729.4" height="35"/>
<rect x="817.6" y="283.7" class="st1" width="15.9" height="97.3"/>
<rect x="828.7" y="312.2" class="st1" width="4.9" height="68.9"/>
<rect x="828.7" y="376.9" class="st1" width="4.9" height="4.2"/>
<rect x="828.7" y="381.8" class="st1" width="4.9" height="4.2"/>
<rect x="828.7" y="429.9" class="st1" width="4.9" height="4.2"/>
<rect x="828.7" y="312.2" class="st1" width="4.9" height="4.2"/>
<rect x="844.6" y="455" class="st2" width="87" height="24.2"/>
<rect x="776.6" y="833.9" class="st2" width="69.4" height="15.5"/>
<rect x="776.6" y="833.9" class="st1" width="69.4" height="15.5"/>
<rect x="373.5" y="246.1" class="st2" width="16.1" height="66.1"/>
<rect x="373.5" y="246.1" class="st1" width="16.1" height="66.1"/>
<rect x="565.8" y="245.6" class="st2" width="7.5" height="206.5"/>
<rect x="565.8" y="245.6" class="st1" width="7.5" height="206.5"/>
<rect x="90.3" y="444.7" class="st2" width="405.5" height="7.5"/>
<rect x="90.3" y="444.7" class="st1" width="405.5" height="7.5"/>
<rect x="495" y="245.6" class="st2" width="7.5" height="81.1"/>
<rect x="495" y="245.6" class="st1" width="7.5" height="81.1"/>
<rect x="321.8" y="437.1" class="st2" width="60.4" height="10.8"/>
<rect x="321.8" y="437.1" class="st1" width="60.4" height="10.8"/>
<path class="st1" d="M493.6,444.6L465,494.4c0,0,4.1,2.6,12.8,4.8c8.7,2.2,14.8,2.2,14.8,2.2"/>
<path class="st1" d="M573,444.6l28.7,49.8c0,0-4.1,2.6-12.8,4.8c-8.7,2.2-14.8,2.2-14.8,2.2"/>
<path class="st1" d="M713.9,843.6l55.1,31.9c0,0,2.9-4.5,5.3-14.3c2.5-9.7,2.5-16.5,2.5-16.5"/>
<path class="st1" d="M634.3,694l39.9-22.9c0,0,2.1,3.3,3.9,10.2c1.8,7,1.8,11.8,1.8,11.8"/>
<rect x="90.3" y="408" class="st2" width="13.8" height="42.9"/>
<rect x="90.3" y="408" class="st1" width="13.8" height="42.9"/>
<rect x="90.3" y="313" class="st1" width="13.8" height="98.2"/>
<rect x="100" y="411.8" class="st2" width="26.1" height="33.8"/>
<rect x="100" y="411.8" class="st1" width="26.1" height="33.8"/>
<rect x="90.3" y="436.7" class="st2" width="106.4" height="28.3"/>
<rect x="90.3" y="436.7" class="st1" width="106.4" height="28.3"/>
<rect x="178.5" y="440.5" class="st2" width="18.3" height="28.3"/>
<rect x="178.5" y="440.5" class="st1" width="18.3" height="28.3"/>
<rect x="178.5" y="621.7" class="st2" width="18.3" height="30.2"/>
<rect x="178.5" y="621.7" class="st1" width="18.3" height="30.2"/>
<rect x="167.9" y="444" class="st2" width="13.2" height="28.3"/>
<rect x="167.9" y="444" class="st1" width="13.2" height="28.3"/>
<rect x="182.3" y="468.8" class="st1" width="3.7" height="107.1"/>
<rect x="182.3" y="460.1" class="st1" width="3.7" height="12.2"/>
<rect x="182.3" y="516.3" class="st1" width="3.7" height="9.5"/>
<rect x="182.3" y="566.4" class="st3" width="3.7" height="9.5"/>
<rect x="182.3" y="566.4" class="st1" width="3.7" height="9.5"/>
<rect x="167.9" y="620" class="st2" width="13.2" height="33.6"/>
<rect x="167.9" y="620" class="st1" width="13.2" height="33.6"/>
<rect x="90.3" y="651.3" class="st2" width="87.7" height="10.2"/>
<rect x="90.3" y="651.3" class="st1" width="87.7" height="7.6"/>
<rect x="168.4" y="645.4" class="st2" width="364.1" height="15.8"/>
<rect x="168.4" y="645.4" class="st1" width="364.1" height="15.8"/>
<rect x="539.6" y="687.7" class="st2" width="86.4" height="16.3"/>
<rect x="539.6" y="687.7" class="st1" width="86.4" height="16.3"/>
<rect x="558.3" y="687.7" class="st2" width="86.4" height="7.6"/>
<rect x="558.3" y="687.7" class="st1" width="86.4" height="7.6"/>
<rect x="679.2" y="687.7" class="st2" width="32.1" height="7.6"/>
<rect x="679.2" y="687.7" class="st1" width="32.1" height="7.6"/>
<rect x="703.7" y="687.4" class="st2" width="9.2" height="161.6"/>
<rect x="610" y="695" class="st2" width="16" height="102.1"/>
<rect x="610" y="695" class="st1" width="16" height="83.8"/>
<rect x="609.7" y="782.4" class="st2" width="96.5" height="14.7"/>
<rect x="610" y="774.7" class="st2" width="46.6" height="22.4"/>
<rect x="617" y="781.2" class="st1" width="9.1" height="9.5"/>
<rect x="90.3" y="463.4" class="st1" width="8" height="193.5"/>
<rect x="105" y="244" class="st2" width="21.6" height="67.9"/>
<rect x="105" y="244" class="st1" width="21.6" height="67.9"/>
<rect x="90" y="244" class="st2" width="14.5" height="72.1"/>
<rect x="90" y="244" class="st1" width="14.5" height="72.1"/>
<rect x="90.3" y="313" class="st1" width="36.3" height="123.9"/>
<rect x="90.3" y="313" class="st1" width="19" height="101.7"/>
<rect x="104.3" y="313" class="st1" width="5" height="3.1"/>
<rect x="104.3" y="408.1" class="st1" width="5" height="3.1"/>
<rect x="703.7" y="833.9" class="st2" width="18.2" height="15.5"/>
<rect x="708.1" y="833.9" class="st1" width="13.8" height="15.5"/>
<rect x="487" y="511.3" class="st2" width="92.1" height="8.4"/>
<rect x="487" y="511.3" class="st1" width="92.1" height="8.4"/>
<rect x="487" y="501.5" class="st2" width="8.5" height="14.6"/>
<rect x="487" y="501.5" class="st1" width="8.5" height="14.6"/>
<rect x="570.6" y="501.5" class="st2" width="8.5" height="14.6"/>
<rect x="570.6" y="501.5" class="st1" width="8.5" height="14.6"/>
<rect x="572.9" y="437.2" class="st2" width="52.5" height="15"/>
<rect x="572.9" y="437.2" class="st1" width="52.5" height="15"/>
<rect x="558" y="245.7" class="st2" width="12.4" height="66.6"/>
<rect x="558" y="245.7" class="st1" width="12.4" height="66.6"/>
<line class="st1" x1="182" y1="521" x2="186.2" y2="521"/>
<line class="st1" x1="182" y1="571.6" x2="186.2" y2="571.6"/>
<rect x="781.4" y="596.7" class="st3" width="9.3" height="17.2"/>
<rect x="781.4" y="596.7" class="st1" width="9.3" height="17.2"/>
<rect x="751.4" y="596.7" class="st3" width="21.6" height="17.2"/>
<rect x="751.4" y="596.7" class="st1" width="21.6" height="17.2"/>
<line class="st1" x1="793.7" y1="621" x2="823.5" y2="621"/>
<line class="st4" x1="665.8" y1="605.4" x2="665.8" y2="457.5"/>
<line class="st5" x1="672.7" y1="452.8" x2="816.7" y2="452.8"/>
<path class="st1" d="M819,452.8h2.3 M665.8,455.1v-2.3h2.3 M665.8,612.4v-2.3"/>
<rect x="689" y="695" class="st2" width="14.5" height="7.3"/>
<rect x="689" y="695" class="st1" width="14.5" height="7.3"/>
<rect x="448.5" y="336" class="st1" width="35" height="35"/>
<line class="st1" x1="448.4" y1="336.5" x2="483.3" y2="370.9"/>
<line class="st1" x1="448.4" y1="371.3" x2="483.3" y2="336.9"/>
<path class="st2" d="M819,563.8h-35.1v-34.7H819V563.8z M819.8,528.4h-36.6v36.2h36.6V528.4z"/>
<path class="st1" d="M819,563.8h-35.1v-34.7H819V563.8z M819.8,528.4h-36.6v36.2h36.6V528.4z"/>
<path class="st2" d="M787.1,534.3c0-0.9,0.7-1.6,1.6-1.6h18.5c0.9,0,1.6,0.7,1.6,1.6v24.3c0,0.9-0.7,1.6-1.6,1.6h-18.5
	c-0.9,0-1.6-0.7-1.6-1.6V534.3z M809.5,558.6v-24.3c0-1.3-1.1-2.3-2.3-2.3h-18.5c-1.3,0-2.3,1-2.3,2.3v24.3c0,1.3,1.1,2.3,2.3,2.3
	h18.5C808.4,560.9,809.5,559.9,809.5,558.6"/>
<path class="st1" d="M787.1,534.3c0-0.9,0.7-1.6,1.6-1.6h18.5c0.9,0,1.6,0.7,1.6,1.6v24.3c0,0.9-0.7,1.6-1.6,1.6h-18.5
	c-0.9,0-1.6-0.7-1.6-1.6V534.3z M809.5,558.6v-24.3c0-1.3-1.1-2.3-2.3-2.3h-18.5c-1.3,0-2.3,1-2.3,2.3v24.3c0,1.3,1.1,2.3,2.3,2.3
	h18.5C808.4,560.9,809.5,559.9,809.5,558.6z"/>
<path class="st2" d="M806,557.5h-16.1v-22H806V557.5z M806.7,534.7H789v23.6h17.7V534.7z"/>
<path class="st1" d="M806,557.5h-16.1v-22H806V557.5z M806.7,534.7H789v23.6h17.7V534.7z"/>
<path class="st2" d="M794.8,546.5c0-1.1,0.9-2,2.1-2c1.1,0,2,0.9,2,2c0,1.1-0.9,2-2,2C795.7,548.5,794.8,547.6,794.8,546.5
	 M799.6,546.5c0-1.5-1.3-2.8-2.8-2.8c-1.6,0-2.8,1.3-2.8,2.8s1.3,2.8,2.8,2.8C798.4,549.3,799.6,548,799.6,546.5"/>
<path class="st1" d="M794.8,546.5c0-1.1,0.9-2,2.1-2c1.1,0,2,0.9,2,2c0,1.1-0.9,2-2,2C795.7,548.5,794.8,547.6,794.8,546.5z
	 M799.6,546.5c0-1.5-1.3-2.8-2.8-2.8c-1.6,0-2.8,1.3-2.8,2.8s1.3,2.8,2.8,2.8C798.4,549.3,799.6,548,799.6,546.5z"/>
<path class="st2" d="M531.2,298.7c5.9,0,10.7-4.8,10.7-10.7v-15.4c0-1-0.8-1.8-1.8-1.8h-17.6c-1,0-1.8,0.8-1.8,1.8v15.4
	C520.5,293.9,525.3,298.7,531.2,298.7 M522.4,270.1H540c1.4,0,2.6,1.2,2.6,2.6v15.4c0,6.3-5.1,11.4-11.4,11.4
	c-6.3,0-11.4-5.1-11.4-11.4v-15.4C519.8,271.2,521,270.1,522.4,270.1"/>
<path class="st1" d="M531.2,298.7c5.9,0,10.7-4.8,10.7-10.7v-15.4c0-1-0.8-1.8-1.8-1.8h-17.6c-1,0-1.8,0.8-1.8,1.8v15.4
	C520.5,293.9,525.3,298.7,531.2,298.7z M522.4,270.1H540c1.4,0,2.6,1.2,2.6,2.6v15.4c0,6.3-5.1,11.4-11.4,11.4
	c-6.3,0-11.4-5.1-11.4-11.4v-15.4C519.8,271.2,521,270.1,522.4,270.1z"/>
<path class="st2" d="M538.6,276.3h-14.9v11.4c0,4.1,3.3,7.5,7.5,7.5c4.1,0,7.5-3.3,7.5-7.5V276.3z M523.5,275.6h15.3
	c0.3,0,0.5,0.3,0.5,0.5v11.6c0,4.5-3.7,8.2-8.2,8.2c-4.5,0-8.2-3.7-8.2-8.2v-11.6C523,275.8,523.2,275.6,523.5,275.6"/>
<path class="st1" d="M538.6,276.3h-14.9v11.4c0,4.1,3.3,7.5,7.5,7.5c4.1,0,7.5-3.3,7.5-7.5V276.3z M523.5,275.6h15.3
	c0.3,0,0.5,0.3,0.5,0.5v11.6c0,4.5-3.7,8.2-8.2,8.2c-4.5,0-8.2-3.7-8.2-8.2v-11.6C523,275.8,523.2,275.6,523.5,275.6z"/>
<path class="st2" d="M531.2,287.8c1.1,0,2-0.9,2-2c0-1.1-0.9-2-2-2c-1.1,0-2,0.9-2,2C529.2,286.9,530.1,287.8,531.2,287.8
	 M531.2,283c1.5,0,2.7,1.2,2.7,2.7c0,1.5-1.2,2.7-2.7,2.7c-1.5,0-2.7-1.2-2.7-2.7C528.4,284.2,529.7,283,531.2,283"/>
<path class="st1" d="M531.2,287.8c1.1,0,2-0.9,2-2c0-1.1-0.9-2-2-2c-1.1,0-2,0.9-2,2C529.2,286.9,530.1,287.8,531.2,287.8z
	 M531.2,283c1.5,0,2.7,1.2,2.7,2.7c0,1.5-1.2,2.7-2.7,2.7c-1.5,0-2.7-1.2-2.7-2.7C528.4,284.2,529.7,283,531.2,283z"/>
<rect x="532.5" y="279.7" transform="matrix(0.5975 -0.8019 0.8019 0.5975 -9.0185 542.1982)" class="st2" width="6.1" height="0.7"/>
<rect x="532.5" y="279.7" transform="matrix(0.5975 -0.8019 0.8019 0.5975 -9.0185 542.1982)" class="st1" width="6.1" height="0.7"/>
<polygon class="st2" points="525.4,277.4 529,282.3 528.4,282.7 524.8,277.9 "/>
<polygon class="st1" points="525.4,277.4 529,282.3 528.4,282.7 524.8,277.9 "/>
<path class="st2" d="M538.5,270c1.6,0,3-1.3,3-3v-4c0-1.6-1.3-3-3-3h-14.7c-1.6,0-3,1.3-3,3v4c0,1.6,1.3,3,3,3H538.5z M523.8,259.4
	h14.7c2,0,3.7,1.7,3.7,3.7v4c0,2-1.7,3.7-3.7,3.7h-14.7c-2,0-3.7-1.7-3.7-3.7v-4C520.1,261,521.8,259.4,523.8,259.4"/>
<path class="st1" d="M538.5,270c1.6,0,3-1.3,3-3v-4c0-1.6-1.3-3-3-3h-14.7c-1.6,0-3,1.3-3,3v4c0,1.6,1.3,3,3,3H538.5z M523.8,259.4
	h14.7c2,0,3.7,1.7,3.7,3.7v4c0,2-1.7,3.7-3.7,3.7h-14.7c-2,0-3.7-1.7-3.7-3.7v-4C520.1,261,521.8,259.4,523.8,259.4z"/>
<path class="st2" d="M531.2,266.2c0.6,0,1.1-0.5,1.1-1.1c0-0.6-0.5-1.1-1.1-1.1c-0.6,0-1.1,0.5-1.1,1.1
	C530,265.7,530.6,266.2,531.2,266.2 M531.2,263.2c1,0,1.9,0.8,1.9,1.9c0,1-0.8,1.9-1.9,1.9c-1,0-1.9-0.8-1.9-1.9
	C529.3,264,530.2,263.2,531.2,263.2"/>
<path class="st1" d="M531.2,266.2c0.6,0,1.1-0.5,1.1-1.1c0-0.6-0.5-1.1-1.1-1.1c-0.6,0-1.1,0.5-1.1,1.1
	C530,265.7,530.6,266.2,531.2,266.2z M531.2,263.2c1,0,1.9,0.8,1.9,1.9c0,1-0.8,1.9-1.9,1.9c-1,0-1.9-0.8-1.9-1.9
	C529.3,264,530.2,263.2,531.2,263.2z"/>
<path class="st2" d="M471.1,303c0-5.6,4.6-10.2,10.2-10.2H492c0.8,0,1.5,0.7,1.5,1.5v23c0,0.8-0.7,1.5-1.5,1.5h-10.8
	c-5.6,0-10.2-4.6-10.2-10.2V303z M494.1,317.3v-23c0-1.2-0.9-2.1-2.1-2.1h-10.8c-5.9,0-10.7,4.8-10.7,10.7v5.7
	c0,5.9,4.8,10.7,10.7,10.7H492C493.2,319.4,494.1,318.5,494.1,317.3"/>
<path class="st1" d="M471.1,303c0-5.6,4.6-10.2,10.2-10.2H492c0.8,0,1.5,0.7,1.5,1.5v23c0,0.8-0.7,1.5-1.5,1.5h-10.8
	c-5.6,0-10.2-4.6-10.2-10.2V303z M494.1,317.3v-23c0-1.2-0.9-2.1-2.1-2.1h-10.8c-5.9,0-10.7,4.8-10.7,10.7v5.7
	c0,5.9,4.8,10.7,10.7,10.7H492C493.2,319.4,494.1,318.5,494.1,317.3z"/>
<path class="st2" d="M473.6,303c0-4.2,3.4-7.6,7.6-7.6h6.3c0.7,0,1.3,0.6,1.3,1.3V315c0,0.7-0.6,1.3-1.3,1.3h-6.3
	c-4.2,0-7.6-3.4-7.6-7.6V303z M489.4,315v-18.3c0-1-0.9-1.9-1.9-1.9h-6.3c-4.5,0-8.2,3.7-8.2,8.2v5.7c0,4.5,3.7,8.2,8.2,8.2h6.3
	C488.6,316.9,489.4,316,489.4,315"/>
<path class="st1" d="M473.6,303c0-4.2,3.4-7.6,7.6-7.6h6.3c0.7,0,1.3,0.6,1.3,1.3V315c0,0.7-0.6,1.3-1.3,1.3h-6.3
	c-4.2,0-7.6-3.4-7.6-7.6V303z M489.4,315v-18.3c0-1-0.9-1.9-1.9-1.9h-6.3c-4.5,0-8.2,3.7-8.2,8.2v5.7c0,4.5,3.7,8.2,8.2,8.2h6.3
	C488.6,316.9,489.4,316,489.4,315z"/>
<path class="st2" d="M479,305.8c0-0.7,0.6-1.3,1.3-1.3c0.7,0,1.3,0.6,1.3,1.3c0,0.7-0.6,1.3-1.3,1.3
	C479.5,307.1,479,306.5,479,305.8 M482.1,305.8c0-1-0.8-1.9-1.9-1.9c-1,0-1.9,0.8-1.9,1.9c0,1,0.8,1.9,1.9,1.9
	C481.3,307.7,482.1,306.9,482.1,305.8"/>
<path class="st1" d="M479,305.8c0-0.7,0.6-1.3,1.3-1.3c0.7,0,1.3,0.6,1.3,1.3c0,0.7-0.6,1.3-1.3,1.3
	C479.5,307.1,479,306.5,479,305.8z M482.1,305.8c0-1-0.8-1.9-1.9-1.9c-1,0-1.9,0.8-1.9,1.9c0,1,0.8,1.9,1.9,1.9
	C481.3,307.7,482.1,306.9,482.1,305.8z"/>
<path class="st1" d="M476.3,269.6c0,0.8-0.7,1.5-1.5,1.5c-0.8,0-1.5-0.7-1.5-1.5c0-0.8,0.7-1.5,1.5-1.5
	C475.6,268.2,476.3,268.8,476.3,269.6z"/>
<path class="st1" d="M394.5,261.9c0-5.4,4.3-9.7,9.7-9.7h76.3c5.4,0,9.7,4.3,9.7,9.7v15.4c0,5.4-4.3,9.7-9.7,9.7h-76.3
	c-5.4,0-9.7-4.3-9.7-9.7V261.9z"/>
<path class="st1" d="M401.1,265.2c0-5.4,4.3-9.7,9.7-9.7h63c5.4,0,9.7,4.3,9.7,9.7v8.9c0,5.4-4.3,9.7-9.7,9.7h-63
	c-5.4,0-9.7-4.3-9.7-9.7V265.2z"/>
<path class="st1" d="M409.1,263.4c0-2.7,2.2-4.8,4.8-4.8h61c2.7,0,4.8,2.2,4.8,4.8v12.4c0,2.7-2.2,4.8-4.8,4.8h-61
	c-2.7,0-4.8-2.2-4.8-4.8V263.4z"/>
<polygon class="st1" points="493.9,289.9 493.9,289.9 390.7,289.9 390.7,249.3 493.9,249.3 "/>
<path class="st2" d="M682.6,717.6c0-4.4,3.6-8.1,8.1-8.1h8.6c0.7,0,1.2,0.6,1.2,1.2V729c0,0.7-0.5,1.2-1.2,1.2h-8.6
	c-4.4,0-8.1-3.6-8.1-8.1V717.6z M700.9,729v-18.2c0-0.9-0.8-1.7-1.7-1.7h-8.6c-4.7,0-8.5,3.8-8.5,8.5v4.6c0,4.7,3.8,8.5,8.5,8.5h8.6
	C700.2,730.7,700.9,730,700.9,729"/>
<path class="st1" d="M682.6,717.6c0-4.4,3.6-8.1,8.1-8.1h8.6c0.7,0,1.2,0.6,1.2,1.2V729c0,0.7-0.5,1.2-1.2,1.2h-8.6
	c-4.4,0-8.1-3.6-8.1-8.1V717.6z M700.9,729v-18.2c0-0.9-0.8-1.7-1.7-1.7h-8.6c-4.7,0-8.5,3.8-8.5,8.5v4.6c0,4.7,3.8,8.5,8.5,8.5h8.6
	C700.2,730.7,700.9,730,700.9,729z"/>
<path class="st2" d="M684.6,717.6c0-3.3,2.7-6,6-6h5c0.6,0,1.1,0.5,1.1,1.1v14.5c0,0.6-0.5,1.1-1.1,1.1h-5c-3.3,0-6-2.7-6-6V717.6z
	 M697.2,727.2v-14.5c0-0.8-0.7-1.5-1.5-1.5h-5c-3.6,0-6.5,2.9-6.5,6.5v4.5c0,3.6,2.9,6.5,6.5,6.5h5
	C696.5,728.7,697.2,728,697.2,727.2"/>
<path class="st1" d="M684.6,717.6c0-3.3,2.7-6,6-6h5c0.6,0,1.1,0.5,1.1,1.1v14.5c0,0.6-0.5,1.1-1.1,1.1h-5c-3.3,0-6-2.7-6-6V717.6z
	 M697.2,727.2v-14.5c0-0.8-0.7-1.5-1.5-1.5h-5c-3.6,0-6.5,2.9-6.5,6.5v4.5c0,3.6,2.9,6.5,6.5,6.5h5
	C696.5,728.7,697.2,728,697.2,727.2z"/>
<path class="st2" d="M688.9,719.9c0-0.5,0.4-1,1-1c0.5,0,1,0.4,1,1c0,0.5-0.4,1-1,1C689.3,720.9,688.9,720.5,688.9,719.9
	 M691.3,719.9c0-0.8-0.6-1.4-1.4-1.4c-0.8,0-1.4,0.6-1.4,1.4c0,0.8,0.6,1.4,1.4,1.4C690.7,721.4,691.3,720.7,691.3,719.9"/>
<path class="st1" d="M688.9,719.9c0-0.5,0.4-1,1-1c0.5,0,1,0.4,1,1c0,0.5-0.4,1-1,1C689.3,720.9,688.9,720.5,688.9,719.9z
	 M691.3,719.9c0-0.8-0.6-1.4-1.4-1.4c-0.8,0-1.4,0.6-1.4,1.4c0,0.8,0.6,1.4,1.4,1.4C690.7,721.4,691.3,720.7,691.3,719.9z"/>
<path class="st2" d="M657.1,730.6c-5.9,0-10.7,4.8-10.7,10.7v15.4c0,1,0.8,1.8,1.8,1.8H666c1,0,1.8-0.8,1.8-1.8v-15.4
	C667.8,735.4,663,730.6,657.1,730.6 M666,759.2h-17.6c-1.4,0-2.6-1.2-2.6-2.6v-15.4c0-6.3,5.1-11.4,11.4-11.4
	c6.3,0,11.4,5.1,11.4,11.4v15.4C668.5,758.1,667.4,759.2,666,759.2"/>
<path class="st1" d="M657.1,730.6c-5.9,0-10.7,4.8-10.7,10.7v15.4c0,1,0.8,1.8,1.8,1.8H666c1,0,1.8-0.8,1.8-1.8v-15.4
	C667.8,735.4,663,730.6,657.1,730.6z M666,759.2h-17.6c-1.4,0-2.6-1.2-2.6-2.6v-15.4c0-6.3,5.1-11.4,11.4-11.4
	c6.3,0,11.4,5.1,11.4,11.4v15.4C668.5,758.1,667.4,759.2,666,759.2z"/>
<path class="st1" d="M649.5,753.4h15.3c0.1,0,0.2-0.1,0.2-0.2v-11.6c0-4.3-3.5-7.8-7.8-7.8c-4.3,0-7.8,3.5-7.8,7.8v11.6
	C649.3,753.3,649.4,753.4,649.5,753.4z"/>
<path class="st2" d="M649.7,753h14.9v-11.4c0-4.1-3.3-7.5-7.5-7.5c-4.1,0-7.5,3.3-7.5,7.5V753z M664.8,753.7h-15.3
	c-0.3,0-0.5-0.3-0.5-0.5v-11.6c0-4.5,3.7-8.2,8.2-8.2c4.5,0,8.2,3.7,8.2,8.2v11.6C665.3,753.5,665.1,753.7,664.8,753.7"/>
<path class="st1" d="M649.7,753h14.9v-11.4c0-4.1-3.3-7.5-7.5-7.5c-4.1,0-7.5,3.3-7.5,7.5V753z M664.8,753.7h-15.3
	c-0.3,0-0.5-0.3-0.5-0.5v-11.6c0-4.5,3.7-8.2,8.2-8.2c4.5,0,8.2,3.7,8.2,8.2v11.6C665.3,753.5,665.1,753.7,664.8,753.7z"/>
<path class="st2" d="M657.2,741.5c-1.1,0-2,0.9-2,2c0,1.1,0.9,2,2,2c1.1,0,2-0.9,2-2C659.2,742.4,658.3,741.5,657.2,741.5
	 M657.2,746.3c-1.5,0-2.7-1.2-2.7-2.7s1.2-2.7,2.7-2.7c1.5,0,2.7,1.2,2.7,2.7S658.7,746.3,657.2,746.3"/>
<path class="st1" d="M657.2,741.5c-1.1,0-2,0.9-2,2c0,1.1,0.9,2,2,2c1.1,0,2-0.9,2-2C659.2,742.4,658.3,741.5,657.2,741.5z
	 M657.2,746.3c-1.5,0-2.7-1.2-2.7-2.7s1.2-2.7,2.7-2.7c1.5,0,2.7,1.2,2.7,2.7S658.7,746.3,657.2,746.3z"/>
<rect x="649.7" y="748.8" transform="matrix(0.5974 -0.8019 0.8019 0.5974 -338.0343 825.066)" class="st2" width="6.1" height="0.7"/>
<rect x="649.7" y="748.8" transform="matrix(0.5974 -0.8019 0.8019 0.5974 -338.0343 825.066)" class="st1" width="6.1" height="0.7"/>
<polygon class="st2" points="663,751.9 659.3,747 659.9,746.5 663.6,751.4 "/>
<polygon class="st1" points="663,751.9 659.3,747 659.9,746.5 663.6,751.4 "/>
<path class="st2" d="M649.8,759.3c-1.6,0-3,1.3-3,3v4c0,1.6,1.3,3,3,3h14.7c1.6,0,3-1.3,3-3v-4c0-1.6-1.3-3-3-3H649.8z M664.5,769.9
	h-14.7c-2,0-3.7-1.7-3.7-3.7v-4c0-2,1.7-3.7,3.7-3.7h14.7c2,0,3.7,1.7,3.7,3.7v4C668.2,768.3,666.5,769.9,664.5,769.9"/>
<path class="st1" d="M649.8,759.3c-1.6,0-3,1.3-3,3v4c0,1.6,1.3,3,3,3h14.7c1.6,0,3-1.3,3-3v-4c0-1.6-1.3-3-3-3H649.8z M664.5,769.9
	h-14.7c-2,0-3.7-1.7-3.7-3.7v-4c0-2,1.7-3.7,3.7-3.7h14.7c2,0,3.7,1.7,3.7,3.7v4C668.2,768.3,666.5,769.9,664.5,769.9z"/>
<path class="st2" d="M657.2,763.1c-0.6,0-1.1,0.5-1.1,1.1c0,0.6,0.5,1.1,1.1,1.1c0.6,0,1.1-0.5,1.1-1.1
	C658.3,763.6,657.8,763.1,657.2,763.1 M657.2,766.1c-1,0-1.9-0.8-1.9-1.9c0-1,0.8-1.9,1.9-1.9c1,0,1.9,0.8,1.9,1.9
	C659,765.3,658.2,766.1,657.2,766.1"/>
<path class="st1" d="M657.2,763.1c-0.6,0-1.1,0.5-1.1,1.1c0,0.6,0.5,1.1,1.1,1.1c0.6,0,1.1-0.5,1.1-1.1
	C658.3,763.6,657.8,763.1,657.2,763.1z M657.2,766.1c-1,0-1.9-0.8-1.9-1.9c0-1,0.8-1.9,1.9-1.9c1,0,1.9,0.8,1.9,1.9
	C659,765.3,658.2,766.1,657.2,766.1z"/>
<path class="st2" d="M263.1,364.4v5.8h-2.4L263.1,364.4z M263.1,372.4v2.8h2.4v-2.8h1.1v-2.2h-1.1v-10.4h-2.7l-4.4,10.4v2.2H263.1z
	 M257.3,373h-2.4v2.2h2.4V373z M247,374.3c0.7,0.7,1.6,1,2.8,1c1.2,0,2.1-0.3,2.7-1c0.6-0.7,0.9-1.6,0.9-2.9v-1.2
	c0-1.7-0.6-2.8-1.7-3.2c1.1-0.5,1.7-1.5,1.7-3.2v-0.4c0-1.2-0.3-2.2-0.9-2.9c-0.6-0.7-1.5-1-2.7-1c-1.2,0-2.1,0.3-2.8,1
	c-0.7,0.7-1,1.6-1,2.9v0.8h2.4v-1c0-1,0.4-1.5,1.2-1.5c0.4,0,0.7,0.1,0.9,0.4c0.2,0.3,0.3,0.7,0.3,1.4v0.9c0,0.6-0.1,1-0.4,1.3
	c-0.2,0.2-0.6,0.4-1.1,0.4h-0.9v2.2h0.8c0.6,0,1,0.2,1.2,0.5c0.2,0.3,0.4,0.8,0.4,1.5v1.2c0,0.6-0.1,1.1-0.3,1.4
	c-0.2,0.3-0.5,0.4-0.9,0.4c-0.8,0-1.2-0.5-1.2-1.5v-1.4H246v1.3C246,372.7,246.4,373.7,247,374.3 M240.8,363.4v11.8h2.4v-15.5h-1.6
	c-0.1,0.3-0.2,0.5-0.2,0.6c-0.1,0.2-0.2,0.3-0.3,0.5c-0.1,0.2-0.3,0.3-0.5,0.4c-0.2,0.1-0.4,0.2-0.7,0.3c-0.3,0.1-0.6,0.1-1,0.1v1.7
	H240.8z"/>
<path class="st2" d="M306.8,336l1.2,7.8h-2.3L306.8,336z M304.9,348.7l0.4-2.8h3l0.4,2.8h2.4l-2.5-15.5h-3.7l-2.5,15.5H304.9z
	 M297.1,335.4v13.3h2.4v-13.3h2.5v-2.2h-7.5v2.2H297.1z M290,336l1.2,7.8h-2.3L290,336z M288.1,348.7l0.4-2.8h3l0.4,2.8h2.4
	l-2.5-15.5h-3.7l-2.5,15.5H288.1z M279.3,348.7v-6.6h2.8v6.6h2.4v-15.5H282v6.6h-2.8v-6.6h-2.4v15.5H279.3z M267,348.7v-10.9
	l1.8,10.9h2.3l1.7-11.1v11.1h2.4v-15.5h-3.5l-1.7,11l-1.8-11h-3.4v15.5H267z M258.4,336.8c0-1,0.4-1.5,1.3-1.5
	c0.8,0,1.3,0.5,1.3,1.5v8.3c0,1-0.4,1.5-1.3,1.5c-0.8,0-1.3-0.5-1.3-1.5V336.8z M256.9,347.8c0.6,0.7,1.5,1,2.7,1
	c1.2,0,2.1-0.3,2.7-1c0.6-0.7,1-1.6,1-2.9v-8c0-1.2-0.3-2.2-1-2.9c-0.6-0.7-1.5-1-2.7-1c-1.2,0-2.1,0.3-2.7,1c-0.6,0.7-1,1.6-1,2.9
	v8C256,346.2,256.3,347.2,256.9,347.8 M249.5,348.7v-4.7l0.8-1.4l2.4,6.2h2.5l-3.4-8.6l3.4-6.9h-2.4l-3.2,6.7v-6.7H247v15.5H249.5z
	 M237,337c0-0.6,0.1-1,0.3-1.2c0.2-0.3,0.5-0.4,0.9-0.4h1.2v4.8h-0.9c-0.5,0-0.8-0.1-1.1-0.4c-0.2-0.2-0.4-0.7-0.4-1.3V337z
	 M236.8,348.7c0.1-0.2,0.1-0.3,0.1-0.4c0-0.1,0-0.3,0.1-0.5c0-0.3,0-0.6,0-1v-2.4c0-0.7,0.1-1.2,0.4-1.5c0.3-0.3,0.7-0.5,1.2-0.5
	h0.8v6.3h2.4v-15.5h-3.7c-1.2,0-2.2,0.3-2.7,0.9c-0.6,0.6-0.9,1.5-0.9,2.7v1.2c0,1.6,0.5,2.6,1.6,3.1c-0.6,0.2-1,0.6-1.2,1.2
	c-0.2,0.5-0.4,1.2-0.4,2.1v2.4c0,0.8-0.1,1.5-0.2,1.9H236.8z M229.5,336l1.2,7.8h-2.3L229.5,336z M227.6,348.7l0.4-2.8h3l0.4,2.8
	h2.4l-2.5-15.5h-3.7l-2.5,15.5H227.6z M215.5,348.7c1.2,0,2.1-0.3,2.6-0.9c0.5-0.6,0.8-1.6,0.9-3l0.3-9.4h2.1v13.3h2.4v-15.5h-7
	l-0.3,11.7c0,0.4,0,0.6-0.1,0.9c-0.1,0.2-0.1,0.4-0.3,0.5c-0.1,0.1-0.3,0.2-0.4,0.2c-0.2,0-0.4,0-0.7,0v2.2H215.5z M208.9,348.7
	l2-7.1l1-3.8v10.9h2.4v-15.5h-2.9l-2,6.4l-0.9,3.4v-9.8h-2.2v15.5H208.9z M194.8,348.7l2.2-6.9l0.6,1.2v5.7h2.4V343l0.6-1.2l2.2,6.8
	h2.4l-3-9.2l3-6.3h-2.4l-2.9,6.3v-6.3h-2.4v6.3l-2.9-6.3h-2.4l3,6.3l-3,9.1H194.8z"/>
<path class="st2" d="M361.6,571.9c0.7,0.7,1.6,1,2.8,1c1.2,0,2.1-0.3,2.7-1c0.6-0.7,0.9-1.6,0.9-2.9v-1.2c0-1.7-0.6-2.8-1.7-3.2
	c1.1-0.5,1.7-1.5,1.7-3.2v-0.4c0-1.2-0.3-2.2-0.9-2.9c-0.6-0.7-1.5-1-2.7-1c-1.2,0-2.1,0.3-2.8,1c-0.7,0.7-1,1.6-1,2.9v0.8h2.4v-1
	c0-1,0.4-1.5,1.2-1.5c0.4,0,0.7,0.1,0.9,0.4c0.2,0.3,0.3,0.7,0.3,1.4v0.9c0,0.6-0.1,1-0.4,1.3c-0.2,0.2-0.6,0.4-1.1,0.4h-0.9v2.2
	h0.8c0.6,0,1,0.2,1.2,0.5c0.2,0.3,0.4,0.8,0.4,1.5v1.2c0,0.6-0.1,1.1-0.3,1.4c-0.2,0.3-0.5,0.4-0.9,0.4c-0.8,0-1.2-0.5-1.2-1.5v-1.4
	h-2.4v1.3C360.6,570.2,360.9,571.2,361.6,571.9 M359.1,570.5h-2.4v2.2h2.4V570.5z M352.6,559.4l-3.6,13.3h2.4l3.6-13.3v-2.1h-7.3
	v2.2H352.6z M342.5,560.9v11.8h2.4v-15.5h-1.6c-0.1,0.3-0.2,0.5-0.2,0.6c-0.1,0.2-0.2,0.3-0.3,0.5c-0.1,0.2-0.3,0.3-0.5,0.4
	c-0.2,0.1-0.4,0.2-0.7,0.3c-0.3,0.1-0.6,0.1-1,0.1v1.7H342.5z"/>
<path class="st2" d="M408.5,533.5l1.2,7.8h-2.3L408.5,533.5z M406.6,546.2l0.4-2.8h3l0.4,2.8h2.4l-2.5-15.5h-3.7l-2.5,15.5H406.6z
	 M398.8,532.9v13.3h2.4v-13.3h2.5v-2.2h-7.5v2.2H398.8z M391.7,533.5l1.2,7.8h-2.3L391.7,533.5z M389.8,546.2l0.4-2.8h3l0.4,2.8h2.4
	l-2.5-15.5h-3.7l-2.5,15.5H389.8z M381,546.2v-6.6h2.8v6.6h2.4v-15.5h-2.4v6.6H381v-6.6h-2.4v15.5H381z M368.7,546.2v-10.9l1.8,10.9
	h2.3l1.7-11.1v11.1h2.4v-15.5h-3.5l-1.7,11l-1.8-11h-3.4v15.5H368.7z M360.1,534.3c0-1,0.4-1.5,1.3-1.5c0.8,0,1.3,0.5,1.3,1.5v8.3
	c0,1-0.4,1.5-1.3,1.5c-0.8,0-1.3-0.5-1.3-1.5V534.3z M358.7,545.4c0.6,0.7,1.5,1,2.7,1c1.2,0,2.1-0.3,2.7-1c0.6-0.7,1-1.6,1-2.9v-8
	c0-1.2-0.3-2.2-1-2.9c-0.6-0.7-1.5-1-2.7-1c-1.2,0-2.1,0.3-2.7,1c-0.6,0.7-1,1.6-1,2.9v8C357.7,543.7,358,544.7,358.7,545.4
	 M351.2,546.2v-4.7l0.8-1.4l2.4,6.2h2.5l-3.4-8.6l3.4-6.9h-2.4l-3.2,6.7v-6.7h-2.4v15.5H351.2z M338.8,534.5c0-0.6,0.1-1,0.3-1.2
	c0.2-0.3,0.5-0.4,0.9-0.4h1.2v4.8h-0.9c-0.5,0-0.8-0.1-1.1-0.4c-0.2-0.2-0.4-0.7-0.4-1.3V534.5z M338.5,546.2
	c0.1-0.2,0.1-0.3,0.1-0.4c0-0.1,0-0.3,0.1-0.5c0-0.3,0-0.6,0-1v-2.4c0-0.7,0.1-1.2,0.4-1.5c0.3-0.3,0.7-0.5,1.2-0.5h0.8v6.3h2.4
	v-15.5h-3.7c-1.2,0-2.2,0.3-2.7,0.9c-0.6,0.6-0.9,1.5-0.9,2.7v1.2c0,1.6,0.5,2.6,1.6,3.1c-0.6,0.2-1,0.6-1.2,1.2
	c-0.2,0.5-0.4,1.2-0.4,2.1v2.4c0,0.8-0.1,1.5-0.2,1.9H338.5z M331.2,533.5l1.2,7.8H330L331.2,533.5z M329.3,546.2l0.4-2.8h3l0.4,2.8
	h2.4l-2.5-15.5h-3.7l-2.5,15.5H329.3z M317.3,546.2c1.2,0,2.1-0.3,2.6-0.9c0.5-0.6,0.8-1.6,0.9-3l0.3-9.4h2.1v13.3h2.4v-15.5h-7
	l-0.3,11.7c0,0.4,0,0.6-0.1,0.9c-0.1,0.2-0.1,0.4-0.3,0.5c-0.1,0.1-0.3,0.2-0.4,0.2c-0.2,0-0.4,0-0.7,0v2.2H317.3z M310.6,546.2
	l2-7.1l1-3.8v10.9h2.4v-15.5h-2.9l-2,6.4l-0.9,3.4v-9.8h-2.2v15.5H310.6z M296.5,546.2l2.2-6.9l0.6,1.2v5.7h2.4v-5.7l0.6-1.2
	l2.2,6.8h2.4l-3-9.2l3-6.3h-2.4l-2.9,6.3v-6.3h-2.4v6.3l-2.9-6.3h-2.4l3,6.3l-3,9.1H296.5z"/>
<path class="st2" d="M735.4,545v5.8h-2.4L735.4,545z M735.4,553v2.8h2.4V553h1.1v-2.2h-1.1v-10.4h-2.7l-4.4,10.4v2.2H735.4z
	 M729.6,553.6h-2.4v2.2h2.4V553.6z M720.7,549.5c0-1,0.4-1.5,1.3-1.5c0.8,0,1.3,0.5,1.3,1.5v2.8c0,1-0.4,1.5-1.3,1.5
	c-0.8,0-1.3-0.5-1.3-1.5V549.5z M719.2,555c0.6,0.7,1.5,1,2.7,1c1.2,0,2.1-0.3,2.7-1c0.6-0.7,1-1.6,1-2.9v-2.8c0-1.1-0.2-2-0.7-2.6
	c-0.5-0.6-1.1-0.9-2-0.9c-1.1,0-1.8,0.5-2.3,1.4v-2.8c0-0.7,0.1-1.2,0.3-1.5c0.2-0.3,0.6-0.4,1-0.4c0.8,0,1.3,0.5,1.3,1.5v0.6h2.3
	v-0.4c0-1.2-0.3-2.2-0.9-2.9c-0.6-0.7-1.5-1-2.7-1c-2.5,0-3.7,1.3-3.7,4v7.9C718.3,553.3,718.6,554.3,719.2,555"/>
<path class="st2" d="M770.4,516.6l1.2,7.8h-2.3L770.4,516.6z M768.5,529.3l0.4-2.8h3l0.4,2.8h2.4l-2.5-15.5h-3.7l-2.5,15.5H768.5z
	 M764.9,529.3v-15.5h-2.4v13.3h-2.1v-13.3H758v13.3h-2.1v-13.3h-2.4v15.5H764.9z M746.5,529.3l2-7.1l1-3.8v10.9h2.4v-15.5h-2.9
	l-2,6.4l-0.9,3.4v-9.8H744v15.5H746.5z M737,529.3v-6.6h2.8v6.6h2.4v-15.5h-2.4v6.6H737v-6.6h-2.4v15.5H737z M733,520.5h-4.4v2.2
	h4.4V520.5z M722.1,517.6c0-0.6,0.1-1,0.3-1.2c0.2-0.3,0.5-0.4,0.9-0.4h1.2v4.8h-0.9c-0.5,0-0.8-0.1-1.1-0.4
	c-0.2-0.2-0.4-0.7-0.4-1.3V517.6z M721.8,529.3c0.1-0.2,0.1-0.3,0.1-0.4c0-0.1,0-0.3,0.1-0.5c0-0.3,0-0.6,0-1V525
	c0-0.7,0.1-1.2,0.4-1.5c0.3-0.3,0.7-0.5,1.2-0.5h0.8v6.3h2.4v-15.5h-3.7c-1.2,0-2.2,0.3-2.7,0.9c-0.6,0.6-0.9,1.5-0.9,2.7v1.2
	c0,1.6,0.5,2.6,1.6,3.1c-0.6,0.2-1,0.6-1.2,1.2c-0.2,0.5-0.4,1.2-0.4,2.1v2.4c0,0.8-0.1,1.5-0.2,1.9H721.8z M712.8,529.3v-6.6h2.8
	v6.6h2.4v-15.5h-2.4v6.6h-2.8v-6.6h-2.4v15.5H712.8z M702.8,529.3l1.9-5.8l1.9,5.8h2.4l-2.7-7.9l2.5-7.6h-2.1l-1.9,5.7l-1.8-5.7
	h-2.4l2.5,7.5l-2.7,8H702.8z M694.5,525.7l0,0.1c-0.1,0.5-0.3,0.9-0.6,1.1c-0.3,0.2-0.8,0.2-1.5,0.2v2.2c0.7,0,1.2,0,1.7-0.1
	c0.5-0.1,0.9-0.2,1.2-0.4c0.3-0.2,0.6-0.5,0.9-0.8c0.2-0.4,0.4-0.7,0.6-1.1c0.1-0.4,0.3-0.9,0.4-1.5l2.6-11.5h-2.4l-1.1,5.3
	l-0.6,3.6l-0.8-3.6l-1.3-5.3h-2.4L694.5,525.7z M685.2,529.3v-4.7l0.8-1.4l2.4,6.2h2.5l-3.4-8.6l3.4-6.9h-2.4l-3.2,6.7v-6.7h-2.4
	v15.5H685.2z"/>
<path class="st2" d="M910.7,345.4c1.2,0,2.1-0.3,2.6-0.8c0.5-0.5,0.8-1.4,0.8-2.6v-8.7c0-1.2-0.3-2.1-0.8-2.6
	c-0.5-0.5-1.4-0.8-2.6-0.8h-0.7v2.1h0.6c0.4,0,0.7,0.1,0.9,0.3c0.2,0.2,0.3,0.6,0.3,1.1v8.5c0,0.5-0.1,0.9-0.3,1.1
	c-0.2,0.2-0.5,0.3-0.9,0.3h-0.6v2.1H910.7z M908.7,345.4v-2.2h-4.6c0-0.1,0-0.2,0-0.3c0-0.3,0.1-0.7,0.3-1c0.2-0.4,0.4-0.7,0.7-1
	c0.3-0.3,0.6-0.7,0.9-1.1c0.3-0.4,0.7-0.8,1-1.2c0.3-0.4,0.7-0.9,0.9-1.3c0.3-0.5,0.5-1,0.7-1.6c0.2-0.6,0.3-1.2,0.3-1.9
	c0-1.2-0.3-2.2-0.9-2.9c-0.6-0.7-1.5-1-2.7-1c-1.2,0-2.1,0.3-2.7,1c-0.6,0.7-0.9,1.6-0.9,2.9v1.5h2.3v-1.7c0-1,0.4-1.5,1.3-1.5
	c0.4,0,0.7,0.1,0.9,0.4c0.2,0.3,0.3,0.7,0.3,1.4c0,0.6-0.1,1.2-0.3,1.7c-0.2,0.5-0.4,1-0.7,1.4c-0.3,0.4-0.6,0.8-0.9,1.2
	c-0.3,0.4-0.7,0.8-1,1.1c-0.3,0.4-0.7,0.8-0.9,1.2c-0.3,0.4-0.5,0.9-0.7,1.4c-0.2,0.5-0.3,1.1-0.3,1.7v1.9H908.7z M900,343.2h-2.4
	v2.2h2.4V343.2z M895.9,345.4v-2.2h-4.6c0-0.1,0-0.2,0-0.3c0-0.3,0.1-0.7,0.3-1c0.2-0.4,0.4-0.7,0.7-1c0.3-0.3,0.6-0.7,0.9-1.1
	c0.3-0.4,0.7-0.8,1-1.2c0.3-0.4,0.7-0.9,0.9-1.3c0.3-0.5,0.5-1,0.7-1.6c0.2-0.6,0.3-1.2,0.3-1.9c0-1.2-0.3-2.2-0.9-2.9
	c-0.6-0.7-1.5-1-2.7-1c-1.2,0-2.1,0.3-2.7,1c-0.6,0.7-0.9,1.6-0.9,2.9v1.5h2.3v-1.7c0-1,0.4-1.5,1.3-1.5c0.4,0,0.7,0.1,0.9,0.4
	c0.2,0.3,0.3,0.7,0.3,1.4c0,0.6-0.1,1.2-0.3,1.7c-0.2,0.5-0.4,1-0.7,1.4c-0.3,0.4-0.6,0.8-0.9,1.2c-0.3,0.4-0.7,0.8-1,1.1
	c-0.3,0.4-0.7,0.8-0.9,1.2c-0.3,0.4-0.5,0.9-0.7,1.4c-0.2,0.5-0.3,1.1-0.3,1.7v1.9H895.9z M884.3,344.7c0.5,0.5,1.4,0.8,2.6,0.8h0.7
	v-2.1H887c-0.4,0-0.7-0.1-0.9-0.3c-0.2-0.2-0.3-0.6-0.3-1.1v-8.5c0-0.5,0.1-0.9,0.3-1.1c0.2-0.2,0.5-0.3,0.9-0.3h0.6V330h-0.7
	c-1.2,0-2.1,0.3-2.6,0.8c-0.5,0.5-0.8,1.4-0.8,2.6v8.7C883.5,343.3,883.7,344.2,884.3,344.7 M875.3,334.6v5.8h-2.4L875.3,334.6z
	 M875.3,342.6v2.8h2.4v-2.8h1.1v-2.2h-1.1V330H875l-4.4,10.4v2.2H875.3z M869.5,343.2h-2.4v2.2h2.4V343.2z M862.4,334.6v5.8H860
	L862.4,334.6z M862.4,342.6v2.8h2.4v-2.8h1.1v-2.2h-1.1V330h-2.7l-4.4,10.4v2.2H862.4z"/>
<path class="st2" d="M162.9,569.1c1.2,0,2.1-0.3,2.6-0.8c0.5-0.5,0.8-1.4,0.8-2.6V557c0-1.2-0.3-2.1-0.8-2.6
	c-0.5-0.5-1.4-0.8-2.6-0.8h-0.7v2.1h0.6c0.4,0,0.7,0.1,0.9,0.3c0.2,0.2,0.3,0.6,0.3,1.1v8.5c0,0.5-0.1,0.9-0.3,1.1
	c-0.2,0.2-0.5,0.3-0.9,0.3h-0.6v2.1H162.9z M156.2,562.7c0-1,0.4-1.5,1.3-1.5c0.8,0,1.3,0.5,1.3,1.5v2.8c0,1-0.4,1.5-1.3,1.5
	c-0.8,0-1.3-0.5-1.3-1.5V562.7z M154.8,568.2c0.6,0.7,1.5,1,2.7,1c1.2,0,2.1-0.3,2.7-1c0.6-0.7,1-1.6,1-2.9v-2.8
	c0-1.2-0.2-2-0.7-2.6c-0.5-0.6-1.1-0.9-2-0.9c-1.1,0-1.8,0.5-2.3,1.4v-2.8c0-0.7,0.1-1.2,0.3-1.5c0.2-0.3,0.6-0.4,1-0.4
	c0.8,0,1.3,0.5,1.3,1.5v0.6h2.3v-0.4c0-1.2-0.3-2.2-0.9-2.9c-0.6-0.7-1.5-1-2.7-1c-2.5,0-3.7,1.3-3.7,4v7.9
	C153.8,566.6,154.1,567.5,154.8,568.2 M152.3,566.8h-2.4v2.2h2.4V566.8z M144.5,557.3v11.8h2.4v-15.5h-1.6c-0.1,0.3-0.2,0.5-0.2,0.6
	c-0.1,0.2-0.2,0.3-0.3,0.5c-0.1,0.2-0.3,0.3-0.5,0.4c-0.2,0.1-0.4,0.2-0.7,0.3c-0.3,0.1-0.6,0.1-1,0.1v1.7H144.5z M136.5,568.3
	c0.5,0.5,1.4,0.8,2.6,0.8h0.7v-2.1h-0.6c-0.4,0-0.7-0.1-0.9-0.3c-0.2-0.2-0.3-0.6-0.3-1.1v-8.5c0-0.5,0.1-0.9,0.3-1.1
	c0.2-0.2,0.5-0.3,0.9-0.3h0.6v-2.1h-0.7c-1.2,0-2.1,0.3-2.6,0.8c-0.5,0.5-0.8,1.4-0.8,2.6v8.7C135.7,566.9,136,567.8,136.5,568.3
	 M130.4,569.1v-2.2h-4.6c0-0.1,0-0.2,0-0.3c0-0.3,0.1-0.7,0.3-1c0.2-0.4,0.4-0.7,0.7-1c0.3-0.3,0.6-0.7,0.9-1.1
	c0.3-0.4,0.7-0.8,1-1.2c0.3-0.4,0.7-0.9,0.9-1.3c0.3-0.5,0.5-1,0.7-1.6c0.2-0.6,0.3-1.2,0.3-1.9c0-1.2-0.3-2.2-0.9-2.9
	c-0.6-0.7-1.5-1-2.7-1c-1.2,0-2.1,0.3-2.7,1c-0.6,0.7-0.9,1.6-0.9,2.9v1.5h2.3v-1.7c0-1,0.4-1.5,1.3-1.5c0.4,0,0.7,0.1,0.9,0.4
	c0.2,0.3,0.3,0.7,0.3,1.4c0,0.6-0.1,1.2-0.3,1.7c-0.2,0.5-0.4,1-0.7,1.4c-0.3,0.4-0.6,0.8-0.9,1.2c-0.3,0.4-0.7,0.8-1,1.1
	c-0.3,0.4-0.7,0.8-0.9,1.2c-0.3,0.4-0.5,0.9-0.7,1.4c-0.2,0.5-0.3,1.1-0.3,1.7v1.9H130.4z M121.7,566.8h-2.4v2.2h2.4V566.8z
	 M111.4,568.2c0.7,0.7,1.6,1,2.8,1c1.2,0,2.1-0.3,2.7-1c0.6-0.7,0.9-1.6,0.9-2.9v-1.2c0-1.7-0.6-2.8-1.7-3.2
	c1.1-0.5,1.7-1.5,1.7-3.2v-0.4c0-1.2-0.3-2.2-0.9-2.9c-0.6-0.7-1.5-1-2.7-1c-1.2,0-2.1,0.3-2.8,1c-0.7,0.7-1,1.6-1,2.9v0.8h2.4v-1
	c0-1,0.4-1.5,1.2-1.5c0.4,0,0.7,0.1,0.9,0.4c0.2,0.3,0.3,0.7,0.3,1.4v0.9c0,0.6-0.1,1-0.4,1.3c-0.2,0.2-0.6,0.4-1.1,0.4H113v2.2h0.8
	c0.6,0,1,0.2,1.2,0.5c0.2,0.3,0.4,0.8,0.4,1.5v1.2c0,0.6-0.1,1.1-0.3,1.4c-0.2,0.3-0.5,0.4-0.9,0.4c-0.8,0-1.2-0.5-1.2-1.5v-1.4
	h-2.4v1.3C110.4,566.6,110.8,567.5,111.4,568.2"/>
<path class="st2" d="M713.6,429.8v-2.2h-4.6c0-0.1,0-0.2,0-0.3c0-0.3,0.1-0.7,0.3-1c0.2-0.4,0.4-0.7,0.7-1c0.3-0.3,0.6-0.7,0.9-1.1
	c0.3-0.4,0.7-0.8,1-1.2c0.3-0.4,0.7-0.9,0.9-1.3c0.3-0.5,0.5-1,0.7-1.6c0.2-0.6,0.3-1.2,0.3-1.9c0-1.2-0.3-2.2-0.9-2.9
	c-0.6-0.7-1.5-1-2.7-1c-1.2,0-2.1,0.3-2.7,1c-0.6,0.7-0.9,1.6-0.9,2.9v1.5h2.3v-1.7c0-1,0.4-1.5,1.3-1.5c0.4,0,0.7,0.1,0.9,0.4
	c0.2,0.3,0.3,0.7,0.3,1.4c0,0.6-0.1,1.2-0.3,1.7c-0.2,0.5-0.4,1-0.7,1.4c-0.3,0.4-0.6,0.8-0.9,1.2c-0.3,0.4-0.7,0.8-1,1.1
	c-0.3,0.4-0.7,0.8-0.9,1.2c-0.3,0.4-0.5,0.9-0.7,1.4c-0.2,0.5-0.3,1.1-0.3,1.7v1.9H713.6z M704.9,427.6h-2.4v2.2h2.4V427.6z
	 M700.8,429.8v-2.2h-4.6c0-0.1,0-0.2,0-0.3c0-0.3,0.1-0.7,0.3-1c0.2-0.4,0.4-0.7,0.7-1c0.3-0.3,0.6-0.7,0.9-1.1
	c0.3-0.4,0.7-0.8,1-1.2c0.3-0.4,0.6-0.9,0.9-1.3c0.3-0.5,0.5-1,0.7-1.6c0.2-0.6,0.3-1.2,0.3-1.9c0-1.2-0.3-2.2-0.9-2.9
	c-0.6-0.7-1.5-1-2.7-1s-2.1,0.3-2.7,1c-0.6,0.7-0.9,1.6-0.9,2.9v1.5h2.3v-1.7c0-1,0.4-1.5,1.3-1.5c0.4,0,0.7,0.1,0.9,0.4
	c0.2,0.3,0.3,0.7,0.3,1.4c0,0.6-0.1,1.2-0.3,1.7c-0.2,0.5-0.4,1-0.7,1.4c-0.3,0.4-0.6,0.8-0.9,1.2c-0.3,0.4-0.7,0.8-1,1.1
	c-0.3,0.4-0.7,0.8-0.9,1.2c-0.3,0.4-0.5,0.9-0.7,1.4c-0.2,0.5-0.3,1.1-0.3,1.7v1.9H700.8z M692,429.8v-2.2h-4.6c0-0.1,0-0.2,0-0.3
	c0-0.3,0.1-0.7,0.3-1c0.2-0.4,0.4-0.7,0.7-1c0.3-0.3,0.6-0.7,0.9-1.1c0.3-0.4,0.7-0.8,1-1.2c0.3-0.4,0.6-0.9,0.9-1.3
	c0.3-0.5,0.5-1,0.7-1.6c0.2-0.6,0.3-1.2,0.3-1.9c0-1.2-0.3-2.2-0.9-2.9c-0.6-0.7-1.5-1-2.7-1c-1.2,0-2.1,0.3-2.7,1
	c-0.6,0.7-0.9,1.6-0.9,2.9v1.5h2.3v-1.7c0-1,0.4-1.5,1.3-1.5c0.4,0,0.7,0.1,0.9,0.4c0.2,0.3,0.3,0.7,0.3,1.4c0,0.6-0.1,1.2-0.3,1.7
	c-0.2,0.5-0.4,1-0.7,1.4c-0.3,0.4-0.6,0.8-0.9,1.2c-0.3,0.4-0.7,0.8-1,1.1c-0.3,0.4-0.7,0.8-0.9,1.2c-0.3,0.4-0.5,0.9-0.7,1.4
	c-0.2,0.5-0.3,1.1-0.3,1.7v1.9H692z"/>
<path class="st2" d="M754.4,390.6l1.2,7.8h-2.3L754.4,390.6z M752.5,403.3l0.4-2.8h3l0.4,2.8h2.4l-2.5-15.5h-3.7l-2.5,15.5H752.5z
	 M744.7,390.1v13.3h2.4v-13.3h2.5v-2.2h-7.5v2.2H744.7z M737.6,390.6l1.2,7.8h-2.3L737.6,390.6z M735.7,403.3l0.4-2.8h3l0.4,2.8h2.4
	l-2.5-15.5h-3.7l-2.5,15.5H735.7z M726.9,403.3v-6.6h2.8v6.6h2.4v-15.5h-2.4v6.6h-2.8v-6.6h-2.4v15.5H726.9z M714.6,403.3v-10.9
	l1.8,10.9h2.3l1.7-11.1v11.1h2.4v-15.5h-3.5l-1.7,11l-1.8-11h-3.4v15.5H714.6z M706,391.4c0-1,0.4-1.5,1.3-1.5
	c0.8,0,1.3,0.5,1.3,1.5v8.3c0,1-0.4,1.5-1.3,1.5c-0.8,0-1.3-0.5-1.3-1.5V391.4z M704.5,402.5c0.6,0.7,1.5,1,2.7,1
	c1.2,0,2.1-0.3,2.7-1c0.6-0.7,1-1.6,1-2.9v-8c0-1.2-0.3-2.2-1-2.9c-0.6-0.7-1.5-1-2.7-1c-1.2,0-2.1,0.3-2.7,1c-0.6,0.7-1,1.6-1,2.9
	v8C703.6,400.8,703.9,401.8,704.5,402.5 M697.1,403.3v-4.7l0.8-1.4l2.4,6.2h2.5l-3.4-8.6l3.4-6.9h-2.4l-3.2,6.7v-6.7h-2.4v15.5
	H697.1z M684.6,391.6c0-0.6,0.1-1,0.3-1.2s0.5-0.4,0.9-0.4h1.2v4.8h-1c-0.5,0-0.8-0.1-1.1-0.4c-0.2-0.2-0.4-0.7-0.4-1.3V391.6z
	 M684.4,403.3c0.1-0.2,0.1-0.3,0.1-0.4c0-0.1,0-0.3,0.1-0.5c0-0.3,0-0.6,0-1V399c0-0.7,0.1-1.2,0.4-1.5c0.3-0.3,0.7-0.5,1.2-0.5h0.8
	v6.3h2.4v-15.5h-3.7c-1.2,0-2.2,0.3-2.7,0.9c-0.6,0.6-0.9,1.5-0.9,2.7v1.2c0,1.6,0.5,2.6,1.6,3.1c-0.6,0.2-1,0.6-1.2,1.2
	c-0.2,0.5-0.4,1.2-0.4,2.1v2.4c0,0.8-0.1,1.5-0.2,1.9H684.4z M677.1,390.6l1.2,7.8h-2.3L677.1,390.6z M675.2,403.3l0.4-2.8h3
	l0.4,2.8h2.4l-2.5-15.5h-3.7l-2.5,15.5H675.2z M663.1,403.3c1.2,0,2.1-0.3,2.6-0.9c0.5-0.6,0.8-1.6,0.9-3l0.3-9.4h2.1v13.3h2.4
	v-15.5h-7l-0.3,11.7c0,0.4,0,0.6-0.1,0.9c0,0.2-0.1,0.4-0.3,0.5c-0.1,0.1-0.3,0.2-0.4,0.2c-0.2,0-0.4,0-0.7,0v2.2H663.1z
	 M656.5,403.3l2-7.1l1-3.8v10.9h2.4v-15.5H659l-2,6.4l-0.9,3.4v-9.8H654v15.5H656.5z M642.4,403.3l2.2-6.9l0.6,1.2v5.7h2.4v-5.7
	l0.6-1.2l2.2,6.8h2.4l-3-9.2l3-6.3h-2.4l-2.9,6.3v-6.3h-2.4v6.3l-2.9-6.3H640l3,6.3l-3,9.1H642.4z"/>
<ellipse transform="matrix(0.3827 -0.9239 0.9239 0.3827 156.0072 830.2831)" class="st1" cx="699.3" cy="298.4" rx="30.9" ry="30.9"/>
<path class="st2" d="M702.3,311.3c1.1,1.2,2.6,1.7,4.7,1.7s3.7-0.6,4.8-1.7c1.1-1.2,1.7-2.8,1.7-5v-3.6h-4.2v3.8
	c0,1.7-0.7,2.6-2.2,2.6c-1.5,0-2.2-0.9-2.2-2.6v-14.4c0-1.8,0.7-2.6,2.2-2.6c1.4,0,2.2,0.9,2.2,2.6v2.9h4.2v-2.6
	c0-2.2-0.6-3.8-1.7-5c-1.1-1.2-2.7-1.7-4.8-1.7s-3.6,0.6-4.7,1.7c-1.1,1.2-1.6,2.8-1.6,5v13.9C700.7,308.5,701.2,310.1,702.3,311.3
	 M687.4,311.3c1.1,1.2,2.7,1.7,4.8,1.7c2,0,3.6-0.6,4.7-1.7c1.1-1.2,1.6-2.8,1.6-5v-2.1c0-2.9-1-4.8-2.9-5.6c2-0.8,2.9-2.6,2.9-5.5
	v-0.7c0-2.2-0.5-3.8-1.6-5c-1.1-1.2-2.6-1.7-4.7-1.7c-2,0-3.6,0.6-4.8,1.7c-1.1,1.2-1.7,2.8-1.7,5v1.5h4.2v-1.7
	c0-1.8,0.7-2.6,2.2-2.6c0.7,0,1.3,0.2,1.6,0.7c0.4,0.4,0.5,1.2,0.5,2.4v1.5c0,1-0.2,1.7-0.6,2.2c-0.4,0.4-1.1,0.6-1.9,0.6H690v3.8
	h1.4c1,0,1.7,0.3,2.1,0.8c0.4,0.5,0.6,1.4,0.6,2.6v2.1c0,1.1-0.2,1.9-0.5,2.4c-0.4,0.4-0.9,0.7-1.6,0.7c-1.4,0-2.2-0.9-2.2-2.6v-2.5
	h-4.2v2.2C685.7,308.5,686.2,310.1,687.4,311.3"/>
<path class="st2" d="M773,754.8c0-1,0.4-1.5,1.3-1.5c0.8,0,1.3,0.5,1.3,1.5v2.8c0,1-0.4,1.5-1.3,1.5c-0.8,0-1.3-0.5-1.3-1.5V754.8z
	 M771.5,760.3c0.6,0.7,1.5,1,2.7,1c1.2,0,2.1-0.3,2.7-1c0.6-0.7,1-1.6,1-2.9v-2.8c0-1.1-0.2-2-0.7-2.6c-0.5-0.6-1.1-0.9-2-0.9
	c-1.1,0-1.8,0.5-2.3,1.4v-2.8c0-0.7,0.1-1.2,0.3-1.5c0.2-0.3,0.6-0.4,1-0.4c0.8,0,1.3,0.5,1.3,1.5v0.6h2.3v-0.4
	c0-1.2-0.3-2.2-0.9-2.9c-0.6-0.7-1.5-1-2.7-1c-2.5,0-3.7,1.3-3.7,4v7.9C770.6,758.7,770.9,759.6,771.5,760.3 M769.1,758.9h-2.4v2.2
	h2.4V758.9z M760.2,754.8c0-1,0.4-1.5,1.3-1.5c0.8,0,1.3,0.5,1.3,1.5v2.8c0,1-0.4,1.5-1.3,1.5c-0.8,0-1.3-0.5-1.3-1.5V754.8z
	 M758.7,760.3c0.6,0.7,1.5,1,2.7,1c1.2,0,2.1-0.3,2.7-1c0.6-0.7,1-1.6,1-2.9v-2.8c0-1.1-0.2-2-0.7-2.6c-0.5-0.6-1.1-0.9-2-0.9
	c-1.1,0-1.8,0.5-2.3,1.4v-2.8c0-0.7,0.1-1.2,0.3-1.5c0.2-0.3,0.6-0.4,1-0.4c0.8,0,1.3,0.5,1.3,1.5v0.6h2.3v-0.4
	c0-1.2-0.3-2.2-0.9-2.9c-0.6-0.7-1.5-1-2.7-1c-2.5,0-3.7,1.3-3.7,4v7.9C757.7,758.7,758.1,759.6,758.7,760.3"/>
<path class="st2" d="M800.4,727.6c0-0.6,0.1-1,0.3-1.2c0.2-0.3,0.5-0.4,0.9-0.4h1.2v4.8h-1c-0.5,0-0.8-0.1-1.1-0.4
	c-0.2-0.2-0.4-0.7-0.4-1.3V727.6z M800.1,739.2c0.1-0.2,0.1-0.3,0.1-0.4c0-0.1,0-0.3,0.1-0.5c0-0.3,0-0.6,0-1v-2.4
	c0-0.7,0.1-1.2,0.4-1.5c0.3-0.3,0.7-0.5,1.2-0.5h0.8v6.3h2.4v-15.5h-3.7c-1.2,0-2.2,0.3-2.7,0.9c-0.6,0.6-0.9,1.5-0.9,2.7v1.2
	c0,1.6,0.5,2.6,1.6,3.1c-0.6,0.2-1,0.6-1.2,1.2c-0.2,0.5-0.4,1.2-0.4,2.1v2.4c0,0.8-0.1,1.5-0.2,1.9H800.1z M792.8,726.5l1.2,7.8
	h-2.3L792.8,726.5z M790.9,739.2l0.4-2.8h3l0.4,2.8h2.4l-2.5-15.5h-3.7l-2.5,15.5H790.9z M777.5,739.2l2.2-6.9l0.6,1.2v5.7h2.4v-5.7
	l0.6-1.2l2.2,6.8h2.4l-3-9.2l3-6.3h-2.4l-2.9,6.3v-6.3h-2.4v6.3l-2.9-6.3h-2.4l3,6.3l-3,9.1H777.5z M769.3,727.3
	c0-1,0.4-1.5,1.3-1.5c0.8,0,1.3,0.5,1.3,1.5v8.3c0,1-0.4,1.5-1.3,1.5c-0.8,0-1.3-0.5-1.3-1.5V727.3z M767.8,738.4
	c0.6,0.7,1.5,1,2.7,1c1.2,0,2.1-0.3,2.7-1c0.6-0.7,1-1.6,1-2.9v-8c0-1.2-0.3-2.2-1-2.9c-0.6-0.7-1.5-1-2.7-1c-1.2,0-2.1,0.3-2.7,1
	c-0.6,0.7-1,1.6-1,2.9v8C766.8,736.7,767.2,737.7,767.8,738.4 M759.4,739.2l1.9-5.8l1.9,5.8h2.4l-2.7-7.9l2.5-7.6h-2.1l-1.9,5.7
	l-1.8-5.7h-2.4l2.5,7.5l-2.7,8H759.4z M750.6,739.2l2-7.1l1-3.8v10.9h2.4v-15.5h-2.9l-2,6.4l-0.9,3.4v-9.8h-2.2v15.5H750.6z
	 M742.2,726h1.2c0.4,0,0.7,0.1,0.9,0.3c0.2,0.2,0.3,0.6,0.3,1.1v2.3c0,0.5-0.1,0.9-0.3,1.1c-0.2,0.2-0.5,0.3-0.9,0.3h-1.2V726z
	 M742.2,739.2v-5.8h1.2c1.2,0,2.1-0.3,2.7-1c0.6-0.7,0.9-1.6,0.9-2.8v-2c0-1.2-0.3-2.2-0.9-2.8c-0.6-0.7-1.5-1-2.7-1h-3.6v15.5
	H742.2z M732.8,739.2V726h2.8v13.3h2.4v-15.5h-7.6v15.5H732.8z"/>
<path class="st2" d="M667,713.2c0-0.5,0.1-0.9,0.3-1.1c0.2-0.2,0.5-0.3,0.8-0.3c0.3,0,0.6,0.1,0.8,0.3s0.3,0.6,0.3,1.1v0.7
	c0,0.9-0.4,1.3-1.1,1.3c-0.7,0-1.1-0.4-1.1-1.3V713.2z M667,718.4c0-0.9,0.4-1.4,1.1-1.4c0.7,0,1.1,0.5,1.1,1.4v1.1
	c0,0.5-0.1,0.9-0.3,1.1c-0.2,0.2-0.5,0.3-0.8,0.3c-0.3,0-0.6-0.1-0.8-0.3c-0.2-0.2-0.3-0.6-0.3-1.1V718.4z M665.9,721.9
	c0.5,0.5,1.3,0.8,2.3,0.8c1,0,1.7-0.3,2.3-0.8c0.5-0.5,0.8-1.3,0.8-2.3v-1c0-1.3-0.4-2.1-1.2-2.6c0.8-0.4,1.2-1.3,1.2-2.5v-0.4
	c0-1-0.3-1.8-0.8-2.3c-0.5-0.5-1.3-0.8-2.3-0.8c-1,0-1.7,0.3-2.3,0.8c-0.5,0.5-0.8,1.3-0.8,2.3v0.4c0,1.2,0.4,2,1.2,2.5
	c-0.8,0.5-1.2,1.3-1.2,2.6v1C665.1,720.6,665.4,721.3,665.9,721.9 M664,720.8h-1.9v1.8h1.9V720.8z M657.8,713.1v9.4h1.9v-12.4h-1.3
	c-0.1,0.2-0.1,0.4-0.2,0.5s-0.1,0.3-0.3,0.4c-0.1,0.2-0.2,0.3-0.4,0.4c-0.1,0.1-0.3,0.2-0.5,0.2c-0.2,0.1-0.5,0.1-0.8,0.1v1.4H657.8
	z"/>
<path class="st2" d="M669,702.2l0,0.1c-0.1,0.4-0.2,0.7-0.5,0.8c-0.3,0.1-0.7,0.2-1.2,0.2v1.8c0.5,0,1,0,1.4-0.1
	c0.4-0.1,0.7-0.2,1-0.3c0.3-0.2,0.5-0.4,0.7-0.7c0.2-0.3,0.3-0.6,0.5-0.9c0.1-0.3,0.2-0.7,0.3-1.2l2.1-9.2h-1.9l-0.9,4.2l-0.5,2.9
	l-0.6-2.9l-1-4.2h-1.9L669,702.2z M661.2,705l4.9-12.4h-1.7l-4.9,12.4H661.2z M653.9,704.4c0.5,0.5,1.2,0.8,2.2,0.8
	c1,0,1.7-0.3,2.2-0.8c0.5-0.5,0.8-1.3,0.8-2.3v-1.6h-1.9v1.8c0,0.8-0.3,1.2-1,1.2c-0.7,0-1-0.4-1-1.2v-6.7c0-0.8,0.3-1.2,1-1.2
	c0.7,0,1,0.4,1,1.2v1.3h1.9v-1.2c0-1-0.3-1.8-0.8-2.3c-0.5-0.5-1.3-0.8-2.2-0.8c-1,0-1.7,0.3-2.2,0.8c-0.5,0.5-0.7,1.3-0.7,2.3v6.4
	C653.2,703.1,653.4,703.8,653.9,704.4"/>
<path class="st2" d="M721,347.8c0-2.3,1-3.4,2.9-3.4c1.9,0,2.9,1.1,2.9,3.4v6.4c0,2.3-1,3.5-2.9,3.5c-1.9,0-2.9-1.2-2.9-3.5V347.8z
	 M717,360.6c1,1.4,2.6,2.1,4.6,2.1c2.5,0,4.2-1,5.2-3.1v6.5c0,1.6-0.3,2.7-0.8,3.4c-0.5,0.6-1.3,1-2.3,1c-1.9,0-2.9-1.2-2.9-3.5
	v-1.3h-5.2v0.9c0,2.8,0.7,5,2.1,6.6c1.4,1.5,3.5,2.3,6.2,2.3c5.7,0,8.5-3.1,8.5-9.2v-18.1c0-2.8-0.7-5-2.2-6.6
	c-1.5-1.5-3.5-2.3-6.3-2.3c-2.7,0-4.8,0.8-6.2,2.3c-1.4,1.5-2.2,3.7-2.2,6.6v6.5C715.4,357.2,716,359.2,717,360.6 M712.2,369.9h-5.5
	v5.1h5.5V369.9z M694.4,348v27h5.5v-35.3h-3.7c-0.2,0.6-0.4,1-0.6,1.4c-0.2,0.4-0.4,0.7-0.7,1.2c-0.3,0.4-0.7,0.8-1.1,1
	c-0.4,0.2-0.9,0.4-1.6,0.6c-0.6,0.2-1.4,0.3-2.2,0.3v3.9H694.4z M671.5,348.4c0-1.5,0.3-2.5,0.8-3.1c0.6-0.6,1.3-0.9,2.3-0.9
	c1,0,1.8,0.3,2.3,0.9c0.5,0.6,0.8,1.6,0.8,3.1v2c0,2.5-1,3.7-3.1,3.7c-2.1,0-3.1-1.2-3.1-3.7V348.4z M671.5,363.1c0-2.7,1-4,3.1-4
	c2.1,0,3.1,1.3,3.1,4v3.3c0,1.5-0.3,2.5-0.8,3.1c-0.5,0.6-1.3,0.9-2.3,0.9c-1,0-1.8-0.3-2.3-0.9c-0.6-0.6-0.8-1.6-0.8-3.1V363.1z
	 M668.2,373.1c1.5,1.5,3.6,2.3,6.4,2.3c2.8,0,4.9-0.8,6.4-2.3c1.5-1.5,2.2-3.7,2.2-6.6v-2.8c0-3.6-1.1-6.1-3.4-7.4
	c2.3-1.3,3.4-3.6,3.4-7.1v-1.1c0-2.8-0.7-5-2.2-6.6c-1.5-1.5-3.6-2.3-6.4-2.3c-2.8,0-4.9,0.8-6.4,2.3c-1.5,1.5-2.2,3.7-2.2,6.6v1.1
	c0,3.5,1.1,5.9,3.4,7.1c-2.3,1.3-3.4,3.8-3.4,7.4v2.8C666,369.3,666.7,371.5,668.2,373.1"/>
<rect x="373.5" y="281.1" class="st2" width="7.5" height="104.2"/>
<rect x="373.5" y="281.1" class="st1" width="7.5" height="104.2"/>
<rect x="380.7" y="373.7" class="st2" width="18" height="7.5"/>
<rect x="380.7" y="373.7" class="st1" width="18" height="7.5"/>
<rect x="435.9" y="373.9" class="st2" width="50.1" height="7.5"/>
<rect x="435.9" y="373.9" class="st1" width="50.1" height="7.5"/>
<rect x="503.9" y="373.9" class="st2" width="16.3" height="7.5"/>
<rect x="503.9" y="373.9" class="st1" width="16.3" height="7.5"/>
<rect x="554.1" y="373.7" class="st2" width="19.2" height="7.5"/>
<rect x="554.1" y="373.7" class="st1" width="19.2" height="7.5"/>
<path class="st1" d="M388.1,375.3l42.5,24.3c0,0,2.2-3.5,4.1-10.9c1.9-7.4,1.9-12.6,1.9-12.6"/>
<path class="st1" d="M568.2,375.3l-42.5,24.3c0,0-2.2-3.5-4.1-10.9c-1.9-7.4-1.9-12.6-1.9-12.6"/>
<path class="st1" d="M379.9,441.7l-28.7-49.8c0,0,4.1-2.6,12.8-4.8c8.7-2.2,14.8-2.2,14.8-2.2"/>
<path class="st2" d="M484.8,420.7l-3.6,13.3h2.4l3.6-13.3v-2.1H480v2.2H484.8z M478.4,431.8H476v2.2h2.4V431.8z M471.4,423.2v5.8
	h-2.4L471.4,423.2z M471.4,431.2v2.8h2.4v-2.8h1.1V429h-1.1v-10.4h-2.7l-4.4,10.4v2.2H471.4z"/>
<path class="st2" d="M503.9,398.8h1.2c0.4,0,0.7,0.1,0.9,0.3c0.2,0.2,0.3,0.6,0.3,1.1v2.3c0,0.5-0.1,0.9-0.3,1.1
	c-0.2,0.2-0.5,0.3-0.9,0.3h-1.2V398.8z M503.9,412.1v-5.8h1.2c1.2,0,2.1-0.3,2.7-1c0.6-0.7,0.9-1.6,0.9-2.8v-2
	c0-1.2-0.3-2.2-0.9-2.8c-0.6-0.7-1.5-1-2.7-1h-3.6v15.5H503.9z M494.9,400.2c0-1,0.4-1.5,1.3-1.5c0.8,0,1.3,0.5,1.3,1.5v8.3
	c0,1-0.4,1.5-1.3,1.5c-0.8,0-1.3-0.5-1.3-1.5V400.2z M493.5,411.3c0.6,0.7,1.6,1,2.7,1s2.1-0.3,2.7-1c0.6-0.7,1-1.6,1-2.9v-8
	c0-1.2-0.3-2.2-1-2.9c-0.6-0.7-1.5-1-2.7-1s-2.1,0.3-2.7,1c-0.6,0.7-1,1.6-1,2.9v8C492.5,409.6,492.8,410.6,493.5,411.3
	 M485.2,409.1c0.1-0.3,0.2-0.7,0.2-1.3l0.4-9h2v11.1h-3.2C484.9,409.7,485.1,409.4,485.2,409.1 M483.8,414.1v-2h5.1v2h2.4v-4.2h-1.1
	v-13.3h-6.9l-0.4,11.3c0,0.5-0.1,0.9-0.2,1.2c-0.1,0.3-0.2,0.6-0.4,0.8h-1v4.2H483.8z M475,412.1l2-7.1l1-3.8v10.9h2.4v-15.5h-2.9
	l-2,6.4l-0.9,3.4v-9.8h-2.2v15.5H475z M466.6,398.8h1.2c0.4,0,0.7,0.1,0.9,0.3c0.2,0.2,0.3,0.6,0.3,1.1v2.3c0,0.5-0.1,0.9-0.3,1.1
	c-0.2,0.2-0.5,0.3-0.9,0.3h-1.2V398.8z M466.6,412.1v-5.8h1.2c1.2,0,2.1-0.3,2.7-1c0.6-0.7,0.9-1.6,0.9-2.8v-2
	c0-1.2-0.3-2.2-0.9-2.8c-0.6-0.7-1.5-1-2.7-1h-3.6v15.5H466.6z M457.7,400.2c0-1,0.4-1.5,1.3-1.5c0.8,0,1.3,0.5,1.3,1.5v8.3
	c0,1-0.4,1.5-1.3,1.5c-0.8,0-1.3-0.5-1.3-1.5V400.2z M456.2,411.3c0.6,0.7,1.5,1,2.7,1c1.2,0,2.1-0.3,2.7-1c0.6-0.7,1-1.6,1-2.9v-8
	c0-1.2-0.3-2.2-1-2.9c-0.6-0.7-1.5-1-2.7-1c-1.2,0-2.1,0.3-2.7,1c-0.6,0.7-1,1.6-1,2.9v8C455.3,409.6,455.6,410.6,456.2,411.3
	 M448.8,412.1v-4.7l0.8-1.4l2.4,6.2h2.5l-3.4-8.6l3.4-6.9h-2.4l-3.2,6.7v-6.7h-2.4v15.5H448.8z"/>
<path class="st2" d="M422.6,346.3l-2.5,9.3h1.7l2.5-9.3v-1.5h-5.1v1.5H422.6z M418.2,354h-1.7v1.6h1.7V354z M410.9,355
	c0.5,0.5,1.1,0.7,1.9,0.7c0.8,0,1.5-0.2,1.9-0.7c0.4-0.5,0.6-1.1,0.6-2v-0.9c0-1.2-0.4-1.9-1.2-2.3c0.8-0.3,1.2-1.1,1.2-2.2v-0.3
	c0-0.9-0.2-1.5-0.6-2c-0.4-0.5-1.1-0.7-1.9-0.7c-0.8,0-1.5,0.2-1.9,0.7c-0.5,0.5-0.7,1.1-0.7,2v0.6h1.7v-0.7c0-0.7,0.3-1.1,0.9-1.1
	c0.3,0,0.5,0.1,0.7,0.3c0.1,0.2,0.2,0.5,0.2,1v0.6c0,0.4-0.1,0.7-0.3,0.9c-0.2,0.2-0.4,0.3-0.8,0.3H412v1.5h0.6
	c0.4,0,0.7,0.1,0.8,0.3c0.2,0.2,0.3,0.6,0.3,1.1v0.9c0,0.5-0.1,0.8-0.2,1c-0.1,0.2-0.4,0.3-0.7,0.3c-0.6,0-0.9-0.4-0.9-1.1v-1h-1.7
	v0.9C410.3,353.9,410.5,354.5,410.9,355"/>
<path class="st2" d="M432.4,332.1c0-0.4,0.1-0.7,0.2-0.8c0.1-0.2,0.4-0.3,0.7-0.3h0.8v3.3h-0.7c-0.3,0-0.6-0.1-0.8-0.3
	c-0.2-0.2-0.3-0.5-0.3-0.9V332.1z M432.2,340.3c0-0.1,0.1-0.2,0.1-0.3c0-0.1,0-0.2,0.1-0.4c0-0.2,0-0.4,0-0.7v-1.7
	c0-0.5,0.1-0.9,0.3-1.1c0.2-0.2,0.5-0.3,0.8-0.3h0.6v4.4h1.7v-10.8h-2.6c-0.9,0-1.5,0.2-1.9,0.6c-0.4,0.4-0.6,1-0.6,1.9v0.9
	c0,1.1,0.4,1.9,1.1,2.2c-0.4,0.2-0.7,0.4-0.9,0.8c-0.2,0.4-0.3,0.9-0.3,1.5v1.7c0,0.6-0.1,1-0.2,1.3H432.2z M427.1,331.4l0.8,5.4
	h-1.6L427.1,331.4z M425.8,340.3l0.3-2h2.1l0.3,2h1.7l-1.7-10.8h-2.6l-1.7,10.8H425.8z M419.6,340.3v-4.6h1.9v4.6h1.7v-10.8h-1.7
	v4.6h-1.9v-4.6h-1.7v10.8H419.6z M413,340.3v-4.6h1.9v4.6h1.7v-10.8H415v4.6H413v-4.6h-1.7v10.8H413z M407.6,331.4l0.8,5.4h-1.6
	L407.6,331.4z M406.3,340.3l0.3-2h2.1l0.3,2h1.7l-1.7-10.8h-2.6l-1.7,10.8H406.3z M400.5,331h0.8c0.3,0,0.5,0.1,0.7,0.3
	c0.1,0.2,0.2,0.5,0.2,0.8v0.6c0,0.4-0.1,0.7-0.3,0.9c-0.2,0.2-0.4,0.3-0.8,0.3h-0.7V331z M400.5,335.4h0.8c0.4,0,0.7,0.1,0.8,0.3
	c0.2,0.2,0.3,0.5,0.3,1v0.9c0,0.4-0.1,0.7-0.2,0.8c-0.1,0.2-0.4,0.2-0.7,0.2h-1V335.4z M401.4,340.3c0.8,0,1.5-0.2,1.9-0.7
	c0.4-0.4,0.7-1.1,0.7-1.9v-0.9c0-1.2-0.4-2-1.3-2.3c0.7-0.3,1.1-1.1,1.1-2.2v-0.4c0-0.8-0.2-1.5-0.6-1.9c-0.4-0.4-1-0.6-1.9-0.6
	h-2.6v10.8H401.4z"/>
<path class="st2" d="M537.6,347.3c0-0.7,0.3-1.1,0.9-1.1c0.6,0,0.9,0.4,0.9,1.1v5.8c0,0.7-0.3,1.1-0.9,1.1c-0.6,0-0.9-0.4-0.9-1.1
	V347.3z M536.6,355c0.4,0.5,1.1,0.7,1.9,0.7c0.8,0,1.5-0.2,1.9-0.7c0.4-0.5,0.7-1.1,0.7-2v-5.6c0-0.9-0.2-1.5-0.7-2
	c-0.4-0.5-1.1-0.7-1.9-0.7c-0.8,0-1.5,0.2-1.9,0.7c-0.4,0.5-0.7,1.1-0.7,2v5.6C535.9,353.9,536.1,354.5,536.6,355 M534.9,354h-1.7
	v1.6h1.7V354z M532,355.6V354h-3.2c0-0.1,0-0.1,0-0.2c0-0.2,0.1-0.5,0.2-0.7c0.1-0.3,0.3-0.5,0.5-0.7c0.2-0.2,0.4-0.5,0.7-0.7
	c0.2-0.3,0.5-0.5,0.7-0.8c0.2-0.3,0.5-0.6,0.7-0.9c0.2-0.3,0.4-0.7,0.5-1.1c0.1-0.4,0.2-0.9,0.2-1.3c0-0.9-0.2-1.5-0.6-2
	c-0.4-0.5-1.1-0.7-1.9-0.7c-0.8,0-1.5,0.2-1.9,0.7c-0.4,0.5-0.7,1.1-0.7,2v1.1h1.6v-1.2c0-0.7,0.3-1.1,0.9-1.1
	c0.3,0,0.5,0.1,0.7,0.3c0.1,0.2,0.2,0.5,0.2,1c0,0.4-0.1,0.8-0.2,1.2c-0.1,0.4-0.3,0.7-0.5,1c-0.2,0.3-0.4,0.6-0.7,0.8
	c-0.2,0.3-0.5,0.5-0.7,0.8c-0.2,0.3-0.5,0.5-0.7,0.8c-0.2,0.3-0.4,0.6-0.5,1c-0.1,0.4-0.2,0.8-0.2,1.2v1.3H532z"/>
<path class="st2" d="M539.2,337.8L539.2,337.8c-0.1,0.5-0.2,0.7-0.5,0.8c-0.2,0.1-0.6,0.2-1,0.1v1.5c0.5,0,0.9,0,1.2,0
	c0.3-0.1,0.6-0.2,0.9-0.3c0.2-0.1,0.4-0.3,0.6-0.6s0.3-0.5,0.4-0.8c0.1-0.3,0.2-0.6,0.3-1.1l1.8-8.1h-1.7l-0.8,3.7l-0.4,2.5
	l-0.5-2.5l-0.9-3.7h-1.7L539.2,337.8z M532.4,340.3l4.3-10.8h-1.5l-4.3,10.8H532.4z M526,339.7c0.4,0.5,1.1,0.7,1.9,0.7
	c0.8,0,1.5-0.2,1.9-0.7c0.5-0.5,0.7-1.1,0.7-2v-1.4h-1.7v1.5c0,0.7-0.3,1.1-0.9,1.1c-0.6,0-0.9-0.4-0.9-1.1v-5.8
	c0-0.7,0.3-1.1,0.9-1.1c0.6,0,0.9,0.4,0.9,1.1v1.2h1.7V332c0-0.9-0.2-1.5-0.7-2c-0.5-0.5-1.1-0.7-1.9-0.7c-0.8,0-1.5,0.2-1.9,0.7
	c-0.4,0.5-0.6,1.1-0.6,2v5.6C525.4,338.5,525.6,339.2,526,339.7"/>
<rect x="485.1" y="327.4" class="st1" width="17.3" height="53.9"/>
<rect x="487.2" y="330.1" class="st1" width="13.2" height="8.2"/>
<rect x="487.2" y="341.4" class="st1" width="13.2" height="37.3"/>
</svg>
