<?xml version="1.0" encoding="utf-8"?>
<!-- Generator: Adobe Illustrator 26.0.1, SVG Export Plug-In . SVG Version: 6.00 Build 0)  -->
<svg version="1.1" id="Слой_1" xmlns="http://www.w3.org/2000/svg" xmlns:xlink="http://www.w3.org/1999/xlink" x="0px" y="0px"
	 viewBox="0 0 1000 1000" style="enable-background:new 0 0 1000 1000;" xml:space="preserve">
<style type="text/css">
	.st0{fill:#ECDDEA;}
	.st1{fill:none;stroke:#39373A;stroke-width:0.75;}
	.st2{fill:#39373A;}
</style>
<rect x="242.1" y="230.3" class="st0" width="561.9" height="338.1"/>
<rect x="242.1" y="388.5" class="st0" width="187" height="479.8"/>
<rect x="623.1" y="124.4" class="st1" width="164" height="5.4"/>
<polygon class="st1" points="616.1,124.5 616.1,129.9 431.7,156.9 431.7,151.6 "/>
<rect x="804.5" y="554.3" class="st2" width="8.6" height="22.7"/>
<rect x="804.5" y="554.3" class="st1" width="8.6" height="22.7"/>
<rect x="781.9" y="123" class="st2" width="32.4" height="85.5"/>
<rect x="804.5" y="123" class="st2" width="9.8" height="380.8"/>
<rect x="804.5" y="123" class="st1" width="9.8" height="380.8"/>
<rect x="612.1" y="207.8" class="st2" width="58.6" height="5.4"/>
<rect x="612.1" y="207.8" class="st1" width="58.6" height="5.4"/>
<rect x="613.9" y="212.2" class="st2" width="52.1" height="17.6"/>
<rect x="613.9" y="212.2" class="st1" width="52.1" height="17.6"/>
<rect x="762" y="207.8" class="st2" width="48.1" height="5.4"/>
<rect x="762" y="207.8" class="st1" width="48.1" height="5.4"/>
<rect x="766.7" y="212.2" class="st2" width="44.5" height="17.6"/>
<rect x="766.7" y="212.2" class="st1" width="44.5" height="17.6"/>
<rect x="653.3" y="207.8" class="st1" width="78" height="5.4"/>
<rect x="653.3" y="213.2" class="st1" width="73.3" height="16.6"/>
<path class="st1" d="M727,213.6c0,0,1.8,7.8,3.8,13.1c2,5.3,4.4,8.2,4.4,8.2l34.7-20l-1-1.7l-34.9,19.6"/>
<rect x="431.3" y="207.8" class="st2" width="48.1" height="5.4"/>
<rect x="431.3" y="207.8" class="st1" width="48.1" height="5.4"/>
<rect x="431.3" y="212.2" class="st2" width="43.5" height="17.6"/>
<rect x="431.3" y="212.2" class="st1" width="43.5" height="17.6"/>
<rect x="570.8" y="207.8" class="st2" width="48.1" height="5.4"/>
<rect x="570.8" y="207.8" class="st1" width="48.1" height="5.4"/>
<rect x="575.4" y="212.2" class="st2" width="44.5" height="17.6"/>
<rect x="575.4" y="212.2" class="st1" width="44.5" height="17.6"/>
<rect x="462.1" y="207.8" class="st1" width="78" height="5.4"/>
<rect x="462.1" y="213.2" class="st1" width="73.3" height="16.6"/>
<path class="st1" d="M535.8,213.6c0,0,1.8,7.8,3.8,13.1c2,5.3,4.4,8.2,4.4,8.2l34.7-20l-1-1.7l-34.9,19.6"/>
<rect x="227.7" y="207.8" class="st2" width="71" height="5.4"/>
<rect x="227.7" y="207.8" class="st1" width="71" height="5.4"/>
<rect x="226.4" y="212.2" class="st2" width="67.6" height="17.6"/>
<rect x="226.4" y="212.2" class="st1" width="67.6" height="17.6"/>
<rect x="221" y="207.8" class="st2" width="23.5" height="683.3"/>
<rect x="221" y="207.8" class="st1" width="23.5" height="683.3"/>
<rect x="370.5" y="207.8" class="st2" width="64.2" height="5.4"/>
<rect x="370.5" y="207.8" class="st1" width="64.2" height="5.4"/>
<rect x="375.2" y="212.2" class="st2" width="59.5" height="17.6"/>
<rect x="375.2" y="212.2" class="st1" width="59.5" height="17.6"/>
<rect x="277.4" y="207.8" class="st1" width="100.3" height="5.4"/>
<rect x="277.4" y="213.2" class="st1" width="110.8" height="16.6"/>
<polygon class="st2" points="265.9,228.5 242.8,251.7 235.5,228.5 252.1,221 "/>
<polygon class="st1" points="265.9,228.5 242.8,251.7 235.5,228.5 252.1,221 "/>
<rect x="613.9" y="122.7" class="st2" width="10.3" height="49.7"/>
<rect x="613.9" y="122.7" class="st1" width="10.3" height="49.7"/>
<rect x="613.9" y="217.8" class="st2" width="10.3" height="297.5"/>
<rect x="613.9" y="217.8" class="st1" width="10.3" height="297.5"/>
<rect x="425.9" y="568.9" class="st2" width="387.2" height="8.6"/>
<rect x="425.9" y="568.9" class="st1" width="387.2" height="8.6"/>
<rect x="428.5" y="484.2" class="st2" width="87.6" height="10.3"/>
<rect x="428.5" y="484.2" class="st1" width="87.6" height="10.3"/>
<rect x="588.6" y="484.2" class="st2" width="31.9" height="10.3"/>
<rect x="588.6" y="484.2" class="st1" width="31.9" height="10.3"/>
<rect x="239.9" y="415.3" class="st2" width="138" height="8.8"/>
<rect x="239.9" y="415.3" class="st1" width="138" height="8.8"/>
<rect x="239.9" y="569.9" class="st2" width="137.4" height="8.6"/>
<rect x="239.9" y="569.9" class="st1" width="137.4" height="8.6"/>
<rect x="674.7" y="447.2" class="st2" width="134.2" height="10.3"/>
<rect x="674.7" y="447.2" class="st1" width="134.2" height="10.3"/>
<rect x="423.9" y="148.1" class="st2" width="10.3" height="354.7"/>
<rect x="423.9" y="148.1" class="st1" width="10.3" height="354.7"/>
<rect x="423.9" y="550.1" class="st2" width="10.3" height="340.7"/>
<rect x="423.9" y="550.1" class="st1" width="10.3" height="340.7"/>
<path class="st1" d="M675.5,455c0,0,0-6.8-3-15.2c-2.5-7.1-7.5-13.6-7.5-13.6L616,454.1l1,1.7l49.2-27.9"/>
<path class="st1" d="M539.1,490.2c0,0,0-6.8,3-15.2c2.5-7.1,7.5-13.6,7.5-13.6l49.1,27.9l-1,1.7L548.4,463"/>
<path class="st1" d="M539,490.6c0,0,0-3.5-1.6-7.9c-1.3-3.7-3.9-7.1-3.9-7.1l-25.8,14.5l0.5,1.5l25.9-14.5"/>
<path class="st1" d="M620.2,514.7c0,0-6.8,0-15.2,3c-7.1,2.5-13.6,7.5-13.6,7.5l27.9,49.1l1.7-1L593,524"/>
<path class="st1" d="M807.1,503.6c-2.8,0.4-6.6,1.1-10.9,2.6c-7.1,2.5-13.6,7.5-13.6,7.5l24.5,42.8l1.7-1l-24.5-42.9"/>
<rect x="736.7" y="430.3" class="st1" width="46.7" height="15.7"/>
<line class="st1" x1="783.3" y1="443.5" x2="736.5" y2="443.5"/>
<polyline class="st1" points="781,443.5 780,432.2 750.4,432.2 749.1,443.5 747.2,443.5 745.9,432.1 739.3,432.1 737.9,443.5 "/>
<rect x="245.7" y="425.2" class="st1" width="15.7" height="44.8"/>
<line class="st1" x1="248.2" y1="469.9" x2="248.2" y2="424.9"/>
<polyline class="st1" points="248.2,467.6 259.5,466.6 259.5,438.3 248.2,437.1 248.2,435.2 259.6,434 259.6,427.6 248.2,426.3 "/>
<path class="st2" d="M802.9,376.6h-30.6v30.6h30.6V376.6z M803.6,407.9h-32v-32h32V407.9z"/>
<path class="st1" d="M802.9,376.6h-30.6v30.6h30.6V376.6z M803.6,407.9h-32v-32h32V407.9z"/>
<path class="st2" d="M775.1,402.6c0,0.8,0.6,1.4,1.4,1.4h16.1c0.8,0,1.4-0.6,1.4-1.4v-21.5c0-0.8-0.6-1.4-1.4-1.4h-16.1
	c-0.8,0-1.4,0.6-1.4,1.4V402.6z M794.6,381.2v21.5c0,1.1-0.9,2-2.1,2h-16.1c-1.1,0-2.1-0.9-2.1-2v-21.5c0-1.1,0.9-2,2.1-2h16.1
	C793.7,379.1,794.6,380,794.6,381.2"/>
<path class="st1" d="M775.1,402.6c0,0.8,0.6,1.4,1.4,1.4h16.1c0.8,0,1.4-0.6,1.4-1.4v-21.5c0-0.8-0.6-1.4-1.4-1.4h-16.1
	c-0.8,0-1.4,0.6-1.4,1.4V402.6z M794.6,381.2v21.5c0,1.1-0.9,2-2.1,2h-16.1c-1.1,0-2.1-0.9-2.1-2v-21.5c0-1.1,0.9-2,2.1-2h16.1
	C793.7,379.1,794.6,380,794.6,381.2z"/>
<path class="st2" d="M791.6,382.2h-14.1v19.4h14.1V382.2z M792.2,402.3h-15.4v-20.8h15.4V402.3z"/>
<path class="st1" d="M791.6,382.2h-14.1v19.4h14.1V382.2z M792.2,402.3h-15.4v-20.8h15.4V402.3z"/>
<path class="st2" d="M781.8,391.9c0,1,0.8,1.8,1.8,1.8c1,0,1.8-0.8,1.8-1.8c0-1-0.8-1.8-1.8-1.8
	C782.6,390.1,781.8,390.9,781.8,391.9 M786,391.9c0,1.4-1.1,2.5-2.5,2.5c-1.4,0-2.5-1.1-2.5-2.5c0-1.4,1.1-2.5,2.5-2.5
	C784.9,389.4,786,390.6,786,391.9"/>
<path class="st1" d="M781.8,391.9c0,1,0.8,1.8,1.8,1.8c1,0,1.8-0.8,1.8-1.8c0-1-0.8-1.8-1.8-1.8
	C782.6,390.1,781.8,390.9,781.8,391.9z M786,391.9c0,1.4-1.1,2.5-2.5,2.5c-1.4,0-2.5-1.1-2.5-2.5c0-1.4,1.1-2.5,2.5-2.5
	C784.9,389.4,786,390.6,786,391.9z"/>
<rect x="384.1" y="885.4" class="st2" width="49.9" height="5.4"/>
<rect x="384.1" y="885.4" class="st1" width="49.9" height="5.4"/>
<rect x="388.8" y="868.8" class="st2" width="46.2" height="17.6"/>
<rect x="225.7" y="885.4" class="st2" width="57" height="5.4"/>
<rect x="225.7" y="885.4" class="st1" width="57" height="5.4"/>
<rect x="225.7" y="868.8" class="st2" width="52.3" height="17.6"/>
<rect x="225.7" y="868.8" class="st1" width="52.3" height="17.6"/>
<rect x="419" y="868.8" class="st2" width="15" height="17.6"/>
<rect x="256" y="885.4" class="st1" width="150.6" height="5.4"/>
<rect x="256" y="868.8" class="st1" width="141.7" height="16.6"/>
<path class="st2" d="M306.4,446.3c0,5.7-4.6,10.3-10.4,10.3h-15c-1,0-1.8-0.8-1.8-1.8v-17.1c0-1,0.8-1.8,1.8-1.8h15
	C301.7,436,306.4,440.6,306.4,446.3 M278.5,437.7v17.1c0,1.4,1.1,2.5,2.5,2.5h15c6.1,0,11.1-5,11.1-11.1c0-6.1-5-11.1-11.1-11.1h-15
	C279.7,435.2,278.5,436.4,278.5,437.7"/>
<path class="st1" d="M306.4,446.3c0,5.7-4.6,10.3-10.4,10.3h-15c-1,0-1.8-0.8-1.8-1.8v-17.1c0-1,0.8-1.8,1.8-1.8h15
	C301.7,436,306.4,440.6,306.4,446.3z M278.5,437.7v17.1c0,1.4,1.1,2.5,2.5,2.5h15c6.1,0,11.1-5,11.1-11.1c0-6.1-5-11.1-11.1-11.1
	h-15C279.7,435.2,278.5,436.4,278.5,437.7z"/>
<path class="st1" d="M284.3,453.7v-14.8c0-0.1,0.1-0.2,0.2-0.2h11.3c4.2,0,7.6,3.4,7.6,7.6c0,4.2-3.4,7.6-7.6,7.6h-11.3
	C284.3,453.9,284.3,453.8,284.3,453.7z"/>
<path class="st2" d="M284.6,453.5v-14.5h11.1c4,0,7.2,3.2,7.2,7.2s-3.2,7.2-7.2,7.2H284.6z M283.9,438.9v14.8c0,0.3,0.2,0.5,0.5,0.5
	h11.3c4.4,0,8-3.6,8-8c0-4.4-3.6-8-8-8h-11.3C284.1,438.3,283.9,438.6,283.9,438.9"/>
<path class="st1" d="M284.6,453.5v-14.5h11.1c4,0,7.2,3.2,7.2,7.2s-3.2,7.2-7.2,7.2H284.6z M283.9,438.9v14.8c0,0.3,0.2,0.5,0.5,0.5
	h11.3c4.4,0,8-3.6,8-8c0-4.4-3.6-8-8-8h-11.3C284.1,438.3,283.9,438.6,283.9,438.9z"/>
<path class="st2" d="M295.7,446.3c0,1.1-0.9,2-2,2c-1.1,0-2-0.9-2-2c0-1.1,0.9-2,2-2C294.9,444.3,295.7,445.2,295.7,446.3
	 M291.1,446.3c0,1.5,1.2,2.7,2.7,2.7c1.5,0,2.7-1.2,2.7-2.7c0-1.5-1.2-2.7-2.7-2.7C292.3,443.6,291.1,444.8,291.1,446.3"/>
<path class="st1" d="M295.7,446.3c0,1.1-0.9,2-2,2c-1.1,0-2-0.9-2-2c0-1.1,0.9-2,2-2C294.9,444.3,295.7,445.2,295.7,446.3z
	 M291.1,446.3c0,1.5,1.2,2.7,2.7,2.7c1.5,0,2.7-1.2,2.7-2.7c0-1.5-1.2-2.7-2.7-2.7C292.3,443.6,291.1,444.8,291.1,446.3z"/>
<polygon class="st2" points="285.7,452.1 286.1,452.7 290.9,449.1 290.4,448.5 "/>
<polygon class="st1" points="285.7,452.1 286.1,452.7 290.9,449.1 290.4,448.5 "/>
<rect x="287.9" y="439.2" transform="matrix(0.5991 -0.8007 0.8007 0.5991 -238.4331 408.0845)" class="st2" width="0.7" height="5.9"/>
<rect x="287.9" y="439.2" transform="matrix(0.5991 -0.8007 0.8007 0.5991 -238.4331 408.0845)" class="st1" width="0.7" height="5.9"/>
<path class="st2" d="M278.5,453.4c0,1.6-1.3,2.9-2.9,2.9h-3.9c-1.6,0-2.9-1.3-2.9-2.9v-14.3c0-1.6,1.3-2.9,2.9-2.9h3.9
	c1.6,0,2.9,1.3,2.9,2.9V453.4z M268.2,439.2v14.3c0,2,1.6,3.6,3.6,3.6h3.9c2,0,3.6-1.6,3.6-3.6v-14.3c0-2-1.6-3.6-3.6-3.6h-3.9
	C269.8,435.6,268.2,437.2,268.2,439.2"/>
<path class="st1" d="M278.5,453.4c0,1.6-1.3,2.9-2.9,2.9h-3.9c-1.6,0-2.9-1.3-2.9-2.9v-14.3c0-1.6,1.3-2.9,2.9-2.9h3.9
	c1.6,0,2.9,1.3,2.9,2.9V453.4z M268.2,439.2v14.3c0,2,1.6,3.6,3.6,3.6h3.9c2,0,3.6-1.6,3.6-3.6v-14.3c0-2-1.6-3.6-3.6-3.6h-3.9
	C269.8,435.6,268.2,437.2,268.2,439.2z"/>
<path class="st2" d="M274.8,446.3c0,0.6-0.5,1.1-1.1,1.1c-0.6,0-1.1-0.5-1.1-1.1c0-0.6,0.5-1.1,1.1-1.1
	C274.3,445.2,274.8,445.7,274.8,446.3 M271.9,446.3c0,1,0.8,1.8,1.8,1.8c1,0,1.8-0.8,1.8-1.8c0-1-0.8-1.8-1.8-1.8
	C272.7,444.5,271.9,445.3,271.9,446.3"/>
<path class="st1" d="M274.8,446.3c0,0.6-0.5,1.1-1.1,1.1c-0.6,0-1.1-0.5-1.1-1.1c0-0.6,0.5-1.1,1.1-1.1
	C274.3,445.2,274.8,445.7,274.8,446.3z M271.9,446.3c0,1,0.8,1.8,1.8,1.8c1,0,1.8-0.8,1.8-1.8c0-1-0.8-1.8-1.8-1.8
	C272.7,444.5,271.9,445.3,271.9,446.3z"/>
<path class="st1" d="M356.7,456.9c0,0,2.5,0.2,9.5-2.2c5.9-2.1,11.4-6.2,11.4-6.2l-16.8-28.9l-1.4,0.9l16.8,29"/>
<path class="st1" d="M356.7,504.5c0,0,2.5-0.2,9.5,2.2c5.9,2.1,11.4,6.2,11.4,6.2l-16.8,28.9l-1.4-0.9l16.8-29"/>
<rect x="357.2" y="535.8" class="st2" width="5.6" height="32.8"/>
<rect x="357.2" y="535.8" class="st1" width="5.6" height="32.8"/>
<rect x="357.2" y="457.2" class="st2" width="5.6" height="48.4"/>
<rect x="357.2" y="457.2" class="st1" width="5.6" height="48.4"/>
<path class="st1" d="M356.7,504.4c0,0,2.5-0.2,9.5,2.2c5.9,2.1,11.4,6.2,11.4,6.2l-16.8,28.9l-1.4-0.9l16.8-29"/>
<rect x="357.3" y="535.8" class="st2" width="5.6" height="34.7"/>
<rect x="357.3" y="535.8" class="st1" width="5.6" height="34.7"/>
<rect x="239.5" y="470.7" class="st2" width="119" height="4.3"/>
<rect x="239.5" y="470.7" class="st1" width="119" height="4.3"/>
<path class="st2" d="M309.1,497.5c5.2,0,9.5-4.2,9.5-9.5v-10c0-0.8-0.6-1.4-1.4-1.4h-21.4c-0.8,0-1.4,0.6-1.4,1.4v10
	c0,5.2,4.2,9.5,9.5,9.5H309.1z M295.8,476h21.4c1.1,0,2,0.9,2,2v10c0,5.5-4.5,10-10,10h-5.3c-5.5,0-10-4.5-10-10v-10
	C293.8,476.9,294.7,476,295.8,476"/>
<path class="st1" d="M309.1,497.5c5.2,0,9.5-4.2,9.5-9.5v-10c0-0.8-0.6-1.4-1.4-1.4h-21.4c-0.8,0-1.4,0.6-1.4,1.4v10
	c0,5.2,4.2,9.5,9.5,9.5H309.1z M295.8,476h21.4c1.1,0,2,0.9,2,2v10c0,5.5-4.5,10-10,10h-5.3c-5.5,0-10-4.5-10-10v-10
	C293.8,476.9,294.7,476,295.8,476z"/>
<path class="st2" d="M309.1,495.1c3.9,0,7.1-3.2,7.1-7.1v-5.9c0-0.7-0.6-1.2-1.2-1.2h-17c-0.7,0-1.2,0.6-1.2,1.2v5.9
	c0,3.9,3.2,7.1,7.1,7.1H309.1z M297.9,480.4h17c1,0,1.8,0.8,1.8,1.8v5.9c0,4.2-3.4,7.6-7.6,7.6h-5.3c-4.2,0-7.6-3.4-7.6-7.6v-5.9
	C296.2,481.2,297,480.4,297.9,480.4"/>
<path class="st1" d="M309.1,495.1c3.9,0,7.1-3.2,7.1-7.1v-5.9c0-0.7-0.6-1.2-1.2-1.2h-17c-0.7,0-1.2,0.6-1.2,1.2v5.9
	c0,3.9,3.2,7.1,7.1,7.1H309.1z M297.9,480.4h17c1,0,1.8,0.8,1.8,1.8v5.9c0,4.2-3.4,7.6-7.6,7.6h-5.3c-4.2,0-7.6-3.4-7.6-7.6v-5.9
	C296.2,481.2,297,480.4,297.9,480.4z"/>
<path class="st2" d="M306.5,490.1c0.7,0,1.2-0.5,1.2-1.2c0-0.7-0.5-1.2-1.2-1.2c-0.7,0-1.2,0.5-1.2,1.2
	C305.3,489.6,305.8,490.1,306.5,490.1 M306.5,487.2c0.9,0,1.7,0.8,1.7,1.7c0,1-0.8,1.7-1.7,1.7c-0.9,0-1.7-0.8-1.7-1.7
	C304.7,488,305.5,487.2,306.5,487.2"/>
<path class="st1" d="M306.5,490.1c0.7,0,1.2-0.5,1.2-1.2c0-0.7-0.5-1.2-1.2-1.2c-0.7,0-1.2,0.5-1.2,1.2
	C305.3,489.6,305.8,490.1,306.5,490.1z M306.5,487.2c0.9,0,1.7,0.8,1.7,1.7c0,1-0.8,1.7-1.7,1.7c-0.9,0-1.7-0.8-1.7-1.7
	C304.7,488,305.5,487.2,306.5,487.2z"/>
<rect x="322.4" y="476.3" class="st1" width="31.4" height="30.4"/>
<line class="st1" x1="322.8" y1="476.2" x2="353.7" y2="506.6"/>
<line class="st1" x1="354.1" y1="476.2" x2="323.2" y2="506.6"/>
<path class="st2" d="M241.7,848.9l21.8,21.8c0,0-1,9.2-6,9.2s-15.3,5-18.4,0c-3.1-5-4.4-0.1-3.6-9.2
	C236.3,861.6,241.7,848.9,241.7,848.9"/>
<path class="st1" d="M241.7,848.9l21.8,21.8c0,0-1,9.2-6,9.2s-15.3,5-18.4,0c-3.1-5-4.4-0.1-3.6-9.2
	C236.3,861.6,241.7,848.9,241.7,848.9z"/>
<path class="st1" d="M377.6,416.4c0,0,0-5,2.2-11.3c1.8-5.3,5.5-10.2,5.5-10.2l40.1,22.8l-0.8,1.2l-40.1-22.9"/>
<path class="st1" d="M377.6,578c0,0,0,5,2.2,11.3c1.8,5.3,5.5,10.2,5.5,10.2l40.1-22.8l-0.8-1.2l-40.1,22.9"/>
<path class="st1" d="M271.5,493.8c-0.8,0-1.4,0.7-1.4,1.5c0,0.8,0.6,1.5,1.4,1.5c0.8,0,1.4-0.7,1.4-1.5
	C273,494.4,272.3,493.8,271.5,493.8z"/>
<path class="st1" d="M278.2,565.5c5.3,0,9.6-4.3,9.6-9.6v-66.7c0-5.3-4.3-9.6-9.6-9.6h-13.3c-5.3,0-9.6,4.3-9.6,9.6v66.7
	c0,5.3,4.3,9.6,9.6,9.6H278.2z"/>
<path class="st1" d="M275.1,559.5c5.3,0,9.6-4.3,9.6-9.6v-54.7c0-5.3-4.3-9.6-9.6-9.6h-7.2c-5.3,0-9.6,4.3-9.6,9.6v54.7
	c0,5.3,4.3,9.6,9.6,9.6H275.1z"/>
<path class="st1" d="M277,552.3c2.6,0,4.8-2.1,4.8-4.8v-53.8c0-2.6-2.1-4.8-4.8-4.8h-11c-2.6,0-4.8,2.1-4.8,4.8v53.8
	c0,2.6,2.1,4.8,4.8,4.8H277z"/>
<polygon class="st1" points="252.6,476.3 252.6,476.3 252.6,568.8 290.5,568.8 290.5,476.3 "/>
<rect x="242.5" y="472.9" class="st2" width="9.1" height="101.3"/>
<rect x="242.5" y="472.9" class="st1" width="9.1" height="101.3"/>
<path class="st2" d="M535.2,415.2l-3.5,12.9h2.4l3.5-13v-2.1h-7.1v2.1H535.2z M529,425.9h-2.4v2.2h2.4V425.9z M520.4,421.9
	c0-1,0.4-1.5,1.2-1.5c0.8,0,1.2,0.5,1.2,1.5v2.7c0,1-0.4,1.5-1.2,1.5c-0.8,0-1.2-0.5-1.2-1.5V421.9z M518.9,427.3
	c0.6,0.7,1.5,1,2.7,1c1.2,0,2-0.3,2.6-1c0.6-0.7,0.9-1.6,0.9-2.8v-2.7c0-1.1-0.2-2-0.7-2.6c-0.4-0.6-1.1-0.9-2-0.9
	c-1,0-1.8,0.4-2.2,1.3v-2.7c0-0.7,0.1-1.2,0.3-1.4c0.2-0.3,0.5-0.4,1-0.4c0.8,0,1.2,0.5,1.2,1.5v0.5h2.2v-0.4c0-1.2-0.3-2.1-0.9-2.8
	c-0.6-0.7-1.5-1-2.6-1c-2.4,0-3.6,1.3-3.6,3.9v7.7C518,425.7,518.3,426.6,518.9,427.3 M512.9,416.6v11.5h2.4v-15h-1.6
	c-0.1,0.2-0.2,0.4-0.2,0.6c-0.1,0.2-0.2,0.3-0.3,0.5c-0.1,0.2-0.3,0.3-0.5,0.4c-0.2,0.1-0.4,0.2-0.7,0.3c-0.3,0.1-0.6,0.1-0.9,0.1
	v1.7H512.9z"/>
<path class="st2" d="M577.1,390l1.1,7.6h-2.3L577.1,390z M575.2,402.3l0.4-2.7h2.9l0.4,2.7h2.4l-2.4-15h-3.6l-2.4,15H575.2z
	 M567.6,389.5v12.9h2.4v-12.9h2.5v-2.1h-7.3v2.1H567.6z M560.7,390l1.1,7.6h-2.3L560.7,390z M558.9,402.3l0.4-2.7h2.9l0.4,2.7h2.4
	l-2.4-15h-3.6l-2.4,15H558.9z M550.3,402.3v-6.4h2.7v6.4h2.4v-15H553v6.4h-2.7v-6.4H548v15H550.3z M538.4,402.3v-10.6l1.8,10.6h2.2
	l1.6-10.8v10.8h2.4v-15H543l-1.6,10.7l-1.7-10.7h-3.3v15H538.4z M530,390.8c0-1,0.4-1.5,1.2-1.5c0.8,0,1.2,0.5,1.2,1.5v8.1
	c0,1-0.4,1.5-1.2,1.5c-0.8,0-1.2-0.5-1.2-1.5V390.8z M528.6,401.5c0.6,0.7,1.5,1,2.7,1c1.2,0,2-0.3,2.7-1c0.6-0.7,0.9-1.6,0.9-2.8
	v-7.8c0-1.2-0.3-2.1-0.9-2.8c-0.6-0.7-1.5-1-2.7-1c-1.2,0-2,0.3-2.7,1c-0.6,0.7-0.9,1.6-0.9,2.8v7.8
	C527.7,399.9,528,400.9,528.6,401.5 M521.4,402.3v-4.6l0.7-1.4l2.3,6h2.4l-3.3-8.3l3.3-6.7h-2.4l-3.1,6.5v-6.5H519v15H521.4z
	 M509.3,391c0-0.5,0.1-0.9,0.3-1.2c0.2-0.2,0.5-0.4,0.9-0.4h1.1v4.6h-0.9c-0.5,0-0.8-0.1-1.1-0.4c-0.2-0.2-0.4-0.7-0.4-1.2V391z
	 M509,402.3c0.1-0.2,0.1-0.3,0.1-0.4c0-0.1,0-0.3,0.1-0.5c0-0.2,0-0.6,0-0.9v-2.4c0-0.7,0.1-1.2,0.4-1.5c0.2-0.3,0.6-0.4,1.2-0.4
	h0.8v6.1h2.4v-15h-3.6c-1.2,0-2.1,0.3-2.6,0.8c-0.6,0.6-0.8,1.4-0.8,2.6v1.2c0,1.5,0.5,2.6,1.5,3c-0.6,0.2-1,0.6-1.2,1.2
	c-0.2,0.5-0.4,1.2-0.4,2v2.3c0,0.8-0.1,1.4-0.2,1.8H509z M501.9,390l1.1,7.6h-2.3L501.9,390z M500.1,402.3l0.4-2.7h2.9l0.4,2.7h2.4
	l-2.4-15h-3.6l-2.4,15H500.1z M488.4,402.3c1.2,0,2-0.3,2.6-0.9c0.5-0.6,0.8-1.6,0.9-2.9l0.3-9.1h2v12.9h2.4v-15h-6.8l-0.3,11.4
	c0,0.3,0,0.6-0.1,0.8c0,0.2-0.1,0.4-0.3,0.5c-0.1,0.1-0.3,0.2-0.4,0.2c-0.2,0-0.4,0-0.7,0v2.1H488.4z M482,402.3l2-6.9l1-3.7v10.6
	h2.4v-15h-2.8l-1.9,6.2l-0.9,3.3v-9.5h-2.1v15H482z M468.3,402.3l2.2-6.7l0.6,1.2v5.5h2.4v-5.5l0.6-1.1l2.1,6.6h2.4l-2.9-8.9
	l2.9-6.1h-2.3l-2.8,6.1v-6.1H471v6.1l-2.8-6.1h-2.3l2.9,6.2l-2.9,8.9H468.3z"/>
<path class="st2" d="M343.8,732.5c0-0.6,0.1-1.1,0.4-1.3c0.2-0.3,0.6-0.4,1-0.4c0.4,0,0.7,0.1,1,0.4c0.2,0.3,0.3,0.7,0.3,1.3v0.8
	c0,1.1-0.4,1.6-1.3,1.6c-0.9,0-1.3-0.5-1.3-1.6V732.5z M343.8,738.8c0-1.1,0.4-1.7,1.3-1.7c0.9,0,1.3,0.6,1.3,1.7v1.4
	c0,0.6-0.1,1.1-0.4,1.3c-0.2,0.3-0.6,0.4-1,0.4c-0.4,0-0.7-0.1-1-0.4c-0.2-0.3-0.4-0.7-0.4-1.3V738.8z M342.4,743
	c0.6,0.7,1.5,1,2.7,1s2.1-0.3,2.7-1c0.6-0.7,0.9-1.6,0.9-2.8v-1.2c0-1.5-0.5-2.6-1.5-3.1c1-0.5,1.5-1.5,1.5-3v-0.5
	c0-1.2-0.3-2.1-0.9-2.8c-0.6-0.7-1.5-1-2.7-1s-2.1,0.3-2.7,1c-0.6,0.7-1,1.6-1,2.8v0.5c0,1.5,0.5,2.5,1.5,3c-1,0.6-1.5,1.6-1.5,3.1
	v1.2C341.4,741.5,341.7,742.4,342.4,743 M340.1,741.7h-2.4v2.2h2.4V741.7z M331.3,732.5c0-0.6,0.1-1.1,0.4-1.3
	c0.2-0.3,0.6-0.4,1-0.4c0.4,0,0.7,0.1,1,0.4c0.2,0.3,0.3,0.7,0.3,1.3v0.8c0,1.1-0.4,1.6-1.3,1.6c-0.9,0-1.3-0.5-1.3-1.6V732.5z
	 M331.3,738.8c0-1.1,0.4-1.7,1.3-1.7c0.9,0,1.3,0.6,1.3,1.7v1.4c0,0.6-0.1,1.1-0.4,1.3c-0.2,0.3-0.6,0.4-1,0.4c-0.4,0-0.7-0.1-1-0.4
	c-0.2-0.3-0.4-0.7-0.4-1.3V738.8z M329.9,743c0.6,0.7,1.5,1,2.7,1c1.2,0,2.1-0.3,2.7-1c0.6-0.7,0.9-1.6,0.9-2.8v-1.2
	c0-1.5-0.5-2.6-1.5-3.1c1-0.5,1.5-1.5,1.5-3v-0.5c0-1.2-0.3-2.1-0.9-2.8c-0.6-0.7-1.5-1-2.7-1c-1.2,0-2.1,0.3-2.7,1
	c-0.6,0.7-1,1.6-1,2.8v0.5c0,1.5,0.5,2.5,1.5,3c-1,0.6-1.5,1.6-1.5,3.1v1.2C328.9,741.5,329.3,742.4,329.9,743 M324,732.4v11.5h2.4
	v-15h-1.6c-0.1,0.2-0.2,0.4-0.2,0.6c-0.1,0.2-0.2,0.3-0.3,0.5c-0.1,0.2-0.3,0.3-0.5,0.4c-0.2,0.1-0.4,0.2-0.7,0.3
	c-0.3,0.1-0.6,0.1-0.9,0.1v1.7H324z"/>
<path class="st2" d="M388.2,705.8l1.1,7.6H387L388.2,705.8z M386.3,718.1l0.4-2.7h2.9l0.4,2.7h2.4l-2.4-15h-3.6l-2.4,15H386.3z
	 M378.7,705.2v12.9h2.4v-12.9h2.5v-2.1h-7.3v2.1H378.7z M371.8,705.8l1.1,7.6h-2.3L371.8,705.8z M369.9,718.1l0.4-2.7h2.9l0.4,2.7
	h2.4l-2.4-15H370l-2.4,15H369.9z M361.4,718.1v-6.4h2.7v6.4h2.4v-15h-2.4v6.4h-2.7v-6.4h-2.4v15H361.4z M349.5,718.1v-10.6l1.8,10.6
	h2.2l1.6-10.8v10.8h2.4v-15h-3.4l-1.6,10.7l-1.7-10.7h-3.3v15H349.5z M341.1,706.5c0-1,0.4-1.5,1.2-1.5c0.8,0,1.2,0.5,1.2,1.5v8.1
	c0,1-0.4,1.5-1.2,1.5c-0.8,0-1.2-0.5-1.2-1.5V706.5z M339.7,717.3c0.6,0.7,1.5,1,2.7,1c1.2,0,2-0.3,2.7-1c0.6-0.7,0.9-1.6,0.9-2.8
	v-7.8c0-1.2-0.3-2.1-0.9-2.8c-0.6-0.7-1.5-1-2.7-1c-1.2,0-2,0.3-2.7,1c-0.6,0.7-0.9,1.6-0.9,2.8v7.8
	C338.8,715.7,339.1,716.6,339.7,717.3 M332.4,718.1v-4.6l0.7-1.4l2.3,6h2.4l-3.3-8.3l3.3-6.7h-2.4l-3.1,6.5v-6.5h-2.4v15H332.4z
	 M320.4,706.8c0-0.5,0.1-0.9,0.3-1.2c0.2-0.2,0.5-0.4,0.9-0.4h1.1v4.6h-0.9c-0.5,0-0.8-0.1-1.1-0.4c-0.2-0.2-0.4-0.6-0.4-1.2V706.8z
	 M320.1,718.1c0.1-0.2,0.1-0.3,0.1-0.4c0-0.1,0-0.3,0.1-0.5c0-0.2,0-0.6,0-0.9v-2.4c0-0.7,0.1-1.2,0.4-1.5c0.2-0.3,0.6-0.4,1.2-0.4
	h0.8v6.1h2.4v-15h-3.6c-1.2,0-2.1,0.3-2.6,0.8c-0.6,0.6-0.8,1.4-0.8,2.6v1.2c0,1.5,0.5,2.6,1.5,3c-0.6,0.2-1,0.6-1.2,1.2
	c-0.2,0.5-0.4,1.2-0.4,2v2.3c0,0.8-0.1,1.4-0.2,1.8H320.1z M313,705.8l1.1,7.6h-2.3L313,705.8z M311.2,718.1l0.4-2.7h2.9l0.4,2.7
	h2.4l-2.4-15h-3.6l-2.4,15H311.2z M299.5,718.1c1.2,0,2-0.3,2.6-0.9c0.5-0.6,0.8-1.6,0.9-2.9l0.3-9.1h2v12.9h2.4v-15h-6.8l-0.3,11.4
	c0,0.3,0,0.6-0.1,0.8c0,0.2-0.1,0.4-0.3,0.5c-0.1,0.1-0.3,0.2-0.4,0.2c-0.2,0-0.4,0-0.7,0v2.1H299.5z M293,718.1l2-6.9l1-3.7v10.6
	h2.4v-15h-2.8l-1.9,6.2l-0.9,3.3v-9.5h-2.1v15H293z M279.3,718.1l2.2-6.7l0.6,1.2v5.5h2.4v-5.5l0.6-1.1l2.1,6.6h2.4l-2.9-8.9
	l2.9-6.1h-2.3l-2.8,6.1v-6.1h-2.4v6.1l-2.8-6.1H277l2.9,6.2l-2.9,8.9H279.3z"/>
<path class="st2" d="M343.7,338.2c0-1,0.4-1.5,1.2-1.5c0.8,0,1.2,0.5,1.2,1.5v2.7c0,1-0.4,1.5-1.2,1.5c-0.8,0-1.2-0.5-1.2-1.5V338.2
	z M342,343.6c0.4,0.6,1.1,0.9,2,0.9c1,0,1.8-0.4,2.2-1.3v2.7c0,0.7-0.1,1.2-0.3,1.4c-0.2,0.3-0.5,0.4-1,0.4c-0.8,0-1.2-0.5-1.2-1.5
	v-0.5h-2.2v0.4c0,1.2,0.3,2.1,0.9,2.8c0.6,0.7,1.5,1,2.6,1c2.4,0,3.6-1.3,3.6-3.9v-7.7c0-1.2-0.3-2.1-0.9-2.8c-0.6-0.7-1.5-1-2.7-1
	c-1.2,0-2,0.3-2.7,1c-0.6,0.7-0.9,1.6-0.9,2.8v2.8C341.3,342.2,341.5,343,342,343.6 M339.9,347.6h-2.4v2.2h2.4V347.6z M332.4,338.3
	v11.5h2.4v-15h-1.6c-0.1,0.2-0.2,0.4-0.2,0.6s-0.2,0.3-0.3,0.5c-0.1,0.2-0.3,0.3-0.5,0.4c-0.2,0.1-0.4,0.2-0.7,0.3
	c-0.3,0.1-0.6,0.1-0.9,0.1v1.7H332.4z M323.9,338.3v11.5h2.4v-15h-1.6c-0.1,0.2-0.2,0.4-0.2,0.6c-0.1,0.2-0.2,0.3-0.3,0.5
	c-0.1,0.2-0.3,0.3-0.5,0.4c-0.2,0.1-0.4,0.2-0.7,0.3c-0.3,0.1-0.6,0.1-0.9,0.1v1.7H323.9z"/>
<path class="st2" d="M388,311.7l1.1,7.6h-2.3L388,311.7z M386.1,324l0.4-2.7h2.9l0.4,2.7h2.4l-2.4-15h-3.6l-2.4,15H386.1z
	 M378.5,311.1V324h2.4v-12.9h2.5V309h-7.3v2.1H378.5z M371.6,311.7l1.1,7.6h-2.3L371.6,311.7z M369.8,324l0.4-2.7h2.9l0.4,2.7h2.4
	l-2.4-15h-3.6l-2.4,15H369.8z M361.2,324v-6.4h2.7v6.4h2.4v-15h-2.4v6.4h-2.7V309h-2.4v15H361.2z M349.3,324v-10.6l1.8,10.6h2.2
	l1.6-10.8V324h2.4v-15h-3.4l-1.6,10.7l-1.7-10.7h-3.3v15H349.3z M341,312.4c0-1,0.4-1.5,1.2-1.5c0.8,0,1.2,0.5,1.2,1.5v8.1
	c0,1-0.4,1.5-1.2,1.5c-0.8,0-1.2-0.5-1.2-1.5V312.4z M339.5,323.2c0.6,0.7,1.5,1,2.7,1c1.2,0,2-0.3,2.7-1c0.6-0.7,0.9-1.6,0.9-2.8
	v-7.8c0-1.2-0.3-2.1-0.9-2.8c-0.6-0.7-1.5-1-2.7-1c-1.2,0-2,0.3-2.7,1c-0.6,0.7-0.9,1.6-0.9,2.8v7.8
	C338.6,321.6,338.9,322.5,339.5,323.2 M332.3,324v-4.6l0.7-1.4l2.3,6h2.4l-3.3-8.3l3.3-6.7h-2.4l-3.1,6.5V309h-2.4v15H332.3z
	 M320.2,312.7c0-0.5,0.1-0.9,0.3-1.2c0.2-0.2,0.5-0.4,0.9-0.4h1.1v4.6h-0.9c-0.5,0-0.8-0.1-1.1-0.4c-0.2-0.2-0.4-0.7-0.4-1.2V312.7z
	 M319.9,324c0.1-0.2,0.1-0.3,0.1-0.4c0-0.1,0-0.3,0.1-0.5c0-0.2,0-0.6,0-0.9v-2.4c0-0.7,0.1-1.2,0.4-1.5c0.2-0.3,0.6-0.4,1.2-0.4
	h0.8v6.1h2.4v-15h-3.6c-1.2,0-2.1,0.3-2.6,0.8c-0.6,0.6-0.8,1.4-0.8,2.6v1.2c0,1.5,0.5,2.6,1.5,3c-0.6,0.2-1,0.6-1.2,1.2
	c-0.2,0.5-0.4,1.2-0.4,2v2.3c0,0.8-0.1,1.4-0.2,1.8H319.9z M312.8,311.7l1.1,7.6h-2.3L312.8,311.7z M311,324l0.4-2.7h2.9l0.4,2.7
	h2.4l-2.4-15H311l-2.4,15H311z M299.3,324c1.2,0,2-0.3,2.6-0.9c0.5-0.6,0.8-1.6,0.9-2.9l0.3-9.1h2V324h2.4v-15h-6.8l-0.3,11.4
	c0,0.3,0,0.6-0.1,0.8c0,0.2-0.1,0.4-0.3,0.5c-0.1,0.1-0.3,0.2-0.4,0.2c-0.2,0-0.4,0-0.7,0v2.1H299.3z M292.9,324l2-6.9l1-3.7V324
	h2.4v-15h-2.8l-1.9,6.2l-0.9,3.3V309h-2.1v15H292.9z M279.2,324l2.2-6.7l0.6,1.2v5.5h2.4v-5.5l0.6-1.1l2.1,6.6h2.4l-2.9-8.9l2.9-6.1
	h-2.3l-2.8,6.1V309h-2.4v6.1l-2.8-6.1h-2.3l2.9,6.2l-2.9,8.9H279.2z"/>
<path class="st2" d="M723.3,354c0-0.6,0.1-1.1,0.4-1.3c0.2-0.3,0.6-0.4,1-0.4c0.4,0,0.7,0.1,1,0.4c0.2,0.3,0.3,0.7,0.3,1.3v0.8
	c0,1.1-0.4,1.6-1.3,1.6c-0.9,0-1.3-0.5-1.3-1.6V354z M723.3,360.3c0-1.1,0.4-1.7,1.3-1.7c0.9,0,1.3,0.6,1.3,1.7v1.4
	c0,0.6-0.1,1.1-0.4,1.3c-0.2,0.3-0.6,0.4-1,0.4c-0.4,0-0.7-0.1-1-0.4c-0.2-0.3-0.4-0.7-0.4-1.3V360.3z M721.9,364.6
	c0.6,0.7,1.5,1,2.7,1c1.2,0,2.1-0.3,2.7-1c0.6-0.7,0.9-1.6,0.9-2.8v-1.2c0-1.5-0.5-2.6-1.5-3.1c1-0.5,1.5-1.5,1.5-3V354
	c0-1.2-0.3-2.1-0.9-2.8c-0.6-0.7-1.5-1-2.7-1c-1.2,0-2.1,0.3-2.7,1c-0.6,0.7-1,1.6-1,2.8v0.5c0,1.5,0.5,2.5,1.5,3
	c-1,0.6-1.5,1.6-1.5,3.1v1.2C720.9,363,721.3,363.9,721.9,364.6 M719.6,363.2h-2.4v2.2h2.4V363.2z M709.6,364.6c0.6,0.7,1.5,1,2.7,1
	c1.1,0,2-0.3,2.6-1c0.6-0.7,0.9-1.6,0.9-2.8v-1.2c0-1.6-0.5-2.7-1.6-3.2c1.1-0.5,1.6-1.5,1.6-3.1V354c0-1.2-0.3-2.1-0.9-2.8
	c-0.6-0.7-1.5-1-2.6-1c-1.2,0-2,0.3-2.7,1c-0.6,0.7-1,1.6-1,2.8v0.8h2.4v-1c0-1,0.4-1.5,1.2-1.5c0.4,0,0.7,0.1,0.9,0.4
	c0.2,0.3,0.3,0.7,0.3,1.3v0.8c0,0.6-0.1,1-0.4,1.2c-0.2,0.2-0.6,0.4-1.1,0.4h-0.9v2.1h0.8c0.5,0,0.9,0.1,1.2,0.4
	c0.2,0.3,0.4,0.8,0.4,1.5v1.2c0,0.6-0.1,1.1-0.3,1.3c-0.2,0.3-0.5,0.4-0.9,0.4c-0.8,0-1.2-0.5-1.2-1.5v-1.4h-2.4v1.2
	C708.6,363,709,363.9,709.6,364.6 M703.6,353.9v11.5h2.4v-15h-1.6c-0.1,0.2-0.2,0.4-0.2,0.6c-0.1,0.2-0.2,0.3-0.3,0.5
	c-0.1,0.2-0.3,0.3-0.5,0.4c-0.2,0.1-0.4,0.2-0.7,0.3c-0.3,0.1-0.6,0.1-0.9,0.1v1.7H703.6z"/>
<path class="st2" d="M730.9,328.3c0-0.5,0.1-0.9,0.3-1.2c0.2-0.2,0.5-0.4,0.9-0.4h1.1v4.6h-0.9c-0.5,0-0.8-0.1-1.1-0.4
	c-0.2-0.2-0.4-0.7-0.4-1.2V328.3z M730.7,339.6c0.1-0.2,0.1-0.3,0.1-0.4c0-0.1,0-0.3,0.1-0.5c0-0.2,0-0.6,0-0.9v-2.4
	c0-0.7,0.1-1.2,0.4-1.5c0.2-0.3,0.6-0.4,1.2-0.4h0.8v6.1h2.4v-15H732c-1.2,0-2.1,0.3-2.6,0.8c-0.6,0.6-0.8,1.4-0.8,2.6v1.2
	c0,1.5,0.5,2.6,1.5,3c-0.6,0.2-1,0.6-1.2,1.2c-0.2,0.5-0.4,1.2-0.4,2v2.3c0,0.8-0.1,1.4-0.2,1.8H730.7z M721.9,339.6v-6.4h2.7v6.4
	h2.4v-15h-2.4v6.4h-2.7v-6.4h-2.4v15H721.9z M712.1,339.6l1.8-5.6l1.8,5.6h2.4l-2.6-7.7l2.5-7.4h-2.1l-1.8,5.6l-1.8-5.6H710l2.5,7.3
	l-2.6,7.7H712.1z M704.2,336.2l0,0.1c-0.1,0.5-0.3,0.9-0.6,1c-0.3,0.2-0.8,0.2-1.5,0.2v2.1c0.6,0,1.2,0,1.7-0.1
	c0.5-0.1,0.9-0.2,1.2-0.4c0.3-0.2,0.6-0.5,0.8-0.8s0.4-0.7,0.6-1.1c0.1-0.4,0.3-0.9,0.4-1.5l2.5-11.2h-2.4l-1.1,5.2l-0.6,3.5
	l-0.7-3.5l-1.3-5.1h-2.4L704.2,336.2z M695.1,339.6V335l0.7-1.4l2.3,6h2.4l-3.3-8.3l3.3-6.7h-2.4l-3.1,6.5v-6.5h-2.4v15H695.1z"/>
<path class="st2" d="M717.9,531.6c0.6,0.7,1.5,1,2.7,1c1.1,0,2-0.3,2.6-1c0.6-0.7,0.9-1.6,0.9-2.8v-1.2c0-1.6-0.5-2.7-1.6-3.2
	c1.1-0.5,1.6-1.5,1.6-3.1V521c0-1.2-0.3-2.1-0.9-2.8c-0.6-0.7-1.5-1-2.6-1c-1.2,0-2,0.3-2.7,1c-0.6,0.7-1,1.6-1,2.8v0.8h2.4v-1
	c0-1,0.4-1.5,1.2-1.5c0.4,0,0.7,0.1,0.9,0.4c0.2,0.3,0.3,0.7,0.3,1.3v0.8c0,0.6-0.1,1-0.4,1.2c-0.2,0.2-0.6,0.4-1.1,0.4h-0.9v2.1
	h0.8c0.5,0,0.9,0.1,1.2,0.4c0.2,0.3,0.4,0.8,0.4,1.5v1.2c0,0.6-0.1,1.1-0.3,1.3c-0.2,0.3-0.5,0.4-0.9,0.4c-0.8,0-1.2-0.5-1.2-1.5
	v-1.4h-2.4v1.2C716.9,530.1,717.2,531,717.9,531.6 M715.4,530.3h-2.4v2.2h2.4V530.3z M709.1,519.6l-3.5,12.9h2.4l3.5-13v-2.1h-7.1
	v2.1H709.1z"/>
<path class="st2" d="M745.9,495.4c0-0.5,0.1-0.9,0.3-1.2c0.2-0.2,0.5-0.4,0.9-0.4h1.1v4.6h-0.9c-0.5,0-0.8-0.1-1.1-0.4
	c-0.2-0.2-0.4-0.7-0.4-1.2V495.4z M745.6,506.7c0.1-0.2,0.1-0.3,0.1-0.4c0-0.1,0-0.3,0.1-0.5c0-0.2,0-0.6,0-0.9v-2.4
	c0-0.7,0.1-1.2,0.4-1.5c0.2-0.3,0.6-0.4,1.2-0.4h0.8v6.1h2.4v-15H747c-1.2,0-2.1,0.3-2.7,0.8c-0.6,0.6-0.8,1.4-0.8,2.6v1.2
	c0,1.5,0.5,2.6,1.5,3c-0.6,0.2-1,0.6-1.2,1.2c-0.2,0.5-0.4,1.2-0.4,2v2.3c0,0.8-0.1,1.4-0.2,1.8H745.6z M738.5,494.4l1.1,7.6h-2.3
	L738.5,494.4z M736.7,506.7l0.4-2.7h2.9l0.4,2.7h2.4l-2.4-15h-3.6l-2.4,15H736.7z M723.6,506.7l2.2-6.7l0.6,1.2v5.5h2.4v-5.5
	l0.6-1.1l2.1,6.6h2.4l-2.9-8.9l2.9-6.1h-2.3l-2.8,6.1v-6.1h-2.4v6.1l-2.8-6.1h-2.3l2.9,6.2l-2.9,8.9H723.6z M715.6,495.1
	c0-1,0.4-1.5,1.2-1.5c0.8,0,1.2,0.5,1.2,1.5v8.1c0,1-0.4,1.5-1.2,1.5c-0.8,0-1.2-0.5-1.2-1.5V495.1z M714.2,505.9
	c0.6,0.7,1.5,1,2.7,1c1.2,0,2-0.3,2.7-1c0.6-0.7,0.9-1.6,0.9-2.8v-7.8c0-1.2-0.3-2.1-0.9-2.8c-0.6-0.7-1.5-1-2.7-1
	c-1.2,0-2,0.3-2.7,1c-0.6,0.7-0.9,1.6-0.9,2.8v7.8C713.3,504.3,713.6,505.2,714.2,505.9 M706.1,506.7l1.8-5.6l1.8,5.6h2.4l-2.6-7.7
	l2.5-7.4h-2.1l-1.8,5.6l-1.8-5.6h-2.4l2.5,7.3l-2.6,7.7H706.1z M697.5,506.7l2-6.9l1-3.7v10.6h2.4v-15H700l-1.9,6.2l-0.9,3.3v-9.5
	h-2.1v15H697.5z M689.4,493.8h1.1c0.4,0,0.7,0.1,0.9,0.3c0.2,0.2,0.3,0.6,0.3,1.1v2.3c0,0.5-0.1,0.9-0.3,1.1
	c-0.2,0.2-0.5,0.3-0.9,0.3h-1.1V493.8z M689.4,506.7v-5.6h1.1c1.2,0,2-0.3,2.6-0.9c0.6-0.6,0.9-1.6,0.9-2.8v-1.9
	c0-1.2-0.3-2.1-0.9-2.8c-0.6-0.6-1.5-1-2.6-1H687v15H689.4z M680.2,506.7v-12.9h2.7v12.9h2.4v-15h-7.4v15H680.2z"/>
<path class="st2" d="M527.1,552.4c0.6,0.7,1.5,1,2.7,1c1.1,0,2-0.3,2.6-1c0.6-0.7,0.9-1.6,0.9-2.8v-1.2c0-1.6-0.5-2.7-1.6-3.2
	c1.1-0.5,1.6-1.5,1.6-3.1v-0.4c0-1.2-0.3-2.1-0.9-2.8c-0.6-0.7-1.5-1-2.6-1c-1.2,0-2,0.3-2.7,1s-1,1.6-1,2.8v0.8h2.4v-1
	c0-1,0.4-1.5,1.2-1.5c0.4,0,0.7,0.1,0.9,0.4c0.2,0.3,0.3,0.7,0.3,1.3v0.8c0,0.6-0.1,1-0.4,1.2c-0.2,0.2-0.6,0.4-1.1,0.4h-0.9v2.1
	h0.8c0.5,0,0.9,0.1,1.2,0.4c0.2,0.3,0.4,0.8,0.4,1.5v1.2c0,0.6-0.1,1.1-0.3,1.3c-0.2,0.3-0.5,0.4-0.9,0.4c-0.8,0-1.2-0.5-1.2-1.5
	v-1.4h-2.4v1.2C526.1,550.8,526.5,551.8,527.1,552.4 M524.6,551.1h-2.4v2.2h2.4V551.1z M515.8,541.9c0-0.6,0.1-1.1,0.4-1.3
	s0.6-0.4,1-0.4c0.4,0,0.7,0.1,1,0.4c0.2,0.3,0.3,0.7,0.3,1.3v0.8c0,1.1-0.4,1.6-1.3,1.6c-0.9,0-1.3-0.5-1.3-1.6V541.9z M515.8,548.2
	c0-1.1,0.4-1.7,1.3-1.7c0.9,0,1.3,0.6,1.3,1.7v1.4c0,0.6-0.1,1.1-0.4,1.3c-0.2,0.3-0.6,0.4-1,0.4c-0.4,0-0.7-0.1-1-0.4
	c-0.2-0.3-0.4-0.7-0.4-1.3V548.2z M514.4,552.4c0.6,0.7,1.5,1,2.7,1s2.1-0.3,2.7-1c0.6-0.7,0.9-1.6,0.9-2.8v-1.2
	c0-1.5-0.5-2.6-1.5-3.1c1-0.5,1.5-1.6,1.5-3v-0.5c0-1.2-0.3-2.1-0.9-2.8s-1.5-1-2.7-1s-2.1,0.3-2.7,1s-1,1.6-1,2.8v0.5
	c0,1.5,0.5,2.5,1.5,3c-1,0.6-1.5,1.6-1.5,3.1v1.2C513.5,550.8,513.8,551.8,514.4,552.4"/>
<path class="st2" d="M549.4,514.6h1.1c0.4,0,0.7,0.1,0.9,0.3c0.2,0.2,0.3,0.6,0.3,1.1v2.3c0,0.5-0.1,0.9-0.3,1.1
	c-0.2,0.2-0.5,0.3-0.9,0.3h-1.1V514.6z M549.4,527.5v-5.6h1.1c1.2,0,2-0.3,2.6-0.9c0.6-0.6,0.9-1.6,0.9-2.8v-1.9
	c0-1.2-0.3-2.1-0.9-2.8c-0.6-0.6-1.5-1-2.6-1H547v15H549.4z M540.7,515.9c0-1,0.4-1.5,1.2-1.5c0.8,0,1.2,0.5,1.2,1.5v8.1
	c0,1-0.4,1.5-1.2,1.5c-0.8,0-1.2-0.5-1.2-1.5V515.9z M539.3,526.7c0.6,0.7,1.5,1,2.7,1c1.2,0,2-0.3,2.7-1c0.6-0.7,0.9-1.6,0.9-2.8
	v-7.8c0-1.2-0.3-2.1-0.9-2.8c-0.6-0.7-1.5-1-2.7-1c-1.2,0-2,0.3-2.7,1c-0.6,0.7-0.9,1.6-0.9,2.8v7.8
	C538.3,525.1,538.6,526,539.3,526.7 M531.2,524.6c0.1-0.3,0.2-0.7,0.2-1.3l0.4-8.8h2v10.7h-3.1C530.9,525.2,531.1,524.9,531.2,524.6
	 M529.8,529.5v-2h5v2h2.4v-4.1h-1v-12.9h-6.7l-0.4,10.9c0,0.5-0.1,0.8-0.2,1.1c-0.1,0.3-0.2,0.6-0.4,0.8h-1v4.1H529.8z M521.3,527.5
	l2-6.9l1-3.7v10.6h2.4v-15h-2.8l-1.9,6.2L521,522v-9.5h-2.1v15H521.3z M513.2,514.6h1.1c0.4,0,0.7,0.1,0.9,0.3
	c0.2,0.2,0.3,0.6,0.3,1.1v2.3c0,0.5-0.1,0.9-0.3,1.1c-0.2,0.2-0.5,0.3-0.9,0.3h-1.1V514.6z M513.2,527.5v-5.6h1.1
	c1.2,0,2-0.3,2.6-0.9c0.6-0.6,0.9-1.6,0.9-2.8v-1.9c0-1.2-0.3-2.1-0.9-2.8c-0.6-0.6-1.5-1-2.6-1h-3.5v15H513.2z M504.5,515.9
	c0-1,0.4-1.5,1.2-1.5c0.8,0,1.2,0.5,1.2,1.5v8.1c0,1-0.4,1.5-1.2,1.5c-0.8,0-1.2-0.5-1.2-1.5V515.9z M503.1,526.7
	c0.6,0.7,1.5,1,2.7,1c1.2,0,2-0.3,2.7-1c0.6-0.7,0.9-1.6,0.9-2.8v-7.8c0-1.2-0.3-2.1-0.9-2.8c-0.6-0.7-1.5-1-2.7-1
	c-1.2,0-2,0.3-2.7,1c-0.6,0.7-0.9,1.6-0.9,2.8v7.8C502.1,525.1,502.4,526,503.1,526.7 M495.8,527.5v-4.6l0.7-1.4l2.3,6h2.4l-3.3-8.3
	l3.3-6.7h-2.4l-3.1,6.5v-6.5h-2.4v15H495.8z"/>
<path class="st2" d="M727.5,178.8c1.2,0,2-0.2,2.5-0.7c0.5-0.5,0.8-1.3,0.8-2.5v-8.5c0-1.2-0.3-2-0.8-2.5c-0.5-0.5-1.4-0.8-2.5-0.8
	h-0.7v2h0.6c0.4,0,0.7,0.1,0.8,0.3c0.2,0.2,0.3,0.5,0.3,1v8.3c0,0.5-0.1,0.9-0.3,1c-0.2,0.2-0.5,0.3-0.8,0.3h-0.6v2H727.5z
	 M722.8,168.3v5.6h-2.4L722.8,168.3z M722.8,176.1v2.7h2.4v-2.7h1.1v-2.1h-1.1v-10.2h-2.6l-4.3,10.2v2.1H722.8z M717.2,176.6h-2.4
	v2.2h2.4V176.6z M710.3,168.3v5.6H708L710.3,168.3z M710.3,176.1v2.7h2.4v-2.7h1.1v-2.1h-1.1v-10.2h-2.6l-4.3,10.2v2.1H710.3z
	 M701.9,178.1c0.5,0.5,1.4,0.7,2.5,0.7h0.7v-2h-0.6c-0.4,0-0.7-0.1-0.8-0.3c-0.2-0.2-0.3-0.5-0.3-1v-8.3c0-0.5,0.1-0.9,0.3-1
	c0.2-0.2,0.5-0.3,0.8-0.3h0.6v-2h-0.7c-1.2,0-2,0.3-2.5,0.8c-0.5,0.5-0.8,1.3-0.8,2.5v8.5C701.1,176.7,701.4,177.6,701.9,178.1
	 M691.2,167.5c0-0.6,0.1-1.1,0.4-1.3c0.2-0.3,0.6-0.4,1-0.4c0.4,0,0.7,0.1,1,0.4c0.2,0.3,0.3,0.7,0.3,1.3v0.8c0,1.1-0.4,1.6-1.3,1.6
	c-0.9,0-1.3-0.5-1.3-1.6V167.5z M691.2,173.8c0-1.1,0.4-1.7,1.3-1.7c0.9,0,1.3,0.6,1.3,1.7v1.4c0,0.6-0.1,1.1-0.4,1.3
	c-0.2,0.3-0.6,0.4-1,0.4c-0.4,0-0.7-0.1-1-0.4c-0.2-0.3-0.4-0.7-0.4-1.3V173.8z M689.8,178c0.6,0.7,1.5,1,2.7,1s2.1-0.3,2.7-1
	c0.6-0.7,0.9-1.6,0.9-2.8V174c0-1.5-0.5-2.6-1.5-3.1c1-0.5,1.5-1.6,1.5-3v-0.5c0-1.2-0.3-2.1-0.9-2.8s-1.5-1-2.7-1s-2.1,0.3-2.7,1
	s-1,1.6-1,2.8v0.5c0,1.5,0.5,2.5,1.5,3c-1,0.6-1.5,1.6-1.5,3.1v1.2C688.8,176.4,689.2,177.3,689.8,178 M687.5,176.6h-2.4v2.2h2.4
	V176.6z M678.7,167.5c0-0.6,0.1-1.1,0.4-1.3c0.2-0.3,0.6-0.4,1-0.4c0.4,0,0.7,0.1,1,0.4c0.2,0.3,0.3,0.7,0.3,1.3v0.8
	c0,1.1-0.4,1.6-1.3,1.6c-0.9,0-1.3-0.5-1.3-1.6V167.5z M678.7,173.8c0-1.1,0.4-1.7,1.3-1.7c0.9,0,1.3,0.6,1.3,1.7v1.4
	c0,0.6-0.1,1.1-0.4,1.3c-0.2,0.3-0.6,0.4-1,0.4c-0.4,0-0.7-0.1-1-0.4c-0.2-0.3-0.4-0.7-0.4-1.3V173.8z M677.3,178
	c0.6,0.7,1.5,1,2.7,1s2.1-0.3,2.7-1c0.6-0.7,0.9-1.6,0.9-2.8V174c0-1.5-0.5-2.6-1.5-3.1c1-0.5,1.5-1.6,1.5-3v-0.5
	c0-1.2-0.3-2.1-0.9-2.8c-0.6-0.7-1.5-1-2.7-1s-2.1,0.3-2.7,1c-0.6,0.7-1,1.6-1,2.8v0.5c0,1.5,0.5,2.5,1.5,3c-1,0.6-1.5,1.6-1.5,3.1
	v1.2C676.4,176.4,676.7,177.3,677.3,178"/>
<path class="st2" d="M555.3,374.8v-4.9h-10.2c0-0.2,0-0.4,0-0.7c0-0.8,0.2-1.5,0.6-2.3c0.4-0.8,0.9-1.6,1.5-2.3
	c0.6-0.8,1.3-1.5,2.1-2.4c0.8-0.8,1.5-1.7,2.3-2.7c0.8-0.9,1.4-1.9,2.1-3c0.6-1,1.1-2.2,1.5-3.6c0.4-1.3,0.6-2.8,0.6-4.2
	c0-2.8-0.7-4.9-2.1-6.4c-1.4-1.5-3.4-2.2-6-2.2c-2.6,0-4.6,0.7-6,2.2c-1.4,1.5-2.1,3.6-2.1,6.4v3.4h5.1v-3.7c0-2.3,0.9-3.4,2.8-3.4
	c0.9,0,1.6,0.3,2.1,0.9c0.5,0.6,0.7,1.6,0.7,3.1c0,1.3-0.2,2.6-0.6,3.8c-0.4,1.2-0.9,2.2-1.5,3.1c-0.6,0.9-1.3,1.8-2.1,2.6
	c-0.8,0.8-1.5,1.7-2.3,2.5c-0.8,0.9-1.5,1.7-2.1,2.6c-0.6,0.9-1.1,2-1.5,3.2c-0.4,1.2-0.6,2.5-0.6,3.8v4.2H555.3z M536.1,369.9h-5.4
	v5h5.4V369.9z M516.3,360.8c0-2.3,0.9-3.4,2.8-3.4c1.9,0,2.8,1.1,2.8,3.4v6.2c0,2.2-0.9,3.4-2.8,3.4c-1.9,0-2.8-1.1-2.8-3.4V360.8z
	 M513,373c1.4,1.5,3.4,2.3,6.1,2.3s4.7-0.8,6.1-2.3c1.4-1.5,2.1-3.6,2.1-6.4v-6.3c0-2.6-0.5-4.5-1.5-5.8c-1-1.3-2.5-2-4.5-2
	c-2.4,0-4,1-5,3v-6.3c0-1.6,0.2-2.7,0.7-3.3c0.5-0.6,1.2-0.9,2.3-0.9c1.9,0,2.8,1.1,2.8,3.4v1.2h5.1v-0.9c0-2.8-0.7-4.9-2.1-6.4
	c-1.4-1.5-3.4-2.2-6-2.2c-5.5,0-8.2,3-8.2,8.9v17.5C510.9,369.3,511.6,371.5,513,373 M496.5,349c0-1.4,0.3-2.5,0.8-3
	c0.5-0.6,1.3-0.9,2.2-0.9c1,0,1.7,0.3,2.2,0.9c0.5,0.6,0.8,1.6,0.8,3.1v1.9c0,2.4-1,3.6-3,3.6c-2,0-3.1-1.2-3.1-3.6V349z
	 M496.5,363.3c0-2.6,1-3.9,3.1-3.9c2,0,3,1.3,3,3.9v3.2c0,1.4-0.3,2.4-0.8,3c-0.5,0.6-1.3,0.9-2.2,0.9c-1,0-1.7-0.3-2.2-0.9
	c-0.5-0.6-0.8-1.6-0.8-3V363.3z M493.3,373c1.5,1.5,3.5,2.3,6.3,2.3c2.7,0,4.8-0.8,6.2-2.3c1.4-1.5,2.2-3.6,2.2-6.4v-2.7
	c0-3.5-1.1-5.9-3.3-7.2c2.2-1.2,3.3-3.5,3.3-6.9v-1.1c0-2.7-0.7-4.9-2.2-6.4c-1.4-1.5-3.5-2.3-6.2-2.3c-2.7,0-4.8,0.8-6.3,2.3
	c-1.5,1.5-2.2,3.6-2.2,6.4v1.1c0,3.4,1.1,5.7,3.3,6.9c-2.2,1.3-3.3,3.6-3.3,7.2v2.7C491.1,369.3,491.9,371.5,493.3,373"/>
<path class="st1" d="M523.5,330.5c16.6,0,30.1-13.5,30.1-30.1c0-16.6-13.5-30.1-30.1-30.1s-30.1,13.5-30.1,30.1
	C493.5,317,506.9,330.5,523.5,330.5z"/>
<path class="st2" d="M528.8,315.3v-8l1.3-2.4l4,10.4h4.2l-5.7-14.4l5.7-11.6h-4.1l-5.3,11.3v-11.3h-4.1v26H528.8z M511.4,313.9
	c1.1,1.1,2.6,1.7,4.6,1.7c2,0,3.5-0.6,4.5-1.7c1-1.1,1.5-2.7,1.5-4.8v-2c0-2.8-0.9-4.6-2.8-5.5c1.9-0.8,2.8-2.6,2.8-5.3v-0.7
	c0-2.1-0.5-3.7-1.5-4.8c-1-1.1-2.5-1.7-4.5-1.7c-2,0-3.5,0.6-4.6,1.7c-1.1,1.1-1.6,2.7-1.6,4.8v1.4h4.1v-1.7c0-1.7,0.7-2.6,2.1-2.6
	c0.7,0,1.2,0.2,1.6,0.7c0.4,0.4,0.5,1.2,0.5,2.3v1.5c0,1-0.2,1.7-0.6,2.1c-0.4,0.4-1,0.6-1.8,0.6H514v3.7h1.4c0.9,0,1.6,0.3,2,0.8
	c0.4,0.5,0.6,1.4,0.6,2.5v2c0,1.1-0.2,1.8-0.5,2.3c-0.4,0.4-0.9,0.7-1.6,0.7c-1.4,0-2.1-0.9-2.1-2.6v-2.4h-4.1v2.2
	C509.8,311.1,510.3,312.7,511.4,313.9"/>
<line class="st1" x1="771" y1="430.3" x2="806.8" y2="430.3"/>
<path class="st2" d="M331.5,457.3c0.4,0.4,0.9,0.6,1.6,0.6s1.2-0.2,1.6-0.6c0.4-0.4,0.5-0.9,0.5-1.7v-2c0-0.7-0.1-1.2-0.4-1.5
	c-0.3-0.4-0.7-0.5-1.2-0.5c-0.6,0-1,0.2-1.2,0.7l0.1-2.2h2.5v-1.3h-3.8l-0.3,5.2h1.4v-0.3c0-0.6,0.2-0.9,0.7-0.9
	c0.5,0,0.7,0.3,0.7,0.9v2c0,0.6-0.2,0.9-0.7,0.9c-0.5,0-0.7-0.3-0.7-0.9v-0.8h-1.4v0.7C330.9,456.4,331.1,456.9,331.5,457.3
	 M330,456.5h-1.4v1.3h1.4V456.5z M325.5,450.9v6.9h1.4v-9h-1c-0.1,0.1-0.1,0.3-0.1,0.4c0,0.1-0.1,0.2-0.2,0.3
	c-0.1,0.1-0.2,0.2-0.3,0.3c-0.1,0.1-0.2,0.1-0.4,0.2c-0.2,0-0.4,0.1-0.6,0.1v1H325.5z"/>
<path class="st2" d="M333.7,440.3L333.7,440.3c-0.1,0.4-0.2,0.6-0.4,0.7c-0.2,0.1-0.5,0.1-0.9,0.1v1.3c0.4,0,0.7,0,1,0
	c0.3-0.1,0.5-0.1,0.7-0.3c0.2-0.1,0.4-0.3,0.5-0.5c0.1-0.2,0.3-0.4,0.3-0.7c0.1-0.2,0.2-0.5,0.2-0.9l1.5-6.7h-1.4l-0.6,3.1l-0.3,2.1
	l-0.4-2.1l-0.8-3.1h-1.4L333.7,440.3z M328,442.4l3.6-9h-1.2l-3.6,9H328z M322.7,441.9c0.4,0.4,0.9,0.6,1.6,0.6
	c0.7,0,1.2-0.2,1.6-0.6c0.4-0.4,0.6-0.9,0.6-1.7V439H325v1.3c0,0.6-0.2,0.9-0.7,0.9c-0.5,0-0.7-0.3-0.7-0.9v-4.9
	c0-0.6,0.2-0.9,0.7-0.9c0.5,0,0.7,0.3,0.7,0.9v1h1.4v-0.9c0-0.7-0.2-1.3-0.6-1.7c-0.4-0.4-0.9-0.6-1.6-0.6c-0.7,0-1.2,0.2-1.6,0.6
	c-0.4,0.4-0.5,0.9-0.5,1.7v4.7C322.1,440.9,322.3,441.5,322.7,441.9"/>
<path class="st2" d="M325,546.3c0.4,0.4,0.9,0.6,1.6,0.6c0.7,0,1.2-0.2,1.6-0.6c0.4-0.4,0.5-0.9,0.5-1.7v-2c0-0.7-0.1-1.2-0.4-1.5
	c-0.3-0.3-0.7-0.5-1.2-0.5c-0.6,0-1,0.2-1.2,0.7l0.1-2.2h2.5v-1.3h-3.8l-0.3,5.2h1.4v-0.3c0-0.6,0.2-0.9,0.7-0.9
	c0.5,0,0.7,0.3,0.7,0.9v2c0,0.6-0.2,0.9-0.7,0.9c-0.5,0-0.7-0.3-0.7-0.9v-0.8h-1.4v0.7C324.4,545.3,324.6,545.9,325,546.3
	 M323.5,545.4h-1.4v1.3h1.4V545.4z M317.5,546.3c0.4,0.4,0.9,0.6,1.6,0.6s1.2-0.2,1.6-0.6c0.4-0.4,0.5-0.9,0.5-1.7v-0.7
	c0-1-0.3-1.6-1-1.9c0.7-0.3,1-0.9,1-1.9v-0.2c0-0.7-0.2-1.3-0.5-1.7c-0.4-0.4-0.9-0.6-1.6-0.6s-1.2,0.2-1.6,0.6
	c-0.4,0.4-0.6,0.9-0.6,1.7v0.5h1.4v-0.6c0-0.6,0.2-0.9,0.7-0.9c0.2,0,0.4,0.1,0.5,0.2c0.1,0.2,0.2,0.4,0.2,0.8v0.5
	c0,0.3-0.1,0.6-0.2,0.7c-0.1,0.1-0.4,0.2-0.6,0.2h-0.6v1.3h0.5c0.3,0,0.6,0.1,0.7,0.3c0.1,0.2,0.2,0.5,0.2,0.9v0.7
	c0,0.4-0.1,0.6-0.2,0.8c-0.1,0.2-0.3,0.2-0.5,0.2c-0.5,0-0.7-0.3-0.7-0.9v-0.8h-1.4v0.7C316.9,545.3,317.1,545.9,317.5,546.3"/>
<path class="st2" d="M335.4,524.5c0-0.3,0.1-0.6,0.2-0.7c0.1-0.2,0.3-0.2,0.5-0.2h0.7v2.8h-0.6c-0.3,0-0.5-0.1-0.6-0.2
	c-0.1-0.1-0.2-0.4-0.2-0.7V524.5z M335.2,531.3c0-0.1,0.1-0.2,0.1-0.2c0-0.1,0-0.2,0-0.3c0-0.1,0-0.3,0-0.6v-1.4
	c0-0.4,0.1-0.7,0.2-0.9c0.1-0.2,0.4-0.3,0.7-0.3h0.5v3.7h1.4v-9h-2.1c-0.7,0-1.3,0.2-1.6,0.5c-0.3,0.3-0.5,0.9-0.5,1.6v0.7
	c0,0.9,0.3,1.5,0.9,1.8c-0.3,0.1-0.6,0.4-0.7,0.7c-0.1,0.3-0.2,0.7-0.2,1.2v1.4c0,0.5,0,0.9-0.1,1.1H335.2z M331,523.9l0.7,4.5h-1.4
	L331,523.9z M329.9,531.3l0.2-1.6h1.7l0.2,1.6h1.4l-1.4-9h-2.2l-1.4,9H329.9z M324.7,531.3v-3.9h1.6v3.9h1.4v-9h-1.4v3.9h-1.6v-3.9
	h-1.4v9H324.7z M319.3,531.3v-3.9h1.6v3.9h1.4v-9h-1.4v3.9h-1.6v-3.9h-1.4v9H319.3z M314.8,523.9l0.7,4.5h-1.4L314.8,523.9z
	 M313.6,531.3l0.2-1.6h1.7l0.2,1.6h1.4l-1.4-9h-2.2l-1.4,9H313.6z M308.8,523.6h0.7c0.3,0,0.4,0.1,0.5,0.2c0.1,0.1,0.2,0.4,0.2,0.7
	v0.5c0,0.3-0.1,0.6-0.2,0.7c-0.1,0.1-0.4,0.2-0.6,0.2h-0.6V523.6z M308.8,527.2h0.6c0.3,0,0.6,0.1,0.7,0.2c0.1,0.2,0.2,0.4,0.2,0.9
	v0.8c0,0.3-0.1,0.6-0.2,0.7c-0.1,0.1-0.3,0.2-0.6,0.2h-0.8V527.2z M309.6,531.3c0.7,0,1.2-0.2,1.6-0.5c0.4-0.4,0.5-0.9,0.5-1.6v-0.7
	c0-1-0.4-1.7-1.1-1.9c0.6-0.3,0.9-0.9,0.9-1.8v-0.3c0-0.7-0.2-1.2-0.5-1.6c-0.3-0.3-0.9-0.5-1.6-0.5h-2.1v9H309.6z"/>
</svg>
