<svg xmlns="http://www.w3.org/2000/svg" xmlns:xlink="http://www.w3.org/1999/xlink" xml:space="preserve" id="Слой_1" x="0" y="0" style="enable-background:new 0 0 248.7 262.8" version="1.1" viewBox="0 0 248.7 262.8"><style>.st1{fill:#39363a}.st2{stroke-width:.75}.st13,.st18,.st2,.st7{fill:none;stroke:#39363a}.st7{stroke-width:.7}.st13{stroke-width:.25}.st18{clip-path:url(#SVGID_20_);stroke-width:.7}.st19,.st20{clip-path:url(#SVGID_22_);fill:#39363a}.st20{fill:none;stroke:#39363a;stroke-width:.25}.st21,.st22{clip-path:url(#SVGID_24_);fill:#39363a}.st22{fill:none;stroke:#39363a;stroke-width:.25}</style><switch><g><path d="M26.6 27h197.9v153.4H26.6z" style="fill:#f5ccce"/><path d="M111.4 19.9H231V27H111.4zm-92 0h64V27h-64z" class="st1"/><path d="M223.9 19.9h7.1v208.4h-7.1zm-101.7 49h7.4v120.6h-7.4zm0 143.5h7.4v25.9h-7.4zM19.4 19.9h7.4v220.5h-7.4zm102.8 0h7.4v23.2h-7.4z" class="st1"/><path d="M120.2 235.6h11.3v7.9h-11.3zm-100.8 0h9.4v7.9h-9.4zM22.5 109h57.1v4.4H22.5zm88.2-10.4h15.7v4.4h-15.7zm-33.1 0h10.3v4.4H77.6z" class="st1"/><path d="M75.2 94.2h4.4v19.3h-4.4zm-1.5-45.6h4.4v26.2h-4.4z" class="st1"/><path d="M25.4 48.6h52.7V53H25.4z" class="st1"/><path d="M25.9 233.8h97.7v2.1H25.9z" class="st2"/><defs><path id="SVGID_1_" d="M19.4 19.9h211.5v223.7H19.4z"/></defs><clipPath id="SVGID_2_"><use xlink:href="#SVGID_1_" style="overflow:visible"/></clipPath><path d="M25.9 229.4h97.7v13.8H25.9z" style="clip-path:url(#SVGID_2_);fill:none;stroke:#39363a;stroke-width:.75"/><path d="m128.34 234.105 98.277-15.558.328 2.074-98.276 15.558z" class="st2"/><defs><path id="SVGID_3_" d="M19.4 19.9h211.5v223.7H19.4z"/></defs><clipPath id="SVGID_4_"><use xlink:href="#SVGID_3_" style="overflow:visible"/></clipPath><path d="M128 221.4h99.5v13.8H128z" style="clip-path:url(#SVGID_4_);fill:none;stroke:#39363a;stroke-width:.75" transform="rotate(-8.996 177.743 228.31)"/><path d="M167.2 191.5h51.4v2.1h-51.4z" class="st2"/><path d="M167.2 180.8h51.4v12.9h-51.4z" class="st2"/><defs><path id="SVGID_5_" d="M19.4 19.9h211.5v223.7H19.4z"/></defs><clipPath id="SVGID_6_"><use xlink:href="#SVGID_5_" style="overflow:visible"/></clipPath><path d="M183.1 133c.8 0 1 .3 1 2.2 0 1.9-.2 2.2-1 2.2s-1-.3-1-2.2c0-1.8.2-2.2 1-2.2m0-1.5c-2.2 0-2.9.9-2.9 3.7 0 2.8.7 3.7 2.9 3.7s2.9-.9 2.9-3.7c0-2.7-.7-3.7-2.9-3.7m-4.9 5.6c-.5 0-.7.2-.7.7v.5c0 .5.2.7.7.7h.4c.5 0 .7-.2.7-.7v-.5c0-.5-.2-.7-.7-.7h-.4zm-5.2-3c0-.9.1-1.2.8-1.2.8 0 .9.3.9 1.9-.3.2-.6.3-.9.3-.6 0-.8-.2-.8-1m-1.5 4.7c.8.2 1.6.2 2 .2 2.3 0 3.1-.5 3.1-3.8 0-2.9-.5-3.6-2.7-3.6-2.1 0-2.7.8-2.7 2.6 0 1.3.5 2.2 2.1 2.2.6 0 1.1-.1 1.5-.4-.1 1.2-.3 1.6-1.3 1.6h-1.9l-.1 1.2zm-1.5.1v-7.2h-1.9l-1.8.7.2 1.2 1.7-.4c-.1.3-.1.6-.1.9v4.8h1.9zm43.2-12.3c0-.2.1-.4.4-.4h1.1v.6c-.3.2-.7.4-1 .4-.3 0-.5-.1-.5-.4v-.2zm-1.4-2.1c.9-.1 1.7-.1 2.2-.1.5 0 .7.2.7.6v.1H213c-1 0-1.7.5-1.7 1.3v.5c0 1 .8 1.5 1.7 1.5.9 0 1.5-.5 1.8-.9l.2.8h1.5V125c0-1.5-.8-2-2.2-2-.8 0-2.1.1-2.8.3l.3 1.2zm-.9.1v-1.4h-5.2v1.4h1.6v3.7h1.9v-3.7h1.7zm-9.2 2c0-.2.1-.4.4-.4h1.1v.6c-.3.2-.7.4-1 .4-.3 0-.5-.1-.5-.4v-.2zm-1.4-2.1c.9-.1 1.7-.1 2.2-.1.5 0 .7.2.7.6v.1h-1.7c-1 0-1.7.5-1.7 1.3v.5c0 1 .8 1.5 1.7 1.5.9 0 1.5-.5 1.8-.9l.2.8h1.5V125c0-1.5-.8-2-2.2-2-.8 0-2.1.1-2.8.3l.3 1.2zm-1.3-1.3h-1.9v1.8h-1.6v-1.8h-1.9v5.2h1.9v-2.1h1.6v2.1h1.9v-5.2zm-8.8 0c-.4 0-.6.2-.7.6l-.4 1.9c-.1.3-.1.5-.1.8h-.1c0-.3 0-.5-.1-.8l-.5-1.9c-.1-.4-.3-.6-.7-.6H186c-.4 0-.6.2-.7.6l-.1 4.5h1.7l.1-3.8h.1l.6 2.5c.1.4.3.6.7.6h.8c.4 0 .6-.2.7-.6l.6-2.5h.1l.1 3.8h1.7l-.1-4.5c0-.4-.2-.6-.6-.6h-1.5zm-8.6 1.2c.6 0 .8.3.8 1.4 0 1.1-.2 1.4-.8 1.4-.6 0-.8-.3-.8-1.4 0-1.2.2-1.4.8-1.4m0-1.3c-2 0-2.8.7-2.8 2.7s.7 2.7 2.8 2.7c2 0 2.8-.7 2.8-2.7s-.8-2.7-2.8-2.7m-5.2 2.6c1.2-.2 1.1-.3 1.8-2.5h-1.9c-.4 1.7-.5 1.9-1.2 1.9h-.2c0-.2.1-.4.1-.7v-1.2h-1.9v5.2h1.9v-1.6c0-.1 0-.3-.1-.4h.4c.6 0 .6.1 1.1 2.1h2c-.7-2.6-.7-2.6-2-2.8zm-8.5-.2h-.7c-.5 0-.6-.1-.6-.6 0-.4.1-.5.6-.5h.7v1.1zm-2 .7c-.3 0-.9.1-1 .6l-.4 1.6h1.9l.3-1.4c0-.2.2-.3.5-.3h.7v1.7h1.8v-5.2c-.6-.1-1.2-.1-2.6-.1-1.9 0-2.4.4-2.4 1.7 0 .6.3 1.2 1.2 1.4zm-5.5.4c0-.2.1-.4.4-.4h1.1v.6c-.3.2-.7.4-1 .4-.3 0-.5-.1-.5-.4v-.2zm-1.5-2.1c.9-.1 1.7-.1 2.2-.1.5 0 .7.2.7.6v.1h-1.7c-1 0-1.7.5-1.7 1.3v.5c0 1 .8 1.5 1.7 1.5.9 0 1.5-.5 1.8-.9l.2.8h1.5V125c0-1.5-.8-2-2.2-2-.8 0-2.1.1-2.8.3l.3 1.2zm-1.3-1.3h-3.1c-.9 0-1.4.5-1.4 1.3-.1.9-.2 1.7-.3 2-.1.4-.4.4-.9.5l.2 1.4c1.1.2 2.2-.1 2.4-1.4.1-.5.2-1.4.3-2.2 0-.3.2-.4.5-.4h.4v3.9h1.9v-5.1zm-6.3 5.2v-5.2h-1.6l-1.6 2.5c-.2.2-.3.5-.4.8 0-.3.1-.5.1-.8v-2.4H146v5.2h1.6l1.6-2.4c.1-.2.3-.6.4-.9 0 .3-.1.6-.1.9v2.3h1.8zm-8.4-3.8c1.4-.2 1.4-.8 2.2-3.4h-2c-.6 2.2-.8 2.8-1.5 2.8h-.3c.1-.3.1-.6.1-.9v-1.9h-1.9v1.9c0 .3 0 .6.1.9h-.4c-.7 0-.8-.6-1.5-2.8h-2c.8 2.6.8 3.2 2.2 3.4v.1c-1.4.2-1.5.8-2.4 3.7h2c.8-2.6.9-3.1 1.6-3.1h.4c-.1.2-.1.5-.1.7v2.4h1.9V126c0-.2 0-.4-.1-.7h.3c.7 0 .8.5 1.6 3.1h2.1c-.8-3-.8-3.5-2.3-3.8zm-65.5 33.1c.8 0 1 .2 1 .9s-.2.9-1 .9-1-.2-1-.9.2-.9 1-.9m0-2.9c.7 0 .9.2.9.9 0 .6-.1.8-.9.8-.7 0-.9-.1-.9-.8 0-.8.2-.9.9-.9m-1.5 2.3c-1 .1-1.3 1-1.3 1.9 0 1.4.6 1.9 2.8 1.9 2.3 0 2.8-.5 2.8-1.9 0-1-.2-1.8-1.3-1.9.8-.1 1.1-.9 1.1-1.6 0-1.3-.5-1.9-2.6-1.9-2.2 0-2.6.6-2.6 1.9 0 .7.3 1.4 1.1 1.6zm-3.3 1.9c-.5 0-.7.2-.7.7v.5c0 .5.2.7.7.7h.4c.5 0 .7-.2.7-.7v-.5c0-.5-.2-.7-.7-.7h-.4zm-4.3-1.3c.8 0 1 .2 1 .9s-.2.9-1 .9-1-.2-1-.9c-.1-.7.1-.9 1-.9m-.1-2.9c.7 0 .9.2.9.9 0 .6-.1.8-.9.8-.7 0-.9-.1-.9-.8 0-.8.2-.9.9-.9m-1.5 2.3c-1 .1-1.3 1-1.3 1.9 0 1.4.6 1.9 2.8 1.9 2.3 0 2.8-.5 2.8-1.9 0-1-.2-1.8-1.3-1.9.8-.1 1.1-.9 1.1-1.6 0-1.3-.5-1.9-2.6-1.9-2.2 0-2.6.6-2.6 1.9 0 .7.3 1.4 1.1 1.6zm19.4-11.7h-.7c-.5 0-.6-.1-.6-.6 0-.4.1-.5.6-.5h.7v1.1zm-2 .7c-.3 0-.9.1-1 .6l-.4 1.6h1.9l.3-1.4c0-.2.2-.3.5-.3h.7v1.7H88v-5.2c-.6-.1-1.2-.1-2.6-.1-1.9 0-2.4.4-2.4 1.7 0 .6.2 1.2 1.1 1.4zm-2.1-3h-1.9v1.8h-1.6v-1.8h-1.9v5.2h1.9v-2.1h1.6v2.1H82v-5.2zm-7.8 5.2h1.9l-1.5-2.6 1.4-2.5h-1.9l-1 1.9-1-1.9h-1.9l1.4 2.5-1.5 2.6H72l1.1-2.1 1.1 2.1zm-4.3-5.2h-2l-.8 3.1c-.1.2-.1.6-.2.9h-.1c0-.3-.1-.6-.1-.9l-.8-3.1h-2l1.6 4.7c.1.3.3.4.6.4h.3c-.1.3-.3.5-.5.6-.3.2-.8.2-1.4.2l-.2 1.2c.7.1 1.5.1 2.1-.1.8-.3 1.4-.8 1.8-2l1.7-5zm-8.5 1.4c1.4-.2 1.5-.8 2.3-3.4h-2c-.6 2.2-.7 2.8-1.7 2.8h-.3c.1-.3.1-.6.1-.9v-1.9h-1.9v7.2h1.9v-2.4c0-.2 0-.4-.1-.7h.3c1 0 1.1.5 1.8 3.1h2c-.8-3-.9-3.5-2.4-3.8z" style="clip-path:url(#SVGID_6_);fill:#39363a"/><path d="m167.2 111.2-1.9.4v3.4h-4.1v-3.4h-6.6c-1.4 0-2.3-1.3-1.7-2.5l4.1-10.4h4.2l-3.6 9.3c-.2.5 0 .7.4.7h3.2v-4.2l.7-2.6h3.4v6.8h2v2.5zm15-4.3c0 6.4-1.7 8.5-6.7 8.5s-6.7-2.1-6.7-8.5 1.7-8.5 6.7-8.5c4.9 0 6.7 2.1 6.7 8.5zm-9.1 0c0 4.4.5 5.1 2.3 5.1 1.8 0 2.3-.8 2.3-5.1s-.5-5.1-2.3-5.1c-1.8 0-2.3.7-2.3 5.1zm13.5 4.2c1.1 0 1.5.4 1.5 1.5v1c0 1.1-.4 1.5-1.5 1.5h-1c-1.1 0-1.5-.4-1.5-1.5v-1c0-1.1.4-1.5 1.5-1.5h1zm7.7-9.1-.2 2.3 2.7.4c3.8.4 4.8 2.8 4.8 5.4 0 3-1.3 5.4-6 5.4-1.6 0-3.7-.2-5.8-.5l.4-3.4c1.6.1 3.1.2 4.3.2 2.2 0 2.6-.5 2.7-1.9.1-1.5-.7-1.9-2.9-2l-2.5-.3c-.8-.1-1.3-.7-1.3-1.5l.4-7.4h10.3l-.2 3.3h-6.7z" class="st1"/><defs><path id="SVGID_7_" d="M19.4 19.9h211.5v223.7H19.4z"/></defs><clipPath id="SVGID_8_"><use xlink:href="#SVGID_7_" style="overflow:visible"/></clipPath><circle cx="177.4" cy="80.2" r="14.6" style="clip-path:url(#SVGID_8_);fill:none;stroke:#39363a"/><path d="M170.7 86.5v-8.2c0-.5 0-1 .1-1.5l-2.9.6-.4-2.1 3.2-1.2h3.4v12.4h-3.4zm12.2-6.4c2.6.4 2.7 1.3 4.3 6.4h-3.5c-1.3-4.5-1.4-5.3-3.2-5.3h-.6c.1.4.1.8.1 1.2v4.2h-3.4V74.1h3.4v3.3c0 .5-.1 1-.1 1.5h.6c1.7 0 2-1.1 3-4.8h3.4c-1.4 4.5-1.4 5.6-3.9 5.9v.1z" class="st1"/><path d="m138.8 65.5 1.3-.8L126 41.4l-1.2.7z" class="st7"/><defs><path id="SVGID_9_" d="M19.4 19.9h211.5v223.7H19.4z"/></defs><clipPath id="SVGID_10_"><use xlink:href="#SVGID_9_" style="overflow:visible"/></clipPath><path d="M140.5 64.6s-3.1 2.1-7.6 3.3c-4.6 1.2-7.1 1.4-7.1 1.4" style="clip-path:url(#SVGID_10_);fill:none;stroke:#39363a;stroke-width:.7"/><path d="m107.9 37.2-.8 1.2-26.7-16 .7-1.3z" class="st7"/><defs><path id="SVGID_11_" d="M19.4 19.9h211.5v223.7H19.4z"/></defs><clipPath id="SVGID_12_"><use xlink:href="#SVGID_11_" style="overflow:visible"/></clipPath><path d="M107 38.8s2.1-3.1 3.3-7.6c1.2-4.6 1.4-7.1 1.4-7.1" style="clip-path:url(#SVGID_12_);fill:none;stroke:#39363a;stroke-width:.7"/><path d="m91.5 112.1.8 1.3 20.1-12.2-.8-1.2z" class="st7"/><defs><path id="SVGID_13_" d="M19.4 19.9h211.5v223.7H19.4z"/></defs><clipPath id="SVGID_14_"><use xlink:href="#SVGID_13_" style="overflow:visible"/></clipPath><path d="M92.4 113.7s-2.1-3.1-3.3-7.6c-1.2-4.6-1.4-7.1-1.4-7.1" style="clip-path:url(#SVGID_14_);fill:none;stroke:#39363a;stroke-width:.7"/><path d="m86.1 77.4 1.3.7-10.1 16.6-1.2-.7z" class="st7"/><defs><path id="SVGID_15_" d="M19.4 19.9h211.5v223.7H19.4z"/></defs><clipPath id="SVGID_16_"><use xlink:href="#SVGID_15_" style="overflow:visible"/></clipPath><path d="M87.7 78.3s-3.1-2.1-7.6-3.3c-1.4-.4-2.6-.7-3.6-.9" style="clip-path:url(#SVGID_16_);fill:none;stroke:#39363a;stroke-width:.7"/><path d="M27.8 43.6h5.6v4.1h-5.6zm6.7-19.4v25.4m81.2 44.1h5.6v4.1h-5.6zm-1.1-22.4v28.4m11.2-28.1h-11.5" style="stroke-width:.6;fill:none;stroke:#39363a"/><path d="M26.5 129.5H42v-14.8H26.5v14.8zm-.3-15.1h16.1v15.5H26.2v-15.5z" class="st1"/><path d="M26.5 129.5H42v-14.8H26.5v14.8zm-.3-15.1h16.1v15.5H26.2v-15.5z" class="st13"/><defs><path id="SVGID_17_" d="M19.4 19.9h211.5v223.7H19.4z"/></defs><clipPath id="SVGID_18_"><use xlink:href="#SVGID_17_" style="overflow:visible"/></clipPath><path d="M40.6 116.9c0-.4-.3-.7-.7-.7h-8.1c-.4 0-.7.3-.7.7v10.4c0 .4.3.7.7.7h8.1c.4 0 .7-.3.7-.7v-10.4zm-9.9 10.4v-10.4c0-.5.5-1 1-1h8.1c.6 0 1 .4 1 1v10.4c0 .5-.5 1-1 1h-8.1c-.5 0-1-.4-1-1" style="clip-path:url(#SVGID_18_);fill:#39363a"/><path d="M40.6 116.9c0-.4-.3-.7-.7-.7h-8.1c-.4 0-.7.3-.7.7v10.4c0 .4.3.7.7.7h8.1c.4 0 .7-.3.7-.7v-10.4zm-9.9 10.4v-10.4c0-.5.5-1 1-1h8.1c.6 0 1 .4 1 1v10.4c0 .5-.5 1-1 1h-8.1c-.5 0-1-.4-1-1z" style="clip-path:url(#SVGID_18_);fill:none;stroke:#39363a;stroke-width:.25"/><path d="M32.3 126.8h7.1v-9.4h-7.1v9.4zm-.4-9.7h7.8v10.1h-7.8v-10.1z" class="st1"/><path d="M32.3 126.8h7.1v-9.4h-7.1v9.4zm-.4-9.7h7.8v10.1h-7.8v-10.1z" class="st13"/><defs><path id="SVGID_19_" d="M19.4 19.9h211.5v223.7H19.4z"/></defs><clipPath id="SVGID_20_"><use xlink:href="#SVGID_19_" style="overflow:visible"/></clipPath><path d="M37.2 122.1c0-.5-.4-.9-.9-.9s-.9.4-.9.9.4.9.9.9.9-.4.9-.9m-2.1 0c0-.6.6-1.2 1.2-1.2s1.2.5 1.2 1.2-.6 1.2-1.2 1.2-1.2-.5-1.2-1.2" style="clip-path:url(#SVGID_20_);fill:#39363a"/><path d="M37.2 122.1c0-.5-.4-.9-.9-.9s-.9.4-.9.9.4.9.9.9.9-.4.9-.9zm-2.1 0c0-.6.6-1.2 1.2-1.2s1.2.5 1.2 1.2-.6 1.2-1.2 1.2-1.2-.5-1.2-1.2z" style="clip-path:url(#SVGID_20_);fill:none;stroke:#39363a;stroke-width:.25"/><path d="M72.5 60.4s0-5.7-5.7-5.7H33.7s-5.7 0-5.7 5.7v6.3s0 5.7 5.7 5.7h33.2s5.7 0 5.7-5.7v-6.3z" class="st18"/><path d="M69.4 62s0-5.7-5.7-5.7h-27S31 56.3 31 62v3s0 5.7 5.7 5.7h27s5.7 0 5.7-5.7v-3z" class="st18"/><path d="M65.7 60.8s0-2.8-2.8-2.8H35.7s-2.8 0-2.8 2.8v5.5s0 2.8 2.8 2.8h27.2s2.8 0 2.8-2.8v-5.5z" class="st18"/><circle cx="37" cy="63.5" r=".8" class="st18"/><path d="M75.6 73.4H25" class="st7"/><defs><path id="SVGID_21_" d="M19.4 19.9h211.5v223.7H19.4z"/></defs><clipPath id="SVGID_22_"><use xlink:href="#SVGID_21_" style="overflow:visible"/></clipPath><path d="M39.2 84.1c0 3-2.4 5.4-5.4 5.4H28c-.5 0-.8-.4-.8-.8V76.4c0-.5.4-.8.8-.8h5.8c3 0 5.4 2.4 5.4 5.4v3.1zm-12.3-7.7v12.3c0 .6.5 1.1 1.1 1.1h5.8c3.2 0 5.7-2.6 5.7-5.7V81c0-3.2-2.6-5.7-5.7-5.7H28c-.6 0-1.1.5-1.1 1.1" class="st19"/><path d="M39.2 84.1c0 3-2.4 5.4-5.4 5.4H28c-.5 0-.8-.4-.8-.8V76.4c0-.5.4-.8.8-.8h5.8c3 0 5.4 2.4 5.4 5.4v3.1zm-12.3-7.7v12.3c0 .6.5 1.1 1.1 1.1h5.8c3.2 0 5.7-2.6 5.7-5.7V81c0-3.2-2.6-5.7-5.7-5.7H28c-.6 0-1.1.5-1.1 1.1z" class="st20"/><path d="M37.8 84.1c0 2.2-1.8 4.1-4.1 4.1h-3.4c-.4 0-.7-.3-.7-.7v-9.8c0-.4.3-.7.7-.7h3.4c2.2 0 4.1 1.8 4.1 4.1v3zm-8.4-6.4v9.8c0 .6.5 1 1 1h3.4c2.4 0 4.4-2 4.4-4.4V81c0-2.4-2-4.4-4.4-4.4h-3.4c-.5.1-1 .5-1 1.1" class="st19"/><path d="M37.8 84.1c0 2.2-1.8 4.1-4.1 4.1h-3.4c-.4 0-.7-.3-.7-.7v-9.8c0-.4.3-.7.7-.7h3.4c2.2 0 4.1 1.8 4.1 4.1v3zm-8.4-6.4v9.8c0 .6.5 1 1 1h3.4c2.4 0 4.4-2 4.4-4.4V81c0-2.4-2-4.4-4.4-4.4h-3.4c-.5.1-1 .5-1 1.1z" class="st20"/><path d="M35 82.5c0 .4-.3.7-.7.7-.4 0-.7-.3-.7-.7 0-.4.3-.7.7-.7.4.1.7.4.7.7m-1.7 0c0 .5.4 1 1 1 .5 0 1-.4 1-1 0-.5-.4-1-1-1-.5.1-1 .5-1 1" class="st19"/><path d="M35 82.5c0 .4-.3.7-.7.7-.4 0-.7-.3-.7-.7 0-.4.3-.7.7-.7.4.1.7.4.7.7zm-1.7 0c0 .5.4 1 1 1 .5 0 1-.4 1-1 0-.5-.4-1-1-1-.5.1-1 .5-1 1z" class="st20"/><path d="M62.1 94.2h-.5v-1.8h-.9l-.2.7v1.1h-.8c-.1 0-.2-.1-.1-.2l.9-2.4h-1.1l-1.1 2.7c-.1.3.1.7.5.7h1.7v.9h1.1V95l.5-.1v-.7zm-4.8.7c-.3 0-.4.1-.4.4v.3c0 .3.1.4.4.4h.3c.3 0 .4-.1.4-.4v-.3c0-.3-.1-.4-.4-.4h-.3zm-3.9-2.4h1.2c.4 0 .6.1.6.4 0 .3 0 .5-.5.5h-.8v.8h.8c.5 0 .6.1.6.5s-.2.5-.7.5h-1.2v.8c.5.1 1 .1 1.5.1 1.1 0 1.6-.4 1.5-1.3 0-.7-.2-1-.8-1.1.6-.1.7-.5.7-1.1 0-.8-.4-1-1.5-1-.5 0-1 0-1.4.1v.8zm9.7-7.2h-1.2l-.5 1.8c0 .1-.1.3-.1.5h-.1c0-.2-.1-.4-.1-.5l-.5-1.8h-1.2l1 2.8c0 .2.2.3.4.3h.2c-.1.2-.2.3-.3.4-.2.1-.5.1-.9.1l-.1.7c.4.1.9.1 1.3-.1.5-.2.8-.5 1.1-1.2l1-3zm-6.2 3.6 2.5-4.8h-.9L56 88.9h.9zm-1.2-1.4c-.4 0-.8.1-1.4.1-.5 0-.7-.3-.7-1.2 0-1 .1-1.2.7-1.2h1.3l.1-.9c-.4-.2-.7-.3-1.4-.3-1.4 0-1.9.6-1.9 2.2s.5 2.2 1.9 2.2c.6 0 1 0 1.5-.2l-.1-.7zm-9.9 9.9c0 2.8-2.3 5.1-5.1 5.1h-7.4c-.5 0-.9-.4-.9-.9v-8.5c0-.5.4-.9.9-.9h7.4c2.8.1 5.1 2.4 5.1 5.2M32 93.2v8.5c0 .7.6 1.2 1.2 1.2h7.4c3 0 5.5-2.5 5.5-5.5s-2.5-5.5-5.5-5.5h-7.4c-.6.1-1.2.6-1.2 1.3" class="st19"/><path d="M45.8 97.4c0 2.8-2.3 5.1-5.1 5.1h-7.4c-.5 0-.9-.4-.9-.9v-8.5c0-.5.4-.9.9-.9h7.4c2.8.1 5.1 2.4 5.1 5.2zM32 93.2v8.5c0 .7.6 1.2 1.2 1.2h7.4c3 0 5.5-2.5 5.5-5.5s-2.5-5.5-5.5-5.5h-7.4c-.6.1-1.2.6-1.2 1.3z" class="st20"/><path d="M34.9 101.1v-7.3s0-.1.1-.1h5.6c2.1 0 3.8 1.7 3.8 3.8 0 2.1-1.7 3.8-3.8 3.8l-5.7-.2c0 .1 0 .1 0 0z" class="st20"/><path d="M35 101v-7.2h5.5c2 0 3.6 1.6 3.6 3.6s-1.6 3.6-3.6 3.6H35zm-.3-7.2v7.3c0 .1.1.3.3.3h5.6c2.2 0 3.9-1.8 3.9-3.9 0-2.2-1.8-3.9-3.9-3.9H35c-.2-.1-.3 0-.3.2" class="st19"/><path d="M35 101v-7.2h5.5c2 0 3.6 1.6 3.6 3.6s-1.6 3.6-3.6 3.6H35zm-.3-7.2v7.3c0 .1.1.3.3.3h5.6c2.2 0 3.9-1.8 3.9-3.9 0-2.2-1.8-3.9-3.9-3.9H35c-.2-.1-.3 0-.3.2z" class="st20"/><path d="M40.5 97.4c0 .5-.4 1-1 1s-1-.4-1-1c0-.5.4-1 1-1s1 .5 1 1m-2.3 0c0 .7.6 1.3 1.3 1.3s1.3-.6 1.3-1.3c0-.7-.6-1.3-1.3-1.3s-1.3.6-1.3 1.3" class="st19"/><path d="M40.5 97.4c0 .5-.4 1-1 1s-1-.4-1-1c0-.5.4-1 1-1s1 .5 1 1zm-2.3 0c0 .7.6 1.3 1.3 1.3s1.3-.6 1.3-1.3c0-.7-.6-1.3-1.3-1.3s-1.3.6-1.3 1.3z" class="st20"/><path d="m35.585 100.298 2.323-1.736.24.32-2.323 1.736z" class="st1"/><path d="m35.585 100.298 2.323-1.736.24.32-2.323 1.736z" class="st13"/><path d="m35.6 94.6 2.3 1.8.2-.3-2.3-1.7z" class="st1"/><path d="m35.6 94.6 2.3 1.8.2-.3-2.3-1.7z" class="st13"/><defs><path id="SVGID_23_" d="M19.4 19.9h211.5v223.7H19.4z"/></defs><clipPath id="SVGID_24_"><use xlink:href="#SVGID_23_" style="overflow:visible"/></clipPath><path d="M32 101c0 .8-.6 1.4-1.4 1.4h-1.9c-.8 0-1.4-.6-1.4-1.4v-7.1c0-.8.6-1.4 1.4-1.4h1.9c.8 0 1.4.6 1.4 1.4v7.1zm-5.1-7.1v7.1c0 1 .8 1.8 1.8 1.8h1.9c1 0 1.8-.8 1.8-1.8v-7.1c0-1-.8-1.8-1.8-1.8h-1.9c-1 0-1.8.8-1.8 1.8" class="st21"/><path d="M32 101c0 .8-.6 1.4-1.4 1.4h-1.9c-.8 0-1.4-.6-1.4-1.4v-7.1c0-.8.6-1.4 1.4-1.4h1.9c.8 0 1.4.6 1.4 1.4v7.1zm-5.1-7.1v7.1c0 1 .8 1.8 1.8 1.8h1.9c1 0 1.8-.8 1.8-1.8v-7.1c0-1-.8-1.8-1.8-1.8h-1.9c-1 0-1.8.8-1.8 1.8z" class="st22"/><path d="M30.2 97.4c0 .3-.2.5-.5.5s-.5-.2-.5-.5.2-.5.5-.5c.2 0 .5.2.5.5m-1.5 0c0 .5.4.9.9.9s.9-.4.9-.9-.4-.9-.9-.9-.9.5-.9.9" class="st21"/><path d="M30.2 97.4c0 .3-.2.5-.5.5s-.5-.2-.5-.5.2-.5.5-.5c.2 0 .5.2.5.5zm-1.5 0c0 .5.4.9.9.9s.9-.4.9-.9-.4-.9-.9-.9-.9.5-.9.9z" class="st22"/><path d="M105.7 64.4v-.9H103l-.1 1.9c0 .2.1.4.3.4l.7.1c.6 0 .8.1.8.5s-.1.5-.7.5c-.3 0-.7 0-1.1-.1l-.1.9c.6.1 1.1.1 1.5.1 1.2 0 1.6-.6 1.6-1.4 0-.7-.3-1.3-1.3-1.4l-.7-.1v-.6h1.8zm-4.1 2.3c-.3 0-.4.1-.4.4v.3c0 .3.1.4.4.4h.3c.3 0 .4-.1.4-.4v-.3c0-.3-.1-.4-.4-.4h-.3zm-1-2.3v-.9h-2.7l-.1 1.9c0 .2.1.4.3.4l.7.1c.6 0 .8.1.8.5s-.2.5-.7.5c-.3 0-.7 0-1.1-.1l-.1.9c.5.1 1.1.1 1.5.1 1.2 0 1.6-.6 1.6-1.4 0-.7-.3-1.3-1.3-1.4h-.7v-.6h1.8zm15.7-5.8h-.4c-.3 0-.3-.1-.3-.4 0-.2.1-.3.3-.3h.4v.7zm-1.2.4c-.2 0-.5.1-.6.3l-.2 1h1.2l.2-.8c0-.1.1-.2.3-.2h.4v1h1.1v-3.1c-.4 0-.7-.1-1.6-.1-1.1 0-1.4.2-1.4 1-.1.4 0 .8.6.9zm-3.4.2c0-.1.1-.2.3-.2h.7v.4c-.2.1-.4.2-.6.2-.2 0-.3-.1-.3-.3v-.1zm-.8-1.2h1.3c.3 0 .4.1.4.4v.1h-1c-.6 0-1 .3-1 .8v.3c0 .6.5.9 1 .9s.9-.3 1.1-.5l.1.5h.9v-2c0-.9-.5-1.2-1.3-1.2-.5 0-1.2.1-1.7.2l.2.5zm-1.7.7c.7-.1.7-.2 1.1-1.5h-1.1c-.3 1-.4 1.1-.7 1.1h-.2v-1.1h-1v1.2h-.2c-.3 0-.3-.1-.7-1.1h-1.1c.4 1.3.4 1.4 1.1 1.5-.8.1-.8.2-1.2 1.6h1.1c.4-1.2.4-1.2.7-1.3h.2v1.3h1v-1.3h.2c.3 0 .3.1.7 1.3h1.1c-.3-1.5-.3-1.6-1-1.7zm-5.8-.8c.4 0 .5.2.5.8 0 .7-.1.8-.5.8s-.5-.1-.5-.8c0-.6.1-.8.5-.8m0-.8c-1.2 0-1.7.4-1.7 1.6 0 1.2.5 1.6 1.7 1.6s1.7-.4 1.7-1.6c-.1-1.1-.5-1.6-1.7-1.6m-3 3.2h1.1l-.9-1.6.8-1.5h-1.1l-.6 1.2-.6-1.2H98l.8 1.5-.9 1.6H99l.7-1.2.7 1.2zm-2.8 0v-3.1h-1l-1 1.5c-.1.1-.2.3-.2.5v-2h-1v3.1h1l1-1.4c.1-.1.2-.4.3-.5v2h.9zm-5.9-2.1c.2-.1.3-.2.6-.2s.4.1.4.8c0 .7-.1.8-.4.8-.2 0-.4-.1-.5-.1v-1.3zm-.2-1h-.9v4.3h1.1v-1.4c.3.2.6.3 1 .3.8 0 1.2-.3 1.2-1.6 0-1.1-.3-1.7-1.1-1.7-.5 0-1 .2-1.2.5l-.1-.4zM89.8 56h-3.6v4.3h1.2v-3.5h1.3v3.5h1.2V56zM78.5 221.2c-.8 0-.9-.3-.9-1.9.3-.2.6-.3.9-.3.7 0 .8.2.8.9 0 .9 0 1.3-.8 1.3m2.2-5.8c-.7-.2-1.5-.2-1.9-.2-2.1 0-3.1.5-3.1 3.8 0 2.9.6 3.6 2.8 3.6 2.2 0 2.7-.8 2.7-2.6 0-1.6-.5-2.2-2.1-2.2-.6 0-1.1.1-1.5.4.1-1.3.3-1.6 1.2-1.6h1.8l.1-1.2zm-7 5.3c-.5 0-.7.2-.7.7v.5c0 .5.2.7.7.7h.4c.5 0 .7-.2.7-.7v-.5c0-.5-.2-.7-.7-.7h-.4zm-6-5.4.1 1.6h3.1c-.2.3-.3.5-.4.8l-1.7 4.9h1.9l2.2-6.2c.2-.5-.2-1-.7-1h-4.5zm25.1-8.2H92c-.5 0-.6-.1-.6-.6 0-.4.1-.5.6-.5h.7v1.1zm-2.1.7c-.3 0-.9.1-1 .6l-.4 1.6h1.9l.3-1.4c0-.2.2-.3.5-.3h.7v1.7h1.8v-5.2c-.6-.1-1.2-.1-2.6-.1-1.9 0-2.4.4-2.4 1.7.1.6.4 1.2 1.2 1.4zm-2.1 2.2v-5.2H87l-1.6 2.5c-.2.2-.3.5-.4.8 0-.3.1-.5.1-.8v-2.4h-1.7v5.2H85l1.6-2.4c.1-.2.3-.6.4-.9 0 .3-.1.6-.1.9v2.3h1.7zm-8-2.8c1.2-.2 1.2-.3 1.8-2.4h-1.9c-.5 1.7-.6 1.9-1.1 1.9h-.3c0-.2.1-.4.1-.6v-1.2h-1.6v1.2c0 .2 0 .4.1.6h-.3c-.5 0-.6-.2-1.1-1.9h-1.9c.7 2.1.6 2.3 1.8 2.4v.1c-1.3.2-1.3.3-2 2.7H76c.7-2 .7-2.1 1.1-2.1h.4c0 .2-.1.3-.1.4v1.6h1.7v-1.6c0-.1 0-.3-.1-.4h.4c.5 0 .5.1 1.2 2.1h1.9c-.7-2.4-.7-2.5-1.9-2.8zm-9.5 1.5h-1.5c.3-.6.4-1.3.6-2.3 0-.3.2-.4.5-.4h.5v2.7zm2.7 0h-.9v-3.9h-2.8c-.9 0-1.4.4-1.5 1.3-.1.9-.3 1.8-.6 2.6h-.6v2.7h1.2l.1-1.4h3.7l.1 1.4h1.3v-2.7zm-9.6-2.7c.6 0 .8.3.8 1.4 0 1.1-.2 1.4-.8 1.4-.6 0-.8-.3-.8-1.4-.1-1.2.1-1.4.8-1.4m0-1.3c-2 0-2.8.7-2.8 2.7s.7 2.7 2.8 2.7c2 0 2.8-.7 2.8-2.7-.1-2-.8-2.7-2.8-2.7m-3.8-1.9h-3.3c-1.1 0-1.7.6-1.8 1.7-.1 1.7-.3 2.7-.5 3.3-.2.5-.5.6-1 .7l.1 1.5c1.3.2 2.2-.2 2.7-1.7.3-.9.4-2.2.6-3.7 0-.4.2-.5.6-.5h.7v5.9h2v-7.2z" class="st21"/><path d="M70.1 191.5h51.4v2.1H70.1z" class="st2"/><path d="M70.1 180.8h51.4v12.9H70.1z" class="st2"/><path d="m66.5 180.3-.8-1.2-17.3 10.5.7 1.2z" class="st7"/><defs><path id="SVGID_25_" d="M19.4 19.9h211.5v223.7H19.4z"/></defs><clipPath id="SVGID_26_"><use xlink:href="#SVGID_25_" style="overflow:visible"/></clipPath><path d="M65.6 178.7s2.1 3.1 3.3 7.6c.6 2.4 1 4.3 1.2 5.5" style="clip-path:url(#SVGID_26_);fill:none;stroke:#39363a;stroke-width:.7"/><path d="M95.4 180.4h27.1V194H95.4zm-70.8 0h27.1V194H24.6z" class="st1"/><path d="m163.6 180.3-.8-1.2-17.3 10.5.7 1.2z" class="st7"/><defs><path id="SVGID_27_" d="M19.4 19.9h211.5v223.7H19.4z"/></defs><clipPath id="SVGID_28_"><use xlink:href="#SVGID_27_" style="overflow:visible"/></clipPath><path d="M162.7 178.7s2.1 3.1 3.3 7.6c.6 2.4 1 4.3 1.2 5.5" style="clip-path:url(#SVGID_28_);fill:none;stroke:#39363a;stroke-width:.7"/><path d="M205.5 180.4h21.9V194h-21.9zm-83.8 0h27.1V194h-27.1z" class="st1"/></g></switch></svg>