<svg xmlns="http://www.w3.org/2000/svg" xmlns:xlink="http://www.w3.org/1999/xlink" xml:space="preserve" id="Слой_1" x="0" y="0" style="enable-background:new 0 0 194 198" version="1.1" viewBox="0 0 194 198"><style>.st1{fill:#39373a}.st2,.st8{fill:none;stroke:#39373a;stroke-width:.756}.st8{stroke-width:.454}.st15{clip-path:url(#SVGID_22_)}.st15,.st17{fill:#39373a}.st17,.st18{clip-path:url(#SVGID_24_)}.st18,.st19{fill:none;stroke:#39373a;stroke-width:.189}.st20,.st21,.st22{clip-path:url(#SVGID_26_);fill:#39373a}.st21,.st22{fill:none;stroke:#39373a;stroke-width:.189}.st22{stroke-width:.454}.st23,.st24{clip-path:url(#SVGID_28_);fill:#39373a}.st24{fill:none;stroke:#39373a;stroke-width:.189}</style><switch><g><path d="M22.98 21.23h147.9v116.79H22.98z" style="fill:#b7e0e6"/><path d="m98.42 147.27 21.91.01v-1.77h-2.23v-7.11H98.42z" class="st1"/><path d="m98.42 147.27 21.91.01v-1.77h-2.23v-7.11H98.42z" class="st2"/><path d="M18.82 138.4v8.87l21.91.01v-1.77H38.5v-7.11z" class="st1"/><defs><path id="SVGID_1_" d="M18.38 16.84h156.81v163.72H18.38z"/></defs><clipPath id="SVGID_2_"><use xlink:href="#SVGID_1_" style="overflow:visible"/></clipPath><path d="m18.82 147.27 21.91.01v-1.77H38.5v-7.11H18.82z" style="clip-path:url(#SVGID_2_);fill:none;stroke:#39373a;stroke-width:.756"/><path d="m171.86 147.27-21.35.01v-1.77h1.67v-7.11h19.68z" class="st1"/><path d="m171.86 147.27-21.35.01v-1.77h1.67v-7.11h19.68z" class="st2"/><path d="m100.52 147.27-21.91.01v-1.77h2.23v-7.11h19.68z" class="st1"/><path d="m100.52 147.27-21.91.01v-1.77h2.23v-7.11h19.68z" class="st2"/><path d="M18.76 17.22h3.61v152.24h-3.61z" class="st1"/><defs><path id="SVGID_3_" d="M18.38 16.84h156.81v163.72H18.38z"/></defs><clipPath id="SVGID_4_"><use xlink:href="#SVGID_3_" style="overflow:visible"/></clipPath><path d="M18.76 17.22h3.61v152.24h-3.61z" style="clip-path:url(#SVGID_4_);fill:none;stroke:#39373a;stroke-width:.756"/><path d="M171.25 18.93h3.56v161.26h-3.56z" class="st1"/><defs><path id="SVGID_5_" d="M18.38 16.84h156.81v163.72H18.38z"/></defs><clipPath id="SVGID_6_"><use xlink:href="#SVGID_5_" style="overflow:visible"/></clipPath><path d="M171.25 18.93h3.56v161.26h-3.56z" style="clip-path:url(#SVGID_6_);fill:none;stroke:#39373a;stroke-width:.756"/><path d="M21.93 17.24h85.34v3.61H21.93z" class="st1"/><defs><path id="SVGID_7_" d="M18.38 16.84h156.81v163.72H18.38z"/></defs><clipPath id="SVGID_8_"><use xlink:href="#SVGID_7_" style="overflow:visible"/></clipPath><path d="M21.93 17.24h85.34v3.61H21.93z" style="clip-path:url(#SVGID_8_);fill:none;stroke:#39373a;stroke-width:.756"/><path d="M128.54 17.24h46.19v3.61h-46.19z" class="st1"/><defs><path id="SVGID_9_" d="M18.38 16.84h156.81v163.72H18.38z"/></defs><clipPath id="SVGID_10_"><use xlink:href="#SVGID_9_" style="overflow:visible"/></clipPath><path d="M128.54 17.24h46.19v3.61h-46.19z" style="clip-path:url(#SVGID_10_);fill:none;stroke:#39373a;stroke-width:.756"/><path d="m88.32 49.59-.94-.55 10.59-17.5.95.55z" class="st8"/><defs><path id="SVGID_11_" d="M18.38 16.84h156.81v163.72H18.38z"/></defs><clipPath id="SVGID_12_"><use xlink:href="#SVGID_11_" style="overflow:visible"/></clipPath><path d="M87.91 49.46s1.75 1.13 5.67 1.45c3.91.33 4.93.07 4.93.07" style="clip-path:url(#SVGID_12_);fill:none;stroke:#39373a;stroke-width:.302"/><path d="m123.4 89.48-.55.94-17.5-10.6.55-.94z" class="st8"/><defs><path id="SVGID_13_" d="M18.38 16.84h156.81v163.72H18.38z"/></defs><clipPath id="SVGID_14_"><use xlink:href="#SVGID_13_" style="overflow:visible"/></clipPath><path d="M123.27 89.89s1.13-1.75 1.45-5.67c.33-3.91.07-4.93.07-4.93" style="clip-path:url(#SVGID_14_);fill:none;stroke:#39373a;stroke-width:.302"/><path d="m126.97 60.2-.94.55 6.79 11.1.94-.55z" class="st8"/><defs><path id="SVGID_15_" d="M18.38 16.84h156.81v163.72H18.38z"/></defs><clipPath id="SVGID_16_"><use xlink:href="#SVGID_15_" style="overflow:visible"/></clipPath><path d="M126.56 60.34s1.56-.96 3.63-1.3c2.17-.36 3.91-.22 3.91-.22" style="clip-path:url(#SVGID_16_);fill:none;stroke:#39373a;stroke-width:.302"/><path d="M100.04 177.06h72.92v2.08h-72.92z" class="st8"/><path d="M95.74 50.76h4.36v90.56h-4.36zm0 108.36h4.36v21.44h-4.36zm0-142.25h4.36v17.68h-4.36z" class="st1"/><defs><path id="SVGID_17_" d="M18.38 16.84h156.81v163.72H18.38z"/></defs><clipPath id="SVGID_18_"><use xlink:href="#SVGID_17_" style="overflow:visible"/></clipPath><path d="M155.37 64.65h-.61v-2.11h-1.05l-.22.8v1.31h-1c-.12 0-.19-.07-.13-.22l1.12-2.9h-1.3l-1.27 3.25c-.16.4.11.79.54.79h2.05v1.08h1.27v-1.08h.01l.59-.13v-.79zm-5.73.75c-.36 0-.47.11-.47.47v.33c0 .36.11.47.47.47h.32c.36 0 .47-.11.47-.47v-.33c0-.36-.11-.47-.47-.47h-.32zm-4.63-2.86c.38-.01.9-.01 1.42-.01.52 0 .67.07.67.48.01.35-.04.56-.6.56h-.98v.89l.98-.01c.55-.01.67.16.67.6 0 .52-.19.62-.85.62-.45 0-.77-.01-1.42-.05l-.04 1c.58.08 1.22.14 1.84.14 1.36 0 1.86-.44 1.84-1.53-.01-.78-.23-1.17-.95-1.28v-.03c.66-.1.82-.56.82-1.29 0-.91-.47-1.19-1.73-1.19-.56 0-1.14.04-1.71.14l.04.96zM116.4 45.15l.04-.82h-2.56l-.11 1.84c-.01.19.12.34.32.37l.64.08c.55.05.75.12.74.51-.02.33-.14.46-.68.46-.29 0-.67-.02-1.06-.05l-.1.84c.52.08 1.05.12 1.45.12 1.16 0 1.49-.6 1.49-1.34.01-.66-.24-1.25-1.2-1.35l-.68-.09.04-.57h1.67zm-3.84 2.26c-.28 0-.37.09-.37.37v.26c0 .29.09.37.37.37h.26c.28 0 .37-.09.37-.37v-.26c0-.29-.09-.37-.37-.37h-.26zm-.99-2.26.04-.82h-2.56l-.11 1.84c-.01.19.12.34.32.37l.64.08c.55.05.75.12.73.51-.02.33-.14.46-.68.46-.29 0-.67-.02-1.06-.05l-.1.84c.52.08 1.05.12 1.46.12 1.16 0 1.49-.6 1.49-1.34.01-.66-.24-1.25-1.2-1.35l-.68-.09.04-.57h1.67zm14.92-5.47h-.42c-.28 0-.33-.07-.33-.37 0-.22.05-.27.33-.27h.42v.64zm-1.16.36c-.18.02-.49.07-.56.32l-.23.93h1.11l.18-.79c.02-.14.09-.17.27-.17h.39v.96h1.04v-2.97c-.37-.04-.68-.05-1.49-.05-1.09 0-1.35.21-1.35.95 0 .36.14.7.64.8v.02zm-3.14.24c0-.14.07-.23.25-.23h.62v.37c-.2.12-.4.2-.58.2-.2 0-.29-.08-.29-.24v-.1zm-.81-1.17c.49-.03.97-.04 1.27-.04.31 0 .4.09.41.34v.07h-.98c-.59 0-.94.28-.94.75v.3c0 .55.44.84.99.84.51 0 .85-.26 1.05-.51l.1.43h.86v-1.88c0-.88-.44-1.15-1.24-1.15-.43 0-1.18.07-1.61.15l.09.7zm-1.64.63c.69-.09.67-.18 1.05-1.39h-1.06c-.31.97-.34 1.07-.64 1.07h-.18c.02-.12.03-.25.03-.37v-.71H118v.71c0 .12.01.24.03.37h-.19c-.3 0-.33-.1-.65-1.07h-1.06c.39 1.22.36 1.31 1.05 1.39v.03c-.71.1-.72.15-1.15 1.53h1.09c.37-1.12.4-1.18.65-1.19h.24c-.02.09-.04.18-.04.25v.94h.94v-.94c0-.07-.01-.16-.03-.25h.22c.27.01.29.07.66 1.19h1.09c-.42-1.37-.44-1.43-1.15-1.53v-.03zm-5.52-.72c.36 0 .46.15.46.8s-.1.79-.46.79c-.37 0-.46-.14-.46-.79s.09-.8.46-.8m0-.76c-1.16 0-1.59.42-1.59 1.56 0 1.13.43 1.54 1.59 1.54 1.16 0 1.58-.41 1.58-1.54 0-1.14-.42-1.56-1.58-1.56m-2.8 3.04h1.09l-.88-1.51.81-1.44h-1.07l-.58 1.1-.58-1.1h-1.08l.81 1.44-.88 1.51h1.09l.64-1.19.63 1.19zm-2.71 0v-2.96h-.94l-.94 1.41c-.09.14-.17.27-.23.43h-.02c.02-.17.04-.3.04-.46v-1.39h-.96v2.95h.94l.92-1.35c.08-.13.18-.33.24-.49h.02c-.02.2-.04.35-.04.52v1.32h.97zm-5.61-2.04c.19-.11.33-.18.55-.18.27 0 .39.11.39.78 0 .68-.12.78-.42.78-.21 0-.36-.05-.52-.1v-1.28zm-.21-.91h-.87v4.05h1.07v-.65c.01-.21 0-.43-.02-.64.25.2.59.27.94.27.74 0 1.12-.33 1.12-1.52 0-1-.3-1.58-1.04-1.58-.47 0-.92.21-1.13.49l-.07-.42zm-1.56-1.15H97.9v4.1h1.11v-3.34h1.21v3.34h1.12v-4.1zm-37.61 72.19c.57 0 .73.24.73 1.6s-.16 1.6-.73 1.6c-.55 0-.71-.25-.71-1.6.01-1.35.17-1.6.71-1.6m.01-1.06c-1.55 0-2.09.67-2.09 2.67s.53 2.66 2.09 2.66c1.56 0 2.1-.67 2.1-2.66 0-2-.54-2.67-2.1-2.67m-3.49 3.96c-.36 0-.47.11-.47.47v.33c0 .36.11.47.47.47h.32c.36 0 .47-.11.47-.47v-.33c0-.36-.11-.47-.47-.47h-.32zm-3.66-2.1c-.01-.61.05-.85.59-.85.58 0 .64.2.65 1.33-.24.14-.41.19-.65.19-.48.01-.6-.14-.59-.67m-1.1 3.31c.59.15 1.14.15 1.43.15 1.63 0 2.23-.39 2.23-2.7 0-2.07-.34-2.6-1.96-2.6-1.49 0-1.92.56-1.91 1.88 0 .93.33 1.59 1.47 1.59.46 0 .77-.07 1.06-.3-.04.88-.22 1.13-.89 1.13-.66 0-.91 0-1.36-.01l-.07.86zm-1.06.05v-5.12h-1.39l-1.3.5.16.88 1.19-.27c-.04.21-.05.41-.05.61v3.39h1.39zm17.6-10.18c0-.17.09-.28.31-.29h.77v.46c-.25.16-.5.25-.72.25-.25 0-.36-.1-.36-.3v-.12zm-1.01-1.45c.62-.04 1.21-.05 1.58-.05.39 0 .5.11.51.42v.09h-1.22c-.73 0-1.18.36-1.18.94v.37c0 .69.56 1.05 1.24 1.05.64 0 1.06-.33 1.32-.64l.13.54h1.07v-2.35c0-1.1-.55-1.44-1.54-1.44-.54 0-1.47.08-2.02.18l.11.89zm-.61.06v-1.02h-3.68v1.02h1.17v2.67h1.34v-2.67h1.17zm-6.59 1.39c0-.17.09-.28.31-.29h.77v.46c-.25.16-.51.25-.72.25-.25 0-.36-.1-.36-.3v-.12zm-1.01-1.45c.62-.04 1.21-.05 1.58-.05.39 0 .5.11.51.42v.09h-1.23c-.73 0-1.18.36-1.18.94v.37c0 .69.56 1.05 1.24 1.05.64 0 1.06-.33 1.31-.64l.13.54h1.08v-2.35c0-1.1-.55-1.44-1.54-1.44-.54 0-1.47.08-2.02.18l.12.89zm-.92-.96h-1.32v1.3h-1.13v-1.3H58.1v3.69h1.33v-1.49h1.13v1.49h1.32v-3.69zm-6.24 0c-.28 0-.46.14-.51.42l-.32 1.37c-.04.19-.04.36-.07.55h-.06c-.02-.19-.03-.36-.07-.55l-.33-1.37c-.05-.27-.22-.42-.5-.42h-1.14c-.3 0-.46.16-.47.46l-.09 3.23h1.22l.08-2.71h.09l.44 1.79c.05.27.23.41.51.41h.6c.29 0 .45-.13.51-.41l.44-1.79h.09l.1 2.71h1.22l-.1-3.23c-.01-.3-.16-.46-.46-.46h-1.18zm-6.14.84c.45 0 .57.19.57 1s-.12.99-.57.99c-.46 0-.58-.18-.58-.99s.12-1 .58-1m0-.94c-1.45 0-1.99.53-1.99 1.95s.53 1.93 1.99 1.93c1.45 0 1.98-.51 1.98-1.93 0-1.43-.53-1.95-1.98-1.95m-3.69 1.85c.86-.13.8-.2 1.28-1.75h-1.36c-.32 1.23-.34 1.34-.87 1.34h-.16c.03-.16.05-.32.05-.47v-.87H43.4v3.69h1.34v-1.17c0-.09-.01-.19-.04-.3h.3c.39.01.42.1.81 1.46h1.4c-.51-1.74-.53-1.77-1.4-1.9v-.03zm23.8-9h-.53c-.35 0-.42-.09-.42-.46 0-.27.07-.34.42-.34h.53v.8zm-1.45.47c-.22.02-.61.08-.7.4l-.29 1.16h1.38l.23-.99c.03-.17.11-.22.34-.22h.49v1.2h1.31v-3.72c-.46-.05-.85-.06-1.86-.06-1.36 0-1.69.26-1.69 1.19 0 .44.18.87.8 1v.04zm-3.93.28c0-.17.09-.28.31-.29h.77v.46c-.24.16-.5.25-.72.25-.24 0-.36-.1-.36-.3v-.12zm-1.01-1.45c.61-.04 1.21-.05 1.58-.05.39 0 .51.11.51.42v.09h-1.22c-.73 0-1.18.36-1.18.94v.37c0 .69.56 1.05 1.24 1.05.64 0 1.06-.33 1.31-.64l.13.54h1.08v-2.35c0-1.1-.55-1.44-1.54-1.44-.54 0-1.47.08-2.02.19l.11.88zm-.93-.96h-2.23c-.64 0-.96.33-1.02.95-.05.68-.12 1.19-.19 1.45-.08.3-.3.29-.62.34l.13.99c.81.13 1.54-.05 1.69-.97.07-.36.16-.98.22-1.55.02-.22.13-.31.35-.31h.32v2.79h1.34v-3.69zm-4.51 3.7v-3.69h-1.17l-1.17 1.77c-.11.17-.21.33-.28.54h-.03c.03-.21.05-.38.05-.57v-1.74h-1.19v3.69h1.17l1.15-1.68c.1-.16.23-.42.3-.62h.03c-.03.24-.05.44-.05.65v1.65h1.19zm-6-2.7c.99-.13 1.02-.59 1.56-2.43h-1.41c-.46 1.54-.55 2-1.05 2h-.24c.04-.22.06-.43.06-.64v-1.36h-1.33v1.36c0 .21.02.42.07.64h-.26c-.49 0-.59-.46-1.04-2h-1.41c.54 1.83.56 2.29 1.56 2.43v.04c-1.03.15-1.1.55-1.7 2.65h1.45c.57-1.86.63-2.19 1.13-2.19h.26c-.04.16-.06.33-.06.47v1.71h1.33v-1.71c0-.14-.02-.31-.06-.47h.24c.52 0 .57.33 1.14 2.19h1.46c-.6-2.1-.67-2.5-1.71-2.65v-.04zm86.82 22.33c.56 0 .68.13.68.67 0 .51-.12.64-.69.64-.58 0-.71-.13-.71-.64 0-.53.12-.67.72-.67m-.01-2.08c.51 0 .63.11.63.62 0 .45-.1.56-.62.56-.53 0-.65-.1-.65-.56 0-.5.12-.62.64-.62m-1.11 1.65c-.73.07-.91.68-.91 1.37 0 .99.42 1.39 2.01 1.38 1.62-.01 2.01-.39 2.01-1.38 0-.68-.17-1.3-.9-1.37v-.03c.56-.06.78-.62.78-1.17 0-.96-.33-1.37-1.88-1.37-1.54 0-1.88.42-1.88 1.37 0 .55.22 1.11.78 1.17v.03zm-2.33 1.38c-.36 0-.47.11-.47.47v.33c0 .36.11.47.47.47h.32c.36 0 .47-.11.47-.47v-.33c0-.36-.11-.47-.47-.47h-.32zm-3.11-.95c.56 0 .68.13.68.67 0 .51-.12.64-.69.64-.58 0-.71-.13-.71-.64 0-.53.13-.67.72-.67m0-2.08c.51 0 .63.11.63.62 0 .45-.1.56-.62.56-.53 0-.65-.1-.65-.56 0-.5.12-.62.64-.62m-1.11 1.65c-.73.07-.91.68-.91 1.37 0 .99.42 1.39 2.01 1.38 1.62-.01 2.01-.39 2.01-1.38 0-.68-.17-1.3-.9-1.37v-.03c.56-.06.78-.62.78-1.17 0-.96-.33-1.37-1.88-1.37-1.54 0-1.88.42-1.88 1.37 0 .55.22 1.11.78 1.17v.03zm13.86-8.3h-.53c-.35 0-.42-.09-.42-.46 0-.27.07-.34.42-.34h.53v.8zm-1.45.47c-.22.02-.61.08-.71.4l-.29 1.16h1.38l.23-.99c.03-.17.11-.22.34-.22h.49v1.2h1.31v-3.72c-.46-.05-.85-.06-1.86-.06-1.36 0-1.69.26-1.69 1.19 0 .44.18.87.8 1v.04zm-1.53-2.13h-1.32v1.3h-1.13v-1.3h-1.33v3.69h1.33v-1.49h1.13v1.49h1.32v-3.69zm-5.56 3.69h1.36l-1.1-1.88 1.01-1.8h-1.34l-.73 1.38-.73-1.38h-1.34l1.01 1.8-1.1 1.88h1.36l.8-1.48.8 1.48zm-3-3.69h-1.44l-.54 2.2c-.04.17-.1.42-.16.63h-.08c-.03-.21-.07-.42-.1-.63l-.56-2.2h-1.43l1.14 3.37c.06.19.22.32.43.32h.25c-.1.19-.24.36-.39.44-.24.13-.56.17-1.03.16l-.11.88c.53.1 1.08.1 1.52-.07.57-.21 1-.57 1.26-1.43l1.24-3.67zm-6.06 1c1.02-.13 1.05-.59 1.61-2.43h-1.42c-.4 1.54-.5 2-1.22 2h-.25c.04-.21.06-.43.06-.64v-1.36h-1.39v5.12h1.39v-1.71c0-.14-.02-.31-.06-.47h.27c.71 0 .77.33 1.3 2.19h1.46c-.63-2.1-.7-2.5-1.75-2.65v-.05zm14.77 53.03c.82.35 1.11 1.42 1.11 2.97 0 1.52-.3 2.6-1.11 2.98l.16.57c1.56-.45 2.26-1.56 2.26-3.54 0-2-.71-3.11-2.26-3.55l-.16.57zm-3.73 1.17c.38-.01.9-.01 1.43-.01.52 0 .67.07.67.48.01.35-.04.56-.6.56h-.98v.89l.98-.01c.55-.01.67.16.67.6 0 .52-.19.62-.85.62-.45 0-.77-.01-1.42-.04l-.04 1c.58.08 1.23.14 1.84.14 1.36 0 1.85-.44 1.84-1.53-.01-.78-.23-1.17-.95-1.28v-.03c.66-.1.82-.56.82-1.29 0-.91-.47-1.2-1.73-1.2-.56 0-1.14.04-1.71.14l.03.96zm-1.5 2.86c-.36 0-.47.11-.47.47v.33c0 .36.11.47.47.47h.32c.36 0 .47-.11.47-.47v-.33c0-.36-.11-.47-.47-.47h-.32zm-.96-.74h-.61v-2.12h-1.04l-.22.8v1.31h-1c-.12 0-.19-.07-.13-.21l1.12-2.9h-1.3l-1.27 3.25c-.16.4.11.79.54.79h2.05v1.08h1.27v-1.08h.01l.59-.13v-.79zm-4.56-3.86c-1.56.44-2.26 1.55-2.26 3.55 0 1.98.7 3.09 2.26 3.54l.16-.57c-.82-.38-1.11-1.45-1.11-2.98 0-1.55.3-2.62 1.11-2.97l-.16-.57zm-6.06 4.94c-.59 0-.65-.19-.66-1.32.24-.14.41-.19.65-.19.49 0 .6.13.6.68 0 .6-.03.83-.59.83m1.56-4.14c-.53-.15-1.05-.15-1.32-.15-1.49 0-2.23.36-2.23 2.7 0 2.08.46 2.6 1.99 2.6 1.57 0 1.91-.6 1.91-1.88 0-1.13-.33-1.59-1.5-1.59-.45 0-.76.07-1.05.3.04-.96.22-1.13.88-1.13.59 0 .84 0 1.26.01l.06-.86zm-4.97 3.8c-.36 0-.47.11-.47.47v.33c0 .36.11.47.47.47h.32c.36 0 .47-.11.47-.47v-.33c0-.36-.11-.47-.47-.47h-.32zm-3.1-.95c.56 0 .68.13.68.67 0 .51-.12.64-.69.64-.58 0-.71-.13-.71-.64 0-.53.13-.67.72-.67m-.01-2.07c.51 0 .63.11.63.62 0 .45-.1.56-.62.56-.53 0-.65-.1-.65-.56 0-.51.12-.62.64-.62m-1.1 1.64c-.73.07-.91.68-.91 1.37 0 .99.42 1.39 2.01 1.38 1.62-.01 2.01-.39 2.01-1.38 0-.68-.17-1.3-.9-1.37v-.03c.56-.06.78-.62.78-1.17 0-.96-.33-1.37-1.88-1.37-1.54 0-1.88.42-1.88 1.37 0 .55.22 1.11.78 1.17v.03z" style="clip-path:url(#SVGID_18_);fill:#39373a"/><path d="M98.62 145.35h39.9v2.08h-39.9z" class="st8"/><path d="M98.89 138.25h38.1v7.12h-38.1z" class="st8"/><path stroke-width=".454" d="m139.269 137.392.358-.601 14.214 8.458-.357.602z" class="st8"/><defs><path id="SVGID_19_" d="M18.38 16.84h156.81v163.72H18.38z"/></defs><clipPath id="SVGID_20_"><use xlink:href="#SVGID_19_" style="overflow:visible"/></clipPath><path d="M139.18 137.48s-.84 1.14-1.24 3.77c-.41 2.64-.28 4.05-.28 4.05" style="clip-path:url(#SVGID_20_);fill:none;stroke:#39373a;stroke-width:.302"/><path d="M28.12 145.35h39.89v2.08H28.12z" class="st8"/><path d="M28.39 138.25h38.1v7.12h-38.1z" class="st8"/><path stroke-width=".454" d="m68.764 137.392.358-.602 14.215 8.459-.358.601z" class="st8"/><defs><path id="SVGID_21_" d="M18.38 16.84h156.81v163.72H18.38z"/></defs><clipPath id="SVGID_22_"><use xlink:href="#SVGID_21_" style="overflow:visible"/></clipPath><path d="M68.67 137.48s-.84 1.14-1.24 3.77c-.41 2.64-.28 4.05-.28 4.05" style="clip-path:url(#SVGID_22_);fill:none;stroke:#39373a;stroke-width:.302"/><path d="M70.11 75.52c1.38 0 1.76.59 1.76 3.88s-.38 3.88-1.76 3.88c-1.33 0-1.71-.59-1.71-3.88 0-3.28.38-3.88 1.71-3.88m.02-2.56c-3.75 0-5.05 1.62-5.05 6.45s1.29 6.45 5.05 6.45c3.77 0 5.08-1.62 5.08-6.45 0-4.84-1.31-6.45-5.08-6.45m-8.45 9.59c-.86 0-1.13.27-1.13 1.13v.79c0 .86.27 1.13 1.13 1.13h.77c.86 0 1.13-.27 1.13-1.13v-.79c0-.86-.27-1.13-1.13-1.13h-.77zm-3.34 3.05V73.21h-3.36l-3.14 1.22.39 2.14 2.87-.65c-.11.5-.13.99-.13 1.47v8.21h3.37zm-6.72-4.85h-1.47v-5.12h-2.53l-.54 1.94v3.18h-2.42c-.29 0-.47-.18-.32-.52l2.71-7.02H43.9l-3.09 7.87c-.4.96.27 1.92 1.31 1.92h4.96v2.61h3.07V83h.04l1.44-.32v-1.93z" class="st15"/><circle cx="58.91" cy="59.24" r="11.01" style="clip-path:url(#SVGID_22_);fill:none;stroke:#39373a;stroke-width:.755"/><path d="M63.1 59.07c1.86-.25 1.92-1.09 2.95-4.45h-2.6c-.73 2.82-.91 3.66-2.23 3.66h-.45c.07-.38.11-.79.11-1.17v-2.49h-2.54V64h2.54v-3.14c0-.26-.04-.57-.11-.87h.49c1.31 0 1.41.61 2.38 4.01h2.67c-1.16-3.85-1.28-4.58-3.21-4.85v-.08zM56.36 64v-9.38h-2.54l-2.38.92.3 1.62 2.18-.49c-.08.38-.1.75-.1 1.11V64h2.54z" class="st15"/><path d="M164.47 21.46h6.18v17.76h-6.18z" class="st8"/><path d="M169.6 21.46h1.05v17.76h-1.05zm-.04 1.05-3.98.47v10.45l3.98.59m.04.54-4.02.6v2.23l4.02.54m-69.27 22.24h6.18v17.76h-6.18z" class="st8"/><path d="M105.46 60.17h1.05v17.76h-1.05zm-.04 1.05-3.98.47v10.44l3.98.59m.04.55-4.02.6v2.23l4.02.54" class="st8"/><path d="M132.03 39.83h38.8v1.7h-38.8z" class="st1"/><path d="M132.03 39.83h38.8v1.7h-38.8z" class="st2"/><path d="M132.03 83.8h38.8v1.7h-38.8z" class="st1"/><path d="M132.03 83.8h38.8v1.7h-38.8z" class="st2"/><path d="M99.61 78.53h8.76v1.7h-8.76z" class="st1"/><path d="M99.61 78.53h8.76v1.7h-8.76z" class="st2"/><path d="M125.07 78.53h8.38v1.7h-8.38z" class="st1"/><path d="M125.07 78.53h8.38v1.7h-8.38z" class="st2"/><path d="M132.03 70.92h1.7v14.43h-1.7z" class="st1"/><path d="M132.03 70.92h1.7v14.43h-1.7z" class="st2"/><path d="M132.03 39.83h1.7v18.61h-1.7z" class="st1"/><path d="M132.03 39.83h1.7v18.61h-1.7z" class="st2"/><defs><path id="SVGID_23_" d="M18.38 16.84h156.81v163.72H18.38z"/></defs><clipPath id="SVGID_24_"><use xlink:href="#SVGID_23_" style="overflow:visible"/></clipPath><path d="M154.65 75.16a3.88 3.88 0 0 0 3.87 3.87h5.6c.37 0 .67-.3.67-.67v-6.4c0-.37-.3-.67-.67-.67h-5.6c-2.14 0-3.87 1.73-3.87 3.87m10.4-3.2v6.4c0 .51-.42.93-.93.93h-5.6a4.131 4.131 0 0 1 0-8.26h5.6c.51-.01.93.41.93.93" class="st17"/><path d="M154.65 75.16a3.88 3.88 0 0 0 3.87 3.87h5.6c.37 0 .67-.3.67-.67v-6.4c0-.37-.3-.67-.67-.67h-5.6c-2.14 0-3.87 1.73-3.87 3.87zm10.4-3.2v6.4c0 .51-.42.93-.93.93h-5.6a4.131 4.131 0 0 1 0-8.26h5.6c.51-.01.93.41.93.93z" class="st18"/><path d="M162.92 77.93v-5.54c0-.04-.03-.07-.07-.07h-4.22a2.85 2.85 0 0 0-2.84 2.84 2.85 2.85 0 0 0 2.84 2.84h4.22c.03 0 .07-.04.07-.07z" class="st18"/><path d="M162.78 77.86v-5.41h-4.15c-1.49 0-2.71 1.21-2.71 2.71 0 1.49 1.21 2.71 2.71 2.71h4.15zm.27-5.48v5.55a.2.2 0 0 1-.2.2h-4.22a2.97 2.97 0 0 1 0-5.94h4.22c.11-.01.2.09.2.19" class="st17"/><path d="M162.78 77.86v-5.41h-4.15c-1.49 0-2.71 1.21-2.71 2.71 0 1.49 1.21 2.71 2.71 2.71h4.15zm.27-5.48v5.55a.2.2 0 0 1-.2.2h-4.22a2.97 2.97 0 0 1 0-5.94h4.22c.11-.01.2.09.2.19z" class="st18"/><path d="M158.62 75.16c0 .4.33.73.73.73s.73-.33.73-.73c0-.4-.33-.73-.73-.73s-.73.32-.73.73m1.73 0c0 .55-.45 1-1 1s-1-.45-1-1 .45-1 1-1 1 .45 1 1" class="st17"/><path d="M158.62 75.16c0 .4.33.73.73.73s.73-.33.73-.73c0-.4-.33-.73-.73-.73s-.73.32-.73.73zm1.73 0c0 .55-.45 1-1 1s-1-.45-1-1 .45-1 1-1 1 .45 1 1z" class="st18"/><path d="m162.38 77.32-.16.21-1.77-1.33.15-.21z" class="st1"/><path d="m162.38 77.32-.16.21-1.77-1.33.15-.21z" class="st19"/><path d="m162.38 73.04-1.78 1.33-.16-.22 1.78-1.32z" class="st1"/><path d="m162.38 73.04-1.78 1.33-.16-.22 1.78-1.32z" class="st19"/><defs><path id="SVGID_25_" d="M18.38 16.84h156.81v163.72H18.38z"/></defs><clipPath id="SVGID_26_"><use xlink:href="#SVGID_25_" style="overflow:visible"/></clipPath><path d="M165.06 77.83c0 .59.48 1.07 1.07 1.07h1.46c.59 0 1.07-.48 1.07-1.07v-5.34c0-.59-.48-1.07-1.07-1.07h-1.46c-.59 0-1.07.48-1.07 1.07v5.34zm3.87-5.34v5.34c0 .74-.6 1.34-1.34 1.34h-1.46c-.74 0-1.34-.6-1.34-1.34v-5.34c0-.74.6-1.34 1.34-1.34h1.46c.74 0 1.34.6 1.34 1.34" class="st20"/><path d="M165.06 77.83c0 .59.48 1.07 1.07 1.07h1.46c.59 0 1.07-.48 1.07-1.07v-5.34c0-.59-.48-1.07-1.07-1.07h-1.46c-.59 0-1.07.48-1.07 1.07v5.34zm3.87-5.34v5.34c0 .74-.6 1.34-1.34 1.34h-1.46c-.74 0-1.34-.6-1.34-1.34v-5.34c0-.74.6-1.34 1.34-1.34h1.46c.74 0 1.34.6 1.34 1.34z" class="st21"/><path d="M166.45 75.16c0 .23.19.41.41.41s.41-.19.41-.41c0-.23-.18-.41-.41-.41s-.41.18-.41.41m1.09 0c0 .38-.31.68-.68.68s-.68-.31-.68-.68.3-.68.68-.68.68.3.68.68" class="st20"/><path d="M166.45 75.16c0 .23.19.41.41.41s.41-.19.41-.41c0-.23-.18-.41-.41-.41s-.41.18-.41.41zm1.09 0c0 .38-.31.68-.68.68s-.68-.31-.68-.68.3-.68.68-.68.68.3.68.68z" class="st21"/><path d="M135.32 46.91a4.29 4.29 0 0 1 4.29-4.29h25.55a4.28 4.28 0 0 1 4.28 4.29v4.94c0 2.37-1.92 4.28-4.28 4.28h-25.55c-2.37 0-4.29-1.92-4.29-4.28v-4.94z" class="st22"/><path d="M137.7 48.18a4.29 4.29 0 0 1 4.29-4.29h20.8a4.29 4.29 0 0 1 4.29 4.29v2.41a4.28 4.28 0 0 1-4.29 4.28h-20.8c-2.37 0-4.29-1.92-4.29-4.28v-2.41z" class="st22"/><path d="M140.56 47.25c0-1.18.96-2.14 2.14-2.14h20.91c1.18 0 2.14.96 2.14 2.14v4.26c0 1.18-.96 2.14-2.14 2.14H142.7c-1.18 0-2.14-.96-2.14-2.14v-4.26z" class="st22"/><path d="M163.21 49.38c0 .33-.28.59-.64.59s-.63-.26-.63-.59c0-.33.28-.59.63-.59s.64.27.64.59z" class="st22"/><path d="M134.07 56.91h36.81" class="st8"/><defs><path id="SVGID_27_" d="M18.38 16.84h156.81v163.72H18.38z"/></defs><clipPath id="SVGID_28_"><use xlink:href="#SVGID_27_" style="overflow:visible"/></clipPath><path d="M161.48 65.22c0 2.26 1.84 4.1 4.1 4.1h4.35c.34 0 .62-.28.62-.62v-9.27c0-.34-.28-.62-.62-.62h-4.35c-2.26 0-4.1 1.84-4.1 4.1v2.31zm9.3-5.79v9.27c0 .47-.38.85-.85.85h-4.35c-2.39 0-4.33-1.94-4.33-4.33v-2.31c0-2.39 1.94-4.33 4.33-4.33h4.35c.47 0 .85.38.85.85" class="st23"/><path d="M161.48 65.22c0 2.26 1.84 4.1 4.1 4.1h4.35c.34 0 .62-.28.62-.62v-9.27c0-.34-.28-.62-.62-.62h-4.35c-2.26 0-4.1 1.84-4.1 4.1v2.31zm9.3-5.79v9.27c0 .47-.38.85-.85.85h-4.35c-2.39 0-4.33-1.94-4.33-4.33v-2.31c0-2.39 1.94-4.33 4.33-4.33h4.35c.47 0 .85.38.85.85z" class="st24"/><path d="M162.51 65.22c0 1.69 1.38 3.07 3.07 3.07h2.54c.3 0 .54-.24.54-.54v-7.39c0-.3-.24-.54-.54-.54h-2.54c-1.69 0-3.07 1.38-3.07 3.07v2.33zm6.37-4.85v7.39c0 .42-.34.77-.77.77h-2.54c-1.82 0-3.3-1.48-3.3-3.3v-2.31c0-1.82 1.48-3.3 3.3-3.3h2.54c.43-.01.77.33.77.75" class="st23"/><path d="M162.51 65.22c0 1.69 1.38 3.07 3.07 3.07h2.54c.3 0 .54-.24.54-.54v-7.39c0-.3-.24-.54-.54-.54h-2.54c-1.69 0-3.07 1.38-3.07 3.07v2.33zm6.37-4.85v7.39c0 .42-.34.77-.77.77h-2.54c-1.82 0-3.3-1.48-3.3-3.3v-2.31c0-1.82 1.48-3.3 3.3-3.3h2.54c.43-.01.77.33.77.75z" class="st24"/><path d="M164.66 64.06c0 .28.23.51.51.51s.51-.23.51-.51-.23-.51-.51-.51-.51.23-.51.51m1.25 0c0 .41-.33.74-.74.74s-.74-.33-.74-.74.33-.74.74-.74c.4.01.74.34.74.74" class="st23"/><path d="M164.66 64.06c0 .28.23.51.51.51s.51-.23.51-.51-.23-.51-.51-.51-.51.23-.51.51zm1.25 0c0 .41-.33.74-.74.74s-.74-.33-.74-.74.33-.74.74-.74c.4.01.74.34.74.74z" class="st24"/><path d="M134.69 69.88h8.64v12.58h-8.64z" style="fill:none;stroke:#39373a;stroke-width:.462"/><path stroke-width=".454" d="m21.576 167.653.389-2.601L98.573 176.5l-.39 2.601z" class="st8"/><path d="M170.51 86.24h-12.28v12.28h12.28V86.24zm.27 12.55h-12.82V85.97h12.82v12.82z" class="st1"/><path d="M170.51 86.24h-12.28v12.28h12.28V86.24zm.27 12.55h-12.82V85.97h12.82v12.82z" class="st19"/><defs><path id="SVGID_29_" d="M18.38 16.84h156.81v163.72H18.38z"/></defs><clipPath id="SVGID_30_"><use xlink:href="#SVGID_29_" style="overflow:visible"/></clipPath><path d="M159.35 96.68c0 .3.25.55.55.55h6.46c.3 0 .55-.25.55-.55v-8.6c0-.3-.25-.55-.55-.55h-6.46c-.3 0-.55.25-.55.55v8.6zm7.82-8.6v8.6c0 .45-.37.82-.82.82h-6.46c-.45 0-.82-.37-.82-.82v-8.6c0-.45.37-.82.82-.82h6.46c.46 0 .82.37.82.82" style="clip-path:url(#SVGID_30_);fill:#39373a"/><path d="M159.35 96.68c0 .3.25.55.55.55h6.46c.3 0 .55-.25.55-.55v-8.6c0-.3-.25-.55-.55-.55h-6.46c-.3 0-.55.25-.55.55v8.6zm7.82-8.6v8.6c0 .45-.37.82-.82.82h-6.46c-.45 0-.82-.37-.82-.82v-8.6c0-.45.37-.82.82-.82h6.46c.46 0 .82.37.82.82z" style="clip-path:url(#SVGID_30_);fill:none;stroke:#39373a;stroke-width:.189"/><path d="M165.95 88.48h-5.65v7.79h5.65v-7.79zm.27 8.07h-6.19v-8.34h6.19v8.34z" class="st1"/><path d="M165.95 88.48h-5.65v7.79h5.65v-7.79zm.27 8.07h-6.19v-8.34h6.19v8.34z" class="st19"/><defs><path id="SVGID_31_" d="M18.38 16.84h156.81v163.72H18.38z"/></defs><clipPath id="SVGID_32_"><use xlink:href="#SVGID_31_" style="overflow:visible"/></clipPath><path d="M162.03 92.38c0 .39.32.71.71.71.39 0 .71-.32.71-.71 0-.39-.32-.71-.71-.71-.39 0-.71.32-.71.71m1.7 0c0 .54-.44.98-.98.98s-.98-.44-.98-.98.44-.98.98-.98.98.44.98.98" style="clip-path:url(#SVGID_32_);fill:#39373a"/><path d="M162.03 92.38c0 .39.32.71.71.71.39 0 .71-.32.71-.71 0-.39-.32-.71-.71-.71-.39 0-.71.32-.71.71zm1.7 0c0 .54-.44.98-.98.98s-.98-.44-.98-.98.44-.98.98-.98.98.44.98.98z" style="clip-path:url(#SVGID_32_);fill:none;stroke:#39373a;stroke-width:.189"/><path d="m109.74 30.52.56.94 20.56-12.45-.56-.95z" class="st8"/><defs><path id="SVGID_33_" d="M18.38 16.84h156.81v163.72H18.38z"/></defs><clipPath id="SVGID_34_"><use xlink:href="#SVGID_33_" style="overflow:visible"/></clipPath><path d="M109.88 30.93s-1.57-2.62-2.08-6.47c-.51-3.89-.15-7.59-.15-7.59" style="clip-path:url(#SVGID_34_);fill:none;stroke:#39373a;stroke-width:.302"/></g></switch></svg>