<svg xmlns="http://www.w3.org/2000/svg" xmlns:xlink="http://www.w3.org/1999/xlink" xml:space="preserve" id="Слой_1" x="0" y="0" style="enable-background:new 0 0 154 201" version="1.1" viewBox="0 0 154 201"><style>.st2{fill:#39373a}.st3{stroke-width:.669}.st3,.st5,.st8{fill:none;stroke:#39373a}.st5{stroke-width:.539}.st8{clip-path:url(#SVGID_4_);stroke-width:.567}.st10{clip-path:url(#SVGID_6_);fill:#39373a}.st11{fill:none;stroke:#39373a;stroke-width:.236}.st11,.st12{clip-path:url(#SVGID_6_)}.st12,.st13{fill:none;stroke:#39373a;stroke-width:.279}.st14{clip-path:url(#SVGID_8_);fill:#39373a}.st15,.st16{fill:none;stroke:#39373a}.st15{clip-path:url(#SVGID_8_);stroke-width:.279}.st16{stroke-width:.244}</style><switch><g><path d="M23 29.3h109v144.5H23z" style="fill:#b7e0e6"/><path d="M98.8 174.4V82.2" style="fill:none;stroke:#39373a;stroke-width:1.116;stroke-dasharray:4.387,4.387"/><path d="M16.5 182h41.4v7.3H16.5zm81.9 0h35.8v7.3H98.4z" class="st2"/><path d="M16.5 173.8h38.9v11.8H16.5zM73.7 26.9H78v27.5h-4.3zm0 46.1H78v10.3h-4.3z" class="st2"/><path d="M74.4 79h62.3v4.3H74.4zM20 78.8h19.9v4.3H20zm80.9 95h35.8v11.8h-35.8zm-81.2-152h20.6v7.3H19.7zm44.7 0h75.1v7.3H64.4z" class="st2"/><path d="M132.2 24.1h7.3v165.2h-7.3zM16.5 21.8h7.1v167.5h-7.1z" class="st2"/><path d="M48.6 174.1h58.7v8H48.6z" class="st3"/><defs><path id="SVGID_1_" d="M14.2 11.5h129v177.8h-129z"/></defs><clipPath id="SVGID_2_"><use xlink:href="#SVGID_1_" style="overflow:visible"/></clipPath><path d="M48.6 174.1h58.7v14.8H48.6z" style="clip-path:url(#SVGID_2_);fill:none;stroke:#39373a;stroke-width:.669"/><path d="m65.072 57.996.945-.562 10.227 17.187-.945.563zM66.2 57.4s1.7-1.2 5.6-2.5c1.5-.5 3-.9 4.2-1.1" class="st5"/><path d="m45.02 13.06.665-1.117 17.617 10.483-.665 1.117zm-.12.14s-1.5 2-2.9 6.6c-.6 1.7-1 3.5-1.3 4.9" style="stroke-width:.633;fill:none;stroke:#39373a"/><path d="M14.2 11.5h129v177.8h-129z" style="fill:none"/><path d="M61.3 21.8h6v4h-6zm-25.9 0h6v4h-6z" class="st2"/><defs><path id="SVGID_3_" d="M14.2 11.5h129v177.8h-129z"/></defs><clipPath id="SVGID_4_"><use xlink:href="#SVGID_3_" style="overflow:visible"/></clipPath><path d="M125.2 75.6s5.4 0 5.4-5.4v-32s0-5.4-5.4-5.4H118s-5.4 0-5.4 5.4v32s0 5.4 5.4 5.4h7.2z" class="st8"/><path d="M123.5 72.6s5.4 0 5.4-5.4v-26s0-5.4-5.4-5.4h-3.8s-5.4 0-5.4 5.4v26.1s0 5.4 5.4 5.4h3.8z" class="st8"/><path d="M124.6 69s2.7 0 2.7-2.7V40.2s0-2.7-2.7-2.7h-6s-2.7 0-2.7 2.7v26.2s0 2.7 2.7 2.7h6z" class="st8"/><path d="M121.6 40.7c-.4 0-.8.4-.8.8s.4.8.8.8.8-.4.8-.8c0-.5-.4-.8-.8-.8z" class="st8"/><path d="M111.6 80.4V28.5" style="fill:none;stroke:#39373a;stroke-width:.567"/><defs><path id="SVGID_5_" d="M14.2 11.5h129v177.8h-129z"/></defs><clipPath id="SVGID_6_"><use xlink:href="#SVGID_5_" style="overflow:visible"/></clipPath><path d="M104.2 41.1c2.8 0 5.1-2.3 5.1-5.1v-5.4c0-.4-.3-.8-.8-.8H96.9c-.4 0-.8.3-.8.8V36c0 2.8 2.3 5.1 5.1 5.1h3zm-7.3-11.7h11.6c.6 0 1.1.5 1.1 1.1v5.4c0 3-2.4 5.4-5.4 5.4h-2.9c-3 0-5.4-2.4-5.4-5.4v-5.4c-.1-.6.4-1.1 1-1.1" class="st10"/><path d="M104.2 41.1c2.8 0 5.1-2.3 5.1-5.1v-5.4c0-.4-.3-.8-.8-.8H96.9c-.4 0-.8.3-.8.8V36c0 2.8 2.3 5.1 5.1 5.1h3zm-7.3-11.7h11.6c.6 0 1.1.5 1.1 1.1v5.4c0 3-2.4 5.4-5.4 5.4h-2.9c-3 0-5.4-2.4-5.4-5.4v-5.4c-.1-.6.4-1.1 1-1.1z" class="st11"/><path d="M104.2 39.8c2.1 0 3.8-1.7 3.8-3.8v-3.2c0-.4-.3-.7-.7-.7h-9.2c-.4 0-.7.3-.7.7V36c0 2.1 1.7 3.8 3.8 3.8h3zm-6.1-8h9.2c.5 0 1 .4 1 1V36c0 2.3-1.9 4.1-4.1 4.1h-2.9c-2.3 0-4.1-1.9-4.1-4.1v-3.2c-.1-.6.4-1 .9-1" class="st10"/><path d="M104.2 39.8c2.1 0 3.8-1.7 3.8-3.8v-3.2c0-.4-.3-.7-.7-.7h-9.2c-.4 0-.7.3-.7.7V36c0 2.1 1.7 3.8 3.8 3.8h3zm-6.1-8h9.2c.5 0 1 .4 1 1V36c0 2.3-1.9 4.1-4.1 4.1h-2.9c-2.3 0-4.1-1.9-4.1-4.1v-3.2c-.1-.6.4-1 .9-1z" class="st11"/><path d="M102.7 37.1c.3 0 .6-.3.6-.6 0-.4-.3-.6-.6-.6-.4 0-.6.3-.6.6s.3.6.6.6m0-1.6c.5 0 .9.4.9.9s-.4.9-.9.9-.9-.4-.9-.9.4-.9.9-.9" class="st10"/><path d="M102.7 37.1c.3 0 .6-.3.6-.6 0-.4-.3-.6-.6-.6-.4 0-.6.3-.6.6s.3.6.6.6zm0-1.6c.5 0 .9.4.9.9s-.4.9-.9.9-.9-.4-.9-.9.4-.9.9-.9z" class="st11"/><path d="M87.4 47.1c-2.6 0-4.7-2.1-4.7-4.8v-6.9c0-.5.4-.8.8-.8h7.8c.4 0 .8.4.8.8v6.9c0 2.6-2.1 4.8-4.7 4.8m3.9-12.9h-7.8c-.6 0-1.1.5-1.1 1.1v6.9c0 2.8 2.3 5.1 5 5.1 2.8 0 5-2.3 5-5.1v-6.9c0-.5-.5-1.1-1.1-1.1" class="st10"/><path d="M87.4 47.1c-2.6 0-4.7-2.1-4.7-4.8v-6.9c0-.5.4-.8.8-.8h7.8c.4 0 .8.4.8.8v6.9c0 2.6-2.1 4.8-4.7 4.8zm3.9-12.9h-7.8c-.6 0-1.1.5-1.1 1.1v6.9c0 2.8 2.3 5.1 5 5.1 2.8 0 5-2.3 5-5.1v-6.9c0-.5-.5-1.1-1.1-1.1z" class="st12"/><path d="M84 36.9h6.8s.1 0 .1.1v5.2c0 1.9-1.6 3.5-3.5 3.5s-3.5-1.6-3.5-3.5l.1-5.3c-.1 0 0 0 0 0z" class="st12"/><path d="M84.1 37h6.6v5.1c0 1.8-1.5 3.3-3.3 3.3-1.8 0-3.3-1.5-3.3-3.3V37zm6.7-.3H84c-.1 0-.2.1-.2.2v5.2c0 2 1.6 3.7 3.6 3.7s3.6-1.6 3.6-3.7V37c0-.2-.1-.3-.2-.3" class="st10"/><path d="M84.1 37h6.6v5.1c0 1.8-1.5 3.3-3.3 3.3-1.8 0-3.3-1.5-3.3-3.3V37zm6.7-.3H84c-.1 0-.2.1-.2.2v5.2c0 2 1.6 3.7 3.6 3.7s3.6-1.6 3.6-3.7V37c0-.2-.1-.3-.2-.3z" class="st12"/><path d="M87.4 42.2c-.5 0-.9-.4-.9-.9s.4-.9.9-.9.9.4.9.9-.4.9-.9.9m0-2.1c-.7 0-1.2.5-1.2 1.2s.5 1.2 1.2 1.2 1.2-.5 1.2-1.2-.5-1.2-1.2-1.2" class="st10"/><path d="M87.4 42.2c-.5 0-.9-.4-.9-.9s.4-.9.9-.9.9.4.9.9-.4.9-.9.9zm0-2.1c-.7 0-1.2.5-1.2 1.2s.5 1.2 1.2 1.2 1.2-.5 1.2-1.2-.5-1.2-1.2-1.2z" class="st12"/><path d="m84.8 37.6-.3.1 1.6 2.2.2-.2z" class="st2"/><path d="m84.8 37.6-.3.1 1.6 2.2.2-.2z" class="st13"/><path d="m90 37.6-1.6 2.1.2.2 1.6-2.2z" class="st2"/><path d="m90 37.6-1.6 2.1.2.2 1.6-2.2z" class="st13"/><defs><path id="SVGID_7_" d="M14.2 11.5h129v177.8h-129z"/></defs><clipPath id="SVGID_8_"><use xlink:href="#SVGID_7_" style="overflow:visible"/></clipPath><path d="M84.1 34.2c-.7 0-1.3-.6-1.3-1.3v-1.8c0-.7.6-1.3 1.3-1.3h6.5c.7 0 1.3.6 1.3 1.3v1.8c0 .7-.6 1.3-1.3 1.3h-6.5zm6.6-4.7h-6.5c-.9 0-1.6.7-1.6 1.6v1.8c0 .9.7 1.6 1.6 1.6h6.5c.9 0 1.6-.7 1.6-1.6v-1.8c0-.9-.7-1.6-1.6-1.6" class="st14"/><path d="M84.1 34.2c-.7 0-1.3-.6-1.3-1.3v-1.8c0-.7.6-1.3 1.3-1.3h6.5c.7 0 1.3.6 1.3 1.3v1.8c0 .7-.6 1.3-1.3 1.3h-6.5zm6.6-4.7h-6.5c-.9 0-1.6.7-1.6 1.6v1.8c0 .9.7 1.6 1.6 1.6h6.5c.9 0 1.6-.7 1.6-1.6v-1.8c0-.9-.7-1.6-1.6-1.6z" class="st15"/><path d="M87.4 32.5c-.3 0-.5-.2-.5-.5s.2-.5.5-.5.5.2.5.5-.2.5-.5.5m0-1.3c-.4 0-.8.4-.8.8 0 .5.4.8.8.8s.8-.4.8-.8c0-.5-.4-.8-.8-.8" class="st14"/><path d="M87.4 32.5c-.3 0-.5-.2-.5-.5s.2-.5.5-.5.5.2.5.5-.2.5-.5.5zm0-1.3c-.4 0-.8.4-.8.8 0 .5.4.8.8.8s.8-.4.8-.8c0-.5-.4-.8-.8-.8z" class="st15"/><path d="M117.8 83.1h-15.9V99h15.9V83.1zm-16.2-.4h16.6v16.6h-16.6V82.7z" class="st2"/><path d="M117.8 83.1h-15.9V99h15.9V83.1zm-16.2-.4h16.6v16.6h-16.6V82.7z" class="st16"/><defs><path id="SVGID_9_" d="M14.2 11.5h129v177.8h-129z"/></defs><clipPath id="SVGID_10_"><use xlink:href="#SVGID_9_" style="overflow:visible"/></clipPath><path d="M115.4 97.5c.4 0 .7-.3.7-.7v-8.3c0-.4-.3-.7-.7-.7h-11.1c-.4 0-.7.3-.7.7v8.3c0 .4.3.7.7.7h11.1zm-11.1-10.1h11.1c.6 0 1.1.5 1.1 1.1v8.3c0 .6-.5 1.1-1.1 1.1h-11.1c-.6 0-1.1-.5-1.1-1.1v-8.3c0-.7.5-1.1 1.1-1.1" style="clip-path:url(#SVGID_10_);fill:#39373a"/><path d="M115.4 97.5c.4 0 .7-.3.7-.7v-8.3c0-.4-.3-.7-.7-.7h-11.1c-.4 0-.7.3-.7.7v8.3c0 .4.3.7.7.7h11.1zm-11.1-10.1h11.1c.6 0 1.1.5 1.1 1.1v8.3c0 .6-.5 1.1-1.1 1.1h-11.1c-.6 0-1.1-.5-1.1-1.1v-8.3c0-.7.5-1.1 1.1-1.1z" style="clip-path:url(#SVGID_10_);fill:none;stroke:#39373a;stroke-width:.244"/><path d="M114.9 88.9h-10.1v7.3h10.1v-7.3zm-10.4-.3h10.8v8h-10.8v-8z" class="st2"/><path d="M114.9 88.9h-10.1v7.3h10.1v-7.3zm-10.4-.3h10.8v8h-10.8v-8z" class="st16"/><defs><path id="SVGID_11_" d="M14.2 11.5h129v177.8h-129z"/></defs><clipPath id="SVGID_12_"><use xlink:href="#SVGID_11_" style="overflow:visible"/></clipPath><path d="M109.9 94c.5 0 .9-.4.9-.9s-.4-.9-.9-.9-.9.4-.9.9c-.1.5.3.9.9.9m0-2.2c.7 0 1.3.6 1.3 1.3s-.6 1.3-1.3 1.3c-.7 0-1.3-.6-1.3-1.3s.6-1.3 1.3-1.3" style="clip-path:url(#SVGID_12_);fill:#39373a"/><path d="M109.9 94c.5 0 .9-.4.9-.9s-.4-.9-.9-.9-.9.4-.9.9c-.1.5.3.9.9.9zm0-2.2c.7 0 1.3.6 1.3 1.3s-.6 1.3-1.3 1.3c-.7 0-1.3-.6-1.3-1.3s.6-1.3 1.3-1.3z" style="clip-path:url(#SVGID_12_);fill:none;stroke:#39373a;stroke-width:.244"/><path d="M95.3 66.7h14.1v12.5H95.3z" class="st5"/><path d="M108.4 127.2c.9.1.9.5 1.5 2.2h-1.2c-.4-1.6-.5-1.8-1.1-1.8h-.2v1.8h-1.2v-4.3h1.2v1.6h.2c.6 0 .7-.4 1-1.7h1.2c-.5 1.7-.5 2.1-1.4 2.2z" class="st2"/><path d="M112.5 129.4c-.2.7-.6 1-1.1 1.2-.4.1-.8.1-1.3.1l.1-.7c.4 0 .7 0 .9-.1.1-.1.2-.2.3-.4h-.2c-.2 0-.3-.1-.4-.3l-1-2.8h1.2l.5 1.8c0 .2.1.3.1.5h.1c0-.2.1-.4.1-.5l.5-1.8h1.2l-1 3zm2.8-1.2-.7 1.2h-1.1l.9-1.6-.8-1.5h1.1l.6 1.2.6-1.2h1.1l-.8 1.5.9 1.6H116l-.7-1.2zm5.4 1.2h-1.1v-1.3h-.9v1.3h-1.1v-3.1h1.1v1.1h.9v-1.1h1.1v3.1zm1.3-1.3c-.5-.1-.7-.5-.7-.8 0-.8.3-1 1.4-1h1.6v3.1h-1.1v-1h-.4c-.2 0-.3 0-.3.2l-.2.8h-1.2l.2-1c.1-.2.5-.3.7-.3zm1.2-1h-.4c-.3 0-.3.1-.3.3 0 .3.1.4.3.4h.4v-.7zm1.7 1.1v-.7h1.8v.7h-1.8zm-13.3 8.7h-1.1v-1.3h-.9v1.3h-1.1v-3.1h1.1v1.1h.9v-1.1h1.1v3.1zm2.9 0V135c-.1.2-.2.4-.2.5l-1 1.4h-1v-3.1h1v2c.1-.2.1-.3.2-.5l1-1.5h1v3.1h-1zm6.3 0h-4.7v-3.1h1.1v2.3h.7v-2.3h1v2.3h.7v-2.3h1.1v3.1zm.7-3c.5-.1 1.2-.2 1.7-.2.8 0 1.3.3 1.3 1.2v2h-.9l-.1-.5c-.2.3-.6.5-1.1.5-.6 0-1-.3-1-.9v-.3c0-.5.4-.8 1-.8h1v-.1c0-.3-.1-.4-.4-.4h-1.3l-.2-.5zm.9 2c0 .2.1.2.3.2.2 0 .4-.1.6-.2v-.4h-.6c-.2 0-.3.1-.3.2v.2zm-9.1 5v.6l.7.1c1 .1 1.3.7 1.3 1.4 0 .8-.3 1.4-1.6 1.4-.4 0-1 0-1.5-.1l.1-.9h1.1c.6 0 .7-.1.7-.5s-.2-.5-.8-.5l-.7-.1c-.2 0-.3-.2-.3-.4l.1-1.9h2.7v.9h-1.8zm3 2.4c.3 0 .4.1.4.4v.3c0 .3-.1.4-.4.4h-.3c-.3 0-.4-.1-.4-.4v-.3c0-.3.1-.4.4-.4h.3zm4.4-1.1c0 1.7-.5 2.2-1.8 2.2s-1.7-.6-1.7-2.2c0-1.7.4-2.2 1.7-2.2 1.4 0 1.8.5 1.8 2.2zm-2.3 0c0 1.1.1 1.3.6 1.3s.6-.2.6-1.3-.1-1.3-.6-1.3-.6.2-.6 1.3zM36.5 54.5h-1.2V51H34v3.5h-1.2v-4.3h3.6v4.3zm1.8-2.6c.2-.3.7-.5 1.2-.5.8 0 1.1.6 1.1 1.7 0 1.3-.4 1.6-1.2 1.6-.4 0-.7-.1-1-.3v1.4h-1.1v-4.2h.9l.1.3zm.1 1.8c.2 0 .3.1.5.1.3 0 .4-.1.4-.8 0-.7-.1-.8-.4-.8-.2 0-.4.1-.6.2v1.3zm4.9.8v-1.9c-.1.2-.2.4-.2.5l-1 1.4h-1v-3.1h1v2c.1-.2.1-.3.2-.5l1-1.5h1v3.1h-1zm3.1-1.2-.7 1.2h-1.1l.9-1.6-.8-1.5h1.1l.6 1.2.6-1.2h1.1l-.8 1.6.9 1.6h-1.1l-.7-1.3zm5.3-.3c0 1.2-.4 1.6-1.7 1.6-1.2 0-1.7-.4-1.7-1.6 0-1.2.4-1.6 1.7-1.6 1.3 0 1.7.4 1.7 1.6zm-2.1 0c0 .7.1.8.5.8s.5-.1.5-.8c0-.7-.1-.8-.5-.8s-.5.1-.5.8zm6.2-.1c.7.1.8.2 1.2 1.6h-1.1c-.4-1.2-.4-1.2-.7-1.2H55v1.3h-1v-1.3h-.2c-.3 0-.3.1-.7 1.2H52c.4-1.4.5-1.5 1.2-1.6-.7-.1-.7-.2-1.1-1.5h1.1c.3 1 .4 1.1.7 1.1h.1v-1.1h1v1.1h.2c.3 0 .3-.1.7-1.1H57c-.5 1.3-.5 1.4-1.2 1.5zm1.6-1.4c.5-.1 1.2-.2 1.7-.2.8 0 1.3.3 1.3 1.2v2h-.9l-.1-.5c-.2.3-.6.5-1.1.5-.6 0-1-.3-1-.9v-.3c0-.5.4-.8 1-.8h1v-.1c0-.3-.1-.4-.4-.4h-1.3l-.2-.5zm1 2.1c0 .2.1.2.3.2.2 0 .4-.1.6-.2v-.4h-.6c-.2 0-.3.1-.3.2v.2zm3.3-.4c-.5-.1-.7-.5-.7-.8 0-.8.3-1 1.4-1H64v3.1h-1.1v-1h-.4c-.2 0-.3 0-.3.2l-.2.8h-1.2l.2-1c.2-.2.5-.3.7-.3zm1.2-1h-.4c-.3 0-.3.1-.3.3 0 .3.1.4.3.4h.4v-.7zM47.7 61l-.5.1v.9h-1.1v-.9h-1.7c-.4 0-.6-.3-.5-.7l1.1-2.7h1.1l-.9 2.4c0 .1 0 .2.1.2h.8v-1.1l.2-.7h.9v1.8h.5v.7zm1.1-.1c.3 0 .4.1.4.4v.3c0 .3-.1.4-.4.4h-.3c-.3 0-.4-.1-.4-.4v-.3c0-.3.1-.4.4-.4h.3zm.9-3.2c.5-.1 1-.1 1.4-.1 1.1 0 1.5.2 1.5 1 0 .6-.1 1-.7 1.1.6.1.8.4.8 1.1 0 .9-.4 1.3-1.5 1.3-.5 0-1.1 0-1.5-.1v-.8h1.2c.5 0 .7-.1.7-.5s-.1-.5-.6-.5h-.8v-.7h.8c.5 0 .5-.2.5-.5s-.1-.4-.6-.4h-1.2v-.9zm43.4-2.9c-.4.1-.8.2-1.5.2-1.4 0-1.9-.6-1.9-2.2s.5-2.2 1.9-2.2c.6 0 .9 0 1.4.2l-.1.9h-1.3c-.5 0-.7.3-.7 1.2s.1 1.2.7 1.2 1 0 1.4-.1l.1.8zm.2.6 2.4-4.8h.9l-2.4 4.8h-.9zm6-.6c-.2.7-.6 1-1.1 1.2-.4.1-.8.1-1.3.1l.1-.7c.4 0 .7 0 .9-.1.1-.1.2-.2.3-.4H98c-.2 0-.3-.1-.4-.3l-1-2.8h1.2l.5 1.8c0 .2.1.3.1.5h.1c0-.2.1-.4.1-.5l.5-1.8h1.2l-1 3zM94 61.3l-.5.1v.9h-1.1v-.9h-1.7c-.4 0-.6-.3-.5-.7l1.1-2.7h1.1l-.9 2.4c0 .1 0 .2.1.2h.8v-1.1l.2-.7h.9v1.8h.5v.7zm1 0c.3 0 .4.1.4.4v.3c0 .3-.1.4-.4.4h-.3c-.3 0-.4-.1-.4-.4v-.3c0-.3.1-.4.4-.4h.3zm4.6 0-.5.1v.9H98v-.9h-1.7c-.4 0-.6-.3-.5-.7l1.1-2.7H98l-.9 2.4c0 .1 0 .2.1.2h.8v-1.1l.2-.7h.9v1.8h.5v.7zm-46.1 80.3c1.2.2 1.3.7 2 3.2h-1.7c-.7-2.2-.7-2.6-1.4-2.6h-.3c0 .2.1.4.1.6v2.1h-1.6v-2.1c0-.2 0-.4.1-.6h-.3c-.6 0-.7.4-1.4 2.6h-1.7c.7-2.5.8-3 2-3.2v-.1c-1.2-.2-1.2-.7-1.9-2.9h1.7c.5 1.8.7 2.4 1.2 2.4h.3c-.1-.3-.1-.5-.1-.8v-1.6h1.6v1.6c0 .2 0 .5-.1.8h.3c.6 0 .7-.6 1.3-2.4h1.7c-.6 2.2-.6 2.7-1.8 3zm5.7 3.1v-2c0-.3 0-.5.1-.8-.1.2-.2.5-.4.7l-1.4 2h-1.4v-4.4h1.4v2.1c0 .2 0 .4-.1.7l.3-.6 1.4-2.1h1.4v4.4h-1.3zm6.8 0h-1.6v-3.3H64c-.3 0-.4.1-.4.4-.1.7-.2 1.4-.3 1.9-.2 1.1-1.1 1.3-2 1.2l-.2-1.2c.4-.1.6-.1.7-.4.1-.3.2-.9.2-1.7.1-.7.5-1.1 1.2-1.1H66v4.2zm1-4.3c.7-.1 1.8-.2 2.4-.2 1.2 0 1.8.4 1.8 1.7v2.8H70l-.2-.6c-.3.4-.8.8-1.6.8s-1.5-.4-1.5-1.3v-.4c0-.7.5-1.1 1.4-1.1h1.5v-.1c0-.4-.2-.5-.6-.5-.4 0-1.2 0-1.9.1l-.1-1.2zm1.4 3c0 .2.1.4.4.4.3 0 .6-.1.9-.3v-.6h-.9c-.3 0-.4.1-.4.3v.2zm4.7-.6c-.7-.2-1-.7-1-1.2 0-1.1.4-1.4 2-1.4 1.2 0 1.7 0 2.2.1v4.4h-1.6v-1.4h-.6c-.3 0-.4.1-.4.3l-.3 1.2h-1.7l.3-1.4c.3-.4.8-.5 1.1-.6zm1.7-1.5h-.6c-.4 0-.5.1-.5.4 0 .4.1.5.5.5h.6v-.9zm-28.5 11.8c1 .2 1.1.2 1.7 2.3h-1.7c-.5-1.6-.5-1.7-1-1.7H45c0 .1.1.2.1.4v1.4h-1.6V151H45v1c0 .2 0 .4-.1.6h.2c.6 0 .7-.1 1-1.6h1.6c-.4 1.8-.4 1.9-1.4 2.1zm6.8.1c0 1.7-.6 2.3-2.4 2.3-1.7 0-2.4-.6-2.4-2.3 0-1.7.6-2.3 2.4-2.3 1.8 0 2.4.6 2.4 2.3zm-3 0c0 1 .1 1.2.7 1.2.5 0 .7-.2.7-1.2s-.1-1.2-.7-1.2-.7.2-.7 1.2zm9.4-2.2c.4 0 .5.2.6.6l.1 3.9h-1.5l-.1-3.2h-.1l-.5 2.1c-.1.3-.3.5-.6.5h-.7c-.3 0-.6-.2-.6-.5l-.5-2.1h-.1l-.1 3.2h-1.5l.1-3.9c0-.4.2-.6.6-.6H56c.3 0 .5.2.6.5l.4 1.6c.1.2.1.4.1.7H57c0-.2 0-.4.1-.7l.4-1.6c.1-.3.3-.5.6-.5h1.4zm6.1 4.4H64v-1.8h-1.3v1.8H61V151h1.6v1.6H64V151h1.6v4.4zm.9-4.3c.7-.1 1.8-.2 2.4-.2 1.2 0 1.8.4 1.8 1.7v2.8h-1.3l-.2-.6c-.3.4-.8.8-1.6.8s-1.5-.4-1.5-1.3v-.4c0-.7.5-1.1 1.4-1.1H69v-.1c0-.4-.2-.5-.6-.5-.4 0-1.2 0-1.9.1v-1.2zm1.4 2.9c0 .2.1.4.4.4.3 0 .6-.1.9-.3v-.6h-.9c-.3 0-.4.1-.4.3v.2zm6.5-1.8v3.2h-1.6v-3.2h-1.4V151h4.4v1.2h-1.4zm2-1.1c.7-.1 1.8-.2 2.4-.2 1.2 0 1.8.4 1.8 1.7v2.8h-1.3l-.2-.6c-.3.4-.8.8-1.6.8s-1.5-.4-1.5-1.3v-.4c0-.7.5-1.1 1.4-1.1H79v-.1c0-.4-.2-.5-.6-.5-.4 0-1.2 0-1.9.1l-.1-1.2zm1.3 2.9c0 .2.1.4.4.4.3 0 .6-.1.9-.3v-.6h-.9c-.3 0-.4.1-.4.3v.2zM55 166.1V162c0-.2 0-.5.1-.7l-1.4.3-.2-1.1 1.6-.6h1.7v6.1H55zm7.7-3.1c0 2.4-.6 3.2-2.5 3.2s-2.5-.8-2.5-3.2c0-2.4.6-3.2 2.5-3.2s2.5.8 2.5 3.2zm-3.3 0c0 1.6.2 1.9.8 1.9.7 0 .9-.3.9-1.9 0-1.6-.2-1.9-.9-1.9s-.8.3-.8 1.9zm5 1.5c.4 0 .6.1.6.6v.4c0 .4-.1.6-.6.6H64c-.4 0-.6-.1-.6-.6v-.4c0-.4.1-.6.6-.6h.4zm1.6.4h1.6c.8 0 1-.3 1.1-1.3-.3.3-.7.4-1.3.4-1.4 0-1.8-.8-1.8-1.9 0-1.6.5-2.2 2.3-2.2 1.9 0 2.3.6 2.3 3.1 0 2.8-.7 3.2-2.7 3.2-.3 0-1 0-1.7-.2l.2-1.1zm1.9-2.1c.3 0 .5-.1.8-.2 0-1.4-.1-1.6-.8-1.6-.6 0-.7.3-.7 1s.1.8.7.8zm-26.3-44.3c2.1-.4 3.5-.5 5-.5 3 0 5 .6 5 3.4 0 1.5-.3 2.4-2.2 4.4l-3.5 3.4c.6-.2 1.3-.2 2-.2h4v3.3H41.5v-2c0-.6.1-1.1.5-1.5l3.1-3.2c1.6-1.6 2.5-2.9 2.5-3.7 0-.6-.5-.6-1.5-.6-1.4 0-2.5 0-4.4.1l-.1-2.9zM65.3 129l-1.6.4v2.9h-3.5v-2.9h-5.6c-1.2 0-1.9-1.1-1.5-2.2l3.5-8.9h3.6l-3.1 7.9c-.2.4 0 .6.4.6h2.7v-3.6l.6-2.2h2.9v5.8h1.7v2.2zm3.5-.2c1 0 1.3.3 1.3 1.3v.9c0 1-.3 1.3-1.3 1.3h-.9c-1 0-1.3-.3-1.3-1.3v-.9c0-1 .3-1.3 1.3-1.3h.9zm12.5-8h-3.5c-1.8 0-2.3.5-2.4 3.1.8-.6 1.6-.8 2.9-.8 3.2 0 4.1 1.3 4.1 4.3 0 3.5-.9 5.1-5.2 5.1-4.2 0-5.4-1.4-5.4-7.1 0-6.4 2.1-7.4 6.1-7.4.7 0 2.2 0 3.6.4l-.2 2.4zm-2.5 6.7c0-1.5-.3-1.8-1.6-1.8-.7 0-1.1.1-1.8.5 0 3.1.2 3.6 1.8 3.6s1.6-.7 1.6-2.3z" class="st2"/><defs><path id="SVGID_13_" d="M14.2 11.5h129v177.8h-129z"/></defs><clipPath id="SVGID_14_"><use xlink:href="#SVGID_13_" style="overflow:visible"/></clipPath><circle cx="62" cy="102.5" r="12.4" style="clip-path:url(#SVGID_14_);fill:none;stroke:#39373a;stroke-width:.854"/><path d="M56.7 107.9v-7c0-.4 0-.8.1-1.3l-2.5.6-.3-1.8 2.7-1h2.9V108h-2.9zm13-.3c-1 .4-2 .5-3.6.5-3.4 0-4.6-1.4-4.6-5.5s1.2-5.5 4.6-5.5c1.6 0 2.3.1 3.4.4l-.2 2.1h-3.1c-1.3 0-1.6.6-1.6 3s.4 3 1.6 3c1.5 0 2.4 0 3.4-.1l.1 2.1z" class="st2"/><path d="M50.6 182.3h58.7v2.1H50.6z" class="st3"/></g></switch></svg>