<svg xmlns="http://www.w3.org/2000/svg" xmlns:xlink="http://www.w3.org/1999/xlink" xml:space="preserve" id="Слой_1" x="0" y="0" style="enable-background:new 0 0 239 226" version="1.1" viewBox="0 0 239 226"><style>.st0{fill:#dfeab4}.st1{fill:#39373a}.st2,.st5{fill:none;stroke:#39373a;stroke-width:.539}.st5{stroke-width:.669}.st6{clip-path:url(#SVGID_4_);fill:#39373a}.st11,.st14{fill:none;stroke:#39373a}.st11{clip-path:url(#SVGID_10_);stroke-width:.669}.st14{clip-path:url(#SVGID_14_);stroke-width:.535}.st16{clip-path:url(#SVGID_16_);fill:#39373a}.st17{fill:none;stroke:#39373a;stroke-width:.236}.st17,.st18{clip-path:url(#SVGID_16_)}.st18,.st19{fill:none;stroke:#39373a;stroke-width:.279}.st20{clip-path:url(#SVGID_18_);fill:#39373a}.st21,.st22{fill:none;stroke:#39373a}.st21{clip-path:url(#SVGID_18_);stroke-width:.279}.st22{stroke-width:.244}</style><switch><g><path d="M130.8 40.2H215v152.2h-84.2z" class="st0"/><path d="M33 33.9h123.9v128.2H33z" class="st0"/><path d="M192.1 200.7h29.7v7.3h-29.7z" class="st1"/><path d="M192.1 192.5h29.7v11.8h-29.7zm-81.2 0h43V208h-43z" class="st1"/><path d="M110.9 162.1h23.5v36.3h-23.5zm-94.2 0H34v15.5H16.7z" class="st1"/><path d="M98.8 170.3h35.7v7.3H98.8zm-77 0h35.7v7.3H21.8z" class="st1"/><path d="M101.3 162.1h33.1v11.8h-33.1zM157 33.2h64.9v4.3H157z" class="st1"/><path d="M159.3 28h62.5v12.2h-62.5zm-31-1.4h5.1v4.3h-5.1zm-27.9 4.3h4.8V92h-4.8zM125 90.4h4.8v74.7H125zM26.9 26.5h7.2v147.4h-7.2z" class="st1"/><path d="M31.3 26.6h99.8v7.2H31.3zm-9.5 135.5h33.1v11.8H21.8z" class="st1"/><path d="M103.7 29.8h4.3v19h-4.3zm51.6-3.1h9.8v7.2h-9.8zm57 .9h3.3v7.7h-3.3zm-25.2 0h3.3v7.7h-3.3z" class="st1"/><path d="M214.6 35.3h7.2v163.2h-7.2zm-89.4 103.2h9.3v33.7h-9.3zM157 26.7h5v38.7h-5zm0 55.4h5v9.3h-5z" class="st1"/><path d="M154.4 87.9h51.3v4h-51.3zm-54 0h5.5v4h-5.5zm23.5 0H135v4h-11.1z" class="st1"/><path d="M200.1 84.9h17.4v4h-17.4zm-39.6-58.2h61.3v2.7h-61.3z" class="st1"/><path d="M180.9 72.3h14.8v12.5h-14.8z" class="st2"/><defs><path id="SVGID_1_" d="M16.7 14.9h205.1v194.3H16.7z"/></defs><clipPath id="SVGID_2_"><use xlink:href="#SVGID_1_" style="overflow:visible"/></clipPath><path d="M173.9 73.2c.5 0 .6.1.6.6 0 .4-.1.5-.6.5s-.6-.1-.6-.5c0-.5.2-.6.6-.6m0-1.8c.4 0 .5.1.5.5s-.1.5-.5.5-.5-.1-.5-.5.1-.5.5-.5m-.9 1.4c-.6.1-.8.6-.8 1.1 0 .8.3 1.2 1.7 1.2s1.7-.3 1.7-1.2c0-.6-.1-1.1-.8-1.1.5-.1.7-.5.7-1 0-.8-.3-1.2-1.6-1.2s-1.6.3-1.6 1.2c.1.5.3.9.7 1zm-1.9 1.2c-.3 0-.4.1-.4.4v.3c0 .3.1.4.4.4h.3c.3 0 .4-.1.4-.4v-.3c0-.3-.1-.4-.4-.4h-.3zm-3.9-2.4h1.2c.4 0 .6.1.6.4 0 .3 0 .5-.5.5h-.8v.7h.8c.5 0 .6.1.6.5s-.2.5-.7.5h-1.2v.8c.5.1 1 .1 1.5.1 1.1 0 1.6-.4 1.5-1.3 0-.7-.2-1-.8-1.1.6-.1.7-.5.7-1.1 0-.8-.4-1-1.4-1-.5 0-1 0-1.4.1l-.1.9zm9.6-7.1h-1.2l-.5 1.8c0 .1-.1.3-.1.5h-.1c0-.2-.1-.4-.1-.5l-.5-1.8h-1.2l1 2.8c.1.2.2.3.4.3h.2c-.1.2-.2.3-.3.4-.2.1-.5.1-.9.1l-.1.7c.4.1.9.1 1.3-.1.5-.2.8-.5 1.1-1.2l1-3zm-6.1 3.5 2.4-4.8h-.9l-2.4 4.8h.9zm-1.3-1.4c-.4 0-.8.1-1.4.1-.5 0-.7-.3-.7-1.2s.1-1.2.7-1.2h1.3l.1-.9c-.4-.1-.7-.2-1.4-.2-1.4 0-1.9.6-1.9 2.2s.5 2.2 1.9 2.2c.6 0 1-.1 1.4-.2v-.8zm-83.9 62.9c-.7 0-.8-.2-.8-1.6.3-.2.5-.2.8-.2.6 0 .7.2.7.8 0 .7 0 1-.7 1m1.8-5c-.6-.2-1.3-.2-1.6-.2-1.8 0-2.7.4-2.7 3.2 0 2.5.6 3.1 2.4 3.1 1.9 0 2.3-.7 2.3-2.2 0-1.4-.4-1.9-1.8-1.9-.5 0-.9.1-1.3.4 0-1.1.3-1.4 1.1-1.4h1.5l.1-1zm-5.9 4.6c-.4 0-.6.1-.6.6v.4c0 .4.1.6.6.6h.4c.4 0 .6-.1.6-.6v-.4c0-.4-.1-.6-.6-.6h-.4zm-3.5.4c-.7 0-.8-.2-.8-1.6.3-.2.5-.2.8-.2.6 0 .7.2.7.8 0 .7 0 1-.7 1m1.9-5c-.6-.2-1.3-.2-1.6-.2-1.8 0-2.7.4-2.7 3.2 0 2.5.6 3.1 2.4 3.1 1.9 0 2.3-.7 2.3-2.2 0-1.4-.4-1.9-1.8-1.9-.5 0-.9.1-1.3.4 0-1.1.3-1.4 1.1-1.4h1.5l.1-1zm-5.4 6.1v-6.1h-1.7l-1.6.6.2 1.1 1.4-.3c-.1.2-.1.5-.1.7v4.1h1.8zm20.9-12.2c0-.2.1-.3.4-.3h.9v.6c-.3.2-.6.3-.9.3-.3 0-.4-.1-.4-.4v-.2zm-1.2-1.7c.7 0 1.4-.1 1.9-.1s.6.1.6.5v.1h-1.5c-.9 0-1.4.4-1.4 1.1v.4c0 .8.7 1.3 1.5 1.3s1.3-.4 1.6-.8l.2.6h1.3V117c0-1.3-.7-1.7-1.8-1.7-.7 0-1.8.1-2.4.2v1.2zm-.7 0v-1.2H89v1.2h1.4v3.2H92v-3.2h1.4zm-7.9 1.7c0-.2.1-.3.4-.3h.9v.6c-.3.2-.6.3-.9.3-.3 0-.4-.1-.4-.4v-.2zm-1.2-1.7c.7 0 1.4-.1 1.9-.1s.6.1.6.5v.1h-1.5c-.9 0-1.4.4-1.4 1.1v.4c0 .8.7 1.3 1.5 1.3s1.3-.4 1.6-.8l.2.6h1.3V117c0-1.3-.7-1.7-1.8-1.7-.6 0-1.8.1-2.4.2v1.2zm-1.2-1.2h-1.6v1.6h-1.4v-1.6h-1.6v4.4h1.6v-1.8h1.4v1.8h1.6v-4.4zm-7.4 0c-.3 0-.6.2-.6.5l-.4 1.6c0 .2-.1.4-.1.7h-.1c0-.2 0-.4-.1-.7L74 116c-.1-.3-.3-.5-.6-.5H72c-.4 0-.6.2-.6.5l-.1 3.9h1.5l.1-3.2h.1l.5 2.1c.1.3.3.5.6.5h.7c.3 0 .5-.2.6-.5l.5-2.1h.1l.1 3.2h1.5l-.1-3.9c0-.4-.2-.5-.6-.5h-1.2zm-7.4 1c.5 0 .7.2.7 1.2s-.1 1.2-.7 1.2-.7-.2-.7-1.2.2-1.2.7-1.2m0-1.1c-1.7 0-2.4.6-2.4 2.3 0 1.7.6 2.3 2.4 2.3 1.7 0 2.4-.6 2.4-2.3 0-1.7-.6-2.3-2.4-2.3m-4.4 2.2c1-.2 1-.2 1.5-2.1h-1.6c-.4 1.5-.4 1.6-1 1.6h-.2c0-.2.1-.4.1-.6v-1H61v4.4h1.6v-1.4c0-.1 0-.2-.1-.4h.4c.5 0 .5.1 1 1.8h1.7c-.6-2.1-.6-2.1-1.7-2.3zm28.5-10.8h-.6c-.4 0-.5-.1-.5-.6 0-.3.1-.4.5-.4h.6v1zm-1.7.6c-.3 0-.7.1-.8.5l-.3 1.4h1.7l.3-1.2c0-.2.1-.3.4-.3h.6v1.4H94v-4.4c-.6-.1-1-.1-2.2-.1-1.6 0-2 .3-2 1.4-.1.6.1 1.1.9 1.3zm-4.7.3c0-.2.1-.3.4-.3h.9v.6c-.3.2-.6.3-.9.3-.3 0-.4-.1-.4-.4v-.2zm-1.2-1.7c.7 0 1.4-.1 1.9-.1s.6.1.6.5v.1h-1.5c-.9 0-1.4.4-1.4 1.1v.4c0 .8.7 1.3 1.5 1.3s1.3-.4 1.6-.8l.2.6H89v-2.8c0-1.3-.7-1.7-1.8-1.7-.6 0-1.8.1-2.4.2v1.2zm-1.2-1.1H81c-.8 0-1.2.4-1.2 1.1-.1.8-.1 1.4-.2 1.7-.1.4-.4.3-.7.4l.2 1.2c1 .2 1.8-.1 2-1.2.1-.4.2-1.2.3-1.9 0-.3.2-.4.4-.4h.2v3.3h1.6v-4.2zm-5.4 4.4v-4.4h-1.4l-1.4 2.1-.3.6c0-.3.1-.5.1-.7v-2.1h-1.4v4.4h1.4l1.4-2c.1-.2.3-.5.4-.7 0 .3-.1.5-.1.8v2h1.3zm-7.1-3.3c1.2-.2 1.2-.7 1.9-2.9h-1.7c-.6 1.8-.7 2.4-1.3 2.4h-.3c0-.3.1-.5.1-.8v-1.6h-1.6v1.6c0 .2 0 .5.1.8H68c-.6 0-.7-.6-1.2-2.4H65c.6 2.2.7 2.7 1.9 2.9v.1c-1.2.2-1.3.7-2 3.2h1.7c.7-2.2.8-2.6 1.4-2.6h.3c0 .2-.1.4-.1.6v2.1h1.6v-2.1c0-.2 0-.4-.1-.6h.3c.6 0 .7.4 1.4 2.6h1.8c-.8-2.5-.9-3-2.1-3.3zm63-36c-.5 0-.5-.2-.6-1.1.2-.1.3-.2.5-.2.4 0 .5.1.5.6.1.5.1.7-.4.7m1.3-3.5c-.4-.1-.9-.1-1.1-.1-1.2 0-1.9.3-1.9 2.3 0 1.7.4 2.2 1.7 2.2 1.3 0 1.6-.5 1.6-1.6 0-.9-.3-1.3-1.3-1.3-.4 0-.6.1-.9.2 0-.8.2-.9.7-.9h1.1l.1-.8zm-4.2 3.2c-.3 0-.4.1-.4.4v.3c0 .3.1.4.4.4h.3c.3 0 .4-.1.4-.4v-.3c0-.3-.1-.4-.4-.4h-.3zm-.8-.6h-.5v-1.8h-.9l-.2.7v1.1h-.8c-.1 0-.2-.1-.1-.2l.9-2.4h-1.1l-1.1 2.7c-.1.3.1.7.5.7h1.7v.9h1.1v-.9l.5-.1v-.7zm15.3-7.5h-.4c-.3 0-.3-.1-.3-.4 0-.2.1-.3.3-.3h.4v.7zm-1.3.4c-.2 0-.5.1-.6.3l-.2 1h1.2l.2-.8c0-.1.1-.2.3-.2h.4v1h1.1v-3.1h-1.6c-1.1 0-1.4.2-1.4 1 0 .3.1.7.6.8zm-3.2.3c0-.1.1-.2.3-.2h.6v.4c-.2.1-.4.2-.6.2-.2 0-.3-.1-.3-.2v-.2zm-.9-1.3h1.3c.3 0 .4.1.4.4v.1h-1c-.6 0-1 .3-1 .8v.3c0 .6.5.9 1 .9s.9-.3 1.1-.5l.1.5h.9v-2c0-.9-.5-1.2-1.3-1.2-.5 0-1.2.1-1.7.2l.2.5zm-1.7.7c.7-.1.7-.2 1.1-1.5h-1.1c-.3 1-.4 1.1-.7 1.1h-.2v-1.1h-1v1.2h-.2c-.3 0-.3-.1-.7-1.1h-1.1c.4 1.3.4 1.4 1.1 1.5-.7.1-.8.2-1.2 1.6h1.1c.4-1.2.4-1.2.7-1.2h.2v1.3h1v-1.3h.2c.3 0 .3.1.7 1.2h1.1c-.3-1.5-.3-1.6-1-1.7zm-5.8-.8c.4 0 .5.2.5.8 0 .7-.1.8-.5.8s-.5-.1-.5-.8c0-.6.1-.8.5-.8m0-.8c-1.2 0-1.7.4-1.7 1.6 0 1.2.4 1.6 1.7 1.6 1.2 0 1.7-.4 1.7-1.6 0-1.1-.5-1.6-1.7-1.6m-2.9 3.2h1.1l-.9-1.6.8-1.5h-1.1l-.6 1.2-.6-1.2h-1.1l.8 1.5-.9 1.6h1.1l.7-1.2.7 1.2zm-2.9 0v-3.1h-1l-1 1.5c-.1.1-.2.3-.2.5v-2h-1v3.1h1l1-1.4c.1-.1.2-.3.2-.5v1.9h1zm-5.8-2.1c.2-.1.3-.2.6-.2s.4.1.4.8c0 .7-.1.8-.4.8-.2 0-.4-.1-.5-.1v-1.3zm-.3-1h-.9v4.2h1.1V63c.3.2.6.3 1 .3.8 0 1.2-.3 1.2-1.6 0-1.1-.3-1.7-1.1-1.7-.5 0-1 .2-1.2.5l-.1-.3zm-1.6-1.2h-3.6v4.3h1.2v-3.5h1.3v3.5h1.2V59zm-49 125.7.1.9h1.9c-.1.2-.2.3-.2.5l-1 2.9h1.1l1.3-3.7c.1-.3-.1-.6-.4-.6h-2.8zm-.8 3.2c-.3 0-.4.1-.4.4v.3c0 .3.1.4.4.4h.3c.3 0 .4-.1.4-.4v-.3c0-.3-.1-.4-.4-.4h-.3zm-3.9-2.4h1.2c.4 0 .6.1.6.4 0 .3 0 .5-.5.5H66v.7h.8c.5 0 .6.1.6.5s-.2.5-.7.5h-1.2v.8c.5.1 1 .1 1.5.1 1.1 0 1.6-.4 1.5-1.3 0-.7-.2-1-.8-1.1.6-.1.7-.5.7-1.1 0-.8-.4-1-1.4-1-.5 0-1 0-1.4.1v.9z" style="clip-path:url(#SVGID_2_);fill:#39373a"/><path d="M183.7 84.9h22.5v7h-22.5z" class="st1"/><path d="M190.5 86.8h9.1v3.3h-9.1zm-4.9 0h3.3v3.3h-3.3zm15.2 0h3.3v3.3h-3.3z" style="fill:#fff"/><path d="M45.8 196.7h69.7v6.2H45.8zm-29.1 6.2h35.2v6.2H16.7z" class="st1"/><path d="M16.7 175.6h6.2v33.6h-6.2z" class="st1"/><path d="M21.4 170.6h59.4v2.1H21.4zm104.3 30.3h73.9v2.1h-73.9z" class="st5"/><defs><path id="SVGID_3_" d="M16.7 14.9h205.1v194.3H16.7z"/></defs><clipPath id="SVGID_4_"><use xlink:href="#SVGID_3_" style="overflow:visible"/></clipPath><path d="M180.4 180c-.7 0-.8-.2-.8-1.6.3-.2.5-.2.8-.2.6 0 .7.2.7.8 0 .8-.1 1-.7 1m1.8-4.9c-.6-.2-1.3-.2-1.6-.2-1.8 0-2.7.4-2.7 3.2 0 2.5.6 3.1 2.4 3.1 1.9 0 2.3-.7 2.3-2.2 0-1.4-.4-1.9-1.8-1.9-.5 0-.9.1-1.3.4 0-1.1.3-1.4 1.1-1.4h1.5l.1-1zm-5.9 4.5c-.4 0-.6.1-.6.6v.4c0 .4.1.6.6.6h.4c.4 0 .6-.1.6-.6v-.4c0-.4-.1-.6-.6-.6h-.4zm-5.6-3.4h1.7c.6 0 .8.1.8.6 0 .4-.1.7-.7.7h-1.2v1.1h1.2c.7 0 .8.2.8.7 0 .6-.2.7-1 .7-.5 0-.9 0-1.7-.1l-.1 1.2c.7.1 1.5.2 2.2.2 1.6 0 2.2-.5 2.2-1.8 0-.9-.3-1.4-1.1-1.5.8-.1 1-.7 1-1.5 0-1.1-.6-1.4-2.1-1.4-.7 0-1.4.1-2.1.2l.1.9zm-1.2 4.9V175h-1.7l-1.6.6.2 1.1 1.4-.3c-.1.2-.1.5-.1.7v4.1h1.8zm23.4-13h-.6c-.4 0-.5-.1-.5-.6 0-.3.1-.4.5-.4h.6v1zm-1.7.5c-.3 0-.7.1-.8.5l-.3 1.4h1.7l.3-1.2c0-.2.1-.3.4-.3h.6v1.4h1.6V166c-.6-.1-1-.1-2.2-.1-1.6 0-2 .3-2 1.4-.2.6 0 1.1.7 1.3zm-4.7.4c0-.2.1-.3.4-.3h.9v.6c-.3.2-.6.3-.9.3-.3 0-.4-.1-.4-.4v-.2zm-1.2-1.8c.7 0 1.4-.1 1.9-.1s.6.1.6.5v.1h-1.5c-.9 0-1.4.4-1.4 1.1v.4c0 .8.7 1.3 1.5 1.3s1.3-.4 1.6-.8l.1.6h1.3v-2.8c0-1.3-.7-1.7-1.8-1.7-.6 0-1.8.1-2.4.2l.1 1.2zm-3.8 2.3v-.9h.7c.4 0 .6.1.6.4 0 .4-.2.4-.6.4h-.7zm0-1.7v-.8h.7c.4 0 .6.1.6.4 0 .3-.1.4-.5.4h-.8zm1.8.4c.7-.1 1-.4 1-1 0-.9-.5-1.2-2-1.2-1 0-1.6 0-2.3.1v4.4c.8 0 1.4.1 2.6.1 1.3 0 1.9-.2 1.9-1.2-.1-.7-.4-1.1-1.2-1.2zm-6.5-1.1c.5 0 .7.2.7 1.2s-.1 1.2-.7 1.2-.7-.2-.7-1.2.2-1.2.7-1.2m0-1.2c-1.7 0-2.4.6-2.4 2.3 0 1.7.6 2.3 2.4 2.3 1.7 0 2.4-.6 2.4-2.3 0-1.6-.6-2.3-2.4-2.3m-3.1.2H171c-.8 0-1.2.4-1.2 1.1-.1.8-.1 1.4-.2 1.7-.1.4-.4.3-.7.4l.2 1.2c1 .2 1.8-.1 2-1.2.1-.4.2-1.2.3-1.9 0-.3.2-.4.4-.4h.4v3.3h1.6v-4.2zm-7.6 1c.5 0 .7.2.7 1.2s-.1 1.2-.7 1.2-.7-.2-.7-1.2c.1-1 .2-1.2.7-1.2m0-1.2c-1.7 0-2.4.6-2.4 2.3 0 1.7.6 2.3 2.4 2.3 1.7 0 2.4-.6 2.4-2.3 0-1.6-.6-2.3-2.4-2.3m-2.8 1.4v-1.2h-4.4v1.2h1.4v3.2h1.6v-3.2h1.4zm-4.8 1.9c-.5.1-1.1.1-1.4.1-.7 0-.9-.2-.9-1s.2-1 .9-1h1.3l.2-1c-.5-.2-1.2-.3-1.8-.3-1.7 0-2.3.6-2.3 2.3 0 1.7.6 2.3 2.3 2.3.6 0 1.3-.1 1.8-.3l-.1-1.1zm30.8-12.1h-2.6v1h2.6v-1zm-5.1.3h-.6c-.4 0-.5-.1-.5-.6 0-.3.1-.4.5-.4h.6v1zm-1.7.5c-.3 0-.7.1-.8.5l-.3 1.4h1.7l.3-1.2c0-.2.1-.3.4-.3h.6v1.4h1.6v-4.4c-.6-.1-1-.1-2.2-.1-1.6 0-2 .3-2 1.4-.3.7-.1 1.2.7 1.3zm-1.9-2.5H179v1.6h-1.4v-1.6H176v4.4h1.6V158h1.4v1.8h1.6v-4.4zm-6.6 4.4h1.6l-1.3-2.3 1.2-2.2h-1.6l-.9 1.7-.9-1.7h-1.6l1.2 2.2-1.3 2.3h1.6l1-1.8 1 1.8zm-3.6-4.4h-1.7l-.7 2.6c0 .2-.1.5-.2.8h-.1c0-.3-.1-.5-.1-.8l-.7-2.6h-1.7l1.4 4c.1.2.3.4.5.4h.3c-.1.2-.3.4-.5.5-.3.2-.7.2-1.2.2l-.1 1c.6.1 1.3.1 1.8-.1.7-.2 1.2-.7 1.5-1.7l1.5-4.3zm-7.3 1.2c1.2-.2 1.3-.7 1.9-2.9h-1.7c-.5 1.8-.6 2.4-1.5 2.4h-.3c0-.2.1-.5.1-.8v-1.6H160v6.1h1.7v-2.1c0-.2 0-.4-.1-.6h.3c.9 0 .9.4 1.6 2.6h1.7c-.7-2.4-.8-2.9-2.1-3.1zm33.3-13.2h-1.7v-5.8h-2.9l-.6 2.2v3.6h-2.7c-.3 0-.5-.2-.4-.6l3.1-7.9h-3.6l-3.5 8.9c-.4 1.1.3 2.2 1.5 2.2h5.6v2.9h3.5V146l1.6-.4v-2.2zm-15.7 2c-1 0-1.3.3-1.3 1.3v.9c0 1 .3 1.3 1.3 1.3h.9c1 0 1.3-.3 1.3-1.3v-.9c0-1-.3-1.3-1.3-1.3h-.9zm-8.7-8c1.6 0 2 .7 2 4.4s-.4 4.4-2 4.4c-1.5 0-1.9-.7-1.9-4.4s.4-4.4 1.9-4.4m0-2.9c-4.2 0-5.7 1.8-5.7 7.3s1.5 7.3 5.7 7.3c4.3 0 5.7-1.8 5.7-7.3.1-5.4-1.4-7.3-5.7-7.3m-7 8.9h-1.7v-5.8h-2.9l-.6 2.2v3.6h-2.7c-.3 0-.5-.2-.4-.6l3.1-7.9h-3.6l-3.5 8.9c-.4 1.1.3 2.2 1.5 2.2h5.6v2.9h3.5V146l1.6-.4v-2.2z" class="st6"/><circle cx="174.6" cy="119" r="12.4" style="clip-path:url(#SVGID_4_);fill:none;stroke:#39373a;stroke-width:.854"/><path d="M179.3 118.8c2.1-.3 2.2-1.2 3.3-5h-2.9c-.8 3.2-1 4.1-2.5 4.1h-.5c.1-.4.1-.9.1-1.3v-2.8h-2.9v10.6h2.9v-3.6c0-.3 0-.6-.1-1h.6c1.5 0 1.6.7 2.7 4.5h3c-1.4-4.2-1.5-5.1-3.7-5.5zm-7.6 5.6v-10.6h-2.9l-2.7 1 .3 1.8 2.5-.6c-.1.4-.1.8-.1 1.3v7h2.9z" class="st6"/><path d="m133.139 91.114.563-.946 17.445 10.381-.563.945z" class="st2"/><defs><path id="SVGID_5_" d="M16.7 14.9h205.1v194.3H16.7z"/></defs><clipPath id="SVGID_6_"><use xlink:href="#SVGID_5_" style="overflow:visible"/></clipPath><path d="M151.2 100.5s1.2-1.7 2.5-5.6c.5-1.5.9-3 1.1-4.2" style="clip-path:url(#SVGID_6_);fill:none;stroke:#39373a;stroke-width:.539"/><path d="m127.933 28.785 22.775-13.548.614 1.031-22.775 13.548zM151.4 16.4s1.4 1.9 2.8 6.3c.5 1.6 1 3.4 1.2 4.7" style="clip-path:url(#SVGID_6_);stroke-width:.604;fill:none;stroke:#39373a"/><path d="m108.95 100.57 17.445-10.38.562.945-17.445 10.38z" class="st2"/><defs><path id="SVGID_7_" d="M16.7 14.9h205.1v194.3H16.7z"/></defs><clipPath id="SVGID_8_"><use xlink:href="#SVGID_7_" style="overflow:visible"/></clipPath><path d="M108.9 100.5s-1.2-1.7-2.5-5.6c-.5-1.5-.9-3-1.1-4.2" style="clip-path:url(#SVGID_8_);fill:none;stroke:#39373a;stroke-width:.539"/><path d="M48.9 162.4h31.8v8H48.9z" class="st5"/><path d="M48.9 162.4h31.8v14.8H48.9z" class="st5"/><defs><path id="SVGID_9_" d="M16.7 14.9h205.1v194.3H16.7z"/></defs><clipPath id="SVGID_10_"><use xlink:href="#SVGID_9_" style="overflow:visible"/></clipPath><path d="M144.3 192.9h77.2v8h-77.2z" class="st11"/><path d="M144.3 192.9h77.2v14.8h-77.2z" class="st11"/><path d="m149.501 69.121.945-.562 8.898 14.953-.945.562z" class="st2"/><defs><path id="SVGID_11_" d="M16.7 14.9h205.1v194.3H16.7z"/></defs><clipPath id="SVGID_12_"><use xlink:href="#SVGID_11_" style="overflow:visible"/></clipPath><path d="M150.6 68.5s1.7-1.2 5.6-2.5c1.5-.5 3-.9 4.2-1.1" style="clip-path:url(#SVGID_12_);fill:none;stroke:#39373a;stroke-width:.539"/><path d="m84.407 161.576.563-.945 17.187 10.227-.562.945z" class="st2"/><defs><path id="SVGID_13_" d="M16.7 14.9h205.1v194.3H16.7z"/></defs><clipPath id="SVGID_14_"><use xlink:href="#SVGID_13_" style="overflow:visible"/></clipPath><path d="M84.3 161.7s-1.2 1.7-2.5 5.6c-.5 1.5-.9 3-1.1 4.2" style="clip-path:url(#SVGID_14_);fill:none;stroke:#39373a;stroke-width:.539"/><path d="M208.6 82.4s5.1 0 5.1-5.1V47.1s0-5.1-5.1-5.1h-6.8s-5.1 0-5.1 5.1v30.2s0 5.1 5.1 5.1h6.8z" class="st14"/><path d="M207.1 79.6s5 0 5-5V49.9s0-5-5-5h-3.7s-5 0-5 5v24.7s0 5 5 5h3.7z" class="st14"/><path d="M208 76.2s2.5 0 2.5-2.5V49s0-2.5-2.5-2.5h-5.6s-2.5 0-2.5 2.5v24.7s0 2.5 2.5 2.5h5.6z" class="st14"/><path d="M205.2 49.5c-.4 0-.8.3-.8.8 0 .4.3.8.8.8.4 0 .8-.3.8-.8-.1-.5-.4-.8-.8-.8z" class="st14"/><path d="M195.8 85.9V38" style="fill:none;stroke:#39373a;stroke-width:.535"/><defs><path id="SVGID_15_" d="M16.7 14.9h205.1v194.3H16.7z"/></defs><clipPath id="SVGID_16_"><use xlink:href="#SVGID_15_" style="overflow:visible"/></clipPath><path d="M188.4 51.9c2.8 0 5.1-2.3 5.1-5.1v-5.4c0-.4-.4-.8-.8-.8h-11.6c-.4 0-.8.3-.8.8v5.4c0 2.8 2.3 5.1 5.1 5.1h3zm-7.3-11.6h11.6c.6 0 1.1.5 1.1 1.1v5.4c0 3-2.4 5.4-5.4 5.4h-2.9c-3 0-5.4-2.4-5.4-5.4v-5.4c0-.6.4-1.1 1-1.1" class="st16"/><path d="M188.4 51.9c2.8 0 5.1-2.3 5.1-5.1v-5.4c0-.4-.4-.8-.8-.8h-11.6c-.4 0-.8.3-.8.8v5.4c0 2.8 2.3 5.1 5.1 5.1h3zm-7.3-11.6h11.6c.6 0 1.1.5 1.1 1.1v5.4c0 3-2.4 5.4-5.4 5.4h-2.9c-3 0-5.4-2.4-5.4-5.4v-5.4c0-.6.4-1.1 1-1.1z" class="st17"/><path d="M188.4 50.6c2.1 0 3.8-1.7 3.8-3.8v-3.2c0-.4-.3-.7-.7-.7h-9.2c-.4 0-.7.3-.7.7v3.2c0 2.1 1.7 3.8 3.8 3.8h3zm-6.1-7.9h9.2c.5 0 1 .4 1 1v3.2c0 2.3-1.9 4.1-4.1 4.1h-2.9c-2.3 0-4.1-1.9-4.1-4.1v-3.2c0-.6.4-1 .9-1" class="st16"/><path d="M188.4 50.6c2.1 0 3.8-1.7 3.8-3.8v-3.2c0-.4-.3-.7-.7-.7h-9.2c-.4 0-.7.3-.7.7v3.2c0 2.1 1.7 3.8 3.8 3.8h3zm-6.1-7.9h9.2c.5 0 1 .4 1 1v3.2c0 2.3-1.9 4.1-4.1 4.1h-2.9c-2.3 0-4.1-1.9-4.1-4.1v-3.2c0-.6.4-1 .9-1z" class="st17"/><path d="M186.9 48c.3 0 .6-.3.6-.6 0-.4-.3-.6-.6-.6-.4 0-.6.3-.6.6s.3.6.6.6m0-1.6c.5 0 .9.4.9.9s-.4.9-.9.9-.9-.4-.9-.9.4-.9.9-.9" class="st16"/><path d="M186.9 48c.3 0 .6-.3.6-.6 0-.4-.3-.6-.6-.6-.4 0-.6.3-.6.6s.3.6.6.6zm0-1.6c.5 0 .9.4.9.9s-.4.9-.9.9-.9-.4-.9-.9.4-.9.9-.9z" class="st17"/><path d="M171.6 57.9c-2.6 0-4.7-2.1-4.7-4.8v-6.9c0-.5.4-.8.8-.8h7.8c.4 0 .8.4.8.8v6.9c0 2.7-2.1 4.8-4.7 4.8m3.9-12.8h-7.8c-.6 0-1.1.5-1.1 1.1v6.9c0 2.8 2.3 5.1 5 5.1 2.8 0 5-2.3 5-5.1v-6.9c.1-.6-.4-1.1-1.1-1.1" class="st16"/><path d="M171.6 57.9c-2.6 0-4.7-2.1-4.7-4.8v-6.9c0-.5.4-.8.8-.8h7.8c.4 0 .8.4.8.8v6.9c0 2.7-2.1 4.8-4.7 4.8zm3.9-12.8h-7.8c-.6 0-1.1.5-1.1 1.1v6.9c0 2.8 2.3 5.1 5 5.1 2.8 0 5-2.3 5-5.1v-6.9c.1-.6-.4-1.1-1.1-1.1z" class="st18"/><path d="M168.2 47.8h6.8s.1 0 .1.1V53c0 1.9-1.6 3.5-3.5 3.5s-3.5-1.6-3.5-3.5l.1-5.2z" class="st18"/><path d="M168.3 47.9h6.6V53c0 1.8-1.5 3.3-3.3 3.3-1.8 0-3.3-1.5-3.3-3.3v-5.1zm6.7-.3h-6.8c-.1 0-.2.1-.2.2V53c0 2 1.6 3.7 3.6 3.7s3.6-1.6 3.6-3.7v-5.2c0-.1-.1-.2-.2-.2" class="st16"/><path d="M168.3 47.9h6.6V53c0 1.8-1.5 3.3-3.3 3.3-1.8 0-3.3-1.5-3.3-3.3v-5.1zm6.7-.3h-6.8c-.1 0-.2.1-.2.2V53c0 2 1.6 3.7 3.6 3.7s3.6-1.6 3.6-3.7v-5.2c0-.1-.1-.2-.2-.2z" class="st18"/><path d="M171.6 53c-.5 0-.9-.4-.9-.9s.4-.9.9-.9.9.4.9.9-.4.9-.9.9m0-2.1c-.7 0-1.2.5-1.2 1.2s.5 1.2 1.2 1.2 1.2-.5 1.2-1.2c0-.6-.5-1.2-1.2-1.2" class="st16"/><path d="M171.6 53c-.5 0-.9-.4-.9-.9s.4-.9.9-.9.9.4.9.9-.4.9-.9.9zm0-2.1c-.7 0-1.2.5-1.2 1.2s.5 1.2 1.2 1.2 1.2-.5 1.2-1.2c0-.6-.5-1.2-1.2-1.2z" class="st18"/><path d="m169 48.4-.3.2 1.6 2.1.3-.1z" class="st1"/><path d="m169 48.4-.3.2 1.6 2.1.3-.1z" class="st19"/><path d="m174.2 48.4-1.6 2.2.3.1 1.5-2.1z" class="st1"/><path d="m174.2 48.4-1.6 2.2.3.1 1.5-2.1z" class="st19"/><defs><path id="SVGID_17_" d="M16.7 14.9h205.1v194.3H16.7z"/></defs><clipPath id="SVGID_18_"><use xlink:href="#SVGID_17_" style="overflow:visible"/></clipPath><path d="M168.4 45.1c-.7 0-1.3-.6-1.3-1.3V42c0-.7.6-1.3 1.3-1.3h6.5c.7 0 1.3.6 1.3 1.3v1.8c0 .7-.6 1.3-1.3 1.3h-6.5zm6.5-4.8h-6.5c-.9 0-1.6.7-1.6 1.6v1.8c0 .9.7 1.6 1.6 1.6h6.5c.9 0 1.6-.7 1.6-1.6V42c0-.9-.7-1.7-1.6-1.7" class="st20"/><path d="M168.4 45.1c-.7 0-1.3-.6-1.3-1.3V42c0-.7.6-1.3 1.3-1.3h6.5c.7 0 1.3.6 1.3 1.3v1.8c0 .7-.6 1.3-1.3 1.3h-6.5zm6.5-4.8h-6.5c-.9 0-1.6.7-1.6 1.6v1.8c0 .9.7 1.6 1.6 1.6h6.5c.9 0 1.6-.7 1.6-1.6V42c0-.9-.7-1.7-1.6-1.7z" class="st21"/><path d="M171.6 43.3c-.3 0-.5-.2-.5-.5s.2-.5.5-.5.5.2.5.5-.2.5-.5.5m0-1.3c-.4 0-.8.4-.8.8 0 .5.4.8.8.8s.8-.4.8-.8-.3-.8-.8-.8" class="st20"/><path d="M171.6 43.3c-.3 0-.5-.2-.5-.5s.2-.5.5-.5.5.2.5.5-.2.5-.5.5zm0-1.3c-.4 0-.8.4-.8.8 0 .5.4.8.8.8s.8-.4.8-.8-.3-.8-.8-.8z" class="st21"/><path d="M214.1 98.8h-15.9v15.9h15.9V98.8zm.4 16.2h-16.6V98.5h16.6V115z" class="st1"/><path d="M214.1 98.8h-15.9v15.9h15.9V98.8zm.4 16.2h-16.6V98.5h16.6V115z" class="st22"/><defs><path id="SVGID_19_" d="M16.7 14.9h205.1v194.3H16.7z"/></defs><clipPath id="SVGID_20_"><use xlink:href="#SVGID_19_" style="overflow:visible"/></clipPath><path d="M199.7 112.3c0 .4.3.7.7.7h8.3c.4 0 .7-.3.7-.7v-11.1c0-.4-.3-.7-.7-.7h-8.3c-.4 0-.7.3-.7.7v11.1zm10.1-11.1v11.1c0 .6-.5 1.1-1.1 1.1h-8.3c-.6 0-1.1-.5-1.1-1.1v-11.1c0-.6.5-1.1 1.1-1.1h8.3c.7 0 1.1.5 1.1 1.1" style="clip-path:url(#SVGID_20_);fill:#39373a"/><path d="M199.7 112.3c0 .4.3.7.7.7h8.3c.4 0 .7-.3.7-.7v-11.1c0-.4-.3-.7-.7-.7h-8.3c-.4 0-.7.3-.7.7v11.1zm10.1-11.1v11.1c0 .6-.5 1.1-1.1 1.1h-8.3c-.6 0-1.1-.5-1.1-1.1v-11.1c0-.6.5-1.1 1.1-1.1h8.3c.7 0 1.1.5 1.1 1.1z" style="clip-path:url(#SVGID_20_);fill:none;stroke:#39373a;stroke-width:.244"/><path d="M208.3 101.7H201v10.1h7.3v-10.1zm.3 10.4h-8v-10.8h8v10.8z" class="st1"/><path d="M208.3 101.7H201v10.1h7.3v-10.1zm.3 10.4h-8v-10.8h8v10.8z" class="st22"/><defs><path id="SVGID_21_" d="M16.7 14.9h205.1v194.3H16.7z"/></defs><clipPath id="SVGID_22_"><use xlink:href="#SVGID_21_" style="overflow:visible"/></clipPath><path d="M203.2 106.7c0 .5.4.9.9.9s.9-.4.9-.9-.4-.9-.9-.9-.9.4-.9.9m2.2 0c0 .7-.6 1.3-1.3 1.3s-1.3-.6-1.3-1.3c0-.7.6-1.3 1.3-1.3s1.3.6 1.3 1.3" style="clip-path:url(#SVGID_22_);fill:#39373a"/><path d="M203.2 106.7c0 .5.4.9.9.9s.9-.4.9-.9-.4-.9-.9-.9-.9.4-.9.9zm2.2 0c0 .7-.6 1.3-1.3 1.3s-1.3-.6-1.3-1.3c0-.7.6-1.3 1.3-1.3s1.3.6 1.3 1.3z" style="clip-path:url(#SVGID_22_);fill:none;stroke:#39373a;stroke-width:.244"/></g></switch></svg>