<?xml version="1.0" encoding="utf-8"?>
<!-- Generator: Adobe Illustrator 26.5.0, SVG Export Plug-In . SVG Version: 6.00 Build 0)  -->
<svg version="1.1" id="Слой_1" xmlns="http://www.w3.org/2000/svg" xmlns:xlink="http://www.w3.org/1999/xlink" x="0px" y="0px"
	 viewBox="0 0 1300 1300" style="enable-background:new 0 0 1300 1300;" xml:space="preserve">
<style type="text/css">
	.st0{fill:#DFEAF7;}
	.st1{fill:#373437;}
	.st2{fill:none;stroke:#373437;stroke-width:2;}
	.st3{fill:#FFFFFF;}
</style>
<rect x="121.5" y="231.4" class="st0" width="1066.6" height="738.9"/>
<rect x="334.6" y="423.8" class="st1" width="252.5" height="72.3"/>
<rect x="334.6" y="423.8" class="st2" width="252.5" height="72.3"/>
<rect x="1089.7" y="194.4" class="st1" width="136.3" height="36.2"/>
<rect x="1189.4" y="225.1" class="st1" width="36.3" height="768.5"/>
<rect x="1189.4" y="225.1" class="st2" width="36.3" height="768.5"/>
<rect x="882.8" y="194.4" class="st1" width="81.3" height="36.2"/>
<rect x="882.8" y="194.4" class="st2" width="81.3" height="36.2"/>
<rect x="83.3" y="194.4" class="st1" width="673.9" height="36.2"/>
<rect x="83.3" y="194.4" class="st2" width="673.9" height="36.2"/>
<rect x="928.8" y="423.8" class="st1" width="279.4" height="19.1"/>
<rect x="928.8" y="423.8" class="st2" width="297.2" height="19.1"/>
<rect x="729.4" y="423.8" class="st1" width="92.5" height="19.1"/>
<rect x="729.4" y="423.8" class="st2" width="92.5" height="19.1"/>
<rect x="756.7" y="439.7" class="st1" width="19.4" height="543.5"/>
<rect x="756.7" y="439.7" class="st2" width="19.4" height="543.5"/>
<rect x="468.6" y="423.8" class="st1" width="150.1" height="19.1"/>
<rect x="468.6" y="423.8" class="st2" width="150.1" height="19.1"/>
<rect x="101.6" y="477.1" class="st1" width="286.7" height="19.1"/>
<rect x="101.6" y="477.1" class="st2" width="286.7" height="19.1"/>
<rect x="352.2" y="440.2" class="st3" width="39.6" height="38.9"/>
<rect x="352.2" y="440.2" class="st2" width="39.6" height="38.9"/>
<rect x="442.9" y="440.2" class="st3" width="21.1" height="38.9"/>
<rect x="442.9" y="440.2" class="st2" width="21.1" height="38.9"/>
<rect x="404.7" y="440.2" class="st3" width="21.1" height="38.9"/>
<rect x="404.7" y="440.2" class="st2" width="21.1" height="38.9"/>
<rect x="478.9" y="440.2" class="st3" width="92.1" height="38.9"/>
<rect x="478.9" y="440.2" class="st2" width="92.1" height="38.9"/>
<rect x="501.2" y="398.2" class="st1" width="19.1" height="30.3"/>
<rect x="501.2" y="398.2" class="st2" width="19.1" height="30.3"/>
<rect x="501.2" y="228.7" class="st1" width="19.1" height="89.2"/>
<rect x="501.2" y="228.7" class="st2" width="19.1" height="89.2"/>
<rect x="83.3" y="217.9" class="st1" width="36.7" height="843.3"/>
<rect x="720.5" y="194.4" class="st1" width="199.4" height="72"/>
<rect x="720.5" y="194.4" class="st2" width="199.4" height="72"/>
<rect x="758.6" y="211.9" class="st3" width="45" height="20.2"/>
<rect x="758.6" y="211.9" class="st2" width="45" height="20.2"/>
<rect x="817" y="211.9" class="st3" width="69.6" height="20.2"/>
<rect x="817" y="211.9" class="st2" width="69.6" height="20.2"/>
<rect x="102.1" y="1022.8" class="st1" width="176.9" height="37.8"/>
<rect x="102.1" y="1022.8" class="st2" width="176.9" height="37.8"/>
<rect x="542.1" y="1022.8" class="st1" width="130.6" height="37.8"/>
<rect x="542.1" y="1022.8" class="st2" width="130.6" height="37.8"/>
<rect x="109.6" y="971.7" class="st1" width="162.1" height="61.5"/>
<rect x="109.6" y="971.7" class="st2" width="162.1" height="61.5"/>
<rect x="553.7" y="971.7" class="st1" width="286.7" height="64.8"/>
<rect x="553.7" y="971.7" class="st2" width="286.7" height="64.8"/>
<rect x="830.2" y="1008.4" class="st1" width="23.4" height="28.1"/>
<rect x="830.2" y="1008.4" class="st2" width="23.4" height="28.1"/>
<rect x="1063.4" y="1008.4" class="st1" width="162.6" height="28.1"/>
<rect x="1063.4" y="1008.4" class="st2" width="152.2" height="28.1"/>
<rect x="1073.7" y="971.7" class="st1" width="152.3" height="42.5"/>
<rect x="1073.7" y="971.7" class="st2" width="141.9" height="42.5"/>
<rect x="1119.9" y="1030.7" class="st1" width="19.4" height="176.7"/>
<rect x="1119.9" y="1030.7" class="st2" width="19.4" height="176.7"/>
<rect x="1047" y="1191.6" class="st1" width="90.2" height="15.8"/>
<rect x="1049" y="1191.6" class="st2" width="88.2" height="15.8"/>
<rect x="542.1" y="1010.4" class="st2" width="10.6" height="10.4"/>
<rect x="268.5" y="1010.4" class="st2" width="10.6" height="10.4"/>
<rect x="267.2" y="1010.4" class="st2" width="297.1" height="10.4"/>
<rect x="267.2" y="971.7" class="st2" width="304.9" height="88.9"/>
<path class="st2" d="M514.6,408.3l42.2-79.1c0,0-6-4.1-18.9-7.7c-12.9-3.5-21.8-3.5-21.8-3.5"/>
<path class="st2" d="M736.1,438.3l-103.4,55.7c0,0-5.4-7.9-10-24.9c-4.6-17-4.6-28.8-4.6-28.8"/>
<path class="st2" d="M810.8,438.3l103.4,55.7c0,0,5.4-7.9,10-24.9c4.6-17,4.6-28.8,4.6-28.8"/>
<rect x="956.9" y="1008.4" class="st2" width="258.4" height="28.1"/>
<rect x="967" y="971.7" class="st2" width="258.4" height="24.8"/>
<rect x="956.9" y="996.7" class="st2" width="105.8" height="12.1"/>
<rect x="839.4" y="996.7" class="st2" width="14.2" height="12.1"/>
<rect x="956.9" y="996.7" class="st2" width="9.9" height="12.1"/>
<rect x="967" y="996.7" class="st2" width="9.9" height="12.1"/>
<path class="st2" d="M947,204.8l124.7-71.4c0,0,7,10.8,13,33.8c6,23.1,6,39.1,6,39.1"/>
<path class="st2" d="M853.3,996.6l90-51.5c0,0,5,7.8,9.4,24.4c4.3,16.6,4.3,28.2,4.3,28.2"/>
<rect x="174.1" y="498.7" class="st2" width="84.1" height="81.3"/>
<path class="st2" d="M248,573.5c1.6,0,2.9-1.3,2.9-2.9v-51.1c0-1.6-1.3-2.9-2.9-2.9h-63.8c-1.6,0-2.9,1.3-2.9,2.9v51.1
	c0,1.6,1.3,2.9,2.9,2.9H248z"/>
<path class="st2" d="M242.6,567.6c1.6,0,2.9-1.3,2.9-2.9v-39.3c0-1.6-1.3-2.9-2.9-2.9h-52.9c-1.6,0-2.9,1.3-2.9,2.9v39.3
	c0,1.6,1.3,2.9,2.9,2.9H242.6z"/>
<path class="st2" d="M216.1,529.5c-1.7,0-3.2,1.4-3.2,3.2c0,1.8,1.4,3.2,3.2,3.2c1.7,0,3.2-1.4,3.2-3.2
	C219.3,530.9,217.9,529.5,216.1,529.5z"/>
<path class="st2" d="M216.1,505c-1.7,0-3.2,1.4-3.2,3.2c0,1.8,1.4,3.2,3.2,3.2c1.7,0,3.2-1.4,3.2-3.2
	C219.3,506.4,217.9,505,216.1,505z"/>
<path class="st1" d="M403.9,333.2c13.9,0,25.2-11.3,25.2-25.2v-36.5c0-2.4-2-4.3-4.3-4.3h-41.6c-2.4,0-4.3,2-4.3,4.3V308
	C378.7,321.9,390,333.2,403.9,333.2 M383.1,265.5h41.6c3.3,0,6.1,2.7,6.1,6.1V308c0,14.8-12.1,26.9-26.9,26.9
	c-14.8,0-26.9-12.1-26.9-26.9v-36.5C377,268.2,379.7,265.5,383.1,265.5"/>
<path class="st2" d="M403.9,333.2c13.9,0,25.2-11.3,25.2-25.2v-36.5c0-2.4-2-4.3-4.3-4.3h-41.6c-2.4,0-4.3,2-4.3,4.3V308
	C378.7,321.9,390,333.2,403.9,333.2z M383.1,265.5h41.6c3.3,0,6.1,2.7,6.1,6.1V308c0,14.8-12.1,26.9-26.9,26.9
	c-14.8,0-26.9-12.1-26.9-26.9v-36.5C377,268.2,379.7,265.5,383.1,265.5z"/>
<path class="st2" d="M422,279.3h-36.1c-0.2,0-0.4,0.2-0.4,0.4v27.5c0,10.2,8.3,18.5,18.5,18.5c10.2,0,18.5-8.3,18.5-18.5v-27.5
	C422.4,279.5,422.2,279.3,422,279.3z"/>
<path class="st1" d="M421.5,280.2h-35.2v27.1c0,9.7,7.9,17.6,17.6,17.6c9.7,0,17.6-7.9,17.6-17.6V280.2z M385.9,278.5H422
	c0.7,0,1.3,0.6,1.3,1.3v27.5c0,10.7-8.7,19.4-19.3,19.4c-10.7,0-19.4-8.7-19.4-19.4v-27.5C384.6,279.1,385.2,278.5,385.9,278.5"/>
<path class="st2" d="M421.5,280.2h-35.2v27.1c0,9.7,7.9,17.6,17.6,17.6c9.7,0,17.6-7.9,17.6-17.6V280.2z M385.9,278.5H422
	c0.7,0,1.3,0.6,1.3,1.3v27.5c0,10.7-8.7,19.4-19.3,19.4c-10.7,0-19.4-8.7-19.4-19.4v-27.5C384.6,279.1,385.2,278.5,385.9,278.5z"/>
<path class="st1" d="M403.9,307.3c2.6,0,4.8-2.1,4.8-4.8c0-2.6-2.1-4.8-4.8-4.8c-2.6,0-4.8,2.2-4.8,4.8
	C399.1,305.2,401.3,307.3,403.9,307.3 M403.9,296c3.6,0,6.5,2.9,6.5,6.5c0,3.6-2.9,6.5-6.5,6.5c-3.6,0-6.5-2.9-6.5-6.5
	C397.4,299,400.3,296,403.9,296"/>
<path class="st2" d="M403.9,307.3c2.6,0,4.8-2.1,4.8-4.8c0-2.6-2.1-4.8-4.8-4.8c-2.6,0-4.8,2.2-4.8,4.8
	C399.1,305.2,401.3,307.3,403.9,307.3z M403.9,296c3.6,0,6.5,2.9,6.5,6.5c0,3.6-2.9,6.5-6.5,6.5c-3.6,0-6.5-2.9-6.5-6.5
	C397.4,299,400.3,296,403.9,296z"/>
<polygon class="st1" points="418,282.8 419.4,283.9 410.7,295.5 409.3,294.5 "/>
<polygon class="st2" points="418,282.8 419.4,283.9 410.7,295.5 409.3,294.5 "/>
<polygon class="st1" points="390.1,282.8 398.9,294.5 397.5,295.5 388.7,283.9 "/>
<polygon class="st2" points="390.1,282.8 398.9,294.5 397.5,295.5 388.7,283.9 "/>
<path class="st1" d="M421.3,265.5c3.8,0,7-3.1,7-7V249c0-3.9-3.1-7-7-7h-34.7c-3.8,0-7,3.1-7,7v9.5c0,3.9,3.1,7,7,7H421.3z
	 M386.5,240.2h34.7c4.8,0,8.7,3.9,8.7,8.7v9.5c0,4.8-3.9,8.7-8.7,8.7h-34.7c-4.8,0-8.7-3.9-8.7-8.7V249
	C377.8,244.1,381.7,240.2,386.5,240.2"/>
<path class="st2" d="M421.3,265.5c3.8,0,7-3.1,7-7V249c0-3.9-3.1-7-7-7h-34.7c-3.8,0-7,3.1-7,7v9.5c0,3.9,3.1,7,7,7H421.3z
	 M386.5,240.2h34.7c4.8,0,8.7,3.9,8.7,8.7v9.5c0,4.8-3.9,8.7-8.7,8.7h-34.7c-4.8,0-8.7-3.9-8.7-8.7V249
	C377.8,244.1,381.7,240.2,386.5,240.2z"/>
<path class="st1" d="M403.9,256.4c1.5,0,2.7-1.2,2.7-2.7c0-1.5-1.2-2.7-2.7-2.7c-1.5,0-2.7,1.2-2.7,2.7
	C401.2,255.2,402.4,256.4,403.9,256.4 M403.9,249.2c2.5,0,4.5,2,4.5,4.5c0,2.5-2,4.5-4.5,4.5c-2.5,0-4.5-2-4.5-4.5
	C399.4,251.2,401.5,249.2,403.9,249.2"/>
<path class="st2" d="M403.9,256.4c1.5,0,2.7-1.2,2.7-2.7c0-1.5-1.2-2.7-2.7-2.7c-1.5,0-2.7,1.2-2.7,2.7
	C401.2,255.2,402.4,256.4,403.9,256.4z M403.9,249.2c2.5,0,4.5,2,4.5,4.5c0,2.5-2,4.5-4.5,4.5c-2.5,0-4.5-2-4.5-4.5
	C399.4,251.2,401.5,249.2,403.9,249.2z"/>
<rect x="232.6" y="389.1" class="st2" width="74" height="82.5"/>
<line class="st2" x1="306.8" y1="390.2" x2="233" y2="471.3"/>
<line class="st2" x1="306.8" y1="472.2" x2="233" y2="391.1"/>
<path class="st1" d="M269.9,290.2c14.1,0,25.5-11.5,25.5-25.5v-27.1c0-2.1-1.7-3.9-3.9-3.9h-57.7c-2.1,0-3.9,1.7-3.9,3.9v27.1
	c0,14.1,11.5,25.5,25.5,25.5H269.9z M233.8,232.3h57.7c2.9,0,5.3,2.4,5.3,5.3v27.1c0,14.9-12.1,27-27,27h-14.4
	c-14.9,0-27-12.1-27-27v-27.1C228.5,234.7,230.9,232.3,233.8,232.3"/>
<path class="st2" d="M269.9,290.2c14.1,0,25.5-11.5,25.5-25.5v-27.1c0-2.1-1.7-3.9-3.9-3.9h-57.7c-2.1,0-3.9,1.7-3.9,3.9v27.1
	c0,14.1,11.5,25.5,25.5,25.5H269.9z M233.8,232.3h57.7c2.9,0,5.3,2.4,5.3,5.3v27.1c0,14.9-12.1,27-27,27h-14.4
	c-14.9,0-27-12.1-27-27v-27.1C228.5,234.7,230.9,232.3,233.8,232.3z"/>
<path class="st1" d="M269.9,283.8c10.6,0,19.1-8.6,19.1-19.2v-15.8c0-1.8-1.5-3.3-3.3-3.3h-46c-1.8,0-3.3,1.5-3.3,3.3v15.8
	c0,10.6,8.6,19.2,19.2,19.2H269.9z M239.6,244.1h46c2.6,0,4.8,2.1,4.8,4.8v15.8c0,11.4-9.2,20.6-20.6,20.6h-14.4
	c-11.4,0-20.6-9.2-20.6-20.6v-15.8C234.8,246.2,237,244.1,239.6,244.1"/>
<path class="st2" d="M269.9,283.8c10.6,0,19.1-8.6,19.1-19.2v-15.8c0-1.8-1.5-3.3-3.3-3.3h-46c-1.8,0-3.3,1.5-3.3,3.3v15.8
	c0,10.6,8.6,19.2,19.2,19.2H269.9z M239.6,244.1h46c2.6,0,4.8,2.1,4.8,4.8v15.8c0,11.4-9.2,20.6-20.6,20.6h-14.4
	c-11.4,0-20.6-9.2-20.6-20.6v-15.8C234.8,246.2,237,244.1,239.6,244.1z"/>
<path class="st1" d="M262.6,270.5c1.8,0,3.3-1.5,3.3-3.2c0-1.8-1.5-3.2-3.3-3.2c-1.8,0-3.3,1.5-3.3,3.2
	C259.4,269,260.9,270.5,262.6,270.5 M262.6,262.5c2.6,0,4.7,2.1,4.7,4.7s-2.1,4.7-4.7,4.7c-2.6,0-4.7-2.1-4.7-4.7
	S260,262.5,262.6,262.5"/>
<path class="st2" d="M262.6,270.5c1.8,0,3.3-1.5,3.3-3.2c0-1.8-1.5-3.2-3.3-3.2c-1.8,0-3.3,1.5-3.3,3.2
	C259.4,269,260.9,270.5,262.6,270.5z M262.6,262.5c2.6,0,4.7,2.1,4.7,4.7s-2.1,4.7-4.7,4.7c-2.6,0-4.7-2.1-4.7-4.7
	S260,262.5,262.6,262.5z"/>
<path class="st2" d="M170,275.4c-2.1,0-3.7,1.7-3.7,3.8s1.7,3.8,3.7,3.8c2.1,0,3.7-1.7,3.7-3.8S172.1,275.4,170,275.4z"/>
<path class="st2" d="M194.3,468.3c11.8,0,21.4-9.6,21.4-21.4V262.5c0-11.8-9.6-21.4-21.4-21.4h-42.9c-11.8,0-21.4,9.6-21.4,21.4
	v184.4c0,11.8,9.6,21.4,21.4,21.4H194.3z"/>
<path class="st2" d="M186.3,452.6c11.8,0,21.4-9.6,21.4-21.4V278.2c0-11.8-9.6-21.4-21.4-21.4h-27c-11.8,0-21.4,9.6-21.4,21.4v152.9
	c0,11.8,9.6,21.4,21.4,21.4H186.3z"/>
<path class="st2" d="M189.3,433.6c5.9,0,10.7-4.8,10.7-10.7V276.2c0-5.9-4.8-10.7-10.7-10.7h-33.1c-5.9,0-10.7,4.8-10.7,10.7v146.7
	c0,5.9,4.8,10.7,10.7,10.7H189.3z"/>
<polygon class="st2" points="122.8,232.1 122.8,232.1 122.8,477.2 222.8,477.2 222.8,232.1 "/>
<path class="st1" d="M1006.5,746.2V759h-5.4L1006.5,746.2z M1006.5,763.9v6.2h5.4v-6.2h2.5V759h-2.5v-23.1h-5.9l-9.8,23.1v4.9
	H1006.5z M993.7,765.2h-5.4v4.9h5.4V765.2z M976.5,744v26.1h5.4v-34.2h-3.6c-0.2,0.6-0.4,1-0.5,1.3c-0.2,0.3-0.4,0.7-0.7,1.1
	c-0.3,0.4-0.7,0.8-1,1c-0.4,0.2-0.9,0.4-1.5,0.6c-0.6,0.2-1.3,0.3-2.1,0.3v3.8H976.5z M957.1,744v26.1h5.4v-34.2h-3.6
	c-0.2,0.6-0.4,1-0.5,1.3c-0.2,0.3-0.4,0.7-0.7,1.1c-0.3,0.4-0.7,0.8-1,1c-0.4,0.2-0.9,0.4-1.5,0.6c-0.6,0.2-1.3,0.3-2.1,0.3v3.8
	H957.1z"/>
<path class="st1" d="M1103.1,683.4l2.6,17.2h-5.2L1103.1,683.4z M1098.9,711.5l0.9-6.2h6.6l0.9,6.2h5.4l-5.4-34.2h-8.3l-5.4,34.2
	H1098.9z M1081.6,682.2v29.3h5.4v-29.3h5.6v-4.9H1076v4.9H1081.6z M1065.9,683.4l2.6,17.2h-5.2L1065.9,683.4z M1061.7,711.5l0.9-6.2
	h6.6l0.9,6.2h5.4l-5.4-34.2h-8.3l-5.4,34.2H1061.7z M1042.2,711.5v-14.6h6.1v14.6h5.4v-34.2h-5.4V692h-6.1v-14.7h-5.4v34.2H1042.2z
	 M1015.1,711.5v-24.1l4,24.1h5.1l3.7-24.5v24.5h5.4v-34.2h-7.7l-3.7,24.4l-4-24.4h-7.5v34.2H1015.1z M996,685.2
	c0-2.2,0.9-3.4,2.8-3.4c1.8,0,2.8,1.1,2.8,3.4v18.5c0,2.3-0.9,3.4-2.8,3.4c-1.9,0-2.8-1.1-2.8-3.4V685.2z M992.8,709.6
	c1.4,1.5,3.4,2.2,6.1,2.2c2.6,0,4.6-0.7,6-2.2s2.1-3.6,2.1-6.3v-17.8c0-2.7-0.7-4.9-2.1-6.3c-1.4-1.5-3.4-2.2-6-2.2
	c-2.6,0-4.6,0.7-6.1,2.2c-1.4,1.5-2.1,3.6-2.1,6.3v17.8C990.7,706,991.4,708.2,992.8,709.6 M976.3,711.5V701l1.7-3.1l5.2,13.6h5.5
	l-7.5-19l7.5-15.2h-5.4l-7,14.9v-14.9h-5.4v34.2H976.3z M948.8,685.7c0-1.2,0.2-2.1,0.7-2.7c0.4-0.6,1.1-0.8,2.1-0.8h2.6v10.5H952
	c-1.1,0-1.9-0.3-2.4-0.8c-0.5-0.5-0.8-1.5-0.8-2.8V685.7z M948.2,711.5c0.1-0.4,0.2-0.7,0.3-0.9c0.1-0.2,0.1-0.6,0.2-1.1
	c0.1-0.6,0.1-1.3,0.1-2.2v-5.4c0-1.6,0.3-2.7,0.8-3.4c0.6-0.7,1.4-1,2.7-1h1.9v13.9h5.4v-34.2h-8.1c-2.8,0-4.8,0.6-6,1.9
	c-1.3,1.3-1.9,3.3-1.9,5.9v2.7c0,3.5,1.2,5.8,3.5,6.9c-1.3,0.5-2.2,1.4-2.7,2.6c-0.5,1.2-0.8,2.8-0.8,4.7v5.3c0,1.8-0.2,3.2-0.5,4.1
	H948.2z M932,683.4l2.6,17.2h-5.2L932,683.4z M927.8,711.5l0.9-6.2h6.6l0.9,6.2h5.4l-5.4-34.2h-8.3l-5.4,34.2H927.8z M901.3,711.6
	c2.7,0,4.6-0.7,5.9-2c1.2-1.3,1.9-3.6,2-6.7l0.6-20.7h4.7v29.3h5.4v-34.2h-15.4l-0.6,25.8c0,0.8-0.1,1.4-0.2,1.9
	c-0.1,0.5-0.3,0.8-0.6,1.1c-0.3,0.2-0.6,0.4-1,0.5c-0.4,0.1-0.9,0.1-1.5,0.1v4.9H901.3z M886.6,711.5l4.5-15.7l2.2-8.4v24h5.4v-34.2
	h-6.4l-4.4,14.1l-2,7.5v-21.7h-4.8v34.2H886.6z M855.4,711.5l4.9-15.2l1.3,2.7v12.6h5.4V699l1.3-2.6l4.9,15.1h5.4l-6.6-20.2
	l6.6-13.9h-5.2l-6.4,13.8v-13.8h-5.4v13.8l-6.4-13.8H850l6.7,14l-6.7,20.2H855.4z"/>
<path class="st1" d="M816.1,389.8c1.4,1.5,3.5,2.2,6.1,2.2c2.6,0,4.6-0.7,6-2.2c1.4-1.5,2-3.6,2-6.4v-2.7c0-3.7-1.2-6.1-3.7-7.2
	c2.5-1,3.7-3.4,3.7-7v-0.9c0-2.7-0.7-4.9-2-6.4c-1.4-1.5-3.3-2.2-6-2.2c-2.6,0-4.6,0.7-6.1,2.2c-1.4,1.5-2.2,3.6-2.2,6.4v1.9h5.4
	v-2.2c0-2.2,0.9-3.4,2.8-3.4c0.9,0,1.6,0.3,2.1,0.9c0.5,0.6,0.7,1.6,0.7,3v1.9c0,1.3-0.3,2.2-0.8,2.8c-0.5,0.5-1.3,0.8-2.4,0.8h-2.1
	v4.9h1.8c1.2,0,2.1,0.3,2.7,1c0.5,0.7,0.8,1.8,0.8,3.3v2.7c0,1.4-0.2,2.4-0.7,3c-0.5,0.6-1.2,0.9-2.1,0.9c-1.8,0-2.8-1.1-2.8-3.4
	v-3.2h-5.4v2.8C813.9,386.2,814.7,388.3,816.1,389.8 M810.5,386.7h-5.4v4.9h5.4V386.7z M790.8,377.6c0-2.2,0.9-3.4,2.8-3.4
	c1.8,0,2.8,1.1,2.8,3.4v6.2c0,2.2-0.9,3.3-2.8,3.3c-1.9,0-2.8-1.1-2.8-3.3V377.6z M787.6,389.7c1.4,1.5,3.4,2.2,6,2.2
	c2.6,0,4.6-0.7,6-2.2c1.4-1.5,2.1-3.6,2.1-6.3v-6.2c0-2.5-0.5-4.5-1.5-5.8c-1-1.3-2.5-2-4.4-2c-2.4,0-4,1-5,3v-6.2
	c0-1.6,0.2-2.6,0.7-3.3c0.5-0.6,1.2-0.9,2.3-0.9c1.9,0,2.8,1.1,2.8,3.4v1.2h5.1v-0.9c0-2.7-0.7-4.9-2-6.4c-1.4-1.5-3.3-2.2-5.9-2.2
	c-5.5,0-8.2,3-8.2,8.9v17.5C785.5,386.1,786.2,388.3,787.6,389.7"/>
<path class="st1" d="M866.8,303.7h2.5c0.9,0,1.5,0.2,2,0.7c0.4,0.5,0.6,1.3,0.6,2.5v5.1c0,1.2-0.2,2-0.6,2.5c-0.4,0.5-1.1,0.7-2,0.7
	h-2.5V303.7z M866.8,333v-12.9h2.5c2.6,0,4.6-0.7,6-2.2c1.3-1.4,2-3.5,2-6.3v-4.4c0-2.8-0.7-4.9-2-6.3c-1.3-1.4-3.3-2.2-6-2.2h-7.9
	V333H866.8z M847,306.7c0-2.2,0.9-3.4,2.8-3.4c1.8,0,2.8,1.1,2.8,3.4v18.5c0,2.3-0.9,3.4-2.8,3.4c-1.9,0-2.8-1.1-2.8-3.4V306.7z
	 M843.8,331.1c1.4,1.5,3.4,2.2,6.1,2.2s4.6-0.7,6-2.2c1.4-1.5,2.1-3.6,2.1-6.3V307c0-2.7-0.7-4.9-2.1-6.3c-1.4-1.5-3.4-2.2-6-2.2
	s-4.6,0.7-6.1,2.2c-1.4,1.5-2.1,3.6-2.1,6.3v17.8C841.7,327.5,842.4,329.7,843.8,331.1 M825.4,326.5c0.2-0.7,0.4-1.6,0.5-2.9l1-19.9
	h4.5v24.4h-7C824.8,327.7,825.2,327.1,825.4,326.5 M822.4,337.5V333h11.4v4.5h5.4v-9.4h-2.3v-29.3h-15.3l-1,24.9
	c-0.1,1-0.2,1.9-0.4,2.6c-0.2,0.7-0.5,1.3-1,1.8H817v9.4H822.4z M803,333l4.5-15.7l2.2-8.4v24h5.4v-34.2h-6.4l-4.4,14.1l-2,7.5
	v-21.7h-4.8V333H803z M784.4,303.7h2.6c0.9,0,1.5,0.2,2,0.7c0.4,0.5,0.6,1.3,0.6,2.5v5.1c0,1.2-0.2,2-0.6,2.5
	c-0.4,0.5-1.1,0.7-2,0.7h-2.6V303.7z M784.4,333v-12.9h2.5c2.6,0,4.6-0.7,6-2.2c1.3-1.4,2-3.5,2-6.3v-4.4c0-2.8-0.7-4.9-2-6.3
	c-1.3-1.4-3.3-2.2-6-2.2H779V333H784.4z M764.6,306.7c0-2.2,0.9-3.4,2.8-3.4c1.8,0,2.8,1.1,2.8,3.4v18.5c0,2.3-0.9,3.4-2.8,3.4
	c-1.9,0-2.8-1.1-2.8-3.4V306.7z M761.4,331.1c1.4,1.5,3.4,2.2,6.1,2.2c2.6,0,4.6-0.7,6-2.2c1.4-1.5,2.1-3.6,2.1-6.3V307
	c0-2.7-0.7-4.9-2.1-6.3c-1.4-1.5-3.4-2.2-6-2.2c-2.6,0-4.6,0.7-6.1,2.2c-1.4,1.5-2.1,3.6-2.1,6.3v17.8
	C759.3,327.5,760,329.7,761.4,331.1 M744.9,333v-10.5l1.7-3.1l5.2,13.6h5.5l-7.5-19l7.5-15.2h-5.4l-7,14.9v-14.9h-5.4V333H744.9z"/>
<path class="st1" d="M341.7,356.2v11.7h-4.9L341.7,356.2z M341.7,372.4v5.7h4.9v-5.7h2.2v-4.5h-2.2v-21.1h-5.4l-8.9,21.1v4.5H341.7z
	 M330,373.5h-4.9v4.5h4.9V373.5z M315.8,356.2v11.7h-4.9L315.8,356.2z M315.8,372.4v5.7h4.9v-5.7h2.2v-4.5h-2.2v-21.1h-5.4
	l-8.9,21.1v4.5H315.8z"/>
<path class="st1" d="M342.7,326.6l0,0.3c-0.2,1.1-0.6,1.8-1.3,2.1c-0.7,0.4-1.7,0.5-3,0.4v4.4c1.3,0.1,2.5,0,3.5-0.1
	c1-0.2,1.8-0.5,2.5-0.9c0.7-0.4,1.3-0.9,1.7-1.7s0.9-1.5,1.2-2.3c0.3-0.8,0.6-1.9,0.8-3.1l5.2-23.2h-4.9l-2.2,10.7l-1.2,7.2
	l-1.5-7.3l-2.6-10.6h-4.9L342.7,326.6z M323,333.8l12.3-31.2H331l-12.3,31.2H323z M304.5,332.1c1.2,1.4,3.1,2,5.5,2
	c2.4,0,4.3-0.7,5.6-2c1.3-1.4,2-3.3,2-5.8v-4.2h-4.9v4.5c0,2-0.8,3.1-2.5,3.1c-1.7,0-2.6-1-2.6-3.1v-16.9c0-2,0.9-3.1,2.6-3.1
	c1.7,0,2.5,1,2.5,3.1v3.4h4.9v-3c0-2.5-0.7-4.4-2-5.8c-1.3-1.4-3.2-2-5.6-2c-2.4,0-4.2,0.7-5.5,2c-1.2,1.4-1.9,3.3-1.9,5.8v16.2
	C302.7,328.8,303.3,330.7,304.5,332.1"/>
<path class="st1" d="M457.7,901.5v-4.9h-10.1c0-0.2-0.1-0.4-0.1-0.7c0-0.7,0.2-1.5,0.6-2.3c0.4-0.8,0.9-1.6,1.5-2.3
	c0.6-0.7,1.3-1.5,2.1-2.3c0.8-0.8,1.5-1.7,2.3-2.6c0.8-0.9,1.4-1.9,2.1-3c0.6-1,1.1-2.2,1.5-3.6c0.4-1.3,0.6-2.7,0.6-4.2
	c0-2.8-0.7-4.9-2-6.4c-1.4-1.5-3.3-2.2-5.9-2.2s-4.6,0.7-6,2.2c-1.4,1.5-2.1,3.6-2.1,6.4v3.3h5.1v-3.7c0-2.2,0.9-3.4,2.8-3.4
	c0.9,0,1.6,0.3,2.1,0.9c0.5,0.6,0.7,1.6,0.7,3.1c0,1.3-0.2,2.6-0.6,3.8c-0.4,1.2-0.9,2.2-1.5,3.1c-0.6,0.9-1.3,1.8-2.1,2.6
	c-0.8,0.8-1.5,1.7-2.3,2.5c-0.8,0.8-1.5,1.7-2.1,2.6c-0.6,0.9-1.1,2-1.5,3.1c-0.4,1.2-0.6,2.5-0.6,3.8v4.2H457.7z M438.5,896.6h-5.4
	v4.9h5.4V896.6z M418.8,887.5c0-2.2,0.9-3.4,2.8-3.4c1.8,0,2.8,1.1,2.8,3.4v6.2c0,2.2-0.9,3.3-2.8,3.3c-1.9,0-2.8-1.1-2.8-3.3V887.5
	z M415.6,899.7c1.4,1.5,3.4,2.2,6,2.2c2.6,0,4.6-0.7,6-2.2c1.4-1.5,2.1-3.6,2.1-6.3v-6.2c0-2.5-0.5-4.5-1.5-5.8c-1-1.3-2.5-2-4.4-2
	c-2.4,0-4,1-5,3V876c0-1.6,0.2-2.6,0.7-3.3c0.5-0.6,1.2-0.9,2.3-0.9c1.9,0,2.8,1.1,2.8,3.4v1.2h5.1v-0.9c0-2.8-0.7-4.9-2-6.4
	c-1.4-1.5-3.3-2.2-5.9-2.2c-5.5,0-8.2,3-8.2,8.9v17.5C413.5,896.1,414.2,898.2,415.6,899.7 M401.9,875.5v26.1h5.4v-34.2h-3.6
	c-0.2,0.6-0.4,1-0.5,1.3c-0.2,0.3-0.4,0.7-0.7,1.1c-0.3,0.4-0.7,0.8-1,1c-0.4,0.2-0.9,0.4-1.5,0.6c-0.6,0.2-1.3,0.3-2.1,0.3v3.8
	H401.9z"/>
<path class="st1" d="M464.2,817.2c0-1.2,0.2-2.1,0.7-2.7c0.4-0.6,1.1-0.8,2.1-0.8h2.6v10.5h-2.1c-1.1,0-1.9-0.3-2.4-0.8
	c-0.5-0.5-0.8-1.5-0.8-2.8V817.2z M463.6,842.9c0.1-0.4,0.2-0.7,0.3-0.9c0.1-0.2,0.1-0.6,0.2-1.1c0.1-0.6,0.1-1.3,0.1-2.2v-5.4
	c0-1.6,0.3-2.7,0.8-3.4c0.6-0.7,1.4-1,2.7-1h1.9v13.9h5.4v-34.2h-8.1c-2.8,0-4.8,0.6-6,1.9c-1.3,1.3-1.9,3.3-1.9,5.9v2.7
	c0,3.5,1.2,5.8,3.5,6.9c-1.3,0.5-2.2,1.4-2.7,2.6c-0.5,1.2-0.8,2.8-0.8,4.7v5.3c0,1.8-0.2,3.2-0.5,4.1H463.6z M443.7,842.9v-14.6
	h6.1v14.6h5.4v-34.2h-5.4v14.7h-6.1v-14.7h-5.4v34.2H443.7z M421.5,842.9l4.2-12.7l4.1,12.7h5.4l-6-17.4l5.6-16.8h-4.7l-4.1,12.7
	l-4.1-12.7h-5.4l5.6,16.6l-6,17.6H421.5z M403.3,835.1l0,0.3c-0.2,1.2-0.7,2-1.4,2.3c-0.7,0.4-1.9,0.5-3.3,0.4v4.9
	c1.4,0.1,2.7,0,3.8-0.2c1.1-0.2,2-0.5,2.7-0.9c0.7-0.4,1.4-1,1.9-1.8c0.5-0.8,1-1.6,1.3-2.5c0.3-0.9,0.6-2,0.9-3.3l5.7-25.4h-5.4
	l-2.5,11.7l-1.3,7.9l-1.7-8l-2.9-11.7h-5.4L403.3,835.1z M382.6,842.9v-10.5l1.7-3.1l5.2,13.6h5.5l-7.5-19l7.5-15.2h-5.4l-7,14.9
	v-14.9h-5.4v34.2H382.6z"/>
<path class="st1" d="M473.7,721.4c0-3.3,0.6-5.6,1.8-6.9c1.2-1.3,2.9-2,5.1-2s3.9,0.7,5.1,2c1.2,1.3,1.8,3.6,1.8,6.9v4.4
	c0,5.5-2.3,8.2-6.9,8.2c-4.6,0-6.9-2.7-6.9-8.2V721.4z M473.7,754c0-5.9,2.3-8.8,6.9-8.8c4.6,0,6.9,2.9,6.9,8.8v7.2
	c0,3.3-0.7,5.6-1.9,6.9c-1.2,1.3-2.9,2-5,2c-2.2,0-3.9-0.7-5.1-2c-1.2-1.3-1.8-3.6-1.8-6.8V754z M466.4,776.1
	c3.3,3.4,8.1,5.1,14.2,5.1c6.2,0,10.9-1.7,14.2-5.1c3.3-3.4,4.9-8.2,4.9-14.5v-6.2c0-8-2.5-13.4-7.6-16.3c5.1-2.8,7.6-8.1,7.6-15.7
	v-2.5c0-6.2-1.7-11.1-4.9-14.5c-3.3-3.4-8-5.1-14.2-5.1c-6.2,0-10.9,1.7-14.2,5.1c-3.3,3.4-5,8.2-5,14.5v2.5
	c0,7.7,2.5,12.9,7.6,15.7c-5.1,2.9-7.6,8.3-7.6,16.3v6.2C461.4,767.8,463,772.7,466.4,776.1 M454.5,769.1h-12.3v11.3h12.3V769.1z
	 M409.1,720.2c0-5,2.1-7.6,6.3-7.6c4.3,0,6.4,2.5,6.4,7.6v14.1c0,5.1-2.1,7.7-6.4,7.7c-4.2,0-6.3-2.6-6.3-7.7V720.2z M400.2,748.5
	c2.3,3.1,5.7,4.6,10.2,4.6c5.4,0,9.2-2.3,11.4-6.9v14.3c0,3.6-0.6,6.1-1.7,7.5c-1.1,1.4-2.8,2.1-5.1,2.1c-4.3,0-6.4-2.6-6.4-7.7
	v-2.8H397v2c0,6.3,1.6,11.1,4.7,14.5c3.1,3.4,7.7,5.1,13.6,5.1c12.5,0,18.8-6.8,18.8-20.3v-40c0-6.2-1.6-11.1-4.8-14.5
	c-3.2-3.4-7.8-5.1-13.8-5.1c-6,0-10.6,1.7-13.8,5.1c-3.2,3.4-4.8,8.2-4.8,14.5v14.3C396.8,741.1,397.9,745.5,400.2,748.5
	 M358.2,776.1c3.3,3.4,7.9,5.1,13.9,5.1c6,0,10.5-1.7,13.6-5.1c3.1-3.4,4.7-8.2,4.7-14.5v-6.2c0-8.5-2.9-13.9-8.6-16.4
	c5.7-2.4,8.6-7.7,8.6-16.1v-2c0-6.3-1.6-11.1-4.7-14.5c-3.1-3.4-7.7-5.1-13.6-5.1c-6,0-10.6,1.7-13.9,5.1c-3.3,3.4-5,8.2-5,14.5v4.3
	h12.3v-5c0-5.1,2.1-7.7,6.3-7.7c2.1,0,3.7,0.7,4.7,2c1.1,1.3,1.6,3.6,1.6,7v4.4c0,3-0.6,5.1-1.9,6.3c-1.2,1.3-3.1,1.9-5.5,1.9H366
	v11.2h4.1c2.8,0,4.9,0.8,6.1,2.3c1.2,1.5,1.9,4.1,1.9,7.6v6.2c0,3.3-0.5,5.6-1.6,6.9c-1.1,1.3-2.7,2-4.7,2c-4.2,0-6.3-2.6-6.3-7.7
	v-7.2h-12.3v6.5C353.2,767.9,354.9,772.7,358.2,776.1"/>
<ellipse transform="matrix(0.7071 -0.7071 0.7071 0.7071 -307.2237 480.2044)" class="st2" cx="426" cy="611" rx="68.4" ry="68.4"/>
<path class="st1" d="M439.1,642.6v-18.2l2.9-5.4l9,23.6h9.5l-12.9-32.8l12.9-26.4h-9.3l-12.2,25.8v-25.8h-9.3v59.2H439.1z
	 M409.3,597.5v45.1h9.3v-59.2h-6.3c-0.4,1-0.7,1.7-0.9,2.3c-0.3,0.6-0.7,1.2-1.2,2c-0.5,0.7-1.1,1.3-1.8,1.7c-0.7,0.4-1.5,0.7-2.6,1
	c-1.1,0.3-2.3,0.4-3.7,0.4v6.6H409.3z"/>
<path class="st1" d="M923.6,1136.7c2.5,0,4.2-0.5,5.3-1.5c1.1-1,1.6-2.8,1.6-5.3v-17.6c0-2.5-0.5-4.2-1.6-5.3
	c-1.1-1-2.8-1.6-5.3-1.6h-1.5v4.2h1.2c0.8,0,1.4,0.2,1.8,0.6c0.4,0.4,0.5,1.1,0.5,2.2v17.2c0,1.1-0.2,1.8-0.5,2.2
	c-0.4,0.4-0.9,0.6-1.8,0.6h-1.2v4.2H923.6z M910.1,1123.9c0-2,0.8-3.1,2.5-3.1c1.7,0,2.5,1,2.5,3.1v5.6c0,2-0.8,3.1-2.5,3.1
	c-1.7,0-2.5-1-2.5-3.1V1123.9z M907.1,1135c1.3,1.4,3.1,2,5.5,2c2.4,0,4.2-0.7,5.5-2c1.3-1.4,1.9-3.3,1.9-5.8v-5.7
	c0-2.3-0.5-4.1-1.4-5.3c-0.9-1.2-2.3-1.8-4.1-1.8c-2.2,0-3.7,0.9-4.6,2.8v-5.7c0-1.4,0.2-2.4,0.7-3c0.4-0.6,1.1-0.8,2.1-0.8
	c1.7,0,2.5,1,2.5,3.1v1.1h4.6v-0.8c0-2.5-0.6-4.4-1.9-5.8s-3.1-2-5.4-2c-5,0-7.5,2.7-7.5,8.1v16
	C905.2,1131.7,905.8,1133.6,907.1,1135 M902.1,1132.2h-4.9v4.5h4.9V1132.2z M886.4,1112.9v23.8h4.9v-31.2H888
	c-0.2,0.5-0.4,0.9-0.5,1.2c-0.1,0.3-0.4,0.7-0.6,1c-0.3,0.4-0.6,0.7-0.9,0.9c-0.4,0.2-0.8,0.4-1.4,0.5c-0.6,0.2-1.2,0.2-1.9,0.2v3.5
	H886.4z M870.2,1135.1c1.1,1,2.8,1.5,5.3,1.5h1.5v-4.2h-1.2c-0.8,0-1.4-0.2-1.8-0.6c-0.4-0.4-0.5-1.1-0.5-2.2v-17.2
	c0-1.1,0.2-1.8,0.5-2.2s0.9-0.6,1.8-0.6h1.2v-4.2h-1.5c-2.5,0-4.2,0.5-5.3,1.6c-1.1,1-1.6,2.8-1.6,5.3v17.6
	C868.7,1132.4,869.2,1134.1,870.2,1135.1 M850.6,1112.9v23.8h4.9v-31.2h-3.3c-0.2,0.5-0.4,0.9-0.5,1.2c-0.1,0.3-0.4,0.7-0.6,1
	c-0.3,0.4-0.6,0.7-0.9,0.9c-0.3,0.2-0.8,0.4-1.4,0.5c-0.6,0.2-1.2,0.2-1.9,0.2v3.5H850.6z M840.4,1132.2h-4.9v4.5h4.9V1132.2z
	 M819.6,1135c1.3,1.4,3.2,2,5.6,2c2.4,0,4.2-0.7,5.4-2c1.2-1.4,1.9-3.3,1.9-5.8v-2.5c0-3.4-1.1-5.6-3.4-6.6c2.3-0.9,3.4-3.1,3.4-6.4
	v-0.8c0-2.5-0.6-4.4-1.9-5.8c-1.2-1.4-3.1-2-5.4-2c-2.4,0-4.2,0.7-5.6,2c-1.3,1.4-2,3.3-2,5.8v1.7h4.9v-2c0-2,0.8-3.1,2.5-3.1
	c0.8,0,1.5,0.3,1.9,0.8c0.4,0.5,0.6,1.4,0.6,2.8v1.7c0,1.2-0.2,2-0.7,2.5c-0.5,0.5-1.2,0.8-2.2,0.8h-1.9v4.5h1.7
	c1.1,0,2,0.3,2.4,0.9c0.5,0.6,0.8,1.6,0.8,3.1v2.5c0,1.3-0.2,2.2-0.6,2.7c-0.4,0.5-1.1,0.8-1.9,0.8c-1.7,0-2.5-1-2.5-3.1v-2.9h-4.9
	v2.6C817.6,1131.7,818.2,1133.6,819.6,1135"/>
<polygon class="st2" points="672.7,1036.3 672.7,1192.1 1047.4,1192.1 1047.4,1207.2 659.5,1207.2 659.5,1036.3 "/>
</svg>
