<svg xmlns="http://www.w3.org/2000/svg" xmlns:xlink="http://www.w3.org/1999/xlink" xml:space="preserve" id="Слой_1" x="0" y="0" style="enable-background:new 0 0 681 553" version="1.1" viewBox="0 0 681 553"><style>.st0{fill:#f2dfeb}.st1{fill:#b7e0e5}.st2{fill:#f5ccce}.st3{fill:#fff4a3}.st4{fill:#39363a}.st5{fill:none;stroke:#39363a;stroke-width:.75}.st7{clip-path:url(#SVGID_2_);fill:#39363a}.st11,.st12{fill:none;stroke:#39363a;stroke-width:.7}.st12{stroke-width:.6}.st16,.st17{clip-path:url(#SVGID_12_);fill:#39363a}.st17{fill:none;stroke:#39363a}.st33{clip-path:url(#SVGID_44_)}.st33,.st34,.st35{fill:none;stroke:#39363a;stroke-width:.7}.st34{clip-path:url(#SVGID_46_)}.st35{clip-path:url(#SVGID_48_)}.st41{fill:#39363a}.st41,.st42{clip-path:url(#SVGID_58_)}.st42,.st43{fill:none;stroke:#39363a;stroke-width:.25}.st44,.st45,.st46{clip-path:url(#SVGID_60_);fill:#39363a}.st45,.st46{fill:none;stroke:#39363a;stroke-width:.25}.st46{stroke-width:.7}.st47,.st48{clip-path:url(#SVGID_62_);fill:#39363a}.st48{fill:none;stroke:#39363a;stroke-width:.25}.st63,.st64{clip-path:url(#SVGID_78_);fill:#39363a}.st64{fill:none;stroke:#39363a;stroke-width:.25}.st65,.st66{clip-path:url(#SVGID_80_);fill:#39363a}.st66{fill:none;stroke:#39363a;stroke-width:.25}.st67,.st68{clip-path:url(#SVGID_82_);fill:#39363a}.st68{fill:none;stroke:#39363a;stroke-width:.25}.st69,.st70{clip-path:url(#SVGID_84_);fill:#39363a}.st70{fill:none;stroke:#39363a;stroke-width:.25}</style><switch><g><path d="m32.8 116 5.9-26.9 94.7-14.3 1.1 59.7-98.5 3.7z" class="st0"/><path d="M38.7 123.9h194.7v178.7H38.7z" class="st0"/><path d="M38.7 123.9h93.4V463H38.7z" class="st0"/><path d="M238.3 309.6h98.8v202.1h-98.8z" class="st1"/><path d="M139.5 309.7h197.6V463H139.5z" class="st1"/><path d="M343.6 309.6H439v202.5h-95.4z" class="st2"/><path d="M343.6 309.6h197.1v154H343.6z" class="st2"/><path d="M446.4 123.9h194.5v178.3H446.4z" class="st3"/><path d="M543.6 285.1h97.2v178.3h-97.2z" class="st3"/><path d="M439 32.7h24.9v42.5H439z" class="st4"/><path d="M439 60.5h18v63.4h-18zm-15.6-14.9h18v6.2h-18z" class="st4"/><path d="M425.7 48.7h15.7v10.5h-15.7zm-71-3.1h23v6.2h-23z" class="st4"/><path d="M356.9 48.7h20.7v10.5h-20.7zm-70.3-3.1h23v6.2h-23z" class="st4"/><path d="M288.9 48.7h20.7v10.5h-20.7zm82.1-3.1h23v6.2h-23z" class="st4"/><path d="M371 48.7h20.7v10.5H371zm-68.8-3.1h23v6.2h-23z" class="st4"/><path d="M302.2 48.7h20.7v10.5h-20.7zm-68.7-3.1h23v6.2h-23zM216 67.5h23V75h-23zm-97.5 48.4h35v7.9h-35zm11.8-55.7h11.3v7.9h-11.3z" class="st4"/><path d="M304.3 55.8h7.1v15.3h-7.1zm64.5 0h7.1v15.3h-7.1zm0 36.4h7.1v14.7h-7.1zm-64.5 7.3h19.9v7.1h-19.9z" class="st4"/><path d="M371.5 99.8h73.9v7.1h-73.9z" class="st4"/><path d="M383.1 104.2h54.8v7.1h-54.8zm0 129.4h54.8v7.1h-54.8zM540 66.5h8.4v188.8H540zM304.3 99.8h7.1v145.7h-7.1z" class="st4"/><path d="M165.2 238.4h158.2v7.1H165.2zm194.7 0H515v7.1H359.9zM29.1 74.8h11.3v7.9H29.1zm1.7 41.1h20.7v7.9H30.8z" class="st4"/><path d="M30.8 74.8h7.9v403.1h-7.9zM132 67.3h7.9v188.8H132zm101.5-18.6h20.7v10.5h-20.7z" class="st4"/><path d="M218.2 32.9h22.7V75h-22.7z" class="st4"/><path d="M222.9 45.6h18v78.2h-18zm315.7 14.9h11.3v7.9h-11.3zm103.8 59.4h7.1v145.3h-7.1zm0 173.8h7.1v182.6h-7.1zm-214.2 8.9h119.6v7.1H428.2z" class="st4"/><path d="M540.7 283.9h7.1v201h-7.1zm88.1-168h28.6v7.9h-28.6zm-101.8 0h34.4v7.9H527z" class="st4"/><path d="M640.8 74.7h16.6v402.5h-16.6z" class="st4"/><path d="M622.7 471h31.2v6.2h-31.2z" class="st4"/><path d="M624.9 463.6h28.9v10.5h-28.9zm-83.1 7.4H568v6.2h-26.2z" class="st4"/><path d="M541.8 463.6h24v10.5h-24zm-1.1 10.8h13.1v37.7h-13.1z" class="st4"/><path d="M526.3 463.5H564v7.4h-37.7zm-102.3 0h34.9v7.4H424z" class="st4"/><path d="M439 351.6h7.4v171.5H439zm-102.8-50.1h7.4v221.7h-7.4zm-102.7 49.6h7.4v172.1h-7.4zm0-57.3h7.4v32.3h-7.4z" class="st4"/><path d="M132.9 302.6h119.6v7.4H132.9zm-98.1 0h72v7.4h-72z" class="st4"/><path d="M132.1 284.9h7.4v227.2h-7.4zm306.9 8.6h7.4v32.3H439zm0-188.2h7.4v160.6H439zM322.2 463h35.4v8.8h-35.4zm-102 0h35.4v8.8h-35.4z" class="st4"/><path d="M113.9 463h39.7v7.8h-39.7zM24 463h30.6v8.8H24z" class="st4"/><path d="M24 74.8h8.8v403.1H24z" class="st4"/><path d="M24 470h33v7.9H24zm88.2 0h25.1v7.9h-25.1z" class="st4"/><path d="M124.7 473.9h9V512h-9z" class="st4"/><path d="M124.7 504.1h16.8v7.9h-16.8zM437 518.3h11.3v7.9H437zm-102.7 0h11.3v7.9h-11.3zm-102.1 0h11.3v7.9h-11.3zm148-413h5.1v34.9h-5.1zm0 71.7h5.1v24.2h-5.1z" class="st4"/><path d="M384.1 185.6h52v5.1h-52zm-3.9 37.6h5.1v18.7h-5.1zm-19.4 18.7h4.3v14.5h-4.3zm10.4 0h4.3v14.5h-4.3z" class="st4"/><path d="M360.9 252.1h30.6v4.3h-30.6zm30 5.9h48.8v4.3h-48.8z" class="st4"/><path d="M381 241.9h4.3v14.5H381zm9.9 0h4.3v20.3h-4.3zm15.4 0h4.3v20.3h-4.3zm29.1 0h4.3v20.3h-4.3z" class="st4"/><path d="M433 105.9h9.6V242H433zM281 305.6h118.2v4.1H281z" class="st4"/><path d="M281 301.5h9.1v5.2H281zm109.1 0h9.1v5.2h-9.1zm-77.4 0h54.4v5.2h-54.4zm26.7 90.2h57.1v4.4h-57.1zm-55.6-60.4h55v4.4h-55zm0 60.4h55v4.4h-55z" class="st4"/><path d="M283.8 332.1h4.4v26.2h-4.4zm0 43.3h4.4v20.7h-4.4zm143.7 5.9h15.7v4.4h-15.7zm-33.1 0h10.3v4.4h-10.3z" class="st4"/><path d="M392.1 376.9h4.4v19.3h-4.4zm-1.6-45.6h4.4v26.2h-4.4z" class="st4"/><path d="M342.2 331.3h52.7v4.4h-52.7zm-304-55.9H83v4.7H38.2z" class="st4"/><path d="M56.7 275.4h44.8v3.1H56.7zm-21.4-55.2h71.4v7.1H35.3z" class="st4"/><path d="M96.4 258.9h5V284h-5zm0-38.7h5v22.4h-5zm141.5 161.6h15v4h-15zm38.4 0h11.3v4h-11.3zM258.6 244h5.5v12.6h-5.5zm-18.2 0h5.5v12.6h-5.5z" class="st4"/><path d="M233.5 109h7.4v156.5h-7.4zm42.8 135h5.5v12.6h-5.5z" class="st4"/><path d="M260.7 251.1h17.6v5.5h-17.6zm-17.6 0h17.6v5.5h-17.6z" class="st4"/><path d="M476.7 116.3h50.6v2.1h-50.6z" class="st5"/><path d="M476.7 116.3h50.6v7.2h-50.6zm-324.8 0h51.4v2.1h-51.4z" class="st5"/><path d="M151.9 116.3h51.4v7.2h-51.4zm410.3 352.1h65.6v2.1h-65.6zm-82.6 0h62.8v2.1h-62.8zm0-4.4h65.6v4.4h-65.6z" class="st5"/><path d="M559.9 464h67.9v12.9h-67.9zm-217.2 52.5h97.7v2.1h-97.7z" class="st5"/><path d="M342.7 512.1h97.7v13.8h-97.7zm-104.5 4.4h98.5v2.1h-98.5z" class="st5"/><path d="M238.2 512.1h98.5v13.8h-98.5zm206.94 4.73 98.276-15.559.329 2.074-98.276 15.559z" class="st5"/><path d="m444.331 511.975 98.276-15.559 2.158 13.63-98.276 15.559zm-309.206-8.689.328-2.074 99.558 15.776-.329 2.074z" class="st5"/><path d="m134.024 510.251 2.19-13.827 98.572 15.608-2.19 13.828zM52 467.4h65.6v2.1H52z" class="st5"/><path d="M50.8 463.4h67.9v14.2H50.8zM460.1 68.1H541v2.1h-80.9z" class="st5"/><path d="M458.8 60.9h83.6v14h-83.6zm87.215 9.104.329-2.074 98.272 15.58-.328 2.074z" class="st5"/><path d="m547.165 74.513 2.158-13.63L647.6 76.444l-2.159 13.63zM138.9 67.8h80.9v2.1h-80.9z" class="st5"/><path d="M137.6 60.6h83.6v14h-83.6zM35.451 83.295l98.276-15.558.329 2.074L35.78 85.37z" class="st5"/><path d="m32.407 76.278 98.276-15.558 2.205 13.926-98.276 15.559zM249 52.2h47.1v2.1H249zm67.8 0h47.1v2.1h-47.1zm69.1 0H433v2.1h-47.1z" class="st5"/><path d="M242.4 46h58v12.9h-58zm67.8 0h58v12.9h-58zm69.1 0h58v12.9h-58zM134.9 468.3h65.6v2.1h-65.6zm-2.8-4.9h68.5v4.9h-68.5z" class="st5"/><path d="M573 218.8h72.4v7.1H573zm6.7 31.1h65.8v3.1h-65.8z" class="st4"/><path d="M597.7 248.3h52.7v3.1h-52.7zm-18.4-3.8h4.4v23h-4.4zm0 41.5h4.4v18.7h-4.4z" class="st4"/><path d="M573 301.3h72.4v7.1H573z" class="st4"/><defs><path id="SVGID_1_" d="M24 32.7h633.4V532H24z"/></defs><clipPath id="SVGID_2_"><use xlink:href="#SVGID_1_" style="overflow:visible"/></clipPath><path d="M128.6 511.1v6.4h10.2l94.6 14.1H448v-6.1" style="clip-path:url(#SVGID_2_);fill:none;stroke:#39363a;stroke-width:.75"/><path d="M200.8 87.7h-.8c-.5 0-.6-.1-.6-.6 0-.4.1-.5.6-.5h.7v1.1zm-2.1.6c-.3 0-.9.1-1 .6l-.4 1.6h1.9l.3-1.4c0-.2.2-.3.5-.3h.7v1.7h1.8v-5.2c-.6-.1-1.2-.1-2.6-.1-1.9 0-2.4.4-2.4 1.7.1.6.4 1.2 1.2 1.4zm-2.1 2.2v-5.2H195l-1.6 2.5c-.2.2-.3.5-.4.8 0-.3.1-.5.1-.8v-2.4h-1.7v5.2h1.6l1.6-2.4c.1-.2.3-.6.4-.9 0 .3-.1.6-.1.9v2.3h1.7zm-8.1-2.7c1.2-.2 1.2-.3 1.8-2.4h-1.9c-.5 1.7-.6 1.9-1.1 1.9h-.3c0-.2.1-.4.1-.6v-1.2h-1.6v1.2c0 .2 0 .4.1.6h-.3c-.5 0-.6-.2-1.1-1.9h-1.9c.7 2.1.6 2.3 1.8 2.4v.1c-1.3.2-1.3.3-2 2.7h1.9c.7-2 .7-2.1 1.1-2.1h.4c0 .2-.1.3-.1.4v1.6h1.7v-1.6c0-.1 0-.3-.1-.4h.4c.5 0 .5.1 1.2 2.1h1.9c-.7-2.5-.7-2.6-2-2.8zm-9.4 1.4h-1.5c.3-.6.4-1.3.6-2.3 0-.3.2-.4.5-.4h.5v2.7zm2.7 0h-.9v-3.9h-2.8c-.9 0-1.4.4-1.5 1.3-.1.9-.3 1.8-.6 2.6h-.6v2.7h1.2l.1-1.4h3.7l.1 1.4h1.3v-2.7zm-9.7-2.7c.6 0 .8.3.8 1.4 0 1.1-.2 1.4-.8 1.4-.6 0-.8-.3-.8-1.4 0-1.1.2-1.4.8-1.4m0-1.3c-2 0-2.8.7-2.8 2.7s.7 2.7 2.8 2.7c2 0 2.8-.7 2.8-2.7s-.7-2.7-2.8-2.7m-3.8-1.9H165c-1.1 0-1.7.6-1.8 1.7-.1 1.7-.3 2.7-.5 3.3-.2.5-.5.6-1 .7l.1 1.5c1.3.2 2.2-.2 2.7-1.7.3-.9.4-2.2.6-3.7 0-.4.2-.5.6-.5h.7v5.9h2v-7.2zm16.4 12.1h2c.7 0 .9.1.9.7 0 .5-.1.8-.8.8h-1.4v1.3h1.4c.8 0 .9.2.9.8 0 .7-.3.9-1.2.9-.6 0-1.1 0-2-.1l-.1 1.4c.8.1 1.7.2 2.6.2 1.9 0 2.6-.6 2.6-2.1 0-1.1-.3-1.6-1.3-1.8.9-.1 1.1-.8 1.1-1.8 0-1.3-.7-1.7-2.4-1.7-.8 0-1.6.1-2.4.2l.1 1.2zm-2.1 4c-.5 0-.7.2-.7.7v.5c0 .5.2.7.7.7h.4c.5 0 .7-.2.7-.7v-.6c0-.5-.2-.7-.7-.7h-.4zm-1.3-1.1h-.9v-3H179l-.3 1.1v1.8h-1.4c-.2 0-.3-.1-.2-.3l1.6-4.1h-1.8l-1.8 4.6c-.2.6.2 1.1.8 1.1h2.9v1.5h1.8v-1.5l.8-.2v-1zM223 206.6c0-.2.1-.4.4-.4h1.1v.6c-.3.2-.7.4-1 .4-.3 0-.5-.1-.5-.4v-.2zm-1.4-2c.9-.1 1.7-.1 2.2-.1.5 0 .7.2.7.6v.1h-1.7c-1 0-1.7.5-1.7 1.3v.5c0 1 .8 1.5 1.7 1.5.9 0 1.5-.5 1.8-.9l.2.8h1.5v-3.3c0-1.5-.8-2-2.2-2-.8 0-2.1.1-2.8.3l.3 1.2zm-.9.1v-1.4h-5.2v1.4h1.6v3.7h1.9v-3.7h1.7zm-9.2 1.9c0-.2.1-.4.4-.4h1.1v.6c-.3.2-.7.4-1 .4-.3 0-.5-.1-.5-.4v-.2zm-1.4-2c.9-.1 1.7-.1 2.2-.1.5 0 .7.2.7.6v.1h-1.7c-1 0-1.7.5-1.7 1.3v.5c0 1 .8 1.5 1.7 1.5.9 0 1.5-.5 1.8-.9l.2.8h1.5v-3.3c0-1.5-.8-2-2.2-2-.8 0-2.1.1-2.8.3l.3 1.2zm-1.3-1.4h-1.9v1.8h-1.6v-1.8h-1.9v5.2h1.9v-2.1h1.6v2.1h1.9v-5.2zm-8.8 0c-.4 0-.6.2-.7.6l-.4 1.9c-.1.3-.1.5-.1.8h-.1c0-.3 0-.5-.1-.8l-.5-1.9c-.1-.4-.3-.6-.7-.6h-1.6c-.4 0-.6.2-.7.6l-.1 4.5h1.7l.1-3.8h.1l.6 2.5c.1.4.3.6.7.6h.8c.4 0 .6-.2.7-.6l.6-2.5h.1l.1 3.8h1.7l-.1-4.5c0-.4-.2-.6-.6-.6H200zm-8.6 1.2c.6 0 .8.3.8 1.4 0 1.1-.2 1.4-.8 1.4-.6 0-.8-.3-.8-1.4 0-1.1.2-1.4.8-1.4m0-1.3c-2 0-2.8.7-2.8 2.7s.7 2.7 2.8 2.7c2 0 2.8-.7 2.8-2.7s-.8-2.7-2.8-2.7m-5.2 2.6c1.2-.2 1.1-.3 1.8-2.5h-1.9c-.4 1.7-.5 1.9-1.2 1.9h-.2c0-.2.1-.4.1-.7v-1.2h-1.9v5.2h1.9v-1.6c0-.1 0-.3-.1-.4h.4c.6 0 .6.1 1.1 2.1h2c-.7-2.5-.7-2.6-2-2.8zm-8.5-.1h-.7c-.5 0-.6-.1-.6-.6 0-.4.1-.5.6-.5h.7v1.1zm-2 .6c-.3 0-.9.1-1 .6l-.4 1.6h1.9l.3-1.4c0-.2.2-.3.5-.3h.7v1.7h1.8v-5.2c-.6-.1-1.2-.1-2.6-.1-1.9 0-2.4.4-2.4 1.7 0 .6.3 1.2 1.2 1.4zm-5.6.4c0-.2.1-.4.4-.4h1.1v.6c-.3.2-.7.4-1 .4-.3 0-.5-.1-.5-.4v-.2zm-1.4-2c.9-.1 1.7-.1 2.2-.1.5 0 .7.2.7.6v.1h-1.7c-1 0-1.7.5-1.7 1.3v.5c0 1 .8 1.5 1.7 1.5.9 0 1.5-.5 1.8-.9l.2.8h1.5v-3.3c0-1.5-.8-2-2.2-2-.8 0-2.1.1-2.8.3l.3 1.2zm-1.3-1.4h-3.1c-.9 0-1.4.5-1.4 1.3-.1.9-.2 1.7-.3 2-.1.4-.4.4-.9.5l.2 1.4c1.1.2 2.2-.1 2.4-1.4.1-.5.2-1.4.3-2.2 0-.3.2-.4.5-.4h.4v3.9h1.9v-5.1zm-6.3 5.2v-5.2h-1.6l-1.6 2.5c-.2.2-.3.5-.4.8 0-.3.1-.5.1-.8v-2.4h-1.7v5.2h1.6l1.6-2.4c.1-.2.3-.6.4-.9 0 .3-.1.6-.1.9v2.3h1.7zm-8.4-3.8c1.4-.2 1.4-.8 2.2-3.4h-2c-.6 2.2-.8 2.8-1.5 2.8h-.3c.1-.3.1-.6.1-.9v-1.9h-1.9v1.9c0 .3 0 .6.1.9h-.4c-.7 0-.8-.6-1.5-2.8h-2c.8 2.6.8 3.2 2.2 3.4v.1c-1.4.2-1.5.8-2.4 3.7h2c.8-2.6.9-3.1 1.6-3.1h.4c-.1.2-.1.5-.1.7v2.4h1.9V206c0-.2 0-.4-.1-.7h.3c.7 0 .8.5 1.6 3.1h2.1c-.8-2.9-.9-3.5-2.3-3.8zM122 161.5c0-.2.1-.4.4-.4h1.1v.6c-.3.2-.7.4-1 .4-.3 0-.5-.1-.5-.4v-.2zm-1.4-2c.9-.1 1.7-.1 2.2-.1.5 0 .7.2.7.6v.1h-1.7c-1 0-1.7.5-1.7 1.3v.5c0 1 .8 1.5 1.7 1.5.9 0 1.5-.5 1.8-.9l.2.8h1.5V160c0-1.5-.8-2-2.2-2-.8 0-2.1.1-2.8.3l.3 1.2zm-.8.1v-1.4h-5.2v1.4h1.6v3.7h1.9v-3.7h1.7zm-9.3 1.9c0-.2.1-.4.4-.4h1.1v.6c-.3.2-.7.4-1 .4-.3 0-.5-.1-.5-.4v-.2zm-1.4-2c.9-.1 1.7-.1 2.2-.1.5 0 .7.2.7.6v.1h-1.7c-1 0-1.7.5-1.7 1.3v.5c0 1 .8 1.5 1.7 1.5.9 0 1.5-.5 1.8-.9l.2.8h1.5V160c0-1.5-.8-2-2.2-2-.8 0-2.1.1-2.8.3l.3 1.2zm-1.3-1.4H106v1.8h-1.6v-1.8h-1.9v5.2h1.9v-2.1h1.6v2.1h1.9v-5.2zm-8.7 0c-.4 0-.6.2-.7.6l-.4 1.9c-.1.3-.1.5-.1.8h-.1c0-.3 0-.5-.1-.8l-.5-1.9c-.1-.4-.3-.6-.7-.6h-1.6c-.4 0-.6.2-.7.6l-.1 4.5h1.7l.1-3.8h.1l.6 2.5c.1.4.3.6.7.6h.8c.4 0 .6-.2.7-.6l.6-2.5h.1l.1 3.8h1.7l-.1-4.5c0-.4-.2-.6-.6-.6h-1.5zm-8.6 1.2c.6 0 .8.3.8 1.4 0 1.1-.2 1.4-.8 1.4-.6 0-.8-.3-.8-1.4-.1-1.1.1-1.4.8-1.4m0-1.3c-2 0-2.8.7-2.8 2.7s.7 2.7 2.8 2.7c2 0 2.8-.7 2.8-2.7-.1-2-.8-2.7-2.8-2.7m-5.2 2.6c1.2-.2 1.1-.3 1.8-2.5h-1.9c-.4 1.7-.5 1.9-1.2 1.9h-.2c0-.2.1-.4.1-.7v-1.2H82v5.2h1.9v-1.6c0-.1 0-.3-.1-.4h.4c.6 0 .6.1 1.1 2.1h2c-.8-2.5-.8-2.6-2-2.8zm-8.6-.1H76c-.5 0-.6-.1-.6-.6 0-.4.1-.5.6-.5h.7v1.1zm-2 .6c-.3 0-.9.1-1 .6l-.4 1.6h1.9l.3-1.4c0-.2.2-.3.5-.3h.7v1.7h1.8v-5.2c-.6-.1-1.2-.1-2.6-.1-1.9 0-2.4.4-2.4 1.7.1.6.3 1.2 1.2 1.4zm-5.5.4c0-.2.1-.4.4-.4h1.1v.6c-.3.2-.7.4-1 .4-.3 0-.5-.1-.5-.4v-.2zm-1.4-2c.9-.1 1.7-.1 2.2-.1.5 0 .7.2.7.6v.1H69c-1 0-1.7.5-1.7 1.3v.5c0 1 .8 1.5 1.7 1.5.9 0 1.5-.5 1.8-.9l.2.8h1.5V160c0-1.5-.8-2-2.2-2-.8 0-2.1.1-2.8.3l.3 1.2zm-1.3-1.4h-3.1c-.9 0-1.4.5-1.4 1.3-.1.9-.2 1.7-.3 2-.1.4-.4.4-.9.5l.2 1.4c1.1.2 2.2-.1 2.4-1.4.1-.5.2-1.4.3-2.2 0-.3.2-.4.5-.4h.4v3.9h1.9v-5.1zm-6.4 5.2v-5.2h-1.6l-1.6 2.5c-.2.2-.3.5-.4.8 0-.3.1-.5.1-.8v-2.4h-1.7v5.2h1.6l1.6-2.4c.1-.2.3-.6.4-.9 0 .3-.1.6-.1.9v2.3h1.7zm-8.4-3.8c1.4-.2 1.4-.8 2.2-3.4h-2c-.6 2.2-.8 2.8-1.5 2.8h-.3c.1-.3.1-.6.1-.9v-1.9h-1.9v1.9c0 .3 0 .6.1.9H48c-.7 0-.8-.6-1.5-2.8h-2c.8 2.6.8 3.2 2.2 3.4v.1c-1.4.2-1.5.8-2.4 3.7h2c.8-2.6.9-3.1 1.6-3.1h.4c-.1.2-.1.5-.1.7v2.4h1.9v-2.4c0-.2 0-.4-.1-.7h.3c.7 0 .8.5 1.6 3.1H54c-.7-2.9-.8-3.5-2.3-3.8zM122 404.6c0-.2.1-.4.4-.4h1.1v.6c-.3.2-.7.4-1 .4-.3 0-.5-.1-.5-.4v-.2zm-1.4-2.1c.9-.1 1.7-.1 2.2-.1.5 0 .7.2.7.6v.1h-1.7c-1 0-1.7.5-1.7 1.3v.5c0 1 .8 1.5 1.7 1.5.9 0 1.5-.5 1.8-.9l.2.8h1.5V403c0-1.5-.8-2-2.2-2-.8 0-2.1.1-2.8.3l.3 1.2zm-.8.1v-1.4h-5.2v1.4h1.6v3.7h1.9v-3.7h1.7zm-9.3 2c0-.2.1-.4.4-.4h1.1v.6c-.3.2-.7.4-1 .4-.3 0-.5-.1-.5-.4v-.2zm-1.4-2.1c.9-.1 1.7-.1 2.2-.1.5 0 .7.2.7.6v.1h-1.7c-1 0-1.7.5-1.7 1.3v.5c0 1 .8 1.5 1.7 1.5.9 0 1.5-.5 1.8-.9l.2.8h1.5V403c0-1.5-.8-2-2.2-2-.8 0-2.1.1-2.8.3l.3 1.2zm-1.3-1.3H106v1.8h-1.6v-1.8h-1.9v5.2h1.9v-2.1h1.6v2.1h1.9v-5.2zm-8.7 0c-.4 0-.6.2-.7.6l-.4 1.9c-.1.3-.1.5-.1.8h-.1c0-.3 0-.5-.1-.8l-.5-1.9c-.1-.4-.3-.6-.7-.6h-1.6c-.4 0-.6.2-.7.6l-.1 4.5h1.7l.1-3.8h.1l.6 2.5c.1.4.3.6.7.6h.8c.4 0 .6-.2.7-.6l.6-2.5h.1l.1 3.8h1.7l-.1-4.5c0-.4-.2-.6-.6-.6h-1.5zm-8.6 1.2c.6 0 .8.3.8 1.4 0 1.1-.2 1.4-.8 1.4-.6 0-.8-.3-.8-1.4-.1-1.2.1-1.4.8-1.4m0-1.3c-2 0-2.8.7-2.8 2.7s.7 2.7 2.8 2.7c2 0 2.8-.7 2.8-2.7-.1-2-.8-2.7-2.8-2.7m-5.2 2.6c1.2-.2 1.1-.3 1.8-2.5h-1.9c-.4 1.7-.5 1.9-1.2 1.9h-.2c0-.2.1-.4.1-.7v-1.2H82v5.2h1.9v-1.6c0-.1 0-.3-.1-.4h.4c.6 0 .6.1 1.1 2.1h2c-.8-2.6-.8-2.6-2-2.8zm-8.6-.2H76c-.5 0-.6-.1-.6-.6 0-.4.1-.5.6-.5h.7v1.1zm-2 .7c-.3 0-.9.1-1 .6l-.4 1.6h1.9l.3-1.4c0-.2.2-.3.5-.3h.7v1.7h1.8v-5.2c-.6-.1-1.2-.1-2.6-.1-1.9 0-2.4.4-2.4 1.7.1.6.3 1.2 1.2 1.4zm-5.5.4c0-.2.1-.4.4-.4h1.1v.6c-.3.2-.7.4-1 .4-.3 0-.5-.1-.5-.4v-.2zm-1.4-2.1c.9-.1 1.7-.1 2.2-.1.5 0 .7.2.7.6v.1H69c-1 0-1.7.5-1.7 1.3v.5c0 1 .8 1.5 1.7 1.5.9 0 1.5-.5 1.8-.9l.2.8h1.5V403c0-1.5-.8-2-2.2-2-.8 0-2.1.1-2.8.3l.3 1.2zm-1.3-1.3h-3.1c-.9 0-1.4.5-1.4 1.3-.1.9-.2 1.7-.3 2-.1.4-.4.4-.9.5l.2 1.4c1.1.2 2.2-.1 2.4-1.4.1-.5.2-1.4.3-2.2 0-.3.2-.4.5-.4h.4v3.9h1.9v-5.1zm-6.4 5.2v-5.2h-1.6l-1.6 2.5c-.2.2-.3.5-.4.8 0-.3.1-.5.1-.8v-2.4h-1.7v5.2h1.6l1.6-2.4c.1-.2.3-.6.4-.9 0 .3-.1.6-.1.9v2.3h1.7zm-8.4-3.8c1.4-.2 1.4-.8 2.2-3.4h-2c-.6 2.2-.8 2.8-1.5 2.8h-.3c.1-.3.1-.6.1-.9v-1.9h-1.9v1.9c0 .3 0 .6.1.9H48c-.7 0-.8-.6-1.5-2.8h-2c.8 2.6.8 3.2 2.2 3.4v.1c-1.4.2-1.5.8-2.4 3.7h2c.8-2.6.9-3.1 1.6-3.1h.4c-.1.2-.1.5-.1.7v2.4h1.9V404c0-.2 0-.4-.1-.7h.3c.7 0 .8.5 1.6 3.1H54c-.7-3-.8-3.5-2.3-3.8zm172 6.7c0-.2.1-.4.4-.4h1.1v.6c-.3.2-.7.4-1 .4-.3 0-.5-.1-.5-.4v-.2zm-1.4-2.1c.9-.1 1.7-.1 2.2-.1.5 0 .7.2.7.6v.1h-1.7c-1 0-1.7.5-1.7 1.3v.5c0 1 .8 1.5 1.7 1.5.9 0 1.5-.5 1.8-.9l.2.8h1.5v-3.3c0-1.5-.8-2-2.2-2-.8 0-2.1.1-2.8.3l.3 1.2zm-.8.1v-1.4h-5.2v1.4h1.6v3.7h1.9v-3.7h1.7zm-9.3 2c0-.2.1-.4.4-.4h1.1v.6c-.3.2-.7.4-1 .4-.3 0-.5-.1-.5-.4v-.2zm-1.4-2.1c.9-.1 1.7-.1 2.2-.1.5 0 .7.2.7.6v.1H212c-1 0-1.7.5-1.7 1.3v.5c0 1 .8 1.5 1.7 1.5.9 0 1.5-.5 1.8-.9l.2.8h1.5v-3.3c0-1.5-.8-2-2.2-2-.8 0-2.1.1-2.8.3l.3 1.2zm-1.3-1.3h-1.9v1.8H206v-1.8h-1.9v5.2h1.9V409h1.6v2.1h1.9v-5.2zm-8.7 0c-.4 0-.6.2-.7.6l-.4 1.9c-.1.3-.1.5-.1.8h-.1c0-.3 0-.5-.1-.8l-.5-1.9c-.1-.4-.3-.6-.7-.6h-1.6c-.4 0-.6.2-.7.6l-.1 4.5h1.7l.1-3.8h.1l.6 2.5c.1.4.3.6.7.6h.8c.4 0 .6-.2.7-.6l.6-2.5h.1l.1 3.8h1.7l-.1-4.5c0-.4-.2-.6-.6-.6h-1.5zm-8.6 1.2c.6 0 .8.3.8 1.4 0 1.1-.2 1.4-.8 1.4-.6 0-.8-.3-.8-1.4 0-1.2.1-1.4.8-1.4m0-1.3c-2 0-2.8.7-2.8 2.7s.7 2.7 2.8 2.7c2 0 2.8-.7 2.8-2.7-.1-2-.8-2.7-2.8-2.7m-5.2 2.6c1.2-.2 1.1-.3 1.8-2.5h-1.9c-.4 1.7-.5 1.9-1.2 1.9h-.2c0-.2.1-.4.1-.7v-1.2h-1.9v5.2h1.9v-1.6c0-.1 0-.3-.1-.4h.4c.6 0 .6.1 1.1 2.1h2c-.8-2.6-.8-2.6-2-2.8zm-8.6-.2h-.7c-.5 0-.6-.1-.6-.6 0-.4.1-.5.6-.5h.7v1.1zm-2 .7c-.3 0-.9.1-1 .6l-.4 1.6h1.9l.3-1.4c0-.2.2-.3.5-.3h.7v1.7h1.8v-5.2c-.6-.1-1.2-.1-2.6-.1-1.9 0-2.4.4-2.4 1.7.1.6.3 1.2 1.2 1.4zm-5.5.4c0-.2.1-.4.4-.4h1.1v.6c-.3.2-.7.4-1 .4-.3 0-.5-.1-.5-.4v-.2zm-1.4-2.1c.9-.1 1.7-.1 2.2-.1.5 0 .7.2.7.6v.1h-1.7c-1 0-1.7.5-1.7 1.3v.5c0 1 .8 1.5 1.7 1.5.9 0 1.5-.5 1.8-.9l.2.8h1.5v-3.3c0-1.5-.8-2-2.2-2-.8 0-2.1.1-2.8.3l.3 1.2zm-1.3-1.3h-3.1c-.9 0-1.4.5-1.4 1.3-.1.9-.2 1.7-.3 2-.1.4-.4.4-.9.5l.2 1.4c1.1.2 2.2-.1 2.4-1.4.1-.5.2-1.4.3-2.2 0-.3.2-.4.5-.4h.4v3.9h1.9v-5.1zm-6.3 5.2v-5.2h-1.6l-1.6 2.5c-.2.2-.3.5-.4.8 0-.3.1-.5.1-.8V406h-1.7v5.2h1.6l1.6-2.4c.1-.2.3-.6.4-.9 0 .3-.1.6-.1.9v2.3h1.7zm-8.5-3.8c1.4-.2 1.4-.8 2.2-3.4h-2c-.6 2.2-.8 2.8-1.5 2.8h-.3c.1-.3.1-.6.1-.9v-1.9H150v1.9c0 .3 0 .6.1.9h-.4c-.7 0-.8-.6-1.5-2.8h-2c.8 2.6.8 3.2 2.2 3.4v.1c-1.4.2-1.5.8-2.4 3.7h2c.8-2.6.9-3.1 1.6-3.1h.4c-.1.2-.1.5-.1.7v2.4h1.9v-2.4c0-.2 0-.4-.1-.7h.3c.7 0 .8.5 1.6 3.1h2.1c-.7-3-.8-3.5-2.3-3.8zm349.8 11.4h-.9v-3h-1.5l-.3 1.1v1.8h-1.4c-.2 0-.3-.1-.2-.3l1.6-4.1h-1.8l-1.8 4.6c-.2.6.2 1.1.8 1.1h2.9v1.5h1.8V420l.8-.2v-1.1zm-8.1 1.1c-.5 0-.7.2-.7.7v.5c0 .5.2.7.7.7h.4c.5 0 .7-.2.7-.7v-.5c0-.5-.2-.7-.7-.7h-.4zm-4.3-1.3c.8 0 1 .2 1 .9s-.2.9-1 .9-1-.2-1-.9.2-.9 1-.9m0-2.9c.7 0 .9.2.9.9 0 .6-.1.8-.9.8-.7 0-.9-.1-.9-.8 0-.8.2-.9.9-.9m-1.6 2.3c-1 .1-1.3 1-1.3 1.9 0 1.4.6 1.9 2.8 1.9 2.3 0 2.8-.5 2.8-1.9 0-1-.2-1.8-1.3-1.9.8-.1 1.1-.9 1.1-1.6 0-1.3-.5-1.9-2.6-1.9-2.2 0-2.6.6-2.6 1.9 0 .6.4 1.4 1.1 1.6zm-2.5 3.7v-7.2h-1.9l-1.8.7.2 1.2 1.7-.4c-.1.3-.1.6-.1.9v4.8h1.9zm43.3-12.3c0-.2.1-.4.4-.4h1.1v.6c-.3.2-.7.4-1 .4-.3 0-.5-.1-.5-.4v-.2zm-1.4-2.1c.9-.1 1.7-.1 2.2-.1.5 0 .7.2.7.6v.1h-1.7c-1 0-1.7.5-1.7 1.3v.5c0 1 .8 1.5 1.7 1.5.9 0 1.5-.5 1.8-.9l.2.8h1.5v-3.3c0-1.5-.8-2-2.2-2-.8 0-2.1.1-2.8.3l.3 1.2zm-.8.1v-1.4h-5.2v1.4h1.6v3.7h1.9v-3.7h1.7zm-9.3 2c0-.2.1-.4.4-.4h1.1v.6c-.3.2-.7.4-1 .4-.3 0-.5-.1-.5-.4v-.2zm-1.4-2.1c.9-.1 1.7-.1 2.2-.1.5 0 .7.2.7.6v.1h-1.7c-1 0-1.7.5-1.7 1.3v.5c0 1 .8 1.5 1.7 1.5.9 0 1.5-.5 1.8-.9l.2.8h1.5v-3.3c0-1.5-.8-2-2.2-2-.8 0-2.1.1-2.8.3l.3 1.2zm-1.3-1.3H514v1.8h-1.6v-1.8h-1.9v5.2h1.9V409h1.6v2.1h1.9v-5.2zm-8.7 0c-.4 0-.6.2-.7.6l-.4 1.9c-.1.3-.1.5-.1.8h-.1c0-.3 0-.5-.1-.8l-.5-1.9c-.1-.4-.3-.6-.7-.6h-1.6c-.4 0-.6.2-.7.6l-.1 4.5h1.7l.1-3.8h.1l.6 2.5c.1.4.3.6.7.6h.8c.4 0 .6-.2.7-.6l.6-2.5h.1l.1 3.8h1.7l-.1-4.5c0-.4-.2-.6-.6-.6h-1.5zm-8.6 1.2c.6 0 .8.3.8 1.4 0 1.1-.2 1.4-.8 1.4-.6 0-.8-.3-.8-1.4-.1-1.2.1-1.4.8-1.4m0-1.3c-2 0-2.8.7-2.8 2.7s.7 2.7 2.8 2.7c2 0 2.8-.7 2.8-2.7-.1-2-.8-2.7-2.8-2.7m-5.2 2.6c1.2-.2 1.1-.3 1.8-2.5h-1.9c-.4 1.7-.5 1.9-1.2 1.9h-.2c0-.2.1-.4.1-.7v-1.2H490v5.2h1.9v-1.6c0-.1 0-.3-.1-.4h.4c.6 0 .6.1 1.1 2.1h2c-.8-2.6-.8-2.6-2-2.8zm-8.6-.2h-.7c-.5 0-.6-.1-.6-.6 0-.4.1-.5.6-.5h.7v1.1zm-2 .7c-.3 0-.9.1-1 .6l-.4 1.6h1.9l.3-1.4c0-.2.2-.3.5-.3h.7v1.7h1.8v-5.2c-.6-.1-1.2-.1-2.6-.1-1.9 0-2.4.4-2.4 1.7.1.6.3 1.2 1.2 1.4zm-5.5.4c0-.2.1-.4.4-.4h1.1v.6c-.3.2-.7.4-1 .4-.3 0-.5-.1-.5-.4v-.2zm-1.4-2.1c.9-.1 1.7-.1 2.2-.1.5 0 .7.2.7.6v.1H477c-1 0-1.7.5-1.7 1.3v.5c0 1 .8 1.5 1.7 1.5.9 0 1.5-.5 1.8-.9l.2.8h1.5v-3.3c0-1.5-.8-2-2.2-2-.8 0-2.1.1-2.8.3l.3 1.2zm-1.3-1.3h-3.1c-.9 0-1.4.5-1.4 1.3-.1.9-.2 1.7-.3 2-.1.4-.4.4-.9.5l.2 1.4c1.1.2 2.2-.1 2.4-1.4.1-.5.2-1.4.3-2.2 0-.3.2-.4.5-.4h.4v3.9h1.9v-5.1zm-6.4 5.2v-5.2h-1.6l-1.6 2.5c-.2.2-.3.5-.4.8 0-.3.1-.5.1-.8V406h-1.7v5.2h1.6l1.6-2.4c.1-.2.3-.6.4-.9 0 .3-.1.6-.1.9v2.3h1.7zm-8.4-3.8c1.4-.2 1.4-.8 2.2-3.4h-2c-.6 2.2-.8 2.8-1.5 2.8h-.3c.1-.3.1-.6.1-.9v-1.9h-1.9v1.9c0 .3 0 .6.1.9h-.4c-.7 0-.8-.6-1.5-2.8h-2c.8 2.6.8 3.2 2.2 3.4v.1c-1.4.2-1.5.8-2.4 3.7h2c.8-2.6.9-3.1 1.6-3.1h.4c-.1.2-.1.5-.1.7v2.4h1.9v-2.4c0-.2 0-.4-.1-.7h.3c.7 0 .8.5 1.6 3.1h2.1c-.7-3-.8-3.5-2.3-3.8zm146.1 11.4h-.8v-3h-1.5l-.3 1.1v1.8h-1.4c-.2 0-.3-.1-.2-.3l1.6-4.1h-1.8l-1.8 4.6c-.2.6.2 1.1.8 1.1h2.9v1.5h1.8V420l.8-.2v-1.1zm-8 1.1c-.5 0-.7.2-.7.7v.5c0 .5.2.7.7.7h.4c.5 0 .7-.2.7-.7v-.5c0-.5-.2-.7-.7-.7h-.4zm-4.4-1.3c.8 0 1 .2 1 .9s-.2.9-1 .9-1-.2-1-.9.2-.9 1-.9m0-2.9c.7 0 .9.2.9.9 0 .6-.1.8-.9.8-.7 0-.9-.1-.9-.8 0-.8.2-.9.9-.9m-1.5 2.3c-1 .1-1.3 1-1.3 1.9 0 1.4.6 1.9 2.8 1.9 2.3 0 2.8-.5 2.8-1.9 0-1-.2-1.8-1.3-1.9.8-.1 1.1-.9 1.1-1.6 0-1.3-.5-1.9-2.6-1.9-2.2 0-2.6.6-2.6 1.9 0 .6.3 1.4 1.1 1.6zm-2.6 3.7v-7.2h-1.9l-1.8.7.2 1.2 1.7-.4c-.1.3-.1.6-.1.9v4.8h1.9zm43.3-12.3c0-.2.1-.4.4-.4h1.1v.6c-.3.2-.7.4-1 .4-.3 0-.5-.1-.5-.4v-.2zm-1.4-2.1c.9-.1 1.7-.1 2.2-.1.5 0 .7.2.7.6v.1h-1.7c-1 0-1.7.5-1.7 1.3v.5c0 1 .8 1.5 1.7 1.5.9 0 1.5-.5 1.8-.9l.2.8h1.5v-3.3c0-1.5-.8-2-2.2-2-.8 0-2.1.1-2.8.3l.3 1.2zm-.8.1v-1.4h-5.2v1.4h1.6v3.7h1.9v-3.7h1.7zm-9.3 2c0-.2.1-.4.4-.4h1.1v.6c-.3.2-.7.4-1 .4-.3 0-.5-.1-.5-.4v-.2zm-1.4-2.1c.9-.1 1.7-.1 2.2-.1.5 0 .7.2.7.6v.1h-1.7c-1 0-1.7.5-1.7 1.3v.5c0 1 .8 1.5 1.7 1.5.9 0 1.5-.5 1.8-.9l.2.8h1.5v-3.3c0-1.5-.8-2-2.2-2-.8 0-2.1.1-2.8.3l.3 1.2zm-1.3-1.3h-1.9v1.8H615v-1.8h-1.9v5.2h1.9V409h1.6v2.1h1.9v-5.2zm-8.7 0c-.4 0-.6.2-.7.6l-.4 1.9c-.1.3-.1.5-.1.8h-.1c0-.3 0-.5-.1-.8l-.5-1.9c-.1-.4-.3-.6-.7-.6h-1.6c-.4 0-.6.2-.7.6l-.1 4.5h1.7l.1-3.8h.1l.6 2.5c.1.4.3.6.7.6h.8c.4 0 .6-.2.7-.6l.6-2.5h.1l.1 3.8h1.7l-.1-4.5c0-.4-.2-.6-.6-.6h-1.5zm-8.6 1.2c.6 0 .8.3.8 1.4 0 1.1-.2 1.4-.8 1.4-.6 0-.8-.3-.8-1.4 0-1.2.1-1.4.8-1.4m0-1.3c-2 0-2.8.7-2.8 2.7s.7 2.7 2.8 2.7c2 0 2.8-.7 2.8-2.7-.1-2-.8-2.7-2.8-2.7m-5.2 2.6c1.2-.2 1.1-.3 1.8-2.5h-1.9c-.4 1.7-.5 1.9-1.2 1.9h-.2c0-.2.1-.4.1-.7v-1.2h-1.9v5.2h1.9v-1.6c0-.1 0-.3-.1-.4h.4c.6 0 .6.1 1.1 2.1h2c-.8-2.6-.8-2.6-2-2.8zm-8.6-.2h-.7c-.5 0-.6-.1-.6-.6 0-.4.1-.5.6-.5h.7v1.1zm-2 .7c-.3 0-.9.1-1 .6l-.4 1.6h1.9l.3-1.4c0-.2.2-.3.5-.3h.7v1.7h1.8v-5.2c-.6-.1-1.2-.1-2.6-.1-1.9 0-2.4.4-2.4 1.7.1.6.3 1.2 1.2 1.4zm-5.5.4c0-.2.1-.4.4-.4h1.1v.6c-.3.2-.7.4-1 .4-.3 0-.5-.1-.5-.4v-.2zm-1.4-2.1c.9-.1 1.7-.1 2.2-.1.5 0 .7.2.7.6v.1h-1.7c-1 0-1.7.5-1.7 1.3v.5c0 1 .8 1.5 1.7 1.5.9 0 1.5-.5 1.8-.9l.2.8h1.5v-3.3c0-1.5-.8-2-2.2-2-.8 0-2.1.1-2.8.3l.3 1.2zm-1.3-1.3H574c-.9 0-1.4.5-1.4 1.3-.1.9-.2 1.7-.3 2-.1.4-.4.4-.9.5l.2 1.4c1.1.2 2.2-.1 2.4-1.4.1-.5.2-1.4.3-2.2 0-.3.2-.4.5-.4h.4v3.9h1.9v-5.1zm-6.3 5.2v-5.2h-1.6l-1.6 2.5c-.2.2-.3.5-.4.8 0-.3.1-.5.1-.8V406h-1.7v5.2h1.6l1.6-2.4c.1-.2.3-.6.4-.9 0 .3-.1.6-.1.9v2.3h1.7zm-8.5-3.8c1.4-.2 1.4-.8 2.2-3.4h-2c-.6 2.2-.8 2.8-1.5 2.8h-.3c.1-.3.1-.6.1-.9v-1.9H559v1.9c0 .3 0 .6.1.9h-.4c-.7 0-.8-.6-1.5-2.8h-2c.8 2.6.8 3.2 2.2 3.4v.1c-1.4.2-1.5.8-2.4 3.7h2c.8-2.6.9-3.1 1.6-3.1h.4c-.1.2-.1.5-.1.7v2.4h1.9v-2.4c0-.2 0-.4-.1-.7h.3c.7 0 .8.5 1.6 3.1h2c-.7-3-.8-3.5-2.3-3.8zM557 275v-4.3h-1.2l-1.1.4.1.7 1-.2v3.4h1.2zm-3-1.1c-.3 0-.4.1-.4.4v.3c0 .3.1.4.4.4h.3c.3 0 .4-.1.4-.4v-.3c0-.3-.1-.4-.4-.4h-.3zm-3.9-2.4h1.2c.4 0 .6.1.6.4 0 .3 0 .5-.5.5h-.8v.8h.8c.5 0 .6.1.6.5s-.2.5-.7.5h-1.2v.8c.5.1 1 .1 1.5.1 1.1 0 1.6-.4 1.5-1.3 0-.7-.2-1-.8-1.1.6-.1.7-.5.7-1.1 0-.8-.4-1-1.5-1-.5 0-1 0-1.4.1v.8zm14.8-6.1c.2-.1.3-.2.6-.2s.4.1.4.8c0 .7-.1.8-.4.8-.2 0-.4-.1-.5-.1v-1.3zm-.2-1h-.9v4.3h1.1v-1.4c.3.2.6.3 1 .3.8 0 1.2-.3 1.2-1.6 0-1.1-.3-1.7-1.1-1.7-.5 0-1 .2-1.2.5l-.1-.4zm-3.2.7c.4 0 .5.2.5.8 0 .7-.1.8-.5.8s-.5-.1-.5-.8c.1-.6.2-.8.5-.8m0-.8c-1.2 0-1.7.4-1.7 1.6 0 1.2.4 1.6 1.7 1.6 1.2 0 1.7-.4 1.7-1.6 0-1.1-.4-1.6-1.7-1.6m-3.5 2.5h-.9c.2-.4.3-.8.4-1.4 0-.2.1-.3.3-.3h.3v1.7zm1.6 0h-.6v-2.3h-1.7c-.6 0-.8.3-.9.8-.1.5-.2 1.1-.4 1.6h-.4v1.6h.7l.1-.9h2.2l.1.9h.8v-1.7zm-4.3.7v-3.1h-1l-1 1.5c-.1.1-.2.3-.2.5v-2h-1v3.1h1l1-1.4c.1-.1.2-.4.3-.5v1.9h.9zm-5.9-2.1c.2-.1.3-.2.6-.2s.4.1.4.8c0 .7-.1.8-.4.8-.2 0-.4-.1-.5-.1v-1.3zm-.3-1h-.9v4.3h1.1v-1.4c.3.2.6.3 1 .3.8 0 1.2-.3 1.2-1.6 0-1.1-.3-1.7-1.1-1.7-.5 0-1 .2-1.2.5l-.1-.4zm-3.1.7c.4 0 .5.2.5.8 0 .7-.1.8-.5.8s-.5-.1-.5-.8c0-.6.1-.8.5-.8m0-.8c-1.2 0-1.7.4-1.7 1.6 0 1.2.4 1.6 1.7 1.6 1.2 0 1.7-.4 1.7-1.6 0-1.1-.5-1.6-1.7-1.6m-3.4.9c.9-.1.9-.5 1.4-2h-1.2c-.3 1.3-.4 1.7-1 1.7h-.2c0-.2.1-.4.1-.5v-1.1h-1.2v4.3h1.2v-1.4c0-.1 0-.3-.1-.4h.2c.6 0 .6.3 1.1 1.8h1.2c-.5-1.9-.6-2.2-1.5-2.4zm-42 11.6c0-.9.1-1.2.8-1.2.8 0 .9.3.9 1.9-.3.2-.6.3-.9.3-.7 0-.8-.2-.8-1m-1.6 4.6c.8.2 1.6.2 2 .2 2.3 0 3.1-.5 3.1-3.8 0-2.9-.5-3.6-2.7-3.6-2.1 0-2.7.8-2.7 2.6 0 1.3.5 2.2 2.1 2.2.6 0 1.1-.1 1.5-.4-.1 1.2-.3 1.6-1.3 1.6h-1.9l-.1 1.2zm-2.1-1.6c-.5 0-.7.2-.7.7v.5c0 .5.2.7.7.7h.4c.5 0 .7-.2.7-.7v-.5c0-.5-.2-.7-.7-.7h-.4zm-4.1.4c-.8 0-.9-.3-.9-1.9.3-.2.6-.3.9-.3.7 0 .8.2.8.9 0 1 0 1.3-.8 1.3m2.2-5.8c-.7-.2-1.5-.2-1.9-.2-2.1 0-3.1.5-3.1 3.8 0 2.9.6 3.6 2.8 3.6 2.2 0 2.7-.8 2.7-2.6 0-1.6-.5-2.2-2.1-2.2-.6 0-1.1.1-1.5.4.1-1.3.3-1.6 1.2-1.6h1.8l.1-1.2zm26.3-6.2h-.7c-.5 0-.6-.1-.6-.6 0-.4.1-.5.6-.5h.7v1.1zm-2 .6c-.3 0-.9.1-1 .6l-.4 1.6h1.9l.3-1.4c0-.2.2-.3.5-.3h.7v1.7h1.8v-5.2c-.6-.1-1.2-.1-2.6-.1-1.9 0-2.4.4-2.4 1.7 0 .6.3 1.2 1.2 1.4zm-5.6.4c0-.2.1-.4.4-.4h1.1v.6c-.3.2-.7.4-1 .4-.3 0-.5-.1-.5-.4v-.2zm-1.4-2c.9-.1 1.7-.1 2.2-.1.5 0 .7.2.7.6v.1h-1.7c-1 0-1.7.5-1.7 1.3v.5c0 1 .8 1.5 1.7 1.5.9 0 1.5-.5 1.8-.9l.2.8h1.5v-3.3c0-1.5-.8-2-2.2-2-.8 0-2.1.1-2.8.3l.3 1.2zm-2.9 1.1c1.2-.2 1.2-.3 1.8-2.4h-1.9c-.5 1.7-.6 1.9-1.1 1.9h-.2c0-.2.1-.4.1-.6V266h-1.6v1.2c0 .2 0 .4.1.6h-.3c-.5 0-.6-.2-1.1-1.9h-1.9c.7 2.1.6 2.3 1.8 2.4v.1c-1.2.2-1.3.3-2 2.7h1.9c.7-2 .7-2.1 1.1-2.1h.4c0 .2-.1.3-.1.4v1.6h1.7v-1.6c0-.1 0-.3-.1-.4h.4c.5 0 .5.1 1.2 2.1h1.9c-.8-2.5-.8-2.6-2.1-2.8zm-9.6-1.3c.6 0 .8.3.8 1.4 0 1.1-.2 1.4-.8 1.4-.6 0-.8-.3-.8-1.4 0-1.1.1-1.4.8-1.4m0-1.3c-2 0-2.8.7-2.8 2.7s.7 2.7 2.8 2.7c2 0 2.8-.7 2.8-2.7 0-1.9-.8-2.7-2.8-2.7m-4.9 5.3h1.9l-1.5-2.6 1.4-2.5h-1.9l-1 1.9-1-1.9h-1.9l1.4 2.5-1.5 2.6h1.9l1.1-2.1 1.1 2.1zm-4.8 0v-5.2h-1.6l-1.6 2.5c-.2.2-.3.5-.4.8 0-.3.1-.5.1-.8v-2.4h-1.7v5.2h1.6l1.6-2.4c.1-.2.3-.6.4-.9 0 .3-.1.6-.1.9v2.3h1.7zm-9.8-3.5c.3-.2.6-.3 1-.3.5 0 .7.2.7 1.4s-.2 1.4-.7 1.4c-.4 0-.6-.1-.9-.2v-2.3zm-.4-1.6h-1.5v7.1h1.9v-2.2c.4.3 1 .5 1.7.5 1.3 0 2-.6 2-2.7 0-1.8-.5-2.8-1.8-2.8-.8 0-1.6.4-2 .9l-.3-.8zm-2.7-2h-6v7.2h1.9v-5.9h2.1v5.9h2v-7.2zm-290.4 12.9c0-.9.1-1.2.8-1.2.8 0 .9.3.9 1.9-.3.2-.6.3-.9.3-.6 0-.8-.2-.8-1m-1.5 4.6c.8.2 1.6.2 2 .2 2.3 0 3.1-.5 3.1-3.8 0-2.9-.5-3.6-2.7-3.6-2.1 0-2.7.8-2.7 2.6 0 1.3.5 2.2 2.1 2.2.6 0 1.1-.1 1.5-.4-.1 1.2-.3 1.6-1.3 1.6h-1.9l-.1 1.2zm-2.2-1.6c-.5 0-.7.2-.7.7v.5c0 .5.2.7.7.7h.4c.5 0 .7-.2.7-.7v-.5c0-.5-.2-.7-.7-.7h-.4zm-4.1.4c-.8 0-.9-.3-.9-1.9.3-.2.6-.3.9-.3.7 0 .8.2.8.9 0 1 0 1.3-.8 1.3m2.2-5.8c-.7-.2-1.5-.2-1.9-.2-2.1 0-3.1.5-3.1 3.8 0 2.9.6 3.6 2.8 3.6 2.2 0 2.7-.8 2.7-2.6 0-1.6-.5-2.2-2.1-2.2-.6 0-1.1.1-1.5.4.1-1.3.3-1.6 1.2-1.6h1.8l.1-1.2zm26.3-6.2h-.7c-.5 0-.6-.1-.6-.6 0-.4.1-.5.6-.5h.7v1.1zm-2 .6c-.3 0-.9.1-1 .6l-.4 1.6h1.9l.3-1.4c0-.2.2-.3.5-.3h.7v1.7h1.8v-5.2c-.6-.1-1.2-.1-2.6-.1-1.9 0-2.4.4-2.4 1.7 0 .6.3 1.2 1.2 1.4zm-5.5.4c0-.2.1-.4.4-.4h1.1v.6c-.3.2-.7.4-1 .4-.3 0-.5-.1-.5-.4v-.2zm-1.4-2c.9-.1 1.7-.1 2.2-.1.5 0 .7.2.7.6v.1h-1.7c-1 0-1.7.5-1.7 1.3v.5c0 1 .8 1.5 1.7 1.5.9 0 1.5-.5 1.8-.9l.2.8h1.5v-3.3c0-1.5-.8-2-2.2-2-.8 0-2.1.1-2.8.3l.3 1.2zm-2.9 1.1c1.2-.2 1.2-.3 1.8-2.4h-1.9c-.5 1.7-.6 1.9-1.1 1.9h-.3c0-.2.1-.4.1-.6V266h-1.6v1.2c0 .2 0 .4.1.6h-.3c-.5 0-.6-.2-1.1-1.9h-1.9c.7 2.1.6 2.3 1.8 2.4v.1c-1.2.2-1.3.3-2 2.7h1.9c.7-2 .7-2.1 1.1-2.1h.4c0 .2-.1.3-.1.4v1.6h1.7v-1.6c0-.1 0-.3-.1-.4h.4c.5 0 .5.1 1.2 2.1h1.9c-.8-2.5-.8-2.6-2-2.8zM186 267c.6 0 .8.3.8 1.4 0 1.1-.2 1.4-.8 1.4-.6 0-.8-.3-.8-1.4 0-1.1.2-1.4.8-1.4m0-1.3c-2 0-2.8.7-2.8 2.7s.7 2.7 2.8 2.7c2 0 2.8-.7 2.8-2.7 0-1.9-.8-2.7-2.8-2.7m-4.9 5.3h1.9l-1.5-2.6 1.4-2.5H181l-1 1.9-1-1.9h-1.9l1.4 2.5-1.5 2.6h1.9l1.1-2.1 1.1 2.1zm-4.8 0v-5.2h-1.6l-1.6 2.5c-.2.2-.3.5-.4.8 0-.3.1-.5.1-.8v-2.4H171v5.2h1.6l1.6-2.4c.1-.2.3-.6.4-.9 0 .3-.1.6-.1.9v2.3h1.8zm-9.8-3.5c.3-.2.6-.3 1-.3.5 0 .7.2.7 1.4s-.2 1.4-.7 1.4c-.4 0-.6-.1-.9-.2v-2.3zm-.4-1.6h-1.5v7.1h1.9v-2.2c.4.3 1 .5 1.7.5 1.3 0 2-.6 2-2.7 0-1.8-.5-2.8-1.8-2.8-.8 0-1.6.4-2 .9l-.3-.8zm-2.7-2h-6v7.2h1.9v-5.9h2.1v5.9h2v-7.2zm191.4-79v-7.2h-1.9l-1.8.7.2 1.2 1.7-.4c-.1.3-.1.6-.1.9v4.8h1.9zm-4.9-1.7c-.5 0-.7.2-.7.7v.5c0 .5.2.7.7.7h.4c.5 0 .7-.2.7-.7v-.5c0-.5-.2-.7-.7-.7h-.4zm-4.4-1.4c.8 0 1 .2 1 .9s-.2.9-1 .9-1-.2-1-.9.2-.9 1-.9m0-2.9c.7 0 .9.2.9.9 0 .6-.1.8-.9.8-.7 0-.9-.1-.9-.8 0-.7.2-.9.9-.9m-1.5 2.3c-1 .1-1.3 1-1.3 1.9 0 1.4.6 1.9 2.8 1.9 2.3 0 2.8-.5 2.8-1.9 0-1-.2-1.8-1.3-1.9.8-.1 1.1-.9 1.1-1.6 0-1.3-.5-1.9-2.6-1.9-2.2 0-2.6.6-2.6 1.9 0 .7.3 1.5 1.1 1.6zm-2.6 3.7v-7.2h-1.9l-1.8.7.2 1.2 1.7-.4c-.1.3-.1.6-.1.9v4.8h1.9zm17.1-15.6h-3.1c-.9 0-1.4.5-1.4 1.3-.1.9-.2 1.7-.3 2-.1.4-.4.4-.9.5l.2 1.4c1.1.2 2.2-.1 2.4-1.4.1-.5.2-1.4.3-2.2 0-.3.2-.4.5-.4h.4v3.9h1.9v-5.1zm-6.4 0H349c-.9 0-1.4.5-1.4 1.3-.1.9-.2 1.7-.3 2-.1.4-.4.4-.9.5l.2 1.4c1.1.2 2.2-.1 2.4-1.4.1-.5.2-1.4.3-2.2 0-.3.2-.4.5-.4h.4v3.9h1.9v-5.1zm-8.8 1.1c.6 0 .8.3.8 1.4 0 1.1-.2 1.4-.8 1.4-.6 0-.8-.3-.8-1.4 0-1.1.2-1.4.8-1.4m0-1.3c-2 0-2.8.7-2.8 2.7s.7 2.7 2.8 2.7c2 0 2.8-.7 2.8-2.7 0-1.9-.8-2.7-2.8-2.7m-4.9 5.3h1.9l-1.5-2.6 1.4-2.5h-1.9l-1 1.9-1-1.9h-1.9l1.4 2.5-1.5 2.6h1.9l1.1-2.1 1.1 2.1zm34.8-10.4v-5.2h-1.6l-1.6 2.5c-.2.2-.3.5-.4.8 0-.3.1-.5.1-.8v-2.4H368v5.2h1.6l1.6-2.4c.1-.2.3-.6.4-.9 0 .3-.1.6-.1.9v2.3h1.7zm-2-7.5c.1.6-.2.8-.6.8-.4 0-.7-.2-.6-.8h-1.2c-.1.9.6 1.7 1.8 1.7 1.2 0 1.9-.8 1.8-1.7h-1.2zm-10 6.3v-1.2h.5c.5 0 .6.1.6.6s-.1.6-.6.6h-.5zm5.6-4h-1.9v5.2h1.9v-5.2zm-5.6 1.7v-1.7h-1.8v5.2h.1c.8.1 1.4.1 2.6.1 1.5 0 2.2-.4 2.2-1.8s-.6-1.8-2.5-1.8h-.6zm-6.1 2.3v-1h.9c.5 0 .7.1.7.5s-.2.5-.7.5h-.9zm0-2v-.9h.8c.5 0 .7.1.7.4s-.1.4-.6.4h-.9zm2.1.5c.8-.1 1.1-.4 1.1-1.2 0-1.1-.6-1.4-2.3-1.4-1.2 0-1.9 0-2.7.1v5.2c.9.1 1.7.1 3 .1 1.5 0 2.2-.3 2.2-1.4.1-.9-.3-1.3-1.3-1.4zm-7.5-1.3c.6 0 .8.3.8 1.4 0 1.1-.2 1.4-.8 1.4-.6 0-.8-.3-.8-1.4 0-1.2.1-1.4.8-1.4m0-1.4c-2 0-2.8.7-2.8 2.7s.7 2.7 2.8 2.7c2 0 2.8-.7 2.8-2.7-.1-1.9-.8-2.7-2.8-2.7m-3.3 1.6v-1.4h-5.2v1.4h1.6v3.7h1.9v-3.7h1.7zm-10.1 2.6c-.9-.1-1.1-.5-1.1-1.4 0-1 .2-1.3 1.1-1.4v2.8zm1.6-2.9c.9.1 1.1.5 1.1 1.4 0 .9-.3 1.3-1.1 1.4v-2.8zm.1-3.2h-1.7v2c-2 .2-2.8.9-2.8 2.7 0 1.8.8 2.5 2.8 2.7v1.8h1.7V164c2-.1 2.8-.9 2.8-2.7 0-1.8-.8-2.5-2.8-2.7v-1.9zm-5.4 7.3v-5.2H331l-1.6 2.5c-.2.2-.3.5-.4.8 0-.3.1-.5.1-.8v-2.4h-1.7v5.2h1.6l1.6-2.4c.1-.2.3-.6.4-.9 0 .3-.1.6-.1.9v2.3h1.7zm-6.6-7.2h-3.3c-1.1 0-1.7.6-1.8 1.7-.1 1.7-.3 2.7-.5 3.3-.2.5-.5.6-1 .7l.1 1.5c1.3.2 2.2-.2 2.7-1.7.3-.9.4-2.2.6-3.7 0-.4.2-.5.6-.5h.7v5.9h2v-7.2zm17.3 122.4c.8 0 1 .3 1 2.2 0 1.9-.2 2.2-1 2.2s-1-.3-1-2.2c0-1.8.3-2.2 1-2.2m0-1.5c-2.2 0-2.9.9-2.9 3.7 0 2.8.7 3.7 2.9 3.7s2.9-.9 2.9-3.7c.1-2.7-.7-3.7-2.9-3.7m-4.8 5.6c-.5 0-.7.2-.7.7v.5c0 .5.2.7.7.7h.4c.5 0 .7-.2.7-.7v-.5c0-.5-.2-.7-.7-.7h-.4zm-6.7-3.9c1-.1 1.5-.1 2.2-.1.6 0 .8 0 .8.3 0 .4-.5 1.1-1.3 1.9l-1.6 1.7c-.2.2-.3.5-.3.8v1h5.3v-1.7h-2.1c-.3 0-.7 0-1 .1l1.8-1.7c.9-1 1.1-1.5 1.1-2.2 0-1.4-1-1.7-2.5-1.7-.8 0-1.5 0-2.6.2l.2 1.4zm-1.4 5.7v-7.2h-1.9l-1.8.7.2 1.2 1.7-.4c-.1.3-.1.6-.1.9v4.8h1.9zm67.4-14.1c.3-.2.6-.3 1-.3.5 0 .7.2.7 1.4s-.2 1.4-.7 1.4c-.4 0-.6-.1-.9-.2V271zm-.4-1.6h-1.5v7.1h1.9v-2.2c.4.3 1 .5 1.7.5 1.3 0 2-.6 2-2.7 0-1.8-.5-2.8-1.8-2.8-.8 0-1.6.4-2 .9l-.3-.8zm-5.2 1.2c.6 0 .8.3.8 1.4 0 1.1-.2 1.4-.8 1.4-.6 0-.8-.3-.8-1.4 0-1.1.2-1.4.8-1.4m0-1.3c-2 0-2.8.7-2.8 2.7s.7 2.7 2.8 2.7c2 0 2.8-.7 2.8-2.7s-.7-2.7-2.8-2.7m-5.9 4h-1.5c.3-.6.4-1.3.6-2.3 0-.3.2-.4.5-.4h.5v2.7zm2.6 0h-.9v-3.9h-2.8c-.9 0-1.4.4-1.5 1.3-.1.9-.3 1.8-.6 2.6h-.6v2.7h1.2l.1-1.4h3.7l.1 1.4h1.3v-2.7zm-7.2 1.3v-5.2h-1.6l-1.6 2.5c-.2.2-.3.5-.4.8 0-.3.1-.5.1-.8v-2.4h-1.7v5.2h1.6l1.6-2.4c.1-.2.3-.6.4-.9 0 .3-.1.6-.1.9v2.3h1.7zm-9.8-3.6c.3-.2.6-.3 1-.3.5 0 .7.2.7 1.4s-.2 1.4-.7 1.4c-.4 0-.6-.1-.9-.2V271zm-.4-1.6H370v7.1h1.9v-2.2c.4.3 1 .5 1.7.5 1.3 0 2-.6 2-2.7 0-1.8-.5-2.8-1.8-2.8-.8 0-1.6.4-2 .9l-.3-.8zm-5.2 1.2c.6 0 .8.3.8 1.4 0 1.1-.2 1.4-.8 1.4-.6 0-.8-.3-.8-1.4 0-1.1.2-1.4.8-1.4m0-1.3c-2 0-2.8.7-2.8 2.7s.7 2.7 2.8 2.7c2 0 2.8-.7 2.8-2.7s-.7-2.7-2.8-2.7m-5.2 2.6c1.2-.2 1.1-.3 1.8-2.5H361c-.4 1.7-.5 1.9-1.2 1.9h-.2c0-.2.1-.4.1-.7v-1.2h-1.9v5.2h1.9V273c0-.1 0-.3-.1-.4h.4c.6 0 .6.1 1.1 2.1h2c-.7-2.6-.7-2.6-2-2.8zm-6.7 2.7v-5.2h-1.6l-1.6 2.5c-.2.2-.3.5-.4.8 0-.3.1-.5.1-.8v-2.4h-1.7v5.2h1.6l1.6-2.4c.1-.2.3-.6.4-.9 0 .3-.1.6-.1.9v2.3h1.7zm-2-7.5c.1.6-.2.8-.6.8-.4 0-.7-.2-.6-.8H350c-.1.9.6 1.7 1.8 1.7 1.2 0 1.9-.8 1.8-1.7h-1.2zm-10 6.3v-1.2h.5c.5 0 .6.1.6.6s-.1.6-.6.6h-.5zm5.6-4h-1.9v5.2h1.9v-5.2zm-5.6 1.7v-1.7h-1.8v5.2h.1c.8.1 1.4.1 2.6.1 1.5 0 2.2-.4 2.2-1.8s-.6-1.8-2.5-1.8h-.6zm-2.9-1.7h-1.9v1.8H336v-1.8h-1.9v5.2h1.9v-2.1h1.6v2.1h1.9v-5.2zm-9.8 1.6c.3-.2.6-.3 1-.3.5 0 .7.2.7 1.4s-.2 1.4-.7 1.4c-.4 0-.6-.1-.9-.2V271zm-.4-1.6h-1.5v7.1h1.9v-2.2c.4.3 1 .5 1.7.5 1.3 0 2-.6 2-2.7 0-1.8-.5-2.8-1.8-2.8-.8 0-1.6.4-2 .9l-.3-.8zm-2.6 5.2v-5.2H325l-1.6 2.5c-.2.2-.3.5-.4.8 0-.3.1-.5.1-.8v-2.4h-1.7v5.2h1.6l1.6-2.4c.1-.2.3-.6.4-.9 0 .3-.1.6-.1.9v2.3h1.8zm-6.1-3.8v-1.4h-5.2v1.4h1.6v3.7h1.9v-3.7h1.7zm-9.2.2c.3-.2.6-.3 1-.3.5 0 .7.2.7 1.4s-.2 1.4-.7 1.4c-.4 0-.6-.1-.9-.2V271zm-.4-1.6h-1.5v7.1h1.9v-2.2c.4.3 1 .5 1.7.5 1.3 0 2-.6 2-2.7 0-1.8-.5-2.8-1.8-2.8-.8 0-1.6.4-2 .9l-.3-.8zm-6 3.4c0-.2.1-.4.4-.4h1.1v.6c-.3.2-.7.4-1 .4-.3 0-.5-.1-.5-.4v-.2zm-1.4-2.1c.9-.1 1.7-.1 2.2-.1.5 0 .7.2.7.6v.1h-1.7c-1 0-1.7.5-1.7 1.3v.5c0 1 .8 1.5 1.7 1.5.9 0 1.5-.5 1.8-.9l.2.8h1.5v-3.3c0-1.5-.8-2-2.2-2-.8 0-2.1.1-2.8.3l.3 1.2zm-4.5 2.7v-1h.9c.5 0 .7.1.7.5s-.2.5-.7.5h-.9zm0-2v-.9h.8c.5 0 .7.1.7.4s-.1.4-.6.4h-.9zm2.1.5c.8-.1 1.1-.4 1.1-1.2 0-1.1-.6-1.4-2.3-1.4-1.2 0-1.9 0-2.7.1v5.2c.9.1 1.7.1 3 .1 1.5 0 2.2-.3 2.2-1.4.1-.8-.3-1.3-1.3-1.4zm-6.5 0c1.2-.2 1.1-.3 1.8-2.5h-1.9c-.4 1.7-.5 1.9-1.2 1.9h-.2c0-.2.1-.4.1-.7v-1.2h-1.9v5.2h1.9V273c0-.1 0-.3-.1-.4h.4c.6 0 .6.1 1.1 2.1h2c-.8-2.6-.8-2.6-2-2.8zm-7.6-.4c0-.8.2-1 .9-1 .5 0 .7.1.7.5 0 .3-.1.5-.5.5h-1.1zm1.6 1c1.3 0 1.8-.4 1.8-1.4 0-1.2-.7-1.8-2.6-1.8-2 0-2.8.7-2.8 2.8 0 1.8.8 2.7 2.8 2.7.9 0 1.7-.1 2.4-.4l-.2-1.2c-.8.1-1.6.1-2 .1-.7 0-.9-.2-1-.8h1.6zm-4.5-3.1h-1.9v1.8h-1.6v-1.8h-1.9v5.2h1.9v-2.1h1.6v2.1h1.9v-5.2zm-10.1 3.9v-1.8h1c.8 0 .9.2.9.9s-.2.9-.9.9h-1zm0-3v-1.6h.9c.7 0 .9.1.9.8 0 .6-.2.8-.8.8h-1zm2.3.5c.9-.1 1.3-.6 1.3-1.6 0-1.5-.7-1.9-2.6-1.9-1.3 0-2 0-2.9.1v7.2c1 .1 1.8.1 3.3.1 1.8 0 2.5-.4 2.5-1.9 0-1.2-.4-1.8-1.6-2zM294.6 443c0-.9.1-1.2.8-1.2.8 0 .9.3.9 1.9-.3.2-.6.3-.9.3-.6 0-.8-.3-.8-1m-1.5 4.6c.8.2 1.6.2 2 .2 2.3 0 3.1-.5 3.1-3.8 0-2.9-.5-3.6-2.7-3.6-2.1 0-2.7.8-2.7 2.6 0 1.3.5 2.2 2.1 2.2.6 0 1.1-.1 1.5-.4-.1 1.2-.3 1.6-1.3 1.6h-1.9l-.1 1.2zm-2.2-1.6c-.5 0-.7.2-.7.7v.5c0 .5.2.7.7.7h.4c.5 0 .7-.2.7-.7v-.5c0-.5-.2-.7-.7-.7h-.4zm-6.5-4.1h2c.7 0 .9.1.9.7 0 .5-.1.8-.8.8h-1.4v1.3h1.4c.8 0 .9.2.9.8 0 .7-.3.9-1.2.9-.6 0-1.1 0-2-.1l-.1 1.4c.8.1 1.7.2 2.6.2 1.9 0 2.6-.6 2.6-2.1 0-1.1-.3-1.6-1.3-1.8.9-.1 1.1-.8 1.1-1.8 0-1.3-.7-1.7-2.4-1.7-.8 0-1.6.1-2.4.2l.1 1.2zm-1.4 5.8v-7.2h-2l-1.8.7.2 1.2 1.7-.4c-.1.3-.1.6-.1.9v4.8h2zm19.2-15.3h-.7c-.5 0-.6-.1-.6-.6 0-.4.1-.5.6-.5h.7v1.1zm-2 .6c-.3 0-.9.1-1 .6l-.4 1.6h1.9l.3-1.4c0-.2.2-.3.5-.3h.7v1.7h1.8V430c-.6-.1-1.2-.1-2.6-.1-1.9 0-2.4.4-2.4 1.7 0 .6.3 1.2 1.2 1.4zm-2.2-2.9h-1.9v1.8h-1.6v-1.8h-1.9v5.2h1.9v-2.1h1.6v2.1h1.9v-5.2zm-7.8 5.1h1.9l-1.5-2.6 1.4-2.5h-1.9l-1 1.9-1-1.9h-1.9l1.4 2.5-1.5 2.6h1.9l1.1-2.1 1.1 2.1zm-4.2-5.1h-2l-.8 3.1c-.1.2-.1.6-.2.9h-.1c0-.3-.1-.6-.1-.9l-.8-3.1h-2l1.6 4.7c.1.3.3.4.6.4h.3c-.1.3-.3.5-.5.6-.3.2-.8.2-1.4.2l-.2 1.2c.7.1 1.5.1 2.1-.1.8-.3 1.4-.8 1.8-2l1.7-5zm-8.5 1.4c1.4-.2 1.5-.8 2.3-3.4h-2c-.6 2.2-.7 2.8-1.7 2.8h-.3c.1-.3.1-.6.1-.9v-1.9H274v7.2h1.9v-2.4c0-.2 0-.4-.1-.7h.4c1 0 1.1.5 1.8 3.1h2c-.9-3-1-3.6-2.5-3.8zM395.4 443c0-.9.1-1.2.8-1.2.8 0 .9.3.9 1.9-.3.2-.6.3-.9.3-.7 0-.8-.3-.8-1m-1.6 4.6c.8.2 1.6.2 2 .2 2.3 0 3.1-.5 3.1-3.8 0-2.9-.5-3.6-2.7-3.6-2.1 0-2.7.8-2.7 2.6 0 1.3.5 2.2 2.1 2.2.6 0 1.1-.1 1.5-.4-.1 1.2-.3 1.6-1.3 1.6h-1.9l-.1 1.2zm-2.2-1.6c-.5 0-.7.2-.7.7v.5c0 .5.2.7.7.7h.4c.5 0 .7-.2.7-.7v-.5c0-.5-.2-.7-.7-.7h-.4zm-6.4-4.1h2c.7 0 .9.1.9.7 0 .5-.1.8-.8.8h-1.4v1.3h1.4c.8 0 .9.2.9.8 0 .7-.3.9-1.2.9-.6 0-1.1 0-2-.1l-.1 1.4c.8.1 1.7.2 2.6.2 1.9 0 2.6-.6 2.6-2.1 0-1.1-.3-1.6-1.3-1.8.9-.1 1.1-.8 1.1-1.8 0-1.3-.7-1.7-2.4-1.7-.8 0-1.6.1-2.4.2l.1 1.2zm-1.5 5.8v-7.2h-1.9l-1.8.7.2 1.2 1.7-.4c-.1.3-.1.6-.1.9v4.8h1.9zm19.3-15.3h-.7c-.5 0-.6-.1-.6-.6 0-.4.1-.5.6-.5h.7v1.1zm-2.1.6c-.3 0-.9.1-1 .6l-.4 1.6h1.9l.3-1.4c0-.2.2-.3.5-.3h.7v1.7h1.8V430c-.6-.1-1.2-.1-2.6-.1-1.9 0-2.4.4-2.4 1.7.1.6.4 1.2 1.2 1.4zm-2.1-2.9h-1.9v1.8h-1.6v-1.8h-1.9v5.2h1.9v-2.1h1.6v2.1h1.9v-5.2zm-7.8 5.1h1.9l-1.5-2.6 1.4-2.5h-1.9l-1 1.9-1-1.9H387l1.4 2.5-1.5 2.6h1.9l1.1-2.1 1.1 2.1zm-4.2-5.1h-2l-.8 3.1c-.1.2-.1.6-.2.9h-.1c0-.3-.1-.6-.1-.9l-.8-3.1h-2l1.6 4.7c.1.3.3.4.6.4h.3c-.1.3-.3.5-.5.6-.3.2-.8.2-1.4.2l-.2 1.2c.7.1 1.5.1 2.1-.1.8-.3 1.4-.8 1.8-2l1.7-5zm-8.5 1.4c1.4-.2 1.5-.8 2.3-3.4h-2c-.6 2.2-.7 2.8-1.7 2.8h-.3c.1-.3.1-.6.1-.9v-1.9h-1.9v7.2h1.9v-2.4c0-.2 0-.4-.1-.7h.4c1 0 1.1.5 1.8 3.1h2c-.9-3-1-3.6-2.5-3.8zm119.5 59.6c.8 0 1 .3 1 2.2 0 1.9-.2 2.2-1 2.2s-1-.3-1-2.2c0-1.8.2-2.2 1-2.2m0-1.5c-2.2 0-2.9.9-2.9 3.7 0 2.8.7 3.7 2.9 3.7s2.9-.9 2.9-3.7c.1-2.7-.7-3.7-2.9-3.7m-4.9 5.6c-.5 0-.7.2-.7.7v.5c0 .5.2.7.7.7h.4c.5 0 .7-.2.7-.7v-.5c0-.5-.2-.7-.7-.7h-.4zm-1.3-1h-.9v-3h-1.5l-.3 1.1v1.8h-1.4c-.2 0-.3-.1-.2-.3l1.6-4.1h-1.8l-1.8 4.6c-.2.6.2 1.1.8 1.1h2.9v1.5h1.8v-1.5l.8-.2v-1zm19.8-12.6h-.7c-.5 0-.6-.1-.6-.6 0-.4.1-.5.6-.5h.7v1.1zm-2 .7c-.3 0-.9.1-1 .6l-.4 1.6h1.9l.3-1.4c0-.2.2-.3.5-.3h.7v1.7h1.8v-5.2c-.6-.1-1.2-.1-2.6-.1-1.9 0-2.4.4-2.4 1.7.1.6.3 1.2 1.2 1.4zm-2.1 2.2v-5.2h-1.6l-1.6 2.5c-.2.2-.3.5-.4.8 0-.3.1-.5.1-.8v-2.4h-1.7v5.2h1.6l1.6-2.4c.1-.2.3-.6.4-.9 0 .3-.1.6-.1.9v2.3h1.7zm-8.1-2.7c1.2-.2 1.2-.3 1.8-2.4h-1.9c-.5 1.7-.6 1.9-1.1 1.9h-.3c0-.2.1-.4.1-.6v-1.2h-1.6v1.2c0 .2 0 .4.1.6h-.3c-.5 0-.6-.2-1.1-1.9H493c.7 2.1.6 2.3 1.8 2.4v.1c-1.3.2-1.3.3-2 2.7h1.9c.7-2 .7-2.1 1.1-2.1h.4c0 .2-.1.3-.1.4v1.6h1.7v-1.6c0-.1 0-.3-.1-.4h.4c.5 0 .5.1 1.2 2.1h1.9c-.7-2.5-.7-2.6-2-2.8zm-9.4 1.4h-1.5c.3-.6.4-1.3.6-2.3 0-.3.2-.4.5-.4h.5v2.7zm2.6 0h-.9v-3.9h-2.8c-.9 0-1.4.4-1.5 1.3-.1.9-.3 1.8-.6 2.6h-.6v2.7h1.2l.1-1.4h3.7l.1 1.4h1.3v-2.7zm-9.6-2.7c.6 0 .8.3.8 1.4 0 1.1-.2 1.4-.8 1.4-.6 0-.8-.3-.8-1.4 0-1.1.2-1.4.8-1.4m0-1.3c-2 0-2.8.7-2.8 2.7s.7 2.7 2.8 2.7c2 0 2.8-.7 2.8-2.7s-.8-2.7-2.8-2.7m-3.8-1.9h-3.3c-1.1 0-1.7.6-1.8 1.7-.1 1.7-.3 2.7-.5 3.3-.2.5-.5.6-1 .7l.1 1.5c1.3.2 2.2-.2 2.7-1.7.3-.9.4-2.2.6-3.7 0-.4.2-.5.6-.5h.7v5.9h2v-7.2zM192.8 218.4c-.8 0-.9-.3-.9-1.9.3-.2.6-.3.9-.3.7 0 .8.2.8.9.1 1 0 1.3-.8 1.3m2.2-5.8c-.7-.2-1.5-.2-1.9-.2-2.1 0-3.1.5-3.1 3.8 0 2.9.6 3.6 2.8 3.6 2.2 0 2.7-.8 2.7-2.6 0-1.6-.5-2.2-2.1-2.2-.6 0-1.1.1-1.5.4.1-1.3.3-1.6 1.2-1.6h1.8l.1-1.2zm-6.9 5.3c-.5 0-.7.2-.7.7v.5c0 .5.2.7.7.7h.4c.5 0 .7-.2.7-.7v-.5c0-.5-.2-.7-.7-.7h-.4zm-6.5-4h2c.7 0 .9.1.9.7 0 .5-.1.8-.8.8h-1.4v1.3h1.4c.8 0 .9.2.9.8 0 .7-.3.9-1.2.9-.6 0-1.1 0-2-.1l-.1 1.4c.8.1 1.7.2 2.6.2 1.9 0 2.6-.6 2.6-2.1 0-1.1-.3-1.6-1.3-1.8.9-.1 1.1-.8 1.1-1.8 0-1.3-.7-1.7-2.4-1.7-.8 0-1.6.1-2.4.2l.1 1.2zm-1.4 5.8v-7.2h-1.9l-1.8.7.2 1.2 1.7-.4c-.1.3-.1.6-.1.9v4.8h1.9zm-89.4-49.1c0-.9.1-1.2.8-1.2.8 0 .9.3.9 1.9-.3.2-.6.3-.9.3-.7-.1-.8-.3-.8-1m-1.6 4.6c.8.2 1.6.2 2 .2 2.3 0 3.1-.5 3.1-3.8 0-2.9-.5-3.6-2.7-3.6-2.1 0-2.7.8-2.7 2.6 0 1.3.5 2.2 2.1 2.2.6 0 1.1-.1 1.5-.4-.1 1.2-.3 1.6-1.3 1.6h-1.9l-.1 1.2zm-2.2-1.7c-.5 0-.7.2-.7.7v.5c0 .5.2.7.7.7h.4c.5 0 .7-.2.7-.7v-.5c0-.5-.2-.7-.7-.7H87zm-1.7-3.9.1-1.4h-4.5l-.2 3.2c0 .3.2.6.6.6l1.1.1c1 .1 1.3.2 1.3.9 0 .6-.3.8-1.2.8-.5 0-1.2 0-1.9-.1l-.2 1.5c.9.1 1.8.2 2.5.2 2 0 2.6-1.1 2.6-2.3 0-1.2-.4-2.2-2.1-2.4l-1.2-.2.1-1h3zm-6 5.7v-7.2h-1.9l-1.8.7.2 1.2 1.7-.4c-.1.3-.1.6-.1.9v4.8h1.9zm10 237.4c1-.1 1.5-.1 2.2-.1.6 0 .8 0 .8.3 0 .4-.5 1.1-1.3 1.9l-1.6 1.7c-.2.2-.3.5-.3.8v1h5.3v-1.7h-2.1c-.3 0-.7 0-1 .1l1.8-1.7c.9-1 1.1-1.5 1.1-2.2 0-1.4-1-1.7-2.5-1.7-.8 0-1.5 0-2.6.2l.2 1.4zm-2 3.9c-.5 0-.7.2-.7.7v.5c0 .5.2.7.7.7h.4c.5 0 .7-.2.7-.7v-.5c0-.5-.2-.7-.7-.7h-.4zm-6.8-3.9c1-.1 1.5-.1 2.2-.1.6 0 .8 0 .8.3 0 .4-.5 1.1-1.3 1.9l-1.6 1.7c-.2.2-.3.5-.3.8v1h5.3v-1.7h-2.1c-.3 0-.7 0-1 .1l1.8-1.7c.9-1 1.1-1.5 1.1-2.2 0-1.4-1-1.7-2.5-1.7-.8 0-1.5 0-2.6.2l.2 1.4zm-1.3 5.7v-7.2h-1.9l-1.8.7.2 1.2 1.7-.4c-.1.3-.1.6-.1.9v4.8h1.9zm117.7 1.8h-.9v-3h-1.5l-.3 1.1v1.8h-1.4c-.2 0-.3-.1-.2-.3l1.6-4.1h-1.8l-1.8 4.6c-.2.6.2 1.1.8 1.1h2.9v1.5h1.8v-1.5l.8-.2v-1zm-8 1.1c-.5 0-.7.2-.7.7v.5c0 .5.2.7.7.7h.4c.5 0 .7-.2.7-.7v-.5c0-.5-.2-.7-.7-.7h-.4zm-4.4-1.4c.8 0 1 .2 1 .9s-.2.9-1 .9-1-.2-1-.9.2-.9 1-.9m0-2.9c.7 0 .9.2.9.9 0 .6-.1.8-.9.8-.7 0-.9-.1-.9-.8 0-.7.2-.9.9-.9m-1.5 2.3c-1 .1-1.3 1-1.3 1.9 0 1.4.6 1.9 2.8 1.9 2.3 0 2.8-.5 2.8-1.9 0-1-.2-1.8-1.3-1.9.8-.1 1.1-.9 1.1-1.6 0-1.3-.5-1.9-2.6-1.9-2.2 0-2.6.6-2.6 1.9 0 .7.3 1.5 1.1 1.6zm-2.6 3.8v-7.2h-1.9l-1.8.7.2 1.2 1.7-.4c-.1.3-.1.6-.1.9v4.8h1.9zm24.4-234.9c1.8 0 2.2.4 2.2 2.1 0 1.6-.4 2-2.2 2-1.9 0-2.3-.4-2.3-2 0-1.7.4-2.1 2.3-2.1m0-6.7c1.6 0 2 .4 2 2 0 1.5-.3 1.8-2 1.8s-2.1-.3-2.1-1.8c.1-1.6.4-2 2.1-2m-3.5 5.3c-2.4.2-2.9 2.2-2.9 4.4 0 3.2 1.3 4.4 6.4 4.4 5.2 0 6.4-1.2 6.4-4.4 0-2.2-.5-4.2-2.9-4.4v-.1c1.8-.2 2.5-2 2.5-3.8 0-3.1-1-4.4-6-4.4-4.9 0-6 1.3-6 4.4 0 1.8.7 3.6 2.5 3.9zm-7.5 4.4c-1.1 0-1.5.4-1.5 1.5v1c0 1.1.4 1.5 1.5 1.5h1c1.1 0 1.5-.4 1.5-1.5v-1c0-1.1-.4-1.5-1.5-1.5h-1zm-3.1-2.4h-2V182h-3.4l-.7 2.6v4.2h-3.2c-.4 0-.6-.2-.4-.7l3.6-9.3h-4.2l-4.1 10.4c-.5 1.3.4 2.5 1.7 2.5h6.6v3.4h4.1v-3.4l1.9-.4v-2.5zm-21.7 3.5c-1.9 0-2.1-.6-2.1-4.2.8-.5 1.3-.6 2.1-.6 1.6 0 1.9.4 1.9 2.2 0 1.9-.1 2.6-1.9 2.6m5-13.3c-1.7-.5-3.4-.5-4.2-.5-4.8 0-7.2 1.2-7.2 8.7 0 6.7 1.5 8.3 6.4 8.3 5 0 6.1-1.9 6.1-6 0-3.6-1.1-5.1-4.8-5.1-1.5 0-2.5.2-3.4 1 .1-3.1.7-3.6 2.8-3.6h4l.3-2.8z" class="st7"/><circle cx="186.1" cy="160.3" r="14.6" style="clip-path:url(#SVGID_2_);fill:none;stroke:#39363a"/><path d="M195.9 163.8c-1.2.1-2.2.1-3.9.1-1.5 0-1.9-.8-1.9-3.5s.4-3.5 1.9-3.5c1.7 0 2.4 0 3.7.1l.3-2.5c-1.2-.3-2.1-.4-3.9-.4-4 0-5.4 1.7-5.4 6.4s1.5 6.4 5.4 6.4c1.9 0 3-.1 4.2-.6l-.4-2.5zm-19.4-7.2h3.5c1.3 0 1.6.2 1.6 1.2 0 .8-.1 1.4-1.5 1.4h-2.4v2.2h2.4c1.3 0 1.6.4 1.6 1.5 0 1.3-.5 1.5-2.1 1.5-1.1 0-1.9 0-3.4-.1l-.1 2.4c1.4.2 3 .3 4.5.3 3.3 0 4.5-1.1 4.5-3.7 0-1.9-.6-2.8-2.3-3.1v-.2c1.6-.3 2-1.4 2-3.1 0-2.2-1.2-2.9-4.2-2.9-1.4 0-2.8.1-4.2.3l.1 2.3z" class="st7"/><path d="M37.7 359.5h96.5" style="fill:none;stroke:#39363a;stroke-dasharray:3.86,3.86"/><defs><path id="SVGID_3_" d="M24 32.7h633.4V532H24z"/></defs><clipPath id="SVGID_4_"><use xlink:href="#SVGID_3_" style="overflow:visible"/></clipPath><path d="M113.7 339.8c0-.2.1-.4.4-.4h1.1v.6c-.3.2-.7.4-1 .4-.3 0-.5-.1-.5-.4v-.2zm-1.4-2.1c.9-.1 1.7-.1 2.2-.1.5 0 .7.2.7.6v.1h-1.7c-1 0-1.7.5-1.7 1.3v.5c0 1 .8 1.5 1.7 1.5.9 0 1.5-.5 1.8-.9l.2.8h1.5v-3.3c0-1.5-.8-2-2.2-2-.8 0-2.1.1-2.8.3l.3 1.2zm-1.3-1.3h-1.8v3.9H108v-3.9h-1.7v3.9H105v-3.9h-1.8v5.2h7.8v-5.2zm-8.9 5.2v-5.2h-1.6l-1.6 2.5c-.2.2-.3.5-.4.8 0-.3.1-.5.1-.8v-2.4h-1.7v5.2h1.6l1.6-2.4c.1-.2.3-.6.4-.9 0 .3-.1.6-.1.9v2.3h1.7zm-6.5-5.2h-1.9v1.8h-1.6v-1.8h-1.9v5.2h1.9v-2.1h1.6v2.1h1.9v-5.2zm-6.4 1.9h-3.1v1.1h3.1v-1.1zm-5.9.4h-.7c-.5 0-.6-.1-.6-.6 0-.4.1-.5.6-.5h.7v1.1zm-2.1.7c-.3 0-.9.1-1 .6l-.4 1.6h1.9l.3-1.4c0-.2.2-.3.5-.3h.7v1.7H85v-5.2c-.6-.1-1.2-.1-2.6-.1-1.9 0-2.4.4-2.4 1.7.1.5.4 1.1 1.2 1.4zm-2.1-3h-1.9v1.8h-1.6v-1.8h-1.9v5.2h1.9v-2.1h1.6v2.1h1.9v-5.2zm-7.8 5.1h1.9l-1.5-2.6 1.4-2.5h-1.9l-1 1.9-1-1.9h-1.9l1.4 2.5-1.5 2.6H69l1.1-2.1 1.2 2.1zm-4.2-5.1h-2l-.8 3.1c-.1.2-.1.6-.2.9H64c0-.3-.1-.6-.1-.9l-.8-3.1h-2l1.6 4.7c.1.3.3.4.6.4h.3c-.1.3-.3.5-.5.6-.3.2-.8.2-1.4.2l-.2 1.2c.7.1 1.5.1 2.1-.1.8-.3 1.4-.8 1.8-2l1.7-5zm-8.5 1.4c1.4-.2 1.5-.8 2.3-3.4h-2c-.6 2.2-.7 2.8-1.7 2.8h-.3c.1-.3.1-.6.1-.9v-1.9h-1.9v7.2H57v-2.4c0-.2 0-.4-.1-.7h.4c1 0 1.1.5 1.8 3.1h2c-.9-3-1-3.6-2.5-3.8zm30.6 9c0-.9.1-1.2.8-1.2.8 0 .9.3.9 1.9-.3.2-.6.3-.9.3-.6-.1-.8-.3-.8-1m-1.5 4.6c.8.2 1.6.2 2 .2 2.3 0 3.1-.5 3.1-3.8 0-2.9-.5-3.6-2.7-3.6-2.1 0-2.7.8-2.7 2.6 0 1.3.5 2.2 2.1 2.2.6 0 1.1-.1 1.5-.4-.1 1.2-.3 1.6-1.3 1.6h-1.9l-.1 1.2zm-2.2-1.7c-.5 0-.7.2-.7.7v.5c0 .5.2.7.7.7h.5c.5 0 .7-.2.7-.7v-.5c0-.5-.2-.7-.7-.7h-.5zm-1.7-4 .1-1.4h-4.5l-.2 3.2c0 .3.2.6.6.6l1.1.1c1 .1 1.3.2 1.3.9 0 .6-.2.8-1.2.8-.5 0-1.2 0-1.9-.1l-.2 1.5c.9.1 1.8.2 2.6.2 2 0 2.6-1.1 2.6-2.3 0-1.2-.4-2.2-2.1-2.4l-1.2-.2.1-1h2.9zm518.7-157.6V181h-1.9l-1.8.7.2 1.2 1.7-.4c-.1.3-.1.6-.1.9v4.8h1.9zm-4.9-1.7c-.5 0-.7.2-.7.7v.5c0 .5.2.7.7.7h.4c.5 0 .7-.2.7-.7v-.6c0-.5-.2-.7-.7-.7h-.4zm-4.1.4c-.8 0-.9-.3-.9-1.9.3-.2.6-.3.9-.3.7 0 .8.2.8.9 0 1 0 1.3-.8 1.3m2.2-5.8c-.7-.2-1.5-.2-1.9-.2-2.1 0-3.1.5-3.1 3.8 0 2.9.6 3.6 2.8 3.6 2.2 0 2.7-.8 2.7-2.6 0-1.6-.5-2.2-2.1-2.2-.6 0-1.1.1-1.5.4.1-1.3.3-1.6 1.2-1.6h1.8l.1-1.2zm-6.3 7.1V181h-1.9l-1.8.7.2 1.2 1.7-.4c-.1.3-.1.6-.1.9v4.8h1.9zm42-12.2c0-.2.1-.4.4-.4h1.1v.6c-.3.2-.7.4-1 .4-.3 0-.5-.1-.5-.4v-.2zm-1.5-2.1c.9-.1 1.7-.1 2.2-.1.5 0 .7.2.7.6v.1h-1.7c-1 0-1.7.5-1.7 1.3v.5c0 1 .8 1.5 1.7 1.5.9 0 1.5-.5 1.8-.9l.2.8h1.5v-3.3c0-1.5-.8-2-2.2-2-.8 0-2.1.1-2.8.3l.3 1.2zm-.8.1v-1.4h-5.2v1.4h1.6v3.7h1.9v-3.7h1.7zm-9.2 2c0-.2.1-.4.4-.4h1.1v.6c-.3.2-.7.4-1 .4-.3 0-.5-.1-.5-.4v-.2zm-1.5-2.1c.9-.1 1.7-.1 2.2-.1.5 0 .7.2.7.6v.1h-1.7c-1 0-1.7.5-1.7 1.3v.5c0 1 .8 1.5 1.7 1.5.9 0 1.5-.5 1.8-.9l.2.8h1.5v-3.3c0-1.5-.8-2-2.2-2-.8 0-2.1.1-2.8.3l.3 1.2zm-1.3-1.3h-1.9v1.8h-1.6v-1.8h-1.9v5.2h1.9v-2.1h1.6v2.1h1.9v-5.2zm-8.7 0c-.4 0-.6.2-.7.6l-.4 1.9c-.1.3-.1.5-.1.8h-.2c0-.3 0-.5-.1-.8l-.5-1.9c-.1-.4-.3-.6-.7-.6h-1.6c-.4 0-.6.2-.7.6l-.1 4.5h1.7l.1-3.8h.1l.6 2.5c.1.4.3.6.7.6h.8c.4 0 .6-.2.7-.6l.6-2.5h.1l.1 3.8h1.7l-.1-4.5c0-.4-.2-.6-.6-.6h-1.4zm-8.6 1.2c.6 0 .8.3.8 1.4 0 1.1-.2 1.4-.8 1.4-.6 0-.8-.3-.8-1.4 0-1.2.1-1.4.8-1.4m0-1.4c-2 0-2.8.7-2.8 2.7s.7 2.7 2.8 2.7c2 0 2.8-.7 2.8-2.7 0-1.9-.8-2.7-2.8-2.7m-5.2 2.6c1.2-.2 1.1-.3 1.8-2.5h-1.9c-.4 1.7-.5 1.9-1.2 1.9h-.3c0-.2.1-.4.1-.7v-1.2h-1.9v5.2h1.9V176c0-.1 0-.3-.1-.4h.4c.6 0 .6.1 1.1 2.1h2c-.6-2.5-.7-2.5-1.9-2.8zm-8.5-.1h-.7c-.5 0-.6-.1-.6-.6 0-.4.1-.5.6-.5h.7v1.1zm-2.1.7c-.3 0-.9.1-1 .6l-.4 1.6h1.9l.3-1.4c0-.2.2-.3.5-.3h.7v1.7h1.8v-5.2c-.6-.1-1.2-.1-2.6-.1-1.9 0-2.4.4-2.4 1.7.1.5.4 1.1 1.2 1.4zm-5.5.4c0-.2.1-.4.4-.4h1.1v.6c-.3.2-.7.4-1 .4-.3 0-.5-.1-.5-.4v-.2zm-1.4-2.1c.9-.1 1.7-.1 2.2-.1.5 0 .7.2.7.6v.1h-1.7c-1 0-1.7.5-1.7 1.3v.5c0 1 .8 1.5 1.7 1.5.9 0 1.5-.5 1.8-.9l.2.8h1.5v-3.3c0-1.5-.8-2-2.2-2-.8 0-2.1.1-2.8.3l.3 1.2zm-1.3-1.3h-3.1c-.9 0-1.4.5-1.4 1.3-.1.9-.2 1.7-.3 2-.1.4-.4.4-.9.5l.2 1.4c1.1.2 2.2-.1 2.4-1.4.1-.5.2-1.4.3-2.2 0-.3.2-.4.5-.4h.4v3.9h1.9v-5.1zm-6.3 5.2v-5.2h-1.6l-1.6 2.5c-.2.2-.3.5-.4.8 0-.3.1-.5.1-.8v-2.4h-1.7v5.2h1.6l1.6-2.4c.1-.2.3-.6.4-.9 0 .3-.1.6-.1.9v2.3h1.7zm-8.4-3.8c1.4-.2 1.4-.8 2.2-3.4h-2c-.6 2.2-.8 2.8-1.5 2.8h-.3c.1-.3.1-.6.1-.9v-1.9h-1.9v1.9c0 .3 0 .6.1.9h-.4c-.7 0-.8-.6-1.5-2.8h-2c.8 2.6.8 3.2 2.2 3.4v.1c-1.4.2-1.5.8-2.4 3.7h2c.8-2.6.9-3.1 1.6-3.1h.4c-.1.2-.1.5-.1.7v2.4h1.9v-2.4c0-.2 0-.4-.1-.7h.3c.7 0 .8.5 1.6 3.1h2c-.7-3-.8-3.6-2.2-3.8zm-59.3 8.5.1-1.4h-4.5l-.2 3.2c0 .3.2.6.6.6l1.1.1c1 .1 1.3.2 1.3.9 0 .6-.2.8-1.2.8-.5 0-1.2 0-1.9-.1l-.2 1.5c.9.1 1.8.2 2.5.2 2 0 2.6-1.1 2.6-2.3 0-1.2-.4-2.2-2.1-2.4l-1.2-.2.1-1h3zm-6.8 4c-.5 0-.7.2-.7.7v.5c0 .5.2.7.7.7h.4c.5 0 .7-.2.7-.7v-.6c0-.5-.2-.7-.7-.7h-.4zm-6.4-4h2c.7 0 .9.1.9.7 0 .5-.1.8-.8.8h-1.4v1.3h1.4c.8 0 .9.2.9.8 0 .7-.3.9-1.2.9-.6 0-1.1 0-2-.1l-.1 1.4c.8.1 1.7.2 2.6.2 1.9 0 2.6-.6 2.6-2.1 0-1.1-.3-1.6-1.3-1.8.9-.1 1.1-.8 1.1-1.8 0-1.3-.7-1.7-2.4-1.7-.8 0-1.6.1-2.4.2l.1 1.2zm-1.4 5.7V181h-1.9l-1.8.7.2 1.2 1.7-.4c-.1.3-.1.6-.1.9v4.8h1.9zm19-13.3h-.7c-.5 0-.6-.1-.6-.6 0-.4.1-.5.6-.5h.7v1.1zm-2.1.7c-.3 0-.9.1-1 .6l-.4 1.6h1.9l.3-1.4c0-.2.2-.3.5-.3h.7v1.7h1.8v-5.2c-.6-.1-1.2-.1-2.6-.1-1.9 0-2.4.4-2.4 1.7.1.5.4 1.1 1.2 1.4zm-2.1-3h-1.9v1.8h-1.6v-1.8h-1.9v5.2h1.9v-2.1h1.6v2.1h1.9v-5.2zm-7.8 5.1h1.9l-1.5-2.6 1.4-2.5h-1.9l-1 1.9-1-1.9h-1.9l1.4 2.5-1.5 2.6h1.9l1.1-2.1 1.1 2.1zm-4.2-5.1h-2l-.8 3.1c-.1.2-.1.6-.2.9h-.1c0-.3-.1-.6-.1-.9l-.8-3.1h-2l1.6 4.7c.1.3.3.4.6.4h.3c-.1.3-.3.5-.5.6-.3.2-.8.2-1.4.2l-.2 1.2c.7.1 1.5.1 2.1-.1.8-.3 1.4-.8 1.8-2l1.7-5zm-8.5 1.4c1.4-.2 1.5-.8 2.3-3.4h-2c-.6 2.2-.7 2.8-1.7 2.8h-.3c.1-.3.1-.6.1-.9v-1.9H478v7.2h1.9v-2.4c0-.2 0-.4-.1-.7h.4c1 0 1.1.5 1.8 3.1h2c-.9-3-1-3.6-2.5-3.8zm20-70h2c.7 0 .9.1.9.7 0 .5-.1.8-.8.8h-1.4v1.3h1.4c.8 0 .9.2.9.8 0 .7-.3.9-1.2.9-.6 0-1.1 0-2-.1l-.1 1.4c.8.1 1.7.2 2.6.2 1.9 0 2.6-.6 2.6-2.1 0-1.1-.3-1.6-1.3-1.8.9-.1 1.1-.8 1.1-1.8 0-1.3-.7-1.7-2.4-1.7-.8 0-1.6.1-2.4.2l.1 1.2zm-2.1 4c-.5 0-.7.2-.7.7v.5c0 .5.2.7.7.7h.4c.5 0 .7-.2.7-.7v-.5c0-.5-.2-.7-.7-.7h-.4zm-1.3-1.1h-.9v-3h-1.5l-.3 1.1v1.8H494c-.2 0-.3-.1-.2-.3l1.6-4.1h-1.8l-1.8 4.6c-.2.6.2 1.1.8 1.1h2.9v1.5h1.8V108l.8-.2v-1zm19.4-12.5h-.7c-.5 0-.6-.1-.6-.6 0-.4.1-.5.6-.5h.7v1.1zm-2 .7c-.3 0-.9.1-1 .6l-.4 1.6h1.9l.3-1.4c0-.2.2-.3.5-.3h.7v1.7h1.8V92c-.6-.1-1.2-.1-2.6-.1-1.9 0-2.4.4-2.4 1.7.1.6.3 1.2 1.2 1.4zm-2.2 2.2V92h-1.6l-1.6 2.5c-.2.2-.3.5-.4.8 0-.3.1-.5.1-.8V92H508v5.2h1.6l1.6-2.4c.1-.2.3-.6.4-.9 0 .3-.1.6-.1.9v2.3h1.8zm-8-2.8c1.2-.2 1.2-.3 1.8-2.4h-1.9c-.5 1.7-.6 1.9-1.1 1.9h-.3c0-.2.1-.4.1-.6V92h-1.6v1.2c0 .2 0 .4.1.6h-.4c-.5 0-.6-.2-1.1-1.9H499c.7 2.1.6 2.3 1.8 2.4v.1c-1.2.2-1.3.3-2 2.7h1.9c.7-2 .7-2.1 1.1-2.1h.4c0 .2-.1.3-.1.4V97h1.7v-1.6c0-.1 0-.3-.1-.4h.4c.5 0 .5.1 1.2 2.1h1.9c-.6-2.3-.7-2.4-1.9-2.7zm-9.4 1.5h-1.5c.3-.6.4-1.3.6-2.3 0-.3.2-.4.5-.4h.5v2.7zm2.6 0h-.9V92h-2.8c-.9 0-1.4.4-1.5 1.3-.1.9-.3 1.8-.6 2.6h-.6v2.7h1.2l.1-1.4h3.7l.1 1.4h1.3v-2.7zm-9.6-2.7c.6 0 .8.3.8 1.4 0 1.1-.2 1.4-.8 1.4-.6 0-.8-.3-.8-1.4 0-1.2.2-1.4.8-1.4m0-1.4c-2 0-2.8.7-2.8 2.7s.7 2.7 2.8 2.7c2 0 2.8-.7 2.8-2.7 0-1.9-.8-2.7-2.8-2.7m-3.8-1.8h-3.3c-1.1 0-1.7.6-1.8 1.7-.1 1.7-.3 2.7-.5 3.3-.2.5-.5.6-1 .7l.1 1.5c1.3.2 2.2-.2 2.7-1.7.3-.9.4-2.2.6-3.7 0-.4.2-.5.6-.5h.7v5.9h2V90zM195.4 490.9c.8 0 1 .3 1 2.2 0 1.9-.2 2.2-1 2.2s-1-.3-1-2.2c0-1.9.3-2.2 1-2.2m0-1.5c-2.2 0-2.9.9-2.9 3.7 0 2.8.7 3.7 2.9 3.7s2.9-.9 2.9-3.7c.1-2.8-.7-3.7-2.9-3.7m-4.9 5.5c-.5 0-.7.2-.7.7v.5c0 .5.2.7.7.7h.4c.5 0 .7-.2.7-.7v-.5c0-.5-.2-.7-.7-.7h-.4zm-1.3-1h-.9v-3h-1.5l-.3 1.1v1.8h-1.4c-.2 0-.3-.1-.2-.3l1.6-4.1h-1.8l-1.8 4.6c-.2.6.2 1.1.8 1.1h2.9v1.5h1.8v-1.5l.8-.2v-1zm19.8-12.5h-.7c-.5 0-.6-.1-.6-.6 0-.4.1-.5.6-.5h.7v1.1zm-2 .6c-.3 0-.9.1-1 .6l-.4 1.6h1.9l.3-1.4c0-.2.2-.3.5-.3h.7v1.7h1.8V479c-.6-.1-1.2-.1-2.6-.1-1.9 0-2.4.4-2.4 1.7.1.6.3 1.2 1.2 1.4zm-2.1 2.2V479h-1.6l-1.6 2.5c-.2.2-.3.5-.4.8 0-.3.1-.5.1-.8V479h-1.7v5.2h1.6l1.6-2.4c.1-.2.3-.6.4-.9 0 .3-.1.6-.1.9v2.3h1.7zm-8.1-2.7c1.2-.2 1.2-.3 1.8-2.4h-1.9c-.5 1.7-.6 1.9-1.1 1.9h-.3c0-.2.1-.4.1-.6V479h-1.6v1.2c0 .2 0 .4.1.6h-.3c-.5 0-.6-.2-1.1-1.9h-1.9c.7 2.1.6 2.3 1.8 2.4v.1c-1.3.2-1.3.3-2 2.7h1.9c.7-2 .7-2.1 1.1-2.1h.4c0 .2-.1.3-.1.4v1.6h1.7v-1.6c0-.1 0-.3-.1-.4h.4c.5 0 .5.1 1.2 2.1h1.9c-.7-2.3-.7-2.4-2-2.6zm-9.4 1.4h-1.5c.3-.6.4-1.3.6-2.3 0-.3.2-.4.5-.4h.5v2.7zm2.6 0h-.9V479h-2.8c-.9 0-1.4.4-1.5 1.3-.1.9-.3 1.8-.6 2.6h-.6v2.7h1.2l.1-1.4h3.7l.1 1.4h1.3v-2.7zm-9.6-2.7c.6 0 .8.3.8 1.4 0 1.1-.2 1.4-.8 1.4-.6 0-.8-.3-.8-1.4 0-1.1.2-1.4.8-1.4m0-1.3c-2 0-2.8.7-2.8 2.7s.7 2.7 2.8 2.7c2 0 2.8-.7 2.8-2.7s-.7-2.7-2.8-2.7m-3.8-1.9h-3.3c-1.1 0-1.7.6-1.8 1.7-.1 1.7-.3 2.7-.5 3.3-.2.5-.5.6-1 .7l.1 1.5c1.3.2 2.2-.2 2.7-1.7.3-.9.4-2.2.6-3.7 0-.4.2-.5.6-.5h.7v5.8h2V477z" style="clip-path:url(#SVGID_4_);fill:#39363a"/><path d="M281 301.8h118.3" class="st11"/><path d="M445.7 230.7h35.9m-.2-.3v8m-23.8-8v8m144.7 47.9h15.1v15.1h-15.1z" class="st12"/><defs><path id="SVGID_5_" d="M24 32.7h633.4V532H24z"/></defs><clipPath id="SVGID_6_"><use xlink:href="#SVGID_5_" style="overflow:visible"/></clipPath><path d="M609.9 273.1h-.4c-.3 0-.4-.1-.4-.4 0-.2.1-.3.4-.3h.4v.7zm-1.2.4c-.2 0-.5.1-.6.3l-.2 1h1.2l.2-.8c0-.1.1-.2.3-.2h.4v1h1.1v-3.1h-1.6c-1.1 0-1.4.2-1.4 1-.1.3 0 .6.6.8zm-3.4.2c0-.1.1-.2.3-.2h.7v.4c-.2.1-.4.2-.6.2-.2 0-.3-.1-.3-.3v-.1zm-.8-1.2h1.3c.3 0 .4.1.4.4v.1h-1c-.6 0-1 .3-1 .8v.3c0 .6.5.9 1 .9s.9-.3 1.1-.5l.1.5h.9v-2c0-.9-.5-1.2-1.3-1.2-.5 0-1.2.1-1.7.2l.2.5zm-.8-.8h-1.1v1.1h-1v-1.1h-1.1v3.1h1.1v-1.3h1v1.3h1.1v-3.1zm-3.8 0h-1.1v1.1h-1v-1.1h-1.1v3.1h1.1v-1.3h1v1.3h1.1v-3.1zm-5.9 2c0-.1.1-.2.3-.2h.7v.4c-.2.1-.4.2-.6.2-.2 0-.3-.1-.3-.3v-.1zm-.9-1.2h1.3c.3 0 .4.1.4.4v.1h-1c-.6 0-1 .3-1 .8v.3c0 .6.5.9 1 .9s.9-.3 1.1-.5l.1.5h.9v-2c0-.9-.5-1.2-1.3-1.2-.5 0-1.2.1-1.7.2l.2.5zm-2.9 1.5v-1.1h.6c.5 0 .6.1.6.6 0 .4-.1.5-.5.5h-.7zm0-1.8v-.9h.5c.4 0 .5.1.5.5s-.1.5-.5.5h-.5zm1.4.3c.5 0 .8-.4.8-1 0-.9-.4-1.1-1.6-1.1H589v4.3h2c1.1 0 1.5-.2 1.5-1.1 0-.6-.2-1-.9-1.1zm12.5 5.5v-.9h-2.7l-.1 1.9c0 .2.1.4.3.4l.7.1c.6 0 .8.1.8.5 0 .3-.1.5-.7.5h-1.1l-.1.9c.5.1 1.1.1 1.5.1 1.2 0 1.6-.6 1.6-1.4 0-.7-.3-1.3-1.3-1.4l-.7-.1v-.6h1.8zm-4.1 2.4c-.3 0-.4.1-.4.4v.3c0 .3.1.4.4.4h.3c.3 0 .4-.1.4-.4v-.3c0-.3-.1-.4-.4-.4h-.3zm-3.8-2.4h1.2c.4 0 .6.1.6.4 0 .3 0 .5-.5.5h-.8v.8h.8c.5 0 .6.1.6.5s-.2.5-.7.5h-1.2v.8c.5.1 1 .1 1.5.1 1.1 0 1.6-.4 1.5-1.3 0-.7-.2-1-.8-1.1.6-.1.7-.5.7-1.1 0-.8-.4-1-1.5-1-.5 0-1 0-1.4.1v.8zm6.3-46h-1.2l-.5 1.8c0 .1-.1.3-.1.5h-.1c0-.2-.1-.4-.1-.5l-.5-1.8h-1.2l1 2.8c0 .2.2.3.4.3h.2c-.1.2-.2.3-.3.4-.2.1-.5.1-.9.1l-.1.7c.4.1.9.1 1.3-.1.5-.2.8-.5 1.1-1.2l1-3zm-6.1 3.6 2.5-4.8h-.9l-2.5 4.8h.9zm-1.2-1.4c-.4 0-.8.1-1.4.1-.5 0-.7-.3-.7-1.2 0-1 .1-1.2.7-1.2h1.3l.1-.9c-.4-.1-.7-.2-1.4-.2-1.4 0-1.9.6-1.9 2.2s.5 2.2 1.9 2.2c.6 0 1 0 1.5-.2l-.1-.8zm4.2 6.8c-.5 0-.6-.2-.6-1.1.2-.1.3-.2.5-.2.4 0 .5.1.5.6.1.5.1.7-.4.7m1.3-3.5c-.4-.1-.9-.1-1.1-.1-1.2 0-1.9.3-1.9 2.3 0 1.7.4 2.2 1.7 2.2 1.3 0 1.6-.5 1.6-1.6 0-.9-.3-1.3-1.3-1.3-.4 0-.6.1-.9.3 0-.8.2-1 .7-1h1.1l.1-.8zm-4.2 3.2c-.3 0-.4.1-.4.4v.3c0 .3.1.4.4.4h.3c.3 0 .4-.1.4-.4v-.3c0-.3-.1-.4-.4-.4h-.3zm-1.1 1.1v-4.3h-1.2l-1.1.4.1.7 1-.2v3.4h1.2z" style="clip-path:url(#SVGID_6_);fill:#39363a"/><path d="M632.5 225.4v24.5m1.5-23.1h5.4v4.1H634zm-177.4 3.6v8m-24.1 138h5.6v4.1h-5.6zm-190.1 0h5.6v4.1h-5.6zm43.9-.7h12.3v16.6h-12.3z" class="st12"/><defs><path id="SVGID_7_" d="M24 32.7h633.4V532H24z"/></defs><clipPath id="SVGID_8_"><use xlink:href="#SVGID_7_" style="overflow:visible"/></clipPath><path d="M378.9 376.9h-.5v-1.8h-.9l-.2.7v1.1h-.8c-.1 0-.2-.1-.1-.2l.9-2.4h-1.1l-1.1 2.7c-.1.3.1.7.5.7h1.7v.9h1.1v-.9l.5-.1v-.7zm-4.8.7c-.3 0-.4.1-.4.4v.3c0 .3.1.4.4.4h.3c.3 0 .4-.1.4-.4v-.3c0-.3-.1-.4-.4-.4h-.3zm-3.9-2.4h1.2c.4 0 .6.1.6.4 0 .3 0 .5-.5.5h-.8v.8h.8c.5 0 .6.1.6.5s-.2.5-.7.5h-1.2v.8c.5.1 1 .1 1.5.1 1.1 0 1.6-.4 1.5-1.3 0-.7-.2-1-.8-1.1.6-.1.7-.5.7-1.1 0-.8-.4-1-1.5-1-.5 0-1 0-1.4.1v.8zm9.7-7.2h-1.2l-.5 1.8c0 .1-.1.3-.1.5h-.1c0-.2-.1-.4-.1-.5l-.5-1.8h-1.2l1 2.8c.1.2.2.3.4.3h.2c-.1.2-.2.3-.3.4-.2.1-.5.1-.9.1l-.1.7c.4.1.9.1 1.3-.1.5-.2.8-.5 1.1-1.2l1-3zm-6.1 3.6 2.5-4.8h-.9l-2.5 4.8h.9zm-1.3-1.4h-1.4c-.5 0-.7-.3-.7-1.2 0-1 .1-1.2.7-1.2h1.3l.1-.9c-.4-.1-.7-.2-1.4-.2-1.4 0-1.9.6-1.9 2.2s.5 2.2 1.9 2.2c.6 0 1 0 1.5-.2l-.1-.7zm-60 6.7h-.5v-1.8h-.9l-.2.7v1.1h-.8c-.1 0-.2-.1-.1-.2l.9-2.4h-1.1l-1.1 2.7c-.1.3.1.7.5.7h1.7v.9h1.1v-.9l.5-.1v-.7zm-4.8.7c-.3 0-.4.1-.4.4v.3c0 .3.1.4.4.4h.3c.3 0 .4-.1.4-.4v-.3c0-.3-.1-.4-.4-.4h-.3zm-3.9-2.4h1.2c.4 0 .6.1.6.4 0 .3 0 .5-.5.5h-.8v.8h.8c.5 0 .6.1.6.5s-.2.5-.7.5h-1.2v.8c.5.1 1 .1 1.5.1 1.1 0 1.6-.4 1.5-1.3 0-.7-.2-1-.8-1.1.6-.1.7-.5.7-1.1 0-.8-.4-1-1.5-1-.5 0-1 0-1.4.1v.8zm9.7-7.2h-1.2l-.5 1.8c0 .1-.1.3-.1.5h-.1c0-.2-.1-.4-.1-.5l-.5-1.8h-1.2l1 2.8c.1.2.2.3.4.3h.2c-.1.2-.2.3-.3.4-.2.1-.5.1-.9.1l-.1.7c.4.1.9.1 1.3-.1.5-.2.8-.5 1.1-1.2l1-3zm-6.1 3.6 2.5-4.8h-.9l-2.5 4.8h.9zm-1.3-1.4h-1.4c-.5 0-.7-.3-.7-1.2 0-1 .1-1.2.7-1.2h1.3l.1-.9c-.4-.1-.7-.2-1.4-.2-1.4 0-1.9.6-1.9 2.2s.5 2.2 1.9 2.2c.6 0 1 0 1.5-.2l-.1-.7z" style="clip-path:url(#SVGID_8_);fill:#39363a"/><path d="M61.4 227h15.1v15.1H61.4zm-14.7 75.7v-24.4m-7 19h5.4v4.1h-5.4zm0 30.8h5.4v4.1h-5.4z" class="st12"/><path d="M37.9 339.9h8.9v-31.5" class="st12"/><defs><path id="SVGID_9_" d="M24 32.7h633.4V532H24z"/></defs><clipPath id="SVGID_10_"><use xlink:href="#SVGID_9_" style="overflow:visible"/></clipPath><path d="M89.5 250.9h-.4c-.3 0-.3-.1-.3-.4 0-.2.1-.3.3-.3h.4v.7zm-1.2.3c-.2 0-.5.1-.6.3l-.2 1h1.2l.2-.8c0-.1.1-.2.3-.2h.4v1h1.1v-3.1h-1.6c-1.1 0-1.4.2-1.4 1-.1.4.1.7.6.8zm-3.3.3c0-.1.1-.2.3-.2h.7v.4c-.2.1-.4.2-.6.2-.2 0-.3-.1-.3-.3v-.1zm-.9-1.2h1.3c.3 0 .4.1.4.4v.1h-1c-.6 0-1 .3-1 .8v.3c0 .6.5.9 1 .9s.9-.3 1.1-.5l.1.5h1v-2c0-.9-.5-1.2-1.3-1.2-.5 0-1.2.1-1.7.2l.1.5zm-.8-.8h-1.1v1.1h-1v-1.1h-1.1v3.1h1.1v-1.3h1v1.3h1.1v-3.1zm-3.8 0h-1.1v1.1h-.9v-1.1h-1.1v3.1h1.1v-1.3h.9v1.3h1.1v-3.1zm-5.9 2c0-.1.1-.2.3-.2h.6v.4c-.2.1-.4.2-.6.2-.2 0-.3-.1-.3-.3v-.1zm-.8-1.2h1.3c.3 0 .4.1.4.4v.1h-1c-.6 0-1 .3-1 .8v.3c0 .6.5.9 1 .9s.9-.3 1.1-.5l.1.5h.9v-2c0-.9-.5-1.2-1.3-1.2-.5 0-1.2.1-1.7.2l.2.5zm-3 1.5v-1.1h.6c.4 0 .6.1.6.6 0 .4-.1.5-.5.5h-.7zm0-1.8v-1h.6c.4 0 .5.1.5.5s-.1.5-.5.5h-.6zm1.4.3c.5 0 .8-.4.8-1 0-.9-.4-1.1-1.6-1.1h-1.8v4.3h2c1.1 0 1.5-.2 1.5-1.1 0-.6-.2-1-.9-1.1zm61.4 19.4c.2-.1.3-.2.6-.2s.4.1.4.8c0 .7-.1.8-.4.8-.2 0-.4-.1-.5-.1v-1.3zm-.2-.9h-.9v4.3h1.1v-1.4c.3.2.6.3 1 .3.8 0 1.2-.3 1.2-1.6 0-1.1-.3-1.7-1.1-1.7-.5 0-1 .2-1.2.5l-.1-.4zm-3.1.7c.4 0 .5.2.5.8 0 .7-.1.8-.5.8s-.5-.1-.5-.8c0-.6.1-.8.5-.8m0-.8c-1.2 0-1.7.4-1.7 1.6 0 1.2.4 1.6 1.7 1.6 1.2 0 1.7-.4 1.7-1.6-.1-1.2-.5-1.6-1.7-1.6m-3.6 2.4h-.9c.2-.4.3-.8.4-1.4 0-.2.1-.3.3-.3h.3v1.7zm1.6 0h-.5v-2.3h-1.7c-.6 0-.8.3-.9.8-.1.5-.2 1.1-.4 1.6h-.4v1.6h.7l.1-.9h2.2l.1.9h.8v-1.7zm-4.3.8v-3.1h-1l-1 1.5c-.1.1-.2.3-.2.5v-2h-1v3.1h1l1-1.4c.1-.1.2-.4.3-.5v1.9h.9zm-5.9-2.2c.2-.1.3-.2.6-.2s.4.1.4.8c0 .7-.1.8-.4.8-.2 0-.4-.1-.5-.1v-1.3zm-.2-.9h-.9v4.3h1.1v-1.4c.3.2.6.3 1 .3.8 0 1.2-.3 1.2-1.6 0-1.1-.3-1.7-1.1-1.7-.5 0-1 .2-1.2.5l-.1-.4zm-3.2.7c.4 0 .5.2.5.8 0 .7-.1.8-.5.8s-.5-.1-.5-.8c0-.6.1-.8.5-.8m0-.8c-1.2 0-1.7.4-1.7 1.6 0 1.2.4 1.6 1.7 1.6 1.2 0 1.7-.4 1.7-1.6 0-1.2-.5-1.6-1.7-1.6m-3.3.9c.9-.1.9-.5 1.4-2h-1.2c-.3 1.3-.4 1.7-1 1.7h-.2v-1.6h-1.2v4.3h1.2v-1.8h.2c.6 0 .6.3 1.1 1.8h1.2c-.6-1.9-.7-2.2-1.5-2.4zM423 348.8h-.5V347h-.9l-.2.7v1.1h-.8c-.1 0-.2-.1-.1-.2l.9-2.4h-1.1l-1.1 2.7c-.1.3.1.7.5.7h1.7v.9h1.1v-.9l.5-.1v-.7zm-4.8.6c-.3 0-.4.1-.4.4v.3c0 .3.1.4.4.4h.3c.3 0 .4-.1.4-.4v-.3c0-.3-.1-.4-.4-.4h-.3zm-1.1-2.3v-.9h-2.7l-.1 1.9c0 .2.1.4.3.4l.7.1c.6 0 .8.1.8.5s-.1.5-.7.5c-.3 0-.7 0-1.1-.1l-.1.9c.5.1 1.1.1 1.5.1 1.2 0 1.6-.6 1.6-1.4 0-.7-.3-1.3-1.3-1.4l-.7-.1v-.6h1.8zm16-5.8h-.4c-.3 0-.3-.1-.3-.4 0-.2.1-.3.3-.3h.4v.7zm-1.2.4c-.2 0-.5.1-.6.3l-.2 1h1.2l.2-.8c0-.1.1-.2.3-.2h.4v1h1.1v-3.1h-1.6c-1.1 0-1.4.2-1.4 1-.1.3.1.7.6.8zm-3.3.2c0-.1.1-.2.3-.2h.6v.4c-.2.1-.4.2-.6.2-.2 0-.3-.1-.3-.3v-.1zm-.9-1.2h1.3c.3 0 .4.1.4.4v.1h-1c-.6 0-1 .3-1 .8v.3c0 .6.5.9 1 .9s.9-.3 1.1-.5l.1.5h.9v-2c0-.9-.5-1.2-1.3-1.2-.5 0-1.2.1-1.7.2l.2.5zm-1.7.7c.7-.1.7-.2 1.1-1.5H426c-.3 1-.4 1.1-.7 1.1h-.2v-1.1h-1v1.1h-.1c-.3 0-.4-.1-.7-1.1h-1.1c.4 1.3.4 1.4 1.1 1.5-.8.1-.8.2-1.2 1.6h1.1c.4-1.2.4-1.2.7-1.3h.2v1.3h1v-1.3h.2c.3 0 .3.1.7 1.3h1.1c-.3-1.4-.4-1.5-1.1-1.6zm-5.8-.8c.4 0 .5.2.5.8 0 .7-.1.8-.5.8s-.5-.2-.5-.8c0-.6.1-.8.5-.8m0-.8c-1.2 0-1.7.4-1.7 1.6 0 1.2.5 1.6 1.7 1.6s1.7-.4 1.7-1.6c0-1.1-.5-1.6-1.7-1.6m-2.9 3.2h1.1l-.9-1.6.9-1.5h-1.1l-.6 1.2-.6-1.2H415l.8 1.5-.9 1.6h1.1l.7-1.2.6 1.2zm-2.9 0v-3.1h-1l-1 1.5c-.1.1-.2.3-.2.5v-2h-1v3.1h1l1-1.4c.1-.1.2-.4.3-.5v1.9h.9zm-5.9-2.1c.2-.1.3-.2.6-.2s.4.1.4.8c0 .7-.1.8-.4.8-.2 0-.4-.1-.5-.1v-1.3zm-.2-1h-.9v4.3h1.1v-1.4c.3.2.6.3 1 .3.8 0 1.2-.3 1.2-1.6 0-1.1-.3-1.7-1.1-1.7-.5 0-1 .2-1.2.5l-.1-.4zm-1.7-1.2H403v4.3h1.2v-3.5h1.3v3.5h1.2v-4.3zm-139 10.1h-.5V347h-.9l-.2.7v1.1h-.8c-.1 0-.2-.1-.1-.2l.9-2.4h-1.1l-1.1 2.7c-.1.3.1.7.5.7h1.7v.9h1.1v-.9l.5-.1v-.7zm-4.8.6c-.3 0-.4.1-.4.4v.3c0 .3.1.4.4.4h.3c.3 0 .4-.1.4-.4v-.3c0-.3-.1-.4-.4-.4h-.3zm-1-2.3v-.9h-2.7l-.1 1.9c0 .2.1.4.3.4l.7.1c.6 0 .8.1.8.5s-.1.5-.7.5c-.3 0-.7 0-1.1-.1l-.1.9c.6.1 1.1.1 1.5.1 1.2 0 1.6-.6 1.6-1.4 0-.7-.3-1.3-1.3-1.4l-.7-.1v-.6h1.8zm15.9-5.8h-.4c-.3 0-.4-.1-.4-.4 0-.2.1-.3.4-.3h.4v.7zm-1.2.4c-.2 0-.5.1-.6.3l-.2 1h1.2l.2-.8c0-.1.1-.2.3-.2h.4v1h1.1v-3.1h-1.6c-1.1 0-1.4.2-1.4 1-.1.3.1.7.6.8zm-3.3.2c0-.1.1-.2.3-.2h.7v.4c-.2.1-.4.2-.6.2-.2 0-.3-.1-.3-.3v-.1zm-.9-1.2h1.3c.3 0 .4.1.4.4v.1h-1c-.6 0-1 .3-1 .8v.3c0 .6.5.9 1 .9s.9-.3 1.1-.5l.1.5h.9v-2c0-.9-.5-1.2-1.3-1.2-.5 0-1.2.1-1.7.2l.2.5zm-1.7.7c.7-.1.7-.2 1.1-1.5h-1.1c-.3 1-.4 1.1-.7 1.1h-.2v-1.1h-1v1.1h-.2c-.3 0-.3-.1-.7-1.1h-1.1c.4 1.3.4 1.4 1.1 1.5-.8.1-.8.2-1.2 1.6h1.1c.4-1.2.4-1.2.7-1.3h.2v1.3h1v-1.3h.2c.3 0 .3.1.7 1.3h1.1c-.2-1.4-.2-1.5-1-1.6zm-5.8-.8c.4 0 .5.2.5.8 0 .7-.1.8-.5.8s-.5-.2-.5-.8c0-.6.1-.8.5-.8m0-.8c-1.2 0-1.7.4-1.7 1.6 0 1.2.4 1.6 1.7 1.6 1.2 0 1.7-.4 1.7-1.6 0-1.1-.5-1.6-1.7-1.6m-2.9 3.2h1.1l-.9-1.6.8-1.5h-1.1l-.6 1.2-.6-1.2h-1.1l.9 1.5-.9 1.6h1.1l.7-1.2.6 1.2zm-2.9 0v-3.1h-1l-1 1.5c-.1.1-.2.3-.2.5v-2h-1v3.1h1l1-1.4c.1-.1.2-.4.3-.5v1.9h.9zm-5.9-2.1c.2-.1.3-.2.6-.2s.4.1.4.8c0 .7-.1.8-.4.8-.2 0-.4-.1-.5-.1v-1.3zm-.2-1h-.9v4.3h1.1v-1.4c.3.2.6.3 1 .3.8 0 1.2-.3 1.2-1.6 0-1.1-.3-1.7-1.1-1.7-.5 0-1 .2-1.2.5l-.1-.4zm-1.6-1.2h-3.6v4.3h1.2v-3.5h1.3v3.5h1.2v-4.3zM83.5 255.8v-.9h-2.7l-.1 1.9c0 .2.1.4.3.4l.7.1c.6.1.8.1.8.5 0 .3-.2.5-.7.5-.3 0-.7 0-1.1-.1l-.1.9c.6.1 1.1.1 1.5.1 1.2 0 1.6-.6 1.6-1.4 0-.7-.3-1.3-1.3-1.4l-.7-.1v-.6h1.8zm-4 2.4c-.3 0-.4.1-.4.4v.3c0 .3.1.4.4.4h.3c.3 0 .4-.1.4-.4v-.3c0-.3-.1-.4-.4-.4h-.3zm-3.9-2.4h1.2c.4 0 .6.1.6.4 0 .3 0 .5-.5.5H76v.8h.8c.5 0 .6.1.6.5s-.2.5-.7.5h-1.2v.8c.5.1 1 .1 1.5.1 1.1 0 1.6-.4 1.5-1.3 0-.7-.2-1-.8-1.1.6-.1.7-.5.7-1.1 0-.8-.4-1-1.5-1-.5 0-1 0-1.4.1l.1.8zm48.3 19.2c.5 0 .6.2.6 1.3s-.1 1.3-.6 1.3-.6-.2-.6-1.3.2-1.3.6-1.3m0-.8c-1.3 0-1.8.6-1.8 2.2s.4 2.2 1.8 2.2c1.3 0 1.8-.6 1.8-2.2s-.4-2.2-1.8-2.2m-2.9 3.3c-.3 0-.4.1-.4.4v.3c0 .3.1.4.4.4h.3c.3 0 .4-.1.4-.4v-.3c0-.3-.1-.4-.4-.4h-.3zm-3.9-2.4h1.2c.4 0 .6.1.6.4 0 .3 0 .5-.5.5h-.8v.8h.8c.5 0 .6.1.6.5s-.2.5-.7.5h-1.2v.8c.5.1 1 .1 1.5.1 1.1 0 1.6-.4 1.5-1.3 0-.7-.2-1-.8-1.1.6-.1.7-.5.7-1.1 0-.8-.4-1-1.5-1-.5 0-1 0-1.4.1v.8zm-34.9 11H81l-.5 1.8c0 .1-.1.3-.1.5h-.1c0-.2-.1-.4-.1-.5l-.5-1.8h-1.2l1 2.8c.1.2.2.3.4.3h.2c-.1.2-.2.3-.3.4-.2.1-.5.1-.9.1l-.1.7c.4.1.9.1 1.3-.1.5-.2.8-.5 1.1-1.2l1-3zm-6.1 3.6 2.5-4.8h-.9l-2.5 4.8h.9zm-1.2-1.4h-1.4c-.5 0-.7-.3-.7-1.2 0-1 .1-1.2.7-1.2h1.3l.1-.9c-.4-.1-.7-.2-1.4-.2-1.4 0-1.9.6-1.9 2.2s.5 2.2 1.9 2.2c.6 0 1 0 1.5-.2l-.1-.7zm4.2 6.8c-.5 0-.6-.2-.6-1.1.2-.1.3-.2.6-.2.4 0 .5.1.5.6s-.1.7-.5.7m1.3-3.5c-.4-.1-.9-.1-1.1-.1-1.3 0-1.9.3-1.9 2.3 0 1.7.4 2.2 1.7 2.2 1.3 0 1.6-.5 1.6-1.6 0-.9-.3-1.3-1.3-1.3-.4 0-.6.1-.9.3 0-.8.2-.9.7-.9h1.1l.1-.9zm-4.2 3.2c-.3 0-.4.1-.4.4v.3c0 .3.1.4.4.4h.3c.3 0 .4-.1.4-.4v-.3c0-.3-.1-.4-.4-.4h-.3zm-1.2 1.1v-4.3h-1.2l-1.1.4.1.7 1-.2v3.4H75z" style="clip-path:url(#SVGID_10_);fill:#39363a"/><path d="m422.1 180-32-62m0 62 32-62m.2 108.5L390 198.8m0 27.7 32.3-27.7" class="st12"/><defs><path id="SVGID_11_" d="M24 32.7h633.4V532H24z"/></defs><clipPath id="SVGID_12_"><use xlink:href="#SVGID_11_" style="overflow:visible"/></clipPath><path d="M202.8 397.8v-16.4h-4.4l-4.2 1.6.5 2.8 3.8-.9c-.1.7-.2 1.3-.2 2v10.9h4.5zm-11.2-4c-1.1 0-1.5.4-1.5 1.5v1c0 1.1.4 1.5 1.5 1.5h1c1.1 0 1.5-.4 1.5-1.5v-1c0-1.1-.4-1.5-1.5-1.5h-1zm-14.8-9.2h4.6c1.7 0 2.1.2 2.1 1.5 0 1.1-.1 1.8-1.9 1.8h-3.1v2.9h3.1c1.8 0 2.1.5 2.1 1.9 0 1.7-.6 2-2.7 2-1.4 0-2.5 0-4.5-.1l-.1 3.2c1.9.3 3.9.5 5.9.5 4.4 0 5.9-1.4 5.9-4.9 0-2.5-.7-3.8-3-4.1v-.3c2.1-.3 2.6-1.8 2.6-4.1 0-2.9-1.5-3.8-5.5-3.8-1.8 0-3.6.1-5.5.5v3zm-1.9 6.8h-2v-6.8h-3.4l-.7 2.6v4.2h-3.2c-.4 0-.6-.2-.4-.7l3.6-9.3h-4.2l-4.1 10.4c-.5 1.3.4 2.5 1.7 2.5h6.6v3.4h4.1v-3.4l1.9-.4v-2.5z" class="st16"/><circle cx="185.4" cy="362.9" r="14.6" class="st17" transform="rotate(-13.286 185.334 362.81)"/><path d="M190.9 362.6c2.5-.3 2.5-1.4 3.9-5.9h-3.4c-1 3.7-1.2 4.8-3 4.8h-.6c.1-.5.1-1 .1-1.5v-3.3h-3.4v12.4h3.4V365c0-.3-.1-.8-.1-1.2h.6c1.7 0 1.9.8 3.2 5.3h3.5c-1.5-5.1-1.7-6.1-4.3-6.4v-.1zm-8.9 6.6v-12.4h-3.4l-3.2 1.2.4 2.1 2.9-.6c-.1.5-.1 1-.1 1.5v8.2h3.4zm425 15.4h4.6c1.7 0 2.1.2 2.1 1.5 0 1.1-.1 1.8-1.9 1.8h-3.1v2.9h3.1c1.8 0 2.1.5 2.1 1.9 0 1.7-.6 2-2.7 2-1.4 0-2.5 0-4.5-.1l-.1 3.2c1.9.3 3.9.5 5.9.5 4.4 0 5.9-1.4 5.9-4.9 0-2.5-.7-3.8-3-4.1v-.3c2.1-.3 2.6-1.8 2.6-4.1 0-2.9-1.5-3.8-5.5-3.8-1.8 0-3.6.1-5.5.5v3zm-4.8 9.2c-1.1 0-1.5.4-1.5 1.5v1c0 1.1.4 1.5 1.5 1.5h1c1.1 0 1.5-.4 1.5-1.5v-1c0-1.1-.4-1.5-1.5-1.5h-1zm-3.9-9.1.2-3.3h-10.3l-.4 7.4c0 .8.5 1.4 1.3 1.5l2.5.3c2.2.2 3 .5 3 2-.1 1.3-.6 1.9-2.7 1.9-1.2 0-2.7-.1-4.3-.2l-.4 3.4c2.1.3 4.2.5 5.8.5 4.7 0 6-2.4 6-5.4 0-2.6-1-5-4.8-5.4l-2.7-.4.2-2.3h6.6zm-18.8 10.1c-1.9 0-2.1-.6-2.1-4.2.8-.5 1.3-.6 2.1-.6 1.6 0 1.9.4 1.9 2.2.1 1.9 0 2.6-1.9 2.6m5-13.2c-1.7-.5-3.4-.5-4.2-.5-4.8 0-7.2 1.2-7.2 8.7 0 6.7 1.5 8.3 6.4 8.3 5 0 6.1-1.9 6.1-6 0-3.6-1.1-5.1-4.8-5.1-1.5 0-2.5.2-3.4 1 .1-3.1.7-3.6 2.8-3.6h4l.3-2.8z" class="st16"/><circle cx="595.7" cy="362.9" r="14.6" class="st17" transform="rotate(-26.565 595.766 362.891)"/><path d="M602.6 362.6c2.5-.3 2.5-1.4 3.9-5.9H603c-1 3.7-1.2 4.8-3 4.8h-.6c.1-.5.1-1 .1-1.6v-3.3h-3.4V369h3.4v-4c0-.3-.1-.8-.1-1.2h.6c1.7 0 1.9.8 3.2 5.3h3.5c-1.5-5.1-1.7-6.1-4.3-6.4v-.1zm-17.2-3.1c1.7-.1 2.6-.1 3.9-.1 1 0 1.4.1 1.4.6 0 .7-.8 1.8-2.2 3.2l-2.8 2.9c-.4.4-.5.8-.5 1.4v1.8h9.3v-2.9h-3.6c-.6 0-1.2 0-1.7.2l3.1-3c1.6-1.7 1.9-2.5 1.9-3.9 0-2.4-1.7-3-4.4-3-1.4 0-2.6.1-4.4.4v2.4zm-70.7 38.3v-16.4h-4.4l-4.2 1.6.5 2.8 3.8-.9c-.1.7-.2 1.3-.2 2v10.9h4.5zm-11.3-4c-1.1 0-1.5.4-1.5 1.5v1c0 1.1.4 1.5 1.5 1.5h1c1.1 0 1.5-.4 1.5-1.5v-1c0-1.1-.4-1.5-1.5-1.5h-1zm-14.8-9.2h4.6c1.7 0 2.1.2 2.1 1.5 0 1.1-.1 1.8-1.9 1.8h-3.1v2.9h3.1c1.8 0 2.1.5 2.1 1.9 0 1.7-.6 2-2.7 2-1.4 0-2.5 0-4.5-.1l-.1 3.2c1.9.3 3.9.5 5.9.5 4.4 0 5.9-1.4 5.9-4.9 0-2.5-.7-3.8-3-4.1v-.3c2.1-.3 2.6-1.8 2.6-4.1 0-2.9-1.5-3.8-5.5-3.8-1.8 0-3.6.1-5.5.5v3zm-1.9 6.8h-2v-6.8h-3.4l-.7 2.6v4.2h-3.2c-.4 0-.6-.2-.4-.7l3.6-9.3h-4.2l-4.1 10.4c-.5 1.3.4 2.5 1.7 2.5h6.6v3.4h4.1v-3.4l1.9-.4v-2.5z" class="st16"/><circle cx="494.2" cy="362.9" r="14.6" class="st17" transform="rotate(-10.9 494.25 362.891)"/><path d="M499.8 362.6c2.5-.3 2.5-1.4 3.9-5.9h-3.4c-1 3.7-1.2 4.8-3 4.8h-.6c.1-.5.1-1 .1-1.5v-3.3h-3.4v12.4h3.4V365c0-.3-.1-.8-.1-1.2h.6c1.7 0 1.9.8 3.2 5.3h3.5c-1.5-5.1-1.7-6.1-4.3-6.4v-.1zm-8.9 6.6v-12.4h-3.4l-3.2 1.2.4 2.1 2.9-.6c-.1.5-.1 1-.1 1.5v8.2h3.4z" class="st16"/><path d="M243.8 120.2h25.1v9.7h-25.1zm26.9 0h4.4v76.9h-4.4z" class="st12"/><path d="M240.4 120.2h64.3v76.9h-64.3z" class="st12"/><path d="m569.7 209.3-.8-1.2-23.4 14 .8 1.3zm.8 31.8-1.2-.7 11.8-19.6 1.3.8zm.1 29.3-1.3.8 11.8 19.6 1.3-.8zm-1 47.7-.8 1.3-23.3-14.1.8-1.2z" class="st11"/><defs><path id="SVGID_13_" d="M24 32.7h633.4V532H24z"/></defs><clipPath id="SVGID_14_"><use xlink:href="#SVGID_13_" style="overflow:visible"/></clipPath><path d="M568.7 319.8s2.1-3.1 3.3-7.6c1.2-4.6 1.4-7.1 1.4-7.1m-4.4-33.8s3.1-2.1 7.6-3.3c4.6-1.2 7.1-1.4 7.1-1.4" style="clip-path:url(#SVGID_14_);stroke-width:.7;fill:none;stroke:#39363a"/><path d="m408.3 394.8.8 1.3 20.1-12.2-.8-1.2zm-5.4-34.7 1.3.7-10 16.6-1.3-.7z" class="st11"/><defs><path id="SVGID_15_" d="M24 32.7h633.4V532H24z"/></defs><clipPath id="SVGID_16_"><use xlink:href="#SVGID_15_" style="overflow:visible"/></clipPath><path d="M404.6 360.9s-3.1-2.1-7.6-3.3c-1.4-.4-2.6-.7-3.6-.9m15.8 39.7s-2.1-3.1-3.3-7.6c-1.2-4.6-1.4-7.1-1.4-7.1" style="clip-path:url(#SVGID_16_);fill:none;stroke:#39363a;stroke-width:.7"/><path d="m457 269.4 1.3.7-16.1 26.8-1.3-.8z" class="st11"/><defs><path id="SVGID_17_" d="M24 32.7h633.4V532H24z"/></defs><clipPath id="SVGID_18_"><use xlink:href="#SVGID_17_" style="overflow:visible"/></clipPath><path d="M458.6 270.2s-3.1-2.1-7.6-3.3c-4.6-1.2-7.1-1.4-7.1-1.4" style="clip-path:url(#SVGID_18_);fill:none;stroke:#39363a;stroke-width:.7"/><path d="m203.9 459.3.8-1.3 17.3 10.5-.7 1.3z" class="st11"/><defs><path id="SVGID_19_" d="M24 32.7h633.4V532H24z"/></defs><clipPath id="SVGID_20_"><use xlink:href="#SVGID_19_" style="overflow:visible"/></clipPath><path d="M204.8 457.7s-2.1 3.1-3.3 7.6c-.6 2.4-1 4.3-1.2 5.5" style="clip-path:url(#SVGID_20_);fill:none;stroke:#39363a;stroke-width:.7"/><path d="m476.1 459.4-.7-1.3-17.4 10.5.8 1.3z" class="st11"/><defs><path id="SVGID_21_" d="M24 32.7h633.4V532H24z"/></defs><clipPath id="SVGID_22_"><use xlink:href="#SVGID_21_" style="overflow:visible"/></clipPath><path d="M475.3 457.7s2.1 3.1 3.3 7.6c.6 2.4 1 4.3 1.2 5.5" style="clip-path:url(#SVGID_22_);fill:none;stroke:#39363a;stroke-width:.7"/><path d="m273.6 393.6-.6 1.3-21.2-10.6.6-1.4zm-163.4-75.7.6 1.3 23.4-11.7-.6-1.3zm-.4-105.9.6-1.3 27 13.4-.7 1.3z" class="st11"/><defs><path id="SVGID_23_" d="M24 32.7h633.4V532H24z"/></defs><clipPath id="SVGID_24_"><use xlink:href="#SVGID_23_" style="overflow:visible"/></clipPath><path d="M110.5 210.3s-2 3.1-3 7.8c-.9 4.4-1.2 8-1.3 9.2" style="clip-path:url(#SVGID_24_);fill:none;stroke:#39363a;stroke-width:.7"/><path d="m162 230.1-.6-1.3-27 13.5.7 1.3z" class="st11"/><defs><path id="SVGID_25_" d="M24 32.7h633.4V532H24z"/></defs><clipPath id="SVGID_26_"><use xlink:href="#SVGID_25_" style="overflow:visible"/></clipPath><path d="M161.3 228.5s2 3.1 3 7.8c.9 4.4 1.2 8 1.3 9.2" style="clip-path:url(#SVGID_26_);fill:none;stroke:#39363a;stroke-width:.7"/><path d="m225.5 268.3-1.3.6 13.4 26.9 1.4-.6z" class="st11"/><defs><path id="SVGID_27_" d="M24 32.7h633.4V532H24z"/></defs><clipPath id="SVGID_28_"><use xlink:href="#SVGID_27_" style="overflow:visible"/></clipPath><path d="M223.8 269s3.1-2 7.8-3c4.4-.9 8-1.2 9.2-1.3" style="clip-path:url(#SVGID_28_);fill:none;stroke:#39363a;stroke-width:.7"/><path d="m106 285.9 1.3.6-8.4 17.2-1.3-.6z" class="st11"/><defs><path id="SVGID_29_" d="M24 32.7h633.4V532H24z"/></defs><clipPath id="SVGID_30_"><use xlink:href="#SVGID_29_" style="overflow:visible"/></clipPath><path d="M107.4 286.6s-2-1.2-5-1.8c-2.8-.5-5.2-.7-5.9-.8" style="clip-path:url(#SVGID_30_);fill:none;stroke:#39363a;stroke-width:.7"/><path d="m106 257 1.3-.6-8.4-17.1-1.3.6z" class="st11"/><defs><path id="SVGID_31_" d="M24 32.7h633.4V532H24z"/></defs><clipPath id="SVGID_32_"><use xlink:href="#SVGID_31_" style="overflow:visible"/></clipPath><path d="M107.4 256.3s-2 1.2-5 1.8c-2.8.5-5.2.7-5.9.8" style="clip-path:url(#SVGID_32_);fill:none;stroke:#39363a;stroke-width:.7"/><path d="M293.4 96.6 292 96l13.5-27 1.4.6z" class="st11"/><defs><path id="SVGID_33_" d="M24 32.7h633.4V532H24z"/></defs><clipPath id="SVGID_34_"><use xlink:href="#SVGID_33_" style="overflow:visible"/></clipPath><path d="M291.7 95.9s3.1 2 7.8 3c4.4.9 8 1.2 9.2 1.3" style="clip-path:url(#SVGID_34_);fill:none;stroke:#39363a;stroke-width:.7"/><path d="m255 317.9.7 1.3 26.9-13.4-.7-1.3z" class="st11"/><defs><path id="SVGID_35_" d="M24 32.7h633.4V532H24z"/></defs><clipPath id="SVGID_36_"><use xlink:href="#SVGID_35_" style="overflow:visible"/></clipPath><path d="M255.8 319.6s-2-3.1-3-7.8c-.9-4.4-1.2-8-1.3-9.2m-140.6 17s-2-3.1-3-7.8c-.9-4.4-1.2-8-1.3-9.2" style="clip-path:url(#SVGID_36_);fill:none;stroke:#39363a;stroke-width:.7"/><path d="m225.5 348-1.3-.7 11.7-23.4 1.3.7z" class="st11"/><defs><path id="SVGID_37_" d="M24 32.7h633.4V532H24z"/></defs><clipPath id="SVGID_38_"><use xlink:href="#SVGID_37_" style="overflow:visible"/></clipPath><path d="M223.8 347.2s3.1 2 7.8 3c4.4.9 8 1.2 9.2 1.3m32.1 43.8s1.8-3.2 2.7-7.9c.5-2.5.7-4.3.8-5.5" style="clip-path:url(#SVGID_38_);fill:none;stroke:#39363a;stroke-width:.7"/><path d="m274.8 360.9-1.2.8 10.8 16.4 1.3-.8z" class="st11"/><defs><path id="SVGID_39_" d="M24 32.7h633.4V532H24z"/></defs><clipPath id="SVGID_40_"><use xlink:href="#SVGID_39_" style="overflow:visible"/></clipPath><path d="M274.7 361s3.2-1.8 7.9-2.7c2.5-.5 4.3-.7 5.5-.8" style="clip-path:url(#SVGID_40_);fill:none;stroke:#39363a;stroke-width:.7"/><path d="M344.6 326.3h5.6v4.1h-5.6zm-14.8 0h5.6v4.1h-5.6zm21.5-19.4v25.4" class="st12"/><path d="m207.1 127.5.8 1.3 17.3-10.5-.7-1.3z" class="st11"/><path d="M328.7 306.9v25.4m129.9-100.6h15.9v5.6h-15.9zm17.7 0h4.1v5.6h-4.1z" class="st12"/><defs><path id="SVGID_41_" d="M24 32.7h633.4V532H24z"/></defs><clipPath id="SVGID_42_"><use xlink:href="#SVGID_41_" style="overflow:visible"/></clipPath><path d="M208 129.2s-2.1-3.1-3.3-7.6c-.6-2.4-1-4.3-1.2-5.5" style="clip-path:url(#SVGID_42_);fill:none;stroke:#39363a;stroke-width:.7"/><path d="m473 127.5-.7 1.3-17.3-10.5.7-1.3z" class="st11"/><path d="M249.1 354v28.4m-11.3-28.1h11.6m182-.3v28.4" class="st12"/><defs><path id="SVGID_43_" d="M24 32.7h633.4V532H24z"/></defs><clipPath id="SVGID_44_"><use xlink:href="#SVGID_43_" style="overflow:visible"/></clipPath><path d="M45.2 228.7s-5.7 0-5.7 5.7v33.9s0 5.7 5.7 5.7h7.6s5.7 0 5.7-5.7v-33.9s0-5.7-5.7-5.7h-7.6z" class="st33"/><path d="M47 231.8s-5.7 0-5.7 5.7v27.6s0 5.7 5.7 5.7h4s5.7 0 5.7-5.7v-27.6s0-5.7-5.7-5.7h-4z" class="st33"/><path d="M45.8 235.6s-2.8 0-2.8 2.8v27.7s0 2.8 2.8 2.8h6.3s2.8 0 2.8-2.8v-27.7s0-2.8-2.8-2.8h-6.3z" class="st33"/><path d="M49 265.6c.5 0 .8-.4.8-.8 0-.5-.4-.8-.8-.8-.5 0-.8.4-.8.8-.1.5.3.8.8.8z" class="st33"/><path d="M59.5 225.6V277" class="st11"/><defs><path id="SVGID_45_" d="M24 32.7h633.4V532H24z"/></defs><clipPath id="SVGID_46_"><use xlink:href="#SVGID_45_" style="overflow:visible"/></clipPath><path d="M290.1 343.7s0-5.7 5.7-5.7h33.9s5.7 0 5.7 5.7v6.3s0 5.7-5.7 5.7h-33.9s-5.7 0-5.7-5.7v-6.3z" class="st34"/><path d="M293.3 345.3s0-5.7 5.7-5.7h27.6s5.7 0 5.7 5.7v3s0 5.7-5.7 5.7H299s-5.7 0-5.7-5.7v-3z" class="st34"/><path d="M297 344.1s0-2.8 2.8-2.8h27.7s2.8 0 2.8 2.8v5.5s0 2.8-2.8 2.8h-27.7s-2.8 0-2.8-2.8v-5.5z" class="st34"/><path d="M327 346.8c0 .4-.4.8-.8.8-.5 0-.8-.3-.8-.8 0-.4.4-.8.8-.8.5.1.8.4.8.8z" class="st34"/><path d="M287 356.7h51.4" class="st11"/><defs><path id="SVGID_47_" d="M24 32.7h633.4V532H24z"/></defs><clipPath id="SVGID_48_"><use xlink:href="#SVGID_47_" style="overflow:visible"/></clipPath><path d="M389.4 343.1s0-5.7-5.7-5.7h-33.2s-5.7 0-5.7 5.7v6.3s0 5.7 5.7 5.7h33.2s5.7 0 5.7-5.7v-6.3z" class="st35"/><path d="M386.3 344.7s0-5.7-5.7-5.7h-27s-5.7 0-5.7 5.7v3s0 5.7 5.7 5.7h27s5.7 0 5.7-5.7v-3z" class="st35"/><path d="M382.5 343.5s0-2.8-2.8-2.8h-27.2s-2.8 0-2.8 2.8v5.5s0 2.8 2.8 2.8h27.2s2.8 0 2.8-2.8v-5.5z" class="st35"/><path d="M353 346.2c0 .4.4.8.8.8.5 0 .8-.3.8-.8 0-.4-.4-.8-.8-.8-.4.1-.8.4-.8.8z" class="st35"/><path d="M392.4 356.1h-50.6" class="st11"/><path d="M442.7 354.3h-11.6" class="st12"/><defs><path id="SVGID_49_" d="M24 32.7h633.4V532H24z"/></defs><clipPath id="SVGID_50_"><use xlink:href="#SVGID_49_" style="overflow:visible"/></clipPath><path d="M472.2 129.2s2.1-3.1 3.3-7.6c.6-2.4 1-4.3 1.2-5.5" style="clip-path:url(#SVGID_50_);fill:none;stroke:#39363a;stroke-width:.7"/><path d="m518.6 228.3.6-1 26.8 16.1-.6 1z" class="st11"/><defs><path id="SVGID_51_" d="M24 32.7h633.4V532H24z"/></defs><clipPath id="SVGID_52_"><use xlink:href="#SVGID_51_" style="overflow:visible"/></clipPath><path d="M519.3 227s-2.1 3.1-3.3 7.6c-1.2 4.6-1.4 7.1-1.4 7.1m54.3-1.4s3.1 2.1 7.6 3.3c4.6 1.2 7.1 1.4 7.1 1.4m-14.8-37.3s2.1 3.1 3.3 7.6c1.2 4.6 1.4 7.1 1.4 7.1" style="clip-path:url(#SVGID_52_);fill:none;stroke:#39363a;stroke-width:.7"/><path d="M243.8 129.8h25.1v9.7h-25.1z" class="st12"/><path d="M243.8 139.4h25.1v9.7h-25.1z" class="st12"/><path d="M243.8 149h25.1v9.7h-25.1z" class="st12"/><path d="m455.7 348.1 1.2-.7-14-23.3-1.3.7z" class="st11"/><defs><path id="SVGID_53_" d="M24 32.7h633.4V532H24z"/></defs><clipPath id="SVGID_54_"><use xlink:href="#SVGID_53_" style="overflow:visible"/></clipPath><path d="M457.3 347.3s-3.1 2.1-7.6 3.3c-4.6 1.2-7.1 1.4-7.1 1.4" style="clip-path:url(#SVGID_54_);fill:none;stroke:#39363a;stroke-width:.7"/><path d="M243.8 158.6h25.1v9.7h-25.1z" class="st12"/><path d="m424.7 319.9-.7 1.2-26.8-16 .8-1.3z" class="st11"/><defs><path id="SVGID_55_" d="M24 32.7h633.4V532H24z"/></defs><clipPath id="SVGID_56_"><use xlink:href="#SVGID_55_" style="overflow:visible"/></clipPath><path d="M423.9 321.5s2.1-3.1 3.3-7.6c1.2-4.6 1.4-7.1 1.4-7.1" style="clip-path:url(#SVGID_56_);fill:none;stroke:#39363a;stroke-width:.7"/><path d="M243.8 168.2h25.1v9.7h-25.1z" class="st12"/><path d="M243.8 177.8h25.1v9.7h-25.1z" class="st12"/><path d="M243.8 187.4h25.1v9.7h-25.1zm33.3-67.2h25.1v9.7h-25.1z" class="st12"/><path d="M277.1 129.8h25.1v9.7h-25.1z" class="st12"/><path d="M277.1 139.4h25.1v9.7h-25.1z" class="st12"/><path d="M277.1 149h25.1v9.7h-25.1z" class="st12"/><path d="M277.1 158.6h25.1v9.7h-25.1z" class="st12"/><path d="M277.1 168.2h25.1v9.7h-25.1z" class="st12"/><path d="M277.1 177.8h25.1v9.7h-25.1z" class="st12"/><path d="M277.1 187.4h25.1v9.7h-25.1zm-21-67.2v77.2m2.2-4.9-2.2 4.4m-2.1-4.4 2.2 4.4m33.2.5v-77.2m-2.2 4.8 2.2-4.4m2.1 4.4-2.1-4.4" class="st12"/><path d="m319.916 242.408 23.545-14.014.665 1.117-23.545 14.014zm28.904-8.296.664-1.117 14.264 8.491-.665 1.117z" class="st11"/><defs><path id="SVGID_57_" d="M24 32.7h633.4V532H24z"/></defs><clipPath id="SVGID_58_"><use xlink:href="#SVGID_57_" style="overflow:visible"/></clipPath><path d="M348.8 234.2s-.9 1.7-1.1 3.2c-.2 1.5-.4 4-.4 4s-.2-4.7-1.2-7.4-2-4.4-2-4.4" style="clip-path:url(#SVGID_58_);fill:none;stroke:#39363a;stroke-width:.7"/><path d="M612.3 238.2c0-2.8 2.3-5.1 5.1-5.1h7.4c.5 0 .9.4.9.9v8.5c0 .5-.4.9-.9.9h-7.4c-2.8-.1-5.1-2.4-5.1-5.2m13.7 4.2V234c0-.7-.6-1.2-1.2-1.2h-7.4c-3 0-5.5 2.5-5.5 5.5s2.5 5.5 5.5 5.5h7.4c.7-.1 1.2-.7 1.2-1.4" class="st41"/><path d="M612.3 238.2c0-2.8 2.3-5.1 5.1-5.1h7.4c.5 0 .9.4.9.9v8.5c0 .5-.4.9-.9.9h-7.4c-2.8-.1-5.1-2.4-5.1-5.2zm13.7 4.2V234c0-.7-.6-1.2-1.2-1.2h-7.4c-3 0-5.5 2.5-5.5 5.5s2.5 5.5 5.5 5.5h7.4c.7-.1 1.2-.7 1.2-1.4z" class="st42"/><path d="M623.2 234.5v7.3s0 .1-.1.1h-5.6c-2.1 0-3.8-1.7-3.8-3.8 0-2.1 1.7-3.8 3.8-3.8l5.7.2c0-.1 0 0 0 0z" class="st42"/><path d="M623 234.6v7.2h-5.5c-2 0-3.6-1.6-3.6-3.6s1.6-3.6 3.6-3.6h5.5zm.4 7.3v-7.3c0-.1-.1-.3-.3-.3h-5.6c-2.2 0-3.9 1.8-3.9 3.9s1.8 3.9 3.9 3.9h5.6c.2 0 .3-.1.3-.2" class="st41"/><path d="M623 234.6v7.2h-5.5c-2 0-3.6-1.6-3.6-3.6s1.6-3.6 3.6-3.6h5.5zm.4 7.3v-7.3c0-.1-.1-.3-.3-.3h-5.6c-2.2 0-3.9 1.8-3.9 3.9s1.8 3.9 3.9 3.9h5.6c.2 0 .3-.1.3-.2z" class="st42"/><path d="M617.5 238.2c0-.5.4-1 1-1 .5 0 1 .4 1 1 0 .5-.4 1-1 1-.5 0-1-.5-1-1m2.3 0c0-.7-.6-1.3-1.3-1.3-.7 0-1.3.6-1.3 1.3 0 .7.6 1.3 1.3 1.3.7 0 1.3-.6 1.3-1.3" class="st41"/><path d="M617.5 238.2c0-.5.4-1 1-1 .5 0 1 .4 1 1 0 .5-.4 1-1 1-.5 0-1-.5-1-1zm2.3 0c0-.7-.6-1.3-1.3-1.3-.7 0-1.3.6-1.3 1.3 0 .7.6 1.3 1.3 1.3.7 0 1.3-.6 1.3-1.3z" class="st42"/><path d="m619.996 236.796 2.323-1.736.24.32-2.323 1.737z" class="st4"/><path d="m619.996 236.796 2.323-1.736.24.32-2.323 1.737z" class="st43"/><path d="m622.5 241-2.3-1.8-.3.3 2.4 1.8z" class="st4"/><path d="m622.5 241-2.3-1.8-.3.3 2.4 1.8z" class="st43"/><defs><path id="SVGID_59_" d="M24 32.7h633.4V532H24z"/></defs><clipPath id="SVGID_60_"><use xlink:href="#SVGID_59_" style="overflow:visible"/></clipPath><path d="M626.1 234.7c0-.8.6-1.4 1.4-1.4h1.9c.8 0 1.4.6 1.4 1.4v7.1c0 .8-.6 1.4-1.4 1.4h-1.9c-.8 0-1.4-.6-1.4-1.4v-7.1zm5.1 7v-7.1c0-1-.8-1.8-1.8-1.8h-1.9c-1 0-1.8.8-1.8 1.8v7.1c0 1 .8 1.8 1.8 1.8h1.9c1 0 1.8-.8 1.8-1.8" class="st44"/><path d="M626.1 234.7c0-.8.6-1.4 1.4-1.4h1.9c.8 0 1.4.6 1.4 1.4v7.1c0 .8-.6 1.4-1.4 1.4h-1.9c-.8 0-1.4-.6-1.4-1.4v-7.1zm5.1 7v-7.1c0-1-.8-1.8-1.8-1.8h-1.9c-1 0-1.8.8-1.8 1.8v7.1c0 1 .8 1.8 1.8 1.8h1.9c1 0 1.8-.8 1.8-1.8z" class="st45"/><path d="M627.9 238.2c0-.3.2-.5.5-.5s.5.2.5.5-.2.5-.5.5-.5-.2-.5-.5m1.4 0c0-.5-.4-.9-.9-.9s-.9.4-.9.9.4.9.9.9.9-.4.9-.9" class="st44"/><path d="M627.9 238.2c0-.3.2-.5.5-.5s.5.2.5.5-.2.5-.5.5-.5-.2-.5-.5zm1.4 0c0-.5-.4-.9-.9-.9s-.9.4-.9.9.4.9.9.9.9-.4.9-.9z" class="st45"/><path d="M633.7 300.1s5.7 0 5.7-5.7v-33.9s0-5.7-5.7-5.7h-7.6s-5.7 0-5.7 5.7v33.9s0 5.7 5.7 5.7h7.6z" class="st46"/><path d="M632 297s5.7 0 5.7-5.7v-27.6s0-5.7-5.7-5.7h-4.1s-5.7 0-5.7 5.7v27.6s0 5.7 5.7 5.7h4.1z" class="st46"/><path d="M633.1 293.2s2.8 0 2.8-2.8v-27.7s0-2.8-2.8-2.8h-6.3s-2.8 0-2.8 2.8v27.7s0 2.8 2.8 2.8h6.3z" class="st46"/><path d="M629.9 263.2c-.5 0-.8.4-.8.8 0 .5.4.8.8.8.5 0 .8-.4.8-.8.1-.5-.3-.8-.8-.8z" class="st46"/><path d="M619.4 301.8V253" class="st11"/><defs><path id="SVGID_61_" d="M24 32.7h633.4V532H24z"/></defs><clipPath id="SVGID_62_"><use xlink:href="#SVGID_61_" style="overflow:visible"/></clipPath><path d="M608.9 265.4c-3 0-5.4-2.4-5.4-5.4v-5.8c0-.5.4-.8.8-.8h12.3c.5 0 .8.4.8.8v5.8c0 3-2.4 5.4-5.4 5.4h-3.1zm7.6-12.3h-12.3c-.6 0-1.1.5-1.1 1.1v5.8c0 3.2 2.6 5.7 5.7 5.7h3.1c3.2 0 5.7-2.6 5.7-5.7v-5.8c0-.6-.5-1.1-1.1-1.1" class="st47"/><path d="M608.9 265.4c-3 0-5.4-2.4-5.4-5.4v-5.8c0-.5.4-.8.8-.8h12.3c.5 0 .8.4.8.8v5.8c0 3-2.4 5.4-5.4 5.4h-3.1zm7.6-12.3h-12.3c-.6 0-1.1.5-1.1 1.1v5.8c0 3.2 2.6 5.7 5.7 5.7h3.1c3.2 0 5.7-2.6 5.7-5.7v-5.8c0-.6-.5-1.1-1.1-1.1z" class="st48"/><path d="M608.9 264.1c-2.2 0-4.1-1.8-4.1-4.1v-3.4c0-.4.3-.7.7-.7h9.8c.4 0 .7.3.7.7v3.4c0 2.2-1.8 4.1-4.1 4.1h-3zm6.4-8.5h-9.8c-.6 0-1 .5-1 1v3.4c0 2.4 2 4.4 4.4 4.4h3.1c2.4 0 4.4-2 4.4-4.4v-3.4c-.1-.5-.6-1-1.1-1" class="st47"/><path d="M608.9 264.1c-2.2 0-4.1-1.8-4.1-4.1v-3.4c0-.4.3-.7.7-.7h9.8c.4 0 .7.3.7.7v3.4c0 2.2-1.8 4.1-4.1 4.1h-3zm6.4-8.5h-9.8c-.6 0-1 .5-1 1v3.4c0 2.4 2 4.4 4.4 4.4h3.1c2.4 0 4.4-2 4.4-4.4v-3.4c-.1-.5-.6-1-1.1-1z" class="st48"/><path d="M610.4 261.2c-.4 0-.7-.3-.7-.7 0-.4.3-.7.7-.7.4 0 .7.3.7.7 0 .4-.3.7-.7.7m0-1.6c-.5 0-1 .4-1 1 0 .5.4 1 1 1 .5 0 1-.4 1-1s-.5-1-1-1" class="st47"/><path d="M610.4 261.2c-.4 0-.7-.3-.7-.7 0-.4.3-.7.7-.7.4 0 .7.3.7.7 0 .4-.3.7-.7.7zm0-1.6c-.5 0-1 .4-1 1 0 .5.4 1 1 1 .5 0 1-.4 1-1s-.5-1-1-1z" class="st48"/><path d="M446.1 229.3h16.2v-16.2h-16.2v16.2zm-.3-16.6h17v17h-17v-17z" class="st4"/><path d="M446.1 229.3h16.2v-16.2h-16.2v16.2zm-.3-16.6h17v17h-17v-17z" class="st43"/><defs><path id="SVGID_63_" d="M24 32.7h633.4V532H24z"/></defs><clipPath id="SVGID_64_"><use xlink:href="#SVGID_63_" style="overflow:visible"/></clipPath><path d="M460.9 215.5c0-.4-.3-.7-.7-.7h-8.5c-.4 0-.7.3-.7.7v11.4c0 .4.3.7.7.7h8.5c.4 0 .7-.3.7-.7v-11.4zm-10.4 11.4v-11.4c0-.6.5-1.1 1.1-1.1h8.5c.6 0 1.1.5 1.1 1.1v11.4c0 .6-.5 1.1-1.1 1.1h-8.5c-.6 0-1.1-.5-1.1-1.1" style="clip-path:url(#SVGID_64_);fill:#39363a"/><path d="M460.9 215.5c0-.4-.3-.7-.7-.7h-8.5c-.4 0-.7.3-.7.7v11.4c0 .4.3.7.7.7h8.5c.4 0 .7-.3.7-.7v-11.4zm-10.4 11.4v-11.4c0-.6.5-1.1 1.1-1.1h8.5c.6 0 1.1.5 1.1 1.1v11.4c0 .6-.5 1.1-1.1 1.1h-8.5c-.6 0-1.1-.5-1.1-1.1z" style="clip-path:url(#SVGID_64_);fill:none;stroke:#39363a;stroke-width:.25"/><path d="M452.2 226.3h7.5V216h-7.5v10.3zm-.4-10.6h8.2v11h-8.2v-11z" class="st4"/><path d="M452.2 226.3h7.5V216h-7.5v10.3zm-.4-10.6h8.2v11h-8.2v-11z" class="st43"/><defs><path id="SVGID_65_" d="M24 32.7h633.4V532H24z"/></defs><clipPath id="SVGID_66_"><use xlink:href="#SVGID_65_" style="overflow:visible"/></clipPath><path d="M457.4 221.2c0-.5-.4-.9-.9-.9s-.9.4-.9.9.4.9.9.9c.4 0 .9-.4.9-.9m-2.3 0c0-.7.6-1.3 1.3-1.3.7 0 1.3.6 1.3 1.3 0 .7-.6 1.3-1.3 1.3-.7 0-1.3-.6-1.3-1.3" style="clip-path:url(#SVGID_66_);fill:#39363a"/><path d="M457.4 221.2c0-.5-.4-.9-.9-.9s-.9.4-.9.9.4.9.9.9c.4 0 .9-.4.9-.9zm-2.3 0c0-.7.6-1.3 1.3-1.3.7 0 1.3.6 1.3 1.3 0 .7-.6 1.3-1.3 1.3-.7 0-1.3-.6-1.3-1.3z" style="clip-path:url(#SVGID_66_);fill:none;stroke:#39363a;stroke-width:.25"/><path d="M343.4 412.2h15.5v-14.8h-15.5v14.8zm-.4-15.1h16.1v15.5H343v-15.5z" class="st4"/><path d="M343.4 412.2h15.5v-14.8h-15.5v14.8zm-.4-15.1h16.1v15.5H343v-15.5z" class="st43"/><defs><path id="SVGID_67_" d="M24 32.7h633.4V532H24z"/></defs><clipPath id="SVGID_68_"><use xlink:href="#SVGID_67_" style="overflow:visible"/></clipPath><path d="M357.4 399.6c0-.4-.3-.7-.7-.7h-8.1c-.4 0-.7.3-.7.7V410c0 .4.3.7.7.7h8.1c.4 0 .7-.3.7-.7v-10.4zm-9.8 10.4v-10.4c0-.5.5-1 1-1h8.1c.6 0 1 .4 1 1V410c0 .5-.5 1-1 1h-8.1c-.6 0-1-.5-1-1" style="clip-path:url(#SVGID_68_);fill:#39363a"/><path d="M357.4 399.6c0-.4-.3-.7-.7-.7h-8.1c-.4 0-.7.3-.7.7V410c0 .4.3.7.7.7h8.1c.4 0 .7-.3.7-.7v-10.4zm-9.8 10.4v-10.4c0-.5.5-1 1-1h8.1c.6 0 1 .4 1 1V410c0 .5-.5 1-1 1h-8.1c-.6 0-1-.5-1-1z" style="clip-path:url(#SVGID_68_);fill:none;stroke:#39363a;stroke-width:.25"/><path d="M349.1 409.5h7.1v-9.4h-7.1v9.4zm-.3-9.7h7.8v10.1h-7.8v-10.1z" class="st4"/><path d="M349.1 409.5h7.1v-9.4h-7.1v9.4zm-.3-9.7h7.8v10.1h-7.8v-10.1z" class="st43"/><defs><path id="SVGID_69_" d="M24 32.7h633.4V532H24z"/></defs><clipPath id="SVGID_70_"><use xlink:href="#SVGID_69_" style="overflow:visible"/></clipPath><path d="M354 404.8c0-.5-.4-.9-.9-.9s-.9.4-.9.9.4.9.9.9.9-.4.9-.9m-2.1 0c0-.6.6-1.2 1.2-1.2.7 0 1.2.5 1.2 1.2s-.6 1.2-1.2 1.2-1.2-.5-1.2-1.2" style="clip-path:url(#SVGID_70_);fill:#39363a"/><path d="M354 404.8c0-.5-.4-.9-.9-.9s-.9.4-.9.9.4.9.9.9.9-.4.9-.9zm-2.1 0c0-.6.6-1.2 1.2-1.2.7 0 1.2.5 1.2 1.2s-.6 1.2-1.2 1.2-1.2-.5-1.2-1.2z" style="clip-path:url(#SVGID_70_);fill:none;stroke:#39363a;stroke-width:.25"/><path d="M336.5 397.4H321v14.8h15.5v-14.8zm.3 15.2h-16.1v-15.5h16.1v15.5z" class="st4"/><path d="M336.5 397.4H321v14.8h15.5v-14.8zm.3 15.2h-16.1v-15.5h16.1v15.5z" class="st43"/><defs><path id="SVGID_71_" d="M24 32.7h633.4V532H24z"/></defs><clipPath id="SVGID_72_"><use xlink:href="#SVGID_71_" style="overflow:visible"/></clipPath><path d="M322.4 410c0 .4.3.7.7.7h8.1c.4 0 .7-.3.7-.7v-10.4c0-.4-.3-.7-.7-.7h-8.1c-.4 0-.7.3-.7.7V410zm9.9-10.4V410c0 .5-.5 1-1 1h-8.1c-.6 0-1-.4-1-1v-10.4c0-.5.5-1 1-1h8.1c.5 0 1 .5 1 1" style="clip-path:url(#SVGID_72_);fill:#39363a"/><path d="M322.4 410c0 .4.3.7.7.7h8.1c.4 0 .7-.3.7-.7v-10.4c0-.4-.3-.7-.7-.7h-8.1c-.4 0-.7.3-.7.7V410zm9.9-10.4V410c0 .5-.5 1-1 1h-8.1c-.6 0-1-.4-1-1v-10.4c0-.5.5-1 1-1h8.1c.5 0 1 .5 1 1z" style="clip-path:url(#SVGID_72_);fill:none;stroke:#39363a;stroke-width:.25"/><path d="M330.7 400.1h-7.1v9.4h7.1v-9.4zm.4 9.7h-7.8v-10.1h7.8v10.1z" class="st4"/><path d="M330.7 400.1h-7.1v9.4h7.1v-9.4zm.4 9.7h-7.8v-10.1h7.8v10.1z" class="st43"/><defs><path id="SVGID_73_" d="M24 32.7h633.4V532H24z"/></defs><clipPath id="SVGID_74_"><use xlink:href="#SVGID_73_" style="overflow:visible"/></clipPath><path d="M325.8 404.8c0 .5.4.9.9.9s.9-.4.9-.9-.4-.9-.9-.9c-.5.1-.9.4-.9.9m2.1 0c0 .6-.6 1.2-1.2 1.2-.7 0-1.2-.5-1.2-1.2s.6-1.2 1.2-1.2c.7 0 1.2.6 1.2 1.2" style="clip-path:url(#SVGID_74_);fill:#39363a"/><path d="M325.8 404.8c0 .5.4.9.9.9s.9-.4.9-.9-.4-.9-.9-.9c-.5.1-.9.4-.9.9zm2.1 0c0 .6-.6 1.2-1.2 1.2-.7 0-1.2-.5-1.2-1.2s.6-1.2 1.2-1.2c.7 0 1.2.6 1.2 1.2z" style="clip-path:url(#SVGID_74_);fill:none;stroke:#39363a;stroke-width:.25"/><path d="M63.9 309.9h-16v15.9h16v-15.9zm-16.3-.3h16.7v16.6H47.6v-16.6z" class="st4"/><path d="M63.9 309.9h-16v15.9h16v-15.9zm-16.3-.3h16.7v16.6H47.6v-16.6z" class="st43"/><defs><path id="SVGID_75_" d="M24 32.7h633.4V532H24z"/></defs><clipPath id="SVGID_76_"><use xlink:href="#SVGID_75_" style="overflow:visible"/></clipPath><path d="M61.5 324.4c.4 0 .7-.3.7-.7v-8.4c0-.4-.3-.7-.7-.7H50.3c-.4 0-.7.3-.7.7v8.4c0 .4.3.7.7.7h11.2zm-11.2-10.2h11.2c.6 0 1.1.5 1.1 1.1v8.4c0 .6-.5 1.1-1.1 1.1H50.3c-.6 0-1.1-.5-1.1-1.1v-8.4c.1-.6.5-1.1 1.1-1.1" style="clip-path:url(#SVGID_76_);fill:#39363a"/><path d="M61.5 324.4c.4 0 .7-.3.7-.7v-8.4c0-.4-.3-.7-.7-.7H50.3c-.4 0-.7.3-.7.7v8.4c0 .4.3.7.7.7h11.2zm-11.2-10.2h11.2c.6 0 1.1.5 1.1 1.1v8.4c0 .6-.5 1.1-1.1 1.1H50.3c-.6 0-1.1-.5-1.1-1.1v-8.4c.1-.6.5-1.1 1.1-1.1z" style="clip-path:url(#SVGID_76_);fill:none;stroke:#39363a;stroke-width:.25"/><path d="M61 315.8H50.9v7.3H61v-7.3zm-10.5-.3h10.8v8H50.5v-8z" class="st4"/><path d="M61 315.8H50.9v7.3H61v-7.3zm-10.5-.3h10.8v8H50.5v-8z" class="st43"/><defs><path id="SVGID_77_" d="M24 32.7h633.4V532H24z"/></defs><clipPath id="SVGID_78_"><use xlink:href="#SVGID_77_" style="overflow:visible"/></clipPath><path d="M55.9 320.9c.5 0 .9-.4.9-.9s-.4-.9-.9-.9-.9.4-.9.9.4.9.9.9m0-2.2c.7 0 1.3.6 1.3 1.3 0 .7-.6 1.3-1.3 1.3s-1.3-.6-1.3-1.3c0-.7.6-1.3 1.3-1.3" class="st63"/><path d="M55.9 320.9c.5 0 .9-.4.9-.9s-.4-.9-.9-.9-.9.4-.9.9.4.9.9.9zm0-2.2c.7 0 1.3.6 1.3 1.3 0 .7-.6 1.3-1.3 1.3s-1.3-.6-1.3-1.3c0-.7.6-1.3 1.3-1.3z" class="st64"/><path d="M356 366.8c0 3-2.4 5.4-5.4 5.4h-5.8c-.5 0-.8-.4-.8-.8v-12.3c0-.5.4-.8.8-.8h5.8c3 0 5.4 2.4 5.4 5.4v3.1zm-12.3-7.7v12.3c0 .6.5 1.1 1.1 1.1h5.8c3.2 0 5.7-2.6 5.7-5.7v-3.1c0-3.2-2.6-5.7-5.7-5.7h-5.8c-.6 0-1.1.5-1.1 1.1" class="st63"/><path d="M356 366.8c0 3-2.4 5.4-5.4 5.4h-5.8c-.5 0-.8-.4-.8-.8v-12.3c0-.5.4-.8.8-.8h5.8c3 0 5.4 2.4 5.4 5.4v3.1zm-12.3-7.7v12.3c0 .6.5 1.1 1.1 1.1h5.8c3.2 0 5.7-2.6 5.7-5.7v-3.1c0-3.2-2.6-5.7-5.7-5.7h-5.8c-.6 0-1.1.5-1.1 1.1z" class="st64"/><path d="M354.7 366.8c0 2.2-1.8 4.1-4.1 4.1h-3.4c-.4 0-.7-.3-.7-.7v-9.8c0-.4.3-.7.7-.7h3.4c2.2 0 4.1 1.8 4.1 4.1v3zm-8.5-6.4v9.8c0 .6.5 1 1 1h3.4c2.4 0 4.4-2 4.4-4.4v-3.1c0-2.4-2-4.4-4.4-4.4h-3.4c-.5 0-1 .5-1 1.1" class="st63"/><path d="M354.7 366.8c0 2.2-1.8 4.1-4.1 4.1h-3.4c-.4 0-.7-.3-.7-.7v-9.8c0-.4.3-.7.7-.7h3.4c2.2 0 4.1 1.8 4.1 4.1v3zm-8.5-6.4v9.8c0 .6.5 1 1 1h3.4c2.4 0 4.4-2 4.4-4.4v-3.1c0-2.4-2-4.4-4.4-4.4h-3.4c-.5 0-1 .5-1 1.1z" class="st64"/><path d="M351.8 365.2c0 .4-.3.7-.7.7-.4 0-.7-.3-.7-.7s.3-.7.7-.7c.4.1.7.4.7.7m-1.6 0c0 .5.4 1 1 1 .5 0 1-.4 1-1 0-.5-.4-1-1-1-.6.1-1 .5-1 1" class="st63"/><path d="M351.8 365.2c0 .4-.3.7-.7.7-.4 0-.7-.3-.7-.7s.3-.7.7-.7c.4.1.7.4.7.7zm-1.6 0c0 .5.4 1 1 1 .5 0 1-.4 1-1 0-.5-.4-1-1-1-.6.1-1 .5-1 1z" class="st64"/><path d="M323.8 367.5c0 3 2.4 5.4 5.4 5.4h5.8c.5 0 .8-.4.8-.8v-12.3c0-.5-.4-.8-.8-.8h-5.8c-3 0-5.4 2.4-5.4 5.4v3.1zm12.3-7.7v12.3c0 .6-.5 1.1-1.1 1.1h-5.8c-3.2 0-5.7-2.6-5.7-5.7v-3.1c0-3.2 2.6-5.7 5.7-5.7h5.8c.6 0 1.1.5 1.1 1.1" class="st63"/><path d="M323.8 367.5c0 3 2.4 5.4 5.4 5.4h5.8c.5 0 .8-.4.8-.8v-12.3c0-.5-.4-.8-.8-.8h-5.8c-3 0-5.4 2.4-5.4 5.4v3.1zm12.3-7.7v12.3c0 .6-.5 1.1-1.1 1.1h-5.8c-3.2 0-5.7-2.6-5.7-5.7v-3.1c0-3.2 2.6-5.7 5.7-5.7h5.8c.6 0 1.1.5 1.1 1.1z" class="st64"/><path d="M325.2 367.5c0 2.2 1.8 4.1 4.1 4.1h3.4c.4 0 .7-.3.7-.7v-9.8c0-.4-.3-.7-.7-.7h-3.4c-2.2 0-4.1 1.8-4.1 4.1v3zm8.4-6.4v9.8c0 .6-.5 1-1 1h-3.4c-2.4 0-4.4-2-4.4-4.4v-3.1c0-2.4 2-4.4 4.4-4.4h3.4c.5.1 1 .5 1 1.1" class="st63"/><path d="M325.2 367.5c0 2.2 1.8 4.1 4.1 4.1h3.4c.4 0 .7-.3.7-.7v-9.8c0-.4-.3-.7-.7-.7h-3.4c-2.2 0-4.1 1.8-4.1 4.1v3zm8.4-6.4v9.8c0 .6-.5 1-1 1h-3.4c-2.4 0-4.4-2-4.4-4.4v-3.1c0-2.4 2-4.4 4.4-4.4h3.4c.5.1 1 .5 1 1.1z" class="st64"/><path d="M328 366c0 .4.3.7.7.7.4 0 .7-.3.7-.7 0-.4-.3-.7-.7-.7-.4 0-.7.3-.7.7m1.7 0c0 .5-.4 1-1 1-.5 0-1-.4-1-1s.4-1 1-1c.5 0 1 .4 1 1" class="st63"/><path d="M328 366c0 .4.3.7.7.7.4 0 .7-.3.7-.7 0-.4-.3-.7-.7-.7-.4 0-.7.3-.7.7zm1.7 0c0 .5-.4 1-1 1-.5 0-1-.4-1-1s.4-1 1-1c.5 0 1 .4 1 1z" class="st64"/><path d="M362.6 380.1c0 2.8-2.3 5.1-5.1 5.1h-7.4c-.5 0-.9-.4-.9-.9v-8.5c0-.5.4-.9.9-.9h7.4c2.8.1 5.1 2.4 5.1 5.2m-13.7-4.2v8.5c0 .7.6 1.2 1.2 1.2h7.4c3 0 5.5-2.5 5.5-5.5s-2.5-5.5-5.5-5.5h-7.4c-.7.1-1.2.6-1.2 1.3" class="st63"/><path d="M362.6 380.1c0 2.8-2.3 5.1-5.1 5.1h-7.4c-.5 0-.9-.4-.9-.9v-8.5c0-.5.4-.9.9-.9h7.4c2.8.1 5.1 2.4 5.1 5.2zm-13.7-4.2v8.5c0 .7.6 1.2 1.2 1.2h7.4c3 0 5.5-2.5 5.5-5.5s-2.5-5.5-5.5-5.5h-7.4c-.7.1-1.2.6-1.2 1.3z" class="st64"/><path d="M351.7 383.8v-7.3s0-.1.1-.1h5.6c2.1 0 3.8 1.7 3.8 3.8 0 2.1-1.7 3.8-3.8 3.8l-5.7-.2c0 .1 0 .1 0 0z" class="st64"/><path d="M351.9 383.7v-7.2h5.5c2 0 3.6 1.6 3.6 3.6s-1.6 3.6-3.6 3.6h-5.5zm-.4-7.2v7.3c0 .1.1.3.3.3h5.6c2.2 0 3.9-1.8 3.9-3.9s-1.8-3.9-3.9-3.9h-5.6c-.2-.1-.3 0-.3.2" class="st63"/><path d="M351.9 383.7v-7.2h5.5c2 0 3.6 1.6 3.6 3.6s-1.6 3.6-3.6 3.6h-5.5zm-.4-7.2v7.3c0 .1.1.3.3.3h5.6c2.2 0 3.9-1.8 3.9-3.9s-1.8-3.9-3.9-3.9h-5.6c-.2-.1-.3 0-.3.2z" class="st64"/><path d="M70 263.7c3 0 5.4 2.4 5.4 5.4v5.8c0 .5-.4.8-.8.8H62.3c-.5 0-.8-.4-.8-.8v-5.8c0-3 2.4-5.4 5.4-5.4H70zM62.3 276h12.3c.6 0 1.1-.5 1.1-1.1v-5.8c0-3.2-2.6-5.7-5.7-5.7h-3.1c-3.2 0-5.7 2.6-5.7 5.7v5.8c0 .6.5 1.1 1.1 1.1" class="st63"/><path d="M70 263.7c3 0 5.4 2.4 5.4 5.4v5.8c0 .5-.4.8-.8.8H62.3c-.5 0-.8-.4-.8-.8v-5.8c0-3 2.4-5.4 5.4-5.4H70zM62.3 276h12.3c.6 0 1.1-.5 1.1-1.1v-5.8c0-3.2-2.6-5.7-5.7-5.7h-3.1c-3.2 0-5.7 2.6-5.7 5.7v5.8c0 .6.5 1.1 1.1 1.1z" class="st64"/><path d="M70 265.1c2.2 0 4.1 1.8 4.1 4.1v3.4c0 .4-.3.7-.7.7h-9.8c-.4 0-.7-.3-.7-.7v-3.4c0-2.2 1.8-4.1 4.1-4.1h3zm-6.4 8.4h9.8c.6 0 1-.5 1-1v-3.4c0-2.4-2-4.4-4.4-4.4h-3.1c-2.4 0-4.4 2-4.4 4.4v3.4c.1.6.5 1 1.1 1" class="st63"/><path d="M70 265.1c2.2 0 4.1 1.8 4.1 4.1v3.4c0 .4-.3.7-.7.7h-9.8c-.4 0-.7-.3-.7-.7v-3.4c0-2.2 1.8-4.1 4.1-4.1h3zm-6.4 8.4h9.8c.6 0 1-.5 1-1v-3.4c0-2.4-2-4.4-4.4-4.4h-3.1c-2.4 0-4.4 2-4.4 4.4v3.4c.1.6.5 1 1.1 1z" class="st64"/><path d="M68.5 268c.4 0 .7.3.7.7 0 .4-.3.7-.7.7-.4 0-.7-.3-.7-.7 0-.4.3-.7.7-.7m0 1.6c.5 0 1-.4 1-1 0-.5-.4-1-1-1-.5 0-1 .4-1 1s.4 1 1 1" class="st63"/><path d="M68.5 268c.4 0 .7.3.7.7 0 .4-.3.7-.7.7-.4 0-.7-.3-.7-.7 0-.4.3-.7.7-.7zm0 1.6c.5 0 1-.4 1-1 0-.5-.4-1-1-1-.5 0-1 .4-1 1s.4 1 1 1z" class="st64"/><path d="M60.4 289.3c0 2.8-2.3 5.1-5.1 5.1h-7.4c-.5 0-.9-.4-.9-.9V285c0-.5.4-.9.9-.9h7.4c2.8.1 5.1 2.4 5.1 5.2M46.6 285v8.5c0 .7.6 1.2 1.2 1.2h7.4c3 0 5.5-2.5 5.5-5.5s-2.5-5.5-5.5-5.5h-7.4c-.6.1-1.2.7-1.2 1.3" class="st63"/><path d="M60.4 289.3c0 2.8-2.3 5.1-5.1 5.1h-7.4c-.5 0-.9-.4-.9-.9V285c0-.5.4-.9.9-.9h7.4c2.8.1 5.1 2.4 5.1 5.2zM46.6 285v8.5c0 .7.6 1.2 1.2 1.2h7.4c3 0 5.5-2.5 5.5-5.5s-2.5-5.5-5.5-5.5h-7.4c-.6.1-1.2.7-1.2 1.3z" class="st64"/><path d="M49.4 292.9v-7.3s0-.1.1-.1h5.6c2.1 0 3.8 1.7 3.8 3.8 0 2.1-1.7 3.8-3.8 3.8l-5.7-.2c.1.1 0 .1 0 0z" class="st64"/><path d="M49.6 292.9v-7.2h5.5c2 0 3.6 1.6 3.6 3.6s-1.6 3.6-3.6 3.6h-5.5zm-.3-7.3v7.3c0 .1.1.3.3.3h5.6c2.2 0 3.9-1.8 3.9-3.9s-1.8-3.9-3.9-3.9h-5.6c-.2-.1-.3.1-.3.2" class="st63"/><path d="M49.6 292.9v-7.2h5.5c2 0 3.6 1.6 3.6 3.6s-1.6 3.6-3.6 3.6h-5.5zm-.3-7.3v7.3c0 .1.1.3.3.3h5.6c2.2 0 3.9-1.8 3.9-3.9s-1.8-3.9-3.9-3.9h-5.6c-.2-.1-.3.1-.3.2z" class="st64"/><path d="M55.1 289.3c0 .5-.4 1-1 1-.5 0-1-.4-1-1 0-.5.4-1 1-1s1 .4 1 1m-2.3 0c0 .7.6 1.3 1.3 1.3.7 0 1.3-.6 1.3-1.3s-.6-1.3-1.3-1.3c-.7 0-1.3.6-1.3 1.3" class="st63"/><path d="M55.1 289.3c0 .5-.4 1-1 1-.5 0-1-.4-1-1 0-.5.4-1 1-1s1 .4 1 1zm-2.3 0c0 .7.6 1.3 1.3 1.3.7 0 1.3-.6 1.3-1.3s-.6-1.3-1.3-1.3c-.7 0-1.3.6-1.3 1.3z" class="st64"/><path d="m50.16 292.101 2.324-1.736.24.32-2.324 1.737z" class="st4"/><path d="m50.16 292.101 2.324-1.736.24.32-2.324 1.737z" class="st43"/><path d="m50.2 286.5 2.3 1.7.2-.2-2.3-1.8z" class="st4"/><path d="m50.2 286.5 2.3 1.7.2-.2-2.3-1.8z" class="st43"/><defs><path id="SVGID_79_" d="M24 32.7h633.4V532H24z"/></defs><clipPath id="SVGID_80_"><use xlink:href="#SVGID_79_" style="overflow:visible"/></clipPath><path d="M46.6 292.8c0 .8-.6 1.4-1.4 1.4h-1.9c-.8 0-1.4-.6-1.4-1.4v-7.1c0-.8.6-1.4 1.4-1.4h1.9c.8 0 1.4.6 1.4 1.4v7.1zm-5.1-7.1v7.1c0 1 .8 1.8 1.8 1.8h1.9c1 0 1.8-.8 1.8-1.8v-7.1c0-1-.8-1.8-1.8-1.8h-1.9c-1 .1-1.8.9-1.8 1.8" class="st65"/><path d="M46.6 292.8c0 .8-.6 1.4-1.4 1.4h-1.9c-.8 0-1.4-.6-1.4-1.4v-7.1c0-.8.6-1.4 1.4-1.4h1.9c.8 0 1.4.6 1.4 1.4v7.1zm-5.1-7.1v7.1c0 1 .8 1.8 1.8 1.8h1.9c1 0 1.8-.8 1.8-1.8v-7.1c0-1-.8-1.8-1.8-1.8h-1.9c-1 .1-1.8.9-1.8 1.8z" class="st66"/><path d="M44.8 289.3c0 .3-.2.5-.5.5s-.5-.2-.5-.5.2-.5.5-.5c.2-.1.5.2.5.5m-1.5 0c0 .5.4.9.9.9s.9-.4.9-.9-.4-.9-.9-.9-.9.4-.9.9" class="st65"/><path d="M44.8 289.3c0 .3-.2.5-.5.5s-.5-.2-.5-.5.2-.5.5-.5c.2-.1.5.2.5.5zm-1.5 0c0 .5.4.9.9.9s.9-.4.9-.9-.4-.9-.9-.9-.9.4-.9.9z" class="st66"/><path d="M357.4 380.1c0 .5-.4 1-1 1-.5 0-1-.4-1-1 0-.5.4-1 1-1 .5.1 1 .5 1 1m-2.3 0c0 .7.6 1.3 1.3 1.3.7 0 1.3-.6 1.3-1.3s-.6-1.3-1.3-1.3c-.7 0-1.3.6-1.3 1.3" class="st65"/><path d="M357.4 380.1c0 .5-.4 1-1 1-.5 0-1-.4-1-1 0-.5.4-1 1-1 .5.1 1 .5 1 1zm-2.3 0c0 .7.6 1.3 1.3 1.3.7 0 1.3-.6 1.3-1.3s-.6-1.3-1.3-1.3c-.7 0-1.3.6-1.3 1.3z" class="st66"/><path d="m352.392 383.016 2.323-1.736.239.32-2.323 1.737z" class="st4"/><path d="m352.392 383.016 2.323-1.736.239.32-2.323 1.737z" class="st43"/><path d="m352.4 377.3 2.3 1.8.3-.3-2.4-1.7z" class="st4"/><path d="m352.4 377.3 2.3 1.8.3-.3-2.4-1.7z" class="st43"/><defs><path id="SVGID_81_" d="M24 32.7h633.4V532H24z"/></defs><clipPath id="SVGID_82_"><use xlink:href="#SVGID_81_" style="overflow:visible"/></clipPath><path d="M348.8 383.7c0 .8-.6 1.4-1.4 1.4h-1.9c-.8 0-1.4-.6-1.4-1.4v-7.1c0-.8.6-1.4 1.4-1.4h1.9c.8 0 1.4.6 1.4 1.4v7.1zm-5.1-7.1v7.1c0 1 .8 1.8 1.8 1.8h1.9c1 0 1.8-.8 1.8-1.8v-7.1c0-1-.8-1.8-1.8-1.8h-1.9c-1 0-1.8.8-1.8 1.8" class="st67"/><path d="M348.8 383.7c0 .8-.6 1.4-1.4 1.4h-1.9c-.8 0-1.4-.6-1.4-1.4v-7.1c0-.8.6-1.4 1.4-1.4h1.9c.8 0 1.4.6 1.4 1.4v7.1zm-5.1-7.1v7.1c0 1 .8 1.8 1.8 1.8h1.9c1 0 1.8-.8 1.8-1.8v-7.1c0-1-.8-1.8-1.8-1.8h-1.9c-1 0-1.8.8-1.8 1.8z" class="st68"/><path d="M347 380.1c0 .3-.2.5-.5.5s-.5-.2-.5-.5.2-.5.5-.5.5.2.5.5m-1.4 0c0 .5.4.9.9.9s.9-.4.9-.9-.4-.9-.9-.9-.9.4-.9.9" class="st67"/><path d="M347 380.1c0 .3-.2.5-.5.5s-.5-.2-.5-.5.2-.5.5-.5.5.2.5.5zm-1.4 0c0 .5.4.9.9.9s.9-.4.9-.9-.4-.9-.9-.9-.9.4-.9.9z" class="st68"/><path d="M316.3 381c0-2.8 2.3-5.1 5.1-5.1h7.4c.5 0 .9.4.9.9v8.5c0 .5-.4.9-.9.9h-7.4c-2.8-.1-5.1-2.4-5.1-5.2m13.8 4.2v-8.5c0-.7-.6-1.2-1.2-1.2h-7.4c-3 0-5.5 2.5-5.5 5.5s2.5 5.5 5.5 5.5h7.4c.6-.1 1.2-.6 1.2-1.3" class="st67"/><path d="M316.3 381c0-2.8 2.3-5.1 5.1-5.1h7.4c.5 0 .9.4.9.9v8.5c0 .5-.4.9-.9.9h-7.4c-2.8-.1-5.1-2.4-5.1-5.2zm13.8 4.2v-8.5c0-.7-.6-1.2-1.2-1.2h-7.4c-3 0-5.5 2.5-5.5 5.5s2.5 5.5 5.5 5.5h7.4c.6-.1 1.2-.6 1.2-1.3z" class="st68"/><path d="M327.2 377.3v7.3s0 .1-.1.1h-5.6c-2.1 0-3.8-1.7-3.8-3.8 0-2.1 1.7-3.8 3.8-3.8l5.7.2c0-.1 0 0 0 0z" class="st68"/><path d="M327.1 377.4v7.2h-5.5c-2 0-3.6-1.6-3.6-3.6s1.6-3.6 3.6-3.6h5.5zm.3 7.2v-7.3c0-.1-.1-.3-.3-.3h-5.6c-2.2 0-3.9 1.8-3.9 3.9 0 2.2 1.8 3.9 3.9 3.9h5.6c.2.1.3 0 .3-.2" class="st67"/><path d="M327.1 377.4v7.2h-5.5c-2 0-3.6-1.6-3.6-3.6s1.6-3.6 3.6-3.6h5.5zm.3 7.2v-7.3c0-.1-.1-.3-.3-.3h-5.6c-2.2 0-3.9 1.8-3.9 3.9 0 2.2 1.8 3.9 3.9 3.9h5.6c.2.1.3 0 .3-.2z" class="st68"/><path d="M321.6 381c0-.5.4-1 1-1 .5 0 1 .4 1 1 0 .5-.4 1-1 1-.6-.1-1-.5-1-1m2.2 0c0-.7-.6-1.3-1.3-1.3-.7 0-1.3.6-1.3 1.3s.6 1.3 1.3 1.3c.7 0 1.3-.6 1.3-1.3" class="st67"/><path d="M321.6 381c0-.5.4-1 1-1 .5 0 1 .4 1 1 0 .5-.4 1-1 1-.6-.1-1-.5-1-1zm2.2 0c0-.7-.6-1.3-1.3-1.3-.7 0-1.3.6-1.3 1.3s.6 1.3 1.3 1.3c.7 0 1.3-.6 1.3-1.3z" class="st68"/><path d="m324.01 379.597 2.322-1.736.24.32-2.323 1.737z" class="st4"/><path d="m324.01 379.597 2.322-1.736.24.32-2.323 1.737z" class="st43"/><path d="m326.5 383.8-2.3-1.8-.2.3 2.3 1.8z" class="st4"/><path d="m326.5 383.8-2.3-1.8-.2.3 2.3 1.8z" class="st43"/><defs><path id="SVGID_83_" d="M24 32.7h633.4V532H24z"/></defs><clipPath id="SVGID_84_"><use xlink:href="#SVGID_83_" style="overflow:visible"/></clipPath><path d="M330.1 377.4c0-.8.6-1.4 1.4-1.4h1.9c.8 0 1.4.6 1.4 1.4v7.1c0 .8-.6 1.4-1.4 1.4h-1.9c-.8 0-1.4-.6-1.4-1.4v-7.1zm5.1 7.1v-7.1c0-1-.8-1.8-1.8-1.8h-1.9c-1 0-1.8.8-1.8 1.8v7.1c0 1 .8 1.8 1.8 1.8h1.9c1 0 1.8-.8 1.8-1.8" class="st69"/><path d="M330.1 377.4c0-.8.6-1.4 1.4-1.4h1.9c.8 0 1.4.6 1.4 1.4v7.1c0 .8-.6 1.4-1.4 1.4h-1.9c-.8 0-1.4-.6-1.4-1.4v-7.1zm5.1 7.1v-7.1c0-1-.8-1.8-1.8-1.8h-1.9c-1 0-1.8.8-1.8 1.8v7.1c0 1 .8 1.8 1.8 1.8h1.9c1 0 1.8-.8 1.8-1.8z" class="st70"/><path d="M331.9 381c0-.3.2-.5.5-.5s.5.2.5.5-.2.5-.5.5c-.2 0-.5-.2-.5-.5m1.5 0c0-.5-.4-.9-.9-.9s-.9.4-.9.9.4.9.9.9.9-.4.9-.9" class="st69"/><path d="M331.9 381c0-.3.2-.5.5-.5s.5.2.5.5-.2.5-.5.5c-.2 0-.5-.2-.5-.5zm1.5 0c0-.5-.4-.9-.9-.9s-.9.4-.9.9.4.9.9.9.9-.4.9-.9z" class="st70"/><path d="M390.1 118.3h32.1v61.9h-32.1zm0 80.5h32.1v27.7h-32.1z" class="st12"/></g></switch></svg>