<svg xmlns="http://www.w3.org/2000/svg" xmlns:xlink="http://www.w3.org/1999/xlink" xml:space="preserve" id="Слой_1" x="0" y="0" style="enable-background:new 0 0 246 252" version="1.1" viewBox="0 0 246 252"><style>.st0{fill:#39363a}.st1{fill:none;stroke:#39363a;stroke-width:.7}.st3{clip-path:url(#SVGID_2_);fill:#39363a}.st10,.st5{fill:none;stroke:#39363a}.st5{stroke-width:.6}.st10{clip-path:url(#SVGID_10_);stroke-width:.7}.st12{fill:#39363a}.st12,.st13{clip-path:url(#SVGID_12_)}.st13,.st14{fill:none;stroke:#39363a;stroke-width:.25}.st15,.st16{clip-path:url(#SVGID_14_);fill:#39363a}.st16{fill:none;stroke:#39363a;stroke-width:.25}</style><switch><g><path d="M122.1 189.2h33.4v4.1h-33.4z" class="st0"/><path d="M122.1 179.1H154v11h-31.9zM16.2 189.2h26.3v4.1H16.2z" class="st0"/><path d="M17.7 179.1h23.2v11H17.7zm181.5 10.1h33.4v4.1h-33.4z" class="st0"/><path d="M200.7 179.1h31.9v11h-31.9zM99.5 189.2h33.4v4.1H99.5z" class="st0"/><path d="M101 179.1h31.9v11H101z" class="st0"/><path d="M121.1 179.5h59.8V193h-59.8z" class="st1"/><path d="M121.1 189.5h59.8v3.4h-59.8zm-101.3-10h59.8V193H19.8z" class="st1"/><path d="M19.8 189.5h59.8v3.4H19.8z" class="st1"/><path d="M20 17.5h207.5v161.6H20z" style="fill:#b7e0e5"/><path d="M168.3 12.1H233v5.5h-64.7zm-152.8 0h123.6v5.5H15.5z" class="st0"/><path d="M15 12.1h5.5V225H15zm212.5 0h5.5v227.4h-5.5zM120.8 211.8h5.5v27.7h-5.5zm0-150.5h5.5v121.9h-5.5zm0-48.7h5.5v23h-5.5z" class="st0"/><defs><path id="SVGID_1_" d="M15 12.1h218v227.4H15z"/></defs><clipPath id="SVGID_2_"><use xlink:href="#SVGID_1_" style="overflow:visible"/></clipPath><path d="M180 151.9c.8 0 1 .2 1 1 0 .7-.2.9-1 .9s-1-.2-1-.9c-.1-.8.1-1 1-1m0-3.1c.8 0 .9.2.9.9s-.1.8-.9.8-1-.2-1-.8c0-.7.2-.9 1-.9m-1.7 2.4c-1.1.1-1.3 1-1.3 2 0 1.5.6 2 2.9 2 2.4 0 2.9-.6 2.9-2 0-1-.3-1.9-1.3-2 .8-.1 1.1-.9 1.1-1.7 0-1.4-.5-2-2.8-2s-2.7.6-2.7 2c.1.8.4 1.6 1.2 1.7zm-3.4 2.1c-.5 0-.7.2-.7.7v.5c0 .5.2.7.7.7h.5c.5 0 .7-.2.7-.7v-.5c0-.5-.2-.7-.7-.7h-.5zm-4.5-1.4c.8 0 1 .2 1 1 0 .7-.2.9-1 .9s-1-.2-1-.9c-.1-.8.1-1 1-1m0-3.1c.8 0 .9.2.9.9s-.1.8-.9.8-1-.2-1-.8c0-.7.2-.9 1-.9m-1.7 2.4c-1.1.1-1.3 1-1.3 2 0 1.5.6 2 2.9 2 2.4 0 2.9-.6 2.9-2 0-1-.2-1.9-1.3-2 .8-.1 1.1-.9 1.1-1.7 0-1.4-.5-2-2.8-2s-2.7.6-2.7 2c.1.8.4 1.6 1.2 1.7zm20.3-12.1h-.8c-.5 0-.6-.1-.6-.7 0-.4.1-.5.6-.5h.8v1.2zm-2.1.7c-.3 0-.9.1-1 .6l-.4 1.7h2l.3-1.4c0-.2.2-.3.5-.3h.7v1.8h1.9v-5.4c-.7-.1-1.2-.1-2.7-.1-2 0-2.5.4-2.5 1.7 0 .5.3 1.1 1.2 1.4zm-2.2-3.1h-1.9v1.9h-1.7v-1.9h-1.9v5.4h1.9v-2.2h1.7v2.2h1.9v-5.4zm-8.2 5.4h2l-1.6-2.8 1.5-2.6h-2l-1.1 2-1.1-2h-2l1.5 2.6-1.6 2.8h2l1.2-2.2 1.2 2.2zm-4.4-5.4H170l-.8 3.2c-.1.2-.1.6-.2.9h-.1c0-.3-.1-.6-.2-.9l-.8-3.2h-2.1l1.7 4.9c.1.3.3.5.6.5h.4c-.1.3-.3.5-.6.6-.3.2-.8.3-1.5.2l-.2 1.3c.8.1 1.6.2 2.2-.1.8-.3 1.5-.8 1.8-2.1l1.9-5.3zm-8.8 1.4c1.5-.2 1.5-.9 2.4-3.6h-2.1c-.6 2.3-.7 2.9-1.8 2.9h-.4c.1-.3.1-.6.1-.9v-2h-2v7.5h2v-2.5c0-.2 0-.5-.1-.7h.4c1 0 1.1.5 1.9 3.2h2.1c-.9-3-1-3.6-2.5-3.9zM94.7 105h-2v-7.1h-3.5l-.7 2.7v4.4H85c-.4 0-.6-.2-.4-.7l3.8-9.7H84l-4.3 10.9c-.5 1.3.4 2.7 1.8 2.7h6.9v3.6h4.2v-3.6l2-.4V105zm-19.3 2.5c-1.2 0-1.6.4-1.6 1.6v1.1c0 1.2.4 1.6 1.6 1.6h1.1c1.2 0 1.6-.4 1.6-1.6v-1.1c0-1.2-.4-1.6-1.6-1.6h-1.1zm-4.6 4.2V94.6h-4.6l-4.3 1.7.5 3 4-.9c-.1.7-.2 1.4-.2 2v11.4h4.6zm-9.3-6.7h-2v-7.1H56l-.7 2.7v4.4h-3.4c-.4 0-.6-.2-.4-.7l3.8-9.7H51l-4.3 10.9c-.5 1.3.4 2.7 1.8 2.7h6.9v3.6h4.2v-3.6h.1l2-.4V105z" class="st3"/><circle cx="70.6" cy="75.3" r="15.2" style="clip-path:url(#SVGID_2_);fill:none;stroke:#39363a"/><path d="M76.4 75c2.6-.3 2.7-1.5 4.1-6.2h-3.6c-1 3.9-1.3 5.1-3.1 5.1h-.6c.1-.5.2-1.1.2-1.6v-3.4h-3.5v13h3.5v-4.3c0-.4-.1-.8-.2-1.2h.7c1.8 0 2 .8 3.3 5.5h3.7c-1.6-5.3-1.8-6.3-4.4-6.7V75zm-9.3 6.8v-13h-3.5l-3.3 1.3.4 2.2 3-.7c-.1.5-.1 1-.1 1.5v8.6h3.5z" class="st3"/><path d="M125 97.5h15.1v3.6H125zm38.6 0H176v3.6h-12.4zm10.6 6.6h54.5v3.6h-54.5zm0-61.4h54.5v3.6h-54.5z" class="st0"/><path d="M172.5 86.1h3.6v21.6h-3.6zm0-43.4h3.6v26h-3.6z" class="st0"/><path d="M135.1 70.8v26.6m.3-.2h-9.1m9.1-26.2h-9.1m92.4-53.4v25m-.4-.2h9.2m-9.2-24.6h9.2" class="st5"/><path d="M175 86.9h12.4v18.2H175zm-49.2 149.2h105v3h-105zM18.89 223.7l.43-2.969 105.694 15.338-.431 2.969z" class="st1"/><path d="M150.2 55.5v-.9h-2.8l-.1 2c0 .2.1.4.4.4l.7.1c.6.1.8.1.8.6 0 .4-.2.5-.7.5-.3 0-.7 0-1.2-.1l-.1.9c.6.1 1.1.1 1.6.1 1.3 0 1.6-.7 1.6-1.5 0-.7-.3-1.4-1.3-1.5l-.7-.1v-.6h1.8zM146 58c-.3 0-.4.1-.4.4v.3c0 .3.1.4.4.4h.3c.3 0 .4-.1.4-.4v-.3c0-.3-.1-.4-.4-.4h-.3zm-1.1-2.5v-.9h-2.8l-.1 2c0 .2.1.4.4.4l.7.1c.6.1.8.1.8.6 0 .4-.2.5-.7.5-.3 0-.7 0-1.2-.1l-.1.9c.6.1 1.1.1 1.6.1 1.3 0 1.6-.7 1.6-1.5 0-.7-.3-1.4-1.3-1.5l-.7-.1v-.6h1.8zm16.4-6h-.5c-.3 0-.4-.1-.4-.4 0-.2.1-.3.4-.3h.5v.7zm-1.3.4c-.2 0-.5.1-.6.4l-.3 1h1.2l.2-.9c0-.2.1-.2.3-.2h.4v1.1h1.1V48c-.4 0-.7-.1-1.6-.1-1.2 0-1.5.2-1.5 1 .1.5.3.8.8 1zm-3.4.2c0-.1.1-.2.3-.3h.7v.4c-.2.1-.4.2-.6.2-.2 0-.3-.1-.3-.3zm-.9-1.3h1.4c.3 0 .4.1.5.4v.1h-1.1c-.6 0-1 .3-1 .8v.3c0 .6.5.9 1.1.9.6 0 .9-.3 1.2-.6l.1.5h.9v-2.1c0-1-.5-1.3-1.4-1.3-.5 0-1.3.1-1.8.2l.1.8zm-1.8.7c.8-.1.7-.2 1.2-1.5h-1.2c-.3 1.1-.4 1.2-.7 1.2h-.2V48h-1v1.2h-.2c-.3 0-.4-.1-.7-1.2h-1.2c.4 1.3.4 1.4 1.2 1.5-.8.1-.8.2-1.3 1.7h1.2c.4-1.2.4-1.3.7-1.3h.3v1.3h1v-1.3h.2c.3 0 .3.1.7 1.3h1.2c-.4-1.5-.5-1.5-1.2-1.7zm-6.1-.8c.4 0 .5.2.5.9s-.1.9-.5.9-.5-.2-.5-.9.1-.9.5-.9m0-.8c-1.3 0-1.7.5-1.7 1.7s.5 1.7 1.7 1.7c1.3 0 1.7-.4 1.7-1.7.1-1.2-.4-1.7-1.7-1.7m-3.1 3.3h1.2l-1-1.7.9-1.6h-1.2l-.6 1.2-.6-1.2h-1.2l.9 1.6-1 1.7h1.2l.7-1.3.7 1.3zm-2.9 0V48h-1l-1 1.6c-.1.1-.2.3-.2.5V48h-1v3.2h1l1-1.5c.1-.1.2-.4.3-.5v2.1h.9zm-6.2-2.2c.2-.1.4-.2.6-.2.3 0 .4.1.4.9 0 .7-.1.9-.5.9-.2 0-.4-.1-.6-.1V49zm-.2-1h-1v4.4h1.2V51c.3.2.6.3 1 .3.8 0 1.2-.4 1.2-1.7 0-1.1-.3-1.7-1.1-1.7-.5 0-1 .2-1.2.5l-.1-.4zm-1.7-1.3h-3.8v4.5h1.2v-3.7h1.3v3.7h1.2v-4.5zM203 86.6h-.5v-1.9h-.9l-.2.7v1.2h-.9c-.1 0-.2-.1-.1-.2l1-2.5h-1.1l-1.1 2.9c-.1.4.1.7.5.7h1.8v.9h1.1v-.9l.5-.1v-.8zm-5 .6c-.3 0-.4.1-.4.4v.3c0 .3.1.4.4.4h.3c.3 0 .4-.1.4-.4v-.3c0-.3-.1-.4-.4-.4h-.3zm-4.1-2.5h1.3c.5 0 .6.1.6.4 0 .3 0 .5-.5.5h-.9v.8h.9c.5 0 .6.1.6.5 0 .5-.2.5-.7.5H194v.9c.5.1 1.1.1 1.6.1 1.2 0 1.6-.4 1.6-1.3 0-.7-.2-1-.8-1.1.6-.1.7-.5.7-1.1 0-.8-.4-1-1.5-1-.5 0-1 0-1.5.1l-.2.7zm10.1-7.4h-1.3l-.5 1.9c0 .1-.1.4-.1.6h-.1c0-.2-.1-.4-.1-.6l-.5-1.9h-1.3l1 3c.1.2.2.3.4.3h.2c-.1.2-.2.3-.3.4-.2.1-.5.2-.9.1l-.1.8c.5.1 1 .1 1.3-.1.5-.2.9-.5 1.1-1.3l1.2-3.2zm-6.4 3.7 2.6-5h-.9l-2.6 5h.9zm-1.3-1.5c-.4 0-.8.1-1.4.1-.5 0-.7-.3-.7-1.3s.1-1.3.7-1.3h1.3l.1-.9c-.4-.1-.7-.2-1.4-.2-1.4 0-2 .6-2 2.3 0 1.7.5 2.3 2 2.3.7 0 1.1-.1 1.5-.2l-.1-.8zm-87.2 41.7c0-.2.1-.4.5-.4h1.1v.7c-.4.2-.7.4-1.1.4-.4 0-.5-.2-.5-.4v-.3zm-1.4-2.1c.9-.1 1.8-.1 2.3-.1.6 0 .7.2.7.6v.1h-1.8c-1.1 0-1.7.5-1.7 1.4v.5c0 1 .8 1.5 1.8 1.5.9 0 1.6-.5 1.9-.9l.2.8h1.6v-3.4c0-1.6-.8-2.1-2.3-2.1-.8 0-2.2.1-3 .3l.3 1.3zm-.9.1v-1.5h-5.4v1.5h1.7v3.9h2v-3.9h1.7zm-9.7 2c0-.2.1-.4.5-.4h1.1v.7c-.4.2-.7.4-1.1.4-.4 0-.5-.2-.5-.4v-.3zm-1.4-2.1c.9-.1 1.8-.1 2.3-.1.6 0 .7.2.8.6v.1H97c-1.1 0-1.7.5-1.7 1.4v.5c0 1 .8 1.5 1.8 1.5.9 0 1.6-.5 1.9-.9l.2.8h1.6v-3.4c0-1.6-.8-2.1-2.3-2.1-.8 0-2.2.1-3 .3l.2 1.3zm-1.4-1.4h-1.9v1.9h-1.7v-1.9h-1.9v5.4h1.9v-2.2h1.7v2.2h1.9v-5.4zm-9.1 0c-.4 0-.7.2-.7.6l-.5 2c-.1.3-.1.5-.1.8h-.1c0-.3 0-.5-.1-.8l-.5-2c-.1-.4-.3-.6-.7-.6h-1.7c-.4 0-.7.2-.7.7l-.1 4.7h1.8l.1-4h.1l.6 2.6c.1.4.3.6.8.6h.9c.4 0 .7-.2.7-.6l.6-2.6h.1l.1 4h1.8l-.1-4.7c0-.4-.2-.7-.7-.7h-1.6zm-9 1.2c.7 0 .8.3.8 1.5s-.2 1.4-.8 1.4c-.7 0-.8-.3-.8-1.4-.1-1.2.1-1.5.8-1.5m0-1.4c-2.1 0-2.9.8-2.9 2.9 0 2.1.8 2.8 2.9 2.8 2.1 0 2.9-.7 2.9-2.8 0-2.1-.8-2.9-2.9-2.9m-5.4 2.8c1.3-.2 1.2-.3 1.9-2.6h-2c-.5 1.8-.5 2-1.3 2h-.2c0-.2.1-.5.1-.7v-1.3h-2v5.4h2v-1.7c0-.1 0-.3-.1-.4h.4c.6 0 .6.2 1.2 2.1h2.1c-.8-2.6-.8-2.6-2.1-2.8zm-9-.2H61c-.5 0-.6-.1-.6-.7 0-.4.1-.5.6-.5h.8v1.2zm-2.1.7c-.3 0-.9.1-1 .6l-.4 1.7h2l.3-1.4c0-.2.2-.3.5-.3h.7v1.8h1.9v-5.4c-.7-.1-1.2-.1-2.7-.1-2 0-2.5.4-2.5 1.7.1.6.3 1.2 1.2 1.4zm-5.7.4c0-.2.1-.4.5-.4h1.1v.7c-.4.2-.7.4-1.1.4-.4 0-.5-.2-.5-.4v-.3zm-1.5-2.1c.9-.1 1.8-.1 2.3-.1.6 0 .7.2.7.6v.1h-1.8c-1.1 0-1.7.5-1.7 1.4v.5c0 1 .8 1.5 1.8 1.5.9 0 1.6-.5 1.9-.9l.2.8h1.6v-3.4c0-1.6-.8-2.1-2.3-2.1-.8 0-2.2.1-3 .3l.3 1.3zm-1.4-1.4h-3.3c-.9 0-1.4.5-1.5 1.4-.1 1-.2 1.7-.3 2.1-.1.4-.4.4-.9.5l.2 1.4c1.2.2 2.3-.1 2.5-1.4.1-.5.2-1.4.3-2.3 0-.3.2-.5.5-.5h.5v4.1h2v-5.3zm-6.6 5.4v-5.4h-1.7l-1.7 2.6c-.2.3-.3.5-.4.8 0-.3.1-.6.1-.8v-2.5H39v5.4h1.7l1.7-2.5c.2-.2.3-.6.4-.9 0 .4-.1.6-.1 1v2.4h1.8zm-8.8-4c1.5-.2 1.5-.9 2.3-3.6h-2c-.7 2.3-.8 2.9-1.5 2.9h-.3c.1-.3.1-.6.1-.9v-2h-1.9v2c0 .3 0 .6.1.9h-.4c-.7 0-.9-.7-1.5-2.9h-2.1c.8 2.7.8 3.4 2.3 3.6v.1c-1.5.2-1.6.8-2.5 3.9h2.1c.8-2.7.9-3.2 1.7-3.2h.4c-.1.2-.1.5-.1.7v2.5h1.9v-2.5c0-.2 0-.5-.1-.7h.4c.8 0 .8.5 1.7 3.2h2.1c-1-3.1-1.1-3.7-2.7-4zm42 10.4c.8 0 1.1.4 1.1 2.3 0 2-.2 2.3-1.1 2.3-.8 0-1-.4-1-2.3-.1-1.9.2-2.3 1-2.3m0-1.5c-2.3 0-3.1 1-3.1 3.9s.8 3.9 3.1 3.9 3.1-1 3.1-3.9c0-3-.8-3.9-3.1-3.9m-5.1 5.8c-.5 0-.7.2-.7.7v.5c0 .5.2.7.7.7h.5c.5 0 .7-.2.7-.7v-.5c0-.5-.2-.7-.7-.7h-.5zm-5.4-3.1c0-.9.1-1.2.9-1.2s.9.3.9 1.9c-.4.2-.6.3-.9.3-.7 0-.9-.2-.9-1m-1.6 4.8c.9.2 1.7.2 2.1.2 2.4 0 3.3-.6 3.3-4 0-3-.5-3.8-2.9-3.8-2.2 0-2.8.8-2.8 2.7 0 1.4.5 2.3 2.2 2.3.7 0 1.1-.1 1.5-.4-.1 1.3-.3 1.7-1.3 1.7h-2l-.1 1.3zm-1.5.1v-7.5h-2l-1.9.7.2 1.3 1.7-.4c-.1.3-.1.6-.1.9v5h2.1zm118 87.5h-.9V220h-1.5l-.3 1.2v1.9h-1.5c-.2 0-.3-.1-.2-.3l1.6-4.2h-1.9l-1.9 4.8c-.2.6.2 1.2.8 1.2h3v1.6h1.9v-1.6l.9-.2v-1.3zm-8.4 1c-.5 0-.7.2-.7.7v.5c0 .5.2.7.7.7h.5c.5 0 .7-.2.7-.7v-.5c0-.5-.2-.7-.7-.7h-.5zm-5.3-3c0-.9.1-1.2.9-1.2s.9.3.9 1.9c-.4.2-.6.3-.9.3-.8 0-.9-.3-.9-1m-1.6 4.8c.9.2 1.7.2 2.1.2 2.4 0 3.3-.6 3.3-4 0-3-.5-3.8-2.9-3.8-2.2 0-2.8.8-2.8 2.7 0 1.4.5 2.3 2.2 2.3.7 0 1.1-.1 1.5-.4-.1 1.3-.3 1.7-1.3 1.7h-2l-.1 1.3zm26.6-15.9h-.8c-.5 0-.6-.1-.6-.7 0-.4.1-.5.6-.5h.8v1.2zm-2.2.7c-.3 0-.9.1-1 .6l-.4 1.7h2l.3-1.4c0-.2.2-.3.5-.3h.7v1.8h1.9v-5.4c-.7-.1-1.2-.1-2.7-.1-2 0-2.5.4-2.5 1.7.1.5.3 1.1 1.2 1.4zM189 213v-5.4h-1.7l-1.7 2.6c-.2.3-.3.5-.4.8 0-.3.1-.6.1-.8v-2.5h-1.7v5.4h1.7l1.7-2.5c.2-.2.3-.6.4-.9 0 .4-.1.6-.1 1v2.4h1.7zm-8.4-2.9c1.3-.2 1.2-.3 1.9-2.6h-1.9c-.6 1.8-.6 2-1.2 2h-.3c0-.2.1-.5.1-.7v-1.3h-1.7v1.3c0 .2 0 .4.1.7h-.3c-.5 0-.6-.2-1.2-2H174c.7 2.2.7 2.4 1.9 2.6v.1c-1.3.2-1.3.3-2.1 2.8h2c.7-2 .7-2.2 1.2-2.2h.4c0 .2-.1.3-.1.5v1.7h1.7v-1.7c0-.1 0-.3-.1-.5h.4c.5 0 .5.1 1.2 2.2h2c-.6-2.6-.6-2.7-1.9-2.9zm-9.8 1.5h-1.6c.3-.6.5-1.4.6-2.4 0-.3.2-.4.5-.4h.5v2.8zm2.7 0h-.9v-4.1h-3c-1 0-1.4.4-1.6 1.3-.1.9-.3 1.8-.6 2.8h-.7v2.8h1.3l.1-1.5h3.9l.1 1.5h1.3v-2.8zm-10-2.8c.7 0 .8.3.8 1.5s-.2 1.4-.8 1.4c-.7 0-.8-.3-.8-1.4-.1-1.2.1-1.5.8-1.5m0-1.4c-2.1 0-2.9.8-2.9 2.9 0 2.1.8 2.8 2.9 2.8 2.1 0 2.9-.7 2.9-2.8 0-2.1-.8-2.9-2.9-2.9m-4-1.9h-3.4c-1.2 0-1.8.6-1.9 1.8-.1 1.7-.3 2.8-.5 3.5-.2.5-.6.6-1.1.7l.1 1.6c1.3.2 2.3-.2 2.8-1.7.3-.9.4-2.3.6-3.9 0-.4.2-.6.6-.6h.7v6.1h2v-7.5z" class="st0"/><path d="m142.9 29.2.8 1.3 26.7-16-.8-1.4z" class="st1"/><path d="M143.8 30.9s-2.2-3.3-3.5-8.1c-1.3-4.8-1.5-7.5-1.5-7.5" class="st1"/><path d="M15 12.1h218v227.4H15z" style="fill:none"/><path d="m160.4 111.3-.8 1.3-21.3-12.9.8-1.3z" class="st1"/><defs><path id="SVGID_3_" d="M15 12.1h218v227.4H15z"/></defs><clipPath id="SVGID_4_"><use xlink:href="#SVGID_3_" style="overflow:visible"/></clipPath><path d="M159.5 113s2.2-3.3 3.5-8.1c1.3-4.8 1.5-7.5 1.5-7.5" style="clip-path:url(#SVGID_4_);fill:none;stroke:#39363a;stroke-width:.7"/><path d="M110.3 57.8 109 57l14.9-24.8 1.4.8z" class="st1"/><defs><path id="SVGID_5_" d="M15 12.1h218v227.4H15z"/></defs><clipPath id="SVGID_6_"><use xlink:href="#SVGID_5_" style="overflow:visible"/></clipPath><path d="M108.6 56.9s3.3 2.2 8.1 3.5c4.8 1.3 7.5 1.5 7.5 1.5" style="clip-path:url(#SVGID_6_);fill:none;stroke:#39363a;stroke-width:.7"/><path d="m184.6 178.2.8-1.3 18.1 10.9-.8 1.4z" class="st1"/><defs><path id="SVGID_7_" d="M15 12.1h218v227.4H15z"/></defs><clipPath id="SVGID_8_"><use xlink:href="#SVGID_7_" style="overflow:visible"/></clipPath><path d="M185.5 176.5s-2.2 3.2-3.4 8c-.7 2.5-1 4.5-1.2 5.7" style="clip-path:url(#SVGID_8_);fill:none;stroke:#39363a;stroke-width:.7"/><path d="m83.5 178.2.8-1.3 18.1 10.9-.8 1.4z" class="st1"/><defs><path id="SVGID_9_" d="M15 12.1h218v227.4H15z"/></defs><clipPath id="SVGID_10_"><use xlink:href="#SVGID_9_" style="overflow:visible"/></clipPath><path d="M84.4 176.5s-2.2 3.2-3.4 8c-.7 2.5-1 4.5-1.2 5.7m98.5-137s0-5.9 5.9-5.9h35.4s5.9 0 5.9 5.9v7.9s0 5.9-5.9 5.9h-35.4s-5.9 0-5.9-5.9v-7.9z" class="st10"/><path d="M181.6 55.1s0-5.9 5.9-5.9h28.8s5.9 0 5.9 5.9v4.2s0 5.9-5.9 5.9h-28.8s-5.9 0-5.9-5.9v-4.2z" class="st10"/><path d="M185.6 53.9s0-3 3-3h28.9s3 0 3 3v6.6s0 3-3 3h-28.9s-3 0-3-3v-6.6z" class="st10"/><path d="M216.9 57.2c0 .5-.4.9-.9.9s-.9-.4-.9-.9.4-.9.9-.9.9.4.9.9z" class="st10"/><path d="M219.8 18.9h6.6v16.4h-6.6zm0 18.2h6.6v4.2h-6.6zm-92.4 35h6.6v17.5h-6.6zm0 19.5h6.6v4.5h-6.6z" class="st5"/><path d="M175 68.2h54.8m-65.1 3.6-1.3.8 10.1 16.8 1.4-.8z" class="st1"/><defs><path id="SVGID_11_" d="M15 12.1h218v227.4H15z"/></defs><clipPath id="SVGID_12_"><use xlink:href="#SVGID_11_" style="overflow:visible"/></clipPath><path d="M163 72.7s3.2-2.2 8-3.4c2.1-.5 3.7-.9 4.9-1.1" style="clip-path:url(#SVGID_12_);fill:none;stroke:#39363a;stroke-width:.7"/><path d="M214.5 75.4c0-3.1 2.5-5.7 5.7-5.7h6c.5 0 .9.4.9.9v12.8c0 .5-.4.9-.9.9h-6c-3.1 0-5.7-2.5-5.7-5.7v-3.2zm12.9 8V70.6c0-.7-.5-1.2-1.2-1.2h-6c-3.3 0-6 2.7-6 6v3.2c0 3.3 2.7 6 6 6h6c.7 0 1.2-.6 1.2-1.2" class="st12"/><path d="M214.5 75.4c0-3.1 2.5-5.7 5.7-5.7h6c.5 0 .9.4.9.9v12.8c0 .5-.4.9-.9.9h-6c-3.1 0-5.7-2.5-5.7-5.7v-3.2zm12.9 8V70.6c0-.7-.5-1.2-1.2-1.2h-6c-3.3 0-6 2.7-6 6v3.2c0 3.3 2.7 6 6 6h6c.7 0 1.2-.6 1.2-1.2z" class="st13"/><path d="M216 75.4c0-2.3 1.9-4.2 4.2-4.2h3.5c.4 0 .7.3.7.7v10.2c0 .4-.3.7-.7.7h-3.5c-2.3 0-4.2-1.9-4.2-4.2v-3.2zm8.8 6.7V71.9c0-.6-.5-1.1-1.1-1.1h-3.5c-2.5 0-4.6 2-4.6 4.6v3.2c0 2.5 2 4.6 4.6 4.6h3.5c.6-.1 1.1-.5 1.1-1.1" class="st12"/><path d="M216 75.4c0-2.3 1.9-4.2 4.2-4.2h3.5c.4 0 .7.3.7.7v10.2c0 .4-.3.7-.7.7h-3.5c-2.3 0-4.2-1.9-4.2-4.2v-3.2zm8.8 6.7V71.9c0-.6-.5-1.1-1.1-1.1h-3.5c-2.5 0-4.6 2-4.6 4.6v3.2c0 2.5 2 4.6 4.6 4.6h3.5c.6-.1 1.1-.5 1.1-1.1z" class="st13"/><path d="M218.9 77c0-.4.3-.7.7-.7.4 0 .7.3.7.7 0 .4-.3.7-.7.7-.3 0-.7-.3-.7-.7m1.8 0c0-.6-.5-1-1-1-.6 0-1 .5-1 1 0 .6.5 1 1 1s1-.5 1-1" class="st12"/><path d="M218.9 77c0-.4.3-.7.7-.7.4 0 .7.3.7.7 0 .4-.3.7-.7.7-.3 0-.7-.3-.7-.7zm1.8 0c0-.6-.5-1-1-1-.6 0-1 .5-1 1 0 .6.5 1 1 1s1-.5 1-1z" class="st13"/><path d="M208.1 94c0-2.9 2.4-5.3 5.3-5.3h7.7c.5 0 .9.4.9.9v8.8c0 .5-.4.9-.9.9h-7.7c-2.9 0-5.3-2.4-5.3-5.3m14.3 4.4v-8.8c0-.7-.6-1.3-1.3-1.3h-7.7c-3.1 0-5.7 2.6-5.7 5.7s2.6 5.7 5.7 5.7h7.7c.8 0 1.3-.6 1.3-1.3" class="st12"/><path d="M208.1 94c0-2.9 2.4-5.3 5.3-5.3h7.7c.5 0 .9.4.9.9v8.8c0 .5-.4.9-.9.9h-7.7c-2.9 0-5.3-2.4-5.3-5.3zm14.3 4.4v-8.8c0-.7-.6-1.3-1.3-1.3h-7.7c-3.1 0-5.7 2.6-5.7 5.7s2.6 5.7 5.7 5.7h7.7c.8 0 1.3-.6 1.3-1.3z" class="st13"/><path d="M219.5 90.1v7.7c0 .1 0 .1-.1.1h-5.8c-2.2 0-3.9-1.8-3.9-3.9 0-2.2 1.8-3.9 3.9-3.9h5.9c0-.1 0 0 0 0z" class="st13"/><path d="M219.3 90.2v7.5h-5.7c-2.1 0-3.7-1.7-3.7-3.7 0-2.1 1.7-3.7 3.7-3.7h5.7zm.4 7.6v-7.7c0-.1-.1-.3-.3-.3h-5.8c-2.3 0-4.1 1.8-4.1 4.1s1.8 4.1 4.1 4.1h5.8c.2.1.3-.1.3-.2" class="st12"/><path d="M219.3 90.2v7.5h-5.7c-2.1 0-3.7-1.7-3.7-3.7 0-2.1 1.7-3.7 3.7-3.7h5.7zm.4 7.6v-7.7c0-.1-.1-.3-.3-.3h-5.8c-2.3 0-4.1 1.8-4.1 4.1s1.8 4.1 4.1 4.1h5.8c.2.1.3-.1.3-.2z" class="st13"/><path d="M213.6 94c0-.6.5-1 1-1s1 .5 1 1c0 .6-.5 1-1 1s-1-.5-1-1m2.4 0c0-.8-.6-1.4-1.4-1.4s-1.4.6-1.4 1.4c0 .8.6 1.4 1.4 1.4s1.4-.7 1.4-1.4" class="st12"/><path d="M213.6 94c0-.6.5-1 1-1s1 .5 1 1c0 .6-.5 1-1 1s-1-.5-1-1zm2.4 0c0-.8-.6-1.4-1.4-1.4s-1.4.6-1.4 1.4c0 .8.6 1.4 1.4 1.4s1.4-.7 1.4-1.4z" class="st13"/><path d="m216.114 92.533 2.483-1.856.24.32-2.483 1.856z" class="st0"/><path d="m216.114 92.533 2.483-1.856.24.32-2.483 1.856z" class="st14"/><path d="m218.8 96.9-2.5-1.8-.2.3 2.4 1.8z" class="st0"/><path d="m218.8 96.9-2.5-1.8-.2.3 2.4 1.8z" class="st14"/><defs><path id="SVGID_13_" d="M15 12.1h218v227.4H15z"/></defs><clipPath id="SVGID_14_"><use xlink:href="#SVGID_13_" style="overflow:visible"/></clipPath><path d="M222.5 90.3c0-.8.7-1.5 1.5-1.5h2c.8 0 1.5.7 1.5 1.5v7.4c0 .8-.7 1.5-1.5 1.5h-2c-.8 0-1.5-.7-1.5-1.5v-7.4zm5.3 7.4v-7.4c0-1-.8-1.8-1.8-1.8h-2c-1 0-1.8.8-1.8 1.8v7.4c0 1 .8 1.8 1.8 1.8h2c1 0 1.8-.8 1.8-1.8" class="st15"/><path d="M222.5 90.3c0-.8.7-1.5 1.5-1.5h2c.8 0 1.5.7 1.5 1.5v7.4c0 .8-.7 1.5-1.5 1.5h-2c-.8 0-1.5-.7-1.5-1.5v-7.4zm5.3 7.4v-7.4c0-1-.8-1.8-1.8-1.8h-2c-1 0-1.8.8-1.8 1.8v7.4c0 1 .8 1.8 1.8 1.8h2c1 0 1.8-.8 1.8-1.8z" class="st16"/><path d="M224.4 94c0-.3.3-.6.6-.6s.6.3.6.6-.3.6-.6.6c-.4-.1-.6-.3-.6-.6m1.5 0c0-.5-.4-.9-.9-.9s-.9.4-.9.9.4.9.9.9.9-.4.9-.9" class="st15"/><path d="M224.4 94c0-.3.3-.6.6-.6s.6.3.6.6-.3.6-.6.6c-.4-.1-.6-.3-.6-.6zm1.5 0c0-.5-.4-.9-.9-.9s-.9.4-.9.9.4.9.9.9.9-.4.9-.9z" class="st16"/><path d="M227 108.2h-17V124h17v-15.8zm.4 16.1h-17.7v-16.5h17.7v16.5z" class="st0"/><path d="M227 108.2h-17V124h17v-15.8zm.4 16.1h-17.7v-16.5h17.7v16.5z" class="st14"/><defs><path id="SVGID_15_" d="M15 12.1h218v227.4H15z"/></defs><clipPath id="SVGID_16_"><use xlink:href="#SVGID_15_" style="overflow:visible"/></clipPath><path d="M211.6 121.6c0 .4.3.7.8.7h8.9c.4 0 .8-.3.8-.7v-11.1c0-.4-.3-.7-.8-.7h-8.9c-.4 0-.8.3-.8.7v11.1zm10.8-11.1v11.1c0 .6-.5 1.1-1.1 1.1h-8.9c-.6 0-1.1-.5-1.1-1.1v-11.1c0-.6.5-1.1 1.1-1.1h8.9c.6.1 1.1.5 1.1 1.1" style="clip-path:url(#SVGID_16_);fill:#39363a"/><path d="M211.6 121.6c0 .4.3.7.8.7h8.9c.4 0 .8-.3.8-.7v-11.1c0-.4-.3-.7-.8-.7h-8.9c-.4 0-.8.3-.8.7v11.1zm10.8-11.1v11.1c0 .6-.5 1.1-1.1 1.1h-8.9c-.6 0-1.1-.5-1.1-1.1v-11.1c0-.6.5-1.1 1.1-1.1h8.9c.6.1 1.1.5 1.1 1.1z" style="clip-path:url(#SVGID_16_);fill:none;stroke:#39363a;stroke-width:.25"/><path d="M220.7 111.1h-7.8v10h7.8v-10zm.4 10.3h-8.5v-10.7h8.5v10.7z" class="st0"/><path d="M220.7 111.1h-7.8v10h7.8v-10zm.4 10.3h-8.5v-10.7h8.5v10.7z" class="st14"/><defs><path id="SVGID_17_" d="M15 12.1h218v227.4H15z"/></defs><clipPath id="SVGID_18_"><use xlink:href="#SVGID_17_" style="overflow:visible"/></clipPath><path d="M215.3 116.1c0 .5.4.9 1 .9.5 0 1-.4 1-.9s-.4-.9-1-.9-1 .4-1 .9m2.3 0c0 .7-.6 1.3-1.4 1.3-.7 0-1.4-.6-1.4-1.3 0-.7.6-1.3 1.4-1.3.8 0 1.4.6 1.4 1.3" style="clip-path:url(#SVGID_18_);fill:#39363a"/><path d="M215.3 116.1c0 .5.4.9 1 .9.5 0 1-.4 1-.9s-.4-.9-1-.9-1 .4-1 .9zm2.3 0c0 .7-.6 1.3-1.4 1.3-.7 0-1.4-.6-1.4-1.3 0-.7.6-1.3 1.4-1.3.8 0 1.4.6 1.4 1.3z" style="clip-path:url(#SVGID_18_);fill:none;stroke:#39363a;stroke-width:.25"/></g></switch></svg>