<svg xmlns="http://www.w3.org/2000/svg" xmlns:xlink="http://www.w3.org/1999/xlink" xml:space="preserve" id="Слой_1" x="0" y="0" style="enable-background:new 0 0 345 246" version="1.1" viewBox="0 0 345 246"><style>.st1{fill:#39363a}.st2{fill:none;stroke:#39363a;stroke-width:.7}.st3{clip-path:url(#SVGID_2_);fill:#39363a}.st15,.st5,.st9{fill:none;stroke:#39363a;stroke-width:.6}.st15,.st9{stroke-width:.7}.st9{clip-path:url(#SVGID_8_)}.st15{clip-path:url(#SVGID_20_)}.st17{fill:#39363a}.st17,.st18{clip-path:url(#SVGID_22_)}.st18,.st19{fill:none;stroke:#39363a;stroke-width:.25}.st20,.st21{clip-path:url(#SVGID_24_);fill:#39363a}.st21{fill:none;stroke:#39363a;stroke-width:.25}</style><switch><g><path d="M23 17.9h301.2v154.7H23z" style="fill:#f5ccce"/><path d="M120.3 59.8h4.8v118.5h-4.8zm0 144h4.8v26.9h-4.8zM18.2 12.6H23V231h-4.8zm102.1 1.8h4.8v20.4h-4.8zm197.9 167.8h11.1v4h-11.1z" class="st1"/><path d="M318.2 172.6h11.1v10.5h-11.1z" class="st1"/><path d="M302.2 182.2h27.1v4h-27.1z" class="st1"/><path d="M303.6 172.6h25.7v10.5h-25.7zm-87.5 9.7h32v4h-32z" class="st1"/><path d="M216.1 172.6h30.5v10.5h-30.5zm-100 9.7h32v4h-32z" class="st1"/><path d="M116.1 172.6h30.5v10.5h-30.5zm-97.2 9.6h32v4h-32z" class="st1"/><path d="M18.9 172.6h30.5v10.5H18.9zm179.1 9.7h32v4h-32z" class="st1"/><path d="M199.4 172.6h30.5v10.5h-30.5zm-107.6 9.7h32v4h-32z" class="st1"/><path d="M93.2 172.6h30.5v10.5H93.2z" class="st1"/><path d="M236.1 173h78v12.9h-78z" class="st2"/><path d="M236.1 182.6h78v3.3h-78zm-68.6-9.6h57.3v12.9h-57.3z" class="st2"/><path d="M167.5 182.6h57.3v3.3h-57.3zM69.6 173h57.3v12.9H69.6z" class="st2"/><path d="M69.6 182.6h57.3v3.3H69.6z" class="st2"/><path d="M20.9 67.1h51.6v3H20.9zm0 27.5h61.5v3H20.9zm83.6 0h20.6v3h-20.6z" class="st1"/><path d="M71.2 50.3h3v26.1h-3zm0-35.9h3v17.5h-3zm252.9-1.8h5.2V184h-5.2zM221.8 59.8h5.2v155.9h-5.2zm0-47.2h5.2v22.2h-5.2z" class="st1"/><path d="M107.7 12.6h219v5.2h-219zm-89.3 0h66v5.2h-66z" class="st1"/><defs><path id="SVGID_1_" d="M18.2 12.6h311.1V231H18.2z"/></defs><clipPath id="SVGID_2_"><use xlink:href="#SVGID_1_" style="overflow:visible"/></clipPath><path d="M297 106.8V90.4h-4.4l-4.2 1.6.5 2.8 3.8-.9c-.1.7-.2 1.3-.2 2v10.9h4.5zm-11.3-4c-1.1 0-1.5.4-1.5 1.5v1c0 1.1.4 1.5 1.5 1.5h1c1.1 0 1.5-.4 1.5-1.5v-1c0-1.1-.4-1.5-1.5-1.5h-1zm-10.2-9.3c1.8 0 2.3.8 2.3 5.1 0 4.4-.5 5.1-2.3 5.1-1.8 0-2.3-.8-2.3-5.1s.5-5.1 2.3-5.1m0-3.4c-5 0-6.7 2.1-6.7 8.5s1.7 8.5 6.7 8.5 6.7-2.1 6.7-8.5c.1-6.4-1.7-8.5-6.7-8.5M261 103.9c-1.9 0-2.1-.6-2.1-4.2.8-.5 1.3-.6 2.1-.6 1.6 0 1.9.4 1.9 2.2 0 1.9-.1 2.6-1.9 2.6m5-13.3c-1.7-.5-3.4-.5-4.2-.5-4.8 0-7.2 1.2-7.2 8.7 0 6.7 1.5 8.3 6.4 8.3 5 0 6.1-1.9 6.1-6 0-3.6-1.1-5.1-4.8-5.1-1.5 0-2.5.2-3.4 1 .1-3.1.7-3.6 2.8-3.6h4l.3-2.8z" class="st3"/><circle cx="276.3" cy="71.9" r="14.6" style="clip-path:url(#SVGID_2_);fill:none;stroke:#39363a" transform="rotate(-10.9 276.264 71.926)"/><path d="M283.1 71.7c2.5-.3 2.5-1.4 3.9-5.9h-3.4c-1 3.7-1.2 4.8-3 4.8h-.6c.1-.5.1-1 .1-1.6v-3.3h-3.4v12.4h3.4v-4.2c0-.3-.1-.8-.1-1.2h.6c1.7 0 1.9.8 3.2 5.3h3.5c-1.5-5.1-1.7-6.1-4.3-6.4v.1zm-17.2-3.2c1.7-.1 2.6-.1 3.9-.1 1 0 1.4.1 1.4.6 0 .7-.8 1.8-2.2 3.2l-2.8 2.9c-.4.4-.5.8-.5 1.4v1.8h9.3v-2.9h-3.6c-.6 0-1.2 0-1.7.2l3.1-3c1.6-1.7 1.9-2.5 1.9-3.9 0-2.4-1.7-3-4.4-3-1.4 0-2.6.1-4.4.4v2.4zm-85.6-18.2v-7.2h-1.9l-1.8.7.2 1.2 1.7-.4c-.1.3-.1.6-.1.9v4.8h1.9zm-5-1.8c-.5 0-.7.2-.7.7v.5c0 .5.2.7.7.7h.4c.5 0 .7-.2.7-.7v-.5c0-.5-.2-.7-.7-.7h-.4zm-4 .5c-.8 0-.9-.3-.9-1.9.3-.2.6-.3.9-.3.7 0 .8.2.8.9 0 1-.1 1.3-.8 1.3m2.1-5.8c-.7-.2-1.5-.2-1.9-.2-2.1 0-3.1.5-3.1 3.8 0 2.9.6 3.6 2.8 3.6 2.2 0 2.7-.8 2.7-2.6 0-1.6-.5-2.2-2.1-2.2-.6 0-1.1.1-1.5.4.1-1.3.3-1.6 1.2-1.6h1.8l.1-1.2zm19.9-6.9c.3-.2.6-.3 1-.3.5 0 .7.2.7 1.4s-.2 1.4-.7 1.4c-.4 0-.6-.1-.9-.2v-2.3zm-.4-1.7h-1.5v7.1h1.9v-2.2c.4.3 1 .5 1.7.5 1.3 0 2-.6 2-2.7 0-1.8-.5-2.8-1.8-2.8-.8 0-1.6.4-2 .9l-.3-.8zm-5.2 1.2c.6 0 .8.3.8 1.4 0 1.1-.2 1.4-.8 1.4-.6 0-.8-.3-.8-1.4 0-1.1.2-1.4.8-1.4m0-1.3c-2 0-2.8.7-2.8 2.7s.7 2.7 2.8 2.7c2 0 2.8-.7 2.8-2.7s-.7-2.7-2.8-2.7m-5.9 4.1h-1.5c.3-.6.4-1.3.6-2.3 0-.3.2-.4.5-.4h.5v2.7zm2.6 0h-.9v-3.9h-2.8c-.9 0-1.4.4-1.5 1.3-.1.9-.3 1.8-.6 2.6h-.6v2.7h1.2l.1-1.4h3.7l.1 1.4h1.3v-2.7zm-7.2 1.2v-5.2h-1.6l-1.6 2.5c-.2.2-.3.5-.4.8 0-.3.1-.5.1-.8v-2.4H172v5.2h1.6l1.6-2.4c.1-.2.3-.6.4-.9 0 .3-.1.6-.1.9v2.3h1.7zm-9.8-3.5c.3-.2.6-.3 1-.3.5 0 .7.2.7 1.4s-.2 1.4-.7 1.4c-.4 0-.6-.1-.9-.2v-2.3zm-.4-1.7h-1.5v7.1h1.9v-2.2c.4.3 1 .5 1.7.5 1.3 0 2-.6 2-2.7 0-1.8-.5-2.8-1.8-2.8-.8 0-1.6.4-2 .9l-.3-.8zm-5.2 1.2c.6 0 .8.3.8 1.4 0 1.1-.2 1.4-.8 1.4-.6 0-.8-.3-.8-1.4 0-1.1.2-1.4.8-1.4m0-1.3c-2 0-2.8.7-2.8 2.7s.7 2.7 2.8 2.7c2 0 2.8-.7 2.8-2.7s-.7-2.7-2.8-2.7m-5.6 1.5c1.4-.2 1.5-.8 2.3-3.4h-2c-.6 2.2-.7 2.8-1.7 2.8h-.3c.1-.3.1-.6.1-.9v-1.9h-1.9v7.2h1.9v-2.4c0-.2 0-.4-.1-.7h.4c1 0 1.1.5 1.8 3.1h2c-.9-2.9-1-3.5-2.5-3.8zm-85 105.9h2c.7 0 .9.1.9.7 0 .5-.1.8-.8.8H72v1.3h1.4c.8 0 .9.2.9.8 0 .7-.3.9-1.2.9-.6 0-1.1 0-2-.1l-.1 1.4c.8.1 1.7.2 2.6.2 1.9 0 2.6-.6 2.6-2.1 0-1.1-.3-1.6-1.3-1.8.9-.1 1.1-.8 1.1-1.8 0-1.3-.7-1.7-2.4-1.7-.8 0-1.6.1-2.4.2v1.2zm-2.1 4c-.5 0-.7.2-.7.7v.5c0 .5.2.7.7.7h.4c.5 0 .7-.2.7-.7v-.5c0-.5-.2-.7-.7-.7h-.4zM64 143c0-.9.1-1.2.8-1.2.8 0 .9.3.9 1.9-.3.2-.6.3-.9.3-.7-.1-.8-.3-.8-1m-1.6 4.6c.8.2 1.6.2 2 .2 2.3 0 3.1-.5 3.1-3.8 0-2.9-.5-3.6-2.7-3.6-2.1 0-2.7.8-2.7 2.6 0 1.3.5 2.2 2.1 2.2.6 0 1.1-.1 1.5-.4-.1 1.2-.3 1.6-1.3 1.6h-1.9l-.1 1.2zm20.1-15.2h-.7c-.5 0-.6-.1-.6-.6 0-.4.1-.5.6-.5h.7v1.1zm-2 .6c-.3 0-.9.1-1 .6l-.4 1.6H81l.3-1.4c0-.2.2-.3.5-.3h.7v1.7h1.8V130c-.6-.1-1.2-.1-2.6-.1-1.9 0-2.4.4-2.4 1.7.1.6.3 1.2 1.2 1.4zm-2.2-3h-1.9v1.8h-1.6V130H73v5.2h1.9v-2.1h1.6v2.1h1.9V130zm-7.8 5.2h1.9l-1.5-2.6 1.4-2.5h-1.9l-1 1.9-1-1.9h-1.9l1.4 2.5-1.5 2.6h1.9l1.1-2.1 1.1 2.1zm-4.2-5.2h-2l-.8 3.1c-.1.2-.1.6-.2.9h-.1c0-.3-.1-.6-.1-.9l-.8-3.1h-2l1.6 4.7c.1.3.3.4.6.4h.3c-.1.3-.3.5-.5.6-.3.2-.8.2-1.4.2l-.2 1.2c.7.1 1.5.1 2.1-.1.8-.3 1.4-.8 1.8-2l1.7-5zm-8.5 1.4c1.4-.2 1.5-.8 2.3-3.4h-2c-.6 2.2-.7 2.8-1.7 2.8H56c.1-.3.1-.6.1-.9V128h-1.9v7.2h1.9v-2.4c0-.2 0-.4-.1-.7h.4c1 0 1.1.5 1.8 3.1h2c-.8-3-.9-3.5-2.4-3.8z" class="st3"/><path d="M32.5 94.4V68.9m-7.9 19.7h6.1v4.1h-6.1zm0-17.8h6.1v15.5h-6.1z" class="st5"/><defs><path id="SVGID_3_" d="M18.2 12.6h311.1V231H18.2z"/></defs><clipPath id="SVGID_4_"><use xlink:href="#SVGID_3_" style="overflow:visible"/></clipPath><path d="M283.4 124.3c.8 0 1 .3 1 2.2 0 1.9-.2 2.2-1 2.2s-1-.3-1-2.2c0-1.9.2-2.2 1-2.2m0-1.5c-2.2 0-2.9.9-2.9 3.7 0 2.8.7 3.7 2.9 3.7s2.9-.9 2.9-3.7c0-2.8-.7-3.7-2.9-3.7m-4.9 5.5c-.5 0-.7.2-.7.7v.5c0 .5.2.7.7.7h.4c.5 0 .7-.2.7-.7v-.5c0-.5-.2-.7-.7-.7h-.4zm-5.2-2.9c0-.9.1-1.2.8-1.2.8 0 .9.3.9 1.9-.3.2-.6.3-.9.3-.6-.1-.8-.3-.8-1m-1.5 4.6c.8.2 1.6.2 2 .2 2.3 0 3.1-.5 3.1-3.8 0-2.9-.5-3.6-2.7-3.6-2.1 0-2.7.8-2.7 2.6 0 1.3.5 2.2 2.1 2.2.6 0 1.1-.1 1.5-.4-.1 1.2-.3 1.6-1.3 1.6h-1.9l-.1 1.2zm-1.5.1v-7.2h-1.9l-1.8.7.2 1.2 1.7-.4c-.1.3-.1.6-.1.9v4.8h1.9zm43.2-12.3c0-.2.1-.4.4-.4h1.1v.6c-.3.2-.7.4-1 .4-.3 0-.5-.1-.5-.4v-.2zm-1.4-2c.9-.1 1.7-.1 2.2-.1.5 0 .7.2.7.6v.1h-1.7c-1 0-1.7.5-1.7 1.3v.5c0 1 .8 1.5 1.7 1.5.9 0 1.5-.5 1.8-.9l.2.8h1.5v-3.3c0-1.5-.8-2-2.2-2-.8 0-2.1.1-2.8.3l.3 1.2zm-.9.1v-1.4H306v1.4h1.6v3.7h1.9v-3.7h1.7zm-9.2 1.9c0-.2.1-.4.4-.4h1.1v.6c-.3.2-.7.4-1 .4-.3 0-.5-.1-.5-.4v-.2zm-1.4-2c.9-.1 1.7-.1 2.2-.1.5 0 .7.2.7.6v.1h-1.7c-1 0-1.7.5-1.7 1.3v.5c0 1 .8 1.5 1.7 1.5.9 0 1.5-.5 1.8-.9l.2.8h1.5v-3.3c0-1.5-.8-2-2.2-2-.8 0-2.1.1-2.8.3l.3 1.2zm-1.3-1.4h-1.9v1.8h-1.6v-1.8H294v5.2h1.9v-2.1h1.6v2.1h1.9v-5.2zm-8.8 0c-.4 0-.6.2-.7.6l-.4 1.9c-.1.3-.1.5-.1.8h-.1c0-.3 0-.5-.1-.8l-.5-1.9c-.1-.4-.3-.6-.7-.6h-1.6c-.4 0-.6.2-.7.6l-.1 4.5h1.7l.1-3.8h.1l.6 2.5c.1.4.3.6.7.6h.8c.4 0 .6-.2.7-.6l.6-2.5h.1l.1 3.8h1.7l-.1-4.5c0-.4-.2-.6-.6-.6h-1.5zm-8.6 1.2c.6 0 .8.3.8 1.4 0 1.1-.2 1.4-.8 1.4-.6 0-.8-.3-.8-1.4 0-1.1.2-1.4.8-1.4m0-1.3c-2 0-2.8.7-2.8 2.7s.7 2.7 2.8 2.7c2 0 2.8-.7 2.8-2.7s-.8-2.7-2.8-2.7m-5.2 2.6c1.2-.2 1.1-.3 1.8-2.5h-1.9c-.4 1.7-.5 1.9-1.2 1.9h-.2c0-.2.1-.4.1-.7v-1.2h-1.9v5.2h1.9V118c0-.1 0-.3-.1-.4h.4c.6 0 .6.1 1.1 2.1h2c-.7-2.5-.7-2.6-2-2.8zm-8.5-.1h-.7c-.5 0-.6-.1-.6-.6 0-.4.1-.5.6-.5h.7v1.1zm-2 .6c-.3 0-.9.1-1 .6l-.4 1.6h1.9l.3-1.4c0-.2.2-.3.5-.3h.7v1.7h1.8v-5.2c-.6-.1-1.2-.1-2.6-.1-1.9 0-2.4.4-2.4 1.7 0 .6.3 1.2 1.2 1.4zm-5.5.4c0-.2.1-.4.4-.4h1.1v.6c-.3.2-.7.4-1 .4-.3 0-.5-.1-.5-.4v-.2zm-1.5-2c.9-.1 1.7-.1 2.2-.1.5 0 .7.2.7.6v.1h-1.7c-1 0-1.7.5-1.7 1.3v.5c0 1 .8 1.5 1.7 1.5.9 0 1.5-.5 1.8-.9l.2.8h1.5v-3.3c0-1.5-.8-2-2.2-2-.8 0-2.1.1-2.8.3l.3 1.2zm-1.3-1.4h-3.1c-.9 0-1.4.5-1.4 1.3-.1.9-.2 1.7-.3 2-.1.4-.4.4-.9.5l.2 1.4c1.1.2 2.2-.1 2.4-1.4.1-.5.2-1.4.3-2.2 0-.3.2-.4.5-.4h.4v3.9h1.9v-5.1zm-6.3 5.2v-5.2H250l-1.6 2.5c-.2.2-.3.5-.4.8 0-.3.1-.5.1-.8v-2.4h-1.7v5.2h1.6l1.6-2.4c.1-.2.3-.6.4-.9 0 .3-.1.6-.1.9v2.3h1.7zm-8.4-3.8c1.4-.2 1.4-.8 2.2-3.4h-2c-.6 2.2-.8 2.8-1.5 2.8h-.3c.1-.3.1-.6.1-.9v-1.9h-1.9v1.9c0 .3 0 .6.1.9h-.4c-.7 0-.8-.6-1.5-2.8h-2c.8 2.6.8 3.2 2.2 3.4v.1c-1.4.2-1.5.8-2.4 3.7h2c.8-2.6.9-3.1 1.6-3.1h.4c-.1.2-.1.5-.1.7v2.4h1.9v-2.4c0-.2 0-.4-.1-.7h.3c.7 0 .8.5 1.6 3.1h2.1c-.8-2.9-.8-3.5-2.3-3.8zm-64.9 1.4.1 1.6h3.1c-.2.2-.3.5-.4.8l-1.7 4.9h1.9l2.2-6.2c.2-.5-.2-1-.7-1h-4.5zm-1.5 5.4c-.5 0-.7.2-.7.7v.5c0 .5.2.7.7.7h.4c.5 0 .7-.2.7-.7v-.5c0-.5-.2-.7-.7-.7h-.4zm-6.7-3.9c1-.1 1.5-.1 2.2-.1.6 0 .8 0 .8.3 0 .4-.5 1.1-1.3 1.9l-1.6 1.7c-.2.2-.3.5-.3.8v1h5.3v-1.7h-2.1c-.3 0-.7 0-1 .1l1.8-1.7c.9-1 1.1-1.5 1.1-2.2 0-1.4-1-1.7-2.5-1.7-.8 0-1.5 0-2.6.2l.2 1.4zm-1.3 5.7v-7.2h-1.9l-1.8.7.2 1.2 1.7-.4c-.1.3-.1.6-.1.9v4.8h1.9zm42.4-12.3c0-.2.1-.4.4-.4h1.1v.6c-.3.2-.7.4-1 .4-.3 0-.5-.1-.5-.4v-.2zm-1.4-2.1c.9-.1 1.7-.1 2.2-.1.5 0 .7.2.7.6v.1H211c-1 0-1.7.5-1.7 1.3v.5c0 1 .8 1.5 1.7 1.5.9 0 1.5-.5 1.8-.9l.2.8h1.5v-3.3c0-1.5-.8-2-2.2-2-.8 0-2.1.1-2.8.3l.3 1.2zm-.9.1v-1.4h-5.2v1.4h1.6v3.7h1.9v-3.7h1.7zm-9.2 2c0-.2.1-.4.4-.4h1.1v.6c-.3.2-.7.4-1 .4-.3 0-.5-.1-.5-.4v-.2zm-1.4-2.1c.9-.1 1.7-.1 2.2-.1.5 0 .7.2.7.6v.1h-1.7c-1 0-1.7.5-1.7 1.3v.5c0 1 .8 1.5 1.7 1.5.9 0 1.5-.5 1.8-.9l.2.8h1.5v-3.3c0-1.5-.8-2-2.2-2-.8 0-2.1.1-2.8.3l.3 1.2zm-1.3-1.3h-1.9v1.8h-1.6v-1.8h-1.9v5.2h1.9v-2.1h1.6v2.1h1.9v-5.2zm-8.8 0c-.4 0-.6.2-.7.6l-.4 1.9c-.1.3-.1.5-.1.8h-.1c0-.3 0-.5-.1-.8l-.5-1.9c-.1-.4-.3-.6-.7-.6H184c-.4 0-.6.2-.7.6l-.1 4.5h1.7l.1-3.8h.1l.6 2.5c.1.4.3.6.7.6h.8c.4 0 .6-.2.7-.6l.6-2.5h.1l.1 3.8h1.7l-.1-4.5c0-.4-.2-.6-.6-.6h-1.5zm-8.6 1.2c.6 0 .8.3.8 1.4 0 1.1-.2 1.4-.8 1.4-.6 0-.8-.3-.8-1.4 0-1.2.2-1.4.8-1.4m0-1.4c-2 0-2.8.7-2.8 2.7s.7 2.7 2.8 2.7c2 0 2.8-.7 2.8-2.7 0-1.9-.8-2.7-2.8-2.7m-5.2 2.6c1.2-.2 1.1-.3 1.8-2.5h-1.9c-.4 1.7-.5 1.9-1.2 1.9h-.2c0-.2.1-.4.1-.7v-1.2h-2v5.2h1.9v-1.6c0-.1 0-.3-.1-.4h.4c.6 0 .6.1 1.1 2.1h2c-.6-2.5-.7-2.5-1.9-2.8zm-8.5-.1h-.7c-.5 0-.6-.1-.6-.6 0-.4.1-.5.6-.5h.7v1.1zm-2.1.7c-.3 0-.9.1-1 .6l-.4 1.6h1.9l.3-1.4c0-.2.2-.3.5-.3h.7v1.7h1.8v-5.2c-.6-.1-1.2-.1-2.6-.1-1.9 0-2.4.4-2.4 1.7.1.6.4 1.1 1.2 1.4zm-5.5.4c0-.2.1-.4.4-.4h1.1v.6c-.3.2-.7.4-1 .4-.3 0-.5-.1-.5-.4v-.2zm-1.4-2.1c.9-.1 1.7-.1 2.2-.1.5 0 .7.2.7.6v.1h-1.7c-1 0-1.7.5-1.7 1.3v.5c0 1 .8 1.5 1.7 1.5.9 0 1.5-.5 1.8-.9l.2.8h1.5v-3.3c0-1.5-.8-2-2.2-2-.8 0-2.1.1-2.8.3l.3 1.2zm-1.3-1.3h-3.1c-.9 0-1.4.5-1.4 1.3-.1.9-.2 1.7-.3 2-.1.4-.4.4-.9.5l.2 1.4c1.1.2 2.2-.1 2.4-1.4.1-.5.2-1.4.3-2.2 0-.3.2-.4.5-.4h.4v3.9h1.9v-5.1zm-6.3 5.2v-5.2h-1.6l-1.6 2.5c-.2.2-.3.5-.4.8 0-.3.1-.5.1-.8v-2.4H144v5.2h1.6l1.6-2.4c.1-.2.3-.6.4-.9 0 .3-.1.6-.1.9v2.3h1.8zm-8.4-3.8c1.4-.2 1.4-.8 2.2-3.4h-2c-.6 2.2-.8 2.8-1.5 2.8h-.3c.1-.3.1-.6.1-.9v-1.9h-1.9v1.9c0 .3 0 .6.1.9h-.4c-.7 0-.8-.6-1.5-2.8h-2c.8 2.6.8 3.2 2.2 3.4v.1c-1.4.2-1.5.8-2.4 3.7h2c.8-2.6.9-3.1 1.6-3.1h.4c-.1.2-.1.5-.1.7v2.4h1.9v-2.4c0-.2 0-.4-.1-.7h.3c.7 0 .8.5 1.6 3.1h2.1c-.8-3-.9-3.5-2.3-3.8z" style="clip-path:url(#SVGID_4_);fill:#39363a"/><path d="M148.9 66.4h74v3.1h-74z" class="st1"/><path d="M47.9 17.2h16.5v16.5H47.9zm63.9 52.3V95m-.3-.1h8.8m-8.8-25.1h8.8" class="st5"/><defs><path id="SVGID_5_" d="M18.2 12.6h311.1V231H18.2z"/></defs><clipPath id="SVGID_6_"><use xlink:href="#SVGID_5_" style="overflow:visible"/></clipPath><path d="M21.8 227.2h100.6v2.8H21.8zm101.333.057 101.24-14.691.401 2.77-101.24 14.692z" style="fill:none;stroke:#39363a;stroke-width:.7;clip-path:url(#SVGID_6_)"/><path d="M69.4 41.2H69c-.3 0-.3-.1-.3-.4 0-.2.1-.3.3-.3h.4v.7zm-1.2.4c-.2 0-.5.1-.6.3l-.2 1h1.2l.2-.8c0-.1.1-.2.3-.2h.4v1h1.1v-3.1c-.4 0-.7-.1-1.6-.1-1.1 0-1.4.2-1.4 1-.1.4 0 .8.6.9zm-3.3.3c0-.1.1-.2.3-.2h.6v.3c-.2.1-.4.2-.6.2-.2 0-.3-.1-.3-.3zm-.9-1.3h1.3c.3 0 .4.1.4.4h-1c-.6 0-1 .3-1 .8v.3c0 .6.5.9 1 .9s.9-.3 1.1-.5l.1.5h.9v-2c0-.9-.5-1.2-1.3-1.2-.5 0-1.2.1-1.7.2l.2.6zm-.8-.8h-1.1v1.1h-1v-1.1H60v3.1h1.1v-1.3h1v1.3h1.1v-3.1zm-3.8 0h-1.1v1.1h-1v-1.1h-1.1v3.1h1.1v-1.3h1v1.3h1.1v-3.1zm-5.9 2.1c0-.1.1-.2.3-.2h.7v.3c-.2.1-.4.2-.6.2-.2 0-.3-.1-.3-.3zm-.8-1.3H54c.3 0 .4.1.4.4h-1c-.6 0-1 .3-1 .8v.3c0 .6.5.9 1 .9s.9-.3 1.1-.5l.1.5h.9v-2c0-.9-.5-1.2-1.3-1.2-.5 0-1.2.1-1.7.2l.2.6zm-3 1.6v-1.1h.6c.5 0 .6.1.6.6 0 .4-.1.5-.5.5h-.7zm0-1.8v-.9h.6c.4 0 .5.1.5.5s-.1.5-.5.5h-.6zm1.4.3c.5 0 .8-.4.8-1 0-.9-.4-1.1-1.6-1.1-.8 0-1.2 0-1.8.1V43h2c1.1 0 1.5-.2 1.5-1.1 0-.7-.2-1.1-.9-1.2zm10.4 6.1c0-.5 0-.7.5-.7s.5.2.5 1.1c-.2.1-.3.2-.5.2-.4-.1-.5-.2-.5-.6m-.9 2.8c.5.1 1 .1 1.2.1 1.4 0 1.9-.3 1.9-2.3 0-1.7-.3-2.2-1.6-2.2s-1.6.5-1.6 1.6c0 .8.3 1.3 1.2 1.3.4 0 .7-.1.9-.3 0 .7-.2 1-.8 1h-1.1l-.1.8zm-1.3-1.1c-.3 0-.4.1-.4.4v.3c0 .3.1.4.4.4h.3c.3 0 .4-.1.4-.4v-.3c0-.3-.1-.4-.4-.4h-.3zm-4-2.3h1.3c.3 0 .5 0 .5.2s-.3.6-.8 1.1l-1 1c-.1.1-.2.3-.2.5v.6h3.2v-1h-1.2c-.2 0-.4 0-.6.1l1.1-1c.6-.6.7-.9.7-1.3 0-.8-.6-1-1.5-1-.5 0-.9 0-1.5.1v.7zm42.6 17.9h1.3c.3 0 .5 0 .5.2s-.3.6-.8 1.1l-1 1c-.1.1-.2.3-.2.5v.6h3.2v-1h-1.2c-.2 0-.4 0-.6.1l1.1-1c.6-.6.7-.9.7-1.3 0-.8-.6-1-1.5-1-.5 0-.9 0-1.5.1v.7zm-1.3 2.3c-.3 0-.4.1-.4.4v.2c0 .3.1.4.4.4h.3c.3 0 .4-.1.4-.4v-.3c0-.3-.1-.4-.4-.4h-.3zm-.8-.6h-.5V64h-.9l-.2.7v1.1h-.8c-.1 0-.2-.1-.1-.2l.9-2.4h-1.1L92 65.9c-.1.3.1.7.5.7h1.7v.9h1.1v-.9l.5-.1v-.7zm15.3-7.6h-.4c-.3 0-.3-.1-.3-.4 0-.2.1-.3.3-.3h.4v.7zm-1.2.4c-.2 0-.5.1-.6.3l-.2 1h1.2l.2-.8c0-.1.1-.2.3-.2h.4v1h1.1v-3.1c-.4 0-.7-.1-1.6-.1-1.1 0-1.4.2-1.4 1-.1.4 0 .8.6.9zm-3.3.3c0-.1.1-.2.3-.2h.7v.3c-.2.1-.4.2-.6.2-.2 0-.3-.1-.3-.3zm-.9-1.3h1.3c.3 0 .4.1.4.4h-1c-.6 0-1 .3-1 .8v.3c0 .6.5.9 1 .9s.9-.3 1.1-.5l.1.5h.9v-2c0-.9-.5-1.2-1.3-1.2-.5 0-1.2.1-1.7.2l.2.6zm-1.7.7c.7-.1.7-.2 1.1-1.5H104c-.3 1-.4 1.1-.7 1.1h-.2v-1.1h-1v1.1h-.1c-.3 0-.3-.1-.7-1.1h-1.1c.4 1.3.4 1.4 1.1 1.5-.8.1-.8.2-1.2 1.6h1.1c.4-1.2.4-1.2.7-1.3h.2v1.3h1v-1.3h.2c.3 0 .3.1.7 1.3h1.1c-.4-1.4-.4-1.5-1.1-1.6zm-5.8-.7c.4 0 .5.2.5.8 0 .7-.1.8-.5.8s-.5-.1-.5-.8c0-.7.1-.8.5-.8m0-.8c-1.2 0-1.7.4-1.7 1.6 0 1.2.5 1.6 1.7 1.6s1.7-.4 1.7-1.6c0-1.2-.5-1.6-1.7-1.6m-3 3.1h1.1l-.9-1.6.8-1.5h-1.1l-.5 1.2-.6-1.2h-1.1l.8 1.5-.9 1.6h1.1l.7-1.2.6 1.2zm-2.8 0v-3.1h-1l-1 1.5c-.1.1-.2.3-.2.5v-2h-1v3.1h1l1-1.4c.1-.1.2-.4.3-.5v2h.9zm-5.9-2.1c.2-.1.3-.2.6-.2s.4.1.4.8c0 .7-.1.8-.4.8-.2 0-.4-.1-.5-.1v-1.3zm-.2-1h-.9v4.3h1.1v-1.4c.3.2.6.3 1 .3.8 0 1.2-.3 1.2-1.6 0-1.1-.3-1.7-1.1-1.7-.5 0-1 .2-1.2.5l-.1-.4zm-1.7-1.2H81v4.3h1.2v-3.5h1.3v3.5h1.2v-4.3zm-22.2 29h1.3c.3 0 .5 0 .5.2s-.3.6-.8 1.1l-1 1c-.1.1-.2.3-.2.5v.6h3.2v-1h-1.2c-.2 0-.4 0-.6.1l1.1-1c.6-.6.7-.9.7-1.3 0-.8-.6-1-1.5-1-.5 0-.9 0-1.5.1v.7zm-1.2 2.3c-.3 0-.4.1-.4.4v.3c0 .3.1.4.4.4h.3c.3 0 .4-.1.4-.4v-.3c0-.3-.1-.4-.4-.4h-.3zM60 88v-4.3h-1.2l-1.1.4.1.7 1-.2V88H60zm7.2-10.6H66l-.5 1.8c0 .1-.1.3-.1.5h-.1c0-.2-.1-.4-.1-.5l-.5-1.8h-1.2l1 2.8c.1.2.2.3.4.3h.2c-.1.2-.2.3-.3.4-.3.1-.5.1-.9.1l-.1.7c.4.1.9.1 1.3-.1.5-.2.8-.5 1.1-1.2l1-3zM61 81l2.5-4.8h-.9L60.1 81h.9zm-1.2-1.5c-.4 0-.8.1-1.4.1-.5 0-.7-.3-.7-1.2 0-1 .1-1.2.7-1.2h1.3l.1-.9c-.4-.1-.7-.2-1.4-.2-1.4 0-1.9.6-1.9 2.2s.5 2.2 1.9 2.2c.6 0 1 0 1.5-.2l-.1-.8zm19 135.2H78v-3h-1.5l-.3 1.1v1.8h-1.4c-.2 0-.3-.1-.2-.3l1.6-4.1h-1.8l-1.8 4.6c-.2.6.2 1.1.8 1.1h2.9v1.5H78V216l.8-.2v-1.1zm-8 1.1c-.5 0-.7.2-.7.7v.5c0 .5.2.7.7.7h.4c.5 0 .7-.2.7-.7v-.5c0-.5-.2-.7-.7-.7h-.4zm-5.2-3c0-.9.1-1.2.8-1.2.8 0 .9.3.9 1.9-.3.2-.6.3-.9.3-.6 0-.8-.2-.8-1m-1.5 4.6c.8.2 1.6.2 2 .2 2.3 0 3.1-.5 3.1-3.8 0-2.9-.5-3.6-2.7-3.6-2.1 0-2.7.8-2.7 2.6 0 1.3.5 2.2 2.1 2.2.6 0 1.1-.1 1.5-.4-.1 1.2-.3 1.6-1.3 1.6h-1.9l-.1 1.2zm25.5-15.2h-.7c-.5 0-.6-.1-.6-.6 0-.4.1-.5.6-.5h.7v1.1zm-2.1.6c-.3 0-.9.1-1 .6l-.4 1.6H88l.3-1.4c0-.2.2-.3.5-.3h.7v1.7h1.8v-5.2c-.6-.1-1.2-.1-2.6-.1-1.9 0-2.4.4-2.4 1.7.1.6.4 1.2 1.2 1.4zm-2.1 2.2v-5.2h-1.6l-1.6 2.5c-.2.2-.3.5-.4.8 0-.3.1-.5.1-.8v-2.4h-1.7v5.2h1.6l1.6-2.4c.1-.2.3-.6.4-.9 0 .3-.1.6-.1.9v2.3h1.7zm-8-2.7c1.2-.2 1.2-.3 1.8-2.4h-1.9c-.5 1.7-.6 1.9-1.1 1.9h-.3c0-.2.1-.4.1-.6V200h-1.6v1.2c0 .2 0 .4.1.6H74c-.5 0-.6-.2-1.1-1.9H71c.7 2.1.6 2.3 1.8 2.4v.1c-1.3.2-1.3.3-2 2.7h1.9c.7-2 .7-2.1 1.1-2.1h.4c0 .2-.1.3-.1.4v1.6h1.7v-1.6c0-.1 0-.3-.1-.4h.4c.5 0 .5.1 1.2 2.1h1.9c-.6-2.5-.6-2.6-1.8-2.8zm-9.5 1.5h-1.5c.3-.6.4-1.3.6-2.3 0-.3.2-.4.5-.4h.5v2.7zm2.7 0h-.9v-3.9h-2.8c-.9 0-1.4.4-1.5 1.3-.1.9-.3 1.8-.6 2.6h-.6v2.7h1.2l.1-1.4h3.7l.1 1.4h1.3v-2.7zM61 201c.6 0 .8.3.8 1.4 0 1.1-.2 1.4-.8 1.4-.6 0-.8-.3-.8-1.4-.1-1.1.1-1.4.8-1.4m0-1.3c-2 0-2.8.7-2.8 2.7s.7 2.7 2.8 2.7c2 0 2.8-.7 2.8-2.7-.1-1.9-.8-2.7-2.8-2.7m-3.8-1.8h-3.3c-1.1 0-1.7.6-1.8 1.7-.1 1.7-.3 2.7-.5 3.3-.2.5-.5.6-1 .7l.1 1.5c1.3.2 2.2-.2 2.7-1.7.3-.9.4-2.2.6-3.7 0-.4.2-.5.6-.5h.7v5.9h2v-7.2z" style="fill:#39363a;clip-path:url(#SVGID_6_)"/><path d="m85.9 108 .8 1.3 19.7-12-.7-1.3z" class="st2"/><defs><path id="SVGID_7_" d="M18.2 12.6h311.1V231H18.2z"/></defs><clipPath id="SVGID_8_"><use xlink:href="#SVGID_7_" style="overflow:visible"/></clipPath><path d="M30.1 20s-5.7 0-5.7 5.7v33.9s0 5.7 5.7 5.7h7.6s5.7 0 5.7-5.7V25.7s0-5.7-5.7-5.7h-7.6z" class="st9"/><path d="M31.9 23.2s-5.7 0-5.7 5.7v27.6s0 5.7 5.7 5.7H36s5.7 0 5.7-5.7V28.8s0-5.7-5.7-5.7h-4.1z" class="st9"/><path d="M30.7 27s-2.8 0-2.8 2.8v27.7s0 2.8 2.8 2.8H37s2.8 0 2.8-2.8V29.8s0-2.8-2.8-2.8h-6.3z" class="st9"/><path d="M33.9 57c.5 0 .8-.4.8-.8 0-.5-.4-.8-.8-.8s-.9.3-.9.7c0 .5.4.9.9.9z" class="st9"/><path d="M44.4 16.9v52.4" class="st2"/><defs><path id="SVGID_9_" d="M18.2 12.6h311.1V231H18.2z"/></defs><clipPath id="SVGID_10_"><use xlink:href="#SVGID_9_" style="overflow:visible"/></clipPath><path d="M86.8 109.6s-2.1-3.1-3.3-7.6c-1.2-4.6-1.4-7.1-1.4-7.1" style="clip-path:url(#SVGID_10_);fill:none;stroke:#39363a;stroke-width:.7"/><path d="m144.9 79.5-.8 1.3-23.3-14.1.7-1.3zm-62.8-32 1.2-.7L73 29.7l-1.3.7z" class="st2"/><defs><path id="SVGID_11_" d="M18.2 12.6h311.1V231H18.2z"/></defs><clipPath id="SVGID_12_"><use xlink:href="#SVGID_11_" style="overflow:visible"/></clipPath><path d="M83.7 46.6s-3.1 2.1-7.6 3.3c-2 .5-3.6.9-4.7 1.1M144 81.1s2.1-3.1 3.3-7.6c1.2-4.6 1.4-7.1 1.4-7.1" style="clip-path:url(#SVGID_12_);fill:none;stroke:#39363a;stroke-width:.7"/><path d="m236.3 56.8 1.3-.7-14.1-23.4-1.3.7z" class="st2"/><defs><path id="SVGID_13_" d="M18.2 12.6h311.1V231H18.2z"/></defs><clipPath id="SVGID_14_"><use xlink:href="#SVGID_13_" style="overflow:visible"/></clipPath><path d="M237.9 55.9s-3.1 2.1-7.6 3.3c-4.6 1.2-7.1 1.4-7.1 1.4" style="clip-path:url(#SVGID_14_);fill:none;stroke:#39363a;stroke-width:.7"/><path d="m164.1 171.8-.8-1.3L146 181l.7 1.3z" class="st2"/><defs><path id="SVGID_15_" d="M18.2 12.6h311.1V231H18.2z"/></defs><clipPath id="SVGID_16_"><use xlink:href="#SVGID_15_" style="overflow:visible"/></clipPath><path d="M163.2 170.2s2.1 3.1 3.3 7.6c.6 2.4 1 4.3 1.2 5.5" style="clip-path:url(#SVGID_16_);fill:none;stroke:#39363a;stroke-width:.7"/><path d="m66.1 171.8-.7-1.3L48 181l.8 1.3z" class="st2"/><defs><path id="SVGID_17_" d="M18.2 12.6h311.1V231H18.2z"/></defs><clipPath id="SVGID_18_"><use xlink:href="#SVGID_17_" style="overflow:visible"/></clipPath><path d="M65.3 170.2s2.1 3.1 3.3 7.6c.6 2.4 1 4.3 1.2 5.5" style="clip-path:url(#SVGID_18_);fill:none;stroke:#39363a;stroke-width:.7"/><path d="M112.9 70.9h6.3v16.8h-6.3zm0 18.6h6.3v4.3h-6.3z" class="st5"/><defs><path id="SVGID_19_" d="M18.2 12.6h311.1V231H18.2z"/></defs><clipPath id="SVGID_20_"><use xlink:href="#SVGID_19_" style="overflow:visible"/></clipPath><path d="m104.1 28.7-.7 1.3-25.9-15.6.8-1.3z" class="st15"/><path d="M103.3 30.3s2.1-3.1 3.3-7.6c1.2-4.6 1.4-7.1 1.4-7.1" class="st15"/><path d="m82.1 79.8 1.2.8-9.7 16-1.2-.8z" class="st2"/><defs><path id="SVGID_21_" d="M18.2 12.6h311.1V231H18.2z"/></defs><clipPath id="SVGID_22_"><use xlink:href="#SVGID_21_" style="overflow:visible"/></clipPath><path d="M83.7 80.7s-3.1-2.1-7.6-3.3c-2-.5-3.6-.9-4.7-1.1" style="clip-path:url(#SVGID_22_);fill:none;stroke:#39363a;stroke-width:.7"/><path d="M52.6 81.6c0 2.8-2.3 5.1-5.1 5.1h-7.4c-.5 0-.9-.4-.9-.9v-8.5c0-.5.4-.9.9-.9h7.4c2.8 0 5.1 2.3 5.1 5.2m-13.7-4.3v8.5c0 .7.6 1.2 1.2 1.2h7.4c3 0 5.5-2.5 5.5-5.5S50.5 76 47.5 76h-7.4c-.7.1-1.2.6-1.2 1.3" class="st17"/><path d="M52.6 81.6c0 2.8-2.3 5.1-5.1 5.1h-7.4c-.5 0-.9-.4-.9-.9v-8.5c0-.5.4-.9.9-.9h7.4c2.8 0 5.1 2.3 5.1 5.2zm-13.7-4.3v8.5c0 .7.6 1.2 1.2 1.2h7.4c3 0 5.5-2.5 5.5-5.5S50.5 76 47.5 76h-7.4c-.7.1-1.2.6-1.2 1.3z" class="st18"/><path d="M41.7 85.2v-7.3s0-.1.1-.1h5.6c2.1 0 3.8 1.7 3.8 3.8 0 2.1-1.7 3.8-3.8 3.8l-5.7-.2c0 .1 0 .1 0 0z" class="st18"/><path d="M41.9 85.1V78h5.5c2 0 3.6 1.6 3.6 3.6s-1.6 3.6-3.6 3.6h-5.5zm-.4-7.2v7.3c0 .1.1.3.3.3h5.6c2.2 0 3.9-1.8 3.9-3.9 0-2.2-1.8-3.9-3.9-3.9h-5.6c-.2-.1-.3.1-.3.2" class="st17"/><path d="M41.9 85.1V78h5.5c2 0 3.6 1.6 3.6 3.6s-1.6 3.6-3.6 3.6h-5.5zm-.4-7.2v7.3c0 .1.1.3.3.3h5.6c2.2 0 3.9-1.8 3.9-3.9 0-2.2-1.8-3.9-3.9-3.9h-5.6c-.2-.1-.3.1-.3.2z" class="st18"/><path d="M47.4 81.6c0 .5-.4 1-1 1-.5 0-1-.4-1-1 0-.5.4-1 1-1 .5 0 1 .4 1 1m-2.3 0c0 .7.6 1.3 1.3 1.3.7 0 1.3-.6 1.3-1.3 0-.7-.6-1.3-1.3-1.3-.7-.1-1.3.5-1.3 1.3" class="st17"/><path d="M47.4 81.6c0 .5-.4 1-1 1-.5 0-1-.4-1-1 0-.5.4-1 1-1 .5 0 1 .4 1 1zm-2.3 0c0 .7.6 1.3 1.3 1.3.7 0 1.3-.6 1.3-1.3 0-.7-.6-1.3-1.3-1.3-.7-.1-1.3.5-1.3 1.3z" class="st18"/><path d="m42.382 84.42 2.323-1.735.24.32-2.323 1.736z" class="st1"/><path d="m42.382 84.42 2.323-1.735.24.32-2.323 1.736z" class="st19"/><path d="m42.4 78.8 2.3 1.7.3-.3-2.4-1.7z" class="st1"/><path d="m42.4 78.8 2.3 1.7.3-.3-2.4-1.7z" class="st19"/><defs><path id="SVGID_23_" d="M18.2 12.6h311.1V231H18.2z"/></defs><clipPath id="SVGID_24_"><use xlink:href="#SVGID_23_" style="overflow:visible"/></clipPath><path d="M38.8 85.1c0 .8-.6 1.4-1.4 1.4h-1.9c-.8 0-1.4-.6-1.4-1.4V78c0-.8.6-1.4 1.4-1.4h1.9c.8 0 1.4.6 1.4 1.4v7.1zM33.7 78v7.1c0 1 .8 1.8 1.8 1.8h1.9c1 0 1.8-.8 1.8-1.8V78c0-1-.8-1.8-1.8-1.8h-1.9c-1 .1-1.8.9-1.8 1.8" class="st20"/><path d="M38.8 85.1c0 .8-.6 1.4-1.4 1.4h-1.9c-.8 0-1.4-.6-1.4-1.4V78c0-.8.6-1.4 1.4-1.4h1.9c.8 0 1.4.6 1.4 1.4v7.1zM33.7 78v7.1c0 1 .8 1.8 1.8 1.8h1.9c1 0 1.8-.8 1.8-1.8V78c0-1-.8-1.8-1.8-1.8h-1.9c-1 .1-1.8.9-1.8 1.8z" class="st21"/><path d="M37 81.6c0 .3-.2.5-.5.5s-.5-.2-.5-.5.2-.5.5-.5c.3-.1.5.2.5.5m-1.4 0c0 .5.4.9.9.9s.9-.4.9-.9-.4-.9-.9-.9-.9.4-.9.9" class="st20"/><path d="M37 81.6c0 .3-.2.5-.5.5s-.5-.2-.5-.5.2-.5.5-.5c.3-.1.5.2.5.5zm-1.4 0c0 .5.4.9.9.9s.9-.4.9-.9-.4-.9-.9-.9-.9.4-.9.9z" class="st21"/><path d="M56.5 55.4c3 0 5.4 2.4 5.4 5.4v5.8c0 .5-.4.8-.8.8H48.8c-.5 0-.8-.4-.8-.8v-5.8c0-3 2.4-5.4 5.4-5.4h3.1zm-7.7 12.3h12.3c.6 0 1.1-.5 1.1-1.1v-5.8c0-3.2-2.6-5.7-5.7-5.7h-3.1c-3.2 0-5.7 2.6-5.7 5.7v5.8c0 .6.5 1.1 1.1 1.1" class="st20"/><path d="M56.5 55.4c3 0 5.4 2.4 5.4 5.4v5.8c0 .5-.4.8-.8.8H48.8c-.5 0-.8-.4-.8-.8v-5.8c0-3 2.4-5.4 5.4-5.4h3.1zm-7.7 12.3h12.3c.6 0 1.1-.5 1.1-1.1v-5.8c0-3.2-2.6-5.7-5.7-5.7h-3.1c-3.2 0-5.7 2.6-5.7 5.7v5.8c0 .6.5 1.1 1.1 1.1z" class="st21"/><path d="M56.5 56.8c2.2 0 4.1 1.8 4.1 4.1v3.4c0 .4-.3.7-.7.7h-9.8c-.4 0-.7-.3-.7-.7v-3.4c0-2.2 1.8-4.1 4.1-4.1h3zm-6.4 8.4h9.8c.6 0 1-.5 1-1v-3.4c0-2.4-2-4.4-4.4-4.4h-3.1c-2.4 0-4.4 2-4.4 4.4v3.4c.1.5.5 1 1.1 1" class="st20"/><path d="M56.5 56.8c2.2 0 4.1 1.8 4.1 4.1v3.4c0 .4-.3.7-.7.7h-9.8c-.4 0-.7-.3-.7-.7v-3.4c0-2.2 1.8-4.1 4.1-4.1h3zm-6.4 8.4h9.8c.6 0 1-.5 1-1v-3.4c0-2.4-2-4.4-4.4-4.4h-3.1c-2.4 0-4.4 2-4.4 4.4v3.4c.1.5.5 1 1.1 1z" class="st21"/><path d="M55 59.6c.4 0 .7.3.7.7 0 .4-.3.7-.7.7-.4 0-.7-.3-.7-.7 0-.4.3-.7.7-.7m0 1.7c.5 0 1-.4 1-1 0-.5-.4-1-1-1-.5 0-1 .4-1 1 0 .5.4 1 1 1" class="st20"/><path d="M55 59.6c.4 0 .7.3.7.7 0 .4-.3.7-.7.7-.4 0-.7-.3-.7-.7 0-.4.3-.7.7-.7zm0 1.7c.5 0 1-.4 1-1 0-.5-.4-1-1-1-.5 0-1 .4-1 1 0 .5.4 1 1 1z" class="st21"/><path d="M23.2 113.2h16.2V98.1H23.2v15.1zm-.3-15.5h17v15.8h-17V97.7z" class="st1"/><path d="M23.2 113.2h16.2V98.1H23.2v15.1zm-.3-15.5h17v15.8h-17V97.7z" class="st19"/><defs><path id="SVGID_25_" d="M18.2 12.6h311.1V231H18.2z"/></defs><clipPath id="SVGID_26_"><use xlink:href="#SVGID_25_" style="overflow:visible"/></clipPath><path d="M38 100.4c0-.4-.3-.7-.7-.7h-8.5c-.4 0-.7.3-.7.7V111c0 .4.3.7.7.7h8.5c.4 0 .7-.3.7-.7v-10.6zM27.7 111v-10.6c0-.6.5-1 1.1-1h8.5c.6 0 1.1.5 1.1 1V111c0 .6-.5 1-1.1 1h-8.5c-.7 0-1.1-.5-1.1-1" style="clip-path:url(#SVGID_26_);fill:#39363a"/><path d="M38 100.4c0-.4-.3-.7-.7-.7h-8.5c-.4 0-.7.3-.7.7V111c0 .4.3.7.7.7h8.5c.4 0 .7-.3.7-.7v-10.6zM27.7 111v-10.6c0-.6.5-1 1.1-1h8.5c.6 0 1.1.5 1.1 1V111c0 .6-.5 1-1.1 1h-8.5c-.7 0-1.1-.5-1.1-1z" style="clip-path:url(#SVGID_26_);fill:none;stroke:#39363a;stroke-width:.25"/><path d="M29.3 110.5h7.5v-9.6h-7.5v9.6zm-.4-10h8.2v10.3h-8.2v-10.3z" class="st1"/><path d="M29.3 110.5h7.5v-9.6h-7.5v9.6zm-.4-10h8.2v10.3h-8.2v-10.3z" class="st19"/><defs><path id="SVGID_27_" d="M18.2 12.6h311.1V231H18.2z"/></defs><clipPath id="SVGID_28_"><use xlink:href="#SVGID_27_" style="overflow:visible"/></clipPath><path d="M34.5 105.7c0-.5-.4-.9-.9-.9s-.9.4-.9.9.4.9.9.9c.4-.1.9-.5.9-.9m-2.3 0c0-.7.6-1.2 1.3-1.2.7 0 1.3.5 1.3 1.2s-.6 1.2-1.3 1.2c-.7 0-1.3-.6-1.3-1.2" style="clip-path:url(#SVGID_28_);fill:#39363a"/><path d="M34.5 105.7c0-.5-.4-.9-.9-.9s-.9.4-.9.9.4.9.9.9c.4-.1.9-.5.9-.9zm-2.3 0c0-.7.6-1.2 1.3-1.2.7 0 1.3.5 1.3 1.2s-.6 1.2-1.3 1.2c-.7 0-1.3-.6-1.3-1.2z" style="clip-path:url(#SVGID_28_);fill:none;stroke:#39363a;stroke-width:.25"/></g></switch></svg>