<svg xmlns="http://www.w3.org/2000/svg" xmlns:xlink="http://www.w3.org/1999/xlink" xml:space="preserve" id="Слой_1" x="0" y="0" style="enable-background:new 0 0 342 245" version="1.1" viewBox="0 0 342 245"><style>.st0{fill:#f5ccce}.st1{fill:#39363a}.st2{fill:none;stroke:#39363a;stroke-width:.75}.st5{clip-path:url(#SVGID_4_);fill:#39363a}.st15,.st16,.st21,.st7{fill:none;stroke:#39363a}.st7{stroke-width:.7}.st15{stroke-width:.6}.st16{stroke-width:.25}.st21{clip-path:url(#SVGID_24_);stroke-width:.7}.st22,.st23{clip-path:url(#SVGID_26_);fill:#39363a}.st23{fill:none;stroke:#39363a;stroke-width:.25}.st24,.st25{clip-path:url(#SVGID_28_);fill:#39363a}.st25{fill:none;stroke:#39363a;stroke-width:.25}</style><switch><g><path d="M19.7 64.3h97.2v156.9H19.7z" class="st0"/><path d="M19.7 15.2h304.6v156.9H19.7z" class="st0"/><path d="M324.3 8h7.2v177.1h-7.2z" class="st1"/><path d="M106 8h225.5v7.2H106zM12.2 8h65.7v7.2H12.2z" class="st1"/><path d="M220.6 11.6h7.2v21.1h-7.2zm0 44.9h7.2v128.6h-7.2zm83.6 123.2h27.3v6.4h-27.3z" class="st1"/><path d="M306.5 172.1h25v10.7h-25zm-84.7 7.5h26.7v6.4h-26.7z" class="st1"/><path d="M221.8 172.1h24.4v10.7h-24.4zm-1.2 11H234v38.4h-13.4z" class="st1"/><path d="M206 172.1h38.4v7.5H206zm-104.1-.6H138v9h-36.1z" class="st1"/><path d="M117 58h7.5v174.8H117zM12.2 8h7.5v224.8h-7.5zM117 8h7.5v23.7H117z" class="st1"/><path d="M12.2 171.5H34v9H12.2zm102.7 56.4h11.6v8.1h-11.6zm-102.7 0h9.5v8.1h-9.5zm134.9-165h78v4.8h-78zM15.4 64.4H72v3.3H15.4zm0 28.4h67v4.5h-67zm89.8 0h16v4.5h-16z" class="st1"/><path d="M15.4 66h37.7v3.3H15.4zm52.1-18.6H72v27.7h-4.5zm0-36.4H72v20.7h-4.5z" class="st1"/><path d="M242.6 177.1h66.9v2.2h-66.9zm-84.2-.1h64v2.2h-64zm0-4.5h66.9v4.5h-66.9z" class="st2"/><path d="M240.2 172.5h69.3v13.1h-69.3zM18.8 226h99.6v2.2H18.8z" class="st2"/><defs><path id="SVGID_1_" d="M12.2 8h319.3v228H12.2z"/></defs><clipPath id="SVGID_2_"><use xlink:href="#SVGID_1_" style="overflow:visible"/></clipPath><path d="M18.8 221.6h99.6v14H18.8z" style="clip-path:url(#SVGID_2_);fill:none;stroke:#39363a;stroke-width:.75"/><path d="M123.246 226.357 223.4 210.502l.344 2.173L123.59 228.53z" class="st2"/><defs><path id="SVGID_3_" d="M12.2 8h319.3v228H12.2z"/></defs><clipPath id="SVGID_4_"><use xlink:href="#SVGID_3_" style="overflow:visible"/></clipPath><path d="M122.9 213.4h101.4v14H122.9z" style="clip-path:url(#SVGID_4_);fill:none;stroke:#39363a;stroke-width:.75" transform="rotate(-8.996 173.614 220.47)"/><path d="M176.4 127.1c1-.1 1.5-.1 2.3-.1.6 0 .8 0 .8.3 0 .4-.5 1.1-1.3 1.9l-1.6 1.7c-.2.2-.3.5-.3.8v1h5.5V131h-2.1c-.4 0-.7 0-1 .1l1.8-1.8c1-1 1.1-1.5 1.1-2.3 0-1.4-1-1.8-2.6-1.8-.8 0-1.5 0-2.6.2v1.7zm-2.1 3.9c-.5 0-.7.2-.7.7v.5c0 .5.2.7.7.7h.5c.5 0 .7-.2.7-.7v-.5c0-.5-.2-.7-.7-.7h-.5zm-6.8-3.9c1-.1 1.5-.1 2.3-.1.6 0 .8 0 .8.3 0 .4-.5 1.1-1.3 1.9l-1.6 1.7c-.2.2-.3.5-.3.8v1h5.5V131h-2.1c-.3 0-.7 0-1 .1l1.8-1.8c1-1 1.1-1.5 1.1-2.3 0-1.4-1-1.8-2.6-1.8-.8 0-1.5 0-2.6.2v1.7zm-1.4 5.7v-7.3h-2l-1.9.7.2 1.3 1.7-.4c-.1.3-.1.6-.1.9v4.8h2.1zm43.6-12.5c0-.2.1-.4.4-.4h1.1v.7c-.3.2-.7.4-1 .4-.4 0-.5-.1-.5-.4v-.3zm-1.4-2.1c.9-.1 1.7-.1 2.3-.1.6 0 .7.2.7.6v.1h-1.8c-1.1 0-1.7.5-1.7 1.3v.5c0 1 .8 1.5 1.8 1.5.9 0 1.5-.5 1.9-.9l.2.8h1.5v-3.4c0-1.6-.8-2.1-2.2-2.1-.8 0-2.1.1-2.9.3l.2 1.4zm-.9.1v-1.5h-5.3v1.5h1.7v3.8h1.9v-3.8h1.7zm-9.4 2c0-.2.1-.4.4-.4h1.1v.7c-.4.2-.7.4-1 .4-.4 0-.5-.1-.5-.4v-.3zm-1.4-2.1c.9-.1 1.7-.1 2.3-.1.6 0 .7.2.7.6v.1h-1.8c-1.1 0-1.7.5-1.7 1.3v.5c0 1 .8 1.5 1.8 1.5.9 0 1.5-.5 1.9-.9l.2.8h1.5v-3.4c0-1.6-.8-2.1-2.2-2.1-.8 0-2.1.1-2.9.3l.2 1.4zm-1.3-1.3h-1.9v1.9h-1.6v-1.9h-1.9v5.3h1.9V120h1.6v2.1h1.9v-5.2zm-9 0c-.4 0-.7.2-.7.6l-.5 2c-.1.3-.1.5-.1.8 0-.3 0-.5-.1-.8l-.5-2c-.1-.4-.3-.6-.7-.6H182c-.4 0-.7.2-.7.7l-.1 4.6h1.7l.1-3.9h.1l.6 2.6c.1.4.3.6.7.6h.9c.4 0 .6-.2.7-.6l.6-2.6h.1l.1 3.9h1.7l-.1-4.6c0-.4-.2-.7-.7-.7h-1.4zm-8.7 1.2c.6 0 .8.3.8 1.4 0 1.2-.2 1.4-.8 1.4-.7 0-.8-.3-.8-1.4-.1-1.2.1-1.4.8-1.4m0-1.4c-2.1 0-2.8.8-2.8 2.8 0 2 .8 2.8 2.8 2.8 2.1 0 2.8-.7 2.8-2.8 0-2-.8-2.8-2.8-2.8m-5.3 2.7c1.2-.2 1.1-.3 1.8-2.5h-1.9c-.5 1.8-.5 1.9-1.2 1.9h-.2c0-.2.1-.5.1-.7v-1.2H169v5.3h1.9v-1.7c0-.1 0-.3-.1-.4h.4c.6 0 .6.1 1.2 2.1h2c-.8-2.6-.9-2.6-2.1-2.8zm-8.7-.2h-.8c-.5 0-.6-.1-.6-.7 0-.4.1-.5.6-.5h.8v1.2zm-2.1.7c-.3 0-.9.1-1 .6l-.4 1.7h2l.3-1.4c0-.2.2-.3.5-.3h.7v1.7h1.9v-5.3c-.7-.1-1.2-.1-2.7-.1-1.9 0-2.4.4-2.4 1.7 0 .6.2 1.2 1.1 1.4zm-5.6.4c0-.2.1-.4.4-.4h1.1v.7c-.3.2-.7.4-1 .4-.4 0-.5-.1-.5-.4v-.3zm-1.5-2.1c.9-.1 1.7-.1 2.3-.1.6 0 .7.2.7.6v.1h-1.8c-1.1 0-1.7.5-1.7 1.3v.5c0 1 .8 1.5 1.8 1.5.9 0 1.5-.5 1.9-.9l.2.8h1.5v-3.4c0-1.6-.8-2.1-2.2-2.1-.8 0-2.1.1-2.9.3l.2 1.4zm-1.3-1.3h-3.2c-.9 0-1.4.5-1.5 1.4-.1 1-.2 1.7-.3 2.1-.1.4-.4.4-.9.5l.2 1.4c1.2.2 2.2-.1 2.4-1.4.1-.5.2-1.4.3-2.2 0-.3.2-.4.5-.4h.5v4h1.9v-5.4zm-6.4 5.2v-5.3H145l-1.7 2.5c-.2.2-.3.5-.4.8 0-.3.1-.5.1-.8v-2.5h-1.7v5.3h1.7l1.6-2.4c.1-.2.3-.6.4-.9 0 .3-.1.6-.1.9v2.4h1.8zm-8.6-3.8c1.4-.2 1.5-.8 2.2-3.5h-2c-.7 2.2-.8 2.9-1.5 2.9h-.3c.1-.3.1-.6.1-.9v-1.9h-1.9v1.9c0 .3 0 .6.1.9h-.4c-.7 0-.8-.7-1.5-2.9h-2c.8 2.6.8 3.3 2.2 3.5v.1c-1.5.2-1.6.8-2.4 3.8h2.1c.8-2.7.9-3.1 1.6-3.1h.4c-.1.2-.1.5-.1.7v2.5h1.9v-2.5c0-.2 0-.4-.1-.7h.3c.7 0 .8.5 1.6 3.1h2.1c-.8-3.1-.9-3.7-2.4-3.9zM287 130h-.9v-3h-1.5l-.3 1.1v1.9h-1.4c-.2 0-.3-.1-.2-.3l1.6-4.1h-1.9l-1.8 4.6c-.2.6.2 1.1.8 1.1h2.9v1.5h1.8v-1.5l.8-.2V130zm-8.2 1c-.5 0-.7.2-.7.7v.5c0 .5.2.7.7.7h.5c.5 0 .7-.2.7-.7v-.5c0-.5-.2-.7-.7-.7h-.5zm-4.4-1.3c.8 0 1 .2 1 1 0 .7-.2.9-1 .9s-1-.2-1-.9c-.1-.8.1-1 1-1m0-3c.7 0 .9.2.9.9 0 .6-.1.8-.9.8s-.9-.1-.9-.8c-.1-.7.1-.9.9-.9m-1.6 2.3c-1 .1-1.3 1-1.3 2 0 1.4.6 2 2.9 2s2.9-.6 2.9-2c0-1-.2-1.9-1.3-2 .8-.1 1.1-.9 1.1-1.7 0-1.4-.5-2-2.7-2s-2.7.6-2.7 2c0 .8.3 1.6 1.1 1.7zm-2.7 3.8v-7.3h-2l-1.9.7.2 1.3 1.7-.4c-.1.3-.1.6-.1.9v4.8h2.1zm44.3-12.5c0-.2.1-.4.4-.4h1.1v.7c-.3.2-.7.4-1 .4-.4 0-.5-.1-.5-.4v-.3zm-1.5-2.1c.9-.1 1.7-.1 2.3-.1.6 0 .7.2.7.6v.1h-1.8c-1.1 0-1.7.5-1.7 1.3v.5c0 1 .8 1.5 1.8 1.5.9 0 1.5-.5 1.9-.9l.2.8h1.5v-3.4c0-1.6-.8-2.1-2.2-2.1-.8 0-2.1.1-2.9.3l.2 1.4zm-.8.1v-1.5h-5.3v1.5h1.7v3.8h1.9v-3.8h1.7zm-9.5 2c0-.2.1-.4.4-.4h1.1v.7c-.4.2-.7.4-1 .4-.4 0-.5-.1-.5-.4v-.3zm-1.4-2.1c.9-.1 1.7-.1 2.3-.1.6 0 .7.2.7.6v.1h-1.8c-1 0-1.7.5-1.7 1.3v.5c0 1 .8 1.5 1.8 1.5.9 0 1.5-.5 1.9-.9l.2.8h1.5v-3.4c0-1.6-.8-2.1-2.2-2.1-.8 0-2.1.1-2.9.3l.2 1.4zm-1.3-1.3H298v1.9h-1.6v-1.9h-1.9v5.3h1.9V120h1.6v2.1h1.9v-5.2zm-9 0c-.4 0-.7.2-.7.6l-.5 2c-.1.3-.1.5-.1.8h-.1c0-.3 0-.5-.1-.8l-.5-2c-.1-.4-.3-.6-.7-.6h-1.6c-.4 0-.7.2-.7.7l-.1 4.6h1.7l.1-3.9h.1l.6 2.6c.1.4.3.6.7.6h.9c.4 0 .6-.2.7-.6l.6-2.6h.1l.1 3.9h1.7l-.1-4.6c0-.4-.2-.7-.7-.7h-1.4zm-8.7 1.2c.6 0 .8.3.8 1.4 0 1.2-.2 1.4-.8 1.4-.7 0-.8-.3-.8-1.4-.1-1.2.1-1.4.8-1.4m0-1.4c-2.1 0-2.8.8-2.8 2.8 0 2 .8 2.8 2.8 2.8 2.1 0 2.8-.7 2.8-2.8 0-2-.8-2.8-2.8-2.8m-5.3 2.7c1.2-.2 1.1-.3 1.8-2.5h-1.9c-.5 1.8-.5 1.9-1.2 1.9h-.2c0-.2.1-.5.1-.7v-1.2h-1.9v5.3h1.9v-1.7c0-.1 0-.3-.1-.4h.4c.6 0 .6.1 1.2 2.1h2c-.8-2.6-.9-2.6-2.1-2.8zm-8.7-.2h-.8c-.5 0-.6-.1-.6-.7 0-.4.1-.5.6-.5h.8v1.2zm-2.1.7c-.3 0-.9.1-1 .6l-.4 1.7h2l.3-1.4c0-.2.2-.3.5-.3h.7v1.7h1.9v-5.3c-.7-.1-1.2-.1-2.7-.1-1.9 0-2.4.4-2.4 1.7 0 .6.2 1.2 1.1 1.4zm-5.6.4c0-.2.1-.4.4-.4h1.1v.7c-.3.2-.7.4-1 .4-.4 0-.5-.1-.5-.4v-.3zm-1.4-2.1c.9-.1 1.7-.1 2.3-.1.6 0 .7.2.7.6v.1h-1.8c-1.1 0-1.7.5-1.7 1.3v.5c0 1 .8 1.5 1.8 1.5.9 0 1.5-.5 1.9-.9l.2.8h1.5v-3.4c0-1.6-.8-2.1-2.2-2.1-.8 0-2.1.1-2.9.3l.2 1.4zm-1.4-1.3h-3.2c-.9 0-1.4.5-1.5 1.4-.1 1-.2 1.7-.3 2.1-.1.4-.4.4-.9.5l.2 1.4c1.2.2 2.2-.1 2.4-1.4.1-.5.2-1.4.3-2.2 0-.3.2-.4.5-.4h.5v4h1.9v-5.4zm-6.4 5.2v-5.3h-1.7l-1.7 2.5c-.2.2-.3.5-.4.8 0-.3.1-.5.1-.8v-2.5h-1.7v5.3h1.7l1.6-2.4c.1-.2.3-.6.4-.9 0 .3-.1.6-.1.9v2.4h1.8zm-8.6-3.8c1.4-.2 1.5-.8 2.2-3.5h-2c-.7 2.2-.8 2.9-1.5 2.9h-.3c.1-.3.1-.6.1-.9v-1.9h-1.9v1.9c0 .3 0 .6.1.9h-.4c-.7 0-.8-.7-1.5-2.9h-2c.8 2.6.8 3.3 2.2 3.5v.1c-1.5.2-1.6.8-2.4 3.8h2.1c.8-2.7.9-3.1 1.6-3.1h.4c-.1.2-.1.5-.1.7v2.5h1.9v-2.5c0-.2 0-.4-.1-.7h.4c.7 0 .8.5 1.6 3.1h2.1c-.9-3.1-1-3.7-2.5-3.9zm-71.2-72.5.1 1.6h3.2c-.2.3-.3.5-.4.8l-1.8 4.9h2l2.2-6.3c.2-.5-.2-1-.7-1h-4.6zm-1.5 5.5c-.5 0-.7.2-.7.7v.5c0 .5.2.7.7.7h.5c.5 0 .7-.2.7-.7V52c0-.5-.2-.7-.7-.7h-.5zm-1.7-4.1.1-1.5h-4.6l-.2 3.3c0 .3.2.6.6.7l1.1.1c1 .1 1.3.2 1.3.9 0 .6-.3.8-1.2.8-.5 0-1.2 0-1.9-.1l-.2 1.5c.9.1 1.9.2 2.6.2 2.1 0 2.7-1.1 2.7-2.4 0-1.2-.4-2.2-2.1-2.4l-1.2-.2.1-1h2.9zm20.8-8.4c.3-.2.6-.3 1-.3.5 0 .7.2.7 1.4s-.2 1.4-.8 1.4c-.4 0-.6-.1-.9-.2v-2.3zm-.4-1.7h-1.5v7.2h1.9V42c.5.3 1.1.5 1.7.5 1.3 0 2-.6 2-2.7 0-1.8-.5-2.8-1.9-2.8-.8 0-1.6.4-2 .9l-.2-.8zm-5.3 1.2c.6 0 .8.3.8 1.4 0 1.2-.2 1.4-.8 1.4-.7 0-.8-.3-.8-1.4 0-1.1.1-1.4.8-1.4m0-1.3c-2.1 0-2.8.8-2.8 2.8 0 2 .8 2.8 2.8 2.8 2.1 0 2.8-.7 2.8-2.8 0-2.1-.7-2.8-2.8-2.8m-6.1 4.1h-1.6c.3-.6.5-1.3.6-2.3 0-.3.2-.4.5-.4h.5v2.7zm2.7 0h-.9v-4h-2.9c-.9 0-1.4.4-1.5 1.3-.1.9-.3 1.8-.6 2.7h-.7v2.8h1.3l.1-1.5h3.8l.1 1.5h1.3v-2.8zm-7.3 1.3v-5.3H171l-1.7 2.5c-.2.2-.3.5-.4.8 0-.3.1-.5.1-.8v-2.5h-1.7v5.3h1.7l1.6-2.4c.1-.2.3-.6.4-.9 0 .3-.1.6-.1.9v2.4h1.8zm-10-3.6c.3-.2.6-.3 1-.3.5 0 .7.2.7 1.4s-.2 1.4-.8 1.4c-.4 0-.6-.1-.9-.2v-2.3zm-.4-1.7h-1.5v7.2h1.9V42c.5.3 1.1.5 1.7.5 1.3 0 2-.6 2-2.7 0-1.8-.5-2.8-1.9-2.8-.8 0-1.6.4-2 .9l-.2-.8zm-5.3 1.2c.6 0 .8.3.8 1.4 0 1.2-.2 1.4-.8 1.4-.7 0-.8-.3-.8-1.4 0-1.1.1-1.4.8-1.4m0-1.3c-2.1 0-2.8.8-2.8 2.8 0 2 .8 2.8 2.8 2.8 2.1 0 2.8-.7 2.8-2.8 0-2.1-.7-2.8-2.8-2.8m-5.7 1.5c1.5-.2 1.5-.8 2.3-3.5h-2c-.6 2.2-.7 2.9-1.7 2.9h-.4c.1-.3.1-.6.1-.9v-1.9h-2v7.3h2v-2.5c0-.2 0-.4-.1-.7h.4c1 0 1.1.5 1.9 3.1h2.1c-1-2.9-1.1-3.5-2.6-3.8zM76 155.5v-7.3h-2l-1.9.7.2 1.3 1.7-.4c-.1.3-.1.6-.1.9v4.8H76zm-5-1.8c-.5 0-.7.2-.7.7v.5c0 .5.2.7.7.7h.5c.5 0 .7-.2.7-.7v-.5c0-.5-.2-.7-.7-.7H71zm-1.4-1.1h-.9v-3h-1.5l-.3 1.1v1.9h-1.4c-.2 0-.3-.1-.2-.3l1.6-4.1H65l-1.8 4.6c-.2.6.2 1.1.8 1.1h2.9v1.5h1.8v-1.5l.8-.2v-1.1zm-7.5 2.9v-7.3h-2l-1.9.7.2 1.3 1.7-.4c-.1.3-.1.6-.1.9v4.8h2.1zm19-15.6h-.8c-.5 0-.6-.1-.6-.7 0-.4.1-.5.6-.5h.8v1.2zm-2.1.6c-.3 0-.9.1-1 .6l-.4 1.7h2l.3-1.4c0-.2.2-.3.5-.3h.7v1.7H83v-5.3c-.7-.1-1.2-.1-2.7-.1-1.9 0-2.4.4-2.4 1.7 0 .6.2 1.2 1.1 1.4zm-2.2-3h-1.9v1.9h-1.6v-1.9h-1.9v5.3h1.9v-2.1h1.6v2.1h1.9v-5.3zm-7.9 5.3h1.9l-1.6-2.7 1.4-2.6h-1.9l-1 2-1-2h-1.9l1.4 2.6-1.6 2.7h1.9l1.1-2.1 1.3 2.1zm-4.3-5.3h-2.1l-.8 3.1c-.1.2-.1.6-.2.9h-.1c0-.3-.1-.6-.1-.9l-.8-3.1h-2l1.6 4.8c.1.3.3.5.6.5h.3c-.1.3-.3.5-.6.6-.3.2-.8.2-1.5.2l-.2 1.3c.8.1 1.5.1 2.2-.1.8-.3 1.4-.8 1.8-2l1.9-5.3zm-8.7 1.4c1.5-.2 1.5-.8 2.3-3.5h-2c-.6 2.2-.7 2.9-1.7 2.9h-.4c.1-.3.1-.6.1-.9v-1.9h-2v7.3h2v-2.5c0-.2 0-.4-.1-.7h.4c1 0 1.1.5 1.9 3.1h2.1c-1-2.9-1.1-3.5-2.6-3.8zm121 61.3c.8 0 1 .3 1 2.3 0 1.9-.2 2.3-1 2.3s-1-.4-1-2.3.2-2.3 1-2.3m0-1.5c-2.2 0-3 1-3 3.8 0 2.9.8 3.8 3 3.8s3-1 3-3.8-.7-3.8-3-3.8m-5 5.7c-.5 0-.7.2-.7.7v.5c0 .5.2.7.7.7h.5c.5 0 .7-.2.7-.7v-.6c0-.5-.2-.7-.7-.7h-.5zm-1.3-1.1h-.9v-3h-1.5l-.3 1.1v1.9h-1.4c-.2 0-.3-.1-.2-.3l1.6-4.1H166l-1.8 4.6c-.2.6.2 1.1.8 1.1h2.9v1.5h1.8v-1.5l.8-.2v-1.1zm20.2-12.8h-.8c-.5 0-.6-.1-.6-.7 0-.4.1-.5.6-.5h.8v1.2zm-2.1.7c-.3 0-.9.1-1 .6l-.4 1.7h2l.3-1.4c0-.2.2-.3.5-.3h.7v1.7h1.9v-5.3c-.7-.1-1.2-.1-2.7-.1-1.9 0-2.4.4-2.4 1.7 0 .6.2 1.2 1.1 1.4zm-2.2 2.2v-5.3h-1.7l-1.7 2.5c-.2.2-.3.5-.4.8 0-.3.1-.5.1-.8v-2.5h-1.7v5.3h1.7l1.6-2.4c.1-.2.3-.6.4-.9 0 .4-.1.6-.1.9v2.4h1.8zm-8.1-2.7c1.2-.2 1.2-.3 1.9-2.5h-1.9c-.6 1.7-.6 1.9-1.1 1.9h-.3c0-.2.1-.4.1-.7v-1.3h-1.7v1.3c0 .2 0 .4.1.7h-.5c-.5 0-.6-.2-1.2-1.9h-1.9c.7 2.2.6 2.3 1.9 2.5v.1c-1.3.2-1.3.3-2 2.7h2c.7-2 .7-2.1 1.2-2.1h.4c0 .2-.1.3-.1.4v1.7h1.7v-1.7c0-.1 0-.3-.1-.4h.4c.5 0 .5.1 1.2 2.1h2c-.9-2.5-.9-2.6-2.1-2.8zm-9.7 1.4h-1.6c.3-.6.5-1.3.6-2.3 0-.3.2-.4.5-.4h.5v2.7zm2.7 0h-.9v-4h-2.9c-.9 0-1.4.4-1.5 1.3-.1.9-.3 1.8-.6 2.7h-.7v2.8h1.3l.1-1.5h3.8l.1 1.5h1.3v-2.8zm-9.8-2.7c.6 0 .8.3.8 1.4 0 1.2-.2 1.4-.8 1.4-.7 0-.8-.3-.8-1.4 0-1.2.2-1.4.8-1.4m0-1.4c-2.1 0-2.8.8-2.8 2.8 0 2 .8 2.8 2.8 2.8 2.1 0 2.8-.7 2.8-2.8.1-2-.7-2.8-2.8-2.8m-3.8-1.9h-3.3c-1.1 0-1.8.6-1.8 1.7-.1 1.7-.3 2.7-.5 3.4-.2.5-.5.6-1 .7l.1 1.5c1.3.2 2.3-.2 2.7-1.7.3-.9.4-2.2.6-3.8 0-.4.2-.5.6-.5h.7v6h2v-7.3zM295 101c1.8 0 2.2.4 2.2 2.2 0 1.7-.4 2.1-2.3 2.1s-2.3-.4-2.3-2.1c0-1.7.4-2.2 2.4-2.2m-.1-6.8c1.7 0 2.1.4 2.1 2 0 1.5-.3 1.8-2 1.8s-2.1-.3-2.1-1.8c-.1-1.6.3-2 2-2m-3.6 5.4c-2.4.2-3 2.2-3 4.5 0 3.2 1.4 4.5 6.6 4.5 5.3 0 6.6-1.3 6.6-4.5 0-2.2-.6-4.2-3-4.5v-.1c1.8-.2 2.5-2 2.5-3.8 0-3.1-1.1-4.5-6.2-4.5-5 0-6.1 1.4-6.1 4.5.1 1.8.8 3.6 2.6 3.9zm-7.6 4.5c-1.2 0-1.5.4-1.5 1.5v1.1c0 1.2.4 1.5 1.5 1.5h1c1.2 0 1.5-.4 1.5-1.5v-1.1c0-1.2-.4-1.5-1.5-1.5h-1zm-10.4-9.5c1.9 0 2.4.8 2.4 5.2s-.5 5.2-2.4 5.2c-1.8 0-2.3-.8-2.3-5.2s.5-5.2 2.3-5.2m0-3.4c-5.1 0-6.8 2.2-6.8 8.7 0 6.5 1.7 8.7 6.8 8.7s6.9-2.2 6.9-8.7c0-6.6-1.8-8.7-6.9-8.7m-14.8 14c-1.9 0-2.1-.6-2.2-4.3.8-.5 1.3-.6 2.1-.6 1.6 0 2 .4 2 2.2 0 2-.1 2.7-1.9 2.7m5.1-13.5c-1.7-.5-3.4-.5-4.3-.5-4.9 0-7.3 1.2-7.3 8.8 0 6.8 1.5 8.5 6.5 8.5 5.1 0 6.2-2 6.2-6.1 0-3.7-1.1-5.2-4.9-5.2-1.5 0-2.5.2-3.4 1 .1-3.1.7-3.7 2.9-3.7h4.1l.2-2.8z" class="st5"/><circle cx="276.8" cy="72.6" r="14.9" style="clip-path:url(#SVGID_4_);fill:none;stroke:#39363a" transform="rotate(-10.9 276.767 72.647)"/><path d="M283.7 72.4c2.5-.3 2.6-1.5 4-6h-3.5c-1 3.8-1.2 4.9-3 4.9h-.6c.1-.5.1-1.1.1-1.6v-3.4h-3.4V79h3.4v-4.2c0-.3-.1-.8-.1-1.2h.7c1.8 0 1.9.8 3.2 5.4h3.6c-1.6-5.2-1.7-6.2-4.3-6.6zm-17.5-3.2c1.7-.1 2.7-.1 4-.1 1 0 1.4.1 1.4.6 0 .7-.8 1.9-2.3 3.3l-2.8 2.9c-.4.4-.5.8-.5 1.4v1.8h9.4v-3h-3.7c-.6 0-1.2 0-1.8.2l3.1-3.1c1.7-1.7 2-2.6 2-3.9 0-2.5-1.8-3.1-4.5-3.1-1.4 0-2.7.1-4.5.4l.2 2.6z" class="st5"/><path d="m237.3 53.5 1.3-.8-14.3-23.8-1.3.8z" class="st7"/><defs><path id="SVGID_5_" d="M12.2 8h319.3v228H12.2z"/></defs><clipPath id="SVGID_6_"><use xlink:href="#SVGID_5_" style="overflow:visible"/></clipPath><path d="M239 52.6s-3.1 2.1-7.8 3.4c-4.6 1.2-7.2 1.4-7.2 1.4" style="clip-path:url(#SVGID_6_);fill:none;stroke:#39363a;stroke-width:.7"/><path d="m144.1 76.7-.8 1.3-23.8-14.3.8-1.3z" class="st7"/><defs><path id="SVGID_7_" d="M12.2 8h319.3v228H12.2z"/></defs><clipPath id="SVGID_8_"><use xlink:href="#SVGID_7_" style="overflow:visible"/></clipPath><path d="M143.2 78.4s2.1-3.1 3.4-7.8c1.2-4.6 1.4-7.2 1.4-7.2" style="clip-path:url(#SVGID_8_);fill:none;stroke:#39363a;stroke-width:.7"/><path d="m102.4 25.6-.8 1.3-27.2-16.4.7-1.3z" class="st7"/><defs><path id="SVGID_9_" d="M12.2 8h319.3v228H12.2z"/></defs><clipPath id="SVGID_10_"><use xlink:href="#SVGID_9_" style="overflow:visible"/></clipPath><path d="M101.5 27.3s2.1-3.1 3.4-7.8c1.2-4.6 1.4-7.2 1.4-7.2" style="clip-path:url(#SVGID_10_);fill:none;stroke:#39363a;stroke-width:.7"/><path d="m85.7 107.1.8 1.3L107 96l-.8-1.3z" class="st7"/><defs><path id="SVGID_11_" d="M12.2 8h319.3v228H12.2z"/></defs><clipPath id="SVGID_12_"><use xlink:href="#SVGID_11_" style="overflow:visible"/></clipPath><path d="M86.6 108.7s-2.1-3.1-3.4-7.8c-1.2-4.6-1.4-7.2-1.4-7.2" style="clip-path:url(#SVGID_12_);fill:none;stroke:#39363a;stroke-width:.7"/><path d="m78 77.4 1.3.7L69.1 95l-1.3-.7z" class="st7"/><defs><path id="SVGID_13_" d="M12.2 8h319.3v228H12.2z"/></defs><clipPath id="SVGID_14_"><use xlink:href="#SVGID_13_" style="overflow:visible"/></clipPath><path d="M79.7 78.2s-3.1-2.1-7.8-3.4c-1.4-.4-2.7-.7-3.7-.9" style="clip-path:url(#SVGID_14_);fill:none;stroke:#39363a;stroke-width:.7"/><path d="m79.5 44.9 1.3-.8-10.3-16.9-1.3.8z" class="st7"/><defs><path id="SVGID_15_" d="M12.2 8h319.3v228H12.2z"/></defs><clipPath id="SVGID_16_"><use xlink:href="#SVGID_15_" style="overflow:visible"/></clipPath><path d="M81.1 44s-3.1 2.1-7.8 3.4c-1.4.4-2.7.7-3.7.9" style="clip-path:url(#SVGID_16_);fill:none;stroke:#39363a;stroke-width:.7"/><path d="m154.8 167.8-.8-1.3-17.6 10.7.7 1.3z" class="st7"/><defs><path id="SVGID_17_" d="M12.2 8h319.3v228H12.2z"/></defs><clipPath id="SVGID_18_"><use xlink:href="#SVGID_17_" style="overflow:visible"/></clipPath><path d="M153.9 166.2s2.1 3.1 3.4 7.8c.7 2.5 1 4.3 1.2 5.6" style="clip-path:url(#SVGID_18_);fill:none;stroke:#39363a;stroke-width:.7"/><path d="M110.3 87.3h5.7v4.2h-5.7zm-1.1-26v32.1m11.5-31.8h-11.8" class="st15"/><path d="M19.5 116.2h15.8V101H19.5v15.2zm-.4-15.5h16.5v15.8H19.1v-15.8z" class="st1"/><path d="M19.5 116.2h15.8V101H19.5v15.2zm-.4-15.5h16.5v15.8H19.1v-15.8z" class="st16"/><defs><path id="SVGID_19_" d="M12.2 8h319.3v228H12.2z"/></defs><clipPath id="SVGID_20_"><use xlink:href="#SVGID_19_" style="overflow:visible"/></clipPath><path d="M33.8 103.3c0-.4-.3-.7-.7-.7h-8.3c-.4 0-.7.3-.7.7v10.6c0 .4.3.7.7.7h8.3c.4 0 .7-.3.7-.7v-10.6zm-10.1 10.6v-10.6c0-.6.5-1 1.1-1h8.3c.6 0 1.1.5 1.1 1v10.6c0 .6-.5 1-1.1 1h-8.3c-.6 0-1.1-.5-1.1-1" style="clip-path:url(#SVGID_20_);fill:#39363a"/><path d="M33.8 103.3c0-.4-.3-.7-.7-.7h-8.3c-.4 0-.7.3-.7.7v10.6c0 .4.3.7.7.7h8.3c.4 0 .7-.3.7-.7v-10.6zm-10.1 10.6v-10.6c0-.6.5-1 1.1-1h8.3c.6 0 1.1.5 1.1 1v10.6c0 .6-.5 1-1.1 1h-8.3c-.6 0-1.1-.5-1.1-1z" style="clip-path:url(#SVGID_20_);fill:none;stroke:#39363a;stroke-width:.25"/><path d="M25.3 113.4h7.2v-9.6h-7.2v9.6zm-.3-9.9h7.9v10.3H25v-10.3z" class="st1"/><path d="M25.3 113.4h7.2v-9.6h-7.2v9.6zm-.3-9.9h7.9v10.3H25v-10.3z" class="st16"/><defs><path id="SVGID_21_" d="M12.2 8h319.3v228H12.2z"/></defs><clipPath id="SVGID_22_"><use xlink:href="#SVGID_21_" style="overflow:visible"/></clipPath><path d="M30.3 108.6c0-.5-.4-.9-.9-.9s-.9.4-.9.9.4.9.9.9.9-.4.9-.9m-2.1 0c0-.7.6-1.2 1.3-1.2s1.3.5 1.3 1.2-.6 1.2-1.3 1.2-1.3-.5-1.3-1.2" style="clip-path:url(#SVGID_22_);fill:#39363a"/><path d="M30.3 108.6c0-.5-.4-.9-.9-.9s-.9.4-.9.9.4.9.9.9.9-.4.9-.9zm-2.1 0c0-.7.6-1.2 1.3-1.2s1.3.5 1.3 1.2-.6 1.2-1.3 1.2-1.3-.5-1.3-1.2z" style="clip-path:url(#SVGID_22_);fill:none;stroke:#39363a;stroke-width:.25"/><path d="M42.9 14.7h15.4v15.4H42.9z" class="st15"/><defs><path id="SVGID_23_" d="M12.2 8h319.3v228H12.2z"/></defs><clipPath id="SVGID_24_"><use xlink:href="#SVGID_23_" style="overflow:visible"/></clipPath><path d="M26.4 16.3s-5.8 0-5.8 5.8v34.5s0 5.8 5.8 5.8h7.7s5.8 0 5.8-5.8V22.1s0-5.8-5.8-5.8h-7.7z" class="st21"/><path d="M28.2 19.5s-5.8 0-5.8 5.8v28.1s0 5.8 5.8 5.8h4.1s5.8 0 5.8-5.8V25.3s0-5.8-5.8-5.8h-4.1z" class="st21"/><path d="M27 23.4s-2.9 0-2.9 2.9v28.3s0 2.9 2.9 2.9h6.4s2.9 0 2.9-2.9V26.2s0-2.9-2.9-2.9H27z" class="st21"/><path d="M30.2 53.9c.5 0 .9-.4.9-.9s-.4-.9-.9-.9-.9.4-.9.9c.1.6.5.9.9.9z" class="st21"/><path d="M41 13.1v52.4" class="st7"/><defs><path id="SVGID_25_" d="M12.2 8h319.3v228H12.2z"/></defs><clipPath id="SVGID_26_"><use xlink:href="#SVGID_25_" style="overflow:visible"/></clipPath><path d="M51.7 52.1c3 0 5.5 2.5 5.5 5.5v5.9c0 .5-.4.8-.8.8H43.9c-.5 0-.8-.4-.8-.8v-5.9c0-3 2.5-5.5 5.5-5.5h3.1zm-7.8 12.6h12.5c.6 0 1.2-.5 1.2-1.2v-5.9c0-3.2-2.6-5.8-5.8-5.8h-3.1c-3.2 0-5.8 2.6-5.8 5.8v5.9c-.2.6.3 1.2 1 1.2" class="st22"/><path d="M51.7 52.1c3 0 5.5 2.5 5.5 5.5v5.9c0 .5-.4.8-.8.8H43.9c-.5 0-.8-.4-.8-.8v-5.9c0-3 2.5-5.5 5.5-5.5h3.1zm-7.8 12.6h12.5c.6 0 1.2-.5 1.2-1.2v-5.9c0-3.2-2.6-5.8-5.8-5.8h-3.1c-3.2 0-5.8 2.6-5.8 5.8v5.9c-.2.6.3 1.2 1 1.2z" class="st23"/><path d="M51.7 53.5c2.3 0 4.1 1.9 4.1 4.1V61c0 .4-.3.7-.7.7h-10c-.4 0-.7-.3-.7-.7v-3.4c0-2.3 1.9-4.1 4.1-4.1h3.2zm-6.6 8.6h10c.6 0 1-.5 1-1v-3.4c0-2.5-2-4.5-4.5-4.5h-3.1c-2.5 0-4.5 2-4.5 4.5v3.4c.1.5.6 1 1.1 1" class="st22"/><path d="M51.7 53.5c2.3 0 4.1 1.9 4.1 4.1V61c0 .4-.3.7-.7.7h-10c-.4 0-.7-.3-.7-.7v-3.4c0-2.3 1.9-4.1 4.1-4.1h3.2zm-6.6 8.6h10c.6 0 1-.5 1-1v-3.4c0-2.5-2-4.5-4.5-4.5h-3.1c-2.5 0-4.5 2-4.5 4.5v3.4c.1.5.6 1 1.1 1z" class="st23"/><path d="M50.1 56.4c.4 0 .7.3.7.7 0 .4-.3.7-.7.7-.4 0-.7-.3-.7-.7 0-.4.3-.7.7-.7m0 1.7c.6 0 1-.4 1-1s-.4-1-1-1-1 .4-1 1c0 .5.5 1 1 1" class="st22"/><path d="M50.1 56.4c.4 0 .7.3.7.7 0 .4-.3.7-.7.7-.4 0-.7-.3-.7-.7 0-.4.3-.7.7-.7zm0 1.7c.6 0 1-.4 1-1s-.4-1-1-1-1 .4-1 1c0 .5.5 1 1 1z" class="st23"/><path d="M59.9 45.7c.5 0 .6.1.6.6 0 .4-.1.5-.6.5s-.6-.1-.6-.5c0-.5.1-.6.6-.6m0-1.8c.4 0 .5.1.5.5s-.1.5-.5.5c-.5 0-.6-.1-.6-.5s.1-.5.6-.5m-1 1.4c-.6.1-.8.6-.8 1.2 0 .9.4 1.2 1.7 1.2 1.4 0 1.7-.3 1.7-1.2 0-.6-.1-1.1-.8-1.2.5-.1.7-.5.7-1 0-.8-.3-1.2-1.6-1.2s-1.6.4-1.6 1.2c.1.4.3.9.7 1zm-2 1.2c-.3 0-.4.1-.4.4v.3c0 .3.1.4.4.4h.3c.3 0 .4-.1.4-.4v-.3c0-.3-.1-.4-.4-.4h-.3zm-4.1-2.4h1.4c.3 0 .5 0 .5.2s-.3.6-.8 1.1l-1 1c-.1.1-.2.3-.2.5v.6H56v-1h-1.3c-.2 0-.4 0-.6.1l1.1-1.1c.6-.6.7-.9.7-1.4 0-.9-.6-1.1-1.6-1.1-.5 0-.9 0-1.6.1l.1 1zm14.5-5.9h-.5c-.3 0-.4-.1-.4-.4 0-.2.1-.3.4-.3h.5v.7zm-1.3.4c-.2 0-.5.1-.6.3l-.2 1h1.2l.2-.8c0-.1.1-.2.3-.2h.4v1h1.1v-3.2c-.4 0-.7-.1-1.6-.1-1.2 0-1.5.2-1.5 1 .1.5.2.9.7 1zm-3.3.2c0-.1.1-.2.3-.2h.7v.4c-.2.1-.4.2-.6.2-.2 0-.3-.1-.3-.3v-.1zm-.9-1.2h1.4c.3 0 .4.1.4.4h-1.1c-.6 0-1 .3-1 .8v.3c0 .6.5.9 1.1.9.5 0 .9-.3 1.1-.5l.1.5h.9v-2c0-.9-.5-1.2-1.3-1.2-.5 0-1.3.1-1.7.2l.1.6zm-.8-.8h-1.1v1.1h-1v-1.1h-1.1V40h1.1v-1.3h1V40H61v-3.2zm-3.9 0H56v1.1h-1v-1.1h-1.1V40H55v-1.3h1V40h1.1v-3.2zm-6 2c0-.1.1-.2.3-.2h.6v.4c-.2.1-.4.2-.6.2-.2 0-.3-.1-.3-.3v-.1zm-.9-1.2h1.4c.3 0 .4.1.4.4h-1c-.6 0-1 .3-1 .8v.3c0 .6.5.9 1.1.9.5 0 .9-.3 1.1-.5l.1.5h.9v-2c0-.9-.5-1.2-1.3-1.2-.5 0-1.3.1-1.7.2v.6zm-3 1.5V38h.6c.5 0 .6.1.6.6 0 .4-.1.5-.6.5h-.6zm0-1.8v-1h.6c.4 0 .5.1.5.5s-.1.5-.5.5h-.6zm1.4.3c.6-.1.8-.4.8-1 0-.9-.4-1.1-1.6-1.1-.8 0-1.3 0-1.8.1V40c.6 0 1.1.1 2 .1 1.1 0 1.5-.2 1.5-1.1.1-.9-.2-1.3-.9-1.4zm9.1 47h-.5v-1.8h-.9l-.2.7v1.1h-.9c-.1 0-.2-.1-.1-.2l1-2.5H55l-1.1 2.8c-.1.3.1.7.5.7h1.8v.9h1.1v-.9l.5-.1v-.7zm-4.9.6c-.3 0-.4.1-.4.4v.3c0 .3.1.4.4.4h.3c.3 0 .4-.1.4-.4v-.3c0-.3-.1-.4-.4-.4h-.3zm-1.2 1.1v-4.4h-1.2l-1.1.4.1.8 1-.2v3.4h1.2zm7.5-10.8h-1.2l-.5 1.9c0 .1-.1.4-.1.5h-.1c0-.2-.1-.4-.1-.5l-.5-1.9h-1.2l1 2.9c.1.2.2.3.4.3h.2c-.1.2-.2.3-.3.4-.2.1-.5.1-.9.1l-.1.8c.5.1.9.1 1.3-.1.5-.2.9-.5 1.1-1.2l1-3.2zm-6.2 3.6 2.5-4.9h-.9L52 79.1h.9zm-1.3-1.4c-.4 0-.8.1-1.4.1-.5 0-.7-.3-.7-1.3s.1-1.3.7-1.3h1.3l.1-.9c-.4-.1-.7-.2-1.4-.2-1.4 0-1.9.6-1.9 2.3 0 1.7.5 2.3 1.9 2.3.7 0 1.1 0 1.5-.2l-.1-.8zm-10 1.3c0 2.9-2.3 5.2-5.2 5.2h-7.6c-.5 0-.9-.4-.9-.9v-8.6c0-.5.4-.9.9-.9h7.6c2.8 0 5.2 2.4 5.2 5.2m-14.1-4.3v8.6c0 .7.6 1.3 1.3 1.3h7.6c3.1 0 5.6-2.5 5.6-5.6 0-3.1-2.5-5.6-5.6-5.6h-7.6c-.7.1-1.3.6-1.3 1.3" class="st22"/><path d="M41.6 79c0 2.9-2.3 5.2-5.2 5.2h-7.6c-.5 0-.9-.4-.9-.9v-8.6c0-.5.4-.9.9-.9h7.6c2.8 0 5.2 2.4 5.2 5.2zm-14.1-4.3v8.6c0 .7.6 1.3 1.3 1.3h7.6c3.1 0 5.6-2.5 5.6-5.6 0-3.1-2.5-5.6-5.6-5.6h-7.6c-.7.1-1.3.6-1.3 1.3z" class="st23"/><path d="M30.4 82.8v-7.5s0-.1.1-.1h5.7c2.1 0 3.8 1.7 3.8 3.8 0 2.1-1.7 3.8-3.8 3.8h-5.8c.1.1 0 0 0 0z" class="st23"/><path d="M30.6 82.7v-7.3h5.6c2 0 3.6 1.6 3.6 3.6s-1.6 3.6-3.6 3.6h-5.6zm-.4-7.4v7.5c0 .1.1.3.3.3h5.7c2.2 0 4-1.8 4-4s-1.8-4-4-4h-5.7c-.1-.1-.3.1-.3.2" class="st22"/><path d="M30.6 82.7v-7.3h5.6c2 0 3.6 1.6 3.6 3.6s-1.6 3.6-3.6 3.6h-5.6zm-.4-7.4v7.5c0 .1.1.3.3.3h5.7c2.2 0 4-1.8 4-4s-1.8-4-4-4h-5.7c-.1-.1-.3.1-.3.2z" class="st23"/><path d="M36.2 79c0 .5-.4 1-1 1-.5 0-1-.4-1-1 0-.5.4-1 1-1 .6.1 1 .5 1 1m-2.3 0c0 .7.6 1.3 1.3 1.3s1.3-.6 1.3-1.3c0-.7-.6-1.3-1.3-1.3s-1.3.6-1.3 1.3" class="st22"/><path d="M36.2 79c0 .5-.4 1-1 1-.5 0-1-.4-1-1 0-.5.4-1 1-1 .6.1 1 .5 1 1zm-2.3 0c0 .7.6 1.3 1.3 1.3s1.3-.6 1.3-1.3c0-.7-.6-1.3-1.3-1.3s-1.3.6-1.3 1.3z" class="st23"/><path d="m31.081 81.963 2.403-1.795.24.32-2.403 1.796z" class="st1"/><path d="m31.081 81.963 2.403-1.795.24.32-2.403 1.796z" class="st16"/><path d="m31.1 76.2 2.4 1.8.2-.3-2.4-1.8z" class="st1"/><path d="m31.1 76.2 2.4 1.8.2-.3-2.4-1.8z" class="st16"/><defs><path id="SVGID_27_" d="M12.2 8h319.3v228H12.2z"/></defs><clipPath id="SVGID_28_"><use xlink:href="#SVGID_27_" style="overflow:visible"/></clipPath><path d="M27.5 82.6c0 .8-.6 1.4-1.4 1.4h-2c-.8 0-1.4-.6-1.4-1.4v-7.2c0-.8.6-1.4 1.4-1.4h2c.8 0 1.4.6 1.4 1.4v7.2zm-5.2-7.2v7.2c0 1 .8 1.8 1.8 1.8h2c1 0 1.8-.8 1.8-1.8v-7.2c0-1-.8-1.8-1.8-1.8h-2c-1 0-1.8.9-1.8 1.8" class="st24"/><path d="M27.5 82.6c0 .8-.6 1.4-1.4 1.4h-2c-.8 0-1.4-.6-1.4-1.4v-7.2c0-.8.6-1.4 1.4-1.4h2c.8 0 1.4.6 1.4 1.4v7.2zm-5.2-7.2v7.2c0 1 .8 1.8 1.8 1.8h2c1 0 1.8-.8 1.8-1.8v-7.2c0-1-.8-1.8-1.8-1.8h-2c-1 0-1.8.9-1.8 1.8z" class="st25"/><path d="M25.6 79c0 .3-.3.6-.6.6s-.6-.3-.6-.6.3-.6.6-.6c.4.1.6.3.6.6m-1.4 0c0 .5.4.9.9.9s.9-.3.9-.9c0-.5-.4-.9-.9-.9s-.9.4-.9.9" class="st24"/><path d="M25.6 79c0 .3-.3.6-.6.6s-.6-.3-.6-.6.3-.6.6-.6c.4.1.6.3.6.6zm-1.4 0c0 .5.4.9.9.9s.9-.3.9-.9c0-.5-.4-.9-.9-.9s-.9.4-.9.9z" class="st25"/><path d="M27.6 92.8V67.9m-7.1 19.3h5.6v4.2h-5.6z" class="st15"/><defs><path id="SVGID_29_" d="M12.2 8h319.3v228H12.2z"/></defs><clipPath id="SVGID_30_"><use xlink:href="#SVGID_29_" style="overflow:visible"/></clipPath><path d="M102 54.1h1.4c.3 0 .5 0 .5.2s-.3.6-.8 1.1l-1 1c-.1.1-.2.3-.2.5v.6h3.3v-1h-1.3c-.2 0-.4 0-.6.1l1.1-1.1c.6-.6.7-.9.7-1.4 0-.9-.6-1.1-1.6-1.1-.5 0-.9 0-1.6.1l.1 1zm-1.3 2.4c-.3 0-.4.1-.4.4v.3c0 .3.1.4.4.4h.3c.3 0 .4-.1.4-.4v-.3c0-.3-.1-.4-.4-.4h-.3zm-.8-.6h-.5V54h-.9l-.2.7v1.1h-.9c-.1 0-.2-.1-.1-.2l1-2.5h-1.1L96.1 56c-.1.3.1.7.5.7h1.8v.9h1.1v-.9l.5-.1v-.7zm15.6-7.7h-.5c-.3 0-.4-.1-.4-.4 0-.2.1-.3.4-.3h.5v.7zm-1.3.4c-.2 0-.5.1-.6.3l-.2 1h1.2l.2-.8c0-.1.1-.2.3-.2h.4v1h1.1v-3.2c-.4 0-.7-.1-1.6-.1-1.2 0-1.5.2-1.5 1 .1.5.2.9.7 1zm-3.3.2c0-.1.1-.2.3-.2h.7v.4c-.2.1-.4.2-.6.2-.2 0-.3-.1-.3-.3v-.1zm-.9-1.2h1.4c.3 0 .4.1.4.4h-1.1c-.6 0-1 .3-1 .8v.3c0 .6.5.9 1.1.9.5 0 .9-.3 1.1-.5l.1.5h.9v-2c0-.9-.5-1.2-1.3-1.2-.5 0-1.3.1-1.7.2l.1.6zm-1.8.7c.7-.1.7-.2 1.1-1.5h-1.1c-.3 1-.4 1.2-.7 1.2h-.2v-1.2h-1V48h-.2c-.3 0-.4-.1-.7-1.2h-1.1c.4 1.3.4 1.4 1.1 1.5-.8.1-.8.2-1.2 1.6h1.2c.4-1.2.4-1.3.7-1.3h.3v1.3h1v-1.3h.2c.3 0 .3.1.7 1.3h1.2c-.5-1.4-.5-1.5-1.3-1.6zm-5.9-.8c.4 0 .5.2.5.9s-.1.8-.5.8-.5-.2-.5-.8c0-.7.1-.9.5-.9m0-.8c-1.2 0-1.7.5-1.7 1.7s.5 1.7 1.7 1.7 1.7-.4 1.7-1.7c0-1.3-.4-1.7-1.7-1.7m-3 3.2h1.2l-.9-1.6.9-1.5h-1.2l-.7 1.2-.6-1.2h-1.2l.9 1.5-.9 1.6H98l.7-1.3.6 1.3zm-2.9 0v-3.2h-1l-1 1.5c-.1.1-.2.3-.2.5v-2h-1v3.2h1l1-1.4c.1-.1.2-.4.3-.5v2h.9zm-6-2.2c.2-.1.4-.2.6-.2.3 0 .4.1.4.8 0 .7-.1.8-.5.8-.2 0-.4-.1-.6-.1v-1.3zm-.2-.9h-.9v4.3h1.2v-1.4c.3.2.6.3 1 .3.8 0 1.2-.3 1.2-1.6 0-1.1-.3-1.7-1.1-1.7-.5 0-1 .2-1.2.5l-.2-.4zm-1.7-1.3h-3.7v4.4H86v-3.6h1.3v3.6h1.2v-4.4z" style="clip-path:url(#SVGID_30_);fill:#39363a"/></g></switch></svg>