<svg xmlns="http://www.w3.org/2000/svg" xmlns:xlink="http://www.w3.org/1999/xlink" xml:space="preserve" id="Слой_1" x="0" y="0" style="enable-background:new 0 0 251.6 255" version="1.1" viewBox="0 0 251.6 255"><style>.st2{fill:#39373a}.st13,.st4{fill:none;stroke:#39373a}.st4{stroke-width:.6}.st13{stroke-width:.699}.st14{fill:#39373a}.st14,.st15{clip-path:url(#SVGID_18_)}.st15,.st16{fill:none;stroke:#39373a;stroke-width:.276}.st17{fill:#39373a}.st17,.st18,.st19{clip-path:url(#SVGID_20_)}.st18{fill:none;stroke:#39373a;stroke-width:.276}.st19{stroke-width:.217}.st19,.st20,.st23{fill:none;stroke:#39373a}.st20{clip-path:url(#SVGID_20_);stroke-width:.554}.st23{stroke-width:.258}.st29{clip-path:url(#SVGID_26_);fill:#39373a}</style><switch><g><path d="M0 0h251.6v255H0z" style="fill:#fff"/><path d="M24.3 22.6h203.1v158.5H24.3z" style="fill:#b7e0e6"/><path d="M123.6 17.5h4.7v85.6h-4.7z" class="st2"/><defs><path id="SVGID_1_" d="M19.1 17.2h213.4v220.7H19.1z"/></defs><clipPath id="SVGID_2_"><use xlink:href="#SVGID_1_" style="overflow:visible"/></clipPath><path d="M123.6 17.5h4.7v85.6h-4.7z" style="clip-path:url(#SVGID_2_);fill:none;stroke:#39373a;stroke-width:.6"/><path d="M123.6 148.5h4.7v41.7h-4.7z" class="st2"/><path d="M123.6 148.5h4.7v41.7h-4.7z" class="st4"/><path d="M123.6 212.5h4.7v25.1h-4.7z" class="st2"/><defs><path id="SVGID_3_" d="M19.1 17.2h213.4v220.7H19.1z"/></defs><clipPath id="SVGID_4_"><use xlink:href="#SVGID_3_" style="overflow:visible"/></clipPath><path d="M123.6 212.5h4.7v25.1h-4.7z" style="clip-path:url(#SVGID_4_);fill:none;stroke:#39373a;stroke-width:.6"/><path d="M74.5 20.2h2.9v45.4h-2.9z" class="st2"/><path d="M74.5 20.2h2.9v45.4h-2.9z" class="st4"/><path d="M20.7 83.9h61.2v2.9H20.7z" class="st2"/><path d="M20.7 83.9h61.2v2.9H20.7z" class="st4"/><path d="M105.1 83.9H127v2.9h-21.9z" class="st2"/><path d="M105.1 83.9H127v2.9h-21.9z" class="st4"/><path d="M227.5 20.2h4.7v202.6h-4.7z" class="st2"/><defs><path id="SVGID_5_" d="M19.1 17.2h213.4v220.7H19.1z"/></defs><clipPath id="SVGID_6_"><use xlink:href="#SVGID_5_" style="overflow:visible"/></clipPath><path d="M227.5 20.2h4.7v202.6h-4.7z" style="clip-path:url(#SVGID_6_);fill:none;stroke:#39373a;stroke-width:.6"/><path d="m78.7 152-1.9 7h1.3l1.9-7.1v-1.1h-3.9v1.2h2.6zm-3.3 5.8h-1.3v1.2h1.3v-1.2zm-4.8-5.1c0-.5.2-.8.7-.8.4 0 .7.3.7.8v4.4c0 .5-.2.8-.7.8-.4 0-.7-.3-.7-.8v-4.4zm-.8 5.9c.3.4.8.5 1.5.5.6 0 1.1-.2 1.4-.5.3-.4.5-.9.5-1.5v-4.3c0-.7-.2-1.2-.5-1.5-.3-.4-.8-.5-1.4-.5-.6 0-1.1.2-1.5.5s-.5.9-.5 1.5v4.3c0 .6.2 1.1.5 1.5m-3.2-5.8v6.3h1.3v-8.2H67c-.1.1-.1.2-.1.3 0 .1-.1.2-.2.3l-.2.2c-.1.1-.2.1-.4.1-.1 0-.3.1-.5.1v.9h1zm28.1-14.6.6 4.1h-1.2l.6-4.1zm-1 6.7.2-1.5h1.6l.2 1.5H97l-1.3-8.2h-2l-1.3 8.2h1.3zm-1.9 0v-8.2h-1.3v7h-1.1v-7h-1.3v7H87v-7h-1.3v8.2h6.1zm-9.8 0 1.1-3.8.5-2v5.8h1.3v-8.2h-1.5l-1.1 3.4-.5 1.8v-5.2h-1.2v8.2H82zm-5 0v-3.5h1.5v3.5h1.3v-8.2h-1.3v3.5H77v-3.5h-1.3v8.2H77zm-2.2-4.6h-2.3v1.2h2.3v-1.2zm-5.8-1.5c0-.3.1-.5.2-.6.1-.1.3-.2.5-.2h.6v2.5h-.5c-.3 0-.4-.1-.6-.2-.1-.1-.2-.4-.2-.7v-.8zm-.1 6.1c0-.1.1-.2.1-.2v-2.1c0-.4.1-.6.2-.8.1-.2.3-.2.6-.2h.4v3.3h1.3v-8.2h-1.9c-.7 0-1.1.2-1.4.5-.3.3-.5.8-.5 1.4v.6c0 .8.3 1.4.8 1.7-.3.1-.5.3-.7.6-.1.3-.2.7-.2 1.1v1.3c0 .4 0 .8-.1 1h1.4zm-4.8 0v-3.5h1.5v3.5h1.3v-8.2h-1.3v3.5h-1.5v-3.5h-1.3v8.2h1.3zm-5.3 0 1-3.1 1 3.1h1.3l-1.4-4.2 1.3-4h-1.1l-1 3-1-3h-1.3l1.4 4-1.4 4.2h1.2zm-4.4-1.8c-.1.4-.2.5-.4.6-.2.1-.4.1-.8.1v1.2h.9c.3 0 .5-.1.7-.2.2-.1.3-.2.5-.4l.3-.6c.1-.2.1-.5.2-.8l1.4-6.1h-1.3l-.6 2.8-.3 1.9-.4-1.9-.7-2.8h-1.3l1.8 6.2zm-4.9 1.8v-2.5l.4-.8 1.3 3.3h1.3l-1.8-4.6 1.8-3.7h-1.3l-1.7 3.6v-3.6h-1.3v8.2h1.3zm41 75.1c.6 0 1.1-.1 1.4-.4.3-.3.4-.7.4-1.4v-4.6c0-.7-.1-1.1-.4-1.4-.3-.3-.7-.4-1.4-.4h-.4v1.1h.3c.2 0 .4.1.5.2.1.1.1.3.1.6v4.5c0 .3 0 .5-.1.6-.1.1-.2.2-.5.2h-.3v1.1h.4zm-2.3-7.1-1.9 7h1.3l1.9-7.1v-1.1h-3.9v1.2h2.6zm-3.3 5.9h-1.3v1.2h1.3v-1.2zm-3.8-4.6v3.1h-1.3l1.3-3.1zm0 4.3v1.5h1.3v-1.5h.6v-1.2h-.6v-5.5H81l-2.3 5.5v1.2h2.4zm-4.6 1.1c.3.3.7.4 1.4.4h.4v-1.1H78c-.2 0-.4-.1-.5-.2-.1-.1-.1-.3-.1-.6v-4.5c0-.3 0-.5.1-.6.1-.1.2-.2.5-.2h.3v-1.1h-.4c-.6 0-1.1.1-1.4.4-.3.3-.4.7-.4 1.4v4.6c0 .7.1 1.2.4 1.5m-4.8-5.4v3.1h-1.3l1.3-3.1zm0 4.3v1.5H73v-1.5h.6v-1.2H73v-5.5h-1.4l-2.3 5.5v1.2h2.4zm-3 .3h-1.3v1.2h1.3v-1.2zm-4.8-5.2c0-.5.2-.8.7-.8.4 0 .7.3.7.8v1.5c0 .5-.2.8-.7.8-.4 0-.7-.3-.7-.8v-1.5zm-.9 3c.2.3.6.5 1.1.5.6 0 1-.2 1.2-.7v1.5c0 .4-.1.6-.2.8s-.3.2-.5.2c-.4 0-.7-.3-.7-.8v-.3h-1.2v.2c0 .7.2 1.2.5 1.5.3.4.8.5 1.4.5 1.3 0 2-.7 2-2.1v-4.2c0-.7-.2-1.2-.5-1.5-.3-.4-.8-.5-1.5-.5-.6 0-1.1.2-1.5.5-.3.4-.5.9-.5 1.5v1.5c0 .6.1 1.1.4 1.4" style="clip-path:url(#SVGID_6_);fill:#39373a"/><path d="M191.8 190.3h37.7v2.9h-37.7z" class="st2"/><path d="M191.8 190.3h37.7v2.9h-37.7z" class="st4"/><path d="M194.4 181.2h34.7v9.6h-34.7z" class="st2"/><path d="M194.4 181.2h34.7v9.6h-34.7z" class="st4"/><path d="M118 190.3h31.1v2.9H118z" class="st2"/><path d="M118 190.3h31.1v2.9H118z" class="st4"/><path d="M118 181.2h28.6v9.6H118z" class="st2"/><path d="M118 181.2h28.6v9.6H118zm47.9 9.1h42.6v2.9h-42.6zm2.6-9.1h40.1v9.1h-40.1z" class="st4"/><defs><path id="SVGID_7_" d="M19.1 17.2h213.4v220.7H19.1z"/></defs><clipPath id="SVGID_8_"><use xlink:href="#SVGID_7_" style="overflow:visible"/></clipPath><path d="M168.2 190s-1-4.2-2.1-7.1c-1.1-2.9-2.4-4.5-2.4-4.5l-19 10.9.6.9 19.1-10.7" style="clip-path:url(#SVGID_8_);fill:none;stroke:#39373a;stroke-width:.52"/><path d="M68.8 190.3h42.6v2.9H68.8z" class="st4"/><path d="M94.7 190.3h31.1v2.9H94.7z" class="st2"/><path d="M94.7 190.3h31.1v2.9H94.7z" class="st4"/><path d="M97.3 181.2h28.6v9.6H97.3z" class="st2"/><path d="M97.3 181.2h28.6v9.6H97.3z" class="st4"/><path d="M21.3 190.3h31.1v2.9H21.3z" class="st2"/><path d="M21.3 190.3h31.1v2.9H21.3z" class="st4"/><path d="M21.3 181.2h28.6v9.6H21.3z" class="st2"/><path d="M21.3 181.2h28.6v9.6H21.3zm50 0h40.1v9.1H71.3z" class="st4"/><defs><path id="SVGID_9_" d="M19.1 17.2h213.4v220.7H19.1z"/></defs><clipPath id="SVGID_10_"><use xlink:href="#SVGID_9_" style="overflow:visible"/></clipPath><path d="M71.1 190s-1-4.2-2.1-7.1c-1.1-2.9-2.4-4.5-2.4-4.5l-19 10.9.6.9 19.1-10.7" style="clip-path:url(#SVGID_10_);fill:none;stroke:#39373a;stroke-width:.52"/><path d="M110.7 17.5h121.5v4.8H110.7z" class="st2"/><defs><path id="SVGID_11_" d="M19.1 17.2h213.4v220.7H19.1z"/></defs><clipPath id="SVGID_12_"><use xlink:href="#SVGID_11_" style="overflow:visible"/></clipPath><path d="M110.7 17.5h121.5v4.8H110.7z" style="clip-path:url(#SVGID_12_);fill:none;stroke:#39373a;stroke-width:.6"/><path d="M19.4 17.5h62.5v4.8H19.4z" class="st2"/><defs><path id="SVGID_13_" d="M19.1 17.2h213.4v220.7H19.1z"/></defs><clipPath id="SVGID_14_"><use xlink:href="#SVGID_13_" style="overflow:visible"/></clipPath><path d="M19.4 17.5h62.5v4.8H19.4z" style="clip-path:url(#SVGID_14_);fill:none;stroke:#39373a;stroke-width:.6"/><path d="M19.4 17.5h4.5v220.1h-4.5z" class="st2"/><defs><path id="SVGID_15_" d="M19.1 17.2h213.4v220.7H19.1z"/></defs><clipPath id="SVGID_16_"><use xlink:href="#SVGID_15_" style="overflow:visible"/></clipPath><path d="M19.4 17.5h4.5v220.1h-4.5z" style="clip-path:url(#SVGID_16_);fill:none;stroke:#39373a;stroke-width:.6"/><path d="M28.3 87.5h24.5v8.6H28.3zm24.4 1.4H28.2" class="st13"/><path d="m51.5 88.9-.5 6.2H35.5l-.7-6.2h-1l-.7 6.2h-3.5l-.7-6.2m23.9-1.4h24.5v8.6H52.8zm24.4 1.4H52.6" class="st13"/><path d="m75.9 88.9-.5 6.2H59.9l-.7-6.2h-1l-.6 6.2h-3.5l-.8-6.2" class="st13"/><defs><path id="SVGID_17_" d="M19.1 17.2h213.4v220.7H19.1z"/></defs><clipPath id="SVGID_18_"><use xlink:href="#SVGID_17_" style="overflow:visible"/></clipPath><path d="M45.3 72.7c0-3.1-2.5-5.7-5.7-5.7h-8.2c-.5 0-1 .4-1 1v9.4c0 .5.4 1 1 1h8.2c3.2 0 5.7-2.5 5.7-5.7m-15.2 4.7V68c0-.8.6-1.4 1.4-1.4h8.2c3.3 0 6 2.7 6 6s-2.7 6-6 6h-8.2c-.8.2-1.4-.4-1.4-1.2" class="st14"/><path d="M45.3 72.7c0-3.1-2.5-5.7-5.7-5.7h-8.2c-.5 0-1 .4-1 1v9.4c0 .5.4 1 1 1h8.2c3.2 0 5.7-2.5 5.7-5.7zm-15.2 4.7V68c0-.8.6-1.4 1.4-1.4h8.2c3.3 0 6 2.7 6 6s-2.7 6-6 6h-8.2c-.8.2-1.4-.4-1.4-1.2z" class="st15"/><path d="M33.2 68.7v8.1c0 .1 0 .1.1.1h6.2c2.3 0 4.2-1.9 4.2-4.2 0-2.3-1.9-4.2-4.2-4.2l-6.3.2c0-.1 0-.1 0 0z" class="st15"/><path d="M33.4 68.8v7.9h6.1c2.2 0 4-1.8 4-4s-1.8-4-4-4h-6.1zm-.4 8v-8.1c0-.2.1-.3.3-.3h6.2c2.4 0 4.3 1.9 4.3 4.3s-2 4.3-4.3 4.3h-6.2c-.2.1-.3-.1-.3-.2" class="st14"/><path d="M33.4 68.8v7.9h6.1c2.2 0 4-1.8 4-4s-1.8-4-4-4h-6.1zm-.4 8v-8.1c0-.2.1-.3.3-.3h6.2c2.4 0 4.3 1.9 4.3 4.3s-2 4.3-4.3 4.3h-6.2c-.2.1-.3-.1-.3-.2z" class="st15"/><path d="M39.5 72.7c0-.6-.5-1.1-1.1-1.1-.6 0-1.1.5-1.1 1.1 0 .6.5 1.1 1.1 1.1.6 0 1.1-.5 1.1-1.1m-2.5 0c0-.8.7-1.5 1.5-1.5s1.5.7 1.5 1.5-.7 1.5-1.5 1.5c-.9 0-1.5-.7-1.5-1.5" class="st14"/><path d="M39.5 72.7c0-.6-.5-1.1-1.1-1.1-.6 0-1.1.5-1.1 1.1 0 .6.5 1.1 1.1 1.1.6 0 1.1-.5 1.1-1.1zm-2.5 0c0-.8.7-1.5 1.5-1.5s1.5.7 1.5 1.5-.7 1.5-1.5 1.5c-.9 0-1.5-.7-1.5-1.5z" class="st15"/><path d="m34 69.6.2-.3 2.6 1.9-.2.3z" class="st2"/><path d="m34 69.6.2-.3 2.6 1.9-.2.3z" class="st16"/><path d="m33.993 75.801 2.562-1.917.24.32-2.562 1.918z" class="st2"/><path stroke-width=".276" d="m33.993 75.801 2.562-1.917.24.32-2.562 1.918z" class="st16"/><defs><path id="SVGID_19_" d="M19.1 17.2h213.4v220.7H19.1z"/></defs><clipPath id="SVGID_20_"><use xlink:href="#SVGID_19_" style="overflow:visible"/></clipPath><path d="M30.1 68.8c0-.9-.7-1.6-1.6-1.6h-2.1c-.9 0-1.6.7-1.6 1.6v7.8c0 .9.7 1.6 1.6 1.6h2.1c.9 0 1.6-.7 1.6-1.6v-7.8zm-5.7 7.8v-7.8c0-1.1.9-2 2-2h2.1c1.1 0 2 .9 2 2v7.8c0 1.1-.9 2-2 2h-2.1c-1.1 0-2-.9-2-2" class="st17"/><path d="M30.1 68.8c0-.9-.7-1.6-1.6-1.6h-2.1c-.9 0-1.6.7-1.6 1.6v7.8c0 .9.7 1.6 1.6 1.6h2.1c.9 0 1.6-.7 1.6-1.6v-7.8zm-5.7 7.8v-7.8c0-1.1.9-2 2-2h2.1c1.1 0 2 .9 2 2v7.8c0 1.1-.9 2-2 2h-2.1c-1.1 0-2-.9-2-2z" class="st18"/><path d="M28 72.7c0-.3-.3-.6-.6-.6s-.6.3-.6.6.3.6.6.6c.4 0 .6-.2.6-.6m-1.6 0c0-.5.4-1 1-1 .5 0 1 .4 1 1 0 .5-.4 1-1 1-.5 0-1-.4-1-1" class="st17"/><path d="M28 72.7c0-.3-.3-.6-.6-.6s-.6.3-.6.6.3.6.6.6c.4 0 .6-.2.6-.6zm-1.6 0c0-.5.4-1 1-1 .5 0 1 .4 1 1 0 .5-.4 1-1 1-.5 0-1-.4-1-1z" class="st18"/><path d="M36.1 53.8c0 2.8-2.3 5.2-5.2 5.2h-5.5c-.4 0-.8-.4-.8-.8V46.5c0-.4.4-.8.8-.8h5.5c2.9 0 5.2 2.3 5.2 5.2v2.9zm-11.7-7.3v11.7c0 .6.5 1.1 1.1 1.1H31c3 0 5.5-2.4 5.5-5.5v-2.9c0-3-2.5-5.5-5.5-5.5h-5.5c-.6 0-1.1.5-1.1 1.1" class="st17"/><path d="M36.1 53.8c0 2.8-2.3 5.2-5.2 5.2h-5.5c-.4 0-.8-.4-.8-.8V46.5c0-.4.4-.8.8-.8h5.5c2.9 0 5.2 2.3 5.2 5.2v2.9zm-11.7-7.3v11.7c0 .6.5 1.1 1.1 1.1H31c3 0 5.5-2.4 5.5-5.5v-2.9c0-3-2.5-5.5-5.5-5.5h-5.5c-.6 0-1.1.5-1.1 1.1z" class="st19"/><path d="M34.8 53.8c0 2.1-1.7 3.9-3.9 3.9h-3.2c-.4 0-.7-.3-.7-.7v-9.3c0-.4.3-.7.7-.7h3.2c2.1 0 3.9 1.7 3.9 3.9v2.9zm-8-6.1V57c0 .5.4 1 1 1H31c2.3 0 4.2-1.9 4.2-4.2v-2.9c0-2.3-1.9-4.2-4.2-4.2h-3.2c-.6 0-1 .5-1 1" class="st17"/><path d="M34.8 53.8c0 2.1-1.7 3.9-3.9 3.9h-3.2c-.4 0-.7-.3-.7-.7v-9.3c0-.4.3-.7.7-.7h3.2c2.1 0 3.9 1.7 3.9 3.9v2.9zm-8-6.1V57c0 .5.4 1 1 1H31c2.3 0 4.2-1.9 4.2-4.2v-2.9c0-2.3-1.9-4.2-4.2-4.2h-3.2c-.6 0-1 .5-1 1z" class="st19"/><path d="M32.1 52.4c0 .4-.3.6-.6.6-.4 0-.6-.3-.6-.6 0-.4.3-.6.6-.6.3-.1.6.2.6.6m-1.6 0c0 .5.4.9.9.9s.9-.4.9-.9-.4-.9-.9-.9c-.5-.1-.9.3-.9.9" class="st17"/><path d="M32.1 52.4c0 .4-.3.6-.6.6-.4 0-.6-.3-.6-.6 0-.4.3-.6.6-.6.3-.1.6.2.6.6zm-1.6 0c0 .5.4.9.9.9s.9-.4.9-.9-.4-.9-.9-.9c-.5-.1-.9.3-.9.9z" class="st19"/><path d="M33.7 33.2c0-.4.4-.8.8-.8s.8.4.8.8-.4.8-.8.8-.8-.4-.8-.8z" class="st20"/><path d="M72.3 36.8c0 2.9-2.3 5.2-5.2 5.2H31.3c-2.9 0-5.2-2.3-5.2-5.2v-7.3c0-2.9 2.3-5.2 5.2-5.2H67c2.9 0 5.2 2.3 5.2 5.2v7.3z" class="st20"/><path d="M69.1 35.2c0 2.9-2.3 5.2-5.2 5.2H34.6c-2.9 0-5.2-2.3-5.2-5.2v-3.9c0-2.9 2.3-5.2 5.2-5.2h29.3c2.9 0 5.2 2.3 5.2 5.2v3.9z" class="st20"/><path d="M65.2 36.2c0 1.4-1.2 2.6-2.6 2.6H33.7c-1.4 0-2.6-1.2-2.6-2.6v-6c0-1.4 1.2-2.6 2.6-2.6h28.9c1.4 0 2.6 1.2 2.6 2.6v6z" class="st20"/><path d="M24.3 22.9h49.8v20.6H24.3z" style="fill:none;stroke:#39373a;stroke-width:.554"/><path d="M62.3 44.5h11.2v17.2H62.3zm.1-.1 11.1 17.3m.1-17.3-11 17.3" style="stroke-width:.52;fill:none;stroke:#39373a"/><path d="M24.8 123.5h16.7v-16.7H24.8v16.7zm-.4-17.2h17.5v17.5H24.4v-17.5z" class="st2"/><path d="M24.8 123.5h16.7v-16.7H24.8v16.7zm-.4-17.2h17.5v17.5H24.4v-17.5z" class="st23"/><defs><path id="SVGID_21_" d="M19.1 17.2h213.4v220.7H19.1z"/></defs><clipPath id="SVGID_22_"><use xlink:href="#SVGID_21_" style="overflow:visible"/></clipPath><path d="M40 109.2c0-.4-.3-.7-.8-.7h-8.8c-.4 0-.8.3-.8.7V121c0 .4.3.7.8.7h8.8c.4 0 .8-.3.8-.7v-11.8zM29.3 121v-11.7c0-.6.5-1.1 1.1-1.1h8.8c.6 0 1.1.5 1.1 1.1V121c0 .6-.5 1.1-1.1 1.1h-8.8c-.6 0-1.1-.5-1.1-1.1" style="clip-path:url(#SVGID_22_);fill:#39373a"/><path d="M40 109.2c0-.4-.3-.7-.8-.7h-8.8c-.4 0-.8.3-.8.7V121c0 .4.3.7.8.7h8.8c.4 0 .8-.3.8-.7v-11.8zM29.3 121v-11.7c0-.6.5-1.1 1.1-1.1h8.8c.6 0 1.1.5 1.1 1.1V121c0 .6-.5 1.1-1.1 1.1h-8.8c-.6 0-1.1-.5-1.1-1.1z" style="clip-path:url(#SVGID_22_);fill:none;stroke:#39373a;stroke-width:.258"/><path d="M31 120.4h7.7v-10.6H31v10.6zm-.4-11H39v11.4h-8.4v-11.4z" class="st2"/><path d="M31 120.4h7.7v-10.6H31v10.6zm-.4-11H39v11.4h-8.4v-11.4z" class="st23"/><defs><path id="SVGID_23_" d="M19.1 17.2h213.4v220.7H19.1z"/></defs><clipPath id="SVGID_24_"><use xlink:href="#SVGID_23_" style="overflow:visible"/></clipPath><path d="M36.3 115.1c0-.5-.4-1-1-1-.5 0-1 .4-1 1 0 .5.4 1 1 1s1-.5 1-1m-2.3 0c0-.7.6-1.3 1.3-1.3.7 0 1.3.6 1.3 1.3 0 .7-.6 1.3-1.3 1.3-.7 0-1.3-.6-1.3-1.3" style="clip-path:url(#SVGID_24_);fill:#39373a"/><path d="M36.3 115.1c0-.5-.4-1-1-1-.5 0-1 .4-1 1 0 .5.4 1 1 1s1-.5 1-1zm-2.3 0c0-.7.6-1.3 1.3-1.3.7 0 1.3.6 1.3 1.3 0 .7-.6 1.3-1.3 1.3-.7 0-1.3-.6-1.3-1.3z" style="clip-path:url(#SVGID_24_);fill:none;stroke:#39373a;stroke-width:.258"/><path d="M20.4 85.4h7.5v10.7h-7.5z" class="st2"/><path d="M20.4 85.4h7.5v10.7h-7.5z" class="st4"/><defs><path id="SVGID_25_" d="M19.1 17.2h213.4v220.7H19.1z"/></defs><clipPath id="SVGID_26_"><use xlink:href="#SVGID_25_" style="overflow:visible"/></clipPath><path d="M111 18.4s0 3.7-1.6 8.3c-1.4 3.9-4.1 7.5-4.1 7.5L79.6 19.8l.6-.9 25.7 14.3m-.7 50.4s0 3.3-1.5 7.4c-1.2 3.5-3.7 6.7-3.7 6.7L77 84.9l.5-.8 23.1 12.8M74.9 65.7s2.6 0 5.8 1.2c2.7 1 5.2 2.9 5.2 2.9l-9.7 16-.6-.4 9.7-16" style="fill:none;stroke:#39373a;stroke-width:.52;clip-path:url(#SVGID_26_)"/><path d="M184.2 136.9c0-.5.2-.8.7-.8.4 0 .7.3.7.8v4.4c0 .5-.2.8-.7.8-.4 0-.7-.3-.7-.8v-4.4zm-.8 5.9c.3.4.8.5 1.5.5s1.1-.2 1.4-.5c.3-.4.5-.9.5-1.5V137c0-.7-.2-1.2-.5-1.5-.3-.4-.8-.5-1.4-.5s-1.1.2-1.5.5c-.3.4-.5.9-.5 1.5v4.3c0 .7.2 1.2.5 1.5m-1.3-.7h-1.3v1.2h1.3v-1.2zm-4.8-5.2c0-.5.2-.8.7-.8.4 0 .7.3.7.8v1.5c0 .5-.2.8-.7.8-.4 0-.7-.3-.7-.8v-1.5zm-.9 3c.2.3.6.5 1.1.5.6 0 1-.2 1.2-.7v1.5c0 .4-.1.6-.2.8-.1.2-.3.2-.5.2-.4 0-.7-.3-.7-.8v-.3h-1.2v.2c0 .7.2 1.2.5 1.5.3.4.8.5 1.4.5 1.3 0 2-.7 2-2.1V137c0-.7-.2-1.2-.5-1.5s-.8-.5-1.5-.5c-.6 0-1.1.2-1.5.5-.3.4-.5.9-.5 1.5v1.5c.1.6.2 1.1.4 1.4m-3.1-2.9v6.3h1.3v-8.2h-.9c-.1.1-.1.2-.1.3 0 .1-.1.2-.2.3l-.2.2c-.1.1-.2.1-.4.1-.1 0-.3.1-.5.1v.9h1zm21.7-14.5.6 4.1h-1.2l.6-4.1zm-1 6.7.2-1.5h1.6l.2 1.5h1.3L196 121h-2l-1.3 8.2h1.3zm-4.2-7v7h1.3v-7h1.4V121h-4v1.2h1.3zm-3.8.3.6 4.1h-1.2l.6-4.1zm-1 6.7.2-1.5h1.6l.2 1.5h1.3L187 121h-2l-1.3 8.2h1.3zm-4.7 0v-3.5h1.5v3.5h1.3V121h-1.3v3.5h-1.5V121H179v8.2h1.3zm-6.5 0v-5.8l1 5.8h1.2l.9-5.9v5.9h1.3V121h-1.9l-.9 5.8-1-5.8h-1.8v8.2h1.2zm-4.5-6.3c0-.5.2-.8.7-.8.4 0 .7.3.7.8v4.4c0 .5-.2.8-.7.8-.4 0-.7-.3-.7-.8v-4.4zm-.8 5.8c.3.4.8.5 1.5.5.6 0 1.1-.2 1.4-.5.3-.4.5-.9.5-1.5V123c0-.7-.2-1.2-.5-1.5-.3-.4-.8-.5-1.4-.5-.6 0-1.1.2-1.5.5-.3.4-.5.9-.5 1.5v4.3c0 .6.1 1.1.5 1.4m-4 .5v-2.5l.4-.8 1.3 3.3h1.3l-1.8-4.6 1.8-3.7h-1.3l-1.7 3.6V121h-1.3v8.2h1.3zm24.5-16c.8.8 1.9 1.2 3.3 1.2s2.5-.4 3.3-1.2c.7-.8 1.1-2 1.1-3.5v-4.2c0-1.4-.3-2.5-.8-3.2-.5-.7-1.4-1.1-2.4-1.1-1.2 0-2 .5-2.6 1.4l.2-4.5h5.1v-2.7h-7.9l-.6 10.9h2.9v-.6c0-1.2.5-1.8 1.5-1.8s1.5.6 1.5 1.8v4.1c0 1.2-.5 1.8-1.5 1.8s-1.5-.6-1.5-1.8v-1.7h-2.9v1.6c.2 1.5.6 2.6 1.3 3.5m-3-1.7h-3v2.7h2.9v-2.7zm-9.5-11.6v14.3h2.9V95.4h-2c-.1.3-.2.6-.3.7-.1.2-.2.4-.4.6-.2.2-.4.4-.6.5-.2.1-.5.2-.8.3-.3.1-.7.1-1.2.1v2.1h2.4zm-9.7 1.1v7.1h-3l3-7.1zm0 9.8v3.4h2.9v-3.4h1.3v-2.7h-1.3V95.4h-3.2l-5.4 12.7v2.7h5.7z" class="st29"/><path d="M179.1 89.9c9.1 0 16.4-7.4 16.4-16.4s-7.4-16.4-16.4-16.4c-9.1 0-16.4 7.4-16.4 16.4s7.4 16.4 16.4 16.4z" style="clip-path:url(#SVGID_26_);fill:none;stroke:#39373a;stroke-width:1.126"/><path d="M179.8 80.8c.6.6 1.4.9 2.5.9s1.9-.3 2.5-.9c.6-.6.9-1.5.9-2.6v-1.9h-2.2v2c0 .9-.4 1.4-1.2 1.4-.8 0-1.2-.5-1.2-1.4v-7.7c0-.9.4-1.4 1.2-1.4.8 0 1.2.5 1.2 1.4v1.5h2.2v-1.4c0-1.1-.3-2-.9-2.6-.6-.6-1.4-.9-2.5-.9s-1.9.3-2.5.9c-.6.6-.8 1.5-.8 2.6v7.4c-.1 1.3.2 2.1.8 2.7m-5.6-10v10.8h2.2V67.4h-1.5c-.1.2-.2.4-.2.6-.1.1-.2.3-.3.5s-.3.3-.4.4c-.2.1-.4.2-.6.2-.3.1-.6.1-.9.1v1.6h1.7zM57.4 75.2l-1.1 4.2h.7l1.1-4.2v-.7h-2.3v.7h1.6zm-2.1 3.5h-.8v.7h.8v-.7zm-3.2.4c.2.2.5.3.9.3s.7-.1.9-.3c.2-.2.3-.5.3-.9v-.4c0-.5-.2-.9-.5-1 .4-.1.5-.5.5-1v-.1c0-.4-.1-.7-.3-.9-.2-.2-.5-.3-.9-.3s-.7.1-.9.3c-.2.2-.3.5-.3.9v.3h.8v-.3c0-.3.1-.5.4-.5.1 0 .2 0 .3.1.1.1.1.2.1.4v.3c0 .2 0 .3-.1.4-.1.1-.2.1-.3.1h-.3v.7h.3c.2 0 .3 0 .4.1.1.1.1.3.1.5v.4c0 .2 0 .3-.1.4-.1.1-.2.1-.3.1-.3 0-.4-.2-.4-.5v-.5h-.8v.4c-.2.5-.1.8.2 1m5.2-9.3c0 .2-.1.3-.2.4-.1.1-.3.1-.5.1v.7h.5c.2 0 .3-.1.4-.1.1-.1.2-.1.3-.3.1-.1.1-.2.2-.4 0-.1.1-.3.1-.5L59 66h-.8l-.4 1.7-.2 1.1-.2-1.2L57 66h-.8l1.1 3.8zM54.2 71l1.9-4.9h-.7L53.6 71h.6zm-2.9-.3c.2.2.5.3.9.3s.7-.1.9-.3c.2-.2.3-.5.3-.9v-.7h-.8v.7c0 .3-.1.5-.4.5-.3 0-.4-.2-.4-.5v-2.7c0-.3.1-.5.4-.5.3 0 .4.2.4.5v.5h.8v-.5c0-.4-.1-.7-.3-.9-.2-.2-.5-.3-.9-.3s-.7.1-.9.3-.3.6-.3 1v2.6c0 .4.1.7.3.9m51.7-7.2v2.4h-1l1-2.4zm0 3.3V68h1v-1.2h.5v-.9h-.5v-4.3h-1.1l-1.8 4.3v.9h1.9zm-2.4.2h-1v1h1v-1zm-4.3.6c.3.3.7.4 1.1.4.5 0 .9-.1 1.1-.4.3-.3.4-.7.4-1.2v-.5c0-.7-.2-1.1-.7-1.3.5-.2.7-.6.7-1.3v-.2c0-.5-.1-.9-.4-1.2-.3-.3-.6-.4-1.1-.4-.5 0-.9.1-1.1.4-.3.3-.4.7-.4 1.2v.3h1V63c0-.4.2-.6.5-.6.2 0 .3.1.4.2.1.1.1.3.1.6v.4c0 .2-.1.4-.2.5-.1.1-.3.2-.5.2h-.4v.9h.3c.2 0 .4.1.5.2.1.1.2.3.2.6v.5c0 .3 0 .5-.1.6-.1.1-.2.2-.4.2-.3 0-.5-.2-.5-.6v-.6h-1v.5c.1.3.2.7.5 1m17.3-15.4c0-.2 0-.4.1-.5.1-.1.2-.2.4-.2h.5v2h-.4c-.2 0-.4-.1-.5-.2-.1-.1-.2-.3-.2-.5v-.6zm-.2 4.8v-1.8c0-.3.1-.5.2-.6.1-.1.3-.2.5-.2h.3V57h1v-6.4H114c-.5 0-.9.1-1.1.4-.2.2-.4.6-.4 1.1v.5c0 .7.2 1.1.7 1.3-.2.1-.4.3-.5.5-.1.2-.2.5-.2.9v1c0 .3 0 .6-.1.8h1zm-3-5.3.5 3.2h-1l.5-3.2zm-.8 5.3.2-1.2h1.2l.2 1.2h1l-1-6.4h-1.6l-1 6.4h1zm-5.5 0 .9-2.9.2.5V57h1v-2.3l.3-.5.9 2.8h1l-1.2-3.8 1.2-2.6h-1l-1.2 2.6v-2.6h-1v2.6l-1.2-2.6h-1l1.2 2.6L103 57h1.1zm-3.4-4.9c0-.4.2-.6.5-.6s.5.2.5.6v3.5c0 .4-.2.6-.5.6s-.5-.2-.5-.6v-3.5zm-.6 4.5c.3.3.6.4 1.1.4.5 0 .9-.1 1.1-.4s.4-.7.4-1.2v-3.3c0-.5-.1-.9-.4-1.2s-.6-.4-1.1-.4c-.5 0-.9.1-1.1.4s-.4.7-.4 1.2v3.3c0 .6.1 1 .4 1.2m-3.5.4.8-2.4.8 2.4h1L98 53.7l1.1-3.1h-.9l-.8 2.4-.8-2.4h-1l1.1 3.1-1.1 3.3h1zm-3.7 0 .8-2.9.4-1.6V57h1v-6.4H94l-.8 2.6-.4 1.4v-4.1h-.9V57h1zm-3.4-5.5h.5c.2 0 .3 0 .4.1.1.1.1.2.1.5v1c0 .2 0 .4-.1.5-.1.1-.2.1-.4.1h-.5v-2.2zm0 5.5v-2.4h.5c.5 0 .9-.1 1.1-.4.3-.3.4-.7.4-1.2v-.8c0-.5-.1-.9-.4-1.2-.3-.3-.6-.4-1.1-.4h-1.5V57h1zm-3.9 0v-5.5h1.1V57h1v-6.4h-3.2V57h1.1z" class="st29"/><path d="M22.7 233h102.6v2.9H22.7zm105.6 2.9V233l100.8-14.8v3z" class="st4"/></g></switch></svg>