<svg xmlns="http://www.w3.org/2000/svg" xmlns:xlink="http://www.w3.org/1999/xlink" xml:space="preserve" id="Слой_1" x="0" y="0" style="enable-background:new 0 0 357 458.4" version="1.1" viewBox="0 0 357 458.4"><style>.st1{fill:#fff5a4}.st2{fill:none;stroke:#39373a;stroke-width:.6}.st3{fill:#39373a}.st15{fill:none;stroke:#39373a;stroke-width:.699}.st16{fill:#39373a}.st16,.st17{clip-path:url(#SVGID_22_)}.st17,.st18{fill:none;stroke:#39373a;stroke-width:.276}.st19,.st20{clip-path:url(#SVGID_24_);fill:#39373a}.st20{fill:none;stroke:#39373a;stroke-width:.276}.st21,.st22{clip-path:url(#SVGID_26_);fill:#39373a}.st22{fill:none;stroke:#39373a;stroke-width:.276}.st24{fill:#39373a}.st24,.st25,.st26{clip-path:url(#SVGID_28_)}.st25{fill:none;stroke:#39373a;stroke-width:.186}.st26{stroke-width:.217}.st26,.st28,.st30{fill:none;stroke:#39373a}.st28{clip-path:url(#SVGID_30_);stroke-width:.554}.st30{stroke-width:.258}</style><switch><g><path d="M0 0h357v458.4H0z" style="fill:#fff"/><path d="M24.7 78.8h202.5v184.7H24.7z" class="st1"/><path d="M128.7 78.8h203.1v348.7H128.7z" class="st1"/><path d="M230.9 35.8h102.6v2.9H230.9zM34.5 20.9h89.6v2.9H34.5zm92.6.1v2.9l100.7 14.8v-2.9z" class="st2"/><path d="M307.9 67.1h26.3V70h-26.3z" class="st3"/><path d="M307.9 67.1h26.3V70h-26.3z" class="st2"/><path d="M310.4 69.5h23.8v9.6h-23.8z" class="st3"/><path d="M310.4 69.5h23.8v9.6h-23.8z" class="st2"/><path d="M225.5 67.1h31.1V70h-31.1z" class="st3"/><path d="M225.5 67.1h31.1V70h-31.1z" class="st2"/><path d="M225.5 69.5h28.6v9.6h-28.6z" class="st3"/><path d="M225.5 69.5h28.6v9.6h-28.6zm47.9-2.4H316V70h-42.6zM276 70h40.1v9.1H276z" class="st2"/><defs><path id="SVGID_1_" d="M19.4 18.3h318.2v421.8H19.4z"/></defs><clipPath id="SVGID_2_"><use xlink:href="#SVGID_1_" style="overflow:visible"/></clipPath><path d="M275.8 70.3s-1 4.2-2.1 7.1c-1.1 2.9-2.4 4.5-2.4 4.5l-19-10.9.6-.9L272 80.8" style="clip-path:url(#SVGID_2_);fill:none;stroke:#39373a;stroke-width:.52"/><path d="M99.5 67.1h26.3V70H99.5z" class="st3"/><path d="M99.5 67.1h26.3V70H99.5z" class="st2"/><path d="M102 69.5h23.8v9.6H102z" class="st3"/><path d="M102 69.5h23.8v9.6H102z" class="st2"/><path d="M21.6 67.1h28V70h-28z" class="st3"/><path d="M21.6 67.1h28V70h-28z" class="st2"/><path d="M21.6 69.5h25.5v9.6H21.6z" class="st3"/><path d="M21.6 69.5h25.5v9.6H21.6zm44.8-2.4H109V70H66.4zm2.5 2.9H109v9.1H68.9z" class="st2"/><defs><path id="SVGID_3_" d="M19.4 18.3h318.2v421.8H19.4z"/></defs><clipPath id="SVGID_4_"><use xlink:href="#SVGID_3_" style="overflow:visible"/></clipPath><path d="M68.7 70.3s-1 4.2-2.1 7.1c-1.1 2.9-2.4 4.5-2.4 4.5L45.3 71l.6-.9L65 80.8" style="clip-path:url(#SVGID_4_);fill:none;stroke:#39373a;stroke-width:.52"/><path d="M166.4 67.1H209V70h-42.6z" class="st2"/><path d="M205.8 67.1h31.1V70h-31.1z" class="st3"/><path d="M205.8 67.1h31.1V70h-31.1z" class="st2"/><path d="M208.4 69.5H237v9.6h-28.6z" class="st3"/><path d="M208.4 69.5H237v9.6h-28.6z" class="st2"/><path d="M118.9 67.1H150V70h-31.1z" class="st3"/><path d="M118.9 67.1H150V70h-31.1z" class="st2"/><path d="M118.9 69.5h28.6v9.6h-28.6z" class="st3"/><path d="M118.9 69.5h28.6v9.6h-28.6zm50.1.5h40.1v9.1H169z" class="st2"/><defs><path id="SVGID_5_" d="M19.4 18.3h318.2v421.8H19.4z"/></defs><clipPath id="SVGID_6_"><use xlink:href="#SVGID_5_" style="overflow:visible"/></clipPath><path d="M168.8 70.3s-1 4.2-2.1 7.1c-1.1 2.9-2.4 4.5-2.4 4.5l-19-10.9.6-.9L165 80.8" style="clip-path:url(#SVGID_6_);fill:none;stroke:#39373a;stroke-width:.52"/><path d="M123.7 18.6h4.7v28.6h-4.7z" class="st3"/><defs><path id="SVGID_7_" d="M19.4 18.3h318.2v421.8H19.4z"/></defs><clipPath id="SVGID_8_"><use xlink:href="#SVGID_7_" style="overflow:visible"/></clipPath><path d="M123.7 18.6h4.7v28.6h-4.7z" style="clip-path:url(#SVGID_8_);fill:none;stroke:#39373a;stroke-width:.6"/><path d="M123.7 74.8h4.7v41.3h-4.7z" class="st3"/><path d="M123.7 74.8h4.7v41.3h-4.7z" class="st2"/><path d="M123.7 161.5h4.7v62.8h-4.7z" class="st3"/><path d="M123.7 161.5h4.7v62.8h-4.7z" class="st2"/><path d="M123.7 267.5h4.7v172.3h-4.7z" class="st3"/><defs><path id="SVGID_9_" d="M19.4 18.3h318.2v421.8H19.4z"/></defs><clipPath id="SVGID_10_"><use xlink:href="#SVGID_9_" style="overflow:visible"/></clipPath><path d="M123.7 267.5h4.7v172.3h-4.7z" style="clip-path:url(#SVGID_10_);fill:none;stroke:#39373a;stroke-width:.6"/><path d="M19.7 18.6h4.7v209.9h-4.7z" class="st3"/><defs><path id="SVGID_11_" d="M19.4 18.3h318.2v421.8H19.4z"/></defs><clipPath id="SVGID_12_"><use xlink:href="#SVGID_11_" style="overflow:visible"/></clipPath><path d="M19.7 18.6h4.7v209.9h-4.7z" style="clip-path:url(#SVGID_12_);fill:none;stroke:#39373a;stroke-width:.6"/><path d="M19.7 255h4.7v13.5h-4.7z" class="st3"/><defs><path id="SVGID_13_" d="M19.4 18.3h318.2v421.8H19.4z"/></defs><clipPath id="SVGID_14_"><use xlink:href="#SVGID_13_" style="overflow:visible"/></clipPath><path d="M19.7 255h4.7v13.5h-4.7z" style="clip-path:url(#SVGID_14_);fill:none;stroke:#39373a;stroke-width:.6"/><path d="M180.7 219.5H230v4.7h-49.3z" class="st3"/><path d="M180.7 219.5H230v4.7h-49.3z" class="st2"/><path d="M168.2 263.9h64.9v4.7h-64.9z" class="st3"/><path d="M168.2 263.9h64.9v4.7h-64.9z" class="st2"/><path d="M20.8 263.9h124.1v4.7H20.8z" class="st3"/><path d="M20.8 263.9h124.1v4.7H20.8z" class="st2"/><path d="M118.9 219.5h26v4.7h-26z" class="st3"/><path d="M118.9 219.5h26v4.7h-26z" class="st2"/><path d="M21.6 180.2h105.1v4.7H21.6z" class="st3"/><path d="M21.6 180.2h105.1v4.7H21.6z" class="st2"/><path d="M23.6 18.6h13.5v50.8H23.6z" class="st3"/><defs><path id="SVGID_15_" d="M19.4 18.3h318.2v421.8H19.4z"/></defs><clipPath id="SVGID_16_"><use xlink:href="#SVGID_15_" style="overflow:visible"/></clipPath><path d="M23.6 18.6h13.5v50.8H23.6z" style="clip-path:url(#SVGID_16_);fill:none;stroke:#39373a;stroke-width:.6"/><path d="M84.6 219.5h16.7v4.7H84.6z" class="st3"/><path d="M84.6 219.5h16.7v4.7H84.6z" class="st2"/><path d="M84.2 203.4h4.7v20.8h-4.7z" class="st3"/><path d="M84.2 203.4h4.7v20.8h-4.7z" class="st2"/><path d="M227.5 34.5h5.6v193.6h-5.6z" class="st3"/><path d="M227.5 34.5h5.6v193.6h-5.6z" class="st2"/><path d="M227.5 254.5h5.6v181.9h-5.6z" class="st3"/><path d="M227.5 254.5h5.6v181.9h-5.6z" class="st2"/><path d="M331.7 35.2h5.6v404.6h-5.6z" class="st3"/><defs><path id="SVGID_17_" d="M19.4 18.3h318.2v421.8H19.4z"/></defs><clipPath id="SVGID_18_"><use xlink:href="#SVGID_17_" style="overflow:visible"/></clipPath><path d="M331.7 35.2h5.6v404.6h-5.6z" style="clip-path:url(#SVGID_18_);fill:none;stroke:#39373a;stroke-width:.6"/><path d="M168.5 219c-.2-1.2-.5-2.8-1.1-4.4-1.2-3.4-3.6-6.5-3.6-6.5l-22 12.7.5.8 22-12.7m4.2 10.2c.1-.6.3-1.4.6-2.2.6-1.7 1.8-3.2 1.8-3.2l11.2 6.3-.4.7-11.2-6.3m-69.2 5.1s0 2.8 1.2 6.2c1 2.9 3 5.6 3 5.6l16.7-9.6-.4-.7-16.8 9.6m153.1-46s0-3.7-1.6-8.3c-1.4-3.9-4.1-7.5-4.1-7.5l-22.7 12.9.6.9 22.8-12.9" style="fill:none;stroke:#39373a;clip-path:url(#SVGID_18_);stroke-width:.52"/><path d="M258.4 179.7h77.9v4.7h-77.9z" class="st3"/><path d="M258.4 179.7h77.9v4.7h-77.9z" class="st2"/><defs><path id="SVGID_19_" d="M19.4 18.3h318.2v421.8H19.4z"/></defs><clipPath id="SVGID_20_"><use xlink:href="#SVGID_19_" style="overflow:visible"/></clipPath><path d="M258.1 263.6s0 3.7-1.6 8.3c-1.4 3.9-4.1 7.5-4.1 7.5l-22.7-12.9.6-.9 22.8 12.9m-84.7-14.9s0 3.7-1.6 8.3c-1.4 3.9-4.1 7.5-4.1 7.5l-22.7-13 .6-.9 22.8 12.9m-144-49.7s3.7 0 8.3 1.6c3.9 1.4 7.5 4.1 7.5 4.1l-12.9 22.7-.9-.6 12.9-22.8" style="clip-path:url(#SVGID_20_);stroke-width:.52;fill:none;stroke:#39373a"/><path d="M258.4 263.9h77.9v4.7h-77.9z" class="st3"/><path d="M258.4 263.9h77.9v4.7h-77.9z" class="st2"/><path d="M269.2 210.2h65v3.1h-65z" class="st3"/><path d="M269.2 210.2h65v3.1h-65z" class="st2"/><path d="M322.4 185h8.6v24.5h-8.6zm7.3 24.5v-24.6" class="st15"/><path d="m329.7 208.2-6.2-.5v-15.5l6.2-.7v-1l-6.3-.7v-3.4l6.3-.8m-261.3 0h25.5v8.6H68.4zm25.4 7.2H68.2" class="st15"/><path d="m92.6 192.8-.6-6.1H75.9l-.7 6.1h-1.1l-.7-6.2h-3.6l-.8 6.2m-.6 1.4h25.5v8.6H68.4zm0 7.2H94" class="st15"/><path d="m69.7 201.4.6-6.2h16.1l.7 6.2h1.1l.7-6.2h3.6l.8 6.2" class="st15"/><defs><path id="SVGID_21_" d="M19.4 18.3h318.2v421.8H19.4z"/></defs><clipPath id="SVGID_22_"><use xlink:href="#SVGID_21_" style="overflow:visible"/></clipPath><path d="M299.2 197.8c0-3.1 2.5-5.7 5.7-5.7h8.2c.5 0 1 .4 1 1v9.4c0 .5-.4 1-1 1h-8.2c-3.1-.1-5.7-2.6-5.7-5.7m15.2 4.7v-9.4c0-.8-.6-1.4-1.4-1.4h-8.2c-3.3 0-6 2.7-6 6s2.7 6 6 6h8.2c.8.1 1.4-.5 1.4-1.2" class="st16"/><path d="M299.2 197.8c0-3.1 2.5-5.7 5.7-5.7h8.2c.5 0 1 .4 1 1v9.4c0 .5-.4 1-1 1h-8.2c-3.1-.1-5.7-2.6-5.7-5.7zm15.2 4.7v-9.4c0-.8-.6-1.4-1.4-1.4h-8.2c-3.3 0-6 2.7-6 6s2.7 6 6 6h8.2c.8.1 1.4-.5 1.4-1.2z" class="st17"/><path d="M311.3 193.7v8.1c0 .1 0 .1-.1.1H305c-2.3 0-4.2-1.9-4.2-4.2 0-2.3 1.9-4.2 4.2-4.2l6.3.2c0-.1 0 0 0 0z" class="st17"/><path d="M311.1 193.8v7.9H305c-2.2 0-4-1.8-4-4s1.8-4 4-4h6.1zm.4 8v-8.1c0-.2-.1-.3-.3-.3H305c-2.4 0-4.3 1.9-4.3 4.3s2 4.3 4.3 4.3h6.2c.2.1.3 0 .3-.2" class="st16"/><path d="M311.1 193.8v7.9H305c-2.2 0-4-1.8-4-4s1.8-4 4-4h6.1zm.4 8v-8.1c0-.2-.1-.3-.3-.3H305c-2.4 0-4.3 1.9-4.3 4.3s2 4.3 4.3 4.3h6.2c.2.1.3 0 .3-.2z" class="st17"/><path d="M305 197.8c0-.6.5-1.1 1.1-1.1.6 0 1.1.5 1.1 1.1 0 .6-.5 1.1-1.1 1.1-.6 0-1.1-.5-1.1-1.1m2.6 0c0-.8-.7-1.5-1.5-1.5s-1.5.7-1.5 1.5.7 1.5 1.5 1.5c.8-.1 1.5-.7 1.5-1.5" class="st16"/><path d="M305 197.8c0-.6.5-1.1 1.1-1.1.6 0 1.1.5 1.1 1.1 0 .6-.5 1.1-1.1 1.1-.6 0-1.1-.5-1.1-1.1zm2.6 0c0-.8-.7-1.5-1.5-1.5s-1.5.7-1.5 1.5.7 1.5 1.5 1.5c.8-.1 1.5-.7 1.5-1.5z" class="st17"/><path d="m310.5 194.6-.2-.3-2.6 2 .2.3z" class="st3"/><path d="m310.5 194.6-.2-.3-2.6 2 .2.3z" class="st18"/><path d="m307.66 199.247.24-.32 2.561 1.917-.24.32z" class="st3"/><path stroke-width=".276" d="m307.66 199.247.24-.32 2.561 1.917-.24.32z" class="st18"/><defs><path id="SVGID_23_" d="M19.4 18.3h318.2v421.8H19.4z"/></defs><clipPath id="SVGID_24_"><use xlink:href="#SVGID_23_" style="overflow:visible"/></clipPath><path d="M314.4 193.9c0-.9.7-1.6 1.6-1.6h2.1c.9 0 1.6.7 1.6 1.6v7.8c0 .9-.7 1.6-1.6 1.6H316c-.9 0-1.6-.7-1.6-1.6v-7.8zm5.7 7.8v-7.8c0-1.1-.9-2-2-2H316c-1.1 0-2 .9-2 2v7.8c0 1.1.9 2 2 2h2.1c1.1-.1 2-.9 2-2" class="st19"/><path d="M314.4 193.9c0-.9.7-1.6 1.6-1.6h2.1c.9 0 1.6.7 1.6 1.6v7.8c0 .9-.7 1.6-1.6 1.6H316c-.9 0-1.6-.7-1.6-1.6v-7.8zm5.7 7.8v-7.8c0-1.1-.9-2-2-2H316c-1.1 0-2 .9-2 2v7.8c0 1.1.9 2 2 2h2.1c1.1-.1 2-.9 2-2z" class="st20"/><path d="M316.5 197.8c0-.3.3-.6.6-.6s.6.3.6.6-.3.6-.6.6c-.4 0-.6-.3-.6-.6m1.6 0c0-.5-.4-1-1-1-.5 0-1 .4-1 1 0 .5.4 1 1 1 .5 0 1-.5 1-1" class="st19"/><path d="M316.5 197.8c0-.3.3-.6.6-.6s.6.3.6.6-.3.6-.6.6c-.4 0-.6-.3-.6-.6zm1.6 0c0-.5-.4-1-1-1-.5 0-1 .4-1 1 0 .5.4 1 1 1 .5 0 1-.5 1-1z" class="st20"/><path d="M112.3 206.2c-3.1 0-5.7-2.5-5.7-5.7v-8.2c0-.5.4-1 1-1h9.4c.5 0 1 .4 1 1v8.2c0 3.1-2.6 5.7-5.7 5.7M117 191h-9.4c-.8 0-1.4.6-1.4 1.4v8.2c0 3.3 2.7 6 6 6s6-2.7 6-6v-8.2c.2-.8-.4-1.4-1.2-1.4" class="st19"/><path d="M112.3 206.2c-3.1 0-5.7-2.5-5.7-5.7v-8.2c0-.5.4-1 1-1h9.4c.5 0 1 .4 1 1v8.2c0 3.1-2.6 5.7-5.7 5.7zM117 191h-9.4c-.8 0-1.4.6-1.4 1.4v8.2c0 3.3 2.7 6 6 6s6-2.7 6-6v-8.2c.2-.8-.4-1.4-1.2-1.4z" class="st20"/><path d="M108.4 194.3h7.9v6.1c0 2.2-1.8 4-4 4s-4-1.8-4-4v-6.1zm8-.4h-8.1c-.2 0-.3.1-.3.3v6.2c0 2.4 1.9 4.3 4.3 4.3s4.3-1.9 4.3-4.3v-6.2c.1-.2-.1-.3-.2-.3" class="st19"/><path d="M108.4 194.3h7.9v6.1c0 2.2-1.8 4-4 4s-4-1.8-4-4v-6.1zm8-.4h-8.1c-.2 0-.3.1-.3.3v6.2c0 2.4 1.9 4.3 4.3 4.3s4.3-1.9 4.3-4.3v-6.2c.1-.2-.1-.3-.2-.3z" class="st20"/><path d="M112.3 200.4c-.6 0-1.1-.5-1.1-1.1 0-.6.5-1.1 1.1-1.1.6 0 1.1.5 1.1 1.1 0 .6-.5 1.1-1.1 1.1m0-2.6c-.8 0-1.5.7-1.5 1.5s.7 1.5 1.5 1.5 1.5-.7 1.5-1.5-.7-1.5-1.5-1.5" class="st19"/><path d="M112.3 200.4c-.6 0-1.1-.5-1.1-1.1 0-.6.5-1.1 1.1-1.1.6 0 1.1.5 1.1 1.1 0 .6-.5 1.1-1.1 1.1zm0-2.6c-.8 0-1.5.7-1.5 1.5s.7 1.5 1.5 1.5 1.5-.7 1.5-1.5-.7-1.5-1.5-1.5z" class="st20"/><path d="m109.2 194.9-.3.2 1.9 2.6.3-.2z" class="st3"/><path d="m109.2 194.9-.3.2 1.9 2.6.3-.2z" class="st18"/><path d="m113.5 197.473 1.917-2.562.32.24-1.917 2.562z" class="st3"/><path stroke-width=".276" d="m113.5 197.473 1.917-2.562.32.24-1.917 2.562z" class="st18"/><defs><path id="SVGID_25_" d="M19.4 18.3h318.2v421.8H19.4z"/></defs><clipPath id="SVGID_26_"><use xlink:href="#SVGID_25_" style="overflow:visible"/></clipPath><path d="M108.4 190.9c-.9 0-1.6-.7-1.6-1.6v-2.1c0-.9.7-1.6 1.6-1.6h7.8c.9 0 1.6.7 1.6 1.6v2.1c0 .9-.7 1.6-1.6 1.6h-7.8zm7.8-5.6h-7.8c-1.1 0-2 .9-2 2v2.1c0 1.1.9 2 2 2h7.8c1.1 0 2-.9 2-2v-2.1c0-1.1-.9-2-2-2" class="st21"/><path d="M108.4 190.9c-.9 0-1.6-.7-1.6-1.6v-2.1c0-.9.7-1.6 1.6-1.6h7.8c.9 0 1.6.7 1.6 1.6v2.1c0 .9-.7 1.6-1.6 1.6h-7.8zm7.8-5.6h-7.8c-1.1 0-2 .9-2 2v2.1c0 1.1.9 2 2 2h7.8c1.1 0 2-.9 2-2v-2.1c0-1.1-.9-2-2-2z" class="st22"/><path d="M112.3 188.9c-.3 0-.6-.3-.6-.6s.3-.6.6-.6.6.3.6.6-.2.6-.6.6m0-1.6c-.5 0-1 .4-1 1 0 .5.4 1 1 1 .5 0 1-.4 1-1 0-.5-.4-1-1-1" class="st21"/><path d="M112.3 188.9c-.3 0-.6-.3-.6-.6s.3-.6.6-.6.6.3.6.6-.2.6-.6.6zm0-1.6c-.5 0-1 .4-1 1 0 .5.4 1 1 1 .5 0 1-.4 1-1 0-.5-.4-1-1-1z" class="st22"/><path d="M288.2 202.8c0-.3.1-.5.4-.5.3 0 .4.2.4.5v.9c0 .3-.1.5-.4.5-.3 0-.4-.2-.4-.5v-.9zm-.5 1.7c.2.2.5.3.9.3s.7-.1.9-.3.3-.5.3-.9v-.9c0-.4-.1-.6-.2-.8-.1-.2-.4-.3-.6-.3-.3 0-.6.1-.7.4v-.9c0-.2 0-.4.1-.5.1-.1.2-.1.3-.1.3 0 .4.2.4.5v.2h.7v-.2c0-.4-.1-.7-.3-.9-.2-.2-.5-.3-.9-.3-.8 0-1.2.4-1.2 1.3v2.5c0 .4.1.7.3.9m-.8-.4h-.8v.7h.8v-.7zm-2.5-3.1v3.8h.8v-4.9h-.5c0 .1-.1.1-.1.2s-.1.1-.1.2-.1.1-.1.1c-.1 0-.1.1-.2.1h-.3v.5h.5zm4.5-5.8c0 .2-.1.3-.2.4-.1.1-.3.1-.5.1v.7h.5c.2 0 .3-.1.4-.1.1-.1.2-.1.3-.3.1-.1.1-.2.2-.4 0-.1.1-.3.1-.5l.8-3.7h-.8l-.4 1.7-.2 1.1-.2-1.2-.4-1.7h-.8l1.2 3.9zm-3.1 1.1 1.9-4.9h-.7l-1.9 4.9h.7zm-2.9-.2c.2.2.5.3.9.3s.7-.1.9-.3c.2-.2.3-.5.3-.9v-.7h-.8v.7c0 .3-.1.5-.4.5-.3 0-.4-.2-.4-.5v-2.7c0-.3.1-.5.4-.5.3 0 .4.2.4.5v.5h.8v-.5c0-.4-.1-.7-.3-.9s-.5-.3-.9-.3-.7.1-.9.3c-.2.2-.3.5-.3.9v2.6c0 .5.1.8.3 1m-170.8 26.5c.2.2.5.3.9.3s.7-.1.9-.3c.2-.2.3-.5.3-.9v-.4c0-.5-.2-.9-.5-1 .4-.1.5-.5.5-1v-.1c0-.4-.1-.7-.3-.9-.2-.2-.5-.3-.9-.3s-.7.1-.9.3c-.2.2-.3.5-.3.9v.3h.8v-.3c0-.3.1-.5.4-.5.1 0 .2 0 .3.1.1.1.1.2.1.4v.3c0 .2 0 .3-.1.4-.1.1-.2.1-.3.1h-.3v.7h.3c.2 0 .3 0 .4.1.1.1.1.3.1.5v.4c0 .2 0 .4-.1.4-.1.1-.2.1-.3.1-.3 0-.4-.2-.4-.5v-.5h-.8v.4c-.1.5 0 .8.2 1m-.8-.4h-.8v.7h.8v-.7zm-2.5-3v3.8h.8v-5h-.5c0 .1-.1.1-.1.2s-.1.1-.1.2-.1.1-.1.1c-.1 0-.1.1-.2.1h-.3v.5h.5zm4.5-5.9c0 .2-.1.3-.2.4-.1.1-.3.1-.5.1v.7h.5c.2 0 .3-.1.4-.1.1-.1.2-.1.3-.3.1-.1.1-.2.2-.4 0-.1.1-.3.1-.5l.8-3.7h-.8l-.4 1.7-.2 1.1-.2-1.2-.4-1.7h-.8l1.2 3.9zm-3.1 1.2 1.9-4.9h-.7l-1.9 4.9h.7zm-2.9-.3c.2.2.5.3.9.3s.7-.1.9-.3c.2-.2.3-.5.3-.9v-.7h-.8v.7c0 .3-.1.5-.4.5-.3 0-.4-.2-.4-.5v-2.7c0-.3.1-.5.4-.5.3 0 .4.2.4.5v.5h.8v-.5c0-.4-.1-.7-.3-.9s-.5-.3-.9-.3-.7.1-.9.3c-.2.2-.3.5-.3.9v2.6c0 .5.1.8.3 1" class="st21"/><path d="M270.5 203.5s-1.4.1-5.2-1.2c-3.2-1.1-6.2-3.4-6.2-3.4l9.2-15.8.8.5-9.2 15.8m10.6 30.1s-1.4-.1-5.2 1.2c-3.2 1.1-6.2 3.4-6.2 3.4l9.2 15.8.8-.5-9.2-15.8" style="stroke-width:.52;fill:none;stroke:#39373a;clip-path:url(#SVGID_26_)"/><path d="M267.2 246.6h3.1v17.9h-3.1z" class="st3"/><path d="M267.2 246.6h3.1v17.9h-3.1z" class="st2"/><path d="M267.2 203.6h3.1v26.5h-3.1z" class="st3"/><path d="M267.2 203.6h3.1v26.5h-3.1z" class="st2"/><defs><path id="SVGID_27_" d="M19.4 18.3h318.2v421.8H19.4z"/></defs><clipPath id="SVGID_28_"><use xlink:href="#SVGID_27_" style="overflow:visible"/></clipPath><path d="m292.5 250.4-1.1 4.2h.8l1.1-4.2v-.7H291v.7h1.5zm-2 3.6h-.8v.7h.8v-.7zm-3.3.4c.2.2.5.3.9.3s.7-.1.9-.3c.2-.2.3-.5.3-.9v-.4c0-.5-.2-.9-.5-1 .4-.1.5-.5.5-1v-.1c0-.4-.1-.7-.3-.9-.2-.2-.5-.3-.9-.3s-.7.1-.9.3c-.2.2-.3.5-.3.9v.3h.8v-.3c0-.3.1-.5.4-.5.1 0 .2 0 .3.1.1.1.1.2.1.4v.3c0 .2 0 .3-.1.4-.1.1-.2.1-.3.1h-.3v.7h.3c.2 0 .3 0 .4.1.1.1.1.3.1.5v.4c0 .2 0 .3-.1.4-.1.1-.2.1-.3.1-.3 0-.4-.2-.4-.5v-.5h-.8v.4c-.1.5 0 .8.2 1m9.7-11.9c0-.2 0-.3.1-.4.1-.1.2-.1.3-.1h.4v1.5h-.3c-.2 0-.3 0-.3-.1-.1-.1-.1-.2-.1-.4v-.5zm0 3.7v-1.4c0-.2 0-.4.1-.5.1-.1.2-.1.4-.1h.3v2h.8v-4.9h-1.2c-.4 0-.7.1-.9.3-.2.2-.3.5-.3.9v.4c0 .5.2.8.5 1-.2.1-.3.2-.4.4-.1.2-.1.4-.1.7v.8c0 .3 0 .5-.1.6h.9zm-2.4-4 .4 2.5h-.7l.3-2.5zm-.6 4 .1-.9h.9l.1.9h.8l-.8-4.9h-1.2l-.8 4.9h.9zm-2.8 0v-2.1h.9v2.1h.8v-4.9h-.8v2.1h-.9v-2.1h-.8v4.9h.8zm-3 0v-2.1h.9v2.1h.8v-4.9h-.8v2.1h-.9v-2.1h-.8v4.9h.8zm-2.4-4 .4 2.5h-.7l.3-2.5zm-.6 4 .1-.9h.9l.1.9h.8l-.8-4.9H285l-.8 4.9h.9zm-2.7-4.2h.4c.1 0 .2 0 .3.1.1.1.1.2.1.4v.3c0 .2 0 .3-.1.4s-.2.1-.3.1h-.3V242zm0 2h.3c.2 0 .3 0 .4.1.1.1.1.2.1.5v.4c0 .2 0 .3-.1.4-.1.1-.2.1-.3.1h-.4V244zm.5 2.2c.4 0 .7-.1.9-.3.2-.2.3-.5.3-.9v-.4c0-.6-.2-.9-.6-1.1.3-.2.5-.5.5-1v-.2c0-.4-.1-.7-.3-.9-.2-.2-.5-.3-.9-.3h-1.2v4.9h1.3zM99.5 210.3c0-2.4-2-4.4-4.4-4.4h-4.7c-.4 0-.7.3-.7.7v10c0 .4.3.7.7.7H95c2.4 0 4.4-2 4.4-4.4v-2.6zm-10.1 6.2v-10c0-.5.4-.9.9-.9H95c2.6 0 4.7 2.1 4.7 4.7v2.5c0 2.6-2.1 4.7-4.7 4.7h-4.7c-.5 0-.9-.5-.9-1" class="st24"/><path d="M99.5 210.3c0-2.4-2-4.4-4.4-4.4h-4.7c-.4 0-.7.3-.7.7v10c0 .4.3.7.7.7H95c2.4 0 4.4-2 4.4-4.4v-2.6zm-10.1 6.2v-10c0-.5.4-.9.9-.9H95c2.6 0 4.7 2.1 4.7 4.7v2.5c0 2.6-2.1 4.7-4.7 4.7h-4.7c-.5 0-.9-.5-.9-1z" class="st25"/><path d="M98.3 210.3c0-1.8-1.5-3.3-3.3-3.3h-2.7c-.3 0-.6.3-.6.6v8c0 .3.3.6.6.6H95c1.8 0 3.3-1.5 3.3-3.3v-2.6zm-6.9 5.2v-8c0-.5.4-.8.8-.8H95c2 0 3.6 1.6 3.6 3.6v2.5c0 2-1.6 3.6-3.6 3.6h-2.7c-.5 0-.9-.4-.9-.9" class="st24"/><path d="M98.3 210.3c0-1.8-1.5-3.3-3.3-3.3h-2.7c-.3 0-.6.3-.6.6v8c0 .3.3.6.6.6H95c1.8 0 3.3-1.5 3.3-3.3v-2.6zm-6.9 5.2v-8c0-.5.4-.8.8-.8H95c2 0 3.6 1.6 3.6 3.6v2.5c0 2-1.6 3.6-3.6 3.6h-2.7c-.5 0-.9-.4-.9-.9z" class="st25"/><path d="M96 211.5c0-.3-.2-.6-.6-.6-.3 0-.6.3-.6.6s.2.6.6.6c.4 0 .6-.3.6-.6m-1.3 0c0-.4.4-.8.8-.8s.8.4.8.8-.4.8-.8.8c-.5 0-.8-.3-.8-.8" class="st24"/><path d="M96 211.5c0-.3-.2-.6-.6-.6-.3 0-.6.3-.6.6s.2.6.6.6c.4 0 .6-.3.6-.6zm-1.3 0c0-.4.4-.8.8-.8s.8.4.8.8-.4.8-.8.8c-.5 0-.8-.3-.8-.8z" class="st25"/><path d="M304.6 225.4c2.8 0 5.2-2.3 5.2-5.2v-5.5c0-.4-.4-.8-.8-.8h-11.7c-.4 0-.8.4-.8.8v5.5c0 2.8 2.3 5.2 5.2 5.2h2.9zm-7.3-11.7H309c.6 0 1.1.5 1.1 1.1v5.5c0 3-2.4 5.5-5.5 5.5h-2.9c-3 0-5.5-2.4-5.5-5.5v-5.5c0-.6.5-1.1 1.1-1.1" class="st24"/><path d="M304.6 225.4c2.8 0 5.2-2.3 5.2-5.2v-5.5c0-.4-.4-.8-.8-.8h-11.7c-.4 0-.8.4-.8.8v5.5c0 2.8 2.3 5.2 5.2 5.2h2.9zm-7.3-11.7H309c.6 0 1.1.5 1.1 1.1v5.5c0 3-2.4 5.5-5.5 5.5h-2.9c-3 0-5.5-2.4-5.5-5.5v-5.5c0-.6.5-1.1 1.1-1.1z" class="st26"/><path d="M304.6 224.1c2.1 0 3.9-1.7 3.9-3.9V217c0-.4-.3-.7-.7-.7h-9.3c-.4 0-.7.3-.7.7v3.2c0 2.1 1.7 3.9 3.9 3.9h2.9zm-6.1-8h9.3c.5 0 1 .4 1 1v3.2c0 2.3-1.9 4.2-4.2 4.2h-2.9c-2.3 0-4.2-1.9-4.2-4.2v-3.2c0-.6.5-1 1-1" class="st24"/><path d="M304.6 224.1c2.1 0 3.9-1.7 3.9-3.9V217c0-.4-.3-.7-.7-.7h-9.3c-.4 0-.7.3-.7.7v3.2c0 2.1 1.7 3.9 3.9 3.9h2.9zm-6.1-8h9.3c.5 0 1 .4 1 1v3.2c0 2.3-1.9 4.2-4.2 4.2h-2.9c-2.3 0-4.2-1.9-4.2-4.2v-3.2c0-.6.5-1 1-1z" class="st26"/><path d="M303.1 221.4c.4 0 .6-.3.6-.6 0-.4-.3-.6-.6-.6-.4 0-.6.3-.6.6s.3.6.6.6m0-1.6c.5 0 .9.4.9.9s-.4.9-.9.9-.9-.4-.9-.9c0-.4.4-.9.9-.9" class="st24"/><path d="M303.1 221.4c.4 0 .6-.3.6-.6 0-.4-.3-.6-.6-.6-.4 0-.6.3-.6.6s.3.6.6.6zm0-1.6c.5 0 .9.4.9.9s-.4.9-.9.9-.9-.4-.9-.9c0-.4.4-.9.9-.9z" class="st26"/><path d="M272.5 214.6h18V233h-18zm.3-.1 17.6 18.4m.2-18.4L273 232.9" style="fill:none;stroke:#39373a;stroke-width:.52"/><defs><path id="SVGID_29_" d="M19.4 18.3h318.2v421.8H19.4z"/></defs><clipPath id="SVGID_30_"><use xlink:href="#SVGID_29_" style="overflow:visible"/></clipPath><path d="M320.8 223.2c-.4 0-.8.4-.8.8s.4.8.8.8.8-.4.8-.8-.4-.8-.8-.8z" class="st28"/><path d="M324.4 261.5c2.9 0 5.2-2.3 5.2-5.2v-35.4c0-2.9-2.3-5.2-5.2-5.2h-7.3c-2.9 0-5.2 2.3-5.2 5.2v35.4c0 2.9 2.3 5.2 5.2 5.2h7.3z" class="st28"/><path d="M322.7 258.3c2.9 0 5.2-2.3 5.2-5.2v-29c0-2.9-2.3-5.2-5.2-5.2h-3.9c-2.9 0-5.2 2.3-5.2 5.2v29c0 2.9 2.3 5.2 5.2 5.2h3.9z" class="st28"/><path d="M323.7 254.5c1.4 0 2.6-1.2 2.6-2.6v-28.6c0-1.4-1.2-2.6-2.6-2.6h-6c-1.4 0-2.6 1.2-2.6 2.6v28.6c0 1.4 1.2 2.6 2.6 2.6h6z" class="st28"/><path d="M310.4 213.9v49.4h20.7v-49.4z" style="fill:none;stroke:#39373a;stroke-width:.554"/><path d="M89.7 179.4h16.7v-16.7H89.7v16.7zm17.1.3H89.3v-17.5h17.5v17.5z" class="st3"/><path d="M89.7 179.4h16.7v-16.7H89.7v16.7zm17.1.3H89.3v-17.5h17.5v17.5z" class="st30"/><defs><path id="SVGID_31_" d="M19.4 18.3h318.2v421.8H19.4z"/></defs><clipPath id="SVGID_32_"><use xlink:href="#SVGID_31_" style="overflow:visible"/></clipPath><path d="M92.2 164.2c-.4 0-.7.3-.7.8v8.8c0 .4.3.8.7.8h11.7c.4 0 .7-.3.7-.8V165c0-.4-.3-.8-.7-.8H92.2zm11.7 10.6H92.2c-.6 0-1.1-.5-1.1-1.1v-8.8c0-.6.5-1.1 1.1-1.1h11.7c.6 0 1.1.5 1.1 1.1v8.8c0 .6-.5 1.1-1.1 1.1" style="clip-path:url(#SVGID_32_);fill:#39373a"/><path d="M92.2 164.2c-.4 0-.7.3-.7.8v8.8c0 .4.3.8.7.8h11.7c.4 0 .7-.3.7-.8V165c0-.4-.3-.8-.7-.8H92.2zm11.7 10.6H92.2c-.6 0-1.1-.5-1.1-1.1v-8.8c0-.6.5-1.1 1.1-1.1h11.7c.6 0 1.1.5 1.1 1.1v8.8c0 .6-.5 1.1-1.1 1.1z" style="clip-path:url(#SVGID_32_);fill:none;stroke:#39373a;stroke-width:.258"/><path d="M92.7 173.2h10.6v-7.7H92.7v7.7zm11 .3H92.4v-8.4h11.4v8.4z" class="st3"/><path d="M92.7 173.2h10.6v-7.7H92.7v7.7zm11 .3H92.4v-8.4h11.4v8.4z" class="st30"/><defs><path id="SVGID_33_" d="M19.4 18.3h318.2v421.8H19.4z"/></defs><clipPath id="SVGID_34_"><use xlink:href="#SVGID_33_" style="overflow:visible"/></clipPath><path d="M98.1 167.8c-.5 0-1 .4-1 1 0 .5.4 1 1 1 .5 0 1-.4 1-1-.1-.5-.5-1-1-1m0 2.3c-.7 0-1.3-.6-1.3-1.3 0-.7.6-1.3 1.3-1.3.7 0 1.3.6 1.3 1.3 0 .7-.6 1.3-1.3 1.3" style="clip-path:url(#SVGID_34_);fill:#39373a"/><path d="M98.1 167.8c-.5 0-1 .4-1 1 0 .5.4 1 1 1 .5 0 1-.4 1-1-.1-.5-.5-1-1-1zm0 2.3c-.7 0-1.3-.6-1.3-1.3 0-.7.6-1.3 1.3-1.3.7 0 1.3.6 1.3 1.3 0 .7-.6 1.3-1.3 1.3z" style="clip-path:url(#SVGID_34_);fill:none;stroke:#39373a;stroke-width:.258"/><path d="M130.5 436.8h84.7v2.9h-84.7zm86.9 0h103.2v2.9H217.4z" style="clip-path:url(#SVGID_34_);stroke-width:.6;fill:none;stroke:#39373a"/><path d="M123.7 436.8h26.5v2.9h-26.5z" class="st3"/><defs><path id="SVGID_35_" d="M19.4 18.3h318.2v421.8H19.4z"/></defs><clipPath id="SVGID_36_"><use xlink:href="#SVGID_35_" style="overflow:visible"/></clipPath><path d="M123.7 436.8h26.5v2.9h-26.5z" style="clip-path:url(#SVGID_36_);fill:none;stroke:#39373a;stroke-width:.6"/><path d="M125.2 427.8h22.5v9.6h-22.5z" class="st3"/><path d="M125.2 427.8h22.5v9.6h-22.5z" class="st2"/><path d="M223.3 436.8h31.1v2.9h-31.1z" class="st3"/><defs><path id="SVGID_37_" d="M19.4 18.3h318.2v421.8H19.4z"/></defs><clipPath id="SVGID_38_"><use xlink:href="#SVGID_37_" style="overflow:visible"/></clipPath><path d="M223.3 436.8h31.1v2.9h-31.1z" style="clip-path:url(#SVGID_38_);fill:none;stroke:#39373a;stroke-width:.6"/><path d="M223.3 427.8h28.6v9.6h-28.6z" class="st3"/><path d="M223.3 427.8h28.6v9.6h-28.6z" class="st2"/><path d="M309.7 436.8h25.1v2.9h-25.1z" class="st3"/><defs><path id="SVGID_39_" d="M19.4 18.3h318.2v421.8H19.4z"/></defs><clipPath id="SVGID_40_"><use xlink:href="#SVGID_39_" style="overflow:visible"/></clipPath><path d="M309.7 436.8h25.1v2.9h-25.1z" style="clip-path:url(#SVGID_40_);fill:none;stroke:#39373a;stroke-width:.6"/><path d="M312.2 427.8h22.5v9.6h-22.5z" class="st3"/><path d="M312.2 427.8h22.5v9.6h-22.5z" class="st2"/><path d="M206.3 436.8h25.1v2.9h-25.1z" class="st3"/><defs><path id="SVGID_41_" d="M19.4 18.3h318.2v421.8H19.4z"/></defs><clipPath id="SVGID_42_"><use xlink:href="#SVGID_41_" style="overflow:visible"/></clipPath><path d="M206.3 436.8h25.1v2.9h-25.1z" style="clip-path:url(#SVGID_42_);fill:none;stroke:#39373a;stroke-width:.6"/><path d="M208.9 427.8h22.5v9.6h-22.5z" class="st3"/><path d="M208.9 427.8h22.5v9.6h-22.5z" class="st2"/><path d="M135.6 427.8h79.7v9.1h-79.7zm87.9 0h97.1v9.1h-97.1z" class="st2"/><defs><path id="SVGID_43_" d="M19.4 18.3h318.2v421.8H19.4z"/></defs><clipPath id="SVGID_44_"><use xlink:href="#SVGID_43_" style="overflow:visible"/></clipPath><path d="m184.5 181.4-1.9 7h1.3l1.9-7.1v-1.1H182v1.2h2.5zm-3.4 5.9h-1.3v1.2h1.3v-1.2zm-4.7-2.2c0-.5.2-.8.7-.8.4 0 .7.3.7.8v1.5c0 .5-.2.8-.7.8-.4 0-.7-.3-.7-.8v-1.5zm-.8 2.9c.3.4.8.5 1.5.5s1.1-.2 1.4-.5c.3-.4.5-.9.5-1.5V185c0-.6-.1-1.1-.4-1.4-.2-.3-.6-.5-1.1-.5-.6 0-1 .2-1.2.7v-1.5c0-.4.1-.6.2-.8.1-.1.3-.2.5-.2.4 0 .7.3.7.8v.3h1.2v-.2c0-.7-.2-1.2-.5-1.5s-.8-.5-1.4-.5c-1.3 0-2 .7-2 2.1v4.2c.1.6.3 1.1.6 1.5m-3.2-5.8v6.3h1.3v-8.2h-.9c-.1.1-.1.2-.1.3 0 .1-.1.2-.2.3l-.2.2c-.1.1-.2.1-.4.1-.1 0-.3.1-.5.1v.9h1zm21.3-14c0-.3.1-.5.2-.6.1-.1.3-.2.5-.2h.6v2.5h-.5c-.3 0-.4-.1-.6-.2-.1-.1-.2-.4-.2-.7v-.8zm-.2 6.2c0-.1.1-.2.1-.2v-2.1c0-.4.1-.6.2-.8.1-.2.3-.2.6-.2h.4v3.3h1.3v-8.2h-1.9c-.7 0-1.1.2-1.4.5-.3.3-.5.8-.5 1.4v.6c0 .8.3 1.4.8 1.7-.3.1-.5.3-.7.6-.1.3-.2.7-.2 1.1v1.3c0 .4 0 .8-.1 1h1.4zm-3.8-6.8.6 4.1H189l.7-4.1zm-1.1 6.8.2-1.5h1.6l.2 1.5h1.3l-1.3-8.2h-2l-1.3 8.2h1.3zm-4.6 0v-3.5h1.5v3.5h1.3v-8.2h-1.3v3.5H184v-3.5h-1.3v8.2h1.3zm-5 0 1.1-3.8.5-2v5.8h1.3v-8.2h-1.5l-1.1 3.4-.5 1.8v-5.2h-1.2v8.2h1.4zm-4.5-7.1v7h1.3v-7h1.4v-1.2h-4v1.2h1.3zm-5.1 6.6c.3.4.8.5 1.4.5.6 0 1.1-.2 1.5-.5.3-.4.5-.9.5-1.5v-1.1h-1.3v1.2c0 .5-.2.8-.7.8-.4 0-.7-.3-.7-.8v-4.4c0-.5.2-.8.7-.8.4 0 .7.3.7.8v.9h1.3v-.8c0-.7-.2-1.2-.5-1.5-.3-.4-.8-.5-1.5-.5-.6 0-1.1.2-1.4.5-.3.4-.5.9-.5 1.5v4.3c0 .6.1 1.1.5 1.4m-3.9-5.8c0-.5.2-.8.7-.8.4 0 .7.3.7.8v4.4c0 .5-.2.8-.7.8-.4 0-.7-.3-.7-.8v-4.4zm-.8 5.8c.3.4.8.5 1.5.5s1.1-.2 1.4-.5c.3-.4.5-.9.5-1.5v-4.3c0-.7-.2-1.2-.5-1.5-.3-.4-.8-.5-1.4-.5s-1.1.2-1.5.5c-.3.4-.5.9-.5 1.5v4.3c0 .7.2 1.2.5 1.5m-3.3.5v-7h2.1v-1.2h-3.4v8.2h1.3zm-82-39.5v6.3h1.3V133h-.9c0 .1-.1.2-.1.3s-.1.2-.2.3l-.2.2c-.1.1-.2.1-.4.1-.1 0-.3.1-.5.1v.9h1zm-2.6 5.1h-1.3v1.2h1.3V140zm-2.2 1.2V140h-2.4v-.2c0-.2 0-.4.1-.6.1-.2.2-.4.4-.6.2-.2.3-.4.5-.6.2-.2.4-.4.5-.6.2-.2.3-.5.5-.7.1-.2.3-.5.4-.9.1-.3.1-.7.1-1 0-.7-.2-1.2-.5-1.5-.3-.4-.8-.5-1.4-.5s-1.1.2-1.4.5c-.3.4-.5.9-.5 1.5v.8h1.2v-.9c0-.5.2-.8.7-.8.2 0 .4.1.5.2.1.1.2.4.2.7 0 .3 0 .6-.1.9-.1.3-.2.5-.4.7-.2.2-.3.4-.5.6-.2.2-.4.4-.5.6-.2.2-.3.4-.5.6-.2.2-.3.5-.4.8-.1.3-.1.6-.1.9v1h3.6zm-6.6-6.3v6.3h1.3V133h-.9c-.1.1-.1.2-.1.3 0 .1-.1.2-.2.3l-.2.2c-.1.1-.2.1-.4.1-.1 0-.3.1-.5.1v.9h1zm14.9-14c0-.3.1-.5.2-.6.1-.1.3-.2.5-.2h.6v2.5h-.5c-.3 0-.4-.1-.6-.2-.1-.1-.2-.4-.2-.7v-.8zm-.1 6.2c0-.1.1-.2.1-.2v-2.1c0-.4.1-.6.2-.8.1-.2.3-.2.6-.2h.4v3.3h1.3v-8.2h-1.9c-.7 0-1.1.2-1.4.5-.3.3-.5.8-.5 1.4v.6c0 .8.3 1.4.8 1.7-.3.1-.5.3-.7.6-.1.3-.2.7-.2 1.1v1.3c0 .4 0 .8-.1 1h1.4zm-4.8 0v-3.5h1.5v3.5h1.3v-8.2h-1.3v3.5H78v-3.5h-1.3v8.2H78zm-5.3 0 1-3.1 1 3.1H76l-1.4-4.2 1.3-4h-1.1l-1 3-1-3h-1.3l1.4 4-1.4 4.2h1.2zm-4.4-1.9c-.1.4-.2.5-.4.6-.2.1-.4.1-.8.1v1.2h.9c.3 0 .5-.1.7-.2.2-.1.3-.2.5-.4s.2-.4.3-.6c.1-.2.1-.5.2-.8l1.4-6.1h-1.3l-.6 2.8-.3 1.9-.4-1.9-.7-2.8h-1.3l1.8 6.2zm-5 1.9v-2.5l.4-.8 1.3 3.3h1.3l-1.8-4.6 1.8-3.7H65l-1.7 3.6v-3.6H62v8.2h1.3zm118.6 225.2c0-.5.2-.8.7-.8.4 0 .7.3.7.8v4.4c0 .5-.2.8-.7.8-.4 0-.7-.3-.7-.8v-4.4zm-.8 5.9c.3.4.8.5 1.5.5s1.1-.2 1.4-.5c.3-.4.5-.9.5-1.5v-4.3c0-.7-.2-1.2-.5-1.5-.3-.4-.8-.5-1.4-.5s-1.1.2-1.5.5c-.3.4-.5.9-.5 1.5v4.3c0 .7.2 1.2.5 1.5m-1.3-.7h-1.3v1.2h1.3v-1.2zm-4.7-5.2c0-.5.2-.8.7-.8.4 0 .7.3.7.8v1.5c0 .5-.2.8-.7.8-.4 0-.7-.3-.7-.8v-1.5zm-1 3c.2.3.6.5 1.1.5.6 0 1-.2 1.2-.7v1.5c0 .4-.1.6-.2.8-.1.2-.3.2-.5.2-.4 0-.7-.3-.7-.8v-.3h-1.2v.2c0 .7.2 1.2.5 1.5.3.4.8.5 1.4.5 1.3 0 2-.7 2-2.1v-4.2c0-.7-.2-1.2-.5-1.5-.3-.4-.8-.5-1.5-.5-.6 0-1.1.2-1.5.5-.3.4-.5.9-.5 1.5v1.5c.1.6.2 1.1.4 1.4m-3-2.9v6.3h1.3v-8.2h-.9c-.1.1-.1.2-.1.3 0 .1-.1.2-.2.3l-.2.2c-.1.1-.2.1-.4.1-.1 0-.3.1-.5.1v.9h1zm21.6-14.5.6 4.1h-1.2l.6-4.1zm-1 6.7.2-1.5h1.6l.2 1.5h1.3l-1.3-8.2h-2l-1.3 8.2h1.3zm-4.2-7v7h1.3v-7h1.4v-1.2h-4v1.2h1.3zm-3.8.3.6 4.1h-1.2l.6-4.1zm-1 6.7.2-1.5h1.6l.2 1.5h1.3l-1.3-8.2h-2l-1.3 8.2h1.3zm-4.6 0v-3.5h1.5v3.5h1.3v-8.2h-1.3v3.5h-1.5v-3.5h-1.3v8.2h1.3zm-6.5 0v-5.8l1 5.8h1.2l.9-5.9v5.9h1.3v-8.2h-1.9l-.9 5.8-1-5.8h-1.8v8.2h1.2zm-4.6-6.3c0-.5.2-.8.7-.8.4 0 .7.3.7.8v4.4c0 .5-.2.8-.7.8-.4 0-.7-.3-.7-.8v-4.4zm-.8 5.8c.3.4.8.5 1.5.5.6 0 1.1-.2 1.4-.5.3-.4.5-.9.5-1.5v-4.3c0-.7-.2-1.2-.5-1.5-.3-.4-.8-.5-1.4-.5-.6 0-1.1.2-1.5.5-.3.4-.5.9-.5 1.5v4.3c0 .7.2 1.2.5 1.5m-4 .5v-2.5l.4-.8 1.3 3.3h1.3l-1.8-4.6 1.8-3.7h-1.3l-1.7 3.6v-3.6H161v8.2h1.2zm125.1 7.7c0-.5.2-.8.7-.8.4 0 .7.3.7.8v4.4c0 .5-.2.8-.7.8-.4 0-.7-.3-.7-.8v-4.4zm-.8 5.9c.3.4.8.5 1.5.5.6 0 1.1-.2 1.4-.5.3-.4.5-.9.5-1.5v-4.3c0-.7-.2-1.2-.5-1.5-.3-.4-.8-.5-1.4-.5-.6 0-1.1.2-1.5.5-.3.4-.5.9-.5 1.5v4.3c0 .7.2 1.2.5 1.5m-1.3-.7H284v1.2h1.3v-1.2zm-4.7-5.2c0-.5.2-.8.7-.8.4 0 .7.3.7.8v1.5c0 .5-.2.8-.7.8-.4 0-.7-.3-.7-.8v-1.5zm-1 3c.2.3.6.5 1.1.5.6 0 1-.2 1.2-.7v1.5c0 .4-.1.6-.2.8-.1.2-.3.2-.5.2-.4 0-.7-.3-.7-.8v-.3h-1.2v.2c0 .7.2 1.2.5 1.5.3.4.8.5 1.4.5 1.3 0 2-.7 2-2.1v-4.2c0-.7-.2-1.2-.5-1.5-.3-.4-.8-.5-1.5-.5s-1.1.2-1.5.5c-.3.4-.5.9-.5 1.5v1.5c.1.6.2 1.1.4 1.4m-3-2.9v6.3h1.3v-8.2h-.9c-.1.1-.1.2-.1.3s-.1.2-.2.3l-.2.2c-.1.1-.2.1-.4.1-.1 0-.3.1-.5.1v.9h1zm21.6-14.5.6 4.1h-1.2l.6-4.1zm-1 6.7.2-1.5h1.6l.2 1.5h1.3l-1.3-8.2h-2l-1.3 8.2h1.3zm-4.2-7v7h1.3v-7h1.4v-1.2h-4v1.2h1.3zm-3.7.3.6 4.1h-1.2l.6-4.1zm-1.1 6.7.2-1.5h1.6l.2 1.5h1.3l-1.3-8.2h-2l-1.3 8.2h1.3zm-4.6 0v-3.5h1.5v3.5h1.3v-8.2H285v3.5h-1.5v-3.5h-1.3v8.2h1.3zm-6.5 0v-5.8l1 5.8h1.2l.9-5.9v5.9h1.3v-8.2h-1.9l-.9 5.8-1-5.8h-1.8v8.2h1.2zm-4.6-6.3c0-.5.2-.8.7-.8.4 0 .7.3.7.8v4.4c0 .5-.2.8-.7.8-.4 0-.7-.3-.7-.8v-4.4zm-.8 5.8c.3.4.8.5 1.5.5.6 0 1.1-.2 1.5-.5.3-.4.5-.9.5-1.5v-4.3c0-.7-.2-1.2-.5-1.5-.3-.4-.8-.5-1.5-.5-.6 0-1.1.2-1.5.5-.3.4-.5.9-.5 1.5v4.3c0 .7.2 1.2.5 1.5m-3.9.5v-2.5l.4-.8 1.3 3.3h1.3l-1.8-4.6 1.8-3.7h-1.3l-1.7 3.6v-3.6h-1.3v8.2h1.3zm20.2-209.3v6.3h1.3v-8.2h-.9c-.1.1-.1.2-.1.3s-.1.2-.2.3l-.2.2c-.1.1-.2.1-.4.1-.1 0-.3.1-.5.1v.9h1zm-2.7 5.1H284v1.2h1.3v-1.2zm-2.2 1.2v-1.2h-2.4v-.2c0-.2 0-.4.1-.6.1-.2.2-.4.4-.6.1-.2.3-.4.5-.6.2-.2.4-.4.5-.6.2-.2.3-.5.5-.7.1-.2.3-.5.4-.9.1-.3.1-.7.1-1 0-.7-.2-1.2-.5-1.5-.3-.4-.8-.5-1.4-.5-.6 0-1.1.2-1.4.5-.3.4-.5.9-.5 1.5v.8h1.2v-.9c0-.5.2-.8.7-.8.2 0 .4.1.5.2.1.1.2.4.2.7 0 .3 0 .6-.1.9-.1.3-.2.5-.4.7-.2.2-.3.4-.5.6-.2.2-.4.4-.5.6-.2.2-.3.4-.5.6-.2.2-.3.5-.4.8-.1.3-.1.6-.1.9v1h3.6zm-6.5-6.3v6.3h1.3v-8.2h-.9c-.1.1-.1.2-.1.3s-.1.2-.2.3l-.2.2c-.1.1-.2.1-.4.1-.1 0-.3.1-.5.1v.9h1zm19.7-14c0-.3.1-.5.2-.6.1-.1.3-.2.5-.2h.6v2.5h-.5c-.3 0-.4-.1-.6-.2-.1-.1-.2-.4-.2-.7v-.8zm-.2 6.2c0-.1.1-.2.1-.2v-2.1c0-.4.1-.6.2-.8.1-.2.3-.2.6-.2h.4v3.3h1.3v-8.2h-1.9c-.7 0-1.1.2-1.4.5-.3.3-.5.8-.5 1.4v.6c0 .8.3 1.4.8 1.7-.3.1-.5.3-.7.6s-.2.7-.2 1.1v1.3c0 .4 0 .8-.1 1h1.4zm-4.8 0V124h1.5v3.5h1.3v-8.2h-1.3v3.5h-1.5v-3.5h-1.3v8.2h1.3zm-4.6-3.9h.6c.2 0 .4.1.5.2.1.1.2.3.2.6v1.2c0 .3-.1.5-.2.6-.1.1-.3.2-.5.2h-.6v-2.8zm.7 3.9c.6 0 1.1-.2 1.4-.5.3-.3.5-.8.5-1.5v-1.1c0-.7-.2-1.2-.5-1.5-.3-.3-.8-.5-1.4-.5h-.6v-3.1h-1.3v8.2h1.9zm-7.4 0c.6 0 1.1-.2 1.4-.5.3-.3.4-.9.5-1.6l.1-5h1.1v7h1.3v-8.2h-3.7l-.1 6.2c0 .2 0 .3-.1.5 0 .1-.1.2-.1.3-.1.1-.1.1-.2.1h-.4v1.2h.2zm-2.6-6.7.6 4.1h-1.2l.6-4.1zm-1 6.7.2-1.5h1.6l.2 1.5h1.3l-1.3-8.2h-2l-1.3 8.2h1.3zm-4.7 0v-7h1.5v7h1.3v-8.2h-4v8.2h1.2zm-5.4-.4c.3.4.8.5 1.4.5s1.1-.2 1.5-.5c.3-.4.5-.9.5-1.5v-1.1h-1.3v1.2c0 .5-.2.8-.7.8-.4 0-.7-.3-.7-.8v-4.4c0-.5.2-.8.7-.8.4 0 .7.3.7.8v.9h1.3v-.8c0-.7-.2-1.2-.5-1.5-.3-.4-.8-.5-1.5-.5s-1.1.2-1.4.5c-.3.4-.5.9-.5 1.5v4.3c0 .5.1 1 .5 1.4M82.6 255.4c.3.4.8.5 1.5.5.6 0 1.1-.2 1.4-.5.3-.4.5-.9.5-1.5v-.6c0-.9-.3-1.5-.9-1.7.6-.2.9-.8.9-1.7v-.2c0-.7-.2-1.2-.5-1.5-.3-.4-.8-.5-1.4-.5-.6 0-1.1.2-1.5.5-.3.4-.5.9-.5 1.5v.4h1.3v-.5c0-.5.2-.8.7-.8.2 0 .4.1.5.2.1.1.2.4.2.7v.5c0 .3-.1.5-.2.7-.1.1-.3.2-.6.2h-.5v1.2h.4c.3 0 .5.1.6.2.1.2.2.4.2.8v.6c0 .3-.1.6-.2.7-.1.1-.3.2-.5.2-.4 0-.7-.3-.7-.8v-.8H82v.7c.1.6.3 1.1.6 1.5m-1.3-.8H80v1.2h1.3v-1.2zm-3.5-5.8-1.9 7h1.3l1.9-7.1v-1.1h-3.9v1.2h2.6zm20.1-13.3c0-.3.1-.5.2-.6.1-.1.3-.2.5-.2h.6v2.5h-.5c-.3 0-.4-.1-.6-.2-.1-.1-.2-.4-.2-.7v-.8zm-.1 6.2c0-.1.1-.2.1-.2v-2.1c0-.4.1-.6.2-.8.1-.2.3-.2.6-.2h.4v3.3h1.3v-8.2h-1.9c-.7 0-1.1.2-1.4.5-.3.3-.5.8-.5 1.4v.6c0 .8.3 1.4.8 1.7-.3.1-.5.3-.7.6-.1.3-.2.7-.2 1.1v1.3c0 .4 0 .8-.1 1h1.4zm-3.9-6.7.6 4.1h-1.2l.6-4.1zm-1 6.7.2-1.5h1.6l.2 1.5h1.3l-1.3-8.2h-2l-1.3 8.2h1.3zm-7.1 0L87 238l.3.6v3h1.3v-3l.3-.6 1.2 3.6h1.3l-1.6-4.9 1.6-3.3h-1.3l-1.5 3.3v-3.3h-1.3v3.3l-1.5-3.3h-1.3l1.6 3.4-1.6 4.8h1.3zm-4.4-6.3c0-.5.2-.8.7-.8.4 0 .7.3.7.8v4.4c0 .5-.2.8-.7.8-.4 0-.7-.3-.7-.8v-4.4zm-.8 5.9c.3.4.8.5 1.5.5.6 0 1.1-.2 1.4-.5.3-.4.5-.9.5-1.5v-4.3c0-.7-.2-1.2-.5-1.5-.3-.4-.8-.5-1.4-.5-.6 0-1.1.2-1.5.5-.3.4-.5.9-.5 1.5v4.3c0 .6.2 1.1.5 1.5m-4.4.4 1-3.1 1 3.1h1.3l-1.4-4.2 1.3-4h-1.1l-1 3-1-3H75l1.3 4-1.4 4.2h1.3zm-4.7 0 1.1-3.8.5-2v5.8h1.3v-8.2h-1.5l-1.1 3.4-.5 1.8v-5.2h-1.2v8.2h1.4zm-4.5-7h.6c.2 0 .4.1.5.2s.2.3.2.6v1.2c0 .3-.1.5-.2.6-.1.1-.3.2-.5.2H67v-2.8zm0 7v-3.1h.6c.6 0 1.1-.2 1.4-.5.3-.3.5-.8.5-1.5v-1.1c0-.7-.2-1.2-.5-1.5s-.8-.5-1.4-.5h-1.9v8.2H67zm-5 0v-7h1.5v7h1.3v-8.2h-4v8.2H62zm115.7 13.7c.3.4.8.5 1.5.5.6 0 1.1-.2 1.4-.5.3-.4.5-.9.5-1.5v-.6c0-.9-.3-1.5-.9-1.7.6-.2.9-.8.9-1.7v-.2c0-.7-.2-1.2-.5-1.5-.3-.4-.8-.5-1.4-.5-.6 0-1.1.2-1.5.5-.3.4-.5.9-.5 1.5v.4h1.3v-.5c0-.5.2-.8.7-.8.2 0 .4.1.5.2.1.1.2.4.2.7v.5c0 .3-.1.5-.2.7-.1.1-.3.2-.6.2h-.5v1.2h.4c.3 0 .5.1.6.2.1.2.2.4.2.8v.6c0 .3-.1.6-.2.7-.1.1-.3.2-.5.2-.4 0-.7-.3-.7-.8v-.8h-1.3v.7c.1.6.3 1.1.6 1.5m-1.3-.8h-1.3v1.2h1.3v-1.2zm-4.8-5c0-.3.1-.6.2-.7.1-.1.3-.2.5-.2s.4.1.5.2c.1.1.2.4.2.7v.5c0 .6-.2.9-.7.9-.5 0-.7-.3-.7-.9v-.5zm0 3.4c0-.6.2-.9.7-.9.5 0 .7.3.7.9v.8c0 .3-.1.6-.2.7-.1.1-.3.2-.5.2s-.4-.1-.5-.2c-.1-.1-.2-.4-.2-.7v-.8zm-.8 2.4c.3.4.8.5 1.5.5s1.1-.2 1.5-.5c.3-.4.5-.9.5-1.5v-.6c0-.8-.3-1.4-.8-1.7.5-.3.8-.8.8-1.6v-.3c0-.7-.2-1.2-.5-1.5-.3-.4-.8-.5-1.5-.5-.6 0-1.1.2-1.5.5-.3.4-.5.9-.5 1.5v.3c0 .8.3 1.4.8 1.6-.5.3-.8.9-.8 1.7v.6c0 .6.1 1.1.5 1.5m19.1-20.7h.6c.2 0 .4.1.5.2s.2.3.2.6v1.2c0 .3-.1.5-.2.6-.1.1-.3.2-.5.2h-.6v-2.8zm0 7v-3.1h.6c.6 0 1.1-.2 1.4-.5.3-.3.5-.8.5-1.5v-1.1c0-.7-.2-1.2-.5-1.5-.3-.3-.8-.5-1.4-.5h-1.9v8.2h1.3zm-4.8-6.3c0-.5.2-.8.7-.8.4 0 .7.3.7.8v4.4c0 .5-.2.8-.7.8-.4 0-.7-.3-.7-.8v-4.4zm-.7 5.9c.3.4.8.5 1.5.5s1.1-.2 1.4-.5c.3-.4.5-.9.5-1.5v-4.3c0-.7-.2-1.2-.5-1.5-.3-.4-.8-.5-1.4-.5s-1.1.2-1.5.5c-.3.4-.5.9-.5 1.5v4.3c-.1.6.1 1.1.5 1.5m-4.5-1.1c.1-.2.1-.4.1-.7l.2-4.8h1.1v5.9h-1.7c.2-.1.3-.3.3-.4m-.7 2.6v-1.1h2.7v1.1h1.3v-2.3h-.6v-7H179l-.2 6c0 .3 0 .5-.1.6 0 .2-.1.3-.2.4h-.5v2.3h1.2zm-4.6-1.1 1.1-3.8.5-2v5.8h1.3v-8.2H176l-1.1 3.4-.5 1.8v-5.2h-1.2v8.2h1.4zm-4.5-7h.6c.2 0 .4.1.5.2s.2.3.2.6v1.2c0 .3-.1.5-.2.6-.1.1-.3.2-.5.2h-.6v-2.8zm0 7v-3.1h.6c.6 0 1.1-.2 1.4-.5.3-.3.5-.8.5-1.5v-1.1c0-.7-.2-1.2-.5-1.5-.3-.3-.8-.5-1.4-.5h-1.9v8.2h1.3zm-4.8-6.3c0-.5.2-.8.7-.8.4 0 .7.3.7.8v4.4c0 .5-.2.8-.7.8-.4 0-.7-.3-.7-.8v-4.4zm-.7 5.9c.3.4.8.5 1.5.5.6 0 1.1-.2 1.4-.5.3-.4.5-.9.5-1.5v-4.3c0-.7-.2-1.2-.5-1.5-.3-.4-.8-.5-1.4-.5-.6 0-1.1.2-1.5.5-.3.4-.5.9-.5 1.5v4.3c0 .6.1 1.1.5 1.5m-4 .4v-2.5l.4-.8 1.3 3.3h1.3l-1.8-4.6 1.8-3.7h-1.3l-1.7 3.6v-3.6h-1.3v8.2h1.3zm-65.4-191c.6 0 1.1-.1 1.4-.4.3-.3.4-.7.4-1.4v-4.6c0-.7-.1-1.1-.4-1.4-.3-.3-.7-.4-1.4-.4h-.4v1.1h.3c.2 0 .4.1.5.2.1.1.1.3.1.6v4.5c0 .3 0 .5-.1.6-.1.1-.2.2-.5.2h-.3v1.1h.4zm-2.6-5.8V48h-1.3l1.3-3.1zm0 4.3v1.5h1.3v-1.5h.6V48h-.6v-5.5h-1.4L90.1 48v1.2h2.5zm-3.1.3h-1.3v1.2h1.3v-1.2zm-3.7-4.6V48h-1.3l1.3-3.1zm0 4.3v1.5h1.3v-1.5h.6V48h-.6v-5.5h-1.4L83.3 48v1.2h2.5zm-4.6 1.1c.3.3.7.4 1.4.4h.4v-1.1h-.3c-.2 0-.4-.1-.5-.2-.1-.1-.1-.3-.1-.6v-4.5c0-.3 0-.5.1-.6.1-.1.2-.2.5-.2h.3v-1.1h-.4c-.6 0-1.1.1-1.4.4-.3.3-.4.7-.4 1.4v4.6c-.1.7.1 1.2.4 1.5m-5.9-5.8c0-.3.1-.6.2-.7.1-.1.3-.2.5-.2s.4.1.5.2c.1.1.2.4.2.7v.5c0 .6-.2.9-.7.9-.5 0-.7-.3-.7-.9v-.5zm0 3.4c0-.6.2-.9.7-.9.5 0 .7.3.7.9v.8c0 .3-.1.6-.2.7-.1.1-.3.2-.5.2s-.4-.1-.5-.2c-.1-.1-.2-.4-.2-.7v-.8zm-.7 2.3c.3.4.8.5 1.5.5.6 0 1.1-.2 1.5-.5.3-.4.5-.9.5-1.5V48c0-.8-.3-1.4-.8-1.7.5-.3.8-.8.8-1.6v-.3c0-.7-.2-1.2-.5-1.5s-.8-.5-1.5-.5-1.1.2-1.5.5-.6.9-.6 1.5v.3c0 .8.3 1.4.8 1.6-.5.3-.8.9-.8 1.7v.6c0 .8.2 1.3.6 1.6m-1.3-.7H72v1.2h1.3v-1.2zm-4.8-5c0-.3.1-.6.2-.7.1-.1.3-.2.5-.2s.4.1.5.2c.1.1.2.4.2.7v.5c0 .6-.2.9-.7.9-.5 0-.7-.3-.7-.9v-.5zm0 3.4c0-.6.2-.9.7-.9.5 0 .7.3.7.9v.8c0 .3-.1.6-.2.7-.1.1-.3.2-.5.2s-.4-.1-.5-.2c-.1-.1-.2-.4-.2-.7v-.8zm-.8 2.3c.3.4.8.5 1.5.5s1.1-.2 1.5-.5c.3-.4.5-.9.5-1.5V48c0-.8-.3-1.4-.8-1.7.5-.3.8-.8.8-1.6v-.3c0-.7-.2-1.2-.5-1.5s-.8-.5-1.5-.5-1.1.2-1.5.5-.5.9-.5 1.5v.3c0 .8.3 1.4.8 1.6-.5.3-.8.9-.8 1.7v.6c0 .8.2 1.3.5 1.6m226.9 7c.6 0 1.1-.1 1.4-.4.3-.3.4-.7.4-1.4v-4.6c0-.7-.1-1.1-.4-1.4-.3-.3-.7-.4-1.4-.4h-.4v1.1h.3c.2 0 .4.1.5.2.1.1.1.3.1.6v4.5c0 .3 0 .5-.1.6-.1.1-.2.2-.5.2h-.3v1.1h.4zm-2.3-7-1.9 7h1.3l1.9-7.1V49h-3.9v1.2h2.6zM289 56h-1.3v1.2h1.3V56zm-4.2-5.1v6.3h1.3V49h-.9c0 .1-.1.2-.1.3 0 .1-.1.2-.2.3l-.2.2c-.1.1-.2.1-.4.1-.1 0-.3.1-.5.1v.9h1zm-4.2 5.9c.3.3.7.4 1.4.4h.4v-1.1h-.3c-.2 0-.4-.1-.5-.2-.1-.1-.1-.3-.1-.6v-4.5c0-.3 0-.5.1-.6.1-.1.2-.2.5-.2h.3v-1h-.4c-.6 0-1.1.1-1.4.4s-.4.7-.4 1.4v4.6c0 .7.1 1.1.4 1.4m-4.8-5.3v3.1h-1.3l1.3-3.1zm0 4.2v1.5h1.3v-1.5h.6v-1.2h-.6V49h-1.4l-2.3 5.5v1.2h2.4zm-3 .3h-1.3v1.2h1.3V56zm-5.5.8c.3.4.8.5 1.5.5.6 0 1.1-.2 1.4-.5.3-.4.5-.9.5-1.5v-.6c0-.9-.3-1.5-.9-1.7.6-.2.9-.8.9-1.7V51c0-.7-.2-1.2-.5-1.5-.3-.4-.8-.5-1.4-.5-.6 0-1.1.2-1.5.5s-.5.9-.5 1.5v.4h1.3v-.5c0-.5.2-.8.7-.8.2 0 .4.1.5.2.1.1.2.4.2.7v.5c0 .3-.1.5-.2.7-.1.1-.3.2-.6.2h-.5v1.2h.4c.3 0 .5.1.6.2.1.2.2.4.2.8v.6c0 .3-.1.6-.2.7-.1.1-.3.2-.5.2-.4 0-.7-.3-.7-.8v-.8h-1.3v.7c.1.7.2 1.2.6 1.6m-66.5 102.5v-2.7h-5.5v-.4c0-.4.1-.8.3-1.3.2-.4.5-.9.8-1.3s.7-.8 1.1-1.3c.4-.4.8-.9 1.2-1.5.4-.5.8-1.1 1.1-1.6.3-.6.6-1.2.8-2 .2-.7.3-1.5.3-2.3 0-1.5-.4-2.7-1.1-3.5-.7-.8-1.8-1.2-3.3-1.2s-2.5.4-3.3 1.2c-.8.8-1.1 2-1.1 3.5v1.8h2.8v-2c0-1.2.5-1.8 1.5-1.8.5 0 .9.2 1.1.5.3.3.4.9.4 1.7 0 .7-.1 1.4-.3 2.1s-.5 1.2-.8 1.7c-.3.5-.7 1-1.1 1.4-.4.5-.8.9-1.2 1.4-.4.5-.8.9-1.1 1.4-.3.5-.6 1.1-.8 1.7-.2.7-.3 1.4-.3 2.1v2.3h8.5zm-10.5-2.7h-2.9v2.7h2.9v-2.7zm-7.9-13.3-4.3 16.1h2.9l4.3-16.2v-2.6h-8.8v2.7h5.9zm-13.6 1.6c0-1.2.5-1.8 1.5-1.8s1.5.6 1.5 1.8V155c0 1.2-.5 1.9-1.5 1.9s-1.5-.6-1.5-1.9v-10.1zm-1.8 13.4c.8.8 1.9 1.2 3.3 1.2s2.5-.4 3.3-1.2c.8-.8 1.2-2 1.2-3.5V145c0-1.5-.4-2.7-1.2-3.5s-1.9-1.2-3.3-1.2-2.5.4-3.3 1.2c-.8.8-1.2 2-1.2 3.5v9.8c.1 1.5.5 2.7 1.2 3.5m-7.4-13.3v14.3h2.9v-18.8h-2c-.1.3-.2.6-.3.7-.1.2-.2.4-.4.6-.2.2-.4.4-.6.5-.2.1-.5.2-.8.3-.3.1-.7.1-1.2.1v2.1h2.4z" style="clip-path:url(#SVGID_44_);fill:#39373a"/><path d="M178.2 135.1c9.1 0 16.4-7.4 16.4-16.4 0-9.1-7.4-16.4-16.4-16.4-9.1 0-16.4 7.4-16.4 16.4-.1 9 7.3 16.4 16.4 16.4z" style="clip-path:url(#SVGID_44_);fill:none;stroke:#39373a;stroke-width:1.126"/><path d="M181 126.8v-4.4l.7-1.3 2.2 5.7h2.3l-3.1-7.9 3.1-6.3H184l-2.9 6.2v-6.2h-2.2v14.2h2.1zm-6.5-10v5.3h-2.2l2.2-5.3zm0 7.4v2.6h2.2v-2.6h1v-2h-1v-9.6h-2.4l-4.1 9.6v2h4.3z" class="st3"/></g></switch></svg>