<svg xmlns="http://www.w3.org/2000/svg" xmlns:xlink="http://www.w3.org/1999/xlink" xml:space="preserve" id="Слой_1" x="0" y="0" style="enable-background:new 0 0 251.6 243.3" version="1.1" viewBox="0 0 251.6 243.3"><style>.st0{fill:#fff}.st1{fill:#fff5a4}.st2{fill:none;stroke:#39373a;stroke-width:.6}.st3{fill:#39373a}.st13{fill:none;stroke:#39373a;stroke-width:.699}.st14{fill:#39373a}.st14,.st15{clip-path:url(#SVGID_18_)}.st15,.st16{fill:none;stroke:#39373a;stroke-width:.276}.st17{fill:#39373a}.st17,.st18,.st19,.st20{clip-path:url(#SVGID_20_)}.st18{stroke-width:.276}.st18,.st19,.st20{fill:none;stroke:#39373a}.st19{stroke-width:.217}.st20{stroke-width:.554}.st24{fill:none;stroke:#39373a;stroke-width:.258}.st29{clip-path:url(#SVGID_28_);fill:#39373a}</style><switch><g><path d="M0 0h251.6v243.3H0z" class="st0"/><path d="M25.9 79.8H128v139.3H25.9z" class="st1"/><path d="M65.1 79.8h166.3V201H65.1z" class="st1"/><path d="M35.5 21.4h89.6v2.9H35.5zm92.7 0v3l100.7 14.7v-2.9z" class="st2"/><path d="M100.6 67.5h26.3v2.9h-26.3z" class="st3"/><path d="M100.6 67.5h26.3v2.9h-26.3z" class="st2"/><path d="M103.1 69.9h23.8v9.6h-23.8z" class="st3"/><path d="M103.1 69.9h23.8v9.6h-23.8z" class="st2"/><path d="M22.1 67.5h28.6v2.9H22.1z" class="st3"/><path d="M22.1 67.5h28.6v2.9H22.1z" class="st2"/><path d="M23.6 69.9h24.5v9.6H23.6z" class="st3"/><path d="M23.6 69.9h24.5v9.6H23.6zm43.9-2.4h42.6v2.9H67.5zm2.5 3h40.1v9.1H70z" class="st2"/><defs><path id="SVGID_1_" d="M11.1 18.7h223.4v205.8H11.1z"/></defs><clipPath id="SVGID_2_"><use xlink:href="#SVGID_1_" style="overflow:visible"/></clipPath><path d="M69.8 70.7s-1 4.2-2.1 7.1c-1.1 2.9-2.4 4.5-2.4 4.5l-19-10.9.6-.9L66 81.2" style="clip-path:url(#SVGID_2_);fill:none;stroke:#39373a;stroke-width:.52"/><path d="M124.8 19h4.7v28.6h-4.7z" class="st3"/><defs><path id="SVGID_3_" d="M11.1 18.7h223.4v205.8H11.1z"/></defs><clipPath id="SVGID_4_"><use xlink:href="#SVGID_3_" style="overflow:visible"/></clipPath><path d="M124.8 19h4.7v28.6h-4.7z" style="clip-path:url(#SVGID_4_);fill:none;stroke:#39373a;stroke-width:.6"/><path d="M20.9 19h4.7v205.2h-4.7z" class="st3"/><defs><path id="SVGID_5_" d="M11.1 18.7h223.4v205.8H11.1z"/></defs><clipPath id="SVGID_6_"><use xlink:href="#SVGID_5_" style="overflow:visible"/></clipPath><path d="M20.9 19h4.7v205.2h-4.7z" style="clip-path:url(#SVGID_6_);fill:none;stroke:#39373a;stroke-width:.6"/><path d="M124.8 75.2h4.7v86.1h-4.7z" class="st3"/><path d="M124.8 75.2h4.7v86.1h-4.7z" class="st2"/><path d="M124.8 184.6h4.7v39.7h-4.7z" class="st3"/><defs><path id="SVGID_7_" d="M11.1 18.7h223.4v205.8H11.1z"/></defs><clipPath id="SVGID_8_"><use xlink:href="#SVGID_7_" style="overflow:visible"/></clipPath><path d="M124.8 184.6h4.7v39.7h-4.7z" style="clip-path:url(#SVGID_8_);fill:none;stroke:#39373a;stroke-width:.6"/><path d="M128.3 198.6h100.8v4.8H128.3z" class="st3"/><path d="M128.3 198.6h100.8v4.8H128.3z" class="st2"/><path d="M23.6 219.4h73v4.8h-73z" class="st3"/><defs><path id="SVGID_9_" d="M11.1 18.7h223.4v205.8H11.1z"/></defs><clipPath id="SVGID_10_"><use xlink:href="#SVGID_9_" style="overflow:visible"/></clipPath><path d="M23.6 219.4h73v4.8h-73z" style="clip-path:url(#SVGID_10_);fill:none;stroke:#39373a;stroke-width:.6"/><path d="M23.6 155.1h76.3v2.9H23.6z" class="st3"/><path d="M23.6 155.1h76.3v2.9H23.6z" class="st2"/><path d="M76.6 176.5h2.9v43.8h-2.9z" class="st3"/><path d="M76.6 176.5h2.9v43.8h-2.9z" class="st2"/><path d="M228.6 34.9h5.6v168.5h-5.6z" class="st3"/><defs><path id="SVGID_11_" d="M11.1 18.7h223.4v205.8H11.1z"/></defs><clipPath id="SVGID_12_"><use xlink:href="#SVGID_11_" style="overflow:visible"/></clipPath><path d="M228.6 34.9h5.6v168.5h-5.6z" style="clip-path:url(#SVGID_12_);fill:none;stroke:#39373a;stroke-width:.6"/><path d="M76.9 127c.3.4.8.5 1.5.5.6 0 1.1-.2 1.4-.5.3-.4.5-.9.5-1.5v-1.8c0-.6-.1-1.1-.4-1.4-.2-.3-.6-.5-1.1-.5-.5 0-.9.2-1.1.6l.1-2H80v-1.2h-3.4l-.2 4.8h1.3v-.2c0-.5.2-.8.7-.8.4 0 .7.3.7.8v1.8c0 .5-.2.8-.7.8-.4 0-.7-.3-.7-.8v-.8h-1.3v.7c0 .6.1 1.1.5 1.5m-1.4-.8h-1.3v1.2h1.3v-1.2zm-4.8-5c0-.3.1-.6.2-.7s.3-.2.5-.2.4.1.5.2c.1.1.2.4.2.7v.5c0 .6-.2.9-.7.9-.5 0-.7-.3-.7-.9v-.5zm0 3.4c0-.6.2-.9.7-.9.5 0 .7.3.7.9v.8c0 .3-.1.6-.2.7-.1.1-.3.2-.5.2s-.4-.1-.5-.2c-.1-.1-.2-.4-.2-.7v-.8zM70 127c.3.4.8.5 1.5.5s1.1-.2 1.5-.5c.3-.4.5-.9.5-1.5v-.6c0-.8-.3-1.4-.8-1.7.5-.3.8-.8.8-1.6v-.3c0-.7-.2-1.2-.5-1.5s-.8-.5-1.5-.5-1.1.2-1.5.5-.5.9-.5 1.5v.3c0 .8.3 1.4.8 1.6-.5.3-.8.9-.8 1.7v.6c-.1.6.1 1.1.5 1.5m14-19.8c0-.3.1-.5.2-.6.1-.1.3-.2.5-.2h.6v2.5h-.5c-.3 0-.4-.1-.6-.2-.1-.1-.2-.4-.2-.7v-.8zm-.1 6.1c0-.1.1-.2.1-.2V111c0-.4.1-.6.2-.8.1-.2.3-.2.6-.2h.4v3.3h1.3v-8.2h-1.9c-.7 0-1.1.2-1.4.5-.3.3-.5.8-.5 1.4v.6c0 .8.3 1.4.8 1.7-.3.1-.5.3-.7.6-.1.3-.2.7-.2 1.1v1.3c0 .4 0 .8-.1 1h1.4zm-4.8 0v-3.5h1.5v3.5h1.3v-8.2h-1.3v3.5h-1.5v-3.5h-1.3v8.2h1.3zm-5.3 0 1-3.1 1 3.1H77l-1.4-4.2 1.3-4h-1.1l-1 3-1-3h-1.3l1.4 4-1.4 4.2h1.3zm-4.4-1.9c-.1.4-.2.5-.4.6-.2.1-.4.1-.8.1v1.2h.9c.3 0 .5-.1.7-.2.2-.1.3-.2.5-.4l.3-.6c.1-.2.1-.5.2-.8l1.4-6.1h-1.3l-.6 2.8-.3 1.9-.4-1.9-.7-2.8h-1.3l1.8 6.2zm-5 1.9v-2.5l.4-.8 1.3 3.3h1.3l-1.8-4.6 1.8-3.7h-1.3l-1.7 3.6V105h-1.3v8.2h1.3zm31.9-62.2c.6 0 1.1-.1 1.4-.4.3-.3.4-.7.4-1.4v-4.6c0-.7-.1-1.1-.4-1.4-.3-.3-.7-.4-1.4-.4h-.4V44h.3c.2 0 .4.1.5.2.1.1.1.3.1.6v4.5c0 .3 0 .5-.1.6-.1.1-.2.2-.5.2h-.3v1.1h.4zm-2.6-5.8v3.1h-1.3l1.3-3.1zm0 4.3v1.5H95v-1.5h.6v-1.2H95v-5.5h-1.4l-2.3 5.5v1.2h2.4zm-3.1.3h-1.3v1.2h1.3v-1.2zm-3.7-4.6v3.1h-1.3l1.3-3.1zm0 4.3v1.5h1.3v-1.5h.6v-1.2h-.6v-5.5h-1.4l-2.3 5.5v1.2h2.4zm-4.7 1.1c.3.3.7.4 1.4.4h.4V50h-.3c-.2 0-.4-.1-.5-.2-.1-.1-.1-.3-.1-.6v-4.5c0-.3 0-.5.1-.6.1-.1.2-.2.5-.2h.3v-1.1h-.4c-.6 0-1.1.1-1.4.4-.3.3-.4.7-.4 1.4v4.6c0 .8.2 1.2.4 1.5m-5.8-5.8c0-.3.1-.6.2-.7.1-.1.3-.2.5-.2s.4.1.5.2c.1.1.2.4.2.7v.5c0 .6-.2.9-.7.9-.5 0-.7-.3-.7-.9v-.5zm0 3.4c0-.6.2-.9.7-.9.5 0 .7.3.7.9v.8c0 .3-.1.6-.2.7-.1.1-.3.2-.5.2s-.4-.1-.5-.2c-.1-.1-.2-.4-.2-.7v-.8zm-.8 2.3c.3.4.8.5 1.5.5s1.1-.2 1.5-.5c.3-.4.5-.9.5-1.5v-.6c0-.8-.3-1.4-.8-1.7.5-.3.8-.8.8-1.6v-.3c0-.7-.2-1.2-.5-1.5-.3-.4-.8-.5-1.5-.5s-1.1.1-1.5.4c-.3.4-.5.9-.5 1.5v.3c0 .8.3 1.4.8 1.6-.5.3-.8.9-.8 1.7v.6c0 .8.2 1.3.5 1.6m-1.2-.7h-1.3v1.2h1.3v-1.2zm-4.8-5c0-.3.1-.6.2-.7.1-.1.3-.2.5-.2s.4.1.5.2c.1.1.2.4.2.7v.5c0 .6-.2.9-.7.9-.5 0-.7-.3-.7-.9v-.5zm0 3.4c0-.6.2-.9.7-.9.5 0 .7.3.7.9v.8c0 .3-.1.6-.2.7-.1.1-.3.2-.5.2s-.4-.1-.5-.2c-.1-.1-.2-.4-.2-.7v-.8zm-.8 2.3c.3.4.8.5 1.5.5s1.1-.2 1.5-.5c.3-.4.5-.9.5-1.5v-.6c0-.8-.3-1.4-.8-1.7.5-.3.8-.8.8-1.6v-.3c0-.7-.2-1.2-.5-1.5-.3-.4-.8-.5-1.5-.5s-1.1.2-1.5.5c-.3.4-.5.9-.5 1.5v.3c0 .8.3 1.4.8 1.6-.5.3-.8.9-.8 1.7v.6c0 .7.2 1.2.5 1.5" style="clip-path:url(#SVGID_12_);fill:#39373a"/><path d="M167.5 67.5h42.6v2.9h-42.6z" class="st2"/><path d="M206.9 67.5h24.7v2.9h-24.7z" class="st3"/><path d="M206.9 67.5h24.7v2.9h-24.7z" class="st2"/><path d="M209.5 69.9h22.9v9.6h-22.9z" class="st3"/><path d="M209.5 69.9h22.9v9.6h-22.9z" class="st2"/><path d="M120 67.5h31.1v2.9H120z" class="st3"/><path d="M120 67.5h31.1v2.9H120z" class="st2"/><path d="M120 69.9h28.6v9.6H120z" class="st3"/><path d="M120 69.9h28.6v9.6H120zm50.1.6h40.1v9.1h-40.1z" class="st2"/><defs><path id="SVGID_13_" d="M11.1 18.7h223.4v205.8H11.1z"/></defs><clipPath id="SVGID_14_"><use xlink:href="#SVGID_13_" style="overflow:visible"/></clipPath><path d="M169.8 70.7s-1 4.2-2.1 7.1c-1.1 2.9-2.4 4.5-2.4 4.5l-19-10.9.6-.9L166 81.2" style="clip-path:url(#SVGID_14_);fill:none;stroke:#39373a;stroke-width:.52"/><path d="M25.2 19H38v53.3H25.2z" class="st3"/><defs><path id="SVGID_15_" d="M11.1 18.7h223.4v205.8H11.1z"/></defs><clipPath id="SVGID_16_"><use xlink:href="#SVGID_15_" style="overflow:visible"/></clipPath><path d="M25.2 19H38v53.3H25.2z" style="clip-path:url(#SVGID_16_);fill:none;stroke:#39373a;stroke-width:.6"/><path d="M30.7 146h24.5v8.6H30.7zm24.4 7.2H30.5" class="st13"/><path d="m53.9 153.2-.6-6.2H37.8l-.6 6.2h-1.1l-.6-6.2H32l-.7 6.2m24-7.2h24.5v8.6H55.3zm24.4 7.2H55.2" class="st13"/><path d="M78.5 153.2 78 147H62.5l-.7 6.2h-1l-.7-6.2h-3.4l-.8 6.2" class="st13"/><defs><path id="SVGID_17_" d="M11.1 18.7h223.4v205.8H11.1z"/></defs><clipPath id="SVGID_18_"><use xlink:href="#SVGID_17_" style="overflow:visible"/></clipPath><path d="M47.7 169.1c0-3.1-2.5-5.7-5.7-5.7h-8.2c-.5 0-1 .4-1 1v9.4c0 .5.4 1 1 1H42c3.1-.1 5.7-2.6 5.7-5.7m-15.3 4.7v-9.4c0-.8.6-1.4 1.4-1.4H42c3.3 0 6 2.7 6 6s-2.7 6-6 6h-8.2c-.7.1-1.4-.5-1.4-1.2" class="st14"/><path d="M47.7 169.1c0-3.1-2.5-5.7-5.7-5.7h-8.2c-.5 0-1 .4-1 1v9.4c0 .5.4 1 1 1H42c3.1-.1 5.7-2.6 5.7-5.7zm-15.3 4.7v-9.4c0-.8.6-1.4 1.4-1.4H42c3.3 0 6 2.7 6 6s-2.7 6-6 6h-8.2c-.7.1-1.4-.5-1.4-1.2z" class="st15"/><path d="M35.6 165v8.1c0 .1 0 .1.1.1h6.2c2.3 0 4.2-1.9 4.2-4.2 0-2.3-1.9-4.2-4.2-4.2l-6.3.2c0-.1 0 0 0 0z" class="st15"/><path d="M35.8 165.1v7.9h6.1c2.2 0 4-1.8 4-4s-1.8-4-4-4h-6.1zm-.4 8V165c0-.2.1-.3.3-.3h6.2c2.4 0 4.3 1.9 4.3 4.3s-2 4.3-4.3 4.3h-6.2c-.2.1-.3 0-.3-.2" class="st14"/><path d="M35.8 165.1v7.9h6.1c2.2 0 4-1.8 4-4s-1.8-4-4-4h-6.1zm-.4 8V165c0-.2.1-.3.3-.3h6.2c2.4 0 4.3 1.9 4.3 4.3s-2 4.3-4.3 4.3h-6.2c-.2.1-.3 0-.3-.2z" class="st15"/><path d="M41.9 169.1c0-.6-.5-1.1-1.1-1.1-.6 0-1.1.5-1.1 1.1 0 .6.5 1.1 1.1 1.1.6 0 1.1-.5 1.1-1.1m-2.6 0c0-.8.7-1.5 1.5-1.5s1.5.7 1.5 1.5-.7 1.5-1.5 1.5c-.8-.1-1.5-.7-1.5-1.5" class="st14"/><path d="M41.9 169.1c0-.6-.5-1.1-1.1-1.1-.6 0-1.1.5-1.1 1.1 0 .6.5 1.1 1.1 1.1.6 0 1.1-.5 1.1-1.1zm-2.6 0c0-.8.7-1.5 1.5-1.5s1.5.7 1.5 1.5-.7 1.5-1.5 1.5c-.8-.1-1.5-.7-1.5-1.5z" class="st15"/><path d="m36.4 165.9.2-.3 2.6 2-.2.3z" class="st3"/><path d="m36.4 165.9.2-.3 2.6 2-.2.3z" class="st16"/><path d="m36.34 172.23 2.562-1.917.24.32-2.563 1.918z" class="st3"/><path stroke-width=".276" d="m36.34 172.23 2.562-1.917.24.32-2.563 1.918z" class="st16"/><defs><path id="SVGID_19_" d="M11.1 18.7h223.4v205.8H11.1z"/></defs><clipPath id="SVGID_20_"><use xlink:href="#SVGID_19_" style="overflow:visible"/></clipPath><path d="M32.4 165.2c0-.9-.7-1.6-1.6-1.6h-2.1c-.9 0-1.6.7-1.6 1.6v7.8c0 .9.7 1.6 1.6 1.6h2.1c.9 0 1.6-.7 1.6-1.6v-7.8zm-5.6 7.8v-7.8c0-1.1.9-2 2-2h2.1c1.1 0 2 .9 2 2v7.8c0 1.1-.9 2-2 2h-2.1c-1.1-.1-2-.9-2-2" class="st17"/><path d="M32.4 165.2c0-.9-.7-1.6-1.6-1.6h-2.1c-.9 0-1.6.7-1.6 1.6v7.8c0 .9.7 1.6 1.6 1.6h2.1c.9 0 1.6-.7 1.6-1.6v-7.8zm-5.6 7.8v-7.8c0-1.1.9-2 2-2h2.1c1.1 0 2 .9 2 2v7.8c0 1.1-.9 2-2 2h-2.1c-1.1-.1-2-.9-2-2z" class="st18"/><path d="M30.4 169.1c0-.3-.3-.6-.6-.6s-.6.3-.6.6.3.6.6.6.6-.3.6-.6m-1.6 0c0-.5.4-1 1-1 .5 0 1 .4 1 1s-.4 1-1 1-1-.5-1-1" class="st17"/><path d="M30.4 169.1c0-.3-.3-.6-.6-.6s-.6.3-.6.6.3.6.6.6.6-.3.6-.6zm-1.6 0c0-.5.4-1 1-1 .5 0 1 .4 1 1s-.4 1-1 1-1-.5-1-1z" class="st18"/><path d="M37.7 191c0 2.8-2.3 5.2-5.2 5.2H27c-.4 0-.8-.4-.8-.8v-11.7c0-.4.4-.8.8-.8h5.5c2.9 0 5.2 2.3 5.2 5.2v2.9zM26 183.7v11.7c0 .6.5 1.1 1.1 1.1h5.5c3 0 5.5-2.4 5.5-5.5v-2.9c0-3-2.5-5.5-5.5-5.5h-5.5c-.6 0-1.1.5-1.1 1.1" class="st17"/><path d="M37.7 191c0 2.8-2.3 5.2-5.2 5.2H27c-.4 0-.8-.4-.8-.8v-11.7c0-.4.4-.8.8-.8h5.5c2.9 0 5.2 2.3 5.2 5.2v2.9zM26 183.7v11.7c0 .6.5 1.1 1.1 1.1h5.5c3 0 5.5-2.4 5.5-5.5v-2.9c0-3-2.5-5.5-5.5-5.5h-5.5c-.6 0-1.1.5-1.1 1.1z" class="st19"/><path d="M36.4 191c0 2.1-1.7 3.9-3.9 3.9h-3.2c-.4 0-.7-.3-.7-.7v-9.3c0-.4.3-.7.7-.7h3.2c2.1 0 3.9 1.7 3.9 3.9v2.9zm-8-6.1v9.3c0 .5.4 1 1 1h3.2c2.3 0 4.2-1.9 4.2-4.2v-2.9c0-2.3-1.9-4.2-4.2-4.2h-3.2c-.6 0-1 .4-1 1" class="st17"/><path d="M36.4 191c0 2.1-1.7 3.9-3.9 3.9h-3.2c-.4 0-.7-.3-.7-.7v-9.3c0-.4.3-.7.7-.7h3.2c2.1 0 3.9 1.7 3.9 3.9v2.9zm-8-6.1v9.3c0 .5.4 1 1 1h3.2c2.3 0 4.2-1.9 4.2-4.2v-2.9c0-2.3-1.9-4.2-4.2-4.2h-3.2c-.6 0-1 .4-1 1z" class="st19"/><path d="M33.7 189.5c0 .4-.3.6-.6.6-.4 0-.6-.3-.6-.6 0-.4.3-.6.6-.6s.6.3.6.6m-1.6 0c0 .5.4.9.9.9s.9-.4.9-.9-.4-.9-.9-.9-.9.4-.9.9" class="st17"/><path d="M33.7 189.5c0 .4-.3.6-.6.6-.4 0-.6-.3-.6-.6 0-.4.3-.6.6-.6s.6.3.6.6zm-1.6 0c0 .5.4.9.9.9s.9-.4.9-.9-.4-.9-.9-.9-.9.4-.9.9z" class="st19"/><path d="M35.6 208.5c0-.4.4-.8.8-.8s.8.4.8.8-.4.8-.8.8c-.5 0-.8-.3-.8-.8z" class="st20"/><path d="M74.2 212.2c0 2.9-2.3 5.2-5.2 5.2H33.2c-2.9 0-5.2-2.3-5.2-5.2v-7.3c0-2.9 2.3-5.2 5.2-5.2H69c2.9 0 5.2 2.3 5.2 5.2v7.3z" class="st20"/><path d="M71 210.5c0 2.9-2.3 5.2-5.2 5.2H36.4c-2.9 0-5.2-2.3-5.2-5.2v-3.9c0-2.9 2.3-5.2 5.2-5.2h29.3c2.9 0 5.2 2.3 5.2 5.2v3.9z" class="st20"/><path d="M67.1 211.5c0 1.4-1.2 2.6-2.6 2.6H35.6c-1.4 0-2.6-1.2-2.6-2.6v-6c0-1.4 1.2-2.6 2.6-2.6h28.9c1.4 0 2.6 1.2 2.6 2.6v6z" class="st20"/><path d="M26.2 198.2H76v20.7H26.2z" style="fill:none;stroke:#39373a;stroke-width:.554"/><path d="M63.5 180.1h11.4v17.2H63.5zm.2-.1 11.2 17.3M75 180l-11.2 17.3" style="fill:none;stroke:#39373a;stroke-width:.52"/><defs><path id="SVGID_21_" d="M11.1 18.7h223.4v205.8H11.1z"/></defs><clipPath id="SVGID_22_"><use xlink:href="#SVGID_21_" style="overflow:visible"/></clipPath><path d="M124.5 161s3.7 0 8.3 1.6c3.9 1.4 7.5 4.1 7.5 4.1l-12.9 22.7-.9-.6 12.9-22.8m-39.2-7.7s0-3.7 1.6-8.3c1.4-3.9 4.1-7.5 4.1-7.5l22.7 12.9-.6.9-22.8-12.9m-8.5 81.1s0-3.7 1.6-8.3c1.4-3.9 4.1-7.5 4.1-7.5l22.7 12.9-.6.9-22.8-12.9m-24.6-33.1c1-.2 2.1-.5 3.2-.9 3.9-1.4 7.5-4.1 7.5-4.1l-9.3-16.3-.9.6 9.3 16.3" style="clip-path:url(#SVGID_22_);stroke-width:.52;fill:none;stroke:#39373a"/><path d="M24.3 146H30v9.9h-5.7z" class="st3"/><path d="M24.3 146H30v9.9h-5.7z" class="st2"/><path d="M26.4 136.5h16.7v-16.7H26.4v16.7zm-.3-17.2h17.5v17.5H26.1v-17.5z" class="st3"/><path d="M26.4 136.5h16.7v-16.7H26.4v16.7zm-.3-17.2h17.5v17.5H26.1v-17.5z" class="st24"/><defs><path id="SVGID_23_" d="M11.1 18.7h223.4v205.8H11.1z"/></defs><clipPath id="SVGID_24_"><use xlink:href="#SVGID_23_" style="overflow:visible"/></clipPath><path d="M41.6 122.2c0-.4-.3-.7-.8-.7H32c-.4 0-.8.3-.8.7V134c0 .4.3.7.8.7h8.8c.4 0 .8-.3.8-.7v-11.8zM31 134v-11.7c0-.6.5-1.1 1.1-1.1h8.8c.6 0 1.1.5 1.1 1.1V134c0 .6-.5 1.1-1.1 1.1h-8.8c-.6 0-1.1-.5-1.1-1.1" style="clip-path:url(#SVGID_24_);fill:#39373a"/><path d="M41.6 122.2c0-.4-.3-.7-.8-.7H32c-.4 0-.8.3-.8.7V134c0 .4.3.7.8.7h8.8c.4 0 .8-.3.8-.7v-11.8zM31 134v-11.7c0-.6.5-1.1 1.1-1.1h8.8c.6 0 1.1.5 1.1 1.1V134c0 .6-.5 1.1-1.1 1.1h-8.8c-.6 0-1.1-.5-1.1-1.1z" style="clip-path:url(#SVGID_24_);fill:none;stroke:#39373a;stroke-width:.258"/><path d="M32.6 133.4h7.7v-10.6h-7.7v10.6zm-.3-11h8.4v11.4h-8.4v-11.4z" class="st3"/><path d="M32.6 133.4h7.7v-10.6h-7.7v10.6zm-.3-11h8.4v11.4h-8.4v-11.4z" class="st24"/><defs><path id="SVGID_25_" d="M11.1 18.7h223.4v205.8H11.1z"/></defs><clipPath id="SVGID_26_"><use xlink:href="#SVGID_25_" style="overflow:visible"/></clipPath><path d="M38 128.1c0-.5-.4-1-1-1-.5 0-1 .4-1 1 0 .5.4 1 1 1s1-.5 1-1m-2.3 0c0-.7.6-1.3 1.3-1.3.7 0 1.3.6 1.3 1.3 0 .7-.6 1.3-1.3 1.3-.7 0-1.3-.6-1.3-1.3" style="clip-path:url(#SVGID_26_);fill:#39373a"/><path d="M38 128.1c0-.5-.4-1-1-1-.5 0-1 .4-1 1 0 .5.4 1 1 1s1-.5 1-1zm-2.3 0c0-.7.6-1.3 1.3-1.3.7 0 1.3.6 1.3 1.3 0 .7-.6 1.3-1.3 1.3-.7 0-1.3-.6-1.3-1.3z" style="clip-path:url(#SVGID_26_);fill:none;stroke:#39373a;stroke-width:.258"/><path d="M11.1 204h6.1v7.3h-6.1z" class="st0"/><defs><path id="SVGID_27_" d="M11.1 18.7h223.4v205.8H11.1z"/></defs><clipPath id="SVGID_28_"><use xlink:href="#SVGID_27_" style="overflow:visible"/></clipPath><path d="M187.7 182.2V181h-2.4v-.2c0-.2 0-.4.1-.6.1-.2.2-.4.4-.6.1-.2.3-.4.5-.6.2-.2.4-.4.5-.6.2-.2.3-.5.5-.7.1-.2.3-.5.4-.9.1-.3.1-.7.1-1 0-.7-.2-1.2-.5-1.5-.3-.4-.8-.5-1.4-.5-.6 0-1.1.2-1.4.5-.3.4-.5.9-.5 1.5v.8h1.2v-.9c0-.5.2-.8.7-.8.2 0 .4.1.5.2.1.1.2.4.2.7 0 .3 0 .6-.1.9-.1.3-.2.5-.4.7-.1.2-.3.4-.5.6-.2.2-.4.4-.5.6-.2.2-.3.4-.5.6-.2.2-.3.5-.4.8-.1.3-.1.6-.1.9v1h3.6zm-4.6-1.2h-1.3v1.2h1.3V181zm-3.7-4.5v3.1h-1.3l1.3-3.1zm0 4.2v1.5h1.3v-1.5h.6v-1.2h-.6V174h-1.4l-2.3 5.5v1.2h2.4zm-5.1-4.8v6.3h1.3V174h-.9c-.1.1-.1.2-.1.3 0 .1-.1.2-.2.3l-.2.2c-.1.1-.2.1-.4.1-.1 0-.3.1-.5.1v.9h1zm21.7-14.5.6 4.1h-1.2l.6-4.1zm-1 6.7.2-1.5h1.6l.2 1.5h1.3l-1.3-8.2h-2l-1.3 8.2h1.3zm-4.2-7v7h1.3v-7h1.4v-1.2h-4v1.2h1.3zm-3.8.3.6 4.1h-1.2l.6-4.1zm-1 6.7.2-1.5h1.6l.2 1.5h1.3l-1.3-8.2h-2l-1.3 8.2h1.3zm-4.6 0v-3.5h1.5v3.5h1.3v-8.2h-1.3v3.5h-1.5v-3.5h-1.3v8.2h1.3zm-6.6 0v-5.8l1 5.8h1.2l.9-5.9v5.9h1.3v-8.2h-1.9l-.9 5.8-1-5.8h-1.8v8.2h1.2zm-4.5-6.3c0-.5.2-.8.7-.8.4 0 .7.3.7.8v4.4c0 .5-.2.8-.7.8-.4 0-.7-.3-.7-.8v-4.4zm-.8 5.9c.3.4.8.5 1.5.5.6 0 1.1-.2 1.4-.5.3-.4.5-.9.5-1.5v-4.3c0-.7-.2-1.2-.5-1.5-.3-.4-.8-.5-1.4-.5-.6 0-1.1.2-1.5.5-.3.4-.5.9-.5 1.5v4.3c0 .6.1 1.1.5 1.5m-4 .4v-2.5l.4-.8 1.3 3.3h1.3l-1.8-4.6 1.8-3.7h-1.3l-1.7 3.6v-3.6h-1.3v8.2h1.3zm32-15v-2.7H192v-.4c0-.4.1-.8.3-1.3.2-.4.5-.9.8-1.3.3-.4.7-.8 1.1-1.3.4-.4.8-.9 1.2-1.5.4-.5.8-1.1 1.1-1.6s.6-1.2.8-2c.2-.7.3-1.5.3-2.3 0-1.5-.4-2.7-1.1-3.5-.7-.8-1.8-1.2-3.3-1.2s-2.5.4-3.3 1.2c-.8.8-1.1 2-1.1 3.5v1.8h2.8v-2c0-1.2.5-1.8 1.5-1.8.5 0 .9.2 1.1.5s.4.9.4 1.7c0 .7-.1 1.4-.3 2.1-.2.6-.5 1.2-.8 1.7-.3.5-.7 1-1.1 1.4-.4.5-.8.9-1.2 1.4-.4.5-.8.9-1.1 1.4-.3.5-.6 1.1-.8 1.7-.2.7-.3 1.4-.3 2.1v2.3h8.5zm-10.5-2.7h-3v2.7h2.9v-2.7zm-8.6-10.4v7.1h-3l3-7.1zm0 9.7v3.4h2.9v-3.4h1.3V147h-1.3v-12.7h-3.2l-5.4 12.7v2.7h5.7zm-14.6 2.4c.8.8 1.9 1.2 3.3 1.2s2.5-.4 3.3-1.2c.7-.8 1.1-2 1.1-3.5v-1.5c0-2-.7-3.3-2.1-3.9 1.4-.6 2.1-1.9 2.1-3.9v-.5c0-1.5-.4-2.7-1.1-3.5-.7-.8-1.8-1.2-3.3-1.2-1.4 0-2.6.4-3.3 1.2-.8.8-1.2 2-1.2 3.5v1h2.9v-1.2c0-1.2.5-1.8 1.5-1.8.5 0 .9.2 1.1.5.3.3.4.9.4 1.7v1c0 .7-.1 1.2-.4 1.5-.3.3-.7.5-1.3.5h-1.2v2.7h1c.7 0 1.2.2 1.5.5.3.4.5 1 .5 1.8v1.5c0 .8-.1 1.3-.4 1.6-.3.3-.6.5-1.1.5-1 0-1.5-.6-1.5-1.9V147h-2.9v1.6c-.1 1.5.3 2.7 1.1 3.5" class="st29"/><path d="M180.1 128.9c9.1 0 16.4-7.4 16.4-16.4S189.2 96 180.1 96c-9.1 0-16.4 7.4-16.4 16.4s7.4 16.5 16.4 16.5z" style="clip-path:url(#SVGID_28_);fill:none;stroke:#39373a;stroke-width:1.126"/><path d="M182.1 120.6v-4.4l.7-1.3 2.2 5.7h2.3l-3.1-7.9 3.1-6.3H185l-2.9 6.2v-6.2h-2.2v14.2h2.2zm-7.2-10.9v10.8h2.2v-14.2h-1.5c-.1.2-.2.4-.2.6-.1.1-.2.3-.3.5-.1.2-.3.3-.4.4-.2.1-.4.2-.6.2-.3.1-.6.1-.9.1v1.6h1.7zM54.3 187.1l-1.1 4.2h.8l1.1-4.2v-.7h-2.3v.7h1.5zm-2 3.5h-.8v.7h.8v-.7zm-3.3.4c.2.2.5.3.9.3s.7-.1.9-.3c.2-.2.3-.5.3-.9v-.4c0-.5-.2-.9-.5-1 .4-.1.5-.5.5-1v-.1c0-.4-.1-.7-.3-.9-.2-.2-.5-.3-.9-.3s-.7.1-.9.3c-.2.2-.3.5-.3.9v.3h.8v-.3c0-.3.1-.5.4-.5.1 0 .2 0 .3.1.1.1.1.2.1.4v.3c0 .2 0 .3-.1.4-.1.1-.2.1-.3.1h-.3v.7h.3c.2 0 .3 0 .4.1.1.1.1.3.1.5v.4c0 .2 0 .4-.1.4-.1.1-.2.1-.3.1-.3 0-.4-.2-.4-.5v-.5h-.8v.4c-.1.5 0 .8.2 1m5.2-9.3c0 .2-.1.3-.2.4-.1.1-.3.1-.5.1v.7h.5c.2 0 .3-.1.4-.1.1-.1.2-.1.3-.3.1-.1.1-.2.2-.4 0-.1.1-.3.1-.5l.8-3.7H55l-.4 1.7-.2 1.1-.2-1.2-.4-1.7H53l1.2 3.9zm-3.1 1.2L53 178h-.7l-1.9 4.9h.7zm-2.9-.3c.2.2.5.3.9.3s.7-.1.9-.3c.2-.2.3-.5.3-.9v-.7h-.8v.7c0 .3-.1.5-.4.5-.3 0-.4-.2-.4-.5V179c0-.3.1-.5.4-.5.3 0 .4.2.4.5v.5h.8v-.5c0-.4-.1-.7-.3-.9-.2-.2-.5-.3-.9-.3s-.7.1-.9.3c-.2.2-.3.5-.3.9v2.6c0 .5.1.8.3 1m57.8 8.7v2.4h-1l1-2.4zm0 3.3v1.2h1v-1.2h.5v-.9h-.5v-4.3h-1.1l-1.8 4.3v.9h1.9zm-2.4.2h-1v.9h1v-.9zm-4.2.6c.3.3.7.4 1.1.4.5 0 .9-.1 1.1-.4.3-.3.4-.7.4-1.2v-.5c0-.7-.2-1.1-.7-1.3.5-.2.7-.6.7-1.3v-.2c0-.5-.1-.9-.4-1.2-.3-.3-.6-.4-1.1-.4-.5 0-.9.1-1.1.4-.3.3-.4.7-.4 1.2v.3h1v-.4c0-.4.2-.6.5-.6.2 0 .3.1.4.2.1.1.1.3.1.6v.4c0 .2-.1.4-.2.5-.1.1-.3.2-.5.2h-.3v.9h.3c.2 0 .4.1.5.2.1.1.2.3.2.6v.5c0 .3 0 .5-.1.6-.1.1-.2.2-.4.2-.3 0-.5-.2-.5-.6v-.6h-1v.5c-.1.3.1.7.4 1m17.2-15.5c0-.2 0-.4.1-.5.1-.1.2-.2.4-.2h.5v2h-.4c-.2 0-.4-.1-.5-.2-.1-.1-.2-.3-.2-.5v-.6zm-.1 4.9V183c0-.3.1-.5.2-.6.1-.1.3-.2.5-.2h.3v2.6h1v-6.4H117c-.5 0-.9.1-1.1.4-.2.2-.4.6-.4 1.1v.5c0 .7.2 1.1.7 1.3-.2.1-.4.3-.5.5-.1.2-.2.5-.2.9v1c0 .3 0 .6-.1.8h1.1zm-3-5.3.5 3.2h-1l.5-3.2zm-.8 5.3.2-1.2h1.2l.2 1.2h1l-1-6.4h-1.6l-1 6.4h1zm-5.6 0 .9-2.9.2.5v2.4h1v-2.3l.3-.5.9 2.8h1l-1.2-3.8 1.2-2.6h-1l-1.2 2.6v-2.6h-1v2.6l-1.2-2.6h-1l1.2 2.6-1.2 3.8h1.1zm-3.4-5c0-.4.2-.6.5-.6s.5.2.5.6v3.5c0 .4-.2.6-.5.6s-.5-.2-.5-.6v-3.5zm-.6 4.6c.3.3.6.4 1.1.4.5 0 .9-.1 1.1-.4s.4-.7.4-1.2v-3.3c0-.5-.1-.9-.4-1.2s-.6-.4-1.1-.4c-.5 0-.9.1-1.1.4s-.4.7-.4 1.2v3.3c0 .5.1.9.4 1.2m-3.5.4.8-2.4.8 2.4h1l-1.1-3.3 1.1-3.1h-.9l-.8 2.4-.8-2.4h-1l1.1 3.1-1.1 3.3h.9zm-3.6 0 .8-2.9.4-1.6v4.5h1v-6.4H97l-.8 2.6-.4 1.4v-4.1H95v6.4h1zm-3.5-5.5h.5c.2 0 .3 0 .4.1.1.1.1.2.1.5v1c0 .2 0 .4-.1.5-.1.1-.2.1-.4.1h-.5v-2.2zm0 5.5v-2.4h.5c.5 0 .9-.1 1.1-.4.3-.3.4-.7.4-1.2v-.8c0-.5-.1-.9-.4-1.2-.3-.3-.6-.4-1.1-.4h-1.5v6.4h1zm-3.9 0v-5.5h1.1v5.5h1v-6.4h-3.2v6.4h1.1z" class="st29"/></g></switch></svg>