<svg xmlns="http://www.w3.org/2000/svg" xmlns:xlink="http://www.w3.org/1999/xlink" xml:space="preserve" id="Слой_1" x="0" y="0" style="enable-background:new 0 0 251.6 445.8" version="1.1" viewBox="0 0 251.6 445.8"><style>.st1{fill:#dfeab4}.st2{fill:none;stroke:#39373a;stroke-width:.6}.st3{fill:#39373a}.st15,.st21{stroke-width:.258;fill:none;stroke:#39373a}.st21{stroke-width:.699}.st22{fill:#39373a}.st22,.st23{clip-path:url(#SVGID_26_)}.st23,.st24{fill:none;stroke:#39373a;stroke-width:.276}.st25,.st26{clip-path:url(#SVGID_28_);fill:#39373a}.st26{fill:none;stroke:#39373a;stroke-width:.276}.st28,.st29{clip-path:url(#SVGID_30_)}.st28{fill:#39373a}.st29,.st30{stroke-width:.217;fill:none;stroke:#39373a}.st30{clip-path:url(#SVGID_30_);stroke-width:.554}.st33{clip-path:url(#SVGID_32_);fill:#39373a}</style><switch><g><path d="M0 0h251.6v445.8H0z" style="fill:#fff"/><path d="M24.8 186.4h202v226.9h-202z" class="st1"/><path d="M24.8 65.1h101.1v287.4H24.8z" class="st1"/><path d="M24.2 21.9h101.4v2.9H24.2z" class="st2"/><path d="M102 52.8h22.5v2.9H102z" class="st3"/><path d="M102 52.8h22.5v2.9H102z" class="st2"/><path d="M104.6 55.2h21v9.6h-21z" class="st3"/><path d="M104.6 55.2h21v9.6h-21z" class="st2"/><path d="M22 52.8h37.4v2.9H22z" class="st3"/><path d="M22 52.8h37.4v2.9H22z" class="st2"/><path d="M22 55.2h34.9v9.6H22z" class="st3"/><path d="M22 55.2h34.9v9.6H22z" class="st2"/><path d="M42.8 52.8h42.6v2.9H42.8zm0 2.9h40.1v9.1H42.8z" class="st2"/><defs><path id="SVGID_1_" d="M19.4 19.9h212.9V426H19.4z"/></defs><clipPath id="SVGID_2_"><use xlink:href="#SVGID_1_" style="overflow:visible"/></clipPath><path d="M83.1 56s1 4.2 2.1 7.1c1.1 2.9 2.4 4.5 2.4 4.5l19-10.9-.6-.9-19.1 10.7" style="clip-path:url(#SVGID_2_);fill:none;stroke:#39373a;stroke-width:.52"/><path d="M184.5 338.9c0-.5.2-.8.7-.8.4 0 .7.3.7.8v4.4c0 .5-.2.8-.7.8-.4 0-.7-.3-.7-.8v-4.4zm-.7 5.9c.3.4.8.5 1.5.5s1.1-.2 1.4-.5c.3-.4.5-.9.5-1.5V339c0-.7-.2-1.2-.5-1.5-.3-.4-.8-.5-1.4-.5s-1.1.2-1.5.5c-.3.4-.5.9-.5 1.5v4.3c0 .6.1 1.1.5 1.5m-1.3-.8h-1.3v1.2h1.3V344zm-4.8-5.1c0-.5.2-.8.7-.8.4 0 .7.3.7.8v1.5c0 .5-.2.8-.7.8-.4 0-.7-.3-.7-.8v-1.5zm-.9 3c.2.3.6.5 1.1.5.6 0 1-.2 1.2-.7v1.5c0 .4-.1.6-.2.8-.1.2-.3.2-.5.2-.4 0-.7-.3-.7-.8v-.4h-1.2v.2c0 .7.2 1.2.5 1.5.3.4.8.5 1.4.5 1.3 0 2-.7 2-2.1V339c0-.7-.2-1.2-.5-1.5-.3-.4-.8-.5-1.5-.5-.6 0-1.1.2-1.5.5-.3.4-.5.9-.5 1.5v1.5c0 .6.1 1 .4 1.4m-3.1-3v6.3h1.3V337h-.9c-.1.1-.1.2-.1.3 0 .1-.1.2-.2.3l-.2.2c-.1.1-.2.1-.4.1-.1 0-.3.1-.5.1v.9h1zm21.6-14.5.6 4.1h-1.2l.6-4.1zm-1 6.7.2-1.5h1.6l.2 1.5h1.3l-1.3-8.2h-2l-1.3 8.2h1.3zm-4.1-7v7h1.3v-7h1.4v-1.2h-4v1.2h1.3zm-3.8.3.6 4.1h-1.2l.6-4.1zm-1 6.7.2-1.5h1.6l.2 1.5h1.3l-1.3-8.2h-2l-1.3 8.2h1.3zm-4.7 0v-3.5h1.5v3.5h1.3v-8.2h-1.3v3.5h-1.5v-3.5h-1.3v8.2h1.3zm-6.5 0v-5.8l1 5.8h1.2l.9-5.9v5.9h1.3v-8.2h-1.9l-.9 5.8-1-5.8H173v8.2h1.2zm-4.6-6.3c0-.5.2-.8.7-.8.4 0 .7.3.7.8v4.4c0 .5-.2.8-.7.8-.4 0-.7-.3-.7-.8v-4.4zm-.8 5.9c.3.4.8.5 1.5.5.6 0 1.1-.2 1.4-.5.3-.4.5-.9.5-1.5v-4.3c0-.7-.2-1.2-.5-1.5-.3-.4-.8-.5-1.4-.5-.6 0-1.1.2-1.5.5-.3.4-.5.9-.5 1.5v4.3c0 .6.2 1.1.5 1.5m-3.9.4v-2.5l.4-.8 1.3 3.3h1.3l-1.8-4.6 1.8-3.7h-1.3l-1.7 3.6v-3.6h-1.3v8.2h1.3zm14.5-99.2c.3.4.8.5 1.5.5.6 0 1.1-.2 1.4-.5.3-.4.5-.9.5-1.5v-.6c0-.9-.3-1.5-.9-1.7.6-.2.9-.8.9-1.7v-.2c0-.7-.2-1.2-.5-1.5-.3-.4-.8-.5-1.4-.5-.6 0-1.1.2-1.5.5-.3.4-.5.9-.5 1.5v.4h1.3v-.6c0-.5.2-.8.7-.8.2 0 .4.1.5.2.1.1.2.4.2.7v.5c0 .3-.1.5-.2.7-.1.1-.3.2-.6.2h-.5v1.2h.4c.3 0 .5.1.6.2.1.2.2.4.2.8v.6c0 .3-.1.6-.2.7-.1.1-.3.2-.5.2-.4 0-.7-.3-.7-.8v-.8h-1.3v.7c0 .8.2 1.3.6 1.6m-1.4-.7h-1.3v1.2h1.3v-1.2zm-3.4-5.9-1.9 7h1.3l1.9-7.1v-1.1H172v1.2h2.6zm20.1-13.2c0-.3.1-.5.2-.6.1-.1.3-.2.5-.2h.6v2.5h-.5c-.3 0-.4-.1-.6-.2-.1-.1-.2-.4-.2-.7v-.8zm-.2 6.2c0-.1.1-.2.1-.2V216c0-.4.1-.6.2-.8.1-.2.3-.2.6-.2h.4v3.3h1.3v-8.2h-1.9c-.7 0-1.1.2-1.4.5-.3.3-.5.8-.5 1.4v.6c0 .8.3 1.4.8 1.7-.3.1-.5.3-.7.6-.1.3-.2.7-.2 1.1v1.3c0 .4 0 .8-.1 1h1.4zm-3.9-6.7.6 4.1H190l.6-4.1zm-1 6.7.2-1.5h1.6l.2 1.5h1.3l-1.3-8.2h-2l-1.3 8.2h1.3zm-7.1 0 1.2-3.7.3.6v3h1.3v-3l.3-.6 1.2 3.6h1.3l-1.6-4.9 1.6-3.3h-1.3l-1.5 3.3V210H184v3.3l-1.5-3.3h-1.3l1.6 3.4-1.6 4.8h1.3zm-4.4-6.3c0-.5.2-.8.7-.8.4 0 .7.3.7.8v4.4c0 .5-.2.8-.7.8-.4 0-.7-.3-.7-.8V212zm-.7 5.8c.3.4.8.5 1.5.5.6 0 1.1-.2 1.4-.5.3-.4.5-.9.5-1.5V212c0-.7-.2-1.2-.5-1.5-.3-.4-.8-.5-1.4-.5-.6 0-1.1.2-1.5.5-.3.4-.5.9-.5 1.5v4.3c0 .7.1 1.2.5 1.5m-4.5.5 1-3.1 1 3.1h1.3l-1.4-4.2 1.3-4H175l-1 3-1-3h-1.3l1.4 4-1.4 4.2h1.2zm-4.7 0 1.1-3.8.5-2v5.8h1.3v-8.2h-1.5l-1.1 3.4-.5 1.8v-5.2h-1.1v8.2h1.3zm-4.4-7h.6c.2 0 .4.1.5.2s.2.3.2.6v1.2c0 .3-.1.5-.2.6-.1.1-.3.2-.5.2h-.6v-2.8zm0 7v-3.1h.6c.6 0 1.1-.2 1.4-.5.3-.3.5-.8.5-1.5v-1.1c0-.7-.2-1.2-.5-1.5-.3-.3-.8-.5-1.4-.5h-1.9v8.2h1.3zm-5 0v-7h1.5v7h1.3v-8.2h-4v8.2h1.2zM80.5 116v6.3h1.3V114h-.9c0 .1-.1.2-.1.3s-.1.2-.2.3l-.2.2c-.1.1-.2.1-.4.1-.1 0-.3.1-.5.1v.9h1zm-2.7 5.1h-1.3v1.2h1.3v-1.2zm-2.2 1.1V121h-2.4v-.2c0-.2 0-.4.1-.6.1-.2.2-.4.4-.6.2-.2.3-.4.5-.6.2-.2.4-.4.5-.6.2-.2.3-.5.5-.7.1-.2.3-.5.4-.9.1-.3.1-.7.1-1 0-.7-.2-1.2-.5-1.5-.3-.4-.8-.5-1.4-.5s-1.1.2-1.4.5c-.3.4-.5.9-.5 1.5v.8h1.2v-.9c0-.5.2-.8.7-.8.2 0 .4.1.5.2.1.1.2.4.2.7 0 .3 0 .6-.1.9-.1.3-.2.5-.4.7-.2.2-.3.4-.5.6-.2.2-.4.4-.5.6-.2.2-.3.4-.5.6-.2.2-.3.5-.4.8-.1.3-.1.6-.1.9v1h3.6zM69 116v6.3h1.3V114h-.9c-.1.1-.1.2-.1.3 0 .1-.1.2-.2.3l-.2.2c-.1.1-.2.1-.4.1-.1 0-.3.1-.5.1v.9h1zm15-14c0-.3.1-.5.2-.6.1-.1.3-.2.5-.2h.6v2.5h-.5c-.3 0-.4-.1-.6-.2-.1-.1-.2-.4-.2-.7v-.8zm-.2 6.2c0-.1.1-.2.1-.2v-2.1c0-.4.1-.6.2-.8.1-.2.3-.2.6-.2h.4v3.3h1.3V100h-1.9c-.7 0-1.1.2-1.4.5-.3.3-.5.8-.5 1.4v.6c0 .8.3 1.4.8 1.7-.3.1-.5.3-.7.6-.1.3-.2.7-.2 1.1v1.3c0 .4 0 .8-.1 1h1.4zm-4.8 0v-3.5h1.5v3.5h1.3V100h-1.3v3.5H79V100h-1.3v8.2H79zm-5.3 0 1-3.1 1 3.1H77l-1.4-4.2 1.3-4h-1.1l-1 3-1-3h-1.3l1.4 4-1.4 4.2h1.2zm-4.4-1.9c-.1.4-.2.5-.4.6-.2.1-.4.1-.8.1v1.2h.9c.3 0 .5-.1.7-.2.2-.1.3-.2.5-.4s.2-.4.3-.6c.1-.2.1-.5.2-.8l1.4-6.1h-1.3l-.6 2.8-.3 1.9-.4-1.9-.7-2.8h-1.3l1.8 6.2zm-4.9 1.9v-2.5l.4-.8 1.3 3.3h1.3l-1.8-4.6 1.8-3.7h-1.3l-1.7 3.6V100h-1.3v8.2h1.3z" style="clip-path:url(#SVGID_2_);fill:#39373a"/><path d="M108.8 422.7h41v2.9h-41z" class="st3"/><defs><path id="SVGID_3_" d="M19.4 19.9h212.9V426H19.4z"/></defs><clipPath id="SVGID_4_"><use xlink:href="#SVGID_3_" style="overflow:visible"/></clipPath><path d="M108.8 422.7h41v2.9h-41z" style="clip-path:url(#SVGID_4_);fill:none;stroke:#39373a;stroke-width:.6"/><path d="M108.8 413.6h38.5v9.6h-38.5z" class="st3"/><path d="M108.8 413.6h38.5v9.6h-38.5z" class="st2"/><path d="M21.1 422.7h25.1v2.9H21.1z" class="st3"/><defs><path id="SVGID_5_" d="M19.4 19.9h212.9V426H19.4z"/></defs><clipPath id="SVGID_6_"><use xlink:href="#SVGID_5_" style="overflow:visible"/></clipPath><path d="M21.1 422.7h25.1v2.9H21.1z" style="clip-path:url(#SVGID_6_);fill:none;stroke:#39373a;stroke-width:.6"/><path d="M21.1 413.6h22.5v9.6H21.1z" class="st3"/><path d="M21.1 413.6h22.5v9.6H21.1z" class="st2"/><path d="M205.8 422.7h25.1v2.9h-25.1z" class="st3"/><defs><path id="SVGID_7_" d="M19.4 19.9h212.9V426H19.4z"/></defs><clipPath id="SVGID_8_"><use xlink:href="#SVGID_7_" style="overflow:visible"/></clipPath><path d="M205.8 422.7h25.1v2.9h-25.1z" style="clip-path:url(#SVGID_8_);fill:none;stroke:#39373a;stroke-width:.6"/><path d="M208.3 413.6h20.9v9.6h-20.9z" class="st3"/><path d="M208.3 413.6h20.9v9.6h-20.9z" class="st2"/><path d="M102.1 422.7h41v2.9h-41z" class="st3"/><defs><path id="SVGID_9_" d="M19.4 19.9h212.9V426H19.4z"/></defs><clipPath id="SVGID_10_"><use xlink:href="#SVGID_9_" style="overflow:visible"/></clipPath><path d="M102.1 422.7h41v2.9h-41z" style="clip-path:url(#SVGID_10_);fill:none;stroke:#39373a;stroke-width:.6"/><path d="M104.6 413.6h38.5v9.6h-38.5z" class="st3"/><path d="M104.6 413.6h38.5v9.6h-38.5z" class="st2"/><defs><path id="SVGID_11_" d="M19.4 19.9h212.9V426H19.4z"/></defs><clipPath id="SVGID_12_"><use xlink:href="#SVGID_11_" style="overflow:visible"/></clipPath><path d="M137.7 422.7H226v2.9h-88.3zm-106.4 0h88.3v2.9H31.3z" style="clip-path:url(#SVGID_12_);fill:none;stroke:#39373a;stroke-width:.6"/><path d="M140.3 413.6h83.1v9.1h-83.1zm-106.4 0H117v9.1H33.9z" class="st2"/><path d="M22.4 165.6h76.3v4.8H22.4z" class="st3"/><path d="M22.4 165.6h76.3v4.8H22.4z" class="st2"/><path d="M22.4 249.9h76.3v4.8H22.4z" class="st3"/><path d="M22.4 249.9h76.3v4.8H22.4z" class="st2"/><path d="M126.2 249.9h18.2v4.8h-18.2z" class="st3"/><path d="M126.2 249.9h18.2v4.8h-18.2z" class="st2"/><path d="M167.2 249.9h64.7v4.8h-64.7z" class="st3"/><defs><path id="SVGID_13_" d="M19.4 19.9h212.9V426H19.4z"/></defs><clipPath id="SVGID_14_"><use xlink:href="#SVGID_13_" style="overflow:visible"/></clipPath><path d="M167.2 249.9h64.7v4.8h-64.7z" style="clip-path:url(#SVGID_14_);fill:none;stroke:#39373a;stroke-width:.6"/><path d="M126.2 184h103.9v4.8H126.2z" class="st3"/><path d="M126.2 184h103.9v4.8H126.2z" class="st2"/><path d="M123.5 20.2h4.8v193.6h-4.8z" class="st3"/><path d="M123.5 20.2h4.8v193.6h-4.8z" class="st2"/><path d="M19.7 20.2h4.8v405.3h-4.8z" class="st3"/><defs><path id="SVGID_15_" d="M19.4 19.9h212.9V426H19.4z"/></defs><clipPath id="SVGID_16_"><use xlink:href="#SVGID_15_" style="overflow:visible"/></clipPath><path d="M19.7 20.2h4.8v405.3h-4.8z" style="clip-path:url(#SVGID_16_);fill:none;stroke:#39373a;stroke-width:.6"/><path d="M123.5 239h4.8v180.5h-4.8z" class="st3"/><path d="M123.5 239h4.8v180.5h-4.8z" class="st2"/><path d="M227.1 184h4.8v37.4h-4.8z" class="st3"/><defs><path id="SVGID_17_" d="M19.4 19.9h212.9V426H19.4z"/></defs><clipPath id="SVGID_18_"><use xlink:href="#SVGID_17_" style="overflow:visible"/></clipPath><path d="M227.1 184h4.8v37.4h-4.8z" style="clip-path:url(#SVGID_18_);fill:none;stroke:#39373a;stroke-width:.6"/><path d="M227.1 249.8h4.8v175.9h-4.8z" class="st3"/><defs><path id="SVGID_19_" d="M19.4 19.9h212.9V426H19.4z"/></defs><clipPath id="SVGID_20_"><use xlink:href="#SVGID_19_" style="overflow:visible"/></clipPath><path d="M227.1 249.8h4.8v175.9h-4.8z" style="clip-path:url(#SVGID_20_);fill:none;stroke:#39373a;stroke-width:.6"/><path d="M41.2 164.8h16.7V148H41.2v16.8zm17.1.4H40.8v-17.5h17.5v17.5z" class="st3"/><path d="M41.2 164.8h16.7V148H41.2v16.8zm17.1.4H40.8v-17.5h17.5v17.5z" class="st15"/><defs><path id="SVGID_21_" d="M19.4 19.9h212.9V426H19.4z"/></defs><clipPath id="SVGID_22_"><use xlink:href="#SVGID_21_" style="overflow:visible"/></clipPath><path d="M43.7 149.6c-.4 0-.7.3-.7.8v8.8c0 .4.3.8.7.8h11.7c.4 0 .7-.3.7-.8v-8.8c0-.4-.3-.8-.7-.8H43.7zm11.7 10.6H43.7c-.6 0-1.1-.5-1.1-1.1v-8.8c0-.6.5-1.1 1.1-1.1h11.7c.6 0 1.1.5 1.1 1.1v8.8c0 .6-.5 1.1-1.1 1.1" style="clip-path:url(#SVGID_22_);fill:#39373a"/><path d="M43.7 149.6c-.4 0-.7.3-.7.8v8.8c0 .4.3.8.7.8h11.7c.4 0 .7-.3.7-.8v-8.8c0-.4-.3-.8-.7-.8H43.7zm11.7 10.6H43.7c-.6 0-1.1-.5-1.1-1.1v-8.8c0-.6.5-1.1 1.1-1.1h11.7c.6 0 1.1.5 1.1 1.1v8.8c0 .6-.5 1.1-1.1 1.1z" style="clip-path:url(#SVGID_22_);fill:none;stroke:#39373a;stroke-width:.258"/><path d="M44.2 158.6h10.6v-7.7H44.2v7.7zm11 .3H43.8v-8.4h11.4v8.4z" class="st3"/><path d="M44.2 158.6h10.6v-7.7H44.2v7.7zm11 .3H43.8v-8.4h11.4v8.4z" class="st15"/><defs><path id="SVGID_23_" d="M19.4 19.9h212.9V426H19.4z"/></defs><clipPath id="SVGID_24_"><use xlink:href="#SVGID_23_" style="overflow:visible"/></clipPath><path d="M49.5 153.2c-.5 0-1 .4-1 1 0 .5.4 1 1 1s1-.4 1-1c0-.5-.4-1-1-1m0 2.3c-.7 0-1.3-.6-1.3-1.3 0-.7.6-1.3 1.3-1.3s1.3.6 1.3 1.3c.1.7-.5 1.3-1.3 1.3" style="clip-path:url(#SVGID_24_);fill:#39373a"/><path d="M49.5 153.2c-.5 0-1 .4-1 1 0 .5.4 1 1 1s1-.4 1-1c0-.5-.4-1-1-1zm0 2.3c-.7 0-1.3-.6-1.3-1.3 0-.7.6-1.3 1.3-1.3s1.3.6 1.3 1.3c.1.7-.5 1.3-1.3 1.3z" style="clip-path:url(#SVGID_24_);fill:none;stroke:#39373a;stroke-width:.258"/><path d="M231.8 221.2s-3.7 0-8.3 1.6c-3.9 1.4-7.5 4.1-7.5 4.1l14.3 25.7.9-.6-14.3-25.8M98.8 170.1s0-3.7 1.6-8.3c1.4-3.9 4.1-7.5 4.1-7.5l22.6 12.6-.6.9-22.7-12.6m-5 95.3s0 3.7 1.6 8.3c1.4 3.9 4.1 7.5 4.1 7.5l22.6-12.6-.6-.9-22.7 12.6m63.9-14.9s0 3.7-1.6 8.3c-1.4 3.9-4.1 7.5-4.1 7.5l-22.6-12.6.6-.9 22.7 12.6" style="clip-path:url(#SVGID_24_);stroke-width:.52;fill:none;stroke:#39373a"/><path d="M22.4 195.9h64.7v2.8H22.4z" class="st3"/><path d="M22.4 195.9h64.7v2.8H22.4z" class="st2"/><path d="M25.2 170.8h8.6v24.5h-8.6zm1.3 24.4v-24.6" class="st21"/><path d="m26.5 194 6.2-.6v-15.5l-6.2-.6v-1.1l6.3-.6v-3.5l-6.3-.7m7.9-.6H43v24.5h-8.6zm1.4 0v24.6" class="st21"/><path d="m35.8 172 6.2.6v15.5l-6.2.6v1.1l6.2.6v3.5l-6.2.7" class="st21"/><defs><path id="SVGID_25_" d="M19.4 19.9h212.9V426H19.4z"/></defs><clipPath id="SVGID_26_"><use xlink:href="#SVGID_25_" style="overflow:visible"/></clipPath><path d="M66.5 183.4c0-3.1-2.5-5.7-5.7-5.7h-8.2c-.5 0-1 .4-1 1v9.4c0 .5.4 1 1 1h8.2c3.2 0 5.7-2.6 5.7-5.7m-15.2 4.7v-9.4c0-.8.6-1.4 1.4-1.4h8.2c3.3 0 6 2.7 6 6s-2.7 6-6 6h-8.2c-.8.2-1.4-.4-1.4-1.2" class="st22"/><path d="M66.5 183.4c0-3.1-2.5-5.7-5.7-5.7h-8.2c-.5 0-1 .4-1 1v9.4c0 .5.4 1 1 1h8.2c3.2 0 5.7-2.6 5.7-5.7zm-15.2 4.7v-9.4c0-.8.6-1.4 1.4-1.4h8.2c3.3 0 6 2.7 6 6s-2.7 6-6 6h-8.2c-.8.2-1.4-.4-1.4-1.2z" class="st23"/><path d="M54.4 179.4v8.1c0 .1 0 .1.1.1h6.2c2.3 0 4.2-1.9 4.2-4.2 0-2.3-1.9-4.2-4.2-4.2l-6.3.2c.1-.1 0-.1 0 0z" class="st23"/><path d="M54.6 179.5v7.9h6.1c2.2 0 4-1.8 4-4s-1.8-4-4-4h-6.1zm-.4 8v-8.1c0-.2.1-.3.3-.3h6.2c2.4 0 4.3 1.9 4.3 4.3s-2 4.3-4.3 4.3h-6.2c-.1.1-.3-.1-.3-.2" class="st22"/><path d="M54.6 179.5v7.9h6.1c2.2 0 4-1.8 4-4s-1.8-4-4-4h-6.1zm-.4 8v-8.1c0-.2.1-.3.3-.3h6.2c2.4 0 4.3 1.9 4.3 4.3s-2 4.3-4.3 4.3h-6.2c-.1.1-.3-.1-.3-.2z" class="st23"/><path d="M60.7 183.4c0-.6-.5-1.1-1.1-1.1-.6 0-1.1.5-1.1 1.1 0 .6.5 1.1 1.1 1.1.6 0 1.1-.5 1.1-1.1m-2.5 0c0-.8.7-1.5 1.5-1.5s1.5.7 1.5 1.5-.7 1.5-1.5 1.5c-.9 0-1.5-.7-1.5-1.5" class="st22"/><path d="M60.7 183.4c0-.6-.5-1.1-1.1-1.1-.6 0-1.1.5-1.1 1.1 0 .6.5 1.1 1.1 1.1.6 0 1.1-.5 1.1-1.1zm-2.5 0c0-.8.7-1.5 1.5-1.5s1.5.7 1.5 1.5-.7 1.5-1.5 1.5c-.9 0-1.5-.7-1.5-1.5z" class="st23"/><path d="m55.2 180.3.2-.4 2.6 2-.2.3z" class="st3"/><path d="m55.2 180.3.2-.4 2.6 2-.2.3z" class="st24"/><path d="m55.21 186.504 2.561-1.917.24.32-2.562 1.917z" class="st3"/><path stroke-width=".276" d="m55.21 186.504 2.561-1.917.24.32-2.562 1.917z" class="st24"/><defs><path id="SVGID_27_" d="M19.4 19.9h212.9V426H19.4z"/></defs><clipPath id="SVGID_28_"><use xlink:href="#SVGID_27_" style="overflow:visible"/></clipPath><path d="M51.3 179.5c0-.9-.7-1.6-1.6-1.6h-2.1c-.9 0-1.6.7-1.6 1.6v7.8c0 .9.7 1.6 1.6 1.6h2.1c.9 0 1.6-.7 1.6-1.6v-7.8zm-5.7 7.8v-7.8c0-1.1.9-2 2-2h2.1c1.1 0 2 .9 2 2v7.8c0 1.1-.9 2-2 2h-2.1c-1.1 0-2-.9-2-2" class="st25"/><path d="M51.3 179.5c0-.9-.7-1.6-1.6-1.6h-2.1c-.9 0-1.6.7-1.6 1.6v7.8c0 .9.7 1.6 1.6 1.6h2.1c.9 0 1.6-.7 1.6-1.6v-7.8zm-5.7 7.8v-7.8c0-1.1.9-2 2-2h2.1c1.1 0 2 .9 2 2v7.8c0 1.1-.9 2-2 2h-2.1c-1.1 0-2-.9-2-2z" class="st26"/><path d="M49.2 183.4c0-.3-.3-.6-.6-.6s-.6.3-.6.6.3.6.6.6c.4 0 .6-.2.6-.6m-1.6 0c0-.5.4-1 1-1 .5 0 1 .4 1 1 0 .5-.4 1-1 1-.5 0-1-.4-1-1" class="st25"/><path d="M49.2 183.4c0-.3-.3-.6-.6-.6s-.6.3-.6.6.3.6.6.6c.4 0 .6-.2.6-.6zm-1.6 0c0-.5.4-1 1-1 .5 0 1 .4 1 1 0 .5-.4 1-1 1-.5 0-1-.4-1-1z" class="st26"/><path d="M85.2 189.1s1.4.1 5.2-1.2c3.2-1.1 6.2-3.4 6.2-3.4l-9.2-15.8-.8.5 9.2 15.8m-10.6 30.1s1.4-.1 5.2 1.2c3.2 1.1 6.2 3.4 6.2 3.4l-9.2 15.8-.8-.5 9.2-15.8" style="stroke-width:.52;fill:none;stroke:#39373a;clip-path:url(#SVGID_28_)"/><path d="M85.5 232.3h3.1v17.9h-3.1z" class="st3"/><path d="M85.5 232.3h3.1v17.9h-3.1z" class="st2"/><path d="M85.5 189.3h3.1v26.5h-3.1z" class="st3"/><path d="M85.5 189.3h3.1v26.5h-3.1z" class="st2"/><defs><path id="SVGID_29_" d="M19.4 19.9h212.9V426H19.4z"/></defs><clipPath id="SVGID_30_"><use xlink:href="#SVGID_29_" style="overflow:visible"/></clipPath><path d="M53.3 210.8c-2.8 0-5.2-2.3-5.2-5.2v-5.5c0-.4.4-.8.8-.8h11.7c.4 0 .8.4.8.8v5.5c0 2.8-2.3 5.2-5.2 5.2h-2.9zm7.3-11.7H48.9c-.6 0-1.1.5-1.1 1.1v5.5c0 3 2.4 5.5 5.5 5.5h2.9c3 0 5.5-2.4 5.5-5.5v-5.5c0-.6-.5-1.1-1.1-1.1" class="st28"/><path d="M53.3 210.8c-2.8 0-5.2-2.3-5.2-5.2v-5.5c0-.4.4-.8.8-.8h11.7c.4 0 .8.4.8.8v5.5c0 2.8-2.3 5.2-5.2 5.2h-2.9zm7.3-11.7H48.9c-.6 0-1.1.5-1.1 1.1v5.5c0 3 2.4 5.5 5.5 5.5h2.9c3 0 5.5-2.4 5.5-5.5v-5.5c0-.6-.5-1.1-1.1-1.1z" class="st29"/><path d="M53.3 209.5c-2.1 0-3.9-1.7-3.9-3.9v-3.2c0-.4.3-.7.7-.7h9.3c.4 0 .7.3.7.7v3.2c0 2.1-1.7 3.9-3.9 3.9h-2.9zm6.1-8h-9.3c-.5 0-1 .4-1 1v3.2c0 2.3 1.9 4.2 4.2 4.2h2.9c2.3 0 4.2-1.9 4.2-4.2v-3.2c0-.6-.5-1-1-1" class="st28"/><path d="M53.3 209.5c-2.1 0-3.9-1.7-3.9-3.9v-3.2c0-.4.3-.7.7-.7h9.3c.4 0 .7.3.7.7v3.2c0 2.1-1.7 3.9-3.9 3.9h-2.9zm6.1-8h-9.3c-.5 0-1 .4-1 1v3.2c0 2.3 1.9 4.2 4.2 4.2h2.9c2.3 0 4.2-1.9 4.2-4.2v-3.2c0-.6-.5-1-1-1z" class="st29"/><path d="M54.7 206.8c-.4 0-.6-.3-.6-.6 0-.4.3-.6.6-.6.4 0 .6.3.6.6.1.3-.2.6-.6.6m0-1.6c-.5 0-.9.4-.9.9s.4.9.9.9.9-.4.9-.9c.1-.4-.3-.9-.9-.9" class="st28"/><path d="M54.7 206.8c-.4 0-.6-.3-.6-.6 0-.4.3-.6.6-.6.4 0 .6.3.6.6.1.3-.2.6-.6.6zm0-1.6c-.5 0-.9.4-.9.9s.4.9.9.9.9-.4.9-.9c.1-.4-.3-.9-.9-.9z" class="st29"/><circle cx="35.4" cy="209.5" r=".8" class="st30"/><path d="M31.8 247.5c-2.9 0-5.2-2.3-5.2-5.2v-36c0-2.9 2.3-5.2 5.2-5.2H39c2.9 0 5.2 2.3 5.2 5.2v36c0 2.9-2.3 5.2-5.2 5.2h-7.2z" class="st30"/><path d="M33.4 244.3c-2.9 0-5.2-2.3-5.2-5.2v-29.5c0-2.9 2.3-5.2 5.2-5.2h3.9c2.9 0 5.2 2.3 5.2 5.2v29.5c0 2.9-2.3 5.2-5.2 5.2h-3.9z" class="st30"/><path d="M32.4 240.4c-1.4 0-2.6-1.2-2.6-2.6v-29.1c0-1.4 1.2-2.6 2.6-2.6h6c1.4 0 2.6 1.2 2.6 2.6v29.1c0 1.4-1.2 2.6-2.6 2.6h-6z" class="st30"/><path d="M45.8 199.3v50H25.1v-50z" style="fill:none;stroke:#39373a;stroke-width:.554"/><path d="M65.1 199.3h18v18.4h-18zm17.8 18.4-17.7-18.4m-.2 18.4 17.7-18.4" style="stroke-width:.52;fill:none;stroke:#39373a"/><defs><path id="SVGID_31_" d="M19.4 19.9h212.9V426H19.4z"/></defs><clipPath id="SVGID_32_"><use xlink:href="#SVGID_31_" style="overflow:visible"/></clipPath><path d="M79.2 372.6c0-.5.2-.8.7-.8.4 0 .7.3.7.8v4.4c0 .5-.2.8-.7.8-.4 0-.7-.3-.7-.8v-4.4zm-.8 5.8c.3.4.8.5 1.5.5.6 0 1.1-.2 1.4-.5.3-.4.5-.9.5-1.5v-4.3c0-.7-.2-1.2-.5-1.5-.3-.4-.8-.5-1.4-.5-.6 0-1.1.2-1.5.5-.3.4-.5.9-.5 1.5v4.3c0 .7.1 1.2.5 1.5m-1.3-.7h-1.3v1.2h1.3v-1.2zm-4.8-5.1c0-.5.2-.8.7-.8.4 0 .7.3.7.8v1.5c0 .5-.2.8-.7.8-.4 0-.7-.3-.7-.8v-1.5zm-.9 3c.2.3.6.5 1.1.5.6 0 1-.2 1.2-.7v1.5c0 .4-.1.6-.2.8-.1.2-.3.2-.5.2-.4 0-.7-.3-.7-.8v-.3H71v.2c0 .7.2 1.2.5 1.5.3.4.8.5 1.4.5 1.3 0 2-.7 2-2.1v-4.2c0-.7-.2-1.2-.5-1.5-.3-.4-.8-.5-1.5-.5-.6 0-1.1.2-1.5.5-.3.4-.5.9-.5 1.5v1.5c.1.6.2 1 .5 1.4m-3.1-3v6.3h1.3v-8.2h-.9c-.1.1-.1.2-.1.3 0 .1-.1.2-.2.3l-.2.2c-.1.1-.2.1-.4.1-.1 0-.3.1-.5.1v.9h1zm19.7-14c0-.3.1-.5.2-.6.1-.1.3-.2.5-.2h.6v2.5h-.5c-.3 0-.4-.1-.6-.2-.1-.1-.2-.4-.2-.7v-.8zm-.1 6.2c0-.1.1-.2.1-.2v-2.1c0-.4.1-.6.2-.8.1-.2.3-.2.6-.2h.4v3.3h1.3v-8.2h-1.9c-.7 0-1.1.2-1.4.5-.3.3-.5.8-.5 1.4v.6c0 .8.3 1.4.8 1.7-.3.1-.5.3-.7.6-.1.3-.2.7-.2 1.1v1.3c0 .4 0 .8-.1 1h1.4zm-4.8 0v-3.5h1.5v3.5h1.3v-8.2h-1.3v3.5h-1.5v-3.5h-1.3v8.2h1.3zm-4.6-3.9h.6c.2 0 .4.1.5.2.1.1.2.3.2.6v1.2c0 .3-.1.5-.2.6-.1.1-.3.2-.5.2h-.6v-2.8zm.6 3.9c.6 0 1.1-.2 1.4-.5.3-.3.5-.8.5-1.5v-1.1c0-.7-.2-1.2-.5-1.5-.3-.3-.8-.5-1.4-.5h-.6v-3.1h-1.3v8.2h1.9zm-7.3 0c.6 0 1.1-.2 1.4-.5.3-.3.4-.9.5-1.6l.1-5h1.1v7h1.3v-8.2h-3.7l-.1 6.2c0 .2 0 .3-.1.5 0 .1-.1.2-.1.3-.1.1-.1.1-.2.1h-.4v1.2h.2zm-2.7-6.7.6 4.1h-1.2l.6-4.1zm-1 6.7.2-1.5h1.6l.2 1.5h1.3l-1.3-8.2h-2l-1.3 8.2h1.3zm-4.7 0v-7h1.5v7h1.3v-8.2h-4v8.2h1.2zm-5.4-.4c.3.4.8.5 1.4.5s1.1-.2 1.5-.5c.3-.4.5-.9.5-1.5v-1.1h-1.3v1.2c0 .5-.2.8-.7.8-.4 0-.7-.3-.7-.8v-4.4c0-.5.2-.8.7-.8.4 0 .7.3.7.8v.9h1.3v-.8c0-.7-.2-1.2-.5-1.5-.3-.4-.8-.5-1.5-.5s-1.1.2-1.4.5c-.3.4-.5.9-.5 1.5v4.3c0 .5.2 1 .5 1.4m29.9-27.7v7.1h-3l3-7.1zm0 9.7v3.4h2.9v-3.4h1.3v-2.7h-1.3V331h-3.2l-5.4 12.7v2.7h5.7zm-7 .7H78v2.7h2.9v-2.7zm-7.8-13.4-4.3 16.1h2.9l4.3-16.2V331h-8.8v2.7h5.9zm-13.6 8.4c0-1.2.5-1.8 1.5-1.8s1.5.6 1.5 1.8v3.4c0 1.2-.5 1.8-1.5 1.8s-1.5-.6-1.5-1.8v-3.4zm-1.8 6.7c.8.8 1.9 1.2 3.3 1.2s2.5-.4 3.3-1.2c.8-.8 1.2-2 1.2-3.5v-3.4c0-1.4-.3-2.5-.8-3.2-.5-.7-1.4-1.1-2.4-1.1-1.3 0-2.2.6-2.7 1.7v-3.4c0-.9.1-1.5.4-1.8s.7-.5 1.2-.5c1 0 1.5.6 1.5 1.8v.7h2.8v-.5c0-1.5-.4-2.7-1.1-3.5-.7-.8-1.8-1.2-3.3-1.2-3 0-4.5 1.6-4.5 4.9v9.6c0 1.4.4 2.6 1.1 3.4" class="st33"/><path d="M74.1 324.7c9.1 0 16.4-7.4 16.4-16.4 0-9.1-7.4-16.4-16.4-16.4s-16.4 7.4-16.4 16.4c0 9 7.3 16.4 16.4 16.4z" style="clip-path:url(#SVGID_32_);fill:none;stroke:#39373a;stroke-width:1.126"/><path d="M77 315.9v-4.4l.7-1.3 2.2 5.7h2.3L79 308l3.1-6.3h-2.2l-2.9 6.2v-6.2h-2.2v14.2H77zm-3.9 0v-2h-4.2v-.3c0-.3.1-.6.2-1 .2-.3.4-.7.6-1 .3-.3.5-.6.9-1 .3-.3.6-.7.9-1.1l.9-1.2c.3-.4.5-.9.6-1.5.2-.6.2-1.1.2-1.7 0-1.1-.3-2-.8-2.6-.6-.6-1.4-.9-2.5-.9s-1.9.3-2.5.9c-.6.6-.9 1.5-.9 2.6v1.4h2.1V305c0-.9.4-1.4 1.2-1.4.4 0 .7.1.9.4s.3.7.3 1.3c0 .6-.1 1.1-.2 1.6-.2.5-.4.9-.6 1.3-.3.4-.5.7-.9 1.1-.3.3-.6.7-.9 1.1-.3.4-.6.7-.9 1.1-.3.4-.5.8-.6 1.3-.2.5-.2 1-.2 1.6v1.7h6.4zm2.8-125.6c.2.2.5.3.9.3s.7-.1.9-.3c.2-.2.3-.5.3-.9v-.4c0-.5-.2-.9-.5-1 .4-.1.5-.5.5-1v-.1c0-.4-.1-.7-.3-.9-.2-.2-.5-.3-.9-.3s-.7.1-.9.3c-.2.2-.3.5-.3.9v.3h.8v-.3c0-.3.1-.5.4-.5.1 0 .2 0 .3.1.1.1.1.2.1.4v.3c0 .2 0 .3-.1.4-.1.1-.2.1-.3.1h-.3v.7h.3c.2 0 .3 0 .4.1.1.1.1.3.1.5v.4c0 .2 0 .4-.1.4-.1.1-.2.1-.3.1-.3 0-.4-.2-.4-.5v-.4h-.8v.4c-.1.4 0 .7.2.9m-.8-.4h-.8v.7h.8v-.7zm-2.5-3.1v3.8h.8v-4.9h-.5c0 .1-.1.1-.1.2s-.1.1-.1.2-.1.1-.1.1c-.1 0-.1.1-.2.1h-.3v.5h.5zm4.5-5.8c0 .2-.1.3-.2.4-.1.1-.3.1-.5.1v.7h.5c.2 0 .3-.1.4-.1.1-.1.2-.1.3-.3.1-.1.1-.2.2-.4 0-.1.1-.3.1-.5l.8-3.7H78l-.4 1.7-.2 1.1-.2-1.2-.4-1.7H76l1.1 3.9zm-3.1 1.1 1.9-4.9h-.7l-1.9 4.9h.7zm-2.9-.2c.2.2.5.3.9.3s.7-.1.9-.3c.2-.2.3-.5.3-.9v-.7h-.8v.7c0 .3-.1.5-.4.5-.3 0-.4-.2-.4-.5v-2.7c0-.3.1-.5.4-.5.3 0 .4.2.4.5v.5h.8v-.5c0-.4-.1-.7-.3-.9-.2-.2-.5-.3-.9-.3s-.7.1-.9.3-.3.5-.3.9v2.6c0 .5.1.8.3 1m-3 51.6-1.1 4.2h.8l1.1-4.2v-.7h-2.3v.7h1.5zM66 237h-.8v.7h.8v-.7zm-3.2.4c.2.2.5.3.9.3s.7-.1.9-.3c.2-.2.3-.5.3-.9v-.4c0-.5-.2-.9-.5-1 .4-.1.5-.5.5-1v-.1c0-.4-.1-.7-.3-.9s-.5-.3-.9-.3-.7.1-.9.3c-.2.2-.3.5-.3.9v.3h.8v-.3c0-.3.1-.5.4-.5.1 0 .2 0 .3.1.1.1.1.2.1.4v.3c0 .2 0 .3-.1.4-.1.1-.2.1-.3.1h-.3v.7h.3c.2 0 .3 0 .4.1.1.1.1.3.1.5v.4c0 .2 0 .3-.1.4-.1.1-.2.1-.3.1-.3 0-.4-.2-.4-.5v-.5h-.8v.4c-.2.5 0 .8.2 1m9.7-11.9c0-.2 0-.3.1-.4.1-.1.2-.1.3-.1h.4v1.5H73c-.2 0-.3 0-.3-.1-.1-.1-.1-.2-.1-.4v-.5zm-.1 3.7v-1.4c0-.2 0-.4.1-.5.1-.1.2-.1.4-.1h.3v2h.8v-4.9h-1.2c-.4 0-.7.1-.9.3-.2.2-.3.5-.3.9v.4c0 .5.2.8.5 1-.2.1-.3.2-.4.4-.1.2-.1.4-.1.7v.8c0 .3 0 .5-.1.6h.9zm-2.3-4 .4 2.5h-.7l.3-2.5zm-.6 4 .1-.9h.9l.1.9h.8l-.8-4.9h-1.2l-.8 4.9h.9zm-2.8 0v-2.1h.9v2.1h.8v-4.9h-.8v2.1h-.9v-2.1h-.8v4.9h.8zm-3 0v-2.1h.9v2.1h.8v-4.9h-.8v2.1h-.9v-2.1h-.8v4.9h.8zm-2.4-4 .4 2.5H61l.3-2.5zm-.7 4 .1-.9h.9l.1.9h.8l-.8-4.9h-1.2l-.8 4.9h.9zM58 225h.4c.1 0 .2 0 .3.1.1.1.1.2.1.4v.3c0 .2 0 .3-.1.4-.1.1-.2.1-.3.1H58V225zm0 2h.3c.2 0 .3 0 .4.1.1.1.1.2.1.5v.4c0 .2 0 .3-.1.4-.1.1-.2.1-.3.1H58V227zm.4 2.2c.4 0 .7-.1.9-.3.2-.2.3-.5.3-.9v-.4c0-.6-.2-.9-.6-1.1.3-.2.5-.5.5-1v-.2c0-.4-.1-.7-.3-.9-.2-.2-.5-.3-.9-.3h-1.2v4.9h1.3zm58.9 5.1c.3.3.7.4 1.1.4.5 0 .9-.1 1.1-.4.3-.3.4-.7.4-1.2v-.5c0-.7-.2-1.1-.7-1.3.5-.2.7-.6.7-1.3v-.2c0-.5-.1-.9-.4-1.2-.3-.3-.6-.4-1.1-.4-.5 0-.9.1-1.1.4-.3.3-.4.7-.4 1.2v.3h1v-.4c0-.4.2-.6.5-.6.2 0 .3.1.4.2.1.1.1.3.1.6v.4c0 .2-.1.4-.2.5-.1.1-.3.2-.5.2h-.2v.9h.3c.2 0 .4.1.5.2s.2.3.2.6v.5c0 .3 0 .5-.1.6-.1.1-.2.2-.4.2-.3 0-.5-.2-.5-.6v-.6h-1v.5c-.1.3.1.7.3 1m-1-.6h-1v.9h1v-.9zm-4.3.6c.3.3.7.4 1.1.4.5 0 .9-.1 1.1-.4.3-.3.4-.7.4-1.2v-.5c0-.7-.2-1.1-.7-1.3.5-.2.7-.6.7-1.3v-.2c0-.5-.1-.9-.4-1.2-.3-.3-.6-.4-1.1-.4-.5 0-.9.1-1.1.4-.3.3-.4.7-.4 1.2v.3h1v-.4c0-.4.2-.6.5-.6.2 0 .3.1.4.2.1.1.1.3.1.6v.4c0 .2-.1.4-.2.5-.1.1-.3.2-.5.2h-.4v.9h.3c.2 0 .4.1.5.2.1.1.2.3.2.6v.5c0 .3 0 .5-.1.6-.1.1-.2.2-.4.2-.3 0-.5-.2-.5-.6v-.6h-1v.5c.1.3.2.7.5 1m14.8-16.2h.5c.2 0 .3 0 .4.1.1.1.1.2.1.5v1c0 .2 0 .4-.1.5-.1.1-.2.1-.4.1h-.5v-2.2zm0 5.5v-2.4h.5c.5 0 .9-.1 1.1-.4.3-.3.4-.7.4-1.2v-.8c0-.5-.1-.9-.4-1.2-.3-.3-.6-.4-1.1-.4h-1.5v6.4h1zm-3.7-4.9c0-.4.2-.6.5-.6s.5.2.5.6v3.5c0 .4-.2.6-.5.6s-.5-.2-.5-.6v-3.5zm-.6 4.6c.3.3.6.4 1.1.4.5 0 .9-.1 1.1-.4s.4-.7.4-1.2v-3.3c0-.5-.1-.9-.4-1.2s-.6-.4-1.1-.4c-.5 0-.9.1-1.1.4s-.4.7-.4 1.2v3.3c0 .5.1.9.4 1.2m-3.4-.9c0-.1.1-.3.1-.5l.2-3.7h.8v4.6h-1.3c.1-.2.1-.3.2-.4m-.6 2.1v-.8h2.1v.8h1v-1.8h-.4v-5.5h-2.9l-.2 4.7c0 .2 0 .4-.1.5 0 .1-.1.2-.2.3h-.4v1.8h1.1zm-3.6-.9.8-2.9.4-1.6v4.5h1v-6.4h-1.2l-.8 2.6-.4 1.4v-4.1h-.9v6.4h1.1zm-3.5-5.5h.5c.2 0 .3 0 .4.1.1.1.1.2.1.5v1c0 .2 0 .4-.1.5-.1.1-.2.1-.4.1h-.5v-2.2zm0 5.5v-2.4h.5c.5 0 .9-.1 1.1-.4.3-.3.4-.7.4-1.2v-.8c0-.5-.1-.9-.4-1.2-.3-.3-.6-.4-1.1-.4h-1.5v6.4h1zm-3.7-4.9c0-.4.2-.6.5-.6s.5.2.5.6v3.5c0 .4-.2.6-.5.6-.4 0-.5-.2-.5-.6v-3.5zm-.6 4.6c.3.3.6.4 1.1.4.5 0 .9-.1 1.1-.4.3-.3.4-.7.4-1.2v-3.3c0-.5-.1-.9-.4-1.2-.3-.3-.6-.4-1.1-.4-.5 0-.9.1-1.1.4s-.4.7-.4 1.2v3.3c0 .5.1.9.4 1.2m-3.1.3v-2l.3-.6 1 2.5h1l-1.4-3.5 1.4-2.9h-1L104 220v-2.8h-1v6.4h1zM85.4 42c.6 0 1.1-.1 1.4-.4.3-.3.4-.7.4-1.4v-4.6c0-.7-.1-1.1-.4-1.4-.3-.3-.7-.4-1.4-.4H85v1.1h.3c.2 0 .4.1.5.2.1.1.1.3.1.6v4.5c0 .3 0 .5-.1.6-.1.1-.2.2-.5.2H85v1h.4zm-2.3-7-1.9 7h1.3l1.9-7.1v-1.1h-3.9V35h2.6zm-3.3 5.8h-1.3V42h1.3v-1.2zm-4.2-5V42h1.3v-8.2H76c0 .1-.1.2-.1.3 0 .1-.1.2-.2.3l-.2.2c-.1.1-.2.1-.4.1-.1 0-.3.1-.5.1v.9h1zm-4.2 5.8c.3.3.7.4 1.4.4h.4v-1.1h-.3c-.2 0-.4-.1-.5-.2-.1-.1-.1-.3-.1-.6v-4.5c0-.3 0-.5.1-.6.1-.1.2-.2.5-.2h.3v-1.1h-.4c-.6 0-1.1.1-1.4.4s-.4.9-.4 1.5v4.6c0 .7.1 1.1.4 1.4m-4.8-5.3v3.1h-1.3l1.3-3.1zm0 4.2V42h1.3v-1.5h.6v-1.2h-.6v-5.5h-1.4l-2.3 5.5v1.2h2.4zm-3 .3h-1.3V42h1.3v-1.2zm-5.5.8c.3.4.8.5 1.5.5.6 0 1.1-.2 1.4-.5.3-.4.5-.9.5-1.5v-.6c0-.9-.3-1.5-.9-1.7.6-.2.9-.8.9-1.7v-.2c0-.7-.2-1.2-.5-1.5-.3-.4-.8-.5-1.4-.5-.6 0-1.1.2-1.5.5-.3.4-.5.9-.5 1.5v.4h1.3v-.5c0-.5.2-.8.7-.8.2 0 .4.1.5.2.1.1.2.4.2.7v.5c0 .3-.1.5-.2.7-.1.1-.3.2-.6.2H59v1.2h.4c.3 0 .5.1.6.2.1.2.2.4.2.8v.5c0 .3-.1.6-.2.7-.1.1-.3.2-.5.2-.4 0-.7-.3-.7-.8v-.8h-1.3v.7c.1.7.2 1.2.6 1.6" class="st33"/></g></switch></svg>