<svg xmlns="http://www.w3.org/2000/svg" xmlns:xlink="http://www.w3.org/1999/xlink" xml:space="preserve" id="Слой_1" x="0" y="0" style="enable-background:new 0 0 251.6 257.6" version="1.1" viewBox="0 0 251.6 257.6"><style>.st2{fill:#39373a}.st4{stroke-width:.6}.st15,.st4{fill:none;stroke:#39373a}.st15{stroke-width:.699}.st17{fill:none;stroke:#39373a;stroke-width:.258}.st20{clip-path:url(#SVGID_26_);fill:#39373a}.st22,.st24{fill:none;stroke:#39373a}.st22{clip-path:url(#SVGID_26_);stroke-width:.217}.st24{clip-path:url(#SVGID_28_);stroke-width:.545}.st26{fill:#39373a}.st26,.st27{clip-path:url(#SVGID_30_)}.st27,.st28{fill:none;stroke:#39373a;stroke-width:.276}.st29,.st30{clip-path:url(#SVGID_32_);fill:#39373a}.st30{fill:none;stroke:#39373a;stroke-width:.276}</style><switch><g><path d="M0 0h251.6v257.6H0z" style="fill:#fff"/><path d="M24.8 23.1h200.8V182H24.8z" style="fill:#f6ccce"/><path d="M201.5 191.4h31.1v2.9h-31.1z" class="st2"/><defs><path id="SVGID_1_" d="M18.7 17.8H233v221.9H18.7z"/></defs><clipPath id="SVGID_2_"><use xlink:href="#SVGID_1_" style="overflow:visible"/></clipPath><path d="M201.5 191.4h31.1v2.9h-31.1z" style="clip-path:url(#SVGID_2_);fill:none;stroke:#39373a;stroke-width:.6"/><path d="M167.1 191.4h42.6v2.9h-42.6z" class="st4"/><path d="M204.1 182.3h28.6v9.6h-28.6z" class="st2"/><defs><path id="SVGID_3_" d="M18.7 17.8H233v221.9H18.7z"/></defs><clipPath id="SVGID_4_"><use xlink:href="#SVGID_3_" style="overflow:visible"/></clipPath><path d="M204.1 182.3h28.6v9.6h-28.6z" style="clip-path:url(#SVGID_4_);fill:none;stroke:#39373a;stroke-width:.6"/><path d="M118.9 191.4H150v2.9h-31.1z" class="st2"/><path d="M118.9 191.4H150v2.9h-31.1z" class="st4"/><path d="M118.9 182.3h28.6v9.6h-28.6z" class="st2"/><path d="M118.9 182.3h28.6v9.6h-28.6zm50.7 0h40.1v9.1h-40.1z" class="st4"/><defs><path id="SVGID_5_" d="M18.7 17.8H233v221.9H18.7z"/></defs><clipPath id="SVGID_6_"><use xlink:href="#SVGID_5_" style="overflow:visible"/></clipPath><path d="M169.4 191.2s-1-4.2-2.1-7.1c-1.1-2.9-2.4-4.5-2.4-4.5l-19 10.9.6.9 19.1-10.7" style="clip-path:url(#SVGID_6_);fill:none;stroke:#39373a;stroke-width:.52"/><path d="M94.1 191.4h31.1v2.9H94.1z" class="st2"/><path d="M94.1 191.4h31.1v2.9H94.1z" class="st4"/><path d="M68.8 191.4h42.6v2.9H68.8z" class="st4"/><path d="M96.6 182.3h28.6v9.6H96.6z" class="st2"/><path d="M96.6 182.3h28.6v9.6H96.6z" class="st4"/><path d="M20.7 191.4h31.1v2.9H20.7z" class="st2"/><path d="M20.7 191.4h31.1v2.9H20.7z" class="st4"/><path d="M20.7 182.3h28.6v9.6H20.7z" class="st2"/><path d="M20.7 182.3h28.6v9.6H20.7zm50.7 0h40.1v9.1H71.4z" class="st4"/><defs><path id="SVGID_7_" d="M18.7 17.8H233v221.9H18.7z"/></defs><clipPath id="SVGID_8_"><use xlink:href="#SVGID_7_" style="overflow:visible"/></clipPath><path d="M71.2 191.2s-1-4.2-2.1-7.1c-1.1-2.9-2.4-4.5-2.4-4.5l-19 10.9.6.9 19.1-10.7m41.9-160.8s0 3.7-1.6 8.3c-1.4 3.9-4.1 7.5-4.1 7.5l-27.8-16 .6-.9 27.8 16M74.5 72.4s1.4-.1 5.2 1.2c3.2 1.1 6.2 3.4 6.2 3.4l-9.2 15.8-.8-.5 9.2-15.8m38.5-11.1s3.7 0 8.3-1.6c3.9-1.4 7.5-4.1 7.5-4.1l-14.2-24.5-.9.6 14.2 24.5" style="clip-path:url(#SVGID_8_);stroke-width:.52;fill:none;stroke:#39373a"/><path d="M225.9 18.1h6.8v205.7h-6.8z" class="st2"/><defs><path id="SVGID_9_" d="M18.7 17.8H233v221.9H18.7z"/></defs><clipPath id="SVGID_10_"><use xlink:href="#SVGID_9_" style="overflow:visible"/></clipPath><path d="M225.9 18.1h6.8v205.7h-6.8z" style="clip-path:url(#SVGID_10_);fill:none;stroke:#39373a;stroke-width:.6"/><path d="M19 18.1h5.5v221.3H19z" class="st2"/><defs><path id="SVGID_11_" d="M18.7 17.8H233v221.9H18.7z"/></defs><clipPath id="SVGID_12_"><use xlink:href="#SVGID_11_" style="overflow:visible"/></clipPath><path d="M19 18.1h5.5v221.3H19z" style="clip-path:url(#SVGID_12_);fill:none;stroke:#39373a;stroke-width:.6"/><path d="M123.4 18.1h4.7v23.6h-4.7z" class="st2"/><defs><path id="SVGID_13_" d="M18.7 17.8H233v221.9H18.7z"/></defs><clipPath id="SVGID_14_"><use xlink:href="#SVGID_13_" style="overflow:visible"/></clipPath><path d="M123.4 18.1h4.7v23.6h-4.7z" style="clip-path:url(#SVGID_14_);fill:none;stroke:#39373a;stroke-width:.6"/><path d="M123.4 65h4.7v123.3h-4.7z" class="st2"/><path d="M123.4 65h4.7v123.3h-4.7z" class="st4"/><path d="M123.4 213.5h4.7v26h-4.7z" class="st2"/><defs><path id="SVGID_15_" d="M18.7 17.8H233v221.9H18.7z"/></defs><clipPath id="SVGID_16_"><use xlink:href="#SVGID_15_" style="overflow:visible"/></clipPath><path d="M123.4 213.5h4.7v26h-4.7z" style="clip-path:url(#SVGID_16_);fill:none;stroke:#39373a;stroke-width:.6"/><path d="M108.8 18.1h119.8v4.7H108.8z" class="st2"/><defs><path id="SVGID_17_" d="M18.7 17.8H233v221.9H18.7z"/></defs><clipPath id="SVGID_18_"><use xlink:href="#SVGID_17_" style="overflow:visible"/></clipPath><path d="M108.8 18.1h119.8v4.7H108.8z" style="clip-path:url(#SVGID_18_);fill:none;stroke:#39373a;stroke-width:.6"/><path d="M19 18.1h59.6v4.7H19z" class="st2"/><defs><path id="SVGID_19_" d="M18.7 17.8H233v221.9H18.7z"/></defs><clipPath id="SVGID_20_"><use xlink:href="#SVGID_19_" style="overflow:visible"/></clipPath><path d="M19 18.1h59.6v4.7H19z" style="clip-path:url(#SVGID_20_);fill:none;stroke:#39373a;stroke-width:.6"/><path d="M86.6 101.2s-.2 1.6 1.5 6.3c1.4 3.9 4.1 7.5 4.1 7.5l18.9-11-.6-.9-19 11" style="clip-path:url(#SVGID_20_);fill:none;stroke:#39373a;stroke-width:.52"/><path d="M109.7 101.5h16.6v3.2h-16.6z" class="st2"/><path d="M109.7 101.5h16.6v3.2h-16.6z" class="st4"/><path d="M74.8 101.5h12.4v3.2H74.8z" class="st2"/><path d="M74.8 101.5h12.4v3.2H74.8z" class="st4"/><path d="M23.1 108.3h52.7v3.2H23.1z" class="st2"/><path d="M23.1 108.3h52.7v3.2H23.1z" class="st4"/><path d="M74.5 90.7h3.2v20.7h-3.2z" class="st2"/><path d="M74.5 90.7h3.2v20.7h-3.2z" class="st4"/><path d="M74.5 48.2h3.2v24.7h-3.2z" class="st2"/><path d="M74.5 48.2h3.2v24.7h-3.2z" class="st4"/><path d="M22.8 48.2h54.4v3.2H22.8z" class="st2"/><path d="M22.8 48.2h54.4v3.2H22.8zm-2.1 186.3h103v2.9h-103zm107 2.9v-2.9l100.7-14.8v3z" class="st4"/><path d="M114.4 76h8.3v24.9h-8.3zm7 .1V101" class="st15"/><path d="m121.4 77.3-6 .5v15.8l6 .7v1l-6 .7v3.5l6 .8M25.1 23.5h8.3v24.1h-8.3zm7 0v24.2" class="st15"/><path d="m32.1 24.7-6 .5v15.3l6 .6v1.1l-6 .6v3.4l6 .8" class="st15"/><defs><path id="SVGID_21_" d="M18.7 17.8H233v221.9H18.7z"/></defs><clipPath id="SVGID_22_"><use xlink:href="#SVGID_21_" style="overflow:visible"/></clipPath><path d="M55.3 89.2V91h-.8l.8-1.8zm0 2.5v.9h.7v-.9h.4V91H56v-3.3h-.8L53.8 91v.7h1.5zm-1.9.2h-.8v.7h.8v-.7zm-3.3.4c.2.2.5.3.9.3s.7-.1.9-.3c.2-.2.3-.5.3-.9V91c0-.5-.2-.9-.5-1 .4-.1.5-.5.5-1v-.1c0-.4-.1-.7-.3-.9s-.5-.3-.9-.3-.7.1-.9.3c-.2.2-.3.5-.3.9v.3h.8v-.3c0-.3.1-.5.4-.5.1 0 .2 0 .3.1.1.1.1.2.1.4v.3c0 .2 0 .3-.1.4-.1.1-.2.1-.3.1h-.3v.7h.3c.2 0 .3 0 .4.1s.1.3.1.5v.4c0 .2 0 .3-.1.4-.2.1-.3.2-.4.2-.3 0-.4-.2-.4-.5V91h-.8v.4c0 .4.1.7.3.9m5.3-9.3c0 .2-.1.3-.2.4-.1.1-.3.1-.5.1v.7h.5c.2 0 .3-.1.4-.1.1-.1.2-.1.3-.3.1-.1.1-.2.2-.4 0-.1.1-.3.1-.5l.8-3.7h-.8l-.4 1.7-.2 1.1-.2-1.2-.4-1.7h-.8l1.2 3.9zm-3.1 1.2 1.9-4.9h-.7l-1.9 4.9h.7zm-2.9-.3c.2.2.5.3.9.3s.7-.1.9-.3c.2-.2.3-.5.3-.9v-.7h-.8v.7c0 .3-.1.5-.4.5-.3 0-.4-.2-.4-.5v-2.7c0-.3.1-.5.4-.5.3 0 .4.2.4.5v.5h.8v-.5c0-.4-.1-.7-.3-.9s-.5-.3-.9-.3-.7.1-.9.3c-.2.2-.3.5-.3.9V83c0 .4.1.7.3.9" style="clip-path:url(#SVGID_22_);fill:#39373a"/><path d="M25.2 127.6h15.2v-15.4H25.2v15.4zm-.3-15.7h15.8v16H24.9v-16z" class="st2"/><path d="M25.2 127.6h15.2v-15.4H25.2v15.4zm-.3-15.7h15.8v16H24.9v-16z" class="st17"/><defs><path id="SVGID_23_" d="M18.7 17.8H233v221.9H18.7z"/></defs><clipPath id="SVGID_24_"><use xlink:href="#SVGID_23_" style="overflow:visible"/></clipPath><path d="M39 114.5c0-.4-.3-.7-.7-.7h-8c-.4 0-.7.3-.7.7v10.8c0 .4.3.7.7.7h8c.4 0 .7-.3.7-.7v-10.8zm-9.6 10.8v-10.8c0-.6.5-1 1-1h8c.6 0 1 .5 1 1v10.8c0 .6-.5 1-1 1h-8c-.6 0-1-.5-1-1" style="clip-path:url(#SVGID_24_);fill:#39373a"/><path d="M39 114.5c0-.4-.3-.7-.7-.7h-8c-.4 0-.7.3-.7.7v10.8c0 .4.3.7.7.7h8c.4 0 .7-.3.7-.7v-10.8zm-9.6 10.8v-10.8c0-.6.5-1 1-1h8c.6 0 1 .5 1 1v10.8c0 .6-.5 1-1 1h-8c-.6 0-1-.5-1-1z" style="clip-path:url(#SVGID_24_);fill:none;stroke:#39373a;stroke-width:.258"/><path d="M30.9 124.8h7V115h-7v9.8zm-.4-10.1h7.6v10.4h-7.6v-10.4z" class="st2"/><path d="M30.9 124.8h7V115h-7v9.8zm-.4-10.1h7.6v10.4h-7.6v-10.4z" class="st17"/><defs><path id="SVGID_25_" d="M18.7 17.8H233v221.9H18.7z"/></defs><clipPath id="SVGID_26_"><use xlink:href="#SVGID_25_" style="overflow:visible"/></clipPath><path d="M35.7 119.9c0-.5-.4-.9-.9-.9s-.9.4-.9.9.4.9.9.9.9-.4.9-.9m-2.1 0c0-.7.5-1.2 1.2-1.2s1.2.5 1.2 1.2-.5 1.2-1.2 1.2c-.6 0-1.2-.5-1.2-1.2" class="st20"/><path d="M35.7 119.9c0-.5-.4-.9-.9-.9s-.9.4-.9.9.4.9.9.9.9-.4.9-.9zm-2.1 0c0-.7.5-1.2 1.2-1.2s1.2.5 1.2 1.2-.5 1.2-1.2 1.2c-.6 0-1.2-.5-1.2-1.2z" style="clip-path:url(#SVGID_26_);fill:none;stroke:#39373a;stroke-width:.258"/><path d="M36.6 78.7c0-2.8-2.3-5.2-5.2-5.2h-5.5c-.4 0-.8.4-.8.8V86c0 .4.4.8.8.8h5.5c2.8 0 5.2-2.3 5.2-5.2v-2.9zM24.9 86V74.4c0-.6.5-1.1 1.1-1.1h5.5c3 0 5.5 2.4 5.5 5.5v2.9c0 3-2.4 5.5-5.5 5.5H26c-.6-.1-1.1-.6-1.1-1.2" class="st20"/><path d="M36.6 78.7c0-2.8-2.3-5.2-5.2-5.2h-5.5c-.4 0-.8.4-.8.8V86c0 .4.4.8.8.8h5.5c2.8 0 5.2-2.3 5.2-5.2v-2.9zM24.9 86V74.4c0-.6.5-1.1 1.1-1.1h5.5c3 0 5.5 2.4 5.5 5.5v2.9c0 3-2.4 5.5-5.5 5.5H26c-.6-.1-1.1-.6-1.1-1.2z" class="st22"/><path d="M35.3 78.7c0-2.1-1.7-3.9-3.9-3.9h-3.2c-.4 0-.7.3-.7.7v9.3c0 .4.3.7.7.7h3.2c2.1 0 3.9-1.7 3.9-3.9v-2.9zm-8 6.1v-9.3c0-.5.4-1 1-1h3.2c2.3 0 4.2 1.9 4.2 4.2v2.9c0 2.3-1.9 4.2-4.2 4.2h-3.2c-.6 0-1-.4-1-1" class="st20"/><path d="M35.3 78.7c0-2.1-1.7-3.9-3.9-3.9h-3.2c-.4 0-.7.3-.7.7v9.3c0 .4.3.7.7.7h3.2c2.1 0 3.9-1.7 3.9-3.9v-2.9zm-8 6.1v-9.3c0-.5.4-1 1-1h3.2c2.3 0 4.2 1.9 4.2 4.2v2.9c0 2.3-1.9 4.2-4.2 4.2h-3.2c-.6 0-1-.4-1-1z" class="st22"/><path d="M32.6 80.2c0-.4-.3-.6-.6-.6-.4 0-.6.3-.6.6 0 .4.3.6.6.6s.6-.3.6-.6m-1.6 0c0-.5.4-.9.9-.9s.9.4.9.9-.4.9-.9.9-.9-.4-.9-.9" class="st20"/><path d="M32.6 80.2c0-.4-.3-.6-.6-.6-.4 0-.6.3-.6.6 0 .4.3.6.6.6s.6-.3.6-.6zm-1.6 0c0-.5.4-.9.9-.9s.9.4.9.9-.4.9-.9.9-.9-.4-.9-.9z" class="st22"/><path d="M62 89.8h11.9v17.9H62zm.2-.1 11.7 18m.1-18-11.7 18" style="stroke-width:.52;fill:none;stroke:#39373a"/><defs><path id="SVGID_27_" d="M18.7 17.8H233v221.9H18.7z"/></defs><clipPath id="SVGID_28_"><use xlink:href="#SVGID_27_" style="overflow:visible"/></clipPath><path d="M34.3 62.1c0 .4.3.8.8.8.4 0 .8-.3.8-.8 0-.4-.3-.8-.8-.8s-.8.4-.8.8z" class="st24"/><path d="M72.2 58.6c0-2.8-2.3-5.1-5.1-5.1H32c-2.8 0-5.1 2.3-5.1 5.1v7.1c0 2.8 2.3 5.1 5.1 5.1h35c2.8 0 5.1-2.3 5.1-5.1v-7.1z" class="st24"/><path d="M69 60.2c0-2.8-2.3-5.1-5.1-5.1H35.1c-2.8 0-5.1 2.3-5.1 5.1v3.9c0 2.8 2.3 5.1 5.1 5.1h28.8c2.8 0 5.1-2.3 5.1-5.1v-3.9z" class="st24"/><path d="M65.2 59.2c0-1.4-1.2-2.6-2.6-2.6H34.3c-1.4 0-2.6 1.2-2.6 2.6v5.9c0 1.4 1.2 2.6 2.6 2.6h28.4c1.4 0 2.6-1.2 2.6-2.6v-5.9z" class="st24"/><path d="M25 72.3h49V52H25z" style="fill:none;stroke:#39373a;stroke-width:.545"/><defs><path id="SVGID_29_" d="M18.7 17.8H233v221.9H18.7z"/></defs><clipPath id="SVGID_30_"><use xlink:href="#SVGID_29_" style="overflow:visible"/></clipPath><path d="M45.8 96.6c0 3.1-2.5 5.7-5.7 5.7h-8.2c-.5 0-1-.4-1-1v-9.4c0-.5.4-1 1-1h8.2c3.2 0 5.7 2.6 5.7 5.7m-15.2-4.7v9.4c0 .8.6 1.4 1.4 1.4h8.2c3.3 0 6-2.7 6-6s-2.7-6-6-6H32c-.8-.1-1.4.5-1.4 1.2" class="st26"/><path d="M45.8 96.6c0 3.1-2.5 5.7-5.7 5.7h-8.2c-.5 0-1-.4-1-1v-9.4c0-.5.4-1 1-1h8.2c3.2 0 5.7 2.6 5.7 5.7zm-15.2-4.7v9.4c0 .8.6 1.4 1.4 1.4h8.2c3.3 0 6-2.7 6-6s-2.7-6-6-6H32c-.8-.1-1.4.5-1.4 1.2z" class="st27"/><path d="M33.7 100.7v-8.1c0-.1 0-.1.1-.1H40c2.3 0 4.2 1.9 4.2 4.2 0 2.3-1.9 4.2-4.2 4.2l-6.3-.2c0 .1 0 0 0 0z" class="st27"/><path d="M33.9 100.6v-7.9H40c2.2 0 4 1.8 4 4s-1.8 4-4 4h-6.1zm-.4-8.1v8.1c0 .2.1.3.3.3H40c2.4 0 4.3-1.9 4.3-4.3s-2-4.3-4.3-4.3h-6.2c-.2 0-.3.1-.3.2" class="st26"/><path d="M33.9 100.6v-7.9H40c2.2 0 4 1.8 4 4s-1.8 4-4 4h-6.1zm-.4-8.1v8.1c0 .2.1.3.3.3H40c2.4 0 4.3-1.9 4.3-4.3s-2-4.3-4.3-4.3h-6.2c-.2 0-.3.1-.3.2z" class="st27"/><path d="M40 96.6c0 .6-.5 1.1-1.1 1.1-.6 0-1.1-.5-1.1-1.1 0-.6.5-1.1 1.1-1.1.6 0 1.1.5 1.1 1.1m-2.5 0c0 .8.7 1.5 1.5 1.5s1.5-.7 1.5-1.5-.7-1.5-1.5-1.5c-.9 0-1.5.7-1.5 1.5" class="st26"/><path d="M40 96.6c0 .6-.5 1.1-1.1 1.1-.6 0-1.1-.5-1.1-1.1 0-.6.5-1.1 1.1-1.1.6 0 1.1.5 1.1 1.1zm-2.5 0c0 .8.7 1.5 1.5 1.5s1.5-.7 1.5-1.5-.7-1.5-1.5-1.5c-.9 0-1.5.7-1.5 1.5z" class="st27"/><path d="m34.5 99.8.2.3 2.6-2-.2-.3z" class="st2"/><path d="m34.5 99.8.2.3 2.6-2-.2-.3z" class="st28"/><path d="m34.485 93.51.24-.32 2.562 1.917-.24.32z" class="st2"/><path stroke-width=".276" d="m34.485 93.51.24-.32 2.562 1.917-.24.32z" class="st28"/><defs><path id="SVGID_31_" d="M18.7 17.8H233v221.9H18.7z"/></defs><clipPath id="SVGID_32_"><use xlink:href="#SVGID_31_" style="overflow:visible"/></clipPath><path d="M30.6 100.5c0 .9-.7 1.6-1.6 1.6h-2.1c-.9 0-1.6-.7-1.6-1.6v-7.8c0-.9.7-1.6 1.6-1.6H29c.9 0 1.6.7 1.6 1.6v7.8zm-5.7-7.8v7.8c0 1.1.9 2 2 2H29c1.1 0 2-.9 2-2v-7.8c0-1.1-.9-2-2-2h-2.1c-1.1 0-2 .9-2 2" class="st29"/><path d="M30.6 100.5c0 .9-.7 1.6-1.6 1.6h-2.1c-.9 0-1.6-.7-1.6-1.6v-7.8c0-.9.7-1.6 1.6-1.6H29c.9 0 1.6.7 1.6 1.6v7.8zm-5.7-7.8v7.8c0 1.1.9 2 2 2H29c1.1 0 2-.9 2-2v-7.8c0-1.1-.9-2-2-2h-2.1c-1.1 0-2 .9-2 2z" class="st30"/><path d="M28.5 96.6c0 .3-.3.6-.6.6s-.6-.3-.6-.6.3-.6.6-.6c.4 0 .6.3.6.6m-1.6 0c0 .5.4 1 1 1 .5 0 1-.4 1-1 0-.5-.4-1-1-1-.5 0-1 .5-1 1" class="st29"/><path d="M28.5 96.6c0 .3-.3.6-.6.6s-.6-.3-.6-.6.3-.6.6-.6c.4 0 .6.3.6.6zm-1.6 0c0 .5.4 1 1 1 .5 0 1-.4 1-1 0-.5-.4-1-1-1-.5 0-1 .5-1 1z" class="st30"/><path d="M182 138.1c0-.5.2-.8.7-.8.4 0 .7.3.7.8v4.4c0 .5-.2.8-.7.8-.4 0-.7-.3-.7-.8v-4.4zm-.7 5.8c.3.4.8.5 1.5.5s1.1-.2 1.4-.5c.3-.4.5-.9.5-1.5v-4.3c0-.7-.2-1.2-.5-1.5-.3-.4-.8-.5-1.4-.5s-1.1.2-1.5.5c-.3.4-.5.9-.5 1.5v4.3c-.1.7.1 1.2.5 1.5m-1.3-.7h-1.3v1.2h1.3v-1.2zm-4.8-5.1c0-.5.2-.8.7-.8.4 0 .7.3.7.8v1.5c0 .5-.2.8-.7.8-.4 0-.7-.3-.7-.8v-1.5zm-.9 2.9c.2.3.6.5 1.1.5.6 0 1-.2 1.2-.7v1.5c0 .4-.1.6-.2.8-.1.2-.3.2-.5.2-.4 0-.7-.3-.7-.8v-.3H174v.2c0 .7.2 1.2.5 1.5.3.4.8.5 1.4.5 1.3 0 2-.7 2-2.1v-4.2c0-.7-.2-1.2-.5-1.5s-.8-.5-1.5-.5c-.6 0-1.1.2-1.5.5-.3.4-.5.9-.5 1.5v1.5c0 .6.1 1.1.4 1.4m-3.1-2.9v6.3h1.3v-8.2h-.9c-.1.1-.1.2-.1.3 0 .1-.1.2-.2.3l-.2.2c-.1.1-.2.1-.4.1-.1 0-.3.1-.5.1v.9h1zm21.6-14.5.6 4.1h-1.2l.6-4.1zm-1 6.7.2-1.5h1.6l.2 1.5h1.3l-1.3-8.2h-2l-1.3 8.2h1.3zm-4.1-7v7h1.3v-7h1.4v-1.2h-4v1.2h1.3zm-3.8.3.6 4.1h-1.2l.6-4.1zm-1 6.7.2-1.5h1.6l.2 1.5h1.3l-1.3-8.2h-2l-1.3 8.2h1.3zm-4.7 0v-3.5h1.5v3.5h1.3v-8.2h-1.3v3.5h-1.5v-3.5h-1.3v8.2h1.3zm-6.5 0v-5.8l1 5.8h1.2l.9-5.9v5.9h1.3v-8.2h-1.9l-.9 5.8-1-5.8h-1.8v8.2h1.2zm-4.6-6.3c0-.5.2-.8.7-.8.4 0 .7.3.7.8v4.4c0 .5-.2.8-.7.8-.4 0-.7-.3-.7-.8V124zm-.8 5.9c.3.4.8.5 1.5.5.6 0 1.1-.2 1.4-.5.3-.4.5-.9.5-1.5v-4.3c0-.7-.2-1.2-.5-1.5-.3-.4-.8-.5-1.4-.5-.6 0-1.1.2-1.5.5-.3.4-.5.9-.5 1.5v4.3c0 .6.2 1.1.5 1.5m-3.9.4v-2.5l.4-.8 1.3 3.3h1.3l-1.8-4.6 1.8-3.7h-1.3l-1.7 3.6V122h-1.3v8.2h1.3zm-85.9 22.5c0-.3.1-.6.2-.7.1-.1.3-.2.5-.2s.4.1.5.2c.1.1.2.4.2.7v.5c0 .6-.2.9-.7.9-.5 0-.7-.3-.7-.9v-.5zm0 3.5c0-.6.2-.9.7-.9.5 0 .7.3.7.9v.8c0 .3-.1.6-.2.7-.1.1-.3.2-.5.2s-.4-.1-.5-.2c-.1-.1-.2-.4-.2-.7v-.8zm-.8 2.3c.3.4.8.5 1.5.5.6 0 1.1-.2 1.5-.5s.5-.9.5-1.5v-.6c0-.8-.3-1.4-.8-1.7.5-.3.8-.8.8-1.6v-.3c0-.7-.2-1.2-.5-1.5-.3-.4-.8-.5-1.5-.5s-1.1.2-1.5.5c-.3.4-.5.9-.5 1.5v.3c0 .8.3 1.4.8 1.6-.5.3-.8.9-.8 1.7v.6c0 .6.2 1.1.5 1.5m-1.2-.8h-1.3v1.2h1.3v-1.2zm-4.8-5c0-.3.1-.6.2-.7.1-.1.3-.2.5-.2s.4.1.5.2c.1.1.2.4.2.7v.5c0 .6-.2.9-.7.9-.5 0-.7-.3-.7-.9v-.5zm0 3.5c0-.6.2-.9.7-.9.5 0 .7.3.7.9v.8c0 .3-.1.6-.2.7-.1.1-.3.2-.5.2s-.4-.1-.5-.2c-.1-.1-.2-.4-.2-.7v-.8zm-.8 2.3c.3.4.8.5 1.5.5s1.1-.2 1.5-.5.5-.9.5-1.5v-.6c0-.8-.3-1.4-.8-1.7.5-.3.8-.8.8-1.6v-.3c0-.7-.2-1.2-.5-1.5-.3-.4-.8-.5-1.5-.5s-1.1.2-1.5.5c-.3.4-.5.9-.5 1.5v.3c0 .8.3 1.4.8 1.6-.5.3-.8.9-.8 1.7v.6c0 .6.2 1.1.5 1.5M83 138.8c0-.3.1-.5.2-.6.1-.1.3-.2.5-.2h.6v2.5h-.5c-.3 0-.4-.1-.6-.2-.1-.1-.2-.4-.2-.7v-.8zm-.1 6.2c0-.1.1-.2.1-.2v-2.1c0-.4.1-.6.2-.8.1-.2.3-.2.6-.2h.4v3.3h1.3v-8.2h-1.9c-.7 0-1.1.2-1.4.5-.3.3-.5.8-.5 1.4v.6c0 .8.3 1.4.8 1.7-.3.1-.5.3-.7.6-.1.3-.2.7-.2 1.1v1.3c0 .4 0 .8-.1 1h1.4zm-4.8 0v-3.5h1.5v3.5h1.3v-8.2h-1.3v3.5h-1.5v-3.5h-1.3v8.2h1.3zm-5.4 0 1-3.1 1 3.1H76l-1.4-4.2 1.3-4h-1.1l-1 3-1-3h-1.3l1.4 4-1.4 4.2h1.2zm-4.3-1.9c-.1.4-.2.5-.4.6s-.4.1-.8.1v1.2h.9c.3 0 .5-.1.7-.2.2-.1.3-.2.5-.4l.3-.6c.1-.2.1-.5.2-.8l1.4-6.1h-1.3l-.6 2.8-.3 1.9-.4-1.9-.7-2.8h-1.3l1.8 6.2zm-5 1.9v-2.5l.4-.8 1.3 3.3h1.3l-1.8-4.6 1.8-3.7h-1.3l-1.7 3.6v-3.6h-1.3v8.2h1.3zm23.5 73.7c.6 0 1.1-.1 1.4-.4.3-.3.4-.7.4-1.4v-4.6c0-.7-.1-1.1-.4-1.4-.3-.3-.7-.4-1.4-.4h-.4v1.1h.3c.2 0 .4.1.5.2.1.1.1.3.1.6v4.5c0 .3 0 .5-.1.6-.1.1-.2.2-.5.2h-.3v1.1h.4zm-4.3-.4c.3.4.8.5 1.5.5.6 0 1.1-.2 1.4-.5.3-.4.5-.9.5-1.5v-.6c0-.9-.3-1.5-.9-1.7.6-.2.9-.8.9-1.7v-.2c0-.7-.2-1.2-.5-1.5-.3-.4-.8-.5-1.4-.5-.6 0-1.1.2-1.5.5-.3.4-.5.9-.5 1.5v.4h1.3v-.5c0-.5.2-.8.7-.8.2 0 .4.1.5.2.1.1.2.4.2.7v.5c0 .3-.1.5-.2.7-.1.1-.3.2-.6.2h-.5v1.2h.4c.3 0 .5.1.6.2.1.2.2.4.2.8v.6c0 .3-.1.6-.2.7-.1.1-.3.2-.5.2-.4 0-.7-.3-.7-.8v-.9H82v.7c.1.7.2 1.2.6 1.6m-1.3-.8H80v1.2h1.3v-1.2zm-3.8-4.6v3.1h-1.3l1.3-3.1zm0 4.3v1.5h1.3v-1.5h.6V216h-.6v-5.5h-1.4L75 216v1.2h2.5zm-4.6 1.1c.3.3.7.4 1.4.4h.4v-1.1h-.3c-.2 0-.4-.1-.5-.2-.1-.1-.1-.3-.1-.6v-4.5c0-.3 0-.5.1-.6.1-.1.2-.2.5-.2h.3v-1.1h-.4c-.6 0-1.1.1-1.4.4s-.4.7-.4 1.4v4.6c0 .8.1 1.2.4 1.5m-5.8-3c0-.5.2-.8.7-.8.4 0 .7.3.7.8v1.5c0 .5-.2.8-.7.8-.4 0-.7-.3-.7-.8v-1.5zm-.8 3c.3.4.8.5 1.5.5.6 0 1.1-.2 1.4-.5.3-.4.5-.9.5-1.5v-1.5c0-.6-.1-1.1-.4-1.4-.2-.3-.6-.5-1.1-.5-.6 0-1 .2-1.2.7v-1.5c0-.4.1-.6.2-.8.1-.1.3-.2.5-.2.4 0 .7.3.7.8v.3h1.2v-.2c0-.7-.2-1.2-.5-1.5-.3-.4-.8-.5-1.4-.5-1.3 0-2 .7-2 2.1v4.2c.1.6.3 1.1.6 1.5m-1.3-.8h-1.3v1.2H65v-1.2zm-4.8-5c0-.3.1-.6.2-.7.1-.1.3-.2.5-.2s.4.1.5.2c.1.1.2.4.2.7v.5c0 .6-.2.9-.7.9-.5 0-.7-.3-.7-.9v-.5zm0 3.4c0-.6.2-.9.7-.9.5 0 .7.3.7.9v.8c0 .3-.1.6-.2.7-.1.1-.3.2-.5.2s-.4-.1-.5-.2c-.1-.1-.2-.4-.2-.7v-.8zm-.7 2.4c.3.4.8.5 1.5.5s1.1-.2 1.5-.5c.3-.4.5-.9.5-1.5v-.6c0-.8-.3-1.4-.8-1.7.5-.3.8-.8.8-1.6v-.3c0-.7-.2-1.2-.5-1.5-.3-.4-.8-.5-1.5-.5s-1.1.2-1.5.5c-.3.4-.5.9-.5 1.5v.3c0 .8.3 1.4.8 1.6-.5.3-.8.9-.8 1.7v.6c-.1.6.1 1.1.5 1.5m129-117.5c0-1.2.5-1.8 1.5-1.8s1.5.6 1.5 1.8V111c0 1.2-.5 1.9-1.5 1.9s-1.5-.6-1.5-1.9v-10.2zm-1.7 13.5c.8.8 1.9 1.2 3.3 1.2s2.5-.4 3.3-1.2c.8-.8 1.2-2 1.2-3.5V101c0-1.5-.4-2.7-1.2-3.5-.8-.8-1.9-1.2-3.3-1.2s-2.5.4-3.3 1.2c-.8.8-1.2 2-1.2 3.5v9.8c0 1.5.4 2.6 1.2 3.5m-3-1.7h-2.9v2.7h2.9v-2.7zm-9.4-11.6v14.3h2.9V96.5h-2c-.1.3-.2.6-.3.7-.1.2-.2.4-.4.6-.2.2-.4.4-.6.5-.2.1-.5.2-.8.3-.3.1-.7.1-1.2.1v2.1h2.4zm-9.8 1.1v7.1h-3l3-7.1zm0 9.8v3.4h2.9v-3.4h1.3v-2.7h-1.3V96.5h-3.2l-5.4 12.7v2.7h5.7z" class="st29"/><path d="M177 91c9.1 0 16.4-7.4 16.4-16.4S186 58.2 177 58.2c-9.1 0-16.4 7.4-16.4 16.4S167.9 91 177 91z" style="clip-path:url(#SVGID_32_);fill:none;stroke:#39373a;stroke-width:1.126"/><path d="M178.3 82.7v-4.4l.7-1.3 2.2 5.7h2.3l-3.1-7.9 3.1-6.3h-2.2l-2.9 6.2v-6.2h-2.2v14.2h2.1zm-7.2-10.8v10.8h2.2V68.5h-1.5c-.1.2-.2.4-.2.6-.1.1-.2.3-.3.5s-.3.3-.4.4c-.2.1-.4.2-.6.2-.3.1-.6.1-.9.1v1.6h1.7zM105 66.5c.3.3.7.4 1.1.4.5 0 .9-.1 1.1-.4.3-.3.4-.7.4-1.2v-1.4c0-.5-.1-.8-.3-1.1-.2-.2-.5-.4-.8-.4-.4 0-.7.2-.9.5l.1-1.5h1.7v-.9h-2.7l-.2 3.7h1V64c0-.4.2-.6.5-.6s.5.2.5.6v1.4c0 .4-.2.6-.5.6s-.5-.2-.5-.6v-.6h-1v.5c.1.5.2.9.5 1.2m-1.1-.6h-1v.9h1v-.9zm-4.2.6c.3.3.7.4 1.1.4.5 0 .9-.1 1.1-.4.3-.3.4-.7.4-1.2v-1.4c0-.5-.1-.8-.3-1.1-.2-.2-.5-.4-.8-.4-.4 0-.7.2-.9.5l.1-1.5h1.7v-.9h-2.7l-.2 3.7h1V64c0-.4.2-.6.5-.6s.5.2.5.6v1.4c0 .4-.2.6-.5.6s-.5-.2-.5-.6v-.6h-1v.5c.1.5.2.9.5 1.2M116.9 51c0-.2 0-.4.1-.5.1-.1.2-.2.4-.2h.5v2h-.4c-.2 0-.4-.1-.5-.2-.1-.1-.2-.3-.2-.5V51zm-.1 4.8V54c0-.3.1-.5.2-.6.1-.1.3-.2.5-.2h.3v2.6h1v-6.4h-1.5c-.5 0-.9.1-1.1.4-.2.2-.4.6-.4 1.1v.5c0 .7.2 1.1.7 1.3-.2.1-.4.3-.5.5-.1.2-.2.5-.2.9v1c0 .3 0 .6-.1.8h1.1zm-3-5.2.5 3.2h-1l.5-3.2zm-.8 5.2.2-1.2h1.2l.2 1.2h1l-1-6.4H113l-1 6.4h1zm-5.6 0 .9-2.9.2.5v2.4h1v-2.3l.3-.5.9 2.8h1l-1.2-3.8 1.2-2.6h-1l-1.2 2.6v-2.6h-1V52l-1.2-2.6h-1l1.2 2.6-1.2 3.8h1.1zm-3.4-4.9c0-.4.2-.6.5-.6s.5.2.5.6v3.5c0 .4-.2.6-.5.6s-.5-.2-.5-.6v-3.5zm-.6 4.6c.3.3.6.4 1.1.4.5 0 .9-.1 1.1-.4s.4-.7.4-1.2V51c0-.5-.1-.9-.4-1.2s-.6-.4-1.1-.4c-.5 0-.9.1-1.1.4s-.4.7-.4 1.2v3.3c0 .5.1.9.4 1.2m-3.5.3.8-2.4.8 2.4h1l-1.1-3.3 1.1-3.1h-.9l-.8 2.4-.8-2.4h-1l1.1 3.1-1.1 3.3h.9zm-3.6 0 .8-2.9.4-1.6v4.5h1v-6.4h-1.2l-.8 2.6-.4 1.4v-4.1h-.9v6.4h1.1zm-3.5-5.4h.5c.2 0 .3 0 .4.1.1.1.1.2.1.5v1c0 .2 0 .4-.1.5-.1.1-.2.1-.4.1h-.5v-2.2zm0 5.4v-2.4h.5c.5 0 .9-.1 1.1-.4.3-.3.4-.7.4-1.2V51c0-.5-.1-.9-.4-1.2-.3-.3-.6-.4-1.1-.4h-1.5v6.4h1zm-3.9 0v-5.5H90v5.5h1v-6.4h-3.2v6.4h1.1z" class="st29"/></g></switch></svg>