<svg xmlns="http://www.w3.org/2000/svg" xmlns:xlink="http://www.w3.org/1999/xlink" xml:space="preserve" id="Слой_1" x="0" y="0" style="enable-background:new 0 0 251.6 256.7" version="1.1" viewBox="0 0 251.6 256.7"><style>.st2{fill:#39373a}.st4{stroke-width:.6}.st14,.st4{fill:none;stroke:#39373a}.st14{stroke-width:.699}.st16{fill:none;stroke:#39373a;stroke-width:.258}.st19{clip-path:url(#SVGID_24_);fill:#39373a}.st21,.st23{fill:none;stroke:#39373a}.st21{clip-path:url(#SVGID_24_);stroke-width:.217}.st23{clip-path:url(#SVGID_26_);stroke-width:.545}.st25{fill:#39373a}.st25,.st26{clip-path:url(#SVGID_28_)}.st26,.st27{fill:none;stroke:#39373a;stroke-width:.276}.st28,.st29{clip-path:url(#SVGID_30_);fill:#39373a}.st29{fill:none;stroke:#39373a;stroke-width:.276}</style><switch><g><path d="M0 0h251.6v256.7H0z" style="fill:#fff"/><path d="M24.8 22.6h200.8v159.1H24.8z" style="fill:#f6ccce"/><path d="M201.5 191.1h31.1v2.9h-31.1z" class="st2"/><defs><path id="SVGID_1_" d="M18.7 17.5H233v221.9H18.7z"/></defs><clipPath id="SVGID_2_"><use xlink:href="#SVGID_1_" style="overflow:visible"/></clipPath><path d="M201.5 191.1h31.1v2.9h-31.1z" style="clip-path:url(#SVGID_2_);fill:none;stroke:#39373a;stroke-width:.6"/><path d="M167.1 191.1h42.6v2.9h-42.6z" class="st4"/><path d="M204.1 182h28.6v9.6h-28.6z" class="st2"/><defs><path id="SVGID_3_" d="M18.7 17.5H233v221.9H18.7z"/></defs><clipPath id="SVGID_4_"><use xlink:href="#SVGID_3_" style="overflow:visible"/></clipPath><path d="M204.1 182h28.6v9.6h-28.6z" style="clip-path:url(#SVGID_4_);fill:none;stroke:#39373a;stroke-width:.6"/><path d="M118.9 191.1H150v2.9h-31.1z" class="st2"/><path d="M118.9 191.1H150v2.9h-31.1z" class="st4"/><path d="M118.9 182h28.6v9.6h-28.6z" class="st2"/><path d="M118.9 182h28.6v9.6h-28.6zm50.7 0h40.1v9.1h-40.1z" class="st4"/><defs><path id="SVGID_5_" d="M18.7 17.5H233v221.9H18.7z"/></defs><clipPath id="SVGID_6_"><use xlink:href="#SVGID_5_" style="overflow:visible"/></clipPath><path d="M169.4 190.8s-1-4.2-2.1-7.1c-1.1-2.9-2.4-4.5-2.4-4.5l-19 10.9.6.9 19.1-10.7" style="clip-path:url(#SVGID_6_);fill:none;stroke:#39373a;stroke-width:.52"/><path d="M94.1 191.1h31.1v2.9H94.1z" class="st2"/><path d="M94.1 191.1h31.1v2.9H94.1z" class="st4"/><path d="M68.8 191.1h42.6v2.9H68.8z" class="st4"/><path d="M96.6 182h28.6v9.6H96.6z" class="st2"/><path d="M96.6 182h28.6v9.6H96.6z" class="st4"/><path d="M20.7 191.1h31.1v2.9H20.7z" class="st2"/><path d="M20.7 191.1h31.1v2.9H20.7z" class="st4"/><path d="M20.7 182h28.6v9.6H20.7z" class="st2"/><path d="M20.7 182h28.6v9.6H20.7zm50.7 0h40.1v9.1H71.4z" class="st4"/><defs><path id="SVGID_7_" d="M18.7 17.5H233v221.9H18.7z"/></defs><clipPath id="SVGID_8_"><use xlink:href="#SVGID_7_" style="overflow:visible"/></clipPath><path d="M71.2 190.8s-1-4.2-2.1-7.1c-1.1-2.9-2.4-4.5-2.4-4.5l-19 10.9.6.9 19.1-10.7m41.9-160.7s0 3.7-1.6 8.3c-1.4 3.9-4.1 7.5-4.1 7.5l-27.8-16 .6-.9 27.8 16M74.5 72s1.4-.1 5.2 1.2c3.2 1.1 6.2 3.4 6.2 3.4l-9.2 15.8-.8-.4 9.2-15.8m38.5-11.1s3.7 0 8.3-1.6c3.9-1.4 7.5-4.1 7.5-4.1l-14.2-24.5-.9.6L138.5 60" style="clip-path:url(#SVGID_8_);stroke-width:.52;fill:none;stroke:#39373a"/><path d="M225.9 17.8h6.8v205.7h-6.8z" class="st2"/><defs><path id="SVGID_9_" d="M18.7 17.5H233v221.9H18.7z"/></defs><clipPath id="SVGID_10_"><use xlink:href="#SVGID_9_" style="overflow:visible"/></clipPath><path d="M225.9 17.8h6.8v205.7h-6.8z" style="clip-path:url(#SVGID_10_);fill:none;stroke:#39373a;stroke-width:.6"/><path d="M19 17.8h5.5v221.3H19z" class="st2"/><defs><path id="SVGID_11_" d="M18.7 17.5H233v221.9H18.7z"/></defs><clipPath id="SVGID_12_"><use xlink:href="#SVGID_11_" style="overflow:visible"/></clipPath><path d="M19 17.8h5.5v221.3H19z" style="clip-path:url(#SVGID_12_);fill:none;stroke:#39373a;stroke-width:.6"/><path d="M123.4 19.1h4.7v22.3h-4.7z" class="st2"/><path d="M123.4 19.1h4.7v22.3h-4.7z" class="st4"/><path d="M123.4 64.6h4.7v123.3h-4.7z" class="st2"/><path d="M123.4 64.6h4.7v123.3h-4.7z" class="st4"/><path d="M123.4 213.1h4.7v26h-4.7z" class="st2"/><defs><path id="SVGID_13_" d="M18.7 17.5H233v221.9H18.7z"/></defs><clipPath id="SVGID_14_"><use xlink:href="#SVGID_13_" style="overflow:visible"/></clipPath><path d="M123.4 213.1h4.7v26h-4.7z" style="clip-path:url(#SVGID_14_);fill:none;stroke:#39373a;stroke-width:.6"/><path d="M109.1 17.8h119.5v4.7H109.1z" class="st2"/><defs><path id="SVGID_15_" d="M18.7 17.5H233v221.9H18.7z"/></defs><clipPath id="SVGID_16_"><use xlink:href="#SVGID_15_" style="overflow:visible"/></clipPath><path d="M109.1 17.8h119.5v4.7H109.1z" style="clip-path:url(#SVGID_16_);fill:none;stroke:#39373a;stroke-width:.6"/><path d="M19 17.8h59.5v4.7H19z" class="st2"/><defs><path id="SVGID_17_" d="M18.7 17.5H233v221.9H18.7z"/></defs><clipPath id="SVGID_18_"><use xlink:href="#SVGID_17_" style="overflow:visible"/></clipPath><path d="M19 17.8h59.5v4.7H19z" style="clip-path:url(#SVGID_18_);fill:none;stroke:#39373a;stroke-width:.6"/><path d="M86.6 100.9s-.2 1.6 1.5 6.3c1.4 3.9 4.1 7.5 4.1 7.5l18.9-11-.6-.9-19 11" style="clip-path:url(#SVGID_18_);fill:none;stroke:#39373a;stroke-width:.52"/><path d="M109.7 101.2h16.6v3.2h-16.6z" class="st2"/><path d="M109.7 101.2h16.6v3.2h-16.6z" class="st4"/><path d="M74.8 101.2h12.4v3.2H74.8z" class="st2"/><path d="M74.8 101.2h12.4v3.2H74.8z" class="st4"/><path d="M23.1 107.9h52.7v3.2H23.1z" class="st2"/><path d="M23.1 107.9h52.7v3.2H23.1z" class="st4"/><path d="M74.5 90.4h3.2v20.7h-3.2z" class="st2"/><path d="M74.5 90.4h3.2v20.7h-3.2z" class="st4"/><path d="M74.5 47.8h3.2v24.7h-3.2z" class="st2"/><path d="M74.5 47.8h3.2v24.7h-3.2z" class="st4"/><path d="M22.8 47.8h54.4V51H22.8z" class="st2"/><path d="M22.8 47.8h54.4V51H22.8zm-2.1 186.3h103v2.9h-103zm107 3v-3l100.7-14.7v2.9z" class="st4"/><path d="M114.4 75.7h8.3v24.9h-8.3zm7 0v25" class="st14"/><path d="m121.4 76.9-6 .6v15.7l6 .7V95l-6 .7v3.5l6 .7M25.1 23.1h8.3v24.1h-8.3zm7 .1v24.1" class="st14"/><path d="m32.1 24.4-6 .5v15.2l6 .7v1l-6 .7v3.4l6 .7" class="st14"/><defs><path id="SVGID_19_" d="M18.7 17.5H233v221.9H18.7z"/></defs><clipPath id="SVGID_20_"><use xlink:href="#SVGID_19_" style="overflow:visible"/></clipPath><path d="M55.3 86v1.9h-.8l.8-1.9zm0 2.5v.9h.7v-.9h.4v-.7H56v-3.3h-.8l-1.4 3.3v.7h1.5zm-1.9.2h-.8v.7h.8v-.7zm-3.3.5c.2.2.5.3.9.3s.7-.1.9-.3c.2-.2.3-.5.3-.9v-.4c0-.5-.2-.9-.5-1 .4-.1.5-.5.5-1v-.1c0-.4-.1-.7-.3-.9s-.5-.3-.9-.3-.7.1-.9.3c-.2.2-.3.5-.3.9v.2h.8v-.3c0-.3.1-.5.4-.5.1 0 .2 0 .3.1.1.1.1.2.1.4v.3c0 .2 0 .3-.1.4-.1.1-.2.1-.3.1h-.3v.7h.3c.2 0 .3 0 .4.1s.1.3.1.5v.4c0 .2 0 .3-.1.4-.1.1-.2.1-.3.1-.3 0-.4-.2-.4-.5v-.5h-.8v.4c-.1.5 0 .9.2 1.1m5.3-9.3c0 .2-.1.3-.2.4-.1.1-.3.1-.5.1v.6h.5c.2 0 .3-.1.4-.1.1-.1.2-.1.3-.3.1-.1.1-.2.2-.4 0-.1.1-.3.1-.5L57 76h-.8l-.4 1.7-.2 1.1-.2-1.2-.4-1.7h-.8l1.2 4zM52.3 81l1.9-4.9h-.7L51.6 81h.7zm-2.9-.3c.2.2.5.3.9.3s.7-.1.9-.3c.2-.2.3-.5.3-.9v-.7h-.8v.7c0 .3-.1.5-.4.5-.3 0-.4-.2-.4-.5v-2.7c0-.3.1-.5.4-.5.3 0 .4.2.4.5v.5h.8v-.5c0-.4-.1-.7-.3-.9s-.6-.2-.9-.2c-.4 0-.7.1-.9.3-.2.2-.3.5-.3.9v2.6c0 .4.1.7.3.9" style="clip-path:url(#SVGID_20_);fill:#39373a"/><path d="M25.2 127.2h15.2v-15.4H25.2v15.4zm-.3-15.7h15.8v16H24.9v-16z" class="st2"/><path d="M25.2 127.2h15.2v-15.4H25.2v15.4zm-.3-15.7h15.8v16H24.9v-16z" class="st16"/><defs><path id="SVGID_21_" d="M18.7 17.5H233v221.9H18.7z"/></defs><clipPath id="SVGID_22_"><use xlink:href="#SVGID_21_" style="overflow:visible"/></clipPath><path d="M39 114.2c0-.4-.3-.7-.7-.7h-8c-.4 0-.7.3-.7.7V125c0 .4.3.7.7.7h8c.4 0 .7-.3.7-.7v-10.8zm-9.6 10.7v-10.8c0-.6.5-1 1-1h8c.6 0 1 .5 1 1v10.8c0 .6-.5 1-1 1h-8c-.6.1-1-.4-1-1" style="clip-path:url(#SVGID_22_);fill:#39373a"/><path d="M39 114.2c0-.4-.3-.7-.7-.7h-8c-.4 0-.7.3-.7.7V125c0 .4.3.7.7.7h8c.4 0 .7-.3.7-.7v-10.8zm-9.6 10.7v-10.8c0-.6.5-1 1-1h8c.6 0 1 .5 1 1v10.8c0 .6-.5 1-1 1h-8c-.6.1-1-.4-1-1z" style="clip-path:url(#SVGID_22_);fill:none;stroke:#39373a;stroke-width:.258"/><path d="M30.9 124.4h7v-9.7h-7v9.7zm-.4-10.1h7.6v10.4h-7.6v-10.4z" class="st2"/><path d="M30.9 124.4h7v-9.7h-7v9.7zm-.4-10.1h7.6v10.4h-7.6v-10.4z" class="st16"/><defs><path id="SVGID_23_" d="M18.7 17.5H233v221.9H18.7z"/></defs><clipPath id="SVGID_24_"><use xlink:href="#SVGID_23_" style="overflow:visible"/></clipPath><path d="M35.7 119.5c0-.5-.4-.9-.9-.9s-.9.4-.9.9.4.9.9.9.9-.4.9-.9m-2.1 0c0-.7.5-1.2 1.2-1.2s1.2.5 1.2 1.2-.5 1.2-1.2 1.2c-.6.1-1.2-.5-1.2-1.2" class="st19"/><path d="M35.7 119.5c0-.5-.4-.9-.9-.9s-.9.4-.9.9.4.9.9.9.9-.4.9-.9zm-2.1 0c0-.7.5-1.2 1.2-1.2s1.2.5 1.2 1.2-.5 1.2-1.2 1.2c-.6.1-1.2-.5-1.2-1.2z" style="clip-path:url(#SVGID_24_);fill:none;stroke:#39373a;stroke-width:.258"/><path d="M36.6 78.4c0-2.8-2.3-5.2-5.2-5.2h-5.5c-.4 0-.8.4-.8.8v11.7c0 .4.4.8.8.8h5.5c2.8 0 5.2-2.3 5.2-5.2v-2.9zm-11.7 7.3V74c0-.6.5-1.1 1.1-1.1h5.5c3 0 5.5 2.4 5.5 5.5v2.9c0 3-2.4 5.5-5.5 5.5H26c-.6 0-1.1-.5-1.1-1.1" class="st19"/><path d="M36.6 78.4c0-2.8-2.3-5.2-5.2-5.2h-5.5c-.4 0-.8.4-.8.8v11.7c0 .4.4.8.8.8h5.5c2.8 0 5.2-2.3 5.2-5.2v-2.9zm-11.7 7.3V74c0-.6.5-1.1 1.1-1.1h5.5c3 0 5.5 2.4 5.5 5.5v2.9c0 3-2.4 5.5-5.5 5.5H26c-.6 0-1.1-.5-1.1-1.1z" class="st21"/><path d="M35.3 78.4c0-2.1-1.7-3.9-3.9-3.9h-3.2c-.4 0-.7.3-.7.7v9.3c0 .4.3.7.7.7h3.2c2.1 0 3.9-1.7 3.9-3.9v-2.9zm-8 6.1v-9.3c0-.5.4-1 1-1h3.2c2.3 0 4.2 1.9 4.2 4.2v2.9c0 2.3-1.9 4.2-4.2 4.2h-3.2c-.6 0-1-.5-1-1" class="st19"/><path d="M35.3 78.4c0-2.1-1.7-3.9-3.9-3.9h-3.2c-.4 0-.7.3-.7.7v9.3c0 .4.3.7.7.7h3.2c2.1 0 3.9-1.7 3.9-3.9v-2.9zm-8 6.1v-9.3c0-.5.4-1 1-1h3.2c2.3 0 4.2 1.9 4.2 4.2v2.9c0 2.3-1.9 4.2-4.2 4.2h-3.2c-.6 0-1-.5-1-1z" class="st21"/><path d="M32.6 79.8c0-.4-.3-.6-.6-.6-.4 0-.6.3-.6.6 0 .4.3.6.6.6.3.1.6-.2.6-.6m-1.6 0c0-.5.4-.9.9-.9s.9.4.9.9-.4.9-.9.9c-.5.1-.9-.3-.9-.9" class="st19"/><path d="M32.6 79.8c0-.4-.3-.6-.6-.6-.4 0-.6.3-.6.6 0 .4.3.6.6.6.3.1.6-.2.6-.6zm-1.6 0c0-.5.4-.9.9-.9s.9.4.9.9-.4.9-.9.9c-.5.1-.9-.3-.9-.9z" class="st21"/><path d="M62 89.5h11.9v17.9H62zm.2-.1 11.7 17.9m.1-17.9-11.7 17.9" style="stroke-width:.52;fill:none;stroke:#39373a"/><defs><path id="SVGID_25_" d="M18.7 17.5H233v221.9H18.7z"/></defs><clipPath id="SVGID_26_"><use xlink:href="#SVGID_25_" style="overflow:visible"/></clipPath><path d="M34.3 61.8c0 .4.3.8.8.8.4 0 .8-.3.8-.8 0-.4-.3-.8-.8-.8s-.8.3-.8.8z" class="st23"/><path d="M72.2 58.2c0-2.8-2.3-5.1-5.1-5.1H32c-2.8 0-5.1 2.3-5.1 5.1v7.1c0 2.8 2.3 5.1 5.1 5.1h35c2.8 0 5.1-2.3 5.1-5.1v-7.1z" class="st23"/><path d="M69 59.8c0-2.8-2.3-5.1-5.1-5.1H35.1c-2.8 0-5.1 2.3-5.1 5.1v3.9c0 2.8 2.3 5.1 5.1 5.1h28.8c2.8 0 5.1-2.3 5.1-5.1v-3.9z" class="st23"/><path d="M65.2 58.8c0-1.4-1.2-2.6-2.6-2.6H34.3c-1.4 0-2.6 1.2-2.6 2.6v5.9c0 1.4 1.2 2.6 2.6 2.6h28.4c1.4 0 2.6-1.2 2.6-2.6v-5.9z" class="st23"/><path d="M25 71.9h49V51.6H25z" style="fill:none;stroke:#39373a;stroke-width:.545"/><defs><path id="SVGID_27_" d="M18.7 17.5H233v221.9H18.7z"/></defs><clipPath id="SVGID_28_"><use xlink:href="#SVGID_27_" style="overflow:visible"/></clipPath><path d="M45.8 96.3c0 3.1-2.5 5.7-5.7 5.7h-8.2c-.5 0-1-.4-1-1v-9.4c0-.5.4-1 1-1h8.2c3.2 0 5.7 2.5 5.7 5.7m-15.2-4.7v9.4c0 .8.6 1.4 1.4 1.4h8.2c3.3 0 6-2.7 6-6s-2.7-6-6-6H32c-.8-.2-1.4.4-1.4 1.2" class="st25"/><path d="M45.8 96.3c0 3.1-2.5 5.7-5.7 5.7h-8.2c-.5 0-1-.4-1-1v-9.4c0-.5.4-1 1-1h8.2c3.2 0 5.7 2.5 5.7 5.7zm-15.2-4.7v9.4c0 .8.6 1.4 1.4 1.4h8.2c3.3 0 6-2.7 6-6s-2.7-6-6-6H32c-.8-.2-1.4.4-1.4 1.2z" class="st26"/><path d="M33.7 100.3v-8.1c0-.1 0-.1.1-.1H40c2.3 0 4.2 1.9 4.2 4.2 0 2.3-1.9 4.2-4.2 4.2l-6.3-.2c0 .1 0 .1 0 0z" class="st26"/><path d="M33.9 100.2v-7.9H40c2.2 0 4 1.8 4 4s-1.8 4-4 4h-6.1zm-.4-8v8.1c0 .2.1.3.3.3H40c2.4 0 4.3-1.9 4.3-4.3S42.3 92 40 92h-6.2c-.2-.1-.3 0-.3.2" class="st25"/><path d="M33.9 100.2v-7.9H40c2.2 0 4 1.8 4 4s-1.8 4-4 4h-6.1zm-.4-8v8.1c0 .2.1.3.3.3H40c2.4 0 4.3-1.9 4.3-4.3S42.3 92 40 92h-6.2c-.2-.1-.3 0-.3.2z" class="st26"/><path d="M40 96.3c0 .6-.5 1.1-1.1 1.1-.6 0-1.1-.5-1.1-1.1 0-.6.5-1.1 1.1-1.1.6 0 1.1.5 1.1 1.1m-2.5 0c0 .8.7 1.5 1.5 1.5s1.5-.7 1.5-1.5-.7-1.5-1.5-1.5c-.9 0-1.5.6-1.5 1.5" class="st25"/><path d="M40 96.3c0 .6-.5 1.1-1.1 1.1-.6 0-1.1-.5-1.1-1.1 0-.6.5-1.1 1.1-1.1.6 0 1.1.5 1.1 1.1zm-2.5 0c0 .8.7 1.5 1.5 1.5s1.5-.7 1.5-1.5-.7-1.5-1.5-1.5c-.9 0-1.5.6-1.5 1.5z" class="st26"/><path d="m34.5 99.4.2.3 2.6-1.9-.2-.3z" class="st2"/><path d="m34.5 99.4.2.3 2.6-1.9-.2-.3z" class="st27"/><path d="m34.442 93.132.24-.32 2.562 1.916-.24.32z" class="st2"/><path stroke-width=".276" d="m34.442 93.132.24-.32 2.562 1.916-.24.32z" class="st27"/><defs><path id="SVGID_29_" d="M18.7 17.5H233v221.9H18.7z"/></defs><clipPath id="SVGID_30_"><use xlink:href="#SVGID_29_" style="overflow:visible"/></clipPath><path d="M30.6 100.2c0 .9-.7 1.6-1.6 1.6h-2.1c-.9 0-1.6-.7-1.6-1.6v-7.8c0-.9.7-1.6 1.6-1.6H29c.9 0 1.6.7 1.6 1.6v7.8zm-5.7-7.9v7.8c0 1.1.9 2 2 2H29c1.1 0 2-.9 2-2v-7.8c0-1.1-.9-2-2-2h-2.1c-1.1.1-2 1-2 2" class="st28"/><path d="M30.6 100.2c0 .9-.7 1.6-1.6 1.6h-2.1c-.9 0-1.6-.7-1.6-1.6v-7.8c0-.9.7-1.6 1.6-1.6H29c.9 0 1.6.7 1.6 1.6v7.8zm-5.7-7.9v7.8c0 1.1.9 2 2 2H29c1.1 0 2-.9 2-2v-7.8c0-1.1-.9-2-2-2h-2.1c-1.1.1-2 1-2 2z" class="st29"/><path d="M28.5 96.3c0 .3-.3.6-.6.6s-.6-.3-.6-.6.3-.6.6-.6c.4-.1.6.2.6.6m-1.6 0c0 .5.4 1 1 1 .5 0 1-.4 1-1 0-.5-.4-1-1-1-.5 0-1 .4-1 1" class="st28"/><path d="M28.5 96.3c0 .3-.3.6-.6.6s-.6-.3-.6-.6.3-.6.6-.6c.4-.1.6.2.6.6zm-1.6 0c0 .5.4 1 1 1 .5 0 1-.4 1-1 0-.5-.4-1-1-1-.5 0-1 .4-1 1z" class="st29"/><path d="M182 137.7c0-.5.2-.8.7-.8.4 0 .7.3.7.8v4.4c0 .5-.2.8-.7.8-.4 0-.7-.3-.7-.8v-4.4zm-.7 5.9c.3.4.8.5 1.5.5s1.1-.2 1.4-.5c.3-.4.5-.9.5-1.5v-4.3c0-.7-.2-1.2-.5-1.5-.3-.4-.8-.5-1.4-.5s-1.1.2-1.5.5c-.3.4-.5.9-.5 1.5v4.3c-.1.6.1 1.1.5 1.5m-1.3-.8h-1.3v1.2h1.3v-1.2zm-4.8-5.1c0-.5.2-.8.7-.8.4 0 .7.3.7.8v1.5c0 .5-.2.8-.7.8-.4 0-.7-.3-.7-.8v-1.5zm-.9 3c.2.3.6.5 1.1.5.6 0 1-.2 1.2-.7v1.5c0 .4-.1.6-.2.8-.1.2-.3.2-.5.2-.4 0-.7-.3-.7-.8v-.3H174v.2c0 .7.2 1.2.5 1.5.3.4.8.5 1.4.5 1.3 0 2-.7 2-2.1v-4.2c0-.7-.2-1.2-.5-1.5-.3-.4-.8-.5-1.5-.5-.6 0-1.1.2-1.5.5-.3.4-.5.9-.5 1.5v1.5c0 .6.1 1.1.4 1.4m-3.1-2.9v6.3h1.3v-8.2h-.9c-.1.1-.1.2-.1.3 0 .1-.1.2-.2.3l-.2.2c-.1.1-.2.1-.4.1-.1 0-.3.1-.5.1v.9h1zm21.6-14.6.6 4.1h-1.2l.6-4.1zm-1 6.8.2-1.5h1.6l.2 1.5h1.3l-1.3-8.2h-2l-1.3 8.2h1.3zm-4.1-7.1v7h1.3v-7h1.4v-1.2h-4v1.2h1.3zm-3.8.3.6 4.1h-1.2l.6-4.1zm-1 6.8.2-1.5h1.6l.2 1.5h1.3l-1.3-8.2h-2l-1.3 8.2h1.3zm-4.7 0v-3.5h1.5v3.5h1.3v-8.2h-1.3v3.5h-1.5v-3.5h-1.3v8.2h1.3zm-6.5 0v-5.8l1 5.8h1.2l.9-5.9v5.9h1.3v-8.2h-1.9l-.9 5.8-1-5.8h-1.8v8.2h1.2zm-4.6-6.4c0-.5.2-.8.7-.8.4 0 .7.3.7.8v4.4c0 .5-.2.8-.7.8-.4 0-.7-.3-.7-.8v-4.4zm-.8 5.9c.3.4.8.5 1.5.5.6 0 1.1-.2 1.4-.5.3-.4.5-.9.5-1.5v-4.3c0-.7-.2-1.2-.5-1.5-.3-.4-.8-.5-1.4-.5-.6 0-1.1.2-1.5.5-.3.4-.5.9-.5 1.5v4.3c0 .6.2 1.1.5 1.5m-3.9.5v-2.5l.4-.8 1.3 3.3h1.3l-1.8-4.6 1.8-3.7h-1.3l-1.7 3.6v-3.6h-1.3v8.2h1.3zm-85.9 22.5c0-.3.1-.6.2-.7.1-.1.3-.2.5-.2s.4.1.5.2c.1.1.2.4.2.7v.5c0 .6-.2.9-.7.9-.5 0-.7-.3-.7-.9v-.5zm0 3.4c0-.6.2-.9.7-.9.5 0 .7.3.7.9v.8c0 .3-.1.6-.2.7-.1.1-.3.2-.5.2s-.4-.1-.5-.2c-.1-.1-.2-.4-.2-.7v-.8zm-.8 2.3c.3.4.8.5 1.5.5.6 0 1.1-.2 1.5-.5.3-.4.5-.9.5-1.5v-.6c0-.8-.3-1.4-.8-1.7.5-.3.8-.8.8-1.6v-.3c0-.7-.2-1.2-.5-1.5-.3-.4-.8-.5-1.5-.5s-1.1.2-1.5.5c-.3.4-.5.9-.5 1.5v.3c0 .8.3 1.4.8 1.6-.5.3-.8.9-.8 1.7v.6c0 .7.2 1.2.5 1.5m-1.2-.7h-1.3v1.2h1.3v-1.2zm-4.8-5c0-.3.1-.6.2-.7.1-.1.3-.2.5-.2s.4.1.5.2c.1.1.2.4.2.7v.5c0 .6-.2.9-.7.9-.5 0-.7-.3-.7-.9v-.5zm0 3.4c0-.6.2-.9.7-.9.5 0 .7.3.7.9v.8c0 .3-.1.6-.2.7-.1.1-.3.2-.5.2s-.4-.1-.5-.2c-.1-.1-.2-.4-.2-.7v-.8zm-.8 2.3c.3.4.8.5 1.5.5s1.1-.2 1.5-.5c.3-.4.5-.9.5-1.5v-.6c0-.8-.3-1.4-.8-1.7.5-.3.8-.8.8-1.6v-.3c0-.7-.2-1.2-.5-1.5-.3-.4-.8-.5-1.5-.5s-1.1.2-1.5.5c-.3.4-.5.9-.5 1.5v.3c0 .8.3 1.4.8 1.6-.5.3-.8.9-.8 1.7v.6c0 .7.2 1.2.5 1.5M83 138.4c0-.3.1-.5.2-.6.1-.1.3-.2.5-.2h.6v2.5h-.5c-.3 0-.4-.1-.6-.2-.1-.1-.2-.4-.2-.7v-.8zm-.1 6.2c0-.1.1-.2.1-.2v-2.1c0-.4.1-.6.2-.8.1-.2.3-.2.6-.2h.4v3.3h1.3v-8.2h-1.9c-.7 0-1.1.2-1.4.5-.3.3-.5.8-.5 1.4v.6c0 .8.3 1.4.8 1.7-.3.1-.5.3-.7.6-.1.3-.2.7-.2 1.1v1.3c0 .4 0 .8-.1 1h1.4zm-4.8 0v-3.5h1.5v3.5h1.3v-8.2h-1.3v3.5h-1.5v-3.5h-1.3v8.2h1.3zm-5.4 0 1-3.1 1 3.1H76l-1.4-4.2 1.3-4h-1.1l-1 3-1-3h-1.3l1.4 4-1.4 4.2h1.2zm-4.3-1.9c-.1.4-.2.5-.4.6-.2.1-.4.1-.8.1v1.2h.9c.3 0 .5-.1.7-.2.2-.1.3-.2.5-.4l.3-.6c.1-.2.1-.5.2-.8l1.4-6.1h-1.3l-.6 2.8-.3 1.9-.4-1.9-.7-2.8h-1.3l1.8 6.2zm-5 1.9v-2.5l.4-.8 1.3 3.3h1.3l-1.8-4.6 1.8-3.7h-1.3l-1.7 3.6v-3.6h-1.3v8.2h1.3zm23.5 73.7c.6 0 1.1-.1 1.4-.4.3-.3.4-.7.4-1.4v-4.6c0-.7-.1-1.1-.4-1.4-.3-.3-.7-.4-1.4-.4h-.4v1.1h.3c.2 0 .4.1.5.2.1.1.1.3.1.6v4.5c0 .3 0 .5-.1.6-.1.1-.2.2-.5.2h-.3v1.1h.4zm-2.3-7-1.9 7H84l1.9-7.1v-1.1H82v1.2h2.6zm-3.3 5.9H80v1.2h1.3v-1.2zm-3.8-4.6v3.1h-1.3l1.3-3.1zm0 4.3v1.5h1.3v-1.5h.6v-1.2h-.6v-5.5h-1.4l-2.3 5.5v1.2h2.4zm-4.6 1c.3.3.7.4 1.4.4h.4v-1.1h-.3c-.2 0-.4-.1-.5-.2-.1-.1-.1-.3-.1-.6V212c0-.3 0-.5.1-.6.1-.1.2-.2.5-.2h.3v-1.1h-.4c-.6 0-1.1.1-1.4.4-.3.3-.4.7-.4 1.4v4.6c0 .7.1 1.2.4 1.4m-4.8-5.3v3.1h-1.3l1.3-3.1zm0 4.3v1.5h1.3v-1.5h.6v-1.2h-.6v-5.5H68l-2.3 5.5v1.2h2.4zm-3.1.3h-1.3v1.2H65v-1.2zm-4.7-5.2c0-.5.2-.8.7-.8.4 0 .7.3.7.8v1.5c0 .5-.2.8-.7.8-.4 0-.7-.3-.7-.8V212zm-1 3c.2.3.6.5 1.1.5.6 0 1-.2 1.2-.7v1.5c0 .4-.1.6-.2.8-.1.2-.3.2-.5.2-.4 0-.7-.3-.7-.8v-.3H59v.2c0 .7.2 1.2.5 1.5.3.4.8.5 1.4.5 1.3 0 2-.7 2-2.1v-4.2c0-.7-.2-1.2-.5-1.5-.3-.4-.8-.5-1.5-.5s-1.1.2-1.5.5c-.3.4-.5.9-.5 1.5v1.5c.1.6.2 1.1.4 1.4m131.5-113.2v7.1h-3l3-7.1zm0 9.7v3.4h2.9v-3.4h1.3v-2.7h-1.3V96.2h-3.2l-5.4 12.7v2.7h5.7zm-7 .7h-2.9v2.7h2.9v-2.7zm-9.4-11.6v14.3h2.9V96.2h-2c-.1.3-.2.6-.3.7-.1.2-.2.4-.4.6-.2.2-.4.4-.6.5-.2.1-.5.2-.8.3-.3.1-.7.1-1.2.1v2.1h2.4zm-9.8 1.2v7.1h-3l3-7.1zm0 9.7v3.4h2.9v-3.4h1.3v-2.7h-1.3V96.2h-3.2l-5.4 12.7v2.7h5.7z" class="st28"/><path d="M177 90.7c9.1 0 16.4-7.4 16.4-16.4S186 57.8 177 57.8c-9.1 0-16.4 7.4-16.4 16.4s7.3 16.5 16.4 16.5z" style="clip-path:url(#SVGID_30_);fill:none;stroke:#39373a;stroke-width:1.126"/><path d="M179.2 82.4V78l.7-1.3 2.2 5.7h2.3l-3.1-7.9 3.1-6.3h-2.2l-2.9 6.2v-6.2H177v14.2h2.2zm-7.1-10.9v10.8h2.2V68.2h-1.5c-.1.2-.2.4-.2.6-.1.1-.2.3-.3.5s-.3.3-.4.4c-.2.1-.4.2-.6.2-.3.1-.6.1-.9.1v1.6h1.7zM105 66.1c.3.3.7.4 1.1.4.5 0 .9-.1 1.1-.4.3-.3.4-.7.4-1.2v-1.4c0-.5-.1-.8-.3-1.1-.2-.2-.5-.4-.8-.4-.4 0-.7.2-.9.5l.1-1.5h1.7v-.9h-2.7l-.2 3.7h1v-.2c0-.4.2-.6.5-.6s.5.2.5.6V65c0 .4-.2.6-.5.6s-.5-.2-.5-.6v-.6h-1v.5c.1.5.2.9.5 1.2m-1.1-.6h-1v.9h1v-.9zm-4.2.6c.3.3.7.4 1.1.4.5 0 .9-.1 1.1-.4.3-.3.4-.7.4-1.2v-1.4c0-.5-.1-.8-.3-1.1-.2-.2-.5-.4-.8-.4-.4 0-.7.2-.9.5l.1-1.5h1.7v-.9h-2.7l-.2 3.7h1v-.2c0-.4.2-.6.5-.6s.5.2.5.6V65c0 .4-.2.6-.5.6s-.5-.2-.5-.6v-.6h-1v.5c.1.5.2.9.5 1.2m17.2-15.4c0-.2 0-.4.1-.5.1-.1.2-.2.4-.2h.5v2h-.4c-.2 0-.4-.1-.5-.2-.1-.1-.2-.3-.2-.5v-.6zm-.1 4.8v-1.8c0-.3.1-.5.2-.6.1-.1.3-.2.5-.2h.3v2.6h1v-6.4h-1.5c-.5 0-.9.1-1.1.4-.2.2-.4.6-.4 1.1v.5c0 .7.2 1.1.7 1.3-.2.1-.4.3-.5.5-.1.2-.2.5-.2.9v1c0 .3 0 .6-.1.8h1.1zm-3-5.3.5 3.2h-1l.5-3.2zm-.8 5.3.2-1.2h1.2l.2 1.2h1l-1-6.4H113l-1 6.4h1zm-5.6 0 .9-2.9.2.5v2.4h1v-2.3l.3-.5.9 2.8h1l-1.2-3.8 1.2-2.6h-1l-1.2 2.6v-2.6h-1v2.6l-1.2-2.6h-1l1.2 2.6-1.2 3.8h1.1zm-3.4-4.9c0-.4.2-.6.5-.6s.5.2.5.6V54c0 .4-.2.6-.5.6s-.5-.2-.5-.6v-3.4zm-.6 4.5c.3.3.6.4 1.1.4.5 0 .9-.1 1.1-.4s.4-.7.4-1.2v-3.3c0-.5-.1-.9-.4-1.2s-.6-.4-1.1-.4c-.5 0-.9.1-1.1.4s-.4.7-.4 1.2V54c0 .5.1.9.4 1.1m-3.5.4.8-2.4.8 2.4h1l-1.1-3.3 1.1-3.1h-.9l-.8 2.4-.8-2.4h-1l1.1 3.1-1.1 3.3h.9zm-3.6 0 .8-2.9.4-1.6v4.5h1v-6.4h-1.2l-.8 2.6-.4 1.4V49h-.9v6.4h1.1zM92.8 50h.5c.2 0 .3 0 .4.1.1.1.1.2.1.5v1c0 .2 0 .4-.1.5-.1.1-.2.1-.4.1h-.5V50zm0 5.5v-2.4h.5c.5 0 .9-.1 1.1-.4.3-.3.4-.7.4-1.2v-.8c0-.5-.1-.9-.4-1.2-.3-.3-.6-.4-1.1-.4h-1.5v6.4h1zm-3.9 0V50H90v5.5h1v-6.4h-3.2v6.4h1.1z" class="st28"/></g></switch></svg>