<svg xmlns="http://www.w3.org/2000/svg" xml:space="preserve" id="Слой_1" x="0" y="0" style="enable-background:new 0 0 1000 1000" version="1.1" viewBox="0 0 1000 1000"><style>.st0{fill:#fff}.st2{fill:#373437}.st3{stroke-width:.6}.st3,.st4,.st5,.st7,.st8{fill:none;stroke:#373437}.st5{stroke-width:.244}.st7{stroke-width:.605}.st8{stroke-width:.403}</style><path d="M552.4 265.8h72.5v22.7h-72.5z" class="st0"/><path d="M194.5 287.4h601.2v410.8H194.5z" style="fill:#f3dfec"/><path d="M539.2 275.9h18.4v30.5h-18.4z" class="st2"/><path d="M539.2 275.9h18.4v30.5h-18.4z" class="st3"/><path d="M545.9 288.3h100.8v18.1H545.9z" class="st2"/><path d="M545.9 288.3h100.8v18.1H545.9z" class="st3"/><path d="M626.7 283.9h20.1V302h-20.1z" class="st2"/><path d="M626.7 283.9h20.1V302h-20.1z" class="st3"/><path d="M626.7 265.6h47.4v20.9h-47.4z" class="st2"/><path d="M626.7 265.6h47.4v20.9h-47.4z" class="st3"/><path d="M742.4 265.6h75v20.9h-75z" class="st2"/><path d="M669.4 699.1h148v47h-148z" class="st3"/><path d="M669.4 718.2h148v6.8h-148zM264 699.1h211.4v47H264z" class="st3"/><path d="M264 718.2h211.4v6.8H264z" class="st3"/><path d="M727.2 699.1h90.2v47h-90.2z" class="st2"/><path d="M796.5 274.2h20.9v434.7h-20.9z" class="st2"/><path d="M796.5 274.2h20.9v434.7h-20.9z" class="st3"/><path d="M440.2 699.1H608v47H440.2z" class="st2"/><path d="M440.2 699.1H608v47H440.2z" class="st3"/><path d="M182.6 699.1h106.5v47H182.6zm470.8-305.7h164v10h-164z" class="st2"/><path d="M653.4 393.4h156.9v10H653.4z" class="st3"/><path d="M540.9 393.4h53.3v10h-53.3z" class="st2"/><path d="M540.9 393.4h53.3v10h-53.3z" class="st3"/><path d="M557.1 403.5H578v84.3h-20.9z" class="st2"/><path d="M557.1 403.5H578v84.3h-20.9z" class="st3"/><path d="M557.1 437h9.5v268.5h-9.5z" class="st2"/><path d="M557.1 437h9.5v268.5h-9.5z" class="st3"/><path d="M321.5 393.4h161v10h-161z" class="st2"/><path d="M321.5 393.4h161v10h-161z" class="st3"/><path d="M415.5 380h10v18.1h-10z" class="st2"/><path d="M415.5 380h10v18.1h-10z" class="st3"/><path d="M415.5 279.4h10v53.3h-10z" class="st2"/><path d="M415.5 279.4h10v53.3h-10z" class="st3"/><path d="M182.6 274.2h20.5v448.1h-20.5z" class="st2"/><path d="M182.6 274.2h20.5v448.1h-20.5z" class="st4"/><path d="M182.6 425.3h218.6v10H182.6z" class="st2"/><path d="M182.6 425.3h218.6v10H182.6z" class="st3"/><path d="M182.6 265.8h375.1v20.7H182.6z" class="st2"/><path d="M182.6 265.8h375.1v20.7H182.6z" class="st3"/><path d="M321.5 394h138.1v41.2H321.5z" class="st2"/><path d="M321.5 394h138.1v41.2H321.5z" class="st3"/><path d="M361.2 404.2h9v20.2h-9zm-32.6 0h22.6v20.2h-22.6zm51.7 0h9v20.2h-9zm22.8 0h46v20.2h-46z" class="st0"/><path d="M758.3 744.2h12.6v85.7h-12.6z" class="st2"/><path d="M758.3 744.2h12.6v85.7h-12.6z" class="st3"/><path d="M720.4 818.8h50.3v11h-50.3z" class="st2"/><path d="M720.4 818.8h50.3v11h-50.3z" class="st3"/><path d="M722.2 818.8H512.5V717.6h-11v112.2h220.7z" class="st3"/><path d="M577 276.1h10.8v18.3H577z" class="st2"/><path d="M577 276.1h10.8v18.3H577zm-22.2 0h90.4m-90.4-10.3h90.4" class="st3"/><path d="M362.8 348.3c-8.2 0-14.8-6.6-14.8-14.8v-21.4c0-1.4 1.1-2.6 2.6-2.6h24.5c1.4 0 2.6 1.1 2.6 2.6v21.4c0 8.2-6.7 14.8-14.9 14.8m12.3-39.8h-24.5c-2 0-3.6 1.6-3.6 3.6v21.4c0 8.7 7.1 15.8 15.8 15.8 8.7 0 15.8-7.1 15.8-15.8v-21.4c.1-2-1.5-3.6-3.5-3.6" class="st2"/><path d="M362.8 348.3c-8.2 0-14.8-6.6-14.8-14.8v-21.4c0-1.4 1.1-2.6 2.6-2.6h24.5c1.4 0 2.6 1.1 2.6 2.6v21.4c0 8.2-6.7 14.8-14.9 14.8zm12.3-39.8h-24.5c-2 0-3.6 1.6-3.6 3.6v21.4c0 8.7 7.1 15.8 15.8 15.8 8.7 0 15.8-7.1 15.8-15.8v-21.4c.1-2-1.5-3.6-3.5-3.6z" class="st5"/><path d="M352.2 316.7h21.2c.1 0 .3.1.3.3v16.2c0 6-4.9 10.9-10.9 10.9s-10.9-4.9-10.9-10.9V317c.1-.2.2-.3.3-.3z" class="st5"/><path d="M352.5 317.2h20.7v15.9c0 5.7-4.6 10.4-10.4 10.4-5.7 0-10.4-4.6-10.4-10.4v-15.9zm21-1.1h-21.2c-.4 0-.8.3-.8.8v16.2c0 6.3 5.1 11.4 11.4 11.4 6.3 0 11.4-5.1 11.4-11.4v-16.2c-.1-.4-.4-.8-.8-.8" class="st2"/><path d="M352.5 317.2h20.7v15.9c0 5.7-4.6 10.4-10.4 10.4-5.7 0-10.4-4.6-10.4-10.4v-15.9zm21-1.1h-21.2c-.4 0-.8.3-.8.8v16.2c0 6.3 5.1 11.4 11.4 11.4 6.3 0 11.4-5.1 11.4-11.4v-16.2c-.1-.4-.4-.8-.8-.8z" class="st5"/><path d="M362.8 333.1c-1.5 0-2.8-1.3-2.8-2.8 0-1.5 1.3-2.8 2.8-2.8 1.5 0 2.8 1.3 2.8 2.8 0 1.5-1.2 2.8-2.8 2.8m0-6.6c-2.1 0-3.8 1.7-3.8 3.8s1.7 3.8 3.8 3.8c2.1 0 3.8-1.7 3.8-3.8s-1.6-3.8-3.8-3.8" class="st2"/><path d="M362.8 333.1c-1.5 0-2.8-1.3-2.8-2.8 0-1.5 1.3-2.8 2.8-2.8 1.5 0 2.8 1.3 2.8 2.8 0 1.5-1.2 2.8-2.8 2.8zm0-6.6c-2.1 0-3.8 1.7-3.8 3.8s1.7 3.8 3.8 3.8c2.1 0 3.8-1.7 3.8-3.8s-1.6-3.8-3.8-3.8z" class="st5"/><path d="m354.6 318.7-.8.6 5 6.8.9-.6z" class="st2"/><path d="m354.6 318.7-.8.6 5 6.8.9-.6z" class="st5"/><path d="m371 318.7-5.1 6.8.8.6 5.1-6.8z" class="st2"/><path d="m371 318.7-5.1 6.8.8.6 5.1-6.8z" class="st5"/><path d="M352.6 308.4c-2.3 0-4.1-1.8-4.1-4.1v-5.6c0-2.3 1.8-4.1 4.1-4.1H373c2.3 0 4.1 1.8 4.1 4.1v5.6c0 2.3-1.8 4.1-4.1 4.1h-20.4zm20.5-14.8h-20.4c-2.8 0-5.1 2.3-5.1 5.1v5.6c0 2.8 2.3 5.1 5.1 5.1h20.4c2.8 0 5.1-2.3 5.1-5.1v-5.6c0-2.8-2.3-5.1-5.1-5.1" class="st2"/><path d="M352.6 308.4c-2.3 0-4.1-1.8-4.1-4.1v-5.6c0-2.3 1.8-4.1 4.1-4.1H373c2.3 0 4.1 1.8 4.1 4.1v5.6c0 2.3-1.8 4.1-4.1 4.1h-20.4zm20.5-14.8h-20.4c-2.8 0-5.1 2.3-5.1 5.1v5.6c0 2.8 2.3 5.1 5.1 5.1h20.4c2.8 0 5.1-2.3 5.1-5.1v-5.6c0-2.8-2.3-5.1-5.1-5.1z" class="st5"/><path d="M362.8 303.1c-.9 0-1.6-.7-1.6-1.6 0-.9.7-1.6 1.6-1.6s1.6.7 1.6 1.6c0 .9-.7 1.6-1.6 1.6m0-4.2c-1.4 0-2.6 1.2-2.6 2.6s1.2 2.6 2.6 2.6c1.4 0 2.6-1.2 2.6-2.6s-1.1-2.6-2.6-2.6" class="st2"/><path d="M362.8 303.1c-.9 0-1.6-.7-1.6-1.6 0-.9.7-1.6 1.6-1.6s1.6.7 1.6 1.6c0 .9-.7 1.6-1.6 1.6zm0-4.2c-1.4 0-2.6 1.2-2.6 2.6s1.2 2.6 2.6 2.6c1.4 0 2.6-1.2 2.6-2.6s-1.1-2.6-2.6-2.6z" class="st5"/><path d="M221.5 416.1c-9.2 0-16.7-7.5-16.7-16.7v-92.3c0-9.2 7.5-16.7 16.7-16.7h19.2c9.2 0 16.7 7.5 16.7 16.7v92.3c0 9.2-7.5 16.7-16.7 16.7h-19.2z" class="st4"/><path d="M226.4 407.3c-9.2 0-16.7-7.5-16.7-16.7v-74.8c0-9.2 7.5-16.7 16.7-16.7h9.4c9.2 0 16.7 7.5 16.7 16.7v74.8c0 9.2-7.5 16.7-16.7 16.7h-9.4z" class="st4"/><path d="M222.8 396.8c-4.6 0-8.3-3.7-8.3-8.3v-76.1c0-4.6 3.7-8.3 8.3-8.3h16.6c4.6 0 8.3 3.7 8.3 8.3v76.1c0 4.6-3.7 8.3-8.3 8.3h-16.6z" class="st4"/><path d="M231.1 313.4c1.3 0 2.3 1 2.3 2.3 0 1.3-1 2.3-2.3 2.3-1.3 0-2.3-1-2.3-2.3 0-1.2 1-2.3 2.3-2.3z" style="fill:none;stroke:#373437;stroke-width:.595"/><path d="M260.3 424.4V285.1" class="st4"/><path d="M293.1 320.2c8.6 0 15.7-7 15.7-15.7v-16.6c0-1.3-1.1-2.4-2.4-2.4h-35.5c-1.3 0-2.4 1.1-2.4 2.4v16.6c0 8.7 7 15.7 15.7 15.7h8.9zm-22.2-35.6h35.5c1.8 0 3.3 1.5 3.3 3.3v16.6c0 9.1-7.4 16.6-16.6 16.6h-8.9c-9.1 0-16.6-7.4-16.6-16.6v-16.6c.1-1.8 1.5-3.3 3.3-3.3" class="st2"/><path d="M293.1 320.2c8.6 0 15.7-7 15.7-15.7v-16.6c0-1.3-1.1-2.4-2.4-2.4h-35.5c-1.3 0-2.4 1.1-2.4 2.4v16.6c0 8.7 7 15.7 15.7 15.7h8.9zm-22.2-35.6h35.5c1.8 0 3.3 1.5 3.3 3.3v16.6c0 9.1-7.4 16.6-16.6 16.6h-8.9c-9.1 0-16.6-7.4-16.6-16.6v-16.6c.1-1.8 1.5-3.3 3.3-3.3z" class="st5"/><path d="M293.1 316.3c6.5 0 11.8-5.3 11.8-11.8v-9.7c0-1.1-.9-2.1-2-2.1h-28.3c-1.1 0-2.1.9-2.1 2.1v9.7c0 6.5 5.3 11.8 11.8 11.8h8.8zm-18.6-24.4h28.3c1.6 0 2.9 1.3 2.9 2.9v9.7c0 7-5.7 12.6-12.6 12.6h-8.9c-7 0-12.6-5.7-12.6-12.6v-9.7c0-1.6 1.3-2.9 2.9-2.9" class="st2"/><path d="M293.1 316.3c6.5 0 11.8-5.3 11.8-11.8v-9.7c0-1.1-.9-2.1-2-2.1h-28.3c-1.1 0-2.1.9-2.1 2.1v9.7c0 6.5 5.3 11.8 11.8 11.8h8.8zm-18.6-24.4h28.3c1.6 0 2.9 1.3 2.9 2.9v9.7c0 7-5.7 12.6-12.6 12.6h-8.9c-7 0-12.6-5.7-12.6-12.6v-9.7c0-1.6 1.3-2.9 2.9-2.9z" class="st5"/><path d="M288.7 308.1c1.1 0 1.9-.9 1.9-1.9s-.9-1.9-1.9-1.9c-1.1 0-1.9.9-1.9 1.9s.8 1.9 1.9 1.9m0-4.8c1.6 0 2.8 1.3 2.8 2.8 0 1.6-1.3 2.8-2.8 2.8-1.6 0-2.8-1.3-2.8-2.8-.1-1.6 1.2-2.8 2.8-2.8" class="st2"/><path d="M288.7 308.1c1.1 0 1.9-.9 1.9-1.9s-.9-1.9-1.9-1.9c-1.1 0-1.9.9-1.9 1.9s.8 1.9 1.9 1.9zm0-4.8c1.6 0 2.8 1.3 2.8 2.8 0 1.6-1.3 2.8-2.8 2.8-1.6 0-2.8-1.3-2.8-2.8-.1-1.6 1.2-2.8 2.8-2.8z" class="st5"/><path d="M268.2 376.4h47v47h-47z" class="st4"/><path d="M205.8 437.6h47v47h-47v-47zm48.1-1.1h-49.1v49.1h49.1v-49.1z" class="st2"/><path d="M205.8 437.6h47v47h-47v-47zm48.1-1.1h-49.1v49.1h49.1v-49.1z" class="st5"/><path d="M212.9 480.3c-1.2 0-2.1-.9-2.1-2.1v-24.7c0-1.2.9-2.1 2.1-2.1h32.9c1.2 0 2.1.9 2.1 2.1v24.7c0 1.2-.9 2.1-2.1 2.1h-32.9zm32.9-30h-32.9c-1.7 0-3.1 1.4-3.1 3.1v24.7c0 1.7 1.4 3.1 3.1 3.1h32.9c1.7 0 3.1-1.4 3.1-3.1v-24.7c0-1.7-1.4-3.1-3.1-3.1" class="st2"/><path d="M212.9 480.3c-1.2 0-2.1-.9-2.1-2.1v-24.7c0-1.2.9-2.1 2.1-2.1h32.9c1.2 0 2.1.9 2.1 2.1v24.7c0 1.2-.9 2.1-2.1 2.1h-32.9zm32.9-30h-32.9c-1.7 0-3.1 1.4-3.1 3.1v24.7c0 1.7 1.4 3.1 3.1 3.1h32.9c1.7 0 3.1-1.4 3.1-3.1v-24.7c0-1.7-1.4-3.1-3.1-3.1z" class="st5"/><path d="M214.4 455h29.8v21.6h-29.8V455zm30.9-1h-31.9v23.7h31.9V454z" class="st2"/><path d="M214.4 455h29.8v21.6h-29.8V455zm30.9-1h-31.9v23.7h31.9V454z" class="st5"/><path d="M229.3 470c-1.5 0-2.7-1.2-2.7-2.7 0-1.5 1.2-2.7 2.7-2.7 1.5 0 2.7 1.2 2.7 2.7 0 1.5-1.2 2.7-2.7 2.7m0-6.5c-2.1 0-3.8 1.7-3.8 3.8 0 2.1 1.7 3.8 3.8 3.8 2.1 0 3.8-1.7 3.8-3.8 0-2.1-1.7-3.8-3.8-3.8" class="st2"/><path d="M229.3 470c-1.5 0-2.7-1.2-2.7-2.7 0-1.5 1.2-2.7 2.7-2.7 1.5 0 2.7 1.2 2.7 2.7 0 1.5-1.2 2.7-2.7 2.7zm0-6.5c-2.1 0-3.8 1.7-3.8 3.8 0 2.1 1.7 3.8 3.8 3.8 2.1 0 3.8-1.7 3.8-3.8 0-2.1-1.7-3.8-3.8-3.8z" class="st5"/><path stroke-width=".605" d="m599.031 729.185 59.399-35.303 1.43 2.407-59.398 35.303z" class="st7"/><path d="M660.1 696.6s3 2.8 6.3 14.1c2.9 10.1 2.4 19.5 2.4 19.5" class="st8"/><path stroke-width=".605" d="m672.424 268.352 59.399-35.303 1.43 2.407-59.398 35.303z" class="st7"/><path d="M733.6 235.7s3 2.8 6.3 14.1c2.9 10.1 2.4 19.5 2.4 19.5" class="st8"/><path stroke-width=".605" d="m583.658 402.152 1.43-2.408 59.405 35.304-1.43 2.407z" class="st7"/><path d="M644.8 434.8s3-2.8 6.3-14.1c2.9-10.1 2.4-19.5 2.4-19.5" class="st8"/><path stroke-width=".605" d="m490.673 435.126 59.405-35.303 1.43 2.407-59.405 35.303z" class="st7"/><path d="M490.3 434.8s-3-2.8-6.3-14.1c-2.9-10.1-2.4-19.5-2.4-19.5" class="st8"/><path stroke-width=".605" d="m419.92 384.162 25.545-42.98 2.407 1.43-25.545 42.98z" class="st7"/><path d="M445.2 340.8s-2.8-3-14.1-6.3c-10.1-2.9-16.5-2.1-16.5-2.1" class="st8"/><path d="M396.1 654.8c2.2-.1 3.4-.1 5.1-.1 1.2 0 1.8.1 1.8.7 0 .9-1.1 2.4-2.9 4.2l-3.6 3.8c-.5.5-.6 1.1-.6 1.8v2.3h12v-3.8h-4.7c-.8 0-1.5 0-2.3.2l4-3.9c2.1-2.2 2.5-3.3 2.5-5 0-3.2-2.3-3.9-5.7-3.9-1.8 0-3.4.1-5.8.5l.2 3.2zm-4.7 8.7c-1.1 0-1.5.3-1.5 1.5v1c0 1.1.4 1.5 1.5 1.5h1c1.1 0 1.5-.4 1.5-1.5v-1c0-1.1-.4-1.5-1.5-1.5h-1zm-9.2 1c-1.9 0-2.1-.6-2.1-4.2.8-.4 1.3-.6 2.1-.6 1.5 0 1.9.4 1.9 2.1 0 2-.1 2.7-1.9 2.7m4.9-13c-1.7-.5-3.3-.5-4.2-.5-4.7 0-7.1 1.1-7.1 8.5 0 6.6 1.5 8.2 6.3 8.2 4.9 0 6-1.9 6-5.9 0-3.6-1.1-5-4.7-5-1.4 0-2.4.2-3.3.9.1-3 .7-3.6 2.8-3.6h4l.2-2.6zM373 667.4v-16.2h-4.4l-4.1 1.6.5 2.8 3.8-.8c-.1.7-.2 1.3-.2 1.9v10.7h4.4zm61.9-34.5h-1.7c-1.1 0-1.3-.3-1.3-1.5 0-.9.2-1.1 1.3-1.1h1.7v2.6zm-4.5 1.5c-.7.1-1.9.3-2.2 1.3l-.9 3.7h4.4l.7-3.1c.1-.5.4-.7 1.1-.7h1.5v3.8h4.1v-11.7c-1.5-.2-2.7-.2-5.9-.2-4.3 0-5.3.8-5.3 3.7-.1 1.4.5 2.7 2.5 3.2zm-12.4.9c0-.5.3-.9 1-.9h2.4v1.5c-.8.5-1.6.8-2.3.8-.8 0-1.2-.3-1.2-.9v-.5zm-3.2-4.6c1.9-.1 3.8-.2 5-.2 1.2 0 1.6.4 1.6 1.3v.3h-3.9c-2.3 0-3.7 1.1-3.7 3v1.2c0 2.2 1.8 3.3 3.9 3.3 2 0 3.4-1 4.2-2l.4 1.7h3.4v-7.4c0-3.5-1.7-4.5-4.9-4.5-1.7 0-4.6.3-6.4.6l.4 2.7zm-10.1 6.1v-2.3h1.9c1.2 0 1.6.3 1.6 1.1 0 1-.4 1.2-1.5 1.2h-2zm0-4.6v-2h1.8c1.1 0 1.5.2 1.5 1s-.3 1-1.4 1h-1.9zm4.7 1.1c1.8-.1 2.6-1 2.6-2.6 0-2.4-1.4-3.1-5.2-3.1-2.7 0-4.2 0-6 .1v11.7c2 .1 3.7.1 6.7.1 3.5 0 5-.6 5-3.1 0-1.8-.8-2.9-3.1-3.1zm-17-2.9c1.4 0 1.8.6 1.8 3.2s-.4 3.1-1.8 3.1c-1.5 0-1.8-.6-1.8-3.1 0-2.7.4-3.2 1.8-3.2m0-3c-4.6 0-6.3 1.7-6.3 6.2s1.7 6.1 6.3 6.1 6.3-1.6 6.3-6.1c0-4.6-1.7-6.2-6.3-6.2m-8.3.3h-7c-2 0-3 1-3.2 3-.2 2.1-.4 3.8-.6 4.6-.3.9-.9.9-2 1.1l.4 3.1c2.6.4 4.9-.2 5.3-3 .2-1.1.5-3.1.7-4.9.1-.7.4-1 1.1-1h1v8.8h4.2v-11.7zm-19.8 2.7c1.4 0 1.8.6 1.8 3.2s-.4 3.1-1.8 3.1c-1.5 0-1.8-.6-1.8-3.1-.1-2.7.3-3.2 1.8-3.2m0-3c-4.6 0-6.3 1.7-6.3 6.2s1.7 6.1 6.3 6.1 6.3-1.6 6.3-6.1c-.1-4.6-1.8-6.2-6.3-6.2m-7.4 3.5v-3.2h-11.6v3.2h3.7v8.4h4.2v-8.4h3.7zM344 636c-1.4.2-2.9.2-3.7.2-1.8 0-2.3-.6-2.3-2.7 0-2.2.6-2.7 2.3-2.7h3.4l.4-2.6c-1.3-.6-3.3-.8-4.6-.8-4.5 0-6.1 1.6-6.1 6.1s1.6 6.1 6 6.1c1.7 0 3.5-.2 4.8-.9l-.2-2.7zm81.3-32.1h-6.9v2.6h6.9v-2.6zm-13.5.9h-1.7c-1.1 0-1.3-.3-1.3-1.5 0-.9.2-1.1 1.3-1.1h1.7v2.6zm-4.5 1.5c-.7.1-1.9.3-2.2 1.3l-.9 3.7h4.4l.7-3.1c.1-.5.4-.7 1.1-.7h1.5v3.8h4.1v-11.7c-1.5-.2-2.7-.2-5.9-.2-4.3 0-5.3.8-5.3 3.7-.1 1.3.5 2.7 2.5 3.2zm-4.9-6.7h-4.2v4.1h-3.6v-4.1h-4.2v11.6h4.2v-4.7h3.6v4.7h4.2v-11.6zm-17.5 11.6h4.3l-3.5-5.9 3.2-5.7h-4.2l-2.3 4.4-2.3-4.4h-4.2l3.2 5.7-3.5 5.9h4.3l2.5-4.7 2.5 4.7zm-9.5-11.6h-4.5l-1.7 6.9c-.1.5-.3 1.3-.5 2h-.2c-.1-.7-.2-1.3-.3-2l-1.8-6.9h-4.5l3.6 10.6c.2.6.7 1 1.4 1h.8c-.3.6-.7 1.1-1.2 1.4-.8.4-1.8.5-3.3.5l-.4 2.8c1.7.3 3.4.3 4.8-.2 1.8-.7 3.1-1.8 4-4.5l3.8-11.6zm-19.1 3.1c3.2-.4 3.3-1.9 5.1-7.7h-4.5c-1.3 4.8-1.6 6.3-3.8 6.3h-.8c.1-.7.2-1.4.2-2V595h-4.4v16.2h4.4v-5.4c0-.4-.1-1-.2-1.5h.8c2.2 0 2.4 1.1 4.1 6.9h4.6c-2-6.6-2.2-7.9-5.5-8.4v-.1zm70.6-32.8c-4.5 0-5-1.4-5-10.1 1.9-1.1 3.1-1.5 5-1.5 3.7 0 4.6 1 4.6 5.2 0 4.7-.3 6.4-4.6 6.4m11.9-31.6c-4-1.1-8.1-1.1-10.1-1.1-11.3 0-17.1 2.8-17.1 20.6 0 15.9 3.5 19.8 15.2 19.8 12 0 14.6-4.6 14.6-14.3 0-8.6-2.6-12.1-11.5-12.1-3.5 0-5.8.6-8 2.3.3-7.3 1.7-8.6 6.7-8.6 4.5 0 6.4 0 9.6.1l.6-6.7zm-37.9 29c-2.7 0-3.6.8-3.6 3.6v2.5c0 2.7.8 3.6 3.6 3.6h2.4c2.7 0 3.6-.8 3.6-3.6v-2.5c0-2.7-.8-3.6-3.6-3.6h-2.4zm-28-16c-.1-4.6.4-6.5 4.5-6.5 4.4 0 4.9 1.5 4.9 10.1-1.9 1.1-3.1 1.5-4.9 1.5-3.6 0-4.6-1.1-4.5-5.1m-8.4 25.2c4.5 1.1 8.7 1.1 10.9 1.1 12.5 0 17.1-2.9 17.1-20.6 0-15.8-2.6-19.8-15-19.8-11.4 0-14.6 4.3-14.6 14.3 0 7.1 2.5 12.1 11.2 12.1 3.5 0 5.9-.6 8.1-2.3-.3 6.7-1.6 8.6-6.8 8.6-5 0-6.9 0-10.4-.1l-.5 6.7zm-32.9-31c2.9-.1 6.9-.1 10.9-.1s5.1.5 5.1 3.7c.1 2.7-.3 4.3-4.6 4.3h-7.5v6.8l7.5-.1c4.2-.1 5.1 1.2 5.1 4.6 0 4-1.5 4.7-6.5 4.7-3.4 0-5.9-.1-10.8-.3l-.3 7.7c4.4.6 9.4 1.1 14.1 1.1 10.4 0 14.2-3.4 14.1-11.7-.1-6-1.8-9-7.3-9.8v-.4c5-.8 6.2-4.3 6.2-9.9 0-7-3.6-9.1-13.2-9.1-4.3 0-8.7.3-13.1 1.1l.3 7.4z" class="st2"/><circle cx="386.5" cy="493.8" r="34.8" style="fill:none;stroke:#373437;stroke-width:.805" transform="rotate(-10.9 386.557 493.784)"/><path d="m394.7 496.1 7 12.7h8.9l-7.3-12.5c-.6-1.2-1.9-2.3-2.7-2.8v-.1c.8-.5 1.7-1.3 2.4-2.5l7.2-11.7h-8.7l-6.8 11.6h-2c.3-1.2.3-2.5.3-3.7v-7.9h-8v29.6h8v-9.9c0-.8-.1-1.8-.3-2.7h2zm-15.9 12.7v-29.6h-8l-7.5 2.9.9 5.1 6.9-1.5c-.3 1.2-.3 2.4-.3 3.5v19.6h8zm286.9 272c2.6 1.1 3.5 4.5 3.5 9.4 0 4.8-.9 8.2-3.5 9.4l.5 1.8c4.9-1.4 7.1-4.9 7.1-11.2 0-6.3-2.2-9.8-7.1-11.2l-.5 1.8zm-6.7 13.8c-1.9 0-2.1-.6-2.1-4.2.8-.4 1.3-.6 2.1-.6 1.5 0 1.9.4 1.9 2.1 0 2-.1 2.7-1.9 2.7m5-13.1c-1.7-.5-3.3-.5-4.2-.5-4.7 0-7.1 1.1-7.1 8.5 0 6.6 1.5 8.2 6.3 8.2 4.9 0 6-1.9 6-5.9 0-3.6-1.1-5-4.7-5-1.4 0-2.4.2-3.3.9.1-3 .7-3.6 2.8-3.6h4l.2-2.6zm-15.7 12c-1.1 0-1.5.3-1.5 1.5v1c0 1.1.4 1.5 1.5 1.5h1c1.1 0 1.5-.4 1.5-1.5v-1c0-1.1-.4-1.5-1.5-1.5h-1zm-4.4 4v-16.2h-4.4l-4.1 1.6.5 2.8 3.7-.8c-.1.7-.2 1.3-.2 1.9v10.7h4.5zm-9-18.5c-4.9 1.4-7.1 4.9-7.1 11.2 0 6.3 2.2 9.8 7.1 11.2l.5-1.8c-2.6-1.2-3.5-4.6-3.5-9.4 0-4.9.9-8.3 3.5-9.4l-.5-1.8zm-14.8 18.5v-16.2h-4.4l-4.1 1.6.5 2.8 3.8-.8c-.1.7-.2 1.3-.2 1.9v10.7h4.4zm-11.1-4c-1.1 0-1.5.3-1.5 1.5v1c0 1.1.4 1.5 1.5 1.5h1c1.1 0 1.5-.4 1.5-1.5v-1c0-1.1-.4-1.5-1.5-1.5h-1zm-14.6-9h4.5c1.6 0 2.1.2 2.1 1.5 0 1.1-.1 1.8-1.9 1.8H596v2.8h3.1c1.7 0 2.1.5 2.1 1.9 0 1.6-.6 1.9-2.7 1.9-1.4 0-2.4 0-4.5-.1l-.1 3.2c1.8.3 3.9.4 5.8.4 4.3 0 5.9-1.4 5.8-4.8 0-2.5-.7-3.7-3-4.1v-.1c2.1-.3 2.6-1.8 2.6-4.1 0-2.9-1.5-3.8-5.5-3.8-1.8 0-3.6.1-5.4.4l.2 3.1zM688 574.9c2.2-.1 3.4-.1 5.1-.1 1.2 0 1.8.1 1.8.7 0 .9-1.1 2.4-2.9 4.2l-3.6 3.8c-.5.5-.6 1.1-.6 1.8v2.3h12v-3.8h-4.7c-.8 0-1.5 0-2.3.2l4-3.9c2.1-2.2 2.5-3.3 2.5-5 0-3.2-2.3-3.9-5.7-3.9-1.8 0-3.4.1-5.8.5l.2 3.2zm-4.7 8.6c-1.1 0-1.5.3-1.5 1.5v1c0 1.1.4 1.5 1.5 1.5h1c1.1 0 1.5-.4 1.5-1.5v-1c0-1.1-.4-1.5-1.5-1.5h-1zm-4.3 4v-16.2h-4.4l-4.1 1.6.5 2.8 3.8-.8c-.1.7-.2 1.3-.2 1.9v10.7h4.4zm-10.6 0v-16.2H664l-4.1 1.6.5 2.8 3.8-.8c-.1.7-.2 1.3-.2 1.9v10.7h4.4zm53.2-32.1c0-.5.3-.9 1-.9h2.4v1.5c-.8.5-1.6.8-2.3.8-.8 0-1.1-.3-1.1-.9v-.5zm-3.2-4.6c1.9-.1 3.8-.2 5-.2 1.2 0 1.6.4 1.6 1.3v.3h-3.9c-2.3 0-3.7 1.1-3.7 3v1.2c0 2.2 1.8 3.3 3.9 3.3 2 0 3.4-1 4.2-2l.4 1.7h3.4V552c0-3.5-1.7-4.5-4.9-4.5-1.7 0-4.6.3-6.4.6l.4 2.7zm-1.9.2v-3.2h-11.6v3.2h3.7v8.4h4.2V551h3.7zm-20.8 4.4c0-.5.3-.9 1-.9h2.4v1.5c-.8.5-1.6.8-2.3.8-.8 0-1.1-.3-1.1-.9v-.5zm-3.2-4.6c1.9-.1 3.8-.2 5-.2 1.2 0 1.6.4 1.6 1.3v.3h-3.9c-2.3 0-3.7 1.1-3.7 3v1.2c0 2.2 1.8 3.3 3.9 3.3 2 0 3.4-1 4.1-2l.4 1.7h3.4V552c0-3.5-1.7-4.5-4.9-4.5-1.7 0-4.6.3-6.4.6l.5 2.7zm-2.9-3.1h-4.2v4.1h-3.6v-4.1h-4.2v11.6h4.2v-4.7h3.6v4.7h4.2v-11.6zm-19.7 0c-.9 0-1.5.4-1.6 1.3l-1 4.3c-.1.6-.1 1.1-.2 1.7h-.2c-.1-.6-.1-1.1-.2-1.7l-1-4.3c-.1-.9-.7-1.3-1.6-1.3h-3.6c-1 0-1.5.5-1.5 1.5l-.3 10.2h3.8l.2-8.6h.3l1.4 5.6c.2.9.7 1.3 1.6 1.3h1.9c.9 0 1.4-.4 1.6-1.3l1.4-5.6h.3l.3 8.6h3.8l-.3-10.2c0-1-.5-1.5-1.5-1.5h-3.6zm-19.4 2.7c1.4 0 1.8.6 1.8 3.2s-.4 3.1-1.8 3.1c-1.5 0-1.8-.6-1.8-3.1 0-2.6.4-3.2 1.8-3.2m0-3c-4.6 0-6.3 1.7-6.3 6.2s1.7 6.1 6.3 6.1 6.3-1.6 6.3-6.1-1.7-6.2-6.3-6.2m-11.6 5.9c2.7-.4 2.5-.6 4-5.5h-4.3c-1 3.9-1.1 4.2-2.7 4.2h-.5c.1-.5.2-1 .2-1.5v-2.7h-4.2v11.6h4.2v-3.7c0-.3 0-.6-.1-.9h.9c1.2 0 1.3.3 2.6 4.6h4.4c-1.6-5.5-1.7-5.6-4.4-6v-.1zm75.1-28.4h-1.7c-1.1 0-1.3-.3-1.3-1.5 0-.9.2-1.1 1.3-1.1h1.7v2.6zm-4.6 1.4c-.7.1-1.9.3-2.2 1.3l-.9 3.7h4.4l.7-3.1c.1-.5.3-.7 1.1-.7h1.5v3.8h4.1v-11.7c-1.5-.2-2.7-.2-5.9-.2-4.3 0-5.3.8-5.3 3.7 0 1.4.6 2.7 2.5 3.2zm-12.4.9c0-.5.3-.9 1-.9h2.4v1.5c-.8.5-1.6.8-2.3.8-.8 0-1.1-.3-1.1-.9v-.5zm-3.2-4.6c1.9-.1 3.8-.2 5-.2 1.2 0 1.6.4 1.6 1.3v.3h-3.9c-2.3 0-3.7 1.1-3.7 3v1.2c0 2.2 1.8 3.3 3.9 3.3 2 0 3.4-1 4.1-2l.4 1.7h3.4v-7.4c0-3.5-1.7-4.5-4.9-4.5-1.7 0-4.6.3-6.4.6l.5 2.7zm-2.9-3h-7c-2 0-3 1-3.2 3-.2 2.1-.4 3.8-.6 4.6-.3.9-.9.9-2 1.1l.4 3.1c2.6.4 4.9-.2 5.3-3 .2-1.1.5-3.1.7-4.9.1-.7.4-1 1.1-1h1v8.8h4.2v-11.7zm-14.2 11.7v-11.7H673l-3.7 5.6c-.4.5-.7 1.1-.9 1.7h-.1c.1-.7.2-1.2.2-1.8v-5.5h-3.8v11.6h3.7l3.6-5.3c.3-.5.7-1.3.9-1.9h.1c-.1.8-.2 1.4-.2 2.1v5.2h3.9zm-19-8.5c3.1-.4 3.2-1.9 4.9-7.7h-4.5c-1.5 4.8-1.7 6.3-3.3 6.3h-.7c.1-.7.2-1.4.2-2v-4.3h-4.2v4.3c0 .7.1 1.3.2 2h-.8c-1.5 0-1.9-1.5-3.3-6.3h-4.5c1.7 5.8 1.8 7.2 4.9 7.7v.1c-3.3.5-3.5 1.7-5.4 8.4h4.6c1.8-5.9 2-6.9 3.6-6.9h.8c-.1.5-.2 1.1-.2 1.5v5.4h4.2v-5.4c0-.4-.1-1-.2-1.5h.8c1.6 0 1.8 1.1 3.6 6.9h4.6c-1.9-6.6-2.1-7.9-5.4-8.4v-.1zm-34.9-163.5h4.5c1.6 0 2.1.2 2.1 1.5 0 1.1-.1 1.8-1.9 1.8h-3.1v2.8h3.1c1.7 0 2.1.5 2.1 1.9 0 1.6-.6 1.9-2.7 1.9-1.4 0-2.4 0-4.5-.1l-.1 3.2c1.8.3 3.9.4 5.8.4 4.3 0 5.9-1.4 5.8-4.8 0-2.5-.7-3.7-3-4.1v-.1c2.1-.3 2.6-1.8 2.6-4.1 0-2.9-1.5-3.8-5.5-3.8-1.8 0-3.6.1-5.4.4l.2 3.1zm-4.8 9c-1.1 0-1.5.3-1.5 1.5v1c0 1.1.4 1.5 1.5 1.5h1c1.1 0 1.5-.4 1.5-1.5v-1c0-1.1-.4-1.5-1.5-1.5h-1zm-9.2 1.1c-1.9 0-2.1-.6-2.1-4.2.8-.4 1.3-.6 2.1-.6 1.5 0 1.9.4 1.9 2.1 0 1.9-.1 2.7-1.9 2.7m5-13.1c-1.7-.5-3.3-.5-4.2-.5-4.7 0-7.1 1.1-7.1 8.5 0 6.6 1.5 8.2 6.3 8.2 4.9 0 6-1.9 6-5.9 0-3.6-1.1-5-4.7-5-1.4 0-2.4.2-3.3.9.1-3 .7-3.6 2.8-3.6h4l.2-2.6zm46.6-20.2c.7-.4 1.3-.7 2.2-.7 1.1 0 1.5.4 1.5 3.1s-.5 3.1-1.7 3.1c-.8 0-1.4-.2-2-.4v-5.1zm-.8-3.6h-3.4v16h4.2v-2.6c0-.8 0-1.7-.1-2.5 1 .8 2.3 1.1 3.7 1.1 2.9 0 4.4-1.3 4.4-6 0-4-1.2-6.2-4.1-6.2-1.9 0-3.6.8-4.5 1.9l-.2-1.7zm-11.7 2.7c1.4 0 1.8.6 1.8 3.2s-.4 3.1-1.8 3.1c-1.5 0-1.8-.6-1.8-3.1-.1-2.6.3-3.2 1.8-3.2m0-3c-4.6 0-6.3 1.7-6.3 6.2s1.7 6.1 6.3 6.1 6.3-1.6 6.3-6.1c-.1-4.6-1.8-6.2-6.3-6.2m-13.4 9.1h-3.4c.6-1.3 1-3 1.3-5.1.1-.7.4-.9 1-.9h1.1v6zm5.9 0h-1.9v-8.8h-6.4c-2.1 0-3.1 1-3.4 2.8-.3 2-.7 4-1.4 6h-1.5v6.1h2.8l.3-3.2h8.3l.3 3.2h2.8v-6.1zm-16.2 2.9v-11.7h-3.7l-3.7 5.6c-.4.5-.7 1.1-.9 1.7h-.1c.1-.7.2-1.2.2-1.8v-5.5h-3.8v11.6h3.7l3.6-5.3c.3-.5.7-1.3.9-1.9h.1c-.1.8-.2 1.4-.2 2.1v5.2h3.9zm-22.1-8.1c.7-.4 1.3-.7 2.2-.7 1.1 0 1.5.4 1.5 3.1s-.5 3.1-1.7 3.1c-.8 0-1.4-.2-2-.4v-5.1zm-.8-3.6h-3.4v16h4.2v-2.6c0-.8 0-1.7-.1-2.5 1 .8 2.3 1.1 3.7 1.1 2.9 0 4.4-1.3 4.4-6 0-4-1.2-6.2-4.1-6.2-1.9 0-3.6.8-4.5 1.9l-.2-1.7zm-11.7 2.7c1.4 0 1.8.6 1.8 3.2s-.4 3.1-1.8 3.1c-1.5 0-1.8-.6-1.8-3.1-.1-2.6.3-3.2 1.8-3.2m0-3c-4.6 0-6.3 1.7-6.3 6.2s1.7 6.1 6.3 6.1 6.3-1.6 6.3-6.1c-.1-4.6-1.8-6.2-6.3-6.2m-12.7 3.5c3.2-.4 3.3-1.9 5.1-7.7h-4.5c-1.3 4.8-1.6 6.3-3.8 6.3h-.8c.1-.7.2-1.4.2-2V328h-4.4v16.2h4.4v-5.4c0-.4-.1-1-.2-1.5h.8c2.2 0 2.4 1.1 4.1 6.9h4.6c-2-6.6-2.2-7.9-5.5-8.4v-.1zM358 362.3h4.5c1.6 0 2.1.2 2.1 1.5 0 1.1-.1 1.8-1.9 1.8h-3.1v2.8h3.1c1.7 0 2.1.5 2.1 1.9 0 1.6-.6 1.9-2.7 1.9-1.4 0-2.4 0-4.5-.1l-.1 3.2c1.8.3 3.9.4 5.8.4 4.3 0 5.9-1.4 5.8-4.8 0-2.5-.7-3.7-3-4.1v-.1c2.1-.3 2.6-1.8 2.6-4.1 0-2.9-1.5-3.8-5.5-3.8-1.8 0-3.6.1-5.4.4l.2 3.1zm-4.8 9c-1.1 0-1.5.4-1.5 1.5v1c0 1.1.4 1.5 1.5 1.5h1c1.1 0 1.5-.4 1.5-1.5v-1c0-1.1-.4-1.5-1.5-1.5h-1zm-3-2.4h-1.9v-6.7H345l-.7 2.5v4.1h-3.2c-.4 0-.6-.2-.4-.7l3.5-9.2h-4.1l-4 10.3c-.5 1.3.4 2.5 1.7 2.5h6.5v3.4h4v-3.4l1.9-.4v-2.4z" class="st2"/></svg>