<svg xmlns="http://www.w3.org/2000/svg" xmlns:xlink="http://www.w3.org/1999/xlink" xml:space="preserve" id="Слой_1" x="0" y="0" style="enable-background:new 0 0 203 350" version="1.1" viewBox="0 0 203 350"><style>.st0{fill:#fff5a4}.st1{fill:#39373a}.st3,.st9{fill:none;stroke:#39373a;stroke-width:.756}.st9{stroke-width:.454}.st14{fill:#39373a}.st14,.st15{clip-path:url(#SVGID_20_)}.st15,.st16{fill:none;stroke:#39373a;stroke-width:.189}.st17,.st18,.st19{clip-path:url(#SVGID_22_);fill:#39373a}.st18,.st19{fill:none;stroke:#39373a;stroke-width:.189}.st19{stroke-width:.449}.st21,.st22{clip-path:url(#SVGID_24_);fill:#39373a}.st22{fill:none;stroke-width:.189}.st22,.st27,.st28{stroke:#39373a}.st27{fill:none;stroke-width:.498}.st28{stroke-width:.477}.st28,.st35{fill:none}</style><switch><g><path d="M101.75 68.88h74.41v253.51h-74.41z" class="st0"/><path d="M26.72 145.63h88.14v57.22H26.72z" class="st0"/><path d="M158.89 322.69v7.11h-2.23v1.77h18.04v-8.88z" class="st1"/><defs><path id="SVGID_1_" d="M22.36 23.11h157.45v308.84H22.36z"/></defs><clipPath id="SVGID_2_"><use xlink:href="#SVGID_1_" style="overflow:visible"/></clipPath><path d="M174.7 331.57h-18.04v-1.77h2.23v-7.11h15.81z" style="clip-path:url(#SVGID_2_);fill:none;stroke:#39373a;stroke-width:.756"/><path d="M174.2 59.62h-19.88v1.77h2.23v7.11h17.65z" class="st1"/><path d="M174.2 59.62h-19.88v1.77h2.23v7.11h17.65z" class="st3"/><path d="M97.58 322.69v8.88h21.91v-1.77h-2.23v-7.11z" class="st1"/><defs><path id="SVGID_3_" d="M22.36 23.11h157.45v308.84H22.36z"/></defs><clipPath id="SVGID_4_"><use xlink:href="#SVGID_3_" style="overflow:visible"/></clipPath><path d="M97.58 331.57h21.91v-1.77h-2.23v-7.11H97.58z" style="clip-path:url(#SVGID_4_);fill:none;stroke:#39373a;stroke-width:.756"/><path d="M99.06 59.62h19.58v1.77h-2.23v7.11H99.06z" class="st1"/><path d="M99.06 59.62h19.58v1.77h-2.23v7.11H99.06z" class="st3"/><path d="M22.74 144.79h3.61v32.15h-3.61z" class="st1"/><defs><path id="SVGID_5_" d="M22.36 23.11h157.45v308.84H22.36z"/></defs><clipPath id="SVGID_6_"><use xlink:href="#SVGID_5_" style="overflow:visible"/></clipPath><path d="M22.74 144.79h3.61v32.15h-3.61z" style="clip-path:url(#SVGID_6_);fill:none;stroke:#39373a;stroke-width:.756"/><path d="M121.88 203.23h55.07v3.61h-55.07z" class="st1"/><path d="M121.88 203.23h55.07v3.61h-55.07z" class="st3"/><path d="M125.69 159.39h1.49v19.82h-1.49z" class="st1"/><path d="M125.69 159.39h1.49v19.82h-1.49z" class="st3"/><path d="M125.69 192.21h1.49v14.43h-1.49z" class="st1"/><path d="M125.69 192.21h1.49v14.43h-1.49z" class="st3"/><path d="M127.04 165.38h48.78v1.49h-48.78z" class="st1"/><path d="M127.04 165.38h48.78v1.49h-48.78z" class="st3"/><path d="M23.03 201.54h77.76v3.61H23.03z" class="st1"/><defs><path id="SVGID_7_" d="M22.36 23.11h157.45v308.84H22.36z"/></defs><clipPath id="SVGID_8_"><use xlink:href="#SVGID_7_" style="overflow:visible"/></clipPath><path d="M23.03 201.54h77.76v3.61H23.03z" style="clip-path:url(#SVGID_8_);fill:none;stroke:#39373a;stroke-width:.756"/><path d="M120.48 142.61h57.3v3.61h-57.3z" class="st1"/><path d="M120.48 142.61h57.3v3.61h-57.3z" class="st3"/><path d="M34.69 154.47h66.74v3.61H34.69z" class="st1"/><path d="M34.69 154.47h66.74v3.61H34.69z" class="st3"/><path d="M22.85 144.47H55.6v2.33H22.85z" class="st1"/><defs><path id="SVGID_9_" d="M22.36 23.11h157.45v308.84H22.36z"/></defs><clipPath id="SVGID_10_"><use xlink:href="#SVGID_9_" style="overflow:visible"/></clipPath><path d="M22.85 144.47H55.6v2.33H22.85z" style="clip-path:url(#SVGID_10_);fill:none;stroke:#39373a;stroke-width:.756"/><path d="M53.42 144.47h2.33v10.62h-2.33z" class="st1"/><path d="M53.42 144.47h2.33v10.62h-2.33z" class="st3"/><path d="M53.39 151.61h47.52v3.61H53.39z" class="st1"/><path d="M53.39 151.61h47.52v3.61H53.39z" class="st3"/><path d="M172.89 34.29h6.55v297.28h-6.55z" class="st1"/><defs><path id="SVGID_11_" d="M22.36 23.11h157.45v308.84H22.36z"/></defs><clipPath id="SVGID_12_"><use xlink:href="#SVGID_11_" style="overflow:visible"/></clipPath><path d="M172.89 34.29h6.55v297.28h-6.55z" style="clip-path:url(#SVGID_12_);fill:none;stroke:#39373a;stroke-width:.756"/><path stroke-width=".454" d="m100.455 27.21.299-2.058 77.09 11.186-.3 2.058z" class="st9"/><path d="M131.17 59.47h33.78v2.08h-33.78z" class="st9"/><path d="M133.09 61.53h34.9v7.12h-34.9z" class="st9"/><path stroke-width=".454" d="m115.18 61.89.358-.6 14.146 8.417-.358.601z" class="st9"/><defs><path id="SVGID_13_" d="M22.36 23.11h157.45v308.84H22.36z"/></defs><clipPath id="SVGID_14_"><use xlink:href="#SVGID_13_" style="overflow:visible"/></clipPath><path d="M129.75 69.61s.84-1.14 1.24-3.77c.41-2.64.28-4.05.28-4.05" style="clip-path:url(#SVGID_14_);fill:none;stroke:#39373a;stroke-width:.302"/><path stroke-width=".454" d="m100.07 146.257 18.237-10.852.358.601-18.237 10.852z" class="st9"/><defs><path id="SVGID_15_" d="M22.36 23.11h157.45v308.84H22.36z"/></defs><clipPath id="SVGID_16_"><use xlink:href="#SVGID_15_" style="overflow:visible"/></clipPath><path d="M118.74 136.1s.84 1.14 1.24 3.77.28 4.05.28 4.05" style="clip-path:url(#SVGID_16_);fill:none;stroke:#39373a;stroke-width:.302"/><path stroke-width=".454" d="m101.496 203.732.358-.602 18.236 10.852-.358.602z" class="st9"/><defs><path id="SVGID_17_" d="M22.36 23.11h157.45v308.84H22.36z"/></defs><clipPath id="SVGID_18_"><use xlink:href="#SVGID_17_" style="overflow:visible"/></clipPath><path d="M120.16 213.89s.84-1.14 1.24-3.77.28-4.05.28-4.05" style="clip-path:url(#SVGID_18_);fill:none;stroke:#39373a;stroke-width:.302"/><path d="M108.76 329.65h57.39v2.08h-57.39z" style="clip-path:url(#SVGID_18_);fill:none;stroke:#39373a;stroke-width:.454"/><path d="M110.95 322.54h54.81v7.12h-54.81z" class="st9"/><defs><path id="SVGID_19_" d="M22.36 23.11h157.45v308.84H22.36z"/></defs><clipPath id="SVGID_20_"><use xlink:href="#SVGID_19_" style="overflow:visible"/></clipPath><path d="M148.78 155.46a3.88 3.88 0 0 0 3.87 3.87h5.6c.37 0 .67-.3.67-.67v-6.4c0-.37-.3-.67-.67-.67h-5.6c-2.13.01-3.87 1.74-3.87 3.87m10.41-3.2v6.4c0 .51-.42.93-.93.93h-5.6a4.131 4.131 0 0 1 0-8.26h5.6c.51 0 .93.42.93.93" class="st14"/><path d="M148.78 155.46a3.88 3.88 0 0 0 3.87 3.87h5.6c.37 0 .67-.3.67-.67v-6.4c0-.37-.3-.67-.67-.67h-5.6c-2.13.01-3.87 1.74-3.87 3.87zm10.41-3.2v6.4c0 .51-.42.93-.93.93h-5.6a4.131 4.131 0 0 1 0-8.26h5.6c.51 0 .93.42.93.93z" class="st15"/><path d="M157.05 158.24v-5.54c0-.04-.03-.07-.07-.07h-4.22a2.85 2.85 0 0 0-2.84 2.84 2.85 2.85 0 0 0 2.84 2.84h4.22c.04-.01.07-.04.07-.07z" class="st15"/><path d="M156.92 158.17v-5.41h-4.15c-1.49 0-2.71 1.21-2.71 2.71 0 1.49 1.21 2.71 2.71 2.71h4.15zm.26-5.48v5.55a.2.2 0 0 1-.2.2h-4.22a2.97 2.97 0 0 1 0-5.94h4.22c.11-.01.2.08.2.19" class="st14"/><path d="M156.92 158.17v-5.41h-4.15c-1.49 0-2.71 1.21-2.71 2.71 0 1.49 1.21 2.71 2.71 2.71h4.15zm.26-5.48v5.55a.2.2 0 0 1-.2.2h-4.22a2.97 2.97 0 0 1 0-5.94h4.22c.11-.01.2.08.2.19z" class="st15"/><path d="M152.76 155.46c0 .4.33.73.73.73s.73-.33.73-.73c0-.4-.33-.73-.73-.73s-.73.33-.73.73m1.72 0c0 .55-.45 1-1 1s-1-.45-1-1 .45-1 1-1c.56.01 1 .45 1 1" class="st14"/><path d="M152.76 155.46c0 .4.33.73.73.73s.73-.33.73-.73c0-.4-.33-.73-.73-.73s-.73.33-.73.73zm1.72 0c0 .55-.45 1-1 1s-1-.45-1-1 .45-1 1-1c.56.01 1 .45 1 1z" class="st15"/><path d="m156.52 157.62-.16.22-1.78-1.33.16-.21z" class="st1"/><path d="m156.52 157.62-.16.22-1.78-1.33.16-.21z" class="st16"/><path d="m156.52 153.35-1.78 1.33-.16-.22 1.78-1.33z" class="st1"/><path d="m156.52 153.35-1.78 1.33-.16-.22 1.78-1.33z" class="st16"/><defs><path id="SVGID_21_" d="M22.36 23.11h157.45v308.84H22.36z"/></defs><clipPath id="SVGID_22_"><use xlink:href="#SVGID_21_" style="overflow:visible"/></clipPath><path d="M159.2 158.13c0 .59.48 1.07 1.07 1.07h1.46c.59 0 1.07-.48 1.07-1.07v-5.34c0-.59-.48-1.07-1.07-1.07h-1.46c-.59 0-1.07.48-1.07 1.07v5.34zm3.87-5.34v5.34c0 .74-.6 1.34-1.34 1.34h-1.46c-.74 0-1.34-.6-1.34-1.34v-5.34c0-.74.6-1.34 1.34-1.34h1.46c.74.01 1.34.61 1.34 1.34" class="st17"/><path d="M159.2 158.13c0 .59.48 1.07 1.07 1.07h1.46c.59 0 1.07-.48 1.07-1.07v-5.34c0-.59-.48-1.07-1.07-1.07h-1.46c-.59 0-1.07.48-1.07 1.07v5.34zm3.87-5.34v5.34c0 .74-.6 1.34-1.34 1.34h-1.46c-.74 0-1.34-.6-1.34-1.34v-5.34c0-.74.6-1.34 1.34-1.34h1.46c.74.01 1.34.61 1.34 1.34z" class="st18"/><path d="M160.58 155.46c0 .23.19.41.41.41s.41-.19.41-.41c0-.23-.18-.41-.41-.41s-.41.19-.41.41m1.1 0c0 .38-.31.68-.68.68s-.68-.31-.68-.68a.68.68 0 0 1 1.36 0" class="st17"/><path d="M160.58 155.46c0 .23.19.41.41.41s.41-.19.41-.41c0-.23-.18-.41-.41-.41s-.41.19-.41.41zm1.1 0c0 .38-.31.68-.68.68s-.68-.31-.68-.68a.68.68 0 0 1 1.36 0z" class="st18"/><path d="M164.41 202.02c2.34 0 4.24-1.9 4.24-4.24v-25.34c0-2.34-1.9-4.24-4.24-4.24h-5.69c-2.34 0-4.24 1.9-4.24 4.24v25.34c0 2.34 1.9 4.24 4.24 4.24h5.69z" class="st19"/><path d="M163.09 199.67c2.34 0 4.24-1.9 4.24-4.24v-20.64c0-2.34-1.9-4.24-4.24-4.24h-3.04c-2.34 0-4.24 1.9-4.24 4.24v20.64c0 2.34 1.9 4.24 4.24 4.24h3.04z" class="st19"/><path d="M163.93 196.83c1.17 0 2.12-.95 2.12-2.12v-20.74c0-1.17-.95-2.12-2.12-2.12h-4.73c-1.17 0-2.12.95-2.12 2.12v20.74c0 1.17.95 2.12 2.12 2.12h4.73z" class="st19"/><path d="M161.57 174.38c-.35 0-.63.28-.63.63s.28.63.63.63.63-.28.63-.63-.28-.63-.63-.63z" class="st19"/><path d="M153.68 203.26v-36.48" style="fill:none;stroke:#39373a;stroke-width:.449"/><defs><path id="SVGID_23_" d="M22.36 23.11h157.45v308.84H22.36z"/></defs><clipPath id="SVGID_24_"><use xlink:href="#SVGID_23_" style="overflow:visible"/></clipPath><path d="M148.64 176.64c2.26 0 4.1-1.84 4.1-4.1v-4.35c0-.34-.28-.62-.62-.62h-9.27c-.34 0-.62.28-.62.62v4.35c0 2.26 1.84 4.1 4.1 4.1h2.31zm-5.79-9.3h9.27c.47 0 .85.38.85.85v4.35c0 2.39-1.94 4.33-4.33 4.33h-2.31c-2.39 0-4.33-1.94-4.33-4.33v-4.35c0-.47.38-.85.85-.85" class="st21"/><path d="M148.64 176.64c2.26 0 4.1-1.84 4.1-4.1v-4.35c0-.34-.28-.62-.62-.62h-9.27c-.34 0-.62.28-.62.62v4.35c0 2.26 1.84 4.1 4.1 4.1h2.31zm-5.79-9.3h9.27c.47 0 .85.38.85.85v4.35c0 2.39-1.94 4.33-4.33 4.33h-2.31c-2.39 0-4.33-1.94-4.33-4.33v-4.35c0-.47.38-.85.85-.85z" class="st22"/><path d="M148.64 175.61c1.69 0 3.07-1.38 3.07-3.07V170c0-.3-.24-.54-.54-.54h-7.38c-.3 0-.54.24-.54.54v2.54c0 1.69 1.38 3.07 3.07 3.07h2.32zm-4.85-6.37h7.38c.42 0 .77.34.77.77v2.54c0 1.82-1.48 3.3-3.3 3.3h-2.31c-1.82 0-3.3-1.48-3.3-3.3v-2.54c0-.43.34-.77.76-.77" class="st21"/><path d="M148.64 175.61c1.69 0 3.07-1.38 3.07-3.07V170c0-.3-.24-.54-.54-.54h-7.38c-.3 0-.54.24-.54.54v2.54c0 1.69 1.38 3.07 3.07 3.07h2.32zm-4.85-6.37h7.38c.42 0 .77.34.77.77v2.54c0 1.82-1.48 3.3-3.3 3.3h-2.31c-1.82 0-3.3-1.48-3.3-3.3v-2.54c0-.43.34-.77.76-.77z" class="st22"/><path d="M147.48 173.46c.28 0 .51-.23.51-.51s-.23-.51-.51-.51-.51.23-.51.51.23.51.51.51m0-1.24c.41 0 .74.33.74.74s-.33.74-.74.74-.74-.33-.74-.74c.01-.41.34-.74.74-.74" class="st21"/><path d="M147.48 173.46c.28 0 .51-.23.51-.51s-.23-.51-.51-.51-.51.23-.51.51.23.51.51.51zm0-1.24c.41 0 .74.33.74.74s-.33.74-.74.74-.74-.33-.74-.74c.01-.41.34-.74.74-.74z" class="st22"/><path d="M139.76 190.45h12.37v12.59h-12.37z" style="fill:none;stroke:#39373a;stroke-width:.462"/><path d="m36.39 180.03.63.38-11.3 18.85-.63-.38zm-3.19-18.5-.38.62-6.44-3.92.37-.62z" class="st9"/><defs><path id="SVGID_25_" d="M22.36 23.11h157.45v308.84H22.36z"/></defs><clipPath id="SVGID_26_"><use xlink:href="#SVGID_25_" style="overflow:visible"/></clipPath><path d="M36.35 179.99s-1.39-1.07-4.84-1.99c-3.45-.92-5.35-1.06-5.35-1.06m7.08-15.46s.69-1.43 1.61-4.88" style="stroke:#39373a;clip-path:url(#SVGID_26_);fill:none;stroke-width:.302"/><path d="M22.62 195.84h4.37v9.69h-4.37zm150.87 129.77 2.08-7.31-3.09-3.09-8.02 8.02zm1.64-259.62 2.08 7.32-3.09 3.08-8.02-8.02z" class="st1"/><path stroke-width=".454" d="m118.852 181.097.602-.358 7.303 12.272-.602.358z" class="st9"/><defs><path id="SVGID_27_" d="M22.36 23.11h157.45v308.84H22.36z"/></defs><clipPath id="SVGID_28_"><use xlink:href="#SVGID_27_" style="overflow:visible"/></clipPath><path d="M119.54 180.65s1.14-.84 3.77-1.24 4.05-.28 4.05-.28" style="clip-path:url(#SVGID_28_);fill:none;stroke:#39373a;stroke-width:.302"/><path d="m118.84 157.227 7.654-12.866.601.358-7.654 12.865z" class="st9"/><defs><path id="SVGID_29_" d="M22.36 23.11h157.45v308.84H22.36z"/></defs><clipPath id="SVGID_30_"><use xlink:href="#SVGID_29_" style="overflow:visible"/></clipPath><path d="M119.54 157.68s1.14.84 3.77 1.24 4.05.28 4.05.28" style="clip-path:url(#SVGID_30_);fill:none;stroke:#39373a;stroke-width:.302"/><path d="M169.27 166.12h4.16v38.06h-4.16z" class="st1"/><path d="M34.56 147.32h18.45v7.08H34.56z" class="st27"/><path d="M34.56 147.32h18.45v1.22H34.56zm1.09 1.25.49 4.56h10.84l.61-4.56" class="st27"/><path d="m48.18 148.52.62 4.61h2.3l.56-4.61" class="st27"/><path d="M165.49 146.84h6.79v17.93h-6.79z" class="st28"/><path d="M171.11 146.84h1.16v17.93h-1.16zm-.04 16.86-4.37-.47v-10.54l4.37-.59m.04-.57-4.41-.61v-2.24l4.41-.54" class="st28"/><path d="M160.13 141.87h-12.28v-12.28h12.28v12.28zm-12.55.27h12.83v-12.82h-12.83v12.82z" class="st1"/><path d="M160.13 141.87h-12.28v-12.28h12.28v12.28zm-12.55.27h12.83v-12.82h-12.83v12.82z" class="st16"/><defs><path id="SVGID_31_" d="M22.36 23.11h157.45v308.84H22.36z"/></defs><clipPath id="SVGID_32_"><use xlink:href="#SVGID_31_" style="overflow:visible"/></clipPath><path d="M158.29 130.7c.3 0 .55.25.55.55v6.46c0 .3-.25.55-.55.55h-8.6c-.3 0-.55-.25-.55-.55v-6.46c0-.3.25-.55.55-.55h8.6zm-8.6 7.83h8.6c.45 0 .82-.37.82-.82v-6.46c0-.45-.37-.82-.82-.82h-8.6c-.45 0-.82.37-.82.82v6.46c0 .45.37.82.82.82" style="clip-path:url(#SVGID_32_);fill:#39373a"/><path d="M158.29 130.7c.3 0 .55.25.55.55v6.46c0 .3-.25.55-.55.55h-8.6c-.3 0-.55-.25-.55-.55v-6.46c0-.3.25-.55.55-.55h8.6zm-8.6 7.83h8.6c.45 0 .82-.37.82-.82v-6.46c0-.45-.37-.82-.82-.82h-8.6c-.45 0-.82.37-.82.82v6.46c0 .45.37.82.82.82z" style="clip-path:url(#SVGID_32_);fill:none;stroke:#39373a;stroke-width:.189"/><path d="M157.89 137.3h-7.79v-5.65h7.79v5.65zm-8.07.28h8.34v-6.19h-8.34v6.19z" class="st1"/><path d="M157.89 137.3h-7.79v-5.65h7.79v5.65zm-8.07.28h8.34v-6.19h-8.34v6.19z" class="st16"/><defs><path id="SVGID_33_" d="M22.36 23.11h157.45v308.84H22.36z"/></defs><clipPath id="SVGID_34_"><use xlink:href="#SVGID_33_" style="overflow:visible"/></clipPath><path d="M153.99 133.39c.39 0 .71.32.71.71 0 .39-.32.71-.71.71-.39 0-.71-.32-.71-.71 0-.39.32-.71.71-.71m0 1.69c.54 0 .98-.44.98-.98s-.44-.98-.98-.98-.98.44-.98.98.44.98.98.98" style="clip-path:url(#SVGID_34_);fill:#39373a"/><path d="M153.99 133.39c.39 0 .71.32.71.71 0 .39-.32.71-.71.71-.39 0-.71-.32-.71-.71 0-.39.32-.71.71-.71zm0 1.69c.54 0 .98-.44.98-.98s-.44-.98-.98-.98-.98.44-.98.98.44.98.98.98z" style="clip-path:url(#SVGID_34_);fill:none;stroke:#39373a;stroke-width:.189"/><path d="M97.56 188.99h3.82v142.58h-3.82z" class="st1"/><defs><path id="SVGID_35_" d="M22.36 23.11h157.45v308.84H22.36z"/></defs><clipPath id="SVGID_36_"><use xlink:href="#SVGID_35_" style="overflow:visible"/></clipPath><path d="M97.56 188.99h3.82v142.58h-3.82z" style="clip-path:url(#SVGID_36_);fill:none;stroke:#39373a;stroke-width:.756"/><path d="M97.56 23.49h3.82v143.38h-3.82z" class="st1"/><path d="M97.56 23.49h3.82v143.38h-3.82z" class="st3"/><path d="M142.07 294.69c.56 0 .68.13.68.67 0 .51-.12.64-.69.64-.58 0-.71-.13-.71-.64 0-.53.12-.67.72-.67m-.01-2.08c.51 0 .63.11.63.62 0 .45-.1.56-.62.56-.53 0-.65-.1-.65-.56 0-.5.12-.62.64-.62m-1.11 1.65c-.73.07-.91.68-.91 1.37 0 .99.42 1.39 2.01 1.38 1.62-.01 2.01-.39 2.01-1.38 0-.68-.17-1.3-.9-1.37v-.03c.56-.06.78-.62.78-1.17 0-.96-.33-1.37-1.89-1.37-1.54 0-1.88.42-1.88 1.37 0 .55.22 1.11.78 1.17v.03zm-2.34 1.38c-.36 0-.47.11-.47.47v.33c0 .36.11.47.47.47h.32c.36 0 .47-.11.47-.47v-.33c0-.36-.11-.47-.47-.47h-.32zm-3.1-.95c.56 0 .68.13.68.67 0 .51-.12.64-.69.64-.58 0-.71-.13-.71-.64 0-.53.13-.67.72-.67m-.01-2.08c.51 0 .63.11.63.62 0 .45-.1.56-.62.56-.53 0-.65-.1-.65-.56.01-.5.12-.62.64-.62m-1.1 1.65c-.73.07-.91.68-.91 1.37 0 .99.42 1.39 2.01 1.38 1.62-.01 2.01-.39 2.01-1.38 0-.68-.17-1.3-.9-1.37v-.03c.56-.06.78-.62.78-1.17 0-.96-.33-1.37-1.89-1.37-1.54 0-1.88.42-1.88 1.37 0 .55.22 1.11.78 1.17v.03zm-1.84 2.64v-5.12h-1.39l-1.3.5.16.88 1.19-.27c-.04.21-.05.41-.05.61v3.39h1.39zm17.66-10.19c0-.17.09-.28.31-.29h.77v.46c-.24.16-.51.25-.72.25-.24 0-.36-.1-.36-.3v-.12zm-1.01-1.45c.62-.04 1.21-.05 1.58-.05.39 0 .5.11.51.42v.09h-1.22c-.73 0-1.18.36-1.18.94v.37c0 .69.56 1.05 1.24 1.05.64 0 1.06-.33 1.32-.64l.13.54h1.07v-2.35c0-1.1-.55-1.44-1.54-1.44-.54 0-1.47.08-2.02.18l.11.89zm-.61.06v-1.02h-3.68v1.02h1.17v2.67h1.34v-2.67h1.17zm-6.59 1.39c0-.17.09-.28.31-.29h.77v.46c-.25.16-.51.25-.72.25-.24 0-.36-.1-.36-.3v-.12zm-1.01-1.45c.62-.04 1.21-.05 1.58-.05.39 0 .51.11.51.42v.09h-1.23c-.73 0-1.18.36-1.18.94v.37c0 .69.56 1.05 1.24 1.05.64 0 1.06-.33 1.32-.64l.13.54h1.08v-2.35c0-1.1-.55-1.44-1.54-1.44-.54 0-1.47.08-2.02.18l.11.89zm-.92-.96h-1.32v1.3h-1.13v-1.3h-1.33v3.69h1.33v-1.49h1.13v1.49h1.32v-3.69zm-6.24 0c-.28 0-.46.14-.5.41l-.32 1.37c-.04.19-.04.36-.07.55h-.06c-.02-.19-.03-.36-.07-.55l-.33-1.37c-.04-.27-.22-.41-.5-.41h-1.14c-.3 0-.46.15-.47.46l-.09 3.23h1.22l.07-2.71h.09l.44 1.79c.05.27.23.41.51.41h.6c.29 0 .45-.13.51-.41l.44-1.79h.09l.1 2.71h1.22l-.1-3.23c-.01-.3-.16-.46-.46-.46h-1.18zm-6.14.85c.45 0 .57.19.57 1s-.12.99-.57.99c-.46 0-.58-.18-.58-.99 0-.82.12-1 .58-1m0-.95c-1.46 0-1.99.53-1.99 1.95s.53 1.93 1.99 1.93c1.45 0 1.98-.51 1.98-1.93 0-1.43-.53-1.95-1.98-1.95m-3.69 1.85c.86-.13.8-.2 1.28-1.75h-1.36c-.32 1.23-.34 1.34-.87 1.34h-.16c.03-.16.05-.32.05-.47v-.87h-1.34v3.69h1.34v-1.17c0-.09-.01-.19-.04-.3h.3c.39.01.42.1.81 1.46h1.4c-.51-1.74-.53-1.77-1.4-1.9v-.03zm23.8-8.99h-.53c-.35 0-.42-.09-.42-.46 0-.27.07-.34.42-.34h.53v.8zm-1.45.46c-.22.02-.61.08-.7.4l-.29 1.17h1.38l.23-.99c.03-.17.11-.22.34-.22h.49v1.2h1.31v-3.72c-.46-.05-.85-.06-1.86-.06-1.36 0-1.69.26-1.69 1.19 0 .45.18.87.8.99v.04zm-3.93.29c0-.17.09-.28.31-.29h.77v.46c-.24.16-.5.25-.72.25-.25 0-.36-.1-.36-.3v-.12zm-1.01-1.46c.62-.04 1.21-.05 1.58-.05.39 0 .51.11.51.42v.09h-1.22c-.74 0-1.18.35-1.18.94v.37c0 .69.56 1.05 1.24 1.05.64 0 1.06-.33 1.31-.64l.13.54h1.07v-2.35c0-1.1-.55-1.44-1.54-1.44-.54 0-1.47.08-2.02.18l.12.89zm-.92-.95h-2.23c-.64 0-.96.33-1.02.95-.05.68-.12 1.19-.19 1.45-.08.3-.3.29-.62.34l.13.99c.81.13 1.54-.05 1.69-.97.07-.36.16-.98.22-1.55.02-.21.13-.31.35-.31h.32v2.79h1.34v-3.69zm-4.52 3.69v-3.69h-1.17l-1.17 1.77c-.11.17-.21.33-.28.54h-.03c.03-.21.05-.38.05-.57v-1.74h-1.19v3.69h1.17l1.15-1.68c.1-.16.23-.42.3-.62h.03c-.03.24-.05.44-.05.65v1.65h1.19zm-5.99-2.7c.99-.13 1.02-.59 1.56-2.43h-1.41c-.46 1.54-.55 2-1.05 2h-.24c.04-.21.06-.43.06-.64v-1.36h-1.33v1.36c0 .21.02.42.07.64h-.26c-.49 0-.59-.46-1.04-2h-1.41c.54 1.83.56 2.29 1.56 2.43v.04c-1.03.15-1.1.55-1.7 2.65h1.45c.57-1.86.63-2.19 1.13-2.19h.26c-.04.16-.06.33-.06.48v1.71h1.33v-1.71c0-.14-.02-.31-.06-.48h.24c.52 0 .57.33 1.14 2.19h1.46c-.6-2.1-.67-2.5-1.71-2.65v-.04zm26.51-17.1.13-2.48h-7.76l-.32 5.57c-.04.58.38 1.04.97 1.11l1.92.23c1.67.14 2.28.38 2.23 1.54-.07 1.01-.43 1.4-2.07 1.4-.88 0-2.03-.05-3.22-.14l-.31 2.53c1.58.23 3.16.36 4.4.36 3.52 0 4.51-1.81 4.51-4.04.02-1.99-.74-3.77-3.63-4.1l-2.07-.27.13-1.73h5.09zm-11.62 6.87c-.86 0-1.13.27-1.13 1.13v.79c0 .86.27 1.13 1.13 1.13h.77c.86 0 1.13-.27 1.13-1.13v-.79c0-.86-.27-1.13-1.13-1.13h-.77zm-7.51-2.3c1.37 0 1.65.31 1.65 1.62 0 1.24-.29 1.55-1.67 1.55-1.4 0-1.72-.31-1.72-1.55 0-1.28.3-1.62 1.74-1.62m-.02-5.01c1.24 0 1.53.27 1.53 1.49 0 1.1-.23 1.37-1.49 1.37-1.28 0-1.58-.25-1.58-1.37 0-1.22.28-1.49 1.54-1.49m-2.68 3.97c-1.78.16-2.21 1.65-2.21 3.3 0 2.41 1.01 3.36 4.87 3.34 3.93-.04 4.87-.93 4.87-3.34 0-1.65-.41-3.14-2.19-3.3v-.07c1.35-.14 1.89-1.51 1.89-2.84 0-2.32-.79-3.32-4.56-3.32-3.74 0-4.54 1.01-4.54 3.32 0 1.33.54 2.7 1.89 2.84v.07zm-3.43 1.54h-1.47v-5.12h-2.53l-.54 1.94v3.18h-2.42c-.29 0-.47-.18-.32-.52l2.71-7.02h-3.14l-3.09 7.87c-.39.97.27 1.92 1.31 1.92h4.96v2.61h3.07v-2.61h.04l1.44-.32v-1.93z" class="st1"/><circle cx="137.11" cy="242.59" r="11.01" style="fill:none;stroke:#39373a;stroke-width:.755"/><path d="M144.67 245.23c-.87.1-1.65.11-2.97.11-1.12 0-1.43-.57-1.43-2.68 0-2.11.31-2.68 1.43-2.68 1.25 0 1.85.01 2.77.04l.19-1.88c-.9-.24-1.57-.34-2.97-.34-3 0-4.1 1.28-4.1 4.86s1.1 4.85 4.1 4.85c1.41 0 2.26-.11 3.17-.42l-.19-1.86zM129.74 240c1.29-.07 1.97-.07 2.94-.07.72 0 1.03.04 1.03.43.01.53-.61 1.38-1.67 2.45l-2.11 2.18c-.27.3-.35.61-.35 1.02v1.33h6.99v-2.2h-2.71c-.45 0-.88.01-1.32.12l2.31-2.27c1.24-1.29 1.47-1.9 1.47-2.93 0-1.84-1.32-2.27-3.32-2.27-1.02 0-1.99.04-3.36.31l.1 1.9zm19.27-196.38c.82.35 1.11 1.42 1.11 2.97 0 1.52-.3 2.6-1.11 2.98l.15.57c1.56-.45 2.26-1.56 2.26-3.54 0-2-.7-3.11-2.26-3.55l-.15.57zm-3.97 1.29c.71-.04 1.08-.04 1.6-.04.39 0 .56.02.56.24.01.29-.33.75-.91 1.34l-1.15 1.19c-.15.16-.19.33-.19.56v.73h3.81v-1.2h-1.48c-.25 0-.48.01-.72.07l1.26-1.24c.68-.71.8-1.04.8-1.6 0-1-.72-1.24-1.81-1.24-.56 0-1.08.02-1.83.17l.06 1.02zm-1.47 2.74c-.36 0-.47.11-.47.47v.33c0 .36.11.47.47.47h.32c.36 0 .47-.11.47-.47v-.33c0-.36-.11-.47-.47-.47h-.32zm-4.78-2.74c.7-.04 1.08-.04 1.6-.04.39 0 .56.02.56.24.01.29-.33.75-.91 1.34l-1.15 1.19c-.15.16-.19.33-.19.56v.73h3.81v-1.2h-1.48c-.24 0-.48.01-.72.07l1.26-1.24c.68-.71.8-1.04.8-1.6 0-1-.72-1.24-1.81-1.24-.56 0-1.08.02-1.83.17l.06 1.02zm-.63-1.86c-1.56.44-2.26 1.55-2.26 3.55 0 1.98.7 3.1 2.26 3.54l.16-.57c-.82-.38-1.11-1.45-1.11-2.98 0-1.55.3-2.62 1.11-2.97l-.16-.57zm-7.92 1.75c.38-.01.9-.01 1.43-.01.52 0 .67.07.67.48.01.35-.04.56-.6.56h-.98v.89l.98-.01c.55-.01.67.16.67.6 0 .52-.19.61-.85.61-.44 0-.77-.01-1.42-.04l-.04 1c.58.08 1.22.14 1.84.14 1.36 0 1.86-.45 1.84-1.53-.01-.78-.23-1.17-.95-1.28v-.03c.66-.1.82-.56.82-1.29 0-.91-.47-1.19-1.73-1.19-.56 0-1.14.04-1.72.14l.04.96zm-1.5 2.85c-.36 0-.47.11-.47.47v.33c0 .36.11.47.47.47h.32c.36 0 .47-.11.47-.47v-.33c0-.36-.11-.47-.47-.47h-.32zm-.95-.74h-.61V44.8h-1.05l-.22.8v1.31h-1c-.12 0-.19-.07-.13-.21l1.12-2.9h-1.3l-1.27 3.25c-.16.4.11.79.54.79h2.05v1.08h1.27v-1.08h.01l.59-.13v-.8zM63.36 180.9c.38-.01.9-.01 1.43-.01.52 0 .67.07.67.48.01.35-.04.56-.6.56h-.98v.89l.98-.01c.55-.01.67.16.67.6 0 .52-.19.62-.85.62-.45 0-.77-.01-1.42-.05l-.05 1c.58.08 1.23.14 1.84.14 1.36 0 1.86-.44 1.84-1.53-.01-.78-.23-1.17-.95-1.28v-.03c.66-.1.81-.56.81-1.29 0-.91-.47-1.19-1.73-1.19-.56 0-1.14.04-1.72.14l.06.96zm-1.5 2.86c-.36 0-.47.11-.47.47v.33c0 .36.11.47.47.47h.32c.36 0 .47-.11.47-.47v-.33c0-.36-.11-.47-.47-.47h-.32zm-4.31-3.86.06 1.12h2.23c-.12.18-.19.36-.25.54l-1.23 3.46h1.36l1.54-4.44c.13-.38-.12-.68-.52-.68h-3.19zm22.01-5.81h-.53c-.35 0-.42-.09-.42-.46 0-.27.07-.34.42-.34h.53v.8zm-1.45.46c-.22.02-.61.08-.7.4l-.29 1.16h1.38l.23-.99c.03-.17.11-.21.34-.21h.49v1.2h1.31v-3.72c-.46-.05-.85-.06-1.86-.06-1.36 0-1.69.26-1.69 1.19 0 .45.18.87.8 1v.03zm-3.93.29c0-.17.09-.28.31-.29h.77v.46c-.24.16-.5.25-.72.25-.24 0-.36-.1-.36-.3v-.12zm-1.01-1.46c.62-.04 1.21-.05 1.58-.05.39 0 .51.11.51.42v.09h-1.23c-.73 0-1.18.36-1.18.94v.37c0 .69.56 1.05 1.24 1.05.64 0 1.06-.33 1.31-.64l.13.54h1.08v-2.35c0-1.1-.55-1.44-1.54-1.44-.54 0-1.47.08-2.02.18l.12.89zm-2.05.79c.86-.11.83-.22 1.31-1.74H71.1c-.39 1.21-.43 1.34-.8 1.34h-.23c.03-.16.04-.31.04-.46v-.88h-1.17v.88c0 .15.01.3.04.46h-.24c-.37 0-.42-.13-.81-1.34h-1.32c.49 1.52.45 1.63 1.31 1.74v.04c-.89.13-.9.19-1.43 1.91h1.37c.47-1.4.5-1.48.82-1.49h.3c-.03.11-.04.22-.04.31v1.17h1.18v-1.17c0-.09-.01-.2-.04-.31h.28c.33.01.36.09.82 1.49h1.37c-.53-1.71-.55-1.78-1.43-1.91v-.04zm-6.9-.9c.45 0 .57.18.57 1 0 .81-.12.99-.57.99-.46 0-.58-.18-.58-.99s.12-1 .58-1m0-.95c-1.46 0-1.99.53-1.99 1.95s.53 1.93 1.99 1.93c1.45 0 1.98-.51 1.98-1.93s-.53-1.95-1.98-1.95m-3.5 3.79h1.36l-1.1-1.88 1.01-1.8h-1.34l-.73 1.38-.73-1.38h-1.34l1.01 1.8-1.1 1.88h1.36l.8-1.48.8 1.48zm-3.39.01v-3.69h-1.17l-1.17 1.77c-.11.17-.21.33-.28.54h-.03a4 4 0 0 0 .05-.57v-1.74h-1.19v3.69h1.17l1.15-1.68c.1-.16.23-.42.3-.62h.03c-.03.24-.05.44-.05.65v1.65h1.19zm-7.01-2.55c.24-.14.41-.23.69-.23.34 0 .48.14.48.98 0 .85-.15.97-.53.97-.27 0-.45-.07-.65-.13v-1.59zm-.26-1.14h-1.08v5.06h1.34v-.81c.01-.26 0-.54-.02-.8.32.24.74.33 1.18.33.92 0 1.4-.41 1.4-1.9 0-1.26-.37-1.98-1.31-1.98-.59 0-1.15.27-1.41.61l-.1-.51zm-1.95-1.44h-4.29v5.12h1.39v-4.17h1.51v4.17h1.4v-5.12zm59.35 8.8c.26 0 .63-.01 1-.01.36 0 .47.05.47.34 0 .24-.03.39-.42.39h-.69v.62l.69-.01c.38-.01.47.12.47.42 0 .36-.14.43-.59.43-.31 0-.54 0-.99-.03l-.03.7c.41.06.86.1 1.29.1.95 0 1.3-.31 1.29-1.07 0-.54-.16-.82-.67-.9v-.02c.46-.07.57-.39.57-.91 0-.64-.33-.84-1.21-.84-.39 0-.79.03-1.2.1l.02.69zm-1.05 2c-.25 0-.33.08-.33.33v.23c0 .25.08.33.33.33h.22c.25 0 .33-.08.33-.33v-.23c0-.25-.08-.33-.33-.33h-.22zm-3.24-2c.26 0 .63-.01 1-.01.36 0 .47.05.47.34 0 .24-.03.39-.42.39h-.69v.62l.69-.01c.38-.01.47.12.47.42 0 .36-.13.43-.59.43-.31 0-.54 0-.99-.03l-.03.7c.4.06.86.1 1.29.1.95 0 1.3-.31 1.29-1.07-.01-.54-.16-.82-.67-.9v-.02c.46-.07.57-.39.57-.91 0-.64-.33-.84-1.21-.84-.4 0-.8.03-1.2.1l.02.69zm12.7-5.13c.17-.1.29-.16.48-.16.24 0 .34.1.34.69s-.1.68-.37.68c-.19 0-.31-.05-.45-.09v-1.12zm-.19-.8h-.76v3.54h.94v-.57c0-.18 0-.38-.02-.56.22.17.51.23.83.23.64 0 .98-.28.98-1.33 0-.88-.26-1.38-.91-1.38-.41 0-.81.19-.99.43l-.07-.36zm-2.59.59c.32 0 .4.13.4.7s-.08.69-.4.69-.4-.12-.4-.69c-.01-.57.07-.7.4-.7m0-.66c-1.02 0-1.39.37-1.39 1.37 0 .99.37 1.35 1.39 1.35 1.01 0 1.39-.36 1.39-1.35-.01-1-.38-1.37-1.39-1.37m-2.97 2.02h-.76c.13-.3.22-.65.3-1.14.02-.15.1-.21.23-.21h.23v1.35zm1.31 0H111v-1.95h-1.42c-.46 0-.69.21-.75.63-.06.45-.15.88-.31 1.32h-.32v1.35h.62l.06-.72h1.85l.07.72h.62v-1.35zm-3.58.64v-2.59h-.82l-.82 1.24c-.08.12-.15.23-.2.38h-.02c.02-.15.04-.26.04-.4v-1.22h-.84v2.58h.82l.81-1.18c.07-.11.16-.29.21-.43h.02c-.02.17-.04.31-.04.46v1.16h.84zm-4.91-1.79c.17-.1.29-.16.48-.16.24 0 .34.1.34.69s-.1.68-.37.68c-.19 0-.31-.05-.45-.09v-1.12zm-.18-.8H102v3.54h.94v-.57c.01-.18 0-.38-.01-.56.22.17.51.23.83.23.64 0 .98-.28.98-1.33 0-.88-.26-1.38-.91-1.38-.41 0-.81.19-.99.43l-.08-.36zm-2.6.59c.32 0 .4.13.4.7s-.08.69-.4.69-.41-.12-.41-.69.09-.7.41-.7m0-.66c-1.02 0-1.39.37-1.39 1.37 0 .99.37 1.35 1.39 1.35 1.01 0 1.39-.36 1.39-1.35 0-1-.38-1.37-1.39-1.37m-2.81.77c.71-.09.73-.41 1.13-1.7h-.99c-.28 1.08-.35 1.4-.85 1.4h-.17c.02-.15.04-.3.04-.45v-.95h-.97v3.58h.97v-1.2c0-.1-.02-.22-.04-.33h.19c.5 0 .54.23.91 1.53h1.02c-.44-1.47-.49-1.75-1.23-1.85v-.03zm45.69-20.6.05-1.02h-3.2l-.13 2.3c-.01.24.16.43.4.46l.79.1c.69.06.94.16.92.64-.03.42-.18.58-.85.58-.36 0-.84-.02-1.33-.06l-.13 1.05c.65.1 1.31.15 1.82.15 1.45 0 1.86-.75 1.86-1.67.01-.82-.3-1.56-1.5-1.69l-.85-.11.05-.71h2.1zm-4.81 2.84c-.36 0-.47.11-.47.47v.33c0 .36.11.47.47.47h.32c.36 0 .47-.11.47-.47v-.33c0-.36-.11-.47-.47-.47h-.32zm-1.38 1.26v-5.12h-1.39l-1.3.5.16.88 1.19-.27c-.04.21-.05.41-.05.61v3.39h1.39zm9.35 23.11.05-1.02h-3.21l-.13 2.3c-.01.24.16.43.4.46l.79.1c.69.06.94.16.92.64-.03.41-.18.58-.85.58-.36 0-.84-.02-1.33-.06l-.13 1.05c.65.1 1.31.15 1.82.15 1.45 0 1.86-.75 1.86-1.67.01-.82-.3-1.56-1.5-1.69l-.85-.11.05-.71h2.11zm-4.8 2.83c-.36 0-.47.11-.47.47v.33c0 .36.11.47.47.47h.32c.36 0 .47-.11.47-.47v-.33c0-.36-.11-.47-.47-.47h-.32zm-4.63-2.86c.38-.01.9-.01 1.42-.01.52 0 .67.07.67.48.01.35-.04.56-.6.56h-.98v.89l.98-.01c.55-.01.67.16.67.6 0 .52-.19.62-.85.62-.45 0-.77-.01-1.42-.04l-.04 1c.58.08 1.22.14 1.84.14 1.36 0 1.86-.44 1.84-1.53-.01-.78-.23-1.17-.95-1.28v-.03c.66-.1.82-.56.82-1.29 0-.91-.47-1.19-1.73-1.19-.56 0-1.14.04-1.72.14l.05.95z" class="st1"/><path d="M22.36 23.11h157.45v308.84H22.36z" class="st35"/><path d="M55.97 142.23h41.21v9H55.97z" style="fill:#fff"/><path d="M143.17 114.57c-.01-.61.05-.85.59-.85.58 0 .64.2.65 1.33-.24.14-.41.19-.65.19-.48.01-.6-.14-.59-.67m-1.1 3.3c.59.15 1.14.15 1.42.15 1.63 0 2.23-.39 2.23-2.7 0-2.07-.34-2.6-1.96-2.6-1.49 0-1.91.56-1.91 1.88 0 .93.33 1.59 1.47 1.59.46 0 .77-.07 1.06-.3-.04.88-.22 1.13-.89 1.13-.66 0-.9 0-1.36-.01l-.06.86zm-1.56-1.2c-.36 0-.47.11-.47.47v.33c0 .36.11.47.47.47h.32c.36 0 .47-.11.47-.47v-.33c0-.36-.11-.47-.47-.47h-.32zm-1.38 1.26v-5.12h-1.39l-1.3.51.16.88 1.19-.27c-.04.21-.05.41-.05.61v3.39h1.39zm-3.33 0v-5.12h-1.39l-1.3.51.16.88 1.19-.27c-.04.21-.05.41-.05.61v3.39h1.39zM154.67 107h-.53c-.35 0-.42-.09-.42-.46 0-.28.07-.34.42-.34h.53v.8zm-1.45.46c-.22.02-.61.08-.7.4l-.29 1.17h1.38l.23-.99c.03-.17.11-.22.34-.22h.49v1.2h1.3v-3.72c-.46-.05-.85-.06-1.86-.06-1.36 0-1.69.26-1.69 1.19 0 .44.18.87.8 1v.03zm-3.93.29c0-.17.09-.28.31-.29h.77v.46c-.25.16-.51.25-.72.25-.25 0-.36-.1-.36-.3v-.12zm-1.01-1.45c.62-.04 1.21-.05 1.58-.05.39 0 .51.11.51.42v.09h-1.23c-.73 0-1.18.36-1.18.94v.37c0 .69.56 1.05 1.24 1.05.64 0 1.06-.33 1.31-.64l.13.54h1.08v-2.35c0-1.1-.55-1.44-1.54-1.44-.54 0-1.47.08-2.02.18l.12.89zm-.93-.96h-1.32v1.3h-1.13v-1.3h-1.33v3.69h1.33v-1.49h1.13v1.49h1.32v-3.69zm-4.58 3.69v-3.69h-1.17l-1.17 1.77c-.11.17-.21.33-.28.54h-.03c.03-.21.05-.38.05-.57v-1.74h-1.19v3.69h1.17l1.15-1.69c.1-.16.23-.42.3-.62h.03c-.03.25-.05.44-.05.65v1.65h1.19zm-4.31-2.68v-1.02h-3.68v1.02h1.17v2.67h1.34v-2.67h1.17zm-4.08 1.63c-.45.05-.92.06-1.17.06-.56 0-.74-.18-.74-.86 0-.68.18-.86.74-.86l1.09.01.14-.84c-.42-.19-1.04-.25-1.46-.25-1.41 0-1.92.52-1.92 1.94s.51 1.94 1.91 1.94c.54 0 1.11-.07 1.53-.28l-.12-.86zm-5.79-1.8c.45 0 .57.19.57 1s-.12.99-.57.99c-.46 0-.58-.18-.58-.99s.12-1 .58-1m0-.95c-1.46 0-1.99.53-1.99 1.95s.53 1.93 1.99 1.93c1.45 0 1.98-.51 1.98-1.93s-.53-1.95-1.98-1.95m-5.45 3.8h1.33v-2.41c0-.2.08-.28.29-.28h1.48l.06-.94c-.6-.11-1.43-.11-2.15-.11-.69 0-1.02.3-1.02.93v2.81zm29.49-11.22h-2.18v.82h2.18v-.82zm-5.84.28h-.53c-.35 0-.42-.09-.42-.46 0-.28.07-.34.42-.34h.53v.8zm-1.45.46c-.22.02-.61.08-.71.4l-.29 1.17h1.38l.23-.99c.03-.17.11-.22.34-.22h.49v1.2h1.3V96.4c-.46-.05-.85-.06-1.86-.06-1.36 0-1.69.26-1.69 1.19 0 .44.18.87.8.99v.03zm-1.53-2.12h-1.32v1.3h-1.13v-1.3h-1.33v3.69h1.33v-1.49h1.13v1.49h1.32v-3.69zm-5.56 3.69h1.36l-1.1-1.89 1.01-1.8h-1.34l-.73 1.38-.73-1.38h-1.34l1.01 1.8-1.1 1.89h1.36l.8-1.48.8 1.48zm-3-3.69h-1.44l-.54 2.2c-.04.17-.1.42-.16.63h-.08c-.03-.21-.07-.42-.1-.63l-.56-2.2h-1.43l1.14 3.37c.06.19.22.32.43.32h.24c-.1.19-.24.36-.39.44-.24.13-.56.17-1.03.16l-.11.88c.53.1 1.08.1 1.52-.07.57-.21 1-.57 1.26-1.43l1.25-3.67zm-6.06 1c1.02-.13 1.05-.59 1.61-2.43h-1.42c-.4 1.54-.5 2-1.22 2h-.25c.04-.21.06-.43.06-.64V95h-1.39v5.12h1.39V98.4c0-.14-.02-.31-.06-.47h.27c.71 0 .77.33 1.3 2.19h1.45c-.63-2.1-.7-2.5-1.75-2.65v-.04z" class="st1"/><path d="M123.14 95h32.84v23.02h-32.84z" class="st35"/></g></switch></svg>