<?xml version="1.0" encoding="UTF-8"?>
<svg id="_Слой_1" data-name="Слой_1" xmlns="http://www.w3.org/2000/svg" version="1.1" viewBox="0 0 1000 1000">
  <!-- Generator: Adobe Illustrator 29.4.0, SVG Export Plug-In . SVG Version: 2.1.0 Build 152)  -->
  <defs>
    <style>
      .st0 {
        fill: #f7c7d0;
      }

      .st1, .st2 {
        fill: none;
        stroke: #3c3c3b;
        stroke-width: .75px;
      }

      .st3 {
        fill: #3c3c3b;
      }

      .st2 {
        stroke-dasharray: 3.9 3.9;
      }
    </style>
  </defs>
  <rect class="st0" x="307.49" y="568.22" width="443.06" height="336.46"/>
  <rect class="st0" x="305.83" y="165.19" width="225.27" height="426.66"/>
  <rect class="st0" x="452.98" y="428.46" width="290.62" height="426.66"/>
  <rect class="st1" x="307.61" y="74.34" width="218.51" height="6.23"/>
  <rect class="st3" x="299.98" y="138.59" width="91.43" height="6.23"/>
  <rect class="st1" x="299.98" y="138.59" width="91.43" height="6.23"/>
  <rect class="st3" x="299.98" y="143.69" width="86.02" height="20.34"/>
  <rect class="st1" x="299.98" y="143.69" width="86.02" height="20.34"/>
  <rect class="st3" x="290.98" y="72.56" width="27.24" height="856.85"/>
  <rect class="st1" x="290.98" y="72.56" width="27.24" height="856.86"/>
  <rect class="st3" x="482.06" y="138.59" width="55.71" height="6.23"/>
  <rect class="st1" x="482.06" y="138.59" width="55.71" height="6.23"/>
  <rect class="st3" x="487.46" y="143.69" width="51.56" height="20.34"/>
  <rect class="st1" x="487.46" y="143.69" width="51.56" height="20.34"/>
  <rect class="st1" x="356.25" y="138.59" width="90.27" height="6.23"/>
  <rect class="st1" x="356.25" y="144.83" width="84.87" height="19.2"/>
  <path class="st1" d="M441.56,145.36s2.12,8.98,4.4,15.13c2.28,6.15,5.04,9.52,5.04,9.52l40.16-23.14-1.2-1.93-40.38,22.72"/>
  <polygon class="st3" points="342.99 162.57 316.15 189.41 307.75 162.57 326.96 153.87 342.99 162.57"/>
  <polygon class="st1" points="342.99 162.57 316.15 189.41 307.75 162.57 326.96 153.87 342.99 162.57"/>
  <rect class="st3" x="745.7" y="414.79" width="11.94" height="79.71"/>
  <rect class="st1" x="745.7" y="414.79" width="11.94" height="79.71"/>
  <rect class="st3" x="745.7" y="557" width="11.94" height="50.36"/>
  <rect class="st1" x="745.7" y="557" width="11.94" height="50.36"/>
  <rect class="st3" x="626.84" y="556.52" width="130.8" height="9.9"/>
  <rect class="st3" x="528.79" y="557.91" width="41.18" height="9.9"/>
  <rect class="st3" x="531.1" y="415.54" width="226.54" height="13.83"/>
  <rect class="st1" x="531.1" y="415.54" width="219.94" height="13.83"/>
  <rect class="st3" x="312.89" y="378.71" width="159.76" height="10.14"/>
  <rect class="st1" x="312.89" y="378.71" width="159.76" height="10.14"/>
  <rect class="st3" x="312.89" y="557.65" width="159.03" height="9.9"/>
  <rect class="st1" x="312.89" y="557.65" width="159.03" height="9.9"/>
  <rect class="st3" x="525.83" y="69.56" width="11.94" height="410.53"/>
  <rect class="st1" x="525.83" y="69.56" width="11.94" height="410.53"/>
  <rect class="st3" x="525.83" y="534.79" width="11.94" height="394.33"/>
  <rect class="st1" x="525.83" y="534.79" width="11.94" height="394.33"/>
  <rect class="st3" x="745.7" y="558.68" width="11.94" height="370.39"/>
  <path class="st1" d="M752.98,493.8s-7.83,0-17.59,3.45c-8.16,2.89-15.79,8.64-15.79,8.64l32.33,56.77,1.93-1.21-32.34-56.88"/>
  <rect class="st1" x="337.78" y="503.08" width="18.16" height="54.05"/>
  <line class="st1" x1="340.62" y1="556.98" x2="340.62" y2="502.8"/>
  <polyline class="st1" points="340.62 554.32 353.72 553.12 353.72 518.93 340.62 517.43 340.62 515.18 353.87 513.68 353.87 506.03 340.62 504.38"/>
  <rect class="st1" x="319.6" y="503.08" width="18.16" height="54.05"/>
  <line class="st1" x1="322.44" y1="503.22" x2="322.44" y2="557.4"/>
  <polyline class="st1" points="322.43 505.88 335.54 507.08 335.54 541.28 322.43 542.77 322.43 545.02 335.68 546.52 335.68 554.17 322.43 555.82"/>
  <rect class="st3" x="700.98" y="922.84" width="56.66" height="6.23"/>
  <rect class="st1" x="700.98" y="922.84" width="56.66" height="6.23"/>
  <rect class="st3" x="705.62" y="903.63" width="52.02" height="20.34"/>
  <rect class="st1" x="705.62" y="903.63" width="52.02" height="20.34"/>
  <rect class="st3" x="479.74" y="922.84" width="65.96" height="6.23"/>
  <rect class="st1" x="479.74" y="922.84" width="65.96" height="6.23"/>
  <rect class="st3" x="485.14" y="903.63" width="60.56" height="20.34"/>
  <rect class="st1" x="485.14" y="903.63" width="60.56" height="20.34"/>
  <rect class="st3" x="296.38" y="922.84" width="65.96" height="6.23"/>
  <rect class="st1" x="296.38" y="922.84" width="65.96" height="6.23"/>
  <rect class="st3" x="296.38" y="903.63" width="60.56" height="20.34"/>
  <rect class="st1" x="296.38" y="903.63" width="60.56" height="20.34"/>
  <rect class="st3" x="520.14" y="922.84" width="65.96" height="6.23"/>
  <rect class="st1" x="520.14" y="922.84" width="65.96" height="6.23"/>
  <rect class="st3" x="520.14" y="903.63" width="60.56" height="20.34"/>
  <rect class="st1" x="520.14" y="903.63" width="60.56" height="20.34"/>
  <rect class="st1" x="565.61" y="922.84" width="174.32" height="6.23"/>
  <rect class="st1" x="331.5" y="922.84" width="174.32" height="6.23"/>
  <rect class="st1" x="565.61" y="903.63" width="163.95" height="19.2"/>
  <rect class="st1" x="331.5" y="903.63" width="163.95" height="19.2"/>
  <path class="st3" d="M407.51,530.1c0,6.6-5.37,11.98-11.98,11.98h-17.35c-1.14,0-2.07-.93-2.07-2.06v-19.82c0-1.14.93-2.07,2.07-2.07h17.35c6.61,0,11.98,5.37,11.98,11.98M375.29,520.19v19.82c0,1.59,1.3,2.89,2.89,2.89h17.35c7.06,0,12.8-5.74,12.8-12.8s-5.74-12.8-12.8-12.8h-17.35c-1.59,0-2.89,1.3-2.89,2.89"/>
  <path class="st1" d="M407.51,530.1c0,6.6-5.37,11.98-11.98,11.98h-17.35c-1.14,0-2.07-.93-2.07-2.06v-19.82c0-1.14.93-2.07,2.07-2.07h17.35c6.61,0,11.98,5.37,11.98,11.98ZM375.29,520.19v19.82c0,1.59,1.3,2.89,2.89,2.89h17.35c7.06,0,12.8-5.74,12.8-12.8s-5.74-12.8-12.8-12.8h-17.35c-1.59,0-2.89,1.3-2.89,2.89Z"/>
  <path class="st1" d="M381.9,538.69v-17.17c0-.11.1-.21.21-.21h13.08c4.83,0,8.8,3.96,8.8,8.8s-3.96,8.79-8.8,8.79h-13.08c-.11,0-.21-.1-.21-.21Z"/>
  <path class="st3" d="M382.31,538.49v-16.77h12.87c4.62,0,8.38,3.76,8.38,8.38s-3.76,8.38-8.38,8.38h-12.87ZM381.49,521.52v17.17c0,.33.28.62.62.62h13.08c5.08,0,9.21-4.13,9.21-9.21s-4.13-9.21-9.21-9.21h-13.08c-.34,0-.62.29-.62.62"/>
  <path class="st1" d="M382.31,538.49v-16.77h12.87c4.62,0,8.38,3.76,8.38,8.38s-3.76,8.38-8.38,8.38h-12.87ZM381.49,521.52v17.17c0,.33.28.62.62.62h13.08c5.08,0,9.21-4.13,9.21-9.21s-4.13-9.21-9.21-9.21h-13.08c-.34,0-.62.29-.62.62Z"/>
  <path class="st3" d="M395.2,530.1c0,1.25-1.01,2.26-2.26,2.26s-2.27-1.02-2.27-2.26,1.02-2.27,2.27-2.27,2.26,1.02,2.26,2.27M389.85,530.1c0,1.7,1.38,3.09,3.09,3.09s3.08-1.39,3.08-3.09-1.38-3.09-3.08-3.09-3.09,1.39-3.09,3.09"/>
  <path class="st1" d="M395.2,530.1c0,1.25-1.01,2.26-2.26,2.26s-2.27-1.02-2.27-2.26,1.02-2.27,2.27-2.27,2.26,1.02,2.26,2.27ZM389.85,530.1c0,1.7,1.38,3.09,3.09,3.09s3.08-1.39,3.08-3.09-1.38-3.09-3.08-3.09-3.09,1.39-3.09,3.09Z"/>
  <polygon class="st3" points="383.56 536.79 384.05 537.45 389.55 533.34 389.06 532.68 383.56 536.79"/>
  <polygon class="st1" points="383.56 536.79 384.05 537.45 389.55 533.34 389.06 532.68 383.56 536.79"/>
  <rect class="st3" x="386.14" y="521.84" width=".82" height="6.87" transform="translate(-265.6 520.12) rotate(-53.2)"/>
  <rect class="st1" x="386.14" y="521.84" width=".82" height="6.87" transform="translate(-265.6 520.12) rotate(-53.2)"/>
  <path class="st3" d="M375.25,538.37c0,1.83-1.49,3.32-3.32,3.32h-4.51c-1.83,0-3.32-1.49-3.32-3.32v-16.54c0-1.83,1.49-3.32,3.32-3.32h4.51c1.83,0,3.32,1.49,3.32,3.32v16.54ZM363.27,521.83v16.54c0,2.28,1.86,4.14,4.14,4.14h4.51c2.28,0,4.14-1.86,4.14-4.14v-16.54c0-2.28-1.86-4.14-4.14-4.14h-4.51c-2.29,0-4.14,1.86-4.14,4.14"/>
  <path class="st1" d="M375.25,538.37c0,1.83-1.49,3.32-3.32,3.32h-4.51c-1.83,0-3.32-1.49-3.32-3.32v-16.54c0-1.83,1.49-3.32,3.32-3.32h4.51c1.83,0,3.32,1.49,3.32,3.32v16.54ZM363.27,521.83v16.54c0,2.28,1.86,4.14,4.14,4.14h4.51c2.28,0,4.14-1.86,4.14-4.14v-16.54c0-2.28-1.86-4.14-4.14-4.14h-4.51c-2.29,0-4.14,1.86-4.14,4.14Z"/>
  <path class="st3" d="M370.95,530.1c0,.71-.58,1.28-1.29,1.28s-1.28-.58-1.28-1.28.58-1.28,1.28-1.28,1.29.58,1.29,1.28M367.56,530.1c0,1.16.94,2.11,2.11,2.11s2.11-.94,2.11-2.11-.95-2.11-2.11-2.11-2.11.95-2.11,2.11"/>
  <path class="st1" d="M370.95,530.1c0,.71-.58,1.28-1.29,1.28s-1.28-.58-1.28-1.28.58-1.28,1.28-1.28,1.29.58,1.29,1.28ZM367.56,530.1c0,1.16.94,2.11,2.11,2.11s2.11-.94,2.11-2.11-.95-2.11-2.11-2.11-2.11.95-2.11,2.11Z"/>
  <path class="st1" d="M447.65,517.6s2.91-.27,11.03,2.6c6.8,2.41,13.15,7.2,13.15,7.2l-19.42,33.42-1.61-1,19.43-33.51"/>
  <path class="st1" d="M447.65,462.58s2.91.27,11.03-2.6c6.8-2.41,13.15-7.2,13.15-7.2l-19.42-33.42-1.61,1,19.43,33.51"/>
  <rect class="st3" x="448.23" y="388.25" width="6.53" height="38.01"/>
  <rect class="st1" x="448.23" y="388.25" width="6.53" height="38.01"/>
  <rect class="st3" x="448.23" y="461.25" width="6.53" height="56.06"/>
  <rect class="st1" x="448.23" y="461.25" width="6.53" height="56.06"/>
  <path class="st1" d="M447.67,517.66s2.91-.27,11.03,2.6c6.8,2.41,13.15,7.2,13.15,7.2l-19.42,33.42-1.61-1,19.43-33.51"/>
  <path class="st1" d="M447.67,462.65s2.91.27,11.03-2.6c6.8-2.41,13.15-7.2,13.15-7.2l-19.42-33.42-1.61,1,19.43,33.51"/>
  <rect class="st3" x="448.26" y="388.32" width="6.53" height="38.01"/>
  <rect class="st1" x="448.26" y="388.32" width="6.53" height="38.01"/>
  <rect class="st3" x="448.26" y="461.31" width="6.53" height="56.06"/>
  <rect class="st1" x="448.26" y="461.31" width="6.53" height="56.06"/>
  <rect class="st3" x="311.99" y="496.67" width="137.7" height="5.03"/>
  <rect class="st1" x="311.99" y="496.67" width="137.7" height="5.03"/>
  <path class="st3" d="M386.51,470.97c-6.03,0-10.94,4.91-10.94,10.95v11.61c0,.92.75,1.66,1.66,1.66h24.74c.92,0,1.66-.75,1.66-1.66v-11.61c0-6.04-4.91-10.95-10.95-10.95h-6.18ZM401.97,495.8h-24.74c-1.26,0-2.28-1.02-2.28-2.28v-11.61c0-6.38,5.18-11.56,11.56-11.56h6.18c6.38,0,11.56,5.19,11.56,11.56v11.61c0,1.26-1.02,2.28-2.28,2.28"/>
  <path class="st1" d="M386.51,470.97c-6.03,0-10.94,4.91-10.94,10.95v11.61c0,.92.75,1.66,1.66,1.66h24.74c.92,0,1.66-.75,1.66-1.66v-11.61c0-6.04-4.91-10.95-10.95-10.95h-6.18ZM401.97,495.8h-24.74c-1.26,0-2.28-1.02-2.28-2.28v-11.61c0-6.38,5.18-11.56,11.56-11.56h6.18c6.38,0,11.56,5.19,11.56,11.56v11.61c0,1.26-1.02,2.28-2.28,2.28Z"/>
  <path class="st3" d="M386.51,473.71c-4.52,0-8.2,3.68-8.2,8.21v6.78c0,.79.64,1.43,1.43,1.43h19.72c.79,0,1.43-.64,1.43-1.43v-6.78c0-4.53-3.68-8.21-8.2-8.21h-6.18ZM399.46,490.74h-19.72c-1.13,0-2.05-.92-2.05-2.05v-6.78c0-4.87,3.96-8.82,8.82-8.82h6.18c4.86,0,8.82,3.96,8.82,8.82v6.78c0,1.13-.92,2.05-2.05,2.05"/>
  <path class="st1" d="M386.51,473.71c-4.52,0-8.2,3.68-8.2,8.21v6.78c0,.79.64,1.43,1.43,1.43h19.72c.79,0,1.43-.64,1.43-1.43v-6.78c0-4.53-3.68-8.21-8.2-8.21h-6.18ZM399.46,490.74h-19.72c-1.13,0-2.05-.92-2.05-2.05v-6.78c0-4.87,3.96-8.82,8.82-8.82h6.18c4.86,0,8.82,3.96,8.82,8.82v6.78c0,1.13-.92,2.05-2.05,2.05Z"/>
  <path class="st3" d="M389.6,479.45c-.75,0-1.37.62-1.37,1.37s.62,1.37,1.37,1.37,1.37-.61,1.37-1.37-.62-1.37-1.37-1.37M389.6,482.81c-1.1,0-1.99-.89-1.99-1.99s.89-1.99,1.99-1.99,1.99.89,1.99,1.99-.89,1.99-1.99,1.99"/>
  <path class="st1" d="M389.6,479.45c-.75,0-1.37.62-1.37,1.37s.62,1.37,1.37,1.37,1.37-.61,1.37-1.37-.62-1.37-1.37-1.37ZM389.6,482.81c-1.1,0-1.99-.89-1.99-1.99s.89-1.99,1.99-1.99,1.99.89,1.99,1.99-.89,1.99-1.99,1.99Z"/>
  <rect class="st1" x="408.55" y="458.43" width="36.34" height="37.05"/>
  <line class="st1" x1="409.05" y1="458.32" x2="444.77" y2="495.34"/>
  <line class="st1" x1="445.19" y1="458.32" x2="409.46" y2="495.34"/>
  <path class="st3" d="M314.95,880.52l25.21,25.21s-1.2,10.61-6.9,10.61-17.71,5.81-21.31,0c-3.6-5.81-5.1-.11-4.2-10.61.9-10.51,7.2-25.21,7.2-25.21"/>
  <path class="st1" d="M314.95,880.52l25.21,25.21s-1.2,10.61-6.9,10.61-17.71,5.81-21.31,0c-3.6-5.81-5.1-.11-4.2-10.61.9-10.51,7.2-25.21,7.2-25.21Z"/>
  <path class="st1" d="M472.24,379.96s0-5.83,2.54-13.1c2.13-6.08,6.37-11.76,6.37-11.76l46.38,26.44-.89,1.44-46.46-26.45"/>
  <path class="st1" d="M472.24,566.99s0,5.83,2.54,13.1c2.13,6.08,6.37,11.76,6.37,11.76l46.38-26.44-.89-1.44-46.46,26.45"/>
  <path class="st1" d="M628.79,566.53s0,6.08-2.75,13.64c-2.3,6.33-6.88,12.25-6.88,12.25l-50.13-27.53.96-1.5,50.23,27.54"/>
  <ellipse class="st1" cx="349.47" cy="474.34" rx="1.68" ry="1.69"/>
  <path class="st1" d="M341.79,393.92h15.35c6.12,0,11.08,4.96,11.08,11.08v76.09c0,6.11-4.96,11.08-11.08,11.08h-15.35c-6.11,0-11.08-4.96-11.08-11.08v-76.09c0-6.11,4.96-11.08,11.08-11.08Z"/>
  <rect class="st1" x="334.22" y="400.74" width="30.5" height="84.6" rx="11.08" ry="11.08"/>
  <rect class="st1" x="337.59" y="408.98" width="23.76" height="72.6" rx="5.54" ry="5.54"/>
  <polygon class="st1" points="371.36 496.02 371.36 496.02 371.36 390.07 327.58 390.07 327.58 496.02 371.36 496.02"/>
  <rect class="st3" x="315.85" y="383.78" width="10.51" height="117.21"/>
  <rect class="st1" x="315.85" y="383.78" width="10.51" height="117.21"/>
  <path class="st3" d="M390.32,569.43h-35.47v35.47h35.47v-35.47ZM354.06,568.64h37.04v37.04h-37.04v-37.04Z"/>
  <path class="st1" d="M390.32,569.43h-35.47v35.47h35.47v-35.47ZM354.06,568.64h37.04v37.04h-37.04v-37.04Z"/>
  <path class="st3" d="M385.01,601.66c.87,0,1.59-.71,1.59-1.59v-18.64c0-.88-.71-1.59-1.59-1.59h-24.85c-.87,0-1.59.71-1.59,1.59v18.64c0,.88.71,1.59,1.59,1.59h24.85ZM360.16,579.06h24.85c1.31,0,2.37,1.07,2.37,2.38v18.64c0,1.31-1.07,2.37-2.37,2.37h-24.85c-1.31,0-2.37-1.07-2.37-2.37v-18.64c0-1.31,1.06-2.38,2.37-2.38"/>
  <path class="st1" d="M385.01,601.66c.87,0,1.59-.71,1.59-1.59v-18.64c0-.88-.71-1.59-1.59-1.59h-24.85c-.87,0-1.59.71-1.59,1.59v18.64c0,.88.71,1.59,1.59,1.59h24.85ZM360.16,579.06h24.85c1.31,0,2.37,1.07,2.37,2.38v18.64c0,1.31-1.07,2.37-2.37,2.37h-24.85c-1.31,0-2.37-1.07-2.37-2.37v-18.64c0-1.31,1.06-2.38,2.37-2.38Z"/>
  <path class="st3" d="M383.83,582.6h-22.5v16.3h22.5v-16.3ZM360.54,581.82h24.07v17.87h-24.07v-17.87Z"/>
  <path class="st1" d="M383.83,582.6h-22.5v16.3h22.5v-16.3ZM360.54,581.82h24.07v17.87h-24.07v-17.87Z"/>
  <path class="st3" d="M372.58,593.91c1.13,0,2.06-.92,2.06-2.06s-.92-2.06-2.06-2.06-2.06.92-2.06,2.06.92,2.06,2.06,2.06M372.58,589.02c1.57,0,2.84,1.27,2.84,2.84s-1.27,2.84-2.84,2.84-2.84-1.27-2.84-2.84,1.27-2.84,2.84-2.84"/>
  <path class="st1" d="M372.58,593.91c1.13,0,2.06-.92,2.06-2.06s-.92-2.06-2.06-2.06-2.06.92-2.06,2.06.92,2.06,2.06,2.06ZM372.58,589.02c1.57,0,2.84,1.27,2.84,2.84s-1.27,2.84-2.84,2.84-2.84-1.27-2.84-2.84,1.27-2.84,2.84-2.84Z"/>
  <path class="st3" d="M431.74,666.79v-2.49h-5.14c-.02-.08-.02-.21-.02-.37,0-.38.1-.77.3-1.18s.46-.8.78-1.18c.32-.38.67-.78,1.05-1.19.39-.42.77-.86,1.15-1.34.38-.48.73-.98,1.05-1.51.32-.53.58-1.13.78-1.81.2-.68.3-1.4.3-2.14,0-1.4-.35-2.48-1.04-3.23-.69-.76-1.7-1.13-3.02-1.13s-2.34.38-3.04,1.13c-.7.76-1.05,1.83-1.05,3.23v1.7h2.6v-1.87c0-1.14.47-1.71,1.41-1.71.47,0,.82.15,1.05.44.23.29.35.81.35,1.55,0,.68-.1,1.32-.29,1.91-.2.59-.46,1.12-.77,1.57-.32.45-.67.89-1.05,1.32-.39.43-.77.86-1.16,1.29-.39.43-.74.88-1.06,1.33-.32.46-.58.99-.78,1.6-.2.61-.3,1.26-.3,1.95v2.13h7.89ZM421.97,664.28h-2.73v2.51h2.73v-2.51ZM411.96,659.66c0-1.14.47-1.71,1.42-1.71s1.41.57,1.41,1.71v3.13c0,1.13-.47,1.7-1.41,1.7s-1.42-.57-1.42-1.7v-3.13ZM410.31,665.85c.72.76,1.74,1.14,3.07,1.14s2.35-.38,3.07-1.14c.71-.76,1.07-1.83,1.07-3.23v-3.18c0-1.29-.25-2.28-.76-2.96-.51-.68-1.26-1.02-2.26-1.02-1.2,0-2.05.51-2.53,1.54v-3.18c0-.79.12-1.35.37-1.66.25-.32.63-.47,1.15-.47.95,0,1.42.57,1.42,1.71v.62h2.57v-.45c0-1.4-.35-2.48-1.04-3.23-.69-.76-1.7-1.13-3.02-1.13-2.78,0-4.17,1.51-4.17,4.52v8.89c0,1.39.36,2.47,1.07,3.23"/>
  <path class="st3" d="M467.85,622.73l1.32,8.75h-2.63l1.31-8.75ZM465.71,637l.47-3.15h3.34l.47,3.15h2.73l-2.77-17.38h-4.21l-2.77,17.38h2.73ZM461.72,637v-17.38h-2.73v14.9h-2.36v-14.9h-2.73v14.9h-2.36v-14.9h-2.73v17.38h12.91ZM441.01,637l2.3-7.96,1.1-4.26v12.22h2.73v-17.38h-3.27l-2.23,7.18-.99,3.83v-11.01h-2.44v17.38h2.8ZM430.34,637v-7.44h3.1v7.44h2.73v-17.38h-2.73v7.46h-3.1v-7.46h-2.73v17.38h2.73ZM425.76,627.07h-4.96v2.49h4.96v-2.49ZM413.5,623.89c0-.62.11-1.08.33-1.36.22-.29.58-.43,1.06-.43h1.31v5.35h-1.07c-.54,0-.95-.14-1.22-.42-.28-.28-.41-.75-.41-1.42v-1.71ZM413.23,637c.06-.2.11-.35.13-.46.02-.1.05-.29.08-.58.03-.29.04-.65.04-1.1v-2.73c0-.8.14-1.37.43-1.71.28-.34.73-.51,1.36-.51h.94v7.08h2.73v-17.38h-4.12c-1.4,0-2.42.33-3.07.98-.65.65-.97,1.66-.97,3.02v1.37c0,1.79.59,2.97,1.78,3.53-.65.28-1.12.72-1.39,1.33-.28.62-.41,1.4-.41,2.37v2.68c0,.94-.08,1.64-.25,2.11h2.73ZM403.08,637v-7.44h3.1v7.44h2.73v-17.38h-2.73v7.46h-3.1v-7.46h-2.73v17.38h2.73ZM391.79,637l2.12-6.47,2.1,6.47h2.73l-3.04-8.86,2.85-8.53h-2.4l-2.1,6.44-2.07-6.44h-2.73l2.86,8.42-3.05,8.96h2.73ZM382.55,632.99l-.02.16c-.11.6-.35.99-.73,1.19-.38.19-.94.27-1.69.22v2.47c.73.05,1.38.02,1.93-.08.55-.1,1.01-.26,1.39-.48.38-.22.7-.53.97-.92.27-.39.48-.82.65-1.29.17-.47.32-1.03.45-1.7l2.92-12.94h-2.73l-1.25,5.96-.64,4.03-.85-4.06-1.47-5.93h-2.73l3.79,13.38ZM372.02,637v-5.33l.85-1.59,2.65,6.92h2.8l-3.79-9.64,3.79-7.75h-2.73l-3.58,7.58v-7.58h-2.73v17.38h2.73Z"/>
  <line class="st2" x1="318.5" y1="678.59" x2="525.19" y2="678.59"/>
  <path class="st3" d="M648.61,737.88c0-1.14.47-1.71,1.43-1.71s1.41.57,1.41,1.71v9.38c0,1.15-.47,1.72-1.41,1.72s-1.43-.57-1.43-1.72v-9.38ZM646.96,750.31c.72.76,1.74,1.14,3.08,1.14s2.36-.38,3.07-1.14c.71-.76,1.07-1.83,1.07-3.23v-9.04c0-1.39-.36-2.47-1.07-3.23-.71-.76-1.73-1.14-3.07-1.14s-2.36.38-3.08,1.14c-.72.76-1.07,1.84-1.07,3.23v9.04c0,1.39.36,2.47,1.07,3.23M644.23,748.75h-2.73v2.51h2.73v-2.51ZM634.12,737.88c0-1.12.47-1.69,1.41-1.69s1.43.56,1.43,1.69v3.13c0,1.14-.47,1.71-1.43,1.71s-1.41-.57-1.41-1.71v-3.13ZM632.16,744.18c.51.68,1.26,1.02,2.26,1.02,1.21,0,2.06-.51,2.55-1.54v3.18c0,.79-.13,1.35-.38,1.67-.25.32-.63.48-1.15.48-.95,0-1.42-.57-1.42-1.72v-.62h-2.57v.45c0,1.4.35,2.48,1.04,3.23.69.76,1.7,1.13,3.03,1.13,2.78,0,4.18-1.5,4.18-4.51v-8.9c0-1.39-.36-2.47-1.07-3.23-.72-.76-1.74-1.14-3.08-1.14s-2.36.38-3.07,1.14c-.71.76-1.07,1.84-1.07,3.23v3.19c0,1.29.25,2.27.76,2.95M625.64,738v13.26h2.73v-17.38h-1.84c-.11.28-.2.51-.28.68-.08.17-.2.37-.36.58-.16.21-.33.38-.53.5-.19.12-.45.22-.76.3s-.68.13-1.08.13v1.93h2.12Z"/>
  <path class="st3" d="M435.95,867.62l-4,14.9h2.73l4.03-15v-2.39h-8.18v2.48h5.43ZM428.81,880.01h-2.73v2.51h2.73v-2.51ZM424.15,882.52v-2.49h-5.14c-.01-.08-.02-.21-.02-.37,0-.38.1-.77.3-1.18.2-.4.46-.79.78-1.18.32-.38.67-.78,1.06-1.19.39-.42.77-.86,1.15-1.34.38-.48.73-.98,1.05-1.51.32-.53.58-1.13.78-1.81.2-.68.3-1.4.3-2.14,0-1.4-.35-2.48-1.04-3.23-.69-.76-1.7-1.13-3.02-1.13s-2.33.38-3.03,1.13c-.7.76-1.05,1.83-1.05,3.23v1.7h2.61v-1.87c0-1.14.47-1.71,1.41-1.71.47,0,.82.14,1.05.44.24.29.35.81.35,1.55,0,.68-.1,1.32-.3,1.91-.2.6-.46,1.12-.77,1.57-.32.45-.67.89-1.05,1.32-.39.43-.77.86-1.16,1.29-.39.43-.74.88-1.06,1.33-.32.46-.58.99-.78,1.6-.2.61-.3,1.26-.3,1.95v2.13h7.89ZM410.22,869.25v13.26h2.73v-17.38h-1.84c-.11.28-.2.51-.28.68-.08.17-.2.37-.36.58-.16.21-.33.38-.53.5-.19.12-.45.22-.76.3-.32.08-.68.13-1.08.13v1.93h2.12Z"/>
  <path class="st3" d="M433.14,284.61c0-1.12.47-1.69,1.41-1.69s1.43.56,1.43,1.69v3.13c0,1.14-.47,1.71-1.43,1.71s-1.41-.57-1.41-1.71v-3.13ZM431.18,290.91c.51.68,1.26,1.02,2.26,1.02,1.21,0,2.06-.51,2.55-1.54v3.18c0,.79-.13,1.35-.38,1.67-.25.32-.63.48-1.15.48-.95,0-1.42-.57-1.42-1.72v-.62h-2.57v.45c0,1.4.35,2.48,1.04,3.23.69.76,1.7,1.13,3.03,1.13,2.78,0,4.18-1.5,4.18-4.51v-8.9c0-1.39-.36-2.47-1.07-3.23-.72-.76-1.74-1.14-3.08-1.14s-2.36.38-3.07,1.14c-.71.76-1.07,1.84-1.07,3.23v3.19c0,1.29.25,2.27.76,2.95M428.81,295.48h-2.73v2.51h2.73v-2.51ZM420.05,284.73v13.26h2.73v-17.38h-1.84c-.11.28-.2.51-.28.68-.08.17-.2.37-.36.58-.16.21-.33.38-.53.5-.19.12-.45.22-.76.3-.31.08-.67.13-1.08.13v1.93h2.12ZM410.22,284.73v13.26h2.73v-17.38h-1.84c-.11.28-.2.51-.28.68-.08.17-.2.37-.36.58-.16.21-.33.38-.53.5-.19.12-.45.22-.76.3-.32.08-.68.13-1.08.13v1.93h2.12Z"/>
  <path class="st3" d="M645.23,517.51c.73.76,1.77,1.13,3.1,1.13s2.34-.38,3.03-1.13c.69-.76,1.04-1.83,1.04-3.23v-1.37c0-1.88-.64-3.1-1.9-3.65,1.27-.53,1.9-1.72,1.9-3.57v-.45c0-1.4-.35-2.48-1.04-3.23-.69-.76-1.7-1.13-3.03-1.13s-2.36.38-3.1,1.13c-.73.76-1.1,1.83-1.1,3.23v.94h2.73v-1.11c0-1.14.47-1.71,1.4-1.71.47,0,.82.15,1.06.44.24.29.36.81.36,1.55v.97c0,.66-.14,1.13-.41,1.41-.27.28-.68.42-1.22.42h-1.07v2.48h.92c.63,0,1.09.17,1.36.51.28.34.42.9.42,1.7v1.37c0,.73-.12,1.24-.36,1.53-.24.29-.59.44-1.06.44-.93,0-1.4-.57-1.4-1.72v-1.61h-2.73v1.44c0,1.4.37,2.48,1.1,3.23M642.39,515.94h-2.73v2.51h2.73v-2.51ZM635.09,503.55l-4,14.9h2.73l4.02-15v-2.39h-8.18v2.49h5.43Z"/>
  <path class="st3" d="M677.6,475.55c0-.62.11-1.08.33-1.36.22-.29.58-.43,1.06-.43h1.31v5.35h-1.07c-.54,0-.95-.14-1.22-.42-.28-.28-.41-.75-.41-1.43v-1.71ZM677.33,488.65c.06-.2.11-.35.13-.46.02-.1.05-.29.08-.58.03-.29.04-.65.04-1.1v-2.73c0-.8.14-1.37.42-1.71.28-.34.74-.51,1.36-.51h.95v7.08h2.73v-17.38h-4.12c-1.4,0-2.42.33-3.07.98-.65.65-.97,1.66-.97,3.02v1.37c0,1.79.6,2.97,1.78,3.53-.65.28-1.12.72-1.39,1.33-.28.62-.41,1.4-.41,2.37v2.68c0,.94-.08,1.64-.25,2.11h2.73ZM669.1,474.39l1.32,8.75h-2.63l1.31-8.75ZM666.96,488.65l.47-3.15h3.34l.48,3.15h2.73l-2.77-17.38h-4.21l-2.77,17.38h2.73ZM651.89,488.65l2.49-7.75.67,1.35v6.4h2.73v-6.37l.68-1.32,2.48,7.69h2.73l-3.35-10.29,3.35-7.09h-2.66l-3.23,7.03v-7.03h-2.73v7.03l-3.24-7.03h-2.66l3.39,7.13-3.39,10.25h2.73ZM642.63,475.27c0-1.14.47-1.71,1.43-1.71s1.41.57,1.41,1.71v9.38c0,1.15-.47,1.72-1.41,1.72s-1.43-.57-1.43-1.72v-9.38ZM640.97,487.71c.72.76,1.74,1.14,3.08,1.14s2.36-.38,3.07-1.14c.71-.76,1.07-1.83,1.07-3.22v-9.04c0-1.39-.36-2.47-1.07-3.23-.71-.76-1.74-1.14-3.07-1.14s-2.36.38-3.08,1.14c-.72.76-1.07,1.84-1.07,3.23v9.04c0,1.39.36,2.47,1.07,3.22M631.57,488.65l2.12-6.47,2.1,6.47h2.73l-3.04-8.86,2.86-8.53h-2.4l-2.1,6.44-2.07-6.44h-2.73l2.86,8.42-3.05,8.96h2.73ZM621.67,488.65l2.3-7.96,1.11-4.26v12.22h2.73v-17.38h-3.27l-2.23,7.18-1,3.83v-11.01h-2.44v17.38h2.8ZM612.23,473.75h1.3c.45,0,.79.12,1.01.37s.33.67.33,1.27v2.61c0,.6-.11,1.02-.33,1.27-.22.25-.55.38-1.01.38h-1.3v-5.89ZM612.23,488.65v-6.54h1.3c1.34,0,2.36-.36,3.04-1.1.68-.73,1.02-1.8,1.02-3.19v-2.26c0-1.4-.34-2.47-1.02-3.2-.68-.73-1.7-1.1-3.05-1.1h-4.02v17.38h2.73ZM601.64,488.65v-14.9h3.1v14.9h2.73v-17.38h-8.56v17.38h2.73Z"/>
  <path class="st3" d="M452.48,118.89c1.37,0,2.35-.29,2.95-.86.59-.57.89-1.55.89-2.93v-9.78c0-1.38-.3-2.36-.89-2.94-.59-.58-1.57-.87-2.95-.87h-.84v2.36h.67c.45,0,.78.11.97.33.2.22.3.62.3,1.21v9.59c0,.59-.1.99-.3,1.21-.2.22-.52.33-.97.33h-.67v2.37h.84ZM447.67,103.99l-4,14.9h2.73l4.02-15v-2.39h-8.18v2.48h5.43ZM440.52,116.38h-2.73v2.51h2.73v-2.51ZM431.76,105.63v13.26h2.73v-17.38h-1.84c-.1.28-.2.51-.28.68-.08.17-.2.37-.36.58-.16.21-.33.38-.53.5-.19.12-.45.22-.76.3-.32.08-.68.13-1.08.13v1.93h2.12ZM422.79,118.03c.59.57,1.57.86,2.95.86h.84v-2.37h-.67c-.46,0-.78-.11-.98-.33-.19-.22-.29-.62-.29-1.21v-9.59c0-.59.1-.99.29-1.21.2-.22.52-.33.98-.33h.67v-2.36h-.84c-1.37,0-2.35.29-2.95.87-.59.58-.89,1.56-.89,2.94v9.78c0,1.38.29,2.36.89,2.93M412.68,106.72v6.54h-2.75l2.75-6.54ZM412.68,115.74v3.15h2.73v-3.15h1.25v-2.48h-1.25v-11.75h-2.98l-4.96,11.75v2.48h5.21ZM406.18,116.38h-2.73v2.51h2.73v-2.51ZM394.58,117.95c.73.76,1.77,1.13,3.1,1.13s2.34-.38,3.03-1.13c.69-.76,1.04-1.83,1.04-3.23v-1.37c0-1.88-.63-3.1-1.9-3.65,1.27-.53,1.9-1.72,1.9-3.57v-.45c0-1.4-.35-2.48-1.04-3.23-.69-.76-1.7-1.13-3.03-1.13s-2.36.38-3.1,1.13c-.73.76-1.1,1.83-1.1,3.23v.94h2.73v-1.11c0-1.14.47-1.71,1.4-1.71.47,0,.82.15,1.06.44.24.29.36.81.36,1.55v.97c0,.66-.14,1.14-.41,1.41-.27.28-.68.42-1.22.42h-1.07v2.48h.92c.63,0,1.08.17,1.36.51.28.34.42.9.42,1.7v1.37c0,.73-.12,1.24-.36,1.53-.24.29-.59.44-1.06.44-.93,0-1.4-.57-1.4-1.72v-1.61h-2.73v1.44c0,1.4.37,2.48,1.1,3.23"/>
  <path class="st1" d="M422.48,769.56c19.21,0,34.78-15.57,34.78-34.78s-15.57-34.78-34.78-34.78-34.78,15.57-34.78,34.78,15.57,34.78,34.78,34.78Z"/>
  <path class="st3" d="M428.4,543.55c.44.46,1.06.68,1.86.68s1.41-.23,1.82-.68c.42-.45.62-1.1.62-1.94v-.82c0-1.13-.38-1.86-1.14-2.19.76-.32,1.14-1.03,1.14-2.15v-.27c0-.84-.21-1.48-.62-1.94-.41-.45-1.02-.68-1.82-.68s-1.42.23-1.86.68c-.44.46-.66,1.1-.66,1.94v.57h1.63v-.67c0-.68.28-1.03.84-1.03.28,0,.49.09.63.26.14.17.21.48.21.93v.58c0,.4-.08.68-.25.85-.16.17-.41.25-.73.25h-.64v1.49h.55c.38,0,.65.1.82.3.17.21.25.54.25,1.02v.82c0,.44-.07.74-.21.92-.14.18-.35.26-.63.26-.56,0-.84-.35-.84-1.03v-.97h-1.63v.87c0,.84.22,1.48.66,1.94M426.69,542.61h-1.64v1.51h1.64v-1.51ZM421.44,536.16v7.96h1.64v-10.43h-1.11c-.06.17-.12.31-.17.41-.05.11-.12.22-.22.35-.09.13-.2.23-.32.3-.12.07-.27.13-.46.18-.19.05-.41.08-.65.08v1.16h1.27Z"/>
  <path class="st3" d="M430.91,523.84v.1c-.08.36-.22.6-.45.71-.23.12-.57.16-1.01.13v1.48c.44.03.83.01,1.16-.05.33-.06.61-.16.83-.29.23-.13.42-.32.58-.55.16-.24.29-.49.39-.78.1-.28.19-.62.27-1.02l1.75-7.76h-1.64l-.75,3.58-.38,2.41-.51-2.44-.88-3.56h-1.64l2.27,8.02ZM424.33,526.24l4.11-10.43h-1.42l-4.11,10.43h1.42ZM418.18,525.68c.42.45,1.02.68,1.83.68s1.42-.23,1.86-.68c.44-.45.66-1.1.66-1.94v-1.39h-1.63v1.49c0,.68-.28,1.02-.85,1.02s-.85-.34-.85-1.02v-5.63c0-.68.28-1.02.85-1.02s.85.34.85,1.02v1.12h1.63v-1.02c0-.84-.22-1.48-.66-1.94-.44-.45-1.06-.68-1.86-.68s-1.41.23-1.83.68c-.42.45-.62,1.1-.62,1.94v5.43c0,.84.21,1.48.62,1.94"/>
  <path class="st3" d="M410.56,442.53c.44.45,1.06.68,1.86.68s1.41-.23,1.82-.68c.42-.45.62-1.1.62-1.94v-2.33c0-.78-.15-1.37-.45-1.77-.3-.4-.76-.61-1.36-.61-.65,0-1.12.25-1.43.76l.13-2.49h2.85v-1.49h-4.39l-.31,6.05h1.63v-.31c0-.68.28-1.03.84-1.03s.85.34.85,1.03v2.29c0,.68-.28,1.02-.85,1.02s-.84-.34-.84-1.02v-.97h-1.63v.87c0,.84.22,1.48.66,1.94M408.85,441.59h-1.64v1.51h1.64v-1.51ZM401.89,442.53c.44.45,1.06.68,1.86.68s1.4-.23,1.82-.68c.42-.45.62-1.1.62-1.94v-.82c0-1.13-.38-1.86-1.14-2.19.76-.32,1.14-1.03,1.14-2.15v-.27c0-.84-.21-1.48-.62-1.94-.42-.45-1.02-.68-1.82-.68s-1.42.23-1.86.68c-.44.45-.66,1.1-.66,1.94v.57h1.64v-.67c0-.68.28-1.02.84-1.02.28,0,.49.09.63.26.14.17.21.48.21.93v.58c0,.4-.08.68-.25.85-.17.17-.41.25-.73.25h-.64v1.49h.55c.38,0,.65.1.82.3.17.2.25.54.25,1.02v.82c0,.44-.07.74-.21.92-.14.17-.35.26-.63.26-.56,0-.84-.34-.84-1.03v-.97h-1.64v.87c0,.84.22,1.48.66,1.94"/>
  <path class="st3" d="M422.57,417.35c0-.37.07-.65.2-.82.13-.17.35-.26.64-.26h.79v3.21h-.64c-.32,0-.57-.08-.73-.25-.17-.17-.25-.45-.25-.86v-1.02ZM422.41,425.22c.04-.12.07-.21.08-.27.01-.06.03-.18.05-.35.02-.17.03-.39.03-.66v-1.63c0-.48.08-.82.25-1.03.17-.2.44-.3.81-.3h.57v4.25h1.64v-10.43h-2.47c-.84,0-1.45.19-1.84.59-.39.39-.58,1-.58,1.81v.82c0,1.08.36,1.78,1.07,2.12-.39.17-.67.43-.84.8-.16.37-.25.84-.25,1.42v1.61c0,.56-.05.98-.15,1.27h1.63ZM417.47,416.66l.79,5.25h-1.58l.79-5.25ZM416.19,425.22l.28-1.89h2.01l.29,1.89h1.63l-1.66-10.43h-2.53l-1.66,10.43h1.64ZM410.26,425.22v-4.47h1.86v4.47h1.63v-10.43h-1.63v4.47h-1.86v-4.47h-1.63v10.43h1.63ZM403.9,425.22v-4.47h1.86v4.47h1.63v-10.43h-1.63v4.47h-1.86v-4.47h-1.63v10.43h1.63ZM398.7,416.66l.79,5.25h-1.58l.79-5.25ZM397.41,425.22l.28-1.89h2.01l.28,1.89h1.64l-1.66-10.43h-2.53l-1.66,10.43h1.64ZM391.8,416.28h.8c.29,0,.5.08.64.26.13.17.2.44.2.82v.58c0,.4-.08.68-.25.85-.17.17-.41.25-.74.25h-.64v-2.76ZM391.8,420.53h.73c.38,0,.65.09.81.28.16.18.24.51.24.99v.91c0,.37-.07.64-.21.79-.14.15-.35.23-.64.23h-.94v-3.2ZM392.74,425.22c.82,0,1.43-.21,1.86-.63.42-.42.63-1.04.63-1.84v-.85c0-1.17-.41-1.92-1.22-2.23.71-.33,1.06-1.04,1.06-2.1v-.37c0-.82-.19-1.42-.58-1.81-.39-.39-1.01-.59-1.84-.59h-2.47v10.43h2.58Z"/>
  <path class="st3" d="M517.22,525.7c.57.59,1.38.88,2.42.88s1.83-.29,2.37-.88c.54-.59.81-1.43.81-2.52v-1.07c0-1.47-.5-2.42-1.48-2.85.99-.41,1.48-1.34,1.48-2.79v-.35c0-1.09-.27-1.93-.81-2.52-.54-.59-1.33-.89-2.37-.89s-1.84.3-2.42.89c-.57.59-.86,1.43-.86,2.52v.74h2.13v-.87c0-.89.36-1.33,1.09-1.33.36,0,.64.11.82.34.18.23.28.63.28,1.21v.76c0,.52-.11.89-.32,1.1-.21.22-.53.33-.96.33h-.83v1.94h.72c.49,0,.84.13,1.06.4s.33.71.33,1.32v1.07c0,.57-.09.97-.28,1.19-.19.23-.46.34-.82.34-.73,0-1.09-.45-1.09-1.34v-1.26h-2.13v1.12c0,1.09.29,1.93.86,2.52M515.01,524.48h-2.13v1.96h2.13v-1.96ZM505.95,525.7c.57.59,1.38.88,2.42.88s1.83-.29,2.37-.88c.54-.59.81-1.43.81-2.52v-1.07c0-1.47-.5-2.42-1.48-2.85.99-.41,1.48-1.34,1.48-2.79v-.35c0-1.09-.27-1.93-.81-2.52-.54-.59-1.33-.89-2.37-.89s-1.84.3-2.42.89c-.57.59-.86,1.43-.86,2.52v.74h2.13v-.87c0-.89.36-1.33,1.09-1.33.36,0,.64.11.82.34.18.23.28.63.28,1.21v.76c0,.52-.11.89-.32,1.1-.21.22-.53.33-.96.33h-.83v1.94h.72c.49,0,.84.13,1.06.4.22.26.33.71.33,1.32v1.07c0,.57-.09.97-.28,1.19-.19.23-.46.34-.82.34-.73,0-1.09-.45-1.09-1.34v-1.26h-2.13v1.12c0,1.09.29,1.93.86,2.52"/>
  <path class="st3" d="M537.33,491.58h1.01c.35,0,.61.1.78.29.17.19.26.52.26.99v2.03c0,.47-.08.8-.26.99-.17.19-.43.29-.78.29h-1.01v-4.6ZM537.33,503.2v-5.1h1.01c1.05,0,1.84-.28,2.37-.86.53-.57.8-1.4.8-2.49v-1.76c0-1.09-.27-1.92-.8-2.5-.53-.57-1.32-.86-2.37-.86h-3.14v13.56h2.13ZM529.48,492.76c0-.89.37-1.33,1.11-1.33s1.1.44,1.1,1.33v7.32c0,.9-.37,1.34-1.1,1.34s-1.11-.45-1.11-1.34v-7.32ZM528.19,502.46c.56.59,1.36.89,2.4.89s1.84-.29,2.4-.89c.55-.59.83-1.43.83-2.52v-7.05c0-1.08-.28-1.92-.83-2.52-.55-.59-1.35-.89-2.4-.89s-1.84.3-2.4.89c-.56.59-.84,1.43-.84,2.52v7.05c0,1.08.28,1.92.84,2.52M520.92,500.61c.1-.26.16-.64.18-1.14l.39-7.9h1.8v9.69h-2.79c.19-.18.33-.39.42-.65M519.71,504.99v-1.8h4.51v1.8h2.13v-3.73h-.93v-11.63h-6.05l-.39,9.88c-.02.42-.07.76-.15,1.02-.08.27-.21.51-.39.73h-.86v3.73h2.13ZM512.01,503.2l1.8-6.21.86-3.32v9.53h2.13v-13.56h-2.55l-1.74,5.6-.78,2.99v-8.59h-1.9v13.56h2.18ZM504.65,491.58h1.01c.35,0,.61.1.79.29.17.19.25.52.25.99v2.03c0,.47-.08.8-.25.99-.17.19-.43.29-.79.29h-1.01v-4.6ZM504.65,503.2v-5.1h1.01c1.05,0,1.84-.28,2.37-.86.53-.57.8-1.4.8-2.49v-1.76c0-1.09-.27-1.92-.8-2.5-.53-.57-1.32-.86-2.37-.86h-3.13v13.56h2.13ZM496.8,492.76c0-.89.37-1.33,1.11-1.33s1.1.44,1.1,1.33v7.32c0,.9-.37,1.34-1.1,1.34s-1.11-.45-1.11-1.34v-7.32ZM495.51,502.46c.56.59,1.36.89,2.4.89s1.84-.29,2.4-.89c.56-.59.83-1.43.83-2.52v-7.05c0-1.08-.28-1.92-.83-2.52-.55-.59-1.35-.89-2.4-.89s-1.84.3-2.4.89c-.56.59-.84,1.43-.84,2.52v7.05c0,1.08.28,1.92.84,2.52M488.97,503.2v-4.16l.66-1.24,2.07,5.4h2.19l-2.96-7.52,2.96-6.04h-2.13l-2.79,5.91v-5.91h-2.13v13.56h2.13Z"/>
  <g>
    <path class="st3" d="M383.34,811.14v-20.02c0-6.79,3.13-10.19,9.4-10.19,2.98,0,5.25.85,6.81,2.55,1.56,1.7,2.34,4.13,2.34,7.28v1.01h-5.79v-1.39c0-2.57-1.06-3.85-3.2-3.85-1.17,0-2.03.35-2.58,1.06-.56.71-.83,1.96-.83,3.74v7.16c1.09-2.31,2.99-3.47,5.71-3.47,2.25,0,3.94.76,5.09,2.29s1.71,3.75,1.71,6.66v7.16c0,3.13-.8,5.55-2.41,7.26-1.6,1.71-3.91,2.57-6.91,2.57s-5.31-.86-6.92-2.57c-1.61-1.71-2.42-4.13-2.42-7.26ZM389.49,811.52c0,2.55,1.06,3.82,3.2,3.82s3.17-1.27,3.17-3.82v-7.05c0-2.57-1.06-3.85-3.17-3.85s-3.2,1.28-3.2,3.85v7.05Z"/>
    <path class="st3" d="M405.49,811.14v-20.02c0-6.79,3.13-10.19,9.4-10.19,2.98,0,5.25.85,6.81,2.55,1.56,1.7,2.34,4.13,2.34,7.28v1.01h-5.79v-1.39c0-2.57-1.06-3.85-3.2-3.85-1.17,0-2.03.35-2.58,1.06-.56.71-.83,1.96-.83,3.74v7.16c1.09-2.31,2.99-3.47,5.71-3.47,2.25,0,3.94.76,5.09,2.29s1.71,3.75,1.71,6.66v7.16c0,3.13-.8,5.55-2.41,7.26-1.6,1.71-3.91,2.57-6.91,2.57s-5.31-.86-6.92-2.57c-1.61-1.71-2.42-4.13-2.42-7.26ZM411.64,811.52c0,2.55,1.06,3.82,3.2,3.82s3.17-1.27,3.17-3.82v-7.05c0-2.57-1.06-3.85-3.17-3.85s-3.2,1.28-3.2,3.85v7.05Z"/>
    <path class="st3" d="M428.02,820.53v-5.65h6.15v5.65h-6.15Z"/>
    <path class="st3" d="M437.77,797.95v-7.18c0-3.13.8-5.55,2.41-7.26,1.6-1.71,3.91-2.57,6.92-2.57s5.32.86,6.93,2.57c1.61,1.71,2.42,4.13,2.42,7.26v20.05c0,6.77-3.14,10.16-9.41,10.16-2.98,0-5.25-.85-6.82-2.55s-2.34-4.13-2.34-7.28v-1.01h5.79v1.39c0,2.59,1.07,3.88,3.21,3.88,1.15,0,2.01-.36,2.58-1.08.57-.72.85-1.97.85-3.76v-7.16c-1.1,2.31-3.01,3.47-5.73,3.47-2.25,0-3.95-.76-5.09-2.29-1.14-1.53-1.71-3.74-1.71-6.64ZM443.92,797.43c0,2.57,1.06,3.85,3.18,3.85s3.21-1.28,3.21-3.85v-7.05c0-2.53-1.07-3.8-3.21-3.8s-3.18,1.27-3.18,3.8v7.05Z"/>
  </g>
  <g>
    <path class="st3" d="M406.19,743.8v-2.65h5v2.96c0,2.11.86,3.16,2.57,3.16.86,0,1.5-.27,1.94-.8.44-.53.65-1.47.65-2.8v-2.51c0-1.45-.26-2.49-.77-3.11-.51-.62-1.35-.93-2.5-.93h-1.69v-4.56h1.96c.99,0,1.74-.26,2.25-.77s.76-1.38.76-2.59v-1.78c0-1.36-.22-2.31-.65-2.85-.44-.53-1.08-.8-1.94-.8-1.71,0-2.57,1.04-2.57,3.13v2.05h-5v-1.73c0-2.56.67-4.54,2.02-5.93,1.35-1.39,3.24-2.08,5.68-2.08s4.29.69,5.56,2.08c1.27,1.39,1.9,3.36,1.9,5.93v.82c0,3.41-1.16,5.6-3.49,6.56,2.33,1.01,3.49,3.24,3.49,6.69v2.51c0,2.56-.63,4.54-1.9,5.92-1.27,1.39-3.12,2.08-5.56,2.08s-4.33-.69-5.68-2.08c-1.35-1.39-2.02-3.36-2.02-5.92Z"/>
    <path class="st3" d="M424.07,743.8v-16.59c0-2.56.63-4.54,1.9-5.93,1.27-1.39,3.13-2.08,5.58-2.08s4.35.69,5.7,2.08c1.35,1.39,2.02,3.36,2.02,5.93v3.11h-5v-3.42c0-2.09-.86-3.13-2.59-3.13s-2.61,1.04-2.61,3.13v17.21c0,2.08.87,3.11,2.61,3.11s2.59-1.04,2.59-3.11v-4.56h5v4.25c0,2.56-.67,4.54-2.02,5.92-1.35,1.39-3.25,2.08-5.7,2.08s-4.31-.69-5.58-2.08c-1.27-1.39-1.9-3.36-1.9-5.92Z"/>
  </g>
  <g>
    <path class="st3" d="M581.18,722.05l2.95-8.93-2.95-6.21h2.31l2.82,6.12v-6.12h2.38v6.12l2.82-6.12h2.31l-2.92,6.17,2.92,8.96h-2.38l-2.16-6.69-.59,1.15v5.54h-2.38v-5.57l-.58-1.18-2.17,6.75h-2.38Z"/>
    <path class="st3" d="M594.93,722.05v-15.14h2.12v9.58l.87-3.34,1.94-6.25h2.85v15.14h-2.38v-10.64l-.96,3.71-2,6.93h-2.44Z"/>
    <path class="st3" d="M603.5,722.07v-2.16c.29,0,.52-.01.68-.04.16-.03.3-.1.43-.21s.21-.27.26-.47c.05-.2.08-.48.09-.83l.26-11.44h6.81v15.14h-2.38v-12.97h-2.06l-.26,9.15c-.04,1.38-.33,2.36-.87,2.96-.54.59-1.4.89-2.59.89h-.37Z"/>
    <path class="st3" d="M613.25,722.05l2.41-15.14h3.67l2.41,15.14h-2.38l-.41-2.74h-2.91l-.41,2.74h-2.38ZM616.35,717.24h2.29l-1.15-7.62-1.14,7.62Z"/>
    <path class="st3" d="M622.28,722.05c.15-.41.22-1.02.22-1.84v-2.33c0-.84.12-1.52.36-2.06s.64-.92,1.21-1.16c-1.03-.49-1.55-1.51-1.55-3.07v-1.19c0-1.18.28-2.06.84-2.63.56-.57,1.45-.86,2.67-.86h3.59v15.14h-2.38v-6.16h-.82c-.54,0-.94.15-1.18.44-.25.29-.37.79-.37,1.49v2.38c0,.39-.01.71-.04.96-.02.25-.05.42-.07.51-.02.09-.06.22-.12.4h-2.38ZM624.89,712.12c0,.58.12,1,.36,1.24.24.24.59.36,1.07.36h.93v-4.66h-1.14c-.42,0-.73.12-.92.38s-.29.65-.29,1.19v1.49Z"/>
    <path class="st3" d="M634.7,722.05v-15.14h2.38v6.6l3.11-6.6h2.38l-3.3,6.75,3.3,8.39h-2.44l-2.31-6.03-.74,1.38v4.64h-2.38Z"/>
    <path class="st3" d="M643.44,718.42v-7.87c0-1.21.31-2.15.94-2.81.62-.66,1.52-.99,2.68-.99s2.05.33,2.67.99c.62.66.93,1.6.93,2.81v7.87c0,1.21-.31,2.15-.93,2.81s-1.51.99-2.67.99-2.06-.33-2.68-.99c-.62-.66-.94-1.6-.94-2.81ZM645.81,718.56c0,1,.41,1.5,1.24,1.5s1.23-.5,1.23-1.5v-8.17c0-.99-.41-1.49-1.23-1.49s-1.24.5-1.24,1.49v8.17Z"/>
    <path class="st3" d="M652.18,722.05v-15.14h3.3l1.76,10.78,1.63-10.78h3.42v15.14h-2.38v-10.85l-1.64,10.85h-2.25l-1.77-10.68v10.68h-2.07Z"/>
    <path class="st3" d="M663.88,722.05v-15.14h2.38v6.49h2.7v-6.49h2.38v15.14h-2.38v-6.48h-2.7v6.48h-2.38Z"/>
    <path class="st3" d="M672.49,722.05l2.41-15.14h3.67l2.41,15.14h-2.38l-.41-2.74h-2.91l-.41,2.74h-2.38ZM675.58,717.24h2.29l-1.15-7.62-1.14,7.62Z"/>
    <path class="st3" d="M681.21,709.07v-2.16h7.36v2.16h-2.49v12.97h-2.38v-12.97h-2.49Z"/>
    <path class="st3" d="M688.98,722.05l2.41-15.14h3.67l2.41,15.14h-2.38l-.41-2.74h-2.91l-.41,2.74h-2.38ZM692.07,717.24h2.29l-1.15-7.62-1.14,7.62Z"/>
  </g>
  <g>
    <path class="st3" d="M362.51,852.62l2.95-8.93-2.95-6.21h2.31l2.82,6.12v-6.12h2.38v6.12l2.82-6.12h2.31l-2.92,6.17,2.92,8.96h-2.38l-2.16-6.69-.59,1.15v5.54h-2.38v-5.57l-.58-1.18-2.17,6.75h-2.38Z"/>
    <path class="st3" d="M376.26,852.62v-15.14h2.12v9.58l.87-3.34,1.94-6.25h2.85v15.14h-2.38v-10.64l-.96,3.71-2,6.93h-2.44Z"/>
    <path class="st3" d="M384.83,852.64v-2.16c.29,0,.52-.01.68-.04.16-.03.3-.1.43-.21s.21-.27.26-.47c.05-.2.08-.48.09-.83l.26-11.44h6.81v15.14h-2.38v-12.97h-2.06l-.26,9.15c-.04,1.38-.33,2.36-.87,2.96-.54.59-1.4.89-2.59.89h-.37Z"/>
    <path class="st3" d="M394.58,852.62l2.41-15.14h3.67l2.41,15.14h-2.38l-.41-2.74h-2.91l-.41,2.74h-2.38ZM397.67,847.81h2.29l-1.15-7.62-1.14,7.62Z"/>
    <path class="st3" d="M403.6,852.62c.15-.41.22-1.02.22-1.84v-2.33c0-.84.12-1.52.36-2.06.24-.54.64-.92,1.21-1.16-1.03-.49-1.55-1.51-1.55-3.07v-1.19c0-1.18.28-2.06.84-2.63s1.45-.86,2.67-.86h3.59v15.14h-2.37v-6.16h-.82c-.54,0-.94.15-1.18.44-.25.29-.37.79-.37,1.49v2.38c0,.39-.01.71-.04.96-.02.25-.05.42-.07.51-.02.09-.06.22-.12.4h-2.38ZM406.22,842.69c0,.58.12,1,.36,1.24.24.24.59.36,1.07.36h.93v-4.66h-1.14c-.42,0-.73.12-.92.38-.19.25-.29.65-.29,1.19v1.49Z"/>
    <path class="st3" d="M416.03,852.62v-15.14h2.38v6.6l3.11-6.6h2.38l-3.3,6.75,3.3,8.39h-2.44l-2.31-6.03-.74,1.38v4.64h-2.38Z"/>
    <path class="st3" d="M424.77,848.99v-7.87c0-1.21.31-2.15.94-2.81.62-.66,1.52-.99,2.68-.99s2.05.33,2.67.99c.62.66.93,1.6.93,2.81v7.87c0,1.21-.31,2.15-.93,2.81s-1.51.99-2.67.99-2.06-.33-2.68-.99-.94-1.6-.94-2.81ZM427.14,849.13c0,1,.41,1.5,1.24,1.5s1.23-.5,1.23-1.5v-8.17c0-.99-.41-1.49-1.23-1.49s-1.24.5-1.24,1.49v8.17Z"/>
    <path class="st3" d="M433.51,852.62v-15.14h3.3l1.76,10.78,1.63-10.78h3.42v15.14h-2.38v-10.85l-1.64,10.85h-2.25l-1.77-10.68v10.68h-2.07Z"/>
    <path class="st3" d="M445.21,852.62v-15.14h2.38v6.49h2.7v-6.49h2.37v15.14h-2.37v-6.48h-2.7v6.48h-2.38Z"/>
    <path class="st3" d="M453.82,852.62l2.41-15.14h3.67l2.41,15.14h-2.38l-.41-2.74h-2.91l-.41,2.74h-2.38ZM456.91,847.81h2.29l-1.15-7.62-1.14,7.62Z"/>
    <path class="st3" d="M462.53,839.64v-2.16h7.36v2.16h-2.49v12.97h-2.37v-12.97h-2.49Z"/>
    <path class="st3" d="M470.3,852.62l2.41-15.14h3.67l2.41,15.14h-2.38l-.41-2.74h-2.91l-.41,2.74h-2.38ZM473.4,847.81h2.29l-1.15-7.62-1.14,7.62Z"/>
  </g>
  <g>
    <path class="st3" d="M362.51,261.37l2.95-8.93-2.95-6.21h2.31l2.82,6.12v-6.12h2.38v6.12l2.82-6.12h2.31l-2.92,6.17,2.92,8.96h-2.38l-2.16-6.69-.59,1.15v5.54h-2.38v-5.57l-.58-1.18-2.17,6.75h-2.38Z"/>
    <path class="st3" d="M376.26,261.37v-15.14h2.12v9.58l.87-3.34,1.94-6.25h2.85v15.14h-2.38v-10.64l-.96,3.71-2,6.93h-2.44Z"/>
    <path class="st3" d="M384.83,261.39v-2.16c.29,0,.52-.01.68-.04.16-.03.3-.1.43-.21.12-.11.21-.27.26-.47.05-.2.08-.48.09-.83l.26-11.44h6.81v15.14h-2.38v-12.97h-2.06l-.26,9.15c-.04,1.38-.33,2.36-.87,2.96-.54.59-1.4.89-2.59.89h-.37Z"/>
    <path class="st3" d="M394.58,261.37l2.41-15.14h3.67l2.41,15.14h-2.38l-.41-2.74h-2.91l-.41,2.74h-2.38ZM397.67,256.56h2.29l-1.15-7.62-1.14,7.62Z"/>
    <path class="st3" d="M403.6,261.37c.15-.41.22-1.02.22-1.84v-2.33c0-.84.12-1.52.36-2.06.24-.53.64-.92,1.21-1.16-1.03-.49-1.55-1.51-1.55-3.07v-1.19c0-1.18.28-2.06.84-2.63.56-.57,1.45-.85,2.67-.85h3.59v15.14h-2.37v-6.16h-.82c-.54,0-.94.15-1.18.44-.25.3-.37.79-.37,1.49v2.38c0,.39-.01.71-.04.96-.02.25-.05.42-.07.51-.02.09-.06.22-.12.4h-2.38ZM406.22,251.44c0,.58.12,1,.36,1.24s.59.36,1.07.36h.93v-4.66h-1.14c-.42,0-.73.12-.92.38-.19.25-.29.65-.29,1.19v1.49Z"/>
    <path class="st3" d="M416.03,261.37v-15.14h2.38v6.6l3.11-6.6h2.38l-3.3,6.74,3.3,8.39h-2.44l-2.31-6.03-.74,1.38v4.64h-2.38Z"/>
    <path class="st3" d="M424.77,257.74v-7.87c0-1.21.31-2.15.94-2.81s1.52-.99,2.68-.99,2.05.33,2.67.99.93,1.6.93,2.81v7.87c0,1.21-.31,2.15-.93,2.81s-1.51.99-2.67.99-2.06-.33-2.68-.99-.94-1.6-.94-2.81ZM427.14,257.88c0,1,.41,1.5,1.24,1.5s1.23-.5,1.23-1.5v-8.17c0-.99-.41-1.49-1.23-1.49s-1.24.5-1.24,1.49v8.17Z"/>
    <path class="st3" d="M433.51,261.37v-15.14h3.3l1.76,10.78,1.63-10.78h3.42v15.14h-2.38v-10.85l-1.64,10.85h-2.25l-1.77-10.68v10.68h-2.07Z"/>
    <path class="st3" d="M445.21,261.37v-15.14h2.38v6.49h2.7v-6.49h2.37v15.14h-2.37v-6.48h-2.7v6.48h-2.38Z"/>
    <path class="st3" d="M453.82,261.37l2.41-15.14h3.67l2.41,15.14h-2.38l-.41-2.74h-2.91l-.41,2.74h-2.38ZM456.91,256.56h2.29l-1.15-7.62-1.14,7.62Z"/>
    <path class="st3" d="M462.53,248.39v-2.16h7.36v2.16h-2.49v12.97h-2.37v-12.97h-2.49Z"/>
    <path class="st3" d="M470.3,261.37l2.41-15.14h3.67l2.41,15.14h-2.38l-.41-2.74h-2.91l-.41,2.74h-2.38ZM473.4,256.56h2.29l-1.15-7.62-1.14,7.62Z"/>
  </g>
</svg>