<svg xmlns="http://www.w3.org/2000/svg" xmlns:xlink="http://www.w3.org/1999/xlink" xml:space="preserve" id="Слой_1" x="0" y="0" style="enable-background:new 0 0 336 252" version="1.1" viewBox="0 0 336 252"><style>.st1{fill:none;stroke:#39373a;stroke-width:.586}.st6{fill:#39373a}.st7{fill:none;stroke:#39373a;stroke-width:.977}.st13{fill:#39373a}.st13,.st14{clip-path:url(#SVGID_20_)}.st14,.st15{fill:none;stroke:#39373a;stroke-width:.244}.st16,.st17,.st24{clip-path:url(#SVGID_22_);fill:#39373a}.st17,.st24{fill:none;stroke:#39373a;stroke-width:.244}.st24{clip-path:url(#SVGID_32_);stroke-width:.59}.st26,.st27{clip-path:url(#SVGID_34_)}.st26{fill:#39373a}.st27,.st29{stroke-width:.244;fill:none;stroke:#39373a}.st29{stroke-width:.644}</style><switch><g><path d="M23.9 25.7h287.3V175H23.9z" style="fill:#b7e0e6"/><path d="m256.6 87.3-.8.5 8.9 14.7.8-.5z" class="st1"/><defs><path id="SVGID_1_" d="M16.6 20.5h299.6v212.6H16.6z"/></defs><clipPath id="SVGID_2_"><use xlink:href="#SVGID_1_" style="overflow:visible"/></clipPath><path d="M256.7 87.2s1.8-1.4 6.3-2.6c1.3-.4 2.5-.6 3.4-.8" style="clip-path:url(#SVGID_2_);fill:none;stroke:#39373a;stroke-width:.391"/><path d="m256.6 54.6-.8-.5 8.9-14.7.8.4z" class="st1"/><defs><path id="SVGID_3_" d="M16.6 20.5h299.6v212.6H16.6z"/></defs><clipPath id="SVGID_4_"><use xlink:href="#SVGID_3_" style="overflow:visible"/></clipPath><path d="M256.7 54.6s1.8 1.4 6.3 2.6c1.3.4 2.5.6 3.4.8" style="clip-path:url(#SVGID_4_);fill:none;stroke:#39373a;stroke-width:.391"/><path d="m195.8 86.5.5.8 19.1-11.5-.5-.8z" class="st1"/><defs><path id="SVGID_5_" d="M16.6 20.5h299.6v212.6H16.6z"/></defs><clipPath id="SVGID_6_"><use xlink:href="#SVGID_5_" style="overflow:visible"/></clipPath><path d="M195.7 86.4s-1.4-1.8-2.6-6.3c-1.2-4.5-1.4-6.9-1.4-6.9" style="clip-path:url(#SVGID_6_);fill:none;stroke:#39373a;stroke-width:.391"/><path d="m106.9 62.6-.8-.4 11.5-19.1.8.5z" class="st1"/><defs><path id="SVGID_7_" d="M16.6 20.5h299.6v212.6H16.6z"/></defs><clipPath id="SVGID_8_"><use xlink:href="#SVGID_7_" style="overflow:visible"/></clipPath><path d="M107 62.7s1.8 1.4 6.3 2.6c4.5 1.2 6.9 1.4 6.9 1.4" style="clip-path:url(#SVGID_8_);fill:none;stroke:#39373a;stroke-width:.391"/><path d="M217.9 186.9h28.3v-2.3h-2.8v-9.2h-25.5z" class="st6"/><path d="M217.9 186.9h28.3v-2.3h-2.8v-9.2h-25.5z" class="st7"/><path d="M114.4 186.9h28.3v-2.3h-2.9v-9.2h-25.4z" class="st6"/><path d="M114.4 186.9h28.3v-2.3h-2.9v-9.2h-25.4z" class="st7"/><path d="M19.5 186.9h24.8v-2.3h-2.8v-9.2h-22z" class="st6"/><path d="M19.5 186.9h24.8v-2.3h-2.8v-9.2h-22z" class="st7"/><path d="M313.8 186.9h-27.6v-2.3h2.1v-9.2h25.5z" class="st6"/><path d="M313.8 186.9h-27.6v-2.3h2.1v-9.2h25.5z" class="st7"/><path d="M221.2 186.9h-28.4v-2.3h2.9v-9.2h25.5z" class="st6"/><path d="M221.2 186.9h-28.4v-2.3h2.9v-9.2h25.5z" class="st7"/><path d="M122.8 186.9H94.5v-2.3h2.9v-9.2h25.4z" class="st6"/><path d="M122.8 186.9H94.5v-2.3h2.9v-9.2h25.4z" class="st7"/><path d="M214.6 207.6h4.7v25h-4.7z" class="st6"/><defs><path id="SVGID_9_" d="M16.6 20.5h299.6v212.6H16.6z"/></defs><clipPath id="SVGID_10_"><use xlink:href="#SVGID_9_" style="overflow:visible"/></clipPath><path d="M214.6 207.6h4.7v25h-4.7z" style="clip-path:url(#SVGID_10_);fill:none;stroke:#39373a;stroke-width:.977"/><path d="M214.6 66.5h4.7v114.1h-4.7z" class="st6"/><path d="M214.6 66.5h4.7v114.1h-4.7z" class="st7"/><path d="M311.1 22.1h4.7v210.5h-4.7z" class="st6"/><defs><path id="SVGID_11_" d="M16.6 20.5h299.6v212.6H16.6z"/></defs><clipPath id="SVGID_12_"><use xlink:href="#SVGID_11_" style="overflow:visible"/></clipPath><path d="M311.1 22.1h4.7v210.5h-4.7z" style="clip-path:url(#SVGID_12_);fill:none;stroke:#39373a;stroke-width:.977"/><path d="M213 22.1h4.7v19.7H213z" class="st6"/><path d="M213 22.1h4.7v19.7H213z" class="st7"/><path d="M116.3 66.5h4.7v153.6h-4.7z" class="st6"/><path d="M116.3 66.5h4.7v153.6h-4.7z" class="st7"/><path d="M116.3 23.7h4.7v19.9h-4.7z" class="st6"/><path d="M116.3 23.7h4.7v19.9h-4.7z" class="st7"/><path d="M19.1 21h209.5v4.7H19.1z" class="st6"/><defs><path id="SVGID_13_" d="M16.6 20.5h299.6v212.6H16.6z"/></defs><clipPath id="SVGID_14_"><use xlink:href="#SVGID_13_" style="overflow:visible"/></clipPath><path d="M19.1 21h209.5v4.7H19.1z" style="clip-path:url(#SVGID_14_);fill:none;stroke:#39373a;stroke-width:.977"/><path d="M255.9 21h59.8v4.7h-59.8z" class="st6"/><defs><path id="SVGID_15_" d="M16.6 20.5h299.6v212.6H16.6z"/></defs><clipPath id="SVGID_16_"><use xlink:href="#SVGID_15_" style="overflow:visible"/></clipPath><path d="M255.9 21h59.8v4.7h-59.8z" style="clip-path:url(#SVGID_16_);fill:none;stroke:#39373a;stroke-width:.977"/><path d="M18.7 21h4.7v165.9h-4.7z" class="st6"/><defs><path id="SVGID_17_" d="M16.6 20.5h299.6v212.6H16.6z"/></defs><clipPath id="SVGID_18_"><use xlink:href="#SVGID_17_" style="overflow:visible"/></clipPath><path d="M18.7 21h4.7v165.9h-4.7z" style="clip-path:url(#SVGID_18_);fill:none;stroke:#39373a;stroke-width:.977"/><path stroke-width=".586" d="m117.69 217.002.387-2.672 97.178 14.092-.387 2.672z" class="st1"/><path d="M215.9 228.5h98.2v2.7h-98.2zM34.2 184.4h84.1v2.7H34.2zm.5-9.2h80.4v9.2H34.7zm91 9.2h51.6v2.7h-51.6zm.4-9.2h49.2v9.2h-49.2zm92.8 9.2h51.6v2.7h-51.6zm.4-9.2h49.2v9.2h-49.2z" class="st1"/><defs><path id="SVGID_19_" d="M16.6 20.5h299.6v212.6H16.6z"/></defs><clipPath id="SVGID_20_"><use xlink:href="#SVGID_19_" style="overflow:visible"/></clipPath><path d="M283.6 87.7c0-2.8 2.2-5 5-5h7.2c.5 0 .9.4.9.9v8.3c0 .5-.4.9-.9.9h-7.2c-2.8-.1-5-2.4-5-5.1m13.4 4.1v-8.3c0-.7-.5-1.2-1.2-1.2h-7.2c-2.9 0-5.3 2.4-5.3 5.3s2.4 5.3 5.3 5.3h7.2c.7.1 1.2-.4 1.2-1.1" class="st13"/><path d="M283.6 87.7c0-2.8 2.2-5 5-5h7.2c.5 0 .9.4.9.9v8.3c0 .5-.4.9-.9.9h-7.2c-2.8-.1-5-2.4-5-5.1zm13.4 4.1v-8.3c0-.7-.5-1.2-1.2-1.2h-7.2c-2.9 0-5.3 2.4-5.3 5.3s2.4 5.3 5.3 5.3h7.2c.7.1 1.2-.4 1.2-1.1z" class="st14"/><path d="M294.3 84.1v7.2s0 .1-.1.1h-5.5c-2 0-3.7-1.7-3.7-3.7s1.7-3.7 3.7-3.7l5.6.1c-.1-.1 0 0 0 0z" class="st14"/><path d="M294.1 84.2v7h-5.4c-1.9 0-3.5-1.6-3.5-3.5s1.6-3.5 3.5-3.5h5.4zm.3 7.1v-7.2c0-.1-.1-.3-.3-.3h-5.5c-2.1 0-3.8 1.7-3.8 3.8 0 2.1 1.7 3.8 3.8 3.8h5.5c.2.1.3 0 .3-.1" class="st13"/><path d="M294.1 84.2v7h-5.4c-1.9 0-3.5-1.6-3.5-3.5s1.6-3.5 3.5-3.5h5.4zm.3 7.1v-7.2c0-.1-.1-.3-.3-.3h-5.5c-2.1 0-3.8 1.7-3.8 3.8 0 2.1 1.7 3.8 3.8 3.8h5.5c.2.1.3 0 .3-.1z" class="st14"/><path d="M288.7 87.7c0-.5.4-.9.9-.9s.9.4.9.9-.4.9-.9.9-.9-.4-.9-.9m2.3 0c0-.7-.6-1.3-1.3-1.3-.7 0-1.3.6-1.3 1.3 0 .7.6 1.3 1.3 1.3.7 0 1.3-.6 1.3-1.3" class="st13"/><path d="M288.7 87.7c0-.5.4-.9.9-.9s.9.4.9.9-.4.9-.9.9-.9-.4-.9-.9zm2.3 0c0-.7-.6-1.3-1.3-1.3-.7 0-1.3.6-1.3 1.3 0 .7.6 1.3 1.3 1.3.7 0 1.3-.6 1.3-1.3z" class="st14"/><path d="m293.6 84.9-.2-.3-2.3 1.7.2.3z" class="st6"/><path d="m293.6 84.9-.2-.3-2.3 1.7.2.3z" class="st15"/><path d="m293.6 90.4-2.3-1.7-.2.3 2.3 1.7z" class="st6"/><path d="m293.6 90.4-2.3-1.7-.2.3 2.3 1.7z" class="st15"/><defs><path id="SVGID_21_" d="M16.6 20.5h299.6v212.6H16.6z"/></defs><clipPath id="SVGID_22_"><use xlink:href="#SVGID_21_" style="overflow:visible"/></clipPath><path d="M297.1 84.2c0-.8.6-1.4 1.4-1.4h1.9c.8 0 1.4.6 1.4 1.4v6.9c0 .8-.6 1.4-1.4 1.4h-1.9c-.8 0-1.4-.6-1.4-1.4v-6.9zm5 6.9v-6.9c0-1-.8-1.7-1.7-1.7h-1.9c-1 0-1.7.8-1.7 1.7v6.9c0 1 .8 1.7 1.7 1.7h1.9c.9.1 1.7-.7 1.7-1.7" class="st16"/><path d="M297.1 84.2c0-.8.6-1.4 1.4-1.4h1.9c.8 0 1.4.6 1.4 1.4v6.9c0 .8-.6 1.4-1.4 1.4h-1.9c-.8 0-1.4-.6-1.4-1.4v-6.9zm5 6.9v-6.9c0-1-.8-1.7-1.7-1.7h-1.9c-1 0-1.7.8-1.7 1.7v6.9c0 1 .8 1.7 1.7 1.7h1.9c.9.1 1.7-.7 1.7-1.7z" class="st17"/><path d="M298.8 87.7c0-.3.2-.5.5-.5s.5.2.5.5-.2.5-.5.5c-.2 0-.5-.2-.5-.5m1.5 0c0-.5-.4-.9-.9-.9s-.9.4-.9.9.4.9.9.9.9-.4.9-.9" class="st16"/><path d="M298.8 87.7c0-.3.2-.5.5-.5s.5.2.5.5-.2.5-.5.5c-.2 0-.5-.2-.5-.5zm1.5 0c0-.5-.4-.9-.9-.9s-.9.4-.9.9.4.9.9.9.9-.4.9-.9z" class="st17"/><path d="M310.1 103.8h-15.9v15.9h15.9v-15.9zm.4 16.2h-16.6v-16.6h16.6V120z" class="st6"/><path d="M310.1 103.8h-15.9v15.9h15.9v-15.9zm.4 16.2h-16.6v-16.6h16.6V120z" class="st15"/><defs><path id="SVGID_23_" d="M16.6 20.5h299.6v212.6H16.6z"/></defs><clipPath id="SVGID_24_"><use xlink:href="#SVGID_23_" style="overflow:visible"/></clipPath><path d="M295.7 117.3c0 .4.3.7.7.7h8.3c.4 0 .7-.3.7-.7v-11.1c0-.4-.3-.7-.7-.7h-8.3c-.4 0-.7.3-.7.7v11.1zm10.1-11.1v11.1c0 .6-.5 1.1-1.1 1.1h-8.3c-.6 0-1.1-.5-1.1-1.1v-11.1c0-.6.5-1.1 1.1-1.1h8.3c.6 0 1.1.5 1.1 1.1" style="clip-path:url(#SVGID_24_);fill:#39373a"/><path d="M295.7 117.3c0 .4.3.7.7.7h8.3c.4 0 .7-.3.7-.7v-11.1c0-.4-.3-.7-.7-.7h-8.3c-.4 0-.7.3-.7.7v11.1zm10.1-11.1v11.1c0 .6-.5 1.1-1.1 1.1h-8.3c-.6 0-1.1-.5-1.1-1.1v-11.1c0-.6.5-1.1 1.1-1.1h8.3c.6 0 1.1.5 1.1 1.1z" style="clip-path:url(#SVGID_24_);fill:none;stroke:#39373a;stroke-width:.244"/><path d="M304.2 106.7h-7.3v10.1h7.3v-10.1zm.4 10.4h-8v-10.8h8v10.8z" class="st6"/><path d="M304.2 106.7h-7.3v10.1h7.3v-10.1zm.4 10.4h-8v-10.8h8v10.8z" class="st15"/><defs><path id="SVGID_25_" d="M16.6 20.5h299.6v212.6H16.6z"/></defs><clipPath id="SVGID_26_"><use xlink:href="#SVGID_25_" style="overflow:visible"/></clipPath><path d="M299.2 111.7c0 .5.4.9.9.9s.9-.4.9-.9-.4-.9-.9-.9-.9.4-.9.9m2.1 0c0 .7-.6 1.3-1.3 1.3-.7 0-1.3-.6-1.3-1.3 0-.7.6-1.3 1.3-1.3.8.1 1.3.6 1.3 1.3" style="clip-path:url(#SVGID_26_);fill:#39373a"/><path d="M299.2 111.7c0 .5.4.9.9.9s.9-.4.9-.9-.4-.9-.9-.9-.9.4-.9.9zm2.1 0c0 .7-.6 1.3-1.3 1.3-.7 0-1.3-.6-1.3-1.3 0-.7.6-1.3 1.3-1.3.8.1 1.3.6 1.3 1.3z" style="clip-path:url(#SVGID_26_);fill:none;stroke:#39373a;stroke-width:.244"/><path d="m232.8 37.2.4.8 24.4-14.6-.5-.8z" class="st1"/><defs><path id="SVGID_27_" d="M16.6 20.5h299.6v212.6H16.6z"/></defs><clipPath id="SVGID_28_"><use xlink:href="#SVGID_27_" style="overflow:visible"/></clipPath><path d="M232.7 37.1s-1.4-1.8-2.6-6.3c-1.2-4.5-1.4-6.9-1.4-6.9" style="clip-path:url(#SVGID_28_);fill:none;stroke:#39373a;stroke-width:.391"/><path d="M207.6 52.4h-1.8V47h-1.9v5.4H202v-6.6h5.5v6.6zm2.6-4.1c.3-.4 1.1-.8 1.8-.8 1.2 0 1.7.9 1.7 2.6 0 1.9-.6 2.5-1.8 2.5-.6 0-1.1-.1-1.5-.4v2h-1.7v-6.5h1.4l.1.6zm.2 2.8c.3.1.5.2.8.2.5 0 .7-.2.7-1.3s-.2-1.3-.6-1.3c-.4 0-.6.1-.9.3v2.1zm7.6 1.3v-2.1c0-.3 0-.5.1-.8-.1.3-.2.6-.4.8l-1.5 2.2h-1.5v-4.8h1.5v2.2c0 .2 0 .5-.1.7.1-.3.2-.5.4-.7l1.5-2.3h1.5v4.8H218zm4.9-2-1 1.9h-1.8l1.4-2.4-1.3-2.3h1.7l.9 1.8.9-1.8h1.7l-1.3 2.3 1.4 2.4h-1.8l-.8-1.9zm8.1-.4c0 1.8-.7 2.5-2.6 2.5-1.9 0-2.6-.7-2.6-2.5s.7-2.5 2.6-2.5c1.9 0 2.6.6 2.6 2.5zm-3.3 0c0 1 .2 1.3.7 1.3.6 0 .7-.2.7-1.3s-.2-1.3-.7-1.3c-.6 0-.7.2-.7 1.3zm9.6-.1c1.1.2 1.2.2 1.9 2.5h-1.8c-.6-1.8-.6-1.9-1.1-1.9h-.3v1.9h-1.5v-1.5c0-.1 0-.3.1-.4h-.4c-.4 0-.5.1-1.1 1.9h-1.8c.7-2.2.7-2.3 1.9-2.5-1.1-.1-1.1-.3-1.7-2.3h1.7c.5 1.6.6 1.7 1 1.7h.3c0-.2-.1-.4-.1-.6v-1.1h1.5v1.1c0 .2 0 .4-.1.6h.3c.5 0 .5-.2 1-1.7h1.7c-.4 2-.3 2.1-1.5 2.3zm2.5-2.2c.7-.1 1.9-.2 2.6-.2 1.3 0 2 .4 2 1.9v3H243l-.2-.7c-.3.4-.9.8-1.7.8-.9 0-1.6-.5-1.6-1.4v-.5c0-.8.6-1.2 1.5-1.2h1.6v-.1c0-.4-.2-.5-.7-.5-.5 0-1.2 0-2 .1l-.1-1.2zm1.5 3.2c0 .2.2.4.5.4s.6-.1.9-.3v-.6h-1c-.3 0-.4.2-.4.4v.1zm5.1-.6c-.8-.2-1-.7-1-1.3 0-1.2.4-1.5 2.2-1.5 1.3 0 1.8 0 2.4.1v4.8h-1.7v-1.6h-.6c-.3 0-.4.1-.4.3l-.3 1.3h-1.8l.4-1.5c0-.5.5-.5.8-.6zm1.9-1.6h-.7c-.5 0-.5.1-.5.4 0 .5.1.6.5.6h.7v-1zm-23.5 13.6-.8.2v1.4h-1.6v-1.4h-2.6c-.6 0-.9-.5-.7-1l1.7-4.2h1.7l-1.4 3.8c-.1.2 0 .3.2.3h1.3v-1.7l.3-1h1.4v2.7h.8v.9zm1.6-.1c.5 0 .6.1.6.6v.4c0 .5-.1.6-.6.6h-.4c-.5 0-.6-.1-.6-.6v-.4c0-.5.1-.6.6-.6h.4zm1.5-4.8c1-.2 1.7-.2 2.4-.2 1.4 0 2.3.3 2.3 1.6 0 .7-.2 1.2-1 2.1l-1.6 1.6c.3-.1.6-.1.9-.1h1.9V64h-4.9v-.9c0-.3.1-.5.2-.7l1.5-1.5c.7-.8 1.2-1.4 1.2-1.7 0-.3-.2-.3-.7-.3H228l-.1-1.5zm-76.7-14c1.4.2 1.4.7 2.3 3.4h-1.9c-.7-2.4-.8-2.8-1.7-2.8h-.3c0 .2.1.4.1.6v2.2h-1.8v-6.6h1.8V42c0 .3 0 .6-.1.8h.3c.9 0 1.1-.6 1.6-2.6h1.8c-.8 2.4-.8 2.9-2.1 3.2zm7.7 1c0 1.8-.7 2.5-2.6 2.5-1.9 0-2.6-.7-2.6-2.5s.7-2.5 2.6-2.5c1.9 0 2.6.7 2.6 2.5zm-3.3 0c0 1 .2 1.3.7 1.3.6 0 .7-.2.7-1.3s-.2-1.3-.7-1.3c-.5 0-.7.3-.7 1.3zm5.7-1.7c.3-.4 1.1-.8 1.8-.8 1.2 0 1.7.9 1.7 2.6 0 1.9-.6 2.5-1.8 2.5-.6 0-1.1-.1-1.5-.4v2h-1.7V42h1.4l.1.7zm.2 2.9c.3.1.5.2.8.2.5 0 .7-.2.7-1.3s-.2-1.3-.6-1.3c-.4 0-.6.1-.9.3v2.1zm7.5 1.2v-2.1c0-.3 0-.5.1-.8-.1.3-.2.6-.4.8l-1.5 2.2h-1.5V42h1.5v2.2c0 .2 0 .5-.1.7.1-.3.2-.5.4-.7l1.5-2.3h1.5v4.8H169zm8.2 1.3H176l-.1-1.3h-3.4l-.1 1.3h-1.2v-2.5h.6c.3-.8.5-1.6.6-2.4.1-.8.5-1.2 1.4-1.2h2.6v3.6h.8v2.5zm-2.4-5h-.4c-.2 0-.4.1-.4.4-.1.9-.3 1.6-.5 2.1h1.4v-2.5zm8 1.3c0 1.8-.7 2.5-2.6 2.5-1.9 0-2.6-.7-2.6-2.5s.7-2.5 2.6-2.5c1.9 0 2.6.7 2.6 2.5zm-3.3 0c0 1 .2 1.3.7 1.3.6 0 .7-.2.7-1.3s-.2-1.3-.7-1.3c-.6 0-.7.3-.7 1.3zm5.7-1.7c.3-.4 1.1-.8 1.8-.8 1.2 0 1.7.9 1.7 2.6 0 1.9-.6 2.5-1.8 2.5-.6 0-1.1-.1-1.5-.4v2h-1.7V42h1.4l.1.7zm.2 2.9c.3.1.5.2.8.2.5 0 .7-.2.7-1.3s-.2-1.3-.6-1.3c-.4 0-.6.1-.9.3v2.1zM167 52.9h-1.6c-.9 0-1.1.2-1.1 1.5.4-.3.8-.4 1.4-.4 1.5 0 1.9.6 1.9 2.1 0 1.7-.4 2.4-2.5 2.4-2 0-2.6-.7-2.6-3.4 0-3 1-3.5 2.9-3.5.3 0 1 0 1.7.2l-.1 1.1zm-1.2 3.1c0-.7-.1-.9-.8-.9-.3 0-.5.1-.8.2 0 1.5.1 1.7.9 1.7.7.1.7-.2.7-1zm3.4.7c.5 0 .6.1.6.6v.4c0 .5-.1.6-.6.6h-.4c-.5 0-.6-.1-.6-.6v-.4c0-.5.1-.6.6-.6h.4zm2.4 1.6v-4.4c0-.3 0-.5.1-.8l-1.5.3-.2-1.1 1.7-.7h1.8v6.6h-1.9zm83.3 79.2c1.4.2 1.4.7 2.3 3.4h-1.9c-.7-2.4-.8-2.8-1.7-2.8h-.3c0 .2.1.4.1.6v2.2h-1.8v-6.6h1.8v1.8c0 .3 0 .6-.1.8h.3c.9 0 1.1-.6 1.6-2.6h1.8c-.7 2.4-.8 3-2.1 3.2zm6.3 3.4c-.3 1.1-.9 1.6-1.6 1.9-.6.2-1.3.2-2 .1l.1-1.1c.6 0 1 0 1.3-.2.2-.1.4-.3.5-.6h-.3c-.3 0-.5-.2-.6-.4l-1.5-4.4h1.9l.7 2.8c0 .3.1.5.1.8h.1c.1-.3.2-.6.2-.8l.7-2.8h1.9l-1.5 4.7zm4.4-1.9-1 1.9h-1.8l1.4-2.4-1.3-2.3h1.7l.9 1.8.9-1.8h1.7l-1.3 2.3 1.4 2.4h-1.8l-.8-1.9zm8.2 1.9h-1.7V139h-1.5v1.9h-1.7v-4.8h1.7v1.7h1.5v-1.7h1.7v4.8zm2-2c-.8-.2-1-.7-1-1.3 0-1.2.4-1.5 2.2-1.5 1.3 0 1.8 0 2.4.1v4.8h-1.7v-1.6h-.7c-.3 0-.4.1-.4.3l-.3 1.3h-1.8l.4-1.5c.1-.5.6-.5.9-.6zm1.9-1.6h-.7c-.5 0-.5.1-.5.4 0 .5.1.6.5.6h.7v-1zm-18.5 14h1.8c.9 0 1.1-.3 1.2-1.5-.4.3-.8.4-1.4.4-1.5 0-1.9-.8-1.9-2.1 0-1.7.5-2.4 2.5-2.4 2.1 0 2.5.7 2.5 3.4 0 3-.8 3.5-2.9 3.5-.4 0-1.1 0-1.8-.2v-1.1zm2.1-2.3c.3 0 .5-.1.8-.2 0-1.5-.1-1.7-.8-1.7-.7 0-.8.3-.8 1.1.1.6.2.8.8.8zm4.4 1.8c.5 0 .6.1.6.6v.4c0 .5-.1.6-.6.6h-.4c-.5 0-.6-.1-.6-.6v-.4c0-.5.1-.6.6-.6h.4zm1.5-4.9c.7-.1 1.5-.2 2.2-.2 1.6 0 2.2.4 2.2 1.5 0 1-.2 1.5-1.1 1.7.9.1 1.2.7 1.2 1.7 0 1.4-.6 2-2.4 2-.8 0-1.6-.1-2.4-.2l.1-1.3c.8 0 1.3.1 1.8.1.8 0 1.1-.1 1.1-.8 0-.6-.2-.8-.9-.8h-1.3v-1.2h1.3c.7 0 .8-.3.8-.7 0-.5-.2-.6-.9-.6h-1.8l.1-1.2zm-116.5 56.4c-.7-.1-1-.8-1-1.5 0-1.2.4-1.8 2.4-1.8s2.4.5 2.4 1.8c0 .7-.3 1.4-1 1.5.9.1 1.2.9 1.2 1.8 0 1.3-.5 1.8-2.6 1.8s-2.6-.5-2.6-1.8c0-.9.3-1.6 1.2-1.8zm.5 1.5c0 .7.2.8.9.8s.9-.2.9-.8c0-.7-.2-.9-.9-.9s-.9.2-.9.9zm.1-2.8c0 .6.2.7.8.7.7 0 .8-.1.8-.7 0-.7-.2-.8-.8-.8-.6 0-.8.2-.8.8zm5.3 3.1c.5 0 .6.1.6.6v.4c0 .5-.1.6-.6.6h-.4c-.5 0-.6-.1-.6-.6v-.4c0-.5.1-.6.6-.6h.4zm5.9-3.8h-1.6c-.9 0-1.1.2-1.1 1.5.4-.3.8-.4 1.4-.4 1.5 0 1.9.6 1.9 2.1 0 1.7-.4 2.4-2.5 2.4-2 0-2.6-.7-2.6-3.4 0-3 1-3.5 2.9-3.5.3 0 1 0 1.7.2l-.1 1.1zm-1.2 3.2c0-.7-.1-.9-.8-.9-.3 0-.5.1-.8.2 0 1.5.1 1.7.9 1.7.7.1.7-.2.7-1zm7.5-4.6c-1.1.5-1.4 1.8-1.4 3.8 0 2 .4 3.4 1.4 3.8l-.2.7c-2-.6-2.9-2-2.9-4.6 0-2.6.9-4 2.9-4.6l.2.9z" class="st6"/><path d="m174.5 204.2-.8.2v1.4h-1.6v-1.4h-2.6c-.6 0-.9-.5-.7-1l1.7-4.2h1.7l-1.4 3.8c-.1.2 0 .3.2.3h1.3v-1.7l.3-1h1.4v2.7h.8v.9zm1.7-.1c.5 0 .6.1.6.6v.4c0 .5-.1.6-.6.6h-.4c-.5 0-.6-.1-.6-.6v-.4c0-.5.1-.6.6-.6h.4zm1.4-4.9c.7-.1 1.5-.2 2.2-.2 1.6 0 2.2.4 2.2 1.5 0 1-.2 1.5-1.1 1.7.9.1 1.2.7 1.2 1.7 0 1.4-.6 2-2.4 2-.8 0-1.6-.1-2.4-.2l.1-1.3c.8 0 1.3.1 1.8.1.8 0 1.1-.1 1.1-.8 0-.6-.2-.8-.9-.8h-1.3v-1.2h1.3c.7 0 .8-.3.8-.7 0-.5-.2-.6-.9-.6h-1.8l.1-1.2zm5.1-1c2 .6 2.9 2 2.9 4.6 0 2.6-.9 4-2.9 4.6l-.2-.7c1.1-.5 1.4-1.9 1.4-3.8 0-2-.4-3.4-1.4-3.8l.2-.9zM60.6 119.1c1.3.2 1.4.7 2.2 3.4H61c-.7-2.4-.8-2.8-1.5-2.8h-.3c0 .2.1.4.1.6v2.2h-1.7v-2.2c0-.2 0-.4.1-.6h-.3c-.6 0-.7.4-1.5 2.8H54c.8-2.7.9-3.2 2.2-3.4v-.1c-1.3-.2-1.3-.8-2-3.1H56c.6 2 .7 2.6 1.3 2.6h.3c-.1-.3-.1-.6-.1-.8v-1.8h1.7v1.8c0 .3 0 .5-.1.8h.3c.6 0 .8-.6 1.4-2.6h1.8c-.7 2.3-.7 2.9-2 3.2zm6.2 3.4v-2.1c0-.3 0-.5.1-.8-.1.3-.2.6-.4.8l-1.5 2.2h-1.5v-4.8H65v2.2c0 .2 0 .5-.1.7.1-.3.2-.5.4-.7l1.5-2.3h1.5v4.8h-1.5zm7.4 0h-1.7v-3.6h-.4c-.3 0-.4.1-.5.4-.1.7-.2 1.5-.3 2-.2 1.2-1.1 1.4-2.2 1.2l-.2-1.3c.4-.1.7-.1.8-.4.1-.3.2-1 .2-1.9.1-.8.5-1.2 1.3-1.2h2.9v4.8zm1.1-4.7c.7-.1 1.9-.2 2.6-.2 1.3 0 2 .4 2 1.9v3h-1.4l-.2-.7c-.3.4-.9.8-1.7.8-.9 0-1.6-.5-1.6-1.4v-.5c0-.8.6-1.2 1.5-1.2h1.6v-.1c0-.4-.2-.5-.7-.5-.5 0-1.2 0-2 .1l-.1-1.2zm1.4 3.2c0 .2.2.4.5.4s.6-.1.9-.3v-.6h-1c-.3 0-.4.2-.4.4v.1zm5.1-.6c-.8-.2-1-.7-1-1.3 0-1.2.4-1.5 2.2-1.5 1.3 0 1.8 0 2.4.1v4.8h-1.7v-1.6H83c-.3 0-.4.1-.4.3l-.3 1.3h-1.8l.4-1.5c.1-.4.6-.5.9-.6zm1.9-1.6H83c-.5 0-.5.1-.5.4 0 .5.1.6.5.6h.7v-1zm-30.8 12.7c1.1.2 1.2.2 1.8 2.5h-1.8c-.5-1.8-.5-1.9-1-1.9h-.4c0 .1.1.3.1.4v1.5h-1.7v-4.8h1.7v1.1c0 .2 0 .4-.1.6h.2c.7 0 .7-.1 1.1-1.7h1.8c-.7 2-.6 2.1-1.7 2.3zm7.4.1c0 1.8-.7 2.5-2.6 2.5-1.9 0-2.6-.7-2.6-2.5s.7-2.5 2.6-2.5c1.9 0 2.6.7 2.6 2.5zm-3.4 0c0 1 .2 1.3.7 1.3.6 0 .7-.2.7-1.3s-.2-1.3-.7-1.3c-.5 0-.7.3-.7 1.3zm10.2-2.4c.4 0 .6.2.6.6l.1 4.2h-1.6l-.1-3.5H66l-.6 2.3c-.1.4-.3.5-.7.5H64c-.4 0-.6-.2-.7-.5l-.6-2.3h-.1l-.1 3.5H61l.1-4.2c0-.4.2-.6.6-.6h1.5c.4 0 .6.2.6.5l.4 1.8c.1.2.1.5.1.7h.1c0-.2 0-.5.1-.7l.4-1.8c.1-.4.3-.5.7-.5h1.5zm6.6 4.8H72v-1.9h-1.5v1.9h-1.7v-4.8h1.7v1.7H72v-1.7h1.7v4.8zm1-4.7c.7-.1 1.9-.2 2.6-.2 1.3 0 2 .4 2 1.9v3H78l-.2-.7c-.3.4-.9.8-1.7.8-.9 0-1.6-.5-1.6-1.4v-.5c0-.8.6-1.2 1.5-1.2h1.6v-.1c0-.4-.2-.5-.7-.5-.5 0-1.2 0-2 .1l-.2-1.2zm1.5 3.2c0 .2.2.4.5.4s.6-.1.9-.3v-.6h-1c-.3 0-.4.2-.4.4v.1zm7-2v3.5h-1.7v-3.5H80v-1.3h4.8v1.3h-1.6zm2.1-1.2c.7-.1 1.9-.2 2.6-.2 1.3 0 2 .4 2 1.9v3h-1.4l-.2-.7c-.3.4-.9.8-1.7.8-.9 0-1.6-.5-1.6-1.4v-.5c0-.8.6-1.2 1.5-1.2h1.6v-.1c0-.4-.2-.5-.7-.5-.5 0-1.2 0-2 .1l-.1-1.2zm1.5 3.2c0 .2.2.4.5.4s.6-.1.9-.3v-.6h-1c-.3 0-.4.2-.4.4v.1zm-24.6 13v-4.4c0-.3 0-.5.1-.8l-1.5.3-.2-1.1 1.7-.7H64v6.6h-1.8zm3.3-1.2h1.8c.9 0 1.1-.3 1.2-1.5-.4.3-.8.4-1.4.4-1.5 0-1.9-.8-1.9-2.1 0-1.7.5-2.4 2.5-2.4 2.1 0 2.5.7 2.5 3.4 0 3-.8 3.5-2.9 3.5-.4 0-1.1 0-1.8-.2v-1.1zm2.1-2.3c.3 0 .5-.1.8-.2 0-1.5-.1-1.7-.8-1.7-.7 0-.8.3-.8 1.1 0 .6.2.8.8.8zm4.4 1.9c.5 0 .6.1.6.6v.4c0 .5-.1.6-.6.6h-.4c-.5 0-.6-.1-.6-.6v-.4c0-.5.1-.6.6-.6h.4zm6.8-1.7c0 2.6-.7 3.4-2.7 3.4s-2.7-.9-2.7-3.4c0-2.6.7-3.4 2.7-3.4 2-.1 2.7.8 2.7 3.4zm-3.6 0c0 1.8.2 2.1.9 2.1s.9-.3.9-2.1-.2-2.1-.9-2.1-.9.3-.9 2.1zm82.7-29.3c1.3.2 1.4.7 2.2 3.4h-1.9c-.7-2.4-.8-2.8-1.5-2.8h-.3c0 .2.1.4.1.6v2.2h-1.7v-2.2c0-.2 0-.4.1-.6h-.3c-.6 0-.7.4-1.5 2.8h-1.9c.8-2.7.9-3.2 2.2-3.4v-.1c-1.3-.2-1.3-.8-2-3.1h1.8c.6 2 .7 2.6 1.3 2.6h.3c-.1-.3-.1-.6-.1-.8v-1.8h1.7v1.8c0 .3 0 .5-.1.8h.3c.6 0 .8-.6 1.4-2.6h1.8c-.6 2.4-.6 3-1.9 3.2zm6.2 3.4v-2.1c0-.3 0-.5.1-.8-.1.3-.2.6-.4.8l-1.5 2.2h-1.5v-4.8h1.5v2.2c0 .2 0 .5-.1.7.1-.3.2-.5.4-.7l1.5-2.3h1.5v4.8h-1.5zm7.4 0h-1.7v-3.6h-.4c-.3 0-.4.1-.5.4-.1.7-.2 1.5-.3 2-.2 1.2-1.1 1.4-2.2 1.2l-.2-1.3c.4-.1.7-.1.8-.4.1-.3.2-1 .2-1.9.1-.8.5-1.2 1.3-1.2h2.9v4.8zm1-4.6c.7-.1 1.9-.2 2.6-.2 1.3 0 2 .4 2 1.9v3h-1.4l-.2-.7c-.3.4-.9.8-1.7.8-.9 0-1.6-.5-1.6-1.4v-.5c0-.8.6-1.2 1.5-1.2h1.6v-.1c0-.4-.2-.5-.7-.5-.5 0-1.2 0-2 .1l-.1-1.2zm1.5 3.1c0 .2.2.4.5.4s.6-.1.9-.3v-.6h-1c-.3 0-.4.2-.4.4v.1zm5.1-.5c-.8-.2-1-.7-1-1.3 0-1.2.4-1.5 2.2-1.5 1.3 0 1.8 0 2.4.1v4.8H181v-1.6h-.6c-.3 0-.4.1-.4.3l-.3 1.3h-1.8l.4-1.5c0-.5.5-.6.8-.6zm1.8-1.6h-.7c-.5 0-.5.1-.5.4 0 .5.1.6.5.6h.7v-1zm-30.7 12.7c1.1.2 1.2.2 1.8 2.5h-1.8c-.5-1.8-.5-1.9-1-1.9h-.4c0 .1.1.3.1.4v1.5h-1.7v-4.8h1.7v1.1c0 .2 0 .4-.1.6h.2c.7 0 .7-.1 1.1-1.7h1.8c-.7 2-.6 2.1-1.7 2.3zm7.3.1c0 1.8-.7 2.5-2.6 2.5-1.9 0-2.6-.7-2.6-2.5s.7-2.5 2.6-2.5c1.9-.1 2.6.6 2.6 2.5zm-3.3 0c0 1 .2 1.3.7 1.3.6 0 .7-.2.7-1.3s-.2-1.3-.7-1.3c-.5 0-.7.2-.7 1.3zm10.2-2.4c.4 0 .6.2.6.6l.1 4.2h-1.6l-.1-3.5h-.1l-.6 2.3c-.1.4-.3.5-.7.5h-.8c-.4 0-.6-.2-.7-.5l-.6-2.3h-.1l-.1 3.5h-1.6l.1-4.2c0-.4.2-.6.6-.6h1.5c.4 0 .6.2.6.5l.4 1.8c.1.2.1.5.1.7h.1c0-.2 0-.5.1-.7l.4-1.8c.1-.4.3-.5.7-.5h1.7zm6.5 4.7h-1.7v-1.9h-1.5v1.9H166V123h1.7v1.7h1.5V123h1.7v4.8zm1.1-4.6c.7-.1 1.9-.2 2.6-.2 1.3 0 2 .4 2 1.9v3h-1.4l-.2-.7c-.3.4-.9.8-1.7.8-.9 0-1.6-.5-1.6-1.4v-.5c0-.8.6-1.2 1.5-1.2h1.6v-.1c0-.4-.2-.5-.7-.5-.5 0-1.2 0-2 .1l-.1-1.2zm1.4 3.1c0 .2.2.4.5.4s.6-.1.9-.3v-.6h-1c-.3 0-.4.2-.4.4v.1zm7.1-1.9v3.5h-1.7v-3.5h-1.5v-1.3h4.8v1.3h-1.6zm2.1-1.2c.7-.1 1.9-.2 2.6-.2 1.3 0 2 .4 2 1.9v3h-1.4l-.2-.7c-.3.4-.9.8-1.7.8-.9 0-1.6-.5-1.6-1.4v-.5c0-.8.6-1.2 1.5-1.2h1.6v-.1c0-.4-.2-.5-.7-.5-.5 0-1.2 0-2 .1l-.1-1.2zm1.5 3.1c0 .2.2.4.5.4s.6-.1.9-.3v-.6h-1c-.3 0-.4.2-.4.4v.1zm-23.9 13V135c0-.3 0-.5.1-.8l-1.5.3-.2-1.1 1.7-.7h1.8v6.6h-1.9zm3-6.5c1-.2 1.7-.2 2.4-.2 1.4 0 2.3.3 2.3 1.6 0 .7-.2 1.2-1 2.1l-1.6 1.6c.3-.1.6-.1.9-.1h1.9v1.6h-4.9v-.9c0-.3.1-.5.2-.7l1.5-1.5c.7-.8 1.2-1.4 1.2-1.7 0-.3-.2-.3-.7-.3h-2.1l-.1-1.5zm6.7 4.9c.5 0 .6.1.6.6v.4c0 .5-.1.6-.6.6h-.4c-.5 0-.6-.1-.6-.6v-.4c0-.5.1-.6.6-.6h.4zm5-5c.5 0 .8.4.7.9l-2 5.7h-1.8l1.6-4.5c.1-.2.2-.5.3-.7h-2.9l-.1-1.4h4.2zm94.7-41.3V87c0-.3 0-.5.1-.8l-1.5.3-.2-1.1 1.7-.7h1.8v6.6h-1.9zm4-1.6c.5 0 .6.1.6.6v.4c0 .5-.1.6-.6.6h-.4c-.5 0-.6-.1-.6-.6v-.4c0-.5.1-.6.6-.6h.4zm1.4-4.9c1-.2 1.7-.2 2.4-.2 1.4 0 2.3.3 2.3 1.6 0 .7-.2 1.2-1 2.1l-1.6 1.6c.3-.1.6-.1.9-.1h1.9v1.6H275v-.9c0-.3.1-.5.2-.7l1.5-1.5c.7-.8 1.2-1.4 1.2-1.7 0-.3-.2-.3-.7-.3h-2.1l-.1-1.5zm-2.8-35.3c1-.2 1.7-.2 2.4-.2 1.4 0 2.3.3 2.3 1.6 0 .7-.2 1.2-1 2.1l-1.6 1.6c.3-.1.6-.1.9-.1h1.9v1.6h-4.9v-.9c0-.3.1-.5.2-.7l1.5-1.5c.7-.8 1.2-1.4 1.2-1.7 0-.3-.2-.3-.7-.3h-2.1l-.1-1.5zm6.7 4.9c.5 0 .6.1.6.6v.4c0 .5-.1.6-.6.6h-.4c-.5 0-.6-.1-.6-.6v-.4c0-.5.1-.6.6-.6h.4zm1.7.4h1.8c.9 0 1.1-.3 1.2-1.5-.4.3-.8.4-1.4.4-1.5 0-1.9-.8-1.9-2.1 0-1.7.5-2.4 2.5-2.4 2.1 0 2.5.7 2.5 3.4 0 3-.8 3.5-2.9 3.5-.4 0-1.1 0-1.8-.2v-1.1zm2.1-2.2c.3 0 .5-.1.8-.2 0-1.5-.1-1.7-.8-1.7-.7 0-.8.3-.8 1.1 0 .6.1.8.8.8zm-231.1 42-.2 2.2 2.7.3c3.7.4 4.7 2.7 4.7 5.3 0 2.9-1.3 5.2-5.8 5.2-1.6 0-3.6-.2-5.7-.5l.4-3.3c1.5.1 3 .2 4.2.2 2.1 0 2.6-.5 2.7-1.8.1-1.5-.7-1.8-2.9-2l-2.5-.3c-.8-.1-1.3-.7-1.3-1.4l.4-7.2h10l-.2 3.2h-6.5zm9.6 9.9h4.2c2.1 0 2.7-.8 2.8-3.5-.9.7-1.9 1-3.3 1-3.6 0-4.6-2-4.6-5 0-4.1 1.3-5.9 6-5.9 5.1 0 6.1 1.6 6.1 8.1 0 7.2-1.9 8.5-7 8.5-.9 0-2.6 0-4.5-.5l.3-2.7zm5.1-5.5c.7 0 1.3-.2 2-.6 0-3.5-.2-4.2-2-4.2-1.7 0-1.9.7-1.8 2.6 0 1.7.3 2.2 1.8 2.2zm10.6 4.4c1.1 0 1.5.3 1.5 1.5v1c0 1.1-.3 1.5-1.5 1.5h-1c-1.1 0-1.5-.3-1.5-1.5v-1c0-1.1.3-1.5 1.5-1.5h1zm12.3-12c1.3 0 2 1 1.6 2.1L86 107.5h-4.3l3.9-10.8c.2-.6.4-1.1.8-1.7h-7l-.2-3.5h10z" class="st6"/><defs><path id="SVGID_29_" d="M16.6 20.5h299.6v212.6H16.6z"/></defs><clipPath id="SVGID_30_"><use xlink:href="#SVGID_29_" style="overflow:visible"/></clipPath><path d="M69.8 87.6c7.9 0 14.2-6.4 14.2-14.2 0-7.9-6.4-14.2-14.2-14.2s-14.2 6.4-14.2 14.2c0 7.9 6.4 14.2 14.2 14.2z" style="clip-path:url(#SVGID_30_);fill:none;stroke:#39373a;stroke-width:.976"/><path d="M59.6 67.6c1.8-.4 3-.4 4.3-.4 2.6 0 4.3.6 4.3 2.9 0 1.3-.3 2.1-1.9 3.8l-3 2.9c.6-.1 1.1-.2 1.7-.2h3.5v2.8h-9v-1.7c0-.5.1-.9.5-1.3l2.7-2.8c1.4-1.4 2.2-2.5 2.2-3.2 0-.5-.4-.6-1.3-.6-1.2 0-2.1 0-3.8.1l-.2-2.3zm16.9 5.7c2.5.4 2.7 1.3 4.1 6.3h-3.4c-1.2-4.4-1.4-5.2-3.1-5.2h-.6c.1.4.1.8.1 1.1v4.1h-3.3V67.4h3.3v3.2c0 .5-.1 1-.1 1.5h.6c1.7 0 1.9-1.1 2.9-4.7h3.4c-1.3 4.3-1.4 5.4-3.8 5.7v.2z" class="st6"/><defs><path id="SVGID_31_" d="M16.6 20.5h299.6v212.6H16.6z"/></defs><clipPath id="SVGID_32_"><use xlink:href="#SVGID_31_" style="overflow:visible"/></clipPath><path d="M304.1 27.6c3.1 0 5.6 2.5 5.6 5.6v33.3c0 3.1-2.5 5.6-5.6 5.6h-7.5c-3.1 0-5.6-2.5-5.6-5.6V33.1c0-3.1 2.5-5.6 5.6-5.6h7.5z" class="st24"/><path d="M302.4 30.6c3.1 0 5.6 2.5 5.6 5.6v27.1c0 3.1-2.5 5.6-5.6 5.6h-4c-3.1 0-5.6-2.5-5.6-5.6V36.2c0-3.1 2.5-5.6 5.6-5.6h4z" class="st24"/><path d="M303.5 34.4c1.5 0 2.8 1.2 2.8 2.8v27.2c0 1.5-1.2 2.8-2.8 2.8h-6.2c-1.5 0-2.8-1.2-2.8-2.8V37.2c0-1.5 1.2-2.8 2.8-2.8h6.2z" class="st24"/><path d="M300.4 63.9c-.5 0-.8-.4-.8-.8s.4-.8.8-.8c.5 0 .8.4.8.8s-.4.8-.8.8z" class="st24"/><path d="M290 24.6v49.2" style="fill:none;stroke:#39373a;stroke-width:.59"/><defs><path id="SVGID_33_" d="M16.6 20.5h299.6v212.6H16.6z"/></defs><clipPath id="SVGID_34_"><use xlink:href="#SVGID_33_" style="overflow:visible"/></clipPath><path d="M279.4 60.9c-2.9 0-5.3 2.4-5.3 5.3v5.6c0 .4.4.8.8.8h12c.4 0 .8-.4.8-.8v-5.6c0-2.9-2.4-5.3-5.3-5.3h-3zm7.5 12h-12c-.6 0-1.1-.5-1.1-1.1v-5.6c0-3.1 2.5-5.6 5.6-5.6h3c3.1 0 5.6 2.5 5.6 5.6v5.6c0 .6-.5 1.1-1.1 1.1" class="st26"/><path d="M279.4 60.9c-2.9 0-5.3 2.4-5.3 5.3v5.6c0 .4.4.8.8.8h12c.4 0 .8-.4.8-.8v-5.6c0-2.9-2.4-5.3-5.3-5.3h-3zm7.5 12h-12c-.6 0-1.1-.5-1.1-1.1v-5.6c0-3.1 2.5-5.6 5.6-5.6h3c3.1 0 5.6 2.5 5.6 5.6v5.6c0 .6-.5 1.1-1.1 1.1z" class="st27"/><path d="M279.4 62.2c-2.2 0-4 1.8-4 4v3.3c0 .4.3.7.7.7h9.5c.4 0 .7-.3.7-.7v-3.3c0-2.2-1.8-4-4-4h-2.9zm6.3 8.3h-9.5c-.5 0-1-.4-1-1v-3.3c0-2.4 1.9-4.3 4.3-4.3h3c2.4 0 4.3 1.9 4.3 4.3v3.3c-.1.5-.6 1-1.1 1" class="st26"/><path d="M279.4 62.2c-2.2 0-4 1.8-4 4v3.3c0 .4.3.7.7.7h9.5c.4 0 .7-.3.7-.7v-3.3c0-2.2-1.8-4-4-4h-2.9zm6.3 8.3h-9.5c-.5 0-1-.4-1-1v-3.3c0-2.4 1.9-4.3 4.3-4.3h3c2.4 0 4.3 1.9 4.3 4.3v3.3c-.1.5-.6 1-1.1 1z" class="st27"/><path d="M280.9 65c-.4 0-.7.3-.7.7s.3.7.7.7c.4 0 .7-.3.7-.7s-.3-.7-.7-.7m0 1.6c-.5 0-1-.4-1-1 0-.5.4-1 1-1 .5 0 1 .4 1 1s-.5 1-1 1" class="st26"/><path d="M280.9 65c-.4 0-.7.3-.7.7s.3.7.7.7c.4 0 .7-.3.7-.7s-.3-.7-.7-.7zm0 1.6c-.5 0-1-.4-1-1 0-.5.4-1 1-1 .5 0 1 .4 1 1s-.5 1-1 1z" class="st27"/><path stroke-width=".586" d="m178.238 174.147.46-.774 18.394 10.938-.46.773zm93.204.007.46-.774 18.393 10.938-.46.773z" class="st1"/><defs><path id="SVGID_35_" d="M16.6 20.5h299.6v212.6H16.6z"/></defs><clipPath id="SVGID_36_"><use xlink:href="#SVGID_35_" style="overflow:visible"/></clipPath><path d="M178.2 174.2s-1.1 1.5-1.6 4.9c-.5 3.4-.4 5.2-.4 5.2m95.2-10.1s-1.1 1.5-1.6 4.9c-.5 3.4-.4 5.2-.4 5.2" style="clip-path:url(#SVGID_36_);stroke-width:.391;fill:none;stroke:#39373a"/><path d="M302.5 76.3h7.8v23.8h-7.8z" class="st29"/><path d="M309.1 76.3h1.3v23.8h-1.3zm-.1 1.5-5.1.6v14l5.1.8m0 .7-5.1.8v3l5.1.7m-88.9-22.1h7.8v23.8h-7.8z" class="st29"/><path d="M226.6 76.3h1.3v23.8h-1.3zm0 1.5-5.1.6v14l5.1.8m0 .7-5.1.8v3l5.1.7" class="st29"/><path d="M263.7 73.1h52.2v3.1h-52.2zm-7.9 27.4h59.6v3.1h-59.6zM118.2 73h73.9v3.1h-73.9zm98.1 27.5h18.6v3.1h-18.6zm47.4-75h3.1v16.8h-3.1z" class="st6"/><path d="M263.7 57.2h3.1v27.1h-3.1z" class="st6"/><path d="M271.8 25.8h16.4v18h-16.4z" class="st1"/></g></switch></svg>