<svg xmlns="http://www.w3.org/2000/svg" xml:space="preserve" id="Слой_1" x="0" y="0" style="enable-background:new 0 0 338 433" version="1.1" viewBox="0 0 338 433"><style>.st0{fill:#fff5a4}.st1,.st2{fill:none;stroke:#39373a;stroke-width:.586}.st2{stroke-width:.391}.st3{fill:#39373a}.st4{stroke-width:.977}.st4,.st5,.st7{fill:none;stroke:#39373a}.st5{stroke-width:.244}.st7{stroke-width:.62}</style><switch><g><path d="M217 141.6h99.9v261.1H217z" class="st0"/><path d="M23.2 75.1h293.7v174.4H23.2z" class="st0"/><path d="m243.6 191.7-1-.6 11.7-19.5 1.1.7z" class="st1"/><path d="M243.2 191.6s1.6 1.1 5.3 1.5c3.7.4 5.6.1 5.6.1" class="st2"/><path d="m32.7 218.4.8.5-13.8 22.9-.8-.5z" class="st1"/><path d="M32.6 218.3s-1.8-1.4-6.3-2.6c-4.5-1.2-6.9-1.4-6.9-1.4" class="st2"/><path d="M19.7 15.3h14.6V69H19.7z" class="st3"/><path d="M19.7 15.3h14.6V69H19.7z" class="st4"/><path d="M20 63.1h25.6v2.3h-2.9v9.2H20z" class="st3"/><path d="M20 63.1h25.6v2.3h-2.9v9.2H20z" class="st4"/><path d="M216.4 403.1v11.5h25.4v-2.3h-2.9v-9.2z" class="st3"/><path d="M216.4 414.6h25.4v-2.3h-2.9v-9.2h-22.5z" class="st4"/><path d="M114.5 63.1h28.3v2.3h-2.9v9.2h-25.4z" class="st3"/><path d="M114.5 63.1h28.3v2.3h-2.9v9.2h-25.4z" class="st4"/><path d="M219.4 63.1h28.3v2.3h-2.8v9.2h-25.5z" class="st3"/><path d="M219.4 63.1h28.3v2.3h-2.8v9.2h-25.5z" class="st4"/><path d="M122.3 63.1H94v2.3h2.8v9.2h25.5z" class="st3"/><path d="M122.3 63.1H94v2.3h2.8v9.2h25.5z" class="st4"/><path d="M313.9 63.1h-28.3v2.3h2.9v9.2h25.4z" class="st3"/><path d="M313.9 63.1h-28.3v2.3h2.9v9.2h25.4z" class="st4"/><path d="M295.8 403.1v9.2h-2.9v2.3h24.7v-11.5z" class="st3"/><path d="M317.6 414.6h-24.7v-2.3h2.9v-9.2h21.8z" class="st4"/><path d="M216.2 63.1h-24.7v2.3h2.9v9.2h21.8z" class="st3"/><path d="M216.2 63.1h-24.7v2.3h2.9v9.2h21.8z" class="st4"/><path d="M214.6 239.1h4.7v175.5h-4.7z" class="st3"/><path d="M214.6 239.1h4.7v175.5h-4.7z" class="st4"/><path d="M214.6 30.5h4.7v182.8h-4.7z" class="st3"/><path d="M214.6 30.5h4.7v182.8h-4.7z" class="st4"/><path d="M314.1 63.1h4.7v351.5h-4.7z" class="st3"/><path d="M314.1 63.1h4.7v351.5h-4.7z" class="st4"/><path d="M116.2 64h4.7v145.9h-4.7z" class="st3"/><path d="M116.2 64h4.7v145.9h-4.7z" class="st4"/><path d="M21.4 186.9h71.2v3.7H21.4z" class="st3"/><path d="M21.4 186.9h71.2v3.7H21.4z" class="st4"/><path d="M115.4 15.3h5.4v28h-5.4z" class="st3"/><path d="M115.4 15.3h5.4v28h-5.4z" class="st4"/><path d="M17.8 15.3h4.7v198.9h-4.7z" class="st3"/><path d="M17.8 15.3h4.7v198.9h-4.7z" class="st4"/><path d="M17.8 240h4.7v13.4h-4.7z" class="st3"/><path d="M17.8 240h4.7v13.4h-4.7z" class="st4"/><path d="M20.6 248.7H118v4.7H20.6z" class="st3"/><path d="M20.6 248.7H118v4.7H20.6z" class="st4"/><path d="M118.9 248.7h97.4v4.7h-97.4z" class="st3"/><path d="M118.9 248.7h97.4v4.7h-97.4z" class="st4"/><path d="M243.5 248.7h71.2v4.7h-71.2z" class="st3"/><path d="M243.5 248.7h71.2v4.7h-71.2z" class="st4"/><path d="M172.1 206.5h45.4v3.4h-45.4z" class="st3"/><path d="M172.1 206.5h45.4v3.4h-45.4z" class="st4"/><path d="M116.2 206.5H137v3.4h-20.8z" class="st3"/><path d="M116.2 206.5H137v3.4h-20.8z" class="st4"/><path d="M243.6 170.2h71.2v3.4h-71.2z" class="st3"/><path d="M243.6 170.2h71.2v3.4h-71.2z" class="st4"/><path d="M252.6 198.5H315v2.5h-62.4z" class="st3"/><path d="M252.6 198.5H315v2.5h-62.4z" class="st4"/><path d="M252.1 193.5h2.5v22.9h-2.5z" class="st3"/><path d="M252.1 193.5h2.5v22.9h-2.5z" class="st4"/><path d="M252.1 232.5h2.5v19.8h-2.5z" class="st3"/><path d="M252.1 232.5h2.5v19.8h-2.5z" class="st4"/><path stroke-width=".586" d="m120.725 21.607.387-2.672 97.18 14.092-.388 2.672z" class="st1"/><path d="M32.9 18.8h86.8v2.7H32.9z" class="st1"/><path stroke-width=".586" d="m139.25 65.743.46-.774 18.392 10.938-.46.774z" class="st1"/><path d="M158.9 62.9h35v2.7h-35z" class="st1"/><path d="M161.4 65.5h35v9.2h-35z" class="st1"/><path d="M158.2 75.8s1.1-1.5 1.6-4.9c.5-3.4.4-5.2.4-5.2" class="st2"/><path stroke-width=".586" d="m42.515 65.68.46-.773 18.393 10.938-.46.773z" class="st1"/><path d="M62.2 62.9h35v2.7h-35z" class="st1"/><path d="M64.6 65.5h35v9.2h-35z" class="st1"/><path d="M61.4 75.8s1.1-1.5 1.6-4.9c.5-3.4.4-5.2.4-5.2" class="st2"/><path d="m96.2 175.6.5-.8 20.4 12.3-.4.8z" class="st1"/><path d="M96.1 175.7s-1.4 1.8-2.6 6.3c-1.2 4.5-1.4 6.9-1.4 6.9" class="st2"/><path d="m239.7 159.5-.5-.8-20.4 12.3.4.8z" class="st1"/><path d="M239.8 159.6s1.4 1.8 2.6 6.3c1.2 4.5 1.4 6.9 1.4 6.9" class="st2"/><path d="m239.7 263.9-.5.8-20.4-12.3.4-.8z" class="st1"/><path d="M239.8 263.8s1.4-1.8 2.6-6.3c1.2-4.5 1.4-6.9 1.4-6.9" class="st2"/><path d="m244.5 218.2-1.1.6 9.9 16.3 1-.6z" class="st1"/><path d="M244.1 218.3s1.6-1.1 5.3-1.4c3.7-.4 5.6-.1 5.6-.1" class="st2"/><path d="M219.9 412.1h90v2.7h-90z" class="st1"/><path d="M221.1 403h87.4v9.2h-87.4z" class="st1"/><path stroke-width=".586" d="m132.518 207.767 22.863-13.595.46.774-22.863 13.595zm28.104-8.344.46-.773 13.838 8.229-.46.773z" class="st1"/><path d="M160.5 199.5s-.8 1.7-1.1 3.1c-.2 1.4-.4 3.9-.4 3.9s-.2-4.6-1.1-7.2c-.9-2.6-1.9-4.3-1.9-4.3" class="st2"/><path d="M283.1 186c0-2.8 2.2-5 5-5h7.2c.5 0 .9.4.9.9v8.3c0 .5-.4.9-.9.9h-7.2c-2.7-.1-5-2.4-5-5.1m13.5 4.1v-8.3c0-.7-.5-1.2-1.2-1.2h-7.2c-2.9 0-5.3 2.4-5.3 5.3s2.4 5.3 5.3 5.3h7.2c.6.1 1.2-.4 1.2-1.1" class="st3"/><path d="M283.1 186c0-2.8 2.2-5 5-5h7.2c.5 0 .9.4.9.9v8.3c0 .5-.4.9-.9.9h-7.2c-2.7-.1-5-2.4-5-5.1zm13.5 4.1v-8.3c0-.7-.5-1.2-1.2-1.2h-7.2c-2.9 0-5.3 2.4-5.3 5.3s2.4 5.3 5.3 5.3h7.2c.6.1 1.2-.4 1.2-1.1z" class="st5"/><path d="M293.8 182.4v7.2s0 .1-.1.1h-5.5c-2 0-3.7-1.7-3.7-3.7s1.7-3.7 3.7-3.7l5.6.1c0-.1 0-.1 0 0z" class="st5"/><path d="M293.6 182.5v7h-5.4c-1.9 0-3.5-1.6-3.5-3.5s1.6-3.5 3.5-3.5h5.4zm.4 7v-7.2c0-.1-.1-.3-.3-.3h-5.5c-2.1 0-3.8 1.7-3.8 3.8 0 2.1 1.7 3.8 3.8 3.8h5.5c.2.2.3.1.3-.1" class="st3"/><path d="M293.6 182.5v7h-5.4c-1.9 0-3.5-1.6-3.5-3.5s1.6-3.5 3.5-3.5h5.4zm.4 7v-7.2c0-.1-.1-.3-.3-.3h-5.5c-2.1 0-3.8 1.7-3.8 3.8 0 2.1 1.7 3.8 3.8 3.8h5.5c.2.2.3.1.3-.1z" class="st5"/><path d="M288.2 186c0-.5.4-.9.9-.9s.9.4.9.9-.4.9-.9.9-.9-.4-.9-.9m2.3 0c0-.7-.6-1.3-1.3-1.3-.7 0-1.3.6-1.3 1.3 0 .7.6 1.3 1.3 1.3.7-.1 1.3-.6 1.3-1.3" class="st3"/><path d="M288.2 186c0-.5.4-.9.9-.9s.9.4.9.9-.4.9-.9.9-.9-.4-.9-.9zm2.3 0c0-.7-.6-1.3-1.3-1.3-.7 0-1.3.6-1.3 1.3 0 .7.6 1.3 1.3 1.3.7-.1 1.3-.6 1.3-1.3z" class="st5"/><path d="m293.1 183.2-.2-.3-2.3 1.7.2.3z" class="st3"/><path d="m293.1 183.2-.2-.3-2.3 1.7.2.3z" class="st5"/><path d="m293.1 188.7-2.3-1.7-.2.3 2.3 1.7z" class="st3"/><path d="m293.1 188.7-2.3-1.7-.2.3 2.3 1.7z" class="st5"/><path d="M296.6 182.5c0-.8.6-1.4 1.4-1.4h1.9c.8 0 1.4.6 1.4 1.4v6.9c0 .8-.6 1.4-1.4 1.4H298c-.8 0-1.4-.6-1.4-1.4v-6.9zm5 6.9v-6.9c0-1-.8-1.7-1.7-1.7H298c-1 0-1.7.8-1.7 1.7v6.9c0 1 .8 1.7 1.7 1.7h1.9c.9 0 1.7-.7 1.7-1.7" class="st3"/><path d="M296.6 182.5c0-.8.6-1.4 1.4-1.4h1.9c.8 0 1.4.6 1.4 1.4v6.9c0 .8-.6 1.4-1.4 1.4H298c-.8 0-1.4-.6-1.4-1.4v-6.9zm5 6.9v-6.9c0-1-.8-1.7-1.7-1.7H298c-1 0-1.7.8-1.7 1.7v6.9c0 1 .8 1.7 1.7 1.7h1.9c.9 0 1.7-.7 1.7-1.7z" class="st5"/><path d="M298.4 186c0-.3.2-.5.5-.5s.5.2.5.5-.2.5-.5.5-.5-.2-.5-.5m1.4 0c0-.5-.4-.9-.9-.9s-.9.4-.9.9.4.9.9.9c.5-.1.9-.5.9-.9" class="st3"/><path d="M298.4 186c0-.3.2-.5.5-.5s.5.2.5.5-.2.5-.5.5-.5-.2-.5-.5zm1.4 0c0-.5-.4-.9-.9-.9s-.9.4-.9.9.4.9.9.9c.5-.1.9-.5.9-.9z" class="st5"/><path d="m317.5 73-9.5-2.7-3.9 4 10.3 10.4zm-2.4 332.9 2.6-9.5-3.9-4-10.4 10.4zm-165.3-361c-.7-.1-1-.8-1-1.5 0-1.2.4-1.8 2.4-1.8s2.4.5 2.4 1.8c0 .7-.3 1.4-1 1.5.9.1 1.2.9 1.2 1.8 0 1.3-.5 1.8-2.6 1.8s-2.6-.5-2.6-1.8c0-.8.2-1.6 1.2-1.8zm.5 1.5c0 .7.2.8.9.8s.9-.2.9-.8c0-.7-.2-.9-.9-.9s-.9.2-.9.9zm.1-2.8c0 .6.2.7.8.7.7 0 .8-.1.8-.7 0-.7-.2-.8-.8-.8-.7.1-.8.2-.8.8zm5.3 3.2c.5 0 .6.1.6.6v.4c0 .5-.1.6-.6.6h-.4c-.5 0-.6-.1-.6-.6v-.4c0-.5.1-.6.6-.6h.4zm2.6-1.9c-.7-.1-1-.8-1-1.5 0-1.2.4-1.8 2.4-1.8s2.4.5 2.4 1.8c0 .7-.3 1.4-1 1.5 1 .1 1.2.9 1.2 1.8 0 1.3-.5 1.8-2.6 1.8s-2.6-.5-2.6-1.8c0-.8.2-1.6 1.2-1.8zm.5 1.5c0 .7.2.8.9.8s.9-.2.9-.8c0-.7-.2-.9-.9-.9-.8 0-.9.2-.9.9zm.1-2.8c0 .6.2.7.8.7.7 0 .8-.1.8-.7 0-.7-.2-.8-.8-.8-.7.1-.8.2-.8.8zm9.3-2.1c-1.1.5-1.4 1.8-1.4 3.8 0 2 .4 3.4 1.4 3.8l-.2.9c-2-.6-2.9-2-2.9-4.6 0-2.6.9-4 2.9-4.6l.2.7z" class="st3"/><path d="m173.9 46.8-.8.2v1.4h-1.6V47h-2.6c-.6 0-.9-.5-.7-1l1.7-4.2h1.7l-1.4 3.8c-.1.2 0 .3.2.3h1.3v-1.7l.3-1h1.4v2.7h.8v.9zm1.6 0c.5 0 .6.1.6.6v.4c0 .5-.1.6-.6.6h-.4c-.5 0-.6-.1-.6-.6v-.4c0-.5.1-.6.6-.6h.4zm7 0-.8.2v1.4h-1.6V47h-2.6c-.6 0-.9-.5-.7-1l1.7-4.2h1.7l-1.4 3.8c-.1.2 0 .3.2.3h1.3v-1.7l.3-1h1.4v2.7h.8v.9z" class="st3"/><path d="M182.7 40.8c2 .6 2.9 2 2.9 4.6 0 2.6-.9 4-2.9 4.6l-.2-.7c1.1-.5 1.4-1.9 1.4-3.8 0-2-.4-3.4-1.4-3.8l.2-.9zM57.6 222.1h-1.8v-5.4h-1.9v5.4H52v-6.6h5.5v6.6zm2.6-4.1c.3-.4 1.1-.8 1.8-.8 1.2 0 1.7.9 1.7 2.6 0 1.9-.6 2.5-1.8 2.5-.6 0-1.1-.1-1.5-.4v2h-1.7v-6.5h1.4l.1.6zm.2 2.9c.3.1.5.2.8.2.5 0 .7-.2.7-1.3s-.2-1.3-.6-1.3c-.4 0-.6.1-.9.3v2.1zm7.5 1.2V220c0-.3 0-.5.1-.8-.1.3-.2.6-.4.8l-1.5 2.2h-1.5v-4.8h1.5v2.2c0 .2 0 .5-.1.7.1-.3.2-.5.4-.7l1.5-2.3h1.5v4.8h-1.5zm4.9-1.9-1 1.9H70l1.4-2.4-1.3-2.3h1.7l.9 1.8.9-1.8h1.7l-1.3 2.3 1.4 2.4h-1.8l-.8-1.9zm8.1-.5c0 1.8-.7 2.5-2.6 2.5-1.9 0-2.6-.7-2.6-2.5s.7-2.5 2.6-2.5c2 0 2.6.7 2.6 2.5zm-3.3 0c0 1 .2 1.3.7 1.3.6 0 .7-.2.7-1.3s-.2-1.3-.7-1.3c-.5 0-.7.2-.7 1.3zm9.7-.1c1.1.2 1.2.2 1.9 2.5h-1.8c-.6-1.8-.6-1.9-1.1-1.9H86v1.9h-1.5v-1.5c0-.1 0-.3.1-.4h-.4c-.4 0-.5.1-1.1 1.9h-1.8c.7-2.2.7-2.3 1.9-2.5-1.1-.1-1.1-.3-1.7-2.3h1.7c.5 1.6.6 1.7 1 1.7h.3c0-.2-.1-.4-.1-.6v-1.1H86v1.1c0 .2 0 .4-.1.6h.3c.5 0 .5-.2 1-1.7H89c-.6 2-.6 2.1-1.7 2.3zm2.5-2.2c.7-.1 1.9-.2 2.6-.2 1.3 0 2 .4 2 1.9v3H93l-.2-.7c-.3.4-.9.8-1.7.8-.9 0-1.6-.5-1.6-1.4v-.5c0-.8.6-1.2 1.5-1.2h1.6v-.1c0-.4-.2-.5-.7-.5-.5 0-1.2 0-2 .1l-.1-1.2zm1.5 3.2c0 .2.2.4.5.4s.6-.1.9-.3v-.6h-1c-.3 0-.4.2-.4.4v.1zm5-.6c-.8-.2-1-.7-1-1.3 0-1.2.4-1.5 2.2-1.5 1.3 0 1.8 0 2.4.1v4.8h-1.7v-1.6h-.6c-.3 0-.4.1-.4.3l-.3 1.3h-1.8l.4-1.5c.1-.4.6-.5.8-.6zm1.9-1.6h-.7c-.5 0-.5.1-.5.4 0 .5.1.6.5.6h.7v-1zM73.9 227c.5 0 .8.4.7.9l-2 5.7h-1.8l1.6-4.5c.1-.2.2-.5.3-.7h-2.9l-.1-1.4h4.2zm1.9 5c.5 0 .6.1.6.6v.4c0 .5-.1.6-.6.6h-.4c-.5 0-.6-.1-.6-.6v-.4c0-.5.1-.6.6-.6h.4zm1.4-5c.7-.1 1.5-.2 2.2-.2 1.6 0 2.2.4 2.2 1.5 0 1-.2 1.5-1.1 1.7.9.1 1.2.7 1.2 1.7 0 1.4-.6 2-2.4 2-.8 0-1.6-.1-2.4-.2l.1-1.3c.8 0 1.3.1 1.8.1.8 0 1.1-.1 1.1-.8 0-.6-.2-.8-.9-.8h-1.3v-1.2H79c.7 0 .8-.3.8-.7 0-.5-.2-.6-.9-.6h-1.8l.1-1.2zm72-3.9c1.4.2 1.4.7 2.3 3.4h-1.9c-.7-2.4-.8-2.8-1.7-2.8h-.3c0 .2.1.4.1.6v2.2h-1.8V220h1.8v1.8c0 .3 0 .6-.1.8h.3c.9 0 1.1-.6 1.6-2.6h1.8c-.8 2.3-.8 2.9-2.1 3.1zm7.7 1.1c0 1.8-.7 2.5-2.6 2.5-1.9 0-2.6-.7-2.6-2.5s.7-2.5 2.6-2.5c1.9 0 2.6.7 2.6 2.5zm-3.3 0c0 1 .2 1.3.7 1.3.6 0 .7-.2.7-1.3s-.2-1.3-.7-1.3c-.5 0-.7.2-.7 1.3zm5.7-1.7c.3-.4 1.1-.8 1.8-.8 1.2 0 1.7.9 1.7 2.6 0 1.9-.6 2.5-1.8 2.5-.6 0-1.1-.1-1.5-.4v2h-1.7v-6.5h1.4l.1.6zm.2 2.8c.3.1.5.2.8.2.5 0 .7-.2.7-1.3s-.2-1.3-.6-1.3c-.4 0-.6.1-.9.3v2.1zm7.5 1.3v-2.1c0-.3 0-.5.1-.8-.1.3-.2.6-.4.8l-1.5 2.2h-1.5v-4.8h1.5v2.2c0 .2 0 .5-.1.7.1-.3.2-.5.4-.7l1.5-2.3h1.5v4.8H167zm8.2 1.3H174l-.1-1.3h-3.4l-.1 1.3h-1.2v-2.5h.6c.3-.8.5-1.6.6-2.4.1-.8.5-1.2 1.4-1.2h2.6v3.6h.8v2.5zm-2.4-5h-.4c-.2 0-.4.1-.4.4-.1.9-.3 1.6-.5 2.1h1.4v-2.5zm8 1.3c0 1.8-.7 2.5-2.6 2.5-1.9 0-2.6-.7-2.6-2.5s.7-2.5 2.6-2.5c1.9 0 2.6.7 2.6 2.5zm-3.3 0c0 1 .2 1.3.7 1.3.6 0 .7-.2.7-1.3s-.2-1.3-.7-1.3c-.6 0-.7.2-.7 1.3zm5.7-1.7c.3-.4 1.1-.8 1.8-.8 1.2 0 1.7.9 1.7 2.6 0 1.9-.6 2.5-1.8 2.5-.6 0-1.1-.1-1.5-.4v2h-1.7v-6.5h1.4l.1.6zm.2 2.8c.3.1.5.2.8.2.5 0 .7-.2.7-1.3s-.2-1.3-.6-1.3c-.4 0-.6.1-.9.3v2.1zm-22.7 9.3c-.7-.1-1-.8-1-1.5 0-1.2.4-1.8 2.4-1.8s2.4.5 2.4 1.8c0 .7-.3 1.4-1 1.5.9.1 1.2.9 1.2 1.8 0 1.3-.5 1.8-2.6 1.8s-2.6-.5-2.6-1.8c0-.8.3-1.6 1.2-1.8zm.5 1.5c0 .7.2.8.9.8s.9-.2.9-.8c0-.7-.2-.9-.9-.9s-.9.2-.9.9zm.1-2.8c0 .6.2.7.8.7.7 0 .8-.1.8-.7 0-.7-.2-.8-.8-.8-.6.1-.8.2-.8.8zm5.3 3.2c.5 0 .6.1.6.6v.4c0 .5-.1.6-.6.6h-.4c-.5 0-.6-.1-.6-.6v-.4c0-.5.1-.6.6-.6h.4zm1.4-5c.7-.1 1.5-.2 2.2-.2 1.6 0 2.2.4 2.2 1.5 0 1-.2 1.5-1.1 1.7.9.1 1.2.7 1.2 1.7 0 1.4-.6 2-2.4 2-.8 0-1.6-.1-2.4-.2l.1-1.3c.8 0 1.3.1 1.8.1.8 0 1.1-.1 1.1-.8 0-.6-.2-.8-.9-.8h-1.3V234h1.3c.7 0 .8-.3.8-.7 0-.5-.2-.6-.9-.6h-1.8l.1-1.2zM23.6 177.3h15.9v-15.9H23.6v15.9zm-.3-16.2h16.6v16.6H23.3v-16.6z" class="st3"/><path d="M23.6 177.3h15.9v-15.9H23.6v15.9zm-.3-16.2h16.6v16.6H23.3v-16.6z" class="st5"/><path d="M38.1 163.8c0-.4-.3-.7-.7-.7H29c-.4 0-.7.3-.7.7v11.1c0 .4.3.7.7.7h8.3c.4 0 .7-.3.7-.7v-11.1zm-10.2 11.1v-11.1c0-.6.5-1.1 1.1-1.1h8.3c.6 0 1.1.5 1.1 1.1v11.1c0 .6-.5 1.1-1.1 1.1H29c-.6 0-1.1-.5-1.1-1.1" class="st3"/><path d="M38.1 163.8c0-.4-.3-.7-.7-.7H29c-.4 0-.7.3-.7.7v11.1c0 .4.3.7.7.7h8.3c.4 0 .7-.3.7-.7v-11.1zm-10.2 11.1v-11.1c0-.6.5-1.1 1.1-1.1h8.3c.6 0 1.1.5 1.1 1.1v11.1c0 .6-.5 1.1-1.1 1.1H29c-.6 0-1.1-.5-1.1-1.1z" class="st5"/><path d="M29.5 174.4h7.3v-10.1h-7.3v10.1zm-.3-10.4h8v10.8h-8V164z" class="st3"/><path d="M29.5 174.4h7.3v-10.1h-7.3v10.1zm-.3-10.4h8v10.8h-8V164z" class="st5"/><path d="M34.6 169.4c0-.5-.4-.9-.9-.9s-.9.4-.9.9.4.9.9.9.9-.4.9-.9m-2.2 0c0-.7.6-1.3 1.3-1.3s1.3.6 1.3 1.3c0 .7-.6 1.3-1.3 1.3s-1.3-.6-1.3-1.3" class="st3"/><path d="M34.6 169.4c0-.5-.4-.9-.9-.9s-.9.4-.9.9.4.9.9.9.9-.4.9-.9zm-2.2 0c0-.7.6-1.3 1.3-1.3s1.3.6 1.3 1.3c0 .7-.6 1.3-1.3 1.3s-1.3-.6-1.3-1.3z" class="st5"/><path d="M281.5 213.6c2.9 0 5.3-2.4 5.3-5.3v-5.6c0-.4-.4-.8-.8-.8h-12c-.4 0-.8.4-.8.8v5.6c0 2.9 2.4 5.3 5.3 5.3h3zm-7.5-12h12c.6 0 1.1.5 1.1 1.1v5.6c0 3.1-2.5 5.6-5.6 5.6h-3c-3.1 0-5.6-2.5-5.6-5.6v-5.6c0-.6.5-1.1 1.1-1.1" class="st3"/><path d="M281.5 213.6c2.9 0 5.3-2.4 5.3-5.3v-5.6c0-.4-.4-.8-.8-.8h-12c-.4 0-.8.4-.8.8v5.6c0 2.9 2.4 5.3 5.3 5.3h3zm-7.5-12h12c.6 0 1.1.5 1.1 1.1v5.6c0 3.1-2.5 5.6-5.6 5.6h-3c-3.1 0-5.6-2.5-5.6-5.6v-5.6c0-.6.5-1.1 1.1-1.1z" class="st5"/><path d="M281.5 212.3c2.2 0 4-1.8 4-4V205c0-.4-.3-.7-.7-.7h-9.5c-.4 0-.7.3-.7.7v3.3c0 2.2 1.8 4 4 4h2.9zm-6.2-8.2h9.5c.5 0 1 .4 1 1v3.3c0 2.4-1.9 4.3-4.3 4.3h-3c-2.4 0-4.3-1.9-4.3-4.3v-3.3c.1-.6.5-1 1.1-1" class="st3"/><path d="M281.5 212.3c2.2 0 4-1.8 4-4V205c0-.4-.3-.7-.7-.7h-9.5c-.4 0-.7.3-.7.7v3.3c0 2.2 1.8 4 4 4h2.9zm-6.2-8.2h9.5c.5 0 1 .4 1 1v3.3c0 2.4-1.9 4.3-4.3 4.3h-3c-2.4 0-4.3-1.9-4.3-4.3v-3.3c.1-.6.5-1 1.1-1z" class="st5"/><path d="M280 209.5c.4 0 .7-.3.7-.7s-.3-.7-.7-.7c-.4 0-.7.3-.7.7s.4.7.7.7m0-1.6c.5 0 1 .4 1 1 0 .5-.4 1-1 1-.5 0-1-.4-1-1 .1-.6.5-1 1-1" class="st3"/><path d="M280 209.5c.4 0 .7-.3.7-.7s-.3-.7-.7-.7c-.4 0-.7.3-.7.7s.4.7.7.7zm0-1.6c.5 0 1 .4 1 1 0 .5-.4 1-1 1-.5 0-1-.4-1-1 .1-.6.5-1 1-1z" class="st5"/><path d="M231 62.9h59.4v2.7H231z" class="st1"/><path d="M235.1 65.5h59.4v9.2h-59.4z" class="st1"/><path d="M311.6 174.6h4.8v74.7h-4.8z" class="st3"/><path d="M311.6 174.6h4.8v74.7h-4.8z" class="st4"/><path d="M158.6 154.5c1.3.2 1.4.7 2.2 3.4h-1.9c-.7-2.4-.8-2.8-1.5-2.8h-.3c0 .2.1.4.1.6v2.2h-1.7v-2.2c0-.2 0-.4.1-.6h-.3c-.6 0-.7.4-1.5 2.8h-1.9c.8-2.7.9-3.2 2.2-3.4v-.1c-1.3-.2-1.3-.8-2-3.1h1.8c.6 2 .7 2.6 1.3 2.6h.3c-.1-.3-.1-.6-.1-.8v-1.8h1.7v1.8c0 .3 0 .5-.1.8h.3c.6 0 .8-.6 1.4-2.6h1.8c-.6 2.4-.7 3-1.9 3.2zm6.2 3.5v-2.1c0-.3 0-.5.1-.8-.1.3-.2.6-.4.8l-1.5 2.2h-1.5v-4.8h1.5v2.2c0 .2 0 .5-.1.7.1-.3.2-.5.4-.7l1.5-2.3h1.5v4.8h-1.5zm7.3 0h-1.7v-3.6h-.4c-.3 0-.4.1-.5.4-.1.7-.2 1.5-.3 2-.2 1.2-1.1 1.4-2.2 1.2l-.2-1.3c.4-.1.7-.1.8-.4.1-.3.2-1 .2-1.9.1-.8.5-1.2 1.3-1.2h2.9v4.8zm1.1-4.7c.7-.1 1.9-.2 2.6-.2 1.3 0 2 .4 2 1.9v3h-1.4l-.2-.7c-.3.4-.9.8-1.7.8-.9 0-1.6-.5-1.6-1.4v-.5c0-.8.6-1.2 1.5-1.2h1.6v-.1c0-.4-.2-.5-.7-.5-.5 0-1.2 0-2 .1l-.1-1.2zm1.4 3.2c0 .2.2.4.5.4s.6-.1.9-.3v-.6h-1c-.3 0-.4.2-.4.4v.1zm5.1-.6c-.8-.2-1-.7-1-1.3 0-1.2.4-1.5 2.2-1.5 1.3 0 1.8 0 2.4.1v4.8h-1.7v-1.6h-.6c-.3 0-.4.1-.4.3l-.3 1.3h-1.8l.4-1.5c0-.5.5-.5.8-.6zm1.9-1.6h-.7c-.5 0-.5.1-.5.4 0 .5.1.6.5.6h.7v-1zM150.8 167c1.1.2 1.2.2 1.8 2.5h-1.8c-.5-1.8-.5-1.9-1-1.9h-.4c0 .1.1.3.1.4v1.5h-1.7v-4.8h1.7v1.1c0 .2 0 .4-.1.6h.2c.7 0 .7-.1 1.1-1.7h1.8c-.6 2-.6 2.1-1.7 2.3zm7.4.1c0 1.8-.7 2.5-2.6 2.5-1.9 0-2.6-.7-2.6-2.5s.7-2.5 2.6-2.5c1.9 0 2.6.6 2.6 2.5zm-3.3 0c0 1 .2 1.3.7 1.3.6 0 .7-.2.7-1.3s-.2-1.3-.7-1.3c-.6 0-.7.2-.7 1.3zm10.1-2.4c.4 0 .6.2.6.6l.1 4.2h-1.6l-.1-3.5-.6 2.3c-.1.4-.3.5-.7.5h-.7c-.4 0-.6-.2-.7-.5l-.6-2.3h-.1l-.1 3.5h-1.6l.1-4.2c0-.4.2-.6.6-.6h1.5c.4 0 .6.2.6.5l.4 1.8c.1.2.1.5.1.7h.1c0-.2 0-.5.1-.7l.4-1.8c.1-.4.3-.5.7-.5h1.5zm6.6 4.8h-1.7v-1.9h-1.5v1.9h-1.7v-4.8h1.7v1.7h1.5v-1.7h1.7v4.8zm1.1-4.7c.7-.1 1.9-.2 2.6-.2 1.3 0 2 .4 2 1.9v3h-1.4l-.2-.7c-.3.4-.9.8-1.7.8-.9 0-1.6-.5-1.6-1.4v-.5c0-.8.6-1.2 1.5-1.2h1.6v-.1c0-.4-.2-.5-.7-.5-.5 0-1.2 0-2 .1l-.1-1.2zm1.4 3.2c0 .2.2.4.5.4s.6-.1.9-.3v-.6h-1c-.3 0-.4.2-.4.4v.1zm7-2v3.5h-1.7V166h-1.5v-1.3h4.8v1.3h-1.6zm2.2-1.2c.7-.1 1.9-.2 2.6-.2 1.3 0 2 .4 2 1.9v3h-1.4l-.2-.7c-.3.4-.9.8-1.7.8-.9 0-1.6-.5-1.6-1.4v-.5c0-.8.6-1.2 1.5-1.2h1.6v-.1c0-.4-.2-.5-.7-.5-.5 0-1.2 0-2 .1l-.1-1.2zm1.4 3.2c0 .2.2.4.5.4s.6-.1.9-.3v-.6h-1c-.3 0-.4.2-.4.4v.1zm-23.9 13v-4.4c0-.3 0-.5.1-.8l-1.5.3-.2-1.1 1.7-.7h1.8v6.6h-1.9zm7.5-5.5h-1.6c-.9 0-1.1.2-1.1 1.5.4-.3.8-.4 1.4-.4 1.5 0 1.9.6 1.9 2.1 0 1.7-.4 2.4-2.5 2.4-2 0-2.6-.7-2.6-3.4 0-3 1-3.5 2.9-3.5.3 0 1 0 1.7.2l-.1 1.1zm-1.1 3.2c0-.7-.1-.9-.8-.9-.3 0-.5.1-.8.2 0 1.5.1 1.7.9 1.7.6.1.7-.2.7-1zm3.4.6c.5 0 .6.1.6.6v.4c0 .5-.1.6-.6.6h-.4c-.5 0-.6-.1-.6-.6v-.3c0-.5.1-.6.6-.6h.4zm5-4.9c.5 0 .8.4.7.9l-2 5.7h-1.8l1.6-4.5c.1-.2.2-.5.3-.7h-2.9l-.1-1.4h4.2zM256.4 314c1.3.2 1.4.7 2.2 3.4h-1.9c-.7-2.4-.8-2.8-1.5-2.8h-.2c0 .2.1.4.1.6v2.2h-1.7v-2.2c0-.2 0-.4.1-.6h-.3c-.6 0-.7.4-1.5 2.8h-1.9c.8-2.7.9-3.2 2.2-3.4v-.1c-1.3-.2-1.3-.8-2-3.1h1.8c.6 2 .7 2.6 1.3 2.6h.3c-.1-.3-.1-.6-.1-.8v-1.8h1.7v1.8c0 .3 0 .5-.1.8h.3c.6 0 .8-.6 1.4-2.6h1.8c-.7 2.4-.7 3-2 3.2zm6.2 3.4v-2.1c0-.3 0-.5.1-.8-.1.3-.2.6-.4.8l-1.5 2.2h-1.5v-4.8h1.5v2.2c0 .2 0 .5-.1.7.1-.3.2-.5.4-.7l1.5-2.3h1.5v4.8h-1.5zm7.4 0h-1.7v-3.6h-.4c-.3 0-.4.1-.5.4-.1.7-.2 1.5-.3 2-.2 1.2-1.1 1.4-2.2 1.2l-.2-1.3c.4-.1.7-.1.8-.4.1-.3.2-1 .2-1.9.1-.8.5-1.2 1.3-1.2h2.9v4.8zm1.1-4.7c.7-.1 1.9-.2 2.6-.2 1.3 0 2 .4 2 1.9v3h-1.4l-.2-.7c-.3.4-.9.8-1.7.8-.9 0-1.6-.5-1.6-1.4v-.5c0-.8.6-1.2 1.5-1.2h1.6v-.1c0-.4-.2-.5-.7-.5-.5 0-1.2 0-2 .1l-.1-1.2zm1.4 3.2c0 .2.2.4.5.4s.6-.1.9-.3v-.6h-1c-.3 0-.4.2-.4.4v.1zm5.1-.6c-.8-.2-1-.7-1-1.3 0-1.2.4-1.5 2.2-1.5 1.3 0 1.8 0 2.4.1v4.8h-1.7v-1.6h-.6c-.3 0-.4.1-.4.3l-.3 1.3h-1.8l.4-1.5c0-.4.5-.5.8-.6zm1.9-1.5h-.7c-.5 0-.5.1-.5.4 0 .5.1.6.5.6h.7v-1zm-30.8 12.7c1.1.2 1.2.2 1.8 2.5h-1.8c-.5-1.8-.5-1.9-1-1.9h-.4c0 .1.1.3.1.4v1.5h-1.7v-4.8h1.7v1.1c0 .2 0 .4-.1.6h.2c.7 0 .7-.1 1.1-1.7h1.8c-.7 2-.6 2.1-1.7 2.3zm7.3 0c0 1.8-.7 2.5-2.6 2.5-1.9 0-2.6-.7-2.6-2.5s.7-2.5 2.6-2.5c2 0 2.6.7 2.6 2.5zm-3.3 0c0 1 .2 1.3.7 1.3.6 0 .7-.2.7-1.3s-.2-1.3-.7-1.3c-.5 0-.7.3-.7 1.3zm10.2-2.3c.4 0 .6.2.6.6l.1 4.2H262l-.1-3.5h-.1l-.6 2.3c-.1.4-.3.5-.7.5h-.8c-.4 0-.6-.2-.7-.5l-.6-2.3h-.1l-.1 3.5h-1.6l.1-4.2c0-.4.2-.6.6-.6h1.5c.4 0 .6.2.6.5l.4 1.8c.1.2.1.5.1.7h.1c0-.2 0-.5.1-.7l.4-1.8c.1-.4.3-.5.7-.5h1.7zm6.6 4.7h-1.7V327h-1.5v1.9h-1.7v-4.8h1.7v1.7h1.5v-1.7h1.7v4.8zm1-4.6c.7-.1 1.9-.2 2.6-.2 1.3 0 2 .4 2 1.9v3h-1.4l-.2-.7c-.3.4-.9.8-1.7.8-.9 0-1.6-.5-1.6-1.4v-.5c0-.8.6-1.2 1.5-1.2h1.6v-.1c0-.4-.2-.5-.7-.5-.5 0-1.2 0-2 .1l-.1-1.2zm1.5 3.1c0 .2.2.4.5.4s.6-.1.9-.3v-.6h-1c-.3 0-.4.2-.4.4v.1zm7-1.9v3.5h-1.7v-3.5h-1.5v-1.3h4.8v1.3H279zm2.1-1.2c.7-.1 1.9-.2 2.6-.2 1.3 0 2 .4 2 1.9v3h-1.4l-.2-.7c-.3.4-.9.8-1.7.8-.9 0-1.6-.5-1.6-1.4v-.5c0-.8.6-1.2 1.5-1.2h1.6v-.1c0-.4-.2-.5-.7-.5-.5 0-1.2 0-2 .1l-.1-1.2zm1.5 3.1c0 .2.2.4.5.4s.6-.1.9-.3v-.6h-1c-.3 0-.4.2-.4.4v.1zm-24.6 13V336c0-.3 0-.5.1-.8l-1.5.3-.2-1.1 1.7-.7h1.8v6.6H258zm4.1-3.4c-.7-.1-1-.8-1-1.5 0-1.2.4-1.8 2.4-1.8s2.4.5 2.4 1.8c0 .7-.3 1.4-1 1.5.9.1 1.2.9 1.2 1.8 0 1.3-.5 1.8-2.6 1.8s-2.6-.5-2.6-1.8c0-.9.3-1.7 1.2-1.8zm.5 1.4c0 .7.2.8.9.8s.9-.2.9-.8c0-.7-.2-.9-.9-.9-.7.1-.9.3-.9.9zm.1-2.7c0 .6.2.7.8.7.7 0 .8-.1.8-.7 0-.7-.2-.8-.8-.8-.6 0-.8.1-.8.8zm5.3 3.1c.5 0 .6.1.6.6v.4c0 .5-.1.6-.6.6h-.4c-.5 0-.6-.1-.6-.6v-.4c0-.5.1-.6.6-.6h.4zm2.6-1.8c-.7-.1-1-.8-1-1.5 0-1.2.4-1.8 2.4-1.8s2.4.5 2.4 1.8c0 .7-.3 1.4-1 1.5 1 .1 1.2.9 1.2 1.8 0 1.3-.5 1.8-2.6 1.8s-2.6-.5-2.6-1.8c0-.9.3-1.7 1.2-1.8zm.5 1.4c0 .7.2.8.9.8s.9-.2.9-.8c0-.7-.2-.9-.9-.9-.7.1-.9.3-.9.9zm.1-2.7c0 .6.2.7.8.7.7 0 .8-.1.8-.7 0-.7-.2-.8-.8-.8-.6 0-.8.1-.8.8zm-14.8-225.5c1.3.2 1.4.7 2.2 3.4h-1.9c-.7-2.4-.8-2.8-1.5-2.8h-.2c0 .2.1.4.1.6v2.2h-1.7v-2.2c0-.2 0-.4.1-.6h-.3c-.6 0-.7.4-1.5 2.8h-1.9c.8-2.7.9-3.2 2.2-3.4v-.1c-1.3-.2-1.3-.8-2-3.1h1.8c.6 2 .7 2.6 1.3 2.6h.3c-.1-.3-.1-.6-.1-.8V107h1.7v1.8c0 .3 0 .5-.1.8h.3c.6 0 .8-.6 1.4-2.6h1.8c-.7 2.4-.7 3-2 3.2zm6.2 3.4v-2.1c0-.3 0-.5.1-.8-.1.3-.2.6-.4.8l-1.5 2.2h-1.5v-4.8h1.5v2.2c0 .2 0 .5-.1.7.1-.3.2-.5.4-.7l1.5-2.3h1.5v4.8h-1.5zm7.4 0h-1.7V110h-.4c-.3 0-.4.1-.5.4-.1.7-.2 1.5-.3 2-.2 1.2-1.1 1.4-2.2 1.2l-.2-1.3c.4-.1.7-.1.8-.4.1-.3.2-1 .2-1.9.1-.8.5-1.2 1.3-1.2h2.9v4.8zm1.1-4.6c.7-.1 1.9-.2 2.6-.2 1.3 0 2 .4 2 1.9v3h-1.4l-.2-.7c-.3.4-.9.8-1.7.8-.9 0-1.6-.5-1.6-1.4v-.5c0-.8.6-1.2 1.5-1.2h1.6v-.1c0-.4-.2-.5-.7-.5-.5 0-1.2 0-2 .1l-.1-1.2zm1.4 3.1c0 .2.2.4.5.4s.6-.1.9-.3v-.6h-1c-.3 0-.4.2-.4.4v.1zm5.1-.5c-.8-.2-1-.7-1-1.3 0-1.2.4-1.5 2.2-1.5 1.3 0 1.8 0 2.4.1v4.8h-1.7v-1.6h-.6c-.3 0-.4.1-.4.3l-.3 1.3h-1.8l.4-1.5c0-.5.5-.6.8-.6zm1.9-1.6h-.7c-.5 0-.5.1-.5.4 0 .5.1.6.5.6h.7v-1zm-30.8 12.7c1.1.2 1.2.2 1.8 2.5h-1.8c-.5-1.8-.5-1.9-1-1.9h-.4c0 .1.1.3.1.4v1.5h-1.7v-4.8h1.7v1.1c0 .2 0 .4-.1.6h.2c.7 0 .7-.1 1.1-1.7h1.8c-.7 2-.6 2.1-1.7 2.3zm7.4 0c0 1.8-.7 2.5-2.6 2.5-1.9 0-2.6-.7-2.6-2.5s.7-2.5 2.6-2.5c1.9 0 2.6.7 2.6 2.5zm-3.4 0c0 1 .2 1.3.7 1.3.6 0 .7-.2.7-1.3s-.2-1.3-.7-1.3c-.5.1-.7.3-.7 1.3zm10.2-2.3c.4 0 .6.2.6.6l.1 4.2H262l-.1-3.5h-.1l-.6 2.3c-.1.4-.3.5-.7.5h-.8c-.4 0-.6-.2-.7-.5l-.6-2.3h-.1l-.1 3.5h-1.6l.1-4.2c0-.4.2-.6.6-.6h1.5c.4 0 .6.2.6.5l.4 1.8c.1.2.1.5.1.7h.1c0-.2 0-.5.1-.7l.4-1.8c.1-.4.3-.5.7-.5h1.7zm6.6 4.7h-1.7v-1.9h-1.5v1.9h-1.7v-4.8h1.7v1.7h1.5v-1.7h1.7v4.8zm1-4.6c.7-.1 1.9-.2 2.6-.2 1.3 0 2 .4 2 1.9v3h-1.4l-.2-.7c-.3.4-.9.8-1.7.8-.9 0-1.6-.5-1.6-1.4v-.5c0-.8.6-1.2 1.5-1.2h1.6v-.1c0-.4-.2-.5-.7-.5-.5 0-1.2 0-2 .1l-.1-1.2zm1.5 3.1c0 .2.2.4.5.4s.6-.1.9-.3v-.6h-1c-.3 0-.4.2-.4.4v.1zm7-1.9v3.5h-1.7v-3.5h-1.5v-1.3h4.8v1.3H279zm2.1-1.2c.7-.1 1.9-.2 2.6-.2 1.3 0 2 .4 2 1.9v3h-1.4l-.2-.7c-.3.4-.9.8-1.7.8-.9 0-1.6-.5-1.6-1.4v-.5c0-.8.6-1.2 1.5-1.2h1.6v-.1c0-.4-.2-.5-.7-.5-.5 0-1.2 0-2 .1l-.1-1.2zm1.5 3.1c0 .2.2.4.5.4s.6-.1.9-.3v-.6h-1c-.3 0-.4.2-.4.4v.1zm-23.6 13v-4.4c0-.3 0-.5.1-.8l-1.5.3-.2-1.1 1.7-.7h1.8v6.6H259zm4.3 0v-4.4c0-.3 0-.5.1-.8l-1.5.3-.2-1.1 1.7-.7h1.8v6.6h-1.9zm4-1.6c.5 0 .6.1.6.6v.4c0 .5-.1.6-.6.6h-.4c-.5 0-.6-.1-.6-.6v-.4c0-.5.1-.6.6-.6h.4zm1.7.4h1.8c.9 0 1.1-.3 1.2-1.5-.4.3-.8.4-1.4.4-1.5 0-1.9-.8-1.9-2.1 0-1.7.5-2.4 2.5-2.4 2.1 0 2.5.7 2.5 3.4 0 3-.8 3.5-2.9 3.5-.4 0-1.1 0-1.8-.2v-1.1zm2.1-2.2c.3 0 .5-.1.8-.2 0-1.5-.1-1.7-.8-1.7-.7 0-.8.3-.8 1.1 0 .6.1.8.8.8zm-4.5 55.6v-4.4c0-.3 0-.5.1-.8l-1.5.3-.2-1.1 1.7-.7h1.8v6.6h-1.9zm4-1.7c.5 0 .6.1.6.6v.4c0 .5-.1.6-.6.6h-.4c-.5 0-.6-.1-.6-.6v-.4c0-.5.1-.6.6-.6h.4zm3.1-3.6-.1.9 1.1.1c1.5.2 1.9 1.1 1.9 2.2 0 1.2-.5 2.2-2.4 2.2-.7 0-1.5-.1-2.4-.2l.2-1.4c.6 0 1.2.1 1.7.1.9 0 1.1-.2 1.1-.7 0-.6-.3-.7-1.2-.8l-1-.1c-.3 0-.5-.3-.5-.6l.2-3h4.1l-.1 1.3h-2.6zm-7.6 34.6c.7-.1 1.5-.2 2.2-.2 1.6 0 2.2.4 2.2 1.5 0 1-.2 1.5-1.1 1.7.9.1 1.2.7 1.2 1.7 0 1.4-.6 2-2.4 2-.8 0-1.6-.1-2.4-.2l.1-1.3c.8 0 1.3.1 1.8.1.8 0 1.1-.1 1.1-.8 0-.6-.2-.8-.9-.8h-1.3v-1.2h1.3c.7 0 .8-.3.8-.7 0-.5-.2-.6-.9-.6H266l.1-1.2zm6.4 4.9c.5 0 .6.1.6.6v.4c0 .5-.1.6-.6.6h-.4c-.5 0-.6-.1-.6-.6v-.4c0-.5.1-.6.6-.6h.4zm3.1-3.6-.1.9 1.1.1c1.5.2 1.9 1.1 1.9 2.2 0 1.2-.5 2.2-2.4 2.2-.7 0-1.5-.1-2.4-.2l.2-1.4c.6 0 1.2.1 1.7.1.9 0 1.1-.2 1.1-.7 0-.6-.3-.7-1.2-.8l-1-.1c-.3 0-.5-.3-.5-.6l.2-3h4.1l-.1 1.3h-2.6zM58.9 117.6c1.4.2 1.4.7 2.3 3.4h-1.9c-.7-2.4-.8-2.8-1.7-2.8h-.3c0 .2.1.4.1.6v2.2h-1.8v-6.6h1.8v1.8c0 .3 0 .6-.1.8h.3c.9 0 1.1-.6 1.6-2.6H61c-.8 2.4-.8 3-2.1 3.2z" class="st3"/><path d="M65.1 121c-.3 1.1-.9 1.6-1.6 1.9-.6.2-1.3.2-2 .1l.1-1.1c.6 0 1 0 1.3-.2.2-.1.4-.3.5-.6h-.3c-.3 0-.5-.2-.6-.4l-1.5-4.4h2l.7 2.8c0 .3.1.5.1.8h.2c.1-.3.2-.6.2-.8l.7-2.8h1.9l-1.7 4.7zm4.5-1.9-1 1.9h-1.8l1.4-2.4-1.3-2.3h1.7l.9 1.8.9-1.8h1.7l-1.3 2.3 1.4 2.4h-1.8l-.8-1.9zm8.2 2h-1.7v-1.9h-1.5v1.9h-1.7v-4.8h1.7v1.7h1.5v-1.7h1.7v4.8zm2-2.1c-.8-.2-1-.7-1-1.3 0-1.2.4-1.5 2.2-1.5 1.3 0 1.8 0 2.4.1v4.8h-1.7v-1.6H81c-.3 0-.4.1-.4.3l-.3 1.3h-1.8l.4-1.5c.1-.5.6-.5.9-.6zm1.8-1.6H81c-.5 0-.5.1-.5.4 0 .5.1.6.5.6h.7v-1zM62 132.6v-4.4c0-.3 0-.5.1-.8l-1.5.3-.2-1.1 1.6-.6h1.8v6.6H62zm3-6.6c.7-.1 1.5-.2 2.2-.2 1.6 0 2.2.4 2.2 1.5 0 1-.2 1.5-1.1 1.7.9.1 1.2.7 1.2 1.7 0 1.4-.6 2-2.4 2-.8 0-1.6-.1-2.4-.2l.1-1.3c.8 0 1.3.1 1.8.1.8 0 1.1-.1 1.1-.8 0-.6-.2-.8-.9-.8h-1.3v-1.2H67c.7 0 .8-.3.8-.7 0-.5-.2-.6-.9-.6h-1.8L65 126zm6.5 5c.5 0 .6.1.6.6v.4c0 .5-.1.6-.6.6H71c-.5 0-.6-.1-.6-.6v-.4c0-.5.1-.6.6-.6h.5zm2.6-1.9c-.7-.1-1-.8-1-1.5 0-1.2.4-1.8 2.4-1.8s2.4.5 2.4 1.8c0 .7-.3 1.4-1 1.5.9.1 1.2.9 1.2 1.8 0 1.3-.5 1.8-2.6 1.8s-2.6-.5-2.6-1.8c0-.9.2-1.6 1.2-1.8zm.5 1.5c0 .7.2.8.9.8s.9-.2.9-.8c0-.7-.2-.9-.9-.9-.8 0-.9.2-.9.9zm.1-2.8c0 .6.2.7.8.7.7 0 .8-.1.8-.7 0-.7-.2-.8-.8-.8-.7 0-.8.2-.8.8zm73.2 8.7c-1.7-.2-2.4-2-2.4-3.7 0-3 1-4.3 5.9-4.3s5.9 1.3 5.9 4.3c0 1.7-.7 3.5-2.4 3.7v.1c2.3.2 2.8 2.1 2.8 4.3 0 3.1-1.2 4.3-6.3 4.3-5 0-6.3-1.2-6.3-4.3 0-2.2.5-4.1 2.8-4.4zm1.3 3.5c0 1.6.4 2 2.2 2 1.8 0 2.2-.4 2.2-2 0-1.7-.4-2.1-2.1-2.1-1.9 0-2.3.4-2.3 2.1zm.2-6.6c0 1.4.4 1.8 2 1.8s1.9-.3 1.9-1.8c0-1.6-.4-1.9-2-1.9-1.5-.1-1.9.3-1.9 1.9zm21.2-1.7h-3.9c-2.1 0-2.6.5-2.8 3.5.9-.7 1.9-.9 3.3-.9 3.6 0 4.7 1.4 4.7 5 0 4-1.1 5.9-6 5.9-4.8 0-6.2-1.6-6.2-8.1 0-7.3 2.3-8.5 7-8.5.8 0 2.5 0 4.1.5l-.2 2.6zm-2.8 7.6c0-1.7-.3-2.1-1.9-2.1-.8 0-1.3.2-2 .6 0 3.6.2 4.1 2.1 4.1 1.7 0 1.8-.7 1.8-2.6zm8.2 1.6c1.1 0 1.5.3 1.5 1.5v1c0 1.1-.3 1.5-1.5 1.5h-1c-1.1 0-1.5-.3-1.5-1.5v-1c0-1.1.3-1.5 1.5-1.5h1zm3.5-11.8c2.3-.5 4-.5 5.7-.5 3.4 0 5.7.7 5.7 3.9 0 1.7-.4 2.8-2.5 5l-3.9 3.9c.7-.2 1.5-.2 2.3-.2h4.6v3.8h-11.9v-2.3c0-.7.1-1.2.6-1.7l3.6-3.7c1.8-1.8 2.9-3.3 2.9-4.2 0-.7-.5-.7-1.8-.7-1.6 0-2.8 0-5 .1l-.3-3.4z" class="st3"/><path d="M167.8 125c7.9 0 14.2-6.4 14.2-14.2 0-7.9-6.4-14.2-14.2-14.2-7.9 0-14.2 6.4-14.2 14.2-.1 7.8 6.3 14.2 14.2 14.2z" style="fill:none;stroke:#39373a;stroke-width:.976"/><path d="M157.8 104.9c1.4-.2 2.7-.3 4.1-.3 3 0 4.1.7 4.1 2.8 0 1.7-.4 2.8-1.9 3.1v.1c1.7.3 2.2 1.2 2.2 3 0 2.6-1.1 3.6-4.4 3.6-1.5 0-3-.1-4.4-.3l.1-2.4c1.5.1 2.3.1 3.4.1 1.5 0 2-.2 2-1.5 0-1-.3-1.4-1.6-1.4h-2.3v-2.1h2.3c1.3 0 1.4-.5 1.4-1.3 0-1-.4-1.1-1.6-1.1h-3.4v-2.3zm16.5 5.7c2.5.4 2.7 1.3 4.1 6.3H175c-1.2-4.4-1.4-5.2-3.1-5.2h-.6c.1.4.1.8.1 1.1v4.1h-3.3v-12.1h3.3v3.2c0 .5-.1 1-.1 1.5h.6c1.7 0 1.9-1.1 2.9-4.7h3.4c-1.3 4.3-1.4 5.4-3.8 5.7v.1z" class="st3"/><path d="M270.2 231.5h18v18h-18z" class="st1"/><path d="M302 174.4h8.8v23.3H302z" class="st7"/><path d="M302 174.4h1.5v23.3H302zm1.6 21.9 5.6-.6V182l-5.6-.8m-.1-.7 5.7-.8v-2.9l-5.7-.7m-269.3 2h23.3v8.8H34.2z" class="st7"/><path d="M34.2 185.4h23.3v1.5H34.2zm1.4-.1.6-5.6h13.7l.8 5.6m.7.1.8-5.7h2.9l.7 5.7" class="st7"/><path d="M304.1 246.8c3.1 0 5.5-2.5 5.5-5.5v-33.1c0-3.1-2.5-5.5-5.5-5.5h-7.4c-3.1 0-5.5 2.5-5.5 5.5v33.1c0 3.1 2.5 5.5 5.5 5.5h7.4z" class="st1"/><path d="M302.3 243.7c3.1 0 5.5-2.5 5.5-5.5v-26.9c0-3.1-2.5-5.5-5.5-5.5h-4c-3.1 0-5.5 2.5-5.5 5.5v26.9c0 3.1 2.5 5.5 5.5 5.5h4z" class="st1"/><path d="M303.4 240c1.5 0 2.8-1.2 2.8-2.8v-27.1c0-1.5-1.2-2.8-2.8-2.8h-6.2c-1.5 0-2.8 1.2-2.8 2.8v27.1c0 1.5 1.2 2.8 2.8 2.8h6.2z" class="st1"/><path d="M300.3 210.7c-.5 0-.8.4-.8.8 0 .5.4.8.8.8.5 0 .8-.4.8-.8.1-.4-.3-.8-.8-.8zm-10.3 39v-48.9" class="st1"/></g></switch></svg>