<svg id="Слой_2" data-name="Слой 2" xmlns="http://www.w3.org/2000/svg" viewBox="0 0 188.13023 240.97967">
  <defs>
    <style>
      .cls-1 {
        fill: #f6ccce;
      }

      .cls-10, .cls-11, .cls-12, .cls-13, .cls-2, .cls-4, .cls-5, .cls-6, .cls-7, .cls-8, .cls-9 {
        fill: none;
      }

      .cls-3 {
        fill: #373437;
      }

      .cls-10, .cls-11, .cls-12, .cls-13, .cls-4, .cls-5, .cls-6, .cls-7, .cls-8, .cls-9 {
        stroke: #373437;
      }

      .cls-4 {
        stroke-width: 0.669px;
      }

      .cls-5 {
        stroke-width: 0.236px;
      }

      .cls-6 {
        stroke-width: 0.567px;
      }

      .cls-7 {
        stroke-width: 0.279px;
      }

      .cls-8 {
        stroke-width: 0.244px;
      }

      .cls-9 {
        stroke-width: 0.90402px;
      }

      .cls-10, .cls-13 {
        stroke-width: 0.66899px;
      }

      .cls-11 {
        stroke-width: 0.446px;
      }

      .cls-12 {
        stroke-width: 0.66904px;
      }
    </style>
  </defs>
  <g>
    <rect class="cls-1" x="11.01999" y="6.61851" width="164.38527" height="77.03636"/>
    <rect class="cls-1" x="66.3538" y="39.09537" width="109.05145" height="91.65864"/>
    <rect class="cls-1" x="66.3538" y="73.11142" width="91.19689" height="132.06233"/>
    <line class="cls-2" x1="11.01999" y1="2.92445" x2="175.40526" y2="2.92445"/>
    <line class="cls-2" x1="60.6588" y1="204.63503" x2="60.6588" y2="84.88621"/>
    <rect class="cls-3" x="181.71594" y="0.23087" width="6.31068" height="19.54768"/>
    <rect class="cls-3" x="181.71594" y="48.25355" width="6.31068" height="29.70633"/>
    <rect class="cls-3" x="181.71594" y="105.81917" width="6.31068" height="37.09444"/>
    <rect class="cls-3" x="175.40526" y="0.30784" width="6.77242" height="18.00849"/>
    <rect class="cls-3" x="175.40526" y="49.79273" width="6.77242" height="26.39708"/>
    <rect class="cls-3" x="175.40526" y="107.35836" width="6.77242" height="35.55525"/>
    <rect class="cls-3" x="172.78864" y="0.30784" width="6.77242" height="12.46742"/>
    <rect class="cls-3" x="172.78864" y="52.64023" width="6.77242" height="19.08593"/>
    <rect class="cls-3" x="172.78864" y="115.13126" width="6.77242" height="27.78235"/>
    <rect class="cls-3" x="164.32311" y="130.67707" width="17.85459" height="12.23654"/>
    <rect class="cls-3" x="8.09553" y="0.30784" width="168.07932" height="6.31067"/>
    <line class="cls-2" x1="13.79053" y1="6.61851" x2="8.09553" y2="6.61851"/>
    <line class="cls-2" x1="66.3538" y1="1.23135" x2="60.6588" y2="1.23135"/>
    <line class="cls-2" x1="94.90573" y1="9.38905" x2="91.05776" y2="9.38905"/>
    <rect class="cls-3" x="91.05776" y="27.08971" width="3.84797" height="20.39424"/>
    <rect class="cls-3" x="80.82216" y="41.712" width="14.16052" height="3.84797"/>
    <rect class="cls-3" x="36.26267" y="41.712" width="29.5524" height="3.84797"/>
    <rect class="cls-3" x="8.09553" y="41.712" width="14.77621" height="3.84797"/>
    <rect class="cls-3" x="8.09553" y="4.46364" width="3.84797" height="44.09774"/>
    <rect class="cls-3" x="10.94303" y="20.77903" width="3.84797" height="23.78045"/>
    <rect class="cls-3" x="39.03321" y="5.46412" width="3.84797" height="39.01841"/>
    <rect class="cls-4" x="175.63615" y="12.77526" width="12.15958" height="41.94287"/>
    <rect class="cls-4" x="180.79242" y="10.62039" width="1.07743" height="46.25259"/>
    <rect class="cls-4" x="175.63615" y="70.72569" width="12.15958" height="41.94286"/>
    <rect class="cls-4" x="180.79242" y="68.64779" width="1.07743" height="46.2526"/>
    <rect class="cls-4" x="67.27731" y="204.86592" width="41.94287" height="12.00567"/>
    <rect class="cls-4" x="62.96758" y="209.94525" width="46.25259" height="1.07743"/>
    <path class="cls-5" d="M134.41328,30.87146" transform="translate(-90.76251 -30.64058)"/>
    <path class="cls-3" d="M114.63472,64.50271a3.94146,3.94146,0,0,0-3.92493-3.92493H106.554a.66209.66209,0,0,0-.61568.61568v8.92729a.607.607,0,0,0,.61568.61568h4.15581a3.94145,3.94145,0,0,0,3.92493-3.92493Zm-9.00426,5.618V61.19346a.85407.85407,0,0,1,.84656-.84656h4.15581a4.13852,4.13852,0,0,1,4.1558,4.1558v2.23182a4.13852,4.13852,0,0,1-4.1558,4.1558H106.477a.791.791,0,0,1-.84656-.76957" transform="translate(-90.76251 -30.64058)"/>
    <path class="cls-5" d="M114.63472,64.50271a3.94146,3.94146,0,0,0-3.92493-3.92493H106.554a.66209.66209,0,0,0-.61568.61568v8.92729a.607.607,0,0,0,.61568.61568h4.15581a3.94145,3.94145,0,0,0,3.92493-3.92493Zm-9.00426,5.618V61.19346a.85407.85407,0,0,1,.84656-.84656h4.15581a4.13852,4.13852,0,0,1,4.1558,4.1558v2.23182a4.13852,4.13852,0,0,1-4.1558,4.1558H106.477A.791.791,0,0,1,105.63046,70.12075Z" transform="translate(-90.76251 -30.64058)"/>
    <path class="cls-3" d="M113.63424,64.50271a2.92315,2.92315,0,0,0-2.92446-2.92446h-2.46269a.526.526,0,0,0-.53872.53872v7.08026a.526.526,0,0,0,.53872.53871h2.46269a2.92315,2.92315,0,0,0,2.92446-2.92446Zm-6.15675,4.69453V62.117a.7712.7712,0,0,1,.7696-.76959h2.46269a3.16944,3.16944,0,0,1,3.15534,3.15534v2.23181a3.16944,3.16944,0,0,1-3.15534,3.15534h-2.46269a.75926.75926,0,0,1-.7696-.69264" transform="translate(-90.76251 -30.64058)"/>
    <path class="cls-5" d="M113.63424,64.50271a2.92315,2.92315,0,0,0-2.92446-2.92446h-2.46269a.526.526,0,0,0-.53872.53872v7.08026a.526.526,0,0,0,.53872.53871h2.46269a2.92315,2.92315,0,0,0,2.92446-2.92446Zm-6.15675,4.69453V62.117a.7712.7712,0,0,1,.7696-.76959h2.46269a3.16944,3.16944,0,0,1,3.15534,3.15534v2.23181a3.16944,3.16944,0,0,1-3.15534,3.15534h-2.46269A.75926.75926,0,0,1,107.47749,69.19724Z" transform="translate(-90.76251 -30.64058)"/>
    <path class="cls-3" d="M111.55634,65.6571a.46176.46176,0,1,0-.92351,0,.4436.4436,0,0,0,.46176.46177.49657.49657,0,0,0,.46175-.46177m-1.23135,0a.69264.69264,0,1,1,.69264.69263.68976.68976,0,0,1-.69264-.69263" transform="translate(-90.76251 -30.64058)"/>
    <path class="cls-5" d="M111.55634,65.6571a.46176.46176,0,1,0-.92351,0,.4436.4436,0,0,0,.46176.46177A.49657.49657,0,0,0,111.55634,65.6571Zm-1.23135,0a.69264.69264,0,1,1,.69264.69263A.68976.68976,0,0,1,110.325,65.6571Z" transform="translate(-90.76251 -30.64058)"/>
    <path class="cls-3" d="M142.7249,58.88469A3.94146,3.94146,0,0,0,138.8,54.95975h-4.15581a.6621.6621,0,0,0-.61568.61568v8.9273a.607.607,0,0,0,.61568.61567H138.8a3.94145,3.94145,0,0,0,3.92493-3.92493Zm-8.92729,5.54107V55.49847a.85407.85407,0,0,1,.84655-.84656H138.8a4.13853,4.13853,0,0,1,4.15581,4.1558v2.23182A4.13853,4.13853,0,0,1,138.8,65.19533h-4.15581a.74807.74807,0,0,1-.84655-.76957" transform="translate(-90.76251 -30.64058)"/>
    <path class="cls-5" d="M142.7249,58.88469A3.94146,3.94146,0,0,0,138.8,54.95975h-4.15581a.6621.6621,0,0,0-.61568.61568v8.9273a.607.607,0,0,0,.61568.61567H138.8a3.94145,3.94145,0,0,0,3.92493-3.92493Zm-8.92729,5.54107V55.49847a.85407.85407,0,0,1,.84655-.84656H138.8a4.13853,4.13853,0,0,1,4.15581,4.1558v2.23182A4.13853,4.13853,0,0,1,138.8,65.19533h-4.15581A.74807.74807,0,0,1,133.79761,64.42576Z" transform="translate(-90.76251 -30.64058)"/>
    <path class="cls-3" d="M141.80138,58.88469a2.92315,2.92315,0,0,0-2.92446-2.92446h-2.4627a.526.526,0,0,0-.53871.53871V63.5792a.526.526,0,0,0,.53871.53872h2.4627a2.92316,2.92316,0,0,0,2.92446-2.92446Zm-6.15675,4.69451V56.49894a.77119.77119,0,0,1,.76959-.76959h2.4627a3.16944,3.16944,0,0,1,3.15534,3.15534V61.1165a3.16944,3.16944,0,0,1-3.15534,3.15534h-2.4627a.71061.71061,0,0,1-.76959-.69264" transform="translate(-90.76251 -30.64058)"/>
    <path class="cls-5" d="M141.80138,58.88469a2.92315,2.92315,0,0,0-2.92446-2.92446h-2.4627a.526.526,0,0,0-.53871.53871V63.5792a.526.526,0,0,0,.53871.53872h2.4627a2.92316,2.92316,0,0,0,2.92446-2.92446Zm-6.15675,4.69451V56.49894a.77119.77119,0,0,1,.76959-.76959h2.4627a3.16944,3.16944,0,0,1,3.15534,3.15534V61.1165a3.16944,3.16944,0,0,1-3.15534,3.15534h-2.4627A.71061.71061,0,0,1,135.64463,63.5792Z" transform="translate(-90.76251 -30.64058)"/>
    <path class="cls-3" d="M139.72348,60.03908a.46176.46176,0,1,0-.92351,0,.4436.4436,0,0,0,.46176.46176.49659.49659,0,0,0,.46175-.46176m-1.23135,0a.69264.69264,0,1,1,.69264.69263.68975.68975,0,0,1-.69264-.69263" transform="translate(-90.76251 -30.64058)"/>
    <path class="cls-5" d="M139.72348,60.03908a.46176.46176,0,1,0-.92351,0,.4436.4436,0,0,0,.46176.46176A.49659.49659,0,0,0,139.72348,60.03908Zm-1.23135,0a.69264.69264,0,1,1,.69264.69263A.68975.68975,0,0,1,138.49213,60.03908Z" transform="translate(-90.76251 -30.64058)"/>
    <path class="cls-5" d="M124.79336,120.60612" transform="translate(-90.76251 -30.64058)"/>
    <path class="cls-4" d="M151.19043,30.71754" transform="translate(-90.76251 -30.64058)"/>
    <path class="cls-4" d="M136.26031,30.71754" transform="translate(-90.76251 -30.64058)"/>
    <path class="cls-6" d="M149.95908,148.15759" transform="translate(-90.76251 -30.64058)"/>
    <path class="cls-6" d="M149.95908,126.1472" transform="translate(-90.76251 -30.64058)"/>
    <path class="cls-4" d="M136.26031,119.91348" transform="translate(-90.76251 -30.64058)"/>
    <path class="cls-4" d="M151.19043,119.91348" transform="translate(-90.76251 -30.64058)"/>
    <path class="cls-4" d="M151.19043,154.31434" transform="translate(-90.76251 -30.64058)"/>
    <path class="cls-6" d="M166.27447,47.1099a4.13852,4.13852,0,0,1-4.1558,4.1558H140.10828a4.13853,4.13853,0,0,1-4.15581-4.1558V42.87713a4.13853,4.13853,0,0,1,4.15581-4.15581h22.01039a4.13853,4.13853,0,0,1,4.1558,4.15581Z" transform="translate(-90.76251 -30.64058)"/>
    <path class="cls-6" d="M164.19657,45.95551a4.13852,4.13852,0,0,1-4.1558,4.1558H142.26315a4.13853,4.13853,0,0,1-4.15581-4.1558v-1.924a4.13853,4.13853,0,0,1,4.15581-4.1558h17.77762a4.13852,4.13852,0,0,1,4.1558,4.1558Z" transform="translate(-90.76251 -30.64058)"/>
    <path class="cls-6" d="M161.65691,46.879a2.06926,2.06926,0,0,1-2.0779,2.0779H141.33963a2.06926,2.06926,0,0,1-2.0779-2.0779V43.108a2.06926,2.06926,0,0,1,2.0779-2.0779H159.579a2.06926,2.06926,0,0,1,2.0779,2.0779Z" transform="translate(-90.76251 -30.64058)"/>
    <path class="cls-6" d="M141.57051,45.032a.53871.53871,0,1,1,.53871.53871A.57823.57823,0,0,1,141.57051,45.032Z" transform="translate(-90.76251 -30.64058)"/>
    <rect class="cls-4" x="43.18902" y="6.84939" width="34.3239" height="14.93012"/>
    <path class="cls-3" d="M116.40478,51.03482a3.6303,3.6303,0,0,1-3.61709-3.69405v-5.3102a.607.607,0,0,1,.61568-.61568h6.00283a.6621.6621,0,0,1,.61568.61568v5.3102a3.67929,3.67929,0,0,1-3.6171,3.69405m3.00142-9.92776h-6.00284a.85407.85407,0,0,0-.84655.84656v5.31019a3.92624,3.92624,0,0,0,3.848,3.92494,3.87612,3.87612,0,0,0,3.848-3.92494V41.95362a.80326.80326,0,0,0-.84655-.84656" transform="translate(-90.76251 -30.64058)"/>
    <path class="cls-7" d="M116.40478,51.03482a3.6303,3.6303,0,0,1-3.61709-3.69405v-5.3102a.607.607,0,0,1,.61568-.61568h6.00283a.6621.6621,0,0,1,.61568.61568v5.3102A3.67929,3.67929,0,0,1,116.40478,51.03482Zm3.00142-9.92776h-6.00284a.85407.85407,0,0,0-.84655.84656v5.31019a3.92624,3.92624,0,0,0,3.848,3.92494,3.87612,3.87612,0,0,0,3.848-3.92494V41.95362A.80326.80326,0,0,0,119.4062,41.10706Z" transform="translate(-90.76251 -30.64058)"/>
    <path class="cls-7" d="M113.78817,43.185h5.23324a.07538.07538,0,0,1,.077.077v4.00188a2.69358,2.69358,0,1,1-5.38716,0l.077-4.07885Z" transform="translate(-90.76251 -30.64058)"/>
    <path class="cls-3" d="M113.86512,43.26193h5.07932v3.92493a2.53966,2.53966,0,1,1-5.07932,0Zm5.15628-.23088h-5.23324a.16552.16552,0,0,0-.15392.15391v4.00189a2.82535,2.82535,0,0,0,2.77054,2.84749,2.77688,2.77688,0,0,0,2.77054-2.84749V43.185a.16552.16552,0,0,0-.15392-.15391" transform="translate(-90.76251 -30.64058)"/>
    <path class="cls-7" d="M113.86512,43.26193h5.07932v3.92493a2.53966,2.53966,0,1,1-5.07932,0Zm5.15628-.23088h-5.23324a.16552.16552,0,0,0-.15392.15391v4.00189a2.82535,2.82535,0,0,0,2.77054,2.84749,2.77688,2.77688,0,0,0,2.77054-2.84749V43.185A.16552.16552,0,0,0,119.0214,43.03105Z" transform="translate(-90.76251 -30.64058)"/>
    <path class="cls-3" d="M116.40478,47.18685a.69263.69263,0,1,1,.69264-.69263.68975.68975,0,0,1-.69264.69263m0-1.53919a.92351.92351,0,1,0,.92351.92351.88916.88916,0,0,0-.92351-.92351" transform="translate(-90.76251 -30.64058)"/>
    <path class="cls-7" d="M116.40478,47.18685a.69263.69263,0,1,1,.69264-.69263A.68975.68975,0,0,1,116.40478,47.18685Zm0-1.53919a.92351.92351,0,1,0,.92351.92351A.88916.88916,0,0,0,116.40478,45.64766Z" transform="translate(-90.76251 -30.64058)"/>
    <polygon class="cls-3" points="23.641 13.083 23.41 13.16 24.642 14.853 24.873 14.699 23.641 13.083"/>
    <polygon class="cls-7" points="23.641 13.083 23.41 13.16 24.642 14.853 24.873 14.699 23.641 13.083"/>
    <polygon class="cls-3" points="27.643 13.083 26.412 14.699 26.643 14.853 27.797 13.16 27.643 13.083"/>
    <polygon class="cls-7" points="27.643 13.083 26.412 14.699 26.643 14.853 27.797 13.16 27.643 13.083"/>
    <path class="cls-3" d="M113.94208,41.10706a1.01873,1.01873,0,0,1-1.00047-1.00047V38.72131a1.01872,1.01872,0,0,1,1.00047-1.00047h5.00236a1.01873,1.01873,0,0,1,1.00048,1.00047v1.38528a1.01873,1.01873,0,0,1-1.00048,1.00047Zm5.00236-3.694h-5.00236a1.2156,1.2156,0,0,0-1.23135,1.23135v1.38526a1.21561,1.21561,0,0,0,1.23135,1.23136h5.00236a1.2156,1.2156,0,0,0,1.23135-1.23136V38.64435a1.26566,1.26566,0,0,0-1.23135-1.23134" transform="translate(-90.76251 -30.64058)"/>
    <path class="cls-7" d="M113.94208,41.10706a1.01873,1.01873,0,0,1-1.00047-1.00047V38.72131a1.01872,1.01872,0,0,1,1.00047-1.00047h5.00236a1.01873,1.01873,0,0,1,1.00048,1.00047v1.38528a1.01873,1.01873,0,0,1-1.00048,1.00047Zm5.00236-3.694h-5.00236a1.2156,1.2156,0,0,0-1.23135,1.23135v1.38526a1.21561,1.21561,0,0,0,1.23135,1.23136h5.00236a1.2156,1.2156,0,0,0,1.23135-1.23136V38.64435A1.26566,1.26566,0,0,0,118.94444,37.413Z" transform="translate(-90.76251 -30.64058)"/>
    <path class="cls-3" d="M116.40478,39.79875a.3848.3848,0,1,1,.3848-.38479.36354.36354,0,0,1-.3848.38479m0-1.00047a.6621.6621,0,0,0-.61568.61568.607.607,0,0,0,.61568.61567.66209.66209,0,0,0,.61568-.61567.56641.56641,0,0,0-.61568-.61568" transform="translate(-90.76251 -30.64058)"/>
    <path class="cls-7" d="M116.40478,39.79875a.3848.3848,0,1,1,.3848-.38479A.36354.36354,0,0,1,116.40478,39.79875Zm0-1.00047a.6621.6621,0,0,0-.61568.61568.607.607,0,0,0,.61568.61567.66209.66209,0,0,0,.61568-.61567A.56641.56641,0,0,0,116.40478,38.79828Z" transform="translate(-90.76251 -30.64058)"/>
    <path class="cls-3" d="M172.96994,30.64058h-5.00236m0,.23088h5.00236" transform="translate(-90.76251 -30.64058)"/>
    <path class="cls-7" d="M167.96758,30.87146" transform="translate(-90.76251 -30.64058)"/>
    <path class="cls-7" d="M122.09978,119.83653" transform="translate(-90.76251 -30.64058)"/>
    <path class="cls-3" d="M119.63708,121.14484" transform="translate(-90.76251 -30.64058)"/>
    <path class="cls-7" d="M119.63708,121.14484" transform="translate(-90.76251 -30.64058)"/>
    <rect class="cls-3" x="60.58185" y="210.86875" width="29.09066" height="6.23372"/>
    <rect class="cls-3" x="123.84247" y="210.86875" width="43.71294" height="6.23372"/>
    <rect class="cls-3" x="60.6588" y="204.63503" width="27.62843" height="7.92681"/>
    <rect class="cls-3" x="125.22774" y="204.63503" width="42.25071" height="7.92681"/>
    <rect class="cls-3" x="151.24001" y="130.67707" width="16.3154" height="77.88292"/>
    <rect class="cls-3" x="148.46948" y="182.85553" width="9.08121" height="29.62937"/>
    <rect class="cls-3" x="60.6588" y="82.2696" width="5.69499" height="126.29039"/>
    <rect class="cls-3" x="8.09553" y="82.2696" width="53.40982" height="6.77243"/>
    <rect class="cls-3" x="8.09553" y="68.10906" width="5.695" height="19.08593"/>
    <line class="cls-2" x1="14.63708" y1="87.96459" x2="18.10026" y2="87.96459"/>
    <line class="cls-2" x1="62.81367" y1="126.59821" x2="62.81367" y2="130.06138"/>
    <rect class="cls-3" x="63.5063" y="130.67707" width="6.77243" height="3.46317"/>
    <rect class="cls-3" x="92.75087" y="63.79934" width="95.35269" height="3.46317"/>
    <rect class="cls-3" x="90.98081" y="116.97828" width="3.46317" height="16.3154"/>
    <rect class="cls-3" x="90.98081" y="63.26063" width="3.46317" height="37.55619"/>
    <rect class="cls-3" x="85.28581" y="130.67707" width="75.57413" height="3.46317"/>
    <path class="cls-3" d="M107.24662,45.87854h-4.38669V38.64436h4.38669Zm0,3.848h-4.38669V46.879h4.38669ZM108.401,37.25909H101.7825V51.41962H108.401Z" transform="translate(-90.76251 -30.64058)"/>
    <path class="cls-3" d="M184.51385,56.11414h-4.38668V53.57448h4.38668Zm0-12.00567h-4.38668V41.56881h4.38668Zm0,8.1577h-4.38668V45.41679h4.38668Zm1.15439,5.54108V39.95267h-6.61851V57.73028h6.61851Z" transform="translate(-90.76251 -30.64058)"/>
    <path class="cls-3" d="M120.40667,61.73218V58.346h-.92351l-.84655.30784.077.61567.76959-.15391v2.61661Zm-2.30878-.84656c-.23088,0-.30784.077-.30784.30784v.23088c0,.23088.077.30783.30784.30783h.23088c.23088,0,.30784-.077.30784-.30783v-.23088c0-.23088-.077-.30784-.30784-.30784Zm-3.15533-1.77006H116.02c.23088,0,.3848,0,.3848.15391s-.23088.46176-.61568.92351l-.7696.7696a.5879.5879,0,0,0-.15391.38479v.46176h2.53965v-.76959h-1.00047a.97606.97606,0,0,0-.46175.077l.84655-.84655a1.31512,1.31512,0,0,0,.53871-1.07743c0-.69263-.46175-.84656-1.23135-.84656a7.4912,7.4912,0,0,0-1.23135.077Z" transform="translate(-90.76251 -30.64058)"/>
    <path class="cls-3" d="M126.10167,54.03624v-.69263H123.639v.69263h.76959v1.77007h.92352V54.03624Zm-4.23277.3848c0-.3848.077-.46176.3848-.46176.23088,0,.30784.077.30784.23088s0,.23088-.23088.23088Zm.7696.46175c.61567,0,.84655-.23088.84655-.69263,0-.53871-.30784-.84656-1.23135-.84656s-1.30831.30783-1.30831,1.30831c0,.84656.3848,1.23135,1.30831,1.23135a2.81144,2.81144,0,0,0,1.15439-.23088l-.077-.53871a4.806,4.806,0,0,1-.92351.077c-.30784,0-.46175-.077-.46175-.38479h.69263Zm-2.15487-1.46223H119.0214a.67379.67379,0,0,0-.69263.61568,2.21027,2.21027,0,0,1-.15392.92351c-.077.23088-.23088.23088-.3848.23088l.077.69263c.53871.077,1.00047,0,1.15439-.61567.077-.23088.077-.61568.15392-1.00048a.20407.20407,0,0,1,.23088-.23088h.23088v1.847h.84655Zm-4.5406,1.53919q0-.11544.23088-.23088h.46175v.30784a1.09383,1.09383,0,0,1-.46175.15391.20407.20407,0,0,1-.23088-.23088Zm-.69264-.92351h1.07743c.23088,0,.30784.077.30784.30784v.077h-.84655c-.46176,0-.7696.23088-.7696.61568v.23088c0,.46176.3848.69263.84656.69263a1.09781,1.09781,0,0,0,.84655-.3848l.077.3848h.69263V54.421c0-.69263-.38479-.92351-1.00047-.92351a6.77748,6.77748,0,0,0-1.30831.15392Zm-.30783-.61568h-.92351l-.3848,1.46223c0,.077-.077.30783-.077.3848h-.077a3.33318,3.33318,0,0,0-.077-.3848l-.38479-1.46223h-.92351l.76959,2.23182c.077.15392.15392.23088.30784.23088h.15392a1.06241,1.06241,0,0,1-.23088.30784,1.70822,1.70822,0,0,1-.69264.077l-.077.61568a1.46314,1.46314,0,0,0,1.00048-.077,1.29053,1.29053,0,0,0,.84655-.92351Zm-2.69358-.23088v-.69263h-2.8475v.69263H110.402v2.69358h.84654V53.18968Z" transform="translate(-90.76251 -30.64058)"/>
    <path class="cls-3" d="M161.65691,67.735V63.73313h-1.07743l-1.00047.3848.15391.69263.92351-.23088c0,.15391-.077.30783-.077.46176v2.61661h1.07744Zm-2.77054-.92352c-.30784,0-.3848.077-.3848.38479v.23088c0,.30784.077.3848.3848.3848h.23088c.30783,0,.38479-.077.38479-.3848v-.23088c0-.30783-.077-.38479-.38479-.38479Zm-.69263-.61567H157.732V64.57968h-.84656l-.15392.61568v1.00047h-.76959c-.077,0-.15392-.077-.077-.15392l.84656-2.23181H155.731l-1.00048,2.53966a.42073.42073,0,0,0,.3848.61568h1.61615V67.812H157.732v-.92353h0l.46176-.077Z" transform="translate(-90.76251 -30.64058)"/>
    <path class="cls-3" d="M167.50583,59.19252h-.3848c-.30783,0-.30783-.077-.30783-.3848,0-.23088.077-.23088.30783-.23088h.3848Zm-1.15439.3848c-.15392,0-.46176.077-.53872.30783l-.23088.92351h1.07743l.15392-.76959c0-.15392.077-.15392.23088-.15392h.38479v.92351h1.00048V57.8842a7.10229,7.10229,0,0,0-1.46223-.077c-1.07742,0-1.3083.23088-1.3083.92351.077.38481.23087.7696.69263.84657ZM163.35,59.8082a.20407.20407,0,0,1,.23088-.23088h.61568v.38479a.83133.83133,0,0,1-.53871.23088c-.15392,0-.30783-.077-.30783-.23088V59.8082Zm-.84654-1.15439c.46176,0,.92351-.077,1.23135-.077s.3848.077.3848.30784v.077h-.92351c-.53871,0-.92351.30783-.92351.76959v.30784a.89578.89578,0,0,0,1.00047.84655,1.24207,1.24207,0,0,0,1.00048-.46176l.077.3848h.84656v-1.847c0-.84656-.46176-1.15439-1.23136-1.15439a10.43092,10.43092,0,0,0-1.53918.15391Zm-.69264-.69265h-1.00048v1.00048h-.84656V57.96116h-1.00047v2.8475h1.00047V59.65427h.84656v1.15439h1.00048Zm-3.54013,0h-1.00047v1.00048h-.84656V57.96116h-1.00048v2.8475h1.00048V59.65427h.84656v1.15439h1.00047Zm-5.46412,1.847a.20407.20407,0,0,1,.23088-.23088h.61568v.38479a.83136.83136,0,0,1-.53872.23088c-.15391,0-.30783-.077-.30783-.23088V59.8082Zm-.7696-1.15439c.46177,0,.92351-.077,1.23136-.077s.3848.077.3848.30784v.077h-.92351c-.53872,0-.92351.30783-.92351.76959v.30784a.89578.89578,0,0,0,1.00047.84655,1.242,1.242,0,0,0,1.00047-.46176l.077.3848h.84656v-1.847c0-.84656-.46176-1.15439-1.23136-1.15439a10.43105,10.43105,0,0,0-1.53919.15391ZM149.26645,60.116V59.11556h.53871c.3848,0,.53871.077.53871.53871,0,.3848-.077.46176-.53871.46176Zm0-1.6931v-.84656h.53871c.3848,0,.46176.077.46176.46176s-.077.46176-.46176.46176h-.53871Zm1.30831.30783c.53871-.077.69263-.30783.69263-.92351,0-.84656-.3848-1.07743-1.46223-1.07743a9.83818,9.83818,0,0,0-1.61615.077v4.00188a12.52044,12.52044,0,0,0,1.847.077c1.00047,0,1.38527-.23088,1.38527-1.07743,0-.61569-.23088-1.00049-.84655-1.07745Z" transform="translate(-90.76251 -30.64058)"/>
    <path class="cls-3" d="M204.36938,211.2643c-.61568,0-.61568-.15393-.61568-1.30832a.92536.92536,0,0,1,.61568-.15393c.46176,0,.61567.15393.61567.69263-.077.53872-.077.76962-.61567.76962m1.53918-4.0019a4.52809,4.52809,0,0,0-1.3083-.15393c-1.46223,0-2.15487.3848-2.15487,2.61662,0,2.00094.46176,2.53965,1.924,2.53965,1.53918,0,1.847-.61567,1.847-1.847,0-1.07743-.30784-1.53919-1.46223-1.53919a1.30591,1.30591,0,0,0-1.00047.30783c0-.92352.23088-1.07743.84656-1.07743h1.23135Zm-4.84844,3.69406c-.3848,0-.46176.077-.46176.46176v.30784c0,.38479.077.46176.46176.46176h.30783c.3848,0,.46176-.077.46176-.46176v-.30784c0-.38479-.077-.46176-.46176-.46176Zm-.92351-.76959h-.61568V208.109h-1.00047l-.23088.76959v1.30832H197.2891c-.15391,0-.15391-.077-.15391-.23087l1.07742-2.84751h-1.23135l-1.23136,3.15534a.54149.54149,0,0,0,.53872.7696h2.00094v1.07742h1.23136v-1.07742h0l.61568-.15393v-.69263Zm-5.15628,2.00093v-5.00237h-1.38527l-1.23136.46177.15392.84655,1.15439-.23087a1.69449,1.69449,0,0,0-.077.61567v3.30925Z" transform="translate(-90.76251 -30.64058)"/>
    <path class="cls-3" d="M212.14228,202.26a.2819.2819,0,0,1,.30783-.30784h.7696v.46177a1.24128,1.24128,0,0,1-.69263.23086c-.23088,0-.3848-.077-.3848-.30783Zm-.92352-1.46223c.61568,0,1.15439-.077,1.53919-.077s.46176.077.46176.3848v.077h-1.15439c-.69263,0-1.1544.3848-1.1544.92352v.3848c0,.69263.53872,1.00046,1.23136,1.00046a1.76911,1.76911,0,0,0,1.30831-.61566l.15391.53872h1.07743v-2.30878c0-1.07743-.53871-1.38526-1.53919-1.38526a17.508,17.508,0,0,0-2.001.15393Zm-.61567.077v-1.00046H206.986v1.00046h1.15439v2.61661h1.30831v-2.61661ZM204.1385,202.26a.2819.2819,0,0,1,.30783-.30784h.76959v.46177a1.24128,1.24128,0,0,1-.69263.23086c-.23088,0-.38479-.077-.38479-.30783Zm-.92352-1.46223c.61568,0,1.1544-.077,1.53919-.077s.46176.077.46176.3848v.077h-1.23135c-.69263,0-1.15439.3848-1.15439.92352v.3848c0,.69263.53871,1.00046,1.23135,1.00046a1.76909,1.76909,0,0,0,1.30831-.61566l.15392.53872h1.07742v-2.30878c0-1.07743-.53871-1.38526-1.53918-1.38526a17.50768,17.50768,0,0,0-2.00095.15393Zm-.92351-.92352h-1.3083v1.23136h-1.07743v-1.23136h-1.30831v3.6171h1.30831v-1.46222h1.07743v1.46222h1.3083Zm-6.0798,0c-.30783,0-.46176.15393-.46176.3848l-.30783,1.30832c0,.15393-.077.38479-.077.53872h-.077a1.30969,1.30969,0,0,0-.077-.53872l-.30783-1.30832a.48778.48778,0,0,0-.46177-.3848h-1.07742a.40815.40815,0,0,0-.46176.46176l-.077,3.15534h1.15439l.077-2.61661h.077l.46176,1.77005a.51274.51274,0,0,0,.53872.3848h.61567c.30784,0,.46176-.15393.46176-.3848l.46177-1.77005h.077l.077,2.61661h1.15439l-.077-3.15534a.40815.40815,0,0,0-.46176-.46176Zm-6.00282.84656c.46176,0,.53871.15393.53871,1.00046,0,.7696-.15391,1.00047-.53871,1.00047-.46176,0-.53871-.15393-.53871-1.00047s.07695-1.00046.53871-1.00046m0-.9235c-1.38527,0-1.924.53873-1.924,1.924s.53871,1.847,1.924,1.847,1.924-.46176,1.924-1.847-.53873-1.924-1.924-1.924m-3.6171,1.77006c.84656-.15393.76959-.23087,1.23135-1.69312h-1.3083c-.30784,1.23136-.30784,1.30832-.84656,1.30832h-.15392c0-.15393.077-.30783.077-.46176v-.84656H184.283v3.6171h1.30831V202.337a.58163.58163,0,0,0-.077-.30783h.30784c.38479,0,.38479.077.76959,1.46222H187.977c-.46175-1.69311-.53871-1.77-1.38527-1.924Z" transform="translate(-90.76251 -30.64058)"/>
    <path class="cls-3" d="M209.8335,192.794h-.53872c-.30783,0-.38479-.077-.38479-.46176,0-.23087.077-.30783.38479-.30783h.53872Zm-1.38527.46176c-.23088,0-.61568.077-.69263.3848l-.30784,1.15439h1.30831l.23088-1.00046c0-.15393.077-.23087.30783-.23087h.46177v1.15439h1.3083V191.101a10.948,10.948,0,0,0-1.847-.077c-1.30831,0-1.61615.23087-1.61615,1.1544a1.00118,1.00118,0,0,0,.84655,1.07742Zm-3.848.30784a.2819.2819,0,0,1,.30783-.30784h.76959v.46176a1.24122,1.24122,0,0,1-.69263.23087c-.23088,0-.38479-.077-.38479-.30783Zm-1.00048-1.46223c.61568,0,1.15439-.077,1.53919-.077s.46176.077.46176.38479v.077h-1.23135c-.69263,0-1.1544.3848-1.1544.92352v.3848c0,.69263.53872,1.00046,1.23136,1.00046a1.76908,1.76908,0,0,0,1.30831-.61567l.15391.53873H206.986v-2.30878c0-1.07743-.53871-1.38526-1.53919-1.38526a17.508,17.508,0,0,0-2.00095.15393Zm-.92351-.92352h-2.15486a.90888.90888,0,0,0-1.00048.92352,11.93493,11.93493,0,0,1-.15392,1.38526c-.077.30783-.30783.30783-.61567.30783l.15391,1.00047c.7696.15392,1.53919-.077,1.61616-.92353.077-.38479.15391-.92352.23088-1.53918a.2819.2819,0,0,1,.30783-.30784h.30783V194.718h1.30831v-3.54011Zm-4.38668,3.6171v-3.6171H197.1352l-1.15439,1.69312a3.345,3.345,0,0,0-.30784.53872h0c0-.23087.077-.3848.077-.53872v-1.69312h-1.15439v3.6171h1.15439l1.15439-1.61615a4.56962,4.56962,0,0,0,.30783-.61567h0c0,.23087-.077.46176-.077.61567V194.795Zm-5.84892-2.61664c1.00047-.15393,1.00047-.61566,1.53919-2.38574h-1.38527c-.46177,1.46222-.53872,1.924-1.00048,1.924h-.23088c0-.23087.077-.3848.077-.61567v-1.30831h-1.3083v1.30831a1.69449,1.69449,0,0,0,.077.61567H189.978c-.46176,0-.53871-.46176-1.00047-1.924h-1.38528c.53872,1.77.53872,2.23181,1.53919,2.38574v.077c-1.00047.15392-1.07742.53872-1.6931,2.61661h1.38527c.53871-1.847.61568-2.15485,1.07743-2.15485h.23088c0,.15393-.077.30783-.077.46176V194.872h1.30831v-1.77008a.97614.97614,0,0,0-.077-.46176h.23088c.53871,0,.53871.30784,1.07742,2.15486h1.46223c-.5387-2.07789-.61566-2.46269-1.61613-2.61662Z" transform="translate(-90.76251 -30.64058)"/>
    <path class="cls-3" d="M232.69044,150.7742l.077-1.00046h-3.15534l-.15392,2.23182a.48777.48777,0,0,0,.3848.46176l.7696.077c.69263.077.92351.15393.92351.61567,0,.3848-.15392.53873-.84656.53873a7.91336,7.91336,0,0,1-1.30831-.077l-.15392,1.00046a16.54794,16.54794,0,0,0,1.77007.15393c1.38527,0,1.847-.69263,1.847-1.61615a1.44015,1.44015,0,0,0-1.46222-1.61615l-.84656-.077.077-.69263Zm-4.69453,2.77055c-.3848,0-.46176.077-.46176.46176v.30783c0,.3848.077.46176.46176.46176h.30783c.3848,0,.46176-.077.46176-.46176v-.30783c0-.3848-.077-.46176-.46176-.46176Zm-4.61757-2.61662h1.53919c.3848,0,.53872,0,.53872.23087,0,.30783-.30784.7696-.92351,1.30832l-1.1544,1.15439a.64939.64939,0,0,0-.15391.53873v.69263h3.694v-1.15439h-1.46222a2.1306,2.1306,0,0,0-.69263.077l1.23135-1.23136c.69263-.69263.7696-1.00046.7696-1.53918,0-1.00047-.69263-1.23136-1.77007-1.23136a7.50477,7.50477,0,0,0-1.77007.15393Zm-1.00047,3.848v-5.00236H220.9926l-1.23136.46176.15392.84656,1.15439-.23087a1.69449,1.69449,0,0,0-.077.61567v3.30924Z" transform="translate(-90.76251 -30.64058)"/>
    <path class="cls-3" d="M252.0842,144.84832a.2819.2819,0,0,1,.30784-.30783h.76959v.46176a1.24119,1.24119,0,0,1-.69263.23087c-.23087,0-.3848-.077-.3848-.30783Zm-1.00046-1.38526c.61567,0,1.15439-.077,1.53919-.077s.46176.077.46176.38479v.077h-1.23136c-.69263,0-1.15439.3848-1.15439.92352v.3848c0,.69263.53873,1.00046,1.23136,1.00046a1.76918,1.76918,0,0,0,1.30832-.61567l.15393.53873H254.47v-2.30878c0-1.07743-.53872-1.38526-1.53919-1.38526a17.50751,17.50751,0,0,0-2.00094.15393Zm-.53872.077v-1.00047h-3.61709V143.54h1.15439v2.61661h1.3083V143.54Zm-6.46459,1.30829a.28189.28189,0,0,1,.30783-.30783h.7696v.46176a1.24122,1.24122,0,0,1-.69263.23087c-.23088,0-.3848-.077-.3848-.30783ZM243.08,143.46306c.61567,0,1.15439-.077,1.53918-.077s.46176.077.53872.38479v.077H243.9265c-.69263,0-1.15439.3848-1.15439.92352v.3848c0,.69263.53871,1.00046,1.23136,1.00046a1.76906,1.76906,0,0,0,1.3083-.61567l.15392.53873h1.07743v-2.30878c0-1.07743-.53872-1.38526-1.53919-1.38526a17.508,17.508,0,0,0-2.00095.15393Zm-.84656-.92352h-1.30831v1.23135h-1.07743v-1.23135h-1.3083v3.6171h1.3083v-1.46222h1.07743v1.46222h1.30831Zm-6.07979,0c-.30783,0-.46176.15393-.46176.3848l-.30783,1.30832c0,.15392-.077.38479-.077.53872h-.15391a1.30951,1.30951,0,0,0-.077-.53872l-.30783-1.30832a.48778.48778,0,0,0-.46176-.3848h-1.07743a.40815.40815,0,0,0-.46176.46176l-.077,3.15534h1.15439l.077-2.61661h.077l.46177,1.77a.48777.48777,0,0,0,.46176.3848h.61567c.30784,0,.46177-.15393.46177-.3848l.46176-1.77h.077l.077,2.61661h1.1544l-.077-3.15534a.40815.40815,0,0,0-.46176-.46176Zm-6.00284.76959c.46177,0,.53872.15393.53872,1.00047,0,.76959-.15392,1.00046-.53872,1.00046-.46176,0-.53871-.15393-.53871-1.00046-.077-.76957.07695-1.00047.53871-1.00047m0-.9235c-1.38527,0-1.924.53873-1.924,1.924s.53871,1.847,1.924,1.847,1.924-.46176,1.924-1.847-.53871-1.924-1.924-1.924m-3.61709,1.847c.84656-.15393.7696-.23087,1.23136-1.69312h-1.30831c-.30783,1.23135-.30783,1.30832-.84656,1.30832h-.15391c0-.15393.077-.30783.077-.46176v-.84656h-1.30831v3.6171h1.30831v-1.15439a.58169.58169,0,0,0-.077-.30783h.30783c.3848,0,.3848.077.76959,1.46222H227.919c-.53873-1.77006-.53873-1.77006-1.38528-1.924Zm-5.92587-.077h-.53871c-.30783,0-.3848-.077-.3848-.46176,0-.23087.077-.30783.3848-.30783h.53871Zm-1.46223.46176c-.23088,0-.61568.077-.69263.3848l-.30783,1.15439h1.3083l.23088-1.00046c0-.15393.077-.23087.30784-.23087h.46176v1.15439h1.3083v-3.6171a10.94794,10.94794,0,0,0-1.847-.077c-1.3083,0-1.61615.23087-1.61615,1.1544a1.23433,1.23433,0,0,0,.84655,1.07742Zm-3.771.23087a.2819.2819,0,0,1,.30784-.30783h.76959v.46176a1.24122,1.24122,0,0,1-.69263.23087c-.23088,0-.3848-.077-.3848-.30783Zm-1.00047-1.38526c.61568,0,1.15439-.077,1.53919-.077s.46176.077.46176.38479v.077h-1.23136c-.69263,0-1.15439.3848-1.15439.92352v.3848c0,.69263.53871,1.00046,1.23136,1.00046a1.76906,1.76906,0,0,0,1.3083-.61567l.15392.53873h1.07743v-2.30878c0-1.07743-.53872-1.38526-1.53919-1.38526a17.50785,17.50785,0,0,0-2.001.15393Zm-.92351-.92352h-2.15487a.90887.90887,0,0,0-1.00047.92352,11.93957,11.93957,0,0,1-.15392,1.38526c-.077.30783-.30783.30783-.61568.30783l.15392,1.00047c.76959.15393,1.53919-.077,1.61615-.92353.077-.38479.15392-.92352.23088-1.53918a.28191.28191,0,0,1,.30784-.30784h.30783v2.69358h1.30831v-3.54011Zm-4.38669,3.6171v-3.6171h-1.15439l-1.15439,1.69312a3.345,3.345,0,0,0-.30783.53872h0c0-.23087.077-.3848.077-.53872v-1.69312h-1.15439v3.6171h1.15439l1.15439-1.61615a4.56956,4.56956,0,0,0,.30784-.61567h0c0,.23087-.077.46176-.077.61567v1.61615Zm-5.84892-2.69358c1.00048-.15393,1.00048-.61566,1.53919-2.38574H203.3689c-.46176,1.46222-.53871,1.924-1.00047,1.924h-.30784c0-.23087.077-.3848.077-.61567v-1.30831h-1.30831v1.30831a1.69449,1.69449,0,0,0,.077.61567h-.23088c-.46176,0-.53871-.46176-1.00047-1.924h-1.38527c.53871,1.77005.53871,2.23181,1.53919,2.38574v.077c-1.00048.15392-1.07743.53872-1.69311,2.61661h1.38527c.53872-1.847.61568-2.15485,1.07743-2.15485h.23088c0,.15392-.077.30783-.077.46176v1.69311h1.3083v-1.69311a.9761.9761,0,0,0-.077-.46176h.23088c.53871,0,.53871.30783,1.07743,2.15485h1.46222c-.46175-2.07791-.5387-2.46271-1.53918-2.69358Z" transform="translate(-90.76251 -30.64058)"/>
    <path class="cls-3" d="M149.18949,97.74918c.53871,0,.69263.23088.69263,1.53919s-.15391,1.53919-.69263,1.53919-.69264-.23088-.69264-1.53919.15392-1.53919.69264-1.53919m0-1.00047c-1.53919,0-2.00094.61568-2.00094,2.61661,0,1.924.53871,2.61662,2.00094,2.61662,1.53919,0,2.0779-.61568,2.0779-2.61662s-.53871-2.61661-2.0779-2.61661m-3.38622,3.848c-.38479,0-.46175.077-.46175.46176v.30783c0,.3848.077.46176.46175.46176h.30784c.3848,0,.46176-.077.46176-.46176v-.30783c0-.3848-.077-.46176-.46176-.46176Zm-3.07837-2.8475c.53871,0,.69263.23088.69263,1.53919s-.15391,1.53919-.69263,1.53919-.69264-.23088-.69264-1.53919.15392-1.53919.69264-1.53919m0-1.00047c-1.53919,0-2.00094.61568-2.00094,2.61661,0,1.924.53871,2.61662,2.00094,2.61662,1.53919,0,2.0779-.61568,2.0779-2.61662-.077-2.00093-.53871-2.61661-2.0779-2.61661m-2.92446,5.07931V96.82566h-1.38527l-1.23135.46176.15391.84656,1.1544-.23088a1.69454,1.69454,0,0,0-.077.61568V101.828h1.38527Z" transform="translate(-90.76251 -30.64058)"/>
    <path class="cls-3" d="M161.19515,91.13067h-.53872c-.30783,0-.38479-.077-.38479-.46176,0-.23088.077-.30783.38479-.30783h.53872Zm-1.46223.46176c-.23088,0-.61567.077-.69263.3848l-.30783,1.15439h1.38527l.23088-1.00048c0-.15391.077-.23088.30784-.23088h.46176v1.1544h1.30831V89.43757a10.94814,10.94814,0,0,0-1.847-.077c-1.3083,0-1.61615.23088-1.61615,1.15439a.94193.94193,0,0,0,.76958,1.07744Zm-3.771.30783a.2819.2819,0,0,1,.30783-.30783h.7696v.46176a1.24136,1.24136,0,0,1-.69263.23088c-.23089,0-.3848-.077-.3848-.30783ZM154.96144,90.438c.61568,0,1.15439-.077,1.53919-.077s.46176.077.53872.38479v.077H155.808c-.69263,0-1.15439.38479-1.15439.92351v.38479c0,.69263.53871,1.00048,1.23135,1.00048a1.769,1.769,0,0,0,1.30831-.61568l.15392.53872h1.07743V90.74587c0-1.07742-.53872-1.38527-1.53919-1.38527a17.5122,17.5122,0,0,0-2.001.15392Zm-2.001.76959c.84656-.077.84656-.23088,1.30831-1.6931h-1.30831c-.38479,1.15439-.38479,1.30831-.76959,1.30831H151.96c0-.15392.077-.30784.077-.46176v-.84656h-1.15439v.84656a.976.976,0,0,0,.077.46176h-.23088c-.3848,0-.3848-.15392-.7696-1.30831h-1.3083c.46175,1.46222.46175,1.61615,1.3083,1.6931h0c-.84655.15392-.84655.15392-1.38527,1.847h1.30831c.46175-1.38528.46175-1.46223.76959-1.46223h.30784c0,.077-.077.23088-.077.30783v1.1544H152.037V91.59243h.30785c.30783,0,.38479.077.76959,1.46223h1.30831c-.61567-1.61616-.61567-1.61616-1.46223-1.847Zm-6.77242-.84655c.46176,0,.53871.15391.53871,1.00047,0,.76959-.15391,1.00048-.53871,1.00048-.46175,0-.53871-.15392-.53871-1.00048s.077-1.00047.53871-1.00047m0-.92351c-1.38527,0-1.924.53871-1.924,1.924s.53871,1.847,1.924,1.847,1.924-.46176,1.924-1.847-.46176-1.924-1.924-1.924m-3.38621,3.69405h1.3083l-1.07743-1.847,1.00048-1.77007H142.7249l-.69264,1.38527-.69263-1.38527h-1.30831l1.00047,1.77007-1.07743,1.847h1.30831l.76959-1.46222Zm-3.30926,0V89.51453h-1.15439l-1.15439,1.6931a3.34621,3.34621,0,0,0-.30784.53872h0c0-.23088.077-.3848.077-.53872v-1.6931h-1.15439v3.61709h1.15439l1.15439-1.61615a4.56972,4.56972,0,0,0,.30784-.61568h0c0,.23088-.077.46176-.077.61568v1.61615Zm-6.84938-2.46271a1.07433,1.07433,0,0,1,.69263-.23088c.30784,0,.46176.15392.46176.92351,0,.84656-.15392.92351-.53871.92351a1.44984,1.44984,0,0,1-.61568-.15392Zm-.23088-1.15439H131.3349v4.9254h1.30831V92.90073a1.85476,1.85476,0,0,0,1.15439.30783c.92351,0,1.38527-.3848,1.38527-1.847,0-1.23136-.38479-1.924-1.3083-1.924a1.69091,1.69091,0,0,0-1.38527.61568Zm-1.924-1.38526h-4.15581v5.00236h1.38528V89.05277h1.46223v4.07885h1.38527V88.12926Z" transform="translate(-90.76251 -30.64058)"/>
    <path class="cls-3" d="M234.46051,74.04569h-.61568V71.96778h-1.00048l-.23088.7696v1.30831H231.613c-.15392,0-.15392-.077-.15392-.23088l1.07743-2.8475h-1.23134l-1.23136,3.15534a.54147.54147,0,0,0,.53871.76959h2.001v1.07743h1.23136V74.89224h0l.61568-.15391Zm-5.618.76959c-.3848,0-.46176.077-.46176.46176v.30783c0,.3848.077.46177.46176.46177h.30783c.3848,0,.46176-.077.46176-.46177V75.277c0-.3848-.077-.46176-.46176-.46176Zm-1.38527,1.23134V71.04426h-1.38528l-1.23135.46176.15392.84656,1.15439-.23088a1.69434,1.69434,0,0,0-.077.61568v3.30926h1.38529Zm-3.2323,0V71.04426h-1.38527l-1.23135.46176.15391.84656,1.15439-.23088a1.69454,1.69454,0,0,0-.077.61568v3.30926h1.38528Z" transform="translate(-90.76251 -30.64058)"/>
    <path class="cls-3" d="M237.308,65.34927h-.53871c-.30784,0-.3848-.077-.3848-.46176,0-.23088.077-.30783.3848-.30783h.53871Zm-1.38527.46176c-.23088,0-.61568.077-.69263.3848l-.30783,1.15439h1.3083l.23088-1.00047c0-.15392.077-.23088.30784-.23088h.46176v1.15439h1.30831V63.65617a10.94807,10.94807,0,0,0-1.847-.077c-1.30831,0-1.61616.23088-1.61616,1.15439a1.13271,1.13271,0,0,0,.84655,1.07744Zm-1.46222-2.07791H233.1522v1.23135h-1.07744V63.73312h-1.30831v3.61709h1.30831V65.888h1.07743v1.46222h1.3083V63.73312Zm-5.46413,3.6171h1.30831l-1.07743-1.847,1.00048-1.77007h-1.30831l-.69263,1.30831-.69263-1.30831h-1.30831l1.00048,1.77007-1.07743,1.847h1.30831l.76959-1.46222Zm-2.92446-3.6171h-1.38527l-.53871,2.15487a2.37952,2.37952,0,0,1-.15392.61567h-.077c0-.23088-.077-.38479-.077-.61567l-.53871-2.15487h-1.38527l1.07743,3.30926a.51134.51134,0,0,0,.38479.30783h.23088a1.1313,1.1313,0,0,1-.38479.46176,1.81889,1.81889,0,0,1-1.00048.15392l-.077.84655a3.02386,3.02386,0,0,0,1.46222-.077,1.89473,1.89473,0,0,0,1.23136-1.38527Zm-5.92587,1.00047c1.00048-.15391,1.00048-.61567,1.53919-2.38574H220.3c-.3848,1.46222-.46176,1.924-1.15439,1.924h-.23088c0-.23088.077-.38479.077-.61567V62.34785h-1.38527v5.00236h1.38527V65.6571a.97616.97616,0,0,0-.077-.46176h.23088c.69263,0,.76959.30784,1.23135,2.15487h1.38527c-.46176-2.0779-.53872-2.4627-1.61615-2.61662Z" transform="translate(-90.76251 -30.64058)"/>
    <path class="cls-3" d="M149.57429,202.64483v-.76959" transform="translate(-90.76251 -30.64058)"/>
    <path class="cls-3" d="M186.053,49.80348h12.23654V37.64389H186.053Zm-.23088-12.46743h12.77526V50.11131H185.82216Z" transform="translate(-90.76251 -30.64058)"/>
    <path class="cls-8" d="M186.053,49.80348h12.23654V37.64389H186.053Zm-.23088-12.46743h12.77526V50.11131H185.82216Z" transform="translate(-90.76251 -30.64058)"/>
    <path class="cls-3" d="M197.1352,39.49091a.526.526,0,0,0-.53872-.53871h-6.38763a.526.526,0,0,0-.53871.53871v8.5425a.526.526,0,0,0,.53871.53871h6.38763a.526.526,0,0,0,.53872-.53871Zm-7.77291,8.5425v-8.5425a.85407.85407,0,0,1,.84656-.84655h6.38763a.85407.85407,0,0,1,.84656.84655v8.5425a.85407.85407,0,0,1-.84656.84656h-6.38763a.90969.90969,0,0,1-.84656-.84656" transform="translate(-90.76251 -30.64058)"/>
    <path class="cls-8" d="M197.1352,39.49091a.526.526,0,0,0-.53872-.53871h-6.38763a.526.526,0,0,0-.53871.53871v8.5425a.526.526,0,0,0,.53871.53871h6.38763a.526.526,0,0,0,.53872-.53871Zm-7.77291,8.5425v-8.5425a.85407.85407,0,0,1,.84656-.84655h6.38763a.85407.85407,0,0,1,.84656.84655v8.5425a.85407.85407,0,0,1-.84656.84656h-6.38763A.90969.90969,0,0,1,189.36229,48.03341Z" transform="translate(-90.76251 -30.64058)"/>
    <path class="cls-3" d="M190.59365,47.57165h5.618V39.79874h-5.618Zm-.30785-8.00378h6.15676v8.31162H190.2858Z" transform="translate(-90.76251 -30.64058)"/>
    <path class="cls-8" d="M190.59365,47.57165h5.618V39.79874h-5.618Zm-.30785-8.00378h6.15676v8.31162H190.2858Z" transform="translate(-90.76251 -30.64058)"/>
    <path class="cls-3" d="M194.51857,43.72368a.69263.69263,0,1,0-.69263.69263.68974.68974,0,0,0,.69263-.69263m-1.6931,0a1.00047,1.00047,0,1,1,1.00047,1.00047,1.01873,1.01873,0,0,1-1.00047-1.00047" transform="translate(-90.76251 -30.64058)"/>
    <path class="cls-8" d="M194.51857,43.72368a.69263.69263,0,1,0-.69263.69263A.68974.68974,0,0,0,194.51857,43.72368Zm-1.6931,0a1.00047,1.00047,0,1,1,1.00047,1.00047A1.01873,1.01873,0,0,1,192.82547,43.72368Z" transform="translate(-90.76251 -30.64058)"/>
    <line class="cls-4" x1="17.86938" y1="2.69358" x2="30.95247" y2="2.69358"/>
    <rect class="cls-4" x="78.66731" y="9.38905" width="10.31255" height="12.39047"/>
    <path class="cls-3" d="M239.30894,138.30677v-11.39h-3.07838l-2.92446,1.15439.3848,2.00095,2.61661-.61568a8.4801,8.4801,0,0,0-.15391,1.38527v7.542h3.15534Zm-7.84986-2.77053c-.76959,0-1.07743.23088-1.07743,1.07743v.69263c0,.7696.23089,1.07744,1.07743,1.07744h.69263c.7696,0,1.07743-.23087,1.07743-1.07743v-.69263c0-.76959-.23088-1.07743-1.07743-1.07743h-.69263Zm-9.61992-8.61945.15391,2.4627h5.00236a8.55131,8.55131,0,0,0-.53871,1.23135l-2.77054,7.69593h3.07837l3.46318-9.92776a1.10616,1.10616,0,0,0-1.15439-1.53918h-7.23418Zm-1.30831,2.30878.15392-2.30878h-7.15723l-.30783,5.15628a1.00432,1.00432,0,0,0,.92351,1.00047l1.77007.23088c1.53918.15392,2.0779.3848,2.0779,1.38527-.077.92352-.3848,1.30831-1.924,1.30831-.84656,0-1.847-.077-2.92446-.15391l-.30783,2.30878a26.8807,26.8807,0,0,0,4.07885.30783c3.23229,0,4.1558-1.6931,4.1558-3.69405,0-1.847-.69263-3.46318-3.30925-3.771l-1.924-.23088.15392-1.61615h4.54061Z" transform="translate(-90.76251 -30.64058)"/>
    <circle class="cls-9" cx="135.70738" cy="83.42386" r="10.1589"/>
    <path class="cls-3" d="M229.689,114.7572l2.001,3.69406h2.61662l-2.15487-3.61709a2.7444,2.7444,0,0,0-.76959-.84656h0a1.71584,1.71584,0,0,0,.69263-.76959l2.0779-3.38621H231.613L229.612,113.218h-.61568a5.08081,5.08081,0,0,0,.077-1.07743v-2.30878h-2.30878v8.61945h2.30878V115.5268a2.61813,2.61813,0,0,0-.077-.7696Zm-10.38952-3.07837c1.1544-.077,1.847-.077,2.69358-.077.69263,0,.92351,0,.92351.3848,0,.46176-.53871,1.23136-1.53918,2.23182l-1.924,2.001a1.34355,1.34355,0,0,0-.30783.92351v1.23135h6.46458v-2.001h-2.4627a6.61922,6.61922,0,0,0-1.23135.077l2.15486-2.0779c1.1544-1.15439,1.38528-1.77007,1.38528-2.69358,0-1.69311-1.23136-2.0779-3.07838-2.0779a11.54835,11.54835,0,0,0-3.07838.30783Z" transform="translate(-90.76251 -30.64058)"/>
    <rect class="cls-10" x="161.00592" y="68.91576" width="0.76958" height="17.23852" transform="translate(-77.21573 147.8935) rotate(-59.99927)"/>
    <path class="cls-11" d="M168.58326,82.43426a14.35518,14.35518,0,0,0,2.30878-4.38669,20.21584,20.21584,0,0,0,1.07742-5.695" transform="translate(-90.76251 -30.64058)"/>
    <rect class="cls-12" x="115.00934" y="77.13226" width="17.24002" height="0.76964" transform="translate(-112.95766 41.55397) rotate(-29.99786)"/>
    <path class="cls-11" d="M116.48174,82.43426a14.35545,14.35545,0,0,1-2.30878-4.38669,20.216,20.216,0,0,1-1.07743-5.695" transform="translate(-90.76251 -30.64058)"/>
    <rect class="cls-10" x="178.85583" y="87.85537" width="17.23852" height="0.76958" transform="translate(-73.44468 175.83552) rotate(-59.99927)"/>
    <path class="cls-11" d="M192.3637,81.049A14.355,14.355,0,0,0,187.977,78.7402a20.21584,20.21584,0,0,0-5.695-1.07742" transform="translate(-90.76251 -30.64058)"/>
    <rect class="cls-10" x="178.84943" y="141.11459" width="17.23852" height="0.76958" transform="translate(-119.57138 202.45901) rotate(-59.99927)"/>
    <path class="cls-11" d="M192.3637,134.3049a14.35475,14.35475,0,0,0-4.38668-2.30878,20.21564,20.21564,0,0,0-5.695-1.07743" transform="translate(-90.76251 -30.64058)"/>
    <rect class="cls-10" x="165.51273" y="157.96356" width="0.76958" height="17.23852" transform="matrix(0.50001, -0.86602, 0.86602, 0.50001, -152.07947, 196.3194)"/>
    <path class="cls-11" d="M173.12386,171.39931a14.35484,14.35484,0,0,0,2.30878-4.38669,20.21584,20.21584,0,0,0,1.07742-5.695" transform="translate(-90.76251 -30.64058)"/>
    <rect class="cls-10" x="210.22622" y="231.12963" width="0.76958" height="17.23852" transform="translate(-193.08642 271.62437) rotate(-59.99927)"/>
    <path class="cls-11" d="M203.44587,234.81388a14.35469,14.35469,0,0,0-2.30879,4.38669,20.21584,20.21584,0,0,0-1.07742,5.695" transform="translate(-90.76251 -30.64058)"/>
    <rect class="cls-13" x="96.63199" y="80.60279" width="0.76958" height="21.85598" transform="translate(-123.5305 30.13226) rotate(-30.00073)"/>
    <path class="cls-11" d="M91.00818,82.3573a14.355,14.355,0,0,1,4.38669-2.30878,20.216,20.216,0,0,1,5.695-1.07743" transform="translate(-90.76251 -30.64058)"/>
    <rect class="cls-3" x="10.40432" y="44.55949" width="3.92493" height="2.92446"/>
  </g>
  <polyline class="cls-3" points="86.847 210.701 86.847 216.872 44.922 216.872 44.922 210.701"/>
  <polyline class="cls-3" points="166.037 210.701 166.037 216.872 125.148 216.872 125.148 210.701"/>
  <rect class="cls-3" x="162.75929" y="215.70424" width="3.27803" height="25.1029"/>
  <polyline class="cls-3" points="48.2 240.807 44.922 240.807 44.922 215.704 48.2 215.704"/>
  <rect class="cls-3" x="44.92225" y="237.70164" width="121.02889" height="3.27803"/>
  <path class="cls-3" d="M216.08312,257.73167c.60386,0,.7764.17254.7764.6901,0,.60386-.17254.69011-.7764.69011s-.7764-.17254-.7764-.69011.08629-.6901.7764-.6901m0-2.24285c.51756,0,.6901.08624.6901.6901,0,.51757-.08624.60386-.6901.60386s-.69011-.08624-.69011-.60386c0-.51756.08625-.6901.69011-.6901m-1.20773,1.81153c-.7764.08624-1.03518.7764-1.03518,1.4665,0,1.12143.43132,1.55275,2.15661,1.4665,1.81153,0,2.15661-.43132,2.15661-1.4665,0-.7764-.17254-1.38021-.94889-1.4665h0c.60386-.08625.86264-.69011.86264-1.294,0-1.03518-.34507-1.4665-2.07036-1.4665s-2.07036.43132-2.07036,1.4665c.08629.60386.34507,1.20772.94893,1.294Zm-2.58793,1.4665c-.43132,0-.51756.08624-.51756.51757v.34507c0,.43133.08624.51757.51756.51757h.34508c.43132,0,.51757-.08624.51757-.51757v-.34507c0-.43133-.08625-.51757-.51757-.51757Zm-1.03518-.77635h-.6901v-2.32914h-1.12143l-.25878.86264v1.4665h-1.12143c-.17253,0-.17253-.08624-.17253-.25878l1.20772-3.19179h-1.38021l-1.38021,3.53682a.60694.60694,0,0,0,.60386.86264H209.182v1.20772h1.38021v-1.20772h0l.6901-.17254v-.77635Zm-8.62643,0H202.022c-.34508,0-.43132-.08624-.43132-.51756,0-.25878.08624-.34508.43132-.34508h.60386Zm-1.639.51757c-.25878,0-.6901.08624-.7764.43132l-.34508,1.294h1.46651l.25878-1.12142c0-.17254.08624-.25878.34508-.25878h.51756v1.294h1.4665v-4.05443a12.27512,12.27512,0,0,0-2.07036-.08625c-1.4665,0-1.81153.25879-1.81153,1.294a1.26975,1.26975,0,0,0,.94894,1.20767Zm-1.639,1.639v-4.05443h-1.294l-1.294,1.89782a3.75493,3.75493,0,0,0-.34508.60386h0c0-.25878.08624-.43132.08624-.60386v-1.89782h-1.294v4.05443h1.294l1.294-1.81153a5.12923,5.12923,0,0,0,.34507-.6901h0c0,.25878-.08624.51756-.08624.6901v1.81153Zm-6.29729-2.07036c.94889-.08625.94889-.25879,1.46651-1.89783h-1.46651c-.43132,1.294-.43132,1.46651-.86264,1.46651h-.25878c0-.17254.08624-.34508.08624-.51757V256.179h-1.294v.94889a1.09413,1.09413,0,0,0,.08625.51757h-.345c-.43132,0-.43132-.17254-.86264-1.46651h-1.46651c.51757,1.639.51757,1.81153,1.46651,1.89783h0c-.94889.17254-.94889.17254-1.55275,2.07036h1.46651c.51756-1.55275.51756-1.639.86264-1.639h.34508c0,.08624-.08625.25878-.08625.34508v1.294h1.294v-1.5528h.345c.34508,0,.43133.08624.86265,1.639h1.4665c-.51762-1.89782-.60391-1.98406-1.5528-2.1566Zm-7.33247,1.12142h-1.20772a6.97145,6.97145,0,0,0,.43132-1.81153.316.316,0,0,1,.34508-.34508h.34508v2.15661Zm2.07037,0h-.69011v-3.01925h-2.24285a1.08481,1.08481,0,0,0-1.20772.94889,9.0993,9.0993,0,0,1-.51756,2.07036h-.43138v2.07037h.94889l.08624-1.12143h2.84671l.08625,1.12143h.94888v-2.07037Zm-7.505-2.15661c.51757,0,.60386.17254.60386,1.12143,0,.86264-.17254,1.12143-.60386,1.12143-.51756,0-.60386-.17254-.60386-1.12143,0-.86264.08624-1.12143.60386-1.12143m0-1.03518c-1.55275,0-2.15661.60386-2.15661,2.15661s.60386,2.07036,2.15661,2.07036,2.15661-.51756,2.15661-2.07036c0-1.55275-.60386-2.15661-2.15661-2.15661m-2.933-1.38021h-2.58793a1.207,1.207,0,0,0-1.3802,1.294,11.54222,11.54222,0,0,1-.34508,2.58793.72078.72078,0,0,1-.7764.51756l.08624,1.20772a1.66493,1.66493,0,0,0,2.07037-1.294,11.66584,11.66584,0,0,0,.43132-2.84671.40751.40751,0,0,1,.43132-.43132h.51756v4.572h1.55275v-5.60718Z" transform="translate(-90.76251 -30.64058)"/>
  <path class="cls-2" d="M652.57545,197.05289" transform="translate(-90.76251 -30.64058)"/>
  <path class="cls-2" d="M-149.53426,643.21112" transform="translate(-90.76251 -30.64058)"/>
</svg>
