<?xml version="1.0" encoding="utf-8"?>
<!-- Generator: Adobe Illustrator 26.5.0, SVG Export Plug-In . SVG Version: 6.00 Build 0)  -->
<svg version="1.1" id="Слой_1" xmlns="http://www.w3.org/2000/svg" xmlns:xlink="http://www.w3.org/1999/xlink" x="0px" y="0px"
	 viewBox="0 0 1000 1000" style="enable-background:new 0 0 1000 1000;" xml:space="preserve">
<style type="text/css">
	.st0{fill:#D8E6AD;}
	.st1{fill:none;stroke:#373437;}
	.st2{fill:#373437;}
	.st3{fill:#FFFFFF;}
	.st4{fill:none;stroke:#373437;stroke-dasharray:2.044,2.044;}
	.st5{fill:none;stroke:#373437;stroke-dasharray:1.99,1.99;}
</style>
<rect x="786" y="393.2" class="st0" width="17.3" height="62.9"/>
<rect x="175" y="453.1" class="st0" width="633.9" height="200.8"/>
<rect x="520" y="491.6" class="st0" width="280.2" height="201.4"/>
<rect x="597" y="606.6" class="st0" width="131" height="187.4"/>
<rect x="686" y="634.6" class="st0" width="122" height="201.4"/>
<rect x="117.8" y="262.8" class="st0" width="673.9" height="192.5"/>
<path class="st1" d="M804.4,441.2l-21.6-38.1c0,0,3.1-2,9.7-3.7s11.2-1.7,11.2-1.7"/>
<rect x="749.9" y="596.7" class="st2" width="23.2" height="30.8"/>
<rect x="749.9" y="596.7" class="st1" width="23.2" height="30.8"/>
<rect x="769" y="596.7" class="st2" width="30.6" height="7.8"/>
<rect x="769" y="596.7" class="st1" width="30.6" height="7.8"/>
<rect x="643.9" y="619.8" class="st2" width="110" height="7.8"/>
<rect x="643.9" y="619.8" class="st1" width="110" height="7.8"/>
<path class="st1" d="M171.8,631.7l24.1-42.2c0,0-3.4-2.2-10.8-4.1c-7.3-1.9-12.4-1.9-12.4-1.9"/>
<rect x="171.2" y="626.7" class="st3" width="3.6" height="9.3"/>
<rect x="171.2" y="626.7" class="st1" width="3.6" height="9.3"/>
<rect x="171.2" y="660.8" class="st3" width="3.6" height="4.2"/>
<rect x="171.2" y="660.8" class="st1" width="3.6" height="4.2"/>
<rect x="505" y="651.5" class="st2" width="16.3" height="57.3"/>
<rect x="514" y="520.4" class="st2" width="7.3" height="152.5"/>
<rect x="514" y="520.4" class="st1" width="7.3" height="152.5"/>
<rect x="807.9" y="229" class="st2" width="12.6" height="100.6"/>
<rect x="807.9" y="229" class="st1" width="12.6" height="100.6"/>
<rect x="807.9" y="440.8" class="st2" width="12.6" height="410.2"/>
<rect x="795.2" y="444.6" class="st2" width="22.4" height="406.4"/>
<rect x="795.2" y="444.6" class="st1" width="22.4" height="400.4"/>
<rect x="807.9" y="297.9" class="st1" width="12.6" height="99.9"/>
<rect x="792.3" y="229" class="st2" width="28.2" height="96.6"/>
<rect x="792.3" y="229" class="st1" width="28.2" height="96.6"/>
<rect x="81" y="229" class="st2" width="713" height="34.2"/>
<rect x="81" y="229" class="st1" width="713" height="34.2"/>
<rect x="792.3" y="297.9" class="st1" width="15.6" height="95.2"/>
<rect x="803.1" y="325.7" class="st1" width="4.8" height="67.3"/>
<rect x="803.1" y="389" class="st1" width="4.8" height="4.1"/>
<rect x="803.1" y="393.8" class="st1" width="4.8" height="4.1"/>
<rect x="803.1" y="440.8" class="st1" width="4.8" height="4.1"/>
<rect x="803.1" y="325.7" class="st1" width="4.8" height="4.1"/>
<rect x="752.2" y="835.8" class="st2" width="65.8" height="15.1"/>
<rect x="358.2" y="261.1" class="st2" width="15.7" height="64.6"/>
<rect x="358.2" y="261.1" class="st1" width="15.7" height="64.6"/>
<rect x="358.2" y="289" class="st2" width="7.3" height="101.8"/>
<rect x="358.2" y="289" class="st1" width="7.3" height="101.8"/>
<rect x="546.1" y="260.7" class="st2" width="7.3" height="201.9"/>
<rect x="546.1" y="260.7" class="st1" width="7.3" height="201.9"/>
<rect x="81.3" y="455.3" class="st2" width="396.4" height="7.3"/>
<rect x="81.3" y="455.3" class="st1" width="396.4" height="7.3"/>
<rect x="476.9" y="260.7" class="st2" width="7.3" height="81.9"/>
<rect x="476.9" y="260.7" class="st1" width="7.3" height="81.9"/>
<rect x="307.6" y="447.8" class="st2" width="59" height="10.6"/>
<rect x="307.6" y="447.8" class="st1" width="59" height="10.6"/>
<rect x="358.2" y="389.1" class="st2" width="24.6" height="7.3"/>
<rect x="358.2" y="389.1" class="st1" width="24.6" height="7.3"/>
<rect x="419.1" y="389.1" class="st2" width="47.8" height="7.3"/>
<rect x="419.1" y="389.1" class="st1" width="47.8" height="7.3"/>
<rect x="485.3" y="389.1" class="st2" width="15.7" height="7.3"/>
<rect x="485.3" y="389.1" class="st1" width="15.7" height="7.3"/>
<rect x="534.7" y="389.1" class="st2" width="18.7" height="7.3"/>
<rect x="534.7" y="389.1" class="st1" width="18.7" height="7.3"/>
<path class="st1" d="M372.4,390.6l41.6,23.7c0,0,2.2-3.4,4-10.6c1.9-7.2,1.9-12.3,1.9-12.3"/>
<path class="st1" d="M548.5,390.6L507,414.3c0,0-2.2-3.4-4-10.6c-1.9-7.2-1.9-12.3-1.9-12.3"/>
<path class="st1" d="M364.4,452l-28-48.7c0,0,4-2.5,12.5-4.7c8.5-2.2,14.5-2.2,14.5-2.2"/>
<path class="st1" d="M475.6,455.2l-28,48.7c0,0,4,2.5,12.5,4.7c8.5,2.2,14.5,2.2,14.5,2.2"/>
<path class="st1" d="M553.2,455.2l28,48.7c0,0-4,2.5-12.5,4.7c-8.5,2.2-14.5,2.2-14.5,2.2"/>
<path class="st1" d="M691,845.3l53.9,31.2c0,0,2.8-4.4,5.2-13.9c2.4-9.5,2.4-16.1,2.4-16.1"/>
<path class="st1" d="M613.1,698.9l39-22.4c0,0,2,3.2,3.8,10c1.7,6.8,1.7,11.6,1.7,11.6"/>
<rect x="81.3" y="419.4" class="st2" width="13.5" height="41.9"/>
<rect x="81.3" y="419.4" class="st1" width="13.5" height="41.9"/>
<rect x="81.3" y="326.5" class="st1" width="13.5" height="96"/>
<rect x="90.7" y="423.1" class="st2" width="25.5" height="33"/>
<rect x="90.7" y="423.1" class="st1" width="25.5" height="33"/>
<rect x="81.3" y="447.4" class="st2" width="104" height="27.6"/>
<rect x="81.3" y="447.4" class="st1" width="104" height="27.6"/>
<rect x="167.5" y="451.1" class="st2" width="17.8" height="27.6"/>
<rect x="167.5" y="451.1" class="st1" width="17.8" height="27.6"/>
<rect x="167.5" y="628.5" class="st2" width="17.8" height="34.4"/>
<rect x="167.5" y="628.5" class="st1" width="17.8" height="34.4"/>
<rect x="157.2" y="454.6" class="st2" width="12.9" height="27.6"/>
<rect x="157.2" y="454.6" class="st1" width="12.9" height="27.6"/>
<rect x="171.2" y="478.9" class="st1" width="3.6" height="104.7"/>
<rect x="171.2" y="470.3" class="st1" width="3.6" height="11.9"/>
<rect x="171.2" y="525.2" class="st1" width="3.6" height="9.3"/>
<rect x="171.2" y="574.2" class="st3" width="3.6" height="9.3"/>
<rect x="171.2" y="574.2" class="st1" width="3.6" height="9.3"/>
<rect x="157.2" y="626.7" class="st2" width="12.9" height="38.3"/>
<rect x="157.2" y="626.7" class="st1" width="12.9" height="38.3"/>
<rect x="81.3" y="657.2" class="st2" width="427.7" height="10.3"/>
<rect x="157" y="651.5" class="st2" width="364" height="15.5"/>
<rect x="520.5" y="692.9" class="st2" width="84.5" height="15.9"/>
<rect x="520.5" y="692.9" class="st1" width="84.5" height="15.9"/>
<rect x="538.8" y="692.9" class="st2" width="84.5" height="7.4"/>
<rect x="538.8" y="692.9" class="st1" width="84.5" height="7.4"/>
<rect x="657" y="692.9" class="st2" width="31.3" height="7.4"/>
<rect x="657" y="692.9" class="st1" width="31.3" height="7.4"/>
<rect x="681" y="698.4" class="st2" width="7.4" height="152.6"/>
<rect x="681" y="698.4" class="st1" width="7.4" height="152.6"/>
<rect x="589" y="700" class="st2" width="16" height="101"/>
<rect x="589.4" y="700" class="st1" width="15.6" height="81.9"/>
<rect x="617" y="785.4" class="st2" width="28.9" height="15.4"/>
<rect x="617" y="785.4" class="st1" width="28.9" height="15.4"/>
<rect x="589" y="785" class="st2" width="94.4" height="16"/>
<rect x="589.4" y="777.9" class="st2" width="30.6" height="23.1"/>
<rect x="596.2" y="784.3" class="st1" width="8.9" height="9.3"/>
<rect x="81.3" y="473.6" class="st1" width="7.8" height="189.2"/>
<rect x="95.6" y="259.1" class="st2" width="21.2" height="66.3"/>
<rect x="95.6" y="259.1" class="st1" width="21.2" height="66.3"/>
<rect x="81" y="259.1" class="st2" width="14.2" height="70.5"/>
<rect x="81" y="259.1" class="st1" width="14.2" height="70.5"/>
<rect x="81.3" y="326.5" class="st1" width="35.5" height="121.1"/>
<rect x="81.3" y="326.5" class="st1" width="18.6" height="99.4"/>
<rect x="95" y="326.5" class="st1" width="4.9" height="3"/>
<rect x="95" y="419.5" class="st1" width="4.9" height="3"/>
<rect x="685.2" y="835.8" class="st2" width="13.5" height="15.1"/>
<rect x="685.2" y="835.8" class="st1" width="13.5" height="15.1"/>
<rect x="469.1" y="520.4" class="st2" width="90" height="8.2"/>
<rect x="469.1" y="520.4" class="st1" width="90" height="8.2"/>
<rect x="469.1" y="510.8" class="st2" width="8.3" height="14.3"/>
<rect x="469.1" y="510.8" class="st1" width="8.3" height="14.3"/>
<rect x="550.8" y="510.8" class="st2" width="8.3" height="14.3"/>
<rect x="550.8" y="510.8" class="st1" width="8.3" height="14.3"/>
<rect x="553.1" y="447.9" class="st2" width="51.3" height="14.7"/>
<rect x="553.1" y="447.9" class="st1" width="51.3" height="14.7"/>
<rect x="538.5" y="260.7" class="st2" width="12.1" height="65.1"/>
<rect x="538.5" y="260.7" class="st1" width="12.1" height="65.1"/>
<line class="st1" x1="171" y1="529.9" x2="175" y2="529.9"/>
<line class="st1" x1="171" y1="579.3" x2="175" y2="579.3"/>
<rect x="757" y="603.9" class="st3" width="9.1" height="16.9"/>
<rect x="757" y="603.9" class="st1" width="9.1" height="16.9"/>
<line class="st1" x1="769" y1="627.6" x2="798.1" y2="627.6"/>
<line class="st4" x1="643.9" y1="612.3" x2="643.9" y2="467.7"/>
<line class="st5" x1="650.6" y1="463.2" x2="791.4" y2="463.2"/>
<path class="st1" d="M793.6,463.2h2.2 M643.9,465.5v-2.3h2.2 M643.9,619.2v-2.3"/>
<rect x="666.6" y="700" class="st2" width="14.2" height="7.2"/>
<rect x="666.6" y="700" class="st1" width="14.2" height="7.2"/>
<rect x="431.4" y="351.7" class="st1" width="34.2" height="34.2"/>
<line class="st1" x1="431.5" y1="351.8" x2="465.6" y2="385.4"/>
<line class="st1" x1="431.5" y1="385.8" x2="465.6" y2="352.2"/>
<path class="st2" d="M793.7,571.7h-34.3v-33.9h34.3V571.7z M794.4,537h-35.8v35.4h35.8V537z"/>
<path class="st1" d="M793.7,571.7h-34.3v-33.9h34.3V571.7z M794.4,537h-35.8v35.4h35.8V537z"/>
<path class="st2" d="M762.5,542.9c0-0.8,0.7-1.5,1.5-1.5h18c0.8,0,1.5,0.7,1.5,1.5v23.8c0,0.8-0.7,1.5-1.5,1.5h-18
	c-0.8,0-1.5-0.7-1.5-1.5V542.9z M784.4,566.6v-23.8c0-1.3-1-2.3-2.3-2.3h-18c-1.3,0-2.3,1-2.3,2.3v23.8c0,1.3,1,2.3,2.3,2.3h18
	C783.3,568.9,784.4,567.9,784.4,566.6"/>
<path class="st1" d="M762.5,542.9c0-0.8,0.7-1.5,1.5-1.5h18c0.8,0,1.5,0.7,1.5,1.5v23.8c0,0.8-0.7,1.5-1.5,1.5h-18
	c-0.8,0-1.5-0.7-1.5-1.5V542.9z M784.4,566.6v-23.8c0-1.3-1-2.3-2.3-2.3h-18c-1.3,0-2.3,1-2.3,2.3v23.8c0,1.3,1,2.3,2.3,2.3h18
	C783.3,568.9,784.4,567.9,784.4,566.6z"/>
<path class="st2" d="M781,565.5h-15.8V544H781V565.5z M781.7,543.2h-17.3v23h17.3V543.2z"/>
<path class="st1" d="M781,565.5h-15.8V544H781V565.5z M781.7,543.2h-17.3v23h17.3V543.2z"/>
<path class="st2" d="M770,554.8c0-1.1,0.9-2,2-2c1.1,0,2,0.9,2,2c0,1.1-0.9,2-2,2C770.9,556.7,770,555.8,770,554.8 M774.8,554.8
	c0-1.5-1.2-2.7-2.8-2.7c-1.5,0-2.8,1.2-2.8,2.7c0,1.5,1.2,2.7,2.8,2.7C773.5,557.5,774.8,556.3,774.8,554.8"/>
<path class="st1" d="M770,554.8c0-1.1,0.9-2,2-2c1.1,0,2,0.9,2,2c0,1.1-0.9,2-2,2C770.9,556.7,770,555.8,770,554.8z M774.8,554.8
	c0-1.5-1.2-2.7-2.8-2.7c-1.5,0-2.8,1.2-2.8,2.7c0,1.5,1.2,2.7,2.8,2.7C773.5,557.5,774.8,556.3,774.8,554.8z"/>
<path class="st2" d="M512.3,314.3c5.7,0,10.4-4.7,10.4-10.4v-15.1c0-1-0.8-1.8-1.8-1.8h-17.2c-1,0-1.8,0.8-1.8,1.8v15.1
	C501.9,309.6,506.6,314.3,512.3,314.3 M503.7,286.2h17.2c1.4,0,2.5,1.1,2.5,2.5v15.1c0,6.1-5,11.1-11.1,11.1
	c-6.1,0-11.1-5-11.1-11.1v-15.1C501.2,287.4,502.3,286.2,503.7,286.2"/>
<path class="st1" d="M512.3,314.3c5.7,0,10.4-4.7,10.4-10.4v-15.1c0-1-0.8-1.8-1.8-1.8h-17.2c-1,0-1.8,0.8-1.8,1.8v15.1
	C501.9,309.6,506.6,314.3,512.3,314.3z M503.7,286.2h17.2c1.4,0,2.5,1.1,2.5,2.5v15.1c0,6.1-5,11.1-11.1,11.1
	c-6.1,0-11.1-5-11.1-11.1v-15.1C501.2,287.4,502.3,286.2,503.7,286.2z"/>
<path class="st2" d="M519.6,292.3H505v11.2c0,4,3.3,7.3,7.3,7.3c4,0,7.3-3.3,7.3-7.3V292.3z M504.8,291.6h14.9
	c0.3,0,0.5,0.2,0.5,0.5v11.4c0,4.4-3.6,8-8,8c-4.4,0-8-3.6-8-8v-11.4C504.3,291.9,504.6,291.6,504.8,291.6"/>
<path class="st1" d="M519.6,292.3H505v11.2c0,4,3.3,7.3,7.3,7.3c4,0,7.3-3.3,7.3-7.3V292.3z M504.8,291.6h14.9
	c0.3,0,0.5,0.2,0.5,0.5v11.4c0,4.4-3.6,8-8,8c-4.4,0-8-3.6-8-8v-11.4C504.3,291.9,504.6,291.6,504.8,291.6z"/>
<path class="st2" d="M512.3,303.6c1.1,0,2-0.9,2-2c0-1.1-0.9-2-2-2c-1.1,0-2,0.9-2,2C510.3,302.7,511.2,303.6,512.3,303.6
	 M512.3,298.9c1.5,0,2.7,1.2,2.7,2.7s-1.2,2.7-2.7,2.7c-1.5,0-2.7-1.2-2.7-2.7S510.8,298.9,512.3,298.9"/>
<path class="st1" d="M512.3,303.6c1.1,0,2-0.9,2-2c0-1.1-0.9-2-2-2c-1.1,0-2,0.9-2,2C510.3,302.7,511.2,303.6,512.3,303.6z
	 M512.3,298.9c1.5,0,2.7,1.2,2.7,2.7s-1.2,2.7-2.7,2.7c-1.5,0-2.7-1.2-2.7-2.7S510.8,298.9,512.3,298.9z"/>
<rect x="513.6" y="295.7" transform="matrix(0.5975 -0.8019 0.8019 0.5975 -29.4436 533.408)" class="st2" width="6" height="0.7"/>
<rect x="513.6" y="295.7" transform="matrix(0.5975 -0.8019 0.8019 0.5975 -29.4436 533.408)" class="st1" width="6" height="0.7"/>
<polygon class="st2" points="506.6,293.4 510.2,298.2 509.6,298.6 506,293.9 "/>
<polygon class="st1" points="506.6,293.4 510.2,298.2 509.6,298.6 506,293.9 "/>
<path class="st2" d="M519.5,286.2c1.6,0,2.9-1.3,2.9-2.9v-3.9c0-1.6-1.3-2.9-2.9-2.9h-14.4c-1.6,0-2.9,1.3-2.9,2.9v3.9
	c0,1.6,1.3,2.9,2.9,2.9H519.5z M505.1,275.8h14.4c2,0,3.6,1.6,3.6,3.6v3.9c0,2-1.6,3.6-3.6,3.6h-14.4c-2,0-3.6-1.6-3.6-3.6v-3.9
	C501.5,277.4,503.1,275.8,505.1,275.8"/>
<path class="st1" d="M519.5,286.2c1.6,0,2.9-1.3,2.9-2.9v-3.9c0-1.6-1.3-2.9-2.9-2.9h-14.4c-1.6,0-2.9,1.3-2.9,2.9v3.9
	c0,1.6,1.3,2.9,2.9,2.9H519.5z M505.1,275.8h14.4c2,0,3.6,1.6,3.6,3.6v3.9c0,2-1.6,3.6-3.6,3.6h-14.4c-2,0-3.6-1.6-3.6-3.6v-3.9
	C501.5,277.4,503.1,275.8,505.1,275.8z"/>
<path class="st2" d="M512.3,282.5c0.6,0,1.1-0.5,1.1-1.1c0-0.6-0.5-1.1-1.1-1.1c-0.6,0-1.1,0.5-1.1,1.1
	C511.2,282,511.7,282.5,512.3,282.5 M512.3,279.5c1,0,1.8,0.8,1.8,1.8c0,1-0.8,1.8-1.8,1.8c-1,0-1.8-0.8-1.8-1.8
	C510.5,280.3,511.3,279.5,512.3,279.5"/>
<path class="st1" d="M512.3,282.5c0.6,0,1.1-0.5,1.1-1.1c0-0.6-0.5-1.1-1.1-1.1c-0.6,0-1.1,0.5-1.1,1.1
	C511.2,282,511.7,282.5,512.3,282.5z M512.3,279.5c1,0,1.8,0.8,1.8,1.8c0,1-0.8,1.8-1.8,1.8c-1,0-1.8-0.8-1.8-1.8
	C510.5,280.3,511.3,279.5,512.3,279.5z"/>
<path class="st2" d="M453.6,316.7c0-5.5,4.5-9.9,9.9-9.9H474c0.8,0,1.5,0.7,1.5,1.5v22.4c0,0.8-0.7,1.5-1.5,1.5h-10.5
	c-5.5,0-9.9-4.5-9.9-9.9V316.7z M476.1,330.7v-22.4c0-1.1-0.9-2.1-2.1-2.1h-10.5c-5.8,0-10.5,4.7-10.5,10.5v5.6
	c0,5.8,4.7,10.5,10.5,10.5H474C475.2,332.8,476.1,331.9,476.1,330.7"/>
<path class="st1" d="M453.6,316.7c0-5.5,4.5-9.9,9.9-9.9H474c0.8,0,1.5,0.7,1.5,1.5v22.4c0,0.8-0.7,1.5-1.5,1.5h-10.5
	c-5.5,0-9.9-4.5-9.9-9.9V316.7z M476.1,330.7v-22.4c0-1.1-0.9-2.1-2.1-2.1h-10.5c-5.8,0-10.5,4.7-10.5,10.5v5.6
	c0,5.8,4.7,10.5,10.5,10.5H474C475.2,332.8,476.1,331.9,476.1,330.7z"/>
<path class="st2" d="M456,316.7c0-4.1,3.3-7.4,7.4-7.4h6.1c0.7,0,1.3,0.6,1.3,1.3v17.9c0,0.7-0.6,1.3-1.3,1.3h-6.1
	c-4.1,0-7.4-3.3-7.4-7.4V316.7z M471.5,328.4v-17.9c0-1-0.8-1.9-1.9-1.9h-6.1c-4.4,0-8,3.6-8,8v5.6c0,4.4,3.6,8,8,8h6.1
	C470.7,330.3,471.5,329.5,471.5,328.4"/>
<path class="st1" d="M456,316.7c0-4.1,3.3-7.4,7.4-7.4h6.1c0.7,0,1.3,0.6,1.3,1.3v17.9c0,0.7-0.6,1.3-1.3,1.3h-6.1
	c-4.1,0-7.4-3.3-7.4-7.4V316.7z M471.5,328.4v-17.9c0-1-0.8-1.9-1.9-1.9h-6.1c-4.4,0-8,3.6-8,8v5.6c0,4.4,3.6,8,8,8h6.1
	C470.7,330.3,471.5,329.5,471.5,328.4z"/>
<path class="st2" d="M461.3,319.5c0-0.7,0.6-1.2,1.2-1.2c0.7,0,1.2,0.6,1.2,1.2c0,0.7-0.6,1.2-1.2,1.2
	C461.8,320.8,461.3,320.2,461.3,319.5 M464.3,319.5c0-1-0.8-1.8-1.8-1.8c-1,0-1.8,0.8-1.8,1.8c0,1,0.8,1.8,1.8,1.8
	C463.5,321.3,464.3,320.5,464.3,319.5"/>
<path class="st1" d="M461.3,319.5c0-0.7,0.6-1.2,1.2-1.2c0.7,0,1.2,0.6,1.2,1.2c0,0.7-0.6,1.2-1.2,1.2
	C461.8,320.8,461.3,320.2,461.3,319.5z M464.3,319.5c0-1-0.8-1.8-1.8-1.8c-1,0-1.8,0.8-1.8,1.8c0,1,0.8,1.8,1.8,1.8
	C463.5,321.3,464.3,320.5,464.3,319.5z"/>
<path class="st1" d="M458.6,284.1c0,0.8-0.7,1.4-1.5,1.4c-0.8,0-1.5-0.6-1.5-1.4c0-0.8,0.7-1.4,1.5-1.4
	C458,282.7,458.6,283.3,458.6,284.1z"/>
<path class="st1" d="M378.7,276.6c0-5.2,4.2-9.5,9.5-9.5h74.6c5.2,0,9.5,4.2,9.5,9.5v15c0,5.2-4.2,9.5-9.5,9.5h-74.6
	c-5.2,0-9.5-4.2-9.5-9.5V276.6z"/>
<path class="st1" d="M385.2,279.8c0-5.2,4.2-9.5,9.5-9.5h61.6c5.2,0,9.5,4.2,9.5,9.5v8.7c0,5.2-4.2,9.5-9.5,9.5h-61.6
	c-5.2,0-9.5-4.2-9.5-9.5V279.8z"/>
<path class="st1" d="M393,278.1c0-2.6,2.1-4.7,4.7-4.7h59.7c2.6,0,4.7,2.1,4.7,4.7v12.1c0,2.6-2.1,4.7-4.7,4.7h-59.7
	c-2.6,0-4.7-2.1-4.7-4.7V278.1z"/>
<polygon class="st1" points="475.8,303.9 475.8,303.9 375,303.9 375,264.3 475.8,264.3 "/>
<path class="st2" d="M660.4,722.1c0-4.3,3.5-7.9,7.9-7.9h8.4c0.7,0,1.2,0.5,1.2,1.2v17.8c0,0.7-0.5,1.2-1.2,1.2h-8.4
	c-4.3,0-7.9-3.5-7.9-7.9V722.1z M678.2,733.2v-17.8c0-0.9-0.7-1.6-1.6-1.6h-8.4c-4.6,0-8.3,3.7-8.3,8.3v4.4c0,4.6,3.7,8.3,8.3,8.3
	h8.4C677.5,734.9,678.2,734.1,678.2,733.2"/>
<path class="st1" d="M660.4,722.1c0-4.3,3.5-7.9,7.9-7.9h8.4c0.7,0,1.2,0.5,1.2,1.2v17.8c0,0.7-0.5,1.2-1.2,1.2h-8.4
	c-4.3,0-7.9-3.5-7.9-7.9V722.1z M678.2,733.2v-17.8c0-0.9-0.7-1.6-1.6-1.6h-8.4c-4.6,0-8.3,3.7-8.3,8.3v4.4c0,4.6,3.7,8.3,8.3,8.3
	h8.4C677.5,734.9,678.2,734.1,678.2,733.2z"/>
<path class="st2" d="M662.3,722.1c0-3.3,2.6-5.9,5.9-5.9h4.9c0.6,0,1,0.5,1,1v14.2c0,0.6-0.5,1-1,1h-4.9c-3.3,0-5.9-2.6-5.9-5.9
	V722.1z M674.6,731.4v-14.2c0-0.8-0.7-1.5-1.5-1.5h-4.9c-3.5,0-6.3,2.8-6.3,6.3v4.4c0,3.5,2.8,6.4,6.3,6.4h4.9
	C673.9,732.9,674.6,732.2,674.6,731.4"/>
<path class="st1" d="M662.3,722.1c0-3.3,2.6-5.9,5.9-5.9h4.9c0.6,0,1,0.5,1,1v14.2c0,0.6-0.5,1-1,1h-4.9c-3.3,0-5.9-2.6-5.9-5.9
	V722.1z M674.6,731.4v-14.2c0-0.8-0.7-1.5-1.5-1.5h-4.9c-3.5,0-6.3,2.8-6.3,6.3v4.4c0,3.5,2.8,6.4,6.3,6.4h4.9
	C673.9,732.9,674.6,732.2,674.6,731.4z"/>
<path class="st2" d="M666.5,724.3c0-0.5,0.4-1,1-1c0.5,0,1,0.4,1,1c0,0.5-0.4,1-1,1C666.9,725.3,666.5,724.9,666.5,724.3
	 M668.9,724.3c0-0.8-0.6-1.4-1.4-1.4c-0.8,0-1.4,0.6-1.4,1.4c0,0.8,0.6,1.4,1.4,1.4C668.2,725.7,668.9,725.1,668.9,724.3"/>
<path class="st1" d="M666.5,724.3c0-0.5,0.4-1,1-1c0.5,0,1,0.4,1,1c0,0.5-0.4,1-1,1C666.9,725.3,666.5,724.9,666.5,724.3z
	 M668.9,724.3c0-0.8-0.6-1.4-1.4-1.4c-0.8,0-1.4,0.6-1.4,1.4c0,0.8,0.6,1.4,1.4,1.4C668.2,725.7,668.9,725.1,668.9,724.3z"/>
<path class="st2" d="M635.5,734.7c-5.7,0-10.4,4.7-10.4,10.4v15.1c0,1,0.8,1.8,1.8,1.8h17.2c1,0,1.8-0.8,1.8-1.8v-15.1
	C645.9,739.4,641.2,734.7,635.5,734.7 M644.1,762.8h-17.2c-1.4,0-2.5-1.1-2.5-2.5v-15.1c0-6.1,5-11.1,11.1-11.1
	c6.1,0,11.1,5,11.1,11.1v15.1C646.6,761.6,645.5,762.8,644.1,762.8"/>
<path class="st1" d="M635.5,734.7c-5.7,0-10.4,4.7-10.4,10.4v15.1c0,1,0.8,1.8,1.8,1.8h17.2c1,0,1.8-0.8,1.8-1.8v-15.1
	C645.9,739.4,641.2,734.7,635.5,734.7z M644.1,762.8h-17.2c-1.4,0-2.5-1.1-2.5-2.5v-15.1c0-6.1,5-11.1,11.1-11.1
	c6.1,0,11.1,5,11.1,11.1v15.1C646.6,761.6,645.5,762.8,644.1,762.8z"/>
<path class="st1" d="M628,757h14.9c0.1,0,0.2-0.1,0.2-0.2v-11.4c0-4.2-3.4-7.6-7.7-7.6c-4.2,0-7.6,3.4-7.6,7.6v11.4
	C627.8,756.9,627.9,757,628,757z"/>
<path class="st2" d="M628.2,756.7h14.6v-11.2c0-4-3.3-7.3-7.3-7.3c-4,0-7.3,3.3-7.3,7.3V756.7z M642.9,757.4H628
	c-0.3,0-0.5-0.2-0.5-0.5v-11.4c0-4.4,3.6-8,8-8c4.4,0,8,3.6,8,8v11.4C643.5,757.1,643.2,757.4,642.9,757.4"/>
<path class="st1" d="M628.2,756.7h14.6v-11.2c0-4-3.3-7.3-7.3-7.3c-4,0-7.3,3.3-7.3,7.3V756.7z M642.9,757.4H628
	c-0.3,0-0.5-0.2-0.5-0.5v-11.4c0-4.4,3.6-8,8-8c4.4,0,8,3.6,8,8v11.4C643.5,757.1,643.2,757.4,642.9,757.4z"/>
<path class="st2" d="M635.5,745.4c-1.1,0-2,0.9-2,2c0,1.1,0.9,2,2,2c1.1,0,2-0.9,2-2C637.4,746.3,636.5,745.4,635.5,745.4
	 M635.5,750.1c-1.5,0-2.7-1.2-2.7-2.7c0-1.5,1.2-2.7,2.7-2.7c1.5,0,2.7,1.2,2.7,2.7C638.1,748.9,636.9,750.1,635.5,750.1"/>
<path class="st1" d="M635.5,745.4c-1.1,0-2,0.9-2,2c0,1.1,0.9,2,2,2c1.1,0,2-0.9,2-2C637.4,746.3,636.5,745.4,635.5,745.4z
	 M635.5,750.1c-1.5,0-2.7-1.2-2.7-2.7c0-1.5,1.2-2.7,2.7-2.7c1.5,0,2.7,1.2,2.7,2.7C638.1,748.9,636.9,750.1,635.5,750.1z"/>
<rect x="628.2" y="752.6" transform="matrix(0.5974 -0.8019 0.8019 0.5974 -349.7349 809.2634)" class="st2" width="6" height="0.7"/>
<rect x="628.2" y="752.6" transform="matrix(0.5974 -0.8019 0.8019 0.5974 -349.7349 809.2634)" class="st1" width="6" height="0.7"/>
<polygon class="st2" points="641.2,755.6 637.6,750.8 638.2,750.4 641.7,755.1 "/>
<polygon class="st1" points="641.2,755.6 637.6,750.8 638.2,750.4 641.7,755.1 "/>
<path class="st2" d="M628.3,762.8c-1.6,0-2.9,1.3-2.9,2.9v3.9c0,1.6,1.3,2.9,2.9,2.9h14.4c1.6,0,2.9-1.3,2.9-2.9v-3.9
	c0-1.6-1.3-2.9-2.9-2.9H628.3z M642.7,773.2h-14.4c-2,0-3.6-1.6-3.6-3.6v-3.9c0-2,1.6-3.6,3.6-3.6h14.4c2,0,3.6,1.6,3.6,3.6v3.9
	C646.3,771.6,644.6,773.2,642.7,773.2"/>
<path class="st1" d="M628.3,762.8c-1.6,0-2.9,1.3-2.9,2.9v3.9c0,1.6,1.3,2.9,2.9,2.9h14.4c1.6,0,2.9-1.3,2.9-2.9v-3.9
	c0-1.6-1.3-2.9-2.9-2.9H628.3z M642.7,773.2h-14.4c-2,0-3.6-1.6-3.6-3.6v-3.9c0-2,1.6-3.6,3.6-3.6h14.4c2,0,3.6,1.6,3.6,3.6v3.9
	C646.3,771.6,644.6,773.2,642.7,773.2z"/>
<path class="st2" d="M635.5,766.5c-0.6,0-1.1,0.5-1.1,1.1c0,0.6,0.5,1.1,1.1,1.1c0.6,0,1.1-0.5,1.1-1.1
	C636.6,767,636.1,766.5,635.5,766.5 M635.5,769.5c-1,0-1.8-0.8-1.8-1.8c0-1,0.8-1.8,1.8-1.8c1,0,1.8,0.8,1.8,1.8
	C637.3,768.7,636.5,769.5,635.5,769.5"/>
<path class="st1" d="M635.5,766.5c-0.6,0-1.1,0.5-1.1,1.1c0,0.6,0.5,1.1,1.1,1.1c0.6,0,1.1-0.5,1.1-1.1
	C636.6,767,636.1,766.5,635.5,766.5z M635.5,769.5c-1,0-1.8-0.8-1.8-1.8c0-1,0.8-1.8,1.8-1.8c1,0,1.8,0.8,1.8,1.8
	C637.3,768.7,636.5,769.5,635.5,769.5z"/>
<path class="st2" d="M250.2,376.7v5.7h-2.4L250.2,376.7z M250.2,384.6v2.7h2.4v-2.7h1.1v-2.2h-1.1v-10.2H250l-4.3,10.2v2.2H250.2z
	 M244.6,385.1h-2.4v2.2h2.4V385.1z M234.5,386.5c0.6,0.7,1.5,1,2.7,1c1.2,0,2-0.3,2.6-1c0.6-0.7,0.9-1.6,0.9-2.8v-1.2
	c0-1.6-0.6-2.7-1.7-3.2c1.1-0.5,1.7-1.5,1.7-3.1v-0.4c0-1.2-0.3-2.2-0.9-2.8c-0.6-0.7-1.5-1-2.6-1c-1.2,0-2.1,0.3-2.7,1
	c-0.6,0.7-1,1.6-1,2.8v0.8h2.4v-1c0-1,0.4-1.5,1.2-1.5c0.4,0,0.7,0.1,0.9,0.4c0.2,0.3,0.3,0.7,0.3,1.3v0.8c0,0.6-0.1,1-0.4,1.2
	c-0.2,0.2-0.6,0.4-1.1,0.4H236v2.2h0.8c0.5,0,0.9,0.1,1.2,0.4c0.2,0.3,0.4,0.8,0.4,1.5v1.2c0,0.6-0.1,1.1-0.3,1.3
	c-0.2,0.3-0.5,0.4-0.9,0.4c-0.8,0-1.2-0.5-1.2-1.5v-1.4h-2.4v1.3C233.6,384.9,233.9,385.8,234.5,386.5 M228.4,375.8v11.5h2.4v-15.1
	h-1.6c-0.1,0.2-0.2,0.4-0.2,0.6c-0.1,0.2-0.2,0.3-0.3,0.5c-0.1,0.2-0.3,0.3-0.5,0.4c-0.2,0.1-0.4,0.2-0.7,0.3
	c-0.3,0.1-0.6,0.1-0.9,0.1v1.7H228.4z"/>
<path class="st2" d="M293,349l1.1,7.6h-2.3L293,349z M291.1,361.4l0.4-2.7h2.9l0.4,2.7h2.4l-2.4-15.1h-3.7l-2.4,15.1H291.1z
	 M283.5,348.4v13h2.4v-13h2.5v-2.2H281v2.2H283.5z M276.5,349l1.1,7.6h-2.3L276.5,349z M274.6,361.4l0.4-2.7h2.9l0.4,2.7h2.4
	l-2.4-15.1h-3.7l-2.4,15.1H274.6z M266,361.4v-6.5h2.7v6.5h2.4v-15.1h-2.4v6.5H266v-6.5h-2.4v15.1H266z M254,361.4v-10.7l1.8,10.7
	h2.2l1.6-10.8v10.8h2.4v-15.1h-3.4L257,357l-1.8-10.8H252v15.1H254z M245.6,349.8c0-1,0.4-1.5,1.2-1.5c0.8,0,1.2,0.5,1.2,1.5v8.2
	c0,1-0.4,1.5-1.2,1.5c-0.8,0-1.2-0.5-1.2-1.5V349.8z M244.2,360.6c0.6,0.7,1.5,1,2.7,1c1.2,0,2.1-0.3,2.7-1c0.6-0.7,0.9-1.6,0.9-2.8
	v-7.9c0-1.2-0.3-2.1-0.9-2.8c-0.6-0.7-1.5-1-2.7-1c-1.2,0-2.1,0.3-2.7,1c-0.6,0.7-0.9,1.6-0.9,2.8v7.9
	C243.3,359,243.6,359.9,244.2,360.6 M236.9,361.4v-4.6l0.7-1.4l2.3,6h2.4l-3.3-8.4l3.3-6.7H240l-3.1,6.6v-6.6h-2.4v15.1H236.9z
	 M224.7,350c0-0.5,0.1-0.9,0.3-1.2c0.2-0.2,0.5-0.4,0.9-0.4h1.1v4.7h-0.9c-0.5,0-0.8-0.1-1.1-0.4c-0.2-0.2-0.4-0.7-0.4-1.2V350z
	 M224.5,361.4c0.1-0.2,0.1-0.3,0.1-0.4c0-0.1,0-0.3,0.1-0.5c0-0.2,0-0.6,0-1v-2.4c0-0.7,0.1-1.2,0.4-1.5c0.2-0.3,0.6-0.4,1.2-0.4
	h0.8v6.2h2.4v-15.1h-3.6c-1.2,0-2.1,0.3-2.7,0.9c-0.6,0.6-0.8,1.4-0.8,2.6v1.2c0,1.6,0.5,2.6,1.5,3.1c-0.6,0.2-1,0.6-1.2,1.2
	c-0.2,0.5-0.4,1.2-0.4,2.1v2.3c0,0.8-0.1,1.4-0.2,1.8H224.5z M217.3,349l1.1,7.6h-2.3L217.3,349z M215.5,361.4l0.4-2.7h2.9l0.4,2.7
	h2.4l-2.4-15.1h-3.7l-2.4,15.1H215.5z M203.7,361.4c1.2,0,2.1-0.3,2.6-0.9c0.5-0.6,0.8-1.6,0.9-3l0.3-9.1h2.1v13h2.4v-15.1h-6.8
	l-0.3,11.4c0,0.4,0,0.6-0.1,0.8c0,0.2-0.1,0.4-0.3,0.5c-0.1,0.1-0.3,0.2-0.4,0.2c-0.2,0-0.4,0-0.7,0v2.2H203.7z M197.2,361.4l2-6.9
	l1-3.7v10.6h2.4v-15.1h-2.8l-1.9,6.2l-0.9,3.3v-9.6h-2.1v15.1H197.2z M183.5,361.4l2.2-6.7l0.6,1.2v5.6h2.4v-5.5l0.6-1.1l2.2,6.7
	h2.4l-2.9-9l2.9-6.2h-2.3l-2.8,6.1v-6.1h-2.4v6.1l-2.8-6.1h-2.3l2.9,6.2l-2.9,8.9H183.5z"/>
<path class="st2" d="M346.5,579.6c0.6,0.7,1.5,1,2.7,1c1.2,0,2-0.3,2.6-1c0.6-0.7,0.9-1.6,0.9-2.8v-1.2c0-1.6-0.6-2.7-1.7-3.2
	c1.1-0.5,1.7-1.5,1.7-3.1v-0.4c0-1.2-0.3-2.2-0.9-2.8c-0.6-0.7-1.5-1-2.6-1c-1.2,0-2.1,0.3-2.7,1c-0.6,0.7-1,1.6-1,2.8v0.8h2.4v-1
	c0-1,0.4-1.5,1.2-1.5c0.4,0,0.7,0.1,0.9,0.4c0.2,0.3,0.3,0.7,0.3,1.3v0.8c0,0.6-0.1,1-0.4,1.2c-0.2,0.2-0.6,0.4-1.1,0.4H348v2.2h0.8
	c0.5,0,0.9,0.1,1.2,0.4c0.2,0.3,0.4,0.8,0.4,1.5v1.2c0,0.6-0.1,1.1-0.3,1.3c-0.2,0.3-0.5,0.4-0.9,0.4c-0.8,0-1.2-0.5-1.2-1.5v-1.4
	h-2.4v1.3C345.6,578,345.9,578.9,346.5,579.6 M344.1,578.2h-2.4v2.2h2.4V578.2z M337.7,567.4l-3.5,13h2.4l3.5-13v-2.1H333v2.2H337.7
	z M327.9,568.9v11.5h2.4v-15.1h-1.6c-0.1,0.2-0.2,0.4-0.2,0.6c-0.1,0.2-0.2,0.3-0.3,0.5c-0.1,0.2-0.3,0.3-0.5,0.4
	c-0.2,0.1-0.4,0.2-0.7,0.3c-0.3,0.1-0.6,0.1-0.9,0.1v1.7H327.9z"/>
<path class="st2" d="M392.4,542.1l1.1,7.6h-2.3L392.4,542.1z M390.6,554.5l0.4-2.7h2.9l0.4,2.7h2.4l-2.4-15.1h-3.7l-2.4,15.1H390.6z
	 M382.9,541.5v13h2.4v-13h2.5v-2.2h-7.3v2.2H382.9z M376,542.1l1.1,7.6h-2.3L376,542.1z M374.1,554.5l0.4-2.7h2.9l0.4,2.7h2.4
	l-2.4-15.1h-3.7l-2.4,15.1H374.1z M365.5,554.5V548h2.7v6.5h2.4v-15.1h-2.4v6.5h-2.7v-6.5h-2.4v15.1H365.5z M353.5,554.5v-10.7
	l1.8,10.7h2.2l1.6-10.8v10.8h2.4v-15.1h-3.4l-1.6,10.8l-1.8-10.8h-3.3v15.1H353.5z M345.1,542.9c0-1,0.4-1.5,1.2-1.5
	c0.8,0,1.2,0.5,1.2,1.5v8.2c0,1-0.4,1.5-1.2,1.5c-0.8,0-1.2-0.5-1.2-1.5V542.9z M343.6,553.7c0.6,0.7,1.5,1,2.7,1
	c1.2,0,2.1-0.3,2.7-1c0.6-0.7,0.9-1.6,0.9-2.8V543c0-1.2-0.3-2.1-0.9-2.8c-0.6-0.7-1.5-1-2.7-1c-1.2,0-2.1,0.3-2.7,1
	c-0.6,0.7-0.9,1.6-0.9,2.8v7.9C342.7,552.1,343,553,343.6,553.7 M336.4,554.5v-4.6l0.7-1.4l2.3,6h2.4l-3.3-8.4l3.3-6.7h-2.4
	l-3.1,6.6v-6.6H334v15.1H336.4z M324.2,543.1c0-0.5,0.1-0.9,0.3-1.2c0.2-0.2,0.5-0.4,0.9-0.4h1.1v4.7h-0.9c-0.5,0-0.8-0.1-1.1-0.4
	c-0.2-0.2-0.4-0.7-0.4-1.2V543.1z M323.9,554.5c0.1-0.2,0.1-0.3,0.1-0.4c0-0.1,0-0.3,0.1-0.5c0-0.2,0-0.6,0-1v-2.4
	c0-0.7,0.1-1.2,0.4-1.5c0.2-0.3,0.6-0.4,1.2-0.4h0.8v6.2h2.4v-15.1h-3.6c-1.2,0-2.1,0.3-2.7,0.9c-0.6,0.6-0.8,1.4-0.8,2.6v1.2
	c0,1.6,0.5,2.6,1.5,3.1c-0.6,0.2-1,0.6-1.2,1.2c-0.2,0.5-0.4,1.2-0.4,2.1v2.3c0,0.8-0.1,1.4-0.2,1.8H323.9z M316.8,542.1l1.1,7.6
	h-2.3L316.8,542.1z M314.9,554.5l0.4-2.7h2.9l0.4,2.7h2.4l-2.4-15.1H315l-2.4,15.1H314.9z M303.2,554.5c1.2,0,2.1-0.3,2.6-0.9
	c0.5-0.6,0.8-1.6,0.9-3l0.3-9.1h2.1v13h2.4v-15.1h-6.8l-0.3,11.4c0,0.4,0,0.6-0.1,0.8c0,0.2-0.1,0.4-0.3,0.5
	c-0.1,0.1-0.3,0.2-0.4,0.2c-0.2,0-0.4,0-0.7,0v2.2H303.2z M296.7,554.5l2-6.9l1-3.7v10.6h2.4v-15.1h-2.8l-1.9,6.2l-0.9,3.3v-9.6
	h-2.1v15.1H296.7z M282.9,554.5l2.2-6.7l0.6,1.2v5.6h2.4V549l0.6-1.1l2.2,6.7h2.4l-2.9-9l2.9-6.2h-2.3l-2.8,6.1v-6.1h-2.4v6.1
	l-2.8-6.1h-2.3l2.9,6.2l-2.9,8.9H282.9z"/>
<path class="st2" d="M710.1,557.7c0-1,0.4-1.5,1.2-1.5c0.8,0,1.2,0.5,1.2,1.5v2.7c0,1-0.4,1.5-1.2,1.5c-0.8,0-1.2-0.5-1.2-1.5V557.7
	z M708.7,563.1c0.6,0.7,1.5,1,2.7,1s2-0.3,2.7-1c0.6-0.7,0.9-1.6,0.9-2.8v-2.8c0-1.1-0.2-2-0.7-2.6c-0.4-0.6-1.1-0.9-2-0.9
	c-1,0-1.8,0.4-2.2,1.3v-2.8c0-0.7,0.1-1.2,0.3-1.4c0.2-0.3,0.5-0.4,1-0.4c0.8,0,1.2,0.5,1.2,1.5v0.5h2.2v-0.4c0-1.2-0.3-2.2-0.9-2.8
	c-0.6-0.7-1.5-1-2.6-1c-2.4,0-3.6,1.3-3.6,3.9v7.7C707.8,561.5,708.1,562.4,708.7,563.1 M706.3,561.7h-2.4v2.2h2.4V561.7z
	 M697.6,557.7c0-1,0.4-1.5,1.2-1.5c0.8,0,1.2,0.5,1.2,1.5v2.7c0,1-0.4,1.5-1.2,1.5c-0.8,0-1.2-0.5-1.2-1.5V557.7z M696.1,563.1
	c0.6,0.7,1.5,1,2.7,1c1.2,0,2-0.3,2.7-1c0.6-0.7,0.9-1.6,0.9-2.8v-2.8c0-1.1-0.2-2-0.7-2.6c-0.4-0.6-1.1-0.9-2-0.9
	c-1,0-1.8,0.4-2.2,1.3v-2.8c0-0.7,0.1-1.2,0.3-1.4c0.2-0.3,0.5-0.4,1-0.4c0.8,0,1.2,0.5,1.2,1.5v0.5h2.2v-0.4c0-1.2-0.3-2.2-0.9-2.8
	c-0.6-0.7-1.5-1-2.6-1c-2.4,0-3.6,1.3-3.6,3.9v7.7C695.2,561.5,695.5,562.4,696.1,563.1"/>
<path class="st2" d="M746.2,525.6l1.1,7.6H745L746.2,525.6z M744.3,538l0.4-2.7h2.9l0.4,2.7h2.4l-2.4-15.1h-3.7l-2.4,15.1H744.3z
	 M740.8,538v-15.1h-2.4v13h-2.1v-13H734v13H732v-13h-2.4V538H740.8z M722.8,538l2-6.9l1-3.7V538h2.4v-15.1h-2.8l-1.9,6.2l-0.9,3.3
	v-9.6h-2.1V538H722.8z M713.6,538v-6.5h2.7v6.5h2.4v-15.1h-2.4v6.5h-2.7v-6.5h-2.4V538H713.6z M709.6,529.3h-4.3v2.2h4.3V529.3z
	 M698.9,526.6c0-0.5,0.1-0.9,0.3-1.2c0.2-0.2,0.5-0.4,0.9-0.4h1.1v4.7h-0.9c-0.5,0-0.8-0.1-1.1-0.4c-0.2-0.2-0.4-0.7-0.4-1.2V526.6z
	 M698.7,538c0.1-0.2,0.1-0.3,0.1-0.4c0-0.1,0-0.3,0.1-0.5c0-0.2,0-0.6,0-1v-2.4c0-0.7,0.1-1.2,0.4-1.5c0.2-0.3,0.6-0.4,1.2-0.4h0.8
	v6.2h2.4v-15.1h-3.6c-1.2,0-2.1,0.3-2.7,0.9c-0.6,0.6-0.8,1.4-0.8,2.6v1.2c0,1.6,0.5,2.6,1.5,3.1c-0.6,0.2-1,0.6-1.2,1.2
	c-0.2,0.5-0.4,1.2-0.4,2.1v2.3c0,0.8-0.1,1.4-0.2,1.8H698.7z M689.9,538v-6.5h2.7v6.5h2.4v-15.1h-2.4v6.5h-2.7v-6.5h-2.4V538H689.9z
	 M680,538l1.8-5.6l1.8,5.6h2.4l-2.6-7.7l2.5-7.4h-2.1l-1.8,5.6l-1.8-5.6h-2.4l2.5,7.3l-2.7,7.8H680z M672,534.5l0,0.1
	c-0.1,0.5-0.3,0.9-0.6,1c-0.3,0.2-0.8,0.2-1.5,0.2v2.1c0.6,0,1.2,0,1.7-0.1c0.5-0.1,0.9-0.2,1.2-0.4c0.3-0.2,0.6-0.5,0.8-0.8
	c0.2-0.3,0.4-0.7,0.6-1.1c0.1-0.4,0.3-0.9,0.4-1.5l2.5-11.2h-2.4l-1.1,5.2l-0.6,3.5l-0.7-3.5l-1.3-5.2h-2.4L672,534.5z M662.9,538
	v-4.6l0.7-1.4l2.3,6h2.4l-3.3-8.4l3.3-6.7H666l-3.1,6.6v-6.6h-2.4V538H662.9z"/>
<path class="st2" d="M152.3,576.8c1.2,0,2-0.2,2.6-0.7c0.5-0.5,0.8-1.3,0.8-2.6V565c0-1.2-0.3-2.1-0.8-2.6c-0.5-0.5-1.4-0.8-2.6-0.8
	h-0.7v2.1h0.6c0.4,0,0.7,0.1,0.8,0.3c0.2,0.2,0.3,0.5,0.3,1v8.3c0,0.5-0.1,0.9-0.3,1c-0.2,0.2-0.5,0.3-0.8,0.3h-0.6v2.1H152.3z
	 M145.7,570.6c0-1,0.4-1.5,1.2-1.5c0.8,0,1.2,0.5,1.2,1.5v2.7c0,1-0.4,1.5-1.2,1.5c-0.8,0-1.2-0.5-1.2-1.5V570.6z M144.3,576
	c0.6,0.7,1.5,1,2.7,1c1.2,0,2-0.3,2.7-1c0.6-0.7,0.9-1.6,0.9-2.8v-2.8c0-1.1-0.2-2-0.7-2.6c-0.4-0.6-1.1-0.9-2-0.9
	c-1,0-1.8,0.4-2.2,1.3v-2.8c0-0.7,0.1-1.2,0.3-1.4c0.2-0.3,0.5-0.4,1-0.4c0.8,0,1.2,0.5,1.2,1.5v0.5h2.2v-0.4c0-1.2-0.3-2.2-0.9-2.8
	c-0.6-0.7-1.5-1-2.6-1c-2.4,0-3.6,1.3-3.6,3.9v7.7C143.4,574.4,143.7,575.4,144.3,576 M141.9,574.7h-2.4v2.2h2.4V574.7z
	 M134.3,565.3v11.5h2.4v-15.1H135c-0.1,0.2-0.2,0.4-0.2,0.6c-0.1,0.2-0.2,0.3-0.3,0.5c-0.1,0.2-0.3,0.3-0.5,0.4
	c-0.2,0.1-0.4,0.2-0.7,0.3c-0.3,0.1-0.6,0.1-0.9,0.1v1.7H134.3z M126.5,576.1c0.5,0.5,1.4,0.7,2.6,0.7h0.7v-2.1h-0.6
	c-0.4,0-0.7-0.1-0.8-0.3c-0.2-0.2-0.3-0.5-0.3-1v-8.3c0-0.5,0.1-0.9,0.3-1c0.2-0.2,0.5-0.3,0.8-0.3h0.6v-2.1H129
	c-1.2,0-2.1,0.3-2.6,0.8c-0.5,0.5-0.8,1.4-0.8,2.6v8.5C125.7,574.7,126,575.6,126.5,576.1 M120.5,576.8v-2.2h-4.5c0-0.1,0-0.2,0-0.3
	c0-0.3,0.1-0.7,0.3-1c0.2-0.4,0.4-0.7,0.7-1c0.3-0.3,0.6-0.7,0.9-1c0.3-0.4,0.7-0.8,1-1.2c0.3-0.4,0.6-0.9,0.9-1.3
	c0.3-0.5,0.5-1,0.7-1.6c0.2-0.6,0.3-1.2,0.3-1.9c0-1.2-0.3-2.2-0.9-2.8c-0.6-0.7-1.5-1-2.6-1c-1.1,0-2,0.3-2.6,1
	c-0.6,0.7-0.9,1.6-0.9,2.8v1.5h2.3v-1.6c0-1,0.4-1.5,1.2-1.5c0.4,0,0.7,0.1,0.9,0.4c0.2,0.3,0.3,0.7,0.3,1.3c0,0.6-0.1,1.1-0.3,1.7
	c-0.2,0.5-0.4,1-0.7,1.4c-0.3,0.4-0.6,0.8-0.9,1.1c-0.3,0.4-0.7,0.7-1,1.1c-0.3,0.4-0.6,0.8-0.9,1.2c-0.3,0.4-0.5,0.9-0.7,1.4
	c-0.2,0.5-0.3,1.1-0.3,1.7v1.9H120.5z M112,574.7h-2.4v2.2h2.4V574.7z M101.9,576c0.6,0.7,1.5,1,2.7,1c1.2,0,2-0.3,2.6-1
	c0.6-0.7,0.9-1.6,0.9-2.8V572c0-1.6-0.6-2.7-1.7-3.2c1.1-0.5,1.7-1.5,1.7-3.1v-0.4c0-1.2-0.3-2.2-0.9-2.8c-0.6-0.7-1.5-1-2.6-1
	c-1.2,0-2.1,0.3-2.7,1c-0.6,0.7-1,1.6-1,2.8v0.8h2.4v-1c0-1,0.4-1.5,1.2-1.5c0.4,0,0.7,0.1,0.9,0.4c0.2,0.3,0.3,0.7,0.3,1.3v0.8
	c0,0.6-0.1,1-0.4,1.2c-0.2,0.2-0.6,0.4-1.1,0.4h-0.9v2.2h0.8c0.5,0,0.9,0.1,1.2,0.4c0.2,0.3,0.4,0.8,0.4,1.5v1.2
	c0,0.6-0.1,1.1-0.3,1.3c-0.2,0.3-0.5,0.4-0.9,0.4c-0.8,0-1.2-0.5-1.2-1.5V572H101v1.3C101,574.4,101.3,575.4,101.9,576"/>
<path class="st2" d="M690.7,440.7v-2.2h-4.5c0-0.1,0-0.2,0-0.3c0-0.3,0.1-0.7,0.3-1c0.2-0.4,0.4-0.7,0.7-1c0.3-0.3,0.6-0.7,0.9-1
	c0.3-0.4,0.7-0.8,1-1.2c0.3-0.4,0.6-0.9,0.9-1.3c0.3-0.5,0.5-1,0.7-1.6c0.2-0.6,0.3-1.2,0.3-1.9c0-1.2-0.3-2.2-0.9-2.8
	c-0.6-0.7-1.5-1-2.6-1c-1.1,0-2,0.3-2.6,1c-0.6,0.7-0.9,1.6-0.9,2.8v1.5h2.3v-1.6c0-1,0.4-1.5,1.2-1.5c0.4,0,0.7,0.1,0.9,0.4
	c0.2,0.3,0.3,0.7,0.3,1.3c0,0.6-0.1,1.1-0.3,1.7c-0.2,0.5-0.4,1-0.7,1.4c-0.3,0.4-0.6,0.8-0.9,1.1c-0.3,0.4-0.7,0.7-1,1.1
	c-0.3,0.4-0.6,0.8-0.9,1.2c-0.3,0.4-0.5,0.9-0.7,1.4c-0.2,0.5-0.3,1.1-0.3,1.7v1.9H690.7z M682.2,438.5h-2.4v2.2h2.4V438.5z
	 M678.1,440.7v-2.2h-4.5c0-0.1,0-0.2,0-0.3c0-0.3,0.1-0.7,0.3-1c0.2-0.4,0.4-0.7,0.7-1c0.3-0.3,0.6-0.7,0.9-1c0.3-0.4,0.7-0.8,1-1.2
	c0.3-0.4,0.6-0.9,0.9-1.3c0.3-0.5,0.5-1,0.7-1.6c0.2-0.6,0.3-1.2,0.3-1.9c0-1.2-0.3-2.2-0.9-2.8c-0.6-0.7-1.5-1-2.6-1
	c-1.1,0-2,0.3-2.6,1c-0.6,0.7-0.9,1.6-0.9,2.8v1.5h2.3v-1.6c0-1,0.4-1.5,1.2-1.5c0.4,0,0.7,0.1,0.9,0.4c0.2,0.3,0.3,0.7,0.3,1.3
	c0,0.6-0.1,1.1-0.3,1.7c-0.2,0.5-0.4,1-0.7,1.4c-0.3,0.4-0.6,0.8-0.9,1.1c-0.3,0.4-0.7,0.7-1,1.1c-0.3,0.4-0.6,0.8-0.9,1.2
	c-0.3,0.4-0.5,0.9-0.7,1.4c-0.2,0.5-0.3,1.1-0.3,1.7v1.9H678.1z M669.6,440.7v-2.2h-4.5c0-0.1,0-0.2,0-0.3c0-0.3,0.1-0.7,0.3-1
	c0.2-0.4,0.4-0.7,0.7-1c0.3-0.3,0.6-0.7,0.9-1c0.3-0.4,0.7-0.8,1-1.2c0.3-0.4,0.6-0.9,0.9-1.3c0.3-0.5,0.5-1,0.7-1.6
	c0.2-0.6,0.3-1.2,0.3-1.9c0-1.2-0.3-2.2-0.9-2.8c-0.6-0.7-1.5-1-2.6-1c-1.1,0-2,0.3-2.6,1c-0.6,0.7-0.9,1.6-0.9,2.8v1.5h2.3v-1.6
	c0-1,0.4-1.5,1.2-1.5c0.4,0,0.7,0.1,0.9,0.4c0.2,0.3,0.3,0.7,0.3,1.3c0,0.6-0.1,1.1-0.3,1.7c-0.2,0.5-0.4,1-0.7,1.4
	c-0.3,0.4-0.6,0.8-0.9,1.1c-0.3,0.4-0.7,0.7-1,1.1c-0.3,0.4-0.6,0.8-0.9,1.2c-0.3,0.4-0.5,0.9-0.7,1.4c-0.2,0.5-0.3,1.1-0.3,1.7v1.9
	H669.6z"/>
<path class="st2" d="M730.5,402.4l1.1,7.6h-2.3L730.5,402.4z M728.7,414.8l0.4-2.7h2.9l0.4,2.7h2.4l-2.4-15.1h-3.7l-2.4,15.1H728.7z
	 M721,401.8v13h2.4v-13h2.5v-2.2h-7.3v2.2H721z M714.1,402.4l1.1,7.6h-2.3L714.1,402.4z M712.2,414.8l0.4-2.7h2.9l0.4,2.7h2.4
	l-2.4-15.1h-3.7l-2.4,15.1H712.2z M703.6,414.8v-6.5h2.7v6.5h2.4v-15.1h-2.4v6.5h-2.7v-6.5h-2.4v15.1H703.6z M691.6,414.8v-10.7
	l1.8,10.7h2.2l1.6-10.8v10.8h2.4v-15.1h-3.4l-1.6,10.8l-1.8-10.8h-3.3v15.1H691.6z M683.2,403.2c0-1,0.4-1.5,1.2-1.5
	c0.8,0,1.2,0.5,1.2,1.5v8.2c0,1-0.4,1.5-1.2,1.5c-0.8,0-1.2-0.5-1.2-1.5V403.2z M681.8,414c0.6,0.7,1.5,1,2.7,1c1.2,0,2.1-0.3,2.7-1
	s0.9-1.6,0.9-2.8v-7.9c0-1.2-0.3-2.1-0.9-2.8s-1.5-1-2.7-1c-1.2,0-2.1,0.3-2.7,1c-0.6,0.7-0.9,1.6-0.9,2.8v7.9
	C680.8,412.4,681.1,413.3,681.8,414 M674.5,414.8v-4.6l0.7-1.4l2.3,6h2.4l-3.3-8.4l3.3-6.7h-2.4l-3.1,6.6v-6.6h-2.4v15.1H674.5z
	 M662.3,403.4c0-0.5,0.1-0.9,0.3-1.2c0.2-0.2,0.5-0.4,0.9-0.4h1.1v4.7h-0.9c-0.5,0-0.8-0.1-1.1-0.4c-0.2-0.2-0.4-0.7-0.4-1.2V403.4z
	 M662.1,414.8c0.1-0.2,0.1-0.3,0.1-0.4c0-0.1,0-0.3,0.1-0.5c0-0.2,0-0.6,0-1v-2.4c0-0.7,0.1-1.2,0.4-1.5c0.2-0.3,0.6-0.4,1.2-0.4
	h0.8v6.2h2.4v-15.1h-3.6c-1.2,0-2.1,0.3-2.7,0.9c-0.6,0.6-0.8,1.4-0.8,2.6v1.2c0,1.6,0.5,2.6,1.5,3.1c-0.6,0.2-1,0.6-1.2,1.2
	c-0.2,0.5-0.4,1.2-0.4,2.1v2.3c0,0.8-0.1,1.4-0.2,1.8H662.1z M654.9,402.4l1.1,7.6h-2.3L654.9,402.4z M653.1,414.8l0.4-2.7h2.9
	l0.4,2.7h2.4l-2.4-15.1h-3.7l-2.4,15.1H653.1z M641.3,414.8c1.2,0,2.1-0.3,2.6-0.9c0.5-0.6,0.8-1.6,0.9-3l0.3-9.1h2.1v13h2.4v-15.1
	h-6.8l-0.3,11.4c0,0.4,0,0.6-0.1,0.8c0,0.2-0.1,0.4-0.3,0.5c-0.1,0.1-0.3,0.2-0.4,0.2c-0.2,0-0.4,0-0.7,0v2.2H641.3z M634.8,414.8
	l2-6.9l1-3.7v10.6h2.4v-15.1h-2.8l-1.9,6.2l-0.9,3.3v-9.6h-2.1v15.1H634.8z M621,414.8l2.2-6.7l0.6,1.2v5.6h2.4v-5.5l0.6-1.1
	l2.2,6.7h2.4l-2.9-9l2.9-6.2H629l-2.8,6.1v-6.1h-2.4v6.1l-2.8-6.1h-2.3l2.9,6.2l-2.9,8.9H621z"/>
<ellipse transform="matrix(0.3827 -0.9239 0.9239 0.3827 129.2521 817.9167)" class="st1" cx="676.7" cy="312.2" rx="30.2" ry="30.2"/>
<path class="st2" d="M679.6,324.8c1,1.1,2.6,1.7,4.6,1.7c2,0,3.6-0.6,4.7-1.7c1.1-1.1,1.7-2.8,1.7-4.9v-3.5h-4.1v3.7
	c0,1.7-0.7,2.6-2.1,2.6c-1.4,0-2.1-0.9-2.1-2.6v-14.1c0-1.7,0.7-2.6,2.1-2.6c1.4,0,2.1,0.9,2.1,2.6v2.8h4.1v-2.6
	c0-2.1-0.6-3.7-1.7-4.9c-1.1-1.1-2.7-1.7-4.7-1.7c-2,0-3.5,0.6-4.6,1.7c-1,1.1-1.6,2.8-1.6,4.9V320
	C678,322.1,678.5,323.7,679.6,324.8 M665,324.8c1.1,1.1,2.7,1.7,4.7,1.7c2,0,3.5-0.6,4.6-1.7c1-1.1,1.6-2.8,1.6-4.9v-2.1
	c0-2.8-1-4.7-2.9-5.5c1.9-0.8,2.9-2.6,2.9-5.4v-0.7c0-2.1-0.5-3.7-1.6-4.9c-1-1.1-2.6-1.7-4.6-1.7c-2,0-3.6,0.6-4.7,1.7
	c-1.1,1.1-1.7,2.8-1.7,4.9v1.4h4.1v-1.7c0-1.7,0.7-2.6,2.1-2.6c0.7,0,1.2,0.2,1.6,0.7c0.4,0.4,0.5,1.2,0.5,2.3v1.5
	c0,1-0.2,1.7-0.6,2.1c-0.4,0.4-1,0.6-1.8,0.6h-1.6v3.7h1.4c0.9,0,1.6,0.3,2.1,0.8c0.4,0.5,0.6,1.4,0.6,2.6v2.1
	c0,1.1-0.2,1.9-0.5,2.3c-0.4,0.4-0.9,0.7-1.6,0.7c-1.4,0-2.1-0.9-2.1-2.6v-2.4h-4.1v2.2C663.3,322.1,663.9,323.7,665,324.8"/>
<path class="st2" d="M748.7,758.4c0-1,0.4-1.5,1.2-1.5c0.8,0,1.2,0.5,1.2,1.5v2.7c0,1-0.4,1.5-1.2,1.5c-0.8,0-1.2-0.5-1.2-1.5V758.4
	z M747.3,763.8c0.6,0.7,1.5,1,2.7,1c1.2,0,2-0.3,2.7-1c0.6-0.7,0.9-1.6,0.9-2.8v-2.8c0-1.1-0.2-2-0.7-2.6c-0.4-0.6-1.1-0.9-2-0.9
	c-1,0-1.8,0.4-2.2,1.3v-2.8c0-0.7,0.1-1.2,0.3-1.4c0.2-0.3,0.5-0.4,1-0.4c0.8,0,1.2,0.5,1.2,1.5v0.5h2.2v-0.4c0-1.2-0.3-2.2-0.9-2.8
	c-0.6-0.7-1.5-1-2.6-1c-2.4,0-3.6,1.3-3.6,3.9v7.7C746.4,762.2,746.7,763.1,747.3,763.8 M744.9,762.4h-2.4v2.2h2.4V762.4z
	 M736.2,758.4c0-1,0.4-1.5,1.2-1.5c0.8,0,1.2,0.5,1.2,1.5v2.7c0,1-0.4,1.5-1.2,1.5c-0.8,0-1.2-0.5-1.2-1.5V758.4z M734.7,763.8
	c0.6,0.7,1.5,1,2.7,1c1.2,0,2-0.3,2.7-1s0.9-1.6,0.9-2.8v-2.8c0-1.1-0.2-2-0.7-2.6c-0.4-0.6-1.1-0.9-2-0.9c-1,0-1.8,0.4-2.2,1.3
	v-2.8c0-0.7,0.1-1.2,0.3-1.4c0.2-0.3,0.5-0.4,1-0.4c0.8,0,1.2,0.5,1.2,1.5v0.5h2.2v-0.4c0-1.2-0.3-2.2-0.9-2.8c-0.6-0.7-1.5-1-2.6-1
	c-2.4,0-3.6,1.3-3.6,3.9v7.7C733.8,762.2,734.1,763.1,734.7,763.8"/>
<path class="st2" d="M775.5,731.8c0-0.5,0.1-0.9,0.3-1.2c0.2-0.2,0.5-0.4,0.9-0.4h1.1v4.7h-0.9c-0.5,0-0.8-0.1-1.1-0.4
	c-0.2-0.2-0.4-0.7-0.4-1.2V731.8z M775.2,743.2c0.1-0.2,0.1-0.3,0.1-0.4c0-0.1,0-0.3,0.1-0.5c0-0.2,0-0.6,0-1V739
	c0-0.7,0.1-1.2,0.4-1.5c0.2-0.3,0.6-0.4,1.2-0.4h0.8v6.2h2.4v-15.1h-3.6c-1.2,0-2.1,0.3-2.7,0.9c-0.6,0.6-0.8,1.4-0.8,2.6v1.2
	c0,1.6,0.5,2.6,1.5,3.1c-0.6,0.2-1,0.6-1.2,1.2c-0.2,0.5-0.4,1.2-0.4,2.1v2.3c0,0.8-0.1,1.4-0.2,1.8H775.2z M768.1,730.8l1.1,7.6
	H767L768.1,730.8z M766.2,743.2l0.4-2.7h2.9l0.4,2.7h2.4l-2.4-15.1h-3.7l-2.4,15.1H766.2z M753.1,743.2l2.2-6.7l0.6,1.2v5.6h2.4
	v-5.5l0.6-1.1l2.2,6.7h2.4l-2.9-9l2.9-6.2h-2.3l-2.8,6.1v-6.1h-2.4v6.1l-2.8-6.1h-2.3l2.9,6.2l-2.9,8.9H753.1z M745.1,731.6
	c0-1,0.4-1.5,1.2-1.5c0.8,0,1.2,0.5,1.2,1.5v8.2c0,1-0.4,1.5-1.2,1.5c-0.8,0-1.2-0.5-1.2-1.5V731.6z M743.6,742.4
	c0.6,0.7,1.5,1,2.7,1c1.2,0,2.1-0.3,2.7-1c0.6-0.7,0.9-1.6,0.9-2.8v-7.9c0-1.2-0.3-2.1-0.9-2.8c-0.6-0.7-1.5-1-2.7-1
	c-1.2,0-2.1,0.3-2.7,1c-0.6,0.7-0.9,1.6-0.9,2.8v7.9C742.7,740.8,743,741.7,743.6,742.4 M735.5,743.2l1.8-5.6l1.8,5.6h2.4l-2.6-7.7
	l2.5-7.4h-2.1l-1.8,5.6l-1.8-5.6h-2.4l2.5,7.3l-2.7,7.8H735.5z M726.9,743.2l2-6.9l1-3.7v10.6h2.4v-15.1h-2.8l-1.9,6.2l-0.9,3.3
	v-9.6h-2.1v15.1H726.9z M718.6,730.2h1.1c0.4,0,0.7,0.1,0.9,0.3c0.2,0.2,0.3,0.6,0.3,1.1v2.3c0,0.5-0.1,0.9-0.3,1.1
	c-0.2,0.2-0.5,0.3-0.9,0.3h-1.1V730.2z M718.6,743.2v-5.7h1.1c1.2,0,2.1-0.3,2.6-1c0.6-0.6,0.9-1.6,0.9-2.8v-2
	c0-1.2-0.3-2.1-0.9-2.8c-0.6-0.6-1.5-1-2.6-1h-3.5v15.1H718.6z M709.4,743.2v-13h2.7v13h2.4v-15.1h-7.4v15.1H709.4z"/>
<path class="st2" d="M645.1,717.8c0-0.5,0.1-0.9,0.3-1.1c0.2-0.2,0.5-0.3,0.8-0.3c0.3,0,0.6,0.1,0.8,0.3c0.2,0.2,0.3,0.6,0.3,1.1
	v0.7c0,0.8-0.4,1.3-1.1,1.3c-0.7,0-1.1-0.4-1.1-1.3V717.8z M645.1,722.8c0-0.9,0.4-1.4,1.1-1.4c0.7,0,1.1,0.5,1.1,1.4v1.1
	c0,0.5-0.1,0.9-0.3,1.1c-0.2,0.2-0.4,0.3-0.8,0.3c-0.3,0-0.6-0.1-0.8-0.3c-0.2-0.2-0.3-0.6-0.3-1.1V722.8z M644,726.3
	c0.5,0.5,1.2,0.8,2.2,0.8c1,0,1.7-0.3,2.2-0.8c0.5-0.5,0.8-1.3,0.8-2.2v-1c0-1.2-0.4-2.1-1.2-2.5c0.8-0.4,1.2-1.2,1.2-2.4v-0.4
	c0-1-0.3-1.7-0.8-2.2c-0.5-0.5-1.2-0.8-2.2-0.8c-1,0-1.7,0.3-2.2,0.8c-0.5,0.5-0.8,1.3-0.8,2.2v0.4c0,1.2,0.4,2,1.2,2.4
	c-0.8,0.4-1.2,1.3-1.2,2.5v1C643.2,725,643.5,725.7,644,726.3 M642.2,725.2h-1.9v1.7h1.9V725.2z M636.1,717.7v9.2h1.9v-12.1h-1.3
	c-0.1,0.2-0.1,0.4-0.2,0.5c-0.1,0.1-0.1,0.3-0.2,0.4c-0.1,0.1-0.2,0.3-0.4,0.3c-0.1,0.1-0.3,0.2-0.5,0.2c-0.2,0.1-0.5,0.1-0.7,0.1
	v1.3H636.1z"/>
<path class="st2" d="M647.1,707l0,0.1c-0.1,0.4-0.2,0.7-0.5,0.8c-0.3,0.1-0.7,0.2-1.2,0.2v1.7c0.5,0,1,0,1.3-0.1
	c0.4-0.1,0.7-0.2,1-0.3c0.3-0.2,0.5-0.4,0.7-0.6c0.2-0.3,0.3-0.6,0.5-0.9c0.1-0.3,0.2-0.7,0.3-1.2l2-9h-1.9l-0.9,4.1l-0.4,2.8
	l-0.6-2.8l-1-4.1h-1.9L647.1,707z M639.4,709.8l4.8-12.1h-1.6l-4.8,12.1H639.4z M632.3,709.1c0.5,0.5,1.2,0.8,2.1,0.8
	c0.9,0,1.7-0.3,2.2-0.8c0.5-0.5,0.8-1.3,0.8-2.2v-1.6h-1.9v1.7c0,0.8-0.3,1.2-1,1.2c-0.7,0-1-0.4-1-1.2v-6.5c0-0.8,0.3-1.2,1-1.2
	c0.7,0,1,0.4,1,1.2v1.3h1.9v-1.2c0-1-0.3-1.7-0.8-2.2c-0.5-0.5-1.2-0.8-2.2-0.8c-0.9,0-1.6,0.3-2.1,0.8c-0.5,0.5-0.7,1.3-0.7,2.2
	v6.3C631.6,707.8,631.8,708.6,632.3,709.1"/>
<path class="st2" d="M468.5,433.4l-3.5,13h2.4l3.5-13v-2.1h-7.1v2.2H468.5z M462.3,444.2H460v2.2h2.4V444.2z M455.4,435.8v5.7H453
	L455.4,435.8z M455.4,443.7v2.7h2.4v-2.7h1.1v-2.2h-1.1v-10.2h-2.6l-4.3,10.2v2.2H455.4z"/>
<path class="st2" d="M487.2,412h1.1c0.4,0,0.7,0.1,0.9,0.3c0.2,0.2,0.3,0.6,0.3,1.1v2.3c0,0.5-0.1,0.9-0.3,1.1
	c-0.2,0.2-0.5,0.3-0.9,0.3h-1.1V412z M487.2,425v-5.7h1.1c1.2,0,2.1-0.3,2.6-1c0.6-0.6,0.9-1.6,0.9-2.8v-2c0-1.2-0.3-2.1-0.9-2.8
	c-0.6-0.6-1.5-1-2.6-1h-3.5V425H487.2z M478.5,413.3c0-1,0.4-1.5,1.2-1.5c0.8,0,1.2,0.5,1.2,1.5v8.2c0,1-0.4,1.5-1.2,1.5
	c-0.8,0-1.2-0.5-1.2-1.5V413.3z M477,424.2c0.6,0.7,1.5,1,2.7,1s2.1-0.3,2.7-1c0.6-0.7,0.9-1.6,0.9-2.8v-7.9c0-1.2-0.3-2.1-0.9-2.8
	c-0.6-0.7-1.5-1-2.7-1s-2.1,0.3-2.7,1c-0.6,0.7-0.9,1.6-0.9,2.8v7.9C476.1,422.6,476.4,423.5,477,424.2 M468.9,422.1
	c0.1-0.3,0.2-0.7,0.2-1.3l0.4-8.8h2v10.8h-3.1C468.7,422.6,468.8,422.4,468.9,422.1 M467.6,427v-2h5v2h2.4v-4.2h-1v-13h-6.7l-0.4,11
	c0,0.5-0.1,0.8-0.2,1.1c-0.1,0.3-0.2,0.6-0.4,0.8h-1v4.2H467.6z M459,425l2-6.9l1-3.7V425h2.4v-15.1h-2.8l-1.9,6.2l-0.9,3.3v-9.6
	h-2.1V425H459z M450.8,412h1.1c0.4,0,0.7,0.1,0.9,0.3c0.2,0.2,0.3,0.6,0.3,1.1v2.3c0,0.5-0.1,0.9-0.3,1.1c-0.2,0.2-0.5,0.3-0.9,0.3
	h-1.1V412z M450.8,425v-5.7h1.1c1.2,0,2.1-0.3,2.6-1c0.6-0.6,0.9-1.6,0.9-2.8v-2c0-1.2-0.3-2.1-0.9-2.8c-0.6-0.6-1.5-1-2.6-1h-3.5
	V425H450.8z M442,413.3c0-1,0.4-1.5,1.2-1.5c0.8,0,1.2,0.5,1.2,1.5v8.2c0,1-0.4,1.5-1.2,1.5c-0.8,0-1.2-0.5-1.2-1.5V413.3z
	 M440.6,424.2c0.6,0.7,1.5,1,2.7,1c1.2,0,2.1-0.3,2.7-1s0.9-1.6,0.9-2.8v-7.9c0-1.2-0.3-2.1-0.9-2.8s-1.5-1-2.7-1
	c-1.2,0-2.1,0.3-2.7,1c-0.6,0.7-0.9,1.6-0.9,2.8v7.9C439.7,422.6,440,423.5,440.6,424.2 M433.3,425v-4.6l0.7-1.4l2.3,6h2.4l-3.3-8.4
	l3.3-6.7h-2.4l-3.1,6.6v-6.6h-2.4V425H433.3z"/>
<path class="st2" d="M407.8,355.9l-2.4,9.1h1.7l2.4-9.1v-1.5h-5v1.5H407.8z M403.4,363.5h-1.7v1.5h1.7V363.5z M396.3,364.4
	c0.4,0.5,1.1,0.7,1.9,0.7c0.8,0,1.4-0.2,1.8-0.7c0.4-0.5,0.6-1.1,0.6-2v-0.8c0-1.1-0.4-1.9-1.2-2.2c0.8-0.3,1.2-1,1.2-2.2V357
	c0-0.9-0.2-1.5-0.6-2c-0.4-0.5-1-0.7-1.8-0.7c-0.8,0-1.4,0.2-1.9,0.7c-0.4,0.5-0.7,1.1-0.7,2v0.6h1.7v-0.7c0-0.7,0.3-1,0.9-1
	c0.3,0,0.5,0.1,0.6,0.3c0.1,0.2,0.2,0.5,0.2,0.9v0.6c0,0.4-0.1,0.7-0.2,0.9c-0.2,0.2-0.4,0.3-0.7,0.3h-0.7v1.5h0.6
	c0.4,0,0.7,0.1,0.8,0.3c0.2,0.2,0.3,0.6,0.3,1v0.8c0,0.4-0.1,0.8-0.2,0.9c-0.1,0.2-0.4,0.3-0.6,0.3c-0.6,0-0.9-0.4-0.9-1v-1h-1.7
	v0.9C395.7,363.3,395.9,364,396.3,364.4"/>
<path class="st2" d="M417.3,342c0-0.4,0.1-0.7,0.2-0.8c0.1-0.2,0.4-0.3,0.6-0.3h0.8v3.3h-0.7c-0.3,0-0.6-0.1-0.7-0.3
	c-0.2-0.2-0.2-0.5-0.2-0.9V342z M417.2,350c0-0.1,0.1-0.2,0.1-0.3c0-0.1,0-0.2,0-0.4c0-0.2,0-0.4,0-0.7v-1.7c0-0.5,0.1-0.8,0.3-1
	c0.2-0.2,0.4-0.3,0.8-0.3h0.6v4.3h1.7v-10.6h-2.5c-0.9,0-1.5,0.2-1.9,0.6c-0.4,0.4-0.6,1-0.6,1.8v0.8c0,1.1,0.4,1.8,1.1,2.1
	c-0.4,0.2-0.7,0.4-0.8,0.8c-0.2,0.4-0.3,0.9-0.3,1.4v1.6c0,0.6-0.1,1-0.2,1.3H417.2z M412.2,341.3l0.8,5.3h-1.6L412.2,341.3z
	 M410.9,350l0.3-1.9h2l0.3,1.9h1.7l-1.7-10.6h-2.6l-1.7,10.6H410.9z M404.8,350v-4.5h1.9v4.5h1.7v-10.6h-1.7v4.5h-1.9v-4.5h-1.7V350
	H404.8z M398.4,350v-4.5h1.9v4.5h1.7v-10.6h-1.7v4.5h-1.9v-4.5h-1.7V350H398.4z M393.1,341.3l0.8,5.3h-1.6L393.1,341.3z M391.8,350
	l0.3-1.9h2l0.3,1.9h1.7l-1.7-10.6h-2.6l-1.7,10.6H391.8z M386.1,340.9h0.8c0.3,0,0.5,0.1,0.6,0.3c0.1,0.2,0.2,0.5,0.2,0.8v0.6
	c0,0.4-0.1,0.7-0.3,0.9c-0.2,0.2-0.4,0.3-0.7,0.3h-0.7V340.9z M386.1,345.3h0.7c0.4,0,0.7,0.1,0.8,0.3c0.2,0.2,0.2,0.5,0.2,1v0.9
	c0,0.4-0.1,0.6-0.2,0.8c-0.1,0.2-0.4,0.2-0.6,0.2h-1V345.3z M387.1,350c0.8,0,1.5-0.2,1.9-0.6c0.4-0.4,0.6-1.1,0.6-1.9v-0.9
	c0-1.2-0.4-1.9-1.2-2.3c0.7-0.3,1.1-1,1.1-2.1v-0.4c0-0.8-0.2-1.4-0.6-1.8c-0.4-0.4-1-0.6-1.9-0.6h-2.5V350H387.1z"/>
<path class="st2" d="M518.6,358.4c0-0.7,0.3-1,0.9-1c0.6,0,0.9,0.3,0.9,1v5.7c0,0.7-0.3,1-0.9,1c-0.6,0-0.9-0.3-0.9-1V358.4z
	 M517.6,365.9c0.4,0.5,1.1,0.7,1.9,0.7c0.8,0,1.4-0.2,1.9-0.7c0.4-0.5,0.7-1.1,0.7-2v-5.5c0-0.8-0.2-1.5-0.7-2
	c-0.4-0.5-1.1-0.7-1.9-0.7c-0.8,0-1.4,0.2-1.9,0.7c-0.4,0.5-0.7,1.1-0.7,2v5.5C516.9,364.8,517.1,365.5,517.6,365.9 M515.9,365h-1.7
	v1.5h1.7V365z M513.1,366.5V365h-3.1c0,0,0-0.1,0-0.2c0-0.2,0.1-0.5,0.2-0.7c0.1-0.2,0.3-0.5,0.5-0.7c0.2-0.2,0.4-0.5,0.6-0.7
	c0.2-0.3,0.5-0.5,0.7-0.8c0.2-0.3,0.4-0.6,0.6-0.9c0.2-0.3,0.4-0.7,0.5-1.1c0.1-0.4,0.2-0.8,0.2-1.3c0-0.9-0.2-1.5-0.6-2
	c-0.4-0.5-1-0.7-1.8-0.7c-0.8,0-1.4,0.2-1.8,0.7c-0.4,0.5-0.6,1.1-0.6,2v1h1.6v-1.1c0-0.7,0.3-1,0.9-1c0.3,0,0.5,0.1,0.6,0.3
	c0.1,0.2,0.2,0.5,0.2,0.9c0,0.4-0.1,0.8-0.2,1.2c-0.1,0.4-0.3,0.7-0.5,1c-0.2,0.3-0.4,0.5-0.6,0.8c-0.2,0.3-0.5,0.5-0.7,0.8
	c-0.2,0.3-0.4,0.5-0.6,0.8c-0.2,0.3-0.4,0.6-0.5,1c-0.1,0.4-0.2,0.8-0.2,1.2v1.3H513.1z"/>
<path class="st2" d="M520.2,349.1L520.2,349.1c-0.1,0.5-0.2,0.7-0.5,0.8c-0.2,0.1-0.6,0.2-1,0.1v1.5c0.4,0,0.8,0,1.2,0
	c0.3-0.1,0.6-0.2,0.8-0.3c0.2-0.1,0.4-0.3,0.6-0.6s0.3-0.5,0.4-0.8c0.1-0.3,0.2-0.6,0.3-1l1.8-7.9h-1.7l-0.8,3.6l-0.4,2.4l-0.5-2.5
	l-0.9-3.6h-1.7L520.2,349.1z M513.5,351.5l4.2-10.6h-1.4l-4.2,10.6H513.5z M507.3,351c0.4,0.5,1,0.7,1.9,0.7c0.8,0,1.4-0.2,1.9-0.7
	c0.4-0.5,0.7-1.1,0.7-2v-1.4H510v1.5c0,0.7-0.3,1-0.9,1c-0.6,0-0.9-0.3-0.9-1v-5.7c0-0.7,0.3-1,0.9-1c0.6,0,0.9,0.3,0.9,1v1.1h1.7
	v-1c0-0.9-0.2-1.5-0.7-2c-0.4-0.5-1.1-0.7-1.9-0.7c-0.8,0-1.4,0.2-1.9,0.7c-0.4,0.5-0.6,1.1-0.6,2v5.5
	C506.6,349.8,506.8,350.5,507.3,351"/>
<rect x="467.3" y="343.7" class="st1" width="16.9" height="52.7"/>
<rect x="469.3" y="346.3" class="st1" width="12.9" height="8"/>
<rect x="469.3" y="357.3" class="st1" width="12.9" height="36.5"/>
<path class="st2" d="M700.5,360.8v26.4h5.4v-34.6h-3.7c-0.2,0.6-0.4,1-0.6,1.4c-0.2,0.3-0.4,0.7-0.7,1.2c-0.3,0.4-0.7,0.8-1,1
	c-0.4,0.2-0.9,0.4-1.5,0.6c-0.6,0.2-1.3,0.3-2.1,0.3v3.8H700.5z M689.3,382.1h-5.4v5h5.4V382.1z M680,387.1v-4.9h-10.2
	c0-0.2,0-0.4,0-0.7c0-0.8,0.2-1.5,0.6-2.3c0.4-0.8,0.9-1.6,1.5-2.3c0.6-0.8,1.3-1.5,2.1-2.4c0.8-0.8,1.5-1.7,2.3-2.7
	c0.8-1,1.5-2,2.1-3c0.6-1,1.1-2.2,1.5-3.6c0.4-1.4,0.6-2.8,0.6-4.3c0-2.8-0.7-4.9-2.1-6.4c-1.4-1.5-3.4-2.3-6-2.3
	c-2.6,0-4.6,0.7-6,2.3c-1.4,1.5-2.1,3.6-2.1,6.4v3.4h5.2v-3.7c0-2.3,0.9-3.4,2.8-3.4c0.9,0,1.6,0.3,2.1,0.9c0.5,0.6,0.7,1.6,0.7,3.1
	c0,1.3-0.2,2.6-0.6,3.8c-0.4,1.2-0.9,2.2-1.5,3.1c-0.6,0.9-1.3,1.8-2.1,2.6c-0.8,0.9-1.5,1.7-2.3,2.6c-0.8,0.9-1.5,1.7-2.1,2.6
	c-0.6,0.9-1.2,2-1.5,3.2c-0.4,1.2-0.6,2.5-0.6,3.9v4.2H680z M649.5,361.1c0-1.4,0.3-2.5,0.8-3.1c0.5-0.6,1.3-0.9,2.3-0.9
	c1,0,1.7,0.3,2.2,0.9c0.5,0.6,0.8,1.6,0.8,3.1v1.9c0,2.4-1,3.6-3,3.6c-2,0-3.1-1.2-3.1-3.6V361.1z M649.5,375.5c0-2.6,1-3.9,3.1-3.9
	c2,0,3,1.3,3,3.9v3.2c0,1.4-0.3,2.5-0.8,3c-0.5,0.6-1.3,0.9-2.2,0.9c-1,0-1.7-0.3-2.3-0.9c-0.5-0.6-0.8-1.6-0.8-3V375.5z
	 M646.3,385.2c1.5,1.5,3.6,2.3,6.3,2.3c2.7,0,4.8-0.8,6.3-2.3c1.5-1.5,2.2-3.6,2.2-6.4v-2.7c0-3.5-1.1-5.9-3.4-7.2
	c2.2-1.3,3.4-3.6,3.4-6.9v-1.1c0-2.8-0.7-4.9-2.2-6.4c-1.5-1.5-3.6-2.3-6.3-2.3c-2.7,0-4.8,0.8-6.3,2.3c-1.5,1.5-2.2,3.6-2.2,6.4
	v1.1c0,3.4,1.1,5.7,3.4,6.9c-2.2,1.3-3.4,3.7-3.4,7.2v2.7C644.1,381.6,644.8,383.7,646.3,385.2"/>
<rect x="816.2" y="229.4" class="st2" width="85.8" height="7.6"/>
<rect x="817.2" y="229.4" class="st1" width="85.8" height="7.6"/>
<rect x="895.4" y="229.4" class="st2" width="7.6" height="43.7"/>
<rect x="895.4" y="229.4" class="st1" width="7.6" height="43.7"/>
<rect x="895.4" y="272" class="st1" width="7.6" height="189.8"/>
<rect x="815.7" y="461.6" class="st2" width="87.3" height="13"/>
<path class="st2" d="M881.9,364.3c1.1,0,1.9-0.2,2.4-0.7c0.5-0.5,0.7-1.3,0.7-2.4v-7.9c0-1.1-0.2-1.9-0.7-2.4
	c-0.5-0.5-1.3-0.7-2.4-0.7h-0.7v1.9h0.5c0.4,0,0.6,0.1,0.8,0.3c0.2,0.2,0.2,0.5,0.2,1v7.7c0,0.5-0.1,0.8-0.2,1
	c-0.2,0.2-0.4,0.3-0.8,0.3h-0.5v1.9H881.9z M880.1,364.3v-2H876c0-0.1,0-0.2,0-0.3c0-0.3,0.1-0.6,0.2-1c0.2-0.3,0.4-0.6,0.6-0.9
	c0.3-0.3,0.5-0.6,0.9-1c0.3-0.3,0.6-0.7,0.9-1.1c0.3-0.4,0.6-0.8,0.8-1.2c0.3-0.4,0.5-0.9,0.6-1.5c0.2-0.6,0.2-1.1,0.2-1.7
	c0-1.1-0.3-2-0.8-2.6c-0.6-0.6-1.4-0.9-2.4-0.9c-1.1,0-1.9,0.3-2.5,0.9c-0.6,0.6-0.8,1.5-0.8,2.6v1.4h2.1v-1.5
	c0-0.9,0.4-1.4,1.1-1.4c0.4,0,0.7,0.1,0.8,0.4c0.2,0.2,0.3,0.7,0.3,1.3c0,0.5-0.1,1.1-0.2,1.5c-0.2,0.5-0.4,0.9-0.6,1.3
	c-0.3,0.4-0.5,0.7-0.9,1.1c-0.3,0.3-0.6,0.7-0.9,1c-0.3,0.3-0.6,0.7-0.9,1.1c-0.3,0.4-0.5,0.8-0.6,1.3c-0.2,0.5-0.2,1-0.2,1.6v1.7
	H880.1z M872.2,362.3H870v2h2.2V362.3z M868.5,364.3v-2h-4.2c0-0.1,0-0.2,0-0.3c0-0.3,0.1-0.6,0.2-1c0.2-0.3,0.4-0.6,0.6-0.9
	c0.3-0.3,0.5-0.6,0.9-1c0.3-0.3,0.6-0.7,0.9-1.1c0.3-0.4,0.6-0.8,0.8-1.2c0.3-0.4,0.5-0.9,0.6-1.5c0.2-0.6,0.2-1.1,0.2-1.7
	c0-1.1-0.3-2-0.8-2.6c-0.6-0.6-1.4-0.9-2.4-0.9c-1.1,0-1.9,0.3-2.5,0.9c-0.6,0.6-0.8,1.5-0.8,2.6v1.4h2.1v-1.5
	c0-0.9,0.4-1.4,1.1-1.4c0.4,0,0.7,0.1,0.8,0.4c0.2,0.2,0.3,0.7,0.3,1.3c0,0.5-0.1,1.1-0.2,1.5c-0.2,0.5-0.4,0.9-0.6,1.3
	s-0.5,0.7-0.9,1.1c-0.3,0.3-0.6,0.7-0.9,1c-0.3,0.3-0.6,0.7-0.9,1.1c-0.3,0.4-0.5,0.8-0.6,1.3c-0.2,0.5-0.2,1-0.2,1.6v1.7H868.5z
	 M857.9,363.6c0.5,0.5,1.3,0.7,2.4,0.7h0.7v-1.9h-0.5c-0.4,0-0.6-0.1-0.8-0.3c-0.2-0.2-0.2-0.5-0.2-1v-7.7c0-0.5,0.1-0.8,0.2-1
	c0.2-0.2,0.4-0.3,0.8-0.3h0.5v-1.9h-0.7c-1.1,0-1.9,0.2-2.4,0.7c-0.5,0.5-0.7,1.3-0.7,2.4v7.9C857.2,362.4,857.4,363.2,857.9,363.6
	 M849.7,354.5v5.3h-2.2L849.7,354.5z M849.7,361.8v2.5h2.2v-2.5h1v-2h-1v-9.5h-2.4l-4,9.5v2H849.7z M844.5,362.3h-2.2v2h2.2V362.3z
	 M838.1,354.5v5.3h-2.2L838.1,354.5z M838.1,361.8v2.5h2.2v-2.5h1v-2h-1v-9.5h-2.4l-4,9.5v2H838.1z"/>
</svg>
