<svg xmlns="http://www.w3.org/2000/svg" xml:space="preserve" id="Слой_1" x="0" y="0" style="enable-background:new 0 0 1000 1000" version="1.1" viewBox="0 0 1000 1000"><style>.st1{fill:#373437}.st2,.st3{fill:none;stroke:#373437;stroke-width:.6}.st3{stroke-width:.75}.st4{fill:#fff}.st5{stroke-width:.244}.st5,.st6,.st7,.st8{fill:none;stroke:#373437}.st6{stroke-width:.605;stroke-miterlimit:3.9999}.st7{stroke-width:.403}.st8{stroke-width:.605;stroke-miterlimit:4.0002}</style><path d="M199.9 261.6h633.9v435.9H199.9z" style="fill:#f3dfec"/><path d="M559.6 251.9H579v32.2h-19.4z" class="st1"/><path d="M559.6 251.9H579v32.2h-19.4z" class="st2"/><path d="M566.7 265h106.4v19.1H566.7z" class="st1"/><path d="M566.7 265h106.4v19.1H566.7z" class="st2"/><path d="M651.9 260.3h21.2v19.1h-21.2z" class="st1"/><path d="M651.9 260.3h21.2v19.1h-21.2z" class="st2"/><path d="M651.9 241h50v22h-50z" class="st1"/><path d="M651.9 241h50v22h-50z" class="st2"/><path d="M774.1 241h79.2v22h-79.2z" class="st1"/><path d="M697 698.5h156.3v49.6H697z" class="st2"/><path d="M697 718.7h156.3v7.2H697zm-427.9-20.2h223.2v49.6H269.1z" class="st2"/><path d="M269.1 718.7h223.2v7.2H269.1z" class="st2"/><path d="M758.1 698.6h95.2v49.6h-95.2z" class="st1"/><path d="M831.2 250.1h22v458.8h-22z" class="st1"/><path d="M831.2 250.1h22v458.8h-22z" class="st2"/><path d="M455.1 698.6h177.1v49.6H455.1z" class="st1"/><path d="M455.1 698.6h177.1v49.6H455.1z" class="st2"/><path d="M183.1 698.6h112.4v49.6H183.1zm497.1-322.8h165.6v10.5H680.2z" class="st1"/><path d="M680.2 375.8h165.6v10.5H680.2z" class="st2"/><path d="M561.3 375.8h56.3v10.5h-56.3z" class="st1"/><path d="M561.3 375.8h56.3v10.5h-56.3z" class="st2"/><path d="M578.5 386.5h22v89h-22z" class="st1"/><path d="M578.5 386.5h22v89h-22z" class="st2"/><path d="M578.5 421.9h10.1v283.4h-10.1z" class="st1"/><path d="M578.5 421.9h10.1v283.4h-10.1z" class="st2"/><path d="M342.4 375.8h157.4v10.5H342.4z" class="st1"/><path d="M429 361.7h10.5v19.1H429z" class="st1"/><path d="M429 361.7h10.5v19.1H429z" class="st2"/><path d="M429 255.6h10.5v56.3H429z" class="st1"/><path d="M429 255.6h10.5v56.3H429z" class="st2"/><path d="M183.1 250.1h21.6v473h-21.6z" class="st1"/><path d="M183.1 250.1h21.6v473h-21.6z" class="st3"/><path d="M183.1 409.5h230.8V420H183.1z" class="st1"/><path d="M183.1 409.5h230.8V420H183.1z" class="st3"/><path d="M183.1 241.2H579v19.4H183.1z" class="st1"/><path d="M183.1 241.2H579v19.4H183.1z" class="st3"/><path d="M342.4 382h111.5v38H342.4z" class="st1"/><path d="M393.7 387.3h9.5v21.3h-9.5zm23.3-.1h27.2v21.4H417z" class="st4"/><path d="M790.9 746.1h13.3v90.4h-13.3z" class="st1"/><path d="M790.9 746.1h13.3v90.4h-13.3z" class="st2"/><path d="M750.9 825H804v11.6h-53.1z" class="st1"/><path d="M750.9 825H804v11.6h-53.1z" class="st2"/><path d="M752.7 825H531.4V718.1h-11.6v118.5h232.9z" class="st2"/><path d="M599.5 252h11.4v19.3h-11.4z" class="st1"/><path d="M599.5 252h11.4v19.3h-11.4zm-23.5 0h95.5M576 241.2h95.5" class="st2"/><path d="M373.4 328.3c-8.6 0-15.6-7-15.6-15.6V290c0-1.5 1.2-2.7 2.7-2.7h25.9c1.5 0 2.7 1.2 2.7 2.7v22.6c0 8.6-7.1 15.7-15.7 15.7m13-42.1h-25.9c-2.1 0-3.8 1.7-3.8 3.8v22.6c0 9.2 7.5 16.7 16.7 16.7s16.7-7.5 16.7-16.7V290c0-2.1-1.7-3.8-3.7-3.8" class="st1"/><path d="M373.4 328.3c-8.6 0-15.6-7-15.6-15.6V290c0-1.5 1.2-2.7 2.7-2.7h25.9c1.5 0 2.7 1.2 2.7 2.7v22.6c0 8.6-7.1 15.7-15.7 15.7zm13-42.1h-25.9c-2.1 0-3.8 1.7-3.8 3.8v22.6c0 9.2 7.5 16.7 16.7 16.7s16.7-7.5 16.7-16.7V290c0-2.1-1.7-3.8-3.7-3.8z" class="st3"/><path d="M362.2 294.8h22.4c.1 0 .3.1.3.3v17.1c0 6.3-5.2 11.5-11.5 11.5s-11.5-5.2-11.5-11.5v-17.1c.1-.1.2-.3.3-.3z" class="st3"/><path d="M362.5 295.4h21.9v16.8c0 6-4.9 10.9-10.9 10.9s-10.9-4.9-10.9-10.9v-16.8h-.1zm22.1-1.1h-22.4c-.4 0-.8.4-.8.8v17.1c0 6.6 5.4 12 12 12s12-5.4 12-12v-17.1c0-.4-.3-.8-.8-.8" class="st1"/><path d="M362.5 295.4h21.9v16.8c0 6-4.9 10.9-10.9 10.9s-10.9-4.9-10.9-10.9v-16.8h-.1zm22.1-1.1h-22.4c-.4 0-.8.4-.8.8v17.1c0 6.6 5.4 12 12 12s12-5.4 12-12v-17.1c0-.4-.3-.8-.8-.8z" class="st3"/><path d="M373.4 312.2c-1.6 0-3-1.3-3-3s1.3-3 3-3c1.6 0 3 1.3 3 3s-1.3 3-3 3m0-7c-2.2 0-4 1.8-4 4s1.8 4 4 4 4-1.8 4-4c.1-2.2-1.7-4-4-4" class="st1"/><path d="M373.4 312.2c-1.6 0-3-1.3-3-3s1.3-3 3-3c1.6 0 3 1.3 3 3s-1.3 3-3 3zm0-7c-2.2 0-4 1.8-4 4s1.8 4 4 4 4-1.8 4-4c.1-2.2-1.7-4-4-4z" class="st3"/><path d="m364.7 297-.9.7 5.4 7.1.9-.6z" class="st1"/><path d="m364.7 297-.9.7 5.4 7.1.9-.6z" class="st3"/><path d="m382 297-5.4 7.2.9.6 5.3-7.1z" class="st1"/><path d="m382 297-5.4 7.2.9.6 5.3-7.1z" class="st3"/><path d="M362.6 286.2c-2.4 0-4.3-1.9-4.3-4.3V276c0-2.4 1.9-4.3 4.3-4.3h21.6c2.4 0 4.3 1.9 4.3 4.3v5.9c0 2.4-1.9 4.3-4.3 4.3h-21.6zm21.6-15.7h-21.6c-3 0-5.4 2.4-5.4 5.4v5.9c0 3 2.4 5.4 5.4 5.4h21.6c3 0 5.4-2.4 5.4-5.4V276c0-3-2.4-5.5-5.4-5.5" class="st1"/><path d="M362.6 286.2c-2.4 0-4.3-1.9-4.3-4.3V276c0-2.4 1.9-4.3 4.3-4.3h21.6c2.4 0 4.3 1.9 4.3 4.3v5.9c0 2.4-1.9 4.3-4.3 4.3h-21.6zm21.6-15.7h-21.6c-3 0-5.4 2.4-5.4 5.4v5.9c0 3 2.4 5.4 5.4 5.4h21.6c3 0 5.4-2.4 5.4-5.4V276c0-3-2.4-5.5-5.4-5.5z" class="st3"/><path d="M373.4 280.6c-.9 0-1.7-.8-1.7-1.7 0-.9.8-1.7 1.7-1.7.9 0 1.7.8 1.7 1.7 0 .9-.7 1.7-1.7 1.7m0-4.4c-1.5 0-2.7 1.2-2.7 2.7s1.2 2.7 2.7 2.7 2.7-1.2 2.7-2.7-1.2-2.7-2.7-2.7" class="st1"/><path d="M373.4 280.6c-.9 0-1.7-.8-1.7-1.7 0-.9.8-1.7 1.7-1.7.9 0 1.7.8 1.7 1.7 0 .9-.7 1.7-1.7 1.7zm0-4.4c-1.5 0-2.7 1.2-2.7 2.7s1.2 2.7 2.7 2.7 2.7-1.2 2.7-2.7-1.2-2.7-2.7-2.7zM224.2 399.8c-9.7 0-17.6-7.9-17.6-17.6v-97.4c0-9.7 7.9-17.6 17.6-17.6h20.3c9.7 0 17.6 7.9 17.6 17.6v97.4c0 9.7-7.9 17.6-17.6 17.6h-20.3z" class="st3"/><path d="M229.4 390.6c-9.7 0-17.6-7.9-17.6-17.6v-79c0-9.7 7.9-17.6 17.6-17.6h9.9c9.7 0 17.6 7.9 17.6 17.6v79c0 9.7-7.9 17.6-17.6 17.6h-9.9z" class="st3"/><path d="M225.6 379.4c-4.9 0-8.8-3.9-8.8-8.8v-80.3c0-4.9 3.9-8.8 8.8-8.8h17.5c4.9 0 8.8 3.9 8.8 8.8v80.3c0 4.9-3.9 8.8-8.8 8.8h-17.5z" class="st3"/><path d="M234.3 291.5c1.3 0 2.4 1.1 2.4 2.4s-1.1 2.4-2.4 2.4c-1.3 0-2.4-1.1-2.4-2.4 0-1.4 1.1-2.4 2.4-2.4zm30.9 117.1v-147" class="st3"/><path d="M299.8 298.6c9.1 0 16.6-7.4 16.6-16.6v-17.6c0-1.4-1.1-2.5-2.5-2.5h-37.4c-1.4 0-2.5 1.1-2.5 2.5V282c0 9.1 7.4 16.6 16.6 16.6h9.2zM276.4 261h37.4c1.9 0 3.5 1.5 3.5 3.4V282c0 9.6-7.8 17.5-17.5 17.5h-9.3c-9.6 0-17.5-7.9-17.5-17.5v-17.6c-.1-1.8 1.5-3.4 3.4-3.4" class="st1"/><path d="M299.8 298.6c9.1 0 16.6-7.4 16.6-16.6v-17.6c0-1.4-1.1-2.5-2.5-2.5h-37.4c-1.4 0-2.5 1.1-2.5 2.5V282c0 9.1 7.4 16.6 16.6 16.6h9.2zM276.4 261h37.4c1.9 0 3.5 1.5 3.5 3.4V282c0 9.6-7.8 17.5-17.5 17.5h-9.3c-9.6 0-17.5-7.9-17.5-17.5v-17.6c-.1-1.8 1.5-3.4 3.4-3.4z" class="st3"/><path d="M299.8 294.5c6.8 0 12.4-5.6 12.4-12.4v-10.2c0-1.2-1-2.2-2.2-2.2h-29.8c-1.2 0-2.2 1-2.2 2.2v10.2c0 6.8 5.6 12.4 12.4 12.4h9.4zm-19.6-25.8H310c1.7 0 3.1 1.4 3.1 3.1V282c0 7.4-6 13.3-13.3 13.3h-9.3c-7.4 0-13.3-6-13.3-13.3v-10.2c-.1-1.7 1.3-3.1 3-3.1" class="st1"/><path d="M299.8 294.5c6.8 0 12.4-5.6 12.4-12.4v-10.2c0-1.2-1-2.2-2.2-2.2h-29.8c-1.2 0-2.2 1-2.2 2.2v10.2c0 6.8 5.6 12.4 12.4 12.4h9.4zm-19.6-25.8H310c1.7 0 3.1 1.4 3.1 3.1V282c0 7.4-6 13.3-13.3 13.3h-9.3c-7.4 0-13.3-6-13.3-13.3v-10.2c-.1-1.7 1.3-3.1 3-3.1z" class="st3"/><path d="M295.1 285.8c1.1 0 2.1-.9 2.1-2.1s-.9-2.1-2.1-2.1c-1.1 0-2.1.9-2.1 2.1s1 2.1 2.1 2.1m0-5.1c1.6 0 3 1.3 3 3 0 1.6-1.3 3-3 3-1.6 0-3-1.3-3-3 0-1.6 1.4-3 3-3" class="st1"/><path d="M295.1 285.8c1.1 0 2.1-.9 2.1-2.1s-.9-2.1-2.1-2.1c-1.1 0-2.1.9-2.1 2.1s1 2.1 2.1 2.1zm0-5.1c1.6 0 3 1.3 3 3 0 1.6-1.3 3-3 3-1.6 0-3-1.3-3-3 0-1.6 1.4-3 3-3zm-21.6 77.2h49.6v49.6h-49.6z" class="st3"/><path d="M207.7 422.5h49.6v49.6h-49.6v-49.6zm50.7-1.1h-51.8v51.8h51.8v-51.8z" class="st1"/><path d="M207.7 422.5h49.6v49.6h-49.6v-49.6zm50.7-1.1h-51.8v51.8h51.8v-51.8z" class="st3"/><path d="M215.1 467.6c-1.2 0-2.2-1-2.2-2.2v-26.1c0-1.2 1-2.2 2.2-2.2h34.8c1.2 0 2.2 1 2.2 2.2v26.1c0 1.2-1 2.2-2.2 2.2h-34.8zm34.8-31.7h-34.8c-1.8 0-3.3 1.5-3.3 3.3v26.1c0 1.8 1.5 3.3 3.3 3.3h34.8c1.8 0 3.3-1.5 3.3-3.3v-26.1c0-1.8-1.5-3.3-3.3-3.3" class="st1"/><path d="M215.1 467.6c-1.2 0-2.2-1-2.2-2.2v-26.1c0-1.2 1-2.2 2.2-2.2h34.8c1.2 0 2.2 1 2.2 2.2v26.1c0 1.2-1 2.2-2.2 2.2h-34.8zm34.8-31.7h-34.8c-1.8 0-3.3 1.5-3.3 3.3v26.1c0 1.8 1.5 3.3 3.3 3.3h34.8c1.8 0 3.3-1.5 3.3-3.3v-26.1c0-1.8-1.5-3.3-3.3-3.3z" class="st5"/><path d="M216.7 440.9h31.5v22.8h-31.5v-22.8zm32.6-1.1h-33.7v25h33.7v-25z" class="st1"/><path d="M216.7 440.9h31.5v22.8h-31.5v-22.8zm32.6-1.1h-33.7v25h33.7v-25z" class="st5"/><path d="M232.5 456.7c-1.6 0-2.9-1.3-2.9-2.9s1.3-2.9 2.9-2.9c1.6 0 2.9 1.3 2.9 2.9 0 1.6-1.3 2.9-2.9 2.9m0-6.8c-2.2 0-4 1.8-4 4s1.8 4 4 4 4-1.8 4-4-1.8-4-4-4" class="st1"/><path d="M232.5 456.7c-1.6 0-2.9-1.3-2.9-2.9s1.3-2.9 2.9-2.9c1.6 0 2.9 1.3 2.9 2.9 0 1.6-1.3 2.9-2.9 2.9zm0-6.8c-2.2 0-4 1.8-4 4s1.8 4 4 4 4-1.8 4-4-1.8-4-4-4z" class="st5"/><path stroke-width=".605" d="m622.66 730.321 62.751-37.295 1.482 2.492-62.751 37.296z" class="st6"/><path d="M687.2 695.9s3.2 2.9 6.6 14.9c3.1 10.7 2.5 20.6 2.5 20.6" class="st7"/><path stroke-width=".605" d="m700.262 243.831 62.75-37.295 1.482 2.493-62.75 37.295z" class="st6"/><path d="M764.8 209.4s3.2 2.9 6.6 14.9c3.1 10.7 2.5 20.6 2.5 20.6" class="st7"/><path stroke-width=".605" d="m606.566 385.171 1.481-2.493 62.758 37.296-1.481 2.493z" class="st8"/><path d="M671 419.6s3.2-2.9 6.6-14.9c3.1-10.7 2.5-20.6 2.5-20.6" class="st7"/><path stroke-width=".605" d="m508.323 419.971 62.758-37.295 1.481 2.493-62.758 37.295z" class="st8"/><path d="M508 419.6s-3.2-2.9-6.6-14.9c-3.1-10.7-2.5-20.6-2.5-20.6" class="st7"/><path stroke-width=".605" d="m433.75 366.126 26.976-45.386 2.493 1.481-26.976 45.387z" class="st6"/><path d="M460.4 320.4s-2.9-3.2-14.9-6.6c-10.7-3.1-17.4-2.2-17.4-2.2" class="st7"/><path d="M449.5 630.9h-1.8c-1.2 0-1.4-.3-1.4-1.5 0-.9.2-1.1 1.4-1.1h1.8v2.6zm-4.8 1.6c-.7.1-2 .3-2.3 1.3l-1 3.9h4.6l.8-3.3c.1-.6.4-.7 1.1-.7h1.6v4h4.4v-12.4c-1.5-.2-2.8-.2-6.2-.2-4.5 0-5.6.9-5.6 4 0 1.5.6 2.9 2.7 3.3v.1h-.1zm-13.1.9c0-.6.3-.9 1-1h2.6v1.5c-.8.5-1.7.8-2.4.8-.8 0-1.2-.3-1.2-1v-.3zm-3.3-4.8c2.1-.1 4-.2 5.3-.2s1.7.4 1.7 1.4v.3h-4.1c-2.4 0-3.9 1.2-3.9 3.1v1.2c0 2.3 1.9 3.5 4.1 3.5 2.1 0 3.5-1.1 4.4-2.1l.4 1.8h3.6v-7.8c0-3.7-1.8-4.8-5.1-4.8-1.8 0-4.9.3-6.7.6l.3 3zm-10.7 6.4v-2.5h2.1c1.2 0 1.7.3 1.7 1.2 0 1-.4 1.2-1.6 1.2l-2.2.1zm0-4.8v-2.1h1.9c1.2 0 1.6.2 1.6 1s-.3 1.1-1.5 1.1h-2zm5 1.1c2-.2 2.7-1 2.7-2.8 0-2.6-1.4-3.3-5.5-3.3-2.8 0-4.5 0-6.4.2v12.3c2.1.1 3.9.1 7.1.1 3.7 0 5.3-.7 5.3-3.2 0-1.9-.8-3-3.2-3.3zm-17.9-3.1c1.5 0 1.9.6 1.9 3.3s-.4 3.3-1.9 3.3-1.9-.6-1.9-3.3c-.1-2.7.3-3.3 1.9-3.3m0-3.2c-4.8 0-6.6 1.8-6.6 6.5s1.8 6.4 6.6 6.4 6.6-1.7 6.6-6.4-1.8-6.5-6.6-6.5m-8.8.4h-7.4c-2.1 0-3.2 1.1-3.4 3.2-.2 2.3-.4 4-.6 4.8-.3 1-1 1-2.1 1.1l.4 3.3c2.7.4 5.1-.2 5.6-3.2.2-1.2.5-3.3.7-5.2.1-.7.4-1 1.2-1h1.1v9.3h4.5v-12.3zm-21 2.8c1.5 0 1.9.6 1.9 3.3s-.4 3.3-1.9 3.3-1.9-.6-1.9-3.3.4-3.3 1.9-3.3m0-3.2c-4.8 0-6.6 1.8-6.6 6.5s1.8 6.4 6.6 6.4 6.6-1.7 6.6-6.4-1.8-6.5-6.6-6.5m-7.8 3.8v-3.4h-12.3v3.4h3.9v8.9h4.5v-8.9h3.9zm-13.6 5.4c-1.5.2-3.1.2-3.9.2-1.9 0-2.5-.6-2.5-2.9s.6-2.9 2.5-2.9h3.6l.5-2.8c-1.4-.6-3.5-.8-4.9-.8-4.7 0-6.4 1.7-6.4 6.5s1.7 6.5 6.4 6.5c1.8 0 3.7-.2 5.1-.9l-.4-2.9zm85.8-33.9H432v2.7h7.3v-2.7zm-14.1 1h-1.8c-1.2 0-1.4-.3-1.4-1.5 0-.9.2-1.1 1.4-1.1h1.8v2.6zm-4.9 1.5c-.7.1-2 .3-2.3 1.3l-1 3.9h4.6l.8-3.3c.1-.6.4-.7 1.1-.7h1.6v4h4.4v-12.4c-1.5-.2-2.8-.2-6.2-.2-4.5 0-5.6.9-5.6 4 0 1.5.6 2.9 2.6 3.4zm-5.1-7.1h-4.4v4.3H407v-4.3h-4.4V608h4.4v-5h3.8v5h4.4v-12.3zM396.7 608h4.5l-3.7-6.3 3.4-6h-4.5l-2.4 4.6-2.4-4.6h-4.5l3.4 6-3.7 6.3h4.5l2.7-4.9 2.7 4.9zm-10-12.3h-4.8l-1.8 7.3c-.1.6-.3 1.4-.5 2.1h-.2l-.3-2.1-1.9-7.3h-4.8l3.8 11.2c.2.6.7 1.1 1.4 1.1h.8c-.3.6-.8 1.2-1.3 1.5-.8.4-1.9.6-3.4.5l-.4 2.9c1.8.3 3.6.3 5.1-.2 1.9-.7 3.3-1.9 4.2-4.8l4.1-12.2zm-20.2 3.3c3.4-.4 3.5-2 5.4-8.1h-4.7c-1.3 5.1-1.7 6.7-4.1 6.7h-.8c.1-.7.2-1.4.2-2.1V591h-4.6v17h4.6v-5.7c0-.5-.1-1-.2-1.6h.9c2.4 0 2.6 1.1 4.3 7.3h4.8c-2.1-7-2.3-8.3-5.8-8.8v-.2z" class="st1"/><circle cx="398.4" cy="484" r="36.7" style="fill:none;stroke:#373437;stroke-width:.805;stroke-miterlimit:4.0002"/><path d="m407 486.5 7.3 13.4h9.4l-7.7-13.2c-.7-1.2-2-2.4-2.9-2.9v-.1c.9-.5 1.8-1.4 2.5-2.7l7.6-12.3H414l-7.2 12.2h-2.1c.3-1.3.4-2.6.4-3.9v-8.3h-8.5V500h8.5v-10.5c0-.9-.1-1.9-.4-2.9h2.3v-.1zm-16.7 13.4v-31.3h-8.5l-7.9 3.1 1 5.4 7.3-1.6c-.3 1.3-.3 2.5-.3 3.7v20.7h8.4zm302.8 278.3c2.7 1.2 3.7 4.7 3.7 9.9 0 5.1-1 8.7-3.7 9.9l.5 1.9c5.2-1.5 7.5-5.2 7.5-11.8 0-6.7-2.3-10.4-7.5-11.8l-.5 1.9zm-7 14.5c-2 0-2.2-.6-2.2-4.4.8-.5 1.4-.6 2.2-.6 1.6 0 2 .4 2 2.3 0 2-.1 2.7-2 2.7m5.2-13.8c-1.8-.5-3.5-.5-4.4-.5-4.9 0-7.4 1.2-7.4 9 0 6.9 1.5 8.7 6.6 8.7 5.2 0 6.4-2 6.4-6.3 0-3.8-1.1-5.3-5-5.3-1.5 0-2.6.2-3.5 1 .1-3.2.7-3.8 2.9-3.8h4.2l.2-2.8zm-16.6 12.7c-1.2 0-1.6.4-1.6 1.6v1.1c0 1.2.4 1.6 1.6 1.6h1.1c1.2 0 1.6-.4 1.6-1.6v-1.1c0-1.2-.4-1.6-1.6-1.6h-1.1zm-4.6 4.2v-17.1h-4.6l-4.3 1.7.5 2.9 4-.9c-.1.7-.2 1.4-.2 2v11.3l4.6.1zm-9.5-19.5c-5.2 1.5-7.5 5.2-7.5 11.8s2.3 10.3 7.5 11.8l.5-1.9c-2.7-1.3-3.7-4.8-3.7-9.9 0-5.2 1-8.7 3.7-9.9l-.5-1.9zM645 795.8v-17.1h-4.6l-4.3 1.7.5 2.9 4-.9c-.2.7-.2 1.4-.2 2v11.3l4.6.1zm-11.7-4.2c-1.2 0-1.6.4-1.6 1.6v1.1c0 1.2.4 1.6 1.6 1.6h1.1c1.2 0 1.6-.4 1.6-1.6v-1.1c0-1.2-.4-1.6-1.6-1.6h-1.1zm-15.4-9.5c1.3 0 3-.1 4.7-.1s2.2.2 2.2 1.6c0 1.2-.2 1.9-2 1.9h-3.3v3h3.3c1.8 0 2.2.5 2.2 2 0 1.7-.6 2.1-2.8 2.1-1.5 0-2.6 0-4.7-.2l-.1 3.3c1.9.3 4.1.5 6.1.5 4.5 0 6.2-1.5 6.1-5.1 0-2.6-.8-3.9-3.2-4.3v-.1c2.2-.3 2.7-1.9 2.7-4.3 0-3-1.6-4-5.8-4-1.9 0-3.8.1-5.7.5l.3 3.2zm98.8-214.7c2.3-.1 3.6-.1 5.3-.1 1.3 0 1.9.1 1.9.8 0 1-1.1 2.5-3 4.5l-3.8 4c-.5.5-.6 1.1-.6 1.9v2.4h12.7v-4h-4.9c-.8 0-1.6 0-2.4.2l4.2-4.1c2.2-2.4 2.7-3.5 2.7-5.3 0-3.3-2.4-4.1-6-4.1-1.9 0-3.6.1-6.1.6v3.2zm-5 9.2c-1.2 0-1.6.4-1.6 1.6v1.1c0 1.2.4 1.6 1.6 1.6h1.1c1.2 0 1.6-.4 1.6-1.6v-1.1c0-1.2-.4-1.6-1.6-1.6h-1.1zm-4.6 4.2v-17.1h-4.6l-4.3 1.7.5 2.9 4-.9c-.2.7-.2 1.4-.2 2v11.3l4.6.1zm-11.1 0v-17.1h-4.6l-4.3 1.7.5 2.9 4-.9c-.2.7-.2 1.4-.2 2v11.3l4.6.1zm56.1-34c0-.6.3-.9 1-1h2.6v1.5c-.8.5-1.7.8-2.4.8-.8 0-1.2-.3-1.2-1v-.3zm-3.3-4.8c2.1-.1 4-.2 5.3-.2s1.7.4 1.7 1.4v.3h-4.1c-2.4 0-3.9 1.2-3.9 3.1v1.2c0 2.3 1.9 3.5 4.1 3.5 2.1 0 3.5-1.1 4.4-2.1l.4 1.8h3.6v-7.8c0-3.7-1.8-4.8-5.1-4.8-1.8 0-4.9.3-6.7.6l.3 3zm-2 .2v-3.4h-12.3v3.4h3.9v8.9h4.5v-8.9h3.9zm-22 4.6c0-.6.3-.9 1-1h2.6v1.5c-.8.5-1.7.8-2.4.8-.8 0-1.2-.3-1.2-1v-.3zm-3.4-4.8c2.1-.1 4-.2 5.3-.2s1.7.4 1.7 1.4v.3h-4.1c-2.4 0-3.9 1.2-3.9 3.1v1.2c0 2.3 1.9 3.5 4.1 3.5 2.1 0 3.5-1.1 4.4-2.1l.4 1.8h3.6v-7.8c0-3.7-1.8-4.8-5.1-4.8-1.8 0-4.9.3-6.7.6l.3 3zm-3.1-3.2h-4.4v4.3h-3.8v-4.3h-4.4v12.3h4.4v-5h3.8v5h4.4v-12.3zm-20.7 0c-.9 0-1.5.5-1.7 1.4l-1.1 4.6-.3 1.8h-.2c-.1-.6-.1-1.2-.2-1.8l-1.1-4.6c-.2-.9-.7-1.4-1.7-1.4h-3.8c-1 0-1.5.5-1.6 1.5l-.3 10.8h4.1l.2-9h.3l1.5 6c.2.9.8 1.4 1.7 1.4h2c1 0 1.5-.4 1.7-1.4l1.5-6h.3l.3 9h4.1l-.3-10.8c0-1-.5-1.5-1.5-1.5h-3.9zm-20.5 2.8c1.5 0 1.9.6 1.9 3.3s-.4 3.3-1.9 3.3-1.9-.6-1.9-3.3c0-2.7.4-3.3 1.9-3.3m0-3.2c-4.8 0-6.6 1.8-6.6 6.5s1.8 6.4 6.6 6.4 6.6-1.7 6.6-6.4-1.8-6.5-6.6-6.5m-12.3 6.2c2.9-.4 2.7-.7 4.3-5.8h-4.5c-1.1 4.1-1.1 4.5-2.9 4.5h-.5c.1-.5.2-1.1.2-1.6v-2.9h-4.5v12.3h4.5v-3.9c0-.3 0-.6-.1-1h1c1.3 0 1.4.3 2.7 4.9h4.7c-1.7-5.8-1.8-5.9-4.7-6.3v-.2h-.2zm79.3-29.9h-1.8c-1.2 0-1.4-.3-1.4-1.5 0-.9.2-1.1 1.4-1.1h1.8v2.6zm-4.8 1.5c-.7.1-2 .3-2.3 1.3l-1 3.9h4.6l.8-3.3c.1-.6.4-.7 1.1-.7h1.6v4h4.4V509c-1.5-.2-2.8-.2-6.2-.2-4.5 0-5.6.9-5.6 4-.1 1.5.5 2.9 2.6 3.4zm-13.1.9c0-.6.3-.9 1-1h2.6v1.5c-.8.5-1.7.8-2.4.8-.8 0-1.2-.3-1.2-1v-.3zm-3.4-4.8c2.1-.1 4-.2 5.3-.2s1.7.4 1.7 1.4v.3h-4.1c-2.4 0-3.9 1.2-3.9 3.1v1.2c0 2.3 1.9 3.5 4.1 3.5 2.1 0 3.5-1.1 4.4-2.1l.4 1.8h3.6v-7.8c0-3.7-1.8-4.8-5.1-4.8-1.8 0-4.9.3-6.7.6l.3 3zm-3.1-3.2h-7.4c-2.1 0-3.2 1.1-3.4 3.2-.2 2.3-.4 4-.6 4.8-.3 1-1 1-2.1 1.1l.4 3.3c2.7.4 5.1-.2 5.6-3.2.3-1.2.5-3.3.7-5.2.1-.7.4-1 1.2-1h1.1v9.3h4.5v-12.3zm-15 12.3v-12.3h-3.9l-3.9 5.9c-.4.6-.7 1.1-.9 1.8h-.1c.1-.7.2-1.3.2-1.9v-5.8h-4v12.3h3.9l3.8-5.6c.3-.5.8-1.4 1-2.1h.1c-.1.8-.2 1.5-.2 2.2v5.5h4zm-20-9c3.3-.4 3.4-2 5.2-8.1h-4.7c-1.5 5.1-1.8 6.7-3.5 6.7h-.8c.1-.7.2-1.4.2-2.1v-4.5h-4.4v4.5c0 .7.1 1.4.2 2.1h-.9c-1.6 0-2-1.5-3.5-6.7h-4.7c1.8 6.1 1.9 7.6 5.2 8.1v.1c-3.4.5-3.7 1.8-5.7 8.8h4.9c1.9-6.2 2.1-7.3 3.8-7.3h.9c-.1.5-.2 1.1-.2 1.6v5.7h4.4v-5.7c0-.5-.1-1-.2-1.6h.8c1.7 0 1.9 1.1 3.8 7.3h4.9c-2-7-2.2-8.3-5.7-8.9zm-36.9-174.8h4.8c1.7 0 2.2.2 2.2 1.6 0 1.2-.2 1.9-2 1.9h-3.3v3h3.3c1.8 0 2.2.5 2.2 2 0 1.7-.6 2.1-2.8 2.1-1.5 0-2.6 0-4.7-.2l-.2 3.3c1.9.3 4.1.5 6.1.5 4.5 0 6.2-1.5 6.1-5.1 0-2.6-.8-3.9-3.2-4.3v-.1c2.2-.3 2.7-1.9 2.7-4.3 0-3-1.6-4-5.8-4-1.9 0-3.8.1-5.7.5l.3 3.1zm-5 9.5c-1.2 0-1.6.4-1.6 1.6v1.1c0 1.2.4 1.6 1.6 1.6h1.1c1.2 0 1.6-.4 1.6-1.6v-1.1c0-1.2-.4-1.6-1.6-1.6h-1.1zm-9.7 1.2c-2 0-2.2-.6-2.2-4.4.8-.5 1.4-.6 2.2-.6 1.6 0 2 .4 2 2.3s-.1 2.7-2 2.7m5.2-13.8c-1.8-.5-3.5-.5-4.4-.5-4.9 0-7.4 1.2-7.4 9 0 6.9 1.5 8.7 6.6 8.7 5.2 0 6.4-2 6.4-6.3 0-3.8-1.1-5.3-5-5.3-1.5 0-2.6.2-3.5 1 .1-3.2.7-3.8 2.9-3.8h4.2l.2-2.8zm49.2-21.3c.8-.5 1.4-.8 2.3-.8 1.1 0 1.6.5 1.6 3.3s-.5 3.2-1.8 3.2c-.9 0-1.5-.2-2.2-.4v-5.3h.1zm-.9-3.8H683v16.9h4.5v-2.7c0-.9 0-1.8-.1-2.7 1.1.8 2.5 1.1 3.9 1.1 3.1 0 4.7-1.4 4.7-6.3 0-4.2-1.2-6.6-4.4-6.6-2 0-3.8.9-4.7 2l-.3-1.7zm-12.3 2.8c1.5 0 1.9.6 1.9 3.3 0 2.7-.4 3.3-1.9 3.3s-1.9-.6-1.9-3.3c0-2.7.3-3.3 1.9-3.3m0-3.2c-4.8 0-6.6 1.8-6.6 6.5s1.8 6.4 6.6 6.4 6.6-1.7 6.6-6.4-1.8-6.5-6.6-6.5m-14.1 9.7h-3.6c.6-1.4 1.1-3.1 1.4-5.4.1-.7.5-1 1.1-1h1.1v6.4zm6.2 0h-2.1v-9.3h-6.8c-2.2 0-3.3 1-3.6 3-.3 2.1-.7 4.2-1.5 6.3h-1.5v6.4h3l.3-3.4h8.8l.3 3.4h3l.1-6.4zm-17.1 3v-12.3h-3.9l-3.9 5.9c-.4.6-.7 1.1-.9 1.8h-.1c.1-.7.2-1.3.2-1.9v-5.8h-4v12.3h3.9l3.8-5.6c.3-.5.8-1.4 1-2.1h.1c-.1.8-.2 1.5-.2 2.2v5.5h4zm-23.3-8.5c.8-.5 1.4-.8 2.3-.8 1.1 0 1.6.5 1.6 3.3s-.5 3.2-1.8 3.2c-.9 0-1.5-.2-2.2-.4v-5.3h.1zm-.9-3.8h-3.6v16.9h4.5v-2.7c0-.9 0-1.8-.1-2.7 1.1.8 2.5 1.1 3.9 1.1 3.1 0 4.7-1.4 4.7-6.3 0-4.2-1.2-6.6-4.4-6.6-2 0-3.8.9-4.7 2l-.3-1.7zm-12.4 2.8c1.5 0 1.9.6 1.9 3.3 0 2.7-.4 3.3-1.9 3.3s-1.9-.6-1.9-3.3c0-2.7.4-3.3 1.9-3.3m0-3.2c-4.8 0-6.6 1.8-6.6 6.5s1.8 6.4 6.6 6.4 6.6-1.7 6.6-6.4-1.7-6.5-6.6-6.5m-13.3 3.7c3.4-.4 3.5-2 5.4-8.1H600c-1.3 5.1-1.7 6.7-4.1 6.7h-.8c.1-.7.2-1.4.2-2.1v-4.5h-4.6v17.1h4.6V316c0-.5-.1-1-.2-1.6h.9c2.4 0 2.6 1.1 4.3 7.3h4.8c-2.1-7-2.3-8.3-5.8-8.8l.1-.2z" class="st1"/><path d="M375 387.2h9.5v21.3H375zm-18.8.1h9.5v21.3h-9.5z" class="st4"/><path d="M392.6 347.7h-2.1v-7.4h-3.6l-.8 2.8v4.6h-3.5c-.4 0-.7-.3-.5-.7l3.9-10.1h-4.5l-4.4 11.3c-.6 1.4.4 2.8 1.9 2.8h7.2v3.8h4.4V351h.1l2.1-.5v-2.8zm-20.1 2.6c-1.2 0-1.6.4-1.6 1.6v1.1c0 1.2.4 1.6 1.6 1.6h1.1c1.2 0 1.6-.4 1.6-1.6v-1c0-1.2-.4-1.6-1.6-1.6h-1.1zm-3.3-2.6h-2.1v-7.4h-3.6l-.8 2.8v4.6h-3.5c-.4 0-.7-.3-.5-.7l3.9-10.1h-4.5l-4.4 11.3c-.6 1.4.4 2.8 1.9 2.8h7.2v3.8h4.4V351h.1l2.1-.5v-2.8zm68.8 206c4.2 0 5.1.9 5.1 4.9 0 3.8-.9 4.7-5.1 4.7-4.3 0-5.3-.9-5.3-4.7 0-3.9 1-4.9 5.3-4.9m0-15.3c3.8 0 4.7.8 4.7 4.6 0 3.3-.7 4.2-4.6 4.2-3.9 0-4.8-.8-4.8-4.2 0-3.8.9-4.6 4.7-4.6m-8.2 12.1c-5.4.5-6.8 5.1-6.8 10.1 0 7.4 3.1 10.3 14.9 10.2 12-.1 14.9-2.9 14.9-10.2 0-5.1-1.3-9.6-6.7-10.1v-.2c4.1-.4 5.8-4.6 5.8-8.7 0-7.1-2.4-10.2-13.9-10.2-11.4 0-13.9 3.1-13.9 10.2 0 4.1 1.6 8.2 5.8 8.7v.2zm-17.3 10.2c-2.6 0-3.5.8-3.5 3.5v2.4c0 2.6.8 3.5 3.5 3.5h2.4c2.6 0 3.5-.8 3.5-3.5v-2.4c0-2.6-.8-3.5-3.5-3.5h-2.4zm-27.1-15.5c-.1-4.5.4-6.3 4.3-6.3 4.3 0 4.7 1.5 4.8 9.8-1.8 1-3 1.4-4.8 1.4-3.5.1-4.4-1-4.3-4.9m-8.1 24.4c4.4 1.1 8.5 1.1 10.5 1.1 12.1 0 16.5-2.9 16.5-20 0-15.3-2.5-19.2-14.5-19.2-11 0-14.2 4.2-14.1 13.9 0 6.9 2.4 11.7 10.9 11.7 3.4 0 5.7-.5 7.8-2.3-.3 6.5-1.6 8.3-6.6 8.3-4.9 0-6.7 0-10-.1l-.5 6.6zm-31.9-30c2.8-.1 6.6-.1 10.5-.1 3.8 0 4.9.5 4.9 3.6.1 2.6-.3 4.1-4.4 4.1h-7.2v6.6l7.2-.1c4.1-.1 4.9 1.2 4.9 4.4 0 3.8-1.4 4.6-6.3 4.6-3.3 0-5.7-.1-10.5-.3l-.3 7.4c4.3.6 9.1 1 13.6 1 10 0 13.7-3.3 13.6-11.3-.1-5.8-1.7-8.7-7-9.5v-.2c4.9-.8 6-4.1 6-9.6 0-6.8-3.5-8.8-12.8-8.8-4.2 0-8.4.3-12.7 1l.5 7.2zm60 112h3.9c1.4 0 1.8.2 1.8 1.3 0 1-.1 1.5-1.6 1.5h-2.7v2.4h2.7c1.5 0 1.8.4 1.8 1.6 0 1.4-.5 1.7-2.3 1.7-1.2 0-2.1 0-3.9-.1l-.1 2.7c1.6.2 3.3.4 5 .4 3.7 0 5.1-1.2 5-4.2 0-2.1-.6-3.2-2.6-3.5v-.1c1.8-.3 2.2-1.5 2.2-3.5 0-2.5-1.3-3.3-4.7-3.3-1.5 0-3.1.1-4.7.4l.2 2.7zm-4.1 7.7c-1 0-1.3.3-1.3 1.3v.9c0 1 .3 1.3 1.3 1.3h.9c1 0 1.3-.3 1.3-1.3v-.9c0-1-.3-1.3-1.3-1.3h-.9zm-7.9 1c-1.6 0-1.8-.5-1.8-3.6.7-.4 1.1-.5 1.8-.5 1.3 0 1.6.3 1.6 1.8 0 1.6-.1 2.3-1.6 2.3m4.2-11.3c-1.4-.4-2.9-.4-3.6-.4-4 0-6.1 1-6.1 7.4 0 5.7 1.3 7.1 5.4 7.1 4.3 0 5.2-1.6 5.2-5.1 0-3.1-.9-4.3-4.1-4.3-1.2 0-2.1.2-2.9.8.1-2.6.6-3.1 2.4-3.1h3.4l.3-2.4zm-12.1 13.8v-14h-3.8l-3.5 1.4.4 2.4 3.2-.7c-.1.6-.1 1.1-.1 1.7v9.2h3.8z" class="st1"/></svg>