<svg xmlns="http://www.w3.org/2000/svg" xml:space="preserve" id="Слой_1" x="0" y="0" style="enable-background:new 0 0 1000 1000" version="1.1" viewBox="0 0 1000 1000"><style>.st0{fill:#dfeab4}.st1{fill:#373437}.st2{fill:none;stroke:#373437;stroke-width:.6}.st3{fill:#fff}.st5{stroke-width:.244}.st5,.st6,.st7,.st8{fill:none;stroke:#373437}.st6{stroke-width:.595}.st7{stroke-width:.605}.st8{stroke-width:.403}</style><path d="M321.8 239.8H491v601.8H321.8z" class="st0"/><path d="M354.2 239.8h351.6v303.6H354.2z" class="st0"/><path d="M331.4 561.2h22.2v43.1h-22.2z" class="st1"/><path d="M331.4 561.2h22.2v43.1h-22.2z" class="st2"/><path d="M331.4 567.7h6.7v43.1h-6.7z" class="st1"/><path d="M331.4 567.7h6.7v43.1h-6.7z" class="st2"/><path d="M317.5 601.9h14.4v8.9h-14.4z" class="st1"/><path d="M317.5 601.9h14.4v8.9h-14.4z" class="st2"/><path d="M686.8 141.6h32.3v99.3h-32.3z" class="st1"/><path d="M657.3 206.5h51.9v34.4h-51.9z" class="st1"/><path d="M657.3 206.5h51.9v34.4h-51.9z" class="st2"/><path d="M464.7 206.5h89.7v34.4h-89.7z" class="st1"/><path d="M464.7 206.5h89.7v34.4h-89.7z" class="st2"/><path d="M290 206.5h92.7v34.4H290z" class="st1"/><path d="M290 206.5h92.7v34.4H290z" class="st2"/><path d="M290 141.6h8v79.2h-8z" class="st1"/><path d="M290 141.6h8v79.2h-8z" class="st2"/><path d="M293.5 141.6h39.3v8h-39.3z" class="st1"/><path d="M293.5 141.6h39.3v8h-39.3z" class="st2"/><path d="M652.4 141.6h39.3v8h-39.3z" class="st1"/><path d="M652.4 141.6h39.3v8h-39.3z" class="st2"/><path d="M487.4 239.2h15.1v67.2h-15.1z" class="st1"/><path d="M487.4 239.2h15.1v67.2h-15.1z" class="st2"/><path d="M487.4 413.6h15.1v60h-15.1z" class="st1"/><path d="M487.4 413.6h15.1v60h-15.1z" class="st2"/><path d="M479.1 467.2h34.4v6.4h-34.4z" class="st1"/><path d="M479.1 467.2h34.4v6.4h-34.4z" class="st2"/><path d="M556.2 467.2h23.1v6.4h-23.1z" class="st1"/><path d="M556.2 467.2h23.1v6.4h-23.1z" class="st2"/><path d="M572.9 439.9h140.4v6.4H572.9z" class="st1"/><path d="M572.9 439.9h140.4v6.4H572.9z" class="st2"/><path d="M572.9 439.9h6.4v33h-6.4z" class="st1"/><path d="M572.9 439.9h6.4v33h-6.4z" class="st2"/><path d="M423.5 467.2h14.3v6.4h-14.3z" class="st1"/><path d="M423.5 467.2h14.3v6.4h-14.3z" class="st2"/><path d="M495.6 275h6.9v157.6h-6.9z" class="st1"/><path d="M495.6 275h6.9v157.6h-6.9zm-168-133.4h328.5v8H327.6z" class="st2"/><path d="M706.4 141.6h12.7v342.9h-12.7z" class="st1"/><path d="M706.4 141.6h12.7v342.9h-12.7z" class="st2"/><path d="M706.4 531.1h12.7v22.2h-12.7z" class="st1"/><path d="M706.4 531.1h12.7v22.2h-12.7zM358.2 842.2h145.5v32.3H358.2z" class="st2"/><path d="M358.2 855.4h145.5v4.7H358.2zm0-648.9h65.5v34.4h-65.5z" class="st2"/><path d="M358.2 220.5h65.5v5h-65.5zm191.9-14h65.5v34.4h-65.5z" class="st2"/><path d="M550.1 220.5h65.5v5h-65.5z" class="st2"/><path d="M464.4 842.2h37.8v32.3h-37.8zm-174.4 0h91.9v32.3H290z" class="st1"/><path d="M290 842.2h91.9v32.3H290z" class="st2"/><path d="M488.1 549.9h14.1v308.3h-14.1z" class="st1"/><path d="M488.1 549.9h14.1v308.3h-14.1z" class="st2"/><path d="M290 206.9h32v651.3h-32z" class="st1"/><path d="M290 206.9h32v651.3h-32z" class="st2"/><path d="M314.3 611.1h65.3v14.1h-65.3z" class="st1"/><path d="M314.3 611.1h65.3v14.1h-65.3z" class="st2"/><path d="M331 618.8h105.4v6.4H331z" class="st1"/><path d="M331 618.8h105.4v6.4H331z" class="st2"/><path d="M481.2 618.8h13.4v6.4h-13.4z" class="st1"/><path d="M481.2 618.8h13.4v6.4h-13.4z" class="st2"/><path d="M421.4 602.9h6.4v17h-6.4z" class="st1"/><path d="M421.4 602.9h6.4v17h-6.4z" class="st2"/><path d="M421.4 516.1h6.4v52.8h-6.4z" class="st1"/><path d="M421.4 516.1h6.4v52.8h-6.4z" class="st2"/><path d="M421.4 446.5h6.4v35.7h-6.4z" class="st1"/><path d="M421.4 446.5h6.4v35.7h-6.4z" class="st2"/><path d="M310.2 446.5h115.4v6.4H310.2z" class="st1"/><path d="M310.2 446.5h115.4v6.4H310.2z" class="st2"/><path d="M310.2 450.4h68.7v10.4h-68.7z" class="st1"/><path d="M310.2 450.4h68.7v10.4h-68.7z" class="st2"/><path d="M310.2 554.2h112.5v7.2H310.2z" class="st1"/><path d="M310.2 554.2h112.5v7.2H310.2z" class="st2"/><path d="M488.1 544.1h231v14.3h-231z" class="st1"/><path d="M488.1 544.1h231v14.3h-231z" class="st2"/><path d="M337.7 587.6h9.2v9.2h-9.2zm0-13.8h9.2v9.2h-9.2zm0-13.8h9.2v9.2h-9.2z" class="st3"/><path d="M322.3 624.5h23.3V671h-23.3z" class="st1"/><path d="M322.3 624.5h23.3V671h-23.3z" style="fill:none;stroke:#373437;stroke-width:.512"/><path d="M326.7 630.3h12.9v8.7h-12.9zm0 15.1h12.9v20.3h-12.9z" class="st3"/><path d="M395.3 586.4c0 5.6-4.6 10.2-10.2 10.2h-14.7c-1 0-1.8-.8-1.8-1.8V578c0-1 .8-1.8 1.8-1.8h14.7c5.7 0 10.2 4.6 10.2 10.2M368 578v16.9c0 1.4 1.1 2.5 2.5 2.5h14.7c6 0 10.9-4.9 10.9-10.9s-4.9-10.9-10.9-10.9h-14.7c-1.4-.1-2.5 1-2.5 2.4" class="st1"/><path d="M395.3 586.4c0 5.6-4.6 10.2-10.2 10.2h-14.7c-1 0-1.8-.8-1.8-1.8V578c0-1 .8-1.8 1.8-1.8h14.7c5.7 0 10.2 4.6 10.2 10.2zM368 578v16.9c0 1.4 1.1 2.5 2.5 2.5h14.7c6 0 10.9-4.9 10.9-10.9s-4.9-10.9-10.9-10.9h-14.7c-1.4-.1-2.5 1-2.5 2.4z" class="st5"/><path d="M373.6 593.7v-14.6c0-.1.1-.2.2-.2h11.1c4.1 0 7.5 3.4 7.5 7.5s-3.4 7.5-7.5 7.5h-11.1c-.1 0-.2-.1-.2-.2z" class="st5"/><path d="M373.9 593.5v-14.3h10.9c3.9 0 7.1 3.2 7.1 7.1 0 3.9-3.2 7.1-7.1 7.1h-10.9zm-.7-14.4v14.6c0 .3.2.5.5.5h11.1c4.3 0 7.8-3.5 7.8-7.8s-3.5-7.8-7.8-7.8h-11.1c-.2 0-.5.2-.5.5" class="st1"/><path d="M373.9 593.5v-14.3h10.9c3.9 0 7.1 3.2 7.1 7.1 0 3.9-3.2 7.1-7.1 7.1h-10.9zm-.7-14.4v14.6c0 .3.2.5.5.5h11.1c4.3 0 7.8-3.5 7.8-7.8s-3.5-7.8-7.8-7.8h-11.1c-.2 0-.5.2-.5.5z" class="st5"/><path d="M384.9 586.4c0 1.1-.9 1.9-1.9 1.9-1.1 0-1.9-.9-1.9-1.9 0-1.1.9-1.9 1.9-1.9 1 0 1.9.9 1.9 1.9m-4.6 0c0 1.4 1.2 2.6 2.6 2.6 1.4 0 2.6-1.2 2.6-2.6 0-1.4-1.2-2.6-2.6-2.6-1.4 0-2.6 1.2-2.6 2.6" class="st1"/><path d="M384.9 586.4c0 1.1-.9 1.9-1.9 1.9-1.1 0-1.9-.9-1.9-1.9 0-1.1.9-1.9 1.9-1.9 1 0 1.9.9 1.9 1.9zm-4.6 0c0 1.4 1.2 2.6 2.6 2.6 1.4 0 2.6-1.2 2.6-2.6 0-1.4-1.2-2.6-2.6-2.6-1.4 0-2.6 1.2-2.6 2.6z" class="st5"/><path d="m375 592.1.4.6 4.7-3.5-.4-.6z" class="st1"/><path d="m375 592.1.4.6 4.7-3.5-.4-.6z" class="st5"/><path d="m375 580.8 4.7 3.5.4-.5-4.7-3.5z" class="st1"/><path d="m375 580.8 4.7 3.5.4-.5-4.7-3.5z" class="st5"/><path d="M367.9 593.4c0 1.6-1.3 2.8-2.8 2.8h-3.8c-1.6 0-2.8-1.3-2.8-2.8v-14.1c0-1.6 1.3-2.8 2.8-2.8h3.8c1.6 0 2.8 1.3 2.8 2.8v14.1zm-10.2-14v14.1c0 1.9 1.6 3.5 3.5 3.5h3.8c1.9 0 3.5-1.6 3.5-3.5v-14.1c0-1.9-1.6-3.5-3.5-3.5h-3.8c-1.9 0-3.5 1.5-3.5 3.5" class="st1"/><path d="M367.9 593.4c0 1.6-1.3 2.8-2.8 2.8h-3.8c-1.6 0-2.8-1.3-2.8-2.8v-14.1c0-1.6 1.3-2.8 2.8-2.8h3.8c1.6 0 2.8 1.3 2.8 2.8v14.1zm-10.2-14v14.1c0 1.9 1.6 3.5 3.5 3.5h3.8c1.9 0 3.5-1.6 3.5-3.5v-14.1c0-1.9-1.6-3.5-3.5-3.5h-3.8c-1.9 0-3.5 1.5-3.5 3.5z" class="st5"/><path d="M364.3 586.4c0 .6-.5 1.1-1.1 1.1-.6 0-1.1-.5-1.1-1.1 0-.6.5-1.1 1.1-1.1.6 0 1.1.5 1.1 1.1m-2.9 0c0 1 .8 1.8 1.8 1.8s1.8-.8 1.8-1.8-.8-1.8-1.8-1.8-1.8.8-1.8 1.8" class="st1"/><path d="M364.3 586.4c0 .6-.5 1.1-1.1 1.1-.6 0-1.1-.5-1.1-1.1 0-.6.5-1.1 1.1-1.1.6 0 1.1.5 1.1 1.1zm-2.9 0c0 1 .8 1.8 1.8 1.8s1.8-.8 1.8-1.8-.8-1.8-1.8-1.8-1.8.8-1.8 1.8z" class="st5"/><path d="M334.7 464.4c-6.3 0-11.5 5.1-11.5 11.5v63.5c0 6.3 5.1 11.5 11.5 11.5h13.2c6.3 0 11.5-5.1 11.5-11.5v-63.5c0-6.3-5.1-11.5-11.5-11.5h-13.2z" class="st6"/><path d="M338.1 470.4c-6.3 0-11.5 5.1-11.5 11.5v51.5c0 6.3 5.1 11.5 11.5 11.5h6.5c6.3 0 11.5-5.1 11.5-11.5v-51.5c0-6.3-5.1-11.5-11.5-11.5h-6.5z" class="st6"/><path d="M335.6 477.7c-3.2 0-5.7 2.6-5.7 5.7v52.3c0 3.2 2.6 5.7 5.7 5.7H347c3.2 0 5.7-2.6 5.7-5.7v-52.3c0-3.2-2.6-5.7-5.7-5.7h-11.4z" class="st6"/><path d="M341.3 535c.9 0 1.6-.7 1.6-1.6 0-.9-.7-1.6-1.6-1.6-.9 0-1.6.7-1.6 1.6 0 .9.7 1.6 1.6 1.6zm20.1-76.3v95.8" class="st6"/><path d="M375.3 529.2c-6 0-10.8 4.8-10.8 10.8v11.5c0 .9.7 1.6 1.6 1.6h24.4c.9 0 1.6-.7 1.6-1.6V540c0-6-4.8-10.8-10.8-10.8h-6zm15.2 24.5h-24.4c-1.2 0-2.2-1-2.2-2.2V540c0-6.3 5.1-11.4 11.4-11.4h6.1c6.3 0 11.4 5.1 11.4 11.4v11.5c0 1.2-1 2.2-2.3 2.2" class="st1"/><path d="M375.3 529.2c-6 0-10.8 4.8-10.8 10.8v11.5c0 .9.7 1.6 1.6 1.6h24.4c.9 0 1.6-.7 1.6-1.6V540c0-6-4.8-10.8-10.8-10.8h-6zm15.2 24.5h-24.4c-1.2 0-2.2-1-2.2-2.2V540c0-6.3 5.1-11.4 11.4-11.4h6.1c6.3 0 11.4 5.1 11.4 11.4v11.5c0 1.2-1 2.2-2.3 2.2z" class="st5"/><path d="M375.3 531.9c-4.5 0-8.1 3.6-8.1 8.1v6.7c0 .8.6 1.4 1.4 1.4H388c.8 0 1.4-.6 1.4-1.4V540c0-4.5-3.6-8.1-8.1-8.1h-6zm12.8 16.8h-19.4c-1.1 0-2-.9-2-2V540c0-4.8 3.9-8.7 8.7-8.7h6.1c4.8 0 8.7 3.9 8.7 8.7v6.7c-.1 1.1-1 2-2.1 2" class="st1"/><path d="M375.3 531.9c-4.5 0-8.1 3.6-8.1 8.1v6.7c0 .8.6 1.4 1.4 1.4H388c.8 0 1.4-.6 1.4-1.4V540c0-4.5-3.6-8.1-8.1-8.1h-6zm12.8 16.8h-19.4c-1.1 0-2-.9-2-2V540c0-4.8 3.9-8.7 8.7-8.7h6.1c4.8 0 8.7 3.9 8.7 8.7v6.7c-.1 1.1-1 2-2.1 2z" class="st5"/><path d="M378.3 537.5c-.7 0-1.3.6-1.3 1.3s.6 1.3 1.3 1.3c.7 0 1.3-.6 1.3-1.3s-.5-1.3-1.3-1.3m0 3.3c-1.1 0-1.9-.9-1.9-1.9s.9-1.9 1.9-1.9c1.1 0 1.9.9 1.9 1.9s-.8 1.9-1.9 1.9" class="st1"/><path d="M378.3 537.5c-.7 0-1.3.6-1.3 1.3s.6 1.3 1.3 1.3c.7 0 1.3-.6 1.3-1.3s-.5-1.3-1.3-1.3zm0 3.3c-1.1 0-1.9-.9-1.9-1.9s.9-1.9 1.9-1.9c1.1 0 1.9.9 1.9 1.9s-.8 1.9-1.9 1.9z" class="st5"/><path d="M346.9 626.8h32.3v32.3h-32.3v-32.3zm33.1-.7h-33.8v33.8H380v-33.8z" class="st1"/><path d="M346.9 626.8h32.3v32.3h-32.3v-32.3zm33.1-.7h-33.8v33.8H380v-33.8z" class="st5"/><path d="M351.8 656.2c-.8 0-1.4-.6-1.4-1.4v-17c0-.8.6-1.5 1.4-1.5h22.7c.8 0 1.4.7 1.4 1.5v17c0 .8-.6 1.4-1.4 1.4h-22.7zm22.6-20.6h-22.7c-1.2 0-2.2 1-2.2 2.2v17c0 1.2 1 2.2 2.2 2.2h22.7c1.2 0 2.2-1 2.2-2.2v-17c0-1.3-1-2.2-2.2-2.2" class="st1"/><path d="M351.8 656.2c-.8 0-1.4-.6-1.4-1.4v-17c0-.8.6-1.5 1.4-1.5h22.7c.8 0 1.4.7 1.4 1.5v17c0 .8-.6 1.4-1.4 1.4h-22.7zm22.6-20.6h-22.7c-1.2 0-2.2 1-2.2 2.2v17c0 1.2 1 2.2 2.2 2.2h22.7c1.2 0 2.2-1 2.2-2.2v-17c0-1.3-1-2.2-2.2-2.2z" class="st5"/><path d="M352.9 638.8h20.5v14.9h-20.5v-14.9zm21.2-.7h-22v16.3h22v-16.3z" class="st1"/><path d="M352.9 638.8h20.5v14.9h-20.5v-14.9zm21.2-.7h-22v16.3h22v-16.3z" class="st5"/><path d="M363.1 649.1c-1 0-1.9-.8-1.9-1.9 0-1 .8-1.9 1.9-1.9 1 0 1.9.8 1.9 1.9 0 1.1-.8 1.9-1.9 1.9m0-4.5c-1.4 0-2.6 1.2-2.6 2.6 0 1.4 1.2 2.6 2.6 2.6 1.4 0 2.6-1.2 2.6-2.6 0-1.4-1.2-2.6-2.6-2.6" class="st1"/><path d="M363.1 649.1c-1 0-1.9-.8-1.9-1.9 0-1 .8-1.9 1.9-1.9 1 0 1.9.8 1.9 1.9 0 1.1-.8 1.9-1.9 1.9zm0-4.5c-1.4 0-2.6 1.2-2.6 2.6 0 1.4 1.2 2.6 2.6 2.6 1.4 0 2.6-1.2 2.6-2.6 0-1.4-1.2-2.6-2.6-2.6z" class="st5"/><path d="M396.5 520.4h28.2v35.5h-28.2z" class="st2"/><path d="m619.457 243.967 38.6-22.935.971 1.633-38.6 22.935z" class="st7"/><path d="M619.3 243.7s-2.3-3.1-3.4-10.2c-1.1-7.2-.8-11-.8-11" class="st8"/><path stroke-width=".605" d="m717.437 532.126 24.32-40.917 1.633.97-24.32 40.918z" class="st7"/><path d="M741.5 491.1s-1.9-2.1-9.7-4.3c-7-2-13.4-1.7-13.4-1.7" class="st8"/><path stroke-width=".605" d="m508.233 470.672 40.917-24.318.971 1.633-40.917 24.319z" class="st7"/><path d="M550.3 448.3s2.1 1.9 4.3 9.7c2 7 1.7 13.4 1.7 13.4" class="st8"/><path stroke-width=".605" d="m444.162 448.015.971-1.633 40.922 24.318-.97 1.634z" class="st7"/><path d="M443.9 448.3s-2.1 1.9-4.3 9.7c-2 7-1.7 13.4-1.7 13.4" class="st8"/><path stroke-width=".605" d="m423.52 479.404 1.634-.97 18.443 31.035-1.633.97z" class="st7"/><path d="M441.7 510.7s-1.9 2.1-9.7 4.3c-7 2-10.6 1.6-10.6 1.6" class="st8"/><path stroke-width=".605" d="m423.462 606.577 18.443-31.032 1.634.971-18.444 31.032z" class="st7"/><path d="M441.7 575.3s-1.9-2.1-9.7-4.3c-7-2-10.6-1.6-10.6-1.6" class="st8"/><path stroke-width=".605" d="m442.88 644.048 38.428-22.837.97 1.633-38.428 22.837z" class="st7"/><path d="M442.6 643.8s-2.1-1.9-4.3-9.7c-2-7-1.6-10.6-1.6-10.6" class="st8"/><path stroke-width=".605" d="m428.175 243.92 38.6-22.94.971 1.634-38.6 22.94z" class="st7"/><path d="M428 243.7s-2.3-3.1-3.4-10.2c-1.1-7.2-.8-11-.8-11" class="st8"/><path d="M422.1 739.4h-1.3v-4.6h-2.3l-.5 1.7v2.9h-2.2c-.3 0-.4-.2-.3-.5l2.4-6.3h-2.8l-2.8 7.1c-.4.9.2 1.7 1.2 1.7h4.5v2.3h2.8v-2.3l1.3-.3v-1.7zm-12.5 1.7c-.8 0-1 .2-1 1v.7c0 .8.2 1 1 1h.7c.8 0 1-.2 1-1v-.7c0-.8-.2-1-1-1h-.7zm-10.4-6c1.5-.1 2.3-.1 3.5-.1.9 0 1.2 0 1.2.5 0 .6-.7 1.6-2 2.9l-2.5 2.6c-.3.4-.4.7-.4 1.2v1.6h8.3v-2.6h-3.2c-.5 0-1 0-1.6.1l2.7-2.7c1.5-1.5 1.7-2.3 1.7-3.5 0-2.2-1.6-2.7-3.9-2.7-1.2 0-2.4 0-4 .4l.2 2.3zm-2.1 8.7v-11.1h-3l-2.8 1.1.4 1.9 2.6-.6c-.1.5-.1.9-.1 1.3v7.4h2.9zm30.3-23.8h-1.1c-.8 0-.9-.2-.9-1 0-.6.1-.7.9-.7h1.1v1.7zm-3.1 1c-.5 0-1.3.2-1.5.9l-.6 2.5h3l.5-2.1c.1-.4.2-.5.7-.5h1.1v2.6h2.8v-8.1c-1-.1-1.9-.1-4-.1-2.9 0-3.7.6-3.7 2.6-.1 1 .3 1.9 1.7 2.2zm-3.4-4.6H418v2.8h-2.5v-2.8h-2.9v8h2.9v-3.2h2.5v3.2h2.9v-8zm-12 8h2.9l-2.4-4.1 2.2-3.9h-2.9l-1.6 3-1.6-3h-2.9l2.2 3.9-2.4 4.1h2.9l1.7-3.2 1.9 3.2zm-6.6-8h-3.1l-1.2 4.8c-.1.4-.2.9-.3 1.4h-.2c-.1-.5-.1-.9-.2-1.4l-1.2-4.8H393l2.5 7.3c.1.4.5.7.9.7h.5c-.2.4-.5.8-.8 1-.5.3-1.2.4-2.2.3l-.2 1.9c1.1.2 2.4.2 3.3-.2 1.2-.5 2.2-1.2 2.7-3.1l2.6-7.9zm-13.1 2.2c2.2-.3 2.3-1.3 3.5-5.3h-3.1c-.9 3.3-1.1 4.3-2.6 4.3h-.5c.1-.5.1-.9.1-1.4v-2.9h-3v11.1h3v-3.7c0-.3 0-.7-.1-1h.6c1.5 0 1.7.7 2.8 4.8h3.2c-1.5-4.6-1.6-5.5-3.9-5.9zm239.5-381.2c3 0 3.6.7 3.6 3.5 0 2.7-.6 3.4-3.6 3.4s-3.7-.7-3.7-3.4c-.1-2.7.6-3.5 3.7-3.5m0-10.8c2.7 0 3.3.6 3.3 3.2 0 2.4-.5 3-3.2 3-2.8 0-3.4-.5-3.4-3-.1-2.7.5-3.2 3.3-3.2m-5.9 8.6c-3.9.4-4.8 3.6-4.8 7.2 0 5.2 2.2 7.3 10.6 7.3 8.5-.1 10.6-2 10.6-7.3 0-3.6-.9-6.8-4.8-7.2v-.2c2.9-.3 4.1-3.3 4.1-6.2 0-5-1.7-7.2-9.9-7.2-8.1 0-9.9 2.2-9.9 7.2 0 2.9 1.2 5.9 4.1 6.2v.2zm-12.2 7.2c-1.9 0-2.5.6-2.5 2.5v1.7c0 1.9.6 2.5 2.5 2.5h1.7c1.9 0 2.5-.6 2.5-2.5v-1.7c0-1.9-.6-2.5-2.5-2.5h-1.7zm-16.3-5c3 0 3.6.7 3.6 3.5 0 2.7-.6 3.4-3.6 3.4s-3.7-.7-3.7-3.4c-.1-2.7.5-3.5 3.7-3.5m-.1-10.8c2.7 0 3.3.6 3.3 3.2 0 2.4-.5 3-3.2 3-2.8 0-3.4-.5-3.4-3 0-2.7.6-3.2 3.3-3.2m-5.8 8.6c-3.9.4-4.8 3.6-4.8 7.2 0 5.2 2.2 7.3 10.6 7.3 8.5-.1 10.6-2 10.6-7.3 0-3.6-.9-6.8-4.8-7.2v-.2c2.9-.3 4.1-3.3 4.1-6.2 0-5-1.7-7.2-9.9-7.2-8.1 0-9.9 2.2-9.9 7.2 0 2.9 1.2 5.9 4.1 6.2v.2zm-8.9-7.7.3-5.4h-16.9l-.7 12.1c-.1 1.2.8 2.3 2.1 2.4l4.2.5c3.6.3 5 .8 4.8 3.4-.2 2.2-.9 3-4.5 3-1.9 0-4.4-.1-7-.3l-.7 5.5c3.4.5 6.9.8 9.6.8 7.6 0 9.8-3.9 9.8-8.8 0-4.3-1.6-8.2-7.9-8.9l-4.5-.6.3-3.7h11.1z" class="st1"/><circle cx="600.5" cy="291.8" r="23.9" style="fill:none;stroke:#373437;stroke-width:.805" transform="rotate(-22.5 600.447 291.81)"/><path d="m608.2 293.4 4.8 8.7h6.1l-5-8.6c-.4-.8-1.3-1.6-1.9-1.9v-.1c.6-.4 1.2-.9 1.7-1.7l4.9-8h-6l-4.7 7.9h-1.4c.2-.9.2-1.7.2-2.5v-5.4h-5.5v20.4h5.5v-6.8c0-.6-.1-1.2-.2-1.9h1.5zm-24.5-7.2c2.8-.1 4.3-.1 6.4-.1 1.6 0 2.2.1 2.2.9 0 1.2-1.3 3-3.6 5.3l-4.6 4.7c-.6.6-.8 1.3-.8 2.2v2.9h15.2v-4.8h-5.9c-1 0-1.9 0-2.9.3l5-4.9c2.7-2.8 3.2-4.1 3.2-6.4 0-4-2.9-4.9-7.2-4.9-2.2 0-4.3.1-7.3.7l.3 4.1zM419.3 368c1.2 0 1.5.3 1.5 1.5 0 1.1-.3 1.4-1.5 1.4-1.3 0-1.5-.3-1.5-1.4-.1-1.1.2-1.5 1.5-1.5m-.1-4.5c1.1 0 1.4.2 1.4 1.3 0 1-.2 1.2-1.3 1.2s-1.4-.2-1.4-1.2c-.1-1 .2-1.3 1.3-1.3m-2.4 3.6c-1.6.1-2 1.5-2 3 0 2.2.9 3 4.4 3 3.5 0 4.4-.8 4.4-3 0-1.5-.4-2.8-2-3v-.1c1.2-.1 1.7-1.4 1.7-2.5 0-2.1-.7-3-4.1-3-3.4 0-4.1.9-4.1 3 0 1.2.5 2.4 1.7 2.6zm-5 3c-.8 0-1 .2-1 1v.7c0 .8.2 1 1 1h.7c.8 0 1-.2 1-1v-.7c0-.8-.2-1-1-1h-.7zm-10.4-6c1.5-.1 2.3-.1 3.5-.1.9 0 1.2 0 1.2.5 0 .6-.7 1.6-2 2.9l-2.5 2.6c-.3.4-.4.7-.4 1.2v1.6h8.3v-2.6h-3.2c-.5 0-1 0-1.6.1l2.7-2.7c1.5-1.5 1.7-2.3 1.7-3.5 0-2.2-1.6-2.7-3.9-2.7-1.2 0-2.4 0-4 .4l.2 2.3zm-2.2 8.8v-11.1h-3l-2.8 1.1.4 1.9 2.6-.6c-.1.5-.1.9-.1 1.3v7.4h2.9zm38.1-22.2c0-.4.2-.6.7-.6h1.7v1c-.5.3-1.1.6-1.6.6s-.8-.2-.8-.6v-.4zm-2.2-3.1c1.3-.1 2.6-.1 3.4-.1.8 0 1.1.2 1.1.9v.2H437c-1.6 0-2.6.8-2.6 2v.8c0 1.5 1.2 2.3 2.7 2.3 1.4 0 2.3-.7 2.9-1.4l.3 1.2h2.3v-5.1c0-2.4-1.2-3.1-3.4-3.1-1.2 0-3.2.2-4.4.4l.3 1.9zm-1.3.1v-2.2h-8v2.2h2.5v5.8h2.9v-5.8h2.6zm-14.3 3c0-.4.2-.6.7-.6h1.7v1c-.5.3-1.1.6-1.6.6s-.8-.2-.8-.6v-.4zm-2.2-3.1c1.3-.1 2.6-.1 3.4-.1.8 0 1.1.2 1.1.9v.2h-2.7c-1.6 0-2.6.8-2.6 2v.8c0 1.5 1.2 2.3 2.7 2.3 1.4 0 2.3-.7 2.9-1.4l.3 1.2h2.3v-5.1c0-2.4-1.2-3.1-3.4-3.1-1.2 0-3.2.2-4.4.4l.4 1.9zm-2-2.1h-2.9v2.8h-2.5v-2.8H407v8h2.9v-3.2h2.5v3.2h2.9v-8zm-13.6 0c-.6 0-1 .3-1.1.9l-.7 3c-.1.4-.1.8-.2 1.2h-.1c0-.4-.1-.8-.2-1.2l-.7-3c-.1-.6-.5-.9-1.1-.9h-2.5c-.7 0-1 .3-1 1l-.2 7h2.6l.2-5.9h.2l1 3.9c.1.6.5.9 1.1.9h1.3c.6 0 1-.3 1.1-.9l1-3.9h.2l.2 5.9h2.6l-.2-7c0-.7-.3-1-1-1h-2.5zm-13.3 1.8c1 0 1.2.4 1.2 2.2 0 1.8-.3 2.1-1.2 2.1-1 0-1.3-.4-1.3-2.1 0-1.8.3-2.2 1.3-2.2m0-2c-3.2 0-4.3 1.1-4.3 4.2s1.2 4.2 4.3 4.2c3.1 0 4.3-1.1 4.3-4.2s-1.2-4.2-4.3-4.2m-8 4c1.9-.3 1.7-.4 2.8-3.8h-2.9c-.7 2.7-.7 2.9-1.9 2.9h-.4c.1-.3.1-.7.1-1v-1.9h-2.9v8h2.9V351c0-.2 0-.4-.1-.6h.6c.9 0 .9.2 1.8 3.2h3c-1.1-3.9-1.1-3.9-3-4.3zm51.6-19.5h-1.1c-.8 0-.9-.2-.9-1 0-.6.1-.7.9-.7h1.1v1.7zm-3.1 1c-.5 0-1.3.2-1.5.9l-.6 2.5h3l.5-2.1c.1-.4.2-.5.7-.5h1.1v2.6h2.8v-8.1c-1-.1-1.9-.1-4-.1-2.9 0-3.7.6-3.7 2.6 0 .9.3 1.8 1.7 2.2zm-8.5.6c0-.4.2-.6.7-.6h1.7v1c-.5.3-1.1.5-1.6.5s-.8-.2-.8-.6v-.3zm-2.2-3.2c1.3-.1 2.6-.1 3.4-.1.8 0 1.1.2 1.1.9v.2H420c-1.6 0-2.6.8-2.6 2v.8c0 1.5 1.2 2.3 2.7 2.3 1.4 0 2.3-.7 2.9-1.4l.3 1.2h2.3V329c0-2.4-1.2-3.1-3.4-3.1-1.2 0-3.2.2-4.4.4l.4 1.9zm-2-2.1h-4.8c-1.4 0-2.1.7-2.2 2.1-.1 1.5-.3 2.6-.4 3.1-.2.6-.6.6-1.4.7l.3 2.1c1.8.3 3.4-.1 3.7-2.1.2-.8.3-2.1.5-3.4 0-.5.3-.7.8-.7h.7v6.1h2.9v-7.9zm-9.8 8.1v-8h-2.5l-2.5 3.8c-.2.4-.5.7-.6 1.2h-.1c.1-.5.1-.8.1-1.2v-3.8h-2.6v8h2.5l2.5-3.7c.2-.4.5-.9.6-1.3h.1c-.1.5-.1 1-.1 1.4v3.6h2.6zm-13.1-5.9c2.2-.3 2.2-1.3 3.4-5.3h-3.1c-1 3.3-1.2 4.3-2.3 4.3h-.5c.1-.5.1-.9.1-1.4V323H388v2.9c0 .5 0 .9.1 1.4h-.6c-1.1 0-1.3-1-2.3-4.3h-3.1c1.2 4 1.2 5 3.4 5.3v.1c-2.2.3-2.4 1.2-3.7 5.8h3.2c1.2-4 1.4-4.8 2.4-4.8h.6c-.1.4-.1.7-.1 1v3.7h2.9v-3.7c0-.3 0-.7-.1-1h.5c1.1 0 1.2.7 2.5 4.8h3.2c-1.2-4.6-1.3-5.5-3.6-5.9zm246.6-154.6c1.8.8 2.4 3.1 2.4 6.4 0 3.3-.6 5.6-2.4 6.5l.3 1.2c3.4-1 4.9-3.4 4.9-7.7 0-4.3-1.5-6.8-4.9-7.7l-.3 1.3zm-8.6 2.8c1.5-.1 2.3-.1 3.5-.1.9 0 1.2 0 1.2.5 0 .6-.7 1.6-2 2.9l-2.5 2.6c-.3.4-.4.7-.4 1.2v1.6h8.3v-2.6h-3.2c-.5 0-1 0-1.6.1l2.7-2.7c1.5-1.5 1.7-2.3 1.7-3.5 0-2.2-1.6-2.7-3.9-2.7-1.2 0-2.4 0-4 .4l.2 2.3zm-3.2 5.9c-.8 0-1 .2-1 1v.7c0 .8.2 1 1 1h.7c.8 0 1-.2 1-1v-.7c0-.8-.2-1-1-1h-.7zm-2.1-1.6h-1.3v-4.6h-2.3l-.5 1.7v2.9h-2.2c-.3 0-.4-.2-.3-.5l2.4-6.3H619l-2.8 7.1c-.4.9.2 1.7 1.2 1.7h4.5v2.3h2.8v-2.3l1.3-.3v-1.7zm-9.9-8.4c-3.4 1-4.9 3.4-4.9 7.7 0 4.3 1.5 6.7 4.9 7.7l.3-1.2c-1.8-.8-2.4-3.2-2.4-6.5 0-3.4.6-5.7 2.4-6.4l-.3-1.3zm-17.2 3.8h3.1c1.1 0 1.5.1 1.5 1 0 .8-.1 1.2-1.3 1.2H600v1.9h2.1c1.2 0 1.5.4 1.5 1.3 0 1.1-.4 1.3-1.8 1.3-1 0-1.7 0-3.1-.1l-.1 2.2c1.3.2 2.7.3 4 .3 2.9 0 4-1 4-3.3 0-1.7-.5-2.5-2.1-2.8v-.1c1.4-.2 1.8-1.2 1.8-2.8 0-2-1-2.6-3.8-2.6-1.2 0-2.5.1-3.7.3l.1 2.2zm-3.3 6.2c-.8 0-1 .2-1 1v.7c0 .8.2 1 1 1h.7c.8 0 1-.2 1-1v-.7c0-.8-.2-1-1-1h-.7zm-6.7-2c1.2 0 1.5.3 1.5 1.5 0 1.1-.3 1.4-1.5 1.4-1.3 0-1.5-.3-1.5-1.4-.1-1.2.2-1.5 1.5-1.5m0-4.5c1.1 0 1.4.2 1.4 1.3 0 1-.2 1.2-1.3 1.2s-1.4-.2-1.4-1.2c-.1-1.1.1-1.3 1.3-1.3m-2.4 3.5c-1.6.1-2 1.5-2 3 0 2.2.9 3 4.4 3 3.5 0 4.4-.8 4.4-3 0-1.5-.4-2.8-2-3v-.1c1.2-.1 1.7-1.4 1.7-2.5 0-2.1-.7-3-4.1-3-3.4 0-4.1.9-4.1 3 0 1.2.5 2.4 1.7 2.6zm26.1 230.4v-11.1h-3l-2.8 1.1.4 1.9 2.6-.6c-.1.5-.1.9-.1 1.3v7.4h2.9zm-7.6-2.7c-.8 0-1 .2-1 1v.7c0 .8.2 1 1 1h.7c.8 0 1-.2 1-1v-.7c0-.8-.2-1-1-1h-.7zm-2.7-6.2.1-2.2h-7l-.3 5c0 .5.3.9.9 1l1.7.2c1.5.1 2 .3 2 1.4-.1.9-.4 1.3-1.8 1.3-.8 0-1.8 0-2.9-.1l-.3 2.3c1.4.2 2.8.3 4 .3 3.2 0 4-1.6 4-3.6 0-1.8-.7-3.4-3.3-3.7l-1.8-.2.1-1.5h4.6zm-9.3 8.9v-11.1h-3l-2.8 1.1.4 1.9 2.6-.6c-.1.5-.1.9-.1 1.3v7.4h2.9zm35.9-22.1c0-.4.2-.6.7-.6h1.7v1c-.5.3-1.1.5-1.6.5s-.8-.2-.8-.6v-.3zm-2.1-3.2c1.3-.1 2.6-.1 3.4-.1.8 0 1.1.2 1.1.9v.2h-2.7c-1.6 0-2.6.8-2.6 2v.8c0 1.5 1.2 2.3 2.7 2.3 1.4 0 2.3-.7 2.9-1.4l.3 1.2h2.3v-5.1c0-2.4-1.2-3.1-3.4-3.1-1.2 0-3.2.2-4.4.4l.4 1.9zm-1.4.2v-2.2h-8v2.2h2.5v5.8h2.9v-5.8h2.6zm-14.3 3c0-.4.2-.6.7-.6h1.7v1c-.5.3-1.1.5-1.6.5s-.8-.2-.8-.6v-.3zm-2.2-3.2c1.3-.1 2.6-.1 3.4-.1.8 0 1.1.2 1.1.9v.2h-2.7c-1.6 0-2.6.8-2.6 2v.8c0 1.5 1.2 2.3 2.7 2.3 1.4 0 2.3-.7 2.9-1.4l.3 1.2h2.3v-5.1c0-2.4-1.2-3.1-3.4-3.1-1.2 0-3.2.2-4.4.4l.4 1.9zm-2-2H604v2.8h-2.5v-2.8h-2.9v8h2.9v-3.2h2.5v3.2h2.9v-8zm-13.5 0c-.6 0-1 .3-1.1.9l-.7 3c-.1.4-.1.8-.2 1.2h-.1c0-.4-.1-.8-.2-1.2l-.7-3c-.1-.6-.5-.9-1.1-.9h-2.5c-.7 0-1 .3-1 1l-.2 7h2.6l.2-5.9h.2l1 3.9c.1.6.5.9 1.1.9h1.3c.6 0 1-.3 1.1-.9l1-3.9h.2l.2 5.9h2.6l-.2-7c0-.7-.3-1-1-1h-2.5zm-13.4 1.8c1 0 1.2.4 1.2 2.2 0 1.8-.3 2.1-1.2 2.1-1 0-1.3-.4-1.3-2.1.1-1.8.3-2.2 1.3-2.2m0-2.1c-3.2 0-4.3 1.1-4.3 4.2s1.2 4.2 4.3 4.2c3.1 0 4.3-1.1 4.3-4.2.1-3-1.1-4.2-4.3-4.2m-8 4.1c1.9-.3 1.7-.4 2.8-3.8h-2.9c-.7 2.7-.7 2.9-1.9 2.9h-.4c.1-.3.1-.7.1-1v-1.9h-2.9v8h2.9V388c0-.2 0-.4-.1-.6h.6c.9 0 .9.2 1.8 3.2h3c-1-3.9-1.1-4-3-4.3zm51.7-19.6h-1.1c-.8 0-.9-.2-.9-1 0-.6.1-.7.9-.7h1.1v1.7zm-3.1 1c-.5 0-1.3.2-1.5.9l-.6 2.5h3l.5-2.1c.1-.4.2-.5.7-.5h1.1v2.6h2.8V363c-1-.1-1.9-.1-4-.1-2.9 0-3.7.6-3.7 2.6-.1 1 .3 1.9 1.7 2.2zm-8.6.7c0-.4.2-.6.7-.6h1.7v1c-.5.3-1.1.5-1.6.5s-.8-.2-.8-.6v-.3zm-2.2-3.2c1.3-.1 2.6-.1 3.4-.1.8 0 1.1.2 1.1.9v.2h-2.7c-1.6 0-2.6.8-2.6 2v.8c0 1.5 1.2 2.3 2.7 2.3 1.4 0 2.3-.7 2.9-1.4l.3 1.2h2.3V366c0-2.4-1.2-3.1-3.4-3.1-1.2 0-3.2.2-4.4.4l.4 1.9zm-2-2.1H603c-1.4 0-2.1.7-2.2 2.1-.1 1.5-.3 2.6-.4 3.1-.2.6-.6.6-1.4.7l.3 2.1c1.8.3 3.4-.1 3.7-2.1.2-.8.3-2.1.5-3.4 0-.5.3-.7.8-.7h.7v6.1h2.9v-7.9zm-9.8 8v-8h-2.5l-2.5 3.8c-.2.4-.5.7-.6 1.2h-.1c.1-.5.1-.8.1-1.2v-3.8h-2.6v8h2.5l2.5-3.7c.2-.4.5-.9.6-1.3h.1c-.1.5-.1 1-.1 1.4v3.6h2.6zm-13-5.8c2.2-.3 2.2-1.3 3.4-5.3h-3.1c-1 3.3-1.2 4.3-2.3 4.3h-.5c.1-.5.1-.9.1-1.4V360h-2.9v2.9c0 .5 0 .9.1 1.4h-.6c-1.1 0-1.3-1-2.3-4.3H574c1.2 4 1.2 5 3.4 5.3v.1c-2.2.3-2.4 1.2-3.7 5.8h3.2c1.2-4 1.4-4.8 2.4-4.8h.6c-.1.4-.1.7-.1 1v3.7h2.9v-3.7c0-.3 0-.7-.1-1h.5c1.1 0 1.2.7 2.5 4.8h3.2c-1.4-4.6-1.5-5.5-3.8-5.9zm-169.9 218h3.1c1.1 0 1.5.1 1.5 1 0 .8-.1 1.2-1.3 1.2h-2.1v1.9h2.1c1.2 0 1.5.4 1.5 1.3 0 1.1-.4 1.3-1.8 1.3-1 0-1.7 0-3.1-.1l-.1 2.2c1.3.2 2.7.3 4 .3 2.9 0 4-1 4-3.3 0-1.7-.5-2.5-2.1-2.8v-.1c1.4-.2 1.8-1.2 1.8-2.8 0-2-1-2.6-3.8-2.6-1.2 0-2.5.1-3.7.3v2.2zm-3.3 6.2c-.8 0-1 .2-1 1v.7c0 .8.2 1 1 1h.7c.8 0 1-.2 1-1v-.7c0-.8-.2-1-1-1h-.7zm-3 2.8v-11.1h-3l-2.8 1.1.4 1.9 2.6-.6c-.1.5-.1.9-.1 1.3v7.4h2.9zm-9.6-98.3h3.1c1.1 0 1.5.1 1.5 1 0 .8-.1 1.2-1.3 1.2h-2.1v1.9h2.1c1.2 0 1.5.4 1.5 1.3 0 1.1-.4 1.3-1.8 1.3-1 0-1.7 0-3.1-.1l-.1 2.2c1.3.2 2.7.3 4 .3 2.9 0 4-1 4-3.3 0-1.7-.5-2.5-2.1-2.8 1.4-.2 1.8-1.2 1.8-2.8 0-2-1-2.6-3.8-2.6-1.2 0-2.5.1-3.7.3v2.1zm-3.3 6.3c-.8 0-1 .2-1 1v.7c0 .8.2 1 1 1h.7c.8 0 1-.2 1-1v-.7c0-.8-.2-1-1-1h-.7zm-10-6.3h3.1c1.1 0 1.5.1 1.5 1 0 .8-.1 1.2-1.3 1.2H387v1.9h2.1c1.2 0 1.5.4 1.5 1.3 0 1.1-.4 1.3-1.8 1.3-1 0-1.7 0-3.1-.1l-.1 2.2c1.3.2 2.7.3 4 .3 2.9 0 4-1 4-3.3 0-1.7-.5-2.5-2.1-2.8 1.4-.2 1.8-1.2 1.8-2.8 0-2-1-2.6-3.8-2.6-1.2 0-2.5.1-3.7.3l.1 2.1zm181.2 19.1.1 2.4h4.8c-.3.4-.4.8-.5 1.2l-2.7 7.5h3l3.4-9.6c.3-.8-.3-1.5-1.1-1.5h-7zm-2.3 8.4c-.8 0-1 .2-1 1v.7c0 .8.2 1 1 1h.7c.8 0 1-.2 1-1v-.7c0-.8-.2-1-1-1h-.7zm-7.9-4.6c0-1.3.1-1.8 1.3-1.8 1.3 0 1.4.4 1.4 2.9-.5.3-.9.4-1.4.4-1.1 0-1.4-.4-1.3-1.5m-2.4 7.2c1.3.3 2.5.3 3.1.3 3.5 0 4.9-.8 4.9-5.9 0-4.5-.7-5.6-4.3-5.6-3.2 0-4.2 1.2-4.1 4.1 0 2 .7 3.4 3.2 3.4 1 0 1.7-.2 2.3-.7-.1 1.9-.5 2.5-1.9 2.5h-2.9l-.3 1.9zm38.9-24.8c.5-.3.9-.5 1.5-.5.7 0 1 .3 1 2.1s-.3 2.1-1.1 2.1c-.6 0-1-.1-1.4-.3v-3.4zm-.5-2.5h-2.4v11h2.9v-3.5c.7.5 1.6.7 2.6.7 2 0 3-.9 3-4.1 0-2.7-.8-4.3-2.8-4.3-1.3 0-2.5.6-3.1 1.3l-.2-1.1zm-8.1 1.9c1 0 1.2.4 1.2 2.2 0 1.8-.3 2.1-1.2 2.1-1 0-1.3-.4-1.3-2.1 0-1.8.3-2.2 1.3-2.2m0-2.1c-3.2 0-4.3 1.1-4.3 4.2s1.2 4.2 4.3 4.2c3.1 0 4.3-1.1 4.3-4.2 0-3-1.2-4.2-4.3-4.2m-9.2 6.3h-2.4c.4-.9.7-2 .9-3.5 0-.5.3-.6.7-.6h.7v4.1zm4.1 0h-1.3v-6H574c-1.4 0-2.1.7-2.3 1.9-.2 1.4-.5 2.7-1 4.1h-1v4.2h1.9l.2-2.2h5.7l.2 2.2h1.9v-4.2zm-11.2 2v-8H566l-2.5 3.8c-.2.4-.5.7-.6 1.2h-.1c.1-.5.1-.8.1-1.2v-3.8h-2.6v8h2.5l2.5-3.7c.2-.4.5-.9.6-1.3h.1c-.1.5-.1 1-.1 1.4v3.6h2.6zm-15.2-5.6c.5-.3.9-.5 1.5-.5.7 0 1 .3 1 2.1s-.3 2.1-1.1 2.1c-.6 0-1-.1-1.4-.3v-3.4zm-.6-2.5h-2.4v11h2.9v-3.5c.7.5 1.6.7 2.6.7 2 0 3-.9 3-4.1 0-2.7-.8-4.3-2.8-4.3-1.3 0-2.5.6-3.1 1.3l-.2-1.1zm-8 1.9c1 0 1.2.4 1.2 2.2 0 1.8-.3 2.1-1.2 2.1-1 0-1.3-.4-1.3-2.1 0-1.8.3-2.2 1.3-2.2m0-2.1c-3.2 0-4.3 1.1-4.3 4.2s1.2 4.2 4.3 4.2c3.1 0 4.3-1.1 4.3-4.2 0-3-1.2-4.2-4.3-4.2M536 499c2.2-.3 2.3-1.3 3.5-5.3h-3.1c-.9 3.3-1.1 4.3-2.6 4.3h-.5c.1-.5.1-.9.1-1.4v-2.9h-3v11.1h3v-3.7c0-.3 0-.7-.1-1h.6c1.5 0 1.7.7 2.8 4.8h3.2c-1.5-4.6-1.6-5.5-3.9-5.9z" class="st1"/></svg>