<svg xmlns="http://www.w3.org/2000/svg" xmlns:xlink="http://www.w3.org/1999/xlink" xml:space="preserve" id="Слой_1" x="0" y="0" style="enable-background:new 0 0 324 241" version="1.1" viewBox="0 0 324 241"><style>.st1{fill:#3c3c3b}.st2{fill:none;stroke:#3c3c3b;stroke-width:.669}.st3,.st5{clip-path:url(#SVGID_2_);fill:#3c3c3b}.st5{fill:none;stroke:#3c3c3b;stroke-width:.567}.st7{clip-path:url(#SVGID_4_);fill:#3c3c3b}.st15,.st8{fill:none;stroke:#3c3c3b}.st8{clip-path:url(#SVGID_4_);stroke-width:.236}.st15{stroke-width:.525}.st18{fill:#3c3c3b}.st18,.st19{clip-path:url(#SVGID_20_)}.st19,.st20{fill:none;stroke:#3c3c3b;stroke-width:.279}.st21{clip-path:url(#SVGID_22_);fill:#3c3c3b}.st22,.st23{fill:none;stroke:#3c3c3b}.st22{clip-path:url(#SVGID_22_);stroke-width:.279}.st23{stroke-width:.224}</style><switch><g><path d="M23.1 21.8h282v147.1h-282z" style="fill:#f9cfd1"/><path d="M98.6 16.9h210.7v5H98.6zm-81.4 0h59.9v5H17.2zm192 44.9h5v148.7h-5z" class="st1"/><path d="M209.2 19.4h5v20.9h-5zM114 61.8h4.3v111.7H114zm0-43.6h4.3v19.2H114zm26 49.9h73.4v2.5H140zm-26.7 129.7h4.9v27.5h-4.9zM17.2 16.9H23v208.5h-5.8zm287.7 0h5.9V180h-5.9zM190.5 177h43.7v3.1h-43.7z" class="st1"/><path d="M19.8 177h28v3.1h-28zm172.8-8h39.5v9.1h-39.5zm-104.9 8h49.5v3.1H87.7z" class="st1"/><path d="M89.8 169h45.4v9.1H89.8zm-70 0h25.9v9.1H19.8zm2.1-74.7h55.8v2.5H21.9zm0-26.6h46.8v2.5H21.9z" class="st1"/><path d="M67.7 52h2.5v25.4h-2.5zm0-31.8h2.5v17.1h-2.5zm30.7 74.1H117v2.5H98.4z" class="st1"/><path d="m115.056 219.785 94.711-13.723.46 3.167-94.712 13.723z" class="st2"/><path d="M20.7 219.8h95.7v3.2H20.7z" class="st2"/><defs><path id="SVGID_1_" d="M17.2 16.9h293.6v208.5H17.2z"/></defs><clipPath id="SVGID_2_"><use xlink:href="#SVGID_1_" style="overflow:visible"/></clipPath><path d="M266.3 132.8c.8 0 1 .3 1 2.3 0 1.9-.2 2.3-1 2.3s-1-.3-1-2.3c0-1.9.2-2.3 1-2.3m0-1.5c-2.2 0-2.9.9-2.9 3.8 0 2.8.8 3.8 2.9 3.8 2.2 0 3-.9 3-3.8 0-2.8-.8-3.8-3-3.8m-4.9 5.6c-.5 0-.7.2-.7.7v.5c0 .5.2.7.7.7h.5c.5 0 .7-.2.7-.7v-.5c0-.5-.2-.7-.7-.7h-.5zm-5.2-2.9c0-.9.1-1.2.8-1.2.8 0 .9.3.9 1.9-.3.2-.6.3-.9.3-.6-.1-.8-.3-.8-1m-1.5 4.6c.8.2 1.6.2 2 .2 2.3 0 3.1-.5 3.1-3.8 0-2.9-.5-3.7-2.8-3.7-2.1 0-2.7.8-2.7 2.6 0 1.3.5 2.2 2.1 2.2.6 0 1.1-.1 1.5-.4-.1 1.2-.3 1.6-1.3 1.6h-1.9v1.3zm-1.5.1v-7.2h-2l-1.8.7.2 1.2 1.7-.4c-.1.3-.1.6-.1.9v4.8h2zm24.8-14.3c0-.2.1-.4.4-.4h1.1v.6c-.3.2-.7.4-1 .4-.3 0-.5-.1-.5-.4v-.2zm-1.4-2.1c.9-.1 1.7-.1 2.2-.1.5 0 .7.2.7.6v.1h-1.7c-1 0-1.7.5-1.7 1.3v.5c0 1 .8 1.5 1.7 1.5.9 0 1.5-.5 1.9-.9l.2.8h1.5v-3.3c0-1.5-.8-2-2.2-2-.8 0-2.1.1-2.8.3l.2 1.2zm-.9.1V121h-5.2v1.4h1.7v3.8h1.9v-3.8h1.6zm-9.3 2c0-.2.1-.4.4-.4h1.1v.6c-.3.2-.7.4-1 .4-.3 0-.5-.1-.5-.4v-.2zm-1.4-2.1c.9-.1 1.7-.1 2.2-.1.5 0 .7.2.7.6v.1h-1.7c-1 0-1.7.5-1.7 1.3v.5c0 1 .8 1.5 1.7 1.5.9 0 1.5-.5 1.9-.9l.2.8h1.5v-3.3c0-1.5-.8-2-2.2-2-.8 0-2.1.1-2.8.3l.2 1.2zm-1.3-1.3h-1.9v1.8h-1.6V121h-1.9v5.2h1.9v-2.1h1.6v2.1h1.9V121zm-8.8 0c-.4 0-.6.2-.7.6l-.4 1.9c-.1.3-.1.5-.1.8h-.1c0-.3 0-.5-.1-.8l-.5-1.9c-.1-.4-.3-.6-.7-.6h-1.6c-.4 0-.6.2-.7.6l-.1 4.5h1.7l.1-3.8h.1l.6 2.5c.1.4.3.6.7.6h.8c.4 0 .6-.2.7-.6l.6-2.5h.1l.1 3.8h1.7l-.1-4.5c0-.4-.2-.6-.6-.6h-1.5zm-8.6 1.2c.6 0 .8.3.8 1.4 0 1.1-.2 1.4-.8 1.4-.6 0-.8-.3-.8-1.4 0-1.2.1-1.4.8-1.4m0-1.4c-2 0-2.8.7-2.8 2.7s.8 2.7 2.8 2.7c2 0 2.8-.7 2.8-2.7 0-1.9-.8-2.7-2.8-2.7m-5.2 2.6c1.2-.2 1.1-.3 1.8-2.5H241c-.4 1.7-.5 1.9-1.2 1.9h-.2c0-.2.1-.4.1-.7V121h-1.9v5.2h1.9v-1.6c0-.1 0-.3-.1-.4h.4c.6 0 .6.1 1.1 2.1h2c-.8-2.6-.8-2.6-2-2.9zm33.5-12.6h-.7c-.5 0-.6-.1-.6-.6 0-.4.1-.5.6-.5h.7v1.1zm-2 .6c-.3 0-.9.1-1 .6l-.4 1.6h1.9l.3-1.4c0-.2.2-.3.5-.3h.7v1.7h1.8v-5.2c-.6-.1-1.2-.1-2.6-.1-1.9 0-2.4.4-2.4 1.7 0 .6.3 1.2 1.2 1.4zm-5.6.4c0-.2.1-.4.4-.4h1.1v.6c-.3.2-.7.4-1 .4-.3 0-.5-.1-.5-.4v-.2zm-1.4-2c.9-.1 1.7-.1 2.2-.1.5 0 .7.2.7.6v.1h-1.7c-1 0-1.7.5-1.7 1.3v.5c0 1 .8 1.5 1.7 1.5.9 0 1.5-.5 1.9-.9l.2.8h1.5v-3.3c0-1.5-.8-2-2.2-2-.8 0-2.1.1-2.8.3l.2 1.2zm-1.3-1.4h-3.1c-.9 0-1.4.5-1.4 1.3-.1 1-.2 1.7-.3 2-.1.4-.4.4-.9.5l.2 1.4c1.1.2 2.2-.1 2.4-1.4.1-.5.2-1.4.3-2.2 0-.3.2-.4.5-.4h.4v3.9h1.9v-5.1zm-6.4 5.2v-5.2h-1.6l-1.7 2.5c-.2.2-.3.5-.4.8 0-.3.1-.5.1-.8v-2.4h-1.7v5.2h1.7l1.6-2.4c.1-.2.3-.6.4-.9 0 .3-.1.6-.1.9v2.3h1.7zm-8.4-3.8c1.4-.2 1.4-.8 2.2-3.4h-2c-.6 2.2-.8 2.8-1.5 2.8h-.3c.1-.3.1-.6.1-.9v-1.9h-1.9v1.9c0 .3 0 .6.1.9h-.4c-.7 0-.8-.6-1.5-2.8h-2c.8 2.6.8 3.2 2.2 3.4v.1c-1.5.2-1.5.8-2.4 3.7h2c.8-2.6.9-3.1 1.6-3.1h.4c-.1.2-.1.5-.1.7v2.4h1.9v-2.4c0-.2 0-.4-.1-.7h.3c.7 0 .8.5 1.6 3.1h2.1c-.7-2.9-.8-3.5-2.3-3.8zm-82.1 18.4.1 1.6h3.1c-.2.3-.3.5-.4.8l-1.7 4.9h1.9l2.2-6.3c.2-.5-.2-1-.7-1h-4.5zm-1.5 5.4c-.5 0-.7.2-.7.7v.5c0 .5.2.7.7.7h.4c.5 0 .7-.2.7-.7v-.5c0-.5-.2-.7-.7-.7h-.4zm-6.7-3.9c1-.1 1.5-.1 2.3-.1.6 0 .8 0 .8.3 0 .4-.5 1.1-1.3 1.9l-1.6 1.7c-.2.2-.3.5-.3.8v1h5.4v-1.7h-2.1c-.3 0-.7 0-1 .1l1.8-1.7c1-1 1.1-1.5 1.1-2.2 0-1.4-1-1.7-2.5-1.7-.8 0-1.5 0-2.6.2v1.4zm-1.4 5.7v-7.2h-2l-1.8.7.2 1.2 1.7-.4c-.1.3-.1.6-.1.9v4.8h2zm24-14.3c0-.2.1-.4.4-.4h1.1v.6c-.3.2-.7.4-1 .4-.3 0-.5-.1-.5-.4v-.2zm-1.4-2.1c.9-.1 1.7-.1 2.2-.1.5 0 .7.2.7.6v.1h-1.7c-1 0-1.7.5-1.7 1.3v.5c0 1 .8 1.5 1.7 1.5.9 0 1.5-.5 1.9-.9l.2.8h1.5v-3.3c0-1.5-.8-2-2.2-2-.8 0-2.1.1-2.8.3l.2 1.2zm-.8.1v-1.4h-5.2v1.4h1.7v3.8h1.9v-3.8h1.6zm-9.3 2c0-.2.1-.4.4-.4h1.1v.6c-.3.2-.7.4-1 .4-.3 0-.5-.1-.5-.4v-.2zm-1.4-2.1c.9-.1 1.7-.1 2.2-.1.5 0 .7.2.7.6v.1h-1.7c-1 0-1.7.5-1.7 1.3v.5c0 1 .8 1.5 1.7 1.5.9 0 1.5-.5 1.9-.9l.2.8h1.5v-3.3c0-1.5-.8-2-2.2-2-.8 0-2.1.1-2.8.3l.2 1.2zm-1.3-1.3h-1.9v1.8h-1.6v-1.8h-1.9v5.2h1.9v-2.1h1.6v2.1h1.9v-5.2zm-8.8 0c-.4 0-.6.2-.7.6l-.4 1.9c-.1.3-.1.5-.1.8h-.1c0-.3 0-.5-.1-.8l-.5-1.9c-.1-.4-.3-.6-.7-.6h-1.6c-.4 0-.6.2-.7.6l-.1 4.5h1.7l.1-3.8h.1l.6 2.5c.1.4.3.6.7.6h.8c.4 0 .6-.2.7-.6l.6-2.5h.1l.1 3.8h1.7l-.1-4.5c0-.4-.2-.6-.6-.6h-1.5zm-8.7 1.1c.6 0 .8.3.8 1.4 0 1.1-.2 1.4-.8 1.4-.6 0-.8-.3-.8-1.4 0-1.1.2-1.4.8-1.4m0-1.3c-2 0-2.8.7-2.8 2.7s.8 2.7 2.8 2.7c2 0 2.8-.7 2.8-2.7 0-1.9-.7-2.7-2.8-2.7m-5.2 2.6c1.2-.2 1.1-.3 1.8-2.5h-1.9c-.4 1.7-.5 1.9-1.2 1.9h-.2c0-.2.1-.4.1-.7v-1.2h-1.9v5.2h1.9v-1.6c0-.1 0-.3-.1-.4h.4c.6 0 .6.1 1.1 2.1h2c-.7-2.5-.7-2.5-2-2.8zm33.6-12.6h-.7c-.5 0-.6-.1-.6-.6 0-.4.1-.5.6-.5h.7v1.1zm-2.1.6c-.3 0-.9.1-1 .6l-.4 1.6h1.9l.3-1.4c0-.2.2-.3.5-.3h.7v1.7h1.8v-5.2c-.6-.1-1.2-.1-2.6-.1-1.9 0-2.4.4-2.4 1.7.1.6.3 1.2 1.2 1.4zm-5.5.4c0-.2.1-.4.4-.4h1.1v.6c-.3.2-.7.4-1 .4-.3 0-.5-.1-.5-.4v-.2zm-1.4-2c.9-.1 1.7-.1 2.2-.1.5 0 .7.2.7.6v.1h-1.7c-1 0-1.7.5-1.7 1.3v.5c0 1 .8 1.5 1.7 1.5.9 0 1.5-.5 1.9-.9l.2.8h1.5V107c0-1.5-.8-2-2.2-2-.8 0-2.1.1-2.8.3l.2 1.2zm-1.3-1.4H165c-.9 0-1.4.5-1.4 1.3-.1 1-.2 1.7-.3 2-.1.4-.4.4-.9.5l.2 1.4c1.1.2 2.2-.1 2.4-1.4.1-.5.2-1.4.3-2.2 0-.3.2-.4.5-.4h.4v3.9h1.9v-5.1zm-6.4 5.2v-5.2h-1.6l-1.7 2.5c-.2.2-.3.5-.4.8 0-.3.1-.5.1-.8v-2.4h-1.7v5.2h1.7l1.6-2.4c.1-.2.3-.6.4-.9 0 .3-.1.6-.1.9v2.3h1.7zm-8.4-3.8c1.4-.2 1.4-.8 2.2-3.4h-2c-.6 2.2-.8 2.8-1.5 2.8h-.3c.1-.3.1-.6.1-.9v-1.9H150v1.9c0 .3 0 .6.1.9h-.4c-.7 0-.8-.6-1.5-2.8h-2c.8 2.6.8 3.2 2.2 3.4v.1c-1.5.2-1.5.8-2.4 3.7h2c.8-2.6.9-3.1 1.6-3.1h.4c-.1.2-.1.5-.1.7v2.4h1.9v-2.4c0-.2 0-.4-.1-.7h.3c.7 0 .8.5 1.6 3.1h2.1c-.8-3-.9-3.5-2.3-3.8zm126.9-6.8V83.2h-4.5l-4.2 1.6.5 2.8 3.8-.9c-.1.7-.2 1.3-.2 2v10.9h4.6zM269 95.6c-1.1 0-1.5.4-1.5 1.5v1.1c0 1.1.4 1.5 1.5 1.5h1c1.1 0 1.5-.4 1.5-1.5v-1.1c0-1.1-.4-1.5-1.5-1.5h-1zm-10.2-9.3c1.8 0 2.3.8 2.3 5.2s-.5 5.2-2.3 5.2c-1.8 0-2.3-.8-2.3-5.2s.5-5.2 2.3-5.2m0-3.4c-5 0-6.7 2.1-6.7 8.6 0 6.4 1.7 8.6 6.7 8.6s6.8-2.2 6.8-8.6c0-6.5-1.8-8.6-6.8-8.6m-14.6 13.8c-1.9 0-2.1-.6-2.1-4.3.8-.5 1.3-.6 2.1-.6 1.6 0 1.9.4 1.9 2.2 0 2-.1 2.7-1.9 2.7m5-13.3c-1.7-.5-3.4-.5-4.3-.5-4.8 0-7.2 1.2-7.2 8.7 0 6.7 1.5 8.4 6.4 8.4 5 0 6.1-1.9 6.1-6 0-3.6-1.1-5.1-4.8-5.1-1.5 0-2.5.2-3.4 1 .1-3.1.7-3.6 2.8-3.6h4.1l.3-2.9z" class="st3"/><path d="M259.5 78.6c8.1 0 14.6-6.6 14.6-14.6 0-8.1-6.6-14.6-14.6-14.6-8.1 0-14.6 6.6-14.6 14.6s6.5 14.6 14.6 14.6z" style="clip-path:url(#SVGID_2_);fill:none;stroke:#3c3c3b;stroke-width:1.004"/><path d="M266.4 63.7c2.5-.3 2.6-1.4 3.9-5.9h-3.5c-1 3.7-1.2 4.9-3 4.9h-.6c.1-.5.1-1.1.1-1.6v-3.3H260v12.5h3.4v-4.2c0-.3-.1-.8-.1-1.2h.7c1.7 0 1.9.8 3.2 5.3h3.5c-1.5-5.1-1.7-6.1-4.3-6.5zm-17.3-3.2c1.7-.1 2.6-.1 3.9-.1 1 0 1.4.1 1.4.6 0 .7-.8 1.8-2.2 3.3l-2.8 2.9c-.4.4-.5.8-.5 1.4v1.8h9.3v-2.9h-3.6c-.6 0-1.2 0-1.8.2l3.1-3c1.6-1.7 2-2.5 2-3.9 0-2.4-1.8-3-4.4-3-1.4 0-2.6.1-4.5.4l.1 2.3zM60.7 86.6h1.4c.3 0 .5 0 .5.2 0 .3-.3.7-.8 1.2l-1 1.1c-.1.1-.2.3-.2.5v.6H64v-1.1h-1.3c-.2 0-.4 0-.6.1l1.1-1.1c.6-.6.7-.9.7-1.4 0-.9-.6-1.1-1.6-1.1-.5 0-1 0-1.6.2v.8zM59.4 89c-.3 0-.4.1-.4.4v.3c0 .3.1.4.4.4h.3c.3 0 .4-.1.4-.4v-.3c0-.3-.1-.4-.4-.4h-.3zm-1.2 1.1v-4.5H57l-1.2.4.1.8 1.1-.2v3.5h1.2zM65.7 79h-1.3l-.4 1.9c0 .2-.1.4-.1.6h-.1c0-.2-.1-.4-.1-.6l-.5-1.9h-1.3l1 3c.1.2.2.3.4.3h.2c-.1.2-.2.3-.3.4-.2.1-.5.2-.9.1l-.1.8c.5.1 1 .1 1.3-.1.5-.2.9-.5 1.1-1.3l1.1-3.2zm-6.4 3.7 2.6-5H61l-2.6 5h.9zM58 81.2c-.4 0-.8.1-1.4.1-.5 0-.7-.3-.7-1.3s.2-1.3.7-1.3h1.3l.1-.9c-.4-.1-.8-.2-1.4-.2-1.5 0-2 .6-2 2.3 0 1.7.5 2.4 2 2.4.7 0 1.1-.1 1.5-.2l-.1-.9zm1.6-31c0-.5 0-.8.5-.8s.6.2.6 1.2c-.2.1-.4.2-.6.2-.4 0-.6-.1-.5-.6m-1 2.9c.5.1 1 .1 1.3.1 1.4 0 2-.3 2-2.4 0-1.8-.3-2.3-1.7-2.3-1.3 0-1.7.5-1.7 1.7 0 .8.3 1.4 1.3 1.4.4 0 .7-.1.9-.3 0 .8-.2 1-.8 1h-1.2l-.1.8zm-1.4-1c-.3 0-.4.1-.4.4v.3c0 .3.1.4.4.4h.3c.3 0 .4-.1.4-.4v-.3c0-.3-.1-.4-.4-.4h-.3zM53 49.6h1.4c.3 0 .5 0 .5.2 0 .3-.3.7-.8 1.2l-1 1.1c-.1.1-.2.3-.2.5v.6h3.4v-1.1H55c-.2 0-.4 0-.6.1l1.1-1.1c.6-.6.7-.9.7-1.4 0-.9-.6-1.1-1.6-1.1-.5 0-1 0-1.6.2v.8zm14.8-6.1h-.5c-.3 0-.4-.1-.4-.4 0-.2.1-.3.4-.3h.5v.7zm-1.3.4c-.2 0-.5.1-.6.4l-.3 1h1.2l.2-.9c0-.2.1-.2.3-.2h.4v1.1H69V42c-.4 0-.8-.1-1.7-.1-1.2 0-1.5.2-1.5 1.1 0 .4.2.7.7.9zm-3.5.2c0-.2.1-.3.3-.3h.7v.4c-.2.1-.4.2-.6.2-.2 0-.3-.1-.3-.3zm-.8-1.2h1.4c.3 0 .4.1.5.4v.1H63c-.7 0-1 .3-1 .8v.3c0 .6.5.9 1.1.9.6 0 .9-.3 1.2-.6l.1.5h1v-2.1c0-1-.5-1.3-1.4-1.3-.5 0-1.3.1-1.8.2v.8zm-.9-.9h-1.2v1.2h-1V42H58v3.3h1.2V44h1v1.3h1.2V42zm-4 0h-1.2v1.2h-1V42h-1.2v3.3h1.2V44h1v1.3h1.2V42zm-6.2 2.1c0-.2.1-.3.3-.3h.6v.4c-.2.1-.4.2-.6.2-.2 0-.3-.1-.3-.3zm-.9-1.2h1.4c.3 0 .4.1.5.4v.1H51c-.7 0-1 .3-1 .8v.3c0 .6.5.9 1.1.9.6 0 .9-.3 1.2-.6l.1.5h1v-2.1c0-1-.5-1.3-1.4-1.3-.5 0-1.3.1-1.8.2v.8zM47 44.5v-1.2h.6c.5 0 .6.1.6.6s-.1.6-.6.6H47zm0-2v-1h.6c.4 0 .5.1.5.5s-.1.5-.5.5H47zm1.5.4c.6-.1.8-.4.8-1 0-.9-.4-1.2-1.7-1.2-.8 0-1.3 0-1.8.1v4.5c.6 0 1.1.1 2.1.1 1.1 0 1.6-.3 1.6-1.2 0-.8-.3-1.2-1-1.3zm119.6 10.6v-5h-1.4l-1.3.5.2.9 1.2-.3c0 .2-.1.4-.1.6v3.3h1.4zm-3.5-1.3c-.4 0-.5.1-.5.5v.3c0 .4.1.5.5.5h.3c.4 0 .5-.1.5-.5v-.3c0-.3-.1-.5-.5-.5h-.3zm-2.8.4c-.6 0-.6-.2-.7-1.3.2-.1.4-.2.6-.2.5 0 .6.1.6.7.1.5 0 .8-.5.8m1.5-4.1c-.5-.1-1-.1-1.3-.1-1.5 0-2.2.4-2.2 2.7 0 2 .5 2.6 2 2.6s1.9-.6 1.9-1.9c0-1.1-.3-1.6-1.5-1.6-.4 0-.8.1-1 .3 0-.9.2-1.1.9-1.1h1.2v-.9zm14-6.3c.2-.1.4-.2.7-.2.3 0 .5.1.5 1 0 .8-.1 1-.5 1-.3 0-.4-.1-.6-.1v-1.7zM177 41h-1.1v5h1.3v-1.6c.3.2.7.3 1.2.3.9 0 1.4-.4 1.4-1.9 0-1.2-.4-1.9-1.3-1.9-.6 0-1.1.3-1.4.6l-.1-.5zm-3.7.9c.4 0 .6.2.6 1s-.1 1-.6 1-.6-.2-.6-1c.1-.8.2-1 .6-1m0-1c-1.4 0-2 .5-2 1.9s.5 1.9 2 1.9c1.4 0 2-.5 2-1.9 0-1.3-.5-1.9-2-1.9m-4.1 2.9h-1.1c.2-.4.3-.9.4-1.6 0-.2.1-.3.3-.3h.3v1.9zm1.8 0h-.6V41h-2c-.7 0-1 .3-1.1.9-.1.6-.2 1.2-.4 1.9h-.5v1.9h.9l.1-1h2.6l.1 1h.9v-1.9zm-5 .9V41h-1.2l-1.2 1.7c-.1.2-.2.3-.3.5 0-.2.1-.4.1-.6V41h-1.2v3.6h1.2l1.1-1.7.3-.6c0 .2-.1.4-.1.6v1.6h1.3zm-6.9-2.5c.2-.1.4-.2.7-.2.3 0 .5.1.5 1 0 .8-.1 1-.5 1-.3 0-.4-.1-.6-.1v-1.7zm-.3-1.2h-1.1v5h1.3v-1.6c.3.2.7.3 1.2.3.9 0 1.4-.4 1.4-1.9 0-1.2-.4-1.9-1.3-1.9-.6 0-1.1.3-1.4.6l-.1-.5zm-3.7.9c.4 0 .6.2.6 1s-.1 1-.6 1-.6-.2-.6-1c.1-.8.2-1 .6-1m0-1c-1.4 0-2 .5-2 1.9s.5 1.9 2 1.9c1.4 0 2-.5 2-1.9 0-1.3-.5-1.9-2-1.9m-3.9 1.1c1-.1 1-.6 1.6-2.4h-1.4c-.4 1.5-.5 2-1.2 2h-.2c0-.2.1-.4.1-.6v-1.3h-1.4v5h1.4V43c0-.1 0-.3-.1-.5h.3c.7 0 .8.3 1.3 2.2h1.4c-.7-2.1-.8-2.5-1.8-2.7zM93.8 66.8h1.6c.4 0 .6 0 .6.2 0 .3-.3.7-.9 1.3L94 69.5c-.1.2-.2.3-.2.5v.7h3.8v-1.2h-1.5c-.2 0-.5 0-.7.1l1.2-1.2c.7-.7.8-1 .8-1.6 0-1-.7-1.2-1.8-1.2-.5 0-1.1 0-1.8.2v1zm-1.4 2.7c-.4 0-.5.1-.5.5v.3c0 .4.1.5.5.5h.3c.4 0 .5-.1.5-.5V70c0-.4-.1-.5-.5-.5h-.3zm-1-.7h-.6v-2.1h-1l-.2.8v1.3h-1c-.1 0-.2-.1-.1-.2l1.1-2.9h-1.3L87 68.9c-.2.4.1.8.5.8h2v1.1h1.3v-1.1l.6-.1v-.8zm17.9-8.8h-.5c-.3 0-.4-.1-.4-.5 0-.3.1-.3.4-.3h.5v.8zm-1.4.4c-.2 0-.6.1-.7.4l-.3 1.1h1.4l.2-1c0-.2.1-.2.3-.2h.5V62h1.3v-3.7c-.5-.1-.8-.1-1.8-.1-1.3 0-1.7.3-1.7 1.2 0 .5.2.9.8 1zm-3.9.3c0-.2.1-.3.3-.3h.8v.5c-.2.2-.5.2-.7.2-.2 0-.4-.1-.4-.3v-.1zm-1-1.4c.6 0 1.2-.1 1.6-.1.4 0 .5.1.5.4v.1h-1.2c-.7 0-1.2.4-1.2.9v.4c0 .7.5 1 1.2 1 .6 0 1-.3 1.3-.6l.1.5h1.1v-2.3c0-1.1-.5-1.4-1.5-1.4-.5 0-1.4.1-2 .2l.1.9zm-2 .8c.8-.1.8-.2 1.3-1.7H101c-.4 1.2-.4 1.3-.8 1.3h-.2v-1.4h-1.2v1.4h-.2c-.4 0-.4-.1-.8-1.3h-1.3c.5 1.5.4 1.6 1.3 1.7-.8.1-.8.2-1.3 1.9h1.3c.5-1.4.5-1.5.8-1.5h.3V62h1.2v-1.5h.3c.3 0 .4.1.8 1.5h1.3c-.6-1.7-.6-1.8-1.5-1.9zm-6.8-.9c.4 0 .6.2.6 1s-.1 1-.6 1-.6-.2-.6-1 .2-1 .6-1m0-.9c-1.4 0-2 .5-2 1.9s.5 1.9 2 1.9c1.4 0 2-.5 2-1.9s-.6-1.9-2-1.9M90.8 62h1.3L91 60.1l1-1.8h-1.3l-.7 1.4-.7-1.4H88l1 1.8-1.2 1.9h1.3l.8-1.5.9 1.5zm-3.4 0v-3.6h-1.2L85 60.1c-.1.2-.2.3-.3.5 0-.2.1-.4.1-.6v-1.7h-1.2V62h1.2l1.1-1.7.3-.6c0 .2-.1.4-.1.6V62h1.3zm-6.9-2.5c.2-.1.4-.2.7-.2.3 0 .5.1.5 1 0 .8-.1 1-.5 1-.3 0-.4-.1-.6-.1v-1.7zm-.2-1.1h-1.1v5h1.3v-1.6c.3.2.7.3 1.2.3.9 0 1.4-.4 1.4-1.9 0-1.2-.4-1.9-1.3-1.9-.6 0-1.1.3-1.4.6l-.1-.5zm-2-1.5h-4.2v5h1.4v-4.1H77V62h1.4v-5.1zm-7.7 82.6h2c.7 0 .9.1.9.7 0 .5-.1.8-.8.8h-1.4v1.3h1.4c.8 0 .9.2.9.8 0 .7-.3.9-1.2.9-.6 0-1.1 0-2-.1l-.1 1.4c.8.1 1.7.2 2.6.2 1.9 0 2.6-.6 2.6-2.2 0-1.1-.3-1.6-1.3-1.8.9-.1 1.1-.8 1.1-1.8 0-1.3-.7-1.7-2.4-1.7-.8 0-1.6.1-2.4.2l.1 1.3zm-2.1 4c-.5 0-.7.2-.7.7v.5c0 .5.2.7.7.7h.4c.5 0 .7-.2.7-.7v-.5c0-.5-.2-.7-.7-.7h-.4zm-5.2-2.9c0-.9.1-1.2.8-1.2.8 0 .9.3.9 1.9-.3.2-.6.3-.9.3-.6-.1-.8-.3-.8-1m-1.6 4.6c.8.2 1.6.2 2 .2 2.3 0 3.1-.5 3.1-3.8 0-2.9-.5-3.7-2.8-3.7-2.1 0-2.7.8-2.7 2.6 0 1.3.5 2.2 2.1 2.2.6 0 1.1-.1 1.5-.4-.1 1.2-.3 1.6-1.3 1.6h-1.9v1.3zm20.2-15.3h-.7c-.5 0-.6-.1-.6-.6 0-.4.1-.5.6-.5h.7v1.1zm-2 .7c-.3 0-.9.1-1 .6l-.4 1.6h1.9l.3-1.4c0-.2.2-.3.5-.3h.7v1.7h1.8v-5.2c-.6-.1-1.2-.1-2.6-.1-1.9 0-2.4.4-2.4 1.7 0 .5.3 1.1 1.2 1.4zm-2.2-3h-1.9v1.8h-1.6v-1.8h-1.9v5.2h1.9v-2.1h1.6v2.1h1.9v-5.2zm-7.8 5.2h1.9l-1.5-2.7 1.4-2.5h-1.9l-1 1.9-1-1.9h-1.9l1.4 2.5-1.5 2.7h1.9l1.1-2.1 1.1 2.1zm-4.3-5.2h-2l-.8 3.1c-.1.2-.1.6-.2.9h-.1c0-.3-.1-.6-.1-.9l-.8-3.1h-2l1.6 4.7c.1.3.3.4.6.4h.3c-.1.3-.3.5-.5.6-.3.2-.8.2-1.5.2l-.2 1.2c.7.1 1.5.1 2.1-.1.8-.3 1.4-.8 1.8-2l1.8-5zm-8.5 1.4c1.4-.2 1.5-.8 2.3-3.4h-2c-.6 2.2-.7 2.8-1.7 2.8h-.3c.1-.3.1-.6.1-.9v-1.9h-2v7.2h2v-2.4c0-.2 0-.4-.1-.7h.4c1 0 1.1.5 1.8 3.1h2c-.9-3-1-3.6-2.5-3.8zm19.2 79.5h-.9v-3H74l-.3 1.1v1.8h-1.4c-.2 0-.3-.1-.2-.3l1.6-4.1h-1.8l-1.8 4.6c-.2.6.2 1.1.8 1.1h2.9v1.5h1.8v-1.5l.8-.2v-1zm-8.1 1c-.5 0-.7.2-.7.7v.5c0 .5.2.7.7.7h.4c.5 0 .7-.2.7-.7v-.5c0-.5-.2-.7-.7-.7h-.4zm-5.1-2.9c0-.9.1-1.2.8-1.2.8 0 .9.3.9 1.9-.3.2-.6.3-.9.3-.7-.1-.9-.3-.8-1m-1.6 4.6c.8.2 1.6.2 2 .2 2.3 0 3.1-.5 3.1-3.8 0-2.9-.5-3.7-2.8-3.7-2.1 0-2.7.8-2.7 2.6 0 1.3.5 2.2 2.1 2.2.6 0 1.1-.1 1.5-.4-.1 1.2-.3 1.6-1.3 1.6h-1.9v1.3zm25.6-15.3h-.7c-.5 0-.6-.1-.6-.6 0-.4.1-.5.6-.5h.7v1.1zm-2.1.6c-.3 0-.9.1-1 .6l-.4 1.6h1.9l.3-1.4c0-.2.2-.3.5-.3h.7v1.7h1.8v-5.2c-.6-.1-1.2-.1-2.6-.1-1.9 0-2.4.4-2.4 1.7.1.6.4 1.2 1.2 1.4zm-2.1 2.3v-5.2h-1.7l-1.7 2.5c-.2.2-.3.5-.4.8 0-.3.1-.5.1-.8v-2.4h-1.7v5.2h1.6l1.6-2.4c.1-.2.3-.6.4-.9 0 .3-.1.6-.1.9v2.3h1.9zm-8.1-2.8c1.2-.2 1.2-.3 1.8-2.5h-1.9c-.5 1.7-.6 1.9-1.1 1.9h-.3c0-.2.1-.4.1-.6v-1.2h-1.7v1.2c0 .2 0 .4.1.6h-.3c-.5 0-.6-.2-1.1-1.9h-1.9c.7 2.1.6 2.3 1.8 2.5v.1c-1.3.2-1.3.3-2 2.7h1.9c.7-2 .7-2.1 1.1-2.1h.4c0 .2-.1.3-.1.4v1.7h1.7v-1.7c0-.1 0-.3-.1-.4h.4c.5 0 .5.1 1.2 2.1h1.9c-.6-2.5-.6-2.6-1.9-2.8zm-9.4 1.5h-1.5c.3-.6.4-1.3.6-2.3 0-.3.2-.4.5-.4h.5v2.7zm2.6 0h-.9v-3.9h-2.9c-.9 0-1.4.4-1.5 1.3-.1.9-.3 1.8-.6 2.7h-.6v2.7h1.3l.1-1.4h3.7l.1 1.4H68v-2.8zm-9.6-2.7c.6 0 .8.3.8 1.4 0 1.1-.2 1.4-.8 1.4-.6 0-.8-.3-.8-1.4-.1-1.2.1-1.4.8-1.4m0-1.4c-2 0-2.8.7-2.8 2.7s.8 2.7 2.8 2.7c2 0 2.8-.7 2.8-2.7-.1-1.9-.8-2.7-2.8-2.7m-3.9-1.9h-3.3c-1.1 0-1.7.6-1.8 1.7-.1 1.7-.3 2.7-.5 3.3-.2.5-.5.6-1 .7l.1 1.5c1.3.2 2.2-.2 2.7-1.7.3-.9.4-2.2.6-3.7 0-.4.2-.5.6-.5h.7v5.9h2v-7.2z" class="st3"/><path d="M29.4 23.9s-5.4 0-5.4 5.4v32s0 5.4 5.4 5.4h7.2s5.4 0 5.4-5.4v-32s0-5.4-5.4-5.4h-7.2z" class="st5"/><path d="M31.1 26.9s-5.4 0-5.4 5.4v26.1s0 5.4 5.4 5.4h3.8s5.4 0 5.4-5.4V32.3s0-5.4-5.4-5.4h-3.8z" class="st5"/><path d="M30 30.5s-2.7 0-2.7 2.7v26.2s0 2.7 2.7 2.7h6s2.7 0 2.7-2.7V33.2s0-2.7-2.7-2.7h-6z" class="st5"/><path d="M33 58.9c.4 0 .8-.4.8-.8s-.4-.8-.8-.8-.8.4-.8.8.4.8.8.8z" class="st5"/><path d="M43 21.6v47.7" style="fill:none;stroke:#3c3c3b;stroke-width:.567"/><defs><path id="SVGID_3_" d="M17.2 16.9h293.6v208.5H17.2z"/></defs><clipPath id="SVGID_4_"><use xlink:href="#SVGID_3_" style="overflow:visible"/></clipPath><path d="M49.9 55.4c-2.8 0-5.1 2.3-5.1 5.1V66c0 .4.3.8.8.8h11.6c.4 0 .8-.3.8-.8v-5.4c0-2.8-2.3-5.1-5.1-5.1h-3zm7.2 11.7H45.5c-.6 0-1.1-.5-1.1-1.1v-5.4c0-3 2.4-5.4 5.4-5.4h2.9c3 0 5.4 2.4 5.4 5.4V66c.1.6-.4 1.1-1 1.1" class="st7"/><path d="M49.9 55.4c-2.8 0-5.1 2.3-5.1 5.1V66c0 .4.3.8.8.8h11.6c.4 0 .8-.3.8-.8v-5.4c0-2.8-2.3-5.1-5.1-5.1h-3zm7.2 11.7H45.5c-.6 0-1.1-.5-1.1-1.1v-5.4c0-3 2.4-5.4 5.4-5.4h2.9c3 0 5.4 2.4 5.4 5.4V66c.1.6-.4 1.1-1 1.1z" class="st8"/><path d="M49.9 56.7c-2.1 0-3.8 1.7-3.8 3.8v3.2c0 .4.3.7.7.7H56c.4 0 .7-.3.7-.7v-3.2c0-2.1-1.7-3.8-3.8-3.8h-3zm6 8h-9.2c-.5 0-1-.4-1-1v-3.2c0-2.3 1.9-4.1 4.1-4.1h2.9c2.3 0 4.1 1.9 4.1 4.1v3.2c.1.6-.3 1-.9 1" class="st7"/><path d="M49.9 56.7c-2.1 0-3.8 1.7-3.8 3.8v3.2c0 .4.3.7.7.7H56c.4 0 .7-.3.7-.7v-3.2c0-2.1-1.7-3.8-3.8-3.8h-3zm6 8h-9.2c-.5 0-1-.4-1-1v-3.2c0-2.3 1.9-4.1 4.1-4.1h2.9c2.3 0 4.1 1.9 4.1 4.1v3.2c.1.6-.3 1-.9 1z" class="st8"/><path d="M51.3 59.4c-.4 0-.6.3-.6.6 0 .4.3.6.6.6s.6-.3.6-.6-.2-.6-.6-.6m0 1.6c-.5 0-.9-.4-.9-.9s.4-.9.9-.9.9.4.9.9-.4.9-.9.9" class="st7"/><path d="M51.3 59.4c-.4 0-.6.3-.6.6 0 .4.3.6.6.6s.6-.3.6-.6-.2-.6-.6-.6zm0 1.6c-.5 0-.9-.4-.9-.9s.4-.9.9-.9.9.4.9.9-.4.9-.9.9z" class="st8"/><path d="M44.7 22.1h16.7v16H44.7zm182.9 155.2h61v2.4h-61zm2.8-8h61v7.9h-61zm-77.7 8h61v2.4h-61zm2.9-8h61v7.9h-61z" class="st2"/><path d="M285.5 177h23.9v3.1h-23.9z" class="st1"/><path d="M287.8 169h21.7v9.1h-21.7z" class="st1"/><path d="m211.91 39.203.86-.512 11.355 19.077-.86.511z" class="st2"/><defs><path id="SVGID_5_" d="M17.2 16.9h293.6v208.5H17.2z"/></defs><clipPath id="SVGID_6_"><use xlink:href="#SVGID_5_" style="overflow:visible"/></clipPath><path d="M223.1 58.4s-2.2 1.3-6.4 2.5c-3.8 1.1-7.5.8-7.5.8" style="clip-path:url(#SVGID_6_);fill:none;stroke:#3c3c3b;stroke-width:.446"/><path d="m75.883 21.073.512-.86L95.47 31.57l-.512.86z" class="st2"/><defs><path id="SVGID_7_" d="M17.2 16.9h293.6v208.5H17.2z"/></defs><clipPath id="SVGID_8_"><use xlink:href="#SVGID_7_" style="overflow:visible"/></clipPath><path d="M95.6 31.3s1.3-2.2 2.5-6.4c1.1-3.8.8-7.5.8-7.5" style="clip-path:url(#SVGID_8_);fill:none;stroke:#3c3c3b;stroke-width:.446"/><path d="m133.515 175.636 19.076-11.354.512.859-19.076 11.355z" class="st2"/><defs><path id="SVGID_9_" d="M17.2 16.9h293.6v208.5H17.2z"/></defs><clipPath id="SVGID_10_"><use xlink:href="#SVGID_9_" style="overflow:visible"/></clipPath><path d="M153.2 165.3s1.2 1.7 1.8 5.6c.6 3.9.4 6 .4 6" style="clip-path:url(#SVGID_10_);fill:none;stroke:#3c3c3b;stroke-width:.446"/><path d="M62.1 177.3h61v2.4h-61zm2.8-8h61v7.9h-61zm39.9-100.1V95m-.3-25.5h10.4m-8.9 1.6h7.1v15.5H106zm0 17.4h7.1V93H106zM32.3 69.2V95m.3-25.5H22.3m1.8 1.6h7.1v15.5h-7.1zm0 17.4h7.1V93h-7.1zm92.673-16.822.512-.86 19.076 11.356-.512.859z" class="st2"/><defs><path id="SVGID_11_" d="M17.2 16.9h293.6v208.5H17.2z"/></defs><clipPath id="SVGID_12_"><use xlink:href="#SVGID_11_" style="overflow:visible"/></clipPath><path d="M136.5 82s1.3-2.2 2.5-6.4c1.1-3.8.8-7.5.8-7.5" style="clip-path:url(#SVGID_12_);fill:none;stroke:#3c3c3b;stroke-width:.446"/><path d="M42.713 176.354 61.79 165l.511.86-19.076 11.354z" class="st2"/><defs><path id="SVGID_13_" d="M17.2 16.9h293.6v208.5H17.2z"/></defs><clipPath id="SVGID_14_"><use xlink:href="#SVGID_13_" style="overflow:visible"/></clipPath><path d="M62.4 166s1.2 1.7 1.8 5.6.4 6 .4 6" style="clip-path:url(#SVGID_14_);fill:none;stroke:#3c3c3b;stroke-width:.446"/><path d="M80.898 106.235 99.974 94.88l.512.86-19.077 11.354z" class="st2"/><defs><path id="SVGID_15_" d="M17.2 16.9h293.6v208.5H17.2z"/></defs><clipPath id="SVGID_16_"><use xlink:href="#SVGID_15_" style="overflow:visible"/></clipPath><path d="M80.8 106.1s-1.3-2.2-2.5-6.4c-.6-2-.8-4.1-.8-5.5" style="clip-path:url(#SVGID_16_);fill:none;stroke:#3c3c3b;stroke-width:.446"/><path d="m68.254 94.784 8.897-14.954.687.409-8.896 14.954z" class="st15"/><defs><path id="SVGID_17_" d="M17.2 16.9h293.6v208.5H17.2z"/></defs><clipPath id="SVGID_18_"><use xlink:href="#SVGID_17_" style="overflow:visible"/></clipPath><path d="M77 79.7s-1.7-1-5-1.9c-1.6-.5-3.2-.6-4.3-.6" style="clip-path:url(#SVGID_18_);fill:none;stroke:#3c3c3b;stroke-width:.35"/><path d="m68.211 34.645.688-.409 8.895 14.955-.687.409z" class="st15"/><defs><path id="SVGID_19_" d="M17.2 16.9h293.6v208.5H17.2z"/></defs><clipPath id="SVGID_20_"><use xlink:href="#SVGID_19_" style="overflow:visible"/></clipPath><path d="M77 49.7s-1.7 1-5 1.9c-1.6.5-3.2.6-4.3.6" style="clip-path:url(#SVGID_20_);fill:none;stroke:#3c3c3b;stroke-width:.35"/><path d="M51.9 81.7c0-2.6-2.1-4.7-4.8-4.7h-6.9c-.5 0-.8.4-.8.8v7.8c0 .4.4.8.8.8h6.9c2.7.1 4.8-2.1 4.8-4.7m-12.8 3.9v-7.8c0-.6.5-1.1 1.1-1.1h6.9c2.8 0 5.1 2.3 5.1 5 0 2.8-2.3 5-5.1 5h-6.9c-.5.1-1.1-.4-1.1-1.1" class="st18"/><path d="M51.9 81.7c0-2.6-2.1-4.7-4.8-4.7h-6.9c-.5 0-.8.4-.8.8v7.8c0 .4.4.8.8.8h6.9c2.7.1 4.8-2.1 4.8-4.7zm-12.8 3.9v-7.8c0-.6.5-1.1 1.1-1.1h6.9c2.8 0 5.1 2.3 5.1 5 0 2.8-2.3 5-5.1 5h-6.9c-.5.1-1.1-.4-1.1-1.1z" class="st19"/><path d="M41.8 78.4v6.8s0 .1.1.1H47c1.9 0 3.5-1.6 3.5-3.5s-1.6-3.5-3.5-3.5l-5.2.1c0-.1 0-.1 0 0z" class="st19"/><path d="M41.9 78.4V85H47c1.8 0 3.3-1.5 3.3-3.3 0-1.8-1.5-3.3-3.3-3.3h-5.1zm-.3 6.7v-6.8c0-.1.1-.2.2-.2H47c2 0 3.7 1.6 3.7 3.6s-1.6 3.6-3.7 3.6h-5.2c-.1.1-.2-.1-.2-.2" class="st18"/><path d="M41.9 78.4V85H47c1.8 0 3.3-1.5 3.3-3.3 0-1.8-1.5-3.3-3.3-3.3h-5.1zm-.3 6.7v-6.8c0-.1.1-.2.2-.2H47c2 0 3.7 1.6 3.7 3.6s-1.6 3.6-3.7 3.6h-5.2c-.1.1-.2-.1-.2-.2z" class="st19"/><path d="M47 81.7c0-.5-.4-.9-.9-.9s-.9.4-.9.9.4.9.9.9.9-.4.9-.9m-2 0c0-.7.5-1.2 1.2-1.2s1.2.5 1.2 1.2-.5 1.2-1.2 1.2-1.2-.5-1.2-1.2" class="st18"/><path d="M47 81.7c0-.5-.4-.9-.9-.9s-.9.4-.9.9.4.9.9.9.9-.4.9-.9zm-2 0c0-.7.5-1.2 1.2-1.2s1.2.5 1.2 1.2-.5 1.2-1.2 1.2-1.2-.5-1.2-1.2z" class="st19"/><path d="m42.5 79.1.1-.2 2.2 1.5-.2.3z" class="st1"/><path d="m42.5 79.1.1-.2 2.2 1.5-.2.3z" class="st20"/><path d="m42.5 84.3 2.1-1.6.2.3-2.2 1.6z" class="st1"/><path d="m42.5 84.3 2.1-1.6.2.3-2.2 1.6z" class="st20"/><defs><path id="SVGID_21_" d="M17.2 16.9h293.6v208.5H17.2z"/></defs><clipPath id="SVGID_22_"><use xlink:href="#SVGID_21_" style="overflow:visible"/></clipPath><path d="M39.1 78.5c0-.7-.6-1.3-1.3-1.3H36c-.7 0-1.3.6-1.3 1.3V85c0 .7.6 1.3 1.3 1.3h1.8c.7 0 1.3-.6 1.3-1.3v-6.5zM34.3 85v-6.5c0-.9.7-1.6 1.6-1.6h1.8c.9 0 1.6.7 1.6 1.6V85c0 .9-.7 1.6-1.6 1.6H36c-.9 0-1.7-.7-1.7-1.6" class="st21"/><path d="M39.1 78.5c0-.7-.6-1.3-1.3-1.3H36c-.7 0-1.3.6-1.3 1.3V85c0 .7.6 1.3 1.3 1.3h1.8c.7 0 1.3-.6 1.3-1.3v-6.5zM34.3 85v-6.5c0-.9.7-1.6 1.6-1.6h1.8c.9 0 1.6.7 1.6 1.6V85c0 .9-.7 1.6-1.6 1.6H36c-.9 0-1.7-.7-1.7-1.6z" class="st22"/><path d="M37.4 81.7c0-.3-.2-.5-.5-.5s-.5.2-.5.5.2.5.5.5.5-.2.5-.5m-1.3 0c0-.4.4-.8.8-.8s.8.4.8.8-.4.8-.8.8-.8-.3-.8-.8" class="st21"/><path d="M37.4 81.7c0-.3-.2-.5-.5-.5s-.5.2-.5.5.2.5.5.5.5-.2.5-.5zm-1.3 0c0-.4.4-.8.8-.8s.8.4.8.8-.4.8-.8.8-.8-.3-.8-.8z" class="st22"/><path d="M23.5 111.8H38V97.2H23.5v14.6zm-.3-14.9h15.2v15.2H23.2V96.9z" class="st1"/><path d="M23.5 111.8H38V97.2H23.5v14.6zm-.3-14.9h15.2v15.2H23.2V96.9z" class="st23"/><defs><path id="SVGID_23_" d="M17.2 16.9h293.6v208.5H17.2z"/></defs><clipPath id="SVGID_24_"><use xlink:href="#SVGID_23_" style="overflow:visible"/></clipPath><path d="M36.7 99.4c0-.4-.3-.7-.7-.7h-7.6c-.4 0-.7.3-.7.7v10.2c0 .4.3.7.7.7H36c.4 0 .7-.3.7-.7V99.4zm-9.3 10.2V99.4c0-.5.4-1 1-1H36c.5 0 1 .4 1 1v10.2c0 .5-.4 1-1 1h-7.6c-.5 0-1-.5-1-1" style="clip-path:url(#SVGID_24_);fill:#3c3c3b"/><path d="M36.7 99.4c0-.4-.3-.7-.7-.7h-7.6c-.4 0-.7.3-.7.7v10.2c0 .4.3.7.7.7H36c.4 0 .7-.3.7-.7V99.4zm-9.3 10.2V99.4c0-.5.4-1 1-1H36c.5 0 1 .4 1 1v10.2c0 .5-.4 1-1 1h-7.6c-.5 0-1-.5-1-1z" style="clip-path:url(#SVGID_24_);fill:none;stroke:#3c3c3b;stroke-width:.224"/><path d="M28.9 109.1h6.7v-9.2h-6.7v9.2zm-.3-9.5h7.3v9.9h-7.3v-9.9z" class="st1"/><path d="M28.9 109.1h6.7v-9.2h-6.7v9.2zm-.3-9.5h7.3v9.9h-7.3v-9.9z" class="st23"/><defs><path id="SVGID_25_" d="M17.2 16.9h293.6v208.5H17.2z"/></defs><clipPath id="SVGID_26_"><use xlink:href="#SVGID_25_" style="overflow:visible"/></clipPath><path d="M33.5 104.5c0-.5-.4-.8-.8-.8s-.8.4-.8.8c0 .5.4.8.8.8s.8-.3.8-.8m-2 0c0-.6.5-1.2 1.2-1.2.6 0 1.2.5 1.2 1.2 0 .6-.5 1.2-1.2 1.2s-1.2-.6-1.2-1.2" style="clip-path:url(#SVGID_26_);fill:#3c3c3b"/><path d="M33.5 104.5c0-.5-.4-.8-.8-.8s-.8.4-.8.8c0 .5.4.8.8.8s.8-.3.8-.8zm-2 0c0-.6.5-1.2 1.2-1.2.6 0 1.2.5 1.2 1.2 0 .6-.5 1.2-1.2 1.2s-1.2-.6-1.2-1.2z" style="clip-path:url(#SVGID_26_);fill:none;stroke:#3c3c3b;stroke-width:.224"/></g></switch></svg>