<?xml version="1.0" encoding="UTF-8"?>
<svg id="_Слой_1" data-name="Слой_1" xmlns="http://www.w3.org/2000/svg" version="1.1" viewBox="0 0 1200 1200">
  <!-- Generator: Adobe Illustrator 29.4.0, SVG Export Plug-In . SVG Version: 2.1.0 Build 152)  -->
  <defs>
    <style>
      .st0 {
        fill: none;
        stroke: #3c3c3b;
      }

      .st1 {
        fill: #deeaf8;
      }

      .st2 {
        fill: #3c3c3b;
      }
    </style>
  </defs>
  <rect class="st1" x="377.77" y="267.77" width="425.14" height="733.06"/>
  <rect class="st2" x="370.53" y="246.75" width="50.97" height="20.41"/>
  <rect class="st0" x="370.53" y="246.75" width="50.97" height="20.41"/>
  <rect class="st2" x="540.38" y="246.75" width="50.97" height="20.41"/>
  <rect class="st0" x="540.38" y="246.75" width="50.97" height="20.41"/>
  <rect class="st2" x="778.9" y="144.02" width="25.83" height="99.74"/>
  <rect class="st0" x="778.9" y="144.02" width="25.83" height="99.74"/>
  <rect class="st0" x="420.34" y="246.75" width="73.85" height="20.41"/>
  <rect class="st2" x="370.53" y="242.03" width="55.52" height="4.67"/>
  <rect class="st0" x="370.53" y="242.03" width="55.52" height="4.67"/>
  <rect class="st2" x="535.82" y="242.03" width="55.52" height="4.67"/>
  <rect class="st0" x="535.82" y="242.03" width="55.52" height="4.67"/>
  <rect class="st2" x="591.3" y="246.75" width="50.97" height="20.41"/>
  <rect class="st0" x="591.3" y="246.75" width="50.97" height="20.41"/>
  <rect class="st0" x="631.53" y="246.75" width="82.17" height="20.41"/>
  <rect class="st2" x="758.44" y="246.75" width="50.97" height="20.41"/>
  <rect class="st0" x="758.44" y="246.75" width="50.97" height="20.41"/>
  <rect class="st2" x="591.3" y="242.03" width="55.52" height="4.67"/>
  <rect class="st0" x="591.3" y="242.03" width="55.52" height="4.67"/>
  <rect class="st0" x="630.14" y="242.03" width="88.12" height="4.67"/>
  <rect class="st2" x="753.88" y="242.03" width="55.52" height="4.67"/>
  <rect class="st0" x="753.88" y="242.03" width="55.52" height="4.67"/>
  <rect class="st0" x="420.34" y="242.03" width="79.75" height="4.67"/>
  <rect class="st2" x="584.37" y="144.02" width="12.3" height="56.22"/>
  <rect class="st0" x="584.37" y="144.02" width="12.3" height="56.22"/>
  <rect class="st2" x="584.37" y="266.65" width="12.3" height="286.94"/>
  <rect class="st0" x="584.37" y="266.65" width="12.3" height="286.94"/>
  <rect class="st2" x="584.37" y="615.15" width="12.3" height="478.7"/>
  <rect class="st0" x="584.37" y="615.15" width="12.3" height="478.7"/>
  <rect class="st2" x="364.86" y="172.74" width="12.3" height="853.84"/>
  <rect class="st0" x="364.86" y="172.74" width="12.3" height="853.84"/>
  <rect class="st2" x="371.8" y="479.57" width="160.37" height="10.22"/>
  <rect class="st0" x="371.8" y="479.57" width="160.37" height="10.22"/>
  <rect class="st2" x="648.86" y="518.41" width="160.37" height="10.22"/>
  <rect class="st0" x="648.86" y="518.41" width="160.37" height="10.22"/>
  <rect class="st2" x="803.52" y="144.02" width="10.22" height="435.93"/>
  <rect class="st0" x="803.52" y="144.02" width="10.22" height="435.93"/>
  <rect class="st2" x="803.52" y="637.35" width="10.22" height="370.62"/>
  <rect class="st0" x="803.52" y="637.35" width="10.22" height="370.62"/>
  <rect class="st2" x="803.52" y="908.57" width="10.22" height="215.45"/>
  <rect class="st0" x="803.52" y="1023.09" width="10.22" height="100.93"/>
  <rect class="st2" x="376.3" y="656.59" width="154.77" height="10.74"/>
  <rect class="st0" x="376.3" y="656.59" width="154.77" height="10.74"/>
  <rect class="st2" x="589.91" y="656.59" width="35.86" height="10.74"/>
  <rect class="st0" x="589.91" y="656.59" width="35.86" height="10.74"/>
  <rect class="st2" x="678.14" y="656.59" width="133.02" height="10.74"/>
  <rect class="st0" x="678.14" y="656.59" width="133.02" height="10.74"/>
  <rect class="st2" x="374.9" y="544.02" width="136.44" height="5.89"/>
  <rect class="st0" x="374.9" y="544.02" width="136.44" height="5.89"/>
  <rect class="st2" x="504.87" y="528.32" width="5.89" height="56.28"/>
  <rect class="st0" x="504.87" y="528.32" width="5.89" height="56.28"/>
  <rect class="st2" x="504.87" y="621.22" width="5.89" height="40.7"/>
  <rect class="st0" x="504.87" y="621.22" width="5.89" height="40.7"/>
  <rect class="st2" x="578.19" y="1001.45" width="59.2" height="20.41"/>
  <rect class="st0" x="578.19" y="1001.45" width="59.2" height="20.41"/>
  <rect class="st0" x="627.23" y="1001.45" width="92.2" height="20.41"/>
  <rect class="st2" x="763.28" y="1001.45" width="47.31" height="20.41"/>
  <rect class="st0" x="763.28" y="1001.45" width="47.31" height="20.41"/>
  <rect class="st2" x="545.33" y="1001.45" width="58.91" height="20.41"/>
  <rect class="st0" x="545.33" y="1001.45" width="58.91" height="20.41"/>
  <rect class="st2" x="371.62" y="1001.45" width="43.64" height="25.13"/>
  <rect class="st0" x="371.62" y="1001.45" width="43.64" height="25.13"/>
  <rect class="st0" x="408.38" y="1001.45" width="152.45" height="25.13"/>
  <rect class="st2" x="576.88" y="1021.91" width="65.07" height="4.67"/>
  <rect class="st0" x="576.88" y="1021.91" width="65.07" height="4.67"/>
  <rect class="st0" x="635.87" y="1021.91" width="88.12" height="4.67"/>
  <rect class="st2" x="759.62" y="1021.91" width="51.94" height="4.67"/>
  <rect class="st0" x="759.62" y="1021.91" width="51.94" height="4.67"/>
  <rect class="st2" x="797.74" y="1021.91" width="16" height="4.67"/>
  <rect class="st0" x="797.74" y="1021.91" width="16" height="4.67"/>
  <rect class="st2" x="540.77" y="1021.91" width="64.67" height="4.67"/>
  <rect class="st0" x="540.77" y="1021.91" width="64.67" height="4.67"/>
  <rect class="st2" x="369.59" y="1021.91" width="50.23" height="4.67"/>
  <rect class="st0" x="369.59" y="1021.91" width="50.23" height="4.67"/>
  <rect class="st0" x="417.74" y="1021.91" width="139.79" height="4.67"/>
  <rect class="st0" x="378.48" y="491.06" width="16.72" height="51.65"/>
  <line class="st0" x1="392.57" y1="542.57" x2="392.57" y2="490.8"/>
  <polyline class="st0" points="392.57 540.04 380.51 538.89 380.51 506.21 392.57 504.78 392.57 502.62 380.38 501.19 380.38 493.88 392.57 492.31"/>
  <rect class="st0" x="722.61" y="498.73" width="54.96" height="18.36"/>
  <line class="st0" x1="777.37" y1="501.6" x2="722.37" y2="501.6"/>
  <polyline class="st0" points="774.73 501.58 773.51 514.86 738.72 514.86 737.2 501.58 734.91 501.58 733.39 515.01 725.61 515.01 723.93 501.58"/>
  <g>
    <path class="st0" d="M425.2,1026.61v59.96c0,1.92,1.55,3.47,3.47,3.47h104.89c1.92,0,3.47-1.55,3.47-3.47v-59.96h-111.82Z"/>
    <path class="st0" d="M429.44,1026.61l3.94,51.68c0,1.92,1.55,3.47,3.47,3.47h88.53c1.92,0,3.47-1.55,3.47-3.47l3.94-51.68h-103.34Z"/>
  </g>
  <rect class="st0" x="594.07" y="144.02" width="187.07" height="6.28"/>
  <polygon class="st0" points="373.88 173.09 373.88 179.37 587.65 150.3 587.65 144.02 373.88 173.09"/>
  <path class="st0" d="M494.81,246.14s0,5.78,2.57,12.98c2.15,6.02,6.43,11.65,6.43,11.65l40.03-22.64-.9-1.42-40.11,22.65"/>
  <path class="st0" d="M714.31,246.14s0,5.78,2.57,12.98c2.15,6.02,6.43,11.65,6.43,11.65l40.03-22.64-.9-1.42-40.11,22.65"/>
  <path class="st0" d="M585.07,482.84l-46.53-26.84s-2.43,3.81-4.51,12-2.08,13.87-2.08,13.87"/>
  <path class="st0" d="M596.06,522.98l46.53-26.84s2.43,3.81,4.51,12c2.08,8.18,2.08,13.87,2.08,13.87"/>
  <path class="st0" d="M506.24,627.28l21.42-37.43s-3.05-1.95-9.58-3.63c-6.53-1.67-11.07-1.67-11.07-1.67"/>
  <path class="st0" d="M506.24,485.81l21.42,37.43s-3.05,1.95-9.58,3.63c-6.53,1.67-11.07,1.67-11.07,1.67"/>
  <path class="st0" d="M811.24,647.87l-34.55-59.4s4.91-3.1,15.45-5.75c10.53-2.66,17.85-2.66,17.85-2.66"/>
  <path class="st0" d="M587.97,663.05l-50.24,28.95s-2.62-4.12-4.87-12.94c-2.25-8.83-2.25-14.96-2.25-14.96"/>
  <path class="st0" d="M621.46,663.05l50.24,28.95s2.62-4.12,4.87-12.94c2.25-8.83,2.25-14.96,2.25-14.96"/>
  <path class="st0" d="M720.56,1021.16s0-5.78,2.57-12.98c2.15-6.02,6.43-11.65,6.43-11.65l40.03,22.64-.9,1.42-40.11-22.65"/>
  <polygon class="st0" points="594.03 1087.31 594.03 1093.99 803.29 1124.29 803.29 1117.62 594.03 1087.31"/>
  <rect class="st0" x="462.36" y="551.04" width="36.98" height="34.43"/>
  <line class="st0" x1="462.25" y1="551.53" x2="499.2" y2="585.36"/>
  <line class="st0" x1="462.25" y1="585.75" x2="499.2" y2="551.92"/>
  <g>
    <path class="st2" d="M442.07,517.79c0-6.26-5.09-11.35-11.35-11.35h-16.44c-1.08,0-1.96.88-1.96,1.96v18.78c0,1.08.88,1.96,1.96,1.96h16.44c6.26,0,11.35-5.09,11.35-11.35M411.54,527.18v-18.78c0-1.51,1.23-2.74,2.74-2.74h16.44c6.69,0,12.13,5.44,12.13,12.13s-5.44,12.13-12.13,12.13h-16.44c-1.51,0-2.74-1.23-2.74-2.74"/>
    <path class="st0" d="M442.07,517.79c0-6.26-5.09-11.35-11.35-11.35h-16.44c-1.08,0-1.96.88-1.96,1.96v18.78c0,1.08.88,1.96,1.96,1.96h16.44c6.26,0,11.35-5.09,11.35-11.35ZM411.54,527.18v-18.78c0-1.51,1.23-2.74,2.74-2.74h16.44c6.69,0,12.13,5.44,12.13,12.13s-5.44,12.13-12.13,12.13h-16.44c-1.51,0-2.74-1.23-2.74-2.74Z"/>
    <path class="st0" d="M417.8,509.65v16.27c0,.11.09.2.2.2h12.39c4.58,0,8.33-3.75,8.33-8.34s-3.76-8.33-8.33-8.33h-12.39c-.1,0-.2.09-.2.19Z"/>
    <path class="st2" d="M418.19,509.85v15.89h12.19c4.38,0,7.94-3.56,7.94-7.94s-3.56-7.94-7.94-7.94h-12.19ZM417.41,525.93v-16.27c0-.32.27-.58.58-.58h12.39c4.81,0,8.72,3.91,8.72,8.72s-3.91,8.72-8.72,8.72h-12.39c-.32,0-.58-.27-.58-.59"/>
    <path class="st0" d="M418.19,509.85v15.89h12.19c4.38,0,7.94-3.56,7.94-7.94s-3.56-7.94-7.94-7.94h-12.19ZM417.41,525.93v-16.27c0-.32.27-.58.58-.58h12.39c4.81,0,8.72,3.91,8.72,8.72s-3.91,8.72-8.72,8.72h-12.39c-.32,0-.58-.27-.58-.59Z"/>
    <path class="st2" d="M430.41,517.79c0-1.18-.96-2.15-2.15-2.15s-2.14.96-2.14,2.15.96,2.15,2.14,2.15,2.15-.96,2.15-2.15M425.34,517.79c0-1.61,1.31-2.92,2.92-2.92s2.92,1.31,2.92,2.92-1.31,2.93-2.92,2.93-2.92-1.31-2.92-2.93"/>
    <path class="st0" d="M430.41,517.79c0-1.18-.96-2.15-2.15-2.15s-2.14.96-2.14,2.15.96,2.15,2.14,2.15,2.15-.96,2.15-2.15ZM425.34,517.79c0-1.61,1.31-2.92,2.92-2.92s2.92,1.31,2.92,2.92-1.31,2.93-2.92,2.93-2.92-1.31-2.92-2.93Z"/>
  </g>
  <rect class="st2" x="421.83" y="509.83" width=".78" height="6.51" transform="translate(-241.49 545.08) rotate(-53.31)"/>
  <rect class="st0" x="421.83" y="509.83" width=".78" height="6.51" transform="translate(-241.49 545.08) rotate(-53.31)"/>
  <polygon class="st2" points="419.38 524.01 424.58 520.11 425.05 520.73 419.85 524.63 419.38 524.01"/>
  <polygon class="st0" points="419.38 524.01 424.58 520.11 425.05 520.73 419.85 524.63 419.38 524.01"/>
  <g>
    <path class="st2" d="M411.5,509.96c0-1.73-1.41-3.14-3.14-3.14h-4.28c-1.73,0-3.15,1.41-3.15,3.14v15.67c0,1.73,1.41,3.14,3.15,3.14h4.28c1.73,0,3.14-1.41,3.14-3.14v-15.67ZM400.15,525.63v-15.67c0-2.16,1.76-3.92,3.93-3.92h4.28c2.17,0,3.92,1.76,3.92,3.92v15.67c0,2.16-1.76,3.92-3.92,3.92h-4.28c-2.17,0-3.93-1.76-3.93-3.92"/>
    <path class="st0" d="M411.5,509.96c0-1.73-1.41-3.14-3.14-3.14h-4.28c-1.73,0-3.15,1.41-3.15,3.14v15.67c0,1.73,1.41,3.14,3.15,3.14h4.28c1.73,0,3.14-1.41,3.14-3.14v-15.67ZM400.15,525.63v-15.67c0-2.16,1.76-3.92,3.93-3.92h4.28c2.17,0,3.92,1.76,3.92,3.92v15.67c0,2.16-1.76,3.92-3.92,3.92h-4.28c-2.17,0-3.93-1.76-3.93-3.92Z"/>
    <path class="st2" d="M407.43,517.79c0-.67-.55-1.22-1.22-1.22s-1.21.55-1.21,1.22.54,1.22,1.21,1.22,1.22-.55,1.22-1.22M404.22,517.79c0-1.1.9-1.99,1.99-1.99s2,.89,2,1.99-.9,2-2,2-1.99-.9-1.99-2"/>
    <path class="st0" d="M407.43,517.79c0-.67-.55-1.22-1.22-1.22s-1.21.55-1.21,1.22.54,1.22,1.21,1.22,1.22-.55,1.22-1.22ZM404.22,517.79c0-1.1.9-1.99,1.99-1.99s2,.89,2,1.99-.9,2-2,2-1.99-.9-1.99-2Z"/>
    <path class="st2" d="M433.23,575.66c-6.12,0-11.1-4.93-11.1-10.98v-11.65c0-.92.76-1.67,1.69-1.67h25.1c.93,0,1.69.75,1.69,1.67v11.65c0,6.06-4.98,10.98-11.11,10.98h-6.27ZM448.92,550.74h-25.1c-1.28,0-2.31,1.03-2.31,2.29v11.65c0,6.4,5.26,11.6,11.73,11.6h6.27c6.47,0,11.73-5.2,11.73-11.6v-11.65c0-1.26-1.04-2.29-2.31-2.29"/>
    <path class="st0" d="M433.23,575.66c-6.12,0-11.1-4.93-11.1-10.98v-11.65c0-.92.76-1.67,1.69-1.67h25.1c.93,0,1.69.75,1.69,1.67v11.65c0,6.06-4.98,10.98-11.11,10.98h-6.27ZM448.92,550.74h-25.1c-1.28,0-2.31,1.03-2.31,2.29v11.65c0,6.4,5.26,11.6,11.73,11.6h6.27c6.47,0,11.73-5.2,11.73-11.6v-11.65c0-1.26-1.04-2.29-2.31-2.29Z"/>
    <path class="st2" d="M433.23,572.91c-4.59,0-8.32-3.7-8.32-8.24v-6.8c0-.79.65-1.44,1.45-1.44h20.02c.8,0,1.45.65,1.45,1.44v6.8c0,4.54-3.74,8.24-8.33,8.24h-6.27ZM446.37,555.82h-20.02c-1.15,0-2.07.92-2.07,2.06v6.8c0,4.88,4.01,8.86,8.95,8.86h6.27c4.94,0,8.95-3.97,8.95-8.86v-6.8c0-1.14-.93-2.06-2.08-2.06"/>
    <path class="st0" d="M433.23,572.91c-4.59,0-8.32-3.7-8.32-8.24v-6.8c0-.79.65-1.44,1.45-1.44h20.02c.8,0,1.45.65,1.45,1.44v6.8c0,4.54-3.74,8.24-8.33,8.24h-6.27ZM446.37,555.82h-20.02c-1.15,0-2.07.92-2.07,2.06v6.8c0,4.88,4.01,8.86,8.95,8.86h6.27c4.94,0,8.95-3.97,8.95-8.86v-6.8c0-1.14-.93-2.06-2.08-2.06Z"/>
    <path class="st2" d="M436.36,567.15c-.77,0-1.4-.62-1.4-1.38s.63-1.38,1.4-1.38,1.4.62,1.4,1.38-.63,1.38-1.4,1.38M436.36,563.76c-1.12,0-2.04.9-2.04,2.01s.91,2.01,2.04,2.01,2.04-.9,2.04-2.01-.91-2.01-2.04-2.01"/>
    <path class="st0" d="M436.36,567.15c-.77,0-1.4-.62-1.4-1.38s.63-1.38,1.4-1.38,1.4.62,1.4,1.38-.63,1.38-1.4,1.38ZM436.36,563.76c-1.12,0-2.04.9-2.04,2.01s.91,2.01,2.04,2.01,2.04-.9,2.04-2.01-.91-2.01-2.04-2.01Z"/>
    <path class="st0" d="M398.31,569.53c.84,0,1.53.69,1.53,1.55s-.68,1.55-1.53,1.55-1.53-.7-1.53-1.55.68-1.55,1.53-1.55Z"/>
    <rect class="st0" x="380.09" y="554.86" width="36.44" height="96.78" rx="10.33" ry="10.33"/>
    <rect class="st0" x="383.49" y="561.58" width="29.63" height="83.35" rx="10.33" ry="10.33"/>
    <rect class="st0" x="386.76" y="565.29" width="23.1" height="71.53" rx="5.16" ry="5.16"/>
  </g>
  <polygon class="st0" points="419.57 551.07 419.57 551.07 419.57 655.43 377.05 655.43 377.05 551.07 419.57 551.07"/>
  <g>
    <path class="st2" d="M477.42,520.08c0-1.08.45-1.62,1.35-1.62s1.33.54,1.33,1.62v2.97c0,1.07-.44,1.61-1.33,1.61s-1.35-.54-1.35-1.61v-2.97ZM475.85,525.94c.68.72,1.65,1.08,2.91,1.08s2.23-.36,2.91-1.08c.67-.72,1.01-1.74,1.01-3.06v-3.01c0-1.23-.24-2.16-.72-2.8-.48-.64-1.19-.96-2.14-.96-1.14,0-1.94.49-2.4,1.46v-3.01c0-.75.12-1.27.35-1.57.23-.3.6-.45,1.09-.45.9,0,1.34.54,1.34,1.62v.58h2.44v-.42c0-1.33-.33-2.35-.99-3.06-.66-.72-1.61-1.07-2.86-1.07-2.64,0-3.95,1.43-3.95,4.28v8.42c0,1.32.34,2.33,1.02,3.06M473.21,524.46h-2.58v2.38h2.58v-2.38ZM464.91,514.27v12.57h2.58v-16.47h-1.74c-.1.27-.19.48-.26.65-.08.16-.19.35-.34.55-.15.2-.32.36-.5.47-.18.11-.43.21-.72.29-.3.08-.64.12-1.02.12v1.83h2.01Z"/>
    <path class="st2" d="M471.61,624.1l-3.79,14.12h2.59l3.81-14.21v-2.26h-7.75v2.35h5.15ZM464.85,635.84h-2.58v2.38h2.58v-2.38ZM453.85,637.33c.69.72,1.67,1.07,2.93,1.07s2.22-.36,2.87-1.07c.65-.72.98-1.74.98-3.06v-1.3c0-1.78-.6-2.94-1.8-3.46,1.2-.5,1.8-1.63,1.8-3.39v-.43c0-1.33-.33-2.35-.98-3.06-.66-.72-1.61-1.07-2.87-1.07s-2.24.36-2.93,1.07c-.69.71-1.04,1.73-1.04,3.06v.9h2.58v-1.06c0-1.08.44-1.62,1.33-1.62.44,0,.78.14,1,.41.23.28.34.77.34,1.47v.92c0,.63-.13,1.07-.39,1.34-.26.26-.65.4-1.16.4h-1.01v2.35h.87c.6,0,1.03.16,1.29.48.26.32.4.86.4,1.61v1.3c0,.69-.11,1.17-.34,1.45-.23.28-.56.41-1,.41-.88,0-1.33-.54-1.33-1.63v-1.53h-2.58v1.37c0,1.32.35,2.34,1.04,3.06"/>
    <path class="st2" d="M486.52,602.47c0-.59.11-1.02.32-1.29.21-.27.55-.41,1.01-.41h1.24v5.07h-1.01c-.51,0-.9-.13-1.16-.4-.26-.26-.39-.71-.39-1.35v-1.62ZM486.26,614.88c.06-.19.1-.34.12-.43.02-.1.05-.28.08-.55.03-.27.04-.62.04-1.04v-2.59c0-.76.13-1.3.4-1.62.27-.32.69-.48,1.28-.48h.9v6.71h2.58v-16.47h-3.9c-1.33,0-2.29.31-2.91.93-.61.62-.92,1.57-.92,2.86v1.3c0,1.7.56,2.81,1.69,3.34-.62.26-1.06.68-1.32,1.26-.26.58-.39,1.33-.39,2.24v2.54c0,.89-.08,1.56-.24,2h2.58ZM478.47,601.37l1.25,8.29h-2.5l1.25-8.29ZM476.44,614.88l.45-2.99h3.17l.45,2.99h2.58l-2.62-16.47h-3.99l-2.62,16.47h2.58ZM467.08,614.88v-7.05h2.94v7.05h2.58v-16.47h-2.58v7.06h-2.94v-7.06h-2.58v16.47h2.58ZM457.04,614.88v-7.05h2.94v7.05h2.58v-16.47h-2.58v7.06h-2.94v-7.06h-2.58v16.47h2.58ZM448.82,601.37l1.25,8.29h-2.49l1.24-8.29ZM446.79,614.88l.45-2.99h3.17l.45,2.99h2.59l-2.62-16.47h-3.99l-2.62,16.47h2.59ZM437.92,600.77h1.26c.46,0,.8.14,1.01.41.21.27.31.7.31,1.29v.92c0,.63-.13,1.07-.39,1.34-.26.26-.65.4-1.17.4h-1.02v-4.35ZM437.92,607.48h1.16c.6,0,1.02.15,1.28.44.26.29.38.81.38,1.56v1.44c0,.59-.11,1.01-.33,1.25-.22.25-.56.37-1.01.37h-1.48v-5.05ZM439.41,614.88c1.29,0,2.26-.33,2.93-1,.67-.67,1-1.64,1-2.91v-1.34c0-1.85-.64-3.03-1.93-3.53,1.12-.53,1.68-1.63,1.68-3.32v-.59c0-1.29-.31-2.24-.92-2.86-.62-.62-1.59-.93-2.91-.93h-3.9v16.47h4.07Z"/>
    <path class="st2" d="M702.53,616.59c.69.71,1.67,1.07,2.93,1.07s2.22-.36,2.87-1.07c.65-.72.98-1.74.98-3.06v-1.3c0-1.78-.6-2.94-1.8-3.46,1.2-.5,1.8-1.63,1.8-3.39v-.42c0-1.33-.33-2.35-.98-3.06-.66-.71-1.61-1.07-2.87-1.07s-2.24.36-2.93,1.07c-.69.72-1.04,1.74-1.04,3.06v.9h2.59v-1.06c0-1.08.44-1.62,1.33-1.62.44,0,.78.14,1,.41.23.28.34.77.34,1.47v.92c0,.63-.13,1.07-.39,1.34-.26.26-.65.4-1.16.4h-1.01v2.36h.87c.6,0,1.03.16,1.29.48.26.32.4.86.4,1.61v1.3c0,.69-.11,1.17-.34,1.45-.23.28-.56.41-1,.41-.89,0-1.33-.54-1.33-1.63v-1.53h-2.59v1.37c0,1.32.35,2.34,1.04,3.06M699.84,615.1h-2.58v2.38h2.58v-2.38ZM692.93,603.36l-3.79,14.12h2.58l3.81-14.21v-2.26h-7.75v2.35h5.15Z"/>
    <path class="st2" d="M733.2,581.73c0-.59.11-1.02.32-1.29.21-.27.55-.41,1.01-.41h1.24v5.07h-1.01c-.51,0-.9-.13-1.16-.4-.26-.26-.39-.71-.39-1.35v-1.62ZM732.94,594.14c.06-.19.1-.34.12-.43.02-.1.05-.28.08-.55.03-.27.04-.62.04-1.04v-2.59c0-.76.13-1.3.4-1.62.27-.32.69-.48,1.28-.48h.9v6.71h2.58v-16.47h-3.9c-1.33,0-2.29.31-2.91.93-.61.62-.92,1.57-.92,2.86v1.3c0,1.7.56,2.81,1.69,3.34-.62.26-1.06.68-1.32,1.26-.26.58-.39,1.33-.39,2.24v2.54c0,.89-.08,1.56-.24,2h2.59ZM725.15,580.63l1.25,8.29h-2.5l1.24-8.29ZM723.12,594.14l.45-2.99h3.17l.45,2.99h2.58l-2.62-16.47h-3.99l-2.62,16.47h2.58ZM708.84,594.14l2.36-7.34.64,1.28v6.06h2.58v-6.03l.65-1.25,2.35,7.28h2.59l-3.17-9.75,3.17-6.72h-2.52l-3.07,6.66v-6.66h-2.58v6.66l-3.07-6.66h-2.52l3.21,6.76-3.21,9.72h2.59ZM700.07,581.46c0-1.08.45-1.62,1.35-1.62s1.34.54,1.34,1.62v8.89c0,1.09-.45,1.63-1.34,1.63s-1.35-.54-1.35-1.63v-8.89ZM698.5,593.25c.68.72,1.65,1.08,2.92,1.08s2.23-.36,2.91-1.08c.68-.72,1.01-1.74,1.01-3.06v-8.57c0-1.32-.34-2.34-1.01-3.06-.68-.72-1.64-1.08-2.91-1.08s-2.24.36-2.92,1.08c-.68.72-1.02,1.74-1.02,3.06v8.57c0,1.32.34,2.34,1.02,3.06M689.59,594.14l2.01-6.13,1.99,6.13h2.59l-2.88-8.39,2.71-8.08h-2.27l-1.99,6.11-1.96-6.11h-2.58l2.71,7.98-2.89,8.49h2.59ZM680.21,594.14l2.18-7.54,1.04-4.03v11.58h2.59v-16.47h-3.1l-2.11,6.8-.94,3.63v-10.43h-2.31v16.47h2.65ZM671.27,580.03h1.23c.43,0,.75.12.95.35.21.23.31.63.31,1.2v2.47c0,.57-.11.97-.31,1.2-.21.24-.52.36-.95.36h-1.23v-5.58ZM671.27,594.14v-6.19h1.23c1.28,0,2.24-.35,2.88-1.04s.97-1.7.97-3.03v-2.14c0-1.33-.32-2.34-.97-3.03-.65-.69-1.61-1.04-2.88-1.04h-3.81v16.47h2.58ZM661.23,594.14v-14.12h2.94v14.12h2.58v-16.47h-8.11v16.47h2.58Z"/>
    <path class="st2" d="M492.05,390.06v12.57h2.59v-16.47h-1.75c-.1.27-.19.48-.26.65-.08.16-.19.35-.34.55-.15.2-.32.36-.5.47-.18.11-.42.21-.72.29-.3.08-.64.12-1.02.12v1.83h2.01ZM486.67,400.25h-2.58v2.38h2.58v-2.38ZM482.25,402.62v-2.36h-4.87c-.02-.08-.02-.19-.02-.35,0-.36.1-.73.29-1.11.19-.38.44-.76.74-1.12s.64-.74,1-1.13c.37-.39.73-.82,1.09-1.27.36-.46.69-.93.99-1.43.3-.5.55-1.07.74-1.72.19-.65.29-1.32.29-2.03,0-1.33-.33-2.35-.98-3.06-.66-.72-1.61-1.07-2.86-1.07s-2.21.36-2.88,1.07c-.66.71-1,1.73-1,3.06v1.61h2.47v-1.77c0-1.08.45-1.62,1.34-1.62.44,0,.77.14,1,.41.22.28.33.77.33,1.47,0,.64-.09,1.25-.28,1.81-.19.56-.43,1.06-.73,1.49-.3.43-.64.85-1,1.25-.36.41-.73.81-1.1,1.22-.37.41-.7.83-1.01,1.26-.3.43-.55.94-.74,1.52-.19.58-.28,1.19-.28,1.84v2.02h7.48ZM469.05,390.06v12.57h2.58v-16.47h-1.74c-.1.27-.19.48-.26.65-.08.16-.19.35-.34.55-.15.2-.32.36-.5.47-.18.11-.43.21-.72.29-.3.08-.64.12-1.02.12v1.83h2.01Z"/>
    <path class="st2" d="M539.37,365.77l1.25,8.29h-2.49l1.24-8.29ZM537.34,379.29l.45-2.99h3.17l.45,2.99h2.58l-2.62-16.47h-3.99l-2.62,16.47h2.58ZM529.01,365.17v14.12h2.58v-14.12h2.71v-2.35h-8.01v2.35h2.71ZM521.43,365.77l1.25,8.29h-2.49l1.24-8.29ZM519.4,379.29l.45-2.99h3.17l.45,2.99h2.58l-2.62-16.47h-3.99l-2.62,16.47h2.58ZM510.04,379.29v-7.05h2.94v7.05h2.58v-16.47h-2.58v7.06h-2.94v-7.06h-2.58v16.47h2.58ZM496.97,379.29v-11.62l1.93,11.62h2.45l1.79-11.81v11.81h2.58v-16.47h-3.73l-1.77,11.73-1.91-11.73h-3.59v16.47h2.25ZM487.79,366.61c0-1.08.45-1.62,1.35-1.62s1.34.54,1.34,1.62v8.89c0,1.09-.45,1.63-1.34,1.63s-1.35-.54-1.35-1.63v-8.89ZM486.23,378.39c.68.72,1.65,1.08,2.92,1.08s2.23-.36,2.91-1.08c.68-.72,1.01-1.74,1.01-3.06v-8.57c0-1.32-.34-2.34-1.01-3.06-.68-.72-1.64-1.08-2.91-1.08s-2.24.36-2.92,1.08c-.68.72-1.02,1.74-1.02,3.06v8.57c0,1.32.34,2.34,1.02,3.06M478.28,379.29v-5.05l.8-1.5,2.52,6.56h2.65l-3.59-9.13,3.59-7.34h-2.58l-3.39,7.18v-7.18h-2.58v16.47h2.58ZM465.03,366.87c0-.59.11-1.02.32-1.29.21-.27.55-.41,1-.41h1.24v5.07h-1.01c-.51,0-.9-.13-1.16-.4-.26-.26-.39-.71-.39-1.35v-1.62ZM464.76,379.29c.06-.19.1-.34.12-.43.02-.1.05-.28.08-.55.03-.27.04-.62.04-1.04v-2.59c0-.76.13-1.3.4-1.62.27-.32.69-.48,1.28-.48h.9v6.71h2.59v-16.47h-3.9c-1.33,0-2.29.31-2.91.93-.61.62-.92,1.57-.92,2.86v1.3c0,1.7.56,2.81,1.69,3.34-.62.26-1.06.68-1.32,1.26-.26.58-.39,1.33-.39,2.24v2.54c0,.89-.08,1.56-.24,2h2.59ZM456.97,365.77l1.25,8.29h-2.5l1.24-8.29ZM454.94,379.29l.45-2.99h3.17l.45,2.99h2.58l-2.62-16.47h-3.99l-2.62,16.47h2.58ZM442.15,379.31c1.29,0,2.23-.32,2.82-.96.58-.64.9-1.72.95-3.21l.29-9.96h2.24v14.12h2.58v-16.47h-7.41l-.29,12.45c-.01.38-.05.69-.1.91-.05.22-.15.39-.28.51-.13.12-.29.19-.46.22-.17.03-.42.05-.74.05v2.35h.4ZM435.07,379.29l2.18-7.54,1.05-4.03v11.58h2.58v-16.47h-3.1l-2.11,6.8-.94,3.63v-10.43h-2.31v16.47h2.65ZM420.05,379.29l2.36-7.34.64,1.28v6.06h2.59v-6.03l.65-1.25,2.35,7.28h2.58l-3.17-9.75,3.17-6.72h-2.52l-3.06,6.66v-6.66h-2.59v6.66l-3.06-6.66h-2.52l3.21,6.76-3.21,9.72h2.58Z"/>
    <path class="st2" d="M709.73,390.21c0-.69.13-1.17.39-1.46s.62-.43,1.08-.43.82.14,1.07.42c.25.28.38.77.38,1.47v.92c0,1.15-.48,1.73-1.45,1.73s-1.47-.58-1.47-1.73v-.92ZM709.73,397.07c0-1.24.49-1.86,1.47-1.86s1.45.62,1.45,1.86v1.53c0,.69-.14,1.17-.39,1.45-.25.28-.61.41-1.06.41s-.82-.14-1.08-.42c-.26-.28-.39-.76-.39-1.44v-1.53ZM708.19,401.73c.7.72,1.7,1.08,3,1.08s2.3-.36,2.99-1.08c.69-.72,1.04-1.74,1.04-3.06v-1.3c0-1.68-.53-2.83-1.6-3.43,1.07-.6,1.6-1.7,1.6-3.31v-.53c0-1.32-.35-2.34-1.04-3.06-.69-.72-1.69-1.08-2.99-1.08s-2.3.36-3,1.08c-.7.72-1.04,1.74-1.04,3.06v.53c0,1.62.53,2.73,1.6,3.31-1.07.6-1.6,1.75-1.6,3.43v1.3c0,1.32.35,2.33,1.04,3.06M705.7,400.25h-2.58v2.38h2.58v-2.38ZM694.71,401.73c.69.72,1.67,1.07,2.93,1.07s2.22-.36,2.87-1.07c.65-.72.98-1.74.98-3.06v-1.3c0-1.78-.6-2.94-1.8-3.46,1.2-.5,1.8-1.63,1.8-3.39v-.42c0-1.33-.33-2.35-.98-3.06-.66-.72-1.61-1.07-2.87-1.07s-2.24.36-2.93,1.07c-.69.71-1.04,1.73-1.04,3.06v.9h2.58v-1.06c0-1.08.44-1.62,1.33-1.62.44,0,.78.14,1,.41.23.28.34.77.34,1.47v.92c0,.63-.13,1.07-.39,1.34-.26.26-.65.39-1.16.39h-1.01v2.36h.87c.6,0,1.03.16,1.29.48.26.32.4.86.4,1.61v1.3c0,.69-.11,1.17-.34,1.45-.23.28-.56.41-1,.41-.88,0-1.33-.54-1.33-1.63v-1.53h-2.58v1.37c0,1.32.35,2.34,1.04,3.06M688.08,390.06v12.57h2.58v-16.47h-1.74c-.1.27-.19.48-.26.65-.08.16-.19.35-.34.55-.15.2-.32.36-.5.47-.18.11-.43.21-.72.29-.3.08-.64.12-1.02.12v1.83h2.01Z"/>
    <path class="st2" d="M718.07,366.87c0-.59.11-1.02.32-1.29.21-.27.55-.41,1-.41h1.24v5.07h-1.01c-.51,0-.9-.13-1.16-.4-.26-.26-.39-.71-.39-1.35v-1.62ZM717.81,379.29c.06-.19.1-.34.12-.43.02-.1.05-.28.08-.55.03-.27.04-.62.04-1.04v-2.59c0-.76.13-1.3.4-1.62.27-.32.7-.48,1.29-.48h.9v6.71h2.59v-16.47h-3.9c-1.33,0-2.29.31-2.91.93-.61.62-.92,1.57-.92,2.86v1.3c0,1.7.56,2.81,1.69,3.34-.62.26-1.06.68-1.32,1.26-.26.58-.39,1.33-.39,2.24v2.54c0,.89-.08,1.56-.24,2h2.59ZM708.19,379.29v-7.05h2.94v7.05h2.58v-16.47h-2.58v7.06h-2.94v-7.06h-2.58v16.47h2.58ZM697.5,379.29l2.01-6.13,1.99,6.13h2.59l-2.88-8.39,2.71-8.08h-2.27l-1.99,6.11-1.96-6.11h-2.58l2.71,7.98-2.89,8.49h2.59ZM688.74,375.49l-.02.15c-.1.57-.33.94-.69,1.12-.36.18-.89.25-1.6.21v2.34c.69.05,1.3.02,1.82-.07.52-.1.96-.25,1.32-.46.36-.21.67-.5.92-.87.25-.37.46-.78.62-1.22.16-.44.3-.98.43-1.61l2.76-12.26h-2.59l-1.18,5.65-.61,3.81-.8-3.85-1.4-5.62h-2.58l3.59,12.67ZM678.77,379.29v-5.05l.8-1.5,2.52,6.56h2.65l-3.59-9.13,3.59-7.34h-2.58l-3.39,7.18v-7.18h-2.58v16.47h2.58Z"/>
    <path class="st2" d="M717.38,206.38c1.3,0,2.23-.27,2.79-.81s.84-1.47.84-2.78v-9.27c0-1.31-.28-2.24-.84-2.78s-1.49-.82-2.79-.82h-.79v2.24h.63c.43,0,.74.1.92.31.19.21.28.59.28,1.14v9.09c0,.56-.09.94-.28,1.14-.19.21-.49.31-.92.31h-.63v2.24h.79ZM712.21,194.85v6.19h-2.61l2.61-6.19ZM712.21,203.39v2.98h2.58v-2.98h1.18v-2.36h-1.18v-11.13h-2.83l-4.7,11.13v2.36h4.94ZM706.05,204h-2.58v2.38h2.58v-2.38ZM698.53,194.85v6.19h-2.61l2.61-6.19ZM698.53,203.39v2.98h2.58v-2.98h1.18v-2.36h-1.18v-11.13h-2.83l-4.7,11.13v2.36h4.94ZM689.25,205.57c.56.54,1.49.81,2.79.81h.79v-2.24h-.64c-.43,0-.74-.1-.92-.31-.18-.21-.28-.59-.28-1.14v-9.09c0-.56.09-.93.28-1.14.19-.21.49-.31.92-.31h.64v-2.24h-.79c-1.3,0-2.23.27-2.79.82-.56.55-.84,1.48-.84,2.78v9.27c0,1.31.28,2.24.84,2.78M677.55,193.96c0-.69.13-1.17.39-1.46.26-.28.62-.43,1.08-.43s.82.14,1.07.42c.25.28.38.77.38,1.46v.92c0,1.16-.48,1.73-1.45,1.73s-1.46-.58-1.46-1.73v-.92ZM677.55,200.83c0-1.24.49-1.86,1.46-1.86s1.45.62,1.45,1.86v1.53c0,.69-.14,1.17-.39,1.45-.25.27-.61.41-1.06.41s-.82-.14-1.08-.42c-.26-.28-.39-.76-.39-1.44v-1.53ZM676.01,205.48c.7.72,1.7,1.08,3,1.08s2.3-.36,3-1.08c.69-.72,1.04-1.74,1.04-3.06v-1.3c0-1.69-.53-2.83-1.6-3.44,1.07-.6,1.6-1.7,1.6-3.31v-.53c0-1.32-.34-2.33-1.04-3.06-.69-.72-1.69-1.08-3-1.08s-2.3.36-3,1.08c-.7.72-1.05,1.74-1.05,3.06v.53c0,1.62.54,2.73,1.6,3.31-1.07.6-1.6,1.75-1.6,3.44v1.3c0,1.32.35,2.34,1.05,3.06M673.51,204h-2.58v2.38h2.58v-2.38ZM663.87,193.96c0-.69.13-1.17.38-1.46.26-.28.62-.43,1.08-.43s.82.14,1.07.42c.25.28.38.77.38,1.46v.92c0,1.16-.48,1.73-1.45,1.73s-1.46-.58-1.46-1.73v-.92ZM663.87,200.83c0-1.24.49-1.86,1.46-1.86s1.45.62,1.45,1.86v1.53c0,.69-.14,1.17-.39,1.45-.25.27-.61.41-1.06.41s-.82-.14-1.08-.42c-.26-.28-.38-.76-.38-1.44v-1.53ZM662.33,205.48c.7.72,1.7,1.08,3,1.08s2.3-.36,3-1.08c.69-.72,1.04-1.74,1.04-3.06v-1.3c0-1.69-.53-2.83-1.6-3.44,1.07-.6,1.6-1.7,1.6-3.31v-.53c0-1.32-.34-2.33-1.04-3.06-.69-.72-1.69-1.08-3-1.08s-2.3.36-3,1.08c-.7.72-1.05,1.74-1.05,3.06v.53c0,1.62.53,2.73,1.6,3.31-1.07.6-1.6,1.75-1.6,3.44v1.3c0,1.32.35,2.34,1.05,3.06"/>
    <path class="st2" d="M577.25,604.87c.69.72,1.67,1.07,2.94,1.07s2.22-.36,2.87-1.07c.66-.72.98-1.74.98-3.06v-1.3c0-1.78-.6-2.94-1.8-3.46,1.2-.5,1.8-1.63,1.8-3.39v-.43c0-1.33-.33-2.35-.98-3.06-.66-.72-1.61-1.07-2.87-1.07s-2.24.36-2.94,1.07c-.69.71-1.04,1.73-1.04,3.06v.9h2.58v-1.06c0-1.08.44-1.62,1.33-1.62.44,0,.78.14,1,.41.23.28.34.77.34,1.47v.92c0,.63-.13,1.07-.39,1.34-.26.26-.65.4-1.16.4h-1.01v2.35h.87c.6,0,1.03.16,1.29.48.26.32.4.86.4,1.61v1.3c0,.69-.11,1.17-.34,1.45-.23.28-.56.41-1,.41-.88,0-1.33-.54-1.33-1.63v-1.53h-2.58v1.37c0,1.32.35,2.34,1.04,3.06M574.57,603.38h-2.58v2.38h2.58v-2.38ZM563.57,604.87c.69.72,1.67,1.07,2.93,1.07s2.22-.36,2.87-1.07c.65-.72.98-1.74.98-3.06v-1.3c0-1.78-.6-2.94-1.8-3.46,1.2-.5,1.8-1.63,1.8-3.39v-.43c0-1.33-.33-2.35-.98-3.06-.66-.72-1.61-1.07-2.87-1.07s-2.24.36-2.93,1.07c-.69.71-1.04,1.73-1.04,3.06v.9h2.58v-1.06c0-1.08.44-1.62,1.33-1.62.44,0,.78.14,1,.41.23.28.34.77.34,1.47v.92c0,.63-.13,1.07-.39,1.34-.26.26-.65.4-1.16.4h-1.01v2.35h.87c.6,0,1.03.16,1.29.48.26.32.4.86.4,1.61v1.3c0,.69-.11,1.17-.34,1.45-.23.28-.56.41-1,.41-.88,0-1.33-.54-1.33-1.63v-1.53h-2.58v1.37c0,1.32.35,2.34,1.04,3.06"/>
    <path class="st2" d="M601.68,568.31h1.23c.43,0,.75.12.95.35.21.23.31.63.31,1.2v2.47c0,.57-.1.97-.31,1.2-.21.24-.53.36-.95.36h-1.23v-5.58ZM601.68,582.43v-6.19h1.23c1.27,0,2.24-.35,2.88-1.04.65-.69.97-1.7.97-3.03v-2.14c0-1.33-.32-2.34-.97-3.03-.65-.69-1.61-1.04-2.88-1.04h-3.81v16.47h2.59ZM592.15,569.75c0-1.08.45-1.62,1.35-1.62s1.34.54,1.34,1.62v8.89c0,1.09-.45,1.63-1.34,1.63s-1.35-.54-1.35-1.63v-8.89ZM590.58,581.53c.68.72,1.65,1.08,2.92,1.08s2.24-.36,2.91-1.08c.68-.72,1.01-1.74,1.01-3.06v-8.57c0-1.32-.34-2.34-1.01-3.06-.67-.72-1.64-1.08-2.91-1.08s-2.24.36-2.92,1.08c-.68.72-1.02,1.74-1.02,3.06v8.57c0,1.32.34,2.34,1.02,3.06M581.75,579.29c.12-.32.19-.78.22-1.38l.47-9.6h2.18v11.77h-3.39c.23-.21.4-.48.51-.8M580.27,584.61v-2.18h5.48v2.18h2.59v-4.53h-1.13v-14.13h-7.35l-.47,12c-.02.5-.08.92-.18,1.24-.1.33-.25.62-.48.89h-1.04v4.53h2.58ZM570.93,582.43l2.18-7.54,1.05-4.03v11.58h2.58v-16.47h-3.1l-2.11,6.8-.94,3.63v-10.43h-2.31v16.47h2.65ZM561.99,568.31h1.23c.43,0,.75.12.95.35.21.23.31.63.31,1.2v2.47c0,.57-.1.97-.31,1.2-.21.24-.52.36-.95.36h-1.23v-5.58ZM561.99,582.43v-6.19h1.23c1.27,0,2.24-.35,2.88-1.04.64-.69.97-1.7.97-3.03v-2.14c0-1.33-.32-2.34-.97-3.03-.65-.69-1.61-1.04-2.88-1.04h-3.81v16.47h2.58ZM552.46,569.75c0-1.08.45-1.62,1.35-1.62s1.34.54,1.34,1.62v8.89c0,1.09-.45,1.63-1.34,1.63s-1.35-.54-1.35-1.63v-8.89ZM550.89,581.53c.68.72,1.65,1.08,2.92,1.08s2.23-.36,2.91-1.08c.68-.72,1.01-1.74,1.01-3.06v-8.57c0-1.32-.34-2.34-1.01-3.06-.68-.72-1.64-1.08-2.91-1.08s-2.24.36-2.92,1.08c-.68.72-1.02,1.74-1.02,3.06v8.57c0,1.32.34,2.34,1.02,3.06M542.95,582.43v-5.05l.8-1.5,2.52,6.56h2.65l-3.59-9.13,3.59-7.34h-2.58l-3.39,7.18v-7.18h-2.58v16.47h2.58Z"/>
    <path class="st2" d="M734.23,1070.68c1.3,0,2.23-.27,2.79-.82.56-.54.84-1.47.84-2.78v-9.27c0-1.31-.28-2.24-.84-2.79-.56-.55-1.49-.82-2.79-.82h-.79v2.24h.63c.43,0,.74.1.92.31.19.21.28.59.28,1.14v9.09c0,.56-.09.93-.28,1.14-.19.21-.49.31-.92.31h-.63v2.24h.79ZM732.16,1070.68v-2.36h-4.87c-.02-.08-.02-.2-.02-.35,0-.36.1-.73.29-1.12.19-.38.44-.75.74-1.11.3-.36.63-.74,1-1.13.37-.4.73-.82,1.09-1.28.36-.46.69-.93.99-1.43.3-.5.55-1.07.74-1.72.19-.65.29-1.32.29-2.03,0-1.33-.33-2.35-.98-3.06-.66-.71-1.61-1.07-2.86-1.07s-2.21.36-2.88,1.07c-.66.72-1,1.74-1,3.06v1.61h2.47v-1.77c0-1.08.45-1.62,1.34-1.62.44,0,.78.14,1,.41.22.28.33.77.33,1.47,0,.64-.09,1.25-.28,1.81-.19.56-.43,1.06-.73,1.49-.3.43-.63.85-1,1.25-.36.41-.73.81-1.1,1.22-.36.41-.7.83-1,1.26-.31.43-.55.94-.74,1.52-.19.58-.28,1.19-.28,1.84v2.02h7.48ZM722.9,1068.3h-2.58v2.38h2.58v-2.38ZM718.48,1070.68v-2.36h-4.87c-.02-.08-.02-.2-.02-.35,0-.36.1-.73.29-1.12.19-.38.44-.75.74-1.11s.64-.74,1-1.13c.37-.4.73-.82,1.09-1.28.36-.46.69-.93.99-1.43.3-.5.55-1.07.74-1.72.19-.65.29-1.32.29-2.03,0-1.33-.33-2.35-.98-3.06-.66-.71-1.61-1.07-2.86-1.07s-2.21.36-2.88,1.07c-.66.72-1,1.74-1,3.06v1.61h2.47v-1.77c0-1.08.45-1.62,1.34-1.62.44,0,.77.14,1,.41.22.28.33.77.33,1.47,0,.64-.09,1.25-.28,1.81-.19.56-.43,1.06-.73,1.49-.3.43-.64.85-1,1.25-.36.41-.73.81-1.1,1.22-.37.41-.7.83-1.01,1.26-.3.43-.55.94-.74,1.52-.19.58-.28,1.19-.28,1.84v2.02h7.48ZM706.1,1069.86c.56.55,1.49.82,2.79.82h.79v-2.24h-.64c-.43,0-.74-.1-.92-.31-.18-.21-.28-.59-.28-1.14v-9.09c0-.56.09-.94.28-1.14.19-.21.49-.31.92-.31h.64v-2.24h-.79c-1.3,0-2.23.27-2.79.82-.56.55-.84,1.48-.84,2.79v9.27c0,1.31.28,2.24.84,2.78M693.05,1069.78c.69.71,1.67,1.07,2.93,1.07s2.22-.36,2.87-1.07c.66-.72.98-1.74.98-3.06v-1.3c0-1.78-.6-2.94-1.8-3.46,1.2-.5,1.8-1.63,1.8-3.39v-.42c0-1.33-.33-2.35-.98-3.06-.65-.71-1.61-1.07-2.87-1.07s-2.24.36-2.93,1.07c-.7.72-1.04,1.74-1.04,3.06v.9h2.58v-1.06c0-1.08.44-1.62,1.33-1.62.44,0,.78.14,1,.41.23.28.34.77.34,1.47v.92c0,.63-.13,1.07-.39,1.34-.26.26-.65.4-1.16.4h-1.01v2.36h.87c.6,0,1.03.16,1.29.48.26.32.4.86.4,1.61v1.3c0,.69-.11,1.17-.34,1.45-.23.28-.56.41-1,.41-.89,0-1.33-.54-1.33-1.63v-1.53h-2.58v1.37c0,1.32.35,2.34,1.04,3.06M690.36,1068.3h-2.58v2.38h2.58v-2.38ZM682.84,1059.14v6.19h-2.61l2.61-6.19ZM682.84,1067.69v2.99h2.58v-2.99h1.18v-2.35h-1.18v-11.13h-2.83l-4.7,11.13v2.35h4.94Z"/>
    <path class="st2" d="M708.65,835.93c0-1.08.45-1.62,1.35-1.62s1.34.54,1.34,1.62v8.89c0,1.09-.45,1.63-1.34,1.63s-1.35-.54-1.35-1.63v-8.89ZM707.08,847.71c.68.72,1.65,1.08,2.92,1.08s2.23-.36,2.91-1.08c.68-.72,1.01-1.74,1.01-3.06v-8.57c0-1.32-.34-2.34-1.01-3.06-.68-.72-1.64-1.08-2.91-1.08s-2.24.36-2.92,1.08c-.68.72-1.02,1.74-1.02,3.06v8.57c0,1.32.34,2.33,1.02,3.06M704.5,846.23h-2.58v2.38h2.58v-2.38ZM694.92,835.93c0-1.06.45-1.6,1.34-1.6s1.35.53,1.35,1.6v2.96c0,1.08-.45,1.62-1.35,1.62s-1.34-.54-1.34-1.62v-2.96ZM693.06,841.9c.48.64,1.19.97,2.14.97,1.15,0,1.95-.49,2.41-1.46v3.01c0,.75-.12,1.28-.36,1.58-.24.3-.6.45-1.08.45-.9,0-1.35-.54-1.35-1.63v-.59h-2.43v.43c0,1.32.33,2.34.99,3.06.66.72,1.61,1.07,2.87,1.07,2.64,0,3.96-1.42,3.96-4.27v-8.43c0-1.32-.34-2.34-1.02-3.06-.68-.72-1.65-1.08-2.91-1.08s-2.24.36-2.91,1.08c-.67.72-1.01,1.74-1.01,3.06v3.02c0,1.22.24,2.15.72,2.79M686.88,836.04v12.57h2.58v-16.47h-1.74c-.1.27-.19.48-.26.65-.08.16-.19.35-.34.55-.15.2-.32.36-.5.47-.18.11-.43.21-.72.29-.3.08-.64.12-1.02.12v1.83h2.01Z"/>
    <path class="st2" d="M757.2,806.86l1.25,8.29h-2.49l1.24-8.29ZM755.17,820.38l.45-2.99h3.17l.45,2.99h2.58l-2.62-16.47h-3.99l-2.62,16.47h2.58ZM746.84,806.26v14.12h2.58v-14.12h2.71v-2.35h-8.01v2.35h2.71ZM739.26,806.86l1.25,8.29h-2.49l1.24-8.29ZM737.23,820.38l.45-2.99h3.17l.45,2.99h2.58l-2.62-16.47h-3.99l-2.62,16.47h2.58ZM727.87,820.38v-7.05h2.94v7.05h2.58v-16.47h-2.58v7.06h-2.94v-7.06h-2.58v16.47h2.58ZM714.8,820.38v-11.62l1.93,11.62h2.45l1.79-11.81v11.81h2.58v-16.47h-3.73l-1.77,11.73-1.91-11.73h-3.59v16.47h2.25ZM705.62,807.7c0-1.08.45-1.62,1.35-1.62s1.34.54,1.34,1.62v8.89c0,1.09-.45,1.63-1.34,1.63s-1.35-.54-1.35-1.63v-8.89ZM704.05,819.49c.68.72,1.65,1.08,2.92,1.08s2.23-.36,2.91-1.08c.68-.72,1.01-1.74,1.01-3.06v-8.57c0-1.32-.34-2.34-1.01-3.06-.68-.72-1.64-1.08-2.91-1.08s-2.24.36-2.92,1.08c-.68.72-1.02,1.74-1.02,3.06v8.57c0,1.32.34,2.34,1.02,3.06M696.11,820.38v-5.05l.8-1.5,2.52,6.56h2.65l-3.59-9.13,3.59-7.34h-2.58l-3.39,7.18v-7.18h-2.58v16.47h2.58ZM682.86,807.96c0-.59.11-1.02.32-1.29.21-.27.55-.41,1-.41h1.24v5.07h-1.01c-.51,0-.9-.13-1.16-.4-.26-.26-.39-.71-.39-1.35v-1.62ZM682.59,820.38c.06-.19.1-.34.12-.43.02-.1.05-.28.08-.55.03-.27.04-.62.04-1.04v-2.59c0-.76.13-1.3.4-1.62.27-.32.69-.48,1.28-.48h.9v6.71h2.58v-16.47h-3.9c-1.33,0-2.29.31-2.91.93-.61.62-.92,1.57-.92,2.86v1.3c0,1.7.56,2.81,1.69,3.34-.62.26-1.06.68-1.32,1.26-.26.58-.39,1.33-.39,2.24v2.54c0,.89-.08,1.56-.24,2h2.59ZM674.8,806.86l1.25,8.29h-2.5l1.24-8.29ZM672.77,820.38l.45-2.99h3.17l.45,2.99h2.58l-2.62-16.47h-3.99l-2.62,16.47h2.58ZM659.98,820.4c1.29,0,2.23-.32,2.82-.96.58-.64.9-1.72.95-3.21l.29-9.96h2.24v14.12h2.58v-16.47h-7.41l-.29,12.45c-.01.38-.05.69-.1.91-.05.22-.15.39-.28.51-.13.12-.29.19-.46.22-.17.03-.42.05-.74.05v2.35h.4ZM652.9,820.38l2.18-7.54,1.05-4.03v11.58h2.58v-16.47h-3.1l-2.11,6.8-.94,3.63v-10.43h-2.31v16.47h2.65ZM637.88,820.38l2.36-7.34.64,1.28v6.06h2.59v-6.03l.65-1.25,2.35,7.28h2.58l-3.17-9.75,3.17-6.72h-2.52l-3.06,6.66v-6.66h-2.59v6.66l-3.06-6.66h-2.52l3.21,6.76-3.21,9.72h2.58Z"/>
    <path class="st2" d="M493.61,910.26c0-1.08.45-1.62,1.35-1.62s1.34.54,1.34,1.62v8.89c0,1.09-.45,1.63-1.34,1.63s-1.35-.54-1.35-1.63v-8.89ZM492.05,922.04c.68.72,1.65,1.08,2.92,1.08s2.23-.36,2.91-1.08c.68-.72,1.01-1.74,1.01-3.06v-8.57c0-1.32-.34-2.34-1.01-3.06-.68-.72-1.64-1.08-2.91-1.08s-2.24.36-2.92,1.08c-.68.72-1.02,1.74-1.02,3.06v8.57c0,1.32.34,2.33,1.02,3.06M489.47,920.56h-2.58v2.38h2.58v-2.38ZM479.89,910.26c0-1.06.45-1.6,1.34-1.6s1.35.53,1.35,1.6v2.96c0,1.08-.45,1.62-1.35,1.62s-1.34-.54-1.34-1.62v-2.96ZM478.02,916.23c.48.64,1.19.97,2.14.97,1.15,0,1.95-.49,2.41-1.46v3.01c0,.75-.12,1.28-.36,1.58-.24.3-.6.45-1.08.45-.9,0-1.35-.54-1.35-1.63v-.59h-2.43v.43c0,1.32.33,2.34.99,3.06.66.72,1.61,1.07,2.87,1.07,2.64,0,3.96-1.42,3.96-4.27v-8.43c0-1.32-.34-2.34-1.02-3.06-.68-.72-1.65-1.08-2.91-1.08s-2.24.36-2.91,1.08c-.68.72-1.01,1.74-1.01,3.06v3.02c0,1.22.24,2.15.72,2.79M471.85,910.37v12.57h2.58v-16.47h-1.74c-.1.27-.19.48-.26.65-.08.16-.19.35-.34.55-.15.2-.32.36-.5.47-.18.11-.43.21-.72.29s-.64.12-1.02.12v1.83h2.01Z"/>
    <path class="st2" d="M542.16,881.19l1.25,8.29h-2.49l1.24-8.29ZM540.13,894.71l.45-2.99h3.17l.45,2.99h2.58l-2.62-16.47h-3.99l-2.62,16.47h2.58ZM531.81,880.59v14.12h2.58v-14.12h2.71v-2.35h-8.01v2.35h2.71ZM524.22,881.19l1.25,8.29h-2.49l1.24-8.29ZM522.19,894.71l.45-2.99h3.17l.45,2.99h2.58l-2.62-16.47h-3.99l-2.62,16.47h2.58ZM512.83,894.71v-7.05h2.94v7.05h2.58v-16.47h-2.58v7.06h-2.94v-7.06h-2.58v16.47h2.58ZM499.76,894.71v-11.62l1.93,11.62h2.45l1.79-11.81v11.81h2.58v-16.47h-3.73l-1.77,11.73-1.91-11.73h-3.59v16.47h2.25ZM490.59,882.03c0-1.08.45-1.62,1.35-1.62s1.34.54,1.34,1.62v8.89c0,1.09-.45,1.63-1.34,1.63s-1.35-.54-1.35-1.63v-8.89ZM489.02,893.81c.68.72,1.65,1.08,2.92,1.08s2.23-.36,2.91-1.08c.68-.72,1.01-1.74,1.01-3.06v-8.57c0-1.32-.34-2.34-1.01-3.06-.68-.72-1.64-1.08-2.91-1.08s-2.24.36-2.92,1.08c-.68.72-1.02,1.74-1.02,3.06v8.57c0,1.32.34,2.34,1.02,3.06M481.08,894.71v-5.05l.8-1.5,2.52,6.56h2.65l-3.59-9.13,3.59-7.34h-2.58l-3.39,7.18v-7.18h-2.58v16.47h2.58ZM467.82,882.29c0-.59.11-1.02.32-1.29.21-.27.55-.41,1-.41h1.24v5.07h-1.01c-.51,0-.9-.13-1.16-.4-.26-.26-.39-.71-.39-1.35v-1.62ZM467.56,894.71c.06-.19.1-.34.12-.43.02-.1.05-.28.08-.55.03-.27.04-.62.04-1.04v-2.58c0-.76.13-1.3.4-1.62.27-.32.69-.48,1.28-.48h.9v6.71h2.59v-16.47h-3.9c-1.33,0-2.29.31-2.91.93-.61.62-.92,1.58-.92,2.86v1.3c0,1.7.56,2.81,1.69,3.34-.62.26-1.06.68-1.32,1.26-.26.58-.39,1.33-.39,2.24v2.54c0,.89-.08,1.56-.24,2h2.59ZM459.76,881.19l1.25,8.29h-2.5l1.24-8.29ZM457.74,894.71l.45-2.99h3.17l.45,2.99h2.58l-2.62-16.47h-3.99l-2.62,16.47h2.58ZM444.94,894.73c1.29,0,2.23-.32,2.82-.96.58-.64.9-1.72.95-3.21l.29-9.96h2.24v14.12h2.58v-16.47h-7.41l-.29,12.45c-.01.38-.05.69-.1.91-.05.22-.15.39-.28.51-.13.12-.29.19-.46.22-.17.03-.42.05-.74.05v2.35h.4ZM437.87,894.71l2.18-7.54,1.05-4.03v11.58h2.58v-16.47h-3.1l-2.11,6.8-.94,3.63v-10.43h-2.31v16.47h2.65ZM422.84,894.71l2.36-7.34.64,1.28v6.06h2.59v-6.03l.65-1.25,2.35,7.28h2.58l-3.17-9.75,3.17-6.72h-2.52l-3.06,6.66v-6.66h-2.59v6.66l-3.06-6.66h-2.52l3.21,6.76-3.21,9.72h2.58Z"/>
    <path class="st2" d="M511.25,838.2v14.15h-5.96l5.96-14.15ZM511.25,857.74v6.83h5.91v-6.83h2.7v-5.38h-2.7v-25.44h-6.46l-10.74,25.44v5.38h11.29ZM497.18,859.13h-5.91v5.43h5.91v-5.43ZM475.52,849.13c0-2.47,1.02-3.7,3.07-3.7s3.05,1.23,3.05,3.7v6.77c0,2.45-1.02,3.67-3.05,3.67s-3.07-1.22-3.07-3.67v-6.77ZM471.94,862.51c1.55,1.64,3.77,2.47,6.65,2.47s5.1-.82,6.64-2.47c1.54-1.64,2.31-3.97,2.31-6.98v-6.88c0-2.8-.55-4.94-1.65-6.41-1.1-1.47-2.73-2.21-4.89-2.21-2.61,0-4.44,1.11-5.49,3.33v-6.88c0-1.72.27-2.91.8-3.6.53-.68,1.36-1.03,2.48-1.03,2.05,0,3.07,1.24,3.07,3.7v1.34h5.57v-.97c0-3.03-.75-5.36-2.25-6.99s-3.68-2.45-6.54-2.45c-6.02,0-9.03,3.26-9.03,9.79v19.24c0,3.01.78,5.34,2.32,6.98M453.84,836.18c0-1.58.29-2.69.88-3.33.59-.65,1.41-.97,2.46-.97s1.87.32,2.45.96c.58.64.87,1.75.87,3.35v2.1c0,2.64-1.11,3.97-3.32,3.97s-3.35-1.32-3.35-3.97v-2.1ZM453.84,851.88c0-2.83,1.12-4.25,3.35-4.25s3.32,1.42,3.32,4.25v3.49c-.02,1.58-.32,2.68-.9,3.31-.58.63-1.39.95-2.42.95s-1.88-.32-2.46-.96c-.59-.64-.88-1.74-.88-3.3v-3.49ZM450.32,862.51c1.59,1.64,3.88,2.47,6.86,2.47s5.26-.82,6.85-2.47c1.59-1.64,2.38-3.97,2.38-6.98v-2.97c0-3.85-1.22-6.47-3.66-7.85,2.44-1.37,3.66-3.89,3.66-7.56v-1.21c0-3.01-.79-5.34-2.38-6.98-1.59-1.64-3.87-2.47-6.85-2.47s-5.27.82-6.86,2.47c-1.6,1.65-2.39,3.97-2.39,6.98v1.21c0,3.71,1.22,6.23,3.66,7.56-2.44,1.38-3.66,4-3.66,7.85v2.97c0,3.01.8,5.34,2.39,6.98"/>
    <circle class="st0" cx="483.47" cy="782.97" r="32.95" transform="translate(-424.91 930) rotate(-67.5)"/>
    <path class="st2" d="M489.78,798.23v-8.75l1.39-2.6,4.35,11.35h4.59l-6.22-15.8,6.22-12.7h-4.47l-5.86,12.42v-12.42h-4.47v28.51h4.47ZM470.75,796.69c1.2,1.24,2.9,1.86,5.08,1.86s3.84-.62,4.97-1.86c1.13-1.24,1.7-3,1.7-5.3v-2.25c0-3.09-1.04-5.08-3.12-5.98,2.08-.86,3.12-2.82,3.12-5.86v-.74c0-2.29-.57-4.06-1.7-5.3-1.13-1.24-2.79-1.86-4.97-1.86s-3.88.62-5.08,1.86c-1.2,1.24-1.81,3-1.81,5.3v1.55h4.47v-1.83c0-1.87.77-2.8,2.29-2.8.77,0,1.34.24,1.73.71.39.48.58,1.33.58,2.54v1.59c0,1.09-.23,1.86-.68,2.32-.45.46-1.12.69-2.01.69h-1.75v4.07h1.51c1.03,0,1.78.28,2.24.84.46.56.69,1.48.69,2.78v2.25c0,1.19-.2,2.03-.58,2.51-.39.48-.97.71-1.73.71-1.53,0-2.29-.94-2.29-2.82v-2.64h-4.47v2.37c0,2.29.6,4.06,1.81,5.3"/>
  </g>
  <line class="st0" x1="777.41" y1="498.64" x2="804.45" y2="498.64"/>
  <path class="st2" d="M801.85,475.27h-36.03v-36.34h36.03v36.34ZM802.65,438.12h-37.63v37.95h37.63v-37.95Z"/>
  <path class="st0" d="M801.85,475.27h-36.03v-36.34h36.03v36.34ZM802.65,438.12h-37.63v37.95h37.63v-37.95Z"/>
  <g>
    <path class="st2" d="M769.1,444.37c0-.9.72-1.63,1.61-1.63h18.95c.89,0,1.62.73,1.62,1.63v25.46c0,.9-.73,1.62-1.62,1.62h-18.95c-.89,0-1.61-.73-1.61-1.62v-25.46ZM792.08,469.83v-25.46c0-1.34-1.08-2.43-2.41-2.43h-18.95c-1.33,0-2.41,1.09-2.41,2.43v25.46c0,1.34,1.08,2.43,2.41,2.43h18.95c1.33,0,2.41-1.09,2.41-2.43"/>
    <path class="st0" d="M769.1,444.37c0-.9.72-1.63,1.61-1.63h18.95c.89,0,1.62.73,1.62,1.63v25.46c0,.9-.73,1.62-1.62,1.62h-18.95c-.89,0-1.61-.73-1.61-1.62v-25.46ZM792.08,469.83v-25.46c0-1.34-1.08-2.43-2.41-2.43h-18.95c-1.33,0-2.41,1.09-2.41,2.43v25.46c0,1.34,1.08,2.43,2.41,2.43h18.95c1.33,0,2.41-1.09,2.41-2.43Z"/>
  </g>
  <path class="st2" d="M788.48,468.63h-16.58v-23.07h16.58v23.07ZM789.28,444.76h-18.18v24.68h18.18v-24.68Z"/>
  <path class="st0" d="M788.48,468.63h-16.58v-23.07h16.58v23.07ZM789.28,444.76h-18.18v24.68h18.18v-24.68Z"/>
  <g>
    <path class="st2" d="M776.97,457.1c0-1.17.94-2.12,2.1-2.12s2.1.95,2.1,2.12-.94,2.12-2.1,2.12-2.1-.95-2.1-2.12M781.97,457.1c0-1.61-1.3-2.93-2.9-2.93s-2.9,1.31-2.9,2.93,1.3,2.93,2.9,2.93,2.9-1.31,2.9-2.93"/>
    <path class="st0" d="M776.97,457.1c0-1.17.94-2.12,2.1-2.12s2.1.95,2.1,2.12-.94,2.12-2.1,2.12-2.1-.95-2.1-2.12ZM781.97,457.1c0-1.61-1.3-2.93-2.9-2.93s-2.9,1.31-2.9,2.93,1.3,2.93,2.9,2.93,2.9-1.31,2.9-2.93Z"/>
  </g>
</svg>