<svg xmlns="http://www.w3.org/2000/svg" xmlns:xlink="http://www.w3.org/1999/xlink" xml:space="preserve" id="Слой_1" x="0" y="0" style="enable-background:new 0 0 266 250" version="1.1" viewBox="0 0 266 250"><style>.st0{fill:#f6ccce}.st1{fill:#39373a}.st3{clip-path:url(#SVGID_2_)}.st3,.st4{fill:none;stroke:#39373a;stroke-width:.581}.st5{clip-path:url(#SVGID_4_);fill:#39373a}.st6{fill:none;stroke:#39373a;stroke-width:.236}.st6,.st7{clip-path:url(#SVGID_4_)}.st7,.st8{fill:none;stroke:#39373a;stroke-width:.279}.st10,.st9{clip-path:url(#SVGID_6_)}.st9{fill:#39373a}.st10{fill:none;stroke:#39373a;stroke-width:.279}.st11{stroke-width:.669}.st11,.st12,.st13,.st19{fill:none;stroke:#39373a}.st12{clip-path:url(#SVGID_8_);stroke-width:.669}.st13{stroke-width:.539}.st19{stroke-width:.244}.st22{clip-path:url(#SVGID_22_);fill:#39373a}</style><switch><g><path d="M28.9 37.6h205.8v143.8H28.9z" class="st0"/><path d="M28.9 70.8H126v143.8H28.9z" class="st0"/><path d="M39.5 92.6h26v9.2h-26z" class="st1"/><path d="M47.4 95.1h10.5v4.3H47.4zm-5.7 0h3.8v4.3h-3.8zm17.6 0h3.8v4.3h-3.8z" style="fill:#fff"/><defs><path id="SVGID_1_" d="M19.4 15.9H250v216.2H19.4z"/></defs><clipPath id="SVGID_2_"><use xlink:href="#SVGID_1_" style="overflow:visible"/></clipPath><path d="M35.7 90.7s-5.5 0-5.5-5.5V52.4s0-5.5 5.5-5.5h7.4s5.5 0 5.5 5.5v32.8s0 5.5-5.5 5.5h-7.4z" class="st3"/><path d="M37.4 87.7s-5.5 0-5.5-5.5V55.5s0-5.5 5.5-5.5h3.9s5.5 0 5.5 5.5v26.7s0 5.5-5.5 5.5h-3.9z" class="st3"/><path d="M36.4 84s-2.7 0-2.7-2.7V54.4s0-2.7 2.7-2.7h6.1s2.7 0 2.7 2.7v26.8s0 2.7-2.7 2.7h-6.1z" class="st3"/><path d="M39.4 55c.4 0 .8.4.8.8s-.4.8-.8.8c-.5 0-.8-.4-.8-.8 0-.5.4-.8.8-.8z" class="st3"/><path d="M50.3 92.8V42.5" class="st4"/><defs><path id="SVGID_3_" d="M19.4 15.9H250v216.2H19.4z"/></defs><clipPath id="SVGID_4_"><use xlink:href="#SVGID_3_" style="overflow:visible"/></clipPath><path d="M61.3 56.9c2.8 0 5.1-2.3 5.1-5.1v-5.4c0-.4-.3-.8-.8-.8H54.1c-.4 0-.8.3-.8.8v5.4c0 2.8 2.3 5.1 5.1 5.1h2.9zm-7.2-11.7h11.6c.6 0 1.1.5 1.1 1.1v5.4c0 3-2.4 5.4-5.4 5.4h-2.9c-3 0-5.4-2.4-5.4-5.4v-5.4c-.1-.6.4-1.1 1-1.1" class="st5"/><path d="M61.3 56.9c2.8 0 5.1-2.3 5.1-5.1v-5.4c0-.4-.3-.8-.8-.8H54.1c-.4 0-.8.3-.8.8v5.4c0 2.8 2.3 5.1 5.1 5.1h2.9zm-7.2-11.7h11.6c.6 0 1.1.5 1.1 1.1v5.4c0 3-2.4 5.4-5.4 5.4h-2.9c-3 0-5.4-2.4-5.4-5.4v-5.4c-.1-.6.4-1.1 1-1.1z" class="st6"/><path d="M61.3 55.6c2.1 0 3.8-1.7 3.8-3.8v-3.2c0-.4-.3-.7-.7-.7h-9.2c-.4 0-.7.3-.7.7v3.2c0 2.1 1.7 3.8 3.8 3.8h3zm-6-8h9.2c.5 0 1 .4 1 1v3.2c0 2.3-1.9 4.1-4.1 4.1h-2.9c-2.3 0-4.1-1.9-4.1-4.1v-3.2c-.1-.6.3-1 .9-1" class="st5"/><path d="M61.3 55.6c2.1 0 3.8-1.7 3.8-3.8v-3.2c0-.4-.3-.7-.7-.7h-9.2c-.4 0-.7.3-.7.7v3.2c0 2.1 1.7 3.8 3.8 3.8h3zm-6-8h9.2c.5 0 1 .4 1 1v3.2c0 2.3-1.9 4.1-4.1 4.1h-2.9c-2.3 0-4.1-1.9-4.1-4.1v-3.2c-.1-.6.3-1 .9-1z" class="st6"/><path d="M59.9 52.9c.3 0 .6-.3.6-.6 0-.4-.3-.6-.6-.6-.4 0-.6.3-.6.6-.1.3.2.6.6.6m0-1.6c.5 0 .9.4.9.9s-.4.9-.9.9-.9-.4-.9-.9c-.1-.5.4-.9.9-.9" class="st5"/><path d="M59.9 52.9c.3 0 .6-.3.6-.6 0-.4-.3-.6-.6-.6-.4 0-.6.3-.6.6-.1.3.2.6.6.6zm0-1.6c.5 0 .9.4.9.9s-.4.9-.9.9-.9-.4-.9-.9c-.1-.5.4-.9.9-.9z" class="st6"/><path d="M75.1 62.9c-2.6 0-4.7-2.1-4.7-4.8v-6.9c0-.5.4-.8.8-.8H79c.4 0 .8.4.8.8v6.9c0 2.6-2.1 4.8-4.7 4.8M79 50h-7.8c-.6 0-1.1.5-1.1 1.1V58c0 2.8 2.3 5.1 5 5.1 2.8 0 5-2.3 5-5.1v-6.9c0-.5-.5-1.1-1.1-1.1" class="st5"/><path d="M75.1 62.9c-2.6 0-4.7-2.1-4.7-4.8v-6.9c0-.5.4-.8.8-.8H79c.4 0 .8.4.8.8v6.9c0 2.6-2.1 4.8-4.7 4.8zM79 50h-7.8c-.6 0-1.1.5-1.1 1.1V58c0 2.8 2.3 5.1 5 5.1 2.8 0 5-2.3 5-5.1v-6.9c0-.5-.5-1.1-1.1-1.1z" class="st7"/><path d="M71.7 52.7h6.8s.1 0 .1.1V58c0 1.9-1.6 3.5-3.5 3.5s-3.5-1.6-3.5-3.5l.1-5.3c-.1 0-.1 0 0 0z" class="st7"/><path d="M71.8 52.8h6.6V58c0 1.8-1.5 3.3-3.3 3.3-1.8 0-3.3-1.5-3.3-3.3v-5.2zm6.6-.3h-6.8c-.1 0-.2.1-.2.2V58c0 2 1.6 3.7 3.6 3.7s3.6-1.6 3.6-3.7v-5.2c.1-.2 0-.3-.2-.3" class="st5"/><path d="M71.8 52.8h6.6V58c0 1.8-1.5 3.3-3.3 3.3-1.8 0-3.3-1.5-3.3-3.3v-5.2zm6.6-.3h-6.8c-.1 0-.2.1-.2.2V58c0 2 1.6 3.7 3.6 3.7s3.6-1.6 3.6-3.7v-5.2c.1-.2 0-.3-.2-.3z" class="st7"/><path d="M75.1 58c-.5 0-.9-.4-.9-.9s.4-.9.9-.9.9.4.9.9c-.1.5-.5.9-.9.9m0-2.1c-.7 0-1.2.5-1.2 1.2s.5 1.2 1.2 1.2 1.2-.5 1.2-1.2-.6-1.2-1.2-1.2" class="st5"/><path d="M75.1 58c-.5 0-.9-.4-.9-.9s.4-.9.9-.9.9.4.9.9c-.1.5-.5.9-.9.9zm0-2.1c-.7 0-1.2.5-1.2 1.2s.5 1.2 1.2 1.2 1.2-.5 1.2-1.2-.6-1.2-1.2-1.2z" class="st7"/><path d="m72.4 53.4-.2.1 1.6 2.2.2-.2z" class="st1"/><path d="m72.4 53.4-.2.1 1.6 2.2.2-.2z" class="st8"/><path d="m77.6 53.4-1.5 2.1.2.2 1.6-2.2z" class="st1"/><path d="m77.6 53.4-1.5 2.1.2.2 1.6-2.2z" class="st8"/><defs><path id="SVGID_5_" d="M19.4 15.9H250v216.2H19.4z"/></defs><clipPath id="SVGID_6_"><use xlink:href="#SVGID_5_" style="overflow:visible"/></clipPath><path d="M71.8 50c-.7 0-1.3-.6-1.3-1.3v-1.8c0-.7.6-1.3 1.3-1.3h6.5c.7 0 1.3.6 1.3 1.3v1.8c0 .7-.6 1.3-1.3 1.3h-6.5zm6.5-4.7h-6.5c-.9 0-1.6.7-1.6 1.6v1.8c0 .9.7 1.6 1.6 1.6h6.5c.9 0 1.6-.7 1.6-1.6v-1.8c.1-.9-.7-1.6-1.6-1.6" class="st9"/><path d="M71.8 50c-.7 0-1.3-.6-1.3-1.3v-1.8c0-.7.6-1.3 1.3-1.3h6.5c.7 0 1.3.6 1.3 1.3v1.8c0 .7-.6 1.3-1.3 1.3h-6.5zm6.5-4.7h-6.5c-.9 0-1.6.7-1.6 1.6v1.8c0 .9.7 1.6 1.6 1.6h6.5c.9 0 1.6-.7 1.6-1.6v-1.8c.1-.9-.7-1.6-1.6-1.6z" class="st10"/><path d="M75.1 48.3c-.3 0-.5-.2-.5-.5s.2-.5.5-.5.5.2.5.5-.3.5-.5.5m0-1.3c-.4 0-.8.4-.8.8 0 .5.4.8.8.8s.8-.4.8-.8c0-.5-.4-.8-.8-.8" class="st9"/><path d="M75.1 48.3c-.3 0-.5-.2-.5-.5s.2-.5.5-.5.5.2.5.5-.3.5-.5.5zm0-1.3c-.4 0-.8.4-.8.8 0 .5.4.8.8.8s.8-.4.8-.8c0-.5-.4-.8-.8-.8z" class="st10"/><path d="M189.4 143.2c-.7 0-.8-.2-.8-1.6.3-.2.5-.2.8-.2.6 0 .7.2.7.8 0 .7 0 1-.7 1m1.9-4.9c-.6-.2-1.3-.2-1.6-.2-1.8 0-2.7.4-2.7 3.2 0 2.5.6 3.1 2.4 3.1 1.9 0 2.3-.7 2.3-2.2 0-1.4-.4-1.9-1.8-1.9-.5 0-.9.1-1.3.4 0-1.1.3-1.4 1.1-1.4h1.5l.1-1zm-6 4.5c-.4 0-.6.1-.6.6v.4c0 .4.1.6.6.6h.4c.4 0 .6-.1.6-.6v-.4c0-.4-.1-.6-.6-.6h-.4zm-3.5.4c-.7 0-.8-.2-.8-1.6.3-.2.5-.2.8-.2.6 0 .7.2.7.8 0 .7 0 1-.7 1m1.9-4.9c-.6-.2-1.3-.2-1.6-.2-1.8 0-2.7.4-2.7 3.2 0 2.5.6 3.1 2.4 3.1 1.9 0 2.3-.7 2.3-2.2 0-1.4-.4-1.9-1.8-1.9-.5 0-.9.1-1.3.4 0-1.1.3-1.4 1.1-1.4h1.5l.1-1zm-5.4 6v-6.1h-1.7l-1.6.6.2 1.1 1.4-.3c-.1.2-.1.5-.1.7v4.1h1.8zm20.9-12.2c0-.2.1-.3.4-.3h.9v.6c-.3.2-.6.3-.9.3-.3 0-.4-.1-.4-.4v-.2zm-1.2-1.7c.7 0 1.4-.1 1.9-.1s.6.1.6.5v.1H199c-.9 0-1.4.4-1.4 1.1v.4c0 .8.7 1.3 1.5 1.3s1.3-.4 1.6-.8l.2.6h1.3v-2.8c0-1.3-.7-1.7-1.8-1.7-.7 0-1.8.1-2.4.2v1.2zm-.7.1v-1.2h-4.4v1.2h1.4v3.2h1.6v-3.2h1.4zm-7.9 1.6c0-.2.1-.3.4-.3h.9v.6c-.3.2-.6.3-.9.3-.3 0-.4-.1-.4-.4v-.2zm-1.2-1.7c.7 0 1.4-.1 1.9-.1s.6.1.6.5v.1h-1.5c-.9 0-1.4.4-1.4 1.1v.4c0 .8.7 1.3 1.5 1.3s1.3-.4 1.6-.8l.2.6h1.3v-2.8c0-1.3-.7-1.7-1.8-1.7-.6 0-1.8.1-2.4.2v1.2zm-1.1-1.2h-1.6v1.6h-1.4v-1.6h-1.6v4.4h1.6v-1.8h1.4v1.8h1.6v-4.4zm-7.5 0c-.3 0-.6.2-.6.5l-.4 1.6c0 .2-.1.4-.1.7h-.1c0-.2 0-.4-.1-.7l-.4-1.6c-.1-.3-.3-.5-.6-.5H176c-.4 0-.6.2-.6.5l-.1 3.9h1.5l.1-3.2h.1l.5 2.1c.1.3.3.5.6.5h.7c.3 0 .5-.2.6-.5l.5-2.1h.1l.1 3.2h1.5l-.1-3.9c0-.4-.2-.5-.6-.5h-1.3zm-7.3 1.1c.5 0 .7.2.7 1.2s-.1 1.2-.7 1.2-.7-.2-.7-1.2.1-1.2.7-1.2m0-1.2c-1.7 0-2.4.6-2.4 2.3 0 1.7.6 2.3 2.4 2.3 1.7 0 2.4-.6 2.4-2.3-.1-1.6-.7-2.3-2.4-2.3m-4.5 2.2c1-.2 1-.2 1.5-2.1h-1.6c-.4 1.5-.4 1.6-1 1.6h-.2c0-.2.1-.4.1-.6v-1H165v4.4h1.6v-1.4c0-.1 0-.2-.1-.4h.4c.5 0 .5.1 1 1.8h1.7c-.7-2-.7-2.1-1.8-2.3zm28.5-10.7h-.6c-.4 0-.5-.1-.5-.6 0-.3.1-.4.5-.4h.6v1zm-1.7.5c-.3 0-.7.1-.8.5l-.3 1.4h1.7l.3-1.2c0-.2.1-.3.4-.3h.6v1.4h1.6v-4.4c-.6-.1-1-.1-2.2-.1-1.6 0-2 .3-2 1.4-.3.6-.1 1.1.7 1.3zm-4.7.4c0-.2.1-.3.4-.3h.9v.6c-.3.2-.6.3-.9.3-.3 0-.4-.1-.4-.4v-.2zm-1.2-1.8c.7 0 1.4-.1 1.9-.1s.6.1.6.5v.1h-1.5c-.9 0-1.4.4-1.4 1.1v.4c0 .8.7 1.3 1.5 1.3s1.3-.4 1.6-.8l.2.6h1.3V120c0-1.3-.7-1.7-1.8-1.7-.6 0-1.8.1-2.4.2v1.2zm-1.1-1.1h-2.7c-.8 0-1.2.4-1.2 1.1-.1.8-.1 1.4-.2 1.7-.1.4-.4.3-.7.4l.2 1.2c1 .2 1.8-.1 2-1.2.1-.4.2-1.2.3-1.9 0-.3.2-.4.4-.4h.4v3.3h1.6v-4.2zm-5.4 4.4v-4.4h-1.4l-1.4 2.1-.3.6c0-.3.1-.5.1-.7v-2.1h-1.4v4.4h1.4l1.4-2c.1-.2.3-.5.4-.7 0 .3-.1.5-.1.8v2h1.3zm-7.2-3.2c1.2-.2 1.2-.7 1.9-2.9h-1.7c-.6 1.8-.7 2.4-1.3 2.4h-.3c0-.3.1-.5.1-.8v-1.6h-1.6v1.6c0 .2 0 .5.1.8h-.3c-.6 0-.7-.6-1.2-2.4H169c.6 2.2.7 2.7 1.9 2.9v.1c-1.2.2-1.3.7-2 3.2h1.7c.7-2.2.8-2.6 1.4-2.6h.3c0 .2-.1.4-.1.6v2.1h1.6v-2.1c0-.2 0-.4-.1-.6h.3c.6 0 .7.4 1.4 2.6h1.8c-.9-2.6-1-3.1-2.2-3.3zM80.2 79.9c.7 0 .8.2.8.8 0 .6-.1.8-.8.8-.7 0-.9-.2-.9-.8 0-.7.2-.8.9-.8m0-2.5c.6 0 .8.1.8.7 0 .5-.1.7-.7.7s-.8-.1-.8-.7c-.1-.6 0-.7.7-.7m-1.4 2c-.9.1-1.1.8-1.1 1.6 0 1.2.5 1.7 2.4 1.7s2.4-.5 2.4-1.7c0-.8-.2-1.6-1.1-1.6.7-.1.9-.7.9-1.4 0-1.1-.4-1.6-2.3-1.6-1.8 0-2.2.5-2.2 1.6.1.6.4 1.2 1 1.4zM76 81c-.4 0-.6.1-.6.6v.4c0 .4.1.6.6.6h.4c.4 0 .6-.1.6-.6v-.4c0-.4-.1-.6-.6-.6H76zm-5.5-3.4h1.7c.6 0 .8.1.8.6 0 .4-.1.7-.7.7h-1.2V80h1.2c.7 0 .8.2.8.7 0 .6-.2.7-1 .7-.5 0-.9 0-1.7-.1l-.1 1.2c.7.1 1.5.2 2.2.2 1.6 0 2.2-.5 2.2-1.8 0-.9-.3-1.4-1.1-1.5.8-.1 1-.7 1-1.5 0-1.1-.6-1.4-2.1-1.4-.7 0-1.4.1-2.1.2l.1.9zm13.7-10.2h-1.7l-.6 2.6c0 .2-.1.5-.2.8h-.1c0-.3-.1-.5-.1-.8l-.7-2.6H79l1.4 4c.1.2.3.4.5.4h.3c-.1.2-.3.4-.5.5-.3.2-.7.2-1.2.2l-.1 1c.6.1 1.3.1 1.8-.1.7-.2 1.2-.7 1.5-1.7l1.5-4.3zm-8.7 5.1 3.5-6.8h-1.3l-3.5 6.8h1.3zm-1.8-2c-.6.1-1.1.1-1.9.1-.7 0-.9-.4-.9-1.8s.2-1.8.9-1.8h1.8l.1-1.2c-.6-.2-1-.2-1.9-.2-2 0-2.7.8-2.7 3.2 0 2.3.7 3.2 2.7 3.2.9 0 1.5-.1 2.1-.3l-.2-1.2zm53.7 9.9c-.7 0-.8-.2-.8-1.6.3-.2.5-.2.8-.2.6 0 .7.2.7.8 0 .7-.1 1-.7 1m1.8-5c-.6-.2-1.3-.2-1.6-.2-1.8 0-2.7.4-2.7 3.2 0 2.5.5 3.1 2.4 3.1s2.3-.7 2.3-2.2c0-1.3-.4-1.9-1.8-1.9-.5 0-.9.1-1.3.4 0-1.1.3-1.4 1.1-1.4h1.5l.1-1zm-5.9 4.5c-.4 0-.6.1-.6.6v.4c0 .4.1.6.6.6h.4c.4 0 .6-.1.6-.6v-.4c0-.4-.1-.6-.6-.6h-.4zm-1.2-.8h-.7v-2.5h-1.3l-.3 1v1.6h-1.2c-.1 0-.2-.1-.2-.3l1.3-3.5h-1.6l-1.5 3.9c-.2.5.1.9.6.9h2.5v1.3h1.5v-1.3l.7-.2v-.9zm21.8-10.7h-.6c-.4 0-.5-.1-.5-.6 0-.3.1-.4.5-.4h.6v1zm-1.7.5c-.3 0-.7.1-.8.5l-.3 1.4h1.7l.3-1.2c0-.2.1-.3.4-.3h.6v1.4h1.6v-4.5c-.6-.1-1-.1-2.2-.1-1.6 0-2 .3-2 1.4-.3.7-.1 1.2.7 1.4zm-4.7.4c0-.2.1-.3.4-.3h.9v.6c-.3.2-.6.3-.9.3-.3 0-.4-.1-.4-.4v-.2zm-1.2-1.8c.7 0 1.4-.1 1.9-.1s.6.1.6.5v.1h-1.5c-.9 0-1.4.4-1.4 1.1v.4c0 .8.7 1.3 1.5 1.3s1.3-.4 1.6-.8l.2.6h1.3V68c0-1.3-.7-1.7-1.8-1.7-.6 0-1.8.1-2.4.2v1zm-2.5 1c1-.1 1-.3 1.6-2.1h-1.6c-.5 1.4-.5 1.6-1 1.6h-.3c0-.2.1-.4.1-.6v-1.1h-1.4v1.1c0 .2 0 .4.1.6h-.3c-.4 0-.5-.2-1-1.6h-1.6c.6 1.8.5 2 1.6 2.1-1.1.2-1.1.2-1.7 2.3h1.6c.6-1.7.6-1.8 1-1.8h.4c0 .1-.1.3-.1.4v1.4h1.4V69h.4c.4 0 .4.1 1 1.8h1.6c-.7-2.1-.7-2.1-1.8-2.3zm-8.2-1.1c.5 0 .7.2.7 1.2s-.1 1.2-.7 1.2-.7-.2-.7-1.2.1-1.2.7-1.2m0-1.1c-1.7 0-2.4.6-2.4 2.3 0 1.7.6 2.3 2.4 2.3 1.7 0 2.4-.6 2.4-2.3-.1-1.7-.7-2.3-2.4-2.3m-4.2 4.5h1.6l-1.3-2.3 1.2-2.2h-1.6l-.9 1.7-.9-1.7h-1.6l1.2 2.2-1.3 2.3h1.6l1-1.8 1 1.8zm-4.1 0v-4.4h-1.4l-1.4 2.1-.3.6c0-.3.1-.5.1-.7v-2.1h-1.4v4.4h1.4l1.4-2c.1-.2.3-.5.4-.7 0 .3-.1.5-.1.8v2h1.3zm-8.4-3.1c.3-.2.5-.3.8-.3.4 0 .6.2.6 1.2s-.2 1.2-.6 1.2c-.3 0-.5-.1-.8-.2v-1.9zm-.3-1.3h-1.3v6.1h1.6v-2c.4.3.9.4 1.4.4 1.1 0 1.7-.5 1.7-2.3 0-1.5-.4-2.4-1.6-2.4-.7 0-1.4.3-1.7.7l-.1-.5zm-2.3-1.7h-5.1v6.1h1.7v-5h1.8v5h1.7v-6.1zM83.4 195.1c-.7 0-.8-.2-.8-1.6.3-.2.5-.2.8-.2.6 0 .7.2.7.8 0 .7 0 1-.7 1m1.9-5c-.6-.2-1.3-.2-1.6-.2-1.8 0-2.7.4-2.7 3.2 0 2.5.5 3.1 2.4 3.1s2.3-.7 2.3-2.2c0-1.3-.4-1.9-1.8-1.9-.5 0-.9.1-1.3.4 0-1.1.3-1.4 1.1-1.4h1.5l.1-1zm-5.9 4.6c-.4 0-.6.1-.6.6v.4c0 .4.1.6.6.6h.4c.4 0 .6-.1.6-.6v-.4c0-.4-.1-.6-.6-.6h-.4zm-5.6-3.5h1.7c.6 0 .8.1.8.6 0 .4-.1.7-.7.7h-1.2v1.1h1.2c.7 0 .8.2.8.7 0 .6-.2.7-1 .7-.5 0-.9 0-1.7-.1l-.1 1.2c.7.1 1.5.2 2.2.2 1.6 0 2.2-.5 2.2-1.8 0-.9-.3-1.4-1.1-1.5.8-.1 1-.7 1-1.5 0-1.1-.6-1.4-2.1-1.4-.7 0-1.4.1-2.1.2l.1.9zm-1.2 5V190H71l-1.6.6.2 1.1 1.4-.3c-.1.2-.1.5-.1.7v4.1h1.7zM96 183.1h-.6c-.4 0-.5-.1-.5-.6 0-.3.1-.4.5-.4h.6v1zm-1.7.5c-.3 0-.7.1-.8.5l-.3 1.4h1.7l.3-1.2c0-.2.1-.3.4-.3h.4v1.4h1.6v-4.5c-.5-.1-1-.1-2.2-.1-1.6 0-2 .3-2 1.4-.1.7.2 1.3.9 1.4zm-4.7.4c0-.2.1-.3.4-.3h.9v.6c-.3.2-.6.3-.9.3-.3 0-.4-.1-.4-.4v-.2zm-1.2-1.8c.7 0 1.4-.1 1.9-.1s.6.1.6.5v.1h-1.5c-.9 0-1.4.4-1.4 1.1v.4c0 .8.7 1.3 1.5 1.3s1.3-.4 1.6-.8l.2.6h1.3v-2.8c0-1.3-.7-1.7-1.8-1.7-.6 0-1.8.1-2.4.2v1.2zm-3.8 2.3v-.9h.7c.4 0 .6.1.6.4 0 .4-.2.4-.6.4h-.7zm0-1.7v-.8h.7c.4 0 .6.1.6.4 0 .3-.1.4-.5.4h-.8zm1.8.4c.7-.1 1-.4 1-1 0-.9-.5-1.2-2-1.2-1 0-1.6 0-2.3.1v4.4c.8 0 1.4.1 2.6.1 1.3 0 1.9-.2 1.9-1.2-.1-.7-.4-1.1-1.2-1.2zm-6.5-1.1c.5 0 .7.2.7 1.2s-.1 1.2-.7 1.2-.7-.2-.7-1.2.2-1.2.7-1.2m0-1.1c-1.7 0-2.4.6-2.4 2.3 0 1.7.6 2.3 2.4 2.3 1.7 0 2.4-.6 2.4-2.3 0-1.7-.7-2.3-2.4-2.3m-3.1.1h-2.7c-.8 0-1.2.4-1.2 1.1-.1.8-.1 1.4-.2 1.7-.1.4-.4.3-.7.4l.2 1.2c1 .2 1.8-.1 2-1.2.1-.4.2-1.2.3-1.9 0-.3.2-.4.4-.4h.4v3.3h1.6v-4.2zm-7.6 1c.5 0 .7.2.7 1.2s-.1 1.2-.7 1.2-.7-.2-.7-1.2.2-1.2.7-1.2m0-1.1c-1.7 0-2.4.6-2.4 2.3 0 1.7.6 2.3 2.4 2.3 1.7 0 2.4-.6 2.4-2.3 0-1.7-.6-2.3-2.4-2.3m-2.8 1.3v-1.2H62v1.2h1.4v3.2H65v-3.2h1.4zm-4.9 2c-.5.1-1.1.1-1.4.1-.7 0-.9-.2-.9-1s.2-1 .9-1h1.3l.2-1c-.5-.2-1.2-.3-1.8-.3-1.7 0-2.3.6-2.3 2.3s.6 2.3 2.3 2.3c.6 0 1.3-.1 1.8-.3l-.1-1.1zm30.9-12.2h-2.6v1h2.6v-1zm-5.1.3h-.6c-.4 0-.5-.1-.5-.6 0-.3.1-.4.5-.4h.6v1zm-1.8.6c-.3 0-.7.1-.8.5l-.3 1.4H86l.3-1.2c0-.2.1-.3.4-.3h.6v1.4h1.6v-4.4c-.6-.1-1-.1-2.2-.1-1.6 0-2 .3-2 1.4-.1.6.1 1.1.8 1.3zm-1.8-2.6h-1.6v1.6h-1.4v-1.6h-1.6v4.4h1.6V173h1.4v1.8h1.6v-4.4zm-6.6 4.5h1.6l-1.3-2.3 1.2-2.2H77l-.9 1.7-.9-1.7h-1.6l1.2 2.2-1.3 2.3h1.6l1-1.8 1 1.8zm-3.6-4.5h-1.7l-.6 2.6c0 .2-.1.5-.2.8h-.1c0-.3-.1-.5-.1-.8l-.7-2.6h-1.7l1.4 4c.1.2.3.4.5.4h.3c-.1.2-.3.4-.5.5-.3.2-.7.2-1.2.2l-.1 1c.6.1 1.3.1 1.8-.1.7-.2 1.2-.7 1.5-1.7l1.4-4.3zm-7.3 1.2c1.2-.2 1.3-.7 1.9-2.9h-1.7c-.5 1.8-.6 2.4-1.5 2.4h-.3c0-.2.1-.5.1-.8v-1.6H63v6.1h1.7v-2.1c0-.2 0-.4-.1-.6h.4c.9 0 .9.4 1.6 2.6h1.7c-.8-2.4-.8-2.8-2.1-3.1zm137.3 39.3h-.7v-2.5h-1.3l-.3 1v1.6H200c-.1 0-.2-.1-.2-.3l1.3-3.5h-1.6l-1.5 3.9c-.2.5.1.9.6.9h2.5v1.3h1.5V212l.7-.2v-.9zm-6.8.9c-.4 0-.6.1-.6.6v.4c0 .4.1.6.6.6h.4c.4 0 .6-.1.6-.6v-.4c0-.4-.1-.6-.6-.6h-.4zm-5.6-3.4h1.7c.6 0 .8.1.8.6 0 .4-.1.7-.7.7h-1.2v1.1h1.2c.7 0 .8.2.8.7 0 .6-.2.7-1 .7-.5 0-.9 0-1.7-.1l-.1 1.2c.7.1 1.5.2 2.2.2 1.6 0 2.2-.5 2.2-1.8 0-.9-.3-1.4-1.1-1.5.8-.1 1-.7 1-1.5 0-1.1-.6-1.4-2.1-1.4-.7 0-1.4.1-2.1.2l.1.9z" class="st9"/><path d="M124.3 181.4h19.9v50.7h-19.9zM19.4 37.6h9.5v194.5h-9.5z" class="st1"/><path d="M19.4 30h74.3v15.1H19.4z" class="st1"/><path d="M19.4 36.9h65.3v4.4H19.4zm104.9-7.7h114v8.4h-114z" class="st1"/><path d="M149.2 31.3h8.7v23.6h-8.7z" class="st1"/><path d="M153.6 41.2h4.4v59.5h-4.4zm-64.3-3.1h4.4v34.4h-4.4zm0 53.8h4.4v8.8h-4.4zm35 6.6h4.4v88.1h-4.4z" class="st1"/><path d="M118.1 97.5h12.2v4.4h-12.2zm-53.9 0h33v4.4h-33zm-37.4-4.9H41V97H26.8zm125 4.9h6.1v4.4h-6.1zm79.9-68.3h7.4v167.2h-7.4zm-147 0h11.6v8.2H84.7z" class="st1"/><path d="M19.4 29.2h69.7v3.2H19.4zm175.8 0H206v3.2h-10.8z" class="st1"/><path d="M179.5 189.5h31.2v9.3h-31.2z" class="st11"/><path d="M179.5 181.8h31.2v17h-31.2z" class="st11"/><defs><path id="SVGID_7_" d="M19.4 15.9H250v216.2H19.4z"/></defs><clipPath id="SVGID_8_"><use xlink:href="#SVGID_7_" style="overflow:visible"/></clipPath><path d="M37.5 222.5h79.8v9.3H37.5z" class="st12"/><path d="M37.5 214.8h79.8v17H37.5z" class="st12"/><path d="M125.6 189.7h33.7v9.4h-33.7zM20.3 222.8H54v9.4H20.3z" class="st1"/><path d="M25.2 222.8H29v9.4h-3.8zm67.1 0H126v9.4H92.3zm113.4-33.1h33.7v9.4h-33.7z" class="st1"/><path d="M234.8 181.4h15.3v17.7h-15.3zm-110.5 0h32.5v11.8h-32.5zM22.2 214.5h29.3v11.8H22.2z" class="st1"/><path d="M24.2 214.5h6.1v11.8h-6.1zm70.7 0h32.5v11.8H94.9zm113.3-33.1h32.5v11.8h-32.5z" class="st1"/><path d="m127.293 100.61.716-1.204 19.679 11.711-.716 1.204z" class="st13"/><defs><path id="SVGID_9_" d="M19.4 15.9H250v216.2H19.4z"/></defs><clipPath id="SVGID_10_"><use xlink:href="#SVGID_9_" style="overflow:visible"/></clipPath><path d="M147.8 111s1.6-2.3 3.3-7.4c.6-1.9 1.1-3.9 1.5-5.5" style="clip-path:url(#SVGID_10_);fill:none;stroke:#39373a;stroke-width:.539"/><path d="M101.722 111.062 121.4 99.351l.716 1.203-19.68 11.711z" class="st13"/><defs><path id="SVGID_11_" d="M19.4 15.9H250v216.2H19.4z"/></defs><clipPath id="SVGID_12_"><use xlink:href="#SVGID_11_" style="overflow:visible"/></clipPath><path d="M101.6 111s-1.6-2.3-3.3-7.4c-.6-1.9-1.1-3.9-1.5-5.5" style="clip-path:url(#SVGID_12_);fill:none;stroke:#39373a;stroke-width:.539"/><path d="m153.956 191.58 19.679-11.71.716 1.202-19.679 11.712z" class="st13"/><defs><path id="SVGID_13_" d="M19.4 15.9H250v216.2H19.4z"/></defs><clipPath id="SVGID_14_"><use xlink:href="#SVGID_13_" style="overflow:visible"/></clipPath><path d="M174.5 181.2s1.6 2.3 3.3 7.4c.6 1.9 1.1 3.9 1.5 5.5" style="clip-path:url(#SVGID_14_);fill:none;stroke:#39373a;stroke-width:.539"/><path d="m100.717 17.545.716-1.203 23.89 14.218-.717 1.203z" class="st13"/><defs><path id="SVGID_15_" d="M19.4 15.9H250v216.2H19.4z"/></defs><clipPath id="SVGID_16_"><use xlink:href="#SVGID_15_" style="overflow:visible"/></clipPath><path d="M100.6 17.7S99 20 97.3 25.1c-.6 1.9-1.1 3.9-1.5 5.5" style="clip-path:url(#SVGID_16_);fill:none;stroke:#39373a;stroke-width:.539"/><path d="m90.974 95.098 12.652-17.26 1.13.828-12.653 17.26z" class="st13"/><defs><path id="SVGID_17_" d="M19.4 15.9H250v216.2H19.4z"/></defs><clipPath id="SVGID_18_"><use xlink:href="#SVGID_17_" style="overflow:visible"/></clipPath><path d="M103.5 77.7s-2.1-1.8-7.1-4c-1.9-.8-3.8-1.5-5.4-2" style="clip-path:url(#SVGID_18_);fill:none;stroke:#39373a;stroke-width:.539"/><path d="M131.2 222.4h85.1v4.8h-85.1z" class="st1"/><path d="M212 227.2h34.8v4.8H212z" class="st1"/><path d="M245.2 197.3h4.8V232h-4.8z" class="st1"/><path d="M50.3 80h17.6v12.6H50.3z" class="st4"/><path d="M29.4 128.9h15.9V113H29.4v15.9zm-.3-16.2h16.6v16.6H29.1v-16.6z" class="st1"/><path d="M29.4 128.9h15.9V113H29.4v15.9zm-.3-16.2h16.6v16.6H29.1v-16.6z" class="st19"/><defs><path id="SVGID_19_" d="M19.4 15.9H250v216.2H19.4z"/></defs><clipPath id="SVGID_20_"><use xlink:href="#SVGID_19_" style="overflow:visible"/></clipPath><path d="M43.9 115.4c0-.4-.3-.7-.7-.7h-8.3c-.4 0-.7.3-.7.7v11.1c0 .4.3.7.7.7h8.3c.4 0 .7-.3.7-.7v-11.1zm-10.1 11.1v-11.1c0-.6.5-1.1 1.1-1.1h8.3c.6 0 1.1.5 1.1 1.1v11.1c0 .6-.5 1.1-1.1 1.1h-8.3c-.7 0-1.1-.5-1.1-1.1" style="clip-path:url(#SVGID_20_);fill:#39373a"/><path d="M43.9 115.4c0-.4-.3-.7-.7-.7h-8.3c-.4 0-.7.3-.7.7v11.1c0 .4.3.7.7.7h8.3c.4 0 .7-.3.7-.7v-11.1zm-10.1 11.1v-11.1c0-.6.5-1.1 1.1-1.1h8.3c.6 0 1.1.5 1.1 1.1v11.1c0 .6-.5 1.1-1.1 1.1h-8.3c-.7 0-1.1-.5-1.1-1.1z" style="clip-path:url(#SVGID_20_);fill:none;stroke:#39373a;stroke-width:.244"/><path d="M35.3 126h7.3v-10.1h-7.3V126zm-.3-10.4h8v10.8h-8v-10.8z" class="st1"/><path d="M35.3 126h7.3v-10.1h-7.3V126zm-.3-10.4h8v10.8h-8v-10.8z" class="st19"/><defs><path id="SVGID_21_" d="M19.4 15.9H250v216.2H19.4z"/></defs><clipPath id="SVGID_22_"><use xlink:href="#SVGID_21_" style="overflow:visible"/></clipPath><path d="M40.4 121c0-.5-.4-.9-.9-.9s-.9.4-.9.9.4.9.9.9.9-.4.9-.9m-2.2 0c0-.7.6-1.3 1.3-1.3.7 0 1.3.6 1.3 1.3 0 .7-.6 1.3-1.3 1.3-.7-.1-1.3-.6-1.3-1.3" class="st22"/><path d="M40.4 121c0-.5-.4-.9-.9-.9s-.9.4-.9.9.4.9.9.9.9-.4.9-.9zm-2.2 0c0-.7.6-1.3 1.3-1.3.7 0 1.3.6 1.3 1.3 0 .7-.6 1.3-1.3 1.3-.7-.1-1.3-.6-1.3-1.3z" style="clip-path:url(#SVGID_22_);fill:none;stroke:#39373a;stroke-width:.244"/><path d="M87.9 152.7h3.9c1.4 0 1.8.2 1.8 1.3 0 1-.1 1.5-1.6 1.5h-2.7v2.4H92c1.5 0 1.8.4 1.8 1.6 0 1.4-.5 1.7-2.3 1.7-1.2 0-2.1 0-3.9-.1l-.1 2.7c1.6.2 3.4.4 5 .4 3.7 0 5.1-1.2 5-4.2 0-2.1-.6-3.2-2.6-3.5v-.1c1.8-.3 2.2-1.5 2.2-3.5 0-2.5-1.3-3.3-4.7-3.3-1.5 0-3.1.1-4.7.4l.2 2.7zm-4.1 7.8c-1 0-1.3.3-1.3 1.3v.9c0 1 .3 1.3 1.3 1.3h.9c1 0 1.3-.3 1.3-1.3v-.9c0-1-.3-1.3-1.3-1.3h-.9zm-8.7-7.9c1.6 0 2 .7 2 4.4s-.4 4.4-2 4.4c-1.5 0-1.9-.7-1.9-4.4-.1-3.7.4-4.4 1.9-4.4m0-2.9c-4.2 0-5.7 1.8-5.7 7.3s1.5 7.3 5.7 7.3c4.3 0 5.7-1.8 5.7-7.3s-1.4-7.3-5.7-7.3m-7 8.8h-1.7v-5.8h-2.9l-.6 2.2v3.6h-2.7c-.3 0-.5-.2-.4-.6l3.1-7.9h-3.6l-3.5 8.9c-.4 1.1.3 2.2 1.5 2.2h5.6v2.9h3.5v-2.9l1.6-.4v-2.2z" class="st22"/><circle cx="77.7" cy="134.2" r="12.4" style="clip-path:url(#SVGID_22_);fill:none;stroke:#39373a;stroke-width:.854"/><path d="M82.4 134c2.1-.3 2.2-1.2 3.3-5h-2.9c-.8 3.2-1 4.1-2.5 4.1h-.5c.1-.4.1-.9.1-1.3V129H77v10.6h2.9V136c0-.3 0-.6-.1-1h.6c1.5 0 1.6.7 2.7 4.5h3c-1.4-4.3-1.5-5.1-3.7-5.5zm-7.6 5.6V129h-2.9l-2.7 1 .3 1.8 2.5-.6c-.1.4-.1.8-.1 1.3v7h2.9z" class="st22"/><path d="M179.5 189.5h51.9v2.1h-51.9zM51.4 224.8h43.5" class="st11"/></g></switch></svg>