<svg xmlns="http://www.w3.org/2000/svg" xmlns:xlink="http://www.w3.org/1999/xlink" xml:space="preserve" id="Слой_1" x="0" y="0" style="enable-background:new 0 0 227 433" version="1.1" viewBox="0 0 227 433"><style>.st0{fill:#fff5a4}.st1{fill:#39373a}.st2{fill:#fff}.st3{clip-path:url(#SVGID_2_)}.st3,.st4{fill:none;stroke:#39373a;stroke-width:.6}.st5{clip-path:url(#SVGID_4_);fill:#39373a}.st6{fill:none;stroke:#39373a;stroke-width:.236}.st6,.st7{clip-path:url(#SVGID_4_)}.st7,.st8{fill:none;stroke:#39373a;stroke-width:.279}.st9{clip-path:url(#SVGID_6_);fill:#39373a}.st10,.st11{fill:none;stroke:#39373a}.st10{clip-path:url(#SVGID_6_);stroke-width:.279}.st11{stroke-width:.244}.st19{clip-path:url(#SVGID_18_)}.st19,.st20,.st21{fill:none;stroke:#39373a;stroke-width:.669}.st21{stroke-width:.539}</style><switch><g><path d="M24.6 66.3h181.8v140.5H24.6z" class="st0"/><path d="M62.2 141.2h144.2v143H62.2z" class="st0"/><path d="M124.2 259.9h82.2v141.3h-82.2z" class="st0"/><path d="M36.2 149.6h26v9.6h-26z" class="st1"/><path d="M44.1 152.2h10.5v4.5H44.1zm-5.7 0h3.8v4.5h-3.8zm17.6 0h3.8v4.5H56z" class="st2"/><defs><path id="SVGID_1_" d="M15.1 14.9h198.7v403.9H15.1z"/></defs><clipPath id="SVGID_2_"><use xlink:href="#SVGID_1_" style="overflow:visible"/></clipPath><path d="M158.1 202.1s0-5.7 5.7-5.7h33.9s5.7 0 5.7 5.7v7.6s0 5.7-5.7 5.7h-33.9s-5.7 0-5.7-5.7v-7.6z" class="st3"/><path d="M161.2 203.9s0-5.7 5.7-5.7h27.6s5.7 0 5.7 5.7v4.1s0 5.7-5.7 5.7h-27.6s-5.7 0-5.7-5.7v-4.1z" class="st3"/><path d="M165 202.8s0-2.8 2.8-2.8h27.7s2.8 0 2.8 2.8v6.3s0 2.8-2.8 2.8h-27.7s-2.8 0-2.8-2.8v-6.3z" class="st3"/><path d="M195 205.9c0 .5-.4.8-.8.8s-.8-.4-.8-.8c0-.5.4-.8.8-.8s.8.4.8.8z" class="st3"/><path d="M153 217.2h54.9" class="st4"/><defs><path id="SVGID_3_" d="M15.1 14.9h198.7v403.9H15.1z"/></defs><clipPath id="SVGID_4_"><use xlink:href="#SVGID_3_" style="overflow:visible"/></clipPath><path d="M194.7 228.3c0 2.8 2.3 5.1 5.1 5.1h5.4c.4 0 .8-.4.8-.8V221c0-.4-.3-.8-.8-.8h-5.4c-2.8 0-5.1 2.3-5.1 5.1v3zm11.6-7.2v11.6c0 .6-.5 1.1-1.1 1.1h-5.4c-3 0-5.4-2.4-5.4-5.4v-2.9c0-3 2.4-5.4 5.4-5.4h5.4c.6-.1 1.1.4 1.1 1" class="st5"/><path d="M194.7 228.3c0 2.8 2.3 5.1 5.1 5.1h5.4c.4 0 .8-.4.8-.8V221c0-.4-.3-.8-.8-.8h-5.4c-2.8 0-5.1 2.3-5.1 5.1v3zm11.6-7.2v11.6c0 .6-.5 1.1-1.1 1.1h-5.4c-3 0-5.4-2.4-5.4-5.4v-2.9c0-3 2.4-5.4 5.4-5.4h5.4c.6-.1 1.1.4 1.1 1z" class="st6"/><path d="M196 228.3c0 2.1 1.7 3.8 3.8 3.8h3.2c.4 0 .7-.3.7-.7v-9.2c0-.4-.3-.7-.7-.7h-3.2c-2.1 0-3.8 1.7-3.8 3.8v3zm7.9-6v9.2c0 .5-.4 1-1 1h-3.2c-2.3 0-4.1-1.9-4.1-4.1v-2.9c0-2.3 1.9-4.1 4.1-4.1h3.2c.6-.1 1 .3 1 .9" class="st5"/><path d="M196 228.3c0 2.1 1.7 3.8 3.8 3.8h3.2c.4 0 .7-.3.7-.7v-9.2c0-.4-.3-.7-.7-.7h-3.2c-2.1 0-3.8 1.7-3.8 3.8v3zm7.9-6v9.2c0 .5-.4 1-1 1h-3.2c-2.3 0-4.1-1.9-4.1-4.1v-2.9c0-2.3 1.9-4.1 4.1-4.1h3.2c.6-.1 1 .3 1 .9z" class="st6"/><path d="M198.6 226.9c0 .4.3.6.6.6.4 0 .6-.3.6-.6s-.3-.6-.6-.6c-.3-.1-.6.2-.6.6m1.6 0c0 .5-.4.9-.9.9s-.9-.4-.9-.9.4-.9.9-.9c.5-.1.9.4.9.9" class="st5"/><path d="M198.6 226.9c0 .4.3.6.6.6.4 0 .6-.3.6-.6s-.3-.6-.6-.6c-.3-.1-.6.2-.6.6zm1.6 0c0 .5-.4.9-.9.9s-.9-.4-.9-.9.4-.9.9-.9c.5-.1.9.4.9.9z" class="st6"/><path d="M36.4 189.3c0-2.8-2.3-5.1-5.1-5.1h-5.4c-.4 0-.8.4-.8.8v11.6c0 .4.3.8.8.8h5.4c2.8 0 5.1-2.3 5.1-5.1v-3zm-11.6 7.2v-11.6c0-.6.5-1.1 1.1-1.1h5.4c3 0 5.4 2.4 5.4 5.4v2.9c0 3-2.4 5.4-5.4 5.4h-5.4c-.7.1-1.1-.4-1.1-1" class="st5"/><path d="M36.4 189.3c0-2.8-2.3-5.1-5.1-5.1h-5.4c-.4 0-.8.4-.8.8v11.6c0 .4.3.8.8.8h5.4c2.8 0 5.1-2.3 5.1-5.1v-3zm-11.6 7.2v-11.6c0-.6.5-1.1 1.1-1.1h5.4c3 0 5.4 2.4 5.4 5.4v2.9c0 3-2.4 5.4-5.4 5.4h-5.4c-.7.1-1.1-.4-1.1-1z" class="st6"/><path d="M35.1 189.3c0-2.1-1.7-3.8-3.8-3.8h-3.2c-.4 0-.7.3-.7.7v9.2c0 .4.3.7.7.7h3.2c2.1 0 3.8-1.7 3.8-3.8v-3zm-8 6v-9.2c0-.5.4-1 1-1h3.2c2.3 0 4.1 1.9 4.1 4.1v2.9c0 2.3-1.9 4.1-4.1 4.1h-3.2c-.5.1-1-.3-1-.9" class="st5"/><path d="M35.1 189.3c0-2.1-1.7-3.8-3.8-3.8h-3.2c-.4 0-.7.3-.7.7v9.2c0 .4.3.7.7.7h3.2c2.1 0 3.8-1.7 3.8-3.8v-3zm-8 6v-9.2c0-.5.4-1 1-1h3.2c2.3 0 4.1 1.9 4.1 4.1v2.9c0 2.3-1.9 4.1-4.1 4.1h-3.2c-.5.1-1-.3-1-.9z" class="st6"/><path d="M32.4 190.7c0-.3-.3-.6-.6-.6s-.6.3-.6.6c0 .4.3.6.6.6s.6-.2.6-.6m-1.6 0c0-.5.4-.9.9-.9s.9.4.9.9-.4.9-.9.9-.9-.4-.9-.9" class="st5"/><path d="M32.4 190.7c0-.3-.3-.6-.6-.6s-.6.3-.6.6c0 .4.3.6.6.6s.6-.2.6-.6zm-1.6 0c0-.5.4-.9.9-.9s.9.4.9.9-.4.9-.9.9-.9-.4-.9-.9z" class="st6"/><path d="M42.4 167.8c0 2.6-2.1 4.7-4.8 4.7h-6.9c-.5 0-.8-.4-.8-.8v-7.8c0-.4.4-.8.8-.8h6.9c2.6-.1 4.8 2.1 4.8 4.7m-12.8-4v7.8c0 .6.5 1.1 1.1 1.1h6.9c2.8 0 5.1-2.3 5.1-5 0-2.8-2.3-5-5.1-5h-6.9c-.6 0-1.1.5-1.1 1.1" class="st5"/><path d="M42.4 167.8c0 2.6-2.1 4.7-4.8 4.7h-6.9c-.5 0-.8-.4-.8-.8v-7.8c0-.4.4-.8.8-.8h6.9c2.6-.1 4.8 2.1 4.8 4.7zm-12.8-4v7.8c0 .6.5 1.1 1.1 1.1h6.9c2.8 0 5.1-2.3 5.1-5 0-2.8-2.3-5-5.1-5h-6.9c-.6 0-1.1.5-1.1 1.1z" class="st7"/><path d="M32.2 171.1v-6.8s0-.1.1-.1h5.2c1.9 0 3.5 1.6 3.5 3.5s-1.6 3.5-3.5 3.5l-5.3-.1c0 .1 0 .1 0 0z" class="st7"/><path d="M32.4 171.1v-6.6h5.1c1.8 0 3.3 1.5 3.3 3.3 0 1.8-1.5 3.3-3.3 3.3h-5.1zm-.4-6.7v6.8c0 .1.1.2.2.2h5.2c2 0 3.7-1.6 3.7-3.6s-1.6-3.6-3.7-3.6h-5.2c0-.1-.2 0-.2.2" class="st5"/><path d="M32.4 171.1v-6.6h5.1c1.8 0 3.3 1.5 3.3 3.3 0 1.8-1.5 3.3-3.3 3.3h-5.1zm-.4-6.7v6.8c0 .1.1.2.2.2h5.2c2 0 3.7-1.6 3.7-3.6s-1.6-3.6-3.7-3.6h-5.2c0-.1-.2 0-.2.2z" class="st7"/><path d="M37.5 167.8c0 .5-.4.9-.9.9s-.9-.4-.9-.9.4-.9.9-.9.9.4.9.9m-2.1 0c0 .7.5 1.2 1.2 1.2s1.2-.5 1.2-1.2-.5-1.2-1.2-1.2-1.2.5-1.2 1.2" class="st5"/><path d="M37.5 167.8c0 .5-.4.9-.9.9s-.9-.4-.9-.9.4-.9.9-.9.9.4.9.9zm-2.1 0c0 .7.5 1.2 1.2 1.2s1.2-.5 1.2-1.2-.5-1.2-1.2-1.2-1.2.5-1.2 1.2z" class="st7"/><path d="m32.9 170.4.2.2 2.1-1.5-.2-.3z" class="st1"/><path d="m32.9 170.4.2.2 2.1-1.5-.2-.3z" class="st8"/><path d="m32.9 165.2 2.1 1.6.2-.3-2.1-1.6z" class="st1"/><path d="m32.9 165.2 2.1 1.6.2-.3-2.1-1.6z" class="st8"/><defs><path id="SVGID_5_" d="M15.1 14.9h198.7v403.9H15.1z"/></defs><clipPath id="SVGID_6_"><use xlink:href="#SVGID_5_" style="overflow:visible"/></clipPath><path d="M29.5 171c0 .7-.6 1.3-1.3 1.3h-1.8c-.7 0-1.3-.6-1.3-1.3v-6.5c0-.7.6-1.3 1.3-1.3h1.8c.7 0 1.3.6 1.3 1.3v6.5zm-4.7-6.5v6.5c0 .9.7 1.6 1.6 1.6h1.8c.9 0 1.6-.7 1.6-1.6v-6.5c0-.9-.7-1.6-1.6-1.6h-1.8c-.9 0-1.6.7-1.6 1.6" class="st9"/><path d="M29.5 171c0 .7-.6 1.3-1.3 1.3h-1.8c-.7 0-1.3-.6-1.3-1.3v-6.5c0-.7.6-1.3 1.3-1.3h1.8c.7 0 1.3.6 1.3 1.3v6.5zm-4.7-6.5v6.5c0 .9.7 1.6 1.6 1.6h1.8c.9 0 1.6-.7 1.6-1.6v-6.5c0-.9-.7-1.6-1.6-1.6h-1.8c-.9 0-1.6.7-1.6 1.6z" class="st10"/><path d="M27.8 167.8c0 .3-.2.5-.5.5s-.5-.2-.5-.5.2-.5.5-.5.5.2.5.5m-1.3 0c0 .4.4.8.8.8s.8-.4.8-.8-.4-.8-.8-.8-.8.3-.8.8" class="st9"/><path d="M27.8 167.8c0 .3-.2.5-.5.5s-.5-.2-.5-.5.2-.5.5-.5.5.2.5.5zm-1.3 0c0 .4.4.8.8.8s.8-.4.8-.8-.4-.8-.8-.8-.8.3-.8.8z" class="st10"/><path d="M25 149.1h15.9v-15.9H25v15.9zm-.3-16.2h16.6v16.6H24.7v-16.6z" class="st1"/><path d="M25 149.1h15.9v-15.9H25v15.9zm-.3-16.2h16.6v16.6H24.7v-16.6z" class="st11"/><defs><path id="SVGID_7_" d="M15.1 14.9h198.7v403.9H15.1z"/></defs><clipPath id="SVGID_8_"><use xlink:href="#SVGID_7_" style="overflow:visible"/></clipPath><path d="M39.4 135.7c0-.4-.3-.7-.7-.7h-8.3c-.4 0-.7.3-.7.7v11.1c0 .4.3.7.7.7h8.3c.4 0 .7-.3.7-.7v-11.1zm-10.1 11.1v-11.1c0-.6.5-1.1 1.1-1.1h8.3c.6 0 1.1.5 1.1 1.1v11.1c0 .6-.5 1.1-1.1 1.1h-8.3c-.6-.1-1.1-.6-1.1-1.1" style="clip-path:url(#SVGID_8_);fill:#39373a"/><path d="M39.4 135.7c0-.4-.3-.7-.7-.7h-8.3c-.4 0-.7.3-.7.7v11.1c0 .4.3.7.7.7h8.3c.4 0 .7-.3.7-.7v-11.1zm-10.1 11.1v-11.1c0-.6.5-1.1 1.1-1.1h8.3c.6 0 1.1.5 1.1 1.1v11.1c0 .6-.5 1.1-1.1 1.1h-8.3c-.6-.1-1.1-.6-1.1-1.1z" style="clip-path:url(#SVGID_8_);fill:none;stroke:#39373a;stroke-width:.244"/><path d="M30.9 146.2h7.3v-10.1h-7.3v10.1zm-.3-10.4h8v10.8h-8v-10.8z" class="st1"/><path d="M30.9 146.2h7.3v-10.1h-7.3v10.1zm-.3-10.4h8v10.8h-8v-10.8z" class="st11"/><defs><path id="SVGID_9_" d="M15.1 14.9h198.7v403.9H15.1z"/></defs><clipPath id="SVGID_10_"><use xlink:href="#SVGID_9_" style="overflow:visible"/></clipPath><path d="M36 141.2c0-.5-.4-.9-.9-.9s-.9.4-.9.9.4.9.9.9.9-.4.9-.9m-2.2 0c0-.7.6-1.3 1.3-1.3.7 0 1.3.6 1.3 1.3 0 .7-.6 1.3-1.3 1.3-.7 0-1.3-.6-1.3-1.3" style="clip-path:url(#SVGID_10_);fill:#39373a"/><path d="M36 141.2c0-.5-.4-.9-.9-.9s-.9.4-.9.9.4.9.9.9.9-.4.9-.9zm-2.2 0c0-.7.6-1.3 1.3-1.3.7 0 1.3.6 1.3 1.3 0 .7-.6 1.3-1.3 1.3-.7 0-1.3-.6-1.3-1.3z" style="clip-path:url(#SVGID_10_);fill:none;stroke:#39373a;stroke-width:.244"/><path d="M151.5 244.7h15.3v25.1h-15.3z" class="st4"/><defs><path id="SVGID_11_" d="M15.1 14.9h198.7v403.9H15.1z"/></defs><clipPath id="SVGID_12_"><use xlink:href="#SVGID_11_" style="overflow:visible"/></clipPath><path d="M168.5 158.3v-6.1h-1.7l-1.6.6.2 1.1 1.4-.3c-.1.2-.1.5-.1.7v4.1h1.8zm-4.2-1.5c-.4 0-.6.1-.6.6v.4c0 .4.1.6.6.6h.4c.4 0 .6-.1.6-.6v-.4c0-.4-.1-.6-.6-.6h-.4zm-5.5-3.4h1.7c.6 0 .8.1.8.6 0 .4-.1.7-.7.7h-1.2v1.1h1.2c.7 0 .8.2.8.7 0 .6-.2.7-1 .7-.5 0-.9 0-1.7-.1l-.1 1.2c.7.1 1.5.2 2.2.2 1.6 0 2.2-.5 2.2-1.8 0-.9-.3-1.4-1.1-1.5.8-.1 1-.7 1-1.5 0-1.1-.6-1.4-2.1-1.4-.7 0-1.4.1-2.1.2l.1.9zm-1.2 4.9v-6.1h-1.7l-1.6.6.2 1.1 1.4-.3c-.1.2-.1.5-.1.7v4.1h1.8zm19.8-12.2c0-.2.1-.3.4-.3h.9v.6c-.3.2-.6.3-.9.3-.3 0-.4-.1-.4-.4v-.2zm-1.2-1.7c.7 0 1.4-.1 1.9-.1s.6.1.6.5v.1h-1.5c-.9 0-1.4.4-1.4 1.1v.4c0 .8.7 1.3 1.5 1.3s1.3-.4 1.6-.8l.2.6h1.3v-2.8c0-1.3-.7-1.7-1.8-1.7-.7 0-1.8.1-2.4.2v1.2zm-.7 0v-1.2h-4.4v1.2h1.4v3.2h1.6v-3.2h1.4zm-7.9 1.7c0-.2.1-.3.4-.3h.9v.6c-.3.2-.6.3-.9.3-.3 0-.4-.1-.4-.4v-.2zm-1.2-1.7c.7 0 1.4-.1 1.9-.1s.6.1.6.5v.1h-1.5c-.9 0-1.4.4-1.4 1.1v.4c0 .8.7 1.3 1.5 1.3s1.3-.4 1.6-.8l.2.6h1.3v-2.8c0-1.3-.7-1.7-1.8-1.7-.6 0-1.8.1-2.4.2v1.2zm-1.1-1.2h-1.6v1.6h-1.4v-1.6h-1.6v4.4h1.6v-1.8h1.4v1.8h1.6v-4.4zm-7.5 0c-.3 0-.6.2-.6.5l-.4 1.6c0 .2-.1.4-.1.7h-.1c0-.2 0-.4-.1-.7l-.4-1.6c-.1-.3-.3-.5-.6-.5h-1.4c-.4 0-.6.2-.6.5l-.1 3.9h1.5l.1-3.2h.1l.5 2.1c.1.3.3.5.6.5h.7c.3 0 .5-.2.6-.5l.5-2.1h.1l.1 3.2h1.5l-.1-3.9c0-.4-.2-.5-.6-.5h-1.2zm-7.3 1c.5 0 .7.2.7 1.2s-.1 1.2-.7 1.2-.7-.2-.7-1.2.2-1.2.7-1.2m0-1.1c-1.7 0-2.4.6-2.4 2.3 0 1.7.6 2.3 2.4 2.3 1.7 0 2.4-.6 2.4-2.3 0-1.7-.7-2.3-2.4-2.3m-4.4 2.2c1-.2 1-.2 1.5-2.1H146c-.4 1.5-.4 1.6-1 1.6h-.2c0-.2.1-.4.1-.6v-1h-1.6v4.4h1.6v-1.4c0-.1 0-.2-.1-.4h.4c.5 0 .5.1 1 1.8h1.7c-.8-2.1-.8-2.1-1.8-2.3zm28.5-10.8h-.6c-.4 0-.5-.1-.5-.6 0-.3.1-.4.5-.4h.6v1zm-1.8.6c-.3 0-.7.1-.8.5l-.3 1.4h1.7l.3-1.2c0-.2.1-.3.4-.3h.6v1.4h1.6v-4.4c-.6-.1-1-.1-2.2-.1-1.6 0-2 .3-2 1.4-.2.6 0 1.1.7 1.3zm-4.7.3c0-.2.1-.3.4-.3h.9v.6c-.3.2-.6.3-.9.3-.3 0-.4-.1-.4-.4v-.2zm-1.2-1.7c.7 0 1.4-.1 1.9-.1s.6.1.6.5v.1H168c-.9 0-1.4.4-1.4 1.1v.4c0 .8.7 1.3 1.5 1.3s1.3-.4 1.6-.8l.2.6h1.3V134c0-1.3-.7-1.7-1.8-1.7-.6 0-1.8.1-2.4.2l-.1 1.2zm-1.1-1.1h-2.7c-.8 0-1.2.4-1.2 1.1-.1.8-.1 1.4-.2 1.7-.1.4-.4.3-.7.4l.2 1.2c1 .2 1.8-.1 2-1.2.1-.4.2-1.2.3-1.9 0-.3.2-.4.4-.4h.4v3.3h1.6v-4.2zm-5.4 4.4v-4.4H159l-1.4 2.1-.3.6c0-.3.1-.5.1-.7v-2.1H156v4.4h1.4l1.4-2c.1-.2.3-.5.4-.7 0 .3-.1.5-.1.8v2h1.3zm-7.2-3.3c1.2-.2 1.2-.7 1.9-2.9h-1.7c-.6 1.8-.7 2.4-1.3 2.4h-.3c0-.3.1-.5.1-.8v-1.6h-1.6v1.6c0 .2 0 .5.1.8h-.3c-.6 0-.7-.6-1.2-2.4h-1.7c.6 2.2.7 2.7 1.9 2.9v.1c-1.2.2-1.3.7-2 3.2h1.7c.7-2.2.8-2.6 1.4-2.6h.3c0 .2-.1.4-.1.6v2.1h1.6V135c0-.2 0-.4-.1-.6h.3c.6 0 .7.4 1.4 2.6h1.8c-.8-2.5-.9-3-2.2-3.3zM170.5 351c0-.7.1-1 .7-1 .7 0 .8.2.8 1.6-.3.2-.5.2-.8.2-.6 0-.8-.2-.7-.8m-1.4 4c.7.2 1.4.2 1.7.2 2 0 2.7-.5 2.7-3.2 0-2.5-.4-3.1-2.3-3.1-1.8 0-2.3.7-2.3 2.2 0 1.1.4 1.9 1.8 1.9.6 0 .9-.1 1.3-.4 0 1-.3 1.4-1.1 1.4h-1.6l-.2 1zm-1.8-1.5c-.4 0-.6.1-.6.6v.4c0 .4.1.6.6.6h.4c.4 0 .6-.1.6-.6v-.4c0-.4-.1-.6-.6-.6h-.4zm-5.7-3.3h1.9c.5 0 .7 0 .7.3s-.4.9-1.1 1.6l-1.4 1.4c-.2.2-.2.4-.2.7v.9h4.6v-1.4h-1.8c-.3 0-.6 0-.9.1l1.5-1.5c.8-.8 1-1.2 1-1.9 0-1.2-.9-1.5-2.2-1.5-.7 0-1.3 0-2.2.2l.1 1.1zm-1.2 4.8v-6.1h-1.7l-1.6.6.2 1.1 1.4-.3c-.1.2-.1.5-.1.7v4.1h1.8zm20.8-12.2c0-.2.1-.3.4-.3h.9v.6c-.3.2-.6.3-.9.3-.3 0-.4-.1-.4-.4v-.2zm-1.2-1.7c.7 0 1.4-.1 1.9-.1s.6.1.6.5v.1H181c-.9 0-1.4.4-1.4 1.1v.4c0 .8.7 1.3 1.5 1.3s1.3-.4 1.6-.8l.2.6h1.3v-2.8c0-1.3-.7-1.7-1.8-1.7-.6 0-1.8.1-2.4.2v1.2zm-.7.1V340h-4.4v1.2h1.4v3.2h1.6v-3.2h1.4zm-7.9 1.6c0-.2.1-.3.4-.3h.9v.6c-.3.2-.6.3-.9.3-.3 0-.4-.1-.4-.4v-.2zm-1.2-1.7c.7 0 1.4-.1 1.9-.1s.6.1.6.5v.1h-1.5c-.9 0-1.4.4-1.4 1.1v.4c0 .8.7 1.3 1.5 1.3s1.3-.4 1.6-.8l.2.6h1.3v-2.8c0-1.3-.7-1.7-1.8-1.7-.7 0-1.8.1-2.4.2v1.2zm-1.1-1.1h-1.6v1.6h-1.4V340h-1.6v4.4h1.6v-1.8h1.4v1.8h1.6V340zm-7.5 0c-.3 0-.6.2-.6.5l-.4 1.6c0 .2-.1.4-.1.7h-.1c0-.2 0-.4-.1-.7l-.4-1.6c-.1-.3-.3-.5-.6-.5H158c-.4 0-.6.2-.6.5l-.1 3.9h1.5l.1-3.2h.1l.5 2.1c.1.3.3.5.6.5h.7c.3 0 .5-.2.6-.5l.5-2.1h.1l.1 3.2h1.5l-.1-3.9c0-.4-.2-.5-.6-.5h-1.3zm-7.3 1c.5 0 .7.2.7 1.2s-.1 1.2-.7 1.2-.7-.2-.7-1.2.1-1.2.7-1.2m0-1.2c-1.7 0-2.4.6-2.4 2.3 0 1.7.6 2.3 2.4 2.3 1.7 0 2.4-.6 2.4-2.3-.1-1.6-.7-2.3-2.4-2.3m-4.5 2.3c1-.2 1-.2 1.5-2.1h-1.6c-.4 1.5-.4 1.6-1 1.6h-.2c0-.2.1-.4.1-.6v-1H147v4.4h1.6V343c0-.1 0-.2-.1-.4h.4c.5 0 .5.1 1 1.8h1.7c-.7-2.1-.7-2.1-1.8-2.3zm28.5-10.8h-.6c-.4 0-.5-.1-.5-.6 0-.3.1-.4.5-.4h.6v1zm-1.7.5c-.3 0-.7.1-.8.5l-.3 1.4h1.7l.3-1.2c0-.2.1-.3.4-.3h.6v1.4h1.6v-4.4c-.6-.1-1-.1-2.2-.1-1.6 0-2 .3-2 1.4-.3.6-.1 1.2.7 1.3zm-4.7.4c0-.2.1-.3.4-.3h.9v.6c-.3.2-.6.3-.9.3-.3 0-.4-.1-.4-.4v-.2zm-1.2-1.8c.7 0 1.4-.1 1.9-.1s.6.1.6.5v.1h-1.5c-.9 0-1.4.4-1.4 1.1v.4c0 .8.7 1.3 1.5 1.3s1.3-.4 1.6-.8l.2.6h1.3v-2.8c0-1.3-.7-1.7-1.8-1.7-.6 0-1.8.1-2.4.2v1.2zm-1.1-1.1h-2.7c-.8 0-1.2.4-1.2 1.1-.1.8-.1 1.4-.2 1.7-.1.4-.4.3-.7.4l.2 1.2c1 .2 1.8-.1 2-1.2.1-.4.2-1.2.3-1.9 0-.3.2-.4.4-.4h.4v3.3h1.6v-4.2zm-5.4 4.4v-4.4h-1.4l-1.4 2.1-.3.6c0-.3.1-.5.1-.7v-2.1h-1.4v4.4h1.4l1.4-2c.1-.2.3-.5.4-.7 0 .3-.1.5-.1.8v2h1.3zm-7.2-3.2c1.2-.2 1.2-.7 1.9-2.9h-1.7c-.6 1.8-.7 2.4-1.3 2.4h-.3c0-.3.1-.5.1-.8v-1.6h-1.6v1.6c0 .2 0 .5.1.8h-.3c-.6 0-.7-.6-1.2-2.4H151c.6 2.2.7 2.7 1.9 2.9v.1c-1.2.2-1.3.7-2 3.2h1.7c.7-2.2.8-2.6 1.4-2.6h.3c0 .2-.1.4-.1.6v2.1h1.6v-2.1c0-.2 0-.4-.1-.6h.3c.6 0 .7.4 1.4 2.6h1.8c-.9-2.6-1-3.1-2.2-3.3zm-43-96.3.1-1.2h-3.8l-.2 2.8c0 .3.2.5.5.6l1 .1c.8.1 1.1.2 1.1.8 0 .5-.2.7-1 .7-.4 0-1 0-1.6-.1l-.2 1.3c.8.1 1.6.2 2.2.2 1.7 0 2.2-.9 2.2-2 0-1-.4-1.9-1.8-2l-1-.1.1-.9h2.4zm-5.8 3.4c-.4 0-.6.1-.6.6v.4c0 .4.1.6.6.6h.4c.4 0 .6-.1.6-.6v-.4c0-.4-.1-.6-.6-.6h-.4zm-1.6 1.5V233h-1.7l-1.6.6.2 1.1 1.4-.3c-.1.2-.1.5-.1.7v4.1h1.8zm-4 0V233h-1.7l-1.6.6.2 1.1 1.4-.3c-.1.2-.1.5-.1.7v4.1h1.8zm25-13.1h-.6c-.4 0-.5-.1-.5-.6 0-.3.1-.4.5-.4h.6v1zm-1.8.6c-.3 0-.7.1-.8.5l-.3 1.4h1.7l.3-1.2c0-.2.1-.3.4-.3h.6v1.4h1.6V224c-.6-.1-1-.1-2.2-.1-1.6 0-2 .3-2 1.4-.2.6 0 1.1.7 1.3zm-4.7.3c0-.2.1-.3.4-.3h.9v.6c-.3.2-.6.3-.9.3-.3 0-.4-.1-.4-.4v-.2zm-1.2-1.7c.7 0 1.4-.1 1.9-.1s.6.1.6.5v.1H121c-.9 0-1.4.4-1.4 1.1v.4c0 .8.7 1.3 1.5 1.3s1.3-.4 1.6-.8l.2.6h1.3v-2.8c0-1.3-.7-1.7-1.8-1.7-.6 0-1.8.1-2.4.2l-.1 1.2zm-2.4.9c1-.1 1-.3 1.6-2.1h-1.6c-.5 1.4-.5 1.6-1 1.6h-.3c0-.2.1-.4.1-.6v-1h-1.4v1.1c0 .2 0 .4.1.6h-.3c-.4 0-.5-.2-1-1.6h-1.6c.6 1.8.5 2 1.6 2.1-1.1.2-1.1.2-1.7 2.3h1.6c.6-1.7.6-1.8 1-1.8h.4c0 .1-.1.3-.1.4v1.4h1.4v-1.9h.4c.4 0 .4.1 1 1.8h1.6c-.8-2-.8-2.1-1.8-2.3zm-8.3-1.1c.5 0 .7.2.7 1.2s-.1 1.2-.7 1.2-.7-.2-.7-1.2.2-1.2.7-1.2m0-1.1c-1.7 0-2.4.6-2.4 2.3 0 1.7.6 2.3 2.4 2.3 1.7 0 2.4-.6 2.4-2.3 0-1.7-.7-2.3-2.4-2.3m-4.2 4.5h1.6l-1.3-2.3 1.2-2.2h-1.6l-.9 1.7-.9-1.7h-1.6l1.2 2.2-1.3 2.3h1.6l1-1.8 1 1.8zm-4 0V224h-1.4l-1.4 2.1-.3.6c0-.3.1-.5.1-.7v-2h-1.4v4.4H98l1.4-2c.1-.2.3-.5.4-.7 0 .3-.1.5-.1.8v2h1.3zm-8.4-3c.3-.2.5-.3.8-.3.4 0 .6.2.6 1.2s-.2 1.2-.6 1.2c-.3 0-.5-.1-.8-.2v-1.9zm-.3-1.4H91v6.1h1.6v-2c.4.3.9.4 1.4.4 1.1 0 1.7-.5 1.7-2.3 0-1.5-.4-2.4-1.6-2.4-.7 0-1.4.3-1.7.7l-.1-.5zm-2.4-1.7h-5.1v6.1h1.7v-5h1.8v5H90v-6.1zm94.8 24.2.1-1.2H181l-.2 2.8c0 .3.2.5.5.6l1 .1c.8.1 1.1.2 1.1.8 0 .5-.2.7-1 .7-.4 0-1 0-1.6-.1l-.2 1.3c.8.1 1.6.2 2.2.2 1.7 0 2.2-.9 2.2-2 0-1-.4-1.9-1.8-2l-1-.1.1-.9h2.4zm-5.8 3.4c-.4 0-.6.1-.6.6v.4c0 .4.1.6.6.6h.4c.4 0 .6-.1.6-.6v-.4c0-.4-.1-.6-.6-.6h-.4zm-1.1-.9h-.8v-2.5h-1.3l-.3 1v1.6h-1.2c-.1 0-.2-.1-.2-.3l1.3-3.5h-1.6l-1.5 3.9c-.2.5.1.9.6.9h2.5v1.3h1.5v-1.3l.7-.2v-.9zm15-10.7h-.6c-.4 0-.5-.1-.5-.6 0-.3.1-.4.5-.4h.6v1zm-1.7.5c-.3 0-.7.1-.8.5l-.3 1.4h1.7l.3-1.2c0-.2.1-.3.4-.3h.6v1.4h1.6v-4.4c-.6-.1-1-.1-2.2-.1-1.6 0-2 .3-2 1.4-.3.6-.1 1.2.7 1.3zm-4.7.4c0-.2.1-.3.4-.3h.9v.6c-.3.2-.6.3-.9.3-.3 0-.4-.1-.4-.4v-.2zm-1.2-1.8c.7 0 1.4-.1 1.9-.1s.6.1.6.5v.1h-1.5c-.9 0-1.4.4-1.4 1.1v.4c0 .8.7 1.3 1.5 1.3s1.3-.4 1.6-.8l.2.6h1.3v-2.8c0-1.3-.7-1.7-1.8-1.7-.6 0-1.8.1-2.4.2v1.2zm-1.2-1.1h-1.6v1.6H181v-1.6h-1.6v4.4h1.6v-1.8h1.4v1.8h1.6v-4.4zm-5.4 0H177v1.6h-1.4v-1.6H174v4.4h1.6v-1.8h1.4v1.8h1.6v-4.4zm-8.4 2.9c0-.2.1-.3.4-.3h.9v.6c-.3.2-.6.3-.9.3-.3 0-.4-.1-.4-.4v-.2zm-1.2-1.8c.7 0 1.4-.1 1.9-.1s.6.1.6.5v.1H170c-.9 0-1.4.4-1.4 1.1v.4c0 .8.7 1.3 1.5 1.3s1.3-.4 1.6-.8l.2.6h1.3v-2.8c0-1.3-.7-1.7-1.8-1.7-.6 0-1.8.1-2.4.2v1.2zm-4.2 2.2V238h.8c.6 0 .8.2.8.8 0 .6-.2.8-.8.8h-.8zm0-2.6v-1.3h.8c.6 0 .7.1.7.7s-.2.7-.7.7h-.8zm2 .5c.8-.1 1.1-.5 1.1-1.4 0-1.3-.6-1.6-2.2-1.6-1.1 0-1.8 0-2.5.1v6.1c.8.1 1.5.1 2.8.1 1.5 0 2.1-.3 2.1-1.6 0-1-.4-1.6-1.3-1.7z" style="clip-path:url(#SVGID_12_);fill:#39373a"/><path d="m147.4 113.3-.1 2 2.3.3c3.3.4 4.1 2.4 4.1 4.6 0 2.5-1.1 4.6-5.1 4.6-1.4 0-3.2-.1-5-.4l.3-2.9c1.3.1 2.6.2 3.6.2 1.8 0 2.3-.4 2.3-1.6.1-1.3-.6-1.6-2.5-1.7l-2.2-.3c-.7-.1-1.1-.6-1.1-1.3l.4-6.3h8.8l-.1 2.8h-5.7zm10.3 3.9c-1.5-.2-2.1-1.7-2.1-3.2 0-2.6.9-3.8 5.1-3.8 4.3 0 5.2 1.1 5.2 3.8 0 1.5-.6 3-2.1 3.2v.1c2 .2 2.5 1.9 2.5 3.7 0 2.7-1.1 3.7-5.5 3.8-4.4 0-5.5-1.1-5.5-3.8 0-1.8.4-3.5 2.4-3.8zm1.1 3.1c0 1.4.4 1.7 1.9 1.7 1.6 0 1.9-.3 1.9-1.7 0-1.5-.3-1.8-1.9-1.8-1.5 0-1.9.4-1.9 1.8zm.2-5.8c0 1.3.3 1.5 1.8 1.5 1.4 0 1.7-.3 1.7-1.5 0-1.4-.3-1.7-1.7-1.7s-1.8.3-1.8 1.7zm11.2 6.6c1 0 1.3.3 1.3 1.3v.9c0 1-.3 1.3-1.3 1.3h-.9c-1 0-1.3-.3-1.3-1.3v-.9c0-1 .3-1.3 1.3-1.3h.9zm4.9 3.4v-9.3c0-.5 0-1.1.1-1.7l-3.2.7-.4-2.4 3.6-1.4h3.8v14h-3.9z" class="st1"/><defs><path id="SVGID_13_" d="M15.1 14.9h198.7v403.9H15.1z"/></defs><clipPath id="SVGID_14_"><use xlink:href="#SVGID_13_" style="overflow:visible"/></clipPath><circle cx="161.8" cy="94.7" r="12.4" style="clip-path:url(#SVGID_14_);fill:none;stroke:#39373a;stroke-width:.854"/><path d="M152.8 89.7c1.6-.3 2.6-.4 3.8-.4 2.3 0 3.8.5 3.8 2.6 0 1.2-.3 1.8-1.7 3.3l-2.6 2.6c.5-.1 1-.1 1.5-.1h3.1v2.5h-7.9v-1.5c0-.5.1-.8.4-1.2l2.4-2.5c1.2-1.2 1.9-2.2 1.9-2.8 0-.4-.4-.5-1.2-.5-1.1 0-1.9 0-3.3.1l-.2-2.1zm14.8 4.9c2.2.3 2.3 1.1 3.6 5.5h-3c-1.1-3.8-1.2-4.5-2.7-4.5h-.6c.1.3.1.7.1 1v3.6h-2.9V89.5h2.9v2.8c0 .4 0 .9-.1 1.3h.5c1.5 0 1.7-1 2.5-4.1h2.9c-1.1 3.8-1.1 4.7-3.2 5.1z" class="st1"/><defs><path id="SVGID_15_" d="M15.1 14.9h198.7v403.9H15.1z"/></defs><clipPath id="SVGID_16_"><use xlink:href="#SVGID_15_" style="overflow:visible"/></clipPath><path d="M74.3 121.8h1.9c.5 0 .7 0 .7.3s-.4.9-1.1 1.6l-1.4 1.4c-.2.2-.2.4-.2.7v.9h4.6v-1.4H77c-.3 0-.6 0-.9.1l1.5-1.5c.8-.8 1-1.2 1-1.9 0-1.2-.9-1.5-2.2-1.5-.7 0-1.3 0-2.2.2l.1 1.1zm-1.7 3.3c-.4 0-.6.1-.6.6v.4c0 .4.1.6.6.6h.4c.4 0 .6-.1.6-.6v-.4c0-.4-.1-.6-.6-.6h-.4zm-1.7 1.5v-6.1h-1.7l-1.6.6.2 1.1 1.4-.3c-.1.2-.1.5-.1.7v4.1h1.8zm-4 0v-6.1h-1.7l-1.6.6.2 1.1 1.4-.3c-.1.2-.1.5-.1.7v4.1h1.8zm15.8-13h-.6c-.4 0-.5-.1-.5-.6 0-.3.1-.4.5-.4h.6v1zm-1.7.5c-.3 0-.7.1-.8.5l-.3 1.4h1.7l.3-1.2c0-.2.1-.3.4-.3h.6v1.4h1.6v-4.4c-.6-.1-1-.1-2.2-.1-1.6 0-2 .3-2 1.4-.3.6 0 1.1.7 1.3zm-1.8-2.5h-1.6v1.6h-1.4v-1.6h-1.6v4.4h1.6v-1.8h1.4v1.8h1.6v-4.4zm-6.7 4.4h1.6l-1.3-2.3 1.2-2.2h-1.6l-.9 1.7-.9-1.7H69l1.2 2.2L69 116h1.6l1-1.8.9 1.8zm-3.6-4.4h-1.7l-.6 2.6c0 .2-.1.5-.2.8h-.1c0-.3-.1-.5-.1-.8l-.7-2.6h-1.7l1.4 4c.1.2.3.4.5.4h.3c-.1.2-.3.4-.5.5-.3.2-.7.2-1.2.2l-.1 1c.6.1 1.3.1 1.8-.1.7-.2 1.2-.7 1.5-1.7l1.4-4.3zm-7.2 1.2c1.2-.2 1.3-.7 1.9-2.9h-1.7c-.5 1.8-.6 2.4-1.5 2.4h-.3c0-.2.1-.5.1-.8v-1.6h-1.7v6.1h1.7v-2.1c0-.2 0-.4-.1-.6h.3c.9 0 .9.4 1.6 2.6h1.7c-.7-2.4-.8-2.9-2-3.1zm-17 72.5c0-.6.1-.9.6-.9.6 0 .7.2.7 1.4-.2.1-.4.2-.7.2-.5 0-.7-.1-.6-.7m-1.2 3.4c.6.2 1.2.2 1.4.2 1.7 0 2.3-.4 2.3-2.7 0-2.1-.3-2.6-2-2.6-1.5 0-1.9.6-1.9 1.9 0 1 .3 1.6 1.5 1.6.5 0 .8-.1 1.1-.3 0 .9-.2 1.1-.9 1.1h-1.4l-.1.8zm-1.5-1.2c-.4 0-.5.1-.5.5v.3c0 .4.1.5.5.5h.3c.4 0 .5-.1.5-.5v-.3c0-.4-.1-.5-.5-.5H42zm-1.5 1.2v-5.2h-1.4l-1.3.5.2.9 1.2-.3c0 .2-.1.4-.1.6v3.5h1.4zm15-11.7v-1h-3.7v1H53v2.7h1.4V177h1.1zm-6.5.5c0-.6.2-.7.6-.7.4 0 .5.1.5.4 0 .2 0 .3-.4.3H49zm1.2.7c1 0 1.3-.3 1.3-1 0-.9-.5-1.3-1.9-1.3-1.5 0-2 .5-2 2 0 1.3.6 1.9 2.1 1.9.6 0 1.3-.1 1.8-.3l-.1-.8c-.6.1-1.1.1-1.5.1-.5 0-.7-.1-.7-.5h1zm-3.3-2.3h-2.3c-.6 0-1 .3-1 1-.1.7-.1 1.2-.2 1.5-.1.3-.3.3-.6.3l.1 1c.8.1 1.6-.1 1.7-1 .1-.4.2-1 .2-1.6 0-.2.1-.3.4-.3h.3v2.8h1.4v-3.7zm-7 2.5c0-.2.1-.3.3-.3h.8v.5c-.2.2-.5.3-.7.3-.2 0-.4-.1-.4-.3v-.2zm-1-1.5c.6 0 1.2-.1 1.6-.1.4 0 .5.1.5.4v.1h-1.2c-.7 0-1.2.4-1.2 1v.4c0 .7.6 1.1 1.3 1.1.7 0 1.1-.3 1.3-.6l.1.6h1.1v-2.4c0-1.1-.6-1.5-1.6-1.5-.6 0-1.5.1-2.1.2l.2.8zm-.5-1h-1.5l-.6 2.2c0 .2-.1.4-.2.6H36c0-.2-.1-.4-.1-.6l-.6-2.2H34l1.2 3.4c.1.2.2.3.4.3h.3c-.1.2-.2.4-.4.4-.2.1-.6.2-1 .2l-.1.9c.5.1 1.1.1 1.5-.1.6-.2 1-.6 1.3-1.5l1.2-3.6zm-4.2-.3v-1.1h-4.4v1.1h1.5v4.1h1.4v-4.1h1.5z" style="clip-path:url(#SVGID_16_);fill:#39373a"/><path d="M53.6 282.1h69.8v8.4H53.6z" class="st1"/><path d="M116.8 282.1h7.4v136.8h-7.4zm-63.2-82.5h8.6v36.1h-8.6zm0 63.8h8.6v26h-8.6zM15.1 19.8h9.5v188h-9.5z" class="st1"/><path d="M16.5 199.5h39.4v8.2H16.5zm63.8 82.6h10.8v3.2H80.3zm31.8 0h16.7v3.2h-16.7zm37.1-107.6h4.7v48.6h-4.7zm0 69.3h4.7v42.6h-4.7z" class="st1"/><path d="M151.5 266.2h55.8v4.7h-55.8zm0-75.7h55.8v4.7h-55.8zm-38.4-129h4.7v99.7h-4.7z" class="st1"/><path d="M113.1 153.4h7.4v25.7h-7.4zm0-91.9H140v7.4h-26.9zm-6.9-12.8h42.1v9.4h-42.1z" class="st1"/><path d="M94.5 48.7h42.1v9.4H94.5zm-77.4 0h38.4v9.4H17.1zm170.5 0h26.2v9.4h-26.2z" class="st1"/><path d="M106.2 54.5h40.5v11.8h-40.5z" class="st1"/><path d="M96.1 54.5h40.5v11.8H96.1zm-76.2 0h33.9v11.8H19.9zm186.5-5.8h7.4v370.2h-7.4z" class="st1"/><path d="M189.4 54.5h24.4v11.8h-24.4zM17.9 20.3h18.9v35.4H17.9z" class="st1"/><defs><path id="SVGID_17_" d="M15.1 14.9h198.7v403.9H15.1z"/></defs><clipPath id="SVGID_18_"><use xlink:href="#SVGID_17_" style="overflow:visible"/></clipPath><path d="M126.1 409.3h69.8v9.3h-69.8z" class="st19"/><path d="M126.1 401.6h69.8v17h-69.8z" class="st19"/><path d="M128.5 49h38.4v9.3h-38.4z" class="st20"/><path d="M128.5 49h38.4v17.1h-38.4zm-54 0h34.7v9.3H74.5z" class="st20"/><path d="M74.5 49h34.7v17.1H74.5z" class="st20"/><path d="M187.4 409.5h26.4v9.4h-26.4zm-67.5 0h29.9v9.4h-29.9z" class="st1"/><path d="M190 401.2h23.8V413H190zm-70.1 0h27.3V413h-27.3z" class="st1"/><path d="m40.729 258.263 14.984-25.179 1.203.716-14.984 25.179z" class="st21"/><defs><path id="SVGID_19_" d="M15.1 14.9h198.7v403.9H15.1z"/></defs><clipPath id="SVGID_20_"><use xlink:href="#SVGID_19_" style="overflow:visible"/></clipPath><path d="M42.1 259.1s2.3 1.6 7.4 3.3c1.9.6 3.9 1.1 5.5 1.5" style="clip-path:url(#SVGID_20_);fill:none;stroke:#39373a;stroke-width:.539"/><path d="m121.032 175.742 19.679-11.711.716 1.203-19.68 11.711z" class="st21"/><defs><path id="SVGID_21_" d="M15.1 14.9h198.7v403.9H15.1z"/></defs><clipPath id="SVGID_22_"><use xlink:href="#SVGID_21_" style="overflow:visible"/></clipPath><path d="M141.5 165.4s1.6 2.3 3.3 7.4c.6 1.9 1.1 3.9 1.5 5.5" style="clip-path:url(#SVGID_22_);fill:none;stroke:#39373a;stroke-width:.539"/><path d="m89.333 165.327.716-1.203 19.679 11.712-.716 1.203z" class="st21"/><defs><path id="SVGID_23_" d="M15.1 14.9h198.7v403.9H15.1z"/></defs><clipPath id="SVGID_24_"><use xlink:href="#SVGID_23_" style="overflow:visible"/></clipPath><path d="M89.2 165.4s-1.6 2.3-3.3 7.4c-.6 1.9-1.1 3.9-1.5 5.5" style="clip-path:url(#SVGID_24_);fill:none;stroke:#39373a;stroke-width:.539"/><path d="m59.217 179.101 1.203-.716 9.768 16.413-1.203.716z" class="st21"/><defs><path id="SVGID_25_" d="M15.1 14.9h198.7v403.9H15.1z"/></defs><clipPath id="SVGID_26_"><use xlink:href="#SVGID_25_" style="overflow:visible"/></clipPath><path d="M68.8 195.6s-2.3 1.6-7.4 3.3c-1.9.6-3.9 1.1-5.5 1.5" style="clip-path:url(#SVGID_26_);fill:none;stroke:#39373a;stroke-width:.539"/><path d="m139.341 238.627 11.712-19.68 1.203.717-11.712 19.679z" class="st21"/><defs><path id="SVGID_27_" d="M15.1 14.9h198.7v403.9H15.1z"/></defs><clipPath id="SVGID_28_"><use xlink:href="#SVGID_27_" style="overflow:visible"/></clipPath><path d="M140.7 239.4s2.3 1.6 7.4 3.3c1.9.6 3.9 1.1 5.5 1.5" style="clip-path:url(#SVGID_28_);fill:none;stroke:#39373a;stroke-width:.539"/><path d="m124.991 285.448.716-1.203 19.679 11.711-.716 1.203z" class="st21"/><defs><path id="SVGID_29_" d="M15.1 14.9h198.7v403.9H15.1z"/></defs><clipPath id="SVGID_30_"><use xlink:href="#SVGID_29_" style="overflow:visible"/></clipPath><path d="M145.6 295.8s1.6-2.3 3.3-7.4c.6-1.9 1.1-3.9 1.5-5.5" style="clip-path:url(#SVGID_30_);fill:none;stroke:#39373a;stroke-width:.539"/><path d="M23.7 149.6h13.6v5.4H23.7zm33.1 8.2h5.4v23.8h-5.4z" class="st1"/><path d="M59.5 174.1h26.4v5.4H59.5zm45.2 0h18.7v5.4h-18.7zm40.7 0h8.4v5.4h-8.4zM24.6 19.8h152.3v4.8H24.6zm148-4.9h34.8v4.8h-34.8z" class="st1"/><path d="M205.8 14.9h4.8v34.7h-4.8z" class="st1"/><defs><path id="SVGID_31_" d="M15.1 14.9h198.7v403.9H15.1z"/></defs><clipPath id="SVGID_32_"><use xlink:href="#SVGID_31_" style="overflow:visible"/></clipPath><path d="M118.3 34.5c0-.7.1-1 .7-1 .7 0 .8.2.8 1.6-.3.2-.5.2-.8.2-.6 0-.7-.2-.7-.8m-1.3 4c.7.2 1.4.2 1.7.2 2 0 2.7-.5 2.7-3.2 0-2.5-.4-3.1-2.3-3.1-1.8 0-2.3.7-2.3 2.2 0 1.1.4 1.9 1.8 1.9.6 0 .9-.1 1.3-.4 0 1-.3 1.4-1.1 1.4h-1.6l-.2 1zm-1.9-1.5c-.4 0-.6.1-.6.6v.4c0 .4.1.6.6.6h.4c.4 0 .6-.1.6-.6v-.4c0-.4-.1-.6-.6-.6h-.4zm-1.4-3.4.1-1.2H110l-.2 2.8c0 .3.2.5.5.6l1 .1c.8.1 1.1.2 1.1.8 0 .5-.2.7-1 .7-.4 0-1 0-1.6-.1l-.2 1.3c.8.1 1.6.2 2.2.2 1.7 0 2.2-.9 2.2-2 0-1-.4-1.9-1.8-2l-1-.1.1-.9h2.4z" style="clip-path:url(#SVGID_32_);fill:#39373a"/><path d="m171.71 66.202 17.874-10.637.716 1.203-17.874 10.638z" class="st21"/><defs><path id="SVGID_33_" d="M15.1 14.9h198.7v403.9H15.1z"/></defs><clipPath id="SVGID_34_"><use xlink:href="#SVGID_33_" style="overflow:visible"/></clipPath><path d="M171.6 66s-1.6-2.3-3.3-7.4c-.6-1.9-1.1-3.9-1.5-5.5" style="clip-path:url(#SVGID_34_);fill:none;stroke:#39373a;stroke-width:.539"/><path d="m51.107 56.756.716-1.203L69.697 66.19l-.716 1.203z" class="st21"/><defs><path id="SVGID_35_" d="M15.1 14.9h198.7v403.9H15.1z"/></defs><clipPath id="SVGID_36_"><use xlink:href="#SVGID_35_" style="overflow:visible"/></clipPath><path d="M69.8 66s1.6-2.3 3.3-7.4c.6-1.9 1.1-3.9 1.5-5.5" style="clip-path:url(#SVGID_36_);fill:none;stroke:#39373a;stroke-width:.539"/><path d="M149.2 263.9h18.7v7h-18.7z" class="st1"/><path d="M151 265.8h10.1v3.3H151zm11.8 0h3.2v3.3h-3.2z" class="st2"/><path d="M145.7 409.3h46.6v2.1h-46.6zM74.5 56.2h92.4v2.1H74.5z" class="st20"/></g></switch></svg>