<svg xmlns="http://www.w3.org/2000/svg" xmlns:xlink="http://www.w3.org/1999/xlink" xml:space="preserve" id="Слой_1" x="0" y="0" style="enable-background:new 0 0 301 443" version="1.1" viewBox="0 0 301 443"><style>.st0{fill:#f3dfec}.st1{fill:#39373a}.st2{fill:#fff}.st5{clip-path:url(#SVGID_4_);fill:none;stroke:#39373a;stroke-width:.581}.st7{clip-path:url(#SVGID_6_);fill:#39373a}.st8{fill:none;stroke:#39373a;stroke-width:.236}.st8,.st9{clip-path:url(#SVGID_6_)}.st10,.st9{fill:none;stroke:#39373a;stroke-width:.279}.st11{clip-path:url(#SVGID_8_);fill:#39373a}.st12,.st13{fill:none;stroke:#39373a}.st12{clip-path:url(#SVGID_8_);stroke-width:.279}.st13{stroke-width:.244}.st16{clip-path:url(#SVGID_12_);fill:#39373a}.st18{stroke-width:.669}.st18,.st19,.st20{fill:none;stroke:#39373a}.st19{clip-path:url(#SVGID_14_);stroke-width:.669}.st20{stroke-width:.539}</style><switch><g><path d="M40.7 173.9h209v114.9h-209z" class="st0"/><path d="M204.7 229.5h78.4v5.3h-78.4z" class="st1"/><path d="M73.4 71.1h201.5v158.4H73.4z" class="st0"/><path d="M204.7 143h78.4v5.3h-78.4zm0 82.2h20.8v9.6h-20.8z" class="st1"/><path d="M207.4 227.7h10.5v4.5h-10.5zm11.9 0h3.8v4.5h-3.8z" class="st2"/><path d="M74.6 261h88.2v152.7H74.6z" class="st0"/><defs><path id="SVGID_1_" d="M22.8 20.9h260.3v404.5H22.8z"/></defs><clipPath id="SVGID_2_"><use xlink:href="#SVGID_1_" style="overflow:visible"/></clipPath><circle cx="87.5" cy="207.4" r="12.4" style="clip-path:url(#SVGID_2_);fill:none;stroke:#39373a;stroke-width:.854"/><path d="M93.2 207.2c2.1-.3 2.2-1.2 3.3-5h-2.9c-.8 3.2-1 4.1-2.5 4.1h-.5c.1-.4.1-.9.1-1.3v-2.8h-2.9v10.6h2.9v-3.6c0-.3 0-.6-.1-1h.6c1.5 0 1.6.7 2.7 4.5h3c-1.4-4.3-1.6-5.1-3.7-5.5zm-14.4-2.9h3c1.1 0 1.4.1 1.4 1 0 .7-.1 1.2-1.2 1.2h-2v1.8h2c1.1 0 1.4.3 1.4 1.2 0 1.1-.4 1.3-1.8 1.3-.9 0-1.6 0-2.9-.1l-.1 2.1c1.2.2 2.5.3 3.8.3 2.8 0 3.8-.9 3.8-3.2 0-1.6-.5-2.4-2-2.7v-.1c1.4-.2 1.7-1.2 1.7-2.7 0-1.9-1-2.5-3.6-2.5-1.2 0-2.4.1-3.6.3l.1 2.1z" style="clip-path:url(#SVGID_2_);fill:#39373a"/><path d="M208.1 143h26v9.6h-26z" class="st1"/><path d="M216 145.6h10.5v4.5H216zm-5.7 0h3.8v4.5h-3.8zm17.6 0h3.8v4.5h-3.8z" class="st2"/><defs><path id="SVGID_3_" d="M22.8 20.9h260.3v404.5H22.8z"/></defs><clipPath id="SVGID_4_"><use xlink:href="#SVGID_3_" style="overflow:visible"/></clipPath><path d="M268.1 150.6s5.5 0 5.5 5.5v32.8s0 5.5-5.5 5.5h-7.4s-5.5 0-5.5-5.5v-32.8s0-5.5 5.5-5.5h7.4z" class="st5"/><path d="M266.4 153.6s5.5 0 5.5 5.5v26.7s0 5.5-5.5 5.5h-3.9s-5.5 0-5.5-5.5v-26.7s0-5.5 5.5-5.5h3.9z" class="st5"/><path d="M267.5 157.3s2.7 0 2.7 2.7v26.8s0 2.7-2.7 2.7h-6.1s-2.7 0-2.7-2.7V160s0-2.7 2.7-2.7h6.1z" class="st5"/><path d="M264.4 186.3c-.5 0-.8-.4-.8-.8s.4-.8.8-.8.8.4.8.8c0 .5-.3.8-.8.8z" class="st5"/><path d="M253.6 145.7v53.1" style="fill:none;stroke:#39373a;stroke-width:.581"/><defs><path id="SVGID_5_" d="M22.8 20.9h260.3v404.5H22.8z"/></defs><clipPath id="SVGID_6_"><use xlink:href="#SVGID_5_" style="overflow:visible"/></clipPath><path d="M242.4 184c-2.8 0-5.1 2.3-5.1 5.1v5.4c0 .4.4.8.8.8h11.6c.4 0 .8-.3.8-.8v-5.4c0-2.8-2.3-5.1-5.1-5.1h-3zm7.3 11.7h-11.6c-.6 0-1.1-.5-1.1-1.1v-5.4c0-3 2.4-5.4 5.4-5.4h2.9c3 0 5.4 2.4 5.4 5.4v5.4c0 .6-.5 1.1-1 1.1" class="st7"/><path d="M242.4 184c-2.8 0-5.1 2.3-5.1 5.1v5.4c0 .4.4.8.8.8h11.6c.4 0 .8-.3.8-.8v-5.4c0-2.8-2.3-5.1-5.1-5.1h-3zm7.3 11.7h-11.6c-.6 0-1.1-.5-1.1-1.1v-5.4c0-3 2.4-5.4 5.4-5.4h2.9c3 0 5.4 2.4 5.4 5.4v5.4c0 .6-.5 1.1-1 1.1z" class="st8"/><path d="M242.4 185.3c-2.1 0-3.8 1.7-3.8 3.8v3.2c0 .4.3.7.7.7h9.2c.4 0 .7-.3.7-.7v-3.2c0-2.1-1.7-3.8-3.8-3.8h-3zm6.1 8h-9.2c-.5 0-1-.4-1-1v-3.2c0-2.3 1.9-4.1 4.1-4.1h2.9c2.3 0 4.1 1.9 4.1 4.1v3.2c0 .6-.4 1-.9 1" class="st7"/><path d="M242.4 185.3c-2.1 0-3.8 1.7-3.8 3.8v3.2c0 .4.3.7.7.7h9.2c.4 0 .7-.3.7-.7v-3.2c0-2.1-1.7-3.8-3.8-3.8h-3zm6.1 8h-9.2c-.5 0-1-.4-1-1v-3.2c0-2.3 1.9-4.1 4.1-4.1h2.9c2.3 0 4.1 1.9 4.1 4.1v3.2c0 .6-.4 1-.9 1z" class="st8"/><path d="M243.9 188c-.4 0-.6.3-.6.6 0 .4.3.6.6.6s.6-.3.6-.6-.3-.6-.6-.6m0 1.6c-.5 0-.9-.4-.9-.9s.4-.9.9-.9.9.4.9.9c0 .4-.4.9-.9.9" class="st7"/><path d="M243.9 188c-.4 0-.6.3-.6.6 0 .4.3.6.6.6s.6-.3.6-.6-.3-.6-.6-.6zm0 1.6c-.5 0-.9-.4-.9-.9s.4-.9.9-.9.9.4.9.9c0 .4-.4.9-.9.9z" class="st8"/><path d="M241 217.6c-2.8 0-5.1 2.3-5.1 5.1v5.4c0 .4.4.8.8.8h11.6c.4 0 .8-.3.8-.8v-5.4c0-2.8-2.3-5.1-5.1-5.1h-3zm7.3 11.6h-11.6c-.6 0-1.1-.5-1.1-1.1v-5.4c0-3 2.4-5.4 5.4-5.4h2.9c3 0 5.4 2.4 5.4 5.4v5.4c0 .7-.5 1.1-1 1.1" class="st7"/><path d="M241 217.6c-2.8 0-5.1 2.3-5.1 5.1v5.4c0 .4.4.8.8.8h11.6c.4 0 .8-.3.8-.8v-5.4c0-2.8-2.3-5.1-5.1-5.1h-3zm7.3 11.6h-11.6c-.6 0-1.1-.5-1.1-1.1v-5.4c0-3 2.4-5.4 5.4-5.4h2.9c3 0 5.4 2.4 5.4 5.4v5.4c0 .7-.5 1.1-1 1.1z" class="st8"/><path d="M241 218.9c-2.1 0-3.8 1.7-3.8 3.8v3.2c0 .4.3.7.7.7h9.2c.4 0 .7-.3.7-.7v-3.2c0-2.1-1.7-3.8-3.8-3.8h-3zm6.1 8h-9.2c-.5 0-1-.4-1-1v-3.2c0-2.3 1.9-4.1 4.1-4.1h2.9c2.3 0 4.1 1.9 4.1 4.1v3.2c0 .5-.4 1-.9 1" class="st7"/><path d="M241 218.9c-2.1 0-3.8 1.7-3.8 3.8v3.2c0 .4.3.7.7.7h9.2c.4 0 .7-.3.7-.7v-3.2c0-2.1-1.7-3.8-3.8-3.8h-3zm6.1 8h-9.2c-.5 0-1-.4-1-1v-3.2c0-2.3 1.9-4.1 4.1-4.1h2.9c2.3 0 4.1 1.9 4.1 4.1v3.2c0 .5-.4 1-.9 1z" class="st8"/><path d="M242.5 221.6c-.4 0-.6.3-.6.6 0 .4.3.6.6.6s.6-.3.6-.6-.3-.6-.6-.6m0 1.5c-.5 0-.9-.4-.9-.9s.4-.9.9-.9.9.4.9.9-.4.9-.9.9" class="st7"/><path d="M242.5 221.6c-.4 0-.6.3-.6.6 0 .4.3.6.6.6s.6-.3.6-.6-.3-.6-.6-.6zm0 1.5c-.5 0-.9-.4-.9-.9s.4-.9.9-.9.9.4.9.9-.4.9-.9.9z" class="st8"/><path d="M257.2 214.2c0-2.6 2.1-4.7 4.8-4.7h6.9c.5 0 .8.4.8.8v7.8c0 .4-.4.8-.8.8H262c-2.7 0-4.8-2.1-4.8-4.7m12.8 3.9v-7.8c0-.6-.5-1.1-1.1-1.1H262c-2.8 0-5.1 2.3-5.1 5 0 2.8 2.3 5 5.1 5h6.9c.6.1 1.1-.4 1.1-1.1" class="st7"/><path d="M257.2 214.2c0-2.6 2.1-4.7 4.8-4.7h6.9c.5 0 .8.4.8.8v7.8c0 .4-.4.8-.8.8H262c-2.7 0-4.8-2.1-4.8-4.7zm12.8 3.9v-7.8c0-.6-.5-1.1-1.1-1.1H262c-2.8 0-5.1 2.3-5.1 5 0 2.8 2.3 5 5.1 5h6.9c.6.1 1.1-.4 1.1-1.1z" class="st9"/><path d="M267.3 210.8v6.8s0 .1-.1.1H262c-1.9 0-3.5-1.6-3.5-3.5s1.6-3.5 3.5-3.5l5.3.1z" class="st9"/><path d="M267.2 210.9v6.6h-5.1c-1.8 0-3.3-1.5-3.3-3.3 0-1.8 1.5-3.3 3.3-3.3h5.1zm.3 6.7v-6.8c0-.1-.1-.2-.2-.2h-5.2c-2 0-3.7 1.6-3.7 3.6s1.6 3.6 3.7 3.6h5.2c.1 0 .2-.1.2-.2" class="st7"/><path d="M267.2 210.9v6.6h-5.1c-1.8 0-3.3-1.5-3.3-3.3 0-1.8 1.5-3.3 3.3-3.3h5.1zm.3 6.7v-6.8c0-.1-.1-.2-.2-.2h-5.2c-2 0-3.7 1.6-3.7 3.6s1.6 3.6 3.7 3.6h5.2c.1 0 .2-.1.2-.2z" class="st9"/><path d="M262.1 214.2c0-.5.4-.9.9-.9s.9.4.9.9-.4.9-.9.9-.9-.4-.9-.9m2.1 0c0-.7-.5-1.2-1.2-1.2s-1.2.5-1.2 1.2.5 1.2 1.2 1.2c.6 0 1.2-.5 1.2-1.2" class="st7"/><path d="M262.1 214.2c0-.5.4-.9.9-.9s.9.4.9.9-.4.9-.9.9-.9-.4-.9-.9zm2.1 0c0-.7-.5-1.2-1.2-1.2s-1.2.5-1.2 1.2.5 1.2 1.2 1.2c.6 0 1.2-.5 1.2-1.2z" class="st9"/><path d="m266.7 211.6-.2-.3-2.2 1.6.2.3z" class="st1"/><path d="m266.7 211.6-.2-.3-2.2 1.6.2.3z" class="st10"/><path d="m266.7 216.8-2.2-1.6-.2.3 2.2 1.6z" class="st1"/><path d="m266.7 216.8-2.2-1.6-.2.3 2.2 1.6z" class="st10"/><defs><path id="SVGID_7_" d="M22.8 20.9h260.3v404.5H22.8z"/></defs><clipPath id="SVGID_8_"><use xlink:href="#SVGID_7_" style="overflow:visible"/></clipPath><path d="M270 211c0-.7.6-1.3 1.3-1.3h1.8c.7 0 1.3.6 1.3 1.3v6.5c0 .7-.6 1.3-1.3 1.3h-1.8c-.7 0-1.3-.6-1.3-1.3V211zm4.8 6.5V211c0-.9-.7-1.6-1.6-1.6h-1.8c-.9 0-1.6.7-1.6 1.6v6.5c0 .9.7 1.6 1.6 1.6h1.8c.8 0 1.6-.7 1.6-1.6" class="st11"/><path d="M270 211c0-.7.6-1.3 1.3-1.3h1.8c.7 0 1.3.6 1.3 1.3v6.5c0 .7-.6 1.3-1.3 1.3h-1.8c-.7 0-1.3-.6-1.3-1.3V211zm4.8 6.5V211c0-.9-.7-1.6-1.6-1.6h-1.8c-.9 0-1.6.7-1.6 1.6v6.5c0 .9.7 1.6 1.6 1.6h1.8c.8 0 1.6-.7 1.6-1.6z" class="st12"/><path d="M271.7 214.2c0-.3.2-.5.5-.5s.5.2.5.5-.2.5-.5.5c-.2 0-.5-.2-.5-.5m1.4 0c0-.4-.4-.8-.8-.8-.5 0-.8.4-.8.8s.4.8.8.8.8-.3.8-.8" class="st11"/><path d="M271.7 214.2c0-.3.2-.5.5-.5s.5.2.5.5-.2.5-.5.5c-.2 0-.5-.2-.5-.5zm1.4 0c0-.4-.4-.8-.8-.8-.5 0-.8.4-.8.8s.4.8.8.8.8-.3.8-.8z" class="st12"/><path d="M274.4 126.2h-15.9V142h15.9v-15.8zm.4 16.2h-16.6v-16.6h16.6v16.6z" class="st1"/><path d="M274.4 126.2h-15.9V142h15.9v-15.8zm.4 16.2h-16.6v-16.6h16.6v16.6z" class="st13"/><defs><path id="SVGID_9_" d="M22.8 20.9h260.3v404.5H22.8z"/></defs><clipPath id="SVGID_10_"><use xlink:href="#SVGID_9_" style="overflow:visible"/></clipPath><path d="M260 139.7c0 .4.3.7.7.7h8.3c.4 0 .7-.3.7-.7v-11.1c0-.4-.3-.7-.7-.7h-8.3c-.4 0-.7.3-.7.7v11.1zm10.1-11.1v11.1c0 .6-.5 1.1-1.1 1.1h-8.3c-.6 0-1.1-.5-1.1-1.1v-11.1c0-.6.5-1.1 1.1-1.1h8.3c.6 0 1.1.5 1.1 1.1" style="clip-path:url(#SVGID_10_);fill:#39373a"/><path d="M260 139.7c0 .4.3.7.7.7h8.3c.4 0 .7-.3.7-.7v-11.1c0-.4-.3-.7-.7-.7h-8.3c-.4 0-.7.3-.7.7v11.1zm10.1-11.1v11.1c0 .6-.5 1.1-1.1 1.1h-8.3c-.6 0-1.1-.5-1.1-1.1v-11.1c0-.6.5-1.1 1.1-1.1h8.3c.6 0 1.1.5 1.1 1.1z" style="clip-path:url(#SVGID_10_);fill:none;stroke:#39373a;stroke-width:.244"/><path d="M268.5 129.1h-7.3v10.1h7.3v-10.1zm.4 10.4h-8v-10.8h8v10.8z" class="st1"/><path d="M268.5 129.1h-7.3v10.1h7.3v-10.1zm.4 10.4h-8v-10.8h8v10.8z" class="st13"/><defs><path id="SVGID_11_" d="M22.8 20.9h260.3v404.5H22.8z"/></defs><clipPath id="SVGID_12_"><use xlink:href="#SVGID_11_" style="overflow:visible"/></clipPath><path d="M263.5 134.1c0 .5.4.9.9.9s.9-.4.9-.9-.4-.9-.9-.9-.9.4-.9.9m2.2 0c0 .7-.6 1.3-1.3 1.3-.7 0-1.3-.6-1.3-1.3 0-.7.6-1.3 1.3-1.3.7 0 1.3.6 1.3 1.3" class="st16"/><path d="M263.5 134.1c0 .5.4.9.9.9s.9-.4.9-.9-.4-.9-.9-.9-.9.4-.9.9zm2.2 0c0 .7-.6 1.3-1.3 1.3-.7 0-1.3-.6-1.3-1.3 0-.7.6-1.3 1.3-1.3.7 0 1.3.6 1.3 1.3z" style="clip-path:url(#SVGID_12_);fill:none;stroke:#39373a;stroke-width:.244"/><path d="M122.6 360h1.7c.6 0 .8.1.8.6 0 .4-.1.7-.7.7h-1.2v1.1h1.2c.7 0 .8.2.8.7 0 .6-.2.7-1 .7-.5 0-.9 0-1.7-.1l-.1 1.2c.7.1 1.5.2 2.2.2 1.6 0 2.2-.5 2.2-1.8 0-.9-.3-1.4-1.1-1.5.8-.1 1-.7 1-1.5 0-1.1-.6-1.4-2.1-1.4-.7 0-1.4.1-2.1.2l.1.9zm-1.8 3.4c-.4 0-.6.1-.6.6v.4c0 .4.1.6.6.6h.4c.4 0 .6-.1.6-.6v-.4c0-.4-.1-.6-.6-.6h-.4zm-5.8-3.3h1.9c.5 0 .7 0 .7.3s-.4.9-1.1 1.6l-1.4 1.4c-.2.2-.2.4-.2.7v.9h4.6v-1.4h-1.8c-.3 0-.6 0-.9.1l1.5-1.5c.8-.8 1-1.2 1-1.9 0-1.2-.9-1.5-2.2-1.5-.7 0-1.3 0-2.2.2l.1 1.1zm-1.1 4.8v-6.1h-1.7l-1.6.6.2 1.1 1.4-.3c-.1.2-.1.5-.1.7v4.1h1.8zm20.7-12.2c0-.2.1-.3.4-.3h.9v.6c-.3.2-.6.3-.9.3-.3 0-.4-.1-.4-.4v-.2zm-1.2-1.7c.7 0 1.4-.1 1.9-.1s.6.1.6.5v.1h-1.5c-.9 0-1.4.4-1.4 1.1v.4c0 .8.7 1.3 1.5 1.3s1.3-.4 1.6-.8l.2.6h1.3v-2.8c0-1.3-.7-1.7-1.8-1.7-.7 0-1.8.1-2.4.2v1.2zm-.8.1v-1.2h-4.4v1.2h1.4v3.2h1.6v-3.2h1.4zm-7.9 1.6c0-.2.1-.3.4-.3h.9v.6c-.3.2-.6.3-.9.3-.3 0-.4-.1-.4-.4v-.2zm-1.2-1.7c.7 0 1.4-.1 1.9-.1s.6.1.6.5v.1h-1.5c-.9 0-1.4.4-1.4 1.1v.4c0 .8.7 1.3 1.5 1.3s1.3-.4 1.6-.8l.2.6h1.3v-2.8c0-1.3-.7-1.7-1.8-1.7-.6 0-1.8.1-2.4.2v1.2zm-1.1-1.1h-1.6v1.6h-1.4v-1.6h-1.6v4.4h1.6v-1.8h1.4v1.8h1.6v-4.4zm-7.4 0c-.3 0-.6.2-.6.5l-.4 1.6c0 .2-.1.4-.1.7h-.1c0-.2 0-.4-.1-.7l-.4-1.6c-.1-.3-.3-.5-.6-.5h-1.4c-.4 0-.6.2-.6.5l-.1 3.9h1.5l.1-3.2h.1l.5 2.1c.1.3.3.5.6.5h.7c.3 0 .5-.2.6-.5l.5-2.1h.1l.1 3.2h1.5l-.1-3.9c0-.4-.2-.5-.6-.5H115zm-7.4 1c.5 0 .7.2.7 1.2s-.1 1.2-.7 1.2-.7-.2-.7-1.2.2-1.2.7-1.2m0-1.2c-1.7 0-2.4.6-2.4 2.3 0 1.7.6 2.3 2.4 2.3 1.7 0 2.4-.6 2.4-2.3 0-1.6-.7-2.3-2.4-2.3m-4.4 2.3c1-.2 1-.2 1.5-2.1h-1.6c-.4 1.5-.4 1.6-1 1.6h-.2c0-.2.1-.4.1-.6v-1h-1.6v4.4h1.6v-1.4c0-.1 0-.2-.1-.4h.4c.5 0 .5.1 1 1.8h1.7c-.7-2.1-.8-2.1-1.8-2.3zm28.5-10.8h-.7c-.4 0-.5-.1-.5-.6 0-.3.1-.4.5-.4h.6v1zm-1.8.5c-.3 0-.7.1-.8.5l-.3 1.4h1.7l.3-1.2c0-.2.1-.3.4-.3h.6v1.4h1.6v-4.4c-.6-.1-1-.1-2.2-.1-1.6 0-2 .3-2 1.4-.2.6 0 1.2.7 1.3zm-4.7.4c0-.2.1-.3.4-.3h.9v.6c-.3.2-.6.3-.9.3-.3 0-.4-.1-.4-.4v-.2zm-1.2-1.8c.7 0 1.4-.1 1.9-.1s.6.1.6.5v.1H125c-.9 0-1.4.4-1.4 1.1v.4c0 .8.7 1.3 1.5 1.3s1.3-.4 1.6-.8l.2.6h1.3v-2.8c0-1.3-.7-1.7-1.8-1.7-.6 0-1.8.1-2.4.2v1.2zm-1.1-1.1h-2.7c-.8 0-1.2.4-1.2 1.1-.1.8-.1 1.4-.2 1.7-.1.4-.4.3-.7.4l.2 1.2c1 .2 1.8-.1 2-1.2.1-.4.2-1.2.3-1.9 0-.3.2-.4.4-.4h.4v3.3h1.6v-4.2zm-5.4 4.4v-4.4h-1.4l-1.4 2.1-.3.6c0-.3.1-.5.1-.7v-2.1H113v4.4h1.4l1.4-2c.1-.2.3-.5.4-.7 0 .3-.1.5-.1.8v2h1.4zm-7.2-3.2c1.2-.2 1.2-.7 1.9-2.9h-1.7c-.6 1.8-.7 2.4-1.3 2.4h-.2c0-.3.1-.5.1-.8v-1.6h-1.6v1.6c0 .2 0 .5.1.8h-.3c-.6 0-.7-.6-1.2-2.4h-1.7c.6 2.2.7 2.7 1.9 2.9v.1c-1.2.2-1.3.7-2 3.2h1.7c.7-2.2.8-2.6 1.4-2.6h.3c0 .2-.1.4-.1.6v2.1h1.6v-2.1c0-.2 0-.4-.1-.6h.3c.6 0 .7.4 1.4 2.6h1.8c-.9-2.6-1-3.1-2.3-3.3zm-59.9 15.5c.7 0 .8.2.8.8 0 .6-.1.8-.8.8-.7 0-.9-.2-.9-.8 0-.6.1-.8.9-.8m-.1-2.5c.6 0 .8.1.8.7 0 .5-.1.7-.7.7s-.8-.1-.8-.7c0-.5.1-.7.7-.7m-1.3 2c-.9.1-1.1.8-1.1 1.6 0 1.2.5 1.7 2.4 1.7s2.4-.5 2.4-1.7c0-.8-.2-1.6-1.1-1.6.7-.1.9-.7.9-1.4 0-1.1-.4-1.6-2.3-1.6-1.8 0-2.2.5-2.2 1.6.1.6.4 1.3 1 1.4zm-2.8 1.7c-.4 0-.6.1-.6.6v.4c0 .4.1.6.6.6h.4c.4 0 .6-.1.6-.6v-.4c0-.4-.1-.6-.6-.6h-.4zm-5.5-3.5h1.7c.6 0 .8.1.8.6 0 .4-.1.7-.7.7h-1.2v1.1h1.2c.7 0 .8.2.8.7 0 .6-.2.7-1 .7-.5 0-.9 0-1.7-.1l-.1 1.2c.7.1 1.5.2 2.2.2 1.6 0 2.2-.5 2.2-1.8 0-.9-.3-1.4-1.1-1.5.8-.1 1-.7 1-1.5 0-1.1-.6-1.4-2.1-1.4-.7 0-1.4.1-2.1.2l.1.9zm156.2-87v-6.1h-1.7l-1.6.6.2 1.1 1.4-.3c-.1.2-.1.5-.1.7v4.1h1.8zm-4.2-1.5c-.4 0-.6.1-.6.6v.4c0 .4.1.6.6.6h.4c.4 0 .6-.1.6-.6v-.4c0-.4-.1-.6-.6-.6h-.4zm-5.5-3.4h1.7c.6 0 .8.1.8.6 0 .4-.1.7-.7.7h-1.2v1.1h1.2c.7 0 .8.2.8.7 0 .6-.2.7-1 .7-.5 0-.9 0-1.7-.1l-.1 1.2c.7.1 1.5.2 2.2.2 1.6 0 2.2-.5 2.2-1.8 0-.9-.3-1.4-1.1-1.5.8-.1 1-.7 1-1.5 0-1.1-.6-1.4-2.1-1.4-.7 0-1.4.1-2.1.2l.1.9zm-1.2 4.9v-6.1h-1.7l-1.6.6.2 1.1 1.4-.3c-.1.2-.1.5-.1.7v4.1h1.8zm24.8-13.1h-.6c-.4 0-.5-.1-.5-.6 0-.3.1-.4.5-.4h.6v1zm-1.7.6c-.3 0-.7.1-.8.5l-.3 1.4h1.7l.3-1.2c0-.2.1-.3.4-.3h.6v1.4h1.6v-4.5c-.6-.1-1-.1-2.2-.1-1.6 0-2 .3-2 1.4-.3.7-.1 1.2.7 1.4zm-4.7.3c0-.2.1-.3.4-.3h.9v.6c-.3.2-.6.3-.9.3-.3 0-.4-.1-.4-.4v-.2zm-1.2-1.7c.7 0 1.4-.1 1.9-.1s.6.1.6.5v.1h-1.5c-.9 0-1.4.4-1.4 1.1v.4c0 .8.7 1.3 1.5 1.3s1.3-.4 1.6-.8l.2.6h1.3V253c0-1.3-.7-1.7-1.8-1.7-.6 0-1.8.1-2.4.2v1.2zm-2.5.9c1-.1 1-.3 1.6-2.1h-1.6c-.5 1.4-.5 1.6-1 1.6h-.3c0-.2.1-.4.1-.6v-1.1h-1.4v1.1c0 .2 0 .4.1.6h-.3c-.4 0-.5-.2-1-1.6h-1.6c.6 1.8.5 2 1.6 2.1-1.1.2-1.1.2-1.7 2.3h1.6c.6-1.7.6-1.8 1-1.8h.4c0 .1-.1.3-.1.4v1.4h1.4v-1.8h.4c.4 0 .4.1 1 1.8h1.6c-.7-2-.7-2.1-1.8-2.3zm-8.2-1c.5 0 .7.2.7 1.2s-.1 1.2-.7 1.2-.7-.2-.7-1.2.1-1.2.7-1.2m0-1.2c-1.7 0-2.4.6-2.4 2.3 0 1.7.6 2.3 2.4 2.3 1.7 0 2.4-.6 2.4-2.3-.1-1.7-.7-2.3-2.4-2.3m-4.2 4.6h1.6l-1.3-2.3 1.2-2.2h-1.6l-.9 1.7-.9-1.7h-1.6l1.2 2.2-1.3 2.3h1.6l1-1.8 1 1.8zm-4.1 0v-4.4h-1.4l-1.4 2.1-.3.6c0-.3.1-.5.1-.7v-2.1h-1.4v4.4h1.4l1.4-2c.1-.2.3-.5.4-.7 0 .3-.1.5-.1.8v2h1.3zm-8.4-3.1c.3-.2.5-.3.8-.3.4 0 .6.2.6 1.2s-.2 1.2-.6 1.2c-.3 0-.5-.1-.8-.2v-1.9zm-.3-1.4h-1.3v6.1h1.6v-2c.4.3.9.4 1.4.4 1.1 0 1.7-.5 1.7-2.3 0-1.5-.4-2.4-1.6-2.4-.7 0-1.4.3-1.7.7l-.1-.5zm-2.3-1.7H168v6.1h1.7v-5h1.8v5h1.7v-6.1zm-82.3 13.1.1 1.3h2.7l-.3.6-1.5 4.1h1.6l1.8-5.3c.2-.5-.1-.8-.6-.8h-3.8zm-1.2 4.6c-.4 0-.6.1-.6.6v.4c0 .4.1.6.6.6h.3c.4 0 .6-.1.6-.6v-.4c0-.4-.1-.6-.6-.6h-.3zm-5.8-3.3h1.9c.5 0 .7 0 .7.3s-.4.9-1.1 1.6l-1.4 1.4c-.2.2-.2.4-.2.7v.9h4.6v-1.4h-1.8c-.3 0-.6 0-.9.1l1.5-1.5c.8-.8 1-1.2 1-1.9 0-1.2-.9-1.5-2.2-1.5-.7 0-1.3 0-2.2.2l.1 1.1zm-1.1 4.8v-6.1h-1.7l-1.6.6.2 1.1 1.4-.3c-.1.2-.1.5-.1.7v4.1h1.8zm20.4-12.1c0-.2.1-.3.4-.3h.9v.6c-.3.2-.6.3-.9.3-.3 0-.4-.1-.4-.4v-.2zm-1.2-1.8c.7 0 1.4-.1 1.9-.1s.6.1.6.5v.1H103c-.9 0-1.4.4-1.4 1.1v.4c0 .8.7 1.3 1.5 1.3s1.3-.4 1.6-.8l.2.6h1.3v-2.8c0-1.3-.7-1.7-1.8-1.7-.6 0-1.8.1-2.4.2v1.2zm-.8.1V254h-4.4v1.2h1.4v3.2h1.6v-3.2h1.4zm-7.9 1.7c0-.2.1-.3.4-.3h.9v.6c-.3.2-.6.3-.9.3-.3 0-.4-.1-.4-.4v-.2zm-1.2-1.8c.7 0 1.4-.1 1.9-.1s.6.1.6.5v.1h-1.5c-.9 0-1.4.4-1.4 1.1v.4c0 .8.7 1.3 1.5 1.3s1.3-.4 1.6-.8l.2.6h1.3v-2.8c0-1.3-.7-1.7-1.8-1.7-.7 0-1.8.1-2.4.2v1.2zM91 254h-1.6v1.6H88V254h-1.6v4.4H88v-1.8h1.4v1.8H91V254zm-7.4 0c-.3 0-.6.2-.6.5l-.4 1.6c0 .2-.1.4-.1.7h-.1c0-.2 0-.4-.1-.7l-.4-1.6c-.1-.3-.3-.5-.6-.5H80c-.4 0-.6.2-.6.6l-.1 3.9h1.5l.1-3.2h.1l.5 2.1c.1.3.3.5.6.5h.7c.3 0 .5-.2.6-.5l.5-2.1h.1l.1 3.2h1.5l-.1-3.9c0-.4-.2-.6-.6-.6h-1.3zm-7.4 1c.5 0 .7.2.7 1.2s-.1 1.2-.7 1.2-.7-.2-.7-1.2.2-1.2.7-1.2m0-1.2c-1.7 0-2.4.6-2.4 2.3 0 1.7.6 2.3 2.4 2.3 1.7 0 2.4-.6 2.4-2.3 0-1.6-.6-2.3-2.4-2.3m-4.4 2.3c1-.2 1-.2 1.5-2.1h-1.6c-.4 1.5-.4 1.6-1 1.6h-.2c0-.2.1-.4.1-.6v-1H69v4.4h1.6V257c0-.1 0-.2-.1-.4h.4c.5 0 .5.1 1 1.8h1.7c-.7-2.1-.8-2.1-1.8-2.3zm28.5-10.8h-.6c-.4 0-.5-.1-.5-.6 0-.3.1-.4.5-.4h.6v1zm-1.7.6c-.3 0-.7.1-.8.5l-.3 1.4H99l.3-1.2c0-.2.1-.3.4-.3h.6v1.4h1.6v-4.5c-.6-.1-1-.1-2.2-.1-1.6 0-2 .3-2 1.4-.1.7.1 1.2.9 1.4zm-4.7.3c0-.2.1-.3.4-.3h.9v.6c-.3.2-.6.3-.9.3-.3 0-.4-.1-.4-.4v-.2zm-1.3-1.7c.7 0 1.4-.1 1.9-.1s.6.1.6.5v.1h-1.5c-.9 0-1.4.4-1.4 1.1v.4c0 .8.7 1.3 1.5 1.3s1.3-.4 1.6-.8l.2.6h1.3v-2.8c0-1.3-.7-1.7-1.8-1.7-.6 0-1.8.1-2.4.2v1.2zm-1.1-1.2h-2.7c-.8 0-1.2.4-1.2 1.1-.1.8-.1 1.4-.2 1.7-.1.4-.4.3-.7.4l.2 1.2c1 .2 1.8-.1 2-1.2.1-.4.2-1.2.3-1.9 0-.3.2-.4.4-.4h.4v3.3h1.6v-4.2zm-5.4 4.4v-4.4h-1.4l-1.4 2.1-.3.6c0-.3.1-.5.1-.7v-2.1h-1.4v4.4H83l1.4-2c.1-.2.3-.5.4-.7 0 .3-.1.5-.1.8v2h1.4zm-7.1-3.2c1.2-.2 1.2-.7 1.9-2.9h-1.7c-.6 1.8-.7 2.4-1.3 2.4h-.3c0-.3.1-.5.1-.8v-1.6h-1.6v1.6c0 .2 0 .5.1.8h-.3c-.6 0-.7-.6-1.2-2.4H73c.6 2.2.7 2.7 1.9 2.9v.1c-1.2.2-1.3.7-2 3.2h1.7c.7-2.2.8-2.6 1.4-2.6h.3c0 .2-.1.4-.1.6v2.1h1.6v-2.1c0-.2 0-.4-.1-.6h.3c.6 0 .7.4 1.4 2.6H81c-.7-2.6-.8-3.1-2-3.3zm25.6-18.1.1-2.8H96l-.4 6.3c0 .6.4 1.2 1.1 1.3l2.2.3c1.9.2 2.6.4 2.5 1.7-.1 1.1-.5 1.6-2.3 1.6-1 0-2.3-.1-3.6-.2l-.3 2.9c1.8.3 3.6.4 5 .4 4 0 5.1-2.1 5.1-4.6 0-2.3-.8-4.3-4.1-4.6l-2.3-.3.1-2h5.6zm-13.1 7.8c-1 0-1.3.3-1.3 1.3v.9c0 1 .3 1.3 1.3 1.3h.9c1 0 1.3-.3 1.3-1.3v-.9c0-1-.3-1.3-1.3-1.3h-.9zm-3.8 3.4v-14h-3.8l-3.6 1.4.4 2.4 3.2-.7c-.1.6-.1 1.1-.1 1.7v9.3h3.9zm-18.2-14 .2 3.1h6.1c-.3.5-.5 1-.7 1.5l-3.4 9.5h3.7l4.2-12.1c.3-1-.3-1.9-1.4-1.9h-8.7zm54.5-90.3h1.9c.5 0 .7 0 .7.3s-.4.9-1.1 1.6l-1.4 1.4c-.2.2-.2.4-.2.7v.9h4.6v-1.4h-1.8c-.3 0-.6 0-.9.1l1.5-1.5c.8-.8 1-1.2 1-1.9 0-1.2-.9-1.5-2.2-1.5-.7 0-1.3 0-2.2.2l.1 1.1zm-1.8 3.3c-.4 0-.6.1-.6.6v.4c0 .4.1.6.6.6h.4c.4 0 .6-.1.6-.6v-.4c0-.4-.1-.6-.6-.6h-.4zm-1.6 1.5V132h-1.7l-1.6.6.2 1.1 1.4-.3c-.1.2-.1.5-.1.7v4.1h1.8zm-4 0V132h-1.7l-1.6.6.2 1.1 1.4-.3c-.1.2-.1.5-.1.7v4.1h1.8zm20.1-12.2c0-.2.1-.3.4-.3h.9v.6c-.3.2-.6.3-.9.3-.3 0-.4-.1-.4-.4v-.2zm-1.2-1.7c.7 0 1.4-.1 1.9-.1s.6.1.6.5v.1h-1.5c-.9 0-1.4.4-1.4 1.1v.4c0 .8.7 1.3 1.5 1.3s1.3-.4 1.6-.8l.2.6h1.3v-2.8c0-1.3-.7-1.7-1.8-1.7-.6 0-1.8.1-2.4.2v1.2zm-.7.1V123h-4.4v1.2h1.4v3.2h1.6v-3.2h1.4zm-7.9 1.6c0-.2.1-.3.4-.3h.9v.6c-.3.2-.6.3-.9.3-.3 0-.4-.1-.4-.4v-.2zm-1.2-1.7c.7 0 1.4-.1 1.9-.1s.6.1.6.5v.1h-1.5c-.9 0-1.4.4-1.4 1.1v.4c0 .8.7 1.3 1.5 1.3s1.3-.4 1.6-.8l.2.6h1.3v-2.8c0-1.3-.7-1.7-1.8-1.7-.7 0-1.8.1-2.4.2v1.2zm-1.1-1.2H123v1.6h-1.4V123H120v4.4h1.6v-1.8h1.4v1.8h1.6V123zm-7.5 0c-.3 0-.6.2-.6.5l-.4 1.6c0 .2-.1.4-.1.7 0-.2 0-.4-.1-.7l-.4-1.6c-.1-.3-.3-.5-.6-.5h-1.4c-.4 0-.6.2-.6.5l-.1 3.9h1.5l.1-3.2h.1l.5 2.1c.1.3.3.5.6.5h.7c.3 0 .5-.2.6-.5l.5-2.1h.1l.1 3.2h1.5l-.1-3.9c0-.4-.2-.5-.6-.5h-1.3zm-7.3 1.1c.5 0 .7.2.7 1.2s-.1 1.2-.7 1.2-.7-.2-.7-1.2.1-1.2.7-1.2m0-1.2c-1.7 0-2.4.6-2.4 2.3 0 1.7.6 2.3 2.4 2.3 1.7 0 2.4-.6 2.4-2.3 0-1.7-.7-2.3-2.4-2.3m-4.4 2.2c1-.2 1-.2 1.5-2.1h-1.6c-.4 1.5-.4 1.6-1 1.6h-.3c0-.2.1-.4.1-.6v-1h-1.6v4.4h1.6V126c0-.1 0-.2-.1-.4h.4c.5 0 .5.1 1 1.8h1.7c-.7-2-.7-2.1-1.7-2.3zm28.5-10.7h-.6c-.4 0-.5-.1-.5-.6 0-.3.1-.4.5-.4h.6v1zm-1.8.5c-.3 0-.7.1-.8.5l-.3 1.4h1.7l.3-1.2c0-.2.1-.3.4-.3h.6v1.4h1.6v-4.4c-.6-.1-1-.1-2.2-.1-1.6 0-2 .3-2 1.4-.2.6 0 1.1.7 1.3zm-4.7.4c0-.2.1-.3.4-.3h.9v.6c-.3.2-.6.3-.9.3-.3 0-.4-.1-.4-.4v-.2zm-1.2-1.8c.7 0 1.4-.1 1.9-.1s.6.1.6.5v.1h-1.5c-.9 0-1.4.4-1.4 1.1v.4c0 .8.7 1.3 1.5 1.3s1.3-.4 1.6-.8l.2.6h1.3V114c0-1.3-.7-1.7-1.8-1.7-.6 0-1.8.1-2.4.2v1zm-1.1-1.1h-2.7c-.8 0-1.2.4-1.2 1.1-.1.8-.1 1.4-.2 1.7-.1.4-.4.3-.7.4l.2 1.2c1 .2 1.8-.1 2-1.2.1-.4.2-1.2.3-1.9 0-.3.2-.4.4-.4h.4v3.3h1.6v-4.2zm-5.4 4.4v-4.4h-1.4l-1.4 2.1-.3.6c0-.3.1-.5.1-.7v-2.1h-1.4v4.4h1.4l1.4-2c.1-.2.3-.5.4-.7 0 .3-.1.5-.1.8v2h1.3zm-7.2-3.2c1.2-.2 1.2-.7 1.9-2.9h-1.7c-.6 1.8-.7 2.4-1.3 2.4h-.3c0-.3.1-.5.1-.8v-1.6h-1.6v1.6c0 .2 0 .5.1.8h-.3c-.6 0-.7-.6-1.2-2.4h-1.7c.6 2.2.7 2.7 1.9 2.9v.1c-1.2.2-1.3.7-2 3.2h1.7c.7-2.2.8-2.6 1.4-2.6h.3c0 .2-.1.4-.1.6v2.1h1.6v-2.1c0-.2 0-.4-.1-.6h.3c.6 0 .7.4 1.4 2.6h1.8c-.9-2.6-.9-3.1-2.2-3.3zm120.2 1.1.1-1.2H229l-.2 2.8c0 .3.2.5.5.6l1 .1c.8.1 1.1.2 1.1.8 0 .5-.2.7-1 .7-.4 0-1 0-1.6-.1l-.2 1.3c.8.1 1.6.2 2.2.2 1.7 0 2.2-.9 2.2-2 0-1-.4-1.9-1.8-2l-1-.1.1-.9h2.4zm-5.7 3.4c-.4 0-.6.1-.6.6v.4c0 .4.1.6.6.6h.4c.4 0 .6-.1.6-.6v-.4c0-.4-.1-.6-.6-.6h-.4zm-3.8-3.5c.7 0 .9.3.9 1.9 0 1.6-.2 1.9-.9 1.9s-.8-.3-.8-1.9c-.1-1.6.1-1.9.8-1.9m0-1.2c-1.9 0-2.5.8-2.5 3.2 0 2.4.6 3.2 2.5 3.2s2.5-.8 2.5-3.2c0-2.4-.6-3.2-2.5-3.2m-3.6 6.2v-6.1H218l-1.6.6.2 1.1 1.4-.3c-.1.2-.1.5-.1.7v4.1h1.7zm16.6-13.1h-.6c-.4 0-.5-.1-.5-.6 0-.3.1-.4.5-.4h.6v1zm-1.8.6c-.3 0-.7.1-.8.5l-.3 1.4h1.7l.3-1.2c0-.2.1-.3.4-.3h.6v1.4h1.6v-4.4c-.6-.1-1-.1-2.2-.1-1.6 0-2 .3-2 1.4-.2.6 0 1.1.7 1.3zm-1.8-2.6H231v1.6h-1.4v-1.6H228v4.4h1.6v-1.8h1.4v1.8h1.6v-4.4zm-6.7 4.4h1.6l-1.3-2.3 1.2-2.2h-1.6l-.9 1.7-.9-1.7h-1.6l1.2 2.2-1.3 2.3h1.6l1-1.8 1 1.8zm-3.5-4.4h-1.7l-.6 2.6c0 .2-.1.5-.2.8h-.1c0-.3-.1-.5-.1-.8l-.7-2.6h-1.7l1.4 4c.1.2.3.4.5.4h.3c-.1.2-.3.4-.5.5-.3.2-.7.2-1.2.2l-.1 1c.6.1 1.3.1 1.8-.1.7-.2 1.2-.7 1.5-1.7l1.4-4.3zm-7.3 1.2c1.2-.2 1.3-.7 1.9-2.9h-1.7c-.5 1.8-.6 2.4-1.5 2.4h-.3c0-.2.1-.5.1-.8v-1.6H212v6.1h1.7v-2.1c0-.2 0-.4-.1-.6h.3c.9 0 .9.4 1.6 2.6h1.7c-.8-2.4-.8-2.8-2.1-3.1zm23.9 71.7c.6 0 .7.2.7 1.6 0 1.4-.2 1.6-.7 1.6-.6 0-.7-.3-.7-1.6s.2-1.6.7-1.6m0-1.1c-1.6 0-2.1.7-2.1 2.7s.5 2.7 2.1 2.7 2.1-.7 2.1-2.7c.1-2-.5-2.7-2.1-2.7m-3.5 4.1c-.4 0-.5.1-.5.5v.3c0 .4.1.5.5.5h.3c.4 0 .5-.1.5-.5v-.3c0-.4-.1-.5-.5-.5h-.3zm-1-.8h-.6v-2.2h-1.1l-.2.8v1.3h-1c-.1 0-.2-.1-.1-.2l1.1-3h-1.3l-1.3 3.3c-.2.4.1.8.6.8h2.1v1.1h1.3v-1.1l.6-.1v-.7zm13.1-9.1h-.5c-.4 0-.4-.1-.4-.5 0-.3.1-.3.4-.3h.5v.8zm-1.5.5c-.2 0-.6.1-.7.4l-.3 1.2h1.4l.2-1c0-.2.1-.2.3-.2h.5v1.2h1.3v-3.8c-.5-.1-.9-.1-1.9-.1-1.4 0-1.7.3-1.7 1.2.1.5.3.9.9 1.1zm-3.9.3c0-.2.1-.3.3-.3h.8v.5c-.3.2-.5.3-.7.3-.3 0-.4-.1-.4-.3v-.2zm-1.1-1.5c.6 0 1.2-.1 1.6-.1.4 0 .5.1.5.4v.1H242c-.7 0-1.2.4-1.2 1v.4c0 .7.6 1.1 1.3 1.1.7 0 1.1-.3 1.3-.6l.1.6h1.1v-2.4c0-1.1-.6-1.5-1.6-1.5-.6 0-1.5.1-2.1.2l.2.8zm-.9-1h-1.3v1.3h-1.1v-1.3h-1.4v3.8h1.4v-1.5h1.1v1.5h1.3v-3.8zm-4.7 0h-1.3v1.3H233v-1.3h-1.4v3.8h1.4v-1.5h1.1v1.5h1.3v-3.8zm-7.1 2.5c0-.2.1-.3.3-.3h.8v.5c-.2.2-.5.3-.7.3-.2 0-.4-.1-.4-.3v-.2zm-1-1.5c.6 0 1.2-.1 1.6-.1.4 0 .5.1.5.4v.1h-1.2c-.7 0-1.2.4-1.2 1v.4c0 .7.6 1.1 1.3 1.1.7 0 1.1-.3 1.3-.6l.1.6h1.1v-2.4c0-1.1-.6-1.5-1.6-1.5-.6 0-1.5.1-2.1.2l.2.8zm-3.6 1.9v-1.3h.7c.5 0 .7.1.7.7 0 .5-.1.6-.7.6h-.7zm0-2.2v-1.1h.7c.5 0 .6.1.6.6s-.1.6-.6.6h-.7zm1.7.4c.7-.1.9-.4.9-1.2 0-1.1-.5-1.4-1.9-1.4-.9 0-1.5 0-2.1.1v5.2c.7.1 1.3.1 2.4.1 1.3 0 1.8-.3 1.8-1.4 0-.8-.3-1.3-1.1-1.4zm11.7 45.9h-.6v-2.2h-1.1l-.2.8v1.3h-1c-.1 0-.2-.1-.1-.2l1.1-3H234l-1.3 3.3c-.2.4.1.8.5.8h2.1v1.1h1.3v-1.1l.6-.1v-.7zm-5.8.7c-.4 0-.5.1-.5.5v.3c0 .4.1.5.5.5h.3c.4 0 .5-.1.5-.5v-.3c0-.4-.1-.5-.5-.5h-.3zm-4.9-2.8h1.6c.4 0 .6 0 .6.2 0 .3-.3.8-.9 1.4l-1.2 1.2c-.2.2-.2.3-.2.6v.7h3.9v-1.2h-1.5c-.2 0-.5 0-.7.1l1.3-1.3c.7-.7.8-1.1.8-1.6 0-1-.7-1.3-1.8-1.3-.6 0-1.1 0-1.9.2v1zm18.1-7.7v-1h-3.7v1h1.2v2.7h1.4V206h1.1zm-6.5.5c0-.6.2-.7.6-.7.4 0 .5.1.5.4 0 .2 0 .3-.4.3h-.7zm1.2.7c1 0 1.3-.3 1.3-1 0-.9-.5-1.3-1.9-1.3-1.5 0-2 .5-2 2 0 1.3.6 1.9 2.1 1.9.6 0 1.3-.1 1.8-.3l-.1-.8c-.6.1-1.1.1-1.5.1-.5 0-.7-.1-.7-.5h1zM236 205h-2.3c-.6 0-1 .3-1 1-.1.7-.1 1.2-.2 1.5-.1.3-.3.3-.6.3l.1 1c.8.1 1.6-.1 1.7-1 .1-.4.2-1 .2-1.6 0-.2.1-.3.4-.3h.3v2.8h1.4V205zm-7 2.4c0-.2.1-.3.3-.3h.8v.5c-.2.2-.5.3-.7.3-.2 0-.4-.1-.4-.3v-.2zm-1.1-1.4c.6 0 1.2-.1 1.6-.1.4 0 .5.1.5.4v.1h-1.2c-.7 0-1.2.4-1.2 1v.4c0 .7.6 1.1 1.3 1.1.6 0 1.1-.3 1.3-.6l.1.6h1.1v-2.4c0-1.1-.6-1.5-1.6-1.5-.6 0-1.5.1-2.1.2l.2.8zm-.4-1H226l-.6 2.2c0 .2-.1.4-.2.6h-.1c0-.2-.1-.4-.1-.6l-.6-2.2h-1.5l1.2 3.4c.1.2.2.3.4.3h.3c-.1.2-.2.4-.4.4-.2.1-.6.2-1.1.2l-.1.9c.5.1 1.1.1 1.5-.1.6-.2 1-.6 1.3-1.5l1.5-3.6zm-4.2-.4v-1.1h-4.4v1.1h1.5v4.1h1.4v-4.1h1.5z" class="st16"/><path d="M235.6 54h42.1v9.4h-42.1z" class="st1"/><path d="M230.4 54h42.1v9.4h-42.1z" class="st1"/><path d="M235.6 59.8h40.5v11.8h-40.5z" class="st1"/><path d="M232.1 59.8h40.5v11.8h-40.5zM56.3 54h134.5v9.4H56.3z" class="st1"/><path d="M56.3 59.8h132.9v11.8H56.3zM28 156.6h42.1v9.4H28z" class="st1"/><path d="M22.8 156.6h42.1v9.4H22.8z" class="st1"/><path d="M28 162.4h40.5v11.8H28z" class="st1"/><path d="M24.5 162.4H65v11.8H24.5z" class="st1"/><path d="M22.8 163.8h9.4v42.1h-9.4z" class="st1"/><path d="M22.8 169h9.4v42.1h-9.4z" class="st1"/><path d="M28.6 165.4h11.8v40.5H28.6z" class="st1"/><path d="M28.6 169h11.8v40.5H28.6zm28.2 119.9h9.4v35.4h-9.4zm0 74.9h9.4v61.7h-9.4zm104.3-75.5h98.1v8.1h-98.1z" class="st1"/><path d="M39.5 288.3h98.1v5.3H39.5zm119.7 0h7.3v5.3h-7.3zm-29-118.9h5.3v76.8h-5.3z" class="st1"/><path d="M38.7 169.3H141v5.3H38.7zm162.4 26.5h82v5.3h-82z" class="st1"/><path d="M274.9 68.2h8.2v169.5h-8.2zM162 169.3h12.8v5.3H162zm36.3 0H210v5.3h-11.7z" class="st1"/><path d="M167.1 69.1h5.3v105.1h-5.3zm37.6 74h5.3v31.4h-5.3zm0 51.3h5.3v8.7h-5.3zm0 27.1h5.3v13.2h-5.3z" class="st1"/><path d="M164.4 69.1h5.3v31.4h-5.3zm0 79.3h5.3v25.3h-5.3zM68.6 63.5h9.8v38.1h-9.8zm-33.7 94.7h9.8v38.1h-9.8zm95.3 110h5.3v25.5h-5.3zm30.9 23.4h8.1v133.8h-8.1zm-98.5-2h11.8v32.5H62.6zm0 76.7h11.8v59.1H62.6z" class="st1"/><path d="M68 376.4h11.8v42.1H68zM32.8 267.2h11.8v33.7H32.8zm-10-17.3h9.4V292h-9.4z" class="st1"/><path d="M22.8 255.1h9.4v42.1h-9.4z" class="st1"/><path d="M28.6 251.6h11.8v40.5H28.6z" class="st1"/><path d="M28.6 255.1h11.8v40.5H28.6z" class="st1"/><path d="M24.5 289.6H65v11.8H24.5z" class="st1"/><path d="M22.8 288.3h51.7v19.3H22.8zM56.3 63.5h9.4v42.1h-9.4z" class="st1"/><path d="M56.3 68.7h9.4v42.1h-9.4z" class="st1"/><path d="M62.1 65.2h11.8v40.5H62.1z" class="st1"/><path d="M62.1 68.7h11.8v40.5H62.1zm-5.8 81.8h9.4v23.8h-9.4z" class="st1"/><path d="M62.1 153.4h11.8v20.8H62.1zM265.4 25.7h17.7v45.9h-17.7z" class="st1"/><path d="M261.3 25.7h18.9v45.9h-18.9z" class="st1"/><path d="M179.6 54.3h31.2v9.3h-31.2z" class="st18"/><path d="M179.6 54.3h31.2v17h-31.2zm-123 44.6h9.3v58.7h-9.3z" class="st18"/><path d="M56.6 98.9h17v58.7h-17z" class="st18"/><defs><path id="SVGID_13_" d="M22.8 20.9h260.3v404.5H22.8z"/></defs><clipPath id="SVGID_14_"><use xlink:href="#SVGID_13_" style="overflow:visible"/></clipPath><path d="M23.1 199.4h9.3v58.7h-9.3z" class="st19"/><path d="M23.1 199.4h17v58.7h-17z" class="st19"/><path d="M57.1 311.6h9.3v31.8h-9.3z" class="st18"/><path d="M57.1 311.6h17v31.8h-17z" class="st18"/><path d="M61.5 407.7h107.4v17.7H61.5z" class="st1"/><path d="m255.245 240.521 1.203-.716 13.655 22.944-1.203.716z" class="st20"/><defs><path id="SVGID_15_" d="M22.8 20.9h260.3v404.5H22.8z"/></defs><clipPath id="SVGID_16_"><use xlink:href="#SVGID_15_" style="overflow:visible"/></clipPath><path d="M268.7 263.6s-2.3 1.6-7.4 3.3c-1.9.6-3.9 1.1-5.5 1.5" style="clip-path:url(#SVGID_16_);fill:none;stroke:#39373a;stroke-width:.539"/><path d="m120.095 251.06 1.203-.716 13.655 22.944-1.203.716z" class="st20"/><defs><path id="SVGID_17_" d="M22.8 20.9h260.3v404.5H22.8z"/></defs><clipPath id="SVGID_18_"><use xlink:href="#SVGID_17_" style="overflow:visible"/></clipPath><path d="M121.5 250.2s2.3-1.6 7.4-3.3c1.9-.6 3.9-1.1 5.5-1.5" style="clip-path:url(#SVGID_18_);fill:none;stroke:#39373a;stroke-width:.539"/><path d="m61.526 371.305 13.655-22.944 1.203.716-13.655 22.944z" class="st20"/><defs><path id="SVGID_19_" d="M22.8 20.9h260.3v404.5H22.8z"/></defs><clipPath id="SVGID_20_"><use xlink:href="#SVGID_19_" style="overflow:visible"/></clipPath><path d="M75 348.2s-2.3-1.6-7.4-3.3c-1.9-.6-3.9-1.1-5.5-1.5" style="clip-path:url(#SVGID_20_);fill:none;stroke:#39373a;stroke-width:.539"/><path d="m170.101 172.258 22.945-13.654.716 1.203-22.945 13.655z" class="st20"/><defs><path id="SVGID_21_" d="M22.8 20.9h260.3v404.5H22.8z"/></defs><clipPath id="SVGID_22_"><use xlink:href="#SVGID_21_" style="overflow:visible"/></clipPath><path d="M193.9 160s1.6 2.3 3.3 7.4c.6 1.9 1.1 3.9 1.5 5.5" style="clip-path:url(#SVGID_22_);fill:none;stroke:#39373a;stroke-width:.539"/><path d="m141.798 302.726 22.944-13.654.716 1.203-22.945 13.655z" class="st20"/><defs><path id="SVGID_23_" d="M22.8 20.9h260.3v404.5H22.8z"/></defs><clipPath id="SVGID_24_"><use xlink:href="#SVGID_23_" style="overflow:visible"/></clipPath><path d="M141.7 302.6s-1.6-2.3-3.3-7.4c-.6-1.9-1.1-3.9-1.5-5.5" style="clip-path:url(#SVGID_24_);fill:none;stroke:#39373a;stroke-width:.539"/><path d="m145.466 159.823.716-1.203 22.944 13.655-.716 1.203z" class="st20"/><defs><path id="SVGID_25_" d="M22.8 20.9h260.3v404.5H22.8z"/></defs><clipPath id="SVGID_26_"><use xlink:href="#SVGID_25_" style="overflow:visible"/></clipPath><path d="M145.3 160s-1.6 2.3-3.3 7.4c-.6 1.9-1.1 3.9-1.5 5.5" style="clip-path:url(#SVGID_26_);fill:none;stroke:#39373a;stroke-width:.539"/><path d="m195.486 189.53 10.637-17.875 1.203.716-10.637 17.874z" class="st20"/><defs><path id="SVGID_27_" d="M22.8 20.9h260.3v404.5H22.8z"/></defs><clipPath id="SVGID_28_"><use xlink:href="#SVGID_27_" style="overflow:visible"/></clipPath><path d="M196.9 190.3s2.3 1.6 7.4 3.3c1.9.6 3.9 1.1 5.5 1.5" style="clip-path:url(#SVGID_28_);fill:none;stroke:#39373a;stroke-width:.539"/><path d="m215.581 71.307 17.874-10.637.716 1.203-17.874 10.637z" class="st20"/><defs><path id="SVGID_29_" d="M22.8 20.9h260.3v404.5H22.8z"/></defs><clipPath id="SVGID_30_"><use xlink:href="#SVGID_29_" style="overflow:visible"/></clipPath><path d="M215.5 71.2s-1.6-2.3-3.3-7.4c-.6-1.9-1.1-3.9-1.5-5.5" style="clip-path:url(#SVGID_30_);fill:none;stroke:#39373a;stroke-width:.539"/><path d="m195.466 207.139 1.203-.716 10.637 17.874-1.203.716z" class="st20"/><defs><path id="SVGID_31_" d="M22.8 20.9h260.3v404.5H22.8z"/></defs><clipPath id="SVGID_32_"><use xlink:href="#SVGID_31_" style="overflow:visible"/></clipPath><path d="M196.9 206.3s2.3-1.6 7.4-3.3c1.9-.6 3.9-1.1 5.5-1.5" style="clip-path:url(#SVGID_32_);fill:none;stroke:#39373a;stroke-width:.539"/><path d="M249.6 268.1h9.6v27.7h-9.6z" class="st1"/><path d="M207.6 152.1h19.8v13.2h-19.8z" class="st20"/><path d="M249.4 233.5h9.5v8.2h-9.5z" class="st1"/><path d="M255.3 231.2h27.8v6.5h-27.8zM29.6 305.9h4.8V391h-4.8z" class="st1"/><path d="M24.8 387.1h4.8v31.4h-4.8z" class="st1"/><path d="M24.8 413.7h34.7v4.8H24.8zm87.9-388h167.2v4.8H112.7zm-50.8 0H86v4.8H61.9zm18.7-4.8h37.1v4.8H80.6z" class="st1"/><path d="M61.9 25.7h4.8v29.9h-4.8z" class="st1"/><defs><path id="SVGID_33_" d="M22.8 20.9h260.3v404.5H22.8z"/></defs><clipPath id="SVGID_34_"><use xlink:href="#SVGID_33_" style="overflow:visible"/></clipPath><path d="M165.6 41.8c.7 0 .8.2.8.8 0 .6-.1.8-.8.8-.7 0-.9-.2-.9-.8 0-.6.2-.8.9-.8m0-2.5c.6 0 .8.1.8.7 0 .5-.1.7-.7.7s-.8-.1-.8-.7c-.1-.5.1-.7.7-.7m-1.3 2c-.9.1-1.1.8-1.1 1.6 0 1.2.5 1.7 2.4 1.7s2.4-.5 2.4-1.7c0-.8-.2-1.6-1.1-1.6.7-.1.9-.7.9-1.4 0-1.1-.4-1.6-2.3-1.6-1.8 0-2.2.5-2.2 1.6 0 .6.3 1.3 1 1.4zm-2.8 1.7c-.4 0-.6.1-.6.6v.4c0 .4.1.6.6.6h.4c.4 0 .6-.1.6-.6v-.4c0-.4-.1-.6-.6-.6h-.4zm-3.5.4c-.7 0-.8-.2-.8-1.6.3-.2.5-.2.8-.2.6 0 .7.2.7.8 0 .7-.1 1-.7 1m1.8-5c-.6-.2-1.3-.2-1.6-.2-1.8 0-2.7.4-2.7 3.2 0 2.5.6 3.1 2.4 3.1 1.9 0 2.3-.7 2.3-2.2 0-1.4-.4-1.9-1.8-1.9-.5 0-.9.1-1.3.4 0-1.1.3-1.4 1.1-1.4h1.5l.1-1z" style="clip-path:url(#SVGID_34_);fill:#39373a"/><path d="M164.8 61.5h46v2.1h-46zM63.7 102.3h2.1v54.3h-2.1zM30.3 205.2h2.1v54.3h-2.1zm34 111.5h2.1v26.7h-2.1z" class="st18"/></g></switch></svg>