<svg xmlns="http://www.w3.org/2000/svg" xmlns:xlink="http://www.w3.org/1999/xlink" xml:space="preserve" id="Слой_1" x="0" y="0" style="enable-background:new 0 0 270 472" version="1.1" viewBox="0 0 270 472"><style>.st1{fill:#3c3c3b}.st2{clip-path:url(#SVGID_2_);fill:none;stroke:#3c3c3b;stroke-width:.7}.st3{fill:#fff5a9}.st4{clip-path:url(#SVGID_4_);fill:#3c3c3b}.st11,.st6,.st7{fill:none;stroke:#3c3c3b}.st6{stroke-width:.7}.st7{stroke-width:.6}.st11{clip-path:url(#SVGID_10_);stroke-width:.7}.st15,.st16,.st19{clip-path:url(#SVGID_16_);fill:#3c3c3b}.st16,.st19{fill:none;stroke:#3c3c3b;stroke-width:.25}.st19{stroke-width:.7;clip-path:url(#SVGID_22_)}.st20{fill:#3c3c3b}.st20,.st21{clip-path:url(#SVGID_24_)}.st21,.st22{fill:none;stroke:#3c3c3b;stroke-width:.25}.st23,.st24{clip-path:url(#SVGID_26_);fill:#3c3c3b}.st24{fill:none;stroke:#3c3c3b;stroke-width:.25}</style><path d="M.2.2h270v472H.2z" style="fill:#fff"/><path d="M209.7 441.8h27.1v4h-27.1z" class="st1"/><path d="M211.1 432.2h25.7v10.5h-25.7zm-81.8 9.6h26.3v4h-26.3z" class="st1"/><path d="M129.3 432.2h24.9v10.5h-24.9z" class="st1"/><defs><path id="SVGID_1_" d="M27.8 26.7h214.8v419.1H27.8z"/></defs><clipPath id="SVGID_2_"><use xlink:href="#SVGID_1_" style="overflow:visible"/></clipPath><path d="M143.6 432.5h78v12.9h-78z" class="st2"/><path d="M143.6 442.2h78v3.3h-78z" class="st2"/><path d="M32.6 90.9h199v184h-199z" class="st3"/><path d="M134.5 250.7h97.1v181.5h-97.1z" class="st3"/><path d="M210.3 77.5h26.5v4h-26.5zm-103.9 0h49.5v4h-49.5zm-78 129.8h75.5v5.2H28.4zM159.8 189h73.7v5.2h-73.7zm0 83.2h73.7v5.2h-73.7zM27.8 77.5h27.8v4H27.8z" class="st1"/><path d="M212.9 80.6h24v10.5h-24zm-104.1 0h44.6v10.5h-44.6zm-81 0h25.4v10.5H27.8z" class="st1"/><path d="M27.8 26.7h16.7V83H27.8z" class="st1"/><path d="M27.8 26.7h4.8v209.7h-4.8zm0 233.9h4.8v16.9h-4.8zM231.6 41.1h11v404.7h-11zM129.3 80.8h5.2v142h-5.2zm0-54h5.2v32.7h-5.2zm0 292.6h5.2v126.4h-5.2z" class="st1"/><path d="M129.3 253.1h5.2v73.4h-5.2z" class="st1"/><path d="M27.8 272.2h106.7v5.2H27.8z" class="st1"/><defs><path id="SVGID_3_" d="M27.8 26.7h214.8v419.1H27.8z"/></defs><clipPath id="SVGID_4_"><use xlink:href="#SVGID_3_" style="overflow:visible"/></clipPath><path d="m194.8 346.5.2 3.6h7.1c-.4.6-.6 1.2-.8 1.7l-3.9 11.1h4.4l4.9-14.2c.4-1.2-.4-2.2-1.7-2.2h-10.2zm-3.3 12.3c-1.1 0-1.5.4-1.5 1.5v1c0 1.1.4 1.5 1.5 1.5h1c1.1 0 1.5-.4 1.5-1.5v-1c0-1.1-.4-1.5-1.5-1.5h-1zm-14.8-9.1h4.6c1.7 0 2.1.2 2.1 1.5 0 1.1-.1 1.8-1.9 1.8h-3.1v2.9h3.1c1.8 0 2.1.5 2.1 1.9 0 1.7-.6 2-2.7 2-1.4 0-2.5 0-4.5-.1l-.1 3.2c1.9.3 3.9.5 5.9.5 4.4 0 5.9-1.4 5.9-4.9 0-2.5-.7-3.8-3-4.1v-.1c2.1-.3 2.6-1.8 2.6-4.1 0-2.9-1.5-3.8-5.5-3.8-1.8 0-3.6.1-5.5.5v2.8zm-8.1 10.2c-1.9 0-2.1-.6-2.1-4.2.8-.5 1.3-.6 2.1-.6 1.6 0 1.9.4 1.9 2.2 0 1.9-.1 2.6-1.9 2.6m4.9-13.2c-1.7-.5-3.4-.5-4.2-.5-4.8 0-7.2 1.2-7.2 8.7 0 6.7 1.5 8.3 6.4 8.3 5 0 6.1-1.9 6.1-6 0-3.6-1.1-5.1-4.8-5.1-1.5 0-2.5.2-3.4 1 .1-3.1.7-3.6 2.8-3.6h4l.3-2.8z" class="st4"/><circle cx="184.1" cy="328" r="14.6" style="clip-path:url(#SVGID_4_);fill:none;stroke:#3c3c3b"/><path d="M190.9 327.7c2.5-.3 2.5-1.4 3.9-5.9h-3.4c-1 3.7-1.2 4.8-3 4.8h-.6c.1-.5.1-1 .1-1.5v-3.3h-3.4v12.4h3.4V330c0-.3-.1-.8-.1-1.2h.6c1.7 0 1.9.8 3.2 5.3h3.5c-1.5-5.1-1.7-6.1-4.3-6.4zm-17.1-3.2c1.7-.1 2.6-.1 3.9-.1 1 0 1.4.1 1.4.6 0 .7-.8 1.8-2.2 3.2l-2.8 2.9c-.4.4-.5.8-.5 1.4v1.8h9.3v-2.9h-3.6c-.6 0-1.2 0-1.7.2l3.1-3c1.6-1.7 1.9-2.5 1.9-3.9 0-2.4-1.7-3-4.4-3-1.4 0-2.6.1-4.4.4v2.4zm-88.1-76.8h2c.7 0 .9.1.9.7 0 .5-.1.8-.8.8h-1.4v1.3h1.4c.8 0 .9.2.9.8 0 .7-.3.9-1.2.9-.6 0-1.1 0-2-.1l-.1 1.4c.8.1 1.7.2 2.6.2 1.9 0 2.6-.6 2.6-2.1 0-1.1-.3-1.6-1.3-1.8.9-.1 1.1-.8 1.1-1.8 0-1.3-.7-1.7-2.4-1.7-.8 0-1.6.1-2.4.2l.1 1.2zm-2.1 4c-.5 0-.7.2-.7.7v.5c0 .5.2.7.7.7h.4c.5 0 .7-.2.7-.7v-.5c0-.5-.2-.7-.7-.7h-.4zm-6-5.4.1 1.6h3.1c-.2.3-.3.5-.4.8l-1.7 4.9h1.9l2.2-6.2c.2-.5-.2-1-.7-1h-4.5zm30.8-6.2h-.7c-.5 0-.6-.1-.6-.6 0-.4.1-.5.6-.5h.7v1.1zm-2 .7c-.3 0-.9.1-1 .6l-.4 1.6h1.9l.3-1.4c0-.2.2-.3.5-.3h.7v1.7h1.8v-5.2c-.6-.1-1.2-.1-2.6-.1-1.9 0-2.4.4-2.4 1.7.1.5.3 1.1 1.2 1.4zm-5.5.4c0-.2.1-.4.4-.4h1.1v.6c-.3.2-.7.4-1 .4-.3 0-.5-.1-.5-.4v-.2zm-1.4-2.1c.9-.1 1.7-.1 2.2-.1.5 0 .7.2.7.6v.1h-1.7c-1 0-1.7.5-1.7 1.3v.5c0 1 .8 1.5 1.7 1.5.9 0 1.5-.5 1.8-.9l.2.8h1.5v-3.3c0-1.5-.8-2-2.2-2-.8 0-2.1.1-2.8.3l.3 1.2zm-2.9 1.1c1.2-.2 1.2-.3 1.8-2.4h-1.9c-.5 1.7-.6 1.9-1.1 1.9h-.3c0-.2.1-.4.1-.6v-1.2h-1.6v1.2c0 .2 0 .4.1.6h-.3c-.5 0-.6-.2-1.1-1.9h-1.9c.7 2.1.6 2.3 1.8 2.4v.1c-1.2.2-1.3.3-2 2.7H92c.7-2 .7-2.1 1.1-2.1h.4c0 .2-.1.3-.1.4v1.6h1.7v-1.6c0-.1 0-.3-.1-.4h.4c.5 0 .5.1 1.2 2.1h1.9c-.6-2.5-.7-2.5-1.9-2.8zm-9.7-1.2c.6 0 .8.3.8 1.4 0 1.1-.2 1.4-.8 1.4-.6 0-.8-.3-.8-1.4 0-1.2.2-1.4.8-1.4m0-1.4c-2 0-2.8.7-2.8 2.7s.7 2.7 2.8 2.7c2 0 2.8-.7 2.8-2.7 0-1.9-.7-2.7-2.8-2.7M82 243h1.9l-1.5-2.6 1.4-2.5h-1.9l-1 1.9-1-1.9H78l1.4 2.5-1.5 2.6h1.9l1.1-2.1L82 243zm-4.7 0v-5.2h-1.6l-1.6 2.5c-.2.2-.3.5-.4.8 0-.3.1-.5.1-.8v-2.4h-1.7v5.2h1.6l1.6-2.4c.1-.2.3-.6.4-.9 0 .3-.1.6-.1.9v2.3h1.7zm-9.9-3.6c.3-.2.6-.3 1-.3.5 0 .7.2.7 1.4s-.2 1.4-.7 1.4c-.4 0-.6-.1-.9-.2v-2.3zm-.3-1.6h-1.5v7.1h1.9v-2.2c.4.3 1 .5 1.7.5 1.3 0 2-.6 2-2.7 0-1.8-.5-2.8-1.8-2.8-.8 0-1.6.4-2 .9l-.3-.8zm-2.8-2h-6v7.2h1.9v-5.9h2.1v5.9h2v-7.2z" class="st4"/><path d="M172.2 77.8h41v3.3h-41zm-98 0h41v3.3h-41zm98 3.3h41v9.6h-41zm-98 0h41v9.6h-41z" class="st6"/><path d="M189.3 256h16.5v16.5h-16.5z" class="st7"/><defs><path id="SVGID_5_" d="M27.8 26.7h214.8v419.1H27.8z"/></defs><clipPath id="SVGID_6_"><use xlink:href="#SVGID_5_" style="overflow:visible"/></clipPath><path d="M200.7 240.5h-.4c-.3 0-.4-.1-.4-.4 0-.2.1-.3.4-.3h.4v.7zm-1.2.4c-.2 0-.5.1-.6.3l-.2 1h1.2l.2-.8c0-.1.1-.2.3-.2h.4v1h1.1v-3.1c-.4 0-.7-.1-1.6-.1-1.1 0-1.4.2-1.4 1-.1.4.1.8.6.9zm-3.3.3c0-.1.1-.2.3-.2h.7v.4c-.2.1-.4.2-.6.2-.2 0-.3-.1-.3-.3v-.1zm-.9-1.3h1.3c.3 0 .4.1.4.4v.1h-1c-.6 0-1 .3-1 .8v.3c0 .6.5.9 1 .9s.9-.3 1.1-.5l.1.5h.9v-2c0-.9-.5-1.2-1.3-1.2-.5 0-1.2.1-1.7.2l.2.5zm-.7-.8h-1.1v1.1h-.9v-1.1h-1.1v3.1h1.1V241h.9v1.3h1.1v-3.2zm-3.9 0h-1.1v1.1h-.9v-1.1h-1.1v3.1h1.1V241h.9v1.3h1.1v-3.2zm-5.9 2.1c0-.1.1-.2.3-.2h.7v.4c-.2.1-.4.2-.6.2-.2 0-.3-.1-.3-.3v-.1zm-.8-1.3h1.3c.3 0 .4.1.4.4v.1h-1c-.6 0-1 .3-1 .8v.3c0 .6.5.9 1 .9s.9-.3 1.1-.5l.1.5h.9v-2c0-.9-.5-1.2-1.3-1.2-.5 0-1.2.1-1.7.2l.2.5zm-3 1.6v-1.1h.6c.5 0 .6.1.6.6 0 .4-.1.5-.6.5h-.6zm0-1.9v-.9h.6c.4 0 .5.1.5.5s-.1.5-.5.5h-.6zm1.4.4c.5 0 .8-.4.8-1 0-.9-.4-1.1-1.6-1.1-.8 0-1.2 0-1.8.1v4.3h2c1.1 0 1.5-.2 1.5-1.1 0-.7-.2-1.1-.9-1.2zm-41.1 2.5h1.2c.4 0 .6.1.6.4 0 .3 0 .5-.5.5h-.8v.8h.8c.5 0 .6.1.6.5s-.2.5-.7.5h-1.2v.8c.5.1 1 .1 1.5.1 1.1 0 1.6-.4 1.5-1.3 0-.7-.2-1-.8-1.1.6-.1.7-.5.7-1.1 0-.8-.4-1-1.5-1-.5 0-1 0-1.4.1v.8zm-1.2 2.4c-.3 0-.4.1-.4.4v.3c0 .3.1.4.4.4h.3c.3 0 .4-.1.4-.4v-.3c0-.3-.1-.4-.4-.4h-.3zm-3.9-2.4h1.2c.4 0 .6.1.6.4 0 .3 0 .5-.5.5h-.8v.8h.8c.5 0 .6.1.6.5s-.2.5-.7.5h-1.2v.8c.5.1 1 .1 1.5.1 1.1 0 1.6-.4 1.5-1.3 0-.7-.2-1-.8-1.1.6-.1.7-.5.7-1.1 0-.8-.4-1-1.5-1-.5 0-1 0-1.4.1v.8zm15.2-6.1c.2-.1.3-.2.6-.2s.4.1.4.8c0 .7-.1.8-.4.8-.2 0-.4-.1-.5-.1v-1.3zm-.2-1h-.9v4.3h1.1v-1.4c.3.2.6.3 1 .3.8 0 1.2-.3 1.2-1.6 0-1.1-.3-1.7-1.1-1.7-.5 0-1 .2-1.2.5l-.1-.4zm-3.1.7c.4 0 .5.2.5.8 0 .7-.1.8-.5.8s-.5-.2-.5-.8c0-.6.1-.8.5-.8m0-.8c-1.2 0-1.7.4-1.7 1.6 0 1.2.4 1.6 1.7 1.6 1.2 0 1.7-.4 1.7-1.6 0-1.1-.5-1.6-1.7-1.6m-3.6 2.4h-.9c.2-.4.3-.8.4-1.4 0-.2.1-.3.3-.3h.3v1.7zm1.6 0h-.5v-2.3h-1.7c-.6 0-.8.3-.9.8-.1.5-.2 1.1-.4 1.6h-.4v1.6h.7l.1-.9h2.2l.1.9h.8v-1.7zm-4.3.8v-3.1h-1l-1 1.5c-.1.1-.2.3-.2.5v-2h-1v3.1h1l1-1.4c.1-.1.2-.4.3-.5v1.9h.9zm-5.9-2.1c.2-.1.3-.2.6-.2s.4.1.4.8c0 .7-.1.8-.4.8-.2 0-.4-.1-.5-.1v-1.3zm-.2-1h-.9v4.3h1.1v-1.4c.3.2.6.3 1 .3.8 0 1.2-.3 1.2-1.6 0-1.1-.3-1.7-1.1-1.7-.5 0-1 .2-1.2.5l-.1-.4zm-3.1.7c.4 0 .5.2.5.8 0 .7-.1.8-.5.8s-.5-.2-.5-.8c0-.6.1-.8.5-.8m0-.8c-1.2 0-1.7.4-1.7 1.6 0 1.2.4 1.6 1.7 1.6 1.2 0 1.7-.4 1.7-1.6-.1-1.1-.5-1.6-1.7-1.6m-3.4.9c.9-.1.9-.5 1.4-2h-1.2c-.3 1.3-.4 1.7-1 1.7h-.2c0-.2.1-.4.1-.5v-1.1H127v4.3h1.2v-1.4c0-.1 0-.3-.1-.4h.2c.6 0 .6.3 1.1 1.8h1.2c-.5-1.9-.5-2.2-1.4-2.4zm65.7 9.2v-.9h-2.7l-.1 1.9c0 .2.1.4.3.4l.7.1c.6.1.8.1.8.5 0 .3-.1.5-.7.5-.3 0-.7 0-1.1-.1l-.1.9c.6.1 1.1.1 1.5.1 1.2 0 1.6-.6 1.6-1.4 0-.7-.3-1.3-1.3-1.4l-.7-.1v-.6h1.8zm-4 2.4c-.3 0-.4.1-.4.4v.3c0 .3.1.4.4.4h.3c.3 0 .4-.1.4-.4v-.3c0-.3-.1-.4-.4-.4h-.3zm-3.9-2.4h1.2c.4 0 .6.1.6.4 0 .3 0 .5-.5.5h-.8v.8h.8c.5 0 .6.1.6.5s-.2.5-.7.5H187v.8c.5.1 1 .1 1.5.1 1.1 0 1.6-.4 1.5-1.3 0-.7-.2-1-.8-1.1.6-.1.7-.5.7-1.1 0-.8-.4-1-1.5-1-.5 0-1 0-1.4.1v.8zm3.8-43.6h-1.2l-.5 1.8c0 .1-.1.3-.1.5h-.1c0-.2-.1-.4-.1-.5l-.5-1.8h-1.2l1 2.8c.1.2.2.3.4.3h.2c-.1.2-.2.3-.3.4-.2.1-.5.1-.9.1l-.1.7c.4.1.9.1 1.3-.1.5-.2.8-.5 1.1-1.2l1-3zm-6.1 3.6 2.5-4.8h-.9l-2.5 4.8h.9zm-1.3-1.5c-.4 0-.8.1-1.4.1-.5 0-.7-.3-.7-1.2 0-1 .1-1.2.7-1.2h1.3l.1-.9c-.4-.1-.7-.2-1.4-.2-1.4 0-1.9.6-1.9 2.2s.5 2.2 1.9 2.2c.6 0 1 0 1.5-.2l-.1-.8zm5.4 4.2v-.9h-2.7l-.1 1.9c0 .2.1.4.3.4l.7.1c.6.1.8.1.8.5 0 .3-.1.5-.7.5-.3 0-.7 0-1.1-.1l-.1.9c.6.1 1.1.1 1.5.1 1.2 0 1.6-.6 1.6-1.4 0-.7-.3-1.3-1.3-1.4l-.7-.1v-.6h1.8zm-4 2.4c-.3 0-.4.1-.4.4v.3c0 .3.1.4.4.4h.3c.3 0 .4-.1.4-.4v-.3c0-.3-.1-.4-.4-.4h-.3zm-1.2 1.1v-4.3h-1.2l-1.1.4.1.7 1-.2v3.4h1.2z" style="clip-path:url(#SVGID_6_);fill:#3c3c3b"/><path d="M220.7 194v25.5m1.7-23.8h6.1v4.1h-6.1zm0 6.4h6.1v15.5h-6.1z" class="st7"/><defs><path id="SVGID_7_" d="M27.8 26.7h214.8v419.1H27.8z"/></defs><clipPath id="SVGID_8_"><use xlink:href="#SVGID_7_" style="overflow:visible"/></clipPath><path d="M191.1 383c.8 0 1 .2 1 .9s-.2.9-1 .9-1-.2-1-.9c-.1-.7.1-.9 1-.9m-.1-2.9c.7 0 .9.2.9.9 0 .6-.1.8-.9.8-.7 0-.9-.1-.9-.8 0-.7.2-.9.9-.9m-1.5 2.3c-1 .1-1.3 1-1.3 1.9 0 1.4.6 1.9 2.8 1.9 2.3 0 2.8-.5 2.8-1.9 0-1-.2-1.8-1.3-1.9.8-.1 1.1-.9 1.1-1.6 0-1.3-.5-1.9-2.6-1.9-2.2 0-2.6.6-2.6 1.9 0 .7.3 1.5 1.1 1.6zm-3.3 2c-.5 0-.7.2-.7.7v.5c0 .5.2.7.7.7h.4c.5 0 .7-.2.7-.7v-.6c0-.5-.2-.7-.7-.7h-.4zm-4.3-1.4c.8 0 1 .2 1 .9s-.2.9-1 .9-1-.2-1-.9.1-.9 1-.9m0-2.9c.7 0 .9.2.9.9 0 .6-.1.8-.9.8-.7 0-.9-.1-.9-.8 0-.7.1-.9.9-.9m-1.6 2.3c-1 .1-1.3 1-1.3 1.9 0 1.4.6 1.9 2.8 1.9 2.3 0 2.8-.5 2.8-1.9 0-1-.2-1.8-1.3-1.9.8-.1 1.1-.9 1.1-1.6 0-1.3-.5-1.9-2.6-1.9-2.2 0-2.6.6-2.6 1.9 0 .7.3 1.5 1.1 1.6zm-2.6 3.7V379h-1.9l-1.8.7.2 1.2 1.7-.4c-.1.3-.1.6-.1.9v4.8h1.9zm43.3-12.2c0-.2.1-.4.4-.4h1.1v.6c-.3.2-.7.4-1 .4-.3 0-.5-.1-.5-.4v-.2zm-1.4-2.1c.9-.1 1.7-.1 2.2-.1.5 0 .7.2.7.6v.1h-1.7c-1 0-1.7.5-1.7 1.3v.5c0 1 .8 1.5 1.7 1.5.9 0 1.5-.5 1.8-.9l.2.8h1.5v-3.3c0-1.5-.8-2-2.2-2-.8 0-2.1.1-2.8.3l.3 1.2zm-.9.1v-1.4h-5.2v1.4h1.6v3.7h1.9v-3.7h1.7zm-9.2 2c0-.2.1-.4.4-.4h1.1v.6c-.3.2-.7.4-1 .4-.3 0-.5-.1-.5-.4v-.2zm-1.4-2.1c.9-.1 1.7-.1 2.2-.1.5 0 .7.2.7.6v.1h-1.7c-1 0-1.7.5-1.7 1.3v.5c0 1 .8 1.5 1.7 1.5.9 0 1.5-.5 1.8-.9l.2.8h1.5v-3.3c0-1.5-.8-2-2.2-2-.8 0-2.1.1-2.8.3l.3 1.2zm-1.3-1.3h-1.9v1.8h-1.6v-1.8h-1.9v5.2h1.9v-2.1h1.6v2.1h1.9v-5.2zm-8.8 0c-.4 0-.6.2-.7.6l-.4 1.9c-.1.3-.1.5-.1.8h-.1c0-.3 0-.5-.1-.8l-.5-1.9c-.1-.4-.3-.6-.7-.6h-1.6c-.4 0-.6.2-.7.6l-.1 4.5h1.7l.1-3.8h.1l.6 2.5c.1.4.3.6.7.6h.8c.4 0 .6-.2.7-.6l.6-2.5h.1l.1 3.8h1.7l-.1-4.5c0-.4-.2-.6-.6-.6H198zm-8.6 1.2c.6 0 .8.3.8 1.4 0 1.1-.2 1.4-.8 1.4-.6 0-.8-.3-.8-1.4 0-1.2.2-1.4.8-1.4m0-1.4c-2 0-2.8.7-2.8 2.7s.7 2.7 2.8 2.7c2 0 2.8-.7 2.8-2.7 0-1.9-.8-2.7-2.8-2.7m-5.2 2.6c1.2-.2 1.1-.3 1.8-2.5h-1.9c-.4 1.7-.5 1.9-1.2 1.9h-.2c0-.2.1-.4.1-.7v-1.2h-1.9v5.2h1.9V374c0-.1 0-.3-.1-.4h.4c.6 0 .6.1 1.1 2.1h2c-.7-2.5-.7-2.5-2-2.8zm-8.5-.1h-.7c-.5 0-.6-.1-.6-.6 0-.4.1-.5.6-.5h.7v1.1zm-2 .7c-.3 0-.9.1-1 .6l-.4 1.6h1.9l.3-1.4c0-.2.2-.3.5-.3h.7v1.7h1.8v-5.2c-.6-.1-1.2-.1-2.6-.1-1.9 0-2.4.4-2.4 1.7 0 .5.3 1.1 1.2 1.4zm-5.5.4c0-.2.1-.4.4-.4h1.1v.6c-.3.2-.7.4-1 .4-.3 0-.5-.1-.5-.4v-.2zm-1.5-2.1c.9-.1 1.7-.1 2.2-.1.5 0 .7.2.7.6v.1H168c-1 0-1.7.5-1.7 1.3v.5c0 1 .8 1.5 1.7 1.5.9 0 1.5-.5 1.8-.9l.2.8h1.5v-3.3c0-1.5-.8-2-2.2-2-.8 0-2.1.1-2.8.3l.2 1.2zm-1.3-1.3h-3.1c-.9 0-1.4.5-1.4 1.3-.1.9-.2 1.7-.3 2-.1.4-.4.4-.9.5l.2 1.4c1.1.2 2.2-.1 2.4-1.4.1-.5.2-1.4.3-2.2 0-.3.2-.4.5-.4h.4v3.9h1.9v-5.1zm-6.3 5.2v-5.2h-1.6l-1.6 2.5c-.2.2-.3.5-.4.8 0-.3.1-.5.1-.8v-2.4h-1.7v5.2h1.6l1.6-2.4c.1-.2.3-.6.4-.9 0 .3-.1.6-.1.9v2.3h1.7zm-8.4-3.8c1.4-.2 1.4-.8 2.2-3.4h-2c-.6 2.2-.8 2.8-1.5 2.8h-.3c.1-.3.1-.6.1-.9v-1.9h-1.9v1.9c0 .3 0 .6.1.9h-.4c-.7 0-.8-.6-1.5-2.8h-2c.8 2.6.8 3.2 2.2 3.4v.1c-1.4.2-1.5.8-2.4 3.7h2c.8-2.6.9-3.1 1.6-3.1h.4c-.1.2-.1.5-.1.7v2.4h1.9v-2.4c0-.2 0-.4-.1-.7h.3c.7 0 .8.5 1.6 3.1h2.1c-.8-3-.8-3.6-2.3-3.8zM189.1 149c0-.9.1-1.2.8-1.2.8 0 .9.3.9 1.9-.3.2-.6.3-.9.3-.6-.1-.8-.3-.8-1m-1.5 4.6c.8.2 1.6.2 2 .2 2.3 0 3.1-.5 3.1-3.8 0-2.9-.5-3.6-2.7-3.6-2.1 0-2.7.8-2.7 2.6 0 1.3.5 2.2 2.1 2.2.6 0 1.1-.1 1.5-.4-.1 1.2-.3 1.6-1.3 1.6h-1.9l-.1 1.2zm-2.2-1.7c-.5 0-.7.2-.7.7v.5c0 .5.2.7.7.7h.4c.5 0 .7-.2.7-.7v-.5c0-.5-.2-.7-.7-.7h-.4zm-2 1.8v-7.2h-1.9l-1.8.7.2 1.2 1.7-.4c-.1.3-.1.6-.1.9v4.8h1.9zm-4.6 0v-7.2h-1.9l-1.8.7.2 1.2 1.7-.4c-.1.3-.1.6-.1.9v4.8h1.9zm42.1-12.3c0-.2.1-.4.4-.4h1.1v.6c-.3.2-.7.4-1 .4-.3 0-.5-.1-.5-.4v-.2zm-1.4-2c.9-.1 1.7-.1 2.2-.1.5 0 .7.2.7.6v.1h-1.7c-1 0-1.7.5-1.7 1.3v.5c0 1 .8 1.5 1.7 1.5.9 0 1.5-.5 1.8-.9l.2.8h1.5v-3.3c0-1.5-.8-2-2.2-2-.8 0-2.1.1-2.8.3l.3 1.2zm-.8.1V138h-5.2v1.4h1.6v3.7h1.9v-3.7h1.7zm-9.3 1.9c0-.2.1-.4.4-.4h1.1v.6c-.3.2-.7.4-1 .4-.3 0-.5-.1-.5-.4v-.2zm-1.4-2c.9-.1 1.7-.1 2.2-.1.5 0 .7.2.7.6v.1h-1.7c-1 0-1.7.5-1.7 1.3v.5c0 1 .8 1.5 1.7 1.5.9 0 1.5-.5 1.8-.9l.2.8h1.5v-3.3c0-1.5-.8-2-2.2-2-.8 0-2.1.1-2.8.3l.3 1.2zm-1.3-1.4h-1.9v1.8h-1.6V138h-1.9v5.2h1.9v-2.1h1.6v2.1h1.9V138zm-8.7 0c-.4 0-.6.2-.7.6l-.4 1.9c-.1.3-.1.5-.1.8h-.1c0-.3 0-.5-.1-.8l-.5-1.9c-.1-.4-.3-.6-.7-.6h-1.6c-.4 0-.6.2-.7.6l-.1 4.5h1.7l.1-3.8h.1l.6 2.5c.1.4.3.6.7.6h.8c.4 0 .6-.2.7-.6l.6-2.5h.1l.1 3.8h1.7l-.1-4.5c0-.4-.2-.6-.6-.6H198zm-8.6 1.2c.6 0 .8.3.8 1.4 0 1.1-.2 1.4-.8 1.4-.6 0-.8-.3-.8-1.4-.1-1.1.1-1.4.8-1.4m0-1.3c-2 0-2.8.7-2.8 2.7s.7 2.7 2.8 2.7c2 0 2.8-.7 2.8-2.7-.1-2-.8-2.7-2.8-2.7m-5.2 2.6c1.2-.2 1.1-.3 1.8-2.5h-1.9c-.4 1.7-.5 1.9-1.2 1.9h-.2c0-.2.1-.4.1-.7V138h-1.9v5.2h1.9v-1.6c0-.1 0-.3-.1-.4h.4c.6 0 .6.1 1.1 2.1h2c-.8-2.5-.8-2.6-2-2.8zm-8.6-.1h-.7c-.5 0-.6-.1-.6-.6 0-.4.1-.5.6-.5h.7v1.1zm-2 .6c-.3 0-.9.1-1 .6l-.4 1.6h1.9l.3-1.4c0-.2.2-.3.5-.3h.7v1.7h1.8V138c-.6-.1-1.2-.1-2.6-.1-1.9 0-2.4.4-2.4 1.7.1.6.3 1.2 1.2 1.4zm-5.5.4c0-.2.1-.4.4-.4h1.1v.6c-.3.2-.7.4-1 .4-.3 0-.5-.1-.5-.4v-.2zm-1.4-2c.9-.1 1.7-.1 2.2-.1.5 0 .7.2.7.6v.1h-1.7c-1 0-1.7.5-1.7 1.3v.5c0 1 .8 1.5 1.7 1.5.9 0 1.5-.5 1.8-.9l.2.8h1.5v-3.3c0-1.5-.8-2-2.2-2-.8 0-2.1.1-2.8.3l.3 1.2zm-1.3-1.4h-3.1c-.9 0-1.4.5-1.4 1.3-.1.9-.2 1.7-.3 2-.1.4-.4.4-.9.5l.2 1.4c1.1.2 2.2-.1 2.4-1.4.1-.5.2-1.4.3-2.2 0-.3.2-.4.5-.4h.4v3.9h1.9V138zm-6.4 5.2V138h-1.6l-1.6 2.5c-.2.2-.3.5-.4.8 0-.3.1-.5.1-.8V138h-1.7v5.2h1.6l1.6-2.4c.1-.2.3-.6.4-.9 0 .3-.1.6-.1.9v2.3h1.7zm-8.4-3.8c1.4-.2 1.4-.8 2.2-3.4h-2c-.6 2.2-.8 2.8-1.5 2.8h-.3c.1-.3.1-.6.1-.9V136h-1.9v1.9c0 .3 0 .6.1.9h-.3c-.7 0-.8-.6-1.5-2.8h-2c.8 2.6.8 3.2 2.2 3.4v.1c-1.4.2-1.5.8-2.4 3.7h2c.8-2.6.9-3.1 1.6-3.1h.4c-.1.2-.1.5-.1.7v2.4h1.9v-2.4c0-.2 0-.4-.1-.7h.3c.7 0 .8.5 1.6 3.1h2.1c-.8-2.9-.9-3.5-2.4-3.8zm-64 11.2c.8 0 1 .2 1 .9s-.2.9-1 .9-1-.2-1-.9.1-.9 1-.9m0-2.9c.7 0 .9.2.9.9 0 .6-.1.8-.9.8-.7 0-.9-.1-.9-.8 0-.8.1-.9.9-.9M85 150c-1 .1-1.3 1-1.3 1.9 0 1.4.6 1.9 2.8 1.9 2.3 0 2.8-.5 2.8-1.9 0-1-.2-1.8-1.3-1.9.8-.1 1.1-.9 1.1-1.6 0-1.3-.5-1.9-2.6-1.9-2.2 0-2.6.6-2.6 1.9 0 .7.3 1.5 1.1 1.6zm-3.3 1.9c-.5 0-.7.2-.7.7v.5c0 .5.2.7.7.7h.4c.5 0 .7-.2.7-.7v-.5c0-.5-.2-.7-.7-.7h-.4zm-6.4-4h2c.7 0 .9.1.9.7 0 .5-.1.8-.8.8H76v1.3h1.4c.8 0 .9.2.9.8 0 .7-.3.9-1.2.9-.6 0-1.1 0-2-.1l-.1 1.4c.8.1 1.7.2 2.6.2 1.9 0 2.6-.6 2.6-2.1 0-1.1-.3-1.6-1.3-1.8.9-.1 1.1-.8 1.1-1.8 0-1.3-.7-1.7-2.4-1.7-.8 0-1.6.1-2.4.2l.1 1.2zm-1.5 5.8v-7.2h-1.9l-1.8.7.2 1.2 1.7-.4c-.1.3-.1.6-.1.9v4.8h1.9zm19.4-13.3h-.7c-.5 0-.6-.1-.6-.6 0-.4.1-.5.6-.5h.7v1.1zm-2 .6c-.3 0-.9.1-1 .6l-.4 1.6h1.9l.3-1.4c0-.2.2-.3.5-.3h.7v1.7H95V138c-.6-.1-1.2-.1-2.6-.1-1.9 0-2.4.4-2.4 1.7.1.6.3 1.2 1.2 1.4zm-2.2-3h-1.9v1.8h-1.6V138h-1.9v5.2h1.9v-2.1h1.6v2.1H89V138zm-7.7 5.2h1.9l-1.5-2.6L83 138h-1.9l-1 1.9-1-1.9h-1.9l1.4 2.5-1.5 2.6H79l1.1-2.1 1.2 2.2zM77 138h-2l-.8 3.1c-.1.2-.1.6-.2.9h-.1c0-.3-.1-.6-.1-.9L73 138h-2l1.6 4.7c.1.3.3.4.6.4h.3c-.1.3-.3.5-.5.6-.3.2-.8.2-1.4.2l-.2 1.2c.7.1 1.5.1 2.1-.1.8-.3 1.4-.8 1.8-2l1.7-5zm-8.5 1.4c1.4-.2 1.5-.8 2.3-3.4h-2c-.6 2.2-.7 2.8-1.7 2.8h-.3c.1-.3.1-.6.1-.9V136H65v7.2h1.9v-2.4c0-.2 0-.4-.1-.7h.4c1 0 1.1.5 1.8 3.1h2c-.9-2.9-1-3.5-2.5-3.8z" style="clip-path:url(#SVGID_8_);fill:#3c3c3b"/><path d="M41.7 33.5h90.2v2.8H41.7zm90.958 2.917.402-2.771L234.3 48.337l-.403 2.771z" class="st6"/><path d="M32.6 199.7h35.9m-.2-.3v7.9m-23.8-7.9v7.9m-1-7.9v7.9" class="st7"/><defs><path id="SVGID_9_" d="M27.8 26.7h214.8v419.1H27.8z"/></defs><clipPath id="SVGID_10_"><use xlink:href="#SVGID_9_" style="overflow:visible"/></clipPath><path d="M92 68v-7.2h-1.9l-1.8.7.2 1.2 1.7-.4c-.1.3-.1.6-.1.9V68H92zm-4.9-1.8c-.5 0-.7.2-.7.7v.5c0 .5.2.7.7.7h.4c.5 0 .7-.2.7-.7v-.5c0-.5-.2-.7-.7-.7h-.4zm-6-5.4.1 1.6h3.1c-.2.3-.3.5-.4.8L82.2 68h1.9l2.2-6.2c.2-.5-.2-1-.7-1h-4.5zm24.1-8.1h-.7c-.5 0-.6-.1-.6-.6 0-.4.1-.5.6-.5h.7v1.1zm-2.1.6c-.3 0-.9.1-1 .6l-.4 1.6h1.9l.3-1.4c0-.2.2-.3.5-.3h.7v1.7h1.8v-5.2c-.6-.1-1.2-.1-2.6-.1-1.9 0-2.4.4-2.4 1.7.1.6.4 1.2 1.2 1.4zm-2.1 2.2v-5.2h-1.6l-1.6 2.5c-.2.2-.3.5-.4.8 0-.3.1-.5.1-.8v-2.4h-1.7v5.2h1.6l1.6-2.4c.1-.2.3-.6.4-.9 0 .3-.1.6-.1.9v2.3h1.7zm-8-2.7c1.2-.2 1.2-.3 1.8-2.4h-1.9c-.5 1.7-.6 1.9-1.1 1.9h-.3c0-.2.1-.4.1-.6v-1.2H90v1.2c0 .2 0 .4.1.6h-.3c-.5 0-.6-.2-1.1-1.9h-1.9c.7 2.1.6 2.3 1.8 2.4v.1c-1.3.2-1.3.3-2 2.7h1.9c.7-2 .7-2.1 1.1-2.1h.4c0 .2-.1.3-.1.4v1.6h1.7v-1.6c0-.1 0-.3-.1-.4h.4c.5 0 .5.1 1.2 2.1H95c-.8-2.5-.8-2.6-2-2.8zm-9.5 1.4H82c.3-.6.4-1.3.6-2.3 0-.3.2-.4.5-.4h.5v2.7zm2.7 0h-.9v-3.9h-2.8c-.9 0-1.4.4-1.5 1.3-.1.9-.3 1.8-.6 2.6h-.6v2.7H81l.1-1.4h3.7l.1 1.4h1.3v-2.7zm-9.6-2.7c.6 0 .8.3.8 1.4 0 1.1-.2 1.4-.8 1.4-.6 0-.8-.3-.8-1.4-.1-1.1.1-1.4.8-1.4m0-1.3c-2 0-2.8.7-2.8 2.7s.7 2.7 2.8 2.7c2 0 2.8-.7 2.8-2.7-.1-2-.8-2.7-2.8-2.7m-3.8-1.9h-3.3c-1.1 0-1.7.6-1.8 1.7-.1 1.7-.3 2.7-.5 3.3-.2.5-.5.6-1 .7l.1 1.5c1.3.2 2.2-.2 2.7-1.7.3-.9.4-2.2.6-3.7 0-.4.2-.5.6-.5h.7v5.9h2v-7.2z" style="clip-path:url(#SVGID_10_);fill:#3c3c3b"/><path d="m42.3 239.7 1.3.7-13.7 22.7-1.3-.7z" class="st11"/><path d="M43.9 240.5s-3.1-2.1-7.6-3.3c-4.6-1.2-7.1-1.4-7.1-1.4" class="st11"/><path d="M43.1 41.1h89.6l102 15.6" class="st6"/><defs><path id="SVGID_11_" d="M27.8 26.7h214.8v419.1H27.8z"/></defs><clipPath id="SVGID_12_"><use xlink:href="#SVGID_11_" style="overflow:visible"/></clipPath><path d="M41.9 27h90l103.6 15.3" style="clip-path:url(#SVGID_12_);fill:none;stroke:#3c3c3b;stroke-width:.7"/><path d="M169.5 218.8h64.1v3h-64.1z" class="st1"/><path d="M167.7 212.4h3v26.1h-3zm0 44.5h3v19.8h-3z" class="st1"/><path d="m156.4 180-.8-1.3-23.4 14.1.8 1.2z" class="st6"/><defs><path id="SVGID_13_" d="M27.8 26.7h214.8v419.1H27.8z"/></defs><clipPath id="SVGID_14_"><use xlink:href="#SVGID_13_" style="overflow:visible"/></clipPath><path d="M155.5 178.3s2.1 3.1 3.3 7.6c1.2 4.6 1.4 7.1 1.4 7.1" style="clip-path:url(#SVGID_14_);fill:none;stroke:#3c3c3b;stroke-width:.7"/><path d="m107.8 199.4.7-1.3 23.4 14.1-.7 1.3zm48.6 86.2-.8 1.2-23.4-14 .8-1.3z" class="st6"/><defs><path id="SVGID_15_" d="M27.8 26.7h214.8v419.1H27.8z"/></defs><clipPath id="SVGID_16_"><use xlink:href="#SVGID_15_" style="overflow:visible"/></clipPath><path d="M155.5 287.2s2.1-3.1 3.3-7.6c1.2-4.6 1.4-7.1 1.4-7.1m-51.5-74.7s-2.1 3.1-3.3 7.6c-1.2 4.6-1.4 7.1-1.4 7.1" style="clip-path:url(#SVGID_16_);fill:none;stroke:#3c3c3b;stroke-width:.7"/><path d="M197.1 234.2c-3 0-5.4-2.4-5.4-5.4V223c0-.5.4-.8.8-.8h12.3c.5 0 .8.4.8.8v5.8c0 3-2.4 5.4-5.4 5.4h-3.1zm7.7-12.3h-12.3c-.6 0-1.1.5-1.1 1.1v5.8c0 3.2 2.6 5.7 5.7 5.7h3.1c3.2 0 5.7-2.6 5.7-5.7V223c0-.6-.5-1.1-1.1-1.1" class="st15"/><path d="M197.1 234.2c-3 0-5.4-2.4-5.4-5.4V223c0-.5.4-.8.8-.8h12.3c.5 0 .8.4.8.8v5.8c0 3-2.4 5.4-5.4 5.4h-3.1zm7.7-12.3h-12.3c-.6 0-1.1.5-1.1 1.1v5.8c0 3.2 2.6 5.7 5.7 5.7h3.1c3.2 0 5.7-2.6 5.7-5.7V223c0-.6-.5-1.1-1.1-1.1z" class="st16"/><path d="M197.1 232.8c-2.2 0-4.1-1.8-4.1-4.1v-3.4c0-.4.3-.7.7-.7h9.8c.4 0 .7.3.7.7v3.4c0 2.2-1.8 4.1-4.1 4.1h-3zm6.4-8.4h-9.8c-.6 0-1 .5-1 1v3.4c0 2.4 2 4.4 4.4 4.4h3.1c2.4 0 4.4-2 4.4-4.4v-3.4c0-.5-.5-1-1.1-1" class="st15"/><path d="M197.1 232.8c-2.2 0-4.1-1.8-4.1-4.1v-3.4c0-.4.3-.7.7-.7h9.8c.4 0 .7.3.7.7v3.4c0 2.2-1.8 4.1-4.1 4.1h-3zm6.4-8.4h-9.8c-.6 0-1 .5-1 1v3.4c0 2.4 2 4.4 4.4 4.4h3.1c2.4 0 4.4-2 4.4-4.4v-3.4c0-.5-.5-1-1.1-1z" class="st16"/><path d="M198.7 230c-.4 0-.7-.3-.7-.7 0-.4.3-.7.7-.7.4 0 .7.3.7.7-.1.4-.4.7-.7.7m0-1.7c-.5 0-1 .4-1 1 0 .5.4 1 1 1 .5 0 1-.4 1-1-.1-.5-.5-1-1-1" class="st15"/><path d="M198.7 230c-.4 0-.7-.3-.7-.7 0-.4.3-.7.7-.7.4 0 .7.3.7.7-.1.4-.4.7-.7.7zm0-1.7c-.5 0-1 .4-1 1 0 .5.4 1 1 1 .5 0 1-.4 1-1-.1-.5-.5-1-1-1z" class="st16"/><path d="m168.5 92.3-.7 1.3-17.4-10.5.8-1.3zm-8.7 116.8-1.2-.8 10.3-17.1 1.3.8z" class="st6"/><defs><path id="SVGID_17_" d="M27.8 26.7h214.8v419.1H27.8z"/></defs><clipPath id="SVGID_18_"><use xlink:href="#SVGID_17_" style="overflow:visible"/></clipPath><path d="M158.2 208.2s3.1 2.1 7.6 3.3c2 .5 3.6.9 4.7 1.1" style="clip-path:url(#SVGID_18_);fill:none;stroke:#3c3c3b;stroke-width:.7"/><path d="m159.8 241.4-1.2.7 10.3 17.1 1.3-.7z" class="st6"/><defs><path id="SVGID_19_" d="M27.8 26.7h214.8v419.1H27.8z"/></defs><clipPath id="SVGID_20_"><use xlink:href="#SVGID_19_" style="overflow:visible"/></clipPath><path d="M158.2 242.2s3.1-2.1 7.6-3.3c2-.5 3.6-.9 4.7-1.1m-2.8-143.9s2.1-3.1 3.3-7.6c.6-2.4 1-4.3 1.2-5.5" style="clip-path:url(#SVGID_20_);stroke-width:.7;fill:none;stroke:#3c3c3b"/><path d="m70.6 92.3-.8 1.3-17.3-10.5.7-1.3z" class="st6"/><defs><path id="SVGID_21_" d="M27.8 26.7h214.8v419.1H27.8z"/></defs><clipPath id="SVGID_22_"><use xlink:href="#SVGID_21_" style="overflow:visible"/></clipPath><path d="M69.7 93.9s2.1-3.1 3.3-7.6c.6-2.4 1-4.3 1.2-5.5m149.3 188.8s5.7 0 5.7-5.7V230s0-5.7-5.7-5.7h-7.6s-5.7 0-5.7 5.7v33.9s0 5.7 5.7 5.7h7.6z" class="st19"/><path d="M221.8 266.4s5.7 0 5.7-5.7v-27.6s0-5.7-5.7-5.7h-4.1s-5.7 0-5.7 5.7v27.6s0 5.7 5.7 5.7h4.1z" class="st19"/><path d="M222.9 262.6s2.8 0 2.8-2.8v-27.7s0-2.8-2.8-2.8h-6.3s-2.8 0-2.8 2.8v27.7s0 2.8 2.8 2.8h6.3z" class="st19"/><path d="M219.7 232.6c-.5 0-.8.4-.8.8 0 .5.4.8.8.8.5 0 .8-.4.8-.8.1-.4-.3-.8-.8-.8z" class="st19"/><path d="M209.2 272.7v-52.4" class="st6"/><defs><path id="SVGID_23_" d="M27.8 26.7h214.8v419.1H27.8z"/></defs><clipPath id="SVGID_24_"><use xlink:href="#SVGID_23_" style="overflow:visible"/></clipPath><path d="M199.1 206.9c0-2.8 2.3-5.1 5.1-5.1h7.4c.5 0 .9.4.9.9v8.5c0 .5-.4.9-.9.9h-7.4c-2.8-.1-5.1-2.4-5.1-5.2m13.8 4.2v-8.5c0-.7-.6-1.2-1.2-1.2h-7.4c-3 0-5.5 2.5-5.5 5.5s2.5 5.5 5.5 5.5h7.4c.6-.1 1.2-.6 1.2-1.3" class="st20"/><path d="M199.1 206.9c0-2.8 2.3-5.1 5.1-5.1h7.4c.5 0 .9.4.9.9v8.5c0 .5-.4.9-.9.9h-7.4c-2.8-.1-5.1-2.4-5.1-5.2zm13.8 4.2v-8.5c0-.7-.6-1.2-1.2-1.2h-7.4c-3 0-5.5 2.5-5.5 5.5s2.5 5.5 5.5 5.5h7.4c.6-.1 1.2-.6 1.2-1.3z" class="st21"/><path d="M210.1 203.2v7.3s0 .1-.1.1h-5.6c-2.1 0-3.8-1.7-3.8-3.8 0-2.1 1.7-3.8 3.8-3.8l5.7.2c-.1-.1 0-.1 0 0z" class="st21"/><path d="M209.9 203.3v7.2h-5.5c-2 0-3.6-1.6-3.6-3.6s1.6-3.6 3.6-3.6h5.5zm.3 7.2v-7.3c0-.1-.1-.3-.3-.3h-5.6c-2.2 0-3.9 1.8-3.9 3.9 0 2.2 1.8 3.9 3.9 3.9h5.6c.2.1.3 0 .3-.2" class="st20"/><path d="M209.9 203.3v7.2h-5.5c-2 0-3.6-1.6-3.6-3.6s1.6-3.6 3.6-3.6h5.5zm.3 7.2v-7.3c0-.1-.1-.3-.3-.3h-5.6c-2.2 0-3.9 1.8-3.9 3.9 0 2.2 1.8 3.9 3.9 3.9h5.6c.2.1.3 0 .3-.2z" class="st21"/><path d="M204.4 206.9c0-.5.4-1 1-1s1 .4 1 1c0 .5-.4 1-1 1s-1-.5-1-1m2.3 0c0-.7-.6-1.3-1.3-1.3s-1.3.6-1.3 1.3c0 .7.6 1.3 1.3 1.3s1.3-.6 1.3-1.3" class="st20"/><path d="M204.4 206.9c0-.5.4-1 1-1s1 .4 1 1c0 .5-.4 1-1 1s-1-.5-1-1zm2.3 0c0-.7-.6-1.3-1.3-1.3s-1.3.6-1.3 1.3c0 .7.6 1.3 1.3 1.3s1.3-.6 1.3-1.3z" class="st21"/><path d="m206.821 205.505 2.323-1.736.24.32-2.323 1.737z" class="st1"/><path d="m206.821 205.505 2.323-1.736.24.32-2.323 1.737z" class="st22"/><path d="m209.4 209.7-2.4-1.8-.2.3 2.4 1.7z" class="st1"/><path d="m209.4 209.7-2.4-1.8-.2.3 2.4 1.7z" class="st22"/><defs><path id="SVGID_25_" d="M27.8 26.7h214.8v419.1H27.8z"/></defs><clipPath id="SVGID_26_"><use xlink:href="#SVGID_25_" style="overflow:visible"/></clipPath><path d="M212.9 203.3c0-.8.6-1.4 1.4-1.4h1.9c.8 0 1.4.6 1.4 1.4v7.1c0 .8-.6 1.4-1.4 1.4h-1.9c-.8 0-1.4-.6-1.4-1.4v-7.1zm5.1 7.1v-7.1c0-1-.8-1.8-1.8-1.8h-1.9c-1 0-1.8.8-1.8 1.8v7.1c0 1 .8 1.8 1.8 1.8h1.9c1 0 1.8-.8 1.8-1.8" class="st23"/><path d="M212.9 203.3c0-.8.6-1.4 1.4-1.4h1.9c.8 0 1.4.6 1.4 1.4v7.1c0 .8-.6 1.4-1.4 1.4h-1.9c-.8 0-1.4-.6-1.4-1.4v-7.1zm5.1 7.1v-7.1c0-1-.8-1.8-1.8-1.8h-1.9c-1 0-1.8.8-1.8 1.8v7.1c0 1 .8 1.8 1.8 1.8h1.9c1 0 1.8-.8 1.8-1.8z" class="st24"/><path d="M214.7 206.9c0-.3.2-.5.5-.5s.5.2.5.5-.2.5-.5.5c-.2 0-.5-.2-.5-.5m1.5 0c0-.5-.4-.9-.9-.9s-.9.4-.9.9.4.9.9.9.9-.4.9-.9" class="st23"/><path d="M214.7 206.9c0-.3.2-.5.5-.5s.5.2.5.5-.2.5-.5.5c-.2 0-.5-.2-.5-.5zm1.5 0c0-.5-.4-.9-.9-.9s-.9.4-.9.9.4.9.9.9.9-.4.9-.9z" class="st24"/><path d="M45.5 200.7h15.9v5.6H45.5zm17.8 0h4.1v5.6h-4.1z" class="st7"/><path d="M33.1 198.3h16.2V182H33.1v16.3zm-.4-16.7h17v17h-17v-17z" class="st1"/><path d="M33.1 198.3h16.2V182H33.1v16.3zm-.4-16.7h17v17h-17v-17z" class="st22"/><defs><path id="SVGID_27_" d="M27.8 26.7h214.8v419.1H27.8z"/></defs><clipPath id="SVGID_28_"><use xlink:href="#SVGID_27_" style="overflow:visible"/></clipPath><path d="M47.8 184.4c0-.4-.3-.7-.7-.7h-8.5c-.4 0-.7.3-.7.7v11.4c0 .4.3.7.7.7h8.5c.4 0 .7-.3.7-.7v-11.4zm-10.3 11.4v-11.4c0-.6.5-1.1 1.1-1.1h8.5c.6 0 1.1.5 1.1 1.1v11.4c0 .6-.5 1.1-1.1 1.1h-8.5c-.6 0-1.1-.5-1.1-1.1" style="clip-path:url(#SVGID_28_);fill:#3c3c3b"/><path d="M47.8 184.4c0-.4-.3-.7-.7-.7h-8.5c-.4 0-.7.3-.7.7v11.4c0 .4.3.7.7.7h8.5c.4 0 .7-.3.7-.7v-11.4zm-10.3 11.4v-11.4c0-.6.5-1.1 1.1-1.1h8.5c.6 0 1.1.5 1.1 1.1v11.4c0 .6-.5 1.1-1.1 1.1h-8.5c-.6 0-1.1-.5-1.1-1.1z" style="clip-path:url(#SVGID_28_);fill:none;stroke:#3c3c3b;stroke-width:.25"/><path d="M39.1 195.3h7.5V185h-7.5v10.3zm-.3-10.7H47v11h-8.2v-11z" class="st1"/><path d="M39.1 195.3h7.5V185h-7.5v10.3zm-.3-10.7H47v11h-8.2v-11z" class="st22"/><defs><path id="SVGID_29_" d="M27.8 26.7h214.8v419.1H27.8z"/></defs><clipPath id="SVGID_30_"><use xlink:href="#SVGID_29_" style="overflow:visible"/></clipPath><path d="M44.3 190.1c0-.5-.4-.9-.9-.9s-.9.4-.9.9.4.9.9.9c.5.1.9-.4.9-.9m-2.3 0c0-.7.6-1.3 1.3-1.3.7 0 1.3.6 1.3 1.3 0 .7-.6 1.3-1.3 1.3-.7 0-1.3-.6-1.3-1.3" style="clip-path:url(#SVGID_30_);fill:#3c3c3b"/><path d="M44.3 190.1c0-.5-.4-.9-.9-.9s-.9.4-.9.9.4.9.9.9c.5.1.9-.4.9-.9zm-2.3 0c0-.7.6-1.3 1.3-1.3.7 0 1.3.6 1.3 1.3 0 .7-.6 1.3-1.3 1.3-.7 0-1.3-.6-1.3-1.3z" style="clip-path:url(#SVGID_30_);fill:none;stroke:#3c3c3b;stroke-width:.25"/></svg>