<svg xmlns="http://www.w3.org/2000/svg" xmlns:xlink="http://www.w3.org/1999/xlink" xml:space="preserve" id="Слой_1" x="0" y="0" style="enable-background:new 0 0 270 472" version="1.1" viewBox="0 0 270 472"><style>.st1{fill:#3c3c3b}.st2{clip-path:url(#SVGID_2_);fill:none;stroke:#3c3c3b;stroke-width:.7}.st3{fill:#f4e0ed}.st5{stroke:#3c3c3b;stroke-width:.7}.st5,.st6,.st7{fill:none}.st7{stroke:#3c3c3b;stroke-width:.6}.st11,.st8{fill:#3c3c3b}.st8{clip-path:url(#SVGID_6_)}.st11{clip-path:url(#SVGID_8_)}.st12,.st13,.st22{fill:none;stroke:#3c3c3b}.st12{clip-path:url(#SVGID_8_);stroke-width:.25}.st13{stroke-width:.633}.st22{stroke-width:.25}.st23,.st24{clip-path:url(#SVGID_20_);fill:#3c3c3b}.st24{fill:none;stroke:#3c3c3b;stroke-width:.25}.st26,.st27,.st28{clip-path:url(#SVGID_24_)}.st26{fill:none;stroke:#3c3c3b;stroke-width:.7}.st27{fill:#3c3c3b}.st28{fill:none;stroke:#3c3c3b;stroke-width:.25}</style><switch><g><path d="M-.4-.5h270v472H-.4z" style="fill:#fff"/><path d="M113.9 437.9h26.9v4h-26.9zm-2.6-364.3h34.3v4h-34.3z" class="st1"/><path d="M130.2 73.6h34.3v4h-34.3zm-102.1 0h34.3v4H28.1zm87.2 354.7h25.5v10.5h-25.5z" class="st1"/><path d="M28.1 76.7h31.5v10.5H28.1zm102.1 0h31.5v10.5h-31.5z" class="st1"/><path d="M114.1 76.7h31.5v10.5h-31.5zm98.9-3.1h29.4v4H213z" class="st1"/><path d="M215.9 76.7h26.6v10.5h-26.6zM28.4 437.9h32v4h-32z" class="st1"/><path d="M28.4 428.3h30.5v10.5H28.4z" class="st1"/><defs><path id="SVGID_1_" d="M26.8 29.2h215.6v412.7H26.8z"/></defs><clipPath id="SVGID_2_"><use xlink:href="#SVGID_1_" style="overflow:visible"/></clipPath><path d="M42.9 428.6h85.8v12.9H42.9z" class="st2"/><path d="M42.9 438.3h85.8v3.3H42.9z" class="st2"/><path d="M38.4 86.8h98.3v341.5H38.4z" class="st3"/><path d="M121.6 86.8h115V271h-115z" class="st3"/><path d="M225 29.2h17.4v49.9H225z" class="st1"/><path d="M236.2 29.2h6.2v202.4h-6.2zM136 268.3h103.3v5.2H136zm-109.2 0h83.5v5.2H26.8zm0-83.2h83.8v5.2H26.8z" class="st1"/><path d="M26.8 43.1h11.9v398.8H26.8zm108.7 31.5h5.2v145.7h-5.2zm0-45.4h5.2v26.5h-5.2zm0 220.6h5.2v192.1h-5.2zm100.7 7.7h6.2v16.1h-6.2zM165 203.4h76.4v5.2H165z" class="st1"/><defs><path id="SVGID_3_" d="M26.8 29.2h215.6v412.7H26.8z"/></defs><clipPath id="SVGID_4_"><use xlink:href="#SVGID_3_" style="overflow:visible"/></clipPath><path d="M127.3 238.3h1.2c.4 0 .6.1.6.4 0 .3 0 .5-.5.5h-.8v.8h.8c.5 0 .6.1.6.5s-.2.5-.7.5h-1.2v.8c.5.1 1 .1 1.5.1 1.1 0 1.6-.4 1.5-1.3 0-.7-.2-1-.8-1.1.6-.1.7-.5.7-1.1 0-.8-.4-1-1.5-1-.5 0-1 0-1.4.1v.8zm-1.2 2.4c-.3 0-.4.1-.4.4v.3c0 .3.1.4.4.4h.3c.3 0 .4-.1.4-.4v-.3c0-.3-.1-.4-.4-.4h-.3zm-3.9-2.4h1.2c.4 0 .6.1.6.4 0 .3 0 .5-.5.5h-.8v.8h.8c.5 0 .6.1.6.5s-.2.5-.7.5h-1.2v.8c.5.1 1 .1 1.5.1 1.1 0 1.6-.4 1.5-1.3 0-.7-.2-1-.8-1.1.6-.1.7-.5.7-1.1 0-.8-.4-1-1.5-1-.5 0-1 0-1.4.1v.8zm15.3-4.9c.2-.1.3-.2.6-.2s.4.1.4.8c0 .7-.1.8-.4.8-.2 0-.4-.1-.5-.1v-1.3zm-.3-1h-.9v4.3h1.1v-1.4c.3.2.6.3 1 .3.8 0 1.2-.3 1.2-1.6 0-1.1-.3-1.7-1.1-1.7-.5 0-1 .2-1.2.5l-.1-.4zm-3.1.7c.4 0 .5.2.5.8 0 .7-.1.8-.5.8s-.5-.2-.5-.8c0-.6.1-.8.5-.8m0-.8c-1.2 0-1.7.4-1.7 1.6 0 1.2.4 1.6 1.7 1.6 1.2 0 1.7-.4 1.7-1.6 0-1.1-.5-1.6-1.7-1.6m-3.6 2.4h-.9c.2-.4.3-.8.4-1.4 0-.2.1-.3.3-.3h.3v1.7zm1.6 0h-.5v-2.3h-1.7c-.6 0-.8.3-.9.8-.1.5-.2 1.1-.4 1.6h-.4v1.6h.7l.1-.9h2.2l.1.9h.8v-1.7zm-4.3.8v-3.1h-1l-1 1.5c-.1.1-.2.3-.2.5v-2h-1v3.1h1l1-1.4c.1-.1.2-.4.3-.5v1.9h.9zm-5.9-2.1c.2-.1.3-.2.6-.2s.4.1.4.8c0 .7-.1.8-.4.8-.2 0-.4-.1-.5-.1v-1.3zm-.2-1h-.9v4.3h1.1v-1.4c.3.2.6.3 1 .3.8 0 1.2-.3 1.2-1.6 0-1.1-.3-1.7-1.1-1.7-.5 0-1 .2-1.2.5l-.1-.4zm-3.1.7c.4 0 .5.2.5.8 0 .7-.1.8-.5.8s-.5-.2-.5-.8c0-.6.1-.8.5-.8m0-.8c-1.2 0-1.7.4-1.7 1.6 0 1.2.4 1.6 1.7 1.6 1.2 0 1.7-.4 1.7-1.6-.1-1.1-.5-1.6-1.7-1.6m-3.4.9c.9-.1.9-.5 1.4-2h-1.2c-.3 1.3-.4 1.7-1 1.7h-.2v-1.6H113v4.3h1.2v-1.8h.2c.6 0 .6.3 1.1 1.8h1.2c-.6-1.9-.6-2.2-1.5-2.4zm73.7 12h2c.7 0 .9.1.9.7 0 .5-.1.8-.8.8h-1.4v1.3h1.4c.8 0 .9.2.9.8 0 .7-.3.9-1.2.9-.6 0-1.1 0-2-.1l-.1 1.4c.8.1 1.7.2 2.6.2 1.9 0 2.6-.6 2.6-2.1 0-1.1-.3-1.6-1.3-1.8.9-.1 1.1-.8 1.1-1.8 0-1.3-.7-1.7-2.4-1.7-.8 0-1.6.1-2.4.2l.1 1.2zm-2.1 4c-.5 0-.7.2-.7.7v.5c0 .5.2.7.7.7h.4c.5 0 .7-.2.7-.7v-.5c0-.5-.2-.7-.7-.7h-.4zm-6-5.4.1 1.6h3.1c-.2.3-.3.5-.4.8l-1.7 4.9h1.9l2.2-6.2c.2-.5-.2-1-.7-1h-4.5zm30.8-6.2h-.7c-.5 0-.6-.1-.6-.6 0-.4.1-.5.6-.5h.7v1.1zm-2 .7c-.3 0-.9.1-1 .6l-.4 1.6h1.9l.3-1.4c0-.2.2-.3.5-.3h.7v1.7h1.8v-5.2c-.6-.1-1.2-.1-2.6-.1-1.9 0-2.4.4-2.4 1.7.1.6.3 1.1 1.2 1.4zm-5.5.4c0-.2.1-.4.4-.4h1.1v.6c-.3.2-.7.4-1 .4-.3 0-.5-.1-.5-.4v-.2zm-1.4-2.1c.9-.1 1.7-.1 2.2-.1.5 0 .7.2.7.6v.1h-1.7c-1 0-1.7.5-1.7 1.3v.5c0 1 .8 1.5 1.7 1.5.9 0 1.5-.5 1.8-.9l.2.8h1.5v-3.3c0-1.5-.8-2-2.2-2-.8 0-2.1.1-2.8.3l.3 1.2zm-2.9 1.1c1.2-.2 1.2-.3 1.8-2.4h-1.9c-.5 1.7-.6 1.9-1.1 1.9h-.3c0-.2.1-.4.1-.6v-1.2h-1.6v1.2c0 .2 0 .4.1.6h-.3c-.5 0-.6-.2-1.1-1.9h-1.9c.7 2.1.6 2.3 1.8 2.4v.1c-1.2.2-1.3.3-2 2.7h1.9c.7-2 .7-2.1 1.1-2.1h.4c0 .2-.1.3-.1.4v1.6h1.7v-1.6c0-.1 0-.3-.1-.4h.4c.5 0 .5.1 1.2 2.1h1.9c-.7-2.4-.8-2.5-2-2.8zm-9.7-1.2c.6 0 .8.3.8 1.4 0 1.1-.2 1.4-.8 1.4-.6 0-.8-.3-.8-1.4 0-1.2.2-1.4.8-1.4m0-1.4c-2 0-2.8.7-2.8 2.7s.7 2.7 2.8 2.7c2 0 2.8-.7 2.8-2.7 0-1.9-.8-2.7-2.8-2.7m-4.9 5.4h1.9l-1.5-2.6 1.4-2.5h-1.9l-1 1.9-1-1.9h-1.9l1.4 2.5-1.5 2.6h1.9l1.1-2.1 1.1 2.1zm-4.7 0v-5.2h-1.6l-1.6 2.5c-.2.2-.3.5-.4.8 0-.3.1-.5.1-.8v-2.4h-1.7v5.2h1.6l1.6-2.4c.1-.2.3-.6.4-.9 0 .3-.1.6-.1.9v2.3h1.7zm-9.9-3.6c.3-.2.6-.3 1-.3.5 0 .7.2.7 1.4s-.2 1.4-.7 1.4c-.4 0-.6-.1-.9-.2v-2.3zm-.3-1.6h-1.5v7.1h1.9v-2.2c.4.3 1 .5 1.7.5 1.3 0 2-.6 2-2.7 0-1.8-.5-2.8-1.8-2.8-.8 0-1.6.4-2 .9l-.3-.8zm-2.8-2h-6v7.2h1.9v-5.9h2.1v5.9h2v-7.2z" style="clip-path:url(#SVGID_4_);fill:#3c3c3b"/><path d="M54.3 73.9h41v3.3h-41zm102.1 0h41v3.3h-41zM54.3 77.2h41v9.6h-41zm102.1 0h41v9.6h-41z" class="st5"/><path d="M99.1 189.2h3v17.3h-3zm0 34.3h3v26.9h-3z" class="st1"/><path d="M34.9 239.7H100v3.8H34.9z" class="st1"/><path d="M138.7 29.6h90.2v2.8h-90.2zM36.328 44.357l101.24-14.692.402 2.771L36.73 47.128z" class="st5"/><path d="M26.8 29.2h215.6v412.7H26.8z" class="st6"/><path d="M63.5 189.6h17.3v20.3H63.5z" class="st5"/><path d="M47.3 243.4v24.8m.3-.2h-9.1m9.1-24.3h-9.1m8.8 29.9v24.8m.3-.2h-9.1m9.1-24.3h-9.1" class="st7"/><defs><path id="SVGID_5_" d="M26.8 29.2h215.6v412.7H26.8z"/></defs><clipPath id="SVGID_6_"><use xlink:href="#SVGID_5_" style="overflow:visible"/></clipPath><path d="M192.6 169.2c1-.1 1.5-.1 2.2-.1.6 0 .8 0 .8.3 0 .4-.5 1.1-1.3 1.9l-1.6 1.7c-.2.2-.3.5-.3.8v1h5.3v-1.7h-2.1c-.3 0-.7 0-1 .1l1.8-1.7c.9-1 1.1-1.5 1.1-2.2 0-1.4-1-1.7-2.5-1.7-.8 0-1.5 0-2.6.2l.2 1.4zm-2.1 3.8c-.5 0-.7.2-.7.7v.5c0 .5.2.7.7.7h.4c.5 0 .7-.2.7-.7v-.5c0-.5-.2-.7-.7-.7h-.4zm-1.3-1h-.9v-3h-1.5l-.3 1.1v1.8h-1.4c-.2 0-.3-.1-.2-.3l1.6-4.1h-1.8l-1.8 4.6c-.2.6.2 1.1.8 1.1h2.9v1.5h1.8v-1.5l.8-.2v-1zm-7.4 2.8v-7.2h-1.9l-1.8.7.2 1.2 1.7-.4c-.1.3-.1.6-.1.9v4.8h1.9zm43.2-12.3c0-.2.1-.4.4-.4h1.1v.6c-.3.2-.7.4-1 .4-.3 0-.5-.1-.5-.4v-.2zm-1.4-2c.9-.1 1.7-.1 2.2-.1.5 0 .7.2.7.6v.1h-1.7c-1 0-1.7.5-1.7 1.3v.5c0 1 .8 1.5 1.7 1.5.9 0 1.5-.5 1.8-.9l.2.8h1.5V161c0-1.5-.8-2-2.2-2-.8 0-2.1.1-2.8.3l.3 1.2zm-.9.1v-1.4h-5.2v1.4h1.6v3.7h1.9v-3.7h1.7zm-9.2 1.9c0-.2.1-.4.4-.4h1.1v.6c-.3.2-.7.4-1 .4-.3 0-.5-.1-.5-.4v-.2zm-1.4-2c.9-.1 1.7-.1 2.2-.1.5 0 .7.2.7.6v.1h-1.7c-1 0-1.7.5-1.7 1.3v.5c0 1 .8 1.5 1.7 1.5.9 0 1.5-.5 1.8-.9l.2.8h1.5V161c0-1.5-.8-2-2.2-2-.8 0-2.1.1-2.8.3l.3 1.2zm-1.3-1.3h-1.9v1.8h-1.6v-1.8h-1.9v5.2h1.9v-2.1h1.6v2.1h1.9v-5.2zm-8.8 0c-.4 0-.6.2-.7.6l-.4 1.9c-.1.3-.1.5-.1.8h-.1c0-.3 0-.5-.1-.8l-.5-1.9c-.1-.4-.3-.6-.7-.6h-1.6c-.4 0-.6.2-.7.6l-.1 4.5h1.7l.1-3.8h.1l.6 2.5c.1.4.3.6.7.6h.8c.4 0 .6-.2.7-.6l.6-2.5h.1l.1 3.8h1.7l-.1-4.5c0-.4-.2-.6-.6-.6H202zm-8.6 1.1c.6 0 .8.3.8 1.4 0 1.1-.2 1.4-.8 1.4-.6 0-.8-.3-.8-1.4 0-1.1.2-1.4.8-1.4m0-1.3c-2 0-2.8.7-2.8 2.7s.7 2.7 2.8 2.7c2 0 2.8-.7 2.8-2.7s-.7-2.7-2.8-2.7m-5.1 2.6c1.2-.2 1.1-.3 1.8-2.5h-1.9c-.4 1.7-.5 1.9-1.2 1.9h-.2c0-.2.1-.4.1-.7v-1.2H185v5.2h1.9v-1.6c0-.1 0-.3-.1-.4h.4c.6 0 .6.1 1.1 2.1h2c-.8-2.5-.8-2.6-2-2.8zm-8.6-.1h-.7c-.5 0-.6-.1-.6-.6 0-.4.1-.5.6-.5h.7v1.1zm-2 .6c-.3 0-.9.1-1 .6l-.4 1.6h1.9l.3-1.4c0-.2.2-.3.5-.3h.7v1.7h1.8v-5.2c-.6-.1-1.2-.1-2.6-.1-1.9 0-2.4.4-2.4 1.7.1.6.3 1.2 1.2 1.4zm-5.5.4c0-.2.1-.4.4-.4h1.1v.6c-.3.2-.7.4-1 .4-.3 0-.5-.1-.5-.4v-.2zm-1.4-2c.9-.1 1.7-.1 2.2-.1.5 0 .7.2.7.6v.1H172c-1 0-1.7.5-1.7 1.3v.5c0 1 .8 1.5 1.7 1.5.9 0 1.5-.5 1.8-.9l.2.8h1.5V161c0-1.5-.8-2-2.2-2-.8 0-2.1.1-2.8.3l.3 1.2zm-1.3-1.3h-3.1c-.9 0-1.4.5-1.4 1.3-.1.9-.2 1.7-.3 2-.1.4-.4.4-.9.5l.2 1.4c1.1.2 2.2-.1 2.4-1.4.1-.5.2-1.4.3-2.2 0-.3.2-.4.5-.4h.4v3.9h1.9v-5.1zm-6.4 5.1v-5.2h-1.6l-1.6 2.5c-.2.2-.3.5-.4.8 0-.3.1-.5.1-.8v-2.4h-1.7v5.2h1.6l1.6-2.4c.1-.2.3-.6.4-.9 0 .3-.1.6-.1.9v2.3h1.7zm-8.4-3.8c1.4-.2 1.4-.8 2.2-3.4h-2c-.6 2.2-.8 2.8-1.5 2.8h-.3c.1-.3.1-.6.1-.9v-1.9h-1.9v1.9c0 .3 0 .6.1.9h-.4c-.7 0-.8-.6-1.5-2.8h-2c.8 2.6.8 3.2 2.2 3.4v.1c-1.4.2-1.5.8-2.4 3.7h2c.8-2.6.9-3.1 1.6-3.1h.4c-.1.2-.1.5-.1.7v2.4h1.9v-2.4c0-.2 0-.4-.1-.7h.3c.7 0 .8.5 1.6 3.1h2.1c-.7-2.9-.8-3.5-2.3-3.8zm-59.2-14.6v-7.2h-1.9l-1.8.7.2 1.2 1.7-.4c-.1.3-.1.6-.1.9v4.8h1.9zm-4.9-1.8c-.5 0-.7.2-.7.7v.5c0 .5.2.7.7.7h.4c.5 0 .7-.2.7-.7v-.5c0-.5-.2-.7-.7-.7h-.4zm-6.7-3.8c1-.1 1.5-.1 2.2-.1.6 0 .8 0 .8.3 0 .4-.5 1.1-1.3 1.9l-1.6 1.7c-.2.2-.3.5-.3.8v1H89v-1.7h-2c-.3 0-.7 0-1 .1l1.8-1.7c.9-1 1.1-1.5 1.1-2.2 0-1.4-1-1.7-2.5-1.7-.8 0-1.5 0-2.6.2l.1 1.4zm-1.4 5.6v-7.2h-1.9l-1.8.7.2 1.2 1.7-.4c-.1.3-.1.6-.1.9v4.8h1.9zm41.9-12.3c0-.2.1-.4.4-.4h1.1v.6c-.3.2-.7.4-1 .4-.3 0-.5-.1-.5-.4v-.2zm-1.4-2c.9-.1 1.7-.1 2.2-.1.5 0 .7.2.7.6v.1h-1.7c-1 0-1.7.5-1.7 1.3v.5c0 1 .8 1.5 1.7 1.5.9 0 1.5-.5 1.8-.9l.2.8h1.5v-3.3c0-1.5-.8-2-2.2-2-.8 0-2.1.1-2.8.3l.3 1.2zm-.9.1v-1.4H117v1.4h1.6v3.7h1.9v-3.7h1.6zm-9.2 1.9c0-.2.1-.4.4-.4h1.1v.6c-.3.2-.7.4-1 .4-.3 0-.5-.1-.5-.4v-.2zm-1.4-2c.9-.1 1.7-.1 2.2-.1.5 0 .7.2.7.6v.1h-1.7c-1 0-1.7.5-1.7 1.3v.5c0 1 .8 1.5 1.7 1.5.9 0 1.5-.5 1.8-.9l.2.8h1.5v-3.3c0-1.5-.8-2-2.2-2-.8 0-2.1.1-2.8.3l.3 1.2zm-1.3-1.4h-1.9v1.8h-1.6v-1.8h-1.9v5.2h1.9v-2.1h1.6v2.1h1.9v-5.2zm-8.8 0c-.4 0-.6.2-.7.6l-.4 1.9c-.1.3-.1.5-.1.8h-.1c0-.3 0-.5-.1-.8l-.5-1.9c-.1-.4-.3-.6-.7-.6h-1.6c-.4 0-.6.2-.7.6l-.1 4.5h1.7l.1-3.8h.1l.6 2.5c.1.4.3.6.7.6h.8c.4 0 .6-.2.7-.6l.6-2.5h.1l.1 3.8h1.7l-.1-4.5c0-.4-.2-.6-.6-.6h-1.5zm-8.6 1.2c.6 0 .8.3.8 1.4 0 1.1-.2 1.4-.8 1.4-.6 0-.8-.3-.8-1.4 0-1.1.2-1.4.8-1.4m0-1.3c-2 0-2.8.7-2.8 2.7s.7 2.7 2.8 2.7c2 0 2.8-.7 2.8-2.7s-.8-2.7-2.8-2.7m-5.2 2.6c1.2-.2 1.1-.3 1.8-2.5h-1.9c-.4 1.7-.5 1.9-1.2 1.9h-.2c0-.2.1-.4.1-.7v-1.2h-1.9v5.2h1.9v-1.6c0-.1 0-.3-.1-.4h.4c.6 0 .6.1 1.1 2.1h2c-.7-2.5-.7-2.6-2-2.8zm-8.5-.1h-.7c-.5 0-.6-.1-.6-.6 0-.4.1-.5.6-.5h.7v1.1zm-2.1.6c-.3 0-.9.1-1 .6l-.4 1.6h1.9l.3-1.4c0-.2.2-.3.5-.3h.7v1.7h1.8v-5.2c-.6-.1-1.2-.1-2.6-.1-1.9 0-2.4.4-2.4 1.7.1.6.4 1.2 1.2 1.4zm-5.5.4c0-.2.1-.4.4-.4H73v.6c-.3.2-.7.4-1 .4-.3 0-.5-.1-.5-.4v-.2zm-1.4-2c.9-.1 1.7-.1 2.2-.1.5 0 .7.2.7.6v.1h-1.7c-1 0-1.7.5-1.7 1.3v.5c0 1 .8 1.5 1.7 1.5.9 0 1.5-.5 1.8-.9l.2.8H75v-3.3c0-1.5-.8-2-2.2-2-.8 0-2.1.1-2.8.3l.1 1.2zm-1.3-1.4h-3.1c-.9 0-1.4.5-1.4 1.3-.1.9-.2 1.7-.3 2-.1.4-.4.4-.9.5l.2 1.4c1.1.2 2.2-.1 2.4-1.4.1-.5.2-1.4.3-2.2 0-.3.2-.4.5-.4h.4v3.9h1.9v-5.1zm-6.3 5.2v-5.2h-1.6l-1.6 2.5c-.2.2-.3.5-.4.8 0-.3.1-.5.1-.8v-2.4h-1.7v5.2h1.6l1.6-2.4c.1-.2.3-.6.4-.9 0 .3-.1.6-.1.9v2.3h1.7zm-8.4-3.8c1.4-.2 1.4-.8 2.2-3.4h-2c-.6 2.2-.8 2.8-1.5 2.8h-.3c.1-.3.1-.6.1-.9v-1.9h-1.9v1.9c0 .3 0 .6.1.9h-.4c-.7 0-.8-.6-1.5-2.8h-2c.8 2.6.8 3.2 2.2 3.4v.1c-1.4.2-1.5.8-2.4 3.7h2c.8-2.6.9-3.1 1.6-3.1h.4c-.1.2-.1.5-.1.7v2.4h1.9V133c0-.2 0-.4-.1-.7h.3c.7 0 .8.5 1.6 3.1h2.1c-.8-2.9-.9-3.5-2.3-3.8zm145.3 6.2h4.6c1.7 0 2.1.2 2.1 1.5 0 1.1-.1 1.8-1.9 1.8H201v2.9h3.1c1.8 0 2.1.5 2.1 1.9 0 1.7-.6 2-2.7 2-1.4 0-2.5 0-4.5-.1l-.1 3.2c1.9.3 3.9.5 5.9.5 4.4 0 5.9-1.4 5.9-4.9 0-2.5-.7-3.8-3-4.1v-.1c2.1-.3 2.6-1.8 2.6-4.1 0-2.9-1.5-3.8-5.5-3.8-1.8 0-3.6.1-5.5.5l.1 2.8zm-4.8 9.1c-1.1 0-1.5.4-1.5 1.5v1c0 1.1.4 1.5 1.5 1.5h1c1.1 0 1.5-.4 1.5-1.5v-1c0-1.1-.4-1.5-1.5-1.5h-1zm-4-9.1.2-3.3h-10.3l-.4 7.4c0 .8.5 1.4 1.3 1.5l2.5.3c2.2.2 3 .5 2.9 2-.1 1.3-.6 1.9-2.7 1.9-1.2 0-2.7-.1-4.3-.2l-.4 3.4c2.1.3 4.2.5 5.8.5 4.7 0 6-2.4 6-5.4 0-2.6-1-5-4.8-5.4l-2.7-.4.2-2.3h6.7zM171.9 148c-1.9 0-2.1-.6-2.1-4.2.8-.5 1.3-.6 2.1-.6 1.6 0 1.9.4 1.9 2.2 0 1.9-.1 2.6-1.9 2.6m5-13.2c-1.7-.5-3.4-.5-4.2-.5-4.8 0-7.2 1.2-7.2 8.7 0 6.7 1.5 8.3 6.4 8.3 5 0 6.1-1.9 6.1-6 0-3.6-1.1-5.1-4.8-5.1-1.5 0-2.5.2-3.4 1 .1-3.1.7-3.6 2.8-3.6h4l.3-2.8z" class="st8"/><circle cx="188.1" cy="114.6" r="14.6" style="clip-path:url(#SVGID_6_);fill:none;stroke:#3c3c3b"/><path d="M198 118.1c-1.2.1-2.2.1-3.9.1-1.5 0-1.9-.8-1.9-3.5s.4-3.5 1.9-3.5c1.7 0 2.4 0 3.7.1l.3-2.5c-1.2-.3-2.1-.4-3.9-.4-4 0-5.4 1.7-5.4 6.4s1.5 6.4 5.4 6.4c1.9 0 3-.1 4.2-.6l-.4-2.5zm-19.4-7.1h3.5c1.3 0 1.6.2 1.6 1.2 0 .8-.1 1.4-1.5 1.4h-2.4v2.2h2.4c1.3 0 1.6.4 1.6 1.5 0 1.3-.5 1.5-2.1 1.5-1.1 0-1.9 0-3.4-.1l-.1 2.4c1.4.2 3 .3 4.5.3 3.3 0 4.5-1.1 4.5-3.7 0-1.9-.6-2.8-2.3-3.1v-.1c1.6-.3 2-1.4 2-3.1 0-2.2-1.2-2.9-4.2-2.9-1.4 0-2.8.1-4.2.3l.1 2.2zm7.6-50c.8 0 1 .2 1 .9s-.2.9-1 .9-1-.2-1-.9.2-.9 1-.9m0-2.9c.7 0 .9.2.9.9 0 .6-.1.8-.9.8-.7 0-.9-.1-.9-.8 0-.8.2-.9.9-.9m-1.5 2.3c-1 .1-1.3 1-1.3 1.9 0 1.4.6 1.9 2.8 1.9 2.3 0 2.8-.5 2.8-1.9 0-1-.2-1.8-1.3-1.9.8-.1 1.1-.9 1.1-1.6 0-1.3-.5-1.9-2.6-1.9-2.2 0-2.6.6-2.6 1.9 0 .7.3 1.5 1.1 1.6zm-3.3 1.9c-.5 0-.7.2-.7.7v.5c0 .5.2.7.7.7h.4c.5 0 .7-.2.7-.7V63c0-.5-.2-.7-.7-.7h-.4zM177 61c.8 0 1 .2 1 .9s-.2.9-1 .9-1-.2-1-.9.2-.9 1-.9m0-2.9c.7 0 .9.2.9.9 0 .6-.1.8-.9.8-.7 0-.9-.1-.9-.8 0-.8.2-.9.9-.9m-1.5 2.3c-1 .1-1.3 1-1.3 1.9 0 1.4.6 1.9 2.8 1.9 2.3 0 2.8-.5 2.8-1.9 0-1-.2-1.8-1.3-1.9.8-.1 1.1-.9 1.1-1.6 0-1.3-.5-1.9-2.6-1.9-2.2 0-2.6.6-2.6 1.9 0 .7.3 1.5 1.1 1.6zm24.4-11.6h-.7c-.5 0-.6-.1-.6-.6 0-.4.1-.5.6-.5h.7v1.1zm-2 .6c-.3 0-.9.1-1 .6l-.4 1.6h1.9l.3-1.4c0-.2.2-.3.5-.3h.7v1.7h1.8v-5.2c-.6-.1-1.2-.1-2.6-.1-1.9 0-2.4.4-2.4 1.7 0 .6.3 1.2 1.2 1.4zm-2.2 2.2v-5.2h-1.6l-1.6 2.5c-.2.2-.3.5-.4.8 0-.3.1-.5.1-.8v-2.4h-1.7v5.2h1.6l1.6-2.4c.1-.2.3-.6.4-.9 0 .3-.1.6-.1.9v2.3h1.7zm-8-2.7c1.2-.2 1.2-.3 1.8-2.4h-1.9c-.5 1.7-.6 1.9-1.1 1.9h-.3c0-.2.1-.4.1-.6v-1.2h-1.6v1.2c0 .2 0 .4.1.6h-.3c-.5 0-.6-.2-1.1-1.9h-1.9c.7 2.1.6 2.3 1.8 2.4v.1c-1.3.2-1.3.3-2 2.7h1.9c.7-2 .7-2.1 1.1-2.1h.4c0 .2-.1.3-.1.4v1.6h1.7V50c0-.1 0-.3-.1-.4h.4c.5 0 .5.1 1.2 2.1h1.9c-.7-2.5-.8-2.6-2-2.8zm-9.4 1.4h-1.5c.3-.6.4-1.3.6-2.3 0-.3.2-.4.5-.4h.5v2.7zm2.6 0h-.9v-3.9h-2.8c-.9 0-1.4.4-1.5 1.3-.1.9-.3 1.8-.6 2.6h-.6V53h1.2l.1-1.4h3.7l.1 1.4h1.3v-2.7zm-9.6-2.7c.6 0 .8.3.8 1.4 0 1.1-.2 1.4-.8 1.4-.6 0-.8-.3-.8-1.4 0-1.1.1-1.4.8-1.4m0-1.3c-2 0-2.8.7-2.8 2.7s.7 2.7 2.8 2.7c2 0 2.8-.7 2.8-2.7s-.8-2.7-2.8-2.7m-3.8-1.9h-3.3c-1.1 0-1.7.6-1.8 1.7-.1 1.7-.3 2.7-.5 3.3-.2.5-.5.6-1 .7l.1 1.5c1.3.2 2.2-.2 2.7-1.7.3-.9.4-2.2.6-3.7 0-.4.2-.5.6-.5h.7v5.9h2v-7.2zM84.6 221.9l.1.9h1.9c-.1.1-.2.3-.2.5l-1 2.9h1.1l1.3-3.7c.1-.3-.1-.6-.4-.6h-2.8zm-.8 3.2c-.3 0-.4.1-.4.4v.3c0 .3.1.4.4.4h.2c.3 0 .4-.1.4-.4v-.3c0-.3-.1-.4-.4-.4h-.2zm-3.9-2.4h1.2c.4 0 .6.1.6.4 0 .3 0 .5-.5.5h-.8v.8h.8c.5 0 .6.1.6.5s-.2.5-.7.5h-1.2v.8c.5.1 1 .1 1.5.1 1.1 0 1.6-.4 1.5-1.3 0-.7-.2-1-.8-1.1.6-.1.7-.5.7-1.1 0-.8-.4-1-1.5-1-.5 0-1 0-1.4.1v.8zm13.7-5.7h-.4c-.3 0-.3-.1-.3-.4 0-.2.1-.3.3-.3h.4v.7zm-1.2.4c-.2 0-.5.1-.6.3l-.2 1h1.2l.2-.8c0-.1.1-.2.3-.2h.4v1h1.1v-3.1c-.4 0-.7-.1-1.6-.1-1.1 0-1.4.2-1.4 1-.1.4.1.8.6.9zm-3.3.2c0-.1.1-.2.3-.2h.6v.4c-.2.1-.4.2-.6.2-.2 0-.3-.1-.3-.3v-.1zm-.9-1.2h1.3c.3 0 .4.1.4.4v.1h-1c-.6 0-1 .3-1 .8v.3c0 .6.5.9 1 .9s.9-.3 1.1-.5l.1.5h.9v-2c0-.9-.5-1.2-1.3-1.2-.5 0-1.2.1-1.7.2l.2.5zm-.7-.8h-1.1v1.1h-.9v-1.1h-1.1v3.1h1.1v-1.3h.9v1.3h1.1v-3.1zm-3.9 0h-1.1v1.1h-1v-1.1h-1.1v3.1h1.1v-1.3h1v1.3h1.1v-3.1zm-5.9 2c0-.1.1-.2.3-.2h.7v.4c-.2.1-.4.2-.6.2-.2 0-.3-.1-.3-.3v-.1zm-.8-1.2h1.3c.3 0 .4.1.4.4v.1h-1c-.6 0-1 .3-1 .8v.3c0 .6.5.9 1 .9s.9-.3 1.1-.5l.1.5h.9v-2c0-.9-.5-1.2-1.3-1.2-.5 0-1.2.1-1.7.2l.2.5zm-3 1.5v-1.1h.6c.4 0 .6.1.6.6 0 .4-.1.5-.5.5h-.7zm0-1.8v-.9h.6c.4 0 .5.1.5.5s-.1.5-.5.5h-.6zm1.4.4c.5 0 .8-.4.8-1 0-.9-.4-1.1-1.6-1.1-.8 0-1.2 0-1.8.1v4.3h2c1.1 0 1.5-.2 1.5-1.1 0-.8-.2-1.2-.9-1.2zM86 260.1c-.5 0-.6-.2-.6-1.1.2-.1.3-.2.6-.2.4 0 .5.1.5.6s-.1.7-.5.7m1.3-3.4c-.4-.1-.9-.1-1.1-.1-1.3 0-1.9.3-1.9 2.3 0 1.7.4 2.2 1.7 2.2 1.3 0 1.6-.5 1.6-1.6 0-.9-.3-1.3-1.3-1.3-.4 0-.6.1-.9.3 0-.8.2-.9.7-.9h1.1l.1-.9zm-4.2 3.2c-.3 0-.4.1-.4.4v.3c0 .3.1.4.4.4h.3c.3 0 .4-.1.4-.4v-.3c0-.3-.1-.4-.4-.4h-.3zm-1.2 1v-4.3h-1.2l-1.1.4.1.7 1-.2v3.4h1.2zm7.2-10.6h-1.2l-.5 1.8c0 .1-.1.3-.1.5h-.1c0-.2-.1-.4-.1-.5l-.5-1.8h-1.2l1 2.8c.1.2.2.3.4.3h.2c-.1.2-.2.3-.3.4-.2.1-.5.1-.9.1l-.1.7c.4.1.9.1 1.3-.1.5-.2.8-.5 1.1-1.2l1-3zm-6.1 3.6 2.5-4.8h-.9l-2.5 4.8h.9zm-1.2-1.5c-.4 0-.8.1-1.4.1-.5 0-.7-.3-.7-1.2 0-1 .1-1.2.7-1.2h1.3l.1-.9c-.4-.1-.7-.2-1.4-.2-1.4 0-1.9.6-1.9 2.2s.5 2.2 1.9 2.2c.6 0 1 0 1.5-.2l-.1-.8zm42.7 115.7c0-.2.1-.4.4-.4h1.1v.6c-.3.2-.7.4-1 .4-.3 0-.5-.1-.5-.4v-.2zm-1.4-2.1c.9-.1 1.7-.1 2.2-.1.5 0 .7.2.7.6v.1h-1.7c-1 0-1.7.5-1.7 1.3v.5c0 1 .8 1.5 1.7 1.5.9 0 1.5-.5 1.8-.9l.2.8h1.5v-3.3c0-1.5-.8-2-2.2-2-.8 0-2.1.1-2.8.3l.3 1.2zm-.8.1v-1.4h-5.2v1.4h1.6v3.7h1.9v-3.7h1.7zm-9.3 2c0-.2.1-.4.4-.4h1.1v.6c-.3.2-.7.4-1 .4-.3 0-.5-.1-.5-.4v-.2zm-1.4-2.1c.9-.1 1.7-.1 2.2-.1.5 0 .7.2.7.6v.1h-1.7c-1 0-1.7.5-1.7 1.3v.5c0 1 .8 1.5 1.7 1.5.9 0 1.5-.5 1.8-.9l.2.8h1.5v-3.3c0-1.5-.8-2-2.2-2-.8 0-2.1.1-2.8.3l.3 1.2zm-1.3-1.3h-1.9v1.8h-1.6v-1.8H105v5.2h1.9v-2.1h1.6v2.1h1.9v-5.2zm-8.7 0c-.4 0-.6.2-.7.6l-.4 1.9c-.1.3-.1.5-.1.8h-.1c0-.3 0-.5-.1-.8l-.5-1.9c-.1-.4-.3-.6-.7-.6h-1.6c-.4 0-.6.2-.7.6l-.1 4.5h1.7l.1-3.8h.1l.6 2.5c.1.4.3.6.7.6h.8c.4 0 .6-.2.7-.6l.6-2.5h.1l.1 3.8h1.7l-.1-4.5c0-.4-.2-.6-.6-.6h-1.5zm-8.6 1.2c.6 0 .8.3.8 1.4 0 1.1-.2 1.4-.8 1.4-.6 0-.8-.3-.8-1.4 0-1.2.1-1.4.8-1.4m0-1.4c-2 0-2.8.7-2.8 2.7s.7 2.7 2.8 2.7c2 0 2.8-.7 2.8-2.7 0-1.9-.8-2.7-2.8-2.7m-5.2 2.6c1.2-.2 1.1-.3 1.8-2.5h-1.9c-.4 1.7-.5 1.9-1.2 1.9h-.2c0-.2.1-.4.1-.7v-1.2h-1.9v5.2h1.9v-1.6c0-.1 0-.3-.1-.4h.4c.6 0 .6.1 1.1 2.1h2c-.8-2.5-.8-2.5-2-2.8zm-8.6-.1h-.7c-.5 0-.6-.1-.6-.6 0-.4.1-.5.6-.5h.7v1.1zm-2 .7c-.3 0-.9.1-1 .6l-.4 1.6h1.9l.3-1.4c0-.2.2-.3.5-.3h.7v1.7H81v-5.2c-.6-.1-1.2-.1-2.6-.1-1.9 0-2.4.4-2.4 1.7.1.6.3 1.1 1.2 1.4zm-5.5.4c0-.2.1-.4.4-.4h1.1v.6c-.3.2-.7.4-1 .4-.3 0-.5-.1-.5-.4v-.2zm-1.4-2.1c.9-.1 1.7-.1 2.2-.1.5 0 .7.2.7.6v.1h-1.7c-1 0-1.7.5-1.7 1.3v.5c0 1 .8 1.5 1.7 1.5.9 0 1.5-.5 1.8-.9l.2.8H75v-3.3c0-1.5-.8-2-2.2-2-.8 0-2.1.1-2.8.3l.3 1.2zm-1.3-1.3h-3.1c-.9 0-1.4.5-1.4 1.3-.1.9-.2 1.7-.3 2-.1.4-.4.4-.9.5l.2 1.4c1.1.2 2.2-.1 2.4-1.4.1-.5.2-1.4.3-2.2 0-.3.2-.4.5-.4h.4v3.9H69v-5.1zm-6.3 5.2v-5.2H61l-1.6 2.5c-.2.2-.3.5-.4.8 0-.3.1-.5.1-.8v-2.4h-1.7v5.2H59l1.6-2.4c.1-.2.3-.6.4-.9 0 .3-.1.6-.1.9v2.3h1.8zm-8.4-3.8c1.4-.2 1.4-.8 2.2-3.4h-2c-.6 2.2-.8 2.8-1.5 2.8h-.3c.1-.3.1-.6.1-.9v-1.9h-1.9v1.9c0 .3 0 .6.1.9h-.4c-.7 0-.8-.6-1.5-2.8h-2c.8 2.6.8 3.2 2.2 3.4v.1c-1.4.2-1.5.8-2.4 3.7h2c.8-2.6.9-3.1 1.6-3.1h.5c-.1.2-.1.5-.1.7v2.4h1.9v-2.4c0-.2 0-.4-.1-.7h.3c.7 0 .8.5 1.6 3.1h2.1c-.9-3-1-3.5-2.4-3.8zM94.4 378c.8 0 1 .2 1 .9s-.2.9-1 .9-1-.2-1-.9.2-.9 1-.9m0-2.9c.7 0 .9.2.9.9 0 .6-.1.8-.9.8-.7 0-.9-.1-.9-.8 0-.7.2-.9.9-.9m-1.6 2.3c-1 .1-1.3 1-1.3 1.9 0 1.4.6 1.9 2.8 1.9 2.3 0 2.8-.5 2.8-1.9 0-1-.2-1.8-1.3-1.9.8-.1 1.1-.9 1.1-1.6 0-1.3-.5-1.9-2.6-1.9-2.2 0-2.6.6-2.6 1.9 0 .7.4 1.5 1.1 1.6zm-3.2 2c-.5 0-.7.2-.7.7v.5c0 .5.2.7.7.7h.4c.5 0 .7-.2.7-.7v-.6c0-.5-.2-.7-.7-.7h-.4zm-6.7-3.9c1-.1 1.5-.1 2.2-.1.6 0 .8 0 .8.3 0 .4-.5 1.1-1.3 1.9l-1.6 1.7c-.2.2-.3.5-.3.8v1H88v-1.7h-2c-.3 0-.7 0-1 .1l1.8-1.7c.9-1 1.1-1.5 1.1-2.2 0-1.4-1-1.7-2.5-1.7-.8 0-1.5 0-2.6.2l.1 1.4zm-1.4 5.6V374h-1.9l-1.8.7.2 1.2 1.7-.4c-.1.3-.1.6-.1.9v4.8h1.9z" class="st8"/><path d="M38.5 323.9h98.2" style="fill:none;stroke:#3c3c3b;stroke-dasharray:3.93,3.93"/><defs><path id="SVGID_7_" d="M26.8 29.2h215.6v412.7H26.8z"/></defs><clipPath id="SVGID_8_"><use xlink:href="#SVGID_7_" style="overflow:visible"/></clipPath><path d="M117.6 304.8c0-.2.1-.4.4-.4h1.1v.6c-.3.2-.7.4-1 .4-.3 0-.5-.1-.5-.4v-.2zm-1.4-2c.9-.1 1.7-.1 2.2-.1.5 0 .7.2.7.6v.1h-1.7c-1 0-1.7.5-1.7 1.3v.5c0 1 .8 1.5 1.7 1.5.9 0 1.5-.5 1.8-.9l.2.8h1.5v-3.3c0-1.5-.8-2-2.2-2-.8 0-2.1.1-2.8.3l.3 1.2zm-1.3-1.3h-1.8v3.9h-1.2v-3.9h-1.7v3.9H109v-3.9h-1.8v5.2h7.8v-5.2zm-8.9 5.1v-5.2h-1.6l-1.6 2.5c-.2.2-.3.5-.4.8 0-.3.1-.5.1-.8v-2.4h-1.7v5.2h1.6l1.6-2.4c.1-.2.3-.6.4-.9 0 .3-.1.6-.1.9v2.3h1.7zm-6.4-5.1h-1.9v1.8h-1.6v-1.8h-1.9v5.2h1.9v-2.1h1.6v2.1h1.9v-5.2zm-6.4 1.9h-3.1v1.1h3.1v-1.1zm-6 .4h-.7c-.5 0-.6-.1-.6-.6 0-.4.1-.5.6-.5h.7v1.1zm-2 .6c-.3 0-.9.1-1 .6l-.4 1.6h1.9l.3-1.4c0-.2.2-.3.5-.3h.7v1.7H89v-5.2c-.6-.1-1.2-.1-2.6-.1-1.9 0-2.4.4-2.4 1.7 0 .6.3 1.2 1.2 1.4zm-2.2-2.9h-1.9v1.8h-1.6v-1.8h-1.9v5.2h1.9v-2.1h1.6v2.1H83v-5.2zm-7.8 5.1h1.9l-1.5-2.6 1.4-2.5h-1.9l-1 1.9-1-1.9h-1.9l1.4 2.5-1.5 2.6H73l1.1-2.1 1.1 2.1zm-4.2-5.1h-2l-.8 3.1c-.1.2-.1.6-.2.9h-.1c0-.3-.1-.6-.1-.9l-.8-3.1h-2l1.6 4.7c.1.3.3.4.6.4h.3c-.1.3-.3.5-.5.6-.3.2-.8.2-1.4.2l-.2 1.2c.7.1 1.5.1 2.1-.1.8-.3 1.4-.8 1.8-2l1.7-5zm-8.5 1.4c1.4-.2 1.5-.8 2.3-3.4h-2c-.6 2.2-.7 2.8-1.7 2.8h-.3c.1-.3.1-.6.1-.9v-1.9H59v7.2h1.9v-2.4c0-.2 0-.4-.1-.7h.4c1 0 1.1.5 1.8 3.1h2c-.9-3-1-3.6-2.5-3.8zm30.7 8.9c0-.9.1-1.2.8-1.2.8 0 .9.3.9 1.9-.3.2-.6.3-.9.3-.7 0-.8-.2-.8-1m-1.6 4.7c.8.2 1.6.2 2 .2 2.3 0 3.1-.5 3.1-3.8 0-2.9-.5-3.6-2.7-3.6-2.1 0-2.7.8-2.7 2.6 0 1.3.5 2.2 2.1 2.2.6 0 1.1-.1 1.5-.4-.1 1.2-.3 1.6-1.3 1.6h-1.9l-.1 1.2zm-2.1-1.7c-.5 0-.7.2-.7.7v.5c0 .5.2.7.7.7h.4c.5 0 .7-.2.7-.7v-.5c0-.5-.2-.7-.7-.7h-.4zm-1.8-4 .1-1.4h-4.5l-.2 3.2c0 .3.2.6.6.6l1.1.1c1 .1 1.3.2 1.3.9 0 .6-.2.8-1.2.8-.5 0-1.2 0-1.9-.1l-.2 1.5c.9.1 1.8.2 2.6.2 2 0 2.6-1.1 2.6-2.3 0-1.2-.4-2.2-2.1-2.4l-1.2-.2.1-1h2.9zm-21.1-55.4c0 2.8-2.3 5.1-5.1 5.1h-7.4c-.5 0-.9-.4-.9-.9v-8.5c0-.5.4-.9.9-.9h7.4c2.8.1 5.1 2.4 5.1 5.2m-13.8-4.2v8.5c0 .7.6 1.2 1.2 1.2h7.4c3 0 5.5-2.5 5.5-5.5s-2.5-5.5-5.5-5.5H54c-.6.1-1.2.6-1.2 1.3" class="st11"/><path d="M66.6 255.4c0 2.8-2.3 5.1-5.1 5.1h-7.4c-.5 0-.9-.4-.9-.9v-8.5c0-.5.4-.9.9-.9h7.4c2.8.1 5.1 2.4 5.1 5.2zm-13.8-4.2v8.5c0 .7.6 1.2 1.2 1.2h7.4c3 0 5.5-2.5 5.5-5.5s-2.5-5.5-5.5-5.5H54c-.6.1-1.2.6-1.2 1.3z" class="st12"/><path d="M55.7 259.1v-7.3s0-.1.1-.1h5.6c2.1 0 3.8 1.7 3.8 3.8 0 2.1-1.7 3.8-3.8 3.8l-5.7-.2c0 .1 0 0 0 0z" class="st12"/><path d="M55.8 259v-7.2h5.5c2 0 3.6 1.6 3.6 3.6s-1.6 3.6-3.6 3.6h-5.5zm-.3-7.2v7.3c0 .1.1.3.3.3h5.6c2.2 0 3.9-1.8 3.9-3.9 0-2.2-1.8-3.9-3.9-3.9h-5.6c-.2-.1-.3 0-.3.2" class="st11"/><path d="M55.8 259v-7.2h5.5c2 0 3.6 1.6 3.6 3.6s-1.6 3.6-3.6 3.6h-5.5zm-.3-7.2v7.3c0 .1.1.3.3.3h5.6c2.2 0 3.9-1.8 3.9-3.9 0-2.2-1.8-3.9-3.9-3.9h-5.6c-.2-.1-.3 0-.3.2z" class="st12"/><path d="m113.9 282.6.8 1.3 23.7-14.4-.7-1.3z" class="st5"/><path d="m109.6 253.3 1.2.7-9.4 15.5-1.1-.7z" class="st13"/><defs><path id="SVGID_9_" d="M26.8 29.2h215.6v412.7H26.8z"/></defs><clipPath id="SVGID_10_"><use xlink:href="#SVGID_9_" style="overflow:visible"/></clipPath><path d="M111.1 254.1s-2.8-1.9-6.9-3c-1.8-.5-3.2-.8-4.3-1" style="clip-path:url(#SVGID_10_);fill:none;stroke:#3c3c3b;stroke-width:.633"/><path d="m109.6 220.7 1.2-.7-9.4-15.4-1.1.6z" class="st13"/><defs><path id="SVGID_11_" d="M26.8 29.2h215.6v412.7H26.8z"/></defs><clipPath id="SVGID_12_"><use xlink:href="#SVGID_11_" style="overflow:visible"/></clipPath><path d="M111.1 219.9s-2.8 1.9-6.9 3c-1.8.5-3.2.8-4.3 1" style="clip-path:url(#SVGID_12_);fill:none;stroke:#3c3c3b;stroke-width:.633"/><path d="M114.8 284.2s-2.1-3.1-3.4-7.8c-1.2-4.6-1.4-7.2-1.4-7.2" style="clip-path:url(#SVGID_12_);fill:none;stroke:#3c3c3b;stroke-width:.7"/><path d="m113.9 176.2.8-1.3 23.7 14.3-.7 1.3z" class="st5"/><defs><path id="SVGID_13_" d="M26.8 29.2h215.6v412.7H26.8z"/></defs><clipPath id="SVGID_14_"><use xlink:href="#SVGID_13_" style="overflow:visible"/></clipPath><path d="M114.8 174.6s-2.1 3.1-3.4 7.8c-1.2 4.6-1.4 7.2-1.4 7.2" style="clip-path:url(#SVGID_14_);fill:none;stroke:#3c3c3b;stroke-width:.7"/><path d="m161.7 193.6-.8-1.3-23.7 14.3.7 1.3z" class="st5"/><defs><path id="SVGID_15_" d="M26.8 29.2h215.6v412.7H26.8z"/></defs><clipPath id="SVGID_16_"><use xlink:href="#SVGID_15_" style="overflow:visible"/></clipPath><path d="M160.8 191.9s2.1 3.1 3.4 7.8c1.2 4.6 1.4 7.2 1.4 7.2" style="clip-path:url(#SVGID_16_);fill:none;stroke:#3c3c3b;stroke-width:.7"/><path d="m226 235-1.3.7 14.4 23.8 1.3-.8z" class="st5"/><defs><path id="SVGID_17_" d="M26.8 29.2h215.6v412.7H26.8z"/></defs><clipPath id="SVGID_18_"><use xlink:href="#SVGID_17_" style="overflow:visible"/></clipPath><path d="M224.4 235.9s3.1-2.1 7.8-3.4c4.6-1.2 7.2-1.4 7.2-1.4" style="clip-path:url(#SVGID_18_);fill:none;stroke:#3c3c3b;stroke-width:.7"/><path d="M61.3 255.4c0 .5-.4 1-1 1-.5 0-1-.4-1-1 0-.5.4-1 1-1 .6.1 1 .5 1 1m-2.2 0c0 .7.6 1.3 1.3 1.3.7 0 1.3-.6 1.3-1.3 0-.7-.6-1.3-1.3-1.3-.7 0-1.3.6-1.3 1.3" style="clip-path:url(#SVGID_18_);fill:#3c3c3b"/><path d="M61.3 255.4c0 .5-.4 1-1 1-.5 0-1-.4-1-1 0-.5.4-1 1-1 .6.1 1 .5 1 1zm-2.2 0c0 .7.6 1.3 1.3 1.3.7 0 1.3-.6 1.3-1.3 0-.7-.6-1.3-1.3-1.3-.7 0-1.3.6-1.3 1.3z" style="clip-path:url(#SVGID_18_);fill:none;stroke:#3c3c3b;stroke-width:.25"/><path d="m56.397 258.303 2.323-1.736.239.32-2.323 1.737z" class="st1"/><path d="m56.397 258.303 2.323-1.736.239.32-2.323 1.737z" class="st22"/><path d="m56.4 252.6 2.3 1.8.2-.3-2.3-1.8z" class="st1"/><path d="m56.4 252.6 2.3 1.8.2-.3-2.3-1.8z" class="st22"/><defs><path id="SVGID_19_" d="M26.8 29.2h215.6v412.7H26.8z"/></defs><clipPath id="SVGID_20_"><use xlink:href="#SVGID_19_" style="overflow:visible"/></clipPath><path d="M52.8 259c0 .8-.6 1.4-1.4 1.4h-1.9c-.8 0-1.4-.6-1.4-1.4v-7.1c0-.8.6-1.4 1.4-1.4h1.9c.8 0 1.4.6 1.4 1.4v7.1zm-5.1-7.1v7.1c0 1 .8 1.8 1.8 1.8h1.9c1 0 1.8-.8 1.8-1.8v-7.1c0-1-.8-1.8-1.8-1.8h-1.9c-1 0-1.8.8-1.8 1.8" class="st23"/><path d="M52.8 259c0 .8-.6 1.4-1.4 1.4h-1.9c-.8 0-1.4-.6-1.4-1.4v-7.1c0-.8.6-1.4 1.4-1.4h1.9c.8 0 1.4.6 1.4 1.4v7.1zm-5.1-7.1v7.1c0 1 .8 1.8 1.8 1.8h1.9c1 0 1.8-.8 1.8-1.8v-7.1c0-1-.8-1.8-1.8-1.8h-1.9c-1 0-1.8.8-1.8 1.8z" class="st24"/><path d="M51 255.4c0 .3-.2.5-.5.5s-.5-.2-.5-.5.2-.5.5-.5c.2 0 .5.2.5.5m-1.5 0c0 .5.4.9.9.9s.9-.4.9-.9-.4-.9-.9-.9-.9.4-.9.9" class="st23"/><path d="M51 255.4c0 .3-.2.5-.5.5s-.5-.2-.5-.5.2-.5.5-.5c.2 0 .5.2.5.5zm-1.5 0c0 .5.4.9.9.9s.9-.4.9-.9-.4-.9-.9-.9-.9.4-.9.9z" class="st24"/><path d="m201 88.4.7 1.2 17.4-10.4-.8-1.3z" class="st5"/><defs><path id="SVGID_21_" d="M26.8 29.2h215.6v412.7H26.8z"/></defs><clipPath id="SVGID_22_"><use xlink:href="#SVGID_21_" style="overflow:visible"/></clipPath><path d="M201.9 90s-2.1-3.1-3.3-7.6c-.6-2.4-1-4.3-1.2-5.5" style="clip-path:url(#SVGID_22_);fill:none;stroke:#3c3c3b;stroke-width:.7"/><path d="m98.8 88.4.8 1.2 17.3-10.4-.7-1.3z" class="st5"/><defs><path id="SVGID_23_" d="M26.8 29.2h215.6v412.7H26.8z"/></defs><clipPath id="SVGID_24_"><use xlink:href="#SVGID_23_" style="overflow:visible"/></clipPath><path d="M99.7 90s-2.1-3.1-3.3-7.6c-.6-2.4-1-4.3-1.2-5.5" class="st26"/><path d="M72.1 227.3c3 0 5.4 2.4 5.4 5.4v5.8c0 .5-.4.8-.8.8H64.4c-.5 0-.8-.4-.8-.8v-5.8c0-3 2.4-5.4 5.4-5.4h3.1zm-7.7 12.3h12.3c.6 0 1.1-.5 1.1-1.1v-5.8c0-3.2-2.6-5.7-5.7-5.7H69c-3.2 0-5.7 2.6-5.7 5.7v5.8c0 .6.5 1.1 1.1 1.1" class="st27"/><path d="M72.1 227.3c3 0 5.4 2.4 5.4 5.4v5.8c0 .5-.4.8-.8.8H64.4c-.5 0-.8-.4-.8-.8v-5.8c0-3 2.4-5.4 5.4-5.4h3.1zm-7.7 12.3h12.3c.6 0 1.1-.5 1.1-1.1v-5.8c0-3.2-2.6-5.7-5.7-5.7H69c-3.2 0-5.7 2.6-5.7 5.7v5.8c0 .6.5 1.1 1.1 1.1z" class="st28"/><path d="M72.1 228.6c2.2 0 4.1 1.8 4.1 4.1v3.4c0 .4-.3.7-.7.7h-9.8c-.4 0-.7-.3-.7-.7v-3.4c0-2.2 1.8-4.1 4.1-4.1h3zm-6.5 8.5h9.8c.6 0 1-.5 1-1v-3.4c0-2.4-2-4.4-4.4-4.4h-3c-2.4 0-4.4 2-4.4 4.4v3.4c0 .5.5 1 1 1" class="st27"/><path d="M72.1 228.6c2.2 0 4.1 1.8 4.1 4.1v3.4c0 .4-.3.7-.7.7h-9.8c-.4 0-.7-.3-.7-.7v-3.4c0-2.2 1.8-4.1 4.1-4.1h3zm-6.5 8.5h9.8c.6 0 1-.5 1-1v-3.4c0-2.4-2-4.4-4.4-4.4h-3c-2.4 0-4.4 2-4.4 4.4v3.4c0 .5.5 1 1 1z" class="st28"/><path d="M70.5 231.5c.4 0 .7.3.7.7 0 .4-.3.7-.7.7s-.7-.3-.7-.7c0-.4.3-.7.7-.7m0 1.6c.5 0 1-.4 1-1 0-.5-.4-1-1-1s-1 .4-1 1 .5 1 1 1" class="st27"/><path d="M70.5 231.5c.4 0 .7.3.7.7 0 .4-.3.7-.7.7s-.7-.3-.7-.7c0-.4.3-.7.7-.7zm0 1.6c.5 0 1-.4 1-1 0-.5-.4-1-1-1s-1 .4-1 1 .5 1 1 1z" class="st28"/><path d="M46.2 191.8s-5.7 0-5.7 5.7v33.9s0 5.7 5.7 5.7h7.6s5.7 0 5.7-5.7v-33.9s0-5.7-5.7-5.7h-7.6z" class="st26"/><path d="M48 194.9s-5.7 0-5.7 5.7v27.6s0 5.7 5.7 5.7h4.1s5.7 0 5.7-5.7v-27.6s0-5.7-5.7-5.7H48z" class="st26"/><path d="M46.9 198.7s-2.8 0-2.8 2.8v27.7s0 2.8 2.8 2.8h6.3s2.8 0 2.8-2.8v-27.7s0-2.8-2.8-2.8h-6.3z" class="st26"/><path d="M50 228.7c.5 0 .8-.4.8-.8 0-.5-.4-.8-.8-.8-.5 0-.8.4-.8.8s.4.8.8.8z" class="st26"/><path d="M60.6 188.6v52.5" class="st5"/><path d="M64.6 273.3H49.5v16.2h15.2v-16.2zm-15.5-.3H65v17H49.1v-17z" class="st1"/><path d="M64.6 273.3H49.5v16.2h15.2v-16.2zm-15.5-.3H65v17H49.1v-17z" class="st22"/><defs><path id="SVGID_25_" d="M26.8 29.2h215.6v412.7H26.8z"/></defs><clipPath id="SVGID_26_"><use xlink:href="#SVGID_25_" style="overflow:visible"/></clipPath><path d="M62.4 288.1c.4 0 .7-.3.7-.7v-8.5c0-.4-.3-.7-.7-.7H51.7c-.4 0-.7.3-.7.7v8.5c0 .4.3.7.7.7h10.7zm-10.7-10.3h10.6c.6 0 1 .5 1 1.1v8.5c0 .6-.5 1.1-1 1.1H51.7c-.6 0-1-.5-1-1.1v-8.5c0-.7.5-1.1 1-1.1" style="clip-path:url(#SVGID_26_);fill:#3c3c3b"/><path d="M62.4 288.1c.4 0 .7-.3.7-.7v-8.5c0-.4-.3-.7-.7-.7H51.7c-.4 0-.7.3-.7.7v8.5c0 .4.3.7.7.7h10.7zm-10.7-10.3h10.6c.6 0 1 .5 1 1.1v8.5c0 .6-.5 1.1-1 1.1H51.7c-.6 0-1-.5-1-1.1v-8.5c0-.7.5-1.1 1-1.1z" style="clip-path:url(#SVGID_26_);fill:none;stroke:#3c3c3b;stroke-width:.25"/><path d="M61.9 279.4h-9.6v7.5h9.6v-7.5zm-10-.4h10.3v8.2H51.9V279z" class="st1"/><path d="M61.9 279.4h-9.6v7.5h9.6v-7.5zm-10-.4h10.3v8.2H51.9V279z" class="st22"/><path d="M57 284.6c.5 0 .9-.4.9-.9s-.4-.9-.9-.9-.9.4-.9.9c.1.4.5.9.9.9m0-2.3c.7 0 1.2.6 1.2 1.3 0 .7-.5 1.3-1.2 1.3s-1.2-.6-1.2-1.3c0-.7.6-1.3 1.2-1.3" class="st1"/><path d="M57 284.6c.5 0 .9-.4.9-.9s-.4-.9-.9-.9-.9.4-.9.9c.1.4.5.9.9.9zm0-2.3c.7 0 1.2.6 1.2 1.3 0 .7-.5 1.3-1.2 1.3s-1.2-.6-1.2-1.3c0-.7.6-1.3 1.2-1.3z" class="st22"/><path d="M26.8 29.2h215.6v412.7H26.8z" class="st6"/><path d="M39.6 244.7h6.5V261h-6.5zm0 18.1h6.5v4.2h-6.5zm0 12.1h6.5v16.3h-6.5zm0 18.1h6.5v4.2h-6.5z" class="st7"/></g></switch></svg>